<svg viewBox="0 0 128 72" xmlns="http://www.w3.org/2000/svg"><path d="m64 8 64 32-64 32-64-32z" fill="#825012"/><path d="m64 8 64 32-64 32-64-32z" fill="#825012"/><path d="m60.4 21.2c.1.1.5.2 1 .2s.8-.1 1-.2c0-.1.1-.2.1-.3v-.1c0-.6-.5-1-1.1-1s-1 .4-1.1 1v.1c.1.1.1.3.1.3z" fill="#f90"/><path d="m60.9 20-2.2-1.9 1.5.5-1.4-3.2 1.8 2.6-.6-4.3 1.2 4.6.8-5.3v4.6l1.7-2-1.4 3.6 1.7-1-2 1.8z" fill="#539b00"/><path d="m64.4 19.2c.1.1.5.2 1 .2s.8-.1 1-.2c0-.1.1-.2.1-.3v-.1c0-.6-.5-1-1.1-1s-1 .4-1.1 1v.1c.1.1.1.3.1.3z" fill="#f90"/><path d="m64.9 18-2.2-1.9 1.5.5-1.4-3.2 1.8 2.6-.6-4.3 1.2 4.6.8-5.3v4.6l1.7-2-1.4 3.6 1.7-1-2 1.8z" fill="#539b00"/><path d="m68.4 17.2c.1.1.5.2 1 .2s.8-.1 1-.2c0-.1.1-.2.1-.3v-.1c0-.6-.5-1-1.1-1s-1 .4-1.1 1v.1c.1.1.1.3.1.3z" fill="#f90"/><path d="m68.9 16-2.2-1.9 1.5.5-1.4-3.2 1.8 2.6-.6-4.3 1.2 4.6.8-5.3v4.6l1.7-2-1.4 3.6 1.7-1-2 1.8z" fill="#539b00"/><path d="m72.4 15.2c.1.1.5.2 1 .2s.8-.1 1-.2c0-.1.1-.2.1-.3v-.1c0-.6-.5-1-1.1-1s-1 .4-1.1 1v.1c.1.1.1.3.1.3z" fill="#f90"/><path d="m72.9 14-2.2-1.9 1.5.5-1.4-3.2 1.8 2.6-.6-4.3 1.2 4.6.8-5.3v4.6l1.7-2-1.4 3.6 1.7-1-2 1.8z" fill="#539b00"/><path d="m54.4 18.2c.1.1.5.2 1 .2s.8-.1 1-.2c0-.1.1-.2.1-.3v-.1c0-.6-.5-1-1.1-1s-1 .4-1.1 1v.1c.1.1.1.3.1.3z" fill="#f90"/><path d="m54.9 17-2.2-1.9 1.5.5-1.4-3.2 1.8 2.6-.6-4.3 1.2 4.6.8-5.3v4.6l1.7-2-1.4 3.6 1.7-1-2 1.8z" fill="#539b00"/><path d="m58.4 16.2c.1.1.5.2 1 .2s.8-.1 1-.2c0-.1.1-.2.1-.3v-.1c0-.6-.5-1-1.1-1s-1 .4-1.1 1v.1c.1.1.1.3.1.3z" fill="#f90"/><path d="m58.9 15-2.2-1.9 1.5.5-1.4-3.2 1.8 2.6-.6-4.3 1.2 4.6.8-5.3v4.6l1.7-2-1.4 3.6 1.7-1-2 1.8z" fill="#539b00"/><path d="m62.4 14.2c.1.1.5.2 1 .2s.8-.1 1-.2c0-.1.1-.2.1-.3v-.1c0-.6-.5-1-1.1-1s-1 .4-1.1 1v.1c.1.1.1.3.1.3z" fill="#f90"/><path d="m62.9 13-2.2-1.9 1.5.5-1.4-3.2 1.8 2.6-.6-4.3 1.2 4.6.8-5.3v4.6l1.7-2-1.4 3.6 1.7-1-2 1.8z" fill="#539b00"/><path d="m66.4 12.2c.1.1.5.2 1 .2s.8-.1 1-.2c0-.1.1-.2.1-.3v-.1c0-.6-.5-1-1.1-1s-1 .4-1.1 1v.1c.1.1.1.3.1.3z" fill="#f90"/><path d="m66.9 11-2.2-1.9 1.5.5-1.4-3.2 1.8 2.6-.6-4.3 1.2 4.6.8-5.3v4.6l1.7-2-1.4 3.6 1.7-1-2 1.8z" fill="#539b00"/><path d="m76.4 29.2c.1.1.5.2 1 .2s.8-.1 1-.2c0-.1.1-.2.1-.3v-.1c0-.6-.5-1-1.1-1s-1 .4-1.1 1v.1c.1.1.1.3.1.3z" fill="#f90"/><path d="m76.9 28-2.2-1.9 1.5.5-1.4-3.2 1.8 2.6-.6-4.3 1.2 4.6.8-5.3v4.6l1.7-2-1.4 3.6 1.7-1-2 1.8z" fill="#539b00"/><path d="m80.4 27.2c.1.1.5.2 1 .2s.8-.1 1-.2c0-.1.1-.2.1-.3v-.1c0-.6-.5-1-1.1-1s-1 .4-1.1 1v.1c.1.1.1.3.1.3z" fill="#f90"/><path d="m80.9 26-2.2-1.9 1.5.5-1.4-3.2 1.8 2.6-.6-4.3 1.2 4.6.8-5.3v4.6l1.7-2-1.4 3.6 1.7-1-2 1.8z" fill="#539b00"/><path d="m84.4 25.2c.1.1.5.2 1 .2s.8-.1 1-.2c0-.1.1-.2.1-.3v-.1c0-.6-.5-1-1.1-1s-1 .4-1.1 1v.1c.1.1.1.3.1.3z" fill="#f90"/><path d="m84.9 24-2.2-1.9 1.5.5-1.4-3.2 1.8 2.6-.6-4.3 1.2 4.6.8-5.3v4.6l1.7-2-1.4 3.6 1.7-1-2 1.8z" fill="#539b00"/><path d="m88.4 23.2c.1.1.5.2 1 .2s.8-.1 1-.2c0-.1.1-.2.1-.3v-.1c0-.6-.5-1-1.1-1s-1 .4-1.1 1v.1c.1.1.1.3.1.3z" fill="#f90"/><path d="m88.9 22-2.2-1.9 1.5.5-1.4-3.2 1.8 2.6-.6-4.3 1.2 4.6.8-5.3v4.6l1.7-2-1.4 3.6 1.7-1-2 1.8z" fill="#539b00"/><path d="m70.4 26.2c.1.1.5.2 1 .2s.8-.1 1-.2c0-.1.1-.2.1-.3v-.1c0-.6-.5-1-1.1-1s-1 .4-1.1 1v.1c.1.1.1.3.1.3z" fill="#f90"/><path d="m70.9 25-2.2-1.9 1.5.5-1.4-3.2 1.8 2.6-.6-4.3 1.2 4.6.8-5.3v4.6l1.7-2-1.4 3.6 1.7-1-2 1.8z" fill="#539b00"/><path d="m74.4 24.2c.1.1.5.2 1 .2s.8-.1 1-.2c0-.1.1-.2.1-.3v-.1c0-.6-.5-1-1.1-1s-1 .4-1.1 1v.1c.1.1.1.3.1.3z" fill="#f90"/><path d="m74.9 23-2.2-1.9 1.5.5-1.4-3.2 1.8 2.6-.6-4.3 1.2 4.6.8-5.3v4.6l1.7-2-1.4 3.6 1.7-1-2 1.8z" fill="#539b00"/><path d="m78.4 22.2c.1.1.5.2 1 .2s.8-.1 1-.2c0-.1.1-.2.1-.3v-.1c0-.6-.5-1-1.1-1s-1 .4-1.1 1v.1c.1.1.1.3.1.3z" fill="#f90"/><path d="m78.9 21-2.2-1.9 1.5.5-1.4-3.2 1.8 2.6-.6-4.3 1.2 4.6.8-5.3v4.6l1.7-2-1.4 3.6 1.7-1-2 1.8z" fill="#539b00"/><path d="m82.4 20.2c.1.1.5.2 1 .2s.8-.1 1-.2c0-.1.1-.2.1-.3v-.1c0-.6-.5-1-1.1-1s-1 .4-1.1 1v.1c.1.1.1.3.1.3z" fill="#f90"/><path d="m82.9 19-2.2-1.9 1.5.5-1.4-3.2 1.8 2.6-.6-4.3 1.2 4.6.8-5.3v4.6l1.7-2-1.4 3.6 1.7-1-2 1.8z" fill="#539b00"/><path d="m92.4 37.2c.1.1.5.2 1 .2s.8-.1 1-.2c0-.1.1-.2.1-.3v-.1c0-.6-.5-1-1.1-1s-1 .4-1.1 1v.1c.1.1.1.3.1.3z" fill="#f90"/><path d="m92.9 36-2.2-1.9 1.5.5-1.4-3.2 1.8 2.6-.6-4.3 1.2 4.6.8-5.3v4.6l1.7-2-1.4 3.6 1.7-1-2 1.8z" fill="#539b00"/><path d="m96.4 35.2c.1.1.5.2 1 .2s.8-.1 1-.2c0-.1.1-.2.1-.3v-.1c0-.6-.5-1-1.1-1s-1 .4-1.1 1v.1c.1.1.1.3.1.3z" fill="#f90"/><path d="m96.9 34-2.2-1.9 1.5.5-1.4-3.2 1.8 2.6-.6-4.3 1.2 4.6.8-5.3v4.6l1.7-2-1.4 3.6 1.7-1-2 1.8z" fill="#539b00"/><path d="m100.4 33.2c.1.1.5.2 1 .2s.8-.1 1-.2c0-.1.1-.2.1-.3v-.1c0-.6-.5-1-1.1-1s-1 .4-1.1 1v.1c.1.1.1.3.1.3z" fill="#f90"/><path d="m100.9 32-2.2-1.9 1.5.5-1.4-3.2 1.8 2.6-.6-4.3 1.2 4.6.8-5.3v4.6l1.7-2-1.4 3.6 1.7-1-2 1.8z" fill="#539b00"/><path d="m104.4 31.2c.1.1.5.2 1 .2s.8-.1 1-.2c0-.1.1-.2.1-.3v-.1c0-.6-.5-1-1.1-1s-1 .4-1.1 1v.1c.1.1.1.3.1.3z" fill="#f90"/><path d="m104.9 30-2.2-1.9 1.5.5-1.4-3.2 1.8 2.6-.6-4.3 1.2 4.6.8-5.3v4.6l1.7-2-1.4 3.6 1.7-1-2 1.8z" fill="#539b00"/><path d="m86.4 34.2c.1.1.5.2 1 .2s.8-.1 1-.2c0-.1.1-.2.1-.3v-.1c0-.6-.5-1-1.1-1s-1 .4-1.1 1v.1c.1.1.1.3.1.3z" fill="#f90"/><path d="m86.9 33-2.2-1.9 1.5.5-1.4-3.2 1.8 2.6-.6-4.3 1.2 4.6.8-5.3v4.6l1.7-2-1.4 3.6 1.7-1-2 1.8z" fill="#539b00"/><path d="m90.4 32.2c.1.1.5.2 1 .2s.8-.1 1-.2c0-.1.1-.2.1-.3v-.1c0-.6-.5-1-1.1-1s-1 .4-1.1 1v.1c.1.1.1.3.1.3z" fill="#f90"/><path d="m90.9 31-2.2-1.9 1.5.5-1.4-3.2 1.8 2.6-.6-4.3 1.2 4.6.8-5.3v4.6l1.7-2-1.4 3.6 1.7-1-2 1.8z" fill="#539b00"/><path d="m94.4 30.2c.1.1.5.2 1 .2s.8-.1 1-.2c0-.1.1-.2.1-.3v-.1c0-.6-.5-1-1.1-1s-1 .4-1.1 1v.1c.1.1.1.3.1.3z" fill="#f90"/><path d="m94.9 29-2.2-1.9 1.5.5-1.4-3.2 1.8 2.6-.6-4.3 1.2 4.6.8-5.3v4.6l1.7-2-1.4 3.6 1.7-1-2 1.8z" fill="#539b00"/><path d="m98.4 28.2c.1.1.5.2 1 .2s.8-.1 1-.2c0-.1.1-.2.1-.3v-.1c0-.6-.5-1-1.1-1s-1 .4-1.1 1v.1c.1.1.1.3.1.3z" fill="#f90"/><path d="m98.9 27-2.2-1.9 1.5.5-1.4-3.2 1.8 2.6-.6-4.3 1.2 4.6.8-5.3v4.6l1.7-2-1.4 3.6 1.7-1-2 1.8z" fill="#539b00"/><path d="m108.4 45.2c.1.1.5.2 1 .2s.8-.1 1-.2c0-.1.1-.2.1-.3v-.1c0-.6-.5-1-1.1-1s-1 .4-1.1 1v.1c.1.1.1.3.1.3z" fill="#f90"/><path d="m108.9 44-2.2-1.9 1.5.5-1.4-3.2 1.8 2.6-.6-4.3 1.2 4.6.8-5.3v4.6l1.7-2-1.4 3.6 1.7-1-2 1.8z" fill="#539b00"/><path d="m112.4 43.2c.1.1.5.2 1 .2s.8-.1 1-.2c0-.1.1-.2.1-.3v-.1c0-.6-.5-1-1.1-1s-1 .4-1.1 1v.1c.1.1.1.3.1.3z" fill="#f90"/><path d="m112.9 42-2.2-1.9 1.5.5-1.4-3.2 1.8 2.6-.6-4.3 1.2 4.6.8-5.3v4.6l1.7-2-1.4 3.6 1.7-1-2 1.8z" fill="#539b00"/><path d="m116.4 41.2c.1.1.5.2 1 .2s.8-.1 1-.2c0-.1.1-.2.1-.3v-.1c0-.6-.5-1-1.1-1s-1 .4-1.1 1v.1c.1.1.1.3.1.3z" fill="#f90"/><path d="m116.9 40-2.2-1.9 1.5.5-1.4-3.2 1.8 2.6-.6-4.3 1.2 4.6.8-5.3v4.6l1.7-2-1.4 3.6 1.7-1-2 1.8z" fill="#539b00"/><path d="m120.4 39.2c.1.1.5.2 1 .2s.8-.1 1-.2c0-.1.1-.2.1-.3v-.1c0-.6-.5-1-1.1-1s-1 .4-1.1 1v.1c.1.1.1.3.1.3z" fill="#f90"/><path d="m120.9 38-2.2-1.9 1.5.5-1.4-3.2 1.8 2.6-.6-4.3 1.2 4.6.8-5.3v4.6l1.7-2-1.4 3.6 1.7-1-2 1.8z" fill="#539b00"/><path d="m102.4 42.2c.1.1.5.2 1 .2s.8-.1 1-.2c0-.1.1-.2.1-.3v-.1c0-.6-.5-1-1.1-1s-1 .4-1.1 1v.1c.1.1.1.3.1.3z" fill="#f90"/><path d="m102.9 41-2.2-1.9 1.5.5-1.4-3.2 1.8 2.6-.6-4.3 1.2 4.6.8-5.3v4.6l1.7-2-1.4 3.6 1.7-1-2 1.8z" fill="#539b00"/><path d="m106.4 40.2c.1.1.5.2 1 .2s.8-.1 1-.2c0-.1.1-.2.1-.3v-.1c0-.6-.5-1-1.1-1s-1 .4-1.1 1v.1c.1.1.1.3.1.3z" fill="#f90"/><path d="m106.9 39-2.2-1.9 1.5.5-1.4-3.2 1.8 2.6-.6-4.3 1.2 4.6.8-5.3v4.6l1.7-2-1.4 3.6 1.7-1-2 1.8z" fill="#539b00"/><path d="m110.4 38.2c.1.1.5.2 1 .2s.8-.1 1-.2c0-.1.1-.2.1-.3v-.1c0-.6-.5-1-1.1-1s-1 .4-1.1 1v.1c.1.1.1.3.1.3z" fill="#f90"/><path d="m110.9 37-2.2-1.9 1.5.5-1.4-3.2 1.8 2.6-.6-4.3 1.2 4.6.8-5.3v4.6l1.7-2-1.4 3.6 1.7-1-2 1.8z" fill="#539b00"/><path d="m114.4 36.2c.1.1.5.2 1 .2s.8-.1 1-.2c0-.1.1-.2.1-.3v-.1c0-.6-.5-1-1.1-1s-1 .4-1.1 1v.1c.1.1.1.3.1.3z" fill="#f90"/><path d="m114.9 35-2.2-1.9 1.5.5-1.4-3.2 1.8 2.6-.6-4.3 1.2 4.6.8-5.3v4.6l1.7-2-1.4 3.6 1.7-1-2 1.8z" fill="#539b00"/><path d="m44.4 29.2c.1.1.5.2 1 .2s.8-.1 1-.2c0-.1.1-.2.1-.3v-.1c0-.6-.5-1-1.1-1s-1 .4-1.1 1v.1c.1.1.1.3.1.3z" fill="#f90"/><path d="m44.9 28-2.2-1.9 1.5.5-1.4-3.2 1.8 2.6-.6-4.3 1.2 4.6.8-5.3v4.6l1.7-2-1.4 3.6 1.7-1-2 1.8z" fill="#539b00"/><path d="m48.4 27.2c.1.1.5.2 1 .2s.8-.1 1-.2c0-.1.1-.2.1-.3v-.1c0-.6-.5-1-1.1-1s-1 .4-1.1 1v.1c.1.1.1.3.1.3z" fill="#f90"/><path d="m48.9 26-2.2-1.9 1.5.5-1.4-3.2 1.8 2.6-.6-4.3 1.2 4.6.8-5.3v4.6l1.7-2-1.4 3.6 1.7-1-2 1.8z" fill="#539b00"/><path d="m52.4 25.2c.1.1.5.2 1 .2s.8-.1 1-.2c0-.1.1-.2.1-.3v-.1c0-.6-.5-1-1.1-1s-1 .4-1.1 1v.1c.1.1.1.3.1.3z" fill="#f90"/><path d="m52.9 24-2.2-1.9 1.5.5-1.4-3.2 1.8 2.6-.6-4.3 1.2 4.6.8-5.3v4.6l1.7-2-1.4 3.6 1.7-1-2 1.8z" fill="#539b00"/><path d="m56.4 23.2c.1.1.5.2 1 .2s.8-.1 1-.2c0-.1.1-.2.1-.3v-.1c0-.6-.5-1-1.1-1s-1 .4-1.1 1v.1c.1.1.1.3.1.3z" fill="#f90"/><path d="m56.9 22-2.2-1.9 1.5.5-1.4-3.2 1.8 2.6-.6-4.3 1.2 4.6.8-5.3v4.6l1.7-2-1.4 3.6 1.7-1-2 1.8z" fill="#539b00"/><path d="m38.4 26.2c.1.1.5.2 1 .2s.8-.1 1-.2c0-.1.1-.2.1-.3v-.1c0-.6-.5-1-1.1-1s-1 .4-1.1 1v.1c.1.1.1.3.1.3z" fill="#f90"/><path d="m38.9 25-2.2-1.9 1.5.5-1.4-3.2 1.8 2.6-.6-4.3 1.2 4.6.8-5.3v4.6l1.7-2-1.4 3.6 1.7-1-2 1.8z" fill="#539b00"/><path d="m42.4 24.2c.1.1.5.2 1 .2s.8-.1 1-.2c0-.1.1-.2.1-.3v-.1c0-.6-.5-1-1.1-1s-1 .4-1.1 1v.1c.1.1.1.3.1.3z" fill="#f90"/><path d="m42.9 23-2.2-1.9 1.5.5-1.4-3.2 1.8 2.6-.6-4.3 1.2 4.6.8-5.3v4.6l1.7-2-1.4 3.6 1.7-1-2 1.8z" fill="#539b00"/><path d="m46.4 22.2c.1.1.5.2 1 .2s.8-.1 1-.2c0-.1.1-.2.1-.3v-.1c0-.6-.5-1-1.1-1s-1 .4-1.1 1v.1c.1.1.1.3.1.3z" fill="#f90"/><path d="m46.9 21-2.2-1.9 1.5.5-1.4-3.2 1.8 2.6-.6-4.3 1.2 4.6.8-5.3v4.6l1.7-2-1.4 3.6 1.7-1-2 1.8z" fill="#539b00"/><path d="m50.4 20.2c.1.1.5.2 1 .2s.8-.1 1-.2c0-.1.1-.2.1-.3v-.1c0-.6-.5-1-1.1-1s-1 .4-1.1 1v.1c.1.1.1.3.1.3z" fill="#f90"/><path d="m50.9 19-2.2-1.9 1.5.5-1.4-3.2 1.8 2.6-.6-4.3 1.2 4.6.8-5.3v4.6l1.7-2-1.4 3.6 1.7-1-2 1.8z" fill="#539b00"/><path d="m60.4 37.2c.1.1.5.2 1 .2s.8-.1 1-.2c0-.1.1-.2.1-.3v-.1c0-.6-.5-1-1.1-1s-1 .4-1.1 1v.1c.1.1.1.3.1.3z" fill="#f90"/><path d="m60.9 36-2.2-1.9 1.5.5-1.4-3.2 1.8 2.6-.6-4.3 1.2 4.6.8-5.3v4.6l1.7-2-1.4 3.6 1.7-1-2 1.8z" fill="#539b00"/><path d="m64.4 35.2c.1.1.5.2 1 .2s.8-.1 1-.2c0-.1.1-.2.1-.3v-.1c0-.6-.5-1-1.1-1s-1 .4-1.1 1v.1c.1.1.1.3.1.3z" fill="#f90"/><path d="m64.9 34-2.2-1.9 1.5.5-1.4-3.2 1.8 2.6-.6-4.3 1.2 4.6.8-5.3v4.6l1.7-2-1.4 3.6 1.7-1-2 1.8z" fill="#539b00"/><path d="m68.4 33.2c.1.1.5.2 1 .2s.8-.1 1-.2c0-.1.1-.2.1-.3v-.1c0-.6-.5-1-1.1-1s-1 .4-1.1 1v.1c.1.1.1.3.1.3z" fill="#f90"/><path d="m68.9 32-2.2-1.9 1.5.5-1.4-3.2 1.8 2.6-.6-4.3 1.2 4.6.8-5.3v4.6l1.7-2-1.4 3.6 1.7-1-2 1.8z" fill="#539b00"/><path d="m72.4 31.2c.1.1.5.2 1 .2s.8-.1 1-.2c0-.1.1-.2.1-.3v-.1c0-.6-.5-1-1.1-1s-1 .4-1.1 1v.1c.1.1.1.3.1.3z" fill="#f90"/><path d="m72.9 30-2.2-1.9 1.5.5-1.4-3.2 1.8 2.6-.6-4.3 1.2 4.6.8-5.3v4.6l1.7-2-1.4 3.6 1.7-1-2 1.8z" fill="#539b00"/><path d="m54.4 34.2c.1.1.5.2 1 .2s.8-.1 1-.2c0-.1.1-.2.1-.3v-.1c0-.6-.5-1-1.1-1s-1 .4-1.1 1v.1c.1.1.1.3.1.3z" fill="#f90"/><path d="m54.9 33-2.2-1.9 1.5.5-1.4-3.2 1.8 2.6-.6-4.3 1.2 4.6.8-5.3v4.6l1.7-2-1.4 3.6 1.7-1-2 1.8z" fill="#539b00"/><path d="m58.4 32.2c.1.1.5.2 1 .2s.8-.1 1-.2c0-.1.1-.2.1-.3v-.1c0-.6-.5-1-1.1-1s-1 .4-1.1 1v.1c.1.1.1.3.1.3z" fill="#f90"/><path d="m58.9 31-2.2-1.9 1.5.5-1.4-3.2 1.8 2.6-.6-4.3 1.2 4.6.8-5.3v4.6l1.7-2-1.4 3.6 1.7-1-2 1.8z" fill="#539b00"/><path d="m62.4 30.2c.1.1.5.2 1 .2s.8-.1 1-.2c0-.1.1-.2.1-.3v-.1c0-.6-.5-1-1.1-1s-1 .4-1.1 1v.1c.1.1.1.3.1.3z" fill="#f90"/><path d="m62.9 29-2.2-1.9 1.5.5-1.4-3.2 1.8 2.6-.6-4.3 1.2 4.6.8-5.3v4.6l1.7-2-1.4 3.6 1.7-1-2 1.8z" fill="#539b00"/><path d="m66.4 28.2c.1.1.5.2 1 .2s.8-.1 1-.2c0-.1.1-.2.1-.3v-.1c0-.6-.5-1-1.1-1s-1 .4-1.1 1v.1c.1.1.1.3.1.3z" fill="#f90"/><path d="m66.9 27-2.2-1.9 1.5.5-1.4-3.2 1.8 2.6-.6-4.3 1.2 4.6.8-5.3v4.6l1.7-2-1.4 3.6 1.7-1-2 1.8z" fill="#539b00"/><path d="m76.4 45.2c.1.1.5.2 1 .2s.8-.1 1-.2c0-.1.1-.2.1-.3v-.1c0-.6-.5-1-1.1-1s-1 .4-1.1 1v.1c.1.1.1.3.1.3z" fill="#f90"/><path d="m76.9 44-2.2-1.9 1.5.5-1.4-3.2 1.8 2.6-.6-4.3 1.2 4.6.8-5.3v4.6l1.7-2-1.4 3.6 1.7-1-2 1.8z" fill="#539b00"/><path d="m80.4 43.2c.1.1.5.2 1 .2s.8-.1 1-.2c0-.1.1-.2.1-.3v-.1c0-.6-.5-1-1.1-1s-1 .4-1.1 1v.1c.1.1.1.3.1.3z" fill="#f90"/><path d="m80.9 42-2.2-1.9 1.5.5-1.4-3.2 1.8 2.6-.6-4.3 1.2 4.6.8-5.3v4.6l1.7-2-1.4 3.6 1.7-1-2 1.8z" fill="#539b00"/><path d="m84.4 41.2c.1.1.5.2 1 .2s.8-.1 1-.2c0-.1.1-.2.1-.3v-.1c0-.6-.5-1-1.1-1s-1 .4-1.1 1v.1c.1.1.1.3.1.3z" fill="#f90"/><path d="m84.9 40-2.2-1.9 1.5.5-1.4-3.2 1.8 2.6-.6-4.3 1.2 4.6.8-5.3v4.6l1.7-2-1.4 3.6 1.7-1-2 1.8z" fill="#539b00"/><path d="m88.4 39.2c.1.1.5.2 1 .2s.8-.1 1-.2c0-.1.1-.2.1-.3v-.1c0-.6-.5-1-1.1-1s-1 .4-1.1 1v.1c.1.1.1.3.1.3z" fill="#f90"/><path d="m88.9 38-2.2-1.9 1.5.5-1.4-3.2 1.8 2.6-.6-4.3 1.2 4.6.8-5.3v4.6l1.7-2-1.4 3.6 1.7-1-2 1.8z" fill="#539b00"/><path d="m70.4 42.2c.1.1.5.2 1 .2s.8-.1 1-.2c0-.1.1-.2.1-.3v-.1c0-.6-.5-1-1.1-1s-1 .4-1.1 1v.1c.1.1.1.3.1.3z" fill="#f90"/><path d="m70.9 41-2.2-1.9 1.5.5-1.4-3.2 1.8 2.6-.6-4.3 1.2 4.6.8-5.3v4.6l1.7-2-1.4 3.6 1.7-1-2 1.8z" fill="#539b00"/><path d="m74.4 40.2c.1.1.5.2 1 .2s.8-.1 1-.2c0-.1.1-.2.1-.3v-.1c0-.6-.5-1-1.1-1s-1 .4-1.1 1v.1c.1.1.1.3.1.3z" fill="#f90"/><path d="m74.9 39-2.2-1.9 1.5.5-1.4-3.2 1.8 2.6-.6-4.3 1.2 4.6.8-5.3v4.6l1.7-2-1.4 3.6 1.7-1-2 1.8z" fill="#539b00"/><path d="m78.4 38.2c.1.1.5.2 1 .2s.8-.1 1-.2c0-.1.1-.2.1-.3v-.1c0-.6-.5-1-1.1-1s-1 .4-1.1 1v.1c.1.1.1.3.1.3z" fill="#f90"/><path d="m78.9 37-2.2-1.9 1.5.5-1.4-3.2 1.8 2.6-.6-4.3 1.2 4.6.8-5.3v4.6l1.7-2-1.4 3.6 1.7-1-2 1.8z" fill="#539b00"/><path d="m82.4 36.2c.1.1.5.2 1 .2s.8-.1 1-.2c0-.1.1-.2.1-.3v-.1c0-.6-.5-1-1.1-1s-1 .4-1.1 1v.1c.1.1.1.3.1.3z" fill="#f90"/><path d="m82.9 35-2.2-1.9 1.5.5-1.4-3.2 1.8 2.6-.6-4.3 1.2 4.6.8-5.3v4.6l1.7-2-1.4 3.6 1.7-1-2 1.8z" fill="#539b00"/><path d="m92.4 53.2c.1.1.5.2 1 .2s.8-.1 1-.2c0-.1.1-.2.1-.3v-.1c0-.6-.5-1-1.1-1s-1 .4-1.1 1v.1c.1.1.1.3.1.3z" fill="#f90"/><path d="m92.9 52-2.2-1.9 1.5.5-1.4-3.2 1.8 2.6-.6-4.3 1.2 4.6.8-5.3v4.6l1.7-2-1.4 3.6 1.7-1-2 1.8z" fill="#539b00"/><path d="m96.4 51.2c.1.1.5.2 1 .2s.8-.1 1-.2c0-.1.1-.2.1-.3v-.1c0-.6-.5-1-1.1-1s-1 .4-1.1 1v.1c.1.1.1.3.1.3z" fill="#f90"/><path d="m96.9 50-2.2-1.9 1.5.5-1.4-3.2 1.8 2.6-.6-4.3 1.2 4.6.8-5.3v4.6l1.7-2-1.4 3.6 1.7-1-2 1.8z" fill="#539b00"/><path d="m100.4 49.2c.1.1.5.2 1 .2s.8-.1 1-.2c0-.1.1-.2.1-.3v-.1c0-.6-.5-1-1.1-1s-1 .4-1.1 1v.1c.1.1.1.3.1.3z" fill="#f90"/><path d="m100.9 48-2.2-1.9 1.5.5-1.4-3.2 1.8 2.6-.6-4.3 1.2 4.6.8-5.3v4.6l1.7-2-1.4 3.6 1.7-1-2 1.8z" fill="#539b00"/><path d="m104.4 47.2c.1.1.5.2 1 .2s.8-.1 1-.2c0-.1.1-.2.1-.3v-.1c0-.6-.5-1-1.1-1s-1 .4-1.1 1v.1c.1.1.1.3.1.3z" fill="#f90"/><path d="m104.9 46-2.2-1.9 1.5.5-1.4-3.2 1.8 2.6-.6-4.3 1.2 4.6.8-5.3v4.6l1.7-2-1.4 3.6 1.7-1-2 1.8z" fill="#539b00"/><path d="m86.4 50.2c.1.1.5.2 1 .2s.8-.1 1-.2c0-.1.1-.2.1-.3v-.1c0-.6-.5-1-1.1-1s-1 .4-1.1 1v.1c.1.1.1.3.1.3z" fill="#f90"/><path d="m86.9 49-2.2-1.9 1.5.5-1.4-3.2 1.8 2.6-.6-4.3 1.2 4.6.8-5.3v4.6l1.7-2-1.4 3.6 1.7-1-2 1.8z" fill="#539b00"/><path d="m90.4 48.2c.1.1.5.2 1 .2s.8-.1 1-.2c0-.1.1-.2.1-.3v-.1c0-.6-.5-1-1.1-1s-1 .4-1.1 1v.1c.1.1.1.3.1.3z" fill="#f90"/><path d="m90.9 47-2.2-1.9 1.5.5-1.4-3.2 1.8 2.6-.6-4.3 1.2 4.6.8-5.3v4.6l1.7-2-1.4 3.6 1.7-1-2 1.8z" fill="#539b00"/><path d="m94.4 46.2c.1.1.5.2 1 .2s.8-.1 1-.2c0-.1.1-.2.1-.3v-.1c0-.6-.5-1-1.1-1s-1 .4-1.1 1v.1c.1.1.1.3.1.3z" fill="#f90"/><path d="m94.9 45-2.2-1.9 1.5.5-1.4-3.2 1.8 2.6-.6-4.3 1.2 4.6.8-5.3v4.6l1.7-2-1.4 3.6 1.7-1-2 1.8z" fill="#539b00"/><path d="m98.4 44.2c.1.1.5.2 1 .2s.8-.1 1-.2c0-.1.1-.2.1-.3v-.1c0-.6-.5-1-1.1-1s-1 .4-1.1 1v.1c.1.1.1.3.1.3z" fill="#f90"/><path d="m98.9 43-2.2-1.9 1.5.5-1.4-3.2 1.8 2.6-.6-4.3 1.2 4.6.8-5.3v4.6l1.7-2-1.4 3.6 1.7-1-2 1.8z" fill="#539b00"/><path d="m28.4 37.2c.1.1.5.2 1 .2s.8-.1 1-.2c0-.1.1-.2.1-.3v-.1c0-.6-.5-1-1.1-1s-1 .4-1.1 1v.1c.1.1.1.3.1.3z" fill="#f90"/><path d="m28.9 36-2.2-1.9 1.5.5-1.4-3.2 1.8 2.6-.6-4.3 1.2 4.6.8-5.3v4.6l1.7-2-1.4 3.6 1.7-1-2 1.8z" fill="#539b00"/><path d="m32.4 35.2c.1.1.5.2 1 .2s.8-.1 1-.2c0-.1.1-.2.1-.3v-.1c0-.6-.5-1-1.1-1s-1 .4-1.1 1v.1c.1.1.1.3.1.3z" fill="#f90"/><path d="m32.9 34-2.2-1.9 1.5.5-1.4-3.2 1.8 2.6-.6-4.3 1.2 4.6.8-5.3v4.6l1.7-2-1.4 3.6 1.7-1-2 1.8z" fill="#539b00"/><path d="m36.4 33.2c.1.1.5.2 1 .2s.8-.1 1-.2c0-.1.1-.2.1-.3v-.1c0-.6-.5-1-1.1-1s-1 .4-1.1 1v.1c.1.1.1.3.1.3z" fill="#f90"/><path d="m36.9 32-2.2-1.9 1.5.5-1.4-3.2 1.8 2.6-.6-4.3 1.2 4.6.8-5.3v4.6l1.7-2-1.4 3.6 1.7-1-2 1.8z" fill="#539b00"/><path d="m40.4 31.2c.1.1.5.2 1 .2s.8-.1 1-.2c0-.1.1-.2.1-.3v-.1c0-.6-.5-1-1.1-1s-1 .4-1.1 1v.1c.1.1.1.3.1.3z" fill="#f90"/><path d="m40.9 30-2.2-1.9 1.5.5-1.4-3.2 1.8 2.6-.6-4.3 1.2 4.6.8-5.3v4.6l1.7-2-1.4 3.6 1.7-1-2 1.8z" fill="#539b00"/><path d="m22.4 34.2c.1.1.5.2 1 .2s.8-.1 1-.2c0-.1.1-.2.1-.3v-.1c0-.6-.5-1-1.1-1s-1 .4-1.1 1v.1c.1.1.1.3.1.3z" fill="#f90"/><path d="m22.9 33-2.2-1.9 1.5.5-1.4-3.2 1.8 2.6-.6-4.3 1.2 4.6.8-5.3v4.6l1.7-2-1.4 3.6 1.7-1-2 1.8z" fill="#539b00"/><path d="m26.4 32.2c.1.1.5.2 1 .2s.8-.1 1-.2c0-.1.1-.2.1-.3v-.1c0-.6-.5-1-1.1-1s-1 .4-1.1 1v.1c.1.1.1.3.1.3z" fill="#f90"/><path d="m26.9 31-2.2-1.9 1.5.5-1.4-3.2 1.8 2.6-.6-4.3 1.2 4.6.8-5.3v4.6l1.7-2-1.4 3.6 1.7-1-2 1.8z" fill="#539b00"/><path d="m30.4 30.2c.1.1.5.2 1 .2s.8-.1 1-.2c0-.1.1-.2.1-.3v-.1c0-.6-.5-1-1.1-1s-1 .4-1.1 1v.1c.1.1.1.3.1.3z" fill="#f90"/><path d="m30.9 29-2.2-1.9 1.5.5-1.4-3.2 1.8 2.6-.6-4.3 1.2 4.6.8-5.3v4.6l1.7-2-1.4 3.6 1.7-1-2 1.8z" fill="#539b00"/><path d="m34.4 28.2c.1.1.5.2 1 .2s.8-.1 1-.2c0-.1.1-.2.1-.3v-.1c0-.6-.5-1-1.1-1s-1 .4-1.1 1v.1c.1.1.1.3.1.3z" fill="#f90"/><path d="m34.9 27-2.2-1.9 1.5.5-1.4-3.2 1.8 2.6-.6-4.3 1.2 4.6.8-5.3v4.6l1.7-2-1.4 3.6 1.7-1-2 1.8z" fill="#539b00"/><path d="m44.4 45.2c.1.1.5.2 1 .2s.8-.1 1-.2c0-.1.1-.2.1-.3v-.1c0-.6-.5-1-1.1-1s-1 .4-1.1 1v.1c.1.1.1.3.1.3z" fill="#f90"/><path d="m44.9 44-2.2-1.9 1.5.5-1.4-3.2 1.8 2.6-.6-4.3 1.2 4.6.8-5.3v4.6l1.7-2-1.4 3.6 1.7-1-2 1.8z" fill="#539b00"/><path d="m48.4 43.2c.1.1.5.2 1 .2s.8-.1 1-.2c0-.1.1-.2.1-.3v-.1c0-.6-.5-1-1.1-1s-1 .4-1.1 1v.1c.1.1.1.3.1.3z" fill="#f90"/><path d="m48.9 42-2.2-1.9 1.5.5-1.4-3.2 1.8 2.6-.6-4.3 1.2 4.6.8-5.3v4.6l1.7-2-1.4 3.6 1.7-1-2 1.8z" fill="#539b00"/><path d="m52.4 41.2c.1.1.5.2 1 .2s.8-.1 1-.2c0-.1.1-.2.1-.3v-.1c0-.6-.5-1-1.1-1s-1 .4-1.1 1v.1c.1.1.1.3.1.3z" fill="#f90"/><path d="m52.9 40-2.2-1.9 1.5.5-1.4-3.2 1.8 2.6-.6-4.3 1.2 4.6.8-5.3v4.6l1.7-2-1.4 3.6 1.7-1-2 1.8z" fill="#539b00"/><path d="m56.4 39.2c.1.1.5.2 1 .2s.8-.1 1-.2c0-.1.1-.2.1-.3v-.1c0-.6-.5-1-1.1-1s-1 .4-1.1 1v.1c.1.1.1.3.1.3z" fill="#f90"/><path d="m56.9 38-2.2-1.9 1.5.5-1.4-3.2 1.8 2.6-.6-4.3 1.2 4.6.8-5.3v4.6l1.7-2-1.4 3.6 1.7-1-2 1.8z" fill="#539b00"/><path d="m38.4 42.2c.1.1.5.2 1 .2s.8-.1 1-.2c0-.1.1-.2.1-.3v-.1c0-.6-.5-1-1.1-1s-1 .4-1.1 1v.1c.1.1.1.3.1.3z" fill="#f90"/><path d="m38.9 41-2.2-1.9 1.5.5-1.4-3.2 1.8 2.6-.6-4.3 1.2 4.6.8-5.3v4.6l1.7-2-1.4 3.6 1.7-1-2 1.8z" fill="#539b00"/><path d="m42.4 40.2c.1.1.5.2 1 .2s.8-.1 1-.2c0-.1.1-.2.1-.3v-.1c0-.6-.5-1-1.1-1s-1 .4-1.1 1v.1c.1.1.1.3.1.3z" fill="#f90"/><path d="m42.9 39-2.2-1.9 1.5.5-1.4-3.2 1.8 2.6-.6-4.3 1.2 4.6.8-5.3v4.6l1.7-2-1.4 3.6 1.7-1-2 1.8z" fill="#539b00"/><path d="m46.4 38.2c.1.1.5.2 1 .2s.8-.1 1-.2c0-.1.1-.2.1-.3v-.1c0-.6-.5-1-1.1-1s-1 .4-1.1 1v.1c.1.1.1.3.1.3z" fill="#f90"/><path d="m46.9 37-2.2-1.9 1.5.5-1.4-3.2 1.8 2.6-.6-4.3 1.2 4.6.8-5.3v4.6l1.7-2-1.4 3.6 1.7-1-2 1.8z" fill="#539b00"/><path d="m50.4 36.2c.1.1.5.2 1 .2s.8-.1 1-.2c0-.1.1-.2.1-.3v-.1c0-.6-.5-1-1.1-1s-1 .4-1.1 1v.1c.1.1.1.3.1.3z" fill="#f90"/><path d="m50.9 35-2.2-1.9 1.5.5-1.4-3.2 1.8 2.6-.6-4.3 1.2 4.6.8-5.3v4.6l1.7-2-1.4 3.6 1.7-1-2 1.8z" fill="#539b00"/><path d="m60.4 53.2c.1.1.5.2 1 .2s.8-.1 1-.2c0-.1.1-.2.1-.3v-.1c0-.6-.5-1-1.1-1s-1 .4-1.1 1v.1c.1.1.1.3.1.3z" fill="#f90"/><path d="m60.9 52-2.2-1.9 1.5.5-1.4-3.2 1.8 2.6-.6-4.3 1.2 4.6.8-5.3v4.6l1.7-2-1.4 3.6 1.7-1-2 1.8z" fill="#539b00"/><path d="m64.4 51.2c.1.1.5.2 1 .2s.8-.1 1-.2c0-.1.1-.2.1-.3v-.1c0-.6-.5-1-1.1-1s-1 .4-1.1 1v.1c.1.1.1.3.1.3z" fill="#f90"/><path d="m64.9 50-2.2-1.9 1.5.5-1.4-3.2 1.8 2.6-.6-4.3 1.2 4.6.8-5.3v4.6l1.7-2-1.4 3.6 1.7-1-2 1.8z" fill="#539b00"/><path d="m68.4 49.2c.1.1.5.2 1 .2s.8-.1 1-.2c0-.1.1-.2.1-.3v-.1c0-.6-.5-1-1.1-1s-1 .4-1.1 1v.1c.1.1.1.3.1.3z" fill="#f90"/><path d="m68.9 48-2.2-1.9 1.5.5-1.4-3.2 1.8 2.6-.6-4.3 1.2 4.6.8-5.3v4.6l1.7-2-1.4 3.6 1.7-1-2 1.8z" fill="#539b00"/><path d="m72.4 47.2c.1.1.5.2 1 .2s.8-.1 1-.2c0-.1.1-.2.1-.3v-.1c0-.6-.5-1-1.1-1s-1 .4-1.1 1v.1c.1.1.1.3.1.3z" fill="#f90"/><path d="m72.9 46-2.2-1.9 1.5.5-1.4-3.2 1.8 2.6-.6-4.3 1.2 4.6.8-5.3v4.6l1.7-2-1.4 3.6 1.7-1-2 1.8z" fill="#539b00"/><path d="m54.4 50.2c.1.1.5.2 1 .2s.8-.1 1-.2c0-.1.1-.2.1-.3v-.1c0-.6-.5-1-1.1-1s-1 .4-1.1 1v.1c.1.1.1.3.1.3z" fill="#f90"/><path d="m54.9 49-2.2-1.9 1.5.5-1.4-3.2 1.8 2.6-.6-4.3 1.2 4.6.8-5.3v4.6l1.7-2-1.4 3.6 1.7-1-2 1.8z" fill="#539b00"/><path d="m58.4 48.2c.1.1.5.2 1 .2s.8-.1 1-.2c0-.1.1-.2.1-.3v-.1c0-.6-.5-1-1.1-1s-1 .4-1.1 1v.1c.1.1.1.3.1.3z" fill="#f90"/><path d="m58.9 47-2.2-1.9 1.5.5-1.4-3.2 1.8 2.6-.6-4.3 1.2 4.6.8-5.3v4.6l1.7-2-1.4 3.6 1.7-1-2 1.8z" fill="#539b00"/><path d="m62.4 46.2c.1.1.5.2 1 .2s.8-.1 1-.2c0-.1.1-.2.1-.3v-.1c0-.6-.5-1-1.1-1s-1 .4-1.1 1v.1c.1.1.1.3.1.3z" fill="#f90"/><path d="m62.9 45-2.2-1.9 1.5.5-1.4-3.2 1.8 2.6-.6-4.3 1.2 4.6.8-5.3v4.6l1.7-2-1.4 3.6 1.7-1-2 1.8z" fill="#539b00"/><path d="m66.4 44.2c.1.1.5.2 1 .2s.8-.1 1-.2c0-.1.1-.2.1-.3v-.1c0-.6-.5-1-1.1-1s-1 .4-1.1 1v.1c.1.1.1.3.1.3z" fill="#f90"/><path d="m66.9 43-2.2-1.9 1.5.5-1.4-3.2 1.8 2.6-.6-4.3 1.2 4.6.8-5.3v4.6l1.7-2-1.4 3.6 1.7-1-2 1.8z" fill="#539b00"/><path d="m76.4 61.2c.1.1.5.2 1 .2s.8-.1 1-.2c0-.1.1-.2.1-.3v-.1c0-.6-.5-1-1.1-1s-1 .4-1.1 1v.1c.1.1.1.3.1.3z" fill="#f90"/><path d="m76.9 60-2.2-1.9 1.5.5-1.4-3.2 1.8 2.6-.6-4.3 1.2 4.6.8-5.3v4.6l1.7-2-1.4 3.6 1.7-1-2 1.8z" fill="#539b00"/><path d="m80.4 59.2c.1.1.5.2 1 .2s.8-.1 1-.2c0-.1.1-.2.1-.3v-.1c0-.6-.5-1-1.1-1s-1 .4-1.1 1v.1c.1.1.1.3.1.3z" fill="#f90"/><path d="m80.9 58-2.2-1.9 1.5.5-1.4-3.2 1.8 2.6-.6-4.3 1.2 4.6.8-5.3v4.6l1.7-2-1.4 3.6 1.7-1-2 1.8z" fill="#539b00"/><path d="m84.4 57.2c.1.1.5.2 1 .2s.8-.1 1-.2c0-.1.1-.2.1-.3v-.1c0-.6-.5-1-1.1-1s-1 .4-1.1 1v.1c.1.1.1.3.1.3z" fill="#f90"/><path d="m84.9 56-2.2-1.9 1.5.5-1.4-3.2 1.8 2.6-.6-4.3 1.2 4.6.8-5.3v4.6l1.7-2-1.4 3.6 1.7-1-2 1.8z" fill="#539b00"/><path d="m88.4 55.2c.1.1.5.2 1 .2s.8-.1 1-.2c0-.1.1-.2.1-.3v-.1c0-.6-.5-1-1.1-1s-1 .4-1.1 1v.1c.1.1.1.3.1.3z" fill="#f90"/><path d="m88.9 54-2.2-1.9 1.5.5-1.4-3.2 1.8 2.6-.6-4.3 1.2 4.6.8-5.3v4.6l1.7-2-1.4 3.6 1.7-1-2 1.8z" fill="#539b00"/><path d="m70.4 58.2c.1.1.5.2 1 .2s.8-.1 1-.2c0-.1.1-.2.1-.3v-.1c0-.6-.5-1-1.1-1s-1 .4-1.1 1v.1c.1.1.1.3.1.3z" fill="#f90"/><path d="m70.9 57-2.2-1.9 1.5.5-1.4-3.2 1.8 2.6-.6-4.3 1.2 4.6.8-5.3v4.6l1.7-2-1.4 3.6 1.7-1-2 1.8z" fill="#539b00"/><path d="m74.4 56.2c.1.1.5.2 1 .2s.8-.1 1-.2c0-.1.1-.2.1-.3v-.1c0-.6-.5-1-1.1-1s-1 .4-1.1 1v.1c.1.1.1.3.1.3z" fill="#f90"/><path d="m74.9 55-2.2-1.9 1.5.5-1.4-3.2 1.8 2.6-.6-4.3 1.2 4.6.8-5.3v4.6l1.7-2-1.4 3.6 1.7-1-2 1.8z" fill="#539b00"/><path d="m78.4 54.2c.1.1.5.2 1 .2s.8-.1 1-.2c0-.1.1-.2.1-.3v-.1c0-.6-.5-1-1.1-1s-1 .4-1.1 1v.1c.1.1.1.3.1.3z" fill="#f90"/><path d="m78.9 53-2.2-1.9 1.5.5-1.4-3.2 1.8 2.6-.6-4.3 1.2 4.6.8-5.3v4.6l1.7-2-1.4 3.6 1.7-1-2 1.8z" fill="#539b00"/><path d="m82.4 52.2c.1.1.5.2 1 .2s.8-.1 1-.2c0-.1.1-.2.1-.3v-.1c0-.6-.5-1-1.1-1s-1 .4-1.1 1v.1c.1.1.1.3.1.3z" fill="#f90"/><path d="m82.9 51-2.2-1.9 1.5.5-1.4-3.2 1.8 2.6-.6-4.3 1.2 4.6.8-5.3v4.6l1.7-2-1.4 3.6 1.7-1-2 1.8z" fill="#539b00"/><path d="m12.4 45.2c.1.1.5.2 1 .2s.8-.1 1-.2c0-.1.1-.2.1-.3v-.1c0-.6-.5-1-1.1-1s-1 .4-1.1 1v.1c.1.1.1.3.1.3z" fill="#f90"/><path d="m12.9 44-2.2-1.9 1.5.5-1.4-3.2 1.8 2.6-.6-4.3 1.2 4.6.8-5.3v4.6l1.7-2-1.4 3.6 1.7-1-2 1.8z" fill="#539b00"/><path d="m16.4 43.2c.1.1.5.2 1 .2s.8-.1 1-.2c0-.1.1-.2.1-.3v-.1c0-.6-.5-1-1.1-1s-1 .4-1.1 1v.1c.1.1.1.3.1.3z" fill="#f90"/><path d="m16.9 42-2.2-1.9 1.5.5-1.4-3.2 1.8 2.6-.6-4.3 1.2 4.6.8-5.3v4.6l1.7-2-1.4 3.6 1.7-1-2 1.8z" fill="#539b00"/><path d="m20.4 41.2c.1.1.5.2 1 .2s.8-.1 1-.2c0-.1.1-.2.1-.3v-.1c0-.6-.5-1-1.1-1s-1 .4-1.1 1v.1c.1.1.1.3.1.3z" fill="#f90"/><path d="m20.9 40-2.2-1.9 1.5.5-1.4-3.2 1.8 2.6-.6-4.3 1.2 4.6.8-5.3v4.6l1.7-2-1.4 3.6 1.7-1-2 1.8z" fill="#539b00"/><path d="m24.4 39.2c.1.1.5.2 1 .2s.8-.1 1-.2c0-.1.1-.2.1-.3v-.1c0-.6-.5-1-1.1-1s-1 .4-1.1 1v.1c.1.1.1.3.1.3z" fill="#f90"/><path d="m24.9 38-2.2-1.9 1.5.5-1.4-3.2 1.8 2.6-.6-4.3 1.2 4.6.8-5.3v4.6l1.7-2-1.4 3.6 1.7-1-2 1.8z" fill="#539b00"/><path d="m6.4 42.2c.1.1.5.2 1 .2s.8-.1 1-.2c0-.1.1-.2.1-.3v-.1c0-.6-.5-1-1.1-1s-1 .4-1.1 1v.1c.1.1.1.3.1.3z" fill="#f90"/><path d="m6.9 41-2.2-1.9 1.5.5-1.4-3.2 1.8 2.6-.6-4.3 1.2 4.6.8-5.3v4.6l1.7-2-1.4 3.6 1.7-1-2 1.8z" fill="#539b00"/><path d="m10.4 40.2c.1.1.5.2 1 .2s.8-.1 1-.2c0-.1.1-.2.1-.3v-.1c0-.6-.5-1-1.1-1s-1 .4-1.1 1v.1c.1.1.1.3.1.3z" fill="#f90"/><path d="m10.9 39-2.2-1.9 1.5.5-1.4-3.2 1.8 2.6-.6-4.3 1.2 4.6.8-5.3v4.6l1.7-2-1.4 3.6 1.7-1-2 1.8z" fill="#539b00"/><path d="m14.4 38.2c.1.1.5.2 1 .2s.8-.1 1-.2c0-.1.1-.2.1-.3v-.1c0-.6-.5-1-1.1-1s-1 .4-1.1 1v.1c.1.1.1.3.1.3z" fill="#f90"/><path d="m14.9 37-2.2-1.9 1.5.5-1.4-3.2 1.8 2.6-.6-4.3 1.2 4.6.8-5.3v4.6l1.7-2-1.4 3.6 1.7-1-2 1.8z" fill="#539b00"/><path d="m18.4 36.2c.1.1.5.2 1 .2s.8-.1 1-.2c0-.1.1-.2.1-.3v-.1c0-.6-.5-1-1.1-1s-1 .4-1.1 1v.1c.1.1.1.3.1.3z" fill="#f90"/><path d="m18.9 35-2.2-1.9 1.5.5-1.4-3.2 1.8 2.6-.6-4.3 1.2 4.6.8-5.3v4.6l1.7-2-1.4 3.6 1.7-1-2 1.8z" fill="#539b00"/><path d="m28.4 53.2c.1.1.5.2 1 .2s.8-.1 1-.2c0-.1.1-.2.1-.3v-.1c0-.6-.5-1-1.1-1s-1 .4-1.1 1v.1c.1.1.1.3.1.3z" fill="#f90"/><path d="m28.9 52-2.2-1.9 1.5.5-1.4-3.2 1.8 2.6-.6-4.3 1.2 4.6.8-5.3v4.6l1.7-2-1.4 3.6 1.7-1-2 1.8z" fill="#539b00"/><path d="m32.4 51.2c.1.1.5.2 1 .2s.8-.1 1-.2c0-.1.1-.2.1-.3v-.1c0-.6-.5-1-1.1-1s-1 .4-1.1 1v.1c.1.1.1.3.1.3z" fill="#f90"/><path d="m32.9 50-2.2-1.9 1.5.5-1.4-3.2 1.8 2.6-.6-4.3 1.2 4.6.8-5.3v4.6l1.7-2-1.4 3.6 1.7-1-2 1.8z" fill="#539b00"/><path d="m36.4 49.2c.1.1.5.2 1 .2s.8-.1 1-.2c0-.1.1-.2.1-.3v-.1c0-.6-.5-1-1.1-1s-1 .4-1.1 1v.1c.1.1.1.3.1.3z" fill="#f90"/><path d="m36.9 48-2.2-1.9 1.5.5-1.4-3.2 1.8 2.6-.6-4.3 1.2 4.6.8-5.3v4.6l1.7-2-1.4 3.6 1.7-1-2 1.8z" fill="#539b00"/><path d="m40.4 47.2c.1.1.5.2 1 .2s.8-.1 1-.2c0-.1.1-.2.1-.3v-.1c0-.6-.5-1-1.1-1s-1 .4-1.1 1v.1c.1.1.1.3.1.3z" fill="#f90"/><path d="m40.9 46-2.2-1.9 1.5.5-1.4-3.2 1.8 2.6-.6-4.3 1.2 4.6.8-5.3v4.6l1.7-2-1.4 3.6 1.7-1-2 1.8z" fill="#539b00"/><path d="m22.4 50.2c.1.1.5.2 1 .2s.8-.1 1-.2c0-.1.1-.2.1-.3v-.1c0-.6-.5-1-1.1-1s-1 .4-1.1 1v.1c.1.1.1.3.1.3z" fill="#f90"/><path d="m22.9 49-2.2-1.9 1.5.5-1.4-3.2 1.8 2.6-.6-4.3 1.2 4.6.8-5.3v4.6l1.7-2-1.4 3.6 1.7-1-2 1.8z" fill="#539b00"/><path d="m26.4 48.2c.1.1.5.2 1 .2s.8-.1 1-.2c0-.1.1-.2.1-.3v-.1c0-.6-.5-1-1.1-1s-1 .4-1.1 1v.1c.1.1.1.3.1.3z" fill="#f90"/><path d="m26.9 47-2.2-1.9 1.5.5-1.4-3.2 1.8 2.6-.6-4.3 1.2 4.6.8-5.3v4.6l1.7-2-1.4 3.6 1.7-1-2 1.8z" fill="#539b00"/><path d="m30.4 46.2c.1.1.5.2 1 .2s.8-.1 1-.2c0-.1.1-.2.1-.3v-.1c0-.6-.5-1-1.1-1s-1 .4-1.1 1v.1c.1.1.1.3.1.3z" fill="#f90"/><path d="m30.9 45-2.2-1.9 1.5.5-1.4-3.2 1.8 2.6-.6-4.3 1.2 4.6.8-5.3v4.6l1.7-2-1.4 3.6 1.7-1-2 1.8z" fill="#539b00"/><path d="m34.4 44.2c.1.1.5.2 1 .2s.8-.1 1-.2c0-.1.1-.2.1-.3v-.1c0-.6-.5-1-1.1-1s-1 .4-1.1 1v.1c.1.1.1.3.1.3z" fill="#f90"/><path d="m34.9 43-2.2-1.9 1.5.5-1.4-3.2 1.8 2.6-.6-4.3 1.2 4.6.8-5.3v4.6l1.7-2-1.4 3.6 1.7-1-2 1.8z" fill="#539b00"/><path d="m44.4 61.2c.1.1.5.2 1 .2s.8-.1 1-.2c0-.1.1-.2.1-.3v-.1c0-.6-.5-1-1.1-1s-1 .4-1.1 1v.1c.1.1.1.3.1.3z" fill="#f90"/><path d="m44.9 60-2.2-1.9 1.5.5-1.4-3.2 1.8 2.6-.6-4.3 1.2 4.6.8-5.3v4.6l1.7-2-1.4 3.6 1.7-1-2 1.8z" fill="#539b00"/><path d="m48.4 59.2c.1.1.5.2 1 .2s.8-.1 1-.2c0-.1.1-.2.1-.3v-.1c0-.6-.5-1-1.1-1s-1 .4-1.1 1v.1c.1.1.1.3.1.3z" fill="#f90"/><path d="m48.9 58-2.2-1.9 1.5.5-1.4-3.2 1.8 2.6-.6-4.3 1.2 4.6.8-5.3v4.6l1.7-2-1.4 3.6 1.7-1-2 1.8z" fill="#539b00"/><path d="m52.4 57.2c.1.1.5.2 1 .2s.8-.1 1-.2c0-.1.1-.2.1-.3v-.1c0-.6-.5-1-1.1-1s-1 .4-1.1 1v.1c.1.1.1.3.1.3z" fill="#f90"/><path d="m52.9 56-2.2-1.9 1.5.5-1.4-3.2 1.8 2.6-.6-4.3 1.2 4.6.8-5.3v4.6l1.7-2-1.4 3.6 1.7-1-2 1.8z" fill="#539b00"/><path d="m56.4 55.2c.1.1.5.2 1 .2s.8-.1 1-.2c0-.1.1-.2.1-.3v-.1c0-.6-.5-1-1.1-1s-1 .4-1.1 1v.1c.1.1.1.3.1.3z" fill="#f90"/><path d="m56.9 54-2.2-1.9 1.5.5-1.4-3.2 1.8 2.6-.6-4.3 1.2 4.6.8-5.3v4.6l1.7-2-1.4 3.6 1.7-1-2 1.8z" fill="#539b00"/><path d="m38.4 58.2c.1.1.5.2 1 .2s.8-.1 1-.2c0-.1.1-.2.1-.3v-.1c0-.6-.5-1-1.1-1s-1 .4-1.1 1v.1c.1.1.1.3.1.3z" fill="#f90"/><path d="m38.9 57-2.2-1.9 1.5.5-1.4-3.2 1.8 2.6-.6-4.3 1.2 4.6.8-5.3v4.6l1.7-2-1.4 3.6 1.7-1-2 1.8z" fill="#539b00"/><path d="m42.4 56.2c.1.1.5.2 1 .2s.8-.1 1-.2c0-.1.1-.2.1-.3v-.1c0-.6-.5-1-1.1-1s-1 .4-1.1 1v.1c.1.1.1.3.1.3z" fill="#f90"/><path d="m42.9 55-2.2-1.9 1.5.5-1.4-3.2 1.8 2.6-.6-4.3 1.2 4.6.8-5.3v4.6l1.7-2-1.4 3.6 1.7-1-2 1.8z" fill="#539b00"/><path d="m46.4 54.2c.1.1.5.2 1 .2s.8-.1 1-.2c0-.1.1-.2.1-.3v-.1c0-.6-.5-1-1.1-1s-1 .4-1.1 1v.1c.1.1.1.3.1.3z" fill="#f90"/><path d="m46.9 53-2.2-1.9 1.5.5-1.4-3.2 1.8 2.6-.6-4.3 1.2 4.6.8-5.3v4.6l1.7-2-1.4 3.6 1.7-1-2 1.8z" fill="#539b00"/><path d="m50.4 52.2c.1.1.5.2 1 .2s.8-.1 1-.2c0-.1.1-.2.1-.3v-.1c0-.6-.5-1-1.1-1s-1 .4-1.1 1v.1c.1.1.1.3.1.3z" fill="#f90"/><path d="m50.9 51-2.2-1.9 1.5.5-1.4-3.2 1.8 2.6-.6-4.3 1.2 4.6.8-5.3v4.6l1.7-2-1.4 3.6 1.7-1-2 1.8z" fill="#539b00"/><path d="m60.4 69.2c.1.1.5.2 1 .2s.8-.1 1-.2c0-.1.1-.2.1-.3v-.1c0-.6-.5-1-1.1-1s-1 .4-1.1 1v.1c.1.1.1.3.1.3z" fill="#f90"/><path d="m60.9 68-2.2-1.9 1.5.5-1.4-3.2 1.8 2.6-.6-4.3 1.2 4.6.8-5.3v4.6l1.7-2-1.4 3.6 1.7-1-2 1.8z" fill="#539b00"/><path d="m64.4 67.2c.1.1.5.2 1 .2s.8-.1 1-.2c0-.1.1-.2.1-.3v-.1c0-.6-.5-1-1.1-1s-1 .4-1.1 1v.1c.1.1.1.3.1.3z" fill="#f90"/><path d="m64.9 66-2.2-1.9 1.5.5-1.4-3.2 1.8 2.6-.6-4.3 1.2 4.6.8-5.3v4.6l1.7-2-1.4 3.6 1.7-1-2 1.8z" fill="#539b00"/><path d="m68.4 65.2c.1.1.5.2 1 .2s.8-.1 1-.2c0-.1.1-.2.1-.3v-.1c0-.6-.5-1-1.1-1s-1 .4-1.1 1v.1c.1.1.1.3.1.3z" fill="#f90"/><path d="m68.9 64-2.2-1.9 1.5.5-1.4-3.2 1.8 2.6-.6-4.3 1.2 4.6.8-5.3v4.6l1.7-2-1.4 3.6 1.7-1-2 1.8z" fill="#539b00"/><path d="m72.4 63.2c.1.1.5.2 1 .2s.8-.1 1-.2c0-.1.1-.2.1-.3v-.1c0-.6-.5-1-1.1-1s-1 .4-1.1 1v.1c.1.1.1.3.1.3z" fill="#f90"/><path d="m72.9 62-2.2-1.9 1.5.5-1.4-3.2 1.8 2.6-.6-4.3 1.2 4.6.8-5.3v4.6l1.7-2-1.4 3.6 1.7-1-2 1.8z" fill="#539b00"/><path d="m54.4 66.2c.1.1.5.2 1 .2s.8-.1 1-.2c0-.1.1-.2.1-.3v-.1c0-.6-.5-1-1.1-1s-1 .4-1.1 1v.1c.1.1.1.3.1.3z" fill="#f90"/><path d="m54.9 65-2.2-1.9 1.5.5-1.4-3.2 1.8 2.6-.6-4.3 1.2 4.6.8-5.3v4.6l1.7-2-1.4 3.6 1.7-1-2 1.8z" fill="#539b00"/><path d="m58.4 64.2c.1.1.5.2 1 .2s.8-.1 1-.2c0-.1.1-.2.1-.3v-.1c0-.6-.5-1-1.1-1s-1 .4-1.1 1v.1c.1.1.1.3.1.3z" fill="#f90"/><path d="m58.9 63-2.2-1.9 1.5.5-1.4-3.2 1.8 2.6-.6-4.3 1.2 4.6.8-5.3v4.6l1.7-2-1.4 3.6 1.7-1-2 1.8z" fill="#539b00"/><path d="m62.4 62.2c.1.1.5.2 1 .2s.8-.1 1-.2c0-.1.1-.2.1-.3v-.1c0-.6-.5-1-1.1-1s-1 .4-1.1 1v.1c.1.1.1.3.1.3z" fill="#f90"/><path d="m62.9 61-2.2-1.9 1.5.5-1.4-3.2 1.8 2.6-.6-4.3 1.2 4.6.8-5.3v4.6l1.7-2-1.4 3.6 1.7-1-2 1.8z" fill="#539b00"/><path d="m66.4 60.2c.1.1.5.2 1 .2s.8-.1 1-.2c0-.1.1-.2.1-.3v-.1c0-.6-.5-1-1.1-1s-1 .4-1.1 1v.1c.1.1.1.3.1.3z" fill="#f90"/><path d="m66.9 59-2.2-1.9 1.5.5-1.4-3.2 1.8 2.6-.6-4.3 1.2 4.6.8-5.3v4.6l1.7-2-1.4 3.6 1.7-1-2 1.8z" fill="#539b00"/></svg>