<svg viewBox="0 0 32 32" xmlns="http://www.w3.org/2000/svg"><path d="m22.7 19.4 5.1 2.6c1.7.9 1.7 3.3 0 4.1l-5.1 2.6c-4.2 2.1-9.2 2.1-13.5 0l-5.1-2.6c-1.7-.9-1.7-3.3 0-4.1l5.1-2.6c4.3-2.2 9.3-2.2 13.5 0z" opacity=".3"/><path d="m18 28.3 11-17.1-14.7-7.3c-1.5-1.2-3.7-1.2-6.3 0-4.4 2.2-8 7.6-8 12 0 2 .8 3.5 2 4.3.2.1.4.2.6.3z" fill="#fc0"/><g fill="#f90"><path d="m16.2 4.9s-.3-.2-.8-.4c-.6-.2-1.4-.3-2.4-.2s-2.1.5-3.1 1.1c-.6.3-1.1.7-1.6 1-.5.4-1 .8-1.5 1.3-.4.5-.9 1-1.3 1.5s-.8 1-1.1 1.5-.7 1-.9 1.5c-.3.5-.5 1-.7 1.5s-.3.9-.5 1.3c-.1.4-.2.7-.3 1-.1.6-.2.9-.2.9s0-.1 0-.2c0-.2 0-.4 0-.7s0-.7.1-1.1c0-.4.1-.9.3-1.4.1-.5.3-1 .6-1.6.2-.6.5-1.1.8-1.7.4-.5.7-1.1 1.2-1.6.4-.6.9-1.1 1.4-1.6s1-.9 1.6-1.3 1.2-.8 1.7-1c1.2-.6 2.4-.9 3.5-.9s1.9.3 2.5.6c.3.1.5.3.6.4 0 0 .1.1.1.1z"/><path d="m23.2 8.4s-.3-.2-.8-.4c-.6-.2-1.4-.3-2.4-.2s-2.1.5-3.1 1.1c-.6.3-1.1.7-1.6 1-.5.4-1 .8-1.5 1.3s-.9.9-1.3 1.4-.8 1-1.1 1.5-.7 1-.9 1.5c-.3.5-.5 1-.7 1.5s-.3.9-.5 1.3c-.1.4-.2.7-.3 1-.1.6-.2.9-.2.9s0-.1 0-.2c0-.2 0-.4 0-.7s0-.7.1-1.1c.1-.3.2-.8.3-1.3s.3-1 .6-1.6c.2-.6.5-1.1.8-1.7s.7-1.1 1.1-1.7c.4-.5.9-1.1 1.4-1.6s1-.9 1.6-1.3 1.2-.8 1.7-1c1.2-.6 2.4-.9 3.5-.9s1.9.3 2.5.6c.3.1.5.3.6.4s.2.2.2.2z"/><path d="m9 11s-.1.2-.3.5-.4.8-.7 1.4c-.5 1.1-1.2 2.7-1.5 4.3-.1.4-.1.8-.2 1.2v.6.6c0 .7.2 1.4.4 2s.5 1 .8 1.3c.2.3.4.4.4.4s-.2-.1-.5-.3-.8-.6-1.1-1.1c-.4-.6-.7-1.3-.8-2.2 0-.2 0-.4-.1-.6 0-.2 0-.4 0-.7 0-.4.1-.9.2-1.3.2-.9.5-1.7.8-2.5.4-.7.8-1.4 1.2-1.9s.8-.9 1-1.2c.2-.4.4-.5.4-.5z"/><path d="m20.9 10.5s-.3.2-.7.5c-.2.2-.5.4-.8.6-.3.3-.6.5-.9.9-.3.3-.7.7-1 1.1s-.7.8-1 1.3c-.4.5-.7 1-1 1.5s-.6 1-.9 1.6c-.3.5-.5 1.1-.7 1.7s-.4 1.1-.4 1.7c-.1.6-.2 1.1-.2 1.6s0 1 .1 1.4c.2.9.6 1.6.9 2s.6.6.6.6-.1 0-.2-.1-.3-.2-.5-.4c-.4-.4-1-1-1.3-1.9-.2-.5-.3-1-.3-1.6 0-.5 0-1.2 0-1.8.1-.6.2-1.2.4-1.8s.4-1.2.7-1.8.6-1.1.9-1.7c.3-.5.7-1 1.1-1.5s.8-.9 1.2-1.3.8-.7 1.2-1c.8-.6 1.5-.9 2-1.2.6-.3.8-.4.8-.4z"/></g><path d="m32 15.9c0 4.4-3.6 9.8-8 12s-8 .4-8-4 3.6-9.8 8-12 8-.4 8 4z" fill="#fc0"/><path d="m31.8 15v.6c0 .4-.1.9-.2 1.6-.3 1.4-1.1 3.3-2.6 5.2-.8.9-1.7 1.9-2.9 2.7-.6.4-1.2.8-2 1-.7.2-1.5.4-2.4.2-.8-.2-1.6-.7-2.1-1.4-.5-.8-.6-1.6-.6-2.5.1-1.7.9-3.3 1.9-4.6.5-.6 1.2-1.2 1.9-1.7s1.5-.9 2.4-.9c.5 0 .9 0 1.4.3.4.2.8.6 1 1s.3.8.3 1.3c0 .2 0 .4-.1.6 0 .2-.1.4-.2.6-.5 1.5-1.7 2.7-3 3.4-.4.1-.7.2-1.1.2s-.8-.2-1.1-.6c-.5-.7-.3-1.5-.1-2.1s.6-1.1 1.1-1.5c.4-.4 1-.7 1.5-.6.3 0 .6.2.7.4s.1.5.1.7c-.1.5-.3.8-.5 1.1-.5.5-1.1.8-1.5.6-.3-.3-.2-.5-.2-.5s-.1.3.2.5.9-.1 1.3-.6c.2-.3.4-.6.4-1s-.2-.8-.6-.8-.9.3-1.2.6c-.4.4-.7.8-.9 1.3s-.2 1.1.1 1.5.9.4 1.5.1c1.1-.6 2.1-1.7 2.5-3 .1-.2.1-.3.1-.5 0-.1 0-.3 0-.5 0-.3-.1-.7-.2-.9-.3-.6-.9-.9-1.5-.8-.7.1-1.4.4-2 .8s-1.2 1-1.7 1.6c-1 1.2-1.7 2.6-1.8 4.1 0 .7.1 1.5.4 2 .3.6.9 1 1.6 1.1 1.3.2 2.7-.3 3.8-1s2.1-1.6 2.9-2.4c1.6-1.8 2.5-3.6 2.9-4.9.2-.7.3-1.2.3-1.6.2-.5.2-.7.2-.7z" fill="#f90"/><path d="m32 15.9c0 4.4-3.6 9.8-8 12s-8 .4-8-4 3.6-9.8 8-12 8-.4 8 4z" opacity=".29"/><path d="m16 23.9c0-4.4 3.6-9.8 8-12 1.9-.9 3.6-1.1 4.9-.8l-14.6-7.2c-1.5-1.2-3.7-1.2-6.3 0-4.4 2.2-8 7.6-8 12 0 2 .8 3.5 2 4.3.2.1.4.2.6.3l15.4 7.8c-1.2-.8-2-2.3-2-4.4z" opacity=".11"/><path d="m7 4.5c-1.1.7-2.1 1.5-3 2.5l16 8c.9-1 1.9-1.8 3-2.5z" fill="#fff" opacity=".3"/></svg>