<svg viewBox="0 0 240 320" xmlns="http://www.w3.org/2000/svg"><path d="m104.7 247.5c-21.7 14-71.8 34.2-38 54.9 31.5 19.3 75.5-12 98-25.9 31.6-19.5 57-39.9 37-52.4-20.5-12.9-84 15.1-97 23.4z" opacity=".2"/><path d="m151.5 183s1.5 43.8 1.3 46.4c-.2 3.5-1.5 8.8-.7 10.6s11.3 3.5 14.6-1.3-4-5.6-4.6-8-1.8-20.7-1.3-26.5 3-18.4 2.7-23.2-.7-8-.7-8z" fill="#762c07"/><path d="m151.5 183s1.5 43.8 1.3 46.4c-.2 3.5-1.5 8.8-.7 10.6s11.3 3.5 14.6-1.3-4-5.6-4.6-8-1.8-20.7-1.3-26.5 3-18.4 2.7-23.2-.7-8-.7-8z" opacity=".15"/><path d="m199.9 35.1c2.6-3 12.3-5.6 15.3-4.6s3 1 3 1 7.5-6.6 8.3-6.3-.3 5.5-1.3 8-2.7 3.3-2.7 3.3 4.1 3.6 5.3 6c1.2 2.3-.8 4.8 0 6s3.2 7.5 4.6 9.3 4.5 4.1 4 8c-.5 3.8.2 8.8-4.6 10.6s-8.8.2-10.6-2-6.8-4.3-8.6-4.6-6-.7-6-.7l-10.6 46.4s6 5.3 6 21.2-2.7 18.2-4 26.5-6.5 24.2-7.3 29.8-1.3 9.8-2.7 17.9c-1.3 8.1-2 31.2-2 31.2s6.6 4.3 6.6 7.3-9.5 6.1-12.6 5.3c-3.2-.8-6.3-4.5-5.3-8.6s3-28.5 2.8-35-.8-25.5-1.5-30-3.3-9.9-3.3-9.9-13.6 12.1-27.2 15.9-25.2 1.3-25.2 1.3 1.7 9.8-6 24.5c-7.6 14.8-18.2 21.9-17.2 33.8s9.9 26 10.6 29.2-2.3 9-.7 12.6c1.7 3.6 6.8 7.8 5.3 11.3s-15.1 4.5-17.9 1.3-1.3-8 0-10.6c1.3-2.7 2-5.6 1.3-8.6s-11.3-27.9-13.3-31.8c-2-4-3-6.8-1.3-9.9 1.7-3.2 6.3-14.3 5.3-19.2s-9.9-15.9-9.9-15.9-10.9 17.5-10.5 24.3 5.5 20.2 8.6 25.9c3.2 5.6 3.2 4.3 2.7 10.6s-1.8 5.5 0 9.3 4.6 6.1 2.7 8.6c-2 2.5-14.6 4.5-16.6-2s-.2-7.5 1.3-9.3 1.5-4.1.7-6.6-8.1-25-9.9-28.5-2.5-6-1.3-10.6 2.5-18.7.7-24.5-12.8-34.2 0-55.7 33.7-23.9 46.4-23.9 26.3-.2 47.7-22.5c20.7-21.9 39.3-51.5 50.9-65.1z" fill="#762c07"/><path d="m211.2 32.4s-1.7-13.1-3.3-13.3c-1.7-.2-4.5 6-6 10.6s0 5.3 0 5.3z" fill="#762c07"/><g fill="#2d3134"><path d="m156.1 94.8c1.9 2.1 9.6-3.1 13.9-9.3 5.3-7.5 19.2-30.3 27.9-38.5s14.1-12.1 16.6-12.6 4.6-3.3 4.6-3.3-3.8-3.8-11.3-1.3-15.1 9.8-22.5 19.9c-7.5 10.1-15.8 23.5-21.2 30.5-5.5 6.9-9.9 12.4-8 14.6z"/><path d="m64.6 146.5c-.7-4.7-21.1-6.3-35.1 13.9s-10.8 63.5-25.2 77.6c5.8 1.7 20.6.7 32.5-24.5s-.5-54.9 17.2-60.3c9.6-3 11.1-3.6 10.6-6.7z"/><path d="m187.8 243.3c.2 2.5-8.6 7.3-13 2.3 0 .1-.1.3-.1.4-1 4.1 2.2 7.8 5.3 8.6 3.2.8 12.6-2.3 12.6-5.3 0-2-2.9-4.5-4.8-6z"/><path d="m225.8 47.7 2-2.7s.7 2.3 0 3.3-2-.6-2-.6z"/></g><path d="m77.2 265.9c.5-6.3.5-5-2.7-10.6s-8.3-19.1-8.6-25.9c-.3-6 8.1-20.3 10.2-23.8l-12.8-27.9s2.7 19.6 2 21.9-4 21.4-6 29.2 6.6 23 9.3 30.5c2.4 6.8 1.8 17-.1 26.6 4.4.9 10.1-.4 11.4-2.1 2-2.5-.8-4.8-2.7-8.6-1.8-3.9-.5-3 0-9.3z" opacity=".15"/><path d="m112.4 299.7c1-2.4-1.1-5.1-3-7.7-2 3.6-13.7 5.5-16.1 1.6-.6 2.5-.7 5.3 1.2 7.4 2.8 3.2 16.4 2.2 17.9-1.3z" fill="#2d3134"/><path d="m62.5 277.7c.1 1.1.3 2.4.8 4.1 2 6.5 14.6 4.5 16.6 2 1.6-2 .2-3.8-1.4-6.4-2.3 5-14.1 3.4-16 .3z" fill="#2d3134"/><path d="m233.7 59.1c-.3 3.3-1.7 6.6-4 9.1-2.3 2.6-5.8 4.6-8.6 5.9 1.8 2.2 5.8 3.8 10.6 2s4.1-6.8 4.6-10.6c.5-2.8-1.1-4.8-2.6-6.4z" opacity=".15"/><path d="m164.2 232.6c-2 2-6.2 3.9-12.1 2.9-.2 1.9-.3 3.6.1 4.5.8 1.8 11.3 3.5 14.6-1.3 2.2-3.3-.5-4.8-2.6-6.1z" fill="#2d3134"/></svg>