<svg viewBox="0 0 720 480" xmlns="http://www.w3.org/2000/svg"><path d="m606 286.1-81.2 40.7-287.5-143.8-42.2 21.1-66.2-33.1-91.9 45.9 66.2 33.1-57.2 28.6 287.5 143.8-25.2 12.6 81.1 40.6 297.7-148.9z" fill="#262626" opacity=".3"/><path d="m485 301v-26l-148 74v26z" fill="#2d3134"/><path d="m485 301v-26l-148 74v26z" opacity=".29"/><path d="m476.9 202.4c-15-7.5-28.5-8-38.2-2.9l-27.6 13.9c-9.3 4.9-15.1 15.1-15.1 29.5 0 29.4 23.8 65.1 53.2 79.8 16.1 8.1 30.6 8.1 40.3 1.6l22.4-11.2c11.1-4.2 18.1-15 18.1-30.9.1-29.4-23.7-65.1-53.1-79.8z" fill="#2d3134"/><path d="m502.4 296.1c0 29.4-23.8 41.3-53.2 26.6s-53.2-50.4-53.2-79.8 23.8-41.3 53.2-26.6 53.2 50.4 53.2 79.8z" opacity=".11"/><path d="m451.6 215c-16-8-30.3-8.1-40.1-1.8 9.2-3 21.1-1.7 34 4.7 29.4 14.7 53.2 50.4 53.2 79.8 0 13.4-5 23.1-13.1 28.4 11.8-3.9 19.2-14.9 19.2-31.3 0-29.4-23.8-65.1-53.2-79.8z" fill="#fff" opacity=".1"/><path d="m475.3 282.5c0 14.4-11.7 20.2-26.1 13s-26.1-24.7-26.1-39.1 11.7-20.2 26.1-13 26.1 24.7 26.1 39.1z" fill="#cc291f"/><path d="m473.1 281.5c0 13.2-10.7 18.6-23.9 12s-23.9-22.7-23.9-35.9 10.7-18.6 23.9-12 23.9 22.7 23.9 35.9z" fill="#cc291f"/><path d="m473.1 281.5c0 13.2-10.7 18.6-23.9 12s-23.9-22.7-23.9-35.9 10.7-18.6 23.9-12 23.9 22.7 23.9 35.9z" fill="#cc291f"/><path d="m473.1 281.5c0 13.2-10.7 18.6-23.9 12s-23.9-22.7-23.9-35.9 10.7-18.6 23.9-12 23.9 22.7 23.9 35.9z" opacity=".29"/><path d="m449.2 245.6c-13.2-6.6-23.9-1.2-23.9 12 0 7.2 3.1 15.1 8.1 22l33.8-16.9c-4.4-7.2-10.8-13.6-18-17.1z" opacity=".15"/><path d="m453.8 248.3-6.3 3.3c-2.9 1.3-5.3 3.5-5.3 7.8 0 7.2 5.8 16 13 19.6 3.3 1.7 6.4 1.9 8.7 1l8.5-4.1c-1.9-10.2-9.3-21.1-18.6-27.6z" fill="#cc291f"/><path d="m453.8 248.3-6.3 3.3c-2.9 1.3-5.3 3.5-5.3 7.8 0 7.2 5.8 16 13 19.6 3.3 1.7 6.4 1.9 8.7 1l8.5-4.1c-1.9-10.2-9.3-21.1-18.6-27.6z" opacity=".29"/><path d="m487.9 252.3c9 14 14.5 29.6 14.5 43.8 0 13.3-4.9 22.9-12.9 28.2l22.4-11.2c11.1-4.2 18.1-15 18.1-30.9 0-14.1-5.5-29.7-14.5-43.7z" opacity=".29"/><path d="m468.4 272.5c0 7.2-5.8 10.1-13 6.5s-13-12.4-13-19.6 5.8-10.1 13-6.5c7.1 3.7 13 12.4 13 19.6z" fill="#cc291f"/><g opacity=".5"><path d="m457.4 258.6c0 1.2-1 1.7-2.1 1.1-1.2-.6-2.1-2-2.1-3.2s1-1.7 2.1-1.1c1.2.5 2.1 2 2.1 3.2z"/><path d="m457.4 275.6c0 1.2-1 1.7-2.1 1.1-1.2-.6-2.1-2-2.1-3.2s1-1.7 2.1-1.1c1.2.6 2.1 2 2.1 3.2z"/><path d="m450.8 256.2c.8 1.2.8 2.6 0 3s-2.2-.3-3-1.5-.8-2.6 0-3 2.2.3 3 1.5z"/><path d="m462.8 274.3c.8 1.2.8 2.6 0 3s-2.2-.3-3-1.5-.8-2.6 0-3c.9-.4 2.2.2 3 1.5z"/><path d="m446.8 259.6c1.2.6 2.1 2 2.1 3.2s-1 1.7-2.1 1.1c-1.2-.6-2.1-2-2.1-3.2s.9-1.7 2.1-1.1z"/><path d="m463.8 268.1c1.2.6 2.1 2 2.1 3.2s-1 1.7-2.1 1.1c-1.2-.6-2.1-2-2.1-3.2s1-1.7 2.1-1.1z"/><path d="m447.8 266.8c.8-.4 2.2.3 3 1.5s.8 2.6 0 3-2.2-.3-3-1.5c-.8-1.3-.8-2.6 0-3z"/><path d="m459.8 260.7c.8-.4 2.2.3 3 1.5s.8 2.6 0 3-2.2-.3-3-1.5-.8-2.6 0-3z"/></g><path d="m449.2 216.3c-29.4-14.7-53.2-2.8-53.2 26.6s23.8 65.1 53.2 79.8 53.2 2.8 53.2-26.6-23.8-65.1-53.2-79.8zm0 100c-25.9-12.9-46.8-44.4-46.8-70.2 0-25.9 21-36.3 46.8-23.4 25.9 12.9 46.8 44.4 46.8 70.2s-20.9 36.4-46.8 23.4z" fill="#fff" opacity=".1"/><g opacity=".5"><path d="m445.3 218.6 8.5 4.3-4.2-6.4c-.1-.1-.2-.1-.4-.2-2.6-1.3-5.1-2.4-7.6-3.3z"/><path d="m453.8 320.8-8.5-4.3 3.2 5.8c.2.1.5.3.7.4 2.5 1.3 5 2.3 7.4 3.2z"/><path d="m421.3 215.1 7.4-.6-5.8-4.5c-.1 0-.2 0-.3 0-2.2.2-4.3.6-6.3 1.1z"/><path d="m477.7 323.8-7.4.6 4.9 4.5h.6c2.2-.2 4.2-.5 6.2-1.1z"/><path d="m404.8 226.1 4.3-5.2-5.8-1.3c-.1.1-.1.1-.2.2-1.3 1.6-2.4 3.3-3.3 5.2z"/><path d="m493.8 312.2-4.3 5.2 5.3 2c.1-.1.3-.3.4-.4 1.3-1.5 2.3-3.2 3.3-5.1z"/><path d="m400.3 248.8v-8.5l-4.2 2.1v.4c0 2.6.2 5.2.6 7.9z"/><path d="m498.2 289.3v8.5l4.2-1.1c0-.2 0-.5 0-.7 0-2.5-.2-5.1-.5-7.7z"/><path d="m408.8 277-4.3-9.5-1.6 5c.1.1.1.3.2.4 1.3 2.9 2.7 5.7 4.3 8.5z"/><path d="m489.3 261 4.3 9.5 2.1-3.8c-.1-.3-.2-.5-.3-.8-1.3-2.8-2.7-5.6-4.2-8.2z"/><path d="m428.1 303.2-7.4-7.9 1.6 6.6.3.3c2.2 2.4 4.5 4.7 6.9 6.8z"/><path d="m469.7 235 7.4 7.9-.6-5.6c-.2-.2-.4-.5-.6-.7-2.2-2.3-4.4-4.5-6.7-6.6z"/></g><g opacity=".5"><path d="m440.8 198.5c-.7.3-1.4.6-2.1 1l-6.9 3.5-.8 1.3-14.7 6.9c2-.6 4.1-1 6.3-1.1h.3l14.8-6.3z"/><path d="m506.8 226.6c-1.6-1.9-3.3-3.7-5-5.5l-8.4 9.9-24.3-.9c2.3 2.1 4.5 4.2 6.7 6.6.2.2.4.5.6.7l21.3.5z"/><path d="m449.2 216.3c.1.1.2.1.4.2l23.6-2.3 5.7-10.7c-.7-.4-1.3-.7-2-1.1-1.5-.8-3-1.4-4.5-2l-5.5 9.4-25.3 3.2c2.5.9 5 2 7.6 3.3z"/><path d="m516.8 300.5 11.5-5.5c.9-2.9 1.5-6 1.7-9.4l-12.3 6.4-15.7-3.7c.3 2.6.5 5.2.5 7.7v.7z"/><path d="m498.5 314c-.9 1.8-2 3.5-3.3 5.1-.1.1-.3.3-.4.4l3.5.5 9.1-4.6z"/><path d="m495.7 266.6 20.6 4.3 10.5-9.2c-1-3.2-2.2-6.4-3.6-9.5l-10.5 8.8-21.4-3.4c1.5 2.7 2.9 5.4 4.2 8.2-.1.3 0 .6.2.8z"/></g><path d="m515 294.5c-.2 0-.3 0-.5-.1-.4-.1-.7-.4-.9-.8l-16-34 2.7-1.3 15.3 32.6 15.4-7.7-19.4-45.7 2.8-1.2 20 47c.3.7 0 1.6-.7 1.9l-18 9c-.2.2-.5.3-.7.3z" fill="#cc291f"/><path d="m515 294.5c-.2 0-.3 0-.5-.1-.4-.1-.7-.4-.9-.8l-16-34 2.7-1.3 15.3 32.6 15.4-7.7-19.4-45.7 2.8-1.2 20 47c.3.7 0 1.6-.7 1.9l-18 9c-.2.2-.5.3-.7.3z" opacity=".29"/><path d="m444 260-90 45v12l82 62 90-45v-23z" fill="#cc291f"/><path d="m354 317v-12l82 51v23z" opacity=".11"/><path d="m526 334v-23l-90 45v23z" opacity=".29"/><path d="m288 206v-26l-148 74v26z" fill="#cc291f"/><path d="m246 245v-26l-106 53v26z" fill="#2d3134"/><path d="m288 231v-10l-148 74v10z" fill="#cc291f"/><path d="m444 260-75.5 37.8 60.5 30.2 68.9-34.5z" opacity=".2"/><path d="m107 199v5.8l-26 13v-31.8h-4v62c0 .7.4 1.3.9 1.7.3.2.7.3 1.1.3.3 0 .6-.1.9-.2l30-15c.7-.3 1.1-1 1.1-1.8v-34zm-26 45.8v-22.5l26-13v22.5z" fill="#cc291f"/><path d="m107 199v5.8l-26 13v-31.8h-4v62c0 .7.4 1.3.9 1.7.3.2.7.3 1.1.3.3 0 .6-.1.9-.2l30-15c.7-.3 1.1-1 1.1-1.8v-34zm-26 45.8v-22.5l26-13v22.5z" opacity=".29"/><path d="m249 303-6-2-21 12-12-7v-12l-18-17v-18l-43-22v-17l158 56z" fill="#cc291f"/><path d="m149 228.1v8.9l43 22v18l18 17v12l12 7 21-12 6 2 18.3-8.5z" opacity=".11"/><path d="m105 3-68 34v86l120 60 68-34v-86z" fill="#cc291f"/><path d="m37 73v-25l120 60v25z" fill="#e5e5e5"/><path d="m37 123v-86l120 60v86z" opacity=".11"/><path d="m225 149v-86l-68 34v86z" opacity=".29"/><path d="m312 30-22 11v43l22-11 44 22v-43z" fill="#cc291f"/><path d="m312 30v43l44 22v-43z" opacity=".11"/><path d="m312 30v43l-22 11v-43z" opacity=".29"/><path d="m354.5 51.3-39.5 19.7-62.5-31.2-86.5 43.2v64l40 20v22l114 57v32l148-74v-96z" fill="#cc291f"/><path d="m206 161v-25l114 57v25z" fill="#e5e5e5"/><path d="m468 204v-96l-148 74v96z" opacity=".29"/><path d="m206 125v64l114 57v-64z" opacity=".11"/><path d="m206 125 22-11-62-31v64l40 20z" opacity=".11"/><path d="m362 54-124 62v12l82 41 124-62v-12z" fill="#cc291f"/><path d="m238 128v-12l82 41v12z" opacity=".11"/><path d="m444 107v-12l-124 62v12z" opacity=".29"/><path d="m260.4 116 101.6-50.8 59.6 29.8-101.6 50.8z" opacity=".2"/><path d="m362 65.2-101.6 50.8 11.8 5.9 89.8-44.9z" opacity=".29"/><path d="m409.8 100.9 11.8-5.9-59.6-29.8v11.8z" opacity=".11"/><path d="m299 286-14 2-43-24-38-11-55-27v-11l146 51z" opacity=".5"/><path d="m320 278v-32l-114-57v-22l-94-47-22 11-13 55 130 65 49 9 91 46h77v-14l-66-33z" fill="#cc291f"/><path d="m320 278v-32l-230-115-13 55 130 65 49 9 91 46v-14z" opacity=".11"/><path d="m347 292h77v14h-77z" fill="#e5e5e5"/><path d="m347 292h77v14h-77z" opacity=".15"/><path d="m358 259 66 33v14l10 5v-25l-76-38z" fill="#cc291f"/><path d="m516 270v-12l-82 41v12z" fill="#cc291f"/><path d="m434 299 82-41v-87l-78-36-80 39v74l76 38z" fill="#656565"/><path d="m516 270v-99l-82 41v99z" opacity=".29"/><path d="m516 211v-40l-82 41z" fill="#fff" opacity=".1"/><path d="m358 259 66 33v14l10 5v-99l-76-38z" opacity=".11"/><path d="m358 174v74l74-37z" opacity=".15"/><path d="m444 119-90 45v12l82 41 90-45v-12z" fill="#cc291f"/><path d="m354 176v-12l82 41v12z" opacity=".11"/><g fill="#fff"><path d="m524 171v-7l-12 6v7z"/><path d="m450 208v-7l-12 6v7z"/><path d="m464 201v-7l-12 6v7z"/><path d="m510 178v-7l-12 6v7z"/></g><path d="m526 172v-12l-90 45v12z" opacity=".29"/><path d="m252 23c-4.4 0-8 1.8-8 4v28c0 2.2 3.6 4 8 4s8-1.8 8-4v-28c0-2.2-3.6-4-8-4z" fill="#2d3134"/><ellipse cx="252" cy="27" opacity=".8" rx="6" ry="2.5"/><path d="m255 23.3v1.5c1.8.4 3 1.2 3 2.2 0 1.4-2.7 2.5-6 2.5s-6-1.1-6-2.5c0-.9 1.2-1.7 3-2.2v-1.5c-2.9.6-5 2-5 3.7v28c0 2.2 3.6 4 8 4s8-1.8 8-4v-28c0-1.7-2.1-3.1-5-3.7z" fill="#2d3134"/><path d="m252 31c-4.4 0-8-1.8-8-4v28c0 2.2 3.6 4 8 4s8-1.8 8-4v-28c0 2.2-3.6 4-8 4z" opacity=".2"/><path d="m143 247.6c-8.5-4.3-16.2-4.6-21.7-1.7l-15.7 7.9c-5.3 2.8-8.6 8.6-8.6 16.8 0 16.7 13.6 37 30.3 45.4 9.2 4.6 17.4 4.6 22.9.9l12.8-6.4c6.3-2.4 10.3-8.5 10.3-17.6 0-16.6-13.6-37-30.3-45.3z" fill="#2d3134"/><path d="m139 249.3c-6.7-3.3-13-4.4-18.3-3.1l-3.6 1.8.1.1c-.2 0-.4.1-.7.2l-3.6 1.8.1.1c-.2 0-.4.1-.6.2l-3.6 1.8.2.4c5.6-3 13.2-2.4 21.3 1.7 16.6 8.3 30 28.5 30 45 0 8.5-3.7 14.8-10 17.2l.1.4 12.5-6.3c.2-.1.4-.2.5-.2 3.9-3.3 6-8.7 6-15.3.1-16.9-13.6-37.4-30.4-45.8zm17.1 64.3c3.2-3.4 5-8.3 5-14.3 0-16.8-13.7-37.4-30.5-45.8-6-3-11.8-4.2-16.7-3.4 5.5-2.5 12.8-1.8 20.5 2.1 16.6 8.3 30 28.5 30 45 .1 7.7-2.9 13.6-8.3 16.4zm4.2-2.1c3.2-3.4 5-8.3 5-14.3 0-16.8-13.7-37.4-30.5-45.8-6-3-11.8-4.2-16.7-3.4 5.5-2.5 12.8-1.8 20.5 2.1 16.6 8.3 30 28.5 30 45 .1 7.7-3 13.6-8.3 16.4z" opacity=".5"/><path d="m157.5 300.9c0 16.7-13.6 23.5-30.3 15.1s-30.3-28.7-30.3-45.4 13.6-23.5 30.3-15.1c16.8 8.3 30.3 28.7 30.3 45.4z" opacity=".11"/><path d="m128.6 254.7c-9.1-4.5-17.3-4.6-22.8-1 5.2-1.7 12-1 19.3 2.7 16.7 8.4 30.3 28.7 30.3 45.4 0 7.6-2.8 13.2-7.5 16.2 6.7-2.2 10.9-8.5 10.9-17.8.1-16.8-13.5-37.1-30.2-45.5z" fill="#fff" opacity=".1"/><path d="m142.1 293.2c0 8.2-6.6 11.5-14.8 7.4s-14.8-14.1-14.8-22.2c0-8.2 6.6-11.5 14.8-7.4 8.2 4 14.8 14 14.8 22.2z" fill="#cc291f"/><path d="m140.9 292.6c0 7.5-6.1 10.6-13.6 6.8s-13.6-12.9-13.6-20.4 6.1-10.6 13.6-6.8c7.5 3.7 13.6 12.8 13.6 20.4z" fill="#cc291f"/><path d="m140.9 292.6c0 7.5-6.1 10.6-13.6 6.8s-13.6-12.9-13.6-20.4 6.1-10.6 13.6-6.8c7.5 3.7 13.6 12.8 13.6 20.4z" fill="#cc291f"/><path d="m140.9 292.6c0 7.5-6.1 10.6-13.6 6.8s-13.6-12.9-13.6-20.4 6.1-10.6 13.6-6.8c7.5 3.7 13.6 12.8 13.6 20.4z" opacity=".29"/><path d="m127.3 272.1c-7.5-3.8-13.6-.7-13.6 6.8 0 4.1 1.8 8.6 4.6 12.5l19.2-9.6c-2.5-4-6.2-7.6-10.2-9.7z" opacity=".15"/><path d="m129.9 273.7-3.6 1.9c-1.7.7-3 2-3 4.4 0 4.1 3.3 9.1 7.4 11.1 1.9 1 3.6 1.1 5 .6l4.9-2.3c-1.2-5.8-5.4-12-10.7-15.7z" fill="#cc291f"/><path d="m129.9 273.7-3.6 1.9c-1.7.7-3 2-3 4.4 0 4.1 3.3 9.1 7.4 11.1 1.9 1 3.6 1.1 5 .6l4.9-2.3c-1.2-5.8-5.4-12-10.7-15.7z" opacity=".29"/><path d="m149.3 276c5.1 8 8.3 16.9 8.3 24.9 0 7.5-2.8 13-7.3 16.1l12.8-6.4c6.3-2.4 10.3-8.5 10.3-17.6 0-8-3.1-16.9-8.2-24.9z" opacity=".29"/><path d="m138.2 287.4c0 4.1-3.3 5.8-7.4 3.7-4.1-2-7.4-7-7.4-11.1s3.3-5.8 7.4-3.7c4 2.1 7.4 7.1 7.4 11.1z" fill="#cc291f"/><g opacity=".5"><path d="m132 279.5c0 .7-.5.9-1.2.6s-1.2-1.1-1.2-1.8.5-.9 1.2-.6c.6.3 1.2 1.1 1.2 1.8z"/><path d="m132 289.2c0 .7-.5.9-1.2.6s-1.2-1.1-1.2-1.8.5-.9 1.2-.6c.6.3 1.2 1.1 1.2 1.8z"/><path d="m128.2 278.2c.5.7.5 1.5 0 1.7s-1.2-.1-1.7-.9c-.5-.7-.5-1.5 0-1.7s1.2.2 1.7.9z"/><path d="m135 288.5c.5.7.5 1.5 0 1.7s-1.2-.1-1.7-.9-.5-1.5 0-1.7 1.3.1 1.7.9z"/><path d="m125.9 280.1c.7.3 1.2 1.1 1.2 1.8s-.5.9-1.2.6-1.2-1.1-1.2-1.8.5-.9 1.2-.6z"/><path d="m135.6 285c.7.3 1.2 1.1 1.2 1.8s-.5.9-1.2.6-1.2-1.1-1.2-1.8.5-1 1.2-.6z"/><path d="m126.5 284.2c.5-.2 1.2.1 1.7.9.5.7.5 1.5 0 1.7s-1.2-.1-1.7-.9c-.5-.7-.5-1.5 0-1.7z"/><path d="m133.3 280.8c.5-.2 1.2.1 1.7.9.5.7.5 1.5 0 1.7s-1.2-.1-1.7-.9c-.5-.7-.5-1.5 0-1.7z"/></g><path d="m127.3 255.5c-16.7-8.4-30.3-1.6-30.3 15.1s13.6 37 30.3 45.4 30.3 1.6 30.3-15.1c-.1-16.7-13.6-37.1-30.3-45.4zm0 56.9c-14.7-7.4-26.6-25.2-26.6-39.9s11.9-20.7 26.6-13.3 26.6 25.2 26.6 39.9-11.9 20.6-26.6 13.3z" fill="#fff" opacity=".1"/><path d="m326.8 279.4c-15-7.5-28.5-8-38.2-2.9l-27.6 13.9c-9.3 4.9-15.1 15.1-15.1 29.5 0 29.4 23.8 65.1 53.2 79.8 16.1 8.1 30.6 8.1 40.3 1.6l22.4-11.2c11.1-4.2 18.1-15 18.1-30.9.1-29.4-23.7-65.1-53.1-79.8z" fill="#2d3134"/><path d="m352.4 373.1c0 29.4-23.8 41.3-53.2 26.6s-53.2-50.4-53.2-79.8 23.8-41.3 53.2-26.6 53.2 50.4 53.2 79.8z" opacity=".11"/><path d="m301.6 292c-16-8-30.3-8.1-40.1-1.8 9.2-3 21.1-1.7 34 4.7 29.4 14.7 53.2 50.4 53.2 79.8 0 13.4-5 23.1-13.1 28.4 11.8-3.9 19.2-14.9 19.2-31.3 0-29.4-23.9-65.1-53.2-79.8z" fill="#fff" opacity=".1"/><path d="m325.2 359.5c0 14.4-11.7 20.2-26.1 13s-26.1-24.7-26.1-39.1 11.7-20.2 26.1-13 26.1 24.7 26.1 39.1z" fill="#cc291f"/><path d="m323.1 358.5c0 13.2-10.7 18.6-23.9 12s-23.9-22.7-23.9-35.9 10.7-18.6 23.9-12 23.9 22.7 23.9 35.9z" fill="#cc291f"/><path d="m323.1 358.5c0 13.2-10.7 18.6-23.9 12s-23.9-22.7-23.9-35.9 10.7-18.6 23.9-12 23.9 22.7 23.9 35.9z" fill="#cc291f"/><path d="m323.1 358.5c0 13.2-10.7 18.6-23.9 12s-23.9-22.7-23.9-35.9 10.7-18.6 23.9-12 23.9 22.7 23.9 35.9z" opacity=".29"/><path d="m299.2 322.6c-13.2-6.6-23.9-1.2-23.9 12 0 7.2 3.1 15.1 8.1 22l33.8-16.9c-4.5-7.2-10.9-13.6-18-17.1z" opacity=".15"/><path d="m303.8 325.3-6.3 3.3c-2.9 1.3-5.3 3.5-5.3 7.8 0 7.2 5.8 16 13 19.6 3.3 1.7 6.4 1.9 8.7 1l8.5-4.1c-1.9-10.2-9.3-21.1-18.6-27.6z" fill="#cc291f"/><path d="m303.8 325.3-6.3 3.3c-2.9 1.3-5.3 3.5-5.3 7.8 0 7.2 5.8 16 13 19.6 3.3 1.7 6.4 1.9 8.7 1l8.5-4.1c-1.9-10.2-9.3-21.1-18.6-27.6z" opacity=".29"/><path d="m337.8 329.3c9 14 14.5 29.6 14.5 43.8 0 13.3-4.9 22.9-12.9 28.2l22.4-11.2c11.1-4.2 18.1-15 18.1-30.9 0-14.1-5.5-29.7-14.5-43.7z" opacity=".29"/><path d="m318.3 349.5c0 7.2-5.8 10.1-13 6.5s-13-12.4-13-19.6 5.8-10.1 13-6.5c7.2 3.7 13 12.4 13 19.6z" fill="#cc291f"/><g opacity=".5"><path d="m307.4 335.6c0 1.2-1 1.7-2.1 1.1-1.2-.6-2.1-2-2.1-3.2s1-1.7 2.1-1.1c1.2.5 2.1 2 2.1 3.2z"/><path d="m307.4 352.6c0 1.2-1 1.7-2.1 1.1-1.2-.6-2.1-2-2.1-3.2s1-1.7 2.1-1.1c1.2.6 2.1 2 2.1 3.2z"/><path d="m300.8 333.2c.8 1.2.8 2.6 0 3s-2.2-.3-3-1.5-.8-2.6 0-3 2.1.3 3 1.5z"/><path d="m312.8 351.3c.8 1.2.8 2.6 0 3s-2.2-.3-3-1.5-.8-2.6 0-3 2.2.2 3 1.5z"/><path d="m296.8 336.6c1.2.6 2.1 2 2.1 3.2s-1 1.7-2.1 1.1c-1.2-.6-2.1-2-2.1-3.2-.1-1.2.9-1.7 2.1-1.1z"/><path d="m313.8 345.1c1.2.6 2.1 2 2.1 3.2s-1 1.7-2.1 1.1c-1.2-.6-2.1-2-2.1-3.2s.9-1.7 2.1-1.1z"/><path d="m297.8 343.8c.8-.4 2.2.3 3 1.5s.8 2.6 0 3-2.2-.3-3-1.5-.9-2.6 0-3z"/><path d="m309.8 337.7c.8-.4 2.2.3 3 1.5s.8 2.6 0 3-2.2-.3-3-1.5-.8-2.6 0-3z"/></g><path d="m299.2 293.3c-29.4-14.7-53.2-2.8-53.2 26.6s23.8 65.1 53.2 79.8 53.2 2.8 53.2-26.6-23.8-65.1-53.2-79.8zm0 100c-25.9-12.9-46.8-44.4-46.8-70.2 0-25.9 21-36.3 46.8-23.4s46.8 44.4 46.8 70.2-21 36.4-46.8 23.4z" fill="#fff" opacity=".1"/><g opacity=".5"><path d="m295.3 295.6 8.5 4.3-4.2-6.4c-.1-.1-.2-.1-.4-.2-2.6-1.3-5.1-2.4-7.6-3.3z"/><path d="m303.8 397.8-8.5-4.3 3.2 5.8c.2.1.5.3.7.4 2.5 1.3 5 2.3 7.4 3.2z"/><path d="m271.3 292.1 7.4-.6-5.8-4.5c-.1 0-.2 0-.3 0-2.2.2-4.3.6-6.3 1.1z"/><path d="m327.6 400.8-7.4.6 4.9 4.5h.6c2.2-.2 4.2-.5 6.2-1.1z"/><path d="m254.8 303.1 4.3-5.2-5.8-1.3c-.1.1-.1.1-.2.2-1.3 1.6-2.4 3.3-3.3 5.2z"/><path d="m343.8 389.2-4.3 5.2 5.3 2c.1-.1.3-.3.4-.4 1.3-1.5 2.3-3.2 3.3-5.1z"/><path d="m250.3 325.8v-8.5l-4.2 2.1v.4c0 2.6.2 5.2.6 7.9z"/><path d="m348.2 366.3v8.5l4.2-1.1c0-.2 0-.5 0-.7 0-2.5-.2-5.1-.5-7.7z"/><path d="m258.8 354-4.3-9.5-1.6 5c.1.1.1.3.2.4 1.3 2.9 2.7 5.7 4.3 8.5z"/><path d="m339.3 338 4.3 9.5 2.1-3.8c-.1-.3-.2-.5-.3-.8-1.3-2.8-2.7-5.6-4.2-8.2z"/><path d="m278.1 380.2-7.4-7.9 1.6 6.6.3.3c2.2 2.4 4.5 4.7 6.9 6.8z"/><path d="m319.7 312 7.4 7.9-.6-5.6c-.2-.2-.4-.5-.6-.7-2.2-2.3-4.4-4.5-6.7-6.6z"/></g><g opacity=".5"><path d="m290.8 275.5c-.7.3-1.4.6-2.1 1l-6.9 3.5-.8 1.3-14.7 6.9c2-.6 4.1-1 6.3-1.1h.3l14.8-6.3z"/><path d="m356.7 303.6c-1.6-1.9-3.3-3.7-5-5.5l-8.4 9.9-24.3-.9c2.3 2.1 4.5 4.2 6.7 6.6.2.2.4.5.6.7l21.3.5z"/><path d="m299.2 293.3c.1.1.2.1.4.2l23.6-2.3 5.7-10.7c-.7-.4-1.3-.7-2-1.1-1.5-.8-3-1.4-4.5-2l-5.5 9.4-25.3 3.2c2.4.9 5 2 7.6 3.3z"/><path d="m366.7 377.5 11.5-5.5c.9-2.9 1.5-6 1.7-9.4l-12.3 6.4-15.7-3.7c.3 2.6.5 5.2.5 7.7v.7z"/><path d="m348.4 391c-.9 1.8-2 3.5-3.3 5.1-.1.1-.3.3-.4.4l3.5.5 9.1-4.6z"/><path d="m345.6 343.6 20.6 4.3 10.5-9.2c-1-3.2-2.2-6.4-3.6-9.5l-10.5 8.8-21.4-3.4c1.5 2.7 2.9 5.4 4.2 8.2 0 .3.1.6.2.8z"/></g><path d="m611 236 8-4 74 37v39l-8 4-19.5 5.4c-6.2 1.7-12.8 1.9-19.2.5l-4.7-1.1c-10.7-2.4-19.8-9.1-25.3-18.6-3.5-6-5.4-12.9-5.4-19.8v-42.4z" fill="#cc291f"/><path d="m611 236v42.4c0 7 1.9 13.8 5.4 19.8 5.5 9.4 14.7 16.2 25.3 18.6l4.7 1.1c6.3 1.4 12.9 1.3 19.2-.5l19.4-5.4v-39z" opacity=".11"/><path d="m685 273v39l8-4v-39z" opacity=".29"/><path d="m619 247-274 137v53l8 4 274-137v-53z" fill="#cc291f"/><path d="m627 304v-53l-274 137v53z" opacity=".29"/><path d="m639.8 308.6-15-33.6 15-18.6 30.1 15.1 15.1 33.6-15.1 18.5z" fill="#2d3134"/><path d="m669.5 322.7-16 8.1 11.4-14-.2-.4 20.8-10.5-.9-1.8-20.7 10.5-14.2-31.8 20.8-10.5-.9-1.8-20.8 10.5-27.9-13.9 19.3-9.8-.9-1.8-20.7 10.4-.8-.4c-1.2-.6-2.7-.1-3.4 1.1-.2.5-.3 1-.2 1.5l-18.9 9.5-.8-.4c-1.2-.6-2.7-.1-3.4 1.1-.2.5-.3 1-.2 1.5l-18.9 9.5-.8-.4c-1.2-.6-2.7-.1-3.4 1.1-.2.5-.3 1-.2 1.5l-18.9 9.5-.8-.4c-1.2-.6-2.7-.1-3.4 1.1-.2.5-.3 1-.2 1.5l-18.9 9.5-.8-.4c-1.2-.6-2.7-.1-3.4 1.1-.2.5-.3 1-.2 1.5l-18.9 9.5-.8-.4c-1.2-.6-2.7-.1-3.4 1.1-.2.5-.3 1-.2 1.5l-18.9 9.5-.8-.4c-1.2-.6-2.7-.1-3.4 1.1-.2.5-.3 1-.2 1.5l-18.9 9.5-.8-.4c-1.2-.6-2.7-.1-3.4 1.1-.2.5-.3 1-.2 1.5l-18.9 9.5-.8-.4c-1.2-.6-2.7-.1-3.4 1.1-.2.5-.3 1-.2 1.5l-18.9 9.5-.8-.4c-1.2-.6-2.7-.1-3.4 1.1-.2.5-.3 1-.2 1.5l-21.5 10.9.9 1.8 21.7-11c.1 0 .1.1.2.1l8.4 4.2-46.3 23.4.9 1.8 47.6-24.1 17 8.5-20.3 10.3.9 1.8 21.3-10.8 7.2 16-59.2 30.7.9 1.8 59.4-30 5.9 13.1-1.4 1.7-19.6 9.9.9 1.8 15.6-7.9-9.6 11.8c-.5.6-.6 1.3-.5 2l-21.5 10.9.9 1.8 21.7-11c.4.3.9.4 1.3.4.7 0 1.4-.3 1.9-.9l1.6-1.9 18.4-9.3c.4.3.9.4 1.3.4.7 0 1.4-.3 1.9-.9l1.6-1.9 18.4-9.3c.4.3.9.4 1.3.4.7 0 1.4-.3 1.9-.9l1.6-1.9 18.4-9.3c.4.3.9.4 1.3.4.7 0 1.4-.3 1.9-.9l1.6-1.9 18.4-9.3c.4.3.9.4 1.3.4.7 0 1.4-.3 1.9-.9l1.6-1.9 18.4-9.3c.4.3.9.4 1.3.4.7 0 1.4-.3 1.9-.9l1.6-1.9 18.4-9.3c.4.3.9.4 1.3.4.7 0 1.4-.3 1.9-.9l1.6-1.9 18.4-9.3c.4.3.9.4 1.3.4.7 0 1.4-.3 1.9-.9l1.6-1.9 18.4-9.3c.4.3.9.4 1.3.4.7 0 1.4-.3 1.9-.9l1.6-1.9 18.4-9.3c.4.3.9.4 1.3.4.7 0 1.4-.3 1.9-.9l1.6-1.9 20-10.1zm-10.5-6.6-1.4 1.7-17 8.6-6.2-13.9 5.9-3-.9-1.8-5.8 3-7.2-16 18.8-9.5zm-196.4 59-17-8.5 17.7-9 17 8.5zm42.9-19.4 7.2 16-18.8 9.5-7.2-16zm4.5-2.3 18.8-9.5 7.2 16-18.8 9.5zm23.2-11.8 18.8-9.5 7.2 16-18.8 9.5zm23.3-11.7 18.8-9.5 7.2 16-18.8 9.5zm23.3-11.8 18.8-9.5 7.2 16-18.8 9.5zm23.3-11.7 18.8-9.5 7.2 16-18.8 9.5zm-.8-1.9-17-8.5 17.7-9 17 8.5zm-5.6 2.8-17.7 9-17-8.5 17.7-9zm-23.3 11.8-17.7 9-17-8.5 17.7-9zm-23.2 11.8-17.7 9-17-8.5 17.7-9zm-23.3 11.7-17.7 9-17-8.5 17.7-9zm-23.3 11.8-17.7 9-17-8.5 17.7-9zm-21.4 13 7.2 16-18.8 9.5-7.2-16zm8 17.9 5.9 13.1-1.4 1.7-17 8.6-6.2-13.9zm4.5-2.3 18.8-9.5 5.9 13.1-1.4 1.7-17 8.6zm23.3-11.7 18.8-9.5 5.9 13.1-1.4 1.7-17 8.6zm23.2-11.8 18.8-9.5 5.9 13.1-1.4 1.7-17 8.6zm23.3-11.8 18.8-9.5 5.9 13.1-1.4 1.7-17 8.6zm23.3-11.7 18.8-9.5 5.9 13.1-1.4 1.7-17 8.6zm23.3-11.8 18.8-9.5 5.9 13.1-1.4 1.7-17 8.6zm14.4-31.4-17-8.5 16.7-8.4-.7-1.4 18.8 9.4zm-10.1-22.9c.1 0 .1.1.2.1l8.4 4.2-17.7 9-8.7-4.3zm-23.3 11.7c.1 0 .1.1.2.1l8.4 4.2-17.7 9-8.7-4.3zm-23.2 11.8c.1 0 .1.1.2.1l8.4 4.2-17.7 9-8.7-4.3zm-23.3 11.7c.1 0 .1.1.2.1l8.4 4.2-17.7 9-8.7-4.3zm-23.3 11.8c.1 0 .1.1.2.1l8.4 4.2-17.7 9-8.7-4.3zm-23.3 11.8c.1 0 .1.1.2.1l8.4 4.2-17.7 9-8.7-4.3zm-23.2 11.7c.1 0 .1.1.2.1l8.4 4.2-17.7 9-8.7-4.3zm-23.3 11.8c.1 0 .1.1.2.1l8.4 4.2-17.7 9-8.7-4.3zm-41 20.7 17.7-9c.1 0 .1.1.2.1l8.4 4.2-17.7 9zm27.8 13.9-17-8.5 17.7-9 17 8.5zm.8 1.9 18.8-9.5 7.2 16-18.8 9.5zm8 17.8 18.9-9.5 5.9 13.1-1.4 1.7-17 8.6zm7.1 15.8 13.1-6.6-9.6 11.8c-.5.6-.6 1.3-.5 2l-14.2 7.2 11.4-14zm23.3-11.8 13.1-6.6-9.6 11.8c-.5.6-.6 1.3-.5 2l-14.2 7.2 11.4-14zm23.3-11.7 13.1-6.6-9.6 11.8c-.5.6-.6 1.3-.5 2l-14.2 7.2 11.4-14zm23.2-11.8 13.1-6.6-9.6 11.8c-.5.6-.6 1.3-.5 2l-14.2 7.2 11.4-14zm23.3-11.7 13.1-6.6-9.6 11.8c-.5.6-.6 1.3-.5 2l-14.2 7.2 11.4-14zm23.3-11.8 13.1-6.6-9.6 11.8c-.5.6-.6 1.3-.5 2l-14.2 7.2 11.4-14zm23.3-11.8 13.1-6.6-9.6 11.8c-.5.6-.6 1.3-.5 2l-14.2 7.2 11.4-14zm23.2-11.7 13.1-6.6-9.6 11.8c-.5.6-.6 1.3-.5 2l-14.2 7.2 11.4-14zm23.3-11.8 13.1-6.6-9.6 11.8c-.5.6-.6 1.3-.5 2l-14.2 7.2 11.4-14z" fill="#2d3134"/><path d="m383.8 437.9-15.1-33.6 15.1-18.5 30.1 15 15.1 33.6-15.1 18.6z" fill="#2d3134"/><path d="m329 377 8-4 74 37v39l-8 4-19.5 5.4c-6.2 1.7-12.8 1.9-19.2.5l-4.7-1.1c-10.7-2.4-19.8-9.1-25.3-18.6-3.5-6-5.4-12.9-5.4-19.8v-42.4z" fill="#cc291f"/><path d="m329 377v42.4c0 7 1.9 13.8 5.4 19.8 5.5 9.4 14.7 16.2 25.3 18.6l4.7 1.1c6.3 1.4 12.9 1.3 19.2-.5l19.4-5.4v-39z" opacity=".11"/><path d="m403 414v39l8-4v-39z" opacity=".29"/></svg>