<svg viewBox="0 0 80 80" xmlns="http://www.w3.org/2000/svg"><path d="m24.5 61.8c-6.5 4-6.9 8.7 1.4 13.2 9.2 4.9 14.6 3.9 21.7-.3 6.2-3.6 4.8-8.5-5.7-12.8-8.4-3.3-12.8-2.9-17.4-.1z" opacity=".2"/><path d="m39.7 61.7c-.1 1.1-1.5 7.6-2.3 8.7s-5.8 4.2-5.8 4.2l5.2-1.7 1.2 3.1.7-3.4 4.1-1.8-3.4-.3s1.5-4.9 1.9-6.2.6-2.5.6-2.5z" fill="#baa794"/><path d="m32.6 58.1s-1.7 7.3-2.1 8.1c-.4.9-6.1 3.6-6.1 3.6l5-1.4.7 3 1.3-3 4.1-1.3-3-.6s1.4-5.4 1.8-6.8.2-1.9.2-1.9z" fill="#baa794"/><path d="m25.5 25.8c3.9-2.7 11.7-4.7 16.2-4.3s12.4 2.8 13.5 4.6c1.1 1.9 7.9 16.1.4 25.6-4.5 5.7-9.1 5.7-9.1 5.7s-1.3 4.9-5.3 4.9c-3.6 0-5.8-3.6-5.8-3.6s-1.5.3-3.3-.1c-1.9-.4-3.3-2.5-3.3-2.5s-8.9-.6-10.8-10.4c-2.1-11 2.9-16.7 7.5-19.9z" fill="#825012"/><path d="m41.4 22.3c-.4-.7 2-5.8 3.8-11.1 1.8-5.6 2.2-9.6 3.8-9.8s1.9 1.5 1.9 1.5.5-2.2 2.1-1.9 1.3 2.5 1.3 2.5.6-1.1 1.9-.3c1.3.7.5 3.2.5 3.2s.9-1.1 2-.4c1.6.9 1.7 8.8 1.2 13.7-.7 7.2-2.2 12.3-2.2 12.3s-3.7-6.2-7.8-7-7.6-.9-8.5-2.7z" fill="#762c07"/><path d="m20.2 16.9c.6-1 2.7-3.4 5.3-2.3s4.6 4.2 6.4 7.7 2.1 5.4 4 6.9c1.1.9 5.2 2.6 5.2 2.6l-6.4.6.2 4.1-5-2.1-1.5 5.2-3.5-4.4-4.1 4.2-.1-4.4-3.5 1.6s1.2-1.8 1.9-3.3c3.5-7.7-.8-13.5 1.1-16.4z" fill="#762c07"/><path d="m17.8 18.3c-1.3.6-1.8 4.9-1.8 4.9s2-1.4 3.4-1.8c1.5-.4-.5-3.6-1.6-3.1z" fill="#baa794"/><path d="m19.6 18c1.1 0 .9-1.3 2.7-2.8 1.5-1.3 2.6-1.8 2.6-2.6 0-1.4-2.5-2-2.7-.7-.1.7-1.1-.5-2 .3-.8.6-.3 1.5-.5 1.8-.1.3-1.4.2-1.9 1-.4.8-.1 3 1.8 3z" fill="#cc291f"/><path d="m19.9 20.5c-1.3.4-2.2 2.7-.5 3.7 1.9 1.2 3-2.8 3-2.8s3.4-2.1 3-3.2-4.9-.2-4.9-.2-1.8-.4-2.7.3-.9 1.1-.9 1.1 1.2-.3 2.2.2.8.9.8.9z" fill="#cc291f"/><path d="m23.3 18.2c.6-.2 1.1.9.3 1.1-.7.3-1.1-.8-.3-1.1z" fill="#2d3134"/></svg>