<svg viewBox="0 0 64 32" xmlns="http://www.w3.org/2000/svg"><path d="m32 0-32 16 5.9 3 32-16z" fill="#9c3"/><path d="m58.1 13-32 16 5.9 3 32-16z" fill="#9c3"/><path d="m5.9 19 20.2 10 32-16-20.2-10z" fill="#baa794"/><path d="m32 0-32 16 5.9 3 32-16z" fill="#9c3"/><path d="m58.1 13-32 16 5.9 3 32-16z" fill="#9c3"/><path d="m5.9 19 20.2 10 32-16-20.2-10z" fill="#baa794"/><path d="m5.9 19 20.2 10 32-16-20.2-10z" opacity=".15"/><path d="m37.9 3-32 16 1.2.5 32-16z" opacity=".15"/><path d="m56.9 12.5-32 16 1.2.5 32-16z" opacity=".15"/><g fill="#baa794"><path d="m8 20 4-2 6 3-4 2z"/><path d="m36 6 4-2 6 3-4 2z"/><path d="m14 17 6-3 4 2-4 2 2 1-2 1z"/><path d="m30 9 4-2 6 3-2 1 2 1-2 1z"/><path d="m40 14 4-2-2-1 2-1 8 4-6 3z"/><path d="m26 15 6-3 6 3-4 2 2 1-2 1z"/><path d="m24 20 2-1-2-1 2-1 6 3-4 2z"/><path d="m22 13 6-3 2 1-6 3z"/><path d="m16 24 6-3 8 4-6 3z"/><path d="m46 9 2-1 8 4-2 1z"/><path d="m40 16-2 1 2 1-10 5 2 1 12-6z"/></g></svg>