<svg enable-background="new 0 0 80 88" viewBox="0 0 80 88" xmlns="http://www.w3.org/2000/svg"><path d="m80 38-16-8-16 24v34l32-16z" fill="#f8ebcb"/><path d="m80 72-2 1v-36l2 1z" fill="#fff"/><path d="m58 78 12-6v-13l-12 6z" fill="#fff"/><path d="m59 76.5 10-5v-11l-10 5z" fill="#825012"/><path d="m68 71-8 4v-9l8-4z" fill="#39c"/><path d="m60 73v-7l8-4z" opacity=".15"/><path d="m68 65-8 4v1l8-4z" fill="#825012"/><path d="m60 67 8-4v-1l-8 4z" opacity=".15"/><path d="m66 62-1 .5v10l1-.5z" fill="#825012"/><path d="m63 63.5-1 .5v10l1-.5z" fill="#825012"/><path d="m68 71v-10l1-.5v11l-10 5v-1z" opacity=".3"/><path d="m58 63 12-6v-13l-12 6z" fill="#fff"/><path d="m59 61.5 10-5v-11l-10 5z" fill="#825012"/><path d="m68 56-8 4v-9l8-4z" fill="#39c"/><path d="m60 58v-7l8-4z" opacity=".15"/><path d="m68 50-8 4v1l8-4z" fill="#825012"/><path d="m60 52 8-4v-1l-8 4z" opacity=".15"/><path d="m66 47-1 .5v10l1-.5z" fill="#825012"/><path d="m63 48.5-1 .5v10l1-.5z" fill="#825012"/><path d="m68 56v-10l1-.5v11l-10 5v-1z" opacity=".3"/><path d="m0 30 48 24v34l-48-24z" fill="#f8ebcb"/><path d="m0 64 2 1v-34l-2-1z" fill="#fff"/><path d="m46 87 2 1v-34l-2-1z" fill="#fff"/><path d="m46 87-44-22v-1l44 22z" opacity=".3"/><path d="m15 66.5-9-4.5v-13l9 4.5z" fill="#fff"/><path d="m14 65-7-3.5v-11l7 3.5z" fill="#825012"/><path d="m8 61 5 2.5v-9l-5-2.5z" fill="#39c"/><path d="m13 61.5v-7l-5-2.5z" opacity=".15"/><path d="m8 55 5 2.5v1l-5-2.5z" fill="#825012"/><path d="m13 55.5-5-2.5v-1l5 2.5z" opacity=".15"/><path d="m10 52 1 .5v10l-1-.5z" fill="#825012"/><path d="m8 61v-10l-1-.5v11l7 3.5v-1z" opacity=".3"/><path d="m29 73.5-9-4.5v-13l9 4.5z" fill="#fff"/><path d="m28 72-7-3.5v-11l7 3.5z" fill="#825012"/><path d="m22 68 5 2.5v-9l-5-2.5z" fill="#39c"/><path d="m27 68.5v-7l-5-2.5z" opacity=".15"/><path d="m22 62 5 2.5v1l-5-2.5z" fill="#825012"/><path d="m27 62.5-5-2.5v-1l5 2.5z" opacity=".15"/><path d="m24 59 1 .5v10l-1-.5z" fill="#825012"/><path d="m22 68v-10l-1-.5v11l7 3.5v-1z" opacity=".3"/><path d="m15 51.5-9-4.5v-13l9 4.5z" fill="#fff"/><path d="m14 50-7-3.5v-11l7 3.5z" fill="#825012"/><path d="m8 46 5 2.5v-9l-5-2.5z" fill="#39c"/><path d="m13 46.5v-7l-5-2.5z" opacity=".15"/><path d="m8 40 5 2.5v1l-5-2.5z" fill="#825012"/><path d="m13 40.5-5-2.5v-1l5 2.5z" opacity=".15"/><path d="m10 37 1 .5v10l-1-.5z" fill="#825012"/><path d="m8 46v-10l-1-.5v11l7 3.5v-1z" opacity=".3"/><path d="m29 58.5-9-4.5v-13l9 4.5z" fill="#fff"/><path d="m28 57-7-3.5v-11l7 3.5z" fill="#825012"/><path d="m22 53 5 2.5v-9l-5-2.5z" fill="#39c"/><path d="m27 53.5v-7l-5-2.5z" opacity=".15"/><path d="m22 47 5 2.5v1l-5-2.5z" fill="#825012"/><path d="m27 47.5-5-2.5v-1l5 2.5z" opacity=".15"/><path d="m24 44 1 .5v10l-1-.5z" fill="#825012"/><path d="m22 53v-10l-1-.5v11l7 3.5v-1z" opacity=".3"/><path d="m43 65.5-9-4.5v-13l9 4.5z" fill="#fff"/><path d="m42 64-7-3.5v-11l7 3.5z" fill="#825012"/><path d="m36 60 5 2.5v-9l-5-2.5z" fill="#39c"/><path d="m41 60.5v-7l-5-2.5z" opacity=".15"/><path d="m36 54 5 2.5v1l-5-2.5z" fill="#825012"/><path d="m41 54.5-5-2.5v-1l5 2.5z" opacity=".15"/><path d="m38 51 1 .5v10l-1-.5z" fill="#825012"/><path d="m36 60v-10l-1-.5v11l7 3.5v-1z" opacity=".3"/><path d="m43 67.5-9-4.5v17l9 4.5z" fill="#fff"/><path d="m42 84-7-3.5v-16l7 3.5z" fill="#825012"/><path d="m36 80v-15l-1-.5v16l7 3.5v-1z" opacity=".3"/><path d="m38 70-2-1v-1l2 1z" opacity=".3"/><path d="m41 71.5-2-1v-1l2 1z" opacity=".3"/><path d="m38 74-2-1v-1l2 1z" opacity=".3"/><path d="m41 75.5-2-1v-1l2 1z" opacity=".3"/><path d="m38 78-2-1v-1l2 1z" opacity=".3"/><path d="m41 79.5-2-1v-1l2 1z" opacity=".3"/><path d="m0 30 48 24v34l-48-24z" opacity=".06"/><path d="m48 54-48-24 16-24 48 24z" fill="#762c07"/><path d="m48 54-48-24 16-24 48 24z" opacity=".06"/><path d="m14.9 7.6 48 24 1.1-1.6-48-24z" fill="#fff" opacity=".2"/><path d="m50 87-2 1v-34l2-3z" fill="#fff"/><path d="m50 87 28-14v-1l-28 14z" opacity=".3"/><path d="m48 54 16-24 16 8h-1l-15-7-15 23z" fill="#762c07"/><path d="m80 38-16-8-16 24v34l32-16z" opacity=".39"/></svg>