<svg viewBox="0 0 112 80" xmlns="http://www.w3.org/2000/svg"><path d="m112 40-80 40v-32l80-40z" fill="#762c07"/><path d="m111 40.5-78 39v-4l78-39z" opacity=".3"/><path d="m34 79-2 1v-32l2-1z" fill="#fff"/><path d="m112 40-2 1v-32l2-1z" fill="#fff"/><path d="m42 75-1 .5v-32l1-.5z" opacity=".15"/><path d="m37 77.5-1 .5v-32l1-.5z" opacity=".15"/><path d="m47 72.5-1 .5v-32l1-.5z" opacity=".15"/><path d="m87 52.5-1 .5v-32l1-.5z" opacity=".15"/><path d="m82 55-1 .5v-32l1-.5z" opacity=".15"/><path d="m77 57.5-1 .5v-32l1-.5z" opacity=".15"/><path d="m72 60-1 .5v-32l1-.5z" opacity=".15"/><path d="m102 45-1 .5v-32l1-.5z" opacity=".15"/><path d="m107 42.5-1 .5v-32l1-.5z" opacity=".15"/><path d="m97 47.5-1 .5v-32l1-.5z" opacity=".15"/><path d="m92 50-1 .5v-32l1-.5z" opacity=".15"/><path d="m67 62.5-1 .5v-32l1-.5z" opacity=".15"/><path d="m57 67.5-1 .5v-32l1-.5z" opacity=".15"/><path d="m62 65-1 .5v-32l1-.5z" opacity=".15"/><path d="m52 70-1 .5v-32l1-.5z" opacity=".15"/><path d="m112 40-80 40v-32l80-40z" opacity=".29"/><path d="m0 40 32 8v32l-32-16z" fill="#762c07"/><path d="m1 64.5 30 15v-4l-30-15z" opacity=".3"/><path d="m0 64 2 1v-24l-2-1z" fill="#fff"/><path d="m30 79 2 1v-32h-2z" fill="#fff"/><path d="m13 70.5 1 .5v-27.3l-1 .5z" opacity=".15"/><path d="m18 73 1 .5v-28l-1-.5z" opacity=".15"/><path d="m3 65.5 1 .5v-24.8l-1 .5z" opacity=".15"/><path d="m8 68 1 .5v-25.5l-1-.5z" opacity=".15"/><path d="m23 75.5 1 .5v-29.8l-1 .5z" opacity=".15"/><path d="m28 78 1 .5v-31l-1 .5z" opacity=".15"/><path d="m11 69.5 10 5v-19l-10-5z" fill="#fff"/><path d="m12 69 8 4v-17l-8-4z" fill="#762c07"/><path d="m19.5 73h1l-8-21h-1z" fill="#fff"/><path d="m0 40 32 8v1l-32-8z" fill="#fff"/><path d="m0 40 32 8v32l-32-16z" opacity=".11"/><path d="m0 40 32 8 80-40-32-8z" fill="#2d3134"/><path d="m0 40 32 8 80-40-32-8z" fill="#2d3134"/><path d="m0 40 32 8 80-40-32-8z" opacity=".06"/></svg>