<svg viewBox="0 0 16 32" xmlns="http://www.w3.org/2000/svg"><ellipse cx="8.6" cy="29.5" opacity=".3" rx="3.3" ry="1.5"/><path d="m8 20v9.1c0 .2.2.3.5.3s.5-.1.5-.3v-9.1z" fill="#825012"/><g fill="#fc0"><path d="m2.4 21.1h7.3v.2h-7.3z" transform="matrix(.0548935 -.9985 .9985 .0548935 -15.4037 26.108)"/><path d="m3.1 21.1h7.3v.2h-7.3z" transform="matrix(.0548935 -.9985 .9985 .0548935 -14.807 26.7971)"/><path d="m4.2 21.1h7.3v.2h-7.3z" transform="matrix(.0548935 -.9985 .9985 .0548935 -13.7825 27.9168)"/><path d="m3.8 21.2h7.3v.2h-7.3z" transform="matrix(.0548935 -.9985 .9985 .0548935 -14.2243 27.6812)"/><path d="m8 17.9h.2v7.3h-.2z" transform="matrix(-.9985 -.05397524 .05397524 -.9985 15.1126 43.5012)"/><path d="m3.5 21.2h7.3v.2h-7.3z" transform="matrix(.0548935 -.9985 .9985 .0548935 -14.5311 27.2806)"/><path d="m2.8 21.3h7.3v.2h-7.3z" transform="matrix(.0548935 -.9985 .9985 .0548935 -15.2803 26.6812)"/><path d="m6.9 20.9h6.9v.2h-6.9z" transform="matrix(-.08927762 -.996 .996 -.08927762 -9.6101 33.1731)"/><path d="m5.9 21.2h6.9v.2h-6.9z" transform="matrix(-.0892661 -.996 .996 -.0892661 -11.0835 32.5166)"/><path d="m6.6 21.3h6.9v.2h-6.9z" transform="matrix(-.08927762 -.996 .996 -.08927762 -10.4242 33.3498)"/><path d="m7.4 20.9h6.9v.2h-6.9z" transform="matrix(-.08934161 -.996 .996 -.08934161 -9.1836 33.7166)"/><path d="m6.2 21h6.9v.2h-6.9z" transform="matrix(-.08927762 -.996 .996 -.08927762 -10.5384 32.5928)"/><path d="m5.6 21.1h6.9v.2h-6.9z" transform="matrix(-.08927762 -.996 .996 -.08927762 -11.2714 32.1342)"/><path d="m5 14.1 7.9-3-.1-.2-5 1.9 2.7-1.3 2.1-.6v-.3l-.6.2.9-.4-.1-.2-2.4 1.1-1.5.5 3.5-1.5-.1-.2-1.5.6 1.1-.5-.1-.2-5.1 2.4h-.1l-4.7 1.5.1.2 2.5-.8-2.5 1 .1.3.7-.3-.6.3.1.2 4.5-2.2 2.2-.6-4.1 1.9-3 1.1.1.2.4-.1.1.2z"/><path d="m7.7 8.1h.2v10.7h-.2z" transform="matrix(-.3621 -.9321 .9321 -.3621 -1.7912 25.5613)"/></g><path d="m7.1 11s-.9.8-1.3 1-2 .9-2.2 1-1.2.6-1.2.6.5.1.7.7c.3.6.2 1.2.2 1.2l2-.1s.3.9.5 1.5c.1.6.2.7.2.7l4.4.3s-.2-2.6.4-3.9 1.6-2 1.6-2 .1-.5-.2-1-1.1-.6-1.1-.6l-1.7.7-.6 1z" fill="#cc291f"/><path d="m6.8 11.5c.1.1 1.2 1.3 1.2 1.3l.7-.8.8.4-.1-.8.5 1-1.1-.5-.8 1.1z" opacity=".3"/><path d="m5.6 16.5v7.8l2.7-.1.2-4.5.5 4.5 2.2-.4-.8-8.7-.1-.7s0-1.4-.3-2.3c-.2-.7-.7-1.3-.7-1.3l-.2.2s.5.5.7 1.6c.1.6.2 1.8.2 1.8l-2 .4s-.3-.8-.7-1.5c-.5-1-1.1-1.6-1.1-1.6l-.4.3s.4.5 1 1.5c.4.4.6 1.5.6 1.5z" fill="#39c"/><path d="m8.2 15.5c-.1.7.6 1.2 1.2 1 .5-.2.6-.7.6-1.4z" opacity=".3"/><circle cx="7.6" cy="9.8" fill="#e5e5e5" r="2.2"/><path d="m8.2 11.4c-.2 0-.4-.1-.6-.2-.1 0-.1-.1 0-.2 0-.1.1-.1.2 0 .4.3.9.1 1 0 .2-.1.3-.3.3-.4s0-.1.1-.1.1 0 .1.1c0 .2-.1.5-.4.7-.3 0-.5.1-.7.1z" opacity=".5"/><g opacity=".5"><path d="m9 9.7h-.1l.1-.2-.2-.1-.1.2-.1-.1-.1.2.1.1v.1l.2.1v-.1h.2z"/><path d="m7.6 9.9-.2-.1v.1h-.1l-.1.2h.1v.2h.2v-.1h.1l.1-.2h-.1z"/></g><ellipse cx="7.3" cy="8.7" fill="#825012" rx="3.4" ry="1.2" transform="matrix(.9767 -.2146 .2146 .9767 -1.6978 1.7742)"/><path d="m9.5 8c-.1-.3-1.7-1.8-1.8-1.9-.2-.2-.6-.3-1.2-.1-.6.1-1.1.4-1 .6 0 0-.3 2.2-.3 2.3.1.4 1.1.5 2.3.3s2-.8 2-1.2z" fill="#825012"/></svg>