<svg viewBox="0 0 64 32" xmlns="http://www.w3.org/2000/svg"><path d="m5.9 19 4.1-2.1c.7-.4.7-1.4 0-1.8l-4.1-2.1-5.9 3z" fill="#9c3"/><path d="m50.3 16.9-24.2 12.1 5.9 3 32-16-32-16-5.9 3 24.3 12.1c.7.4.7 1.4-.1 1.8z" fill="#9c3"/><path d="m5.9 19 20.2 10 24.3-12.1c.7-.4.7-1.4 0-1.8l-24.3-12.1-20.2 10 4.1 2.1c.7.4.7 1.4 0 1.8z" fill="#baa794"/><path d="m5.9 19 4.1-2.1c.7-.4.7-1.4 0-1.8l-4.1-2.1-5.9 3z" fill="#9c3"/><path d="m50.3 16.9-24.2 12.1 5.9 3 32-16-32-16-5.9 3 24.3 12.1c.7.4.7 1.4-.1 1.8z" fill="#9c3"/><path d="m5.9 19 20.2 10 24.3-12.1c.7-.4.7-1.4 0-1.8l-24.3-12.1-20.2 10 4.1 2.1c.7.4.7 1.4 0 1.8z" fill="#baa794"/><path d="m5.9 19 20.2 10 24.3-12.1c.7-.4.7-1.4 0-1.8l-24.3-12.1-20.2 10 4.1 2.1c.7.4.7 1.4 0 1.8z" opacity=".15"/><path d="m5.9 19 1.1.6 5.3-2.6c.7-.4.7-1.4 0-1.8l-5.3-2.6-1.1.4 4.1 2.1c.7.4.7 1.4 0 1.8z" opacity=".15"/><path d="m48.1 15.1c.7.4.7 1.4 0 1.8l-23.2 11.6 1.1.6 24.3-12.1c.7-.4.7-1.4 0-1.8l-24.2-12.2-1.1.6z" opacity=".15"/><g fill="#baa794"><path d="m24 10-6-3 6-3 2 1-4 2 4 2z"/><path d="m16 8-8 4 2 1 8-4z"/><path d="m8 20 4-2 6 3-4 2z"/><path d="m16 24 4-2 4 2 2-1 4 2-6 3z"/><path d="m24 22 4-2-8-4-4 2z"/><path d="m14 17 6-3-4-2-4 2 2 1-2 1z"/><path d="m18 11 2-1 8 4-4 2-2-1 2-1z"/><path d="m28 22 4 2 8-4-4-2z"/><path d="m26 11 4-2-4-2 2-1 8 4-6 3z"/><path d="m30 19 8-4-4-2-8 4z"/><path d="m36 12 2-1 10 5-6 3-4-2 4-2z"/></g></svg>