<svg viewBox="0 0 128 88" xmlns="http://www.w3.org/2000/svg"><path d="m0 50 16-24 16 40v22l-32-16z" fill="#e5e5e5"/><path d="m0 72 2 1v-26l-2 3z" fill="#fff"/><path d="m30 87 2 1v-22l-2-5z" fill="#fff"/><path d="m30 87-28-14v-1l28 14z" opacity=".3"/><path d="m21 58.5-10-5v-12l10 5z" fill="#fff"/><path d="m12 53 8 4v-10l-8-4z" fill="#656565"/><path d="m20 55v-8l-8-4z" opacity=".15"/><path d="m12 46 8 4v1l-8-4z" fill="#fff"/><path d="m20 48-8-4v-1l8 4z" opacity=".15"/><g fill="#fff"><path d="m14 43 1 .5v11l-1-.5z"/><path d="m17 44.5 1 .5v11l-1-.5z"/><path d="m15 73.5-10-5v-12l10 5z"/></g><path d="m6 68 8 4v-10l-8-4z" fill="#656565"/><path d="m14 70v-8l-8-4z" opacity=".15"/><path d="m6 61 8 4v1l-8-4z" fill="#fff"/><path d="m14 63-8-4v-1l8 4z" opacity=".15"/><path d="m8 58 1 .5v11l-1-.5z" fill="#fff"/><path d="m11 59.5 1 .5v11l-1-.5z" fill="#fff"/><path d="m27 79.5-10-5v-12l10 5z" fill="#fff"/><path d="m18 74 8 4v-10l-8-4z" fill="#656565"/><path d="m26 76v-8l-8-4z" opacity=".15"/><path d="m18 67 8 4v1l-8-4z" fill="#fff"/><path d="m26 69-8-4v-1l8 4z" opacity=".15"/><path d="m20 64 1 .5v11l-1-.5z" fill="#fff"/><path d="m23 65.5 1 .5v11l-1-.5z" fill="#fff"/><path d="m0 50 16-24 16 40v22l-32-16z" opacity=".11"/><path d="m32 66 32-16v22l-32 16z" fill="#e5e5e5"/><path d="m32 88 2-1v-22l-2 1z" fill="#fff"/><path d="m62 73 2-1v-22l-2 1z" fill="#fff"/><path d="m62 73-28 14v-1l28-14z" opacity=".3"/><path d="m46 75-7 3.5v-12l7-3.5z" fill="#fff"/><path d="m40 77 5-2.5v-10l-5 2.5z" fill="#656565"/><path d="m45 72.5v-8l-5 2.5z" opacity=".15"/><path d="m40 70 5-2.5v1l-5 2.5z" fill="#fff"/><path d="m45 65.5-5 2.5v-1l5-2.5z" opacity=".15"/><path d="m42 65 1-.5v11l-1 .5z" fill="#fff"/><path d="m59 56.5-9 4.5v17l9-4.5z" fill="#fff"/><path d="m58 74-7 3.5v-16l7-3.5z" fill="#762c07"/><path d="m52 76v-15l-1 .5v16l7-3.5v-1z" opacity=".3"/><path d="m54 64-2 1v-1l2-1z" opacity=".3"/><path d="m57 62.5-2 1v-1l2-1z" opacity=".3"/><path d="m54 68-2 1v-1l2-1z" opacity=".3"/><path d="m57 66.5-2 1v-1l2-1z" opacity=".3"/><path d="m54 72-2 1v-1l2-1z" opacity=".3"/><path d="m57 70.5-2 1v-1l2-1z" opacity=".3"/><path d="m32 66 32-16v22l-32 16z" opacity=".29"/><path d="m64 50 32 16v22l-32-16z" fill="#e5e5e5"/><path d="m64 72 2 1v-22l-2-1z" fill="#fff"/><path d="m94 87 2 1v-22l-2-1z" fill="#fff"/><path d="m94 87-28-14v-1l28 14z" opacity=".3"/><path d="m78 73-7-3.5v-12l7 3.5z" fill="#fff"/><path d="m72 69 5 2.5v-10l-5-2.5z" fill="#656565"/><path d="m77 69.5v-8l-5-2.5z" opacity=".15"/><path d="m72 62 5 2.5v1l-5-2.5z" fill="#fff"/><path d="m77 62.5-5-2.5v-1l5 2.5z" opacity=".15"/><path d="m74 59 1 .5v11l-1-.5z" fill="#fff"/><path d="m89 78.5-7-3.5v-12l7 3.5z" fill="#fff"/><path d="m83 74.5 5 2.5v-10l-5-2.5z" fill="#656565"/><path d="m88 75v-8l-5-2.5z" opacity=".15"/><path d="m83 67.5 5 2.5v1l-5-2.5z" fill="#fff"/><path d="m88 68-5-2.5v-1l5 2.5z" opacity=".15"/><path d="m85 64.5 1 .5v11l-1-.5z" fill="#fff"/><path d="m64 50 32 16v22l-32-16z" opacity=".11"/><path d="m96 66 16-40 16 24v22l-32 16z" fill="#e5e5e5"/><path d="m96 88 2-1v-26l-2 5z" fill="#fff"/><path d="m126 73 2-1v-22l-2-3z" fill="#fff"/><path d="m126 73-28 14v-1l28-14z" opacity=".3"/><path d="m96 66 16-40 16 24v22l-32 16z" opacity=".29"/><path d="m32 66 32-16v-48l-48 24z" fill="#2d3134"/><path d="m32 66 32-16v-48l-48 24z" opacity=".39"/><path d="m64 4-47.3 23.8-.7-1.8 48-24z" fill="#fff" opacity=".2"/><path d="m32 66-16-40-16 24h1l15-23 15 39z" fill="#2d3134"/><path d="m96 66-32-16v-48l48 24z" fill="#2d3134"/><path d="m96 66-32-16v-48l48 24z" opacity=".06"/><path d="m64 4 46.9 23.6 1.1-1.6-48-24z" fill="#fff" opacity=".2"/><path d="m96 66 16-40 16 24h-1l-15-23-15 39z" fill="#2d3134"/><path d="m96 66 16-40 16 24h-1l-15-23-15 39z" opacity=".29"/><path d="m118 79-8 4v-60l8-4z" fill="#999"/><path d="m118 79-8 4v-60l8-4z" opacity=".29"/><path d="m108 82 2 1v-60l-6-3v14l4 2z" fill="#999"/><path d="m108 82 2 1v-60l-6-3v14l4 2z" opacity=".11"/><path d="m104 20 6 3 8-4-6-3z" fill="#999"/><path d="m116 19-4 2-2 1-4-2 6-3z" fill="#999"/><path d="m116 19-4 2v-4z" opacity=".11"/><path d="m112 21-2 1-4-2 6-3z" opacity=".29"/><path d="m32 66-16-40-16 24h1l15-23 15 39z" opacity=".11"/></svg>