<svg viewBox="0 0 144 104" xmlns="http://www.w3.org/2000/svg"><path d="m64 104 80-40-64-31-80 40z" opacity=".2"/><path d="m80 33-78 39v-16l78-39z" fill="#656565"/><path d="m80 33-78 39v-16l78-39z" opacity=".29"/><path d="m0 40v32l20 10v-24l24 12v24l20 10v-32z" fill="#656565"/><path d="m32 40h-32v24l20 10v-16l24 12v16l20 10v-24z" fill="#e5e5e5"/><path d="m52 98-1-.5v-38l1 1.5z" opacity=".15"/><path d="m49 96.5-1-.5v-40l1 1.5z" opacity=".15"/><path d="m58 101-1-.5v-35.4l1 1.5z" opacity=".15"/><path d="m55 99.5-1-.5v-36.7l1 1.5z" opacity=".15"/><path d="m61 102.5-1-.5v-33.7l1 1.2z" opacity=".15"/><path d="m46 95-1-.5v-41.1l1 1.1z" opacity=".15"/><path d="m19 81.5-1-.5v-40.4l1-.1z" opacity=".15"/><path d="m16 80-1-.5v-38.9l1-.2z" opacity=".15"/><path d="m25 60.5-1-.5v-19.4h1z" opacity=".15"/><path d="m22 59-1-.5v-18.1h1z" opacity=".15"/><path d="m28 62-1-.5v-20.8h1z" opacity=".15"/><path d="m40 68-1-.5v-19.6l1 1z" opacity=".15"/><path d="m43 69.5-1-.5v-18.6l1 1z" opacity=".15"/><path d="m37 66.5-1-.5v-21.6l1 .9z" opacity=".15"/><path d="m34 65-1-.5v-23.2l1 1z" opacity=".15"/><path d="m31 63.5-1-.5v-22.2h1z" opacity=".15"/><path d="m13 78.5-1-.5v-37.2l1-.3z" opacity=".15"/><path d="m10 77-1-.5v-36l1-.1z" opacity=".15"/><path d="m7 75.5-1-.5v-34.4l1-.1z" opacity=".15"/><path d="m4 74-1-.5v-32.4l1-.1z" opacity=".15"/><g fill="#fff"><path d="m62 71 2 1v32l-2-1z"/><path d="m2 73-2-1v-32l2 1z"/><path d="m32 40h-32v1h32l32 32v-1z"/></g><path d="m32 40h-32v32l20 10v-24l24 12v24l20 10v-32z" opacity=".11"/><path d="m112 0h-32l-80 40h32l32 32 80-40z" fill="#2d3134"/><path d="m144 64-80 40v-16l80-40z" fill="#656565"/><path d="m144 55.8-80 40v-23.8l80-40z" fill="#e5e5e5"/><path d="m66 103-2 1v-32l2-1z" fill="#fff"/><path d="m144 64-2 1v-32l2-1z" fill="#fff"/><path d="m74 99-1 .5v-32l1-.5z" opacity=".15"/><path d="m68 102-1 .5v-32l1-.5z" opacity=".15"/><path d="m71 100.5-1 .5v-32l1-.5z" opacity=".15"/><path d="m80 96-1 .5v-32l1-.5z" opacity=".15"/><path d="m77 97.5-1 .5v-32l1-.5z" opacity=".15"/><path d="m119 76.5-1 .5v-32l1-.5z" opacity=".15"/><path d="m116 78-1 .5v-32l1-.5z" opacity=".15"/><path d="m113 79.5-1 .5v-32l1-.5z" opacity=".15"/><path d="m110 81-1 .5v-32l1-.5z" opacity=".15"/><path d="m107 82.5-1 .5v-32l1-.5z" opacity=".15"/><path d="m104 84-1 .5v-32l1-.5z" opacity=".15"/><path d="m134 69-1 .5v-32l1-.5z" opacity=".15"/><path d="m140 66-1 .5v-32l1-.5z" opacity=".15"/><path d="m137 67.5-1 .5v-32l1-.5z" opacity=".15"/><path d="m131 70.5-1 .5v-32l1-.5z" opacity=".15"/><path d="m128 72-1 .5v-32l1-.5z" opacity=".15"/><path d="m125 73.5-1 .5v-32l1-.5z" opacity=".15"/><path d="m122 75-1 .5v-32l1-.5z" opacity=".15"/><path d="m101 85.5-1 .5v-32l1-.5z" opacity=".15"/><path d="m98 87-1 .5v-32l1-.5z" opacity=".15"/><path d="m89 91.5-1 .5v-32l1-.5z" opacity=".15"/><path d="m95 88.5-1 .5v-32l1-.5z" opacity=".15"/><path d="m92 90-1 .5v-32l1-.5z" opacity=".15"/><path d="m86 93-1 .5v-32l1-.5z" opacity=".15"/><path d="m83 94.5-1 .5v-32l1-.5z" opacity=".15"/><path d="m64 72v32l80-40v-32z" opacity=".29"/><path d="m64 72-32-32 80-40 32 32z" opacity=".39"/><path d="m0 40h32l80-40h-32z" opacity=".06"/></svg>