<svg viewBox="0 0 112 80" xmlns="http://www.w3.org/2000/svg"><path d="m0 64 32 16 80-40-32-16z" opacity=".2"/><path d="m2 65 2-1v-22l-2 1z" fill="#fff"/><path d="m2 65 2-1v-22l-2 1z" opacity=".29"/><path d="m52 70-2-1v-22l2 1z" fill="#fff"/><path d="m52 70-2-1v-22l2 1z" opacity=".11"/><path d="m71 60.5-2-1v-22l2 1z" fill="#fff"/><path d="m71 60.5-2-1v-22l2 1z" opacity=".11"/><path d="m90 51-2-1v-22l2 1z" fill="#fff"/><path d="m90 51-2-1v-22l2 1z" opacity=".11"/><path d="m110 41-2-1v-22l2 1z" fill="#fff"/><path d="m110 41-2-1v-22l2 1z" opacity=".11"/><path d="m0 40 32 8v8l-1 4.5-4-6-22-11-4 2z" fill="#762c07"/><g fill="#fff"><path d="m0 64 2 1v-24l-2-1z"/><path d="m30 79 2 1v-32h-2z"/><path d="m0 40 32 8v1l-32-8z"/></g><path d="m0 40v24l2 1v-20l3-1.5 22 11 3 4.5v20l2 1v-32z" opacity=".11"/><path d="m91 18.5 20-10v13l-4-2-12 6-4 6z" fill="#762c07"/><path d="m72 28 19-9.5v13l-4-2-11 5.5-4 6z" fill="#762c07"/><path d="m92 50-2 1v-32l2-1z" fill="#fff"/><path d="m112 40-2 1v-32l2-1z" fill="#fff"/><path d="m53 37.5 19-9.5v13l-4-2-11 5.5-4 6z" fill="#762c07"/><path d="m73 59.5-2 1v-32l2-1z" fill="#fff"/><path d="m33 47.5 20-10v13l-4-2-12 6-4 6z" fill="#762c07"/><path d="m34 79-2 1v-32l2-1z" fill="#fff"/><path d="m54 69-2 1v-32l2-1z" fill="#fff"/><path d="m32 48v32l2-1v-20l3-4.5 12-6 3 1.5v20l2-1v-20l3-4.5 11-5.5 3 1.5v20l2-1v-20l3-4.5 11-5.5 3 1.5v20l2-1v-20l3-4.5 12-6 3 1.5v20l2-1v-32z" opacity=".29"/><path d="m0 40 32 8 80-40-32-8z" fill="#2d3134"/><path d="m0 40 32 8 80-40-32-8z" fill="#2d3134"/><path d="m0 40 32 8 80-40-32-8z" opacity=".06"/></svg>