<svg viewBox="0 0 144 224" xmlns="http://www.w3.org/2000/svg"><ellipse cx="88" cy="212" opacity=".2" rx="24" ry="12"/><path d="m88.1 86c-2.2 0-4 .9-4 2l-4 124c0 2.2 3.6 4 8 4s8-1.8 8-4l-4-124c0-1.1-1.8-2-4-2z" fill="#e5e5e5"/><path d="m88.1 90c-2.2 0-4-.9-4-2l-4 124c0 2.2 3.6 4 8 4s8-1.8 8-4l-4-124c0 1.1-1.8 2-4 2z" opacity=".2"/><path d="m94.1 75h-4l-16 8v8l8 4 20-10v-6z" fill="#e5e5e5"/><path d="m102.1 85-20 10v-8l20-8z" fill="#e5e5e5"/><path d="m102.1 85-20 10v-8l16-8h4z" opacity=".39"/><path d="m82.1 95-8-4v-8l8 4z" fill="#e5e5e5"/><path d="m82.1 95-8-4v-8l8 4z" opacity=".06"/><g fill="#e5e5e5"><path d="m79.5 86.5-3-1.5v-81l2 1 6 60v15z"/><path d="m79.5 91.5 1.5-1.8 63 68.4-1 1.2-45.9-40.3-13-14z"/><path d="m75.1 86.7 1.5 3.4-70.1 5.4-1-2.2 46.3-10.5 13-1z"/></g><path d="m79.5 86.5-3-1.5v-81l2 1 6 60v15z" opacity=".05"/><path d="m79.5 91.5 1.5-1.8 63 68.4-1 1.2-45.9-40.3-13-14z" opacity=".05"/><path d="m75.1 86.7 1.5 3.4-70.1 5.4-1-2.2 46.3-10.5 13-1z" opacity=".05"/><path d="m79.5 86.5-3-1.5v-81l2 1 6 60v15z" opacity=".06"/><path d="m79.5 91.5 1.5-1.8 63 68.4-1 1.2-45.9-40.3-13-14z" opacity=".06"/><path d="m75.1 86.7 1.5 3.4-70.1 5.4-1-2.2 46.3-10.5 13-1z" opacity=".06"/><path d="m81.1 90c0 1.7-1.3 2.3-3 1.5s-3-2.8-3-4.5 1.3-2.3 3-1.5c1.7.9 3 2.9 3 4.5z" fill="#2d3134"/><path d="m79.1 90.9c0 1.7-1.3 2.3-3 1.5s-3-2.8-3-4.5 1.3-2.3 3-1.5 3 2.8 3 4.5z" fill="#e5e5e5"/><path d="m79.1 90.9c0 1.7-1.3 2.3-3 1.5s-3-2.8-3-4.5 1.3-2.3 3-1.5 3 2.8 3 4.5z" opacity=".06"/></svg>