<svg viewBox="0 0 160 240" xmlns="http://www.w3.org/2000/svg"><path d="m57.4 230.4c9.3 4.6 20.8 1.4 31.7-3.5s26-13.7 23.2-17c-2.7-3.3-31.2 1.7-41 5.6-9.7 3.9-21.8 11-13.9 14.9z" opacity=".2"/><path d="m60.7 113.3s-1.2 10.2 1 13.8c2.2 3.7 5.8 3.7 5.8 3.7l-4.2 23.2s14 5.5 18.8 7.8 11.4 7.1 12 8.1-2.5 6.1-4 8-2.4 1-3.5.6c-2.5-.9-13.2-3.5-18.7-5.7-5.5-2.3-11.3-3.1-15.3-3.6s-6.7-3-6.9-10.2c-.2-7.1.6-26.6 2.4-34.6 1-4.3 3-16.2 3-16.2z" fill="#28896d"/><path d="m60.7 113.3s-1.2 10.2 1 13.8c2.2 3.7 5.8 3.7 5.8 3.7l-4.2 23.2s14 5.5 18.8 7.8 11.4 7.1 12 8.1-2.5 6.1-4 8-2.4 1-3.5.6c-2.5-.9-13.2-3.5-18.7-5.7-5.5-2.3-11.3-3.1-15.3-3.6s-6.7-3-6.9-10.2c-.2-7.1.6-26.6 2.4-34.6 1-4.3 3-16.2 3-16.2z" opacity=".2"/><path d="m79.7 43s3.9.3 5.9 5.2-2.6 15.6-2.6 15.6-9.2-11-8.1-14.1 4.8-6.7 4.8-6.7z" fill="#762c07"/><path d="m90.3 166.3c1.7.9 8.4 3 8.7 4.6.2 1.6-1.6 7.5-2.2 8.4-.6 1-2 .1-2.1 2.2-.1 2.2-.3 5.1-1 6.6-.6 1.5-4.8 7.1-5.7 7.1s-.8-9.6-1.1-11.4-.9-3.2-1.9-5.6c3.5-4 5.3-11.9 5.3-11.9z" fill="#825012"/><path d="m97.1 169.2c-.5 4.1-1.1 7.8-2.3 9.8-1.2 2.1-1.4 6.1-1.7 7.6s-3.7 5.8-5.1 6.9c-.2.1-.4.4-.5.8.1.6.3 1 .5 1 1 0 5.1-5.6 5.7-7.1s.9-4.4 1-6.6 1.4-1.3 2.1-2.2c.6-1 2.4-6.8 2.2-8.4-.1-.6-.9-1.2-1.9-1.8z" opacity=".5"/><path d="m48 79s-6.7 7.4-8.7 8.9c-1.9 1.5-3 2.7-3 2.7s-3.8-1.8-5.8-1c-2.1.9-5.2 3.5-4.9 4.4.4 1.2 3.9-.6 3.9-.6s-2.2 2.9-2.5 4.1-1.9 4.7-1.4 6.1 2.8 3.1 3.9 2.2c1.1-1 5.7-3.8 7.2-5.4s.9-3.5 1.8-4.1c1-.6 11.6-7.1 12.6-7.9s3.7-6.6 3.7-6.6z" fill="#fbd7c7"/><path d="m59.6 50.6c-2.1.6-5.6 3.5-5.7 6.2s.8 5.9-.4 8.7c-1.2 2.7-5.7 9.8-6.1 12.6-.4 2.7.5 4.3 1.5 6s3.4 4.5 3.1 8-.4 13.8-.1 15.4c.4 1.6 12.8 3.5 17.1 2.3s11.1-4.8 11.1-4.8.1-9.2 1.4-13.1c1.2-4 2.1-6 2.1-6s6.6-18.9 3.8-21.6c-2.7-2.7-3.5-3.7-5.3-5.6-1.7-1.9-3.6-4.7-8.1-6.4s-14.4-1.7-14.4-1.7z" fill="#f90"/><path d="m59.3 52 3.6 1.4s-4.7 10.7-5.6 13.4c-1 2.7-6.2 10.9-6.2 10.9l13.7 4.5s4.9-10.8 7.1-14.2c3.8-5.7 10.1-10.2 10.1-10.2l2.5 3s-6 4-8.4 7.7c-4 6.2-6 11.9-6.4 15.8s-.2 12.7.8 14.3 11.3 3.2 11.3 3.2 4.8 8.5 6.8 15.5c2.1 6.9-.3 23.6-1.8 30.8s-3.2 14.2-2.9 17.7c.3 3.6 5.1 24.2 5.6 32.6s-1.2 18.2-2.2 19c-1 .9-7.4-.5-9-.4s-3.1-.1-3.2-1.1.9-10.4.5-16.3c-.3-6-4.2-15.9-5.7-20.7s-4.3-18.7-4.1-26.6 0-21.7 0-21.7-4.4-1.1-5.8-6.7-2.7-9.7-3.7-10.8-5.9-1.9-5.3-4.4c.4-1.5-.1-16.6-.4-18.6-.3-2.1-4.1-9.2-3.9-11.9.2-3.7 6.4-11.3 7.8-15.1s4.8-11.1 4.8-11.1z" fill="#28896d"/><path d="m56.6 36.4c-1.2 3.4-1.1 10.8.4 14.9 1.5 4.2 3.5 6.3 4.7 6.4s2.5-.5 2.5-.5.6 1.1.5 2.6c-.2 3.1-1 7.8-.5 8.2.6.6 8.2-4.3 10.6-6.9 1.9-2 3.2-5.4 3-5.8s-2.3-3.5-2.2-4.8 2.4-4.1 2.4-5.3.9-12.1-7.2-13.6-12.7.6-14.2 4.8z" fill="#fbd7c7"/><path d="m55.4 38.7c.2 1.3 1.6 1.4 4.3 2.2 2.7.9 5.7 5 7.8 5.3s4.8-.7 6.7-1.4 3 .2 3.3.9c.3.8 3.5-6.9.8-12.1-3-5.6-10.7-8.2-17.1-4.3-5.8 3.7-5.9 8.3-5.8 9.4z" fill="#762c07"/><path d="m79.2 41.6c1.4.3 1.7 2 .8 3.7s-1.2 2.6-2.2 2.2-.1-1.4.3-3.2c.4-1.7.3-2.8 1.1-2.7z" fill="#f90"/><path d="m74.2 212.6c-1.3 7.1-9.1 10-10.3 10.8-1.2.9-4.1 2.8-3.2 5.5s8.4 3.1 11.6 2.3c2.3-.6 6.8-4.3 8-4.8 1.2-.4 1.4.2 1.4.2s6.3-2 6.8-3 1.1-10.2 1.1-10.2l-7.5.5z" fill="#825012"/><path d="m82.8 224c-3 .9-8.4 4.7-11.9 5.6-2.8.7-8.6-.1-10.3-2.5-.2.6-.2 1.2 0 1.9.9 2.7 8.4 3.1 11.6 2.3 2.3-.6 6.8-4.3 8-4.8 1.2-.4 1.4.2 1.4.2s6.3-2 6.8-3c.1-.2.3-1 .4-2-2.3 1-4.7 1.9-6 2.3z" opacity=".5"/><path d="m77.7 93.5c0-6.7-11.4-12.1-25.5-12.1s-25.5 5.4-25.5 12.1c0 4.8 5.7 28 5.7 30.2 0 5.2 8.9 9.4 19.8 9.4s19.8-4.2 19.8-9.4c0-2.2 5.7-25.5 5.7-30.2z" fill="#825012"/><ellipse cx="52.2" cy="93.9" opacity=".2" rx="23.3" ry="11"/><path d="m74.8 96.7c-.1-4-3.4-7.1-7.4-7.1-.3 0-.7 0-1 .1-.6-3.4-3.6-6.1-7.3-6.1-2.8 0-5.2 1.5-6.5 3.8-1.3-2.1-3.6-3.5-6.3-3.5-3.4 0-6.2 2.3-7.1 5.4-.6-.1-1.2-.2-1.8-.2-4.1 0-7.4 3.3-7.4 7.4 0 .3 0 .7.1 1 1.7 2.5 5.3 4.6 9.9 5.9.1 0 .4 0 .5.1 3.4.9 7.4 1.5 11.7 1.5 4 0 7.9-.5 11.2-1.3.1-.1.4-.2.5-.1 5.3-1.6 9.3-4 10.9-6.9z" fill="#cc291f"/><g fill="#fff"><circle cx="45.4" cy="96.8" opacity=".2" r="3.1"/><circle cx="58.2" cy="87.8" opacity=".2" r="3.1"/><circle cx="55.3" cy="96.7" opacity=".2" r="3.1"/><circle cx="66" cy="95.1" opacity=".2" r="3.1"/><circle cx="46.1" cy="88.7" opacity=".2" r="3.1"/><circle cx="35.2" cy="94.5" opacity=".2" r="3.1"/></g><path d="m78.4 100.5s-5.2 4.1-6.8 5.1c-1.6 1.1-3 3-4.8 3.1-1.7.2-2.8-2.7-4.7-2.5-1.9.1-5.5-.5-6.9-.5-1.2 0-3.4.2-3 1 .1.1.2.3.4.5 1.6 1.2 3.5 1.2 4.4 1.4 1 .2 2.1.5 2.1.5s-2.9 1-5.3 1.8-6.7.1-7.8.3c-.8.2-1.5 3.6 1.2 5s9 1.2 10.8.9c2.6-.4 7.7-1.4 9.1-2.2 1.5-.8 5.8-2.9 8-3.8 2.2-1 9.8-4.9 9.8-4.9z" fill="#fbd7c7"/><path d="m79.5 73.7c.4 3 3.9 11.5 5 13.7 1.2 2.2 2.8 6 2.8 6s-4.6 2.2-6.3 3.6-3.8 3.5-3.8 3.5 1.8 3.3 2.7 5 2.2 2.5 2.2 2.5 8.1-4 11.3-6.6c3.2-2.7 5.1-3.8 5.1-6.6s-3.5-9.9-4.3-13-.9-10.1-3-14c-1.6-3-3.1-4.8-5.5-5.3-3.3-.7-6.2 11.2-6.2 11.2z" fill="#f90"/></svg>