<svg viewBox="0 0 128 64" xmlns="http://www.w3.org/2000/svg"><path d="m64 0 64 32-64 32-64-32z" fill="#825012"/><path d="m64 0 64 32-64 32-64-32z" fill="#825012"/><g fill="#fff"><path d="m114 25h-2l-2 2-3 2-3 1-1 1-3 1-2 1h-2l-2 2-3 2-3 1-1 1-3 1-2 1h-2l-2 2-3 2-3 1-1 1-3 1-2 1h-2l-2 2-3 2-3 1-1 1-3 1-2 1 10 5 2-1v-1l3-.5 1-1.5 3-.5 2-1.5 3-1 2-1 2-1v-1l3-.5 1-1.5 3-.5 2-1.5 3-1 2-1 2-1v-1l3-.5 1-1.5 3-.5 2-1.5 3-1 2-1 2-1v-1l3-.5 1-1.5 3-.5 2-1.5 3-1 2-1z" opacity=".1"/><path d="m18 34 3-.5 2-1.5 3-1 2-1 2-1v-1l3-.5 1-1.5 3-.5 2-1.5 3-1 2-1 2-1v-1l3-.5 1-1.5 3-.5 2-1.5 3-1 2-1 2-1v-1l3-.5 1-1.5 3-.5 2-1.5 3-1 2-1-10-5h-2l-2 2-3 2-3 1-1 1-3 1-2 1h-2l-2 2-3 2-3 1-1 1-3 1-2 1h-2l-2 2-3 2-3 1-1 1-3 1-2 1h-2l-2 2-3 2-3 1-1 1-3 1-2 1 10 5 2-1v-1l3-.5z" opacity=".1"/><path d="m34 42 3-.5 2-1.5 3-1 2-1 2-1v-1l3-.5 1-1.5 3-.5 2-1.5 3-1 2-1 2-1v-1l3-.5 1-1.5 3-.5 2-1.5 3-1 2-1 2-1v-1l3-.5 1-1.5 3-.5 2-1.5 3-1 2-1-10-5h-2l-2 2-3 2-3 1-1 1-3 1-2 1h-2l-2 2-3 2-3 1-1 1-3 1-2 1h-2l-2 2-3 2-3 1-1 1-3 1-2 1h-2l-2 2-3 2-3 1-1 1-3 1-2 1 10 5 2-1v-1l3-.5z" opacity=".1"/><path d="m50 50 3-.5 2-1.5 3-1 2-1 2-1v-1l3-.5 1-1.5 3-.5 2-1.5 3-1 2-1 2-1v-1l3-.5 1-1.5 3-.5 2-1.5 3-1 2-1 2-1v-1l3-.5 1-1.5 3-.5 2-1.5 3-1 2-1-10-5h-2l-2 2-3 2-3 1-1 1-3 1-2 1h-2l-2 2-3 2-3 1-1 1-3 1-2 1h-2l-2 2-3 2-3 1-1 1-3 1-2 1h-2l-2 2-3 2-3 1-1 1-3 1-2 1 10 5 2-1v-1l3-.5z" opacity=".1"/><path d="m116 26-3 1-3 2-3 1.5-3 1.5-1 1-3 1-3 1-3 2-3 1.5-3 1.5-1 1-3 1-3 1-3 2-3 1.5-3 1.5-1 1-3 1-3 1-3 2-3 1.5-3 1.5-1 1-3 1 2 1 3-1 2-1.5 4-1.5 2-1.5 2-1.5 3-1 3-1 2-1.5 4-1.5 2-1.5 2-1.5 3-1 3-1 2-1.5 4-1.5 2-1.5 2-1.5 3-1 3-1 2-1.5 4-1.5 2-1.5 2-1.5 3-1z" opacity=".15"/><path d="m25 26 2-1.5 4-1.5 2-1.5 2-1.5 3-1 3-1 2-1.5 4-1.5 2-1.5 2-1.5 3-1 3-1 2-1.5 4-1.5 2-1.5 2-1.5 3-1-2-1-3 1-3 2-3 1.5-3 1.5-1 1-3 1-3 1-3 2-3 1.5-3 1.5-1 1-3 1-3 1-3 2-3 1.5-3 1.5-1 1-3 1-3 1-3 2-3 1.5-3 1.5-1 1-3 1 2 1 3-1 2-1.5 4-1.5 2-1.5 2-1.5 3-1z" opacity=".15"/><path d="m41 34 2-1.5 4-1.5 2-1.5 2-1.5 3-1 3-1 2-1.5 4-1.5 2-1.5 2-1.5 3-1 3-1 2-1.5 4-1.5 2-1.5 2-1.5 3-1-2-1-3 1-3 2-3 1.5-3 1.5-1 1-3 1-3 1-3 2-3 1.5-3 1.5-1 1-3 1-3 1-3 2-3 1.5-3 1.5-1 1-3 1-3 1-3 2-3 1.5-3 1.5-1 1-3 1 2 1 3-1 2-1.5 4-1.5 2-1.5 2-1.5 3-1z" opacity=".15"/><path d="m57 42 2-1.5 4-1.5 2-1.5 2-1.5 3-1 3-1 2-1.5 4-1.5 2-1.5 2-1.5 3-1 3-1 2-1.5 4-1.5 2-1.5 2-1.5 3-1-2-1-3 1-3 2-3 1.5-3 1.5-1 1-3 1-3 1-3 2-3 1.5-3 1.5-1 1-3 1-3 1-3 2-3 1.5-3 1.5-1 1-3 1-3 1-3 2-3 1.5-3 1.5-1 1-3 1 2 1 3-1 2-1.5 4-1.5 2-1.5 2-1.5 3-1z" opacity=".15"/></g></svg>