<svg viewBox="0 0 160 160" xmlns="http://www.w3.org/2000/svg"><path d="m77.8 116.2c-10.8 5.8-45.4 20.5-29.4 30.4 15 9.2 47-8.2 57.5-13.8 15.6-8.3 31.3-19.6 21.8-25.5-9.7-6.2-29.6-2.2-49.9 8.9z" opacity=".2"/><path d="m100.3 83.5c2.1 3.6 3.3 7.7 3.5 13.6.3 7.2-2.1 12.3-2.3 12.6-.4.9 7.5.3 7.9-.6.1-.2.2-3.6.2-4s-.6-1.5-.5-2.1c.1-.7.9-.8.6-2.4s-1-2.3-.7-5.6 1.7-18.9 1.7-18.9z" fill="#656565"/><path d="m102.7 106.5c-.5 1.9-1.1 3.1-1.2 3.3-.4.9 2.5 1.8 3.5 1.7 2.7-.3 4-1.4 4.4-2.3.1-.2.1-2 .2-3.2-1 1.1-5.2 2.5-6.9.5z" fill="#2d3134"/><g fill="#656565"><path d="m49.5 97.1c1.8 4.1 5.2 12.7 5 22.2s-2.2 15.5-2.2 16 7.1.2 7.5-1.2-.4-3.8-.5-5.1c-.1-1.2 1.5-.9 1.2-3.2s-1.3-6.2-1.2-10.3 1.8-17.1 1.8-17.1z"/><path d="m64.6 100.8s2.6 9.2 3.6 15.8.4 15.5.1 18.2-2.1 7.5-2.3 8.1 8.1-.6 8.4-1.4-.4-4.8-.5-5.6 1.5-.6 1.2-3.3-1.6-5.4-1-9.6 1.7-12.8 4.6-19.3 4.7-13.2 4.7-13.2z"/><path d="m105.9 79.9c2.7.7 10.6 7.9 12.3 13.9s1.6 13.5 1 17.1-2.4 6.2-2.4 6.9 8.1-.8 8.5-1.8-.4-4.6-.4-5.3 1.2-.3 1-2.5-1.7-11.4-1.3-14.4.9-7 .4-8.2-2.3-4.9-2.4-7.3-.7-9.8-.7-11.9-16 13.5-16 13.5z"/></g><path d="m53.1 132.3c-.4 1.8-.7 2.8-.7 3 0 .5 1.1 1.1 2.3 1.2s4.8-1.1 5.2-2.4c.2-.5.2-1.1.1-1.7-2.6.7-5 .7-6.9-.1z" fill="#2d3134"/><path d="m69.3 139.9c-.7-.2-1.3-.6-1.9-1-.6 2-1.2 3.8-1.4 4.1-.2.6 2.1 1.4 3.3 1.3 3-.1 4.8-1.9 5.1-2.8.1-.2.1-.7.1-1.3-1.6.3-3.4.2-5.2-.3z" fill="#2d3134"/><path d="m116.8 117.8c0 .7 2.1 1.2 3.1 1.1 2.9-.2 5-1.9 5.4-3 .1-.3.1-.9.1-1.6-1.6.9-5.7 1-6.8-1-.8 2.4-1.8 4-1.8 4.5z" fill="#2d3134"/><path d="m130.5 57.4c0-2-1.2-3.6-3-4.3.3-.6.5-1.3.5-2 0-1.6-.8-3.1-2.1-3.9.1-.4.2-.9.2-1.4 0-2.2-1.6-4.1-3.7-4.5.1-.4.1-.7.1-1.1 0-2.5-2.1-4.6-4.6-4.6-.4 0-.7 0-1 .1-.7-1.7-2.3-3-4.3-3-.6 0-1.2.1-1.7.3-.7-1.6-2.3-2.8-4.2-2.8-1.6 0-3.1.9-3.9 2.2-.7-.5-1.6-.7-2.5-.7-2 0-3.6 1.2-4.3 2.9-.6-.3-1.3-.5-2.1-.5-2.3 0-4.2 1.7-4.5 3.8-.8-.7-1.9-1.2-3-1.2-2 0-3.8 1.3-4.4 3.2-.8-.9-2.1-1.5-3.4-1.5-2.2 0-4 1.5-4.5 3.5-.7-.4-1.5-.6-2.3-.6-2.4 0-4.3 1.8-4.6 4.1-.7-.5-1.6-.8-2.6-.8-1.8 0-3.3 1-4.1 2.5-.8-.5-1.7-.9-2.7-.9-.4 0-.8.1-1.1.1-.8-1.2-2.2-2-3.8-2-.8 0-1.6.2-2.3.6-.8-1.1-2.2-1.8-3.7-1.8-2.5 0-4.6 2.1-4.6 4.6 0 .3 0 .6.1.9-1.4.8-2.3 2.3-2.3 4 0 1.5.7 2.9 1.9 3.7l-.4 1.2c-.4-.1-.9-.2-1.3-.2-2.5 0-4.6 2.1-4.6 4.6 0 .9.2 1.7.7 2.4-1.9.6-3.3 2.3-3.3 4.4 0 1.6.8 3.1 2.1 3.9-.9.8-1.4 2-1.4 3.3 0 1.9 1.2 3.6 2.9 4.3-.6.8-.9 1.7-.9 2.8 0 1.7 1 3.3 2.4 4-.2.5-.2 1-.2 1.5 0 1.6.8 3.1 2.1 3.9-.1.4-.2.8-.2 1.2 0 2.5 2.1 4.6 4.6 4.6h.4v.6c0 2.5 2.1 4.6 4.6 4.6 1.3 0 2.5-.5 3.3-1.4.8 1.4 2.3 2.4 4.1 2.4 1.7 0 3.1-.9 3.9-2.2.7.6 1.6 1 2.5 1.1.6 1.9 2.3 3.3 4.4 3.3.8 0 1.5-.2 2.1-.5.8.7 1.9 1.1 3 1.1 2 0 3.7-1.2 4.3-3 .3.1.7.1 1 .1 2.3 0 4.2-1.6 4.5-3.8 2.5-.1 4.5-2.1 4.5-4.6 0-.6-.1-1.1-.3-1.6 1.5-.7 2.5-2.2 2.5-4 .5.2 1.1.3 1.8.3 1.8 0 3.3-1 4.1-2.5.5.1.9.2 1.4.2 2.5 0 4.6-2.1 4.6-4.6 0-.1 0-.2 0-.3.6.3 1.3.4 2 .4.8 0 1.6-.2 2.3-.6.8 1.5 2.3 2.5 4.1 2.5 1.4 0 2.7-.7 3.6-1.7.8.8 2 1.3 3.2 1.3 2.4 0 4.4-1.8 4.6-4.2 2.4-.1 4.4-2.1 4.4-4.6 0-.4-.1-.8-.2-1.2 2-.5 3.5-2.3 3.5-4.5 0-1-.4-2-.9-2.8 1.4-.8 2.3-2.3 2.3-4 0-1.3-.5-2.4-1.3-3.3 1-.5 1.7-1.8 1.7-3.3z" fill="#f8ebcb"/><path d="m21.6 48c-1.4 2.6-10 19-7.5 23.1 2.8 4.6 7.7 5 13.2.2 2.1-1.8 3.9-2.6 5.3-2.7.2 0 .3 0 .5-.1 3.7-.7 6.7-3.3 8.1-6.8l4.6-12.1-11.2-8.6s-6.4 1.4-10.6-1-13 0-13 0 1.7 4.2 4.9 5.9c3.1 1.7 5.7 2.1 5.7 2.1z" fill="#656565"/><path d="m30.3 58.4s.3-2.7 2.4-3.4c2.2-.7 2.6.2 2.6.2s0 2.2-1.6 3c-1.5.7-3.4.2-3.4.2z" fill="#2d3134"/><path d="m17 69.6c1.4 0 3.2-.9 3.4-1s.2-.3.1-.4c-.1-.2-.3-.2-.4-.1-.7.4-2.9 1.2-3.8.8-1.1-.5-.9-1.6-.9-1.7 0-.2-.1-.3-.2-.4-.2 0-.3.1-.4.2-.1.6 0 1.8 1.2 2.3h.1c-.4 2.2.6 4 1.2 4.8.3.1.6.3.9.3 0-.1 0-.2-.1-.2 0 0-1.9-2.1-1.5-4.7.2.1.3.1.4.1z" fill="#2d3134"/><path d="m40.1 52.6c8-4 13.4 8.5 13.4 8.5s-5.4 3.7-9.9.7-5.5-8.2-3.5-9.2z" fill="#656565"/><path d="m47.5 44.2c0-2.5-2.1-4.6-4.6-4.6-.9 0-1.7.2-2.4.7-.7-1.6-2.3-2.7-4.2-2.7-1.2 0-2.3.5-3.2 1.3-.8-.7-1.9-1.2-3.1-1.2-2.5 0-4.6 2.1-4.6 4.6-1.2.8-2 2.2-2 3.8 0 2.5 1.9 4.5 4.4 4.6.8 1.2 2.2 2.1 3.8 2.1 1.4 0 2.6-.6 3.5-1.6.8 1 2.1 1.6 3.5 1.6.8 0 1.5-.2 2.1-.5.6.5 1.4.9 2.3.9 1.9 0 3.5-1.5 3.5-3.5 0-.7-.2-1.4-.6-1.9 1-.9 1.6-2.2 1.6-3.6z" fill="#f8ebcb"/><path d="m125.3 76.8c0-.4-.1-.8-.2-1.2 2-.5 3.5-2.3 3.5-4.5 0-1-.4-2-.9-2.8-1.2 0-4-.1-4.3 2.1-.2 1 .3 2 .7 2.8-.8.3-1.4.8-1.8 1.5-.4-.2-.8-.2-1.3-.2-1.6 0-2.9 1-3.4 2.3-.7-.8-1.7-1.4-2.9-1.4-.6 0-1.2.2-1.7.4-.6-1.3-1.9-2.1-3.3-2.1-.9 0-1.6.3-2.3.8-.6-1.2-1.8-2-3.3-2-1.3 0-2.5.7-3.1 1.7-.6-.4-1.3-.7-2.1-.7-1.2 0-2.3.6-3 1.5-.4-.2-.9-.3-1.3-.3-2 0-3.6 1.6-3.7 3.5-.3-.1-.7-.2-1.1-.2-1.7 0-3.1 1.2-3.6 2.7-.3-.1-.6-.1-.9-.1-2 0-3.7 1.7-3.7 3.7 0 .4.1.7.2 1.1-2 0-3.7 1.7-3.7 3.7 0 .8.3 1.6.8 2.2-1.7.4-2.9 1.8-2.9 3.6 0 .6.1 1.1.3 1.6-1.1.6-1.9 1.8-1.9 3.2 0 .3-1.8-.4-3-.4s-2.5.7-3.4 1.4c.1-.3.1-.5.1-.8 0-2-1.7-3.7-3.7-3.7-.2 0-.3 0-.5 0-.2-1.6-1.4-2.9-2.9-3.2.3-.5.5-1.1.5-1.8 0-2-1.7-3.7-3.7-3.7-.2 0-.4 0-.6.1.1-.3.1-.6.1-1 0-2-1.7-3.7-3.7-3.7s-3.7 1.7-3.7 3.7c0 .6.1 1.1.3 1.6-.9.5-1.6 1.4-1.8 2.4-3-.8-7 4-3.9 7.5.1.1.2 0 .4 0v.6c0 2.5 2.1 4.6 4.6 4.6 1.3 0 2.5-.5 3.3-1.4.8 1.4 2.3 2.4 4.1 2.4 1.7 0 3.1-.9 3.9-2.2.7.6 1.6 1 2.5 1.1.6 1.9 2.3 3.3 4.4 3.3.8 0 1.5-.2 2.1-.5.8.7 1.9 1.1 3 1.1 2 0 3.7-1.2 4.3-3 .3.1.7.1 1 .1 2.3 0 4.2-1.6 4.5-3.8 2.5-.1 4.5-2.1 4.5-4.6 0-.6-.1-1.1-.3-1.6 1.5-.7 2.5-2.2 2.5-4 .5.2 1.1.3 1.8.3 1.8 0 3.3-1 4.1-2.5.5.1.9.2 1.4.2 2.5 0 4.6-2.1 4.6-4.6 0-.1 0-.2 0-.3.6.3 1.3.4 2 .4.8 0 1.6-.2 2.3-.6.8 1.5 2.3 2.5 4.1 2.5 1.4 0 2.7-.7 3.6-1.7.8.8 2 1.3 3.2 1.3 2.4 0 4.4-1.8 4.6-4.2 2.3.2 4.3-1.8 4.3-4.2z" opacity=".15"/></svg>