<svg viewBox="0 0 80 88" xmlns="http://www.w3.org/2000/svg"><path d="m80 72-32 16v-27l32-16z" fill="#e5e5e5"/><path d="m48 64 32-16v-16l-32 16z" fill="#762c07"/><path d="m79 48.5-30 15v-2l30-15z" opacity=".4"/><path d="m50 47-2 1v40l2-1z" fill="#fff"/><path d="m78 33 2-1v40l-2 1z" fill="#fff"/><path d="m78 73-28 14v-1l28-14z" opacity=".3"/><path d="m57 59.5-1 .5v-16l1-.5z" opacity=".15"/><path d="m52 62-1 .5v-16l1-.5z" opacity=".15"/><path d="m62 57-1 .5v-16l1-.5z" opacity=".15"/><path d="m72 52-1 .5v-16l1-.5z" opacity=".15"/><path d="m77 49.5-1 .5v-16l1-.5z" opacity=".15"/><path d="m67 54.5-1 .5v-16l1-.5z" opacity=".15"/><path d="m67 49.5-6 3v-8l6-3z" fill="#fff"/><path d="m66 49-4 2v-6l4-2z" fill="#656565"/><path d="m66 44-4 2v-1l4-2z" opacity=".15"/><path d="m48 48v40l32-16v-40z" opacity=".29"/><path d="m48 88-32-16v-27l32 16z" fill="#e5e5e5"/><path d="m16 48 32 16v-16l-16-24-16 8z" fill="#762c07"/><path d="m48 64-30-15v-2l30 15z" opacity=".4"/><path d="m18 31.9h-2v40l2 1z" fill="#fff"/><path d="m46 46 2 2v40l-2-1z" fill="#fff"/><path d="m46 87-28-14v-1l28 14z" opacity=".3"/><path d="m37 64.5-10-5v17l10 5z" fill="#fff"/><path d="m36 81-8-4v-16l8 4z" fill="#762c07"/><path d="m29 76.5v-15l-1-.5v16l8 4v-1z" opacity=".3"/><path d="m32 67-2-1v-1l2 1z" opacity=".3"/><path d="m35 68.5-2-1v-1l2 1z" opacity=".3"/><path d="m32 71-2-1v-1l2 1z" opacity=".3"/><path d="m35 72.5-2-1v-1l2 1z" opacity=".3"/><path d="m32 75-2-1v-1l2 1z" opacity=".3"/><path d="m35 76.5-2-1v-1l2 1z" opacity=".3"/><path d="m25 52-1-.5v-23l1 .5z" opacity=".15"/><path d="m20 49.5-1-.5v-18l1 .5z" opacity=".15"/><path d="m30 54.5-1-.5v-28l1 .5z" opacity=".15"/><path d="m40 59.5-1-.5v-23l1 .5z" opacity=".15"/><path d="m45 62-1-.5v-18l1 .5z" opacity=".15"/><path d="m35 57-1-.5v-28l1 .5z" opacity=".15"/><path d="m32 24-16 8v2l16-8 16 24v-2z" fill="#fff"/><path d="m35 44c0 1.7-1.3 2.3-3 1.5s-3-2.8-3-4.5 1.3-2.3 3-1.5 3 2.8 3 4.5z" fill="#e5e5e5"/><path d="m32 24-16 8v40l32 16v-40z" opacity=".11"/><path d="m48 48-16-24 32-16 16 24z" fill="#2d3134"/><path d="m48 48-16-24 32-16 16 24z" opacity=".39"/><path d="m16 32 16-8 32-16-16 8z" fill="#2d3134"/><path d="m16 32 16-8 32-16-16 8z" opacity=".06"/><path d="m21.2 46.1-5.7-2.8-9.9 5 4.2 6.4 32.5-16.3 5.7 2.8 9.9-5-4.2-6.4zm-1 .5-2.5 1.3-.7-1 1.8-.9zm-9.6 3.4 1.4-.7.7 1.1-1.4.7zm2.1-1 1.4-.7.7 1.1-1.3.6zm2.2-1.1 1.4-.7.7 1.1-1.4.7zm1.1-3.4 1.4.7-1.1.6-.7-1.1zm-1.1.6.7 1.1-1.4.7-.7-1.1zm-2.2 1 .7 1.1-1.4.7-.7-1.1zm-2.1 1.1.7 1.1-1.4.7-.7-1.1zm-3.5 1.8 1.4-.7.7 1.1-1.4.6zm1.4 2.1 1.4-.7.7 1.1-1.4.7zm34.9-13.2 2.5-1.3.7 1.1-1.8.9zm9.7-3.4-1.4.7-.7-1.1 1.4-.7zm-2.2 1-1.4.7-.7-1.1 1.4-.7zm-2.1 1.1-1.4.7-.7-1.1 1.4-.7zm-1.1 3.4-1.4-.7 1.1-.6.7 1.1zm1.1-.6-.7-1.1 1.4-.7.7 1.1zm2.1-1-.7-1.1 1.4-.7.7 1.1zm2.2-1.1-.7-1.1 1.4-.7.7 1.1zm3.5-1.8-1.4.7-.7-1.1 1.4-.7zm-1.4-2.1-1.4.7-.7-1.1 1.4-.7z" fill="#825012"/><path d="m22.6 27.1v-5.7l-9.9-14.9-4.2 2.2 32.5 48.8v5.7l9.9 14.8 4.2-2.1zm-1-1.5-2.5-3.8.7-.4 1.8 2.7zm-8.1-13.8 1.4 2.1-.7.4-1.4-2.1zm2.1 3.2 1.4 2.1-.7.4-1.4-2.1zm2.1 3.2 1.4 2.1-.7.4-1.4-2.1zm3.9 3.1v1.4l-1.1-1.7.7-.4zm-1.1-1.7-.7.4-1.4-2.1.7-.4zm-2.1-3.2-.7.4-1.4-2.1.7-.4zm-2.1-3.1-.7.4-1.4-2.1.7-.4zm-3.6-5.3 1.4 2.1-.7.4-1.4-2.2zm-1.4.7 1.4 2.1-.7.3-1.4-2.1zm30.7 50.3 2.5 3.8-.7.4-1.8-2.8zm8.2 13.7-1.4-2.1.7-.4 1.4 2.1zm-2.1-3.2-1.4-2.1.7-.4 1.4 2.1zm-2.1-3.2-1.4-2.1.7-.4 1.4 2.1zm-4-3.1v-1.4l1.1 1.7-.7.4zm1.2 1.7.7-.4 1.4 2.1-.7.4zm2.1 3.2.7-.4 1.4 2.1-.7.4zm2.1 3.1.7-.4 1.4 2.1-.7.4zm3.5 5.3-1.4-2.1.7-.4 1.4 2.1zm1.4-.7-1.4-2.1.7-.4 1.4 2.1z" fill="#825012"/><path d="m42.4 38.4 5.7 2.8 9.9-5-4.2-6.4-21.9 11-9.2-13.8v-5.7l-10-14.8-4.2 2.2 21.9 32.9-9.2 4.6-5.7-2.8-9.9 5 4.2 6.4 21.9-11 9.3 13.7v5.7l9.9 14.8 4.2-2.1-21.8-32.9zm5.3 1.6-1.4-.7 1.1-.6.7 1.1zm1.1-.6-.7-1.1 1.4-.7.7 1.1zm2.1-1-.7-1.1 1.4-.7.7 1.1zm2.2-1.1-.7-1.1 1.4-.7.7 1.1zm3.5-1.8-1.4.7-.7-1.1 1.4-.7zm-2.1-3.1.7 1.1-1.4.7-.7-1.1zm-2.2 1 .7 1.1-1.4.7-.7-1.1zm-2.1 1.1.7 1.1-1.4.7-.7-1.1zm-2.1 1 .7 1.1-1.4.7-.7-1.1zm-2.1 1.1.7 1.1-1.8.9-1.4-.7zm-25.5-17-.7.4-1.4-2.1.7-.4zm-2.1-3.2-.7.4-1.4-2.1.7-.4zm-2.1-3.1-.7.4-1.4-2.1.7-.4zm-3.6-5.3 1.4 2.1-.7.4-1.4-2.2zm-2.1 1 .7-.4 1.4 2.1-.7.4zm2.1 3.2.7-.4 1.4 2.1-.7.4zm2.2 3.2.7-.4 1.4 2.1-.7.4zm2.1 3.2.7-.4 1.4 2.1-.7.4zm4.6 7-2.5-3.8.7-.4 1.8 2.7zm0-2.9-1.1-1.7.7-.4.4.6zm-5.6 21.8 1.4.7-1.1.6-.7-1.1zm-1.1.6.7 1.1-1.4.7-.7-1.1zm-2.2 1 .7 1.1-1.4.7-.7-1.1zm-2.1 1.1.7 1.1-1.4.7-.7-1.1zm-3.5 1.8 1.4-.7.7 1.1-1.4.6zm2.1 3.2-.7-1.1 1.4-.7.7 1.1zm2.1-1.1-.7-1.1 1.4-.7.7 1.1zm2.2-1.1-.8-1 1.4-.7.7 1.1zm2.1-1-.7-1.1 1.4-.7.7 1.1zm2.1-1.1-.7-1 1.8-.9 1.4.7zm25.5 17 .7-.4 1.4 2.1-.7.4zm2.1 3.2.7-.4 1.4 2.1-.7.4zm2.1 3.1.7-.4 1.4 2.1-.7.4zm3.5 5.3-1.4-2.1.7-.4 1.4 2.1zm2.2-1-.7.4-1.4-2.1.7-.4zm-2.2-3.2-.7.4-1.4-2.1.7-.4zm-2.1-3.2-.7.4-1.4-2.1.7-.4zm-2.1-3.2-.7.4-1.4-2.1.7-.4zm-4.7-6.9 2.5 3.8-.7.4-1.8-2.8zm0 2.8 1.1 1.7-.7.4-.4-.7z" opacity=".11"/></svg>