<svg viewBox="0 0 80 160" xmlns="http://www.w3.org/2000/svg"><path d="m26.8 139.9c-10.4-4.5-27.8-11.3-13.1-20.3 13.8-8.4 27.4 2.7 37.1 7.9 5.7 3 4.4 11.8 8.7 17 6.3 7.5 19.5 12.6 17.5 13.3-4.2 1.4-11.9-1.6-21.8-9.6-9.4-7.8-14.6-2.4-28.4-8.3z" opacity=".2"/><path d="m10 66.4h5.3s4.6-5.4 6.5-4.9 1.8 5.3 1.3 7.5c-.4 2.3-1 3.3-1 4s-.3 3.6-.3 3.6 18.3 13.4 24.2 22.6 9.8 20.5 10.6 25.5c.7 5-.1 10.1.4 11.9.4 1.7 5.1 8.2 10.7 12.2 4.5 3.2 5.5 3.2 5.5 3.2s1.3-2.2 3.4-1.3 2.3 6.3-1.6 6.7-12-4.1-16.8-8.7c-4.2-4.1-7.3-8.6-7.3-8.6s-3.5 3.5-10.1 2.2-9.3-6.5-9.3-6.5-.5 1.6-1.7 1.7-5.9-2.8-8.4-3.6-6-2.5-4.4-5.2 3.8-.9 4.3-.1 1.1 1.6 1.1 1.6l1.8.3s-3.7-8.6-1.5-11.9 6.4-2 6.4-2l-10.6-10.1s-.9 10.5-.9 12.8-.4 6.5-.8 7.6c-.4 1-2.8 1.7-4.4 1.1-1.7-.6-2.7-2.2-1.8-3.5 1-1.3 2.3-.9 2.3-1.5.1-.6-.4-14.1-.9-16.1s-3.4-8.1-3.1-12.3 1.4-6.7 1-7.5-6.1-4.7-7.1-11.2-1.7-14 .4-14.6c2.3-.4 6.8 5.1 6.8 5.1z" fill="#999"/><path d="m18.6 106.5.4-6.4s4.9 5.9 7.2 8.5 9.1 12 9.1 12-2.6-2.3-4-3.1c-1.4-.7-2-1-2-1z" opacity=".2"/></svg>