<svg viewBox="0 0 400 240" xmlns="http://www.w3.org/2000/svg"><g fill="#2d3134"><path d="m47.8 34.5c-2.7 2.1-7.8 3.7-11.7 4.5-.5 0-.6-1.5-2-2.2-1.3-.7-3.4-.8-4.9-.3l-2.4-.4.8 1.2c-.8.8-.6 1.8.7 2.4 1.4.7 4.4.8 4.3 1-1.6 1.9-4.8 4.5-8.9 5.8-4.5 1.6-12.5 2.5-12.5 2.5s7.9 3.9 18.8 1.6c5.8-1.3 9.5-3.2 11.1-4.2 1.6.2 3.1.2 4.3-.1l3 4.2 7.3-3.7-8.7-1.3c.7-.6.8-1.4.3-2.3 2-.8 6-2.6 8.5-5.5 4.7-5.5-3.1-9.4-3.1-9.4s-1.8 4-4.9 6.2z"/><path d="m177.3 23.3c-2.7 2.1-7.8 3.7-11.7 4.5-.5 0-.6-1.5-2-2.2-1.3-.7-3.4-.8-4.9-.3l-2.4-.4.8 1.2c-.8.8-.6 1.8.7 2.4 1.4.7 4.4.8 4.3 1-1.6 1.9-4.8 4.5-8.9 5.8-4.6 1.5-12.6 2.4-12.6 2.4s7.9 3.9 18.8 1.6c5.8-1.3 9.5-3.2 11.1-4.2 1.6.2 3.1.2 4.3-.1l3 4.2 7.3-3.7-8.6-1.3c.7-.6.8-1.4.3-2.3 2-.8 6-2.6 8.5-5.5 4.7-5.5-3.1-9.4-3.1-9.4s-1.8 4-4.9 6.3z"/><path d="m44.7 96c-2.7 2-7.9 3.7-11.7 4.4-.5 0-.6-1.5-2-2.2-1.3-.7-3.4-.8-4.9-.3l-2.4-.4.8 1.2c-.8.8-.6 1.8.7 2.4 1.4.7 4.4.8 4.3 1-1.6 1.9-4.8 4.5-8.9 5.8-4.6 1.6-12.6 2.5-12.6 2.5s7.9 3.9 18.8 1.6c5.8-1.3 9.5-3.2 11.1-4.2 1.6.2 3.1.2 4.3-.1l3 4.2 7.3-3.7-8.6-1.3c.7-.6.8-1.4.3-2.3 2-.8 6-2.6 8.5-5.5 4.7-5.5-3.1-9.4-3.1-9.4s-1.9 4-4.9 6.3z"/><path d="m139.5 75.9c-2.7 2.1-7.8 3.7-11.7 4.5-.5 0-.6-1.5-2-2.2-1.3-.7-3.4-.8-4.9-.3l-2.4-.4.8 1.2c-.8.8-.6 1.8.7 2.4 1.4.7 4.4.8 4.3 1-1.6 1.9-4.8 4.5-8.9 5.8-4.6 1.5-12.6 2.4-12.6 2.4s7.9 3.9 18.8 1.6c5.8-1.3 9.5-3.2 11.1-4.2 1.6.2 3.1.2 4.3-.1l3 4.2 7.3-3.7-8.6-1.3c.7-.6.8-1.4.3-2.3 2-.8 6-2.6 8.5-5.5 4.7-5.5-3.1-9.4-3.1-9.4s-1.9 4-4.9 6.3z"/><path d="m102.3 58.4c-2.7 2.1-7.8 3.7-11.7 4.5-.5 0-.6-1.5-2-2.2-1.3-.7-3.4-.8-4.9-.3l-2.4-.4.8 1.2c-.8.8-.6 1.8.7 2.4 1.4.7 4.4.8 4.3 1-1.6 1.9-4.8 4.5-8.9 5.8-4.6 1.5-12.6 2.4-12.6 2.4s7.9 3.9 18.8 1.6c5.8-1.3 9.5-3.2 11.1-4.2 1.6.2 3.1.2 4.3-.1l3 4.2 7.3-3.7-8.6-1.3c.7-.6.8-1.4.3-2.3 2-.8 6-2.6 8.5-5.5 4.7-5.5-3.1-9.4-3.1-9.4s-1.9 4-4.9 6.3z"/><path d="m116.3 24.7c-2.7 2.1-7.8 3.7-11.7 4.5-.5 0-.6-1.5-2-2.2-1.3-.7-3.4-.8-4.9-.3l-2.4-.4.8 1.2c-.8.8-.6 1.8.7 2.4 1.4.7 4.4.8 4.3 1-1.6 1.9-4.8 4.5-8.9 5.8-4.6 1.5-12.6 2.4-12.6 2.4s7.9 3.9 18.8 1.6c5.8-1.3 9.5-3.2 11.1-4.2 1.6.2 3.1.2 4.3-.1l3 4.2 7.3-3.7-8.6-1.3c.7-.6.8-1.4.3-2.3 2-.8 6-2.6 8.5-5.5 4.7-5.5-3.1-9.4-3.1-9.4s-1.9 4-4.9 6.3z"/><path d="m88.9 126.5c-2.7 2.1-7.8 3.7-11.7 4.5-.5 0-.6-1.5-2-2.2-1.3-.7-3.4-.8-4.9-.3l-2.4-.4.8 1.2c-.8.8-.6 1.8.7 2.4 1.4.7 4.4.8 4.3 1-1.6 1.9-4.8 4.5-8.9 5.8-4.6 1.5-12.6 2.4-12.6 2.4s7.9 3.9 18.8 1.6c5.8-1.3 9.5-3.2 11.1-4.2 1.6.2 3.1.2 4.3-.1l3 4.2 7.3-3.7-8.6-1.3c.7-.6.8-1.4.3-2.3 2-.8 6-2.6 8.5-5.5 4.7-5.5-3.1-9.4-3.1-9.4s-1.8 4-4.9 6.3z"/><path d="m261.2 34.8c-2.7 2.1-7.8 3.7-11.7 4.5-.5 0-.6-1.5-2-2.2-1.3-.7-3.4-.8-4.9-.3l-2.4-.4.8 1.2c-.8.8-.6 1.8.7 2.4 1.4.7 4.4.8 4.3 1-1.6 1.9-4.8 4.5-8.9 5.8-4.6 1.5-12.6 2.4-12.6 2.4s7.9 3.9 18.8 1.6c5.8-1.3 9.5-3.2 11.1-4.2 1.6.2 3.1.2 4.3-.1l3 4.2 7.3-3.7-8.6-1.3c.7-.6.8-1.4.3-2.3 2-.8 6-2.6 8.5-5.5 4.7-5.5-3.1-9.4-3.1-9.4s-1.9 4-4.9 6.3z"/><path d="m78.4 203.3c-2.7 2.1-7.8 3.7-11.7 4.5-.5 0-.6-1.5-2-2.2-1.3-.7-3.4-.8-4.9-.3l-2.4-.4.8 1.2c-.8.8-.6 1.8.7 2.4 1.4.7 4.4.8 4.3 1-1.6 1.9-4.8 4.5-8.9 5.8-4.6 1.5-12.6 2.4-12.6 2.4s7.9 3.9 18.8 1.6c5.8-1.3 9.5-3.2 11.1-4.2 1.6.2 3.1.2 4.3-.1l3 4.2 7.3-3.7-8.6-1.3c.7-.6.8-1.4.3-2.3 2-.8 6-2.6 8.5-5.5 4.7-5.5-3.1-9.4-3.1-9.4s-1.9 4-4.9 6.3z"/><path d="m227.9 211.8c-2.7 2.1-7.8 3.7-11.7 4.5-.5 0-.6-1.5-2-2.2-1.3-.7-3.4-.8-4.9-.3l-2.4-.4.8 1.2c-.8.8-.6 1.8.7 2.4 1.4.7 4.4.8 4.3 1-1.6 1.9-4.8 4.5-8.9 5.8-4.6 1.5-12.6 2.4-12.6 2.4s7.9 3.9 18.8 1.6c5.8-1.3 9.5-3.2 11.1-4.2 1.6.2 3.1.2 4.3-.1l3 4.2 7.3-3.7-8.6-1.3c.7-.6.8-1.4.3-2.3 2-.8 6-2.6 8.5-5.5 4.7-5.5-3.1-9.4-3.1-9.4s-1.9 4-4.9 6.3z"/><path d="m372.8 174.6c-2.7 2.1-7.8 3.7-11.7 4.5-.5 0-.6-1.5-2-2.2-1.3-.7-3.4-.8-4.9-.3l-2.4-.4.8 1.2c-.8.8-.6 1.8.7 2.4 1.4.7 4.4.8 4.3 1-1.6 1.9-4.8 4.5-8.9 5.8-4.6 1.5-12.6 2.4-12.6 2.4s7.9 3.9 18.8 1.6c5.8-1.3 9.5-3.2 11.1-4.2 1.6.2 3.1.2 4.3-.1l3 4.2 7.3-3.7-8.6-1.3c.7-.6.8-1.4.3-2.3 2-.8 6-2.6 8.5-5.5 4.7-5.5-3.1-9.4-3.1-9.4s-1.8 4-4.9 6.3z"/><path d="m361.6 83.3c-2.7 2.1-7.8 3.7-11.7 4.5-.5 0-.6-1.5-2-2.2-1.3-.7-3.4-.8-4.9-.3l-2.4-.4.8 1.2c-.8.8-.6 1.8.7 2.4 1.4.7 4.4.8 4.3 1-1.6 1.9-4.8 4.5-8.9 5.8-4.6 1.5-12.6 2.4-12.6 2.4s7.9 3.9 18.8 1.6c5.8-1.3 9.5-3.2 11.1-4.2 1.6.2 3.1.2 4.3-.1l3 4.2 7.3-3.7-8.6-1.3c.7-.6.8-1.4.3-2.3 2-.8 6-2.6 8.5-5.5 4.7-5.5-3.1-9.4-3.1-9.4s-1.9 4-4.9 6.3z"/><path d="m262.7 129.6c-2.7 2.1-7.8 3.7-11.7 4.5-.5 0-.6-1.5-2-2.2-1.3-.7-3.4-.8-4.9-.3l-2.4-.4.8 1.2c-.8.8-.6 1.8.7 2.4 1.4.7 4.4.8 4.3 1-1.6 1.9-4.8 4.5-8.9 5.8-4.6 1.5-12.6 2.4-12.6 2.4s7.9 3.9 18.8 1.6c5.8-1.3 9.5-3.2 11.1-4.2 1.6.2 3.1.2 4.3-.1l3 4.2 7.3-3.7-8.6-1.3c.7-.6.8-1.4.3-2.3 2-.8 6-2.6 8.5-5.5 4.7-5.5-3.1-9.4-3.1-9.4s-1.9 4-4.9 6.3z"/><path d="m169 158.1c-2.7 2.1-7.8 3.7-11.7 4.5-.5 0-.6-1.5-2-2.2-1.3-.7-3.4-.8-4.9-.3l-2.4-.4.8 1.2c-.8.8-.6 1.8.7 2.4 1.4.7 4.4.8 4.3 1-1.6 1.9-4.8 4.5-8.9 5.8-4.6 1.5-12.6 2.4-12.6 2.4s7.9 3.9 18.8 1.6c5.8-1.3 9.5-3.2 11.1-4.2 1.6.2 3.1.2 4.3-.1l3 4.2 7.3-3.7-8.6-1.3c.7-.6.8-1.4.3-2.3 2-.8 6-2.6 8.5-5.5 4.7-5.5-3.1-9.4-3.1-9.4s-1.9 4-4.9 6.3z"/><path d="m196.3 78c-2.7 2.1-7.8 3.7-11.7 4.5-.5 0-.6-1.5-2-2.2-1.3-.7-3.4-.8-4.9-.3l-2.4-.4.8 1.2c-.8.8-.6 1.8.7 2.4 1.4.7 4.4.8 4.3 1-1.6 1.9-4.8 4.5-8.9 5.8-4.6 1.5-12.6 2.4-12.6 2.4s7.9 3.9 18.8 1.6c5.8-1.3 9.5-3.2 11.1-4.2 1.6.2 3.1.2 4.3-.1l3 4.2 7.3-3.7-8.6-1.3c.7-.6.8-1.4.3-2.3 2-.8 6-2.6 8.5-5.5 4.7-5.5-3.1-9.4-3.1-9.4s-1.8 4-4.9 6.3z"/></g></svg>