<svg viewBox="0 0 64 80" xmlns="http://www.w3.org/2000/svg"><path d="m32 58 32-16v22l-32 16z" fill="#e5e5e5"/><path d="m32 80 2-1v-22l-2 1z" fill="#fff"/><path d="m62 65 2-1v-22l-2 1z" fill="#fff"/><path d="m62 65-28 14v-1l28-14z" opacity=".3"/><path d="m59 48.5-22 11v17l22-11z" fill="#fff"/><path d="m58 66-20 10v-16l20-10z" fill="#762c07"/><path d="m39 74.5v-15l-1 .5v16l20-10v-1z" opacity=".3"/><path d="m42 62-2 1v-1l2-1z" opacity=".3"/><path d="m57 54.5-2 1v-1l2-1z" opacity=".3"/><path d="m42 66-2 1v-1l2-1z" opacity=".3"/><path d="m57 58.5-2 1v-1l2-1z" opacity=".3"/><path d="m42 70-2 1v-1l2-1z" opacity=".3"/><path d="m57 62.5-2 1v-1l2-1z" opacity=".3"/><path d="m54 56-2 1v-1l2-1z" opacity=".3"/><path d="m54 60-2 1v-1l2-1z" opacity=".3"/><path d="m54 64-2 1v-1l2-1z" opacity=".3"/><path d="m51 57.5-2 1v-1l2-1z" opacity=".3"/><path d="m51 61.5-2 1v-1l2-1z" opacity=".3"/><path d="m51 65.5-2 1v-1l2-1z" opacity=".3"/><path d="m48 59-2 1v-1l2-1z" opacity=".3"/><path d="m48 63-2 1v-1l2-1z" opacity=".3"/><path d="m48 67-2 1v-1l2-1z" opacity=".3"/><path d="m45 60.5-2 1v-1l2-1z" opacity=".3"/><path d="m45 64.5-2 1v-1l2-1z" opacity=".3"/><path d="m45 68.5-2 1v-1l2-1z" opacity=".3"/><path d="m32 58 32-16v22l-32 16z" opacity=".29"/><path d="m0 42 16-24 16 40v22l-32-16z" fill="#e5e5e5"/><path d="m0 64 2 1v-26l-2 3z" fill="#fff"/><path d="m30 79 2 1v-22l-2-5z" fill="#fff"/><path d="m30 79-28-14v-1l28 14z" opacity=".3"/><path d="m21 50.5-10-5v-12l10 5z" fill="#fff"/><path d="m12 45 8 4v-10l-8-4z" fill="#656565"/><path d="m20 47v-8l-8-4z" opacity=".15"/><path d="m12 38 8 4v1l-8-4z" fill="#fff"/><path d="m20 40-8-4v-1l8 4z" opacity=".15"/><g fill="#fff"><path d="m14 35 1 .5v11l-1-.5z"/><path d="m17 36.5 1 .5v11l-1-.5z"/><path d="m27 59.5-9-4.5v17l9 4.5z"/></g><path d="m26 76-7-3.5v-16l7 3.5z" fill="#762c07"/><path d="m20 72v-15l-1-.5v16l7 3.5v-1z" opacity=".3"/><path d="m22 62-2-1v-1l2 1z" opacity=".3"/><path d="m25 63.5-2-1v-1l2 1z" opacity=".3"/><path d="m22 66-2-1v-1l2 1z" opacity=".3"/><path d="m25 67.5-2-1v-1l2 1z" opacity=".3"/><path d="m22 70-2-1v-1l2 1z" opacity=".3"/><path d="m25 71.5-2-1v-1l2 1z" opacity=".3"/><path d="m0 42 16-24 16 40v22l-32-16z" opacity=".11"/><path d="m32 58 32-16-16.1-40-31.9 16z" fill="#2d3134"/><path d="m32 58 32-16-16.1-40-31.9 16z" opacity=".39"/><path d="m48.6 3.8-31.5 15.8-1.1-1.6 31.9-16z" fill="#fff" opacity=".2"/><path d="m32 58-16-40-16 24h1l15-23 15 39z" fill="#2d3134"/></svg>