<svg viewBox="0 0 48 40" xmlns="http://www.w3.org/2000/svg"><path d="m4 6-2 1v1l10 7 6-3v-1zm2.4 2.8 8.4 2.8-2.8 1.4z" fill="#28896d"/><path d="m2 7v1l10 7 6-3v-1l-6 3z" opacity=".06"/><path d="m14.8 11.6 1.2-.6-12-4 2.4 1.8z" opacity=".06"/><path d="m8 23 14-7 24 12-14 7z" opacity=".3"/><path d="m27.5 25.8c-.7-.4-1.4-.4-1.9-.2l-1.4.7c-.5.2-.9.8-.9 1.6 0 1.5 1.3 3.4 2.8 4.2.8.4 1.5.4 2 .2 0 0 1.4-.7 1.5-.8.5-.3.7-.8.7-1.5 0-1.6-1.3-3.5-2.8-4.2z" fill="#2d3134"/><path d="m28 32.2c.2-.1 1.4-.7 1.5-.7.5-.3.7-.8.7-1.5 0-.6-.2-1.3-.5-1.9l-1.4.7c.3.6.5 1.3.5 1.9.1.7-.3 1.3-.8 1.5z" opacity=".39"/><path d="m28.1 30.3c0 1.2-.9 1.6-2.1 1s-2.1-2-2.1-3.2.9-1.6 2.1-1 2.1 2 2.1 3.2z" fill="#999"/><path d="m26.2 31.3c-1.2-.6-2.1-2-2.1-3.2 0-.6.2-1 .6-1.2-.5.1-.8.6-.8 1.2 0 1.2.9 2.6 2.1 3.2.6.3 1.1.3 1.5.1-.3.2-.8.1-1.3-.1z" fill="#808285"/><path d="m27.1 29.6c0 .5-.4.7-.9.4s-.9-.8-.9-1.3.4-.7.9-.4.9.8.9 1.3z" fill="#2d3134"/><path d="m27.1 29.6c0 .5-.4.7-.9.4s-.9-.8-.9-1.3.4-.7.9-.4.9.8.9 1.3z" opacity=".39"/><path d="m26.9 29.7c0 .5-.4.7-.9.4-.5-.2-.9-.8-.9-1.3s.4-.7.9-.4c.5.2.9.8.9 1.3z" fill="#2d3134"/><path d="m28.9 30.7c0 1.5-1.3 2.2-2.8 1.4s-2.8-2.7-2.8-4.2 1.3-2.2 2.8-1.4c1.5.7 2.8 2.6 2.8 4.2z" opacity=".06"/><path d="m28.5 27.9v3.8l2.5-1.3v-3.7z" fill="#2d3134"/><path d="m28.5 27.9v3.8l2.5-1.3v-3.7z" opacity=".06"/><path d="m13.4 18.8c-.7-.4-1.4-.4-1.9-.2l-1.4.7c-.5.2-.9.8-.9 1.6 0 1.5 1.3 3.4 2.8 4.2.8.4 1.5.4 2 .2 0 0 1.4-.7 1.5-.8.5-.3.7-.8.7-1.5.1-1.6-1.2-3.5-2.8-4.2z" fill="#2d3134"/><path d="m14 25.2c.2-.1 1.4-.7 1.5-.7.5-.3.7-.8.7-1.5 0-.6-.2-1.3-.5-1.9l-1.4.7c.3.6.5 1.3.5 1.9.1.7-.3 1.3-.8 1.5z" opacity=".39"/><path d="m14.1 23.3c0 1.2-.9 1.6-2.1 1s-2.1-2-2.1-3.2.9-1.6 2.1-1 2.1 2 2.1 3.2z" fill="#999"/><path d="m12.2 24.3c-1.2-.6-2.1-2-2.1-3.2 0-.6.2-1 .6-1.2-.5.1-.8.6-.8 1.2 0 1.2.9 2.6 2.1 3.2.6.3 1.1.3 1.5.1-.3.2-.8.1-1.3-.1z" fill="#808285"/><path d="m13.1 22.6c0 .5-.4.7-.9.4-.5-.2-.9-.8-.9-1.3s.4-.7.9-.4c.5.2.9.8.9 1.3z" fill="#2d3134"/><path d="m13.1 22.6c0 .5-.4.7-.9.4-.5-.2-.9-.8-.9-1.3s.4-.7.9-.4c.5.2.9.8.9 1.3z" opacity=".39"/><path d="m12.9 22.7c0 .5-.4.7-.9.4-.5-.2-.9-.8-.9-1.3s.4-.7.9-.4c.5.2.9.8.9 1.3z" fill="#2d3134"/><path d="m14.9 23.7c0 1.5-1.3 2.2-2.8 1.4s-2.8-2.7-2.8-4.2 1.3-2.2 2.8-1.4c1.5.7 2.8 2.6 2.8 4.2z" opacity=".06"/><path d="m14.5 20.9v3.8l2.5-1.3v-3.7z" fill="#2d3134"/><path d="m14.5 20.9v3.8l2.5-1.3v-3.7z" opacity=".06"/><path d="m46 21v2l-14 7v-2z" fill="#2d3134"/><g fill="#cc291f"><path d="m45.5 21.7v1l-1 .5v-1z"/><path d="m44 22.4v1l-1 .5v-1z"/><path d="m35 26.9v1l-1 .5v-1z"/><path d="m33.5 27.7v1l-1 .5v-1z"/></g><path d="m41.5 23.2v1.2l-5 2.5v-1.2z" fill="#fff"/><path d="m8 16v2l24 12v-2z" fill="#2d3134"/><path d="m22 1-14 7v8l24 12 14-7v-8z" fill="#28896d"/><path d="m36 17-14-7v-8l22 11z" opacity=".06"/><path d="m18 12 4-2v-8l-12 6z" opacity=".39"/><path d="m32 30-24-12v-10l24 12z" opacity=".06"/><path d="m46 13-14 7v10l14-7z" opacity=".39"/><path d="m22 1-14 7 24 12 14-7zm10 18-22-11 12-6 22 11z" fill="#28896d"/><path d="m18 12 14 7 4-2-14-7z" fill="#fff" opacity=".1"/><path d="m26 2c-6 0-11.1 3.4-13.9 7l19.9 10 10-5c0-4.4-7.2-12-16-12z" fill="#fc0"/><path d="m34.8 13.6c2.6-1.3 3.7-4 3.4-6.4-2.9-2.9-7.3-5.2-12.2-5.2-3.7 0-7.1 1.3-9.8 3.2.5 1.4 1.5 2.6 3 3.4l10 5c1.8.9 3.8.9 5.6 0z" fill="#fff" opacity=".2"/></svg>