<svg viewBox="0 0 80 48" xmlns="http://www.w3.org/2000/svg"><path d="m8 16 62 31 2-1-62-31z" opacity=".2"/><path d="m10 2-2-1-2 1v13l2 1 2-1z" fill="#762c07"/><path d="m8 16 2-1v-13l-2 1z" opacity=".29"/><g fill="#762c07"><path d="m26 10-2-1-2 1v13l2 1 2-1z"/><path d="m8 7 14 14v-2l-14-14z"/><path d="m8 12h14v2h-14z"/></g><path d="m24 24 2-1v-13l-2 1z" opacity=".29"/><path d="m42 18-2-1-2 1v13l2 1 2-1z" fill="#762c07"/><path d="m24 15 14 14v-2l-14-14z" fill="#762c07"/><path d="m24 20h14v2h-14z" fill="#762c07"/><path d="m40 32 2-1v-13l-2 1z" opacity=".29"/><path d="m58 26-2-1-2 1v13l2 1 2-1z" fill="#762c07"/><path d="m40 23 14 14v-2l-14-14z" fill="#762c07"/><path d="m40 28h14v2h-14z" fill="#762c07"/><path d="m56 40 2-1v-13l-2 1z" opacity=".29"/><path d="m74 34-2-1-2 1v13l2 1 2-1z" fill="#762c07"/><path d="m56 31 14 14v-2l-14-14z" fill="#762c07"/><path d="m56 36h14v2h-14z" fill="#762c07"/><path d="m6 2v13l2 1v-2h7l7 7v2l2 1v-2h7l7 7v2l2 1v-2h7l7 7v2l2 1v-2h7l7 7v2l2 1v-13l-2-1v2h-7l-7-7v-2l-2-1v2h-7l-7-7v-2l-2-1v2h-7l-7-7v-2l-2-1v2h-7l-7-7v-2zm59 36h5v5zm-9-2v-5l5 5zm-7-6h5v5zm-9-2v-5l5 5zm-7-6h5v5zm-9-2v-5l5 5zm-7-6h5v5zm-9-7 5 5h-5z" opacity=".11"/><path d="m72 48 2-1v-13l-2 1z" opacity=".29"/></svg>