<svg viewBox="0 0 128 64" xmlns="http://www.w3.org/2000/svg"><path d="m64 0 64 32-64 32-64-32z" fill="#baa794"/><path d="m64 0 64 32-64 32-64-32z" opacity=".15"/><g fill="#baa794"><path d="m66 31 4-2-6-3-4 2z"/><path d="m87 18 6-3-4-2-6 3z"/><path d="m64 6 4-2-6-3-4 2z"/><path d="m56 10 6-3-6-3-6 3z"/><path d="m48 24 6-3-4-2-2 1-4-2-4 2z"/><path d="m86 13-8-4-4 2 8 4z"/><path d="m78 7-6-3-4 2 6 3z"/><path d="m72 28-4-2 8-4 4 2z"/><path d="m80 22 6-3-8-4-8 4 4 2 2-1z"/><path d="m60 22 4-2 6-3-4-2-10 5z"/><path d="m42 13 8-4 4 2-4 2 4 2-6 3-4-2 2-1z"/><path d="m54 19-2-1 6-3-4-2 4-2 6 3z"/><path d="m64 12 8 4 4-2-6-3 2-1-2-1z"/><path d="m62 11 6-3-2-1-6 3z"/><path d="m38 19 4-2-2-1 2-1-4-2-6 3z"/><path d="m24 44 6-3-4-2-6 3z"/><path d="m34 47 4-2-6-3-4 2z"/><path d="m56 34 6-3-4-2-2 1-4-2-4 2z"/><path d="m32 22 4-2-6-3-4 2z"/><path d="m24 26 6-3-6-3-6 3z"/><path d="m18 41 6-3-6-3-2 1-4-2-4 2z"/><path d="m46 23-6-3-4 2 6 3z"/><path d="m40 44-4-2 8-4 4 2z"/><path d="m46 37 6-3-6-3-10 5 4 2 4-2z"/><path d="m34 41 4-2-6-3 6-3-4-2-10 5z"/><path d="m10 29 8-4 4 2-4 2 4 2-6 3-4-2 2-1z"/><path d="m22 35-2-1 6-3-4-2 4-2 6 3z"/><path d="m32 28 8 4 4-2-6-3 2-1-2-1z"/><path d="m30 27 6-3-2-1-6 3z"/><path d="m6 35 4-2-2-1 2-1-4-2-6 3z"/><path d="m88 44 6-3-6-3-6 3z"/><path d="m98 47 4-2-6-3-4 2z"/><path d="m119 34 6-3-4-2-6 3z"/><path d="m96 22 4-2-6-3-4 2z"/><path d="m88 26 6-3-6-3-6 3z"/><path d="m80 40 6-3-4-2-2 1-4-2-4 2z"/><path d="m118 29-8-4-4 2 8 4z"/><path d="m110 23-6-3-4 2 6 3z"/><path d="m104 44-4-2 8-4 4 2z"/><path d="m112 38 6-3-8-4-10 5 4 2 4-2z"/><path d="m98 41 4-2-6-3 6-3-4-2-10 5z"/><path d="m74 29 8-4 4 2-4 2 4 2-6 3-4-2 2-1z"/><path d="m86 35-2-1 6-3-4-2 4-2 6 3z"/><path d="m96 28 8 4 4-2-6-3 2-1-2-1z"/><path d="m94 27 6-3-2-1-6 3z"/><path d="m72 34 2-1-2-1 2-1-4-2-4 2z"/><path d="m56 60 6-3-4-2-6 3z"/><path d="m66 63 4-2-6-3-4 2z"/><path d="m87 50 6-3-4-2-6 3z"/><path d="m64 38 6-3-6-3-6 3z"/><path d="m50 57 6-3-6-3-2 1-4-2-4 2z"/><path d="m86 45-8-4-4 2 8 4z"/><path d="m78 39-6-3-4 2 6 3z"/><path d="m72 60-4-2 8-4 4 2z"/><path d="m80 54 6-3-8-4-10 5 4 2 4-2z"/><path d="m66 57 4-2-6-3 6-3-4-2-10 5z"/><path d="m42 45 8-4 4 2-4 2 4 2-6 3-4-2 2-1z"/><path d="m54 51-2-1 6-3-4-2 4-2 6 3z"/><path d="m70 43 2-1-6-3-2 1 2 1-4 2 10 5 4-2z"/><path d="m38 51 4-2-2-1 2-1-4-2-6 3z"/><path d="m68 20-8 4-4-2-2 1 6 3 4-2 2 1 6-3z"/><path d="m52 24-4 2-2-1-4 2 4 2 6-3 4 2 2-1z"/><path d="m62 39-8-4-6 3 8 4 2-1 2 1 2-1-2-1z"/></g></svg>