<svg viewBox="0 0 1200 640" xmlns="http://www.w3.org/2000/svg"><path d="m420 280 140-70 240 120-140 70z" opacity=".3"/><path d="m614.5 307.7c-7.5-3.7-14.2-4.2-19.2-1.9l-14 7c-5.4 2.4-8.8 7.9-8.8 15.9 0 15.5 12.5 34.3 28 42 7.6 3.8 14.6 4.2 19.6 1.8 0 0 13.9-6.9 15.1-7.6 4.5-2.7 7.3-7.9 7.3-15.2 0-15.5-12.5-34.3-28-42z" fill="#2d3134"/><path d="m620.4 372.3c2-1 13.7-6.8 14.8-7.5 4.5-2.7 7.3-7.9 7.3-15.2 0-6.2-2.1-13-5.5-19.3l-14 7c3.4 6.4 5.5 13.1 5.5 19.3 0 7.7-3.1 13.1-8.1 15.7z" opacity=".39"/><path d="m621.5 353c0 11.6-9.4 16.3-21 10.5s-21-19.9-21-31.5 9.4-16.3 21-10.5 21 19.9 21 31.5z" fill="#999"/><path d="m602.3 362.8c-11.6-5.8-21-19.9-21-31.5 0-5.7 2.3-9.7 6-11.7-4.7 1.5-7.7 5.8-7.7 12.4 0 11.6 9.4 25.7 21 31.5 5.9 2.9 11.2 3.2 15 1.2-3.7 1.1-8.3.6-13.3-1.9z" fill="#808285"/><path d="m611 346.2c0 4.8-3.9 6.8-8.8 4.4-4.8-2.4-8.8-8.3-8.8-13.1s3.9-6.8 8.8-4.4c4.9 2.3 8.8 8.2 8.8 13.1z" fill="#2d3134"/><path d="m611 346.2c0 4.8-3.9 6.8-8.8 4.4-4.8-2.4-8.8-8.3-8.8-13.1s3.9-6.8 8.8-4.4c4.9 2.3 8.8 8.2 8.8 13.1z" opacity=".39"/><path d="m609.3 347c0 4.8-3.9 6.8-8.8 4.4s-8.8-8.3-8.8-13.1 3.9-6.8 8.8-4.4 8.8 8.2 8.8 13.1z" fill="#2d3134"/><path d="m628.5 356.7c0 15.5-12.5 21.7-28 14s-28-26.5-28-42 12.5-21.7 28-14 28 26.5 28 42z" opacity=".06"/><path d="m625 329.4v37.5l25-12.5v-37.5z" fill="#2d3134"/><path d="m625 329.4v37.5l25-12.5v-37.5z" opacity=".06"/><path d="m474.5 237.7c-7.5-3.7-14.2-4.2-19.2-1.9l-14 7c-5.4 2.4-8.8 7.9-8.8 15.9 0 15.5 12.5 34.3 28 42 7.6 3.8 14.6 4.2 19.6 1.8 0 0 13.9-6.9 15.1-7.6 4.5-2.7 7.3-7.9 7.3-15.2 0-15.5-12.5-34.3-28-42z" fill="#2d3134"/><path d="m480.4 302.3c2-1 13.7-6.8 14.8-7.5 4.5-2.7 7.3-7.9 7.3-15.2 0-6.2-2.1-13-5.5-19.3l-14 7c3.4 6.4 5.5 13.1 5.5 19.3 0 7.7-3.1 13.1-8.1 15.7z" opacity=".39"/><path d="m481.5 283c0 11.6-9.4 16.3-21 10.5s-21-19.9-21-31.5 9.4-16.3 21-10.5 21 19.9 21 31.5z" fill="#999"/><path d="m462.3 292.8c-11.6-5.8-21-19.9-21-31.5 0-5.7 2.3-9.7 6-11.7-4.7 1.5-7.7 5.8-7.7 12.4 0 11.6 9.4 25.7 21 31.5 5.9 2.9 11.2 3.2 15 1.2-3.7 1.1-8.3.6-13.3-1.9z" fill="#808285"/><path d="m471 276.2c0 4.8-3.9 6.8-8.8 4.4-4.8-2.4-8.8-8.3-8.8-13.1s3.9-6.8 8.8-4.4c4.9 2.3 8.8 8.2 8.8 13.1z" fill="#2d3134"/><path d="m471 276.2c0 4.8-3.9 6.8-8.8 4.4-4.8-2.4-8.8-8.3-8.8-13.1s3.9-6.8 8.8-4.4c4.9 2.3 8.8 8.2 8.8 13.1z" opacity=".39"/><path d="m469.3 277c0 4.8-3.9 6.8-8.8 4.4s-8.8-8.3-8.8-13.1 3.9-6.8 8.8-4.4 8.8 8.2 8.8 13.1z" fill="#2d3134"/><path d="m488.5 286.7c0 15.5-12.5 21.7-28 14s-28-26.5-28-42 12.5-21.7 28-14 28 26.5 28 42z" opacity=".06"/><path d="m485 259.4v37.5l25-12.5v-37.5z" fill="#2d3134"/><path d="m485 259.4v37.5l25-12.5v-37.5z" opacity=".06"/><path d="m800 260v20l-140 70v-20z" fill="#2d3134"/><path d="m420 210v20l240 120v-20z" fill="#2d3134"/><path d="m560 60-140 70v80l240 120 140-70v-80z" fill="#28896d"/><path d="m700 220-140-70v-80l220 110z" opacity=".06"/><path d="m520 170 40-20v-80l-120 60z" opacity=".39"/><path d="m660 350-240-120v-100l240 120z" opacity=".06"/><path d="m800 180-140 70v100l140-70z" opacity=".39"/><path d="m560 60-140 70 240 120 140-70zm100 180-220-110 120-60 220 110z" fill="#28896d"/><path d="m520 170 140 70 40-20-140-70z" fill="#fff" opacity=".1"/><path d="m760 280-60 30v10l140 50 20-10v-10zm-28 34 28-14 56 42z" fill="#28896d"/><path d="m760 300 80 60v-10l-80-60-40 20v10z" fill="#28896d"/><path d="m700 310v10l140 50v-10z" opacity=".06"/><path d="m840 370 20-10v-10l-20 10z" opacity=".39"/><path d="m760 300 56 42 24 8-80-60z" opacity=".06"/><path d="m720 310 12 4 28-14v-10z" opacity=".39"/><path d="m560 110-80 40 180 90 80-40z" fill="#fc0"/><path d="m992 574 156-78-260-130-156 78z" fill="#262626" opacity=".3"/><path d="m840.2 363.3c-14.9-7.4-28.3-8-37.9-2.9l-27.4 13.8c-9.2 4.9-15 15-15 29.3 0 29.2 23.7 64.6 52.8 79.2 16 8 30.4 8 40 1.6l22.3-11.1c11-4.2 18-14.9 18-30.7.1-29.1-23.6-64.6-52.8-79.2z" fill="#2d3134"/><path d="m865.6 456.3c0 29.2-23.7 41-52.8 26.4s-52.8-50.1-52.8-79.2c0-29.2 23.7-41 52.8-26.4s52.8 50.1 52.8 79.2z" opacity=".11"/><path d="m815.1 375.8c-15.9-7.9-30.1-8-39.8-1.8 9.1-3 20.9-1.7 33.7 4.7 29.2 14.6 52.8 50.1 52.8 79.2 0 13.3-4.9 23-13 28.2 11.7-3.9 19.1-14.8 19.1-31.1.1-29.2-23.6-64.6-52.8-79.2z" fill="#fff" opacity=".1"/><path d="m838.7 442.9c0 14.3-11.6 20.1-25.9 12.9-14.3-7.1-25.9-24.5-25.9-38.8s11.6-20.1 25.9-12.9c14.3 7.1 25.9 24.5 25.9 38.8z" fill="#28896d"/><path d="m836.5 441.8c0 13.1-10.6 18.5-23.8 11.9-13.1-6.6-23.8-22.5-23.8-35.7 0-13.1 10.6-18.5 23.8-11.9s23.8 22.6 23.8 35.7z" fill="#28896d"/><path d="m836.5 441.8c0 13.1-10.6 18.5-23.8 11.9-13.1-6.6-23.8-22.5-23.8-35.7 0-13.1 10.6-18.5 23.8-11.9s23.8 22.6 23.8 35.7z" fill="#28896d"/><path d="m836.5 441.8c0 13.1-10.6 18.5-23.8 11.9-13.1-6.6-23.8-22.5-23.8-35.7 0-13.1 10.6-18.5 23.8-11.9s23.8 22.6 23.8 35.7z" opacity=".29"/><path d="m812.8 406.2c-13.1-6.6-23.8-1.2-23.8 11.9 0 7.1 3.1 15 8.1 21.9l33.5-16.8c-4.4-7.2-10.7-13.5-17.8-17z" opacity=".15"/><path d="m817.3 408.9-6.2 3.3c-2.9 1.3-5.2 3.5-5.2 7.8 0 7.1 5.8 15.8 12.9 19.4 3.3 1.7 6.3 1.9 8.6 1l8.5-4.1c-2-10.2-9.3-21-18.6-27.4z" fill="#28896d"/><path d="m817.3 408.9-6.2 3.3c-2.9 1.3-5.2 3.5-5.2 7.8 0 7.1 5.8 15.8 12.9 19.4 3.3 1.7 6.3 1.9 8.6 1l8.5-4.1c-2-10.2-9.3-21-18.6-27.4z" opacity=".29"/><path d="m851.2 412.9c8.9 13.9 14.4 29.4 14.4 43.5 0 13.2-4.8 22.8-12.8 28l22.3-11.1c11-4.2 18-14.9 18-30.7 0-14-5.5-29.5-14.4-43.4z" opacity=".29"/><path d="m831.8 432.9c0 7.1-5.8 10-12.9 6.5-7.1-3.6-12.9-12.3-12.9-19.4s5.8-10 12.9-6.5c7.1 3.6 12.9 12.3 12.9 19.4z" fill="#28896d"/><g opacity=".5"><path d="m821 419.1c0 1.2-.9 1.6-2.1 1.1-1.2-.6-2.1-2-2.1-3.2s.9-1.6 2.1-1.1c1.1.6 2.1 2 2.1 3.2z"/><path d="m821 436c0 1.2-.9 1.6-2.1 1.1-1.2-.6-2.1-2-2.1-3.2s.9-1.6 2.1-1.1c1.1.6 2.1 2 2.1 3.2z"/><path d="m814.4 416.7c.8 1.2.8 2.6 0 3s-2.2-.3-3-1.5-.8-2.6 0-3 2.1.3 3 1.5z"/><path d="m826.3 434.7c.8 1.2.8 2.6 0 3s-2.2-.3-3-1.5-.8-2.6 0-3 2.2.2 3 1.5z"/><path d="m810.4 420.1c1.2.6 2.1 2 2.1 3.2s-.9 1.6-2.1 1.1c-1.2-.6-2.1-2-2.1-3.2s.9-1.7 2.1-1.1z"/><path d="m827.3 428.6c1.2.6 2.1 2 2.1 3.2s-.9 1.6-2.1 1.1c-1.2-.6-2.1-2-2.1-3.2s.9-1.7 2.1-1.1z"/><path d="m811.4 427.2c.8-.4 2.2.3 3 1.5s.8 2.6 0 3-2.2-.3-3-1.5c-.9-1.3-.9-2.6 0-3z"/><path d="m823.3 421.2c.8-.4 2.2.3 3 1.5s.8 2.6 0 3-2.2-.3-3-1.5-.8-2.6 0-3z"/></g><path d="m812.8 377.1c-29.2-14.6-52.8-2.8-52.8 26.4s23.7 64.6 52.8 79.2c29.2 14.6 52.8 2.8 52.8-26.4s-23.7-64.6-52.8-79.2zm0 99.3c-25.7-12.8-46.5-44-46.5-69.7s20.8-36.1 46.5-23.2 46.5 44 46.5 69.7c0 25.6-20.9 36-46.5 23.2z" fill="#fff" opacity=".1"/><g opacity=".5"><path d="m808.9 379.4 8.5 4.2-4.2-6.3c-.1-.1-.2-.1-.4-.2-2.6-1.3-5.1-2.3-7.6-3.2z"/><path d="m817.3 480.8-8.5-4.2 3.2 5.8c.2.1.5.3.7.4 2.5 1.2 5 2.3 7.4 3.2z"/><path d="m785.1 375.9 7.3-.6-5.8-4.4c-.1 0-.2 0-.3 0-2.2.2-4.3.6-6.3 1.1z"/><path d="m841 483.8-7.3.6 4.8 4.5h.6c2.2-.2 4.2-.5 6.1-1.1z"/><path d="m768.7 386.9 4.2-5.2-5.8-1.3c-.1.1-.1.1-.2.2-1.3 1.6-2.4 3.3-3.3 5.2z"/><path d="m857.1 472.3-4.2 5.2 5.2 2c.1-.1.3-.3.4-.4 1.2-1.5 2.3-3.2 3.2-5z"/><path d="m764.2 409.4v-8.4l-4.2 2.1v.4c0 2.6.2 5.2.5 7.8z"/><path d="m861.4 449.5v8.5l4.2-1.1c0-.2 0-.5 0-.7 0-2.5-.2-5-.5-7.6z"/><path d="m772.6 437.4-4.2-9.4-1.5 5c.1.1.1.3.2.4 1.3 2.9 2.7 5.7 4.2 8.4z"/><path d="m852.6 421.5 4.2 9.4 2.1-3.8c-.1-.3-.2-.5-.3-.8-1.2-2.8-2.6-5.5-4.1-8.2z"/><path d="m791.8 463.4-7.3-7.9 1.5 6.5c.1.1.2.2.3.3 2.2 2.4 4.5 4.6 6.8 6.7z"/><path d="m833.1 395.7 7.3 7.9-.6-5.5c-.2-.2-.4-.5-.6-.7-2.2-2.3-4.4-4.5-6.6-6.5z"/></g><g opacity=".5"><path d="m804.4 359.4c-.7.3-1.4.6-2.1 1l-6.9 3.4-.8 1.3-14.6 6.9c2-.6 4-.9 6.3-1.1h.3l14.7-6.3z"/><path d="m869.9 387.3c-1.6-1.9-3.3-3.7-5-5.5l-8.3 9.8-24.1-.8c2.3 2 4.5 4.2 6.6 6.5.2.2.4.5.6.7l21.2.5z"/><path d="m812.8 377.1c.1.1.2.1.4.2l23.4-2.3 5.7-10.6c-.7-.4-1.3-.7-2-1-1.5-.7-3-1.4-4.4-2l-5.4 9.4-25.2 3.2c2.4.8 4.9 1.8 7.5 3.1z"/><path d="m879.9 460.7 11.4-5.5c.9-2.8 1.4-6 1.7-9.4l-12.2 6.4-15.6-3.6c.3 2.6.5 5.1.5 7.6v.7z"/><path d="m861.7 474.1c-.9 1.8-2 3.5-3.2 5-.1.1-.3.3-.4.4l3.4.5 9-4.5z"/><path d="m858.9 427.1 20.4 4.3 10.4-9.1c-1-3.2-2.2-6.3-3.6-9.5l-10.4 8.7-21.2-3.4c1.5 2.7 2.9 5.4 4.1 8.2.1.2.2.5.3.8z"/></g><path d="m830.8 339.1 52.7 26.4-40.2 20.1-52.7-26.5z" fill="#656565"/><path d="m911 409.9-27.5-44.4-52.7-26.4-20.1 5.3-40.2 20 20.1-5.3 52.7 26.5 27.7 44.4v19l40.1-20.1v-19z" fill="#28896d"/><path d="m830.8 339.1-20.1 5.3-40.2 20 20.1-5.3z" opacity=".29"/><path d="m1020 435v-40l-94 47v40z" fill="#28896d"/><path d="m911 409.9-27.5-44.4-40.2 20.1 27.5 44.3z" opacity=".1"/><path d="m911.1 409.9v19l-40.1 20.1v-19z" opacity=".29"/><path d="m926 235-94 47v75l33.9 17 27.1 44v48l33 16 94-43v-157z" fill="#2d3134"/><path d="m903 427.8v-12.5l-30-48.9-31-15.5v-52.9l80 40.1v98.9z" fill="#656565"/><path d="m872 368-6-3v-57l6 3z" fill="#2d3134"/><path d="m922 345.5-47.3 23.7 27.7 45 19.6-9.8z" opacity=".1"/><path d="m894.6 324.3-52.2 26.8 30.6 15.3 1.7 2.8 47.3-23.7v-7.4z" fill="#fff" opacity=".1"/><path d="m832 282v75l33.9 17 27.1 44v48l33 16v-40-113z" opacity=".11"/><path d="m1016 394v-99l-86 43v99z" fill="#656565"/><path d="m926 340.3 94 2.8v-54.1l-94 47z" fill="#fff" opacity=".15"/><path d="m1020 293v-11l-94 47v11z" fill="#2d3134"/><path d="m899 429-10 5v52l4 2 4-2 6-55z" fill="#28896d"/><path d="m889 434 4 2v52l-4-2z" opacity=".11"/><path d="m903 431-10 5v52l4-2z" opacity=".29"/><path d="m901 442-8 4v4l18 9 4-10z" fill="#28896d"/><path d="m893 446v4l18 9v-4z" opacity=".11"/><path d="m899 459-6 3v4l18 9 2-9z" fill="#28896d"/><path d="m893 462v4l18 9v-4z" opacity=".11"/><path d="m897 476-4 2v4l18 9v-8z" fill="#28896d"/><path d="m893 478v4l18 9v-4z" opacity=".11"/><path d="m921 440-10 5v52l4 2 4-2 6-55z" fill="#28896d"/><path d="m911 445 4 2v52l-4-2z" opacity=".11"/><path d="m925 442-10 5v52l4-2z" opacity=".29"/><path d="m1095.2 396.2c-12.5-6.2-23.7-6.7-31.7-2.4l-22.9 11.5c-7.7 4.1-12.5 12.6-12.5 24.5 0 24.4 19.8 54.1 44.2 66.3 13.4 6.7 25.4 6.7 33.5 1.4l18.6-9.3c9.2-3.5 15-12.4 15-25.7 0-24.4-19.8-54.1-44.2-66.3z" fill="#2d3134"/><path d="m1116.4 474.1c0 24.4-19.8 34.3-44.2 22.1s-44.2-41.9-44.2-66.3 19.8-34.3 44.2-22.1 44.2 41.8 44.2 66.3z" opacity=".11"/><path d="m1074.2 406.7c-13.3-6.6-25.2-6.7-33.3-1.5 7.7-2.5 17.5-1.4 28.2 3.9 24.4 12.2 44.2 41.9 44.2 66.3 0 11.1-4.1 19.2-10.9 23.6 9.8-3.2 16-12.3 16-26 0-24.5-19.8-54.1-44.2-66.3z" fill="#fff" opacity=".1"/><path d="m1093.9 462.8c0 12-9.7 16.8-21.7 10.8s-21.7-20.5-21.7-32.5 9.7-16.8 21.7-10.8 21.7 20.5 21.7 32.5z" fill="#28896d"/><path d="m1092.1 461.9c0 11-8.9 15.4-19.9 9.9s-19.9-18.8-19.9-29.8 8.9-15.4 19.9-9.9 19.9 18.8 19.9 29.8z" fill="#28896d"/><path d="m1092.1 461.9c0 11-8.9 15.4-19.9 9.9s-19.9-18.8-19.9-29.8 8.9-15.4 19.9-9.9 19.9 18.8 19.9 29.8z" fill="#28896d"/><path d="m1092.1 461.9c0 11-8.9 15.4-19.9 9.9s-19.9-18.8-19.9-29.8 8.9-15.4 19.9-9.9 19.9 18.8 19.9 29.8z" opacity=".29"/><path d="m1072.2 432.1c-11-5.5-19.9-1-19.9 9.9 0 5.9 2.6 12.6 6.7 18.3l28.1-14c-3.6-6-9-11.3-14.9-14.2z" opacity=".15"/><path d="m1076 434.4-5.2 2.8c-2.4 1.1-4.4 2.9-4.4 6.5 0 6 4.8 13.3 10.8 16.2 2.8 1.4 5.3 1.6 7.2.8l7.1-3.4c-1.6-8.5-7.7-17.6-15.5-22.9z" fill="#28896d"/><path d="m1076 434.4-5.2 2.8c-2.4 1.1-4.4 2.9-4.4 6.5 0 6 4.8 13.3 10.8 16.2 2.8 1.4 5.3 1.6 7.2.8l7.1-3.4c-1.6-8.5-7.7-17.6-15.5-22.9z" opacity=".29"/><path d="m1103.9 438.1c7.5 11.7 12.1 24.6 12.1 36.4 0 11-4 19.1-10.7 23.5l18.6-9.3c9.2-3.5 15-12.4 15-25.7 0-11.7-4.6-24.7-12-36.3z" opacity=".29"/><path d="m1088.1 454.5c0 6-4.8 8.4-10.8 5.4s-10.8-10.3-10.8-16.2c0-6 4.8-8.4 10.8-5.4s10.8 10.2 10.8 16.2z" fill="#28896d"/><g opacity=".5"><path d="m1079.1 442.9c0 1-.8 1.4-1.8.9s-1.8-1.7-1.8-2.7.8-1.4 1.8-.9 1.8 1.7 1.8 2.7z"/><path d="m1079.1 457c0 1-.8 1.4-1.8.9s-1.8-1.7-1.8-2.7.8-1.4 1.8-.9 1.8 1.7 1.8 2.7z"/><path d="m1073.5 440.9c.7 1 .7 2.2 0 2.5s-1.8-.2-2.5-1.2-.7-2.2 0-2.5c.7-.4 1.8.2 2.5 1.2z"/><path d="m1083.5 455.9c.7 1 .7 2.2 0 2.5s-1.8-.2-2.5-1.2-.7-2.2 0-2.5c.7-.4 1.8.2 2.5 1.2z"/><path d="m1070.2 443.7c1 .5 1.8 1.7 1.8 2.7s-.8 1.4-1.8.9-1.8-1.7-1.8-2.7.8-1.3 1.8-.9z"/><path d="m1084.4 450.8c1 .5 1.8 1.7 1.8 2.7s-.8 1.4-1.8.9-1.8-1.7-1.8-2.7.8-1.4 1.8-.9z"/><path d="m1071 449.7c.7-.3 1.8.2 2.5 1.2s.7 2.2 0 2.5-1.8-.2-2.5-1.2c-.7-1.1-.7-2.2 0-2.5z"/><path d="m1081 444.7c.7-.3 1.8.2 2.5 1.2s.7 2.2 0 2.5-1.8-.2-2.5-1.2c-.7-1.1-.7-2.2 0-2.5z"/></g><path d="m1072.2 407.8c-24.4-12.2-44.2-2.3-44.2 22.1s19.8 54.1 44.2 66.3 44.2 2.3 44.2-22.1-19.8-54.1-44.2-66.3zm0 83.1c-21.5-10.7-38.9-36.9-38.9-58.3 0-21.5 17.4-30.2 38.9-19.5s38.9 36.9 38.9 58.3-17.4 30.2-38.9 19.5z" fill="#fff" opacity=".1"/><g opacity=".5"><path d="m1069 409.7 7.1 3.5-3.5-5.3c-.1-.1-.2-.1-.3-.2-2.1-1.1-4.3-2-6.3-2.7z"/><path d="m1076 494.5-7.1-3.5 2.6 4.8c.2.1.4.2.6.3 2.1 1 4.1 1.9 6.2 2.6z"/><path d="m1049.1 406.7 6.1-.5-4.8-3.7c-.1 0-.2 0-.3 0-1.9.1-3.6.5-5.2.9z"/><path d="m1095.8 497-6.1.5 4 3.8h.5c1.8-.1 3.5-.5 5.1-.9z"/><path d="m1035.3 415.9 3.5-4.4-4.8-1.1c-.1.1-.1.1-.2.2-1.1 1.3-2 2.8-2.8 4.3z"/><path d="m1109.3 487.4-3.5 4.4 4.4 1.7c.1-.1.2-.2.3-.4 1-1.3 1.9-2.7 2.7-4.2z"/><path d="m1031.6 434.8v-7.1l-3.5 1.8v.3c0 2.1.2 4.3.5 6.5z"/><path d="m1112.9 468.4v7.1l3.5-.9c0-.2 0-.4 0-.6 0-2.1-.2-4.2-.4-6.4z"/><path d="m1038.6 458.2-3.5-7.9-1.3 4.2c0 .1.1.2.1.3 1.1 2.4 2.3 4.7 3.6 7z"/><path d="m1105.5 444.9 3.5 7.9 1.7-3.2c-.1-.2-.2-.4-.3-.7-1-2.3-2.2-4.6-3.5-6.8z"/><path d="m1054.7 480-6.1-6.6 1.3 5.5c.1.1.2.2.3.3 1.9 2 3.8 3.9 5.7 5.6z"/><path d="m1089.2 423.3 6.1 6.6-.5-4.6c-.2-.2-.3-.4-.5-.6-1.8-1.9-3.7-3.8-5.5-5.5z"/></g><g opacity=".5"><path d="m1065.2 393c-.6.3-1.2.5-1.8.8l-5.7 2.9-.6 1.1-12.2 5.7c1.6-.5 3.4-.8 5.2-.9h.3l12.3-5.2z"/><path d="m1120 416.3c-1.3-1.6-2.7-3.1-4.2-4.6l-6.9 8.2-20.2-.7c1.9 1.7 3.7 3.5 5.5 5.5.2.2.3.4.5.6l17.7.4z"/><path d="m1072.2 407.8c.1.1.2.1.3.2l19.6-1.9 4.8-8.9c-.6-.3-1.1-.6-1.7-.9-1.3-.6-2.5-1.2-3.7-1.7l-4.5 7.8-21 2.7c1.9.7 4.1 1.6 6.2 2.7z"/><path d="m1128.3 477.7 9.6-4.6c.7-2.4 1.2-5 1.4-7.8l-10.2 5.3-13.1-3c.3 2.2.4 4.3.4 6.4v.6z"/><path d="m1113.1 488.9c-.8 1.5-1.7 2.9-2.7 4.2-.1.1-.2.2-.3.4l2.9.4 7.6-3.8z"/><path d="m1110.8 449.6 17.1 3.6 8.7-7.6c-.8-2.6-1.9-5.3-3-7.9l-8.7 7.3-17.8-2.9c1.2 2.2 2.4 4.5 3.5 6.8 0 .2.1.5.2.7z"/></g><path d="m1106 499v-11l-56 28v11z" fill="#28896d"/><path d="m1106 499v-11l-56 28v11z" opacity=".29"/><path d="m1000 424 122 61-56 28-122-61z" fill="#2d3134"/><path d="m1122 496v-11l-56 28v11z" fill="#28896d"/><path d="m1122 496v-11l-56 28v11z" opacity=".29"/><path d="m944 474v-22l122 61v11l-16-8v11z" fill="#28896d"/><path d="m944 474v-22l122 61v11l-16-8v11z" opacity=".11"/><path d="m1020 417v-135l-94 47v135z" opacity=".29"/><path d="m944 381 56-28 82 50.5c14.9 9 24 25.1 24 42.5v31l-56 28-106-53z" fill="#28896d"/><g fill="#2d3134"><path d="m1042.6 451.3-7.6-3.8c-3.2-1.6-7 .7-7 4.3v25.6c0 5.3 3 10.1 7.7 12.4l10.8 5.4c2.2 1.1 4.9 1.1 7.1 0l52.4-26.2v-22.9c0-7.3-1.6-14.4-4.6-20.8l-51.9 26c-2.2 1.1-4.7 1.1-6.9 0z"/><path d="m958 409v2l32 16v-2z"/><path d="m958 414v2l32 16v-2z"/><path d="m958 419v2l32 16v-2z"/><path d="m958 424v2l32 16v-2z"/><path d="m958 429v2l32 16v-2z"/></g><path d="m944 452v-71l82 50.5c14.9 9 24 25.1 24 42.5v31z" opacity=".11"/><path d="m944 452v-71l82 50.5c14.9 9 24 25.1 24 42.5v31z" opacity=".11"/><path d="m1070 468.3v-5c0-2-2.1-3.3-3.9-2.4l-12.6 6.3c-.9.5-1.5 1.4-1.5 2.4v5c0 2 2.1 3.3 3.9 2.4l12.6-6.3c.9-.4 1.5-1.3 1.5-2.4z" fill="#fff"/><ellipse cx="1064.2" cy="467.4" fill="#2d3134" opacity=".3" rx="4.9" ry="3.2" transform="matrix(-.6313 .7756 -.7756 -.6313 2098.509 -62.9493)"/><ellipse cx="1058" cy="470.4" fill="#2d3134" opacity=".3" rx="4.9" ry="3.2" transform="matrix(-.6313 .7756 -.7756 -.6313 2090.6599 -53.2176)"/><path d="m1069.4 469.9-16.9-1.9c-.3.5-.6 1-.6 1.6v5c0 2 2.1 3.3 3.9 2.4l12.6-6.3c.5-.1.8-.4 1-.8z" fill="#fff" opacity=".3"/><path d="m1104 451.3v-5c0-2-2.1-3.3-3.9-2.4l-12.6 6.3c-.9.5-1.5 1.4-1.5 2.4v5c0 2 2.1 3.3 3.9 2.4l12.6-6.3c.9-.4 1.5-1.3 1.5-2.4z" fill="#fff"/><ellipse cx="1098.2" cy="450.4" fill="#2d3134" opacity=".3" rx="4.9" ry="3.2" transform="matrix(-.6313 .7756 -.7756 -.6313 2140.7878 -117.0499)"/><ellipse cx="1092" cy="453.4" fill="#2d3134" opacity=".3" rx="4.9" ry="3.2" transform="matrix(-.6313 .7756 -.7756 -.6313 2132.9387 -107.3182)"/><path d="m1103.4 452.9-16.9-1.9c-.3.5-.6 1-.6 1.6v5c0 2 2.1 3.3 3.9 2.4l12.6-6.3c.5-.1.8-.4 1-.8z" fill="#fff" opacity=".3"/><path d="m1101.4 425.3-55.4 27.7-.9-.5c3.2 6.6 4.9 13.9 4.9 21.5v31l56-28v-30.9c0-7.3-1.6-14.4-4.6-20.8z" opacity=".29"/><path d="m1092.5 416.9-49.3 23.9c-2.1 1-2.8 3.7-1.5 5.7v.1c1.1 1.6 3.2 2.1 4.9 1.3l49.3-23.9c2.1-1 2.9-3.7 1.6-5.7 0 0 0 0 0-.1-1.1-1.6-3.2-2.2-5-1.3z" fill="#fff" opacity=".1"/><path d="m924 226-94 47v15l98 49 94-47v-15z" fill="#28896d"/><path d="m830 288v-15l98 49v15z" opacity=".11"/><path d="m946.4 320.7c0 2.9 2.4 4.1 5.3 2.7 2.9-1.5 5.3-5 5.3-8 0-2.9-2.4-4.1-5.3-2.7-2.9 1.5-5.3 5.1-5.3 8z" fill="#fff"/><path d="m995.4 296.6c0 2.9 2.4 4.1 5.3 2.7 2.9-1.5 5.3-5 5.3-8 0-2.9-2.4-4.1-5.3-2.7-2.9 1.5-5.3 5-5.3 8z" fill="#fff"/><path d="m1020 286v-7l-12 6v7z" fill="#fc0"/><path d="m942 325v-7l-12 6v7z" fill="#fc0"/><ellipse cx="1002.2" cy="292.5" fill="#2d3134" opacity=".3" rx="3.1" ry="2.1" transform="matrix(-.6313 .7756 -.7756 -.6313 1861.709 -300.1643)"/><ellipse cx="952.2" cy="316.5" fill="#2d3134" opacity=".3" rx="3.1" ry="2.1" transform="matrix(-.6313 .7756 -.7756 -.6313 1798.7585 -222.2358)"/><path d="m1022 290v-15l-94 47v15z" opacity=".29"/><path d="m943 350c-4.4 0-8 1.8-8 4v78c0 2.2 3.6 4 8 4s8-1.8 8-4v-78c0-2.2-3.6-4-8-4z" fill="#2d3134"/><ellipse cx="943" cy="354" opacity=".8" rx="6" ry="2.5"/><path d="m957.4 452.3c0-1.3-1.1-3-2.4-3.7-.9-.4-1.6-.4-2 .1-1.5.5-3.1.3-4.5-.5-1.6-1-2.5-2.6-2.5-4.5v-137.7h-6v137.7c0 3.9 2 7.5 5.4 9.6 1.8 1.1 3.9 1.7 5.9 1.7 1.7 0 3.5-.4 5.1-1.2-.1 0 1-.7 1-1.5z" fill="#2d3134"/><path d="m946 350.3v1.5c1.8.4 3 1.2 3 2.2 0 1.4-2.7 2.5-6 2.5s-6-1.1-6-2.5c0-.9 1.2-1.7 3-2.2v-1.5c-2.9.6-5 2-5 3.7v78c0 2.2 3.6 4 8 4s8-1.8 8-4v-78c0-1.7-2.1-3.1-5-3.7z" fill="#2d3134"/><path d="m943 358c-4.4 0-8-1.8-8-4v78c0 2.2 3.6 4 8 4s8-1.8 8-4v-78c0 2.2-3.6 4-8 4z" opacity=".2"/><ellipse cx="943" cy="306" fill="#2d3134" rx="3" ry="2"/><path d="m983.2 452.8c-12.5-6.2-23.7-6.7-31.7-2.4l-22.9 11.5c-7.7 4.1-12.5 12.6-12.5 24.5 0 24.4 19.8 54.1 44.2 66.3 13.4 6.7 25.4 6.7 33.5 1.4l18.6-9.3c9.2-3.5 15-12.4 15-25.7 0-24.4-19.8-54.1-44.2-66.3z" fill="#2d3134"/><path d="m1004.4 530.7c0 24.4-19.8 34.3-44.2 22.1s-44.2-41.9-44.2-66.3 19.8-34.3 44.2-22.1 44.2 41.9 44.2 66.3z" opacity=".11"/><path d="m962.2 463.3c-13.3-6.6-25.2-6.7-33.3-1.5 7.7-2.5 17.5-1.4 28.2 3.9 24.4 12.2 44.2 41.9 44.2 66.3 0 11.1-4.1 19.2-10.9 23.6 9.8-3.2 16-12.3 16-26 0-24.4-19.8-54.1-44.2-66.3z" fill="#fff" opacity=".1"/><path d="m981.9 519.4c0 12-9.7 16.8-21.7 10.8s-21.7-20.5-21.7-32.5 9.7-16.8 21.7-10.8 21.7 20.5 21.7 32.5z" fill="#28896d"/><path d="m980.1 518.5c0 11-8.9 15.4-19.9 9.9s-19.9-18.8-19.9-29.8 8.9-15.4 19.9-9.9 19.9 18.8 19.9 29.8z" fill="#28896d"/><path d="m980.1 518.5c0 11-8.9 15.4-19.9 9.9s-19.9-18.8-19.9-29.8 8.9-15.4 19.9-9.9 19.9 18.8 19.9 29.8z" fill="#28896d"/><path d="m980.1 518.5c0 11-8.9 15.4-19.9 9.9s-19.9-18.8-19.9-29.8 8.9-15.4 19.9-9.9 19.9 18.8 19.9 29.8z" opacity=".29"/><path d="m960.2 488.7c-11-5.5-19.9-1-19.9 9.9 0 5.9 2.6 12.6 6.7 18.3l28.1-14c-3.6-6-9-11.2-14.9-14.2z" opacity=".15"/><path d="m964 491-5.2 2.8c-2.4 1.1-4.4 2.9-4.4 6.5 0 6 4.8 13.3 10.8 16.2 2.8 1.4 5.3 1.6 7.2.8l7.1-3.4c-1.6-8.5-7.7-17.6-15.5-22.9z" fill="#28896d"/><path d="m964 491-5.2 2.8c-2.4 1.1-4.4 2.9-4.4 6.5 0 6 4.8 13.3 10.8 16.2 2.8 1.4 5.3 1.6 7.2.8l7.1-3.4c-1.6-8.5-7.7-17.6-15.5-22.9z" opacity=".29"/><path d="m992.3 494.3c7.5 11.7 12.1 24.6 12.1 36.4 0 11-4 19.1-10.7 23.5l18.6-9.3c9.2-3.5 15-12.4 15-25.7 0-11.7-4.6-24.7-12-36.3z" opacity=".29"/><path d="m976.1 511.1c0 6-4.8 8.4-10.8 5.4s-10.8-10.3-10.8-16.2 4.8-8.4 10.8-5.4c6 2.9 10.8 10.2 10.8 16.2z" fill="#28896d"/><g opacity=".5"><path d="m967.1 499.5c0 1-.8 1.4-1.8.9s-1.8-1.7-1.8-2.7.8-1.4 1.8-.9 1.8 1.7 1.8 2.7z"/><path d="m967.1 513.6c0 1-.8 1.4-1.8.9s-1.8-1.7-1.8-2.7.8-1.4 1.8-.9 1.8 1.7 1.8 2.7z"/><path d="m961.5 497.5c.7 1 .7 2.2 0 2.5s-1.8-.2-2.5-1.2-.7-2.2 0-2.5c.7-.4 1.8.2 2.5 1.2z"/><path d="m971.5 512.5c.7 1 .7 2.2 0 2.5s-1.8-.2-2.5-1.2-.7-2.2 0-2.5c.7-.4 1.8.2 2.5 1.2z"/><path d="m958.2 500.4c1 .5 1.8 1.7 1.8 2.7s-.8 1.4-1.8.9-1.8-1.7-1.8-2.7.8-1.4 1.8-.9z"/><path d="m972.4 507.4c1 .5 1.8 1.7 1.8 2.7s-.8 1.4-1.8.9-1.8-1.7-1.8-2.7.8-1.4 1.8-.9z"/><path d="m959 506.3c.7-.3 1.8.2 2.5 1.2s.7 2.2 0 2.5-1.8-.2-2.5-1.2-.7-2.2 0-2.5z"/><path d="m969 501.3c.7-.3 1.8.2 2.5 1.2s.7 2.2 0 2.5-1.8-.2-2.5-1.2c-.7-1.1-.7-2.2 0-2.5z"/></g><path d="m960.2 464.4c-24.4-12.2-44.2-2.3-44.2 22.1s19.8 54.1 44.2 66.3 44.2 2.3 44.2-22.1-19.8-54.1-44.2-66.3zm0 83.1c-21.5-10.7-38.9-36.9-38.9-58.3 0-21.5 17.4-30.2 38.9-19.5s38.9 36.9 38.9 58.3c0 21.5-17.4 30.2-38.9 19.5z" fill="#fff" opacity=".1"/><g opacity=".5"><path d="m957 466.3 7.1 3.5-3.5-5.3c-.1-.1-.2-.1-.3-.2-2.1-1.1-4.3-2-6.3-2.7z"/><path d="m964 551.2-7.1-3.5 2.6 4.8c.2.1.4.2.6.3 2.1 1 4.1 1.9 6.2 2.6z"/><path d="m937.1 463.4 6.1-.5-4.8-3.7c-.1 0-.2 0-.3 0-1.9.1-3.6.5-5.2.9z"/><path d="m983.8 553.7-6.1.5 4 3.8h.5c1.8-.1 3.5-.5 5.1-.9z"/><path d="m923.3 472.5 3.5-4.4-4.8-1.1c-.1.1-.1.1-.2.2-1.1 1.3-2 2.8-2.8 4.3z"/><path d="m997.3 544.1-3.5 4.4 4.4 1.7c.1-.1.2-.2.3-.4 1-1.3 1.9-2.7 2.7-4.2z"/><path d="m919.6 491.4v-7.1l-3.5 1.8v.3c0 2.1.2 4.3.5 6.5z"/><path d="m1000.9 525v7.1l3.5-.9c0-.2 0-.4 0-.6 0-2.1-.2-4.2-.4-6.4z"/><path d="m926.6 514.8-3.5-7.9-1.3 4.2c0 .1.1.2.1.3 1.1 2.4 2.3 4.7 3.6 7z"/><path d="m993.5 501.5 3.5 7.9 1.7-3.2c-.1-.2-.2-.4-.3-.7-1-2.3-2.2-4.6-3.5-6.8z"/><path d="m942.7 536.6-6.1-6.6 1.3 5.5.3.3c1.9 2 3.8 3.9 5.7 5.6z"/><path d="m977.2 479.9 6.1 6.6-.5-4.6c-.2-.2-.3-.4-.5-.6-1.8-1.9-3.7-3.8-5.5-5.5z"/></g><g opacity=".5"><path d="m953.2 449.6c-.6.3-1.2.5-1.8.8l-5.7 2.9-.6 1.1-12.2 5.7c1.6-.5 3.4-.8 5.2-.9h.3l12.3-5.2z"/><path d="m1008 472.9c-1.3-1.6-2.7-3.1-4.2-4.6l-6.9 8.2-20.2-.7c1.9 1.7 3.7 3.5 5.5 5.5.2.2.3.4.5.6l17.7.4z"/><path d="m960.2 464.4c.1.1.2.1.3.2l19.6-1.9 4.8-8.9c-.6-.3-1.1-.6-1.7-.9-1.3-.6-2.5-1.2-3.7-1.7l-4.5 7.8-21 2.7c1.9.7 4.1 1.6 6.2 2.7z"/><path d="m1016.3 534.4 9.6-4.6c.7-2.4 1.2-5 1.4-7.8l-10.2 5.3-13.1-3c.3 2.2.4 4.3.4 6.4v.6z"/><path d="m1001.1 545.5c-.8 1.5-1.7 2.9-2.7 4.2-.1.1-.2.2-.3.4l2.9.4 7.6-3.8z"/><path d="m998.8 506.2 17.1 3.6 8.7-7.6c-.8-2.6-1.9-5.3-3-7.9l-8.7 7.3-17.8-2.9c1.2 2.2 2.4 4.5 3.5 6.8 0 .2.1.5.2.7z"/></g><path d="m922 418-19 10v-13l19-10z" opacity=".2"/><path d="m884 319v29.1l16.8 8.5 21.2 34v-52.5z" opacity=".15"/><path d="m616 145.8c0-6.4-5.2-14.2-11.6-17.4-1.9-1-3.8-1.4-5.4-1.4-1.7 0-154.3 76.5-206 102.5v32.2l201-100.2v10.4c0 3 4.9 5.4 10.9 5.4s10.9-2.4 10.9-5.4v-24c.1-.7.2-1.4.2-2.1z" fill="#2d3134"/><path d="m606 446.1-81.2 40.7-287.5-143.8-42.2 21.1-66.2-33.1-91.9 45.9 66.2 33.1-57.2 28.6 287.5 143.8-25.2 12.6 81.1 40.6 297.7-148.9z" fill="#262626" opacity=".3"/><path d="m485 461v-26l-148 74v26z" fill="#2d3134"/><path d="m485 461v-26l-148 74v26z" opacity=".29"/><path d="m476.9 362.4c-15-7.5-28.5-8-38.2-2.9l-27.6 13.9c-9.3 4.9-15.1 15.1-15.1 29.5 0 29.4 23.8 65.1 53.2 79.8 16.1 8.1 30.6 8.1 40.3 1.6l22.4-11.2c11.1-4.2 18.1-15 18.1-30.9.1-29.4-23.7-65.1-53.1-79.8z" fill="#2d3134"/><path d="m502.4 456.1c0 29.4-23.8 41.3-53.2 26.6s-53.2-50.4-53.2-79.8 23.8-41.3 53.2-26.6 53.2 50.4 53.2 79.8z" opacity=".11"/><path d="m451.6 375c-16-8-30.3-8.1-40.1-1.8 9.2-3 21.1-1.7 34 4.7 29.4 14.7 53.2 50.4 53.2 79.8 0 13.4-5 23.1-13.1 28.4 11.8-3.9 19.2-14.9 19.2-31.3 0-29.4-23.8-65.1-53.2-79.8z" fill="#fff" opacity=".1"/><path d="m475.3 442.5c0 14.4-11.7 20.2-26.1 13s-26.1-24.7-26.1-39.1 11.7-20.2 26.1-13 26.1 24.7 26.1 39.1z" fill="#cc291f"/><path d="m473.1 441.5c0 13.2-10.7 18.6-23.9 12s-23.9-22.7-23.9-35.9 10.7-18.6 23.9-12 23.9 22.7 23.9 35.9z" fill="#cc291f"/><path d="m473.1 441.5c0 13.2-10.7 18.6-23.9 12s-23.9-22.7-23.9-35.9 10.7-18.6 23.9-12 23.9 22.7 23.9 35.9z" fill="#cc291f"/><path d="m473.1 441.5c0 13.2-10.7 18.6-23.9 12s-23.9-22.7-23.9-35.9 10.7-18.6 23.9-12 23.9 22.7 23.9 35.9z" opacity=".29"/><path d="m449.2 405.6c-13.2-6.6-23.9-1.2-23.9 12 0 7.2 3.1 15.1 8.1 22l33.8-16.9c-4.4-7.2-10.8-13.6-18-17.1z" opacity=".15"/><path d="m453.8 408.3-6.3 3.3c-2.9 1.3-5.3 3.5-5.3 7.8 0 7.2 5.8 16 13 19.6 3.3 1.7 6.4 1.9 8.7 1l8.5-4.1c-1.9-10.2-9.3-21.1-18.6-27.6z" fill="#cc291f"/><path d="m453.8 408.3-6.3 3.3c-2.9 1.3-5.3 3.5-5.3 7.8 0 7.2 5.8 16 13 19.6 3.3 1.7 6.4 1.9 8.7 1l8.5-4.1c-1.9-10.2-9.3-21.1-18.6-27.6z" opacity=".29"/><path d="m487.9 412.3c9 14 14.5 29.6 14.5 43.8 0 13.3-4.9 22.9-12.9 28.2l22.4-11.2c11.1-4.2 18.1-15 18.1-30.9 0-14.1-5.5-29.7-14.5-43.7z" opacity=".29"/><path d="m468.4 432.5c0 7.2-5.8 10.1-13 6.5s-13-12.4-13-19.6 5.8-10.1 13-6.5c7.1 3.7 13 12.4 13 19.6z" fill="#cc291f"/><g opacity=".5"><path d="m457.4 418.6c0 1.2-1 1.7-2.1 1.1-1.2-.6-2.1-2-2.1-3.2s1-1.7 2.1-1.1c1.2.5 2.1 2 2.1 3.2z"/><path d="m457.4 435.6c0 1.2-1 1.7-2.1 1.1-1.2-.6-2.1-2-2.1-3.2s1-1.7 2.1-1.1c1.2.6 2.1 2 2.1 3.2z"/><path d="m450.8 416.2c.8 1.2.8 2.6 0 3s-2.2-.3-3-1.5-.8-2.6 0-3 2.2.3 3 1.5z"/><path d="m462.8 434.3c.8 1.2.8 2.6 0 3s-2.2-.3-3-1.5-.8-2.6 0-3c.9-.4 2.2.2 3 1.5z"/><path d="m446.8 419.6c1.2.6 2.1 2 2.1 3.2s-1 1.7-2.1 1.1c-1.2-.6-2.1-2-2.1-3.2s.9-1.7 2.1-1.1z"/><path d="m463.8 428.1c1.2.6 2.1 2 2.1 3.2s-1 1.7-2.1 1.1c-1.2-.6-2.1-2-2.1-3.2s1-1.7 2.1-1.1z"/><path d="m447.8 426.8c.8-.4 2.2.3 3 1.5s.8 2.6 0 3-2.2-.3-3-1.5c-.8-1.3-.8-2.6 0-3z"/><path d="m459.8 420.7c.8-.4 2.2.3 3 1.5s.8 2.6 0 3-2.2-.3-3-1.5-.8-2.6 0-3z"/></g><path d="m449.2 376.3c-29.4-14.7-53.2-2.8-53.2 26.6s23.8 65.1 53.2 79.8 53.2 2.8 53.2-26.6-23.8-65.1-53.2-79.8zm0 100c-25.9-12.9-46.8-44.4-46.8-70.2 0-25.9 21-36.3 46.8-23.4s46.8 44.4 46.8 70.2-20.9 36.4-46.8 23.4z" fill="#fff" opacity=".1"/><g opacity=".5"><path d="m445.3 378.6 8.5 4.3-4.2-6.4c-.1-.1-.2-.1-.4-.2-2.6-1.3-5.1-2.4-7.6-3.3z"/><path d="m453.8 480.8-8.5-4.3 3.2 5.8c.2.1.5.3.7.4 2.5 1.3 5 2.3 7.4 3.2z"/><path d="m421.3 375.1 7.4-.6-5.8-4.5c-.1 0-.2 0-.3 0-2.2.2-4.3.6-6.3 1.1z"/><path d="m477.7 483.8-7.4.6 4.9 4.5h.6c2.2-.2 4.2-.5 6.2-1.1z"/><path d="m404.8 386.1 4.3-5.2-5.8-1.3c-.1.1-.1.1-.2.2-1.3 1.6-2.4 3.3-3.3 5.2z"/><path d="m493.8 472.2-4.3 5.2 5.3 2c.1-.1.3-.3.4-.4 1.3-1.5 2.3-3.2 3.3-5.1z"/><path d="m400.3 408.8v-8.5l-4.2 2.1v.4c0 2.6.2 5.2.6 7.9z"/><path d="m498.2 449.3v8.5l4.2-1.1c0-.2 0-.5 0-.7 0-2.5-.2-5.1-.5-7.7z"/><path d="m408.8 437-4.3-9.5-1.6 5c.1.1.1.3.2.4 1.3 2.9 2.7 5.7 4.3 8.5z"/><path d="m489.3 421 4.3 9.5 2.1-3.8c-.1-.3-.2-.5-.3-.8-1.3-2.8-2.7-5.6-4.2-8.2z"/><path d="m428.1 463.2-7.4-7.9 1.6 6.6.3.3c2.2 2.4 4.5 4.7 6.9 6.8z"/><path d="m469.7 395 7.4 7.9-.6-5.6c-.2-.2-.4-.5-.6-.7-2.2-2.3-4.4-4.5-6.7-6.6z"/></g><g opacity=".5"><path d="m440.8 358.5c-.7.3-1.4.6-2.1 1l-6.9 3.5-.8 1.3-14.7 6.9c2-.6 4.1-1 6.3-1.1h.3l14.8-6.3z"/><path d="m506.8 386.6c-1.6-1.9-3.3-3.7-5-5.5l-8.4 9.9-24.3-.9c2.3 2.1 4.5 4.2 6.7 6.6.2.2.4.5.6.7l21.3.5z"/><path d="m449.2 376.3c.1.1.2.1.4.2l23.6-2.3 5.7-10.7c-.7-.4-1.3-.7-2-1.1-1.5-.8-3-1.4-4.5-2l-5.5 9.4-25.3 3.2c2.5.9 5 2 7.6 3.3z"/><path d="m516.8 460.5 11.5-5.5c.9-2.9 1.5-6 1.7-9.4l-12.3 6.4-15.7-3.7c.3 2.6.5 5.2.5 7.7v.7z"/><path d="m498.5 474c-.9 1.8-2 3.5-3.3 5.1-.1.1-.3.3-.4.4l3.5.5 9.1-4.6z"/><path d="m495.7 426.6 20.6 4.3 10.5-9.2c-1-3.2-2.2-6.4-3.6-9.5l-10.5 8.8-21.4-3.4c1.5 2.7 2.9 5.4 4.2 8.2-.1.3 0 .6.2.8z"/></g><path d="m515 454.5c-.2 0-.3 0-.5-.1-.4-.1-.7-.4-.9-.8l-16-34 2.7-1.3 15.3 32.6 15.4-7.7-19.4-45.7 2.8-1.2 20 47c.3.7 0 1.6-.7 1.9l-18 9c-.2.2-.5.3-.7.3z" fill="#cc291f"/><path d="m515 454.5c-.2 0-.3 0-.5-.1-.4-.1-.7-.4-.9-.8l-16-34 2.7-1.3 15.3 32.6 15.4-7.7-19.4-45.7 2.8-1.2 20 47c.3.7 0 1.6-.7 1.9l-18 9c-.2.2-.5.3-.7.3z" opacity=".29"/><path d="m444 420-90 45v12l82 62 90-45v-23z" fill="#cc291f"/><path d="m354 477v-12l82 51v23z" opacity=".11"/><path d="m526 494v-23l-90 45v23z" opacity=".29"/><path d="m288 366v-26l-148 74v26z" fill="#cc291f"/><path d="m246 405v-26l-106 53v26z" fill="#2d3134"/><path d="m288 391v-10l-148 74v10z" fill="#cc291f"/><path d="m444 420-75.5 37.8 60.5 30.2 68.9-34.5z" opacity=".2"/><path d="m107 359v5.8l-26 13v-31.8h-4v62c0 .7.4 1.3.9 1.7.3.2.7.3 1.1.3.3 0 .6-.1.9-.2l30-15c.7-.3 1.1-1 1.1-1.8v-34zm-26 45.8v-22.5l26-13v22.5z" fill="#cc291f"/><path d="m107 359v5.8l-26 13v-31.8h-4v62c0 .7.4 1.3.9 1.7.3.2.7.3 1.1.3.3 0 .6-.1.9-.2l30-15c.7-.3 1.1-1 1.1-1.8v-34zm-26 45.8v-22.5l26-13v22.5z" opacity=".29"/><path d="m249 463-6-2-21 12-12-7v-12l-18-17v-18l-43-22v-17l158 56z" fill="#cc291f"/><path d="m149 388.1v8.9l43 22v18l18 17v12l12 7 21-12 6 2 18.3-8.5z" opacity=".11"/><path d="m105 163-68 34v86l120 60 68-34v-86z" fill="#cc291f"/><path d="m37 233v-25l120 60v25z" fill="#e5e5e5"/><path d="m37 283v-86l120 60v86z" opacity=".11"/><path d="m225 309v-86l-68 34v86z" opacity=".29"/><path d="m312 190-22 11v43l22-11 44 22v-43z" fill="#cc291f"/><path d="m312 190v43l44 22v-43z" opacity=".11"/><path d="m312 190v43l-22 11v-43z" opacity=".29"/><path d="m354.5 211.3-39.5 19.7-62.5-31.2-86.5 43.2v64l40 20v22l114 57v32l148-74v-96z" fill="#cc291f"/><path d="m206 321v-25l114 57v25z" fill="#e5e5e5"/><path d="m468 364v-96l-148 74v96z" opacity=".29"/><path d="m206 285v64l114 57v-64z" opacity=".11"/><path d="m206 285 22-11-62-31v64l40 20z" opacity=".11"/><path d="m362 214-124 62v12l82 41 124-62v-12z" fill="#cc291f"/><path d="m238 288v-12l82 41v12z" opacity=".11"/><path d="m444 267v-12l-124 62v12z" opacity=".29"/><path d="m260.4 276 101.6-50.8 59.6 29.8-101.6 50.8z" opacity=".2"/><path d="m362 225.2-101.6 50.8 11.8 5.9 89.8-44.9z" opacity=".29"/><path d="m409.8 260.9 11.8-5.9-59.6-29.8v11.8z" opacity=".11"/><path d="m299 446-14 2-43-24-38-11-55-27v-11l146 51z" opacity=".5"/><path d="m320 438v-32l-114-57v-22l-94-47-22 11-13 55 130 65 49 9 91 46h77v-14l-66-33z" fill="#cc291f"/><path d="m320 438v-32l-230-115-13 55 130 65 49 9 91 46v-14z" opacity=".11"/><path d="m347 452h77v14h-77z" fill="#e5e5e5"/><path d="m347 452h77v14h-77z" opacity=".15"/><path d="m358 419 66 33v14l10 5v-25l-76-38z" fill="#cc291f"/><path d="m516 430v-12l-82 41v12z" fill="#cc291f"/><path d="m434 459 82-41v-87l-78-36-80 39v74l76 38z" fill="#656565"/><path d="m516 430v-99l-82 41v99z" opacity=".29"/><path d="m516 371v-40l-82 41z" fill="#fff" opacity=".1"/><path d="m358 419 66 33v14l10 5v-99l-76-38z" opacity=".11"/><path d="m358 334v74l74-37z" opacity=".15"/><path d="m444 279-90 45v12l82 41 90-45v-12z" fill="#cc291f"/><path d="m354 336v-12l82 41v12z" opacity=".11"/><path d="m524 331v-7l-12 6v7z" fill="#fff"/><path d="m450 368v-7l-12 6v7z" fill="#fff"/><path d="m464 361v-7l-12 6v7z" fill="#fff"/><path d="m510 338v-7l-12 6v7z" fill="#fff"/><path d="m526 332v-12l-90 45v12z" opacity=".29"/><path d="m252 183c-4.4 0-8 1.8-8 4v28c0 2.2 3.6 4 8 4s8-1.8 8-4v-28c0-2.2-3.6-4-8-4z" fill="#2d3134"/><ellipse cx="252" cy="187" opacity=".8" rx="6" ry="2.5"/><path d="m255 183.3v1.5c1.8.4 3 1.2 3 2.2 0 1.4-2.7 2.5-6 2.5s-6-1.1-6-2.5c0-.9 1.2-1.7 3-2.2v-1.5c-2.9.6-5 2-5 3.7v28c0 2.2 3.6 4 8 4s8-1.8 8-4v-28c0-1.7-2.1-3.1-5-3.7z" fill="#2d3134"/><path d="m252 191c-4.4 0-8-1.8-8-4v28c0 2.2 3.6 4 8 4s8-1.8 8-4v-28c0 2.2-3.6 4-8 4z" opacity=".2"/><path d="m143 407.6c-8.5-4.3-16.2-4.6-21.7-1.7l-15.7 7.9c-5.3 2.8-8.6 8.6-8.6 16.8 0 16.7 13.6 37 30.3 45.4 9.2 4.6 17.4 4.6 22.9.9l12.8-6.4c6.3-2.4 10.3-8.5 10.3-17.6 0-16.6-13.6-37-30.3-45.3z" fill="#2d3134"/><path d="m139 409.3c-6.7-3.3-13-4.4-18.3-3.1l-3.6 1.8.1.1c-.2 0-.4.1-.7.2l-3.6 1.8.1.1c-.2 0-.4.1-.6.2l-3.6 1.8.2.4c5.6-3 13.2-2.4 21.3 1.7 16.6 8.3 30 28.5 30 45 0 8.5-3.7 14.8-10 17.2l.1.4 12.5-6.3c.2-.1.4-.2.5-.2 3.9-3.3 6-8.7 6-15.3.1-16.9-13.6-37.4-30.4-45.8zm17.1 64.3c3.2-3.4 5-8.3 5-14.3 0-16.8-13.7-37.4-30.5-45.8-6-3-11.8-4.2-16.7-3.4 5.5-2.5 12.8-1.8 20.5 2.1 16.6 8.3 30 28.5 30 45 .1 7.7-2.9 13.6-8.3 16.4zm4.2-2.1c3.2-3.4 5-8.3 5-14.3 0-16.8-13.7-37.4-30.5-45.8-6-3-11.8-4.2-16.7-3.4 5.5-2.5 12.8-1.8 20.5 2.1 16.6 8.3 30 28.5 30 45 .1 7.7-3 13.6-8.3 16.4z" opacity=".5"/><path d="m157.5 460.9c0 16.7-13.6 23.5-30.3 15.1s-30.3-28.7-30.3-45.4 13.6-23.5 30.3-15.1 30.3 28.7 30.3 45.4z" opacity=".11"/><path d="m128.6 414.7c-9.1-4.5-17.3-4.6-22.8-1 5.2-1.7 12-1 19.3 2.7 16.7 8.4 30.3 28.7 30.3 45.4 0 7.6-2.8 13.2-7.5 16.2 6.7-2.2 10.9-8.5 10.9-17.8.1-16.8-13.5-37.1-30.2-45.5z" fill="#fff" opacity=".1"/><path d="m142.1 453.2c0 8.2-6.6 11.5-14.8 7.4s-14.8-14.1-14.8-22.2c0-8.2 6.6-11.5 14.8-7.4 8.2 4 14.8 14 14.8 22.2z" fill="#cc291f"/><path d="m140.9 452.6c0 7.5-6.1 10.6-13.6 6.8s-13.6-12.9-13.6-20.4 6.1-10.6 13.6-6.8c7.5 3.7 13.6 12.8 13.6 20.4z" fill="#cc291f"/><path d="m140.9 452.6c0 7.5-6.1 10.6-13.6 6.8s-13.6-12.9-13.6-20.4 6.1-10.6 13.6-6.8c7.5 3.7 13.6 12.8 13.6 20.4z" fill="#cc291f"/><path d="m140.9 452.6c0 7.5-6.1 10.6-13.6 6.8s-13.6-12.9-13.6-20.4 6.1-10.6 13.6-6.8c7.5 3.7 13.6 12.8 13.6 20.4z" opacity=".29"/><path d="m127.3 432.1c-7.5-3.8-13.6-.7-13.6 6.8 0 4.1 1.8 8.6 4.6 12.5l19.2-9.6c-2.5-4-6.2-7.6-10.2-9.7z" opacity=".15"/><path d="m129.9 433.7-3.6 1.9c-1.7.7-3 2-3 4.4 0 4.1 3.3 9.1 7.4 11.1 1.9 1 3.6 1.1 5 .6l4.9-2.3c-1.2-5.8-5.4-12-10.7-15.7z" fill="#cc291f"/><path d="m129.9 433.7-3.6 1.9c-1.7.7-3 2-3 4.4 0 4.1 3.3 9.1 7.4 11.1 1.9 1 3.6 1.1 5 .6l4.9-2.3c-1.2-5.8-5.4-12-10.7-15.7z" opacity=".29"/><path d="m149.3 436c5.1 8 8.3 16.9 8.3 24.9 0 7.5-2.8 13-7.3 16.1l12.8-6.4c6.3-2.4 10.3-8.5 10.3-17.6 0-8-3.1-16.9-8.2-24.9z" opacity=".29"/><path d="m138.2 447.4c0 4.1-3.3 5.8-7.4 3.7-4.1-2-7.4-7-7.4-11.1s3.3-5.8 7.4-3.7c4 2.1 7.4 7.1 7.4 11.1z" fill="#cc291f"/><g opacity=".5"><path d="m132 439.5c0 .7-.5.9-1.2.6s-1.2-1.1-1.2-1.8.5-.9 1.2-.6c.6.3 1.2 1.1 1.2 1.8z"/><path d="m132 449.2c0 .7-.5.9-1.2.6s-1.2-1.1-1.2-1.8.5-.9 1.2-.6c.6.3 1.2 1.1 1.2 1.8z"/><path d="m128.2 438.2c.5.7.5 1.5 0 1.7s-1.2-.1-1.7-.9c-.5-.7-.5-1.5 0-1.7s1.2.2 1.7.9z"/><path d="m135 448.5c.5.7.5 1.5 0 1.7s-1.2-.1-1.7-.9-.5-1.5 0-1.7 1.3.1 1.7.9z"/><path d="m125.9 440.1c.7.3 1.2 1.1 1.2 1.8s-.5.9-1.2.6-1.2-1.1-1.2-1.8.5-.9 1.2-.6z"/><path d="m135.6 445c.7.3 1.2 1.1 1.2 1.8s-.5.9-1.2.6-1.2-1.1-1.2-1.8.5-1 1.2-.6z"/><path d="m126.5 444.2c.5-.2 1.2.1 1.7.9.5.7.5 1.5 0 1.7s-1.2-.1-1.7-.9c-.5-.7-.5-1.5 0-1.7z"/><path d="m133.3 440.8c.5-.2 1.2.1 1.7.9.5.7.5 1.5 0 1.7s-1.2-.1-1.7-.9c-.5-.7-.5-1.5 0-1.7z"/></g><path d="m127.3 415.5c-16.7-8.4-30.3-1.6-30.3 15.1s13.6 37 30.3 45.4 30.3 1.6 30.3-15.1c-.1-16.7-13.6-37.1-30.3-45.4zm0 56.9c-14.7-7.4-26.6-25.2-26.6-39.9s11.9-20.7 26.6-13.3 26.6 25.2 26.6 39.9-11.9 20.6-26.6 13.3z" fill="#fff" opacity=".1"/><path d="m326.8 439.4c-15-7.5-28.5-8-38.2-2.9l-27.6 13.9c-9.3 4.9-15.1 15.1-15.1 29.5 0 29.4 23.8 65.1 53.2 79.8 16.1 8.1 30.6 8.1 40.3 1.6l22.4-11.2c11.1-4.2 18.1-15 18.1-30.9.1-29.4-23.7-65.1-53.1-79.8z" fill="#2d3134"/><path d="m352.4 533.1c0 29.4-23.8 41.3-53.2 26.6s-53.2-50.4-53.2-79.8 23.8-41.3 53.2-26.6 53.2 50.4 53.2 79.8z" opacity=".11"/><path d="m301.6 452c-16-8-30.3-8.1-40.1-1.8 9.2-3 21.1-1.7 34 4.7 29.4 14.7 53.2 50.4 53.2 79.8 0 13.4-5 23.1-13.1 28.4 11.8-3.9 19.2-14.9 19.2-31.3 0-29.4-23.9-65.1-53.2-79.8z" fill="#fff" opacity=".1"/><path d="m325.2 519.5c0 14.4-11.7 20.2-26.1 13s-26.1-24.7-26.1-39.1 11.7-20.2 26.1-13 26.1 24.7 26.1 39.1z" fill="#cc291f"/><path d="m323.1 518.5c0 13.2-10.7 18.6-23.9 12s-23.9-22.7-23.9-35.9 10.7-18.6 23.9-12 23.9 22.7 23.9 35.9z" fill="#cc291f"/><path d="m323.1 518.5c0 13.2-10.7 18.6-23.9 12s-23.9-22.7-23.9-35.9 10.7-18.6 23.9-12 23.9 22.7 23.9 35.9z" fill="#cc291f"/><path d="m323.1 518.5c0 13.2-10.7 18.6-23.9 12s-23.9-22.7-23.9-35.9 10.7-18.6 23.9-12 23.9 22.7 23.9 35.9z" opacity=".29"/><path d="m299.2 482.6c-13.2-6.6-23.9-1.2-23.9 12 0 7.2 3.1 15.1 8.1 22l33.8-16.9c-4.5-7.2-10.9-13.6-18-17.1z" opacity=".15"/><path d="m303.8 485.3-6.3 3.3c-2.9 1.3-5.3 3.5-5.3 7.8 0 7.2 5.8 16 13 19.6 3.3 1.7 6.4 1.9 8.7 1l8.5-4.1c-1.9-10.2-9.3-21.1-18.6-27.6z" fill="#cc291f"/><path d="m303.8 485.3-6.3 3.3c-2.9 1.3-5.3 3.5-5.3 7.8 0 7.2 5.8 16 13 19.6 3.3 1.7 6.4 1.9 8.7 1l8.5-4.1c-1.9-10.2-9.3-21.1-18.6-27.6z" opacity=".29"/><path d="m337.8 489.3c9 14 14.5 29.6 14.5 43.8 0 13.3-4.9 22.9-12.9 28.2l22.4-11.2c11.1-4.2 18.1-15 18.1-30.9 0-14.1-5.5-29.7-14.5-43.7z" opacity=".29"/><path d="m318.3 509.5c0 7.2-5.8 10.1-13 6.5s-13-12.4-13-19.6 5.8-10.1 13-6.5c7.2 3.7 13 12.4 13 19.6z" fill="#cc291f"/><g opacity=".5"><path d="m307.4 495.6c0 1.2-1 1.7-2.1 1.1-1.2-.6-2.1-2-2.1-3.2s1-1.7 2.1-1.1c1.2.5 2.1 2 2.1 3.2z"/><path d="m307.4 512.6c0 1.2-1 1.7-2.1 1.1-1.2-.6-2.1-2-2.1-3.2s1-1.7 2.1-1.1c1.2.6 2.1 2 2.1 3.2z"/><path d="m300.8 493.2c.8 1.2.8 2.6 0 3s-2.2-.3-3-1.5-.8-2.6 0-3 2.1.3 3 1.5z"/><path d="m312.8 511.3c.8 1.2.8 2.6 0 3s-2.2-.3-3-1.5-.8-2.6 0-3 2.2.2 3 1.5z"/><path d="m296.8 496.6c1.2.6 2.1 2 2.1 3.2s-1 1.7-2.1 1.1c-1.2-.6-2.1-2-2.1-3.2-.1-1.2.9-1.7 2.1-1.1z"/><path d="m313.8 505.1c1.2.6 2.1 2 2.1 3.2s-1 1.7-2.1 1.1c-1.2-.6-2.1-2-2.1-3.2s.9-1.7 2.1-1.1z"/><path d="m297.8 503.8c.8-.4 2.2.3 3 1.5s.8 2.6 0 3-2.2-.3-3-1.5-.9-2.6 0-3z"/><path d="m309.8 497.7c.8-.4 2.2.3 3 1.5s.8 2.6 0 3-2.2-.3-3-1.5-.8-2.6 0-3z"/></g><path d="m299.2 453.3c-29.4-14.7-53.2-2.8-53.2 26.6s23.8 65.1 53.2 79.8 53.2 2.8 53.2-26.6-23.8-65.1-53.2-79.8zm0 100c-25.9-12.9-46.8-44.4-46.8-70.2 0-25.9 21-36.3 46.8-23.4s46.8 44.4 46.8 70.2c0 25.9-21 36.4-46.8 23.4z" fill="#fff" opacity=".1"/><g opacity=".5"><path d="m295.3 455.6 8.5 4.3-4.2-6.4c-.1-.1-.2-.1-.4-.2-2.6-1.3-5.1-2.4-7.6-3.3z"/><path d="m303.8 557.8-8.5-4.3 3.2 5.8c.2.1.5.3.7.4 2.5 1.3 5 2.3 7.4 3.2z"/><path d="m271.3 452.1 7.4-.6-5.8-4.5c-.1 0-.2 0-.3 0-2.2.2-4.3.6-6.3 1.1z"/><path d="m327.6 560.8-7.4.6 4.9 4.5h.6c2.2-.2 4.2-.5 6.2-1.1z"/><path d="m254.8 463.1 4.3-5.2-5.8-1.3c-.1.1-.1.1-.2.2-1.3 1.6-2.4 3.3-3.3 5.2z"/><path d="m343.8 549.2-4.3 5.2 5.3 2c.1-.1.3-.3.4-.4 1.3-1.5 2.3-3.2 3.3-5.1z"/><path d="m250.3 485.8v-8.5l-4.2 2.1v.4c0 2.6.2 5.2.6 7.9z"/><path d="m348.2 526.3v8.5l4.2-1.1c0-.2 0-.5 0-.7 0-2.5-.2-5.1-.5-7.7z"/><path d="m258.8 514-4.3-9.5-1.6 5c.1.1.1.3.2.4 1.3 2.9 2.7 5.7 4.3 8.5z"/><path d="m339.3 498 4.3 9.5 2.1-3.8c-.1-.3-.2-.5-.3-.8-1.3-2.8-2.7-5.6-4.2-8.2z"/><path d="m278.1 540.2-7.4-7.9 1.6 6.6c.1.1.2.2.3.3 2.2 2.4 4.5 4.7 6.9 6.8z"/><path d="m319.7 472 7.4 7.9-.6-5.6c-.2-.2-.4-.5-.6-.7-2.2-2.3-4.4-4.5-6.7-6.6z"/></g><g opacity=".5"><path d="m290.8 435.5c-.7.3-1.4.6-2.1 1l-6.9 3.5-.8 1.3-14.7 6.9c2-.6 4.1-1 6.3-1.1h.3l14.8-6.3z"/><path d="m356.7 463.6c-1.6-1.9-3.3-3.7-5-5.5l-8.4 9.9-24.3-.9c2.3 2.1 4.5 4.2 6.7 6.6.2.2.4.5.6.7l21.3.5z"/><path d="m299.2 453.3c.1.1.2.1.4.2l23.6-2.3 5.7-10.7c-.7-.4-1.3-.7-2-1.1-1.5-.8-3-1.4-4.5-2l-5.5 9.4-25.3 3.2c2.4.9 5 2 7.6 3.3z"/><path d="m366.7 537.5 11.5-5.5c.9-2.9 1.5-6 1.7-9.4l-12.3 6.4-15.7-3.7c.3 2.6.5 5.2.5 7.7v.7z"/><path d="m348.4 551c-.9 1.8-2 3.5-3.3 5.1-.1.1-.3.3-.4.4l3.5.5 9.1-4.6z"/><path d="m345.6 503.6 20.6 4.3 10.5-9.2c-1-3.2-2.2-6.4-3.6-9.5l-10.5 8.8-21.4-3.4c1.5 2.7 2.9 5.4 4.2 8.2 0 .3.1.6.2.8z"/></g><path d="m611 396 8-4 74 37v39l-8 4-19.5 5.4c-6.2 1.7-12.8 1.9-19.2.5l-4.7-1.1c-10.7-2.4-19.8-9.1-25.3-18.6-3.5-6-5.4-12.9-5.4-19.8v-42.4z" fill="#cc291f"/><path d="m611 396v42.4c0 7 1.9 13.8 5.4 19.8 5.5 9.4 14.7 16.2 25.3 18.6l4.7 1.1c6.3 1.4 12.9 1.3 19.2-.5l19.4-5.4v-39z" opacity=".11"/><path d="m685 433v39l8-4v-39z" opacity=".29"/><path d="m619 407-274 137v53l8 4 274-137v-53z" fill="#cc291f"/><path d="m627 464v-53l-274 137v53z" opacity=".29"/><path d="m639.8 468.6-15-33.6 15-18.6 30.1 15.1 15.1 33.6-15.1 18.5z" fill="#2d3134"/><path d="m669.5 482.7-16 8.1 11.4-14-.2-.4 20.8-10.5-.9-1.8-20.7 10.5-14.2-31.8 20.8-10.5-.9-1.8-20.8 10.5-27.9-13.9 19.3-9.8-.9-1.8-20.7 10.4-.8-.4c-1.2-.6-2.7-.1-3.4 1.1-.2.5-.3 1-.2 1.5l-18.9 9.5-.8-.4c-1.2-.6-2.7-.1-3.4 1.1-.2.5-.3 1-.2 1.5l-18.9 9.5-.8-.4c-1.2-.6-2.7-.1-3.4 1.1-.2.5-.3 1-.2 1.5l-18.9 9.5-.8-.4c-1.2-.6-2.7-.1-3.4 1.1-.2.5-.3 1-.2 1.5l-18.9 9.5-.8-.4c-1.2-.6-2.7-.1-3.4 1.1-.2.5-.3 1-.2 1.5l-18.9 9.5-.8-.4c-1.2-.6-2.7-.1-3.4 1.1-.2.5-.3 1-.2 1.5l-18.9 9.5-.8-.4c-1.2-.6-2.7-.1-3.4 1.1-.2.5-.3 1-.2 1.5l-18.9 9.5-.8-.4c-1.2-.6-2.7-.1-3.4 1.1-.2.5-.3 1-.2 1.5l-18.9 9.5-.8-.4c-1.2-.6-2.7-.1-3.4 1.1-.2.5-.3 1-.2 1.5l-18.9 9.5-.8-.4c-1.2-.6-2.7-.1-3.4 1.1-.2.5-.3 1-.2 1.5l-21.5 10.9.9 1.8 21.7-11c.1 0 .1.1.2.1l8.4 4.2-46.3 23.4.9 1.8 47.6-24.1 17 8.5-20.3 10.3.9 1.8 21.3-10.8 7.2 16-59.2 30.7.9 1.8 59.4-30 5.9 13.1-1.4 1.7-19.6 9.9.9 1.8 15.6-7.9-9.6 11.8c-.5.6-.6 1.3-.5 2l-21.5 10.9.9 1.8 21.7-11c.4.3.9.4 1.3.4.7 0 1.4-.3 1.9-.9l1.6-1.9 18.4-9.3c.4.3.9.4 1.3.4.7 0 1.4-.3 1.9-.9l1.6-1.9 18.4-9.3c.4.3.9.4 1.3.4.7 0 1.4-.3 1.9-.9l1.6-1.9 18.4-9.3c.4.3.9.4 1.3.4.7 0 1.4-.3 1.9-.9l1.6-1.9 18.4-9.3c.4.3.9.4 1.3.4.7 0 1.4-.3 1.9-.9l1.6-1.9 18.4-9.3c.4.3.9.4 1.3.4.7 0 1.4-.3 1.9-.9l1.6-1.9 18.4-9.3c.4.3.9.4 1.3.4.7 0 1.4-.3 1.9-.9l1.6-1.9 18.4-9.3c.4.3.9.4 1.3.4.7 0 1.4-.3 1.9-.9l1.6-1.9 18.4-9.3c.4.3.9.4 1.3.4.7 0 1.4-.3 1.9-.9l1.6-1.9 18.4-9.3c.4.3.9.4 1.3.4.7 0 1.4-.3 1.9-.9l1.6-1.9 20-10.1zm-10.5-6.6-1.4 1.7-17 8.6-6.2-13.9 5.9-3-.9-1.8-5.8 3-7.2-16 18.8-9.5zm-196.4 59-17-8.5 17.7-9 17 8.5zm42.9-19.4 7.2 16-18.8 9.5-7.2-16zm4.5-2.3 18.8-9.5 7.2 16-18.8 9.5zm23.2-11.8 18.8-9.5 7.2 16-18.8 9.5zm23.3-11.7 18.8-9.5 7.2 16-18.8 9.5zm23.3-11.8 18.8-9.5 7.2 16-18.8 9.5zm23.3-11.7 18.8-9.5 7.2 16-18.8 9.5zm-.8-1.9-17-8.5 17.7-9 17 8.5zm-5.6 2.8-17.7 9-17-8.5 17.7-9zm-23.3 11.8-17.7 9-17-8.5 17.7-9zm-23.2 11.8-17.7 9-17-8.5 17.7-9zm-23.3 11.7-17.7 9-17-8.5 17.7-9zm-23.3 11.8-17.7 9-17-8.5 17.7-9zm-21.4 13 7.2 16-18.8 9.5-7.2-16zm8 17.9 5.9 13.1-1.4 1.7-17 8.6-6.2-13.9zm4.5-2.3 18.8-9.5 5.9 13.1-1.4 1.7-17 8.6zm23.3-11.7 18.8-9.5 5.9 13.1-1.4 1.7-17 8.6zm23.2-11.8 18.8-9.5 5.9 13.1-1.4 1.7-17 8.6zm23.3-11.8 18.8-9.5 5.9 13.1-1.4 1.7-17 8.6zm23.3-11.7 18.8-9.5 5.9 13.1-1.4 1.7-17 8.6zm23.3-11.8 18.8-9.5 5.9 13.1-1.4 1.7-17 8.6zm14.4-31.4-17-8.5 16.7-8.4-.7-1.4 18.8 9.4zm-10.1-22.9c.1 0 .1.1.2.1l8.4 4.2-17.7 9-8.7-4.3zm-23.3 11.7c.1 0 .1.1.2.1l8.4 4.2-17.7 9-8.7-4.3zm-23.2 11.8c.1 0 .1.1.2.1l8.4 4.2-17.7 9-8.7-4.3zm-23.3 11.7c.1 0 .1.1.2.1l8.4 4.2-17.7 9-8.7-4.3zm-23.3 11.8c.1 0 .1.1.2.1l8.4 4.2-17.7 9-8.7-4.3zm-23.3 11.8c.1 0 .1.1.2.1l8.4 4.2-17.7 9-8.7-4.3zm-23.2 11.7c.1 0 .1.1.2.1l8.4 4.2-17.7 9-8.7-4.3zm-23.3 11.8c.1 0 .1.1.2.1l8.4 4.2-17.7 9-8.7-4.3zm-41 20.7 17.7-9c.1 0 .1.1.2.1l8.4 4.2-17.7 9zm27.8 13.9-17-8.5 17.7-9 17 8.5zm.8 1.9 18.8-9.5 7.2 16-18.8 9.5zm8 17.8 18.9-9.5 5.9 13.1-1.4 1.7-17 8.6zm7.1 15.8 13.1-6.6-9.6 11.8c-.5.6-.6 1.3-.5 2l-14.2 7.2 11.4-14zm23.3-11.8 13.1-6.6-9.6 11.8c-.5.6-.6 1.3-.5 2l-14.2 7.2 11.4-14zm23.3-11.7 13.1-6.6-9.6 11.8c-.5.6-.6 1.3-.5 2l-14.2 7.2 11.4-14zm23.2-11.8 13.1-6.6-9.6 11.8c-.5.6-.6 1.3-.5 2l-14.2 7.2 11.4-14zm23.3-11.7 13.1-6.6-9.6 11.8c-.5.6-.6 1.3-.5 2l-14.2 7.2 11.4-14zm23.3-11.8 13.1-6.6-9.6 11.8c-.5.6-.6 1.3-.5 2l-14.2 7.2 11.4-14zm23.3-11.8 13.1-6.6-9.6 11.8c-.5.6-.6 1.3-.5 2l-14.2 7.2 11.4-14zm23.2-11.7 13.1-6.6-9.6 11.8c-.5.6-.6 1.3-.5 2l-14.2 7.2 11.4-14zm23.3-11.8 13.1-6.6-9.6 11.8c-.5.6-.6 1.3-.5 2l-14.2 7.2 11.4-14z" fill="#2d3134"/><path d="m383.8 597.9-15.1-33.6 15.1-18.5 30.1 15 15.1 33.6-15.1 18.6z" fill="#2d3134"/><path d="m329 537 8-4 74 37v39l-8 4-19.5 5.4c-6.2 1.7-12.8 1.9-19.2.5l-4.7-1.1c-10.7-2.4-19.8-9.1-25.3-18.6-3.5-6-5.4-12.9-5.4-19.8v-42.4z" fill="#cc291f"/><path d="m329 537v42.4c0 7 1.9 13.8 5.4 19.8 5.5 9.4 14.7 16.2 25.3 18.6l4.7 1.1c6.3 1.4 12.9 1.3 19.2-.5l19.4-5.4v-39z" opacity=".11"/><path d="m403 574v39l8-4v-39z" opacity=".29"/></svg>