<svg viewBox="0 0 32 56" xmlns="http://www.w3.org/2000/svg"><circle cx="25.5" cy="26.3" fill="#539b00" r="5.5"/><path d="m30.9 25.5c-.4 2.6-2.7 4.6-5.4 4.6h-.1c-.2.6-.5 1.1-.8 1.6.3 0 .6.1.9.1 3 0 5.5-2.5 5.5-5.5 0-.2 0-.5-.1-.8z" opacity=".3"/><ellipse cx="16.5" cy="47" opacity=".3" rx="7.5" ry="4"/><path d="m18 25v22c0 .6-.7 1-1.5 1s-1.5-.4-1.5-1v-22z" fill="#825012"/><circle cx="23" cy="19" fill="#539b00" r="9"/><path d="m16 37.4c-2.6 0-3-.9-3-3.4v-8h-1v10c0 1.7 1.3 3 3 3h1z" fill="#825012"/><path d="m17 38.8c1.7 0 3-.4 3-2.1v-9.7h1v10c0 1.7-1.3 3-3 3h-1z" fill="#825012"/><path d="m13 35.8c-1.7 0-2-1.3-2-2.1v-9.7h-1v10c0 1.7 1.3 3 3 3z" fill="#825012"/><circle cx="10.1" cy="26.9" fill="#539b00" r="7.6"/><circle cx="5.1" cy="21.9" fill="#539b00" r="5.1"/><circle cx="9" cy="18" fill="#539b00" r="8"/><circle cx="15" cy="14" fill="#539b00" r="8"/><circle cx="22.5" cy="12.5" fill="#539b00" r="4.5"/><path d="m15.5 10c2.4 0 4.3 1.9 4.5 4.2.5-.1 1-.2 1.5-.2 2.5 0 4.6 1.6 5.3 3.9.1-.4.2-.9.2-1.4 0-2.5-2-4.5-4.5-4.5-.5 0-1 .1-1.5.3-.1-1.8-1.6-3.3-3.5-3.3-1 0-1.9.4-2.5 1z" fill="#fff" opacity=".2"/><circle cx="19.2" cy="28.4" fill="#539b00" r="7.8"/><path d="m19.6 34.5c-2.5 0-4.7-1.1-6.3-2.7-1.1.6-2.4.9-3.7.9-2.8 0-5.3-1.4-6.8-3.5 1 3.1 3.8 5.4 7.2 5.4 1.2 0 2.3-.3 3.4-.8 1.4 1.5 3.4 2.5 5.7 2.5 3.4 0 6.3-2.2 7.3-5.2-1.5 2-4 3.4-6.8 3.4z" opacity=".3"/><path d="m3.5 23.3c-1.5-.5-2.6-1.6-3.2-3.1-.2.5-.3 1.1-.3 1.7 0 1.9 1 3.5 2.6 4.4.1-1.1.4-2.1.9-3z" opacity=".3"/><g fill="#cc291f"><circle cx="15.5" cy="10.5" r="1.5"/><circle cx="9.5" cy="12.5" r="1.5"/><circle cx="13.5" cy="17.5" r="1.5"/><circle cx="5.5" cy="24.5" r="1.5"/><circle cx="5.5" cy="18.5" r="1.5"/><circle cx="10.5" cy="22.5" r="1.5"/><circle cx="17.5" cy="29.5" r="1.5"/><circle cx="22.5" cy="19.5" r="1.5"/><circle cx="19.5" cy="24.5" r="1.5"/><circle cx="21.5" cy="13.5" r="1.5"/><circle cx="29.5" cy="18.5" r="1.5"/><circle cx="25.5" cy="28.5" r="1.5"/><circle cx="27.5" cy="23.5" r="1.5"/><circle cx="8.5" cy="29.5" r="1.5"/></g><path d="m9.1 15c2.2 0 4.1 1.3 4.9 3.1.3-.1.7-.1 1.1-.1 1.8 0 3.4.9 4.4 2.2-.4-1.8-2-3.2-3.9-3.2h-.1c-.5-2.3-2.5-4-4.9-4-2 0-3.7 1.2-4.5 2.9.8-.6 1.9-.9 3-.9z" fill="#fff" opacity=".2"/><path d="m16 25c1.2 0 2.3.3 3.3.8 1.2-1.1 2.9-1.8 4.7-1.8 1.6 0 3.1.5 4.2 1.4-1.1-2-3.3-3.4-5.7-3.4-1.6 0-3.1.6-4.2 1.6-.7-.4-1.5-.6-2.3-.6-2.4 0-4.4 1.7-4.9 4 1.3-1.2 3-2 4.9-2z" fill="#fff" opacity=".2"/></svg>