<svg viewBox="0 0 160 240" xmlns="http://www.w3.org/2000/svg"><path d="m63.8 26.3c0-.8 3.9-.3 6.1-.4 2.7-.2 4.6-3.9 6.1-5.5s3.7-5.9 7.8-5.4 7.3 5.4 10 6.9 3.5 2.9 3.3 5.4-.4 5.5-.4 5.5-3.3-5.3-8.7-4.1c-10.5 2.4-24.2-2.4-24.2-2.4z" fill="#825012"/><path d="m49.3 208.6c-17.6 3.2-17.8 14.1 2.5 15.1s52.8 20 62.5 6.3c9.2-13 .8-22.4-12.6-21.2s-33.9-3.7-52.4-.2z" opacity=".2"/><path d="m55.4 204c-2.3 2.1-2.8 4.2-8.1 5.4-5.4 1.1-8.3 2.7-8.7 6s.3 5.4 7.1 5.1 15.2-3.5 15.2-3.5l1.2.9s8.3-1.6 9.3-2.8c1-1.1.5-8 .5-8z" fill="#825012"/><path d="m62.1 217.7s8.3-1.6 9.3-2.8c.4-.5.5-1.9.6-3.5-.5.3-1.1.6-1.8 1-3 1.5-17.4 5.4-24.4 6.1-3.5.3-5.8-.5-7.2-1.4.2 2.2 1.7 3.5 7.1 3.2 6.8-.4 15.2-3.5 15.2-3.5z" opacity=".5"/><path d="m103.8 211.4c-.7 4.6-3.2 7.9-3.8 12.6-.7 4.7.6 7.8 4 8.2s8.1-.8 9.7-4.4 1.4-7.6 2.1-11.3c.7-3.6 1.1-6.5 1.1-6.5z" fill="#825012"/><path d="m113.7 227.9c1.5-3.6 1.4-7.6 2.1-11.3.6-3.4 1.1-6.1 1.1-6.5l-.7.5s-1 6.8-2.1 12.5-4.9 7.2-8.5 7.4c-3 .2-5.1-.8-5.8-4.8-.2 3.7 1.2 6.2 4.2 6.5 3.4.4 8.1-.7 9.7-4.3z" opacity=".5"/><path d="m79.4 46.2c-4-.3-5.4-1-8.9.5-3.4 1.4-5.4 4.8-7.5 12.2s-3.3 13.4-7.3 19.2-10.1 17.5-10.3 17.8c-.5.9-1.1 1.9.5 4.2 2.2 3.1 5.2 2 5.2 2s4.6-6.9 7-9.1 6.1-7.4 7.2-9.3 2.2-4.6 2.2-4.6 1.3 7.7 1.1 13.2c-.3 5.4-1.1 11.5-1.1 11.5l37.5-3s-2.4-10.7-2.4-20.5 6.3-18.1 5.2-21.1c-1.1-3.1-3.2-6.2-9.1-8.6s-19.3-4.4-19.3-4.4z" fill="#cc291f"/><path d="m74.2 44.7s-2.9 9-3.8 13c-1 4-2.2 14.2-2.2 14.2l-1.7-.1s1.4 15.9 1.2 17.4-.5 16.9-3.4 26.9c-3 9.9-7.9 25.4-7.8 34s.7 17.4-.5 30.9-2.3 23.2-2.2 24.2 4.6 4.7 10.4 5.4c5.8.8 9.4-.4 9.8-2.8s2.7-18.6 2.7-23.9-.4-20.5.4-24.4 6.7-23.9 6.7-23.9 2.6 20.4 4 26.9 5.8 10.6 6.9 15.6 5.4 28.7 5.7 31.1 1.2 3.7 4.9 4.7 12.7 0 13.9-2.3c1.1-2.3.3-10.8-1.1-16.4s-4.9-21.4-6.7-26.2-2.8-7.9-2.8-12.5-.9-26.2-1-34.1 0-15.2-1.4-20.3-2.9-11.1-2.9-11.1l-11.3-1.1-1.9-16.1-2.2-.3s1.9-9.6 4.6-13.7c4.6-7.4 8.8-8.2 8.8-8.2l-3.3-1.4s-4.1 2.1-7.1 6.5c-4.8 7-6.7 16.5-6.7 16.5l-12.4-1.1s1.2-11.4 2.7-17.2 4.1-10.5 4.1-10.5z" fill="#06547a"/><path d="m45.1 97.1s-1 2.7-1 3.9 2.6 7.5 4.4 9.6 5 3.2 5.7 2.9c.8-.4-3.1-5.4-3.2-6.9s-1.5-4.7-1.5-4.7 1.8-.5 1.9-1.3c.1-.9-.5-1.7-1.2-2.5-.6-.7-1.9-1.8-2.8-2-.8-.2-2.3 1-2.3 1z" fill="#fbd7c7"/><path d="m90.7 90.4c0-5.9-10.1-10.7-22.5-10.7s-22.5 4.8-22.5 10.7c0 4.2 5 24.7 5 26.7 0 4.6 7.8 8.3 17.5 8.3s17.5-3.7 17.5-8.3c-.1-2 5-22.5 5-26.7z" fill="#825012"/><ellipse cx="68.1" cy="90.8" opacity=".2" rx="20.6" ry="9.7"/><path d="m52.5 111.1c.5 1 5.5 3.5 8.8 3.5 3.2 0 14-2.4 14.2-2.8s-.3-6.1-1.4-6.1c-1.1-.1-2.6.4-2.6.4s-1.8-2.5-3.9-2.6-7.6-1.3-8.7-.5.8 2.2 2 2.4 3.8.8 3 1.3c-.8.6-2.3 1.9-4.1 1.6-1.7-.3-6.5-1-7.1-.5s-.9 1.8-.2 3.3z" fill="#fbd7c7"/><path d="m71 105.1c-.6-.3 6.4-3.1 10.2-4.7 3.6-1.5 9.3-4.2 9.7-5.6s2-16.7 1.5-20.4-3.4-8.8-.4-13.1c3.1-4.3 11.2-9.9 14.7-3.8s1.9 10.7.5 16.8-3.2 19.4-3.3 21.8-.3 5-6.2 8c-6 3.1-18 7.8-20.6 8.5-2.7.8-4.1 1.1-4.3-.1s.6-6-1.8-7.4z" fill="#cc291f"/><path d="m88.1 93.2c-.1-3.5-3-6.3-6.5-6.3-.3 0-.6 0-.9.1-.6-3-3.2-5.4-6.4-5.4-2.5 0-4.6 1.4-5.7 3.4-1.2-1.9-3.2-3.1-5.5-3.1-3 0-5.5 2-6.3 4.7-.5-.1-1.1-.2-1.6-.2-3.6 0-6.5 2.9-6.5 6.5 0 .3 0 .6.1.9 1.5 2.2 4.7 4 8.8 5.2.1 0 .4 0 .4.1 3 .8 6.6 1.3 10.3 1.3 3.6 0 6.9-.4 9.9-1.2.1-.1.3-.2.4-.1 4.6-1.2 8.1-3.3 9.5-5.9z" fill="#fc0"/><path d="m45.1 97.1s-1 2.7-1 3.9 2.6 7.5 4.4 9.6 4 2.5 4.7 1.9c1.6-1.5-2.1-4.4-2.7-5.9-1-2.3-1.5-2.9-1.3-3.3s3.4 1.8 3.7.2c.2-1.4-3.3-3.7-4.8-4.5-1.7-.7-3-1.9-3-1.9z" fill="#fbd7c7"/><g fill="#fff"><circle cx="62.1" cy="93.4" opacity=".2" r="2.7"/><circle cx="73.5" cy="85.3" opacity=".2" r="2.7"/><circle cx="70.9" cy="93.3" opacity=".2" r="2.7"/><circle cx="80.3" cy="91.8" opacity=".2" r="2.7"/><circle cx="62.8" cy="86.2" opacity=".2" r="2.7"/><circle cx="53.1" cy="91.3" opacity=".2" r="2.7"/></g><path d="m63.7 26.1c-1.6.6 4.4 11.5 10 13.3s20.4 5.3 23.7 5c3.2-.3 5.5-2.4 4.9-3.6s-.4-.1-2.5-3.3-1.9-9.2-10.5-9.1-9.9.7-14.3 0-8.9-3.3-11.3-2.3z" fill="#825012"/><path d="m63.7 26.1c-1.6.6 4.4 11.5 10 13.3s20.4 5.3 23.7 5c3.2-.3 5.5-2.4 4.9-3.6s-.4-.1-2.5-3.3-1.9-9.2-10.5-9.1-9.9.7-14.3 0-8.9-3.3-11.3-2.3z" opacity=".2"/><path d="m92.3 42.8c0-1.1.3-2.8.5-4.8v-.1c.1-2-1.4-2.7-3-1.8-1.5.9-2.7 4-3.3 4-.8 0-.4-1.3-1-3s-1.4-1.2-2.2-2 .3-3-.7-4.3c-1.1-1.3-8.2-.1-9.5-.9-.2-.1-.3-.3-.4-.6-1.9 5.9.4 20.3 2 21.8 1.7 1.5 4.4.9 4.4.9s-.2 9.7-.3 11.7 5.8-4.9 8.4-7.3 7.6-7.1 7.6-7.1-2.5-2.2-2.5-6.5z" fill="#fbd7c7"/><path d="m73.1 29.8c1.3.8 8.4-.4 9.5.9s-.1 3.6.7 4.3c.8.8 1.7.3 2.2 2 .6 1.7.2 3 1 3 .6 0 1.8-3.1 3.3-4s3.1-.2 3 1.8v.1c0 2.1 1.4-2.2 1.5-6.1 0 0-.1-.1-.1-.1-1.5-1-2.2-1.8-4.4-2s-3.7-.7-8.1-.4c-3.5.2-7.2-.6-9.2-.7 0 .2.1.4.1.5.2.3.3.5.5.7z" fill="#762c07"/></svg>