<svg viewBox="0 0 160 160" xmlns="http://www.w3.org/2000/svg"><path d="m81.4 149.1c5.7-2.5 23-13.2 28.9-17.9s16.2-7.6 19-8.8c2.9-1.2-.5-11.1-16.2-9.5s-55.1 19.4-57.3 21.8.6 5.2 1.3 5.4-12.6 5.3-8.7 9.1 20.8 5.4 33-.1z" opacity=".2"/><path d="m42.3 106.7 7.6.6s-2.7 9.4-3 11.5-.8 3.6-.1 4.4c.7.7 2.9 2.7 3.2 4s1 5 1.6 6.3 1.4 3.3.7 3.8c-.7.6-2.5-1.3-2.8-2.1s-1.1-3.7-1.8-4.1-.7 4.4-.4 5.3c.4 1 3.6 5.2 4.1 6.3.4 1-.1 2.6-2.3 1.8s-7.2-7.2-7.4-9.6.6-9.8.3-11.2.1-6.9.2-9.5c0-2.7.1-7.5.1-7.5z" fill="#fbd7c7"/><path d="m41.9 108.2 8 .8s2.8-9.4 2.9-11.6.4-8.6 1.2-10.7 2.7-7.8 2.7-7.8 2 3 3.9 3.9c1.9 1 6.9 2.4 8.9 3.7 2.1 1.3 5.5 3.3 6.4 3.5.8.1 12.6.6 14.9.5s10.9-7.1 10.1-9.7c-.7-2.6-5.9-9.5-8.4-12.3s-9.7-8.1-16.7-10.2-14.4-4.4-22.3-1-9.4 10.7-9.9 14.3 1.6 11.2 1 15-1.8 10.2-2 13.4c-.3 3.3-.7 8.2-.7 8.2z" fill="#f90"/><path d="m70.9 86.9c-2.1 2.7-7.2 14.1-9.8 22.8-2.6 8.6-7.3 23.1-4.9 27.1 2.4 4.1 7.8 3.4 10.6 1.7 2.9-1.7 9.3-8.7 11.3-9.8 2-1 5.6-26.9 5.6-26.9s-3-7.5-3.6-9.1-1.1-2.5-1.1-2.5z" fill="#28896d"/><path d="m70.9 86.9c-2.1 2.7-7.2 14.1-9.8 22.8-2.6 8.6-7.3 23.1-4.9 27.1 2.4 4.1 7.8 3.4 10.6 1.7 2.9-1.7 9.3-8.7 11.3-9.8 2-1 5.6-26.9 5.6-26.9s-3-7.5-3.6-9.1-1.1-2.5-1.1-2.5z" opacity=".2"/><path d="m99.7 112.5s5.1-6.5 6.1-5.5 1.3 2.2 3 3.6 6 3.8 6 3.8l-12.6 4.7z" fill="#825012"/><path d="m104.7 107.2c1.1 1.1 1.4 2.5 3.4 4 1.4 1.1 4 2.7 5.5 3.5l1.1-.4s-4.2-2.4-6-3.8-2.1-2.6-3-3.6c-.2-.1-.6 0-1 .3z" opacity=".5"/><path d="m121.4 123.8s-5.7-4.1-7.6-7.2-1.9-5.5-1.9-5.5 6 2.1 7.2 4.5c1.3 2.4 2.3 8.2 2.3 8.2z" fill="#825012"/><path d="m116.8 109.3c-2 1.1-14.9 8.4-14.9 8.4s6.5-12.1 7.2-19.9c.6-6.7-1-12.9-4.7-16.4-3.6-3.5-6.5-6.4-6.5-6.4s-1.8 3.8-4.9 6.6-10.1 4.6-12.6 3.9c-2.4-.7-5.8-3.5-6.4-9.9-.7-6.4 3.2-10.4 5.5-11.3 5.8-2.3 13.5 4.6 13.5 4.6s-3.3-3.9-6-5.4c-2.4-1.4-7.8-3.5-12 .3-7.7 7-2.5 17.7-2.5 17.7l-11-.9s-4.2-5.2-4.7-9.5 2.3-11.5 4.7-12.6 9.8-1.5 9.8-1.5-5.1-1-5.3-1-8.1-.4-10.6 4.4c-2.6 4.7-.8 14 .1 15.7s2.4 5 4.1 6.6 10.3 5.3 10.3 5.3 4.6 4.4 5.7 5.6c1.1 1.3 7.2 8.1 7.2 8.1s-3 13.9-4.5 19.3-5.4 19.1-5.3 21.3 2.1 5.4 6.3 6.1c4.1.7 8-2.4 10.5-4.5s15.3-10.3 19.4-13 14-12 14-12z" fill="#28896d"/><path d="m54.8 123.3c-1.5.6 1.9 3.5 3.2 4.1s7.1.8 8.4.4c4.7-1.3 10.2-7.6 11.2-8.6s7.2-6.9 7.2-6.9l-7.7-3.3s-3.8 7.2-4.4 7.8-1.7.1-3 .4c-1 .2-1.5.8-3.4 1.1-1.8.3-3.7.5-4.8.9s-1.8 1.4-.9 1.7c.4.1 1.5-.1 2.5 0 1.5.2 2.9.4 2.9.4s0 1.7-2.9 2.2c-2.9.6-6.3-1.1-8.3-.2z" fill="#fbd7c7"/><path d="m76.2 69.7c2.6-3.1 8.9 3.4 10.5 10.3s4.3 15.4 4.8 17.1c1.2 3.8 1.2 6.2-.5 8.5s-7.4 8.4-7.4 8.4l-7.1-4s2.9-5.4 4.3-7.9c.9-1.6 1.7-2.8 1.7-2.8s-1.4-3.1-2.9-5.9c-1.4-2.9-8.2-18.1-3.4-23.7z" fill="#f90"/><path d="m62.8 51.3c.2-.2 2.3-1.8 6.9 0s5.8 5.6 7.9 6.5c2 .9 4 1.2 4 1.2s-6.3 3.3-9.8 2.8-6.6-5.6-6.9-5.8-2.1-4.7-2.1-4.7z" fill="#762c07"/><path d="m62.5 49.6s1.7-.2 2.3 1.1 1.2 5.3.6 5.8c-.6.4-.7.6-1.3.2-.5-.4-1.6-7.1-1.6-7.1z" fill="#f90"/><path d="m43.5 59.2c-.7 3.1 2.3 9.8 6.3 12.7 4 3 6.5 3.8 7.7 3s2.4-2.2 2.4-2.2 2.7 2.2 4.1 3.5c1.5 1.3 3.7 3.3 4.1 3.3s.1-8.9.3-11-.1-5.3-1.1-6.2-1.9-1.5-1.9-1.5.3-2.2-.6-2.7-.7-2.2-1.1-3.6-16.1-13.2-20.2 4.7z" fill="#fbd7c7"/><path d="m42.6 60.5c1.1 3.4 2.7 4 4.8 4s5.2-.7 7.6 0 5.6-1.5 6.5-2.9 2.1-4 3-3.5c2.1 1.4 1.1-2-.4-5.9-2-4.9-7.7-9.1-16.2-5-6.7 3.2-5.9 11.4-5.3 13.3z" fill="#762c07"/><path d="m111.9 111.1c2.3-2 6.9-6.7 8.6-6.5s5.8 5.6 5.8 5.6l-.3.7s3.7 3.9 4.5 5.7.1 4.9-1.5 5.6-3.4-.6-4.5-1-3.1 2.7-3.1 2.7-1.7-4.8-3.9-8c-1.8-2.6-5.6-4.8-5.6-4.8z" fill="#825012"/><path d="m130.5 116.5c-.8-1.8-4.5-5.7-4.5-5.7l.3-.7s-4.1-5.4-5.8-5.6c-.4-.1-1 .2-1.6.6 1.4.3 2.5 1 3.9 2.7 1.8 2.1 3.4 4.7 5 6.4s2.7 3.3 2.8 5.5v.3c.3-1.1.4-2.5-.1-3.5z" opacity=".5"/></svg>