<svg viewBox="0 0 32 24" xmlns="http://www.w3.org/2000/svg"><path d="m16 8 16 8-16 8-16-8z" fill="#825012"/><path d="m16 8 16 8-16 8-16-8z" fill="#825012"/><path d="m12.4 21.2c.1.1.5.2 1 .2s.8-.1 1-.2c0-.1.1-.2.1-.3v-.1c0-.6-.5-1-1.1-1s-1 .4-1.1 1v.1c.1.1.1.3.1.3z" fill="#f90"/><path d="m12.9 20-2.2-1.9 1.5.5-1.4-3.2 1.8 2.6-.6-4.3 1.2 4.6.8-5.3v4.6l1.7-2-1.4 3.6 1.7-1-2 1.8z" fill="#539b00"/><path d="m16.4 19.2c.1.1.5.2 1 .2s.8-.1 1-.2c0-.1.1-.2.1-.3v-.1c0-.6-.5-1-1.1-1s-1 .4-1.1 1v.1c.1.1.1.3.1.3z" fill="#f90"/><path d="m16.9 18-2.2-1.9 1.5.5-1.4-3.2 1.8 2.6-.6-4.3 1.2 4.6.8-5.3v4.6l1.7-2-1.4 3.6 1.7-1-2 1.8z" fill="#539b00"/><path d="m20.4 17.2c.1.1.5.2 1 .2s.8-.1 1-.2c0-.1.1-.2.1-.3v-.1c0-.6-.5-1-1.1-1s-1 .4-1.1 1v.1c.1.1.1.3.1.3z" fill="#f90"/><path d="m20.9 16-2.2-1.9 1.5.5-1.4-3.2 1.8 2.6-.6-4.3 1.2 4.6.8-5.3v4.6l1.7-2-1.4 3.6 1.7-1-2 1.8z" fill="#539b00"/><path d="m24.4 15.2c.1.1.5.2 1 .2s.8-.1 1-.2c0-.1.1-.2.1-.3v-.1c0-.6-.5-1-1.1-1s-1 .4-1.1 1v.1c.1.1.1.3.1.3z" fill="#f90"/><path d="m24.9 14-2.2-1.9 1.5.5-1.4-3.2 1.8 2.6-.6-4.3 1.2 4.6.8-5.3v4.6l1.7-2-1.4 3.6 1.7-1-2 1.8z" fill="#539b00"/><path d="m6.4 18.2c.1.1.5.2 1 .2s.8-.1 1-.2c0-.1.1-.2.1-.3v-.1c0-.6-.5-1-1.1-1s-1 .4-1.1 1v.1c.1.1.1.3.1.3z" fill="#f90"/><path d="m6.9 17-2.2-1.9 1.5.5-1.4-3.2 1.8 2.6-.6-4.3 1.2 4.6.8-5.3v4.6l1.7-2-1.4 3.6 1.7-1-2 1.8z" fill="#539b00"/><path d="m10.4 16.2c.1.1.5.2 1 .2s.8-.1 1-.2c0-.1.1-.2.1-.3v-.1c0-.6-.5-1-1.1-1s-1 .4-1.1 1v.1c.1.1.1.3.1.3z" fill="#f90"/><path d="m10.9 15-2.2-1.9 1.5.5-1.4-3.2 1.8 2.6-.6-4.3 1.2 4.6.8-5.3v4.6l1.7-2-1.4 3.6 1.7-1-2 1.8z" fill="#539b00"/><path d="m14.4 14.2c.1.1.5.2 1 .2s.8-.1 1-.2c0-.1.1-.2.1-.3v-.1c0-.6-.5-1-1.1-1s-1 .4-1.1 1v.1c.1.1.1.3.1.3z" fill="#f90"/><path d="m14.9 13-2.2-1.9 1.5.5-1.4-3.2 1.8 2.6-.6-4.3 1.2 4.6.8-5.3v4.6l1.7-2-1.4 3.6 1.7-1-2 1.8z" fill="#539b00"/><path d="m18.4 12.2c.1.1.5.2 1 .2s.8-.1 1-.2c0-.1.1-.2.1-.3v-.1c0-.6-.5-1-1.1-1s-1 .4-1.1 1v.1c.1.1.1.3.1.3z" fill="#f90"/><path d="m18.9 11-2.2-1.9 1.5.5-1.4-3.2 1.8 2.6-.6-4.3 1.2 4.6.8-5.3v4.6l1.7-2-1.4 3.6 1.7-1-2 1.8z" fill="#539b00"/></svg>