<svg viewBox="0 0 128 64" xmlns="http://www.w3.org/2000/svg"><path d="m64 0 64 32-64 32-64-32z" fill="#825012"/><path d="m64 0 64 32-64 32-64-32z" fill="#825012"/><g fill="#f90"><g opacity=".5"><path d="m64 0 64 32-64 32-64-32z"/><path d="m64 0 64 32-64 32-64-32z"/></g><path d="m66 1 2 1-64 32-2-1z" opacity=".5"/><path d="m70 3 2 1-64 32-2-1z" opacity=".5"/><path d="m74 5 2 1-64 32-2-1z" opacity=".5"/><path d="m78 7 2 1-64 32-2-1z" opacity=".5"/><path d="m82 9 2 1-64 32-2-1z" opacity=".5"/><path d="m86 11 2 1-64 32-2-1z" opacity=".5"/><path d="m90 13 2 1-64 32-2-1z" opacity=".5"/><path d="m94 15 2 1-64 32-2-1z" opacity=".5"/><path d="m98 17 2 1-64 32-2-1z" opacity=".5"/><path d="m102 19 2 1-64 32-2-1z" opacity=".5"/><path d="m106 21 2 1-64 32-2-1z" opacity=".5"/><path d="m110 23 2 1-64 32-2-1z" opacity=".5"/><path d="m114 25 2 1-64 32-2-1z" opacity=".5"/><path d="m118 27 2 1-64 32-2-1z" opacity=".5"/><path d="m122 29 2 1-64 32-2-1z" opacity=".5"/><path d="m126 31 2 1-64 32-2-1z" opacity=".5"/></g></svg>