<svg viewBox="0 0 64 48" xmlns="http://www.w3.org/2000/svg"><path d="m5 26.9v-3.5l2-1v3.5z" fill="#2d3134"/><path d="m3 29 14-7 38 19-14 7z" opacity=".3"/><path d="m35.5 37.8c-.7-.4-1.4-.4-1.9-.2l-1.4.7c-.5.2-.9.8-.9 1.6 0 1.5 1.3 3.4 2.8 4.2.8.4 1.5.4 2 .2 0 0 1.4-.7 1.5-.8.5-.3.7-.8.7-1.5 0-1.6-1.3-3.5-2.8-4.2z" fill="#2d3134"/><path d="m36 44.2c.2-.1 1.4-.7 1.5-.7.5-.3.7-.8.7-1.5 0-.6-.2-1.3-.5-1.9l-1.4.7c.3.6.5 1.3.5 1.9 0 .7-.3 1.3-.8 1.5z" opacity=".39"/><path d="m36.2 42.3c0 1.2-.9 1.6-2.1 1s-2.1-2-2.1-3.2.9-1.6 2.1-1 2.1 2 2.1 3.2z" fill="#999"/><path d="m34.2 43.3c-1.2-.6-2.1-2-2.1-3.2 0-.6.2-1 .6-1.2-.5.1-.8.6-.8 1.2 0 1.2.9 2.6 2.1 3.2.6.3 1.1.3 1.5.1-.3.2-.8.1-1.3-.1z" fill="#808285"/><path d="m35.1 41.6c0 .5-.4.7-.9.4-.5-.2-.9-.8-.9-1.3s.4-.7.9-.4c.5.2.9.8.9 1.3z" fill="#2d3134"/><path d="m35.1 41.6c0 .5-.4.7-.9.4-.5-.2-.9-.8-.9-1.3s.4-.7.9-.4c.5.2.9.8.9 1.3z" opacity=".39"/><path d="m34.9 41.7c0 .5-.4.7-.9.4-.5-.2-.9-.8-.9-1.3s.4-.7.9-.4c.5.2.9.8.9 1.3z" fill="#2d3134"/><path d="m36.8 42.7c0 1.5-1.3 2.2-2.8 1.4s-2.8-2.7-2.8-4.2 1.3-2.2 2.8-1.4 2.8 2.6 2.8 4.2z" opacity=".06"/><path d="m8.9 24.5c-.7-.4-1.4-.4-1.9-.2l-1.4.7c-.5.2-.9.8-.9 1.6 0 1.5 1.3 3.4 2.8 4.2.8.4 1.5.4 2 .2 0 0 1.4-.7 1.5-.8.5-.3.7-.8.7-1.5.1-1.5-1.2-3.4-2.8-4.2z" fill="#2d3134"/><path d="m9.5 31c.2-.1 1.4-.7 1.5-.7.5-.3.7-.8.7-1.5 0-.6-.2-1.3-.5-1.9l-1.4.7c.3.6.5 1.3.5 1.9.1.7-.3 1.2-.8 1.5z" opacity=".39"/><path d="m9.6 29.1c0 1.2-.9 1.6-2.1 1s-2.1-2-2.1-3.2.9-1.6 2.1-1 2.1 2 2.1 3.2z" fill="#999"/><path d="m7.7 30c-1.2-.6-2.1-2-2.1-3.2 0-.6.2-1 .6-1.2-.5.1-.8.6-.8 1.2 0 1.2.9 2.6 2.1 3.2.6.3 1.1.3 1.5.1-.3.2-.8.2-1.3-.1z" fill="#808285"/><path d="m8.6 28.4c0 .5-.4.7-.9.4s-.9-.8-.9-1.3.4-.7.9-.4.9.8.9 1.3z" fill="#2d3134"/><path d="m8.6 28.4c0 .5-.4.7-.9.4s-.9-.8-.9-1.3.4-.7.9-.4.9.8.9 1.3z" opacity=".39"/><path d="m8.4 28.4c0 .5-.4.7-.9.4s-.9-.8-.9-1.3.4-.7.9-.4.9.9.9 1.3z" fill="#2d3134"/><path d="m10.4 29.4c0 1.5-1.3 2.2-2.8 1.4-1.6-.8-2.8-2.6-2.8-4.2 0-1.5 1.3-2.2 2.8-1.4s2.8 2.7 2.8 4.2z" opacity=".06"/><path d="m5 11.9 14-7 6 3v13.8l-13.9 7c-.2-.7-.6-1.4-1.1-2.1-1.5-1.8-3.6-2.5-4.8-1.5-.5.4-.7 1-.8 1.6l-1.4-.8v-8z" fill="#e5e5e5"/><path d="m25 7.9v13.8l-14 7v-13.8z" opacity=".39"/><path d="m36.5 39.9v3.8l2.5-1.3v-3.7z" fill="#2d3134"/><path d="m36.5 39.9v3.8l2.5-1.3v-3.7z" opacity=".06"/><path d="m58 35v2l-14 7v-2z" fill="#2d3134"/><path d="m8.5 19.7v.5l1 .5v-.5z" fill="#2d3134" opacity=".5"/><path d="m9.5 20.9-1-.5v-.2l1 .5z" fill="#fff" opacity=".5"/><path d="m3.6 17.7 1.6-4.7c.1-.2.3-.3.4-.2l3.7 1.9c.1.1.2.2.2.3v3.8c0 .2-.2.4-.4.3l-1.6-.8c-.3-.3-.7-.3-1-.3l-1.9.4c-.1 0-.1 0-.2 0l-.7-.3c-.1-.1-.1-.3-.1-.4z" fill="#39c"/><path d="m3.6 17.7 1.6-4.7c.1-.2.3-.3.4-.2l-1.5 4.6c0 .1 0 .3.1.4l.7.3h.2l1.9-.4c.4-.1.7 0 1 .1l1.5.8v.1c0 .2-.2.4-.4.3l-1.6-.8c-.3-.2-.7-.2-1-.2l-1.9.4c-.1 0-.1 0-.2 0l-.7-.3c-.1-.1-.1-.3-.1-.4z" opacity=".15"/><path d="m3 25.9 2 1v-2l-2-1z" fill="#2d3134"/><path d="m3 23.9.5.3v-2l-.5-.3z" fill="#fc0"/><g fill="#cc291f"><path d="m57.5 35.7v1l-1 .5v-1z"/><path d="m56 36.4v1l-1 .5v-1z"/><path d="m47 40.9v1l-1 .5v-1z"/><path d="m45.5 41.7v1l-1 .5v-1z"/></g><path d="m53.5 37.2v1.2l-5 2.5v-1.2z" fill="#fff"/><path d="m5 11.9 6 3v13.5c-.2-.6-.6-1.3-1-1.9-1.5-1.8-3.6-2.5-4.8-1.5-.5.4-.7 1-.8 1.6l-1.4-.7v-8z" opacity=".06"/><path d="m12 26v2l32 16v-2z" fill="#2d3134"/><path d="m26 15-14 7v4l32 16 14-7v-4z" fill="#28896d"/><path d="m52 33-26-13v-4l30 15z" opacity=".06"/><path d="m18 24 8-4v-4l-12 6z" opacity=".39"/><path d="m44 44-32-16v-6l32 16.1z" opacity=".06"/><path d="m58 31-14 7v6l14-7z" opacity=".39"/><path d="m26 15-14 7 32 16 14-7zm18 22-30-15 12-6 30 15z" fill="#28896d"/><path d="m52 33-26-13-8 4 26 13z" fill="#fff" opacity=".1"/></svg>