<svg viewBox="0 0 64 32" xmlns="http://www.w3.org/2000/svg"><path d="m54.1 17 3.9 2 5.9-3-5.9-3-3.9 2c-.8.4-.8 1.6 0 2z" fill="#9c3"/><path d="m30.2 26.9-4.1 2.1 5.9 3 5.9-3-4.2-2.1c-1-.5-2.4-.5-3.5 0z" fill="#9c3"/><path d="m5.9 19 32-16-5.9-3-32 16z" fill="#9c3"/><path d="m54.1 17 3.9 2 5.9-3-5.9-3-3.9 2c-.8.4-.8 1.6 0 2z" fill="#9c3"/><path d="m30.2 26.9-4.1 2.1 5.9 3 5.9-3-4.2-2.1c-1-.5-2.4-.5-3.5 0z" fill="#9c3"/><path d="m5.9 19 32-16-5.9-3-32 16z" fill="#9c3"/><path d="m26.1 29 4.2-2.1c1.1-.6 2.4-.6 3.6 0l4.2 2.1 20-10-3.9-2c-.8-.4-.8-1.6 0-2l3.9-2-20.2-10-32 16z" fill="#baa794"/><path d="m26.1 29 4.2-2.1c1.1-.6 2.4-.6 3.6 0l4.2 2.1 20-10-3.9-2c-.8-.4-.8-1.6 0-2l3.9-2-20.2-10-32 16z" fill="#baa794"/><path d="m26.1 29 4.2-2.1c1.1-.6 2.4-.6 3.6 0l4.2 2.1 20-10-3.9-2c-.8-.4-.8-1.6 0-2l3.9-2-20.2-10-32 16z" opacity=".15"/><g fill="#baa794"><path d="m56 12-4 2-6-3 4-2z"/><path d="m28 26-4 2-6-3 4-2z"/><path d="m34 23-4 2-6-3 2-1-2-1 2-1z"/><path d="m24 18-4 2 2 1-2 1-8-4 6-3z"/><path d="m38 17-6 3-6-3 4-2-2-1 2-1z"/><path d="m40 12-2 1 2 1-2 1-6-3 4-2z"/><path d="m46 21-10 5-2-1 4-2-4-2 6-3z"/><path d="m48 8-6 3-8-4 6-3z"/><path d="m18 23-2 1-8-4 2-1z"/><path d="m24 16 2-1-2-1 10-5-2-1-12 6z"/><path d="m38 27 2 1 8-4-2-1z"/><path d="m48 22 2 1 6-3-2-1z"/></g><path d="m56.9 19.5 1.1-.6-3.9-2c-.8-.4-.8-1.6 0-2l3.9-2-1.1-.6-5 2.7c-.8.4-.8 1.6 0 2z" fill="#262626" opacity=".15"/><path d="m26.1 29 4.2-2.1c1.1-.6 2.4-.6 3.6 0l4.2 2.1 1.1-.6-5.3-2.6c-1.1-.6-2.4-.6-3.6 0l-5.3 2.6z" fill="#262626" opacity=".15"/><path d="m7.1 19.5 32-16-1.2-.5-32 16z" fill="#262626" opacity=".15"/><path d="m40 16 8 4 4-2-4-2 2-1-6-3-2 1 2 1z" fill="#baa794"/></svg>