<svg viewBox="0 0 1280 640" xmlns="http://www.w3.org/2000/svg"><path d="m1213 433.1-55.7-27.9 41.7-20.8-317.9-159 79.8-39.8-81.1-40.6-297.8 148.9 81.1 40.5 26.8-13.3 317.9 158.9 57.6-28.8 55.7 27.8z" fill="#262626" opacity=".3"/><path d="m851.5 132.1-15-33.6 15-18.6 30.2 15.1 15 33.6-15 18.5z" fill="#2d3134"/><path d="m881.2 146.2-16 8.1 11.4-14-.2-.4 20.8-10.5-.9-1.8-20.7 10.5-14.2-31.8 20.8-10.5-.9-1.8-20.7 10.5-27.9-13.9 19.3-9.8-.9-1.8-20.7 10.4-.8-.4c-1.2-.6-2.7-.1-3.4 1.1-.2.5-.3 1-.2 1.5l-18.9 9.5-.8-.4c-1.2-.6-2.7-.1-3.4 1.1-.2.5-.3 1-.2 1.5l-18.9 9.5-.8-.4c-1.2-.6-2.7-.1-3.4 1.1-.2.5-.3 1-.2 1.5l-18.9 9.5-.8-.4c-1.2-.6-2.7-.1-3.4 1.1-.2.5-.3 1-.2 1.5l-18.9 9.5-.8-.4c-1.2-.6-2.7-.1-3.4 1.1-.2.5-.3 1-.2 1.5l-18.9 9.5-.8-.4c-1.2-.6-2.7-.1-3.4 1.1-.2.5-.3 1-.2 1.5l-18.9 9.5-.8-.4c-1.2-.6-2.7-.1-3.4 1.1-.2.5-.3 1-.2 1.5l-18.9 9.5-.8-.4c-1.2-.6-2.7-.1-3.4 1.1-.2.5-.3 1-.2 1.5l-18.9 9.5-.8-.4c-1.2-.6-2.7-.1-3.4 1.1-.2.5-.3 1-.2 1.5l-18.9 9.5-.8-.4c-1.2-.6-2.7-.1-3.4 1.1-.2.5-.3 1-.2 1.5l-21.5 10.9.9 1.8 21.7-11c.1 0 .1.1.2.1l8.4 4.2-46 24 .9 1.8 47.6-24.1 17 8.5-20.3 10.3.9 1.8 21.3-10.8 7.2 16-59.5 30.1.9 1.8 59.4-30 5.9 13.1-1.4 1.7-19.6 9.9.9 1.8 15.6-7.9-9.6 11.8c-.5.6-.6 1.3-.5 2l-21.5 10.9.9 1.8 21.7-11c.4.3.9.4 1.3.4.7 0 1.4-.3 1.9-.9l1.6-1.9 18.4-9.3c.4.3.9.4 1.3.4.7 0 1.4-.3 1.9-.9l1.6-1.9 18.4-9.3c.4.3.9.4 1.3.4.7 0 1.4-.3 1.9-.9l1.6-1.9 18.4-9.3c.4.3.9.4 1.3.4.7 0 1.4-.3 1.9-.9l1.6-1.9 18.4-9.3c.4.3.9.4 1.3.4.7 0 1.4-.3 1.9-.9l1.6-1.9 18.4-9.3c.4.3.9.4 1.3.4.7 0 1.4-.3 1.9-.9l1.6-1.9 18.4-9.3c.4.3.9.4 1.3.4.7 0 1.4-.3 1.9-.9l1.6-1.9 18.4-9.3c.4.3.9.4 1.3.4.7 0 1.4-.3 1.9-.9l1.6-1.9 18.4-9.3c.4.3.9.4 1.3.4.7 0 1.4-.3 1.9-.9l1.6-1.9 18.4-9.3c.4.3.9.4 1.3.4.7 0 1.4-.3 1.9-.9l1.6-1.9 20-10.1zm-10.5-6.7-1.4 1.7-17 8.6-6.2-13.9 5.9-3-.9-1.8-5.8 3-7.2-16 18.8-9.5zm-196.4 59.1-17-8.5 17.7-9 17 8.5zm42.9-19.4 7.2 16-18.8 9.5-7.2-16zm4.5-2.3 18.8-9.5 7.2 16-18.8 9.5zm23.3-11.8 18.8-9.5 7.2 16-18.8 9.5zm23.2-11.7 18.8-9.5 7.2 16-18.8 9.5zm23.3-11.8 18.8-9.5 7.2 16-18.8 9.5zm23.3-11.7 18.8-9.5 7.2 16-18.8 9.5zm-.8-1.9-17-8.5 17.7-9 17 8.5zm-5.6 2.8-17.7 9-17-8.5 17.7-9zm-23.2 11.8-17.7 9-17-8.5 17.7-9zm-23.3 11.8-17.7 9-17-8.5 17.7-9zm-23.3 11.7-17.7 9-17-8.5 17.7-9zm-23.3 11.8-17.7 9-17-8.5 17.7-9zm-21.4 13 7.2 16-18.8 9.5-7.2-16zm8 17.9 5.9 13.1-1.4 1.7-17 8.6-6.2-13.9zm4.5-2.3 18.8-9.5 5.9 13.1-1.4 1.7-17 8.6zm23.3-11.7 18.8-9.5 5.9 13.1-1.4 1.7-17 8.6zm23.3-11.8 18.8-9.5 5.9 13.1-1.4 1.7-17 8.6zm23.2-11.8 18.8-9.5 5.9 13.1-1.4 1.7-17 8.6zm23.3-11.7 18.8-9.5 5.9 13.1-1.4 1.7-17 8.6zm23.3-11.8 18.8-9.5 5.9 13.1-1.4 1.7-17 8.6zm14.4-31.4-17-8.5 16.7-8.4-.7-1.4 18.8 9.4zm-10.1-23c.1 0 .1.1.2.1l8.4 4.2-17.7 9-8.7-4.3zm-23.3 11.8c.1 0 .1.1.2.1l8.4 4.2-17.7 9-8.7-4.3zm-23.2 11.8c.1 0 .1.1.2.1l8.4 4.2-17.7 9-8.7-4.3zm-23.3 11.7c.1 0 .1.1.2.1l8.4 4.2-17.7 9-8.7-4.3zm-23.3 11.8c.1 0 .1.1.2.1l8.4 4.2-17.7 9-8.7-4.3zm-23.3 11.8c.1 0 .1.1.2.1l8.4 4.2-17.7 9-8.7-4.3zm-23.2 11.7c.1 0 .1.1.2.1l8.4 4.2-17.7 9-8.7-4.3zm-23.3 11.8c.1 0 .1.1.2.1l8.4 4.2-17.7 9-8.7-4.3zm-41 20.7 17.7-9c.1 0 .1.1.2.1l8.4 4.2-17.7 9zm27.8 13.9-17-8.5 17.7-9 17 8.5zm.9 1.9 18.8-9.5 7.2 16-18.8 9.5zm8 17.8 18.8-9.5 5.9 13.1-1.4 1.7-17 8.6zm7 15.8 13.1-6.6-9.6 11.8c-.5.6-.6 1.3-.5 2l-14.2 7.2 11.4-14zm23.3-11.8 13.1-6.6-9.6 11.8c-.5.6-.6 1.3-.5 2l-14.2 7.2 11.4-14zm23.3-11.7 13.1-6.6-9.6 11.8c-.5.6-.6 1.3-.5 2l-14.2 7.2 11.4-14zm23.2-11.8 13.1-6.6-9.6 11.8c-.5.6-.6 1.3-.5 2l-14.2 7.2 11.4-14zm23.3-11.7 13.1-6.6-9.6 11.8c-.5.6-.6 1.3-.5 2l-14.2 7.2 11.4-14zm23.3-11.8 13.1-6.6-9.6 11.8c-.5.6-.6 1.3-.5 2l-14.2 7.2 11.4-14zm23.3-11.8 13.1-6.6-9.6 11.8c-.5.6-.6 1.3-.5 2l-14.2 7.2 11.4-14zm23.2-11.7 13.1-6.6-9.6 11.8c-.5.6-.6 1.3-.5 2l-14.2 7.2 11.4-14zm23.3-11.8 13.1-6.6-9.6 11.8c-.5.6-.6 1.3-.5 2l-14.2 7.2 11.4-14z" fill="#2d3134"/><path d="m595.5 261.4-15-33.6 15-18.5 30.1 15 15.1 33.6-15.1 18.6z" fill="#2d3134"/><path d="m928 125-274 137v53l8 4 274-137v-53z" fill="#cc291f"/><path d="m936 182v-53l-274 137v53z" opacity=".29"/><path d="m580 226 8-4 74 37v62l-8 4-23.5-12.2c-3.6-1.9-7.1-4.1-10.3-6.7l-17.4-14.1c-5.8-4.7-10.7-10.4-14.4-16.8-5.5-9.4-8.3-20-8.3-30.8v-18.4z" fill="#cc291f"/><path d="m580 226v18.5c0 10.8 2.9 21.5 8.3 30.8 3.7 6.4 8.6 12.1 14.4 16.8l17.4 14.1c3.2 2.6 6.6 4.8 10.3 6.7l23.6 12.1v-62z" opacity=".11"/><path d="m654 263v62l8-4v-62z" opacity=".29"/><path d="m809 200-48 24v8l46 23 48-24v-8z" fill="#cc291f"/><path d="m761 232v-8l46 23v8z" opacity=".11"/><path d="m855 231v-8l-48 24v8z" opacity=".29"/><path d="m829 135-76-38v90l66 33v14l10 5 82-41v-104z" fill="#cc291f"/><path d="m829 227 82-41v-92l-78-36-80 39v79l76 38z" fill="#656565"/><path d="m911 198v-104l-82 41v104z" opacity=".29"/><path d="m911 134v-40l-82 41z" fill="#fff" opacity=".1"/><path d="m753 187 66 33v14l10 5v-104l-76-38z" opacity=".11"/><path d="m753 97v79l74-42z" opacity=".15"/><path d="m839 42-90 45v12l82 41 90-45v-12z" fill="#cc291f"/><path d="m749 99v-12l82 41v12z" opacity=".11"/><path d="m921 95v-12l-90 45v12z" opacity=".29"/><path d="m1143 362v-18l-148 74v18z" fill="#cc291f"/><path d="m995 295v-18l-148 74v18z" fill="#2d3134"/><path d="m927 336v-49l148 74v49z" fill="#2d3134"/><path d="m1138 374v-10l-148 74v10z" fill="#cc291f"/><path d="m1138 374v-10l-148 74v10z" opacity=".29"/><path d="m980 291-70 35 30 52 36 18 70-35v-37z" fill="#cc291f"/><path d="m940 378-30-52 66 33v37z" opacity=".11"/><path d="m1046 361v-37l-70 35v37z" opacity=".29"/><path d="m1064 147v-20l-110-55-142 71v96l30 27v28l152 76 10-5 30 15 82-41v-166z" fill="#cc291f"/><path d="m812 229v-25l152 76v25z" fill="#e5e5e5"/><path d="m1064 127-20 10 20 10z" opacity=".29"/><path d="m1116 339v-166l-82 41v166z" opacity=".29"/><path d="m964 214.5 31.1-15.5-33.1-16.5v31z" opacity=".11"/><path d="m962 182.5-31.1 15.5 31.1 15.5z" opacity=".29"/><path d="m812 143v96l30 27v28l152 76v-28l-30-27v-96z" opacity=".11"/><path d="m1004 365v-166l-40 20v96l30 27v28z" opacity=".29"/><path d="m1004 199v166l30 15v-166z" opacity=".11"/><path d="m956 69-124 62v12l82 41 124-62v-12z" fill="#cc291f"/><path d="m832 143v-12l82 41v12z" opacity=".11"/><path d="m1038 122v-12l-124 62v12z" opacity=".29"/><path d="m854.4 131 101.6-50.8 59.6 29.8-101.6 50.8z" opacity=".2"/><path d="m956 80.2-101.6 50.8 11.8 5.9 89.8-44.9z" opacity=".29"/><path d="m1003.8 115.9 11.8-5.9-59.6-29.8v11.8z" opacity=".11"/><path d="m812 239 152 76 30 27-152-76z" opacity=".1"/><path d="m964 229-135-67v32.5l135 67.5 24-12v-33z" fill="#cc291f"/><path d="m829 162v32l24-12v-8z" opacity=".29"/><path d="m964 229-111-55v8l135 68v-33z" opacity=".11"/><path d="m1033 168c-4.4 0-8 1.8-8 4v28c0 2.2 3.6 4 8 4s8-1.8 8-4v-28c0-2.2-3.6-4-8-4z" fill="#2d3134"/><ellipse cx="1033" cy="172" opacity=".8" rx="6" ry="2.5"/><path d="m1036 168.3v1.5c1.8.4 3 1.2 3 2.2 0 1.4-2.7 2.5-6 2.5s-6-1.1-6-2.5c0-.9 1.2-1.7 3-2.2v-1.5c-2.9.6-5 2-5 3.7v28c0 2.2 3.6 4 8 4s8-1.8 8-4v-28c0-1.7-2.1-3.1-5-3.7z" fill="#2d3134"/><path d="m1033 176c-4.4 0-8-1.8-8-4v28c0 2.2 3.6 4 8 4s8-1.8 8-4v-28c0 2.2-3.6 4-8 4z" opacity=".2"/><path d="m1003 400c-8.5-4.3-16.2-4.6-21.7-1.7l-15.7 7.9c-5.3 2.8-8.6 8.6-8.6 16.8 0 16.7 13.6 37 30.3 45.4 9.2 4.6 17.4 4.6 22.9.9l12.8-6.4c6.3-2.4 10.3-8.5 10.3-17.6 0-16.6-13.6-37-30.3-45.3z" fill="#2d3134"/><path d="m999 401.7c-6.7-3.3-13-4.4-18.3-3.1l-3.6 1.8.1.1c-.2 0-.4.1-.7.2l-3.6 1.8.1.1c-.2 0-.4.1-.6.2l-3.6 1.8.2.4c5.6-3 13.2-2.4 21.3 1.7 16.6 8.3 30 28.5 30 45 0 8.5-3.7 14.8-10 17.2l.1.4 12.5-6.3c.2-.1.4-.2.5-.2 3.9-3.3 6-8.7 6-15.3.1-16.9-13.6-37.4-30.4-45.8zm17.1 64.3c3.2-3.4 5-8.3 5-14.3 0-16.8-13.7-37.4-30.5-45.8-6-3-11.8-4.2-16.7-3.4 5.5-2.5 12.8-1.8 20.5 2.1 16.6 8.3 30 28.5 30 45 .1 7.7-2.9 13.6-8.3 16.4zm4.2-2.1c3.2-3.4 5-8.3 5-14.3 0-16.8-13.7-37.4-30.5-45.8-6-3-11.8-4.2-16.7-3.4 5.5-2.5 12.8-1.8 20.5 2.1 16.6 8.3 30 28.5 30 45 .1 7.7-3 13.6-8.3 16.4z" opacity=".5"/><path d="m1017.5 453.3c0 16.7-13.6 23.5-30.3 15.1s-30.3-28.7-30.3-45.4 13.6-23.5 30.3-15.1 30.3 28.7 30.3 45.4z" opacity=".11"/><path d="m988.6 407.1c-9.1-4.5-17.3-4.6-22.8-1 5.2-1.7 12-1 19.3 2.7 16.7 8.4 30.3 28.7 30.3 45.4 0 7.6-2.8 13.2-7.5 16.2 6.7-2.2 10.9-8.5 10.9-17.8.1-16.8-13.5-37.1-30.2-45.5z" fill="#fff" opacity=".1"/><path d="m1002.1 445.6c0 8.2-6.6 11.5-14.8 7.4s-14.8-14.1-14.8-22.2c0-8.2 6.6-11.5 14.8-7.4 8.2 4 14.8 14 14.8 22.2z" fill="#cc291f"/><path d="m1000.9 445c0 7.5-6.1 10.6-13.6 6.8s-13.6-12.9-13.6-20.4 6.1-10.6 13.6-6.8c7.5 3.7 13.6 12.8 13.6 20.4z" fill="#cc291f"/><path d="m1000.9 445c0 7.5-6.1 10.6-13.6 6.8s-13.6-12.9-13.6-20.4 6.1-10.6 13.6-6.8c7.5 3.7 13.6 12.8 13.6 20.4z" fill="#cc291f"/><path d="m1000.9 445c0 7.5-6.1 10.6-13.6 6.8s-13.6-12.9-13.6-20.4 6.1-10.6 13.6-6.8c7.5 3.7 13.6 12.8 13.6 20.4z" opacity=".29"/><path d="m987.3 424.5c-7.5-3.8-13.6-.7-13.6 6.8 0 4.1 1.8 8.6 4.6 12.5l19.2-9.6c-2.5-4-6.2-7.6-10.2-9.7z" opacity=".15"/><path d="m989.9 426.1-3.6 1.9c-1.7.7-3 2-3 4.4 0 4.1 3.3 9.1 7.4 11.1 1.9 1 3.6 1.1 5 .6l4.9-2.3c-1.2-5.8-5.4-12-10.7-15.7z" fill="#cc291f"/><path d="m989.9 426.1-3.6 1.9c-1.7.7-3 2-3 4.4 0 4.1 3.3 9.1 7.4 11.1 1.9 1 3.6 1.1 5 .6l4.9-2.3c-1.2-5.8-5.4-12-10.7-15.7z" opacity=".29"/><path d="m1009.3 428.4c5.1 8 8.3 16.9 8.3 24.9 0 7.5-2.8 13-7.3 16.1l12.8-6.4c6.3-2.4 10.3-8.5 10.3-17.6 0-8-3.1-16.9-8.2-24.9z" opacity=".29"/><path d="m998.2 439.9c0 4.1-3.3 5.8-7.4 3.7-4.1-2-7.4-7-7.4-11.1s3.3-5.8 7.4-3.7c4 2 7.4 7 7.4 11.1z" fill="#cc291f"/><g opacity=".5"><path d="m992 431.9c0 .7-.5.9-1.2.6s-1.2-1.1-1.2-1.8.5-.9 1.2-.6c.6.3 1.2 1.2 1.2 1.8z"/><path d="m992 441.6c0 .7-.5.9-1.2.6s-1.2-1.1-1.2-1.8.5-.9 1.2-.6c.6.3 1.2 1.1 1.2 1.8z"/><path d="m988.2 430.6c.5.7.5 1.5 0 1.7s-1.2-.1-1.7-.9c-.5-.7-.5-1.5 0-1.7.4-.2 1.2.2 1.7.9z"/><path d="m995 440.9c.5.7.5 1.5 0 1.7s-1.2-.1-1.7-.9c-.5-.7-.5-1.5 0-1.7s1.3.2 1.7.9z"/><path d="m985.9 432.5c.7.3 1.2 1.1 1.2 1.8s-.5.9-1.2.6-1.2-1.1-1.2-1.8.5-.9 1.2-.6z"/><path d="m995.6 437.4c.7.3 1.2 1.1 1.2 1.8s-.5.9-1.2.6-1.2-1.1-1.2-1.8.5-1 1.2-.6z"/><path d="m986.5 436.6c.5-.2 1.2.1 1.7.9.5.7.5 1.5 0 1.7s-1.2-.1-1.7-.9c-.5-.7-.5-1.5 0-1.7z"/><path d="m993.3 433.2c.5-.2 1.2.1 1.7.9.5.7.5 1.5 0 1.7s-1.2-.1-1.7-.9c-.5-.7-.5-1.5 0-1.7z"/></g><path d="m987.3 407.9c-16.7-8.4-30.3-1.6-30.3 15.1s13.6 37 30.3 45.4 30.3 1.6 30.3-15.1c-.1-16.7-13.6-37.1-30.3-45.4zm0 56.9c-14.7-7.4-26.6-25.2-26.6-39.9s11.9-20.7 26.6-13.3 26.6 25.2 26.6 39.9-11.9 20.6-26.6 13.3z" fill="#fff" opacity=".1"/><path d="m855.9 267.3c-15-7.5-28.5-8-38.2-2.9l-27.6 13.9c-9.3 4.9-15.1 15.1-15.1 29.5 0 29.4 23.8 65.1 53.2 79.8 16.1 8.1 30.6 8.1 40.3 1.6l22.5-11.2c11.1-4.2 18.1-15 18.1-30.9 0-29.4-23.8-65.1-53.2-79.8z" fill="#2d3134"/><path d="m881.4 361c0 29.4-23.8 41.3-53.2 26.6s-53.2-50.4-53.2-79.8 23.8-41.3 53.2-26.6 53.2 50.4 53.2 79.8z" opacity=".11"/><path d="m830.6 279.8c-16-8-30.3-8.1-40.1-1.8 9.2-3 21.1-1.7 34 4.7 29.4 14.7 53.2 50.4 53.2 79.8 0 13.4-5 23.1-13.1 28.4 11.8-3.9 19.2-14.9 19.2-31.3 0-29.3-23.8-65.1-53.2-79.8z" fill="#fff" opacity=".1"/><path d="m854.3 347.4c0 14.4-11.7 20.2-26.1 13s-26.1-24.7-26.1-39.1 11.7-20.2 26.1-13 26.1 24.7 26.1 39.1z" fill="#cc291f"/><path d="m852.1 346.3c0 13.2-10.7 18.6-23.9 12s-23.9-22.7-23.9-35.9 10.7-18.6 23.9-12 23.9 22.7 23.9 35.9z" fill="#cc291f"/><path d="m852.1 346.3c0 13.2-10.7 18.6-23.9 12s-23.9-22.7-23.9-35.9 10.7-18.6 23.9-12 23.9 22.7 23.9 35.9z" fill="#cc291f"/><path d="m852.1 346.3c0 13.2-10.7 18.6-23.9 12s-23.9-22.7-23.9-35.9 10.7-18.6 23.9-12 23.9 22.7 23.9 35.9z" opacity=".29"/><path d="m828.2 310.4c-13.2-6.6-23.9-1.2-23.9 12 0 7.2 3.1 15.1 8.1 22l33.8-16.9c-4.4-7.1-10.8-13.5-18-17.1z" opacity=".15"/><path d="m832.8 313.2-6.3 3.3c-2.9 1.3-5.3 3.5-5.3 7.8 0 7.2 5.8 16 13 19.6 3.3 1.7 6.4 1.9 8.7 1l8.5-4.1c-1.9-10.3-9.3-21.1-18.6-27.6z" fill="#cc291f"/><path d="m832.8 313.2-6.3 3.3c-2.9 1.3-5.3 3.5-5.3 7.8 0 7.2 5.8 16 13 19.6 3.3 1.7 6.4 1.9 8.7 1l8.5-4.1c-1.9-10.3-9.3-21.1-18.6-27.6z" opacity=".29"/><path d="m866.9 317.2c9 14 14.5 29.6 14.5 43.8 0 13.3-4.9 22.9-12.9 28.2l22.5-11.2c11.1-4.2 18.1-15 18.1-30.9 0-14.1-5.5-29.7-14.5-43.7z" opacity=".29"/><path d="m847.4 337.4c0 7.2-5.8 10.1-13 6.5s-13-12.4-13-19.6 5.8-10.1 13-6.5c7.1 3.6 13 12.4 13 19.6z" fill="#cc291f"/><g opacity=".5"><path d="m836.4 323.4c0 1.2-1 1.7-2.1 1.1-1.2-.6-2.1-2-2.1-3.2s1-1.7 2.1-1.1c1.2.6 2.1 2 2.1 3.2z"/><path d="m836.4 340.4c0 1.2-1 1.7-2.1 1.1-1.2-.6-2.1-2-2.1-3.2s1-1.7 2.1-1.1c1.2.6 2.1 2.1 2.1 3.2z"/><path d="m829.8 321.1c.8 1.2.8 2.6 0 3s-2.2-.3-3-1.5-.8-2.6 0-3 2.2.2 3 1.5z"/><path d="m841.8 339.1c.8 1.2.8 2.6 0 3s-2.2-.3-3-1.5-.8-2.6 0-3c.9-.4 2.2.3 3 1.5z"/><path d="m825.8 324.5c1.2.6 2.1 2 2.1 3.2s-1 1.7-2.1 1.1c-1.2-.6-2.1-2-2.1-3.2s.9-1.7 2.1-1.1z"/><path d="m842.8 333c1.2.6 2.1 2 2.1 3.2s-1 1.7-2.1 1.1c-1.2-.6-2.1-2-2.1-3.2s1-1.7 2.1-1.1z"/><path d="m826.8 331.6c.8-.4 2.2.3 3 1.5s.8 2.6 0 3-2.2-.3-3-1.5-.8-2.6 0-3z"/><path d="m838.8 325.6c.8-.4 2.2.3 3 1.5s.8 2.6 0 3-2.2-.3-3-1.5-.8-2.6 0-3z"/></g><path d="m828.2 281.2c-29.4-14.7-53.2-2.8-53.2 26.6s23.8 65.1 53.2 79.8 53.2 2.8 53.2-26.6-23.8-65.1-53.2-79.8zm0 100c-25.9-12.9-46.8-44.4-46.8-70.2 0-25.9 21-36.3 46.8-23.4 25.9 12.9 46.8 44.4 46.8 70.2s-20.9 36.3-46.8 23.4z" fill="#fff" opacity=".1"/><g opacity=".5"><path d="m824.3 283.5 8.5 4.3-4.2-6.4c-.1-.1-.2-.1-.4-.2-2.6-1.3-5.1-2.4-7.6-3.3z"/><path d="m832.8 385.6-8.5-4.3 3.2 5.8c.2.1.5.3.7.4 2.5 1.3 5 2.3 7.4 3.2z"/><path d="m800.3 280 7.4-.6-5.8-4.5c-.1 0-.2 0-.3 0-2.2.2-4.3.6-6.3 1.1z"/><path d="m856.7 388.6-7.4.6 4.9 4.5h.6c2.2-.2 4.2-.5 6.2-1.1z"/><path d="m783.8 291 4.3-5.2-5.8-1.3c-.1.1-.1.1-.2.2-1.3 1.6-2.4 3.3-3.3 5.2z"/><path d="m872.8 377.1-4.3 5.2 5.3 2c.1-.1.3-.3.4-.4 1.3-1.5 2.3-3.2 3.3-5.1z"/><path d="m779.3 313.7v-8.5l-4.2 2.1v.4c0 2.6.2 5.2.6 7.9z"/><path d="m877.2 354.1v8.5l4.2-1.1c0-.2 0-.5 0-.7 0-2.5-.2-5.1-.5-7.7z"/><path d="m787.8 341.9-4.3-9.5-1.6 5c.1.1.1.3.2.4 1.3 2.9 2.7 5.7 4.3 8.5z"/><path d="m868.3 325.8 4.3 9.5 2.1-3.8c-.1-.3-.2-.5-.3-.8-1.3-2.8-2.7-5.6-4.2-8.2z"/><path d="m807.1 368.1-7.4-7.9 1.6 6.6c.1.1.2.2.3.3 2.2 2.4 4.5 4.7 6.9 6.8z"/><path d="m848.7 299.8 7.4 7.9-.6-5.6c-.2-.2-.4-.5-.6-.7-2.2-2.3-4.4-4.5-6.7-6.6z"/></g><g opacity=".5"><path d="m819.8 263.4c-.7.3-1.4.6-2.1 1l-6.9 3.5-.8 1.3-14.7 6.9c2-.6 4.1-1 6.3-1.1h.3l14.8-6.3z"/><path d="m885.8 291.4c-1.6-1.9-3.3-3.7-5-5.5l-8.4 9.9-24.3-.9c2.3 2.1 4.5 4.2 6.7 6.6.2.2.4.5.6.7l21.3.5z"/><path d="m828.2 281.2c.1.1.2.1.4.2l23.6-2.3 5.7-10.7c-.7-.4-1.3-.7-2-1.1-1.5-.8-3-1.4-4.5-2l-5.5 9.4-25.3 3.2c2.5.9 5 2 7.6 3.3z"/><path d="m895.8 365.4 11.5-5.5c.9-2.9 1.5-6 1.7-9.4l-12.3 6.4-15.7-3.7c.3 2.6.5 5.2.5 7.7v.7z"/><path d="m877.5 378.8c-.9 1.8-2 3.5-3.3 5.1-.1.1-.3.3-.4.4l3.5.5 9.1-4.6z"/><path d="m874.7 331.5 20.6 4.3 10.5-9.2c-1-3.2-2.2-6.4-3.6-9.5l-10.5 8.8-21.4-3.4c1.5 2.7 2.9 5.4 4.2 8.2-.1.3 0 .5.2.8z"/></g><path d="m1129 301-70 35v86l10 5 70-35v-86z" fill="#cc291f"/><path d="m1059 422v-86l10 5v86z" opacity=".11"/><path d="m1139 392v-86l-70 35v86z" opacity=".29"/><path d="m1117 228-68 34v86l120 60 68-34v-86z" fill="#cc291f"/><path d="m1049 298v-25l120 60v25z" fill="#e5e5e5"/><path d="m1049 348v-86l120 60v86z" opacity=".11"/><path d="m1237 374v-86l-68 34v86z" opacity=".29"/><path d="m1004 243-30 15v86l46 23 30-15v-86z" fill="#cc291f"/><path d="m974 344v-86l46 23v86z" opacity=".11"/><path d="m1050 352v-86l-30 15v86z" opacity=".29"/><path d="m782.6 242.1-4.8 19.1-17.4-8.7 5-20-4.1-1-21.3 85.3c-.2 1 .2 2 1.1 2.4l21.3 10.7c.3.2.6.2 1 .2.3 0 .6-.1.9-.2.6-.3 1-.8 1.2-1.4l21.3-85.3zm-5.8 23.4-4.2 17-17.4-8.7 4.2-17zm-5.3 21.2-4.2 17-17.4-8.7 4.2-17zm-9.6 38.2-17.4-8.7 4.2-17 17.4 8.7z" fill="#cc291f"/><path d="m782.6 242.1-4.8 19.1-17.4-8.7 5-20-4.1-1-21.3 85.3c-.2 1 .2 2 1.1 2.4l21.3 10.7c.3.2.6.2 1 .2.3 0 .6-.1.9-.2.6-.3 1-.8 1.2-1.4l21.3-85.3zm-5.8 23.4-4.2 17-17.4-8.7 4.2-17zm-5.3 21.2-4.2 17-17.4-8.7 4.2-17zm-9.6 38.2-17.4-8.7 4.2-17 17.4 8.7z" opacity=".11"/><path d="m280 420 156-78-260-130-156 78z" fill="#262626" opacity=".3"/><path d="m123 198.6 16 8-56 28-16-8z" fill="#2d3134"/><path d="m139 217.6v-11l-56 28v11z" fill="#28896d"/><path d="m139 217.6v-11l-56 28v11z" opacity=".29"/><path d="m67 226.6v11l16 8v-11z" fill="#28896d"/><path d="m67 226.6v11l16 8v-11z" opacity=".11"/><path d="m167.4 166.2c-5.2-1.1-10.3-.4-14.7 1.6l-56.7 27.8-.1.1c-7 3.5-12 10.4-12.8 18.7l-.1.2v36l112 56 55.6-27.8.4.2v-.4-92.6-.4z" fill="#28896d"/><path d="m251 278.6v-93l-56 28v93z" opacity=".29"/><g fill="#2d3134"><path d="m145 213.6v2l32 16v-2z"/><path d="m145 218.6v2l32 16v-2z"/><path d="m145 223.6v2l32 16v-2z"/><path d="m145 228.6v2l32 16v-2z"/><path d="m145 233.6v2l32 16v-2z"/><path d="m108 234.6v-24.6c0-4-2.3-7.7-5.9-9.5l-7.7-3.9c-6.8 4-11.4 11.4-11.4 20.1v12.4l18.7 9.3c2.9 1.5 6.3-.6 6.3-3.8z"/></g><path d="m83 250.6v-33.9c0-14.9 13.8-26.1 28.4-22.9l83.6 19.8v93z" opacity=".11"/><path d="m119.2 225.8c-12.5-6.2-23.7-6.7-31.7-2.4l-22.9 11.5c-7.8 4.1-12.6 12.6-12.6 24.6 0 24.4 19.8 54.1 44.2 66.3 13.4 6.7 25.4 6.7 33.5 1.4l18.6-9.3c9.2-3.5 15-12.4 15-25.7.1-24.5-19.7-54.2-44.1-66.4z" fill="#2d3134"/><path d="m140.4 303.7c0 24.4-19.8 34.3-44.2 22.1s-44.2-41.9-44.2-66.3 19.8-34.3 44.2-22.1 44.2 41.9 44.2 66.3z" opacity=".11"/><path d="m98.2 236.3c-13.3-6.6-25.2-6.7-33.3-1.5 7.7-2.5 17.5-1.4 28.2 3.9 24.4 12.2 44.2 41.9 44.2 66.3 0 11.1-4.1 19.2-10.9 23.6 9.8-3.2 16-12.3 16-26 0-24.4-19.8-54.1-44.2-66.3z" fill="#fff" opacity=".1"/><path d="m117.9 292.4c0 12-9.7 16.8-21.7 10.8s-21.7-20.5-21.7-32.5 9.7-16.8 21.7-10.8 21.7 20.5 21.7 32.5z" fill="#28896d"/><path d="m116.1 291.5c0 11-8.9 15.4-19.9 9.9s-19.9-18.8-19.9-29.8 8.9-15.4 19.9-9.9 19.9 18.8 19.9 29.8z" fill="#28896d"/><path d="m116.1 291.5c0 11-8.9 15.4-19.9 9.9s-19.9-18.8-19.9-29.8 8.9-15.4 19.9-9.9 19.9 18.8 19.9 29.8z" fill="#28896d"/><path d="m116.1 291.5c0 11-8.9 15.4-19.9 9.9s-19.9-18.8-19.9-29.8 8.9-15.4 19.9-9.9 19.9 18.8 19.9 29.8z" opacity=".29"/><path d="m96.2 261.7c-11-5.5-19.9-1-19.9 9.9 0 5.9 2.6 12.6 6.7 18.3l28.1-14c-3.6-6-9-11.2-14.9-14.2z" opacity=".15"/><path d="m100 264-5.2 2.8c-2.4 1.1-4.4 2.9-4.4 6.5 0 6 4.8 13.3 10.8 16.2 2.8 1.4 5.3 1.6 7.2.8l7.1-3.4c-1.6-8.5-7.7-17.6-15.5-22.9z" fill="#28896d"/><path d="m100 264-5.2 2.8c-2.4 1.1-4.4 2.9-4.4 6.5 0 6 4.8 13.3 10.8 16.2 2.8 1.4 5.3 1.6 7.2.8l7.1-3.4c-1.6-8.5-7.7-17.6-15.5-22.9z" opacity=".29"/><path d="m128.3 267.3c7.5 11.7 12.1 24.6 12.1 36.4 0 11-4 19.1-10.7 23.5l18.6-9.3c9.2-3.5 15-12.4 15-25.7 0-11.7-4.6-24.7-12-36.3z" opacity=".29"/><path d="m112.1 284.1c0 6-4.8 8.4-10.8 5.4s-10.8-10.3-10.8-16.2 4.8-8.4 10.8-5.4c6 2.9 10.8 10.2 10.8 16.2z" fill="#28896d"/><g opacity=".5"><path d="m103.1 272.5c0 1-.8 1.4-1.8.9s-1.8-1.7-1.8-2.7.8-1.4 1.8-.9 1.8 1.7 1.8 2.7z"/><path d="m103.1 286.6c0 1-.8 1.4-1.8.9s-1.8-1.7-1.8-2.7.8-1.4 1.8-.9c1 .6 1.8 1.7 1.8 2.7z"/><path d="m97.5 270.5c.7 1 .7 2.2 0 2.5s-1.8-.2-2.5-1.2-.7-2.2 0-2.5 1.8.2 2.5 1.2z"/><path d="m107.5 285.5c.7 1 .7 2.2 0 2.5s-1.8-.2-2.5-1.2-.7-2.2 0-2.5c.7-.4 1.8.2 2.5 1.2z"/><path d="m94.2 273.4c1 .5 1.8 1.7 1.8 2.7s-.8 1.4-1.8.9-1.8-1.7-1.8-2.7.8-1.4 1.8-.9z"/><path d="m108.4 280.4c1 .5 1.8 1.7 1.8 2.7s-.8 1.4-1.8.9-1.8-1.7-1.8-2.7.8-1.4 1.8-.9z"/><path d="m95 279.3c.7-.3 1.8.2 2.5 1.2s.7 2.2 0 2.5-1.8-.2-2.5-1.2-.7-2.2 0-2.5z"/><path d="m105 274.3c.7-.3 1.8.2 2.5 1.2s.7 2.2 0 2.5-1.8-.2-2.5-1.2c-.7-1.1-.7-2.2 0-2.5z"/></g><path d="m96.2 237.4c-24.4-12.2-44.2-2.3-44.2 22.1s19.8 54.1 44.2 66.3 44.2 2.3 44.2-22.1-19.8-54.1-44.2-66.3zm0 83.1c-21.5-10.7-38.9-36.9-38.9-58.3 0-21.5 17.4-30.2 38.9-19.5s38.9 36.9 38.9 58.3-17.4 30.2-38.9 19.5z" fill="#fff" opacity=".1"/><g opacity=".5"><path d="m93 239.3 7.1 3.5-3.5-5.3c-.1-.1-.2-.1-.3-.2-2.1-1.1-4.3-2-6.3-2.7z"/><path d="m100 324.2-7.1-3.5 2.6 4.8.6.3c2.1 1 4.1 1.9 6.2 2.6z"/><path d="m73.1 236.4 6.1-.5-4.8-3.7c-.1 0-.2 0-.3 0-1.9.1-3.6.5-5.2.9z"/><path d="m119.8 326.7-6.1.5 4 3.8h.5c1.8-.1 3.5-.5 5.1-.9z"/><path d="m59.3 245.5 3.5-4.4-4.8-1.1c-.1.1-.1.1-.2.2-1.1 1.3-2 2.8-2.8 4.3z"/><path d="m133.3 317.1-3.5 4.4 4.4 1.7c.1-.1.2-.2.3-.4 1-1.3 1.9-2.7 2.7-4.2z"/><path d="m55.6 264.4v-7.1l-3.5 1.8v.3c0 2.1.2 4.3.5 6.5z"/><path d="m136.9 298v7.1l3.5-.9c0-.2 0-.4 0-.6 0-2.1-.2-4.2-.4-6.4z"/><path d="m62.6 287.8-3.5-7.9-1.3 4.2c0 .1.1.2.1.3 1.1 2.4 2.3 4.7 3.6 7z"/><path d="m129.5 274.5 3.5 7.9 1.7-3.2c-.1-.2-.2-.4-.3-.7-1-2.3-2.2-4.6-3.5-6.8z"/><path d="m78.7 309.6-6.1-6.6 1.3 5.5c.1.1.2.2.3.3 1.9 2 3.8 3.9 5.7 5.6z"/><path d="m113.2 252.9 6.1 6.6-.5-4.6c-.2-.2-.3-.4-.5-.6-1.8-1.9-3.7-3.8-5.5-5.5z"/></g><g opacity=".5"><path d="m89.2 222.6c-.6.3-1.2.5-1.8.8l-5.7 2.9-.6 1.1-12.2 5.7c1.6-.5 3.4-.8 5.2-.9h.3l12.3-5.2z"/><path d="m144 245.9c-1.3-1.6-2.7-3.1-4.2-4.6l-6.9 8.2-20.2-.7c1.9 1.7 3.7 3.5 5.5 5.5.2.2.3.4.5.6l17.7.4z"/><path d="m96.2 237.4c.1.1.2.1.3.2l19.6-1.9 4.8-8.9c-.6-.3-1.1-.6-1.7-.9-1.3-.6-2.5-1.2-3.7-1.7l-4.5 7.8-21 2.7c1.9.7 4.1 1.6 6.2 2.7z"/><path d="m152.3 307.4 9.6-4.6c.7-2.4 1.2-5 1.4-7.8l-10.2 5.3-13.1-3c.3 2.2.4 4.3.4 6.4v.6z"/><path d="m137.1 318.5c-.8 1.5-1.7 2.9-2.7 4.2-.1.1-.2.2-.3.4l2.9.4 7.6-3.8z"/><path d="m134.8 279.2 17.1 3.6 8.7-7.6c-.8-2.6-1.9-5.3-3-7.9l-8.7 7.3-17.8-2.9c1.2 2.2 2.4 4.5 3.5 6.8 0 .2.1.5.2.7z"/></g><path d="m203 320-25-12v-38l25 12z" fill="#2d3134"/><path d="m203 320-25-12v-38l25 12z" opacity=".11"/><path d="m308 281v-40l-94 47v40z" fill="#28896d"/><path d="m178 271-10 5v52l4 2 4-2 6-55z" fill="#28896d"/><path d="m168 276 4 2v52l-4-2z" opacity=".11"/><path d="m182 273-10 5v52l4-2z" opacity=".29"/><path d="m180 284-8 4v4l18 9 4-10z" fill="#28896d"/><path d="m172 288v4l18 9v-4z" opacity=".11"/><path d="m178 301-6 3v4l18 9 2-9z" fill="#28896d"/><path d="m172 304v4l18 9v-4z" opacity=".11"/><path d="m176 318-4 2v4l18 9v-8z" fill="#28896d"/><path d="m172 320v4l18 9v-4z" opacity=".11"/><path d="m200 282-10 5v52l4 2 4-2 6-55z" fill="#28896d"/><path d="m190 287 4 2v52l-4-2z" opacity=".11"/><path d="m204 284-10 5v52l4-2z" opacity=".29"/><path d="m234 123c-4.4 0-8 1.8-8 4v78c0 2.2 3.6 4 8 4s8-1.8 8-4v-78c0-2.2-3.6-4-8-4z" fill="#2d3134"/><ellipse cx="234" cy="127" opacity=".8" rx="6" ry="2.5"/><path d="m248.4 225.3c0-1.3-1.1-3-2.4-3.7-.9-.4-1.6-.4-2 .1-1.5.5-3.1.3-4.5-.5-1.6-1-2.5-2.6-2.5-4.5v-137.7h-6v137.7c0 3.9 2 7.5 5.4 9.6 1.8 1.1 3.9 1.7 5.9 1.7 1.7 0 3.5-.4 5.1-1.2-.1 0 1-.7 1-1.5z" fill="#2d3134"/><path d="m237 123.3v1.5c1.8.4 3 1.2 3 2.2 0 1.4-2.7 2.5-6 2.5s-6-1.1-6-2.5c0-.9 1.2-1.7 3-2.2v-1.5c-2.9.6-5 2-5 3.7v78c0 2.2 3.6 4 8 4s8-1.8 8-4v-78c0-1.7-2.1-3.1-5-3.7z" fill="#2d3134"/><path d="m234 131c-4.4 0-8-1.8-8-4v78c0 2.2 3.6 4 8 4s8-1.8 8-4v-78c0 2.2-3.6 4-8 4z" opacity=".2"/><ellipse cx="234" cy="79" fill="#2d3134" rx="3" ry="2"/><path d="m325.7 217.4v38.7l-46.7 14 6.6-32.7 40.4-20.3" fill="#28896d"/><path d="m325.7 217.4v38.7l-46.7 14 6.6-32.7 40.4-20.3" opacity=".29"/><path d="m374.1 227.3c-14.9-7.4-28.3-8-37.9-2.9l-27.4 13.8c-9.2 4.9-15 15-15 29.3 0 29.2 23.7 64.6 52.8 79.2 16 8 30.4 8 40 1.6l22.3-11.1c11-4.2 18-14.9 18-30.7 0-29.1-23.6-64.6-52.8-79.2z" fill="#2d3134"/><path d="m399.4 320.3c0 29.2-23.7 41-52.8 26.4-29.2-14.6-52.8-50.1-52.8-79.2 0-29.2 23.7-41 52.8-26.4 29.2 14.6 52.8 50.1 52.8 79.2z" opacity=".11"/><path d="m349 239.8c-15.9-7.9-30.1-8-39.8-1.8 9.1-3 20.9-1.7 33.7 4.7 29.2 14.6 52.8 50.1 52.8 79.2 0 13.3-4.9 23-13 28.2 11.7-3.9 19.1-14.8 19.1-31.1 0-29.2-23.6-64.6-52.8-79.2z" fill="#fff" opacity=".1"/><path d="m372.5 306.9c0 14.3-11.6 20.1-25.9 12.9-14.3-7.1-25.9-24.5-25.9-38.8s11.6-20.1 25.9-12.9c14.3 7.1 25.9 24.5 25.9 38.8z" fill="#28896d"/><path d="m370.4 305.8c0 13.1-10.6 18.5-23.8 11.9-13.1-6.6-23.8-22.5-23.8-35.7 0-13.1 10.6-18.5 23.8-11.9 13.1 6.6 23.8 22.6 23.8 35.7z" fill="#28896d"/><path d="m370.4 305.8c0 13.1-10.6 18.5-23.8 11.9-13.1-6.6-23.8-22.5-23.8-35.7 0-13.1 10.6-18.5 23.8-11.9 13.1 6.6 23.8 22.6 23.8 35.7z" fill="#28896d"/><path d="m370.4 305.8c0 13.1-10.6 18.5-23.8 11.9-13.1-6.6-23.8-22.5-23.8-35.7 0-13.1 10.6-18.5 23.8-11.9 13.1 6.6 23.8 22.6 23.8 35.7z" opacity=".29"/><path d="m346.6 270.2c-13.1-6.6-23.8-1.2-23.8 11.9 0 7.1 3.1 15 8.1 21.9l33.5-16.8c-4.3-7.2-10.7-13.5-17.8-17z" opacity=".15"/><path d="m347.5 276.6-44.6 22.4c-2.7 1.2-4.9 3.3-4.9 7.2 0 6.7 5.4 14.7 12 18.1 3.1 1.5 5.9 1.8 8 .9l46.7-23.1c-1.8-9.5-8.6-19.6-17.2-25.5z" fill="#2d3134"/><path d="m347.5 276.6-44.6 22.4c-2.7 1.2-4.9 3.3-4.9 7.2 0 6.7 5.4 14.7 12 18.1 3.1 1.5 5.9 1.8 8 .9l46.7-23.1c-1.8-9.5-8.6-19.6-17.2-25.5z" opacity=".29"/><path d="m385 276.9c8.9 13.9 14.4 29.4 14.4 43.5 0 13.2-4.8 22.8-12.8 28l22.3-11.1c11-4.2 18-14.9 18-30.7 0-14-5.5-29.5-14.4-43.4z" opacity=".29"/><path d="m346.6 241.1c-29.2-14.6-52.8-2.8-52.8 26.4s23.7 64.6 52.8 79.2c29.2 14.6 52.8 2.8 52.8-26.4s-23.6-64.6-52.8-79.2zm0 99.3c-25.7-12.8-46.5-44-46.5-69.7s20.8-36.1 46.5-23.2c25.7 12.8 46.5 44 46.5 69.7 0 25.6-20.8 36-46.5 23.2z" fill="#fff" opacity=".1"/><g opacity=".5"><path d="m342.7 243.4 8.5 4.2-4.2-6.3c-.1-.1-.2-.1-.4-.2-2.6-1.3-5.1-2.3-7.6-3.2z"/><path d="m351.2 344.8-8.5-4.2 3.2 5.8c.2.1.5.3.7.4 2.5 1.2 5 2.3 7.4 3.2z"/><path d="m319 239.9 7.3-.6-5.8-4.4c-.1 0-.2 0-.3 0-2.2.2-4.3.6-6.3 1.1z"/><path d="m374.9 347.8-7.3.6 4.8 4.5h.6c2.2-.2 4.2-.5 6.1-1.1z"/><path d="m302.5 250.9 4.2-5.2-5.8-1.3c-.1.1-.1.1-.2.2-1.3 1.6-2.4 3.3-3.3 5.2z"/><path d="m390.9 336.3-4.2 5.2 5.2 2 .4-.4c1.2-1.5 2.3-3.2 3.2-5z"/><path d="m298.1 273.4v-8.4l-4.2 2.1v.4c0 2.6.2 5.2.5 7.8z"/><path d="m395.3 313.5v8.5l4.2-1.1c0-.2 0-.5 0-.7 0-2.5-.2-5-.5-7.6z"/><path d="m306.5 301.4-4.2-9.4-1.5 5c.1.1.1.3.2.4 1.3 2.9 2.7 5.7 4.2 8.4z"/><path d="m386.5 285.5 4.2 9.4 2.1-3.8c-.1-.3-.2-.5-.3-.8-1.2-2.8-2.6-5.5-4.1-8.2z"/><path d="m325.7 327.4-7.3-7.9 1.5 6.5.3.3c2.2 2.4 4.5 4.6 6.8 6.7z"/><path d="m367 259.7 7.3 7.9-.6-5.5c-.2-.2-.4-.5-.6-.7-2.2-2.3-4.4-4.5-6.6-6.5z"/></g><g opacity=".5"><path d="m338.3 223.4c-.7.3-1.4.6-2.1 1l-6.9 3.4-.8 1.3-14.6 6.9c2-.6 4-.9 6.3-1.1h.3l14.7-6.3z"/><path d="m403.8 251.3c-1.6-1.9-3.3-3.7-5-5.5l-8.3 9.8-24.1-.8c2.3 2 4.5 4.2 6.6 6.5.2.2.4.5.6.7l21.2.5z"/><path d="m346.6 241.1c.1.1.2.1.4.2l23.4-2.3 5.7-10.6c-.7-.4-1.3-.7-2-1-1.5-.7-3-1.4-4.4-2l-5.4 9.4-25.2 3.2c2.4.8 5 1.8 7.5 3.1z"/><path d="m413.7 324.7 11.4-5.5c.9-2.8 1.4-6 1.7-9.4l-12.2 6.4-15.6-3.6c.3 2.6.5 5.1.5 7.6v.7z"/><path d="m395.5 338.1c-.9 1.8-2 3.5-3.2 5-.1.1-.3.3-.4.4l3.4.5 9-4.5z"/><path d="m392.7 291.1 20.4 4.3 10.4-9.1c-1-3.2-2.2-6.3-3.6-9.5l-10.4 8.7-21.2-3.4c1.5 2.7 2.9 5.4 4.1 8.2.1.2.2.5.3.8z"/></g><path d="m426.1 282.9-17-38.8-63.3-32-20.1 5.3-40.1 20 20-5.2 63.4 32 17.1 38.8z" fill="#28896d"/><path d="m345.8 212.1-20.1 5.3-40.1 20 20-5.2z" opacity=".1"/><path d="m426.1 282.9-17-38.8-40.1 20.1 16.9 38.7z" opacity=".29"/><path d="m351 263 10 5 10 26-4 2-4-2-16-29z" fill="#28896d"/><path d="m361 268-4 2 10 26 4-2z" opacity=".29"/><path d="m347 265 10 5 10 26-4-2z" opacity=".11"/><path d="m357 282 4 2v4l-18 9-2-7z" fill="#28896d"/><path d="m361 284v4l-18 9v-4z" opacity=".29"/><path d="m329 274 10 5 10 26-4 2-4-2-16-29z" fill="#28896d"/><path d="m339 279-4 2 10 26 4-2z" opacity=".29"/><path d="m325 276 10 5 10 26-4-2z" opacity=".11"/><path d="m243.1 264.3-3.4 34.7-46.7 14 10-28.6 40.4-20.4" fill="#28896d"/><path d="m243.1 264.3-3.4 34.7-46.7 14 10-28.6 40.4-20.4" opacity=".29"/><path d="m269.3 279.2c-14.9-7.4-28.3-8-37.9-2.9l-27.4 13.8c-9.2 4.9-15 15-15 29.3 0 29.2 23.7 64.6 52.8 79.2 16 8 30.4 8 40 1.6l22.3-11.1c11-4.2 18-14.9 18-30.7 0-29.1-23.6-64.6-52.8-79.2z" fill="#2d3134"/><path d="m294.6 372.3c0 29.2-23.7 41-52.8 26.4s-52.8-50.1-52.8-79.2c0-29.2 23.7-41 52.8-26.4s52.8 50 52.8 79.2z" opacity=".11"/><path d="m244.2 291.7c-15.9-7.9-30.1-8-39.8-1.8 9.1-3 20.9-1.7 33.7 4.7 29.2 14.6 52.8 50.1 52.8 79.2 0 13.3-4.9 23-13 28.2 11.7-3.9 19.1-14.8 19.1-31.1 0-29.1-23.6-64.6-52.8-79.2z" fill="#fff" opacity=".1"/><path d="m267.7 358.8c0 14.3-11.6 20.1-25.9 12.9s-25.9-24.5-25.9-38.8 11.6-20.1 25.9-12.9 25.9 24.5 25.9 38.8z" fill="#28896d"/><path d="m265.6 357.7c0 13.1-10.6 18.5-23.8 11.9-13.1-6.6-23.8-22.5-23.8-35.7 0-13.1 10.6-18.5 23.8-11.9s23.8 22.6 23.8 35.7z" fill="#28896d"/><path d="m265.6 357.7c0 13.1-10.6 18.5-23.8 11.9-13.1-6.6-23.8-22.5-23.8-35.7 0-13.1 10.6-18.5 23.8-11.9s23.8 22.6 23.8 35.7z" fill="#28896d"/><path d="m265.6 357.7c0 13.1-10.6 18.5-23.8 11.9-13.1-6.6-23.8-22.5-23.8-35.7 0-13.1 10.6-18.5 23.8-11.9s23.8 22.6 23.8 35.7z" opacity=".29"/><path d="m241.8 322.1c-13.1-6.6-23.8-1.2-23.8 11.9 0 7.1 3.1 15 8.1 21.9l33.5-16.8c-4.3-7.2-10.7-13.5-17.8-17z" opacity=".15"/><path d="m246.4 324.8-6.2 3.3c-2.9 1.3-5.2 3.5-5.2 7.8 0 7.1 5.8 15.8 12.9 19.4 3.3 1.7 6.3 1.9 8.6 1l8.5-4.1c-2-10.1-9.4-21-18.6-27.4z" fill="#28896d"/><path d="m246.4 324.8-6.2 3.3c-2.9 1.3-5.2 3.5-5.2 7.8 0 7.1 5.8 15.8 12.9 19.4 3.3 1.7 6.3 1.9 8.6 1l8.5-4.1c-2-10.1-9.4-21-18.6-27.4z" opacity=".29"/><path d="m280.2 328.8c8.9 13.9 14.4 29.4 14.4 43.5 0 13.2-4.8 22.8-12.8 28l22.3-11.1c11-4.2 18-14.9 18-30.7 0-14-5.5-29.5-14.4-43.4z" opacity=".29"/><path d="m260.8 348.8c0 7.1-5.8 10-12.9 6.5-7.1-3.6-12.9-12.3-12.9-19.4s5.8-10 12.9-6.5c7.1 3.6 12.9 12.3 12.9 19.4z" fill="#28896d"/><g opacity=".5"><path d="m250 335c0 1.2-.9 1.6-2.1 1.1-1.2-.6-2.1-2-2.1-3.2s.9-1.6 2.1-1.1c1.2.6 2.1 2 2.1 3.2z"/><path d="m250 351.9c0 1.2-.9 1.6-2.1 1.1-1.2-.6-2.1-2-2.1-3.2s.9-1.6 2.1-1.1c1.2.6 2.1 2 2.1 3.2z"/><path d="m243.4 332.7c.8 1.2.8 2.6 0 3s-2.2-.3-3-1.5-.8-2.6 0-3c.9-.4 2.2.2 3 1.5z"/><path d="m255.4 350.6c.8 1.2.8 2.6 0 3s-2.2-.3-3-1.5-.8-2.6 0-3 2.1.3 3 1.5z"/><path d="m239.4 336c1.2.6 2.1 2 2.1 3.2s-.9 1.6-2.1 1.1c-1.2-.6-2.1-2-2.1-3.2s1-1.6 2.1-1.1z"/><path d="m256.4 344.5c1.2.6 2.1 2 2.1 3.2s-.9 1.6-2.1 1.1c-1.2-.6-2.1-2-2.1-3.2s.9-1.7 2.1-1.1z"/><path d="m240.4 343.1c.8-.4 2.2.3 3 1.5s.8 2.6 0 3-2.2-.3-3-1.5-.8-2.6 0-3z"/><path d="m252.4 337.1c.8-.4 2.2.3 3 1.5s.8 2.6 0 3-2.2-.3-3-1.5-.8-2.5 0-3z"/></g><path d="m241.8 293c-29.2-14.6-52.8-2.8-52.8 26.4s23.7 64.6 52.8 79.2 52.8 2.8 52.8-26.4-23.6-64.6-52.8-79.2zm0 99.3c-25.7-12.8-46.5-44-46.5-69.7s20.8-36.1 46.5-23.2c25.7 12.8 46.5 44 46.5 69.7s-20.8 36.1-46.5 23.2z" fill="#fff" opacity=".1"/><g opacity=".5"><path d="m238 295.3 8.5 4.2-4.2-6.3c-.1-.1-.2-.1-.4-.2-2.6-1.3-5.1-2.3-7.6-3.2z"/><path d="m246.4 396.7-8.5-4.2 3.2 5.8c.2.1.5.3.7.4 2.5 1.2 5 2.3 7.4 3.2z"/><path d="m214.2 291.8 7.3-.6-5.8-4.4c-.1 0-.2 0-.3 0-2.2.2-4.3.6-6.3 1.1z"/><path d="m270.1 399.7-7.3.6 4.8 4.5h.6c2.2-.2 4.2-.5 6.1-1.1z"/><path d="m197.7 302.8 4.2-5.2-5.8-1.3c-.1.1-.1.1-.2.2-1.3 1.6-2.4 3.3-3.3 5.2z"/><path d="m286.1 388.3-4.2 5.2 5.2 2 .4-.4c1.2-1.5 2.3-3.2 3.2-5z"/><path d="m193.3 325.3v-8.5l-4.2 2.1v.4c0 2.6.2 5.2.5 7.8z"/><path d="m290.5 365.5v8.5l4.2-1.1c0-.2 0-.5 0-.7 0-2.5-.2-5-.5-7.6z"/><path d="m201.7 353.3-4.2-9.4-1.5 5c.1.1.1.3.2.4 1.3 2.9 2.7 5.7 4.2 8.4z"/><path d="m281.7 337.4 4.2 9.4 2.1-3.8c-.1-.3-.2-.5-.3-.8-1.2-2.8-2.6-5.5-4.1-8.2z"/><path d="m220.9 379.3-7.3-7.9 1.5 6.5c.1.1.2.2.3.3 2.2 2.4 4.5 4.6 6.8 6.7z"/><path d="m262.2 311.6 7.3 7.9-.6-5.5c-.2-.2-.4-.5-.6-.7-2.2-2.3-4.4-4.5-6.6-6.5z"/></g><g opacity=".5"><path d="m233.5 275.4c-.7.3-1.4.6-2.1 1l-6.9 3.4-.8 1.3-14.6 6.9c2-.6 4-.9 6.3-1.1h.3l14.7-6.3z"/><path d="m299 303.2c-1.6-1.9-3.3-3.7-5-5.5l-8.3 9.8-24.1-.8c2.3 2 4.5 4.2 6.6 6.5.2.2.4.5.6.7l21.2.5z"/><path d="m241.8 293c.1.1.2.1.4.2l23.4-2.3 5.7-10.6c-.7-.4-1.3-.7-2-1-1.5-.7-3-1.4-4.4-2l-5.4 9.4-25.2 3.2c2.4.8 5 1.9 7.5 3.1z"/><path d="m308.9 376.7 11.4-5.5c.9-2.8 1.4-6 1.7-9.4l-12.2 6.4-15.6-3.6c.3 2.6.5 5.1.5 7.6v.7z"/><path d="m290.7 390c-.9 1.8-2 3.5-3.2 5-.1.1-.3.3-.4.4l3.4.5 9-4.5z"/><path d="m287.9 343 20.4 4.3 10.4-9.1c-1-3.2-2.2-6.3-3.6-9.5l-10.4 8.7-21.2-3.4c1.5 2.7 2.9 5.4 4.1 8.2.1.3.2.5.3.8z"/></g><path d="m340.1 325.8-17-38.8 47.9-24-58-30-48.7 24-21.2 7.3-40.1 20.1 21.1-7.3 58.9 30 17.1 38.8z" fill="#28896d"/><path d="m264.3 257-21.2 7.3-40.1 20.1 21.1-7.3z" opacity=".1"/><path d="m340.1 325.8-17-38.8-40.1 20.1 16.9 38.8z" opacity=".29"/><path d="m272 101-94 47v123l26 13 31-17 37 18 94-47v-90z" fill="#2d3134"/><path d="m239 258-35 19-16-8v-105l80 40.1v67.9z" fill="#656565"/><path d="m188 164 80 40.1v67.9z" fill="#fff" opacity=".1"/><path d="m242 269.1-6-3v-91.1l6 3z" fill="#2d3134"/><path d="m362 229v-68l-86 43v68z" fill="#656565"/><path d="m272 206.3 94 2.8v-54.1l-94 47z" opacity=".15"/><path d="m366 159v-11l-94 47v11z" fill="#2d3134"/><path d="m322.7 208.9-16.6 8.3c-6.9 3.5-11.3 10.6-11.3 18.3v26.5l7-3.5v.6l38.2-19.1v-22.6c0-12.4-14.2-10-17.3-8.5z" opacity=".2"/><path d="m188 269 12-6v-49l-12-2.6z" opacity=".2"/><path d="m200 214v49l68-34v-24.9l-25-12.6z" opacity=".1"/><path d="m188 164v7l31 8z" fill="#fff" opacity=".3"/><path d="m242 260 12-6v-29l14-7v54z" opacity=".15"/><path d="m272 198-94-50v123l26 13 31-17 37 18z" opacity=".11"/><path d="m366 238v-90l-94 47v90z" opacity=".29"/><path d="m270 92-94 47v15l98 49 94-47v-15z" fill="#28896d"/><path d="m176 154v-15l98 49v15z" opacity=".11"/><path d="m368 156v-15l-94 47v15z" opacity=".29"/><path d="m314 298.3v-5c0-2-2.1-3.3-3.9-2.4l-12.6 6.3c-.9.5-1.5 1.4-1.5 2.4v5c0 2 2.1 3.3 3.9 2.4l12.6-6.3c.9-.4 1.5-1.3 1.5-2.4z" fill="#cc2900"/><ellipse cx="308.2" cy="297.4" fill="#2d3134" opacity=".3" rx="4.9" ry="3.2" transform="matrix(-.6313 .7756 -.7756 -.6313 733.4196 246.0559)"/><ellipse cx="302" cy="300.4" fill="#2d3134" opacity=".3" rx="4.9" ry="3.2" transform="matrix(-.6313 .7756 -.7756 -.6313 725.5706 255.7876)"/><path d="m313.4 299.9-16.9-1.9c-.3.5-.6 1-.6 1.6v5c0 2 2.1 3.3 3.9 2.4l12.6-6.3c.5-.1.8-.4 1-.8z" fill="#fff" opacity=".3"/><path d="m314 298.3v-5c0-2-2.1-3.3-3.9-2.4l-12.6 6.3c-.9.5-1.5 1.4-1.5 2.4v5c0 2 2.1 3.3 3.9 2.4l12.6-6.3c.9-.4 1.5-1.3 1.5-2.4z" opacity=".29"/><path d="m401 255.3v-5c0-2-2.1-3.3-3.9-2.4l-12.6 6.3c-.9.5-1.5 1.4-1.5 2.4v5c0 2 2.1 3.3 3.9 2.4l12.6-6.3c.9-.4 1.5-1.3 1.5-2.4z" fill="#cc2900"/><ellipse cx="395.2" cy="254.4" fill="#2d3134" opacity=".3" rx="4.9" ry="3.2" transform="matrix(-.6313 .7756 -.7756 -.6313 841.9916 108.4375)"/><ellipse cx="389" cy="257.4" fill="#2d3134" opacity=".3" rx="4.9" ry="3.2" transform="matrix(-.6313 .7756 -.7756 -.6313 834.1425 118.1692)"/><path d="m400.4 256.9-16.9-1.9c-.3.5-.6 1-.6 1.6v5c0 2 2.1 3.3 3.9 2.4l12.6-6.3c.5-.1.8-.4 1-.8z" fill="#fff" opacity=".3"/><path d="m401 255.3v-5c0-2-2.1-3.3-3.9-2.4l-12.6 6.3c-.9.5-1.5 1.4-1.5 2.4v5c0 2 2.1 3.3 3.9 2.4l12.6-6.3c.9-.4 1.5-1.3 1.5-2.4z" opacity=".29"/><path d="m360 300-20 10v10l100 70 60-30v-10zm24 28 84 28-28 14z" fill="#28896d"/><path d="m340 310v10l100 70 60-30v-10l-60 30z" opacity=".06"/><path d="m468 356 12-6-120-40 24 18z" opacity=".06"/><path d="m400 470 140-70 240 120-140 70z" opacity=".3"/><path d="m594.5 497.7c-7.5-3.7-14.2-4.2-19.2-1.9l-14 7c-5.4 2.4-8.8 7.9-8.8 15.9 0 15.5 12.5 34.3 28 42 7.6 3.8 14.6 4.2 19.6 1.8 0 0 13.9-6.9 15.1-7.6 4.5-2.7 7.3-7.9 7.3-15.2 0-15.5-12.5-34.3-28-42z" fill="#2d3134"/><path d="m600.4 562.3c2-1 13.7-6.8 14.8-7.5 4.5-2.7 7.3-7.9 7.3-15.2 0-6.2-2.1-13-5.5-19.3l-14 7c3.4 6.4 5.5 13.1 5.5 19.3 0 7.7-3.1 13.1-8.1 15.7z" opacity=".39"/><path d="m601.5 543c0 11.6-9.4 16.3-21 10.5s-21-19.9-21-31.5 9.4-16.3 21-10.5 21 19.9 21 31.5z" fill="#999"/><path d="m582.3 552.8c-11.6-5.8-21-19.9-21-31.5 0-5.7 2.3-9.7 6-11.7-4.7 1.5-7.7 5.8-7.7 12.4 0 11.6 9.4 25.7 21 31.5 5.9 2.9 11.2 3.2 15 1.2-3.7 1.1-8.3.6-13.3-1.9z" fill="#808285"/><path d="m591 536.2c0 4.8-3.9 6.8-8.8 4.4s-8.8-8.3-8.8-13.1 3.9-6.8 8.8-4.4 8.8 8.2 8.8 13.1z" fill="#2d3134"/><path d="m591 536.2c0 4.8-3.9 6.8-8.8 4.4s-8.8-8.3-8.8-13.1 3.9-6.8 8.8-4.4 8.8 8.2 8.8 13.1z" opacity=".39"/><path d="m589.3 537c0 4.8-3.9 6.8-8.8 4.4s-8.8-8.3-8.8-13.1 3.9-6.8 8.8-4.4 8.8 8.2 8.8 13.1z" fill="#2d3134"/><path d="m608.5 546.7c0 15.5-12.5 21.7-28 14s-28-26.5-28-42 12.5-21.7 28-14 28 26.5 28 42z" opacity=".06"/><path d="m605 519.4v37.5l25-12.5v-37.5z" fill="#2d3134"/><path d="m605 519.4v37.5l25-12.5v-37.5z" opacity=".06"/><path d="m454.5 427.7c-7.5-3.7-14.2-4.2-19.2-1.9l-14 7c-5.4 2.4-8.8 7.9-8.8 15.9 0 15.5 12.5 34.3 28 42 7.6 3.8 14.6 4.2 19.6 1.8 0 0 13.9-6.9 15.1-7.6 4.5-2.7 7.3-7.9 7.3-15.2 0-15.5-12.5-34.3-28-42z" fill="#2d3134"/><path d="m460.4 492.3c2-1 13.7-6.8 14.8-7.5 4.5-2.7 7.3-7.9 7.3-15.2 0-6.2-2.1-13-5.5-19.3l-14 7c3.4 6.4 5.5 13.1 5.5 19.3 0 7.7-3.1 13.1-8.1 15.7z" opacity=".39"/><path d="m461.5 473c0 11.6-9.4 16.3-21 10.5s-21-19.9-21-31.5 9.4-16.3 21-10.5 21 19.9 21 31.5z" fill="#999"/><path d="m442.3 482.8c-11.6-5.8-21-19.9-21-31.5 0-5.7 2.3-9.7 6-11.7-4.7 1.5-7.7 5.8-7.7 12.4 0 11.6 9.4 25.7 21 31.5 5.9 2.9 11.2 3.2 15 1.2-3.7 1.1-8.3.6-13.3-1.9z" fill="#808285"/><path d="m451 466.2c0 4.8-3.9 6.8-8.8 4.4-4.8-2.4-8.8-8.3-8.8-13.1s3.9-6.8 8.8-4.4c4.9 2.3 8.8 8.2 8.8 13.1z" fill="#2d3134"/><path d="m451 466.2c0 4.8-3.9 6.8-8.8 4.4-4.8-2.4-8.8-8.3-8.8-13.1s3.9-6.8 8.8-4.4c4.9 2.3 8.8 8.2 8.8 13.1z" opacity=".39"/><path d="m449.3 467c0 4.8-3.9 6.8-8.8 4.4s-8.8-8.3-8.8-13.1 3.9-6.8 8.8-4.4 8.8 8.2 8.8 13.1z" fill="#2d3134"/><path d="m468.5 476.7c0 15.5-12.5 21.7-28 14s-28-26.5-28-42 12.5-21.7 28-14 28 26.5 28 42z" opacity=".06"/><path d="m465 449.4v37.5l25-12.5v-37.5z" fill="#2d3134"/><path d="m465 449.4v37.5l25-12.5v-37.5z" opacity=".06"/><path d="m780 450v20l-140 70v-20z" fill="#2d3134"/><path d="m775 456.9v10l-10 5v-10z" fill="#cc2900"/><path d="m760 464.4v10l-10 5v-10z" fill="#cc2900"/><path d="m670 509.4v10l-10 5v-10z" fill="#cc2900"/><path d="m655 516.9v10l-10 5v-10z" fill="#cc2900"/><path d="m735 471.9v12.5l-50 25v-12.5z" fill="#fff"/><path d="m400 400v20l240 120v-20z" fill="#2d3134"/><path d="m540 250-140 70v80l240 120 140-70v-80z" fill="#28896d"/><path d="m680 410-140-70v-80l220 110z" opacity=".06"/><path d="m500 360 40-20v-80l-120 60z" opacity=".39"/><path d="m640 540-240-120v-100l240 120z" opacity=".06"/><path d="m780 370-140 70v100l140-70z" opacity=".39"/><path d="m540 250-140 70 240 120 140-70zm100 180-220-110 120-60 220 110z" fill="#28896d"/><path d="m500 360 140 70 40-20-140-70z" fill="#fff" opacity=".1"/><path d="m540 300-80 40 180 90 80-40z" fill="#fc0"/><path d="m878 186.3-28-13.9c-51.6 25.2-265.9 132.7-265.9 132.7-2.1 1-3.8 2.5-4.5 4.7-.3.5-.5 1.1-.5 1.7v31c0 3 4.9 5.5 11 5.5s11-2.5 11-5.5v-13.6l272.7-136.1c2.4-.8 4.1-3.1 4.2-6.5z" fill="#2d3134"/></svg>