<svg viewBox="0 0 144 112" xmlns="http://www.w3.org/2000/svg"><path d="m64 112-64-32v-32l16-8h16l16 16 16 24z" fill="#762c07"/><path d="m64 112-64-32v-4l64 32z" opacity=".3"/><path d="m50 105-1-.5v-45l1 1.5z" opacity=".15"/><path d="m55 107.5-1-.5v-41l1 2.5z" opacity=".15"/><path d="m60 110-1-.5v-36l1 2.5z" opacity=".15"/><path d="m45 102.5-1-.5v-49l1 1.1z" opacity=".15"/><path d="m20 90-1-.5v-48.4l1-.1z" opacity=".15"/><path d="m25 68.5-1-.5v-27l1 .1z" opacity=".15"/><path d="m30 71-1-.5v-29.5h1z" opacity=".15"/><path d="m40 76-1-.5v-27.4l1 .9z" opacity=".15"/><path d="m35 73.5-1-.5v-30l1 1z" opacity=".15"/><path d="m15 87.5-1-.5v-44.2l1-.3z" opacity=".15"/><path d="m10 85-1-.5v-39.4l1-.1z" opacity=".15"/><path d="m5 82.5-1-.5v-34l1-1.5z" opacity=".15"/><path d="m41 70.5-6-3v-13l6 3z" fill="#fff"/><path d="m40 69-4-2v-11l4 2z" fill="#656565"/><path d="m40 59-4-2v-1l4 2z" opacity=".15"/><path d="m40 63-4-2v-1l4 2z" fill="#fff"/><path d="m29 64.5-6-3v-13l6 3z" fill="#fff"/><path d="m28 63-4-2v-11l4 2z" fill="#656565"/><path d="m28 53-4-2v-1l4 2z" opacity=".15"/><g fill="#fff"><path d="m28 57-4-2v-1l4 2z"/><path d="m62 79 2 1v32l-2-1z"/><path d="m2 81-2-1v-32l2 1z"/><path d="m48 56-16-16h-16l-16 8 2 1 15-7.5 15 .5 15 14.5 15 22.5 2 1z"/><path d="m55 107.5-12-6v-24l12 6z"/></g><path d="m54 106-10-5v-22l10 5z" fill="#762c07"/><path d="m54.4 84.5-.8-1-10.6 5.3v1.4l10.6 16 .8-.4-10.7-16z" fill="#fff"/><path d="m9 84.5 12 6v-24l-12-6z" fill="#fff"/><path d="m10 84 10 5v-22l-10-5z" fill="#762c07"/><path d="m9.6 62.2.8-.4 10.6 16v1.4l-10.6 5.3-.8-1 10.7-5.4z" fill="#fff"/><path d="m43 101.5-22-11v-24l22 11z" fill="#fff"/><path d="m43 100.5-22-11v-22l22 11z" fill="#825012"/><path d="m21 89.5 22-11-22-11z" opacity=".2"/><path d="m43 100.5-22-11v-22l22 11z" opacity=".5"/><path d="m64 112-64-32v-32l16-8h16l16 16 16 24z" opacity=".11"/><path d="m128 16-16-16h-16l-80 40h16l16 16 16 24 80-40z" fill="#2d3134"/><path d="m48 56 16 24 80-40-16-24z" opacity=".29"/><path d="m48 56-16-16 80-40 16 16z" opacity=".1"/><path d="m144 72-80 40v-32l80-40z" fill="#762c07"/><path d="m143 72.5-78 39v-4l78-39z" opacity=".3"/><path d="m66 111-2 1v-32l2-1z" fill="#fff"/><path d="m144 72-2 1v-32l2-1z" fill="#fff"/><path d="m74 107-1 .5v-32l1-.5z" opacity=".15"/><path d="m69 109.5-1 .5v-32l1-.5z" opacity=".15"/><path d="m79 104.5-1 .5v-32l1-.5z" opacity=".15"/><path d="m119 84.5-1 .5v-32l1-.5z" opacity=".15"/><path d="m114 87-1 .5v-32l1-.5z" opacity=".15"/><path d="m109 89.5-1 .5v-32l1-.5z" opacity=".15"/><path d="m104 92-1 .5v-32l1-.5z" opacity=".15"/><path d="m134 77-1 .5v-32l1-.5z" opacity=".15"/><path d="m139 74.5-1 .5v-32l1-.5z" opacity=".15"/><path d="m129 79.5-1 .5v-32l1-.5z" opacity=".15"/><path d="m124 82-1 .5v-32l1-.5z" opacity=".15"/><path d="m99 94.5-1 .5v-32l1-.5z" opacity=".15"/><path d="m89 99.5-1 .5v-32l1-.5z" opacity=".15"/><path d="m94 97-1 .5v-32l1-.5z" opacity=".15"/><path d="m84 102-1 .5v-32l1-.5z" opacity=".15"/><path d="m81 95.5-6 3v-13l6-3z" fill="#fff"/><path d="m80 95-4 2v-11l4-2z" fill="#656565"/><path d="m80 85-4 2v-1l4-2z" opacity=".15"/><path d="m80 89-4 2v-1l4-2z" fill="#fff"/><path d="m94 89-6 3v-13l6-3z" fill="#fff"/><path d="m93 88.5-4 2v-11l4-2z" fill="#656565"/><path d="m93 78.5-4 2v-1l4-2z" opacity=".15"/><path d="m93 82.5-4 2v-1l4-2z" fill="#fff"/><path d="m107 82.5-6 3v-13l6-3z" fill="#fff"/><path d="m106 82-4 2v-11l4-2z" fill="#656565"/><path d="m106 72-4 2v-1l4-2z" opacity=".15"/><path d="m106 76-4 2v-1l4-2z" fill="#fff"/><path d="m120 76-6 3v-13l6-3z" fill="#fff"/><path d="m119 75.5-4 2v-11l4-2z" fill="#656565"/><path d="m119 65.5-4 2v-1l4-2z" opacity=".15"/><path d="m119 69.5-4 2v-1l4-2z" fill="#fff"/><path d="m133 69.5-6 3v-13l6-3z" fill="#fff"/><path d="m132 69-4 2v-11l4-2z" fill="#656565"/><path d="m132 59-4 2v-1l4-2z" opacity=".15"/><path d="m132 63-4 2v-1l4-2z" fill="#fff"/><path d="m144 72-80 40v-32l80-40z" opacity=".29"/></svg>