<svg viewBox="0 0 320 240" xmlns="http://www.w3.org/2000/svg"><path d="m202 201.7c22.3-12.1 93.7-42.5 60.6-62.8-31-18.9-97 16.9-118.8 28.6-32.2 17.1-64.6 40.4-44.9 52.7 20 12.6 61.1 4.2 103.1-18.5z" opacity=".2"/><path d="m234.5 22.4c2.4-1.7 7.1-4.7 14.5 0s7.5 18.3 11 26.9c5.5 13.6 14.6 19.6 13.8 23.4-.9 3.8-9.6-1.7-14.5-11.7-4.8-10-12.4-33.1-12.4-33.1z" fill="#825012"/><path d="m207 144.3s-.9 3.3-.7 4.1c.2.9 3.4 1.9 6.9 2.1 3.4.2 7.4-2.4 7.6-3.4s-1.4-10.3-1.4-10.3z" fill="#2d3134"/><path d="m233.2 116.7c.9 2.4 2.3 9.2-1.4 13.8-1.9 2.4-3.4 2.8-3.4 2.8s.3 6-1.4 6.9-4.1-5.5-4.1-5.5z" fill="#fbd7c7"/><path d="m52 121.6s-1.4 5.9-4.8 9.6c-3.4 3.8-2.8 11 0 14.5 2.8 3.4 6 10 3.4 17.9s-6.4 10.3-3.4 15.2c2.9 4.8 11.2 8.6 16.5 3.4s17.9-17.9 21.4-20.7c3.4-2.8 7.8-12.1 11.7-13.8 4.4-1.9 7.8-2.1 9.6 2.8 1.9 4.8 2 5.6 3.4 9 1.3 2.9 6.2 5.3 5.5 13.8-.7 8.4-5.5 20.3-4.8 22s4.8 4 9 4.1c4.1.2 7.4-2.8 7.6-4.1.2-1.4-2.2-4.7-2.8-9.6-.5-5 .7-15.8.7-15.8s4.3-.2 9-1.4 9.8-4.8 11.7 1.4 4 22 2.8 28.2-4.5 13.4-3.4 15.2c1 1.7 4.7 2.8 7.6 2.8s6.7-2.2 7.6-3.4-2.8-11.5-2.8-17.9 5.5-25.5 6.9-30.3 3.4-12.4 3.4-12.4 38.9-1.2 51.7-13.1c12.7-11.9 17.2-24.8 17.2-24.8s3.3 6.2 4.1 10.3c.9 4.1 7.1 5.3 8.3 14.5s-4 23.9-4.1 25.5c-.2 1.6 1.9 4.1 7.6 4.1s7.6-2.6 7.6-4.1-2.4-19.6-2.8-24.8 2.6-14 .7-18.6c-1.9-4.7-2.6-8.3-2.1-17.2s5.9-46.7 1.4-60.6c-4.5-14-7.8-18.9-22.7-20.7s-21.4 3.6-33.8 9c-12.4 5.3-25.7 23.3-42 29.6s-26.7 7.8-40 15.2-41 33.6-53 34.4c-12.1.9-22.7-6.2-22.7-6.2s-.4 15.6 8.8 17z" fill="#f8ebcb"/><path d="m73.3 170.1c-2.3 1.6-14.1-5.2-13.1-14.5s8.6-16.5 15.2-15.2c6.5 1.4 15.2-2.4 14.1 5.2-1 7.7-4.5 16.6-16.2 24.5z" fill="#825012"/><path d="m244.9 164.3c-.2 1.6 1.9 4.1 7.6 4.1s7.6-2.6 7.6-4.1c0-.6-.4-3.8-.9-7.8-4.2 2.2-8.3 2.5-12-.9-1.1 4.4-2.3 8-2.3 8.7z" fill="#2d3134"/><path d="m110.5 195.3c.7 1.7 4.8 4 9 4.1 4.1.2 7.4-2.8 7.6-4.1.1-1.1-1.3-3.3-2.2-6.5-3.4 1.4-8 1.1-12.7-.1-1.1 3.3-2 5.8-1.7 6.6z" fill="#2d3134"/><path d="m152.6 215.9c2.9 0 6.7-2.2 7.6-3.4.4-.6-.3-3.7-1.1-7.4-5.6 2-9.7 1.5-12.3-.5-1.2 4-2.4 7.4-1.7 8.6.9 1.7 4.5 2.7 7.5 2.7z" fill="#2d3134"/><path d="m67.1 152.6c-.4-.3 4.1-4.1 5.5-2.8 1.4 1.4-1.2 6-5.5 2.8z" fill="#2d3134"/><path d="m76.8 131.2s6.5 1 12.4 1.4c5.9.3 9 .7 9 .7s-1.4 5-4.8 6.2c-3.5 1.2-11.8-.3-16.6-8.3z" opacity=".15"/><path d="m60.9 178.7c-.5-2.1-1.7-2.8-3.4-.7-1.4 1.7-5.8 3.1-9.4 1.9 3.1 3.8 9.4 6.4 14.2 3.3-.5-1.4-1.1-3.3-1.4-4.5z" opacity=".15"/><path d="m270.1 65.6-5.2 3.6s.6 6.2 5.6 10.5c4.3 3.8 12.6 6 19.2 4.3-5.3-3.2-6.9-8.7-9.9-11.8-4.6-4.7-9.7-6.6-9.7-6.6z" fill="#2d3134"/><g fill="#825012"><path d="m210.1 123.6c-.7-11.4-2.8-13.1-7.6-8.6s-20.3 16.5-27.9 21.4c-5.4 3.5-6.6 11.3-6.8 15.5.8 0 14.6-.5 28.2-3.4 1.8-.4 14.8-13.5 14.1-24.9z"/><path d="m118.8 76.1c-3.8 2.1-8.7 5.8-14.2 9.9 11.9-.9 27.6-1.8 32.4 4.2 9.3 11.7 34.4 11 38.6-2.4 4.1-13.4 11.4-10 14.8-1.4 4.1 10.3 24.7-17.3 10.7-25.1-9.3-5.2 9-13.3 1-13-2.3.1 4.9-12.9 8.5-21.6-3 1.4-6.2 3-9.9 4.6-12.4 5.3-25.7 23.3-42 29.6-6.3 2.4-21.5 7.9-36.1 13.2-1.2.6-2.5 1.3-3.8 2z"/><path d="m132.2 129.5c-12.1-11.4-5.2-18.3-12.1-13.8s-9 16.9-16.9 25.8c0 0 .3 2.3.7 5.7.9.6 1.8 1.7 2.4 3.3 1.9 4.8 2 5.6 3.4 9 1.2 2.7 15.2 10.3 15.2 10.3s4.3-.2 9-1.4c3.5-.9 7.2-3.1 9.7-1.6 7.3-3 7.8-7.5 9.6-18 2.1-12.1-8.9-7.9-21-19.3z"/><path d="m231.8 33c-6.9 3.3 8.3 16.9.3 20-7.9 3.1-18.9 0-14.8 7.6s1.7 21.4 5.5 26.2 9 16.9 11.7 5.2 4.8-20 12.7-21.7 8.6-7.6 7.6-16.2c-1-8.7-14.4-25.2-23-21.1z"/><path d="m76.8 131.2 21.4 2.1s-6.2-7.1-11.3-7.3-10.1 5.2-10.1 5.2z"/><path d="m43 104.3s-.2 15.8 9 17.2c0 0 13.6-5 17.1-2.8 4.3 2.8 11.2.5 11.4-4.3.1-2.7-1.2-6.4-2.4-9.1-4.8 2.9-9 4.9-12.2 5.1-12.2 1-22.9-6.1-22.9-6.1z"/></g><path d="m51.9 121.5c.7-1 1.6-3-.6-4.8-3.1-2.6-6.4-7.6-8.3-12.4 0 0-.2 15.8 8.9 17.2z" opacity=".15"/></svg>