<svg viewBox="0 0 80 240" xmlns="http://www.w3.org/2000/svg"><path d="m5.8 225.5c6 6.8 20.3 9.6 38.8 6.1s25.9-9 18.3-15.2-18.2-7.2-29.3-4.5c-11.1 2.6-35.5 4.8-27.8 13.6z" opacity=".2"/><path d="m15.8 109s.8 6.1.9 7.6c.1 1.6.7 3.3 1.4 5.1s3.8 6.5 4.8 7.2 4.9-4.7 4.7-6.5c-.1-1.8-1.5-5.9-2.3-6.7s-2.4-1.4-2.9-2.4c-.5-1.1 0-5.7 0-5.7z" fill="#fbd7c7"/><path d="m63.3 93.5s-2.5 9.2-3.3 10.4-2.7 4.9-2.1 6.8 5.4 4.3 5.6 2.6.4-5.4 1.3-7.3c1-2 5-10.3 5-10.3z" fill="#fbd7c7"/><path d="m49.5 59.4c4.8-.9 11.1-2.9 14.5-2.3s4.2 2.8 5.9 6.3 5 9 6.4 11.4c1.4 2.5 3.3 3.5 1 8.1s-7 13.7-7 13.7l-7.6-2.5s2.6-8.2 3.7-10 2.2-4.3 2.2-4.3-2.6-2.9-3.4-3.9-2.2-2.2-2.2-2.2-.1 6-2.1 10.1-3.5 9.6-3 12.5c.5 3 2.4 8.8 2.4 8.8s-11.6 6.4-17.6 7.6-14.4.3-14.4.3 1.3-13.1 1.3-16.7-.5-7.9-.5-7.9l-4.4 6.3s0 4.8-1 9.4c-.6 2.8-1.4 5.2-1.4 5.2l-7.1.3s.2-9.8.3-12.8c.1-2.8.8-5.6 2.3-8.9 2.5-5.5 5.8-13.2 6.8-15.9s4.4-9 9.3-9.7c5-.6 11.1-2 15.6-2.9z" fill="#f90"/><path d="m41.3 34.7c-1.4 2.7-1.3 9.6-.2 12.4s2.5 2.7 2.6 5.3c.1 2.5-.7 8.5-.7 8.5s4.1-.9 6.8-.6 6.3-1.4 6.2-1.8-.6-5.4.1-6.9 5.6-5.6 5.2-12.3c-.5-6.7-13.1-18.4-20-4.6z" fill="#fbd7c7"/><path d="m40.2 37.1c-.2 1.5 2 3.5 2.6 7.9s4.4 7.3 8.8 7.5 5.4-3 6.6-4.2c1.2-1.3 5.4-7.8 2.9-14.5-2.4-6.6-18.2-13.4-20.9 3.3z" fill="#762c07"/><path d="m27.3 106.1s12.7-2.1 13.5-4.8c.8-2.6 1.4-23.8-.1-29.7s-6.1-9.5-6.1-9.5l3.4-.5s4.7 4.3 5.6 10.9c.7 4.9.6 20.1.6 20.1l9.5-1.4s4-14.3 4-19.7-1.7-14.4-1.7-14.4l2.4-.8s2.7 7.9 1.9 16c-.8 8-3.9 16.6-4.1 19.1s.1 7 .8 7.5 2.3.8 2.3.8 3.7 9.1 6.2 15.2 4 16.4 1.2 29.5c-2.9 13.1-5.2 21.8-4 35.5s0 25.3-.4 30-1.8 10.7-1.8 10.7l-9.1-2.3s.4-14.3.1-19.5-1.6-21.3-2.6-28.6c-1.1-7.3-1.7-30.9-1.7-30.9s-7.3 8.5-10.7 17.9-4.8 12.7-4.2 18.8c.5 6.1-.1 28.8-1.3 35.2-1.3 6.3-3 11.7-3 11.7l-10.6-2.8s2.5-17.3 2-25.7-2.3-16.9-2.9-20.5c-.5-3.6.5-9 1.3-13.4s1.1-19.1 4.2-28.1c3.2-8.9 5.8-15.4 5.3-26.3z" fill="#28896d"/><path d="m15.1 219.4c-1.8-.2-5.3-1.1-7.3 1.1-2.2 2.3-1.5 5.7 1.7 6.8s7.5 2 9.4 3c2 1 7.4 1.3 8.5-.1s1.6-7 1.6-8c.1-.9.9-3.8.9-3.8s-3.4.8-6.9.1c-3.6-.7-6.1-1.9-6.1-1.9s-.6 2.9-1.8 2.8z" fill="#825012"/><path d="m49 211c-1.5-.3-3.1 1.3-2.5 4.2.6 2.8 2.6 6.8 3.5 9.1 1 2.5 7.5 2.8 10 1.9 1.4-.5 1.3-2.1 1.4-4s1.1-8.5 1.3-9.7c-.8.6-6 .9-8 0s-3.6-4.1-3.6-4.1-.6 2.8-2.1 2.6z" fill="#825012"/><path d="m57.3 42.8c-2.9.7-4 3.2-3.6 4.1s6.3-.2 6.7-2.4c.4-2.1-.9-2.3-3.1-1.7z" fill="#f90"/><path d="m58.4 44.2c-2.1.3-6.1 3.1-6.4 7.9s4.2 8.2 4.1 11.7-4.2 6-4.2 6 15.4-2.2 15-13.7-5.9-12.2-8.5-11.9z" fill="#762c07"/><path d="m27.3 229.3c-2.3 1.1-5.7.6-8.2-.4-2.5-.9-3.8-.5-8.2-2.1-3.8-1.4-4.3-3.4-3.6-5.8-1.6 2.3-.8 5.2 2.1 6.3 3.2 1.1 7.5 2 9.4 3 2 1 7.4 1.3 8.5-.1.2-.3.4-.7.6-1.2-.2.1-.4.2-.6.3z" opacity=".5"/><path d="m50.9 223.2c-.5-.7-2.5-5-3.4-7.3-.8-2.1-.1-3.8 1.1-5-1.3.1-2.5 1.7-2 4.2.6 2.8 2.6 6.8 3.5 9.1 1 2.5 7.5 2.8 10 1.9 1-.3 1.2-1.2 1.3-2.3-.8 2.1-8.5 2.1-10.5-.6z" opacity=".5"/><path d="m61.5 54.3c-8 3-13.6-2.9-19.6-10.9s-12-11.8-2.5-16.1 17.3-1.6 23.6 6.1c5.7 7.1 4.2 18.7-1.5 20.9z" fill="#825012"/><path d="m60.3 46.9c2.6-.7 4.5-10.3 3.6-14.9s-3.6-7.5-8.8-9.1-8.8 4.4-12.1 6c-4.1 2 6.6 21 17.3 18z" fill="#825012"/><path d="m60.3 46.9c2.6-.7 4.5-10.3 3.6-14.9s-3.6-7.5-8.8-9.1-8.8 4.4-12.1 6c-4.1 2 6.6 21 17.3 18z" opacity=".15"/></svg>