<svg viewBox="0 0 160 160" xmlns="http://www.w3.org/2000/svg"><path d="m62.1 135.1c-14.4-6-36.2-15.3-15.8-27.7 19-11.6 37.8 3.8 51.2 10.9 7.8 4.2 9.6 15.7 16.9 21.5 11.1 8.9 22.6 14.6 19.8 15.5-5.8 1.9-10.9-6.7-28.3-11.1-16.4-4.1-26.5-1.8-43.8-9.1z" opacity=".2"/><path d="m61 25.1c0-1.2-.7-3-3.4-2.9-2.6.2-2.6 4.3-2.6 4.3z" fill="#262626"/><path d="m65.7 30.6c-1.2-.5-3-5.7-5.1-6.2-2.1-.4-6.2.8-7.5 4s2 9.5 1.6 15.4-1.5 8.5-2.2 13.6-1 8.7-1 8.7-5 4.7-4 13.5c1 8.7 4.8 12.4 2.8 20.1-2.1 7.7-4.5 11.3-4.5 12s.3 2-1.1 2.1c-1.3.1-4.5-.3-5.3 2.7-.8 2.9 3.1 5.8 6.2 5.4 3-.4 7.8-12.4 9.7-15.6s3.2-9.4 4.7-8.9c1.5.4 4.4 9.2 4.4 9.2s-2.5-1-5.4 1.2c-2.9 2.1-3 8.1-2.7 10.6.4 2.5 1.1 5.4 1.1 5.4s-1.8-.5-3.2-1.9c-1.4-1.3-4.2-2-5.8.1s-1.5 4.5 2.4 5.9 9.3 4.5 11.5 3.8c2.2-.6 1.8-9.1 1.8-9.1s3.7 10.1 10.7 11.5c5.7 1.2 11.9.4 11.9.4s7.4.6 11.1 2 6.9 6 14.7 8.9c4.6 1.7 11.2 6.1 15.2 7.7s7.7 1.8 8.4 1c1.5-1.7-4.6-3-8.8-6-5.4-3.8-10-8.6-13.5-12.8-4.6-5.4-11.2-10.8-11.2-10.8s2.8-3.7-.2-11.7c-2.9-7.9-7.2-16.4-9.2-22.3s-9-15-10.1-18.1-4.6-7.4-5.9-11.5-1.2-11.3-1.2-11.3 2 2.1 3.6.8 1.2-5.4 0-8.7c-1.2-3.2-1.2-4.4-2.6-4.9-1.3-.5-1.8-.2-2.9-1.2-1.2-1-4.4-5.3-5.7-5.4-1.4-.1-2.7.4-2.7.4z" fill="#825012"/><path d="m54.5 39.8c.2 1.3.3 2.7.2 4-.3 5.4-1.3 8.1-2.1 12.5 2.6-.1 6.6-1.2 10-2.9 4.9-2.5 4.5-10.8 4.5-10.8l-5-6.1c-1.7.2-4.7 1.3-7.6 3.3z" opacity=".2"/><path d="m62.3 36.1c-2.7.2-7.2 5.3-8.3 6.9s-5.3 8-2.5 10.7 10-1.2 12.6-2 7-4.1 6.9-6.3c-.2-2.3-3.1-9.8-8.7-9.3z" fill="#825012"/><path d="m60.2 32.3c-.7.2-2.1 1.2-2.3 1.5-.4.6-.1 1.5-.1 1.5s-1-1.2-.2-1.9 2.6-1.1 2.6-1.1z" opacity=".2"/><path d="m76.9 56.3c-4.6 2.1-12 3.7-19.7 4.2-2.2.1-4.2.2-5.9.1-.2 1.7-.4 3.1-.5 4.1h1.8c1.7 0 3.4-.1 4.8-.2 6.2-.4 14.3-1.7 20.1-4.1-.3-1.1-.5-2.6-.6-4.1z" fill="#262626"/></svg>