<svg viewBox="0 0 320 320" xmlns="http://www.w3.org/2000/svg"><path d="m186.9 284c22.7-12.3 71.8-34.2 38-54.9-31.5-19.3-75.1 8.2-97.4 20-32.8 17.5-65.8 41.1-45.8 53.7 20.6 12.9 62.4 4.4 105.2-18.8z" opacity=".2"/><path d="m181.9 201.4c-4.6 12.9-7 15.9-6.6 21.2s.2 7.6-2 12.6-4.6 9.5-.7 11.9c4 2.5 13.3 0 15.3-3.3s1.7-6 .7-9.3-2.2-5.5 0-14.6 13.3-43.1 13.3-43.1-3.6-5.8-4.6-8.6 0-7.3 0-7.3l-15.3 12.6c-.1 0 4.6 15-.1 27.9z" fill="#762c07"/><path d="m181.9 201.4c-4.6 12.9-7 15.9-6.6 21.2s.2 7.6-2 12.6-4.6 9.5-.7 11.9c4 2.5 13.3 0 15.3-3.3s1.7-6 .7-9.3-2.2-5.5 0-14.6 13.3-43.1 13.3-43.1-3.6-5.8-4.6-8.6 0-7.3 0-7.3l-15.3 12.6c-.1 0 4.6 15-.1 27.9z" opacity=".15"/><path d="m225 95.3c-10.8-11.4-17.3-10.7-31.8-9.3-27.4 2.7-30.5 19.1-48.4 23.9s-32.3-7.8-50.4-20.6-32.9-13.6-40.5-10.6-14.7 15.3-15.9 17.2c-1.2 2 1.3 10.6-1.3 15.9-2.7 5.3-6.1 16.7-9.3 20.6s-4 13.9 3.3 18.6 11.3.8 15.3-5.3 9.5-13.6 13.9-14.6 8-4 8-4l8 22.5s-4.6 7-1.3 26.5c3.3 19.6 11.8 38.3 12.6 45.1s5.1 30.7 5.3 40.5.7 11.3-3.3 14.6-8.5 8.8-2 11.9 14.9.7 17.2-2.7c2.3-3.3 1.7-18.7.7-26.5s-4-20.4-3.3-26.5 2-28.5 2-28.5l8.6 3.3s2.2 21.9 4 33.8 5 23.9 3.3 34.5-9 21.1-6.6 24.5 14.6 2.8 16.6 0 .5-14.6 0-23.9 2.7-50.1 4-59.7 4-18.6 4-18.6 15.9-4.6 25.9-9.3c9.9-4.6 19.2-12.6 19.2-12.6l14.6-13.9s16.9 18.6 19.2 26.5c2.3 8-3.5 30.7-6.6 37.8-3.2 7.1-3.3 13.3-2.7 15.9.7 2.7.5 8.1-1.3 11.3s-2 7.8 4.6 9.9c6.6 2.2 11.3-2.3 12.6-6.6s-1.8-8.8-2.7-11.9c-.8-3.2 4-32.7 7.3-39.8s4.1-5.1 3.3-13.3c-.8-8.1-1.3-22.9 1.3-35.8s5.1-47.7-7.4-60.8z" fill="#762c07"/><path d="m214.4 88s4.1-9.9 17.9-9.9 22.5 7.8 32.5 29.2c9.9 21.4 22.5 27.9 22.5 27.9s-16.9 9.8-29.8-6.6-16.2-38.3-26.5-40.6-11.3 4.6-11.3 4.6z" fill="#2d3134"/><path d="m172.6 247.1c4 2.5 13.3 0 15.3-3.3 1.2-2.1 1.6-3.8 1.4-5.7-2.3 1.7-14.7 3.1-16.8-1.1-1.9 4.2-3.4 8 .1 10.1z" fill="#2d3134"/><path d="m55.2 80s-14.3-10.4-15.3-9.3 4.5 12.7 7.3 14.6c2.9 1.9 8-5.3 8-5.3z" fill="#762c07"/><path d="m55.2 80s-14.3-10.4-15.3-9.3 4.5 12.7 7.3 14.6c2.9 1.9 8-5.3 8-5.3z" opacity=".15"/><path d="m53.3 107.2 7.3-.7s.3 2.9-3.3 3.3c-3.7.5-4-2.6-4-2.6z" fill="#2d3134"/><path d="m32 145 1.3-6.6s3.2 1 2.7 4c-.5 2.9-4 2.6-4 2.6z" fill="#2d3134"/><path d="m36 139.7c-3.3-1.4-6.4-5-8.3-7.7-.1.1-.2.3-.3.4-3.2 3.8-4 13.9 3.3 18.6s11.3.8 15.3-5.3c.9-1.4 1.9-2.9 3-4.4-3.9.1-9.5-.1-13-1.6z" opacity=".15"/><path d="m44.3 85.7c-1.8 1.5-3.6 6.8 1.3 8s10.1-5 12.6-6.6 10.3-5.5 19.2-2c9 3.5 20.5 7.2 30.5 16.6 10.4 9.8 17.6 10.1 19.9 8.6s-7.5-2.2-15.9-10.6c-6.1-6.1-18.1-14.9-33.2-19.9-14.9-5-22.1-4.5-34.4 5.9z" fill="#2d3134"/><path d="m116.3 142.4-17.9 9.3-19.9-42.4s-1.1 4.6-3.3 8.6-7.3 9.3-7.3 9.3l8 22.5s-4.6 7-1.3 26.5c3.3 19.6 11.8 38.3 12.6 45.1s5.1 30.7 5.3 40.5.7 11.3-3.3 14.6-8.5 8.8-2 11.9 14.9.7 17.2-2.7c2.3-3.3 1.7-18.7.7-26.5s-4-20.4-3.3-26.5 2-28.5 2-28.5l8.6 3.3s2.2 21.9 4 33.8 5 23.9 3.3 34.5-9 21.1-6.6 24.5c.9 1.4 3.5 2.2 6.4 2.3l4.8-14.9v-84.9s-7.1-15.9-10.6-30.5 2.6-29.8 2.6-29.8z" opacity=".15"/><path d="m197.2 162.3s16.9 18.6 19.2 26.5c2.3 8-3.5 30.7-6.6 37.8-3.2 7.1-3.3 13.3-2.7 15.9.7 2.7.5 8.1-1.3 11.3s-2 7.8 4.6 9.9c.2.1.4.1.6.2 1.3-3.1 2.5-6.1 2.7-7.5.7-3.5 1.3-16.6 1.3-19.9s10.6-41.1 10.6-41.1l-19.9-39.1z" opacity=".15"/><g fill="#2d3134"><path d="m87.1 288.3c6.5 3.2 14.9.7 17.2-2.7.7-1 1.1-3.2 1.4-5.9-1.9 1-5.9 2.5-10.7 1.2-3.8-1-5-3.3-5.3-5.2-.2.2-.4.4-.6.6-4 3.3-8.5 8.8-2 12z"/><path d="m206.3 252.7c-.2.4-.3.7-.5 1.1-1.8 3.2-2 7.8 4.6 9.9 6.6 2.2 11.3-2.3 12.6-6.6.6-2 .3-4-.4-5.9-1.9 1.8-5 3.8-8.9 3.9-3.6.1-6-1.2-7.4-2.4z"/><path d="m129.5 300.2c.8-1.1 1-3.7 1-7-2.2.3-5 .6-8.3.4-3.4-.2-6-1.3-7.7-2.3-1.6 4.1-2.7 7.3-1.6 8.9 2.4 3.5 14.6 2.8 16.6 0z"/></g><path d="m59.2 87.3c-1-1-.9-7.6 1.3-8s9.3 7.3 9.3 7.3l-3.3 6z" fill="#762c07"/><path d="m59.2 87.3c-1-1-.9-7.6 1.3-8s6 13.3 6 13.3z" opacity=".1"/></svg>