<svg viewBox="0 0 64 32" xmlns="http://www.w3.org/2000/svg"><path d="m9.9 15-3.9-2-6 3 5.9 3 3.9-2c.9-.4.9-1.6.1-2z" fill="#9c3"/><path d="m33.8 5.1 4.1-2.1-5.9-3-5.9 3 4.2 2.1c1 .5 2.4.5 3.5 0z" fill="#9c3"/><path d="m58.1 13-32 16 5.9 3 32-16z" fill="#9c3"/><path d="m9.9 15-3.9-2-6 3 5.9 3 3.9-2c.9-.4.9-1.6.1-2z" fill="#9c3"/><path d="m33.8 5.1 4.1-2.1-5.9-3-5.9 3 4.2 2.1c1 .5 2.4.5 3.5 0z" fill="#9c3"/><path d="m58.1 13-32 16 5.9 3 32-16z" fill="#9c3"/><path d="m37.9 3-4.2 2.1c-1.1.6-2.4.6-3.6 0l-4-2.1-20.2 10 3.9 2c.8.4.8 1.6 0 2l-3.9 2 20.2 10 32-16z" fill="#baa794"/><path d="m37.9 3-4.2 2.1c-1.1.6-2.4.6-3.6 0l-4-2.1-20.2 10 3.9 2c.8.4.8 1.6 0 2l-3.9 2 20.2 10 32-16z" fill="#baa794"/><path d="m37.9 3-4.2 2.1c-1.1.6-2.4.6-3.6 0l-4-2.1-20.2 10 3.9 2c.8.4.8 1.6 0 2l-3.9 2 20.2 10 32-16z" opacity=".15"/><g fill="#baa794"><path d="m8 20 4-2 6 3-4 2z"/><path d="m36 6 4-2 6 3-4 2z"/><path d="m30 9 4-2 6 3-2 1 2 1-2 1z"/><path d="m40 14 4-2-2-1 2-1 8 4-6 3z"/><path d="m26 15 6-3 6 3-4 2 2 1-2 1z"/><path d="m24 20 2-1-2-1 2-1 6 3-4 2z"/><path d="m18 11 10-5 2 1-4 2 4 2-6 3z"/><path d="m16 24 6-3 8 4-6 3z"/><path d="m46 9 2-1 8 4-2 1z"/><path d="m40 16-2 1 2 1-10 5 2 1 12-6z"/><path d="m26 5-2-1-6 3 2 1z"/><path d="m18 9-2-1-8 4 2 1z"/></g><path d="m7.1 12.5-1.2.5 3.9 2c.8.4.8 1.6 0 2l-3.9 2 1.1.6 5.1-2.5c.8-.4.8-1.6 0-2z" fill="#262626" opacity=".15"/><path d="m37.9 3-4.2 2.1c-1.1.6-2.4.6-3.6 0l-4-2.1-1.1.6 5.3 2.6c1.1.6 2.4.6 3.6 0l5.3-2.6z" fill="#262626" opacity=".15"/><path d="m56.9 12.5-32 16 1.2.5 32-16z" fill="#262626" opacity=".15"/><path d="m24 16-8-4-4 2 4 2-2 1 6 3 2-1-2-1z" fill="#baa794"/></svg>