<svg viewBox="0 0 64 32" xmlns="http://www.w3.org/2000/svg"><path d="m32 0 32 16-5.9 3-32-16z" fill="#9c3"/><path d="m5.9 13 32 16-5.9 3-32-16z" fill="#9c3"/><path d="m58.1 19-20.2 10-32-16 20.2-10z" fill="#baa794"/><path d="m32 0 32 16-5.9 3-32-16z" fill="#9c3"/><path d="m5.9 13 32 16-5.9 3-32-16z" fill="#9c3"/><path d="m58.1 19-20.2 10-32-16 20.2-10z" fill="#baa794"/><path d="m58.1 19-20.2 10-32-16 20.2-10z" opacity=".15"/><path d="m26.1 3 32 16-1.2.5-32-16z" opacity=".15"/><path d="m7.1 12.5 32 16-1.2.5-32-16z" opacity=".15"/><g fill="#baa794"><path d="m28 6-4-2-6 3 4 2z"/><path d="m46 15-4 2 8 4-2 1 2 1 6-3z"/><path d="m34 9-4-2-6 3 2 1-2 1 2 1z"/><path d="m24 14-4-2 2-1-2-1-8 4 6 3z"/><path d="m42 19-4-2 6-3-2-1-12 6 6 3z"/><path d="m48 24-4-2 2-1-2-1-10 5 6 3z"/><path d="m18 9-2-1-8 4 2 1z"/><path d="m26 19 8 4-2 1-8-4z"/><path d="m28 18 4-2-4-2-8 4 2 1 4-2z"/><path d="m30 13 6-3 4 2-6 3z"/></g></svg>