<svg viewBox="0 0 128 72" xmlns="http://www.w3.org/2000/svg"><path d="m64 8 64 32-64 32-64-32z" fill="#825012"/><path d="m64 8 64 32-64 32-64-32z" fill="#825012"/><g fill="#9c3"><path d="m56.4 18.2s.2-1.3.6-2.2 1.1-1.8.7-2.5c-.3-.4-.8 0-1.1.6.2-.8.2-1.8-.5-1.8-1 0-.9 1.9-.7 2.7 0 .1 0 .1.1.2-.1 0-.2 0-.3 0-.6.2-.3 1.1.1 1.7s1.1 1.3 1.1 1.3z"/><path d="m60.4 16.2s.2-1.3.6-2.2 1.1-1.8.7-2.5c-.3-.4-.8 0-1.1.6.2-.8.2-1.8-.5-1.8-1 0-.9 1.9-.7 2.7 0 .1 0 .1.1.2-.1 0-.2 0-.3 0-.6.2-.3 1.1.1 1.7s1.1 1.3 1.1 1.3z"/><path d="m64.4 14.2s.2-1.3.6-2.2 1.1-1.8.7-2.5c-.3-.4-.8 0-1.1.6.2-.8.2-1.8-.5-1.8-1 0-.9 1.9-.7 2.7 0 .1 0 .1.1.2-.1 0-.2 0-.3 0-.6.2-.3 1.1.1 1.7s1.1 1.3 1.1 1.3z"/><path d="m68.4 12.2s.2-1.3.6-2.2 1.1-1.8.7-2.5c-.3-.4-.8 0-1.1.6.2-.8.2-1.8-.5-1.8-1 0-.9 1.9-.7 2.7 0 .1 0 .1.1.2-.1 0-.2 0-.3 0-.6.2-.3 1.1.1 1.7s1.1 1.3 1.1 1.3z"/><path d="m61.3 17.9c0 .1 0 .1.1.2-.1 0-.2 0-.3 0-.6.2-.3 1.1.1 1.7s1.2 1.4 1.2 1.4.2-1.3.6-2.2 1.1-1.8.7-2.5c-.3-.4-.8 0-1.1.6.2-.8.2-1.8-.5-1.8-1.1 0-1 1.8-.8 2.6z"/><path d="m65.3 15.9c0 .1 0 .1.1.2-.1 0-.2 0-.3 0-.6.2-.3 1.1.1 1.7s1.2 1.4 1.2 1.4.2-1.3.6-2.2 1.1-1.8.7-2.5c-.3-.4-.8 0-1.1.6.2-.8.2-1.8-.5-1.8-1.1 0-1 1.8-.8 2.6z"/><path d="m69.3 13.9c0 .1 0 .1.1.2-.1 0-.2 0-.3 0-.6.2-.3 1.1.1 1.7s1.2 1.4 1.2 1.4.2-1.3.6-2.2 1.1-1.8.7-2.5c-.3-.4-.8 0-1.1.6.2-.8.2-1.8-.5-1.8-1.1 0-1 1.8-.8 2.6z"/><path d="m74.4 15.2s.2-1.3.6-2.2 1.1-1.8.7-2.5c-.3-.4-.8 0-1.1.6.2-.8.2-1.8-.5-1.8-1 0-.9 1.9-.7 2.7 0 .1 0 .1.1.2-.1 0-.2 0-.3 0-.6.2-.3 1.1.1 1.7s1.1 1.3 1.1 1.3z"/><path d="m71.3 22.9c0 .1 0 .1.1.2-.1 0-.2 0-.3 0-.6.2-.3 1.1.1 1.7s1.2 1.4 1.2 1.4.2-1.3.6-2.2 1.1-1.8.7-2.5c-.3-.4-.8 0-1.1.6.2-.8.2-1.8-.5-1.8-1.1 0-1 1.8-.8 2.6z"/><path d="m75.3 20.9c0 .1 0 .1.1.2-.1 0-.2 0-.3 0-.6.2-.3 1.1.1 1.7s1.2 1.4 1.2 1.4.2-1.3.6-2.2 1.1-1.8.7-2.5c-.3-.4-.8 0-1.1.6.2-.8.2-1.8-.5-1.8-1.1 0-1 1.8-.8 2.6z"/><path d="m80.4 22.2s.2-1.3.6-2.2 1.1-1.8.7-2.5c-.3-.4-.8 0-1.1.6.2-.8.2-1.8-.5-1.8-1 0-.9 1.9-.7 2.7 0 .1 0 .1.1.2-.1 0-.2 0-.3 0-.6.2-.3 1.1.1 1.7s1.1 1.3 1.1 1.3z"/><path d="m84.4 20.2s.2-1.3.6-2.2 1.1-1.8.7-2.5c-.3-.4-.8 0-1.1.6.2-.8.2-1.8-.5-1.8-1 0-.9 1.9-.7 2.7 0 .1 0 .1.1.2-.1 0-.2 0-.3 0-.6.2-.3 1.1.1 1.7s1.1 1.3 1.1 1.3z"/><path d="m77.3 25.9c0 .1 0 .1.1.2-.1 0-.2 0-.3 0-.6.2-.3 1.1.1 1.7s1.2 1.4 1.2 1.4.2-1.3.6-2.2 1.1-1.8.7-2.5c-.3-.4-.8 0-1.1.6.2-.8.2-1.8-.5-1.8-1.1 0-1 1.8-.8 2.6z"/><path d="m81.3 23.9c0 .1 0 .1.1.2-.1 0-.2 0-.3 0-.6.2-.3 1.1.1 1.7s1.2 1.4 1.2 1.4.2-1.3.6-2.2 1.1-1.8.7-2.5c-.3-.4-.8 0-1.1.6.2-.8.2-1.8-.5-1.8-1.1 0-1 1.8-.8 2.6z"/><path d="m85.3 21.9c0 .1 0 .1.1.2-.1 0-.2 0-.3 0-.6.2-.3 1.1.1 1.7s1.2 1.4 1.2 1.4.2-1.3.6-2.2 1.1-1.8.7-2.5c-.3-.4-.8 0-1.1.6.2-.8.2-1.8-.5-1.8-1.1 0-1 1.8-.8 2.6z"/><path d="m90.4 23.2s.2-1.3.6-2.2 1.1-1.8.7-2.5c-.3-.4-.8 0-1.1.6.2-.8.2-1.8-.5-1.8-1 0-.9 1.9-.7 2.7 0 .1 0 .1.1.2-.1 0-.2 0-.3 0-.6.2-.3 1.1.1 1.7s1.1 1.3 1.1 1.3z"/><path d="m87.3 30.9c0 .1 0 .1.1.2-.1 0-.2 0-.3 0-.6.2-.3 1.1.1 1.7s1.2 1.4 1.2 1.4.2-1.3.6-2.2 1.1-1.8.7-2.5c-.3-.4-.8 0-1.1.6.2-.8.2-1.8-.5-1.8-1.1 0-1 1.8-.8 2.6z"/><path d="m91.3 28.9c0 .1 0 .1.1.2-.1 0-.2 0-.3 0-.6.2-.3 1.1.1 1.7s1.2 1.4 1.2 1.4.2-1.3.6-2.2 1.1-1.8.7-2.5c-.3-.4-.8 0-1.1.6.2-.8.2-1.8-.5-1.8-1.1 0-1 1.8-.8 2.6z"/><path d="m96.4 30.2s.2-1.3.6-2.2 1.1-1.8.7-2.5c-.3-.4-.8 0-1.1.6.2-.8.2-1.8-.5-1.8-1 0-.9 1.9-.7 2.7 0 .1 0 .1.1.2-.1 0-.2 0-.3 0-.6.2-.3 1.1.1 1.7s1.1 1.3 1.1 1.3z"/><path d="m100.4 28.2s.2-1.3.6-2.2 1.1-1.8.7-2.5c-.3-.4-.8 0-1.1.6.2-.8.2-1.8-.5-1.8-1 0-.9 1.9-.7 2.7 0 .1 0 .1.1.2-.1 0-.2 0-.3 0-.6.2-.3 1.1.1 1.7s1.1 1.3 1.1 1.3z"/><path d="m93.3 33.9c0 .1 0 .1.1.2-.1 0-.2 0-.3 0-.6.2-.3 1.1.1 1.7s1.2 1.4 1.2 1.4.2-1.3.6-2.2 1.1-1.8.7-2.5c-.3-.4-.8 0-1.1.6.2-.8.2-1.8-.5-1.8-1.1 0-1 1.8-.8 2.6z"/><path d="m97.3 31.9c0 .1 0 .1.1.2-.1 0-.2 0-.3 0-.6.2-.3 1.1.1 1.7s1.2 1.4 1.2 1.4.2-1.3.6-2.2 1.1-1.8.7-2.5c-.3-.4-.8 0-1.1.6.2-.8.2-1.8-.5-1.8-1.1 0-1 1.8-.8 2.6z"/><path d="m101.3 29.9c0 .1 0 .1.1.2-.1 0-.2 0-.3 0-.6.2-.3 1.1.1 1.7s1.2 1.4 1.2 1.4.2-1.3.6-2.2 1.1-1.8.7-2.5c-.3-.4-.8 0-1.1.6.2-.8.2-1.8-.5-1.8-1.1 0-1 1.8-.8 2.6z"/><path d="m106.4 31.2s.2-1.3.6-2.2 1.1-1.8.7-2.5c-.3-.4-.8 0-1.1.6.2-.8.2-1.8-.5-1.8-1 0-.9 1.9-.7 2.7 0 .1 0 .1.1.2-.1 0-.2 0-.3 0-.6.2-.3 1.1.1 1.7s1.1 1.3 1.1 1.3z"/><path d="m105.6 37.5c-.3-.4-.8 0-1.1.6.2-.8.2-1.8-.5-1.8-1 0-.9 1.9-.7 2.7 0 .1 0 .1.1.2-.1 0-.2 0-.3 0-.6.2-.3 1.1.1 1.7s1.2 1.4 1.2 1.4.2-1.3.6-2.2 1.1-2 .6-2.6z"/><path d="m109.6 35.5c-.3-.4-.8 0-1.1.6.2-.8.2-1.8-.5-1.8-1 0-.9 1.9-.7 2.7 0 .1 0 .1.1.2-.1 0-.2 0-.3 0-.6.2-.3 1.1.1 1.7s1.2 1.4 1.2 1.4.2-1.3.6-2.2 1.1-2 .6-2.6z"/><path d="m113.6 33.5c-.3-.4-.8 0-1.1.6.2-.8.2-1.8-.5-1.8-1 0-.9 1.9-.7 2.7 0 .1 0 .1.1.2-.1 0-.2 0-.3 0-.6.2-.3 1.1.1 1.7s1.2 1.4 1.2 1.4.2-1.3.6-2.2 1.1-2 .6-2.6z"/><path d="m117.6 31.5c-.3-.4-.8 0-1.1.6.2-.8.2-1.8-.5-1.8-1 0-.9 1.9-.7 2.7 0 .1 0 .1.1.2-.1 0-.2 0-.3 0-.6.2-.3 1.1.1 1.7s1.2 1.4 1.2 1.4.2-1.3.6-2.2 1.1-2 .6-2.6z"/><path d="m110.5 41.1c.2-.8.2-1.8-.5-1.8-1 0-.9 1.9-.7 2.7 0 .1 0 .1.1.2-.1 0-.2 0-.3 0-.6.2-.3 1.1.1 1.7s1.2 1.4 1.2 1.4.2-1.3.6-2.2 1.1-1.8.7-2.5c-.4-.6-.9-.1-1.2.5z"/><path d="m114.5 39.1c.2-.8.2-1.8-.5-1.8-1 0-.9 1.9-.7 2.7 0 .1 0 .1.1.2-.1 0-.2 0-.3 0-.6.2-.3 1.1.1 1.7s1.2 1.4 1.2 1.4.2-1.3.6-2.2 1.1-1.8.7-2.5c-.4-.6-.9-.1-1.2.5z"/><path d="m118.5 37.1c.2-.8.2-1.8-.5-1.8-1 0-.9 1.9-.7 2.7 0 .1 0 .1.1.2-.1 0-.2 0-.3 0-.6.2-.3 1.1.1 1.7s1.2 1.4 1.2 1.4.2-1.3.6-2.2 1.1-1.8.7-2.5c-.4-.6-.9-.1-1.2.5z"/><path d="m123.6 34.5c-.3-.4-.8 0-1.1.6.2-.8.2-1.8-.5-1.8-1 0-.9 1.9-.7 2.7 0 .1 0 .1.1.2-.1 0-.2 0-.3 0-.6.2-.3 1.1.1 1.7s1.2 1.4 1.2 1.4.2-1.3.6-2.2 1.1-2 .6-2.6z"/><path d="m40.4 26.2s.2-1.3.6-2.2 1.1-1.8.7-2.5c-.3-.4-.8 0-1.1.6.2-.8.2-1.8-.5-1.8-1 0-.9 1.9-.7 2.7 0 .1 0 .1.1.2-.1 0-.2 0-.3 0-.6.2-.3 1.1.1 1.7s1.1 1.3 1.1 1.3z"/><path d="m44.4 24.2s.2-1.3.6-2.2 1.1-1.8.7-2.5c-.3-.4-.8 0-1.1.6.2-.8.2-1.8-.5-1.8-1 0-.9 1.9-.7 2.7 0 .1 0 .1.1.2-.1 0-.2 0-.3 0-.6.2-.3 1.1.1 1.7s1.1 1.3 1.1 1.3z"/><path d="m48.4 22.2s.2-1.3.6-2.2 1.1-1.8.7-2.5c-.3-.4-.8 0-1.1.6.2-.8.2-1.8-.5-1.8-1 0-.9 1.9-.7 2.7 0 .1 0 .1.1.2-.1 0-.2 0-.3 0-.6.2-.3 1.1.1 1.7s1.1 1.3 1.1 1.3z"/><path d="m52.4 20.2s.2-1.3.6-2.2 1.1-1.8.7-2.5c-.3-.4-.8 0-1.1.6.2-.8.2-1.8-.5-1.8-1 0-.9 1.9-.7 2.7 0 .1 0 .1.1.2-.1 0-.2 0-.3 0-.6.2-.3 1.1.1 1.7s1.1 1.3 1.1 1.3z"/><path d="m45.3 25.9c0 .1 0 .1.1.2-.1 0-.2 0-.3 0-.6.2-.3 1.1.1 1.7s1.2 1.4 1.2 1.4.2-1.3.6-2.2 1.1-1.8.7-2.5c-.3-.4-.8 0-1.1.6.2-.8.2-1.8-.5-1.8-1.1 0-1 1.8-.8 2.6z"/><path d="m49.3 23.9c0 .1 0 .1.1.2-.1 0-.2 0-.3 0-.6.2-.3 1.1.1 1.7s1.2 1.4 1.2 1.4.2-1.3.6-2.2 1.1-1.8.7-2.5c-.3-.4-.8 0-1.1.6.2-.8.2-1.8-.5-1.8-1.1 0-1 1.8-.8 2.6z"/><path d="m53.3 21.9c0 .1 0 .1.1.2-.1 0-.2 0-.3 0-.6.2-.3 1.1.1 1.7s1.2 1.4 1.2 1.4.2-1.3.6-2.2 1.1-1.8.7-2.5c-.3-.4-.8 0-1.1.6.2-.8.2-1.8-.5-1.8-1.1 0-1 1.8-.8 2.6z"/><path d="m57.3 19.9c0 .1 0 .1.1.2-.1 0-.2 0-.3 0-.6.2-.3 1.1.1 1.7s1.2 1.4 1.2 1.4.2-1.3.6-2.2 1.1-1.8.7-2.5c-.3-.4-.8 0-1.1.6.2-.8.2-1.8-.5-1.8-1.1 0-1 1.8-.8 2.6z"/><path d="m55.1 31.2c-.6.2-.3 1.1.1 1.7s1.2 1.4 1.2 1.4.2-1.3.6-2.2 1.1-1.8.7-2.5c-.3-.4-.8 0-1.1.6.2-.8.2-1.8-.5-1.8-1 0-.9 1.9-.7 2.7 0 .1 0 .1.1.2-.2-.2-.3-.2-.4-.1z"/><path d="m59.1 29.2c-.6.2-.3 1.1.1 1.7s1.2 1.4 1.2 1.4.2-1.3.6-2.2 1.1-1.8.7-2.5c-.3-.4-.8 0-1.1.6.2-.8.2-1.8-.5-1.8-1 0-.9 1.9-.7 2.7 0 .1 0 .1.1.2-.2-.2-.3-.2-.4-.1z"/><path d="m63.1 27.2c-.6.2-.3 1.1.1 1.7s1.2 1.4 1.2 1.4.2-1.3.6-2.2 1.1-1.8.7-2.5c-.3-.4-.8 0-1.1.6.2-.8.2-1.8-.5-1.8-1 0-.9 1.9-.7 2.7 0 .1 0 .1.1.2-.2-.2-.3-.2-.4-.1z"/><path d="m67.1 25.2c-.6.2-.3 1.1.1 1.7s1.2 1.4 1.2 1.4.2-1.3.6-2.2 1.1-1.8.7-2.5c-.3-.4-.8 0-1.1.6.2-.8.2-1.8-.5-1.8-1 0-.9 1.9-.7 2.7 0 .1 0 .1.1.2-.2-.2-.3-.2-.4-.1z"/><path d="m62 31.3c-1 0-.9 1.9-.7 2.7 0 .1 0 .1.1.2-.1 0-.2 0-.3 0-.6.2-.3 1.1.1 1.7s1.2 1.4 1.2 1.4.2-1.3.6-2.2 1.1-1.8.7-2.5c-.3-.4-.8 0-1.1.6.1-.9.2-1.9-.6-1.9z"/><path d="m66 29.3c-1 0-.9 1.9-.7 2.7 0 .1 0 .1.1.2-.1 0-.2 0-.3 0-.6.2-.3 1.1.1 1.7s1.2 1.4 1.2 1.4.2-1.3.6-2.2 1.1-1.8.7-2.5c-.3-.4-.8 0-1.1.6.1-.9.2-1.9-.6-1.9z"/><path d="m70 27.3c-1 0-.9 1.9-.7 2.7 0 .1 0 .1.1.2-.1 0-.2 0-.3 0-.6.2-.3 1.1.1 1.7s1.2 1.4 1.2 1.4.2-1.3.6-2.2 1.1-1.8.7-2.5c-.3-.4-.8 0-1.1.6.1-.9.2-1.9-.6-1.9z"/><path d="m73.1 28.2c-.6.2-.3 1.1.1 1.7s1.2 1.4 1.2 1.4.2-1.3.6-2.2 1.1-1.8.7-2.5c-.3-.4-.8 0-1.1.6.2-.8.2-1.8-.5-1.8-1 0-.9 1.9-.7 2.7 0 .1 0 .1.1.2-.2-.2-.3-.2-.4-.1z"/><path d="m72.9 40c.4-.9 1.1-1.8.7-2.5-.3-.4-.8 0-1.1.6.2-.8.2-1.8-.5-1.8-1 0-.9 1.9-.7 2.7 0 .1 0 .1.1.2-.1 0-.2 0-.3 0-.6.2-.3 1.1.1 1.7s1.2 1.4 1.2 1.4.2-1.4.5-2.3z"/><path d="m76.9 38c.4-.9 1.1-1.8.7-2.5-.3-.4-.8 0-1.1.6.2-.8.2-1.8-.5-1.8-1 0-.9 1.9-.7 2.7 0 .1 0 .1.1.2-.1 0-.2 0-.3 0-.6.2-.3 1.1.1 1.7s1.2 1.4 1.2 1.4.2-1.4.5-2.3z"/><path d="m80.9 36c.4-.9 1.1-1.8.7-2.5-.3-.4-.8 0-1.1.6.2-.8.2-1.8-.5-1.8-1 0-.9 1.9-.7 2.7 0 .1 0 .1.1.2-.1 0-.2 0-.3 0-.6.2-.3 1.1.1 1.7s1.2 1.4 1.2 1.4.2-1.4.5-2.3z"/><path d="m84.9 34c.4-.9 1.1-1.8.7-2.5-.3-.4-.8 0-1.1.6.2-.8.2-1.8-.5-1.8-1 0-.9 1.9-.7 2.7 0 .1 0 .1.1.2-.1 0-.2 0-.3 0-.6.2-.3 1.1.1 1.7s1.2 1.4 1.2 1.4.2-1.4.5-2.3z"/><path d="m78.4 45.2s.2-1.3.6-2.2 1.1-1.8.7-2.5c-.3-.4-.8 0-1.1.6.2-.8.2-1.8-.5-1.8-1 0-.9 1.9-.7 2.7 0 .1 0 .1.1.2-.1 0-.2 0-.3 0-.6.2-.3 1.1.1 1.7s1.1 1.3 1.1 1.3z"/><path d="m82.4 43.2s.2-1.3.6-2.2 1.1-1.8.7-2.5c-.3-.4-.8 0-1.1.6.2-.8.2-1.8-.5-1.8-1 0-.9 1.9-.7 2.7 0 .1 0 .1.1.2-.1 0-.2 0-.3 0-.6.2-.3 1.1.1 1.7s1.1 1.3 1.1 1.3z"/><path d="m86.4 41.2s.2-1.3.6-2.2 1.1-1.8.7-2.5c-.3-.4-.8 0-1.1.6.2-.8.2-1.8-.5-1.8-1 0-.9 1.9-.7 2.7 0 .1 0 .1.1.2-.1 0-.2 0-.3 0-.6.2-.3 1.1.1 1.7s1.1 1.3 1.1 1.3z"/><path d="m89.1 36.2c-.6.2-.3 1.1.1 1.7s1.2 1.4 1.2 1.4.2-1.3.6-2.2 1.1-1.8.7-2.5c-.3-.4-.8 0-1.1.6.2-.8.2-1.8-.5-1.8-1 0-.9 1.9-.7 2.7 0 .1 0 .1.1.2-.2-.2-.3-.2-.4-.1z"/><path d="m89.6 45.5c-.3-.4-.8 0-1.1.6.2-.8.2-1.8-.5-1.8-1 0-.9 1.9-.7 2.7 0 .1 0 .1.1.2-.1 0-.2 0-.3 0-.6.2-.3 1.1.1 1.7s1.2 1.4 1.2 1.4.2-1.3.6-2.2 1.1-2 .6-2.6z"/><path d="m93.6 43.5c-.3-.4-.8 0-1.1.6.2-.8.2-1.8-.5-1.8-1 0-.9 1.9-.7 2.7 0 .1 0 .1.1.2-.1 0-.2 0-.3 0-.6.2-.3 1.1.1 1.7s1.2 1.4 1.2 1.4.2-1.3.6-2.2 1.1-2 .6-2.6z"/><path d="m97.6 41.5c-.3-.4-.8 0-1.1.6.2-.8.2-1.8-.5-1.8-1 0-.9 1.9-.7 2.7 0 .1 0 .1.1.2-.1 0-.2 0-.3 0-.6.2-.3 1.1.1 1.7s1.2 1.4 1.2 1.4.2-1.3.6-2.2 1.1-2 .6-2.6z"/><path d="m101.6 39.5c-.3-.4-.8 0-1.1.6.2-.8.2-1.8-.5-1.8-1 0-.9 1.9-.7 2.7 0 .1 0 .1.1.2-.1 0-.2 0-.3 0-.6.2-.3 1.1.1 1.7s1.2 1.4 1.2 1.4.2-1.3.6-2.2 1.1-2 .6-2.6z"/><path d="m94.5 49.1c.2-.8.2-1.8-.5-1.8-1 0-.9 1.9-.7 2.7 0 .1 0 .1.1.2-.1 0-.2 0-.3 0-.6.2-.3 1.1.1 1.7s1.2 1.4 1.2 1.4.2-1.3.6-2.2 1.1-1.8.7-2.5c-.4-.6-.9-.1-1.2.5z"/><path d="m98.5 47.1c.2-.8.2-1.8-.5-1.8-1 0-.9 1.9-.7 2.7 0 .1 0 .1.1.2-.1 0-.2 0-.3 0-.6.2-.3 1.1.1 1.7s1.2 1.4 1.2 1.4.2-1.3.6-2.2 1.1-1.8.7-2.5c-.4-.6-.9-.1-1.2.5z"/><path d="m102.5 45.1c.2-.8.2-1.8-.5-1.8-1 0-.9 1.9-.7 2.7 0 .1 0 .1.1.2-.1 0-.2 0-.3 0-.6.2-.3 1.1.1 1.7s1.2 1.4 1.2 1.4.2-1.3.6-2.2 1.1-1.8.7-2.5c-.4-.6-.9-.1-1.2.5z"/><path d="m106.5 43.1c.2-.8.2-1.8-.5-1.8-1 0-.9 1.9-.7 2.7 0 .1 0 .1.1.2-.1 0-.2 0-.3 0-.6.2-.3 1.1.1 1.7s1.2 1.4 1.2 1.4.2-1.3.6-2.2 1.1-1.8.7-2.5c-.4-.6-.9-.1-1.2.5z"/><path d="m24.4 34.2s.2-1.3.6-2.2 1.1-1.8.7-2.5c-.3-.4-.8 0-1.1.6.2-.8.2-1.8-.5-1.8-1 0-.9 1.9-.7 2.7 0 .1 0 .1.1.2-.1 0-.2 0-.3 0-.6.2-.3 1.1.1 1.7s1.1 1.3 1.1 1.3z"/><path d="m28.4 32.2s.2-1.3.6-2.2 1.1-1.8.7-2.5c-.3-.4-.8 0-1.1.6.2-.8.2-1.8-.5-1.8-1 0-.9 1.9-.7 2.7 0 .1 0 .1.1.2-.1 0-.2 0-.3 0-.6.2-.3 1.1.1 1.7s1.1 1.3 1.1 1.3z"/><path d="m32.4 30.2s.2-1.3.6-2.2 1.1-1.8.7-2.5c-.3-.4-.8 0-1.1.6.2-.8.2-1.8-.5-1.8-1 0-.9 1.9-.7 2.7 0 .1 0 .1.1.2-.1 0-.2 0-.3 0-.6.2-.3 1.1.1 1.7s1.1 1.3 1.1 1.3z"/><path d="m36.4 28.2s.2-1.3.6-2.2 1.1-1.8.7-2.5c-.3-.4-.8 0-1.1.6.2-.8.2-1.8-.5-1.8-1 0-.9 1.9-.7 2.7 0 .1 0 .1.1.2-.1 0-.2 0-.3 0-.6.2-.3 1.1.1 1.7s1.1 1.3 1.1 1.3z"/><path d="m29.3 33.9c0 .1 0 .1.1.2-.1 0-.2 0-.3 0-.6.2-.3 1.1.1 1.7s1.2 1.4 1.2 1.4.2-1.3.6-2.2 1.1-1.8.7-2.5c-.3-.4-.8 0-1.1.6.2-.8.2-1.8-.5-1.8-1.1 0-1 1.8-.8 2.6z"/><path d="m33.3 31.9c0 .1 0 .1.1.2-.1 0-.2 0-.3 0-.6.2-.3 1.1.1 1.7s1.2 1.4 1.2 1.4.2-1.3.6-2.2 1.1-1.8.7-2.5c-.3-.4-.8 0-1.1.6.2-.8.2-1.8-.5-1.8-1.1 0-1 1.8-.8 2.6z"/><path d="m37.3 29.9c0 .1 0 .1.1.2-.1 0-.2 0-.3 0-.6.2-.3 1.1.1 1.7s1.2 1.4 1.2 1.4.2-1.3.6-2.2 1.1-1.8.7-2.5c-.3-.4-.8 0-1.1.6.2-.8.2-1.8-.5-1.8-1.1 0-1 1.8-.8 2.6z"/><path d="m41.3 27.9c0 .1 0 .1.1.2-.1 0-.2 0-.3 0-.6.2-.3 1.1.1 1.7s1.2 1.4 1.2 1.4.2-1.3.6-2.2 1.1-1.8.7-2.5c-.3-.4-.8 0-1.1.6.2-.8.2-1.8-.5-1.8-1.1 0-1 1.8-.8 2.6z"/><path d="m39.1 39.2c-.6.2-.3 1.1.1 1.7s1.2 1.4 1.2 1.4.2-1.3.6-2.2 1.1-1.8.7-2.5c-.3-.4-.8 0-1.1.6.2-.8.2-1.8-.5-1.8-1 0-.9 1.9-.7 2.7 0 .1 0 .1.1.2-.2-.2-.3-.2-.4-.1z"/><path d="m43.1 37.2c-.6.2-.3 1.1.1 1.7s1.2 1.4 1.2 1.4.2-1.3.6-2.2 1.1-1.8.7-2.5c-.3-.4-.8 0-1.1.6.2-.8.2-1.8-.5-1.8-1 0-.9 1.9-.7 2.7 0 .1 0 .1.1.2-.2-.2-.3-.2-.4-.1z"/><path d="m48.9 36c.4-.9 1.1-1.8.7-2.5-.3-.4-.8 0-1.1.6.2-.8.2-1.8-.5-1.8-1 0-.9 1.9-.7 2.7 0 .1 0 .1.1.2-.1 0-.2 0-.3 0-.6.2-.3 1.1.1 1.7s1.2 1.4 1.2 1.4.2-1.4.5-2.3z"/><path d="m52.9 34c.4-.9 1.1-1.8.7-2.5-.3-.4-.8 0-1.1.6.2-.8.2-1.8-.5-1.8-1 0-.9 1.9-.7 2.7 0 .1 0 .1.1.2-.1 0-.2 0-.3 0-.6.2-.3 1.1.1 1.7s1.2 1.4 1.2 1.4.2-1.4.5-2.3z"/><path d="m46.4 45.2s.2-1.3.6-2.2 1.1-1.8.7-2.5c-.3-.4-.8 0-1.1.6.2-.8.2-1.8-.5-1.8-1 0-.9 1.9-.7 2.7 0 .1 0 .1.1.2-.1 0-.2 0-.3 0-.6.2-.3 1.1.1 1.7s1.1 1.3 1.1 1.3z"/><path d="m50.4 43.2s.2-1.3.6-2.2 1.1-1.8.7-2.5c-.3-.4-.8 0-1.1.6.2-.8.2-1.8-.5-1.8-1 0-.9 1.9-.7 2.7 0 .1 0 .1.1.2-.1 0-.2 0-.3 0-.6.2-.3 1.1.1 1.7s1.1 1.3 1.1 1.3z"/><path d="m54.4 41.2s.2-1.3.6-2.2 1.1-1.8.7-2.5c-.3-.4-.8 0-1.1.6.2-.8.2-1.8-.5-1.8-1 0-.9 1.9-.7 2.7 0 .1 0 .1.1.2-.1 0-.2 0-.3 0-.6.2-.3 1.1.1 1.7s1.1 1.3 1.1 1.3z"/><path d="m58.9 37c.4-.9 1.1-1.8.7-2.5-.3-.4-.8 0-1.1.6.2-.8.2-1.8-.5-1.8-1 0-.9 1.9-.7 2.7 0 .1 0 .1.1.2-.1 0-.2 0-.3 0-.6.2-.3 1.1.1 1.7s1.2 1.4 1.2 1.4.2-1.4.5-2.3z"/><path d="m56.4 50.2s.2-1.3.6-2.2 1.1-1.8.7-2.5c-.3-.4-.8 0-1.1.6.2-.8.2-1.8-.5-1.8-1 0-.9 1.9-.7 2.7 0 .1 0 .1.1.2-.1 0-.2 0-.3 0-.6.2-.3 1.1.1 1.7s1.1 1.3 1.1 1.3z"/><path d="m60.4 48.2s.2-1.3.6-2.2 1.1-1.8.7-2.5c-.3-.4-.8 0-1.1.6.2-.8.2-1.8-.5-1.8-1 0-.9 1.9-.7 2.7 0 .1 0 .1.1.2-.1 0-.2 0-.3 0-.6.2-.3 1.1.1 1.7s1.1 1.3 1.1 1.3z"/><path d="m64.9 44c.4-.9 1.1-1.8.7-2.5-.3-.4-.8 0-1.1.6.2-.8.2-1.8-.5-1.8-1 0-.9 1.9-.7 2.7 0 .1 0 .1.1.2-.1 0-.2 0-.3 0-.6.2-.3 1.1.1 1.7s1.2 1.4 1.2 1.4.2-1.4.5-2.3z"/><path d="m68.9 42c.4-.9 1.1-1.8.7-2.5-.3-.4-.8 0-1.1.6.2-.8.2-1.8-.5-1.8-1 0-.9 1.9-.7 2.7 0 .1 0 .1.1.2-.1 0-.2 0-.3 0-.6.2-.3 1.1.1 1.7s1.2 1.4 1.2 1.4.2-1.4.5-2.3z"/><path d="m62.4 53.2s.2-1.3.6-2.2 1.1-1.8.7-2.5c-.3-.4-.8 0-1.1.6.2-.8.2-1.8-.5-1.8-1 0-.9 1.9-.7 2.7 0 .1 0 .1.1.2-.1 0-.2 0-.3 0-.6.2-.3 1.1.1 1.7s1.1 1.3 1.1 1.3z"/><path d="m66.4 51.2s.2-1.3.6-2.2 1.1-1.8.7-2.5c-.3-.4-.8 0-1.1.6.2-.8.2-1.8-.5-1.8-1 0-.9 1.9-.7 2.7 0 .1 0 .1.1.2-.1 0-.2 0-.3 0-.6.2-.3 1.1.1 1.7s1.1 1.3 1.1 1.3z"/><path d="m70.4 49.2s.2-1.3.6-2.2 1.1-1.8.7-2.5c-.3-.4-.8 0-1.1.6.2-.8.2-1.8-.5-1.8-1 0-.9 1.9-.7 2.7 0 .1 0 .1.1.2-.1 0-.2 0-.3 0-.6.2-.3 1.1.1 1.7s1.1 1.3 1.1 1.3z"/><path d="m74.4 47.2s.2-1.3.6-2.2 1.1-1.8.7-2.5c-.3-.4-.8 0-1.1.6.2-.8.2-1.8-.5-1.8-1 0-.9 1.9-.7 2.7 0 .1 0 .1.1.2-.1 0-.2 0-.3 0-.6.2-.3 1.1.1 1.7s1.1 1.3 1.1 1.3z"/><path d="m73.6 53.5c-.3-.4-.8 0-1.1.6.2-.8.2-1.8-.5-1.8-1 0-.9 1.9-.7 2.7 0 .1 0 .1.1.2-.1 0-.2 0-.3 0-.6.2-.3 1.1.1 1.7s1.2 1.4 1.2 1.4.2-1.3.6-2.2 1.1-2 .6-2.6z"/><path d="m77.6 51.5c-.3-.4-.8 0-1.1.6.2-.8.2-1.8-.5-1.8-1 0-.9 1.9-.7 2.7 0 .1 0 .1.1.2-.1 0-.2 0-.3 0-.6.2-.3 1.1.1 1.7s1.2 1.4 1.2 1.4.2-1.3.6-2.2 1.1-2 .6-2.6z"/><path d="m81.6 49.5c-.3-.4-.8 0-1.1.6.2-.8.2-1.8-.5-1.8-1 0-.9 1.9-.7 2.7 0 .1 0 .1.1.2-.1 0-.2 0-.3 0-.6.2-.3 1.1.1 1.7s1.2 1.4 1.2 1.4.2-1.3.6-2.2 1.1-2 .6-2.6z"/><path d="m85.6 47.5c-.3-.4-.8 0-1.1.6.2-.8.2-1.8-.5-1.8-1 0-.9 1.9-.7 2.7 0 .1 0 .1.1.2-.1 0-.2 0-.3 0-.6.2-.3 1.1.1 1.7s1.2 1.4 1.2 1.4.2-1.3.6-2.2 1.1-2 .6-2.6z"/><path d="m78.5 57.1c.2-.8.2-1.8-.5-1.8-1 0-.9 1.9-.7 2.7 0 .1 0 .1.1.2-.1 0-.2 0-.3 0-.6.2-.3 1.1.1 1.7s1.2 1.4 1.2 1.4.2-1.3.6-2.2 1.1-1.8.7-2.5c-.4-.6-.9-.1-1.2.5z"/><path d="m82.5 55.1c.2-.8.2-1.8-.5-1.8-1 0-.9 1.9-.7 2.7 0 .1 0 .1.1.2-.1 0-.2 0-.3 0-.6.2-.3 1.1.1 1.7s1.2 1.4 1.2 1.4.2-1.3.6-2.2 1.1-1.8.7-2.5c-.4-.6-.9-.1-1.2.5z"/><path d="m86.5 53.1c.2-.8.2-1.8-.5-1.8-1 0-.9 1.9-.7 2.7 0 .1 0 .1.1.2-.1 0-.2 0-.3 0-.6.2-.3 1.1.1 1.7s1.2 1.4 1.2 1.4.2-1.3.6-2.2 1.1-1.8.7-2.5c-.4-.6-.9-.1-1.2.5z"/><path d="m90.5 51.1c.2-.8.2-1.8-.5-1.8-1 0-.9 1.9-.7 2.7 0 .1 0 .1.1.2-.1 0-.2 0-.3 0-.6.2-.3 1.1.1 1.7s1.2 1.4 1.2 1.4.2-1.3.6-2.2 1.1-1.8.7-2.5c-.4-.6-.9-.1-1.2.5z"/><path d="m8.5 38.1c.2-.8.2-1.8-.5-1.8-1 0-.9 1.9-.7 2.7 0 .1 0 .1.1.2-.1 0-.2 0-.3 0-.6.2-.3 1.1.1 1.7s1.2 1.4 1.2 1.4.2-1.3.6-2.2 1.1-1.8.7-2.5c-.4-.6-.9-.1-1.2.5z"/><path d="m13.6 35.5c-.3-.4-.8 0-1.1.6.2-.8.2-1.8-.5-1.8-1 0-.9 1.9-.7 2.7 0 .1 0 .1.1.2-.1 0-.2 0-.3 0-.6.2-.3 1.1.1 1.7s1.2 1.4 1.2 1.4.2-1.3.6-2.2 1.1-2 .6-2.6z"/><path d="m17.6 33.5c-.3-.4-.8 0-1.1.6.2-.8.2-1.8-.5-1.8-1 0-.9 1.9-.7 2.7 0 .1 0 .1.1.2-.1 0-.2 0-.3 0-.6.2-.3 1.1.1 1.7s1.2 1.4 1.2 1.4.2-1.3.6-2.2 1.1-2 .6-2.6z"/><path d="m21.6 31.5c-.3-.4-.8 0-1.1.6.2-.8.2-1.8-.5-1.8-1 0-.9 1.9-.7 2.7 0 .1 0 .1.1.2-.1 0-.2 0-.3 0-.6.2-.3 1.1.1 1.7s1.2 1.4 1.2 1.4.2-1.3.6-2.2 1.1-2 .6-2.6z"/><path d="m14.5 41.1c.2-.8.2-1.8-.5-1.8-1 0-.9 1.9-.7 2.7 0 .1 0 .1.1.2-.1 0-.2 0-.3 0-.6.2-.3 1.1.1 1.7s1.2 1.4 1.2 1.4.2-1.3.6-2.2 1.1-1.8.7-2.5c-.4-.6-.9-.1-1.2.5z"/><path d="m18.5 39.1c.2-.8.2-1.8-.5-1.8-1 0-.9 1.9-.7 2.7 0 .1 0 .1.1.2-.1 0-.2 0-.3 0-.6.2-.3 1.1.1 1.7s1.2 1.4 1.2 1.4.2-1.3.6-2.2 1.1-1.8.7-2.5c-.4-.6-.9-.1-1.2.5z"/><path d="m23.6 36.5c-.3-.4-.8 0-1.1.6.2-.8.2-1.8-.5-1.8-1 0-.9 1.9-.7 2.7 0 .1 0 .1.1.2-.1 0-.2 0-.3 0-.6.2-.3 1.1.1 1.7s1.2 1.4 1.2 1.4.2-1.3.6-2.2 1.1-2 .6-2.6z"/><path d="m27.6 34.5c-.3-.4-.8 0-1.1.6.2-.8.2-1.8-.5-1.8-1 0-.9 1.9-.7 2.7 0 .1 0 .1.1.2-.1 0-.2 0-.3 0-.6.2-.3 1.1.1 1.7s1.2 1.4 1.2 1.4.2-1.3.6-2.2 1.1-2 .6-2.6z"/><path d="m24.5 46.1c.2-.8.2-1.8-.5-1.8-1 0-.9 1.9-.7 2.7 0 .1 0 .1.1.2-.1 0-.2 0-.3 0-.6.2-.3 1.1.1 1.7s1.2 1.4 1.2 1.4.2-1.3.6-2.2 1.1-1.8.7-2.5c-.4-.6-.9-.1-1.2.5z"/><path d="m29.6 43.5c-.3-.4-.8 0-1.1.6.2-.8.2-1.8-.5-1.8-1 0-.9 1.9-.7 2.7 0 .1 0 .1.1.2-.1 0-.2 0-.3 0-.6.2-.3 1.1.1 1.7s1.2 1.4 1.2 1.4.2-1.3.6-2.2 1.1-2 .6-2.6z"/><path d="m33.6 41.5c-.3-.4-.8 0-1.1.6.2-.8.2-1.8-.5-1.8-1 0-.9 1.9-.7 2.7 0 .1 0 .1.1.2-.1 0-.2 0-.3 0-.6.2-.3 1.1.1 1.7s1.2 1.4 1.2 1.4.2-1.3.6-2.2 1.1-2 .6-2.6z"/><path d="m37.6 39.5c-.3-.4-.8 0-1.1.6.2-.8.2-1.8-.5-1.8-1 0-.9 1.9-.7 2.7 0 .1 0 .1.1.2-.1 0-.2 0-.3 0-.6.2-.3 1.1.1 1.7s1.2 1.4 1.2 1.4.2-1.3.6-2.2 1.1-2 .6-2.6z"/><path d="m30.5 49.1c.2-.8.2-1.8-.5-1.8-1 0-.9 1.9-.7 2.7 0 .1 0 .1.1.2-.1 0-.2 0-.3 0-.6.2-.3 1.1.1 1.7s1.2 1.4 1.2 1.4.2-1.3.6-2.2 1.1-1.8.7-2.5c-.4-.6-.9-.1-1.2.5z"/><path d="m34.5 47.1c.2-.8.2-1.8-.5-1.8-1 0-.9 1.9-.7 2.7 0 .1 0 .1.1.2-.1 0-.2 0-.3 0-.6.2-.3 1.1.1 1.7s1.2 1.4 1.2 1.4.2-1.3.6-2.2 1.1-1.8.7-2.5c-.4-.6-.9-.1-1.2.5z"/><path d="m39.6 44.5c-.3-.4-.8 0-1.1.6.2-.8.2-1.8-.5-1.8-1 0-.9 1.9-.7 2.7 0 .1 0 .1.1.2-.1 0-.2 0-.3 0-.6.2-.3 1.1.1 1.7s1.2 1.4 1.2 1.4.2-1.3.6-2.2 1.1-2 .6-2.6z"/><path d="m43.6 42.5c-.3-.4-.8 0-1.1.6.2-.8.2-1.8-.5-1.8-1 0-.9 1.9-.7 2.7 0 .1 0 .1.1.2-.1 0-.2 0-.3 0-.6.2-.3 1.1.1 1.7s1.2 1.4 1.2 1.4.2-1.3.6-2.2 1.1-2 .6-2.6z"/><path d="m40.5 54.1c.2-.8.2-1.8-.5-1.8-1 0-.9 1.9-.7 2.7 0 .1 0 .1.1.2-.1 0-.2 0-.3 0-.6.2-.3 1.1.1 1.7s1.2 1.4 1.2 1.4.2-1.3.6-2.2 1.1-1.8.7-2.5c-.4-.6-.9-.1-1.2.5z"/><path d="m45.6 51.5c-.3-.4-.8 0-1.1.6.2-.8.2-1.8-.5-1.8-1 0-.9 1.9-.7 2.7 0 .1 0 .1.1.2-.1 0-.2 0-.3 0-.6.2-.3 1.1.1 1.7s1.2 1.4 1.2 1.4.2-1.3.6-2.2 1.1-2 .6-2.6z"/><path d="m49.6 49.5c-.3-.4-.8 0-1.1.6.2-.8.2-1.8-.5-1.8-1 0-.9 1.9-.7 2.7 0 .1 0 .1.1.2-.1 0-.2 0-.3 0-.6.2-.3 1.1.1 1.7s1.2 1.4 1.2 1.4.2-1.3.6-2.2 1.1-2 .6-2.6z"/><path d="m53.6 47.5c-.3-.4-.8 0-1.1.6.2-.8.2-1.8-.5-1.8-1 0-.9 1.9-.7 2.7 0 .1 0 .1.1.2-.1 0-.2 0-.3 0-.6.2-.3 1.1.1 1.7s1.2 1.4 1.2 1.4.2-1.3.6-2.2 1.1-2 .6-2.6z"/><path d="m46.5 57.1c.2-.8.2-1.8-.5-1.8-1 0-.9 1.9-.7 2.7 0 .1 0 .1.1.2-.1 0-.2 0-.3 0-.6.2-.3 1.1.1 1.7s1.2 1.4 1.2 1.4.2-1.3.6-2.2 1.1-1.8.7-2.5c-.4-.6-.9-.1-1.2.5z"/><path d="m50.5 55.1c.2-.8.2-1.8-.5-1.8-1 0-.9 1.9-.7 2.7 0 .1 0 .1.1.2-.1 0-.2 0-.3 0-.6.2-.3 1.1.1 1.7s1.2 1.4 1.2 1.4.2-1.3.6-2.2 1.1-1.8.7-2.5c-.4-.6-.9-.1-1.2.5z"/><path d="m55.6 52.5c-.3-.4-.8 0-1.1.6.2-.8.2-1.8-.5-1.8-1 0-.9 1.9-.7 2.7 0 .1 0 .1.1.2-.1 0-.2 0-.3 0-.6.2-.3 1.1.1 1.7s1.2 1.4 1.2 1.4.2-1.3.6-2.2 1.1-2 .6-2.6z"/><path d="m59.6 50.5c-.3-.4-.8 0-1.1.6.2-.8.2-1.8-.5-1.8-1 0-.9 1.9-.7 2.7 0 .1 0 .1.1.2-.1 0-.2 0-.3 0-.6.2-.3 1.1.1 1.7s1.2 1.4 1.2 1.4.2-1.3.6-2.2 1.1-2 .6-2.6z"/><path d="m56.5 62.1c.2-.8.2-1.8-.5-1.8-1 0-.9 1.9-.7 2.7 0 .1 0 .1.1.2-.1 0-.2 0-.3 0-.6.2-.3 1.1.1 1.7s1.2 1.4 1.2 1.4.2-1.3.6-2.2 1.1-1.8.7-2.5c-.4-.6-.9-.1-1.2.5z"/><path d="m61.6 59.5c-.3-.4-.8 0-1.1.6.2-.8.2-1.8-.5-1.8-1 0-.9 1.9-.7 2.7 0 .1 0 .1.1.2-.1 0-.2 0-.3 0-.6.2-.3 1.1.1 1.7s1.2 1.4 1.2 1.4.2-1.3.6-2.2 1.1-2 .6-2.6z"/><path d="m65.6 57.5c-.3-.4-.8 0-1.1.6.2-.8.2-1.8-.5-1.8-1 0-.9 1.9-.7 2.7 0 .1 0 .1.1.2-.1 0-.2 0-.3 0-.6.2-.3 1.1.1 1.7s1.2 1.4 1.2 1.4.2-1.3.6-2.2 1.1-2 .6-2.6z"/><path d="m69.6 55.5c-.3-.4-.8 0-1.1.6.2-.8.2-1.8-.5-1.8-1 0-.9 1.9-.7 2.7 0 .1 0 .1.1.2-.1 0-.2 0-.3 0-.6.2-.3 1.1.1 1.7s1.2 1.4 1.2 1.4.2-1.3.6-2.2 1.1-2 .6-2.6z"/><path d="m62.5 65.1c.2-.8.2-1.8-.5-1.8-1 0-.9 1.9-.7 2.7 0 .1 0 .1.1.2-.1 0-.2 0-.3 0-.6.2-.3 1.1.1 1.7s1.2 1.4 1.2 1.4.2-1.3.6-2.2 1.1-1.8.7-2.5c-.4-.6-.9-.1-1.2.5z"/><path d="m66.5 63.1c.2-.8.2-1.8-.5-1.8-1 0-.9 1.9-.7 2.7 0 .1 0 .1.1.2-.1 0-.2 0-.3 0-.6.2-.3 1.1.1 1.7s1.2 1.4 1.2 1.4.2-1.3.6-2.2 1.1-1.8.7-2.5c-.4-.6-.9-.1-1.2.5z"/><path d="m70.5 61.1c.2-.8.2-1.8-.5-1.8-1 0-.9 1.9-.7 2.7 0 .1 0 .1.1.2-.1 0-.2 0-.3 0-.6.2-.3 1.1.1 1.7s1.2 1.4 1.2 1.4.2-1.3.6-2.2 1.1-1.8.7-2.5c-.4-.6-.9-.1-1.2.5z"/><path d="m74.5 59.1c.2-.8.2-1.8-.5-1.8-1 0-.9 1.9-.7 2.7 0 .1 0 .1.1.2-.1 0-.2 0-.3 0-.6.2-.3 1.1.1 1.7s1.2 1.4 1.2 1.4.2-1.3.6-2.2 1.1-1.8.7-2.5c-.4-.6-.9-.1-1.2.5z"/></g></svg>