<svg viewBox="0 0 32 32" xmlns="http://www.w3.org/2000/svg"><path d="m0 24 16 8v-8l-8-12-8 4z" fill="#762c07"/><path d="m15 31.5-14-7v-2l14 7z" opacity=".4"/><path d="m12 30-8-4v-5c0-1.7 1.3-2.3 3-1.5l2 1c1.7.8 3 2.8 3 4.5z" fill="#fff"/><path d="m11 28.5-6-3v-3c0-1.7 1.3-2.3 3-1.5 1.7.8 3 2.8 3 4.5z" fill="#825012"/><path d="m11 28.5-6-3v-3c0-1.7 1.3-2.3 3-1.5 1.7.8 3 2.8 3 4.5z" opacity=".5"/><g fill="#fff"><path d="m14 21 2 3v8l-2-1z"/><path d="m2 15-2 1v8l2 1z"/><path d="m8 12-8 4v2l8-4 8 12v-2z"/></g><path d="m0 24 16 8v-8l-8-12-8 4z" opacity=".11"/><path d="m32 24-16 8v-8l16-8z" fill="#762c07"/><path d="m31 24.5-14 7v-2l14-7z" opacity=".4"/><path d="m18 31-2 1v-8l2-1z" fill="#fff"/><path d="m32 24-2 1v-8l2-1z" fill="#fff"/><path d="m32 24-16 8v-8l16-8z" opacity=".29"/><path d="m24.1 4-8 4-16 8 8-4 8 12 16-8z" fill="#2d3134"/><path d="m8.1 12 8 12 16-8-8-12z" opacity=".39"/><path d="m8.1 12-8 4 16-8 8-4z" opacity=".06"/></svg>