<svg enable-background="new 0 0 96 80" viewBox="0 0 96 80" xmlns="http://www.w3.org/2000/svg"><path d="m64 52 16-24 16 8v20l-32 16z" fill="#f8ebcb"/><path d="m64 72 2-1v-22l-2 3z" fill="#fff"/><path d="m86 56-12 6v-13l12-6z" fill="#fff"/><path d="m85 55.5-10 5v-11l10-5z" fill="#825012"/><path d="m76 59 8-4v-9l-8 4z" fill="#39c"/><path d="m84 53v-7l-8 4z" opacity=".15"/><path d="m76 53 8-4v1l-8 4z" fill="#825012"/><path d="m84 47-8 4v-1l8-4z" opacity=".15"/><path d="m78 48 1-.5v10l-1 .5z" fill="#825012"/><path d="m81 46.5 1-.5v10l-1 .5z" fill="#825012"/><path d="m84 55v-10l1-.5v11l-10 5v-1z" opacity=".3"/><path d="m16 28 48 24v20l-48-24z" fill="#f8ebcb"/><path d="m16 48 2 1v-20l-2-1z" fill="#fff"/><path d="m62 71 2 1v-20l-2-1z" fill="#fff"/><path d="m62 71-44-22v-1l44 22z" opacity=".3"/><path d="m31 50.5-9-4.5v-13l9 4.5z" fill="#fff"/><path d="m30 49-7-3.5v-11l7 3.5z" fill="#825012"/><path d="m24 45 5 2.5v-9l-5-2.5z" fill="#39c"/><path d="m29 45.5v-7l-5-2.5z" opacity=".15"/><path d="m24 39 5 2.5v1l-5-2.5z" fill="#825012"/><path d="m29 39.5-5-2.5v-1l5 2.5z" opacity=".15"/><path d="m26 36 1 .5v10l-1-.5z" fill="#825012"/><path d="m24 45v-10l-1-.5v11l7 3.5v-1z" opacity=".3"/><path d="m58 64-9-4.5v-13l9 4.5z" fill="#fff"/><path d="m57 62.5-7-3.5v-11l7 3.5z" fill="#825012"/><path d="m51 58.5 5 2.5v-9l-5-2.5z" fill="#39c"/><path d="m56 59v-7l-5-2.5z" opacity=".15"/><path d="m51 52.5 5 2.5v1l-5-2.5z" fill="#825012"/><path d="m56 53-5-2.5v-1l5 2.5z" opacity=".15"/><path d="m53 49.5 1 .5v10l-1-.5z" fill="#825012"/><path d="m51 58.5v-10l-1-.5v11l7 3.5v-1z" opacity=".3"/><path d="m45 44.5-10-5v17l10 5z" fill="#fff"/><path d="m44 61-8-4v-16l8 4z" fill="#825012"/><path d="m37 56.5v-15l-1-.5v16l8 4v-1z" opacity=".3"/><path d="m40 47-2-1v-1l2 1z" opacity=".3"/><path d="m43 48.5-2-1v-1l2 1z" opacity=".3"/><path d="m40 51-2-1v-1l2 1z" opacity=".3"/><path d="m43 52.5-2-1v-1l2 1z" opacity=".3"/><path d="m40 55-2-1v-1l2 1z" opacity=".3"/><path d="m43 56.5-2-1v-1l2 1z" opacity=".3"/><path d="m16 28 48 24v20l-48-24z" opacity=".06"/><path d="m64 52-48-24 16-24 48 24z" fill="#762c07"/><path d="m64 52-48-24 16-24 48 24z" opacity=".06"/><path d="m30.9 5.6 48 24 1.1-1.6-48-24z" fill="#fff" opacity=".2"/><path d="m48 63-16-8-8 4v1l16 8 8-4z" fill="#656565"/><path d="m44 61-8-4-4 2 8 4z" fill="#2d3134"/><path d="m48 63v1l-8 4v-1z" opacity=".39"/><path d="m24 59v1l16 8v-1z" opacity=".06"/><path d="m30 59.5-1-.5v-20l1 .5z" fill="#fff"/><path d="m30 59.5-1-.5v-20l1 .5z" opacity=".06"/><path d="m30 39.5 1-.5v20l-1 .5z" fill="#fff"/><path d="m30 39.5 1-.5v20l-1 .5z" opacity=".39"/><path d="m39 64-1-.5v-21l1 .5z" fill="#fff"/><path d="m39 64-1-.5v-21l1 .5z" opacity=".06"/><path d="m39 43 1-.5v21l-1 .5z" fill="#fff"/><path d="m39 43 1-.5v21l-1 .5z" opacity=".39"/><path d="m23 39 18 9-9-16z" fill="#f8ebcb"/><path d="m27.7 39.7 3.9-3.3 3.8 7.1z" fill="#fff"/><path d="m32 33 8.3 14.6.7.4-9-16-9 7 .7.4z" fill="#762c07"/><path d="m32 32 9 16 7.6-4.3 1.4-20.7z" fill="#762c07"/><path d="m32 32 9 16 7.6-4.3 1.4-20.7z" opacity=".39"/><path d="m49.6 24.2.4-1.2-18 9 .4.8z" fill="#fff" opacity=".2"/><path d="m28.7 39.7 3.2-2.8-.3-.5-3.9 3.3 7.7 3.8-.3-.6z" opacity=".3"/><path d="m23 39 18 9-9-16z" opacity=".06"/><path d="m94 57 2-1v-20l-2-1z" fill="#fff"/><path d="m94 57-28 14v-1l28-14z" opacity=".3"/><path d="m64 52 16-24 16 8h-1l-15-7-15 23z" fill="#762c07"/><path d="m64 52 16-24 16 8v20l-32 16z" opacity=".39"/></svg>