<svg enable-background="new 0 0 80 96" height="96" viewBox="0 0 80 96" width="80" xmlns="http://www.w3.org/2000/svg"><path d="m80 72-48 24v-32l24-48 24 24z" fill="#baa794"/><g fill="#762c07" opacity=".4"><path d="m68 75 3-1.5v2l-3 1.5z"/><path d="m64 77 3-1.5v2l-3 1.5z"/><path d="m60 79 3-1.5v2l-3 1.5z"/><path d="m56 81 3-1.5v2l-3 1.5z"/><path d="m52 83 3-1.5v2l-3 1.5z"/><path d="m48 85 3-1.5v2l-3 1.5z"/><path d="m44 87 3-1.5v2l-3 1.5z"/><path d="m66 73 3-1.5v2l-3 1.5z"/><path d="m62 75 3-1.5v2l-3 1.5z"/><path d="m58 77 3-1.5v2l-3 1.5z"/><path d="m54 79 3-1.5v2l-3 1.5z"/><path d="m50 81 3-1.5v2l-3 1.5z"/><path d="m46 83 3-1.5v2l-3 1.5z"/><path d="m42 85 3-1.5v2l-3 1.5z"/><path d="m68 69 3-1.5v2l-3 1.5z"/><path d="m64 71 3-1.5v2l-3 1.5z"/><path d="m60 73 3-1.5v2l-3 1.5z"/><path d="m56 75 3-1.5v2l-3 1.5z"/><path d="m52 77 3-1.5v2l-3 1.5z"/><path d="m48 79 3-1.5v2l-3 1.5z"/><path d="m44 81 3-1.5v2l-3 1.5z"/><path d="m66 67 3-1.5v2l-3 1.5z"/><path d="m62 69 3-1.5v2l-3 1.5z"/><path d="m58 71 3-1.5v2l-3 1.5z"/><path d="m54 73 3-1.5v2l-3 1.5z"/><path d="m50 75 3-1.5v2l-3 1.5z"/><path d="m46 77 3-1.5v2l-3 1.5z"/><path d="m42 79 3-1.5v2l-3 1.5z"/><path d="m68 63 3-1.5v2l-3 1.5z"/><path d="m64 65 3-1.5v2l-3 1.5z"/><path d="m60 67 3-1.5v2l-3 1.5z"/><path d="m56 69 3-1.5v2l-3 1.5z"/><path d="m52 71 3-1.5v2l-3 1.5z"/><path d="m48 73 3-1.5v2l-3 1.5z"/><path d="m44 75 3-1.5v2l-3 1.5z"/><path d="m66 61 3-1.5v2l-3 1.5z"/><path d="m62 63 3-1.5v2l-3 1.5z"/><path d="m58 65 3-1.5v2l-3 1.5z"/><path d="m54 67 3-1.5v2l-3 1.5z"/><path d="m50 69 3-1.5v2l-3 1.5z"/><path d="m46 71 3-1.5v2l-3 1.5z"/><path d="m42 73 3-1.5v2l-3 1.5z"/><path d="m68 57 3-1.5v2l-3 1.5z"/><path d="m64 59 3-1.5v2l-3 1.5z"/><path d="m60 61 3-1.5v2l-3 1.5z"/><path d="m56 63 3-1.5v2l-3 1.5z"/><path d="m52 65 3-1.5v2l-3 1.5z"/><path d="m48 67 3-1.5v2l-3 1.5z"/><path d="m44 69 3-1.5v2l-3 1.5z"/><path d="m66 55 3-1.5v2l-3 1.5z"/><path d="m62 57 3-1.5v2l-3 1.5z"/><path d="m58 59 3-1.5v2l-3 1.5z"/><path d="m54 61 3-1.5v2l-3 1.5z"/><path d="m50 63 3-1.5v2l-3 1.5z"/><path d="m46 65 3-1.5v2l-3 1.5z"/><path d="m42 67 3-1.5v2l-3 1.5z"/><path d="m68 51 3-1.5v2l-3 1.5z"/><path d="m64 53 3-1.5v2l-3 1.5z"/><path d="m60 55 3-1.5v2l-3 1.5z"/><path d="m56 57 3-1.5v2l-3 1.5z"/><path d="m52 59 3-1.5v2l-3 1.5z"/><path d="m48 61 3-1.5v2l-3 1.5z"/><path d="m44 63 3-1.5v2l-3 1.5z"/><path d="m66 49 3-1.5v2l-3 1.5z"/><path d="m62 51 3-1.5v2l-3 1.5z"/><path d="m58 53 3-1.5v2l-3 1.5z"/><path d="m54 55 3-1.5v2l-3 1.5z"/><path d="m50 57 3-1.5v2l-3 1.5z"/><path d="m46 59 3-1.5v2l-3 1.5z"/><path d="m42 61 3-1.5v2l-3 1.5z"/><path d="m68 45 3-1.5v2l-3 1.5z"/><path d="m64 47 3-1.5v2l-3 1.5z"/><path d="m60 49 3-1.5v2l-3 1.5z"/><path d="m56 51 3-1.5v2l-3 1.5z"/><path d="m52 53 3-1.5v2l-3 1.5z"/><path d="m48 55 3-1.5v2l-3 1.5z"/><path d="m44 57 3-1.5v2l-3 1.5z"/><path d="m40 89 3-1.5v2l-3 1.5z"/><path d="m40 83 3-1.5v2l-3 1.5z"/><path d="m40 77 3-1.5v2l-3 1.5z"/><path d="m40 71 3-1.5v2l-3 1.5z"/><path d="m40 65 3-1.5v2l-3 1.5z"/><path d="m40 59 3-1.5v2l-3 1.5z"/><path d="m36 91 3-1.5v2l-3 1.5z"/><path d="m38 87 3-1.5v2l-3 1.5z"/><path d="m34 89 3-1.5v2l-3 1.5z"/><path d="m36 85 3-1.5v2l-3 1.5z"/><path d="m38 81 3-1.5v2l-3 1.5z"/><path d="m34 83 3-1.5v2l-3 1.5z"/><path d="m36 79 3-1.5v2l-3 1.5z"/><path d="m38 75 3-1.5v2l-3 1.5z"/><path d="m34 77 3-1.5v2l-3 1.5z"/><path d="m36 73 3-1.5v2l-3 1.5z"/><path d="m38 69 3-1.5v2l-3 1.5z"/><path d="m34 71 3-1.5v2l-3 1.5z"/><path d="m36 67 3-1.5v2l-3 1.5z"/><path d="m38 63 3-1.5v2l-3 1.5z"/><path d="m34 65 3-1.5v2l-3 1.5z"/><path d="m36 61 3-1.5v2l-3 1.5z"/><path d="m32 90 1-.5v2l-1 .5z"/><path d="m32 84 1-.5v2l-1 .5z"/><path d="m32 78 1-.5v2l-1 .5z"/><path d="m32 72 1-.5v2l-1 .5z"/><path d="m32 66 1-.5v2l-1 .5z"/><path d="m32 93 3-1.5v2l-3 1.5z"/><path d="m32 87 3-1.5v2l-3 1.5z"/><path d="m32 81 3-1.5v2l-3 1.5z"/><path d="m32 75 3-1.5v2l-3 1.5z"/><path d="m32 69 3-1.5v2l-3 1.5z"/><path d="m33 62.5 2-1v2l-3 1.5z"/><path d="m76 71 3-1.5v2l-3 1.5z"/><path d="m70 71 3-1.5v2l-3 1.5z"/><path d="m76 65 3-1.5v2l-3 1.5z"/><path d="m70 65 3-1.5v2l-3 1.5z"/><path d="m76 59 3-1.5v2l-3 1.5z"/><path d="m70 59 3-1.5v2l-3 1.5z"/><path d="m76 53 3-1.5v2l-3 1.5z"/><path d="m70 53 3-1.5v2l-3 1.5z"/><path d="m76 47 3-1.5v2l-3 1.5z"/><path d="m70 47 3-1.5v2l-3 1.5z"/><path d="m76 41 3-1.5v2l-3 1.5z"/><path d="m78 67 2-1v2l-2 1z"/><path d="m78 61 2-1v2l-2 1z"/><path d="m78 55 2-1v2l-2 1z"/><path d="m78 49 2-1v2l-2 1z"/><path d="m78 43 2-1v2l-2 1z"/><path d="m72 73 3-1.5v2l-3 1.5z"/><path d="m74 69 3-1.5v2l-3 1.5z"/><path d="m72 67 3-1.5v2l-3 1.5z"/><path d="m74 63 3-1.5v2l-3 1.5z"/><path d="m72 61 3-1.5v2l-3 1.5z"/><path d="m74 57 3-1.5v2l-3 1.5z"/><path d="m72 55 3-1.5v2l-3 1.5z"/><path d="m74 51 3-1.5v2l-3 1.5z"/><path d="m72 49 3-1.5v2l-3 1.5z"/><path d="m74 45 3-1.5v2l-3 1.5z"/><path d="m72 43 3-1.5v2l-3 1.5z"/><path d="m66 43 3-1.5v2l-3 1.5z"/><path d="m62 45 3-1.5v2l-3 1.5z"/><path d="m58 47 3-1.5v2l-3 1.5z"/><path d="m54 49 3-1.5v2l-3 1.5z"/><path d="m50 51 3-1.5v2l-3 1.5z"/><path d="m46 53 3-1.5v2l-3 1.5z"/><path d="m42 55 3-1.5v2l-3 1.5z"/><path d="m68 39 3-1.5v2l-3 1.5z"/><path d="m64 41 3-1.5v2l-3 1.5z"/><path d="m60 43 3-1.5v2l-3 1.5z"/><path d="m56 45 3-1.5v2l-3 1.5z"/><path d="m52 47 3-1.5v2l-3 1.5z"/><path d="m48 49 3-1.5v2l-3 1.5z"/><path d="m44 51 3-1.5v2l-3 1.5z"/><path d="m66 37 3-1.5v2l-3 1.5z"/><path d="m62 39 3-1.5v2l-3 1.5z"/><path d="m58 41 3-1.5v2l-3 1.5z"/><path d="m54 43 3-1.5v2l-3 1.5z"/><path d="m50 45 3-1.5v2l-3 1.5z"/><path d="m46 47 3-1.5v2l-3 1.5z"/><path d="m42 49 3-1.5v2l-3 1.5z"/><path d="m68 33 3-1.5v2l-3 1.5z"/><path d="m64 35 3-1.5v2l-3 1.5z"/><path d="m60 37 3-1.5v2l-3 1.5z"/><path d="m56 39 3-1.5v2l-3 1.5z"/><path d="m52 41 3-1.5v2l-3 1.5z"/><path d="m48 43 3-1.5v2l-3 1.5z"/><path d="m44 45 3-1.5v2l-3 1.5z"/><path d="m66 31 3-1.5v2l-3 1.5z"/><path d="m62 33 3-1.5v2l-3 1.5z"/><path d="m58 35 3-1.5v2l-3 1.5z"/><path d="m54 37 3-1.5v2l-3 1.5z"/><path d="m50 39 3-1.5v2l-3 1.5z"/><path d="m46 41 3-1.5v2l-3 1.5z"/><path d="m43 42.5 2-1v2l-3 1.5z"/><path d="m64 29 3-1.5v2l-3 1.5z"/><path d="m60 31 3-1.5v2l-3 1.5z"/><path d="m56 33 3-1.5v2l-3 1.5z"/><path d="m52 35 3-1.5v2l-3 1.5z"/><path d="m48 37 3-1.5v2l-3 1.5z"/><path d="m45 38.5 2-1v2l-3 1.5z"/><path d="m62 27 3-1.5v2l-3 1.5z"/><path d="m58 29 3-1.5v2l-3 1.5z"/><path d="m54 31 3-1.5v2l-3 1.5z"/><path d="m50 33 3-1.5v2l-3 1.5z"/><path d="m47 34.5 2-1v2l-3 1.5z"/><path d="m60 25 3-1.5v2l-3 1.5z"/><path d="m56 27 3-1.5v2l-3 1.5z"/><path d="m52 29 3-1.5v2l-3 1.5z"/><path d="m49 30.5 2-1v2l-3 1.5z"/><path d="m58 23 3-1.5v2l-3 1.5z"/><path d="m54 25 3-1.5v2l-3 1.5z"/><path d="m51 26.5 2-1v2l-3 1.5z"/><path d="m56 21 3-1.5v2l-3 1.5z"/><path d="m53 22.5 2-1v2l-3 1.5z"/><path d="m40 53 3-1.5v2l-3 1.5z"/><path d="m41 46.5 2-1v2l-3 1.5z"/><path d="m38 57 3-1.5v2l-3 1.5z"/><path d="m35 58.5 2-1v2l-3 1.5z"/><path d="m37 54.5 2-1v2l-3 1.5z"/><path d="m39 50.5 2-1v2l-3 1.5z"/><path d="m70 41 3-1.5v2l-3 1.5z"/><path d="m70 35 3-1.5v2l-3 1.5z"/><path d="m74 39 3-1.5v2l-3 1.5z"/><path d="m72 37 3-1.5v2l-3 1.5z"/></g><path d="m32 64 24-48 24 24v2l-24-24-24 48z" fill="#e5e5e5"/><path d="m40.9 68.6.2-.1c1.6-.8 2.9-.2 2.9 1.4v14.1l-6 3v-14.1c0-1.6 1.3-3.5 2.9-4.3z" fill="#e5e5e5"/><path d="m43 72.5v-2c0-1.1-.9-1.6-2-1s-2 1.9-2 3v2z" fill="#656565"/><path d="m41 69.5c-1.1.6-2 1.9-2 3v1c0-1.1.9-2.4 2-3s2-.1 2 1v-1c0-1.1-.9-1.5-2-1z" opacity=".5"/><path d="m39 75.5v10l4-2v-10z" fill="#656565"/><path d="m43 74.5-4 2v-1l4-2z" opacity=".5"/><path d="m43 73.5-4 2v-1l4-2z" fill="#e5e5e5"/><path d="m70.9 53.6.2-.1c1.6-.8 2.9-.2 2.9 1.4v14.1l-6 3v-14.1c0-1.6 1.3-3.5 2.9-4.3z" fill="#e5e5e5"/><path d="m73 57.5v-2c0-1.1-.9-1.6-2-1s-2 1.9-2 3v2z" fill="#656565"/><path d="m71 54.5c-1.1.6-2 1.9-2 3v1c0-1.1.9-2.4 2-3s2-.1 2 1v-1c0-1.1-.9-1.5-2-1z" opacity=".5"/><path d="m69 60.5v10l4-2v-10z" fill="#656565"/><path d="m73 59.5-4 2v-1l4-2z" opacity=".5"/><path d="m73 58.5-4 2v-1l4-2z" fill="#e5e5e5"/><path d="m55.9 60.5c-3 1.5-4.9 4.5-4.9 7.9v18.1l10-5v-17.8c0-2.6-2.8-4.3-5.1-3.2z" fill="#e5e5e5"/><path d="m56 61.5c-2.5 1.2-4 3.8-4 6.5v18l8-4v-18.1c0-2-2.1-3.4-4-2.4z" fill="#999"/><path d="m59 64v17l-6 3v-16.4c0-2.2 1.3-4.3 3.3-5.3 1.2-.6 2.7.3 2.7 1.7z" fill="#656565"/><path d="m56.3 62.3c-2 1-3.3 3-3.3 5.3v1c0-2.2 1.3-4.3 3.3-5.3 1.3-.6 2.7.3 2.7 1.7v-1c0-1.4-1.5-2.3-2.7-1.7z" opacity=".5"/><path d="m59 67.8-2 1v-3l-2 1v3l-2 1v2l2-1v9l2-1v-9l2-1z" opacity=".5"/><path d="m61 43.1c0 2.8-2.2 6.1-5 7.5s-5 .3-5-2.5 2.2-6.1 5-7.5 5-.3 5 2.5z" fill="#e5e5e5"/><path d="m60 43.6c0 2.2-1.8 4.9-4 6s-4 .2-4-2 1.8-4.9 4-6 4-.2 4 2z" fill="#656565"/><path d="m56 42.6c2-1 3.7-.3 3.9 1.5 0-.2.1-.4.1-.5 0-2.2-1.8-3.1-4-2s-4 3.8-4 6c0 .2 0 .3.1.5.2-2.1 1.9-4.5 3.9-5.5z" opacity=".5"/><path d="m60.5 43.2-4.2 2.1 3-4.4-.2-.1-3 4.4v-4.2l-.2.2v4.1l-3-1.4-.2.3 3 1.4-4.2 2.1v.3l4.2-2.1-3 4.4.2.1 3-4.4v4.2l.2-.2v-4.1l3 1.4.2-.3-3-1.4 4.2-2.1z" fill="#e5e5e5"/><path d="m80 72-48 24v-32l24-48 24 24z" opacity=".29"/><path d="m0 80 32 16v-32l-32-16z" fill="#baa794"/><g fill="#762c07" opacity=".4"><path d="m4 81-3-1.5v-2l3 1.5z"/><path d="m8 83-3-1.5v-2l3 1.5z"/><path d="m12 85-3-1.5v-2l3 1.5z"/><path d="m16 87-3-1.5v-2l3 1.5z"/><path d="m20 89-3-1.5v-2l3 1.5z"/><path d="m24 91-3-1.5v-2l3 1.5z"/><path d="m28 93-3-1.5v-2l3 1.5z"/><path d="m32 95-3-1.5v-2l3 1.5z"/><path d="m0 74 2 1v2l-2-1z"/><path d="m3 75.5 3 1.5v2l-3-1.5z"/><path d="m7 77.5 3 1.5v2l-3-1.5z"/><path d="m11 79.5 3 1.5v2l-3-1.5z"/><path d="m15 81.5 3 1.5v2l-3-1.5z"/><path d="m19 83.5 3 1.5v2l-3-1.5z"/><path d="m23 85.5 3 1.5v2l-3-1.5z"/><path d="m30 91-3-1.5v-2l3 1.5z"/><path d="m31 89.5 1 .5v2l-1-.5z"/><path d="m1 71.5 3 1.5v2l-3-1.5z"/><path d="m5 73.5 3 1.5v2l-3-1.5z"/><path d="m9 75.5 3 1.5v2l-3-1.5z"/><path d="m13 77.5 3 1.5v2l-3-1.5z"/><path d="m17 79.5 3 1.5v2l-3-1.5z"/><path d="m21 81.5 3 1.5v2l-3-1.5z"/><path d="m25 83.5 3 1.5v2l-3-1.5z"/><path d="m29 85.5 3 1.5v2l-3-1.5z"/><path d="m0 68 2 1v2l-2-1z"/><path d="m3 69.5 3 1.5v2l-3-1.5z"/><path d="m7 71.5 3 1.5v2l-3-1.5z"/><path d="m11 73.5 3 1.5v2l-3-1.5z"/><path d="m15 75.5 3 1.5v2l-3-1.5z"/><path d="m19 77.5 3 1.5v2l-3-1.5z"/><path d="m26 83-3-1.5v-2l3 1.5z"/><path d="m30 85-3-1.5v-2l3 1.5z"/><path d="m31 83.5 1 .5v2l-1-.5z"/><path d="m1 65.5 3 1.5v2l-3-1.5z"/><path d="m5 67.5 3 1.5v2l-3-1.5z"/><path d="m9 69.5 3 1.5v2l-3-1.5z"/><path d="m13 71.5 3 1.5v2l-3-1.5z"/><path d="m17 73.5 3 1.5v2l-3-1.5z"/><path d="m21 75.5 3 1.5v2l-3-1.5z"/><path d="m25 77.5 3 1.5v2l-3-1.5z"/><path d="m29 79.5 3 1.5v2l-3-1.5z"/><path d="m0 62 2 1v2l-2-1z"/><path d="m3 63.5 3 1.5v2l-3-1.5z"/><path d="m7 65.5 3 1.5v2l-3-1.5z"/><path d="m11 67.5 3 1.5v2l-3-1.5z"/><path d="m15 69.5 3 1.5v2l-3-1.5z"/><path d="m22 75-3-1.5v-2l3 1.5z"/><path d="m26 77-3-1.5v-2l3 1.5z"/><path d="m30 79-3-1.5v-2l3 1.5z"/><path d="m31 77.5 1 .5v2l-1-.5z"/><path d="m1 59.5 3 1.5v2l-3-1.5z"/><path d="m5 61.5 3 1.5v2l-3-1.5z"/><path d="m9 63.5 3 1.5v2l-3-1.5z"/><path d="m13 65.5 3 1.5v2l-3-1.5z"/><path d="m17 67.5 3 1.5v2l-3-1.5z"/><path d="m21 69.5 3 1.5v2l-3-1.5z"/><path d="m25 71.5 3 1.5v2l-3-1.5z"/><path d="m29 73.5 3 1.5v2l-3-1.5z"/><path d="m0 56 2 1v2l-2-1z"/><path d="m3 57.5 3 1.5v2l-3-1.5z"/><path d="m7 59.5 3 1.5v2l-3-1.5z"/><path d="m11 61.5 3 1.5v2l-3-1.5z"/><path d="m18 67-3-1.5v-2l3 1.5z"/><path d="m22 69-3-1.5v-2l3 1.5z"/><path d="m26 71-3-1.5v-2l3 1.5z"/><path d="m30 73-3-1.5v-2l3 1.5z"/><path d="m31 71.5 1 .5v2l-1-.5z"/><path d="m1 53.5 3 1.5v2l-3-1.5z"/><path d="m5 55.5 3 1.5v2l-3-1.5z"/><path d="m9 57.5 3 1.5v2l-3-1.5z"/><path d="m13 59.5 3 1.5v2l-3-1.5z"/><path d="m17 61.5 3 1.5v2l-3-1.5z"/><path d="m21 63.5 3 1.5v2l-3-1.5z"/><path d="m25 65.5 3 1.5v2l-3-1.5z"/><path d="m29 67.5 3 1.5v2l-3-1.5z"/><path d="m2 53-2-1v-2l2 1z"/><path d="m6 55-3-1.5v-2l3 1.5z"/><path d="m10 57-3-1.5v-2l3 1.5z"/><path d="m14 59-3-1.5v-2l3 1.5z"/><path d="m18 61-3-1.5v-2l3 1.5z"/><path d="m22 63-3-1.5v-2l3 1.5z"/><path d="m26 65-3-1.5v-2l3 1.5z"/><path d="m30 67-3-1.5v-2l3 1.5z"/><path d="m31 65.5 1 .5v2l-1-.5z"/></g><path d="m23.1 68.6-.2-.1c-1.6-.8-2.9-.2-2.9 1.4v14.1l6 3v-14.1c0-1.6-1.3-3.5-2.9-4.3z" fill="#e5e5e5"/><path d="m21 72.5v-2c0-1.1.9-1.6 2-1s2 1.9 2 3v2z" fill="#656565"/><path d="m23 69.5c1.1.6 2 1.9 2 3v1c0-1.1-.9-2.4-2-3s-2-.1-2 1v-1c0-1.1.9-1.5 2-1z" opacity=".5"/><path d="m25 75.5v10l-4-2v-10z" fill="#656565"/><path d="m21 74.5 4 2v-1l-4-2z" opacity=".5"/><path d="m21 73.5 4 2v-1l-4-2z" fill="#e5e5e5"/><path d="m15.1 64.6-.2-.1c-1.6-.8-2.9-.2-2.9 1.4v14.1l6 3v-14.1c0-1.6-1.3-3.5-2.9-4.3z" fill="#e5e5e5"/><path d="m13 68.5v-2c0-1.1.9-1.6 2-1s2 1.9 2 3v2z" fill="#656565"/><path d="m15 65.5c1.1.6 2 1.9 2 3v1c0-1.1-.9-2.4-2-3s-2-.1-2 1v-1c0-1.1.9-1.5 2-1z" opacity=".5"/><path d="m17 71.5v10l-4-2v-10z" fill="#656565"/><path d="m13 70.5 4 2v-1l-4-2z" opacity=".5"/><path d="m13 69.5 4 2v-1l-4-2z" fill="#e5e5e5"/><path d="m7.1 60.6-.2-.1c-1.6-.8-2.9-.2-2.9 1.4v14.1l6 3v-14.1c0-1.6-1.3-3.5-2.9-4.3z" fill="#e5e5e5"/><path d="m5 64.5v-2c0-1.1.9-1.6 2-1s2 1.9 2 3v2z" fill="#656565"/><path d="m7 61.5c1.1.6 2 1.9 2 3v1c0-1.1-.9-2.4-2-3s-2-.1-2 1v-1c0-1.1.9-1.5 2-1z" opacity=".5"/><path d="m9 67.5v10l-4-2v-10z" fill="#656565"/><path d="m5 66.5 4 2v-1l-4-2z" opacity=".5"/><path d="m5 65.5 4 2v-1l-4-2z" fill="#e5e5e5"/><path d="m32 64-32-16v2l32 16z" fill="#e5e5e5"/><path d="m0 80 32 16v-32l-32-16z" opacity=".11"/><g transform="matrix(-.8944 -.4472 .4472 -.8944 38.7313 73.1587)"><path d="m10.1 5.2h35.8v53.7h-35.8z" fill="#2d3134"/><path d="m10.1 5.2h35.8v53.7h-35.8z" fill="#2d3134"/><path d="m10.1 5.2h35.8v53.7h-35.8z" opacity=".11"/></g><path d="m23.4 1.3.6-1.3 32 16-.6 1.3z" fill="#fff" opacity=".2"/></svg>