<svg viewBox="0 0 64 32" xmlns="http://www.w3.org/2000/svg"><path d="m32 0 32 16-32 16-32-16z" fill="#baa794"/><path d="m32 0 32 16-32 16-32-16z" opacity=".15"/><g fill="#baa794"><path d="m24 28 6-3-4-2-6 3z"/><path d="m34 31 4-2-6-3-4 2z"/><path d="m55 18 6-3-4-2-6 3z"/><path d="m32 6 4-2-6-3-4 2z"/><path d="m24 10 6-3-6-3-6 3z"/><path d="m18 25 6-3-6-3-2 1-4-2-4 2z"/><path d="m54 13-8-4-4 2 8 4z"/><path d="m46 7-6-3-4 2 6 3z"/><path d="m40 28-4-2 8-4 4 2z"/><path d="m48 22 6-3-8-4-10 5 4 2 4-2z"/><path d="m34 25 4-2-6-3 6-3-4-2-10 5z"/><path d="m10 13 8-4 4 2-4 2 4 2-6 3-4-2 2-1z"/><path d="m22 19-2-1 6-3-4-2 4-2 6 3z"/><path d="m32 12 8 4 4-2-6-3 2-1-2-1z"/><path d="m30 11 6-3-2-1-6 3z"/><path d="m6 19 4-2-2-1 2-1-4-2-6 3z"/></g></svg>