<svg enable-background="new 0 0 112 152" height="152" viewBox="0 0 112 152" width="112" xmlns="http://www.w3.org/2000/svg"><path d="m112 128-48 24v-32l24-48 24 24z" fill="#baa794"/><g fill="#762c07" opacity=".4"><path d="m100 131 3-1.5v2l-3 1.5z"/><path d="m96 133 3-1.5v2l-3 1.5z"/><path d="m92 135 3-1.5v2l-3 1.5z"/><path d="m88 137 3-1.5v2l-3 1.5z"/><path d="m84 139 3-1.5v2l-3 1.5z"/><path d="m80 141 3-1.5v2l-3 1.5z"/><path d="m76 143 3-1.5v2l-3 1.5z"/><path d="m98 129 3-1.5v2l-3 1.5z"/><path d="m94 131 3-1.5v2l-3 1.5z"/><path d="m90 133 3-1.5v2l-3 1.5z"/><path d="m86 135 3-1.5v2l-3 1.5z"/><path d="m82 137 3-1.5v2l-3 1.5z"/><path d="m78 139 3-1.5v2l-3 1.5z"/><path d="m74 141 3-1.5v2l-3 1.5z"/><path d="m100 125 3-1.5v2l-3 1.5z"/><path d="m96 127 3-1.5v2l-3 1.5z"/><path d="m92 129 3-1.5v2l-3 1.5z"/><path d="m88 131 3-1.5v2l-3 1.5z"/><path d="m84 133 3-1.5v2l-3 1.5z"/><path d="m80 135 3-1.5v2l-3 1.5z"/><path d="m76 137 3-1.5v2l-3 1.5z"/><path d="m98 123 3-1.5v2l-3 1.5z"/><path d="m94 125 3-1.5v2l-3 1.5z"/><path d="m90 127 3-1.5v2l-3 1.5z"/><path d="m86 129 3-1.5v2l-3 1.5z"/><path d="m82 131 3-1.5v2l-3 1.5z"/><path d="m78 133 3-1.5v2l-3 1.5z"/><path d="m74 135 3-1.5v2l-3 1.5z"/><path d="m100 119 3-1.5v2l-3 1.5z"/><path d="m96 121 3-1.5v2l-3 1.5z"/><path d="m92 123 3-1.5v2l-3 1.5z"/><path d="m88 125 3-1.5v2l-3 1.5z"/><path d="m84 127 3-1.5v2l-3 1.5z"/><path d="m80 129 3-1.5v2l-3 1.5z"/><path d="m76 131 3-1.5v2l-3 1.5z"/><path d="m98 117 3-1.5v2l-3 1.5z"/><path d="m94 119 3-1.5v2l-3 1.5z"/><path d="m90 121 3-1.5v2l-3 1.5z"/><path d="m86 123 3-1.5v2l-3 1.5z"/><path d="m82 125 3-1.5v2l-3 1.5z"/><path d="m78 127 3-1.5v2l-3 1.5z"/><path d="m74 129 3-1.5v2l-3 1.5z"/><path d="m100 113 3-1.5v2l-3 1.5z"/><path d="m96 115 3-1.5v2l-3 1.5z"/><path d="m92 117 3-1.5v2l-3 1.5z"/><path d="m88 119 3-1.5v2l-3 1.5z"/><path d="m84 121 3-1.5v2l-3 1.5z"/><path d="m80 123 3-1.5v2l-3 1.5z"/><path d="m76 125 3-1.5v2l-3 1.5z"/><path d="m98 111 3-1.5v2l-3 1.5z"/><path d="m94 113 3-1.5v2l-3 1.5z"/><path d="m90 115 3-1.5v2l-3 1.5z"/><path d="m86 117 3-1.5v2l-3 1.5z"/><path d="m82 119 3-1.5v2l-3 1.5z"/><path d="m78 121 3-1.5v2l-3 1.5z"/><path d="m74 123 3-1.5v2l-3 1.5z"/><path d="m100 107 3-1.5v2l-3 1.5z"/><path d="m96 109 3-1.5v2l-3 1.5z"/><path d="m92 111 3-1.5v2l-3 1.5z"/><path d="m88 113 3-1.5v2l-3 1.5z"/><path d="m84 115 3-1.5v2l-3 1.5z"/><path d="m80 117 3-1.5v2l-3 1.5z"/><path d="m76 119 3-1.5v2l-3 1.5z"/><path d="m98 105 3-1.5v2l-3 1.5z"/><path d="m94 107 3-1.5v2l-3 1.5z"/><path d="m90 109 3-1.5v2l-3 1.5z"/><path d="m86 111 3-1.5v2l-3 1.5z"/><path d="m82 113 3-1.5v2l-3 1.5z"/><path d="m78 115 3-1.5v2l-3 1.5z"/><path d="m74 117 3-1.5v2l-3 1.5z"/><path d="m100 101 3-1.5v2l-3 1.5z"/><path d="m96 103 3-1.5v2l-3 1.5z"/><path d="m92 105 3-1.5v2l-3 1.5z"/><path d="m88 107 3-1.5v2l-3 1.5z"/><path d="m84 109 3-1.5v2l-3 1.5z"/><path d="m80 111 3-1.5v2l-3 1.5z"/><path d="m76 113 3-1.5v2l-3 1.5z"/><path d="m72 145 3-1.5v2l-3 1.5z"/><path d="m72 139 3-1.5v2l-3 1.5z"/><path d="m72 133 3-1.5v2l-3 1.5z"/><path d="m72 127 3-1.5v2l-3 1.5z"/><path d="m72 121 3-1.5v2l-3 1.5z"/><path d="m72 115 3-1.5v2l-3 1.5z"/><path d="m68 147 3-1.5v2l-3 1.5z"/><path d="m70 143 3-1.5v2l-3 1.5z"/><path d="m66 145 3-1.5v2l-3 1.5z"/><path d="m68 141 3-1.5v2l-3 1.5z"/><path d="m70 137 3-1.5v2l-3 1.5z"/><path d="m66 139 3-1.5v2l-3 1.5z"/><path d="m68 135 3-1.5v2l-3 1.5z"/><path d="m70 131 3-1.5v2l-3 1.5z"/><path d="m66 133 3-1.5v2l-3 1.5z"/><path d="m68 129 3-1.5v2l-3 1.5z"/><path d="m70 125 3-1.5v2l-3 1.5z"/><path d="m66 127 3-1.5v2l-3 1.5z"/><path d="m68 123 3-1.5v2l-3 1.5z"/><path d="m70 119 3-1.5v2l-3 1.5z"/><path d="m66 121 3-1.5v2l-3 1.5z"/><path d="m68 117 3-1.5v2l-3 1.5z"/><path d="m64 146 1-.5v2l-1 .5z"/><path d="m64 140 1-.5v2l-1 .5z"/><path d="m64 134 1-.5v2l-1 .5z"/><path d="m64 128 1-.5v2l-1 .5z"/><path d="m64 122 1-.5v2l-1 .5z"/><path d="m64 149 3-1.5v2l-3 1.5z"/><path d="m64 143 3-1.5v2l-3 1.5z"/><path d="m64 137 3-1.5v2l-3 1.5z"/><path d="m64 131 3-1.5v2l-3 1.5z"/><path d="m64 125 3-1.5v2l-3 1.5z"/><path d="m65 118.5 2-1v2l-3 1.5z"/><path d="m108 127 3-1.5v2l-3 1.5z"/><path d="m102 127 3-1.5v2l-3 1.5z"/><path d="m108 121 3-1.5v2l-3 1.5z"/><path d="m102 121 3-1.5v2l-3 1.5z"/><path d="m108 115 3-1.5v2l-3 1.5z"/><path d="m102 115 3-1.5v2l-3 1.5z"/><path d="m108 109 3-1.5v2l-3 1.5z"/><path d="m102 109 3-1.5v2l-3 1.5z"/><path d="m108 103 3-1.5v2l-3 1.5z"/><path d="m102 103 3-1.5v2l-3 1.5z"/><path d="m108 97 3-1.5v2l-3 1.5z"/><path d="m110 123 2-1v2l-2 1z"/><path d="m110 117 2-1v2l-2 1z"/><path d="m110 111 2-1v2l-2 1z"/><path d="m110 105 2-1v2l-2 1z"/><path d="m110 99 2-1v2l-2 1z"/><path d="m104 129 3-1.5v2l-3 1.5z"/><path d="m106 125 3-1.5v2l-3 1.5z"/><path d="m104 123 3-1.5v2l-3 1.5z"/><path d="m106 119 3-1.5v2l-3 1.5z"/><path d="m104 117 3-1.5v2l-3 1.5z"/><path d="m106 113 3-1.5v2l-3 1.5z"/><path d="m104 111 3-1.5v2l-3 1.5z"/><path d="m106 107 3-1.5v2l-3 1.5z"/><path d="m104 105 3-1.5v2l-3 1.5z"/><path d="m106 101 3-1.5v2l-3 1.5z"/><path d="m104 99 3-1.5v2l-3 1.5z"/><path d="m98 99 3-1.5v2l-3 1.5z"/><path d="m94 101 3-1.5v2l-3 1.5z"/><path d="m90 103 3-1.5v2l-3 1.5z"/><path d="m86 105 3-1.5v2l-3 1.5z"/><path d="m82 107 3-1.5v2l-3 1.5z"/><path d="m78 109 3-1.5v2l-3 1.5z"/><path d="m74 111 3-1.5v2l-3 1.5z"/><path d="m100 95 3-1.5v2l-3 1.5z"/><path d="m96 97 3-1.5v2l-3 1.5z"/><path d="m92 99 3-1.5v2l-3 1.5z"/><path d="m88 101 3-1.5v2l-3 1.5z"/><path d="m84 103 3-1.5v2l-3 1.5z"/><path d="m80 105 3-1.5v2l-3 1.5z"/><path d="m76 107 3-1.5v2l-3 1.5z"/><path d="m98 93 3-1.5v2l-3 1.5z"/><path d="m94 95 3-1.5v2l-3 1.5z"/><path d="m90 97 3-1.5v2l-3 1.5z"/><path d="m86 99 3-1.5v2l-3 1.5z"/><path d="m82 101 3-1.5v2l-3 1.5z"/><path d="m78 103 3-1.5v2l-3 1.5z"/><path d="m74 105 3-1.5v2l-3 1.5z"/><path d="m100 89 3-1.5v2l-3 1.5z"/><path d="m96 91 3-1.5v2l-3 1.5z"/><path d="m92 93 3-1.5v2l-3 1.5z"/><path d="m88 95 3-1.5v2l-3 1.5z"/><path d="m84 97 3-1.5v2l-3 1.5z"/><path d="m80 99 3-1.5v2l-3 1.5z"/><path d="m76 101 3-1.5v2l-3 1.5z"/><path d="m98 87 3-1.5v2l-3 1.5z"/><path d="m94 89 3-1.5v2l-3 1.5z"/><path d="m90 91 3-1.5v2l-3 1.5z"/><path d="m86 93 3-1.5v2l-3 1.5z"/><path d="m82 95 3-1.5v2l-3 1.5z"/><path d="m78 97 3-1.5v2l-3 1.5z"/><path d="m75 98.5 2-1v2l-3 1.5z"/><path d="m96 85 3-1.5v2l-3 1.5z"/><path d="m92 87 3-1.5v2l-3 1.5z"/><path d="m88 89 3-1.5v2l-3 1.5z"/><path d="m84 91 3-1.5v2l-3 1.5z"/><path d="m80 93 3-1.5v2l-3 1.5z"/><path d="m77 94.5 2-1v2l-3 1.5z"/><path d="m94 83 3-1.5v2l-3 1.5z"/><path d="m90 85 3-1.5v2l-3 1.5z"/><path d="m86 87 3-1.5v2l-3 1.5z"/><path d="m82 89 3-1.5v2l-3 1.5z"/><path d="m79 90.5 2-1v2l-3 1.5z"/><path d="m92 81 3-1.5v2l-3 1.5z"/><path d="m88 83 3-1.5v2l-3 1.5z"/><path d="m84 85 3-1.5v2l-3 1.5z"/><path d="m81 86.5 2-1v2l-3 1.5z"/><path d="m90 79 3-1.5v2l-3 1.5z"/><path d="m86 81 3-1.5v2l-3 1.5z"/><path d="m83 82.5 2-1v2l-3 1.5z"/><path d="m88 77 3-1.5v2l-3 1.5z"/><path d="m85 78.5 2-1v2l-3 1.5z"/><path d="m72 109 3-1.5v2l-3 1.5z"/><path d="m73 102.5 2-1v2l-3 1.5z"/><path d="m70 113 3-1.5v2l-3 1.5z"/><path d="m67 114.5 2-1v2l-3 1.5z"/><path d="m69 110.5 2-1v2l-3 1.5z"/><path d="m71 106.5 2-1v2l-3 1.5z"/><path d="m102 97 3-1.5v2l-3 1.5z"/><path d="m102 91 3-1.5v2l-3 1.5z"/><path d="m106 95 3-1.5v2l-3 1.5z"/><path d="m104 93 3-1.5v2l-3 1.5z"/></g><g fill="#762c07" opacity=".6"><path d="m64 143 3-1.5v2l-3 1.5z"/><path d="m64 149 3-1.5v2l-3 1.5z"/><path d="m64 140 1-.5v2l-1 .5z"/><path d="m64 137 3-1.5v2l-3 1.5z"/><path d="m64 134 1-.5v2l-1 .5z"/><path d="m64 131 3-1.5v2l-3 1.5z"/><path d="m64 128 1-.5v2l-1 .5z"/><path d="m64 125 3-1.5v2l-3 1.5z"/><path d="m64 122 1-.5v2l-1 .5z"/><path d="m110 117 2-1v2l-2 1z"/><path d="m110 123 2-1v2l-2 1z"/><path d="m110 105 2-1v2l-2 1z"/><path d="m110 111 2-1v2l-2 1z"/><path d="m110 99 2-1v2l-2 1z"/><path d="m65 118.5 2-1v2l-3 1.5z"/><path d="m108 97 3-1.5v2l-3 1.5z"/><path d="m108 109 3-1.5v2l-3 1.5z"/><path d="m108 103 3-1.5v2l-3 1.5z"/><path d="m108 121 3-1.5v2l-3 1.5z"/><path d="m108 127 3-1.5v2l-3 1.5z"/><path d="m108 115 3-1.5v2l-3 1.5z"/><path d="m64 146 1-.5v2l-1 .5z"/></g><path d="m64 120 24-48 24 24v2l-24-24-24 48z" fill="#e5e5e5"/><path d="m72.9 124.6.2-.1c1.6-.8 2.9-.2 2.9 1.4v14.1l-6 3v-14.1c0-1.6 1.3-3.5 2.9-4.3z" fill="#e5e5e5"/><path d="m75 128.5v-2c0-1.1-.9-1.6-2-1s-2 1.9-2 3v2z" fill="#656565"/><path d="m73 125.5c-1.1.6-2 1.9-2 3v1c0-1.1.9-2.4 2-3s2-.1 2 1v-1c0-1.1-.9-1.6-2-1z" opacity=".5"/><path d="m71 131.5v10l4-2v-10z" fill="#656565"/><path d="m75 130.5-4 2v-1l4-2z" opacity=".5"/><path d="m75 129.5-4 2v-1l4-2z" fill="#e5e5e5"/><path d="m102.9 109.6.2-.1c1.6-.8 2.9-.2 2.9 1.4v14.1l-6 3v-14.1c0-1.6 1.3-3.5 2.9-4.3z" fill="#e5e5e5"/><path d="m105 113.5v-2c0-1.1-.9-1.6-2-1s-2 1.9-2 3v2z" fill="#656565"/><path d="m103 110.5c-1.1.6-2 1.9-2 3v1c0-1.1.9-2.4 2-3s2-.1 2 1v-1c0-1.1-.9-1.6-2-1z" opacity=".5"/><path d="m101 116.5v10l4-2v-10z" fill="#656565"/><path d="m105 115.5-4 2v-1l4-2z" opacity=".5"/><path d="m105 114.5-4 2v-1l4-2z" fill="#e5e5e5"/><path d="m87.9 116.5c-3 1.5-4.9 4.5-4.9 7.9v18.1l10-5v-17.8c0-2.6-2.8-4.3-5.1-3.2z" fill="#fff"/><path d="m88 117.5c-2.5 1.2-4 3.8-4 6.5v18l8-4v-18.1c0-2-2.1-3.4-4-2.4z" fill="#999"/><path d="m91 120v17l-6 3v-16.4c0-2.2 1.3-4.3 3.3-5.3 1.2-.6 2.7.3 2.7 1.7z" fill="#656565"/><path d="m88.3 118.3c-2 1-3.3 3-3.3 5.3v1c0-2.2 1.3-4.3 3.3-5.3 1.3-.6 2.7.3 2.7 1.7v-1c0-1.4-1.5-2.3-2.7-1.7z" opacity=".5"/><path d="m91 123.8-2 1v-3l-2 1v3l-2 1v2l2-1v9l2-1v-9l2-1z" opacity=".5"/><path d="m93 99.1c0 2.8-2.2 6.1-5 7.5s-5 .3-5-2.5 2.2-6.1 5-7.5 5-.3 5 2.5z" fill="#e5e5e5"/><path d="m92 99.6c0 2.2-1.8 4.9-4 6s-4 .2-4-2 1.8-4.9 4-6 4-.2 4 2z" fill="#656565"/><path d="m88 98.6c2-1 3.7-.3 3.9 1.5 0-.2.1-.4.1-.5 0-2.2-1.8-3.1-4-2s-4 3.8-4 6c0 .2 0 .3.1.5.2-2.1 1.9-4.5 3.9-5.5z" opacity=".5"/><path d="m92.5 99.2-4.2 2.1 3-4.4-.2-.1-3 4.4v-4.2l-.2.2v4.1l-3-1.4-.2.2 3 1.5-4.2 2.1v.3l4.2-2.1-3 4.4.2.1 3-4.4v4.2l.2-.2v-4.1l3 1.4.2-.3-3-1.4 4.2-2.1z" fill="#e5e5e5"/><path d="m112 128-48 24v-32l24-48 24 24z" opacity=".29"/><path d="m0 120 64 32v-32l-64-32z" fill="#baa794"/><g fill="#762c07" opacity=".4"><path d="m4 121-3-1.5v-2l3 1.5z"/><path d="m8 123-3-1.5v-2l3 1.5z"/><path d="m12 125-3-1.5v-2l3 1.5z"/><path d="m16 127-3-1.5v-2l3 1.5z"/><path d="m20 129-3-1.5v-2l3 1.5z"/><path d="m24 131-3-1.5v-2l3 1.5z"/><path d="m28 133-3-1.5v-2l3 1.5z"/><path d="m32 135-3-1.5v-2l3 1.5z"/><path d="m36 137-3-1.5v-2l3 1.5z"/><path d="m40 139-3-1.5v-2l3 1.5z"/><path d="m44 141-3-1.5v-2l3 1.5z"/><path d="m48 143-3-1.5v-2l3 1.5z"/><path d="m52 145-3-1.5v-2l3 1.5z"/><path d="m56 147-3-1.5v-2l3 1.5z"/><path d="m60 149-3-1.5v-2l3 1.5z"/><path d="m64 151-3-1.5v-2l3 1.5z"/><path d="m0 114 2 1v2l-2-1z"/><path d="m3 115.5 3 1.5v2l-3-1.5z"/><path d="m7 117.5 3 1.5v2l-3-1.5z"/><path d="m11 119.5 3 1.5v2l-3-1.5z"/><path d="m15 121.5 3 1.5v2l-3-1.5z"/><path d="m19 123.5 3 1.5v2l-3-1.5z"/><path d="m23 125.5 3 1.5v2l-3-1.5z"/><path d="m27 127.5 3 1.5v2l-3-1.5z"/><path d="m31 129.5 3 1.5v2l-3-1.5z"/><path d="m35 131.5 3 1.5v2l-3-1.5z"/><path d="m39 133.5 3 1.5v2l-3-1.5z"/><path d="m43 135.5 3 1.5v2l-3-1.5z"/><path d="m47 137.5 3 1.5v2l-3-1.5z"/><path d="m51 139.5 3 1.5v2l-3-1.5z"/><path d="m55 141.5 3 1.5v2l-3-1.5z"/><path d="m62 147-3-1.5v-2l3 1.5z"/><path d="m63 145.5 1 .5v2l-1-.5z"/><path d="m1 111.5 3 1.5v2l-3-1.5z"/><path d="m5 113.5 3 1.5v2l-3-1.5z"/><path d="m9 115.5 3 1.5v2l-3-1.5z"/><path d="m13 117.5 3 1.5v2l-3-1.5z"/><path d="m17 119.5 3 1.5v2l-3-1.5z"/><path d="m21 121.5 3 1.5v2l-3-1.5z"/><path d="m25 123.5 3 1.5v2l-3-1.5z"/><path d="m29 125.5 3 1.5v2l-3-1.5z"/><path d="m33 127.5 3 1.5v2l-3-1.5z"/><path d="m37 129.5 3 1.5v2l-3-1.5z"/><path d="m41 131.5 3 1.5v2l-3-1.5z"/><path d="m45 133.5 3 1.5v2l-3-1.5z"/><path d="m49 135.5 3 1.5v2l-3-1.5z"/><path d="m53 137.5 3 1.5v2l-3-1.5z"/><path d="m57 139.5 3 1.5v2l-3-1.5z"/><path d="m61 141.5 3 1.5v2l-3-1.5z"/><path d="m0 108 2 1v2l-2-1z"/><path d="m3 109.5 3 1.5v2l-3-1.5z"/><path d="m7 111.5 3 1.5v2l-3-1.5z"/><path d="m11 113.5 3 1.5v2l-3-1.5z"/><path d="m15 115.5 3 1.5v2l-3-1.5z"/><path d="m19 117.5 3 1.5v2l-3-1.5z"/><path d="m23 119.5 3 1.5v2l-3-1.5z"/><path d="m27 121.5 3 1.5v2l-3-1.5z"/><path d="m31 123.5 3 1.5v2l-3-1.5z"/><path d="m35 125.5 3 1.5v2l-3-1.5z"/><path d="m39 127.5 3 1.5v2l-3-1.5z"/><path d="m43 129.5 3 1.5v2l-3-1.5z"/><path d="m47 131.5 3 1.5v2l-3-1.5z"/><path d="m51 133.5 3 1.5v2l-3-1.5z"/><path d="m58 139-3-1.5v-2l3 1.5z"/><path d="m62 141-3-1.5v-2l3 1.5z"/><path d="m63 139.5 1 .5v2l-1-.5z"/><path d="m1 105.5 3 1.5v2l-3-1.5z"/><path d="m5 107.5 3 1.5v2l-3-1.5z"/><path d="m9 109.5 3 1.5v2l-3-1.5z"/><path d="m13 111.5 3 1.5v2l-3-1.5z"/><path d="m17 113.5 3 1.5v2l-3-1.5z"/><path d="m21 115.5 3 1.5v2l-3-1.5z"/><path d="m25 117.5 3 1.5v2l-3-1.5z"/><path d="m29 119.5 3 1.5v2l-3-1.5z"/><path d="m33 121.5 3 1.5v2l-3-1.5z"/><path d="m37 123.5 3 1.5v2l-3-1.5z"/><path d="m41 125.5 3 1.5v2l-3-1.5z"/><path d="m45 127.5 3 1.5v2l-3-1.5z"/><path d="m49 129.5 3 1.5v2l-3-1.5z"/><path d="m53 131.5 3 1.5v2l-3-1.5z"/><path d="m57 133.5 3 1.5v2l-3-1.5z"/><path d="m61 135.5 3 1.5v2l-3-1.5z"/><path d="m0 102 2 1v2l-2-1z"/><path d="m3 103.5 3 1.5v2l-3-1.5z"/><path d="m7 105.5 3 1.5v2l-3-1.5z"/><path d="m11 107.5 3 1.5v2l-3-1.5z"/><path d="m15 109.5 3 1.5v2l-3-1.5z"/><path d="m19 111.5 3 1.5v2l-3-1.5z"/><path d="m23 113.5 3 1.5v2l-3-1.5z"/><path d="m27 115.5 3 1.5v2l-3-1.5z"/><path d="m31 117.5 3 1.5v2l-3-1.5z"/><path d="m35 119.5 3 1.5v2l-3-1.5z"/><path d="m39 121.5 3 1.5v2l-3-1.5z"/><path d="m43 123.5 3 1.5v2l-3-1.5z"/><path d="m47 125.5 3 1.5v2l-3-1.5z"/><path d="m54 131-3-1.5v-2l3 1.5z"/><path d="m58 133-3-1.5v-2l3 1.5z"/><path d="m62 135-3-1.5v-2l3 1.5z"/><path d="m63 133.5 1 .5v2l-1-.5z"/><path d="m1 99.5 3 1.5v2l-3-1.5z"/><path d="m5 101.5 3 1.5v2l-3-1.5z"/><path d="m9 103.5 3 1.5v2l-3-1.5z"/><path d="m13 105.5 3 1.5v2l-3-1.5z"/><path d="m17 107.5 3 1.5v2l-3-1.5z"/><path d="m21 109.5 3 1.5v2l-3-1.5z"/><path d="m25 111.5 3 1.5v2l-3-1.5z"/><path d="m29 113.5 3 1.5v2l-3-1.5z"/><path d="m33 115.5 3 1.5v2l-3-1.5z"/><path d="m37 117.5 3 1.5v2l-3-1.5z"/><path d="m41 119.5 3 1.5v2l-3-1.5z"/><path d="m45 121.5 3 1.5v2l-3-1.5z"/><path d="m49 123.5 3 1.5v2l-3-1.5z"/><path d="m53 125.5 3 1.5v2l-3-1.5z"/><path d="m57 127.5 3 1.5v2l-3-1.5z"/><path d="m61 129.5 3 1.5v2l-3-1.5z"/><path d="m0 96 2 1v2l-2-1z"/><path d="m3 97.5 3 1.5v2l-3-1.5z"/><path d="m7 99.5 3 1.5v2l-3-1.5z"/><path d="m11 101.5 3 1.5v2l-3-1.5z"/><path d="m15 103.5 3 1.5v2l-3-1.5z"/><path d="m19 105.5 3 1.5v2l-3-1.5z"/><path d="m23 107.5 3 1.5v2l-3-1.5z"/><path d="m27 109.5 3 1.5v2l-3-1.5z"/><path d="m31 111.5 3 1.5v2l-3-1.5z"/><path d="m35 113.5 3 1.5v2l-3-1.5z"/><path d="m39 115.5 3 1.5v2l-3-1.5z"/><path d="m43 117.5 3 1.5v2l-3-1.5z"/><path d="m50 123-3-1.5v-2l3 1.5z"/><path d="m54 125-3-1.5v-2l3 1.5z"/><path d="m58 127-3-1.5v-2l3 1.5z"/><path d="m62 129-3-1.5v-2l3 1.5z"/><path d="m63 127.5 1 .5v2l-1-.5z"/><path d="m1 93.5 3 1.5v2l-3-1.5z"/><path d="m5 95.5 3 1.5v2l-3-1.5z"/><path d="m9 97.5 3 1.5v2l-3-1.5z"/><path d="m13 99.5 3 1.5v2l-3-1.5z"/><path d="m17 101.5 3 1.5v2l-3-1.5z"/><path d="m21 103.5 3 1.5v2l-3-1.5z"/><path d="m25 105.5 3 1.5v2l-3-1.5z"/><path d="m29 107.5 3 1.5v2l-3-1.5z"/><path d="m33 109.5 3 1.5v2l-3-1.5z"/><path d="m37 111.5 3 1.5v2l-3-1.5z"/><path d="m41 113.5 3 1.5v2l-3-1.5z"/><path d="m45 115.5 3 1.5v2l-3-1.5z"/><path d="m49 117.5 3 1.5v2l-3-1.5z"/><path d="m53 119.5 3 1.5v2l-3-1.5z"/><path d="m57 121.5 3 1.5v2l-3-1.5z"/><path d="m61 123.5 3 1.5v2l-3-1.5z"/><path d="m2 93-2-1v-2l2 1z"/><path d="m6 95-3-1.5v-2l3 1.5z"/><path d="m10 97-3-1.5v-2l3 1.5z"/><path d="m14 99-3-1.5v-2l3 1.5z"/><path d="m18 101-3-1.5v-2l3 1.5z"/><path d="m22 103-3-1.5v-2l3 1.5z"/><path d="m26 105-3-1.5v-2l3 1.5z"/><path d="m30 107-3-1.5v-2l3 1.5z"/><path d="m34 109-3-1.5v-2l3 1.5z"/><path d="m38 111-3-1.5v-2l3 1.5z"/><path d="m42 113-3-1.5v-2l3 1.5z"/><path d="m46 115-3-1.5v-2l3 1.5z"/><path d="m50 117-3-1.5v-2l3 1.5z"/><path d="m54 119-3-1.5v-2l3 1.5z"/><path d="m58 121-3-1.5v-2l3 1.5z"/><path d="m62 123-3-1.5v-2l3 1.5z"/><path d="m63 121.5 1 .5v2l-1-.5z"/></g><g fill="#762c07" opacity=".6"><path d="m64 151-3-1.5v-2l3 1.5z"/><path d="m63 145.5 1 .5v2l-1-.5z"/><path d="m64 145-3-1.5v-2l3 1.5z"/><path d="m63 139.5 1 .5v2l-1-.5z"/><path d="m64 139-3-1.5v-2l3 1.5z"/><path d="m63 133.5 1 .5v2l-1-.5z"/><path d="m64 133-3-1.5v-2l3 1.5z"/><path d="m63 127.5 1 .5v2l-1-.5z"/><path d="m64 127-3-1.5v-2l3 1.5z"/><path d="m63 121.5 1 .5v2l-1-.5z"/></g><path d="m55.1 124.6-.2-.1c-1.6-.8-2.9-.2-2.9 1.4v14.1l6 3v-14.1c0-1.6-1.3-3.5-2.9-4.3z" fill="#e5e5e5"/><path d="m53 128.5v-2c0-1.1.9-1.6 2-1s2 1.9 2 3v2z" fill="#656565"/><path d="m55 125.5c1.1.6 2 1.9 2 3v1c0-1.1-.9-2.4-2-3s-2-.1-2 1v-1c0-1.1.9-1.6 2-1z" opacity=".5"/><path d="m57 131.5v10l-4-2v-10z" fill="#656565"/><path d="m53 130.5 4 2v-1l-4-2z" opacity=".5"/><path d="m53 129.5 4 2v-1l-4-2z" fill="#e5e5e5"/><path d="m47.1 120.6-.2-.1c-1.6-.8-2.9-.2-2.9 1.4v14.1l6 3v-14.1c0-1.6-1.3-3.5-2.9-4.3z" fill="#e5e5e5"/><path d="m45 124.5v-2c0-1.1.9-1.6 2-1s2 1.9 2 3v2z" fill="#656565"/><path d="m47 121.5c1.1.6 2 1.9 2 3v1c0-1.1-.9-2.4-2-3s-2-.1-2 1v-1c0-1.1.9-1.6 2-1z" opacity=".5"/><path d="m49 127.5v10l-4-2v-10z" fill="#656565"/><path d="m45 126.5 4 2v-1l-4-2z" opacity=".5"/><path d="m45 125.5 4 2v-1l-4-2z" fill="#e5e5e5"/><path d="m39.1 116.6-.2-.1c-1.6-.8-2.9-.2-2.9 1.4v14.1l6 3v-14.1c0-1.6-1.3-3.5-2.9-4.3z" fill="#e5e5e5"/><path d="m37 120.5v-2c0-1.1.9-1.6 2-1s2 1.9 2 3v2z" fill="#656565"/><path d="m39 117.5c1.1.6 2 1.9 2 3v1c0-1.1-.9-2.4-2-3s-2-.1-2 1v-1c0-1.1.9-1.6 2-1z" opacity=".5"/><path d="m41 123.5v10l-4-2v-10z" fill="#656565"/><path d="m37 122.5 4 2v-1l-4-2z" opacity=".5"/><path d="m37 121.5 4 2v-1l-4-2z" fill="#e5e5e5"/><path d="m23.1 108.6-.2-.1c-1.6-.8-2.9-.2-2.9 1.4v14.1l6 3v-14.1c0-1.6-1.3-3.5-2.9-4.3z" fill="#e5e5e5"/><path d="m21 112.5v-2c0-1.1.9-1.6 2-1s2 1.9 2 3v2z" fill="#656565"/><path d="m23 109.5c1.1.6 2 1.9 2 3v1c0-1.1-.9-2.4-2-3s-2-.1-2 1v-1c0-1.1.9-1.6 2-1z" opacity=".5"/><path d="m25 115.5v10l-4-2v-10z" fill="#656565"/><path d="m21 114.5 4 2v-1l-4-2z" opacity=".5"/><path d="m21 113.5 4 2v-1l-4-2z" fill="#e5e5e5"/><path d="m15.1 104.6-.2-.1c-1.6-.8-2.9-.2-2.9 1.4v14.1l6 3v-14.1c0-1.6-1.3-3.5-2.9-4.3z" fill="#e5e5e5"/><path d="m13 108.5v-2c0-1.1.9-1.6 2-1s2 1.9 2 3v2z" fill="#656565"/><path d="m15 105.5c1.1.6 2 1.9 2 3v1c0-1.1-.9-2.4-2-3s-2-.1-2 1v-1c0-1.1.9-1.6 2-1z" opacity=".5"/><path d="m17 111.5v10l-4-2v-10z" fill="#656565"/><path d="m13 110.5 4 2v-1l-4-2z" opacity=".5"/><path d="m13 109.5 4 2v-1l-4-2z" fill="#e5e5e5"/><path d="m7.1 100.6-.2-.1c-1.6-.8-2.9-.2-2.9 1.4v14.1l6 3v-14.1c0-1.6-1.3-3.5-2.9-4.3z" fill="#e5e5e5"/><path d="m5 104.5v-2c0-1.1.9-1.6 2-1s2 1.9 2 3v2z" fill="#656565"/><path d="m7 101.5c1.1.6 2 1.9 2 3v1c0-1.1-.9-2.4-2-3s-2-.1-2 1v-1c0-1.1.9-1.6 2-1z" opacity=".5"/><path d="m9 107.5v10l-4-2v-10z" fill="#656565"/><path d="m5 106.5 4 2v-1l-4-2z" opacity=".5"/><path d="m5 105.5 4 2v-1l-4-2z" fill="#e5e5e5"/><path d="m64 120-64-32v2l64 32z" fill="#e5e5e5"/><path d="m0 120 64 32v-32l-64-32z" opacity=".11"/><path d="m8.2 53.2h71.6v53.7h-71.6z" fill="#2d3134" transform="matrix(-.8944 -.4472 .4472 -.8944 47.5762 171.2316)"/><path d="m8.2 53.2h71.6v53.7h-71.6z" fill="#2d3134" transform="matrix(-.8944 -.4472 .4472 -.8944 47.5762 171.2316)"/><path d="m8.2 53.2h71.6v53.7h-71.6z" opacity=".11" transform="matrix(-.8944 -.4472 .4472 -.8944 47.5762 171.2316)"/><path d="m23.4 41.3.6-1.3 64 32-.6 1.3z" fill="#fff" opacity=".2"/><path d="m88 16-16 32 16 8 16-8z" fill="#2d3134"/><path d="m104 48-16 8v-40z" opacity=".29"/><path d="m72 48 16 8v-40z" opacity=".11"/><path d="m80 88v56l8 4v-92l-8-16-8 8v36z" fill="#baa794"/><g fill="#762c07"><g opacity=".4"><path d="m84 143-3-1.5v2l3 1.5z"/><path d="m88 145-3-1.5v2l3 1.5z"/><path d="m82 139-2-1v2l2 1z"/><path d="m86 141-3-1.5v2l3 1.5z"/><path d="m88 142-1-.5v2l1 .5z"/><path d="m84 137-3-1.5v2l3 1.5z"/><path d="m88 139-3-1.5v2l3 1.5z"/><path d="m82 133-2-1v2l2 1z"/><path d="m86 135-3-1.5v2l3 1.5z"/><path d="m88 136-1-.5v2l1 .5z"/><path d="m84 131-3-1.5v2l3 1.5z"/><path d="m88 133-3-1.5v2l3 1.5z"/><path d="m82 127-2-1v2l2 1z"/><path d="m86 129-3-1.5v2l3 1.5z"/><path d="m88 130-1-.5v2l1 .5z"/><path d="m84 125-3-1.5v2l3 1.5z"/><path d="m88 127-3-1.5v2l3 1.5z"/><path d="m82 121-2-1v2l2 1z"/><path d="m86 123-3-1.5v2l3 1.5z"/><path d="m88 124-1-.5v2l1 .5z"/><path d="m84 119-3-1.5v2l3 1.5z"/><path d="m88 121-3-1.5v2l3 1.5z"/><path d="m82 115-2-1v2l2 1z"/><path d="m86 117-3-1.5v2l3 1.5z"/><path d="m88 118-1-.5v2l1 .5z"/><path d="m84 113-3-1.5v2l3 1.5z"/><path d="m88 115-3-1.5v2l3 1.5z"/><path d="m82 109-2-1v2l2 1z"/><path d="m86 111-3-1.5v2l3 1.5z"/><path d="m88 112-1-.5v2l1 .5z"/><path d="m84 107-3-1.5v2l3 1.5z"/><path d="m88 109-3-1.5v2l3 1.5z"/><path d="m82 103-2-1v2l2 1z"/><path d="m86 105-3-1.5v2l3 1.5z"/><path d="m88 106-1-.5v2l1 .5z"/><path d="m84 101-3-1.5v2l3 1.5z"/><path d="m88 103-3-1.5v2l3 1.5z"/><path d="m82 97-2-1v2l2 1z"/><path d="m86 99-3-1.5v2l3 1.5z"/><path d="m88 100-1-.5v2l1 .5z"/><path d="m84 95-3-1.5v2l3 1.5z"/><path d="m88 97-3-1.5v2l3 1.5z"/><path d="m82 91-2-1v2l2 1z"/><path d="m86 93-3-1.5v2l3 1.5z"/><path d="m88 94-1-.5v2l1 .5z"/><path d="m84 89-3-1.5v2l3 1.5z"/><path d="m88 91-3-1.5v2l3 1.5z"/><path d="m74 81-2-1v2l2 1z"/><path d="m78 83-3-1.5v2l3 1.5z"/><path d="m82 85-3-1.5v2l3 1.5z"/><path d="m86 87-3-1.5v2l3 1.5z"/><path d="m88 88-1-.5v2l1 .5z"/><path d="m76 79-3-1.5v2l3 1.5z"/><path d="m80 81-3-1.5v2l3 1.5z"/><path d="m84 83-3-1.5v2l3 1.5z"/><path d="m88 85-3-1.5v2l3 1.5z"/><path d="m74 75-2-1v2l2 1z"/><path d="m78 77-3-1.5v2l3 1.5z"/><path d="m82 79-3-1.5v2l3 1.5z"/><path d="m86 81-3-1.5v2l3 1.5z"/><path d="m88 82-1-.5v2l1 .5z"/><path d="m76 73-3-1.5v2l3 1.5z"/><path d="m80 75-3-1.5v2l3 1.5z"/><path d="m84 77-3-1.5v2l3 1.5z"/><path d="m88 79-3-1.5v2l3 1.5z"/><path d="m74 69-2-1v2l2 1z"/><path d="m78 71-3-1.5v2l3 1.5z"/><path d="m82 73-3-1.5v2l3 1.5z"/><path d="m86 75-3-1.5v2l3 1.5z"/><path d="m88 76-1-.5v2l1 .5z"/><path d="m76 67-3-1.5v2l3 1.5z"/><path d="m80 69-3-1.5v2l3 1.5z"/><path d="m84 71-3-1.5v2l3 1.5z"/><path d="m88 73-3-1.5v2l3 1.5z"/><path d="m74 63-2-1v2l2 1z"/><path d="m78 65-3-1.5v2l3 1.5z"/><path d="m82 67-3-1.5v2l3 1.5z"/><path d="m86 69-3-1.5v2l3 1.5z"/><path d="m88 70-1-.5v2l1 .5z"/><path d="m76 61-3-1.5v2l3 1.5z"/><path d="m80 63-3-1.5v2l3 1.5z"/><path d="m84 65-3-1.5v2l3 1.5z"/><path d="m88 67-3-1.5v2l3 1.5z"/><path d="m74 57-2-1v2l2 1z"/><path d="m78 59-3-1.5v2l3 1.5z"/><path d="m82 61-3-1.5v2l3 1.5z"/><path d="m86 63-3-1.5v2l3 1.5z"/><path d="m88 64-1-.5v2l1 .5z"/><path d="m76 55-3-1.5v2l3 1.5z"/><path d="m80 57-3-1.5v2l3 1.5z"/><path d="m84 59-3-1.5v2l3 1.5z"/><path d="m88 61-3-1.5v2l3 1.5z"/><path d="m74 51-2-1v2l2 1z"/><path d="m78 53-3-1.5v2l3 1.5z"/><path d="m82 55-3-1.5v2l3 1.5z"/><path d="m86 57-3-1.5v2l3 1.5z"/><path d="m76 48.5-2-1-1 1.5 3 1.5z"/><path d="m80 50.5-3-1.5v2l3 1.5z"/><path d="m84 52.5-3-1.5v2l3 1.5z"/><path d="m86 53.5-1-.5v2l3 1.5z"/><path d="m78 46.5-2-1-1 1.5 3 1.5z"/><path d="m82 48.5-3-1.5v2l3 1.5z"/><path d="m84 49.5-1-.5v2l3 1.5z"/><path d="m80 44-2-1-1 1.5 3 1.5z"/><path d="m82 45-1-.5v2l3 1.5z"/><path d="m80 41-1-.5v2l3 1.5z"/><path d="m88 58-1-.5v2l1 .5z"/></g><g opacity=".6"><path d="m88 145-3-1.5v2l3 1.5z"/><path d="m88 142-1-.5v2l1 .5z"/><path d="m88 139-3-1.5v2l3 1.5z"/><path d="m88 136-1-.5v2l1 .5z"/><path d="m88 133-3-1.5v2l3 1.5z"/><path d="m88 130-1-.5v2l1 .5z"/><path d="m88 127-3-1.5v2l3 1.5z"/><path d="m88 124-1-.5v2l1 .5z"/><path d="m88 121-3-1.5v2l3 1.5z"/><path d="m88 118-1-.5v2l1 .5z"/><path d="m88 115-3-1.5v2l3 1.5z"/><path d="m88 112-1-.5v2l1 .5z"/><path d="m88 109-3-1.5v2l3 1.5z"/><path d="m88 106-1-.5v2l1 .5z"/><path d="m88 103-3-1.5v2l3 1.5z"/><path d="m88 100-1-.5v2l1 .5z"/><path d="m88 97-3-1.5v2l3 1.5z"/><path d="m88 94-1-.5v2l1 .5z"/></g><g opacity=".6"><path d="m88 91-3-1.5v2l3 1.5z"/><path d="m88 88-1-.5v2l1 .5z"/><path d="m88 85-3-1.5v2l3 1.5z"/><path d="m88 82-1-.5v2l1 .5z"/><path d="m88 79-3-1.5v2l3 1.5z"/><path d="m88 76-1-.5v2l1 .5z"/><path d="m88 73-3-1.5v2l3 1.5z"/><path d="m88 70-1-.5v2l1 .5z"/><path d="m74 75-2-1v2l2 1z"/><path d="m74 81-2-1v2l2 1z"/><path d="m74 63-2-1v2l2 1z"/><path d="m74 69-2-1v2l2 1z"/><path d="m74 51-2-1v2l2 1z"/><path d="m74 57-2-1v2l2 1z"/><path d="m88 67-3-1.5v2l3 1.5z"/><path d="m76 55-3-1.5v2l3 1.5z"/><path d="m76 67-3-1.5v2l3 1.5z"/><path d="m76 61-3-1.5v2l3 1.5z"/><path d="m76 79-3-1.5v2l3 1.5z"/><path d="m76 73-3-1.5v2l3 1.5z"/><path d="m88 64-1-.5v2l1 .5z"/><path d="m88 61-3-1.5v2l3 1.5z"/><path d="m88 58-1-.5v2l1 .5z"/></g></g><path d="m88 56-8-16-8 8v2l8-8 8 16z" fill="#e5e5e5"/><path d="m79.1 54.4-.2-.1c-1.6-.8-2.9-.2-2.9 1.4v9.3l6 3v-9.2c0-1.6-1.3-3.6-2.9-4.4z" fill="#e5e5e5"/><path d="m77 58.4v-2c0-1.1.9-1.6 2-1s2 1.9 2 3v2z" fill="#656565"/><path d="m79 55.4c1.1.6 2 1.9 2 3v1c0-1.1-.9-2.4-2-3s-2-.1-2 1v-1c0-1.1.9-1.6 2-1z" opacity=".5"/><path d="m81 61.4v5.1l-4-2v-5.1z" fill="#656565"/><path d="m77 60.4 4 2v-1l-4-2z" opacity=".5"/><path d="m77 59.4 4 2v-1l-4-2z" fill="#e5e5e5"/><path d="m80 88v56l8 4v-92l-8-16-8 8v36z" opacity=".11"/><path d="m104 140-16 8v-92l8-16 8 8z" fill="#baa794"/><g fill="#762c07" opacity=".4"><path d="m100 139 3-1.5v2l-3 1.5z"/><path d="m96 141 3-1.5v2l-3 1.5z"/><path d="m92 143 3-1.5v2l-3 1.5z"/><path d="m88 145 3-1.5v2l-3 1.5z"/><path d="m102 135 2-1v2l-2 1z"/><path d="m98 137 3-1.5v2l-3 1.5z"/><path d="m94 139 3-1.5v2l-3 1.5z"/><path d="m90 141 3-1.5v2l-3 1.5z"/><path d="m88 142 1-.5v2l-1 .5z"/><path d="m100 133 3-1.5v2l-3 1.5z"/><path d="m96 135 3-1.5v2l-3 1.5z"/><path d="m92 137 3-1.5v2l-3 1.5z"/><path d="m88 139 3-1.5v2l-3 1.5z"/><path d="m102 129 2-1v2l-2 1z"/><path d="m98 131 3-1.5v2l-3 1.5z"/><path d="m94 133 3-1.5v2l-3 1.5z"/><path d="m90 135 3-1.5v2l-3 1.5z"/><path d="m88 136 1-.5v2l-1 .5z"/><path d="m100 127 3-1.5v2l-3 1.5z"/><path d="m96 129 3-1.5v2l-3 1.5z"/><path d="m92 131 3-1.5v2l-3 1.5z"/><path d="m88 133 3-1.5v2l-3 1.5z"/><path d="m102 123 2-1v2l-2 1z"/><path d="m98 125 3-1.5v2l-3 1.5z"/><path d="m94 127 3-1.5v2l-3 1.5z"/><path d="m90 129 3-1.5v2l-3 1.5z"/><path d="m88 130 1-.5v2l-1 .5z"/><path d="m100 121 3-1.5v2l-3 1.5z"/><path d="m96 123 3-1.5v2l-3 1.5z"/><path d="m92 125 3-1.5v2l-3 1.5z"/><path d="m88 127 3-1.5v2l-3 1.5z"/><path d="m102 117 2-1v2l-2 1z"/><path d="m98 119 3-1.5v2l-3 1.5z"/><path d="m94 121 3-1.5v2l-3 1.5z"/><path d="m90 123 3-1.5v2l-3 1.5z"/><path d="m88 124 1-.5v2l-1 .5z"/><path d="m100 115 3-1.5v2l-3 1.5z"/><path d="m96 117 3-1.5v2l-3 1.5z"/><path d="m92 119 3-1.5v2l-3 1.5z"/><path d="m88 121 3-1.5v2l-3 1.5z"/><path d="m102 111 2-1v2l-2 1z"/><path d="m98 113 3-1.5v2l-3 1.5z"/><path d="m94 115 3-1.5v2l-3 1.5z"/><path d="m90 117 3-1.5v2l-3 1.5z"/><path d="m88 118 1-.5v2l-1 .5z"/><path d="m100 109 3-1.5v2l-3 1.5z"/><path d="m96 111 3-1.5v2l-3 1.5z"/><path d="m92 113 3-1.5v2l-3 1.5z"/><path d="m88 115 3-1.5v2l-3 1.5z"/><path d="m102 105 2-1v2l-2 1z"/><path d="m98 107 3-1.5v2l-3 1.5z"/><path d="m94 109 3-1.5v2l-3 1.5z"/><path d="m90 111 3-1.5v2l-3 1.5z"/><path d="m88 112 1-.5v2l-1 .5z"/><path d="m100 103 3-1.5v2l-3 1.5z"/><path d="m96 105 3-1.5v2l-3 1.5z"/><path d="m92 107 3-1.5v2l-3 1.5z"/><path d="m88 109 3-1.5v2l-3 1.5z"/><path d="m102 99 2-1v2l-2 1z"/><path d="m98 101 3-1.5v2l-3 1.5z"/><path d="m94 103 3-1.5v2l-3 1.5z"/><path d="m90 105 3-1.5v2l-3 1.5z"/><path d="m88 106 1-.5v2l-1 .5z"/><path d="m100 97 3-1.5v2l-3 1.5z"/><path d="m96 99 3-1.5v2l-3 1.5z"/><path d="m92 101 3-1.5v2l-3 1.5z"/><path d="m88 103 3-1.5v2l-3 1.5z"/><path d="m102 93 2-1v2l-2 1z"/><path d="m98 95 3-1.5v2l-3 1.5z"/><path d="m94 97 3-1.5v2l-3 1.5z"/><path d="m90 99 3-1.5v2l-3 1.5z"/><path d="m88 100 1-.5v2l-1 .5z"/><path d="m100 91 3-1.5v2l-3 1.5z"/><path d="m96 93 3-1.5v2l-3 1.5z"/><path d="m92 95 3-1.5v2l-3 1.5z"/><path d="m88 97 3-1.5v2l-3 1.5z"/><path d="m102 87 2-1v2l-2 1z"/><path d="m98 89 3-1.5v2l-3 1.5z"/><path d="m94 91 3-1.5v2l-3 1.5z"/><path d="m90 93 3-1.5v2l-3 1.5z"/><path d="m88 94 1-.5v2l-1 .5z"/><path d="m100 85 3-1.5v2l-3 1.5z"/><path d="m96 87 3-1.5v2l-3 1.5z"/><path d="m92 89 3-1.5v2l-3 1.5z"/><path d="m88 91 3-1.5v2l-3 1.5z"/><path d="m102 81 2-1v2l-2 1z"/><path d="m98 83 3-1.5v2l-3 1.5z"/><path d="m94 85 3-1.5v2l-3 1.5z"/><path d="m90 87 3-1.5v2l-3 1.5z"/><path d="m88 88 1-.5v2l-1 .5z"/><path d="m100 79 3-1.5v2l-3 1.5z"/><path d="m96 81 3-1.5v2l-3 1.5z"/><path d="m92 83 3-1.5v2l-3 1.5z"/><path d="m88 85 3-1.5v2l-3 1.5z"/><path d="m102 75 2-1v2l-2 1z"/><path d="m98 77 3-1.5v2l-3 1.5z"/><path d="m94 79 3-1.5v2l-3 1.5z"/><path d="m90 81 3-1.5v2l-3 1.5z"/><path d="m88 82 1-.5v2l-1 .5z"/><path d="m100 73 3-1.5v2l-3 1.5z"/><path d="m96 75 3-1.5v2l-3 1.5z"/><path d="m92 77 3-1.5v2l-3 1.5z"/><path d="m88 79 3-1.5v2l-3 1.5z"/><path d="m102 69 2-1v2l-2 1z"/><path d="m98 71 3-1.5v2l-3 1.5z"/><path d="m94 73 3-1.5v2l-3 1.5z"/><path d="m90 75 3-1.5v2l-3 1.5z"/><path d="m88 76 1-.5v2l-1 .5z"/><path d="m100 67 3-1.5v2l-3 1.5z"/><path d="m96 69 3-1.5v2l-3 1.5z"/><path d="m92 71 3-1.5v2l-3 1.5z"/><path d="m88 73 3-1.5v2l-3 1.5z"/><path d="m102 63 2-1v2l-2 1z"/><path d="m98 65 3-1.5v2l-3 1.5z"/><path d="m94 67 3-1.5v2l-3 1.5z"/><path d="m90 69 3-1.5v2l-3 1.5z"/><path d="m88 70 1-.5v2l-1 .5z"/><path d="m100 61 3-1.5v2l-3 1.5z"/><path d="m96 63 3-1.5v2l-3 1.5z"/><path d="m92 65 3-1.5v2l-3 1.5z"/><path d="m88 67 3-1.5v2l-3 1.5z"/><path d="m102 57 2-1v2l-2 1z"/><path d="m98 59 3-1.5v2l-3 1.5z"/><path d="m94 61 3-1.5v2l-3 1.5z"/><path d="m90 63 3-1.5v2l-3 1.5z"/><path d="m88 64 1-.5v2l-1 .5z"/><path d="m100 55 3-1.5v2l-3 1.5z"/><path d="m96 57 3-1.5v2l-3 1.5z"/><path d="m92 59 3-1.5v2l-3 1.5z"/><path d="m88 61 3-1.5v2l-3 1.5z"/><path d="m89 54 2-1v2l-3 1.5z"/><path d="m102 51 2-1v2l-2 1z"/><path d="m98 53 3-1.5v2l-3 1.5z"/><path d="m94 55 3-1.5v2l-3 1.5z"/><path d="m90 57 3-1.5v2l-3 1.5z"/><path d="m100 48.5 3-1.5v2l-3 1.5z"/><path d="m96 50.5 3-1.5v2l-3 1.5z"/><path d="m92 52.5 3-1.5v2l-3 1.5z"/><path d="m98 46.5 3-1.5v2l-3 1.5z"/><path d="m94 48.5 3-1.5v2l-3 1.5z"/><path d="m91 50 2-1v2l-3 1.5z"/><path d="m96 44.5 3-1.5v2l-3 1.5z"/><path d="m93 46 2-1v2l-3 1.5z"/><path d="m95 42 2-1v2l-3 1.5z"/><path d="m88 58 1-.5v2l-1 .5z"/></g><g fill="#762c07" opacity=".6"><path d="m88 145 3-1.5v2l-3 1.5z"/><path d="m88 142 1-.5v2l-1 .5z"/><path d="m88 139 3-1.5v2l-3 1.5z"/><path d="m88 136 1-.5v2l-1 .5z"/><path d="m88 133 3-1.5v2l-3 1.5z"/><path d="m88 130 1-.5v2l-1 .5z"/><path d="m88 127 3-1.5v2l-3 1.5z"/><path d="m88 124 1-.5v2l-1 .5z"/><path d="m102 129 2-1v2l-2 1z"/><path d="m102 135 2-1v2l-2 1z"/><path d="m102 117 2-1v2l-2 1z"/><path d="m102 123 2-1v2l-2 1z"/><path d="m102 105 2-1v2l-2 1z"/><path d="m102 111 2-1v2l-2 1z"/><path d="m102 87 2-1v2l-2 1z"/><path d="m102 93 2-1v2l-2 1z"/><path d="m88 121 3-1.5v2l-3 1.5z"/><path d="m100 109 3-1.5v2l-3 1.5z"/><path d="m100 103 3-1.5v2l-3 1.5z"/><path d="m100 97 3-1.5v2l-3 1.5z"/><path d="m100 91 3-1.5v2l-3 1.5z"/><path d="m100 121 3-1.5v2l-3 1.5z"/><path d="m100 115 3-1.5v2l-3 1.5z"/><path d="m100 133 3-1.5v2l-3 1.5z"/><path d="m100 139 3-1.5v2l-3 1.5z"/><path d="m100 127 3-1.5v2l-3 1.5z"/><path d="m88 118 1-.5v2l-1 .5z"/><path d="m88 115 3-1.5v2l-3 1.5z"/><path d="m88 112 1-.5v2l-1 .5z"/><path d="m88 109 3-1.5v2l-3 1.5z"/><path d="m102 99 2-1v2l-2 1z"/><path d="m88 106 1-.5v2l-1 .5z"/><path d="m88 103 3-1.5v2l-3 1.5z"/><path d="m88 100 1-.5v2l-1 .5z"/><path d="m88 97 3-1.5v2l-3 1.5z"/><path d="m88 94 1-.5v2l-1 .5z"/></g><g fill="#762c07" opacity=".6"><path d="m88 91 3-1.5v2l-3 1.5z"/><path d="m88 88 1-.5v2l-1 .5z"/><path d="m88 85 3-1.5v2l-3 1.5z"/><path d="m88 82 1-.5v2l-1 .5z"/><path d="m88 79 3-1.5v2l-3 1.5z"/><path d="m88 76 1-.5v2l-1 .5z"/><path d="m88 73 3-1.5v2l-3 1.5z"/><path d="m88 70 1-.5v2l-1 .5z"/><path d="m102 75 2-1v2l-2 1z"/><path d="m102 81 2-1v2l-2 1z"/><path d="m102 63 2-1v2l-2 1z"/><path d="m102 69 2-1v2l-2 1z"/><path d="m102 51 2-1v2l-2 1z"/><path d="m102 57 2-1v2l-2 1z"/><path d="m88 67 3-1.5v2l-3 1.5z"/><path d="m100 55 3-1.5v2l-3 1.5z"/><path d="m100 67 3-1.5v2l-3 1.5z"/><path d="m100 61 3-1.5v2l-3 1.5z"/><path d="m100 79 3-1.5v2l-3 1.5z"/><path d="m100 85 3-1.5v2l-3 1.5z"/><path d="m100 73 3-1.5v2l-3 1.5z"/><path d="m88 64 1-.5v2l-1 .5z"/><path d="m88 61 3-1.5v2l-3 1.5z"/><path d="m88 58 1-.5v2l-1 .5z"/></g><path d="m95.9 120.6c-3 1.5-4.9 4.5-4.9 7.9v18.1l10-5v-17.8c0-2.7-2.8-4.4-5.1-3.2z" fill="#e5e5e5"/><path d="m96 121.5c-2.5 1.2-4 3.8-4 6.5v18l8-4v-18.1c0-2-2.1-3.3-4-2.4z" fill="#999"/><path d="m99 124.1v16.9l-6 3v-16.4c0-2.2 1.3-4.3 3.3-5.3 1.2-.6 2.7.4 2.7 1.8z" fill="#656565"/><path d="m96.3 122.4c-2 1-3.3 3-3.3 5.3v1c0-2.2 1.3-4.3 3.3-5.3 1.3-.6 2.7.3 2.7 1.7v-1c0-1.4-1.5-2.4-2.7-1.7z" opacity=".5"/><path d="m96 40-8 16v2l8-16 8 8v-2z" fill="#e5e5e5"/><path d="m95.9 94.6.2-.1c1.6-.8 2.9-.2 2.9 1.4v14.1l-6 3v-14.1c0-1.6 1.3-3.5 2.9-4.3z" fill="#e5e5e5"/><path d="m98 98.5v-2c0-1.1-.9-1.6-2-1s-2 1.9-2 3v2z" fill="#656565"/><path d="m96 95.5c-1.1.6-2 1.9-2 3v1c0-1.1.9-2.4 2-3s2-.1 2 1v-1c0-1.1-.9-1.6-2-1z" opacity=".5"/><path d="m94 101.5v10l4-2v-10z" fill="#656565"/><path d="m98 100.5-4 2v-1l4-2z" opacity=".5"/><path d="m98 99.5-4 2v-1l4-2z" fill="#e5e5e5"/><path d="m95.9 54.4.2-.1c1.6-.8 2.9-.2 2.9 1.4v9.3l-6 3v-9.2c0-1.6 1.3-3.6 2.9-4.4z" fill="#e5e5e5"/><path d="m98 58.4v-2c0-1.1-.9-1.6-2-1s-2 1.9-2 3v2z" fill="#656565"/><path d="m96 55.4c-1.1.6-2 1.9-2 3v1c0-1.1.9-2.4 2-3s2-.1 2 1v-1c0-1.1-.9-1.6-2-1z" opacity=".5"/><path d="m94 61.4v5.1l4-2v-5.1z" fill="#656565"/><path d="m98 60.4-4 2v-1l4-2z" opacity=".5"/><path d="m98 59.4-4 2v-1l4-2z" fill="#e5e5e5"/><path d="m99 128-2 1v-3l-2 1v3l-2 1v2l2-1v9l2-1v-9l2-1z" opacity=".5"/><path d="m101 77.1c0 2.8-2.2 6.1-5 7.5s-5 .3-5-2.5 2.2-6.1 5-7.5 5-.3 5 2.5z" fill="#e5e5e5"/><path d="m100 77.6c0 2.2-1.8 4.9-4 6s-4 .2-4-2 1.8-4.9 4-6 4-.2 4 2z" fill="#656565"/><path d="m96 76.6c2-1 3.7-.3 3.9 1.5 0-.2.1-.4.1-.5 0-2.2-1.8-3.1-4-2s-4 3.8-4 6c0 .2 0 .3.1.5.2-2.1 1.9-4.5 3.9-5.5z" opacity=".5"/><path d="m100.5 77.2-4.2 2.1 3-4.4-.2-.1-3 4.4v-4.2l-.2.2v4.1l-3-1.4-.2.2 3 1.5-4.2 2.1v.3l4.2-2.1-3 4.4.2.1 3-4.4v4.2l.2-.2v-4.1l3 1.4.2-.3-3-1.4 4.2-2.1z" fill="#e5e5e5"/><path d="m104 140-16 8v-92l8-16 8 8z" opacity=".29"/><path d="m92 8-2-1v-1l-2-1-2 1v3l-2 1v2l2 1v7l2 1 2-1v-9l2-1z" fill="#e5e5e5"/><path d="m92 8-2 1v-3l-2 1v3l-2 1v2l2-1v9l2-1v-9l2-1z" opacity=".29"/><path d="m86 11v2l-2-1v-2z" opacity=".11"/><path d="m88 7v3l-2-1v-3z" opacity=".11"/><path d="m88 12v9l-2-1v-7z" opacity=".11"/></svg>