<svg viewBox="0 0 128 104" xmlns="http://www.w3.org/2000/svg"><path d="m64 40 64 32-64 32-64-32z" fill="#9c3"/><path d="m64 40 64 32-64 32-64-32z" fill="#9c3"/><path d="m64 40 64 32-64 32-64-32z" fill="#9c3"/><path d="m64 40 64 32-64 32-64-32z" fill="#9c3"/><path d="m64 49-16 8 16 8 16-8z" fill="#9c3"/><path d="m64 49-16 8 16 8 16-8z" fill="#9c3"/><ellipse cx="64.5" cy="56" opacity=".3" rx="7.5" ry="4"/><path d="m66 29v27c0 .6-.7 1-1.5 1s-1.5-.4-1.5-1v-27z" fill="#825012"/><circle cx="72.5" cy="26.5" fill="#539b00" r="6.5"/><circle cx="67" cy="17" fill="#539b00" r="9"/><path d="m64 44.4c-2.6 0-3-.9-3-3.4v-8h-1v10c0 1.7 1.3 3 3 3h1z" fill="#825012"/><path d="m65 44.8c1.7 0 3-.4 3-2.1v-9.7h1v10c0 1.7-1.3 3-3 3h-1z" fill="#825012"/><circle cx="60.5" cy="33.5" fill="#539b00" r="7.5"/><circle cx="56" cy="30" fill="#539b00" r="6"/><circle cx="57" cy="21" fill="#539b00" r="8"/><circle cx="63" cy="12" fill="#539b00" r="8"/><path d="m62.5 18c-2.2 0-4.1 1.3-4.9 3.1-.4-.1-.7-.1-1.1-.1-1.8 0-3.4.9-4.4 2.2.4-1.8 2-3.2 3.9-3.2h.1c.5-2.3 2.5-4 4.9-4 2 0 3.7 1.2 4.5 2.9-.8-.6-1.9-.9-3-.9z" fill="#fff" opacity=".2"/><circle cx="74" cy="19.4" fill="#539b00" r="3.6"/><path d="m73 18.5c0-2.5-1.7-4.6-4-5.3-.2-2.9-2.6-5.2-5.5-5.2-1.7 0-3.3.8-4.3 2.1.6-2.4 2.8-4.1 5.3-4.1 2.9 0 5.3 2.2 5.5 5.1 2.3.5 4 2.5 4 4.9 0 1.1-.4 2.2-1 3 0-.2 0-.3 0-.5z" fill="#fff" opacity=".2"/><circle cx="67.8" cy="33.8" fill="#539b00" r="9.3"/><circle cx="54.8" cy="26.8" fill="#539b00" r="3.3"/><path d="m50 30c0-.4 0-.8.1-1.2.6 3.8 3.9 6.7 7.9 6.7h.4c-.7.3-1.5.5-2.4.5-.7 0-1.3-.1-1.9-.3 1.4 1.4 3.3 2.3 5.4 2.3 1 0 2-.2 2.9-.6 1.6 1.6 3.9 2.6 6.4 2.6 3.5 0 6.6-2 8.1-4.8-.7 4.4-4.5 7.8-9.1 7.8-2.2 0-4.3-.8-5.9-2.1-.5.1-.9.1-1.4.1-3.5 0-6.5-2.4-7.3-5.7-1.9-1-3.2-3-3.2-5.3z" opacity=".3"/><path d="m69.5 28c-.8 0-1.5.1-2.2.4-.9-1.4-2.5-2.4-4.3-2.4-1 0-1.9.3-2.7.8.7-1.6 2.3-2.8 4.2-2.8 1.6 0 3 .8 3.8 2h.7c2.9 0 5.4 2.1 5.9 4.9-1.2-1.8-3.2-2.9-5.4-2.9z" fill="#fff" opacity=".2"/><path d="m75 29.5c1.9-.8 3.4-2.4 3.9-4.5.1.5.2 1 .2 1.5 0 2.4-1.3 4.4-3.2 5.6-.2-.9-.5-1.8-.9-2.6z" opacity=".3"/><g fill="#fc0"><path d="m59.6 25.3c.1-.8.5-1.3.9-1.3s.8.5.9 1.3c.4.3.6.7.6 1.2 0 .8-.7 1.5-1.5 1.5s-1.5-.7-1.5-1.5c0-.5.2-.9.6-1.2z"/><path d="m68.6 18.3c.1-.8.5-1.3.9-1.3s.8.5.9 1.3c.4.3.6.7.6 1.2 0 .8-.7 1.5-1.5 1.5s-1.5-.7-1.5-1.5c0-.5.2-.9.6-1.2z"/><path d="m66.6 10.3c.1-.8.5-1.3.9-1.3s.8.5.9 1.3c.4.3.6.7.6 1.2 0 .8-.7 1.5-1.5 1.5s-1.5-.7-1.5-1.5c0-.5.2-.9.6-1.2z"/><path d="m59.6 12.3c.1-.8.5-1.3.9-1.3s.8.5.9 1.3c.4.3.6.7.6 1.2 0 .8-.7 1.5-1.5 1.5s-1.5-.7-1.5-1.5c0-.5.2-.9.6-1.2z"/><path d="m61.6 18.3c.1-.8.5-1.3.9-1.3s.8.5.9 1.3c.4.3.6.7.6 1.2 0 .8-.7 1.5-1.5 1.5s-1.5-.7-1.5-1.5c0-.5.2-.9.6-1.2z"/><path d="m53.6 21.3c.1-.8.5-1.3.9-1.3s.8.5.9 1.3c.4.3.6.7.6 1.2 0 .8-.7 1.5-1.5 1.5s-1.5-.7-1.5-1.5c0-.5.2-.9.6-1.2z"/><path d="m56.6 30.3c.1-.8.5-1.3.9-1.3s.8.5.9 1.3c.4.3.6.7.6 1.2 0 .8-.7 1.5-1.5 1.5s-1.5-.7-1.5-1.5c0-.5.2-.9.6-1.2z"/><path d="m62.6 34.3c.1-.8.5-1.3.9-1.3s.8.5.9 1.3c.4.3.6.7.6 1.2 0 .8-.7 1.5-1.5 1.5s-1.5-.7-1.5-1.5c0-.5.2-.9.6-1.2z"/><path d="m65.6 28.3c.1-.8.5-1.3.9-1.3s.8.5.9 1.3c.4.3.6.7.6 1.2 0 .8-.7 1.5-1.5 1.5s-1.5-.7-1.5-1.5c0-.5.2-.9.6-1.2z"/><path d="m72.6 24.3c.1-.8.5-1.3.9-1.3s.8.5.9 1.3c.4.3.6.7.6 1.2 0 .8-.7 1.5-1.5 1.5s-1.5-.7-1.5-1.5c0-.5.2-.9.6-1.2z"/><path d="m69.6 32.3c.1-.8.5-1.3.9-1.3s.8.5.9 1.3c.4.3.6.7.6 1.2 0 .8-.7 1.5-1.5 1.5s-1.5-.7-1.5-1.5c0-.5.2-.9.6-1.2z"/></g><ellipse cx="95.5" cy="72" opacity=".3" rx="7.5" ry="4"/><path d="m94 45v27c0 .6.7 1 1.5 1s1.5-.4 1.5-1v-27z" fill="#825012"/><circle cx="87.5" cy="42.5" fill="#539b00" r="6.5"/><circle cx="93" cy="33" fill="#539b00" r="9"/><path d="m96 60.4c2.6 0 3-.9 3-3.4v-8h1v10c0 1.7-1.3 3-3 3h-1z" fill="#825012"/><path d="m95 60.8c-1.7 0-3-.4-3-2.1v-9.7h-1v10c0 1.7 1.3 3 3 3h1z" fill="#825012"/><circle cx="99.5" cy="49.5" fill="#539b00" r="7.5"/><circle cx="104" cy="46" fill="#539b00" r="6"/><circle cx="101" cy="35" fill="#539b00" r="8"/><circle cx="96" cy="26" fill="#539b00" r="8"/><path d="m97.5 34c2.2 0 4.1 1.3 4.9 3.1.3-.1.7-.1 1.1-.1 1.8 0 3.4.9 4.4 2.2-.4-1.8-2-3.2-3.9-3.2h-.1c-.5-2.3-2.5-4-4.9-4-2 0-3.7 1.2-4.5 2.9.8-.6 1.9-.9 3-.9z" fill="#fff" opacity=".2"/><circle cx="86" cy="35.4" fill="#539b00" r="3.6"/><path d="m87 34.5c0-2.5 1.7-4.6 4-5.3.2-2.9 2.5-5.2 5.5-5.2 1.7 0 3.3.8 4.3 2.1-.6-2.4-2.8-4.1-5.3-4.1-2.9 0-5.3 2.2-5.5 5.1-2.3.5-4 2.5-4 4.9 0 1.1.4 2.2 1 3 0-.2 0-.3 0-.5z" fill="#fff" opacity=".2"/><circle cx="92.3" cy="49.8" fill="#539b00" r="9.3"/><circle cx="105.3" cy="42.8" fill="#539b00" r="3.3"/><path d="m110 46c0-.4 0-.8-.1-1.2-.6 3.8-3.9 6.7-7.9 6.7-.1 0-.3 0-.4 0 .7.3 1.6.5 2.4.5.7 0 1.3-.1 1.9-.3-1.4 1.4-3.3 2.3-5.4 2.3-1 0-2-.2-2.9-.6-1.6 1.6-3.9 2.6-6.3 2.6-3.5 0-6.6-2-8.1-4.8.7 4.4 4.5 7.8 9.1 7.8 2.2 0 4.3-.8 5.9-2.1.4.1.8.1 1.3.1 3.5 0 6.5-2.4 7.3-5.7 1.9-1 3.2-3 3.2-5.3z" opacity=".3"/><path d="m90.5 44c.8 0 1.5.1 2.2.4.9-1.4 2.5-2.4 4.3-2.4 1 0 1.9.3 2.7.8-.7-1.7-2.3-2.8-4.2-2.8-1.6 0-3 .8-3.8 2-.2 0-.5 0-.7 0-2.9 0-5.4 2.1-5.9 4.9 1.2-1.8 3.2-2.9 5.4-2.9z" fill="#fff" opacity=".2"/><path d="m85 45.5c-1.9-.8-3.4-2.4-3.9-4.5-.1.5-.2 1-.2 1.5 0 2.4 1.3 4.4 3.2 5.6.2-.9.5-1.8.9-2.6z" opacity=".3"/><path d="m100.4 41.3c-.1-.8-.5-1.3-.9-1.3s-.8.5-.9 1.3c-.4.3-.6.7-.6 1.2 0 .8.7 1.5 1.5 1.5s1.5-.7 1.5-1.5c0-.5-.2-.9-.6-1.2z" fill="#fc0"/><path d="m91.4 34.3c-.1-.8-.5-1.3-.9-1.3s-.8.5-.9 1.3c-.4.3-.6.7-.6 1.2 0 .8.7 1.5 1.5 1.5s1.5-.7 1.5-1.5c0-.5-.2-.9-.6-1.2z" fill="#fc0"/><path d="m95.4 24.3c-.1-.8-.5-1.3-.9-1.3s-.8.5-.9 1.3c-.4.3-.6.7-.6 1.2 0 .8.7 1.5 1.5 1.5s1.5-.7 1.5-1.5c0-.5-.2-.9-.6-1.2z" fill="#fc0"/><path d="m101.4 28.3c-.1-.8-.5-1.3-.9-1.3s-.8.5-.9 1.3c-.4.3-.6.7-.6 1.2 0 .8.7 1.5 1.5 1.5s1.5-.7 1.5-1.5c0-.5-.2-.9-.6-1.2z" fill="#fc0"/><path d="m96.4 32.3c-.1-.8-.5-1.3-.9-1.3s-.8.5-.9 1.3c-.4.3-.6.7-.6 1.2 0 .8.7 1.5 1.5 1.5s1.5-.7 1.5-1.5c0-.5-.2-.9-.6-1.2z" fill="#fc0"/><path d="m106.4 37.3c-.1-.8-.5-1.3-.9-1.3s-.8.5-.9 1.3c-.4.3-.6.7-.6 1.2 0 .8.7 1.5 1.5 1.5s1.5-.7 1.5-1.5c0-.5-.2-.9-.6-1.2z" fill="#fc0"/><path d="m104.4 45.3c-.1-.8-.5-1.3-.9-1.3s-.8.5-.9 1.3c-.4.3-.6.7-.6 1.2 0 .8.7 1.5 1.5 1.5s1.5-.7 1.5-1.5c0-.5-.2-.9-.6-1.2z" fill="#fc0"/><path d="m97.4 50.3c-.1-.8-.5-1.3-.9-1.3s-.8.5-.9 1.3c-.4.3-.6.7-.6 1.2 0 .8.7 1.5 1.5 1.5s1.5-.7 1.5-1.5c0-.5-.2-.9-.6-1.2z" fill="#fc0"/><path d="m94.4 40.3c-.1-.8-.5-1.3-.9-1.3s-.8.5-.9 1.3c-.4.3-.6.7-.6 1.2 0 .8.7 1.5 1.5 1.5s1.5-.7 1.5-1.5c0-.5-.2-.9-.6-1.2z" fill="#fc0"/><path d="m87.4 40.3c-.1-.8-.5-1.3-.9-1.3s-.8.5-.9 1.3c-.4.3-.6.7-.6 1.2 0 .8.7 1.5 1.5 1.5s1.5-.7 1.5-1.5c0-.5-.2-.9-.6-1.2z" fill="#fc0"/><path d="m90.4 48.3c-.1-.8-.5-1.3-.9-1.3s-.8.5-.9 1.3c-.4.3-.6.7-.6 1.2 0 .8.7 1.5 1.5 1.5s1.5-.7 1.5-1.5c0-.5-.2-.9-.6-1.2z" fill="#fc0"/><ellipse cx="31.5" cy="72" opacity=".3" rx="7.5" ry="4"/><path d="m30 45v27c0 .6.7 1 1.5 1s1.5-.4 1.5-1v-27z" fill="#825012"/><circle cx="23.5" cy="42.5" fill="#539b00" r="6.5"/><circle cx="27" cy="33" fill="#539b00" r="9"/><path d="m32 60.4c2.6 0 3-.9 3-3.4v-8h1v10c0 1.7-1.3 3-3 3h-1z" fill="#825012"/><path d="m31 60.8c-1.7 0-3-.4-3-2.1v-9.7h-1v10c0 1.7 1.3 3 3 3h1z" fill="#825012"/><circle cx="35.5" cy="49.5" fill="#539b00" r="7.5"/><circle cx="40" cy="46" fill="#539b00" r="6"/><circle cx="36" cy="35" fill="#539b00" r="8"/><circle cx="29" cy="27" fill="#539b00" r="8"/><path d="m30.5 33c2.2 0 4.1 1.3 4.9 3.1.3-.1.7-.1 1.1-.1 1.8 0 3.4.9 4.4 2.2-.4-1.8-2-3.2-3.9-3.2h-.1c-.5-2.3-2.5-4-4.9-4-2 0-3.7 1.2-4.5 2.9.8-.6 1.9-.9 3-.9z" fill="#fff" opacity=".2"/><circle cx="21" cy="35.4" fill="#539b00" r="3.6"/><path d="m21 35.5c0-2.5 1.7-4.6 4-5.3.2-2.9 2.5-5.2 5.5-5.2 1.7 0 3.3.8 4.3 2.1-.6-2.4-2.8-4.1-5.3-4.1-2.9 0-5.3 2.2-5.5 5.1-2.3.5-4 2.5-4 4.9 0 1.1.4 2.2 1 3 0-.2 0-.3 0-.5z" fill="#fff" opacity=".2"/><circle cx="28.3" cy="49.8" fill="#539b00" r="9.3"/><circle cx="41.3" cy="42.8" fill="#539b00" r="3.3"/><path d="m46 46c0-.4 0-.8-.1-1.2-.6 3.8-3.9 6.7-7.9 6.7-.1 0-.3 0-.4 0 .7.3 1.6.5 2.4.5.7 0 1.3-.1 1.9-.3-1.4 1.4-3.3 2.3-5.4 2.3-1 0-2-.2-2.9-.6-1.6 1.6-3.9 2.6-6.3 2.6-3.5 0-6.6-2-8.1-4.8.7 4.4 4.5 7.8 9.1 7.8 2.2 0 4.3-.8 5.9-2.1.4.1.8.1 1.3.1 3.5 0 6.5-2.4 7.3-5.7 1.9-1 3.2-3 3.2-5.3z" opacity=".3"/><path d="m26.5 44c.8 0 1.5.1 2.2.4.9-1.4 2.5-2.4 4.3-2.4 1 0 1.9.3 2.7.8-.7-1.7-2.3-2.8-4.2-2.8-1.6 0-3 .8-3.8 2-.2 0-.5 0-.7 0-2.9 0-5.4 2.1-5.9 4.9 1.2-1.8 3.2-2.9 5.4-2.9z" fill="#fff" opacity=".2"/><path d="m21 45.5c-1.9-.8-3.4-2.4-3.9-4.5-.1.5-.2 1-.2 1.5 0 2.4 1.3 4.4 3.2 5.6.2-.9.5-1.8.9-2.6z" opacity=".3"/><path d="m38.4 39.3c-.1-.8-.5-1.3-.9-1.3s-.8.5-.9 1.3c-.4.3-.6.7-.6 1.2 0 .8.7 1.5 1.5 1.5s1.5-.7 1.5-1.5c0-.5-.2-.9-.6-1.2z" fill="#fc0"/><path d="m27.4 34.3c-.1-.8-.5-1.3-.9-1.3s-.8.5-.9 1.3c-.4.3-.6.7-.6 1.2 0 .8.7 1.5 1.5 1.5s1.5-.7 1.5-1.5c0-.5-.2-.9-.6-1.2z" fill="#fc0"/><path d="m27.4 25.3c-.1-.8-.5-1.3-.9-1.3s-.8.5-.9 1.3c-.4.3-.6.7-.6 1.2 0 .8.7 1.5 1.5 1.5s1.5-.7 1.5-1.5c0-.5-.2-.9-.6-1.2z" fill="#fc0"/><path d="m35.4 28.3c-.1-.8-.5-1.3-.9-1.3s-.8.5-.9 1.3c-.4.3-.6.7-.6 1.2 0 .8.7 1.5 1.5 1.5s1.5-.7 1.5-1.5c0-.5-.2-.9-.6-1.2z" fill="#fc0"/><path d="m34.4 34.3c-.1-.8-.5-1.3-.9-1.3s-.8.5-.9 1.3c-.4.3-.6.7-.6 1.2 0 .8.7 1.5 1.5 1.5s1.5-.7 1.5-1.5c0-.5-.2-.9-.6-1.2z" fill="#fc0"/><path d="m39.4 32.3c-.1-.8-.5-1.3-.9-1.3s-.8.5-.9 1.3c-.4.3-.6.7-.6 1.2 0 .8.7 1.5 1.5 1.5s1.5-.7 1.5-1.5c0-.5-.2-.9-.6-1.2z" fill="#fc0"/><path d="m39.4 46.3c-.1-.8-.5-1.3-.9-1.3s-.8.5-.9 1.3c-.4.3-.6.7-.6 1.2 0 .8.7 1.5 1.5 1.5s1.5-.7 1.5-1.5c0-.5-.2-.9-.6-1.2z" fill="#fc0"/><path d="m33.4 50.3c-.1-.8-.5-1.3-.9-1.3s-.8.5-.9 1.3c-.4.3-.6.7-.6 1.2 0 .8.7 1.5 1.5 1.5s1.5-.7 1.5-1.5c0-.5-.2-.9-.6-1.2z" fill="#fc0"/><path d="m30.4 44.3c-.1-.8-.5-1.3-.9-1.3s-.8.5-.9 1.3c-.4.3-.6.7-.6 1.2 0 .8.7 1.5 1.5 1.5s1.5-.7 1.5-1.5c0-.5-.2-.9-.6-1.2z" fill="#fc0"/><path d="m23.4 40.3c-.1-.8-.5-1.3-.9-1.3s-.8.5-.9 1.3c-.4.3-.6.7-.6 1.2 0 .8.7 1.5 1.5 1.5s1.5-.7 1.5-1.5c0-.5-.2-.9-.6-1.2z" fill="#fc0"/><path d="m26.4 48.3c-.1-.8-.5-1.3-.9-1.3s-.8.5-.9 1.3c-.4.3-.6.7-.6 1.2 0 .8.7 1.5 1.5 1.5s1.5-.7 1.5-1.5c0-.5-.2-.9-.6-1.2z" fill="#fc0"/><ellipse cx="63.5" cy="88" opacity=".3" rx="7.5" ry="4"/><path d="m62 61v27c0 .6.7 1 1.5 1s1.5-.4 1.5-1v-27z" fill="#825012"/><circle cx="55.5" cy="58.5" fill="#539b00" r="6.5"/><circle cx="61" cy="49" fill="#539b00" r="9"/><path d="m64 76.4c2.6 0 3-.9 3-3.4v-8h1v10c0 1.7-1.3 3-3 3h-1z" fill="#825012"/><path d="m63 76.8c-1.7 0-3-.4-3-2.1v-9.7h-1v10c0 1.7 1.3 3 3 3h1z" fill="#825012"/><circle cx="67.5" cy="65.5" fill="#539b00" r="7.5"/><circle cx="72" cy="62" fill="#539b00" r="6"/><circle cx="71" cy="53" fill="#539b00" r="8"/><circle cx="65" cy="44" fill="#539b00" r="8"/><path d="m65.5 50c2.2 0 4.1 1.3 4.9 3.1.3-.1.7-.1 1.1-.1 1.8 0 3.4.9 4.4 2.2-.4-1.8-2-3.2-3.9-3.2h-.1c-.5-2.3-2.5-4-4.9-4-2 0-3.7 1.2-4.5 2.9.8-.6 1.9-.9 3-.9z" fill="#fff" opacity=".2"/><circle cx="54" cy="51.4" fill="#539b00" r="3.6"/><path d="m55 50.5c0-2.5 1.7-4.6 4-5.3.2-2.9 2.5-5.2 5.5-5.2 1.7 0 3.3.8 4.3 2.1-.6-2.4-2.8-4.1-5.3-4.1-2.9 0-5.3 2.2-5.5 5.1-2.3.5-4 2.5-4 4.9 0 1.1.4 2.2 1 3 0-.2 0-.3 0-.5z" fill="#fff" opacity=".2"/><circle cx="60.3" cy="65.8" fill="#539b00" r="9.3"/><circle cx="73.3" cy="58.8" fill="#539b00" r="3.3"/><path d="m78 62c0-.4 0-.8-.1-1.2-.6 3.8-3.9 6.7-7.9 6.7-.1 0-.3 0-.4 0 .7.3 1.6.5 2.4.5.7 0 1.3-.1 1.9-.3-1.4 1.4-3.3 2.3-5.4 2.3-1 0-2-.2-2.9-.6-1.6 1.6-3.9 2.6-6.3 2.6-3.5 0-6.6-2-8.1-4.8.7 4.4 4.5 7.8 9.1 7.8 2.2 0 4.3-.8 5.9-2.1.4.1.8.1 1.3.1 3.5 0 6.5-2.4 7.3-5.7 1.9-1 3.2-3 3.2-5.3z" opacity=".3"/><path d="m58.5 60c.8 0 1.5.1 2.2.4.9-1.4 2.5-2.4 4.3-2.4 1 0 1.9.3 2.7.8-.7-1.7-2.3-2.8-4.2-2.8-1.6 0-3 .8-3.8 2-.2 0-.5 0-.7 0-2.9 0-5.4 2.1-5.9 4.9 1.2-1.8 3.2-2.9 5.4-2.9z" fill="#fff" opacity=".2"/><path d="m53 61.5c-1.9-.8-3.4-2.4-3.9-4.5-.1.5-.2 1-.2 1.5 0 2.4 1.3 4.4 3.2 5.6.2-.9.5-1.8.9-2.6z" opacity=".3"/><path d="m68.4 57.3c-.1-.8-.5-1.3-.9-1.3s-.8.5-.9 1.3c-.4.3-.6.7-.6 1.2 0 .8.7 1.5 1.5 1.5s1.5-.7 1.5-1.5c0-.5-.2-.9-.6-1.2z" fill="#fc0"/><path d="m59.4 50.3c-.1-.8-.5-1.3-.9-1.3s-.8.5-.9 1.3c-.4.3-.6.7-.6 1.2 0 .8.7 1.5 1.5 1.5s1.5-.7 1.5-1.5c0-.5-.2-.9-.6-1.2z" fill="#fc0"/><path d="m61.4 42.3c-.1-.8-.5-1.3-.9-1.3s-.8.5-.9 1.3c-.4.3-.6.7-.6 1.2 0 .8.7 1.5 1.5 1.5s1.5-.7 1.5-1.5c0-.5-.2-.9-.6-1.2z" fill="#fc0"/><path d="m68.4 44.3c-.1-.8-.5-1.3-.9-1.3s-.8.5-.9 1.3c-.4.3-.6.7-.6 1.2 0 .8.7 1.5 1.5 1.5s1.5-.7 1.5-1.5c0-.5-.2-.9-.6-1.2z" fill="#fc0"/><path d="m66.4 50.3c-.1-.8-.5-1.3-.9-1.3s-.8.5-.9 1.3c-.4.3-.6.7-.6 1.2 0 .8.7 1.5 1.5 1.5s1.5-.7 1.5-1.5c0-.5-.2-.9-.6-1.2z" fill="#fc0"/><path d="m74.4 53.3c-.1-.8-.5-1.3-.9-1.3s-.8.5-.9 1.3c-.4.3-.6.7-.6 1.2 0 .8.7 1.5 1.5 1.5s1.5-.7 1.5-1.5c0-.5-.2-.9-.6-1.2z" fill="#fc0"/><path d="m71.4 62.3c-.1-.8-.5-1.3-.9-1.3s-.8.5-.9 1.3c-.4.3-.6.7-.6 1.2 0 .8.7 1.5 1.5 1.5s1.5-.7 1.5-1.5c0-.5-.2-.9-.6-1.2z" fill="#fc0"/><path d="m65.4 66.3c-.1-.8-.5-1.3-.9-1.3s-.8.5-.9 1.3c-.4.3-.6.7-.6 1.2 0 .8.7 1.5 1.5 1.5s1.5-.7 1.5-1.5c0-.5-.2-.9-.6-1.2z" fill="#fc0"/><path d="m62.4 60.3c-.1-.8-.5-1.3-.9-1.3s-.8.5-.9 1.3c-.4.3-.6.7-.6 1.2 0 .8.7 1.5 1.5 1.5s1.5-.7 1.5-1.5c0-.5-.2-.9-.6-1.2z" fill="#fc0"/><path d="m55.4 56.3c-.1-.8-.5-1.3-.9-1.3s-.8.5-.9 1.3c-.4.3-.6.7-.6 1.2 0 .8.7 1.5 1.5 1.5s1.5-.7 1.5-1.5c0-.5-.2-.9-.6-1.2z" fill="#fc0"/><path d="m58.4 64.3c-.1-.8-.5-1.3-.9-1.3s-.8.5-.9 1.3c-.4.3-.6.7-.6 1.2 0 .8.7 1.5 1.5 1.5s1.5-.7 1.5-1.5c0-.5-.2-.9-.6-1.2z" fill="#fc0"/></svg>