<svg viewBox="0 0 48 40" xmlns="http://www.w3.org/2000/svg"><path d="m2 28 14-7 24 12-14 7z" opacity=".3"/><path d="m21.5 30.8c-.7-.4-1.4-.4-1.9-.2l-1.4.7c-.5.2-.9.8-.9 1.6 0 1.5 1.3 3.4 2.8 4.2.8.4 1.5.4 2 .2 0 0 1.4-.7 1.5-.8.5-.3.7-.8.7-1.5 0-1.6-1.3-3.5-2.8-4.2z" fill="#2d3134"/><path d="m22 37.2c.2-.1 1.4-.7 1.5-.7.5-.3.7-.8.7-1.5 0-.6-.2-1.3-.5-1.9l-1.4.7c.3.6.5 1.3.5 1.9.1.7-.3 1.3-.8 1.5z" opacity=".39"/><path d="m22.1 35.3c0 1.2-.9 1.6-2.1 1s-2.1-2-2.1-3.2.9-1.6 2.1-1 2.1 2 2.1 3.2z" fill="#999"/><path d="m20.2 36.3c-1.2-.6-2.1-2-2.1-3.2 0-.6.2-1 .6-1.2-.5.1-.8.6-.8 1.2 0 1.2.9 2.6 2.1 3.2.6.3 1.1.3 1.5.1-.3.2-.8.1-1.3-.1z" fill="#808285"/><path d="m21.1 34.6c0 .5-.4.7-.9.4s-.9-.8-.9-1.3.4-.7.9-.4.9.8.9 1.3z" fill="#2d3134"/><path d="m21.1 34.6c0 .5-.4.7-.9.4s-.9-.8-.9-1.3.4-.7.9-.4.9.8.9 1.3z" opacity=".39"/><path d="m20.9 34.7c0 .5-.4.7-.9.4-.5-.2-.9-.8-.9-1.3s.4-.7.9-.4c.5.2.9.8.9 1.3z" fill="#2d3134"/><path d="m22.9 35.7c0 1.5-1.3 2.2-2.8 1.4s-2.8-2.7-2.8-4.2 1.3-2.2 2.8-1.4c1.5.7 2.8 2.6 2.8 4.2z" opacity=".06"/><path d="m22.5 32.9v3.8l2.5-1.3v-3.7z" fill="#2d3134"/><path d="m22.5 32.9v3.8l2.5-1.3v-3.7z" opacity=".06"/><path d="m7.4 23.8c-.7-.4-1.4-.4-1.9-.2l-1.4.7c-.5.2-.9.8-.9 1.6 0 1.5 1.3 3.4 2.8 4.2.8.4 1.5.4 2 .2 0 0 1.4-.7 1.5-.8.5-.3.7-.8.7-1.5.1-1.6-1.2-3.5-2.8-4.2z" fill="#2d3134"/><path d="m8 30.2c.2-.1 1.4-.7 1.5-.7.5-.3.7-.8.7-1.5 0-.6-.2-1.3-.5-1.9l-1.4.7c.3.6.5 1.3.5 1.9.1.7-.3 1.3-.8 1.5z" opacity=".39"/><path d="m8.1 28.3c0 1.2-.9 1.6-2.1 1s-2-1.9-2-3.1.9-1.6 2.1-1c1.1.5 2 1.9 2 3.1z" fill="#999"/><path d="m6.2 29.3c-1.2-.6-2.1-2-2.1-3.2 0-.6.2-1 .6-1.2-.4.2-.7.6-.7 1.3 0 1.2.9 2.6 2.1 3.2.6.3 1.1.3 1.5.1-.4.1-.9 0-1.4-.2z" fill="#808285"/><path d="m7.1 27.6c0 .5-.4.7-.9.4s-.9-.8-.9-1.3.4-.7.9-.4.9.8.9 1.3z" fill="#2d3134"/><path d="m7.1 27.6c0 .5-.4.7-.9.4s-.9-.8-.9-1.3.4-.7.9-.4.9.8.9 1.3z" opacity=".39"/><path d="m6.9 27.7c0 .5-.4.7-.9.4s-.9-.8-.9-1.3.4-.7.9-.4.9.8.9 1.3z" fill="#2d3134"/><path d="m8.9 28.7c0 1.5-1.3 2.2-2.8 1.4s-2.8-2.7-2.8-4.2 1.3-2.2 2.8-1.4c1.5.7 2.8 2.6 2.8 4.2z" opacity=".06"/><path d="m8.5 25.9v3.8l2.5-1.3v-3.7z" fill="#2d3134"/><path d="m8.5 25.9v3.8l2.5-1.3v-3.7z" opacity=".06"/><path d="m40 26v2l-14 7v-2z" fill="#2d3134"/><path d="m2 21v2l24 12v-2z" fill="#2d3134"/><path d="m16 6-14 7v8l24 12 14-7v-8z" fill="#28896d"/><path d="m30 22-14-7v-8l22 11z" opacity=".06"/><path d="m12 17 4-2v-8l-12 6z" opacity=".39"/><path d="m26 35-24-12v-10l24 12z" opacity=".06"/><path d="m40 18-14 7v10l14-7z" opacity=".39"/><path d="m16 6-14 7 24 12 14-7zm10 18-22-11 12-6 22 11z" fill="#28896d"/><path d="m12 17 14 7 4-2-14-7z" fill="#fff" opacity=".1"/><path d="m36 28-6 3v1l14 5 2-1v-1zm-2.8 3.4 2.8-1.4 5.6 4.2z" fill="#28896d"/><path d="m36 30 8 6v-1l-8-6-4 2v1z" fill="#28896d"/><path d="m30 31v1l14 5v-1z" opacity=".06"/><path d="m44 37 2-1v-1l-2 1z" opacity=".39"/><path d="m36 30 5.6 4.2 2.4.8-8-6z" opacity=".06"/><path d="m32 31 1.2.4 2.8-1.4v-1z" opacity=".39"/><path d="m16 11-8 4 18 9 8-4z" fill="#fc0"/></svg>