<svg viewBox="0 0 160 240" xmlns="http://www.w3.org/2000/svg"><path d="m102.9 230.1c-18.1 11.2-24.4-.8-37.6-6.2-15.2-6.3-27-7.8-19.3-16.8s18.2-12.6 31.1-2.8c9.5 7.3 50.5 10.6 25.8 25.8z" opacity=".2"/><path d="m52.2 99.6s1.1 3.3 3.1 4.2 6.5 2.3 8.4 2.3 5.1-4.9 3.4-6.1-7.8-3.4-9.6-3.8c-1.7-.4-2.3-1.5-2.3-1.5z" fill="#fbd7c7"/><path d="m59.4 200.2c3.2-1.1 7.8-2.8 9.9 0 2.2 2.8 1.3 5.7-.4 7-1.6 1.2-5 3.1-6.9 3.7s-3.1.8-3.1.8l.4 1.5s-4.2 2.4-8.4 2.7-5.5-1.1-5.4-3.4 0-8 0-8z" fill="#825012"/><path d="m59.1 211.6s1.1-.1 3.1-.8c1.9-.6 5.2-2.5 6.9-3.7 1.4-1 2.2-3.2 1.3-5.5-.3 2.5-1.6 3.7-3.1 4.7-3.3 2.3-10.4 5.5-14.2 6-2.5.3-6 0-7.2-1.2v1.2c-.1 2.3 1.1 3.7 5.4 3.4s8.4-2.7 8.4-2.7z" opacity=".5"/><path d="m80.9 224.6c.5 3.3.6 5.5.4 6.5-.3 1 1.5 1.9 3.8 1.9s8.3-1.4 8.4-1.9 1.5-1.9 1.5-1.9 3.2-.1 6.1-1.1 8-3.4 7.6-6.9c-.4-3.4-1.8-5.7-6.1-5.4s-7.6 1.9-9.9 1.5-11.8 7.3-11.8 7.3z" fill="#825012"/><path d="m108.8 221.2c0-.1 0-.3-.1-.4-.2.4-.5.8-.7 1.2-1.4 2.3-6 4.6-9.2 5-4.4.5-4.8 1.8-10.3 3.1-3.2.8-6.6 0-7.2-1.6.1 1.2.1 2.1-.1 2.7-.3 1 1.5 1.9 3.8 1.9s8.3-1.4 8.4-1.9 1.5-1.9 1.5-1.9 3.2-.1 6.1-1.1c3-1.1 8.1-3.6 7.8-7z" opacity=".5"/><path d="m80.9 25.5c3.8 1.6 7.3 4.3 7.3 11.9s-.2 11.8-1.6 12.5c-1.4.8-3.6-.7-4.2 1.1s-1.3 4.9-1.1 6.1 0 1.9 0 1.9-10.8-1.1-12.3-1.4-5-5-5-5 3.6-.1 3.8-5-3.7-14.8 1.9-19.5c5.7-4.7 8.3-3.9 11.2-2.6z" fill="#fbd7c7"/><path d="m81.6 39.2c1.4-.6 1.9 1.9 2.7 1.9s.4-3.6 1.1-4.6 1-.8.8-3.1.4-3.6.9-3.8-2.2-6.5-11.2-6.5c-7.3 0-10 5.4-10.3 10.7-.3 5.4 2.6 7.5 1.9 14.1-.2 1.6 2.2.5 3.8 1.1 1.6.7 4.6 2.1 5.7.8 1.2-1.2 2.1-9.5 4.6-10.6z" fill="#762c07"/><path d="m56.7 95.7-1.5-1s.7-1.3-.8-3.1c-1.4-1.7-5.5-6.1-6.9-8s-2.7-3.1-2.7-3.1 1.8-2.1 3.8-4.2 1.6-3.7 3.1-2.3c1.4 1.4 2.9 5.4 4.6 8.8s2.1 7.7 2.3 9.9-1.1 9.2-1.1 9.2l32.1-1.5 4.6-7.6s.3-9.9.4-13-1.9-11.9-3.8-14.5-8.8-6.7-10.3-7.3-8.3.1-11.5-1.1-4.2-4.6-4.6-4.6-3.7 1.1-6.9 1.1c-3.2.1-7.5.4-12.6 5.4s-5.7 7.9-9.2 11.9c-3.4 3.9-6.5 8.9-5 11.9s12.6 13.3 14.5 14.9 4.9 1.9 4.9 1.9l1.7 1.2z" fill="#cc291f"/><path d="m57.9 95.3s-2.5 9.9-3.4 20.7-3.6 37.1-5.4 45.5-5.1 26.8-5.7 34c-.6 7.3-1 13.1 1.5 14.1s11.3 1.1 14.1-.8 4.2-4.6 4.2-7.3 2-20.1 2.7-23.3c.6-3.2.5-9.8 2.3-14.1s5-13.4 5-13.4 0 12.6.8 19.1 2.8 10.7 2.3 16.8.5 19.5 1.1 27.5 2 13 4.6 13.4c2.5.4 9.9-.8 12.2-3.4s3.1-3.8 2.7-7.6-.5-22.3-.8-26.4-2.5-16.3-1.9-21.8 2-26.1 1.5-34-1.5-32.9-1.5-32.9l-.4-4.2s-9 .9-11.1.8c-2-.1-5.4-.8-5.4-.8s-1.8-14-1.2-21.3c.5-6.5 3.5-11.2 5.8-12.6s7.3-.5 7.3-.5l-4.4-3s-3.2-1-6.9 1.6c-3 2.1-4.9 6.7-5.4 11.7s-.4 14.9-.4 14.9l-11-2.4s-1.8-13.8-1.2-20.2c.8-8.8 2.2-13 2.2-13l-4.4.7s-1.4 7.5-1.5 13.4c-.3 6.1 1 18.5 1 18.5s1.7 6.9.7 10.3z" fill="#06547a"/><path d="m95.4 108.8s2.7-.4 3.2 1.8.1 5.7.2 7.4.3 2.4-.8 2.3c-1-.1-.8-1.1-2.3-1.1s-4.3.4-5.4-1.1c-1-1.5-.8-5-.8-5z" fill="#fbd7c7"/><path d="m93.5 80.5s.6 12.6 1.5 15.7 1.5 10.3 1.5 11.5-.4 6.1-.8 6.9-4.2 2.7-5.7 2.3-2.3-3.8-2.3-3.8-4-8.8-4.2-11.1-2.4-9.7-3.8-13-2.7-7.3-2.7-7.3z" fill="#cc291f"/><path d="m63.8 50.9c8.6 3.2 14.5-3.1 21-11.7s12.9-12.6 2.7-17.2-18.5-1.7-25.2 6.5c-6.2 7.6-4.6 20.1 1.5 22.4z" fill="#825012"/><path d="m65.2 43c-2.8-.8-4.8-11.1-3.8-16s4.5-9.2 10-11 8.8 6 12.4 7.6c4.3 2.2-7.1 22.6-18.6 19.4z" fill="#825012"/><path d="m65.2 43c-2.8-.8-4.8-11.1-3.8-16s4.5-9.2 10-11 8.8 6 12.4 7.6c4.3 2.2-7.1 22.6-18.6 19.4z" opacity=".15"/></svg>