<svg viewBox="0 0 720 480" xmlns="http://www.w3.org/2000/svg"><path d="m653 433.1-55.7-27.9 41.7-20.8-317.9-159 79.8-39.8-81.1-40.6-297.8 148.9 81.1 40.5 26.8-13.3 317.9 158.9 57.6-28.8 55.7 27.8z" fill="#262626" opacity=".3"/><g fill="#2d3134"><path d="m291.5 132.1-15-33.6 15-18.6 30.2 15.1 15 33.6-15 18.5z"/><path d="m321.2 146.2-16 8.1 11.4-14-.2-.4 20.8-10.5-.9-1.8-20.7 10.5-14.2-31.8 20.8-10.5-.9-1.8-20.7 10.5-27.9-13.9 19.3-9.8-.9-1.8-20.7 10.4-.8-.4c-1.2-.6-2.7-.1-3.4 1.1-.2.5-.3 1-.2 1.5l-18.9 9.5-.8-.4c-1.2-.6-2.7-.1-3.4 1.1-.2.5-.3 1-.2 1.5l-18.9 9.5-.8-.4c-1.2-.6-2.7-.1-3.4 1.1-.2.5-.3 1-.2 1.5l-18.9 9.5-.8-.4c-1.2-.6-2.7-.1-3.4 1.1-.2.5-.3 1-.2 1.5l-18.9 9.5-.8-.4c-1.2-.6-2.7-.1-3.4 1.1-.2.5-.3 1-.2 1.5l-18.9 9.5-.8-.4c-1.2-.6-2.7-.1-3.4 1.1-.2.5-.3 1-.2 1.5l-18.9 9.5-.8-.4c-1.2-.6-2.7-.1-3.4 1.1-.2.5-.3 1-.2 1.5l-18.9 9.5-.8-.4c-1.2-.6-2.7-.1-3.4 1.1-.2.5-.3 1-.2 1.5l-18.9 9.5-.8-.4c-1.2-.6-2.7-.1-3.4 1.1-.2.5-.3 1-.2 1.5l-18.9 9.5-.8-.4c-1.2-.6-2.7-.1-3.4 1.1-.2.5-.3 1-.2 1.5l-21.5 10.9.9 1.8 21.7-11c.1 0 .1.1.2.1l8.4 4.2-46 24 .9 1.8 47.6-24.1 17 8.5-20.3 10.3.9 1.8 21.3-10.8 7.2 16-59.5 30.1.9 1.8 59.4-30 5.9 13.1-1.4 1.7-19.7 9.9.9 1.8 15.6-7.9-9.6 11.8c-.5.6-.6 1.3-.5 2l-21.5 10.9.9 1.8 21.7-11c.4.3.9.4 1.3.4.7 0 1.4-.3 1.9-.9l1.6-1.9 18.4-9.3c.4.3.9.4 1.3.4.7 0 1.4-.3 1.9-.9l1.6-1.9 18.4-9.3c.4.3.9.4 1.3.4.7 0 1.4-.3 1.9-.9l1.6-1.9 18.4-9.3c.4.3.9.4 1.3.4.7 0 1.4-.3 1.9-.9l1.6-1.9 18.4-9.3c.4.3.9.4 1.3.4.7 0 1.4-.3 1.9-.9l1.6-1.9 18.4-9.3c.4.3.9.4 1.3.4.7 0 1.4-.3 1.9-.9l1.6-1.9 18.4-9.3c.4.3.9.4 1.3.4.7 0 1.4-.3 1.9-.9l1.6-1.9 18.4-9.3c.4.3.9.4 1.3.4.7 0 1.4-.3 1.9-.9l1.6-1.9 18.4-9.3c.4.3.9.4 1.3.4.7 0 1.4-.3 1.9-.9l1.6-1.9 18.4-9.3c.4.3.9.4 1.3.4.7 0 1.4-.3 1.9-.9l1.6-1.9 20-10.1zm-10.5-6.7-1.4 1.7-17 8.6-6.2-13.9 5.9-3-.9-1.8-5.8 3-7.2-16 18.8-9.5zm-196.4 59.1-17-8.5 17.7-9 17 8.5zm42.9-19.4 7.2 16-18.8 9.5-7.2-16zm4.5-2.3 18.8-9.5 7.2 16-18.8 9.5zm23.3-11.8 18.8-9.5 7.2 16-18.8 9.5zm23.2-11.7 18.8-9.5 7.2 16-18.8 9.5zm23.3-11.8 18.8-9.5 7.2 16-18.8 9.5zm23.3-11.7 18.8-9.5 7.2 16-18.8 9.5zm-.8-1.9-17-8.5 17.7-9 17 8.5zm-5.6 2.8-17.7 9-17-8.5 17.7-9zm-23.2 11.8-17.7 9-17-8.5 17.7-9zm-23.3 11.8-17.7 9-17-8.5 17.7-9zm-23.3 11.7-17.7 9-17-8.5 17.7-9zm-23.3 11.8-17.7 9-17-8.5 17.7-9zm-21.4 13 7.2 16-18.8 9.5-7.2-16zm8 17.9 5.9 13.1-1.4 1.7-17 8.6-6.2-13.9zm4.5-2.3 18.8-9.5 5.9 13.1-1.4 1.7-17 8.6zm23.3-11.7 18.8-9.5 5.9 13.1-1.4 1.7-17 8.6zm23.3-11.8 18.8-9.5 5.9 13.1-1.4 1.7-17 8.6zm23.2-11.8 18.8-9.5 5.9 13.1-1.4 1.7-17 8.6zm23.3-11.7 18.8-9.5 5.9 13.1-1.4 1.7-17 8.6zm23.3-11.8 18.8-9.5 5.9 13.1-1.4 1.7-17 8.6zm14.4-31.4-17-8.5 16.7-8.4-.7-1.4 18.8 9.4zm-10.1-23c.1 0 .1.1.2.1l8.4 4.2-17.7 9-8.7-4.3zm-23.3 11.8c.1 0 .1.1.2.1l8.4 4.2-17.7 9-8.7-4.3zm-23.2 11.8c.1 0 .1.1.2.1l8.4 4.2-17.7 9-8.7-4.3zm-23.3 11.7c.1 0 .1.1.2.1l8.4 4.2-17.7 9-8.7-4.3zm-23.3 11.8c.1 0 .1.1.2.1l8.4 4.2-17.7 9-8.7-4.3zm-23.3 11.8c.1 0 .1.1.2.1l8.4 4.2-17.7 9-8.7-4.3zm-23.2 11.7c.1 0 .1.1.2.1l8.4 4.2-17.7 9-8.7-4.3zm-23.3 11.8c.1 0 .1.1.2.1l8.4 4.2-17.7 9-8.7-4.3zm-41 20.7 17.7-9c.1 0 .1.1.2.1l8.4 4.2-17.7 9zm27.8 13.9-17-8.5 17.7-9 17 8.5zm.9 1.9 18.8-9.5 7.2 16-18.9 9.5zm8 17.8 18.8-9.5 5.9 13.1-1.4 1.7-17 8.6zm7 15.8 13.1-6.6-9.6 11.8c-.5.6-.6 1.3-.5 2l-14.2 7.2 11.4-14zm23.3-11.8 13.1-6.6-9.6 11.8c-.5.6-.6 1.3-.5 2l-14.2 7.2 11.4-14zm23.3-11.7 13.1-6.6-9.6 11.8c-.5.6-.6 1.3-.5 2l-14.2 7.2 11.4-14zm23.2-11.8 13.1-6.6-9.6 11.8c-.5.6-.6 1.3-.5 2l-14.2 7.2 11.4-14zm23.3-11.7 13.1-6.6-9.6 11.8c-.5.6-.6 1.3-.5 2l-14.2 7.2 11.4-14zm23.3-11.8 13.1-6.6-9.6 11.8c-.5.6-.6 1.3-.5 2l-14.2 7.2 11.4-14zm23.3-11.8 13.1-6.6-9.6 11.8c-.5.6-.6 1.3-.5 2l-14.2 7.2 11.4-14zm23.2-11.7 13.1-6.6-9.6 11.8c-.5.6-.6 1.3-.5 2l-14.2 7.2 11.4-14zm23.3-11.8 13.1-6.6-9.6 11.8c-.5.6-.6 1.3-.5 2l-14.2 7.2 11.4-14z"/><path d="m35.5 261.4-15-33.6 15-18.5 30.1 15 15.1 33.6-15.1 18.6z"/></g><path d="m368 125-274 137v53l8 4 274-137v-53z" fill="#cc291f"/><path d="m376 182v-53l-274 137v53z" opacity=".29"/><path d="m20 226 8-4 74 37v62l-8 4-23.5-12.2c-3.6-1.9-7.1-4.1-10.3-6.7l-17.4-14.1c-5.8-4.7-10.7-10.4-14.4-16.8-5.5-9.4-8.3-20-8.3-30.8v-18.4z" fill="#cc291f"/><path d="m20 226v18.5c0 10.8 2.9 21.5 8.3 30.8 3.7 6.4 8.6 12.1 14.4 16.8l17.4 14.1c3.2 2.6 6.6 4.8 10.3 6.7l23.6 12.1v-62z" opacity=".11"/><path d="m94 263v62l8-4v-62z" opacity=".29"/><path d="m249 200-48 24v8l46 23 48-24v-8z" fill="#cc291f"/><path d="m201 232v-8l46 23v8z" opacity=".11"/><path d="m295 231v-8l-48 24v8z" opacity=".29"/><path d="m269 135-76-38v90l66 33v14l10 5 82-41v-104z" fill="#cc291f"/><path d="m269 227 82-41v-92l-78-36-80 39v79l76 38z" fill="#656565"/><path d="m351 198v-104l-82 41v104z" opacity=".29"/><path d="m351 134v-40l-82 41z" fill="#fff" opacity=".1"/><path d="m193 187 66 33v14l10 5v-104l-76-38z" opacity=".11"/><path d="m193 97v79l74-42z" opacity=".15"/><path d="m279 42-90 45v12l82 41 90-45v-12z" fill="#cc291f"/><path d="m189 99v-12l82 41v12z" opacity=".11"/><path d="m361 95v-12l-90 45v12z" opacity=".29"/><path d="m583 362v-18l-148 74v18z" fill="#cc291f"/><path d="m435 295v-18l-148 74v18z" fill="#2d3134"/><path d="m367 336v-49l148 74v49z" fill="#2d3134"/><path d="m578 374v-10l-148 74v10z" fill="#cc291f"/><path d="m578 374v-10l-148 74v10z" opacity=".29"/><path d="m420 291-70 35 30 52 36 18 70-35v-37z" fill="#cc291f"/><path d="m380 378-30-52 66 33v37z" opacity=".11"/><path d="m486 361v-37l-70 35v37z" opacity=".29"/><path d="m504 147v-20l-110-55-142 71v96l30 27v28l152 76 10-5 30 15 82-41v-166z" fill="#cc291f"/><path d="m252 229v-25l152 76v25z" fill="#e5e5e5"/><path d="m504 127-20 10 20 10z" opacity=".29"/><path d="m556 339v-166l-82 41v166z" opacity=".29"/><path d="m404 214.5 31.1-15.5-33.1-16.5v31z" opacity=".11"/><path d="m402 182.5-31.1 15.5 31.1 15.5z" opacity=".29"/><path d="m252 143v96l30 27v28l152 76v-28l-30-27v-96z" opacity=".11"/><path d="m444 365v-166l-40 20v96l30 27v28z" opacity=".29"/><path d="m444 199v166l30 15v-166z" opacity=".11"/><path d="m396 69-124 62v12l82 41 124-62v-12z" fill="#cc291f"/><path d="m272 143v-12l82 41v12z" opacity=".11"/><path d="m478 122v-12l-124 62v12z" opacity=".29"/><path d="m294.4 131 101.6-50.8 59.6 29.8-101.6 50.8z" opacity=".2"/><path d="m396 80.2-101.6 50.8 11.8 5.9 89.8-44.9z" opacity=".29"/><path d="m443.8 115.9 11.8-5.9-59.6-29.8v11.8z" opacity=".11"/><path d="m252 239 152 76 30 27-152-76z" opacity=".1"/><path d="m404 229-135-67v32.5l135 67.5 24-12v-33z" fill="#cc291f"/><path d="m269 162v32l24-12v-8z" opacity=".29"/><path d="m404 229-111-55v8l135 68v-33z" opacity=".11"/><path d="m473 168c-4.4 0-8 1.8-8 4v28c0 2.2 3.6 4 8 4s8-1.8 8-4v-28c0-2.2-3.6-4-8-4z" fill="#2d3134"/><ellipse cx="473" cy="172" opacity=".8" rx="6" ry="2.5"/><path d="m476 168.3v1.5c1.8.4 3 1.2 3 2.2 0 1.4-2.7 2.5-6 2.5s-6-1.1-6-2.5c0-.9 1.2-1.7 3-2.2v-1.5c-2.9.6-5 2-5 3.7v28c0 2.2 3.6 4 8 4s8-1.8 8-4v-28c0-1.7-2.1-3.1-5-3.7z" fill="#2d3134"/><path d="m473 176c-4.4 0-8-1.8-8-4v28c0 2.2 3.6 4 8 4s8-1.8 8-4v-28c0 2.2-3.6 4-8 4z" opacity=".2"/><path d="m443 400c-8.5-4.3-16.2-4.6-21.7-1.7l-15.7 7.9c-5.3 2.8-8.6 8.6-8.6 16.8 0 16.7 13.6 37 30.3 45.4 9.2 4.6 17.4 4.6 22.9.9l12.8-6.3c6.3-2.4 10.3-8.5 10.3-17.6 0-16.7-13.6-37.1-30.3-45.4z" fill="#2d3134"/><path d="m439 401.7c-6.7-3.3-13-4.4-18.3-3.1l-3.6 1.8.1.1c-.2 0-.4.1-.7.2l-3.6 1.8.1.1c-.2 0-.4.1-.6.2l-3.6 1.8.2.4c5.6-3 13.2-2.4 21.3 1.7 16.6 8.3 30 28.5 30 45 0 8.5-3.7 14.8-10 17.2l.1.4 12.6-6.3c.2-.1.4-.2.5-.2 3.9-3.3 6-8.7 6-15.3 0-16.9-13.7-37.4-30.5-45.8zm17.1 64.3c3.2-3.4 5-8.3 5-14.3 0-16.8-13.7-37.4-30.5-45.8-6-3-11.8-4.2-16.7-3.4 5.5-2.5 12.8-1.8 20.5 2.1 16.6 8.3 30 28.5 30 45 .1 7.7-2.9 13.6-8.3 16.4zm4.2-2.1c3.2-3.4 5-8.3 5-14.3 0-16.8-13.7-37.4-30.5-45.8-6-3-11.8-4.2-16.7-3.4 5.5-2.5 12.8-1.8 20.5 2.1 16.6 8.3 30 28.5 30 45 .1 7.7-3 13.6-8.3 16.4z" opacity=".5"/><path d="m457.5 453.3c0 16.7-13.6 23.5-30.3 15.1s-30.3-28.7-30.3-45.4 13.6-23.5 30.3-15.1 30.3 28.7 30.3 45.4z" opacity=".11"/><path d="m428.6 407.1c-9.1-4.5-17.3-4.6-22.8-1 5.2-1.7 12-1 19.3 2.7 16.7 8.4 30.3 28.7 30.3 45.4 0 7.6-2.8 13.2-7.5 16.2 6.7-2.2 10.9-8.5 10.9-17.8.1-16.8-13.5-37.1-30.2-45.5z" fill="#fff" opacity=".1"/><path d="m442.1 445.6c0 8.2-6.6 11.5-14.8 7.4s-14.8-14.1-14.8-22.2c0-8.2 6.6-11.5 14.8-7.4 8.2 4 14.8 14 14.8 22.2z" fill="#cc291f"/><path d="m440.9 445c0 7.5-6.1 10.6-13.6 6.8s-13.6-12.9-13.6-20.4 6.1-10.6 13.6-6.8c7.5 3.7 13.6 12.8 13.6 20.4z" fill="#cc291f"/><path d="m440.9 445c0 7.5-6.1 10.6-13.6 6.8s-13.6-12.9-13.6-20.4 6.1-10.6 13.6-6.8c7.5 3.7 13.6 12.8 13.6 20.4z" fill="#cc291f"/><path d="m440.9 445c0 7.5-6.1 10.6-13.6 6.8s-13.6-12.9-13.6-20.4 6.1-10.6 13.6-6.8c7.5 3.7 13.6 12.8 13.6 20.4z" opacity=".29"/><path d="m427.3 424.5c-7.5-3.8-13.6-.7-13.6 6.8 0 4.1 1.8 8.6 4.6 12.5l19.2-9.6c-2.5-4-6.2-7.6-10.2-9.7z" opacity=".15"/><path d="m429.9 426.1-3.6 1.9c-1.7.7-3 2-3 4.4 0 4.1 3.3 9.1 7.4 11.1 1.9 1 3.6 1.1 5 .6l4.9-2.3c-1.2-5.8-5.4-12-10.7-15.7z" fill="#cc291f"/><path d="m429.9 426.1-3.6 1.9c-1.7.7-3 2-3 4.4 0 4.1 3.3 9.1 7.4 11.1 1.9 1 3.6 1.1 5 .6l4.9-2.3c-1.2-5.8-5.4-12-10.7-15.7z" opacity=".29"/><path d="m449.3 428.4c5.1 8 8.3 16.9 8.3 24.9 0 7.5-2.8 13-7.3 16.1l12.7-6.4c6.3-2.4 10.3-8.5 10.3-17.6 0-8-3.1-16.9-8.2-24.9z" opacity=".29"/><path d="m438.2 439.9c0 4.1-3.3 5.8-7.4 3.7-4.1-2-7.4-7-7.4-11.1s3.3-5.8 7.4-3.7c4 2 7.4 7 7.4 11.1z" fill="#cc291f"/><g opacity=".5"><path d="m432 431.9c0 .7-.5.9-1.2.6s-1.2-1.1-1.2-1.8.5-.9 1.2-.6c.6.3 1.2 1.2 1.2 1.8z"/><path d="m432 441.6c0 .7-.5.9-1.2.6s-1.2-1.1-1.2-1.8.5-.9 1.2-.6c.6.3 1.2 1.1 1.2 1.8z"/><path d="m428.2 430.6c.5.7.5 1.5 0 1.7s-1.2-.1-1.7-.9c-.5-.7-.5-1.5 0-1.7.4-.2 1.2.2 1.7.9z"/><path d="m435 440.9c.5.7.5 1.5 0 1.7s-1.2-.1-1.7-.9-.5-1.5 0-1.7 1.3.2 1.7.9z"/><path d="m425.9 432.5c.7.3 1.2 1.1 1.2 1.8s-.5.9-1.2.6-1.2-1.1-1.2-1.8.5-.9 1.2-.6z"/><path d="m435.6 437.4c.7.3 1.2 1.1 1.2 1.8s-.5.9-1.2.6-1.2-1.1-1.2-1.8.5-1 1.2-.6z"/><path d="m426.5 436.6c.5-.2 1.2.1 1.7.9.5.7.5 1.5 0 1.7s-1.2-.1-1.7-.9c-.5-.7-.5-1.5 0-1.7z"/><path d="m433.3 433.2c.5-.2 1.2.1 1.7.9.5.7.5 1.5 0 1.7s-1.2-.1-1.7-.9c-.5-.7-.5-1.5 0-1.7z"/></g><path d="m427.3 407.9c-16.7-8.4-30.3-1.6-30.3 15.1s13.6 37 30.3 45.4 30.3 1.6 30.3-15.1c-.1-16.7-13.6-37.1-30.3-45.4zm0 56.9c-14.7-7.4-26.6-25.2-26.6-39.9s11.9-20.7 26.6-13.3 26.6 25.2 26.6 39.9-11.9 20.6-26.6 13.3z" fill="#fff" opacity=".1"/><path d="m295.9 267.3c-15-7.5-28.5-8-38.2-2.9l-27.6 13.9c-9.3 4.9-15.1 15.1-15.1 29.5 0 29.4 23.8 65.1 53.2 79.8 16.1 8.1 30.6 8.1 40.3 1.6l22.5-11.2c11.1-4.2 18.1-15 18.1-30.9 0-29.4-23.8-65.1-53.2-79.8z" fill="#2d3134"/><path d="m321.4 361c0 29.4-23.8 41.3-53.2 26.6s-53.2-50.4-53.2-79.8 23.8-41.3 53.2-26.6 53.2 50.4 53.2 79.8z" opacity=".11"/><path d="m270.6 279.8c-16-8-30.3-8.1-40.1-1.8 9.2-3 21.1-1.7 34 4.7 29.4 14.7 53.2 50.4 53.2 79.8 0 13.4-5 23.1-13.1 28.4 11.8-3.9 19.2-14.9 19.2-31.3 0-29.3-23.8-65.1-53.2-79.8z" fill="#fff" opacity=".1"/><path d="m294.3 347.4c0 14.4-11.7 20.2-26.1 13s-26.1-24.7-26.1-39.1 11.7-20.2 26.1-13 26.1 24.7 26.1 39.1z" fill="#cc291f"/><path d="m292.1 346.3c0 13.2-10.7 18.6-23.9 12s-23.9-22.7-23.9-35.9 10.7-18.6 23.9-12 23.9 22.7 23.9 35.9z" fill="#cc291f"/><path d="m292.1 346.3c0 13.2-10.7 18.6-23.9 12s-23.9-22.7-23.9-35.9 10.7-18.6 23.9-12 23.9 22.7 23.9 35.9z" fill="#cc291f"/><path d="m292.1 346.3c0 13.2-10.7 18.6-23.9 12s-23.9-22.7-23.9-35.9 10.7-18.6 23.9-12 23.9 22.7 23.9 35.9z" opacity=".29"/><path d="m268.2 310.4c-13.2-6.6-23.9-1.2-23.9 12 0 7.2 3.1 15.1 8.1 22l33.8-16.9c-4.4-7.1-10.8-13.5-18-17.1z" opacity=".15"/><path d="m272.8 313.2-6.3 3.3c-2.9 1.3-5.3 3.5-5.3 7.8 0 7.2 5.8 16 13 19.6 3.3 1.7 6.4 1.9 8.7 1l8.5-4.1c-1.9-10.3-9.3-21.1-18.6-27.6z" fill="#cc291f"/><path d="m272.8 313.2-6.3 3.3c-2.9 1.3-5.3 3.5-5.3 7.8 0 7.2 5.8 16 13 19.6 3.3 1.7 6.4 1.9 8.7 1l8.5-4.1c-1.9-10.3-9.3-21.1-18.6-27.6z" opacity=".29"/><path d="m306.9 317.2c9 14 14.5 29.6 14.5 43.8 0 13.3-4.9 22.9-12.9 28.2l22.5-11.2c11.1-4.2 18.1-15 18.1-30.9 0-14.1-5.5-29.7-14.5-43.7z" opacity=".29"/><path d="m287.4 337.4c0 7.2-5.8 10.1-13 6.5s-13-12.4-13-19.6 5.8-10.1 13-6.5c7.1 3.6 13 12.4 13 19.6z" fill="#cc291f"/><g opacity=".5"><path d="m276.4 323.4c0 1.2-1 1.7-2.1 1.1-1.2-.6-2.1-2-2.1-3.2s1-1.7 2.1-1.1c1.2.6 2.1 2 2.1 3.2z"/><path d="m276.4 340.4c0 1.2-1 1.7-2.1 1.1-1.2-.6-2.1-2-2.1-3.2s1-1.7 2.1-1.1c1.2.6 2.1 2.1 2.1 3.2z"/><path d="m269.8 321.1c.8 1.2.8 2.6 0 3s-2.2-.3-3-1.5-.8-2.6 0-3 2.2.2 3 1.5z"/><path d="m281.8 339.1c.8 1.2.8 2.6 0 3s-2.2-.3-3-1.5-.8-2.6 0-3c.9-.4 2.2.3 3 1.5z"/><path d="m265.8 324.5c1.2.6 2.1 2 2.1 3.2s-1 1.7-2.1 1.1c-1.2-.6-2.1-2-2.1-3.2s.9-1.7 2.1-1.1z"/><path d="m282.8 333c1.2.6 2.1 2 2.1 3.2s-1 1.7-2.1 1.1c-1.2-.6-2.1-2-2.1-3.2s1-1.7 2.1-1.1z"/><path d="m266.8 331.6c.8-.4 2.2.3 3 1.5s.8 2.6 0 3-2.2-.3-3-1.5-.8-2.6 0-3z"/><path d="m278.8 325.6c.8-.4 2.2.3 3 1.5s.8 2.6 0 3-2.2-.3-3-1.5-.8-2.6 0-3z"/></g><path d="m268.2 281.2c-29.4-14.7-53.2-2.8-53.2 26.6s23.8 65.1 53.2 79.8 53.2 2.8 53.2-26.6-23.8-65.1-53.2-79.8zm0 100c-25.9-12.9-46.8-44.4-46.8-70.2 0-25.9 21-36.3 46.8-23.4s46.8 44.4 46.8 70.2-20.9 36.3-46.8 23.4z" fill="#fff" opacity=".1"/><g opacity=".5"><path d="m264.3 283.5 8.5 4.3-4.2-6.4c-.1-.1-.2-.1-.4-.2-2.6-1.3-5.1-2.4-7.6-3.3z"/><path d="m272.8 385.6-8.5-4.3 3.2 5.8c.2.1.5.3.7.4 2.5 1.3 5 2.3 7.4 3.2z"/><path d="m240.3 280 7.4-.6-5.8-4.5c-.1 0-.2 0-.3 0-2.2.2-4.3.6-6.3 1.1z"/><path d="m296.7 388.6-7.4.6 4.9 4.5h.6c2.2-.2 4.2-.5 6.2-1.1z"/><path d="m223.8 291 4.3-5.2-5.8-1.3c-.1.1-.1.1-.2.2-1.3 1.6-2.4 3.3-3.3 5.2z"/><path d="m312.8 377.1-4.3 5.2 5.3 2 .4-.4c1.3-1.5 2.3-3.2 3.3-5.1z"/><path d="m219.3 313.7v-8.5l-4.2 2.1v.4c0 2.6.2 5.2.6 7.9z"/><path d="m317.2 354.1v8.5l4.2-1.1c0-.2 0-.5 0-.7 0-2.5-.2-5.1-.5-7.7z"/><path d="m227.8 341.9-4.3-9.5-1.6 5c.1.1.1.3.2.4 1.3 2.9 2.7 5.7 4.3 8.5z"/><path d="m308.3 325.8 4.3 9.5 2.1-3.8c-.1-.3-.2-.5-.3-.8-1.3-2.8-2.7-5.6-4.2-8.2z"/><path d="m247.1 368.1-7.4-7.9 1.6 6.6.3.3c2.2 2.4 4.5 4.7 6.9 6.8z"/><path d="m288.7 299.8 7.4 7.9-.6-5.6c-.2-.2-.4-.5-.6-.7-2.2-2.3-4.4-4.5-6.7-6.6z"/></g><g opacity=".5"><path d="m259.8 263.4c-.7.3-1.4.6-2.1 1l-6.9 3.5-.8 1.3-14.7 6.9c2-.6 4.1-1 6.3-1.1h.3l14.8-6.3z"/><path d="m325.8 291.4c-1.6-1.9-3.3-3.7-5-5.5l-8.4 9.9-24.3-.9c2.3 2.1 4.5 4.2 6.7 6.6.2.2.4.5.6.7l21.3.5z"/><path d="m268.2 281.2c.1.1.2.1.4.2l23.6-2.3 5.7-10.7c-.7-.4-1.3-.7-2-1.1-1.5-.8-3-1.4-4.5-2l-5.5 9.4-25.3 3.2c2.5.9 5 2 7.6 3.3z"/><path d="m335.8 365.4 11.5-5.5c.9-2.9 1.5-6 1.7-9.4l-12.3 6.4-15.7-3.7c.3 2.6.5 5.2.5 7.7v.7z"/><path d="m317.5 378.8c-.9 1.8-2 3.5-3.3 5.1-.1.1-.3.3-.4.4l3.5.5 9.1-4.6z"/><path d="m314.7 331.5 20.6 4.3 10.5-9.2c-1-3.2-2.2-6.4-3.6-9.5l-10.5 8.8-21.4-3.4c1.5 2.7 2.9 5.4 4.2 8.2-.1.3 0 .5.2.8z"/></g><path d="m569 301-70 35v86l10 5 70-35v-86z" fill="#cc291f"/><path d="m499 422v-86l10 5v86z" opacity=".11"/><path d="m579 392v-86l-70 35v86z" opacity=".29"/><path d="m557 228-68 34v86l120 60 68-34v-86z" fill="#cc291f"/><path d="m489 298v-25l120 60v25z" fill="#e5e5e5"/><path d="m489 348v-86l120 60v86z" opacity=".11"/><path d="m677 374v-86l-68 34v86z" opacity=".29"/><path d="m444 243-30 15v86l46 23 30-15v-86z" fill="#cc291f"/><path d="m414 344v-86l46 23v86z" opacity=".11"/><path d="m490 352v-86l-30 15v86z" opacity=".29"/><path d="m222.6 242.1-4.8 19.1-17.4-8.7 5-20-4.1-1-21.3 85.3c-.2 1 .2 2 1.1 2.4l21.3 10.7c.3.2.6.2 1 .2.3 0 .6-.1.9-.2.6-.3 1-.8 1.2-1.4l21.3-85.3zm-5.8 23.4-4.2 17-17.4-8.7 4.2-17zm-5.3 21.2-4.2 17-17.4-8.7 4.2-17zm-9.6 38.2-17.4-8.7 4.2-17 17.4 8.7z" fill="#cc291f"/><path d="m222.6 242.1-4.8 19.1-17.4-8.7 5-20-4.1-1-21.3 85.3c-.2 1 .2 2 1.1 2.4l21.3 10.7c.3.2.6.2 1 .2.3 0 .6-.1.9-.2.6-.3 1-.8 1.2-1.4l21.3-85.3zm-5.8 23.4-4.2 17-17.4-8.7 4.2-17zm-5.3 21.2-4.2 17-17.4-8.7 4.2-17zm-9.6 38.2-17.4-8.7 4.2-17 17.4 8.7z" opacity=".11"/><path d="m511.9 277.1s-49.6-24.9-102-51.1l-6 3-122-60.6c-5.6 3.6-10 10.6-10 16.5 0 3.6 1.7 6 4.3 6.9l218.8 109.1v10.6c0 3 4.9 5.5 11 5.5s11-2.5 11-5.5v-28c0-.6-.2-1.2-.5-1.7-.8-2.2-2.4-3.7-4.6-4.7z" fill="#2d3134"/></svg>