<svg viewBox="0 0 112 88" xmlns="http://www.w3.org/2000/svg"><path d="m0 72 32 16 80-40-32-16z" opacity=".2"/><path d="m2 73 2-1v-22l-2 1z" fill="#fff"/><path d="m2 73 2-1v-22l-2 1z" opacity=".29"/><path d="m52 78-2-1v-22l2 1z" fill="#fff"/><path d="m52 78-2-1v-22l2 1z" opacity=".11"/><path d="m71 68.5-2-1v-22l2 1z" fill="#fff"/><path d="m71 68.5-2-1v-22l2 1z" opacity=".11"/><path d="m90 59-2-1v-22l2 1z" fill="#fff"/><path d="m90 59-2-1v-22l2 1z" opacity=".11"/><path d="m110 49-2-1v-22l2 1z" fill="#fff"/><path d="m110 49-2-1v-22l2 1z" opacity=".11"/><path d="m91 34.5 20-10v5l-4-2-12 6-4 6z" fill="#762c07"/><path d="m72 44 19-9.5v5l-4-2-11 5.5-4 6z" fill="#762c07"/><path d="m92 58-2 1v-24l2-1z" fill="#fff"/><path d="m112 48-2 1v-24l2-1z" fill="#fff"/><path d="m53 53.5 19-9.5v5l-4-2-11 5.5-4 6z" fill="#762c07"/><path d="m73 67.5-2 1v-24l2-1z" fill="#fff"/><path d="m33 63.5 20-10v5l-4-2-12 6-4 6z" fill="#762c07"/><path d="m34 87-2 1v-24l2-1z" fill="#fff"/><path d="m54 77-2 1v-24l2-1z" fill="#fff"/><path d="m111 24.5-20 10-1 .5-18 9-1 .5-17 8.5-2 1-18 9-2 1v24l2-1v-20l3-4.5 12-6 3 1.5v20l2-1v-20l3-4.5 11-5.5 3 1.5v20l2-1v-20l3-4.5 11-5.5 3 1.5v20l2-1v-20l3-4.5 12-6 3 1.5v20l2-1v-24z" opacity=".29"/><path d="m32 64-32-24 80-40 32 24z" fill="#2d3134"/><path d="m32 64-32-24 80-40 32 24z" fill="#2d3134"/><path d="m32 64-32-24 80-40 32 24z" opacity=".39"/><path d="m32 64-32-24v8l1 5.5 4-2 22 11 4 6z" fill="#762c07"/><g fill="#fff"><path d="m32 88-2-1v-24l2 1z"/><path d="m2 73-2-1v-32l2 2z"/><path d="m32 64-32-24v1l32 24z"/></g><path d="m0 40v1 7 24l2 1v-20l3-1.5 22 11 3 4.5v20l2 1v-23-1z" opacity=".11"/></svg>