<svg viewBox="0 0 112 88" xmlns="http://www.w3.org/2000/svg"><path d="m88 4-24 4v24l48 24v-24z" fill="#39c" opacity=".6"/><g fill="#fff"><path d="m88 5.2 23 26.8v22.5l-46-23v-22.5zm0-1.2-24 4v24l48 24v-24z"/><path d="m112 33-48-24 1-.5 47 23.5z"/><path d="m94 46-1-.5v-22l1 .5z"/><path d="m103 50.5-1-.5v-22l1 .5z"/><path d="m74 36-1-.5v-22l1 .5z"/><path d="m83 40.5-1-.5v-22l1 .5z"/></g><path d="m83 18.5v22l10 5v-22zm9 25.5-8-4v-20l8 4z" opacity=".15"/><path d="m74 14v22l8 4v-22zm7 24.5-6-3v-20l6 3z" opacity=".15"/><path d="m65 9.5v22l8 4v-22zm7 24.5-6-3v-20l6 3z" opacity=".15"/><path d="m94 24v22l8 4v-22zm7 24.5-6-3v-20l6 3z" opacity=".15"/><path d="m103 28.5v22l8 4v-22zm7 24.5-6-3v-20l6 3z" opacity=".15"/><path d="m88 5-22 4 44 22zm0 1.2 18.8 22.2-37.6-18.8z" opacity=".15"/><path d="m112 56-64 32v-24l64-32z" fill="#39c" opacity=".6"/><path d="m111 33.5v22l-62 31v-22zm1-1.5-64 32v24l64-32z" fill="#fff"/><path d="m58 82-1 .5v-22l1-.5z" fill="#fff"/><path d="m67 77.5-1 .5v-22l1-.5z" fill="#fff"/><path d="m76 73-1 .5v-22l1-.5z" fill="#fff"/><path d="m85 68.5-1 .5v-22l1-.5z" fill="#fff"/><path d="m58 60v22l8-4v-22zm7 17.5-6 3v-20l6-3z" opacity=".15"/><path d="m67 55.5v22l8-4v-22zm7 17.5-6 3v-20l6-3z" opacity=".15"/><path d="m76 51v22l8-4v-22zm7 17.5-6 3v-20l6-3z" opacity=".15"/><path d="m94 64-1 .5v-22l1-.5z" fill="#fff"/><path d="m85 46.5v22l8-4v-22zm7 17.5-6 3v-20l6-3z" opacity=".15"/><path d="m103 59.5-1 .5v-22l1-.5z" fill="#fff"/><path d="m94 42v22l8-4v-22zm7 17.5-6 3v-20l6-3z" opacity=".15"/><path d="m103 37.5v22l8-4v-22zm7 17.5-6 3v-20l6-3z" opacity=".15"/><path d="m49 64.5v22l8-4v-22zm7 17.5-6 3v-20l6-3z" opacity=".15"/><path d="m112 56-64 32v-24l64-32z" opacity=".39"/><path d="m64 32-64 32v-24l64-32z" fill="#39c" opacity=".6"/><path d="m63 9.5v22l-62 31v-22zm1-1.5-64 32v24l64-32z" fill="#fff"/><path d="m10 58-1 .5v-22l1-.5z" fill="#fff"/><path d="m19 53.5-1 .5v-22l1-.5z" fill="#fff"/><path d="m28 49-1 .5v-22l1-.5z" fill="#fff"/><path d="m37 44.5-1 .5v-22l1-.5z" fill="#fff"/><path d="m10 36v22l8-4v-22zm7 17.5-6 3v-20l6-3z" opacity=".15"/><path d="m19 31.5v22l8-4v-22zm7 17.5-6 3v-20l6-3z" opacity=".15"/><path d="m28 27v22l8-4v-22zm7 17.5-6 3v-20l6-3z" opacity=".15"/><path d="m46 40-1 .5v-22l1-.5z" fill="#fff"/><path d="m37 22.5v22l8-4v-22zm7 17.5-6 3v-20l6-3z" opacity=".15"/><path d="m55 35.5-1 .5v-22l1-.5z" fill="#fff"/><path d="m46 18v22l8-4v-22zm7 17.5-6 3v-20l6-3z" opacity=".15"/><path d="m55 13.5v22l8-4v-22zm7 17.5-6 3v-20l6-3z" opacity=".15"/><path d="m1 40.5v22l8-4v-22zm7 17.5-6 3v-20l6-3z" opacity=".15"/><path d="m24 36-24 4v24l48 24v-24z" fill="#39c" opacity=".6"/><path d="m24 37.2 23 26.8v22.5l-46-23v-22.5zm0-1.2-24 4v24l48 24v-24z" fill="#fff"/><path d="m48 65-48-24 1-.5 47 23.5z" fill="#fff"/><path d="m30 78-1-.5v-22l1 .5z" fill="#fff"/><path d="m39 82.5-1-.5v-22l1 .5z" fill="#fff"/><path d="m10 68-1-.5v-22l1 .5z" fill="#fff"/><path d="m19 72.5-1-.5v-22l1 .5z" fill="#fff"/><path d="m19 50.5v22l10 5v-22zm9 25.5-8-4v-20l8 4z" opacity=".2"/><path d="m10 46v22l8 4v-22zm7 24.5-6-3v-20l6 3z" opacity=".15"/><path d="m1 41.5v22l8 4v-22zm7 24.5-6-3v-20l6 3z" opacity=".15"/><path d="m30 56v22l8 4v-22zm7 24.5-6-3v-20l6 3z" opacity=".15"/><path d="m39 60.5v22l8 4v-22zm7 24.5-6-3v-20l6 3z" opacity=".15"/><path d="m29 77.5v-22l-6-3z" opacity=".15"/><path d="m24 37-22 4 44 22zm0 1.2 18.8 22.2-37.6-18.8z" opacity=".15"/><path d="m24 36-24 4v24l48 24v-24z" opacity=".06"/><path d="m112 32-64 32-24-28 64-32z" fill="#39c" opacity=".6"/><path d="m33.7 32.2-8.2 4.1 22.7 26.4 8.2-4.1zm-6.5 4.4 6.3-3.2 21.3 24.9-6.3 3.2z" opacity=".15"/><path d="m34 31-10 5 24 28 10-5zm-8.4 5.3 8.2-4.1 22.7 26.4-8.2 4.1z" fill="#fff"/><path d="m87.7 5.2-8.2 4.1 22.7 26.4 8.2-4.1zm-6.5 4.4 6.3-3.2 21.3 24.9-6.3 3.2z" opacity=".15"/><path d="m88 4-10 5 24 28 10-5zm-8.4 5.3 8.2-4.1 22.7 26.4-8.2 4.1z" fill="#fff"/><path d="m69.7 14.2-8.2 4.1 22.7 26.4 8.2-4.1zm-6.5 4.4 6.3-3.2 21.3 24.9-6.3 3.2z" opacity=".15"/><path d="m70 13-10 5 24 28 10-5zm-8.4 5.3 8.2-4.1 22.7 26.4-8.2 4.1z" fill="#fff"/><path d="m51.7 23.2-8.2 4.1 22.7 26.4 8.2-4.1zm-6.5 4.4 6.3-3.2 21.3 24.9-6.3 3.2z" opacity=".15"/><path d="m52 22-10 5 24 28 10-5zm-8.4 5.3 8.2-4.1 22.7 26.4-8.2 4.1z" fill="#fff"/><path d="m42.7 27.7-8.2 4.1 22.7 26.4 8.2-4.1zm-6.5 4.4 6.3-3.2 21.3 24.9-6.3 3.2z" opacity=".15"/><path d="m43 26.5-10 5 24 28 10-5zm-8.4 5.3 8.2-4.1 22.7 26.4-8.2 4.1z" fill="#fff"/><path d="m78.7 9.7-8.2 4.1 22.7 26.4 8.2-4.1zm-6.5 4.4 6.3-3.2 21.3 24.9-6.3 3.2z" opacity=".15"/><path d="m79 8.5-10 5 24 28 10-5zm-8.4 5.3 8.2-4.1 22.7 26.4-8.2 4.1z" fill="#fff"/><path d="m60.7 18.7-8.2 4.1 22.7 26.4 8.2-4.1zm-6.5 4.4 6.3-3.2 21.3 24.9-6.3 3.2z" opacity=".15"/><path d="m61 17.5-10 5 24 28 10-5zm-8.4 5.3 8.2-4.1 22.7 26.4-8.2 4.1z" fill="#fff"/><path d="m112 32-64 32-24-28 64-32z" opacity=".29"/><path d="m24 36-24 4 64-32 24-4z" fill="#39c" opacity=".6"/><path d="m10.2 35.5-7 3.5 20.6-3.4 7-3.5zm13.5-.5-17.3 2.9 3.9-2 17.3-2.9z" opacity=".15"/><path d="m10 35-10 5 24-4 10-5zm13.8.5-20.6 3.5 7-3.5 20.6-3.5z" fill="#fff"/><path d="m64.2 8.5-7 3.5 20.6-3.4 7-3.5zm13.5-.5-17.3 2.9 3.9-2 17.3-2.9z" opacity=".15"/><path d="m64 8-10 5 24-4 10-5zm13.8.5-20.6 3.5 7-3.5 20.6-3.5z" fill="#fff"/><path d="m28.2 26.5-7 3.5 20.6-3.4 7-3.5zm13.5-.5-17.3 2.9 3.9-2 17.3-2.9z" opacity=".15"/><path d="m28 26-10 5 24-4 10-5zm13.8.5-20.6 3.5 7-3.5 20.6-3.5z" fill="#fff"/><path d="m46.2 17.5-7 3.5 20.6-3.4 7-3.5zm13.5-.5-17.3 2.9 3.9-2 17.3-2.9z" opacity=".15"/><path d="m46 17-10 5 24-4 10-5zm13.8.5-20.6 3.5 7-3.5 20.6-3.5z" fill="#fff"/><path d="m19.7 30.7-7 3.5 20.6-3.4 7-3.5zm13.5-.4-17.3 2.9 3.9-2 17.3-2.9z" opacity=".15"/><path d="m19.5 30.3-10 5 24-4 10-5zm13.8.5-20.6 3.4 7-3.5 20.6-3.4z" fill="#fff"/><path d="m37.7 21.7-7 3.5 20.6-3.4 7-3.5zm13.5-.4-17.3 2.9 3.9-2 17.3-2.9z" opacity=".15"/><path d="m37.5 21.3-10 5 24-4 10-5zm13.8.5-20.6 3.4 7-3.5 20.6-3.4z" fill="#fff"/><path d="m55.7 12.7-7 3.5 20.6-3.4 7-3.5zm13.5-.4-17.3 2.9 3.9-2 17.3-2.9z" opacity=".15"/><path d="m55.5 12.3-10 5 24-4 10-5zm13.8.5-20.6 3.4 7-3.5 20.6-3.4z" fill="#fff"/><path d="m24 36-24 4 64-32 24-4z" opacity=".11"/></svg>