<svg viewBox="0 0 160 240" xmlns="http://www.w3.org/2000/svg"><path d="m51.2 213.6c9.1-4.4 20.3-1.4 31 3.4s25.4 13.4 22.7 16.6-30.5-1.7-40-5.5-21.5-10.7-13.7-14.5z" opacity=".2"/><path d="m75.6 76.3 3.3.1.2 7.3-6.2-.2z" fill="#fbd7c7"/><path d="m71.2 74.5c0-6.5-11.2-11.8-24.9-11.8s-24.9 5.3-24.9 11.8c0 4.7 5.6 27.4 5.6 29.5 0 5.1 8.7 9.2 19.4 9.2s19.4-4.1 19.4-9.2c-.1-2.1 5.4-24.8 5.4-29.5z" fill="#825012"/><ellipse cx="46.3" cy="74.9" opacity=".2" rx="22.8" ry="10.8"/><path d="m68.4 77.6c-.1-3.9-3.3-7-7.2-7-.3 0-.7 0-1 .1-.6-3.4-3.6-5.9-7.1-5.9-2.7 0-5.1 1.5-6.3 3.7-1.3-2-3.5-3.4-6.1-3.4-3.3 0-6.1 2.2-6.9 5.2-.6-.1-1.2-.2-1.8-.2-4 0-7.2 3.2-7.2 7.2 0 .3 0 .6.1 1 1.7 2.4 5.2 4.5 9.7 5.8.1 0 .4 0 .5.1 3.4.9 7.3 1.5 11.4 1.5 4 0 7.7-.5 10.9-1.3.1-.1.4-.2.5-.1 5-1.5 8.9-3.8 10.5-6.7z" fill="#cc291f"/><g fill="#fff"><circle cx="39.6" cy="77.8" opacity=".2" r="3"/><circle cx="52.2" cy="68.9" opacity=".2" r="3"/><circle cx="49.3" cy="77.7" opacity=".2" r="3"/><circle cx="59.8" cy="76.1" opacity=".2" r="3"/><circle cx="40.4" cy="69.9" opacity=".2" r="3"/><circle cx="29.7" cy="75.5" opacity=".2" r="3"/></g><path d="m78.5 76.1-.1 7.9s6.6.3 9.4.1c2.7-.2 5.9-1.8 5.9-4 .1-2.3-4.3-9.1-5.1-12.2s-1.8-11.3-4.8-14c-3-2.6-9.3-2-11.2-2s-9.5 1.9-13.1 3.7-11.8 5.1-14 7.3c-1.7 1.7-3.7 7.6-3.9 9.3-.2 1.6-.2 5 .9 8.2s3.6 3.4 3.9 6.8-.7 19.2-.7 19.2 14.4-1.2 19.5-2.3 11.1-4.2 11.1-4.2-1.1-11.9-.5-18.3c.6-6 2.5-10.5 2.5-10.5l3 4.9z" fill="#f90"/><path d="m22.2 81.9s.1-3.2.8-3.3c.9-.2 1.6.3 1.7 2.1s1.2 3 1.9 3.6 1.5 1.6 1.8 2.9.2 2.5 2.1 3c2.8.6 9 .1 9 .1l.3 8.4s-9-1.4-11.6-3.7-6.8-7.1-7.5-8.6c-.8-1.5-.8-4.5-.6-5.7s1.3-3 1.6-3.2.5 4.4.5 4.4z" fill="#fbd7c7"/><path d="m45.6 104s-2 9.8-2.4 15.2-1.3 18.7.9 27.2 6 25.4 7 29.7 6.7 21.5 7.6 26.8c1.3 7.8 1.1 13.2 1.6 14.3s9.7.8 11.3-.2c1.7-1 1.7-7.8 1-12.2-.6-4.4-4-25.7-5.9-30.5s-3.5-17.2-2.7-22c.7-4.8 1.9-16 1.9-16s.5 14.6 2.1 18.2c2.9 6.7 9.8 13.1 12.7 17s15.7 19.9 17.6 23.4 4 7.6 4 7.6l8.2-6.7s-3.3-10.8-7-16.9-10.9-15-14.1-18.6-5.9-6.7-6.6-9.9c-.7-3.3 3.1-21.4 2.1-28.7-1.2-8.2-3.3-15.4-5.5-19.8-1.9-3.9-3.2-11-3.2-11-1.1.2-2.1-1.8-2-2.9.4-5.2 2-13.2 2.3-19 .3-5.9-1.7-17.1-1.7-17.1l-3.5.8s3 8.2 1.8 20.7c-1.1 12.1-2 12.3-2 12.3l-9.7 1.8s.2-14.7-1.5-19.9-6.2-9.6-6.2-9.6l-3.4 1.7s4.2 2.3 6.2 8.6c1.4 4.6 1.8 11.7 1.6 14.6s-.8 10.4-1.1 10.7c-.2.3-2.6 2.6-5.4 3.3-2.7.6-5.9.8-5.9.8s.3 3.9-.1 6.3z" fill="#28896d"/><path d="m59.2 211.1s-.9 2.6-1.3 2.6c-1.3-.2-5 .1-6.2.8-2.4 1.4-.6 4.9 1.6 6.7 2.2 1.7 9.6 2.7 9.6 2.7s-.2.6.8 1.1 7.7 2.1 8.8 1.1 1.5-4.6 1.9-7.4c.5-3.5.3-7.6.3-7.6s-3.7 1.6-8.4 1.6c-4.7.1-7.1-1.6-7.1-1.6z" fill="#825012"/><path d="m100 199.6c1.1 2.8 2.4 6.3 2 9.7s-.3 8.3 1.9 9.2c2.2.8 8-4.9 9.3-7.1 1.2-2.2 1.3-4.5 1.3-4.5l2.3-.8s2.5-3.2 2.3-4.5-3.3-4.6-4.7-5.9c-1.5-1.3-4.2-5.6-4.2-5.6s-2.4 3.5-4.4 5.1c-1.9 1.5-5.8 4.4-5.8 4.4z" fill="#825012"/><path d="m119.1 201.6c-.1-.4-.4-1-1-1.7-.9.1-1.9.4-2.9 1.1-1.5 1-6.7 7.1-9.2 10.3-1.8 2.3-2.6 5.1-2.5 7 .1.1.3.2.4.2 2.2.8 8-4.9 9.3-7.1 1.2-2.2 1.3-4.5 1.3-4.5l2.3-.8s2.5-3.2 2.3-4.5z" opacity=".5"/><path d="m46.5 33.3c-.5 2.6 1.1 8.8 3.1 12.2 2 3.3 2.7 3.8 3.4 4s1.9-.3 2.3.7 1.7 4.5 1.8 5.7.1 1.2.1 1.2 3.8-1.9 6-1.8 5.9-2.8 5.8-3.3-2.9-6.3-2.2-8.5c.6-2.5 2.3-11.5-.4-15.5s-18.1-4.8-19.9 5.3z" fill="#fbd7c7"/><path d="m46.2 35.5c.5 1.8 2.3 3.2 3.1 3.4.7.3 1.2-.5 2.1.6s3 6.4 5.6 7.3 8-.1 9.8-3.6c1.9-3.6 3-12.5-1.6-17.2-4.2-4.3-10.9-4.6-15.2-1s-4.3 8.7-3.8 10.5z" fill="#762c07"/><path d="m64.3 38.3c-2.9.7-4 3.2-3.6 4.1s6.3-.2 6.7-2.4c.5-2.1-.8-2.2-3.1-1.7z" fill="#f90"/><path d="m64.5 39.4c-2 .7-5.3 4.3-4.6 9.1s5.9 7.1 6.5 10.5-2.8 6.7-2.8 6.7 14.6-5.3 11.7-16.5c-2.8-11.3-8.4-10.7-10.8-9.8z" fill="#762c07"/><path d="m49 64.1c3.1-.5 7 2.5 6.1 8.7-.8 6.1-2.3 14.2-3 18.5-.7 4.4-.3 8.5-4 8.7-3.7.1-7.4-.3-8.9-.6s-2.6-.8-2.6-.8-.1-3.9.1-5.4.6-2.9.6-2.9l6.4-.5s.4-4.2.2-7.5-3.2-16.8 5.1-18.2z" fill="#f90"/><path d="m72.5 226.1c.3-.3.6-.8.8-1.4-.1 0-.3 0-.4 0-6.3-.4-8.2-1.4-9.8-1.9s-3.6-.5-7.2-1.6c-2.8-.8-4.4-2.9-5.3-5.1-.2 1.6 1.2 3.8 2.7 5.1 2.2 1.7 9.6 2.7 9.6 2.7s-.2.6.8 1.1 7.7 2.1 8.8 1.1z" opacity=".5"/></svg>