<svg viewBox="0 0 128 72" xmlns="http://www.w3.org/2000/svg"><path d="m64 8 64 32-64 32-64-32z" fill="#9c3"/><path d="m64 8 64 32-64 32-64-32z" fill="#9c3"/><path d="m64 8 64 32-64 32-64-32z" fill="#9c3"/><path d="m64 8 64 32-64 32-64-32z" fill="#9c3"/><ellipse cx="56" cy="20" opacity=".2" rx="6" ry="2"/><g fill="#825012"><path d="m57 8v11.5c0 .4-.4.7-1 .7s-1-.3-1-.7v-12.5z"/><path d="m56 12.4c-2.6 0-3-.9-3-3.4v-3l-1-1v6c0 1.7 1.3 3 3 3h1z"/><path d="m57 13.8c1.7 0 3-.4 3-2.1v-1.7h1v2c0 1.7-1.3 3-3 3h-1z"/><path d="m53 10.8c-1.7 0-2-1.3-2-2.1v-3.7l-1-1v5c0 1.7 1.3 3 3 3z"/><path d="m46 2 22 11v1l-22-11z"/></g><path d="m71.9 15.9s-.4-1.9-.5-2.3c-.1-.5-1.6-1-1.6-1s.3 0 1.1.1c.7.1 1.2-.4 1.2-.4s-.4-.6-.7-1.2-1.5-.7-1.5-.7l.8-.3s-1.1-1.1-2.6-.7c-1.3.3-1.4 1.2-1.4 1.4-.2 0-1.1.1-1.4 1.4-.3 1.5.7 2.6.7 2.6l.3-.8s.1 1.1.7 1.5c.6.3 1.2.7 1.2.7s.6-.4.4-1.2c-.1-.7-.1-1.1-.1-1.1s.5 1.5 1 1.6 2.4.4 2.4.4z" fill="#539b00"/><path d="m67 12.3c0-.5-.3-.8-.7-1 0-.1.1-.2.1-.4 0-.6-.4-1-1-1-.3 0-.5.1-.7.3-.2-.1-.4-.2-.7-.2s-.5.1-.7.3c-.2-.2-.4-.3-.7-.3-.6 0-1 .4-1 1 0 .1 0 .3.1.4-.4.1-.7.5-.7 1s.3.8.7 1c0 .1-.1.2-.1.4 0 .5.3.8.7 1 0 .1-.1.2-.1.4 0 .5.3.8.7 1 0 .1-.1.2-.1.4 0 .6.4 1 1 1s1-.4 1-1c0-.1 0-.3-.1-.4.4-.1.7-.5.7-1 0-.1 0-.3-.1-.4.4-.1.7-.5.7-1 0-.1 0-.3-.1-.4.8-.2 1.1-.6 1.1-1.1z" fill="#939"/><path d="m65.2 7.2s-1.8-.5-2.3-.7c-.5-.1-1.6 1-1.6 1s.2-.3.6-.9.2-1.2.2-1.2-.7.1-1.4.1-1.3 1-1.3 1l.1-.9s-1.5.5-1.9 1.9c-.4 1.3.5 1.8.6 1.9-.1.2-.5 1 .6 1.9 1.1 1 2.6.5 2.6.5l-.6-.6s1.1.4 1.6 0c.6-.4 1.2-.7 1.2-.7s-.1-.7-.8-.9-1-.4-1-.4 1.6.3 1.9-.1 1.5-1.9 1.5-1.9z" fill="#539b00"/><path d="m59.3 14s-.1-1.9-.1-2.4-1.4-1.2-1.4-1.2.3.1 1 .3 1.2-.2 1.2-.2-.3-.6-.5-1.3-1.3-.9-1.3-.9l.8-.3s-1-1.2-2.4-1.1-1.6 1-1.6 1.2c-.2 0-1.1-.1-1.6 1.1-.5 1.4.3 2.7.3 2.7l.4-.8s-.1 1.1.5 1.6c.6.4 1.1.9 1.1.9s.6-.4.6-1.1 0-1.1 0-1.1.3 1.6.7 1.7c.5.2 2.3.9 2.3.9z" fill="#539b00"/><path d="m49.3 7.2s1.6 1 2 1.3 1.8-.4 1.8-.4-.2.2-.8.7c-.6.4-.5 1.1-.5 1.1s.7.1 1.4.3 1.5-.5 1.5-.5l-.4.8s1.6-.1 2.4-1.3c.7-1.1.1-1.8 0-2 .1-.1.8-.8 0-2-.8-1.3-2.4-1.3-2.4-1.3l.4.8s-.9-.7-1.6-.5-1.4.3-1.4.3-.1.7.5 1.1.8.6.8.6-1.5-.7-1.8-.4-1.9 1.4-1.9 1.4z" fill="#539b00"/><path d="m45.4 1.4s.7 1.8.9 2.2 1.8.7 1.8.7-.3.1-1.1.1-1 .6-1 .6.5.5.9 1.1 1.6.4 1.6.4l-.8.4s1.3.8 2.7.2c1.2-.5 1.1-1.5 1.1-1.6.2 0 1.1-.3 1.1-1.6 0-1.5-1.2-2.4-1.2-2.4l-.1.9s-.3-1.1-1-1.3-1.3-.5-1.3-.5-.5.5-.2 1.2.3 1 .3 1-.8-1.4-1.3-1.4c-.4 0-2.4 0-2.4 0z" fill="#539b00"/><path d="m58 8c0-.5-.3-.8-.7-1 0-.1.1-.2.1-.4 0-.6-.4-1-1-1-.3 0-.5.1-.7.3-.2-.2-.4-.3-.7-.3s-.5.1-.7.3c-.2-.2-.4-.3-.7-.3-.6 0-1 .4-1 1 0 .1 0 .3.1.4-.4.2-.7.5-.7 1s.3.8.7 1c0 .1-.1.2-.1.4 0 .5.3.8.7 1 0 .1-.1.2-.1.4 0 .5.3.8.7 1 0 .1-.1.2-.1.4 0 .6.4 1 1 1s1-.4 1-1c0-.1 0-.3-.1-.4.4-.1.7-.5.7-1 0-.1 0-.3-.1-.4.4-.1.7-.5.7-1 0-.1 0-.3-.1-.4.8-.2 1.1-.5 1.1-1z" fill="#939"/><path d="m50 5.3c0-.5-.3-.8-.7-1 0-.1.1-.2.1-.4 0-.6-.4-1-1-1-.3 0-.5.1-.7.3-.2-.1-.4-.2-.7-.2s-.5.1-.7.3c-.1-.2-.4-.3-.6-.3-.6 0-1 .4-1 1 0 .1 0 .3.1.4-.4.1-.7.5-.7 1s.3.8.7 1c0 .1-.1.2-.1.4 0 .5.3.8.7 1 0 .1-.1.2-.1.4 0 .5.3.8.7 1 0-.1 0 0 0 .1 0 .6.4 1 1 1s1-.4 1-1c0-.1 0-.3-.1-.4.4-.1.7-.5.7-1 0-.1 0-.3-.1-.4.4-.1.7-.5.7-1 0-.1 0-.3-.1-.4.6.1.9-.3.9-.8z" fill="#939"/><path d="m40.5 7.6s1.8-.5 2.3-.7c.5-.1.9-1.7.9-1.7s0 .3 0 1.1.5 1.1.5 1.1.5-.5 1.2-.8c.6-.4.6-1.5.6-1.5l.3.8s1-1.2.5-2.6c-.4-1.3-1.4-1.3-1.5-1.3 0-.2-.1-1.1-1.5-1.3-1.5-.2-2.5.9-2.5.9l.8.2s-1.1.2-1.4.8c-.3.8-.6 1.4-.6 1.4s.5.5 1.2.3 1-.2 1-.2-1.5.6-1.5 1.1-.3 2.4-.3 2.4z" fill="#539b00"/><ellipse cx="72" cy="28" opacity=".2" rx="6" ry="2"/><path d="m73 16v11.5c0 .4-.4.7-1 .7s-1-.3-1-.7v-12.5z" fill="#825012"/><path d="m72 20.4c-2.6 0-3-.9-3-3.4v-3l-1-1v6c0 1.7 1.3 3 3 3h1z" fill="#825012"/><path d="m73 21.8c1.7 0 3-.4 3-2.1v-1.7h1v2c0 1.7-1.3 3-3 3h-1z" fill="#825012"/><path d="m69 18.8c-1.7 0-2-1.3-2-2.1v-3.7l-1-1v5c0 1.7 1.3 3 3 3z" fill="#825012"/><path d="m62 10 22 11v1l-22-11z" fill="#825012"/><path d="m87.9 23.9s-.4-1.9-.5-2.3c-.1-.5-1.6-1-1.6-1s.3 0 1.1.1c.7.1 1.2-.4 1.2-.4s-.4-.6-.7-1.2-1.5-.7-1.5-.7l.8-.3s-1.1-1.1-2.6-.7c-1.3.3-1.4 1.2-1.4 1.4-.2 0-1.1.1-1.4 1.4-.3 1.5.7 2.6.7 2.6l.3-.8s.1 1.1.7 1.5c.6.3 1.2.7 1.2.7s.6-.4.4-1.2c-.1-.7-.1-1.1-.1-1.1s.5 1.5 1 1.6c.5 0 2.4.4 2.4.4z" fill="#539b00"/><path d="m83 20.3c0-.5-.3-.8-.7-1 0-.1.1-.2.1-.4 0-.6-.4-1-1-1-.3 0-.5.1-.7.3-.2-.1-.4-.2-.7-.2s-.5.1-.7.3c-.2-.2-.4-.3-.7-.3-.6 0-1 .4-1 1 0 .1 0 .3.1.4-.4.1-.7.5-.7 1s.3.8.7 1c0 .1-.1.2-.1.4 0 .5.3.8.7 1 0 .1-.1.2-.1.4 0 .5.3.8.7 1 0 .1-.1.2-.1.4 0 .6.4 1 1 1s1-.4 1-1c0-.1 0-.3-.1-.4.4-.1.7-.5.7-1 0-.1 0-.3-.1-.4.4-.1.7-.5.7-1 0-.1 0-.3-.1-.4.8-.2 1.1-.6 1.1-1.1z" fill="#939"/><path d="m81.2 15.2s-1.8-.5-2.3-.7c-.5-.1-1.6 1-1.6 1s.2-.3.6-.9.2-1.2.2-1.2-.7.1-1.4.1-1.3 1-1.3 1l.1-.9s-1.5.5-1.9 1.9c-.4 1.3.5 1.8.6 1.9-.1.2-.5 1 .6 1.9 1.1 1 2.6.5 2.6.5l-.6-.6s1.1.4 1.6 0c.6-.4 1.2-.7 1.2-.7s-.1-.7-.8-.9-1-.4-1-.4 1.6.3 1.9-.1 1.5-1.9 1.5-1.9z" fill="#539b00"/><path d="m75.3 22s-.1-1.9-.1-2.4-1.4-1.2-1.4-1.2.3.1 1 .3 1.2-.2 1.2-.2-.3-.6-.5-1.3-1.3-.9-1.3-.9l.8-.3s-1-1.2-2.4-1.1c-1.3.1-1.5 1-1.6 1.2-.2 0-1.1-.1-1.6 1.1-.5 1.4.3 2.7.3 2.7l.4-.8s-.1 1.1.5 1.6c.6.4 1.1.9 1.1.9s.6-.4.6-1.1 0-1.1 0-1.1.3 1.6.7 1.7c.5.2 2.3.9 2.3.9z" fill="#539b00"/><path d="m65.3 15.2s1.6 1 2 1.3 1.8-.4 1.8-.4-.2.2-.8.7-.5 1.1-.5 1.1.7.1 1.4.3 1.5-.5 1.5-.5l-.4.8s1.6-.1 2.4-1.3c.7-1.1.1-1.8 0-2 .1-.1.8-.8 0-2-.8-1.3-2.4-1.3-2.4-1.3l.4.8s-.9-.7-1.6-.5-1.4.3-1.4.3-.1.7.5 1.1.8.6.8.6-1.5-.7-1.8-.4-1.9 1.4-1.9 1.4z" fill="#539b00"/><path d="m61.4 9.4s.7 1.8.9 2.2 1.8.7 1.8.7-.3.1-1.1.1c-.7 0-1 .6-1 .6s.5.5.9 1.1 1.6.4 1.6.4l-.8.4s1.3.8 2.7.2c1.2-.5 1.1-1.5 1.1-1.6.2 0 1.1-.3 1.1-1.6 0-1.5-1.2-2.4-1.2-2.4l-.1.9s-.3-1.1-1-1.3-1.3-.5-1.3-.5-.5.5-.2 1.2.3 1 .3 1-.8-1.4-1.3-1.4c-.4 0-2.4 0-2.4 0z" fill="#539b00"/><path d="m74 16c0-.5-.3-.8-.7-1 0-.1.1-.2.1-.4 0-.6-.4-1-1-1-.3 0-.5.1-.7.3-.2-.2-.4-.3-.7-.3s-.5.1-.7.3c-.2-.2-.4-.3-.7-.3-.6 0-1 .4-1 1 0 .1 0 .3.1.4-.4.1-.7.5-.7 1s.3.8.7 1c0 .1-.1.2-.1.4 0 .5.3.8.7 1 0 .1-.1.2-.1.4 0 .5.3.8.7 1 0 .1-.1.2-.1.4 0 .6.4 1 1 1s1-.4 1-1c0-.1 0-.3-.1-.4.4-.1.7-.5.7-1 0-.1 0-.3-.1-.4.4-.1.7-.5.7-1 0-.1 0-.3-.1-.4.8-.2 1.1-.5 1.1-1z" fill="#939"/><path d="m66 13.3c0-.5-.3-.8-.7-1 0-.1.1-.2.1-.4 0-.6-.4-1-1-1-.3 0-.5.1-.7.3-.2-.1-.4-.2-.7-.2s-.5.1-.7.3c-.2-.2-.4-.3-.7-.3-.6 0-1 .4-1 1 0 .1 0 .3.1.4-.4.1-.7.5-.7 1s.3.8.7 1c0 .1-.1.2-.1.4 0 .5.3.8.7 1 0 .1-.1.2-.1.4 0 .5.3.8.7 1 0 .1-.1.2-.1.4 0 .6.4 1 1 1s1-.4 1-1c0-.1 0-.3-.1-.4.4-.1.7-.5.7-1 0-.1 0-.3-.1-.4.4-.1.7-.5.7-1 0-.1 0-.3-.1-.4.8-.2 1.1-.6 1.1-1.1z" fill="#939"/><path d="m56.5 15.6s1.8-.5 2.3-.7c.5-.1.9-1.7.9-1.7s0 .3 0 1.1c-.1.7.5 1.1.5 1.1s.5-.5 1.2-.8c.6-.4.6-1.5.6-1.5l.3.8s1-1.2.5-2.6c-.4-1.3-1.4-1.3-1.5-1.3 0-.2-.1-1.1-1.5-1.3-1.5-.2-2.5.9-2.5.9l.8.2s-1.1.2-1.4.8c-.3.7-.6 1.3-.6 1.3s.5.5 1.2.3 1-.2 1-.2-1.5.6-1.5 1.1c0 .6-.3 2.5-.3 2.5z" fill="#539b00"/><ellipse cx="88" cy="36" opacity=".2" rx="6" ry="2"/><path d="m89 24v11.5c0 .4-.4.7-1 .7s-1-.3-1-.7v-12.5z" fill="#825012"/><path d="m88 28.4c-2.6 0-3-.9-3-3.4v-3l-1-1v6c0 1.7 1.3 3 3 3h1z" fill="#825012"/><path d="m89 29.8c1.7 0 3-.4 3-2.1v-1.7h1v2c0 1.7-1.3 3-3 3h-1z" fill="#825012"/><path d="m85 26.8c-1.7 0-2-1.3-2-2.1v-3.7l-1-1v5c0 1.7 1.3 3 3 3z" fill="#825012"/><path d="m78 18 22 11v1l-22-11z" fill="#825012"/><path d="m103.9 31.9s-.4-1.9-.5-2.3c-.1-.5-1.6-1-1.6-1s.3 0 1.1.1c.7.1 1.2-.4 1.2-.4s-.4-.6-.7-1.2-1.5-.7-1.5-.7l.8-.3s-1.1-1.1-2.6-.7c-1.3.3-1.4 1.2-1.4 1.4-.2 0-1.1.1-1.4 1.4-.3 1.5.7 2.6.7 2.6l.3-.8s.1 1.1.7 1.5c.6.3 1.2.7 1.2.7s.6-.4.4-1.2c-.1-.7-.1-1.1-.1-1.1s.5 1.5 1 1.6c.5 0 2.4.4 2.4.4z" fill="#539b00"/><path d="m99 28.3c0-.5-.3-.8-.7-1 0-.1.1-.2.1-.4 0-.6-.4-1-1-1-.3 0-.5.1-.7.3-.2-.1-.4-.2-.7-.2s-.5.1-.7.3c-.2-.2-.4-.3-.7-.3-.6 0-1 .4-1 1 0 .1 0 .3.1.4-.4.1-.7.5-.7 1s.3.8.7 1c0 .1-.1.2-.1.4 0 .5.3.8.7 1 0 .1-.1.2-.1.4 0 .5.3.8.7 1 0 .1-.1.2-.1.4 0 .6.4 1 1 1s1-.4 1-1c0-.1 0-.3-.1-.4.4-.1.7-.5.7-1 0-.1 0-.3-.1-.4.4-.1.7-.5.7-1 0-.1 0-.3-.1-.4.8-.2 1.1-.6 1.1-1.1z" fill="#939"/><path d="m97.2 23.2s-1.8-.5-2.3-.7c-.5-.1-1.6 1-1.6 1s.2-.3.6-.9.2-1.2.2-1.2-.7.1-1.4.1-1.3 1-1.3 1l.1-.9s-1.5.5-1.9 1.9c-.4 1.3.5 1.8.6 1.9-.1.2-.5 1 .6 1.9 1.1 1 2.6.5 2.6.5l-.6-.6s1.1.4 1.6 0c.6-.4 1.2-.7 1.2-.7s-.1-.7-.8-.9-1-.4-1-.4 1.6.3 1.9-.1 1.5-1.9 1.5-1.9z" fill="#539b00"/><path d="m91.3 30s-.1-1.9-.1-2.4-1.4-1.2-1.4-1.2.3.1 1 .3 1.2-.2 1.2-.2-.3-.6-.5-1.3-1.3-.9-1.3-.9l.8-.3s-1-1.2-2.4-1.1c-1.3.1-1.5 1-1.6 1.2-.2 0-1.1-.1-1.6 1.1-.5 1.4.3 2.7.3 2.7l.4-.8s-.1 1.1.5 1.6c.6.4 1.1.9 1.1.9s.6-.4.6-1.1 0-1.1 0-1.1.3 1.6.7 1.7c.5.2 2.3.9 2.3.9z" fill="#539b00"/><path d="m81.3 23.2s1.6 1 2 1.3 1.8-.4 1.8-.4-.2.2-.8.7-.5 1.1-.5 1.1.7.1 1.4.3 1.5-.5 1.5-.5l-.4.8s1.6-.1 2.4-1.3c.7-1.1.1-1.8 0-2 .1-.1.8-.8 0-2-.8-1.3-2.4-1.3-2.4-1.3l.4.8s-.9-.7-1.6-.5-1.4.3-1.4.3-.1.7.5 1.1.8.6.8.6-1.5-.7-1.8-.4-1.9 1.4-1.9 1.4z" fill="#539b00"/><path d="m77.4 17.4s.7 1.8.9 2.2 1.8.7 1.8.7-.3.1-1.1.1-1 .6-1 .6.5.5.9 1.1 1.6.4 1.6.4l-.8.4s1.3.8 2.7.2c1.2-.5 1.1-1.5 1.1-1.6.2 0 1.1-.3 1.1-1.6 0-1.5-1.2-2.4-1.2-2.4l-.1.9s-.3-1.1-1-1.3-1.3-.5-1.3-.5-.5.5-.2 1.2.3 1 .3 1-.8-1.4-1.3-1.4c-.4 0-2.4 0-2.4 0z" fill="#539b00"/><path d="m90 24c0-.5-.3-.8-.7-1 0-.1.1-.2.1-.4 0-.6-.4-1-1-1-.3 0-.5.1-.7.3-.2-.2-.4-.3-.7-.3s-.5.1-.7.3c-.2-.2-.4-.3-.7-.3-.6 0-1 .4-1 1 0 .1 0 .3.1.4-.4.1-.7.5-.7 1s.3.8.7 1c0 .1-.1.2-.1.4 0 .5.3.8.7 1 0 .1-.1.2-.1.4 0 .5.3.8.7 1 0 .1-.1.2-.1.4 0 .6.4 1 1 1s1-.4 1-1c0-.1 0-.3-.1-.4.4-.1.7-.5.7-1 0-.1 0-.3-.1-.4.4-.1.7-.5.7-1 0-.1 0-.3-.1-.4.8-.2 1.1-.5 1.1-1z" fill="#939"/><path d="m82 21.3c0-.5-.3-.8-.7-1 0-.1.1-.2.1-.4 0-.6-.4-1-1-1-.3 0-.5.1-.7.3-.2-.1-.4-.2-.7-.2s-.5.1-.7.3c-.2-.2-.4-.3-.7-.3-.6 0-1 .4-1 1 0 .1 0 .3.1.4-.4.1-.7.5-.7 1s.3.8.7 1c0 .1-.1.2-.1.4 0 .5.3.8.7 1 0 .1-.1.2-.1.4 0 .5.3.8.7 1 0 .1-.1.2-.1.4 0 .6.4 1 1 1s1-.4 1-1c0-.1 0-.3-.1-.4.4-.1.7-.5.7-1 0-.1 0-.3-.1-.4.4-.1.7-.5.7-1 0-.1 0-.3-.1-.4.8-.2 1.1-.6 1.1-1.1z" fill="#939"/><path d="m72.5 23.6s1.8-.5 2.3-.7c.5-.1.9-1.7.9-1.7s0 .3 0 1.1c-.1.7.5 1.1.5 1.1s.5-.5 1.2-.8c.6-.4.6-1.5.6-1.5l.3.8s1-1.2.5-2.6c-.4-1.3-1.4-1.3-1.5-1.3 0-.2-.1-1.1-1.5-1.3-1.5-.2-2.5.9-2.5.9l.8.2s-1.1.2-1.4.8c-.3.7-.6 1.3-.6 1.3s.5.5 1.2.3 1-.2 1-.2-1.5.6-1.5 1.1c0 .6-.3 2.5-.3 2.5z" fill="#539b00"/><ellipse cx="104" cy="44" opacity=".2" rx="6" ry="2"/><path d="m105 32v11.5c0 .4-.4.7-1 .7s-1-.3-1-.7v-12.5z" fill="#825012"/><path d="m104 36.4c-2.6 0-3-.9-3-3.4v-3l-1-1v6c0 1.7 1.3 3 3 3h1z" fill="#825012"/><path d="m105 37.8c1.7 0 3-.4 3-2.1v-1.7h1v2c0 1.7-1.3 3-3 3h-1z" fill="#825012"/><path d="m101 34.8c-1.7 0-2-1.3-2-2.1v-3.7l-1-1v5c0 1.7 1.3 3 3 3z" fill="#825012"/><path d="m94 26 22 11v1l-22-11z" fill="#825012"/><path d="m119.9 39.9s-.4-1.9-.5-2.3c-.1-.5-1.6-1-1.6-1s.3 0 1.1.1c.7.1 1.2-.4 1.2-.4s-.4-.6-.7-1.2-1.5-.7-1.5-.7l.8-.3s-1.1-1.1-2.6-.7c-1.3.3-1.4 1.2-1.4 1.4-.2 0-1.1.1-1.4 1.4-.3 1.5.7 2.6.7 2.6l.3-.8s.1 1.1.7 1.5c.6.3 1.2.7 1.2.7s.6-.4.4-1.2c-.1-.7-.1-1.1-.1-1.1s.5 1.5 1 1.6 2.4.4 2.4.4z" fill="#539b00"/><path d="m115 36.3c0-.5-.3-.8-.7-1 0-.1.1-.2.1-.4 0-.6-.4-1-1-1-.3 0-.5.1-.7.3-.2-.2-.4-.3-.7-.3s-.5.1-.7.3c-.2-.2-.4-.3-.7-.3-.6 0-1 .4-1 1 0 .1 0 .3.1.4-.4.1-.7.5-.7 1s.3.8.7 1c0 .1-.1.2-.1.4 0 .5.3.8.7 1 0 .1-.1.2-.1.4 0 .5.3.8.7 1 0 .1-.1.2-.1.4 0 .6.4 1 1 1s1-.4 1-1c0-.1 0-.3-.1-.4.4-.1.7-.5.7-1 0-.1 0-.3-.1-.4.4-.1.7-.5.7-1 0-.1 0-.3-.1-.4.8-.1 1.1-.5 1.1-1z" fill="#939"/><path d="m113.2 31.2s-1.8-.5-2.3-.7c-.5-.1-1.6 1-1.6 1s.2-.3.6-.9.2-1.2.2-1.2-.7.1-1.4.1-1.3 1-1.3 1l.1-.9s-1.5.5-1.9 1.9c-.4 1.3.5 1.8.6 1.9-.1.2-.5 1 .6 1.9 1.1 1 2.6.5 2.6.5l-.6-.6s1.1.4 1.6 0c.6-.4 1.2-.7 1.2-.7s-.1-.7-.8-.9-1-.4-1-.4 1.6.3 1.9-.1 1.5-1.9 1.5-1.9z" fill="#539b00"/><path d="m107.3 38s-.1-1.9-.1-2.4-1.4-1.2-1.4-1.2.3.1 1 .3 1.2-.2 1.2-.2-.3-.6-.5-1.3-1.3-.9-1.3-.9l.8-.3s-1-1.2-2.4-1.1c-1.3.1-1.5 1-1.6 1.2-.2 0-1.1-.1-1.6 1.1-.5 1.4.3 2.7.3 2.7l.4-.8s-.1 1.1.5 1.6c.6.4 1.1.9 1.1.9s.6-.4.6-1.1 0-1.1 0-1.1.3 1.6.7 1.7c.5.2 2.3.9 2.3.9z" fill="#539b00"/><path d="m97.3 31.2s1.6 1 2 1.3 1.8-.4 1.8-.4-.2.2-.8.7-.5 1.1-.5 1.1.7.1 1.4.3 1.5-.5 1.5-.5l-.4.8s1.6-.1 2.4-1.3c.7-1.1.1-1.8 0-2 .1-.1.8-.8 0-2-.8-1.3-2.4-1.3-2.4-1.3l.4.8s-.9-.7-1.6-.5-1.4.3-1.4.3-.1.7.5 1.1.8.6.8.6-1.5-.7-1.8-.4-1.9 1.4-1.9 1.4z" fill="#539b00"/><path d="m93.4 25.4s.7 1.8.9 2.2 1.8.7 1.8.7-.3.1-1.1.1-1 .6-1 .6.5.5.9 1.1 1.6.4 1.6.4l-.8.4s1.3.8 2.7.2c1.2-.5 1.1-1.5 1.1-1.6.2 0 1.1-.3 1.1-1.6 0-1.5-1.2-2.4-1.2-2.4l-.1.9s-.3-1.1-1-1.3-1.3-.5-1.3-.5-.5.5-.2 1.2.3 1 .3 1-.8-1.4-1.3-1.4c-.4 0-2.4 0-2.4 0z" fill="#539b00"/><path d="m106 32c0-.5-.3-.8-.7-1 0-.1.1-.2.1-.4 0-.6-.4-1-1-1-.3 0-.5.1-.7.3-.2-.2-.4-.3-.7-.3s-.5.1-.7.3c-.2-.2-.4-.3-.7-.3-.6 0-1 .4-1 1 0 .1 0 .3.1.4-.4.1-.7.5-.7 1s.3.8.7 1c0 .1-.1.2-.1.4 0 .5.3.8.7 1 0 .1-.1.2-.1.4 0 .5.3.8.7 1 0 .1-.1.2-.1.4 0 .6.4 1 1 1s1-.4 1-1c0-.1 0-.3-.1-.4.4-.1.7-.5.7-1 0-.1 0-.3-.1-.4.4-.1.7-.5.7-1 0-.1 0-.3-.1-.4.8-.2 1.1-.5 1.1-1z" fill="#939"/><path d="m98 29.3c0-.5-.3-.8-.7-1 0-.1.1-.2.1-.4 0-.6-.4-1-1-1-.3 0-.5.1-.7.3-.2-.1-.4-.2-.7-.2s-.5.1-.7.3c-.2-.2-.4-.3-.7-.3-.6 0-1 .4-1 1 0 .1 0 .3.1.4-.4.1-.7.5-.7 1s.3.8.7 1c0 .1-.1.2-.1.4 0 .5.3.8.7 1 0 .1-.1.2-.1.4 0 .5.3.8.7 1 0 .1-.1.2-.1.4 0 .6.4 1 1 1s1-.4 1-1c0-.1 0-.3-.1-.4.4-.1.7-.5.7-1 0-.1 0-.3-.1-.4.4-.1.7-.5.7-1 0-.1 0-.3-.1-.4.8-.2 1.1-.6 1.1-1.1z" fill="#939"/><path d="m88.5 31.6s1.8-.5 2.3-.7c.5-.1.9-1.7.9-1.7s0 .3 0 1.1c-.1.7.5 1.1.5 1.1s.5-.5 1.2-.8c.6-.4.6-1.5.6-1.5l.3.8s1-1.2.5-2.6c-.4-1.3-1.4-1.3-1.5-1.3 0-.2-.1-1.1-1.5-1.3-1.5-.2-2.5.9-2.5.9l.8.2s-1.1.2-1.4.8c-.3.7-.6 1.3-.6 1.3s.5.5 1.2.3 1-.2 1-.2-1.5.6-1.5 1.1c0 .6-.3 2.5-.3 2.5z" fill="#539b00"/><ellipse cx="24" cy="36" opacity=".2" rx="6" ry="2"/><path d="m25 24v11.5c0 .4-.4.7-1 .7s-1-.3-1-.7v-12.5z" fill="#825012"/><path d="m24 28.4c-2.6 0-3-.9-3-3.4v-3l-1-1v6c0 1.7 1.3 3 3 3h1z" fill="#825012"/><path d="m25 29.8c1.7 0 3-.4 3-2.1v-1.7h1v2c0 1.7-1.3 3-3 3h-1z" fill="#825012"/><path d="m21 26.8c-1.7 0-2-1.3-2-2.1v-3.7l-1-1v5c0 1.7 1.3 3 3 3z" fill="#825012"/><path d="m14 18 22 11v1l-22-11z" fill="#825012"/><path d="m39.9 31.9s-.4-1.9-.5-2.3c-.1-.5-1.6-1-1.6-1s.3 0 1.1.1c.7.1 1.2-.4 1.2-.4s-.4-.6-.7-1.2-1.5-.7-1.5-.7l.8-.3s-1.1-1.1-2.6-.7c-1.3.3-1.4 1.2-1.4 1.4-.2 0-1.1.1-1.4 1.4-.3 1.5.7 2.6.7 2.6l.3-.8s.1 1.1.7 1.5c.6.3 1.2.7 1.2.7s.6-.4.4-1.2c-.1-.7-.1-1.1-.1-1.1s.5 1.5 1 1.6c.5 0 2.4.4 2.4.4z" fill="#539b00"/><path d="m35 28.3c0-.5-.3-.8-.7-1 0-.1.1-.2.1-.4 0-.6-.4-1-1-1-.3 0-.5.1-.7.3-.2-.1-.4-.2-.7-.2s-.5.1-.7.3c-.2-.2-.4-.3-.7-.3-.6 0-1 .4-1 1 0 .1 0 .3.1.4-.4.1-.7.5-.7 1s.3.8.7 1c0 .1-.1.2-.1.4 0 .5.3.8.7 1 0 .1-.1.2-.1.4 0 .5.3.8.7 1 0 .1-.1.2-.1.4 0 .6.4 1 1 1s1-.4 1-1c0-.1 0-.3-.1-.4.4-.1.7-.5.7-1 0-.1 0-.3-.1-.4.4-.1.7-.5.7-1 0-.1 0-.3-.1-.4.8-.2 1.1-.6 1.1-1.1z" fill="#939"/><path d="m33.2 23.2s-1.8-.5-2.3-.7c-.5-.1-1.6 1-1.6 1s.2-.3.6-.9.2-1.2.2-1.2-.7.1-1.4.1-1.3 1-1.3 1l.1-.9s-1.5.5-1.9 1.9c-.4 1.3.5 1.8.6 1.9-.1.2-.5 1 .6 1.9 1.1 1 2.6.5 2.6.5l-.6-.6s1.1.4 1.6 0c.6-.4 1.2-.7 1.2-.7s-.1-.7-.8-.9-1-.4-1-.4 1.6.3 1.9-.1 1.5-1.9 1.5-1.9z" fill="#539b00"/><path d="m27.3 30s-.1-1.9-.1-2.4-1.4-1.2-1.4-1.2.3.1 1 .3 1.2-.2 1.2-.2-.3-.6-.5-1.3-1.3-.9-1.3-.9l.8-.3s-1-1.2-2.4-1.1c-1.3.1-1.5 1-1.6 1.2-.2 0-1.1-.1-1.6 1.1-.5 1.4.3 2.7.3 2.7l.4-.8s-.1 1.1.5 1.6c.6.4 1.1.9 1.1.9s.6-.4.6-1.1 0-1.1 0-1.1.3 1.6.7 1.7c.5.2 2.3.9 2.3.9z" fill="#539b00"/><path d="m17.3 23.2s1.6 1 2 1.3 1.8-.4 1.8-.4-.2.2-.8.7-.5 1.1-.5 1.1.7.1 1.4.3 1.5-.5 1.5-.5l-.4.8s1.6-.1 2.4-1.3c.7-1.1.1-1.8 0-2 .1-.1.8-.8 0-2-.8-1.3-2.4-1.3-2.4-1.3l.4.8s-.9-.7-1.6-.5-1.4.3-1.4.3-.1.7.5 1.1.8.6.8.6-1.5-.7-1.8-.4-1.9 1.4-1.9 1.4z" fill="#539b00"/><path d="m13.4 17.4s.7 1.8.9 2.2 1.8.7 1.8.7-.3.1-1.1.1c-.7 0-1 .6-1 .6s.5.5.9 1.1 1.6.4 1.6.4l-.8.4s1.3.8 2.7.2c1.2-.5 1.1-1.5 1.1-1.6.2 0 1.1-.3 1.1-1.6 0-1.5-1.2-2.4-1.2-2.4l-.1.9s-.3-1.1-1-1.3-1.3-.5-1.3-.5-.5.5-.2 1.2.3 1 .3 1-.8-1.4-1.3-1.4c-.4 0-2.4 0-2.4 0z" fill="#539b00"/><path d="m26 24c0-.5-.3-.8-.7-1 0-.1.1-.2.1-.4 0-.6-.4-1-1-1-.3 0-.5.1-.7.3-.2-.2-.4-.3-.7-.3s-.5.1-.7.3c-.2-.2-.4-.3-.7-.3-.6 0-1 .4-1 1 0 .1 0 .3.1.4-.4.1-.7.5-.7 1s.3.8.7 1c0 .1-.1.2-.1.4 0 .5.3.8.7 1 0 .1-.1.2-.1.4 0 .5.3.8.7 1 0 .1-.1.2-.1.4 0 .6.4 1 1 1s1-.4 1-1c0-.1 0-.3-.1-.4.4-.1.7-.5.7-1 0-.1 0-.3-.1-.4.4-.1.7-.5.7-1 0-.1 0-.3-.1-.4.8-.2 1.1-.5 1.1-1z" fill="#939"/><path d="m18 21.3c0-.5-.3-.8-.7-1 0-.1.1-.2.1-.4 0-.6-.4-1-1-1-.3 0-.5.1-.7.3-.2-.1-.4-.2-.7-.2s-.5.1-.7.3c-.2-.2-.4-.3-.7-.3-.6 0-1 .4-1 1 0 .1 0 .3.1.4-.4.1-.7.5-.7 1s.3.8.7 1c0 .1-.1.2-.1.4 0 .5.3.8.7 1 0 .1-.1.2-.1.4 0 .5.3.8.7 1 0 .1-.1.2-.1.4 0 .6.4 1 1 1s1-.4 1-1c0-.1 0-.3-.1-.4.4-.1.7-.5.7-1 0-.1 0-.3-.1-.4.4-.1.7-.5.7-1 0-.1 0-.3-.1-.4.8-.2 1.1-.6 1.1-1.1z" fill="#939"/><path d="m8.5 23.6s1.8-.5 2.3-.7c.5-.1.9-1.7.9-1.7s0 .3 0 1.1c-.1.7.5 1.1.5 1.1s.5-.5 1.2-.8c.6-.4.6-1.5.6-1.5l.3.8s1-1.2.5-2.6c-.4-1.3-1.4-1.3-1.5-1.3 0-.2-.1-1.1-1.5-1.3-1.5-.2-2.5.9-2.5.9l.8.2s-1.1.2-1.4.8c-.3.8-.6 1.4-.6 1.4s.5.5 1.2.3 1-.2 1-.2-1.5.6-1.5 1.1-.3 2.4-.3 2.4z" fill="#539b00"/><ellipse cx="40" cy="44" opacity=".2" rx="6" ry="2"/><path d="m41 32v11.5c0 .4-.4.7-1 .7s-1-.3-1-.7v-12.5z" fill="#825012"/><path d="m40 36.4c-2.6 0-3-.9-3-3.4v-3l-1-1v6c0 1.7 1.3 3 3 3h1z" fill="#825012"/><path d="m41 37.8c1.7 0 3-.4 3-2.1v-1.7h1v2c0 1.7-1.3 3-3 3h-1z" fill="#825012"/><path d="m37 34.8c-1.7 0-2-1.3-2-2.1v-3.7l-1-1v5c0 1.7 1.3 3 3 3z" fill="#825012"/><path d="m30 26 22 11v1l-22-11z" fill="#825012"/><path d="m55.9 39.9s-.4-1.9-.5-2.3c-.1-.5-1.6-1-1.6-1s.3 0 1.1.1c.7.1 1.2-.4 1.2-.4s-.4-.6-.7-1.2-1.5-.7-1.5-.7l.8-.3s-1.1-1.1-2.6-.7c-1.3.3-1.4 1.2-1.4 1.4-.2 0-1.1.1-1.4 1.4-.3 1.5.7 2.6.7 2.6l.3-.8s.1 1.1.7 1.5c.6.3 1.2.7 1.2.7s.6-.4.4-1.2c-.1-.7-.1-1.1-.1-1.1s.5 1.5 1 1.6 2.4.4 2.4.4z" fill="#539b00"/><path d="m51 36.3c0-.5-.3-.8-.7-1 0-.1.1-.2.1-.4 0-.6-.4-1-1-1-.3 0-.5.1-.7.3-.2-.1-.4-.2-.7-.2s-.5.1-.7.3c-.2-.2-.4-.3-.7-.3-.6 0-1 .4-1 1 0 .1 0 .3.1.4-.4.1-.7.5-.7 1s.3.8.7 1c0 .1-.1.2-.1.4 0 .5.3.8.7 1 0 .1-.1.2-.1.4 0 .5.3.8.7 1 0 .1-.1.2-.1.4 0 .6.4 1 1 1s1-.4 1-1c0-.1 0-.3-.1-.4.4-.1.7-.5.7-1 0-.1 0-.3-.1-.4.4-.1.7-.5.7-1 0-.1 0-.3-.1-.4.8-.2 1.1-.6 1.1-1.1z" fill="#939"/><path d="m49.2 31.2s-1.8-.5-2.3-.7c-.5-.1-1.6 1-1.6 1s.2-.3.6-.9.2-1.2.2-1.2-.7.1-1.4.1-1.3 1-1.3 1l.1-.9s-1.5.5-1.9 1.9c-.4 1.3.5 1.8.6 1.9-.1.2-.5 1 .6 1.9 1.1 1 2.6.5 2.6.5l-.6-.6s1.1.4 1.6 0c.6-.4 1.2-.7 1.2-.7s-.1-.7-.8-.9-1-.4-1-.4 1.6.3 1.9-.1 1.5-1.9 1.5-1.9z" fill="#539b00"/><path d="m43.3 38s-.1-1.9-.1-2.4-1.4-1.2-1.4-1.2.3.1 1 .3 1.2-.2 1.2-.2-.3-.6-.5-1.3-1.3-.9-1.3-.9l.8-.3s-1-1.2-2.4-1.1c-1.3.1-1.5 1-1.6 1.2-.2 0-1.1-.1-1.6 1.1-.5 1.4.3 2.7.3 2.7l.4-.8s-.1 1.1.5 1.6c.6.4 1.1.9 1.1.9s.6-.4.6-1.1 0-1.1 0-1.1.3 1.6.7 1.7c.5.2 2.3.9 2.3.9z" fill="#539b00"/><path d="m33.3 31.2s1.6 1 2 1.3 1.8-.4 1.8-.4-.2.2-.8.7c-.6.4-.5 1.1-.5 1.1s.7.1 1.4.3 1.5-.5 1.5-.5l-.4.8s1.6-.1 2.4-1.3c.7-1.1.1-1.8 0-2 .1-.1.8-.8 0-2-.8-1.3-2.4-1.3-2.4-1.3l.4.8s-.9-.7-1.6-.5-1.4.3-1.4.3-.1.7.5 1.1.8.6.8.6-1.5-.7-1.8-.4-1.9 1.4-1.9 1.4z" fill="#539b00"/><path d="m29.4 25.4s.7 1.8.9 2.2 1.8.7 1.8.7-.3.1-1.1.1-1 .6-1 .6.5.5.9 1.1 1.6.4 1.6.4l-.8.4s1.3.8 2.7.2c1.2-.5 1.1-1.5 1.1-1.6.2 0 1.1-.3 1.1-1.6 0-1.5-1.2-2.4-1.2-2.4l-.1.9s-.3-1.1-1-1.3-1.3-.5-1.3-.5-.5.5-.2 1.2.3 1 .3 1-.8-1.4-1.3-1.4c-.4 0-2.4 0-2.4 0z" fill="#539b00"/><path d="m42 32c0-.5-.3-.8-.7-1 0-.1.1-.2.1-.4 0-.6-.4-1-1-1-.3 0-.5.1-.7.3-.2-.2-.4-.3-.7-.3s-.5.1-.7.3c-.2-.2-.4-.3-.7-.3-.6 0-1 .4-1 1 0 .1 0 .3.1.4-.4.1-.7.5-.7 1s.3.8.7 1c0 .1-.1.2-.1.4 0 .5.3.8.7 1 0 .1-.1.2-.1.4 0 .5.3.8.7 1 0 .1-.1.2-.1.4 0 .6.4 1 1 1s1-.4 1-1c0-.1 0-.3-.1-.4.4-.1.7-.5.7-1 0-.1 0-.3-.1-.4.4-.1.7-.5.7-1 0-.1 0-.3-.1-.4.8-.2 1.1-.5 1.1-1z" fill="#939"/><path d="m34 29.3c0-.5-.3-.8-.7-1 0-.1.1-.2.1-.4 0-.6-.4-1-1-1-.3 0-.5.1-.7.3-.2-.1-.4-.2-.7-.2s-.5.1-.7.3c-.2-.2-.4-.3-.7-.3-.6 0-1 .4-1 1 0 .1 0 .3.1.4-.4.1-.7.5-.7 1s.3.8.7 1c0 .1-.1.2-.1.4 0 .5.3.8.7 1 0 .1-.1.2-.1.4 0 .5.3.8.7 1 0 .1-.1.2-.1.4 0 .6.4 1 1 1s1-.4 1-1c0-.1 0-.3-.1-.4.4-.1.7-.5.7-1 0-.1 0-.3-.1-.4.4-.1.7-.5.7-1 0-.1 0-.3-.1-.4.8-.2 1.1-.6 1.1-1.1z" fill="#939"/><path d="m24.5 31.6s1.8-.5 2.3-.7c.5-.1.9-1.7.9-1.7s0 .3 0 1.1c-.1.7.5 1.1.5 1.1s.5-.5 1.2-.8c.6-.4.6-1.5.6-1.5l.3.8s1-1.2.5-2.6c-.4-1.3-1.4-1.3-1.5-1.3 0-.2-.1-1.1-1.5-1.3-1.5-.2-2.5.9-2.5.9l.8.2s-1.1.2-1.4.8c-.3.7-.6 1.3-.6 1.3s.5.5 1.2.3 1-.2 1-.2-1.5.6-1.5 1.1c0 .6-.3 2.5-.3 2.5z" fill="#539b00"/><ellipse cx="56" cy="52" opacity=".2" rx="6" ry="2"/><path d="m57 40v11.5c0 .4-.4.7-1 .7s-1-.3-1-.7v-12.5z" fill="#825012"/><path d="m56 44.4c-2.6 0-3-.9-3-3.4v-3l-1-1v6c0 1.7 1.3 3 3 3h1z" fill="#825012"/><path d="m57 45.8c1.7 0 3-.4 3-2.1v-1.7h1v2c0 1.7-1.3 3-3 3h-1z" fill="#825012"/><path d="m53 42.8c-1.7 0-2-1.3-2-2.1v-3.7l-1-1v5c0 1.7 1.3 3 3 3z" fill="#825012"/><path d="m46 34 22 11v1l-22-11z" fill="#825012"/><path d="m71.9 47.9s-.4-1.9-.5-2.3c-.1-.5-1.6-1-1.6-1s.3 0 1.1.1c.7.1 1.2-.4 1.2-.4s-.4-.6-.7-1.2-1.5-.7-1.5-.7l.8-.3s-1.1-1.1-2.6-.7c-1.3.3-1.4 1.2-1.4 1.4-.2 0-1.1.1-1.4 1.4-.3 1.5.7 2.6.7 2.6l.3-.8s.1 1.1.7 1.5c.6.3 1.2.7 1.2.7s.6-.4.4-1.2c-.1-.7-.1-1.1-.1-1.1s.5 1.5 1 1.6 2.4.4 2.4.4z" fill="#539b00"/><path d="m67 44.3c0-.5-.3-.8-.7-1 0-.1.1-.2.1-.4 0-.6-.4-1-1-1-.3 0-.5.1-.7.3-.2-.1-.4-.2-.7-.2s-.5.1-.7.3c-.2-.2-.4-.3-.7-.3-.6 0-1 .4-1 1 0 .1 0 .3.1.4-.4.1-.7.5-.7 1s.3.8.7 1c0 .1-.1.2-.1.4 0 .5.3.8.7 1 0 .1-.1.2-.1.4 0 .5.3.8.7 1 0 .1-.1.2-.1.4 0 .6.4 1 1 1s1-.4 1-1c0-.1 0-.3-.1-.4.4-.1.7-.5.7-1 0-.1 0-.3-.1-.4.4-.1.7-.5.7-1 0-.1 0-.3-.1-.4.8-.2 1.1-.6 1.1-1.1z" fill="#939"/><path d="m65.2 39.2s-1.8-.5-2.3-.7c-.5-.1-1.6 1-1.6 1s.2-.3.6-.9.2-1.2.2-1.2-.7.1-1.4.1-1.3 1-1.3 1l.1-.9s-1.5.5-1.9 1.9c-.4 1.3.5 1.8.6 1.9-.1.2-.5 1 .6 1.9 1.1 1 2.6.5 2.6.5l-.6-.6s1.1.4 1.6 0c.6-.4 1.2-.7 1.2-.7s-.1-.7-.8-.9-1-.4-1-.4 1.6.3 1.9-.1 1.5-1.9 1.5-1.9z" fill="#539b00"/><path d="m59.3 46s-.1-1.9-.1-2.4-1.4-1.2-1.4-1.2.3.1 1 .3 1.2-.2 1.2-.2-.3-.6-.5-1.3-1.3-.9-1.3-.9l.8-.3s-1-1.2-2.4-1.1c-1.3.1-1.5 1-1.6 1.2-.2 0-1.1-.1-1.6 1.1-.5 1.4.3 2.7.3 2.7l.4-.8s-.1 1.1.5 1.6c.6.4 1.1.9 1.1.9s.6-.4.6-1.1 0-1.1 0-1.1.3 1.6.7 1.7c.5.2 2.3.9 2.3.9z" fill="#539b00"/><path d="m49.3 39.2s1.6 1 2 1.3 1.8-.4 1.8-.4-.2.2-.8.7c-.6.4-.5 1.1-.5 1.1s.7.1 1.4.3 1.5-.5 1.5-.5l-.4.8s1.6-.1 2.4-1.3c.7-1.1.1-1.8 0-2 .1-.1.8-.8 0-2-.8-1.3-2.4-1.3-2.4-1.3l.4.8s-.9-.7-1.6-.5-1.4.3-1.4.3-.1.7.5 1.1.8.6.8.6-1.5-.7-1.8-.4-1.9 1.4-1.9 1.4z" fill="#539b00"/><path d="m45.4 33.4s.7 1.8.9 2.2 1.8.7 1.8.7-.3.1-1.1.1c-.7 0-1 .6-1 .6s.5.5.9 1.1 1.6.4 1.6.4l-.8.4s1.3.8 2.7.2c1.2-.5 1.1-1.5 1.1-1.6.2 0 1.1-.3 1.1-1.6 0-1.5-1.2-2.4-1.2-2.4l-.1.9s-.3-1.1-1-1.3-1.3-.5-1.3-.5-.5.5-.2 1.2.3 1 .3 1-.8-1.4-1.3-1.4c-.4 0-2.4 0-2.4 0z" fill="#539b00"/><path d="m58 40c0-.5-.3-.8-.7-1 0-.1.1-.2.1-.4 0-.6-.4-1-1-1-.3 0-.5.1-.7.3-.2-.2-.4-.3-.7-.3s-.5.1-.7.3c-.2-.2-.4-.3-.7-.3-.6 0-1 .4-1 1 0 .1 0 .3.1.4-.4.1-.7.5-.7 1s.3.8.7 1c0 .1-.1.2-.1.4 0 .5.3.8.7 1 0 .1-.1.2-.1.4 0 .5.3.8.7 1 0 .1-.1.2-.1.4 0 .6.4 1 1 1s1-.4 1-1c0-.1 0-.3-.1-.4.4-.1.7-.5.7-1 0-.1 0-.3-.1-.4.4-.1.7-.5.7-1 0-.1 0-.3-.1-.4.8-.2 1.1-.5 1.1-1z" fill="#939"/><path d="m50 37.3c0-.5-.3-.8-.7-1 0-.1.1-.2.1-.4 0-.6-.4-1-1-1-.3 0-.5.1-.7.3-.2-.1-.4-.2-.7-.2s-.5.1-.7.3c-.2-.2-.4-.3-.7-.3-.6 0-1 .4-1 1 0 .1 0 .3.1.4-.4.1-.7.5-.7 1s.3.8.7 1c0 .1-.1.2-.1.4 0 .5.3.8.7 1 0 .1-.1.2-.1.4 0 .5.3.8.7 1 0 .1-.1.2-.1.4 0 .6.4 1 1 1s1-.4 1-1c0-.1 0-.3-.1-.4.4-.1.7-.5.7-1 0-.1 0-.3-.1-.4.4-.1.7-.5.7-1 0-.1 0-.3-.1-.4.8-.2 1.1-.6 1.1-1.1z" fill="#939"/><path d="m40.5 39.6s1.8-.5 2.3-.7c.5-.1.9-1.7.9-1.7s0 .3 0 1.1.5 1.1.5 1.1.5-.5 1.2-.8c.6-.4.6-1.5.6-1.5l.3.8s1-1.2.5-2.6c-.4-1.3-1.4-1.3-1.5-1.3 0-.2-.1-1.1-1.5-1.3-1.5-.2-2.5.9-2.5.9l.8.2s-1.1.2-1.4.8c-.3.7-.6 1.3-.6 1.3s.5.5 1.2.3 1-.2 1-.2-1.5.6-1.5 1.1c0 .6-.3 2.5-.3 2.5z" fill="#539b00"/><ellipse cx="72" cy="60" opacity=".2" rx="6" ry="2"/><path d="m73 48v11.5c0 .4-.4.7-1 .7s-1-.3-1-.7v-12.5z" fill="#825012"/><path d="m72 52.4c-2.6 0-3-.9-3-3.4v-3l-1-1v6c0 1.7 1.3 3 3 3h1z" fill="#825012"/><path d="m73 53.8c1.7 0 3-.4 3-2.1v-1.7h1v2c0 1.7-1.3 3-3 3h-1z" fill="#825012"/><path d="m69 50.8c-1.7 0-2-1.3-2-2.1v-3.7l-1-1v5c0 1.7 1.3 3 3 3z" fill="#825012"/><path d="m62 42 22 11v1l-22-11z" fill="#825012"/><path d="m87.9 55.9s-.4-1.9-.5-2.3c-.1-.5-1.6-1-1.6-1s.3 0 1.1.1c.7.1 1.2-.4 1.2-.4s-.4-.6-.7-1.2-1.5-.7-1.5-.7l.8-.3s-1.1-1.1-2.6-.7c-1.3.3-1.4 1.2-1.4 1.4-.2 0-1.1.1-1.4 1.4-.3 1.5.7 2.6.7 2.6l.3-.8s.1 1.1.7 1.5c.6.3 1.2.7 1.2.7s.6-.4.4-1.2c-.1-.7-.1-1.1-.1-1.1s.5 1.5 1 1.6 2.4.4 2.4.4z" fill="#539b00"/><path d="m83 52.3c0-.5-.3-.8-.7-1 0-.1.1-.2.1-.4 0-.6-.4-1-1-1-.3 0-.5.1-.7.3-.2-.1-.4-.2-.7-.2s-.5.1-.7.3c-.2-.2-.4-.3-.7-.3-.6 0-1 .4-1 1 0 .1 0 .3.1.4-.4.1-.7.5-.7 1s.3.8.7 1c0 .1-.1.2-.1.4 0 .5.3.8.7 1 0 .1-.1.2-.1.4 0 .5.3.8.7 1 0 .1-.1.2-.1.4 0 .6.4 1 1 1s1-.4 1-1c0-.1 0-.3-.1-.4.4-.1.7-.5.7-1 0-.1 0-.3-.1-.4.4-.1.7-.5.7-1 0-.1 0-.3-.1-.4.8-.2 1.1-.6 1.1-1.1z" fill="#939"/><path d="m81.2 47.2s-1.8-.5-2.3-.7c-.5-.1-1.6 1-1.6 1s.2-.3.6-.9.2-1.2.2-1.2-.7.1-1.4.1-1.3 1-1.3 1l.1-.9s-1.5.5-1.9 1.9c-.4 1.3.5 1.8.6 1.9-.1.2-.5 1 .6 1.9 1.1 1 2.6.5 2.6.5l-.6-.6s1.1.4 1.6 0c.6-.4 1.2-.7 1.2-.7s-.1-.7-.8-.9-1-.4-1-.4 1.6.3 1.9-.1 1.5-1.9 1.5-1.9z" fill="#539b00"/><path d="m75.3 54s-.1-1.9-.1-2.4-1.4-1.2-1.4-1.2.3.1 1 .3 1.2-.2 1.2-.2-.3-.6-.5-1.3-1.3-.9-1.3-.9l.8-.3s-1-1.2-2.4-1.1c-1.3.1-1.5 1-1.6 1.2-.2 0-1.1-.1-1.6 1.1-.5 1.4.3 2.7.3 2.7l.4-.8s-.1 1.1.5 1.6c.6.4 1.1.9 1.1.9s.6-.4.6-1.1 0-1.1 0-1.1.3 1.6.7 1.7c.5.2 2.3.9 2.3.9z" fill="#539b00"/><path d="m65.3 47.2s1.6 1 2 1.3 1.8-.4 1.8-.4-.2.2-.8.7-.5 1.1-.5 1.1.7.1 1.4.3 1.5-.5 1.5-.5l-.4.8s1.6-.1 2.4-1.3c.7-1.1.1-1.8 0-2 .1-.1.8-.8 0-2-.8-1.3-2.4-1.3-2.4-1.3l.4.8s-.9-.7-1.6-.5-1.4.3-1.4.3-.1.7.5 1.1.8.6.8.6-1.5-.7-1.8-.4-1.9 1.4-1.9 1.4z" fill="#539b00"/><path d="m61.4 41.4s.7 1.8.9 2.2 1.8.7 1.8.7-.3.1-1.1.1c-.7 0-1 .6-1 .6s.5.5.9 1.1 1.6.4 1.6.4l-.8.4s1.3.8 2.7.2c1.2-.5 1.1-1.5 1.1-1.6.2 0 1.1-.3 1.1-1.6 0-1.5-1.2-2.4-1.2-2.4l-.1.9s-.3-1.1-1-1.3-1.3-.5-1.3-.5-.5.5-.2 1.2.3 1 .3 1-.8-1.4-1.3-1.4c-.4 0-2.4 0-2.4 0z" fill="#539b00"/><path d="m74 48c0-.5-.3-.8-.7-1 0-.1.1-.2.1-.4 0-.6-.4-1-1-1-.3 0-.5.1-.7.3-.2-.2-.4-.3-.7-.3s-.5.1-.7.3c-.2-.2-.4-.3-.7-.3-.6 0-1 .4-1 1 0 .1 0 .3.1.4-.4.1-.7.5-.7 1s.3.8.7 1c0 .1-.1.2-.1.4 0 .5.3.8.7 1 0 .1-.1.2-.1.4 0 .5.3.8.7 1 0 .1-.1.2-.1.4 0 .6.4 1 1 1s1-.4 1-1c0-.1 0-.3-.1-.4.4-.1.7-.5.7-1 0-.1 0-.3-.1-.4.4-.1.7-.5.7-1 0-.1 0-.3-.1-.4.8-.2 1.1-.5 1.1-1z" fill="#939"/><path d="m66 45.3c0-.5-.3-.8-.7-1 0-.1.1-.2.1-.4 0-.6-.4-1-1-1-.3 0-.5.1-.7.3-.2-.1-.4-.2-.7-.2s-.5.1-.7.3c-.2-.2-.4-.3-.7-.3-.6 0-1 .4-1 1 0 .1 0 .3.1.4-.4.1-.7.5-.7 1s.3.8.7 1c0 .1-.1.2-.1.4 0 .5.3.8.7 1 0 .1-.1.2-.1.4 0 .5.3.8.7 1 0 .1-.1.2-.1.4 0 .6.4 1 1 1s1-.4 1-1c0-.1 0-.3-.1-.4.4-.1.7-.5.7-1 0-.1 0-.3-.1-.4.4-.1.7-.5.7-1 0-.1 0-.3-.1-.4.8-.2 1.1-.6 1.1-1.1z" fill="#939"/><path d="m56.5 47.6s1.8-.5 2.3-.7c.5-.1.9-1.7.9-1.7s0 .3 0 1.1.5 1.1.5 1.1.5-.5 1.2-.8c.6-.4.6-1.5.6-1.5l.3.8s1-1.2.5-2.6c-.4-1.3-1.4-1.3-1.5-1.3 0-.2-.1-1.1-1.5-1.3-1.5-.2-2.5.9-2.5.9l.8.2s-1.1.2-1.4.8c-.3.7-.6 1.3-.6 1.3s.5.5 1.2.3 1-.2 1-.2-1.5.6-1.5 1.1c0 .6-.3 2.5-.3 2.5z" fill="#539b00"/></svg>