<svg viewBox="0 0 64 32" xmlns="http://www.w3.org/2000/svg"><path d="m28.9 7.5-23 11.5 20.2 10 2.8-1.4c2-1 4.3-1 6.3 0l2.8 1.4 20.1-10-23-11.5c-1.9-1-4.3-1-6.2 0z" fill="#baa794"/><path d="m28.9 27.6-2.8 1.4 5.9 3 5.9-3-2.8-1.4c-1.9-1-4.3-1-6.2 0z" fill="#9c3"/><path d="m32 0-32 16 5.9 3 23-11.5c2-1 4.3-1 6.3 0l22.9 11.5 5.9-3z" fill="#9c3"/><path d="m28.9 7.5-23 11.5 20.2 10 2.8-1.4c2-1 4.3-1 6.3 0l2.8 1.4 20.1-10-23-11.5c-1.9-1-4.3-1-6.2 0z" fill="#baa794"/><path d="m28.9 7.5-23 11.5 20.2 10 2.8-1.4c2-1 4.3-1 6.3 0l2.8 1.4 20.1-10-23-11.5c-1.9-1-4.3-1-6.2 0z" opacity=".15"/><path d="m28.9 27.6-2.8 1.4 5.9 3 5.9-3-2.8-1.4c-1.9-1-4.3-1-6.2 0z" fill="#9c3"/><path d="m32 0-32 16 5.9 3 23-11.5c2-1 4.3-1 6.3 0l22.9 11.5 5.9-3z" fill="#9c3"/><path d="m35.1 26.5c-2-1-4.3-1-6.3 0l-3.9 2 1.1.6 2.8-1.4c2-1 4.3-1 6.3 0l2.8 1.4 1.1-.6z" opacity=".15"/><path d="m35.1 7.5c-2-1-4.3-1-6.3 0l-22.9 11.5 1.1.6 21.9-11c2-1 4.3-1 6.3 0l21.8 10.9 1.1-.6z" opacity=".15"/><g fill="#baa794"><path d="m30 25-8-4-6 3 8 4z"/><path d="m14 23 4-2-6-3-4 2z"/><path d="m38 17-8 4-2-1-2 1 8 4 8-4-4-2 2-1z"/><path d="m36 26 8-4 4 2-8 4z"/><path d="m50 23-2-1 6-3 2 1z"/><path d="m30 19-4-2 8-4 4 2z"/><path d="m40 14 2-1-10-5-6 3 4 2 4-2z"/><path d="m28 14-4-2-10 5 6 3 2-1 2 1 2-1-4-2z"/><path d="m44 14-4 2 4 2-2 1 4 2 6-3z"/></g></svg>