<svg viewBox="0 0 112 96" xmlns="http://www.w3.org/2000/svg"><path d="m112 64-64 32v-24l64-32z" fill="#762c07"/><path d="m111 64.5-62 31v-4l62-31z" opacity=".3"/><path d="m50 95-2 1v-24l2-1z" fill="#fff"/><path d="m112 64-2 1v-24l2-1z" fill="#fff"/><path d="m53 93.5-1 .5v-24l1-.5z" opacity=".15"/><path d="m58 91-1 .5v-24l1-.5z" opacity=".15"/><path d="m98 71-1 .5v-24l1-.5z" opacity=".15"/><path d="m103 68.5-1 .5v-24l1-.5z" opacity=".15"/><path d="m108 66-1 .5v-24l1-.5z" opacity=".15"/><path d="m93 73.5-1 .5v-24l1-.5z" opacity=".15"/><path d="m88 76-1 .5v-24l1-.5z" opacity=".15"/><path d="m83 78.5-1 .5v-24l1-.5z" opacity=".15"/><path d="m78 81-1 .5v-24l1-.5z" opacity=".15"/><path d="m68 86-1 .5v-24l1-.5z" opacity=".15"/><path d="m73 83.5-1 .5v-24l1-.5z" opacity=".15"/><path d="m63 88.5-1 .5v-24l1-.5z" opacity=".15"/><path d="m69 77.5-10 5v-10l10-5z" fill="#fff"/><path d="m68 77-8 4v-8l8-4z" fill="#762c07"/><path d="m68 68.3.7.3-8.7 13.1-.7-.3z" fill="#fff"/><path d="m68.7 76.6-.7 1.1-8.7-4.3.7-1.1z" fill="#fff"/><path d="m85 69.5-10 5v-10l10-5z" fill="#fff"/><path d="m84 69-8 4v-8l8-4z" fill="#762c07"/><path d="m84 60.3.7.3-8.7 13.1-.7-.3z" fill="#fff"/><path d="m84.7 68.6-.7 1.1-8.7-4.3.7-1.1z" fill="#fff"/><path d="m101 61.5-10 5v-10l10-5z" fill="#fff"/><path d="m100 61-8 4v-8l8-4z" fill="#762c07"/><path d="m100 52.3.7.4-8.7 13-.7-.3z" fill="#fff"/><path d="m100.7 60.7-.7 1-8.7-4.3.7-1.1z" fill="#fff"/><path d="m112 64-64 32v-24l64-32z" opacity=".29"/><path d="m48 96-48-24v-24l8-12h16l16 16 8 20z" fill="#762c07"/><path d="m48 96-48-24v-4l48 24z" opacity=".3"/><path d="m36 90-24-12v-24l24 12z" fill="#fff"/><path d="m35 88.5-22-11v-22l22 11z" fill="#762c07"/><path d="m25 83.5-2-1v-22l2 1z" fill="#fff"/><path d="m13.4 78-.8-1 22-11 .8 1z" fill="#fff"/><path d="m12.6 55.7.8-.4 22 33-.8.4z" fill="#fff"/><path d="m42 93-1-.5v-38l1 2.5z" opacity=".15"/><path d="m37 90.5-1-.5v-42l1 1.1z" opacity=".15"/><path d="m12 78-1-.5v-41.4l1-.1z" opacity=".15"/><path d="m17 56.5-1-.5v-20l1 .1z" opacity=".15"/><path d="m22 59-1-.5v-22.5h1z" opacity=".15"/><path d="m32 64-1-.5v-20.4l1 .9z" opacity=".15"/><path d="m27 61.5-1-.5v-23l1 1z" opacity=".15"/><path d="m7 75.5-1-.5v-36l1-1.5z" opacity=".15"/><path d="m29 58.5-10-5v-10l10 5z" fill="#fff"/><path d="m28 57-8-4v-8l8 4z" fill="#762c07"/><g fill="#fff"><path d="m28 48.3.7 1.1-8.7 4.3-.7-1.1z"/><path d="m28.7 57.4-.7.3-8.7-13.1.7-.3z"/><path d="m46 71 2 1v24l-2-1z"/><path d="m2 73-2-1v-24l2 1z"/><path d="m40 52-16-16h-16l-8 12 2 1 7-10.5 15-.5 15 15.5 7 17.5 2 1z"/></g><path d="m48 96-48-24v-24l8-12h16l16 16 8 20z" opacity=".11"/><path d="m104 20-16-16h-16l-64 32h16l16 16 8 20 64-32z" fill="#2d3134"/><path d="m48 72-8-20 64-32 8 20z" opacity=".29"/><path d="m24 36 16 16 64-32-16-16z" opacity=".1"/></svg>