<svg viewBox="0 0 112 88" xmlns="http://www.w3.org/2000/svg"><path d="m112 48-80 40v-24l80-40z" fill="#762c07"/><path d="m111 48.5-78 39v-4l78-39z" opacity=".3"/><path d="m34 87-2 1v-24l2-1z" fill="#fff"/><path d="m112 48-2 1v-24l2-1z" fill="#fff"/><path d="m42 83-1 .5v-24l1-.5z" opacity=".15"/><path d="m37 85.5-1 .5v-24l1-.5z" opacity=".15"/><path d="m47 80.5-1 .5v-24l1-.5z" opacity=".15"/><path d="m87 60.5-1 .5v-24l1-.5z" opacity=".15"/><path d="m82 63-1 .5v-24l1-.5z" opacity=".15"/><path d="m77 65.5-1 .5v-24l1-.5z" opacity=".15"/><path d="m72 68-1 .5v-24l1-.5z" opacity=".15"/><path d="m102 53-1 .5v-24l1-.5z" opacity=".15"/><path d="m107 50.5-1 .5v-24l1-.5z" opacity=".15"/><path d="m97 55.5-1 .5v-24l1-.5z" opacity=".15"/><path d="m92 58-1 .5v-24l1-.5z" opacity=".15"/><path d="m67 70.5-1 .5v-24l1-.5z" opacity=".15"/><path d="m57 75.5-1 .5v-24l1-.5z" opacity=".15"/><path d="m62 73-1 .5v-24l1-.5z" opacity=".15"/><path d="m52 78-1 .5v-24l1-.5z" opacity=".15"/><path d="m49 71.5-6 3v-10l6-3z" fill="#fff"/><path d="m48 71-4 2v-8l4-2z" fill="#656565"/><path d="m48 64-4 2v-1l4-2z" opacity=".15"/><path d="m101 45.5-6 3v-10l6-3z" fill="#fff"/><path d="m100 45-4 2v-8l4-2z" fill="#656565"/><path d="m100 38-4 2v-1l4-2z" opacity=".15"/><path d="m62 65-6 3v-10l6-3z" fill="#fff"/><path d="m61 64.5-4 2v-8l4-2z" fill="#656565"/><path d="m61 57.5-4 2v-1l4-2z" opacity=".15"/><path d="m75 58.5-6 3v-10l6-3z" fill="#fff"/><path d="m74 58-4 2v-8l4-2z" fill="#656565"/><path d="m74 51-4 2v-1l4-2z" opacity=".15"/><path d="m88 52-6 3v-10l6-3z" fill="#fff"/><path d="m87 51.5-4 2v-8l4-2z" fill="#656565"/><path d="m87 44.5-4 2v-1l4-2z" opacity=".15"/><path d="m112 48-80 40v-24l80-40z" opacity=".29"/><path d="m32 64-32-24v32l32 16z" fill="#762c07"/><path d="m31 87.5-30-15v-4l30 15z" opacity=".3"/><path d="m32 88-2-1v-24l2 1z" fill="#fff"/><path d="m2 73-2-1v-32l2 2z" fill="#fff"/><path d="m19 81.5-1-.5v-27.2l1 1.5z" opacity=".15"/><path d="m14 79-1-.5v-28l1 .5z" opacity=".15"/><path d="m29 86.5-1-.5v-24.7l1 1.5z" opacity=".15"/><path d="m24 84-1-.5v-25.5l1 .5z" opacity=".15"/><path d="m9 76.5-1-.5v-29.8l1 1.5z" opacity=".15"/><path d="m4 74-1-.5v-31l1 1.5z" opacity=".15"/><path d="m21 82.5-10-5v-19l10 5z" fill="#fff"/><path d="m20 81-8-4v-17l8 4z" fill="#762c07"/><path d="m12.5 77.4-1-.8 8-13 1 .8z" fill="#fff"/><path d="m32 64-32-24v1l32 24z" fill="#fff"/><path d="m32 64-32-24v32l32 16z" opacity=".11"/><path d="m32 64-32-24 80-40 32 24z" fill="#2d3134"/><path d="m32 64-32-24 80-40 32 24z" fill="#2d3134"/><path d="m32 64-32-24 80-40 32 24z" opacity=".39"/></svg>