<?xml version="1.0" encoding="UTF-8" standalone="no"?>
<!-- Created with Inkscape (http://www.inkscape.org/) -->

<svg
   xmlns:dc="http://purl.org/dc/elements/1.1/"
   xmlns:cc="http://creativecommons.org/ns#"
   xmlns:rdf="http://www.w3.org/1999/02/22-rdf-syntax-ns#"
   xmlns:svg="http://www.w3.org/2000/svg"
   xmlns="http://www.w3.org/2000/svg"
   xmlns:sodipodi="http://sodipodi.sourceforge.net/DTD/sodipodi-0.dtd"
   xmlns:inkscape="http://www.inkscape.org/namespaces/inkscape"
   width="210mm"
   height="297mm"
   viewBox="0 0 210 297"
   version="1.1"
   id="svg581"
   inkscape:version="0.92.2 (5c3e80d, 2017-08-06)"
   sodipodi:docname="new-doc.svg">
  <defs
     id="defs575" />
  <sodipodi:namedview
     id="base"
     pagecolor="#ffffff"
     bordercolor="#666666"
     borderopacity="1.0"
     inkscape:pageopacity="0.0"
     inkscape:pageshadow="2"
     inkscape:zoom="0.35"
     inkscape:cx="-87.142857"
     inkscape:cy="560"
     inkscape:document-units="mm"
     inkscape:current-layer="layer1"
     showgrid="false"
     inkscape:window-width="1360"
     inkscape:window-height="706"
     inkscape:window-x="-8"
     inkscape:window-y="-8"
     inkscape:window-maximized="1" />
  <metadata
     id="metadata578">
    <rdf:RDF>
      <cc:Work
         rdf:about="">
        <dc:format>image/svg+xml</dc:format>
        <dc:type
           rdf:resource="http://purl.org/dc/dcmitype/StillImage" />
        <dc:title></dc:title>
      </cc:Work>
    </rdf:RDF>
  </metadata>
  <g
     inkscape:label="Layer 1"
     inkscape:groupmode="layer"
     id="layer1" />
<g id="chart-top-container" transform="translate(118.68873689745809,241.33922872827182) scale(0.3789291416275996)"><g id="chart-background-container"><g id="chart-transparent"><rect width="800" height="640" fill="rgb(255, 255, 255)"></rect><rect x="0" y="0" width="800" height="640" fill="url(#transparent-background)"></rect></g><rect id="chart-background-color" width="800" height="640" fill="#ffffff" stroke="none" fill-opacity="1"></rect></g><g id="chart-grid-container"><g id="chart-grid-cell"><rect x="0" y="0" width="800" height="640" fill="url(#grid8L)"></rect></g><g id="chart-grid-dotted"><rect x="0" y="0" width="800" height="640" fill="url(#grid8)"></rect></g></g><g id="chart-container"><g id="i459" class="top-level-node" transform="translate(-496,-464)scale(0.5)"><g><g><path xmlns="http://www.w3.org/2000/svg" d="m116 28-4-4-8-4h-8l-8-8-8-4-4-4-12-4-12 4-4 4-8 4-3 3h-8l-4 2-1 3-3 1v20l-1 1-4 4-3 1v20l-1 1-12 4v24l12 4 4 4 8 4 8 8h8l8 4 4 4 12 4 12-4 4-4 8-4h8l8-8 8-4 4-4 12-4v-64z" fill="#656565"></path><path xmlns="http://www.w3.org/2000/svg" d="m116 36-4 4-8 4-3 3h-8l-4 2-1 3-3 1v20l3-1 1-3 4-2h8l-5 5h-8l-4 2-4 4-3 1v20l-1 1-12 4v24l12-4 4-4 8-4h8l8-8 8-4 4-4 12-4v-64z" opacity=".29"></path><path xmlns="http://www.w3.org/2000/svg" d="m0 72 12 4 4 4 8 4 8 8h8l8 4 4 4 12 4v24l-12-4-4-4-8-4h-8l-8-8-8-4-4-4-12-4z" opacity=".11"></path><path xmlns="http://www.w3.org/2000/svg" d="m76 124-12 4v-24l12-4z" opacity=".1"></path><path xmlns="http://www.w3.org/2000/svg" d="m48 96-8-4v24l8 4z" fill="#fff" opacity=".1"></path><path xmlns="http://www.w3.org/2000/svg" d="m16 80-4-4v24l4 4z" fill="#fff" opacity=".1"></path><path xmlns="http://www.w3.org/2000/svg" d="m12 76-12-4v24l12 4z" opacity=".1"></path><path xmlns="http://www.w3.org/2000/svg" d="m24 84 8 8v24l-8-8z" opacity=".15"></path><path xmlns="http://www.w3.org/2000/svg" d="m52 124 12 4v-24l-12-4z" opacity=".1"></path><path xmlns="http://www.w3.org/2000/svg" d="m13 47 6 2 4 10h14l3 13 13-5 8 4 3 7 13 1v20l-13-1-3-7-8-4-13 5-3-13h-14l-4-10-6-2z" opacity=".11"></path><path xmlns="http://www.w3.org/2000/svg" d="m88 72-4 2v20l-4 2v24l8-4z" fill="#fff" opacity=".1"></path><path xmlns="http://www.w3.org/2000/svg" d="m80 98-3 1v-20l3-1z" opacity=".1"></path><path xmlns="http://www.w3.org/2000/svg" d="m61 71-8-4v20l8 4z" opacity=".15"></path><path xmlns="http://www.w3.org/2000/svg" d="m23 59-4-10v20l4 10z" opacity=".15"></path><path xmlns="http://www.w3.org/2000/svg" d="m19 49-6-2v20l6 2z" fill="#fff" opacity=".1"></path><path xmlns="http://www.w3.org/2000/svg" d="m37 59 3 13v20l-3-13z" fill="#fff" opacity=".1"></path><path xmlns="http://www.w3.org/2000/svg" d="m64 98 13 1v-20l-13-1z" opacity=".1"></path><path xmlns="http://www.w3.org/2000/svg" d="m21 21 10 12 9-3 5 3 4 12 14-8 6 3 3 12 13 1v20l-13-1-3-12-6-3-14 8-4-12-5-3-9 3-10-12z" opacity=".11"></path><path xmlns="http://www.w3.org/2000/svg" d="m89 49 4-2v20l-4 2z" opacity=".15"></path><path xmlns="http://www.w3.org/2000/svg" d="m112 40v64l4-4v-64z" fill="#fff" opacity=".1"></path><path xmlns="http://www.w3.org/2000/svg" d="m116 36v64l12-4v-64z" opacity=".1"></path><g xmlns="http://www.w3.org/2000/svg" fill="#fff"><path d="m88 72-3 1v-20l3-1z" opacity=".1"></path><path d="m69 40-6-3v20l6 3z" opacity=".1"></path><path d="m40 30-9 3v20l9-3z" opacity=".1"></path></g><path xmlns="http://www.w3.org/2000/svg" d="m31 33-10-12v20l10 12z" opacity=".1"></path><path xmlns="http://www.w3.org/2000/svg" d="m45 33 4 12v20l-4-12z" opacity=".15"></path><path xmlns="http://www.w3.org/2000/svg" d="m72 72-3-12v-20l3 12z" opacity=".15"></path><path xmlns="http://www.w3.org/2000/svg" d="m101 47v20l-5 5v44l8-8v-64z" opacity=".15"></path></g></g></g><g id="i460" class="top-level-node" transform="translate(24,40)scale(0.5)"><g><g><path xmlns="http://www.w3.org/2000/svg" d="m64 0-12 4-4 4-8 4-8 8h-8l-8 4-4 4-12 4v64l12 4 4 4 8 4 8 8h8l8 4 4 4 12 4 12-4 4-4 8-4h8l8-8 8-4 4-4 12-4v-64l-12-4-4-4-8-4h-8l-8-8-8-4-4-4z" fill="#656565"></path><path xmlns="http://www.w3.org/2000/svg" d="m0 32 12 4 4 4 8 4 8 8h8l8 4 4 4 12 4v64l-12-4-4-4-8-4h-8l-8-8-8-4-4-4-12-4z" opacity=".11"></path><path xmlns="http://www.w3.org/2000/svg" d="m128 32v64l-12 4-4 4-8 4-8 8h-8l-8 4-4 4-12 4v-64l12-4 4-4 8-4h8l8-8 8-4 4-4z" opacity=".29"></path><path xmlns="http://www.w3.org/2000/svg" d="m80 56 8-4v64l-8 4z" fill="#fff" opacity=".1"></path><path xmlns="http://www.w3.org/2000/svg" d="m112 40 4-4v64l-4 4z" fill="#fff" opacity=".1"></path><path xmlns="http://www.w3.org/2000/svg" d="m116 36 12-4v64l-12 4z" opacity=".1"></path><path xmlns="http://www.w3.org/2000/svg" d="m104 44-8 8v64l8-8z" opacity=".15"></path><path xmlns="http://www.w3.org/2000/svg" d="m76 124-12 4v-64l12-4z" opacity=".1"></path><path xmlns="http://www.w3.org/2000/svg" d="m48 56-8-4v64l8 4z" fill="#fff" opacity=".1"></path><path xmlns="http://www.w3.org/2000/svg" d="m16 40-4-4v64l4 4z" fill="#fff" opacity=".1"></path><path xmlns="http://www.w3.org/2000/svg" d="m12 36-12-4v64l12 4z" opacity=".1"></path><path xmlns="http://www.w3.org/2000/svg" d="m24 44 8 8v64l-8-8z" opacity=".15"></path><path xmlns="http://www.w3.org/2000/svg" d="m52 124 12 4v-64l-12-4z" opacity=".1"></path></g></g></g><g id="i461" class="top-level-node" transform="translate(120,64)scale(0.5)"><g><g><path xmlns="http://www.w3.org/2000/svg" d="m64 0-12 4-4 4-8 4-8 8h-8l-8 4-4 4-12 4v32l12 4 4 4 8 4 8 8h8l8 4 4 4 12 4 12-4 4-4 8-4h8l8-8 8-4 4-4 12-4v-32l-12-4-4-4-8-4h-8l-8-8-8-4-4-4z" fill="#656565"></path><path xmlns="http://www.w3.org/2000/svg" d="m0 32 12 4 4 4 8 4 8 8h8l8 4 4 4 12 4v32l-12-4-4-4-8-4h-8l-8-8-8-4-4-4-12-4z" opacity=".11"></path><path xmlns="http://www.w3.org/2000/svg" d="m128 32v32l-12 4-4 4-8 4-8 8h-8l-8 4-4 4-12 4v-32l12-4 4-4 8-4h8l8-8 8-4 4-4z" opacity=".29"></path><path xmlns="http://www.w3.org/2000/svg" d="m80 56 8-4v32l-8 4z" fill="#fff" opacity=".1"></path><path xmlns="http://www.w3.org/2000/svg" d="m112 40 4-4v32l-4 4z" fill="#fff" opacity=".1"></path><path xmlns="http://www.w3.org/2000/svg" d="m116 36 12-4v32l-12 4z" opacity=".1"></path><path xmlns="http://www.w3.org/2000/svg" d="m104 44-8 8v32l8-8z" opacity=".15"></path><path xmlns="http://www.w3.org/2000/svg" d="m76 92-12 4v-32l12-4z" opacity=".1"></path><path xmlns="http://www.w3.org/2000/svg" d="m48 56-8-4v32l8 4z" fill="#fff" opacity=".1"></path><path xmlns="http://www.w3.org/2000/svg" d="m16 40-4-4v32l4 4z" fill="#fff" opacity=".1"></path><path xmlns="http://www.w3.org/2000/svg" d="m12 36-12-4v32l12 4z" opacity=".1"></path><path xmlns="http://www.w3.org/2000/svg" d="m24 44 8 8v32l-8-8z" opacity=".15"></path><path xmlns="http://www.w3.org/2000/svg" d="m52 92 12 4v-32l-12-4z" opacity=".1"></path></g></g></g><g id="i462" class="top-level-node" transform="translate(192,56)scale(0.5)"><g><g><path xmlns="http://www.w3.org/2000/svg" d="m64 0-12 4-4 4-8 4-8 8h-8l-8 4-4 4-12 4v32l12 4 4 4 8 4 8 8h8l8 4 4 4 12 4 12-4 4-4 8-4h8l8-8 8-4 10-3 6-5-8-8-8-8-8-4-8-12-8-8-8-4-8-14z" fill="#656565"></path><path xmlns="http://www.w3.org/2000/svg" d="m0 32 12 4 4 16 8 4 8 8 8 12 8 4 8 8 8 8-12-4-4-4-8-4h-8l-8-8-8-4-4-4-12-4z" opacity=".11"></path><path xmlns="http://www.w3.org/2000/svg" d="m48 80-8-4v8l8 4z" fill="#fff" opacity=".1"></path><path xmlns="http://www.w3.org/2000/svg" d="m16 52-4-16v32l4 4z" fill="#fff" opacity=".1"></path><path xmlns="http://www.w3.org/2000/svg" d="m12 36-12-4v32l12 4z" opacity=".1"></path><path xmlns="http://www.w3.org/2000/svg" d="m24 56 8 8v20l-8-8z" opacity=".15"></path><path xmlns="http://www.w3.org/2000/svg" d="m52 92 12 4-8-8z" opacity=".1"></path></g></g></g><g id="i463" class="top-level-node" transform="translate(280,48)scale(0.5)"><g><g><path xmlns="http://www.w3.org/2000/svg" d="m116 28-4-4-8-4h-8l-8-8-8-4-4-4-12-4-12 4-4 4-8 4-3 3h-8l-4 2-1 3-3 1v20l-1 1-4 4-3 1v20l-1 1-12 4v24l12 4 4 4 8 4 8 8h8l8 4 4 4 12 4 12-4 4-4 8-4h8l8-8 8-4 4-4 12-4v-64z" fill="#656565"></path><path xmlns="http://www.w3.org/2000/svg" d="m116 36-4 4-8 4-3 3h-8l-4 2-1 3-3 1v20l3-1 1-3 4-2h8l-5 5h-8l-4 2-4 4-3 1v20l-1 1-12 4v24l12-4 4-4 8-4h8l8-8 8-4 4-4 12-4v-64z" opacity=".29"></path><path xmlns="http://www.w3.org/2000/svg" d="m0 72 12 4 4 4 8 4 8 8h8l8 4 4 4 12 4v24l-12-4-4-4-8-4h-8l-8-8-8-4-4-4-12-4z" opacity=".11"></path><path xmlns="http://www.w3.org/2000/svg" d="m76 124-12 4v-24l12-4z" opacity=".1"></path><path xmlns="http://www.w3.org/2000/svg" d="m48 96-8-4v24l8 4z" fill="#fff" opacity=".1"></path><path xmlns="http://www.w3.org/2000/svg" d="m16 80-4-4v24l4 4z" fill="#fff" opacity=".1"></path><path xmlns="http://www.w3.org/2000/svg" d="m12 76-12-4v24l12 4z" opacity=".1"></path><path xmlns="http://www.w3.org/2000/svg" d="m24 84 8 8v24l-8-8z" opacity=".15"></path><path xmlns="http://www.w3.org/2000/svg" d="m52 124 12 4v-24l-12-4z" opacity=".1"></path><path xmlns="http://www.w3.org/2000/svg" d="m13 47 6 2 4 10h14l3 13 13-5 8 4 3 7 13 1v20l-13-1-3-7-8-4-13 5-3-13h-14l-4-10-6-2z" opacity=".11"></path><path xmlns="http://www.w3.org/2000/svg" d="m88 72-4 2v20l-4 2v24l8-4z" fill="#fff" opacity=".1"></path><path xmlns="http://www.w3.org/2000/svg" d="m80 98-3 1v-20l3-1z" opacity=".1"></path><path xmlns="http://www.w3.org/2000/svg" d="m61 71-8-4v20l8 4z" opacity=".15"></path><path xmlns="http://www.w3.org/2000/svg" d="m23 59-4-10v20l4 10z" opacity=".15"></path><path xmlns="http://www.w3.org/2000/svg" d="m19 49-6-2v20l6 2z" fill="#fff" opacity=".1"></path><path xmlns="http://www.w3.org/2000/svg" d="m37 59 3 13v20l-3-13z" fill="#fff" opacity=".1"></path><path xmlns="http://www.w3.org/2000/svg" d="m64 98 13 1v-20l-13-1z" opacity=".1"></path><path xmlns="http://www.w3.org/2000/svg" d="m21 21 10 12 9-3 5 3 4 12 14-8 6 3 3 12 13 1v20l-13-1-3-12-6-3-14 8-4-12-5-3-9 3-10-12z" opacity=".11"></path><path xmlns="http://www.w3.org/2000/svg" d="m89 49 4-2v20l-4 2z" opacity=".15"></path><path xmlns="http://www.w3.org/2000/svg" d="m112 40v64l4-4v-64z" fill="#fff" opacity=".1"></path><path xmlns="http://www.w3.org/2000/svg" d="m116 36v64l12-4v-64z" opacity=".1"></path><g xmlns="http://www.w3.org/2000/svg" fill="#fff"><path d="m88 72-3 1v-20l3-1z" opacity=".1"></path><path d="m69 40-6-3v20l6 3z" opacity=".1"></path><path d="m40 30-9 3v20l9-3z" opacity=".1"></path></g><path xmlns="http://www.w3.org/2000/svg" d="m31 33-10-12v20l10 12z" opacity=".1"></path><path xmlns="http://www.w3.org/2000/svg" d="m45 33 4 12v20l-4-12z" opacity=".15"></path><path xmlns="http://www.w3.org/2000/svg" d="m72 72-3-12v-20l3 12z" opacity=".15"></path><path xmlns="http://www.w3.org/2000/svg" d="m101 47v20l-5 5v44l8-8v-64z" opacity=".15"></path></g></g></g><g id="i464" class="top-level-node" transform="translate(32,136)scale(0.5)"><g><g><path xmlns="http://www.w3.org/2000/svg" d="m64 0-12 4-4 4-8 4-8 8h-8l-8 4-4 4-12 4v64l12 4 4 4 8 4 8 8h8l8 4 4 4 12 4 12-4 4-4 8-4h8l8-8 8-4 4-4 12-4v-64l-12-4-4-4-8-4h-8l-8-8-8-4-4-4z" fill="#656565"></path><path xmlns="http://www.w3.org/2000/svg" d="m0 32 12 4 4 4 8 4 8 8h8l8 4 4 4 12 4v64l-12-4-4-4-8-4h-8l-8-8-8-4-4-4-12-4z" opacity=".11"></path><path xmlns="http://www.w3.org/2000/svg" d="m128 32v64l-12 4-4 4-8 4-8 8h-8l-8 4-4 4-12 4v-64l12-4 4-4 8-4h8l8-8 8-4 4-4z" opacity=".29"></path><path xmlns="http://www.w3.org/2000/svg" d="m80 56 8-4 2 11-2 46v7l-8 4 6-24z" fill="#fff" opacity=".1"></path><path xmlns="http://www.w3.org/2000/svg" d="m112 40 4-4-1 22 5 23-8 9 4 10-4 4-3-8 7-28z" fill="#fff" opacity=".1"></path><path xmlns="http://www.w3.org/2000/svg" d="m116 36 12-4v64l-12 4-2-8 12-13-5-27z" opacity=".1"></path><path xmlns="http://www.w3.org/2000/svg" d="m104 44-8 8-2 7 7 18-5 34v5l8-8 3-39z" opacity=".15"></path><path xmlns="http://www.w3.org/2000/svg" d="m76 124-12 4v-64l12-4-7 16 8 22-1 21z" opacity=".1"></path><path xmlns="http://www.w3.org/2000/svg" d="m48 56-8-4 6 24-6-6-3 20 3 22v4l8 4v-14l-3-22 3-9z" fill="#fff" opacity=".1"></path><path xmlns="http://www.w3.org/2000/svg" d="m16 40-4-4 3 8-2 33-4 5 3 18 4 4v-9l4-21-4-23z" fill="#fff" opacity=".1"></path><path xmlns="http://www.w3.org/2000/svg" d="m12 36-12-4v64l12 4-9-29 9-23z" opacity=".1"></path><path xmlns="http://www.w3.org/2000/svg" d="m24 44 8 8 7 17-7 19 2 18-2 10-8-8 7-27-10-31z" opacity=".15"></path><path xmlns="http://www.w3.org/2000/svg" d="m52 124 12 4v-64l-12-4-2 6 5 7 3 19-6 23z" opacity=".1"></path></g></g></g><g id="i465" class="top-level-node" transform="translate(128,144)scale(0.5)"><g><g><path xmlns="http://www.w3.org/2000/svg" d="m64 1-12 4-4 4-8 4-8 8h-8l-8 4-4 4-12 4v63l12 4 4 4 8 4 8 8h8l8 4 4 4 12 4 12-4 4-4 8-4h8l8-8 8-4 4-4 12-4v-63l-12-4-4-4-8-4h-8l-8-8-8-4-4-4z" fill="#656565"></path><path xmlns="http://www.w3.org/2000/svg" d="m64 0-12 4-4 4-8 4-8 8h-8l-8 4-4 4-12 4v2l12 4 4 4 8 4 8 8h8l8 4 4 4 12 4 12-4 4-4 8-4h8l8-8 8-4 4-4 12-4v-2l-12-4-4-4-8-4h-8l-8-8-8-4-4-4z" fill="#9c3"></path><path xmlns="http://www.w3.org/2000/svg" d="m64 0-12 4-4 4-8 4-8 8h-8l-8 4-4 4-12 4v2l12 4 4 4 8 4 8 8h8l8 4 4 4 12 4 12-4 4-4 8-4h8l8-8 8-4 4-4 12-4v-2l-12-4-4-4-8-4h-8l-8-8-8-4-4-4z" fill="#9c3"></path><path xmlns="http://www.w3.org/2000/svg" d="m0 32 12 4 4 4 8 4 8 8h8l8 4 4 4 12 4v64l-12-4-4-4-8-4h-8l-8-8-8-4-4-4-12-4z" opacity=".11"></path><path xmlns="http://www.w3.org/2000/svg" d="m128 32v64l-12 4-4 4-8 4-8 8h-8l-8 4-4 4-12 4v-64l12-4 4-4 8-4h8l8-8 8-4 4-4z" opacity=".29"></path><path xmlns="http://www.w3.org/2000/svg" d="m80 56 8-4 2 11-2 46v7l-8 4 6-24z" fill="#fff" opacity=".1"></path><path xmlns="http://www.w3.org/2000/svg" d="m112 40 4-4-1 22 5 23-8 9 4 10-4 4-3-8 7-28z" fill="#fff" opacity=".1"></path><path xmlns="http://www.w3.org/2000/svg" d="m116 36 12-4v64l-12 4-2-8 12-13-5-27z" opacity=".1"></path><path xmlns="http://www.w3.org/2000/svg" d="m104 44-8 8-2 7 7 18-5 34v5l8-8 3-39z" opacity=".15"></path><path xmlns="http://www.w3.org/2000/svg" d="m76 124-12 4v-64l12-4-7 16 8 22-1 21z" opacity=".1"></path><path xmlns="http://www.w3.org/2000/svg" d="m48 56-8-4 6 24-6-6-3 20 3 22v4l8 4v-14l-3-22 3-9z" fill="#fff" opacity=".1"></path><path xmlns="http://www.w3.org/2000/svg" d="m16 40-4-4 3 8-2 33-4 5 3 18 4 4v-9l4-21-4-23z" fill="#fff" opacity=".1"></path><path xmlns="http://www.w3.org/2000/svg" d="m12 36-12-4v64l12 4-9-29 9-23z" opacity=".1"></path><path xmlns="http://www.w3.org/2000/svg" d="m24 44 8 8 7 17-7 19 2 18-2 10-8-8 7-27-10-31z" opacity=".15"></path><path xmlns="http://www.w3.org/2000/svg" d="m52 124 12 4v-64l-12-4-2 6 5 7 3 19-6 23z" opacity=".1"></path></g></g></g><g id="i466" class="top-level-node" transform="translate(216,136)scale(0.5)"><g><g><path xmlns="http://www.w3.org/2000/svg" d="m116 29-4-4-8-4h-8l-8-8-8-4-4-4-12-4-12 4-4 4-8 4-3 3h-8l-4 2-1 3-3 1v19l-1 1-4 4-3 1v20l-1 1-12 4v24l12 4 4 4 8 4 8 8h8l8 4 4 4 12 4 12-4 4-4 8-4h8l8-8 8-4 4-4 12-4v-63z" fill="#656565"></path><path xmlns="http://www.w3.org/2000/svg" d="m40 32 5 3 4 12 14-8 6 3 3 12 13 1 3-1 1-3 4-2h8l3-3 8-4 4-4 12-4v-2l-12-4-4-4-8-4h-8l-8-8-8-4-4-4-12-4-12 4-4 4-8 4-3 3h-8l-4 2-1 3-3 1v2l10 12z" fill="#9c3"></path><path xmlns="http://www.w3.org/2000/svg" d="m116 36-4 4-8 4-3 3h-8l-4 2-1 3-3 1v20l3-1 1-3 4-2h8l-5 5h-8l-4 2-4 4-3 1v20l-1 1-12 4v24l12-4 4-4 8-4h8l8-8 8-4 4-4 12-4v-64z" opacity=".29"></path><path xmlns="http://www.w3.org/2000/svg" d="m0 72 12 4 4 4 8 4 8 8h8l8 4 4 4 12 4v24l-12-4-4-4-8-4h-8l-8-8-8-4-4-4-12-4z" opacity=".11"></path><path xmlns="http://www.w3.org/2000/svg" d="m76 124-12 4v-24l12-4z" opacity=".1"></path><path xmlns="http://www.w3.org/2000/svg" d="m48 96-8-4v24l8 4z" fill="#fff" opacity=".1"></path><path xmlns="http://www.w3.org/2000/svg" d="m16 80-4-4v24l4 4z" fill="#fff" opacity=".1"></path><path xmlns="http://www.w3.org/2000/svg" d="m12 76-12-4v24l12 4z" opacity=".1"></path><path xmlns="http://www.w3.org/2000/svg" d="m24 84 8 8v24l-8-8z" opacity=".15"></path><path xmlns="http://www.w3.org/2000/svg" d="m52 124 12 4v-24l-12-4z" opacity=".1"></path><path xmlns="http://www.w3.org/2000/svg" d="m13 47 6 2 4 10h14l3 13 13-5 8 4 3 7 13 1v20l-13-1-3-7-8-4-13 5-3-13h-14l-4-10-6-2z" opacity=".11"></path><path xmlns="http://www.w3.org/2000/svg" d="m88 72-4 2v20l-4 2v24l8-4z" fill="#fff" opacity=".1"></path><path xmlns="http://www.w3.org/2000/svg" d="m80 98-3 1v-20l3-1z" opacity=".1"></path><path xmlns="http://www.w3.org/2000/svg" d="m61 71-8-4v20l8 4z" opacity=".15"></path><path xmlns="http://www.w3.org/2000/svg" d="m23 59-4-10v20l4 10z" opacity=".15"></path><path xmlns="http://www.w3.org/2000/svg" d="m19 49-6-2v20l6 2z" fill="#fff" opacity=".1"></path><path xmlns="http://www.w3.org/2000/svg" d="m37 59 3 13v20l-3-13z" fill="#fff" opacity=".1"></path><path xmlns="http://www.w3.org/2000/svg" d="m64 98 13 1v-20l-13-1z" opacity=".1"></path><path xmlns="http://www.w3.org/2000/svg" d="m21 21 10 12 9-3 5 3 4 12 14-8 6 3 3 12 13 1v20l-13-1-3-12-6-3-14 8-4-12-5-3-9 3-10-12z" opacity=".11"></path><path xmlns="http://www.w3.org/2000/svg" d="m89 69-1 3h8l5-5h-8z" fill="#656565"></path><path xmlns="http://www.w3.org/2000/svg" d="m84.8 117.6 3.2-1.6h8-8z" fill="#656565"></path><path xmlns="http://www.w3.org/2000/svg" d="m89 49 4-2v20l-4 2z" opacity=".15"></path><path xmlns="http://www.w3.org/2000/svg" d="m112 40v64l4-4v-64z" fill="#fff" opacity=".1"></path><path xmlns="http://www.w3.org/2000/svg" d="m116 36v64l12-4v-64z" opacity=".1"></path><g xmlns="http://www.w3.org/2000/svg" fill="#fff"><path d="m88 72-3 1v-20l3-1z" opacity=".1"></path><path d="m69 40-6-3v20l6 3z" opacity=".1"></path><path d="m40 30-9 3v20l9-3z" opacity=".1"></path></g><path xmlns="http://www.w3.org/2000/svg" d="m31 33-10-12v20l10 12z" opacity=".1"></path><path xmlns="http://www.w3.org/2000/svg" d="m45 33 4 12v20l-4-12z" opacity=".15"></path><path xmlns="http://www.w3.org/2000/svg" d="m72 72-3-12v-20l3 12z" opacity=".15"></path><path xmlns="http://www.w3.org/2000/svg" d="m101 47v20l-5 5v44l8-8v-64z" opacity=".15"></path></g></g></g><g id="i467" class="top-level-node" transform="translate(304,136)scale(0.5)"><g><g><path xmlns="http://www.w3.org/2000/svg" d="m64 1-12 4-4 4-8 4-8 8h-8l-8 4-4 4-12 4v31l12 4 4 4 8 4 8 8h8l8 4 4 4 12 4 12-4 4-4 8-4h8l8-8 8-4 4-4 12-4v-31l-12-4-4-4-8-4h-8l-8-8-8-4-4-4z" fill="#656565"></path><path xmlns="http://www.w3.org/2000/svg" d="m64 0-12 4-4 4-8 4-8 8h-8l-8 4-4 4-12 4v2l12 4 4 4 8 4 8 8h8l8 4 4 4 12 4 12-4 4-4 8-4h8l8-8 8-4 4-4 12-4v-2l-12-4-4-4-8-4h-8l-8-8-8-4-4-4z" fill="#9c3"></path><path xmlns="http://www.w3.org/2000/svg" d="m0 32 12 4 4 4 8 4 8 8h8l8 4 4 4 12 4v32l-12-4-4-4-8-4h-8l-8-8-8-4-4-4-12-4z" opacity=".11"></path><path xmlns="http://www.w3.org/2000/svg" d="m128 32v32l-12 4-4 4-8 4-8 8h-8l-8 4-4 4-12 4v-32l12-4 4-4 8-4h8l8-8 8-4 4-4z" opacity=".29"></path><path xmlns="http://www.w3.org/2000/svg" d="m80 56 8-4v32l-8 4z" fill="#fff" opacity=".1"></path><path xmlns="http://www.w3.org/2000/svg" d="m112 40 4-4v32l-4 4z" fill="#fff" opacity=".1"></path><path xmlns="http://www.w3.org/2000/svg" d="m116 36 12-4v32l-12 4z" opacity=".1"></path><path xmlns="http://www.w3.org/2000/svg" d="m104 44-8 8v32l8-8z" opacity=".15"></path><path xmlns="http://www.w3.org/2000/svg" d="m76 92-12 4v-32l12-4z" opacity=".1"></path><path xmlns="http://www.w3.org/2000/svg" d="m48 56-8-4v32l8 4z" fill="#fff" opacity=".1"></path><path xmlns="http://www.w3.org/2000/svg" d="m16 40-4-4v32l4 4z" fill="#fff" opacity=".1"></path><path xmlns="http://www.w3.org/2000/svg" d="m12 36-12-4v32l12 4z" opacity=".1"></path><path xmlns="http://www.w3.org/2000/svg" d="m24 44 8 8v32l-8-8z" opacity=".15"></path><path xmlns="http://www.w3.org/2000/svg" d="m52 92 12 4v-32l-12-4z" opacity=".1"></path></g></g></g></g><g id="chart-foreground-container"><rect id="chart-foreground-rect" width="800" height="640" fill="none" stroke-width="1px" stroke="rgb(64, 64, 64)" stroke-opacity="0.7"></rect></g><g id="selection-layer"></g><g id="global-selection-layer"><g id="global-selection"><rect x="547.0977783203125" y="547.0977783203125" width="1" height="1" fill="none" stroke-width="1px" stroke="blue"></rect></g></g></g>	 
</svg>
