<?xml version="1.0" encoding="UTF-8" standalone="no"?>
<!-- Created with Inkscape (http://www.inkscape.org/) -->

<svg
   xmlns:dc="http://purl.org/dc/elements/1.1/"
   xmlns:cc="http://creativecommons.org/ns#"
   xmlns:rdf="http://www.w3.org/1999/02/22-rdf-syntax-ns#"
   xmlns:svg="http://www.w3.org/2000/svg"
   xmlns="http://www.w3.org/2000/svg"
   xmlns:sodipodi="http://sodipodi.sourceforge.net/DTD/sodipodi-0.dtd"
   xmlns:inkscape="http://www.inkscape.org/namespaces/inkscape"
   width="24.251465mm"
   height="18.188599mm"
   viewBox="0 0 24.251464 18.188599"
   version="1.1"
   id="svg581"
   inkscape:version="0.92.2 (5c3e80d, 2017-08-06)"
   sodipodi:docname="black-hills-.svg">
  <defs
     id="defs575" />
  <sodipodi:namedview
     id="base"
     pagecolor="#ffffff"
     bordercolor="#666666"
     borderopacity="1.0"
     inkscape:pageopacity="0.0"
     inkscape:pageshadow="2"
     inkscape:zoom="0.7"
     inkscape:cx="-236.15197"
     inkscape:cy="201.19672"
     inkscape:document-units="mm"
     inkscape:current-layer="svg581"
     showgrid="false"
     inkscape:window-width="1360"
     inkscape:window-height="706"
     inkscape:window-x="-8"
     inkscape:window-y="-8"
     inkscape:window-maximized="1"
     fit-margin-top="0"
     fit-margin-left="0"
     fit-margin-right="0"
     fit-margin-bottom="0" />
  <metadata
     id="metadata578">
    <rdf:RDF>
      <cc:Work
         rdf:about="">
        <dc:format>image/svg+xml</dc:format>
        <dc:type
           rdf:resource="http://purl.org/dc/dcmitype/StillImage" />
        <dc:title></dc:title>
      </cc:Work>
    </rdf:RDF>
  </metadata>
  <g
     inkscape:label="Layer 1"
     inkscape:groupmode="layer"
     id="layer1"
     transform="translate(-133.38986,-66.229031)" />
  <g
     id="i467"
     class="top-level-node"
     transform="scale(0.18946457)">
    <g
       id="g392">
      <g
         id="g390">
        <path
           d="m 64,1 -12,4 -4,4 -8,4 -8,8 h -8 l -8,4 -4,4 -12,4 v 31 l 12,4 4,4 8,4 8,8 h 8 l 8,4 4,4 12,4 12,-4 4,-4 8,-4 h 8 l 8,-8 8,-4 4,-4 12,-4 V 33 l -12,-4 -4,-4 -8,-4 H 96 L 88,13 80,9 76,5 Z"
           id="path362"
           inkscape:connector-curvature="0"
           style="fill:#656565" />
        <path
           d="m 64,0 -12,4 -4,4 -8,4 -8,8 h -8 l -8,4 -4,4 -12,4 v 2 l 12,4 4,4 8,4 8,8 h 8 l 8,4 4,4 12,4 12,-4 4,-4 8,-4 h 8 l 8,-8 8,-4 4,-4 12,-4 v -2 l -12,-4 -4,-4 -8,-4 H 96 L 88,12 80,8 76,4 Z"
           id="path364"
           inkscape:connector-curvature="0"
           style="fill:#99cc33" />
        <path
           d="m 0,32 12,4 4,4 8,4 8,8 h 8 l 8,4 4,4 12,4 V 96 L 52,92 48,88 40,84 H 32 L 24,76 16,72 12,68 0,64 Z"
           id="path366"
           inkscape:connector-curvature="0"
           style="opacity:0.11000001" />
        <path
           d="m 128,32 v 32 l -12,4 -4,4 -8,4 -8,8 h -8 l -8,4 -4,4 -12,4 V 64 l 12,-4 4,-4 8,-4 h 8 l 8,-8 8,-4 4,-4 z"
           id="path368"
           inkscape:connector-curvature="0"
           style="opacity:0.28999999" />
        <path
           d="m 80,56 8,-4 v 32 l -8,4 z"
           id="path370"
           inkscape:connector-curvature="0"
           style="opacity:0.1;fill:#ffffff" />
        <path
           d="m 112,40 4,-4 v 32 l -4,4 z"
           id="path372"
           inkscape:connector-curvature="0"
           style="opacity:0.1;fill:#ffffff" />
        <path
           d="m 116,36 12,-4 v 32 l -12,4 z"
           id="path374"
           inkscape:connector-curvature="0"
           style="opacity:0.1" />
        <path
           d="m 104,44 -8,8 v 32 l 8,-8 z"
           id="path376"
           inkscape:connector-curvature="0"
           style="opacity:0.15" />
        <path
           d="M 76,92 64,96 V 64 l 12,-4 z"
           id="path378"
           inkscape:connector-curvature="0"
           style="opacity:0.1" />
        <path
           d="m 48,56 -8,-4 v 32 l 8,4 z"
           id="path380"
           inkscape:connector-curvature="0"
           style="opacity:0.1;fill:#ffffff" />
        <path
           d="m 16,40 -4,-4 v 32 l 4,4 z"
           id="path382"
           inkscape:connector-curvature="0"
           style="opacity:0.1;fill:#ffffff" />
        <path
           d="M 12,36 0,32 v 32 l 12,4 z"
           id="path384"
           inkscape:connector-curvature="0"
           style="opacity:0.1" />
        <path
           d="m 24,44 8,8 v 32 l -8,-8 z"
           id="path386"
           inkscape:connector-curvature="0"
           style="opacity:0.15" />
        <path
           d="m 52,92 12,4 V 64 L 52,60 Z"
           id="path388"
           inkscape:connector-curvature="0"
           style="opacity:0.1" />
      </g>
    </g>
  </g>
  <g
     id="selection-layer"
     transform="matrix(0.37892914,0,0,0.37892914,-14.701118,175.1102)" />
</svg>
