<?xml version="1.0" encoding="UTF-8" standalone="no"?>
<!-- Created with Inkscape (http://www.inkscape.org/) -->

<svg
   xmlns:dc="http://purl.org/dc/elements/1.1/"
   xmlns:cc="http://creativecommons.org/ns#"
   xmlns:rdf="http://www.w3.org/1999/02/22-rdf-syntax-ns#"
   xmlns:svg="http://www.w3.org/2000/svg"
   xmlns="http://www.w3.org/2000/svg"
   xmlns:sodipodi="http://sodipodi.sourceforge.net/DTD/sodipodi-0.dtd"
   xmlns:inkscape="http://www.inkscape.org/namespaces/inkscape"
   width="25.767181mm"
   height="30.314331mm"
   viewBox="0 0 25.767181 30.314331"
   version="1.1"
   id="svg581"
   inkscape:version="0.92.2 (5c3e80d, 2017-08-06)"
   sodipodi:docname="concrete-factory-1.svg">
  <defs
     id="defs575" />
  <sodipodi:namedview
     id="base"
     pagecolor="#ffffff"
     bordercolor="#666666"
     borderopacity="1.0"
     inkscape:pageopacity="0.0"
     inkscape:pageshadow="2"
     inkscape:zoom="0.49497475"
     inkscape:cx="48.56732"
     inkscape:cy="-358.68069"
     inkscape:document-units="mm"
     inkscape:current-layer="svg581"
     showgrid="false"
     inkscape:window-width="1360"
     inkscape:window-height="706"
     inkscape:window-x="-8"
     inkscape:window-y="-8"
     inkscape:window-maximized="1"
     fit-margin-top="0"
     fit-margin-left="0"
     fit-margin-right="0"
     fit-margin-bottom="0" />
  <metadata
     id="metadata578">
    <rdf:RDF>
      <cc:Work
         rdf:about="">
        <dc:format>image/svg+xml</dc:format>
        <dc:type
           rdf:resource="http://purl.org/dc/dcmitype/StillImage" />
        <dc:title></dc:title>
      </cc:Work>
    </rdf:RDF>
  </metadata>
  <g
     inkscape:label="Layer 1"
     inkscape:groupmode="layer"
     id="layer1"
     transform="translate(-406.24464,590.21346)" />
  <g
     id="i401"
     class="top-level-node"
     transform="matrix(0.37892914,0,0,0.37892914,-2.2735748,0)">
    <g
       id="g142">
      <g
         id="g140">
        <path
           d="M 40,80 72,64 40,48 8,64 Z"
           id="path20"
           inkscape:connector-curvature="0"
           style="opacity:0.2" />
        <path
           d="M 16,56 48,72 60,66 V 64 L 28,48 16,54 Z"
           id="path22"
           inkscape:connector-curvature="0"
           style="fill:#999999" />
        <path
           d="M 16,56 48,72 V 70 L 16,54 Z"
           id="path24"
           inkscape:connector-curvature="0"
           style="opacity:0.11000001" />
        <path
           d="M 48,72 60,66 V 64 L 48,70 Z"
           id="path26"
           inkscape:connector-curvature="0"
           style="opacity:0.28999999" />
        <path
           d="m 26,49 32,16 2,-1 V 60 L 28,44 26,45 Z"
           id="path28"
           inkscape:connector-curvature="0"
           style="fill:#999999" />
        <path
           d="M 26,49 58,65 V 61 L 26,45 Z"
           id="path30"
           inkscape:connector-curvature="0"
           style="opacity:0.11000001" />
        <path
           d="m 58,65 2,-1 v -4 l -2,1 z"
           id="path32"
           inkscape:connector-curvature="0"
           style="opacity:0.28999999" />
        <path
           d="m 24,50 -4,2 32,16 4,-2 z"
           id="path34"
           inkscape:connector-curvature="0"
           style="fill:#2d3134" />
        <path
           d="m 16,54 32,16 2,-1 V 65 L 18,49 16,50 Z"
           id="path36"
           inkscape:connector-curvature="0"
           style="fill:#999999" />
        <path
           d="M 16,54 48,70 V 66 L 16,50 Z"
           id="path38"
           inkscape:connector-curvature="0"
           style="opacity:0.11000001" />
        <path
           d="m 48,70 2,-1 v -4 l -2,1 z"
           id="path40"
           inkscape:connector-curvature="0"
           style="opacity:0.28999999" />
        <path
           d="m 70,63 2,1 2,-1 V 31 l -2,-1 -2,1 z"
           id="path42"
           inkscape:connector-curvature="0"
           style="fill:#999999" />
        <path
           d="m 70,63 2,1 V 32 l -2,-1 z"
           id="path44"
           inkscape:connector-curvature="0"
           style="opacity:0.11000001" />
        <path
           d="m 72,64 2,-1 V 31 l -2,1 z"
           id="path46"
           inkscape:connector-curvature="0"
           style="opacity:0.28999999" />
        <path
           d="M 40,41 10,56 8,55 v -2 l 30,-15 2,1 z"
           id="path48"
           inkscape:connector-curvature="0"
           style="fill:#999999" />
        <path
           d="M 40,41 10,56 V 54 L 40,39 Z"
           id="path50"
           inkscape:connector-curvature="0"
           style="opacity:0.28999999" />
        <path
           d="M 10,56 8,55 v -2 l 2,1 z"
           id="path52"
           inkscape:connector-curvature="0"
           style="opacity:0.28999999" />
        <path
           d="m 40,41 30,15 2,-1 V 53 L 42,38 40,39 Z"
           id="path54"
           inkscape:connector-curvature="0"
           style="fill:#999999" />
        <path
           d="M 40,41 70,56 V 54 L 40,39 Z"
           id="path56"
           inkscape:connector-curvature="0"
           style="opacity:0.11000001" />
        <path
           d="m 70,56 2,-1 v -2 l -2,1 z"
           id="path58"
           inkscape:connector-curvature="0"
           style="opacity:0.28999999" />
        <path
           d="m 72,19 -14,7 -2,-1 v -2 l 14,-7 2,1 z"
           id="path60"
           inkscape:connector-curvature="0"
           style="fill:#999999" />
        <path
           d="M 72,19 58,26 V 24 L 72,17 Z"
           id="path62"
           inkscape:connector-curvature="0"
           style="opacity:0.28999999" />
        <path
           d="m 58,26 -2,-1 v -2 l 2,1 z"
           id="path64"
           inkscape:connector-curvature="0"
           style="opacity:0.28999999" />
        <path
           d="m 56,27 14,7 2,-1 v -2 l -14,-7 -2,1 z"
           id="path66"
           inkscape:connector-curvature="0"
           style="fill:#999999" />
        <path
           d="m 56,27 14,7 V 32 L 56,25 Z"
           id="path68"
           inkscape:connector-curvature="0"
           style="opacity:0.11000001" />
        <path
           d="m 70,34 2,-1 v -2 l -2,1 z"
           id="path70"
           inkscape:connector-curvature="0"
           style="opacity:0.28999999" />
        <path
           d="M 40,0 72,16 V 32 H 68 L 40,18 V 2 Z"
           id="path72"
           inkscape:connector-curvature="0"
           style="fill:#e5e5e5" />
        <path
           d="M 40,18 68,32 V 16 L 40,2 Z"
           id="path74"
           inkscape:connector-curvature="0"
           style="opacity:0.11000001" />
        <path
           d="m 68,16 h 4 v 16 h -4 z"
           id="path76"
           inkscape:connector-curvature="0"
           style="opacity:0.28999999" />
        <path
           d="M 68,16 38,31 v 16 l 2,1 32,-16 V 16 Z"
           id="path78"
           inkscape:connector-curvature="0"
           style="fill:#e5e5e5" />
        <path
           d="M 72,32 40,48 V 32 L 72,16 Z"
           id="path80"
           inkscape:connector-curvature="0"
           style="opacity:0.28999999" />
        <path
           d="M 40,48 38,47 V 31 l 2,1 z"
           id="path82"
           inkscape:connector-curvature="0"
           style="opacity:0.11000001" />
        <path
           d="M 40,0 8,16 v 16 h 4 L 40,18 V 2 Z"
           id="path84"
           inkscape:connector-curvature="0"
           style="fill:#e5e5e5" />
        <path
           d="M 40,18 12,32 V 16 L 40,2 Z"
           id="path86"
           inkscape:connector-curvature="0"
           style="opacity:0.28999999" />
        <path
           d="m 8,16 h 4 V 32 H 8 Z"
           id="path88"
           inkscape:connector-curvature="0"
           style="opacity:0.11000001" />
        <path
           d="M 12,16 42,31 V 47 L 40,48 8,32 V 16 Z"
           id="path90"
           inkscape:connector-curvature="0"
           style="fill:#e5e5e5" />
        <path
           d="M 8,32 40,48 V 32 L 8,16 Z"
           id="path92"
           inkscape:connector-curvature="0"
           style="opacity:0.11000001" />
        <path
           d="m 40,48 2,-1 V 31 l -2,1 z"
           id="path94"
           inkscape:connector-curvature="0"
           style="opacity:0.28999999" />
        <path
           d="M 40,48 8,32 28,52 40,58 52,52 72,32 Z"
           id="path96"
           inkscape:connector-curvature="0"
           style="fill:#ff9900" />
        <path
           d="m 8,32 20,20 12,6 V 48 Z"
           id="path98"
           inkscape:connector-curvature="0"
           style="opacity:0.11000001" />
        <path
           d="M 72,32 52,52 40,58 V 48 Z"
           id="path100"
           inkscape:connector-curvature="0"
           style="opacity:0.28999999" />
        <path
           d="m 40,14 -16,8 16,8 16,-8 z"
           id="path102"
           inkscape:connector-curvature="0"
           style="fill:#2d3134" />
        <path
           d="M 72,34 42,49 40,48 v -2 l 30,-15 2,1 z"
           id="path104"
           inkscape:connector-curvature="0"
           style="fill:#999999" />
        <path
           d="M 72,34 42,49 V 47 L 72,32 Z"
           id="path106"
           inkscape:connector-curvature="0"
           style="opacity:0.28999999" />
        <path
           d="m 42,49 -2,-1 v -2 l 2,1 z"
           id="path108"
           inkscape:connector-curvature="0"
           style="opacity:0.28999999" />
        <path
           d="M 72,57 42,72 40,71 v -2 l 30,-15 2,1 z"
           id="path110"
           inkscape:connector-curvature="0"
           style="fill:#999999" />
        <path
           d="M 72,57 42,72 V 70 L 72,55 Z"
           id="path112"
           inkscape:connector-curvature="0"
           style="opacity:0.28999999" />
        <path
           d="m 42,72 -2,-1 v -2 l 2,1 z"
           id="path114"
           inkscape:connector-curvature="0"
           style="opacity:0.28999999" />
        <path
           d="m 6,63 2,1 2,-1 V 31 L 8,30 6,31 Z"
           id="path116"
           inkscape:connector-curvature="0"
           style="fill:#999999" />
        <path
           d="m 6,63 2,1 V 32 L 6,31 Z"
           id="path118"
           inkscape:connector-curvature="0"
           style="opacity:0.11000001" />
        <path
           d="m 8,64 2,-1 V 31 l -2,1 z"
           id="path120"
           inkscape:connector-curvature="0"
           style="opacity:0.28999999" />
        <path
           d="m 8,57 30,15 2,-1 V 69 L 10,54 8,55 Z"
           id="path122"
           inkscape:connector-curvature="0"
           style="fill:#999999" />
        <path
           d="M 8,57 38,72 V 70 L 8,55 Z"
           id="path124"
           inkscape:connector-curvature="0"
           style="opacity:0.11000001" />
        <path
           d="m 38,72 2,-1 v -2 l -2,1 z"
           id="path126"
           inkscape:connector-curvature="0"
           style="opacity:0.28999999" />
        <path
           d="m 8,34 30,15 2,-1 V 46 L 10,31 8,32 Z"
           id="path128"
           inkscape:connector-curvature="0"
           style="fill:#999999" />
        <path
           d="M 8,34 38,49 V 47 L 8,32 Z"
           id="path130"
           inkscape:connector-curvature="0"
           style="opacity:0.11000001" />
        <path
           d="m 38,49 2,-1 v -2 l -2,1 z"
           id="path132"
           inkscape:connector-curvature="0"
           style="opacity:0.28999999" />
        <path
           d="m 38,79 2,1 2,-1 V 47 l -2,-1 -2,1 z"
           id="path134"
           inkscape:connector-curvature="0"
           style="fill:#999999" />
        <path
           d="m 38,79 2,1 V 48 l -2,-1 z"
           id="path136"
           inkscape:connector-curvature="0"
           style="opacity:0.11000001" />
        <path
           d="m 40,80 2,-1 V 47 l -2,1 z"
           id="path138"
           inkscape:connector-curvature="0"
           style="opacity:0.28999999" />
      </g>
    </g>
  </g>
</svg>
