<?xml version="1.0" encoding="UTF-8" standalone="no"?>
<!-- Created with Inkscape (http://www.inkscape.org/) -->

<svg
   xmlns:dc="http://purl.org/dc/elements/1.1/"
   xmlns:cc="http://creativecommons.org/ns#"
   xmlns:rdf="http://www.w3.org/1999/02/22-rdf-syntax-ns#"
   xmlns:svg="http://www.w3.org/2000/svg"
   xmlns="http://www.w3.org/2000/svg"
   xmlns:sodipodi="http://sodipodi.sourceforge.net/DTD/sodipodi-0.dtd"
   xmlns:inkscape="http://www.inkscape.org/namespaces/inkscape"
   width="12.277304mm"
   height="6.9722962mm"
   viewBox="0 0 12.277304 6.9722964"
   version="1.1"
   id="svg581"
   inkscape:version="0.92.2 (5c3e80d, 2017-08-06)"
   sodipodi:docname="construction-tools-.svg">
  <defs
     id="defs575" />
  <sodipodi:namedview
     id="base"
     pagecolor="#ffffff"
     bordercolor="#666666"
     borderopacity="1.0"
     inkscape:pageopacity="0.0"
     inkscape:pageshadow="2"
     inkscape:zoom="1.5603607"
     inkscape:cx="135.77001"
     inkscape:cy="172.0756"
     inkscape:document-units="mm"
     inkscape:current-layer="svg581"
     showgrid="false"
     inkscape:window-width="1360"
     inkscape:window-height="706"
     inkscape:window-x="-8"
     inkscape:window-y="-8"
     inkscape:window-maximized="1"
     fit-margin-top="0"
     fit-margin-left="0"
     fit-margin-right="0"
     fit-margin-bottom="0" />
  <metadata
     id="metadata578">
    <rdf:RDF>
      <cc:Work
         rdf:about="">
        <dc:format>image/svg+xml</dc:format>
        <dc:type
           rdf:resource="http://purl.org/dc/dcmitype/StillImage" />
        <dc:title></dc:title>
      </cc:Work>
    </rdf:RDF>
  </metadata>
  <g
     inkscape:label="Layer 1"
     inkscape:groupmode="layer"
     id="layer1"
     transform="translate(75.356876,-252.361)" />
  <g
     id="i457"
     class="top-level-node"
     transform="matrix(0.37892914,0,0,0.37892914,-2.9556473,-2.9935402)">
    <g
       id="g560">
      <g
         id="g558">
        <g
           id="g436">
          <path
             d="m 31.2,11.5 -0.4,0.2 -0.4,-0.2 v -0.4 l -1,-0.5 -0.4,0.2 -0.4,-0.2 V 10.2 L 27.6,9.7 27.2,9.9 26.8,9.7 V 9.3 L 25.8,8.8 25.4,9 25,8.8 V 8.4 L 24,7.9 15.8,12 v 2.2 l 1,0.5 1.4,-0.7 1.2,0.6 V 16 l 1,0.5 1.4,-0.7 1.2,0.6 v 1.4 l 1,0.5 8.2,-4.1 V 12 Z m -1.8,0.9 -2.2,1.1 -0.4,-0.2 1.6,-0.8 0.6,-0.3 z m -6.2,2.7 2.2,-1.1 0.4,0.2 -2.2,1.1 z m -3.6,-1.8 2.2,-1.1 0.4,0.2 -2.2,1.1 z m -1.8,-0.9 1.6,-0.8 V 12 l -1.2,0.6 z M 23,10.2 21.8,10.8 21.4,10.6 23,9.8 Z m -1.6,4 2.2,-1.1 0.4,0.2 -2.2,1.1 z M 26.6,12 25.4,12.6 25,12.4 26.6,11.6 Z m -0.8,-1.4 -2.2,1.1 -0.4,-0.2 1.6,-0.8 0.6,-0.3 z M 25,16.4 V 16 l 1.6,-0.8 v 0.4 z m 3.6,-1.8 v -0.4 l 1.6,-0.8 v 0.4 z"
             id="path398"
             inkscape:connector-curvature="0"
             style="fill:#825012" />
          <polygon
             points="21.8,15.8 20.4,15.1 20.4,16.5 "
             id="polygon400"
             style="opacity:0.28999999" />
          <polygon
             points="30.2,13.4 31.2,12.9 31.2,14.3 30.2,13.8 "
             id="polygon402"
             style="opacity:0.11000001" />
          <polygon
             points="26.6,15.2 27.6,14.7 27.6,16.1 26.6,15.6 "
             id="polygon404"
             style="opacity:0.11000001" />
          <polygon
             points="29.4,12 29.8,12.2 29.4,12.4 29,12.2 "
             id="polygon406"
             style="opacity:0.11000001" />
          <polygon
             points="26.6,12 28,11.3 27.6,11.1 26.6,11.6 "
             id="polygon408"
             style="opacity:0.11000001" />
          <polygon
             points="25.8,10.2 26.2,10.4 25.8,10.6 25.4,10.4 "
             id="polygon410"
             style="opacity:0.11000001" />
          <polygon
             points="23,10.2 24.4,9.5 24,9.3 23,9.8 "
             id="polygon412"
             style="opacity:0.11000001" />
          <polygon
             points="25.8,13.8 26.2,14 25.8,14.2 25.4,14 "
             id="polygon414"
             style="opacity:0.11000001" />
          <polygon
             points="24,12.9 24.4,13.1 24,13.3 23.6,13.1 "
             id="polygon416"
             style="opacity:0.11000001" />
          <polygon
             points="22.2,12 22.6,12.2 22.2,12.4 21.8,12.2 "
             id="polygon418"
             style="opacity:0.11000001" />
          <polygon
             points="19.4,12 20.8,11.3 20.4,11.1 19.4,11.6 "
             id="polygon420"
             style="opacity:0.11000001" />
          <path
             d="m 24,16.1 v 2.2 l 8.2,-4.1 V 12 Z m 3.6,0 -2.6,1.3 V 16 l 2.6,-1.3 z m 3.6,-1.8 -2.6,1.3 v -1.4 l 2.6,-1.3 z"
             id="path422"
             inkscape:connector-curvature="0"
             style="opacity:0.28999999" />
          <polygon
             points="30.4,11.1 22.2,15.2 22.2,15.6 30.4,11.5 "
             id="polygon424"
             style="opacity:0.28999999" />
          <polygon
             points="28.6,10.2 20.4,14.3 20.4,14.7 28.6,10.6 "
             id="polygon426"
             style="opacity:0.28999999" />
          <polygon
             points="26.8,9.3 18.6,13.4 18.6,13.8 26.8,9.7 "
             id="polygon428"
             style="opacity:0.28999999" />
          <polygon
             points="20.4,16.5 20.4,15.1 23,16.4 23,17.8 24,18.3 24,16.1 23,15.6 23,16 22.2,15.6 22.2,15.2 21.2,14.7 21.2,15.1 20.4,14.7 20.4,14.3 19.4,13.8 19.4,14.2 18.6,13.8 18.6,13.4 17.6,12.9 17.6,13.3 16.8,12.9 16.8,12.5 15.8,12 15.8,14.2 16.8,14.7 16.8,13.3 19.4,14.6 19.4,16 "
             id="polygon430"
             style="opacity:0.11000001" />
          <polygon
             points="25,8.4 16.8,12.5 16.8,12.9 25,8.8 "
             id="polygon432"
             style="opacity:0.28999999" />
          <polygon
             points="18.2,14 16.8,13.3 16.8,14.7 "
             id="polygon434"
             style="opacity:0.28999999" />
        </g>
        <g
           id="g476">
          <path
             d="m 23.2,15.5 -0.4,0.2 -0.4,-0.2 v -0.4 l -1,-0.5 -0.4,0.2 -0.4,-0.2 v -0.4 l -1,-0.5 -0.4,0.2 -0.4,-0.2 V 13.3 L 17.8,12.8 17.4,13 17,12.8 V 12.4 L 16,11.9 7.8,16 v 2.2 l 1,0.5 1.4,-0.7 1.2,0.6 V 20 l 1,0.5 1.4,-0.7 1.2,0.6 v 1.4 l 1,0.5 8.2,-4.1 V 16 Z m -1.8,0.9 -2.2,1.1 -0.4,-0.2 1.6,-0.8 0.6,-0.3 z m -6.2,2.7 2.2,-1.1 0.4,0.2 -2.2,1.1 z m -3.6,-1.8 2.2,-1.1 0.4,0.2 -2.2,1.1 z M 9.8,16.4 11.4,15.6 V 16 l -1.2,0.6 z M 15,14.2 13.8,14.8 13.4,14.6 15,13.8 Z m -1.6,4 2.2,-1.1 0.4,0.2 -2.2,1.1 z M 18.6,16 17.4,16.6 17,16.4 18.6,15.6 Z m -0.8,-1.4 -2.2,1.1 -0.4,-0.2 1.6,-0.8 0.6,-0.3 z M 17,20.4 V 20 l 1.6,-0.8 v 0.4 z m 3.6,-1.8 v -0.4 l 1.6,-0.8 v 0.4 z"
             id="path438"
             inkscape:connector-curvature="0"
             style="fill:#825012" />
          <polygon
             points="13.8,19.8 12.4,19.1 12.4,20.5 "
             id="polygon440"
             style="opacity:0.28999999" />
          <polygon
             points="22.2,17.4 23.2,16.9 23.2,18.3 22.2,17.8 "
             id="polygon442"
             style="opacity:0.11000001" />
          <polygon
             points="18.6,19.2 19.6,18.7 19.6,20.1 18.6,19.6 "
             id="polygon444"
             style="opacity:0.11000001" />
          <polygon
             points="21.4,16 21.8,16.2 21.4,16.4 21,16.2 "
             id="polygon446"
             style="opacity:0.11000001" />
          <polygon
             points="18.6,16 20,15.3 19.6,15.1 18.6,15.6 "
             id="polygon448"
             style="opacity:0.11000001" />
          <polygon
             points="17.8,14.2 18.2,14.4 17.8,14.6 17.4,14.4 "
             id="polygon450"
             style="opacity:0.11000001" />
          <polygon
             points="15,14.2 16.4,13.5 16,13.3 15,13.8 "
             id="polygon452"
             style="opacity:0.11000001" />
          <polygon
             points="17.8,17.8 18.2,18 17.8,18.2 17.4,18 "
             id="polygon454"
             style="opacity:0.11000001" />
          <polygon
             points="16,16.9 16.4,17.1 16,17.3 15.6,17.1 "
             id="polygon456"
             style="opacity:0.11000001" />
          <polygon
             points="14.2,16 14.6,16.2 14.2,16.4 13.8,16.2 "
             id="polygon458"
             style="opacity:0.11000001" />
          <polygon
             points="11.4,16 12.8,15.3 12.4,15.1 11.4,15.6 "
             id="polygon460"
             style="opacity:0.11000001" />
          <path
             d="m 16,20.1 v 2.2 l 8.2,-4.1 V 16 Z m 3.6,0 -2.6,1.3 V 20 l 2.6,-1.3 z m 3.6,-1.8 -2.6,1.3 v -1.4 l 2.6,-1.3 z"
             id="path462"
             inkscape:connector-curvature="0"
             style="opacity:0.28999999" />
          <polygon
             points="22.4,15.1 14.2,19.2 14.2,19.6 22.4,15.5 "
             id="polygon464"
             style="opacity:0.28999999" />
          <polygon
             points="20.6,14.2 12.4,18.3 12.4,18.7 20.6,14.6 "
             id="polygon466"
             style="opacity:0.28999999" />
          <polygon
             points="18.8,13.3 10.6,17.4 10.6,17.8 18.8,13.7 "
             id="polygon468"
             style="opacity:0.28999999" />
          <polygon
             points="12.4,20.5 12.4,19.1 15,20.4 15,21.8 16,22.3 16,20.1 15,19.6 15,20 14.2,19.6 14.2,19.2 13.2,18.7 13.2,19.1 12.4,18.7 12.4,18.3 11.4,17.8 11.4,18.2 10.6,17.8 10.6,17.4 9.6,16.9 9.6,17.3 8.8,16.9 8.8,16.5 7.8,16 7.8,18.2 8.8,18.7 8.8,17.3 11.4,18.6 11.4,20 "
             id="polygon470"
             style="opacity:0.11000001" />
          <polygon
             points="17,12.4 8.8,16.5 8.8,16.9 17,12.8 "
             id="polygon472"
             style="opacity:0.28999999" />
          <polygon
             points="10.2,18 8.8,17.3 8.8,18.7 "
             id="polygon474"
             style="opacity:0.28999999" />
        </g>
        <g
           id="g516">
          <path
             d="m 39.2,15.5 -0.4,0.2 -0.4,-0.2 v -0.4 l -1,-0.5 -0.4,0.2 -0.4,-0.2 v -0.4 l -1,-0.5 -0.4,0.2 -0.4,-0.2 V 13.3 L 33.8,12.8 33.4,13 33,12.8 V 12.4 L 32,11.9 23.8,16 v 2.2 l 1,0.5 1.4,-0.7 1.2,0.6 V 20 l 1,0.5 1.4,-0.7 1.2,0.6 v 1.4 l 1,0.5 8.2,-4.1 V 16 Z m -1.8,0.9 -2.2,1.1 -0.4,-0.2 1.6,-0.8 0.6,-0.3 z m -6.2,2.7 2.2,-1.1 0.4,0.2 -2.2,1.1 z m -3.6,-1.8 2.2,-1.1 0.4,0.2 -2.2,1.1 z m -1.8,-0.9 1.6,-0.8 V 16 l -1.2,0.6 z M 31,14.2 29.8,14.8 29.4,14.6 31,13.8 Z m -1.6,4 2.2,-1.1 0.4,0.2 -2.2,1.1 z M 34.6,16 33.4,16.6 33,16.4 34.6,15.6 Z m -0.8,-1.4 -2.2,1.1 -0.4,-0.2 1.6,-0.8 0.6,-0.3 z M 33,20.4 V 20 l 1.6,-0.8 v 0.4 z m 3.6,-1.8 v -0.4 l 1.6,-0.8 v 0.4 z"
             id="path478"
             inkscape:connector-curvature="0"
             style="fill:#825012" />
          <polygon
             points="29.8,19.8 28.4,19.1 28.4,20.5 "
             id="polygon480"
             style="opacity:0.28999999" />
          <polygon
             points="38.2,17.4 39.2,16.9 39.2,18.3 38.2,17.8 "
             id="polygon482"
             style="opacity:0.11000001" />
          <polygon
             points="34.6,19.2 35.6,18.7 35.6,20.1 34.6,19.6 "
             id="polygon484"
             style="opacity:0.11000001" />
          <polygon
             points="37.4,16 37.8,16.2 37.4,16.4 37,16.2 "
             id="polygon486"
             style="opacity:0.11000001" />
          <polygon
             points="34.6,16 36,15.3 35.6,15.1 34.6,15.6 "
             id="polygon488"
             style="opacity:0.11000001" />
          <polygon
             points="33.8,14.2 34.2,14.4 33.8,14.6 33.4,14.4 "
             id="polygon490"
             style="opacity:0.11000001" />
          <polygon
             points="31,14.2 32.4,13.5 32,13.3 31,13.8 "
             id="polygon492"
             style="opacity:0.11000001" />
          <polygon
             points="33.8,17.8 34.2,18 33.8,18.2 33.4,18 "
             id="polygon494"
             style="opacity:0.11000001" />
          <polygon
             points="32,16.9 32.4,17.1 32,17.3 31.6,17.1 "
             id="polygon496"
             style="opacity:0.11000001" />
          <polygon
             points="30.2,16 30.6,16.2 30.2,16.4 29.8,16.2 "
             id="polygon498"
             style="opacity:0.11000001" />
          <polygon
             points="27.4,16 28.8,15.3 28.4,15.1 27.4,15.6 "
             id="polygon500"
             style="opacity:0.11000001" />
          <path
             d="m 32,20.1 v 2.2 l 8.2,-4.1 V 16 Z m 3.6,0 -2.6,1.3 V 20 l 2.6,-1.3 z m 3.6,-1.8 -2.6,1.3 v -1.4 l 2.6,-1.3 z"
             id="path502"
             inkscape:connector-curvature="0"
             style="opacity:0.28999999" />
          <polygon
             points="38.4,15.1 30.2,19.2 30.2,19.6 38.4,15.5 "
             id="polygon504"
             style="opacity:0.28999999" />
          <polygon
             points="36.6,14.2 28.4,18.3 28.4,18.7 36.6,14.6 "
             id="polygon506"
             style="opacity:0.28999999" />
          <polygon
             points="34.8,13.3 26.6,17.4 26.6,17.8 34.8,13.7 "
             id="polygon508"
             style="opacity:0.28999999" />
          <polygon
             points="28.4,20.5 28.4,19.1 31,20.4 31,21.8 32,22.3 32,20.1 31,19.6 31,20 30.2,19.6 30.2,19.2 29.2,18.7 29.2,19.1 28.4,18.7 28.4,18.3 27.4,17.8 27.4,18.2 26.6,17.8 26.6,17.4 25.6,16.9 25.6,17.3 24.8,16.9 24.8,16.5 23.8,16 23.8,18.2 24.8,18.7 24.8,17.3 27.4,18.6 27.4,20 "
             id="polygon510"
             style="opacity:0.11000001" />
          <polygon
             points="33,12.4 24.8,16.5 24.8,16.9 33,12.8 "
             id="polygon512"
             style="opacity:0.28999999" />
          <polygon
             points="26.2,18 24.8,17.3 24.8,18.7 "
             id="polygon514"
             style="opacity:0.28999999" />
        </g>
        <g
           id="g556">
          <path
             d="m 31.2,19.5 -0.4,0.2 -0.4,-0.2 v -0.4 l -1,-0.5 -0.4,0.2 -0.4,-0.2 v -0.4 l -1,-0.5 -0.4,0.2 -0.4,-0.2 V 17.3 L 25.8,16.8 25.4,17 25,16.8 V 16.4 L 24,15.9 15.8,20 v 2.2 l 1,0.5 1.4,-0.7 1.2,0.6 V 24 l 1,0.5 1.4,-0.7 1.2,0.6 v 1.4 l 1,0.5 8.2,-4.1 V 20 Z m -1.8,0.9 -2.2,1.1 -0.4,-0.2 1.6,-0.8 0.6,-0.3 z m -6.2,2.7 2.2,-1.1 0.4,0.2 -2.2,1.1 z m -3.6,-1.8 2.2,-1.1 0.4,0.2 -2.2,1.1 z m -1.8,-0.9 1.6,-0.8 V 20 l -1.2,0.6 z M 23,18.2 21.8,18.8 21.4,18.6 23,17.8 Z m -1.6,4 2.2,-1.1 0.4,0.2 -2.2,1.1 z M 26.6,20 25.4,20.6 25,20.4 26.6,19.6 Z m -0.8,-1.4 -2.2,1.1 -0.4,-0.2 1.6,-0.8 0.6,-0.3 z M 25,24.4 V 24 l 1.6,-0.8 v 0.4 z m 3.6,-1.8 v -0.4 l 1.6,-0.8 v 0.4 z"
             id="path518"
             inkscape:connector-curvature="0"
             style="fill:#825012" />
          <polygon
             points="21.8,23.8 20.4,23.1 20.4,24.5 "
             id="polygon520"
             style="opacity:0.28999999" />
          <polygon
             points="30.2,21.4 31.2,20.9 31.2,22.3 30.2,21.8 "
             id="polygon522"
             style="opacity:0.11000001" />
          <polygon
             points="26.6,23.2 27.6,22.7 27.6,24.1 26.6,23.6 "
             id="polygon524"
             style="opacity:0.11000001" />
          <polygon
             points="29.4,20 29.8,20.2 29.4,20.4 29,20.2 "
             id="polygon526"
             style="opacity:0.11000001" />
          <polygon
             points="26.6,20 28,19.3 27.6,19.1 26.6,19.6 "
             id="polygon528"
             style="opacity:0.11000001" />
          <polygon
             points="25.8,18.2 26.2,18.4 25.8,18.6 25.4,18.4 "
             id="polygon530"
             style="opacity:0.11000001" />
          <polygon
             points="23,18.2 24.4,17.5 24,17.3 23,17.8 "
             id="polygon532"
             style="opacity:0.11000001" />
          <polygon
             points="25.8,21.8 26.2,22 25.8,22.2 25.4,22 "
             id="polygon534"
             style="opacity:0.11000001" />
          <polygon
             points="24,20.9 24.4,21.1 24,21.3 23.6,21.1 "
             id="polygon536"
             style="opacity:0.11000001" />
          <polygon
             points="22.2,20 22.6,20.2 22.2,20.4 21.8,20.2 "
             id="polygon538"
             style="opacity:0.11000001" />
          <polygon
             points="19.4,20 20.8,19.3 20.4,19.1 19.4,19.6 "
             id="polygon540"
             style="opacity:0.11000001" />
          <path
             d="m 24,24.1 v 2.2 l 8.2,-4.1 V 20 Z m 3.6,0 -2.6,1.3 V 24 l 2.6,-1.3 z m 3.6,-1.8 -2.6,1.3 v -1.4 l 2.6,-1.3 z"
             id="path542"
             inkscape:connector-curvature="0"
             style="opacity:0.28999999" />
          <polygon
             points="30.4,19.1 22.2,23.2 22.2,23.6 30.4,19.5 "
             id="polygon544"
             style="opacity:0.28999999" />
          <polygon
             points="28.6,18.2 20.4,22.3 20.4,22.7 28.6,18.6 "
             id="polygon546"
             style="opacity:0.28999999" />
          <polygon
             points="26.8,17.3 18.6,21.4 18.6,21.8 26.8,17.7 "
             id="polygon548"
             style="opacity:0.28999999" />
          <polygon
             points="20.4,24.5 20.4,23.1 23,24.4 23,25.8 24,26.3 24,24.1 23,23.6 23,24 22.2,23.6 22.2,23.2 21.2,22.7 21.2,23.1 20.4,22.7 20.4,22.3 19.4,21.8 19.4,22.2 18.6,21.8 18.6,21.4 17.6,20.9 17.6,21.3 16.8,20.9 16.8,20.5 15.8,20 15.8,22.2 16.8,22.7 16.8,21.3 19.4,22.6 19.4,24 "
             id="polygon550"
             style="opacity:0.11000001" />
          <polygon
             points="25,16.4 16.8,20.5 16.8,20.9 25,16.8 "
             id="polygon552"
             style="opacity:0.28999999" />
          <polygon
             points="18.2,22 16.8,21.3 16.8,22.7 "
             id="polygon554"
             style="opacity:0.28999999" />
        </g>
      </g>
    </g>
  </g>
  <g
     id="i458"
     class="top-level-node"
     transform="matrix(0.37892914,0,0,0.37892914,39.484416,-6.0249732)">
    <g
       id="g573">
      <g
         id="g571">
        <path
           d="m 0,24 16,8 16,-8 V 12 L 16,4 0,12 Z"
           id="path563"
           inkscape:connector-curvature="0"
           style="fill:#762c07" />
        <path
           d="m 11,28.5 2,1 v -2 l -2,-1 z m 2,-7 -2,-1 v 2 l 2,1 z m 8,7 2,-1 v -2 l -2,1 z m 3,-1.5 2,-1 v -2 l -2,1 z m 3,-4.5 2,-1 v -2 l -2,1 z m 3,-1.5 2,-1 v -2 l -2,1 z m -12,6 v -2 l -2,1 -4,-2 v 2 l 4,2 z m 3,-3.5 -2,1 v 2 l 2,-1 z M 14,28 v 2 l 2,1 4,-2 v -2 l -4,2 z m 13,-2.5 4,-2 v -2 l -4,2 z M 22,25 26,23 v -2 l -4,2 z m -1,-2.5 2,-1 v -2 l -2,1 z m 3,-1.5 2,-1 v -2 l -2,1 z m -8,1 2,-1 v -2 l -4,-2 -2,1 v 2 z m -1,-5.5 4,2 v 2 l 2,-1 v -2 l -4,-2 z m 8,-4 4,2 v 2 l 2,-1 v -2 l -4,-2 z m 5,-2.5 -2,1 4,2 v 2 l 2,-1 v -2 z m -8,11 -4,2 -2,-1 v 2 l 2,1 4,-2 z m 11,-5.5 -4,2 v 2 l 4,-2 z m -11,0.5 2,1 v 2 l 4,-2 v -2 l -2,-1 z m -17,8.5 2,1 v -2 l -2,-1 z M 0,23 2,24 V 22 L 0,21 Z m 6,3 4,2 V 26 L 6,24 Z m -3,-7.5 2,1 v -2 l -2,-1 z M 2,16 0,15 v 2 l 2,1 z m 8,4 -4,-2 v 2 l 4,2 z m 1,3.5 -2,-1 v 2 l 2,1 z M 6,23 8,24 V 22 L 6,21 Z m -5,-2.5 4,2 v -2 l -4,-2 z m 2,-9 -2,1 v 2 l 4,2 v -2 l 2,-1 z m 18,1 -4,2 2,1 4,-2 z m 1,-0.5 4,-2 -2,-1 -4,2 z m -2,0 -4,-2 -2,1 4,2 z m -3,1.5 -4,-2 -2,1 4,2 z m 4,-7 -4,-2 -2,1 4,2 z M 18,8 14,6 12,7 16,9 Z m -8,4 -4,-2 -2,1 4,2 z m 7,-2.5 2,1 4,-2 -2,-1 z m -8,1 2,1 4,-2 -2,-1 z M 12,8 10,7 6,9 8,10 Z m -1,9.5 4,-2 -2,-1 -4,2 v 2 l 2,1 z M 6,17 8,18 v -2 l 4,-2 -2,-1 -4,2 z"
           id="path565"
           inkscape:connector-curvature="0"
           style="opacity:0.5;fill:#baa794" />
        <path
           d="M 32,24 16,32 V 20 l 16,-8 z"
           id="path567"
           inkscape:connector-curvature="0"
           style="opacity:0.28999999" />
        <path
           d="m 0,24 16,8 V 20 L 0,12 Z"
           id="path569"
           inkscape:connector-curvature="0"
           style="opacity:0.11000001" />
      </g>
    </g>
  </g>
  <g
     id="selection-layer"
     transform="matrix(0.37892914,0,0,0.37892914,198.56877,-112.79282)" />
</svg>
