<?xml version="1.0" encoding="UTF-8" standalone="no"?>
<!-- Created with Inkscape (http://www.inkscape.org/) -->

<svg
   xmlns:dc="http://purl.org/dc/elements/1.1/"
   xmlns:cc="http://creativecommons.org/ns#"
   xmlns:rdf="http://www.w3.org/1999/02/22-rdf-syntax-ns#"
   xmlns:svg="http://www.w3.org/2000/svg"
   xmlns="http://www.w3.org/2000/svg"
   xmlns:sodipodi="http://sodipodi.sourceforge.net/DTD/sodipodi-0.dtd"
   xmlns:inkscape="http://www.inkscape.org/namespaces/inkscape"
   width="210mm"
   height="297mm"
   viewBox="0 0 210 297"
   version="1.1"
   id="svg581"
   inkscape:version="0.92.2 (5c3e80d, 2017-08-06)"
   sodipodi:docname="new-doc.svg">
  <defs
     id="defs575" />
  <sodipodi:namedview
     id="base"
     pagecolor="#ffffff"
     bordercolor="#666666"
     borderopacity="1.0"
     inkscape:pageopacity="0.0"
     inkscape:pageshadow="2"
     inkscape:zoom="0.35"
     inkscape:cx="-87.142857"
     inkscape:cy="560"
     inkscape:document-units="mm"
     inkscape:current-layer="layer1"
     showgrid="false"
     inkscape:window-width="1360"
     inkscape:window-height="706"
     inkscape:window-x="-8"
     inkscape:window-y="-8"
     inkscape:window-maximized="1" />
  <metadata
     id="metadata578">
    <rdf:RDF>
      <cc:Work
         rdf:about="">
        <dc:format>image/svg+xml</dc:format>
        <dc:type
           rdf:resource="http://purl.org/dc/dcmitype/StillImage" />
        <dc:title></dc:title>
      </cc:Work>
    </rdf:RDF>
  </metadata>
  <g
     inkscape:label="Layer 1"
     inkscape:groupmode="layer"
     id="layer1" />
<g id="chart-top-container" transform="translate(118.68873689745809,241.33922872827182) scale(0.3789291416275996)"><g id="chart-background-container"><g id="chart-transparent"><rect width="800" height="640" fill="rgb(255, 255, 255)"></rect><rect x="0" y="0" width="800" height="640" fill="url(#transparent-background)"></rect></g><rect id="chart-background-color" width="800" height="640" fill="#ffffff" stroke="none" fill-opacity="1"></rect></g><g id="chart-grid-container"><g id="chart-grid-cell"><rect x="0" y="0" width="800" height="640" fill="url(#grid8L)"></rect></g><g id="chart-grid-dotted"><rect x="0" y="0" width="800" height="640" fill="url(#grid8)"></rect></g></g><g id="chart-container"><g id="i451" class="top-level-node" transform="translate(16,40)"><g><g><path xmlns="http://www.w3.org/2000/svg" d="m16 40 12-6v-25l-12-6-12 6v25z" fill="#28896d"></path><path xmlns="http://www.w3.org/2000/svg" d="m16 15 12-6v-1l-12-6-12 6v1z" fill="#e5e5e5"></path><path xmlns="http://www.w3.org/2000/svg" d="m16 14v26l12-6v-26z" opacity=".29"></path><path xmlns="http://www.w3.org/2000/svg" d="m6 11.5v22l8 4v-22zm7 24.5-6-3v-20l6 3z" opacity=".2"></path><path xmlns="http://www.w3.org/2000/svg" d="m18 15.5v22l8-4v-22zm1 .5 6-3v20l-6 3z" opacity=".2"></path><path xmlns="http://www.w3.org/2000/svg" d="m7 22v2l6 3v-2z" fill="#fff" opacity=".15"></path><path xmlns="http://www.w3.org/2000/svg" d="m7 21v1l6 3v-1z" opacity=".2"></path><path xmlns="http://www.w3.org/2000/svg" d="m7 24v1l6 3v-1z" opacity=".2"></path><path xmlns="http://www.w3.org/2000/svg" d="m25 21v1l-6 3v-1z" opacity=".2"></path><path xmlns="http://www.w3.org/2000/svg" d="m25 24v1l-6 3v-1z" opacity=".2"></path><path xmlns="http://www.w3.org/2000/svg" d="m25 15v1l-6 3v-1z" opacity=".2"></path><path xmlns="http://www.w3.org/2000/svg" d="m25 30v1l-6 3v-1z" opacity=".2"></path><path xmlns="http://www.w3.org/2000/svg" d="m8 27 4 2v5l-4-2z" fill="#fff" opacity=".15"></path><path xmlns="http://www.w3.org/2000/svg" d="m8 15 4 2v5l-4-2z" fill="#fff" opacity=".15"></path><g xmlns="http://www.w3.org/2000/svg" fill="#2d3134"><path d="m12.5 16.5v1l2 1v-1z"></path><path d="m12.5 34v1l2 1v-1z"></path><path d="m6.5 21.5 2 1v2.5l-2-1z"></path></g><path xmlns="http://www.w3.org/2000/svg" d="m4 8 12 6v26l-12-6z" opacity=".11"></path></g></g></g><g id="i452" class="top-level-node" transform="translate(88,64)"><g><g><path xmlns="http://www.w3.org/2000/svg" d="m16 0-16 8v24l32 16 16-8v-24z" fill="#539b00"></path><path xmlns="http://www.w3.org/2000/svg" d="m0 8v24l32 16v-24z" opacity=".11"></path><path xmlns="http://www.w3.org/2000/svg" d="m48 16v24l-16 8v-24z" opacity=".29"></path><path xmlns="http://www.w3.org/2000/svg" d="m46 39-4 2v-20l4-2z" opacity=".15"></path><path xmlns="http://www.w3.org/2000/svg" d="m38 43-4 2v-20l4-2z" opacity=".15"></path><path xmlns="http://www.w3.org/2000/svg" d="m3 11.5-1-.5v20l1 .5z" opacity=".15"></path><path xmlns="http://www.w3.org/2000/svg" d="m5 12.5-1-.5v20l1 .5z" opacity=".15"></path><path xmlns="http://www.w3.org/2000/svg" d="m7 13.5-1-.5v20l1 .5z" opacity=".15"></path><path xmlns="http://www.w3.org/2000/svg" d="m9 14.5-1-.5v20l1 .5z" opacity=".15"></path><path xmlns="http://www.w3.org/2000/svg" d="m11 15.5-1-.5v20l1 .5z" opacity=".15"></path><path xmlns="http://www.w3.org/2000/svg" d="m13 16.5-1-.5v20l1 .5z" opacity=".15"></path><path xmlns="http://www.w3.org/2000/svg" d="m15 17.5-1-.5v20l1 .5z" opacity=".15"></path><path xmlns="http://www.w3.org/2000/svg" d="m17 18.5-1-.5v20l1 .5z" opacity=".15"></path><path xmlns="http://www.w3.org/2000/svg" d="m19 19.5-1-.5v20l1 .5z" opacity=".15"></path><path xmlns="http://www.w3.org/2000/svg" d="m21 20.5-1-.5v20l1 .5z" opacity=".15"></path><path xmlns="http://www.w3.org/2000/svg" d="m23 21.5-1-.5v20l1 .5z" opacity=".15"></path><path xmlns="http://www.w3.org/2000/svg" d="m25 22.5-1-.5v20l1 .5z" opacity=".15"></path><path xmlns="http://www.w3.org/2000/svg" d="m27 23.5-1-.5v20l1 .5z" opacity=".15"></path><path xmlns="http://www.w3.org/2000/svg" d="m29 24.5-1-.5v20l1 .5z" opacity=".15"></path><path xmlns="http://www.w3.org/2000/svg" d="m16 22-16 8v2l32 16 16-8v-2z" fill="#2d3134"></path><path xmlns="http://www.w3.org/2000/svg" d="m16 1-16 8v22l32 16 16-8v-22z" fill="#539b00"></path><path xmlns="http://www.w3.org/2000/svg" d="m16 0-16 8v1l32 16 16-8v-1z" fill="#2d3134"></path><path xmlns="http://www.w3.org/2000/svg" d="m48 16v24l-16 8v-24z" opacity=".29"></path><path xmlns="http://www.w3.org/2000/svg" d="m3 12-1-.5v19l1 .5z" opacity=".15"></path><path xmlns="http://www.w3.org/2000/svg" d="m5 13-1-.5v19l1 .5z" opacity=".15"></path><path xmlns="http://www.w3.org/2000/svg" d="m17 19-1-.5v19l1 .5z" opacity=".15"></path><path xmlns="http://www.w3.org/2000/svg" d="m19 20-1-.5v19l1 .5z" opacity=".15"></path><path xmlns="http://www.w3.org/2000/svg" d="m21 21-1-.5v19l1 .5z" opacity=".15"></path><path xmlns="http://www.w3.org/2000/svg" d="m23 22-1-.5v19l1 .5z" opacity=".15"></path><path xmlns="http://www.w3.org/2000/svg" d="m25 23-1-.5v19l1 .5z" opacity=".15"></path><path xmlns="http://www.w3.org/2000/svg" d="m27 24-1-.5v19l1 .5z" opacity=".15"></path><path xmlns="http://www.w3.org/2000/svg" d="m29 25-1-.5v19l1 .5z" opacity=".15"></path><path xmlns="http://www.w3.org/2000/svg" d="m31 26-1-.5v19l1 .5z" opacity=".15"></path><path xmlns="http://www.w3.org/2000/svg" d="m45 20 1-.5v19l-1 .5z" opacity=".15"></path><path xmlns="http://www.w3.org/2000/svg" d="m43 21 1-.5v19l-1 .5z" opacity=".15"></path><path xmlns="http://www.w3.org/2000/svg" d="m41 22 1-.5v19l-1 .5z" opacity=".15"></path><path xmlns="http://www.w3.org/2000/svg" d="m39 23 1-.5v19l-1 .5z" opacity=".15"></path><path xmlns="http://www.w3.org/2000/svg" d="m37 24 1-.5v19l-1 .5z" opacity=".15"></path><path xmlns="http://www.w3.org/2000/svg" d="m35 25 1-.5v19l-1 .5z" opacity=".15"></path><path xmlns="http://www.w3.org/2000/svg" d="m33 26 1-.5v19l-1 .5z" opacity=".15"></path><path xmlns="http://www.w3.org/2000/svg" d="m6 13.5v20.5l9 4.5v-20.5zm8 23.5-7-3.5v-18.5l7 3.5z" opacity=".3"></path><path xmlns="http://www.w3.org/2000/svg" d="m18 19.5 7 3.5v8l-7-3.5z" fill="#2d3134"></path><path xmlns="http://www.w3.org/2000/svg" d="m19 21 5 2.5v6l-5-2.5z" fill="#656565"></path><path xmlns="http://www.w3.org/2000/svg" d="m5.5 14.5v1l1 .5v-1z" fill="#2d3134"></path><path xmlns="http://www.w3.org/2000/svg" d="m5.5 31.5v1l1 .5v-1z" fill="#2d3134"></path><path xmlns="http://www.w3.org/2000/svg" d="m13 19v17.4l1 .5v-18.4l-7-3.5v1z" fill="#fff" opacity=".15"></path><path xmlns="http://www.w3.org/2000/svg" d="m13 25.5v1l2 1v-1z" fill="#2d3134"></path><path xmlns="http://www.w3.org/2000/svg" d="m0 8v24l32 16v-24z" opacity=".11"></path></g></g></g><g id="i453" class="top-level-node" transform="translate(192,64)"><g><g><path xmlns="http://www.w3.org/2000/svg" d="m6 18v13l2 1 2-1v-13l-2-1z" fill="#999"></path><path xmlns="http://www.w3.org/2000/svg" d="m8 32-2-1v-13l2 1z" opacity=".11"></path><path xmlns="http://www.w3.org/2000/svg" d="m8 19v13l2-1v-13z" opacity=".29"></path><path xmlns="http://www.w3.org/2000/svg" d="m22 26v13l2 1 2-1v-13l-2-1z" fill="#999"></path><path xmlns="http://www.w3.org/2000/svg" d="m24 40-2-1v-13l2 1z" opacity=".11"></path><path xmlns="http://www.w3.org/2000/svg" d="m24 27v13l2-1v-13z" opacity=".29"></path><path xmlns="http://www.w3.org/2000/svg" d="m2 4v12l26 13 2-1v-12l-26-13z" fill="#e5e5e5"></path><g xmlns="http://www.w3.org/2000/svg" fill="#cc291f"><path d="m4 17 8-8 4 2-8 8z"></path><path d="m4 5 4 2-6 6v-6z"></path><path d="m12 21 8-8 4 2-8 8z"></path><path d="m20 25 8-8v6l-4 4z"></path></g><path xmlns="http://www.w3.org/2000/svg" d="m28 17v12l2-1v-12z" opacity=".29"></path><path xmlns="http://www.w3.org/2000/svg" d="m28 29-26-13v-12l26 13z" opacity=".11"></path></g></g></g><g id="i454" class="top-level-node" transform="translate(32,152)"><g><g><path xmlns="http://www.w3.org/2000/svg" d="m2 12v.5l6 3 6-3v-.5l-6-3z" fill="#cc291f"></path><path xmlns="http://www.w3.org/2000/svg" d="m8 15.5-6-3v-.5l6 3z" opacity=".11"></path><path xmlns="http://www.w3.org/2000/svg" d="m8 15v.5l6-3v-.5z" opacity=".29"></path><path xmlns="http://www.w3.org/2000/svg" d="m11.7 11.3-2.7-10.8c0-.3-.4-.5-1-.5s-1 .2-1 .5l-2.7 10.8c-.2.2-.3.4-.3.7 0 1.1 1.8 2 4 2s4-.9 4-2c0-.3-.1-.5-.3-.7z" fill="#cc291f"></path><g xmlns="http://www.w3.org/2000/svg" fill="#e5e5e5"><path d="m4.5 10.3c.1 1 1.6 1.7 3.5 1.7s3.4-.7 3.5-1.7l-.5-1.8c0 .8-1.3 1.5-3 1.5s-3-.7-3-1.5z"></path><path d="m10.2 5.3c-.4.4-1.2.7-2.2.7s-1.8-.3-2.2-.7l-.5 1.9c.5.5 1.5.8 2.7.8s2.2-.3 2.7-.8z"></path><path d="m8 4c.8 0 1.4-.2 1.8-.5l-.4-1.5c-.2.3-.8.5-1.4.5s-1.2-.2-1.4-.5l-.4 1.5c.4.3 1 .5 1.8.5z"></path></g><path xmlns="http://www.w3.org/2000/svg" d="m11.7 11.3-2.7-10.8c0 .3-.4.5-1 .5s-1-.2-1-.5l-2.7 10.8c-.2.2-.3.4-.3.7 0 1.1 1.8 2 4 2s4-.9 4-2c0-.3-.1-.5-.3-.7z" opacity=".15"></path></g></g></g><g id="i455" class="top-level-node" transform="translate(112,152)"><g><g>
<g xmlns="http://www.w3.org/2000/svg">
	<g>
		<polygon fill="#3366CC" points="14.8,4 14.8,28 16,28.6 17.2,28 17.2,4 16,3.4   "></polygon>
		<polygon opacity="0.11" points="16,28.6 14.8,28 14.8,4 16,4.6   "></polygon>
		<polygon opacity="0.29" points="16,28.6 17.2,28 17.2,4 16,4.6   "></polygon>
	</g>
	<g>
		<polygon fill="#3366CC" points="6.8,8 6.8,32 8,32.6 9.2,32 9.2,8 8,7.4   "></polygon>
		<polygon opacity="0.11" points="8,32.6 6.8,32 6.8,8 8,8.6   "></polygon>
		<polygon opacity="0.29" points="8,32.6 9.2,32 9.2,8 8,8.6   "></polygon>
	</g>
	<g>
		<polygon fill="#3366CC" points="9.2,31 15.8,27.6 15.8,27 15.2,26.7 9.2,29.7   "></polygon>
		<polygon opacity="0.29" points="9.2,31 15.8,27.6 15.8,27 9.2,30.4   "></polygon>
	</g>
	<g>
		<polygon fill="#3366CC" points="9.2,23 15.8,19.6 15.8,19 15.2,18.7 9.2,21.7   "></polygon>
		<polygon opacity="0.29" points="9.2,23 15.8,19.6 15.8,19 9.2,22.4   "></polygon>
	</g>
	<g>
		<polygon fill="#3366CC" points="47.5,43.3 16.2,12.1 16.2,11.4 16.8,11.1 47.5,41.8   "></polygon>
		<polygon opacity="0.29" points="47.5,43.3 16.2,12.1 16.2,11.4 47.5,42.8   "></polygon>
	</g>
	<g>
		<polygon fill="#3366CC" points="46.8,20 46.8,44 48,44.6 49.2,44 49.2,20 48,19.4   "></polygon>
		<polygon opacity="0.11" points="48,44.6 46.8,44 46.8,20 48,20.6   "></polygon>
		<polygon opacity="0.29" points="48,44.6 49.2,44 49.2,20 48,20.6   "></polygon>
	</g>
	<g>
		<polygon fill="#3366CC" points="41.2,47 47.8,43.6 47.8,43 47.2,42.7 41.2,45.7   "></polygon>
		<polygon opacity="0.29" points="41.2,47 47.8,43.6 47.8,43 41.2,46.4   "></polygon>
	</g>
	<g>
		<polygon fill="#3366CC" points="41.2,39 47.8,35.6 47.8,35 47.2,34.7 41.2,37.7   "></polygon>
		<polygon opacity="0.29" points="41.2,39 47.8,35.6 47.8,35 41.2,38.4   "></polygon>
	</g>
	<g>
		<polygon fill="#3366CC" points="41.2,31 47.8,27.6 47.8,27 47.2,26.7 41.2,29.7   "></polygon>
		<polygon opacity="0.29" points="41.2,31 47.8,27.6 47.8,27 41.2,30.4   "></polygon>
	</g>
	<g>
		<polygon fill="#3366CC" points="39.5,47.4 8.2,16.1 8.2,15.5 8.8,15.2 39.5,45.9   "></polygon>
		<polygon opacity="0.29" points="39.5,47.4 8.2,16.1 8.2,15.5 39.5,46.8   "></polygon>
	</g>
	<g>
		<polygon fill="#999999" points="8,14.3 8,14.9 40,30.9 48,26.9 48,26.3 16,10.3   "></polygon>
		<polygon opacity="0.11" points="40,30.9 8,14.9 8,14.3 40,30.3   "></polygon>
		<polygon opacity="0.29" points="40,30.9 48,26.9 48,26.3 40,30.3   "></polygon>
	</g>
	<g>
		<polygon fill="#3366CC" points="38.8,24 38.8,48 40,48.6 41.2,48 41.2,24 40,23.4   "></polygon>
		<polygon opacity="0.11" points="40,48.6 38.8,48 38.8,24 40,24.6   "></polygon>
		<polygon opacity="0.29" points="40,48.6 41.2,48 41.2,24 40,24.6   "></polygon>
	</g>
</g>
</g></g></g><g id="i456" class="top-level-node" transform="translate(216,152)"><g><g>
<g xmlns="http://www.w3.org/2000/svg">
	<g>
		<polygon fill="#3366CC" points="14.8,4 14.8,28 16,28.6 17.2,28 17.2,4 16,3.4   "></polygon>
		<polygon opacity="0.11" points="16,28.6 14.8,28 14.8,4 16,4.6   "></polygon>
		<polygon opacity="0.29" points="16,28.6 17.2,28 17.2,4 16,4.6   "></polygon>
	</g>
	<g>
		<polygon fill="#3366CC" points="6.8,8 6.8,32 8,32.6 9.2,32 9.2,8 8,7.4   "></polygon>
		<polygon opacity="0.11" points="8,32.6 6.8,32 6.8,8 8,8.6   "></polygon>
		<polygon opacity="0.29" points="8,32.6 9.2,32 9.2,8 8,8.6   "></polygon>
	</g>
	<g>
		<polygon fill="#3366CC" points="9.2,31 15.8,27.6 15.8,27 15.2,26.7 9.2,29.7   "></polygon>
		<polygon opacity="0.29" points="9.2,31 15.8,27.6 15.8,27 9.2,30.4   "></polygon>
	</g>
	<g>
		<polygon fill="#3366CC" points="9.2,23 15.8,19.6 15.8,19 15.2,18.7 9.2,21.7   "></polygon>
		<polygon opacity="0.29" points="9.2,23 15.8,19.6 15.8,19 9.2,22.4   "></polygon>
	</g>
	<g>
		<polygon fill="#3366CC" points="31.5,35.3 16.2,12.1 16.2,11.4 16.8,11.1 31.5,33.8   "></polygon>
		<polygon opacity="0.29" points="31.5,35.3 16.2,12.1 16.2,11.4 31.5,34.8   "></polygon>
	</g>
	<g>
		<polygon fill="#3366CC" points="30.8,12 30.8,36 32,36.6 33.2,36 33.2,12 32,11.4   "></polygon>
		<polygon opacity="0.11" points="32,36.6 30.8,36 30.8,12 32,12.6   "></polygon>
		<polygon opacity="0.29" points="32,36.6 33.2,36 33.2,12 32,12.6   "></polygon>
	</g>
	<g>
		<polygon fill="#3366CC" points="25.2,39 31.8,35.6 31.8,35 31.2,34.7 25.2,37.7   "></polygon>
		<polygon opacity="0.29" points="25.2,39 31.8,35.6 31.8,35 25.2,38.4   "></polygon>
	</g>
	<g>
		<polygon fill="#3366CC" points="25.2,31 31.8,27.6 31.8,27 31.2,26.7 25.2,29.7   "></polygon>
		<polygon opacity="0.29" points="25.2,31 31.8,27.6 31.8,27 25.2,30.4   "></polygon>
	</g>
	<g>
		<polygon fill="#3366CC" points="25.2,23 31.8,19.6 31.8,19 31.2,18.7 25.2,21.7   "></polygon>
		<polygon opacity="0.29" points="25.2,23 31.8,19.6 31.8,19 25.2,22.4   "></polygon>
	</g>
	<g>
		<polygon fill="#3366CC" points="23.5,39.4 8.2,16.1 8.2,15.5 8.8,15.2 23.5,37.9   "></polygon>
		<polygon opacity="0.29" points="23.5,39.4 8.2,16.1 8.2,15.5 23.5,38.8   "></polygon>
	</g>
	<g>
		<polygon fill="#999999" points="8,14.3 8,14.9 24,22.9 32,18.9 32,18.3 16,10.3   "></polygon>
		<polygon opacity="0.11" points="24,22.9 8,14.9 8,14.3 24,22.3   "></polygon>
		<polygon opacity="0.29" points="24,22.9 32,18.9 32,18.3 24,22.3   "></polygon>
	</g>
	<g>
		<polygon fill="#3366CC" points="22.8,16 22.8,40 24,40.6 25.2,40 25.2,16 24,15.4   "></polygon>
		<polygon opacity="0.11" points="24,40.6 22.8,40 22.8,16 24,16.6   "></polygon>
		<polygon opacity="0.29" points="24,40.6 25.2,40 25.2,16 24,16.6   "></polygon>
	</g>
</g>
</g></g></g><g id="i457" class="top-level-node" transform="translate(32,256)"><g><g>
<g xmlns="http://www.w3.org/2000/svg">
	<path fill="#825012" d="M31.2,11.5l-0.4,0.2l-0.4-0.2v-0.4l-1-0.5L29,10.8l-0.4-0.2v-0.4l-1-0.5l-0.4,0.2l-0.4-0.2V9.3l-1-0.5   L25.4,9L25,8.8V8.4l-1-0.5L15.8,12v2.2l1,0.5l1.4-0.7l1.2,0.6V16l1,0.5l1.4-0.7l1.2,0.6v1.4l1,0.5l8.2-4.1V12L31.2,11.5z    M29.4,12.4l-2.2,1.1l-0.4-0.2l1.6-0.8l0.6-0.3L29.4,12.4z M23.2,15.1l2.2-1.1l0.4,0.2l-2.2,1.1L23.2,15.1z M19.6,13.3l2.2-1.1   l0.4,0.2L20,13.5L19.6,13.3z M17.8,12.4l1.6-0.8V12l-1.2,0.6L17.8,12.4z M23,10.2l-1.2,0.6l-0.4-0.2L23,9.8V10.2z M21.4,14.2   l2.2-1.1l0.4,0.2l-2.2,1.1L21.4,14.2z M26.6,12l-1.2,0.6L25,12.4l1.6-0.8V12z M25.8,10.6l-2.2,1.1l-0.4-0.2l1.6-0.8l0.6-0.3   L25.8,10.6z M25,16.4V16l1.6-0.8v0.4L25,16.4z M28.6,14.6v-0.4l1.6-0.8v0.4L28.6,14.6z"></path>
	<polygon opacity="0.29" points="20.4,16.5 21.8,15.8 20.4,15.1  "></polygon>
	<polygon opacity="0.11" points="31.2,14.3 30.2,13.8 30.2,13.4 31.2,12.9  "></polygon>
	<polygon opacity="0.11" points="27.6,16.1 26.6,15.6 26.6,15.2 27.6,14.7  "></polygon>
	<polygon opacity="0.11" points="29.4,12.4 29,12.2 29.4,12 29.8,12.2  "></polygon>
	<polygon opacity="0.11" points="27.6,11.1 26.6,11.6 26.6,12 28,11.3  "></polygon>
	<polygon opacity="0.11" points="25.8,10.6 25.4,10.4 25.8,10.2 26.2,10.4  "></polygon>
	<polygon opacity="0.11" points="24,9.3 23,9.8 23,10.2 24.4,9.5  "></polygon>
	<polygon opacity="0.11" points="25.8,14.2 25.4,14 25.8,13.8 26.2,14  "></polygon>
	<polygon opacity="0.11" points="24,13.3 23.6,13.1 24,12.9 24.4,13.1  "></polygon>
	<polygon opacity="0.11" points="22.2,12.4 21.8,12.2 22.2,12 22.6,12.2  "></polygon>
	<polygon opacity="0.11" points="20.4,11.1 19.4,11.6 19.4,12 20.8,11.3  "></polygon>
	<path opacity="0.29" d="M24,16.1v2.2l8.2-4.1V12L24,16.1z M27.6,16.1L25,17.4V16l2.6-1.3V16.1z M31.2,14.3l-2.6,1.3v-1.4l2.6-1.3   V14.3z"></path>
	<polygon opacity="0.29" points="22.2,15.6 30.4,11.5 30.4,11.1 22.2,15.2  "></polygon>
	<polygon opacity="0.29" points="20.4,14.7 28.6,10.6 28.6,10.2 20.4,14.3  "></polygon>
	<polygon opacity="0.29" points="18.6,13.8 26.8,9.7 26.8,9.3 18.6,13.4  "></polygon>
	<polygon opacity="0.11" points="23,15.6 23,16 22.2,15.6 22.2,15.2 21.2,14.7 21.2,15.1 20.4,14.7 20.4,14.3 19.4,13.8 19.4,14.2    18.6,13.8 18.6,13.4 17.6,12.9 17.6,13.3 16.8,12.9 16.8,12.5 15.8,12 15.8,14.2 16.8,14.7 16.8,13.3 19.4,14.6 19.4,16 20.4,16.5    20.4,15.1 23,16.4 23,17.8 24,18.3 24,16.1  "></polygon>
	<polygon opacity="0.29" points="16.8,12.9 25,8.8 25,8.4 16.8,12.5  "></polygon>
	<polygon opacity="0.29" points="16.8,14.7 18.2,14 16.8,13.3  "></polygon>
</g>
<g xmlns="http://www.w3.org/2000/svg">
	<path fill="#825012" d="M23.2,15.5l-0.4,0.2l-0.4-0.2v-0.4l-1-0.5L21,14.8l-0.4-0.2v-0.4l-1-0.5l-0.4,0.2l-0.4-0.2v-0.4l-1-0.5   L17.4,13L17,12.8v-0.4l-1-0.5L7.8,16v2.2l1,0.5l1.4-0.7l1.2,0.6V20l1,0.5l1.4-0.7l1.2,0.6v1.4l1,0.5l8.2-4.1V16L23.2,15.5z    M21.4,16.4l-2.2,1.1l-0.4-0.2l1.6-0.8l0.6-0.3L21.4,16.4z M15.2,19.1l2.2-1.1l0.4,0.2l-2.2,1.1L15.2,19.1z M11.6,17.3l2.2-1.1   l0.4,0.2L12,17.5L11.6,17.3z M9.8,16.4l1.6-0.8V16l-1.2,0.6L9.8,16.4z M15,14.2l-1.2,0.6l-0.4-0.2l1.6-0.8V14.2z M13.4,18.2   l2.2-1.1l0.4,0.2l-2.2,1.1L13.4,18.2z M18.6,16l-1.2,0.6L17,16.4l1.6-0.8V16z M17.8,14.6l-2.2,1.1l-0.4-0.2l1.6-0.8l0.6-0.3   L17.8,14.6z M17,20.4V20l1.6-0.8v0.4L17,20.4z M20.6,18.6v-0.4l1.6-0.8v0.4L20.6,18.6z"></path>
	<polygon opacity="0.29" points="12.4,20.5 13.8,19.8 12.4,19.1  "></polygon>
	<polygon opacity="0.11" points="23.2,18.3 22.2,17.8 22.2,17.4 23.2,16.9  "></polygon>
	<polygon opacity="0.11" points="19.6,20.1 18.6,19.6 18.6,19.2 19.6,18.7  "></polygon>
	<polygon opacity="0.11" points="21.4,16.4 21,16.2 21.4,16 21.8,16.2  "></polygon>
	<polygon opacity="0.11" points="19.6,15.1 18.6,15.6 18.6,16 20,15.3  "></polygon>
	<polygon opacity="0.11" points="17.8,14.6 17.4,14.4 17.8,14.2 18.2,14.4  "></polygon>
	<polygon opacity="0.11" points="16,13.3 15,13.8 15,14.2 16.4,13.5  "></polygon>
	<polygon opacity="0.11" points="17.8,18.2 17.4,18 17.8,17.8 18.2,18  "></polygon>
	<polygon opacity="0.11" points="16,17.3 15.6,17.1 16,16.9 16.4,17.1  "></polygon>
	<polygon opacity="0.11" points="14.2,16.4 13.8,16.2 14.2,16 14.6,16.2  "></polygon>
	<polygon opacity="0.11" points="12.4,15.1 11.4,15.6 11.4,16 12.8,15.3  "></polygon>
	<path opacity="0.29" d="M16,20.1v2.2l8.2-4.1V16L16,20.1z M19.6,20.1L17,21.4V20l2.6-1.3V20.1z M23.2,18.3l-2.6,1.3v-1.4l2.6-1.3   V18.3z"></path>
	<polygon opacity="0.29" points="14.2,19.6 22.4,15.5 22.4,15.1 14.2,19.2  "></polygon>
	<polygon opacity="0.29" points="12.4,18.7 20.6,14.6 20.6,14.2 12.4,18.3  "></polygon>
	<polygon opacity="0.29" points="10.6,17.8 18.8,13.7 18.8,13.3 10.6,17.4  "></polygon>
	<polygon opacity="0.11" points="15,19.6 15,20 14.2,19.6 14.2,19.2 13.2,18.7 13.2,19.1 12.4,18.7 12.4,18.3 11.4,17.8 11.4,18.2    10.6,17.8 10.6,17.4 9.6,16.9 9.6,17.3 8.8,16.9 8.8,16.5 7.8,16 7.8,18.2 8.8,18.7 8.8,17.3 11.4,18.6 11.4,20 12.4,20.5    12.4,19.1 15,20.4 15,21.8 16,22.3 16,20.1  "></polygon>
	<polygon opacity="0.29" points="8.8,16.9 17,12.8 17,12.4 8.8,16.5  "></polygon>
	<polygon opacity="0.29" points="8.8,18.7 10.2,18 8.8,17.3  "></polygon>
</g>
<g xmlns="http://www.w3.org/2000/svg">
	<path fill="#825012" d="M39.2,15.5l-0.4,0.2l-0.4-0.2v-0.4l-1-0.5L37,14.8l-0.4-0.2v-0.4l-1-0.5l-0.4,0.2l-0.4-0.2v-0.4l-1-0.5   L33.4,13L33,12.8v-0.4l-1-0.5L23.8,16v2.2l1,0.5l1.4-0.7l1.2,0.6V20l1,0.5l1.4-0.7l1.2,0.6v1.4l1,0.5l8.2-4.1V16L39.2,15.5z    M37.4,16.4l-2.2,1.1l-0.4-0.2l1.6-0.8l0.6-0.3L37.4,16.4z M31.2,19.1l2.2-1.1l0.4,0.2l-2.2,1.1L31.2,19.1z M27.6,17.3l2.2-1.1   l0.4,0.2L28,17.5L27.6,17.3z M25.8,16.4l1.6-0.8V16l-1.2,0.6L25.8,16.4z M31,14.2l-1.2,0.6l-0.4-0.2l1.6-0.8V14.2z M29.4,18.2   l2.2-1.1l0.4,0.2l-2.2,1.1L29.4,18.2z M34.6,16l-1.2,0.6L33,16.4l1.6-0.8V16z M33.8,14.6l-2.2,1.1l-0.4-0.2l1.6-0.8l0.6-0.3   L33.8,14.6z M33,20.4V20l1.6-0.8v0.4L33,20.4z M36.6,18.6v-0.4l1.6-0.8v0.4L36.6,18.6z"></path>
	<polygon opacity="0.29" points="28.4,20.5 29.8,19.8 28.4,19.1  "></polygon>
	<polygon opacity="0.11" points="39.2,18.3 38.2,17.8 38.2,17.4 39.2,16.9  "></polygon>
	<polygon opacity="0.11" points="35.6,20.1 34.6,19.6 34.6,19.2 35.6,18.7  "></polygon>
	<polygon opacity="0.11" points="37.4,16.4 37,16.2 37.4,16 37.8,16.2  "></polygon>
	<polygon opacity="0.11" points="35.6,15.1 34.6,15.6 34.6,16 36,15.3  "></polygon>
	<polygon opacity="0.11" points="33.8,14.6 33.4,14.4 33.8,14.2 34.2,14.4  "></polygon>
	<polygon opacity="0.11" points="32,13.3 31,13.8 31,14.2 32.4,13.5  "></polygon>
	<polygon opacity="0.11" points="33.8,18.2 33.4,18 33.8,17.8 34.2,18  "></polygon>
	<polygon opacity="0.11" points="32,17.3 31.6,17.1 32,16.9 32.4,17.1  "></polygon>
	<polygon opacity="0.11" points="30.2,16.4 29.8,16.2 30.2,16 30.6,16.2  "></polygon>
	<polygon opacity="0.11" points="28.4,15.1 27.4,15.6 27.4,16 28.8,15.3  "></polygon>
	<path opacity="0.29" d="M32,20.1v2.2l8.2-4.1V16L32,20.1z M35.6,20.1L33,21.4V20l2.6-1.3V20.1z M39.2,18.3l-2.6,1.3v-1.4l2.6-1.3   V18.3z"></path>
	<polygon opacity="0.29" points="30.2,19.6 38.4,15.5 38.4,15.1 30.2,19.2  "></polygon>
	<polygon opacity="0.29" points="28.4,18.7 36.6,14.6 36.6,14.2 28.4,18.3  "></polygon>
	<polygon opacity="0.29" points="26.6,17.8 34.8,13.7 34.8,13.3 26.6,17.4  "></polygon>
	<polygon opacity="0.11" points="31,19.6 31,20 30.2,19.6 30.2,19.2 29.2,18.7 29.2,19.1 28.4,18.7 28.4,18.3 27.4,17.8 27.4,18.2    26.6,17.8 26.6,17.4 25.6,16.9 25.6,17.3 24.8,16.9 24.8,16.5 23.8,16 23.8,18.2 24.8,18.7 24.8,17.3 27.4,18.6 27.4,20 28.4,20.5    28.4,19.1 31,20.4 31,21.8 32,22.3 32,20.1  "></polygon>
	<polygon opacity="0.29" points="24.8,16.9 33,12.8 33,12.4 24.8,16.5  "></polygon>
	<polygon opacity="0.29" points="24.8,18.7 26.2,18 24.8,17.3  "></polygon>
</g>
<g xmlns="http://www.w3.org/2000/svg">
	<path fill="#825012" d="M31.2,19.5l-0.4,0.2l-0.4-0.2v-0.4l-1-0.5L29,18.8l-0.4-0.2v-0.4l-1-0.5l-0.4,0.2l-0.4-0.2v-0.4l-1-0.5   L25.4,17L25,16.8v-0.4l-1-0.5L15.8,20v2.2l1,0.5l1.4-0.7l1.2,0.6V24l1,0.5l1.4-0.7l1.2,0.6v1.4l1,0.5l8.2-4.1V20L31.2,19.5z    M29.4,20.4l-2.2,1.1l-0.4-0.2l1.6-0.8l0.6-0.3L29.4,20.4z M23.2,23.1l2.2-1.1l0.4,0.2l-2.2,1.1L23.2,23.1z M19.6,21.3l2.2-1.1   l0.4,0.2L20,21.5L19.6,21.3z M17.8,20.4l1.6-0.8V20l-1.2,0.6L17.8,20.4z M23,18.2l-1.2,0.6l-0.4-0.2l1.6-0.8V18.2z M21.4,22.2   l2.2-1.1l0.4,0.2l-2.2,1.1L21.4,22.2z M26.6,20l-1.2,0.6L25,20.4l1.6-0.8V20z M25.8,18.6l-2.2,1.1l-0.4-0.2l1.6-0.8l0.6-0.3   L25.8,18.6z M25,24.4V24l1.6-0.8v0.4L25,24.4z M28.6,22.6v-0.4l1.6-0.8v0.4L28.6,22.6z"></path>
	<polygon opacity="0.29" points="20.4,24.5 21.8,23.8 20.4,23.1  "></polygon>
	<polygon opacity="0.11" points="31.2,22.3 30.2,21.8 30.2,21.4 31.2,20.9  "></polygon>
	<polygon opacity="0.11" points="27.6,24.1 26.6,23.6 26.6,23.2 27.6,22.7  "></polygon>
	<polygon opacity="0.11" points="29.4,20.4 29,20.2 29.4,20 29.8,20.2  "></polygon>
	<polygon opacity="0.11" points="27.6,19.1 26.6,19.6 26.6,20 28,19.3  "></polygon>
	<polygon opacity="0.11" points="25.8,18.6 25.4,18.4 25.8,18.2 26.2,18.4  "></polygon>
	<polygon opacity="0.11" points="24,17.3 23,17.8 23,18.2 24.4,17.5  "></polygon>
	<polygon opacity="0.11" points="25.8,22.2 25.4,22 25.8,21.8 26.2,22  "></polygon>
	<polygon opacity="0.11" points="24,21.3 23.6,21.1 24,20.9 24.4,21.1  "></polygon>
	<polygon opacity="0.11" points="22.2,20.4 21.8,20.2 22.2,20 22.6,20.2  "></polygon>
	<polygon opacity="0.11" points="20.4,19.1 19.4,19.6 19.4,20 20.8,19.3  "></polygon>
	<path opacity="0.29" d="M24,24.1v2.2l8.2-4.1V20L24,24.1z M27.6,24.1L25,25.4V24l2.6-1.3V24.1z M31.2,22.3l-2.6,1.3v-1.4l2.6-1.3   V22.3z"></path>
	<polygon opacity="0.29" points="22.2,23.6 30.4,19.5 30.4,19.1 22.2,23.2  "></polygon>
	<polygon opacity="0.29" points="20.4,22.7 28.6,18.6 28.6,18.2 20.4,22.3  "></polygon>
	<polygon opacity="0.29" points="18.6,21.8 26.8,17.7 26.8,17.3 18.6,21.4  "></polygon>
	<polygon opacity="0.11" points="23,23.6 23,24 22.2,23.6 22.2,23.2 21.2,22.7 21.2,23.1 20.4,22.7 20.4,22.3 19.4,21.8 19.4,22.2    18.6,21.8 18.6,21.4 17.6,20.9 17.6,21.3 16.8,20.9 16.8,20.5 15.8,20 15.8,22.2 16.8,22.7 16.8,21.3 19.4,22.6 19.4,24 20.4,24.5    20.4,23.1 23,24.4 23,25.8 24,26.3 24,24.1  "></polygon>
	<polygon opacity="0.29" points="16.8,20.9 25,16.8 25,16.4 16.8,20.5  "></polygon>
	<polygon opacity="0.29" points="16.8,22.7 18.2,22 16.8,21.3  "></polygon>
</g>
</g></g></g><g id="i458" class="top-level-node" transform="translate(144,248)"><g><g><path xmlns="http://www.w3.org/2000/svg" d="m0 24 16 8 16-8v-12l-16-8-16 8z" fill="#762c07"></path><path xmlns="http://www.w3.org/2000/svg" d="m11 28.5 2 1v-2l-2-1zm2-7-2-1v2l2 1zm8 7 2-1v-2l-2 1zm3-1.5 2-1v-2l-2 1zm3-4.5 2-1v-2l-2 1zm3-1.5 2-1v-2l-2 1zm-12 6v-2l-2 1-4-2v2l4 2zm3-3.5-2 1v2l2-1zm-7 4.5v2l2 1 4-2v-2l-4 2zm13-2.5 4-2v-2l-4 2zm-5-.5 4-2v-2l-4 2zm-1-2.5 2-1v-2l-2 1zm3-1.5 2-1v-2l-2 1zm-8 1 2-1v-2l-4-2-2 1v2zm-1-5.5 4 2v2l2-1v-2l-4-2zm8-4 4 2v2l2-1v-2l-4-2zm5-2.5-2 1 4 2v2l2-1v-2zm-8 11-4 2-2-1v2l2 1 4-2zm11-5.5-4 2v2l4-2zm-11 .5 2 1v2l4-2v-2l-2-1zm-17 8.5 2 1v-2l-2-1zm-3-1.5 2 1v-2l-2-1zm6 3 4 2v-2l-4-2zm-3-7.5 2 1v-2l-2-1zm-1-2.5-2-1v2l2 1zm8 4-4-2v2l4 2zm1 3.5-2-1v2l2 1zm-5-.5 2 1v-2l-2-1zm-5-2.5 4 2v-2l-4-2zm2-9-2 1v2l4 2v-2l2-1zm18 1-4 2 2 1 4-2zm1-.5 4-2-2-1-4 2zm-2 0-4-2-2 1 4 2zm-3 1.5-4-2-2 1 4 2zm4-7-4-2-2 1 4 2zm-3 1.5-4-2-2 1 4 2zm-8 4-4-2-2 1 4 2zm7-2.5 2 1 4-2-2-1zm-8 1 2 1 4-2-2-1zm3-2.5-2-1-4 2 2 1zm-1 9.5 4-2-2-1-4 2v2l2 1zm-5-.5 2 1v-2l4-2-2-1-4 2z" fill="#baa794" opacity=".5"></path><path xmlns="http://www.w3.org/2000/svg" d="m32 24-16 8v-12l16-8z" opacity=".29"></path><path xmlns="http://www.w3.org/2000/svg" d="m0 24 16 8v-12l-16-8z" opacity=".11"></path></g></g></g></g><g id="chart-foreground-container"><rect id="chart-foreground-rect" width="800" height="640" fill="none" stroke-width="1px" stroke="rgb(64, 64, 64)" stroke-opacity="0.7"></rect></g><g id="selection-layer"></g><g id="global-selection-layer"><g id="global-selection"><rect x="618.3511962890625" y="618.3511962890625" width="1" height="1" fill="none" stroke-width="1px" stroke="blue"></rect></g></g></g>	 
</svg>
