<?xml version="1.0" encoding="UTF-8" standalone="no"?>
<!-- Created with Inkscape (http://www.inkscape.org/) -->

<svg
   xmlns:dc="http://purl.org/dc/elements/1.1/"
   xmlns:cc="http://creativecommons.org/ns#"
   xmlns:rdf="http://www.w3.org/1999/02/22-rdf-syntax-ns#"
   xmlns:svg="http://www.w3.org/2000/svg"
   xmlns="http://www.w3.org/2000/svg"
   xmlns:sodipodi="http://sodipodi.sourceforge.net/DTD/sodipodi-0.dtd"
   xmlns:inkscape="http://www.inkscape.org/namespaces/inkscape"
   width="84.448509mm"
   height="42.224255mm"
   viewBox="0 0 84.448508 42.224255"
   version="1.1"
   id="svg581"
   inkscape:version="0.92.2 (5c3e80d, 2017-08-06)"
   sodipodi:docname="earth-works-2.svg">
  <defs
     id="defs575" />
  <sodipodi:namedview
     id="base"
     pagecolor="#ffffff"
     bordercolor="#666666"
     borderopacity="1.0"
     inkscape:pageopacity="0.0"
     inkscape:pageshadow="2"
     inkscape:zoom="0.24748737"
     inkscape:cx="89.098857"
     inkscape:cy="501.29843"
     inkscape:document-units="mm"
     inkscape:current-layer="svg581"
     showgrid="false"
     inkscape:window-width="1360"
     inkscape:window-height="706"
     inkscape:window-x="-8"
     inkscape:window-y="-8"
     inkscape:window-maximized="1"
     fit-margin-top="0"
     fit-margin-left="0"
     fit-margin-right="0"
     fit-margin-bottom="0" />
  <metadata
     id="metadata578">
    <rdf:RDF>
      <cc:Work
         rdf:about="">
        <dc:format>image/svg+xml</dc:format>
        <dc:type
           rdf:resource="http://purl.org/dc/dcmitype/StillImage" />
        <dc:title></dc:title>
      </cc:Work>
    </rdf:RDF>
  </metadata>
  <g
     inkscape:label="Layer 1"
     inkscape:groupmode="layer"
     id="layer1"
     transform="translate(206.17449,-271.19605)" />
  <g
     id="i368"
     class="top-level-node"
     transform="scale(0.65975396)">
    <g
       id="g48">
      <g
         id="g46">
        <path
           d="m 64,0 -12,4 -4,4 -8,4 -8,8 h -8 l -8,4 -4,4 -12,4 12,4 4,4 8,4 8,8 h 8 l 8,4 4,4 12,4 12,-4 4,-4 8,-4 h 8 l 8,-8 8,-4 4,-4 12,-4 -12,-4 -4,-4 -8,-4 H 96 L 88,12 80,8 76,4 Z"
           id="path20"
           inkscape:connector-curvature="0"
           style="fill:#656565" />
        <path
           d="m 64,0 12,4 4,4 8,4 8,8 h 8 l 8,4 4,4 12,4 -12,4 -4,4 -8,4 -8,8 -8,-8 -8,-4 -4,-4 -12,-4 z"
           id="path22"
           inkscape:connector-curvature="0"
           style="opacity:0.11000001" />
        <path
           d="m 64,0 v 32 l -12,4 -4,4 -8,4 -8,8 -8,-8 -8,-4 -4,-4 -12,-4 12,-4 4,-4 8,-4 h 8 l 8,-8 8,-4 4,-4 z"
           id="path24"
           inkscape:connector-curvature="0"
           style="opacity:0.28999999" />
        <path
           d="m 16,24 8,-4 v 24 l -8,-4 z"
           id="path26"
           inkscape:connector-curvature="0"
           style="opacity:0.1;fill:#ffffff" />
        <path
           d="m 48,8 4,-4 v 32 l -4,4 z"
           id="path28"
           inkscape:connector-curvature="0"
           style="opacity:0.1;fill:#ffffff" />
        <path
           d="M 52,4 64,0 v 32 l -12,4 z"
           id="path30"
           inkscape:connector-curvature="0"
           style="opacity:0.1" />
        <path
           d="m 40,12 -8,8 v 32 l 8,-8 z"
           id="path32"
           inkscape:connector-curvature="0"
           style="opacity:0.15" />
        <path
           d="M 12,36 0,32 12,28 Z"
           id="path34"
           inkscape:connector-curvature="0"
           style="opacity:0.1" />
        <path
           d="m 112,24 -8,-4 v 24 l 8,-4 z"
           id="path36"
           inkscape:connector-curvature="0"
           style="opacity:0.1;fill:#ffffff" />
        <path
           d="M 80,8 76,4 v 32 l 4,4 z"
           id="path38"
           inkscape:connector-curvature="0"
           style="opacity:0.1;fill:#ffffff" />
        <path
           d="M 76,4 64,0 v 32 l 12,4 z"
           id="path40"
           inkscape:connector-curvature="0"
           style="opacity:0.1" />
        <path
           d="m 88,12 8,8 v 32 l -8,-8 z"
           id="path42"
           inkscape:connector-curvature="0"
           style="opacity:0.15" />
        <path
           d="m 116,36 12,-4 -12,-4 z"
           id="path44"
           inkscape:connector-curvature="0"
           style="opacity:0.1" />
      </g>
    </g>
  </g>
  <g
     id="selection-layer"
     transform="matrix(0.65975396,0,0,0.65975396,204.93487,-357.99779)" />
</svg>
