<?xml version="1.0" encoding="UTF-8" standalone="no"?>
<!-- Created with Inkscape (http://www.inkscape.org/) -->

<svg
   xmlns:dc="http://purl.org/dc/elements/1.1/"
   xmlns:cc="http://creativecommons.org/ns#"
   xmlns:rdf="http://www.w3.org/1999/02/22-rdf-syntax-ns#"
   xmlns:svg="http://www.w3.org/2000/svg"
   xmlns="http://www.w3.org/2000/svg"
   xmlns:sodipodi="http://sodipodi.sourceforge.net/DTD/sodipodi-0.dtd"
   xmlns:inkscape="http://www.inkscape.org/namespaces/inkscape"
   width="32.220989mm"
   height="31.014856mm"
   viewBox="0 0 32.220989 31.014856"
   version="1.1"
   id="svg581"
   inkscape:version="0.92.2 (5c3e80d, 2017-08-06)"
   sodipodi:docname="electricity-2.svg">
  <defs
     id="defs575" />
  <sodipodi:namedview
     id="base"
     pagecolor="#ffffff"
     bordercolor="#666666"
     borderopacity="1.0"
     inkscape:pageopacity="0.0"
     inkscape:pageshadow="2"
     inkscape:zoom="0.49497475"
     inkscape:cx="-178.46648"
     inkscape:cy="-70.45793"
     inkscape:document-units="mm"
     inkscape:current-layer="svg581"
     showgrid="false"
     inkscape:window-width="1360"
     inkscape:window-height="706"
     inkscape:window-x="-8"
     inkscape:window-y="-8"
     inkscape:window-maximized="1"
     fit-margin-top="0"
     fit-margin-left="0"
     fit-margin-right="0"
     fit-margin-bottom="0" />
  <metadata
     id="metadata578">
    <rdf:RDF>
      <cc:Work
         rdf:about="">
        <dc:format>image/svg+xml</dc:format>
        <dc:type
           rdf:resource="http://purl.org/dc/dcmitype/StillImage" />
        <dc:title></dc:title>
      </cc:Work>
    </rdf:RDF>
  </metadata>
  <g
     inkscape:label="Layer 1"
     inkscape:groupmode="layer"
     id="layer1"
     transform="translate(110.2023,-169.02366)" />
  <g
     id="i363"
     class="top-level-node"
     transform="matrix(0.57434918,0,0,0.57434918,0,-1.1486984)">
    <g
       id="g1829">
      <g
         id="g1827">
        <path
           d="m 40,16 -14,7 v 2 l 14,7 14,-7 v -2 z"
           id="path1641"
           inkscape:connector-curvature="0"
           style="fill:#999999" />
        <path
           d="M 54,25 40,32 V 30 L 54,23 Z"
           id="path1643"
           inkscape:connector-curvature="0"
           style="opacity:0.28999999" />
        <path
           d="M 40,32 26,25 v -2 l 14,7 z"
           id="path1645"
           inkscape:connector-curvature="0"
           style="opacity:0.11000001" />
        <path
           d="M 40,2 28,8 v 15 l 12,6 12,-6 V 8 Z"
           id="path1647"
           inkscape:connector-curvature="0"
           style="fill:#e5e5e5" />
        <path
           d="M 52,23 40,29 V 14 L 52,8 Z"
           id="path1649"
           inkscape:connector-curvature="0"
           style="opacity:0.28999999" />
        <path
           d="M 40,29 28,23 V 8 l 12,6 z"
           id="path1651"
           inkscape:connector-curvature="0"
           style="opacity:0.11000001" />
        <path
           d="m 51,11 v 1 l -10,5 v -1 z"
           id="path1653"
           inkscape:connector-curvature="0"
           style="opacity:0.3" />
        <path
           d="m 51,13 v 1 l -10,5 v -1 z"
           id="path1655"
           inkscape:connector-curvature="0"
           style="opacity:0.3" />
        <path
           d="m 51,15 v 1 l -10,5 v -1 z"
           id="path1657"
           inkscape:connector-curvature="0"
           style="opacity:0.3" />
        <path
           d="m 51,17 v 1 l -10,5 v -1 z"
           id="path1659"
           inkscape:connector-curvature="0"
           style="opacity:0.3" />
        <path
           d="m 51,19 v 1 l -10,5 v -1 z"
           id="path1661"
           inkscape:connector-curvature="0"
           style="opacity:0.3" />
        <path
           d="m 23.9,29 -6,3 v 1 l 6,3 6,-3 v -1 z"
           id="path1663"
           inkscape:connector-curvature="0"
           style="fill:#999999" />
        <path
           d="m 29.9,33 -6,3 v -1 l 6,-3 z"
           id="path1665"
           inkscape:connector-curvature="0"
           style="opacity:0.28999999" />
        <path
           d="m 23.9,36 -6,-3 v -1 l 6,3 z"
           id="path1667"
           inkscape:connector-curvature="0"
           style="opacity:0.11000001" />
        <path
           d="m 23.9,16 -8,4 v 11 l 8,4 8,-4 V 20 Z"
           id="path1669"
           inkscape:connector-curvature="0"
           style="fill:#e5e5e5" />
        <path
           d="m 31.9,31 -8,4 V 24 l 8,-4 z"
           id="path1671"
           inkscape:connector-curvature="0"
           style="opacity:0.28999999" />
        <path
           d="m 23.9,35 -8,-4 V 20 l 8,4 z"
           id="path1673"
           inkscape:connector-curvature="0"
           style="opacity:0.11000001" />
        <path
           d="m 30.4,15 c 0.2,0 0.3,-0.1 0.4,-0.2 0.3,-0.4 0.1,-1.1 -0.5,-1.6 -0.6,-0.5 -1.4,-0.5 -1.7,-0.1 -0.1,0.1 -0.1,0.3 -0.1,0.5 -0.2,0 -0.3,0.1 -0.4,0.2 -0.1,0.1 -0.1,0.3 -0.1,0.5 -0.2,0 -0.3,0.1 -0.4,0.2 -0.1,0.1 -0.1,0.3 -0.1,0.5 -0.2,0 -0.3,0.1 -0.4,0.2 -0.1,0.1 -0.1,0.3 -0.1,0.5 -0.2,0 -0.3,0.1 -0.4,0.2 -0.1,0.1 -0.1,0.3 -0.1,0.5 -0.2,0 -0.3,0.1 -0.4,0.2 -0.1,0.1 -0.1,0.3 -0.1,0.5 -0.2,0 -0.3,0.1 -0.4,0.2 -0.1,0.1 -0.1,0.3 -0.1,0.5 -0.2,0 -0.3,0.1 -0.4,0.2 -0.1,0.1 -0.1,0.3 -0.1,0.5 -0.2,0 -0.3,0.1 -0.4,0.2 C 24,19 24,19.2 24,19.4 c -0.2,0 -0.3,0.1 -0.4,0.2 -0.3,0.4 -0.1,1.1 0.5,1.6 0.6,0.5 1.4,0.5 1.7,0.1 0.1,-0.1 0.1,-0.3 0.1,-0.5 0.2,0 0.3,-0.1 0.4,-0.2 0.1,-0.1 0.1,-0.3 0.1,-0.5 0.2,0 0.3,-0.1 0.4,-0.2 0.1,-0.1 0.1,-0.3 0.1,-0.5 0.2,0 0.3,-0.1 0.4,-0.2 0.1,-0.1 0.1,-0.3 0.1,-0.5 0.2,0 0.3,-0.1 0.4,-0.2 0.1,-0.1 0.1,-0.3 0.1,-0.5 0.2,0 0.3,-0.1 0.4,-0.2 0.1,-0.1 0.1,-0.3 0.1,-0.5 0.2,0 0.3,-0.1 0.4,-0.2 0.1,-0.1 0.1,-0.3 0.1,-0.5 0.2,0 0.3,-0.1 0.4,-0.2 0.1,-0.1 0.1,-0.3 0.1,-0.5 0.2,0 0.3,-0.1 0.4,-0.2 0.6,-0.4 0.6,-0.6 0.6,-0.7 z"
           id="path1675"
           inkscape:connector-curvature="0"
           style="fill:#656565" />
        <path
           d="m 31.6,11.5 c -0.2,-0.2 -0.4,-0.2 -0.5,-0.1 l -1.6,2.1 c -0.1,0.1 0,0.3 0.2,0.5 0.2,0.2 0.4,0.2 0.5,0.1 L 31.8,12 c 0.1,-0.2 0,-0.4 -0.2,-0.5 z"
           id="path1677"
           inkscape:connector-curvature="0"
           style="fill:#2d3134" />
        <path
           d="M 31.3,11.8 C 31.1,11.6 31,11.4 31.1,11.3 l -1.6,2.1 c -0.1,0.1 0,0.3 0.2,0.5 0.2,0.2 0.4,0.2 0.5,0.1 l 1.6,-2.1 C 31.7,12 31.5,12 31.3,11.8 Z"
           id="path1679"
           inkscape:connector-curvature="0"
           style="opacity:0.2" />
        <path
           d="M 18.6,7.2 C 18.7,7 18.7,6.9 18.6,6.7 18.4,6.2 17.7,6 17,6.3 c -0.7,0.3 -1.2,0.8 -1,1.3 0.1,0.2 0.2,0.3 0.3,0.4 -0.1,0.2 -0.1,0.3 0,0.5 0.1,0.2 0.2,0.3 0.3,0.4 -0.1,0.2 -0.1,0.3 0,0.5 0.1,0.2 0.2,0.3 0.3,0.4 -0.1,0.2 -0.1,0.3 0,0.5 0.1,0.2 0.2,0.3 0.3,0.4 -0.1,0.2 -0.1,0.3 0,0.5 0.1,0.2 0.2,0.3 0.3,0.4 -0.1,0.2 -0.1,0.3 0,0.5 0.1,0.2 0.2,0.3 0.3,0.4 -0.1,0.2 -0.1,0.3 0,0.5 0.1,0.2 0.2,0.3 0.3,0.4 -0.1,0.2 -0.1,0.3 0,0.5 0.1,0.2 0.2,0.3 0.3,0.4 -0.1,0.2 -0.1,0.3 0,0.5 0.1,0.2 0.2,0.3 0.3,0.4 -0.1,0.2 -0.1,0.3 0,0.5 0.1,0.2 0.2,0.3 0.3,0.4 -0.1,0.2 -0.1,0.3 0,0.5 0.1,0.2 0.2,0.3 0.3,0.4 -0.1,0.2 -0.1,0.3 0,0.5 0.1,0.2 0.2,0.3 0.3,0.4 -0.1,0.2 -0.1,0.3 0,0.5 0.1,0.2 0.2,0.3 0.3,0.4 -0.1,0.2 -0.1,0.3 0,0.5 0.2,0.5 0.9,0.7 1.6,0.4 0.7,-0.3 1.2,-0.8 1,-1.3 -0.1,-0.2 -0.2,-0.3 -0.3,-0.4 0.1,-0.2 0.1,-0.3 0,-0.5 -0.1,-0.2 -0.2,-0.3 -0.3,-0.4 0.1,-0.2 0.1,-0.3 0,-0.5 -0.1,-0.2 -0.2,-0.3 -0.3,-0.4 0.1,-0.2 0.1,-0.3 0,-0.5 -0.1,-0.2 -0.2,-0.3 -0.3,-0.4 0.1,-0.2 0.1,-0.3 0,-0.5 -0.1,-0.2 -0.2,-0.3 -0.3,-0.4 0.1,-0.2 0.1,-0.3 0,-0.5 -0.1,-0.2 -0.2,-0.3 -0.3,-0.4 0.1,-0.2 0.1,-0.3 0,-0.5 -0.1,-0.2 -0.2,-0.3 -0.3,-0.4 0.1,-0.2 0.1,-0.3 0,-0.5 -0.1,-0.2 -0.2,-0.3 -0.3,-0.4 0.1,-0.2 0.1,-0.3 0,-0.5 -0.1,-0.2 -0.2,-0.3 -0.3,-0.4 0.1,-0.2 0.1,-0.3 0,-0.5 C 19.7,10.1 19.6,10 19.5,9.9 19.6,9.7 19.6,9.6 19.5,9.4 19.4,9.2 19.3,9.1 19.2,9 19.3,8.8 19.3,8.7 19.2,8.5 19.1,8.3 19,8.2 18.9,8.1 19,7.9 19,7.8 19,7.6 18.9,7.5 18.8,7.3 18.6,7.2 Z"
           id="path1681"
           inkscape:connector-curvature="0"
           style="fill:#656565" />
        <path
           d="M 16.4,4.3 C 16.1,4.4 16,4.6 16,4.7 l 0.9,2.5 c 0,0.1 0.3,0.2 0.5,0.1 C 17.6,7.2 17.8,7 17.8,6.9 L 16.9,4.4 C 16.8,4.3 16.6,4.2 16.4,4.3 Z"
           id="path1683"
           inkscape:connector-curvature="0"
           style="fill:#2d3134" />
        <path
           d="M 16.5,4.8 C 16.3,4.9 16,4.8 16,4.7 l 0.9,2.5 c 0,0.1 0.3,0.2 0.5,0.1 C 17.6,7.2 17.8,7 17.8,6.9 L 16.9,4.4 c 0,0.1 -0.1,0.3 -0.4,0.4 z"
           id="path1685"
           inkscape:connector-curvature="0"
           style="opacity:0.2" />
        <path
           d="m 16,33 -6,3 v 1 l 6,3 6,-3 v -1 z"
           id="path1687"
           inkscape:connector-curvature="0"
           style="fill:#999999" />
        <path
           d="m 22,37 -6,3 v -1 l 6,-3 z"
           id="path1689"
           inkscape:connector-curvature="0"
           style="opacity:0.28999999" />
        <path
           d="m 16,40 -6,-3 v -1 l 6,3 z"
           id="path1691"
           inkscape:connector-curvature="0"
           style="opacity:0.11000001" />
        <path
           d="m 16,20 -8,4 v 11 l 8,4 8,-4 V 24 Z"
           id="path1693"
           inkscape:connector-curvature="0"
           style="fill:#e5e5e5" />
        <path
           d="m 24,35 -8,4 V 28 l 8,-4 z"
           id="path1695"
           inkscape:connector-curvature="0"
           style="opacity:0.28999999" />
        <path
           d="M 16,39 8,35 V 24 l 8,4 z"
           id="path1697"
           inkscape:connector-curvature="0"
           style="opacity:0.11000001" />
        <path
           d="m 22.5,19 c 0.2,0 0.3,-0.1 0.4,-0.2 0.3,-0.4 0.1,-1.1 -0.5,-1.6 -0.6,-0.5 -1.4,-0.5 -1.7,-0.1 -0.1,0.1 -0.1,0.3 -0.1,0.5 -0.2,0 -0.3,0.1 -0.4,0.2 -0.1,0.1 -0.1,0.3 -0.1,0.5 -0.2,0 -0.3,0.1 -0.4,0.2 -0.1,0.1 -0.1,0.3 -0.1,0.5 -0.2,0 -0.3,0.1 -0.4,0.2 -0.1,0.1 -0.1,0.3 -0.1,0.5 -0.2,0 -0.3,0.1 -0.4,0.2 -0.1,0.1 -0.1,0.3 -0.1,0.5 -0.2,0 -0.3,0.1 -0.4,0.2 -0.1,0.1 -0.1,0.3 -0.1,0.5 -0.2,0 -0.3,0.1 -0.4,0.2 -0.1,0.1 -0.1,0.3 -0.1,0.5 -0.2,0 -0.3,0.1 -0.4,0.2 -0.1,0.1 -0.1,0.3 -0.1,0.5 -0.2,0 -0.3,0.1 -0.4,0.2 -0.1,0.1 -0.1,0.3 -0.1,0.5 -0.2,0 -0.3,0.1 -0.4,0.2 -0.3,0.4 -0.1,1.1 0.5,1.6 0.6,0.5 1.4,0.5 1.7,0.1 C 18,25.2 18,25 18,24.9 c 0.2,0 0.3,-0.1 0.4,-0.2 0.1,-0.1 0.1,-0.3 0.1,-0.5 0.2,0 0.3,-0.1 0.4,-0.2 0.1,-0.1 0.1,-0.3 0.1,-0.5 0.2,0 0.3,-0.1 0.4,-0.2 0.1,-0.1 0.1,-0.3 0.1,-0.5 0.2,0 0.3,-0.1 0.4,-0.2 0.1,-0.1 0.1,-0.3 0.1,-0.5 0.2,0 0.3,-0.1 0.4,-0.2 0.1,-0.1 0.1,-0.3 0.1,-0.5 0.2,0 0.3,-0.1 0.4,-0.2 0.1,-0.1 0.1,-0.3 0.1,-0.5 0.2,0 0.3,-0.1 0.4,-0.2 0.1,-0.1 0.1,-0.3 0.1,-0.5 0.2,0 0.3,-0.1 0.4,-0.2 0.6,-0.5 0.6,-0.6 0.6,-0.8 z"
           id="path1699"
           inkscape:connector-curvature="0"
           style="fill:#656565" />
        <path
           d="m 23.7,15.5 c -0.2,-0.2 -0.4,-0.2 -0.5,-0.1 l -1.6,2.1 c -0.1,0.1 0,0.3 0.2,0.5 0.2,0.2 0.4,0.2 0.5,0.1 L 23.9,16 c 0.1,-0.1 0,-0.4 -0.2,-0.5 z"
           id="path1701"
           inkscape:connector-curvature="0"
           style="fill:#2d3134" />
        <path
           d="m 23.4,15.9 c -0.2,-0.2 -0.3,-0.4 -0.2,-0.5 l -1.6,2.1 c -0.1,0.1 0,0.3 0.2,0.5 0.2,0.2 0.4,0.2 0.5,0.1 L 23.9,16 c -0.1,0.1 -0.3,0 -0.5,-0.1 z"
           id="path1703"
           inkscape:connector-curvature="0"
           style="opacity:0.2" />
        <path
           d="m 10.8,11.3 c 0.1,-0.2 0.1,-0.3 0,-0.5 -0.2,-0.5 -0.9,-0.7 -1.6,-0.4 -0.7,0.3 -1.2,0.8 -1,1.3 0.1,0.2 0.2,0.3 0.3,0.4 -0.1,0.2 -0.1,0.3 0,0.5 0.1,0.2 0.2,0.3 0.3,0.4 -0.1,0.2 -0.1,0.3 0,0.5 0.1,0.2 0.2,0.3 0.3,0.4 -0.1,0.1 -0.1,0.2 0,0.4 0.1,0.2 0.2,0.3 0.3,0.4 -0.1,0.2 -0.1,0.3 0,0.5 0.1,0.2 0.2,0.3 0.3,0.4 -0.1,0.2 -0.1,0.3 0,0.5 0.1,0.2 0.2,0.3 0.3,0.4 -0.1,0.2 -0.1,0.3 0,0.5 0.1,0.2 0.2,0.3 0.3,0.4 -0.1,0.2 -0.1,0.3 0,0.5 0.1,0.2 0.2,0.3 0.3,0.4 -0.1,0.2 -0.1,0.3 0,0.5 0.1,0.2 0.2,0.3 0.3,0.4 -0.1,0.2 -0.1,0.3 0,0.5 0.1,0.2 0.2,0.3 0.3,0.4 -0.1,0.2 -0.1,0.3 0,0.5 0.1,0.2 0.2,0.3 0.3,0.4 -0.1,0.2 -0.1,0.3 0,0.5 0.1,0.2 0.2,0.3 0.3,0.4 -0.1,0.2 -0.1,0.3 0,0.5 0.1,0.2 0.2,0.3 0.3,0.4 -0.1,0.2 -0.1,0.3 0,0.5 0.2,0.5 0.9,0.7 1.6,0.4 0.7,-0.3 1.2,-0.8 1,-1.3 -0.1,-0.2 -0.2,-0.3 -0.3,-0.4 0.1,-0.2 0.1,-0.3 0,-0.5 -0.1,-0.2 -0.2,-0.3 -0.3,-0.4 0.1,-0.2 0.1,-0.3 0,-0.5 -0.1,-0.2 -0.2,-0.3 -0.3,-0.4 0.1,-0.2 0.1,-0.3 0,-0.5 -0.1,-0.2 -0.2,-0.3 -0.3,-0.4 0.1,-0.2 0.1,-0.3 0,-0.5 -0.1,-0.2 -0.2,-0.3 -0.3,-0.4 0.1,-0.2 0.1,-0.3 0,-0.5 -0.1,-0.2 -0.2,-0.3 -0.3,-0.4 0.1,-0.2 0.1,-0.3 0,-0.5 -0.1,-0.2 -0.2,-0.3 -0.3,-0.4 0.1,-0.2 0.1,-0.3 0,-0.5 -0.1,-0.2 -0.2,-0.3 -0.3,-0.4 0.1,-0.2 0.1,-0.3 0,-0.5 -0.1,-0.2 -0.2,-0.3 -0.3,-0.4 0.1,-0.2 0.1,-0.3 0,-0.5 -0.1,-0.2 -0.2,-0.3 -0.3,-0.4 0.1,-0.2 0.1,-0.3 0,-0.5 -0.1,-0.2 -0.2,-0.3 -0.3,-0.4 0.1,-0.2 0.1,-0.3 0,-0.5 -0.1,-0.2 -0.2,-0.3 -0.3,-0.4 0.1,-0.2 0.1,-0.3 0,-0.5 -0.1,-0.1 -0.2,-0.2 -0.3,-0.3 z"
           id="path1705"
           inkscape:connector-curvature="0"
           style="fill:#656565" />
        <path
           d="M 8.5,8.4 C 8.2,8.4 8.1,8.6 8.1,8.7 L 9,11.2 c 0,0.1 0.3,0.2 0.5,0.1 C 9.7,11.2 9.9,11 9.9,10.9 L 9,8.4 C 9,8.3 8.7,8.3 8.5,8.4 Z"
           id="path1707"
           inkscape:connector-curvature="0"
           style="fill:#2d3134" />
        <path
           d="M 8.6,8.8 C 8.4,8.9 8.2,8.9 8.1,8.7 L 9,11.2 c 0,0.1 0.3,0.2 0.5,0.1 C 9.7,11.2 9.9,11 9.9,10.9 L 9,8.4 C 9,8.5 8.9,8.7 8.6,8.8 Z"
           id="path1709"
           inkscape:connector-curvature="0"
           style="opacity:0.2" />
        <path
           d="m 8,37 -6,3 v 1 l 6,3 6,-3 v -1 z"
           id="path1711"
           inkscape:connector-curvature="0"
           style="fill:#999999" />
        <path
           d="m 14,41 -6,3 v -1 l 6,-3 z"
           id="path1713"
           inkscape:connector-curvature="0"
           style="opacity:0.28999999" />
        <path
           d="M 8,44 2,41 v -1 l 6,3 z"
           id="path1715"
           inkscape:connector-curvature="0"
           style="opacity:0.11000001" />
        <path
           d="m 8,24 -8,4 v 11 l 8,4 8,-4 V 28 Z"
           id="path1717"
           inkscape:connector-curvature="0"
           style="fill:#e5e5e5" />
        <path
           d="M 16,39 8,43 V 32 l 8,-4 z"
           id="path1719"
           inkscape:connector-curvature="0"
           style="opacity:0.28999999" />
        <path
           d="M 8,43 0,39 V 28 l 8,4 z"
           id="path1721"
           inkscape:connector-curvature="0"
           style="opacity:0.11000001" />
        <path
           d="m 14.5,23 c 0.2,0 0.3,-0.1 0.4,-0.2 0.3,-0.4 0.1,-1.1 -0.5,-1.6 -0.6,-0.5 -1.4,-0.5 -1.7,-0.1 -0.1,0.1 -0.1,0.3 -0.1,0.5 -0.2,0 -0.3,0.1 -0.4,0.2 -0.1,0.1 -0.1,0.3 -0.1,0.5 -0.2,0 -0.3,0.1 -0.4,0.2 -0.1,0.1 -0.1,0.3 -0.1,0.5 -0.2,0 -0.3,0.1 -0.4,0.2 -0.1,0.1 -0.1,0.3 -0.1,0.5 -0.2,0 -0.3,0.1 -0.4,0.2 -0.1,0.1 -0.1,0.3 -0.1,0.5 -0.2,0 -0.3,0.1 -0.4,0.2 -0.1,0.1 -0.1,0.3 -0.1,0.5 -0.2,0 -0.3,0.1 -0.4,0.2 C 9.6,25.4 9.6,25.6 9.6,25.8 9,26 8.9,26 8.8,26.2 8.7,26.3 8.7,26.5 8.7,26.7 8.5,26.7 8.4,26.8 8.3,26.9 8.2,27 8.2,27.2 8.2,27.4 8,27.4 7.9,27.5 7.8,27.6 7.5,28 7.7,28.7 8.3,29.2 c 0.6,0.5 1.4,0.5 1.7,0.1 0,-0.1 0,-0.3 0,-0.4 0.2,0 0.3,-0.1 0.4,-0.2 0.1,-0.1 0.1,-0.3 0.1,-0.5 0.2,0 0.3,-0.1 0.4,-0.2 0.1,-0.1 0.1,-0.3 0.1,-0.5 0.2,0 0.3,-0.1 0.4,-0.2 0.1,-0.1 0.1,-0.3 0.1,-0.5 0.2,0 0.3,-0.1 0.4,-0.2 0.1,-0.1 0.1,-0.3 0.1,-0.5 0.2,0 0.3,-0.1 0.4,-0.2 0.1,-0.1 0.1,-0.3 0.1,-0.5 0.2,0 0.3,-0.1 0.4,-0.2 0.1,-0.1 0.1,-0.3 0.1,-0.5 0.2,0 0.3,-0.1 0.4,-0.2 0.1,-0.1 0.1,-0.3 0.1,-0.5 0.2,0 0.3,-0.1 0.4,-0.2 0.6,-0.5 0.6,-0.6 0.6,-0.8 z"
           id="path1723"
           inkscape:connector-curvature="0"
           style="fill:#656565" />
        <path
           d="m 15.7,19.5 c -0.2,-0.2 -0.4,-0.2 -0.5,-0.1 l -1.6,2.1 c -0.1,0.1 0,0.3 0.2,0.5 0.2,0.2 0.4,0.2 0.5,0.1 L 15.9,20 c 0.1,-0.1 0,-0.4 -0.2,-0.5 z"
           id="path1725"
           inkscape:connector-curvature="0"
           style="fill:#2d3134" />
        <path
           d="m 15.4,19.9 c -0.2,-0.2 -0.3,-0.4 -0.2,-0.5 l -1.6,2.1 c -0.1,0.1 0,0.3 0.2,0.5 0.2,0.2 0.4,0.2 0.5,0.1 L 15.9,20 c -0.1,0.1 -0.3,0 -0.5,-0.1 z"
           id="path1727"
           inkscape:connector-curvature="0"
           style="opacity:0.2" />
        <path
           d="M 2.8,15.3 C 2.9,15.1 2.9,15 2.8,14.8 2.6,14.3 1.9,14.1 1.2,14.4 c -0.7,0.3 -1.2,0.8 -1,1.3 0.1,0.2 0.2,0.3 0.3,0.4 -0.1,0.2 -0.1,0.3 0,0.5 0.1,0.2 0.2,0.3 0.3,0.4 -0.1,0.2 -0.1,0.3 0,0.5 0.1,0.2 0.2,0.3 0.3,0.4 -0.1,0.1 -0.1,0.2 0,0.4 0.1,0.2 0.2,0.3 0.3,0.4 -0.1,0.2 -0.1,0.3 0,0.5 0.1,0.2 0.2,0.3 0.3,0.4 -0.1,0.2 -0.1,0.3 0,0.5 0.1,0.2 0.2,0.3 0.3,0.4 -0.1,0.2 -0.1,0.3 0,0.5 0.1,0.2 0.2,0.3 0.3,0.4 -0.1,0.2 -0.1,0.3 0,0.5 0.1,0.2 0.2,0.3 0.3,0.4 -0.1,0.2 -0.1,0.3 0,0.5 0.1,0.2 0.2,0.3 0.3,0.4 -0.1,0.2 -0.1,0.3 0,0.5 0.1,0.2 0.2,0.3 0.3,0.4 -0.1,0.2 -0.1,0.3 0,0.5 0.1,0.2 0.2,0.3 0.3,0.4 -0.1,0.2 -0.1,0.3 0,0.5 0.1,0.2 0.2,0.3 0.3,0.4 -0.1,0.2 -0.1,0.3 0,0.5 0.1,0.2 0.2,0.3 0.3,0.4 C 4,27 4,27.1 4.1,27.3 4.3,27.8 5,28 5.7,27.7 6.4,27.4 6.9,26.9 6.7,26.4 6.6,26.2 6.5,26.1 6.4,26 6.5,25.8 6.5,25.7 6.4,25.5 6.3,25.3 6.2,25.2 6.1,25.1 6.2,24.9 6.2,24.8 6.1,24.6 6.1,24.2 6,24.1 5.8,24 5.9,23.8 5.9,23.7 5.8,23.5 5.7,23.3 5.6,23.2 5.5,23.1 5.6,22.9 5.6,22.8 5.5,22.6 5.4,22.4 5.3,22.3 5.2,22.2 5.3,22 5.3,21.9 5.2,21.7 5.1,21.5 5,21.4 4.9,21.3 5,21.1 5,21 4.9,20.8 4.8,20.6 4.7,20.5 4.6,20.4 4.7,20.2 4.7,20.1 4.6,19.9 4.5,19.7 4.4,19.6 4.3,19.5 4.4,19.3 4.4,19.2 4.3,19 4.3,19 4.1,18.9 4,18.8 4.1,18.6 4.1,18.5 4,18.3 4,18.1 3.8,18 3.7,17.9 3.8,17.7 3.8,17.6 3.7,17.4 3.6,17.2 3.5,17.1 3.4,17 3.5,16.8 3.5,16.7 3.4,16.5 3.3,16.3 3.2,16.2 3.1,16.1 3.2,15.9 3.2,15.8 3.1,15.6 3,15.5 2.9,15.4 2.8,15.3 Z"
           id="path1729"
           inkscape:connector-curvature="0"
           style="fill:#656565" />
        <path
           d="M 0.5,12.4 C 0.3,12.5 0.1,12.7 0.1,12.8 L 1,15.2 c 0,0.1 0.3,0.2 0.5,0.1 C 1.7,15.2 1.9,15 1.9,14.9 L 1,12.4 c 0,-0.1 -0.3,-0.1 -0.5,0 z"
           id="path1731"
           inkscape:connector-curvature="0"
           style="fill:#2d3134" />
        <path
           d="M 0.6,12.8 C 0.4,12.9 0.1,12.9 0.1,12.7 L 1,15.2 c 0,0.1 0.3,0.2 0.5,0.1 C 1.7,15.2 1.9,15 1.9,14.9 L 1,12.4 c 0,0.1 -0.1,0.3 -0.4,0.4 z"
           id="path1733"
           inkscape:connector-curvature="0"
           style="opacity:0.2" />
        <path
           d="M 42,34 16,47 v 2 l 14,7 26,-13 v -2 z"
           id="path1735"
           inkscape:connector-curvature="0"
           style="fill:#999999" />
        <path
           d="M 56,43 30,56 V 54 L 56,41 Z"
           id="path1737"
           inkscape:connector-curvature="0"
           style="opacity:0.28999999" />
        <path
           d="M 30,56 16,49 v -2 l 14,7 z"
           id="path1739"
           inkscape:connector-curvature="0"
           style="opacity:0.11000001" />
        <path
           d="M 42,20 18,32 V 47 L 30,53 54,41 V 26 Z"
           id="path1741"
           inkscape:connector-curvature="0"
           style="fill:#e5e5e5" />
        <path
           d="M 54,41 30,53 V 38 L 54,26 Z"
           id="path1743"
           inkscape:connector-curvature="0"
           style="opacity:0.28999999" />
        <path
           d="M 30,53 18,47 V 32 l 12,6 z"
           id="path1745"
           inkscape:connector-curvature="0"
           style="opacity:0.11000001" />
        <path
           d="M 43,44.5 44,44 V 32.5 L 43,33 Z"
           id="path1747"
           inkscape:connector-curvature="0"
           style="opacity:0.1" />
        <path
           d="M 38,35.5 37,36 V 47.5 L 38,47 Z"
           id="path1749"
           inkscape:connector-curvature="0"
           style="opacity:0.1" />
        <path
           d="M 36,36.5 35,37 V 48.5 L 36,48 Z"
           id="path1751"
           inkscape:connector-curvature="0"
           style="opacity:0.1" />
        <path
           d="M 33,49.5 34,49 V 37.5 L 33,38 Z"
           id="path1753"
           inkscape:connector-curvature="0"
           style="opacity:0.1" />
        <path
           d="M 42,33.5 41,34 V 45.5 L 42,45 Z"
           id="path1755"
           inkscape:connector-curvature="0"
           style="opacity:0.1" />
        <path
           d="M 40,34.5 39,35 V 46.5 L 40,46 Z"
           id="path1757"
           inkscape:connector-curvature="0"
           style="opacity:0.1" />
        <path
           d="M 51,40.5 52,40 V 28.5 L 51,29 Z"
           id="path1759"
           inkscape:connector-curvature="0"
           style="opacity:0.1" />
        <path
           d="M 46,31.5 45,32 V 43.5 L 46,43 Z"
           id="path1761"
           inkscape:connector-curvature="0"
           style="opacity:0.1" />
        <path
           d="M 50,29.5 49,30 V 41.5 L 50,41 Z"
           id="path1763"
           inkscape:connector-curvature="0"
           style="opacity:0.1" />
        <path
           d="M 48,30.5 47,31 V 42.5 L 48,42 Z"
           id="path1765"
           inkscape:connector-curvature="0"
           style="opacity:0.1" />
        <path
           d="m 20,35 -2,1 v 11 l 8,4 2,-1 V 39 Z"
           id="path1767"
           inkscape:connector-curvature="0"
           style="fill:#e5e5e5" />
        <path
           d="m 28,50 -2,1 V 40 l 2,-1 z"
           id="path1769"
           inkscape:connector-curvature="0"
           style="opacity:0.28999999" />
        <path
           d="M 26,51 18,47 V 36 l 8,4 z"
           id="path1771"
           inkscape:connector-curvature="0"
           style="opacity:0.11000001" />
        <path
           d="m 20,37 1,0.5 V 47 l -1,-0.5 z"
           id="path1773"
           inkscape:connector-curvature="0"
           style="opacity:0.1" />
        <path
           d="m 22,38 1,0.5 V 48 l -1,-0.5 z"
           id="path1775"
           inkscape:connector-curvature="0"
           style="opacity:0.1" />
        <path
           d="M 25,49 24,48.5 V 39 l 1,0.5 z"
           id="path1777"
           inkscape:connector-curvature="0"
           style="opacity:0.1" />
        <path
           d="m 43.3,16.3 c 0.7,-0.4 1.4,-0.4 1.8,-0.2 l 10.1,5.2 c 0.5,0.2 0.8,0.8 0.8,1.5 0,1.5 -1.2,3.3 -2.7,4 -0.7,0.4 -1.4,0.4 -1.9,0.2 0,0 -10.1,-5.2 -10.2,-5.3 -0.4,-0.3 -0.7,-0.8 -0.7,-1.4 0.1,-1.5 1.3,-3.3 2.8,-4 z"
           id="path1779"
           inkscape:connector-curvature="0"
           style="fill:#e5e5e5" />
        <path
           d="M 51.4,27 C 51.2,26.9 41.3,21.8 41.2,21.8 40.8,21.5 40.5,21 40.5,20.4 c 0,-0.6 0.2,-1.2 0.5,-1.8 l 10.1,5.2 c -0.3,0.6 -0.5,1.2 -0.5,1.8 0.1,0.6 0.4,1.1 0.8,1.4 z"
           id="path1781"
           inkscape:connector-curvature="0"
           style="opacity:0.11000001" />
        <path
           d="m 50.7,25.5 c 0,1.5 1.2,2.1 2.7,1.3 1.5,-0.7 2.7,-2.5 2.7,-4 0,-1.5 -1.2,-2.1 -2.7,-1.3 -1.5,0.7 -2.7,2.5 -2.7,4 z"
           id="path1783"
           inkscape:connector-curvature="0"
           style="opacity:0.28999999" />
        <path
           d="m 24.8,23.8 c 0.1,-0.1 0.2,-0.3 0.2,-0.5 0,-0.6 -0.7,-1 -1.5,-1 -0.8,0 -1.5,0.4 -1.5,1 0,0.2 0.1,0.4 0.2,0.5 -0.1,0.1 -0.2,0.3 -0.2,0.5 0,0.2 0.1,0.4 0.2,0.5 -0.1,0.1 -0.2,0.3 -0.2,0.5 0,0.2 0.1,0.3 0.2,0.5 -0.1,0.1 -0.2,0.3 -0.2,0.5 0,0.2 0.1,0.4 0.2,0.5 -0.1,0.1 -0.2,0.3 -0.2,0.5 0,0.2 0.1,0.4 0.2,0.5 -0.1,0.1 -0.2,0.3 -0.2,0.5 0,0.2 0.1,0.4 0.2,0.5 -0.1,0.1 -0.2,0.3 -0.2,0.5 0,0.2 0.1,0.4 0.2,0.5 -0.1,0.1 -0.2,0.3 -0.2,0.5 0,0.2 0.1,0.4 0.2,0.5 -0.1,0.1 -0.2,0.3 -0.2,0.5 0,0.2 0.1,0.4 0.2,0.5 -0.1,0.1 -0.2,0.3 -0.2,0.5 0,0.6 0.7,1 1.5,1 0.8,0 1.5,-0.4 1.5,-1 0,-0.2 -0.1,-0.4 -0.2,-0.5 0.1,-0.1 0.2,-0.3 0.2,-0.5 0,-0.2 -0.1,-0.4 -0.2,-0.5 0.1,-0.1 0.2,-0.3 0.2,-0.5 0,-0.2 -0.1,-0.4 -0.2,-0.5 0.1,-0.1 0.2,-0.3 0.2,-0.5 0,-0.2 -0.1,-0.4 -0.2,-0.5 0.1,-0.1 0.2,-0.3 0.2,-0.5 0,-0.2 -0.1,-0.4 -0.2,-0.5 0.1,-0.1 0.2,-0.3 0.2,-0.5 0,-0.2 -0.1,-0.4 -0.2,-0.5 0.1,-0.1 0.2,-0.3 0.2,-0.5 0,-0.2 -0.1,-0.3 -0.2,-0.5 0.1,-0.1 0.2,-0.3 0.2,-0.5 0,-0.2 -0.1,-0.4 -0.2,-0.5 0.1,-0.1 0.2,-0.3 0.2,-0.5 0,-0.2 -0.1,-0.4 -0.2,-0.5 z"
           id="path1785"
           inkscape:connector-curvature="0"
           style="fill:#656565" />
        <path
           d="M 23.5,20 C 23.2,20 23,20.1 23,20.3 v 2.9 c 0,0.1 0.2,0.3 0.5,0.3 0.3,0 0.5,-0.1 0.5,-0.3 V 20.3 C 24,20.1 23.8,20 23.5,20 Z"
           id="path1787"
           inkscape:connector-curvature="0"
           style="fill:#2d3134" />
        <path
           d="M 23.5,20.5 C 23.2,20.5 23,20.4 23,20.2 v 2.9 c 0,0.1 0.2,0.3 0.5,0.3 0.3,0 0.5,-0.1 0.5,-0.3 v -2.9 c 0,0.2 -0.2,0.3 -0.5,0.3 z"
           id="path1789"
           inkscape:connector-curvature="0"
           style="opacity:0.2" />
        <path
           d="m 40.8,15.8 c 0.1,-0.1 0.2,-0.3 0.2,-0.5 0,-0.6 -0.7,-1 -1.5,-1 -0.8,0 -1.5,0.4 -1.5,1 0,0.2 0.1,0.4 0.2,0.5 -0.1,0.1 -0.2,0.3 -0.2,0.5 0,0.2 0.1,0.4 0.2,0.5 -0.1,0.1 -0.2,0.3 -0.2,0.5 0,0.2 0.1,0.3 0.2,0.5 -0.1,0.1 -0.2,0.3 -0.2,0.5 0,0.2 0.1,0.4 0.2,0.5 -0.1,0.1 -0.2,0.3 -0.2,0.5 0,0.2 0.1,0.4 0.2,0.5 -0.1,0.1 -0.2,0.3 -0.2,0.5 0,0.2 0.1,0.4 0.2,0.5 -0.1,0.1 -0.2,0.3 -0.2,0.5 0,0.2 0.1,0.4 0.2,0.5 -0.1,0.1 -0.2,0.3 -0.2,0.5 0,0.2 0.1,0.4 0.2,0.5 -0.1,0.1 -0.2,0.3 -0.2,0.5 0,0.2 0.1,0.4 0.2,0.5 -0.1,0.1 -0.2,0.3 -0.2,0.5 0,0.6 0.7,1 1.5,1 0.8,0 1.5,-0.4 1.5,-1 0,-0.2 -0.1,-0.4 -0.2,-0.5 0.1,-0.1 0.2,-0.3 0.2,-0.5 0,-0.2 -0.1,-0.4 -0.2,-0.5 0.1,-0.1 0.2,-0.3 0.2,-0.5 0,-0.2 -0.1,-0.4 -0.2,-0.5 0.1,-0.1 0.2,-0.3 0.2,-0.5 0,-0.2 -0.1,-0.4 -0.2,-0.5 0.1,-0.1 0.2,-0.3 0.2,-0.5 0,-0.2 -0.1,-0.4 -0.2,-0.5 0.1,-0.1 0.2,-0.3 0.2,-0.5 0,-0.2 -0.1,-0.4 -0.2,-0.5 0.1,-0.1 0.2,-0.3 0.2,-0.5 0,-0.2 -0.1,-0.3 -0.2,-0.5 0.1,-0.1 0.2,-0.3 0.2,-0.5 0,-0.2 -0.1,-0.4 -0.2,-0.5 0.1,-0.1 0.2,-0.3 0.2,-0.5 0,-0.2 -0.1,-0.4 -0.2,-0.5 z"
           id="path1791"
           inkscape:connector-curvature="0"
           style="fill:#656565" />
        <path
           d="M 39.5,12 C 39.2,12 39,12.1 39,12.3 v 2.9 c 0,0.1 0.2,0.3 0.5,0.3 0.3,0 0.5,-0.1 0.5,-0.3 V 12.3 C 40,12.1 39.8,12 39.5,12 Z"
           id="path1793"
           inkscape:connector-curvature="0"
           style="fill:#2d3134" />
        <path
           d="M 39.5,12.5 C 39.2,12.5 39,12.4 39,12.2 v 2.9 c 0,0.1 0.2,0.3 0.5,0.3 0.3,0 0.5,-0.1 0.5,-0.3 v -2.9 c 0,0.2 -0.2,0.3 -0.5,0.3 z"
           id="path1795"
           inkscape:connector-curvature="0"
           style="opacity:0.2" />
        <path
           d="m 32.8,19.8 c 0.1,-0.1 0.2,-0.3 0.2,-0.5 0,-0.6 -0.7,-1 -1.5,-1 -0.8,0 -1.5,0.4 -1.5,1 0,0.2 0.1,0.4 0.2,0.5 -0.1,0.1 -0.2,0.3 -0.2,0.5 0,0.2 0.1,0.4 0.2,0.5 -0.1,0.1 -0.2,0.3 -0.2,0.5 0,0.2 0.1,0.3 0.2,0.5 -0.1,0.1 -0.2,0.3 -0.2,0.5 0,0.2 0.1,0.4 0.2,0.5 -0.1,0.1 -0.2,0.3 -0.2,0.5 0,0.2 0.1,0.4 0.2,0.5 -0.1,0.1 -0.2,0.3 -0.2,0.5 0,0.2 0.1,0.4 0.2,0.5 -0.1,0.1 -0.2,0.3 -0.2,0.5 0,0.2 0.1,0.4 0.2,0.5 -0.1,0.1 -0.2,0.3 -0.2,0.5 0,0.2 0.1,0.4 0.2,0.5 -0.1,0.1 -0.2,0.3 -0.2,0.5 0,0.2 0.1,0.4 0.2,0.5 -0.1,0.1 -0.2,0.3 -0.2,0.5 0,0.6 0.7,1 1.5,1 0.8,0 1.5,-0.4 1.5,-1 0,-0.2 -0.1,-0.4 -0.2,-0.5 0.1,-0.1 0.2,-0.3 0.2,-0.5 0,-0.2 -0.1,-0.4 -0.2,-0.5 0.1,-0.1 0.2,-0.3 0.2,-0.5 0,-0.2 -0.1,-0.4 -0.2,-0.5 0.1,-0.1 0.2,-0.3 0.2,-0.5 0,-0.2 -0.1,-0.4 -0.2,-0.5 0.1,-0.1 0.2,-0.3 0.2,-0.5 0,-0.2 -0.1,-0.4 -0.2,-0.5 0.1,-0.1 0.2,-0.3 0.2,-0.5 0,-0.2 -0.1,-0.4 -0.2,-0.5 0.1,-0.1 0.2,-0.3 0.2,-0.5 0,-0.2 -0.1,-0.3 -0.2,-0.5 0.1,-0.1 0.2,-0.3 0.2,-0.5 0,-0.2 -0.1,-0.4 -0.2,-0.5 0.1,-0.1 0.2,-0.3 0.2,-0.5 0,-0.2 -0.1,-0.4 -0.2,-0.5 z"
           id="path1797"
           inkscape:connector-curvature="0"
           style="fill:#656565" />
        <path
           d="M 31.5,16 C 31.2,16 31,16.1 31,16.3 v 2.9 c 0,0.1 0.2,0.3 0.5,0.3 0.3,0 0.5,-0.1 0.5,-0.3 V 16.3 C 32,16.1 31.8,16 31.5,16 Z"
           id="path1799"
           inkscape:connector-curvature="0"
           style="fill:#2d3134" />
        <path
           d="M 31.5,16.5 C 31.2,16.5 31,16.4 31,16.2 v 2.9 c 0,0.1 0.2,0.3 0.5,0.3 0.3,0 0.5,-0.1 0.5,-0.3 v -2.9 c 0,0.2 -0.2,0.3 -0.5,0.3 z"
           id="path1801"
           inkscape:connector-curvature="0"
           style="opacity:0.2" />
        <path
           d="m 33,31 c 0,-0.6 -0.7,-1 -1.5,-1 -0.8,0 -1.5,0.5 -1.5,1 0,0.2 0.1,0.3 0.2,0.5 -0.1,0.1 -0.2,0.3 -0.2,0.5 0,0.2 0.1,0.4 0.2,0.5 -0.1,0.1 -0.2,0.3 -0.2,0.5 0,0.2 0.1,0.4 0.2,0.5 -0.1,0.1 -0.2,0.3 -0.2,0.5 0,0.2 0.1,0.4 0.2,0.5 -0.1,0.1 -0.2,0.3 -0.2,0.5 0,0.6 0.7,1 1.5,1 0.8,0 1.5,-0.4 1.5,-1 0,-0.2 -0.1,-0.4 -0.2,-0.5 C 32.9,34.4 33,34.2 33,34 33,33.8 32.9,33.6 32.8,33.5 32.9,33.4 33,33.2 33,33 33,32.8 32.9,32.6 32.8,32.5 32.9,32.4 33,32.2 33,32 33,31.8 32.9,31.6 32.8,31.5 32.9,31.4 33,31.2 33,31 Z"
           id="path1803"
           inkscape:connector-curvature="0"
           style="fill:#656565" />
        <path
           d="m 31.5,27.6 c -0.3,0 -0.5,0.1 -0.5,0.3 v 2.9 c 0,0.1 0.2,0.3 0.5,0.3 0.3,0 0.5,-0.1 0.5,-0.3 v -2.9 c 0,-0.2 -0.2,-0.3 -0.5,-0.3 z"
           id="path1805"
           inkscape:connector-curvature="0"
           style="fill:#2d3134" />
        <path
           d="M 31.5,28.1 C 31.2,28.1 31,28 31,27.8 v 2.9 c 0,0.1 0.2,0.3 0.5,0.3 0.3,0 0.5,-0.1 0.5,-0.3 v -2.9 c 0,0.2 -0.2,0.3 -0.5,0.3 z"
           id="path1807"
           inkscape:connector-curvature="0"
           style="opacity:0.2" />
        <path
           d="m 37,29 c 0,-0.6 -0.7,-1 -1.5,-1 -0.8,0 -1.5,0.5 -1.5,1 0,0.2 0.1,0.3 0.2,0.5 -0.1,0.2 -0.2,0.3 -0.2,0.5 0,0.2 0.1,0.4 0.2,0.5 -0.1,0.2 -0.2,0.3 -0.2,0.5 0,0.2 0.1,0.4 0.2,0.5 -0.1,0.2 -0.2,0.3 -0.2,0.5 0,0.2 0.1,0.4 0.2,0.5 -0.1,0.2 -0.2,0.3 -0.2,0.5 0,0.6 0.7,1 1.5,1 0.8,0 1.5,-0.4 1.5,-1 0,-0.2 -0.1,-0.4 -0.2,-0.5 C 36.9,32.4 37,32.2 37,32 37,31.8 36.9,31.6 36.8,31.5 36.9,31.4 37,31.2 37,31 37,30.8 36.9,30.6 36.8,30.5 36.9,30.4 37,30.2 37,30 37,29.8 36.9,29.6 36.8,29.5 36.9,29.4 37,29.2 37,29 Z"
           id="path1809"
           inkscape:connector-curvature="0"
           style="fill:#656565" />
        <path
           d="m 35.5,25.6 c -0.3,0 -0.5,0.1 -0.5,0.3 v 2.9 c 0,0.1 0.2,0.3 0.5,0.3 0.3,0 0.5,-0.1 0.5,-0.3 v -2.9 c 0,-0.1 -0.2,-0.3 -0.5,-0.3 z"
           id="path1811"
           inkscape:connector-curvature="0"
           style="fill:#2d3134" />
        <path
           d="M 35.5,26.1 C 35.2,26.1 35,26 35,25.8 v 2.9 c 0,0.1 0.2,0.3 0.5,0.3 0.3,0 0.5,-0.1 0.5,-0.3 v -2.9 c 0,0.2 -0.2,0.3 -0.5,0.3 z"
           id="path1813"
           inkscape:connector-curvature="0"
           style="opacity:0.2" />
        <path
           d="m 41,27 c 0,-0.6 -0.7,-1 -1.5,-1 -0.8,0 -1.5,0.5 -1.5,1 0,0.2 0.1,0.3 0.2,0.5 -0.1,0.2 -0.2,0.3 -0.2,0.5 0,0.2 0.1,0.4 0.2,0.5 -0.1,0.2 -0.2,0.3 -0.2,0.5 0,0.2 0.1,0.4 0.2,0.5 -0.1,0.2 -0.2,0.3 -0.2,0.5 0,0.2 0.1,0.4 0.2,0.5 -0.1,0.2 -0.2,0.3 -0.2,0.5 0,0.6 0.7,1 1.5,1 0.8,0 1.5,-0.4 1.5,-1 0,-0.2 -0.1,-0.4 -0.2,-0.5 C 40.9,30.4 41,30.2 41,30 41,29.8 40.9,29.6 40.8,29.5 40.9,29.4 41,29.2 41,29 41,28.8 40.9,28.6 40.8,28.5 40.9,28.4 41,28.2 41,28 41,27.8 40.9,27.6 40.8,27.5 40.9,27.4 41,27.2 41,27 Z"
           id="path1815"
           inkscape:connector-curvature="0"
           style="fill:#656565" />
        <path
           d="m 39.5,23.6 c -0.3,0 -0.5,0.1 -0.5,0.3 v 2.9 c 0,0.1 0.2,0.3 0.5,0.3 0.3,0 0.5,-0.1 0.5,-0.3 v -2.9 c 0,-0.1 -0.2,-0.3 -0.5,-0.3 z"
           id="path1817"
           inkscape:connector-curvature="0"
           style="fill:#2d3134" />
        <path
           d="M 39.5,24.1 C 39.2,24.1 39,24 39,23.8 v 2.9 c 0,0.1 0.2,0.3 0.5,0.3 0.3,0 0.5,-0.1 0.5,-0.3 v -2.9 c 0,0.2 -0.2,0.3 -0.5,0.3 z"
           id="path1819"
           inkscape:connector-curvature="0"
           style="opacity:0.2" />
        <path
           d="m 45,25 c 0,-0.6 -0.7,-1 -1.5,-1 -0.8,0 -1.5,0.5 -1.5,1 0,0.2 0.1,0.3 0.2,0.5 -0.1,0.1 -0.2,0.3 -0.2,0.5 0,0.2 0.1,0.4 0.2,0.5 -0.1,0.1 -0.2,0.3 -0.2,0.5 0,0.2 0.1,0.4 0.2,0.5 -0.1,0.1 -0.2,0.3 -0.2,0.5 0,0.2 0.1,0.4 0.2,0.5 -0.1,0.1 -0.2,0.3 -0.2,0.5 0,0.6 0.7,1 1.5,1 0.8,0 1.5,-0.4 1.5,-1 0,-0.2 -0.1,-0.4 -0.2,-0.5 C 44.9,28.4 45,28.2 45,28 45,27.8 44.9,27.6 44.8,27.5 44.9,27.4 45,27.2 45,27 45,26.8 44.9,26.6 44.8,26.5 44.9,26.4 45,26.2 45,26 45,25.8 44.9,25.6 44.8,25.5 44.9,25.4 45,25.2 45,25 Z"
           id="path1821"
           inkscape:connector-curvature="0"
           style="fill:#656565" />
        <path
           d="m 43.5,21.6 c -0.3,0 -0.5,0.1 -0.5,0.3 v 2.9 c 0,0.1 0.2,0.3 0.5,0.3 0.3,0 0.5,-0.1 0.5,-0.3 v -2.9 c 0,-0.2 -0.2,-0.3 -0.5,-0.3 z"
           id="path1823"
           inkscape:connector-curvature="0"
           style="fill:#2d3134" />
        <path
           d="M 43.5,22.1 C 43.2,22.1 43,22 43,21.8 v 2.9 c 0,0.1 0.2,0.3 0.5,0.3 0.3,0 0.5,-0.1 0.5,-0.3 v -2.9 c 0,0.2 -0.2,0.3 -0.5,0.3 z"
           id="path1825"
           inkscape:connector-curvature="0"
           style="opacity:0.2" />
      </g>
    </g>
  </g>
  <g
     id="selection-layer"
     transform="matrix(0.57434918,0,0,0.57434918,328.35458,-66.657388)" />
  <g
     id="global-selection-layer"
     transform="matrix(0.57434918,0,0,0.57434918,328.35458,-66.657388)" />
</svg>
