<?xml version="1.0" encoding="UTF-8" standalone="no"?>
<!-- Created with Inkscape (http://www.inkscape.org/) -->

<svg
   xmlns:dc="http://purl.org/dc/elements/1.1/"
   xmlns:cc="http://creativecommons.org/ns#"
   xmlns:rdf="http://www.w3.org/1999/02/22-rdf-syntax-ns#"
   xmlns:svg="http://www.w3.org/2000/svg"
   xmlns="http://www.w3.org/2000/svg"
   xmlns:sodipodi="http://sodipodi.sourceforge.net/DTD/sodipodi-0.dtd"
   xmlns:inkscape="http://www.inkscape.org/namespaces/inkscape"
   width="148.54022mm"
   height="188.91005mm"
   viewBox="0 0 148.54022 188.91005"
   version="1.1"
   id="svg581"
   inkscape:version="0.92.2 (5c3e80d, 2017-08-06)"
   sodipodi:docname="pipes-.svg">
  <defs
     id="defs575" />
  <sodipodi:namedview
     id="base"
     pagecolor="#ffffff"
     bordercolor="#666666"
     borderopacity="1.0"
     inkscape:pageopacity="0.0"
     inkscape:pageshadow="2"
     inkscape:zoom="0.5037107"
     inkscape:cx="241.58881"
     inkscape:cy="539.07359"
     inkscape:document-units="mm"
     inkscape:current-layer="svg581"
     showgrid="false"
     inkscape:window-width="1360"
     inkscape:window-height="706"
     inkscape:window-x="-8"
     inkscape:window-y="-8"
     inkscape:window-maximized="1"
     fit-margin-top="0"
     fit-margin-left="0"
     fit-margin-right="0"
     fit-margin-bottom="0" />
  <metadata
     id="metadata578">
    <rdf:RDF>
      <cc:Work
         rdf:about="">
        <dc:format>image/svg+xml</dc:format>
        <dc:type
           rdf:resource="http://purl.org/dc/dcmitype/StillImage" />
        <dc:title></dc:title>
      </cc:Work>
    </rdf:RDF>
  </metadata>
  <g
     inkscape:label="Layer 1"
     inkscape:groupmode="layer"
     id="layer1"
     transform="translate(126.20653,-289.55279)" />
  <g
     id="chart-container"
     transform="matrix(0.37892914,0,0,0.37892914,-3.0314331,-7.2426242)">
    <g
       transform="translate(8,16)"
       class="top-level-node"
       id="i426">
      <g
         id="g36">
        <g
           id="g34">
          <path
             style="fill:#999999"
             inkscape:connector-curvature="0"
             id="path20"
             d="m 15.7,4.6 -2,-1 C 12.2,2.8 10.2,3 8,4.1 3.6,6.3 0,11.7 0,16.1 0,18.4 1,20 2.6,20.7 l 1.5,0.8 c 1.5,0.9 3.6,0.8 5.9,-0.3 4.4,-2.2 8,-7.6 8,-12 0,-2.4 -0.9,-3.9 -2.3,-4.6 z" />
          <path
             style="opacity:0.2"
             inkscape:connector-curvature="0"
             id="path22"
             d="m 18,9.1 c 0,4.4 -3.6,9.8 -8,12 -4.4,2.2 -8,0.4 -8,-4 0,-4.4 3.6,-9.8 8,-12 4.4,-2.2 8,-0.5 8,4 z" />
          <path
             style="fill:#999999"
             inkscape:connector-curvature="0"
             id="path24"
             d="m 56.6,27.1 -42,-21 C 13.4,5.5 11.8,5.6 10,6.5 6.4,8.3 3.5,12.7 3.5,16.2 c 0,1.9 0.8,3.2 2.1,3.7 l 41.7,20.8 z" />
          <path
             style="opacity:0.1"
             inkscape:connector-curvature="0"
             id="path26"
             d="m 56.6,27.1 -42,-21 C 13.4,5.5 11.8,5.6 10,6.5 6.4,8.3 3.5,12.7 3.5,16.2 c 0,1.9 0.8,3.2 2.1,3.7 l 41.7,20.8 z" />
          <path
             style="fill:#999999"
             inkscape:connector-curvature="0"
             id="path28"
             d="m 61.7,27.6 -2,-1 C 58.3,25.9 56.3,26 54,27.1 c -4.4,2.2 -8,7.6 -8,12 0,2.3 1,3.9 2.6,4.6 l 1.5,0.8 c 1.5,0.9 3.6,0.8 5.9,-0.3 4.4,-2.2 8,-7.6 8,-12 0,-2.4 -0.9,-3.9 -2.3,-4.6 z" />
          <path
             style="opacity:0.2"
             inkscape:connector-curvature="0"
             id="path30"
             d="m 64,32.1 c 0,4.4 -3.6,9.8 -8,12 -4.4,2.2 -8,0.4 -8,-4 0,-4.4 3.6,-9.8 8,-12 4.4,-2.2 8,-0.5 8,4 z" />
          <path
             style="opacity:0.2"
             inkscape:connector-curvature="0"
             id="path32"
             d="m 62.5,32.8 c 0,3.6 -2.9,8 -6.5,9.7 -3.6,1.8 -6.5,0.3 -6.5,-3.3 0,-3.6 2.9,-8 6.5,-9.7 3.6,-1.7 6.5,-0.3 6.5,3.3 z" />
        </g>
      </g>
    </g>
    <g
       transform="translate(96,24)"
       class="top-level-node"
       id="i427">
      <g
         id="g55">
        <g
           id="g53">
          <path
             style="fill:#999999"
             inkscape:connector-curvature="0"
             id="path39"
             d="m 48.3,4.6 2,-1 C 51.8,2.8 53.8,3 56,4.1 c 4.4,2.2 8,7.6 8,12 0,2.3 -1,3.9 -2.6,4.6 l -1.5,0.8 C 58.4,22.4 56.3,22.3 54,21.2 49.6,19 46,13.6 46,9.2 46,6.8 46.9,5.3 48.3,4.6 Z" />
          <path
             style="opacity:0.2"
             inkscape:connector-curvature="0"
             id="path41"
             d="m 46,9.1 c 0,4.4 3.6,9.8 8,12 4.4,2.2 8,0.4 8,-4 0,-4.4 -3.6,-9.8 -8,-12 -4.4,-2.2 -8,-0.5 -8,4 z" />
          <path
             style="fill:#999999"
             inkscape:connector-curvature="0"
             id="path43"
             d="m 7.4,27.1 42,-21 c 1.2,-0.6 2.8,-0.5 4.6,0.4 3.6,1.8 6.5,6.2 6.5,9.7 0,1.9 -0.8,3.2 -2.1,3.7 l -41.7,21 z" />
          <path
             style="opacity:0.1"
             inkscape:connector-curvature="0"
             id="path45"
             d="m 7.4,27.1 42,-21 c 1.2,-0.6 2.8,-0.5 4.6,0.4 3.6,1.8 6.5,6.2 6.5,9.7 0,1.9 -0.8,3.2 -2.1,3.7 l -41.7,21 z" />
          <path
             style="fill:#999999"
             inkscape:connector-curvature="0"
             id="path47"
             d="m 2.3,27.6 2,-1 c 1.4,-0.7 3.4,-0.6 5.7,0.5 4.4,2.2 8,7.6 8,12 0,2.3 -1,3.9 -2.6,4.6 l -1.5,0.8 C 12.4,45.4 10.3,45.3 8,44.2 3.6,42 0,36.6 0,32.2 0,29.8 0.9,28.3 2.3,27.6 Z" />
          <path
             style="opacity:0.2"
             inkscape:connector-curvature="0"
             id="path49"
             d="m 0,32.1 c 0,4.4 3.6,9.8 8,12 4.4,2.2 8,0.4 8,-4 0,-4.4 -3.6,-9.8 -8,-12 -4.4,-2.2 -8,-0.5 -8,4 z" />
          <path
             style="opacity:0.2"
             inkscape:connector-curvature="0"
             id="path51"
             d="m 1.5,32.8 c 0,3.6 2.9,8 6.5,9.7 3.6,1.8 6.5,0.3 6.5,-3.3 0,-3.6 -2.9,-8 -6.5,-9.7 -3.6,-1.7 -6.5,-0.3 -6.5,3.3 z" />
        </g>
      </g>
    </g>
    <g
       transform="translate(192,24)"
       class="top-level-node"
       id="i428">
      <g
         id="g76">
        <g
           id="g74">
          <path
             style="fill:#999999"
             inkscape:connector-curvature="0"
             id="path58"
             d="m 7.4,11 9.3,13.7 13.9,-6.9 c 0.9,-0.4 1.9,-0.4 2.7,0 L 47.2,24.7 56.6,11 39.9,2.9 C 35,0.4 29.1,0.4 24.2,2.9 Z" />
          <path
             style="opacity:0.1"
             inkscape:connector-curvature="0"
             id="path60"
             d="m 7.4,11 9.3,13.7 13.9,-6.9 c 0.9,-0.4 1.9,-0.4 2.7,0 L 47.2,24.7 56.6,11 39.9,2.9 C 35,0.4 29.1,0.4 24.2,2.9 Z" />
          <path
             style="fill:#999999"
             inkscape:connector-curvature="0"
             id="path62"
             d="m 61.7,11.5 -2,-1 C 58.3,9.8 56.3,9.9 54,11 c -4.4,2.2 -8,7.6 -8,12 0,2.3 1,3.9 2.6,4.6 l 1.5,0.8 c 1.5,0.9 3.6,0.8 5.9,-0.3 4.4,-2.2 8,-7.6 8,-12 0,-2.4 -0.9,-3.9 -2.3,-4.6 z" />
          <path
             style="opacity:0.2"
             inkscape:connector-curvature="0"
             id="path64"
             d="m 64,15.9 c 0,4.4 -3.6,9.8 -8,12 -4.4,2.2 -8,0.4 -8,-4 0,-4.4 3.6,-9.8 8,-12 4.4,-2.2 8,-0.4 8,4 z" />
          <path
             style="opacity:0.2"
             inkscape:connector-curvature="0"
             id="path66"
             d="m 62.5,16.7 c 0,3.6 -2.9,8 -6.5,9.7 -3.6,1.8 -6.5,0.3 -6.5,-3.3 0,-3.6 2.9,-8 6.5,-9.7 3.6,-1.7 6.5,-0.3 6.5,3.3 z" />
          <path
             style="fill:#999999"
             inkscape:connector-curvature="0"
             id="path68"
             d="m 2.3,11.5 2,-1 C 5.7,9.8 7.7,9.9 10,11 c 4.4,2.2 8,7.6 8,12 0,2.3 -1,3.9 -2.6,4.6 l -1.5,0.8 C 12.4,29.3 10.3,29.2 8,28.1 3.6,25.9 0,20.5 0,16.1 0,13.7 0.9,12.2 2.3,11.5 Z" />
          <path
             style="opacity:0.2"
             inkscape:connector-curvature="0"
             id="path70"
             d="m 0,15.9 c 0,4.4 3.6,9.8 8,12 4.4,2.2 8,0.4 8,-4 0,-4.4 -3.6,-9.8 -8,-12 -4.4,-2.2 -8,-0.4 -8,4 z" />
          <path
             style="opacity:0.2"
             inkscape:connector-curvature="0"
             id="path72"
             d="m 1.5,16.7 c 0,3.6 2.9,8 6.5,9.7 3.6,1.8 6.5,0.3 6.5,-3.3 0,-3.6 -2.9,-8 -6.5,-9.7 -3.6,-1.7 -6.5,-0.3 -6.5,3.3 z" />
        </g>
      </g>
    </g>
    <g
       transform="translate(280,32)"
       class="top-level-node"
       id="i429">
      <g
         id="g93">
        <g
           id="g91">
          <path
             style="fill:#999999"
             inkscape:connector-curvature="0"
             id="path79"
             d="m 15.7,4.6 -2,-1 C 12.2,2.8 10.2,3 8,4.1 3.6,6.3 0,11.7 0,16.1 0,18.4 1,20 2.6,20.7 l 1.5,0.8 c 1.5,0.9 3.6,0.8 5.9,-0.3 4.4,-2.2 8,-7.6 8,-12 0,-2.4 -0.9,-3.9 -2.3,-4.6 z" />
          <path
             style="opacity:0.2"
             inkscape:connector-curvature="0"
             id="path81"
             d="m 18,9.1 c 0,4.4 -3.6,9.8 -8,12 -4.4,2.2 -8,0.4 -8,-4 0,-4.4 3.6,-9.8 8,-12 4.4,-2.2 8,-0.5 8,4 z" />
          <path
             style="fill:#999999"
             inkscape:connector-curvature="0"
             id="path83"
             d="m 48.3,4.6 2,-1 C 51.8,2.8 53.8,3 56,4.1 c 4.4,2.2 8,7.6 8,12 0,2.3 -1,3.9 -2.6,4.6 l -1.5,0.8 C 58.4,22.4 56.3,22.3 54,21.2 49.6,19 46,13.6 46,9.2 46,6.8 46.9,5.3 48.3,4.6 Z" />
          <path
             style="opacity:0.2"
             inkscape:connector-curvature="0"
             id="path85"
             d="m 46,9.1 c 0,4.4 3.6,9.8 8,12 4.4,2.2 8,0.4 8,-4 0,-4.4 -3.6,-9.8 -8,-12 -4.4,-2.2 -8,-0.5 -8,4 z" />
          <path
             style="fill:#999999"
             inkscape:connector-curvature="0"
             id="path87"
             d="M 54,6.6 C 52.2,5.7 50.6,5.6 49.4,6.2 l -14.9,7.4 c -1.6,0.8 -3.5,0.8 -5.1,0 L 14.6,6.2 C 13.4,5.6 11.8,5.7 10,6.6 6.4,8.4 3.5,12.8 3.5,16.3 c 0,1.9 0.8,3.2 2.1,3.7 l 18.3,9.1 C 29,31.6 35,31.6 40,29.1 L 58.4,20 c 1.3,-0.5 2.1,-1.8 2.1,-3.7 0,-3.6 -2.9,-8 -6.5,-9.7 z" />
          <path
             style="opacity:0.1"
             inkscape:connector-curvature="0"
             id="path89"
             d="M 54,6.6 C 52.2,5.7 50.6,5.6 49.4,6.2 l -14.9,7.4 c -1.6,0.8 -3.5,0.8 -5.1,0 L 14.6,6.2 C 13.4,5.6 11.8,5.7 10,6.6 6.4,8.4 3.5,12.8 3.5,16.3 c 0,1.9 0.8,3.2 2.1,3.7 l 18.3,9.1 C 29,31.6 35,31.6 40,29.1 L 58.4,20 c 1.3,-0.5 2.1,-1.8 2.1,-3.7 0,-3.6 -2.9,-8 -6.5,-9.7 z" />
        </g>
      </g>
    </g>
    <g
       transform="translate(32,88)"
       class="top-level-node"
       id="i430">
      <g
         id="g112">
        <g
           id="g110">
          <path
             style="fill:#999999"
             inkscape:connector-curvature="0"
             id="path96"
             d="m 15.7,4.5 -2,-1 C 12.2,2.7 10.2,2.8 8,3.9 c -4.4,2.2 -8,7.6 -8,12 0,2.3 1,3.9 2.6,4.6 l 1.5,0.8 C 5.6,22.2 7.7,22.1 10,21 14.4,18.8 18,13.4 18,9 18,6.7 17.1,5.2 15.7,4.5 Z" />
          <path
             style="opacity:0.2"
             inkscape:connector-curvature="0"
             id="path98"
             d="m 18,8.9 c 0,4.4 -3.6,9.8 -8,12 -4.4,2.2 -8,0.4 -8,-4 0,-4.4 3.6,-9.8 8,-12 4.4,-2.2 8,-0.4 8,4 z" />
          <path
             style="fill:#999999"
             inkscape:connector-curvature="0"
             id="path100"
             d="M 32.6,15 14.6,6 C 13.4,5.4 11.8,5.5 10,6.4 6.4,8.2 3.5,12.6 3.5,16.1 c 0,1.9 0.8,3.2 2.1,3.7 l 6.3,3.1 c 0.7,0.4 0.7,1.4 0,1.8 L 7.4,27 16.7,40.7 c 0,0 18.3,-9.2 18.6,-9.4 5.2,-3.4 3.9,-12.9 -2.7,-16.3 z" />
          <path
             style="opacity:0.1"
             inkscape:connector-curvature="0"
             id="path102"
             d="M 32.6,15 14.6,6 C 13.4,5.4 11.8,5.5 10,6.4 6.4,8.2 3.5,12.6 3.5,16.1 c 0,1.9 0.8,3.2 2.1,3.7 l 6.3,3.1 c 0.7,0.4 0.7,1.4 0,1.8 L 7.4,27 16.7,40.7 c 0,0 18.3,-9.2 18.6,-9.4 5.2,-3.4 3.9,-12.9 -2.7,-16.3 z" />
          <path
             style="fill:#999999"
             inkscape:connector-curvature="0"
             id="path104"
             d="m 2.3,27.5 2,-1 c 1.4,-0.7 3.4,-0.6 5.7,0.5 4.4,2.2 8,7.6 8,12 0,2.3 -1,3.9 -2.6,4.6 l -1.5,0.8 C 12.4,45.3 10.3,45.2 8,44.1 3.6,41.9 0,36.5 0,32.1 0,29.7 0.9,28.2 2.3,27.5 Z" />
          <path
             style="opacity:0.2"
             inkscape:connector-curvature="0"
             id="path106"
             d="m 0,31.9 c 0,4.4 3.6,9.8 8,12 4.4,2.2 8,0.4 8,-4 0,-4.4 -3.6,-9.8 -8,-12 -4.4,-2.2 -8,-0.4 -8,4 z" />
          <path
             style="opacity:0.2"
             inkscape:connector-curvature="0"
             id="path108"
             d="m 1.5,32.7 c 0,3.6 2.9,8 6.5,9.7 3.6,1.7 6.5,0.3 6.5,-3.3 0,-3.6 -2.9,-8 -6.5,-9.7 -3.6,-1.7 -6.5,-0.3 -6.5,3.3 z" />
        </g>
      </g>
    </g>
    <g
       transform="translate(112,80)"
       class="top-level-node"
       id="i431">
      <g
         id="g131">
        <g
           id="g129">
          <path
             style="fill:#999999"
             inkscape:connector-curvature="0"
             id="path115"
             d="m 24.3,4.5 2,-1 C 27.7,2.8 29.7,2.9 32,4 c 4.4,2.2 8,7.6 8,12 0,2.3 -1,3.9 -2.6,4.6 l -1.5,0.8 c -1.5,0.9 -3.6,0.8 -5.9,-0.3 -4.4,-2.2 -8,-7.6 -8,-12 0,-2.4 0.9,-3.9 2.3,-4.6 z" />
          <path
             style="opacity:0.2"
             inkscape:connector-curvature="0"
             id="path117"
             d="m 22,8.9 c 0,4.4 3.6,9.8 8,12 4.4,2.2 8,0.4 8,-4 0,-4.4 -3.6,-9.8 -8,-12 -4.4,-2.2 -8,-0.4 -8,4 z" />
          <path
             style="fill:#999999"
             inkscape:connector-curvature="0"
             id="path119"
             d="m 7.4,15 18,-9 c 1.2,-0.6 2.8,-0.5 4.6,0.4 3.6,1.8 6.5,6.2 6.5,9.7 0,1.9 -0.8,3.2 -2.1,3.7 L 28.1,23 c -0.7,0.4 -0.7,1.4 0,1.8 L 32.5,27 23.2,40.7 C 23.2,40.7 4.9,31.5 4.6,31.3 -0.5,27.9 0.8,18.4 7.4,15 Z" />
          <path
             style="opacity:0.1"
             inkscape:connector-curvature="0"
             id="path121"
             d="m 7.4,15 18,-9 c 1.2,-0.6 2.8,-0.5 4.6,0.4 3.6,1.8 6.5,6.2 6.5,9.7 0,1.9 -0.8,3.2 -2.1,3.7 L 28.1,23 c -0.7,0.4 -0.7,1.4 0,1.8 L 32.5,27 23.2,40.7 C 23.2,40.7 4.9,31.5 4.6,31.3 -0.5,27.9 0.8,18.4 7.4,15 Z" />
          <path
             style="fill:#999999"
             inkscape:connector-curvature="0"
             id="path123"
             d="m 37.7,27.5 -2,-1 C 34.3,25.8 32.3,25.9 30,27 c -4.4,2.2 -8,7.6 -8,12 0,2.3 1,3.9 2.6,4.6 l 1.5,0.8 c 1.5,0.9 3.6,0.8 5.9,-0.3 4.4,-2.2 8,-7.6 8,-12 0,-2.4 -0.9,-3.9 -2.3,-4.6 z" />
          <path
             style="opacity:0.2"
             inkscape:connector-curvature="0"
             id="path125"
             d="m 40,31.9 c 0,4.4 -3.6,9.8 -8,12 -4.4,2.2 -8,0.4 -8,-4 0,-4.4 3.6,-9.8 8,-12 4.4,-2.2 8,-0.4 8,4 z" />
          <path
             style="opacity:0.2"
             inkscape:connector-curvature="0"
             id="path127"
             d="m 38.5,32.7 c 0,3.6 -2.9,8 -6.5,9.7 -3.6,1.7 -6.5,0.3 -6.5,-3.3 0,-3.6 2.9,-8 6.5,-9.7 3.6,-1.7 6.5,-0.3 6.5,3.3 z" />
        </g>
      </g>
    </g>
    <g
       transform="translate(208,72)"
       class="top-level-node"
       id="i432">
      <g
         id="g150">
        <g
           id="g148">
          <path
             style="fill:#999999"
             inkscape:connector-curvature="0"
             id="path134"
             d="M 24,50 C 19.6,47.8 12.4,47.8 8,50 5.8,51.1 4.7,52.6 4.7,54 v 2 c 0,1.4 1.1,2.9 3.3,4 4.4,2.2 11.6,2.2 16,0 2.2,-1.1 3.3,-2.6 3.3,-4 v -2 c 0,-1.4 -1.1,-2.9 -3.3,-4 z" />
          <path
             style="opacity:0.1"
             inkscape:connector-curvature="0"
             id="path136"
             d="M 24,58 C 19.6,60.2 12.4,60.2 8,58 5.8,56.9 4.7,55.4 4.7,54 v 2 c 0,1.4 1.1,2.9 3.3,4 4.4,2.2 11.6,2.2 16,0 2.2,-1.1 3.3,-2.6 3.3,-4 v -2 c 0,1.4 -1.1,2.9 -3.3,4 z" />
          <path
             style="fill:#999999"
             inkscape:connector-curvature="0"
             id="path138"
             d="m 7,8 v 46 c 0,1.2 0.9,2.3 2.6,3.2 3.5,1.8 9.2,1.8 12.7,0 1.8,-0.9 2.6,-2 2.6,-3.2 V 8 Z" />
          <path
             style="opacity:0.2"
             inkscape:connector-curvature="0"
             id="path140"
             d="m 7,8 v 46 c 0,1.2 0.9,2.3 2.6,3.2 3.5,1.8 9.2,1.8 12.7,0 1.8,-0.9 2.6,-2 2.6,-3.2 V 8 Z" />
          <path
             style="fill:#999999"
             inkscape:connector-curvature="0"
             id="path142"
             d="M 24,4 C 19.6,1.8 12.4,1.8 8,4 5.8,5.1 4.7,6.6 4.7,8 v 2 c 0,1.4 1.1,2.9 3.3,4 4.4,2.2 11.6,2.2 16,0 2.2,-1.1 3.3,-2.6 3.3,-4 V 8 C 27.3,6.6 26.2,5.1 24,4 Z" />
          <path
             style="opacity:0.3"
             inkscape:connector-curvature="0"
             id="path144"
             d="m 22.4,4.8 c 3.5,1.8 3.5,4.6 0,6.4 C 18.9,13 13.2,13 9.7,11.2 6.2,9.4 6.2,6.6 9.7,4.8 13.2,3 18.8,3.1 22.4,4.8 Z" />
          <path
             style="opacity:0.1"
             inkscape:connector-curvature="0"
             id="path146"
             d="M 24,12 C 19.6,14.2 12.4,14.2 8,12 5.8,10.9 4.7,9.4 4.7,8 v 2 c 0,1.4 1.1,2.9 3.3,4 4.4,2.2 11.6,2.2 16,0 2.2,-1.1 3.3,-2.6 3.3,-4 V 8 c 0,1.4 -1.1,2.9 -3.3,4 z" />
        </g>
      </g>
    </g>
    <g
       transform="translate(272,88)"
       class="top-level-node"
       id="i433">
      <g
         id="g167">
        <g
           id="g165">
          <path
             style="fill:#999999"
             inkscape:connector-curvature="0"
             id="path153"
             d="m 15.7,4.6 -2,-1 C 12.2,2.8 10.2,3 8,4.1 3.6,6.3 0,11.7 0,16.1 0,18.4 1,20 2.6,20.7 l 1.5,0.8 c 1.5,0.9 3.6,0.8 5.9,-0.3 4.4,-2.2 8,-7.6 8,-12 0,-2.4 -0.9,-3.9 -2.3,-4.6 z" />
          <path
             style="opacity:0.2"
             inkscape:connector-curvature="0"
             id="path155"
             d="m 18,9.1 c 0,4.4 -3.6,9.8 -8,12 -4.4,2.2 -8,0.4 -8,-4 0,-4.4 3.6,-9.8 8,-12 4.4,-2.2 8,-0.5 8,4 z" />
          <path
             style="fill:#999999"
             inkscape:connector-curvature="0"
             id="path157"
             d="m 40,42 c -4.4,-2.2 -11.6,-2.2 -16,0 -2.2,1.1 -3.3,2.6 -3.3,4 v 2 c 0,1.4 1.1,2.9 3.3,4 4.4,2.2 11.6,2.2 16,0 2.2,-1.1 3.3,-2.6 3.3,-4 v -2 c 0,-1.4 -1.1,-2.9 -3.3,-4 z" />
          <path
             style="opacity:0.1"
             inkscape:connector-curvature="0"
             id="path159"
             d="m 40,50 c -4.4,2.2 -11.6,2.2 -16,0 -2.2,-1.1 -3.3,-2.6 -3.3,-4 v 2 c 0,1.4 1.1,2.9 3.3,4 4.4,2.2 11.6,2.2 16,0 2.2,-1.1 3.3,-2.6 3.3,-4 v -2 c 0,1.4 -1.1,2.9 -3.3,4 z" />
          <path
             style="fill:#999999"
             inkscape:connector-curvature="0"
             id="path161"
             d="M 14.6,6.2 C 13.4,5.6 11.8,5.7 10,6.6 6.4,8.4 3.5,12.8 3.5,16.3 c 0,1.9 0.8,3.2 2.1,3.7 l 13.2,6.6 c 2.6,1.3 4.2,3.9 4.2,6.8 V 46 c 0,1.7 1.8,3.3 5.4,4.2 2.3,0.5 4.8,0.5 7.1,0 3.6,-0.8 5.4,-2.5 5.4,-4.2 V 28.5 c 0,-5.8 -3.3,-11.1 -8.5,-13.7 z" />
          <path
             style="opacity:0.15"
             inkscape:connector-curvature="0"
             id="path163"
             d="M 14.6,6.2 C 13.4,5.6 11.8,5.7 10,6.6 6.4,8.4 3.5,12.8 3.5,16.3 c 0,1.9 0.8,3.2 2.1,3.7 l 13.2,6.6 c 2.6,1.3 4.2,3.9 4.2,6.8 V 46 c 0,1.7 1.8,3.3 5.4,4.2 2.3,0.5 4.8,0.5 7.1,0 3.6,-0.8 5.4,-2.5 5.4,-4.2 V 28.5 c 0,-5.8 -3.3,-11.1 -8.5,-13.7 z" />
        </g>
      </g>
    </g>
    <g
       transform="translate(352,96)"
       class="top-level-node"
       id="i434">
      <g
         id="g188">
        <g
           id="g186">
          <path
             style="fill:#999999"
             inkscape:connector-curvature="0"
             id="path170"
             d="M 40.6,35.1 27.9,28.7 C 26.2,27.8 25,26 25,24.1 V 8 H 7 v 19.5 c 0,5.7 3.2,10.9 8.3,13.4 l 16,8 z" />
          <path
             style="opacity:0.15"
             inkscape:connector-curvature="0"
             id="path172"
             d="M 40.6,35.1 27.9,28.7 C 26.2,27.8 25,26 25,24.1 V 8 H 7 v 19.5 c 0,5.7 3.2,10.9 8.3,13.4 l 16,8 z" />
          <path
             style="fill:#999999"
             inkscape:connector-curvature="0"
             id="path174"
             d="M 24,4 C 19.6,1.8 12.4,1.8 8,4 5.8,5.1 4.7,6.6 4.7,8 v 2 c 0,1.4 1.1,2.9 3.3,4 4.4,2.2 11.6,2.2 16,0 2.2,-1.1 3.3,-2.6 3.3,-4 V 8 C 27.3,6.6 26.2,5.1 24,4 Z" />
          <path
             style="opacity:0.3"
             inkscape:connector-curvature="0"
             id="path176"
             d="m 22.4,4.8 c 3.5,1.8 3.5,4.6 0,6.4 C 18.9,13 13.2,13 9.7,11.2 6.2,9.4 6.2,6.6 9.7,4.8 13.2,3 18.8,3.1 22.4,4.8 Z" />
          <path
             style="opacity:0.1"
             inkscape:connector-curvature="0"
             id="path178"
             d="M 24,12 C 19.6,14.2 12.4,14.2 8,12 5.8,10.9 4.7,9.4 4.7,8 v 2 c 0,1.4 1.1,2.9 3.3,4 4.4,2.2 11.6,2.2 16,0 2.2,-1.1 3.3,-2.6 3.3,-4 V 8 c 0,1.4 -1.1,2.9 -3.3,4 z" />
          <path
             style="fill:#999999"
             inkscape:connector-curvature="0"
             id="path180"
             d="m 45.7,35.6 -2,-1 C 42.3,33.9 40.3,34 38,35.1 c -4.4,2.2 -8,7.6 -8,12 0,2.3 1,3.9 2.6,4.6 l 1.5,0.8 c 1.5,0.9 3.6,0.8 5.9,-0.3 4.4,-2.2 8,-7.6 8,-12 0,-2.4 -0.9,-3.9 -2.3,-4.6 z" />
          <path
             style="opacity:0.2"
             inkscape:connector-curvature="0"
             id="path182"
             d="m 48,40.1 c 0,4.4 -3.6,9.8 -8,12 -4.4,2.2 -8,0.4 -8,-4 0,-4.4 3.6,-9.8 8,-12 4.4,-2.2 8,-0.5 8,4 z" />
          <path
             style="opacity:0.2"
             inkscape:connector-curvature="0"
             id="path184"
             d="m 46.5,40.8 c 0,3.6 -2.9,8 -6.5,9.7 -3.6,1.8 -6.5,0.3 -6.5,-3.3 0,-3.6 2.9,-8 6.5,-9.7 3.6,-1.7 6.5,-0.3 6.5,3.3 z" />
        </g>
      </g>
    </g>
    <g
       transform="translate(16,168)"
       class="top-level-node"
       id="i435">
      <g
         id="g207">
        <g
           id="g205">
          <path
             style="fill:#999999"
             inkscape:connector-curvature="0"
             id="path191"
             d="M 24,34 C 19.6,31.8 12.4,31.8 8,34 5.8,35.1 4.7,36.6 4.7,38 v 2 c 0,1.4 1.1,2.9 3.3,4 4.4,2.2 11.6,2.2 16,0 2.2,-1.1 3.3,-2.6 3.3,-4 v -2 c 0,-1.4 -1.1,-2.9 -3.3,-4 z" />
          <path
             style="opacity:0.1"
             inkscape:connector-curvature="0"
             id="path193"
             d="M 24,42 C 19.6,44.2 12.4,44.2 8,42 5.8,40.9 4.7,39.4 4.7,38 v 2 c 0,1.4 1.1,2.9 3.3,4 4.4,2.2 11.6,2.2 16,0 2.2,-1.1 3.3,-2.6 3.3,-4 v -2 c 0,1.4 -1.1,2.9 -3.3,4 z" />
          <path
             style="fill:#999999"
             inkscape:connector-curvature="0"
             id="path195"
             d="M 40.6,19.1 21,9.4 C 14.6,6.1 7,10.8 7,18 v 20 c 0,1.7 1.8,3.3 5.4,4.2 2.3,0.5 4.8,0.5 7.1,0 3.6,-0.8 5.4,-2.5 5.4,-4.2 v -5 c 0,-1.5 1.6,-2.5 2.9,-1.8 l 3.4,1.7 z" />
          <path
             style="opacity:0.15"
             inkscape:connector-curvature="0"
             id="path197"
             d="M 40.6,19.1 21,9.4 C 14.6,6.1 7,10.8 7,18 v 20 c 0,1.7 1.8,3.3 5.4,4.2 2.3,0.5 4.8,0.5 7.1,0 3.6,-0.8 5.4,-2.5 5.4,-4.2 v -5 c 0,-1.5 1.6,-2.5 2.9,-1.8 l 3.4,1.7 z" />
          <path
             style="fill:#999999"
             inkscape:connector-curvature="0"
             id="path199"
             d="m 45.7,19.6 -2,-1 C 42.3,17.9 40.3,18 38,19.1 c -4.4,2.2 -8,7.6 -8,12 0,2.3 1,3.9 2.6,4.6 l 1.5,0.8 c 1.5,0.9 3.6,0.8 5.9,-0.3 4.4,-2.2 8,-7.6 8,-12 0,-2.4 -0.9,-3.9 -2.3,-4.6 z" />
          <path
             style="opacity:0.2"
             inkscape:connector-curvature="0"
             id="path201"
             d="m 48,24.1 c 0,4.4 -3.6,9.8 -8,12 -4.4,2.2 -8,0.4 -8,-4 0,-4.4 3.6,-9.8 8,-12 4.4,-2.2 8,-0.5 8,4 z" />
          <path
             style="opacity:0.2"
             inkscape:connector-curvature="0"
             id="path203"
             d="m 46.5,24.8 c 0,3.6 -2.9,8 -6.5,9.7 -3.6,1.8 -6.5,0.3 -6.5,-3.3 0,-3.6 2.9,-8 6.5,-9.7 3.6,-1.7 6.5,-0.3 6.5,3.3 z" />
        </g>
      </g>
    </g>
    <g
       transform="translate(104,176)"
       class="top-level-node"
       id="i436">
      <g
         id="g226">
        <g
           id="g224">
          <path
             style="fill:#999999"
             inkscape:connector-curvature="0"
             id="path210"
             d="m 15.7,12.6 -2,-1 C 12.3,10.9 10.3,11 8,12.1 c -4.4,2.2 -8,7.6 -8,12 0,2.3 1,3.9 2.6,4.6 l 1.5,0.8 c 1.5,0.9 3.6,0.8 5.9,-0.3 4.4,-2.2 8,-7.6 8,-12 0,-2.4 -0.9,-3.9 -2.3,-4.6 z" />
          <path
             style="opacity:0.2"
             inkscape:connector-curvature="0"
             id="path212"
             d="m 18,17.1 c 0,4.4 -3.6,9.8 -8,12 -4.4,2.2 -8,0.4 -8,-4 0,-4.4 3.6,-9.8 8,-12 4.4,-2.2 8,-0.5 8,4 z" />
          <path
             style="fill:#999999"
             inkscape:connector-curvature="0"
             id="path214"
             d="M 41,8 H 23 v 8.8 c 0,0.7 -0.8,1.2 -1.4,0.9 l -7,-3.5 c -1.2,-0.6 -2.8,-0.5 -4.6,0.4 -3.6,1.8 -6.5,6.2 -6.5,9.7 0,1.9 0.8,3.2 2.1,3.7 L 27,38.7 c 6.4,3.2 14,-1.5 14,-8.6 z" />
          <path
             style="opacity:0.15"
             inkscape:connector-curvature="0"
             id="path216"
             d="M 41,8 H 23 v 8.8 c 0,0.7 -0.8,1.2 -1.4,0.9 l -7,-3.5 c -1.2,-0.6 -2.8,-0.5 -4.6,0.4 -3.6,1.8 -6.5,6.2 -6.5,9.7 0,1.9 0.8,3.2 2.1,3.7 L 27,38.7 c 6.4,3.2 14,-1.5 14,-8.6 z" />
          <path
             style="fill:#999999"
             inkscape:connector-curvature="0"
             id="path218"
             d="M 40,4 C 35.6,1.8 28.4,1.8 24,4 21.8,5.1 20.7,6.6 20.7,8 v 2 c 0,1.4 1.1,2.9 3.3,4 4.4,2.2 11.6,2.2 16,0 2.2,-1.1 3.3,-2.6 3.3,-4 V 8 C 43.3,6.6 42.2,5.1 40,4 Z" />
          <path
             style="opacity:0.3"
             inkscape:connector-curvature="0"
             id="path220"
             d="m 38.4,4.8 c 3.5,1.8 3.5,4.6 0,6.4 -3.5,1.8 -9.2,1.8 -12.7,0 -3.5,-1.8 -3.5,-4.6 0,-6.4 3.5,-1.8 9.1,-1.7 12.7,0 z" />
          <path
             style="opacity:0.1"
             inkscape:connector-curvature="0"
             id="path222"
             d="M 40,12 C 35.6,14.2 28.4,14.2 24,12 21.8,10.9 20.7,9.4 20.7,8 v 2 c 0,1.4 1.1,2.9 3.3,4 4.4,2.2 11.6,2.2 16,0 2.2,-1.1 3.3,-2.6 3.3,-4 V 8 c 0,1.4 -1.1,2.9 -3.3,4 z" />
        </g>
      </g>
    </g>
    <g
       transform="translate(192,184)"
       class="top-level-node"
       id="i437">
      <g
         id="g255">
        <g
           id="g253">
          <path
             style="fill:#999999"
             inkscape:connector-curvature="0"
             id="path229"
             d="m 15.7,12.6 -2,-1 C 12.3,10.9 10.3,11 8,12.1 c -4.4,2.2 -8,7.6 -8,12 0,2.3 1,3.9 2.6,4.6 l 1.5,0.8 c 1.5,0.9 3.6,0.8 5.9,-0.3 4.4,-2.2 8,-7.6 8,-12 0,-2.4 -0.9,-3.9 -2.3,-4.6 z" />
          <path
             style="opacity:0.2"
             inkscape:connector-curvature="0"
             id="path231"
             d="m 18,17.1 c 0,4.4 -3.6,9.8 -8,12 -4.4,2.2 -8,0.4 -8,-4 0,-4.4 3.6,-9.8 8,-12 4.4,-2.2 8,-0.5 8,4 z" />
          <path
             style="fill:#999999"
             inkscape:connector-curvature="0"
             id="path233"
             d="m 56.6,35.1 -42,-21 c -1.2,-0.6 -2.8,-0.5 -4.6,0.4 -3.6,1.8 -6.5,6.2 -6.5,9.7 0,1.9 0.8,3.2 2.1,3.7 l 41.7,20.8 z" />
          <path
             style="opacity:0.1"
             inkscape:connector-curvature="0"
             id="path235"
             d="m 56.6,35.1 -42,-21 c -1.2,-0.6 -2.8,-0.5 -4.6,0.4 -3.6,1.8 -6.5,6.2 -6.5,9.7 0,1.9 0.8,3.2 2.1,3.7 l 41.7,20.8 z" />
          <path
             style="fill:#999999"
             inkscape:connector-curvature="0"
             id="path237"
             d="m 61.7,35.6 -2,-1 C 58.3,33.9 56.3,34 54,35.1 c -4.4,2.2 -8,7.6 -8,12 0,2.3 1,3.9 2.6,4.6 l 1.5,0.8 c 1.5,0.9 3.6,0.8 5.9,-0.3 4.4,-2.2 8,-7.6 8,-12 0,-2.4 -0.9,-3.9 -2.3,-4.6 z" />
          <path
             style="opacity:0.2"
             inkscape:connector-curvature="0"
             id="path239"
             d="m 64,40.1 c 0,4.4 -3.6,9.8 -8,12 -4.4,2.2 -8,0.4 -8,-4 0,-4.4 3.6,-9.8 8,-12 4.4,-2.2 8,-0.5 8,4 z" />
          <path
             style="opacity:0.2"
             inkscape:connector-curvature="0"
             id="path241"
             d="m 62.5,40.8 c 0,3.6 -2.9,8 -6.5,9.7 -3.6,1.8 -6.5,0.3 -6.5,-3.3 0,-3.6 2.9,-8 6.5,-9.7 3.6,-1.7 6.5,-0.3 6.5,3.3 z" />
          <path
             style="fill:#999999"
             inkscape:connector-curvature="0"
             id="path243"
             d="m 23,8 v 20 c 0,1.2 0.9,2.3 2.6,3.2 3.5,1.8 9.2,1.8 12.7,0 1.8,-0.9 2.6,-2 2.6,-3.2 V 8 Z" />
          <path
             style="opacity:0.2"
             inkscape:connector-curvature="0"
             id="path245"
             d="m 23,8 v 20 c 0,1.2 0.9,2.3 2.6,3.2 3.5,1.8 9.2,1.8 12.7,0 1.8,-0.9 2.6,-2 2.6,-3.2 V 8 Z" />
          <path
             style="fill:#999999"
             inkscape:connector-curvature="0"
             id="path247"
             d="M 40,4 C 35.6,1.8 28.4,1.8 24,4 21.8,5.1 20.7,6.6 20.7,8 v 2 c 0,1.4 1.1,2.9 3.3,4 4.4,2.2 11.6,2.2 16,0 2.2,-1.1 3.3,-2.6 3.3,-4 V 8 C 43.3,6.6 42.2,5.1 40,4 Z" />
          <path
             style="opacity:0.3"
             inkscape:connector-curvature="0"
             id="path249"
             d="m 38.4,4.8 c 3.5,1.8 3.5,4.6 0,6.4 -3.5,1.8 -9.2,1.8 -12.7,0 -3.5,-1.8 -3.5,-4.6 0,-6.4 3.5,-1.8 9.1,-1.7 12.7,0 z" />
          <path
             style="opacity:0.1"
             inkscape:connector-curvature="0"
             id="path251"
             d="M 40,12 C 35.6,14.2 28.4,14.2 24,12 21.8,10.9 20.7,9.4 20.7,8 v 2 c 0,1.4 1.1,2.9 3.3,4 4.4,2.2 11.6,2.2 16,0 2.2,-1.1 3.3,-2.6 3.3,-4 V 8 c 0,1.4 -1.1,2.9 -3.3,4 z" />
        </g>
      </g>
    </g>
    <g
       transform="translate(280,184)"
       class="top-level-node"
       id="i438">
      <g
         id="g282">
        <g
           id="g280">
          <path
             style="fill:#999999"
             inkscape:connector-curvature="0"
             id="path258"
             d="m 40,42 c -4.4,-2.2 -11.6,-2.2 -16,0 -2.2,1.1 -3.3,2.6 -3.3,4 v 2 c 0,1.4 1.1,2.9 3.3,4 4.4,2.2 11.6,2.2 16,0 2.2,-1.1 3.3,-2.6 3.3,-4 v -2 c 0,-1.4 -1.1,-2.9 -3.3,-4 z" />
          <path
             style="opacity:0.1"
             inkscape:connector-curvature="0"
             id="path260"
             d="m 40,50 c -4.4,2.2 -11.6,2.2 -16,0 -2.2,-1.1 -3.3,-2.6 -3.3,-4 v 2 c 0,1.4 1.1,2.9 3.3,4 4.4,2.2 11.6,2.2 16,0 2.2,-1.1 3.3,-2.6 3.3,-4 v -2 c 0,1.4 -1.1,2.9 -3.3,4 z" />
          <path
             style="fill:#999999"
             inkscape:connector-curvature="0"
             id="path262"
             d="m 23,24 v 22 c 0,1.2 0.9,2.3 2.6,3.2 3.5,1.8 9.2,1.8 12.7,0 1.8,-0.9 2.6,-2 2.6,-3.2 V 24 Z" />
          <path
             style="opacity:0.2"
             inkscape:connector-curvature="0"
             id="path264"
             d="m 23,24 v 22 c 0,1.2 0.9,2.3 2.6,3.2 3.5,1.8 9.2,1.8 12.7,0 1.8,-0.9 2.6,-2 2.6,-3.2 V 24 Z" />
          <path
             style="fill:#999999"
             inkscape:connector-curvature="0"
             id="path266"
             d="m 15.7,4.6 -2,-1 C 12.2,2.8 10.2,3 8,4.1 3.6,6.3 0,11.7 0,16.1 0,18.4 1,20 2.6,20.7 l 1.5,0.8 c 1.5,0.9 3.6,0.8 5.9,-0.3 4.4,-2.2 8,-7.6 8,-12 0,-2.4 -0.9,-3.9 -2.3,-4.6 z" />
          <path
             style="opacity:0.2"
             inkscape:connector-curvature="0"
             id="path268"
             d="m 18,9.1 c 0,4.4 -3.6,9.8 -8,12 -4.4,2.2 -8,0.4 -8,-4 0,-4.4 3.6,-9.8 8,-12 4.4,-2.2 8,-0.5 8,4 z" />
          <path
             style="fill:#999999"
             inkscape:connector-curvature="0"
             id="path270"
             d="m 56.6,27.1 -42,-21 C 13.4,5.5 11.8,5.6 10,6.5 6.4,8.3 3.5,12.7 3.5,16.2 c 0,1.9 0.8,3.2 2.1,3.7 l 41.7,20.8 z" />
          <path
             style="opacity:0.1"
             inkscape:connector-curvature="0"
             id="path272"
             d="m 56.6,27.1 -42,-21 C 13.4,5.5 11.8,5.6 10,6.5 6.4,8.3 3.5,12.7 3.5,16.2 c 0,1.9 0.8,3.2 2.1,3.7 l 41.7,20.8 z" />
          <path
             style="fill:#999999"
             inkscape:connector-curvature="0"
             id="path274"
             d="m 61.7,27.6 -2,-1 C 58.3,25.9 56.3,26 54,27.1 c -4.4,2.2 -8,7.6 -8,12 0,2.3 1,3.9 2.6,4.6 l 1.5,0.8 c 1.5,0.9 3.6,0.8 5.9,-0.3 4.4,-2.2 8,-7.6 8,-12 0,-2.4 -0.9,-3.9 -2.3,-4.6 z" />
          <path
             style="opacity:0.2"
             inkscape:connector-curvature="0"
             id="path276"
             d="m 64,32.1 c 0,4.4 -3.6,9.8 -8,12 -4.4,2.2 -8,0.4 -8,-4 0,-4.4 3.6,-9.8 8,-12 4.4,-2.2 8,-0.5 8,4 z" />
          <path
             style="opacity:0.2"
             inkscape:connector-curvature="0"
             id="path278"
             d="m 62.5,32.8 c 0,3.6 -2.9,8 -6.5,9.7 -3.6,1.8 -6.5,0.3 -6.5,-3.3 0,-3.6 2.9,-8 6.5,-9.7 3.6,-1.7 6.5,-0.3 6.5,3.3 z" />
        </g>
      </g>
    </g>
    <g
       transform="translate(16,264)"
       class="top-level-node"
       id="i439">
      <g
         id="g305">
        <g
           id="g303">
          <path
             style="fill:#999999"
             inkscape:connector-curvature="0"
             id="path285"
             d="m 48.3,4.6 2,-1 C 51.8,2.8 53.8,3 56,4.1 c 4.4,2.2 8,7.6 8,12 0,2.3 -1,3.9 -2.6,4.6 l -1.5,0.8 C 58.4,22.4 56.3,22.3 54,21.2 49.6,19 46,13.6 46,9.2 46,6.8 46.9,5.3 48.3,4.6 Z" />
          <path
             style="opacity:0.2"
             inkscape:connector-curvature="0"
             id="path287"
             d="m 46,9.1 c 0,4.4 3.6,9.8 8,12 4.4,2.2 8,0.4 8,-4 0,-4.4 -3.6,-9.8 -8,-12 -4.4,-2.2 -8,-0.5 -8,4 z" />
          <path
             style="fill:#999999"
             inkscape:connector-curvature="0"
             id="path289"
             d="m 15.7,4.6 -2,-1 C 12.2,2.8 10.2,3 8,4.1 3.6,6.3 0,11.7 0,16.1 0,18.4 1,20 2.6,20.7 l 1.5,0.8 c 1.5,0.9 3.6,0.8 5.9,-0.3 4.4,-2.2 8,-7.6 8,-12 0,-2.4 -0.9,-3.9 -2.3,-4.6 z" />
          <path
             style="opacity:0.2"
             inkscape:connector-curvature="0"
             id="path291"
             d="m 18,9.1 c 0,4.4 -3.6,9.8 -8,12 -4.4,2.2 -8,0.4 -8,-4 0,-4.4 3.6,-9.8 8,-12 4.4,-2.2 8,-0.5 8,4 z" />
          <path
             style="fill:#999999"
             inkscape:connector-curvature="0"
             id="path293"
             d="M 54,6.6 C 52.2,5.7 50.6,5.6 49.4,6.2 L 32,14.9 14.6,6.2 C 13.4,5.6 11.8,5.7 10,6.6 6.4,8.4 3.5,12.8 3.5,16.3 c 0,1.9 0.8,3.2 2.1,3.7 l 41.7,20.8 9.3,-13.7 -6.2,-3.1 8,-4 c 1.3,-0.5 2.1,-1.8 2.1,-3.7 0,-3.6 -2.9,-8 -6.5,-9.7 z" />
          <path
             style="opacity:0.1"
             inkscape:connector-curvature="0"
             id="path295"
             d="M 54,6.6 C 52.2,5.7 50.6,5.6 49.4,6.2 L 32,14.9 14.6,6.2 C 13.4,5.6 11.8,5.7 10,6.6 6.4,8.4 3.5,12.8 3.5,16.3 c 0,1.9 0.8,3.2 2.1,3.7 l 41.7,20.8 9.3,-13.7 -6.2,-3.1 8,-4 c 1.3,-0.5 2.1,-1.8 2.1,-3.7 0,-3.6 -2.9,-8 -6.5,-9.7 z" />
          <path
             style="fill:#999999"
             inkscape:connector-curvature="0"
             id="path297"
             d="m 61.7,27.6 -2,-1 C 58.3,25.9 56.3,26 54,27.1 c -4.4,2.2 -8,7.6 -8,12 0,2.3 1,3.9 2.6,4.6 l 1.5,0.8 c 1.5,0.9 3.6,0.8 5.9,-0.3 4.4,-2.2 8,-7.6 8,-12 0,-2.4 -0.9,-3.9 -2.3,-4.6 z" />
          <path
             style="opacity:0.2"
             inkscape:connector-curvature="0"
             id="path299"
             d="m 64,32.1 c 0,4.4 -3.6,9.8 -8,12 -4.4,2.2 -8,0.4 -8,-4 0,-4.4 3.6,-9.8 8,-12 4.4,-2.2 8,-0.5 8,4 z" />
          <path
             style="opacity:0.2"
             inkscape:connector-curvature="0"
             id="path301"
             d="m 62.5,32.8 c 0,3.6 -2.9,8 -6.5,9.7 -3.6,1.8 -6.5,0.3 -6.5,-3.3 0,-3.6 2.9,-8 6.5,-9.7 3.6,-1.7 6.5,-0.3 6.5,3.3 z" />
        </g>
      </g>
    </g>
    <g
       transform="translate(120,256)"
       class="top-level-node"
       id="i440">
      <g
         id="g330">
        <g
           id="g328">
          <path
             style="fill:#999999"
             inkscape:connector-curvature="0"
             id="path308"
             d="m 15.7,4.6 -2,-1 C 12.2,2.8 10.2,3 8,4.1 3.6,6.3 0,11.7 0,16.1 0,18.4 1,20 2.6,20.7 l 1.5,0.8 c 1.5,0.9 3.6,0.8 5.9,-0.3 4.4,-2.2 8,-7.6 8,-12 0,-2.4 -0.9,-3.9 -2.3,-4.6 z" />
          <path
             style="opacity:0.2"
             inkscape:connector-curvature="0"
             id="path310"
             d="m 18,9.1 c 0,4.4 -3.6,9.8 -8,12 -4.4,2.2 -8,0.4 -8,-4 0,-4.4 3.6,-9.8 8,-12 4.4,-2.2 8,-0.5 8,4 z" />
          <path
             style="fill:#999999"
             inkscape:connector-curvature="0"
             id="path312"
             d="m 56.6,27.1 -42,-21 C 13.4,5.5 11.8,5.6 10,6.5 6.4,8.3 3.5,12.7 3.5,16.2 c 0,1.9 0.8,3.2 2.1,3.7 l 8,4 -6.2,3.1 9.3,13.7 15.3,-7.5 15.3,7.7 z" />
          <path
             style="opacity:0.1"
             inkscape:connector-curvature="0"
             id="path314"
             d="m 56.6,27.1 -42,-21 C 13.4,5.5 11.8,5.6 10,6.5 6.4,8.3 3.5,12.7 3.5,16.2 c 0,1.9 0.8,3.2 2.1,3.7 l 8,4 -6.2,3.1 9.3,13.7 15.3,-7.5 15.3,7.7 z" />
          <path
             style="fill:#999999"
             inkscape:connector-curvature="0"
             id="path316"
             d="m 61.7,27.6 -2,-1 C 58.3,25.9 56.3,26 54,27.1 c -4.4,2.2 -8,7.6 -8,12 0,2.3 1,3.9 2.6,4.6 l 1.5,0.8 c 1.5,0.9 3.6,0.8 5.9,-0.3 4.4,-2.2 8,-7.6 8,-12 0,-2.4 -0.9,-3.9 -2.3,-4.6 z" />
          <path
             style="opacity:0.2"
             inkscape:connector-curvature="0"
             id="path318"
             d="m 64,32.1 c 0,4.4 -3.6,9.8 -8,12 -4.4,2.2 -8,0.4 -8,-4 0,-4.4 3.6,-9.8 8,-12 4.4,-2.2 8,-0.5 8,4 z" />
          <path
             style="opacity:0.2"
             inkscape:connector-curvature="0"
             id="path320"
             d="m 62.5,32.8 c 0,3.6 -2.9,8 -6.5,9.7 -3.6,1.8 -6.5,0.3 -6.5,-3.3 0,-3.6 2.9,-8 6.5,-9.7 3.6,-1.7 6.5,-0.3 6.5,3.3 z" />
          <path
             style="fill:#999999"
             inkscape:connector-curvature="0"
             id="path322"
             d="m 2.3,27.6 2,-1 c 1.4,-0.7 3.4,-0.6 5.7,0.5 4.4,2.2 8,7.6 8,12 0,2.3 -1,3.9 -2.6,4.6 l -1.5,0.8 C 12.4,45.4 10.3,45.3 8,44.2 3.6,42 0,36.6 0,32.2 0,29.8 0.9,28.3 2.3,27.6 Z" />
          <path
             style="opacity:0.2"
             inkscape:connector-curvature="0"
             id="path324"
             d="m 0,32.1 c 0,4.4 3.6,9.8 8,12 4.4,2.2 8,0.4 8,-4 0,-4.4 -3.6,-9.8 -8,-12 -4.4,-2.2 -8,-0.5 -8,4 z" />
          <path
             style="opacity:0.2"
             inkscape:connector-curvature="0"
             id="path326"
             d="m 1.5,32.8 c 0,3.6 2.9,8 6.5,9.7 3.6,1.8 6.5,0.3 6.5,-3.3 0,-3.6 -2.9,-8 -6.5,-9.7 -3.6,-1.7 -6.5,-0.3 -6.5,3.3 z" />
        </g>
      </g>
    </g>
    <g
       transform="translate(224,264)"
       class="top-level-node"
       id="i441">
      <g
         id="g367">
        <g
           id="g365">
          <path
             style="fill:#999999"
             inkscape:connector-curvature="0"
             id="path333"
             d="m 40,50 c -4.4,-2.2 -11.6,-2.2 -16,0 -2.2,1.1 -3.3,2.6 -3.3,4 v 2 c 0,1.4 1.1,2.9 3.3,4 4.4,2.2 11.6,2.2 16,0 2.2,-1.1 3.3,-2.6 3.3,-4 v -2 c 0,-1.4 -1.1,-2.9 -3.3,-4 z" />
          <path
             style="opacity:0.1"
             inkscape:connector-curvature="0"
             id="path335"
             d="m 40,58 c -4.4,2.2 -11.6,2.2 -16,0 -2.2,-1.1 -3.3,-2.6 -3.3,-4 v 2 c 0,1.4 1.1,2.9 3.3,4 4.4,2.2 11.6,2.2 16,0 2.2,-1.1 3.3,-2.6 3.3,-4 v -2 c 0,1.4 -1.1,2.9 -3.3,4 z" />
          <path
             style="fill:#999999"
             inkscape:connector-curvature="0"
             id="path337"
             d="m 23,32 v 22 c 0,1.2 0.9,2.3 2.6,3.2 3.5,1.8 9.2,1.8 12.7,0 1.8,-0.9 2.6,-2 2.6,-3.2 V 32 Z" />
          <path
             style="opacity:0.2"
             inkscape:connector-curvature="0"
             id="path339"
             d="m 23,32 v 22 c 0,1.2 0.9,2.3 2.6,3.2 3.5,1.8 9.2,1.8 12.7,0 1.8,-0.9 2.6,-2 2.6,-3.2 V 32 Z" />
          <path
             style="fill:#999999"
             inkscape:connector-curvature="0"
             id="path341"
             d="m 15.7,12.6 -2,-1 C 12.3,10.9 10.3,11 8,12.1 c -4.4,2.2 -8,7.6 -8,12 0,2.3 1,3.9 2.6,4.6 l 1.5,0.8 c 1.5,0.9 3.6,0.8 5.9,-0.3 4.4,-2.2 8,-7.6 8,-12 0,-2.4 -0.9,-3.9 -2.3,-4.6 z" />
          <path
             style="opacity:0.2"
             inkscape:connector-curvature="0"
             id="path343"
             d="m 18,17.1 c 0,4.4 -3.6,9.8 -8,12 -4.4,2.2 -8,0.4 -8,-4 0,-4.4 3.6,-9.8 8,-12 4.4,-2.2 8,-0.5 8,4 z" />
          <path
             style="fill:#999999"
             inkscape:connector-curvature="0"
             id="path345"
             d="m 56.6,35.1 -42,-21 c -1.2,-0.6 -2.8,-0.5 -4.6,0.4 -3.6,1.8 -6.5,6.2 -6.5,9.7 0,1.9 0.8,3.2 2.1,3.7 l 41.7,20.8 z" />
          <path
             style="opacity:0.1"
             inkscape:connector-curvature="0"
             id="path347"
             d="m 56.6,35.1 -42,-21 c -1.2,-0.6 -2.8,-0.5 -4.6,0.4 -3.6,1.8 -6.5,6.2 -6.5,9.7 0,1.9 0.8,3.2 2.1,3.7 l 41.7,20.8 z" />
          <path
             style="fill:#999999"
             inkscape:connector-curvature="0"
             id="path349"
             d="m 61.7,35.6 -2,-1 C 58.3,33.9 56.3,34 54,35.1 c -4.4,2.2 -8,7.6 -8,12 0,2.3 1,3.9 2.6,4.6 l 1.5,0.8 c 1.5,0.9 3.6,0.8 5.9,-0.3 4.4,-2.2 8,-7.6 8,-12 0,-2.4 -0.9,-3.9 -2.3,-4.6 z" />
          <path
             style="opacity:0.2"
             inkscape:connector-curvature="0"
             id="path351"
             d="m 64,40.1 c 0,4.4 -3.6,9.8 -8,12 -4.4,2.2 -8,0.4 -8,-4 0,-4.4 3.6,-9.8 8,-12 4.4,-2.2 8,-0.5 8,4 z" />
          <path
             style="opacity:0.2"
             inkscape:connector-curvature="0"
             id="path353"
             d="m 62.5,40.8 c 0,3.6 -2.9,8 -6.5,9.7 -3.6,1.8 -6.5,0.3 -6.5,-3.3 0,-3.6 2.9,-8 6.5,-9.7 3.6,-1.7 6.5,-0.3 6.5,3.3 z" />
          <path
             style="fill:#999999"
             inkscape:connector-curvature="0"
             id="path355"
             d="m 23,8 v 20 c 0,1.2 0.9,2.3 2.6,3.2 3.5,1.8 9.2,1.8 12.7,0 1.8,-0.9 2.6,-2 2.6,-3.2 V 8 Z" />
          <path
             style="opacity:0.2"
             inkscape:connector-curvature="0"
             id="path357"
             d="m 23,8 v 20 c 0,1.2 0.9,2.3 2.6,3.2 3.5,1.8 9.2,1.8 12.7,0 1.8,-0.9 2.6,-2 2.6,-3.2 V 8 Z" />
          <path
             style="fill:#999999"
             inkscape:connector-curvature="0"
             id="path359"
             d="M 40,4 C 35.6,1.8 28.4,1.8 24,4 21.8,5.1 20.7,6.6 20.7,8 v 2 c 0,1.4 1.1,2.9 3.3,4 4.4,2.2 11.6,2.2 16,0 2.2,-1.1 3.3,-2.6 3.3,-4 V 8 C 43.3,6.6 42.2,5.1 40,4 Z" />
          <path
             style="opacity:0.3"
             inkscape:connector-curvature="0"
             id="path361"
             d="m 38.4,4.8 c 3.5,1.8 3.5,4.6 0,6.4 -3.5,1.8 -9.2,1.8 -12.7,0 -3.5,-1.8 -3.5,-4.6 0,-6.4 3.5,-1.8 9.1,-1.7 12.7,0 z" />
          <path
             style="opacity:0.1"
             inkscape:connector-curvature="0"
             id="path363"
             d="M 40,12 C 35.6,14.2 28.4,14.2 24,12 21.8,10.9 20.7,9.4 20.7,8 v 2 c 0,1.4 1.1,2.9 3.3,4 4.4,2.2 11.6,2.2 16,0 2.2,-1.1 3.3,-2.6 3.3,-4 V 8 c 0,1.4 -1.1,2.9 -3.3,4 z" />
        </g>
      </g>
    </g>
    <g
       transform="translate(328,256)"
       class="top-level-node"
       id="i442">
      <g
         id="g396">
        <g
           id="g394">
          <path
             style="fill:#999999"
             inkscape:connector-curvature="0"
             id="path370"
             d="m 48.3,4.6 2,-1 C 51.8,2.8 53.8,3 56,4.1 c 4.4,2.2 8,7.6 8,12 0,2.3 -1,3.9 -2.6,4.6 l -1.5,0.8 C 58.4,22.4 56.3,22.3 54,21.2 49.6,19 46,13.6 46,9.2 46,6.8 46.9,5.3 48.3,4.6 Z" />
          <path
             style="opacity:0.2"
             inkscape:connector-curvature="0"
             id="path372"
             d="m 46,9.1 c 0,4.4 3.6,9.8 8,12 4.4,2.2 8,0.4 8,-4 0,-4.4 -3.6,-9.8 -8,-12 -4.4,-2.2 -8,-0.5 -8,4 z" />
          <path
             style="fill:#999999"
             inkscape:connector-curvature="0"
             id="path374"
             d="m 15.7,4.6 -2,-1 C 12.2,2.8 10.2,3 8,4.1 3.6,6.3 0,11.7 0,16.1 0,18.4 1,20 2.6,20.7 l 1.5,0.8 c 1.5,0.9 3.6,0.8 5.9,-0.3 4.4,-2.2 8,-7.6 8,-12 0,-2.4 -0.9,-3.9 -2.3,-4.6 z" />
          <path
             style="opacity:0.2"
             inkscape:connector-curvature="0"
             id="path376"
             d="m 18,9.1 c 0,4.4 -3.6,9.8 -8,12 -4.4,2.2 -8,0.4 -8,-4 0,-4.4 3.6,-9.8 8,-12 4.4,-2.2 8,-0.5 8,4 z" />
          <path
             style="fill:#999999"
             inkscape:connector-curvature="0"
             id="path378"
             d="M 54,6.6 C 52.2,5.7 50.6,5.6 49.4,6.2 L 32,14.9 14.6,6.2 C 13.4,5.6 11.8,5.7 10,6.6 6.4,8.4 3.5,12.8 3.5,16.3 c 0,1.9 0.8,3.2 2.1,3.7 l 8,4 -6.2,3.1 9.3,13.7 15.3,-7.6 15.3,7.7 9.3,-13.7 -6.2,-3.2 8,-4 c 1.3,-0.5 2.1,-1.8 2.1,-3.7 0,-3.6 -2.9,-8 -6.5,-9.7 z" />
          <path
             style="opacity:0.1"
             inkscape:connector-curvature="0"
             id="path380"
             d="M 54,6.6 C 52.2,5.7 50.6,5.6 49.4,6.2 L 32,14.9 14.6,6.2 C 13.4,5.6 11.8,5.7 10,6.6 6.4,8.4 3.5,12.8 3.5,16.3 c 0,1.9 0.8,3.2 2.1,3.7 l 8,4 -6.2,3.1 9.3,13.7 15.3,-7.6 15.3,7.7 9.3,-13.7 -6.2,-3.2 8,-4 c 1.3,-0.5 2.1,-1.8 2.1,-3.7 0,-3.6 -2.9,-8 -6.5,-9.7 z" />
          <path
             style="fill:#999999"
             inkscape:connector-curvature="0"
             id="path382"
             d="m 61.7,27.6 -2,-1 C 58.3,25.9 56.3,26 54,27.1 c -4.4,2.2 -8,7.6 -8,12 0,2.3 1,3.9 2.6,4.6 l 1.5,0.8 c 1.5,0.9 3.6,0.8 5.9,-0.3 4.4,-2.2 8,-7.6 8,-12 0,-2.4 -0.9,-3.9 -2.3,-4.6 z" />
          <path
             style="opacity:0.2"
             inkscape:connector-curvature="0"
             id="path384"
             d="m 64,32.1 c 0,4.4 -3.6,9.8 -8,12 -4.4,2.2 -8,0.4 -8,-4 0,-4.4 3.6,-9.8 8,-12 4.4,-2.2 8,-0.5 8,4 z" />
          <path
             style="opacity:0.2"
             inkscape:connector-curvature="0"
             id="path386"
             d="m 62.5,32.8 c 0,3.6 -2.9,8 -6.5,9.7 -3.6,1.8 -6.5,0.3 -6.5,-3.3 0,-3.6 2.9,-8 6.5,-9.7 3.6,-1.7 6.5,-0.3 6.5,3.3 z" />
          <path
             style="fill:#999999"
             inkscape:connector-curvature="0"
             id="path388"
             d="m 2.3,27.6 2,-1 c 1.4,-0.7 3.4,-0.6 5.7,0.5 4.4,2.2 8,7.6 8,12 0,2.3 -1,3.9 -2.6,4.6 l -1.5,0.8 C 12.4,45.4 10.3,45.3 8,44.2 3.6,42 0,36.6 0,32.2 0,29.8 0.9,28.3 2.3,27.6 Z" />
          <path
             style="opacity:0.2"
             inkscape:connector-curvature="0"
             id="path390"
             d="m 0,32.1 c 0,4.4 3.6,9.8 8,12 4.4,2.2 8,0.4 8,-4 0,-4.4 -3.6,-9.8 -8,-12 -4.4,-2.2 -8,-0.5 -8,4 z" />
          <path
             style="opacity:0.2"
             inkscape:connector-curvature="0"
             id="path392"
             d="m 1.5,32.8 c 0,3.6 2.9,8 6.5,9.7 3.6,1.8 6.5,0.3 6.5,-3.3 0,-3.6 -2.9,-8 -6.5,-9.7 -3.6,-1.7 -6.5,-0.3 -6.5,3.3 z" />
        </g>
      </g>
    </g>
    <g
       transform="translate(32,352)"
       class="top-level-node"
       id="i443">
      <g
         id="g423">
        <g
           id="g421">
          <path
             style="fill:#999999"
             inkscape:connector-curvature="0"
             id="path399"
             d="m 15.7,12.6 -2,-1 C 12.3,10.9 10.3,11 8,12.1 c -4.4,2.2 -8,7.6 -8,12 0,2.3 1,3.9 2.6,4.6 l 1.5,0.8 c 1.5,0.9 3.6,0.8 5.9,-0.3 4.4,-2.2 8,-7.6 8,-12 0,-2.4 -0.9,-3.9 -2.3,-4.6 z" />
          <path
             style="opacity:0.2"
             inkscape:connector-curvature="0"
             id="path401"
             d="m 18,17.1 c 0,4.4 -3.6,9.8 -8,12 -4.4,2.2 -8,0.4 -8,-4 0,-4.4 3.6,-9.8 8,-12 4.4,-2.2 8,-0.5 8,4 z" />
          <path
             style="fill:#999999"
             inkscape:connector-curvature="0"
             id="path403"
             d="m 34.6,24.1 -20,-10 c -1.2,-0.6 -2.8,-0.5 -4.6,0.4 -3.6,1.8 -6.5,6.2 -6.5,9.7 0,1.9 0.8,3.2 2.1,3.7 l 19.7,9.8 z" />
          <path
             style="opacity:0.1"
             inkscape:connector-curvature="0"
             id="path405"
             d="m 34.6,24.1 -20,-10 c -1.2,-0.6 -2.8,-0.5 -4.6,0.4 -3.6,1.8 -6.5,6.2 -6.5,9.7 0,1.9 0.8,3.2 2.1,3.7 l 19.7,9.8 z" />
          <path
             style="fill:#999999"
             inkscape:connector-curvature="0"
             id="path407"
             d="m 40,50 c -4.4,-2.2 -11.6,-2.2 -16,0 -2.2,1.1 -3.3,2.6 -3.3,4 v 2 c 0,1.4 1.1,2.9 3.3,4 4.4,2.2 11.6,2.2 16,0 2.2,-1.1 3.3,-2.6 3.3,-4 v -2 c 0,-1.4 -1.1,-2.9 -3.3,-4 z" />
          <path
             style="opacity:0.1"
             inkscape:connector-curvature="0"
             id="path409"
             d="m 40,58 c -4.4,2.2 -11.6,2.2 -16,0 -2.2,-1.1 -3.3,-2.6 -3.3,-4 v 2 c 0,1.4 1.1,2.9 3.3,4 4.4,2.2 11.6,2.2 16,0 2.2,-1.1 3.3,-2.6 3.3,-4 v -2 c 0,1.4 -1.1,2.9 -3.3,4 z" />
          <path
             style="fill:#999999"
             inkscape:connector-curvature="0"
             id="path411"
             d="m 23,8 v 46 c 0,1.2 0.9,2.3 2.6,3.2 3.5,1.8 9.2,1.8 12.7,0 1.8,-0.9 2.6,-2 2.6,-3.2 V 8 Z" />
          <path
             style="opacity:0.2"
             inkscape:connector-curvature="0"
             id="path413"
             d="m 23,8 v 46 c 0,1.2 0.9,2.3 2.6,3.2 3.5,1.8 9.2,1.8 12.7,0 1.8,-0.9 2.6,-2 2.6,-3.2 V 8 Z" />
          <path
             style="fill:#999999"
             inkscape:connector-curvature="0"
             id="path415"
             d="M 40,4 C 35.6,1.8 28.4,1.8 24,4 21.8,5.1 20.7,6.6 20.7,8 v 2 c 0,1.4 1.1,2.9 3.3,4 4.4,2.2 11.6,2.2 16,0 2.2,-1.1 3.3,-2.6 3.3,-4 V 8 C 43.3,6.6 42.2,5.1 40,4 Z" />
          <path
             style="opacity:0.3"
             inkscape:connector-curvature="0"
             id="path417"
             d="m 38.4,4.8 c 3.5,1.8 3.5,4.6 0,6.4 -3.5,1.8 -9.2,1.8 -12.7,0 -3.5,-1.8 -3.5,-4.6 0,-6.4 3.5,-1.8 9.1,-1.7 12.7,0 z" />
          <path
             style="opacity:0.1"
             inkscape:connector-curvature="0"
             id="path419"
             d="M 40,12 C 35.6,14.2 28.4,14.2 24,12 21.8,10.9 20.7,9.4 20.7,8 v 2 c 0,1.4 1.1,2.9 3.3,4 4.4,2.2 11.6,2.2 16,0 2.2,-1.1 3.3,-2.6 3.3,-4 V 8 c 0,1.4 -1.1,2.9 -3.3,4 z" />
        </g>
      </g>
    </g>
    <g
       transform="translate(104,352)"
       class="top-level-node"
       id="i444">
      <g
         id="g452">
        <g
           id="g450">
          <path
             style="fill:#999999"
             inkscape:connector-curvature="0"
             id="path426"
             d="M 24,50 C 19.6,47.8 12.4,47.8 8,50 5.8,51.1 4.7,52.6 4.7,54 v 2 c 0,1.4 1.1,2.9 3.3,4 4.4,2.2 11.6,2.2 16,0 2.2,-1.1 3.3,-2.6 3.3,-4 v -2 c 0,-1.4 -1.1,-2.9 -3.3,-4 z" />
          <path
             style="opacity:0.1"
             inkscape:connector-curvature="0"
             id="path428"
             d="M 24,58 C 19.6,60.2 12.4,60.2 8,58 5.8,56.9 4.7,55.4 4.7,54 v 2 c 0,1.4 1.1,2.9 3.3,4 4.4,2.2 11.6,2.2 16,0 2.2,-1.1 3.3,-2.6 3.3,-4 v -2 c 0,1.4 -1.1,2.9 -3.3,4 z" />
          <path
             style="fill:#999999"
             inkscape:connector-curvature="0"
             id="path430"
             d="m 7,8 v 46 c 0,1.2 0.9,2.3 2.6,3.2 3.5,1.8 9.2,1.8 12.7,0 1.8,-0.9 2.6,-2 2.6,-3.2 V 8 Z" />
          <path
             style="opacity:0.2"
             inkscape:connector-curvature="0"
             id="path432"
             d="m 7,8 v 46 c 0,1.2 0.9,2.3 2.6,3.2 3.5,1.8 9.2,1.8 12.7,0 1.8,-0.9 2.6,-2 2.6,-3.2 V 8 Z" />
          <path
             style="fill:#999999"
             inkscape:connector-curvature="0"
             id="path434"
             d="M 24,4 C 19.6,1.8 12.4,1.8 8,4 5.8,5.1 4.7,6.6 4.7,8 v 2 c 0,1.4 1.1,2.9 3.3,4 4.4,2.2 11.6,2.2 16,0 2.2,-1.1 3.3,-2.6 3.3,-4 V 8 C 27.3,6.6 26.2,5.1 24,4 Z" />
          <path
             style="opacity:0.3"
             inkscape:connector-curvature="0"
             id="path436"
             d="m 22.4,4.8 c 3.5,1.8 3.5,4.6 0,6.4 C 18.9,13 13.2,13 9.7,11.2 6.2,9.4 6.2,6.6 9.7,4.8 13.2,3 18.8,3.1 22.4,4.8 Z" />
          <path
             style="opacity:0.1"
             inkscape:connector-curvature="0"
             id="path438"
             d="M 24,12 C 19.6,14.2 12.4,14.2 8,12 5.8,10.9 4.7,9.4 4.7,8 v 2 c 0,1.4 1.1,2.9 3.3,4 4.4,2.2 11.6,2.2 16,0 2.2,-1.1 3.3,-2.6 3.3,-4 V 8 c 0,1.4 -1.1,2.9 -3.3,4 z" />
          <path
             style="fill:#999999"
             inkscape:connector-curvature="0"
             id="path440"
             d="m 40.6,35.1 -16,-8 c -1.2,-0.6 -2.8,-0.5 -4.6,0.4 -3.6,1.8 -6.5,6.2 -6.5,9.7 0,1.9 0.8,3.2 2.1,3.7 l 15.7,7.8 z" />
          <path
             style="opacity:0.1"
             inkscape:connector-curvature="0"
             id="path442"
             d="m 40.6,35.1 -16,-8 c -1.2,-0.6 -2.8,-0.5 -4.6,0.4 -3.6,1.8 -6.5,6.2 -6.5,9.7 0,1.9 0.8,3.2 2.1,3.7 l 15.7,7.8 z" />
          <path
             style="fill:#999999"
             inkscape:connector-curvature="0"
             id="path444"
             d="m 45.7,35.6 -2,-1 C 42.3,33.9 40.3,34 38,35.1 c -4.4,2.2 -8,7.6 -8,12 0,2.3 1,3.9 2.6,4.6 l 1.5,0.8 c 1.5,0.9 3.6,0.8 5.9,-0.3 4.4,-2.2 8,-7.6 8,-12 0,-2.4 -0.9,-3.9 -2.3,-4.6 z" />
          <path
             style="opacity:0.2"
             inkscape:connector-curvature="0"
             id="path446"
             d="m 48,40.1 c 0,4.4 -3.6,9.8 -8,12 -4.4,2.2 -8,0.4 -8,-4 0,-4.4 3.6,-9.8 8,-12 4.4,-2.2 8,-0.5 8,4 z" />
          <path
             style="opacity:0.2"
             inkscape:connector-curvature="0"
             id="path448"
             d="m 46.5,40.8 c 0,3.6 -2.9,8 -6.5,9.7 -3.6,1.8 -6.5,0.3 -6.5,-3.3 0,-3.6 2.9,-8 6.5,-9.7 3.6,-1.7 6.5,-0.3 6.5,3.3 z" />
        </g>
      </g>
    </g>
    <g
       transform="translate(192,368)"
       class="top-level-node"
       id="i445">
      <g
         id="g465">
        <g
           id="g463">
          <path
             style="fill:#999999"
             inkscape:connector-curvature="0"
             id="path455"
             d="M 60.9,29.3 12.6,5.2 C 11.4,4.6 9.8,4.7 8,5.6 4.4,7.4 1.5,11.8 1.5,15.3 c 0,1.9 0.8,3.2 2.1,3.7 l 47.6,23.8 c 1.2,0.7 2.9,0.7 4.8,-0.3 3.6,-1.8 6.5,-6.2 6.5,-9.7 0,-1.6 -0.6,-2.8 -1.6,-3.5 z" />
          <path
             style="opacity:0.1"
             inkscape:connector-curvature="0"
             id="path457"
             d="m 49.5,39.3 c 0,-3.6 2.9,-8 6.5,-9.7 1.8,-0.9 3.4,-1 4.5,-0.4 L 12.6,5.2 C 11.4,4.6 9.8,4.7 8,5.6 4.4,7.4 1.5,11.8 1.5,15.3 c 0,1.9 0.8,3.2 2.1,3.7 l 47.6,23.8 c -1,-0.6 -1.7,-1.8 -1.7,-3.5 z" />
          <path
             style="opacity:0.2"
             inkscape:connector-curvature="0"
             id="path459"
             d="m 62.5,32.8 c 0,3.6 -2.9,8 -6.5,9.7 -3.6,1.8 -6.5,0.3 -6.5,-3.3 0,-3.6 2.9,-8 6.5,-9.7 3.6,-1.7 6.5,-0.3 6.5,3.3 z" />
          <path
             style="opacity:0.2"
             inkscape:connector-curvature="0"
             id="path461"
             d="m 61.8,33.1 c 0,3.2 -2.6,7.1 -5.8,8.7 -3.2,1.6 -5.8,0.3 -5.8,-2.9 0,-3.2 2.6,-7.1 5.8,-8.7 3.2,-1.6 5.8,-0.3 5.8,2.9 z" />
        </g>
      </g>
    </g>
    <g
       transform="translate(288,368)"
       class="top-level-node"
       id="i446">
      <g
         id="g476">
        <g
           id="g474">
          <path
             style="fill:#999999"
             inkscape:connector-curvature="0"
             id="path468"
             d="M 22.4,4.8 C 18.9,3 13.2,3 9.7,4.8 7.9,5.7 7,6.8 7,8 v 47.7 c 0,1.2 0.9,2.3 2.6,3.2 3.5,1.8 9.2,1.8 12.7,0 1.8,-0.9 2.6,-2 2.6,-3.2 V 8 C 25,6.8 24.1,5.7 22.4,4.8 Z" />
          <path
             style="opacity:0.2"
             inkscape:connector-curvature="0"
             id="path470"
             d="M 22.4,11.2 C 18.9,13 13.2,13 9.7,11.2 7.9,10.3 7,9.2 7,8 v 47.7 c 0,1.2 0.9,2.3 2.6,3.2 3.5,1.8 9.2,1.8 12.7,0 1.8,-0.9 2.6,-2 2.6,-3.2 V 8 c 0.1,1.2 -0.8,2.3 -2.5,3.2 z" />
          <path
             style="opacity:0.3"
             inkscape:connector-curvature="0"
             id="path472"
             d="m 21.7,5.2 c 3.1,1.6 3.1,4.1 0,5.7 -3.1,1.6 -8.2,1.6 -11.3,0 -3.1,-1.6 -3.1,-4.1 0,-5.7 3.1,-1.6 8.1,-1.6 11.3,0 z" />
        </g>
      </g>
    </g>
    <g
       transform="translate(296,472)"
       class="top-level-node"
       id="i447">
      <g
         id="g497">
        <g
           id="g495">
          <path
             style="fill:none;stroke:#cc291f;stroke-width:2;stroke-miterlimit:10"
             inkscape:connector-curvature="0"
             id="path479"
             stroke-miterlimit="10"
             d="m 22.4,4.8 c 3.5,1.8 3.5,4.6 0,6.4 C 18.9,13 13.2,13 9.7,11.2 6.2,9.4 6.2,6.6 9.7,4.8 13.2,3 18.8,3.1 22.4,4.8 Z" />
          <path
             style="fill:#999999"
             inkscape:connector-curvature="0"
             id="path481"
             d="m 18.8,12.1 c -1.6,-0.8 -4.1,-0.8 -5.7,0 C 12.4,12.5 12,13 12,13.5 V 16 c 0,0.5 0.4,1 1.2,1.4 1.6,0.8 4.1,0.8 5.7,0 C 19.6,17 20,16.5 20,16 v -2.5 c 0,-0.5 -0.4,-1 -1.2,-1.4 z" />
          <path
             style="opacity:0.1"
             inkscape:connector-curvature="0"
             id="path483"
             d="m 18.8,14.9 c -1.6,0.8 -4.1,0.8 -5.7,0 C 12.4,14.5 12,14 12,13.5 V 16 c 0,0.5 0.4,1 1.2,1.4 1.6,0.8 4.1,0.8 5.7,0 C 19.6,17 20,16.5 20,16 v -2.5 c 0,0.5 -0.4,1 -1.2,1.4 z" />
          <path
             style="fill:#999999"
             inkscape:connector-curvature="0"
             id="path485"
             d="M 17.4,7.3 C 16.6,6.9 15.4,6.9 14.6,7.3 14.2,7.5 14,7.7 14,8 v 5.2 c 0,0.3 0.2,0.5 0.6,0.7 0.8,0.4 2,0.4 2.8,0 0.4,-0.2 0.6,-0.5 0.6,-0.7 V 8 C 18,7.7 17.8,7.5 17.4,7.3 Z" />
          <path
             style="opacity:0.1"
             inkscape:connector-curvature="0"
             id="path487"
             d="m 17.4,8.7 c -0.8,0.4 -2,0.4 -2.8,0 C 14.2,8.5 14,8.3 14,8 v 5.2 c 0,0.3 0.2,0.5 0.6,0.7 0.8,0.4 2,0.4 2.8,0 0.4,-0.2 0.6,-0.5 0.6,-0.7 V 8 c 0,0.3 -0.2,0.5 -0.6,0.7 z" />
          <path
             style="fill:#cc291f"
             inkscape:connector-curvature="0"
             id="path489"
             d="M 22.8,3.9 C 21,3 18.6,2.5 16,2.5 13.4,2.5 11,3 9.2,3.9 7.1,5 6,6.4 6,8 c 0,1.6 1.1,3 3.2,4.1 1.8,0.9 4.3,1.4 6.8,1.4 2.5,0 5,-0.5 6.8,-1.4 C 24.9,11 26,9.6 26,8 26,6.4 24.9,5 22.8,3.9 Z M 23.6,7 H 19.4 C 19.2,6.9 19,6.7 18.8,6.6 18.3,6.3 17.6,6.2 17,6.1 V 4.5 c 1.9,0.1 3.6,0.5 4.9,1.2 0.8,0.4 1.4,0.8 1.7,1.3 z M 10.1,5.7 C 11.4,5 13.1,4.7 15,4.5 V 6 C 14.3,6.1 13.7,6.3 13.2,6.5 12.9,6.6 12.8,6.8 12.6,6.9 H 8.4 C 8.7,6.5 9.3,6.1 10.1,5.7 Z M 8.4,9 h 4.2 c 0.2,0.1 0.4,0.3 0.6,0.4 0.5,0.3 1.2,0.4 1.8,0.5 v 1.5 C 13.1,11.3 11.4,10.9 10.1,10.2 9.3,9.9 8.7,9.5 8.4,9 Z m 13.5,1.3 C 20.6,11 18.8,11.4 17,11.5 V 9.9 C 17.7,9.8 18.3,9.6 18.8,9.4 19.1,9.3 19.2,9.1 19.4,9 h 4.2 c -0.3,0.5 -0.9,0.9 -1.7,1.3 z" />
          <path
             style="fill:#999999"
             inkscape:connector-curvature="0"
             id="path491"
             d="M 17.4,4.3 C 16.6,3.9 15.4,3.9 14.6,4.3 14.2,4.5 14,4.7 14,5 v 3 c 0,0.3 0.2,0.5 0.6,0.7 0.8,0.4 2,0.4 2.8,0 C 17.8,8.5 18,8.3 18,8 V 5 C 18,4.7 17.8,4.5 17.4,4.3 Z" />
          <path
             style="opacity:0.1"
             inkscape:connector-curvature="0"
             id="path493"
             d="m 17.4,5.7 c -0.8,0.4 -2,0.4 -2.8,0 C 14.2,5.5 14,5.3 14,5 v 3 c 0,0.3 0.2,0.5 0.6,0.7 0.8,0.4 2,0.4 2.8,0 C 17.8,8.5 18,8.3 18,8 V 5 c 0,0.3 -0.2,0.5 -0.6,0.7 z" />
        </g>
      </g>
    </g>
    <g
       transform="translate(224,464)"
       class="top-level-node"
       id="i448">
      <g
         id="g518">
        <g
           id="g516">
          <path
             style="fill:#999999"
             inkscape:connector-curvature="0"
             id="path500"
             d="M 14,10.1 11.4,8.8 C 10.8,8.5 9.9,8.6 9,9 7.1,9.9 5.6,12.2 5.6,14.1 c 0,1 0.4,1.7 1.1,2 L 9,17.3 c 0.6,0.4 1.5,0.4 2.5,-0.1 1.9,-0.9 3.4,-3.2 3.4,-5.1 0.1,-1 -0.3,-1.7 -0.9,-2 z" />
          <path
             style="opacity:0.2"
             inkscape:connector-curvature="0"
             id="path502"
             d="m 15,12 c 0,1.9 -1.5,4.2 -3.4,5.1 C 9.7,18 8.2,17.3 8.2,15.4 8.2,13.5 9.7,11.2 11.6,10.3 13.5,9.4 15,10.1 15,12 Z" />
          <path
             style="fill:#999999"
             inkscape:connector-curvature="0"
             id="path504"
             d="m 16.5,14.1 -3.2,-1.7 c -0.3,-0.2 -0.7,-0.1 -1.2,0.1 -1,0.5 -1.7,1.6 -1.7,2.6 0,0.5 0.2,0.8 0.6,1 l 3.1,1.7 c 0.3,0.2 0.8,0.2 1.3,-0.1 1,-0.5 1.7,-1.6 1.7,-2.6 -0.1,-0.5 -0.3,-0.8 -0.6,-1 z" />
          <path
             style="opacity:0.2"
             inkscape:connector-curvature="0"
             id="path506"
             d="m 17,15.1 c 0,1 -0.8,2.1 -1.7,2.6 -0.9,0.5 -1.7,0.1 -1.7,-0.9 0,-1 0.8,-2.1 1.7,-2.6 0.9,-0.4 1.7,-0.1 1.7,0.9 z" />
          <path
             style="fill:#cc291f"
             inkscape:connector-curvature="0"
             id="path508"
             d="m 16.9,6.8 c -1.1,0 -2.2,0.3 -3.4,0.9 -4,2 -7.1,6.7 -7.1,10.6 0,3 1.8,5 4.6,5 1.1,0 2.2,-0.3 3.3,-0.9 4,-2 7.1,-6.7 7.1,-10.6 0.1,-3 -1.7,-5 -4.5,-5 z m 2.6,4.4 -2.7,1.3 C 16.5,11.9 15.8,11.6 15,11.7 V 9.2 c 0.7,-0.3 1.3,-0.4 1.9,-0.4 1.5,0 2.4,0.8 2.6,2.4 z M 13,10.4 v 2.4 c -0.8,0.7 -1.4,1.6 -1.8,2.5 L 8.7,16.5 C 9.4,14.2 11,11.9 13,10.4 Z m -4.5,8.5 2.7,-1.3 c 0.3,0.7 1,1 1.8,0.9 V 21 c -0.7,0.3 -1.3,0.4 -1.9,0.4 -1.5,-0.1 -2.4,-1 -2.6,-2.5 z m 6.5,0.8 v -2.4 c 0.8,-0.7 1.5,-1.7 1.8,-2.7 l 2.5,-1.2 C 18.7,15.8 17,18.2 15,19.7 Z" />
          <path
             style="opacity:0.28999999"
             inkscape:connector-curvature="0"
             id="path510"
             d="m 16.9,6.8 c -1.1,0 -2.2,0.3 -3.4,0.9 -4,2 -7.1,6.7 -7.1,10.6 0,3 1.8,5 4.6,5 1.1,0 2.2,-0.3 3.3,-0.9 4,-2 7.1,-6.7 7.1,-10.6 0.1,-3 -1.7,-5 -4.5,-5 z m 2.6,4.4 -2.7,1.3 C 16.5,11.9 15.8,11.6 15,11.7 V 9.2 c 0.7,-0.3 1.3,-0.4 1.9,-0.4 1.5,0 2.4,0.8 2.6,2.4 z M 13,10.4 v 2.4 c -0.8,0.7 -1.4,1.6 -1.8,2.5 L 8.7,16.5 C 9.4,14.2 11,11.9 13,10.4 Z m -4.5,8.5 2.7,-1.3 c 0.3,0.7 1,1 1.8,0.9 V 21 c -0.7,0.3 -1.3,0.4 -1.9,0.4 -1.5,-0.1 -2.4,-1 -2.6,-2.5 z m 6.5,0.8 v -2.4 c 0.8,-0.7 1.5,-1.7 1.8,-2.7 l 2.5,-1.2 C 18.7,15.8 17,18.2 15,19.7 Z" />
          <path
             style="fill:#999999"
             inkscape:connector-curvature="0"
             id="path512"
             d="m 19.5,15.1 -3.2,-1.7 c -0.3,-0.2 -0.7,-0.1 -1.2,0.1 -1,0.5 -1.7,1.6 -1.7,2.6 0,0.5 0.2,0.8 0.6,1 l 3.1,1.7 c 0.3,0.2 0.8,0.2 1.3,-0.1 1,-0.5 1.7,-1.6 1.7,-2.6 -0.1,-0.5 -0.3,-0.8 -0.6,-1 z" />
          <path
             style="opacity:0.2"
             inkscape:connector-curvature="0"
             id="path514"
             d="m 20,16.1 c 0,1 -0.8,2.1 -1.7,2.6 -1,0.5 -1.7,0.1 -1.7,-0.9 0,-1 0.8,-2.1 1.7,-2.6 0.9,-0.4 1.7,-0.1 1.7,0.9 z" />
        </g>
      </g>
    </g>
    <g
       transform="translate(152,456)"
       class="top-level-node"
       id="i449">
      <g
         id="g561">
        <g
           id="g559">
          <path
             style="fill:#999999"
             inkscape:connector-curvature="0"
             id="path521"
             d="M 24,50 C 19.6,47.8 12.4,47.8 8,50 5.8,51.1 4.7,52.6 4.7,54 v 2 c 0,1.4 1.1,2.9 3.3,4 4.4,2.2 11.6,2.2 16,0 2.2,-1.1 3.3,-2.6 3.3,-4 v -2 c 0,-1.4 -1.1,-2.9 -3.3,-4 z" />
          <path
             style="opacity:0.1"
             inkscape:connector-curvature="0"
             id="path523"
             d="M 24,58 C 19.6,60.2 12.4,60.2 8,58 5.8,56.9 4.7,55.4 4.7,54 v 2 c 0,1.4 1.1,2.9 3.3,4 4.4,2.2 11.6,2.2 16,0 2.2,-1.1 3.3,-2.6 3.3,-4 v -2 c 0,1.4 -1.1,2.9 -3.3,4 z" />
          <path
             style="fill:#999999"
             inkscape:connector-curvature="0"
             id="path525"
             d="m 7,8 v 46 c 0,1.2 0.9,2.3 2.6,3.2 3.5,1.8 9.2,1.8 12.7,0 1.8,-0.9 2.6,-2 2.6,-3.2 V 8 Z" />
          <path
             style="opacity:0.2"
             inkscape:connector-curvature="0"
             id="path527"
             d="m 7,8 v 46 c 0,1.2 0.9,2.3 2.6,3.2 3.5,1.8 9.2,1.8 12.7,0 1.8,-0.9 2.6,-2 2.6,-3.2 V 8 Z" />
          <path
             style="fill:#999999"
             inkscape:connector-curvature="0"
             id="path529"
             d="M 24,4 C 19.6,1.8 12.4,1.8 8,4 5.8,5.1 4.7,6.6 4.7,8 v 2 c 0,1.4 1.1,2.9 3.3,4 4.4,2.2 11.6,2.2 16,0 2.2,-1.1 3.3,-2.6 3.3,-4 V 8 C 27.3,6.6 26.2,5.1 24,4 Z" />
          <path
             style="opacity:0.3"
             inkscape:connector-curvature="0"
             id="path531"
             d="m 22.4,4.8 c 3.5,1.8 3.5,4.6 0,6.4 C 18.9,13 13.2,13 9.7,11.2 6.2,9.4 6.2,6.6 9.7,4.8 13.2,3 18.8,3.1 22.4,4.8 Z" />
          <path
             style="opacity:0.1"
             inkscape:connector-curvature="0"
             id="path533"
             d="M 24,12 C 19.6,14.2 12.4,14.2 8,12 5.8,10.9 4.7,9.4 4.7,8 v 2 c 0,1.4 1.1,2.9 3.3,4 4.4,2.2 11.6,2.2 16,0 2.2,-1.1 3.3,-2.6 3.3,-4 V 8 c 0,1.4 -1.1,2.9 -3.3,4 z" />
          <path
             style="fill:#999999"
             inkscape:connector-curvature="0"
             id="path535"
             d="m 26.6,28.1 -2,-1 c -1.2,-0.6 -2.8,-0.5 -4.6,0.4 -3.6,1.8 -6.5,6.2 -6.5,9.7 0,1.9 0.8,3.2 2.1,3.7 l 1.7,0.8 z" />
          <path
             style="opacity:0.1"
             inkscape:connector-curvature="0"
             id="path537"
             d="m 26.6,28.1 -2,-1 c -1.2,-0.6 -2.8,-0.5 -4.6,0.4 -3.6,1.8 -6.5,6.2 -6.5,9.7 0,1.9 0.8,3.2 2.1,3.7 l 1.7,0.8 z" />
          <path
             style="fill:#999999"
             inkscape:connector-curvature="0"
             id="path539"
             d="m 29.7,27.6 -2,-1 C 26.3,25.9 24.3,26 22,27.1 c -4.4,2.2 -8,7.6 -8,12 0,2.3 1,3.9 2.6,4.6 l 1.5,0.8 c 1.5,0.9 3.6,0.8 5.9,-0.3 4.4,-2.2 8,-7.6 8,-12 0,-2.4 -0.9,-3.9 -2.3,-4.6 z" />
          <path
             style="opacity:0.2"
             inkscape:connector-curvature="0"
             id="path541"
             d="m 32,32.1 c 0,4.4 -3.6,9.8 -8,12 -4.4,2.2 -8,0.4 -8,-4 0,-4.4 3.6,-9.8 8,-12 4.4,-2.2 8,-0.5 8,4 z" />
          <path
             style="fill:#999999"
             inkscape:connector-curvature="0"
             id="path543"
             d="M 30,34.1 27.4,32.8 C 26.8,32.5 25.9,32.5 25,33 c -1.9,0.9 -3.4,3.2 -3.4,5.1 0,1 0.4,1.7 1.1,2 l 2.4,1.2 c 0.6,0.4 1.5,0.4 2.5,-0.1 1.9,-0.9 3.4,-3.2 3.4,-5.1 0,-1 -0.4,-1.7 -1,-2 z" />
          <path
             style="opacity:0.2"
             inkscape:connector-curvature="0"
             id="path545"
             d="m 31,36 c 0,1.9 -1.5,4.2 -3.4,5.1 -1.9,0.9 -3.4,0.2 -3.4,-1.7 0,-1.9 1.5,-4.2 3.4,-5.1 1.9,-0.9 3.4,-0.2 3.4,1.7 z" />
          <path
             style="fill:#999999"
             inkscape:connector-curvature="0"
             id="path547"
             d="m 32.5,38.1 -3.2,-1.7 c -0.3,-0.2 -0.7,-0.1 -1.2,0.1 -1,0.5 -1.7,1.6 -1.7,2.6 0,0.5 0.2,0.8 0.6,1 l 3.1,1.7 c 0.3,0.2 0.8,0.2 1.3,-0.1 1,-0.5 1.7,-1.6 1.7,-2.6 -0.1,-0.5 -0.3,-0.8 -0.6,-1 z" />
          <path
             style="opacity:0.2"
             inkscape:connector-curvature="0"
             id="path549"
             d="m 33,39.1 c 0,1 -0.8,2.1 -1.7,2.6 -1,0.5 -1.7,0.1 -1.7,-0.9 0,-1 0.8,-2.1 1.7,-2.6 0.9,-0.4 1.7,-0.1 1.7,0.9 z" />
          <path
             style="fill:#cc291f"
             inkscape:connector-curvature="0"
             id="path551"
             d="m 32.9,30.8 c -1.1,0 -2.2,0.3 -3.4,0.9 -4,2 -7.1,6.7 -7.1,10.6 0,3 1.8,5 4.6,5 1.1,0 2.2,-0.3 3.3,-0.9 4,-2 7.1,-6.7 7.1,-10.6 0.1,-3 -1.7,-5 -4.5,-5 z m 2.6,4.4 -2.7,1.3 c -0.3,-0.6 -1,-0.9 -1.8,-0.8 v -2.5 c 0.7,-0.3 1.3,-0.4 1.9,-0.4 1.5,0 2.4,0.8 2.6,2.4 z M 29,34.4 v 2.4 c -0.8,0.7 -1.4,1.6 -1.8,2.5 l -2.5,1.2 C 25.4,38.2 27,35.9 29,34.4 Z m -4.5,8.5 2.7,-1.3 c 0.3,0.7 1,1 1.8,0.9 V 45 c -0.7,0.3 -1.3,0.4 -1.9,0.4 -1.5,-0.1 -2.4,-1 -2.6,-2.5 z m 6.5,0.8 v -2.4 c 0.8,-0.7 1.5,-1.7 1.8,-2.7 l 2.5,-1.2 C 34.7,39.8 33,42.2 31,43.7 Z" />
          <path
             style="opacity:0.28999999"
             inkscape:connector-curvature="0"
             id="path553"
             d="m 32.9,30.8 c -1.1,0 -2.2,0.3 -3.4,0.9 -4,2 -7.1,6.7 -7.1,10.6 0,3 1.8,5 4.6,5 1.1,0 2.2,-0.3 3.3,-0.9 4,-2 7.1,-6.7 7.1,-10.6 0.1,-3 -1.7,-5 -4.5,-5 z m 2.6,4.4 -2.7,1.3 c -0.3,-0.6 -1,-0.9 -1.8,-0.8 v -2.5 c 0.7,-0.3 1.3,-0.4 1.9,-0.4 1.5,0 2.4,0.8 2.6,2.4 z M 29,34.4 v 2.4 c -0.8,0.7 -1.4,1.6 -1.8,2.5 l -2.5,1.2 C 25.4,38.2 27,35.9 29,34.4 Z m -4.5,8.5 2.7,-1.3 c 0.3,0.7 1,1 1.8,0.9 V 45 c -0.7,0.3 -1.3,0.4 -1.9,0.4 -1.5,-0.1 -2.4,-1 -2.6,-2.5 z m 6.5,0.8 v -2.4 c 0.8,-0.7 1.5,-1.7 1.8,-2.7 l 2.5,-1.2 C 34.7,39.8 33,42.2 31,43.7 Z" />
          <path
             style="fill:#999999"
             inkscape:connector-curvature="0"
             id="path555"
             d="m 35.5,39.1 -3.2,-1.7 c -0.3,-0.2 -0.7,-0.1 -1.2,0.1 -1,0.5 -1.7,1.6 -1.7,2.6 0,0.5 0.2,0.8 0.6,1 l 3.1,1.7 c 0.3,0.2 0.8,0.2 1.3,-0.1 1,-0.5 1.7,-1.6 1.7,-2.6 -0.1,-0.5 -0.3,-0.8 -0.6,-1 z" />
          <path
             style="opacity:0.2"
             inkscape:connector-curvature="0"
             id="path557"
             d="m 36,40.1 c 0,1 -0.8,2.1 -1.7,2.6 -0.9,0.5 -1.7,0.1 -1.7,-0.9 0,-1 0.8,-2.1 1.7,-2.6 0.9,-0.5 1.7,-0.1 1.7,0.9 z" />
        </g>
      </g>
    </g>
    <g
       transform="translate(32,456)"
       class="top-level-node"
       id="i450">
      <g
         id="g604">
        <g
           id="g602">
          <path
             style="fill:#999999"
             inkscape:connector-curvature="0"
             id="path564"
             d="m 15.7,12.6 -2,-1 C 12.3,10.9 10.3,11 8,12.1 c -4.4,2.2 -8,7.6 -8,12 0,2.3 1,3.9 2.6,4.6 l 1.5,0.8 c 1.5,0.9 3.6,0.8 5.9,-0.3 4.4,-2.2 8,-7.6 8,-12 0,-2.4 -0.9,-3.9 -2.3,-4.6 z" />
          <path
             style="opacity:0.2"
             inkscape:connector-curvature="0"
             id="path566"
             d="m 18,17.1 c 0,4.4 -3.6,9.8 -8,12 -4.4,2.2 -8,0.4 -8,-4 0,-4.4 3.6,-9.8 8,-12 4.4,-2.2 8,-0.5 8,4 z" />
          <path
             style="fill:#999999"
             inkscape:connector-curvature="0"
             id="path568"
             d="m 56.6,35.1 -42,-21 c -1.2,-0.6 -2.8,-0.5 -4.6,0.4 -3.6,1.8 -6.5,6.2 -6.5,9.7 0,1.9 0.8,3.2 2.1,3.7 l 41.7,20.8 z" />
          <path
             style="opacity:0.1"
             inkscape:connector-curvature="0"
             id="path570"
             d="m 56.6,35.1 -42,-21 c -1.2,-0.6 -2.8,-0.5 -4.6,0.4 -3.6,1.8 -6.5,6.2 -6.5,9.7 0,1.9 0.8,3.2 2.1,3.7 l 41.7,20.8 z" />
          <path
             style="fill:#999999"
             inkscape:connector-curvature="0"
             id="path572"
             d="m 61.7,35.6 -2,-1 C 58.3,33.9 56.3,34 54,35.1 c -4.4,2.2 -8,7.6 -8,12 0,2.3 1,3.9 2.6,4.6 l 1.5,0.8 c 1.5,0.9 3.6,0.8 5.9,-0.3 4.4,-2.2 8,-7.6 8,-12 0,-2.4 -0.9,-3.9 -2.3,-4.6 z" />
          <path
             style="opacity:0.2"
             inkscape:connector-curvature="0"
             id="path574"
             d="m 64,40.1 c 0,4.4 -3.6,9.8 -8,12 -4.4,2.2 -8,0.4 -8,-4 0,-4.4 3.6,-9.8 8,-12 4.4,-2.2 8,-0.5 8,4 z" />
          <path
             style="opacity:0.2"
             inkscape:connector-curvature="0"
             id="path576"
             d="m 62.5,40.8 c 0,3.6 -2.9,8 -6.5,9.7 -3.6,1.8 -6.5,0.3 -6.5,-3.3 0,-3.6 2.9,-8 6.5,-9.7 3.6,-1.7 6.5,-0.3 6.5,3.3 z" />
          <path
             style="fill:none;stroke:#cc291f;stroke-width:2;stroke-miterlimit:10"
             inkscape:connector-curvature="0"
             id="path578"
             stroke-miterlimit="10"
             d="m 38.4,4.8 c 3.5,1.8 3.5,4.6 0,6.4 -3.5,1.8 -9.2,1.8 -12.7,0 -3.5,-1.8 -3.5,-4.6 0,-6.4 3.5,-1.8 9.1,-1.7 12.7,0 z" />
          <path
             style="fill:#999999"
             inkscape:connector-curvature="0"
             id="path580"
             d="m 23,16 v 12 c 0,1.2 0.9,2.3 2.6,3.2 3.5,1.8 9.2,1.8 12.7,0 1.8,-0.9 2.6,-2 2.6,-3.2 V 16 Z" />
          <path
             style="opacity:0.2"
             inkscape:connector-curvature="0"
             id="path582"
             d="m 23,16 v 12 c 0,1.2 0.9,2.3 2.6,3.2 3.5,1.8 9.2,1.8 12.7,0 1.8,-0.9 2.6,-2 2.6,-3.2 V 16 Z" />
          <path
             style="fill:#999999"
             inkscape:connector-curvature="0"
             id="path584"
             d="M 40,12 C 35.6,9.8 28.4,9.8 24,12 c -2.2,1.1 -3.3,2.6 -3.3,4 v 2 c 0,1.4 1.1,2.9 3.3,4 4.4,2.2 11.6,2.2 16,0 2.2,-1.1 3.3,-2.6 3.3,-4 v -2 c 0,-1.4 -1.1,-2.9 -3.3,-4 z" />
          <path
             style="opacity:0.1"
             inkscape:connector-curvature="0"
             id="path586"
             d="m 40,20 c -4.4,2.2 -11.6,2.2 -16,0 -2.2,-1.1 -3.3,-2.6 -3.3,-4 v 2 c 0,1.4 1.1,2.9 3.3,4 4.4,2.2 11.6,2.2 16,0 2.2,-1.1 3.3,-2.6 3.3,-4 v -2 c 0,1.4 -1.1,2.9 -3.3,4 z" />
          <path
             style="fill:#999999"
             inkscape:connector-curvature="0"
             id="path588"
             d="m 34.8,12.1 c -1.6,-0.8 -4.1,-0.8 -5.7,0 C 28.4,12.5 28,13 28,13.5 V 16 c 0,0.5 0.4,1 1.2,1.4 1.6,0.8 4.1,0.8 5.7,0 C 35.6,17 36,16.5 36,16 v -2.5 c 0,-0.5 -0.4,-1 -1.2,-1.4 z" />
          <path
             style="opacity:0.1"
             inkscape:connector-curvature="0"
             id="path590"
             d="m 34.8,14.9 c -1.6,0.8 -4.1,0.8 -5.7,0 C 28.4,14.5 28,14 28,13.5 V 16 c 0,0.5 0.4,1 1.2,1.4 1.6,0.8 4.1,0.8 5.7,0 C 35.6,17 36,16.5 36,16 v -2.5 c 0,0.5 -0.4,1 -1.2,1.4 z" />
          <path
             style="fill:#999999"
             inkscape:connector-curvature="0"
             id="path592"
             d="M 33.4,7.3 C 32.6,6.9 31.4,6.9 30.6,7.3 30.2,7.5 30,7.7 30,8 v 5.2 c 0,0.3 0.2,0.5 0.6,0.7 0.8,0.4 2,0.4 2.8,0 0.4,-0.2 0.6,-0.5 0.6,-0.7 V 8 C 34,7.7 33.8,7.5 33.4,7.3 Z" />
          <path
             style="opacity:0.1"
             inkscape:connector-curvature="0"
             id="path594"
             d="m 33.4,8.7 c -0.8,0.4 -2,0.4 -2.8,0 C 30.2,8.5 30,8.3 30,8 v 5.2 c 0,0.3 0.2,0.5 0.6,0.7 0.8,0.4 2,0.4 2.8,0 0.4,-0.2 0.6,-0.5 0.6,-0.7 V 8 c 0,0.3 -0.2,0.5 -0.6,0.7 z" />
          <path
             style="fill:#cc291f"
             inkscape:connector-curvature="0"
             id="path596"
             d="M 38.8,3.9 C 37,3 34.6,2.5 32,2.5 29.4,2.5 27,3 25.2,3.9 23.1,5 22,6.4 22,8 c 0,1.6 1.1,3 3.2,4.1 1.8,0.9 4.3,1.4 6.8,1.4 2.5,0 5,-0.5 6.8,-1.4 C 40.9,11 42,9.6 42,8 42,6.4 40.9,5 38.8,3.9 Z M 39.6,7 H 35.4 C 35.2,6.9 35,6.7 34.8,6.6 34.3,6.3 33.6,6.2 33,6.1 V 4.5 c 1.9,0.1 3.6,0.5 4.9,1.2 0.8,0.4 1.4,0.8 1.7,1.3 z M 26.1,5.7 C 27.4,5 29.1,4.7 31,4.5 V 6 C 30.3,6.1 29.7,6.3 29.2,6.5 28.9,6.6 28.8,6.8 28.6,6.9 H 24.4 C 24.7,6.5 25.3,6.1 26.1,5.7 Z M 24.4,9 h 4.2 c 0.2,0.1 0.4,0.3 0.6,0.4 0.5,0.3 1.2,0.4 1.8,0.5 v 1.5 C 29.1,11.3 27.4,10.9 26.1,10.2 25.3,9.9 24.7,9.5 24.4,9 Z m 13.5,1.3 C 36.6,11 34.8,11.4 33,11.5 V 9.9 C 33.7,9.8 34.3,9.6 34.8,9.4 35.1,9.3 35.2,9.1 35.4,9 h 4.2 c -0.3,0.5 -0.9,0.9 -1.7,1.3 z" />
          <path
             style="fill:#999999"
             inkscape:connector-curvature="0"
             id="path598"
             d="M 33.4,4.3 C 32.6,3.9 31.4,3.9 30.6,4.3 30.2,4.5 30,4.7 30,5 v 3 c 0,0.3 0.2,0.5 0.6,0.7 0.8,0.4 2,0.4 2.8,0 C 33.8,8.5 34,8.3 34,8 V 5 C 34,4.7 33.8,4.5 33.4,4.3 Z" />
          <path
             style="opacity:0.1"
             inkscape:connector-curvature="0"
             id="path600"
             d="m 33.4,5.7 c -0.8,0.4 -2,0.4 -2.8,0 C 30.2,5.5 30,5.3 30,5 v 3 c 0,0.3 0.2,0.5 0.6,0.7 0.8,0.4 2,0.4 2.8,0 C 33.8,8.5 34,8.3 34,8 V 5 c 0,0.3 -0.2,0.5 -0.6,0.7 z" />
        </g>
      </g>
    </g>
  </g>
  <g
     id="selection-layer"
     transform="matrix(0.37892914,0,0,0.37892914,244.89527,-48.213562)" />
</svg>
