<?xml version="1.0" encoding="UTF-8"?>
<!-- Created with Inkscape (http://www.inkscape.org/) -->
<svg width="118.94mm" height="83.479mm" version="1.1" viewBox="0 0 118.94 83.479" xmlns="http://www.w3.org/2000/svg" xmlns:cc="http://creativecommons.org/ns#" xmlns:dc="http://purl.org/dc/elements/1.1/" xmlns:rdf="http://www.w3.org/1999/02/22-rdf-syntax-ns#">
 <defs>
  <clipPath id="clipPath136569">
   <path d="m0 2270.3h3066.8v-2270.3h-3066.8z"/>
  </clipPath>
  <clipPath id="clipPath136557">
   <path d="m1052 2171.3c-0.922-0.535-2.417-0.535-3.332 0-0.454 0.264-0.681 0.611-0.683 0.959l0.017-9.36c0-0.348 0.23-0.695 0.685-0.959 0.916-0.534 2.411-0.534 3.333 1e-3 0.463 0.268 0.696 0.62 0.695 0.972l-0.019 9.361c0-0.352-0.231-0.704-0.696-0.972"/>
  </clipPath>
  <clipPath id="clipPath136545">
   <path d="m1049.2 2172.9c-0.303-0.175-0.454-0.405-0.454-0.632l0.02-9.361c-1e-3 0.229 0.149 0.458 0.453 0.632 0.6 0.348 1.575 0.348 2.175 0 0.295-0.173 0.444-0.398 0.445-0.626l-0.019 9.36c0 0.228-0.15 0.454-0.446 0.626-0.299 0.173-0.693 0.26-1.087 0.26s-0.787-0.086-1.087-0.259"/>
  </clipPath>
  <clipPath id="clipPath136533">
   <path d="m0 2270.3h3066.8v-2270.3h-3066.8z"/>
  </clipPath>
  <clipPath id="clipPath136521">
   <path d="m1065.7 2163.9c-0.923-0.532-2.417-0.532-3.333 0-0.455 0.265-0.684 0.612-0.684 0.959l0.019-9.36c1e-3 -0.348 0.23-0.694 0.684-0.958 0.917-0.532 2.411-0.532 3.332 0 0.465 0.269 0.697 0.621 0.696 0.973l-0.019 9.36c0-0.351-0.231-0.704-0.695-0.973"/>
  </clipPath>
  <clipPath id="clipPath136509">
   <path d="m1063 2165.5c-0.302-0.176-0.453-0.404-0.453-0.634l0.019-9.36c0 0.229 0.151 0.458 0.454 0.633 0.6 0.348 1.577 0.348 2.173 0 0.297-0.174 0.446-0.399 0.446-0.627l-0.019 9.361c-1e-3 0.228-0.149 0.453-0.445 0.625-0.299 0.174-0.693 0.261-1.088 0.261-0.393 0-0.787-0.086-1.087-0.259"/>
  </clipPath>
  <clipPath id="clipPath136477">
   <path d="m0 2270.3h3066.8v-2270.3h-3066.8z"/>
  </clipPath>
  <clipPath id="clipPath136465">
   <path d="m1010.6 2165.3-0.899-0.523c1.233 0.718 2.942 0.619 4.826-0.469l0.899 0.523c-1.092 0.629-2.125 0.928-3.04 0.929-0.665 0-1.267-0.158-1.786-0.46"/>
  </clipPath>
  <clipPath id="clipPath136453">
   <path d="m0 2270.3h3066.8v-2270.3h-3066.8z"/>
  </clipPath>
  <clipPath id="clipPath136441">
   <path d="m1011 2162.6c-0.894-0.518-1.446-1.622-1.452-3.185-0.01-3.156 2.215-7.009 4.961-8.595l0.9 0.523c-2.747 1.587-4.972 5.438-4.963 8.593 0.01 1.565 0.559 2.668 1.453 3.186z"/>
  </clipPath>
  <clipPath id="clipPath136429">
   <path d="m0 2270.3h3066.8v-2270.3h-3066.8z"/>
  </clipPath>
  <clipPath id="clipPath135445">
   <path d="m0 2270.3h3066.8v-2270.3h-3066.8z"/>
  </clipPath>
  <clipPath id="clipPath135433">
   <path d="m999.05 2129.1c-0.523-0.303-1.371-0.303-1.89 0-0.261 0.149-0.391 0.347-0.392 0.544l0.053-26.426c2e-3 -0.196 0.131-0.392 0.392-0.545 0.521-0.301 1.367-0.301 1.892 0 0.261 0.153 0.393 0.352 0.393 0.55l-0.053 26.428c1e-3 -0.199-0.132-0.401-0.395-0.551"/>
  </clipPath>
  <clipPath id="clipPath135421">
   <path d="m0 2270.3h3066.8v-2270.3h-3066.8z"/>
  </clipPath>
  <clipPath id="clipPath135409">
   <path d="m995.45 2131.5c-0.524-0.301-1.374-0.301-1.892 0-0.261 0.151-0.391 0.349-0.391 0.547l0.052-26.426c2e-3 -0.198 0.132-0.394 0.392-0.547 0.52-0.3 1.369-0.3 1.89 0 0.265 0.154 0.396 0.354 0.396 0.551l-0.054 26.427c1e-3 -0.198-0.132-0.399-0.393-0.552"/>
  </clipPath>
  <clipPath id="clipPath135397">
   <path d="m0 2270.3h3066.8v-2270.3h-3066.8z"/>
  </clipPath>
  <clipPath id="clipPath135385">
   <path d="m1022.6 2115.3c-0.524-0.302-1.371-0.302-1.892 0-0.26 0.15-0.391 0.348-0.391 0.546l0.056-26.428c1e-3 -0.197 0.13-0.393 0.39-0.546 0.52-0.3 1.367-0.3 1.891 0 0.264 0.153 0.394 0.353 0.394 0.553l-0.054 26.427c0-0.201-0.131-0.401-0.394-0.552"/>
  </clipPath>
  <clipPath id="clipPath135373">
   <path d="m0 2270.3h3066.8v-2270.3h-3066.8z"/>
  </clipPath>
  <clipPath id="clipPath135361">
   <path d="m1019 2117.7c-0.524-0.303-1.372-0.303-1.892 0-0.26 0.15-0.39 0.346-0.39 0.545l0.052-26.426c0-0.199 0.132-0.394 0.392-0.546 0.52-0.302 1.368-0.302 1.891 0 0.264 0.152 0.395 0.353 0.395 0.551l-0.054 26.427c0-0.199-0.132-0.4-0.394-0.551"/>
  </clipPath>
  <clipPath id="clipPath135313">
   <path d="m0 2270.3h3066.8v-2270.3h-3066.8z"/>
  </clipPath>
  <clipPath id="clipPath135301">
   <path d="m998.24 2089.9 8e-3 -2.78c7.916-4.598 20.784-4.594 28.751 0l-0.01 2.78c-7.967-4.6-20.835-4.604-28.751 0"/>
  </clipPath>
  <clipPath id="clipPath135285">
   <path d="m989.96 2096.8c8e-3 -2.993 1.977-5.982 5.903-8.264l-7e-3 2.779c-3.928 2.281-5.895 5.27-5.905 8.264z"/>
  </clipPath>
  <clipPath id="clipPath135273">
   <path d="m0 2270.3h3066.8v-2270.3h-3066.8z"/>
  </clipPath>
  <clipPath id="clipPath135261">
   <path d="m994.76 2085.2 0.01-3.049c9.69-5.632 25.451-5.633 35.204-1e-3l-0.01 3.05c-9.752-5.633-25.515-5.633-35.205 0"/>
  </clipPath>
  <clipPath id="clipPath135245">
   <path d="m984.61 2094c9e-3 -3.668 2.42-7.326 7.234-10.126l-9e-3 3.049c-4.814 2.799-7.224 6.46-7.234 10.126 3e-3 -1.015 7e-3 -2.032 9e-3 -3.049"/>
  </clipPath>
  <clipPath id="clipPath135233">
   <path d="m0 2270.3h3066.8v-2270.3h-3066.8z"/>
  </clipPath>
  <clipPath id="clipPath135221">
   <path d="m991.38 2080.1 8e-3 -3.225c11.556-6.714 30.339-6.714 41.967 0l-0.01 3.225c-11.629-6.714-30.412-6.714-41.967 0"/>
  </clipPath>
  <clipPath id="clipPath135205">
   <path d="m979.28 2091c0.012-4.371 2.885-8.737 8.625-12.073l-9e-3 3.227c-5.74 3.335-8.613 7.701-8.625 12.069z"/>
  </clipPath>
  <clipPath id="clipPath134949">
   <path d="m0 2270.3h3066.8v-2270.3h-3066.8z"/>
  </clipPath>
  <clipPath id="clipPath134957">
   <path d="m1084.6 2106.2h88.91v-69.38h-88.91z"/>
  </clipPath>
 </defs>
 <metadata>
  <rdf:RDF>
   <cc:Work rdf:about="">
    <dc:format>image/svg+xml</dc:format>
    <dc:type rdf:resource="http://purl.org/dc/dcmitype/StillImage"/>
    <dc:title/>
   </cc:Work>
  </rdf:RDF>
 </metadata>
 <g transform="translate(117.39 -238.53)">
  <rect transform="matrix(-.86603 .5 .86603 .5 0 0)" x="281.19" y="226.52" width="80.887" height="55.429" fill="#ccc"/>
  <g transform="matrix(-.35278 0 0 -.35278 307.5 1028.4)">
   <g clip-path="url(#clipPath134949)">
    <g clip-path="url(#clipPath134957)" opacity=".25">
     <g transform="translate(1105.6 2036.8)">
      <path d="m0 0 67.845 40.382-51.35 28.999-37.56-69.381z" fill="#231f20"/>
     </g>
    </g>
   </g>
  </g>
  <g transform="matrix(-.35278 0 0 -.35278 -52.862 247)">
   <path d="m0 0 0.306-71.958-10.894-6.822 0.207 72.746z" fill="#99764d"/>
  </g>
  <g transform="matrix(-.35278 0 0 -.35278 -35.554 257.06)">
   <path d="m0 0-0.207-72.748-10.375-6.029 0.207 72.747z" fill="#825e3b"/>
  </g>
  <g transform="matrix(-.35278 0 0 -.35278 -31.893 259.19)">
   <path d="m0 0-0.206-72.747-30.705 17.728 0.204 72.747z" fill="#c9a477"/>
  </g>
  <g transform="matrix(-.35278 0 0 -.35278 -68.013 275.81)">
   <path d="m0 0-0.207-74.607-92.227 54.925 0.422 72.823z" fill="#99764d"/>
  </g>
  <g transform="matrix(-.35278 0 0 -.35278 -75.185 284.19)">
   <path d="m0 0-0.206-72.747-30.705 17.727 0.206 72.747z" fill="#c9a477"/>
  </g>
  <g transform="matrix(-.35278 0 0 -.35278 -96.154 272)">
   <path d="m0 0-0.208-72.746-59.437-34.541 0.206 72.747z" fill="#825e3b"/>
  </g>
  <g transform="matrix(-.35278 0 0 -.35278 -96.154 272)">
   <path d="m0 0-59.439-34.54-30.705 17.727 10.375 6.029-92.011 53.141-10.376-6.03-30.706 17.728 59.438 34.541 30.706-17.727-10.382-6.034 92.011-53.139 10.382 6.033z" fill="#ded5c0"/>
  </g>
  <g transform="matrix(-.35278 0 0 -.35278 -51.808 245.56)">
   <path d="m0 0-0.015-5.092-26.904 15.533 0.013 5.094z" fill="#787870"/>
  </g>
  <g transform="matrix(-.35278 0 0 -.35278 -54.478 245.56)">
   <path d="m0 0-0.015-5.092-10.376-6.03 0.016 5.092z" fill="#787870"/>
  </g>
  <g transform="matrix(-.35278 0 0 -.35278 -42.316 240.08)">
   <path d="m0 0-0.014-5.094-55.668-32.35 0.015 5.093z" fill="#acaca0"/>
  </g>
  <g transform="matrix(-.35278 0 0 -.35278 -32.18 258.52)">
   <path d="m0 0-0.015-5.092-34.506 19.922 0.015 5.093z" fill="#787870"/>
  </g>
  <g transform="matrix(-.35278 0 0 -.35278 -35.84 256.39)">
   <path d="m0 0-0.014-5.093-10.376-6.03 0.015 5.092z" fill="#acaca0"/>
  </g>
  <g transform="matrix(-.35278 0 0 -.35278 -81.946 267.21)">
   <path d="m0 0-0.015-5.092-95.811 55.334 0.014 5.091z" fill="#787870"/>
  </g>
  <g transform="matrix(-.35278 0 0 -.35278 -85.608 265.08)">
   <path d="m0 0-0.014-5.091-10.382-6.033 0.015 5.092z" fill="#acaca0"/>
  </g>
  <g transform="matrix(-.35278 0 0 -.35278 -95.1 270.56)">
   <path d="m0 0-0.014-5.092-26.905 15.534 0.013 5.091z" fill="#787870"/>
  </g>
  <g transform="matrix(-.35278 0 0 -.35278 -66.959 274.36)">
   <path d="m0 0-0.014-5.093-88.211 50.946 0.014 5.092z" fill="#787870"/>
  </g>
  <g transform="matrix(-.35278 0 0 -.35278 -69.632 274.36)">
   <path d="m0 0-0.014-5.093-10.382-6.032 0.013 5.091z" fill="#acaca0"/>
  </g>
  <g transform="matrix(-.35278 0 0 -.35278 -97.77 270.56)">
   <path d="m0 0-0.014-5.093-63.207-36.733 0.014 5.093z" fill="#acaca0"/>
  </g>
  <g transform="matrix(-.35278 0 0 -.35278 -75.461 281.97)">
   <path d="m0 0 55.667 32.35-26.905 15.533-10.382-6.032-95.811 55.333 10.382 6.033-26.906 15.534-55.667-32.35 26.905-15.534 10.382 6.032 95.811-55.333-10.383-6.033zm28.731 52.269 34.506-19.922-63.207-36.733-34.507 19.922 10.377 6.03-88.212 50.946-10.375-6.031-34.506 19.923 63.209 36.732 34.505-19.922-10.375-6.03 88.208-50.944z" fill="#c0c0b3"/>
  </g>
  <g transform="matrix(-.35278 0 0 -.35278 -75.472 283.52)">
   <path d="m0 0-0.014-5.093-34.507 19.924 0.015 5.091z" fill="#787870"/>
  </g>
  <g transform="matrix(-.35278 0 0 -.35278 -40.485 246.94)">
   <path d="m0 0-0.017-5.233-4.43 2.557 0.015 5.233z" fill="#77412f"/>
  </g>
  <g transform="matrix(-.35278 0 0 -.35278 -38.921 246.04)">
   <path d="m0 0-0.015-5.233-10.18-5.915 0.015 5.232z" fill="#8b4e34"/>
  </g>
  <g transform="matrix(-.35278 0 0 -.35278 -36.896 249.44)">
   <path d="m0 0-0.015-8.34-6.452 3.725 0.012 8.34z" fill="#b59264"/>
  </g>
  <g transform="matrix(-.35278 0 0 -.35278 -41.196 246.94)">
   <path d="m0 0-0.016-8.34-12.188-7.083 0.015 8.34z" fill="#99764d"/>
  </g>
  <g transform="matrix(-.35278 0 0 -.35278 -36.894 249.03)">
   <path d="m0 0 10.18 5.916-4.432 2.557-10.18-5.916zm5.742 9.641 6.453-3.725-12.189-7.083-6.454 3.724z" fill="#e0956c"/>
  </g>
  <g transform="matrix(-.35278 0 0 -.35278 -40.901 246.89)">
   <path d="m0 0-0.018-2.026-5.327-1.188 0.019 6.288z" fill="#99764d"/>
  </g>
  <g transform="matrix(-.35278 0 0 -.35278 -39.022 245.81)">
   <path d="m0 0-0.019-6.289-6.906-4.98-5.309 4.158z" fill="#825e3b"/>
  </g>
  <g transform="matrix(-.35278 0 0 -.35278 -36.587 249.9)">
   <path d="m0 0-0.018-1.499-7.754 4.477 0.016 1.497z" fill="#acaca0"/>
  </g>
  <g transform="matrix(-.35278 0 0 -.35278 -41.755 246.89)">
   <path d="m0 0-0.017-1.497-14.649-8.513 0.018 1.498z" fill="#787870"/>
  </g>
  <g transform="matrix(-.35278 0 0 -.35278 -36.584 249.4)">
   <path d="m0 0 12.235 7.109-5.326 3.075-12.234-7.111zm6.9 11.587 7.756-4.478-14.649-8.511-7.756 4.475z" fill="#c0c0b3"/>
  </g>
  <g transform="matrix(-.35278 0 0 -.35278 -37.401 246.74)">
   <path d="m0 0-2.417-1.45 5.057-3.383 2.418 1.523z" fill="#c0c0b3"/>
  </g>
  <g transform="matrix(-.35278 0 0 -.35278 -36.548 247.25)">
   <path d="m0 0 4.871-3.272-4.76-2.845z" fill="#99764d"/>
  </g>
  <g transform="matrix(-.35278 0 0 -.35278 -82.28 271.93)">
   <path d="m0 0-0.018-5.232-4.429 2.557 0.014 5.233z" fill="#77412f"/>
  </g>
  <g transform="matrix(-.35278 0 0 -.35278 -80.716 271.03)">
   <path d="m0 0-0.014-5.233-10.179-5.915 0.012 5.231z" fill="#8b4e34"/>
  </g>
  <g transform="matrix(-.35278 0 0 -.35278 -78.69 274.43)">
   <path d="m0 0-0.014-8.34-6.451 3.727 0.012 8.338z" fill="#b59264"/>
  </g>
  <g transform="matrix(-.35278 0 0 -.35278 -82.99 271.93)">
   <path d="m0 0-0.016-8.341-12.189-7.083 0.015 8.34z" fill="#99764d"/>
  </g>
  <g transform="matrix(-.35278 0 0 -.35278 -78.689 274.02)">
   <path d="m0 0 10.18 5.915-4.433 2.558-10.181-5.917zm5.741 9.641 6.453-3.726-12.19-7.084-6.453 3.725z" fill="#e0956c"/>
  </g>
  <g transform="matrix(-.35278 0 0 -.35278 -82.696 271.88)">
   <path d="m0 0-0.021-2.027-5.325-1.189 0.018 6.289z" fill="#99764d"/>
  </g>
  <g transform="matrix(-.35278 0 0 -.35278 -80.816 270.8)">
   <path d="m0 0-0.018-6.29-6.906-4.979-5.309 4.159z" fill="#825e3b"/>
  </g>
  <g transform="matrix(-.35278 0 0 -.35278 -78.382 274.89)">
   <path d="m0 0-0.018-1.5-7.756 4.477 0.017 1.499z" fill="#acaca0"/>
  </g>
  <g transform="matrix(-.35278 0 0 -.35278 -83.55 271.88)">
   <path d="m0 0-0.017-1.499-14.65-8.513 0.019 1.5z" fill="#787870"/>
  </g>
  <g transform="matrix(-.35278 0 0 -.35278 -78.379 274.39)">
   <path d="m0 0 12.235 7.111-5.328 3.074-12.233-7.11zm6.901 11.588 7.755-4.477-14.649-8.512-7.757 4.476z" fill="#c0c0b3"/>
  </g>
  <g transform="matrix(-.35278 0 0 -.35278 -79.196 271.73)">
   <path d="m0 0-2.417-1.451 5.057-3.382 2.417 1.523z" fill="#c0c0b3"/>
  </g>
  <g transform="matrix(-.35278 0 0 -.35278 -78.343 272.24)">
   <path d="m0 0 4.871-3.271-4.761-2.845z" fill="#99764d"/>
  </g>
  <g transform="matrix(-.35278 0 0 -.35278 -46.773 260.26)">
   <path d="m0 0 3.675 2.137-3.456 1.996-3.676-2.137z" fill="#c0c0b3"/>
  </g>
  <g transform="matrix(-.35278 0 0 -.35278 -56.854 268.49)">
   <path d="m0 0 3.676 2.136 0.037 6.787-3.675-2.136z" fill="#c0c0b3"/>
  </g>
  <g transform="matrix(-.35278 0 0 -.35278 -56.867 266.09)">
   <path d="m0 0 3.676 2.136-3.704 2.138-3.676-2.136z" fill="#c0c0b3"/>
  </g>
  <g transform="matrix(-.35278 0 0 -.35278 -55.56 265.34)">
   <path d="m0 0 3.676 2.136 0.015 5.35-3.676-2.135z" fill="#c0c0b3"/>
  </g>
  <g transform="matrix(-.35278 0 0 -.35278 -55.566 263.45)">
   <path d="m0 0 3.676 2.136-24.911 14.382-3.676-2.137z" fill="#c0c0b3"/>
  </g>
  <path d="m-45.812 258.25 0.0049 1.8874 1.2196-0.70414 0.01341 5.2278-11.314 6.5317-0.0134-5.2275 1.3067-0.75424-0.0053-1.8877z" fill="#99764d"/>
  <g transform="matrix(-.35278 0 0 -.35278 -64.408 275.84)">
   <path d="m0 0 0.865 0.502-23.457 13.243v13.338l-3.679 2.266 0.057 5.721-22.715 12.619-0.642-0.41 0.642-5.022-3.799 2.258-0.635-0.405 0.286-13.105-28.783 15.946-10.296-6.136-30.713 17.536-5e-3 0.535-1.046-0.836 31.88-18.259 10.137 6.189 29.067-16.919 0.659 0.398 0.352 13.466 3.132-2.645 0.655 0.392v5.501l20.926-11.626-0.056-5.694 3.684-2.27v-13.36z" fill="#787870"/>
  </g>
  <path d="m-64.146 276-0.27693-0.16051 8.2225-4.6948v-4.705l1.2975-0.79939-0.0194-2.0182 8.013-4.4517v1.9163l1.3398-0.79657 0.12347 4.7657 9.985-5.5379 3.5927 2.2038 11.176-6.3556v0.31503l-11.192 6.3835-3.5765-2.184-10.303 5.7206-0.12382-4.7505-1.337 0.79481v-1.9399l-7.3815 4.1007 0.01976 2.0084-1.2996 0.80116v4.7135z" fill="#d8d8d8"/>
  <g transform="matrix(-.35278 0 0 -.35278 -75.218 286.9)">
   <path d="m0 0 0.222 0.128 60.387 34.803-1.283 0.937-1e-3 -0.646-59.327-34.193-30.812 17.565 5e-3 0.596-1.243-0.918z" fill="#787870"/>
  </g>
  <g transform="matrix(-.35278 0 0 -.35278 -75.218 287.21)">
   <path d="m0 0 0.222 0.127 60.387 34.804-0.013 0.908-60.598-34.812-32.047 18.148-3e-3 -0.904z" fill="#d8d8d8"/>
  </g>
  <g transform="matrix(-.35278 0 0 -.35278 -75.169 304.56)">
   <path d="m0 0 0.22 0.128 60.387 34.803-1.281 0.936-3e-3 -0.645-59.326-34.194-30.81 17.565 4e-3 0.596-1.244-0.918z" fill="#787870"/>
  </g>
  <g transform="matrix(-.35278 0 0 -.35278 -75.132 305.5)">
   <path d="m0 0 60.712 34.927-0.012 2.694-60.598-34.81-32.047 18.146-4e-3 -2.688z" fill="#cccbca"/>
  </g>
  <g transform="matrix(-.35278 0 0 -.35278 -31.873 280.11)">
   <path d="m0 0 0.223 0.127 10.319 6.019-0.513 0.512-10.031-5.631-30.811 17.565 5e-3 0.597-1.244-0.917z" fill="#787870"/>
  </g>
  <g transform="matrix(-.35278 0 0 -.35278 -31.836 281.05)">
   <path d="m0 0 11.132 6.361-0.375 2.517-10.655-6.066-32.047 18.146-3e-3 -2.688z" fill="#cccbca"/>
  </g>
  <g transform="matrix(-.35278 0 0 -.35278 307.5 1028.4)">
   <g clip-path="url(#clipPath135205)">
    <g transform="translate(979.27 2094.2)">
     <path d="m0 0 8e-3 -3.224c0.012-4.37 2.886-8.736 8.625-12.072l-8e-3 3.226c-5.74 3.336-8.614 7.702-8.625 12.07" fill="#585852"/>
    </g>
   </g>
  </g>
  <g transform="matrix(-.35278 0 0 -.35278 -41.004 293.83)">
   <path d="m0 0 9e-3 -3.226 3.487-2.025-9e-3 3.224z" fill="#585852"/>
  </g>
  <g transform="matrix(-.35278 0 0 -.35278 307.5 1028.4)">
   <g clip-path="url(#clipPath135221)">
    <g transform="translate(991.38 2080.1)">
     <path d="m0 0 8e-3 -3.224c11.556-6.714 30.339-6.714 41.967 0l-8e-3 3.224c-11.629-6.714-30.413-6.714-41.967 0" fill="#585852"/>
    </g>
   </g>
  </g>
  <g transform="matrix(-.35278 0 0 -.35278 307.5 1028.4)">
   <g clip-path="url(#clipPath135233)">
    <g transform="translate(988.03 2106.5)">
     <path d="m0 0c-11.628-6.715-11.69-17.594-0.136-24.311l3.487-2.026c11.554-6.714 30.338-6.714 41.967 0z" fill="#93938a"/>
    </g>
   </g>
  </g>
  <g transform="matrix(-.35278 0 0 -.35278 307.5 1028.4)">
   <g clip-path="url(#clipPath135245)">
    <g transform="translate(984.6 2097)">
     <path d="m0 0 9e-3 -3.049c0.01-3.668 2.42-7.327 7.233-10.126l-9e-3 3.049c-4.813 2.799-7.223 6.459-7.233 10.126" fill="#585852"/>
    </g>
   </g>
  </g>
  <g transform="matrix(-.35278 0 0 -.35278 -42.392 292.16)">
   <path d="m0 0 9e-3 -3.049 2.927-1.699-0.01 3.049z" fill="#585852"/>
  </g>
  <g transform="matrix(-.35278 0 0 -.35278 307.5 1028.4)">
   <g clip-path="url(#clipPath135261)">
    <g transform="translate(994.76 2085.2)">
     <path d="m0 0 9e-3 -3.049c9.69-5.632 25.451-5.633 35.204-1e-3l-9e-3 3.05c-9.751-5.633-25.515-5.633-35.204 0" fill="#585852"/>
    </g>
   </g>
  </g>
  <g transform="matrix(-.35278 0 0 -.35278 307.5 1028.4)">
   <g clip-path="url(#clipPath135273)">
    <g transform="translate(991.95 2107.3)">
     <path d="m0 0c-9.754-5.63-9.806-14.76-0.115-20.393l2.926-1.699c9.689-5.633 25.453-5.633 35.204 0z" fill="#a5a59a"/>
    </g>
   </g>
  </g>
  <g transform="matrix(-.35278 0 0 -.35278 307.5 1028.4)">
   <g clip-path="url(#clipPath135285)">
    <g transform="translate(989.95 2099.6)">
     <path d="m0 0 8e-3 -2.779c9e-3 -2.993 1.977-5.982 5.904-8.264l-8e-3 2.779c-3.927 2.282-5.895 5.27-5.904 8.264" fill="#585852"/>
    </g>
   </g>
  </g>
  <g transform="matrix(-.35278 0 0 -.35278 -43.813 290.6)">
   <path d="m0 0 7e-3 -2.779 2.387-1.389-8e-3 2.779z" fill="#585852"/>
  </g>
  <g transform="matrix(-.35278 0 0 -.35278 307.5 1028.4)">
   <g clip-path="url(#clipPath135301)">
    <g transform="translate(998.24 2089.9)">
     <path d="m0 0 8e-3 -2.779c7.916-4.599 20.784-4.595 28.751 3e-3l-7e-3 2.78c-7.968-4.599-20.835-4.604-28.752-4e-3" fill="#585852"/>
    </g>
   </g>
  </g>
  <g transform="matrix(-.35278 0 0 -.35278 307.5 1028.4)">
   <g clip-path="url(#clipPath135313)">
    <g transform="translate(995.96 2108)">
     <path d="m0 0c-7.968-4.599-8.01-12.058-0.101-16.652l2.386-1.39c7.917-4.6 20.784-4.595 28.752 5e-3z" fill="#b2b2a8"/>
    </g>
   </g>
  </g>
  <g transform="matrix(-.35278 0 0 -.35278 -51.162 289.95)">
   <path d="m0 0 2.319 1.348-16.293 9.408-2.319-1.349z" fill="#b2b2a8"/>
  </g>
  <g transform="matrix(-.35278 0 0 -.35278 -45.414 286.63)">
   <path d="m0 0 2.32 1.349 0.07 24.962-2.319-1.347z" fill="#585852"/>
  </g>
  <g transform="matrix(-.35278 0 0 -.35278 -51.162 289.95)">
   <path d="m0 0 2.319 1.348 0.072 24.963-2.321-1.348z" fill="#463220"/>
  </g>
  <g transform="matrix(-.35278 0 0 -.35278 -51.187 281.14)">
   <path d="m0 0 2.321 1.348-16.295 9.407-2.319-1.347z" fill="#705133"/>
  </g>
  <g transform="matrix(-.35278 0 0 -.35278 -45.414 286.63)">
   <path d="m0 0 16.293-9.407 0.071 24.071-16.293 9.407zm21.794-12.602-27.288 15.756 0.093 32.695 27.286-15.755z" fill="#787870"/>
  </g>
  <g transform="matrix(-.35278 0 0 -.35278 -46.153 278.56)">
   <path d="m0 0-0.063-21.647 14.319-8.267 0.062 21.646z" fill="#47260e"/>
  </g>
  <g transform="matrix(-.35278 0 0 -.35278 -46.404 279.07)">
   <path d="m0 0-0.057-20.602 13.04-7.528 0.056 20.603z" fill="#663b1e"/>
  </g>
  <g transform="matrix(-.35278 0 0 -.35278 -53.102 291.07)">
   <path d="m0 0 2.318 1.349 0.094 32.695-2.321-1.348z" fill="#585852"/>
  </g>
  <g transform="matrix(-.35278 0 0 -.35278 -53.134 279.54)">
   <path d="m0 0 2.32 1.348-27.288 15.754-2.318-1.347z" fill="#8e8e85"/>
  </g>
  <g transform="matrix(-.35278 0 0 -.35278 307.5 1028.4)">
   <g clip-path="url(#clipPath135361)">
    <g transform="translate(1016.7 2118.3)">
     <path d="m0 0 0.053-26.426c3e-3 -0.199 0.131-0.394 0.391-0.547 0.52-0.3 1.368-0.3 1.891 0 0.264 0.153 0.395 0.354 0.395 0.551l-0.054 26.427c1e-3 -0.198-0.132-0.4-0.394-0.551-0.524-0.302-1.372-0.302-1.892 0-0.26 0.15-0.39 0.347-0.39 0.546" fill="#d8d8d8"/>
    </g>
   </g>
  </g>
  <g transform="matrix(-.35278 0 0 -.35278 307.5 1028.4)">
   <g clip-path="url(#clipPath135373)">
    <g transform="translate(1017.1 2118.8)">
     <path d="m0 0c-0.523-0.302-0.526-0.794-3e-3 -1.098 0.52-0.302 1.368-0.302 1.892 0 0.523 0.304 0.526 0.794 5e-3 1.096-0.521 0.303-1.371 0.303-1.894 2e-3" fill="#bebebe"/>
    </g>
   </g>
  </g>
  <g transform="matrix(-.35278 0 0 -.35278 307.5 1028.4)">
   <g clip-path="url(#clipPath135385)">
    <g transform="translate(1020.3 2115.8)">
     <path d="m0 0 0.055-26.428c1e-3 -0.197 0.131-0.393 0.391-0.546 0.519-0.3 1.367-0.3 1.891 0 0.264 0.154 0.394 0.353 0.394 0.553l-0.054 26.426c2e-3 -0.2-0.131-0.4-0.394-0.551-0.524-0.302-1.371-0.302-1.892 0-0.26 0.15-0.391 0.348-0.391 0.546" fill="#d8d8d8"/>
    </g>
   </g>
  </g>
  <g transform="matrix(-.35278 0 0 -.35278 307.5 1028.4)">
   <g clip-path="url(#clipPath135397)">
    <g transform="translate(1020.7 2116.4)">
     <path d="m0 0c-0.522-0.302-0.525-0.794-3e-3 -1.098 0.521-0.301 1.368-0.301 1.892 0 0.523 0.302 0.527 0.793 6e-3 1.096-0.523 0.303-1.372 0.303-1.895 2e-3" fill="#bebebe"/>
    </g>
   </g>
  </g>
  <g transform="matrix(-.35278 0 0 -.35278 307.5 1028.4)">
   <g clip-path="url(#clipPath135409)">
    <g transform="translate(993.17 2132.1)">
     <path d="m0 0 0.052-26.426c2e-3 -0.199 0.131-0.394 0.392-0.547 0.519-0.301 1.368-0.301 1.889 0 0.265 0.154 0.396 0.353 0.396 0.551l-0.054 26.426c1e-3 -0.197-0.132-0.399-0.393-0.551-0.524-0.301-1.373-0.301-1.892 0-0.261 0.151-0.39 0.349-0.39 0.547" fill="#d8d8d8"/>
    </g>
   </g>
  </g>
  <g transform="matrix(-.35278 0 0 -.35278 307.5 1028.4)">
   <g clip-path="url(#clipPath135421)">
    <g transform="translate(993.56 2132.6)">
     <path d="m0 0c-0.523-0.304-0.527-0.794-2e-3 -1.099 0.518-0.301 1.368-0.301 1.892 0 0.522 0.303 0.524 0.794 4e-3 1.097-0.523 0.303-1.37 0.303-1.894 2e-3" fill="#bebebe"/>
    </g>
   </g>
  </g>
  <g transform="matrix(-.35278 0 0 -.35278 307.5 1028.4)">
   <g clip-path="url(#clipPath135433)">
    <g transform="translate(996.77 2129.6)">
     <path d="m0 0 0.053-26.426c2e-3 -0.196 0.131-0.392 0.392-0.545 0.52-0.301 1.367-0.301 1.891 0 0.263 0.153 0.394 0.352 0.394 0.551l-0.054 26.427c1e-3 -0.198-0.131-0.4-0.393-0.551-0.524-0.303-1.372-0.303-1.892 0-0.26 0.149-0.39 0.347-0.391 0.544" fill="#d8d8d8"/>
    </g>
   </g>
  </g>
  <g transform="matrix(-.35278 0 0 -.35278 307.5 1028.4)">
   <g clip-path="url(#clipPath135445)">
    <g transform="translate(997.16 2130.2)">
     <path d="m0 0c-0.523-0.302-0.526-0.794-2e-3 -1.097 0.52-0.303 1.367-0.303 1.891 0 0.524 0.301 0.527 0.792 6e-3 1.095-0.524 0.303-1.371 0.303-1.895 2e-3" fill="#bebebe"/>
    </g>
   </g>
  </g>
  <g transform="matrix(-.35278 0 0 -.35278 -42.662 275.16)">
   <path d="m0 0 0.01-3.967 6.628-3.851-0.011 3.966z" fill="#bcbcb8"/>
  </g>
  <g transform="matrix(-.35278 0 0 -.35278 -45 276.51)">
   <path d="m0 0 0.011-3.967 4.991 2.882-0.01 3.966z" fill="#676760"/>
  </g>
  <g transform="matrix(-.35278 0 0 -.35278 -46.761 275.5)">
   <path d="m0 0 0.011-3.967 17.47-10.113-0.01 3.968z" fill="#bcbcb8"/>
  </g>
  <g transform="matrix(-.35278 0 0 -.35278 -51.162 280.08)">
   <path d="m0 0 0.012-3.969 6.616-3.844-0.011 3.967z" fill="#bcbcb8"/>
  </g>
  <g transform="matrix(-.35278 0 0 -.35278 -53.497 281.44)">
   <path d="m0 0 0.012-3.967 9.259 5.343-0.012 3.969z" fill="#676760"/>
  </g>
  <g transform="matrix(-.35278 0 0 -.35278 -42.662 275.16)">
   <path d="m0 0 6.627-3.852 4.992 2.882 17.47-10.113-4.993-2.88 6.616-3.846 9.259 5.345-30.712 17.807z" fill="#47473c"/>
  </g>
  <g transform="matrix(-.35278 0 0 -.35278 -42.662 273.29)">
   <path d="m0 0 0.01-3.966 6.628-3.851-0.011 3.968z" fill="#bcbcb8"/>
  </g>
  <g transform="matrix(-.35278 0 0 -.35278 -45 274.65)">
   <path d="m0 0 0.011-3.968 4.991 2.883-0.01 3.965z" fill="#676760"/>
  </g>
  <g transform="matrix(-.35278 0 0 -.35278 -46.761 273.63)">
   <path d="m0 0 0.011-3.965 17.47-10.114-0.01 3.966z" fill="#bcbcb8"/>
  </g>
  <g transform="matrix(-.35278 0 0 -.35278 -51.162 278.21)">
   <path d="m0 0 0.012-3.969 6.616-3.843-0.011 3.965z" fill="#bcbcb8"/>
  </g>
  <g transform="matrix(-.35278 0 0 -.35278 -53.497 279.57)">
   <path d="m0 0 0.012-3.965 9.259 5.343-0.012 3.967z" fill="#676760"/>
  </g>
  <g transform="matrix(-.35278 0 0 -.35278 -42.662 273.29)">
   <path d="m0 0 6.627-3.849 4.992 2.88 17.47-10.113-4.993-2.879 6.616-3.847 9.259 5.345-30.712 17.809z" fill="#a5a59a"/>
  </g>
  <g transform="matrix(-.35278 0 0 -.35278 -48.503 287.58)">
   <path d="m0 0 0.894-0.483v20.821l-0.894 0.689z" fill="#47260e"/>
  </g>
  <g transform="matrix(-.35278 0 0 -.35278 -50.661 282.16)">
   <path d="m0 0-4.423 2.508v-4.868l4.419-2.546z" fill="#95e8e8"/>
  </g>
  <g transform="matrix(-.35278 0 0 -.35278 -50.661 284.27)">
   <path d="m0 0-4.423 2.508v-4.869l4.419-2.546z" fill="#95e8e8"/>
  </g>
  <g transform="matrix(-.35278 0 0 -.35278 -50.661 286.39)">
   <path d="m0 0-4.423 2.508v-4.868l4.419-2.547z" fill="#95e8e8"/>
  </g>
  <g transform="matrix(-.35278 0 0 -.35278 -48.224 280.8)">
   <path d="m0 0-4.423 2.51v-4.869l4.421-2.546z" fill="#95e8e8"/>
  </g>
  <g transform="matrix(-.35278 0 0 -.35278 -48.224 282.91)">
   <path d="m0 0-4.423 2.507v-4.868l4.421-2.547z" fill="#95e8e8"/>
  </g>
  <g transform="matrix(-.35278 0 0 -.35278 -48.224 285.03)">
   <path d="m0 0-4.423 2.508v-4.868l4.421-2.546z" fill="#95e8e8"/>
  </g>
  <g transform="matrix(-.35278 0 0 -.35278 -72.886 287.96)">
   <path d="m0 0-0.099-14.429-18.059 10.046v14.352z" fill="#95e8e8"/>
  </g>
  <g transform="matrix(-.35278 0 0 -.35278 -66.303 287.17)">
   <path d="m0 0 0.658 0.669 18.059-10.045-0.785-0.456z" fill="#787870"/>
  </g>
  <g transform="matrix(-.35278 0 0 -.35278 -66.591 289.55)">
   <path d="m0 0 0.766 0.184 16.684-9.272-0.431-0.431z" fill="#787870"/>
  </g>
  <g transform="matrix(-.35278 0 0 -.35278 -66.591 289.55)">
   <path d="m0 0 0.766 0.185 0.035 13.57-0.814 0.376z" fill="#787870"/>
  </g>
  <g transform="matrix(-.35278 0 0 -.35278 -72.876 287.77)">
   <path d="m0 0v-16.735l0.771 0.457v16.734z" fill="#787870"/>
  </g>
  <g transform="matrix(-.35278 0 0 -.35278 -66.303 284.06)">
   <path d="m0 0 0.783 0.457 18.619-10.521-0.772-0.456z" fill="#787870"/>
  </g>
  <g transform="matrix(-.35278 0 0 -.35278 -68.556 285.66)">
   <path d="m0 0v-15.381l0.414 0.223v15.158z" fill="#787870"/>
  </g>
  <g transform="matrix(-.35278 0 0 -.35278 -68.449 285.49)">
   <path d="m0 0v-15.951l0.326 0.071 0.084 15.88z" fill="#d8d8d8"/>
  </g>
  <g transform="matrix(-.35278 0 0 -.35278 -70.552 286.44)">
   <path d="m0 0v-16.776l0.412 0.222v16.554z" fill="#787870"/>
  </g>
  <g transform="matrix(-.35278 0 0 -.35278 -70.444 292.24)">
   <path d="M 0,0 0.327,0.072 0.412,15.953 0,16.417 Z" fill="#d8d8d8"/>
  </g>
  <g transform="matrix(-.35278 0 0 -.35278 -66.303 287.17)">
   <path d="m0 0 0.658 0.148 17.655-9.826-0.256-0.367z" fill="#d8d8d8"/>
  </g>
  <g transform="matrix(-.35278 0 0 -.35278 -72.595 292.91)">
   <path d="m0 0 0.035 13.488-17.054 9.576v-13.545zm-17.882 25.084 18.677-10.52v-16.735l-18.677 10.521z" fill="#d8d8d8"/>
  </g>
  <g transform="matrix(-.35278 0 0 -.35278 -72.886 295.82)">
   <path d="m0 0-0.099-14.429-18.059 10.045v14.353z" fill="#95e8e8"/>
  </g>
  <g transform="matrix(-.35278 0 0 -.35278 -66.303 295.03)">
   <path d="m0 0 0.658 0.669 18.059-10.046-0.785-0.455z" fill="#787870"/>
  </g>
  <g transform="matrix(-.35278 0 0 -.35278 -66.591 297.41)">
   <path d="m0 0 0.766 0.184 16.684-9.273-0.431-0.43z" fill="#787870"/>
  </g>
  <g transform="matrix(-.35278 0 0 -.35278 -66.591 297.41)">
   <path d="m0 0 0.766 0.184 0.035 13.57-0.814 0.377z" fill="#787870"/>
  </g>
  <g transform="matrix(-.35278 0 0 -.35278 -72.876 295.63)">
   <path d="m0 0v-16.735l0.771 0.456v16.735z" fill="#787870"/>
  </g>
  <g transform="matrix(-.35278 0 0 -.35278 -66.303 291.92)">
   <path d="m0 0 0.783 0.456 18.619-10.52-0.772-0.457z" fill="#787870"/>
  </g>
  <g transform="matrix(-.35278 0 0 -.35278 -68.556 293.52)">
   <path d="m0 0v-15.381l0.414 0.222v15.159z" fill="#787870"/>
  </g>
  <g transform="matrix(-.35278 0 0 -.35278 -68.449 293.35)">
   <path d="m0 0v-15.951l0.326 0.071 0.084 15.88z" fill="#d8d8d8"/>
  </g>
  <g transform="matrix(-.35278 0 0 -.35278 -70.552 294.31)">
   <path d="m0 0v-16.776l0.412 0.222v16.554z" fill="#787870"/>
  </g>
  <g transform="matrix(-.35278 0 0 -.35278 -70.444 300.1)">
   <path d="M 0,0 0.327,0.071 0.412,15.952 0,16.417 Z" fill="#d8d8d8"/>
  </g>
  <g transform="matrix(-.35278 0 0 -.35278 -66.303 295.03)">
   <path d="m0 0 0.658 0.147 17.655-9.824-0.256-0.368z" fill="#d8d8d8"/>
  </g>
  <g transform="matrix(-.35278 0 0 -.35278 -72.595 300.77)">
   <path d="m0 0 0.035 13.488-17.054 9.576v-13.545zm-17.882 25.084 18.677-10.52v-16.734l-18.677 10.52z" fill="#d8d8d8"/>
  </g>
  <g transform="matrix(-.35278 0 0 -.35278 -29.518 262.85)">
   <path d="m0 0-0.1-14.428-18.057 10.044v14.354z" fill="#95e8e8"/>
  </g>
  <g transform="matrix(-.35278 0 0 -.35278 -22.936 262.06)">
   <path d="m0 0 0.658 0.668 18.059-10.046-0.784-0.454z" fill="#787870"/>
  </g>
  <g transform="matrix(-.35278 0 0 -.35278 -23.224 264.44)">
   <path d="m0 0 0.764 0.186 16.684-9.273-0.431-0.431z" fill="#787870"/>
  </g>
  <g transform="matrix(-.35278 0 0 -.35278 -23.224 264.44)">
   <path d="m0 0 0.764 0.186 0.035 13.568-0.812 0.377z" fill="#787870"/>
  </g>
  <g transform="matrix(-.35278 0 0 -.35278 -29.508 262.66)">
   <path d="m0 0v-16.735l0.774 0.456v16.735z" fill="#787870"/>
  </g>
  <g transform="matrix(-.35278 0 0 -.35278 -22.936 258.95)">
   <path d="m0 0 0.784 0.456 18.62-10.52-0.774-0.457z" fill="#787870"/>
  </g>
  <g transform="matrix(-.35278 0 0 -.35278 -25.189 260.55)">
   <path d="m0 0v-15.381l0.412 0.223v15.158z" fill="#787870"/>
  </g>
  <g transform="matrix(-.35278 0 0 -.35278 -25.081 260.39)">
   <path d="m0 0v-15.952l0.328 0.072 0.085 15.88z" fill="#d8d8d8"/>
  </g>
  <g transform="matrix(-.35278 0 0 -.35278 -27.185 261.34)">
   <path d="m0 0v-16.775l0.412 0.222v16.553z" fill="#787870"/>
  </g>
  <g transform="matrix(-.35278 0 0 -.35278 -27.077 267.13)">
   <path d="M 0,0 0.328,0.07 0.412,15.952 0,16.415 Z" fill="#d8d8d8"/>
  </g>
  <g transform="matrix(-.35278 0 0 -.35278 -22.936 262.06)">
   <path d="m0 0 0.658 0.148 17.656-9.826-0.258-0.366z" fill="#d8d8d8"/>
  </g>
  <g transform="matrix(-.35278 0 0 -.35278 -29.227 267.8)">
   <path d="m0 0 0.037 13.487-17.054 9.576v-13.545zm-17.881 25.084 18.677-10.52v-16.735l-18.677 10.521z" fill="#d8d8d8"/>
  </g>
  <g transform="matrix(-.35278 0 0 -.35278 -29.518 270.71)">
   <path d="m0 0-0.1-14.428-18.057 10.044v14.353z" fill="#95e8e8"/>
  </g>
  <g transform="matrix(-.35278 0 0 -.35278 -22.936 269.93)">
   <path d="m0 0 0.658 0.668 18.059-10.046-0.784-0.456z" fill="#787870"/>
  </g>
  <g transform="matrix(-.35278 0 0 -.35278 -23.224 272.3)">
   <path d="m0 0 0.764 0.185 16.684-9.272-0.431-0.431z" fill="#787870"/>
  </g>
  <g transform="matrix(-.35278 0 0 -.35278 -23.224 272.3)">
   <path d="m0 0 0.764 0.185 0.035 13.569-0.812 0.377z" fill="#787870"/>
  </g>
  <g transform="matrix(-.35278 0 0 -.35278 -29.508 270.52)">
   <path d="m0 0v-16.734l0.774 0.455v16.735z" fill="#787870"/>
  </g>
  <g transform="matrix(-.35278 0 0 -.35278 -22.936 266.81)">
   <path d="m0 0 0.784 0.456 18.62-10.52-0.774-0.456z" fill="#787870"/>
  </g>
  <g transform="matrix(-.35278 0 0 -.35278 -25.189 268.41)">
   <path d="m0 0v-15.381l0.412 0.223v15.158z" fill="#787870"/>
  </g>
  <g transform="matrix(-.35278 0 0 -.35278 -25.081 268.25)">
   <path d="m0 0v-15.951l0.328 0.071 0.085 15.88z" fill="#d8d8d8"/>
  </g>
  <g transform="matrix(-.35278 0 0 -.35278 -27.185 269.2)">
   <path d="m0 0v-16.776l0.412 0.223v16.553z" fill="#787870"/>
  </g>
  <g transform="matrix(-.35278 0 0 -.35278 -27.077 274.99)">
   <path d="m0 0 0.328 0.071 0.084 15.88-0.412 0.466z" fill="#d8d8d8"/>
  </g>
  <g transform="matrix(-.35278 0 0 -.35278 -22.936 269.93)">
   <path d="m0 0 0.658 0.147 17.656-9.826-0.258-0.368z" fill="#d8d8d8"/>
  </g>
  <g transform="matrix(-.35278 0 0 -.35278 -29.227 275.66)">
   <path d="m0 0 0.037 13.487-17.054 9.576v-13.545zm-17.881 25.084 18.677-10.52v-16.735l-18.677 10.521z" fill="#d8d8d8"/>
  </g>
  <g transform="matrix(-.35278 0 0 -.35278 -40.133 271.43)">
   <path d="m0 0-4.629 2.243-0.05 15.023 4.679-2.627z" fill="#95e8e8"/>
  </g>
  <g transform="matrix(-.35278 0 0 -.35278 -40.237 267.38)">
   <path d="m0 0-4.898 2.817v-0.631l4.898-2.82z" fill="#787870"/>
  </g>
  <g transform="matrix(-.35278 0 0 -.35278 -38.51 270.63)">
   <path d="m0 0 0.277 0.437 4.4-2.525-0.204-0.484z" fill="#787870"/>
  </g>
  <g transform="matrix(-.35278 0 0 -.35278 -38.524 265.41)">
   <path d="m0 0-0.041-14.788 0.557 0.283v14.786z" fill="#787870"/>
  </g>
  <g transform="matrix(-.35278 0 0 -.35278 -40.251 266.07)">
   <path d="m0 0-0.03-16.358 0.485 0.306v16.36z" fill="#787870"/>
  </g>
  <g transform="matrix(-.35278 0 0 -.35278 -38.338 264.98)">
   <path d="m0 0 0.456 0.308 5.422-3.102-0.456-0.309z" fill="#787870"/>
  </g>
  <g transform="matrix(-.35278 0 0 -.35278 -40.088 271.54)">
   <path d="m0 0v14.787l-4.432 2.573-0.041-14.788zm-4.961 18.591 5.422-3.103-0.029-16.357-5.393 3.104z" fill="#d8d8d8"/>
  </g>
  <g transform="matrix(-.35278 0 0 -.35278 -40.153 267.51)">
   <path d="m0 0-4.898 2.819v-0.625l4.898-2.819z" fill="#d8d8d8"/>
  </g>
  <g transform="matrix(-.35278 0 0 -.35278 -38 270.19)">
   <path d="m0 0-4.628 2.243-0.052 15.023 4.68-2.628z" fill="#95e8e8"/>
  </g>
  <g transform="matrix(-.35278 0 0 -.35278 -38.105 266.14)">
   <path d="m0 0-4.898 2.818v-0.632l4.898-2.82z" fill="#787870"/>
  </g>
  <g transform="matrix(-.35278 0 0 -.35278 -36.378 269.39)">
   <path d="m0 0 0.276 0.438 4.4-2.526-0.205-0.486z" fill="#787870"/>
  </g>
  <g transform="matrix(-.35278 0 0 -.35278 -36.393 264.17)">
   <path d="m0 0-0.043-14.789 0.557 0.282v14.788z" fill="#787870"/>
  </g>
  <g transform="matrix(-.35278 0 0 -.35278 -38.118 264.83)">
   <path d="m0 0-0.03-16.356 0.486 0.306v16.36z" fill="#787870"/>
  </g>
  <g transform="matrix(-.35278 0 0 -.35278 -36.205 263.73)">
   <path d="m0 0 0.456 0.307 5.422-3.102-0.456-0.309z" fill="#787870"/>
  </g>
  <g transform="matrix(-.35278 0 0 -.35278 -37.955 270.29)">
   <path d="m0 0v14.788l-4.428 2.575-0.043-14.789zm-4.96 18.593 5.422-3.104-0.029-16.356-5.393 3.103z" fill="#d8d8d8"/>
  </g>
  <g transform="matrix(-.35278 0 0 -.35278 -38.021 266.26)">
   <path d="m0 0-4.898 2.817v-0.623l4.898-2.819z" fill="#d8d8d8"/>
  </g>
  <g transform="matrix(-.35278 0 0 -.35278 -42.261 272.65)">
   <path d="m0 0-4.629 2.245-0.053 15.021 4.682-2.626z" fill="#95e8e8"/>
  </g>
  <g transform="matrix(-.35278 0 0 -.35278 -42.366 268.6)">
   <path d="m0 0-4.898 2.819v-0.633l4.898-2.819z" fill="#787870"/>
  </g>
  <g transform="matrix(-.35278 0 0 -.35278 -40.638 271.85)">
   <path d="m0 0 0.277 0.437 4.4-2.526-0.205-0.487z" fill="#787870"/>
  </g>
  <g transform="matrix(-.35278 0 0 -.35278 -40.653 266.63)">
   <path d="m0 0-0.042-14.787 0.557 0.282v14.788z" fill="#787870"/>
  </g>
  <g transform="matrix(-.35278 0 0 -.35278 -42.379 267.29)">
   <path d="m0 0-0.03-16.357 0.485 0.305v16.36z" fill="#787870"/>
  </g>
  <g transform="matrix(-.35278 0 0 -.35278 -40.465 266.2)">
   <path d="m0 0 0.457 0.308 5.421-3.103-0.455-0.308z" fill="#787870"/>
  </g>
  <g transform="matrix(-.35278 0 0 -.35278 -42.216 272.76)">
   <path d="m0 0v14.789l-4.43 2.574-0.042-14.787zm-4.961 18.594 5.422-3.103-0.029-16.357-5.393 3.105z" fill="#d8d8d8"/>
  </g>
  <g transform="matrix(-.35278 0 0 -.35278 -42.281 268.73)">
   <path d="m0 0-4.897 2.819v-0.625l4.897-2.818z" fill="#d8d8d8"/>
  </g>
  <g transform="matrix(-.35278 0 0 -.35278 -90.909 285.96)">
   <path d="m0 0 8.904 4.559 0.07 16.79-8.974-5.08z" fill="#69b5b1"/>
  </g>
  <g transform="matrix(-.35278 0 0 -.35278 -90.767 283.88)">
   <path d="m0 0 9.27 5.337v-0.859l-9.27-5.34z" fill="#787870"/>
  </g>
  <g transform="matrix(-.35278 0 0 -.35278 -94.036 284.34)">
   <path d="m0 0-0.376 0.596-8.59-4.944 0.277-0.66z" fill="#787870"/>
  </g>
  <g transform="matrix(-.35278 0 0 -.35278 -93.768 284.2)">
   <path d="M 0,0 0.759,-0.384 0.701,16.088 0,16.47 Z" fill="#787870"/>
  </g>
  <g transform="matrix(-.35278 0 0 -.35278 -90.529 286.38)">
   <path d="m0 0 0.661-0.417-0.04 18.604-0.621 0.42z" fill="#787870"/>
  </g>
  <g transform="matrix(-.35278 0 0 -.35278 -94.27 277.94)">
   <path d="m0 0-0.62 0.417-9.984-5.727 0.621-0.419z" fill="#787870"/>
  </g>
  <g transform="matrix(-.35278 0 0 -.35278 -90.97 286.11)">
   <path d="m0 0 8.689 5.008-0.058 16.473-8.631-5.009zm9.354 4.549-9.943-5.728-0.04 18.604 9.983 5.729z" fill="#d8d8d8"/>
  </g>
  <g transform="matrix(-.35278 0 0 -.35278 -90.882 284.05)">
   <path d="m0 0 9.269 5.338v-0.847l-9.269-5.344z" fill="#d8d8d8"/>
  </g>
  <g transform="matrix(-.35278 0 0 -.35278 -87.627 287.85)">
   <path d="m0 0 8.901 4.561 0.071 16.791-8.972-5.08z" fill="#69b5b1"/>
  </g>
  <g transform="matrix(-.35278 0 0 -.35278 -87.484 285.77)">
   <path d="m0 0 9.268 5.338v-0.86l-9.268-5.339z" fill="#787870"/>
  </g>
  <g transform="matrix(-.35278 0 0 -.35278 -90.753 286.23)">
   <path d="m0 0-0.375 0.597-8.592-4.945 0.279-0.66z" fill="#787870"/>
  </g>
  <g transform="matrix(-.35278 0 0 -.35278 -90.486 286.1)">
   <path d="m0 0 0.757-0.384-0.058 16.472-0.699 0.381z" fill="#787870"/>
  </g>
  <g transform="matrix(-.35278 0 0 -.35278 -87.247 288.27)">
   <path d="m0 0 0.661-0.416-0.043 18.605-0.618 0.419z" fill="#787870"/>
  </g>
  <g transform="matrix(-.35278 0 0 -.35278 -90.988 279.83)">
   <path d="m0 0-0.623 0.417-9.981-5.727 0.619-0.419z" fill="#787870"/>
  </g>
  <g transform="matrix(-.35278 0 0 -.35278 -87.688 288)">
   <path d="m0 0 8.688 5.008-0.058 16.472-8.63-5.008zm9.355 4.549-9.942-5.728-0.043 18.605 9.985 5.728z" fill="#d8d8d8"/>
  </g>
  <g transform="matrix(-.35278 0 0 -.35278 -87.599 285.94)">
   <path d="m0 0 9.269 5.338v-0.848l-9.269-5.343z" fill="#d8d8d8"/>
  </g>
  <g transform="matrix(-.35278 0 0 -.35278 -84.326 289.74)">
   <path d="m0 0 8.903 4.56 0.069 16.791-8.972-5.08z" fill="#69b5b1"/>
  </g>
  <g transform="matrix(-.35278 0 0 -.35278 -84.184 287.66)">
   <path d="m0 0 9.269 5.339v-0.86l-9.269-5.341z" fill="#787870"/>
  </g>
  <g transform="matrix(-.35278 0 0 -.35278 -87.453 288.12)">
   <path d="m0 0-0.374 0.596-8.593-4.946 0.277-0.658z" fill="#787870"/>
  </g>
  <g transform="matrix(-.35278 0 0 -.35278 -87.185 287.99)">
   <path d="m0 0 0.758-0.383-0.057 16.472-0.701 0.38z" fill="#787870"/>
  </g>
  <g transform="matrix(-.35278 0 0 -.35278 -83.947 290.16)">
   <path d="m0 0 0.661-0.416-0.041 18.604-0.62 0.419z" fill="#787870"/>
  </g>
  <g transform="matrix(-.35278 0 0 -.35278 -87.687 281.72)">
   <path d="m0 0-0.62 0.417-9.983-5.728 0.62-0.418z" fill="#787870"/>
  </g>
  <g transform="matrix(-.35278 0 0 -.35278 -84.387 289.89)">
   <path d="m0 0 8.69 5.008-0.056 16.473-8.634-5.011zm9.355 4.55-9.942-5.729-0.04 18.604 9.982 5.729z" fill="#d8d8d8"/>
  </g>
  <g transform="matrix(-.35278 0 0 -.35278 -84.299 287.83)">
   <path d="m0 0 9.267 5.341v-0.849l-9.267-5.342z" fill="#d8d8d8"/>
  </g>
  <g transform="matrix(-.35278 0 0 -.35278 -81.078 291.61)">
   <path d="M 0,0 8.903,4.558 8.974,21.349 0,16.267 Z" fill="#69b5b1"/>
  </g>
  <g transform="matrix(-.35278 0 0 -.35278 -80.936 289.52)">
   <path d="m0 0 9.271 5.34v-0.861l-9.271-5.341z" fill="#787870"/>
  </g>
  <g transform="matrix(-.35278 0 0 -.35278 -84.204 289.99)">
   <path d="m0 0-0.373 0.598-8.592-4.946 0.278-0.659z" fill="#787870"/>
  </g>
  <g transform="matrix(-.35278 0 0 -.35278 -83.938 289.85)">
   <path d="m0 0 0.754-0.386-0.056 16.474-0.698 0.381z" fill="#787870"/>
  </g>
  <g transform="matrix(-.35278 0 0 -.35278 -80.699 292.02)">
   <path d="m0 0 0.661-0.417-0.041 18.604-0.62 0.418z" fill="#787870"/>
  </g>
  <g transform="matrix(-.35278 0 0 -.35278 -84.44 283.58)">
   <path d="m0 0-0.622 0.418-9.982-5.729 0.62-0.418z" fill="#787870"/>
  </g>
  <g transform="matrix(-.35278 0 0 -.35278 -81.14 291.75)">
   <path d="m0 0 8.687 5.007-0.056 16.475-8.631-5.01zm9.355 4.551-9.943-5.73-0.041 18.604 9.984 5.729z" fill="#d8d8d8"/>
  </g>
  <g transform="matrix(-.35278 0 0 -.35278 -81.052 289.7)">
   <path d="m0 0 9.269 5.339v-0.848l-9.269-5.344z" fill="#d8d8d8"/>
  </g>
  <g transform="matrix(-.35278 0 0 -.35278 -77.8 293.48)">
   <path d="M 0,0 8.903,4.56 8.974,21.35 0,16.27 Z" fill="#69b5b1"/>
  </g>
  <g transform="matrix(-.35278 0 0 -.35278 -77.658 291.4)">
   <path d="m0 0 9.269 5.34v-0.861l-9.269-5.339z" fill="#787870"/>
  </g>
  <g transform="matrix(-.35278 0 0 -.35278 -80.926 291.86)">
   <path d="m0 0-0.375 0.597-8.591-4.945 0.278-0.66z" fill="#787870"/>
  </g>
  <g transform="matrix(-.35278 0 0 -.35278 -80.66 291.72)">
   <path d="m0 0 0.756-0.385-0.057 16.473-0.699 0.381z" fill="#787870"/>
  </g>
  <g transform="matrix(-.35278 0 0 -.35278 -77.421 293.9)">
   <path d="m0 0 0.661-0.417-0.042 18.606-0.619 0.418z" fill="#787870"/>
  </g>
  <g transform="matrix(-.35278 0 0 -.35278 -81.162 285.46)">
   <path d="m0 0-0.621 0.419-9.983-5.729 0.62-0.417z" fill="#787870"/>
  </g>
  <g transform="matrix(-.35278 0 0 -.35278 -77.862 293.63)">
   <path d="m0 0 8.688 5.008-0.057 16.473-8.631-5.009zm9.354 4.55-9.942-5.729-0.041 18.606 9.983 5.727z" fill="#d8d8d8"/>
  </g>
  <g transform="matrix(-.35278 0 0 -.35278 -77.773 291.57)">
   <path d="m0 0 9.269 5.339v-0.849l-9.269-5.341z" fill="#d8d8d8"/>
  </g>
  <g transform="matrix(-.35278 0 0 -.35278 -91.119 293.93)">
   <path d="m0 0 8.903 4.559 0.069 16.79-8.972-5.08z" fill="#69b5b1"/>
  </g>
  <g transform="matrix(-.35278 0 0 -.35278 -90.977 291.85)">
   <path d="m0 0 9.271 5.338v-0.86l-9.271-5.34z" fill="#787870"/>
  </g>
  <g transform="matrix(-.35278 0 0 -.35278 -94.245 292.32)">
   <path d="m0 0-0.374 0.596-8.591-4.946 0.277-0.66z" fill="#787870"/>
  </g>
  <g transform="matrix(-.35278 0 0 -.35278 -93.978 292.18)">
   <path d="m0 0 0.756-0.384-0.055 16.472-0.701 0.379z" fill="#787870"/>
  </g>
  <g transform="matrix(-.35278 0 0 -.35278 -90.74 294.35)">
   <path d="m0 0 0.661-0.417-0.041 18.605-0.62 0.419z" fill="#787870"/>
  </g>
  <g transform="matrix(-.35278 0 0 -.35278 -94.48 285.91)">
   <path d="m0 0-0.619 0.417-9.985-5.726 0.621-0.42z" fill="#787870"/>
  </g>
  <g transform="matrix(-.35278 0 0 -.35278 -91.18 294.08)">
   <path d="m0 0 8.688 5.01-0.056 16.471-8.632-5.009zm9.354 4.551-9.941-5.73-0.042 18.605 9.983 5.728z" fill="#d8d8d8"/>
  </g>
  <g transform="matrix(-.35278 0 0 -.35278 -91.092 292.03)">
   <path d="m0 0 9.267 5.338v-0.847l-9.267-5.343z" fill="#d8d8d8"/>
  </g>
  <g transform="matrix(-.35278 0 0 -.35278 -87.836 295.83)">
   <path d="M 0,0 8.903,4.559 8.973,21.351 0,16.27 Z" fill="#69b5b1"/>
  </g>
  <g transform="matrix(-.35278 0 0 -.35278 -87.694 293.74)">
   <path d="m0 0 9.269 5.338v-0.86l-9.269-5.34z" fill="#787870"/>
  </g>
  <g transform="matrix(-.35278 0 0 -.35278 -90.963 294.21)">
   <path d="m0 0-0.375 0.596-8.591-4.945 0.278-0.659z" fill="#787870"/>
  </g>
  <g transform="matrix(-.35278 0 0 -.35278 -90.695 294.07)">
   <path d="m0 0 0.758-0.384-0.058 16.473-0.7 0.38z" fill="#787870"/>
  </g>
  <g transform="matrix(-.35278 0 0 -.35278 -87.457 296.24)">
   <path d="m0 0 0.661-0.417-0.043 18.606-0.618 0.418z" fill="#787870"/>
  </g>
  <g transform="matrix(-.35278 0 0 -.35278 -91.198 287.8)">
   <path d="m0 0-0.622 0.417-9.981-5.728 0.618-0.418z" fill="#787870"/>
  </g>
  <g transform="matrix(-.35278 0 0 -.35278 -87.898 295.97)">
   <path d="m0 0 8.688 5.008-0.057 16.473-8.631-5.01zm9.355 4.549-9.942-5.729-0.043 18.606 9.985 5.729z" fill="#d8d8d8"/>
  </g>
  <g transform="matrix(-.35278 0 0 -.35278 -87.809 293.92)">
   <path d="m0 0 9.269 5.338v-0.847l-9.269-5.342z" fill="#d8d8d8"/>
  </g>
  <g transform="matrix(-.35278 0 0 -.35278 -84.536 297.72)">
   <path d="M 0,0 8.903,4.56 8.972,21.35 0,16.27 Z" fill="#69b5b1"/>
  </g>
  <g transform="matrix(-.35278 0 0 -.35278 -84.394 295.64)">
   <path d="m0 0 9.269 5.34v-0.861l-9.269-5.341z" fill="#787870"/>
  </g>
  <g transform="matrix(-.35278 0 0 -.35278 -87.662 296.1)">
   <path d="m0 0-0.374 0.597-8.592-4.945 0.278-0.659z" fill="#787870"/>
  </g>
  <g transform="matrix(-.35278 0 0 -.35278 -87.396 295.96)">
   <path d="m0 0 0.754-0.385-0.055 16.473-0.699 0.381z" fill="#787870"/>
  </g>
  <g transform="matrix(-.35278 0 0 -.35278 -84.156 298.13)">
   <path d="m0 0 0.661-0.416-0.041 18.603-0.62 0.419z" fill="#787870"/>
  </g>
  <g transform="matrix(-.35278 0 0 -.35278 -87.897 289.7)">
   <path d="m0 0-0.62 0.417-9.983-5.728 0.62-0.418z" fill="#787870"/>
  </g>
  <g transform="matrix(-.35278 0 0 -.35278 -84.597 297.86)">
   <path d="m0 0 8.688 5.007-0.056 16.473-8.632-5.008zm9.354 4.549-9.942-5.728-0.041 18.603 9.983 5.73z" fill="#d8d8d8"/>
  </g>
  <g transform="matrix(-.35278 0 0 -.35278 -84.509 295.81)">
   <path d="m0 0 9.269 5.339v-0.847l-9.269-5.343z" fill="#d8d8d8"/>
  </g>
  <g transform="matrix(-.35278 0 0 -.35278 -81.289 299.58)">
   <path d="m0 0 8.903 4.558 0.07 16.791-8.973-5.08z" fill="#69b5b1"/>
  </g>
  <g transform="matrix(-.35278 0 0 -.35278 -81.146 297.5)">
   <path d="m0 0 9.269 5.339v-0.859l-9.269-5.342z" fill="#787870"/>
  </g>
  <g transform="matrix(-.35278 0 0 -.35278 -84.414 297.96)">
   <path d="m0 0-0.374 0.598-8.591-4.946 0.278-0.659z" fill="#787870"/>
  </g>
  <g transform="matrix(-.35278 0 0 -.35278 -84.148 297.83)">
   <path d="M 0,0 0.754,-0.385 0.699,16.088 0,16.47 Z" fill="#787870"/>
  </g>
  <g transform="matrix(-.35278 0 0 -.35278 -80.909 300)">
   <path d="m0 0 0.661-0.417-0.041 18.605-0.62 0.418z" fill="#787870"/>
  </g>
  <g transform="matrix(-.35278 0 0 -.35278 -84.65 291.56)">
   <path d="m0 0-0.62 0.417-9.984-5.728 0.62-0.418z" fill="#787870"/>
  </g>
  <g transform="matrix(-.35278 0 0 -.35278 -81.35 299.73)">
   <path d="m0 0 8.687 5.007-0.056 16.474-8.631-5.01zm9.354 4.55-9.942-5.73-0.041 18.605 9.983 5.729z" fill="#d8d8d8"/>
  </g>
  <g transform="matrix(-.35278 0 0 -.35278 -81.261 297.67)">
   <path d="m0 0 9.268 5.34v-0.849l-9.268-5.342z" fill="#d8d8d8"/>
  </g>
  <g transform="matrix(-.35278 0 0 -.35278 -78.01 301.45)">
   <path d="m0 0 8.903 4.559 0.07 16.79-8.973-5.08z" fill="#69b5b1"/>
  </g>
  <g transform="matrix(-.35278 0 0 -.35278 -77.868 299.37)">
   <path d="m0 0 9.269 5.34v-0.861l-9.269-5.34z" fill="#787870"/>
  </g>
  <g transform="matrix(-.35278 0 0 -.35278 -81.137 299.84)">
   <path d="m0 0-0.374 0.597-8.591-4.946 0.276-0.659z" fill="#787870"/>
  </g>
  <g transform="matrix(-.35278 0 0 -.35278 -80.87 299.7)">
   <path d="M 0,0 0.757,-0.385 0.7,16.088 0,16.47 Z" fill="#787870"/>
  </g>
  <g transform="matrix(-.35278 0 0 -.35278 -77.631 301.87)">
   <path d="M 0,0 0.661,-0.415 0.62,18.19 0,18.608 Z" fill="#787870"/>
  </g>
  <g transform="matrix(-.35278 0 0 -.35278 -81.372 293.43)">
   <path d="m0 0-0.62 0.418-9.984-5.727 0.62-0.419z" fill="#787870"/>
  </g>
  <g transform="matrix(-.35278 0 0 -.35278 -78.072 301.6)">
   <path d="m0 0 8.689 5.008-0.057 16.472-8.632-5.008zm9.354 4.55-9.943-5.729-0.04 18.605 9.983 5.727z" fill="#d8d8d8"/>
  </g>
  <g transform="matrix(-.35278 0 0 -.35278 -77.983 299.55)">
   <path d="m0 0 9.269 5.339v-0.848l-9.269-5.341z" fill="#d8d8d8"/>
  </g>
  <g transform="matrix(-.35278 0 0 -.35278 -40.133 278.98)">
   <path d="m0 0-4.629 2.243-0.05 15.023 4.679-2.627z" fill="#95e8e8"/>
  </g>
  <g transform="matrix(-.35278 0 0 -.35278 -40.237 274.93)">
   <path d="m0 0-4.898 2.818v-0.632l4.898-2.818z" fill="#787870"/>
  </g>
  <g transform="matrix(-.35278 0 0 -.35278 -38.51 278.18)">
   <path d="m0 0 0.277 0.438 4.4-2.528-0.204-0.483z" fill="#787870"/>
  </g>
  <g transform="matrix(-.35278 0 0 -.35278 -38.524 272.97)">
   <path d="m0 0-0.041-14.789 0.557 0.284v14.785z" fill="#787870"/>
  </g>
  <g transform="matrix(-.35278 0 0 -.35278 -40.251 273.63)">
   <path d="m0 0-0.03-16.356 0.485 0.306v16.358z" fill="#787870"/>
  </g>
  <g transform="matrix(-.35278 0 0 -.35278 -38.338 272.53)">
   <path d="m0 0 0.456 0.307 5.422-3.103-0.456-0.308z" fill="#787870"/>
  </g>
  <g transform="matrix(-.35278 0 0 -.35278 -40.088 279.09)">
   <path d="m0 0v14.787l-4.432 2.575-0.041-14.789zm-4.961 18.592 5.422-3.103-0.029-16.357-5.393 3.103z" fill="#d8d8d8"/>
  </g>
  <g transform="matrix(-.35278 0 0 -.35278 -40.153 275.06)">
   <path d="m0 0-4.898 2.818v-0.622l4.898-2.821z" fill="#d8d8d8"/>
  </g>
  <g transform="matrix(-.35278 0 0 -.35278 -38 277.74)">
   <path d="m0 0-4.628 2.244-0.052 15.023 4.68-2.627z" fill="#95e8e8"/>
  </g>
  <g transform="matrix(-.35278 0 0 -.35278 -38.105 273.69)">
   <path d="m0 0-4.898 2.817v-0.632l4.898-2.82z" fill="#787870"/>
  </g>
  <g transform="matrix(-.35278 0 0 -.35278 -36.378 276.94)">
   <path d="m0 0 0.276 0.437 4.4-2.527-0.205-0.485z" fill="#787870"/>
  </g>
  <g transform="matrix(-.35278 0 0 -.35278 -36.393 271.72)">
   <path d="m0 0-0.043-14.787 0.557 0.282v14.786z" fill="#787870"/>
  </g>
  <g transform="matrix(-.35278 0 0 -.35278 -38.118 272.39)">
   <path d="m0 0-0.03-16.357 0.486 0.305v16.358z" fill="#787870"/>
  </g>
  <g transform="matrix(-.35278 0 0 -.35278 -36.205 271.29)">
   <path d="m0 0 0.456 0.308 5.422-3.104-0.456-0.307z" fill="#787870"/>
  </g>
  <g transform="matrix(-.35278 0 0 -.35278 -37.955 277.85)">
   <path d="m0 0v14.788l-4.428 2.574-0.043-14.787zm-4.96 18.592 5.422-3.102-0.029-16.357-5.393 3.102z" fill="#d8d8d8"/>
  </g>
  <g transform="matrix(-.35278 0 0 -.35278 -38.021 273.82)">
   <path d="m0 0-4.898 2.818v-0.623l4.898-2.82z" fill="#d8d8d8"/>
  </g>
  <g transform="matrix(-.35278 0 0 -.35278 -42.261 280.21)">
   <path d="m0 0-4.629 2.246-0.053 15.02 4.682-2.627z" fill="#95e8e8"/>
  </g>
  <g transform="matrix(-.35278 0 0 -.35278 -42.366 276.16)">
   <path d="m0 0-4.898 2.819v-0.634l4.898-2.82z" fill="#787870"/>
  </g>
  <g transform="matrix(-.35278 0 0 -.35278 -40.638 279.41)">
   <path d="m0 0 0.277 0.437 4.4-2.525-0.205-0.485z" fill="#787870"/>
  </g>
  <g transform="matrix(-.35278 0 0 -.35278 -40.653 274.19)">
   <path d="m0 0-0.042-14.787 0.557 0.284v14.786z" fill="#787870"/>
  </g>
  <g transform="matrix(-.35278 0 0 -.35278 -42.379 274.85)">
   <path d="m0 0-0.03-16.357 0.485 0.306v16.36z" fill="#787870"/>
  </g>
  <g transform="matrix(-.35278 0 0 -.35278 -40.465 273.76)">
   <path d="m0 0 0.457 0.307 5.421-3.102-0.455-0.309z" fill="#787870"/>
  </g>
  <g transform="matrix(-.35278 0 0 -.35278 -42.216 280.32)">
   <path d="m0 0v14.789l-4.43 2.571-0.042-14.787zm-4.961 18.593 5.422-3.104-0.029-16.357-5.393 3.106z" fill="#d8d8d8"/>
  </g>
  <g transform="matrix(-.35278 0 0 -.35278 -42.281 276.28)">
   <path d="m0 0-4.897 2.82v-0.625l4.897-2.819z" fill="#d8d8d8"/>
  </g>
  <g transform="matrix(-.35278 0 0 -.35278 -61.318 283.51)">
   <path d="m0 0-4.628 2.245-0.051 15.022 4.679-2.628z" fill="#95e8e8"/>
  </g>
  <g transform="matrix(-.35278 0 0 -.35278 -61.423 279.46)">
   <path d="m0 0-4.898 2.817v-0.631l4.898-2.819z" fill="#787870"/>
  </g>
  <g transform="matrix(-.35278 0 0 -.35278 -59.695 282.71)">
   <path d="m0 0 0.277 0.438 4.399-2.528-0.204-0.484z" fill="#787870"/>
  </g>
  <g transform="matrix(-.35278 0 0 -.35278 -59.71 277.49)">
   <path d="m0 0-0.042-14.789 0.557 0.284v14.785z" fill="#787870"/>
  </g>
  <g transform="matrix(-.35278 0 0 -.35278 -61.436 278.15)">
   <path d="m0 0-0.03-16.357 0.485 0.306v16.36z" fill="#787870"/>
  </g>
  <g transform="matrix(-.35278 0 0 -.35278 -59.523 277.06)">
   <path d="m0 0 0.457 0.307 5.421-3.102-0.455-0.308z" fill="#787870"/>
  </g>
  <g transform="matrix(-.35278 0 0 -.35278 -61.273 283.62)">
   <path d="m0 0v14.787l-4.43 2.575-0.042-14.788zm-4.961 18.592 5.423-3.103-0.03-16.357-5.393 3.104z" fill="#d8d8d8"/>
  </g>
  <g transform="matrix(-.35278 0 0 -.35278 -61.338 279.59)">
   <path d="m0 0-4.898 2.817v-0.622l4.898-2.82z" fill="#d8d8d8"/>
  </g>
  <g transform="matrix(-.35278 0 0 -.35278 -59.185 282.27)">
   <path d="m0 0-4.627 2.245-0.052 15.021 4.679-2.626z" fill="#95e8e8"/>
  </g>
  <g transform="matrix(-.35278 0 0 -.35278 -59.29 278.22)">
   <path d="m0 0-4.899 2.816v-0.63l4.899-2.82z" fill="#787870"/>
  </g>
  <g transform="matrix(-.35278 0 0 -.35278 -57.563 281.47)">
   <path d="m0 0 0.275 0.437 4.399-2.526-0.204-0.484z" fill="#787870"/>
  </g>
  <g transform="matrix(-.35278 0 0 -.35278 -57.578 276.25)">
   <path d="m0 0-0.042-14.789 0.556 0.284v14.785z" fill="#787870"/>
  </g>
  <g transform="matrix(-.35278 0 0 -.35278 -59.304 276.91)">
   <path d="m0 0-0.031-16.357 0.487 0.305v16.359z" fill="#787870"/>
  </g>
  <g transform="matrix(-.35278 0 0 -.35278 -57.391 275.82)">
   <path d="m0 0 0.456 0.308 5.422-3.103-0.456-0.308z" fill="#787870"/>
  </g>
  <g transform="matrix(-.35278 0 0 -.35278 -59.14 282.38)">
   <path d="m0 0v14.786l-4.428 2.576-0.042-14.789zm-4.96 18.592 5.422-3.103-0.03-16.357-5.392 3.103z" fill="#d8d8d8"/>
  </g>
  <g transform="matrix(-.35278 0 0 -.35278 -59.205 278.35)">
   <path d="m0 0-4.897 2.818v-0.623l4.897-2.82z" fill="#d8d8d8"/>
  </g>
  <g transform="matrix(-.35278 0 0 -.35278 -63.446 284.73)">
   <path d="m0 0-4.629 2.245-0.051 15.022 4.68-2.627z" fill="#95e8e8"/>
  </g>
  <g transform="matrix(-.35278 0 0 -.35278 -63.55 280.68)">
   <path d="m0 0-4.898 2.819v-0.634l4.898-2.819z" fill="#787870"/>
  </g>
  <g transform="matrix(-.35278 0 0 -.35278 -61.824 283.93)">
   <path d="m0 0 0.276 0.437 4.399-2.526-0.204-0.486z" fill="#787870"/>
  </g>
  <g transform="matrix(-.35278 0 0 -.35278 -61.838 278.72)">
   <path d="m0 0-0.041-14.787 0.556 0.283v14.787z" fill="#787870"/>
  </g>
  <g transform="matrix(-.35278 0 0 -.35278 -63.564 279.38)">
   <path d="m0 0-0.03-16.357 0.485 0.305v16.361z" fill="#787870"/>
  </g>
  <g transform="matrix(-.35278 0 0 -.35278 -61.651 278.28)">
   <path d="m0 0 0.456 0.307 5.422-3.102-0.455-0.309z" fill="#787870"/>
  </g>
  <g transform="matrix(-.35278 0 0 -.35278 -63.401 284.84)">
   <path d="m0 0v14.79l-4.43 2.572-0.041-14.787zm-4.96 18.594 5.422-3.104-0.029-16.357-5.393 3.105z" fill="#d8d8d8"/>
  </g>
  <g transform="matrix(-.35278 0 0 -.35278 -63.466 280.81)">
   <path d="m0 0-4.898 2.82v-0.626l4.898-2.817z" fill="#d8d8d8"/>
  </g>
  <g transform="matrix(-.35278 0 0 -.35278 -61.318 291.06)">
   <path d="m0 0-4.628 2.244-0.051 15.021 4.679-2.626z" fill="#95e8e8"/>
  </g>
  <g transform="matrix(-.35278 0 0 -.35278 -61.423 287.02)">
   <path d="m0 0-4.898 2.818v-0.632l4.898-2.818z" fill="#787870"/>
  </g>
  <g transform="matrix(-.35278 0 0 -.35278 -59.695 290.26)">
   <path d="m0 0 0.277 0.437 4.399-2.527-0.204-0.484z" fill="#787870"/>
  </g>
  <g transform="matrix(-.35278 0 0 -.35278 -59.71 285.05)">
   <path d="m0 0-0.042-14.788 0.557 0.284v14.786z" fill="#787870"/>
  </g>
  <g transform="matrix(-.35278 0 0 -.35278 -61.436 285.71)">
   <path d="m0 0-0.03-16.358 0.485 0.306v16.359z" fill="#787870"/>
  </g>
  <g transform="matrix(-.35278 0 0 -.35278 -59.523 284.61)">
   <path d="m0 0 0.457 0.307 5.421-3.103-0.455-0.307z" fill="#787870"/>
  </g>
  <g transform="matrix(-.35278 0 0 -.35278 -61.273 291.17)">
   <path d="m0 0v14.788l-4.43 2.574-0.042-14.788zm-4.961 18.593 5.423-3.103-0.03-16.358-5.393 3.104z" fill="#d8d8d8"/>
  </g>
  <g transform="matrix(-.35278 0 0 -.35278 -61.338 287.14)">
   <path d="m0 0-4.898 2.818v-0.623l4.898-2.82z" fill="#d8d8d8"/>
  </g>
  <g transform="matrix(-.35278 0 0 -.35278 -59.185 289.82)">
   <path d="m0 0-4.627 2.244-0.052 15.021 4.679-2.626z" fill="#95e8e8"/>
  </g>
  <g transform="matrix(-.35278 0 0 -.35278 -59.29 285.77)">
   <path d="m0 0-4.899 2.816v-0.631l4.899-2.82z" fill="#787870"/>
  </g>
  <g transform="matrix(-.35278 0 0 -.35278 -57.563 289.02)">
   <path d="m0 0 0.275 0.437 4.399-2.526-0.204-0.486z" fill="#787870"/>
  </g>
  <g transform="matrix(-.35278 0 0 -.35278 -57.578 283.81)">
   <path d="m0 0-0.042-14.788 0.556 0.284v14.785z" fill="#787870"/>
  </g>
  <g transform="matrix(-.35278 0 0 -.35278 -59.304 284.47)">
   <path d="m0 0-0.031-16.357 0.487 0.305v16.36z" fill="#787870"/>
  </g>
  <g transform="matrix(-.35278 0 0 -.35278 -57.391 283.37)">
   <path d="m0 0 0.456 0.307 5.422-3.102-0.456-0.308z" fill="#787870"/>
  </g>
  <g transform="matrix(-.35278 0 0 -.35278 -59.14 289.93)">
   <path d="m0 0v14.788l-4.428 2.574-0.042-14.787zm-4.96 18.593 5.422-3.103-0.03-16.357-5.392 3.103z" fill="#d8d8d8"/>
  </g>
  <g transform="matrix(-.35278 0 0 -.35278 -59.205 285.9)">
   <path d="m0 0-4.897 2.818v-0.623l4.897-2.82z" fill="#d8d8d8"/>
  </g>
  <g transform="matrix(-.35278 0 0 -.35278 -63.446 292.29)">
   <path d="m0 0-4.629 2.246-0.051 15.02 4.68-2.626z" fill="#95e8e8"/>
  </g>
  <g transform="matrix(-.35278 0 0 -.35278 -63.55 288.24)">
   <path d="m0 0-4.898 2.818v-0.632l4.898-2.821z" fill="#787870"/>
  </g>
  <g transform="matrix(-.35278 0 0 -.35278 -61.824 291.49)">
   <path d="m0 0 0.276 0.438 4.399-2.526-0.204-0.486z" fill="#787870"/>
  </g>
  <g transform="matrix(-.35278 0 0 -.35278 -61.838 286.27)">
   <path d="m0 0-0.041-14.787 0.556 0.283v14.787z" fill="#787870"/>
  </g>
  <g transform="matrix(-.35278 0 0 -.35278 -63.564 286.93)">
   <path d="m0 0-0.03-16.356 0.485 0.305v16.359z" fill="#787870"/>
  </g>
  <g transform="matrix(-.35278 0 0 -.35278 -61.651 285.84)">
   <path d="m0 0 0.456 0.307 5.422-3.103-0.455-0.308z" fill="#787870"/>
  </g>
  <g transform="matrix(-.35278 0 0 -.35278 -63.401 292.4)">
   <path d="m0 0v14.789l-4.43 2.572-0.041-14.787zm-4.96 18.594 5.422-3.104-0.029-16.356-5.393 3.104z" fill="#d8d8d8"/>
  </g>
  <g transform="matrix(-.35278 0 0 -.35278 -63.466 288.37)">
   <path d="m0 0-4.898 2.821v-0.625l4.898-2.82z" fill="#d8d8d8"/>
  </g>
  <g transform="matrix(-.35278 0 0 -.35278 307.5 1028.4)">
   <g clip-path="url(#clipPath136429)">
    <g transform="translate(1011.9 2163.1)">
     <path d="m0 0-0.899-0.522c-0.894-0.519-1.447-1.622-1.452-3.185-8e-3 -3.156 2.215-7.009 4.961-8.595l0.9 0.523c-2.747 1.587-4.972 5.438-4.963 8.593 6e-3 1.565 0.559 2.667 1.453 3.186" fill="#825e3b"/>
    </g>
   </g>
  </g>
  <g transform="matrix(-.35278 0 0 -.35278 307.5 1028.4)">
   <g clip-path="url(#clipPath136441)">
    <g transform="translate(1014.5 2150.8)">
     <path d="m0 0 0.9 0.523c-2.747 1.586-4.972 5.438-4.963 8.593 5e-3 1.565 0.559 2.667 1.453 3.186l-0.899-0.522c-0.894-0.519-1.447-1.622-1.452-3.185-9e-3 -3.157 2.215-7.009 4.961-8.595" fill="#825e3b"/>
    </g>
   </g>
  </g>
  <g transform="matrix(-.35278 0 0 -.35278 307.5 1028.4)">
   <g clip-path="url(#clipPath136453)">
    <g transform="translate(1018.1 2150.5)">
     <path d="m0 0 0.899 0.522c-0.905-0.526-2.156-0.453-3.534 0.344l-0.9-0.523c1.38-0.795 2.63-0.867 3.535-0.343" fill="#825e3b"/>
    </g>
   </g>
  </g>
  <g transform="matrix(-.35278 0 0 -.35278 307.5 1028.4)">
   <g clip-path="url(#clipPath136465)">
    <g transform="translate(1014.6 2164.3)">
     <path d="m0 0 0.899 0.523c-1.884 1.086-3.592 1.187-4.826 0.468l-0.899-0.522c1.233 0.718 2.942 0.619 4.826-0.469" fill="#825e3b"/>
    </g>
   </g>
  </g>
  <g transform="matrix(-.35278 0 0 -.35278 307.5 1028.4)">
   <g clip-path="url(#clipPath136477)">
    <g transform="translate(1019.3 2148.3)">
     <path d="m0 0 0.899 0.521c1.219 0.708 1.976 2.214 1.981 4.348 0.013 4.298-3.023 9.556-6.762 11.715l-0.899-0.522c3.739-2.161 6.775-7.417 6.762-11.714-4e-3 -2.135-0.762-3.64-1.981-4.348" fill="#825e3b"/>
    </g>
    <g transform="translate(1014.5 2150.8)">
     <path d="m0 0c2.742-1.583 4.98-0.307 4.988 2.85 0.01 3.15-2.214 7.001-4.956 8.583-2.747 1.587-4.985 0.311-4.993-2.838-9e-3 -3.157 2.215-7.009 4.961-8.595m6.801 1.803c-0.011-4.298-3.067-6.039-6.807-3.88-3.745 2.162-6.775 7.416-6.762 11.714 0.011 4.298 3.06 6.043 6.807 3.88 3.739-2.161 6.775-7.417 6.762-11.714" fill="#c9a477"/>
    </g>
   </g>
  </g>
  <g transform="matrix(-.35278 0 0 -.35278 -64.29 294.55)">
   <path d="m0 0 0.028 1.256-29.422 16.481-1.004-0.334z" fill="#787870"/>
  </g>
  <g transform="matrix(-.35278 0 0 -.35278 -64.29 295.45)">
   <path d="m0 0 0.028 2.874-30.426 17.067 0.056-2.705z" fill="#cccbca"/>
  </g>
  <g transform="matrix(-.35278 0 0 -.35278 -42.862 282.33)">
   <path d="m0 0 0.028 1.228-21.092 11.723-0.187-0.726z" fill="#787870"/>
  </g>
  <g transform="matrix(-.35278 0 0 -.35278 -42.882 283.25)">
   <path d="m0 0 0.028 2.873-21.241 11.898 0.055-2.706z" fill="#cccbca"/>
  </g>
  <g transform="matrix(-.35278 0 0 -.35278 307.5 1028.4)">
   <g clip-path="url(#clipPath136509)">
    <g transform="translate(1062.5 2164.9)">
     <path d="m 0,0 0.019,-9.36 c 0,0.23 0.15,0.459 0.454,0.633 0.599,0.348 1.576,0.348 2.173,0 0.297,-0.174 0.445,-0.398 0.445,-0.626 L 3.073,0.008 C 3.072,0.235 2.923,0.46 2.627,0.632 2.03,0.98 1.053,0.98 0.452,0.634 0.15,0.458 0,0.23 0,0" fill="#787870"/>
    </g>
   </g>
  </g>
  <g transform="matrix(-.35278 0 0 -.35278 307.5 1028.4)">
   <g clip-path="url(#clipPath136521)">
    <g transform="translate(1061.7 2164.9)">
     <path d="m0 0 0.019-9.361c1e-3 -0.347 0.23-0.694 0.684-0.958 0.916-0.532 2.41-0.532 3.332 0 0.464 0.269 0.696 0.621 0.695 0.973l-0.018 9.36c0-0.351-0.232-0.704-0.695-0.972-0.923-0.533-2.418-0.533-3.333-1e-3 -0.455 0.264-0.684 0.611-0.684 0.959" fill="#787870"/>
    </g>
   </g>
  </g>
  <g transform="matrix(-.35278 0 0 -.35278 307.5 1028.4)">
   <g clip-path="url(#clipPath136533)">
    <g transform="translate(1065.1 2164.3)">
     <path d="m0 0c0.6 0.349 0.604 0.914 7e-3 1.259-0.597 0.347-1.574 0.347-2.175 1e-3s-0.603-0.911-4e-3 -1.26c0.596-0.347 1.569-0.347 2.172 0m0.589 1.595c0.915-0.531 0.909-1.399-0.012-1.93-0.923-0.532-2.417-0.532-3.332-1e-3 -0.917 0.532-0.912 1.398 0.01 1.931s2.418 0.533 3.334 0" fill="#c0c0b3"/>
    </g>
   </g>
  </g>
  <g transform="matrix(-.35278 0 0 -.35278 307.5 1028.4)">
   <g clip-path="url(#clipPath136545)">
    <g transform="translate(1048.8 2172.3)">
     <path d="m0 0 0.02-9.361c-1e-3 0.23 0.149 0.458 0.453 0.632 0.6 0.349 1.576 0.349 2.174 0 0.296-0.172 0.444-0.397 0.446-0.625l-0.02 9.36c0 0.227-0.149 0.453-0.445 0.625-0.597 0.348-1.574 0.348-2.174 1e-3 -0.303-0.174-0.454-0.404-0.454-0.632" fill="#787870"/>
    </g>
   </g>
  </g>
  <g transform="matrix(-.35278 0 0 -.35278 307.5 1028.4)">
   <g clip-path="url(#clipPath136557)">
    <g transform="translate(1048 2172.3)">
     <path d="m0 0 0.018-9.36c2e-3 -0.348 0.23-0.695 0.685-0.959 0.916-0.534 2.41-0.534 3.332 1e-3 0.464 0.268 0.696 0.62 0.695 0.972l-0.019 9.361c1e-3 -0.352-0.231-0.704-0.695-0.973-0.922-0.534-2.417-0.534-3.332-1e-3 -0.455 0.264-0.682 0.611-0.684 0.959" fill="#787870"/>
    </g>
   </g>
  </g>
  <g transform="matrix(-.35278 0 0 -.35278 307.5 1028.4)">
   <g clip-path="url(#clipPath136569)">
    <g transform="translate(1051.4 2171.6)">
     <path d="m0 0c0.601 0.348 0.603 0.914 7e-3 1.259-0.597 0.348-1.574 0.348-2.174 1e-3 -0.603-0.346-0.605-0.912-5e-3 -1.26 0.595-0.346 1.57-0.347 2.172 0m0.589 1.595c0.916-0.531 0.91-1.398-0.012-1.929-0.922-0.534-2.417-0.534-3.332-1e-3 -0.916 0.532-0.912 1.398 0.011 1.93 0.92 0.533 2.417 0.533 3.333 0" fill="#c0c0b3"/>
    </g>
   </g>
  </g>
  <g transform="matrix(-.35278 0 0 -.35278 -39.936 271.31)">
   <path d="m0 0-4.629 2.243-0.051 15.023 4.68-2.628z" fill="#95e8e8"/>
  </g>
  <g transform="matrix(-.35278 0 0 -.35278 -40.04 267.26)">
   <path d="m0 0-4.898 2.818v-0.631l4.898-2.819z" fill="#787870"/>
  </g>
  <g transform="matrix(-.35278 0 0 -.35278 -38.313 270.51)">
   <path d="m0 0 0.276 0.438 4.401-2.527-0.203-0.484z" fill="#787870"/>
  </g>
  <g transform="matrix(-.35278 0 0 -.35278 -38.328 265.29)">
   <path d="m0 0-0.042-14.787 0.557 0.284v14.785z" fill="#787870"/>
  </g>
  <g transform="matrix(-.35278 0 0 -.35278 -40.054 265.95)">
   <path d="m0 0-0.031-16.357 0.485 0.306v16.358z" fill="#787870"/>
  </g>
  <g transform="matrix(-.35278 0 0 -.35278 -38.141 264.86)">
   <path d="m0 0 0.456 0.308 5.421-3.104-0.454-0.307z" fill="#787870"/>
  </g>
  <g transform="matrix(-.35278 0 0 -.35278 -39.891 271.42)">
   <path d="m0 0v14.788l-4.431 2.572-0.043-14.787zm-4.962 18.592 5.423-3.103-0.03-16.357-5.393 3.104z" fill="#d8d8d8"/>
  </g>
  <g transform="matrix(-.35278 0 0 -.35278 -39.956 267.39)">
   <path d="m0 0-4.898 2.818v-0.622l4.898-2.821z" fill="#d8d8d8"/>
  </g>
  <g transform="matrix(-.35278 0 0 -.35278 -37.804 270.07)">
   <path d="m0 0-4.628 2.245-0.051 15.021 4.679-2.627z" fill="#95e8e8"/>
  </g>
  <g transform="matrix(-.35278 0 0 -.35278 -37.908 266.02)">
   <path d="m0 0-4.897 2.817v-0.632l4.897-2.819z" fill="#787870"/>
  </g>
  <g transform="matrix(-.35278 0 0 -.35278 -36.181 269.27)">
   <path d="m0 0 0.276 0.438 4.399-2.527-0.204-0.484z" fill="#787870"/>
  </g>
  <g transform="matrix(-.35278 0 0 -.35278 -36.196 264.05)">
   <path d="m0 0-0.042-14.787 0.557 0.282v14.787z" fill="#787870"/>
  </g>
  <g transform="matrix(-.35278 0 0 -.35278 -37.922 264.71)">
   <path d="m0 0-0.03-16.356 0.486 0.305v16.359z" fill="#787870"/>
  </g>
  <g transform="matrix(-.35278 0 0 -.35278 -36.008 263.62)">
   <path d="m0 0 0.457 0.307 5.422-3.103-0.456-0.308z" fill="#787870"/>
  </g>
  <g transform="matrix(-.35278 0 0 -.35278 -37.758 270.18)">
   <path d="m0 0v14.788l-4.429 2.573-0.042-14.788zm-4.96 18.593 5.422-3.103-0.029-16.357-5.393 3.102z" fill="#d8d8d8"/>
  </g>
  <g transform="matrix(-.35278 0 0 -.35278 -37.824 266.15)">
   <path d="m0 0-4.898 2.819v-0.623l4.898-2.821z" fill="#d8d8d8"/>
  </g>
  <g transform="matrix(-.35278 0 0 -.35278 -42.064 272.53)">
   <path d="m0 0-4.628 2.245-0.052 15.021 4.68-2.626z" fill="#95e8e8"/>
  </g>
  <g transform="matrix(-.35278 0 0 -.35278 -42.168 268.48)">
   <path d="m0 0-4.897 2.819v-0.634l4.897-2.819z" fill="#787870"/>
  </g>
  <g transform="matrix(-.35278 0 0 -.35278 -40.441 271.73)">
   <path d="m0 0 0.277 0.437 4.399-2.525-0.205-0.487z" fill="#787870"/>
  </g>
  <g transform="matrix(-.35278 0 0 -.35278 -40.456 266.52)">
   <path d="m0 0-0.042-14.788 0.557 0.284v14.785z" fill="#787870"/>
  </g>
  <g transform="matrix(-.35278 0 0 -.35278 -42.182 267.18)">
   <path d="m0 0-0.03-16.357 0.485 0.305v16.361z" fill="#787870"/>
  </g>
  <g transform="matrix(-.35278 0 0 -.35278 -40.269 266.08)">
   <path d="m0 0 0.456 0.308 5.422-3.102-0.455-0.309z" fill="#787870"/>
  </g>
  <g transform="matrix(-.35278 0 0 -.35278 -42.019 272.64)">
   <path d="m0 0v14.79l-4.429 2.572-0.042-14.787zm-4.96 18.593 5.423-3.103-0.029-16.356-5.394 3.105z" fill="#d8d8d8"/>
  </g>
  <g transform="matrix(-.35278 0 0 -.35278 -42.084 268.61)">
   <path d="m0 0-4.898 2.819v-0.625l4.898-2.818z" fill="#d8d8d8"/>
  </g>
  <g>
   <flowRoot transform="matrix(-.26458 0 0 .26458 -20.002 238.53)" fill="#000000" font-family="sans-serif" font-size="16px" letter-spacing="0px" word-spacing="0px" style="line-height:1.25" xml:space="preserve"><flowRegion><rect x="-84.286" y="168.85" width="70" height="55.714"/></flowRegion><flowPara/></flowRoot>
   <flowRoot transform="matrix(-.26458 0 0 .26458 -20.002 238.53)" fill="#000000" font-family="sans-serif" font-size="18.667px" letter-spacing="0px" word-spacing="0px" style="line-height:1.25" xml:space="preserve"><flowRegion font-size="18.667px"><rect x="-283.57" y="180.99" width="80" height="50"/></flowRegion><flowPara/></flowRoot>
   <rect transform="scale(-1,1)" x="-1.5428" y="295.3" width="1.5119" height="1.3229" fill="#ccc"/>
  </g>
  <flowRoot transform="matrix(.22914 -.13229 .26458 .15276 -195.62 310.9)" fill="#000000" font-family="sans-serif" font-size="13.333px" letter-spacing="0px" word-spacing="0px" style="line-height:1.25" xml:space="preserve"><flowRegion><rect x="345.71" y="242.65" width="170.71" height="41.429"/></flowRegion><flowPara font-family="Georgia" font-size="24px">Academy</flowPara></flowRoot>
 </g>
</svg>
