<?xml version="1.0" encoding="UTF-8" standalone="no"?>
<!-- Created with Inkscape (http://www.inkscape.org/) -->

<svg
   xmlns:dc="http://purl.org/dc/elements/1.1/"
   xmlns:cc="http://creativecommons.org/ns#"
   xmlns:rdf="http://www.w3.org/1999/02/22-rdf-syntax-ns#"
   xmlns:svg="http://www.w3.org/2000/svg"
   xmlns="http://www.w3.org/2000/svg"
   xmlns:sodipodi="http://sodipodi.sourceforge.net/DTD/sodipodi-0.dtd"
   xmlns:inkscape="http://www.inkscape.org/namespaces/inkscape"
   width="30.04524mm"
   height="58.786415mm"
   viewBox="0 0 30.04524 58.786415"
   version="1.1"
   id="svg87834"
   inkscape:version="0.92.3 (2405546, 2018-03-11)"
   sodipodi:docname="public-31.svg">
  <defs
     id="defs87828">
    <clipPath
       clipPathUnits="userSpaceOnUse"
       id="clipPath323539">
      <path
         d="m 1968.98,1607.693 c 0,-1.813 1.193,-3.63 3.59,-5.014 v 0 c 4.764,-2.751 12.466,-2.747 17.195,0 v 0 c 2.352,1.365 3.529,3.152 3.532,4.942 v 0 l 0.112,18.007 c -0.01,-1.791 -1.182,-3.578 -3.532,-4.945 v 0 c -4.731,-2.749 -12.433,-2.753 -17.196,0 v 0 c -2.397,1.385 -3.595,3.202 -3.589,5.016 v 0 l -0.112,-18.005 z"
         id="path323537"
         inkscape:connector-curvature="0" />
    </clipPath>
    <clipPath
       clipPathUnits="userSpaceOnUse"
       id="clipPath323499">
      <path
         d="M 0,2270.272 H 3066.787 V 0 H 0 Z"
         id="path323497"
         inkscape:connector-curvature="0" />
    </clipPath>
    <clipPath
       clipPathUnits="userSpaceOnUse"
       id="clipPath323487">
      <path
         d="m 1943.382,1508.341 c -0.017,-5.737 3.764,-11.478 11.342,-15.851 v 0 c 15.064,-8.697 39.401,-8.697 54.369,0 v 0 c 7.435,4.319 11.157,9.974 11.175,15.637 v 0 c 0,2.739 0.014,5.479 0.021,8.219 v 0 c -0.018,-5.664 -3.736,-11.317 -11.173,-15.638 v 0 c -14.964,-8.698 -39.306,-8.698 -54.37,0 v 0 c -7.574,4.373 -11.357,10.115 -11.343,15.848 v 0 l -0.021,-8.217 z"
         id="path323485"
         inkscape:connector-curvature="0" />
    </clipPath>
    <clipPath
       clipPathUnits="userSpaceOnUse"
       id="clipPath323467">
      <path
         d="m 1939.5,1530.56 h 85.17 v -49.34 h -85.17 z"
         id="path323465"
         inkscape:connector-curvature="0" />
    </clipPath>
  </defs>
  <sodipodi:namedview
     id="base"
     pagecolor="#ffffff"
     bordercolor="#666666"
     borderopacity="1.0"
     inkscape:pageopacity="0.0"
     inkscape:pageshadow="2"
     inkscape:zoom="0.35"
     inkscape:cx="-80.364446"
     inkscape:cy="562.52101"
     inkscape:document-units="mm"
     inkscape:current-layer="layer1"
     showgrid="false"
     fit-margin-top="0"
     fit-margin-left="0"
     fit-margin-right="0"
     fit-margin-bottom="0"
     inkscape:window-width="1366"
     inkscape:window-height="716"
     inkscape:window-x="-8"
     inkscape:window-y="-8"
     inkscape:window-maximized="1" />
  <metadata
     id="metadata87831">
    <rdf:RDF>
      <cc:Work
         rdf:about="">
        <dc:format>image/svg+xml</dc:format>
        <dc:type
           rdf:resource="http://purl.org/dc/dcmitype/StillImage" />
        <dc:title></dc:title>
      </cc:Work>
    </rdf:RDF>
  </metadata>
  <g
     inkscape:label="Layer 1"
     inkscape:groupmode="layer"
     id="layer1"
     transform="translate(-127.09643,-238.8806)">
    <g
       transform="matrix(0.35277777,0,0,-0.35277777,-557.1169,820.20953)"
       id="g323461">
      <g
         id="g323463" />
      <g
         id="g323475">
        <g
           clip-path="url(#clipPath323467)"
           id="g323473"
           style="opacity:0.22999597">
          <g
             transform="translate(2012.1016,1523.3394)"
             id="g323471">
            <path
               d="m 0,0 c 16.686,-9.636 16.771,-25.258 0.194,-34.891 -16.581,-9.634 -43.545,-9.634 -60.231,0 -16.673,9.629 -16.764,25.249 -0.185,34.879 C -43.644,9.625 -16.679,9.625 0,0"
               style="fill:#007093;fill-opacity:1;fill-rule:nonzero;stroke:none"
               id="path323469"
               inkscape:connector-curvature="0" />
          </g>
        </g>
      </g>
    </g>
    <g
       id="g323477"
       transform="matrix(0.35277777,0,0,-0.35277777,155.59617,285.27562)">
      <path
         d="m 0,0 c -0.007,-2.74 -0.018,-5.48 -0.021,-8.219 -0.018,-5.663 -3.74,-11.318 -11.174,-15.637 -14.968,-8.699 -39.306,-8.699 -54.369,-0.002 -7.579,4.373 -11.36,10.114 -11.343,15.85 l 0.021,8.218 c -0.014,-5.733 3.769,-11.476 11.343,-15.848 15.064,-8.698 39.405,-8.698 54.37,0 C -3.736,-11.316 -0.018,-5.664 0,0"
         style="fill:#ff4343;fill-opacity:1;fill-rule:nonzero;stroke:none"
         id="path323479"
         inkscape:connector-curvature="0" />
    </g>
    <g
       transform="matrix(0.35277777,0,0,-0.35277777,-557.1169,820.20953)"
       id="g323481">
      <g
         id="g323483"
         clip-path="url(#clipPath323487)">
        <g
           id="g323489"
           transform="translate(2020.2891,1516.3481)">
          <path
             d="m 0,0 -0.021,-8.219 c -0.018,-5.663 -3.74,-11.318 -11.174,-15.637 -14.968,-8.699 -39.306,-8.699 -54.369,-0.002 -7.579,4.373 -11.36,10.114 -11.343,15.85 l 0.021,8.218 c -0.014,-5.733 3.769,-11.476 11.343,-15.848 15.064,-8.698 39.405,-8.698 54.37,0 C -3.736,-11.316 -0.018,-5.664 0,0"
             style="fill:#d72020;fill-opacity:1;fill-rule:nonzero;stroke:none"
             id="path323491"
             inkscape:connector-curvature="0" />
        </g>
      </g>
    </g>
    <g
       transform="matrix(0.35277777,0,0,-0.35277777,-557.1169,820.20953)"
       id="g323493">
      <g
         id="g323495"
         clip-path="url(#clipPath323499)">
        <g
           id="g323501"
           transform="translate(2008.9414,1532.2046)">
          <path
             d="m 0,0 c 15.062,-8.697 15.14,-22.799 0.175,-31.494 -14.965,-8.698 -39.306,-8.698 -54.37,0 -15.055,8.69 -15.135,22.79 -0.166,31.485 C -39.397,8.691 -15.058,8.688 0,0"
             style="fill:#ffe6a5;fill-opacity:1;fill-rule:nonzero;stroke:none"
             id="path323503"
             inkscape:connector-curvature="0" />
        </g>
        <g
           id="g323505"
           transform="translate(2016.2109,1521.0532)">
          <path
             d="M 0,0 -14.595,83.282 H -54.908 L -69.502,0 c -0.292,-0.826 -0.443,-1.674 -0.443,-2.536 0,-9.189 11.518,-19.517 35.194,-19.517 21.757,0 35.195,10.328 35.195,19.517 C 0.444,-1.674 0.292,-0.826 0,0"
             style="fill:#eac93d;fill-opacity:1;fill-rule:nonzero;stroke:none"
             id="path323507"
             inkscape:connector-curvature="0" />
        </g>
        <g
           id="g323509"
           transform="translate(1948.2637,1511.8804)">
          <path
             d="m 0,0 c 0.969,-1.588 2.296,-3.124 3.984,-4.552 l 12.529,93.484 -2.046,0.702 z"
             style="fill:#ff5e4d;fill-opacity:1;fill-rule:nonzero;stroke:none"
             id="path323511"
             inkscape:connector-curvature="0" />
        </g>
        <g
           id="g323513"
           transform="translate(2000.0234,1602.0522)">
          <path
             d="m 0,0 -1.989,-0.731 13.628,-92.632 c 1.65,1.561 2.914,3.222 3.756,4.915 z"
             style="fill:#ff5e4d;fill-opacity:1;fill-rule:nonzero;stroke:none"
             id="path323515"
             inkscape:connector-curvature="0" />
        </g>
        <g
           id="g323517"
           transform="translate(1993.6436,1600.3901)">
          <path
             d="m 0,0 -3.504,-1.319 5.641,-98.399 c 2.774,0.694 5.307,1.575 7.573,2.604 z"
             style="fill:#ff5e4d;fill-opacity:1;fill-rule:nonzero;stroke:none"
             id="path323519"
             inkscape:connector-curvature="0" />
        </g>
        <g
           id="g323521"
           transform="translate(1959.0566,1503.1362)">
          <path
             d="m 0,0 c 2.227,-1.003 4.748,-1.859 7.564,-2.53 l 6.728,98.386 -3.488,1.359 z"
             style="fill:#ff5e4d;fill-opacity:1;fill-rule:nonzero;stroke:none"
             id="path323523"
             inkscape:connector-curvature="0" />
        </g>
        <g
           id="g323525"
           transform="translate(1981.46,1499.0005)">
          <path
             d="M 0,0 C 1.517,0 2.989,0.055 4.422,0.15 L 3.201,101.105 H -1.601 L -4.669,0.145 C -3.169,0.052 -1.614,0 0,0"
             style="fill:#ff5e4d;fill-opacity:1;fill-rule:nonzero;stroke:none"
             id="path323527"
             inkscape:connector-curvature="0" />
        </g>
        <g
           id="g323529"
           transform="translate(2001.6162,1604.3354)">
          <path
             d="m 0,0 c 0,-6.048 -9.024,-10.949 -20.156,-10.949 -11.132,0 -20.157,4.901 -20.157,10.949 0,6.045 9.025,10.946 20.157,10.946 C -9.024,10.946 0,6.045 0,0"
             style="fill:#fff380;fill-opacity:1;fill-rule:nonzero;stroke:none"
             id="path323531"
             inkscape:connector-curvature="0" />
        </g>
      </g>
    </g>
    <g
       transform="matrix(0.35277777,0,0,-0.35277777,-557.1169,820.20953)"
       id="g323533">
      <g
         id="g323535"
         clip-path="url(#clipPath323539)">
        <g
           id="g323541"
           transform="translate(1993.4092,1625.6313)">
          <path
             d="m 0,0 -0.111,-18.007 c -0.004,-1.79 -1.181,-3.578 -3.534,-4.942 -4.728,-2.75 -12.43,-2.754 -17.195,-0.004 -2.396,1.385 -3.593,3.202 -3.589,5.015 l 0.112,18.004 c -0.006,-1.813 1.191,-3.63 3.589,-5.015 4.763,-2.749 12.465,-2.745 17.197,0.004 C -1.182,-3.578 -0.006,-1.791 0,0"
             style="fill:#f4da6c;fill-opacity:1;fill-rule:nonzero;stroke:none"
             id="path323543"
             inkscape:connector-curvature="0" />
        </g>
      </g>
    </g>
    <g
       id="g323553"
       transform="matrix(0.35277777,0,0,-0.35277777,146.11355,246.71119)">
      <path
         d="m 0,0 c 0.011,-1.802 -1.168,-3.604 -3.531,-4.979 -4.732,-2.749 -12.434,-2.752 -17.197,-0.003 -2.775,1.602 -3.941,3.783 -3.497,5.869 0.318,1.498 11.994,21.468 11.994,21.309 C -12.231,21.866 -0.012,1.802 0,0"
         style="fill:#ff5e4d;fill-opacity:1;fill-rule:nonzero;stroke:none"
         id="path323555"
         inkscape:connector-curvature="0" />
    </g>
    <g
       id="g323557"
       transform="matrix(0.35277777,0,0,-0.35277777,138.80132,248.46891)">
      <path
         d="M 0,0 C 1.087,-0.627 2.332,-1.104 3.655,-1.444 L 8.496,27.179 -2.774,2.491 C -2.177,1.583 -1.267,0.729 0,0"
         style="fill:#fff380;fill-opacity:1;fill-rule:nonzero;stroke:none"
         id="path323559"
         inkscape:connector-curvature="0" />
    </g>
    <g
       id="g323561"
       transform="matrix(0.35277777,0,0,-0.35277777,144.86779,248.46753)">
      <path
         d="M 0,0 C 1.167,0.679 2.04,1.461 2.63,2.296 L -8.626,27.014 C -8.67,27.098 -8.7,27.159 -8.7,27.175 L -3.877,-1.51 C -2.467,-1.166 -1.146,-0.665 0,0"
         style="fill:#fff380;fill-opacity:1;fill-rule:nonzero;stroke:none"
         id="path323563"
         inkscape:connector-curvature="0" />
    </g>
    <g
       id="g323565"
       transform="matrix(0.35277777,0,0,-0.35277777,134.67408,256.20761)">
      <path
         d="m 0,0 c 0,0 -3.227,0.594 -6.877,-2.8 -4.394,-4.081 -4.24,-12.798 1.918,-19.356 7.768,-8.273 13.841,-11.972 29.275,-15.518 11.84,-2.721 21.738,-1.319 25.277,2.22 0.889,0.889 0.8,4.386 0.66,5.519 -0.16,1.32 -1.266,-0.036 -4.019,0.741 -0.205,0.055 0.322,-2.241 -2.24,-4.321 -2.669,-2.168 -7.945,-2.755 -16.957,-0.799 -11.683,2.535 -17.559,5.496 -24.315,11.519 -7.361,6.558 -4.001,14.557 -4.001,14.557 z"
         style="fill:#f91510;fill-opacity:1;fill-rule:nonzero;stroke:none"
         id="path323567"
         inkscape:connector-curvature="0" />
    </g>
    <g
       id="g323569"
       transform="matrix(0.35277777,0,0,-0.35277777,134.67408,255.13549)">
      <path
         d="m 0,0 c 0,0 -3.227,0.593 -6.877,-2.799 -4.394,-4.081 -4.24,-12.798 1.918,-19.357 7.768,-8.273 13.841,-11.972 29.275,-15.518 11.84,-2.72 21.758,-0.96 24.637,1.919 1.928,1.927 2.401,5.12 -2.719,6.561 -0.205,0.055 0.322,-2.242 -2.24,-4.32 -2.669,-2.169 -7.945,-2.756 -16.957,-0.8 -11.683,2.535 -17.559,5.495 -24.315,11.519 -7.361,6.559 -4.001,14.556 -4.001,14.556 z"
         style="fill:#fff380;fill-opacity:1;fill-rule:nonzero;stroke:none"
         id="path323571"
         inkscape:connector-curvature="0" />
    </g>
    <g
       id="g323573"
       transform="matrix(0.35277777,0,0,-0.35277777,132.11921,268.426)">
      <path
         d="m 0,0 c 0,0 -3.239,-1.246 -7.908,-4.641 -5.617,-4.08 -5.421,-12.796 2.454,-19.356 9.933,-8.274 17.699,-11.972 37.437,-15.517 15.14,-2.719 26.034,-1.57 30.77,1.679 2.802,1.921 2.574,4.927 2.397,6.06 -0.206,1.32 -1.616,-0.036 -5.139,0.74 -0.262,0.057 0.407,-2.239 -2.865,-4.32 -3.413,-2.167 -10.159,-2.755 -21.685,-0.799 -14.94,2.534 -22.454,5.495 -31.096,11.518 -9.409,6.559 -6.001,16.397 -6.001,16.397 z"
         style="fill:#f91510;fill-opacity:1;fill-rule:nonzero;stroke:none"
         id="path323575"
         inkscape:connector-curvature="0" />
    </g>
    <g
       id="g323577"
       transform="matrix(0.35277777,0,0,-0.35277777,132.36035,268.08734)">
      <path
         d="m 0,0 c 0,0 -4.559,0.72 -8.592,-2.559 -5.387,-4.38 -5.421,-12.799 2.454,-19.359 9.934,-8.272 17.7,-11.972 37.438,-15.517 15.139,-2.718 27.821,-0.961 31.505,1.919 2.462,1.927 2.773,6.8 -3.774,8.241 -0.26,0.056 0.703,-3.92 -2.568,-5.999 -3.413,-2.169 -10.159,-2.756 -21.686,-0.802 -14.939,2.535 -22.705,5.149 -31.095,11.518 -8.322,6.322 -5.28,12.56 -5.28,12.56 z"
         style="fill:#fff380;fill-opacity:1;fill-rule:nonzero;stroke:none"
         id="path323579"
         inkscape:connector-curvature="0" />
    </g>
    <g
       id="g323581"
       transform="matrix(0.35277777,0,0,-0.35277777,142.65981,252.51103)">
      <path
         d="M 0,0 C 0,0 -1.038,-0.319 -2.558,-0.319 -4.238,-0.319 -4.959,0 -4.959,0 V 5.36 L -2.4,7.28 0,5.36 Z"
         style="fill:#685401;fill-opacity:1;fill-rule:nonzero;stroke:none"
         id="path323583"
         inkscape:connector-curvature="0" />
    </g>
    <g
       id="g323585"
       transform="matrix(0.35277777,0,0,-0.35277777,139.21682,252.07348)">
      <path
         d="M 0,0 C 0,0 -0.717,0.199 -1.921,0.914 -2.818,1.447 -3.197,2.28 -3.197,2.28 v 4.84 l 1.609,0.64 1.509,-1.921 z"
         style="fill:#685401;fill-opacity:1;fill-rule:nonzero;stroke:none"
         id="path323587"
         inkscape:connector-curvature="0" />
    </g>
    <g
       id="g323589"
       transform="matrix(0.35277777,0,0,-0.35277777,144.49433,252.07348)">
      <path
         d="M 0,0 C 0,0 0.719,0.199 1.921,0.914 2.82,1.447 3.198,2.28 3.198,2.28 V 7.12 L 1.589,7.76 0.079,5.839 Z"
         style="fill:#685401;fill-opacity:1;fill-rule:nonzero;stroke:none"
         id="path323591"
         inkscape:connector-curvature="0" />
    </g>
  </g>
</svg>
