<?xml version="1.0" encoding="UTF-8" standalone="no"?>
<!-- Created with Inkscape (http://www.inkscape.org/) -->

<svg
   xmlns:dc="http://purl.org/dc/elements/1.1/"
   xmlns:cc="http://creativecommons.org/ns#"
   xmlns:rdf="http://www.w3.org/1999/02/22-rdf-syntax-ns#"
   xmlns:svg="http://www.w3.org/2000/svg"
   xmlns="http://www.w3.org/2000/svg"
   xmlns:sodipodi="http://sodipodi.sourceforge.net/DTD/sodipodi-0.dtd"
   xmlns:inkscape="http://www.inkscape.org/namespaces/inkscape"
   width="54.607468mm"
   height="42.773117mm"
   viewBox="0 0 54.607468 42.773118"
   version="1.1"
   id="svg300755"
   inkscape:version="0.92.3 (2405546, 2018-03-11)"
   sodipodi:docname="3.svg">
  <defs
     id="defs300749">
    <clipPath
       clipPathUnits="userSpaceOnUse"
       id="clipPath3256">
      <path
         d="M 1871.12,3284.99 H 2041.3 V 3181.1 h -170.18 z"
         id="path3254"
         inkscape:connector-curvature="0" />
    </clipPath>
    <clipPath
       clipPathUnits="userSpaceOnUse"
       id="clipPath3364">
      <path
         d="m 1903.91,3253.78 h 46.12 v -36.96 h -46.12 z"
         id="path3362"
         inkscape:connector-curvature="0" />
    </clipPath>
    <linearGradient
       x1="0"
       y1="0"
       x2="1"
       y2="0"
       gradientUnits="userSpaceOnUse"
       gradientTransform="matrix(46.115234,0,0,-46.115234,1903.9141,3235.2964)"
       spreadMethod="pad"
       id="linearGradient3374">
      <stop
         style="stop-opacity:1;stop-color:#e9e9ea"
         offset="0"
         id="stop3370" />
      <stop
         style="stop-opacity:1;stop-color:#000000"
         offset="1"
         id="stop3372" />
    </linearGradient>
    <clipPath
       clipPathUnits="userSpaceOnUse"
       id="clipPath3400">
      <path
         d="M 1876.66,3270.04 H 1907 v -34.85 h -30.34 z"
         id="path3398"
         inkscape:connector-curvature="0" />
    </clipPath>
    <clipPath
       clipPathUnits="userSpaceOnUse"
       id="clipPath3456">
      <path
         d="m 1978.52,3227.8 h 19.07 v -5.47 h -19.07 z"
         id="path3454"
         inkscape:connector-curvature="0" />
    </clipPath>
    <clipPath
       clipPathUnits="userSpaceOnUse"
       id="clipPath3472">
      <path
         d="m 2019.5,3255.73 h 18.56 v -5.92 h -18.56 z"
         id="path3470"
         inkscape:connector-curvature="0" />
    </clipPath>
    <clipPath
       clipPathUnits="userSpaceOnUse"
       id="clipPath3548">
      <path
         d="m 1965.85,3279.43 h 36.68 v -40.81 h -36.68 z"
         id="path3546"
         inkscape:connector-curvature="0" />
    </clipPath>
    <clipPath
       clipPathUnits="userSpaceOnUse"
       id="clipPath3572">
      <path
         d="m 1934.03,3265.36 h 35.96 v -20.11 h -35.96 z"
         id="path3570"
         inkscape:connector-curvature="0" />
    </clipPath>
    <clipPath
       clipPathUnits="userSpaceOnUse"
       id="clipPath3588">
      <path
         d="m 1968.3,3281.89 h 18.96 v -15.71 h -18.96 z"
         id="path3586"
         inkscape:connector-curvature="0" />
    </clipPath>
    <clipPath
       clipPathUnits="userSpaceOnUse"
       id="clipPath3616">
      <path
         d="m 1883.1,3257.87 h 13.66 v -17.73 h -13.66 z"
         id="path3614"
         inkscape:connector-curvature="0" />
    </clipPath>
    <clipPath
       clipPathUnits="userSpaceOnUse"
       id="clipPath3648">
      <path
         d="m 1962.79,3215.09 h 13.66 v -17.73 h -13.66 z"
         id="path3646"
         inkscape:connector-curvature="0" />
    </clipPath>
    <clipPath
       clipPathUnits="userSpaceOnUse"
       id="clipPath4878">
      <path
         d="m 2061.6,3267.68 h 152.56 V 3181.1 H 2061.6 Z"
         id="path4876"
         inkscape:connector-curvature="0" />
    </clipPath>
    <clipPath
       clipPathUnits="userSpaceOnUse"
       id="clipPath4914">
      <path
         d="m 2082.5,3242.21 h 9.15 v -12.67 h -9.15 z"
         id="path4912"
         inkscape:connector-curvature="0" />
    </clipPath>
    <clipPath
       clipPathUnits="userSpaceOnUse"
       id="clipPath4966">
      <path
         d="m 2145.07,3236.4 h 66.94 v -37.97 h -66.94 z"
         id="path4964"
         inkscape:connector-curvature="0" />
    </clipPath>
    <clipPath
       clipPathUnits="userSpaceOnUse"
       id="clipPath4982">
      <path
         d="m 2162.29,3210.49 h 20.74 v -9.74 h -20.74 z"
         id="path4980"
         inkscape:connector-curvature="0" />
    </clipPath>
    <clipPath
       clipPathUnits="userSpaceOnUse"
       id="clipPath5030">
      <path
         d="m 2147.61,3204.98 h 9.51 v -12.33 h -9.51 z"
         id="path5028"
         inkscape:connector-curvature="0" />
    </clipPath>
    <clipPath
       clipPathUnits="userSpaceOnUse"
       id="clipPath5050">
      <path
         d="m 2206.61,3230.91 h 4.66 v -14.56 h -4.66 z"
         id="path5048"
         inkscape:connector-curvature="0" />
    </clipPath>
    <clipPath
       clipPathUnits="userSpaceOnUse"
       id="clipPath5090">
      <path
         d="m 2174.5,3206.23 h 3.34 v -3.87 h -3.34 z"
         id="path5088"
         inkscape:connector-curvature="0" />
    </clipPath>
    <clipPath
       clipPathUnits="userSpaceOnUse"
       id="clipPath5110">
      <path
         d="m 2095.48,3284.67 h 66.22 v -31.51 h -66.22 z"
         id="path5108"
         inkscape:connector-curvature="0" />
    </clipPath>
    <clipPath
       clipPathUnits="userSpaceOnUse"
       id="clipPath5126">
      <path
         d="m 2151.87,3244.72 h 52.47 v -30.78 h -52.47 z"
         id="path5124"
         inkscape:connector-curvature="0" />
    </clipPath>
    <clipPath
       clipPathUnits="userSpaceOnUse"
       id="clipPath5154">
      <path
         d="m 2107.59,3258.5 h 34.46 v -55.02 h -34.46 z"
         id="path5152"
         inkscape:connector-curvature="0" />
    </clipPath>
    <clipPath
       clipPathUnits="userSpaceOnUse"
       id="clipPath5186">
      <path
         d="m 2127.21,3230.54 h 9.83 v -4.24 h -9.83 z"
         id="path5184"
         inkscape:connector-curvature="0" />
    </clipPath>
    <clipPath
       clipPathUnits="userSpaceOnUse"
       id="clipPath5202">
      <path
         d="m 2072.49,3287.76 h 42.38 v -19.31 h -42.38 z"
         id="path5200"
         inkscape:connector-curvature="0" />
    </clipPath>
    <clipPath
       clipPathUnits="userSpaceOnUse"
       id="clipPath5846">
      <path
         d="m 441.461,3261.88 h 146.603 v -78.61 H 441.461 Z"
         id="path5844"
         inkscape:connector-curvature="0" />
    </clipPath>
    <clipPath
       clipPathUnits="userSpaceOnUse"
       id="clipPath5862">
      <path
         d="m 534.447,3228.29 h 53.047 v -31.76 h -53.047 z"
         id="path5860"
         inkscape:connector-curvature="0" />
    </clipPath>
    <clipPath
       clipPathUnits="userSpaceOnUse"
       id="clipPath5910">
      <path
         d="m 455.897,3259.95 h 58.405 v -62.97 h -58.405 z"
         id="path5908"
         inkscape:connector-curvature="0" />
    </clipPath>
    <clipPath
       clipPathUnits="userSpaceOnUse"
       id="clipPath5926">
      <path
         d="m 480.153,3255.43 h 5.279 v -42.72 h -5.279 z"
         id="path5924"
         inkscape:connector-curvature="0" />
    </clipPath>
    <clipPath
       clipPathUnits="userSpaceOnUse"
       id="clipPath5942">
      <path
         d="m 449.698,3262.12 h 114.897 v -58.11 H 449.698 Z"
         id="path5940"
         inkscape:connector-curvature="0" />
    </clipPath>
    <clipPath
       clipPathUnits="userSpaceOnUse"
       id="clipPath5958">
      <path
         d="m 569.722,3240.37 h 13.569 v -25.21 h -13.569 z"
         id="path5956"
         inkscape:connector-curvature="0" />
    </clipPath>
    <clipPath
       clipPathUnits="userSpaceOnUse"
       id="clipPath216">
      <path
         d="M 1347.02,3255.05 H 1482.6 V 3181.1 H 1347.02 Z"
         id="path214"
         inkscape:connector-curvature="0" />
    </clipPath>
    <clipPath
       clipPathUnits="userSpaceOnUse"
       id="clipPath368">
      <path
         d="m 1426.42,3253.06 h 52.99 v -34.62 h -52.99 z"
         id="path366"
         inkscape:connector-curvature="0" />
    </clipPath>
    <clipPath
       clipPathUnits="userSpaceOnUse"
       id="clipPath384">
      <path
         d="m 1418.31,3227.91 h 22.89 v -12.26 h -22.89 z"
         id="path382"
         inkscape:connector-curvature="0" />
    </clipPath>
    <clipPath
       clipPathUnits="userSpaceOnUse"
       id="clipPath408">
      <path
         d="m 1346.43,3269.04 h 2.26 v -7.33 h -2.26 z"
         id="path406"
         inkscape:connector-curvature="0" />
    </clipPath>
    <clipPath
       clipPathUnits="userSpaceOnUse"
       id="clipPath620">
      <path
         d="m 1356.73,3303.72 h 90.88 v -45.36 h -90.88 z"
         id="path618"
         inkscape:connector-curvature="0" />
    </clipPath>
    <clipPath
       clipPathUnits="userSpaceOnUse"
       id="clipPath636">
      <path
         d="m 1522.66,3261.56 h 147.27 v -80.46 h -147.27 z"
         id="path634"
         inkscape:connector-curvature="0" />
    </clipPath>
    <clipPath
       clipPathUnits="userSpaceOnUse"
       id="clipPath820">
      <path
         d="M 1557.54,3229.73 Z"
         id="path818"
         inkscape:connector-curvature="0" />
    </clipPath>
    <clipPath
       clipPathUnits="userSpaceOnUse"
       id="clipPath852">
      <path
         d="m 1566.63,3300.03 h 94.05 v -50.97 h -94.05 z"
         id="path850"
         inkscape:connector-curvature="0" />
    </clipPath>
    <clipPath
       clipPathUnits="userSpaceOnUse"
       id="clipPath896">
      <path
         d="m 1626.43,3225.22 h 4.82 v -15.59 h -4.82 z"
         id="path894"
         inkscape:connector-curvature="0" />
    </clipPath>
    <clipPath
       clipPathUnits="userSpaceOnUse"
       id="clipPath916">
      <path
         d="m 1668.97,3248.32 h 4.16 v -14.83 h -4.16 z"
         id="path914"
         inkscape:connector-curvature="0" />
    </clipPath>
    <clipPath
       clipPathUnits="userSpaceOnUse"
       id="clipPath932">
      <path
         d="m 1623.86,3209.27 h 5.41 v -13.89 h -5.41 z"
         id="path930"
         inkscape:connector-curvature="0" />
    </clipPath>
    <clipPath
       clipPathUnits="userSpaceOnUse"
       id="clipPath984">
      <path
         d="M 2241.54,3263.38 H 2392.1 V 3181.1 H 2241.54 Z"
         id="path982"
         inkscape:connector-curvature="0" />
    </clipPath>
    <clipPath
       clipPathUnits="userSpaceOnUse"
       id="clipPath1068">
      <path
         d="m 2250.46,3246.87 h 10.19 v -13.23 h -10.19 z"
         id="path1066"
         inkscape:connector-curvature="0" />
    </clipPath>
    <clipPath
       clipPathUnits="userSpaceOnUse"
       id="clipPath1096">
      <path
         d="m 2325.12,3205.39 h 10.19 v -13.23 h -10.19 z"
         id="path1094"
         inkscape:connector-curvature="0" />
    </clipPath>
    <clipPath
       clipPathUnits="userSpaceOnUse"
       id="clipPath1116">
      <path
         d="m 2341.56,3247.6 h 48.81 v -37.16 h -48.81 z"
         id="path1114"
         inkscape:connector-curvature="0" />
    </clipPath>
    <clipPath
       clipPathUnits="userSpaceOnUse"
       id="clipPath1152">
      <path
         d="m 2261.03,3256.13 h 5.5 v -8.41 h -5.5 z"
         id="path1150"
         inkscape:connector-curvature="0" />
    </clipPath>
    <clipPath
       clipPathUnits="userSpaceOnUse"
       id="clipPath1172">
      <path
         d="m 2346.72,3241.54 h 46.4 v -33.45 h -46.4 z"
         id="path1170"
         inkscape:connector-curvature="0" />
    </clipPath>
    <clipPath
       clipPathUnits="userSpaceOnUse"
       id="clipPath1192">
      <path
         d="m 2266.76,3261.85 h 43.66 v -45.63 h -43.66 z"
         id="path1190"
         inkscape:connector-curvature="0" />
    </clipPath>
    <clipPath
       clipPathUnits="userSpaceOnUse"
       id="clipPath1216">
      <path
         d="m 2243.45,3285.5 h 63.5 v -24.87 h -63.5 z"
         id="path1214"
         inkscape:connector-curvature="0" />
    </clipPath>
    <clipPath
       clipPathUnits="userSpaceOnUse"
       id="clipPath1236">
      <path
         d="m 2297.91,3280.49 h 66.9 v -34.76 h -66.9 z"
         id="path1234"
         inkscape:connector-curvature="0" />
    </clipPath>
    <clipPath
       clipPathUnits="userSpaceOnUse"
       id="clipPath1252">
      <path
         d="m 2364.67,3231.43 h 22.31 v -17.6 h -22.31 z"
         id="path1250"
         inkscape:connector-curvature="0" />
    </clipPath>
    <clipPath
       clipPathUnits="userSpaceOnUse"
       id="clipPath1280">
      <path
         d="m 2419.57,3263.23 h 158.01 v -82.13 h -158.01 z"
         id="path1278"
         inkscape:connector-curvature="0" />
    </clipPath>
    <clipPath
       clipPathUnits="userSpaceOnUse"
       id="clipPath1300">
      <path
         d="m 2526.61,3269.04 h 4.28 v -7.82 h -4.28 z"
         id="path1298"
         inkscape:connector-curvature="0" />
    </clipPath>
    <clipPath
       clipPathUnits="userSpaceOnUse"
       id="clipPath1400">
      <path
         d="m 2482.43,3253.79 h 83.72 v -49.2 h -83.72 z"
         id="path1398"
         inkscape:connector-curvature="0" />
    </clipPath>
    <clipPath
       clipPathUnits="userSpaceOnUse"
       id="clipPath1416">
      <path
         d="m 2423,3257.2 h 97.84 v -69.67 H 2423 Z"
         id="path1414"
         inkscape:connector-curvature="0" />
    </clipPath>
    <clipPath
       clipPathUnits="userSpaceOnUse"
       id="clipPath1432">
      <path
         d="m 2432.04,3283.95 h 141.05 v -93.24 h -141.05 z"
         id="path1430"
         inkscape:connector-curvature="0" />
    </clipPath>
    <clipPath
       clipPathUnits="userSpaceOnUse"
       id="clipPath1460">
      <path
         d="m 2568.33,3223.82 h 4.76 v -11.13 h -4.76 z"
         id="path1458"
         inkscape:connector-curvature="0" />
    </clipPath>
    <clipPath
       clipPathUnits="userSpaceOnUse"
       id="clipPath1488">
      <path
         d="m 2566.17,3235.24 h 4.5 v -6.52 h -4.5 z"
         id="path1486"
         inkscape:connector-curvature="0" />
    </clipPath>
    <clipPath
       clipPathUnits="userSpaceOnUse"
       id="clipPath1556">
      <path
         d="m 2507.78,3227.36 h 20.83 v -6.02 h -20.83 z"
         id="path1554"
         inkscape:connector-curvature="0" />
    </clipPath>
    <clipPath
       clipPathUnits="userSpaceOnUse"
       id="clipPath1576">
      <path
         d="m 2546.07,3247.24 h 10.1 v -10.8 h -10.1 z"
         id="path1574"
         inkscape:connector-curvature="0" />
    </clipPath>
    <clipPath
       clipPathUnits="userSpaceOnUse"
       id="clipPath1604">
      <path
         d="m 2428.93,3263.96 h 11.87 v -10.86 h -11.87 z"
         id="path1602"
         inkscape:connector-curvature="0" />
    </clipPath>
    <clipPath
       clipPathUnits="userSpaceOnUse"
       id="clipPath1636">
      <path
         d="m 2521.04,3197.55 h 16.61 v -7.84 h -16.61 z"
         id="path1634"
         inkscape:connector-curvature="0" />
    </clipPath>
    <clipPath
       clipPathUnits="userSpaceOnUse"
       id="clipPath1664">
      <path
         d="m 2459.87,3238.17 h 8.56 v -3.12 h -8.56 z"
         id="path1662"
         inkscape:connector-curvature="0" />
    </clipPath>
    <clipPath
       clipPathUnits="userSpaceOnUse"
       id="clipPath1712">
      <path
         d="m 2476.6,3269.18 h 53.16 v -34.71 h -53.16 z"
         id="path1710"
         inkscape:connector-curvature="0" />
    </clipPath>
    <clipPath
       clipPathUnits="userSpaceOnUse"
       id="clipPath1740">
      <path
         d="m 2477.14,3271.22 h 58.05 v -40.05 h -58.05 z"
         id="path1738"
         inkscape:connector-curvature="0" />
    </clipPath>
    <clipPath
       clipPathUnits="userSpaceOnUse"
       id="clipPath3256-1">
      <path
         d="M 1871.12,3284.99 H 2041.3 V 3181.1 h -170.18 z"
         id="path3254-5"
         inkscape:connector-curvature="0" />
    </clipPath>
    <clipPath
       clipPathUnits="userSpaceOnUse"
       id="clipPath3364-0">
      <path
         d="m 1903.91,3253.78 h 46.12 v -36.96 h -46.12 z"
         id="path3362-3"
         inkscape:connector-curvature="0" />
    </clipPath>
    <clipPath
       clipPathUnits="userSpaceOnUse"
       id="clipPath3400-4">
      <path
         d="M 1876.66,3270.04 H 1907 v -34.85 h -30.34 z"
         id="path3398-7"
         inkscape:connector-curvature="0" />
    </clipPath>
    <clipPath
       clipPathUnits="userSpaceOnUse"
       id="clipPath3456-4">
      <path
         d="m 1978.52,3227.8 h 19.07 v -5.47 h -19.07 z"
         id="path3454-4"
         inkscape:connector-curvature="0" />
    </clipPath>
    <clipPath
       clipPathUnits="userSpaceOnUse"
       id="clipPath3472-7">
      <path
         d="m 2019.5,3255.73 h 18.56 v -5.92 h -18.56 z"
         id="path3470-2"
         inkscape:connector-curvature="0" />
    </clipPath>
    <clipPath
       clipPathUnits="userSpaceOnUse"
       id="clipPath3548-8">
      <path
         d="m 1965.85,3279.43 h 36.68 v -40.81 h -36.68 z"
         id="path3546-9"
         inkscape:connector-curvature="0" />
    </clipPath>
    <clipPath
       clipPathUnits="userSpaceOnUse"
       id="clipPath3572-1">
      <path
         d="m 1934.03,3265.36 h 35.96 v -20.11 h -35.96 z"
         id="path3570-2"
         inkscape:connector-curvature="0" />
    </clipPath>
    <clipPath
       clipPathUnits="userSpaceOnUse"
       id="clipPath3588-6">
      <path
         d="m 1968.3,3281.89 h 18.96 v -15.71 h -18.96 z"
         id="path3586-4"
         inkscape:connector-curvature="0" />
    </clipPath>
    <clipPath
       clipPathUnits="userSpaceOnUse"
       id="clipPath3616-7">
      <path
         d="m 1883.1,3257.87 h 13.66 v -17.73 h -13.66 z"
         id="path3614-7"
         inkscape:connector-curvature="0" />
    </clipPath>
    <clipPath
       clipPathUnits="userSpaceOnUse"
       id="clipPath3648-7">
      <path
         d="m 1962.79,3215.09 h 13.66 v -17.73 h -13.66 z"
         id="path3646-5"
         inkscape:connector-curvature="0" />
    </clipPath>
    <clipPath
       clipPathUnits="userSpaceOnUse"
       id="clipPath216-1">
      <path
         d="M 1347.02,3255.05 H 1482.6 V 3181.1 H 1347.02 Z"
         id="path214-7"
         inkscape:connector-curvature="0" />
    </clipPath>
    <clipPath
       clipPathUnits="userSpaceOnUse"
       id="clipPath368-2">
      <path
         d="m 1426.42,3253.06 h 52.99 v -34.62 h -52.99 z"
         id="path366-5"
         inkscape:connector-curvature="0" />
    </clipPath>
    <clipPath
       clipPathUnits="userSpaceOnUse"
       id="clipPath384-7">
      <path
         d="m 1418.31,3227.91 h 22.89 v -12.26 h -22.89 z"
         id="path382-7"
         inkscape:connector-curvature="0" />
    </clipPath>
    <clipPath
       clipPathUnits="userSpaceOnUse"
       id="clipPath408-3">
      <path
         d="m 1346.43,3269.04 h 2.26 v -7.33 h -2.26 z"
         id="path406-5"
         inkscape:connector-curvature="0" />
    </clipPath>
    <clipPath
       clipPathUnits="userSpaceOnUse"
       id="clipPath620-8">
      <path
         d="m 1356.73,3303.72 h 90.88 v -45.36 h -90.88 z"
         id="path618-6"
         inkscape:connector-curvature="0" />
    </clipPath>
    <clipPath
       clipPathUnits="userSpaceOnUse"
       id="clipPath636-8">
      <path
         d="m 1522.66,3261.56 h 147.27 v -80.46 h -147.27 z"
         id="path634-1"
         inkscape:connector-curvature="0" />
    </clipPath>
    <clipPath
       clipPathUnits="userSpaceOnUse"
       id="clipPath820-4">
      <path
         d="M 1557.54,3229.73 Z"
         id="path818-8"
         inkscape:connector-curvature="0" />
    </clipPath>
    <clipPath
       clipPathUnits="userSpaceOnUse"
       id="clipPath852-6">
      <path
         d="m 1566.63,3300.03 h 94.05 v -50.97 h -94.05 z"
         id="path850-2"
         inkscape:connector-curvature="0" />
    </clipPath>
    <clipPath
       clipPathUnits="userSpaceOnUse"
       id="clipPath896-6">
      <path
         d="m 1626.43,3225.22 h 4.82 v -15.59 h -4.82 z"
         id="path894-3"
         inkscape:connector-curvature="0" />
    </clipPath>
    <clipPath
       clipPathUnits="userSpaceOnUse"
       id="clipPath916-1">
      <path
         d="m 1668.97,3248.32 h 4.16 v -14.83 h -4.16 z"
         id="path914-5"
         inkscape:connector-curvature="0" />
    </clipPath>
    <clipPath
       clipPathUnits="userSpaceOnUse"
       id="clipPath932-9">
      <path
         d="m 1623.86,3209.27 h 5.41 v -13.89 h -5.41 z"
         id="path930-1"
         inkscape:connector-curvature="0" />
    </clipPath>
  </defs>
  <sodipodi:namedview
     id="base"
     pagecolor="#ffffff"
     bordercolor="#666666"
     borderopacity="1.0"
     inkscape:pageopacity="0.0"
     inkscape:pageshadow="2"
     inkscape:zoom="0.35"
     inkscape:cx="284.69582"
     inkscape:cy="-396.86484"
     inkscape:document-units="mm"
     inkscape:current-layer="layer1"
     showgrid="false"
     inkscape:window-width="1366"
     inkscape:window-height="716"
     inkscape:window-x="-8"
     inkscape:window-y="-8"
     inkscape:window-maximized="1"
     fit-margin-top="0"
     fit-margin-left="0"
     fit-margin-right="0"
     fit-margin-bottom="0" />
  <metadata
     id="metadata300752">
    <rdf:RDF>
      <cc:Work
         rdf:about="">
        <dc:format>image/svg+xml</dc:format>
        <dc:type
           rdf:resource="http://purl.org/dc/dcmitype/StillImage" />
        <dc:title></dc:title>
      </cc:Work>
    </rdf:RDF>
  </metadata>
  <g
     inkscape:label="Layer 1"
     inkscape:groupmode="layer"
     id="layer1"
     transform="translate(152.81089,-1.0563883)">
    <g
       transform="matrix(0.35277777,0,0,-0.35277777,-688.8371,1166.0514)"
       id="g194187">
      <g
         id="g630">
        <g
           id="g632" />
        <g
           id="g644">
          <g
             style="opacity:0.33000201"
             id="g642"
             clip-path="url(#clipPath636-8)">
            <g
               id="g640"
               transform="translate(1667.4355,3215.499)">
              <path
                 inkscape:connector-curvature="0"
                 id="path638"
                 style="fill:#1d1d1f;fill-opacity:1;fill-rule:nonzero;stroke:none"
                 d="m 0,0 c 3.315,-1.914 3.336,-5.021 0.037,-6.938 l -44.66,-25.933 c -3.824,-1.994 -10.477,-2.119 -14.509,0.127 l -83.32,45.6 c -3.318,1.915 -2.962,4.285 0.335,6.199 l 49.132,25.571 c 3.298,1.918 8.661,1.918 11.976,0.002 z" />
            </g>
          </g>
        </g>
      </g>
      <g
         transform="translate(1578.6836,3291.5884)"
         id="g646">
        <path
           inkscape:connector-curvature="0"
           id="path648"
           style="fill:#555559;fill-opacity:1;fill-rule:nonzero;stroke:none"
           d="m 0,0 -10.299,3.85 c 0,0 -2.703,1.456 -6.135,-0.417 -3.431,-1.872 -38.383,-22.989 -38.383,-22.989 0,0 -2.496,-1.455 -2.809,-3.118 -0.313,-1.665 29.124,-14.563 29.124,-14.563 z" />
      </g>
      <g
         transform="translate(1523.4502,3250.5796)"
         id="g650">
        <path
           inkscape:connector-curvature="0"
           id="path652"
           style="fill:#2d3636;fill-opacity:1;fill-rule:nonzero;stroke:none"
           d="m 0,0 c -0.77,0.272 -0.729,0.897 -0.729,0.897 0,0 0.045,1.793 0.043,1.993 -0.004,0.698 0.529,0.776 0.529,0.776 L 3.679,4.208 3.676,4.255 -1.18,5.229 c 0,0 -2.059,1.386 -2.009,-0.349 10e-4,-0.148 0.016,-3.841 0.016,-3.841 0,0 -0.13,-1.82 1.3,-2.678 0.989,-0.592 5.339,-3.467 5.339,-3.467 L 3.793,-1.71 C 2.482,-1.089 0.617,-0.219 0,0" />
      </g>
      <g
         transform="translate(1524.9561,3249.8516)"
         id="g654">
        <path
           inkscape:connector-curvature="0"
           id="path656"
           style="fill:#040505;fill-opacity:1;fill-rule:nonzero;stroke:none"
           d="m 0,0 c -0.765,0.272 -0.725,0.898 -0.725,0.898 0,0 0.045,1.792 0.042,1.992 -0.005,0.699 0.53,0.777 0.53,0.777 L 3.682,4.208 3.678,4.255 -1.176,5.227 c 0,0 -2.06,1.388 -2.009,-0.348 0.004,-0.146 0.016,-3.838 0.016,-3.838 0,0 -0.132,-1.821 1.3,-2.68 0.987,-0.593 5.338,-3.467 5.338,-3.467 l 0.327,3.395 C 2.484,-1.089 0.62,-0.219 0,0" />
      </g>
      <g
         transform="translate(1591.4648,3209.7524)"
         id="g658">
        <path
           inkscape:connector-curvature="0"
           id="path660"
           style="fill:#161c1c;fill-opacity:1;fill-rule:nonzero;stroke:none"
           d="m 0,0 3.102,1.013 24.513,2.462 0.692,17.96 -29.956,-1.318 z" />
      </g>
      <g
         transform="translate(1621.8135,3191.9136)"
         id="g662">
        <path
           inkscape:connector-curvature="0"
           id="path664"
           style="fill:#040505;fill-opacity:1;fill-rule:nonzero;stroke:none"
           d="m 0,0 c 0,0 -0.816,-1.118 -2.491,-2.49 -2.869,-2.353 -6.867,-5.196 -11.467,-3.822 -2.388,0.716 -13.436,27.09 -13.436,27.09 0,0 0.723,2.278 6.77,4.559 3.676,1.386 5.703,1.323 7.558,0.901 C -8.581,25.215 -3.359,22.699 -0.03,12.993 2.479,5.67 0,0 0,0" />
      </g>
      <g
         transform="translate(1616.3008,3193.5903)"
         id="g666">
        <path
           inkscape:connector-curvature="0"
           id="path668"
           style="fill:#394747;fill-opacity:1;fill-rule:nonzero;stroke:none"
           d="m 0,0 c -0.012,-4.673 -2.109,-7.593 -5.274,-8.184 -1.859,-0.345 -4.082,0.115 -6.469,1.492 -6.456,3.725 -11.693,12.792 -11.669,20.209 0.019,7.418 5.291,10.422 11.745,6.693 C -5.214,16.483 0.021,7.415 0,0" />
      </g>
      <g
         transform="translate(1603.9863,3191.0337)"
         id="g670">
        <path
           inkscape:connector-curvature="0"
           id="path672"
           style="fill:#9aafae;fill-opacity:1;fill-rule:nonzero;stroke:none"
           d="m 0,0 c -4.21,2.43 -7.623,8.342 -7.607,13.179 0.007,3.55 1.865,5.844 4.727,5.844 1.145,0 2.356,-0.367 3.607,-1.088 C 4.937,15.502 8.347,9.592 8.334,4.756 8.325,1.205 6.469,-1.088 3.604,-1.088 2.462,-1.088 1.25,-0.721 0,0" />
      </g>
      <g
         transform="translate(1610.0488,3191.2993)"
         id="g674">
        <path
           inkscape:connector-curvature="0"
           id="path676"
           style="fill:#859392;fill-opacity:1;fill-rule:nonzero;stroke:none"
           d="m 0,0 c -0.665,-0.543 -1.498,-0.84 -2.459,-0.84 -1.049,0 -2.174,0.345 -3.346,1.022 -4.066,2.346 -7.367,8.058 -7.352,12.729 0.008,2.174 0.755,3.828 2.018,4.681 l 0.064,0.023 C -11.075,17.615 -11.713,6.41 0,0" />
      </g>
      <g
         transform="translate(1601.9004,3205.4316)"
         id="g678">
        <path
           inkscape:connector-curvature="0"
           id="path680"
           style="fill:#374244;fill-opacity:1;fill-rule:nonzero;stroke:none"
           d="M 0,0 C 0.146,-0.247 0.081,-0.552 -0.146,-0.688 L -1.24,-1.344 c -0.225,-0.135 -0.526,-0.047 -0.672,0.197 l -1.993,2.998 c -0.145,0.248 0.003,0.724 0.229,0.859 0,0 0.998,0.745 1.803,1.03 0.249,0.089 0.529,0.05 0.673,-0.194 z" />
      </g>
      <g
         transform="translate(1605.4883,3203.9785)"
         id="g682">
        <path
           inkscape:connector-curvature="0"
           id="path684"
           style="fill:#374244;fill-opacity:1;fill-rule:nonzero;stroke:none"
           d="m 0,0 c -0.082,-0.203 -0.323,-0.311 -0.569,-0.208 l -1.023,0.564 c -0.245,0.103 -0.377,0.35 -0.292,0.552 l 0.916,2.804 c 0.082,0.205 0.381,0.446 0.63,0.343 L 0.916,3.054 C 1.233,2.853 1.432,2.452 1.119,1.995 Z" />
      </g>
      <g
         transform="translate(1607.7598,3200.3506)"
         id="g686">
        <path
           inkscape:connector-curvature="0"
           id="path688"
           style="fill:#374244;fill-opacity:1;fill-rule:nonzero;stroke:none"
           d="M 0,0 C -0.178,-0.087 -0.43,0.049 -0.557,0.304 L -1.113,1.259 C -1.241,1.517 -1.49,1.584 -1.074,1.896 L 0.835,3.458 C 1.009,3.546 1.216,3.732 1.605,3.375 L 2.567,1.757 C 2.743,1.272 2.489,1.028 2.315,0.94 Z" />
      </g>
      <g
         transform="translate(1597.9531,3200.3223)"
         id="g690">
        <path
           inkscape:connector-curvature="0"
           id="path692"
           style="fill:#374244;fill-opacity:1;fill-rule:nonzero;stroke:none"
           d="m 0,0 c -0.179,-0.022 -0.354,0.171 -0.385,0.436 l -0.319,1.478 c -0.032,0.263 0.143,0.452 0.321,0.476 L 2.033,2.334 C 2.215,2.355 2.384,2.159 2.418,1.896 L 2.545,0.806 C 2.578,0.543 2.458,0.311 2.28,0.291 Z" />
      </g>
      <g
         transform="translate(1608.0195,3195.6162)"
         id="g694">
        <path
           inkscape:connector-curvature="0"
           id="path696"
           style="fill:#374244;fill-opacity:1;fill-rule:nonzero;stroke:none"
           d="m 0,0 c -0.222,0.042 -0.365,0.29 -0.313,0.551 l 0.167,1.166 c 0.049,0.261 0.269,0.443 0.492,0.4 L 2.921,1.831 C 3.146,1.79 3.55,1.63 3.55,1.229 L 3.493,-1.233 C 3.439,-1.496 3.283,-1.646 3.062,-1.604 Z" />
      </g>
      <g
         transform="translate(1602.7686,3195.8657)"
         id="g698">
        <path
           inkscape:connector-curvature="0"
           id="path700"
           style="fill:#374244;fill-opacity:1;fill-rule:nonzero;stroke:none"
           d="M 0,0 C 0.097,0.141 0.231,0.354 0.033,0.521 L -1.018,1.755 C -1.217,1.923 -1.626,1.662 -1.817,1.477 L -2.975,0.593 C -3.082,0.452 -3.177,0.101 -2.972,-0.068 L -1.84,-1.49 c 0.202,-0.17 0.443,-0.33 0.695,-0.035 z" />
      </g>
      <g
         transform="translate(1604.7197,3194.3701)"
         id="g702">
        <path
           inkscape:connector-curvature="0"
           id="path704"
           style="fill:#374244;fill-opacity:1;fill-rule:nonzero;stroke:none"
           d="m 0,0 c -0.04,0.234 0.004,0.591 0.253,0.635 l 1.21,0.123 C 1.71,0.801 1.966,0.559 2.011,0.327 L 2.743,-3.085 C 2.797,-3.481 2.217,-3.61 1.966,-3.654 l -1.038,0.157 c -0.558,0.139 -0.651,0.292 -0.69,0.521 z" />
      </g>
      <g
         transform="translate(1603.8174,3195.0259)"
         id="g706">
        <path
           inkscape:connector-curvature="0"
           id="path708"
           style="fill:#aec1bf;fill-opacity:1;fill-rule:nonzero;stroke:none"
           d="m 0,0 c -2.202,1.271 -4.07,4.459 -4.062,6.991 0.005,1.806 1.02,2.877 2.46,2.877 0.584,0 1.206,-0.188 1.851,-0.559 C 2.451,8.037 4.237,4.942 4.231,2.413 4.227,0.606 3.291,-0.561 1.85,-0.561 1.265,-0.561 0.643,-0.373 0,0" />
      </g>
      <g
         transform="translate(1526.5693,3244.7114)"
         id="g710">
        <path
           inkscape:connector-curvature="0"
           id="path712"
           style="fill:#161c1c;fill-opacity:1;fill-rule:nonzero;stroke:none"
           d="M 0,0 2.288,1.734 21.499,5.201 1.509,19.78 -1.563,9.557 Z" />
      </g>
      <g
         transform="translate(1555.4609,3228.5918)"
         id="g714">
        <path
           inkscape:connector-curvature="0"
           id="path716"
           style="fill:#040505;fill-opacity:1;fill-rule:nonzero;stroke:none"
           d="m 0,0 c 0,0 -1.3,-2.129 -2.977,-3.502 -2.865,-2.351 -6.865,-5.194 -11.461,-3.82 -2.39,0.714 -13.438,27.089 -13.438,27.089 0,0 1.676,4.208 8.542,4.81 6.87,0.601 14.727,-5.367 14.727,-5.367 z" />
      </g>
      <g
         transform="translate(1549.4668,3229.2598)"
         id="g718">
        <path
           inkscape:connector-curvature="0"
           id="path720"
           style="fill:#394747;fill-opacity:1;fill-rule:nonzero;stroke:none"
           d="m 0,0 c -0.015,-4.674 -2.113,-7.596 -5.276,-8.186 -1.859,-0.344 -4.08,0.114 -6.468,1.491 -6.456,3.728 -11.693,12.795 -11.669,20.211 0.018,7.417 5.289,10.419 11.741,6.693 C -5.214,16.483 0.018,7.414 0,0" />
      </g>
      <g
         transform="translate(1537.1504,3226.7012)"
         id="g722">
        <path
           inkscape:connector-curvature="0"
           id="path724"
           style="fill:#9aafae;fill-opacity:1;fill-rule:nonzero;stroke:none"
           d="m 0,0 c -4.212,2.429 -7.624,8.344 -7.609,13.18 0.009,3.549 1.865,5.842 4.73,5.842 1.142,0 2.355,-0.367 3.606,-1.088 C 4.938,15.503 8.348,9.592 8.333,4.755 8.326,1.204 6.468,-1.087 3.604,-1.087 2.46,-1.087 1.25,-0.721 0,0" />
      </g>
      <g
         transform="translate(1543.2139,3226.9683)"
         id="g726">
        <path
           inkscape:connector-curvature="0"
           id="path728"
           style="fill:#859392;fill-opacity:1;fill-rule:nonzero;stroke:none"
           d="m 0,0 c -0.667,-0.544 -1.497,-0.842 -2.46,-0.842 -1.053,0 -2.176,0.345 -3.347,1.021 -4.066,2.347 -7.364,8.06 -7.352,12.733 0.005,2.171 0.759,3.825 2.02,4.679 l 0.06,0.022 C -11.079,17.613 -11.713,6.407 0,0" />
      </g>
      <g
         transform="translate(1535.0645,3241.1011)"
         id="g730">
        <path
           inkscape:connector-curvature="0"
           id="path732"
           style="fill:#374244;fill-opacity:1;fill-rule:nonzero;stroke:none"
           d="m 0,0 c 0.146,-0.246 0.082,-0.553 -0.146,-0.69 l -1.089,-0.656 c -0.229,-0.135 -0.533,-0.049 -0.676,0.196 l -1.993,2.999 c -0.148,0.246 0.003,0.725 0.228,0.859 0,0 1.001,0.745 1.803,1.03 0.249,0.09 0.529,0.05 0.674,-0.196 z" />
      </g>
      <g
         transform="translate(1538.6523,3239.646)"
         id="g734">
        <path
           inkscape:connector-curvature="0"
           id="path736"
           style="fill:#374244;fill-opacity:1;fill-rule:nonzero;stroke:none"
           d="m 0,0 c -0.084,-0.201 -0.324,-0.311 -0.57,-0.209 l -1.024,0.566 c -0.242,0.102 -0.375,0.349 -0.293,0.55 l 0.92,2.806 c 0.082,0.203 0.381,0.446 0.626,0.341 l 1.264,-1 c 0.31,-0.2 0.513,-0.602 0.198,-1.06 z" />
      </g>
      <g
         transform="translate(1540.9229,3236.0176)"
         id="g738">
        <path
           inkscape:connector-curvature="0"
           id="path740"
           style="fill:#374244;fill-opacity:1;fill-rule:nonzero;stroke:none"
           d="M 0,0 C -0.177,-0.088 -0.429,0.048 -0.555,0.305 L -1.112,1.258 C -1.243,1.516 -1.489,1.585 -1.07,1.896 L 0.835,3.457 C 1.011,3.546 1.214,3.734 1.604,3.375 L 2.568,1.757 C 2.743,1.273 2.49,1.031 2.316,0.941 Z" />
      </g>
      <g
         transform="translate(1531.1191,3235.9907)"
         id="g742">
        <path
           inkscape:connector-curvature="0"
           id="path744"
           style="fill:#374244;fill-opacity:1;fill-rule:nonzero;stroke:none"
           d="m 0,0 c -0.182,-0.023 -0.353,0.171 -0.386,0.434 l -0.318,1.479 c -0.035,0.263 0.139,0.451 0.318,0.474 L 2.031,2.333 C 2.212,2.354 2.386,2.158 2.418,1.894 L 2.543,0.805 C 2.576,0.544 2.461,0.313 2.276,0.289 Z" />
      </g>
      <g
         transform="translate(1541.1836,3231.2827)"
         id="g746">
        <path
           inkscape:connector-curvature="0"
           id="path748"
           style="fill:#374244;fill-opacity:1;fill-rule:nonzero;stroke:none"
           d="m 0,0 c -0.219,0.044 -0.365,0.288 -0.311,0.552 l 0.165,1.167 C -0.098,1.978 0.125,2.16 0.347,2.118 L 2.995,1.547 C 3.22,1.507 3.625,1.345 3.625,0.946 L 3.486,-1.413 C 3.436,-1.677 3.279,-1.827 3.055,-1.785 Z" />
      </g>
      <g
         transform="translate(1535.9326,3231.5332)"
         id="g750">
        <path
           inkscape:connector-curvature="0"
           id="path752"
           style="fill:#374244;fill-opacity:1;fill-rule:nonzero;stroke:none"
           d="M 0,0 C 0.096,0.141 0.235,0.353 0.034,0.521 L -1.018,1.754 C -1.215,1.922 -1.629,1.66 -1.814,1.475 L -2.979,0.592 c -0.098,-0.139 -0.195,-0.491 0.004,-0.66 l 1.138,-1.424 c 0.2,-0.167 0.44,-0.328 0.694,-0.032 z" />
      </g>
      <g
         transform="translate(1537.8828,3230.0376)"
         id="g754">
        <path
           inkscape:connector-curvature="0"
           id="path756"
           style="fill:#374244;fill-opacity:1;fill-rule:nonzero;stroke:none"
           d="M 0,0 C -0.039,0.234 0.004,0.59 0.254,0.635 L 1.463,0.757 C 1.709,0.801 1.972,0.559 2.013,0.328 L 2.745,-3.086 C 2.801,-3.483 2.217,-3.611 1.97,-3.653 l -1.042,0.157 c -0.557,0.138 -0.647,0.29 -0.687,0.519 z" />
      </g>
      <g
         transform="translate(1536.9814,3230.6938)"
         id="g758">
        <path
           inkscape:connector-curvature="0"
           id="path760"
           style="fill:#aec1bf;fill-opacity:1;fill-rule:nonzero;stroke:none"
           d="m 0,0 c -2.203,1.27 -4.07,4.459 -4.062,6.991 0.005,1.805 1.02,2.876 2.458,2.876 0.585,0 1.209,-0.187 1.854,-0.557 C 2.452,8.038 4.237,4.942 4.232,2.411 4.226,0.605 3.292,-0.562 1.849,-0.562 1.267,-0.562 0.644,-0.374 0,0" />
      </g>
      <g
         transform="translate(1621.1279,3212.9502)"
         id="g762">
        <path
           inkscape:connector-curvature="0"
           id="path764"
           style="fill:#2b3636;fill-opacity:1;fill-rule:nonzero;stroke:none"
           d="m 0,0 v -21.947 c 0,0 1.56,-0.624 3.848,2.183 2.287,2.808 4.575,19.557 4.575,19.557 z" />
      </g>
      <g
         transform="translate(1530.3154,3259.1343)"
         id="g766">
        <path
           inkscape:connector-curvature="0"
           id="path768"
           style="fill:#222224;fill-opacity:1;fill-rule:nonzero;stroke:none"
           d="m 0,0 c -2.912,1.247 -4.334,-1.421 -4.474,-3.64 l -0.209,-1.509 c -1.723,1.166 -4.88,1.456 -4.941,3.538 -0.122,4.719 0.034,0.777 0.034,9.396 0,3.468 19.603,-11.889 23.737,-9.344 2.168,1.334 9.988,21.861 10.272,22.025 1.975,1.144 34.226,21.086 36.326,22.287 1.46,0.832 4.499,0.421 5.93,-0.313 l 63.074,-29.956 c 0,0 6.131,-2.701 7.49,-7.352 2.948,-10.121 3.509,-11.554 4.139,-15.976 0.102,-0.728 0.251,-1.489 0.368,-2.434 0,0 0.763,-4.577 0.763,-11.964 0,-2.084 -0.158,-5.613 -0.416,-8.182 -0.28,-2.775 -2.048,-6.97 -3.02,-7.663 -0.812,-0.582 -45.94,-27.149 -47.051,-26.872 0,0 2.984,1.076 3.333,7.316 l 0.135,1.872 c 0,0 -7.93,1.091 -8.684,5.357 -0.415,2.357 -2.823,13.368 -3.521,13.748 0,0 -9.341,5.42 -14.841,6.519 -4.157,0.832 -4.496,-4.161 -4.574,-4.161 0,0 -1.111,-4.802 -1.72,-11.049 -0.088,-0.921 -1.543,-1.71 -3.691,-0.462 l -32.249,15.81 c -2.423,1.249 -3.588,5.595 -3.741,6.1 -0.855,2.81 -4.786,16.092 -8.391,19.143 0,0 -8.876,5.537 -14.078,7.766" />
      </g>
      <g
         transform="translate(1604.623,3231.1875)"
         id="g770">
        <path
           inkscape:connector-curvature="0"
           id="path772"
           style="fill:#2d3636;fill-opacity:1;fill-rule:nonzero;stroke:none"
           d="m 0,0 c 0,0 10.309,-6.685 16.814,-10.644 1.329,-0.81 1.871,-2.537 1.871,-4.629 0,-0.522 0.208,-4.109 0.208,-4.109 -0.039,-0.02 0.517,-0.334 1.226,-0.717 1.162,-0.634 2.735,-1.465 2.769,-1.461 0.327,0.025 -2.953,30.645 -2.953,30.645 0,0 -1.042,5.685 -4.087,7.454 -2.981,1.73 -57.493,31.657 -57.493,31.657 0,0 -6.241,3.053 -9.57,-0.971 -0.311,-0.373 -8.375,-9.56 -10.848,-12.47 -1.198,-1.404 -2.728,-0.671 -2.728,-0.671 0,0 -7.667,4.423 -10.246,5.618 -3.331,1.543 -8.895,0.366 -8.946,-3.744 -0.007,-0.686 -0.05,-8.011 0.051,-8.064 l 7.199,0.816 22.292,-11.269 0.936,-11.547 3.539,-6.656 35.286,-18.058 2.057,13.271 2.367,3.941 c 0,0 3.556,1.415 5.762,2.178 C -2.189,1.368 0,0 0,0" />
      </g>
      <g
         transform="translate(1578.4414,3248.1934)"
         id="g774">
        <path
           inkscape:connector-curvature="0"
           id="path776"
           style="fill:#546472;fill-opacity:1;fill-rule:nonzero;stroke:none"
           d="m 0,0 c -1.27,0.644 -2.028,2.011 -1.894,3.433 l 1.982,12.333 c 0.103,1.131 1.316,1.799 2.33,1.283 L 18.946,8.228 C 20.215,7.58 20.968,6.212 20.843,4.792 L 18.709,-7.442 c -0.1,-1.131 -1.315,-1.801 -2.33,-1.285 z" />
      </g>
      <g
         transform="translate(1578.667,3263.9463)"
         id="g778">
        <path
           inkscape:connector-curvature="0"
           id="path780"
           style="fill:#040505;fill-opacity:1;fill-rule:nonzero;stroke:none"
           d="m 0,0 -1.98,-12.332 c -0.124,-1.356 0.605,-2.68 1.822,-3.301 l 16.377,-8.724 c 0.209,-0.104 0.433,-0.159 0.666,-0.159 0.763,0 1.391,0.572 1.464,1.335 l 2.128,12.232 c 0.121,1.355 -0.607,2.68 -1.823,3.299 L 2.129,1.172 C 1.921,1.279 1.696,1.335 1.465,1.335 0.7,1.335 0.074,0.76 0,0 m 16.089,-24.599 -16.378,8.72 c -1.312,0.671 -2.106,2.104 -1.972,3.572 l 1.983,12.331 c 0.085,0.906 0.834,1.589 1.743,1.589 0.273,0 0.541,-0.065 0.792,-0.194 l 16.524,-8.821 c 1.317,-0.667 2.111,-2.103 1.972,-3.572 l -2.127,-12.234 c -0.086,-0.906 -0.835,-1.588 -1.741,-1.588 -0.277,0 -0.54,0.064 -0.796,0.197" />
      </g>
      <g
         transform="translate(1549.9805,3263.4795)"
         id="g782">
        <path
           inkscape:connector-curvature="0"
           id="path784"
           style="fill:#546472;fill-opacity:1;fill-rule:nonzero;stroke:none"
           d="m 0,0 c -1.269,0.644 -0.839,2.04 -0.164,2.692 l 7.438,9.225 c 0.872,1.11 1.944,1.608 2.955,1.092 L 23.414,5.978 C 24.686,5.33 25.439,3.964 25.307,2.542 L 23.179,-9.692 c -0.104,-1.13 -1.316,-1.801 -2.331,-1.287 z" />
      </g>
      <g
         transform="translate(1557.3955,3275.3833)"
         id="g786">
        <path
           inkscape:connector-curvature="0"
           id="path788"
           style="fill:#040505;fill-opacity:1;fill-rule:nonzero;stroke:none"
           d="m 0,0 -7.44,-9.223 c -0.551,-0.576 -1.124,-1.943 0.095,-2.561 l 20.843,-10.972 c 0.212,-0.105 0.435,-0.161 0.664,-0.161 0.765,0 1.397,0.572 1.462,1.336 l 2.129,12.232 c 0.126,1.355 -0.607,2.68 -1.819,3.299 L 3.052,0.811 C 2.84,0.918 2.139,1.158 1.903,1.158 1.144,1.158 0.623,0.638 0,0 m 13.367,-23 -20.842,10.97 c -1.317,0.67 -1.154,2.036 -0.362,2.907 l 7.56,9.149 C 1.285,2.268 2.63,1.355 2.878,1.228 l 13.183,-7.03 c 1.314,-0.667 2.106,-2.103 1.969,-3.572 l -2.129,-12.233 c -0.085,-0.907 -0.831,-1.59 -1.739,-1.59 -0.274,0 -0.54,0.065 -0.795,0.197" />
      </g>
      <g
         transform="translate(1601.3096,3236.1968)"
         id="g790">
        <path
           inkscape:connector-curvature="0"
           id="path792"
           style="fill:#3c4852;fill-opacity:1;fill-rule:nonzero;stroke:none"
           d="m 0,0 c -1.261,0.646 -2.011,2.012 -1.88,3.433 l 1.969,12.331 c 0.106,1.132 1.312,1.803 2.316,1.285 L 18.262,9.263 C 19.527,8.614 20.274,7.249 20.143,5.826 L 18.601,-7.443 c -0.106,-1.13 -1.312,-1.802 -2.319,-1.285 z" />
      </g>
      <g
         transform="translate(1601.5352,3251.9492)"
         id="g794">
        <path
           inkscape:connector-curvature="0"
           id="path796"
           style="fill:#040505;fill-opacity:1;fill-rule:nonzero;stroke:none"
           d="m 0,0 -1.965,-12.331 c -0.127,-1.356 0.6,-2.682 1.81,-3.302 l 16.274,-8.722 c 0.212,-0.107 0.433,-0.162 0.661,-0.162 0.763,0 1.387,0.573 1.456,1.336 l 1.543,13.267 c 0.127,1.356 -0.601,2.682 -1.805,3.298 L 2.118,1.172 C 1.907,1.281 1.688,1.334 1.459,1.334 0.698,1.334 0.075,0.761 0,0 m 15.991,-24.598 -16.278,8.72 c -1.306,0.67 -2.092,2.103 -1.953,3.571 l 1.967,12.332 c 0.083,0.905 0.828,1.587 1.732,1.587 0.273,0 0.535,-0.063 0.785,-0.191 L 18.1,-6.368 c 1.304,-0.666 2.089,-2.103 1.955,-3.572 l -1.541,-13.267 c -0.085,-0.906 -0.827,-1.587 -1.734,-1.587 -0.273,0 -0.536,0.063 -0.789,0.196" />
      </g>
      <g
         transform="translate(1554.5186,3239.7173)"
         id="g798">
        <path
           inkscape:connector-curvature="0"
           id="path800"
           style="fill:#424f4f;fill-opacity:1;fill-rule:nonzero;stroke:none"
           d="M 0,0 37.032,-17.197 Z" />
      </g>
      <g
         transform="translate(1591.2852,3221.9526)"
         id="g802">
        <path
           inkscape:connector-curvature="0"
           id="path804"
           style="fill:#424f4f;fill-opacity:1;fill-rule:nonzero;stroke:none"
           d="M 0,0 -37.031,17.198 -37.099,18.615 0.525,1.135 Z" />
      </g>
      <g
         transform="translate(1574.6045,3220.5293)"
         id="g806">
        <path
           inkscape:connector-curvature="0"
           id="path808"
           style="fill:#222224;fill-opacity:1;fill-rule:nonzero;stroke:none"
           d="m 0,0 h -0.416 v 23.855 c 0,3.733 1.437,12.407 2.386,18.147 0.215,1.292 0.398,2.409 0.529,3.245 0.699,4.462 1.693,5.359 1.738,5.397 L 4.509,50.328 C 4.497,50.322 3.572,49.431 2.91,45.183 2.778,44.344 2.595,43.227 2.383,41.935 1.489,36.557 0,27.554 0,23.855 Z" />
      </g>
      <g
         transform="translate(1590.1494,3213.1021)"
         id="g810">
        <path
           inkscape:connector-curvature="0"
           id="path812"
           style="fill:#424f4f;fill-opacity:1;fill-rule:nonzero;stroke:none"
           d="m 0,0 -32.446,16.506 c -1.558,0.921 -2.395,3.272 -2.842,6.781 -0.484,3.849 -1.176,10.646 -1.176,10.646 0,0 -0.121,1.986 -1.037,4.348 -0.903,2.336 -2.587,5.038 -5.792,6.505 -6.325,2.888 -5.441,2.616 -20.491,11.597 0,0 -1.103,0.391 -2.134,0 -0.825,-0.312 -1.853,-0.836 -3.122,-1.457 -1.57,-0.765 -1.665,-1.929 -1.665,-3.277 0,-1.3 0.055,-6.448 0.055,-6.448 0,0 -0.161,-1.039 0.943,-1.757 0.872,-0.566 2.97,-1.781 4.269,-2.545 0.819,-0.483 1.106,0.558 1.106,0.558 l 0.024,1.56 c 0,0 0.366,3.172 4.005,1.404 0.799,-0.389 11.185,-6.085 13.469,-7.334 0,0 3.746,-2.286 4.579,-7.074 0.419,-2.411 0.865,-4.796 1.039,-6.137 0.634,-4.893 3.928,-6.472 7.942,-9.388 L 0.349,-1.67 Z" />
      </g>
      <g
         id="g814">
        <g
           id="g816" />
        <g
           id="g828">
          <g
             style="opacity:0.71000701"
             id="g826"
             clip-path="url(#clipPath820-4)">
            <g
               id="g824"
               transform="translate(1557.54,3229.7285)">
              <path
                 inkscape:connector-curvature="0"
                 id="path822"
                 style="fill:#222224;fill-opacity:1;fill-rule:nonzero;stroke:none"
                 d="M 0,0 V 0.003 Z" />
            </g>
          </g>
        </g>
      </g>
      <g
         transform="translate(1557.5381,3229.7324)"
         id="g830">
        <path
           inkscape:connector-curvature="0"
           id="path832"
           style="fill:#222224;fill-opacity:1;fill-rule:nonzero;stroke:none"
           d="m 0,0 c -1.445,0.985 -2.247,3.278 -2.677,6.656 -0.484,3.85 -1.176,10.647 -1.176,10.647 0,0 -0.132,1.996 -1.037,4.348 -0.831,2.165 -2.316,4.629 -4.962,6.14 -6.039,3.446 -9.571,5.669 -21.321,11.961 0,0 -1.102,0.392 -2.134,0 -0.825,-0.311 -1.853,-0.835 -3.122,-1.456 -0.574,-0.282 -0.95,-0.617 -1.199,-0.996 0.811,0.46 1.994,0.603 3.438,-0.148 3.175,-1.654 23.324,-13.498 23.324,-13.498 0,0 4.215,-2.235 4.632,-7.826 0.161,-2.187 0.818,-8.389 1.307,-10.767 0.618,-3.017 2.561,-3.853 4.929,-5.062 0,0 -0.002,0 -0.002,0.001" />
      </g>
      <g
         transform="translate(1572.6338,3247.0234)"
         id="g834">
        <path
           inkscape:connector-curvature="0"
           id="path836"
           style="fill:#acb6c1;fill-opacity:1;fill-rule:nonzero;stroke:none"
           d="m 0,0 c -0.008,-0.533 -0.689,-0.177 -1.054,0.044 l -3.084,1.912 c -0.576,0.403 -0.588,0.665 -0.539,0.946 0.091,0.578 0.651,0.234 1.013,0.012 l 2.71,-1.676 c 0.366,-0.224 0.927,-0.654 0.949,-1.031 z" />
      </g>
      <g
         transform="translate(1594.958,3235.582)"
         id="g838">
        <path
           inkscape:connector-curvature="0"
           id="path840"
           style="fill:#acb6c1;fill-opacity:1;fill-rule:nonzero;stroke:none"
           d="m 0,0 c 0.013,-0.466 -0.688,-0.178 -1.051,0.045 l -3.085,1.91 c -0.575,0.405 -0.584,0.667 -0.542,0.946 0.097,0.579 0.657,0.235 1.015,0.013 l 2.712,-1.677 c 0.365,-0.223 0.927,-0.653 0.948,-1.029 z" />
      </g>
      <g
         transform="translate(1541.2344,3266.1646)"
         id="g842">
        <path
           inkscape:connector-curvature="0"
           id="path844"
           style="fill:#424f4f;fill-opacity:1;fill-rule:nonzero;stroke:none"
           d="m 0,0 -0.047,-2.231 c 0,0 -0.09,-1.002 0.501,-1.547 0.428,-0.397 4.853,-3.692 4.853,-3.692 0,0 0.432,-0.344 0.743,-0.366 0.275,-0.021 0.643,0.086 0.791,0.43 0.038,0.083 -0.649,2.761 -0.649,2.761 L 2.45,-2.534 c 0,0 -1.074,0.395 -1.038,1.581 0.004,0.189 0,2 0,2 z" />
      </g>
      <g
         id="g846">
        <g
           id="g848" />
        <g
           id="g860">
          <g
             style="opacity:0.16999799"
             id="g858"
             clip-path="url(#clipPath852-6)">
            <g
               id="g856"
               transform="translate(1631.0068,3250.606)">
              <path
                 inkscape:connector-curvature="0"
                 id="path854"
                 style="fill:#ffffff;fill-opacity:1;fill-rule:nonzero;stroke:none"
                 d="m 0,0 c 1.835,1.007 21.784,13.058 28.92,16.955 2.219,1.665 -1.146,3.016 -1.146,3.016 l -61.267,28.918 c -1.433,0.733 -3.862,0.702 -5.307,0 -3.639,-1.768 -21.181,-13.331 -23.149,-14.535 -2.086,-1.326 -2.528,-2.25 -2.407,-3.372 0.163,-1.524 2.573,-2.962 4.654,-3.933 2.08,-0.97 52.211,-27.986 52.211,-27.986 0,0 2.392,-1.872 7.491,0.937" />
            </g>
          </g>
        </g>
      </g>
      <g
         transform="translate(1520.4678,3261.0063)"
         id="g862">
        <path
           inkscape:connector-curvature="0"
           id="path864"
           style="fill:#e07722;fill-opacity:1;fill-rule:nonzero;stroke:none"
           d="M 0,0 C 0,0 0.485,2.741 0.691,3.538 0.812,3.995 0.765,4.161 0.451,4.473 0.236,4.69 -0.138,4.889 -0.279,4.925 -0.696,5.028 -0.894,4.819 -0.992,4.628 -1.016,4.344 -1.023,4.051 -1.023,3.745 c 0,-0.74 0.018,-2.726 0.031,-4.303 0.018,-0.009 0.037,-0.024 0.055,-0.029 C -0.279,-0.865 0,0 0,0" />
      </g>
      <g
         transform="translate(1541.8584,3266.1646)"
         id="g866">
        <path
           inkscape:connector-curvature="0"
           id="path868"
           style="fill:#222224;fill-opacity:1;fill-rule:nonzero;stroke:none"
           d="m 0,0 -0.045,-2.231 c 0,0 -0.092,-1.002 0.501,-1.547 0.428,-0.397 4.69,-3.552 4.69,-3.552 0,0 1.092,-0.683 1.092,0.047 v 2.638 L 2.45,-2.534 c 0,0 -1.072,0.395 -1.041,1.581 0.008,0.189 0,2 0,2 z" />
      </g>
      <g
         transform="translate(1544.1172,3271.2124)"
         id="g870">
        <path
           inkscape:connector-curvature="0"
           id="path872"
           style="fill:#748696;fill-opacity:1;fill-rule:nonzero;stroke:none"
           d="m 0,0 -7.338,-4.145 c -0.281,-0.172 -0.435,-0.491 -0.398,-0.819 l 0.398,-3.469 c 0.023,-0.199 0.202,-0.32 0.387,-0.297 l 0.002,-0.008 c 0,0 0.548,0.008 1.086,0.215 0.091,0.033 0.185,0.238 0.281,0.535 l 5.471,3.127 c 0.284,0.17 0.442,0.487 0.407,0.815 l 0.48,3.008 C 0.751,-0.79 0.547,0.185 0,0" />
      </g>
      <g
         transform="translate(1544.8916,3270.1812)"
         id="g874">
        <path
           inkscape:connector-curvature="0"
           id="path876"
           style="fill:#acb6c1;fill-opacity:1;fill-rule:nonzero;stroke:none"
           d="m 0,0 c -0.023,0.215 -0.262,0.334 -0.447,0.221 l -6.58,-3.764 c -0.24,-0.145 -0.376,-0.421 -0.347,-0.703 l 0.347,-2.995 c 0.022,-0.218 0.263,-0.337 0.45,-0.223 l 6.554,3.736 c 0.244,0.147 0.378,0.422 0.348,0.705 z" />
      </g>
      <g
         transform="translate(1629.9414,3225.1938)"
         id="g878">
        <path
           inkscape:connector-curvature="0"
           id="path880"
           style="fill:#040505;fill-opacity:1;fill-rule:nonzero;stroke:none"
           d="m 0,0 -1.771,13.731 c -0.002,0.034 -0.749,4.454 2.822,6.578 3.428,2.044 31.653,18.147 31.936,18.31 0.014,0.009 0.326,0.176 0.745,0.176 0.536,0 1.278,-0.267 1.776,-1.543 2.167,-5.578 3.741,-15.449 3.759,-15.548 L 39.149,21.46 0.351,-0.175 Z" />
      </g>
      <g
         transform="translate(1630.1729,3225.2246)"
         id="g882">
        <path
           inkscape:connector-curvature="0"
           id="path884"
           style="fill:#3c4852;fill-opacity:1;fill-rule:nonzero;stroke:none"
           d="m 0,0 -1.767,13.731 c 0,0 -0.766,4.279 2.705,6.346 3.468,2.064 31.934,18.307 31.934,18.307 0,0 1.396,0.776 2.184,-1.247 2.183,-5.618 3.744,-15.5 3.744,-15.5 z" />
      </g>
      <g
         transform="translate(1630.1729,3225.2246)"
         id="g886">
        <path
           inkscape:connector-curvature="0"
           id="path888"
           style="fill:#b7291a;fill-opacity:1;fill-rule:nonzero;stroke:none"
           d="m 0,0 -3.743,-1.821 -2.238,1.093 c 0,0 -0.232,-0.369 -0.193,-1.013 0.102,-1.626 0.355,-4.618 0.419,-5.956 0.083,-1.652 0.324,-6.439 0.324,-6.439 l 2.769,-1.461 3.741,2.074 c 0,0 -0.189,4.29 -0.245,5.893 C 0.782,-6.122 0.666,-2.689 0.521,-1.042 0.471,-0.466 0,0 0,0" />
      </g>
      <g
         id="g890">
        <g
           id="g892" />
        <g
           id="g904">
          <g
             style="opacity:0.32000703"
             id="g902"
             clip-path="url(#clipPath896-6)">
            <g
               id="g900"
               transform="translate(1631.0068,3217.5947)">
              <path
                 inkscape:connector-curvature="0"
                 id="path898"
                 style="fill:#040505;fill-opacity:1;fill-rule:nonzero;stroke:none"
                 d="M 0,0 C -0.052,1.508 -0.196,5.848 -0.338,6.733 -0.429,7.301 -0.834,7.63 -0.834,7.63 L -4.577,5.823 c 0.064,-0.065 0.289,-0.247 0.351,-0.651 0.282,-1.745 0.326,-4.36 0.39,-5.837 0.077,-1.781 0.313,-6.217 0.34,-7.302 l 3.741,2.074 c 0,0 -0.189,4.29 -0.245,5.893" />
            </g>
          </g>
        </g>
      </g>
      <g
         transform="translate(1668.9727,3246.8618)"
         id="g906">
        <path
           inkscape:connector-curvature="0"
           id="path908"
           style="fill:#b7291a;fill-opacity:1;fill-rule:nonzero;stroke:none"
           d="m 0,0 2.706,1.456 c 0,0 0.32,-0.284 0.468,-0.806 0.247,-0.886 1.06,-7.796 0.972,-11.521 -0.017,-0.712 -0.314,-1.04 -0.314,-1.04 l -2.617,-1.457 c 0,0 -0.09,3.805 -0.434,7.263 C 0.559,-3.876 0.195,-0.928 0,0" />
      </g>
      <g
         id="g910">
        <g
           id="g912" />
        <g
           id="g924">
          <g
             style="opacity:0.32000703"
             id="g922"
             clip-path="url(#clipPath916-1)">
            <g
               id="g920"
               transform="translate(1668.9727,3246.8618)">
              <path
                 inkscape:connector-curvature="0"
                 id="path918"
                 style="fill:#040505;fill-opacity:1;fill-rule:nonzero;stroke:none"
                 d="m 0,0 2.706,1.456 c 0,0 0.32,-0.284 0.468,-0.806 0.247,-0.886 1.06,-7.796 0.972,-11.521 -0.017,-0.712 -0.314,-1.04 -0.314,-1.04 l -2.617,-1.457 c 0,0 -0.09,3.805 -0.434,7.263 C 0.559,-3.876 0.195,-0.928 0,0" />
            </g>
          </g>
        </g>
      </g>
      <g
         id="g926">
        <g
           id="g928" />
        <g
           id="g940">
          <g
             style="opacity:0.130005"
             id="g938"
             clip-path="url(#clipPath932-9)">
            <g
               id="g936"
               transform="translate(1629.2744,3209.2744)">
              <path
                 inkscape:connector-curvature="0"
                 id="path934"
                 style="fill:#ffffff;fill-opacity:1;fill-rule:nonzero;stroke:none"
                 d="m 0,0 c 0,0 -4.818,-2.349 -4.767,-2.305 0,0 -0.299,-0.127 -0.642,-0.14 v -8.305 c 0,0 -0.075,-2.219 0.899,-3.051 0.047,-0.041 0.1,-0.063 0.151,-0.095 1.149,0.395 2.36,0.952 2.896,1.207 0,0 0.003,0.002 0.005,0.002 0.086,0.041 0.155,0.076 0.203,0.099 0.003,0 0.005,10e-4 0.007,10e-4 0.042,0.022 0.069,0.035 0.069,0.035 0.901,0.416 1.184,1.386 1.179,2.359 C -0.011,-8.131 0,0 0,0" />
            </g>
          </g>
        </g>
      </g>
      <g
         transform="translate(1670.2217,3232.4634)"
         id="g942">
        <path
           inkscape:connector-curvature="0"
           id="path944"
           style="fill:#374242;fill-opacity:1;fill-rule:nonzero;stroke:none"
           d="M 0,0 V -4.744 L 3.191,-3 v 3.483 c 0,0 -0.128,1.189 -0.588,0.953 C 1.655,0.954 0,0 0,0" />
      </g>
      <g
         transform="translate(1597.8604,3224.7388)"
         id="g946">
        <path
           inkscape:connector-curvature="0"
           id="path948"
           style="fill:#222224;fill-opacity:1;fill-rule:nonzero;stroke:none"
           d="m 0,0 h -0.417 v 8.461 c -0.113,3.319 1.428,11.693 2.275,17.034 0.139,0.873 0.264,1.647 0.361,2.277 0.696,4.449 1.943,5.874 1.994,5.931 L 4.522,33.426 C 4.511,33.413 3.302,32.009 2.632,27.709 2.535,27.078 2.409,26.303 2.271,25.426 1.424,20.099 -0.052,11.84 0,8.461 Z" />
      </g>
      <g
         transform="translate(1628.0957,3196.7227)"
         id="g950">
        <path
           inkscape:connector-curvature="0"
           id="path952"
           style="fill:#374242;fill-opacity:1;fill-rule:nonzero;stroke:none"
           d="m 0,0 c 0.9,0.416 1.218,1.386 1.179,2.358 -0.139,3.607 0,10.194 0,10.194 0,0 -4.819,-2.349 -4.767,-2.305 0,0 -0.65,-0.287 -1.158,-0.051 -0.705,0.332 -2.043,1.013 -2.049,1.017 -0.066,0.046 -0.068,4.092 -0.068,4.092 0,0 -0.105,4.576 -3.118,6.346 -5.62,3.294 -16.648,10.402 -16.648,10.402 0,0 -3.205,1.664 -5.92,1.189 -1.625,-0.286 -3.075,-1.344 -3.543,-3.997 -0.758,-4.281 -1.781,-11.714 -1.781,-11.714 0,0 -0.665,-2.31 1.249,-3.33 0.429,-0.226 1.923,-0.897 1.976,-0.897 0.003,0 -1.248,1.212 -0.934,2.979 0.561,3.179 0.788,5.49 1.445,8.433 0,0 0.367,3.138 4.158,1.296 0.828,-0.405 12.41,-7.482 14.794,-8.782 0,0 2.626,-1.495 3.327,-5.149 0.487,-2.533 0.832,-3.711 1.109,-5.167 0.369,-1.932 1.11,-4.749 2.013,-6.102 1.25,-1.874 3.81,-2.684 4.988,-2.336 C -2.079,-1.035 0,0 0,0" />
      </g>
      <g
         transform="translate(1615.6123,3210.7393)"
         id="g954">
        <path
           inkscape:connector-curvature="0"
           id="path956"
           style="fill:#222224;fill-opacity:1;fill-rule:nonzero;stroke:none"
           d="M 0,0 6.448,-3.171 6.268,-2.73 C 6.263,-2.698 5.663,-2.328 5.663,-2.314 L -0.363,0.729 C -0.267,0.542 -0.088,0.206 0,0" />
      </g>
      <g
         transform="translate(1637.4541,3210.1768)"
         id="g958">
        <path
           inkscape:connector-curvature="0"
           id="path960"
           style="fill:#040505;fill-opacity:1;fill-rule:nonzero;stroke:none"
           d="m 0,0 c 0,0 2.438,1.266 3.824,-1.232 0.623,-1.118 1.068,-1.795 1.068,-1.795 0,0 0.234,-0.622 1.214,-0.095 1.148,0.618 14.906,8.599 14.906,8.599 0,0 1.525,0.694 1.943,2.496 0.257,1.107 0.416,2.011 0.764,4.092 0.265,1.58 1.387,2.288 1.387,2.288 l 10.058,5.617 c 1.108,0.21 1.607,-0.762 1.607,-1.282 0,-1.457 -0.16,-2.884 -0.411,-4.837 -0.088,-0.65 -0.999,-1.761 -2.175,-2.315 0,0 -4.876,-2.803 -5.483,-3.121 C 27.388,7.722 26.825,5.52 26.424,4.785 26.04,4.076 25.383,3.882 24.83,3.605 23.083,2.729 4.025,-8.461 4.025,-8.461 c 0,0 -1.667,-1.319 -3.259,0.137 -0.311,0.282 -1.019,0.722 -1.942,0.21 -1.251,-0.695 -5.106,-2.9 -6.105,-3.397 -0.555,-0.278 -2.599,-1.294 -3.352,-0.799 -0.489,0.319 -1.619,1.134 -1.675,1.839 -0.072,0.866 -0.072,1.652 -0.096,2.839 -0.006,0.263 -0.147,0.801 0.756,1.357 C -11.589,-6.241 0,0 0,0" />
      </g>
      <g
         transform="translate(1638.1826,3209.0146)"
         id="g962">
        <path
           inkscape:connector-curvature="0"
           id="path964"
           style="fill:#2f3838;fill-opacity:1;fill-rule:nonzero;stroke:none"
           d="m 0,0 c 0,0 2.083,1.249 3.471,-1.249 0.619,-1.117 0.848,-1.432 1.265,-1.524 0.777,-0.174 1.005,0.121 2.183,0.676 1.18,0.555 14.132,8.182 14.132,8.182 0,0 1.489,0.086 1.905,1.889 0.258,1.107 0.429,2.009 0.764,4.091 0.277,1.718 1.389,2.29 1.389,2.29 l 10.048,5.617 c 1.114,0.208 0.906,-1.11 0.835,-1.941 -0.119,-1.453 -0.122,-1.808 -0.38,-3.763 -0.088,-0.65 -0.287,-1.507 -1.469,-2.063 0,0 -4.798,-2.864 -5.404,-3.182 C 27.42,8.328 27.204,7.265 26.812,6.249 26.464,5.337 26.113,4.995 25.591,4.663 24.315,3.857 4.059,-7.854 4.059,-7.854 c 0,0 -1.923,-1.187 -3.259,0.139 -0.294,0.292 -1.02,0.721 -1.94,0.21 -1.252,-0.695 -5.108,-2.9 -6.102,-3.4 -0.556,-0.276 -2.419,-1.114 -3.885,-0.416 -0.365,0.174 -1.088,0.754 -1.145,1.457 -0.068,0.866 -0.105,1.046 -0.133,2.233 -0.003,0.263 -0.146,0.799 0.759,1.356 C -11.589,-6.239 0,0 0,0" />
      </g>
      <g
         transform="translate(1658.1855,3241.1846)"
         id="g966">
        <path
           inkscape:connector-curvature="0"
           id="path968"
           style="fill:#040505;fill-opacity:1;fill-rule:nonzero;stroke:none"
           d="m 0,0 c -1.994,1.159 -4.75,0.995 -7.796,-0.764 -6.043,-3.489 -10.929,-11.951 -10.908,-18.903 0.009,-3.45 1.227,-5.879 3.193,-7.021 l 5.802,-3.542 c -1.967,1.14 -3.186,3.568 -3.195,7.02 -0.018,6.951 4.867,15.413 10.91,18.902 3.043,1.758 5.805,1.921 7.797,0.764 z" />
      </g>
      <g
         transform="translate(1656.1914,3236.8765)"
         id="g970">
        <path
           inkscape:connector-curvature="0"
           id="path972"
           style="fill:#394545;fill-opacity:1;fill-rule:nonzero;stroke:none"
           d="m 0,0 c 6.053,3.495 10.969,0.69 10.989,-6.261 0.019,-6.947 -4.864,-15.408 -10.917,-18.9 -6.044,-3.49 -10.959,-0.687 -10.982,6.259 C -10.928,-11.951 -6.043,-3.489 0,0" />
      </g>
      <g
         transform="translate(1650.2031,3219.9976)"
         id="g974">
        <path
           inkscape:connector-curvature="0"
           id="path976"
           style="fill:#040505;fill-opacity:1;fill-rule:nonzero;stroke:none"
           d="m 0,0 c -0.012,4.112 2.878,9.117 6.452,11.18 2.173,1.258 4.102,1.129 5.277,-0.083 -1.093,1.715 -3.248,2.071 -5.724,0.642 C 2.434,9.675 -0.459,4.671 -0.446,0.558 -0.443,-1.05 0.014,-2.277 0.771,-3.058 0.282,-2.292 0.006,-1.266 0,0" />
      </g>
    </g>
  </g>
</svg>
