<?xml version="1.0" encoding="UTF-8" standalone="no"?>
<!-- Created with Inkscape (http://www.inkscape.org/) -->

<svg
   xmlns:dc="http://purl.org/dc/elements/1.1/"
   xmlns:cc="http://creativecommons.org/ns#"
   xmlns:rdf="http://www.w3.org/1999/02/22-rdf-syntax-ns#"
   xmlns:svg="http://www.w3.org/2000/svg"
   xmlns="http://www.w3.org/2000/svg"
   xmlns:sodipodi="http://sodipodi.sourceforge.net/DTD/sodipodi-0.dtd"
   xmlns:inkscape="http://www.inkscape.org/namespaces/inkscape"
   width="55.742416mm"
   height="36.282619mm"
   viewBox="0 0 55.742417 36.28262"
   version="1.1"
   id="svg300755"
   inkscape:version="0.92.3 (2405546, 2018-03-11)"
   sodipodi:docname="5.svg">
  <defs
     id="defs300749">
    <clipPath
       clipPathUnits="userSpaceOnUse"
       id="clipPath3256">
      <path
         d="M 1871.12,3284.99 H 2041.3 V 3181.1 h -170.18 z"
         id="path3254"
         inkscape:connector-curvature="0" />
    </clipPath>
    <clipPath
       clipPathUnits="userSpaceOnUse"
       id="clipPath3364">
      <path
         d="m 1903.91,3253.78 h 46.12 v -36.96 h -46.12 z"
         id="path3362"
         inkscape:connector-curvature="0" />
    </clipPath>
    <linearGradient
       x1="0"
       y1="0"
       x2="1"
       y2="0"
       gradientUnits="userSpaceOnUse"
       gradientTransform="matrix(46.115234,0,0,-46.115234,1903.9141,3235.2964)"
       spreadMethod="pad"
       id="linearGradient3374">
      <stop
         style="stop-opacity:1;stop-color:#e9e9ea"
         offset="0"
         id="stop3370" />
      <stop
         style="stop-opacity:1;stop-color:#000000"
         offset="1"
         id="stop3372" />
    </linearGradient>
    <clipPath
       clipPathUnits="userSpaceOnUse"
       id="clipPath3400">
      <path
         d="M 1876.66,3270.04 H 1907 v -34.85 h -30.34 z"
         id="path3398"
         inkscape:connector-curvature="0" />
    </clipPath>
    <clipPath
       clipPathUnits="userSpaceOnUse"
       id="clipPath3456">
      <path
         d="m 1978.52,3227.8 h 19.07 v -5.47 h -19.07 z"
         id="path3454"
         inkscape:connector-curvature="0" />
    </clipPath>
    <clipPath
       clipPathUnits="userSpaceOnUse"
       id="clipPath3472">
      <path
         d="m 2019.5,3255.73 h 18.56 v -5.92 h -18.56 z"
         id="path3470"
         inkscape:connector-curvature="0" />
    </clipPath>
    <clipPath
       clipPathUnits="userSpaceOnUse"
       id="clipPath3548">
      <path
         d="m 1965.85,3279.43 h 36.68 v -40.81 h -36.68 z"
         id="path3546"
         inkscape:connector-curvature="0" />
    </clipPath>
    <clipPath
       clipPathUnits="userSpaceOnUse"
       id="clipPath3572">
      <path
         d="m 1934.03,3265.36 h 35.96 v -20.11 h -35.96 z"
         id="path3570"
         inkscape:connector-curvature="0" />
    </clipPath>
    <clipPath
       clipPathUnits="userSpaceOnUse"
       id="clipPath3588">
      <path
         d="m 1968.3,3281.89 h 18.96 v -15.71 h -18.96 z"
         id="path3586"
         inkscape:connector-curvature="0" />
    </clipPath>
    <clipPath
       clipPathUnits="userSpaceOnUse"
       id="clipPath3616">
      <path
         d="m 1883.1,3257.87 h 13.66 v -17.73 h -13.66 z"
         id="path3614"
         inkscape:connector-curvature="0" />
    </clipPath>
    <clipPath
       clipPathUnits="userSpaceOnUse"
       id="clipPath3648">
      <path
         d="m 1962.79,3215.09 h 13.66 v -17.73 h -13.66 z"
         id="path3646"
         inkscape:connector-curvature="0" />
    </clipPath>
    <clipPath
       clipPathUnits="userSpaceOnUse"
       id="clipPath4878">
      <path
         d="m 2061.6,3267.68 h 152.56 V 3181.1 H 2061.6 Z"
         id="path4876"
         inkscape:connector-curvature="0" />
    </clipPath>
    <clipPath
       clipPathUnits="userSpaceOnUse"
       id="clipPath4914">
      <path
         d="m 2082.5,3242.21 h 9.15 v -12.67 h -9.15 z"
         id="path4912"
         inkscape:connector-curvature="0" />
    </clipPath>
    <clipPath
       clipPathUnits="userSpaceOnUse"
       id="clipPath4966">
      <path
         d="m 2145.07,3236.4 h 66.94 v -37.97 h -66.94 z"
         id="path4964"
         inkscape:connector-curvature="0" />
    </clipPath>
    <clipPath
       clipPathUnits="userSpaceOnUse"
       id="clipPath4982">
      <path
         d="m 2162.29,3210.49 h 20.74 v -9.74 h -20.74 z"
         id="path4980"
         inkscape:connector-curvature="0" />
    </clipPath>
    <clipPath
       clipPathUnits="userSpaceOnUse"
       id="clipPath5030">
      <path
         d="m 2147.61,3204.98 h 9.51 v -12.33 h -9.51 z"
         id="path5028"
         inkscape:connector-curvature="0" />
    </clipPath>
    <clipPath
       clipPathUnits="userSpaceOnUse"
       id="clipPath5050">
      <path
         d="m 2206.61,3230.91 h 4.66 v -14.56 h -4.66 z"
         id="path5048"
         inkscape:connector-curvature="0" />
    </clipPath>
    <clipPath
       clipPathUnits="userSpaceOnUse"
       id="clipPath5090">
      <path
         d="m 2174.5,3206.23 h 3.34 v -3.87 h -3.34 z"
         id="path5088"
         inkscape:connector-curvature="0" />
    </clipPath>
    <clipPath
       clipPathUnits="userSpaceOnUse"
       id="clipPath5110">
      <path
         d="m 2095.48,3284.67 h 66.22 v -31.51 h -66.22 z"
         id="path5108"
         inkscape:connector-curvature="0" />
    </clipPath>
    <clipPath
       clipPathUnits="userSpaceOnUse"
       id="clipPath5126">
      <path
         d="m 2151.87,3244.72 h 52.47 v -30.78 h -52.47 z"
         id="path5124"
         inkscape:connector-curvature="0" />
    </clipPath>
    <clipPath
       clipPathUnits="userSpaceOnUse"
       id="clipPath5154">
      <path
         d="m 2107.59,3258.5 h 34.46 v -55.02 h -34.46 z"
         id="path5152"
         inkscape:connector-curvature="0" />
    </clipPath>
    <clipPath
       clipPathUnits="userSpaceOnUse"
       id="clipPath5186">
      <path
         d="m 2127.21,3230.54 h 9.83 v -4.24 h -9.83 z"
         id="path5184"
         inkscape:connector-curvature="0" />
    </clipPath>
    <clipPath
       clipPathUnits="userSpaceOnUse"
       id="clipPath5202">
      <path
         d="m 2072.49,3287.76 h 42.38 v -19.31 h -42.38 z"
         id="path5200"
         inkscape:connector-curvature="0" />
    </clipPath>
    <clipPath
       clipPathUnits="userSpaceOnUse"
       id="clipPath5846">
      <path
         d="m 441.461,3261.88 h 146.603 v -78.61 H 441.461 Z"
         id="path5844"
         inkscape:connector-curvature="0" />
    </clipPath>
    <clipPath
       clipPathUnits="userSpaceOnUse"
       id="clipPath5862">
      <path
         d="m 534.447,3228.29 h 53.047 v -31.76 h -53.047 z"
         id="path5860"
         inkscape:connector-curvature="0" />
    </clipPath>
    <clipPath
       clipPathUnits="userSpaceOnUse"
       id="clipPath5910">
      <path
         d="m 455.897,3259.95 h 58.405 v -62.97 h -58.405 z"
         id="path5908"
         inkscape:connector-curvature="0" />
    </clipPath>
    <clipPath
       clipPathUnits="userSpaceOnUse"
       id="clipPath5926">
      <path
         d="m 480.153,3255.43 h 5.279 v -42.72 h -5.279 z"
         id="path5924"
         inkscape:connector-curvature="0" />
    </clipPath>
    <clipPath
       clipPathUnits="userSpaceOnUse"
       id="clipPath5942">
      <path
         d="m 449.698,3262.12 h 114.897 v -58.11 H 449.698 Z"
         id="path5940"
         inkscape:connector-curvature="0" />
    </clipPath>
    <clipPath
       clipPathUnits="userSpaceOnUse"
       id="clipPath5958">
      <path
         d="m 569.722,3240.37 h 13.569 v -25.21 h -13.569 z"
         id="path5956"
         inkscape:connector-curvature="0" />
    </clipPath>
    <clipPath
       clipPathUnits="userSpaceOnUse"
       id="clipPath216">
      <path
         d="M 1347.02,3255.05 H 1482.6 V 3181.1 H 1347.02 Z"
         id="path214"
         inkscape:connector-curvature="0" />
    </clipPath>
    <clipPath
       clipPathUnits="userSpaceOnUse"
       id="clipPath368">
      <path
         d="m 1426.42,3253.06 h 52.99 v -34.62 h -52.99 z"
         id="path366"
         inkscape:connector-curvature="0" />
    </clipPath>
    <clipPath
       clipPathUnits="userSpaceOnUse"
       id="clipPath384">
      <path
         d="m 1418.31,3227.91 h 22.89 v -12.26 h -22.89 z"
         id="path382"
         inkscape:connector-curvature="0" />
    </clipPath>
    <clipPath
       clipPathUnits="userSpaceOnUse"
       id="clipPath408">
      <path
         d="m 1346.43,3269.04 h 2.26 v -7.33 h -2.26 z"
         id="path406"
         inkscape:connector-curvature="0" />
    </clipPath>
    <clipPath
       clipPathUnits="userSpaceOnUse"
       id="clipPath620">
      <path
         d="m 1356.73,3303.72 h 90.88 v -45.36 h -90.88 z"
         id="path618"
         inkscape:connector-curvature="0" />
    </clipPath>
    <clipPath
       clipPathUnits="userSpaceOnUse"
       id="clipPath636">
      <path
         d="m 1522.66,3261.56 h 147.27 v -80.46 h -147.27 z"
         id="path634"
         inkscape:connector-curvature="0" />
    </clipPath>
    <clipPath
       clipPathUnits="userSpaceOnUse"
       id="clipPath820">
      <path
         d="M 1557.54,3229.73 Z"
         id="path818"
         inkscape:connector-curvature="0" />
    </clipPath>
    <clipPath
       clipPathUnits="userSpaceOnUse"
       id="clipPath852">
      <path
         d="m 1566.63,3300.03 h 94.05 v -50.97 h -94.05 z"
         id="path850"
         inkscape:connector-curvature="0" />
    </clipPath>
    <clipPath
       clipPathUnits="userSpaceOnUse"
       id="clipPath896">
      <path
         d="m 1626.43,3225.22 h 4.82 v -15.59 h -4.82 z"
         id="path894"
         inkscape:connector-curvature="0" />
    </clipPath>
    <clipPath
       clipPathUnits="userSpaceOnUse"
       id="clipPath916">
      <path
         d="m 1668.97,3248.32 h 4.16 v -14.83 h -4.16 z"
         id="path914"
         inkscape:connector-curvature="0" />
    </clipPath>
    <clipPath
       clipPathUnits="userSpaceOnUse"
       id="clipPath932">
      <path
         d="m 1623.86,3209.27 h 5.41 v -13.89 h -5.41 z"
         id="path930"
         inkscape:connector-curvature="0" />
    </clipPath>
    <clipPath
       clipPathUnits="userSpaceOnUse"
       id="clipPath984">
      <path
         d="M 2241.54,3263.38 H 2392.1 V 3181.1 H 2241.54 Z"
         id="path982"
         inkscape:connector-curvature="0" />
    </clipPath>
    <clipPath
       clipPathUnits="userSpaceOnUse"
       id="clipPath1068">
      <path
         d="m 2250.46,3246.87 h 10.19 v -13.23 h -10.19 z"
         id="path1066"
         inkscape:connector-curvature="0" />
    </clipPath>
    <clipPath
       clipPathUnits="userSpaceOnUse"
       id="clipPath1096">
      <path
         d="m 2325.12,3205.39 h 10.19 v -13.23 h -10.19 z"
         id="path1094"
         inkscape:connector-curvature="0" />
    </clipPath>
    <clipPath
       clipPathUnits="userSpaceOnUse"
       id="clipPath1116">
      <path
         d="m 2341.56,3247.6 h 48.81 v -37.16 h -48.81 z"
         id="path1114"
         inkscape:connector-curvature="0" />
    </clipPath>
    <clipPath
       clipPathUnits="userSpaceOnUse"
       id="clipPath1152">
      <path
         d="m 2261.03,3256.13 h 5.5 v -8.41 h -5.5 z"
         id="path1150"
         inkscape:connector-curvature="0" />
    </clipPath>
    <clipPath
       clipPathUnits="userSpaceOnUse"
       id="clipPath1172">
      <path
         d="m 2346.72,3241.54 h 46.4 v -33.45 h -46.4 z"
         id="path1170"
         inkscape:connector-curvature="0" />
    </clipPath>
    <clipPath
       clipPathUnits="userSpaceOnUse"
       id="clipPath1192">
      <path
         d="m 2266.76,3261.85 h 43.66 v -45.63 h -43.66 z"
         id="path1190"
         inkscape:connector-curvature="0" />
    </clipPath>
    <clipPath
       clipPathUnits="userSpaceOnUse"
       id="clipPath1216">
      <path
         d="m 2243.45,3285.5 h 63.5 v -24.87 h -63.5 z"
         id="path1214"
         inkscape:connector-curvature="0" />
    </clipPath>
    <clipPath
       clipPathUnits="userSpaceOnUse"
       id="clipPath1236">
      <path
         d="m 2297.91,3280.49 h 66.9 v -34.76 h -66.9 z"
         id="path1234"
         inkscape:connector-curvature="0" />
    </clipPath>
    <clipPath
       clipPathUnits="userSpaceOnUse"
       id="clipPath1252">
      <path
         d="m 2364.67,3231.43 h 22.31 v -17.6 h -22.31 z"
         id="path1250"
         inkscape:connector-curvature="0" />
    </clipPath>
    <clipPath
       clipPathUnits="userSpaceOnUse"
       id="clipPath1280">
      <path
         d="m 2419.57,3263.23 h 158.01 v -82.13 h -158.01 z"
         id="path1278"
         inkscape:connector-curvature="0" />
    </clipPath>
    <clipPath
       clipPathUnits="userSpaceOnUse"
       id="clipPath1300">
      <path
         d="m 2526.61,3269.04 h 4.28 v -7.82 h -4.28 z"
         id="path1298"
         inkscape:connector-curvature="0" />
    </clipPath>
    <clipPath
       clipPathUnits="userSpaceOnUse"
       id="clipPath1400">
      <path
         d="m 2482.43,3253.79 h 83.72 v -49.2 h -83.72 z"
         id="path1398"
         inkscape:connector-curvature="0" />
    </clipPath>
    <clipPath
       clipPathUnits="userSpaceOnUse"
       id="clipPath1416">
      <path
         d="m 2423,3257.2 h 97.84 v -69.67 H 2423 Z"
         id="path1414"
         inkscape:connector-curvature="0" />
    </clipPath>
    <clipPath
       clipPathUnits="userSpaceOnUse"
       id="clipPath1432">
      <path
         d="m 2432.04,3283.95 h 141.05 v -93.24 h -141.05 z"
         id="path1430"
         inkscape:connector-curvature="0" />
    </clipPath>
    <clipPath
       clipPathUnits="userSpaceOnUse"
       id="clipPath1460">
      <path
         d="m 2568.33,3223.82 h 4.76 v -11.13 h -4.76 z"
         id="path1458"
         inkscape:connector-curvature="0" />
    </clipPath>
    <clipPath
       clipPathUnits="userSpaceOnUse"
       id="clipPath1488">
      <path
         d="m 2566.17,3235.24 h 4.5 v -6.52 h -4.5 z"
         id="path1486"
         inkscape:connector-curvature="0" />
    </clipPath>
    <clipPath
       clipPathUnits="userSpaceOnUse"
       id="clipPath1556">
      <path
         d="m 2507.78,3227.36 h 20.83 v -6.02 h -20.83 z"
         id="path1554"
         inkscape:connector-curvature="0" />
    </clipPath>
    <clipPath
       clipPathUnits="userSpaceOnUse"
       id="clipPath1576">
      <path
         d="m 2546.07,3247.24 h 10.1 v -10.8 h -10.1 z"
         id="path1574"
         inkscape:connector-curvature="0" />
    </clipPath>
    <clipPath
       clipPathUnits="userSpaceOnUse"
       id="clipPath1604">
      <path
         d="m 2428.93,3263.96 h 11.87 v -10.86 h -11.87 z"
         id="path1602"
         inkscape:connector-curvature="0" />
    </clipPath>
    <clipPath
       clipPathUnits="userSpaceOnUse"
       id="clipPath1636">
      <path
         d="m 2521.04,3197.55 h 16.61 v -7.84 h -16.61 z"
         id="path1634"
         inkscape:connector-curvature="0" />
    </clipPath>
    <clipPath
       clipPathUnits="userSpaceOnUse"
       id="clipPath1664">
      <path
         d="m 2459.87,3238.17 h 8.56 v -3.12 h -8.56 z"
         id="path1662"
         inkscape:connector-curvature="0" />
    </clipPath>
    <clipPath
       clipPathUnits="userSpaceOnUse"
       id="clipPath1712">
      <path
         d="m 2476.6,3269.18 h 53.16 v -34.71 h -53.16 z"
         id="path1710"
         inkscape:connector-curvature="0" />
    </clipPath>
    <clipPath
       clipPathUnits="userSpaceOnUse"
       id="clipPath1740">
      <path
         d="m 2477.14,3271.22 h 58.05 v -40.05 h -58.05 z"
         id="path1738"
         inkscape:connector-curvature="0" />
    </clipPath>
    <clipPath
       clipPathUnits="userSpaceOnUse"
       id="clipPath3256-1">
      <path
         d="M 1871.12,3284.99 H 2041.3 V 3181.1 h -170.18 z"
         id="path3254-5"
         inkscape:connector-curvature="0" />
    </clipPath>
    <clipPath
       clipPathUnits="userSpaceOnUse"
       id="clipPath3364-0">
      <path
         d="m 1903.91,3253.78 h 46.12 v -36.96 h -46.12 z"
         id="path3362-3"
         inkscape:connector-curvature="0" />
    </clipPath>
    <clipPath
       clipPathUnits="userSpaceOnUse"
       id="clipPath3400-4">
      <path
         d="M 1876.66,3270.04 H 1907 v -34.85 h -30.34 z"
         id="path3398-7"
         inkscape:connector-curvature="0" />
    </clipPath>
    <clipPath
       clipPathUnits="userSpaceOnUse"
       id="clipPath3456-4">
      <path
         d="m 1978.52,3227.8 h 19.07 v -5.47 h -19.07 z"
         id="path3454-4"
         inkscape:connector-curvature="0" />
    </clipPath>
    <clipPath
       clipPathUnits="userSpaceOnUse"
       id="clipPath3472-7">
      <path
         d="m 2019.5,3255.73 h 18.56 v -5.92 h -18.56 z"
         id="path3470-2"
         inkscape:connector-curvature="0" />
    </clipPath>
    <clipPath
       clipPathUnits="userSpaceOnUse"
       id="clipPath3548-8">
      <path
         d="m 1965.85,3279.43 h 36.68 v -40.81 h -36.68 z"
         id="path3546-9"
         inkscape:connector-curvature="0" />
    </clipPath>
    <clipPath
       clipPathUnits="userSpaceOnUse"
       id="clipPath3572-1">
      <path
         d="m 1934.03,3265.36 h 35.96 v -20.11 h -35.96 z"
         id="path3570-2"
         inkscape:connector-curvature="0" />
    </clipPath>
    <clipPath
       clipPathUnits="userSpaceOnUse"
       id="clipPath3588-6">
      <path
         d="m 1968.3,3281.89 h 18.96 v -15.71 h -18.96 z"
         id="path3586-4"
         inkscape:connector-curvature="0" />
    </clipPath>
    <clipPath
       clipPathUnits="userSpaceOnUse"
       id="clipPath3616-7">
      <path
         d="m 1883.1,3257.87 h 13.66 v -17.73 h -13.66 z"
         id="path3614-7"
         inkscape:connector-curvature="0" />
    </clipPath>
    <clipPath
       clipPathUnits="userSpaceOnUse"
       id="clipPath3648-7">
      <path
         d="m 1962.79,3215.09 h 13.66 v -17.73 h -13.66 z"
         id="path3646-5"
         inkscape:connector-curvature="0" />
    </clipPath>
    <clipPath
       clipPathUnits="userSpaceOnUse"
       id="clipPath216-1">
      <path
         d="M 1347.02,3255.05 H 1482.6 V 3181.1 H 1347.02 Z"
         id="path214-7"
         inkscape:connector-curvature="0" />
    </clipPath>
    <clipPath
       clipPathUnits="userSpaceOnUse"
       id="clipPath368-2">
      <path
         d="m 1426.42,3253.06 h 52.99 v -34.62 h -52.99 z"
         id="path366-5"
         inkscape:connector-curvature="0" />
    </clipPath>
    <clipPath
       clipPathUnits="userSpaceOnUse"
       id="clipPath384-7">
      <path
         d="m 1418.31,3227.91 h 22.89 v -12.26 h -22.89 z"
         id="path382-7"
         inkscape:connector-curvature="0" />
    </clipPath>
    <clipPath
       clipPathUnits="userSpaceOnUse"
       id="clipPath408-3">
      <path
         d="m 1346.43,3269.04 h 2.26 v -7.33 h -2.26 z"
         id="path406-5"
         inkscape:connector-curvature="0" />
    </clipPath>
    <clipPath
       clipPathUnits="userSpaceOnUse"
       id="clipPath620-8">
      <path
         d="m 1356.73,3303.72 h 90.88 v -45.36 h -90.88 z"
         id="path618-6"
         inkscape:connector-curvature="0" />
    </clipPath>
    <clipPath
       clipPathUnits="userSpaceOnUse"
       id="clipPath636-8">
      <path
         d="m 1522.66,3261.56 h 147.27 v -80.46 h -147.27 z"
         id="path634-1"
         inkscape:connector-curvature="0" />
    </clipPath>
    <clipPath
       clipPathUnits="userSpaceOnUse"
       id="clipPath820-4">
      <path
         d="M 1557.54,3229.73 Z"
         id="path818-8"
         inkscape:connector-curvature="0" />
    </clipPath>
    <clipPath
       clipPathUnits="userSpaceOnUse"
       id="clipPath852-6">
      <path
         d="m 1566.63,3300.03 h 94.05 v -50.97 h -94.05 z"
         id="path850-2"
         inkscape:connector-curvature="0" />
    </clipPath>
    <clipPath
       clipPathUnits="userSpaceOnUse"
       id="clipPath896-6">
      <path
         d="m 1626.43,3225.22 h 4.82 v -15.59 h -4.82 z"
         id="path894-3"
         inkscape:connector-curvature="0" />
    </clipPath>
    <clipPath
       clipPathUnits="userSpaceOnUse"
       id="clipPath916-1">
      <path
         d="m 1668.97,3248.32 h 4.16 v -14.83 h -4.16 z"
         id="path914-5"
         inkscape:connector-curvature="0" />
    </clipPath>
    <clipPath
       clipPathUnits="userSpaceOnUse"
       id="clipPath932-9">
      <path
         d="m 1623.86,3209.27 h 5.41 v -13.89 h -5.41 z"
         id="path930-1"
         inkscape:connector-curvature="0" />
    </clipPath>
    <clipPath
       clipPathUnits="userSpaceOnUse"
       id="clipPath984-1">
      <path
         d="M 2241.54,3263.38 H 2392.1 V 3181.1 H 2241.54 Z"
         id="path982-3"
         inkscape:connector-curvature="0" />
    </clipPath>
    <clipPath
       clipPathUnits="userSpaceOnUse"
       id="clipPath1068-6">
      <path
         d="m 2250.46,3246.87 h 10.19 v -13.23 h -10.19 z"
         id="path1066-3"
         inkscape:connector-curvature="0" />
    </clipPath>
    <clipPath
       clipPathUnits="userSpaceOnUse"
       id="clipPath1096-5">
      <path
         d="m 2325.12,3205.39 h 10.19 v -13.23 h -10.19 z"
         id="path1094-5"
         inkscape:connector-curvature="0" />
    </clipPath>
    <clipPath
       clipPathUnits="userSpaceOnUse"
       id="clipPath1116-3">
      <path
         d="m 2341.56,3247.6 h 48.81 v -37.16 h -48.81 z"
         id="path1114-3"
         inkscape:connector-curvature="0" />
    </clipPath>
    <clipPath
       clipPathUnits="userSpaceOnUse"
       id="clipPath1152-6">
      <path
         d="m 2261.03,3256.13 h 5.5 v -8.41 h -5.5 z"
         id="path1150-7"
         inkscape:connector-curvature="0" />
    </clipPath>
    <clipPath
       clipPathUnits="userSpaceOnUse"
       id="clipPath1172-3">
      <path
         d="m 2346.72,3241.54 h 46.4 v -33.45 h -46.4 z"
         id="path1170-5"
         inkscape:connector-curvature="0" />
    </clipPath>
    <clipPath
       clipPathUnits="userSpaceOnUse"
       id="clipPath1192-9">
      <path
         d="m 2266.76,3261.85 h 43.66 v -45.63 h -43.66 z"
         id="path1190-0"
         inkscape:connector-curvature="0" />
    </clipPath>
    <clipPath
       clipPathUnits="userSpaceOnUse"
       id="clipPath1216-4">
      <path
         d="m 2243.45,3285.5 h 63.5 v -24.87 h -63.5 z"
         id="path1214-4"
         inkscape:connector-curvature="0" />
    </clipPath>
    <clipPath
       clipPathUnits="userSpaceOnUse"
       id="clipPath1236-1">
      <path
         d="m 2297.91,3280.49 h 66.9 v -34.76 h -66.9 z"
         id="path1234-3"
         inkscape:connector-curvature="0" />
    </clipPath>
    <clipPath
       clipPathUnits="userSpaceOnUse"
       id="clipPath1252-6">
      <path
         d="m 2364.67,3231.43 h 22.31 v -17.6 h -22.31 z"
         id="path1250-0"
         inkscape:connector-curvature="0" />
    </clipPath>
    <clipPath
       clipPathUnits="userSpaceOnUse"
       id="clipPath1280-4">
      <path
         d="m 2419.57,3263.23 h 158.01 v -82.13 h -158.01 z"
         id="path1278-3"
         inkscape:connector-curvature="0" />
    </clipPath>
    <clipPath
       clipPathUnits="userSpaceOnUse"
       id="clipPath1300-6">
      <path
         d="m 2526.61,3269.04 h 4.28 v -7.82 h -4.28 z"
         id="path1298-9"
         inkscape:connector-curvature="0" />
    </clipPath>
    <clipPath
       clipPathUnits="userSpaceOnUse"
       id="clipPath1400-1">
      <path
         d="m 2482.43,3253.79 h 83.72 v -49.2 h -83.72 z"
         id="path1398-6"
         inkscape:connector-curvature="0" />
    </clipPath>
    <clipPath
       clipPathUnits="userSpaceOnUse"
       id="clipPath1416-4">
      <path
         d="m 2423,3257.2 h 97.84 v -69.67 H 2423 Z"
         id="path1414-7"
         inkscape:connector-curvature="0" />
    </clipPath>
    <clipPath
       clipPathUnits="userSpaceOnUse"
       id="clipPath1432-8">
      <path
         d="m 2432.04,3283.95 h 141.05 v -93.24 h -141.05 z"
         id="path1430-8"
         inkscape:connector-curvature="0" />
    </clipPath>
    <clipPath
       clipPathUnits="userSpaceOnUse"
       id="clipPath1460-6">
      <path
         d="m 2568.33,3223.82 h 4.76 v -11.13 h -4.76 z"
         id="path1458-5"
         inkscape:connector-curvature="0" />
    </clipPath>
    <clipPath
       clipPathUnits="userSpaceOnUse"
       id="clipPath1488-6">
      <path
         d="m 2566.17,3235.24 h 4.5 v -6.52 h -4.5 z"
         id="path1486-9"
         inkscape:connector-curvature="0" />
    </clipPath>
    <clipPath
       clipPathUnits="userSpaceOnUse"
       id="clipPath1556-5">
      <path
         d="m 2507.78,3227.36 h 20.83 v -6.02 h -20.83 z"
         id="path1554-0"
         inkscape:connector-curvature="0" />
    </clipPath>
    <clipPath
       clipPathUnits="userSpaceOnUse"
       id="clipPath1576-2">
      <path
         d="m 2546.07,3247.24 h 10.1 v -10.8 h -10.1 z"
         id="path1574-2"
         inkscape:connector-curvature="0" />
    </clipPath>
    <clipPath
       clipPathUnits="userSpaceOnUse"
       id="clipPath1604-4">
      <path
         d="m 2428.93,3263.96 h 11.87 v -10.86 h -11.87 z"
         id="path1602-2"
         inkscape:connector-curvature="0" />
    </clipPath>
    <clipPath
       clipPathUnits="userSpaceOnUse"
       id="clipPath1636-0">
      <path
         d="m 2521.04,3197.55 h 16.61 v -7.84 h -16.61 z"
         id="path1634-7"
         inkscape:connector-curvature="0" />
    </clipPath>
    <clipPath
       clipPathUnits="userSpaceOnUse"
       id="clipPath1664-3">
      <path
         d="m 2459.87,3238.17 h 8.56 v -3.12 h -8.56 z"
         id="path1662-9"
         inkscape:connector-curvature="0" />
    </clipPath>
    <clipPath
       clipPathUnits="userSpaceOnUse"
       id="clipPath1712-4">
      <path
         d="m 2476.6,3269.18 h 53.16 v -34.71 h -53.16 z"
         id="path1710-8"
         inkscape:connector-curvature="0" />
    </clipPath>
    <clipPath
       clipPathUnits="userSpaceOnUse"
       id="clipPath1740-0">
      <path
         d="m 2477.14,3271.22 h 58.05 v -40.05 h -58.05 z"
         id="path1738-1"
         inkscape:connector-curvature="0" />
    </clipPath>
  </defs>
  <sodipodi:namedview
     id="base"
     pagecolor="#ffffff"
     bordercolor="#666666"
     borderopacity="1.0"
     inkscape:pageopacity="0.0"
     inkscape:pageshadow="2"
     inkscape:zoom="0.35"
     inkscape:cx="287.59436"
     inkscape:cy="-410.12927"
     inkscape:document-units="mm"
     inkscape:current-layer="layer1"
     showgrid="false"
     inkscape:window-width="1366"
     inkscape:window-height="716"
     inkscape:window-x="-8"
     inkscape:window-y="-8"
     inkscape:window-maximized="1"
     fit-margin-top="0"
     fit-margin-left="0"
     fit-margin-right="0"
     fit-margin-bottom="0" />
  <metadata
     id="metadata300752">
    <rdf:RDF>
      <cc:Work
         rdf:about="">
        <dc:format>image/svg+xml</dc:format>
        <dc:type
           rdf:resource="http://purl.org/dc/dcmitype/StillImage" />
        <dc:title></dc:title>
      </cc:Work>
    </rdf:RDF>
  </metadata>
  <g
     inkscape:label="Layer 1"
     inkscape:groupmode="layer"
     id="layer1"
     transform="translate(153.57779,-4.0373422)">
    <g
       id="g193059"
       transform="matrix(0.35277777,0,0,-0.35277777,-1007.1483,1162.5419)">
      <g
         id="g1274">
        <g
           id="g1276" />
        <g
           id="g1288">
          <g
             style="opacity:0.21000701"
             id="g1286"
             clip-path="url(#clipPath1280-4)">
            <g
               id="g1284"
               transform="translate(2569.1855,3216.54)">
              <path
                 inkscape:connector-curvature="0"
                 id="path1282"
                 style="fill:#17252d;fill-opacity:1;fill-rule:nonzero;stroke:none"
                 d="m 0,0 c 0,0 13.381,-7.285 6.356,-12.849 -4.203,-3.33 -21.208,-14.932 -37.616,-20 -18.013,-5.561 -30.798,-1.523 -45.101,6.027 -14.306,7.551 -60.864,33.246 -65.236,35.831 -4.372,2.582 -12.913,10.199 -4.372,14.967 8.545,4.77 44.97,22.716 52.921,22.716 C -85.103,46.692 0,0 0,0" />
            </g>
          </g>
        </g>
      </g>
      <g
         transform="translate(2525.4756,3262.3721)"
         id="g1290">
        <path
           inkscape:connector-curvature="0"
           id="path1292"
           style="fill:#d1053a;fill-opacity:1;fill-rule:nonzero;stroke:none"
           d="M 0,0 C 0,0 -0.135,2.384 0,4.037 0.13,5.693 1.059,6.29 1.653,6.556 2.248,6.821 3.706,6.687 4.634,5.563 5.563,4.436 5.693,3.509 4.833,2.317 3.972,1.124 1.255,-2.385 1.255,-2.385 Z" />
      </g>
      <g
         id="g1294">
        <g
           id="g1296" />
        <g
           id="g1308">
          <g
             style="opacity:0.47999597"
             id="g1306"
             clip-path="url(#clipPath1300-6)">
            <g
               id="g1304"
               transform="translate(2527.0635,3268.6616)">
              <path
                 inkscape:connector-curvature="0"
                 id="path1302"
                 style="fill:#530c29;fill-opacity:1;fill-rule:nonzero;stroke:none"
                 d="M 0,0 C 0.127,0.083 0.304,0.219 0.507,0.371 1.214,0.441 2.304,0.176 3.046,-0.727 3.975,-1.854 4.105,-2.781 3.245,-3.972 2.716,-4.706 1.486,-6.316 0.618,-7.446 c -0.097,0.541 -0.22,1.38 -0.22,2.148 0,1.259 -0.53,2.848 -0.665,3.312 C -0.398,-1.522 -0.729,-0.462 0,0" />
            </g>
          </g>
        </g>
      </g>
      <g
         transform="translate(2508.541,3197.5493)"
         id="g1310">
        <path
           inkscape:connector-curvature="0"
           id="path1312"
           style="fill:#10212d;fill-opacity:1;fill-rule:nonzero;stroke:none"
           d="m 0,0 c -0.863,3.622 -1.828,6.402 -5.445,11.45 -4.553,6.351 -9.58,8.244 -13.215,6.404 -3.498,-1.77 -5.932,-8.177 -5.932,-8.177 0,0 3.918,-5.148 4.969,-4.99 0.377,0.054 0.132,3.906 2.963,3.48 C -13.344,7.67 -6.076,-0.439 0.544,-3.337 0.404,-2.243 0.318,-1.32 0,0" />
      </g>
      <g
         transform="translate(2496.8262,3214.835)"
         id="g1314">
        <path
           inkscape:connector-curvature="0"
           id="path1316"
           style="fill:#394b5b;fill-opacity:1;fill-rule:nonzero;stroke:none"
           d="m 0,0 c 0,0 -3.561,0.586 -5.352,-1.295 -2.711,-2.847 -3.104,-7.09 -1.429,-11.846 1.679,-4.755 4.869,-8.243 7.824,-10.116 2.953,-1.867 5.254,-1.911 6.701,-1.465 4.688,1.442 5.605,7.015 5.605,7.015 0,0 -1.463,5.548 -8.039,13.092 C 2.364,-1.232 0,0 0,0" />
      </g>
      <g
         transform="translate(2498.6357,3209.6689)"
         id="g1318">
        <path
           inkscape:connector-curvature="0"
           id="path1320"
           style="fill:#747a8c;fill-opacity:1;fill-rule:nonzero;stroke:none"
           d="m 0,0 c 2.829,-2.12 5.179,-7.709 5.507,-10.411 0.327,-2.699 -0.555,-4.516 -2.531,-5.315 -1.974,-0.795 -6.075,0.971 -8.434,4.666 -2.357,3.694 -2.763,7.449 -2.387,9.206 C -7.348,0.457 -5.547,4.152 0,0" />
      </g>
      <g
         transform="translate(2492.9629,3200.4087)"
         id="g1322">
        <path
           inkscape:connector-curvature="0"
           id="path1324"
           style="fill:#9aa8b7;fill-opacity:1;fill-rule:nonzero;stroke:none"
           d="m 0,0 c -0.911,1.759 -1.519,3.671 -1.622,5.64 -0.023,0.492 -0.018,0.986 0.054,1.482 0.073,0.503 0.213,0.972 0.396,1.44 0.191,0.465 0.429,0.916 0.747,1.323 0.314,0.407 0.728,0.764 1.218,0.992 C 1.049,11 1.33,11.079 1.617,11.125 1.876,11.104 2.154,11.056 2.453,10.976 2.425,10.979 2.392,10.983 2.36,10.983 1.854,10.991 1.352,10.884 0.923,10.653 0.057,10.185 -0.477,9.321 -0.797,8.438 -0.948,7.997 -1.086,7.523 -1.152,7.071 -1.213,6.607 -1.218,6.133 -1.193,5.66 -1.069,3.762 -0.507,1.889 0.354,0.153 0.793,-0.707 1.291,-1.554 1.9,-2.319 c 0.614,-0.763 1.323,-1.466 2.128,-2.067 0.811,-0.59 1.701,-1.103 2.679,-1.413 0.483,-0.159 0.991,-0.267 1.505,-0.296 0.515,-0.029 1.026,0.051 1.479,0.277 0.051,0.023 0.104,0.052 0.157,0.077 C 9.703,-5.863 9.553,-5.978 9.391,-6.082 9.013,-6.197 8.596,-6.233 8.203,-6.215 7.674,-6.191 7.158,-6.084 6.656,-5.929 5.663,-5.613 4.731,-5.137 3.892,-4.554 3.045,-3.966 2.283,-3.281 1.638,-2.506 0.988,-1.731 0.459,-0.879 0,0" />
      </g>
      <g
         transform="translate(2504.1064,3199.4897)"
         id="g1326">
        <path
           inkscape:connector-curvature="0"
           id="path1328"
           style="fill:#747a8c;fill-opacity:1;fill-rule:nonzero;stroke:none"
           d="m 0,0 c -0.424,2.773 -2.72,8.113 -5.471,10.179 -0.428,0.32 -0.828,0.586 -1.214,0.817 -0.585,0.223 -1.6,0.362 -2.106,0.215 -3.236,-0.94 -3.533,-5.311 -1.771,-9.243 1.712,-3.805 5.446,-6.57 8.129,-5.705 C -1.069,-3.29 0.185,-1.837 0,0" />
      </g>
      <g
         transform="translate(2498.6357,3209.6689)"
         id="g1330">
        <path
           inkscape:connector-curvature="0"
           id="path1332"
           style="fill:#10212d;fill-opacity:1;fill-rule:nonzero;stroke:none"
           d="m 0,0 c 0.05,-0.04 0.103,-0.086 0.149,-0.127 -0.015,-0.644 -0.087,-1.725 -0.31,-3.201 -0.369,-2.508 -1.11,-1.323 -1.11,-1.323 0,0 -0.422,2.06 -0.743,4.175 -0.13,0.858 -0.116,1.292 -0.06,1.506 0.315,-0.048 0.622,-0.124 0.86,-0.213 C -0.828,0.586 -0.429,0.319 0,0" />
      </g>
      <g
         transform="translate(2492.5518,3207.1548)"
         id="g1334">
        <path
           inkscape:connector-curvature="0"
           id="path1336"
           style="fill:#10212d;fill-opacity:1;fill-rule:nonzero;stroke:none"
           d="M 0,0 C 0.233,1.624 1.227,2.924 2.236,3.365 2.55,2.038 3.557,-1.257 4.284,-2.487 5.593,-4.708 3.751,-3.075 3.751,-3.075 c 0,0 -1.376,0.737 -2.596,1.867 C 0.757,-0.837 0.334,-0.379 0,0" />
      </g>
      <g
         transform="translate(2492.5166,3205.2573)"
         id="g1338">
        <path
           inkscape:connector-curvature="0"
           id="path1340"
           style="fill:#10212d;fill-opacity:1;fill-rule:nonzero;stroke:none"
           d="m 0,0 c 1.246,-0.766 3.025,-1.754 4.599,-2.236 2.592,-0.793 0.14,-0.27 0.14,-0.27 0,0 -1.536,-0.525 -3.228,-0.367 -0.282,0.027 -0.587,0.064 -0.889,0.11 C 0.295,-1.833 0.082,-0.893 0,0" />
      </g>
      <g
         transform="translate(2493.8145,3200.9121)"
         id="g1342">
        <path
           inkscape:connector-curvature="0"
           id="path1344"
           style="fill:#10212d;fill-opacity:1;fill-rule:nonzero;stroke:none"
           d="m 0,0 c 1.905,0.469 3.172,0.793 3.338,0.881 0.334,0.172 0.016,-0.468 0.016,-0.468 0,0 -0.947,-1.297 -2.09,-2.38 C 0.787,-1.366 0.362,-0.705 0,0" />
      </g>
      <g
         transform="translate(2495.9531,3197.981)"
         id="g1346">
        <path
           inkscape:connector-curvature="0"
           id="path1348"
           style="fill:#10212d;fill-opacity:1;fill-rule:nonzero;stroke:none"
           d="m 0,0 c 0.74,1.229 1.566,2.99 1.642,3.148 0.424,0.884 0.529,-0.049 0.529,-0.049 0,0 0.052,-2.116 0.583,-5.166 C 1.43,-1.525 0.684,-0.725 0,0" />
      </g>
      <g
         transform="translate(2498.4443,3201.0801)"
         id="g1350">
        <path
           inkscape:connector-curvature="0"
           id="path1352"
           style="fill:#10212d;fill-opacity:1;fill-rule:nonzero;stroke:none"
           d="m 0,0 c -0.075,0.723 0.316,0 0.316,0 0,0 4.269,-4.293 4.363,-4.397 C 4.26,-4.833 3.757,-5.157 3.229,-5.327 2.756,-5.481 2.245,-5.516 1.722,-5.453 0.612,-2.924 0.021,-0.223 0,0" />
      </g>
      <g
         transform="translate(2498.707,3201.9141)"
         id="g1354">
        <path
           inkscape:connector-curvature="0"
           id="path1356"
           style="fill:#10212d;fill-opacity:1;fill-rule:nonzero;stroke:none"
           d="M 0,0 C 0,0 3.499,-0.785 5.087,-1.032 5.268,-1.644 5.325,-1.938 5.399,-2.424 5.436,-2.778 5.416,-3.115 5.355,-3.432 2.688,-2.136 0.888,-0.792 0.669,-0.701 -1.688,0.253 0,0 0,0" />
      </g>
      <g
         transform="translate(2503.2568,3202.5171)"
         id="g1358">
        <path
           inkscape:connector-curvature="0"
           id="path1360"
           style="fill:#10212d;fill-opacity:1;fill-rule:nonzero;stroke:none"
           d="M 0,0 C -2.229,-0.04 -3.815,0.14 -4.017,0.114 -6.56,-0.217 -5.081,0.38 -5.081,0.38 c 0,0 2.121,0.788 4.264,1.541 C -0.51,1.275 -0.235,0.628 0,0" />
      </g>
      <g
         transform="translate(2497.7656,3203.8574)"
         id="g1362">
        <path
           inkscape:connector-curvature="0"
           id="path1364"
           style="fill:#10212d;fill-opacity:1;fill-rule:nonzero;stroke:none"
           d="M 0,0 C 0,0 1.814,2.305 2.823,3.745 3.239,3.18 3.5,2.829 3.857,2.188 2.689,1.254 0.984,0.131 0.835,0.023 -1.197,-1.43 0,0 0,0" />
      </g>
      <g
         transform="translate(2498.2842,3200.7046)"
         id="g1366">
        <path
           inkscape:connector-curvature="0"
           id="path1368"
           style="fill:#747a8c;fill-opacity:1;fill-rule:nonzero;stroke:none"
           d="m 0,0 c -0.825,0 -1.687,0.741 -2.093,1.801 -0.479,1.273 -0.14,2.504 0.774,2.803 0.126,0.041 0.261,0.06 0.4,0.06 0.826,0 1.684,-0.739 2.086,-1.798 C 1.65,1.594 1.311,0.363 0.398,0.059 0.271,0.021 0.137,0 0,0" />
      </g>
      <g
         transform="translate(2446.0098,3228.8223)"
         id="g1370">
        <path
           inkscape:connector-curvature="0"
           id="path1372"
           style="fill:#10212d;fill-opacity:1;fill-rule:nonzero;stroke:none"
           d="m 0,0 c -0.807,3.657 -1.712,6.463 -5.103,11.565 -4.266,6.414 -8.977,8.325 -12.381,6.467 -3.282,-1.787 -1.274,-6.121 -1.274,-6.121 0,0 0.279,0.635 1.26,0.792 0.352,0.06 1.503,-0.315 1.503,-0.315 C -13.369,10.522 -5.693,-0.448 0.512,-3.374 0.379,-2.269 0.298,-1.335 0,0" />
      </g>
      <g
         transform="translate(2435.0283,3246.2822)"
         id="g1374">
        <path
           inkscape:connector-curvature="0"
           id="path1376"
           style="fill:#394b5b;fill-opacity:1;fill-rule:nonzero;stroke:none"
           d="m 0,0 c 0,0 -3.335,0.591 -5.014,-1.309 -2.537,-2.877 -2.909,-7.163 -1.337,-11.966 1.573,-4.805 4.563,-8.328 7.331,-10.219 2.768,-1.885 4.899,-1.832 6.283,-1.479 3.42,0.878 4.634,5.166 4.634,5.166 0,0 -0.757,7.524 -6.918,15.142 C 2.221,-1.245 0,0 0,0" />
      </g>
      <g
         transform="translate(2436.7275,3241.0605)"
         id="g1378">
        <path
           inkscape:connector-curvature="0"
           id="path1380"
           style="fill:#747a8c;fill-opacity:1;fill-rule:nonzero;stroke:none"
           d="m 0,0 c 2.651,-2.138 4.852,-7.786 5.157,-10.514 0.312,-2.724 -0.517,-4.563 -2.371,-5.365 -1.847,-0.808 -5.689,0.977 -7.901,4.708 -2.206,3.732 -2.59,7.525 -2.236,9.3 C -6.886,0.462 -5.2,4.194 0,0" />
      </g>
      <g
         transform="translate(2431.4082,3231.7065)"
         id="g1382">
        <path
           inkscape:connector-curvature="0"
           id="path1384"
           style="fill:#9aa8b7;fill-opacity:1;fill-rule:nonzero;stroke:none"
           d="m 0,0 c -0.851,1.78 -1.421,3.711 -1.521,5.7 -0.018,0.495 -0.015,0.994 0.052,1.496 0.072,0.509 0.201,0.981 0.372,1.456 0.178,0.468 0.402,0.923 0.701,1.335 0.294,0.41 0.681,0.771 1.138,1.004 0.242,0.123 0.506,0.203 0.773,0.248 0.245,-0.021 0.508,-0.068 0.788,-0.148 -0.03,0 -0.06,0.003 -0.09,0.003 C 1.742,11.102 1.268,10.998 0.864,10.764 0.055,10.288 -0.442,9.418 -0.744,8.528 -0.888,8.08 -1.016,7.603 -1.074,7.146 -1.137,6.677 -1.141,6.196 -1.115,5.718 -0.999,3.804 -0.472,1.909 0.336,0.159 c 0.411,-0.873 0.871,-1.726 1.447,-2.5 0.574,-0.771 1.24,-1.482 1.993,-2.086 0.761,-0.598 1.595,-1.113 2.512,-1.429 0.453,-0.159 0.931,-0.269 1.411,-0.299 0.481,-0.029 0.959,0.052 1.386,0.28 0.052,0.022 0.097,0.052 0.147,0.079 C 9.098,-5.919 8.955,-6.037 8.804,-6.141 8.448,-6.258 8.06,-6.292 7.692,-6.276 7.195,-6.251 6.711,-6.145 6.242,-5.987 5.311,-5.667 4.438,-5.185 3.648,-4.596 2.858,-4.005 2.143,-3.312 1.536,-2.529 0.924,-1.747 0.432,-0.888 0,0" />
      </g>
      <g
         transform="translate(2441.8555,3230.7808)"
         id="g1386">
        <path
           inkscape:connector-curvature="0"
           id="path1388"
           style="fill:#747a8c;fill-opacity:1;fill-rule:nonzero;stroke:none"
           d="m 0,0 c -0.398,2.802 -2.547,8.199 -5.128,10.28 -0.402,0.323 -0.776,0.593 -1.138,0.827 -0.548,0.226 -1.503,0.367 -1.975,0.216 -3.03,-0.949 -3.309,-5.363 -1.654,-9.335 1.598,-3.844 5.096,-6.636 7.614,-5.763 C -1.004,-3.323 0.171,-1.855 0,0" />
      </g>
      <g
         transform="translate(2448.8467,3224.8853)"
         id="g1390">
        <path
           inkscape:connector-curvature="0"
           id="path1392"
           style="fill:#d1053a;fill-opacity:1;fill-rule:nonzero;stroke:none"
           d="m 0,0 c 0,0 21.459,-12.914 28.614,-16.689 l 10.792,-6.093 c 0,0 1.393,-0.532 0.861,0.926 -0.559,1.547 -1.741,3.116 -1.854,7.022 -0.098,3.442 2.816,4.801 5.298,4.502 2.485,-0.297 9.935,-4.271 13.81,-11.524 3.874,-7.249 5.068,-9.934 5.068,-9.934 0,0 1.349,-2.896 3.252,-3.904 2.007,-1.063 9.263,-2.917 16.747,-1.658 7.81,1.312 18.744,4.72 28.742,11.325 7.337,4.845 11.856,10.925 12.554,14.007 0.694,3.08 0.162,8.908 0.162,10.099 0,1.191 -0.793,7.98 -3.576,12.65 -2.782,4.67 -7.082,7.522 -16.291,13.114 C 93.051,30.597 66.04,46.215 53.029,53.035 47.901,55.723 41.592,58.812 30.863,59.009 20.948,59.194 12.907,57.304 9.405,56.229 4.241,54.638 -15.563,47.553 -19.669,39.34 c -0.452,-0.902 -4.373,-4.238 -4.373,-4.238 0,0 -2.248,-2.121 -1.721,-6.359 0.487,-3.904 1.323,-5.628 1.323,-5.628 0,0 0.24,-2.01 0.796,-3.511 1.327,-3.575 2.185,-3.958 2.281,-3.958 0.365,0 0.18,0.056 0.038,2.235 -0.131,2.055 1.605,3.528 4.487,2.235 2.985,-1.337 6.308,-4.767 8.792,-9.686 2.487,-4.918 3.578,-6.108 3.578,-6.108 0,0 0.894,-2.237 4.468,-4.322" />
      </g>
      <g
         id="g1394">
        <g
           id="g1396" />
        <g
           id="g1408">
          <g
             style="opacity:0.47999597"
             id="g1406"
             clip-path="url(#clipPath1400-1)">
            <g
               id="g1404"
               transform="translate(2482.4268,3230.8467)">
              <path
                 inkscape:connector-curvature="0"
                 id="path1402"
                 style="fill:#530c29;fill-opacity:1;fill-rule:nonzero;stroke:none"
                 d="M 0,0 C 2.704,-1.089 5.464,-2.031 8.231,-2.949 11,-3.867 13.78,-4.742 16.568,-5.594 22.147,-7.28 27.759,-8.866 33.387,-10.4 c 2.812,-0.779 5.644,-1.469 8.401,-2.357 2.759,-0.89 5.477,-1.931 7.974,-3.363 1.245,-0.714 2.426,-1.535 3.521,-2.465 1.094,-0.917 2.066,-1.983 3.012,-3.081 0.952,-1.094 1.852,-2.246 2.957,-3.277 0.556,-0.499 1.172,-1.015 2.016,-1.229 0.825,-0.147 1.572,-0.085 2.332,0.042 1.497,0.277 2.87,0.85 4.213,1.442 1.342,0.603 2.655,1.257 3.94,1.965 2.565,1.416 5.053,2.964 7.426,4.694 0.592,0.433 1.177,0.883 1.741,1.361 0.284,0.24 0.562,0.486 0.834,0.749 0.134,0.134 0.263,0.265 0.395,0.416 0.115,0.133 0.242,0.282 0.363,0.433 0.467,0.596 0.866,1.294 1.05,2.061 0.193,0.764 0.187,1.551 0.095,2.296 -0.194,1.501 -0.66,2.901 -1.104,4.294 -0.458,1.389 -0.966,2.763 -1.525,4.119 -2.227,5.412 -5.332,10.501 -9.35,14.768 -2.007,2.128 -4.232,4.048 -6.596,5.76 -1.183,0.857 -2.397,1.665 -3.632,2.44 l -3.732,2.278 c 2.439,-1.595 4.925,-3.124 7.238,-4.887 2.322,-1.751 4.49,-3.706 6.436,-5.855 3.927,-4.284 6.933,-9.35 9.068,-14.736 0.535,-1.344 1.022,-2.712 1.461,-4.095 0.433,-1.381 0.881,-2.767 1.053,-4.165 0.084,-0.699 0.08,-1.395 -0.088,-2.047 -0.157,-0.652 -0.497,-1.252 -0.932,-1.796 -0.107,-0.136 -0.215,-0.265 -0.34,-0.404 -0.107,-0.124 -0.234,-0.25 -0.359,-0.372 -0.249,-0.245 -0.52,-0.482 -0.795,-0.71 -0.547,-0.461 -1.124,-0.898 -1.709,-1.325 -2.344,-1.693 -4.822,-3.222 -7.361,-4.611 -1.269,-0.693 -2.571,-1.331 -3.893,-1.921 -1.319,-0.578 -2.66,-1.119 -4.037,-1.373 -0.344,-0.06 -0.689,-0.102 -1.031,-0.111 -0.169,-0.008 -0.343,-0.006 -0.507,0.002 -0.078,0.003 -0.169,0.009 -0.263,0.019 -0.073,0.006 -0.142,0.017 -0.217,0.033 -0.585,0.136 -1.154,0.572 -1.664,1.036 -1.037,0.959 -1.95,2.101 -2.91,3.202 -0.96,1.103 -1.962,2.2 -3.106,3.151 -1.133,0.954 -2.358,1.799 -3.645,2.526 -5.175,2.897 -10.958,4.245 -16.574,5.681 -5.636,1.462 -11.264,2.98 -16.866,4.589 C 11.078,-3.623 5.483,-1.976 0,0" />
            </g>
          </g>
        </g>
      </g>
      <g
         id="g1410">
        <g
           id="g1412" />
        <g
           id="g1424">
          <g
             style="opacity:0.47999597"
             id="g1422"
             clip-path="url(#clipPath1416-4)">
            <g
               id="g1420"
               transform="translate(2427.375,3240.5205)">
              <path
                 inkscape:connector-curvature="0"
                 id="path1418"
                 style="fill:#530c29;fill-opacity:1;fill-rule:nonzero;stroke:none"
                 d="m 0,0 c -0.441,0.464 -1.188,1.31 -2.172,3.969 -0.557,1.501 -0.797,3.51 -0.797,3.51 0,0 -0.836,1.725 -1.322,5.628 -0.18,1.438 -0.034,2.626 0.228,3.577 3.467,-1.96 10.653,-6.039 12.223,-7.085 2.086,-1.391 4.969,-4.771 7.252,-9.139 0.857,-1.641 -0.793,5.364 -0.994,6.06 -0.182,0.635 4.006,-6.263 6.758,-7.649 10.627,-5.367 33.576,-17.187 33.576,-17.187 0,0 16.191,-6.89 22.055,-14.307 2.007,-2.539 7.081,-11.516 10.459,-16.008 1.921,-2.553 3.709,-3.561 6.195,-4.356 -3.231,0.447 -5.744,1.449 -6.148,1.657 -1.919,0.992 -3.252,3.905 -3.252,3.905 0,0 -1.195,2.684 -5.069,9.934 -3.875,7.253 -11.324,11.226 -13.809,11.524 -0.276,0.034 -0.554,0.044 -0.835,0.034 -2.375,0.098 -4.952,-1.295 -4.859,-4.536 0.111,-3.906 1.29,-5.475 1.853,-7.022 0.253,-0.692 0.069,-0.934 -0.191,-0.998 -0.154,0.026 -0.273,0.072 -0.273,0.072 l -10.792,6.093 c -7.155,3.775 -28.614,16.689 -28.614,16.689 -3.575,2.085 -4.468,4.322 -4.468,4.322 0,0 -1.091,1.189 -3.578,6.107 C 10.941,-0.286 7.619,3.144 4.634,4.48 3.8,4.856 3.064,4.993 2.437,4.955 0.656,5.058 -0.352,3.828 -0.25,2.246 -0.185,1.217 -0.069,0.462 0,0" />
            </g>
          </g>
        </g>
      </g>
      <g
         id="g1426">
        <g
           id="g1428" />
        <g
           id="g1440">
          <g
             style="opacity:0.46000701"
             id="g1438"
             clip-path="url(#clipPath1432-8)">
            <g
               id="g1436"
               transform="translate(2479.71,3283.894)">
              <path
                 inkscape:connector-curvature="0"
                 id="path1434"
                 style="fill:#890239;fill-opacity:1;fill-rule:nonzero;stroke:none"
                 d="m 0,0 c 12.232,-0.611 17.069,-3.226 22.166,-5.974 12.926,-6.976 40.022,-22.438 51.149,-29.192 9.209,-5.591 13.51,-8.444 16.291,-13.114 2.784,-4.67 3.577,-11.459 3.577,-12.65 0,-1.191 0.532,-7.019 -0.162,-10.099 -0.699,-3.081 -5.253,-9.113 -12.554,-14.007 -4.89,-3.277 -10.816,-6.109 -16.489,-8.148 2.584,1.987 1.291,7.87 0.332,10.4 -1.791,4.702 -3.909,9.006 -6.094,12.648 -3.049,5.084 -8.501,6.917 -22.851,10.731 -15.696,4.171 -29.8,8.543 -29.8,8.543 -8.941,2.979 -37.64,17.743 -46.496,24.437 -6.249,4.727 -7.234,8.05 -6.548,10.595 7.019,6.501 21.684,11.715 26.021,13.05 C -17.956,-1.705 -8.949,0.449 0,0" />
            </g>
          </g>
        </g>
      </g>
      <g
         transform="translate(2480.1572,3231.6914)"
         id="g1442">
        <path
           inkscape:connector-curvature="0"
           id="path1444"
           style="fill:#394b5b;fill-opacity:1;fill-rule:nonzero;stroke:none"
           d="m 0,0 c 0,0 -26.288,13.595 -29.786,15.711 -5.695,3.446 -10.728,7.153 -11.92,9.274 -0.528,0.929 -3.047,7.415 9.401,12.847 12.453,5.431 27.79,10.939 39.807,9.404 C 16.836,46.043 26.11,41.146 33.728,36.508 40.66,32.287 51.012,26.705 49.952,25.118 48.895,23.527 30.615,12.135 22.003,8.427 13.395,4.718 0,0 0,0" />
      </g>
      <g
         transform="translate(2480.457,3232.2876)"
         id="g1446">
        <path
           inkscape:connector-curvature="0"
           id="path1448"
           style="fill:#778791;fill-opacity:1;fill-rule:nonzero;stroke:none"
           d="m 0,0 c 0,0 -25.678,13.298 -29.072,15.351 -5.523,3.34 -10.407,6.936 -11.564,8.994 -0.507,0.902 -2.95,7.194 9.122,12.46 12.078,5.266 26.953,10.608 38.604,9.122 C 16.148,44.769 25.14,40.015 32.527,35.519 39.252,31.426 49.293,26.014 48.268,24.473 47.236,22.931 29.508,11.882 21.156,8.286 12.809,4.688 0,0 0,0" />
      </g>
      <g
         transform="translate(2484.2061,3232.4854)"
         id="g1450">
        <path
           inkscape:connector-curvature="0"
           id="path1452"
           style="fill:#394b5b;fill-opacity:1;fill-rule:nonzero;stroke:none"
           d="m 0,0 c 0,0 -26.556,13.795 -29.001,16.243 -0.596,0.594 -0.049,2.632 -1.639,4.221 -1.745,1.745 -2.186,2.037 -3.08,3.38 -0.501,0.748 -2.677,4.071 6.707,7.697 5.635,2.178 15.397,6.159 21.507,8.145 6.426,2.092 11.48,2.087 15.745,0.797 7.55,-2.287 12.488,-5.166 20.266,-8.942 6.176,-2.995 13.81,-7.696 12.916,-9.04 C 42.524,21.157 25.368,11.23 18.091,8.095 10.81,4.96 0,0 0,0" />
      </g>
      <g
         id="g1454">
        <g
           id="g1456" />
        <g
           id="g1468">
          <g
             style="opacity:0.39999396"
             id="g1466"
             clip-path="url(#clipPath1460-6)">
            <g
               id="g1464"
               transform="translate(2572.8389,3223.8218)">
              <path
                 inkscape:connector-curvature="0"
                 id="path1462"
                 style="fill:#530c29;fill-opacity:1;fill-rule:nonzero;stroke:none"
                 d="m 0,0 c 0.038,-0.389 0.054,-0.683 0.054,-0.857 0,-1.139 0.486,-6.518 -0.082,-9.679 -0.112,-0.053 -0.222,-0.109 -0.341,-0.16 -3.073,-1.382 -3.45,0.997 -3.45,0.997 -0.43,1.06 -1.125,4.935 -0.33,5.861 C -3.104,-2.619 -2.21,-1.77 0,0" />
            </g>
          </g>
        </g>
      </g>
      <g
         transform="translate(2572.8994,3222.6768)"
         id="g1470">
        <path
           inkscape:connector-curvature="0"
           id="path1472"
           style="fill:#394b5b;fill-opacity:1;fill-rule:nonzero;stroke:none"
           d="m 0,0 c 0.052,-1.458 0.39,-5.796 0.008,-8.767 -2.202,-0.852 -2.929,0.115 -2.929,0.115 -0.693,1.324 -1.192,4.999 -0.528,5.727 C -2.618,-2.007 -1.664,-1.152 0,0" />
      </g>
      <g
         transform="translate(2568.1934,3235.1724)"
         id="g1474">
        <path
           inkscape:connector-curvature="0"
           id="path1476"
           style="fill:#9aa8b7;fill-opacity:1;fill-rule:nonzero;stroke:none"
           d="M 0,0 C 0.511,0.101 1.058,-0.042 1.581,-0.381 2.808,-2.724 3.593,-5.447 4.07,-7.71 3.625,-9.398 2.51,-10.736 1.094,-11.132 -0.869,-11.682 -2.724,-9.531 -3.021,-6.459 -3.328,-3.385 -1.982,-0.384 0,0" />
      </g>
      <g
         transform="translate(2566.5723,3234.2466)"
         id="g1478">
        <path
           inkscape:connector-curvature="0"
           id="path1480"
           style="fill:#63022e;fill-opacity:1;fill-rule:nonzero;stroke:none"
           d="M 0,0 C 0.423,0.432 0.949,0.818 1.611,0.948 2.139,1.057 2.688,0.897 3.157,0.631 3.189,0.571 3.22,0.514 3.253,0.454 2.796,0.791 2.201,1.015 1.628,0.905 0.979,0.771 0.471,0.381 0.108,-0.074 c -0.359,-0.46 -0.614,-0.979 -0.807,-1.514 -0.36,-1.076 -0.523,-2.205 -0.523,-3.346 0,-1.142 0.161,-2.316 0.734,-3.402 0.287,-0.538 0.685,-1.047 1.222,-1.417 0.52,-0.385 1.228,-0.527 1.821,-0.363 0.603,0.163 1.107,0.507 1.522,0.91 0.411,0.408 0.727,0.887 0.968,1.391 0.251,0.533 0.417,1.099 0.502,1.68 C 5.641,-6.541 5.722,-6.938 5.799,-7.316 5.714,-7.549 5.616,-7.782 5.499,-8.006 5.23,-8.54 4.861,-9.037 4.388,-9.457 c -0.464,-0.42 -1.062,-0.755 -1.742,-0.896 -0.339,-0.074 -0.719,-0.062 -1.072,0.027 -0.349,0.09 -0.672,0.253 -0.953,0.453 -0.558,0.407 -0.95,0.941 -1.26,1.484 -0.621,1.09 -0.944,2.293 -1.021,3.477 -0.063,1.183 0.138,2.371 0.653,3.436 C -0.746,-0.943 -0.425,-0.436 0,0" />
      </g>
      <g
         id="g1482">
        <g
           id="g1484" />
        <g
           id="g1496">
          <g
             style="opacity:0.58999598"
             id="g1494"
             clip-path="url(#clipPath1488-6)">
            <g
               id="g1492"
               transform="translate(2568.8721,3235.2153)">
              <path
                 inkscape:connector-curvature="0"
                 id="path1490"
                 style="fill:#f5f5f5;fill-opacity:1;fill-rule:nonzero;stroke:none"
                 d="M 0,0 C -1.222,0.214 -2.421,-1.178 -2.661,-2.971 -2.897,-4.761 -2.095,-6.37 -0.862,-6.486 0.52,-6.618 1.786,-5.317 1.8,-3.518 1.811,-1.647 0.966,-0.167 0,0" />
            </g>
          </g>
        </g>
      </g>
      <g
         transform="translate(2558.9082,3227.3486)"
         id="g1498">
        <path
           inkscape:connector-curvature="0"
           id="path1500"
           style="fill:#394b5b;fill-opacity:1;fill-rule:nonzero;stroke:none"
           d="m 0,0 c 0,0 2.677,1.433 3.843,-1.17 0.985,-2.196 1.714,-5.984 1.714,-6.569 0,-0.586 0.523,-1.533 -0.958,-3.057 -5.694,-5.855 -16.461,-9.562 -17.559,-9.822 -1.099,-0.261 -2.605,0 -3.84,1.884 -1.235,1.889 -2.471,4.49 -2.471,4.49 0,0 -1.231,2.537 1.304,4.228 C -15.063,-8.081 0,0 0,0" />
      </g>
      <g
         transform="translate(2559.1133,3227.0103)"
         id="g1502">
        <path
           inkscape:connector-curvature="0"
           id="path1504"
           style="fill:#bfc9d6;fill-opacity:1;fill-rule:nonzero;stroke:none"
           d="m 0,0 c -0.152,-0.082 -15.082,-8.095 -17.935,-9.996 -2.218,-1.477 -1.211,-3.655 -1.164,-3.749 0.011,-0.027 1.238,-2.602 2.443,-4.444 0.765,-1.168 1.722,-1.787 2.768,-1.787 0.21,0 0.416,0.026 0.624,0.073 1.219,0.293 11.778,3.976 17.353,9.711 1.078,1.109 0.978,1.813 0.892,2.378 -0.02,0.144 -0.038,0.277 -0.038,0.413 0,0.539 -0.738,4.304 -1.684,6.418 C 2.86,-0.091 2.251,0.342 1.4,0.342 0.656,0.342 0.004,0.001 0,0 m -17.357,-18.6 c -1.233,1.888 -2.446,4.427 -2.492,4.53 -0.014,0.03 -1.348,2.856 1.44,4.712 2.886,1.924 17.388,9.706 18.005,10.037 0.032,0.02 0.837,0.442 1.804,0.442 0.823,0 1.948,-0.309 2.617,-1.8 1.004,-2.238 1.746,-6.061 1.746,-6.722 0,-0.093 0.018,-0.192 0.034,-0.304 0.092,-0.612 0.242,-1.636 -1.104,-3.016 -5.705,-5.87 -16.509,-9.641 -17.757,-9.937 -0.271,-0.064 -0.547,-0.096 -0.824,-0.096 -0.94,0 -2.3,0.371 -3.469,2.154" />
      </g>
      <g
         transform="translate(2567.6621,3212.1201)"
         id="g1506">
        <path
           inkscape:connector-curvature="0"
           id="path1508"
           style="fill:#394b5b;fill-opacity:1;fill-rule:nonzero;stroke:none"
           d="m 0,0 c 0,0 0.794,0.653 0.842,-0.894 0.054,-1.539 -0.346,-2.882 -0.346,-2.882 0,0 -1.958,-4.081 -12.665,-10.231 -4.668,-2.682 -9.126,-4.316 -10.78,-4.917 -1.639,-0.597 -3.212,-0.796 -3.212,-0.796 0,0 -1.986,-0.398 -2.699,0.695 -0.677,1.041 -1.836,2.634 0.4,3.18 2.763,0.674 10.127,2.76 17.779,7.153 C -4.619,-5.216 0,0 0,0" />
      </g>
      <g
         transform="translate(2564.5254,3214.2241)"
         id="g1510">
        <path
           inkscape:connector-curvature="0"
           id="path1512"
           style="fill:#bfc9d6;fill-opacity:1;fill-rule:nonzero;stroke:none"
           d="m 0,0 c 0,0 0.304,0.221 0.354,-0.116 0.1,-0.69 0.215,-2.462 0.215,-3.183 0.002,-0.388 -0.148,-0.52 -0.148,-0.52 0,0 -2.607,-2.745 -6.622,-5.239 0,0 -2.794,-1.822 -5.01,-2.908 -2.068,-1.015 -4.129,-1.917 -4.858,-2.104 -0.343,-0.085 -0.326,0.286 -0.326,0.286 l -0.049,3.432 c 0,0 -0.052,0.337 0.214,0.45 1.07,0.455 5.553,2.422 8.884,4.519 C -2.396,-2.269 0,0 0,0" />
      </g>
      <g
         transform="translate(2436.7275,3241.0605)"
         id="g1514">
        <path
           inkscape:connector-curvature="0"
           id="path1516"
           style="fill:#10212d;fill-opacity:1;fill-rule:nonzero;stroke:none"
           d="M 0,0 C 0.048,-0.038 0.097,-0.086 0.144,-0.127 0.123,-0.776 0.058,-1.869 -0.149,-3.36 -0.498,-5.892 -1.19,-4.697 -1.19,-4.697 c 0,0 -0.399,2.082 -0.697,4.217 -0.121,0.868 -0.108,1.305 -0.055,1.523 0.294,-0.05 0.584,-0.126 0.804,-0.216 C -0.776,0.593 -0.402,0.323 0,0" />
      </g>
      <g
         transform="translate(2431.0234,3238.5215)"
         id="g1518">
        <path
           inkscape:connector-curvature="0"
           id="path1520"
           style="fill:#10212d;fill-opacity:1;fill-rule:nonzero;stroke:none"
           d="M 0,0 C 0.223,1.64 1.15,2.955 2.095,3.401 2.393,2.059 3.336,-1.268 4.016,-2.511 5.242,-4.753 3.52,-3.106 3.52,-3.106 c 0,0 -1.291,0.745 -2.435,1.889 C 0.711,-0.844 0.316,-0.383 0,0" />
      </g>
      <g
         transform="translate(2430.9922,3236.605)"
         id="g1522">
        <path
           inkscape:connector-curvature="0"
           id="path1524"
           style="fill:#10212d;fill-opacity:1;fill-rule:nonzero;stroke:none"
           d="m 0,0 c 1.166,-0.771 2.834,-1.771 4.311,-2.258 2.427,-0.8 0.131,-0.273 0.131,-0.273 0,0 -1.44,-0.529 -3.022,-0.37 C 1.153,-2.873 0.867,-2.834 0.583,-2.792 0.275,-1.849 0.076,-0.902 0,0" />
      </g>
      <g
         transform="translate(2432.209,3232.2178)"
         id="g1526">
        <path
           inkscape:connector-curvature="0"
           id="path1528"
           style="fill:#10212d;fill-opacity:1;fill-rule:nonzero;stroke:none"
           d="m 0,0 c 1.785,0.473 2.973,0.8 3.129,0.888 0.315,0.174 0.016,-0.472 0.016,-0.472 0,0 -0.889,-1.307 -1.959,-2.403 C 0.739,-1.381 0.339,-0.712 0,0" />
      </g>
      <g
         transform="translate(2434.2129,3229.2573)"
         id="g1530">
        <path
           inkscape:connector-curvature="0"
           id="path1532"
           style="fill:#10212d;fill-opacity:1;fill-rule:nonzero;stroke:none"
           d="m 0,0 c 0.694,1.241 1.47,3.02 1.539,3.179 0.398,0.894 0.494,-0.05 0.494,-0.05 0,0 0.051,-2.136 0.547,-5.216 C 1.341,-1.54 0.641,-0.731 0,0" />
      </g>
      <g
         transform="translate(2436.5459,3232.3867)"
         id="g1534">
        <path
           inkscape:connector-curvature="0"
           id="path1536"
           style="fill:#10212d;fill-opacity:1;fill-rule:nonzero;stroke:none"
           d="m 0,0 c -0.069,0.733 0.299,0 0.299,0 0,0 2.739,-3.091 3.423,-3.775 C 3.982,-4.036 4.3,-4.337 4.386,-4.443 3.995,-4.882 3.524,-5.209 3.028,-5.381 2.584,-5.536 2.105,-5.571 1.618,-5.51 0.577,-2.952 0.021,-0.227 0,0" />
      </g>
      <g
         transform="translate(2436.793,3233.2314)"
         id="g1538">
        <path
           inkscape:connector-curvature="0"
           id="path1540"
           style="fill:#10212d;fill-opacity:1;fill-rule:nonzero;stroke:none"
           d="m 0,0 c 0,0 3.283,-0.795 4.771,-1.045 0.17,-0.619 0.22,-0.915 0.292,-1.406 0.029,-0.355 0.014,-0.696 -0.042,-1.02 -2.502,1.309 -4.185,2.67 -4.393,2.76 C -1.577,0.255 0,0 0,0" />
      </g>
      <g
         transform="translate(2441.0605,3233.8394)"
         id="g1542">
        <path
           inkscape:connector-curvature="0"
           id="path1544"
           style="fill:#10212d;fill-opacity:1;fill-rule:nonzero;stroke:none"
           d="m 0,0 c -2.091,-0.042 -3.58,0.14 -3.768,0.114 -2.38,-0.334 -0.996,0.269 -0.996,0.269 0,0 1.989,0.795 3.996,1.558 C -0.481,1.288 -0.224,0.635 0,0" />
      </g>
      <g
         transform="translate(2435.9131,3235.1924)"
         id="g1546">
        <path
           inkscape:connector-curvature="0"
           id="path1548"
           style="fill:#10212d;fill-opacity:1;fill-rule:nonzero;stroke:none"
           d="M 0,0 C 0,0 1.701,2.329 2.647,3.782 3.034,3.211 3.276,2.857 3.611,2.211 2.519,1.266 0.923,0.132 0.782,0.026 -1.126,-1.445 0,0 0,0" />
      </g>
      <g
         id="g1550">
        <g
           id="g1552" />
        <g
           id="g1564">
          <g
             style="opacity:0.47999597"
             id="g1562"
             clip-path="url(#clipPath1556-5)">
            <g
               id="g1560"
               transform="translate(2527.959,3222.667)">
              <path
                 inkscape:connector-curvature="0"
                 id="path1558"
                 style="fill:#530c29;fill-opacity:1;fill-rule:nonzero;stroke:none"
                 d="m 0,0 c 0,0 -0.597,0.265 -5.795,2.019 -4.9,1.656 -6.82,2.153 -6.82,2.153 0,0 -2.619,0.663 -4.904,0.496 -1.227,-0.088 -3.142,-0.33 -2.549,-0.993 0.596,-0.663 4.868,-1.39 9.638,-2.913 4.768,-1.523 5.847,-1.633 6.953,-1.922 1.391,-0.364 2.88,-0.032 2.88,-0.032 0,0 2.349,0.365 0.597,1.192" />
            </g>
          </g>
        </g>
      </g>
      <g
         transform="translate(2526.4697,3222.2378)"
         id="g1566">
        <path
           inkscape:connector-curvature="0"
           id="path1568"
           style="fill:#394b5b;fill-opacity:1;fill-rule:nonzero;stroke:none"
           d="m 0,0 c 0,0 -3.216,1.053 -6.756,2.251 -3.339,1.127 -4.705,1.456 -4.705,1.456 0,0 -0.956,0.312 -2.515,0.199 -0.836,-0.062 -0.727,-0.465 -0.031,-0.595 0.594,-0.114 3.152,-0.857 6.424,-1.823 1.59,-0.468 2.81,-0.786 4.898,-1.457 0.932,-0.298 2.013,-0.475 2.013,-0.475 0,0 1.796,0.146 0.672,0.444" />
      </g>
      <g
         id="g1570">
        <g
           id="g1572" />
        <g
           id="g1584">
          <g
             style="opacity:0.47999597"
             id="g1582"
             clip-path="url(#clipPath1576-2)">
            <g
               id="g1580"
               transform="translate(2556.1699,3237.4038)">
              <path
                 inkscape:connector-curvature="0"
                 id="path1578"
                 style="fill:#530c29;fill-opacity:1;fill-rule:nonzero;stroke:none"
                 d="m 0,0 c 0,0 0,0.925 -0.792,1.953 -1.009,1.304 -5.896,6.059 -6.396,6.489 -0.494,0.43 -1.552,1.358 -2.016,1.392 -0.464,0.032 -0.861,-0.333 -0.894,-0.991 -0.035,-0.665 0.032,-1.161 1.389,-2.487 1.441,-1.406 6.725,-6.455 6.725,-6.455 0,0 0.893,-0.895 1.421,-0.862 C -0.031,-0.93 -0.032,-0.2 0,0" />
            </g>
          </g>
        </g>
      </g>
      <g
         transform="translate(2555.1113,3238.229)"
         id="g1586">
        <path
           inkscape:connector-curvature="0"
           id="path1588"
           style="fill:#394b5b;fill-opacity:1;fill-rule:nonzero;stroke:none"
           d="m 0,0 c 0,0 -6.293,6.659 -6.721,7.022 -0.428,0.363 -1.561,1.023 -1.591,0.464 -0.029,-0.561 0.353,-0.902 1.524,-2.021 1.245,-1.188 6.027,-5.861 6.027,-5.861 0,0 0.594,-0.696 0.992,-0.663 C 0.689,-1.02 0.398,-0.496 0,0" />
      </g>
      <g
         transform="translate(2497.7383,3250.019)"
         id="g1590">
        <path
           inkscape:connector-curvature="0"
           id="path1592"
           style="fill:#4b5f6b;fill-opacity:1;fill-rule:nonzero;stroke:none"
           d="m 0,0 c 0,0 -6.22,16.292 -8.54,19.771 -1.285,1.925 -3.819,5.174 -4.67,5.961 -1.29,1.19 -3.518,2.139 -4.968,1.588 -2.483,-0.944 -3.973,-1.69 -4.419,-3.777 -0.282,-1.295 -0.512,-2.681 -0.316,-3.012 0.915,-1.525 1.755,-2.549 2.648,-5.032 0.896,-2.484 4.472,-13.81 4.472,-13.81 l -10.453,-5.534 6.976,-8.554 8.688,3.816 c 0,0 9.393,3.32 10.582,8.583" />
      </g>
      <g
         transform="translate(2449.4063,3258.3813)"
         id="g1594">
        <path
           inkscape:connector-curvature="0"
           id="path1596"
           style="fill:#4b5f6b;fill-opacity:1;fill-rule:nonzero;stroke:none"
           d="M 0,0 C 0.044,1.145 0.391,3.475 0.598,4.437 1.042,6.523 2.811,7.56 5.352,8.328 7.263,8.904 8.954,8.06 10.396,6.665 c 1.311,-1.31 4.118,-5.099 4.738,-6.114 2.429,-3.925 8.647,-20.337 8.647,-20.337 -0.021,-0.089 -0.044,-0.169 -0.07,-0.247 C 16.115,-15.959 5.844,-10.331 4.476,-8.958 3.879,-8.362 3.879,-5.83 2.29,-4.239 0.548,-2.494 1.654,-3.776 0.551,-2.601 -0.194,-1.805 -0.006,-0.18 0,0" />
      </g>
      <g
         id="g1598">
        <g
           id="g1600" />
        <g
           id="g1612">
          <g
             style="opacity:0.47999597"
             id="g1610"
             clip-path="url(#clipPath1604-4)">
            <g
               id="g1608"
               transform="translate(2431.3721,3259.8804)">
              <path
                 inkscape:connector-curvature="0"
                 id="path1606"
                 style="fill:#530c29;fill-opacity:1;fill-rule:nonzero;stroke:none"
                 d="M 0,0 C -0.508,0.626 -0.943,1.294 -1.353,1.978 -1.741,2.636 -2.1,3.309 -2.44,3.991 c 0.025,0.03 0.047,0.061 0.07,0.09 0.379,-0.68 0.768,-1.349 1.185,-1.998 0.435,-0.66 0.894,-1.302 1.412,-1.891 0.517,-0.576 1.105,-1.12 1.676,-1.663 1.155,-1.078 2.349,-2.113 3.604,-3.059 0.628,-0.467 1.273,-0.919 1.941,-1.271 0.317,-0.168 0.679,-0.283 0.893,-0.229 0.099,0.027 0.148,0.07 0.204,0.167 0.052,0.091 0.091,0.259 0.088,0.378 L 9.429,-5.494 C 9.414,-5.771 9.356,-6 9.21,-6.252 9.073,-6.5 8.78,-6.718 8.486,-6.759 8.191,-6.812 7.942,-6.756 7.721,-6.688 7.5,-6.615 7.302,-6.517 7.117,-6.414 6.397,-5.994 5.763,-5.503 5.137,-4.998 3.901,-3.981 2.742,-2.887 1.626,-1.755 1.069,-1.182 0.518,-0.625 0,0" />
            </g>
          </g>
        </g>
      </g>
      <g
         transform="translate(2450.8848,3239.041)"
         id="g1614">
        <path
           inkscape:connector-curvature="0"
           id="path1616"
           style="fill:#394b5b;fill-opacity:1;fill-rule:nonzero;stroke:none"
           d="M 0,0 C 0,0 1.381,-0.819 1.785,0.2 2.184,1.193 1.094,2.435 -0.398,3.23 -1.814,3.983 -3.076,3.23 -2.334,1.887 -1.591,0.548 0,0 0,0" />
      </g>
      <g
         transform="translate(2451.6611,3240.4175)"
         id="g1618">
        <path
           inkscape:connector-curvature="0"
           id="path1620"
           style="fill:#9aa8b7;fill-opacity:1;fill-rule:nonzero;stroke:none"
           d="m 0,0 c -1.108,0.259 -2.42,1.256 -2.464,1.705 -0.049,0.43 0.625,0.43 0.625,0.43 0,0 -1.369,0.546 -2.119,-0.183 -0.605,-0.591 0,-1.54 1.244,-2.435 1.241,-0.893 3.183,-1.604 3.629,-0.958 0.223,0.322 0.223,0.471 0.176,0.821 C 1.041,-0.264 0.421,-0.1 0,0" />
      </g>
      <g
         transform="translate(2556.2158,3211.4063)"
         id="g1622">
        <path
           inkscape:connector-curvature="0"
           id="path1624"
           style="fill:#bfc9d6;fill-opacity:1;fill-rule:nonzero;stroke:none"
           d="M 0,0 0.373,0.136 C 0.35,0.202 -2.03,6.734 -3.313,9.199 L -4.605,11.682 -4.958,11.5 -3.665,9.017 C -2.394,6.573 -0.023,0.067 0,0" />
      </g>
      <g
         transform="translate(2541.7217,3210.022)"
         id="g1626">
        <path
           inkscape:connector-curvature="0"
           id="path1628"
           style="fill:#bfc9d6;fill-opacity:1;fill-rule:nonzero;stroke:none"
           d="M 0,0 0.73,0.788 1.767,0.283 1.028,-0.507 Z M 1.216,-0.597 1.953,0.192 2.986,-0.31 2.247,-1.106 Z m 1.216,-0.6 0.74,0.797 1.036,-0.503 -0.746,-0.802 z M 3.649,-1.794 4.396,-0.995 5.428,-1.498 4.68,-2.304 Z m 1.92,0.448 -1.032,0.503 0.784,0.841 1.036,-0.503 z M 5.76,-1.438 6.542,-0.596 7.575,-1.097 6.793,-1.941 Z M 7.715,-0.946 6.682,-0.443 7.466,0.397 8.5,-0.105 Z M 8.642,0.047 7.607,0.55 8.394,1.39 9.425,0.888 Z m 0.189,-0.09 0.783,0.841 1.032,-0.504 -0.782,-0.84 z m 1.957,0.49 -1.034,0.502 0.786,0.843 1.032,-0.504 z m 0.926,0.994 -1.032,0.5 0.78,0.842 1.035,-0.502 z m 0.187,-0.091 0.784,0.841 1.034,-0.505 -0.782,-0.84 z m 1.958,0.489 -1.034,0.503 0.786,0.843 1.034,-0.503 z m 0.927,0.994 -1.035,0.504 0.784,0.84 1.036,-0.503 z M 14.974,2.741 15.755,3.584 16.79,3.08 16.009,2.239 Z m 1.957,0.492 -1.034,0.501 0.784,0.842 1.034,-0.502 z m 0.928,0.996 -1.034,0.5 0.783,0.841 1.034,-0.502 z m 0.925,0.991 -1.035,0.502 0.784,0.842 1.034,-0.502 z m 0.926,0.994 -1.035,0.502 0.785,0.841 1.033,-0.504 z m 0.924,0.994 -1.034,0.5 0.784,0.843 1.033,-0.504 z M 21.562,8.2 20.524,8.703 21.31,9.543 22.344,9.04 Z m -0.298,1.585 -1.035,0.504 0.783,0.844 1.036,-0.504 z m -0.296,1.588 -1.037,0.503 0.787,0.84 1.032,-0.5 z m -0.296,1.587 -1.032,0.504 0.781,0.841 1.035,-0.503 z m -0.296,1.587 -1.034,0.504 0.783,0.84 1.034,-0.502 z m -0.437,1.436 -0.785,-0.839 -1.033,0.501 0.784,0.841 z m -1.219,0.592 -0.784,-0.84 -1.036,0.503 0.784,0.841 z m -1.961,-0.489 1.035,-0.504 -0.782,-0.84 -1.038,0.503 z m -0.925,-0.995 1.033,-0.501 -0.782,-0.84 -1.034,0.501 z m -0.187,0.092 -0.786,-0.841 -1.031,0.502 0.781,0.842 z m -1.958,-0.487 1.029,-0.506 -0.781,-0.842 -1.033,0.505 z M 12.76,13.7 l 1.037,-0.504 -0.784,-0.84 -1.034,0.503 z m -0.925,-0.993 1.035,-0.503 -0.783,-0.84 -1.033,0.501 z m -0.185,0.091 -0.784,-0.843 -1.033,0.503 0.781,0.841 z M 9.689,12.308 10.727,11.804 9.94,10.964 8.907,11.466 Z M 8.767,11.314 9.802,10.811 9.016,9.97 7.983,10.471 Z m -0.188,0.09 -0.786,-0.841 -1.032,0.503 0.786,0.841 z M 6.62,10.916 7.654,10.411 6.869,9.569 5.837,10.074 Z M 5.694,9.92 6.728,9.417 5.942,8.576 4.909,9.08 Z M 4.767,8.926 5.802,8.423 5.018,7.582 3.985,8.086 Z M 4.58,9.017 3.798,8.177 2.761,8.678 3.548,9.521 Z M 2.622,8.528 3.657,8.025 2.873,7.184 1.838,7.685 Z M 1.698,7.535 2.73,7.031 1.948,6.19 0.912,6.693 Z M 0.771,6.541 1.805,6.038 1.023,5.196 -0.015,5.699 Z M 0.585,6.632 -0.2,5.788 -1.233,6.294 -0.452,7.135 Z M -1.378,6.14 -0.342,5.638 -1.126,4.797 -2.159,5.3 Z M -1.083,4.555 -0.046,4.051 -0.83,3.211 -1.862,3.713 Z M -0.784,2.968 0.251,2.464 -0.534,1.623 -1.568,2.127 Z M 1.904,0.435 0.873,0.939 1.658,1.78 2.691,1.278 Z M 3.128,-0.159 2.093,0.345 2.877,1.186 3.911,0.683 Z M 5.133,0.09 4.351,-0.751 3.313,-0.25 4.1,0.593 Z M 5.273,0.243 4.239,0.745 5.026,1.586 6.06,1.082 Z M 7.278,0.49 6.496,-0.352 5.462,0.151 6.245,0.993 Z M 8.202,1.483 7.421,0.641 6.39,1.143 7.17,1.985 Z M 8.346,1.634 7.312,2.137 8.095,2.979 9.132,2.478 Z M 10.35,1.882 9.566,1.04 8.532,1.543 9.317,2.385 Z M 11.277,2.873 10.495,2.035 9.457,2.536 10.244,3.378 Z M 11.42,3.026 10.384,3.531 11.167,4.373 12.2,3.868 Z m 2.002,0.25 -0.783,-0.843 -1.035,0.501 0.786,0.845 z m 0.925,0.993 -0.784,-0.843 -1.032,0.504 0.783,0.842 z m 0.144,0.15 -1.035,0.502 0.785,0.843 1.034,-0.503 z M 16.496,4.668 15.713,3.827 14.675,4.33 15.46,5.17 Z m 0.926,0.992 -0.784,-0.84 -1.036,0.504 0.786,0.84 z m 0.925,0.995 -0.784,-0.841 -1.038,0.502 0.787,0.842 z m 0.925,0.993 -0.783,-0.84 -1.037,0.501 0.785,0.843 z m 0.926,0.995 -0.788,-0.842 -1.033,0.501 0.786,0.844 z m -0.111,1.495 1.033,-0.504 -0.783,-0.84 -1.033,0.502 z m -0.295,1.587 1.033,-0.503 -0.783,-0.841 -1.034,0.501 z m -0.297,1.586 1.037,-0.501 -0.786,-0.843 -1.031,0.503 z m -0.294,1.586 1.034,-0.501 -0.783,-0.842 -1.035,0.504 z m -2.005,-0.247 0.784,0.844 1.031,-0.505 -0.782,-0.842 z m -0.925,-0.992 0.783,0.842 1.035,-0.504 -0.784,-0.842 z m -0.142,-0.152 1.036,-0.504 -0.785,-0.841 -1.033,0.504 z m -2.007,-0.248 0.787,0.842 1.035,-0.504 -0.784,-0.839 z m -0.925,-0.994 0.786,0.842 1.034,-0.503 -0.783,-0.841 z m -0.922,-0.993 0.784,0.843 1.031,-0.504 -0.782,-0.84 z m -0.143,-0.151 1.033,-0.504 -0.784,-0.84 -1.03,0.503 z m -2.005,-0.248 0.784,0.84 1.036,-0.502 -0.785,-0.842 z M 9.204,9.878 9.988,10.721 11.019,10.217 10.235,9.375 Z M 9.06,9.727 10.094,9.223 9.311,8.383 8.274,8.887 Z M 7.058,9.479 7.839,10.321 8.874,9.818 8.089,8.976 Z M 6.129,8.485 6.916,9.327 7.948,8.824 7.163,7.983 Z M 5.205,7.493 5.989,8.333 7.022,7.832 6.24,6.989 Z M 5.065,7.34 6.099,6.837 5.315,5.994 4.276,6.499 Z M 3.058,7.092 3.842,7.933 4.878,7.431 4.091,6.588 Z M 2.134,6.1 2.917,6.94 3.952,6.437 3.165,5.596 Z M 1.208,5.106 1.989,5.947 3.025,5.443 2.242,4.604 Z M 1.065,4.953 2.1,4.45 1.317,3.61 0.284,4.112 Z M 0.095,4.201 -0.938,4.706 -0.156,5.547 0.88,5.043 Z M 0.391,2.614 -0.644,3.12 0.141,3.96 1.177,3.458 Z M 1.612,2.021 0.577,2.525 1.361,3.366 2.395,2.864 Z M 2.832,1.429 1.799,1.933 2.581,2.772 3.616,2.27 Z M 4.839,1.676 4.054,0.834 3.017,1.338 3.801,2.18 Z M 4.979,1.829 3.943,2.331 4.729,3.173 5.764,2.669 Z M 6.983,2.076 6.2,1.236 5.166,1.738 5.951,2.579 Z M 7.909,3.07 7.124,2.229 6.091,2.732 6.875,3.574 Z M 8.05,3.221 7.017,3.725 7.8,4.566 8.834,4.062 Z m 2.008,0.247 -0.787,-0.84 -1.034,0.503 0.784,0.84 z m 0.923,0.995 -0.785,-0.842 -1.034,0.504 0.787,0.84 z m 0.143,0.151 -1.034,0.504 0.784,0.841 1.034,-0.504 z m 2.002,0.247 -0.78,-0.84 -1.034,0.503 0.78,0.841 z m 0.927,0.995 -0.782,-0.843 -1.034,0.505 0.781,0.839 z M 14.196,6.007 13.16,6.51 13.946,7.352 14.979,6.849 Z M 16.2,6.256 15.415,5.415 14.38,5.917 15.167,6.758 Z m 0.924,0.993 -0.781,-0.843 -1.036,0.504 0.785,0.841 z m 0.924,0.993 -0.781,-0.84 -1.036,0.503 0.786,0.84 z m 0.927,0.994 -0.783,-0.841 -1.035,0.501 0.786,0.843 z m -0.107,1.495 1.032,-0.504 -0.782,-0.84 -1.035,0.502 z m -0.298,1.588 1.034,-0.505 -0.783,-0.84 -1.036,0.504 z m -1.077,0.744 0.783,0.842 1.034,-0.504 -0.784,-0.839 z m -0.926,-0.994 0.783,0.842 1.034,-0.5 -0.785,-0.844 z m -0.141,-0.151 1.033,-0.502 -0.784,-0.842 -1.035,0.504 z m -2.005,-0.247 0.782,0.841 1.033,-0.502 -0.783,-0.841 z m -0.927,-0.993 0.784,0.842 1.036,-0.503 -0.786,-0.842 z m -0.923,-0.992 0.782,0.839 1.036,-0.502 -0.786,-0.841 z M 12.427,9.535 13.463,9.029 12.681,8.189 11.644,8.691 Z m -2.005,-0.25 0.786,0.841 1.033,-0.502 -0.784,-0.841 z M 9.498,8.292 10.283,9.133 11.314,8.63 10.53,7.789 Z M 9.357,8.14 10.389,7.638 9.607,6.796 8.571,7.298 Z M 7.352,7.894 8.136,8.733 9.17,8.229 8.385,7.389 Z M 6.427,6.898 7.208,7.739 8.245,7.236 7.462,6.397 Z M 5.499,5.905 6.283,6.747 7.318,6.244 6.535,5.404 Z M 5.355,5.753 6.392,5.249 5.606,4.41 4.573,4.912 Z M 3.354,5.505 4.138,6.348 5.169,5.845 4.388,5.002 Z M 2.429,4.511 3.212,5.353 4.249,4.85 3.462,4.01 Z M 2.536,3.016 1.504,3.519 2.286,4.36 3.321,3.858 Z M 4.542,3.264 3.761,2.424 2.724,2.925 3.509,3.766 Z M 4.683,3.417 3.649,3.918 4.433,4.76 5.47,4.257 Z M 6.687,3.663 5.902,2.821 4.87,3.326 5.652,4.167 Z M 7.614,4.658 6.831,3.815 5.796,4.318 6.579,5.161 Z M 7.759,4.809 6.721,5.311 7.508,6.153 8.539,5.65 Z m 2,0.246 L 8.977,4.214 7.941,4.717 8.726,5.559 Z M 8.68,5.801 7.647,6.304 8.433,7.145 9.464,6.644 Z m 2.007,0.248 -0.785,-0.84 -1.034,0.502 0.783,0.84 z m 0.141,0.153 -1.036,0.504 0.783,0.84 1.035,-0.503 z M 12.833,6.45 12.05,5.608 11.016,6.109 11.799,6.953 Z m -1.081,0.745 -1.035,0.503 0.785,0.842 1.032,-0.504 z m 2.008,0.248 -0.783,-0.84 -1.037,0.501 0.784,0.843 z m 0.138,0.152 -1.034,0.501 0.786,0.842 1.032,-0.5 z M 15.905,7.843 15.12,7.002 14.086,7.504 14.87,8.346 Z m 0.925,0.992 -0.784,-0.84 -1.035,0.503 0.784,0.839 z m -1.22,0.593 -0.784,-0.84 -1.034,0.505 0.783,0.839 z m -0.896,0.655 0.787,0.84 1.034,-0.5 -0.786,-0.842 z m 2.144,0.4 0.787,0.843 1.036,-0.503 -0.783,-0.842 z M 17.756,9.83 16.97,8.987 15.937,9.491 16.72,10.333 Z M -0.351,1.532 0.435,2.372 1.469,1.872 0.687,1.03 Z M -0.395,-0.13 c 0.036,-0.06 0.071,-0.12 0.103,-0.18 l 0.149,0.159 1.032,-0.509 -0.581,-0.623 c 0.026,-0.042 0.051,-0.082 0.079,-0.124 0.01,-0.015 0.02,-0.031 0.032,-0.048 L 1.073,-0.75 2.106,-1.259 1.118,-2.314 c 0.05,-0.049 0.095,-0.093 0.146,-0.133 l 1.027,1.097 1.03,-0.506 -1.137,-1.221 c 0.065,-0.028 0.129,-0.06 0.192,-0.083 l 1.133,1.213 1.028,-0.507 -0.852,-0.917 c 0.101,0.008 0.202,0.017 0.3,0.034 l 0.739,0.792 0.724,-0.359 c 0.084,0.031 0.17,0.061 0.264,0.093 l -0.845,0.415 0.749,0.808 1.033,-0.503 -0.53,-0.572 c 0.134,0.049 0.271,0.101 0.416,0.156 l 0.304,0.323 0.236,-0.115 c 0.085,0.032 0.168,0.066 0.254,0.097 l -0.351,0.172 0.784,0.841 0.933,-0.454 c 0.078,0.035 0.16,0.07 0.241,0.103 L 7.905,-1.038 8.687,-0.197 9.722,-0.7 8.939,-1.537 c 0.15,0.064 0.302,0.127 0.456,0.195 l 0.512,0.552 0.345,-0.168 c 0.08,0.036 0.156,0.071 0.234,0.107 l -0.439,0.215 0.784,0.84 0.929,-0.452 c 0.075,0.039 0.149,0.075 0.224,0.113 l -1.01,0.49 0.783,0.843 1.035,-0.504 -0.742,-0.799 c 0.168,0.082 0.338,0.169 0.508,0.256 L 12.98,0.604 13.212,0.49 c 0.072,0.039 0.145,0.076 0.223,0.114 l -0.313,0.151 0.783,0.84 0.708,-0.344 c 0.072,0.041 0.142,0.08 0.21,0.119 l -0.776,0.38 0.785,0.841 1.034,-0.503 -0.219,-0.235 c 0.211,0.126 0.422,0.254 0.626,0.383 l 0.706,0.754 0.266,-0.129 c 0.065,0.041 0.132,0.082 0.193,0.126 l -0.319,0.155 0.784,0.841 0.569,-0.274 c 0.058,0.044 0.121,0.087 0.181,0.132 l -0.609,0.294 0.783,0.842 0.799,-0.389 c 0.056,0.047 0.113,0.093 0.17,0.138 l -0.824,0.403 0.784,0.842 0.958,-0.466 c 0.053,0.047 0.102,0.097 0.154,0.145 l -0.972,0.471 0.782,0.842 1.033,-0.502 -0.004,-0.006 c 0.026,0.026 0.053,0.05 0.078,0.075 0.095,0.098 0.183,0.197 0.263,0.289 L 21.854,6.613 20.818,7.115 21.603,7.958 22.526,7.51 c 0.03,0.059 0.061,0.119 0.09,0.177 l -0.87,0.422 0.785,0.842 0.298,-0.145 c -0.006,0.078 -0.013,0.156 -0.02,0.23 L 22.67,9.102 22.782,9.221 C 22.77,9.313 22.757,9.398 22.751,9.478 l -0.268,-0.285 -1.034,0.502 0.784,0.842 0.417,-0.202 c -0.011,0.077 -0.024,0.154 -0.042,0.241 l -0.231,0.113 0.175,0.19 c -0.013,0.079 -0.03,0.16 -0.045,0.241 l -0.319,-0.341 -1.033,0.504 0.783,0.843 0.397,-0.194 c -0.022,0.081 -0.038,0.164 -0.06,0.249 l -0.198,0.094 0.14,0.151 c -0.019,0.076 -0.037,0.152 -0.054,0.229 l -0.273,-0.287 -1.032,0.502 0.785,0.842 0.277,-0.135 c -0.024,0.086 -0.046,0.17 -0.075,0.256 l -0.06,0.03 0.043,0.042 c -0.024,0.074 -0.046,0.147 -0.068,0.223 l -0.163,-0.174 -1.034,0.503 0.781,0.841 0.039,-0.015 c -0.039,0.092 -0.07,0.18 -0.107,0.271 l -1.005,0.489 0.518,0.561 c -0.036,0.061 -0.073,0.114 -0.111,0.167 l -0.598,-0.637 -1.033,0.506 0.792,0.847 c -0.065,0.032 -0.129,0.06 -0.193,0.085 l -0.786,-0.844 -1.033,0.503 0.41,0.44 c -0.125,-0.021 -0.24,-0.05 -0.347,-0.079 l -0.25,-0.27 -0.224,0.109 c -0.144,-0.058 -0.229,-0.104 -0.229,-0.104 l -0.007,-0.004 0.319,-0.152 -0.786,-0.842 -0.726,0.352 c -0.07,-0.038 -0.137,-0.074 -0.216,-0.115 l 0.8,-0.39 -0.783,-0.841 -1.033,0.501 0.331,0.36 c -0.228,-0.121 -0.466,-0.252 -0.719,-0.39 l 0.058,-0.03 -0.785,-0.839 -0.462,0.224 C 13.106,15.123 13.034,15.084 12.961,15.045 L 13.5,14.784 12.718,13.942 11.772,14.4 c -0.07,-0.039 -0.137,-0.077 -0.21,-0.115 l 1.013,-0.494 -0.783,-0.842 -1.032,0.505 0.742,0.795 c -0.182,-0.097 -0.367,-0.197 -0.55,-0.297 l -0.379,-0.408 -0.197,0.094 C 10.304,13.6 10.233,13.561 10.162,13.521 l 0.269,-0.13 -0.783,-0.842 -0.669,0.324 C 8.909,12.835 8.839,12.795 8.767,12.757 L 9.503,12.397 8.719,11.556 7.686,12.06 7.882,12.271 C 7.694,12.168 7.511,12.066 7.323,11.963 L 6.573,11.156 6.197,11.34 C 6.125,11.299 6.056,11.262 5.985,11.222 L 6.431,11.004 5.648,10.163 4.813,10.57 C 4.745,10.531 4.673,10.491 4.604,10.454 L 5.506,10.013 4.724,9.169 3.688,9.671 4.208,10.232 C 4.016,10.122 3.826,10.017 3.64,9.911 L 3.502,9.763 3.437,9.794 C 3.364,9.757 3.295,9.716 3.227,9.677 L 3.36,9.61 2.579,8.771 2.067,9.017 C 1.999,8.977 1.929,8.936 1.859,8.899 L 2.436,8.619 1.651,7.777 0.715,8.233 C 0.646,8.189 0.577,8.15 0.511,8.111 L 1.509,7.624 0.727,6.784 -0.308,7.285 0.397,8.043 C 0.165,7.905 -0.04,7.777 -0.233,7.661 L -0.496,7.377 -0.602,7.428 C -0.662,7.389 -0.726,7.347 -0.78,7.311 -0.784,7.309 -0.788,7.307 -0.791,7.302 L -0.638,7.227 -1.419,6.384 -1.671,6.506 C -1.716,6.455 -1.759,6.4 -1.798,6.348 L -1.565,6.233 -2.224,5.523 C -2.27,5.387 -2.302,5.252 -2.324,5.12 l 0.022,0.028 1.033,-0.504 -0.781,-0.84 -0.285,0.138 c 0.017,-0.088 0.033,-0.17 0.048,-0.244 L -2.192,3.651 -2.257,3.583 C -2.238,3.499 -2.212,3.424 -2.19,3.361 L -2.007,3.56 -0.972,3.059 -1.691,2.285 c 0.067,-0.131 0.137,-0.27 0.215,-0.426 l 0.799,-0.39 -0.379,-0.406 c 0.036,-0.061 0.067,-0.122 0.1,-0.184 l 0.469,0.5 1.034,-0.503 -0.733,-0.782 -0.461,0.225 c 0.056,-0.1 0.113,-0.203 0.171,-0.305 l 0.149,-0.074 z" />
      </g>
      <g
         id="g1630">
        <g
           id="g1632" />
        <g
           id="g1644">
          <g
             style="opacity:0.39999396"
             id="g1642"
             clip-path="url(#clipPath1636-0)">
            <g
               id="g1640"
               transform="translate(2537.2813,3192.8472)">
              <path
                 inkscape:connector-curvature="0"
                 id="path1638"
                 style="fill:#530c29;fill-opacity:1;fill-rule:nonzero;stroke:none"
                 d="m 0,0 c 0,0 1.609,-1.643 -1.921,-2.422 -3.853,-0.856 -8,-0.945 -9.54,-0.288 -1.541,0.653 -4.179,4.206 -4.682,5.694 -0.503,1.491 1.079,1.673 3.467,1.693 3.682,0.03 5.869,0.107 7.887,-0.287 C -2.908,4.026 -1.326,1.889 0,0" />
            </g>
          </g>
        </g>
      </g>
      <g
         transform="translate(2535.833,3193.019)"
         id="g1646">
        <path
           inkscape:connector-curvature="0"
           id="path1648"
           style="fill:#394b5b;fill-opacity:1;fill-rule:nonzero;stroke:none"
           d="m 0,0 c 0,0 1.313,-1.34 -1.567,-1.979 -3.152,-0.696 -6.539,-0.77 -7.795,-0.236 -1.256,0.536 -3.411,3.437 -3.823,4.654 -0.413,1.217 0.879,1.364 2.831,1.38 3.007,0.024 4.791,0.088 6.443,-0.234 C -2.379,3.288 -1.085,1.542 0,0" />
      </g>
      <g
         transform="translate(2436.3975,3232.0059)"
         id="g1650">
        <path
           inkscape:connector-curvature="0"
           id="path1652"
           style="fill:#747a8c;fill-opacity:1;fill-rule:nonzero;stroke:none"
           d="m 0,0 c -0.775,0 -1.579,0.75 -1.96,1.822 -0.449,1.285 -0.131,2.529 0.726,2.831 0.119,0.042 0.243,0.062 0.374,0.062 0.772,0 1.58,-0.746 1.957,-1.818 C 1.546,1.612 1.229,0.369 0.373,0.063 0.256,0.024 0.13,0 0,0" />
      </g>
      <g
         transform="translate(2473.3857,3233.7773)"
         id="g1654">
        <path
           inkscape:connector-curvature="0"
           id="path1656"
           style="fill:#9b043e;fill-opacity:1;fill-rule:nonzero;stroke:none"
           d="m 0,0 c 0,0 -2.815,3.929 -3.775,4.967 -1.243,1.34 -2.932,1.787 -4.272,1.44 -1.341,-0.349 -3.574,-1.187 -4.669,-2.285 -0.944,-0.943 -1.193,-2.584 0.049,-3.28 1.245,-0.693 2.932,-0.743 4.571,-0.644 1.638,0.099 3.078,0.347 3.626,0.547 0.373,0.136 0.992,0.198 1.538,-0.398 0.547,-0.597 1.344,-1.738 2.037,-1.738 0.697,0 1.491,0.347 0.895,1.391" />
      </g>
      <g
         id="g1658">
        <g
           id="g1660" />
        <g
           id="g1672">
          <g
             style="opacity:0.28999299"
             id="g1670"
             clip-path="url(#clipPath1664-3)">
            <g
               id="g1668"
               transform="translate(2460.4248,3237.6152)">
              <path
                 inkscape:connector-curvature="0"
                 id="path1666"
                 style="fill:#f5f5f5;fill-opacity:1;fill-rule:nonzero;stroke:none"
                 d="M 0,0 C 1.15,0.276 5.159,1.113 7.295,-0.014 8.338,-0.562 8.54,-1.297 5.708,-1.803 2.894,-2.304 0.688,-2.502 -0.207,-2.568 -0.771,-1.854 -0.595,-0.783 0,0" />
            </g>
          </g>
        </g>
      </g>
      <g
         transform="translate(2481.4482,3275.6001)"
         id="g1674">
        <path
           inkscape:connector-curvature="0"
           id="path1676"
           style="fill:#263744;fill-opacity:1;fill-rule:nonzero;stroke:none"
           d="m 0,0 c 1.138,0.399 2.337,0.386 3.423,-0.201 1.056,-1.139 3.181,-3.897 4.327,-5.61 2.32,-3.478 8.54,-19.77 8.54,-19.77 -1.189,-5.263 -10.848,-7.924 -10.848,-7.924 l -5.656,-4.475 -8.555,9.212 9.266,4.876 c 0,0 -2.218,7.032 -3.596,11.228 -0.078,0.643 -0.14,1.161 -0.179,1.488 -0.047,0.382 -0.336,6.129 -0.248,7.449 C -3.376,-1.49 -2.681,-0.945 0,0" />
      </g>
      <g
         transform="translate(2456.6475,3264.9707)"
         id="g1678">
        <path
           inkscape:connector-curvature="0"
           id="path1680"
           style="fill:#263744;fill-opacity:1;fill-rule:nonzero;stroke:none"
           d="m 0,0 c 1.135,0.399 2.331,0.385 3.42,-0.199 1.056,-1.14 3.183,-3.897 4.327,-5.614 2.32,-3.475 8.543,-19.767 8.543,-19.767 0.547,-1.342 -0.431,-0.539 -0.943,-0.299 -4.681,2.525 -10.172,5.498 -14.291,7.757 -2.201,1.333 -3.37,3.054 -4.162,5.457 -0.073,0.644 -0.131,1.161 -0.173,1.487 -0.047,0.386 -0.339,6.13 -0.249,7.45 C -3.382,-1.491 -2.681,-0.945 0,0" />
      </g>
      <g
         transform="translate(2511.2324,3252.0396)"
         id="g1682">
        <path
           inkscape:connector-curvature="0"
           id="path1684"
           style="fill:#4b5f6b;fill-opacity:1;fill-rule:nonzero;stroke:none"
           d="m 0,0 c 0,0 -4.338,9.761 -4.633,10.397 -0.93,1.988 -2.848,3.843 -3.578,4.108 -0.725,0.263 -2.449,1.919 -3.112,2.979 -0.661,1.06 -2.21,2.602 -3.38,2.849 -1.254,0.263 -3.642,-0.531 -4.434,-1.394 -0.796,-0.86 -1.195,-2.049 -1.195,-3.441 0,-1.39 0.068,-4.041 -0.393,-5.697 -0.466,-1.655 -1.329,-2.583 -0.27,-4.901 1.062,-2.319 7.27,-12.217 7.27,-12.217 l 10.017,5.594 c 0,0 3.476,1.988 3.708,1.723" />
      </g>
      <g
         transform="translate(2491.9971,3256.0439)"
         id="g1686">
        <path
           inkscape:connector-curvature="0"
           id="path1688"
           style="fill:#263744;fill-opacity:1;fill-rule:nonzero;stroke:none"
           d="m 0,0 c -1.06,2.319 -0.299,3.876 0.161,5.531 0.467,1.657 0.801,3.447 0.801,4.834 0,1.394 0.826,3.103 1.785,3.776 3.111,2.187 4.781,-0.047 5.165,-0.661 0.663,-1.061 2.42,-2.634 3.112,-2.98 1.457,-0.73 2.649,-2.12 3.579,-4.107 0.294,-0.637 4.632,-10.397 4.632,-10.397 -0.328,-0.531 -4.489,-2.21 -4.489,-2.21 L 6.251,-10.887 C 4.571,-8.039 0.828,-1.815 0,0" />
      </g>
      <g
         transform="translate(2461.6953,3245.3481)"
         id="g1690">
        <path
           inkscape:connector-curvature="0"
           id="path1692"
           style="fill:#4b5f6b;fill-opacity:1;fill-rule:nonzero;stroke:none"
           d="m 0,0 c -0.592,2.482 0.066,3.711 0.529,5.366 0.467,1.656 0.467,3.71 0.467,5.101 0,1.389 0.427,2.747 1.257,3.575 1.127,1.127 3.161,1.737 4.438,1.59 1.719,-0.2 2.715,-1.788 3.376,-2.847 0.662,-1.06 2.386,-2.716 3.117,-2.982 0.726,-0.263 2.645,-2.119 3.574,-4.105 0.297,-0.638 4.635,-10.399 4.635,-10.399 0,-2.184 -2.784,-3.575 -2.784,-3.575 L 15.753,-9.311 C 11.099,-6.845 4.93,-3.531 0.242,-0.86 0.137,-0.527 0.055,-0.234 0,0" />
      </g>
      <g
         transform="translate(2463.0879,3244.2915)"
         id="g1694">
        <path
           inkscape:connector-curvature="0"
           id="path1696"
           style="fill:#263744;fill-opacity:1;fill-rule:nonzero;stroke:none"
           d="m 0,0 c -0.697,2.451 0.329,4.172 0.793,5.828 0.464,1.657 0.928,3.642 0.928,5.032 0,1.391 0.729,2.583 1.524,3.445 0.761,0.822 1.786,1.588 3.508,1.059 0.929,-0.332 1.538,-0.91 1.922,-1.523 0.661,-1.059 2.405,-2.657 3.116,-2.981 1.586,-0.728 2.646,-2.119 3.574,-4.106 C 15.662,6.117 20,-3.645 20,-3.645 c 0.791,-1.457 2.25,-5.231 2.25,-5.231 l -1.654,-2.582 c -1.905,1.007 -11.525,6.006 -15.951,8.429 v 0 C 3.098,-2.184 1.582,-1.345 0.164,-0.547 0.096,-0.332 0.04,-0.146 0,0" />
      </g>
      <g
         transform="translate(2515.6074,3256.2183)"
         id="g1698">
        <path
           inkscape:connector-curvature="0"
           id="path1700"
           style="fill:#17252d;fill-opacity:1;fill-rule:nonzero;stroke:none"
           d="M 0,0 C 0,0 -0.021,2.913 -2.727,3.659 -4.65,4.191 -7.354,2.824 -8.889,0.872 c -1.456,-1.852 -2.379,-3.833 -2.736,-6.168 -0.289,-1.863 -0.275,-2.73 -0.275,-2.73 l 1.414,0.721 c 0,0 0.335,3.197 1.485,5.389 1.058,2.022 2.758,3.308 4.032,3.896 1.252,0.578 2.582,0.266 3.113,-1.047 0.26,-0.664 0.398,-1.669 0.398,-1.669 z" />
      </g>
      <g
         transform="translate(2485.5391,3242.4346)"
         id="g1702">
        <path
           inkscape:connector-curvature="0"
           id="path1704"
           style="fill:#778791;fill-opacity:1;fill-rule:nonzero;stroke:none"
           d="m 0,0 c 2.816,1.566 6.822,3.513 9.404,3.91 1.679,0.257 4.621,-0.049 4.621,-0.049 0,0 1.549,-0.205 2.134,-0.348 1.767,-0.445 3.281,-1.096 3.281,-1.096 l 8.047,4.075 c 0,0 -2.299,0.808 -3.878,0.993 -0.651,0.078 -1.537,0.02 -2.38,-0.077 0.031,1.039 2.496,3.862 5.062,5.443 2.585,1.588 8.746,4.037 10.943,4.469 2.536,0.497 3.678,-1.391 3.678,-1.391 0.396,-0.894 0.897,-2.137 -0.596,-3.428 C 38.826,11.21 30.86,7.052 24.009,3.016 16.758,-1.257 2.747,-7.815 -0.928,-8.508 -3.249,-8.948 -5.696,-6.025 -5.894,-4.734 -6.095,-3.441 -3.279,-1.82 0,0" />
      </g>
      <g
         id="g1706">
        <g
           id="g1708" />
        <g
           id="g1720">
          <g
             style="opacity:0.16999799"
             id="g1718"
             clip-path="url(#clipPath1712-4)">
            <g
               id="g1716"
               transform="translate(2528.4199,3259.2578)">
              <path
                 inkscape:connector-curvature="0"
                 id="path1714"
                 style="fill:#efedee;fill-opacity:1;fill-rule:nonzero;stroke:none"
                 d="m 0,0 c 0,0 -3.66,3.761 -7.279,7.467 -3.381,3.46 -5.982,2.471 -7.949,1.723 -1.965,-0.751 -27.076,-12.952 -32.091,-15.349 -3.045,-1.458 -4.57,-2.716 -4.503,-4.371 0.045,-1.126 0.758,-3.32 3.707,-8.279 2.951,-4.959 2.52,-3.841 2.52,-3.841 0,0 1.853,-3.18 5.959,-1.787 4.126,1.396 11.472,5.133 15.762,7.283 4.291,2.154 16.16,8.546 19.703,10.498 3.046,1.682 3.319,1.89 4.072,2.385 C 3.08,-2.185 0,0 0,0" />
            </g>
          </g>
        </g>
      </g>
      <g
         transform="translate(2487.1934,3234.8208)"
         id="g1722">
        <path
           inkscape:connector-curvature="0"
           id="path1724"
           style="fill:#263744;fill-opacity:1;fill-rule:nonzero;stroke:none"
           d="m 0,0 c 4.127,1.396 11.475,5.133 15.764,7.283 4.291,2.154 16.16,8.546 19.704,10.498 3.048,1.682 4.461,2.57 5.229,3.047 2.086,1.291 0.464,2.814 0.464,2.814 0,0 -5.168,4.841 -9.072,8.247 -3.116,2.714 -5.763,1.82 -6.393,1.621 2.484,1.655 6.042,0.657 8.251,-1.606 3.619,-3.706 7.28,-7.467 7.28,-7.467 0,0 3.08,-2.185 -0.099,-4.271 C 40.375,19.671 40.102,19.463 37.056,17.781 33.513,15.829 21.644,9.437 17.353,7.283 13.063,5.133 5.717,1.396 1.591,0 0.511,-0.367 -0.407,-0.417 -1.184,-0.289 -0.811,-0.237 -0.416,-0.142 0,0" />
      </g>
      <g
         transform="translate(2475.4063,3248.728)"
         id="g1726">
        <path
           inkscape:connector-curvature="0"
           id="path1728"
           style="fill:#20303a;fill-opacity:1;fill-rule:nonzero;stroke:none"
           d="m 0,0 c -0.065,1.654 1.457,2.913 4.503,4.371 5.014,2.397 30.126,14.598 32.094,15.349 1.964,0.747 4.016,0.769 7.295,-2.013 2.879,-2.442 7.932,-7.177 7.932,-7.177 0,0 3.078,-2.185 -0.101,-4.272 C 50.971,5.764 50.699,5.556 47.653,3.874 44.107,1.921 32.24,-4.47 27.948,-6.624 c -4.291,-2.15 -11.635,-5.887 -15.762,-7.283 -4.108,-1.393 -5.961,1.786 -5.961,1.786 0,0 -0.662,0.797 -2.516,3.842 C 0.708,-3.35 0.044,-1.126 0,0 m -1.756,-4.223 c 2.004,-4.63 5.861,-12.519 5.861,-12.519 0,0 0.845,-0.394 0.995,-0.445 2.642,-0.879 14.634,-0.398 19.403,1.887 4.77,2.286 25.929,13.81 29.604,16.195 2.903,1.881 4.672,3.476 4.471,4.866 -0.201,1.392 -0.893,2.187 -0.893,2.187 0,0 -7.628,7.591 -11.261,10.827 -4.567,4.073 -7.151,4.073 -9.336,3.28 C 34.902,21.258 5.656,8.135 0.395,5.05 -2.488,3.363 -3.025,1.918 -3.095,0.397 c -0.052,-1.043 0.544,-2.781 1.339,-4.62" />
      </g>
      <g
         transform="translate(2476.5977,3248.728)"
         id="g1730">
        <path
           inkscape:connector-curvature="0"
           id="path1732"
           style="fill:#d1053a;fill-opacity:1;fill-rule:nonzero;stroke:none"
           d="m 0,0 c -0.066,1.654 1.458,2.913 4.503,4.371 5.016,2.397 30.126,14.598 32.092,15.349 1.967,0.747 4.02,0.769 7.299,-2.013 2.877,-2.442 7.928,-7.177 7.928,-7.177 0,0 3.08,-2.185 -0.098,-4.272 C 50.971,5.764 50.697,5.556 47.651,3.874 44.108,1.921 32.239,-4.47 27.948,-6.624 c -4.29,-2.15 -11.635,-5.887 -15.761,-7.283 -4.107,-1.393 -5.959,1.786 -5.959,1.786 0,0 -0.664,0.797 -2.521,3.842 C 0.706,-3.35 0.045,-1.126 0,0 m -0.797,-7.764 c 2.319,-4.82 4.539,-9.423 4.539,-9.423 0,0 1.21,-0.597 5.281,-0.646 2.789,-0.034 10.715,0.248 15.482,2.533 4.766,2.286 25.928,13.81 29.606,16.195 2.9,1.881 4.666,3.476 4.469,4.866 -0.199,1.392 -0.895,2.187 -0.895,2.187 0,0 -7.625,7.591 -11.258,10.827 -4.572,4.073 -7.154,4.073 -9.339,3.28 C 34.903,21.258 5.654,8.135 0.394,5.05 -2.486,3.363 -3.644,2.053 -3.644,0.529 c 0,-1.195 0.151,-2.706 2.847,-8.293" />
      </g>
      <g
         id="g1734">
        <g
           id="g1736" />
        <g
           id="g1748">
          <g
             style="opacity:0.19999701"
             id="g1746"
             clip-path="url(#clipPath1740-0)">
            <g
               id="g1744"
               transform="translate(2491.8984,3231.2061)">
              <path
                 inkscape:connector-curvature="0"
                 id="path1742"
                 style="fill:#890239;fill-opacity:1;fill-rule:nonzero;stroke:none"
                 d="m 0,0 c -0.179,-0.012 -0.44,-0.036 -0.44,-0.036 l -2.437,3.734 c 4.168,1.457 11.313,5.089 15.524,7.2 4.291,2.154 16.161,8.545 19.704,10.498 3.045,1.682 3.319,1.89 4.072,2.384 3.179,2.087 0.098,4.272 0.098,4.272 0,0 -4.07,3.722 -7.928,7.177 -3.08,2.758 -5.332,2.76 -7.299,2.013 -1.966,-0.751 -27.076,-12.952 -32.092,-15.349 -1.036,-0.497 -1.894,-0.969 -2.576,-1.443 l -1.384,2.207 c 5.615,3.205 34.38,16.131 36.545,16.92 2.186,0.793 4.471,0.793 8.544,-2.583 4.368,-3.624 12.053,-11.524 12.053,-11.524 0,0 0.696,-0.795 0.895,-2.187 0.198,-1.39 -1.569,-2.985 -4.468,-4.866 C 35.132,16.032 13.971,4.508 9.204,2.222 6.511,0.933 2.969,0.324 0,0" />
            </g>
          </g>
        </g>
      </g>
      <g
         transform="translate(2479.4805,3232.0215)"
         id="g1750">
        <path
           inkscape:connector-curvature="0"
           id="path1752"
           style="fill:#530c29;fill-opacity:1;fill-rule:nonzero;stroke:none"
           d="m 0,0 c -0.351,-0.412 -0.571,-0.917 -0.727,-1.432 -0.156,-0.52 -0.235,-1.059 -0.263,-1.599 -0.037,-1.071 0,-2.156 -0.157,-3.185 -0.046,-0.257 -0.116,-0.494 -0.23,-0.73 -0.114,-0.256 -0.174,-0.568 -0.163,-0.851 0.02,-0.561 0.11,-1.083 0.171,-1.615 0.114,-1.059 0.285,-2.14 0.511,-3.186 0.476,-2.099 1.048,-4.165 1.686,-6.212 0.324,-1.022 0.661,-2.04 1.009,-3.055 0.148,-0.496 0.259,-1.028 0.292,-1.555 0.025,-0.265 0.008,-0.759 -0.022,-0.978 -0.007,-0.18 0.01,-0.185 0.06,-0.235 -0.005,0.05 0.029,0.157 0.042,0.423 0.01,0.26 0.04,0.522 0.029,0.795 -0.006,0.545 -0.084,1.074 -0.212,1.611 -0.313,1.023 -0.612,2.052 -0.9,3.081 -0.579,2.06 -1.15,4.122 -1.591,6.207 -0.239,1.045 -0.418,2.082 -0.545,3.152 -0.068,0.528 -0.162,1.067 -0.187,1.575 -0.012,0.252 0.036,0.476 0.127,0.715 0.109,0.25 0.186,0.536 0.224,0.809 0.075,0.549 0.073,1.087 0.073,1.624 l -0.026,1.603 C -0.797,-1.986 -0.607,-0.892 0,0" />
      </g>
      <g
         transform="translate(2448.6133,3248.5791)"
         id="g1754">
        <path
           inkscape:connector-curvature="0"
           id="path1756"
           style="fill:#530c29;fill-opacity:1;fill-rule:nonzero;stroke:none"
           d="m 0,0 c -1.394,-0.86 -2.293,-2.071 -2.622,-3.204 -0.269,-1.149 -0.202,-2.33 -0.05,-3.477 0.34,-2.307 1.178,-4.49 2.115,-6.596 0.975,-2.097 2.074,-4.12 3.209,-6.125 0.578,-0.997 1.174,-1.981 1.718,-2.988 0.256,-0.506 0.562,-1.008 0.642,-1.562 0.092,-0.559 0.025,-0.707 0.109,-1.283 l 0.049,0.007 c -0.049,0.57 0.043,0.71 -0.024,1.291 -0.023,0.299 -0.122,0.583 -0.224,0.853 -0.109,0.271 -0.231,0.534 -0.363,0.792 -0.521,1.031 -1.083,2.034 -1.623,3.048 -1.101,2.016 -2.18,4.05 -3.137,6.128 -0.959,2.077 -1.778,4.237 -2.176,6.483 -0.187,1.115 -0.275,2.276 -0.061,3.384 C -2.187,-2.146 -1.194,-0.86 0,0" />
      </g>
      <g
         transform="translate(2455.5186,3222.5195)"
         id="g1758">
        <path
           inkscape:connector-curvature="0"
           id="path1760"
           style="fill:#530c29;fill-opacity:1;fill-rule:nonzero;stroke:none"
           d="m 0,0 c 3.659,-2.138 7.321,-4.275 11.023,-6.342 l 11.072,-6.266 5.526,-3.153 5.308,-3.063 c 0,-0.004 10e-4,-0.008 0.003,-0.011 l -5.406,2.904 -5.577,3.055 c -3.718,2.041 -7.421,4.112 -11.12,6.188 -3.687,2.096 -7.359,4.23 -10.986,6.427 -3.63,2.193 -7.244,4.416 -10.82,6.701 z" />
      </g>
      <g
         transform="translate(2523.041,3209.4922)"
         id="g1762">
        <path
           inkscape:connector-curvature="0"
           id="path1764"
           style="fill:#9aa8b7;fill-opacity:1;fill-rule:nonzero;stroke:none"
           d="m 0,0 c -1.568,-2.617 0.064,-6.319 3.391,-8.125 3.328,-1.806 7.267,-1.131 8.66,1.583 1.556,3.034 0.164,6.824 -3.391,8.121 C 4.965,2.926 1.238,2.06 0,0" />
      </g>
      <g
         transform="translate(2522.5723,3207.1665)"
         id="g1766">
        <path
           inkscape:connector-curvature="0"
           id="path1768"
           style="fill:#7c0335;fill-opacity:1;fill-rule:nonzero;stroke:none"
           d="m 0,0 c 0.069,-0.793 0.363,-1.54 0.754,-2.208 0.809,-1.328 1.952,-2.397 3.269,-3.199 1.31,-0.802 2.885,-1.336 4.475,-1.191 0.787,0.078 1.565,0.317 2.23,0.735 0.666,0.415 1.187,1.03 1.512,1.717 0.645,1.414 0.647,3.038 0.078,4.412 C 11.75,1.652 10.576,2.718 9.208,3.293 7.794,3.878 6.238,4.175 4.674,4.173 3.893,4.157 3.098,4.05 2.355,3.757 1.617,3.471 0.938,2.98 0.513,2.298 0.101,1.604 -0.078,0.791 0,0 m 2.238,4.007 c 0.734,0.4 1.535,0.682 2.37,0.83 1.672,0.323 3.416,0.073 5.017,-0.543 0.805,-0.338 1.567,-0.82 2.182,-1.457 0.618,-0.635 1.1,-1.399 1.4,-2.226 0.304,-0.825 0.428,-1.715 0.338,-2.585 -0.081,-0.865 -0.379,-1.707 -0.815,-2.433 -0.439,-0.751 -1.1,-1.334 -1.828,-1.751 -0.733,-0.41 -1.543,-0.655 -2.366,-0.765 -0.827,-0.113 -1.668,-0.111 -2.5,0.014 -0.829,0.128 -1.658,0.39 -2.417,0.761 -1.52,0.763 -2.818,2.061 -3.439,3.662 -0.645,1.577 -0.608,3.424 0.246,4.836 0.421,0.713 1.086,1.251 1.812,1.657" />
      </g>
      <g
         transform="translate(2523.665,3210.3247)"
         id="g1770">
        <path
           inkscape:connector-curvature="0"
           id="path1772"
           style="fill:#f5f5f5;fill-opacity:1;fill-rule:nonzero;stroke:none"
           d="m 0,0 c -1.411,-1.296 -1.22,-3.696 0.313,-5.239 1.53,-1.543 3.903,-1.726 5.234,-0.348 1.491,1.539 1.452,3.958 -0.31,5.237 C 3.406,0.979 1.116,1.021 0,0" />
      </g>
    </g>
  </g>
</svg>
