<?xml version="1.0" encoding="UTF-8"?>
<!-- Created with Inkscape (http://www.inkscape.org/) -->
<svg width="85.196mm" height="47.625mm" version="1.1" viewBox="0 0 85.196 47.625" xmlns="http://www.w3.org/2000/svg" xmlns:cc="http://creativecommons.org/ns#" xmlns:dc="http://purl.org/dc/elements/1.1/" xmlns:rdf="http://www.w3.org/1999/02/22-rdf-syntax-ns#">
 <metadata>
  <rdf:RDF>
   <cc:Work rdf:about="">
    <dc:format>image/svg+xml</dc:format>
    <dc:type rdf:resource="http://purl.org/dc/dcmitype/StillImage"/>
    <dc:title/>
   </cc:Work>
  </rdf:RDF>
 </metadata>
 <g transform="translate(-32.241 -39.598)">
  <a transform="translate(-60.621 -153.29)">
   <g transform="translate(39.33 162.5)">
    <g transform="matrix(.26458 0 0 .26458 -85.638 -8.7671)">
     <g class="top-level-node" transform="translate(528,232)">
      <polygon points="128 32 64 64 0 32 64 0" fill="#999"/>
      <polygon points="128 32 64 64 0 32 64 0" fill="#999"/>
     </g>
     <g class="top-level-node" transform="translate(656,168)">
      <polygon points="128 32 64 64 0 32 64 0" fill="#999"/>
      <polygon points="128 32 64 64 0 32 64 0" fill="#999"/>
     </g>
     <g class="top-level-node" transform="translate(720,200)">
      <polygon points="128 32 64 64 0 32 64 0" fill="#999"/>
      <polygon points="128 32 64 64 0 32 64 0" fill="#999"/>
     </g>
     <g class="top-level-node" transform="translate(656,232)">
      <polygon points="128 32 64 64 0 32 64 0" fill="#999"/>
      <polygon points="128 32 64 64 0 32 64 0" fill="#999"/>
     </g>
     <g class="top-level-node" transform="translate(592,264)">
      <polygon points="128 32 64 64 0 32 64 0" fill="#999"/>
      <polygon points="128 32 64 64 0 32 64 0" fill="#999"/>
     </g>
     <g class="top-level-node" transform="translate(592,200)">
      <polygon points="128 32 64 64 0 32 64 0" fill="#999"/>
      <polygon points="128 32 64 64 0 32 64 0" fill="#999"/>
     </g>
     <g class="top-level-node" transform="translate(648,148)">
      <polygon points="70 4 72 3 74 4 74 23 72 24 70 23" fill="#e5e5e5"/>
      <polygon points="70 4 72 3 74 4 74 23 72 24 70 23" opacity=".1"/>
      <polygon points="70 23 70 4 72 5 72 24" opacity=".11"/>
      <polygon points="74 23 74 4 72 5 72 24" opacity=".29"/>
      <polygon points="72 22 72 7 58 14 58 29" fill="#e5e5e5"/>
      <polygon points="72 22 72 7 58 14 58 29" opacity=".29"/>
      <polygon points="56 13 70 6 72 7 58 14" fill="#e5e5e5"/>
      <polygon points="54 12 56 11 58 12 58 31 56 32 54 31" fill="#e5e5e5"/>
      <polygon points="54 12 56 11 58 12 58 31 56 32 54 31" opacity=".1"/>
      <polygon points="54 31 54 12 56 13 56 32" opacity=".11"/>
      <polygon points="58 31 58 12 56 13 56 32" opacity=".29"/>
      <polygon points="56 30 56 15 42 22 42 37" fill="#e5e5e5"/>
      <polygon points="56 30 56 15 42 22 42 37" opacity=".29"/>
      <polygon points="40 21 54 14 56 15 42 22" fill="#e5e5e5"/>
      <polygon points="38 20 40 19 42 20 42 39 40 40 38 39" fill="#e5e5e5"/>
      <polygon points="38 20 40 19 42 20 42 39 40 40 38 39" opacity=".1"/>
      <polygon points="38 39 38 20 40 21 40 40" opacity=".11"/>
      <polygon points="42 39 42 20 40 21 40 40" opacity=".29"/>
      <polygon points="40 38 40 23 26 30 26 45" fill="#e5e5e5"/>
      <polygon points="40 38 40 23 26 30 26 45" opacity=".29"/>
      <polygon points="24 29 38 22 40 23 26 30" fill="#e5e5e5"/>
      <polygon points="22 28 24 27 26 28 26 47 24 48 22 47" fill="#e5e5e5"/>
      <polygon points="22 28 24 27 26 28 26 47 24 48 22 47" opacity=".1"/>
      <polygon points="22 47 22 28 24 29 24 48" opacity=".11"/>
      <polygon points="26 47 26 28 24 29 24 48" opacity=".29"/>
      <polygon points="24 46 24 31 10 38 10 53" fill="#e5e5e5"/>
      <polygon points="24 46 24 31 10 38 10 53" opacity=".29"/>
      <polygon points="8 37 22 30 24 31 10 38" fill="#e5e5e5"/>
      <polygon points="6 36 8 35 10 36 10 55 8 56 6 55" fill="#e5e5e5"/>
      <polygon points="6 36 8 35 10 36 10 55 8 56 6 55" opacity=".1"/>
      <polygon points="6 55 6 36 8 37 8 56" opacity=".11"/>
      <polygon points="10 55 10 36 8 37 8 56" opacity=".29"/>
     </g>
     <g class="top-level-node" transform="translate(584,180)">
      <polygon points="70 4 72 3 74 4 74 23 72 24 70 23" fill="#e5e5e5"/>
      <polygon points="70 4 72 3 74 4 74 23 72 24 70 23" opacity=".1"/>
      <polygon points="70 23 70 4 72 5 72 24" opacity=".11"/>
      <polygon points="74 23 74 4 72 5 72 24" opacity=".29"/>
      <polygon points="72 22 72 7 58 14 58 29" fill="#e5e5e5"/>
      <polygon points="72 22 72 7 58 14 58 29" opacity=".29"/>
      <polygon points="56 13 70 6 72 7 58 14" fill="#e5e5e5"/>
      <polygon points="54 12 56 11 58 12 58 31 56 32 54 31" fill="#e5e5e5"/>
      <polygon points="54 12 56 11 58 12 58 31 56 32 54 31" opacity=".1"/>
      <polygon points="54 31 54 12 56 13 56 32" opacity=".11"/>
      <polygon points="58 31 58 12 56 13 56 32" opacity=".29"/>
      <polygon points="56 30 56 15 42 22 42 37" fill="#e5e5e5"/>
      <polygon points="56 30 56 15 42 22 42 37" opacity=".29"/>
      <polygon points="40 21 54 14 56 15 42 22" fill="#e5e5e5"/>
      <polygon points="38 20 40 19 42 20 42 39 40 40 38 39" fill="#e5e5e5"/>
      <polygon points="38 20 40 19 42 20 42 39 40 40 38 39" opacity=".1"/>
      <polygon points="38 39 38 20 40 21 40 40" opacity=".11"/>
      <polygon points="42 39 42 20 40 21 40 40" opacity=".29"/>
      <polygon points="40 38 40 23 26 30 26 45" fill="#e5e5e5"/>
      <polygon points="40 38 40 23 26 30 26 45" opacity=".29"/>
      <polygon points="24 29 38 22 40 23 26 30" fill="#e5e5e5"/>
      <polygon points="22 28 24 27 26 28 26 47 24 48 22 47" fill="#e5e5e5"/>
      <polygon points="22 28 24 27 26 28 26 47 24 48 22 47" opacity=".1"/>
      <polygon points="22 47 22 28 24 29 24 48" opacity=".11"/>
      <polygon points="26 47 26 28 24 29 24 48" opacity=".29"/>
      <polygon points="24 46 24 31 10 38 10 53" fill="#e5e5e5"/>
      <polygon points="24 46 24 31 10 38 10 53" opacity=".29"/>
      <polygon points="8 37 22 30 24 31 10 38" fill="#e5e5e5"/>
      <polygon points="6 36 8 35 10 36 10 55 8 56 6 55" fill="#e5e5e5"/>
      <polygon points="6 36 8 35 10 36 10 55 8 56 6 55" opacity=".1"/>
      <polygon points="6 55 6 36 8 37 8 56" opacity=".11"/>
      <polygon points="10 55 10 36 8 37 8 56" opacity=".29"/>
     </g>
     <g class="top-level-node" transform="translate(716,148)">
      <polygon points="10 4 8 3 6 4 6 23 8 24 10 23" fill="#e5e5e5"/>
      <polygon points="10 4 8 3 6 4 6 23 8 24 10 23" opacity=".1"/>
      <polygon points="10 23 10 4 8 5 8 24" opacity=".29"/>
      <polygon points="6 23 6 4 8 5 8 24" opacity=".11"/>
      <polygon points="8 22 8 7 22 14 22 29" fill="#e5e5e5"/>
      <polygon points="8 22 8 7 22 14 22 29" opacity=".11"/>
      <polygon points="24 13 10 6 8 7 22 14" fill="#e5e5e5"/>
      <polygon points="26 12 24 11 22 12 22 31 24 32 26 31" fill="#e5e5e5"/>
      <polygon points="26 12 24 11 22 12 22 31 24 32 26 31" opacity=".1"/>
      <polygon points="26 31 26 12 24 13 24 32" opacity=".29"/>
      <polygon points="22 31 22 12 24 13 24 32" opacity=".11"/>
      <polygon points="24 30 24 15 38 22 38 37" fill="#e5e5e5"/>
      <polygon points="24 30 24 15 38 22 38 37" opacity=".11"/>
      <polygon points="40 21 26 14 24 15 38 22" fill="#e5e5e5"/>
      <polygon points="42 20 40 19 38 20 38 39 40 40 42 39" fill="#e5e5e5"/>
      <polygon points="42 20 40 19 38 20 38 39 40 40 42 39" opacity=".1"/>
      <polygon points="42 39 42 20 40 21 40 40" opacity=".29"/>
      <polygon points="38 39 38 20 40 21 40 40" opacity=".11"/>
      <polygon points="40 38 40 23 54 30 54 45" fill="#e5e5e5"/>
      <polygon points="40 38 40 23 54 30 54 45" opacity=".11"/>
      <polygon points="56 29 42 22 40 23 54 30" fill="#e5e5e5"/>
      <polygon points="58 28 56 27 54 28 54 47 56 48 58 47" fill="#e5e5e5"/>
      <polygon points="58 28 56 27 54 28 54 47 56 48 58 47" opacity=".1"/>
      <polygon points="58 47 58 28 56 29 56 48" opacity=".29"/>
      <polygon points="54 47 54 28 56 29 56 48" opacity=".11"/>
      <polygon points="56 46 56 31 70 38 70 53" fill="#e5e5e5"/>
      <polygon points="56 46 56 31 70 38 70 53" opacity=".11"/>
      <polygon points="72 37 58 30 56 31 70 38" fill="#e5e5e5"/>
      <polygon points="74 36 72 35 70 36 70 55 72 56 74 55" fill="#e5e5e5"/>
      <polygon points="74 36 72 35 70 36 70 55 72 56 74 55" opacity=".1"/>
      <polygon points="74 55 74 36 72 37 72 56" opacity=".29"/>
      <polygon points="70 55 70 36 72 37 72 56" opacity=".11"/>
     </g>
     <g class="top-level-node" transform="translate(708,148)">
      <polygon points="0 32 0 8 16 16 16 40" fill="#e5e5e5"/>
      <polygon points="3 16.5 3 33.5 13 38.5 13 21.5" fill="#fff"/>
      <polygon points="4 34 4 18 12 22 12 38" fill="#39c"/>
      <polygon points="12 22 12 32 4 18" opacity=".15"/>
      <polygon points="12 37 5 33.5 5 18.5 4 18 4 34 12 38" opacity=".3"/>
      <polygon points="16 40 16 16 32 8 32 32" fill="#e5e5e5"/>
      <polygon points="18 22 18 31 30 25 30 16" fill="#fff"/>
      <polygon points="19 29.5 19 22.5 29 17.5 29 24.5" fill="#39c"/>
      <polygon points="19 29.5 19 28.5 29 23.5 29 24.5" opacity=".3"/>
      <polygon points="32 8 16 0 0 8 16 16" fill="#2d3134"/>
      <polygon points="16 40 16 16 32 8 32 32" opacity=".39"/>
      <polygon points="0 32 0 8 16 16 16 40" opacity=".06"/>
     </g>
     <g class="top-level-node" transform="translate(780,180)">
      <polygon points="10 4 8 3 6 4 6 23 8 24 10 23" fill="#e5e5e5"/>
      <polygon points="10 4 8 3 6 4 6 23 8 24 10 23" opacity=".1"/>
      <polygon points="10 23 10 4 8 5 8 24" opacity=".29"/>
      <polygon points="6 23 6 4 8 5 8 24" opacity=".11"/>
      <polygon points="8 22 8 7 22 14 22 29" fill="#e5e5e5"/>
      <polygon points="8 22 8 7 22 14 22 29" opacity=".11"/>
      <polygon points="24 13 10 6 8 7 22 14" fill="#e5e5e5"/>
      <polygon points="26 12 24 11 22 12 22 31 24 32 26 31" fill="#e5e5e5"/>
      <polygon points="26 12 24 11 22 12 22 31 24 32 26 31" opacity=".1"/>
      <polygon points="26 31 26 12 24 13 24 32" opacity=".29"/>
      <polygon points="22 31 22 12 24 13 24 32" opacity=".11"/>
     </g>
     <g class="top-level-node" transform="translate(796,188)">
      <polygon points="10 4 8 3 6 4 6 23 8 24 10 23" fill="#e5e5e5"/>
      <polygon points="10 4 8 3 6 4 6 23 8 24 10 23" opacity=".1"/>
      <polygon points="10 23 10 4 8 5 8 24" opacity=".29"/>
      <polygon points="6 23 6 4 8 5 8 24" opacity=".11"/>
      <polygon points="8 22 8 7 22 14 22 29" fill="#e5e5e5"/>
      <polygon points="8 22 8 7 22 14 22 29" opacity=".11"/>
      <polygon points="24 13 10 6 8 7 22 14" fill="#e5e5e5"/>
      <polygon points="26 12 24 11 22 12 22 31 24 32 26 31" fill="#e5e5e5"/>
      <polygon points="26 12 24 11 22 12 22 31 24 32 26 31" opacity=".1"/>
      <polygon points="26 31 26 12 24 13 24 32" opacity=".29"/>
      <polygon points="22 31 22 12 24 13 24 32" opacity=".11"/>
     </g>
     <g class="top-level-node" transform="translate(812,196)">
      <polygon points="10 4 8 3 6 4 6 23 8 24 10 23" fill="#e5e5e5"/>
      <polygon points="10 4 8 3 6 4 6 23 8 24 10 23" opacity=".1"/>
      <polygon points="10 23 10 4 8 5 8 24" opacity=".29"/>
      <polygon points="6 23 6 4 8 5 8 24" opacity=".11"/>
      <polygon points="8 22 8 7 22 14 22 29" fill="#e5e5e5"/>
      <polygon points="8 22 8 7 22 14 22 29" opacity=".11"/>
      <polygon points="24 13 10 6 8 7 22 14" fill="#e5e5e5"/>
      <polygon points="26 12 24 11 22 12 22 31 24 32 26 31" fill="#e5e5e5"/>
      <polygon points="26 12 24 11 22 12 22 31 24 32 26 31" opacity=".1"/>
      <polygon points="26 31 26 12 24 13 24 32" opacity=".29"/>
      <polygon points="22 31 22 12 24 13 24 32" opacity=".11"/>
     </g>
     <g class="top-level-node" transform="matrix(-1,0,0,1,712,224)">
      <polygon points="5 23.4 7 22.4 7 25.9 5 26.9" fill="#2d3134"/>
      <polygon points="17 22 55 41 41 48 3 29" opacity=".3"/>
      <path d="m35.5 37.8c-0.7-0.4-1.4-0.4-1.9-0.2l-1.4 0.7c-0.5 0.2-0.9 0.8-0.9 1.6 0 1.5 1.3 3.4 2.8 4.2 0.8 0.4 1.5 0.4 2 0.2 0 0 1.4-0.7 1.5-0.8 0.5-0.3 0.7-0.8 0.7-1.5 0-1.6-1.3-3.5-2.8-4.2z" fill="#2d3134"/>
      <path d="m36 44.2c0.2-0.1 1.4-0.7 1.5-0.7 0.5-0.3 0.7-0.8 0.7-1.5 0-0.6-0.2-1.3-0.5-1.9l-1.4 0.7c0.3 0.6 0.5 1.3 0.5 1.9 0 0.7-0.3 1.3-0.8 1.5z" opacity=".06"/>
      <path d="m36.2 42.3c0 1.2-0.9 1.6-2.1 1s-2.1-2-2.1-3.2 0.9-1.6 2.1-1 2.1 2 2.1 3.2z" fill="#999"/>
      <path d="m34.2 43.3c-1.2-0.6-2.1-2-2.1-3.2 0-0.6 0.2-1 0.6-1.2-0.5 0.1-0.8 0.6-0.8 1.2 0 1.2 0.9 2.6 2.1 3.2 0.6 0.3 1.1 0.3 1.5 0.1-0.3 0.2-0.8 0.1-1.3-0.1z" fill="#808285"/>
      <path d="m35.1 41.6c0 0.5-0.4 0.7-0.9 0.4-0.5-0.2-0.9-0.8-0.9-1.3s0.4-0.7 0.9-0.4c0.5 0.2 0.9 0.8 0.9 1.3z" fill="#2d3134"/>
      <path d="m35.1 41.6c0 0.5-0.4 0.7-0.9 0.4-0.5-0.2-0.9-0.8-0.9-1.3s0.4-0.7 0.9-0.4c0.5 0.2 0.9 0.8 0.9 1.3z" opacity=".06"/>
      <path d="m34.9 41.7c0 0.5-0.4 0.7-0.9 0.4-0.5-0.2-0.9-0.8-0.9-1.3s0.4-0.7 0.9-0.4c0.5 0.2 0.9 0.8 0.9 1.3z" fill="#2d3134"/>
      <path d="m36.8 42.7c0 1.5-1.3 2.2-2.8 1.4s-2.8-2.7-2.8-4.2 1.3-2.2 2.8-1.4 2.8 2.6 2.8 4.2z" opacity=".39"/>
      <path d="m8.9 24.5c-0.7-0.4-1.4-0.4-1.9-0.2l-1.4 0.7c-0.5 0.2-0.9 0.8-0.9 1.6 0 1.5 1.3 3.4 2.8 4.2 0.8 0.4 1.5 0.4 2 0.2 0 0 1.4-0.7 1.5-0.8 0.5-0.3 0.7-0.8 0.7-1.5 0.1-1.5-1.2-3.4-2.8-4.2z" fill="#2d3134"/>
      <path d="m9.5 31c0.2-0.1 1.4-0.7 1.5-0.7 0.5-0.3 0.7-0.8 0.7-1.5 0-0.6-0.2-1.3-0.5-1.9l-1.4 0.7c0.3 0.6 0.5 1.3 0.5 1.9 0.1 0.7-0.3 1.2-0.8 1.5z" opacity=".06"/>
      <path d="m9.6 29.1c0 1.2-0.9 1.6-2.1 1s-2.1-2-2.1-3.2 0.9-1.6 2.1-1 2.1 2 2.1 3.2z" fill="#999"/>
      <path d="m7.7 30c-1.2-0.6-2.1-2-2.1-3.2 0-0.6 0.2-1 0.6-1.2-0.5 0.1-0.8 0.6-0.8 1.2 0 1.2 0.9 2.6 2.1 3.2 0.6 0.3 1.1 0.3 1.5 0.1-0.3 0.2-0.8 0.2-1.3-0.1z" fill="#808285"/>
      <path d="m8.6 28.4c0 0.5-0.4 0.7-0.9 0.4s-0.9-0.8-0.9-1.3 0.4-0.7 0.9-0.4 0.9 0.8 0.9 1.3z" fill="#2d3134"/>
      <path d="m8.6 28.4c0 0.5-0.4 0.7-0.9 0.4s-0.9-0.8-0.9-1.3 0.4-0.7 0.9-0.4 0.9 0.8 0.9 1.3z" opacity=".06"/>
      <path d="m8.4 28.4c0 0.5-0.4 0.7-0.9 0.4s-0.9-0.8-0.9-1.3 0.4-0.7 0.9-0.4 0.9 0.9 0.9 1.3z" fill="#2d3134"/>
      <path d="m10.4 29.4c0 1.5-1.3 2.2-2.8 1.4-1.6-0.8-2.8-2.6-2.8-4.2 0-1.5 1.3-2.2 2.8-1.4s2.8 2.7 2.8 4.2z" opacity=".39"/>
      <path d="m5 11.9 14-7 6 3v13.8l-13.9 7c-0.2-0.7-0.6-1.4-1.1-2.1-1.5-1.8-3.6-2.5-4.8-1.5-0.5 0.4-0.7 1-0.8 1.6l-1.4-0.8v-8z" fill="#e5e5e5"/>
      <polygon points="25 21.7 11 28.7 11 14.9 25 7.9" opacity=".06"/>
      <polygon points="36.5 43.7 39 42.4 39 38.7 36.5 39.9" fill="#2d3134"/>
      <polygon points="36.5 43.7 39 42.4 39 38.7 36.5 39.9" opacity=".39"/>
      <polygon points="58 37 44 44 44 42 58 35" fill="#2d3134"/>
      <polygon points="8.5 20.2 9.5 20.7 9.5 20.2 8.5 19.7" fill="#2d3134" opacity=".5"/>
      <polygon points="8.5 20.4 8.5 20.2 9.5 20.7 9.5 20.9" fill="#fff" opacity=".5"/>
      <path d="m3.6 17.7 1.6-4.7c0.1-0.2 0.3-0.3 0.4-0.2l3.7 1.9c0.1 0.1 0.2 0.2 0.2 0.3v3.8c0 0.2-0.2 0.4-0.4 0.3l-1.6-0.8c-0.3-0.3-0.7-0.3-1-0.3l-1.9 0.4h-0.2l-0.7-0.3c-0.1-0.1-0.1-0.3-0.1-0.4z" fill="#39c"/>
      <path d="m3.6 17.7 1.6-4.7c0.1-0.2 0.3-0.3 0.4-0.2l-1.5 4.6c0 0.1 0 0.3 0.1 0.4l0.7 0.3h0.2l1.9-0.4c0.4-0.1 0.7 0 1 0.1l1.5 0.8v0.1c0 0.2-0.2 0.4-0.4 0.3l-1.6-0.8c-0.3-0.2-0.7-0.2-1-0.2l-1.9 0.4h-0.2l-0.7-0.3c-0.1-0.1-0.1-0.3-0.1-0.4z" opacity=".15"/>
      <polygon points="5 26.9 5 24.9 3 23.9 3 25.9" fill="#2d3134"/>
      <polygon points="3.5 24.2 3.5 22.2 3 21.9 3 23.9" fill="#fc0"/>
      <g fill="#cc291f">
       <polygon points="57.5 36.7 56.5 37.2 56.5 36.2 57.5 35.7"/>
       <polygon points="56 37.4 55 37.9 55 36.9 56 36.4"/>
       <polygon points="47 41.9 46 42.4 46 41.4 47 40.9"/>
       <polygon points="45.5 42.7 44.5 43.2 44.5 42.2 45.5 41.7"/>
      </g>
      <polygon points="53.5 38.4 48.5 40.9 48.5 39.7 53.5 37.2" fill="#fff"/>
      <path d="m5 11.9 6 3v13.5c-0.2-0.6-0.6-1.3-1-1.9-1.5-1.8-3.6-2.5-4.8-1.5-0.5 0.4-0.7 1-0.8 1.6l-1.4-0.7v-8z" opacity=".39"/>
      <polygon points="12 28 44 44 44 42 12 26" fill="#2d3134"/>
      <polygon points="58 31 26 15 12 22 12 26 44 42 58 35" fill="#28896d"/>
      <polygon points="26 20 26 16 56 31 52 33" opacity=".39"/>
      <polygon points="26 20 26 16 14 22 18 24" opacity=".06"/>
      <polygon points="12 28 12 22 44 38.1 44 44" opacity=".39"/>
      <polygon points="44 38 44 44 58 37 58 31" opacity=".06"/>
      <path d="m26 15-14 7 32 16 14-7zm18 22-30-15 12-6 30 15z" fill="#28896d"/>
      <polygon points="26 20 18 24 44 37 52 33" fill="#fff" opacity=".1"/>
     </g>
     <g class="top-level-node" transform="matrix(-1,0,0,1,696,236)">
      <polygon points="8 0.8 0.6 4.5 0.6 11.9 8 15.6 15.4 11.9 15.4 4.5" fill="#fc0"/>
      <polygon points="0.6 11.9 0.6 4.5 8 8.2 8 15.6" opacity=".29"/>
      <polygon points="12.6 5.9 5.2 2.2 3.4 3.1 10.8 6.8 10.8 10.4 12.6 9.5" opacity=".3"/>
      <polygon points="15.4 11.9 15.4 4.5 8 8.2 8 15.6" opacity=".11"/>
     </g>
     <g class="top-level-node" transform="translate(568,212)">
      <polygon points="22 4 24 3 26 4 26 23 24 24 22 23" fill="#e5e5e5"/>
      <polygon points="22 4 24 3 26 4 26 23 24 24 22 23" opacity=".1"/>
      <polygon points="22 23 22 4 24 5 24 24" opacity=".11"/>
      <polygon points="26 23 26 4 24 5 24 24" opacity=".29"/>
      <polygon points="24 22 24 7 10 14 10 29" fill="#e5e5e5"/>
      <polygon points="24 22 24 7 10 14 10 29" opacity=".29"/>
      <polygon points="8 13 22 6 24 7 10 14" fill="#e5e5e5"/>
      <polygon points="6 12 8 11 10 12 10 31 8 32 6 31" fill="#e5e5e5"/>
      <polygon points="6 12 8 11 10 12 10 31 8 32 6 31" opacity=".1"/>
      <polygon points="6 31 6 12 8 13 8 32" opacity=".11"/>
      <polygon points="10 31 10 12 8 13 8 32" opacity=".29"/>
     </g>
     <g class="top-level-node" transform="translate(552,220)">
      <polygon points="22 4 24 3 26 4 26 23 24 24 22 23" fill="#e5e5e5"/>
      <polygon points="22 4 24 3 26 4 26 23 24 24 22 23" opacity=".1"/>
      <polygon points="22 23 22 4 24 5 24 24" opacity=".11"/>
      <polygon points="26 23 26 4 24 5 24 24" opacity=".29"/>
      <polygon points="24 22 24 7 10 14 10 29" fill="#e5e5e5"/>
      <polygon points="24 22 24 7 10 14 10 29" opacity=".29"/>
      <polygon points="8 13 22 6 24 7 10 14" fill="#e5e5e5"/>
      <polygon points="6 12 8 11 10 12 10 31 8 32 6 31" fill="#e5e5e5"/>
      <polygon points="6 12 8 11 10 12 10 31 8 32 6 31" opacity=".1"/>
      <polygon points="6 31 6 12 8 13 8 32" opacity=".11"/>
      <polygon points="10 31 10 12 8 13 8 32" opacity=".29"/>
     </g>
     <g class="top-level-node" transform="translate(536,228)">
      <polygon points="22 4 24 3 26 4 26 23 24 24 22 23" fill="#e5e5e5"/>
      <polygon points="22 4 24 3 26 4 26 23 24 24 22 23" opacity=".1"/>
      <polygon points="22 23 22 4 24 5 24 24" opacity=".11"/>
      <polygon points="26 23 26 4 24 5 24 24" opacity=".29"/>
      <polygon points="24 22 24 7 10 14 10 29" fill="#e5e5e5"/>
      <polygon points="24 22 24 7 10 14 10 29" opacity=".29"/>
      <polygon points="8 13 22 6 24 7 10 14" fill="#e5e5e5"/>
      <polygon points="6 12 8 11 10 12 10 31 8 32 6 31" fill="#e5e5e5"/>
      <polygon points="6 12 8 11 10 12 10 31 8 32 6 31" opacity=".1"/>
      <polygon points="6 31 6 12 8 13 8 32" opacity=".11"/>
      <polygon points="10 31 10 12 8 13 8 32" opacity=".29"/>
     </g>
     <g class="top-level-node" transform="translate(520,236)">
      <polygon points="22 4 24 3 26 4 26 23 24 24 22 23" fill="#e5e5e5"/>
      <polygon points="22 4 24 3 26 4 26 23 24 24 22 23" opacity=".1"/>
      <polygon points="22 23 22 4 24 5 24 24" opacity=".11"/>
      <polygon points="26 23 26 4 24 5 24 24" opacity=".29"/>
      <polygon points="24 22 24 7 10 14 10 29" fill="#e5e5e5"/>
      <polygon points="24 22 24 7 10 14 10 29" opacity=".29"/>
      <polygon points="8 13 22 6 24 7 10 14" fill="#e5e5e5"/>
      <polygon points="6 12 8 11 10 12 10 31 8 32 6 31" fill="#e5e5e5"/>
      <polygon points="6 12 8 11 10 12 10 31 8 32 6 31" opacity=".1"/>
      <polygon points="6 31 6 12 8 13 8 32" opacity=".11"/>
      <polygon points="10 31 10 12 8 13 8 32" opacity=".29"/>
     </g>
     <g class="top-level-node" transform="matrix(-1,0,0,1,592,216)">
      <polygon points="24 7.4 22.8 8 22.8 32 24 32.6 25.2 32 25.2 8" fill="#36c"/>
      <polygon points="22.8 32 22.8 8 24 8.6 24 32.6" opacity=".29"/>
      <polygon points="25.2 32 25.2 8 24 8.6 24 32.6" opacity=".11"/>
      <polygon points="56 23.4 54.8 24 54.8 48 56 48.6 57.2 48 57.2 24" fill="#36c"/>
      <polygon points="54.8 48 54.8 24 56 24.6 56 48.6" opacity=".29"/>
      <polygon points="57.2 48 57.2 24 56 24.6 56 48.6" opacity=".11"/>
      <polygon points="16 11.4 14.8 12 14.8 36 16 36.6 17.2 36 17.2 12" fill="#36c"/>
      <polygon points="14.8 36 14.8 12 16 12.6 16 36.6" opacity=".29"/>
      <polygon points="17.2 36 17.2 12 16 12.6 16 36.6" opacity=".11"/>
      <polygon points="24 31.6 16 35.6 16 36.2 48 52.2 56 48.2 56 47.6" fill="#999"/>
      <polygon points="16 36.2 16 35.6 48 51.6 48 52.2" opacity=".29"/>
      <polygon points="56 48.2 56 47.6 48 51.6 48 52.2" opacity=".11"/>
      <polygon points="48 36.5 55.4 40.2 55.4 47.6 48 51.3 40.6 47.6 40.6 40.2" fill="#fc0"/>
      <polygon points="55.4 47.6 55.4 40.2 48 43.9 48 51.3" opacity=".11"/>
      <polygon points="43.4 41.6 50.8 37.9 52.6 38.8 45.2 42.5 45.2 46.1 43.4 45.2" opacity=".3"/>
      <polygon points="40.6 47.6 40.6 40.2 48 43.9 48 51.3" opacity=".29"/>
      <polygon points="24 23.6 16 27.6 16 28.2 48 44.2 56 40.2 56 39.6" fill="#999"/>
      <polygon points="16 28.2 16 27.6 48 43.6 48 44.2" opacity=".29"/>
      <polygon points="56 40.2 56 39.6 48 43.6 48 44.2" opacity=".11"/>
      <polygon points="48 28.5 55.4 32.2 55.4 39.6 48 43.3 40.6 39.6 40.6 32.2" fill="#fc0"/>
      <polygon points="55.4 39.6 55.4 32.2 48 35.9 48 43.3" opacity=".11"/>
      <polygon points="43.4 33.6 50.8 29.9 52.6 30.8 45.2 34.5 45.2 38.1 43.4 37.2" opacity=".3"/>
      <polygon points="40.6 39.6 40.6 32.2 48 35.9 48 43.3" opacity=".29"/>
      <polygon points="56 33.6 56 33 55.4 32.7 49.1 41.4 49.1 42.9" fill="#36c"/>
      <polygon points="56 33.6 56 33 49.1 42.3 49.1 42.9" opacity=".11"/>
      <polygon points="56 41.6 56 41 55.4 40.7 49.1 49.4 49.1 50.9" fill="#36c"/>
      <polygon points="56 41.6 56 41 49.1 50.3 49.1 50.9" opacity=".11"/>
      <polygon points="24 15.6 16 19.6 16 20.2 48 36.2 56 32.2 56 31.6" fill="#999"/>
      <polygon points="16 20.2 16 19.6 48 35.6 48 36.2" opacity=".29"/>
      <polygon points="56 32.2 56 31.6 48 35.6 48 36.2" opacity=".11"/>
      <polygon points="24 8.5 31.4 12.2 31.4 19.6 24 23.3 16.6 19.6 16.6 12.2" fill="#fc0"/>
      <polygon points="31.4 19.6 31.4 12.2 24 15.9 24 23.3" opacity=".11"/>
      <polygon points="19.4 13.6 26.8 9.9 28.6 10.8 21.2 14.5 21.2 18.1 19.4 17.2" opacity=".3"/>
      <polygon points="16.6 19.6 16.6 12.2 24 15.9 24 23.3" opacity=".29"/>
      <polygon points="32 12.5 39.4 16.2 39.4 23.6 32 27.3 24.6 23.6 24.6 16.2" fill="#fc0"/>
      <polygon points="39.4 23.6 39.4 16.2 32 19.9 32 27.3" opacity=".11"/>
      <polygon points="27.4 17.6 34.8 13.9 36.6 14.8 29.2 18.5 29.2 22.1 27.4 21.2" opacity=".3"/>
      <polygon points="24.6 23.6 24.6 16.2 32 19.9 32 27.3" opacity=".29"/>
      <polygon points="40 16.5 47.4 20.2 47.4 27.6 40 31.3 32.6 27.6 32.6 20.2" fill="#fc0"/>
      <polygon points="47.4 27.6 47.4 20.2 40 23.9 40 31.3" opacity=".11"/>
      <polygon points="35.4 21.6 42.8 17.9 44.6 18.8 37.2 22.5 37.2 26.1 35.4 25.2" opacity=".3"/>
      <polygon points="32.6 27.6 32.6 20.2 40 23.9 40 31.3" opacity=".29"/>
      <polygon points="48 20.5 55.4 24.2 55.4 31.6 48 35.3 40.6 31.6 40.6 24.2" fill="#fc0"/>
      <polygon points="55.4 31.6 55.4 24.2 48 27.9 48 35.3" opacity=".11"/>
      <polygon points="43.4 25.6 50.8 21.9 52.6 22.8 45.2 26.5 45.2 30.1 43.4 29.2" opacity=".3"/>
      <polygon points="40.6 31.6 40.6 24.2 48 27.9 48 35.3" opacity=".29"/>
      <polygon points="56 25.7 56 25.1 55.4 24.8 49.1 33.5 49.1 35" fill="#36c"/>
      <polygon points="56 25.7 56 25.1 49.1 34.4 49.1 35" opacity=".11"/>
      <polygon points="48 27.4 46.8 28 46.8 52 48 52.6 49.2 52 49.2 28" fill="#36c"/>
      <polygon points="46.8 52 46.8 28 48 28.6 48 52.6" opacity=".29"/>
      <polygon points="49.2 52 49.2 28 48 28.6 48 52.6" opacity=".11"/>
      <polygon points="16 11.4 14.8 12 14.8 36 16 36.6 17.2 36 17.2 12" fill="#36c"/>
      <polygon points="14.8 36 14.8 12 16 12.6 16 36.6" opacity=".29"/>
      <polygon points="17.2 36 17.2 12 16 12.6 16 36.6" opacity=".11"/>
      <polygon points="48 27.4 46.8 28 46.8 52 48 52.6 49.2 52 49.2 28" fill="#36c"/>
      <polygon points="46.8 52 46.8 28 48 28.6 48 52.6" opacity=".29"/>
      <polygon points="49.2 52 49.2 28 48 28.6 48 52.6" opacity=".11"/>
      <polygon points="8 15.4 6.8 16 6.8 40 8 40.6 9.2 40 9.2 16" fill="#36c"/>
      <polygon points="6.8 40 6.8 16 8 16.6 8 40.6" opacity=".29"/>
      <polygon points="9.2 40 9.2 16 8 16.6 8 40.6" opacity=".11"/>
      <polygon points="16 35.6 8 39.6 8 40.2 40 56.2 48 52.2 48 51.6" fill="#999"/>
      <polygon points="8 40.2 8 39.6 40 55.6 40 56.2" opacity=".29"/>
      <polygon points="48 52.2 48 51.6 40 55.6 40 56.2" opacity=".11"/>
      <polygon points="16 28.5 23.4 32.2 23.4 39.6 16 43.3 8.6 39.6 8.6 32.2" fill="#fc0"/>
      <polygon points="23.4 39.6 23.4 32.2 16 35.9 16 43.3" opacity=".11"/>
      <polygon points="11.4 33.6 18.8 29.9 20.6 30.8 13.2 34.5 13.2 38.1 11.4 37.2" opacity=".3"/>
      <polygon points="8.6 39.6 8.6 32.2 16 35.9 16 43.3" opacity=".29"/>
      <polygon points="24 32.5 31.4 36.2 31.4 43.6 24 47.3 16.6 43.6 16.6 36.2" fill="#fc0"/>
      <polygon points="31.4 43.6 31.4 36.2 24 39.9 24 47.3" opacity=".11"/>
      <polygon points="19.4 37.6 26.8 33.9 28.6 34.8 21.2 38.5 21.2 42.1 19.4 41.2" opacity=".3"/>
      <polygon points="16.6 43.6 16.6 36.2 24 39.9 24 47.3" opacity=".29"/>
      <polygon points="32 36.5 39.4 40.2 39.4 47.6 32 51.3 24.6 47.6 24.6 40.2" fill="#fc0"/>
      <polygon points="39.4 47.6 39.4 40.2 32 43.9 32 51.3" opacity=".11"/>
      <polygon points="27.4 41.6 34.8 37.9 36.6 38.8 29.2 42.5 29.2 46.1 27.4 45.2" opacity=".3"/>
      <polygon points="24.6 47.6 24.6 40.2 32 43.9 32 51.3" opacity=".29"/>
      <polygon points="40 40.5 47.4 44.2 47.4 51.6 40 55.3 32.6 51.6 32.6 44.2" fill="#fc0"/>
      <polygon points="47.4 51.6 47.4 44.2 40 47.9 40 55.3" opacity=".11"/>
      <polygon points="35.4 45.6 42.8 41.9 44.6 42.8 37.2 46.5 37.2 50.1 35.4 49.2" opacity=".3"/>
      <polygon points="32.6 51.6 32.6 44.2 40 47.9 40 55.3" opacity=".29"/>
      <polygon points="16 27.6 8 31.6 8 32.2 40 48.2 48 44.2 48 43.6" fill="#999"/>
      <polygon points="8 32.2 8 31.6 40 47.6 40 48.2" opacity=".29"/>
      <polygon points="48 44.2 48 43.6 40 47.6 40 48.2" opacity=".11"/>
      <polygon points="16 20.5 23.4 24.2 23.4 31.6 16 35.3 8.6 31.6 8.6 24.2" fill="#fc0"/>
      <polygon points="23.4 31.6 23.4 24.2 16 27.9 16 35.3" opacity=".11"/>
      <polygon points="11.4 25.6 18.8 21.9 20.6 22.8 13.2 26.5 13.2 30.1 11.4 29.2" opacity=".3"/>
      <polygon points="8.6 31.6 8.6 24.2 16 27.9 16 35.3" opacity=".29"/>
      <polygon points="24 24.5 31.4 28.2 31.4 35.6 24 39.3 16.6 35.6 16.6 28.2" fill="#fc0"/>
      <polygon points="31.4 35.6 31.4 28.2 24 31.9 24 39.3" opacity=".11"/>
      <polygon points="19.4 29.6 26.8 25.9 28.6 26.8 21.2 30.5 21.2 34.1 19.4 33.2" opacity=".3"/>
      <polygon points="16.6 35.6 16.6 28.2 24 31.9 24 39.3" opacity=".29"/>
      <polygon points="32 28.5 39.4 32.2 39.4 39.6 32 43.3 24.6 39.6 24.6 32.2" fill="#fc0"/>
      <polygon points="39.4 39.6 39.4 32.2 32 35.9 32 43.3" opacity=".11"/>
      <polygon points="27.4 33.6 34.8 29.9 36.6 30.8 29.2 34.5 29.2 38.1 27.4 37.2" opacity=".3"/>
      <polygon points="24.6 39.6 24.6 32.2 32 35.9 32 43.3" opacity=".29"/>
      <polygon points="40 32.5 47.4 36.2 47.4 43.6 40 47.3 32.6 43.6 32.6 36.2" fill="#fc0"/>
      <polygon points="47.4 43.6 47.4 36.2 40 39.9 40 47.3" opacity=".11"/>
      <polygon points="35.4 37.6 42.8 33.9 44.6 34.8 37.2 38.5 37.2 42.1 35.4 41.2" opacity=".3"/>
      <polygon points="32.6 43.6 32.6 36.2 40 39.9 40 47.3" opacity=".29"/>
      <polygon points="48 37.6 48 37 47.4 36.7 41.1 45.4 41.1 46.9" fill="#36c"/>
      <polygon points="48 37.6 48 37 41.1 46.3 41.1 46.9" opacity=".11"/>
      <polygon points="48 45.6 48 45 47.4 44.7 41.1 53.4 41.1 54.9" fill="#36c"/>
      <polygon points="48 45.6 48 45 41.1 54.3 41.1 54.9" opacity=".11"/>
      <polygon points="16 19.6 8 23.6 8 24.2 40 40.2 48 36.2 48 35.6" fill="#999"/>
      <polygon points="8 24.2 8 23.6 40 39.6 40 40.2" opacity=".29"/>
      <polygon points="48 36.2 48 35.6 40 39.6 40 40.2" opacity=".11"/>
      <polygon points="16 12.5 23.4 16.2 23.4 23.6 16 27.3 8.6 23.6 8.6 16.2" fill="#fc0"/>
      <polygon points="23.4 23.6 23.4 16.2 16 19.9 16 27.3" opacity=".11"/>
      <polygon points="11.4 17.6 18.8 13.9 20.6 14.8 13.2 18.5 13.2 22.1 11.4 21.2" opacity=".3"/>
      <polygon points="8.6 23.6 8.6 16.2 16 19.9 16 27.3" opacity=".29"/>
      <polygon points="24 16.5 31.4 20.2 31.4 27.6 24 31.3 16.6 27.6 16.6 20.2" fill="#fc0"/>
      <polygon points="31.4 27.6 31.4 20.2 24 23.9 24 31.3" opacity=".11"/>
      <polygon points="19.4 21.6 26.8 17.9 28.6 18.8 21.2 22.5 21.2 26.1 19.4 25.2" opacity=".3"/>
      <polygon points="16.6 27.6 16.6 20.2 24 23.9 24 31.3" opacity=".29"/>
      <polygon points="32 20.5 39.4 24.2 39.4 31.6 32 35.3 24.6 31.6 24.6 24.2" fill="#fc0"/>
      <polygon points="39.4 31.6 39.4 24.2 32 27.9 32 35.3" opacity=".11"/>
      <polygon points="27.4 25.6 34.8 21.9 36.6 22.8 29.2 26.5 29.2 30.1 27.4 29.2" opacity=".3"/>
      <polygon points="24.6 31.6 24.6 24.2 32 27.9 32 35.3" opacity=".29"/>
      <polygon points="40 24.5 47.4 28.2 47.4 35.6 40 39.3 32.6 35.6 32.6 28.2" fill="#fc0"/>
      <polygon points="47.4 35.6 47.4 28.2 40 31.9 40 39.3" opacity=".11"/>
      <polygon points="35.4 29.6 42.8 25.9 44.6 26.8 37.2 30.5 37.2 34.1 35.4 33.2" opacity=".3"/>
      <polygon points="32.6 35.6 32.6 28.2 40 31.9 40 39.3" opacity=".29"/>
      <polygon points="48 29.7 48 29.1 47.4 28.8 41.1 37.5 41.1 39" fill="#36c"/>
      <polygon points="48 29.7 48 29.1 41.1 38.4 41.1 39" opacity=".11"/>
      <polygon points="40 31.4 38.8 32 38.8 56 40 56.6 41.2 56 41.2 32" fill="#36c"/>
      <polygon points="38.8 56 38.8 32 40 32.6 40 56.6" opacity=".29"/>
      <polygon points="41.2 56 41.2 32 40 32.6 40 56.6" opacity=".11"/>
     </g>
     <g class="top-level-node" transform="translate(556,268)">
      <polygon points="38 31 40 30 10 15 8 16" opacity=".2"/>
      <polygon points="10 5 8 4 6 5 6 15 8 16 10 15" fill="#e5e5e5"/>
      <polygon points="10 15 10 5 8 6 8 16" opacity=".29"/>
      <polygon points="6 15 6 5 8 6 8 16" opacity=".11"/>
      <polygon points="40 25 40 23 38 24 38 26" fill="#e5e5e5"/>
      <polygon points="40 25 40 23 38 24 38 26" opacity=".29"/>
      <polygon points="38 24 38 26 8 11 8 9" fill="#e5e5e5"/>
      <polygon points="38 24 40 23 10 8 8 9" fill="#e5e5e5"/>
      <g fill="#cc291f">
       <polygon points="11 12.5 13 11.5 15 12.5 13 13.5"/>
       <polygon points="16 11 13 11.5 15 12.5 18 12"/>
       <polygon points="18 16 20 15 22 16 20 17"/>
       <polygon points="25 19.5 27 18.5 29 19.5 27 20.5"/>
       <polygon points="32 23 34 22 36 23 34 24"/>
       <polygon points="23 14.5 20 15 22 16 25 15.5"/>
       <polygon points="30 18 27 18.5 29 19.5 32 19"/>
       <polygon points="37 21.5 34 22 36 23 39 22.5"/>
      </g>
      <polygon points="38 24 38 26 8 11 8 9" opacity=".11"/>
     </g>
     <g class="top-level-node" transform="translate(596,292)">
      <polygon points="30 23 32 22 2 7 0 8" opacity=".2"/>
      <polygon points="30 16 30 18 0 3 0 1" fill="#e5e5e5"/>
      <polygon points="30 16 32 15 2 0 0 1" fill="#e5e5e5"/>
      <g fill="#cc291f">
       <polygon points="3 4.5 5 3.5 7 4.5 5 5.5"/>
       <polygon points="8 3 5 3.5 7 4.5 10 4"/>
       <polygon points="10 8 12 7 14 8 12 9"/>
       <polygon points="17 11.5 19 10.5 21 11.5 19 12.5"/>
       <polygon points="24 15 26 14 28 15 26 16"/>
       <polygon points="15 6.5 12 7 14 8 17 7.5"/>
       <polygon points="22 10 19 10.5 21 11.5 24 11"/>
       <polygon points="29 13.5 26 14 28 15 31 14.5"/>
      </g>
      <polygon points="30 16 30 18 0 3 0 1" opacity=".11"/>
      <polygon points="34 13 32 12 30 13 30 23 32 24 34 23" fill="#e5e5e5"/>
      <polygon points="34 23 34 13 32 14 32 24" opacity=".29"/>
      <polygon points="30 23 30 13 32 14 32 24" opacity=".11"/>
     </g>
     <g class="top-level-node" transform="translate(628,296)">
      <polygon points="10 4 8 3 6 4 6 23 8 24 10 23" fill="#e5e5e5"/>
      <polygon points="10 4 8 3 6 4 6 23 8 24 10 23" opacity=".1"/>
      <polygon points="10 23 10 4 8 5 8 24" opacity=".29"/>
      <polygon points="6 23 6 4 8 5 8 24" opacity=".11"/>
      <polygon points="8 22 8 7 22 14 22 29" fill="#e5e5e5"/>
      <polygon points="8 22 8 7 22 14 22 29" opacity=".11"/>
      <polygon points="24 13 10 6 8 7 22 14" fill="#e5e5e5"/>
      <polygon points="26 12 24 11 22 12 22 31 24 32 26 31" fill="#e5e5e5"/>
      <polygon points="26 12 24 11 22 12 22 31 24 32 26 31" opacity=".1"/>
      <polygon points="26 31 26 12 24 13 24 32" opacity=".29"/>
      <polygon points="22 31 22 12 24 13 24 32" opacity=".11"/>
     </g>
     <g class="top-level-node" transform="translate(536,252)">
      <polygon points="10 4 8 3 6 4 6 23 8 24 10 23" fill="#e5e5e5"/>
      <polygon points="10 4 8 3 6 4 6 23 8 24 10 23" opacity=".1"/>
      <polygon points="10 23 10 4 8 5 8 24" opacity=".29"/>
      <polygon points="6 23 6 4 8 5 8 24" opacity=".11"/>
      <polygon points="8 22 8 7 22 14 22 29" fill="#e5e5e5"/>
      <polygon points="8 22 8 7 22 14 22 29" opacity=".11"/>
      <polygon points="24 13 10 6 8 7 22 14" fill="#e5e5e5"/>
      <polygon points="26 12 24 11 22 12 22 31 24 32 26 31" fill="#e5e5e5"/>
      <polygon points="26 12 24 11 22 12 22 31 24 32 26 31" opacity=".1"/>
      <polygon points="26 31 26 12 24 13 24 32" opacity=".29"/>
      <polygon points="22 31 22 12 24 13 24 32" opacity=".11"/>
     </g>
     <g class="top-level-node" transform="translate(520,244)">
      <polygon points="10 4 8 3 6 4 6 23 8 24 10 23" fill="#e5e5e5"/>
      <polygon points="10 4 8 3 6 4 6 23 8 24 10 23" opacity=".1"/>
      <polygon points="10 23 10 4 8 5 8 24" opacity=".29"/>
      <polygon points="6 23 6 4 8 5 8 24" opacity=".11"/>
      <polygon points="8 22 8 7 22 14 22 29" fill="#e5e5e5"/>
      <polygon points="8 22 8 7 22 14 22 29" opacity=".11"/>
      <polygon points="24 13 10 6 8 7 22 14" fill="#e5e5e5"/>
      <polygon points="26 12 24 11 22 12 22 31 24 32 26 31" fill="#e5e5e5"/>
      <polygon points="26 12 24 11 22 12 22 31 24 32 26 31" opacity=".1"/>
      <polygon points="26 31 26 12 24 13 24 32" opacity=".29"/>
      <polygon points="22 31 22 12 24 13 24 32" opacity=".11"/>
     </g>
     <g class="top-level-node" transform="matrix(-1,0,0,1,700,164)">
      <polygon points="24 7.4 22.8 8 22.8 32 24 32.6 25.2 32 25.2 8" fill="#36c"/>
      <polygon points="22.8 32 22.8 8 24 8.6 24 32.6" opacity=".29"/>
      <polygon points="25.2 32 25.2 8 24 8.6 24 32.6" opacity=".11"/>
      <polygon points="56 23.4 54.8 24 54.8 48 56 48.6 57.2 48 57.2 24" fill="#36c"/>
      <polygon points="54.8 48 54.8 24 56 24.6 56 48.6" opacity=".29"/>
      <polygon points="57.2 48 57.2 24 56 24.6 56 48.6" opacity=".11"/>
      <polygon points="16 11.4 14.8 12 14.8 36 16 36.6 17.2 36 17.2 12" fill="#36c"/>
      <polygon points="14.8 36 14.8 12 16 12.6 16 36.6" opacity=".29"/>
      <polygon points="17.2 36 17.2 12 16 12.6 16 36.6" opacity=".11"/>
      <polygon points="24 31.6 16 35.6 16 36.2 48 52.2 56 48.2 56 47.6" fill="#999"/>
      <polygon points="16 36.2 16 35.6 48 51.6 48 52.2" opacity=".29"/>
      <polygon points="56 48.2 56 47.6 48 51.6 48 52.2" opacity=".11"/>
      <polygon points="48 36.5 55.4 40.2 55.4 47.6 48 51.3 40.6 47.6 40.6 40.2" fill="#fc0"/>
      <polygon points="55.4 47.6 55.4 40.2 48 43.9 48 51.3" opacity=".11"/>
      <polygon points="43.4 41.6 50.8 37.9 52.6 38.8 45.2 42.5 45.2 46.1 43.4 45.2" opacity=".3"/>
      <polygon points="40.6 47.6 40.6 40.2 48 43.9 48 51.3" opacity=".29"/>
      <polygon points="24 23.6 16 27.6 16 28.2 48 44.2 56 40.2 56 39.6" fill="#999"/>
      <polygon points="16 28.2 16 27.6 48 43.6 48 44.2" opacity=".29"/>
      <polygon points="56 40.2 56 39.6 48 43.6 48 44.2" opacity=".11"/>
      <polygon points="48 28.5 55.4 32.2 55.4 39.6 48 43.3 40.6 39.6 40.6 32.2" fill="#fc0"/>
      <polygon points="55.4 39.6 55.4 32.2 48 35.9 48 43.3" opacity=".11"/>
      <polygon points="43.4 33.6 50.8 29.9 52.6 30.8 45.2 34.5 45.2 38.1 43.4 37.2" opacity=".3"/>
      <polygon points="40.6 39.6 40.6 32.2 48 35.9 48 43.3" opacity=".29"/>
      <polygon points="56 33.6 56 33 55.4 32.7 49.1 41.4 49.1 42.9" fill="#36c"/>
      <polygon points="56 33.6 56 33 49.1 42.3 49.1 42.9" opacity=".11"/>
      <polygon points="56 41.6 56 41 55.4 40.7 49.1 49.4 49.1 50.9" fill="#36c"/>
      <polygon points="56 41.6 56 41 49.1 50.3 49.1 50.9" opacity=".11"/>
      <polygon points="24 15.6 16 19.6 16 20.2 48 36.2 56 32.2 56 31.6" fill="#999"/>
      <polygon points="16 20.2 16 19.6 48 35.6 48 36.2" opacity=".29"/>
      <polygon points="56 32.2 56 31.6 48 35.6 48 36.2" opacity=".11"/>
      <polygon points="24 8.5 31.4 12.2 31.4 19.6 24 23.3 16.6 19.6 16.6 12.2" fill="#fc0"/>
      <polygon points="31.4 19.6 31.4 12.2 24 15.9 24 23.3" opacity=".11"/>
      <polygon points="19.4 13.6 26.8 9.9 28.6 10.8 21.2 14.5 21.2 18.1 19.4 17.2" opacity=".3"/>
      <polygon points="16.6 19.6 16.6 12.2 24 15.9 24 23.3" opacity=".29"/>
      <polygon points="32 12.5 39.4 16.2 39.4 23.6 32 27.3 24.6 23.6 24.6 16.2" fill="#fc0"/>
      <polygon points="39.4 23.6 39.4 16.2 32 19.9 32 27.3" opacity=".11"/>
      <polygon points="27.4 17.6 34.8 13.9 36.6 14.8 29.2 18.5 29.2 22.1 27.4 21.2" opacity=".3"/>
      <polygon points="24.6 23.6 24.6 16.2 32 19.9 32 27.3" opacity=".29"/>
      <polygon points="40 16.5 47.4 20.2 47.4 27.6 40 31.3 32.6 27.6 32.6 20.2" fill="#fc0"/>
      <polygon points="47.4 27.6 47.4 20.2 40 23.9 40 31.3" opacity=".11"/>
      <polygon points="35.4 21.6 42.8 17.9 44.6 18.8 37.2 22.5 37.2 26.1 35.4 25.2" opacity=".3"/>
      <polygon points="32.6 27.6 32.6 20.2 40 23.9 40 31.3" opacity=".29"/>
      <polygon points="48 20.5 55.4 24.2 55.4 31.6 48 35.3 40.6 31.6 40.6 24.2" fill="#fc0"/>
      <polygon points="55.4 31.6 55.4 24.2 48 27.9 48 35.3" opacity=".11"/>
      <polygon points="43.4 25.6 50.8 21.9 52.6 22.8 45.2 26.5 45.2 30.1 43.4 29.2" opacity=".3"/>
      <polygon points="40.6 31.6 40.6 24.2 48 27.9 48 35.3" opacity=".29"/>
      <polygon points="56 25.7 56 25.1 55.4 24.8 49.1 33.5 49.1 35" fill="#36c"/>
      <polygon points="56 25.7 56 25.1 49.1 34.4 49.1 35" opacity=".11"/>
      <polygon points="48 27.4 46.8 28 46.8 52 48 52.6 49.2 52 49.2 28" fill="#36c"/>
      <polygon points="46.8 52 46.8 28 48 28.6 48 52.6" opacity=".29"/>
      <polygon points="49.2 52 49.2 28 48 28.6 48 52.6" opacity=".11"/>
      <polygon points="16 11.4 14.8 12 14.8 36 16 36.6 17.2 36 17.2 12" fill="#36c"/>
      <polygon points="14.8 36 14.8 12 16 12.6 16 36.6" opacity=".29"/>
      <polygon points="17.2 36 17.2 12 16 12.6 16 36.6" opacity=".11"/>
      <polygon points="48 27.4 46.8 28 46.8 52 48 52.6 49.2 52 49.2 28" fill="#36c"/>
      <polygon points="46.8 52 46.8 28 48 28.6 48 52.6" opacity=".29"/>
      <polygon points="49.2 52 49.2 28 48 28.6 48 52.6" opacity=".11"/>
      <polygon points="8 15.4 6.8 16 6.8 40 8 40.6 9.2 40 9.2 16" fill="#36c"/>
      <polygon points="6.8 40 6.8 16 8 16.6 8 40.6" opacity=".29"/>
      <polygon points="9.2 40 9.2 16 8 16.6 8 40.6" opacity=".11"/>
      <polygon points="16 35.6 8 39.6 8 40.2 40 56.2 48 52.2 48 51.6" fill="#999"/>
      <polygon points="8 40.2 8 39.6 40 55.6 40 56.2" opacity=".29"/>
      <polygon points="48 52.2 48 51.6 40 55.6 40 56.2" opacity=".11"/>
      <polygon points="16 28.5 23.4 32.2 23.4 39.6 16 43.3 8.6 39.6 8.6 32.2" fill="#fc0"/>
      <polygon points="23.4 39.6 23.4 32.2 16 35.9 16 43.3" opacity=".11"/>
      <polygon points="11.4 33.6 18.8 29.9 20.6 30.8 13.2 34.5 13.2 38.1 11.4 37.2" opacity=".3"/>
      <polygon points="8.6 39.6 8.6 32.2 16 35.9 16 43.3" opacity=".29"/>
      <polygon points="24 32.5 31.4 36.2 31.4 43.6 24 47.3 16.6 43.6 16.6 36.2" fill="#fc0"/>
      <polygon points="31.4 43.6 31.4 36.2 24 39.9 24 47.3" opacity=".11"/>
      <polygon points="19.4 37.6 26.8 33.9 28.6 34.8 21.2 38.5 21.2 42.1 19.4 41.2" opacity=".3"/>
      <polygon points="16.6 43.6 16.6 36.2 24 39.9 24 47.3" opacity=".29"/>
      <polygon points="32 36.5 39.4 40.2 39.4 47.6 32 51.3 24.6 47.6 24.6 40.2" fill="#fc0"/>
      <polygon points="39.4 47.6 39.4 40.2 32 43.9 32 51.3" opacity=".11"/>
      <polygon points="27.4 41.6 34.8 37.9 36.6 38.8 29.2 42.5 29.2 46.1 27.4 45.2" opacity=".3"/>
      <polygon points="24.6 47.6 24.6 40.2 32 43.9 32 51.3" opacity=".29"/>
      <polygon points="40 40.5 47.4 44.2 47.4 51.6 40 55.3 32.6 51.6 32.6 44.2" fill="#fc0"/>
      <polygon points="47.4 51.6 47.4 44.2 40 47.9 40 55.3" opacity=".11"/>
      <polygon points="35.4 45.6 42.8 41.9 44.6 42.8 37.2 46.5 37.2 50.1 35.4 49.2" opacity=".3"/>
      <polygon points="32.6 51.6 32.6 44.2 40 47.9 40 55.3" opacity=".29"/>
      <polygon points="16 27.6 8 31.6 8 32.2 40 48.2 48 44.2 48 43.6" fill="#999"/>
      <polygon points="8 32.2 8 31.6 40 47.6 40 48.2" opacity=".29"/>
      <polygon points="48 44.2 48 43.6 40 47.6 40 48.2" opacity=".11"/>
      <polygon points="16 20.5 23.4 24.2 23.4 31.6 16 35.3 8.6 31.6 8.6 24.2" fill="#fc0"/>
      <polygon points="23.4 31.6 23.4 24.2 16 27.9 16 35.3" opacity=".11"/>
      <polygon points="11.4 25.6 18.8 21.9 20.6 22.8 13.2 26.5 13.2 30.1 11.4 29.2" opacity=".3"/>
      <polygon points="8.6 31.6 8.6 24.2 16 27.9 16 35.3" opacity=".29"/>
      <polygon points="24 24.5 31.4 28.2 31.4 35.6 24 39.3 16.6 35.6 16.6 28.2" fill="#fc0"/>
      <polygon points="31.4 35.6 31.4 28.2 24 31.9 24 39.3" opacity=".11"/>
      <polygon points="19.4 29.6 26.8 25.9 28.6 26.8 21.2 30.5 21.2 34.1 19.4 33.2" opacity=".3"/>
      <polygon points="16.6 35.6 16.6 28.2 24 31.9 24 39.3" opacity=".29"/>
      <polygon points="32 28.5 39.4 32.2 39.4 39.6 32 43.3 24.6 39.6 24.6 32.2" fill="#fc0"/>
      <polygon points="39.4 39.6 39.4 32.2 32 35.9 32 43.3" opacity=".11"/>
      <polygon points="27.4 33.6 34.8 29.9 36.6 30.8 29.2 34.5 29.2 38.1 27.4 37.2" opacity=".3"/>
      <polygon points="24.6 39.6 24.6 32.2 32 35.9 32 43.3" opacity=".29"/>
      <polygon points="40 32.5 47.4 36.2 47.4 43.6 40 47.3 32.6 43.6 32.6 36.2" fill="#fc0"/>
      <polygon points="47.4 43.6 47.4 36.2 40 39.9 40 47.3" opacity=".11"/>
      <polygon points="35.4 37.6 42.8 33.9 44.6 34.8 37.2 38.5 37.2 42.1 35.4 41.2" opacity=".3"/>
      <polygon points="32.6 43.6 32.6 36.2 40 39.9 40 47.3" opacity=".29"/>
      <polygon points="48 37.6 48 37 47.4 36.7 41.1 45.4 41.1 46.9" fill="#36c"/>
      <polygon points="48 37.6 48 37 41.1 46.3 41.1 46.9" opacity=".11"/>
      <polygon points="48 45.6 48 45 47.4 44.7 41.1 53.4 41.1 54.9" fill="#36c"/>
      <polygon points="48 45.6 48 45 41.1 54.3 41.1 54.9" opacity=".11"/>
      <polygon points="16 19.6 8 23.6 8 24.2 40 40.2 48 36.2 48 35.6" fill="#999"/>
      <polygon points="8 24.2 8 23.6 40 39.6 40 40.2" opacity=".29"/>
      <polygon points="48 36.2 48 35.6 40 39.6 40 40.2" opacity=".11"/>
      <polygon points="16 12.5 23.4 16.2 23.4 23.6 16 27.3 8.6 23.6 8.6 16.2" fill="#fc0"/>
      <polygon points="23.4 23.6 23.4 16.2 16 19.9 16 27.3" opacity=".11"/>
      <polygon points="11.4 17.6 18.8 13.9 20.6 14.8 13.2 18.5 13.2 22.1 11.4 21.2" opacity=".3"/>
      <polygon points="8.6 23.6 8.6 16.2 16 19.9 16 27.3" opacity=".29"/>
      <polygon points="24 16.5 31.4 20.2 31.4 27.6 24 31.3 16.6 27.6 16.6 20.2" fill="#fc0"/>
      <polygon points="31.4 27.6 31.4 20.2 24 23.9 24 31.3" opacity=".11"/>
      <polygon points="19.4 21.6 26.8 17.9 28.6 18.8 21.2 22.5 21.2 26.1 19.4 25.2" opacity=".3"/>
      <polygon points="16.6 27.6 16.6 20.2 24 23.9 24 31.3" opacity=".29"/>
      <polygon points="32 20.5 39.4 24.2 39.4 31.6 32 35.3 24.6 31.6 24.6 24.2" fill="#fc0"/>
      <polygon points="39.4 31.6 39.4 24.2 32 27.9 32 35.3" opacity=".11"/>
      <polygon points="27.4 25.6 34.8 21.9 36.6 22.8 29.2 26.5 29.2 30.1 27.4 29.2" opacity=".3"/>
      <polygon points="24.6 31.6 24.6 24.2 32 27.9 32 35.3" opacity=".29"/>
      <polygon points="40 24.5 47.4 28.2 47.4 35.6 40 39.3 32.6 35.6 32.6 28.2" fill="#fc0"/>
      <polygon points="47.4 35.6 47.4 28.2 40 31.9 40 39.3" opacity=".11"/>
      <polygon points="35.4 29.6 42.8 25.9 44.6 26.8 37.2 30.5 37.2 34.1 35.4 33.2" opacity=".3"/>
      <polygon points="32.6 35.6 32.6 28.2 40 31.9 40 39.3" opacity=".29"/>
      <polygon points="48 29.7 48 29.1 47.4 28.8 41.1 37.5 41.1 39" fill="#36c"/>
      <polygon points="48 29.7 48 29.1 41.1 38.4 41.1 39" opacity=".11"/>
      <polygon points="40 31.4 38.8 32 38.8 56 40 56.6 41.2 56 41.2 32" fill="#36c"/>
      <polygon points="38.8 56 38.8 32 40 32.6 40 56.6" opacity=".29"/>
      <polygon points="41.2 56 41.2 32 40 32.6 40 56.6" opacity=".11"/>
     </g>
     <g class="top-level-node" transform="matrix(.1 0 0 .1 604 180)">
      <polygon points="540 615 220 455 10 580 310 730" opacity=".3"/>
      <path d="m498 614.3c-0.7-0.4-238.1-119-239-119.5-22.1-11-40-37.9-40-60 0-9.7 3.4-16.8 9.2-20.9l-43.7 21.8c-9.4 2.6-15.5 11-15.5 23.9 0 22.1 17.9 49 40 60 0.9 0.5 238.3 119.1 239 119.5 12 6 22.7 6.1 30 1.4l45.1-22.5c-6.9 2.1-15.6 1-25.1-3.7z" fill="#2d3134"/>
      <path d="m244 502.8c-2.1-1-4-1.2-5.4-0.5l-10.4 5.3c-1.5 0.7-2.4 2.2-2.4 4.4 0 4.3 3.5 9.6 7.8 11.7 2.1 1.1 4.1 1.2 5.5 0.5 0 0 10.4-5.3 10.7-5.4 1.3-0.8 2-2.2 2-4.2 0.1-4.4-3.4-9.6-7.8-11.8z" fill="#2d3134"/>
      <path d="m239.2 524.2c0.6-0.3 10.3-5.2 10.6-5.4 1.3-0.8 2-2.2 2-4.2 0-1.7-0.6-3.6-1.5-5.4l-10.4 5.3c1 1.8 1.5 3.7 1.5 5.4 0.1 2-0.8 3.5-2.2 4.3z" opacity=".29"/>
      <path d="m241.5 519.8c0 4.3-3.5 6.1-7.8 3.9s-7.8-7.4-7.8-11.7 3.5-6.1 7.8-3.9c4.3 2.1 7.8 7.4 7.8 11.7z" opacity=".11"/>
      <path d="m281.8 521.7c-2.1-1-4-1.2-5.4-0.5l-10.4 5.3c-1.5 0.7-2.4 2.2-2.4 4.4 0 4.3 3.5 9.6 7.8 11.7 2.1 1.1 4.1 1.2 5.5 0.5 0 0 10.4-5.3 10.7-5.4 1.3-0.8 2-2.2 2-4.2 0-4.4-3.5-9.7-7.8-11.8z" fill="#2d3134"/>
      <path d="m277 543c0.6-0.3 10.3-5.2 10.6-5.4 1.3-0.8 2-2.2 2-4.2 0-1.7-0.6-3.6-1.5-5.4l-10.4 5.3c1 1.8 1.5 3.7 1.5 5.4 0 2.1-0.9 3.6-2.2 4.3z" opacity=".29"/>
      <path d="m279.2 538.7c0 4.3-3.5 6.1-7.8 3.9s-7.8-7.4-7.8-11.7 3.5-6.1 7.8-3.9c4.3 2.1 7.8 7.4 7.8 11.7z" opacity=".11"/>
      <path d="m319.5 540.5c-2.1-1-4-1.2-5.4-0.5l-10.4 5.3c-1.5 0.7-2.4 2.2-2.4 4.4 0 4.3 3.5 9.6 7.8 11.7 2.1 1.1 4.1 1.2 5.5 0.5 0 0 10.4-5.3 10.7-5.4 1.3-0.8 2-2.2 2-4.2 0.1-4.3-3.4-9.6-7.8-11.8z" fill="#2d3134"/>
      <path d="m314.7 561.9c0.6-0.3 10.3-5.2 10.6-5.4 1.3-0.8 2-2.2 2-4.2 0-1.7-0.6-3.6-1.5-5.4l-10.4 5.3c1 1.8 1.5 3.7 1.5 5.4 0.1 2.1-0.8 3.6-2.2 4.3z" opacity=".29"/>
      <path d="m317 557.6c0 4.3-3.5 6.1-7.8 3.9s-7.8-7.4-7.8-11.7 3.5-6.1 7.8-3.9c4.3 2.1 7.8 7.3 7.8 11.7z" opacity=".11"/>
      <path d="m357.3 559.4c-2.1-1-4-1.2-5.4-0.5l-10.4 5.3c-1.5 0.7-2.4 2.2-2.4 4.4 0 4.3 3.5 9.6 7.8 11.7 2.1 1.1 4.1 1.2 5.5 0.5 0 0 10.4-5.3 10.7-5.4 1.3-0.8 2-2.2 2-4.2 0-4.4-3.5-9.6-7.8-11.8z" fill="#2d3134"/>
      <path d="m352.4 580.8c0.6-0.3 10.3-5.2 10.6-5.4 1.3-0.8 2-2.2 2-4.2 0-1.7-0.6-3.6-1.5-5.4l-10.4 5.3c1 1.8 1.5 3.7 1.5 5.4 0.1 2.1-0.8 3.6-2.2 4.3z" opacity=".29"/>
      <path d="m354.7 576.4c0 4.3-3.5 6.1-7.8 3.9s-7.8-7.4-7.8-11.7 3.5-6.1 7.8-3.9 7.8 7.4 7.8 11.7z" opacity=".11"/>
      <path d="m395 578.3c-2.1-1-4-1.2-5.4-0.5l-10.4 5.3c-1.5 0.7-2.4 2.2-2.4 4.4 0 4.3 3.5 9.6 7.8 11.7 2.1 1.1 4.1 1.2 5.5 0.5 0 0 10.4-5.3 10.7-5.4 1.3-0.8 2-2.2 2-4.2 0-4.4-3.5-9.6-7.8-11.8z" fill="#2d3134"/>
      <path d="m390.2 599.6c0.6-0.3 10.3-5.2 10.6-5.4 1.3-0.8 2-2.2 2-4.2 0-1.7-0.6-3.6-1.5-5.4l-10.4 5.3c1 1.8 1.5 3.7 1.5 5.4 0 2.1-0.8 3.6-2.2 4.3z" opacity=".29"/>
      <path d="m392.4 595.3c0 4.3-3.5 6.1-7.8 3.9s-7.8-7.4-7.8-11.7 3.5-6.1 7.8-3.9c4.3 2.1 7.8 7.4 7.8 11.7z" opacity=".11"/>
      <path d="m432.8 597.2c-2.1-1-4-1.2-5.4-0.5l-10.4 5.3c-1.5 0.7-2.4 2.2-2.4 4.4 0 4.3 3.5 9.6 7.8 11.7 2.1 1.1 4.1 1.2 5.5 0.5 0 0 10.4-5.3 10.7-5.4 1.3-0.8 2-2.2 2-4.2 0-4.4-3.5-9.7-7.8-11.8z" fill="#2d3134"/>
      <path d="m427.9 618.5c0.6-0.3 10.3-5.2 10.6-5.4 1.3-0.8 2-2.2 2-4.2 0-1.7-0.6-3.6-1.5-5.4l-10.4 5.3c1 1.8 1.5 3.7 1.5 5.4 0.1 2.1-0.8 3.6-2.2 4.3z" opacity=".29"/>
      <path d="m430.2 614.2c0 4.3-3.5 6.1-7.8 3.9s-7.8-7.4-7.8-11.7 3.5-6.1 7.8-3.9c4.3 2.1 7.8 7.4 7.8 11.7z" opacity=".11"/>
      <path d="m227.7 439.1c-5.7-2.8-10.8-3.2-14.6-1.5l-28.4 14.4c-4.1 1.8-6.7 6-6.7 12.1 0 11.8 9.5 26.1 21.3 32 5.8 2.9 11.1 3.2 14.9 1.3 0 0 28.3-14.3 29.2-14.9 3.4-2.1 5.5-6 5.5-11.5 0.1-11.7-9.4-26.1-21.2-31.9z" fill="#2d3134"/>
      <path d="m214.5 497.3c1.5-0.8 28.2-14.3 29-14.7 3.4-2.1 5.5-6 5.5-11.5 0-4.7-1.6-9.9-4.2-14.7l-28.4 14.4c2.6 4.8 4.2 10 4.2 14.7 0 5.8-2.3 9.9-6.1 11.8z" opacity=".29"/>
      <path d="m220.6 485.5c0 11.8-9.5 16.5-21.3 10.7-11.8-5.9-21.3-20.2-21.3-32s9.5-16.5 21.3-10.7c11.8 5.9 21.3 20.2 21.3 32z" opacity=".11"/>
      <polygon points="470 565 252 456 222 471 222 501 440 610 470 595" fill="#2d3134"/>
      <polygon points="222 471 440 580 440 610 222 501" opacity=".11"/>
      <polygon points="470 565 440 580 440 610 470 595" opacity=".29"/>
      <path d="m244 452.9c-2.1-1-4-1.2-5.4-0.5l-10.4 5.3c-1.5 0.7-2.4 2.2-2.4 4.4 0 4.3 3.5 9.6 7.8 11.7 2.1 1.1 4.1 1.2 5.5 0.5 0 0 10.4-5.3 10.7-5.4 1.3-0.8 2-2.2 2-4.2 0.1-4.4-3.4-9.6-7.8-11.8z" fill="#2d3134"/>
      <path d="m239.2 474.3c0.6-0.3 10.3-5.2 10.6-5.4 1.3-0.8 2-2.2 2-4.2 0-1.7-0.6-3.6-1.5-5.4l-10.4 5.3c1 1.8 1.5 3.7 1.5 5.4 0.1 2.1-0.8 3.6-2.2 4.3z" opacity=".29"/>
      <path d="m241.5 469.9c0 4.3-3.5 6.1-7.8 3.9s-7.8-7.4-7.8-11.7 3.5-6.1 7.8-3.9 7.8 7.4 7.8 11.7z" opacity=".11"/>
      <path d="m281.8 471.8c-2.1-1-4-1.2-5.4-0.5l-10.4 5.3c-1.5 0.7-2.4 2.2-2.4 4.4 0 4.3 3.5 9.6 7.8 11.7 2.1 1.1 4.1 1.2 5.5 0.5 0 0 10.4-5.3 10.7-5.4 1.3-0.8 2-2.2 2-4.2 0-4.4-3.5-9.7-7.8-11.8z" fill="#2d3134"/>
      <path d="m277 493.1c0.6-0.3 10.3-5.2 10.6-5.4 1.3-0.8 2-2.2 2-4.2 0-1.7-0.6-3.6-1.5-5.4l-10.4 5.3c1 1.8 1.5 3.7 1.5 5.4 0 2.1-0.9 3.6-2.2 4.3z" opacity=".29"/>
      <path d="m279.2 488.8c0 4.3-3.5 6.1-7.8 3.9s-7.8-7.4-7.8-11.7 3.5-6.1 7.8-3.9 7.8 7.4 7.8 11.7z" opacity=".11"/>
      <path d="m319.5 490.7c-2.1-1-4-1.2-5.4-0.5l-10.4 5.3c-1.5 0.7-2.4 2.2-2.4 4.4 0 4.3 3.5 9.6 7.8 11.7 2.1 1.1 4.1 1.2 5.5 0.5 0 0 10.4-5.3 10.7-5.4 1.3-0.8 2-2.2 2-4.2 0.1-4.4-3.4-9.7-7.8-11.8z" fill="#2d3134"/>
      <path d="m314.7 512c0.6-0.3 10.3-5.2 10.6-5.4 1.3-0.8 2-2.2 2-4.2 0-1.7-0.6-3.6-1.5-5.4l-10.4 5.3c1 1.8 1.5 3.7 1.5 5.4 0.1 2.1-0.8 3.6-2.2 4.3z" opacity=".29"/>
      <path d="m317 507.7c0 4.3-3.5 6.1-7.8 3.9s-7.8-7.4-7.8-11.7 3.5-6.1 7.8-3.9 7.8 7.4 7.8 11.7z" opacity=".11"/>
      <path d="m357.3 509.5c-2.1-1-4-1.2-5.4-0.5l-10.4 5.3c-1.5 0.7-2.4 2.2-2.4 4.4 0 4.3 3.5 9.6 7.8 11.7 2.1 1.1 4.1 1.2 5.5 0.5 0 0 10.4-5.3 10.7-5.4 1.3-0.8 2-2.2 2-4.2 0-4.4-3.5-9.6-7.8-11.8z" fill="#2d3134"/>
      <path d="m352.4 530.9c0.6-0.3 10.3-5.2 10.6-5.4 1.3-0.8 2-2.2 2-4.2 0-1.7-0.6-3.6-1.5-5.4l-10.4 5.3c1 1.8 1.5 3.7 1.5 5.4 0.1 2.1-0.8 3.6-2.2 4.3z" opacity=".29"/>
      <path d="m354.7 526.5c0 4.3-3.5 6.1-7.8 3.9s-7.8-7.4-7.8-11.7 3.5-6.1 7.8-3.9 7.8 7.4 7.8 11.7z" opacity=".11"/>
      <path d="m395 528.4c-2.1-1-4-1.2-5.4-0.5l-10.4 5.3c-1.5 0.7-2.4 2.2-2.4 4.4 0 4.3 3.5 9.6 7.8 11.7 2.1 1.1 4.1 1.2 5.5 0.5 0 0 10.4-5.3 10.7-5.4 1.3-0.8 2-2.2 2-4.2 0-4.4-3.5-9.6-7.8-11.8z" fill="#2d3134"/>
      <path d="m390.2 549.8c0.6-0.3 10.3-5.2 10.6-5.4 1.3-0.8 2-2.2 2-4.2 0-1.7-0.6-3.6-1.5-5.4l-10.4 5.3c1 1.8 1.5 3.7 1.5 5.4 0 2-0.8 3.5-2.2 4.3z" opacity=".29"/>
      <path d="m392.4 545.4c0 4.3-3.5 6.1-7.8 3.9s-7.8-7.4-7.8-11.7 3.5-6.1 7.8-3.9 7.8 7.4 7.8 11.7z" opacity=".11"/>
      <path d="m432.8 547.3c-2.1-1-4-1.2-5.4-0.5l-10.4 5.2c-1.5 0.7-2.4 2.2-2.4 4.4 0 4.3 3.5 9.6 7.8 11.7 2.1 1.1 4.1 1.2 5.5 0.5 0 0 10.4-5.3 10.7-5.4 1.3-0.8 2-2.2 2-4.2 0-4.3-3.5-9.6-7.8-11.7z" fill="#2d3134"/>
      <path d="m427.9 568.6c0.6-0.3 10.3-5.2 10.6-5.4 1.3-0.8 2-2.2 2-4.2 0-1.7-0.6-3.6-1.5-5.4l-10.4 5.3c1 1.8 1.5 3.7 1.5 5.4 0.1 2.1-0.8 3.6-2.2 4.3z" opacity=".29"/>
      <path d="m430.2 564.3c0 4.3-3.5 6.1-7.8 3.9s-7.8-7.4-7.8-11.7 3.5-6.1 7.8-3.9c4.3 2.1 7.8 7.4 7.8 11.7z" opacity=".11"/>
      <path d="m491.7 567.5c-5.7-2.8-10.8-3.2-14.6-1.5l-28.4 14.4c-4.1 1.8-6.7 6-6.7 12.1 0 11.8 9.5 26.1 21.3 32 5.8 2.9 11.1 3.2 14.9 1.3 0 0 28.3-14.3 29.2-14.9 3.4-2.1 5.5-6 5.5-11.5 0.1-11.7-9.4-26-21.2-31.9z" fill="#2d3134"/>
      <path d="m478.5 625.8c1.5-0.8 28.2-14.3 29-14.7 3.4-2.1 5.5-6 5.5-11.5 0-4.7-1.6-9.9-4.2-14.7l-28.4 14.4c2.6 4.8 4.2 10 4.2 14.7 0 5.7-2.3 9.8-6.1 11.8z" opacity=".29"/>
      <path d="m484.6 613.9c0 11.8-9.5 16.5-21.3 10.7-11.8-5.9-21.3-20.2-21.3-32s9.5-16.5 21.3-10.7c11.8 5.9 21.3 20.2 21.3 32z" opacity=".11"/>
      <g fill="#2d3134">
       <path d="m500 535.2v-0.1s-240.7-120.2-241-120.4c-12.6-6.3-22.9-5.2-31.1-0.7l-43.3 21.7c6.8-1.9 15.3-0.8 24.5 3.9 0.3 0.2 241 120.4 241 120.4v0.1c21.2 11.6 38 37.5 38 58.9 0 10.1-3.8 17.5-10 21.4l45.5-22.7c8.8-4.5 14.5-11.2 14.5-23.6-0.1-21.3-16.9-47.2-38.1-58.9z"/>
       <path d="m500 535.2v-0.1s-240.7-120.2-241-120.4c-12.6-6.3-22.9-5.2-31.1-0.7l-43.3 21.7c6.8-1.9 15.3-0.8 24.5 3.9 0.3 0.2 241 120.4 241 120.4v0.1c21.2 11.6 38 37.5 38 58.9 0 10.1-3.8 17.5-10 21.4l45.5-22.7c8.8-4.5 14.5-11.2 14.5-23.6-0.1-21.3-16.9-47.2-38.1-58.9z"/>
       <path d="m450 560.1v-0.1s-240.7-120.2-241-120.4c-22.1-11-40-2.1-40 20s17.9 49 40 60c0.9 0.5 238.3 119.1 239 119.5 22.1 11 40 2.1 40-20 0-21.5-16.8-47.4-38-59zm29.6 75.2c-3.3 3.6-8.1 5.5-13.8 5.5-5 0-10.7-1.5-16.5-4.4-0.7-0.4-238.1-119-239-119.5-21.1-10.6-38.3-36.3-38.3-57.3 0-13.6 7.2-21.7 19.1-21.7 5 0 10.7 1.5 16.5 4.4 0.3 0.2 218.1 109 239.3 119.6l1.6 0.9c20.4 11.2 36.4 36 36.4 56.3 0.1 6.8-1.8 12.4-5.3 16.2z"/>
      </g>
      <path d="m450 560.1v-0.1s-240.7-120.2-241-120.4c-22.1-11-40-2.1-40 20s17.9 49 40 60c0.9 0.5 238.3 119.1 239 119.5 22.1 11 40 2.1 40-20 0-21.5-16.8-47.4-38-59zm29.6 75.2c-3.3 3.6-8.1 5.5-13.8 5.5-5 0-10.7-1.5-16.5-4.4-0.7-0.4-238.1-119-239-119.5-21.1-10.6-38.3-36.3-38.3-57.3 0-13.6 7.2-21.7 19.1-21.7 5 0 10.7 1.5 16.5 4.4 0.3 0.2 218.1 109 239.3 119.6l1.6 0.9c20.4 11.2 36.4 36 36.4 56.3 0.1 6.8-1.8 12.4-5.3 16.2z" opacity=".11"/>
      <path d="m488 619.1c0 10.1-3.8 17.5-10 21.4l45.5-22.7c8.8-4.5 14.5-11.2 14.5-23.6v-0.2l-50 25.1v0z" opacity=".29"/>
      <polygon points="252 412 254 413 206 437 204 436" opacity=".5"/>
      <polygon points="264 418 266 419 218 443 216 442" opacity=".5"/>
      <polygon points="276 424 278 425 230 449 228 448" opacity=".5"/>
      <polygon points="288 430 290 431 242 455 240 454" opacity=".5"/>
      <polygon points="300 436 302 437 254 461 252 460" opacity=".5"/>
      <polygon points="312 442 314 443 266 467 264 466" opacity=".5"/>
      <polygon points="324 448 326 449 278 473 276 472" opacity=".5"/>
      <polygon points="336 454 338 455 290 479 288 478" opacity=".5"/>
      <polygon points="348 460 350 461 302 485 300 484" opacity=".5"/>
      <polygon points="360 466 362 467 314 491 312 490" opacity=".5"/>
      <polygon points="372 472 374 473 326 497 324 496" opacity=".5"/>
      <polygon points="384 478 386 479 338 503 336 502" opacity=".5"/>
      <polygon points="396 484 398 485 350 509 348 508" opacity=".5"/>
      <polygon points="408 490 410 491 362 515 360 514" opacity=".5"/>
      <polygon points="420 496 422 497 374 521 372 520" opacity=".5"/>
      <polygon points="432 502 434 503 386 527 384 526" opacity=".5"/>
      <polygon points="444 508 446 509 398 533 396 532" opacity=".5"/>
      <polygon points="456 514 458 515 410 539 408 538" opacity=".5"/>
      <polygon points="468 520 470 521 422 545 420 544" opacity=".5"/>
      <polygon points="480 526 482 527 434 551 432 550" opacity=".5"/>
      <polygon points="492 532 494 533 446 557 444 556" opacity=".5"/>
      <polygon points="502 539 504 540 456 564 454 563" opacity=".5"/>
      <polygon points="512 546 514 547 466 571 464 570" opacity=".5"/>
      <polygon points="520 554 522 555 474 579 472 578" opacity=".5"/>
      <polygon points="528 562 528 564 480 588 480 586" opacity=".5"/>
      <polygon points="532 572 532 574 484 598 484 596" opacity=".5"/>
      <polygon points="536 582 536 584 488 608 488 606" opacity=".5"/>
      <polygon points="536 594 536 596 488 620 488 618" opacity=".5"/>
      <polygon points="534 607 532 610 484 634 486 631" opacity=".5"/>
      <polygon points="349 533 289 503 149 573 149 603 209 633 349 563" fill="#2d3134"/>
      <polygon points="149 573 209 603 209 633 149 603" opacity=".11"/>
      <polygon points="349 533 209 603 209 633 349 563" opacity=".29"/>
      <path d="m338 694.3c-0.7-0.4-238.1-119-239-119.5-22.1-11-40-37.9-40-60 0-9.7 3.4-16.8 9.2-20.9l-43.7 21.8c-9.4 2.6-15.5 11-15.5 23.9 0 22.1 17.9 49 40 60 0.9 0.5 238.3 119.1 239 119.5 12 6 22.7 6.1 30 1.4l45.1-22.5c-6.9 2.1-15.6 1-25.1-3.7z" fill="#2d3134"/>
      <path d="m84 582.8c-2.1-1-4-1.2-5.4-0.5l-10.4 5.3c-1.5 0.7-2.4 2.2-2.4 4.4 0 4.3 3.5 9.6 7.8 11.7 2.1 1.1 4.1 1.2 5.5 0.5 0 0 10.4-5.3 10.7-5.4 1.3-0.8 2-2.2 2-4.2 0.1-4.4-3.4-9.6-7.8-11.8z" fill="#2d3134"/>
      <path d="m79.2 604.2c0.6-0.3 10.3-5.2 10.6-5.4 1.3-0.8 2-2.2 2-4.2 0-1.7-0.6-3.6-1.5-5.4l-10.4 5.3c1 1.8 1.5 3.7 1.5 5.4 0.1 2-0.8 3.5-2.2 4.3z" opacity=".29"/>
      <path d="m81.5 599.8c0 4.3-3.5 6.1-7.8 3.9s-7.8-7.4-7.8-11.7 3.5-6.1 7.8-3.9c4.3 2.1 7.8 7.4 7.8 11.7z" opacity=".11"/>
      <path d="m121.8 601.7c-2.1-1-4-1.2-5.4-0.5l-10.4 5.3c-1.5 0.7-2.4 2.2-2.4 4.4 0 4.3 3.5 9.6 7.8 11.7 2.1 1.1 4.1 1.2 5.5 0.5 0 0 10.4-5.3 10.7-5.4 1.3-0.8 2-2.2 2-4.2 0-4.4-3.5-9.7-7.8-11.8z" fill="#2d3134"/>
      <path d="m117 623c0.6-0.3 10.3-5.2 10.6-5.4 1.3-0.8 2-2.2 2-4.2 0-1.7-0.6-3.6-1.5-5.4l-10.4 5.3c1 1.8 1.5 3.7 1.5 5.4 0 2.1-0.9 3.6-2.2 4.3z" opacity=".29"/>
      <path d="m119.2 618.7c0 4.3-3.5 6.1-7.8 3.9s-7.8-7.4-7.8-11.7 3.5-6.1 7.8-3.9c4.3 2.1 7.8 7.4 7.8 11.7z" opacity=".11"/>
      <path d="m159.5 620.5c-2.1-1-4-1.2-5.4-0.5l-10.4 5.3c-1.5 0.7-2.4 2.2-2.4 4.4 0 4.3 3.5 9.6 7.8 11.7 2.1 1.1 4.1 1.2 5.5 0.5 0 0 10.4-5.3 10.7-5.4 1.3-0.8 2-2.2 2-4.2 0.1-4.3-3.4-9.6-7.8-11.8z" fill="#2d3134"/>
      <path d="m154.7 641.9c0.6-0.3 10.3-5.2 10.6-5.4 1.3-0.8 2-2.2 2-4.2 0-1.7-0.6-3.6-1.5-5.4l-10.4 5.3c1 1.8 1.5 3.7 1.5 5.4 0.1 2.1-0.8 3.6-2.2 4.3z" opacity=".29"/>
      <path d="m157 637.6c0 4.3-3.5 6.1-7.8 3.9s-7.8-7.4-7.8-11.7 3.5-6.1 7.8-3.9c4.3 2.1 7.8 7.3 7.8 11.7z" opacity=".11"/>
      <path d="m197.3 639.4c-2.1-1-4-1.2-5.4-0.5l-10.4 5.3c-1.5 0.7-2.4 2.2-2.4 4.4 0 4.3 3.5 9.6 7.8 11.7 2.1 1.1 4.1 1.2 5.5 0.5 0 0 10.4-5.3 10.7-5.4 1.3-0.8 2-2.2 2-4.2 0-4.4-3.5-9.6-7.8-11.8z" fill="#2d3134"/>
      <path d="m192.4 660.8c0.6-0.3 10.3-5.2 10.6-5.4 1.3-0.8 2-2.2 2-4.2 0-1.7-0.6-3.6-1.5-5.4l-10.4 5.3c1 1.8 1.5 3.7 1.5 5.4 0.1 2.1-0.8 3.6-2.2 4.3z" opacity=".29"/>
      <path d="m194.7 656.4c0 4.3-3.5 6.1-7.8 3.9s-7.8-7.4-7.8-11.7 3.5-6.1 7.8-3.9 7.8 7.4 7.8 11.7z" opacity=".11"/>
      <path d="m235 658.3c-2.1-1-4-1.2-5.4-0.5l-10.4 5.3c-1.5 0.7-2.4 2.2-2.4 4.4 0 4.3 3.5 9.6 7.8 11.7 2.1 1.1 4.1 1.2 5.5 0.5 0 0 10.4-5.3 10.7-5.4 1.3-0.8 2-2.2 2-4.2 0-4.4-3.5-9.6-7.8-11.8z" fill="#2d3134"/>
      <path d="m230.2 679.6c0.6-0.3 10.3-5.2 10.6-5.4 1.3-0.8 2-2.2 2-4.2 0-1.7-0.6-3.6-1.5-5.4l-10.4 5.3c1 1.8 1.5 3.7 1.5 5.4 0 2.1-0.8 3.6-2.2 4.3z" opacity=".29"/>
      <path d="m232.4 675.3c0 4.3-3.5 6.1-7.8 3.9s-7.8-7.4-7.8-11.7 3.5-6.1 7.8-3.9c4.3 2.1 7.8 7.4 7.8 11.7z" opacity=".11"/>
      <path d="m272.8 677.2c-2.1-1-4-1.2-5.4-0.5l-10.4 5.3c-1.5 0.7-2.4 2.2-2.4 4.4 0 4.3 3.5 9.6 7.8 11.7 2.1 1.1 4.1 1.2 5.5 0.5 0 0 10.4-5.3 10.7-5.4 1.3-0.8 2-2.2 2-4.2 0-4.4-3.5-9.7-7.8-11.8z" fill="#2d3134"/>
      <path d="m267.9 698.5c0.6-0.3 10.3-5.2 10.6-5.4 1.3-0.8 2-2.2 2-4.2 0-1.7-0.6-3.6-1.5-5.4l-10.4 5.3c1 1.8 1.5 3.7 1.5 5.4 0.1 2.1-0.8 3.6-2.2 4.3z" opacity=".29"/>
      <path d="m270.2 694.2c0 4.3-3.5 6.1-7.8 3.9s-7.8-7.4-7.8-11.7 3.5-6.1 7.8-3.9c4.3 2.1 7.8 7.4 7.8 11.7z" opacity=".11"/>
      <path d="m67.7 519.1c-5.7-2.8-10.8-3.2-14.6-1.5l-28.4 14.4c-4.1 1.8-6.7 6-6.7 12.1 0 11.8 9.5 26.1 21.3 32 5.8 2.9 11.1 3.2 14.9 1.3 0 0 28.3-14.3 29.2-14.9 3.4-2.1 5.5-6 5.5-11.5 0.1-11.7-9.4-26.1-21.2-31.9z" fill="#2d3134"/>
      <path d="m54.5 577.3c1.5-0.8 28.2-14.3 29-14.7 3.4-2.1 5.5-6 5.5-11.5 0-4.7-1.6-9.9-4.2-14.7l-28.4 14.4c2.6 4.8 4.2 10 4.2 14.7 0 5.8-2.3 9.9-6.1 11.8z" opacity=".29"/>
      <path d="m60.6 565.5c0 11.8-9.5 16.5-21.3 10.7s-21.3-20.3-21.3-32.1 9.5-16.5 21.3-10.7 21.3 20.3 21.3 32.1z" opacity=".11"/>
      <polygon points="310 645 92 536 62 551 62 581 280 690 310 675" fill="#2d3134"/>
      <polygon points="62 551 280 660 280 690 62 581" opacity=".11"/>
      <polygon points="310 645 280 660 280 690 310 675" opacity=".29"/>
      <path d="m84 532.9c-2.1-1-4-1.2-5.4-0.5l-10.4 5.3c-1.5 0.7-2.4 2.2-2.4 4.4 0 4.3 3.5 9.6 7.8 11.7 2.1 1.1 4.1 1.2 5.5 0.5 0 0 10.4-5.3 10.7-5.4 1.3-0.8 2-2.2 2-4.2 0.1-4.4-3.4-9.6-7.8-11.8z" fill="#2d3134"/>
      <path d="m79.2 554.3c0.6-0.3 10.3-5.2 10.6-5.4 1.3-0.8 2-2.2 2-4.2 0-1.7-0.6-3.6-1.5-5.4l-10.4 5.3c1 1.8 1.5 3.7 1.5 5.4 0.1 2.1-0.8 3.6-2.2 4.3z" opacity=".29"/>
      <path d="m81.5 549.9c0 4.3-3.5 6.1-7.8 3.9s-7.8-7.4-7.8-11.7 3.5-6.1 7.8-3.9 7.8 7.4 7.8 11.7z" opacity=".11"/>
      <path d="m121.8 551.8c-2.1-1-4-1.2-5.4-0.5l-10.4 5.3c-1.5 0.7-2.4 2.2-2.4 4.4 0 4.3 3.5 9.6 7.8 11.7 2.1 1.1 4.1 1.2 5.5 0.5 0 0 10.4-5.3 10.7-5.4 1.3-0.8 2-2.2 2-4.2 0-4.4-3.5-9.7-7.8-11.8z" fill="#2d3134"/>
      <path d="m117 573.1c0.6-0.3 10.3-5.2 10.6-5.4 1.3-0.8 2-2.2 2-4.2 0-1.7-0.6-3.6-1.5-5.4l-10.4 5.3c1 1.8 1.5 3.7 1.5 5.4 0 2.1-0.9 3.6-2.2 4.3z" opacity=".29"/>
      <path d="m119.2 568.8c0 4.3-3.5 6.1-7.8 3.9s-7.8-7.4-7.8-11.7 3.5-6.1 7.8-3.9c4.3 2.1 7.8 7.4 7.8 11.7z" opacity=".11"/>
      <path d="m159.5 570.7c-2.1-1-4-1.2-5.4-0.5l-10.4 5.3c-1.5 0.7-2.4 2.2-2.4 4.4 0 4.3 3.5 9.6 7.8 11.7 2.1 1.1 4.1 1.2 5.5 0.5 0 0 10.4-5.3 10.7-5.4 1.3-0.8 2-2.2 2-4.2 0.1-4.4-3.4-9.7-7.8-11.8z" fill="#2d3134"/>
      <path d="m154.7 592c0.6-0.3 10.3-5.2 10.6-5.4 1.3-0.8 2-2.2 2-4.2 0-1.7-0.6-3.6-1.5-5.4l-10.4 5.3c1 1.8 1.5 3.7 1.5 5.4 0.1 2.1-0.8 3.6-2.2 4.3z" opacity=".29"/>
      <path d="m157 587.7c0 4.3-3.5 6.1-7.8 3.9s-7.8-7.4-7.8-11.7 3.5-6.1 7.8-3.9c4.3 2.1 7.8 7.4 7.8 11.7z" opacity=".11"/>
      <path d="m197.3 589.5c-2.1-1-4-1.2-5.4-0.5l-10.4 5.3c-1.5 0.7-2.4 2.2-2.4 4.4 0 4.3 3.5 9.6 7.8 11.7 2.1 1.1 4.1 1.2 5.5 0.5 0 0 10.4-5.3 10.7-5.4 1.3-0.8 2-2.2 2-4.2 0-4.4-3.5-9.6-7.8-11.8z" fill="#2d3134"/>
      <path d="m192.4 610.9c0.6-0.3 10.3-5.2 10.6-5.4 1.3-0.8 2-2.2 2-4.2 0-1.7-0.6-3.6-1.5-5.4l-10.4 5.3c1 1.8 1.5 3.7 1.5 5.4 0.1 2.1-0.8 3.6-2.2 4.3z" opacity=".29"/>
      <path d="m194.7 606.5c0 4.3-3.5 6.1-7.8 3.9s-7.8-7.4-7.8-11.7 3.5-6.1 7.8-3.9 7.8 7.4 7.8 11.7z" opacity=".11"/>
      <path d="m235 608.4c-2.1-1-4-1.2-5.4-0.5l-10.4 5.3c-1.5 0.7-2.4 2.2-2.4 4.4 0 4.3 3.5 9.6 7.8 11.7 2.1 1.1 4.1 1.2 5.5 0.5 0 0 10.4-5.3 10.7-5.4 1.3-0.8 2-2.2 2-4.2 0-4.4-3.5-9.6-7.8-11.8z" fill="#2d3134"/>
      <path d="m230.2 629.8c0.6-0.3 10.3-5.2 10.6-5.4 1.3-0.8 2-2.2 2-4.2 0-1.7-0.6-3.6-1.5-5.4l-10.4 5.3c1 1.8 1.5 3.7 1.5 5.4 0 2-0.8 3.5-2.2 4.3z" opacity=".29"/>
      <path d="m232.4 625.4c0 4.3-3.5 6.1-7.8 3.9s-7.8-7.4-7.8-11.7 3.5-6.1 7.8-3.9 7.8 7.4 7.8 11.7z" opacity=".11"/>
      <path d="m272.8 627.3c-2.1-1-4-1.2-5.4-0.5l-10.4 5.2c-1.5 0.7-2.4 2.2-2.4 4.4 0 4.3 3.5 9.6 7.8 11.7 2.1 1.1 4.1 1.2 5.5 0.5 0 0 10.4-5.3 10.7-5.4 1.3-0.8 2-2.2 2-4.2 0-4.3-3.5-9.6-7.8-11.7z" fill="#2d3134"/>
      <path d="m267.9 648.6c0.6-0.3 10.3-5.2 10.6-5.4 1.3-0.8 2-2.2 2-4.2 0-1.7-0.6-3.6-1.5-5.4l-10.4 5.3c1 1.8 1.5 3.7 1.5 5.4 0.1 2.1-0.8 3.6-2.2 4.3z" opacity=".29"/>
      <path d="m270.2 644.3c0 4.3-3.5 6.1-7.8 3.9s-7.8-7.4-7.8-11.7 3.5-6.1 7.8-3.9c4.3 2.1 7.8 7.4 7.8 11.7z" opacity=".11"/>
      <path d="m331.7 647.5c-5.7-2.8-10.8-3.2-14.6-1.5l-28.4 14.4c-4.1 1.8-6.7 6-6.7 12.1 0 11.8 9.5 26.1 21.3 32 5.8 2.9 11.1 3.2 14.9 1.3 0 0 28.3-14.3 29.2-14.9 3.4-2.1 5.5-6 5.5-11.5 0.1-11.7-9.4-26-21.2-31.9z" fill="#2d3134"/>
      <path d="m318.5 705.8c1.5-0.8 28.2-14.3 29-14.7 3.4-2.1 5.5-6 5.5-11.5 0-4.7-1.6-9.9-4.2-14.7l-28.4 14.4c2.6 4.8 4.2 10 4.2 14.7 0 5.7-2.3 9.8-6.1 11.8z" opacity=".29"/>
      <path d="m324.6 693.9c0 11.8-9.5 16.5-21.3 10.7-11.8-5.9-21.3-20.2-21.3-32s9.5-16.5 21.3-10.7c11.8 5.9 21.3 20.2 21.3 32z" opacity=".11"/>
      <g fill="#2d3134">
       <path d="m340 615.2v-0.1s-240.7-120.2-241-120.4c-12.6-6.3-22.9-5.2-31.1-0.7l-43.3 21.7c6.8-1.9 15.3-0.8 24.5 3.9 0.2 0.2 240.9 120.4 240.9 120.4v0.1c21.2 11.6 38 37.5 38 58.9 0 10.1-3.8 17.5-10 21.4l45.5-22.7c8.8-4.5 14.5-11.2 14.5-23.6 0-21.3-16.8-47.2-38-58.9z"/>
       <path d="m340 615.2v-0.1s-240.7-120.2-241-120.4c-12.6-6.3-22.9-5.2-31.1-0.7l-43.3 21.7c6.8-1.9 15.3-0.8 24.5 3.9 0.2 0.2 240.9 120.4 240.9 120.4v0.1c21.2 11.6 38 37.5 38 58.9 0 10.1-3.8 17.5-10 21.4l45.5-22.7c8.8-4.5 14.5-11.2 14.5-23.6 0-21.3-16.8-47.2-38-58.9z"/>
       <path d="m290 640.1v-0.1s-240.7-120.2-241-120.4c-22.1-11-40-2.1-40 20s17.9 49 40 60c0.9 0.5 238.3 119.1 239 119.5 22.1 11 40 2.1 40-20 0-21.5-16.8-47.4-38-59zm29.6 75.2c-3.3 3.6-8.1 5.5-13.8 5.5-5 0-10.7-1.5-16.5-4.4-0.7-0.4-238.1-119-239-119.5-21.1-10.6-38.3-36.3-38.3-57.3 0-13.6 7.2-21.7 19.1-21.7 5 0 10.7 1.5 16.5 4.4 0.3 0.2 218.1 109 239.3 119.6l1.6 0.9c20.4 11.2 36.4 36 36.4 56.3 0.1 6.8-1.8 12.4-5.3 16.2z"/>
      </g>
      <path d="m290 640.1v-0.1s-240.7-120.2-241-120.4c-22.1-11-40-2.1-40 20s17.9 49 40 60c0.9 0.5 238.3 119.1 239 119.5 22.1 11 40 2.1 40-20 0-21.5-16.8-47.4-38-59zm29.6 75.2c-3.3 3.6-8.1 5.5-13.8 5.5-5 0-10.7-1.5-16.5-4.4-0.7-0.4-238.1-119-239-119.5-21.1-10.6-38.3-36.3-38.3-57.3 0-13.6 7.2-21.7 19.1-21.7 5 0 10.7 1.5 16.5 4.4 0.3 0.2 218.1 109 239.3 119.6l1.6 0.9c20.4 11.2 36.4 36 36.4 56.3 0.1 6.8-1.8 12.4-5.3 16.2z" opacity=".11"/>
      <path d="m328 699.1c0 10.1-3.8 17.5-10 21.4l45.5-22.7c8.8-4.5 14.5-11.2 14.5-23.6v-0.2l-50 25.1v0z" opacity=".29"/>
      <polygon points="92 492 94 493 46 517 44 516" opacity=".5"/>
      <polygon points="104 498 106 499 58 523 56 522" opacity=".5"/>
      <polygon points="116 504 118 505 70 529 68 528" opacity=".5"/>
      <polygon points="128 510 130 511 82 535 80 534" opacity=".5"/>
      <polygon points="140 516 142 517 94 541 92 540" opacity=".5"/>
      <polygon points="152 522 154 523 106 547 104 546" opacity=".5"/>
      <polygon points="164 528 166 529 118 553 116 552" opacity=".5"/>
      <polygon points="176 534 178 535 130 559 128 558" opacity=".5"/>
      <polygon points="188 540 190 541 142 565 140 564" opacity=".5"/>
      <polygon points="200 546 202 547 154 571 152 570" opacity=".5"/>
      <polygon points="212 552 214 553 166 577 164 576" opacity=".5"/>
      <polygon points="224 558 226 559 178 583 176 582" opacity=".5"/>
      <polygon points="236 564 238 565 190 589 188 588" opacity=".5"/>
      <polygon points="248 570 250 571 202 595 200 594" opacity=".5"/>
      <polygon points="260 576 262 577 214 601 212 600" opacity=".5"/>
      <polygon points="272 582 274 583 226 607 224 606" opacity=".5"/>
      <polygon points="284 588 286 589 238 613 236 612" opacity=".5"/>
      <polygon points="296 594 298 595 250 619 248 618" opacity=".5"/>
      <polygon points="308 600 310 601 262 625 260 624" opacity=".5"/>
      <polygon points="320 606 322 607 274 631 272 630" opacity=".5"/>
      <polygon points="332 612 334 613 286 637 284 636" opacity=".5"/>
      <polygon points="342 619 344 620 296 644 294 643" opacity=".5"/>
      <polygon points="352 626 354 627 306 651 304 650" opacity=".5"/>
      <polygon points="360 634 362 635 314 659 312 658" opacity=".5"/>
      <polygon points="368 642 368 644 320 668 320 666" opacity=".5"/>
      <polygon points="372 652 372 654 324 678 324 676" opacity=".5"/>
      <polygon points="376 662 376 664 328 688 328 686" opacity=".5"/>
      <polygon points="376 674 376 676 328 700 328 698" opacity=".5"/>
      <polygon points="374 687 372 690 324 714 326 711" opacity=".5"/>
      <polygon points="410 460 210 360 10 460 10 470 210 570 410 470" fill="#f90"/>
      <polygon points="10 460 210 560 210 570 10 470" opacity=".11"/>
      <polygon points="410 460 210 560 210 570 410 470" opacity=".29"/>
      <polygon points="340 369 206 302 14 398 14 458 148 525 340 429" fill="#f90"/>
      <polygon points="14 398 148 465 148 525 14 458" opacity=".11"/>
      <polygon points="340 369 148 465 148 525 340 429" opacity=".29"/>
      <polygon points="252 318 198 291 58 361 58 391 124 424 264 354" fill="#f90"/>
      <polygon points="58 361 112 388 124 424 58 391" opacity=".11"/>
      <polygon points="252 318 112 388 124 424 264 354" opacity=".29"/>
      <polygon points="426 369 344 328 266 367 266 466 332 499 410 460 426 412" fill="#2d3134"/>
      <polygon points="338.8 491.1 352 451.6 352 410.5 422 375.5 422 411.4 406.7 457.2" fill="#39c"/>
      <polygon points="274 460 274 377.6 344 412.6 344 449 331 488" fill="#39c"/>
      <polygon points="324 462 324 458 273 433 273 437" fill="#2d3134"/>
      <polygon points="321 485 327 488 327 402.6 321 399.6" fill="#2d3134"/>
      <polygon points="344 412.6 332 406.6 274 460 287 466 343 438 344 437" opacity=".1"/>
      <polygon points="274 460 280 444 344 413.1 304.6 393.3" fill="#fff" opacity=".1"/>
      <polygon points="294 414.6 310.8 440 344 442.1 344 412.6 294 387.6" opacity=".15"/>
      <polygon points="426 412 410 460 332 499 348 451" opacity=".15"/>
      <polygon points="266 466 332 499 348 451 348 408 266 367" opacity=".11"/>
      <polygon points="332 499 410 460 426 412 426 369 348 408 348 451" opacity=".29"/>
      <path d="m192.2 299.9-4.2 6.7c2.1 1.3 3.3 3.5 3.3 5.9v10.8c0 1.5 1.8 2.6 4 2.6s4-1.2 4-2.6v-10.8c-0.1-5.1-2.7-9.8-7.1-12.6z" opacity=".2"/>
      <path d="m232 392.7c0-10.5-8.5-23.3-19-28.5s-23-1-23 9.5v2.5 21l38 19 4-2v-21.5z" fill="#f90"/>
      <path d="m228 394.7c0-10.5-8.5-23.3-19-28.5s-19-1-19 9.5v2.5 19l38 19v-21.5z" opacity=".11"/>
      <path d="m223.8 393.4c0-8-6.5-17.7-14.5-21.7-3.5-1.7-6.6-2-9.1-1.3l-37.3 18.6c-3.3 1-5.4 4-5.4 8.5 0 8 6.5 17.7 14.5 21.7 3.4 1.7 6.5 2 9 1.3l37.3-18.7c3.3-0.9 5.5-3.8 5.5-8.4z" fill="#2d3134"/>
      <polygon points="232 414.2 232 393.2 228 395.2 228 416.2" opacity=".29"/>
      <path d="m192 412.7c0-10.5-8.5-23.3-19-28.5s-23-1-23 9.5v2.5 21l38 19 4-2v-21.5z" fill="#f90"/>
      <path d="m188 414.7c0-10.5-8.5-23.3-19-28.5s-19-1-19 9.5v2.5 19l38 19v-21.5z" opacity=".11"/>
      <polygon points="192 434.2 192 413.2 188 415.2 188 436.2" opacity=".29"/>
      <path d="m301 468.5c0-10.5-8.5-23.3-19-28.5s-23-1-23 9.5v2.5 21l38 19 4-2v-21.5z" fill="#f90"/>
      <path d="m297 470.5c0-10.5-8.5-23.3-19-28.5s-19-1-19 9.5v2.5 19l38 19v-21.5z" opacity=".11"/>
      <polygon points="301 490 301 469 297 471 297 492" opacity=".29"/>
      <polygon points="529 246 509 206 469 226 230 465 250 505 290 485" fill="#f90"/>
      <polygon points="469 226 489 266 250 505 230 465" opacity=".11"/>
      <polygon points="529 246 489 266 250 505 290 485" opacity=".29"/>
      <path d="m261 488.5c0-10.5-8.5-23.3-19-28.5s-23-1-23 9.5v2.5 21l38 19 4-2v-21.5z" fill="#f90"/>
      <path d="m257 490.5c0-10.5-8.5-23.3-19-28.5s-19-1-19 9.5v2.5 19l38 19v-21.5z" opacity=".11"/>
      <polygon points="261 510 261 489 257 491 257 512" opacity=".29"/>
      <polygon points="250 494 200 469 148 495 148 525 210 556 262 530" fill="#f90"/>
      <polygon points="148 495 198 520 210 556 148 525" opacity=".11"/>
      <polygon points="250 494 198 520 210 556 262 530" opacity=".29"/>
      <polygon points="702.2 60.8 688.2 32.8 660.2 46.8 478 229 492 257 520 243" fill="#656565"/>
      <polygon points="660.2 46.8 674.2 74.8 492 257 478 229" opacity=".11"/>
      <polygon points="702.2 60.8 674.2 74.8 492 257 520 243" opacity=".29"/>
      <path d="m331.7 460.5c-2.9-2.5-6.3-3.3-7.6-1.8l-32.5 38.6c-1.2 1.5 0.2 4.7 3.1 7.1 3 2.5 6.3 3.3 7.6 1.8l32.5-38.6c1.2-1.4-0.2-4.6-3.1-7.1z" fill="#f90"/>
      <path d="m327.2 465.8c-2.9-2.5-4.3-5.7-3.1-7.1l-32.5 38.6c-1.2 1.5 0.2 4.7 3.1 7.1 3 2.5 6.3 3.3 7.6 1.8l32.5-38.6c-1.3 1.5-4.7 0.7-7.6-1.8z" opacity=".2"/>
      <path d="m372.9 411c-1.8-1.5-3.8-2-4.5-1.1l-42.1 50.5c-0.7 0.9 0.1 2.8 1.9 4.3s3.8 2 4.5 1.1l42.1-50.5c0.7-0.9-0.2-2.8-1.9-4.3z" fill="#656565"/>
      <path d="m370.2 414.2c-1.8-1.5-2.6-3.4-1.9-4.3l-42.1 50.5c-0.7 0.9 0.1 2.8 1.9 4.3s3.8 2 4.5 1.1l42.1-50.5c-0.7 0.9-2.7 0.4-4.5-1.1z" opacity=".2"/>
      <path d="m301.7 475.5c-2.9-2.5-6.3-3.3-7.6-1.8l-32.5 38.6c-1.2 1.5 0.2 4.7 3.1 7.1 3 2.5 6.3 3.3 7.6 1.8l32.5-38.6c1.2-1.4-0.2-4.6-3.1-7.1z" fill="#f90"/>
      <path d="m297.2 480.8c-2.9-2.5-4.3-5.7-3.1-7.1l-32.5 38.6c-1.2 1.5 0.2 4.7 3.1 7.1 3 2.5 6.3 3.3 7.6 1.8l32.5-38.6c-1.3 1.5-4.7 0.7-7.6-1.8z" opacity=".2"/>
      <path d="m342.9 426c-1.8-1.5-3.8-2-4.5-1.1l-42.1 50.5c-0.7 0.9 0.1 2.8 1.9 4.3s3.8 2 4.5 1.1l42.1-50.5c0.7-0.9-0.2-2.8-1.9-4.3z" fill="#656565"/>
      <path d="m340.2 429.2c-1.8-1.5-2.6-3.4-1.9-4.3l-42.1 50.5c-0.7 0.9 0.1 2.8 1.9 4.3s3.8 2 4.5 1.1l42.1-50.5c-0.7 0.9-2.7 0.4-4.5-1.1z" opacity=".2"/>
      <path d="m688.2 32.8-2 1 14 28 2-1 11.2-11.2c6.2-6.2 1.8-16.8-6.9-16.8z" fill="#f90"/>
      <path d="m686.2 33.8 14 28 11.2-11.2c6.2-6.2 1.8-16.8-6.9-16.8z" opacity=".11"/>
      <path d="m710.2 49.1c0-4.9-3.9-10.8-8.8-13.2-2.1-1-4-1.2-5.5-0.8l-22.7 11.3c-2 0.6-3.3 2.4-3.3 5.2 0 4.9 3.9 10.8 8.8 13.2 2.1 1 3.9 1.2 5.4 0.8l22.7-11.3c2-0.6 3.4-2.4 3.4-5.2z" fill="#2d3134"/>
      <path d="m662 45.8-2 1 14 28 2-1 11.2-11.2c6.2-6.2 1.8-16.8-6.9-16.8z" fill="#f90"/>
      <path d="m660 46.8 14 28 11.2-11.2c6.2-6.2 1.8-16.8-6.9-16.8z" opacity=".11"/>
      <polygon points="327 428 339 434 379 414 379 399 377 398 337 418" fill="#f90"/>
      <polygon points="379 414 339 434 339 419 379 399" opacity=".29"/>
      <polygon points="327 428 339 434 339 419 337 418" opacity=".11"/>
      <path d="m714 609.2c2.9-1.3 4.6-4.2 4.6-8.5 0-8.3-6.7-18.4-15-22.5-1.1-0.6-2.2-1-3.3-1.3l-0.3-0.2-6 3 0.4 0.2c-0.2 0-0.3-0.1-0.5-0.1 6.8 3.6 12.3 11.9 12.3 18.8 0 2-0.5 3.6-1.2 4.8-1.7 0-3.5-0.5-5.4-1.5-3.8-1.9-7.1-5.2-9.5-9 0 0 0 0.1 0.1 0.1l-6 3s0-0.1-0.1-0.1c2.4 6.2 7.5 12.3 13.5 15.3 3.9 1.9 7.4 2.2 10.1 1.1z" fill="#656565"/>
      <path d="m693.6 605c7 3.5 12.7 0.7 12.7-6.3 0-6.9-5.5-15.2-12.3-18.8 1.2 0.3 2.4 0.7 3.6 1.4 8.3 4.1 15 14.2 15 22.5s-6.7 11.6-15 7.5c-6-3-11.1-9-13.5-15.3 2.4 3.7 5.7 7.1 9.5 9z" opacity=".11"/>
      <polygon points="706.2 558.8 706.2 579.8 700.2 582.8 694.2 579.8 694.2 558.8 700.2 555.8" fill="#656565"/>
      <polygon points="700.2 582.8 700.2 561.8 706.2 558.8 706.2 579.8" opacity=".29"/>
      <path d="m712.6 603.7c0 3.9-1.5 6.7-3.9 8.1l5.3-2.6c2.9-1.3 4.6-4.2 4.6-8.5 0-0.7-0.1-1.4-0.1-2.1l-6 3c0.1 0.7 0.1 1.4 0.1 2.1z" opacity=".29"/>
      <polygon points="700.2 582.8 700.2 561.8 694.2 558.8 694.2 579.8" opacity=".11"/>
      <polygon points="720.2 551.8 702.2 542.8 682.2 552.8 682.2 556.8 700.2 565.8 720.2 555.8" fill="#f90"/>
      <polygon points="682.2 552.8 700.2 561.8 700.2 565.8 682.2 556.8" opacity=".11"/>
      <polygon points="720.2 551.8 700.2 561.8 700.2 565.8 720.2 555.8" opacity=".29"/>
      <path d="m730.2 535.8c0-10.5-8.5-23.8-19-29s-23-1-23 9.5v2.5l10 26 18 9 4-2s10-15.1 10-16z" fill="#f90"/>
      <path d="m726.2 537.3c0-10.5-8.5-23.3-19-28.5s-19-1-19 9.5v0.5l10 26 18 9s10-15.6 10-16.5z" opacity=".11"/>
      <path d="m722 535.9c0-8-6.5-17.7-14.5-21.7-3.5-1.7-6.6-2-9.1-1.3l-13.3 6.7c-3.3 1-5.4 4-5.4 8.5 0 8 6.5 17.7 14.5 21.7 3.4 1.7 6.5 2 9 1.3l13.3-6.7c3.3-0.9 5.5-3.9 5.5-8.5z" fill="#2d3134"/>
      <polygon points="720.2 551.8 730.2 535.8 726.2 537.8 716.2 553.8" opacity=".29"/>
      <path d="m714.2 543.8c0-10.5-8.5-23.8-19-29s-23-1-23 9.5v2.5l10 26 18 9 4-2s10-15.1 10-16z" fill="#f90"/>
      <path d="m710.2 545.3c0-10.5-8.5-23.3-19-28.5s-19-1-19 9.5v0.5l10 26 18 9s10-15.6 10-16.5z" opacity=".11"/>
      <polygon points="704.2 559.8 714.2 543.8 710.2 545.8 700.2 561.8" opacity=".29"/>
      <path d="m200 372 468.1-332.4c3.3-2.4 7.2-3.8 11.3-3.9l5.9-0.2c6.6-0.2 12.8 2.8 16.8 8 2.6 3.5 4 7.7 4 12.1v466" fill="none" stroke="#2d3134" stroke-miterlimit="10" stroke-width="4"/>
      <path d="m197 405 462.3-359.1c2.5-2 5.6-3.4 8.8-3.8l8.9-1.3c6.7-1 13.5 1.7 17.5 7.2 2.4 3.2 3.7 7.1 3.7 11.1v455.6" fill="none" stroke="#2d3134" stroke-miterlimit="10" stroke-width="4"/>
     </g>
     <g class="top-level-node" transform="translate(648,272)">
      <polygon points="70 4 72 3 74 4 74 23 72 24 70 23" fill="#e5e5e5"/>
      <polygon points="70 4 72 3 74 4 74 23 72 24 70 23" opacity=".1"/>
      <polygon points="70 23 70 4 72 5 72 24" opacity=".11"/>
      <polygon points="74 23 74 4 72 5 72 24" opacity=".29"/>
      <polygon points="72 22 72 7 58 14 58 29" fill="#e5e5e5"/>
      <polygon points="72 22 72 7 58 14 58 29" opacity=".29"/>
      <polygon points="56 13 70 6 72 7 58 14" fill="#e5e5e5"/>
      <polygon points="54 12 56 11 58 12 58 31 56 32 54 31" fill="#e5e5e5"/>
      <polygon points="54 12 56 11 58 12 58 31 56 32 54 31" opacity=".1"/>
      <polygon points="54 31 54 12 56 13 56 32" opacity=".11"/>
      <polygon points="58 31 58 12 56 13 56 32" opacity=".29"/>
      <polygon points="56 30 56 15 42 22 42 37" fill="#e5e5e5"/>
      <polygon points="56 30 56 15 42 22 42 37" opacity=".29"/>
      <polygon points="40 21 54 14 56 15 42 22" fill="#e5e5e5"/>
      <polygon points="38 20 40 19 42 20 42 39 40 40 38 39" fill="#e5e5e5"/>
      <polygon points="38 20 40 19 42 20 42 39 40 40 38 39" opacity=".1"/>
      <polygon points="38 39 38 20 40 21 40 40" opacity=".11"/>
      <polygon points="42 39 42 20 40 21 40 40" opacity=".29"/>
      <polygon points="40 38 40 23 26 30 26 45" fill="#e5e5e5"/>
      <polygon points="40 38 40 23 26 30 26 45" opacity=".29"/>
      <polygon points="24 29 38 22 40 23 26 30" fill="#e5e5e5"/>
      <polygon points="22 28 24 27 26 28 26 47 24 48 22 47" fill="#e5e5e5"/>
      <polygon points="22 28 24 27 26 28 26 47 24 48 22 47" opacity=".1"/>
      <polygon points="22 47 22 28 24 29 24 48" opacity=".11"/>
      <polygon points="26 47 26 28 24 29 24 48" opacity=".29"/>
      <polygon points="24 46 24 31 10 38 10 53" fill="#e5e5e5"/>
      <polygon points="24 46 24 31 10 38 10 53" opacity=".29"/>
      <polygon points="8 37 22 30 24 31 10 38" fill="#e5e5e5"/>
      <polygon points="6 36 8 35 10 36 10 55 8 56 6 55" fill="#e5e5e5"/>
      <polygon points="6 36 8 35 10 36 10 55 8 56 6 55" opacity=".1"/>
      <polygon points="6 55 6 36 8 37 8 56" opacity=".11"/>
      <polygon points="10 55 10 36 8 37 8 56" opacity=".29"/>
     </g>
     <g class="top-level-node" transform="translate(636,200)">
      <text transform="matrix(.8944 -.4472 .8944 .4472 34.05 92.939)" fill="#2d3134" font-family="Georgia" font-size="24px">
       <tspan x="0" y="0">Construction</tspan>
      </text>
     </g>
     <g class="top-level-node" transform="matrix(-1,0,0,1,680,236)">
      <polygon points="8 0.8 0.6 4.5 0.6 11.9 8 15.6 15.4 11.9 15.4 4.5" fill="#fc0"/>
      <polygon points="0.6 11.9 0.6 4.5 8 8.2 8 15.6" opacity=".29"/>
      <polygon points="12.6 5.9 5.2 2.2 3.4 3.1 10.8 6.8 10.8 10.4 12.6 9.5" opacity=".3"/>
      <polygon points="15.4 11.9 15.4 4.5 8 8.2 8 15.6" opacity=".11"/>
     </g>
     <g class="top-level-node" transform="matrix(.1 0 0 .1 680 200)">
      <path d="m15.3 226.5c-12.3-8.3-0.6-16.8 16.6-19.9 7.5-1.3 21-10.2 39.8 1.8 15.1 9.6-8 12.5-17.6 15.6-11.3 3.6-23.9 12.5-38.8 2.5z" opacity=".2"/>
      <path d="m47.9 200.2 10.5 1.2s0.2 1.8 2.1 3.8 10.1 6.4 11.7 7.6c2.8 2.1 0.9 5-1.5 5.4-2.6 0.4-6.1-0.4-10.5-2-3.4-1.2-7.5-2.3-11.3-3.6-3.4-1.1-2.5-5.9-2-8s1-4.4 1-4.4z" fill="#2d3134"/>
      <path d="m70.6 216.6c-2.7 0.4-6.5-0.5-11.2-2.2-3.7-1.3-8-2.5-12-3.9-0.3-0.1-0.5-0.2-0.7-0.3 0.3 1 1 1.9 2.2 2.3 3.8 1.3 7.9 2.4 11.3 3.6 4.4 1.6 7.9 2.4 10.5 2 1.8-0.3 3.2-1.9 2.8-3.5-0.5 1-1.6 1.8-2.9 2z" opacity=".4"/>
      <path d="m30 104 25.9-0.4s4.5 19.8 3.6 31.4-0.3 23.5-0.4 33.4 3.4 36.5 2.9 36.9c-1.8 1.7-11 2.9-13.2 3s-4-0.6-4-1.3-0.1-16.5-0.7-20.7c-0.5-4-1.9-12.4-2.3-21.2-0.4-9.7-1.8-18.1-2.9-22.7-1.3-4.5-8.9-38.4-8.9-38.4z" fill="#06547a"/>
      <path d="m44.4 194.1 0.1 4.8s4.6 0 8.5-0.7 8.2-1.9 8.2-1.9l-0.5-5.1s-5 1.6-8 2.1c-3.7 0.6-8.3 0.8-8.3 0.8z" fill="#fff"/>
      <path d="m30 104 25.9-0.4s4.5 19.8 3.6 31.4-0.3 23.5-0.4 33.4 3.4 36.5 2.9 36.9c-1.8 1.7-11 2.9-13.2 3s-4-0.6-4-1.3-0.1-16.5-0.7-20.7c-0.5-4-1.9-12.4-2.3-21.2-0.4-9.7-1.8-18.1-2.9-22.7-1.3-4.5-8.9-38.4-8.9-38.4z" opacity=".2"/>
      <path d="m62.6 80.9s6.4 1.8 8.2 2.8 5.2 3 5 5.3-1.5 4.4-4.1 5c-2.6 0.7-3.6-0.6-3.6-1.3s0.3-2-0.3-2.4-5.4-2-6.4-2.9c-0.9-0.8-2.4-2.6-2.4-2.6z" fill="#fbd7c7"/>
      <path d="m52 63.7s6.8 10.8 8.1 12.7 3.3 4.4 3.3 4.4l-4.1 4.5-2.1-1.8s-6.8-6.5-7.8-7.1c-1.4-0.8-1.9-11.6-1.9-11.6z" fill="#f90"/>
      <path d="m52 63.7s6.8 10.8 8.1 12.7 3.3 4.4 3.3 4.4l-4.1 4.5-2.1-1.8s-6.8-6.5-7.8-7.1c-1.4-0.8-1.9-11.6-1.9-11.6z" opacity=".2"/>
      <polygon points="37.8 43 44.9 44.7 48.1 106.7 27.5 45.9" fill="#656565"/>
      <path d="m14.7 208.3c0.2 0.1 10.6 2.2 10.6 2.2s2.7 6 5.3 8.2c2.1 1.8 8 5.7 7.7 7.9s-6.3 4-11.9 1.1c-2.6-1.3-12.9-6.6-13.4-10.1-0.6-4 1.7-9.3 1.7-9.3z" fill="#2d3134"/>
      <path d="m26.4 225.9c-2.6-1.3-12.9-6.6-13.4-10.1 0-0.2 0-0.3-0.1-0.5-0.1 0.8-0.1 1.6 0.1 2.3 0.5 3.5 10.8 8.8 13.4 10.1 5.6 2.9 11.6 1.1 11.9-1.1 0-0.3-0.1-0.7-0.3-1.2-1.2 1.9-6.6 3.1-11.6 0.5z" opacity=".4"/>
      <path d="m20.5 103.3 26 0.8s-5.1 26.6-7.8 36.6c-2.7 9.9-6.5 23.5-7.4 28.4-0.9 5-3.8 32.7-3.6 37.4s-0.1 7.5-0.4 8.5-14.2 2.6-15.8-0.5c-0.4-0.8 0.1-35.5 1.9-43.1s1.5-21.9 1.4-29.1c-0.4-26 5.7-39 5.7-39z" fill="#06547a"/>
      <path d="m27.4 45.7s-9.7 4-13.4 7.5c-6.1 5.7-0.7 19.3 3.2 30.8s-2.2 39.5-1.7 40.4c0.8 1.6 24.1 5.1 29.2 1.7 2.4-1.6 3.1-27.3 2.1-35.9s-4.8-16.9-6.9-22c-1.8-4.5-12.5-22.5-12.5-22.5z" fill="#f90"/>
      <path d="m58.7 69.1c0.3 6.7-0.6 25.2 0.6 34.9 0.5 3.9 3.3 19.4 2.6 20.2-1 1.1-10 3-11.5-0.2-1.2-2.5-4.8-33-4.9-38.8-0.1-5.7-1.6-39.8-1.6-39.8 2.8 0.7 9.7 2.2 11.8 6.5s2.7 10.6 3 17.2z" fill="#f90"/>
      <path d="m49.1 117.6s6.2-0.4 8.5-1 3.7-1.1 3.7-1.1l-0.9-5.8-12 2z" fill="#fff"/>
      <path d="m46.5 117.7s-4.3 0.6-11.6 0.3-18.4-2.2-18.4-2.2l0.9-6.3s12.3 2.3 17.8 2.3 11.7 0.1 11.7 0.1z" fill="#fff"/>
      <polygon points="33.8 105.8 37.4 75.5 62.1 78.3 58.6 108.7" fill="#2d3134"/>
      <path d="m28.1 45.8s2.6-1.1 2.8-2.9c0.2-1.9-5.6-9.2-0.8-16s16.9-5.6 19 1.2 2.3 19.6 0.7 21c-2 1.7-5.6 1-5.6 1s-1.2 3.1-0.9 4.9c0.4 2.5-1.9 2.8-3.2 2.7-1.8-0.2-9.5-4.9-12-11.9z" fill="#fbd7c7"/>
      <path d="m30.1 41.2 1.5 0.9s-4-5.4-1.3-6.5 3.9 2.2 3.9 2.2 2-3.4 5-3.7c3.1-0.3 11.4-2.2 11.2-4.8-0.1-1-3.4-10-13.3-8.3s-10.2 9.9-9.6 13.2 2.6 7 2.6 7z" fill="#762c07"/>
      <path d="m11.5 198.4-0.1 5.4s5.4 1 9.5 0.6 7-1.4 7-1.4l0.5-5.6s-3.7 1.1-8.2 1.3c-4 0.2-8.7-0.3-8.7-0.3z" fill="#fff"/>
      <path d="m54.2 31.3s2.8 1.2 2.8 2.1-8.3 4.5-14 3.9-16.1-3.5-16.7-5 0.7-16.2 12.7-16.2c14.1 0 15.2 15.2 15.2 15.2z" fill="#e5e5e5"/>
      <path d="m57 33.4c0 0.9-8.3 4.5-14 3.9-4.6-0.5-12.1-2.4-15.2-4 3.1 1.1 7.3 2.2 10.4 2.1 5.4-0.2 14.2-2.8 16.1-4.1-0.1 0 2.7 1.2 2.7 2.1z" opacity=".2"/>
      <path d="m52.7 29.6-1.2 0.4c-0.6-3.6-3.3-13.3-13.8-13.3-0.6 0-1.2 0.1-1.8 0.1 0.9-0.3 1.9-0.4 3-0.4 10.4 0 13.2 9.5 13.8 13.2z" opacity=".2"/>
      <path d="m48.3 31.1c-0.3-2.6-2-13.8-11.2-13.8-0.5 0-1 0.1-1.4 0.1 0.7-0.3 1.5-0.4 2.4-0.4 9.1 0 11.2 10.9 11.5 13.6z" opacity=".2"/>
      <path d="m45.8 101 0.3-7.1-3.5-0.2s-2.5-1.4-8.7-3.9c-4.8-2-8.2-2.8-8.2-2.8s0.7-13.1 1.1-20.1-5.4-13.7-10.9-12.2c-3.7 1-3.4 4.1-3.5 8.1 0.2 6.1 3.4 13.8 5.9 21.4 1.7 5.2 0.7 12.1-0.1 18.7 1.6 0.2 23.7-2 23.7-2z" opacity=".2"/>
      <path d="m44.4 100.9s4.1 0.7 6.4 1.4c2.3 0.6 6.2 0.6 8.9 0.2s3.2-7.1 0.3-7.4-4.7-0.5-4.7-0.5 1.2-2.3 2.8-3.4c1.2-0.8 1.6-1.3 1-2.2-0.6-0.8-3.8 1.7-6.3 2.9s-3.5 0.3-4.9 1.1c-1.4 0.7-3.5 1.2-3.5 1.2z" fill="#fbd7c7"/>
      <path d="m15.9 54.6c5.4-1.5 10.2 3.1 9.8 10-0.4 7-1 13.2-1.7 17.1-0.5 3.1-1.2 7-1.2 7s3.6 1.2 8.7 2.2c5.5 1.1 10.2 2.3 10.2 2.3l3.3 0.8-0.3 7.1-4.4 0.6s-8.7 0.3-16-0.1-11.7-1.1-12.9-5.3-0.9-17.9-0.6-24.9-1.2-15.1 5.1-16.8z" fill="#f90"/>
      <path d="m24.9 76.6-0.9 6s-3.9 0.3-6.8 0.3-6.7-0.4-6.7-0.4l-0.1-6.1s4 0.6 7 0.5 7.5-0.3 7.5-0.3z" fill="#fff"/>
     </g>
     <g class="top-level-node" transform="matrix(.1 0 0 .1 736 204)">
      <path d="m148 230.1c12.3-8.2-0.2-17-17.1-21.3-7.4-1.9-20.2-11.6-39.8-1.1-15.8 8.5 7.5 12.3 16.4 16.8 10.7 5.4 19 19.9 40.5 5.6z" opacity=".2"/>
      <path d="m113.6 198.7-10.4 1.2s-0.2 1.8-2.1 3.8-10.1 6.4-11.7 7.6c-2.8 2.1-0.9 5 1.5 5.3 2.6 0.4 6.1-0.4 10.5-2 3.4-1.2 7.4-2.3 11.3-3.6 3.3-1.1 2.5-5.9 2-8-0.6-2.1-1.1-4.3-1.1-4.3z" fill="#2d3134"/>
      <path d="m91 215.1c2.7 0.4 6.5-0.5 11.2-2.2 3.7-1.3 7.9-2.5 12-3.9 0.3-0.1 0.5-0.2 0.7-0.3-0.3 1-1 1.9-2.2 2.3-3.8 1.3-7.8 2.4-11.3 3.6-4.4 1.6-7.9 2.4-10.5 2-1.8-0.3-3.2-1.9-2.8-3.5 0.5 1 1.6 1.8 2.9 2z" opacity=".4"/>
      <path d="m103.4 99.7s-6.1 23.2-5.7 34.4 2.4 23.6 2.9 33 0.4 30.7-0.1 34.9c-0.6 4.8 1.8 5.1 4.8 5.2 3.1 0.1 9.1-0.9 10.1-1.9s0.9-8.7 0.9-14.3 0.5-14 0.1-21.9c-0.3-6.8 2.2-16.2 3.6-21.4s7.4-22.6 7.8-27.4 0.1-15.2 0.1-15.2z" fill="#06547a"/>
      <path d="m100.6 189.6 0.1 5.2s1.3 1 6.1 1.1c4.8 0.2 9.7-0.7 9.7-0.7l0.1-5.6s-6 0.7-9.5 0.6c-3.5 0-6.5-0.6-6.5-0.6z" fill="#fff"/>
      <path d="m103.4 99.7s-6.1 23.2-5.7 34.4 2.4 23.6 2.9 33 0.4 30.7-0.1 34.9c-0.6 4.8 1.8 5.1 4.8 5.2 3.1 0.1 9.1-0.9 10.1-1.9s0.9-8.7 0.9-14.3 0.5-14 0.1-21.9c-0.3-6.8 2.2-16.2 3.6-21.4s7.4-22.6 7.8-27.4 0.1-15.2 0.1-15.2z" opacity=".2"/>
      <path d="m66.5 28.1s3.6-1.3 3.9-2.4-0.4-11-1.3-13-3.7-7.4-4.9-8.6-4.4-2.1-4.4-2.1-1.1-1.5-2.3-1.2-1.8 1.8-1.1 2.6 0.4 0.9 0 1.2-0.4 1.2 0.5 2.1 2.3 3.8 3.1 6.1 1.8 9.6 2.6 11.3 2.9 3.9 3.9 4z" fill="#fbd7c7"/>
      <path d="m67.5 14.3s-3.6-3.3-4.5-3.3-1.1 1.8-0.4 2.9 2.5 3.3 2.7 4.7 0.1 2.8-0.5 2.9-3.2-8.8-3.4-10.4-0.3-3.8 0.8-4.1 5.3 7.3 5.3 7.3z" opacity=".2"/>
      <path d="m70.9 23.6s9.7 7.4 11.4 9.8 15.4 12.3 18.9 14.6 13.9 9.8 13.9 9.8l-12.1 13.4s-11.5-10-14.2-12.6c-2.6-2.6-8.2-10-10.3-11.7-3-2.4-8.2-9.9-10-12.4-1.8-2.4-3.2-6.6-3.2-6.6s1.6 0 3.3-1.3c1.6-1.1 2.3-3 2.3-3z" fill="#f90"/>
      <path d="m149.8 214.5c-0.2 0.1-10.6 2.2-10.6 2.2s-2.7 6-5.3 8.1c-2.1 1.8-8 5.7-7.7 7.9s6.3 4 11.9 1.1c2.6-1.3 12.9-6.6 13.4-10.1 0.6-4-1.7-9.2-1.7-9.2z" fill="#2d3134"/>
      <path d="m138.1 232c2.6-1.3 12.9-6.6 13.4-10.1 0-0.2 0-0.3 0.1-0.5 0.1 0.8 0.1 1.6-0.1 2.3-0.5 3.5-10.8 8.8-13.4 10.1-5.6 2.9-11.6 1.1-11.9-1.1 0-0.3 0.1-0.7 0.3-1.2 1.2 1.9 6.6 3.1 11.6 0.5z" opacity=".4"/>
      <path d="m110.7 105.1c0.3 6.5 5.2 33.2 8.9 45.3s6.5 19.8 8.3 26.8 5.9 23.7 7 32c0.4 3.2 1 12 1.7 12.9 3.3 4.1 11.3 2 12.9 0.6 1.7-1.6 2.6-2.4 2.2-5.5s-1.7-21.3-2.7-27.8c-1.7-10.7-5-15-6.1-20.1s1.1-24.1-2.3-42-7.5-21.7-7.5-21.7z" fill="#06547a"/>
      <polygon points="120 49.7 113 51.4 109.8 113.3 130.4 52.6" fill="#656565"/>
      <path d="m130.3 52.4s10.4 3.3 14.2 6.8c6.1 5.7-0.1 20-3.9 31.6s2.2 39.5 1.7 40.4c-0.8 1.6-24.1 5.1-29.2 1.7-2.4-1.6-3.1-27.3-2.1-35.9 1-8.7 4.6-17.1 6.7-22.2 1.9-4.4 12.6-22.4 12.6-22.4z" fill="#f90"/>
      <path d="m99.8 75.6c-0.3 6.7 0.6 25.2-0.6 34.9-0.5 3.9-3.3 19.4-2.6 20.2 1 1.1 10 3 11.5-0.2 1.2-2.5 4.8-33 4.9-38.8 0-5.7 1.6-39.7 1.6-39.7-2.8 0.7-9.7 2.2-11.8 6.5s-2.7 10.4-3 17.1z" fill="#f90"/>
      <path d="m109.4 124s-6.2-0.4-8.5-1-3.7-1.1-3.7-1.1l0.9-5.8 11.9 1.9z" fill="#fff"/>
      <path d="m111.1 124.1s4.3 0.6 11.7 0.3 18.3-2.2 18.3-2.2l-0.7-6.4s-12.5 2.3-17.9 2.4c-5.5 0.1-11.7 0-11.7 0z" fill="#fff"/>
      <path d="m129.7 52.5s-2.6-1.1-2.7-2.9c-0.2-1.9 5.6-9.2 0.8-16-4.9-6.8-16.9-5.5-19 1.2s-2.3 19.6-0.7 21c2 1.7 5.6 1 5.6 1s1.2 3.1 0.9 4.9c-0.4 2.5 1.9 2.7 3.2 2.7 1.8-0.2 9.5-5 11.9-11.9z" fill="#fbd7c7"/>
      <path d="m127.7 47.9-1.5 0.9s3.9-5.4 1.3-6.5-3.9 2.2-3.9 2.2-1.9-3.4-5-3.7-11.4-2.2-11.1-4.8c0.1-1 3.4-10 13.2-8.3s10.2 9.9 9.6 13.2c-0.5 3.3-2.6 7-2.6 7z" fill="#762c07"/>
      <path d="m104 38.7s-2.8 1.2-2.8 2.1 8.3 4.5 14 3.9 16.1-3.5 16.7-5-0.7-16.2-12.7-16.2c-14 0-15.2 15.2-15.2 15.2z" fill="#e5e5e5"/>
      <path d="m101.2 40.8c0 0.9 8.3 4.5 14 3.9 4.6-0.5 12.1-2.4 15.2-4-3.1 1.1-7.3 2.2-10.4 2.1-5.4-0.2-14.2-2.8-16.1-4.1 0.1 0-2.7 1.2-2.7 2.1z" opacity=".2"/>
      <path d="m105.5 37 1.2 0.4c0.6-3.6 3.3-13.3 13.8-13.3 0.6 0 1.2 0.1 1.8 0.1-0.9-0.3-1.9-0.4-3-0.4-10.4 0-13.1 9.5-13.8 13.2z" opacity=".2"/>
      <path d="m110 38.5c0.3-2.6 2-13.8 11.2-13.8 0.5 0 1 0.1 1.4 0.1-0.7-0.3-1.5-0.4-2.4-0.4-9.1 0-11.2 10.9-11.5 13.6z" opacity=".2"/>
      <path d="m109.9 50.6-4.4-1.1 1-3.9-1.3-0.3-1 3.9c-1.2-0.2-2.5 0.6-2.8 1.8l-3.1 12.2c-0.3 1.3 0.5 2.7 1.8 3l5.5 1.4c1.3 0.3 2.7-0.5 3-1.8l3.1-12.2c0.3-1.4-0.5-2.7-1.8-3z" fill="#2d3134"/>
      <path d="m140.6 90.8c2.8-8.5 6.9-18.5 6.4-25.5-2-2.9-6.6-3.2-8.6-1.6-5.6 4.2-13.9 14.8-13.9 14.8l-15.2-11.1c-1.4-0.4-7.9 0.7-8.2 3.1s3.2 13.2 6.4 18.6c3.6 6 10.4 11.5 15 13.5 4 1.7 11.7 2.5 16.9 0.8-0.2-4.8 0.1-9.3 1.2-12.6z" opacity=".2"/>
      <path d="m107.7 69.1s1.4-3.1 1.9-4.7 2.8-6.1 1.7-7.4c-1.3-1.4-3 3.9-3.7 3.9s-4.7-2.4-5.4-4.7 0.1-5.3-1.4-5.5-3.8 3.8-4.1 8c-0.3 4 0.6 5.8 1.5 7.7 0.9 1.8 4.2 6 4.2 6z" fill="#fbd7c7"/>
      <path d="m109.2 67c-1.4-0.4-8.2 2-8.5 4.4s4.4 10.1 7.7 15.5c3.6 6 9.3 12.8 14.3 13.3 4.3 0.4 12.1-5.3 15.7-10.1 3.9-5.2 8.7-13.9 9.1-21.2 0.3-5-4.8-9.3-9.8-4.9-5.3 4.6-6 8.3-8.1 12.1-2.3 4-5.7 9.6-5.7 9.6z" fill="#f90"/>
      <path d="m127.8 78.5s3.8 3.6 7 5.9 5.6 3.2 5.6 3.2l2.9-4.7s-3.3-1.8-5.6-3.7-7-5.7-7-5.7z" fill="#fff"/>
      <path d="m135.1 212.9s3.5 1.8 7.8 0.9 8-4 8-4l-0.3-5.6s-5.6 3.3-8.8 3.8-7.2-0.1-7.2-0.1z" fill="#fff"/>
     </g>
     <g class="top-level-node" transform="translate(788,148)">
      <path d="m16 0c-8.8 0-16 7.2-16 16v56c0 4.4 7.2 8 16 8s16-3.6 16-8v-56c0-8.8-7.2-16-16-16z" fill="#e5e5e5"/>
      <path d="m16 24c-8.8 0-16-3.6-16-8v56c0 4.4 7.2 8 16 8s16-3.6 16-8v-56c0 4.4-7.2 8-16 8z" opacity=".2"/>
      <path d="m8 18c-1.1 0-2 0.4-2 1v53c0 0.6 0.9 1 2 1s2-0.4 2-1v-53c0-0.6-0.9-1-2-1z" fill="#e5e5e5"/>
     </g>
     <g class="top-level-node" transform="translate(812,156)">
      <path d="m16 0c-8.8 0-16 7.2-16 16v56c0 4.4 7.2 8 16 8s16-3.6 16-8v-56c0-8.8-7.2-16-16-16z" fill="#e5e5e5"/>
      <path d="m16 24c-8.8 0-16-3.6-16-8v56c0 4.4 7.2 8 16 8s16-3.6 16-8v-56c0 4.4-7.2 8-16 8z" opacity=".2"/>
      <path d="m8 18c-1.1 0-2 0.4-2 1v53c0 0.6 0.9 1 2 1s2-0.4 2-1v-53c0-0.6-0.9-1-2-1z" fill="#e5e5e5"/>
     </g>
     <g class="top-level-node" transform="matrix(-1,0,0,1,756,268)">
      <polygon points="30 23 32 22 2 7 0 8" opacity=".2"/>
      <polygon points="30 16 30 18 0 3 0 1" fill="#e5e5e5"/>
      <polygon points="30 16 32 15 2 0 0 1" fill="#e5e5e5"/>
      <g fill="#cc291f">
       <polygon points="3 4.5 5 3.5 7 4.5 5 5.5"/>
       <polygon points="8 3 5 3.5 7 4.5 10 4"/>
       <polygon points="10 8 12 7 14 8 12 9"/>
       <polygon points="17 11.5 19 10.5 21 11.5 19 12.5"/>
       <polygon points="24 15 26 14 28 15 26 16"/>
       <polygon points="15 6.5 12 7 14 8 17 7.5"/>
       <polygon points="22 10 19 10.5 21 11.5 24 11"/>
       <polygon points="29 13.5 26 14 28 15 31 14.5"/>
      </g>
      <polygon points="30 16 30 18 0 3 0 1" opacity=".29"/>
      <polygon points="34 13 32 12 30 13 30 23 32 24 34 23" fill="#e5e5e5"/>
      <polygon points="34 23 34 13 32 14 32 24" opacity=".11"/>
      <polygon points="30 23 30 13 32 14 32 24" opacity=".29"/>
     </g>
     <g class="top-level-node" transform="matrix(-1,0,0,1,796,244)">
      <polygon points="38 31 40 30 10 15 8 16" opacity=".2"/>
      <polygon points="10 5 8 4 6 5 6 15 8 16 10 15" fill="#e5e5e5"/>
      <polygon points="10 15 10 5 8 6 8 16" opacity=".11"/>
      <polygon points="6 15 6 5 8 6 8 16" opacity=".29"/>
      <polygon points="40 25 40 23 38 24 38 26" fill="#e5e5e5"/>
      <polygon points="40 25 40 23 38 24 38 26" opacity=".11"/>
      <polygon points="38 24 38 26 8 11 8 9" fill="#e5e5e5"/>
      <polygon points="38 24 40 23 10 8 8 9" fill="#e5e5e5"/>
      <g fill="#cc291f">
       <polygon points="11 12.5 13 11.5 15 12.5 13 13.5"/>
       <polygon points="16 11 13 11.5 15 12.5 18 12"/>
       <polygon points="18 16 20 15 22 16 20 17"/>
       <polygon points="25 19.5 27 18.5 29 19.5 27 20.5"/>
       <polygon points="32 23 34 22 36 23 34 24"/>
       <polygon points="23 14.5 20 15 22 16 25 15.5"/>
       <polygon points="30 18 27 18.5 29 19.5 32 19"/>
       <polygon points="37 21.5 34 22 36 23 39 22.5"/>
      </g>
      <polygon points="38 24 38 26 8 11 8 9" opacity=".29"/>
     </g>
     <g class="top-level-node" transform="translate(816,212)">
      <polygon points="22 4 24 3 26 4 26 23 24 24 22 23" fill="#e5e5e5"/>
      <polygon points="22 4 24 3 26 4 26 23 24 24 22 23" opacity=".1"/>
      <polygon points="22 23 22 4 24 5 24 24" opacity=".11"/>
      <polygon points="26 23 26 4 24 5 24 24" opacity=".29"/>
      <polygon points="24 22 24 7 10 14 10 29" fill="#e5e5e5"/>
      <polygon points="24 22 24 7 10 14 10 29" opacity=".29"/>
      <polygon points="8 13 22 6 24 7 10 14" fill="#e5e5e5"/>
      <polygon points="6 12 8 11 10 12 10 31 8 32 6 31" fill="#e5e5e5"/>
      <polygon points="6 12 8 11 10 12 10 31 8 32 6 31" opacity=".1"/>
      <polygon points="6 31 6 12 8 13 8 32" opacity=".11"/>
      <polygon points="10 31 10 12 8 13 8 32" opacity=".29"/>
     </g>
     <g class="top-level-node" transform="translate(800,220)">
      <polygon points="22 4 24 3 26 4 26 23 24 24 22 23" fill="#e5e5e5"/>
      <polygon points="22 4 24 3 26 4 26 23 24 24 22 23" opacity=".1"/>
      <polygon points="22 23 22 4 24 5 24 24" opacity=".11"/>
      <polygon points="26 23 26 4 24 5 24 24" opacity=".29"/>
      <polygon points="24 22 24 7 10 14 10 29" fill="#e5e5e5"/>
      <polygon points="24 22 24 7 10 14 10 29" opacity=".29"/>
      <polygon points="8 13 22 6 24 7 10 14" fill="#e5e5e5"/>
      <polygon points="6 12 8 11 10 12 10 31 8 32 6 31" fill="#e5e5e5"/>
      <polygon points="6 12 8 11 10 12 10 31 8 32 6 31" opacity=".1"/>
      <polygon points="6 31 6 12 8 13 8 32" opacity=".11"/>
      <polygon points="10 31 10 12 8 13 8 32" opacity=".29"/>
     </g>
     <g class="top-level-node" transform="translate(784,228)">
      <polygon points="22 4 24 3 26 4 26 23 24 24 22 23" fill="#e5e5e5"/>
      <polygon points="22 4 24 3 26 4 26 23 24 24 22 23" opacity=".1"/>
      <polygon points="22 23 22 4 24 5 24 24" opacity=".11"/>
      <polygon points="26 23 26 4 24 5 24 24" opacity=".29"/>
      <polygon points="24 22 24 7 10 14 10 29" fill="#e5e5e5"/>
      <polygon points="24 22 24 7 10 14 10 29" opacity=".29"/>
      <polygon points="8 13 22 6 24 7 10 14" fill="#e5e5e5"/>
      <polygon points="6 12 8 11 10 12 10 31 8 32 6 31" fill="#e5e5e5"/>
      <polygon points="6 12 8 11 10 12 10 31 8 32 6 31" opacity=".1"/>
      <polygon points="6 31 6 12 8 13 8 32" opacity=".11"/>
      <polygon points="10 31 10 12 8 13 8 32" opacity=".29"/>
     </g>
    </g>
   </g>
  </a>
 </g>
</svg>
