<?xml version="1.0" encoding="UTF-8"?>
<svg width="260" height="229" version="1.1" xmlns="http://www.w3.org/2000/svg" xmlns:cc="http://creativecommons.org/ns#" xmlns:dc="http://purl.org/dc/elements/1.1/" xmlns:rdf="http://www.w3.org/1999/02/22-rdf-syntax-ns#">
 <metadata>
  <rdf:RDF>
   <cc:Work rdf:about="">
    <dc:format>image/svg+xml</dc:format>
    <dc:type rdf:resource="http://purl.org/dc/dcmitype/StillImage"/>
    <dc:title/>
   </cc:Work>
  </rdf:RDF>
 </metadata>
 <g transform="matrix(-1 0 0 1 470.91 -127.25)">
  <g class="top-level-node" transform="translate(212.91 260.25)">
   <polygon points="128 32 64 64 0 32 64 0" fill="#baa794"/>
   <polygon points="128 32 64 64 0 32 64 0" opacity=".15"/>
   <g fill="#baa794">
    <polygon points="70 29 64 26 60 28 66 31"/>
    <polygon points="93 15 89 13 83 16 87 18"/>
    <polygon points="68 4 62 1 58 3 64 6"/>
    <polygon points="62 7 56 4 50 7 56 10"/>
    <polygon points="48 20 44 18 40 20 48 24 54 21 50 19"/>
    <polygon points="78 9 74 11 82 15 86 13"/>
    <polygon points="72 4 68 6 74 9 78 7"/>
    <polygon points="68 26 76 22 80 24 72 28"/>
    <polygon points="70 19 74 21 76 20 80 22 86 19 78 15"/>
    <polygon points="66 15 56 20 60 22 64 20 70 17"/>
    <polygon points="50 9 54 11 50 13 54 15 48 18 44 16 46 15 42 13"/>
    <polygon points="54 13 58 11 64 14 54 19 52 18 58 15"/>
    <polygon points="70 11 72 10 70 9 64 12 72 16 76 14"/>
    <polygon points="68 8 66 7 60 10 62 11"/>
    <polygon points="42 15 38 13 32 16 38 19 42 17 40 16"/>
    <polygon points="30 41 26 39 20 42 24 44"/>
    <polygon points="38 45 32 42 28 44 34 47"/>
    <polygon points="56 30 52 28 48 30 56 34 62 31 58 29"/>
    <polygon points="36 20 30 17 26 19 32 22"/>
    <polygon points="30 23 24 20 18 23 24 26"/>
    <polygon points="16 36 12 34 8 36 18 41 24 38 18 35"/>
    <polygon points="40 20 36 22 42 25 46 23"/>
    <polygon points="36 42 44 38 48 40 40 44"/>
    <polygon points="36 36 40 38 44 36 46 37 52 34 46 31"/>
    <polygon points="38 33 34 31 24 36 34 41 38 39 32 36"/>
    <polygon points="18 25 22 27 18 29 22 31 16 34 12 32 14 31 10 29"/>
    <polygon points="22 29 26 27 32 30 22 35 20 34 26 31"/>
    <polygon points="38 27 40 26 38 25 32 28 40 32 44 30"/>
    <polygon points="36 24 34 23 28 26 30 27"/>
    <polygon points="10 31 6 29 0 32 6 35 10 33 8 32"/>
    <polygon points="94 41 88 38 82 41 88 44"/>
    <polygon points="102 45 96 42 92 44 98 47"/>
    <polygon points="125 31 121 29 115 32 119 34"/>
    <polygon points="100 20 94 17 90 19 96 22"/>
    <polygon points="94 23 88 20 82 23 88 26"/>
    <polygon points="80 36 76 34 72 36 80 40 86 37 82 35"/>
    <polygon points="110 25 106 27 114 31 118 29"/>
    <polygon points="104 20 100 22 106 25 110 23"/>
    <polygon points="100 42 108 38 112 40 104 44"/>
    <polygon points="100 36 104 38 108 36 112 38 118 35 110 31"/>
    <polygon points="102 33 98 31 88 36 98 41 102 39 96 36"/>
    <polygon points="82 25 86 27 82 29 86 31 80 34 76 32 78 31 74 29"/>
    <polygon points="86 29 90 27 96 30 86 35 84 34 90 31"/>
    <polygon points="102 27 104 26 102 25 96 28 104 32 108 30"/>
    <polygon points="100 24 98 23 92 26 94 27"/>
    <polygon points="74 31 70 29 66 31 72 34 74 33 72 32"/>
    <polygon points="62 57 58 55 52 58 56 60"/>
    <polygon points="70 61 64 58 60 60 66 63"/>
    <polygon points="93 47 89 45 83 48 87 50"/>
    <polygon points="70 35 64 32 58 35 64 38"/>
    <polygon points="48 52 44 50 40 52 50 57 56 54 50 51"/>
    <polygon points="78 41 74 43 82 47 86 45"/>
    <polygon points="72 36 68 38 74 41 78 39"/>
    <polygon points="68 58 76 54 80 56 72 60"/>
    <polygon points="68 52 72 54 76 52 80 54 86 51 78 47"/>
    <polygon points="70 49 66 47 56 52 66 57 70 55 64 52"/>
    <polygon points="50 41 54 43 50 45 54 47 48 50 44 48 46 47 42 45"/>
    <polygon points="54 45 58 43 64 46 54 51 52 50 58 47"/>
    <polygon points="72 42 66 39 64 40 66 41 62 43 72 48 76 46 70 43"/>
    <polygon points="42 47 38 45 32 48 38 51 42 49 40 48"/>
    <polygon points="60 24 56 22 54 23 60 26 64 24 66 25 72 22 68 20"/>
    <polygon points="48 26 46 25 42 27 46 29 52 26 56 28 58 27 52 24"/>
    <polygon points="54 35 48 38 56 42 58 41 60 42 62 41 60 40 62 39"/>
   </g>
  </g>
  <g class="top-level-node" transform="translate(276.91 228.25)">
   <polygon points="128 32 64 64 0 32 64 0" fill="#baa794"/>
   <polygon points="128 32 64 64 0 32 64 0" opacity=".15"/>
   <g fill="#baa794">
    <polygon points="70 29 64 26 60 28 66 31"/>
    <polygon points="93 15 89 13 83 16 87 18"/>
    <polygon points="68 4 62 1 58 3 64 6"/>
    <polygon points="62 7 56 4 50 7 56 10"/>
    <polygon points="48 20 44 18 40 20 48 24 54 21 50 19"/>
    <polygon points="78 9 74 11 82 15 86 13"/>
    <polygon points="72 4 68 6 74 9 78 7"/>
    <polygon points="68 26 76 22 80 24 72 28"/>
    <polygon points="70 19 74 21 76 20 80 22 86 19 78 15"/>
    <polygon points="66 15 56 20 60 22 64 20 70 17"/>
    <polygon points="50 9 54 11 50 13 54 15 48 18 44 16 46 15 42 13"/>
    <polygon points="54 13 58 11 64 14 54 19 52 18 58 15"/>
    <polygon points="70 11 72 10 70 9 64 12 72 16 76 14"/>
    <polygon points="68 8 66 7 60 10 62 11"/>
    <polygon points="42 15 38 13 32 16 38 19 42 17 40 16"/>
    <polygon points="30 41 26 39 20 42 24 44"/>
    <polygon points="38 45 32 42 28 44 34 47"/>
    <polygon points="56 30 52 28 48 30 56 34 62 31 58 29"/>
    <polygon points="36 20 30 17 26 19 32 22"/>
    <polygon points="30 23 24 20 18 23 24 26"/>
    <polygon points="16 36 12 34 8 36 18 41 24 38 18 35"/>
    <polygon points="40 20 36 22 42 25 46 23"/>
    <polygon points="36 42 44 38 48 40 40 44"/>
    <polygon points="36 36 40 38 44 36 46 37 52 34 46 31"/>
    <polygon points="38 33 34 31 24 36 34 41 38 39 32 36"/>
    <polygon points="18 25 22 27 18 29 22 31 16 34 12 32 14 31 10 29"/>
    <polygon points="22 29 26 27 32 30 22 35 20 34 26 31"/>
    <polygon points="38 27 40 26 38 25 32 28 40 32 44 30"/>
    <polygon points="36 24 34 23 28 26 30 27"/>
    <polygon points="10 31 6 29 0 32 6 35 10 33 8 32"/>
    <polygon points="94 41 88 38 82 41 88 44"/>
    <polygon points="102 45 96 42 92 44 98 47"/>
    <polygon points="125 31 121 29 115 32 119 34"/>
    <polygon points="100 20 94 17 90 19 96 22"/>
    <polygon points="94 23 88 20 82 23 88 26"/>
    <polygon points="80 36 76 34 72 36 80 40 86 37 82 35"/>
    <polygon points="110 25 106 27 114 31 118 29"/>
    <polygon points="104 20 100 22 106 25 110 23"/>
    <polygon points="100 42 108 38 112 40 104 44"/>
    <polygon points="100 36 104 38 108 36 112 38 118 35 110 31"/>
    <polygon points="102 33 98 31 88 36 98 41 102 39 96 36"/>
    <polygon points="82 25 86 27 82 29 86 31 80 34 76 32 78 31 74 29"/>
    <polygon points="86 29 90 27 96 30 86 35 84 34 90 31"/>
    <polygon points="102 27 104 26 102 25 96 28 104 32 108 30"/>
    <polygon points="100 24 98 23 92 26 94 27"/>
    <polygon points="74 31 70 29 66 31 72 34 74 33 72 32"/>
    <polygon points="62 57 58 55 52 58 56 60"/>
    <polygon points="70 61 64 58 60 60 66 63"/>
    <polygon points="93 47 89 45 83 48 87 50"/>
    <polygon points="70 35 64 32 58 35 64 38"/>
    <polygon points="48 52 44 50 40 52 50 57 56 54 50 51"/>
    <polygon points="78 41 74 43 82 47 86 45"/>
    <polygon points="72 36 68 38 74 41 78 39"/>
    <polygon points="68 58 76 54 80 56 72 60"/>
    <polygon points="68 52 72 54 76 52 80 54 86 51 78 47"/>
    <polygon points="70 49 66 47 56 52 66 57 70 55 64 52"/>
    <polygon points="50 41 54 43 50 45 54 47 48 50 44 48 46 47 42 45"/>
    <polygon points="54 45 58 43 64 46 54 51 52 50 58 47"/>
    <polygon points="72 42 66 39 64 40 66 41 62 43 72 48 76 46 70 43"/>
    <polygon points="42 47 38 45 32 48 38 51 42 49 40 48"/>
    <polygon points="60 24 56 22 54 23 60 26 64 24 66 25 72 22 68 20"/>
    <polygon points="48 26 46 25 42 27 46 29 52 26 56 28 58 27 52 24"/>
    <polygon points="54 35 48 38 56 42 58 41 60 42 62 41 60 40 62 39"/>
   </g>
  </g>
  <g transform="translate(276.91 292.25)">
   <polygon points="0 32 64 0 128 32 64 64" fill="#baa794"/>
   <polygon points="0 32 64 0 128 32 64 64" opacity=".15"/>
   <g fill="#baa794">
    <polygon points="60 28 66 31 70 29 64 26"/>
    <polygon points="83 16 87 18 93 15 89 13"/>
    <polygon points="58 3 64 6 68 4 62 1"/>
    <polygon points="50 7 56 10 62 7 56 4"/>
    <polygon points="40 20 48 24 54 21 50 19 48 20 44 18"/>
    <polygon points="82 15 86 13 78 9 74 11"/>
    <polygon points="74 9 78 7 72 4 68 6"/>
    <polygon points="80 24 72 28 68 26 76 22"/>
    <polygon points="76 20 80 22 86 19 78 15 70 19 74 21"/>
    <polygon points="60 22 64 20 70 17 66 15 56 20"/>
    <polygon points="50 13 54 15 48 18 44 16 46 15 42 13 50 9 54 11"/>
    <polygon points="64 14 54 19 52 18 58 15 54 13 58 11"/>
    <polygon points="70 9 64 12 72 16 76 14 70 11 72 10"/>
    <polygon points="60 10 62 11 68 8 66 7"/>
    <polygon points="32 16 38 19 42 17 40 16 42 15 38 13"/>
    <polygon points="20 42 24 44 30 41 26 39"/>
    <polygon points="28 44 34 47 38 45 32 42"/>
    <polygon points="48 30 56 34 62 31 58 29 56 30 52 28"/>
    <polygon points="26 19 32 22 36 20 30 17"/>
    <polygon points="18 23 24 26 30 23 24 20"/>
    <polygon points="8 36 18 41 24 38 18 35 16 36 12 34"/>
    <polygon points="42 25 46 23 40 20 36 22"/>
    <polygon points="48 40 40 44 36 42 44 38"/>
    <polygon points="44 36 46 37 52 34 46 31 36 36 40 38"/>
    <polygon points="24 36 34 41 38 39 32 36 38 33 34 31"/>
    <polygon points="18 29 22 31 16 34 12 32 14 31 10 29 18 25 22 27"/>
    <polygon points="32 30 22 35 20 34 26 31 22 29 26 27"/>
    <polygon points="38 25 32 28 40 32 44 30 38 27 40 26"/>
    <polygon points="28 26 30 27 36 24 34 23"/>
    <polygon points="0 32 6 35 10 33 8 32 10 31 6 29"/>
    <polygon points="82 41 88 44 94 41 88 38"/>
    <polygon points="92 44 98 47 102 45 96 42"/>
    <polygon points="115 32 119 34 125 31 121 29"/>
    <polygon points="90 19 96 22 100 20 94 17"/>
    <polygon points="82 23 88 26 94 23 88 20"/>
    <polygon points="72 36 80 40 86 37 82 35 80 36 76 34"/>
    <polygon points="114 31 118 29 110 25 106 27"/>
    <polygon points="106 25 110 23 104 20 100 22"/>
    <polygon points="112 40 104 44 100 42 108 38"/>
    <polygon points="108 36 112 38 118 35 110 31 100 36 104 38"/>
    <polygon points="88 36 98 41 102 39 96 36 102 33 98 31"/>
    <polygon points="82 29 86 31 80 34 76 32 78 31 74 29 82 25 86 27"/>
    <polygon points="96 30 86 35 84 34 90 31 86 29 90 27"/>
    <polygon points="102 25 96 28 104 32 108 30 102 27 104 26"/>
    <polygon points="92 26 94 27 100 24 98 23"/>
    <polygon points="66 31 72 34 74 33 72 32 74 31 70 29"/>
    <polygon points="52 58 56 60 62 57 58 55"/>
    <polygon points="60 60 66 63 70 61 64 58"/>
    <polygon points="83 48 87 50 93 47 89 45"/>
    <polygon points="58 35 64 38 70 35 64 32"/>
    <polygon points="40 52 50 57 56 54 50 51 48 52 44 50"/>
    <polygon points="82 47 86 45 78 41 74 43"/>
    <polygon points="74 41 78 39 72 36 68 38"/>
    <polygon points="80 56 72 60 68 58 76 54"/>
    <polygon points="76 52 80 54 86 51 78 47 68 52 72 54"/>
    <polygon points="56 52 66 57 70 55 64 52 70 49 66 47"/>
    <polygon points="50 45 54 47 48 50 44 48 46 47 42 45 50 41 54 43"/>
    <polygon points="64 46 54 51 52 50 58 47 54 45 58 43"/>
    <polygon points="64 40 66 41 62 43 72 48 76 46 70 43 72 42 66 39"/>
    <polygon points="32 48 38 51 42 49 40 48 42 47 38 45"/>
    <polygon points="54 23 60 26 64 24 66 25 72 22 68 20 60 24 56 22"/>
    <polygon points="42 27 46 29 52 26 56 28 58 27 52 24 48 26 46 25"/>
    <polygon points="56 42 58 41 60 42 62 41 60 40 62 39 54 35 48 38"/>
   </g>
  </g>
  <g class="top-level-node" transform="translate(340.91 260.25)">
   <polygon points="128 32 64 64 0 32 64 0" fill="#baa794"/>
   <polygon points="128 32 64 64 0 32 64 0" opacity=".15"/>
   <g fill="#baa794">
    <polygon points="70 29 64 26 60 28 66 31"/>
    <polygon points="93 15 89 13 83 16 87 18"/>
    <polygon points="68 4 62 1 58 3 64 6"/>
    <polygon points="62 7 56 4 50 7 56 10"/>
    <polygon points="48 20 44 18 40 20 48 24 54 21 50 19"/>
    <polygon points="78 9 74 11 82 15 86 13"/>
    <polygon points="72 4 68 6 74 9 78 7"/>
    <polygon points="68 26 76 22 80 24 72 28"/>
    <polygon points="70 19 74 21 76 20 80 22 86 19 78 15"/>
    <polygon points="66 15 56 20 60 22 64 20 70 17"/>
    <polygon points="50 9 54 11 50 13 54 15 48 18 44 16 46 15 42 13"/>
    <polygon points="54 13 58 11 64 14 54 19 52 18 58 15"/>
    <polygon points="70 11 72 10 70 9 64 12 72 16 76 14"/>
    <polygon points="68 8 66 7 60 10 62 11"/>
    <polygon points="42 15 38 13 32 16 38 19 42 17 40 16"/>
    <polygon points="30 41 26 39 20 42 24 44"/>
    <polygon points="38 45 32 42 28 44 34 47"/>
    <polygon points="56 30 52 28 48 30 56 34 62 31 58 29"/>
    <polygon points="36 20 30 17 26 19 32 22"/>
    <polygon points="30 23 24 20 18 23 24 26"/>
    <polygon points="16 36 12 34 8 36 18 41 24 38 18 35"/>
    <polygon points="40 20 36 22 42 25 46 23"/>
    <polygon points="36 42 44 38 48 40 40 44"/>
    <polygon points="36 36 40 38 44 36 46 37 52 34 46 31"/>
    <polygon points="38 33 34 31 24 36 34 41 38 39 32 36"/>
    <polygon points="18 25 22 27 18 29 22 31 16 34 12 32 14 31 10 29"/>
    <polygon points="22 29 26 27 32 30 22 35 20 34 26 31"/>
    <polygon points="38 27 40 26 38 25 32 28 40 32 44 30"/>
    <polygon points="36 24 34 23 28 26 30 27"/>
    <polygon points="10 31 6 29 0 32 6 35 10 33 8 32"/>
    <polygon points="94 41 88 38 82 41 88 44"/>
    <polygon points="102 45 96 42 92 44 98 47"/>
    <polygon points="125 31 121 29 115 32 119 34"/>
    <polygon points="100 20 94 17 90 19 96 22"/>
    <polygon points="94 23 88 20 82 23 88 26"/>
    <polygon points="80 36 76 34 72 36 80 40 86 37 82 35"/>
    <polygon points="110 25 106 27 114 31 118 29"/>
    <polygon points="104 20 100 22 106 25 110 23"/>
    <polygon points="100 42 108 38 112 40 104 44"/>
    <polygon points="100 36 104 38 108 36 112 38 118 35 110 31"/>
    <polygon points="102 33 98 31 88 36 98 41 102 39 96 36"/>
    <polygon points="82 25 86 27 82 29 86 31 80 34 76 32 78 31 74 29"/>
    <polygon points="86 29 90 27 96 30 86 35 84 34 90 31"/>
    <polygon points="102 27 104 26 102 25 96 28 104 32 108 30"/>
    <polygon points="100 24 98 23 92 26 94 27"/>
    <polygon points="74 31 70 29 66 31 72 34 74 33 72 32"/>
    <polygon points="62 57 58 55 52 58 56 60"/>
    <polygon points="70 61 64 58 60 60 66 63"/>
    <polygon points="93 47 89 45 83 48 87 50"/>
    <polygon points="70 35 64 32 58 35 64 38"/>
    <polygon points="48 52 44 50 40 52 50 57 56 54 50 51"/>
    <polygon points="78 41 74 43 82 47 86 45"/>
    <polygon points="72 36 68 38 74 41 78 39"/>
    <polygon points="68 58 76 54 80 56 72 60"/>
    <polygon points="68 52 72 54 76 52 80 54 86 51 78 47"/>
    <polygon points="70 49 66 47 56 52 66 57 70 55 64 52"/>
    <polygon points="50 41 54 43 50 45 54 47 48 50 44 48 46 47 42 45"/>
    <polygon points="54 45 58 43 64 46 54 51 52 50 58 47"/>
    <polygon points="72 42 66 39 64 40 66 41 62 43 72 48 76 46 70 43"/>
    <polygon points="42 47 38 45 32 48 38 51 42 49 40 48"/>
    <polygon points="60 24 56 22 54 23 60 26 64 24 66 25 72 22 68 20"/>
    <polygon points="48 26 46 25 42 27 46 29 52 26 56 28 58 27 52 24"/>
    <polygon points="54 35 48 38 56 42 58 41 60 42 62 41 60 40 62 39"/>
   </g>
  </g>
  <g class="top-level-node" transform="translate(396.91 276.25)">
   <polygon points="10 47 8 46 70 15 72 16" opacity=".2"/>
   <polygon points="74 15 72 16 70 15 70 2 72 1 74 2" fill="#762c07"/>
   <polygon points="70 15 70 2 72 3 72 16" opacity=".11"/>
   <g fill="#762c07">
    <polygon points="58 23 56 24 54 23 54 10 56 9 58 10"/>
    <polygon points="58 21 58 19 72 5 72 7"/>
    <rect x="58" y="12" width="14" height="2"/>
   </g>
   <polygon points="54 23 54 10 56 11 56 24" opacity=".11"/>
   <g fill="#762c07">
    <polygon points="42 31 40 32 38 31 38 18 40 17 42 18"/>
    <polygon points="42 29 42 27 56 13 56 15"/>
    <rect x="42" y="20" width="14" height="2"/>
   </g>
   <polygon points="38 31 38 18 40 19 40 32" opacity=".11"/>
   <g fill="#762c07">
    <polygon points="26 39 24 40 22 39 22 26 24 25 26 26"/>
    <polygon points="26 37 26 35 40 21 40 23"/>
    <rect x="26" y="28" width="14" height="2"/>
   </g>
   <polygon points="22 39 22 26 24 27 24 40" opacity=".11"/>
   <g fill="#762c07">
    <polygon points="10 47 8 48 6 47 6 34 8 33 10 34"/>
    <polygon points="10 45 10 43 24 29 24 31"/>
    <rect x="10" y="36" width="14" height="2"/>
   </g>
   <path d="m72 3v2l-7 7h-7v-2l-2 1v2l-7 7h-7v-2l-2 1v2l-7 7h-7v-2l-2 1v2l-7 7h-7v-2l-2 1v13l2-1v-2l7-7h7v2l2-1v-2l7-7h7v2l2-1v-2l7-7h7v2l2-1v-2l7-7h7v2l2-1v-13zm-62 40v-5h5zm9-7 5-5v5zm7-1v-5h5zm9-7 5-5v5zm7-1v-5h5zm9-7 5-5v5zm7-1v-5h5zm14-7h-5l5-5z" opacity=".29"/>
   <polygon points="6 47 6 34 8 35 8 48" opacity=".11"/>
  </g>
  <g class="top-level-node" transform="translate(396.91 244.25)">
   <polygon points="70 47 72 46 10 15 8 16" opacity=".2"/>
   <polygon points="6 15 8 16 10 15 10 2 8 1 6 2" fill="#762c07"/>
   <polygon points="10 15 10 2 8 3 8 16" opacity=".29"/>
   <g fill="#762c07">
    <polygon points="22 23 24 24 26 23 26 10 24 9 22 10"/>
    <polygon points="22 21 22 19 8 5 8 7"/>
    <rect x="8" y="12" width="14" height="2"/>
   </g>
   <polygon points="26 23 26 10 24 11 24 24" opacity=".29"/>
   <g fill="#762c07">
    <polygon points="38 31 40 32 42 31 42 18 40 17 38 18"/>
    <polygon points="38 29 38 27 24 13 24 15"/>
    <rect x="24" y="20" width="14" height="2"/>
   </g>
   <polygon points="42 31 42 18 40 19 40 32" opacity=".29"/>
   <g fill="#762c07">
    <polygon points="54 39 56 40 58 39 58 26 56 25 54 26"/>
    <polygon points="54 37 54 35 40 21 40 23"/>
    <rect x="40" y="28" width="14" height="2"/>
   </g>
   <polygon points="58 39 58 26 56 27 56 40" opacity=".29"/>
   <g fill="#762c07">
    <polygon points="70 47 72 48 74 47 74 34 72 33 70 34"/>
    <polygon points="70 45 70 43 56 29 56 31"/>
    <rect x="56" y="36" width="14" height="2"/>
   </g>
   <path d="m6 2v13l2 1v-2h7l7 7v2l2 1v-2h7l7 7v2l2 1v-2h7l7 7v2l2 1v-2h7l7 7v2l2 1v-13l-2-1v2h-7l-7-7v-2l-2-1v2h-7l-7-7v-2l-2-1v2h-7l-7-7v-2l-2-1v2h-7l-7-7v-2zm59 36h5v5zm-9-2v-5l5 5zm-7-6h5v5zm-9-2v-5l5 5zm-7-6h5v5zm-9-2v-5l5 5zm-7-6h5v5zm-9-7 5 5h-5z" opacity=".11"/>
   <polygon points="74 47 74 34 72 35 72 48" opacity=".29"/>
  </g>
  <g class="top-level-node" transform="translate(268.91 212.25)">
   <polygon points="10 47 8 46 70 15 72 16" opacity=".2"/>
   <polygon points="74 15 72 16 70 15 70 2 72 1 74 2" fill="#762c07"/>
   <polygon points="70 15 70 2 72 3 72 16" opacity=".11"/>
   <g fill="#762c07">
    <polygon points="58 23 56 24 54 23 54 10 56 9 58 10"/>
    <polygon points="58 21 58 19 72 5 72 7"/>
    <rect x="58" y="12" width="14" height="2"/>
   </g>
   <polygon points="54 23 54 10 56 11 56 24" opacity=".11"/>
   <g fill="#762c07">
    <polygon points="42 31 40 32 38 31 38 18 40 17 42 18"/>
    <polygon points="42 29 42 27 56 13 56 15"/>
    <rect x="42" y="20" width="14" height="2"/>
   </g>
   <polygon points="38 31 38 18 40 19 40 32" opacity=".11"/>
   <g fill="#762c07">
    <polygon points="26 39 24 40 22 39 22 26 24 25 26 26"/>
    <polygon points="26 37 26 35 40 21 40 23"/>
    <rect x="26" y="28" width="14" height="2"/>
   </g>
   <polygon points="22 39 22 26 24 27 24 40" opacity=".11"/>
   <g fill="#762c07">
    <polygon points="10 47 8 48 6 47 6 34 8 33 10 34"/>
    <polygon points="10 45 10 43 24 29 24 31"/>
    <rect x="10" y="36" width="14" height="2"/>
   </g>
   <path d="m72 3v2l-7 7h-7v-2l-2 1v2l-7 7h-7v-2l-2 1v2l-7 7h-7v-2l-2 1v2l-7 7h-7v-2l-2 1v13l2-1v-2l7-7h7v2l2-1v-2l7-7h7v2l2-1v-2l7-7h7v2l2-1v-2l7-7h7v2l2-1v-13zm-62 40v-5h5zm9-7 5-5v5zm7-1v-5h5zm9-7 5-5v5zm7-1v-5h5zm9-7 5-5v5zm7-1v-5h5zm14-7h-5l5-5z" opacity=".29"/>
   <polygon points="6 47 6 34 8 35 8 48" opacity=".11"/>
  </g>
  <g class="top-level-node" transform="translate(300.91 124.25)">
   <polygon points="0 160 64 128 128 160 64 192" fill="#999"/>
   <polygon points="0 160 64 128 128 160 64 192" fill="#999"/>
   <polygon points="64 96.3 64 188.3 125 157.7 125 65.7 95 35" fill="#baa794"/>
   <polygon points="66 188.3 66 93 64 94 64 189.3" fill="#f8ebcb"/>
   <polygon points="66 188.3 66 91 67 90.5 67 186.8" fill="#f8ebcb"/>
   <polygon points="123 158.7 123 154.7 67 182.8 67 186.8" fill="#762c07"/>
   <polygon points="66 188.3 66 91.5 67 91 67 186.8" opacity=".15"/>
   <polygon points="125 158.7 125 66 123 64 123 159.7" fill="#f8ebcb"/>
   <polygon points="122 63 122 159.2 123 158.7 123 64" opacity=".15"/>
   <g fill="#762c07" opacity=".3">
    <polygon points="122 154 122 152 119 153.5 119 155.5"/>
    <polygon points="118 156 118 154 115 155.5 115 157.5"/>
    <polygon points="114 158 114 156 111 157.5 111 159.5"/>
    <polygon points="110 160 110 158 107 159.5 107 161.5"/>
    <polygon points="106 162 106 160 103 161.5 103 163.5"/>
    <polygon points="102 164 102 162 99 163.5 99 165.5"/>
    <polygon points="98 166 98 164 95 165.5 95 167.5"/>
    <polygon points="94 168 94 166 91 167.5 91 169.5"/>
    <polygon points="90 170 90 168 87 169.5 87 171.5"/>
    <polygon points="86 172 86 170 83 171.5 83 173.5"/>
    <polygon points="82 174 82 172 79 173.5 79 175.5"/>
    <polygon points="78 176 78 174 75 175.5 75 177.5"/>
    <polygon points="74 178 74 176 71 177.5 71 179.5"/>
    <polygon points="70 180 70 178 67 179.5 67 181.5"/>
    <polygon points="122 148 122 146 119 147.5 119 149.5"/>
    <polygon points="118 150 118 148 115 149.5 115 151.5"/>
    <polygon points="114 152 114 150 111 151.5 111 153.5"/>
    <polygon points="110 154 110 152 107 153.5 107 155.5"/>
    <polygon points="106 156 106 154 103 155.5 103 157.5"/>
    <polygon points="102 158 102 156 99 157.5 99 159.5"/>
    <polygon points="98 160 98 158 95 159.5 95 161.5"/>
    <polygon points="94 162 94 160 91 161.5 91 163.5"/>
    <polygon points="90 164 90 162 87 163.5 87 165.5"/>
    <polygon points="86 166 86 164 83 165.5 83 167.5"/>
    <polygon points="82 168 82 166 79 167.5 79 169.5"/>
    <polygon points="78 170 78 168 75 169.5 75 171.5"/>
    <polygon points="74 172 74 170 71 171.5 71 173.5"/>
    <polygon points="70 174 70 172 67 173.5 67 175.5"/>
    <polygon points="120 152 120 150 117 151.5 117 153.5"/>
    <polygon points="116 154 116 152 113 153.5 113 155.5"/>
    <polygon points="112 156 112 154 109 155.5 109 157.5"/>
    <polygon points="108 158 108 156 105 157.5 105 159.5"/>
    <polygon points="104 160 104 158 101 159.5 101 161.5"/>
    <polygon points="100 162 100 160 97 161.5 97 163.5"/>
    <polygon points="96 164 96 162 93 163.5 93 165.5"/>
    <polygon points="92 166 92 164 89 165.5 89 167.5"/>
    <polygon points="88 168 88 166 85 167.5 85 169.5"/>
    <polygon points="84 170 84 168 81 169.5 81 171.5"/>
    <polygon points="80 172 80 170 77 171.5 77 173.5"/>
    <polygon points="76 174 76 172 73 173.5 73 175.5"/>
    <polygon points="72 176 72 174 69 175.5 69 177.5"/>
    <polygon points="68 178 68 176 67 176.5 67 178.5"/>
    <polygon points="122 151 122 149 121 149.5 121 151.5"/>
    <polygon points="122 142 122 140 119 141.5 119 143.5"/>
    <polygon points="118 144 118 142 115 143.5 115 145.5"/>
    <polygon points="114 146 114 144 111 145.5 111 147.5"/>
    <polygon points="110 148 110 146 107 147.5 107 149.5"/>
    <polygon points="106 150 106 148 103 149.5 103 151.5"/>
    <polygon points="102 152 102 150 99 151.5 99 153.5"/>
    <polygon points="98 154 98 152 95 153.5 95 155.5"/>
    <polygon points="94 156 94 154 91 155.5 91 157.5"/>
    <polygon points="90 158 90 156 87 157.5 87 159.5"/>
    <polygon points="86 160 86 158 83 159.5 83 161.5"/>
    <polygon points="82 162 82 160 79 161.5 79 163.5"/>
    <polygon points="78 164 78 162 75 163.5 75 165.5"/>
    <polygon points="74 166 74 164 71 165.5 71 167.5"/>
    <polygon points="70 168 70 166 67 167.5 67 169.5"/>
    <polygon points="120 146 120 144 117 145.5 117 147.5"/>
    <polygon points="116 148 116 146 113 147.5 113 149.5"/>
    <polygon points="112 150 112 148 109 149.5 109 151.5"/>
    <polygon points="108 152 108 150 105 151.5 105 153.5"/>
    <polygon points="104 154 104 152 101 153.5 101 155.5"/>
    <polygon points="100 156 100 154 97 155.5 97 157.5"/>
    <polygon points="96 158 96 156 93 157.5 93 159.5"/>
    <polygon points="92 160 92 158 89 159.5 89 161.5"/>
    <polygon points="88 162 88 160 85 161.5 85 163.5"/>
    <polygon points="84 164 84 162 81 163.5 81 165.5"/>
    <polygon points="80 166 80 164 77 165.5 77 167.5"/>
    <polygon points="76 168 76 166 73 167.5 73 169.5"/>
    <polygon points="72 170 72 168 69 169.5 69 171.5"/>
    <polygon points="68 172 68 170 67 170.5 67 172.5"/>
    <polygon points="122 145 122 143 121 143.5 121 145.5"/>
    <polygon points="122 136 122 134 119 135.5 119 137.5"/>
    <polygon points="118 138 118 136 115 137.5 115 139.5"/>
    <polygon points="114 140 114 138 111 139.5 111 141.5"/>
    <polygon points="110 142 110 140 107 141.5 107 143.5"/>
    <polygon points="106 144 106 142 103 143.5 103 145.5"/>
    <polygon points="102 146 102 144 99 145.5 99 147.5"/>
    <polygon points="98 148 98 146 95 147.5 95 149.5"/>
    <polygon points="94 150 94 148 91 149.5 91 151.5"/>
    <polygon points="90 152 90 150 87 151.5 87 153.5"/>
    <polygon points="86 154 86 152 83 153.5 83 155.5"/>
    <polygon points="82 156 82 154 79 155.5 79 157.5"/>
    <polygon points="78 158 78 156 75 157.5 75 159.5"/>
    <polygon points="74 160 74 158 71 159.5 71 161.5"/>
    <polygon points="70 162 70 160 67 161.5 67 163.5"/>
    <polygon points="120 140 120 138 117 139.5 117 141.5"/>
    <polygon points="116 142 116 140 113 141.5 113 143.5"/>
    <polygon points="112 144 112 142 109 143.5 109 145.5"/>
    <polygon points="108 146 108 144 105 145.5 105 147.5"/>
    <polygon points="104 148 104 146 101 147.5 101 149.5"/>
    <polygon points="100 150 100 148 97 149.5 97 151.5"/>
    <polygon points="96 152 96 150 93 151.5 93 153.5"/>
    <polygon points="92 154 92 152 89 153.5 89 155.5"/>
    <polygon points="88 156 88 154 85 155.5 85 157.5"/>
    <polygon points="84 158 84 156 81 157.5 81 159.5"/>
    <polygon points="80 160 80 158 77 159.5 77 161.5"/>
    <polygon points="76 162 76 160 73 161.5 73 163.5"/>
    <polygon points="72 164 72 162 69 163.5 69 165.5"/>
    <polygon points="68 166 68 164 67 164.5 67 166.5"/>
    <polygon points="122 139 122 137 121 137.5 121 139.5"/>
    <polygon points="122 130 122 128 119 129.5 119 131.5"/>
    <polygon points="118 132 118 130 115 131.5 115 133.5"/>
    <polygon points="114 134 114 132 111 133.5 111 135.5"/>
    <polygon points="110 136 110 134 107 135.5 107 137.5"/>
    <polygon points="106 138 106 136 103 137.5 103 139.5"/>
    <polygon points="102 140 102 138 99 139.5 99 141.5"/>
    <polygon points="98 142 98 140 95 141.5 95 143.5"/>
    <polygon points="94 144 94 142 91 143.5 91 145.5"/>
    <polygon points="90 146 90 144 87 145.5 87 147.5"/>
    <polygon points="86 148 86 146 83 147.5 83 149.5"/>
    <polygon points="82 150 82 148 79 149.5 79 151.5"/>
    <polygon points="78 152 78 150 75 151.5 75 153.5"/>
    <polygon points="74 154 74 152 71 153.5 71 155.5"/>
    <polygon points="70 156 70 154 67 155.5 67 157.5"/>
    <polygon points="120 134 120 132 117 133.5 117 135.5"/>
    <polygon points="116 136 116 134 113 135.5 113 137.5"/>
    <polygon points="112 138 112 136 109 137.5 109 139.5"/>
    <polygon points="108 140 108 138 105 139.5 105 141.5"/>
    <polygon points="104 142 104 140 101 141.5 101 143.5"/>
    <polygon points="100 144 100 142 97 143.5 97 145.5"/>
    <polygon points="96 146 96 144 93 145.5 93 147.5"/>
    <polygon points="92 148 92 146 89 147.5 89 149.5"/>
    <polygon points="88 150 88 148 85 149.5 85 151.5"/>
    <polygon points="84 152 84 150 81 151.5 81 153.5"/>
    <polygon points="80 154 80 152 77 153.5 77 155.5"/>
    <polygon points="76 156 76 154 73 155.5 73 157.5"/>
    <polygon points="72 158 72 156 69 157.5 69 159.5"/>
    <polygon points="68 160 68 158 67 158.5 67 160.5"/>
    <polygon points="122 133 122 131 121 131.5 121 133.5"/>
    <polygon points="122 124 122 122 119 123.5 119 125.5"/>
    <polygon points="118 126 118 124 115 125.5 115 127.5"/>
    <polygon points="114 128 114 126 111 127.5 111 129.5"/>
    <polygon points="110 130 110 128 107 129.5 107 131.5"/>
    <polygon points="106 132 106 130 103 131.5 103 133.5"/>
    <polygon points="102 134 102 132 99 133.5 99 135.5"/>
    <polygon points="98 136 98 134 95 135.5 95 137.5"/>
    <polygon points="94 138 94 136 91 137.5 91 139.5"/>
    <polygon points="90 140 90 138 87 139.5 87 141.5"/>
    <polygon points="86 142 86 140 83 141.5 83 143.5"/>
    <polygon points="82 144 82 142 79 143.5 79 145.5"/>
    <polygon points="78 146 78 144 75 145.5 75 147.5"/>
    <polygon points="74 148 74 146 71 147.5 71 149.5"/>
    <polygon points="70 150 70 148 67 149.5 67 151.5"/>
    <polygon points="120 128 120 126 117 127.5 117 129.5"/>
    <polygon points="116 130 116 128 113 129.5 113 131.5"/>
    <polygon points="112 132 112 130 109 131.5 109 133.5"/>
    <polygon points="108 134 108 132 105 133.5 105 135.5"/>
    <polygon points="104 136 104 134 101 135.5 101 137.5"/>
    <polygon points="100 138 100 136 97 137.5 97 139.5"/>
    <polygon points="96 140 96 138 93 139.5 93 141.5"/>
    <polygon points="92 142 92 140 89 141.5 89 143.5"/>
    <polygon points="88 144 88 142 85 143.5 85 145.5"/>
    <polygon points="84 146 84 144 81 145.5 81 147.5"/>
    <polygon points="80 148 80 146 77 147.5 77 149.5"/>
    <polygon points="76 150 76 148 73 149.5 73 151.5"/>
    <polygon points="72 152 72 150 69 151.5 69 153.5"/>
    <polygon points="68 154 68 152 67 152.5 67 154.5"/>
    <polygon points="122 127 122 125 121 125.5 121 127.5"/>
    <polygon points="122 118 122 116 119 117.5 119 119.5"/>
    <polygon points="118 120 118 118 115 119.5 115 121.5"/>
    <polygon points="114 122 114 120 111 121.5 111 123.5"/>
    <polygon points="110 124 110 122 107 123.5 107 125.5"/>
    <polygon points="106 126 106 124 103 125.5 103 127.5"/>
    <polygon points="102 128 102 126 99 127.5 99 129.5"/>
    <polygon points="98 130 98 128 95 129.5 95 131.5"/>
    <polygon points="94 132 94 130 91 131.5 91 133.5"/>
    <polygon points="90 134 90 132 87 133.5 87 135.5"/>
    <polygon points="86 136 86 134 83 135.5 83 137.5"/>
    <polygon points="82 138 82 136 79 137.5 79 139.5"/>
    <polygon points="78 140 78 138 75 139.5 75 141.5"/>
    <polygon points="74 142 74 140 71 141.5 71 143.5"/>
    <polygon points="70 144 70 142 67 143.5 67 145.5"/>
    <polygon points="120 122 120 120 117 121.5 117 123.5"/>
    <polygon points="116 124 116 122 113 123.5 113 125.5"/>
    <polygon points="112 126 112 124 109 125.5 109 127.5"/>
    <polygon points="108 128 108 126 105 127.5 105 129.5"/>
    <polygon points="104 130 104 128 101 129.5 101 131.5"/>
    <polygon points="100 132 100 130 97 131.5 97 133.5"/>
    <polygon points="96 134 96 132 93 133.5 93 135.5"/>
    <polygon points="92 136 92 134 89 135.5 89 137.5"/>
    <polygon points="88 138 88 136 85 137.5 85 139.5"/>
    <polygon points="84 140 84 138 81 139.5 81 141.5"/>
    <polygon points="80 142 80 140 77 141.5 77 143.5"/>
    <polygon points="76 144 76 142 73 143.5 73 145.5"/>
    <polygon points="72 146 72 144 69 145.5 69 147.5"/>
    <polygon points="68 148 68 146 67 146.5 67 148.5"/>
    <polygon points="122 121 122 119 121 119.5 121 121.5"/>
    <polygon points="122 112 122 110 119 111.5 119 113.5"/>
    <polygon points="118 114 118 112 115 113.5 115 115.5"/>
    <polygon points="114 116 114 114 111 115.5 111 117.5"/>
    <polygon points="110 118 110 116 107 117.5 107 119.5"/>
    <polygon points="106 120 106 118 103 119.5 103 121.5"/>
    <polygon points="102 122 102 120 99 121.5 99 123.5"/>
    <polygon points="98 124 98 122 95 123.5 95 125.5"/>
    <polygon points="94 126 94 124 91 125.5 91 127.5"/>
    <polygon points="90 128 90 126 87 127.5 87 129.5"/>
    <polygon points="86 130 86 128 83 129.5 83 131.5"/>
    <polygon points="82 132 82 130 79 131.5 79 133.5"/>
    <polygon points="78 134 78 132 75 133.5 75 135.5"/>
    <polygon points="74 136 74 134 71 135.5 71 137.5"/>
    <polygon points="70 138 70 136 67 137.5 67 139.5"/>
    <polygon points="120 116 120 114 117 115.5 117 117.5"/>
    <polygon points="116 118 116 116 113 117.5 113 119.5"/>
    <polygon points="112 120 112 118 109 119.5 109 121.5"/>
    <polygon points="108 122 108 120 105 121.5 105 123.5"/>
    <polygon points="104 124 104 122 101 123.5 101 125.5"/>
    <polygon points="100 126 100 124 97 125.5 97 127.5"/>
    <polygon points="96 128 96 126 93 127.5 93 129.5"/>
    <polygon points="92 130 92 128 89 129.5 89 131.5"/>
    <polygon points="88 132 88 130 85 131.5 85 133.5"/>
    <polygon points="84 134 84 132 81 133.5 81 135.5"/>
    <polygon points="80 136 80 134 77 135.5 77 137.5"/>
    <polygon points="76 138 76 136 73 137.5 73 139.5"/>
    <polygon points="72 140 72 138 69 139.5 69 141.5"/>
    <polygon points="68 142 68 140 67 140.5 67 142.5"/>
    <polygon points="122 115 122 113 121 113.5 121 115.5"/>
    <polygon points="122 106 122 104 119 105.5 119 107.5"/>
    <polygon points="118 108 118 106 115 107.5 115 109.5"/>
    <polygon points="114 110 114 108 111 109.5 111 111.5"/>
    <polygon points="110 112 110 110 107 111.5 107 113.5"/>
    <polygon points="106 114 106 112 103 113.5 103 115.5"/>
    <polygon points="102 116 102 114 99 115.5 99 117.5"/>
    <polygon points="98 118 98 116 95 117.5 95 119.5"/>
    <polygon points="94 120 94 118 91 119.5 91 121.5"/>
    <polygon points="90 122 90 120 87 121.5 87 123.5"/>
    <polygon points="86 124 86 122 83 123.5 83 125.5"/>
    <polygon points="82 126 82 124 79 125.5 79 127.5"/>
    <polygon points="78 128 78 126 75 127.5 75 129.5"/>
    <polygon points="74 130 74 128 71 129.5 71 131.5"/>
    <polygon points="70 132 70 130 67 131.5 67 133.5"/>
    <polygon points="120 110 120 108 117 109.5 117 111.5"/>
    <polygon points="116 112 116 110 113 111.5 113 113.5"/>
    <polygon points="112 114 112 112 109 113.5 109 115.5"/>
    <polygon points="108 116 108 114 105 115.5 105 117.5"/>
    <polygon points="104 118 104 116 101 117.5 101 119.5"/>
    <polygon points="100 120 100 118 97 119.5 97 121.5"/>
    <polygon points="96 122 96 120 93 121.5 93 123.5"/>
    <polygon points="92 124 92 122 89 123.5 89 125.5"/>
    <polygon points="88 126 88 124 85 125.5 85 127.5"/>
    <polygon points="84 128 84 126 81 127.5 81 129.5"/>
    <polygon points="80 130 80 128 77 129.5 77 131.5"/>
    <polygon points="76 132 76 130 73 131.5 73 133.5"/>
    <polygon points="72 134 72 132 69 133.5 69 135.5"/>
    <polygon points="68 136 68 134 67 134.5 67 136.5"/>
    <polygon points="122 109 122 107 121 107.5 121 109.5"/>
    <polygon points="122 100 122 98 119 99.5 119 101.5"/>
    <polygon points="118 102 118 100 115 101.5 115 103.5"/>
    <polygon points="114 104 114 102 111 103.5 111 105.5"/>
    <polygon points="110 106 110 104 107 105.5 107 107.5"/>
    <polygon points="106 108 106 106 103 107.5 103 109.5"/>
    <polygon points="102 110 102 108 99 109.5 99 111.5"/>
    <polygon points="98 112 98 110 95 111.5 95 113.5"/>
    <polygon points="94 114 94 112 91 113.5 91 115.5"/>
    <polygon points="90 116 90 114 87 115.5 87 117.5"/>
    <polygon points="86 118 86 116 83 117.5 83 119.5"/>
    <polygon points="82 120 82 118 79 119.5 79 121.5"/>
    <polygon points="78 122 78 120 75 121.5 75 123.5"/>
    <polygon points="74 124 74 122 71 123.5 71 125.5"/>
    <polygon points="70 126 70 124 67 125.5 67 127.5"/>
    <polygon points="120 104 120 102 117 103.5 117 105.5"/>
    <polygon points="116 106 116 104 113 105.5 113 107.5"/>
    <polygon points="112 108 112 106 109 107.5 109 109.5"/>
    <polygon points="108 110 108 108 105 109.5 105 111.5"/>
    <polygon points="104 112 104 110 101 111.5 101 113.5"/>
    <polygon points="100 114 100 112 97 113.5 97 115.5"/>
    <polygon points="96 116 96 114 93 115.5 93 117.5"/>
    <polygon points="92 118 92 116 89 117.5 89 119.5"/>
    <polygon points="88 120 88 118 85 119.5 85 121.5"/>
    <polygon points="84 122 84 120 81 121.5 81 123.5"/>
    <polygon points="80 124 80 122 77 123.5 77 125.5"/>
    <polygon points="76 126 76 124 73 125.5 73 127.5"/>
    <polygon points="72 128 72 126 69 127.5 69 129.5"/>
    <polygon points="68 130 68 128 67 128.5 67 130.5"/>
    <polygon points="122 103 122 101 121 101.5 121 103.5"/>
    <polygon points="122 94 122 92 119 93.5 119 95.5"/>
    <polygon points="118 96 118 94 115 95.5 115 97.5"/>
    <polygon points="114 98 114 96 111 97.5 111 99.5"/>
    <polygon points="110 100 110 98 107 99.5 107 101.5"/>
    <polygon points="106 102 106 100 103 101.5 103 103.5"/>
    <polygon points="102 104 102 102 99 103.5 99 105.5"/>
    <polygon points="98 106 98 104 95 105.5 95 107.5"/>
    <polygon points="94 108 94 106 91 107.5 91 109.5"/>
    <polygon points="90 110 90 108 87 109.5 87 111.5"/>
    <polygon points="86 112 86 110 83 111.5 83 113.5"/>
    <polygon points="82 114 82 112 79 113.5 79 115.5"/>
    <polygon points="78 116 78 114 75 115.5 75 117.5"/>
    <polygon points="74 118 74 116 71 117.5 71 119.5"/>
    <polygon points="70 120 70 118 67 119.5 67 121.5"/>
    <polygon points="120 98 120 96 117 97.5 117 99.5"/>
    <polygon points="116 100 116 98 113 99.5 113 101.5"/>
    <polygon points="112 102 112 100 109 101.5 109 103.5"/>
    <polygon points="108 104 108 102 105 103.5 105 105.5"/>
    <polygon points="104 106 104 104 101 105.5 101 107.5"/>
    <polygon points="100 108 100 106 97 107.5 97 109.5"/>
    <polygon points="96 110 96 108 93 109.5 93 111.5"/>
    <polygon points="92 112 92 110 89 111.5 89 113.5"/>
    <polygon points="88 114 88 112 85 113.5 85 115.5"/>
    <polygon points="84 116 84 114 81 115.5 81 117.5"/>
    <polygon points="80 118 80 116 77 117.5 77 119.5"/>
    <polygon points="76 120 76 118 73 119.5 73 121.5"/>
    <polygon points="72 122 72 120 69 121.5 69 123.5"/>
    <polygon points="68 124 68 122 67 122.5 67 124.5"/>
    <polygon points="122 97 122 95 121 95.5 121 97.5"/>
    <polygon points="122 88 122 86 119 87.5 119 89.5"/>
    <polygon points="118 90 118 88 115 89.5 115 91.5"/>
    <polygon points="114 92 114 90 111 91.5 111 93.5"/>
    <polygon points="110 94 110 92 107 93.5 107 95.5"/>
    <polygon points="106 96 106 94 103 95.5 103 97.5"/>
    <polygon points="102 98 102 96 99 97.5 99 99.5"/>
    <polygon points="98 100 98 98 95 99.5 95 101.5"/>
    <polygon points="94 102 94 100 91 101.5 91 103.5"/>
    <polygon points="90 104 90 102 87 103.5 87 105.5"/>
    <polygon points="86 106 86 104 83 105.5 83 107.5"/>
    <polygon points="82 108 82 106 79 107.5 79 109.5"/>
    <polygon points="78 110 78 108 75 109.5 75 111.5"/>
    <polygon points="74 112 74 110 71 111.5 71 113.5"/>
    <polygon points="70 114 70 112 67 113.5 67 115.5"/>
    <polygon points="120 92 120 90 117 91.5 117 93.5"/>
    <polygon points="116 94 116 92 113 93.5 113 95.5"/>
    <polygon points="112 96 112 94 109 95.5 109 97.5"/>
    <polygon points="108 98 108 96 105 97.5 105 99.5"/>
    <polygon points="104 100 104 98 101 99.5 101 101.5"/>
    <polygon points="100 102 100 100 97 101.5 97 103.5"/>
    <polygon points="96 104 96 102 93 103.5 93 105.5"/>
    <polygon points="92 106 92 104 89 105.5 89 107.5"/>
    <polygon points="88 108 88 106 85 107.5 85 109.5"/>
    <polygon points="84 110 84 108 81 109.5 81 111.5"/>
    <polygon points="80 112 80 110 77 111.5 77 113.5"/>
    <polygon points="76 114 76 112 73 113.5 73 115.5"/>
    <polygon points="72 116 72 114 69 115.5 69 117.5"/>
    <polygon points="68 118 68 116 67 116.5 67 118.5"/>
    <polygon points="122 91 122 89 121 89.5 121 91.5"/>
    <polygon points="122 82 122 80 119 81.5 119 83.5"/>
    <polygon points="118 84 118 82 115 83.5 115 85.5"/>
    <polygon points="114 86 114 84 111 85.5 111 87.5"/>
    <polygon points="110 88 110 86 107 87.5 107 89.5"/>
    <polygon points="106 90 106 88 103 89.5 103 91.5"/>
    <polygon points="102 92 102 90 99 91.5 99 93.5"/>
    <polygon points="98 94 98 92 95 93.5 95 95.5"/>
    <polygon points="94 96 94 94 91 95.5 91 97.5"/>
    <polygon points="90 98 90 96 87 97.5 87 99.5"/>
    <polygon points="86 100 86 98 83 99.5 83 101.5"/>
    <polygon points="82 102 82 100 79 101.5 79 103.5"/>
    <polygon points="78 104 78 102 75 103.5 75 105.5"/>
    <polygon points="74 106 74 104 71 105.5 71 107.5"/>
    <polygon points="70 108 70 106 67 107.5 67 109.5"/>
    <polygon points="120 86 120 84 117 85.5 117 87.5"/>
    <polygon points="116 88 116 86 113 87.5 113 89.5"/>
    <polygon points="112 90 112 88 109 89.5 109 91.5"/>
    <polygon points="108 92 108 90 105 91.5 105 93.5"/>
    <polygon points="104 94 104 92 101 93.5 101 95.5"/>
    <polygon points="100 96 100 94 97 95.5 97 97.5"/>
    <polygon points="96 98 96 96 93 97.5 93 99.5"/>
    <polygon points="92 100 92 98 89 99.5 89 101.5"/>
    <polygon points="88 102 88 100 85 101.5 85 103.5"/>
    <polygon points="84 104 84 102 81 103.5 81 105.5"/>
    <polygon points="80 106 80 104 77 105.5 77 107.5"/>
    <polygon points="76 108 76 106 73 107.5 73 109.5"/>
    <polygon points="72 110 72 108 69 109.5 69 111.5"/>
    <polygon points="68 112 68 110 67 110.5 67 112.5"/>
    <polygon points="122 85 122 83 121 83.5 121 85.5"/>
    <polygon points="122 76 122 74 119 75.5 119 77.5"/>
    <polygon points="118 78 118 76 115 77.5 115 79.5"/>
    <polygon points="114 80 114 78 111 79.5 111 81.5"/>
    <polygon points="110 82 110 80 107 81.5 107 83.5"/>
    <polygon points="106 84 106 82 103 83.5 103 85.5"/>
    <polygon points="102 86 102 84 99 85.5 99 87.5"/>
    <polygon points="98 88 98 86 95 87.5 95 89.5"/>
    <polygon points="94 90 94 88 91 89.5 91 91.5"/>
    <polygon points="90 92 90 90 87 91.5 87 93.5"/>
    <polygon points="86 94 86 92 83 93.5 83 95.5"/>
    <polygon points="82 96 82 94 79 95.5 79 97.5"/>
    <polygon points="78 98 78 96 75 97.5 75 99.5"/>
    <polygon points="74 100 74 98 71 99.5 71 101.5"/>
    <polygon points="70 102 70 100 67 101.5 67 103.5"/>
    <polygon points="120 80 120 78 117 79.5 117 81.5"/>
    <polygon points="116 82 116 80 113 81.5 113 83.5"/>
    <polygon points="112 84 112 82 109 83.5 109 85.5"/>
    <polygon points="108 86 108 84 105 85.5 105 87.5"/>
    <polygon points="104 88 104 86 101 87.5 101 89.5"/>
    <polygon points="100 90 100 88 97 89.5 97 91.5"/>
    <polygon points="96 92 96 90 93 91.5 93 93.5"/>
    <polygon points="92 94 92 92 89 93.5 89 95.5"/>
    <polygon points="88 96 88 94 85 95.5 85 97.5"/>
    <polygon points="84 98 84 96 81 97.5 81 99.5"/>
    <polygon points="80 100 80 98 77 99.5 77 101.5"/>
    <polygon points="76 102 76 100 73 101.5 73 103.5"/>
    <polygon points="72 104 72 102 69 103.5 69 105.5"/>
    <polygon points="68 106 68 104 67 104.5 67 106.5"/>
    <polygon points="122 79 122 77 121 77.5 121 79.5"/>
    <polygon points="120 74 120 72 117 73.5 117 75.5"/>
    <polygon points="116 76 116 74 113 75.5 113 77.5"/>
    <polygon points="112 78 112 76 109 77.5 109 79.5"/>
    <polygon points="108 80 108 78 105 79.5 105 81.5"/>
    <polygon points="104 82 104 80 101 81.5 101 83.5"/>
    <polygon points="100 84 100 82 97 83.5 97 85.5"/>
    <polygon points="96 86 96 84 93 85.5 93 87.5"/>
    <polygon points="92 88 92 86 89 87.5 89 89.5"/>
    <polygon points="88 90 88 88 85 89.5 85 91.5"/>
    <polygon points="84 92 84 90 81 91.5 81 93.5"/>
    <polygon points="80 94 80 92 77 93.5 77 95.5"/>
    <polygon points="76 96 76 94 73 95.5 73 97.5"/>
    <polygon points="72 98 72 96 69 97.5 69 99.5"/>
    <polygon points="68 100 68 98 67 98.5 67 100.5"/>
    <polygon points="122 73 122 71 121 71.5 121 73.5"/>
   </g>
   <g fill="#762c07" opacity=".3">
    <polygon points="122 70 122 68 119 69.5 119 71.5"/>
    <polygon points="118 72 118 70 115 71.5 115 73.5"/>
    <polygon points="114 74 114 72 111 73.5 111 75.5"/>
    <polygon points="110 76 110 74 107 75.5 107 77.5"/>
    <polygon points="106 78 106 76 103 77.5 103 79.5"/>
    <polygon points="102 80 102 78 99 79.5 99 81.5"/>
    <polygon points="98 82 98 80 95 81.5 95 83.5"/>
    <polygon points="94 84 94 82 91 83.5 91 85.5"/>
    <polygon points="90 86 90 84 87 85.5 87 87.5"/>
    <polygon points="86 88 86 86 83 87.5 83 89.5"/>
    <polygon points="82 90 82 88 79 89.5 79 91.5"/>
    <polygon points="78 92 78 90 75 91.5 75 93.5"/>
    <polygon points="74 94 74 92 71 93.5 71 95.5"/>
    <polygon points="70 96 70 94 67 95.5 67 97.5"/>
    <polygon points="122 64 122 62 119 63.5 119 65.5"/>
    <polygon points="118 66 118 64 115 65.5 115 67.5"/>
    <polygon points="114 68 114 66 111 67.5 111 69.5"/>
    <polygon points="110 70 110 68 107 69.5 107 71.5"/>
    <polygon points="106 72 106 70 103 71.5 103 73.5"/>
    <polygon points="102 74 102 72 99 73.5 99 75.5"/>
    <polygon points="98 76 98 74 95 75.5 95 77.5"/>
    <polygon points="94 78 94 76 91 77.5 91 79.5"/>
    <polygon points="90 80 90 78 87 79.5 87 81.5"/>
    <polygon points="86 82 86 80 83 81.5 83 83.5"/>
    <polygon points="82 84 82 82 79 83.5 79 85.5"/>
    <polygon points="78 86 78 84 75 85.5 75 87.5"/>
    <polygon points="74 88 74 86 71 87.5 71 89.5"/>
    <polygon points="70 90 70 88 67 89.5 67 91.5"/>
    <polygon points="120 68 120 66 117 67.5 117 69.5"/>
    <polygon points="116 70 116 68 113 69.5 113 71.5"/>
    <polygon points="112 72 112 70 109 71.5 109 73.5"/>
    <polygon points="108 74 108 72 105 73.5 105 75.5"/>
    <polygon points="104 76 104 74 101 75.5 101 77.5"/>
    <polygon points="100 78 100 76 97 77.5 97 79.5"/>
    <polygon points="96 80 96 78 93 79.5 93 81.5"/>
    <polygon points="92 82 92 80 89 81.5 89 83.5"/>
    <polygon points="88 84 88 82 85 83.5 85 85.5"/>
    <polygon points="84 86 84 84 81 85.5 81 87.5"/>
    <polygon points="80 88 80 86 77 87.5 77 89.5"/>
    <polygon points="76 90 76 88 73 89.5 73 91.5"/>
    <polygon points="72 92 72 90 69 91.5 69 93.5"/>
    <polygon points="68 94 68 92 67 92.5 67 94.5"/>
    <polygon points="122 67 122 65 121 65.5 121 67.5"/>
    <polygon points="118 60 118 58 115 59.5 115 61.5"/>
    <polygon points="114 62 114 60 111 61.5 111 63.5"/>
    <polygon points="110 64 110 62 107 63.5 107 65.5"/>
    <polygon points="106 66 106 64 103 65.5 103 67.5"/>
    <polygon points="102 68 102 66 99 67.5 99 69.5"/>
    <polygon points="98 70 98 68 95 69.5 95 71.5"/>
    <polygon points="94 72 94 70 91 71.5 91 73.5"/>
    <polygon points="90 74 90 72 87 73.5 87 75.5"/>
    <polygon points="86 76 86 74 83 75.5 83 77.5"/>
    <polygon points="82 78 82 76 79 77.5 79 79.5"/>
    <polygon points="78 80 78 78 75 79.5 75 81.5"/>
    <polygon points="74 82 74 80 71 81.5 71 83.5"/>
    <polygon points="120 62 120 60 117 61.5 117 63.5"/>
    <polygon points="116 64 116 62 113 63.5 113 65.5"/>
    <polygon points="112 66 112 64 109 65.5 109 67.5"/>
    <polygon points="108 68 108 66 105 67.5 105 69.5"/>
    <polygon points="104 70 104 68 101 69.5 101 71.5"/>
    <polygon points="100 72 100 70 97 71.5 97 73.5"/>
    <polygon points="96 74 96 72 93 73.5 93 75.5"/>
    <polygon points="92 76 92 74 89 75.5 89 77.5"/>
    <polygon points="88 78 88 76 85 77.5 85 79.5"/>
    <polygon points="84 80 84 78 81 79.5 81 81.5"/>
    <polygon points="80 82 80 80 77 81.5 77 83.5"/>
    <polygon points="76 84 76 82 73 83.5 73 85.5"/>
    <polygon points="72 86 72 84 69 85.5 69 87.5"/>
    <polygon points="114 56 114 54 111 55.5 111 57.5"/>
    <polygon points="110 58 110 56 107 57.5 107 59.5"/>
    <polygon points="106 60 106 58 103 59.5 103 61.5"/>
    <polygon points="102 62 102 60 99 61.5 99 63.5"/>
    <polygon points="98 64 98 62 95 63.5 95 65.5"/>
    <polygon points="94 66 94 64 91 65.5 91 67.5"/>
    <polygon points="90 68 90 66 87 67.5 87 69.5"/>
    <polygon points="86 70 86 68 83 69.5 83 71.5"/>
    <polygon points="82 72 82 70 79 71.5 79 73.5"/>
    <polygon points="78 74 78 72 75 73.5 75 75.5"/>
    <polygon points="116 58 116 56 113 57.5 113 59.5"/>
    <polygon points="112 60 112 58 109 59.5 109 61.5"/>
    <polygon points="108 62 108 60 105 61.5 105 63.5"/>
    <polygon points="104 64 104 62 101 63.5 101 65.5"/>
    <polygon points="100 66 100 64 97 65.5 97 67.5"/>
    <polygon points="96 68 96 66 93 67.5 93 69.5"/>
    <polygon points="92 70 92 68 89 69.5 89 71.5"/>
    <polygon points="88 72 88 70 85 71.5 85 73.5"/>
    <polygon points="84 74 84 72 81 73.5 81 75.5"/>
    <polygon points="80 76 80 74 77 75.5 77 77.5"/>
    <polygon points="76 78 76 76 73 77.5 73 79.5"/>
    <polygon points="110 52 110 50 107 51.5 107 53.5"/>
    <polygon points="106 54 106 52 103 53.5 103 55.5"/>
    <polygon points="102 56 102 54 99 55.5 99 57.5"/>
    <polygon points="98 58 98 56 95 57.5 95 59.5"/>
    <polygon points="94 60 94 58 91 59.5 91 61.5"/>
    <polygon points="90 62 90 60 87 61.5 87 63.5"/>
    <polygon points="86 64 86 62 83 63.5 83 65.5"/>
    <polygon points="82 66 82 64 79 65.5 79 67.5"/>
    <polygon points="112 54 112 52 109 53.5 109 55.5"/>
    <polygon points="108 56 108 54 105 55.5 105 57.5"/>
    <polygon points="104 58 104 56 101 57.5 101 59.5"/>
    <polygon points="100 60 100 58 97 59.5 97 61.5"/>
    <polygon points="96 62 96 60 93 61.5 93 63.5"/>
    <polygon points="92 64 92 62 89 63.5 89 65.5"/>
    <polygon points="88 66 88 64 85 65.5 85 67.5"/>
    <polygon points="84 68 84 66 81 67.5 81 69.5"/>
    <polygon points="80 70 80 68 77 69.5 77 71.5"/>
    <polygon points="106 48 106 46 103 47.5 103 49.5"/>
    <polygon points="102 50 102 48 99 49.5 99 51.5"/>
    <polygon points="98 52 98 50 95 51.5 95 53.5"/>
    <polygon points="94 54 94 52 91 53.5 91 55.5"/>
    <polygon points="90 56 90 54 87 55.5 87 57.5"/>
    <polygon points="86 58 86 56 83 57.5 83 59.5"/>
    <polygon points="108 50 108 48 105 49.5 105 51.5"/>
    <polygon points="104 52 104 50 101 51.5 101 53.5"/>
    <polygon points="100 54 100 52 97 53.5 97 55.5"/>
    <polygon points="96 56 96 54 93 55.5 93 57.5"/>
    <polygon points="92 58 92 56 89 57.5 89 59.5"/>
    <polygon points="88 60 88 58 85 59.5 85 61.5"/>
    <polygon points="84 62 84 60 81 61.5 81 63.5"/>
    <polygon points="102 44 102 42 99 43.5 99 45.5"/>
    <polygon points="98 46 98 44 95 45.5 95 47.5"/>
    <polygon points="94 48 94 46 91 47.5 91 49.5"/>
    <polygon points="90 50 90 48 87 49.5 87 51.5"/>
    <polygon points="104 46 104 44 101 45.5 101 47.5"/>
    <polygon points="100 48 100 46 97 47.5 97 49.5"/>
    <polygon points="96 50 96 48 93 49.5 93 51.5"/>
    <polygon points="92 52 92 50 89 51.5 89 53.5"/>
    <polygon points="88 54 88 52 85 53.5 85 55.5"/>
    <polygon points="98 40 98 38 95 39.5 95 41.5"/>
    <polygon points="94 42 94 40 91 41.5 91 43.5"/>
    <polygon points="100 42 100 40 97 41.5 97 43.5"/>
    <polygon points="96 44 96 42 93 43.5 93 45.5"/>
    <polygon points="92 46 92 44 89 45.5 89 47.5"/>
   </g>
   <g fill="#762c07" opacity=".5">
    <polygon points="120 152 120 150 117 151.5 117 153.5"/>
    <polygon points="108 158 108 156 105 157.5 105 159.5"/>
    <polygon points="76 174 76 172 73 173.5 73 175.5"/>
    <polygon points="110 148 110 146 107 147.5 107 149.5"/>
    <polygon points="78 164 78 162 75 163.5 75 165.5"/>
    <polygon points="88 162 88 160 85 161.5 85 163.5"/>
    <polygon points="114 140 114 138 111 139.5 111 141.5"/>
    <polygon points="70 162 70 160 67 161.5 67 163.5"/>
    <polygon points="120 140 120 138 117 139.5 117 141.5"/>
    <polygon points="96 152 96 150 93 151.5 93 153.5"/>
    <polygon points="102 140 102 138 99 139.5 99 141.5"/>
    <polygon points="88 150 88 148 85 149.5 85 151.5"/>
    <polygon points="98 136 98 134 95 135.5 95 137.5"/>
    <polygon points="120 128 120 126 117 127.5 117 129.5"/>
    <polygon points="108 134 108 132 105 133.5 105 135.5"/>
    <polygon points="80 148 80 146 77 147.5 77 149.5"/>
    <polygon points="102 92 102 90 99 91.5 99 93.5"/>
    <polygon points="88 102 88 100 85 101.5 85 103.5"/>
    <polygon points="98 88 98 86 95 87.5 95 89.5"/>
    <polygon points="86 82 86 80 83 81.5 83 83.5"/>
    <polygon points="106 66 106 64 103 65.5 103 67.5"/>
    <polygon points="92 64 92 62 89 63.5 89 65.5"/>
    <polygon points="90 56 90 54 87 55.5 87 57.5"/>
    <polygon points="82 78 82 76 79 77.5 79 79.5"/>
    <polygon points="102 50 102 48 99 49.5 99 51.5"/>
    <polygon points="104 76 104 74 101 75.5 101 77.5"/>
    <polygon points="118 66 118 64 115 65.5 115 67.5"/>
    <polygon points="120 80 120 78 117 79.5 117 81.5"/>
    <polygon points="108 86 108 84 105 85.5 105 87.5"/>
    <polygon points="80 100 80 98 77 99.5 77 101.5"/>
    <polygon points="118 120 118 118 115 119.5 115 121.5"/>
    <polygon points="118 90 118 88 115 89.5 115 91.5"/>
    <polygon points="86 136 86 134 83 135.5 83 137.5"/>
    <polygon points="74 142 74 140 71 141.5 71 143.5"/>
    <polygon points="98 124 98 122 95 123.5 95 125.5"/>
    <polygon points="112 120 112 118 109 119.5 109 121.5"/>
    <polygon points="110 112 110 110 107 111.5 107 113.5"/>
    <polygon points="88 126 88 124 85 125.5 85 127.5"/>
    <polygon points="72 134 72 132 69 133.5 69 135.5"/>
    <polygon points="76 96 76 94 73 95.5 73 97.5"/>
    <polygon points="72 116 72 114 69 115.5 69 117.5"/>
    <polygon points="120 104 120 102 117 103.5 117 105.5"/>
    <polygon points="100 114 100 112 97 113.5 97 115.5"/>
    <polygon points="80 124 80 122 77 123.5 77 125.5"/>
   </g>
   <g fill="#762c07" opacity=".2">
    <polygon points="94 168.3 94 166.3 91 167.8 91 169.8"/>
    <polygon points="106 162.2 106 160.2 103 161.7 103 163.7"/>
    <polygon points="74 178.3 74 176.3 71 177.8 71 179.8"/>
    <polygon points="106 156.2 106 154.2 103 155.7 103 157.7"/>
    <polygon points="74 172.3 74 170.3 71 171.8 71 173.8"/>
    <polygon points="84 170.3 84 168.3 81 169.8 81 171.8"/>
    <polygon points="110 148.2 110 146.2 107 147.7 107 149.7"/>
    <polygon points="116 148.2 116 146.2 113 147.7 113 149.7"/>
    <polygon points="92 160.3 92 158.3 89 159.8 89 161.8"/>
    <polygon points="98 148.2 98 146.2 95 147.7 95 149.7"/>
    <polygon points="84 158.3 84 156.3 81 157.8 81 159.8"/>
    <polygon points="94 144.3 94 142.3 91 143.8 91 145.8"/>
    <polygon points="116 136.2 116 134.2 113 135.7 113 137.7"/>
    <polygon points="104 142.2 104 140.2 101 141.7 101 143.7"/>
    <polygon points="76 156.3 76 154.3 73 155.8 73 157.8"/>
    <polygon points="114 128.2 114 126.2 111 127.7 111 129.7"/>
    <polygon points="82 144.3 82 142.3 79 143.8 79 145.8"/>
    <polygon points="70 150.3 70 148.3 67 149.8 67 151.8"/>
    <polygon points="94 132.3 94 130.3 91 131.8 91 133.8"/>
    <polygon points="108 128.2 108 126.2 105 127.7 105 129.7"/>
    <polygon points="106 120.2 106 118.2 103 119.7 103 121.7"/>
    <polygon points="84 134.3 84 132.3 81 133.8 81 135.8"/>
    <polygon points="116 112.2 116 110.2 113 111.7 113 113.7"/>
    <polygon points="96 122.2 96 120.2 93 121.8 93 123.8"/>
    <polygon points="76 132.3 76 130.3 73 131.8 73 133.8"/>
   </g>
   <path d="m76.6 119.4c-0.8-1.3-1.1-3.2-0.6-5.4 1.1-4.7 5-9.3 9.2-10.8v-0.1c1.2-5.1 5.8-10 10.3-11.1 3.2-0.8 5.4 0.6 6.1 3.3 2.3-2.2 5-3.8 7.6-4.4 6.2-1.5 9.9 2.9 8.3 9.9-0.8 3.5-2.8 7-5.4 9.8 0 0.7-0.1 1.5-0.3 2.4-0.8 3.4-3.1 6.8-6 9 0.4 1.2 0.4 2.7 0.1 4.3-1.2 5.1-5.7 10-10.2 11.1-2.8 0.7-4.9-0.3-5.8-2.3-2.5 2.3-5.3 4-8.2 4.6-7 1.7-11.2-3.3-9.4-11.2 0.7-3.2 2.3-6.3 4.3-9.1z" fill="#f8ebcb" opacity=".6"/>
   <path d="m85.5 112.5c0.1-1.7 0.8-3.6 2-5.4 2.5-3.8 6.5-6 9.3-5.2v-0.1c2.7-4.1 7.2-6.3 9.9-5 1.9 1 2.5 3.5 1.7 6.3 2.1-0.8 4.1-0.9 5.7-0.1 3.8 1.9 3.8 8 0 13.6-1.9 2.9-4.4 5-6.9 6.3-0.3 0.7-0.7 1.4-1.1 2.1-1.9 2.8-4.5 4.7-6.9 5.2-0.3 1.3-0.9 2.7-1.8 4.1-2.7 4.1-7.2 6.3-9.9 5-1.7-0.8-2.3-2.9-1.9-5.3-2.2 0.8-4.4 0.8-6.1 0-4.3-2.1-4.3-9.1 0-15.5 1.7-2.5 3.8-4.6 6-6z" fill="#fff" opacity=".6"/>
   <g fill="#762c07">
    <path d="m84 120.8c0 1.9 1.6 2.7 3.5 1.7s3.5-3.3 3.5-5.3-1.6-2.7-3.5-1.7-3.5 3.3-3.5 5.3zm1-0.5c0-1.4 1.1-3.1 2.5-3.8s2.5-0.1 2.5 1.2-1.1 3.1-2.5 3.8-2.5 0.1-2.5-1.2z"/>
    <path d="m97 116.7c-5 2.5-9 6.5-9 9s4 2.5 9 0 9-6.5 9-9-4-2.4-9 0c5.5-2.8 10-2.8 10 0s-4.5 7.2-10 10-10 2.8-10 0 4.5-7.2 10-10z"/>
    <path d="m89 114.8v4c0 4.4 3.6 6.2 8 4s8-7.6 8-12v-4c0-1.7-3.6-1.2-8 1s-8 5.3-8 7zm15-7.6c0 1.1-3.1 3.6-7 5.5s-7 2.6-7 1.5 3.1-3.6 7-5.5 7-2.6 7-1.5z"/>
    <path d="m97 110.7s3-3.8 3-5.5-2-1.6-2-3 1-4.5 1-4.5-3 4.3-3 5.5c0 1.9 2 1.2 2 3 0 1.9-1 4.5-1 4.5z"/>
    <path d="m96 107.2s-2-2.1-2-4c0-3.8 1-5.5 1-5.5s-3 3.3-3 6.5c0 2.6 4 3 4 3z"/>
   </g>
   <g fill="#762c07">
    <path d="m78.6 135.4c-0.5-0.4-1.4-0.7-2.1-0.9 0.8-0.9 2-1.3 2.9-0.9 1 0.5 1.1 1.8 0.4 3-0.1 0.1-0.1 0.2-0.2 0.3-0.2-0.5-0.5-1.1-1-1.5z"/>
    <path d="m76.2 134.9c0.7 0.6 1.7 1.4 1.8 1.6l1 1c-0.8 0.6-1.8 0.8-2.5 0.5-0.9-0.6-1-2-0.3-3.1z"/>
   </g>
   <g fill="#762c07">
    <path d="m83 128.9c0.7-0.9 1.4-2.1 2-3.1 0.5 0.6 0.3 1.9-0.6 3.2-1 1.5-2.4 2.3-3.2 1.9-0.1 0-0.1-0.1-0.2-0.1 0.7-0.5 1.4-1.2 2-1.9z"/>
    <path d="m84.8 125.6c-0.9 1.2-2.3 2.8-2.5 3.1-0.2 0.2-0.9 1-1.5 1.8-0.2-0.7 0-1.8 0.8-2.9 1-1.5 2.4-2.4 3.2-2z"/>
   </g>
   <polygon points="64 188.3 64 96.3 3 65.7 3 157.7" fill="#baa794"/>
   <g fill="#39c">
    <polygon points="60 182.3 60 168.3 44 160.3 44 174.3"/>
    <polygon points="23 163.7 23 149.7 7 141.7 7 155.7"/>
    <polygon points="39 175.8 39 157.8 28 152.2 28 170.2"/>
   </g>
   <polygon points="62 187.3 62 183.3 39 171.8 39 175.8" fill="#762c07"/>
   <polygon points="28 170.2 28 166.2 6 155.2 6 159.2" fill="#762c07"/>
   <polygon points="5 159.7 5 68.7 3 67.7 3 158.7" fill="#f8ebcb"/>
   <polygon points="5 159.7 5 68.7 6 69.2 6 159.3" fill="#f8ebcb"/>
   <polygon points="5 159.7 5 68.7 6 69.2 6 159.3" opacity=".15"/>
   <polygon points="64 189.3 64 98.3 62 97.3 62 188.3" fill="#f8ebcb"/>
   <polygon points="64 99.3 64 98.3 3 67.7 3 68.7" opacity=".15"/>
   <polygon points="64 98.3 64 97.3 3 66.7 3 67.7" fill="#f8ebcb"/>
   <polygon points="29 170.7 28 170.2 28 155.2 39 160.8 39 175.8 38 175.3 38 161.3 34 159.3 34 173.3 33 172.7 33 158.7 29 156.7" fill="#fff" opacity=".5"/>
   <polygon points="61 96.8 61 186.8 62 187.3 62 97.3" opacity=".15"/>
   <polygon points="39 168.5 39 175.8 33 172.7" fill="#fff" opacity=".2"/>
   <polygon points="29 160.7 29 170.5 33 163.5 33 162.7" opacity=".15"/>
   <polygon points="7 149.7 7 155 13 155 13 152.7" opacity=".15"/>
   <polygon points="44 168.3 44 172 51 172.5 51 171.8" opacity=".15"/>
   <g fill="#cc291f">
    <path d="m20 154v1c0 0.8-0.7 1.2-1.5 0.7s-1.5-1.4-1.5-2.3c0 0.8-0.7 1.2-1.5 0.7s-1.5-1.3-1.5-2.1c0 0.8-0.7 1.2-1.5 0.8s-1.5-1.4-1.5-2.3c0 0.8-0.7 1.2-1.5 0.7-0.8-0.4-1.5-1.4-1.5-2.2 0 0.8-0.7 1.2-1.5 0.7s-1.5-1.4-1.5-2.2c0 0.8-0.7 1.2-1.5 0.7s-1.5-1.4-1.5-2.2v-0.8z"/>
    <path d="m58 173v1c0 0.8-0.7 1.2-1.5 0.7s-1.5-1.4-1.5-2.3c0 0.8-0.7 1.2-1.5 0.7s-1.5-1.3-1.5-2.1c0 0.8-0.7 1.2-1.5 0.7s-1.5-1.4-1.5-2.3c0 0.8-0.7 1.2-1.5 0.7s-1.5-1.3-1.5-2.1c0 0.8-0.7 1.2-1.5 0.7s-1.5-1.4-1.5-2.3c0 0.8-0.7 1.2-1.5 0.7s-1.5-1.3-1.5-2.1v-1z"/>
    <path d="m36 162v1c0 0.8-0.7 1.2-1.5 0.7s-1.5-1.4-1.5-2.3c0 0.8-0.7 1.2-1.5 0.7s-1.5-1.3-1.5-2.1c0 0.8-0.7 1.2-1.5 0.7s-1.5-1.4-1.5-2.3c0 0.8-0.7 1.2-1.5 0.7s-1.5-1.3-1.5-2.1v-0.9z"/>
   </g>
   <path d="m55 172.8 3 1.5v-0.1c0 0.8-0.7 1.1-1.5 0.7s-1.5-1.4-1.5-2.1v0z" fill="#fff"/>
   <path d="m52 169.5 3 1.5v1.5c0 0.8-0.7 1.2-1.5 0.7-0.8-0.4-1.5-1.4-1.5-2.3v-1.4z" fill="#cc291f"/>
   <path d="m49 169.8 3 1.5v-0.1c0 0.8-0.7 1.1-1.5 0.7s-1.5-1.4-1.5-2.1v0z" fill="#fff"/>
   <path d="m46 166.5 3 1.5v1.5c0 0.8-0.7 1.2-1.5 0.7s-1.5-1.4-1.5-2.2v-1.5z" fill="#cc291f"/>
   <path d="m43 166.8 3 1.5v-0.1c0 0.8-0.7 1.1-1.5 0.7s-1.5-1.4-1.5-2.1v0z" fill="#fff"/>
   <path d="m40 164 3 1v1.5c0 0.8-0.7 1.2-1.5 0.7s-1.5-1.4-1.5-2.2v-1z" fill="#cc291f"/>
   <polygon points="58 173.3 62 169 59 167.5 55 171.8" fill="#fff"/>
   <path d="m58 173 4-4.2v3.6 1.2c0 0.8-0.9 1.7-2 2s-2-0.2-2-1v-1.6z" fill="#cc291f"/>
   <polygon points="55 171.8 59 167.5 56 166 52 170.3" fill="#cc291f"/>
   <polygon points="52 170.3 56 166 53 164.5 49 168.8" fill="#fff"/>
   <polygon points="49 168.8 53 164.5 50 163 46 167.3" fill="#cc291f"/>
   <polygon points="46 167.3 50 163 47 161.5 43 165.8" fill="#fff"/>
   <polygon points="43 165.8 47 161.5 44 160 40 164.3" fill="#cc291f"/>
   <path d="m17 153.7 3 1.5v-0.1c0 0.8-0.7 1.1-1.5 0.7s-1.5-1.3-1.5-2.1v0z" fill="#fff"/>
   <path d="m14 150.5 3 1.5v1.5c0 0.8-0.7 1.2-1.5 0.7s-1.5-1.4-1.5-2.2v-1.5z" fill="#cc291f"/>
   <path d="m11 150.7 3 1.5v-0.1c0 0.8-0.7 1.1-1.5 0.7s-1.5-1.3-1.5-2.1v0z" fill="#fff"/>
   <path d="m8 147.5 3 1.5v1.5c0 0.8-0.7 1.2-1.5 0.7s-1.5-1.4-1.5-2.2v-1.5z" fill="#cc291f"/>
   <path d="m5 147.7 3 1.5v-0.1c0 0.8-0.7 1.1-1.5 0.7s-1.5-1.3-1.5-2.1v0z" fill="#fff"/>
   <path d="m2 145 3 1v1.5c0 0.8-0.7 1.2-1.5 0.7s-1.5-1.4-1.5-2.2v-1z" fill="#cc291f"/>
   <polygon points="20 154.2 24 150 21 148.5 17 152.7" fill="#fff"/>
   <path d="m20 154 4-4.2v3.6 1.2c0 0.8-0.9 1.7-2 2s-2-0.2-2-1v-1.6z" fill="#cc291f"/>
   <polygon points="17 152.7 21 148.5 18 147 14 151.2" fill="#cc291f"/>
   <polygon points="14 151.2 18 147 15 145.5 11 149.7" fill="#fff"/>
   <polygon points="11 149.7 15 145.5 12 144 8 148.2" fill="#cc291f"/>
   <polygon points="8 148.2 12 144 9 142.5 5 146.7" fill="#fff"/>
   <polygon points="5 146.7 9 142.5 6 141 2 145.2" fill="#cc291f"/>
   <path d="m33 161.7 3 1.5v-0.1c0 0.8-0.7 1.1-1.5 0.7s-1.5-1.3-1.5-2.1v0z" fill="#fff"/>
   <path d="m30 158.5 3 1.5v1.5c0 0.8-0.7 1.2-1.5 0.7s-1.5-1.4-1.5-2.2v-1.5z" fill="#cc291f"/>
   <path d="m27 158.7 3 1.5v-0.1c0 0.8-0.7 1.1-1.5 0.7s-1.5-1.3-1.5-2.1v0z" fill="#fff"/>
   <path d="m24 156 3 1v1.5c0 0.8-0.7 1.2-1.5 0.7-0.8-0.4-1.5-1.4-1.5-2.3v-0.9z" fill="#cc291f"/>
   <polygon points="36 162.3 40 158 37 156.5 33 160.7" fill="#fff"/>
   <path d="m36 162 4-4.2v3.6 1.2c0 0.8-0.9 1.7-2 2s-2-0.2-2-1v-1.6z" fill="#cc291f"/>
   <polygon points="33 160.7 37 156.5 34 155 30 159.2" fill="#cc291f"/>
   <polygon points="30 159.2 34 155 31 153.5 27 157.7" fill="#fff"/>
   <polygon points="27 157.7 31 153.5 28 152 24 156.2" fill="#cc291f"/>
   <path d="m15 141.7v-10.7c0-1.9-1.6-4.3-3.5-5.3s-3.5-0.2-3.5 1.7v10.8z" fill="#762c07"/>
   <path d="m9 136.7 5 2.5v-8.5c0-1.4-1.1-3.1-2.5-3.8s-2.5-0.1-2.5 1.2z" fill="#39c"/>
   <polygon points="15 141.7 15 140.7 8 137.2 8 138.2" fill="#f8ebcb"/>
   <polygon points="11 138.7 11 132.7 9 131.7 9 130.7 11 131.7 11 126.7 12 127.2 12 132.2 14 133.2 14 134.2 12 133.2 12 139.2" fill="#762c07"/>
   <path d="m25 146.7v-10.7c0-1.9-1.6-4.3-3.5-5.3s-3.5-0.2-3.5 1.7v10.8z" fill="#762c07"/>
   <path d="m19 141.7 5 2.5v-8.5c0-1.4-1.1-3.1-2.5-3.8s-2.5-0.1-2.5 1.2z" fill="#39c"/>
   <polygon points="25 146.7 25 145.7 18 142.2 18 143.2" fill="#f8ebcb"/>
   <polygon points="21 143.7 21 137.7 19 136.7 19 135.7 21 136.7 21 131.7 22 132.2 22 137.2 24 138.2 24 139.2 22 138.2 22 144.2" fill="#762c07"/>
   <path d="m49 158.8v-10.8c0-1.9-1.6-4.3-3.5-5.3s-3.5-0.2-3.5 1.7v10.8z" fill="#762c07"/>
   <path d="m43 153.8 5 2.5v-8.5c0-1.4-1.1-3.1-2.5-3.8s-2.5-0.1-2.5 1.2z" fill="#39c"/>
   <polygon points="49 158.8 49 157.8 42 154.3 42 155.3" fill="#f8ebcb"/>
   <polygon points="48 157.3 43 154.8 48 150" fill="#fff" opacity=".2"/>
   <polygon points="45 155.8 45 149.8 43 148.8 43 147.8 45 148.8 45 143.8 46 144.3 46 149.3 48 150.3 48 151.3 46 150.3 46 156.3" fill="#762c07"/>
   <path d="m37 152.8v-10.8c0-1.9-1.6-4.3-3.5-5.3s-3.5-0.2-3.5 1.7v10.8z" fill="#762c07"/>
   <path d="m31 147.7 5 2.5v-8.5c0-1.4-1.1-3.1-2.5-3.8s-2.5-0.1-2.5 1.2z" fill="#39c"/>
   <polygon points="37 152.8 37 151.8 30 148.2 30 149.2" fill="#f8ebcb"/>
   <polygon points="33 149.7 33 143.7 31 142.7 31 141.7 33 142.7 33 137.7 34 138.3 34 143.3 36 144.3 36 145.3 34 144.3 34 150.3" fill="#762c07"/>
   <path d="m59 163.8v-10.8c0-1.9-1.6-4.3-3.5-5.3s-3.5-0.2-3.5 1.7v10.8z" fill="#762c07"/>
   <path d="m53 158.8 5 2.5v-8.5c0-1.4-1.1-3.1-2.5-3.8s-2.5-0.1-2.5 1.2z" fill="#39c"/>
   <polygon points="59 163.8 59 162.8 52 159.3 52 160.3" fill="#f8ebcb"/>
   <polygon points="55 160.8 55 154.8 53 153.8 53 152.8 55 153.8 55 148.8 56 149.3 56 154.3 58 155.3 58 156.3 56 155.3 56 161.3" fill="#762c07"/>
   <path d="m15 123.7v-10.7c0-1.9-1.6-4.3-3.5-5.3s-3.5-0.2-3.5 1.7v10.8z" fill="#762c07"/>
   <path d="m9 118.7 5 2.5v-8.5c0-1.4-1.1-3.1-2.5-3.8s-2.5-0.1-2.5 1.2z" fill="#39c"/>
   <polygon points="15 123.7 15 122.7 8 119.2 8 120.2" fill="#f8ebcb"/>
   <polygon points="11 120.7 11 114.7 9 113.7 9 112.7 11 113.7 11 108.7 12 109.2 12 114.2 14 115.2 14 116.2 12 115.2 12 121.2" fill="#762c07"/>
   <path d="m25 128.7v-10.7c0-1.9-1.6-4.3-3.5-5.3s-3.5-0.2-3.5 1.7v10.8z" fill="#762c07"/>
   <path d="m19 123.7 5 2.5v-8.5c0-1.4-1.1-3.1-2.5-3.8s-2.5-0.1-2.5 1.2z" fill="#39c"/>
   <polygon points="25 128.7 25 127.7 18 124.2 18 125.2" fill="#f8ebcb"/>
   <polygon points="21 125.7 21 119.7 19 118.7 19 117.7 21 118.7 21 113.7 22 114.2 22 119.2 24 120.2 24 121.2 22 120.2 22 126.2" fill="#762c07"/>
   <path d="m49 140.8v-10.8c0-1.9-1.6-4.3-3.5-5.3s-3.5-0.2-3.5 1.7v10.8z" fill="#762c07"/>
   <path d="m43 135.8 5 2.5v-8.5c0-1.4-1.1-3.1-2.5-3.8s-2.5-0.1-2.5 1.2z" fill="#39c"/>
   <polygon points="49 140.8 49 139.8 42 136.3 42 137.3" fill="#f8ebcb"/>
   <polygon points="48 139.3 43 136.8 48 132" fill="#fff" opacity=".2"/>
   <polygon points="45 137.8 45 131.8 43 130.8 43 129.8 45 130.8 45 125.8 46 126.3 46 131.3 48 132.3 48 133.3 46 132.3 46 138.3" fill="#762c07"/>
   <path d="m37 134.8v-10.8c0-1.9-1.6-4.3-3.5-5.3s-3.5-0.2-3.5 1.7v10.8z" fill="#762c07"/>
   <path d="m31 129.7 5 2.5v-8.5c0-1.4-1.1-3.1-2.5-3.8s-2.5-0.1-2.5 1.2z" fill="#39c"/>
   <polygon points="37 134.8 37 133.8 30 130.2 30 131.2" fill="#f8ebcb"/>
   <polygon points="33 131.7 33 125.7 31 124.7 31 123.7 33 124.7 33 119.7 34 120.3 34 125.3 36 126.3 36 127.3 34 126.3 34 132.3" fill="#762c07"/>
   <path d="m59 145.8v-10.8c0-1.9-1.6-4.3-3.5-5.3s-3.5-0.2-3.5 1.7v10.8z" fill="#762c07"/>
   <path d="m53 140.8 5 2.5v-8.5c0-1.4-1.1-3.1-2.5-3.8s-2.5-0.1-2.5 1.2z" fill="#39c"/>
   <polygon points="59 145.8 59 144.8 52 141.3 52 142.3" fill="#f8ebcb"/>
   <polygon points="58 144.3 53 141.8 58 137" fill="#fff" opacity=".2"/>
   <polygon points="55 142.8 55 136.8 53 135.8 53 134.8 55 135.8 55 130.8 56 131.3 56 136.3 58 137.3 58 138.3 56 137.3 56 143.3" fill="#762c07"/>
   <path d="m59 127.8v-10.8c0-1.9-1.6-4.3-3.5-5.3s-3.5-0.2-3.5 1.7v10.8z" fill="#762c07"/>
   <path d="m53 122.8 5 2.5v-8.5c0-1.4-1.1-3.1-2.5-3.8s-2.5-0.1-2.5 1.2z" fill="#39c"/>
   <polygon points="59 127.8 59 126.8 52 123.3 52 124.3" fill="#f8ebcb"/>
   <polygon points="58 126.3 53 123.8 58 119" fill="#fff" opacity=".2"/>
   <polygon points="55 124.8 55 118.8 53 117.8 53 116.8 55 117.8 55 112.8 56 113.3 56 118.3 58 119.3 58 120.3 56 119.3 56 125.3" fill="#762c07"/>
   <path d="m15 105.7v-10.7c0-1.9-1.6-4.3-3.5-5.3s-3.5-0.2-3.5 1.7v10.8z" fill="#762c07"/>
   <path d="m9 100.7 5 2.5v-8.5c0-1.4-1.1-3.1-2.5-3.8-1.4-0.6-2.5 0-2.5 1.3z" fill="#39c"/>
   <polygon points="15 105.7 15 104.7 8 101.2 8 102.2" fill="#f8ebcb"/>
   <polygon points="11 102.7 11 96.7 9 95.7 9 94.7 11 95.7 11 90.7 12 91.2 12 96.2 14 97.2 14 98.2 12 97.2 12 103.2" fill="#762c07"/>
   <path d="m25 110.7v-10.7c0-1.9-1.6-4.3-3.5-5.3s-3.5-0.1-3.5 1.8v10.8z" fill="#762c07"/>
   <path d="m19 105.7 5 2.5v-8.5c0-1.4-1.1-3.1-2.5-3.8s-2.5-0.1-2.5 1.2z" fill="#39c"/>
   <polygon points="25 110.7 25 109.7 18 106.2 18 107.2" fill="#f8ebcb"/>
   <polygon points="21 107.7 21 101.7 19 100.7 19 99.7 21 100.7 21 95.7 22 96.2 22 101.2 24 102.2 24 103.2 22 102.2 22 108.2" fill="#762c07"/>
   <path d="m49 122.8v-10.8c0-1.9-1.6-4.3-3.5-5.3s-3.5-0.2-3.5 1.7v10.8z" fill="#762c07"/>
   <path d="m43 117.8 5 2.5v-8.5c0-1.4-1.1-3.1-2.5-3.8s-2.5-0.1-2.5 1.2z" fill="#39c"/>
   <polygon points="49 122.8 49 121.8 42 118.3 42 119.3" fill="#f8ebcb"/>
   <polygon points="45 119.8 45 113.8 43 112.8 43 111.8 45 112.8 45 107.8 46 108.3 46 113.3 48 114.3 48 115.3 46 114.3 46 120.3" fill="#762c07"/>
   <path d="m37 116.8v-10.8c0-1.9-1.6-4.3-3.5-5.3s-3.5-0.2-3.5 1.7v10.8z" fill="#762c07"/>
   <path d="m31 111.7 5 2.5v-8.5c0-1.4-1.1-3.1-2.5-3.8s-2.5-0.1-2.5 1.2z" fill="#39c"/>
   <polygon points="37 116.8 37 115.8 30 112.2 30 113.2" fill="#f8ebcb"/>
   <polygon points="33 113.7 33 107.7 31 106.7 31 105.7 33 106.7 33 101.7 34 102.3 34 107.3 36 108.3 36 109.3 34 108.3 34 114.3" fill="#762c07"/>
   <path d="m59 109.8v-5.8c0-1.9-1.6-4.3-3.5-5.3s-3.5-0.2-3.5 1.7v5.8z" fill="#762c07"/>
   <path d="m53 104.8 5 2.5v-3.5c0-1.4-1.1-3.1-2.5-3.8s-2.5-0.1-2.5 1.2z" fill="#39c"/>
   <polygon points="59 109.8 59 108.8 52 105.3 52 106.3" fill="#f8ebcb"/>
   <polygon points="56 106.3 56 100.3 55 99.8 55 105.8" fill="#762c07"/>
   <path d="m49 104.8v-5.8c0-1.9-1.6-4.3-3.5-5.3s-3.5-0.2-3.5 1.7v5.8z" fill="#762c07"/>
   <path d="m43 99.8 5 2.5v-3.5c0-1.4-1.1-3.1-2.5-3.8s-2.5-0.1-2.5 1.2z" fill="#39c"/>
   <polygon points="49 104.8 49 103.8 42 100.3 42 101.3" fill="#f8ebcb"/>
   <polygon points="46 101.3 46 95.3 45 94.8 45 100.8" fill="#762c07"/>
   <path d="m25 92.7v-5.7c0-1.9-1.6-4.3-3.5-5.3s-3.5-0.1-3.5 1.8v5.8z" fill="#762c07"/>
   <path d="m19 87.7 5 2.5v-3.5c0-1.4-1.1-3.1-2.5-3.8s-2.5-0.1-2.5 1.2z" fill="#39c"/>
   <polygon points="25 92.7 25 91.7 18 88.2 18 89.2" fill="#f8ebcb"/>
   <polygon points="22 89.2 22 83.2 21 82.7 21 88.7" fill="#762c07"/>
   <path d="m15 87.7v-5.7c0-1.9-1.6-4.3-3.5-5.3s-3.5-0.2-3.5 1.7v5.8z" fill="#762c07"/>
   <path d="m9 82.7 5 2.5v-3.5c0-1.4-1.1-3.1-2.5-3.8-1.4-0.6-2.5 0-2.5 1.3z" fill="#39c"/>
   <polygon points="15 87.7 15 86.7 8 83.2 8 84.2" fill="#f8ebcb"/>
   <polygon points="12 84.2 12 78.2 11 77.7 11 83.7" fill="#762c07"/>
   <path d="m37 98.8v-5.8c0-1.9-1.6-4.3-3.5-5.3s-3.5-0.2-3.5 1.7v5.8z" fill="#762c07"/>
   <path d="m31 93.7 5 2.5v-3.5c0-1.4-1.1-3.1-2.5-3.8s-2.5-0.1-2.5 1.2z" fill="#39c"/>
   <polygon points="37 98.8 37 97.8 30 94.2 30 95.2" fill="#f8ebcb"/>
   <polygon points="34 95.3 34 89.3 33 88.7 33 94.7" fill="#762c07"/>
   <path d="m3 65.7v78.4l3-3.2 18 9v3.6 1.2c0 0.8-0.9 1.7-2 2s-2-0.2-2-1v-1.5l-17-8.5v13l2 1 1-0.4v-0.1l56 28v1l2 1v-93zm37 98.5 4-4.2 18 9-4 4.2 4-4.2v3.6 1.2c0 0.8-0.9 1.7-2 2s-2-0.2-2-1v-1.5zm-16-8 4-4.2 12 6v3.6 1.2c0 0.8-0.9 1.7-2 2s-2-0.2-2-1v-1.5z" opacity=".06"/>
   <g opacity=".39">
    <path d="m62 168.8v3.6 1.2c0 0.8-0.9 1.7-2 2s-2-0.2-2-1v-1.5z"/>
    <path d="m20 154 4-4.2v3.6 1.2c0 0.8-0.9 1.7-2 2s-2-0.2-2-1v-1.6z"/>
    <path d="m40 157.8v3.6 1.2c0 0.8-0.9 1.7-2 2s-2-0.2-2-1v-1.5z"/>
   </g>
   <polygon points="32 3 1 65 64 97 65 97 95 36 124 66 125 65.7 95 35" fill="#2d3134"/>
   <polygon points="64 97 95 35 32 3 1 65" opacity=".06"/>
   <polygon points="94.2 36.6 95 35 32 3 31.2 4.6" fill="#fff" opacity=".2"/>
   <polygon points="70 62 48.2 71.9 55 79.4 56 87.4" opacity=".39"/>
   <path d="m56 87.4v-8.4c0-2.5-2-5.5-4.5-6.8s-4.5-0.2-4.5 2.3v8.4z" fill="#baa794"/>
   <path d="m55 85.8v-5.8c0-1.9-1.6-4.3-3.5-5.3s-3.5-0.2-3.5 1.7v5.8z" fill="#762c07"/>
   <path d="m49 80.8 5 2.5v-3.5c0-1.4-1.1-3.1-2.5-3.8s-2.5-0.1-2.5 1.2z" fill="#39c"/>
   <polygon points="55 85.8 55 84.8 48 81.3 48 82.3" fill="#f8ebcb"/>
   <polygon points="52 82.3 52 76.3 51 75.8 51 81.8" fill="#762c07"/>
   <path d="m56 87.4v-8.4c0-2.5-2-5.5-4.5-6.8s-4.5-0.2-4.5 2.3v8.4z" opacity=".06"/>
   <polygon points="53 53 31.2 62.9 38 70.4 39 78.4" opacity=".39"/>
   <path d="m39 78.4v-8.4c0-2.5-2-5.5-4.5-6.8-2.5-1.2-4.5-0.2-4.5 2.3v8.4z" fill="#baa794"/>
   <path d="m38 76.8v-5.8c0-1.9-1.6-4.3-3.5-5.3s-3.5-0.2-3.5 1.7v5.8z" fill="#762c07"/>
   <path d="m32 71.8 5 2.5v-3.5c0-1.4-1.1-3.1-2.5-3.8s-2.5-0.1-2.5 1.2z" fill="#39c"/>
   <polygon points="38 76.8 38 75.8 31 72.3 31 73.3" fill="#f8ebcb"/>
   <polygon points="35 73.3 35 67.3 34 66.8 34 72.8" fill="#762c07"/>
   <path d="m39 78.4v-8.4c0-2.5-2-5.5-4.5-6.8-2.5-1.2-4.5-0.2-4.5 2.3v8.4z" opacity=".06"/>
   <polygon points="36 45 14.2 54.9 21 62.4 22 70.4" opacity=".39"/>
   <path d="m22 70.4v-8.4c0-2.5-2-5.5-4.5-6.8-2.5-1.2-4.5-0.2-4.5 2.3v8.4z" fill="#baa794"/>
   <path d="m21 68.8v-5.8c0-1.9-1.6-4.3-3.5-5.3s-3.5-0.1-3.5 1.8v5.8z" fill="#762c07"/>
   <path d="m15 63.8 5 2.5v-3.5c0-1.4-1.1-3.1-2.5-3.8s-2.5-0.1-2.5 1.2z" fill="#39c"/>
   <polygon points="21 68.8 21 67.8 14 64.3 14 65.3" fill="#f8ebcb"/>
   <polygon points="18 65.3 18 59.3 17 58.8 17 64.8" fill="#762c07"/>
   <path d="m22 70.4v-8.4c0-2.5-2-5.5-4.5-6.8-2.5-1.2-4.5-0.2-4.5 2.3v8.4z" opacity=".06"/>
   <polygon points="64 188.3 64 96.3 95 35 125 65.7 125 157.7 125 158.7 123 159.7 123 158.7 67 186.8 66 188.3 64 189.3" opacity=".39"/>
  </g>
  <g class="top-level-node" transform="translate(204.91 244.25)">
   <polygon points="10 47 8 46 70 15 72 16" opacity=".2"/>
   <polygon points="74 15 72 16 70 15 70 2 72 1 74 2" fill="#762c07"/>
   <polygon points="70 15 70 2 72 3 72 16" opacity=".11"/>
   <g fill="#762c07">
    <polygon points="58 23 56 24 54 23 54 10 56 9 58 10"/>
    <polygon points="58 21 58 19 72 5 72 7"/>
    <rect x="58" y="12" width="14" height="2"/>
   </g>
   <polygon points="54 23 54 10 56 11 56 24" opacity=".11"/>
   <g fill="#762c07">
    <polygon points="42 31 40 32 38 31 38 18 40 17 42 18"/>
    <polygon points="42 29 42 27 56 13 56 15"/>
    <rect x="42" y="20" width="14" height="2"/>
   </g>
   <polygon points="38 31 38 18 40 19 40 32" opacity=".11"/>
   <g fill="#762c07">
    <polygon points="26 39 24 40 22 39 22 26 24 25 26 26"/>
    <polygon points="26 37 26 35 40 21 40 23"/>
    <rect x="26" y="28" width="14" height="2"/>
   </g>
   <polygon points="22 39 22 26 24 27 24 40" opacity=".11"/>
   <g fill="#762c07">
    <polygon points="10 47 8 48 6 47 6 34 8 33 10 34"/>
    <polygon points="10 45 10 43 24 29 24 31"/>
    <rect x="10" y="36" width="14" height="2"/>
   </g>
   <path d="m72 3v2l-7 7h-7v-2l-2 1v2l-7 7h-7v-2l-2 1v2l-7 7h-7v-2l-2 1v2l-7 7h-7v-2l-2 1v13l2-1v-2l7-7h7v2l2-1v-2l7-7h7v2l2-1v-2l7-7h7v2l2-1v-2l7-7h7v2l2-1v-13zm-62 40v-5h5zm9-7 5-5v5zm7-1v-5h5zm9-7 5-5v5zm7-1v-5h5zm9-7 5-5v5zm7-1v-5h5zm14-7h-5l5-5z" opacity=".29"/>
   <polygon points="6 47 6 34 8 35 8 48" opacity=".11"/>
  </g>
  <g class="top-level-node" transform="translate(332.91 308.25)">
   <polygon points="10 47 8 46 70 15 72 16" opacity=".2"/>
   <polygon points="74 15 72 16 70 15 70 2 72 1 74 2" fill="#762c07"/>
   <polygon points="70 15 70 2 72 3 72 16" opacity=".11"/>
   <g fill="#762c07">
    <polygon points="58 23 56 24 54 23 54 10 56 9 58 10"/>
    <polygon points="58 21 58 19 72 5 72 7"/>
    <rect x="58" y="12" width="14" height="2"/>
   </g>
   <polygon points="54 23 54 10 56 11 56 24" opacity=".11"/>
   <g fill="#762c07">
    <polygon points="42 31 40 32 38 31 38 18 40 17 42 18"/>
    <polygon points="42 29 42 27 56 13 56 15"/>
    <rect x="42" y="20" width="14" height="2"/>
   </g>
   <polygon points="38 31 38 18 40 19 40 32" opacity=".11"/>
   <g fill="#762c07">
    <polygon points="26 39 24 40 22 39 22 26 24 25 26 26"/>
    <polygon points="26 37 26 35 40 21 40 23"/>
    <rect x="26" y="28" width="14" height="2"/>
   </g>
   <polygon points="22 39 22 26 24 27 24 40" opacity=".11"/>
   <g fill="#762c07">
    <polygon points="10 47 8 48 6 47 6 34 8 33 10 34"/>
    <polygon points="10 45 10 43 24 29 24 31"/>
    <rect x="10" y="36" width="14" height="2"/>
   </g>
   <path d="m72 3v2l-7 7h-7v-2l-2 1v2l-7 7h-7v-2l-2 1v2l-7 7h-7v-2l-2 1v2l-7 7h-7v-2l-2 1v13l2-1v-2l7-7h7v2l2-1v-2l7-7h7v2l2-1v-2l7-7h7v2l2-1v-2l7-7h7v2l2-1v-13zm-62 40v-5h5zm9-7 5-5v5zm7-1v-5h5zm9-7 5-5v5zm7-1v-5h5zm9-7 5-5v5zm7-1v-5h5zm14-7h-5l5-5z" opacity=".29"/>
   <polygon points="6 47 6 34 8 35 8 48" opacity=".11"/>
  </g>
  <g class="top-level-node" transform="translate(260.91 276.25)">
   <polygon points="1 8.5 15 15.5 19 13.5 5 6.5" opacity=".3"/>
   <path d="m5.8 0.7-1-0.5c-0.1-0.1-0.3-0.1-0.4 0l-3.5 1.8c-0.6 0.2-0.9 0.8-0.9 1.4v4.6l1 0.5 4.7-2.9z" fill="#e5e5e5"/>
   <path d="m1 8.5v-4.6c0-0.6 0.3-1.2 0.9-1.4l3.5-1.8c0.3-0.1 0.6 0.1 0.6 0.4v4.9z" fill="#e5e5e5"/>
   <polygon points="1 8.5 1 3.9 0 3.4 0 8" opacity=".06"/>
   <path d="m1 8.5v-4.6c0-0.6 0.3-1.2 0.9-1.4l3.5-1.8c0.3-0.1 0.6 0.1 0.6 0.4v4.9z" opacity=".39"/>
   <polygon points="15 13 15 12 20 9.5 6 2.5 1 5 1 6" fill="#825012"/>
   <polygon points="1 5 1 6 15 13 15 12" opacity=".06"/>
   <polygon points="2.2 4.4 2 4.5 16 11.5 16.2 11.4" opacity=".3"/>
   <polygon points="3.2 3.9 3 4 17 11 17.2 10.9" opacity=".3"/>
   <polygon points="4.2 3.4 4 3.5 18 10.5 18.2 10.4" opacity=".3"/>
   <polygon points="5.2 2.9 5 3 19 10 19.2 9.9" opacity=".3"/>
   <path d="m20.8 8.2-1-0.5c-0.1-0.1-0.3-0.1-0.4 0l-3.5 1.8c-0.5 0.3-0.9 0.8-0.9 1.4v4.6l1 0.5 4.7-2.9z" fill="#e5e5e5"/>
   <path d="m16 16v-4.6c0-0.6 0.3-1.2 0.9-1.4l3.5-1.8c0.3-0.1 0.6 0.1 0.6 0.4v4.9z" fill="#e5e5e5"/>
   <polygon points="16 16 16 11.4 15 10.9 15 15.5" opacity=".06"/>
   <path d="m16 16v-4.6c0-0.6 0.3-1.2 0.9-1.4l3.5-1.8c0.3-0.1 0.6 0.1 0.6 0.4v4.9z" opacity=".39"/>
  </g>
  <g class="top-level-node" transform="matrix(.1 0 0 .1 260.91 268.25)">
   <path d="m84 219.3c15.2-8 9.8-10.5 3.9-13.9-5.9-3.3-14.3-1.8-22.4 2.1s-16.6 7.7-4.6 12.6 16 2.9 23.1-0.8z" opacity=".2"/>
   <path d="m86.8 204.1c0.9 3.4 0 6.7-0.7 8.8-0.8 2.3-2.9 6.4-7.5 6.2-4.6-0.1-6.3-3.2-5.3-9.9s12.6-8.5 13.5-5.1z" fill="#262626"/>
   <path d="m86.2 205.4c0.5 2.3-0.2 8.5-4.6 11.3-3.7 2.4-6.9 0.5-7.3-1.1s0.9-10.8 1.4-11.6c0.4-0.8 10-0.9 10.5 1.4z" fill="#fff"/>
   <path d="m80.6 211.1c0.5 1.3 1.1 1.8-1.1 3.4-2 1.4-5.4 4.4-8.4 4.6s-11.7-1.8-12.2-2.4-0.1-1.9 0.8-2.2c0.8-0.3 20.9-3.4 20.9-3.4z" fill="#262626"/>
   <path d="m66.9 208.1c-1.7 0.8-2 2.6-3.7 2.9s-3.4 1.3-3.7 2.6c-0.3 1-0.1 1.4 2.1 1.9s7.3 1.9 10 1 8.4-4.2 8.4-4.7-7.9-6.2-13.1-3.7z" fill="#fff"/>
   <path d="m99.1 137.2c-9 0.8-25.8 4.7-28.9 9.6-3.1 4.8-1.3 10.1-0.3 14.8s3.5 27.2 3.4 32.6-2.5 12.8 0.8 13.6 9.4 3.4 11.3 1c1.8-2.4 4.6-10.2 4.3-11.5s-1.8-0.5-3.4-13.9c-1.7-14.3-1.8-20.9-1.8-20.9s14.1-3.2 22.4-6.3c17-6.3 1.1-19.8-7.8-19z" fill="#cc291f"/>
   <path d="m99.1 137.2c-9 0.8-25.8 4.7-28.9 9.6-3.1 4.8-1.3 10.1-0.3 14.8s3.5 27.2 3.4 32.6-2.5 12.8 0.8 13.6 9.4 3.4 11.3 1c1.8-2.4 4.6-10.2 4.3-11.5s-1.8-0.5-3.4-13.9c-1.7-14.3-1.8-20.9-1.8-20.9s14.1-3.2 22.4-6.3c17-6.3 1.1-19.8-7.8-19z" opacity=".2"/>
   <path d="m115.3 143.1c-6.4 2.3-18.2 6.4-22.4 7.9s-10.2 2.5-12 6.9c-1.8 4.5-0.1 15.6-4.2 26.3s-11.5 24.5-11.5 24.5 2.4-0.7 4.5 1.2c2.1 1.8 5.1 3.8 8.5 3.5s4.2-1.6 4.2-1.6-1.3-4.8 0.7-9 6.9-14.1 9.3-22.6 1.7-12.6 2.6-13 11.4-1.4 20.7-3.1c9.4-1.7 13-8.8 13-17s-3.1-10.7-3.1-10.7z" fill="#cc291f"/>
   <path d="m95.4 96.6c0.1 3.4 0.6 15.9-1.8 21.5s-4.2 12.5-6.2 15.8-4.5 7.8-4.8 8.7-0.6 1.7 0.4 2.8 1.7 1.1 1.9 1.5 0.7 1.3 3.3 2 3.3 0.8 3.7 0.1-1.9-1.5-2.3-1.8c-0.4-0.2-0.5-0.7-0.1-1.8s1.1-3.8 1.1-5.2-0.3-1.6 0.6-2.9 3.9-6.6 5.5-9.1c1.7-2.5 3.7-6.4 4-8.1s1-22.2 1-22.2z" fill="#fbd7c7"/>
   <path d="m103.3 87c-2.7-0.1-5.6 0.5-7.3 3.7-1.8 3.2-1.5 5.2-1.5 5.2s0.7 0.7 1.4 1 1 0.3 1 0.3-4.8 6.1-5.4 9.8c-0.7 4.3 3.1 6 3.6 6.8s1.8 13.4 1.8 16.6c-0.1 3.1 0 6.6 0 6.6s-1.3 6.6 5 6.9c5.9 0.3 8.7 0.6 12.9 1.9 4.5 1.4 7 1.3 9.8 0s4.1-4.9 4.1-4.9-2.7-5.2-3.5-7.3c-1-2.3-1.8-7.3-1.5-11.4 0.3-4 3.4-15.3 3-21.8-0.5-6.5-5.9-10.1-5.9-10.1z" fill="#fc0"/>
   <path d="m91.4 109.1c2.4 7.1 17.2 11 20.8 5.1-10.3 4.6-19.6-3.6-20.8-5.1z" opacity=".2"/>
   <path d="m114.7 105s-2.5 7.7-3 12c-0.5 4.4-0.5 9.7-1.6 11.4-1.1 1.8-3.2 4.5-4.8 8.3-1.7 3.8-2.7 7.3-3.6 7.3s-2.6-0.5-3.4-0.4c-2.8 0.2-3.9 1.4-4.4 2.2s-0.6 1.5-0.1 2.6 1.7 1.6 3 1.5c1.2-0.1 7.4-1.2 8.3-2.4s7.4-9.6 8.6-10.9c1.2-1.2 3.3-2.9 3.8-5.7s3.2-12.9 4-16 2.3-7.6 2.3-7.6-1.9 0.7-5.1-0.2-4-2.1-4-2.1z" fill="#fbd7c7"/>
   <path d="m104.3 87.7s-7.3 8.2-1.1 11.6 14.7-9.4 14.7-9.4-2.6-2.1-4-4.8c-1.4-2.8-9.6 2.6-9.6 2.6z" fill="#fbd7c7"/>
   <path d="m113.2 60.4c-2.8-0.5-8.7-1-12.8 4.1-4.1 5.2-3.2 12.6-2.5 15.8 1.2 5.3-2.6 7.5-2.6 7.5s1.1 4.1 7.3 1.7 10.6-29.1 10.6-29.1z" fill="#825012"/>
   <path d="m103.1 68.3s-2.2 1.6-3.4 5.5c-0.5 1.9-1.2 12.9 0.8 14.5 2.2 1.8 5.4 1 7.4 0s4.7-1.3 6.2-3.9c0.8-1.2-2.5-22.4-11-16.1z" fill="#fbd7c7"/>
   <path d="m108.9 61.8c-4.5 3-7.2 5-4.4 10.8 2.8 5.9 8.3 10.4 6.6 13.8s-4.7 5-4.7 5 2.9 5.4 11.4 4c8.2-1.4 9.1-4.3 9.5-5.6 0.7-2.1-2.9-5.7-3.3-10.2-0.3-4.5-0.6-17.5-8-19.3-4.4-1-6.2 1-7.1 1.5z" fill="#825012"/>
  </g>
  <g class="top-level-node" transform="matrix(.1 0 0 .1 340.91 308.25)">
   <path d="m86.3 93.3s1 9.1 1.3 12.3 1.3 5.5 2.1 7.3 4.5 6.2 5 5.9-0.3-2.1-0.3-2.5 0.4-1.7-0.2-2.5c-0.6-0.7-1.7-4-1.6-4.7s1.4-0.9 1.5-1.4l0.1-0.5s-3.6-6-3.6-8.6c0-2.7-0.1-6.1-0.1-6.1s-0.6-0.3-2 0-2.2 0.8-2.2 0.8z" fill="#fbd7c7"/>
   <g fill="#262626">
    <path d="m101 205.2c0.6 1.8-6.7 11.8 7.1 13.5 20.6 2.7 21.6-13.7 29.3-18.2 13.9-8.1-3.1-14.1-22.5-14.1-16.3 0.1-30.5 1.9-29.4 10.1 0.8 6.2 14.6 5.6 15.5 8.7z" opacity=".3"/>
    <path d="m106.9 188.6s-1.6 1.2-5.5 1.1-7.3-0.8-11.4 1.5c-4.8 2.7-1.2 7 0.1 7.4s18.1 0.9 21.2 0.7c3.1-0.3 2.1-8.2 2.1-8.2z"/>
    <path d="m112.3 197.5c-1.5 0.1-9 0.6-13.5 0.5-5-0.1-6.4-0.5-7.8-1-1.7-0.6-3.2-1.4-3.3-3.1-0.5 2.2 0.9 4.1 2.5 4.6 1.5 0.5 3.3 0.9 8.6 1.1 4.2 0.1 11.3-0.3 12.6-0.4 0.8-0.1 1.4-0.7 1.7-1.6-0.3 0.2-0.5-0.2-0.8-0.1z"/>
    <path d="m112.6 199.3s-3.9 4.4-6.6 7.6-3.8 5.6-3.6 7.9 3.5 3.4 8 3.4c4.6 0 9.3-2.8 11.5-5.9 2.3-3.1 5.6-5.9 5.6-7.4s-0.1-6.2-0.1-6.2z"/>
    <path d="m127.5 198.8h-0.5c0 1.5 0.1 3.3 0.1 4.1 0 1.5-3.4 4.3-5.6 7.4-2.3 3.1-7 5.9-11.5 5.9-3.5 0-6.3-0.6-7.4-2v0.6c0.1 2.3 3.5 3.4 8 3.4 4.6 0 9.3-2.8 11.5-5.9 2.3-3.1 5.6-5.9 5.6-7.4s-0.2-6.1-0.2-6.1z"/>
   </g>
   <path d="m92.7 102.6s-0.5 13 1.6 23.9 9.5 26.4 9.5 31.1 2.3 19 2.1 22.8c-0.1 3.8-0.9 8.6-0.9 8.6s2.7 5 6.2 6.7 7.2-0.4 7.2-0.4l-6.4-90.5z" fill="#06547a"/>
   <path d="m92.7 102.6s-0.5 13 1.6 23.9 9.5 26.4 9.5 31.1 2.3 19 2.1 22.8c-0.1 3.8-0.9 8.6-0.9 8.6s2.7 5 6.2 6.7 7.2-0.4 7.2-0.4l-6.4-90.5z" opacity=".2"/>
   <path d="m104.1 107.7s0.3 14.3-0.3 25.6 2.3 21.7 3.4 25.3 1.5 9.7 1.5 15.2 0.2 26.2 1 27 5.2 3.6 10.9 4c4.3 0.3 9-2.4 9-3.1s1.5-16.4 0.3-29.1-3.8-19.3-3.6-21.3c0.1-2 3.1-29.1 2.8-34.7s-2-18.4-2-18.4z" fill="#06547a"/>
   <path d="m90.8 57.7s-2.2 7.4-3.6 17.6c-1.5 10.7-0.7 25.3-0.7 25.3s2.1-1.6 6.2-1.6-1.9-41.3-1.9-41.3z" fill="#e5e5e5"/>
   <path d="m90.8 57.7s-2.2 7.4-3.6 17.6c-1.5 10.7-0.7 25.3-0.7 25.3s2.1-1.6 6.2-1.6-1.9-41.3-1.9-41.3z" opacity=".2"/>
   <path d="m124.4 115.4s-0.4 2.9-2.3 5.1c-1.9 2.1-3.5 5.8-3.5 7.3 0 2.1 0 3.9 0.9 4 1.8 0.2 1.1-1.3 1.7-1.3s0.3 2.6 3 2.7c3.5 0.1 8.5-2.3 8.5-4.6 0-1.2-0.5-4.4-0.9-6.2-0.5-1.9-0.5-4.5-0.5-4.5z" fill="#fbd7c7"/>
   <path d="m111.7 32.4c9.5 2.5 20.1 4.6 23.7 12.3 3.1 6.6 2.9 8.7 2.7 14.9-0.3 6.2-0.8 18.5-0.5 22.5s-1.1 20.8-2.3 26.4-1.6 10.3-2.5 10.6-10.2-0.9-9.5-2.3c0.9-2 1.2-7.6 1.2-7.6s-4.4 5.4-14.2 4c-9.8-1.3-18.2-6.1-19.1-8.6-0.4-1.2-0.6-19.8 0.3-24.8s-2-15.7-2.1-20.4 2.9-17.4 3.1-19.7c0.2-3.4 4.2-11.2 19.2-7.3z" fill="#e5e5e5"/>
   <path d="m124.5 109.2s0.7-5.2 0.7-9.8 0.1-11.3-0.4-13.9c-0.5-2.7-2.2-12.2-2.5-14.7-0.7-6.1-0.3-9.8 0.2-11.1-2.4 4.1-1 19-0.3 25.2 0.9 8.7-0.3 25.8-0.6 26.6-0.4 0.8 2.9-2.3 2.9-2.3z" opacity=".2"/>
   <path d="m115.5 26.5s0 5.2 0.9 6.1 3 1.3 2.3 2.6-8.1 9.7-13.5 9.2c-5.3-0.5-4-9.4-4-9.4z" fill="#fbd7c7"/>
   <path d="m95.7 14.8c-2.2 2.8-1.3 11-0.3 14.7 1.1 3.8 2.2 5.9 2.7 7.3 0.4 1.4 1.9 3.6 3.9 3.5s8.2-4.1 10.1-7.1 4.4-5.9 4.8-7.9 0.6-2.9-1.1-3.3-5.3-7.8-9.9-8.1-8.8-0.7-10.2 0.9z" fill="#fbd7c7"/>
   <g fill="#762c07">
    <path d="m94.4 16.8c-0.4 1.6 0.8 3.3 5.5 3.3s7.6-2.3 8.1-0.8 1.8 5.7 2.2 6.6 1 2 1.3 1.6 1.8-3.9 2.9-4.7 1.7-0.8 1.7-0.8 1.6-8.3-2-12.6c-3.6-4.4-16.1-5.4-19.7 7.4z"/>
    <path d="m97.9 34.9s0.7-0.7 1.6-0.8c0.4 0 1.3 0.1 1.9 0.2 0.8 0.2 2.7 1.1 2.7 1.1s-2.8 0-3.7-0.1c-1.1 0-2.5-0.4-2.5-0.4z"/>
    <path d="m99.7 37.3 1.2 0.1s-0.2 0.6 0.6 1.3 2.9 0.8 2.9 0.8-1.7 1.3-3.2 0.9-2.2-1.8-2.2-1.8 0.5-0.1 0.6-0.5c0.2-0.3 0.1-0.8 0.1-0.8z"/>
   </g>
   <path d="m35 64s-3.7 14-3.7 16.8 2.2 10.2 4.8 14.4c2.6 4.1 5.4 10.5 5.4 10.5l2.1-4s-2.2-10.5-3.5-14.1-1.9-4.2-0.9-7.4c1.1-3.3 3-8.6 3-8.6z" fill="#fbd7c7"/>
   <path d="m38.6 208.8c-9.3 5.7-10 12.5 2.1 18.9 13.2 7.1 20.9 5.5 31.1-0.4 9-5.2 6.9-12.2-8.2-18.3-12.2-4.8-18.5-4.3-25-0.2z" opacity=".2"/>
   <path d="m40.3 97.7c-2.4 3.2-11.5 14.3-8.9 30s7.1 24.2 6.3 27.9-3.7 10.8-3 18.7c0.8 9.7 3.7 19.7 3.8 23s1.3 6.3 0.4 8.8-3.1 4.4-0.9 6.1c1.8 1.4 1-0.6 10.2 2.7 12.3 4.5 9.7-1.8 3.6-2.9-2.2-0.4-4.1-4.8-4.8-7.7-0.3-1.2-1.2-15.8-0.4-22.6 0.8-6.7 0.9-17.1 0.8-20.1s2.4-14.4 3.4-20c1.4-8.5 4-38.5 4-38.5z" fill="#fbd7c7"/>
   <path d="m38.5 207.1s-2.3 2.6-2.2 4.9 1.9 5.7 1.9 7v3.2l1.7 1 1.6-0.8s-0.7-5.3 0.5-6.1 4.8 1.9 7.2 2.5 8.3-0.1 10.4-1c2.2-0.9 0.4-3.6-1.5-4.7-2.6-1.4-6.7-1.2-6.7-1.2s1.3 0.4 2.8 1.9c2.7 2.7-4.8 3.3-11.7-2.6-2.6-2.5-4-4.1-4-4.1z" fill="#262626"/>
   <path d="m48.8 102s-5.4 12.9-5.4 19.1 4.1 8.5 4.9 10.5 1.1 8.5 3 16.2 4.2 12.5 2 18.1c-3.6 8.8-2.9 16.4-1.8 27.2 1.1 10.7 0.2 16.8-0.1 18.5-0.4 2-3.5 3-1.9 5.4 2.2 3.2 8.4 3.6 11.1 4.9 3.2 1.5 7.2 2 8.2 0.4 1-1.5 0.2-3.9-3.4-3.8-3.1 0.1-5.3-5-6.2-7.3-0.9-2.2 1-9.6 2.6-21.2 1.5-11.6 2.2-24.2 2.9-29 0.8-4.8 3.2-9 3.8-30.5 0.7-21.6-1.6-27.6-1.6-27.6z" fill="#fbd7c7"/>
   <path d="m50.5 212.9s-2.4 2-2.4 4.5c0 2.6 2.1 5.4 2.4 7.4s0.2 3.5 0.2 3.5l1.9 0.9 1.9-0.8s-1.6-5.7 0.1-6.1 6.8 3.6 9.9 3.6 7.3-3.9 7.3-5.4-3.4-3.1-5.4-2.9c-2 0.1-2.9 0.6-2.9 0.6s3.1 1.3 3.5 2.4c0.4 1-0.6 1.7-1.9 2-2.6 0.5-5.1-1.8-9.3-5.2-3.6-3-5.3-4.5-5.3-4.5z" fill="#262626"/>
   <path d="m67.4 104c0.2 5.9 6 36.3 8.1 46.6 0.4 2.2-3.6 4.2-11.9 6.5s-13.2 2.1-18.6-3.5-13.7-3.7-16.4-5.2 1.4-14.8 1.7-25.7 6.3-19.8 6.3-19.8z" fill="#06547a"/>
   <path d="m41.6 56.7c-2.5 1.1-7.9 5.6-6.9 9.3s4.7 16.1 5.5 19.7c0.8 3.5 1.2 8.7-0.2 10.6s-4.3 7.3-4.3 7.3 9.9 2.7 18.3 2.7 14.2-1.5 14.2-1.5-1.2-20.7-0.7-21.8 5-3 4.6-7.5c-0.3-2.9-1.9-4.3-3.7-6.1-1.3-1.4-3-3.6-4.4-4.9-1.7-1.6-6-3.6-10.1-6.3-4.2-2.7-12.3-1.5-12.3-1.5z" fill="#fc0"/>
   <path d="m65.6 66.1s1.5 1.2 0.6 7.6c-1 6.4-1 19.7 0.9 26 1.8 6.3 5.3 20.2 6.3 22.8 1.1 2.6 2.3 3.2 3 4.2 0.5 0.7 1.4 4.8 0.9 6.3-0.5 1.4-2.8 5.1-4.8 5.7s-4.3 0.6-4.6-0.3 1.7-1.2 2-2.6 0.5-6.1 0.5-7.3-1.2-4.6-5-10.8-7.1-11.4-8.2-18.3-3.2-26.7-2.7-30.4c0.6-5.3 7.2-8 11.1-2.9z" fill="#fbd7c7"/>
   <path d="m55.6 26.9c3.4 1.2 4.6 4.1 5.2 10.1s-0.2 9.8-0.6 10.9c-0.5 1.1-4.2 2.3-5.1 3.8s-1.6 4.7-1.1 5.4c1 1.3 1.7 1.2 1.7 1.2s-8.3 2-11.3 0.7-2.9-3-2.3-3.7 1.7-3.5 1.1-5-7.5-7.7-5.3-15c2.7-8.7 10.9-10.8 17.7-8.4z" fill="#fbd7c7"/>
   <path d="m47.1 24.9c-8.2 1.6-11.5 8.5-10 16.1 1.2 6.1 1.3 7.6 0.3 10-3.4 8-5.7 14.8-2.2 18.9 5.4 6.4 17.6 3.3 22.3-3.6 3.1-4.5 5.6-10.9 3.8-15.9-2.7-7.5-0.6-9.5 0.1-14.8s-6-12.4-14.3-10.7z" fill="#762c07"/>
  </g>
  <g class="top-level-node" transform="matrix(.1 0 0 .1 308.91 316.25)">
   <path d="m119.4 180.6c14.5 8.7 25 3.3 40.8-3.7 17.5-7.7 27.1-19.8 18.5-24.9s-22.6-1.2-37.5 4.9c-13.8 5.6-31.1 18.2-21.8 23.7z" opacity=".2"/>
   <path d="m23.4 206.9c-9.5 5.8-10.2 12.8 2.1 19.4 13.5 7.2 21.4 5.7 31.9-0.4 9.2-5.3 7.1-12.5-8.4-18.7-12.5-5-18.8-4.4-25.6-0.3z" opacity=".2"/>
   <path d="m11.7 114.9c0.2 6.2 2.3 21.9 3.8 26.3s3.2 11.2 2.5 14.8-3 9.6-1.7 18c1.4 8.3 5.5 21.2 4.6 26.9s-2.7 8.4-0.8 10.1 2.9 3 6.6 2.8c3.6-0.2 4 0.2 6.6 1.5s9 0.5 9.4-1.8-7.5-1.3-9.1-4.1c-1.7-2.8-4.3-9.3-3.4-15.6s2.9-23.1 2.9-28.2c0.1-3.8 2.4-17.3 4.3-24.6 2.5-9.3 4.3-29.6 4.3-29.6l-26.3-9.6c0-0.1-3.9 6.1-3.7 13.1z" fill="#fbd7c7"/>
   <path d="m19.9 205.3s3 1.4 5 2.2c2.7 1.2 7.6-0.8 7.6-0.8s0.8 2.3 2.2 2.6 6.6-0.5 7.8 0.1 4.6 1.6 2.2 3.5c-2.4 1.8-7.9 4.4-10.4 3.9-2.6-0.5-7.2-1.8-8.4-1.4s-0.5 4.5-0.5 4.5l-2 1-2.4-1.2s0-1.4-0.3-3c-0.4-1.6-2.1-2.3-2.1-5.2-0.1-2.9 1.3-6.2 1.3-6.2z" fill="#e5e5e5"/>
   <path d="m18.5 211.9c0.1 2.6 1.7 3.3 2.1 4.7 0.4 1.6 0.3 3 0.3 3l2.4 1.2 2-1s-0.7-4.1 0.5-4.5 5.9 0.9 8.4 1.4c2.6 0.5 8-2 10.4-3.9 0.7-0.5 0.9-1.1 0.8-1.6-1.4 1.1-6.1 5.5-14.1 3.5-4.7-1.1-7.8-0.9-12.8-2.8z" opacity=".4"/>
   <path d="m30.3 110.3s-4.7 7.4-2.9 14c1.8 6.7 3.7 8.3 3.7 8.3s1.4 7.9 2.6 11.2 4.6 13.3 4.3 15.2-3.9 10.6-3.5 17 1.9 20 2.4 25.5c0.4 5.3 0.8 6.7-0.2 9.3-1 2.7-3.4 7.2 0.8 8.6s6.3-0.1 9.3 2 8 2.8 9.8 0.5-3-3.3-3.7-3.5-4.3-4.4-5.1-9.6c-0.9-5.9 0.1-19.1 1.5-24.5s1.4-14.1 1.7-16.5 5.9-16.9 5.9-25.6-3.8-26.1-3.8-26.1z" fill="#fbd7c7"/>
   <path d="m36.3 211.3s3.3 1.2 5.8 2.3c1.5 0.6 4.5 0.5 5.4 0.3 0.9-0.3 2-0.7 2-0.7s1.3 3.5 2.3 3.8c0.9 0.3 4.3-0.7 6 1.1 1.8 1.8 1.3 2.8 0.4 3.9-0.9 1-4.4 3.5-7.1 3-1.9-0.4-7.9-2.7-9.1-2.5s-0.7 4.6-0.7 4.6l-2.3 1.1-2-1s-0.1-2.1-0.7-3.6c-0.7-1.4-1.9-3.1-1.9-6.2s1.9-6.1 1.9-6.1z" fill="#e5e5e5"/>
   <path d="m58.9 219.8c-0.1 1.9-5.3 4.8-7.6 4.1-6.9-2.1-12.6-3.9-16.9-6.3 0 3 1.3 4.6 1.9 6 0.7 1.4 0.7 3.6 0.7 3.6l2 1 2.3-1.1s-0.6-4.4 0.7-4.6c1.2-0.3 7.2 2.1 9.1 2.5 2.6 0.5 6.2-2 7.1-3 0.6-0.7 0.9-1.3 0.7-2.2z" opacity=".4"/>
   <path d="m27.7 113.7s-16-3.2-16.1-2.3c-0.6 7.1-0.4 16.8 1.2 22.9 1.7 6.8 3.5 16.5 2.9 22.1-0.7 5.6-0.8 14.9 0.1 22.6s1.8 15.7 1.8 15.7 3.5 2 7.6 2 6.8-1 6.8-1 1.3-20.6 1.6-25.9c0.3-5.4 2.1-19.2 2.1-19.2s0.8-16.5-0.7-21.7c-1.4-5.4-7.3-15.2-7.3-15.2z" fill="#06547a"/>
   <path d="m27.7 113.7s-16-3.2-16.1-2.3c-0.6 7.1-0.4 16.8 1.2 22.9 1.7 6.8 3.5 16.5 2.9 22.1-0.7 5.6-0.8 14.9 0.1 22.6s1.8 15.7 1.8 15.7 3.5 2 7.6 2 6.8-1 6.8-1 1.3-20.6 1.6-25.9c0.3-5.4 2.1-19.2 2.1-19.2s0.8-16.5-0.7-21.7c-1.4-5.4-7.3-15.2-7.3-15.2z" opacity=".15"/>
   <path d="m36.3 159.2c-0.8 4.8-2.5 9.4-2.5 16 0 6.5 1.2 25.5 1.2 25.5s3.4 1.3 7.2 1.4 8.6-1.2 8.6-1.2-0.3-20.3 0.3-24.4c0.5-4.1 2.7-13 4.6-22.3 2.4-11.4 1.4-21.7 0-27.9s-2.6-11.8-2.6-11.8-3.1-1.8-7.5-4l-21.1 1s-2.3 15.7 0.1 20.6c2.6 5.4 5.3 5.5 7.3 9.2 2.4 4.3 3.8 9.2 3.8 9.2s1.4 3.8 0.6 8.7z" fill="#06547a"/>
   <path d="m150.7 144.6c0.5 2.2-0.1 6.2-0.5 7.6-0.8 2.6-0.8 4.9 0.1 5.8 1.4 1.5 3.9 1.5 5.5 1s2.9-2.3 2-3.6-2.3-1.5-2.3-1.5 0.4-1.8 0.8-4c0.5-2.5 0.3-5.8 0.3-5.8z" fill="#825012"/>
   <path d="m134 146.5c-0.7 3.5-2.6 7.7-4.9 10.6-2.2 3-3.5 4.5-4 6.3-0.4 1.5-1.2 6.6-0.6 7.1s2.3 0.4 2.9 2.9c0.4 1.6-2.5 3.1-4.7 2.9-2.1-0.2-4.3-1.2-4-4.8s3.5-26.6 3.5-26.6l8.2-2z" fill="#825012"/>
   <path d="m150.7 144.6c0.5 2.2-0.1 6.2-0.5 7.6-0.8 2.6-0.8 4.9 0.1 5.8 1.4 1.5 3.9 1.5 5.5 1s2.9-2.3 2-3.6-2.3-1.5-2.3-1.5 0.4-1.8 0.8-4c0.5-2.5 0.3-5.8 0.3-5.8z" opacity=".2"/>
   <path d="m134 146.5c-0.7 3.5-2.6 7.7-4.9 10.6-2.2 3-3.5 4.5-4 6.3-0.4 1.5-1.2 6.6-0.6 7.1s2.3 0.4 2.9 2.9c0.4 1.6-2.5 3.1-4.7 2.9-2.1-0.2-4.3-1.2-4-4.8s3.5-26.6 3.5-26.6l8.2-2z" opacity=".2"/>
   <path d="m182.5 92.9s3.9-3.3 4.2-7.1c0.2-3-0.1-5.2-0.9-5.8s-2.7-1.1-4.7 0.1-3 1.9-3.6 1.7-1-2-3.3-1.3-3.9 1.4-5 1.3-2.5-1-4.7 1-5.5 6-5.5 7.6 3.1 2.9 3.1 4.2c0.1 1.3-2.1 7.9-6.9 14.1-4.9 6.4-6.6 8.7-13.3 11s-13.9 4.9-17.3 10.5-3.2 9.4-3.6 12.4c-1.1 7.6-3.9 15.2-8.3 21.9-1.3 1.9-2.1 5 1.8 1.9s6.7-8.4 7.3-9.7 5.6-11.3 7.8-10.8c2.3 0.5 5.5 5.6 5.9 8.8 0.4 3.3 0.1 7.9-1 10.2-1.3 2.9-2.4 6.8-2.4 10.2s0.6 6 2 7.2c2 1.6 5.6 0.7 6.8-0.2s0.9-3.1-0.6-3.9c-1-0.6-2.1-0.7-2.3-1.5-0.3-0.8 0.1-4.9 1.7-7.7 1.4-2.4 6.3-10.1 8.3-15.9 2-5.9 2.2-7.3 2.2-7.3s6.4 0 9.7-2c3.8-2.3 5.6-5.9 6.9-5s1.9 11.6 1.2 16.5c-0.4 3.1-3.4 6-1.8 9.2 1 1.9 4.5 2.3 6.6 1.5s2.1-2.8 1.5-3.6-2.6-1.4-2.6-1.7 1.3-2.3 1.8-4.4c1.1-4.7 1.4-13.4 3.5-19s3.6-13.1 3.2-17.6-2.3-4.7-2-9.8 2.1-8.9 2.1-8.9 1.1 0.1 1.8-0.2c0.9-0.6 0.4-7.9 0.4-7.9z" fill="#825012"/>
   <path d="m182.4 79.5c1.3 0 3.8 1.4 4.2 2.9 1.6-0.8-0.5-6.2-4.2-2.9z" fill="#262626"/>
   <path d="m181.9 84.5c0.2 0.9-0.3 2.8-0.3 2.8s0.9-1.1 0.8-1.9c0-0.7-0.5-0.9-0.5-0.9z" fill="#262626"/>
   <path d="m163.2 91.6s-0.9 0.3-1.9 0.1c-0.8-0.1-1.6-0.6-2.2-1 0.3 1.4 3 2.7 3.1 3.9 0.5-1.6 1-3 1-3z" opacity=".2"/>
   <path d="m174.1 96.3c2.3 3.7 5.5 5.2 7.8 4.4 0.1 0-4.1-0.4-7.8-4.4z" opacity=".2"/>
   <path d="m36.9 112c-0.3 0-0.6-0.2-0.6-0.5s0.2-0.6 0.6-0.6l122.9-9c0.3 0 0.6 0.2 0.6 0.5s-0.2 0.6-0.6 0.6l-122.9 9z" fill="#262626"/>
   <path d="m17 62.4s-3.7 13-3.7 15.7 5.4 15.9 5.8 16.8 5.2-4.1 5.2-4.1-2.9-8.4-2.9-10.8 1.8-8.2 1.8-8.2z" fill="#fbd7c7"/>
   <path d="m33.2 50c-1.3-0.2-9-3.4-12.8-1.5-2.7 1.3-3.9 3.6-4 5.7-0.1 1.7 0.4 5.9-0.2 8.3-0.3 1.3-0.9 4-0.9 4l2.5 1.7s1 8.5 0.4 14.9-3 15.7-5.1 20.4c-2.2 5.1-2.5 9.6-2.5 16.1 0 8 17.5 12.8 25.5 13 7.7 0.1 22.8-1.3 22.5-7.6-0.8-14.9-4-38.2-2.3-41s4-7.2 1-11.9-5.6-6.7-5.9-7.7-0.2-3-2.4-5.1c-2.3-2.6-8.6-8.2-15.8-9.3z" fill="#939"/>
   <path d="m29.8 22.7c6.9-1.6 14.3 0.7 15.6 10.3s-1 11.7-2.1 12.4-2.4 3.3-2.9 4.9 0.2 2.6 0.2 2.6-7.7 4.5-12.4 2.7c-4-1.5-4.5-3.5-2.8-6.6 1.6-3.1-2.3-5-3.5-9.6s-1.3-14.6 7.9-16.7z" fill="#fbd7c7"/>
   <path d="m38.7 20.7c3.5 1.1 6.4 6 6.4 6l-2.6-1.5 2.5 3.7-2.3-1.6 2.2 5-1.4-0.7s0.8 1.8 0.3 4.6c-0.3 1.9-1.4 3.4-1.4 3.4v-3.4s-0.3 4.4-2.5 7.4c0 0 1-4.5 0.6-5.2-0.5-0.7-1 1.6-1 1.6l-0.7-2-0.4 2.1-1.8-0.9s0.6 2.2-1.1 5.6c-1 2-3.9 4.8-3.9 4.8l0.9-4.3-3.6 6.3-0.9-3.4-0.6 2.4-0.6-1.8-0.8 2s-0.9-3.6-1.3-4.4c-0.3-0.7-0.8 0.7-0.8 0.7l-1.9-4.6-0.7 1.4-0.8-5.4-0.6 1.1-0.6-5.6-1.1 1.2s0.2-5.4 1.9-7.7c1.2-1.7 2.4-2 2.4-2l-1.7-0.1s2.7-3.9 7-4.4c3.7-0.5 4.1 0.3 4.1 0.3s2.6-1.9 6.8-0.6z" fill="#656565"/>
   <path d="m55.5 80.6c-3.2 1.3-5.6 0.6-5.6 0.6s-0.4 2.2-0.4 4.2c0 1.2 0.1 3 0.1 3s3.7-2 6.7-4.5c0 0 0-0.1 0.1-0.1 0.9-1.5 2-3.4 2.3-5.6-0.8 1-1.9 1.9-3.2 2.4z" opacity=".15"/>
   <path d="m39 79.3s3.8 0.9 6.4 0.5 4.9-1.4 4.9-1.4-0.6 5.3-0.5 9.3c0.1 3.9-0.2 7.3 1.7 11.8s3.1 12.6 4.3 15.1 5.2 7.9 5.2 10.1 0 7.3-0.8 8.6c-0.8 1.2-4 4.4-5.4 3.8s-0.9-5.5-0.9-6.3 0.8-4.1 0.2-5.2-8.8-12.9-10.4-16.8-4.4-11.7-4.6-18.1c-0.1-6.4-0.1-11.4-0.1-11.4z" fill="#fbd7c7"/>
   <path d="m159.9 100.3s5 2.4 9.6 3.2c5.1 0.9 9.7 0.9 9.7 0.9l-0.8 3.3s-3.1 0.6-9.4-0.6c-5.1-1-10.9-3.4-10.9-3.4z" fill="#262626"/>
  </g>
  <g class="top-level-node" transform="translate(268.91 252.25)">
   <ellipse cx="16" cy="36" rx="8" ry="4" opacity=".2"/>
   <path d="m17 4h-2v32.3c0 0.3 0.4 0.5 1 0.5s1-0.2 1-0.5v-32.3z" fill="#999"/>
   <path d="m17 4h-2v32.3c0 0.3 0.4 0.5 1 0.5s1-0.2 1-0.5v-32.3z" opacity=".2"/>
   <polygon points="16 2 29 3 32 8" fill="#f90"/>
   <polygon points="16 2 29 3 21 0" fill="#cc291f"/>
   <polygon points="16 2 3 3 0 8" fill="#f90"/>
   <polygon points="16 2 3 3 11 0" fill="#cc291f"/>
   <polygon points="16 2 11 0 21 0" fill="#f90"/>
   <polygon points="21 16 16 2 11 16 11 18 21 18" fill="#cc291f"/>
   <polygon points="29 13 16 2 21 16 21 18 29 15" fill="#f90"/>
   <polygon points="32 8 16 2 29 13 29 15 32 10" fill="#cc291f"/>
   <polygon points="16 2 3 13 3 15 11 18 11 16" fill="#f90"/>
   <polygon points="16 2 0 8 0 10 3 15 3 13" fill="#cc291f"/>
   <polygon points="29 15 32 10 32 8 29 13 21 16 11 16 3 13 0 8 0 10 3 15 11 18 21 18" opacity=".2"/>
  </g>
 </g>
 <flowRoot transform="matrix(.59938 .29761 0 .68729 -260.02 -300.04)" fill="#5e2508" font-family="sans-serif" font-size="40px" letter-spacing="0px" word-spacing="0px" style="line-height:1.25" xml:space="preserve"><flowRegion><rect x="520.77" y="283.06" width="105.97" height="48.103" fill="#5e2508"/></flowRegion><flowPara font-family="Georgia">caf</flowPara></flowRoot>
</svg>
