<svg enable-background="new 0 0 112 88" viewBox="0 0 112 88" xmlns="http://www.w3.org/2000/svg"><path d="m32 1-32 16v31l16 8 32-16v-31z" fill="#e5e5e5"/><path d="m32 0-32 16v2l16 8 32-16v-2z" fill="#baa794"/><path d="m1 48.5-1-.5v-24l1 .5z" opacity=".2"/><path d="m16 56-1-.5v-24l1 .5z" opacity=".2"/><path d="m0 21 16 8v-1l-16-8z" opacity=".3"/><path d="m0 24 16 8v-1l-16-8z" opacity=".3"/><path d="m0 48 16 8v-1l-16-8z" opacity=".3"/><g fill="#fff"><path d="m0 20 16 8v-1l-16-8z" opacity=".3"/><path d="m0 23 16 8v-1l-16-8z" opacity=".3"/><path d="m4 45v-10c0-2.2 1.8-3.1 4-2s4 3.8 4 6v10z"/></g><path d="m11 47.5-6-3v-9c0-1.7 1.3-2.3 3-1.5 1.7.8 3 2.8 3 4.5z" fill="#656565"/><path d="m11 47.5-6-3v-9z" fill="#fff" opacity=".2"/><path d="m11 39.5v-1l-5-2.5v-1c0-.6.2-1 .4-1.3-.8.1-1.4.7-1.4 1.8v9l6 3v-1l-5-2.5v-3l5 2.5v-1l-5-2.5v-3z" fill="#262626" opacity=".45"/><path d="m16 56-16-8v-32l16 8z" opacity=".11"/><path d="m72 9h-24l-36 18v31l48 24 36-18v-31z" fill="#e5e5e5"/><path d="m72 8h-24l-36 18v2h24l24 24 36-18v-2z" fill="#baa794"/><path d="m13 58.5-1-.5v-24l1 .5z" opacity=".2"/><path d="m60 82-1-.5v-24l1 .5z" opacity=".2"/><path d="m29 66.5-2-1v-24l2 1z" opacity=".2"/><path d="m45 74.5-2-1v-24l2 1z" opacity=".2"/><path d="m12 31 48 24v-1l-48-24z" opacity=".3"/><path d="m12 34 48 24v-1l-48-24z" opacity=".3"/><path d="m12 58 48 24v-1l-48-24z" opacity=".3"/><path d="m12 30 48 24v-1l-48-24z" fill="#fff" opacity=".3"/><path d="m12 33 48 24v-1l-48-24z" fill="#fff" opacity=".3"/><path d="m16 55v-10c0-2.2 1.8-3.1 4-2s4 3.8 4 6v10z" fill="#fff"/><path d="m23 57.5-6-3v-9c0-1.7 1.3-2.3 3-1.5 1.7.8 3 2.8 3 4.5z" fill="#656565"/><path d="m23 57.5-6-3v-9z" fill="#fff" opacity=".2"/><path d="m23 49.5v-1l-5-2.5v-1c0-.6.2-1 .4-1.3-.9.1-1.4.7-1.4 1.8v9l6 3v-1l-5-2.5v-3l5 2.5v-1l-5-2.5v-3z" fill="#262626" opacity=".45"/><path d="m48 71v-10c0-2.2 1.8-3.1 4-2s4 3.8 4 6v10z" fill="#fff"/><path d="m55 73.5-6-3v-9c0-1.7 1.3-2.3 3-1.5 1.7.8 3 2.8 3 4.5z" fill="#656565"/><path d="m55 65.5v-1l-5-2.5v-1c0-.6.2-1 .4-1.3-.9.1-1.4.7-1.4 1.8v9l6 3v-1l-5-2.5v-3l5 2.5v-1l-5-2.5v-3z" fill="#262626" opacity=".45"/><path d="m33 63.5-4 2v-18l4 2z" fill="#baa794"/><path d="m33 63.5-4 2v-18l4 2z" opacity=".29"/><path d="m43 68.5-10-5v-14l10 5z" fill="#baa794"/><path d="m35 50.5-1-.5v14l1 .5z" fill="#fff"/><path d="m43 68.5-8-4v-14l8 4z" fill="#762c07"/><path d="m36 64v-13l-1-.5v14l8 4v-1z" opacity=".3"/><path d="m39 54.5-2-1v-1l2 1z" opacity=".3"/><path d="m42 56-2-1v-1l2 1z" opacity=".3"/><path d="m39 58.5-2-1v-1l2 1z" opacity=".3"/><path d="m42 60-2-1v-1l2 1z" opacity=".3"/><path d="m39 62.5-2-1v-1l2 1z" opacity=".3"/><path d="m42 64-2-1v-1l2 1z" opacity=".3"/><path d="m32 33c0 2.2 1.8 4.9 4 6s4 .2 4-2-1.8-4.9-4-6-4-.2-4 2z" fill="#762c07"/><path d="m33 33.5c0 1.7 1.3 3.7 3 4.5s3 .2 3-1.5-1.3-3.7-3-4.5-3-.2-3 1.5z" fill="#fff"/><path d="m35.8 34.6v-1.9l.4.3v1.9.5l-.4-.3-2-.9v-.5z" fill="#2d3134"/><path d="m43 72.5-14-7 4-2 10 5z" fill="#762c07"/><path d="m43 68.5-10-5v-14l10 5z" opacity=".11"/><path d="m96 32-24-24-36 18 24 24z" opacity=".15"/><path d="m95 64.5 1-.5v-24l-1 .5z" opacity=".2"/><path d="m60 82 1-.5v-24l-1 .5z" opacity=".2"/><path d="m96 37-36 18v-1l36-18z" opacity=".3"/><path d="m96 40-36 18v-1l36-18z" opacity=".3"/><path d="m96 64-36 18v-1l36-18z" opacity=".3"/><path d="m96 36-36 18v-1l36-18z" fill="#fff" opacity=".3"/><path d="m96 39-36 18v-1l36-18z" fill="#fff" opacity=".3"/><path d="m96 32v32l-36 18v-32z" opacity=".29"/><path d="m36 26h-24v32l48 24v-32zm7 46.5-14-7v-18l14 7z" opacity=".11"/><path d="m96 33-32 16v31l16 8 32-16v-31z" fill="#e5e5e5"/><path d="m96 32-32 16v2l16 8 32-16v-2z" fill="#baa794"/><path d="m65 80.5-1-.5v-24l1 .5z" opacity=".2"/><path d="m80 88-1-.5v-24l1 .5z" opacity=".2"/><path d="m64 53 16 8v-1l-16-8z" opacity=".3"/><path d="m64 56 16 8v-1l-16-8z" opacity=".3"/><path d="m64 80 16 8v-1l-16-8z" opacity=".3"/><path d="m64 52 16 8v-1l-16-8z" fill="#fff" opacity=".3"/><path d="m64 55 16 8v-1l-16-8z" fill="#fff" opacity=".3"/><path d="m68 77v-10c0-2.2 1.8-3.1 4-2s4 3.8 4 6v10z" fill="#fff"/><path d="m75 79.5-6-3v-9c0-1.7 1.3-2.3 3-1.5 1.7.8 3 2.8 3 4.5z" fill="#656565"/><path d="m75 79.5-6-3v-9z" fill="#fff" opacity=".2"/><path d="m75 71.5v-1l-5-2.5v-1c0-.6.2-1 .4-1.3-.9.1-1.4.7-1.4 1.8v9l6 3v-1l-5-2.5v-3l5 2.5v-1l-5-2.5v-3z" fill="#262626" opacity=".45"/><path d="m111 72.5 1-.5v-24l-1 .5z" opacity=".2"/><path d="m80 88 1-.5v-24l-1 .5z" opacity=".2"/><path d="m95 80.5 2-1v-24l-2 1z" opacity=".2"/><path d="m112 45-32 16v-1l32-16z" opacity=".3"/><path d="m112 48-32 16v-1l32-16z" opacity=".3"/><path d="m112 72-32 16v-1l32-16z" opacity=".3"/><path d="m112 44-32 16v-1l32-16z" fill="#fff" opacity=".3"/><path d="m112 47-32 16v-1l32-16z" fill="#fff" opacity=".3"/><path d="m108 69v-10c0-2.2-1.8-3.1-4-2s-4 3.8-4 6v10z" fill="#fff"/><path d="m101 71.5 6-3v-9c0-1.7-1.3-2.3-3-1.5-1.7.8-3 2.8-3 4.5z" fill="#656565"/><path d="m101 63.5v-1l5-2.5v-1c0-.6-.2-1-.4-1.3.9.1 1.4.7 1.4 1.8v9l-6 3v-1l5-2.5v-3l-5 2.5v-1l5-2.5v-3z" fill="#262626" opacity=".45"/><path d="m92 77v-10c0-2.2-1.8-3.1-4-2s-4 3.8-4 6v10z" fill="#fff"/><path d="m85 79.5 6-3v-9c0-1.7-1.3-2.3-3-1.5-1.7.8-3 2.8-3 4.5z" fill="#656565"/><path d="m85 71.5v-1l5-2.5v-1c0-.6-.2-1-.4-1.3.9.1 1.4.7 1.4 1.8v9l-6 3v-1l5-2.5v-3l-5 2.5v-1l5-2.5v-3z" fill="#262626" opacity=".45"/><path d="m112 72-32 16v-32l32-16z" opacity=".29"/><path d="m80 88-16-8v-32l16 8z" opacity=".11"/></svg>