<svg enable-background="new 0 0 80 64" viewBox="0 0 80 64" xmlns="http://www.w3.org/2000/svg"><path d="m77 51-58-29-16 8 58 29z" opacity=".2"/><path d="m75.3 46.1c-.6-.3-1.2-.4-1.6-.2l-.7.4c-.5.2-.7.7-.7 1.3 0 1.3 1.1 2.9 2.4 3.5.6.3 1.2.4 1.7.1 0 0 .7-.3.8-.4.4-.2.6-.7.6-1.3-.1-1.1-1.2-2.7-2.5-3.4z" fill="#2d3134"/><path d="m76.3 51.3c.2-.1.7-.3.7-.3.4-.2.6-.7.6-1.3 0-.5-.2-1.1-.5-1.6l-.7.3c.3.5.5 1.1.5 1.6.1.7-.2 1.1-.6 1.3z" opacity=".29"/><path d="m76.4 49.7c0 1-.8 1.4-1.8.9s-1.8-1.7-1.8-2.7.8-1.4 1.8-.9 1.8 1.7 1.8 2.7z" opacity=".5"/><path d="m75.5 49.1c0 .4-.3.6-.7.4s-.7-.7-.7-1.1.3-.6.7-.4.7.7.7 1.1z" fill="#2d3134"/><path d="m75.5 49.1c0 .4-.3.6-.7.4s-.7-.7-.7-1.1.3-.6.7-.4.7.7.7 1.1z" opacity=".29"/><path d="m75.4 49.2c0 .4-.3.6-.7.4s-.7-.7-.7-1.1.3-.6.7-.4c.3.2.7.7.7 1.1z" fill="#2d3134"/><path d="m77 50c0 1.3-1.1 1.8-2.4 1.2s-2.4-2.2-2.4-3.5 1.1-1.8 2.4-1.2 2.4 2.2 2.4 3.5z" opacity=".11"/><path d="m15.4 30c-.6-.3-1.2-.4-1.6-.2l-.7.3c-.5.2-.7.7-.7 1.3 0 1.3 1.1 2.9 2.4 3.5.6.3 1.2.4 1.7.1 0 0 .7-.3.8-.4.4-.2.6-.7.6-1.3-.2-1-1.2-2.6-2.5-3.3z" fill="#2d3134"/><path d="m16.4 35.2c.2-.1.7-.3.7-.4.4-.2.6-.7.6-1.3 0-.5-.2-1.1-.5-1.6l-.7.3c.3.5.5 1.1.5 1.6 0 .8-.2 1.2-.6 1.4z" opacity=".29"/><path d="m16.4 33.6c0 1-.8 1.4-1.8.9s-1.8-1.7-1.8-2.7.8-1.4 1.8-.9c1.1.5 1.8 1.7 1.8 2.7z" opacity=".5"/><path d="m15.6 33c0 .4-.3.6-.7.4s-.7-.7-.7-1.1.3-.6.7-.4c.3.2.7.7.7 1.1z" fill="#2d3134"/><path d="m15.6 33c0 .4-.3.6-.7.4s-.7-.7-.7-1.1.3-.6.7-.4c.3.2.7.7.7 1.1z" opacity=".29"/><path d="m15.4 33.1c0 .4-.3.6-.7.4s-.7-.7-.7-1.1.3-.6.7-.4.7.7.7 1.1z" fill="#2d3134"/><path d="m17 33.9c0 1.3-1.1 1.8-2.4 1.2s-2.4-2.2-2.4-3.5 1.1-1.8 2.4-1.2 2.4 2.2 2.4 3.5z" opacity=".11"/><path d="m7.4 26c-.6-.3-1.2-.4-1.6-.2l-.7.3c-.5.2-.7.7-.7 1.3 0 1.3 1.1 2.9 2.4 3.5.6.3 1.2.4 1.7.1 0 0 .7-.3.8-.4.4-.2.6-.7.6-1.3-.2-1-1.2-2.6-2.5-3.3z" fill="#2d3134"/><path d="m8.4 31.2c.2-.1.7-.3.7-.4.4-.2.6-.7.6-1.3 0-.5-.2-1.1-.5-1.6l-.7.3c.4.6.5 1.2.5 1.7 0 .7-.2 1.1-.6 1.3z" opacity=".29"/><path d="m8.4 29.6c0 1-.8 1.4-1.8.9s-1.8-1.7-1.8-2.7.8-1.4 1.8-.9c1.1.5 1.8 1.7 1.8 2.7z" opacity=".5"/><path d="m7.6 29c0 .4-.3.6-.7.4s-.7-.7-.7-1.1.3-.6.7-.4c.3.2.7.7.7 1.1z" fill="#2d3134"/><path d="m7.6 29c0 .4-.3.6-.7.4s-.7-.7-.7-1.1.3-.6.7-.4c.3.2.7.7.7 1.1z" opacity=".29"/><path d="m7.4 29.1c0 .4-.3.6-.7.4s-.7-.7-.7-1.1.3-.6.7-.4.7.7.7 1.1z" fill="#2d3134"/><path d="m9 29.9c0 1.3-1.1 1.8-2.4 1.2s-2.4-2.2-2.4-3.5 1.1-1.8 2.4-1.2 2.4 2.2 2.4 3.5z" opacity=".11"/><path d="m5 26.5v1.5l1 .5 2 2.5 4 2 2-.5 1 .5 2-1v-1.5l-2 1z" fill="#2d3134"/><path d="m5 26.5v1.5l1 .5 2 2.5 4 2 2-.5 1 .5v-1.5z" opacity=".11"/><path d="m17 32v-1.5l-2 1v1.5z" opacity=".29"/><path d="m61.4 53c-.6-.3-1.2-.4-1.6-.2l-.7.3c-.5.2-.7.7-.7 1.3 0 1.3 1.1 2.9 2.4 3.5.6.3 1.2.4 1.7.1 0 0 .7-.3.8-.4.4-.2.6-.7.6-1.3-.2-1-1.2-2.6-2.5-3.3z" fill="#2d3134"/><path d="m62.4 58.2c.2-.1.7-.3.7-.4.4-.2.6-.7.6-1.3 0-.5-.2-1.1-.5-1.6l-.7.3c.3.5.5 1.1.5 1.6 0 .8-.2 1.2-.6 1.4z" opacity=".29"/><path d="m62.4 56.6c0 1-.8 1.4-1.8.9s-1.8-1.7-1.8-2.7.8-1.4 1.8-.9c1.1.5 1.8 1.7 1.8 2.7z" opacity=".5"/><path d="m61.6 56c0 .4-.3.6-.7.4s-.7-.7-.7-1.1.3-.6.7-.4c.3.2.7.7.7 1.1z" fill="#2d3134"/><path d="m61.6 56c0 .4-.3.6-.7.4s-.7-.7-.7-1.1.3-.6.7-.4c.3.2.7.7.7 1.1z" opacity=".29"/><path d="m61.4 56.1c0 .4-.3.6-.7.4s-.7-.7-.7-1.1.3-.6.7-.4.7.7.7 1.1z" fill="#2d3134"/><path d="m63 56.9c0 1.3-1.1 1.8-2.4 1.2s-2.4-2.2-2.4-3.5 1.1-1.8 2.4-1.2 2.4 2.2 2.4 3.5z" opacity=".11"/><path d="m53.4 49c-.6-.3-1.2-.4-1.6-.2l-.7.3c-.5.2-.7.7-.7 1.3 0 1.3 1.1 2.9 2.4 3.5.6.3 1.2.4 1.7.1 0 0 .7-.3.8-.4.4-.2.6-.7.6-1.3-.2-1-1.2-2.6-2.5-3.3z" fill="#2d3134"/><path d="m54.4 54.2c.2-.1.7-.3.7-.4.4-.2.6-.7.6-1.3 0-.5-.2-1.1-.5-1.6l-.7.3c.3.5.5 1.1.5 1.6 0 .8-.2 1.2-.6 1.4z" opacity=".29"/><path d="m54.4 52.6c0 1-.8 1.4-1.8.9s-1.8-1.7-1.8-2.7.8-1.4 1.8-.9c1.1.5 1.8 1.7 1.8 2.7z" opacity=".5"/><path d="m53.6 52c0 .4-.3.6-.7.4s-.7-.7-.7-1.1.3-.6.7-.4c.3.2.7.7.7 1.1z" fill="#2d3134"/><path d="m53.6 52c0 .4-.3.6-.7.4s-.7-.7-.7-1.1.3-.6.7-.4c.3.2.7.7.7 1.1z" opacity=".29"/><path d="m53.4 52.1c0 .4-.3.6-.7.4s-.7-.7-.7-1.1.3-.6.7-.4.7.7.7 1.1z" fill="#2d3134"/><path d="m55 52.9c0 1.3-1.1 1.8-2.4 1.2s-2.4-2.2-2.4-3.5 1.1-1.8 2.4-1.2 2.4 2.2 2.4 3.5z" opacity=".11"/><path d="m51 49.5v1.5l1 .5 2 2.5 4 2 2-.5 1 .5 2-1v-1.5l-2 1z" fill="#2d3134"/><path d="m51 49.5v1.5l1 .5 2 2.5 4 2 2-.5 1 .5v-1.5z" opacity=".11"/><path d="m63 55v-1.5l-2 1v1.5z" opacity=".29"/><path d="m16 16-14 7v2l62 31 14-7v-2z" fill="#656565"/><path d="m2 23v2l62 31v-2z" opacity=".11"/><path d="m78 47v2l-14 7v-2z" opacity=".29"/><path d="m72 50-2 1v2l2 1 2-1v-2z" fill="#656565"/><path d="m70 51v2l2 1v-2z" opacity=".11"/><path d="m74 51v2l-2 1v-2z" opacity=".29"/><path d="m16 1-14 7v14l62 31 14-7v-14z" fill="#e5e5e5"/><path d="m64 49-62-31v5l62 31 14-7v-5z" fill="#cc291f"/><path d="m64 51-62-31v1l62 31 14-7v-1z" fill="#e5e5e5"/><path d="m42 30v6l6 3v-6z" fill="#39c"/><path d="m43 35.8v-5.3l-1-.5v6l6 3v-.7z" opacity=".2"/><path d="m42 30 6 9v-6z" fill="#fff" opacity=".2"/><path d="m50 34v6l4 2v-6z" fill="#39c"/><path d="m51 39.8v-5.3l-1-.5v6l4 2v-.7z" opacity=".2"/><path d="m50 34 4 8v-6z" fill="#fff" opacity=".2"/><path d="m56 37v13l6 3v-13z" opacity=".2"/><path d="m57 49.8v-12.3l-1-.5v13l6 3v-.7z" opacity=".2"/><path d="m61 41-4-2v4l4 2z" fill="#39c"/><path d="m57 39 4 5v-3z" fill="#fff" opacity=".2"/><path d="m34 26v6l6 3v-6z" fill="#39c"/><path d="m35 31.8v-5.3l-1-.5v6l6 3v-.7z" opacity=".2"/><path d="m34 26 6 9v-6z" fill="#fff" opacity=".2"/><path d="m26 22v6l6 3v-6z" fill="#39c"/><path d="m27 27.8v-5.3l-1-.5v6l6 3v-.7z" opacity=".2"/><path d="m26 22 6 9v-6z" fill="#fff" opacity=".2"/><path d="m18 18v6l6 3v-6z" fill="#39c"/><path d="m19 23.8v-5.3l-1-.5v6l6 3v-.7z" opacity=".2"/><path d="m18 18 6 9v-6z" fill="#fff" opacity=".2"/><path d="m10 14v6l6 3v-6z" fill="#39c"/><path d="m11 19.8v-5.3l-1-.5v6l6 3v-.7z" opacity=".2"/><path d="m10 14 6 9v-6z" fill="#fff" opacity=".2"/><path d="m4 11v6l4 2v-6z" fill="#39c"/><path d="m5 16.8v-5.3l-1-.5v6l4 2v-.7z" opacity=".2"/><path d="m74 36v13l-6 3v-13z" opacity=".2"/><path d="m73 48.8v-12.3l1-.5v13l-6 3v-.7z" opacity=".2"/><path d="m69 40 4-2v4l-4 2z" fill="#39c"/><path d="m73 38-4 5v-3z" fill="#fff" opacity=".2"/><path d="m2 8v15l62 31v-15z" opacity=".11"/><path d="m78 32v15l-14 7v-15z" opacity=".29"/></svg>