<svg enable-background="new 0 0 216 192" viewBox="0 0 216 192" xmlns="http://www.w3.org/2000/svg"><path d="m76 123 14-7 4 2v2l-14 7-4-2z" fill="#656565"/><path d="m80 127-4-2v-2l4 2z" opacity=".11"/><path d="m80 127 14-7v-2l-14 7z" opacity=".29"/><path d="m50 109.9 14-7 4 2.1v2l-14 7-4-2z" fill="#656565"/><path d="m54 114-4-2v-2l4 2z" opacity=".11"/><path d="m54 114 14-7v-2l-14 7z" opacity=".29"/><path d="m54 110 14-7 22 11v2l-14 7v2l-22-11z" fill="#2d3134"/><path d="m76 125-22-11v-4l22 11z" opacity=".11"/><path d="m76 123 14-7v-2l-14 7z" opacity=".29"/><path d="m73 87 1-.6 1 .6v32.4l-1 .6-1-.5z" fill="#2d3134"/><path d="m73 87 1-.6v33.6l-1-.5z" opacity=".11"/><path d="m74 86.4 1 .6v32.4l-1 .6z" opacity=".29"/><path d="m86 80 1-.6 1 .6v32.9l-1 .6-1-.5z" fill="#2d3134"/><path d="m86 80 1-.6v34.1l-1-.5z" opacity=".11"/><path d="m87 79.4 1 .6v32.9l-1 .6z" opacity=".29"/><path d="m56 75.5 1-.5 1 .5v35.5l-1 .5-1-.5z" fill="#2d3134"/><path d="m56 75.5 1-.5v36.5l-1-.5z" opacity=".11"/><path d="m57 75 1 .5v35.5l-1 .5z" opacity=".29"/><path d="m69 69 1-.6 1 .6v35.4l-1 .6-1-.5z" fill="#2d3134"/><path d="m69 69 1-.6v36.6l-1-.5z" opacity=".11"/><path d="m70 68.4 1 .6v35.4l-1 .6z" opacity=".29"/><path d="m168 36-14-7-14 7v2l4 12v4l14 7 10-5z" fill="#e5e5e5"/><path d="m145 50.5-4-12 12.2 6.1 4 12z" fill="#39c"/><path d="m145 50.5-4-12 16.2 18.1z" fill="#fff" opacity=".2"/><path d="m146 50-3.6-10.8-1.4-.7 4 12 12.2 6.1-.4-1.2z" fill="#231f20" opacity=".2"/><path d="m164 54v-14l-9.3 4.6 4 12z" fill="#39c"/><path d="m163 40.5v13.5l-4.4 2.2.1.4 5.3-2.6v-14z" fill="#231f20" opacity=".2"/><path d="m158 61 10-5v-4-16l-14 7v2l4 12z" opacity=".29"/><path d="m158 61-14-7v-4l-4-12v-2l14 7v2l4 12z" opacity=".11"/><path d="m128 120 4 2 4-2v-104l-4-2-4 2z" fill="#e5e5e5"/><path d="m128 120 4 2v-104l-4-2z" opacity=".11"/><path d="m132 122 4-2v-104l-4 2z" opacity=".29"/><path d="m36 166 4 2 4-2v-104l-4-2-4 2z" fill="#e5e5e5"/><path d="m36 166 4 2v-104l-4-2z" opacity=".11"/><path d="m40 168 4-2v-104l-4 2z" opacity=".29"/><path d="m176 12-172 86-4-2v-8l172-86 4 2z" fill="#e5e5e5"/><path d="m176 12-172 86v-8l172-86z" opacity=".29"/><path d="m0 88 4 2v8l-4-2z" opacity=".11"/><path d="m172 14 36 18 4-2v-8l-36-18-4 2z" fill="#e5e5e5"/><path d="m172 14 36 18v-8l-36-18z" opacity=".11"/><path d="m178 15-160 80-2-1v-2l160-80 2 1z" fill="#656565"/><path d="m178 15-160 80v-2l160-80z" opacity=".29"/><path d="m16 92 2 1v2l-2-1z" opacity=".11"/><path d="m200 26-160 80-2-1v-2l160-80 2 1z" fill="#656565"/><path d="m200 26-160 80v-2l160-80z" opacity=".29"/><path d="m38 103 2 1v2l-2-1z" opacity=".11"/><path d="m4 98 36 18 4-2v-8l-36-18-4 2z" fill="#e5e5e5"/><path d="m4 98 36 18v-8l-36-18z" opacity=".11"/><path d="m216 32-172 86-4-2v-8l172-86 4 2z" fill="#e5e5e5"/><path d="m216 32-172 86v-8l172-86z" opacity=".29"/><path d="m40 108 4 2v8l-4-2z" opacity=".11"/><path d="m40 158 44 22 4-2v-4l-44-22-4 2z" fill="#e5e5e5"/><path d="m40 158 44 22v-4l-44-22z" opacity=".11"/><path d="m132 112 44 22 4-2v-4l-44-22-4 2z" fill="#e5e5e5"/><path d="m132 112 44 22v-4l-44-22z" opacity=".11"/><path d="m40 68 44 22 4-2v-4l-44-22-4 2z" fill="#e5e5e5"/><path d="m40 68 44 22v-4l-44-22z" opacity=".11"/><path d="m132 22 44 22 4-2v-4l-44-22-4 2z" fill="#e5e5e5"/><path d="m132 22 44 22v-4l-44-22z" opacity=".11"/><path d="m176 144 4 2 4-2v-104l-4-2-4 2z" fill="#e5e5e5"/><path d="m176 144 4 2v-104l-4-2z" opacity=".11"/><path d="m180 146 4-2v-104l-4 2z" opacity=".29"/><path d="m84 190 4 2 4-2v-104l-4-2-4 2z" fill="#e5e5e5"/><path d="m84 190 4 2v-104l-4-2z" opacity=".11"/><path d="m88 192 4-2v-104l-4 2z" opacity=".29"/></svg>