<svg enable-background="new 0 0 48 56" viewBox="0 0 48 56" xmlns="http://www.w3.org/2000/svg"><path d="m14 15v4 14l32 16 2-1v-32z" fill="#999"/><path d="m32 28-32-16v-4l32 16z" fill="#825012"/><path d="m32 28-32-16v-4l32 16z" opacity=".11"/><path d="m32 24v4c6.4-3.2 14 1.5 14 8.7v12.3l2-1v-32z" opacity=".29"/><path d="m32 28-18-9v14l32 16v-12.3c0-7.2-7.6-11.9-14-8.7z" opacity=".11"/><path d="m0 8v2l32 16 16-8v-2z" opacity=".3"/><g fill="#9c3"><path d="m16 0 32 16-16 8-32-16z"/><path d="m16 0 32 16-16 8-32-16z"/></g></svg>