<svg enable-background="new 0 0 136 88" viewBox="0 0 136 88" xmlns="http://www.w3.org/2000/svg"><g fill="#999"><path d="m96.4 58.2c-.2.5-.4 1.1-.7 1.6l-22-11.1c.2-.6.3-1.2.4-1.8z"/><path d="m85.8 70.8-20.3-10.1c.5-.4 1.1-.8 1.5-1.2l20.4 10.2c-.5.4-1.1.7-1.6 1.1z"/><path d="m91.7 65.8-21-10.5c.3-.5.7-1 .9-1.5l21.2 10.6c-.3.5-.7 1-1.1 1.4z"/><path d="m88.9 68.6-20.5-10.4c.4-.5.9-.9 1.2-1.4l20.7 10.5c-.5.4-.9.8-1.4 1.3z"/><path d="m93.9 62.9-21.5-10.7c.2-.6.5-1.1.7-1.7l21.8 10.9c-.3.5-.6 1-1 1.5z"/><path d="m107.4 29.5-21.4-10.5 2-1 20.8 10.3c-.5.4-1 .8-1.4 1.2z"/><path d="m110.4 27.2-20.4-10.2 2-1 20.1 10.1c-.6.3-1.2.7-1.7 1.1z"/><path d="m104.6 32.5-22.6-11.5 2-1 21.8 11.1c-.4.5-.8.9-1.2 1.4z"/><path d="m102.7 35.3-24.7-12.3 2-1 23.6 11.8c-.3.5-.6 1-.9 1.5z"/><path d="m62.4 62.7c.5-.3.9-.6 1.4-.8l20 10c-.6.4-1.1.7-1.7 1.1l-20.1-10c.1-.1.3-.2.4-.3z"/><path d="m60 64 20 10-2 1-20-10z"/><path d="m44 72 20 10-2 1-20-10z"/><path d="m56 66 20 10-2 1-20-10z"/><path d="m60 84-2 1-20-10 2-1z"/><path d="m48 70 20 10-2 1-20-10z"/><path d="m52 68 20 10-2 1-20-10z"/><path d="m28 48-2 1 20 10 2-1z"/><path d="m24 50-2 1 20 10 2-1z"/><path d="m20 52-2 1 20 10 2-1z"/><path d="m16 54-2 1 20 10 2-1z"/><path d="m12 56-2 1 20 10 2-1z"/><path d="m8 58-2 1 20 10 2-1z"/></g><path d="m78 71 2 1-24 12-2-1z" fill="#656565"/><path d="m78 71 1 .5-24 12-1-.5z" opacity=".2"/><path d="m98.3 51.1-38.3-19.1-2 1 39.9 19.9c.1-.6.3-1.2.4-1.8z" fill="#999"/><path d="m56 34-2 1 43 21.5c.2-.6.3-1.1.5-1.7z" fill="#999"/><path d="m52 36-2 1 20 10 2-1z" fill="#999"/><path d="m48 38-2 1 20 10 2-1z" fill="#999"/><path d="m44 40-2 1 20 10 2-1z" fill="#999"/><path d="m40 42-2 1 20 10 2-1z" fill="#999"/><path d="m36 44-2 1 20 10 2-1z" fill="#999"/><path d="m32 46-2 1 20 10 2-1z" fill="#999"/><path d="m101.9 37-25.9-13-2 1 27.2 13.6c.2-.6.4-1.1.7-1.6z" fill="#999"/><path d="m100.6 40.3-28.6-14.3-2 1 30.1 15c.2-.6.3-1.1.5-1.7z" fill="#999"/><path d="m99.7 43.8-31.7-15.8-2 1 33.3 16.6c.1-.6.2-1.2.4-1.8z" fill="#999"/><path d="m64 30-2 1 36.6 18.3c.1-.3.1-.6.2-.9s.1-.6.2-.9z" fill="#999"/><path d="m116 4-2 1 20 10 2-1z" fill="#999"/><path d="m112 6-2 1 20 10 2-1z" fill="#999"/><path d="m108 8-2 1 20 10 2-1z" fill="#999"/><path d="m104 10-2 1 20 10 2-1z" fill="#999"/><path d="m100 12-2 1 20 10 2-1z" fill="#999"/><path d="m96 14-2 1 20 10 2-1z" fill="#999"/><path d="m134 11-54.1 27c1.5-7.2 4.8-14.4 17.5-20.7l24.6-12.3-2-1-112 56 2 1 75.8-37.9c-5.3 5.2-7 10.7-7.9 16l-55.9 27.9 2 1 53.5-26.8c-.1.6-.2 1.2-.3 1.8-1.1 7.9-2.2 15.4-13.7 21.2l-23.5 11.8 2 1 22.4-11.2c12.3-6.2 13.5-14.5 14.7-22.5.1-1 .3-2 .5-3l22.3-11.1c-4.8 5.3-5.9 11.3-7 17.3-1.6 8.8-3.2 17.8-17.2 24.8l-23.7 11.7 2 1 22.4-11.2c14.8-7.4 16.5-16.9 18.2-26.1 1.5-8.5 3-16.4 14.8-22.4l24.6-12.3z" fill="#656565"/></svg>