<svg enable-background="new 0 0 120 64" viewBox="0 0 120 64" xmlns="http://www.w3.org/2000/svg"><g fill="#999"><path d="m90 29 2-1-20-10-2 1z"/><path d="m94 27 2-1-20-10-2 1z"/><path d="m98 25 2-1-20-10-2 1z"/><path d="m102 23 2-1-20-10-2 1z"/><path d="m106 21 2-1-20-10-2 1z"/><path d="m110 19 2-1-20-10-2 1z"/><path d="m114 17 2-1-20-10-2 1z"/><path d="m118 15 2-1-20-10-2 1z"/><path d="m58 45 2-1-20-10-2 1z"/><path d="m62 43 2-1-20-10-2 1z"/><path d="m66 41 2-1-20-10-2 1z"/><path d="m70 39 2-1-20-10-2 1z"/><path d="m74 37 2-1-20-10-2 1z"/><path d="m78 35 2-1-20-10-2 1z"/><path d="m82 33 2-1-20-10-2 1z"/><path d="m86 31 2-1-20-10-2 1z"/><path d="m26 61 2-1-20-10-2 1z"/><path d="m30 59 2-1-20-10-2 1z"/><path d="m34 57 2-1-20-10-2 1z"/><path d="m38 55 2-1-20-10-2 1z"/><path d="m42 53 2-1-20-10-2 1z"/><path d="m46 51 2-1-20-10-2 1z"/><path d="m50 49 2-1-20-10-2 1z"/><path d="m54 47 2-1-20-10-2 1z"/></g><path d="m118 11 2 1-96 48-2-1z" fill="#656565"/><path d="m104 4 2 1-96 48-2-1z" fill="#656565"/></svg>