<svg enable-background="new 0 0 80 64" viewBox="0 0 80 64" xmlns="http://www.w3.org/2000/svg"><path d="m66 34v7l1 .6v-6.1l4 2v6.1l1 .4v-7z" fill="#656565"/><path d="m66 34v7l1 .6v-6.1l4 2v6.1l1 .4v-7z" opacity=".11"/><path d="m75 50-56-28-16 8 56 28 9-1 6-3z" opacity=".2"/><path d="m15.4 30c-.6-.3-1.2-.4-1.6-.2l-.7.3c-.5.2-.7.7-.7 1.3 0 1.3 1.1 2.9 2.4 3.5.6.3 1.2.4 1.7.1 0 0 .7-.3.8-.4.4-.2.6-.7.6-1.3-.2-1-1.2-2.6-2.5-3.3z" fill="#2d3134"/><path d="m16.4 35.2c.2-.1.7-.3.7-.4.4-.2.6-.7.6-1.3 0-.5-.2-1.1-.5-1.6l-.7.3c.3.5.5 1.1.5 1.6 0 .8-.2 1.2-.6 1.4z" opacity=".29"/><path d="m16.4 33.6c0 1-.8 1.4-1.8.9s-1.8-1.7-1.8-2.7.8-1.4 1.8-.9c1.1.5 1.8 1.7 1.8 2.7z" opacity=".5"/><path d="m15.6 33c0 .4-.3.6-.7.4s-.7-.7-.7-1.1.3-.6.7-.4c.3.2.7.7.7 1.1z" fill="#2d3134"/><path d="m15.6 33c0 .4-.3.6-.7.4s-.7-.7-.7-1.1.3-.6.7-.4c.3.2.7.7.7 1.1z" opacity=".29"/><path d="m15.4 33.1c0 .4-.3.6-.7.4s-.7-.7-.7-1.1.3-.6.7-.4.7.7.7 1.1z" fill="#2d3134"/><path d="m17 33.9c0 1.3-1.1 1.8-2.4 1.2s-2.4-2.2-2.4-3.5 1.1-1.8 2.4-1.2 2.4 2.2 2.4 3.5z" opacity=".11"/><path d="m7.4 26c-.6-.3-1.2-.4-1.6-.2l-.7.3c-.5.2-.7.7-.7 1.3 0 1.3 1.1 2.9 2.4 3.5.6.3 1.2.4 1.7.1 0 0 .7-.3.8-.4.4-.2.6-.7.6-1.3-.2-1-1.2-2.6-2.5-3.3z" fill="#2d3134"/><path d="m8.4 31.2c.2-.1.7-.3.7-.4.4-.2.6-.7.6-1.3 0-.5-.2-1.1-.5-1.6l-.7.3c.4.6.5 1.2.5 1.7 0 .7-.2 1.1-.6 1.3z" opacity=".29"/><path d="m8.4 29.6c0 1-.8 1.4-1.8.9s-1.8-1.7-1.8-2.7.8-1.4 1.8-.9c1.1.5 1.8 1.7 1.8 2.7z" opacity=".5"/><path d="m7.6 29c0 .4-.3.6-.7.4s-.7-.7-.7-1.1.3-.6.7-.4c.3.2.7.7.7 1.1z" fill="#2d3134"/><path d="m7.6 29c0 .4-.3.6-.7.4s-.7-.7-.7-1.1.3-.6.7-.4c.3.2.7.7.7 1.1z" opacity=".29"/><path d="m7.4 29.1c0 .4-.3.6-.7.4s-.7-.7-.7-1.1.3-.6.7-.4.7.7.7 1.1z" fill="#2d3134"/><path d="m9 29.9c0 1.3-1.1 1.8-2.4 1.2s-2.4-2.2-2.4-3.5 1.1-1.8 2.4-1.2 2.4 2.2 2.4 3.5z" opacity=".11"/><path d="m73.3 45.1c-.6-.3-1.2-.4-1.6-.2l-.7.4c-.5.2-.7.7-.7 1.3 0 1.3 1.1 2.9 2.4 3.5.6.3 1.2.4 1.7.1 0 0 .7-.3.8-.4.4-.2.6-.7.6-1.3-.1-1.1-1.2-2.7-2.5-3.4z" fill="#2d3134"/><path d="m74.3 50.3c.2-.1.7-.3.7-.3.4-.2.6-.7.6-1.3 0-.5-.2-1.1-.5-1.6l-.7.3c.3.5.5 1.1.5 1.6.1.7-.2 1.1-.6 1.3z" opacity=".29"/><path d="m74.4 48.7c0 1-.8 1.4-1.8.9s-1.8-1.7-1.8-2.7.8-1.4 1.8-.9 1.8 1.7 1.8 2.7z" opacity=".5"/><path d="m73.5 48.1c0 .4-.3.6-.7.4s-.7-.7-.7-1.1.3-.6.7-.4.7.7.7 1.1z" fill="#2d3134"/><path d="m73.5 48.1c0 .4-.3.6-.7.4s-.7-.7-.7-1.1.3-.6.7-.4.7.7.7 1.1z" opacity=".29"/><path d="m73.4 48.2c0 .4-.3.6-.7.4s-.7-.7-.7-1.1.3-.6.7-.4c.3.2.7.7.7 1.1z" fill="#2d3134"/><path d="m75 49c0 1.3-1.1 1.8-2.4 1.2s-2.4-2.2-2.4-3.5 1.1-1.8 2.4-1.2 2.4 2.2 2.4 3.5z" opacity=".11"/><path d="m59.4 52c-.6-.3-1.2-.4-1.6-.2l-.7.3c-.5.2-.7.7-.7 1.3 0 1.3 1.1 2.9 2.4 3.5.6.3 1.2.4 1.7.1 0 0 .7-.3.8-.4.4-.2.6-.7.6-1.3-.2-1-1.2-2.6-2.5-3.3z" fill="#2d3134"/><path d="m60.4 57.2c.2-.1.7-.3.7-.4.4-.2.6-.7.6-1.3 0-.5-.2-1.1-.5-1.6l-.7.3c.3.5.5 1.1.5 1.6 0 .8-.2 1.2-.6 1.4z" opacity=".29"/><path d="m60.4 55.6c0 1-.8 1.4-1.8.9s-1.8-1.7-1.8-2.7.8-1.4 1.8-.9c1.1.5 1.8 1.7 1.8 2.7z" opacity=".5"/><path d="m59.6 55c0 .4-.3.6-.7.4s-.7-.7-.7-1.1.3-.6.7-.4c.3.2.7.7.7 1.1z" fill="#2d3134"/><path d="m59.6 55c0 .4-.3.6-.7.4s-.7-.7-.7-1.1.3-.6.7-.4c.3.2.7.7.7 1.1z" opacity=".29"/><path d="m59.4 55.1c0 .4-.3.6-.7.4s-.7-.7-.7-1.1.3-.6.7-.4.7.7.7 1.1z" fill="#2d3134"/><path d="m61 55.9c0 1.3-1.1 1.8-2.4 1.2s-2.4-2.2-2.4-3.5 1.1-1.8 2.4-1.2 2.4 2.2 2.4 3.5z" opacity=".11"/><path d="m51.4 48c-.6-.3-1.2-.4-1.6-.2l-.7.3c-.5.2-.7.7-.7 1.3 0 1.3 1.1 2.9 2.4 3.5.6.3 1.2.4 1.7.1 0 0 .7-.3.8-.4.4-.2.6-.7.6-1.3-.2-1-1.2-2.6-2.5-3.3z" fill="#2d3134"/><path d="m52.4 53.2c.2-.1.7-.3.7-.4.4-.2.6-.7.6-1.3 0-.5-.2-1.1-.5-1.6l-.7.3c.3.5.5 1.1.5 1.6 0 .8-.2 1.2-.6 1.4z" opacity=".29"/><path d="m52.4 51.6c0 1-.8 1.4-1.8.9s-1.8-1.7-1.8-2.7.8-1.4 1.8-.9c1.1.5 1.8 1.7 1.8 2.7z" opacity=".5"/><path d="m51.6 51c0 .4-.3.6-.7.4s-.7-.7-.7-1.1.3-.6.7-.4c.3.2.7.7.7 1.1z" fill="#2d3134"/><path d="m51.6 51c0 .4-.3.6-.7.4s-.7-.7-.7-1.1.3-.6.7-.4c.3.2.7.7.7 1.1z" opacity=".29"/><path d="m51.4 51.1c0 .4-.3.6-.7.4s-.7-.7-.7-1.1.3-.6.7-.4.7.7.7 1.1z" fill="#2d3134"/><path d="m53 51.9c0 1.3-1.1 1.8-2.4 1.2s-2.4-2.2-2.4-3.5 1.1-1.8 2.4-1.2 2.4 2.2 2.4 3.5z" opacity=".11"/><path d="m43.4 44.1c-.6-.3-1.2-.4-1.6-.2l-.7.3c-.5.2-.7.7-.7 1.3 0 1.3 1.1 2.9 2.4 3.5.6.3 1.2.4 1.7.1 0 0 .7-.3.8-.4.4-.2.6-.7.6-1.3-.2-1.1-1.2-2.7-2.5-3.3z" fill="#2d3134"/><path d="m44.4 49.3c.2-.1.7-.3.7-.4.4-.2.6-.7.6-1.3 0-.5-.2-1.1-.5-1.6l-.7.3c.3.5.5 1.1.5 1.6 0 .7-.2 1.1-.6 1.4z" opacity=".29"/><path d="m44.4 47.6c0 1-.8 1.4-1.8.9s-1.8-1.7-1.8-2.7.8-1.4 1.8-.9c1.1.6 1.8 1.8 1.8 2.7z" opacity=".5"/><path d="m43.6 47.1c0 .4-.3.6-.7.4s-.7-.7-.7-1.1.3-.6.7-.4c.3.2.7.7.7 1.1z" fill="#2d3134"/><path d="m43.6 47.1c0 .4-.3.6-.7.4s-.7-.7-.7-1.1.3-.6.7-.4c.3.2.7.7.7 1.1z" opacity=".29"/><path d="m43.4 47.1c0 .4-.3.6-.7.4s-.7-.7-.7-1.1.3-.6.7-.4.7.7.7 1.1z" fill="#2d3134"/><path d="m45 47.9c0 1.3-1.1 1.8-2.4 1.2s-2.4-2.2-2.4-3.5 1.1-1.8 2.4-1.2 2.4 2.2 2.4 3.5z" opacity=".11"/><path d="m41 44.5v1.5l18 9 2-1v-1.5l-2 1z" fill="#2d3134"/><path d="m41 44.5v1.5l1 .5 16 8 1 .5v-1.5z" opacity=".11"/><path d="m61 54v-1.5l-2 1v1.5z" opacity=".29"/><path d="m23.4 34c-.6-.3-1.2-.4-1.6-.2l-.7.3c-.5.2-.7.7-.7 1.3 0 1.3 1.1 2.9 2.4 3.5.6.3 1.2.4 1.7.1 0 0 .7-.3.8-.4.4-.2.6-.7.6-1.3-.2-1-1.2-2.6-2.5-3.3z" fill="#2d3134"/><path d="m24.4 39.2c.2-.1.7-.3.7-.4.4-.2.6-.7.6-1.3 0-.5-.2-1.1-.5-1.6l-.7.3c.3.5.5 1.1.5 1.6 0 .8-.2 1.2-.6 1.4z" opacity=".29"/><path d="m24.4 37.6c0 1-.8 1.4-1.8.9s-1.8-1.7-1.8-2.7.8-1.4 1.8-.9c1.1.5 1.8 1.7 1.8 2.7z" opacity=".5"/><path d="m23.6 37c0 .4-.3.6-.7.4s-.7-.7-.7-1.1.3-.6.7-.4c.3.2.7.7.7 1.1z" fill="#2d3134"/><path d="m23.6 37c0 .4-.3.6-.7.4s-.7-.7-.7-1.1.3-.6.7-.4c.3.2.7.7.7 1.1z" opacity=".29"/><path d="m23.4 37.1c0 .4-.3.6-.7.4s-.7-.7-.7-1.1.3-.6.7-.4.7.7.7 1.1z" fill="#2d3134"/><path d="m25 37.9c0 1.3-1.1 1.8-2.4 1.2-1.3-.7-2.4-2.2-2.4-3.5s1.1-1.8 2.4-1.2c1.4.6 2.4 2.2 2.4 3.5z" opacity=".11"/><path d="m15.4 30c-.6-.3-1.2-.4-1.6-.2l-.7.3c-.5.2-.7.7-.7 1.3 0 1.3 1.1 2.9 2.4 3.5.6.3 1.2.4 1.7.1 0 0 .7-.3.8-.4.4-.2.6-.7.6-1.3-.2-1-1.2-2.6-2.5-3.3z" fill="#2d3134"/><path d="m16.4 35.2c.2-.1.7-.3.7-.4.4-.2.6-.7.6-1.3 0-.5-.2-1.1-.5-1.6l-.7.3c.3.5.5 1.1.5 1.6 0 .8-.2 1.2-.6 1.4z" opacity=".29"/><path d="m16.4 33.6c0 1-.8 1.4-1.8.9s-1.8-1.7-1.8-2.7.8-1.4 1.8-.9c1.1.5 1.8 1.7 1.8 2.7z" opacity=".5"/><path d="m15.6 33c0 .4-.3.6-.7.4s-.7-.7-.7-1.1.3-.6.7-.4c.3.2.7.7.7 1.1z" fill="#2d3134"/><path d="m15.6 33c0 .4-.3.6-.7.4s-.7-.7-.7-1.1.3-.6.7-.4c.3.2.7.7.7 1.1z" opacity=".29"/><path d="m15.4 33.1c0 .4-.3.6-.7.4s-.7-.7-.7-1.1.3-.6.7-.4.7.7.7 1.1z" fill="#2d3134"/><path d="m17 33.9c0 1.3-1.1 1.8-2.4 1.2s-2.4-2.2-2.4-3.5 1.1-1.8 2.4-1.2 2.4 2.2 2.4 3.5z" opacity=".11"/><path d="m5 26.5v1.5l18 9 2-1v-1.5l-2 1z" fill="#2d3134"/><path d="m5 26.5v1.5l1 .5 16 8 1 .5v-1.5z" opacity=".11"/><path d="m25 36v-1.5l-2 1v1.5z" opacity=".29"/><path d="m16 16-14 7v2l22 11 4 5 10 5 4-1 18 9 6-1 6-3 2-3v-2z" fill="#656565"/><path d="m2 23v2l22 11 4 5 10 5 4-1 18 9v-2z" opacity=".11"/><path d="m58 51v2l2 1 6-1 6-3 2-3v-2l-2-1-6 4z" fill="#2d3134"/><path d="m74 45v2l-2 3-6 3-6 1v-2l6-1 6-3z" opacity=".29"/><path d="m74 47 2 4-2 3-6 3-6 1-2-4 6-1 6-3z" fill="#2d3134"/><path d="m74 47 2 4-2 3-6 3-6 1-2-4 6-1 6-3z" opacity=".15"/><path d="m29 37.7-1-.5v2.5l1 .5z" opacity=".15"/><path d="m31 38.7-1-.5v2.5l1 .5z" opacity=".15"/><path d="m33 39.7-1-.5v2.5l1 .5z" opacity=".15"/><path d="m35 40.7-1-.5v2.5l1 .5z" opacity=".15"/><path d="m37 41.7-1-.5v2.5l1 .5z" opacity=".15"/><path d="m39 42.7-1-.5v2.5l1 .5z" opacity=".15"/><path d="m70 49-2 1v2l2 1 2-1v-2z" fill="#2d3134"/><path d="m68 50v2l2 1v-2z" opacity=".11"/><path d="m72 50v2l-2 1v-2z" opacity=".29"/><path d="m16 3-10 5v15l34 17 10-5v-15z" fill="#e5e5e5"/><path d="m40 30-34-17v10l34 17 10-5v-10z" fill="#cc291f"/><path d="m6 21 34 17v-1l-34-17z" fill="#e5e5e5"/><path d="m6 18 34 17v-1l-34-17z" fill="#e5e5e5"/><path d="m50 20v15l-10 5v-15z" opacity=".29"/><path d="m8 11v6l6 3v-6z" fill="#656565"/><path d="m18 16v4l6 3v-4z" fill="#656565"/><path d="m6 8v15l34 17v-15z" opacity=".11"/><path d="m30 11-6 3v1l6 3 6-3v-1z" fill="#e5e5e5"/><path d="m24 14v1l6 3v-1z" opacity=".11"/><path d="m36 14v1l-6 3v-1z" opacity=".29"/><path d="m9 11.5-1-.5v11l1 .5z" opacity=".15"/><path d="m11 12.5-1-.5v11l1 .5z" opacity=".15"/><path d="m13 13.5-1-.5v11l1 .5z" opacity=".15"/><path d="m15 14.5-1-.5v11l1 .5z" opacity=".15"/><path d="m17 15.5-1-.5v11l1 .5z" opacity=".15"/><path d="m19 16.5-1-.5v11l1 .5z" opacity=".15"/><path d="m21 17.5-1-.5v11l1 .5z" opacity=".15"/><path d="m23 18.5-1-.5v11l1 .5z" opacity=".15"/><path d="m25 19.5-1-.5v11l1 .5z" opacity=".15"/><path d="m27 20.5-1-.5v11l1 .5z" opacity=".15"/><path d="m29 21.5-1-.5v11l1 .5z" opacity=".15"/><path d="m31 22.5-1-.5v11l1 .5z" opacity=".15"/><path d="m33 23.5-1-.5v11l1 .5z" opacity=".15"/><path d="m35 24.5-1-.5v11l1 .5z" opacity=".15"/><path d="m37 25.5-1-.5v11l1 .5z" opacity=".15"/><path d="m39 26.5-1-.5v11l1 .5z" opacity=".15"/><path d="m18 6c-2.2 0-4 .9-4 2v1c0 1.1 1.8 2 4 2s4-.9 4-2v-1c0-1.1-1.8-2-4-2z" fill="#e5e5e5"/><path d="m18 10c-2.2 0-4-.9-4-2v1c0 1.1 1.8 2 4 2s4-.9 4-2v-1c0 1.1-1.8 2-4 2z" opacity=".2"/><path d="m62 26-12-6-10 5-2 3v13l12 6 14-7v-13z" fill="#cc291f"/><path d="m38 38v1l12 6 14-7v-1l-14 7z" fill="#e5e5e5"/><path d="m38 35v1l12 6 14-7v-1l-14 7z" fill="#e5e5e5"/><path d="m40 25-2 3 12 6 2-3z" opacity=".1"/><path d="m39 29v4l4 2v-4z" fill="#39c"/><path d="m40 32.8v-3.3l-1-.5v4l4 2v-.7z" opacity=".2"/><path d="m45 32v4l4 2v-4z" fill="#39c"/><path d="m46 36v-3.2l-1-.5v4l4 2v-.8z" opacity=".2"/><path d="m45 32 4 6v-4z" fill="#fff" opacity=".2"/><path d="m38 28v13l12 6v-13z" opacity=".11"/><path d="m52 34v4l4-2v-4z" fill="#39c"/><path d="m58 31v4l4-2v-4z" fill="#39c"/><path d="m55 32.5v3.3l-3 1.5v.7l4-2v-4z" opacity=".2"/><path d="m61 29.5v3.3l-3 1.5v.7l4-2v-4z" opacity=".2"/><path d="m56 30.3c0 .7.5.9 1.2.6s1.2-1.1 1.2-1.8-.5-.9-1.2-.6-1.2 1.1-1.2 1.8z" fill="#fc0"/><path d="m64 27v13l-14 7v-13l2-3 10-5z" opacity=".29"/><path d="m51 22-6 3v1l6 3 6-3v-1z" fill="#cc291f"/><path d="m45 25v1l6 3v-1z" opacity=".11"/><path d="m57 25v1l-6 3v-1z" opacity=".29"/><path d="m62 33-10 5v8l6 3 8-1 2-4v-8z" fill="#cc291f"/><path d="m58 46-6-3v1l6 3 8-1 2-4v-1l-2 4z" fill="#e5e5e5"/><path d="m58 43-6-3v1l6 3 8-1 2-4v-1l-2 4z" fill="#e5e5e5"/><path d="m52 38v8l6 3v-8z" opacity=".11"/><path d="m68 36v8l-2 4-8 1v-8l8-1z" opacity=".29"/><path d="m68 36v8l-2 4v-8z" opacity=".1"/><path d="m2 16 4-2v1l-4 2z" fill="#656565"/><path d="m2 16 4-2v1l-4 2z" opacity=".29"/><path d="m2 16v7l1 1v-6.5l4 2v6.5l1 1v-7l5 2.5v6.5l1 1v-7l5 2.5v6.5l1 1v-7l5 2.5v6.5l1 .6v-6.6l5 2.5v6.5l1 .6v-6.6l5 2.5v6.5l1 .6v-7.6z" fill="#656565"/><path d="m2 16v7l1 1v-6.5l4 2v6.5l1 1v-7l5 2.5v6.5l1 1v-7l5 2.5v6.5l1 1v-7l5 2.5v6.5l1 .6v-6.6l5 2.5v6.5l1 .6v-6.6l5 2.5v6.5l1 .6v-7.6z" opacity=".11"/><path d="m52 41v7l1 .6v-6.1l4 2v6.1l1 .4v-7z" fill="#656565"/><path d="m52 41v7l1 .6v-6.1l4 2v6.1l1 .4v-7z" opacity=".11"/><path d="m71 41.5-5 2.5v1 6h1v-6.5l4-2v6h1v-6.5-1z" fill="#2d3134"/><path d="m66 44v7h1v-6.5l4-2v6h1v-7.5z" opacity=".29"/></svg>