<svg enable-background="new 0 0 80 240" viewBox="0 0 80 240" xmlns="http://www.w3.org/2000/svg"><path d="m58.6 227.1c12.5-4.6 5.1-9.9-8.4-17.1-13-6.9-19-17.4-35.9-6.7-13.6 8.7 5.3 18.2 11.8 22.2 9.8 6.2 15.9 7.8 32.5 1.6z" opacity=".2"/><path d="m12 201.7s-.8 7.9.2 9.6c1.2 2.2 5.3 2.5 8.3.8s5.1-4.2 8.6-5.1 7.6-3.5 5.6-5.5c-2.4-2.4-5.1-1.9-10.7-.7-1.8.4-2.8-1.6-2.8-1.6z" fill="#2d3134"/><path d="m34.8 201.5s-.1-.1 0 0c-.2 1.6-3.4 3.4-6.2 4.2-3.5.9-5.6 3.4-8.6 5.1-2.8 1.6-6.5 1.5-8-.3.1.3.2.6.3.8 1.2 2.2 5.3 2.5 8.3.8s5.1-4.2 8.6-5.1c3.5-1 7.6-3.5 5.6-5.5z" opacity=".4"/><path d="m38.8 103.5c-1-.1-19.9-4.1-19.9-4.1s-7.7 12.9-8 22.7c-.2 9.8 2 29.7 1.5 35.9-.4 5.2-2.3 16.6-2 24.6.3 8.9 0 24.3 1 25.1 2.7 2.5 7.9.1 10.6-2.2s3.5-3.8 3.8-5c.3-1.3-.6-3.4-.4-11.1.1-7.8 1.8-23.3 2.5-27.7s5.3-20.2 7-28.2c1.8-7.9 3.9-30 3.9-30z" fill="#06547a"/><path d="m10.3 195.5.3 4.6s2.6 1.1 6.3-.2c5.6-2 8.6-5.2 8.6-5.2l-.1-4.3s-7.2 4.1-9.4 4.6c-3.5.8-5.7.5-5.7.5z" fill="#fff"/><path d="m38.8 103.5c-1-.1-19.9-4.1-19.9-4.1s-7.7 12.9-8 22.7c-.2 9.8 2 29.7 1.5 35.9-.4 5.2-2.3 16.6-2 24.6.3 8.9 0 24.3 1 25.1 2.7 2.5 7.9.1 10.6-2.2s3.5-3.8 3.8-5c.3-1.3-.6-3.4-.4-11.1.1-7.8 1.8-23.3 2.5-27.7s5.3-20.2 7-28.2c1.8-7.9 3.9-30 3.9-30z" opacity=".2"/><path d="m9.2 55.1c-1.2 6.2-4.8 26.2-2.8 29.7s10.9 3.3 17.2.3c6.4-2.9-14.4-30-14.4-30z" fill="#f90"/><path d="m6.8 67.4-.8 6.2s3.2 1.1 5.4 1.1 3.3.1 3.3.1l-1.3-6z" fill="#fff"/><path d="m9.2 55.1c-1.2 6.2-4.8 26.2-2.8 29.7s10.9 3.3 17.2.3c6.4-2.9-14.4-30-14.4-30z" opacity=".2"/><path d="m60.9 80.3-24.7 3.8-4.6-30.3 24.6-3.7z" fill="#2d3134"/><path d="m22 52.6s4.2 4.8 7.6 5.7c3.8 1.1 11 .1 11 .1s2.2-8.2 2.8-9.4 2.8-1.1 3.2-3.8 1.8-15.5 0-17.7-11.3-7.7-16.7-1.2-2 17.3-2.4 19.9c-.3 2.7-5.5 6.4-5.5 6.4z" fill="#fbd7c7"/><path d="m27.2 47.9s6.3 2.3 10 1.6 6-4.4 6-4.4.1-5 1.2-6.8 1.6-.8 1.6-.8 2.3-4 2.1-6.8c-.2-3.7-3.8-9.6-13.7-7.1-7.7 2-8.9 10.1-8.8 13.5.1 3.5 1.6 10.8 1.6 10.8z" fill="#762c07"/><path d="m36.1 217.8c-.3 2.7-1 10.3 1.2 11.1 3.4 1.3 9.7-.8 12.8-1.8s11-3.2 11.3-5.8c.3-2.5-1.9-4.6-6.3-3.8-3.6.7-8 .4-8.7-1-.6-1.4-.6-1.4-.6-1.4z" fill="#2d3134"/><path d="m61.1 219.5v.5c-.3 2.7-8.5 4.9-11.6 6-3.1 1-9.6 3.2-13.1 1.9 0 0-.1 0-.1-.1.2.6.5 1 1 1.2 3.4 1.3 9.7-.8 12.8-1.8s11-3.2 11.3-5.8c.1-.8 0-1.4-.3-1.9z" opacity=".4"/><path d="m51.6 104.5s1.4 14.8 1.8 23.5c.5 12-1.4 30.2-2.5 41-1.1 11.2-1.5 25.5-1.3 32.9.2 6.4.6 15.6.6 15.6s.3 3.2-6.6 6c-3.6 1.5-7.7 2.2-8.5.9s-1.9-13.9-2-20.3-1.1-19.2.3-30.3-.8-18.2-2.5-26.1c-1.8-7.9-6.1-21.9-6.6-28.4s2.8-16.4 2.8-16.4z" fill="#06547a"/><path d="m57.7 64.4c-1.1.1-1.1 2.9-.2 6.1s1.1 5.1 2.6 4.8.6-5.6.2-6.9c-.4-1.4-1.2-4.2-2.6-4z" fill="#fbd7c7"/><path d="m23.3 51.3s-7.3-1.8-12.1 1c-2.8 2.8-4 6.4-1.2 26 1.2 8.6 3.4 19.4 2.1 30.1-.9 7.2-2.9 19-1.6 19.5 2.6 1.1 18.7 4.4 29.4 4.2 6.8-.2 14.9-1.8 15.5-2.3.5-.5-2.8-39.9-2.4-46.1s1.7-15.3-2.2-19-10.2-6-10.2-6-6.3.5-12.1-1.7-5.2-5.7-5.2-5.7z" fill="#f90"/><path d="m40.7 122.8c6.2-.1 12.8-1.3 14.3-1.9 0-.9-.4-5.9-.4-6.8-1.6.6-7.9 1.8-14 1.9-9.7.2-24.3-2-29.1-3.6-.2.9-.8 5.8-1 6.6 4.2 1.5 20.1 4.1 30.2 3.8z" fill="#fff"/><path d="m45.5 65.1c-6.5 2.3-4.6 10.1-3.8 14.1.7 3.7 7.4 24.1 12.5 30.7-.3-10.1-1.3-24.4-1-28.1.3-4.2 1.3-9.2.5-13.4-1.5-3-3.7-4.9-8.2-3.3z" opacity=".2"/><path d="m48.4 35.6c2.9-1 6.7-5.5 5.7-8.6-1-3-5.5-4.6-8.6-4.6-3 .2 2.9 13.2 2.9 13.2z" fill="#e5e5e5"/><path d="m48.4 35.6c2.9-1 6.7-5.5 5.7-8.6-1-3-5.5-4.6-8.6-4.6-3 .2 2.9 13.2 2.9 13.2z" opacity=".2"/><path d="m24.8 38.2c2.1 2.4 11.7 4.6 18.9.8s9.3-9.1 7.3-13.7c-2.7-6.4-15.2-9.6-22-3.7s-5.7 15-4.2 16.6z" fill="#e5e5e5"/><path d="m45.7 20.6c-4.9-2.1-11.4-2.3-15.7 1.4-3 2.6-4.6 6-5.2 8.9.4.2.8.3 1.2.4.6-2.9 2.3-6.4 5.2-8.9 4-3.3 9.8-3.4 14.5-1.8z" opacity=".2"/><path d="m32.1 23c-2.7 2.6-4 5.9-4.5 8.9.4.1.7.1 1.1.2.5-2.9 1.8-6.1 4.5-8.6 3.5-3.4 8.8-3.8 13.1-2.2-4.4-2.1-10.4-2-14.2 1.7z" opacity=".2"/><path d="m73.3 81.1s.8-1.7.6-4-.5-11.6-2.3-12.3-4.5-.3-4.2 4c.3 4.2-1.1 4.8-.6 7.1.6 2.3 2 3.7 2 3.7z" fill="#fbd7c7"/><path d="m44.4 63.5c-6.5 2.3-5.5 10.4-3.8 14.1s11.7 27.9 16.8 27.8 14.3-19.9 14.3-19.9l1.9-4.5-6.1-2.9-.9 2-7.4 7.5s-3.1-10.6-4-14.3c-1.3-5-4.3-12-10.8-9.8z" fill="#f90"/><g fill="#fff"><path d="m43.2 83.3 2.2 5.8s4-.9 6.5-2.2c4.6-2.4 5.8-4.5 5.8-4.5l-1.5-5.9s-3.2 2.6-6.8 4.3c-2.4 1.2-6.2 2.5-6.2 2.5z"/><path d="m33.2 209.2s1.9 1.1 7.5-.1 9.1-4.1 9.1-4.1l.2 5.6s-3.5 2.9-8 3.9c-4.5 1.1-8.3.7-8.3.7z"/></g></svg>