<svg enable-background="new 0 0 32 48" viewBox="0 0 32 48" xmlns="http://www.w3.org/2000/svg"><path d="m16 1-16 8v31l16 8 16-8v-31z" fill="#e5e5e5"/><path d="m16 0-16 8v2l16 8 16-8v-2z" fill="#baa794"/><path d="m31 40.5 1-.5v-24l-1 .5z" opacity=".2"/><path d="m16 48 1-.5v-24l-1 .5z" opacity=".2"/><path d="m32 13-16 8v-1l16-8z" opacity=".3"/><path d="m32 16-16 8v-1l16-8z" opacity=".3"/><path d="m32 40-16 8v-1l16-8z" opacity=".3"/><g fill="#fff"><path d="m32 12-16 8v-1l16-8z" opacity=".3"/><path d="m32 15-16 8v-1l16-8z" opacity=".3"/><path d="m28 37v-10c0-2.2-1.8-3.1-4-2s-4 3.8-4 6v10z"/></g><path d="m21 39.5 6-3v-9c0-1.7-1.3-2.3-3-1.5-1.7.8-3 2.8-3 4.5z" fill="#656565"/><path d="m21 31.5v-1l5-2.5v-1c0-.6-.2-1-.4-1.3.9.1 1.4.7 1.4 1.8v9l-6 3v-1l5-2.5v-3l-5 2.5v-1l5-2.5v-3z" fill="#262626" opacity=".45"/><path d="m32 40-16 8v-32l16-8z" opacity=".29"/><path d="m1 40.5-1-.5v-24l1 .5z" opacity=".2"/><path d="m16 48-1-.5v-24l1 .5z" opacity=".2"/><path d="m0 13 16 8v-1l-16-8z" opacity=".3"/><path d="m0 16 16 8v-1l-16-8z" opacity=".3"/><path d="m0 40 16 8v-1l-16-8z" opacity=".3"/><path d="m0 12 16 8v-1l-16-8z" fill="#fff" opacity=".3"/><path d="m0 15 16 8v-1l-16-8z" fill="#fff" opacity=".3"/><path d="m13 27.5-10-5v18l10 5z" fill="#fff"/><path d="m12 45-8-4v-17l8 4z" fill="#762c07"/><path d="m5 40.5v-16l-1-.5v17l8 4v-1z" opacity=".3"/><path d="m8 31-2-1v-1l2 1z" opacity=".3"/><path d="m11 32.5-2-1v-1l2 1z" opacity=".3"/><path d="m8 35-2-1v-1l2 1z" opacity=".3"/><path d="m11 36.5-2-1v-1l2 1z" opacity=".3"/><path d="m8 39-2-1v-1l2 1z" opacity=".3"/><path d="m11 40.5-2-1v-1l2 1z" opacity=".3"/><path d="m16 48-16-8v-32l16 8z" opacity=".11"/></svg>