<svg enable-background="new 0 0 64 64" viewBox="0 0 64 64" xmlns="http://www.w3.org/2000/svg"><path d="m0 16v32l32 16 2-1v-12.3c0-4.9 1.5-9.7 4-13.7l24 12 2-1v-32z" fill="#999"/><path d="m32 64-32-16v-32l32 16z" fill="#825012"/><path d="m32 64-32-16v-32l32 16z" opacity=".11"/><path d="m32 32v32l2-1v-12.3c0-9.6 5.4-18.4 14-22.7 6.4-3.2 14 1.5 14 8.7v12.3l2-1v-32z" opacity=".29"/><path d="m0 16v2l32 16 32-16v-2z" opacity=".3"/><path d="m32 0 32 16-32 16-32-16z" fill="#9c3"/><path d="m32 0 32 16-32 16-32-16z" fill="#9c3"/><path d="m26 36.4c.4.2.7 0 .7-.4s-.3-.9-.7-1.1-.7 0-.7.4c-.1.4.3.9.7 1.1zm-19.1-7.6c.4.2.7 0 .7-.4s-.3-.9-.7-1.1-.7 0-.7.4.3.9.7 1.1zm15.1 14.3c-.4-.2-.7 0-.7.4s.3.9.7 1.1.7 0 .7-.4c.1-.4-.3-.9-.7-1.1zm-.2-7.7c.4.2.7 0 .7-.4s-.3-.9-.7-1.1-.7 0-.7.4.3.9.7 1.1zm-3.9 17.5c-.4-.2-.7 0-.7.4s.3.9.7 1.1.7 0 .7-.4-.3-.9-.7-1.1zm3 2.1c-.1 0-.2 0-.2.1s.1.2.2.3c.1 0 .2 0 .2-.1s-.1-.2-.2-.3zm-6.1-8.1c-.1 0-.2 0-.2.1s.1.2.2.3c.1 0 .2 0 .2-.1 0-.2-.1-.3-.2-.3zm1.1 1c-.3-.2-.6 0-.6.3s.3.8.6.9c.3.2.6 0 .6-.3.1-.4-.2-.8-.6-.9zm10.2-5.4c-.3-.2-.6 0-.6.3s.3.8.6.9c.3.2.6 0 .6-.3s-.3-.7-.6-.9zm-20.5-8.9c-.3-.1-.6 0-.6.4 0 .3.3.8.6.9.3.2.6 0 .6-.3 0-.4-.3-.8-.6-1zm13.1 5.6c-.3-.2-.6 0-.6.3s.3.8.6.9c.3.2.6 0 .6-.3s-.3-.7-.6-.9zm-10.6-.9c-.1 0-.1 0-.1.1s.1.2.1.2c.1 0 .1 0 .1-.1 0 0-.1-.1-.1-.2zm9.1 4.3c-.1 0-.1 0-.1.1s.1.2.1.2c.1 0 .1 0 .1-.1s0-.2-.1-.2zm-5.3-4.6c-.4-.2-.7 0-.7.4s.3.9.7 1.1.7 0 .7-.4-.3-.9-.7-1.1zm-4-6.7c-.7-.4-1.4-.1-1.4.7s.6 1.7 1.4 2c.7.4 1.4.1 1.4-.7-.1-.7-.7-1.6-1.4-2zm9.3-1.1c-.3-.2-.6 0-.6.3s.3.8.6.9c.3.2.6 0 .6-.3.1-.3-.2-.7-.6-.9zm-1.7 5.9c-.2-.1-.4 0-.4.2s.2.5.4.6.4 0 .4-.2c-.1-.2-.2-.5-.4-.6zm-4.8-.4c-.1 0-.1 0-.1.1s.1.2.1.2c.1 0 .1 0 .1-.1.1-.1 0-.2-.1-.2zm-8.5 1.8c-.3-.2-.6 0-.6.3s.3.8.6.9c.3.2.6 0 .6-.3.1-.3-.2-.7-.6-.9zm-1.1 6.1c-.1 0-.1 0-.1.1s.1.2.1.2c.1 0 .1 0 .1-.1s0-.1-.1-.2zm9.3 2.2c-.4-.2-.7 0-.7.4s.3.9.7 1.1.7 0 .7-.4-.3-.9-.7-1.1zm-1.9-4.4c-.2-.1-.4 0-.4.2s.2.5.4.6.4 0 .4-.2-.2-.5-.4-.6zm-4.7-.4c-.1 0-.1 0-.1.1s.1.2.1.2c.1 0 .1 0 .1-.1s0-.2-.1-.2zm11.7-10.1c-.3-.2-.6 0-.6.3s.3.8.6.9c.3.2.6 0 .6-.3s-.3-.7-.6-.9zm8.2 6c0-.3-.2-.6-.5-.7s-.5 0-.5.2.2.6.5.7c.2.2.5.1.5-.2zm2.1 16.9c.2.1.4 0 .4-.2s-.2-.5-.4-.6-.4 0-.4.2c0 .3.2.5.4.6zm4.5 2.6c0-.4-.3-.9-.7-1.1s-.7 0-.7.4.3.9.7 1.1.7.1.7-.4zm-.5-19c-.3-.1-.5 0-.5.2s.2.6.5.7.5 0 .5-.2-.2-.6-.5-.7zm-27.8-11.3c-.3-.1-.5 0-.5.2s.2.6.5.7.5 0 .5-.2-.3-.6-.5-.7zm25.8 21.5c-.4-.2-.7 0-.7.4s.3.9.7 1.1.7 0 .7-.4-.2-.9-.7-1.1zm-6.6 4.5c-.2-.1-.4 0-.4.2s.2.5.4.6.4 0 .4-.2-.2-.5-.4-.6zm-7.5-9c-.2-.1-.4 0-.4.2s.2.5.4.6.4 0 .4-.2-.2-.5-.4-.6zm5.1 2.9c-.7-.4-1.4-.1-1.4.7 0 .7.6 1.7 1.4 2 .7.4 1.4.1 1.4-.7s-.6-1.7-1.4-2zm-16.8-14.8c-.1 0-.1 0-.1.1s.1.2.1.2c.1 0 .1 0 .1-.1s-.1-.2-.1-.2z" opacity=".3"/><path d="m48 28c-4.2 2.1-7.6 5.2-10 9l24 12v-12.3c0-7.2-7.6-11.9-14-8.7z" opacity=".11"/></svg>