<svg enable-background="new 0 0 56 64" viewBox="0 0 56 64" xmlns="http://www.w3.org/2000/svg"><g fill="#999"><path d="m22.6 30.9v1.4h28.3l.1-1.4z"/><path d="m22.6 33.2-.3 1.5 28.2 1.2.3-1.4z"/><path d="m22.1 35.6-.5 1.4 27.8 2.4.6-1.4z"/><path d="m21.2 37.8-.8 1.4 27.4 3.7.7-1.4z"/><path d="m19.9 40.1-1 1.3 26.6 4.9 1-1.3z"/><path d="m18.2 42.3-1.2 1.2 25.7 6 1.2-1.2z"/><path d="m16.2 44.4-1.4 1.2 24.5 7.1 1.4-1.2z"/><path d="m13.8 46.4-1.6 1.1 23.1 8.1 1.7-1.1z"/><path d="m11 48.2-1.8 1.1 21.7 9.1 1.8-1z"/><path d="m8 50-2 1 20 10 2-1z"/><path d="m7.7 13.7 1.8 1.1 21.7-9.1-1.7-1.1z"/><path d="m11.2 15.7 1.6 1.1 23.2-8.1-1.6-1.1z"/><path d="m14.4 17.7 1.4 1.2 24.5-7.1-1.3-1.2z"/><path d="m17 19.7 1.2 1.3 25.7-6-1.2-1.3z"/><path d="m18.9 21.8 1 1.4 26.6-4.9-.9-1.3z"/><path d="m20.4 24 .8 1.4 27.3-3.7-.7-1.3z"/><path d="m21.6 26.3.5 1.4 27.8-2.5-.4-1.3z"/><path d="m22.3 28.6.2 1.4 28.2-1.2-.2-1.4z"/></g><path d="m24 60c15-7.5 22.8-17.2 22.8-28s-7.8-20.5-22.8-28l-2 1c14.3 7.2 22.8 17 22.8 27s-8.5 19.8-22.8 27z" fill="#656565"/><path d="m10 53c11.3-5.7 17-12.9 17-21s-5.7-15.3-17-21l-2 1c10.6 5.3 17 12.6 17 20s-6.4 14.7-17 20z" fill="#656565"/></svg>