<svg enable-background="new 0 0 48 72" viewBox="0 0 48 72" xmlns="http://www.w3.org/2000/svg"><path d="m6 6v42l2 1 2-1v-42l-2-1z" fill="#656565"/><path d="m8 7v42l2-1v-42z" opacity=".29"/><path d="m6 6v42l2 1v-42z" opacity=".11"/><path d="m8 16 30 15 2-1v-2l-30-15-2 1z" fill="#656565"/><path d="m38 29v2l-30-15v-2z" opacity=".11"/><path d="m8 9 30 15 2-1v-2l-30-15-2 1z" fill="#656565"/><path d="m38 22v2l-30-15v-2z" opacity=".11"/><path d="m38 22v42l2 1 2-1v-42l-2-1z" fill="#656565"/><path d="m40 23v42l2-1v-42z" opacity=".29"/><path d="m38 22v42l2 1v-42z" opacity=".11"/></svg>