<svg enable-background="new 0 0 80 240" viewBox="0 0 80 240" xmlns="http://www.w3.org/2000/svg"><path d="m68.1 226.4c15.9-10.7-.4-14.4-14.7-20.3-13.8-5.6-23.9-15-39.8-2.5-12.9 10.1 10.4 17.7 17.4 21.1 10.3 5.1 22.3 11.7 37.1 1.7z" opacity=".2"/><path d="m12.3 207.2s-2 4.2.5 5 5.3 0 9.6-2.2 12.1-4.2 13.9-7.4c1.7-3.1-2.8-6.1-9.6-4.2-6.8 1.8-5.5 1.5-5.5 1.5z" fill="#2d3134"/><path d="m36.4 200.1c0 .4-.1.8-.4 1.2-1.8 3.2-9.6 5.2-13.9 7.4s-7.2 3-9.6 2.2c-.4-.1-.7-.4-.9-.6 0 .9.3 1.7 1.2 2.1 2.5.8 5.3 0 9.6-2.2s12.1-4.2 13.9-7.4c.6-1 .5-1.9.1-2.7z" opacity=".4"/><path d="m28 98.5c.5.3 21.2 3.8 21.2 3.8s-7.4 36.6-11.5 47c-4.2 10.4-9.1 27.7-10.3 33.8-1.3 6.5-2.3 17.1-2.2 17.9.3 2-3.1 7.6-8.2 8.8s-6.5-.4-6.4-1.4c.3-5.7 1-23.7 3.3-34.3 1.6-7.4 5.1-15.7 5.4-19.8s-.7-27.5 2.7-39.9 6-15.9 6-15.9z" fill="#06547a"/><path d="m11.1 193.7s2.5.3 6-.9 9.3-3.8 9.3-3.8l-.6 4.9s-4.5 3.2-8.4 4.4-6.4.9-6.4.9z" fill="#fff"/><path d="m28 98.5c.5.3 21.2 3.8 21.2 3.8s-7.4 36.6-11.5 47c-4.2 10.4-9.1 27.7-10.3 33.8-1.3 6.5-2.3 17.1-2.2 17.9.3 2-3.1 7.6-8.2 8.8s-6.5-.4-6.4-1.4c.3-5.7 1-23.7 3.3-34.3 1.6-7.4 5.1-15.7 5.4-19.8s-.7-27.5 2.7-39.9 6-15.9 6-15.9z" opacity=".2"/><path d="m18.7 51.6c-3.5 1.9-4.5 10-5.5 17.5s-2.2 15.8-2 19.2 5.1 8.8 7.7 12.2 6.9 7.2 6.9 7.2l3.9-6.8s-8.8-12.9-9-13.7 3.9-17.9 4-19.4c0-1.3-6-16.2-6-16.2z" fill="#f90"/><path d="m12.9 68.8-.7 5.2 9.3 2.9-.5-5.9z" fill="#fff"/><path d="m18.7 51.6c-3.5 1.9-4.5 10-5.5 17.5s-2.2 15.8-2 19.2 5.1 8.8 7.7 12.2 6.9 7.2 6.9 7.2l3.9-6.8s-8.8-12.9-9-13.7 3.9-17.9 4-19.4c0-1.3-6-16.2-6-16.2z" opacity=".2"/><path d="m49.7 222.1s-3.2 7.1 1.4 8.1 8.6-3.3 10.9-4.7c2.4-1.5 8-5 9.5-6.9 1.1-1.3.8-6.6-5.8-5.8s-10.4 4.4-10.4 4.4z" fill="#2d3134"/><path d="m71 214c.5 1.2.3 2.6-.2 3.2-1.5 1.9-7.1 5.4-9.5 6.9s-6.3 5.7-10.9 4.7c-.6-.1-1.1-.4-1.4-.7.3 1 1 1.7 2.3 2 4.6 1 8.6-3.3 10.9-4.7 2.4-1.5 8-5 9.5-6.9.6-.8.7-3.1-.7-4.5z" opacity=".4"/><path d="m34.8 101.2s-2.7 11.2-1.8 17.5c.9 6.2 2.5 13.4 5.2 23.5 2.8 10.4 7.2 20.7 6.4 30.3s-.1 24.5.3 34.2c.4 11.4.9 20.6 3.6 21.3 4.3 1.2 10.5-3.3 11.7-6.2 1.2-3 1.8-4.4 1.2-7.5-.3-1.6-1.5-18.1-1.1-27.1s1.8-22.3 3-32.8.8-20.8-1.2-31.8c-2-11.1-2.3-20-2.3-20z" fill="#06547a"/><path d="m29 51.6s4.3 4.8 7.7 5.8c3.9 1.1 11.1.1 11.1.1s2.3-8.3 2.9-9.5 2.8-1.1 3.2-3.8 1.8-15.7 0-17.9c-1.8-2.3-11.4-7.8-16.9-1.3s-2 17.5-2.4 20.1-5.6 6.5-5.6 6.5z" fill="#fbd7c7"/><path d="m34.2 46.7s6.3 2.3 10.1 1.6c3.7-.7 6-4.4 6-4.4s.1-5 1.2-6.8 1.6-.8 1.6-.8 2.3-4 2.2-6.9c-.2-3.8-3.9-9.7-13.8-7.2-7.8 2-8.9 10.2-8.8 13.7s1.5 10.8 1.5 10.8z" fill="#762c07"/><path d="m30.5 50.2s-7.3-1.8-12.1 1c-2.8 2.8-4 6.4-1.2 26 1.2 8.6 5.2 19.1 3.9 29.8-.9 7.2-2.9 19-1.6 19.5 2.6 1.1 18.7 4.4 29.4 4.2 6.8-.2 14.9-1.8 15.5-2.3.5-.5-4.5-39.7-4.1-45.8.4-6.2 1.7-15.3-2.2-19s-10.2-6-10.2-6-6.3.5-12.1-1.7-5.3-5.7-5.3-5.7z" fill="#f90"/><path d="m48.9 121.6c6.2-.1 12.2-1.3 13.7-1.9 0-.9-.4-5.9-.4-6.8-1.6.6-7.3 1.7-13.4 1.9-9.7.2-23.3-3.6-28.1-5.2-.2.9-.8 5.8-1 6.6 4.2 1.3 19.1 5.6 29.2 5.4z" fill="#fff"/><path d="m54.1 35.2c2.9-1 6.7-5.5 5.7-8.6s-5.5-4.6-8.6-4.6c-3 .1 2.9 13.2 2.9 13.2z" fill="#e5e5e5"/><path d="m54.1 35.2c2.9-1 6.7-5.5 5.7-8.6s-5.5-4.6-8.6-4.6c-3 .1 2.9 13.2 2.9 13.2z" opacity=".2"/><path d="m30.5 37.8c2.1 2.4 11.7 4.6 18.9.8 7.1-3.8 9.4-9.1 7.4-13.8-2.7-6.4-15.2-9.6-22-3.7s-5.8 15-4.3 16.7z" fill="#e5e5e5"/><path d="m51.4 20.2c-4.9-2.1-11.4-2.3-15.7 1.4-3 2.6-4.6 6-5.2 8.9.4.2.8.3 1.2.4.6-2.9 2.3-6.4 5.2-8.9 4-3.4 9.8-3.4 14.5-1.8z" opacity=".2"/><path d="m37.8 22.5c-2.7 2.6-4 5.9-4.5 8.9.4.1.7.1 1.1.2.5-2.9 1.8-6.1 4.5-8.6 3.5-3.4 8.8-3.8 13.1-2.2-4.4-2.1-10.4-2-14.2 1.7z" opacity=".2"/><path d="m45.2 216.5s3.1 1.1 6.1.2c8.1-2.3 9.5-8 9.5-8l-.1-6.1s-5.6 8-9.2 8.5c-4.3.7-6.6-.1-6.6-.1z" fill="#fff"/><path d="m60.7 92.1c-.4-4.1-.7-7.5-.6-9.3.2-3.8 0-8.4-.5-12.5-1.2-3.9-3-5.3-7.3-5.4-8.5-.1-8.3 8.1-8.1 15.1.3 9.4.8 22 3.2 28.1s13.3 20.5 15.3 31c.3 1.4.8 2.9 1.2 3.9 0-4.7-.3-9.4-.9-14.2.7-.2 1.1-.3 1.2-.4.5-.4-2.3-22.6-3.5-36.3z" opacity=".2"/><path d="m62.6 124.1s-.4 3 .3 5.2 2.1 5.8 1.3 8.1-.9 5.5-.2 6.7c.7 1.1 4.9-4.1 5.1-5.9s1.1-7.7.5-9.9c-.6-2.3-2.4-7.7-2.4-7.7z" fill="#fbd7c7"/><path d="m62.4 125.4c1 0 4.8-1.8 5.4-3.1 1.2-2.6-3.6-10-5.5-13.7-1.5-2.9-3-10.1-3-10.1s.1-14.1.2-18.8c.1-4.5 1.9-16.7-6.9-16.8-8.6-.1-8.3 7.7-7.6 14.6s1.3 20.6 3.7 26.8 9.8 20.9 13.7 21.1z" fill="#f90"/><path d="m45.6 83.6s2.7 0 7.3-.6 6.6-1.8 6.6-1.8l.1 5.7s-1.7 1.2-6 1.8-7.6.7-7.6.7z" fill="#fff"/></svg>