<svg enable-background="new 0 0 128 80" viewBox="0 0 128 80" xmlns="http://www.w3.org/2000/svg"><path d="m88 13-82 41v2l34 17 82-41v-2zm-48 56-28-14 76-38 28 14z" fill="#656565"/><path d="m6 56 34 17v-2l-34-17z" opacity=".11"/><path d="m122 32-82 41v-2l82-41z" opacity=".29"/><path d="m12 55-2-1 78-39v2z" opacity=".29"/><path d="m118 30-2 1-28-14v-2z" opacity=".11"/><path d="m78.4 6.8c5.5 3 7.6 7.3 7.6 7.3l2 .9s-1.9-5.7-9.6-8.2z" fill="#656565"/><path d="m78.4 6.8c5.5 3 7.6 7.3 7.6 7.3l2 .9s-1.9-5.7-9.6-8.2z" opacity=".11"/><path d="m76.9 4c-6.3-2-17-1.6-30.8 5.2-30.3 15.2-40.1 44.8-40.1 44.8l2 1 2-1c2.8-8.5 13-29.5 38-42 32.4-16.1 40 3 40 3l2-1s-1.5-3.2-6.2-6.6c-1.2-.9-3.2-2.2-6.9-3.4z" fill="#656565"/><path d="m48 10.3c-32.4 16.1-40 44.7-40 44.7l2-1c2.8-8.5 13-29.5 38-42 32.4-16.1 40 3 40 3l2-1s-9.6-19.9-42-3.7z" opacity=".29"/><path d="m40 71c.9-3.2 9.6-29.6 40-44.7 13.8-6.9 23.4-7.2 30-5.2l-28-14.1c-1.9-1.1-4-2-4-2-6.6-1.9-16.2-1.6-30 5.2-30.4 15.2-40 44.8-40 44.8z" fill="#39c" opacity=".5"/><path d="m109.7 20.9-26.3-13.2c3.3 2.6 4.6 7.3 4.6 7.3l30 15h4s-3.2-6.7-12.3-9.1z" fill="#39c" opacity=".5"/><path d="m110.4 22.8c5.5 3 7.6 7.3 7.6 7.3l2 .9s-1.9-5.7-9.6-8.2z" fill="#656565"/><path d="m110.4 22.8c5.5 3 7.6 7.3 7.6 7.3l2 .9s-1.9-5.7-9.6-8.2z" opacity=".11"/><path d="m108.9 20c-6.3-2-17-1.6-30.8 5.2-30.3 15.2-40.1 44.8-40.1 44.8l2 1 2-1c2.8-8.5 13-29.5 38-42 32.4-16.1 40 3 40 3l2-1s-1.5-3.2-6.2-6.6c-1.2-.9-3.2-2.2-6.9-3.4z" fill="#656565"/><path d="m80 26.3c-32.4 16.1-40 44.7-40 44.7l2-1c2.8-8.5 13-29.5 38-42 32.4-16.1 40 3 40 3l2-1s-9.6-19.9-42-3.7z" opacity=".29"/></svg>