<svg enable-background="new 0 0 80 240" viewBox="0 0 80 240" xmlns="http://www.w3.org/2000/svg"><path d="m15.3 226.5c-12.3-8.3-.6-16.8 16.6-19.9 7.5-1.3 21-10.2 39.8 1.8 15.1 9.6-8 12.5-17.6 15.6-11.3 3.6-23.9 12.5-38.8 2.5z" opacity=".2"/><path d="m47.9 200.2 10.5 1.2s.2 1.8 2.1 3.8 10.1 6.4 11.7 7.6c2.8 2.1.9 5-1.5 5.4-2.6.4-6.1-.4-10.5-2-3.4-1.2-7.5-2.3-11.3-3.6-3.4-1.1-2.5-5.9-2-8s1-4.4 1-4.4z" fill="#2d3134"/><path d="m70.6 216.6c-2.7.4-6.5-.5-11.2-2.2-3.7-1.3-8-2.5-12-3.9-.3-.1-.5-.2-.7-.3.3 1 1 1.9 2.2 2.3 3.8 1.3 7.9 2.4 11.3 3.6 4.4 1.6 7.9 2.4 10.5 2 1.8-.3 3.2-1.9 2.8-3.5-.5 1-1.6 1.8-2.9 2z" opacity=".4"/><path d="m30 104 25.9-.4s4.5 19.8 3.6 31.4-.3 23.5-.4 33.4 3.4 36.5 2.9 36.9c-1.8 1.7-11 2.9-13.2 3s-4-.6-4-1.3-.1-16.5-.7-20.7c-.5-4-1.9-12.4-2.3-21.2-.4-9.7-1.8-18.1-2.9-22.7-1.3-4.5-8.9-38.4-8.9-38.4z" fill="#06547a"/><path d="m44.4 194.1.1 4.8s4.6 0 8.5-.7 8.2-1.9 8.2-1.9l-.5-5.1s-5 1.6-8 2.1c-3.7.6-8.3.8-8.3.8z" fill="#fff"/><path d="m30 104 25.9-.4s4.5 19.8 3.6 31.4-.3 23.5-.4 33.4 3.4 36.5 2.9 36.9c-1.8 1.7-11 2.9-13.2 3s-4-.6-4-1.3-.1-16.5-.7-20.7c-.5-4-1.9-12.4-2.3-21.2-.4-9.7-1.8-18.1-2.9-22.7-1.3-4.5-8.9-38.4-8.9-38.4z" opacity=".2"/><path d="m62.6 80.9s6.4 1.8 8.2 2.8 5.2 3 5 5.3-1.5 4.4-4.1 5c-2.6.7-3.6-.6-3.6-1.3s.3-2-.3-2.4-5.4-2-6.4-2.9c-.9-.8-2.4-2.6-2.4-2.6z" fill="#fbd7c7"/><path d="m52 63.7s6.8 10.8 8.1 12.7 3.3 4.4 3.3 4.4l-4.1 4.5-2.1-1.8s-6.8-6.5-7.8-7.1c-1.4-.8-1.9-11.6-1.9-11.6z" fill="#f90"/><path d="m52 63.7s6.8 10.8 8.1 12.7 3.3 4.4 3.3 4.4l-4.1 4.5-2.1-1.8s-6.8-6.5-7.8-7.1c-1.4-.8-1.9-11.6-1.9-11.6z" opacity=".2"/><path d="m27.5 45.9 10.3-2.9 7.1 1.7 3.2 62z" fill="#656565"/><path d="m14.7 208.3c.2.1 10.6 2.2 10.6 2.2s2.7 6 5.3 8.2c2.1 1.8 8 5.7 7.7 7.9s-6.3 4-11.9 1.1c-2.6-1.3-12.9-6.6-13.4-10.1-.6-4 1.7-9.3 1.7-9.3z" fill="#2d3134"/><path d="m26.4 225.9c-2.6-1.3-12.9-6.6-13.4-10.1 0-.2 0-.3-.1-.5-.1.8-.1 1.6.1 2.3.5 3.5 10.8 8.8 13.4 10.1 5.6 2.9 11.6 1.1 11.9-1.1 0-.3-.1-.7-.3-1.2-1.2 1.9-6.6 3.1-11.6.5z" opacity=".4"/><path d="m20.5 103.3 26 .8s-5.1 26.6-7.8 36.6c-2.7 9.9-6.5 23.5-7.4 28.4-.9 5-3.8 32.7-3.6 37.4s-.1 7.5-.4 8.5-14.2 2.6-15.8-.5c-.4-.8.1-35.5 1.9-43.1s1.5-21.9 1.4-29.1c-.4-26 5.7-39 5.7-39z" fill="#06547a"/><path d="m27.4 45.7s-9.7 4-13.4 7.5c-6.1 5.7-.7 19.3 3.2 30.8s-2.2 39.5-1.7 40.4c.8 1.6 24.1 5.1 29.2 1.7 2.4-1.6 3.1-27.3 2.1-35.9s-4.8-16.9-6.9-22c-1.8-4.5-12.5-22.5-12.5-22.5z" fill="#f90"/><path d="m58.7 69.1c.3 6.7-.6 25.2.6 34.9.5 3.9 3.3 19.4 2.6 20.2-1 1.1-10 3-11.5-.2-1.2-2.5-4.8-33-4.9-38.8-.1-5.7-1.6-39.8-1.6-39.8 2.8.7 9.7 2.2 11.8 6.5s2.7 10.6 3 17.2z" fill="#f90"/><path d="m49.1 117.6s6.2-.4 8.5-1 3.7-1.1 3.7-1.1l-.9-5.8-12 2z" fill="#fff"/><path d="m46.5 117.7s-4.3.6-11.6.3-18.4-2.2-18.4-2.2l.9-6.3s12.3 2.3 17.8 2.3 11.7.1 11.7.1z" fill="#fff"/><path d="m58.6 108.7-24.8-2.9 3.6-30.3 24.7 2.8z" fill="#2d3134"/><path d="m28.1 45.8s2.6-1.1 2.8-2.9c.2-1.9-5.6-9.2-.8-16s16.9-5.6 19 1.2 2.3 19.6.7 21c-2 1.7-5.6 1-5.6 1s-1.2 3.1-.9 4.9c.4 2.5-1.9 2.8-3.2 2.7-1.8-.2-9.5-4.9-12-11.9z" fill="#fbd7c7"/><path d="m30.1 41.2 1.5.9s-4-5.4-1.3-6.5 3.9 2.2 3.9 2.2 2-3.4 5-3.7c3.1-.3 11.4-2.2 11.2-4.8-.1-1-3.4-10-13.3-8.3s-10.2 9.9-9.6 13.2 2.6 7 2.6 7z" fill="#762c07"/><path d="m11.5 198.4-.1 5.4s5.4 1 9.5.6 7-1.4 7-1.4l.5-5.6s-3.7 1.1-8.2 1.3c-4 .2-8.7-.3-8.7-.3z" fill="#fff"/><path d="m54.2 31.3s2.8 1.2 2.8 2.1-8.3 4.5-14 3.9-16.1-3.5-16.7-5 .7-16.2 12.7-16.2c14.1 0 15.2 15.2 15.2 15.2z" fill="#e5e5e5"/><path d="m57 33.4c0 .9-8.3 4.5-14 3.9-4.6-.5-12.1-2.4-15.2-4 3.1 1.1 7.3 2.2 10.4 2.1 5.4-.2 14.2-2.8 16.1-4.1-.1 0 2.7 1.2 2.7 2.1z" opacity=".2"/><path d="m52.7 29.6-1.2.4c-.6-3.6-3.3-13.3-13.8-13.3-.6 0-1.2.1-1.8.1.9-.3 1.9-.4 3-.4 10.4 0 13.2 9.5 13.8 13.2z" opacity=".2"/><path d="m48.3 31.1c-.3-2.6-2-13.8-11.2-13.8-.5 0-1 .1-1.4.1.7-.3 1.5-.4 2.4-.4 9.1 0 11.2 10.9 11.5 13.6z" opacity=".2"/><path d="m45.8 101 .3-7.1-3.5-.2s-2.5-1.4-8.7-3.9c-4.8-2-8.2-2.8-8.2-2.8s.7-13.1 1.1-20.1-5.4-13.7-10.9-12.2c-3.7 1-3.4 4.1-3.5 8.1.2 6.1 3.4 13.8 5.9 21.4 1.7 5.2.7 12.1-.1 18.7 1.6.2 23.7-2 23.7-2z" opacity=".2"/><path d="m44.4 100.9s4.1.7 6.4 1.4c2.3.6 6.2.6 8.9.2s3.2-7.1.3-7.4-4.7-.5-4.7-.5 1.2-2.3 2.8-3.4c1.2-.8 1.6-1.3 1-2.2-.6-.8-3.8 1.7-6.3 2.9s-3.5.3-4.9 1.1c-1.4.7-3.5 1.2-3.5 1.2z" fill="#fbd7c7"/><path d="m15.9 54.6c5.4-1.5 10.2 3.1 9.8 10-.4 7-1 13.2-1.7 17.1-.5 3.1-1.2 7-1.2 7s3.6 1.2 8.7 2.2c5.5 1.1 10.2 2.3 10.2 2.3l3.3.8-.3 7.1-4.4.6s-8.7.3-16-.1-11.7-1.1-12.9-5.3-.9-17.9-.6-24.9-1.2-15.1 5.1-16.8z" fill="#f90"/><path d="m24.9 76.6-.9 6s-3.9.3-6.8.3-6.7-.4-6.7-.4l-.1-6.1s4 .6 7 .5 7.5-.3 7.5-.3z" fill="#fff"/></svg>