<svg enable-background="new 0 0 96 104" viewBox="0 0 96 104" xmlns="http://www.w3.org/2000/svg"><path d="m48 1-48 24v55l48 24 48-24v-55z" fill="#e5e5e5"/><path d="m48 0-48 24v2l48 24 48-24v-2z" fill="#baa794"/><path d="m1 80.5-1-.5v-24l1 .5z" opacity=".2"/><path d="m48 104-1-.5v-24l1 .5z" opacity=".2"/><path d="m33 96.5-2-1v-24l2 1z" opacity=".2"/><path d="m0 56 48 24v-1l-48-24z" opacity=".3"/><path d="m0 80 48 24v-1l-48-24z" opacity=".3"/><path d="m17 88.5-2-1v-24l2 1z" opacity=".2"/><path d="m1 56.5-1-.5v-24l1 .5z" opacity=".2"/><path d="m48 80-1-.5v-24l1 .5z" opacity=".2"/><path d="m33 72.5-2-1v-24l2 1z" opacity=".2"/><path d="m17 64.5-2-1v-24l2 1z" opacity=".2"/><path d="m4 77v-10c0-2.2 1.8-3.1 4-2s4 3.8 4 6v10z" fill="#fff"/><path d="m11 79.5-6-3v-9c0-1.7 1.3-2.3 3-1.5 1.7.8 3 2.8 3 4.5z" fill="#656565"/><path d="m11 79.5-6-3v-9z" fill="#fff" opacity=".2"/><path d="m11 71.5v-1l-5-2.5v-1c0-.6.2-1 .4-1.3-.8.1-1.4.7-1.4 1.8v9l6 3v-1l-5-2.5v-3l5 2.5v-1l-5-2.5v-3z" fill="#262626" opacity=".45"/><path d="m36 93v-10c0-2.2 1.8-3.1 4-2s4 3.8 4 6v10z" fill="#fff"/><path d="m43 95.5-6-3v-9c0-1.7 1.3-2.3 3-1.5 1.7.8 3 2.8 3 4.5z" fill="#656565"/><path d="m43 87.5v-1l-5-2.5v-1c0-.6.2-1 .4-1.3-.9.1-1.4.7-1.4 1.8v9l6 3v-1l-5-2.5v-3l5 2.5v-1l-5-2.5v-3z" fill="#262626" opacity=".45"/><path d="m0 29 48 24v-1l-48-24z" opacity=".3"/><path d="m0 32 48 24v-1l-48-24z" opacity=".3"/><g fill="#fff"><path d="m0 28 48 24v-1l-48-24z" opacity=".3"/><path d="m0 31 48 24v-1l-48-24z" opacity=".3"/><path d="m20 61v-10c0-2.2 1.8-3.1 4-2s4 3.8 4 6v10z"/></g><path d="m27 63.5-6-3v-9c0-1.7 1.3-2.3 3-1.5 1.7.8 3 2.8 3 4.5z" fill="#656565"/><path d="m27 63.5-6-3v-9z" fill="#fff" opacity=".2"/><path d="m27 55.5v-1l-5-2.5v-1c0-.6.2-1 .4-1.3-.9.1-1.4.7-1.4 1.8v9l6 3v-1l-5-2.5v-3l5 2.5v-1l-5-2.5v-3z" fill="#262626" opacity=".45"/><path d="m4 53v-10c0-2.2 1.8-3.1 4-2s4 3.8 4 6v10z" fill="#fff"/><path d="m11 55.5-6-3v-9c0-1.7 1.3-2.3 3-1.5 1.7.8 3 2.8 3 4.5z" fill="#656565"/><path d="m11 55.5-6-3v-9z" fill="#fff" opacity=".2"/><path d="m11 47.5v-1l-5-2.5v-1c0-.6.2-1 .4-1.3-.8.1-1.4.7-1.4 1.8v9l6 3v-1l-5-2.5v-3l5 2.5v-1l-5-2.5v-3z" fill="#262626" opacity=".45"/><path d="m36 69v-10c0-2.2 1.8-3.1 4-2s4 3.8 4 6v10z" fill="#fff"/><path d="m43 71.5-6-3v-9c0-1.7 1.3-2.3 3-1.5 1.7.8 3 2.8 3 4.5z" fill="#656565"/><path d="m43 63.5v-1l-5-2.5v-1c0-.6.2-1 .4-1.3-.9.1-1.4.7-1.4 1.8v9l6 3v-1l-5-2.5v-3l5 2.5v-1l-5-2.5v-3z" fill="#262626" opacity=".45"/><path d="m29 75.5-10-5v18l10 5z" fill="#fff"/><path d="m28 93-8-4v-17l8 4z" fill="#762c07"/><path d="m21 88.5v-16l-1-.5v17l8 4v-1z" opacity=".3"/><path d="m24 79-2-1v-1l2 1z" opacity=".3"/><path d="m27 80.5-2-1v-1l2 1z" opacity=".3"/><path d="m24 83-2-1v-1l2 1z" opacity=".3"/><path d="m27 84.5-2-1v-1l2 1z" opacity=".3"/><path d="m24 87-2-1v-1l2 1z" opacity=".3"/><path d="m27 88.5-2-1v-1l2 1z" opacity=".3"/><path d="m48 104-48-24v-56l48 24z" opacity=".11"/><path d="m95 80.5 1-.5v-24l-1 .5z" opacity=".2"/><path d="m48 104 1-.5v-24l-1 .5z" opacity=".2"/><path d="m63 96.5 2-1v-24l-2 1z" opacity=".2"/><path d="m96 56-48 24v-1l48-24z" opacity=".3"/><path d="m96 80-48 24v-1l48-24z" opacity=".3"/><path d="m76 85v-10c0-2.2-1.8-3.1-4-2s-4 3.8-4 6v10z" fill="#fff"/><path d="m69 87.5 6-3v-9c0-1.7-1.3-2.3-3-1.5-1.7.8-3 2.8-3 4.5z" fill="#656565"/><path d="m69 87.5 6-3v-9z" fill="#fff" opacity=".2"/><path d="m69 79.5v-1l5-2.5v-1c0-.6-.2-1-.4-1.3.9.1 1.4.7 1.4 1.8v9l-6 3v-1l5-2.5v-3l-5 2.5v-1l5-2.5v-3z" fill="#262626" opacity=".45"/><path d="m79 88.5 2-1v-24l-2 1z" opacity=".2"/><path d="m95 56.5 1-.5v-24l-1 .5z" opacity=".2"/><path d="m48 80 1-.5v-24l-1 .5z" opacity=".2"/><path d="m63 72.5 2-1v-24l-2 1z" opacity=".2"/><path d="m79 64.5 2-1v-24l-2 1z" opacity=".2"/><path d="m92 77v-10c0-2.2-1.8-3.1-4-2s-4 3.8-4 6v10z" fill="#fff"/><path d="m85 79.5 6-3v-9c0-1.7-1.3-2.3-3-1.5-1.7.8-3 2.8-3 4.5z" fill="#656565"/><path d="m85 79.5 6-3v-9z" fill="#fff" opacity=".2"/><path d="m85 71.5v-1l5-2.5v-1c0-.6-.2-1-.4-1.3.9.1 1.4.7 1.4 1.8v9l-6 3v-1l5-2.5v-3l-5 2.5v-1l5-2.5v-3z" fill="#262626" opacity=".45"/><path d="m60 93v-10c0-2.2-1.8-3.1-4-2s-4 3.8-4 6v10z" fill="#fff"/><path d="m53 95.5 6-3v-9c0-1.7-1.3-2.3-3-1.5-1.7.8-3 2.8-3 4.5z" fill="#656565"/><path d="m53 87.5v-1l5-2.5v-1c0-.6-.2-1-.4-1.3.9.1 1.4.7 1.4 1.8v9l-6 3v-1l5-2.5v-3l-5 2.5v-1l5-2.5v-3z" fill="#262626" opacity=".45"/><path d="m96 29-48 24v-1l48-24z" opacity=".3"/><path d="m96 32-48 24v-1l48-24z" opacity=".3"/><path d="m96 28-48 24v-1l48-24z" fill="#fff" opacity=".3"/><path d="m96 31-48 24v-1l48-24z" fill="#fff" opacity=".3"/><path d="m76 61v-10c0-2.2-1.8-3.1-4-2s-4 3.8-4 6v10z" fill="#fff"/><path d="m69 63.5 6-3v-9c0-1.7-1.3-2.3-3-1.5-1.7.8-3 2.8-3 4.5z" fill="#656565"/><path d="m69 63.5 6-3v-9z" fill="#fff" opacity=".2"/><path d="m69 55.5v-1l5-2.5v-1c0-.6-.2-1-.4-1.3.9.1 1.4.7 1.4 1.8v9l-6 3v-1l5-2.5v-3l-5 2.5v-1l5-2.5v-3z" fill="#262626" opacity=".45"/><path d="m92 53v-10c0-2.2-1.8-3.1-4-2s-4 3.8-4 6v10z" fill="#fff"/><path d="m85 55.5 6-3v-9c0-1.7-1.3-2.3-3-1.5-1.7.8-3 2.8-3 4.5z" fill="#656565"/><path d="m85 55.5 6-3v-9z" fill="#fff" opacity=".2"/><path d="m85 47.5v-1l5-2.5v-1c0-.6-.2-1-.4-1.3.9.1 1.4.7 1.4 1.8v9l-6 3v-1l5-2.5v-3l-5 2.5v-1l5-2.5v-3z" fill="#262626" opacity=".45"/><path d="m60 69v-10c0-2.2-1.8-3.1-4-2s-4 3.8-4 6v10z" fill="#fff"/><path d="m53 71.5 6-3v-9c0-1.7-1.3-2.3-3-1.5-1.7.8-3 2.8-3 4.5z" fill="#656565"/><path d="m53 63.5v-1l5-2.5v-1c0-.6-.2-1-.4-1.3.9.1 1.4.7 1.4 1.8v9l-6 3v-1l5-2.5v-3l-5 2.5v-1l5-2.5v-3z" fill="#262626" opacity=".45"/><path d="m96 80-48 24v-56l48-24z" opacity=".29"/><path d="m17 67-8 4v2l14 7 8-4v-2z" fill="#baa794"/><path d="m31 76-8 4v-2l8-4z" opacity=".29"/><path d="m23 80-14-7v-2l14 7z" opacity=".11"/></svg>