<svg enable-background="new 0 0 80 64" viewBox="0 0 80 64" xmlns="http://www.w3.org/2000/svg"><path d="m77 51-58-29-16 8 58 29z" opacity=".2"/><path d="m75.3 46.1c-.6-.3-1.2-.4-1.6-.2l-.7.4c-.5.2-.7.7-.7 1.3 0 1.3 1.1 2.9 2.4 3.5.6.3 1.2.4 1.7.1 0 0 .7-.3.8-.4.4-.2.6-.7.6-1.3-.1-1.1-1.2-2.7-2.5-3.4z" fill="#2d3134"/><path d="m76.3 51.3c.2-.1.7-.3.7-.3.4-.2.6-.7.6-1.3 0-.5-.2-1.1-.5-1.6l-.7.3c.3.5.5 1.1.5 1.6.1.7-.2 1.1-.6 1.3z" opacity=".29"/><path d="m76.4 49.7c0 1-.8 1.4-1.8.9s-1.8-1.7-1.8-2.7.8-1.4 1.8-.9 1.8 1.7 1.8 2.7z" opacity=".5"/><path d="m75.5 49.1c0 .4-.3.6-.7.4s-.7-.7-.7-1.1.3-.6.7-.4.7.7.7 1.1z" fill="#2d3134"/><path d="m75.5 49.1c0 .4-.3.6-.7.4s-.7-.7-.7-1.1.3-.6.7-.4.7.7.7 1.1z" opacity=".29"/><path d="m75.4 49.2c0 .4-.3.6-.7.4s-.7-.7-.7-1.1.3-.6.7-.4c.3.2.7.7.7 1.1z" fill="#2d3134"/><path d="m77 50c0 1.3-1.1 1.8-2.4 1.2s-2.4-2.2-2.4-3.5 1.1-1.8 2.4-1.2 2.4 2.2 2.4 3.5z" opacity=".11"/><path d="m15.4 30c-.6-.3-1.2-.4-1.6-.2l-.7.3c-.5.2-.7.7-.7 1.3 0 1.3 1.1 2.9 2.4 3.5.6.3 1.2.4 1.7.1 0 0 .7-.3.8-.4.4-.2.6-.7.6-1.3-.2-1-1.2-2.6-2.5-3.3z" fill="#2d3134"/><path d="m16.4 35.2c.2-.1.7-.3.7-.4.4-.2.6-.7.6-1.3 0-.5-.2-1.1-.5-1.6l-.7.3c.3.5.5 1.1.5 1.6 0 .8-.2 1.2-.6 1.4z" opacity=".29"/><path d="m16.4 33.6c0 1-.8 1.4-1.8.9s-1.8-1.7-1.8-2.7.8-1.4 1.8-.9c1.1.5 1.8 1.7 1.8 2.7z" opacity=".5"/><path d="m15.6 33c0 .4-.3.6-.7.4s-.7-.7-.7-1.1.3-.6.7-.4c.3.2.7.7.7 1.1z" fill="#2d3134"/><path d="m15.6 33c0 .4-.3.6-.7.4s-.7-.7-.7-1.1.3-.6.7-.4c.3.2.7.7.7 1.1z" opacity=".29"/><path d="m15.4 33.1c0 .4-.3.6-.7.4s-.7-.7-.7-1.1.3-.6.7-.4.7.7.7 1.1z" fill="#2d3134"/><path d="m17 33.9c0 1.3-1.1 1.8-2.4 1.2s-2.4-2.2-2.4-3.5 1.1-1.8 2.4-1.2 2.4 2.2 2.4 3.5z" opacity=".11"/><path d="m7.4 26c-.6-.3-1.2-.4-1.6-.2l-.7.3c-.5.2-.7.7-.7 1.3 0 1.3 1.1 2.9 2.4 3.5.6.3 1.2.4 1.7.1 0 0 .7-.3.8-.4.4-.2.6-.7.6-1.3-.2-1-1.2-2.6-2.5-3.3z" fill="#2d3134"/><path d="m8.4 31.2c.2-.1.7-.3.7-.4.4-.2.6-.7.6-1.3 0-.5-.2-1.1-.5-1.6l-.7.3c.4.6.5 1.2.5 1.7 0 .7-.2 1.1-.6 1.3z" opacity=".29"/><path d="m8.4 29.6c0 1-.8 1.4-1.8.9s-1.8-1.7-1.8-2.7.8-1.4 1.8-.9c1.1.5 1.8 1.7 1.8 2.7z" opacity=".5"/><path d="m7.6 29c0 .4-.3.6-.7.4s-.7-.7-.7-1.1.3-.6.7-.4c.3.2.7.7.7 1.1z" fill="#2d3134"/><path d="m7.6 29c0 .4-.3.6-.7.4s-.7-.7-.7-1.1.3-.6.7-.4c.3.2.7.7.7 1.1z" opacity=".29"/><path d="m7.4 29.1c0 .4-.3.6-.7.4s-.7-.7-.7-1.1.3-.6.7-.4.7.7.7 1.1z" fill="#2d3134"/><path d="m9 29.9c0 1.3-1.1 1.8-2.4 1.2s-2.4-2.2-2.4-3.5 1.1-1.8 2.4-1.2 2.4 2.2 2.4 3.5z" opacity=".11"/><path d="m5 26.5v1.5l1 .5 2 2.5 4 2 2-.5 1 .5 2-1v-1.5l-2 1z" fill="#2d3134"/><path d="m5 26.5v1.5l1 .5 2 2.5 4 2 2-.5 1 .5v-1.5z" opacity=".11"/><path d="m17 32v-1.5l-2 1v1.5z" opacity=".29"/><path d="m61.4 53c-.6-.3-1.2-.4-1.6-.2l-.7.3c-.5.2-.7.7-.7 1.3 0 1.3 1.1 2.9 2.4 3.5.6.3 1.2.4 1.7.1 0 0 .7-.3.8-.4.4-.2.6-.7.6-1.3-.2-1-1.2-2.6-2.5-3.3z" fill="#2d3134"/><path d="m62.4 58.2c.2-.1.7-.3.7-.4.4-.2.6-.7.6-1.3 0-.5-.2-1.1-.5-1.6l-.7.3c.3.5.5 1.1.5 1.6 0 .8-.2 1.2-.6 1.4z" opacity=".29"/><path d="m62.4 56.6c0 1-.8 1.4-1.8.9s-1.8-1.7-1.8-2.7.8-1.4 1.8-.9c1.1.5 1.8 1.7 1.8 2.7z" opacity=".5"/><path d="m61.6 56c0 .4-.3.6-.7.4s-.7-.7-.7-1.1.3-.6.7-.4c.3.2.7.7.7 1.1z" fill="#2d3134"/><path d="m61.6 56c0 .4-.3.6-.7.4s-.7-.7-.7-1.1.3-.6.7-.4c.3.2.7.7.7 1.1z" opacity=".29"/><path d="m61.4 56.1c0 .4-.3.6-.7.4s-.7-.7-.7-1.1.3-.6.7-.4.7.7.7 1.1z" fill="#2d3134"/><path d="m63 56.9c0 1.3-1.1 1.8-2.4 1.2s-2.4-2.2-2.4-3.5 1.1-1.8 2.4-1.2 2.4 2.2 2.4 3.5z" opacity=".11"/><path d="m53.4 49c-.6-.3-1.2-.4-1.6-.2l-.7.3c-.5.2-.7.7-.7 1.3 0 1.3 1.1 2.9 2.4 3.5.6.3 1.2.4 1.7.1 0 0 .7-.3.8-.4.4-.2.6-.7.6-1.3-.2-1-1.2-2.6-2.5-3.3z" fill="#2d3134"/><path d="m54.4 54.2c.2-.1.7-.3.7-.4.4-.2.6-.7.6-1.3 0-.5-.2-1.1-.5-1.6l-.7.3c.3.5.5 1.1.5 1.6 0 .8-.2 1.2-.6 1.4z" opacity=".29"/><path d="m54.4 52.6c0 1-.8 1.4-1.8.9s-1.8-1.7-1.8-2.7.8-1.4 1.8-.9c1.1.5 1.8 1.7 1.8 2.7z" opacity=".5"/><path d="m53.6 52c0 .4-.3.6-.7.4s-.7-.7-.7-1.1.3-.6.7-.4c.3.2.7.7.7 1.1z" fill="#2d3134"/><path d="m53.6 52c0 .4-.3.6-.7.4s-.7-.7-.7-1.1.3-.6.7-.4c.3.2.7.7.7 1.1z" opacity=".29"/><path d="m53.4 52.1c0 .4-.3.6-.7.4s-.7-.7-.7-1.1.3-.6.7-.4.7.7.7 1.1z" fill="#2d3134"/><path d="m55 52.9c0 1.3-1.1 1.8-2.4 1.2s-2.4-2.2-2.4-3.5 1.1-1.8 2.4-1.2 2.4 2.2 2.4 3.5z" opacity=".11"/><path d="m51 49.5v1.5l1 .5 2 2.5 4 2 2-.5 1 .5 2-1v-1.5l-2 1z" fill="#2d3134"/><path d="m51 49.5v1.5l1 .5 2 2.5 4 2 2-.5 1 .5v-1.5z" opacity=".11"/><path d="m63 55v-1.5l-2 1v1.5z" opacity=".29"/><path d="m16 16-14 7v2l14 7 4 5 28 14 4-1 12 6 14-7v-2z" fill="#656565"/><path d="m2 23v2l14 7 4 5 28 14 4-1 12 6v-2z" opacity=".11"/><path d="m78 47v2l-14 7v-2z" opacity=".29"/><path d="m21 33.7-1-.5v2.5l1 .5z" opacity=".15"/><path d="m23 34.7-1-.5v2.5l1 .5z" opacity=".15"/><path d="m25 35.7-1-.5v2.5l1 .5z" opacity=".15"/><path d="m27 36.7-1-.5v2.5l1 .5z" opacity=".15"/><path d="m29 37.7-1-.5v2.5l1 .5z" opacity=".15"/><path d="m31 38.7-1-.5v2.5l1 .5z" opacity=".15"/><path d="m33 39.7-1-.5v2.5l1 .5z" opacity=".15"/><path d="m35 40.7-1-.5v2.5l1 .5z" opacity=".15"/><path d="m37 41.7-1-.5v2.5l1 .5z" opacity=".15"/><path d="m39 42.7-1-.5v2.5l1 .5z" opacity=".15"/><path d="m41 43.7-1-.5v2.5l1 .5z" opacity=".15"/><path d="m43 44.7-1-.5v2.5l1 .5z" opacity=".15"/><path d="m45 45.7-1-.5v2.5l1 .5z" opacity=".15"/><path d="m47 46.7-1-.5v2.5l1 .5z" opacity=".15"/><path d="m49 47.7-1-.5v2.5l1 .5z" opacity=".15"/><path d="m72 50-2 1v2l2 1 2-1v-2z" fill="#656565"/><path d="m70 51v2l2 1v-2z" opacity=".11"/><path d="m74 51v2l-2 1v-2z" opacity=".29"/><path d="m16 5-14 7v11l62 31 14-7v-11z" fill="#cc291f"/><path d="m2 12v11l62 31v-11z" opacity=".11"/><path d="m78 36v11l-14 7v-11z" opacity=".29"/><path d="m78 45-14 7v-1l14-7z" opacity=".15"/><path d="m78 42-14 7v-1l14-7z" opacity=".15"/><path d="m78 39-14 7v-1l14-7z" opacity=".15"/><path d="m9 15.5-1-.5v11l1 .5z" opacity=".15"/><path d="m17 19.5-1-.5v11l1 .5z" opacity=".15"/><path d="m25 23.5-1-.5v11l1 .5z" opacity=".15"/><path d="m33 27.5-1-.5v11l1 .5z" opacity=".15"/><path d="m41 31.5-1-.5v11l1 .5z" opacity=".15"/><path d="m49 35.5-1-.5v11l1 .5z" opacity=".15"/><path d="m57 39.5-1-.5v11l1 .5z" opacity=".15"/><path d="m4 12 12-6v12z" opacity=".29"/><path d="m76 36-60-30v12l48 24z" opacity=".11"/><path d="m16 6-12 6 60 30 12-6z" opacity=".2"/></svg>