<svg enable-background="new 0 0 80 64" viewBox="0 0 80 64" xmlns="http://www.w3.org/2000/svg"><path d="m77 51-58-29-16 8 58 29z" opacity=".2"/><path d="m15.4 30c-.6-.3-1.2-.4-1.6-.2l-.7.3c-.5.2-.7.7-.7 1.3 0 1.3 1.1 2.9 2.4 3.5.6.3 1.2.4 1.7.1 0 0 .7-.3.8-.4.4-.2.6-.7.6-1.3-.2-1-1.2-2.6-2.5-3.3z" fill="#2d3134"/><path d="m16.4 35.2c.2-.1.7-.3.7-.4.4-.2.6-.7.6-1.3 0-.5-.2-1.1-.5-1.6l-.7.3c.3.5.5 1.1.5 1.6 0 .8-.2 1.2-.6 1.4z" opacity=".29"/><path d="m16.4 33.6c0 1-.8 1.4-1.8.9s-1.8-1.7-1.8-2.7.8-1.4 1.8-.9c1.1.5 1.8 1.7 1.8 2.7z" opacity=".5"/><path d="m15.6 33c0 .4-.3.6-.7.4s-.7-.7-.7-1.1.3-.6.7-.4c.3.2.7.7.7 1.1z" fill="#2d3134"/><path d="m15.6 33c0 .4-.3.6-.7.4s-.7-.7-.7-1.1.3-.6.7-.4c.3.2.7.7.7 1.1z" opacity=".29"/><path d="m15.4 33.1c0 .4-.3.6-.7.4s-.7-.7-.7-1.1.3-.6.7-.4.7.7.7 1.1z" fill="#2d3134"/><path d="m17 33.9c0 1.3-1.1 1.8-2.4 1.2s-2.4-2.2-2.4-3.5 1.1-1.8 2.4-1.2 2.4 2.2 2.4 3.5z" opacity=".11"/><path d="m7.4 26c-.6-.3-1.2-.4-1.6-.2l-.7.3c-.5.2-.7.7-.7 1.3 0 1.3 1.1 2.9 2.4 3.5.6.3 1.2.4 1.7.1 0 0 .7-.3.8-.4.4-.2.6-.7.6-1.3-.2-1-1.2-2.6-2.5-3.3z" fill="#2d3134"/><path d="m8.4 31.2c.2-.1.7-.3.7-.4.4-.2.6-.7.6-1.3 0-.5-.2-1.1-.5-1.6l-.7.3c.4.6.5 1.2.5 1.7 0 .7-.2 1.1-.6 1.3z" opacity=".29"/><path d="m8.4 29.6c0 1-.8 1.4-1.8.9s-1.8-1.7-1.8-2.7.8-1.4 1.8-.9c1.1.5 1.8 1.7 1.8 2.7z" opacity=".5"/><path d="m7.6 29c0 .4-.3.6-.7.4s-.7-.7-.7-1.1.3-.6.7-.4c.3.2.7.7.7 1.1z" fill="#2d3134"/><path d="m7.6 29c0 .4-.3.6-.7.4s-.7-.7-.7-1.1.3-.6.7-.4c.3.2.7.7.7 1.1z" opacity=".29"/><path d="m7.4 29.1c0 .4-.3.6-.7.4s-.7-.7-.7-1.1.3-.6.7-.4.7.7.7 1.1z" fill="#2d3134"/><path d="m9 29.9c0 1.3-1.1 1.8-2.4 1.2s-2.4-2.2-2.4-3.5 1.1-1.8 2.4-1.2 2.4 2.2 2.4 3.5z" opacity=".11"/><path d="m5 26.5v1.5l1 .5 2 2.5 4 2 2-.5 1 .5 2-1v-1.5l-2 1z" fill="#2d3134"/><path d="m5 26.5v1.5l1 .5 2 2.5 4 2 2-.5 1 .5v-1.5z" opacity=".11"/><path d="m17 32v-1.5l-2 1v1.5z" opacity=".29"/><path d="m57.4 51c-.6-.3-1.2-.4-1.6-.2l-.7.3c-.5.2-.7.7-.7 1.3 0 1.3 1.1 2.9 2.4 3.5.6.3 1.2.4 1.7.1 0 0 .7-.3.8-.4.4-.2.6-.7.6-1.3-.2-1-1.2-2.6-2.5-3.3z" fill="#2d3134"/><path d="m58.4 56.2c.2-.1.7-.3.7-.4.4-.2.6-.7.6-1.3 0-.5-.2-1.1-.5-1.6l-.7.3c.3.5.5 1.1.5 1.6 0 .8-.2 1.2-.6 1.4z" opacity=".29"/><path d="m58.4 54.6c0 1-.8 1.4-1.8.9s-1.8-1.7-1.8-2.7.8-1.4 1.8-.9c1.1.5 1.8 1.7 1.8 2.7z" opacity=".5"/><path d="m57.6 54c0 .4-.3.6-.7.4s-.7-.7-.7-1.1.3-.6.7-.4c.3.2.7.7.7 1.1z" fill="#2d3134"/><path d="m57.6 54c0 .4-.3.6-.7.4s-.7-.7-.7-1.1.3-.6.7-.4c.3.2.7.7.7 1.1z" opacity=".29"/><path d="m57.4 54.1c0 .4-.3.6-.7.4s-.7-.7-.7-1.1.3-.6.7-.4.7.7.7 1.1z" fill="#2d3134"/><path d="m59 54.9c0 1.3-1.1 1.8-2.4 1.2s-2.4-2.2-2.4-3.5 1.1-1.8 2.4-1.2 2.4 2.2 2.4 3.5z" opacity=".11"/><path d="m32 26-14 7v2l28 14 14-7v-2z" fill="#656565"/><path d="m18 33v2l28 14v-2z" opacity=".11"/><path d="m60 40v2l-14 7v-2z" opacity=".29"/><path d="m49.4 47c-.6-.3-1.2-.4-1.6-.2l-.7.3c-.5.2-.7.7-.7 1.3 0 1.3 1.1 2.9 2.4 3.5.6.3 1.2.4 1.7.1 0 0 .7-.3.8-.4.4-.2.6-.7.6-1.3-.2-1-1.2-2.6-2.5-3.3z" fill="#2d3134"/><path d="m50.4 52.2c.2-.1.7-.3.7-.4.4-.2.6-.7.6-1.3 0-.5-.2-1.1-.5-1.6l-.7.3c.3.5.5 1.1.5 1.6 0 .8-.2 1.2-.6 1.4z" opacity=".29"/><path d="m50.4 50.6c0 1-.8 1.4-1.8.9s-1.8-1.7-1.8-2.7.8-1.4 1.8-.9c1.1.5 1.8 1.7 1.8 2.7z" opacity=".5"/><path d="m49.6 50c0 .4-.3.6-.7.4s-.7-.7-.7-1.1.3-.6.7-.4c.3.2.7.7.7 1.1z" fill="#2d3134"/><path d="m49.6 50c0 .4-.3.6-.7.4s-.7-.7-.7-1.1.3-.6.7-.4c.3.2.7.7.7 1.1z" opacity=".29"/><path d="m49.4 50.1c0 .4-.3.6-.7.4s-.7-.7-.7-1.1.3-.6.7-.4.7.7.7 1.1z" fill="#2d3134"/><path d="m51 50.9c0 1.3-1.1 1.8-2.4 1.2s-2.4-2.2-2.4-3.5 1.1-1.8 2.4-1.2 2.4 2.2 2.4 3.5z" opacity=".11"/><path d="m47 47.5v1.5l1 .5 2 2.5 4 2 2-.5 1 .5 2-1v-1.5l-2 1z" fill="#2d3134"/><path d="m47 47.5v1.5l1 .5 2 2.5 4 2 2-.5 1 .5v-1.5z" opacity=".11"/><path d="m59 53v-1.5l-2 1v1.5z" opacity=".29"/><path d="m16 16-14 7v2l62 31 14-7v-2z" fill="#656565"/><path d="m2 23v2l62 31v-2z" opacity=".11"/><path d="m78 47v2l-14 7v-2z" opacity=".29"/><path d="m16 1-14 7v14l62 31 14-7v-1.9c0-7.4-4.2-14.2-10.8-17.5z" fill="#e5e5e5"/><path d="m2 12v6l58 29c0-3.7-2.1-7-5.4-8.7z" fill="#39c"/><path d="m3 17.8v-5.3l-1-.5v6l58 29v-.7z" opacity=".2"/><path d="m64 51-62-31v3l62 31z" fill="#cc291f"/><path d="m43 37.8v-5.3l-1-.5v6z" opacity=".2"/><path d="m44 33 4 8v-6z" fill="#fff" opacity=".2"/><path d="m55 43.8v-5.3l-1-.5v6z" opacity=".2"/><path d="m49 40.8v-5.3l-1-.5v6z" opacity=".2"/><path d="m6 11v14l6 3v-14z" fill="#cc291f" opacity=".85"/><path d="m7 24.8v-13.3l-1-.5v14l6 3v-.7z" opacity=".2"/><path d="m11 17-4-2v5l4 2z" fill="#39c"/><path d="m7 15 4 5v-3z" fill="#fff" opacity=".2"/><path d="m37 34.8v-5.3l-1-.5v6z" opacity=".2"/><path d="m38 30 4 8v-6z" fill="#fff" opacity=".2"/><path d="m31 31.8v-5.3l-1-.5v6z" opacity=".2"/><path d="m25 28.8v-5.3l-1-.5v6z" opacity=".2"/><path d="m19 25.8v-5.3l-1-.5v6z" opacity=".2"/><path d="m26 24 4 8v-6z" fill="#fff" opacity=".2"/><path d="m12 17 6 9v-6z" fill="#fff" opacity=".2"/><path d="m2 8v15l62 31v-2.9c0-7.4-4.2-14.2-10.8-17.5z" opacity=".11"/><path d="m26 10 6 3-6 3-6-3z" opacity=".1"/><path d="m50 19-10 5v1l10 5 10-5v-1z" fill="#e5e5e5"/><path d="m40 24v1l10 5v-1z" opacity=".11"/><path d="m60 24v1l-10 5v-1z" opacity=".29"/><path d="m75.8 41.5c-.7-4.9-3.5-9.2-7.6-12-.6-.4-1.4-.5-2-.1l-7.6 3.8c-.6.3-.7 1.1-.2 1.5 3.5 2.9 5.9 6.9 7 11.3.4 1.5 2 2.3 3.4 1.6l5.2-2.6c1.3-.6 2-2.1 1.8-3.5z" fill="#39c"/><path d="m66.2 29.3-7.6 3.8c-.6.3-.7 1.1-.2 1.5.9.7 1.7 1.6 2.5 2.4l10.3-5.1c-.9-.9-1.9-1.7-2.9-2.5-.7-.3-1.5-.4-2.1-.1z" opacity=".4"/><path d="m74.3 38.5c-.1-.1-.2-.1-.3 0l-3.8 4.3c-.1.1-.1.2 0 .3s.2.1.3 0l.9-1v1.1h.3v-1.4l2.6-3c.1-.1.1-.2 0-.3z" fill="#2d3134"/><path d="m70.7 40.3c-.1-.1-.2-.1-.3 0l-3.8 4.3c-.1.1-.1.2 0 .3s.2.1.3 0l.9-1v1.1h.3v-1.4l2.6-3c.1-.1.1-.3 0-.3z" fill="#2d3134"/><path d="m65.4 46c.4 1.5 2 2.3 3.4 1.6l5.2-2.6c1.3-.7 2.1-2.1 1.9-3.6 0-.3-.1-.5-.2-.8l-10.3 5.1z" fill="#cc291f"/><path d="m68 35.3c2.2 0 4.3.4 6.2 1.1-.8-1.6-1.8-3-3-4.3l-.1-.1-8 4c1.6-.5 3.2-.7 4.9-.7z" fill="#fff" opacity=".2"/><path d="m64 54 14-7v-1l-14 7z" fill="#cc291f"/><path d="m70.9 29-14 7c4.4 3.7 7.1 9.2 7.1 15.1v2.9l14-7v-2.9c0-5.9-2.7-11.4-7.1-15.1z" opacity=".29"/><path d="m74 47v4l-6 3v-4z" fill="#2d3134"/><path d="m74 47v4l-6 3v-4z" opacity=".29"/><path d="m72 50-2 1v2l2 1 2-1v-2z" fill="#656565"/><path d="m70 51v2l2 1v-2z" opacity=".11"/><path d="m74 51v2l-2 1v-2z" opacity=".29"/><path d="m65.6 51.7 1.1-.6c.2-.1.2-.2.2-.4v-1c0-.4-.3-.9-.7-1.1l-.7-.3c-.3-.1-.6.1-.6.4v2.5c.1.4.5.6.7.5z" fill="#fc0" opacity=".9"/><path d="m75.6 46.7 1.1-.6c.2-.1.2-.2.2-.4v-2.2c0-.4-.6-.6-.8-.2l-.7 1.1c-.3.4-.4.9-.4 1.4v.5c0 .3.4.5.6.4z" fill="#fc0" opacity=".9"/><g fill="#fff"><path d="m65.1 49.8c0 .3.2.4.6.3.3-.2.6-.5.6-.8s-.2-.4-.6-.3c-.3.1-.6.5-.6.8z" opacity=".5"/><path d="m65.7 50.8c0 .3.2.4.6.3.3-.2.6-.5.6-.8s-.2-.4-.6-.3-.6.5-.6.8z" opacity=".7"/><path d="m66 50.7c0 .2.1.2.3.1s.3-.3.3-.4-.1-.2-.3-.1c-.1.1-.3.3-.3.4z"/><path d="m75.5 46.1c0 .2.1.2.3.1s.3-.3.3-.4-.1-.2-.3-.1-.3.3-.3.4z"/><path d="m75.8 44.7c0 .3.2.4.6.3.3-.2.6-.5.6-.8s-.2-.4-.6-.3c-.3.1-.6.5-.6.8z" opacity=".5"/><path d="m75.3 46.1c0 .3.2.4.6.3s.6-.5.6-.8-.2-.4-.6-.3-.6.4-.6.8z" opacity=".7"/></g></svg>