<svg enable-background="new 0 0 96 96" viewBox="0 0 96 96" xmlns="http://www.w3.org/2000/svg"><path d="m86 5v43l2 1 2-1v-43l-2-1z" fill="#656565"/><path d="m88 6v43l2-1v-43z" opacity=".29"/><path d="m86 5v43l2 1v-43z" opacity=".11"/><path d="m88 8-78 39-2-1v-2l78-39 2 1z" fill="#656565"/><path d="m10 45v2l78-39v-2z" opacity=".29"/><path d="m88 16-78 39-2-1v-2l78-39 2 1z" fill="#656565"/><path d="m10 53v2l78-39v-2z" opacity=".29"/><path d="m6 45v43l2 1 2-1v-43l-2-1z" fill="#656565"/><path d="m8 46v43l2-1v-43z" opacity=".29"/><path d="m6 45v43l2 1v-43z" opacity=".11"/></svg>