<svg enable-background="new 0 0 80 240" viewBox="0 0 80 240" xmlns="http://www.w3.org/2000/svg"><path d="m15.6 116.4-3.6-3.5s-1.9 4.8-2.2 7.2.3 14.4 2.1 14.4 1-3 1-4-.7-4.1-.7-4.1.5 1.9 1.4 1.7c.8-.2 1.5-1.9.9-3.5s.9-4.3.9-4.3z" fill="#fbd7c7"/><path d="m16.7 116.8s-4.9-2.5-5-3.6 7-18.9 7-18.9z" fill="#cc291f"/><path d="m16.7 116.8s-4.9-2.5-5-3.6 7-18.9 7-18.9z" opacity=".15"/><path d="m65.9 231.4c26.9-13.2 1-17.9-14.1-26.3-20.8-11.6-27.5-15.7-43-6.1-17.1 10.6.2 17.9 16.1 25.3 18.1 8.4 25 14.9 41 7.1z" opacity=".2"/><path d="m18.9 194.7c-2.2 2.3-5.1 5.4-8.1 7s-5.8 3.8-5.3 6 3.9 4.6 10.1 3c3.7-.9 5.3-4.4 7.9-5.1s6.5-2.3 6.8-3.6c.3-1.4.3-5.2.3-5.2z" fill="#262626"/><path d="m53.9 213.3c-1 2.5-2.7 5.6-5.3 8.1s-4.7 6.3-3.2 8.1c1.5 1.9 8.1 2.5 11.4.6 3.2-1.9 10-7.7 10.5-8.8.5-1.2-.1-6.2-.1-6.2z" fill="#262626"/><path d="m30.2 201.9c.1-.4.1-.9.2-1.5-1.3 1.1-4.3 2.5-7.1 3.3-3.4.9-5.8 4.8-9.4 5.9-3.2.9-8-.5-8.4-3.3-.2.5-.2.9-.1 1.4.5 2.2 3.9 4.6 10.1 3 3.7-.9 5.3-4.4 7.9-5.1s6.5-2.3 6.8-3.7z" opacity=".5"/><path d="m67.2 221.4c.2-.4.2-1.2.2-2.2-1.1 1.5-3.6 3.6-5.4 5.4-2.2 2.1-5.5 5-9.6 5.5-3.2.4-6.3-.2-7.6-2.5-.1.8 0 1.5.5 2.1 1.5 1.9 8.1 2.5 11.4.6 3.3-2 10.1-7.7 10.5-8.9z" opacity=".5"/><path d="m19.8 102.1s-3 9.5-4 23.3.6 35.7.6 46.6 1.1 19.3.4 21.4-1.2 3.3 0 3.3 5.9 2.2 8.7 2.7c2.8.6 5.1 1 5.7-.9s3-23.8 2.7-31.2c-.3-7.5.2-12.8 2-19.3 1.8-6.6 5.3-26.9 5.3-26.9l.3-13.9z" fill="#339"/><path d="m19.8 102.1s-3 9.5-4 23.3.6 35.7.6 46.6 1.1 19.3.4 21.4-1.2 3.3 0 3.3 5.9 2.2 8.7 2.7c2.8.6 5.1 1 5.7-.9s3-23.8 2.7-31.2c-.3-7.5.2-12.8 2-19.3 1.8-6.6 5.3-26.9 5.3-26.9l.3-13.9z" opacity=".3"/><path d="m25.2 104.3c-.1 1.4.3 20 1.5 23.5 1.2 3.4 5.1 5.3 7.9 13.3 2.7 8 3.5 15.3 6.2 23.8 2.7 8.4 10.1 36.2 10.6 41.9s-.5 8.7.4 9.3c1.6 1 3.6 1.8 5.8 2.4 2.3.7 7.5 1.1 9.6-.1 2.2-1.3 2.6-2.3 1.8-7.3s-3.2-25.2-5.2-32.3-6.2-33.6-6.5-42.1.5-17.2-2.8-24.3c-3.5-7.1-6.5-9.4-6.5-9.4z" fill="#339"/><path d="m25.2 104.3c-.1 1.4.3 20 1.5 23.5 1.2 3.4 5.1 5.3 7.9 13.3 2.7 8 3.5 15.3 6.2 23.8 2.7 8.4 10.1 36.2 10.6 41.9s-.5 8.7.4 9.3c1.6 1 3.6 1.8 5.8 2.4 2.3.7 7.5 1.1 9.6-.1 2.2-1.3 2.6-2.3 1.8-7.3s-3.2-25.2-5.2-32.3-6.2-33.6-6.5-42.1.5-17.2-2.8-24.3c-3.5-7.1-6.5-9.4-6.5-9.4z" opacity=".15"/><path d="m31.7 48.3c-2 1.6-10.2 13.3-10.6 27.7s3.2 21.1 3.2 21.1 10.9-29.1 16.9-35.5 5.6-11.6 5.6-11.6-3.4-3.2-7.5-3.5-7.6 1.8-7.6 1.8z" fill="#fff"/><path d="m31.4 58.3 2.3 6.4 6.4-4.3-6.8 6-2.1-7.8-1-.2-3.8 4.3v-3.8c0 .3.3 1.9.3 1.9l3.5-3.4z" opacity=".2"/><path d="m28.5 63-.1-3.8 1.5-1.6 1.5.7 1 2.7-2.3 2.3s-2.1 18.1-2.3 20.4c-.1 2.2-3.1 13-3.1 13s-4.5-12.5-4.3-12.7 8.1-21 8.1-21z" fill="#339"/><path d="m35.3 47.5c-2.1.3-9.2-2-13.2 4.1s-4.7 12.6-4.9 18.3-1.9 43.5-1.9 50 .8 9 3.7 9.9c3.4 1.1 7.1-2.7 7.2-4.7s-.2-37.7-.2-37.7-3.5-11-1.9-20.1c2.4-13.9 7.4-16.1 7.4-16.1l4.1-3.5z" fill="#cc291f"/><path d="m45.6 49.1s5.8 2.8 8.4 4c3.9 1.8 8 3.1 8.8 5.6 2 6.6-7.4 36.3-7.4 36.3s-.4 3.5-.3 5.6c.3 4.4 1.9 21.6 2.8 24.3s1.7 6.1 1.7 6.1-3.4 5.5-14.8 5.1-18.2-4-19.6-11-2.1-29.4-.3-39.2 10.1-20.7 15.3-26.5 5.4-10.3 5.4-10.3z" fill="#cc291f"/><path d="m25.4 89.1s1.5-4.4 6.9-12c3.8-5.2 10-6.9 10-6.9l-.3-3.4 4.1-1.5 2.5-13.7.5.5-1.7 14.1-4.6 1 1 3.5s-7.5 3-11.1 7.5c-3.9 4.8-7.3 10.9-7.3 10.9z" opacity=".2"/><path d="m58 124.7s.2 7.9 0 10.5c-.2 2.7-1.2 6.3-2.1 7.1-1.6 1.6-4.7 2.9-6.8 2.4s-2.2-2.5-2.2-3.3.3-7.9.3-7.9-1.1.1-1.3 1.1c-.3 1 .7 2.3-.3 3s-1.8-1.6-2-2.9c-.2-1.2.4-3.4 1-4.1.5-.7 1.2-1.7 2.4-2.8s3.8-4.1 3.8-4.1z" fill="#fbd7c7"/><path d="m56.8 55.4c-4.7 1.1-7.7 7-6.1 13.9s3.7 13.1 4.8 15.9 2.2 8 2.2 8-1.6 4.7-3.4 11.3c-1.8 6.7-5.5 19.2-5 20.3.6 1.1 8.8 3.6 9.8 3.5 1.1-.1 4.8-10 6.5-15.5s5.2-14.8 4.9-18.4-2.4-22.1-3.3-26.7c-1.2-6.4-5-13.6-10.4-12.3z" fill="#cc291f"/><path d="m30.5 58c1.6.7 4.4.3 7.4-2.3s5.9-7.2 5.9-7.2-1-1.1-1.3-4 4-6 2.4-14.3c-1.3-6.7-7.1-11.5-16.4-7.4s-8.5 19.1-6.5 25.7c1.9 6.6 7.3 4.3 7.3 4.3s-.4 4.5 1.2 5.2z" fill="#fbd7c7"/><path d="m21.7 30c-.1 1.2.9 2.5 3.9 3.2 3.8.9 7.9-2.1 11-.2 1.7 1.1 2.3 7.2 3.3 7.2.4-1.9 1.1-3.8 2.8-3.5 1.5.3 1.3 2.2 1.2 2.9.9.4 3.8-8 .2-13.9-3.5-6-11.6-6.1-16.4-3.4s-5.9 6.5-6 7.7z" fill="#825012"/><path d="m20.7 30.6s-5.5 4.7.2 7.5 17.8-1.6 17.8-1.6l7.5-1.6.5-1.1s-8.8.8-16.5-1.6-8.5-5.9-8.5-5.9z" fill="#2d3134"/><path d="m46.8 33.8s3.7.4 4.5-1.4c.9-1.8-5.4-9.7-13.2-12.1s-17.7-5.2-19.1-1.9c-1.4 3.2 2.8 8 2.8 8s-1.6 3 5.4 5.5 19.6 1.9 19.6 1.9z" fill="#cc291f"/><path d="m46.9 33.8-.3.5s-11.1 1.6-18.3-.9c-6.6-2.3-7.2-4.5-7.2-4.5l.5-2.7s2.3 3.3 9.5 5.6c6.5 2.1 15.8 2 15.8 2z" fill="#f90"/><path d="m30.5 109.4 16.9 1.8-.4 3.8-16.8-1.7z" opacity=".2"/><path d="m52.7 110.5 12.7 3.5c.1-.4.3-.8.4-1.2 0-.1.1-.2.1-.3l-12.7-3.6c-.2.5-.3 1-.5 1.6zm-.9 3.3 12.5 3.4c.2-.5.4-1 .5-1.5l-12.5-3.5c-.2.6-.4 1.1-.5 1.6zm2.4-8.7c-.1.5-.3 1-.4 1.6l12.8 3.5c.2-.5.3-1 .5-1.5z" fill="#f90"/><path d="m22.8 107.6-.7 2.7-7.4-3.4.8-3.7z" fill="#cc291f"/><path d="m22.8 107.6-.7 2.7-7.4-3.4.8-3.7z" opacity=".2"/><g fill="#f90"><ellipse cx="28.9" cy="102.8" rx="1.1" ry="1.2" transform="matrix(.9925 .1221 -.1221 .9925 12.7663 -2.7651)"/><ellipse cx="22.8" cy="101.7" rx="1" ry="1.2" transform="matrix(.9978 -.06621816 .06621816 .9978 -6.6836 1.7317)"/><circle cx="29.8" cy="94.3" r="1.2"/><ellipse cx="22.9" cy="92.5" rx="1" ry="1.2" transform="matrix(.9998 -.01960408 .01960408 .9998 -1.809 .4674)"/><circle cx="33.1" cy="85.4" r="1.2"/></g></svg>