<svg enable-background="new 0 0 136 88" viewBox="0 0 136 88" xmlns="http://www.w3.org/2000/svg"><g fill="#999"><path d="m71 44.5 18.4-9.2c-.1-.6-.3-1.2-.4-1.8l-20 10z"/><path d="m60.6 29.7 20.2-10.1c-.5-.4-1-.8-1.5-1.2l-20.1 10c.5.4 1 .9 1.4 1.3z"/><path d="m66.9 42.5 21.6-10.8c-.2-.6-.4-1.1-.6-1.7l-21.3 10.7c.1.6.2 1.2.3 1.8z"/><path d="m63 32.5 20.4-10.2c-.4-.5-.8-.9-1.2-1.3l-20.3 10.1c.4.4.8.9 1.1 1.4z"/><path d="m57.6 27.2 20-10c-.6-.4-1.1-.7-1.7-1.1l-20 10c.6.3 1.1.7 1.7 1.1z"/><path d="m64.8 35.6 20.8-10.4c-.3-.5-.6-1-1-1.5l-20.6 10.3c.3.5.6 1 .8 1.6z"/><path d="m66.1 38.9 21.2-10.6c-.2-.5-.5-1.1-.8-1.6l-21 10.5c.2.6.4 1.2.6 1.7z"/><path d="m95.3 54.3-23.3 11.7 2 1 22.4-11.2c-.4-.5-.7-1-1.1-1.5z"/><path d="m97.7 57.2-21.7 10.8 2 1 21.1-10.6c-.5-.4-1-.8-1.4-1.2z"/><path d="m100.6 59.7-20.6 10.3 2 1 20.2-10.2c-.5-.3-1.1-.7-1.6-1.1z"/><path d="m22 41-2-1 20-10 2 1z"/><path d="m18 39-2-1 20-10 2 1z"/><path d="m14 37-2-1 20-10 2 1z"/><path d="m10 35-2-1 20-10 2 1z"/><path d="m6 33-2-1 20-10 2 1z"/><path d="m2 31-2-1 20-10 2 1z"/><path d="m54 25-2-1 20-10 2 1z"/><path d="m50 23-2-1 20-10 2 1z"/><path d="m46 21-2-1 20-10 2 1z"/><path d="m42 19-2-1 20-10 2 1z"/><path d="m38 17-2-1 20-10 2 1z"/><path d="m34 15-2-1 20-10 2 1z"/></g><path d="m70 17 2-1-24-12-2 1z" fill="#656565"/><path d="m70 17 1-.5-24-12-1 .5z" opacity=".2"/><path d="m90.1 38.9c-.1-.6-.2-1.2-.3-1.8l-37.8 18.9 2 1z" fill="#999"/><path d="m50 55-2-1 20-10 2 1z" fill="#999"/><path d="m46 53-2-1 20-10 2 1z" fill="#999"/><path d="m42 51-2-1 20-10 2 1z" fill="#999"/><path d="m38 49-2-1 20-10 2 1z" fill="#999"/><path d="m34 47-2-1 20-10 2 1z" fill="#999"/><path d="m30 45-2-1 20-10 2 1z" fill="#999"/><path d="m26 43-2-1 20-10 2 1z" fill="#999"/><path d="m86 73-2-1 20-10 2 1z" fill="#999"/><path d="m94.4 52.8c-.3-.5-.6-1-.8-1.6l-25.6 12.8 2 1z" fill="#999"/><path d="m92.8 49.6c-.2-.6-.4-1.1-.6-1.7l-28.2 14.1 2 1z" fill="#999"/><path d="m91.6 46.2c-.2-.6-.3-1.2-.4-1.8l-31.2 15.6 2 1z" fill="#999"/><path d="m90.8 42.6c-.1-.6-.2-1.2-.3-1.8l-34.5 17.2 2 1z" fill="#999"/><path d="m110 85-2-1 20-10 2 1z" fill="#999"/><path d="m106 83-2-1 20-10 2 1z" fill="#999"/><path d="m102 81-2-1 20-10 2 1z" fill="#999"/><path d="m98 79-2-1 20-10 2 1z" fill="#999"/><path d="m94 77-2-1 20-10 2 1z" fill="#999"/><path d="m90 75-2-1 20-10 2 1z" fill="#999"/><path d="m126 77 2-1-24.6-12.3c-11.9-5.9-13.3-13.9-14.8-22.4-1.7-9.2-3.4-18.7-18.2-26.1l-22.4-11.2-2 1 23.6 11.8c14 7 15.6 16.1 17.2 24.8 1.1 5.9 2.2 12 7 17.3l-22.3-11.1c-.2-1-.3-2-.5-3-1.1-8-2.3-16.4-14.7-22.5l-22.3-11.3-2 1 23.6 11.8c11.5 5.8 12.6 13.2 13.7 21.2.1.6.2 1.2.3 1.8l-53.6-26.8-2 1 55.9 27.9c.9 5.3 2.6 10.8 7.9 16l-75.8-37.9-2 1 112 56 2-1-24.6-12.3c-12.7-6.4-16-13.5-17.5-20.7z" fill="#656565"/></svg>