<svg enable-background="new 0 0 112 32" viewBox="0 0 112 32" xmlns="http://www.w3.org/2000/svg"><g fill="#999"><path d="m65.6 24.9-3 .2-3.2-14.2 2.9-.2z"/><path d="m73.6 24.2-3 .4-6-14 3-.3z"/><path d="m82 23-2.8.5-9.3-13.5 2.9-.4z"/><path d="m89.4 21.6-2.8.6-11.4-13 2.8-.6z"/><path d="m96.5 19.8-2.6.7-13.6-12.5 2.6-.7z"/><path d="m103.8 17.5-2.5.8-16.1-11.7 2.4-.9z"/><path d="m110.5 14.8-2.3 1-18.5-10.9 2.3-1z"/><path d="m19.9 3.9 2.3 1-18.5 10.9-2.3-1z"/><path d="m24.3 5.7 2.5.9-16.2 11.7-2.5-.8z"/><path d="m29 7.3 2.6.7-13.6 12.5-2.6-.7z"/><path d="m54.5 10.9h3v14.3h-3z"/><path d="m46.4 24.9 3 .2 3.2-14.2-2.9-.2z"/><path d="m38.4 24.2 3 .4 6-14-3-.3z"/><path d="m30 23 2.8.5 9.3-13.5-2.9-.4z"/><path d="m22.6 21.6 2.8.6 11.4-13-2.8-.6z"/></g><path d="m56 23.6c-20.3 0-40.5-3.9-56-11.6l2-1c29.8 14.9 78.2 14.9 108 0l2 1c-15.4 7.7-35.7 11.6-56 11.6z" fill="#656565"/><path d="m56 13.7c-15.2 0-30.4-2.9-42-8.7l2-1c22.1 11 58 11 80 0l2 1c-11.6 5.8-26.8 8.7-42 8.7z" fill="#656565"/></svg>