<svg enable-background="new 0 0 64 80" viewBox="0 0 64 80" xmlns="http://www.w3.org/2000/svg"><path d="m17.9 62.2-9.4 3.4 6.7.3-4.2 2.8 9.6-.1 5.6-1.5-.9 4.7 6-1 4.2-3.5 8.2 2.5 8.5-1.1-2.7-1.7 3-.8-12.3-3.3z" opacity=".3"/><path d="m53.5 60.5c-2.1-.6-9.8-2.6-9.8-4.9 3.3.2 7.1-1.9 7.8-3.9-2.5.2-6.4-.6-9.1-1.7-.4-.5-.7-1-.8-1.5 2.3.6 5 .4 6.9-.7-1.1-.3-2.1-.6-2.9-1 1.2-1 2-2.3 2.5-3.1-2.4.7-6.9-.1-6.9-2.2 2.6.2 5.5-1.8 6.1-3.7-.9.1-2.1-.1-3.3-.3-1.7-.8-3.7-2-5.2-3.3 1.8.3 4.5 1.1 6.2-.1-2.4-.8-4-1.9-5.2-3.3 1.4-.2 2.5-.9 2.4-1.6-1.1-.4-2.1-1.1-3-1.8 2 0 3.6-1.5 3.5-2.6-2.8-.9-7.5-4.8-7.3-7.4 2.2 1.3 4.7.2 4.6-.9-6.9-3.3-8-15.7-8-15.7s-2.5 13.7-8 14.5c.8 2.2 3.4 2.3 4.6 1.2 0 1.7-3.4 5.7-6.5 6-.1 1.4 1 2.4 2.7 2.9-.9.7-2 1.1-3.1 1.3.1.2.2.4.3.6-1.1.1-2.1 0-2.6-.2.1 1.3 1.9 4.7 3.8 5.5-.2 2-3.4 2.1-5 1.8-.1 1.3.8 2.3 2.1 3.2.6.4 1.2.7 1.7 1-.2 2-5.3 1-6.1.5 0 .6.2 1.2.5 1.8.4 1 .9 2.2 1.7 3.2-1.6.1-4-.4-4.5-.9-.1 1.3 2.7 3.7 5.4 4.7-1.4.5-3.5.5-4.7.3-.2 2 2.6 3.5 4.9 4.4-.2 2.1-6.8 1.1-7.8.5.1 1.8 2 4.2 4.9 4.4-.2 1.7-6.9.7-7.8 0-.1 1.7 5.3 5.3 9.3 5.4 1.3 2.9-3.1 3.5-3.9 4.4 3.2 1.5 10.9-.4 12.7-2.9 2.2 1 .9 5.2.3 6.4 4.6.3 6.2-4.6 8.5-5.5 2.1 3.7 14.7 4.3 14.7 2.4-2-1-6-3.1-5.9-5.4 3.9 1.3 9.6.1 9.3-1.8z" fill="#28896d"/><g fill="#fff"><path d="m48.6 47.7s-5 .2-9.3-3.9-5.4-6.8-5.4-6.8-1 1.3-4.4 3.4-10.8 2-10.8 2 4.7 3.5 11.3 1.5c3.2-1 2.9-1.7 2.9-1.7s4.6 3.9 6.4 4.6c6.6 2.3 9.3.9 9.3.9z" opacity=".2"/><path d="m20.2 27.6c5.5-.1 8.8-2 11-3.9.4 1.4 2.5 6.6 10.6 9.6-3.4-.4-11.4-3.8-11.2-5.9-.4 1.7-6.8 4.1-10.4.2z" opacity=".2"/><path d="m26.8 14.4c5.1-3.2 4.3-4.9 5.2-8.9-.4 2.3 1.7 7.5 6.3 11-4.4-.9-5.7-3.7-6.6-5.8-.3 1.7-2 2.8-4.9 3.7z" opacity=".2"/><path d="m24.5 23.1c5.9-3.2 7.6-3.4 8.8-8.4-.4 2.3 2 5.9 6.6 9.3-3.4-.4-4.9-3.6-6.3-4.7-.4 1.7-5.1 3.4-9.1 3.8z" opacity=".2"/><path d="m15.2 49s7.3-.1 12.9-2.8c1.7-.1 4.2 5.1 5.4 5.4 1.3-.4 2.1-.7 3.5-1.6 1.1 5.1 10 9.5 15 11-9.2 0-15.7-6-16.6-7.8-1.1.9-1.3 3.4-3.4 3.4-1.7-2.4-4.3-6-4.9-7.8-1.9-.5-9.1 2-11.9.2z" opacity=".2"/><path d="m10.8 59.1c10.3 1.1 14-3.6 15.8-5.5-1.1 7.1-12.8 9.1-15.8 5.5z" opacity=".2"/><path d="m38 57.8c2.9 4.8 4 7.5 10.7 9.7-10.8.6-11.9-7.5-10.7-9.7z" opacity=".2"/><path d="m28.2 69.5c.6.3 6.9-9.7 2.3-11.5-2.6 1.3-.3 6.6-2.3 11.5z" opacity=".2"/></g><path d="m35.5 28c-2.6-2.1-2.6-2.1-2.6-2.1s2.1 2.6 3.5 4.3c2.8 1.4 6 .2 5.9-1-.1-.1-4.1 1-6.8-1.2z" opacity=".3"/><path d="m39 65c-3.3-3.4-4-8.5-4-8.5s-2 6.8-3.5 9.9c-1 2-1.9 3.6-4.5 4.3 0 .1 0 .1-.1.2 4.6.3 6.2-4.6 8.5-5.5 2.1 3.7 14.7 4.3 14.7 2.4 0 0-7.9.5-11.1-2.8z" opacity=".3"/><path d="m44.7 53.1c-3.3-.2-7.8-6.3-7.8-6.3s-2.3 1.2-3.6.2c-1.3-.9-2.5-2-2.5-2s1.2 5.7 2.9 5.4c1.8-.3 2.8-.8 3.5-1.6.8 4.4 6.5 6.8 6.5 6.7 3.3.2 7.1-1.9 7.8-3.9 0 .1-3.6 1.7-6.8 1.5z" opacity=".3"/><path d="m24.4 38.9v-.6c1 0 1.9.5 2.8.4 2.5-.3 6.7-3.3 6.7-3.3l-3.3.3 1.4-2.7s-3.8 3.1-7.1 3.5c-3.4.4-6.4-1.8-6.4-1.8-.3 2 2.8 4 5.9 4.2z" opacity=".3"/><path d="m19.2 52.6c-.2 2.1-6.8 1.1-7.8.5 4.8 3.1 13.9-.5 13.9-.5l-4.3.1 5-2.4s-11.1.7-11.6-2.1c-.3 2 2.5 3.6 4.8 4.4z" opacity=".3"/><path d="m23.9 55s-3.5 1-5.9 1c-2.2 0-6.4-2.2-6.6-2.8.2 1.8 2 4.1 4.9 4.3 5.7.5 7.6-2.5 7.6-2.5z" opacity=".3"/><path d="m28.3 65.4c0-2-.5-13.5-.5-13.5s-.3 6.9-6.5 12.8c-2.1 2-7.5 2.6-7.5 2.6 3.2 1.5 10.9-.4 12.7-2.9 1.7.8 1.3 3.4.8 5.2.5-1.2 1-3 1-4.2z" opacity=".3"/><path d="m47.3 37.7s-3.3 1.8-6.6 1-5.7-3-5.7-3 1.3 3.7 2.8 6c1.6 2.4 7.5 4.5 10.3 2-2.4.7-6.9-.1-6.9-2.2 2.6 0 5.6-1.9 6.1-3.8z" opacity=".3"/><path d="m39 24.9c-2.8-.4-5.6-3.9-5.6-3.9s-2.8 1.5-.1 3.3c2.7 1.7.3 2.2 5.8 3.1 2 0 3.6-1.5 3.5-2.6.2 0-.8.5-3.6.1z" opacity=".3"/><path d="m22.1 22.5s2 .5 6.6-2.4 3-8 3-8-1.7 2.3-3.5 2.6c-1.5.2-3.1.7-4 .6-.2 0-.3 0-.3 0 .8 2.2 3.4 2.3 4.6 1.2.1 1.7-3.3 5.7-6.4 6z" opacity=".3"/></svg>