<svg enable-background="new 0 0 32 64" viewBox="0 0 32 64" xmlns="http://www.w3.org/2000/svg"><ellipse cx="16.5" cy="55" opacity=".3" rx="7.5" ry="4"/><path d="m18 31v24c0 .6-.7 1-1.5 1s-1.5-.4-1.5-1v-24z" fill="#825012"/><circle cx="25.5" cy="29.5" fill="#539b00" r="6.5"/><circle cx="22" cy="21" fill="#539b00" r="9"/><g fill="#825012"><path d="m16 43.4c-2.6 0-3-.9-3-3.4v-8h-1v10c0 1.7 1.3 3 3 3h1z"/><path d="m17 44.8c1.7 0 3-.4 3-2.1v-9.7h1v10c0 1.7-1.3 3-3 3h-1z"/><path d="m13 41.8c-1.7 0-2-1.3-2-2.1v-9.7h-1v10c0 1.7 1.3 3 3 3z"/></g><circle cx="12" cy="31" fill="#539b00" r="9"/><circle cx="7" cy="27" fill="#539b00" r="6"/><path d="m12 30.8c-1.7 0-3-.4-3-2.1v-2.7h-1v3c0 1.7 1.3 3 3 3h1z" fill="#825012"/><circle cx="11" cy="19" fill="#539b00" r="8"/><circle cx="15" cy="15" fill="#539b00" r="8"/><circle cx="21.5" cy="12.5" fill="#539b00" r="4.5"/><path d="m7.1 21c2.2 0 4.1 1.3 4.9 3.1.3-.1.7-.1 1.1-.1 1.8 0 3.4.9 4.4 2.2-.4-1.8-2-3.2-3.9-3.2h-.1c-.5-2.3-2.5-4-4.9-4-2 0-3.7 1.2-4.5 2.9.8-.6 1.9-.9 3-.9z" fill="#fff" opacity=".2"/><path d="m15 18.4c.2.2.5.4.7.6h.3v-3c-.3 0-.7-.1-1-.2z" fill="#825012"/><path d="m15.5 11c2.4 0 4.3 1.9 4.5 4.2.5-.1 1-.2 1.5-.2 2.5 0 4.6 1.6 5.3 3.9.1-.4.2-.9.2-1.4 0-2.5-2-4.5-4.5-4.5-.5 0-1 .1-1.5.3-.1-1.8-1.6-3.3-3.5-3.3-1 0-1.9.4-2.5 1z" fill="#fff" opacity=".2"/><path d="m30.9 22.4c-1.7 1.9-4.1 3.1-6.8 3.1-.2 0-.4 0-.6 0 1 1.1 1.6 2.4 1.7 3.9 2.9-1.1 5.2-3.8 5.7-7z" opacity=".3"/><path d="m28.5 32.7c.3.7.4 1.5.5 2.3 1.7-1.1 2.9-2.9 3-5-.8 1.3-2.1 2.2-3.5 2.7z" opacity=".3"/><path d="m6.7 21c-1.6-1.4-2.7-3.5-2.7-5.9-.6 1.1-1 2.5-1 3.9 0 1.1.2 2.1.6 3.1.9-.7 2-1 3.1-1.1z" opacity=".3"/><path d="m22 22.6c0 1.7-1.3 2.1-3 2.1v1.3h1c1.7 0 3-1.3 3-3v-2c-.3 0-.7-.1-1-.2z" fill="#825012"/><circle cx="19.8" cy="33.8" fill="#539b00" r="9.3"/><path d="m16 31c1.2 0 2.3.3 3.3.8 1.2-1.1 2.9-1.8 4.7-1.8 1.6 0 3.1.5 4.2 1.4-1.1-2-3.3-3.4-5.7-3.4-1.6 0-3.1.6-4.2 1.6-.7-.4-1.5-.6-2.3-.6-2.4 0-4.4 1.7-4.9 4 1.3-1.2 3-2 4.9-2z" fill="#fff" opacity=".2"/><path d="m20.8 41c-3.8 0-7-2-8.8-5-.3 0-.6 0-.9 0-3.5 0-6.5-2-8-4.9 0 4.9 4 8.9 8.9 8.9h.9c1.7 1.9 4.1 3 6.8 3 3.6 0 6.6-2 8.2-4.9-1.8 1.8-4.4 2.9-7.1 2.9z" opacity=".3"/></svg>