<svg enable-background="new 0 0 128 128" viewBox="0 0 128 128" xmlns="http://www.w3.org/2000/svg"><path d="m64 64 64 32-64 32-64-32z" fill="#9c3"/><path d="m64 64 64 32-64 32-64-32z" fill="#9c3"/><ellipse cx="70.5" cy="80" opacity=".3" rx="7.5" ry="4"/><path d="m69 53v27c0 .6.7 1 1.5 1s1.5-.4 1.5-1v-27z" fill="#825012"/><circle cx="63.5" cy="48.5" fill="#539b00" r="6.5"/><circle cx="68" cy="40" fill="#539b00" r="9"/><path d="m71 68.4c2.6 0 3-.9 3-3.4v-8h1v10c0 1.7-1.3 3-3 3h-1z" fill="#825012"/><path d="m71 67.8c-1.7 0-3-.4-3-2.1v-9.7h-1v10c0 1.7 1.3 3 3 3h1z" fill="#825012"/><path d="m69 46.8c-1.7 0-3-.4-3-2.1v-2.7h-1v3c0 1.7 1.3 3 3 3h1z" fill="#825012"/><circle cx="75.5" cy="55.5" fill="#539b00" r="7.5"/><circle cx="80" cy="52" fill="#539b00" r="6"/><path d="m75 54.8c1.7 0 3-.4 3-2.1v-2.7h1v3c0 1.7-1.3 3-3 3h-1z" fill="#825012"/><path d="m68 39.4h1v9.6h-1z" fill="#825012"/><circle cx="77" cy="42" fill="#539b00" r="8"/><circle cx="72" cy="33" fill="#539b00" r="8"/><path d="m72.5 41c2.2 0 4.1 1.3 4.9 3.1.3-.1.7-.1 1.1-.1 1.8 0 3.4.9 4.4 2.2-.4-1.8-2-3.2-3.9-3.2h-.1c-.5-2.3-2.5-4-4.9-4-2 0-3.7 1.2-4.5 2.9.8-.6 1.9-.9 3-.9z" fill="#fff" opacity=".2"/><circle cx="63" cy="40.4" fill="#539b00" r="3.6"/><path d="m63 40.5c0-2.5 1.7-4.6 4-5.3.2-2.9 2.5-5.2 5.5-5.2 1.7 0 3.3.8 4.3 2.1-.6-2.4-2.8-4.1-5.3-4.1-2.9 0-5.3 2.2-5.5 5.1-2.3.5-4 2.5-4 4.9 0 1.1.4 2.2 1 3 0-.2 0-.3 0-.5z" fill="#fff" opacity=".2"/><circle cx="68.3" cy="55.8" fill="#539b00" r="9.3"/><circle cx="80.3" cy="49.8" fill="#539b00" r="3.3"/><path d="m86 52c0-.4 0-.8-.1-1.2-.6 3.8-3.9 6.7-7.9 6.7-.1 0-.3 0-.4 0 .7.3 1.6.5 2.4.5.7 0 1.3-.1 1.9-.3-1.4 1.4-3.3 2.3-5.4 2.3-1 0-2-.2-2.9-.6-1.6 1.6-3.9 2.6-6.3 2.6-3.5 0-6.6-2-8.1-4.8.7 4.4 4.5 7.8 9.1 7.8 2.2 0 4.3-.8 5.9-2.1.4.1.8.1 1.3.1 3.5 0 6.5-2.4 7.3-5.7 1.9-1 3.2-3 3.2-5.3z" opacity=".3"/><path d="m65.5 51c.8 0 1.5.1 2.2.4.9-1.4 2.5-2.4 4.3-2.4 1 0 1.9.3 2.7.8-.7-1.7-2.3-2.8-4.2-2.8-1.6 0-3 .8-3.8 2-.2 0-.5 0-.7 0-2.9 0-5.4 2.1-5.9 4.9 1.2-1.8 3.2-2.9 5.4-2.9z" fill="#fff" opacity=".2"/><path d="m61 51.5c-1.9-.8-3.4-2.4-3.9-4.5-.1.5-.2 1-.2 1.5 0 2.4 1.3 4.4 3.2 5.6.2-.9.5-1.8.9-2.6z" opacity=".3"/><ellipse cx="42.5" cy="93" opacity=".3" rx="7.5" ry="4"/><path d="m44 69v24c0 .6-.7 1-1.5 1s-1.5-.4-1.5-1v-24z" fill="#825012"/><circle cx="51.5" cy="67.5" fill="#539b00" r="6.5"/><circle cx="48" cy="59" fill="#539b00" r="9"/><path d="m42 81.4c-2.6 0-3-.9-3-3.4v-8h-1v10c0 1.7 1.3 3 3 3h1z" fill="#825012"/><path d="m43 82.8c1.7 0 3-.4 3-2.1v-9.7h1v10c0 1.7-1.3 3-3 3h-1z" fill="#825012"/><path d="m39 79.8c-1.7 0-2-1.3-2-2.1v-9.7h-1v10c0 1.7 1.3 3 3 3z" fill="#825012"/><circle cx="38" cy="69" fill="#539b00" r="9"/><circle cx="33" cy="65" fill="#539b00" r="6"/><path d="m38 68.8c-1.7 0-3-.4-3-2.1v-2.7h-1v3c0 1.7 1.3 3 3 3h1z" fill="#825012"/><circle cx="37" cy="57" fill="#539b00" r="8"/><circle cx="41" cy="53" fill="#539b00" r="8"/><circle cx="47.5" cy="50.5" fill="#539b00" r="4.5"/><path d="m33.1 59c2.2 0 4.1 1.3 4.9 3.1.3-.1.7-.1 1.1-.1 1.8 0 3.4.9 4.4 2.2-.4-1.8-2-3.2-3.9-3.2h-.1c-.5-2.3-2.5-4-4.9-4-2 0-3.7 1.2-4.5 2.9.8-.6 1.9-.9 3-.9z" fill="#fff" opacity=".2"/><path d="m41 56.4c.2.2.5.4.7.6h.3v-3c-.3 0-.7-.1-1-.2z" fill="#825012"/><path d="m41.5 49c2.4 0 4.3 1.9 4.5 4.2.5-.1 1-.2 1.5-.2 2.5 0 4.6 1.6 5.3 3.9.1-.4.2-.9.2-1.4 0-2.5-2-4.5-4.5-4.5-.5 0-1 .1-1.5.3-.1-1.8-1.6-3.3-3.5-3.3-1 0-1.9.4-2.5 1z" fill="#fff" opacity=".2"/><path d="m56.9 60.4c-1.7 1.9-4.1 3.1-6.8 3.1-.2 0-.4 0-.6 0 1 1.1 1.6 2.4 1.7 3.9 2.9-1.1 5.2-3.8 5.7-7z" opacity=".3"/><path d="m54.5 70.7c.3.7.4 1.5.5 2.3 1.7-1.1 2.9-2.9 3-5-.8 1.3-2.1 2.2-3.5 2.7z" opacity=".3"/><path d="m32.7 59c-1.6-1.4-2.7-3.5-2.7-5.9-.6 1.1-1 2.5-1 3.9 0 1.1.2 2.1.6 3.1.9-.7 2-1 3.1-1.1z" opacity=".3"/><path d="m48 60.6c0 1.7-1.3 2.1-3 2.1v1.3h1c1.7 0 3-1.3 3-3v-2c-.3 0-.7-.1-1-.2z" fill="#825012"/><circle cx="45.8" cy="71.8" fill="#539b00" r="9.3"/><path d="m42 69c1.2 0 2.3.3 3.3.8 1.2-1.1 2.9-1.8 4.7-1.8 1.6 0 3.1.5 4.2 1.4-1.1-2-3.3-3.4-5.7-3.4-1.6 0-3.1.6-4.2 1.6-.7-.4-1.5-.6-2.3-.6-2.4 0-4.4 1.7-4.9 4 1.3-1.2 3-2 4.9-2z" fill="#fff" opacity=".2"/><path d="m46.8 79c-3.8 0-7-2-8.8-5-.3 0-.6 0-.9 0-3.5 0-6.5-2-8-4.9.1 4.9 4.1 8.9 9 8.9h.9c1.7 1.9 4.1 3 6.8 3 3.6 0 6.6-2 8.2-4.9-1.9 1.8-4.5 2.9-7.2 2.9z" opacity=".3"/><ellipse cx="86.5" cy="92" opacity=".3" rx="7.5" ry="4"/><path d="m88 68v24c0 .6-.7 1-1.5 1s-1.5-.4-1.5-1v-24z" fill="#825012"/><circle cx="95.5" cy="66.5" fill="#539b00" r="6.5"/><circle cx="92" cy="58" fill="#539b00" r="9"/><path d="m86 80.4c-2.6 0-3-.9-3-3.4v-8h-1v10c0 1.7 1.3 3 3 3h1z" fill="#825012"/><path d="m87 81.8c1.7 0 3-.4 3-2.1v-9.7h1v10c0 1.7-1.3 3-3 3h-1z" fill="#825012"/><path d="m83 78.8c-1.7 0-2-1.3-2-2.1v-9.7h-1v10c0 1.7 1.3 3 3 3z" fill="#825012"/><circle cx="82" cy="68" fill="#539b00" r="9"/><circle cx="77" cy="64" fill="#539b00" r="6"/><path d="m82 67.8c-1.7 0-3-.4-3-2.1v-2.7h-1v3c0 1.7 1.3 3 3 3h1z" fill="#825012"/><circle cx="81" cy="56" fill="#539b00" r="8"/><circle cx="85" cy="52" fill="#539b00" r="8"/><circle cx="91.5" cy="49.5" fill="#539b00" r="4.5"/><path d="m77.1 58c2.2 0 4.1 1.3 4.9 3.1.3-.1.7-.1 1.1-.1 1.8 0 3.4.9 4.4 2.2-.4-1.8-2-3.2-3.9-3.2h-.1c-.5-2.3-2.5-4-4.9-4-2 0-3.7 1.2-4.5 2.9.8-.6 1.9-.9 3-.9z" fill="#fff" opacity=".2"/><path d="m85 55.4c.2.2.5.4.7.6h.3v-3c-.3 0-.7-.1-1-.2z" fill="#825012"/><path d="m85.5 48c2.4 0 4.3 1.9 4.5 4.2.5-.1 1-.2 1.5-.2 2.5 0 4.6 1.6 5.3 3.9.1-.4.2-.9.2-1.4 0-2.5-2-4.5-4.5-4.5-.5 0-1 .1-1.5.3-.1-1.8-1.6-3.3-3.5-3.3-1 0-1.9.4-2.5 1z" fill="#fff" opacity=".2"/><path d="m100.9 59.4c-1.7 1.9-4.1 3.1-6.8 3.1-.2 0-.4 0-.6 0 1 1.1 1.6 2.4 1.7 3.9 2.9-1.1 5.2-3.8 5.7-7z" opacity=".3"/><path d="m98.5 69.7c.3.7.4 1.5.5 2.3 1.7-1.1 2.9-2.9 3-5-.8 1.3-2.1 2.2-3.5 2.7z" opacity=".3"/><path d="m76.7 58c-1.6-1.4-2.7-3.5-2.7-5.9-.6 1.1-1 2.5-1 3.9 0 1.1.2 2.1.6 3.1.9-.7 2-1 3.1-1.1z" opacity=".3"/><path d="m92 59.6c0 1.7-1.3 2.1-3 2.1v1.3h1c1.7 0 3-1.3 3-3v-2c-.3 0-.7-.1-1-.2z" fill="#825012"/><circle cx="89.8" cy="70.8" fill="#539b00" r="9.3"/><path d="m86 68c1.2 0 2.3.3 3.3.8 1.2-1.1 2.9-1.8 4.7-1.8 1.6 0 3.1.5 4.2 1.4-1.1-2-3.3-3.4-5.7-3.4-1.6 0-3.1.6-4.2 1.6-.7-.4-1.5-.6-2.3-.6-2.4 0-4.4 1.7-4.9 4 1.3-1.2 3-2 4.9-2z" fill="#fff" opacity=".2"/><path d="m90.8 78c-3.8 0-7-2-8.8-5-.3 0-.6 0-.9 0-3.5 0-6.5-2-8-4.9.1 4.9 4.1 8.9 9 8.9h.9c1.7 1.9 4.1 3 6.8 3 3.6 0 6.6-2 8.2-4.9-1.9 1.8-4.5 2.9-7.2 2.9z" opacity=".3"/><path d="m54.4 105.1-5.7 2 4.1.2-2.5 1.7h5.8l3.4-.9-.6 2.8 3.6-.6 2.6-2.1 4.9 1.5 5.2-.7-1.6-1 1.8-.4-7.5-2.1z" opacity=".3"/><path d="m56.7 83.6c4.3-.5 6.3-8.6 6.3-8.6s.9 8 6.2 10.1c.1.7-1.9 1.4-3.6.6-.1 1.6 3.5 4.1 5.6 4.7.1.9-1.9 2.1-3.9 1.5.9 1.9 2.3 3.6 5.6 4.4-1.5.9-3.9.1-5.3 0 0 1.3 4.7 2.5 7.1 2.4-.4 1.2-2.7 2.5-4.7 2.4 0 1.4 4.7 2.6 5.9 3 .1 1.2-3.3 1.9-5.6 1.2-.1 1.4 2.4 2.7 3.6 3.3 0 1.1-7.6.7-8.9-1.5-1.4.5-2.4 3.5-5.1 3.3.4-.8 1.1-3.3-.2-3.9-1.1 1.6-5.8 2.7-7.7 1.8.5-.5 3.2-.9 2.4-2.7-2.4-.1-5.7-2.2-5.6-3.3.6.4 4.6 1 4.7 0-1.8-.1-2.9-1.6-3-2.7.6.3 4.6 1 4.7-.3-1.4-.5-3.1-1.5-3-2.7 1.2.1 3.7.1 3.9-1.2-1.5-.5-2.9-2.7-3-3.6 1.1.3 5.4.1 5.3-.9-1.9-.1-3.4-.9-3.3-2.1 2.4-.2 5-2.7 5-3.9-.8.5-2.7.1-3.4-1.3z" fill="#28896d"/><g fill="#fff"><path d="m73 96.3s-3 .1-5.6-2.4-3.3-4.1-3.3-4.1-.6.8-2.7 2.1-6.5 1.2-6.5 1.2 2.8 2.1 6.8.9c2-.6 1.8-1 1.8-1s2.8 2.4 3.8 2.8c4.1 1.4 5.7.5 5.7.5z" opacity=".2"/><path d="m56.4 89.2c3.6-1.9 5.8-3.5 6.5-6.5-.2 1.4 2.8 5.3 5.6 7.4-2.1-.2-4.7-3.7-5.9-3.6-.2 1.1-3.7 2.5-6.2 2.7z" opacity=".2"/><path d="m58.1 83.9c3.6-1.9 4.2-4.4 4.9-7.5-.2 1.4 1.6 5.9 4.4 8-2.1-.2-3.9-3.2-4.7-3.9-.3 1.2-2.2 3.2-4.6 3.4z" opacity=".2"/><path d="m52.8 97.1s4.4-.1 7.8-1.7c1-.1 2.5 3.1 3.3 3.3.8-.2 1.3-.4 2.1-1 .7 3.1 6.1 5.7 9.1 6.6-5.5 0-9.5-3.6-10.1-4.7-.7.5-.8 2.1-2.1 2.1-1-1.5-2.6-3.6-3-4.7-1-.3-5.4 1.2-7.1.1z" opacity=".2"/><path d="m50.1 103.2c6.2.7 8.5-2.2 9.5-3.3-.6 4.3-7.6 5.5-9.5 3.3z" opacity=".2"/><path d="m66.6 102.4c1.8 2.9 2.4 4.6 6.5 5.9-6.6.4-7.3-4.5-6.5-5.9z" opacity=".2"/><path d="m60.7 109.5c.4.2 4.2-5.9 1.4-7-1.6.9-.2 4-1.4 7z" opacity=".2"/></g><path d="m65.1 84.4c-1.6-1.3-1.6-1.3-1.6-1.3s1.3 1.6 2.1 2.6c1.7.8 3.7.1 3.6-.6 0 0-2.5.6-4.1-.7z" opacity=".3"/><path d="m67.2 106.8c-2-2-2.4-5.1-2.4-5.1s-1.2 4.1-2.1 6c-.6 1.2-1.2 2.2-2.7 2.6v.1c2.8.2 3.7-2.8 5.1-3.3 1.3 2.2 8.9 2.6 8.9 1.5-.1-.1-4.8.2-6.8-1.8z" opacity=".3"/><path d="m70.6 99.6c-2-.1-4.7-3.8-4.7-3.8s-1.4.7-2.2.1-1.5-1.2-1.5-1.2.7 3.5 1.8 3.3 1.7-.5 2.1-1c.5 2.6 3.9 4.1 3.9 4.1 2 .1 4.3-1.1 4.7-2.4.1 0-2.1 1-4.1.9z" opacity=".3"/><path d="m58.5 91c.6 0 1.2 0 1.7-.1 1.5-.2 4.1-1.6 4.1-1.6l-2 .2.8-1.7s-2.3 1.9-4.3 2.1c-2 .3-3.5-1-3.5-1-.2 1.2 1.4 2 3.2 2.1z" opacity=".3"/><path d="m55.2 99.3c-.1 1.3-4.1.6-4.7.3 2.9 1.9 8.4-.3 8.4-.3l-2.6.1 3-1.5s-6.7.4-7-1.3c-.2 1.2 1.5 2.2 2.9 2.7z" opacity=".3"/><path d="m58.1 100.7s-2.1.6-3.6.6c-1.4 0-3.8-1.3-4-1.7.1 1.1 1.2 2.5 3 2.6 3.4.4 4.6-1.5 4.6-1.5z" opacity=".3"/><path d="m60.7 107c0-1.2-.3-8.2-.3-8.2s-.2 4.2-3.9 7.8c-1.3 1.2-4.6 1.6-4.6 1.6 1.9.9 6.6-.2 7.7-1.8 1 .5.8 2.1.5 3.2.3-.7.6-1.8.6-2.6z" opacity=".3"/><path d="m67.8 113.4-3.5 1.3 2.5.1-1.5 1h3.5l2.1-.5-.3 1.7 2.1-.4 1.6-1.3 3 1 3.2-.5-1-.6 1.1-.3-4.5-1.2z" opacity=".3"/><path d="m69.2 100.3c2.6-.3 3.8-5.3 3.8-5.3s.5 4.9 3.8 6.2c.1.5-1.1.9-2.2.4-.1 1 2.1 2.5 3.4 2.9 0 .5-1.2 1.3-2.4.9.5 1.2 1.4 2.2 3.4 2.7-.9.5-2.4 0-3.3 0 0 .8 2.9 1.5 4.4 1.5-.3.8-1.7 1.5-2.9 1.5 0 .9 2.9 1.6 3.6 1.8.1.7-2 1.2-3.4.7 0 .9 1.5 1.6 2.2 2 0 .7-4.7.5-5.4-.9-.9.3-1.4 2.2-3.1 2 .2-.5.7-2-.1-2.4-.7 1-3.5 1.6-4.7 1.1.3-.3 2-.5 1.5-1.6-1.5 0-3.5-1.4-3.4-2 .4.3 2.8.6 2.9 0-1.1-.1-1.8-1-1.8-1.6.4.2 2.8.6 2.9-.2-.9-.3-1.9-.9-1.8-1.6.7.1 2.3 0 2.4-.7-.9-.3-1.8-1.7-1.8-2.2.7.2 3.3 0 3.3-.5-1.1-.1-2.1-.5-2-1.3 1.5-.1 3.1-1.7 3.1-2.4-.8 0-2-.2-2.4-1z" fill="#28896d"/><path d="m79.2 108.1s-1.9.1-3.4-1.5c-1.6-1.5-2-2.5-2-2.5s-.4.5-1.6 1.3c-1.3.8-4 .7-4 .7s1.7 1.3 4.2.5c1.2-.4 1.1-.6 1.1-.6s1.7 1.5 2.4 1.7c2.3.9 3.3.4 3.3.4z" fill="#fff" opacity=".2"/><path d="m69 103.7c2.2-1.2 3.5-2.1 4-4-.1.9 1.7 3.3 3.4 4.5-1.3-.1-2.9-2.3-3.6-2.2-.1.7-2.3 1.6-3.8 1.7z" fill="#fff" opacity=".2"/><path d="m70 100.5c2.2-1.2 2.5-2.7 3-4.6-.1.9 1 3.6 2.7 4.9-1.3-.1-2.4-1.9-2.9-2.4-.1.7-1.3 1.9-2.8 2.1z" fill="#fff" opacity=".2"/><path d="m66.8 108.6s2.7 0 4.8-1c.6 0 1.5 1.9 2 2 .5-.1.8-.3 1.3-.6.4 1.9 3.7 3.5 5.6 4-3.4 0-5.8-2.2-6.2-2.9-.4.3-.5 1.3-1.3 1.3-.6-.9-1.6-2.2-1.8-2.9-.7-.2-3.4.7-4.4.1z" fill="#fff" opacity=".2"/><path d="m65.2 112.3c3.8.4 5.2-1.3 5.8-2-.4 2.6-4.7 3.3-5.8 2z" fill="#fff" opacity=".2"/><path d="m75.2 111.8c1.1 1.8 1.5 2.8 4 3.6-4 .2-4.4-2.8-4-3.6z" fill="#fff" opacity=".2"/><path d="m71.6 116.1c.2.1 2.6-3.6.8-4.3-.9.6 0 2.5-.8 4.3z" fill="#fff" opacity=".2"/><path d="m74.3 100.8c-1-.8-1-.8-1-.8s.8 1 1.3 1.6c1 .5 2.2.1 2.2-.4 0 0-1.5.3-2.5-.4z" opacity=".3"/><path d="m75.6 114.5c-1.2-1.2-1.5-3.1-1.5-3.1s-.7 2.5-1.3 3.7c-.4.7-.7 1.3-1.7 1.6v.1c1.7.1 2.3-1.7 3.1-2 .8 1.4 5.4 1.6 5.4.9.1-.2-2.8 0-4-1.2z" opacity=".3"/><path d="m77.7 110.1c-1.2-.1-2.9-2.3-2.9-2.3s-.8.4-1.3.1-.9-.7-.9-.7.4 2.1 1.1 2 1-.3 1.3-.6c.3 1.6 2.4 2.5 2.4 2.5 1.2.1 2.6-.7 2.9-1.5 0-.1-1.4.5-2.6.5z" opacity=".3"/><path d="m70.3 104.8c.4 0 .7 0 1.1-.1.9-.1 2.5-1 2.5-1l-1.2.1.5-1.1s-1.4 1.1-2.6 1.3-2.2-.6-2.2-.6c-.2.9.8 1.3 1.9 1.4z" opacity=".3"/><path d="m68.3 109.9c-.1.8-2.5.4-2.9.2 1.8 1.2 5.2-.2 5.2-.2h-1.6l1.9-.9s-4.1.2-4.3-.8c-.2.8.8 1.4 1.7 1.7z" opacity=".3"/><path d="m70 110.8s-1.3.4-2.2.4c-.8 0-2.4-.8-2.4-1 .1.7.7 1.5 1.8 1.6 2.1.1 2.8-1 2.8-1z" opacity=".3"/><path d="m71.7 114.6c0-.7-.2-5-.2-5s-.1 2.5-2.4 4.8c-.8.7-2.8 1-2.8 1 1.2.5 4-.1 4.7-1.1.6.3.5 1.3.3 1.9.2-.5.4-1.1.4-1.6z" opacity=".3"/></svg>