<svg enable-background="new 0 0 32 64" viewBox="0 0 32 64" xmlns="http://www.w3.org/2000/svg"><ellipse cx="15.5" cy="55" opacity=".3" rx="7.5" ry="4"/><path d="m14 28v27c0 .6.7 1 1.5 1s1.5-.4 1.5-1v-27z" fill="#825012"/><circle cx="8.5" cy="23.5" fill="#539b00" r="6.5"/><circle cx="13" cy="15" fill="#539b00" r="9"/><g fill="#825012"><path d="m16 43.4c2.6 0 3-.9 3-3.4v-8h1v10c0 1.7-1.3 3-3 3h-1z"/><path d="m16 42.8c-1.7 0-3-.4-3-2.1v-9.7h-1v10c0 1.7 1.3 3 3 3h1z"/><path d="m14 21.8c-1.7 0-3-.4-3-2.1v-2.7h-1v3c0 1.7 1.3 3 3 3h1z"/></g><circle cx="20.5" cy="30.5" fill="#539b00" r="7.5"/><circle cx="25" cy="27" fill="#539b00" r="6"/><path d="m20 29.8c1.7 0 3-.4 3-2.1v-2.7h1v3c0 1.7-1.3 3-3 3h-1z" fill="#825012"/><path d="m13 14.4h1v9.6h-1z" fill="#825012"/><circle cx="22" cy="17" fill="#539b00" r="8"/><circle cx="17" cy="8" fill="#539b00" r="8"/><path d="m17.5 16c2.2 0 4.1 1.3 4.9 3.1.3-.1.7-.1 1.1-.1 1.8 0 3.4.9 4.4 2.2-.4-1.8-2-3.2-3.9-3.2h-.1c-.5-2.3-2.5-4-4.9-4-2 0-3.7 1.2-4.5 2.9.8-.6 1.9-.9 3-.9z" fill="#fff" opacity=".2"/><circle cx="8" cy="15.4" fill="#539b00" r="3.6"/><path d="m8 15.5c0-2.5 1.7-4.6 4-5.3.2-2.9 2.6-5.2 5.5-5.2 1.7 0 3.3.8 4.3 2.1-.6-2.4-2.8-4.1-5.3-4.1-2.9 0-5.3 2.2-5.5 5.1-2.3.5-4 2.5-4 4.9 0 1.1.4 2.2 1 3 0-.2 0-.3 0-.5z" fill="#fff" opacity=".2"/><circle cx="13.3" cy="30.8" fill="#539b00" r="9.3"/><circle cx="25.3" cy="24.8" fill="#539b00" r="3.3"/><path d="m31 27c0-.4 0-.8-.1-1.2-.6 3.8-3.9 6.7-7.9 6.7-.1 0-.3 0-.4 0 .7.3 1.6.5 2.4.5.7 0 1.3-.1 1.9-.3-1.4 1.4-3.3 2.3-5.4 2.3-1 0-2-.2-2.9-.6-1.6 1.6-3.9 2.6-6.3 2.6-3.5 0-6.6-2-8.1-4.8.7 4.4 4.5 7.8 9.1 7.8 2.2 0 4.3-.8 5.9-2.1.4.1.8.1 1.3.1 3.5 0 6.5-2.4 7.3-5.7 1.9-1 3.2-3 3.2-5.3z" opacity=".3"/><path d="m10.5 26c.8 0 1.5.1 2.2.4.9-1.4 2.5-2.4 4.3-2.4 1 0 1.9.3 2.7.8-.7-1.7-2.3-2.8-4.2-2.8-1.6 0-3 .8-3.8 2-.2 0-.5 0-.7 0-2.9 0-5.4 2.1-5.9 4.9 1.2-1.8 3.2-2.9 5.4-2.9z" fill="#fff" opacity=".2"/><path d="m6 26.5c-1.9-.8-3.4-2.4-3.9-4.5 0 .5-.1 1-.1 1.5 0 2.4 1.3 4.4 3.2 5.6.1-.9.4-1.8.8-2.6z" opacity=".3"/></svg>