<svg enable-background="new 0 0 16 16" viewBox="0 0 16 16" xmlns="http://www.w3.org/2000/svg"><path d="m8 16s.4-.7 1.2-1.1c.4-.2.9 0 1.3-.2.5.3 1-.4 1.5-.7.5-.9 1-.6 1.5-.7.5.3.9-.1 1.3-.6.4-.2.7-.3.9-.5.2-.1.3-.2.3-.2v-8s-1.4-.4-2.1-.8c-.4-.1-1.4-.8-1.9-1.2-.5-.8-1-.6-1.5-.7-.4-.7-2.5-1.3-2.5-1.3s-.1.1-.3.2-1 .8-1.3 1c-.5-.1-1.9.1-2.4.8-.5.6-1 .1-1.5.7-.4.3-2.5 1.3-2.5 1.3v8s1.7 1.2 2.2.9c.5.2 1.3 1.3 1.8 1.1.5.2 1 .2 1.5.7.4.4 2.5 1.3 2.5 1.3z" fill="#539b00"/><path d="m8 16s.4-.7 1.2-1.1c.4-.2.9 0 1.3-.2.5.3 1-.4 1.5-.7.5-.9 1-.6 1.5-.7.5.3.9-.1 1.3-.6.4-.2.7-.3.9-.5s.3-.2.3-.2v-8s-.5.3-1.3.6c-.4.2-.8.4-1.3.6-.4 1.3-.9 1.8-1.4.8-.5.7-1 2.2-1.5.7-.5-.1-.9-.1-1.3.6-.3.7-.6.5-.9.5-.2.1-.3.2-.3.2z" opacity=".29"/><path d="m0 4v8s1.7 1.2 2.2.9c.5.2 1.3 1.3 1.8 1.1.5.2 1 .2 1.5.7.4.4 2.5 1.3 2.5 1.3v-8s-.1-.1-.3-.2c-.3-.1-1.3.4-1.7.2-.4-.1-.5-2.4-1-2-.5-.4-.5-.3-1 0-.5-.7-1.5.2-2 0-.5-.4-.4-1.2-.8-1.4-.7-.3-1.2-.6-1.2-.6z" opacity=".11"/><g fill="#fff"><path d="m8 2.6c0 .3.1.4.3-1 .2 3-1.4-1.1-1-.5.5.3.7.3.9 0 .2 1.1-1.5.8-.6 1.1.6-1.8 1.1.1 1.6-.4.5-.3.9-.1 1.2-.3.3-.1.5-.1.5-.1s-.3.2-.6.6c-.4.7-.8 1.2-1.3 1-.5 1-1-.5-1.4.5-.4.6 1-.7.5-.8-6.1 3.6 1.2-2 .5-.4-.3-.6-.6 1.3-.6.3z" opacity=".2"/><path d="m6 7.6c0 .3.1.4.3-1 .2 3 .6-2.1 1-1.5.5.3.7.3.9 0 .2 1.1.5-.2 1.4.1.6-1.8-.9 1.1-.4.6.5-.3.9-.1 1.2-.3.3-.1.5-.1.5-.1s-.3.2-.6.6c-.4.7-.8 1.2-1.3 1-.5 1 1-1.5.6-.5-.4.6-1 .3-1.5.2-.5.4-1.1-.4-1.5.6-.3-.6-.6 1.3-.6.3z" opacity=".2"/></g></svg>