<svg enable-background="new 0 0 32 32" viewBox="0 0 32 32" xmlns="http://www.w3.org/2000/svg"><path d="m11.4 23.4-3.5 1.3 2.5.1-1.6 1h3.6l2.1-.5-.4 1.7 2.2-.4 1.6-1.3 3 1 3.2-.5-1-.6 1.1-.3-4.6-1.2z" opacity=".3"/><path d="m12.8 10.3c2.6-.3 3.8-5.3 3.8-5.3s.5 4.9 3.8 6.2c.1.5-1.1.9-2.2.4-.1 1 2.1 2.5 3.4 2.9 0 .5-1.2 1.3-2.4.9.5 1.2 1.4 2.2 3.4 2.7-.9.5-2.4 0-3.3 0 0 .8 2.9 1.5 4.4 1.5-.3.8-1.7 1.5-2.9 1.5 0 .9 2.9 1.6 3.6 1.8.1.7-2 1.2-3.4.7 0 .9 1.5 1.6 2.2 2 0 .7-4.7.5-5.4-.9-.9.3-1.4 2.2-3.1 2 .2-.5.7-2-.1-2.4-.7 1-3.5 1.6-4.7 1.1.3-.3 2-.5 1.5-1.6-1.5 0-3.5-1.4-3.4-2 .4.3 2.8.6 2.9 0-1.1-.1-1.8-1-1.8-1.6.4.2 2.8.6 2.9-.2-1-.4-2-1-1.9-1.8.7.1 2.3 0 2.4-.7-.9-.3-1.8-1.7-1.8-2.2.7.2 3.3 0 3.3-.5-1.1-.1-2.1-.5-2-1.3 1.5-.1 3.1-1.7 3.1-2.4-.8.2-1.9 0-2.3-.8z" fill="#28896d"/><g fill="#fff"><path d="m22.8 18.1s-1.9.1-3.4-1.5-2-2.5-2-2.5-.4.5-1.6 1.3-4 .7-4 .7 1.7 1.3 4.2.5c1.1-.4 1-.6 1-.6s1.7 1.5 2.4 1.7c2.4.9 3.4.4 3.4.4z" opacity=".2"/><path d="m12.6 13.7c2.2-1.2 3.5-2.1 4-4-.1.9 1.7 3.3 3.4 4.5-1.3-.1-2.9-2.3-3.6-2.2-.1.7-2.3 1.6-3.8 1.7z" opacity=".2"/><path d="m13.6 10.5c2.2-1.2 2.5-2.7 3-4.6-.1.9 1 3.6 2.7 4.9-1.3-.1-2.3-1.9-2.9-2.4-.1.7-1.3 1.9-2.8 2.1z" opacity=".2"/><path d="m10.4 18.6s2.7 0 4.8-1c.6 0 1.5 1.9 2 2 .5-.1.8-.3 1.3-.6.4 1.9 3.7 3.5 5.6 4-3.4 0-5.8-2.2-6.2-2.9-.4.3-.5 1.3-1.3 1.3-.6-.9-1.6-2.2-1.8-2.9-.7-.2-3.4.7-4.4.1z" opacity=".2"/><path d="m8.8 22.3c3.8.4 5.2-1.3 5.8-2-.4 2.6-4.7 3.3-5.8 2z" opacity=".2"/><path d="m18.8 21.8c1.1 1.8 1.5 2.8 4 3.6-4 .2-4.4-2.8-4-3.6z" opacity=".2"/><path d="m15.2 26.1c.2.1 2.6-3.6.8-4.3-.9.6-.1 2.5-.8 4.3z" opacity=".2"/></g><path d="m17.9 10.8c-1-.8-1-.8-1-.8s.8 1 1.3 1.6c1 .5 2.2.1 2.2-.4 0 0-1.5.3-2.5-.4z" opacity=".3"/><path d="m19.2 24.5c-1.2-1.2-1.5-3.1-1.5-3.1s-.7 2.4-1.3 3.6c-.4.7-.7 1.3-1.7 1.6v.1c1.7.1 2.3-1.7 3.1-2 .8 1.4 5.4 1.6 5.4.9.1-.1-2.8.1-4-1.1z" opacity=".3"/><path d="m21.3 20.1c-1.2-.1-2.9-2.3-2.9-2.3s-.8.4-1.3.1-.9-.7-.9-.7.4 2.1 1.1 2 1-.3 1.3-.6c.3 1.6 2.4 2.5 2.4 2.5 1.2.1 2.6-.7 2.9-1.5 0-.1-1.4.5-2.6.5z" opacity=".3"/><path d="m13.9 14.8c.4 0 .7 0 1.1-.1.9-.1 2.5-1 2.5-1l-1.2.1.5-1.1s-1.4 1.1-2.6 1.3-2.2-.6-2.2-.6c-.2.9.7 1.3 1.9 1.4z" opacity=".3"/><path d="m11.9 19.9c-.1.8-2.5.4-2.9.2 1.8 1.2 5.2-.2 5.2-.2h-1.6l1.9-.9s-4.1.2-4.3-.8c-.2.8.8 1.4 1.7 1.7z" opacity=".3"/><path d="m13.6 20.8s-1.3.4-2.2.4c-.8 0-2.4-.8-2.4-1 .1.7.7 1.5 1.8 1.6 2.1.1 2.8-1 2.8-1z" opacity=".3"/><path d="m15.2 24.6c0-.7-.2-5-.2-5s-.1 2.5-2.4 4.8c-.8.7-2.8 1-2.8 1 1.2.5 4-.1 4.7-1.1.6.3.5 1.3.3 1.9.2-.5.4-1.1.4-1.6z" opacity=".3"/></svg>