<svg enable-background="new 0 0 32 40" viewBox="0 0 32 40" xmlns="http://www.w3.org/2000/svg"><path d="m8.8 29.6-5.2 1.9 3.7.2-2.3 1.5h5.4l3.2-.8-.5 2.6 3.3-.6 2.4-2 4.6 1.5 4.7-.7-1.5-.9 1.7-.4-6.9-1.9z" opacity=".3"/><path d="m11 9.6c3.9-.5 5.8-8 5.8-8s.8 7.4 5.8 9.4c.1.7-1.7 1.3-3.3.6-.1 1.5 3.2 3.9 5.2 4.4.1.8-1.8 2-3.6 1.4.8 1.8 2.2 3.3 5.2 4.1-1.4.8-3.6.1-5 0 0 1.2 4.4 2.3 6.6 2.2-.4 1.1-2.5 2.3-4.4 2.2 0 1.3 4.3 2.4 5.5 2.8.1 1.1-3 1.8-5.2 1.1-.1 1.3 2.2 2.5 3.3 3 0 1-7.1.7-8.3-1.4-1.3.5-2.2 3.3-4.8 3.1.3-.7 1.1-3.1-.2-3.6-1 1.4-5.4 2.5-7.2 1.7.6-.6 3.2-1 2.4-2.6-2.3-.1-5.3-2.1-5.2-3 .6.4 4.3 1 4.4 0-1.7-.1-2.7-1.4-2.8-2.5.6.3 4.3.9 4.4-.3-1.3-.5-2.9-1.4-2.8-2.5 1.1.1 3.4.1 3.6-1.1-1.4-.5-2.7-2.5-2.8-3.3 1 .3 5 .1 5-.8-1.7-.1-3.2-.8-3-1.9 2.2-.2 4.7-2.5 4.7-3.6-.9.2-2.7-.1-3.3-1.4z" fill="#28896d"/><g fill="#fff"><path d="m26.1 21.4s-2.8.1-5.2-2.2-3-3.9-3-3.9-.6.8-2.5 1.9-6.1 1.1-6.1 1.1 2.6 2 6.3.8c1.8-.6 1.7-1 1.7-1s2.6 2.2 3.6 2.6c3.7 1.5 5.2.7 5.2.7z" opacity=".2"/><path d="m10.7 14.8c3.3-1.8 5.4-3.2 6.1-6.1-.2 1.3 2.6 5 5.2 6.9-1.9-.2-4.4-3.4-5.5-3.3-.2 1-3.5 2.3-5.8 2.5z" opacity=".2"/><path d="m12.2 9.9c3.3-1.8 3.9-4.1 4.5-6.9-.2 1.3 1.5 5.5 4.1 7.4-1.9-.2-3.6-3-4.4-3.6-.1 1-1.9 2.9-4.2 3.1z" opacity=".2"/><path d="m7.3 22.2s4.1-.1 7.2-1.6c1-.1 2.3 2.9 3 3 .8-.2 1.2-.4 2-.9.7 2.8 5.7 5.3 8.5 6.1-5.2 0-8.8-3.4-9.4-4.4-.6.5-.8 1.9-1.9 1.9-.9-1.3-2.3-3.3-2.7-4.3-1-.2-5.1 1.1-6.7.2z" opacity=".2"/><path d="m4.9 27.8c5.8.6 7.9-2 8.9-3.1-.7 4-7.2 5.1-8.9 3.1z" opacity=".2"/><path d="m20.2 27.1c1.6 2.7 2.3 4.2 6 5.5-6.1.3-6.7-4.3-6-5.5z" opacity=".2"/><path d="m14.7 33.7c.3.2 3.9-5.5 1.3-6.5-1.5.8-.2 3.7-1.3 6.5z" opacity=".2"/></g><path d="m18.8 10.3c-1.5-1.2-1.5-1.2-1.5-1.2s1.2 1.5 2 2.4c1.6.8 3.4.1 3.3-.6 0 .1-2.3.6-3.8-.6z" opacity=".3"/><path d="m20.7 31.1c-1.8-1.9-2.3-4.8-2.3-4.8s-1.1 3.8-2 5.6c-.6 1.1-1.1 2-2.5 2.4v.1c2.6.2 3.5-2.6 4.8-3.1 1.2 2.1 8.3 2.4 8.3 1.4 0 0-4.4.3-6.3-1.6z" opacity=".3"/><path d="m23.9 24.5c-1.8-.1-4.4-3.5-4.4-3.5s-1.3.6-2 .1c-.8-.5-1.4-1.1-1.4-1.1s.7 3.2 1.7 3.1 1.6-.4 2-.9c.5 2.5 3.7 3.8 3.7 3.8 1.9.1 4-1.1 4.4-2.2-.1-.2-2.1.8-4 .7z" opacity=".3"/><path d="m12.6 16.5c.5 0 1.1 0 1.6-.1 1.4-.2 3.8-1.5 3.8-1.5l-1.8.2.7-1.6s-2.1 1.7-4 2c-1.9.2-3.3-.9-3.3-.9-.1 1.1 1.3 1.7 3 1.9z" opacity=".3"/><path d="m9.6 24.2c-.1 1.2-3.8.6-4.4.3 2.7 1.8 7.8-.3 7.8-.3h-2.5l2.8-1.4s-6.3.4-6.5-1.2c-.1 1.2 1.5 2.1 2.8 2.6z" opacity=".3"/><path d="m12.2 25.5s-2 .6-3.3.6-3.6-1.2-3.7-1.6c.1 1 1.1 2.3 2.7 2.4 3.2.3 4.3-1.4 4.3-1.4z" opacity=".3"/><path d="m14.7 31.4c0-1.1-.3-7.6-.3-7.6s-.1 3.9-3.6 7.2c-1.2 1.1-4.2 1.5-4.2 1.5 1.8.8 6.1-.2 7.2-1.7 1 .4.7 1.9.4 2.9.2-.6.5-1.6.5-2.3z" opacity=".3"/></svg>