<svg enable-background="new 0 0 32 48" viewBox="0 0 32 48" xmlns="http://www.w3.org/2000/svg"><ellipse cx="15.5" cy="39" opacity=".3" rx="5.6" ry="3"/><path d="m16 26c.6 0 1 .4 1 1v12c0 .6-.4 1-1 1-.6 0-1-.4-1-1v-12c0-.6.4-1 1-1z" fill="#825012"/><g fill="#539b00"><path d="m17.5 36c-1.4 0-2.5-1.1-2.5-2.5v-16c0-1.4 1.1-2.5 2.5-2.5 1.4 0 2.5 1.1 2.5 2.5v16c0 1.4-1.1 2.5-2.5 2.5z"/><path d="m20.5 31c-1.4 0-2.5-1.1-2.5-2.5v-16c0-1.4 1.1-2.5 2.5-2.5 1.4 0 2.5 1.1 2.5 2.5v16c0 1.4-1.1 2.5-2.5 2.5z"/><path d="m19.5 28c-1.4 0-2.5-1.1-2.5-2.5v-16c0-1.4 1.1-2.5 2.5-2.5 1.4 0 2.5 1.1 2.5 2.5v16c0 1.4-1.1 2.5-2.5 2.5z"/><path d="m17.2 1c-1.3.1-2.2 1.3-2.2 2.6 0 .3-.2.5-.5.4-.5-.1-1-.1-1.6.2-1.2.5-1.9 1.8-1.9 3.1v1.3c0 .2-.2.4-.4.4s-.4 0-.6.1c-1.2.2-2 1.3-2 2.5v15.8c0 .8.4 1.6 1 2.1s1 1.3 1 2.1v.9c0 1.4 1.1 2.5 2.5 2.5h1c1.4 0 2.5-1.1 2.5-2.5v-5.1c.6-.6 1-1.5 1-2.4v-8.1c.3.1.6.1 1 0 1.2-.2 2-1.4 2-2.6v-10.9c0-1.4-1.3-2.6-2.8-2.4z"/><path d="m16 27.4c.6-.6 1-1.5 1-2.4v-2c0 .9-.4 1.8-1 2.4z"/></g><g opacity=".3"><path d="m17.5 34c-1.1 0-2-.7-2.3-1.6-.4.4-1 .6-1.7.6h-1c-1.4 0-2.5-1.1-2.5-2.5v2c0 1.4 1.1 2.5 2.5 2.5h1c.6 0 1.2-.2 1.7-.6.4 1 1.3 1.6 2.3 1.6 1.4 0 2.5-1.1 2.5-2.5v-2c0 1.4-1.1 2.5-2.5 2.5z"/><path d="m20.5 29c-.2 0-.3 0-.5-.1v2c.2 0 .3.1.5.1 1.4 0 2.5-1.1 2.5-2.5v-2c0 1.4-1.1 2.5-2.5 2.5z"/></g><g opacity=".3"><path d="m17.5 25h-1c-.5.6-1.2 1-2 1-1.4 0-2.5-1.1-2.5-2.5v2c0 1.4 1.1 2.5 2.5 2.5.8 0 1.5-.4 2-1h1c1.4 0 2.5-1.1 2.5-2.5v-2c0 1.4-1.1 2.5-2.5 2.5z"/><path d="m17.5 17c-.2 0-.3 0-.5-.1v2c.2 0 .3.1.5.1 1.4 0 2.5-1.1 2.5-2.5v-2c0 1.4-1.1 2.5-2.5 2.5z"/></g><path d="m17 6c-1.1 0-2 .9-2 2v.3c-.1 0-.3 0-.4 0h-.8c-1.1 0-2 .9-2 2v1.4c-.9.2-1.6 1-1.6 2v2c0-1 .7-1.8 1.6-2v-1.4c0-1.1.9-2 2-2h.8.4v-.3c0-1.1.9-2 2-2s2 .9 2 2v-2c0-1.1-.9-2-2-2z" fill="#fff" opacity=".2"/><path d="m10 30.5v-.9c0-.8-.3-1.6-1-2.1-.6-.5-1-1.3-1-2.1v2c0 .8.4 1.6 1 2.1s1 1.3 1 2.1z" opacity=".3"/></svg>