<svg enable-background="new 0 0 32 24" viewBox="0 0 32 24" xmlns="http://www.w3.org/2000/svg"><ellipse cx="15.5" cy="17" opacity=".3" rx="6.5" ry="2"/><path d="m14 14h3v4h-3z" fill="#825012"/><g fill="#539b00"><circle cx="21" cy="12.1" r="3.8"/><circle cx="18.9" cy="7.1" r="5.3"/><circle cx="13.6" cy="10.6" r="5.3"/><circle cx="10.7" cy="8.2" r="3.5"/></g><path d="m13.1 5.1c-1 0-1.8-.3-1.8-1.2v-1.5h-.6v1.8c0 1 .8 1.8 1.8 1.8h.6z" fill="#825012"/><circle cx="12.9" cy="11.9" fill="#539b00" r="5.7"/><path d="m12.9 16.2c-2.9 0-5.3-2.2-5.7-5v.7c0 3.2 2.6 5.7 5.7 5.7s5.7-2.6 5.7-5.7c0-.2 0-.5 0-.7-.4 2.8-2.8 5-5.7 5z" opacity=".3"/><circle cx="14.8" cy="4.7" fill="#539b00" r="4.7"/><circle cx="18.6" cy="3.2" fill="#539b00" r="2.6"/><path d="m10.2 7.1c1.3 0 2.4.7 2.9 1.8.2 0 .4-.1.6-.1 1.1 0 2 .5 2.6 1.3-.2-1.1-1.2-1.9-2.3-1.9 0 0 0 0-.1 0-.3-1.3-1.5-2.4-2.9-2.4-1.2 0-2.2.7-2.7 1.7.6-.2 1.2-.4 1.9-.4z" fill="#fff" opacity=".2"/><path d="m14.8 5.5c.1.1.3.2.4.3h.2v-1.7c-.2 0-.4 0-.6-.1z" fill="#825012"/><path d="m15.1 2.4c1.4 0 2.5 1.1 2.6 2.5.3-.1.6-.1.9-.1 1.5 0 2.7 1 3.1 2.3.1-.3.1-.5.1-.8 0-1.5-1.2-2.6-2.6-2.6-.3 0-.6.1-.9.2-.1-1.1-1-1.9-2-1.9-.6 0-1.1.2-1.5.6.1-.2.2-.2.3-.2z" fill="#fff" opacity=".2"/><path d="m24.2 7.9c-1 1.1-2.4 1.8-4 1.8-.1 0-.2 0-.4 0 .6.6.9 1.4 1 2.3 1.8-.6 3.1-2.2 3.4-4.1z" opacity=".3"/><path d="m22.7 13.9c.2.4.3.9.3 1.4 1-.6 1.7-1.7 1.8-2.9-.5.7-1.2 1.3-2.1 1.5z" opacity=".3"/><circle cx="18.2" cy="12.2" fill="#539b00" r="5.4"/><path d="m16 10.6c.7 0 1.4.2 1.9.5.7-.7 1.7-1.1 2.8-1.1.9 0 1.8.3 2.5.8-.6-1.2-1.9-2-3.4-2-1 0-1.8.3-2.5.9-.4-.2-.9-.3-1.3-.3-1.4 0-2.6 1-2.9 2.4.8-.8 1.8-1.2 2.9-1.2z" fill="#fff" opacity=".2"/><path d="m18.8 16.5c-2.2 0-4.1-1.2-5.2-3-.2 0-.2 4.1 4.6 4.1 2.1 0 3.9-1.2 4.8-2.9-1.1 1.1-2.6 1.8-4.2 1.8z" opacity=".3"/><path d="m18 7.4c0 1-.9 1.2-2 1.2v.4h.6c1 0 1.4-.4 1.4-1.4v-1.1s0 0 0-.1z" fill="#825012"/></svg>