<?xml version="1.0" encoding="UTF-8" standalone="no"?>
<!-- Created with Inkscape (http://www.inkscape.org/) -->

<svg
   xmlns:dc="http://purl.org/dc/elements/1.1/"
   xmlns:cc="http://creativecommons.org/ns#"
   xmlns:rdf="http://www.w3.org/1999/02/22-rdf-syntax-ns#"
   xmlns:svg="http://www.w3.org/2000/svg"
   xmlns="http://www.w3.org/2000/svg"
   xmlns:sodipodi="http://sodipodi.sourceforge.net/DTD/sodipodi-0.dtd"
   xmlns:inkscape="http://www.inkscape.org/namespaces/inkscape"
   width="16.407631mm"
   height="22.470497mm"
   viewBox="0 0 16.407631 22.470497"
   version="1.1"
   id="svg581"
   inkscape:version="0.92.2 (5c3e80d, 2017-08-06)"
   sodipodi:docname="pipes-.svg">
  <defs
     id="defs575" />
  <sodipodi:namedview
     id="base"
     pagecolor="#ffffff"
     bordercolor="#666666"
     borderopacity="1.0"
     inkscape:pageopacity="0.0"
     inkscape:pageshadow="2"
     inkscape:zoom="0.5037107"
     inkscape:cx="207.21666"
     inkscape:cy="390.1276"
     inkscape:document-units="mm"
     inkscape:current-layer="svg581"
     showgrid="false"
     inkscape:window-width="1360"
     inkscape:window-height="706"
     inkscape:window-x="-8"
     inkscape:window-y="-8"
     inkscape:window-maximized="1"
     fit-margin-top="0"
     fit-margin-left="0"
     fit-margin-right="0"
     fit-margin-bottom="0" />
  <metadata
     id="metadata578">
    <rdf:RDF>
      <cc:Work
         rdf:about="">
        <dc:format>image/svg+xml</dc:format>
        <dc:type
           rdf:resource="http://purl.org/dc/dcmitype/StillImage" />
        <dc:title></dc:title>
      </cc:Work>
    </rdf:RDF>
  </metadata>
  <g
     inkscape:label="Layer 1"
     inkscape:groupmode="layer"
     id="layer1"
     transform="translate(117.11223,-416.5837)" />
  <g
     id="i443"
     class="top-level-node"
     transform="matrix(0.37892914,0,0,0.37892914,0,-0.89048348)">
    <g
       id="g423">
      <g
         id="g421">
        <path
           d="m 15.7,12.6 -2,-1 C 12.3,10.9 10.3,11 8,12.1 c -4.4,2.2 -8,7.6 -8,12 0,2.3 1,3.9 2.6,4.6 l 1.5,0.8 c 1.5,0.9 3.6,0.8 5.9,-0.3 4.4,-2.2 8,-7.6 8,-12 0,-2.4 -0.9,-3.9 -2.3,-4.6 z"
           id="path399"
           inkscape:connector-curvature="0"
           style="fill:#999999" />
        <path
           d="m 18,17.1 c 0,4.4 -3.6,9.8 -8,12 -4.4,2.2 -8,0.4 -8,-4 0,-4.4 3.6,-9.8 8,-12 4.4,-2.2 8,-0.5 8,4 z"
           id="path401"
           inkscape:connector-curvature="0"
           style="opacity:0.2" />
        <path
           d="m 34.6,24.1 -20,-10 c -1.2,-0.6 -2.8,-0.5 -4.6,0.4 -3.6,1.8 -6.5,6.2 -6.5,9.7 0,1.9 0.8,3.2 2.1,3.7 l 19.7,9.8 z"
           id="path403"
           inkscape:connector-curvature="0"
           style="fill:#999999" />
        <path
           d="m 34.6,24.1 -20,-10 c -1.2,-0.6 -2.8,-0.5 -4.6,0.4 -3.6,1.8 -6.5,6.2 -6.5,9.7 0,1.9 0.8,3.2 2.1,3.7 l 19.7,9.8 z"
           id="path405"
           inkscape:connector-curvature="0"
           style="opacity:0.1" />
        <path
           d="m 40,50 c -4.4,-2.2 -11.6,-2.2 -16,0 -2.2,1.1 -3.3,2.6 -3.3,4 v 2 c 0,1.4 1.1,2.9 3.3,4 4.4,2.2 11.6,2.2 16,0 2.2,-1.1 3.3,-2.6 3.3,-4 v -2 c 0,-1.4 -1.1,-2.9 -3.3,-4 z"
           id="path407"
           inkscape:connector-curvature="0"
           style="fill:#999999" />
        <path
           d="m 40,58 c -4.4,2.2 -11.6,2.2 -16,0 -2.2,-1.1 -3.3,-2.6 -3.3,-4 v 2 c 0,1.4 1.1,2.9 3.3,4 4.4,2.2 11.6,2.2 16,0 2.2,-1.1 3.3,-2.6 3.3,-4 v -2 c 0,1.4 -1.1,2.9 -3.3,4 z"
           id="path409"
           inkscape:connector-curvature="0"
           style="opacity:0.1" />
        <path
           d="m 23,8 v 46 c 0,1.2 0.9,2.3 2.6,3.2 3.5,1.8 9.2,1.8 12.7,0 1.8,-0.9 2.6,-2 2.6,-3.2 V 8 Z"
           id="path411"
           inkscape:connector-curvature="0"
           style="fill:#999999" />
        <path
           d="m 23,8 v 46 c 0,1.2 0.9,2.3 2.6,3.2 3.5,1.8 9.2,1.8 12.7,0 1.8,-0.9 2.6,-2 2.6,-3.2 V 8 Z"
           id="path413"
           inkscape:connector-curvature="0"
           style="opacity:0.2" />
        <path
           d="M 40,4 C 35.6,1.8 28.4,1.8 24,4 21.8,5.1 20.7,6.6 20.7,8 v 2 c 0,1.4 1.1,2.9 3.3,4 4.4,2.2 11.6,2.2 16,0 2.2,-1.1 3.3,-2.6 3.3,-4 V 8 C 43.3,6.6 42.2,5.1 40,4 Z"
           id="path415"
           inkscape:connector-curvature="0"
           style="fill:#999999" />
        <path
           d="m 38.4,4.8 c 3.5,1.8 3.5,4.6 0,6.4 -3.5,1.8 -9.2,1.8 -12.7,0 -3.5,-1.8 -3.5,-4.6 0,-6.4 3.5,-1.8 9.1,-1.7 12.7,0 z"
           id="path417"
           inkscape:connector-curvature="0"
           style="opacity:0.3" />
        <path
           d="M 40,12 C 35.6,14.2 28.4,14.2 24,12 21.8,10.9 20.7,9.4 20.7,8 v 2 c 0,1.4 1.1,2.9 3.3,4 4.4,2.2 11.6,2.2 16,0 2.2,-1.1 3.3,-2.6 3.3,-4 V 8 c 0,1.4 -1.1,2.9 -3.3,4 z"
           id="path419"
           inkscape:connector-curvature="0"
           style="opacity:0.1" />
      </g>
    </g>
  </g>
  <g
     id="i444"
     class="top-level-node"
     transform="matrix(0.37892914,0,0,0.37892914,27.282897,-0.89048348)">
    <g
       id="g452">
      <g
         id="g450">
        <path
           d="M 24,50 C 19.6,47.8 12.4,47.8 8,50 5.8,51.1 4.7,52.6 4.7,54 v 2 c 0,1.4 1.1,2.9 3.3,4 4.4,2.2 11.6,2.2 16,0 2.2,-1.1 3.3,-2.6 3.3,-4 v -2 c 0,-1.4 -1.1,-2.9 -3.3,-4 z"
           id="path426"
           inkscape:connector-curvature="0"
           style="fill:#999999" />
        <path
           d="M 24,58 C 19.6,60.2 12.4,60.2 8,58 5.8,56.9 4.7,55.4 4.7,54 v 2 c 0,1.4 1.1,2.9 3.3,4 4.4,2.2 11.6,2.2 16,0 2.2,-1.1 3.3,-2.6 3.3,-4 v -2 c 0,1.4 -1.1,2.9 -3.3,4 z"
           id="path428"
           inkscape:connector-curvature="0"
           style="opacity:0.1" />
        <path
           d="m 7,8 v 46 c 0,1.2 0.9,2.3 2.6,3.2 3.5,1.8 9.2,1.8 12.7,0 1.8,-0.9 2.6,-2 2.6,-3.2 V 8 Z"
           id="path430"
           inkscape:connector-curvature="0"
           style="fill:#999999" />
        <path
           d="m 7,8 v 46 c 0,1.2 0.9,2.3 2.6,3.2 3.5,1.8 9.2,1.8 12.7,0 1.8,-0.9 2.6,-2 2.6,-3.2 V 8 Z"
           id="path432"
           inkscape:connector-curvature="0"
           style="opacity:0.2" />
        <path
           d="M 24,4 C 19.6,1.8 12.4,1.8 8,4 5.8,5.1 4.7,6.6 4.7,8 v 2 c 0,1.4 1.1,2.9 3.3,4 4.4,2.2 11.6,2.2 16,0 2.2,-1.1 3.3,-2.6 3.3,-4 V 8 C 27.3,6.6 26.2,5.1 24,4 Z"
           id="path434"
           inkscape:connector-curvature="0"
           style="fill:#999999" />
        <path
           d="m 22.4,4.8 c 3.5,1.8 3.5,4.6 0,6.4 C 18.9,13 13.2,13 9.7,11.2 6.2,9.4 6.2,6.6 9.7,4.8 13.2,3 18.8,3.1 22.4,4.8 Z"
           id="path436"
           inkscape:connector-curvature="0"
           style="opacity:0.3" />
        <path
           d="M 24,12 C 19.6,14.2 12.4,14.2 8,12 5.8,10.9 4.7,9.4 4.7,8 v 2 c 0,1.4 1.1,2.9 3.3,4 4.4,2.2 11.6,2.2 16,0 2.2,-1.1 3.3,-2.6 3.3,-4 V 8 c 0,1.4 -1.1,2.9 -3.3,4 z"
           id="path438"
           inkscape:connector-curvature="0"
           style="opacity:0.1" />
        <path
           d="m 40.6,35.1 -16,-8 c -1.2,-0.6 -2.8,-0.5 -4.6,0.4 -3.6,1.8 -6.5,6.2 -6.5,9.7 0,1.9 0.8,3.2 2.1,3.7 l 15.7,7.8 z"
           id="path440"
           inkscape:connector-curvature="0"
           style="fill:#999999" />
        <path
           d="m 40.6,35.1 -16,-8 c -1.2,-0.6 -2.8,-0.5 -4.6,0.4 -3.6,1.8 -6.5,6.2 -6.5,9.7 0,1.9 0.8,3.2 2.1,3.7 l 15.7,7.8 z"
           id="path442"
           inkscape:connector-curvature="0"
           style="opacity:0.1" />
        <path
           d="m 45.7,35.6 -2,-1 C 42.3,33.9 40.3,34 38,35.1 c -4.4,2.2 -8,7.6 -8,12 0,2.3 1,3.9 2.6,4.6 l 1.5,0.8 c 1.5,0.9 3.6,0.8 5.9,-0.3 4.4,-2.2 8,-7.6 8,-12 0,-2.4 -0.9,-3.9 -2.3,-4.6 z"
           id="path444"
           inkscape:connector-curvature="0"
           style="fill:#999999" />
        <path
           d="m 48,40.1 c 0,4.4 -3.6,9.8 -8,12 -4.4,2.2 -8,0.4 -8,-4 0,-4.4 3.6,-9.8 8,-12 4.4,-2.2 8,-0.5 8,4 z"
           id="path446"
           inkscape:connector-curvature="0"
           style="opacity:0.2" />
        <path
           d="m 46.5,40.8 c 0,3.6 -2.9,8 -6.5,9.7 -3.6,1.8 -6.5,0.3 -6.5,-3.3 0,-3.6 2.9,-8 6.5,-9.7 3.6,-1.7 6.5,-0.3 6.5,3.3 z"
           id="path448"
           inkscape:connector-curvature="0"
           style="opacity:0.2" />
      </g>
    </g>
  </g>
  <g
     id="i445"
     class="top-level-node"
     transform="matrix(0.37892914,0,0,0.37892914,60.628662,5.1723845)">
    <g
       id="g465">
      <g
         id="g463">
        <path
           d="M 60.9,29.3 12.6,5.2 C 11.4,4.6 9.8,4.7 8,5.6 4.4,7.4 1.5,11.8 1.5,15.3 c 0,1.9 0.8,3.2 2.1,3.7 l 47.6,23.8 c 1.2,0.7 2.9,0.7 4.8,-0.3 3.6,-1.8 6.5,-6.2 6.5,-9.7 0,-1.6 -0.6,-2.8 -1.6,-3.5 z"
           id="path455"
           inkscape:connector-curvature="0"
           style="fill:#999999" />
        <path
           d="m 49.5,39.3 c 0,-3.6 2.9,-8 6.5,-9.7 1.8,-0.9 3.4,-1 4.5,-0.4 L 12.6,5.2 C 11.4,4.6 9.8,4.7 8,5.6 4.4,7.4 1.5,11.8 1.5,15.3 c 0,1.9 0.8,3.2 2.1,3.7 l 47.6,23.8 c -1,-0.6 -1.7,-1.8 -1.7,-3.5 z"
           id="path457"
           inkscape:connector-curvature="0"
           style="opacity:0.1" />
        <path
           d="m 62.5,32.8 c 0,3.6 -2.9,8 -6.5,9.7 -3.6,1.8 -6.5,0.3 -6.5,-3.3 0,-3.6 2.9,-8 6.5,-9.7 3.6,-1.7 6.5,-0.3 6.5,3.3 z"
           id="path459"
           inkscape:connector-curvature="0"
           style="opacity:0.2" />
        <path
           d="m 61.8,33.1 c 0,3.2 -2.6,7.1 -5.8,8.7 -3.2,1.6 -5.8,0.3 -5.8,-2.9 0,-3.2 2.6,-7.1 5.8,-8.7 3.2,-1.6 5.8,-0.3 5.8,2.9 z"
           id="path461"
           inkscape:connector-curvature="0"
           style="opacity:0.2" />
      </g>
    </g>
  </g>
  <g
     id="i446"
     class="top-level-node"
     transform="matrix(0.37892914,0,0,0.37892914,97.00586,5.1723845)">
    <g
       id="g476">
      <g
         id="g474">
        <path
           d="M 22.4,4.8 C 18.9,3 13.2,3 9.7,4.8 7.9,5.7 7,6.8 7,8 v 47.7 c 0,1.2 0.9,2.3 2.6,3.2 3.5,1.8 9.2,1.8 12.7,0 1.8,-0.9 2.6,-2 2.6,-3.2 V 8 C 25,6.8 24.1,5.7 22.4,4.8 Z"
           id="path468"
           inkscape:connector-curvature="0"
           style="fill:#999999" />
        <path
           d="M 22.4,11.2 C 18.9,13 13.2,13 9.7,11.2 7.9,10.3 7,9.2 7,8 v 47.7 c 0,1.2 0.9,2.3 2.6,3.2 3.5,1.8 9.2,1.8 12.7,0 1.8,-0.9 2.6,-2 2.6,-3.2 V 8 c 0.1,1.2 -0.8,2.3 -2.5,3.2 z"
           id="path470"
           inkscape:connector-curvature="0"
           style="opacity:0.2" />
        <path
           d="m 21.7,5.2 c 3.1,1.6 3.1,4.1 0,5.7 -3.1,1.6 -8.2,1.6 -11.3,0 -3.1,-1.6 -3.1,-4.1 0,-5.7 3.1,-1.6 8.1,-1.6 11.3,0 z"
           id="path472"
           inkscape:connector-curvature="0"
           style="opacity:0.3" />
      </g>
    </g>
  </g>
  <g
     id="i447"
     class="top-level-node"
     transform="matrix(0.37892914,0,0,0.37892914,100.03729,44.581024)">
    <g
       id="g497">
      <g
         id="g495">
        <path
           d="m 22.4,4.8 c 3.5,1.8 3.5,4.6 0,6.4 C 18.9,13 13.2,13 9.7,11.2 6.2,9.4 6.2,6.6 9.7,4.8 13.2,3 18.8,3.1 22.4,4.8 Z"
           stroke-miterlimit="10"
           id="path479"
           inkscape:connector-curvature="0"
           style="fill:none;stroke:#cc291f;stroke-width:2;stroke-miterlimit:10" />
        <path
           d="m 18.8,12.1 c -1.6,-0.8 -4.1,-0.8 -5.7,0 C 12.4,12.5 12,13 12,13.5 V 16 c 0,0.5 0.4,1 1.2,1.4 1.6,0.8 4.1,0.8 5.7,0 C 19.6,17 20,16.5 20,16 v -2.5 c 0,-0.5 -0.4,-1 -1.2,-1.4 z"
           id="path481"
           inkscape:connector-curvature="0"
           style="fill:#999999" />
        <path
           d="m 18.8,14.9 c -1.6,0.8 -4.1,0.8 -5.7,0 C 12.4,14.5 12,14 12,13.5 V 16 c 0,0.5 0.4,1 1.2,1.4 1.6,0.8 4.1,0.8 5.7,0 C 19.6,17 20,16.5 20,16 v -2.5 c 0,0.5 -0.4,1 -1.2,1.4 z"
           id="path483"
           inkscape:connector-curvature="0"
           style="opacity:0.1" />
        <path
           d="M 17.4,7.3 C 16.6,6.9 15.4,6.9 14.6,7.3 14.2,7.5 14,7.7 14,8 v 5.2 c 0,0.3 0.2,0.5 0.6,0.7 0.8,0.4 2,0.4 2.8,0 0.4,-0.2 0.6,-0.5 0.6,-0.7 V 8 C 18,7.7 17.8,7.5 17.4,7.3 Z"
           id="path485"
           inkscape:connector-curvature="0"
           style="fill:#999999" />
        <path
           d="m 17.4,8.7 c -0.8,0.4 -2,0.4 -2.8,0 C 14.2,8.5 14,8.3 14,8 v 5.2 c 0,0.3 0.2,0.5 0.6,0.7 0.8,0.4 2,0.4 2.8,0 0.4,-0.2 0.6,-0.5 0.6,-0.7 V 8 c 0,0.3 -0.2,0.5 -0.6,0.7 z"
           id="path487"
           inkscape:connector-curvature="0"
           style="opacity:0.1" />
        <path
           d="M 22.8,3.9 C 21,3 18.6,2.5 16,2.5 13.4,2.5 11,3 9.2,3.9 7.1,5 6,6.4 6,8 c 0,1.6 1.1,3 3.2,4.1 1.8,0.9 4.3,1.4 6.8,1.4 2.5,0 5,-0.5 6.8,-1.4 C 24.9,11 26,9.6 26,8 26,6.4 24.9,5 22.8,3.9 Z M 23.6,7 H 19.4 C 19.2,6.9 19,6.7 18.8,6.6 18.3,6.3 17.6,6.2 17,6.1 V 4.5 c 1.9,0.1 3.6,0.5 4.9,1.2 0.8,0.4 1.4,0.8 1.7,1.3 z M 10.1,5.7 C 11.4,5 13.1,4.7 15,4.5 V 6 C 14.3,6.1 13.7,6.3 13.2,6.5 12.9,6.6 12.8,6.8 12.6,6.9 H 8.4 C 8.7,6.5 9.3,6.1 10.1,5.7 Z M 8.4,9 h 4.2 c 0.2,0.1 0.4,0.3 0.6,0.4 0.5,0.3 1.2,0.4 1.8,0.5 v 1.5 C 13.1,11.3 11.4,10.9 10.1,10.2 9.3,9.9 8.7,9.5 8.4,9 Z m 13.5,1.3 C 20.6,11 18.8,11.4 17,11.5 V 9.9 C 17.7,9.8 18.3,9.6 18.8,9.4 19.1,9.3 19.2,9.1 19.4,9 h 4.2 c -0.3,0.5 -0.9,0.9 -1.7,1.3 z"
           id="path489"
           inkscape:connector-curvature="0"
           style="fill:#cc291f" />
        <path
           d="M 17.4,4.3 C 16.6,3.9 15.4,3.9 14.6,4.3 14.2,4.5 14,4.7 14,5 v 3 c 0,0.3 0.2,0.5 0.6,0.7 0.8,0.4 2,0.4 2.8,0 C 17.8,8.5 18,8.3 18,8 V 5 C 18,4.7 17.8,4.5 17.4,4.3 Z"
           id="path491"
           inkscape:connector-curvature="0"
           style="fill:#999999" />
        <path
           d="m 17.4,5.7 c -0.8,0.4 -2,0.4 -2.8,0 C 14.2,5.5 14,5.3 14,5 v 3 c 0,0.3 0.2,0.5 0.6,0.7 0.8,0.4 2,0.4 2.8,0 C 17.8,8.5 18,8.3 18,8 V 5 c 0,0.3 -0.2,0.5 -0.6,0.7 z"
           id="path493"
           inkscape:connector-curvature="0"
           style="opacity:0.1" />
      </g>
    </g>
  </g>
  <g
     id="i448"
     class="top-level-node"
     transform="matrix(0.37892914,0,0,0.37892914,72.754394,41.549594)">
    <g
       id="g518">
      <g
         id="g516">
        <path
           d="M 14,10.1 11.4,8.8 C 10.8,8.5 9.9,8.6 9,9 7.1,9.9 5.6,12.2 5.6,14.1 c 0,1 0.4,1.7 1.1,2 L 9,17.3 c 0.6,0.4 1.5,0.4 2.5,-0.1 1.9,-0.9 3.4,-3.2 3.4,-5.1 0.1,-1 -0.3,-1.7 -0.9,-2 z"
           id="path500"
           inkscape:connector-curvature="0"
           style="fill:#999999" />
        <path
           d="m 15,12 c 0,1.9 -1.5,4.2 -3.4,5.1 C 9.7,18 8.2,17.3 8.2,15.4 8.2,13.5 9.7,11.2 11.6,10.3 13.5,9.4 15,10.1 15,12 Z"
           id="path502"
           inkscape:connector-curvature="0"
           style="opacity:0.2" />
        <path
           d="m 16.5,14.1 -3.2,-1.7 c -0.3,-0.2 -0.7,-0.1 -1.2,0.1 -1,0.5 -1.7,1.6 -1.7,2.6 0,0.5 0.2,0.8 0.6,1 l 3.1,1.7 c 0.3,0.2 0.8,0.2 1.3,-0.1 1,-0.5 1.7,-1.6 1.7,-2.6 -0.1,-0.5 -0.3,-0.8 -0.6,-1 z"
           id="path504"
           inkscape:connector-curvature="0"
           style="fill:#999999" />
        <path
           d="m 17,15.1 c 0,1 -0.8,2.1 -1.7,2.6 -0.9,0.5 -1.7,0.1 -1.7,-0.9 0,-1 0.8,-2.1 1.7,-2.6 0.9,-0.4 1.7,-0.1 1.7,0.9 z"
           id="path506"
           inkscape:connector-curvature="0"
           style="opacity:0.2" />
        <path
           d="m 16.9,6.8 c -1.1,0 -2.2,0.3 -3.4,0.9 -4,2 -7.1,6.7 -7.1,10.6 0,3 1.8,5 4.6,5 1.1,0 2.2,-0.3 3.3,-0.9 4,-2 7.1,-6.7 7.1,-10.6 0.1,-3 -1.7,-5 -4.5,-5 z m 2.6,4.4 -2.7,1.3 C 16.5,11.9 15.8,11.6 15,11.7 V 9.2 c 0.7,-0.3 1.3,-0.4 1.9,-0.4 1.5,0 2.4,0.8 2.6,2.4 z M 13,10.4 v 2.4 c -0.8,0.7 -1.4,1.6 -1.8,2.5 L 8.7,16.5 C 9.4,14.2 11,11.9 13,10.4 Z m -4.5,8.5 2.7,-1.3 c 0.3,0.7 1,1 1.8,0.9 V 21 c -0.7,0.3 -1.3,0.4 -1.9,0.4 -1.5,-0.1 -2.4,-1 -2.6,-2.5 z m 6.5,0.8 v -2.4 c 0.8,-0.7 1.5,-1.7 1.8,-2.7 l 2.5,-1.2 C 18.7,15.8 17,18.2 15,19.7 Z"
           id="path508"
           inkscape:connector-curvature="0"
           style="fill:#cc291f" />
        <path
           d="m 16.9,6.8 c -1.1,0 -2.2,0.3 -3.4,0.9 -4,2 -7.1,6.7 -7.1,10.6 0,3 1.8,5 4.6,5 1.1,0 2.2,-0.3 3.3,-0.9 4,-2 7.1,-6.7 7.1,-10.6 0.1,-3 -1.7,-5 -4.5,-5 z m 2.6,4.4 -2.7,1.3 C 16.5,11.9 15.8,11.6 15,11.7 V 9.2 c 0.7,-0.3 1.3,-0.4 1.9,-0.4 1.5,0 2.4,0.8 2.6,2.4 z M 13,10.4 v 2.4 c -0.8,0.7 -1.4,1.6 -1.8,2.5 L 8.7,16.5 C 9.4,14.2 11,11.9 13,10.4 Z m -4.5,8.5 2.7,-1.3 c 0.3,0.7 1,1 1.8,0.9 V 21 c -0.7,0.3 -1.3,0.4 -1.9,0.4 -1.5,-0.1 -2.4,-1 -2.6,-2.5 z m 6.5,0.8 v -2.4 c 0.8,-0.7 1.5,-1.7 1.8,-2.7 l 2.5,-1.2 C 18.7,15.8 17,18.2 15,19.7 Z"
           id="path510"
           inkscape:connector-curvature="0"
           style="opacity:0.28999999" />
        <path
           d="m 19.5,15.1 -3.2,-1.7 c -0.3,-0.2 -0.7,-0.1 -1.2,0.1 -1,0.5 -1.7,1.6 -1.7,2.6 0,0.5 0.2,0.8 0.6,1 l 3.1,1.7 c 0.3,0.2 0.8,0.2 1.3,-0.1 1,-0.5 1.7,-1.6 1.7,-2.6 -0.1,-0.5 -0.3,-0.8 -0.6,-1 z"
           id="path512"
           inkscape:connector-curvature="0"
           style="fill:#999999" />
        <path
           d="m 20,16.1 c 0,1 -0.8,2.1 -1.7,2.6 -1,0.5 -1.7,0.1 -1.7,-0.9 0,-1 0.8,-2.1 1.7,-2.6 0.9,-0.4 1.7,-0.1 1.7,0.9 z"
           id="path514"
           inkscape:connector-curvature="0"
           style="opacity:0.2" />
      </g>
    </g>
  </g>
  <g
     id="i449"
     class="top-level-node"
     transform="matrix(0.37892914,0,0,0.37892914,45.471496,38.518154)">
    <g
       id="g561">
      <g
         id="g559">
        <path
           d="M 24,50 C 19.6,47.8 12.4,47.8 8,50 5.8,51.1 4.7,52.6 4.7,54 v 2 c 0,1.4 1.1,2.9 3.3,4 4.4,2.2 11.6,2.2 16,0 2.2,-1.1 3.3,-2.6 3.3,-4 v -2 c 0,-1.4 -1.1,-2.9 -3.3,-4 z"
           id="path521"
           inkscape:connector-curvature="0"
           style="fill:#999999" />
        <path
           d="M 24,58 C 19.6,60.2 12.4,60.2 8,58 5.8,56.9 4.7,55.4 4.7,54 v 2 c 0,1.4 1.1,2.9 3.3,4 4.4,2.2 11.6,2.2 16,0 2.2,-1.1 3.3,-2.6 3.3,-4 v -2 c 0,1.4 -1.1,2.9 -3.3,4 z"
           id="path523"
           inkscape:connector-curvature="0"
           style="opacity:0.1" />
        <path
           d="m 7,8 v 46 c 0,1.2 0.9,2.3 2.6,3.2 3.5,1.8 9.2,1.8 12.7,0 1.8,-0.9 2.6,-2 2.6,-3.2 V 8 Z"
           id="path525"
           inkscape:connector-curvature="0"
           style="fill:#999999" />
        <path
           d="m 7,8 v 46 c 0,1.2 0.9,2.3 2.6,3.2 3.5,1.8 9.2,1.8 12.7,0 1.8,-0.9 2.6,-2 2.6,-3.2 V 8 Z"
           id="path527"
           inkscape:connector-curvature="0"
           style="opacity:0.2" />
        <path
           d="M 24,4 C 19.6,1.8 12.4,1.8 8,4 5.8,5.1 4.7,6.6 4.7,8 v 2 c 0,1.4 1.1,2.9 3.3,4 4.4,2.2 11.6,2.2 16,0 2.2,-1.1 3.3,-2.6 3.3,-4 V 8 C 27.3,6.6 26.2,5.1 24,4 Z"
           id="path529"
           inkscape:connector-curvature="0"
           style="fill:#999999" />
        <path
           d="m 22.4,4.8 c 3.5,1.8 3.5,4.6 0,6.4 C 18.9,13 13.2,13 9.7,11.2 6.2,9.4 6.2,6.6 9.7,4.8 13.2,3 18.8,3.1 22.4,4.8 Z"
           id="path531"
           inkscape:connector-curvature="0"
           style="opacity:0.3" />
        <path
           d="M 24,12 C 19.6,14.2 12.4,14.2 8,12 5.8,10.9 4.7,9.4 4.7,8 v 2 c 0,1.4 1.1,2.9 3.3,4 4.4,2.2 11.6,2.2 16,0 2.2,-1.1 3.3,-2.6 3.3,-4 V 8 c 0,1.4 -1.1,2.9 -3.3,4 z"
           id="path533"
           inkscape:connector-curvature="0"
           style="opacity:0.1" />
        <path
           d="m 26.6,28.1 -2,-1 c -1.2,-0.6 -2.8,-0.5 -4.6,0.4 -3.6,1.8 -6.5,6.2 -6.5,9.7 0,1.9 0.8,3.2 2.1,3.7 l 1.7,0.8 z"
           id="path535"
           inkscape:connector-curvature="0"
           style="fill:#999999" />
        <path
           d="m 26.6,28.1 -2,-1 c -1.2,-0.6 -2.8,-0.5 -4.6,0.4 -3.6,1.8 -6.5,6.2 -6.5,9.7 0,1.9 0.8,3.2 2.1,3.7 l 1.7,0.8 z"
           id="path537"
           inkscape:connector-curvature="0"
           style="opacity:0.1" />
        <path
           d="m 29.7,27.6 -2,-1 C 26.3,25.9 24.3,26 22,27.1 c -4.4,2.2 -8,7.6 -8,12 0,2.3 1,3.9 2.6,4.6 l 1.5,0.8 c 1.5,0.9 3.6,0.8 5.9,-0.3 4.4,-2.2 8,-7.6 8,-12 0,-2.4 -0.9,-3.9 -2.3,-4.6 z"
           id="path539"
           inkscape:connector-curvature="0"
           style="fill:#999999" />
        <path
           d="m 32,32.1 c 0,4.4 -3.6,9.8 -8,12 -4.4,2.2 -8,0.4 -8,-4 0,-4.4 3.6,-9.8 8,-12 4.4,-2.2 8,-0.5 8,4 z"
           id="path541"
           inkscape:connector-curvature="0"
           style="opacity:0.2" />
        <path
           d="M 30,34.1 27.4,32.8 C 26.8,32.5 25.9,32.5 25,33 c -1.9,0.9 -3.4,3.2 -3.4,5.1 0,1 0.4,1.7 1.1,2 l 2.4,1.2 c 0.6,0.4 1.5,0.4 2.5,-0.1 1.9,-0.9 3.4,-3.2 3.4,-5.1 0,-1 -0.4,-1.7 -1,-2 z"
           id="path543"
           inkscape:connector-curvature="0"
           style="fill:#999999" />
        <path
           d="m 31,36 c 0,1.9 -1.5,4.2 -3.4,5.1 -1.9,0.9 -3.4,0.2 -3.4,-1.7 0,-1.9 1.5,-4.2 3.4,-5.1 1.9,-0.9 3.4,-0.2 3.4,1.7 z"
           id="path545"
           inkscape:connector-curvature="0"
           style="opacity:0.2" />
        <path
           d="m 32.5,38.1 -3.2,-1.7 c -0.3,-0.2 -0.7,-0.1 -1.2,0.1 -1,0.5 -1.7,1.6 -1.7,2.6 0,0.5 0.2,0.8 0.6,1 l 3.1,1.7 c 0.3,0.2 0.8,0.2 1.3,-0.1 1,-0.5 1.7,-1.6 1.7,-2.6 -0.1,-0.5 -0.3,-0.8 -0.6,-1 z"
           id="path547"
           inkscape:connector-curvature="0"
           style="fill:#999999" />
        <path
           d="m 33,39.1 c 0,1 -0.8,2.1 -1.7,2.6 -1,0.5 -1.7,0.1 -1.7,-0.9 0,-1 0.8,-2.1 1.7,-2.6 0.9,-0.4 1.7,-0.1 1.7,0.9 z"
           id="path549"
           inkscape:connector-curvature="0"
           style="opacity:0.2" />
        <path
           d="m 32.9,30.8 c -1.1,0 -2.2,0.3 -3.4,0.9 -4,2 -7.1,6.7 -7.1,10.6 0,3 1.8,5 4.6,5 1.1,0 2.2,-0.3 3.3,-0.9 4,-2 7.1,-6.7 7.1,-10.6 0.1,-3 -1.7,-5 -4.5,-5 z m 2.6,4.4 -2.7,1.3 c -0.3,-0.6 -1,-0.9 -1.8,-0.8 v -2.5 c 0.7,-0.3 1.3,-0.4 1.9,-0.4 1.5,0 2.4,0.8 2.6,2.4 z M 29,34.4 v 2.4 c -0.8,0.7 -1.4,1.6 -1.8,2.5 l -2.5,1.2 C 25.4,38.2 27,35.9 29,34.4 Z m -4.5,8.5 2.7,-1.3 c 0.3,0.7 1,1 1.8,0.9 V 45 c -0.7,0.3 -1.3,0.4 -1.9,0.4 -1.5,-0.1 -2.4,-1 -2.6,-2.5 z m 6.5,0.8 v -2.4 c 0.8,-0.7 1.5,-1.7 1.8,-2.7 l 2.5,-1.2 C 34.7,39.8 33,42.2 31,43.7 Z"
           id="path551"
           inkscape:connector-curvature="0"
           style="fill:#cc291f" />
        <path
           d="m 32.9,30.8 c -1.1,0 -2.2,0.3 -3.4,0.9 -4,2 -7.1,6.7 -7.1,10.6 0,3 1.8,5 4.6,5 1.1,0 2.2,-0.3 3.3,-0.9 4,-2 7.1,-6.7 7.1,-10.6 0.1,-3 -1.7,-5 -4.5,-5 z m 2.6,4.4 -2.7,1.3 c -0.3,-0.6 -1,-0.9 -1.8,-0.8 v -2.5 c 0.7,-0.3 1.3,-0.4 1.9,-0.4 1.5,0 2.4,0.8 2.6,2.4 z M 29,34.4 v 2.4 c -0.8,0.7 -1.4,1.6 -1.8,2.5 l -2.5,1.2 C 25.4,38.2 27,35.9 29,34.4 Z m -4.5,8.5 2.7,-1.3 c 0.3,0.7 1,1 1.8,0.9 V 45 c -0.7,0.3 -1.3,0.4 -1.9,0.4 -1.5,-0.1 -2.4,-1 -2.6,-2.5 z m 6.5,0.8 v -2.4 c 0.8,-0.7 1.5,-1.7 1.8,-2.7 l 2.5,-1.2 C 34.7,39.8 33,42.2 31,43.7 Z"
           id="path553"
           inkscape:connector-curvature="0"
           style="opacity:0.28999999" />
        <path
           d="m 35.5,39.1 -3.2,-1.7 c -0.3,-0.2 -0.7,-0.1 -1.2,0.1 -1,0.5 -1.7,1.6 -1.7,2.6 0,0.5 0.2,0.8 0.6,1 l 3.1,1.7 c 0.3,0.2 0.8,0.2 1.3,-0.1 1,-0.5 1.7,-1.6 1.7,-2.6 -0.1,-0.5 -0.3,-0.8 -0.6,-1 z"
           id="path555"
           inkscape:connector-curvature="0"
           style="fill:#999999" />
        <path
           d="m 36,40.1 c 0,1 -0.8,2.1 -1.7,2.6 -0.9,0.5 -1.7,0.1 -1.7,-0.9 0,-1 0.8,-2.1 1.7,-2.6 0.9,-0.5 1.7,-0.1 1.7,0.9 z"
           id="path557"
           inkscape:connector-curvature="0"
           style="opacity:0.2" />
      </g>
    </g>
  </g>
  <g
     id="i450"
     class="top-level-node"
     transform="matrix(0.37892914,0,0,0.37892914,0,38.518154)">
    <g
       id="g604">
      <g
         id="g602">
        <path
           d="m 15.7,12.6 -2,-1 C 12.3,10.9 10.3,11 8,12.1 c -4.4,2.2 -8,7.6 -8,12 0,2.3 1,3.9 2.6,4.6 l 1.5,0.8 c 1.5,0.9 3.6,0.8 5.9,-0.3 4.4,-2.2 8,-7.6 8,-12 0,-2.4 -0.9,-3.9 -2.3,-4.6 z"
           id="path564"
           inkscape:connector-curvature="0"
           style="fill:#999999" />
        <path
           d="m 18,17.1 c 0,4.4 -3.6,9.8 -8,12 -4.4,2.2 -8,0.4 -8,-4 0,-4.4 3.6,-9.8 8,-12 4.4,-2.2 8,-0.5 8,4 z"
           id="path566"
           inkscape:connector-curvature="0"
           style="opacity:0.2" />
        <path
           d="m 56.6,35.1 -42,-21 c -1.2,-0.6 -2.8,-0.5 -4.6,0.4 -3.6,1.8 -6.5,6.2 -6.5,9.7 0,1.9 0.8,3.2 2.1,3.7 l 41.7,20.8 z"
           id="path568"
           inkscape:connector-curvature="0"
           style="fill:#999999" />
        <path
           d="m 56.6,35.1 -42,-21 c -1.2,-0.6 -2.8,-0.5 -4.6,0.4 -3.6,1.8 -6.5,6.2 -6.5,9.7 0,1.9 0.8,3.2 2.1,3.7 l 41.7,20.8 z"
           id="path570"
           inkscape:connector-curvature="0"
           style="opacity:0.1" />
        <path
           d="m 61.7,35.6 -2,-1 C 58.3,33.9 56.3,34 54,35.1 c -4.4,2.2 -8,7.6 -8,12 0,2.3 1,3.9 2.6,4.6 l 1.5,0.8 c 1.5,0.9 3.6,0.8 5.9,-0.3 4.4,-2.2 8,-7.6 8,-12 0,-2.4 -0.9,-3.9 -2.3,-4.6 z"
           id="path572"
           inkscape:connector-curvature="0"
           style="fill:#999999" />
        <path
           d="m 64,40.1 c 0,4.4 -3.6,9.8 -8,12 -4.4,2.2 -8,0.4 -8,-4 0,-4.4 3.6,-9.8 8,-12 4.4,-2.2 8,-0.5 8,4 z"
           id="path574"
           inkscape:connector-curvature="0"
           style="opacity:0.2" />
        <path
           d="m 62.5,40.8 c 0,3.6 -2.9,8 -6.5,9.7 -3.6,1.8 -6.5,0.3 -6.5,-3.3 0,-3.6 2.9,-8 6.5,-9.7 3.6,-1.7 6.5,-0.3 6.5,3.3 z"
           id="path576"
           inkscape:connector-curvature="0"
           style="opacity:0.2" />
        <path
           d="m 38.4,4.8 c 3.5,1.8 3.5,4.6 0,6.4 -3.5,1.8 -9.2,1.8 -12.7,0 -3.5,-1.8 -3.5,-4.6 0,-6.4 3.5,-1.8 9.1,-1.7 12.7,0 z"
           stroke-miterlimit="10"
           id="path578"
           inkscape:connector-curvature="0"
           style="fill:none;stroke:#cc291f;stroke-width:2;stroke-miterlimit:10" />
        <path
           d="m 23,16 v 12 c 0,1.2 0.9,2.3 2.6,3.2 3.5,1.8 9.2,1.8 12.7,0 1.8,-0.9 2.6,-2 2.6,-3.2 V 16 Z"
           id="path580"
           inkscape:connector-curvature="0"
           style="fill:#999999" />
        <path
           d="m 23,16 v 12 c 0,1.2 0.9,2.3 2.6,3.2 3.5,1.8 9.2,1.8 12.7,0 1.8,-0.9 2.6,-2 2.6,-3.2 V 16 Z"
           id="path582"
           inkscape:connector-curvature="0"
           style="opacity:0.2" />
        <path
           d="M 40,12 C 35.6,9.8 28.4,9.8 24,12 c -2.2,1.1 -3.3,2.6 -3.3,4 v 2 c 0,1.4 1.1,2.9 3.3,4 4.4,2.2 11.6,2.2 16,0 2.2,-1.1 3.3,-2.6 3.3,-4 v -2 c 0,-1.4 -1.1,-2.9 -3.3,-4 z"
           id="path584"
           inkscape:connector-curvature="0"
           style="fill:#999999" />
        <path
           d="m 40,20 c -4.4,2.2 -11.6,2.2 -16,0 -2.2,-1.1 -3.3,-2.6 -3.3,-4 v 2 c 0,1.4 1.1,2.9 3.3,4 4.4,2.2 11.6,2.2 16,0 2.2,-1.1 3.3,-2.6 3.3,-4 v -2 c 0,1.4 -1.1,2.9 -3.3,4 z"
           id="path586"
           inkscape:connector-curvature="0"
           style="opacity:0.1" />
        <path
           d="m 34.8,12.1 c -1.6,-0.8 -4.1,-0.8 -5.7,0 C 28.4,12.5 28,13 28,13.5 V 16 c 0,0.5 0.4,1 1.2,1.4 1.6,0.8 4.1,0.8 5.7,0 C 35.6,17 36,16.5 36,16 v -2.5 c 0,-0.5 -0.4,-1 -1.2,-1.4 z"
           id="path588"
           inkscape:connector-curvature="0"
           style="fill:#999999" />
        <path
           d="m 34.8,14.9 c -1.6,0.8 -4.1,0.8 -5.7,0 C 28.4,14.5 28,14 28,13.5 V 16 c 0,0.5 0.4,1 1.2,1.4 1.6,0.8 4.1,0.8 5.7,0 C 35.6,17 36,16.5 36,16 v -2.5 c 0,0.5 -0.4,1 -1.2,1.4 z"
           id="path590"
           inkscape:connector-curvature="0"
           style="opacity:0.1" />
        <path
           d="M 33.4,7.3 C 32.6,6.9 31.4,6.9 30.6,7.3 30.2,7.5 30,7.7 30,8 v 5.2 c 0,0.3 0.2,0.5 0.6,0.7 0.8,0.4 2,0.4 2.8,0 0.4,-0.2 0.6,-0.5 0.6,-0.7 V 8 C 34,7.7 33.8,7.5 33.4,7.3 Z"
           id="path592"
           inkscape:connector-curvature="0"
           style="fill:#999999" />
        <path
           d="m 33.4,8.7 c -0.8,0.4 -2,0.4 -2.8,0 C 30.2,8.5 30,8.3 30,8 v 5.2 c 0,0.3 0.2,0.5 0.6,0.7 0.8,0.4 2,0.4 2.8,0 0.4,-0.2 0.6,-0.5 0.6,-0.7 V 8 c 0,0.3 -0.2,0.5 -0.6,0.7 z"
           id="path594"
           inkscape:connector-curvature="0"
           style="opacity:0.1" />
        <path
           d="M 38.8,3.9 C 37,3 34.6,2.5 32,2.5 29.4,2.5 27,3 25.2,3.9 23.1,5 22,6.4 22,8 c 0,1.6 1.1,3 3.2,4.1 1.8,0.9 4.3,1.4 6.8,1.4 2.5,0 5,-0.5 6.8,-1.4 C 40.9,11 42,9.6 42,8 42,6.4 40.9,5 38.8,3.9 Z M 39.6,7 H 35.4 C 35.2,6.9 35,6.7 34.8,6.6 34.3,6.3 33.6,6.2 33,6.1 V 4.5 c 1.9,0.1 3.6,0.5 4.9,1.2 0.8,0.4 1.4,0.8 1.7,1.3 z M 26.1,5.7 C 27.4,5 29.1,4.7 31,4.5 V 6 C 30.3,6.1 29.7,6.3 29.2,6.5 28.9,6.6 28.8,6.8 28.6,6.9 H 24.4 C 24.7,6.5 25.3,6.1 26.1,5.7 Z M 24.4,9 h 4.2 c 0.2,0.1 0.4,0.3 0.6,0.4 0.5,0.3 1.2,0.4 1.8,0.5 v 1.5 C 29.1,11.3 27.4,10.9 26.1,10.2 25.3,9.9 24.7,9.5 24.4,9 Z m 13.5,1.3 C 36.6,11 34.8,11.4 33,11.5 V 9.9 C 33.7,9.8 34.3,9.6 34.8,9.4 35.1,9.3 35.2,9.1 35.4,9 h 4.2 c -0.3,0.5 -0.9,0.9 -1.7,1.3 z"
           id="path596"
           inkscape:connector-curvature="0"
           style="fill:#cc291f" />
        <path
           d="M 33.4,4.3 C 32.6,3.9 31.4,3.9 30.6,4.3 30.2,4.5 30,4.7 30,5 v 3 c 0,0.3 0.2,0.5 0.6,0.7 0.8,0.4 2,0.4 2.8,0 C 33.8,8.5 34,8.3 34,8 V 5 C 34,4.7 33.8,4.5 33.4,4.3 Z"
           id="path598"
           inkscape:connector-curvature="0"
           style="fill:#999999" />
        <path
           d="m 33.4,5.7 c -0.8,0.4 -2,0.4 -2.8,0 C 30.2,5.5 30,5.3 30,5 v 3 c 0,0.3 0.2,0.5 0.6,0.7 0.8,0.4 2,0.4 2.8,0 C 33.8,8.5 34,8.3 34,8 V 5 c 0,0.3 -0.2,0.5 -0.6,0.7 z"
           id="path600"
           inkscape:connector-curvature="0"
           style="opacity:0.1" />
      </g>
    </g>
  </g>
  <g
     id="selection-layer"
     transform="matrix(0.37892914,0,0,0.37892914,235.80097,-175.24448)" />
</svg>
