<?xml version="1.0" encoding="UTF-8" standalone="no"?>
<!-- Created with Inkscape (http://www.inkscape.org/) -->

<svg
   xmlns:dc="http://purl.org/dc/elements/1.1/"
   xmlns:cc="http://creativecommons.org/ns#"
   xmlns:rdf="http://www.w3.org/1999/02/22-rdf-syntax-ns#"
   xmlns:svg="http://www.w3.org/2000/svg"
   xmlns="http://www.w3.org/2000/svg"
   xmlns:sodipodi="http://sodipodi.sourceforge.net/DTD/sodipodi-0.dtd"
   xmlns:inkscape="http://www.inkscape.org/namespaces/inkscape"
   width="24.251465mm"
   height="10.557572mm"
   viewBox="0 0 24.251464 10.557572"
   version="1.1"
   id="svg581"
   inkscape:version="0.92.2 (5c3e80d, 2017-08-06)"
   sodipodi:docname="pipes-.svg">
  <defs
     id="defs575" />
  <sodipodi:namedview
     id="base"
     pagecolor="#ffffff"
     bordercolor="#666666"
     borderopacity="1.0"
     inkscape:pageopacity="0.0"
     inkscape:pageshadow="2"
     inkscape:zoom="0.5037107"
     inkscape:cx="-147.96229"
     inkscape:cy="-112.09974"
     inkscape:document-units="mm"
     inkscape:current-layer="svg581"
     showgrid="false"
     inkscape:window-width="1360"
     inkscape:window-height="706"
     inkscape:window-x="-8"
     inkscape:window-y="-8"
     inkscape:window-maximized="1"
     fit-margin-top="0"
     fit-margin-left="0"
     fit-margin-right="0"
     fit-margin-bottom="0" />
  <metadata
     id="metadata578">
    <rdf:RDF>
      <cc:Work
         rdf:about="">
        <dc:format>image/svg+xml</dc:format>
        <dc:type
           rdf:resource="http://purl.org/dc/dcmitype/StillImage" />
        <dc:title></dc:title>
      </cc:Work>
    </rdf:RDF>
  </metadata>
  <g
     inkscape:label="Layer 1"
     inkscape:groupmode="layer"
     id="layer1"
     transform="translate(23.1378,-295.61565)" />
  <g
     id="i429"
     class="top-level-node"
     transform="matrix(0.37892914,0,0,0.37892914,0,-1.179758)">
    <g
       id="g93">
      <g
         id="g91">
        <path
           d="m 15.7,4.6 -2,-1 C 12.2,2.8 10.2,3 8,4.1 3.6,6.3 0,11.7 0,16.1 0,18.4 1,20 2.6,20.7 l 1.5,0.8 c 1.5,0.9 3.6,0.8 5.9,-0.3 4.4,-2.2 8,-7.6 8,-12 0,-2.4 -0.9,-3.9 -2.3,-4.6 z"
           id="path79"
           inkscape:connector-curvature="0"
           style="fill:#999999" />
        <path
           d="m 18,9.1 c 0,4.4 -3.6,9.8 -8,12 -4.4,2.2 -8,0.4 -8,-4 0,-4.4 3.6,-9.8 8,-12 4.4,-2.2 8,-0.5 8,4 z"
           id="path81"
           inkscape:connector-curvature="0"
           style="opacity:0.2" />
        <path
           d="m 48.3,4.6 2,-1 C 51.8,2.8 53.8,3 56,4.1 c 4.4,2.2 8,7.6 8,12 0,2.3 -1,3.9 -2.6,4.6 l -1.5,0.8 C 58.4,22.4 56.3,22.3 54,21.2 49.6,19 46,13.6 46,9.2 46,6.8 46.9,5.3 48.3,4.6 Z"
           id="path83"
           inkscape:connector-curvature="0"
           style="fill:#999999" />
        <path
           d="m 46,9.1 c 0,4.4 3.6,9.8 8,12 4.4,2.2 8,0.4 8,-4 0,-4.4 -3.6,-9.8 -8,-12 -4.4,-2.2 -8,-0.5 -8,4 z"
           id="path85"
           inkscape:connector-curvature="0"
           style="opacity:0.2" />
        <path
           d="M 54,6.6 C 52.2,5.7 50.6,5.6 49.4,6.2 l -14.9,7.4 c -1.6,0.8 -3.5,0.8 -5.1,0 L 14.6,6.2 C 13.4,5.6 11.8,5.7 10,6.6 6.4,8.4 3.5,12.8 3.5,16.3 c 0,1.9 0.8,3.2 2.1,3.7 l 18.3,9.1 C 29,31.6 35,31.6 40,29.1 L 58.4,20 c 1.3,-0.5 2.1,-1.8 2.1,-3.7 0,-3.6 -2.9,-8 -6.5,-9.7 z"
           id="path87"
           inkscape:connector-curvature="0"
           style="fill:#999999" />
        <path
           d="M 54,6.6 C 52.2,5.7 50.6,5.6 49.4,6.2 l -14.9,7.4 c -1.6,0.8 -3.5,0.8 -5.1,0 L 14.6,6.2 C 13.4,5.6 11.8,5.7 10,6.6 6.4,8.4 3.5,12.8 3.5,16.3 c 0,1.9 0.8,3.2 2.1,3.7 l 18.3,9.1 C 29,31.6 35,31.6 40,29.1 L 58.4,20 c 1.3,-0.5 2.1,-1.8 2.1,-3.7 0,-3.6 -2.9,-8 -6.5,-9.7 z"
           id="path89"
           inkscape:connector-curvature="0"
           style="opacity:0.1" />
      </g>
    </g>
  </g>
  <g
     id="i430"
     class="top-level-node"
     transform="matrix(0.37892914,0,0,0.37892914,-93.974431,20.040274)">
    <g
       id="g112">
      <g
         id="g110">
        <path
           d="m 15.7,4.5 -2,-1 C 12.2,2.7 10.2,2.8 8,3.9 c -4.4,2.2 -8,7.6 -8,12 0,2.3 1,3.9 2.6,4.6 l 1.5,0.8 C 5.6,22.2 7.7,22.1 10,21 14.4,18.8 18,13.4 18,9 18,6.7 17.1,5.2 15.7,4.5 Z"
           id="path96"
           inkscape:connector-curvature="0"
           style="fill:#999999" />
        <path
           d="m 18,8.9 c 0,4.4 -3.6,9.8 -8,12 -4.4,2.2 -8,0.4 -8,-4 0,-4.4 3.6,-9.8 8,-12 4.4,-2.2 8,-0.4 8,4 z"
           id="path98"
           inkscape:connector-curvature="0"
           style="opacity:0.2" />
        <path
           d="M 32.6,15 14.6,6 C 13.4,5.4 11.8,5.5 10,6.4 6.4,8.2 3.5,12.6 3.5,16.1 c 0,1.9 0.8,3.2 2.1,3.7 l 6.3,3.1 c 0.7,0.4 0.7,1.4 0,1.8 L 7.4,27 16.7,40.7 c 0,0 18.3,-9.2 18.6,-9.4 5.2,-3.4 3.9,-12.9 -2.7,-16.3 z"
           id="path100"
           inkscape:connector-curvature="0"
           style="fill:#999999" />
        <path
           d="M 32.6,15 14.6,6 C 13.4,5.4 11.8,5.5 10,6.4 6.4,8.2 3.5,12.6 3.5,16.1 c 0,1.9 0.8,3.2 2.1,3.7 l 6.3,3.1 c 0.7,0.4 0.7,1.4 0,1.8 L 7.4,27 16.7,40.7 c 0,0 18.3,-9.2 18.6,-9.4 5.2,-3.4 3.9,-12.9 -2.7,-16.3 z"
           id="path102"
           inkscape:connector-curvature="0"
           style="opacity:0.1" />
        <path
           d="m 2.3,27.5 2,-1 c 1.4,-0.7 3.4,-0.6 5.7,0.5 4.4,2.2 8,7.6 8,12 0,2.3 -1,3.9 -2.6,4.6 l -1.5,0.8 C 12.4,45.3 10.3,45.2 8,44.1 3.6,41.9 0,36.5 0,32.1 0,29.7 0.9,28.2 2.3,27.5 Z"
           id="path104"
           inkscape:connector-curvature="0"
           style="fill:#999999" />
        <path
           d="m 0,31.9 c 0,4.4 3.6,9.8 8,12 4.4,2.2 8,0.4 8,-4 0,-4.4 -3.6,-9.8 -8,-12 -4.4,-2.2 -8,-0.4 -8,4 z"
           id="path106"
           inkscape:connector-curvature="0"
           style="opacity:0.2" />
        <path
           d="m 1.5,32.7 c 0,3.6 2.9,8 6.5,9.7 3.6,1.7 6.5,0.3 6.5,-3.3 0,-3.6 -2.9,-8 -6.5,-9.7 -3.6,-1.7 -6.5,-0.3 -6.5,3.3 z"
           id="path108"
           inkscape:connector-curvature="0"
           style="opacity:0.2" />
      </g>
    </g>
  </g>
  <g
     id="i431"
     class="top-level-node"
     transform="matrix(0.37892914,0,0,0.37892914,-63.660099,17.008841)">
    <g
       id="g131">
      <g
         id="g129">
        <path
           d="m 24.3,4.5 2,-1 C 27.7,2.8 29.7,2.9 32,4 c 4.4,2.2 8,7.6 8,12 0,2.3 -1,3.9 -2.6,4.6 l -1.5,0.8 c -1.5,0.9 -3.6,0.8 -5.9,-0.3 -4.4,-2.2 -8,-7.6 -8,-12 0,-2.4 0.9,-3.9 2.3,-4.6 z"
           id="path115"
           inkscape:connector-curvature="0"
           style="fill:#999999" />
        <path
           d="m 22,8.9 c 0,4.4 3.6,9.8 8,12 4.4,2.2 8,0.4 8,-4 0,-4.4 -3.6,-9.8 -8,-12 -4.4,-2.2 -8,-0.4 -8,4 z"
           id="path117"
           inkscape:connector-curvature="0"
           style="opacity:0.2" />
        <path
           d="m 7.4,15 18,-9 c 1.2,-0.6 2.8,-0.5 4.6,0.4 3.6,1.8 6.5,6.2 6.5,9.7 0,1.9 -0.8,3.2 -2.1,3.7 L 28.1,23 c -0.7,0.4 -0.7,1.4 0,1.8 L 32.5,27 23.2,40.7 C 23.2,40.7 4.9,31.5 4.6,31.3 -0.5,27.9 0.8,18.4 7.4,15 Z"
           id="path119"
           inkscape:connector-curvature="0"
           style="fill:#999999" />
        <path
           d="m 7.4,15 18,-9 c 1.2,-0.6 2.8,-0.5 4.6,0.4 3.6,1.8 6.5,6.2 6.5,9.7 0,1.9 -0.8,3.2 -2.1,3.7 L 28.1,23 c -0.7,0.4 -0.7,1.4 0,1.8 L 32.5,27 23.2,40.7 C 23.2,40.7 4.9,31.5 4.6,31.3 -0.5,27.9 0.8,18.4 7.4,15 Z"
           id="path121"
           inkscape:connector-curvature="0"
           style="opacity:0.1" />
        <path
           d="m 37.7,27.5 -2,-1 C 34.3,25.8 32.3,25.9 30,27 c -4.4,2.2 -8,7.6 -8,12 0,2.3 1,3.9 2.6,4.6 l 1.5,0.8 c 1.5,0.9 3.6,0.8 5.9,-0.3 4.4,-2.2 8,-7.6 8,-12 0,-2.4 -0.9,-3.9 -2.3,-4.6 z"
           id="path123"
           inkscape:connector-curvature="0"
           style="fill:#999999" />
        <path
           d="m 40,31.9 c 0,4.4 -3.6,9.8 -8,12 -4.4,2.2 -8,0.4 -8,-4 0,-4.4 3.6,-9.8 8,-12 4.4,-2.2 8,-0.4 8,4 z"
           id="path125"
           inkscape:connector-curvature="0"
           style="opacity:0.2" />
        <path
           d="m 38.5,32.7 c 0,3.6 -2.9,8 -6.5,9.7 -3.6,1.7 -6.5,0.3 -6.5,-3.3 0,-3.6 2.9,-8 6.5,-9.7 3.6,-1.7 6.5,-0.3 6.5,3.3 z"
           id="path127"
           inkscape:connector-curvature="0"
           style="opacity:0.2" />
      </g>
    </g>
  </g>
  <g
     id="i432"
     class="top-level-node"
     transform="matrix(0.37892914,0,0,0.37892914,-27.282902,13.977408)">
    <g
       id="g150">
      <g
         id="g148">
        <path
           d="M 24,50 C 19.6,47.8 12.4,47.8 8,50 5.8,51.1 4.7,52.6 4.7,54 v 2 c 0,1.4 1.1,2.9 3.3,4 4.4,2.2 11.6,2.2 16,0 2.2,-1.1 3.3,-2.6 3.3,-4 v -2 c 0,-1.4 -1.1,-2.9 -3.3,-4 z"
           id="path134"
           inkscape:connector-curvature="0"
           style="fill:#999999" />
        <path
           d="M 24,58 C 19.6,60.2 12.4,60.2 8,58 5.8,56.9 4.7,55.4 4.7,54 v 2 c 0,1.4 1.1,2.9 3.3,4 4.4,2.2 11.6,2.2 16,0 2.2,-1.1 3.3,-2.6 3.3,-4 v -2 c 0,1.4 -1.1,2.9 -3.3,4 z"
           id="path136"
           inkscape:connector-curvature="0"
           style="opacity:0.1" />
        <path
           d="m 7,8 v 46 c 0,1.2 0.9,2.3 2.6,3.2 3.5,1.8 9.2,1.8 12.7,0 1.8,-0.9 2.6,-2 2.6,-3.2 V 8 Z"
           id="path138"
           inkscape:connector-curvature="0"
           style="fill:#999999" />
        <path
           d="m 7,8 v 46 c 0,1.2 0.9,2.3 2.6,3.2 3.5,1.8 9.2,1.8 12.7,0 1.8,-0.9 2.6,-2 2.6,-3.2 V 8 Z"
           id="path140"
           inkscape:connector-curvature="0"
           style="opacity:0.2" />
        <path
           d="M 24,4 C 19.6,1.8 12.4,1.8 8,4 5.8,5.1 4.7,6.6 4.7,8 v 2 c 0,1.4 1.1,2.9 3.3,4 4.4,2.2 11.6,2.2 16,0 2.2,-1.1 3.3,-2.6 3.3,-4 V 8 C 27.3,6.6 26.2,5.1 24,4 Z"
           id="path142"
           inkscape:connector-curvature="0"
           style="fill:#999999" />
        <path
           d="m 22.4,4.8 c 3.5,1.8 3.5,4.6 0,6.4 C 18.9,13 13.2,13 9.7,11.2 6.2,9.4 6.2,6.6 9.7,4.8 13.2,3 18.8,3.1 22.4,4.8 Z"
           id="path144"
           inkscape:connector-curvature="0"
           style="opacity:0.3" />
        <path
           d="M 24,12 C 19.6,14.2 12.4,14.2 8,12 5.8,10.9 4.7,9.4 4.7,8 v 2 c 0,1.4 1.1,2.9 3.3,4 4.4,2.2 11.6,2.2 16,0 2.2,-1.1 3.3,-2.6 3.3,-4 V 8 c 0,1.4 -1.1,2.9 -3.3,4 z"
           id="path146"
           inkscape:connector-curvature="0"
           style="opacity:0.1" />
      </g>
    </g>
  </g>
  <g
     id="i433"
     class="top-level-node"
     transform="matrix(0.37892914,0,0,0.37892914,-3.03144,20.040274)">
    <g
       id="g167">
      <g
         id="g165">
        <path
           d="m 15.7,4.6 -2,-1 C 12.2,2.8 10.2,3 8,4.1 3.6,6.3 0,11.7 0,16.1 0,18.4 1,20 2.6,20.7 l 1.5,0.8 c 1.5,0.9 3.6,0.8 5.9,-0.3 4.4,-2.2 8,-7.6 8,-12 0,-2.4 -0.9,-3.9 -2.3,-4.6 z"
           id="path153"
           inkscape:connector-curvature="0"
           style="fill:#999999" />
        <path
           d="m 18,9.1 c 0,4.4 -3.6,9.8 -8,12 -4.4,2.2 -8,0.4 -8,-4 0,-4.4 3.6,-9.8 8,-12 4.4,-2.2 8,-0.5 8,4 z"
           id="path155"
           inkscape:connector-curvature="0"
           style="opacity:0.2" />
        <path
           d="m 40,42 c -4.4,-2.2 -11.6,-2.2 -16,0 -2.2,1.1 -3.3,2.6 -3.3,4 v 2 c 0,1.4 1.1,2.9 3.3,4 4.4,2.2 11.6,2.2 16,0 2.2,-1.1 3.3,-2.6 3.3,-4 v -2 c 0,-1.4 -1.1,-2.9 -3.3,-4 z"
           id="path157"
           inkscape:connector-curvature="0"
           style="fill:#999999" />
        <path
           d="m 40,50 c -4.4,2.2 -11.6,2.2 -16,0 -2.2,-1.1 -3.3,-2.6 -3.3,-4 v 2 c 0,1.4 1.1,2.9 3.3,4 4.4,2.2 11.6,2.2 16,0 2.2,-1.1 3.3,-2.6 3.3,-4 v -2 c 0,1.4 -1.1,2.9 -3.3,4 z"
           id="path159"
           inkscape:connector-curvature="0"
           style="opacity:0.1" />
        <path
           d="M 14.6,6.2 C 13.4,5.6 11.8,5.7 10,6.6 6.4,8.4 3.5,12.8 3.5,16.3 c 0,1.9 0.8,3.2 2.1,3.7 l 13.2,6.6 c 2.6,1.3 4.2,3.9 4.2,6.8 V 46 c 0,1.7 1.8,3.3 5.4,4.2 2.3,0.5 4.8,0.5 7.1,0 3.6,-0.8 5.4,-2.5 5.4,-4.2 V 28.5 c 0,-5.8 -3.3,-11.1 -8.5,-13.7 z"
           id="path161"
           inkscape:connector-curvature="0"
           style="fill:#999999" />
        <path
           d="M 14.6,6.2 C 13.4,5.6 11.8,5.7 10,6.6 6.4,8.4 3.5,12.8 3.5,16.3 c 0,1.9 0.8,3.2 2.1,3.7 l 13.2,6.6 c 2.6,1.3 4.2,3.9 4.2,6.8 V 46 c 0,1.7 1.8,3.3 5.4,4.2 2.3,0.5 4.8,0.5 7.1,0 3.6,-0.8 5.4,-2.5 5.4,-4.2 V 28.5 c 0,-5.8 -3.3,-11.1 -8.5,-13.7 z"
           id="path163"
           inkscape:connector-curvature="0"
           style="opacity:0.15" />
      </g>
    </g>
  </g>
  <g
     id="i434"
     class="top-level-node"
     transform="matrix(0.37892914,0,0,0.37892914,27.28289,23.071707)">
    <g
       id="g188">
      <g
         id="g186">
        <path
           d="M 40.6,35.1 27.9,28.7 C 26.2,27.8 25,26 25,24.1 V 8 H 7 v 19.5 c 0,5.7 3.2,10.9 8.3,13.4 l 16,8 z"
           id="path170"
           inkscape:connector-curvature="0"
           style="fill:#999999" />
        <path
           d="M 40.6,35.1 27.9,28.7 C 26.2,27.8 25,26 25,24.1 V 8 H 7 v 19.5 c 0,5.7 3.2,10.9 8.3,13.4 l 16,8 z"
           id="path172"
           inkscape:connector-curvature="0"
           style="opacity:0.15" />
        <path
           d="M 24,4 C 19.6,1.8 12.4,1.8 8,4 5.8,5.1 4.7,6.6 4.7,8 v 2 c 0,1.4 1.1,2.9 3.3,4 4.4,2.2 11.6,2.2 16,0 2.2,-1.1 3.3,-2.6 3.3,-4 V 8 C 27.3,6.6 26.2,5.1 24,4 Z"
           id="path174"
           inkscape:connector-curvature="0"
           style="fill:#999999" />
        <path
           d="m 22.4,4.8 c 3.5,1.8 3.5,4.6 0,6.4 C 18.9,13 13.2,13 9.7,11.2 6.2,9.4 6.2,6.6 9.7,4.8 13.2,3 18.8,3.1 22.4,4.8 Z"
           id="path176"
           inkscape:connector-curvature="0"
           style="opacity:0.3" />
        <path
           d="M 24,12 C 19.6,14.2 12.4,14.2 8,12 5.8,10.9 4.7,9.4 4.7,8 v 2 c 0,1.4 1.1,2.9 3.3,4 4.4,2.2 11.6,2.2 16,0 2.2,-1.1 3.3,-2.6 3.3,-4 V 8 c 0,1.4 -1.1,2.9 -3.3,4 z"
           id="path178"
           inkscape:connector-curvature="0"
           style="opacity:0.1" />
        <path
           d="m 45.7,35.6 -2,-1 C 42.3,33.9 40.3,34 38,35.1 c -4.4,2.2 -8,7.6 -8,12 0,2.3 1,3.9 2.6,4.6 l 1.5,0.8 c 1.5,0.9 3.6,0.8 5.9,-0.3 4.4,-2.2 8,-7.6 8,-12 0,-2.4 -0.9,-3.9 -2.3,-4.6 z"
           id="path180"
           inkscape:connector-curvature="0"
           style="fill:#999999" />
        <path
           d="m 48,40.1 c 0,4.4 -3.6,9.8 -8,12 -4.4,2.2 -8,0.4 -8,-4 0,-4.4 3.6,-9.8 8,-12 4.4,-2.2 8,-0.5 8,4 z"
           id="path182"
           inkscape:connector-curvature="0"
           style="opacity:0.2" />
        <path
           d="m 46.5,40.8 c 0,3.6 -2.9,8 -6.5,9.7 -3.6,1.8 -6.5,0.3 -6.5,-3.3 0,-3.6 2.9,-8 6.5,-9.7 3.6,-1.7 6.5,-0.3 6.5,3.3 z"
           id="path184"
           inkscape:connector-curvature="0"
           style="opacity:0.2" />
      </g>
    </g>
  </g>
  <g
     id="i435"
     class="top-level-node"
     transform="matrix(0.37892914,0,0,0.37892914,-100.0373,50.354605)">
    <g
       id="g207">
      <g
         id="g205">
        <path
           d="M 24,34 C 19.6,31.8 12.4,31.8 8,34 5.8,35.1 4.7,36.6 4.7,38 v 2 c 0,1.4 1.1,2.9 3.3,4 4.4,2.2 11.6,2.2 16,0 2.2,-1.1 3.3,-2.6 3.3,-4 v -2 c 0,-1.4 -1.1,-2.9 -3.3,-4 z"
           id="path191"
           inkscape:connector-curvature="0"
           style="fill:#999999" />
        <path
           d="M 24,42 C 19.6,44.2 12.4,44.2 8,42 5.8,40.9 4.7,39.4 4.7,38 v 2 c 0,1.4 1.1,2.9 3.3,4 4.4,2.2 11.6,2.2 16,0 2.2,-1.1 3.3,-2.6 3.3,-4 v -2 c 0,1.4 -1.1,2.9 -3.3,4 z"
           id="path193"
           inkscape:connector-curvature="0"
           style="opacity:0.1" />
        <path
           d="M 40.6,19.1 21,9.4 C 14.6,6.1 7,10.8 7,18 v 20 c 0,1.7 1.8,3.3 5.4,4.2 2.3,0.5 4.8,0.5 7.1,0 3.6,-0.8 5.4,-2.5 5.4,-4.2 v -5 c 0,-1.5 1.6,-2.5 2.9,-1.8 l 3.4,1.7 z"
           id="path195"
           inkscape:connector-curvature="0"
           style="fill:#999999" />
        <path
           d="M 40.6,19.1 21,9.4 C 14.6,6.1 7,10.8 7,18 v 20 c 0,1.7 1.8,3.3 5.4,4.2 2.3,0.5 4.8,0.5 7.1,0 3.6,-0.8 5.4,-2.5 5.4,-4.2 v -5 c 0,-1.5 1.6,-2.5 2.9,-1.8 l 3.4,1.7 z"
           id="path197"
           inkscape:connector-curvature="0"
           style="opacity:0.15" />
        <path
           d="m 45.7,19.6 -2,-1 C 42.3,17.9 40.3,18 38,19.1 c -4.4,2.2 -8,7.6 -8,12 0,2.3 1,3.9 2.6,4.6 l 1.5,0.8 c 1.5,0.9 3.6,0.8 5.9,-0.3 4.4,-2.2 8,-7.6 8,-12 0,-2.4 -0.9,-3.9 -2.3,-4.6 z"
           id="path199"
           inkscape:connector-curvature="0"
           style="fill:#999999" />
        <path
           d="m 48,24.1 c 0,4.4 -3.6,9.8 -8,12 -4.4,2.2 -8,0.4 -8,-4 0,-4.4 3.6,-9.8 8,-12 4.4,-2.2 8,-0.5 8,4 z"
           id="path201"
           inkscape:connector-curvature="0"
           style="opacity:0.2" />
        <path
           d="m 46.5,24.8 c 0,3.6 -2.9,8 -6.5,9.7 -3.6,1.8 -6.5,0.3 -6.5,-3.3 0,-3.6 2.9,-8 6.5,-9.7 3.6,-1.7 6.5,-0.3 6.5,3.3 z"
           id="path203"
           inkscape:connector-curvature="0"
           style="opacity:0.2" />
      </g>
    </g>
  </g>
  <g
     id="i436"
     class="top-level-node"
     transform="matrix(0.37892914,0,0,0.37892914,-66.691533,53.386038)">
    <g
       id="g226">
      <g
         id="g224">
        <path
           d="m 15.7,12.6 -2,-1 C 12.3,10.9 10.3,11 8,12.1 c -4.4,2.2 -8,7.6 -8,12 0,2.3 1,3.9 2.6,4.6 l 1.5,0.8 c 1.5,0.9 3.6,0.8 5.9,-0.3 4.4,-2.2 8,-7.6 8,-12 0,-2.4 -0.9,-3.9 -2.3,-4.6 z"
           id="path210"
           inkscape:connector-curvature="0"
           style="fill:#999999" />
        <path
           d="m 18,17.1 c 0,4.4 -3.6,9.8 -8,12 -4.4,2.2 -8,0.4 -8,-4 0,-4.4 3.6,-9.8 8,-12 4.4,-2.2 8,-0.5 8,4 z"
           id="path212"
           inkscape:connector-curvature="0"
           style="opacity:0.2" />
        <path
           d="M 41,8 H 23 v 8.8 c 0,0.7 -0.8,1.2 -1.4,0.9 l -7,-3.5 c -1.2,-0.6 -2.8,-0.5 -4.6,0.4 -3.6,1.8 -6.5,6.2 -6.5,9.7 0,1.9 0.8,3.2 2.1,3.7 L 27,38.7 c 6.4,3.2 14,-1.5 14,-8.6 z"
           id="path214"
           inkscape:connector-curvature="0"
           style="fill:#999999" />
        <path
           d="M 41,8 H 23 v 8.8 c 0,0.7 -0.8,1.2 -1.4,0.9 l -7,-3.5 c -1.2,-0.6 -2.8,-0.5 -4.6,0.4 -3.6,1.8 -6.5,6.2 -6.5,9.7 0,1.9 0.8,3.2 2.1,3.7 L 27,38.7 c 6.4,3.2 14,-1.5 14,-8.6 z"
           id="path216"
           inkscape:connector-curvature="0"
           style="opacity:0.15" />
        <path
           d="M 40,4 C 35.6,1.8 28.4,1.8 24,4 21.8,5.1 20.7,6.6 20.7,8 v 2 c 0,1.4 1.1,2.9 3.3,4 4.4,2.2 11.6,2.2 16,0 2.2,-1.1 3.3,-2.6 3.3,-4 V 8 C 43.3,6.6 42.2,5.1 40,4 Z"
           id="path218"
           inkscape:connector-curvature="0"
           style="fill:#999999" />
        <path
           d="m 38.4,4.8 c 3.5,1.8 3.5,4.6 0,6.4 -3.5,1.8 -9.2,1.8 -12.7,0 -3.5,-1.8 -3.5,-4.6 0,-6.4 3.5,-1.8 9.1,-1.7 12.7,0 z"
           id="path220"
           inkscape:connector-curvature="0"
           style="opacity:0.3" />
        <path
           d="M 40,12 C 35.6,14.2 28.4,14.2 24,12 21.8,10.9 20.7,9.4 20.7,8 v 2 c 0,1.4 1.1,2.9 3.3,4 4.4,2.2 11.6,2.2 16,0 2.2,-1.1 3.3,-2.6 3.3,-4 V 8 c 0,1.4 -1.1,2.9 -3.3,4 z"
           id="path222"
           inkscape:connector-curvature="0"
           style="opacity:0.1" />
      </g>
    </g>
  </g>
  <g
     id="i437"
     class="top-level-node"
     transform="matrix(0.37892914,0,0,0.37892914,-33.345768,56.417472)">
    <g
       id="g255">
      <g
         id="g253">
        <path
           d="m 15.7,12.6 -2,-1 C 12.3,10.9 10.3,11 8,12.1 c -4.4,2.2 -8,7.6 -8,12 0,2.3 1,3.9 2.6,4.6 l 1.5,0.8 c 1.5,0.9 3.6,0.8 5.9,-0.3 4.4,-2.2 8,-7.6 8,-12 0,-2.4 -0.9,-3.9 -2.3,-4.6 z"
           id="path229"
           inkscape:connector-curvature="0"
           style="fill:#999999" />
        <path
           d="m 18,17.1 c 0,4.4 -3.6,9.8 -8,12 -4.4,2.2 -8,0.4 -8,-4 0,-4.4 3.6,-9.8 8,-12 4.4,-2.2 8,-0.5 8,4 z"
           id="path231"
           inkscape:connector-curvature="0"
           style="opacity:0.2" />
        <path
           d="m 56.6,35.1 -42,-21 c -1.2,-0.6 -2.8,-0.5 -4.6,0.4 -3.6,1.8 -6.5,6.2 -6.5,9.7 0,1.9 0.8,3.2 2.1,3.7 l 41.7,20.8 z"
           id="path233"
           inkscape:connector-curvature="0"
           style="fill:#999999" />
        <path
           d="m 56.6,35.1 -42,-21 c -1.2,-0.6 -2.8,-0.5 -4.6,0.4 -3.6,1.8 -6.5,6.2 -6.5,9.7 0,1.9 0.8,3.2 2.1,3.7 l 41.7,20.8 z"
           id="path235"
           inkscape:connector-curvature="0"
           style="opacity:0.1" />
        <path
           d="m 61.7,35.6 -2,-1 C 58.3,33.9 56.3,34 54,35.1 c -4.4,2.2 -8,7.6 -8,12 0,2.3 1,3.9 2.6,4.6 l 1.5,0.8 c 1.5,0.9 3.6,0.8 5.9,-0.3 4.4,-2.2 8,-7.6 8,-12 0,-2.4 -0.9,-3.9 -2.3,-4.6 z"
           id="path237"
           inkscape:connector-curvature="0"
           style="fill:#999999" />
        <path
           d="m 64,40.1 c 0,4.4 -3.6,9.8 -8,12 -4.4,2.2 -8,0.4 -8,-4 0,-4.4 3.6,-9.8 8,-12 4.4,-2.2 8,-0.5 8,4 z"
           id="path239"
           inkscape:connector-curvature="0"
           style="opacity:0.2" />
        <path
           d="m 62.5,40.8 c 0,3.6 -2.9,8 -6.5,9.7 -3.6,1.8 -6.5,0.3 -6.5,-3.3 0,-3.6 2.9,-8 6.5,-9.7 3.6,-1.7 6.5,-0.3 6.5,3.3 z"
           id="path241"
           inkscape:connector-curvature="0"
           style="opacity:0.2" />
        <path
           d="m 23,8 v 20 c 0,1.2 0.9,2.3 2.6,3.2 3.5,1.8 9.2,1.8 12.7,0 1.8,-0.9 2.6,-2 2.6,-3.2 V 8 Z"
           id="path243"
           inkscape:connector-curvature="0"
           style="fill:#999999" />
        <path
           d="m 23,8 v 20 c 0,1.2 0.9,2.3 2.6,3.2 3.5,1.8 9.2,1.8 12.7,0 1.8,-0.9 2.6,-2 2.6,-3.2 V 8 Z"
           id="path245"
           inkscape:connector-curvature="0"
           style="opacity:0.2" />
        <path
           d="M 40,4 C 35.6,1.8 28.4,1.8 24,4 21.8,5.1 20.7,6.6 20.7,8 v 2 c 0,1.4 1.1,2.9 3.3,4 4.4,2.2 11.6,2.2 16,0 2.2,-1.1 3.3,-2.6 3.3,-4 V 8 C 43.3,6.6 42.2,5.1 40,4 Z"
           id="path247"
           inkscape:connector-curvature="0"
           style="fill:#999999" />
        <path
           d="m 38.4,4.8 c 3.5,1.8 3.5,4.6 0,6.4 -3.5,1.8 -9.2,1.8 -12.7,0 -3.5,-1.8 -3.5,-4.6 0,-6.4 3.5,-1.8 9.1,-1.7 12.7,0 z"
           id="path249"
           inkscape:connector-curvature="0"
           style="opacity:0.3" />
        <path
           d="M 40,12 C 35.6,14.2 28.4,14.2 24,12 21.8,10.9 20.7,9.4 20.7,8 v 2 c 0,1.4 1.1,2.9 3.3,4 4.4,2.2 11.6,2.2 16,0 2.2,-1.1 3.3,-2.6 3.3,-4 V 8 c 0,1.4 -1.1,2.9 -3.3,4 z"
           id="path251"
           inkscape:connector-curvature="0"
           style="opacity:0.1" />
      </g>
    </g>
  </g>
  <g
     id="i438"
     class="top-level-node"
     transform="matrix(0.37892914,0,0,0.37892914,0,56.417472)">
    <g
       id="g282">
      <g
         id="g280">
        <path
           d="m 40,42 c -4.4,-2.2 -11.6,-2.2 -16,0 -2.2,1.1 -3.3,2.6 -3.3,4 v 2 c 0,1.4 1.1,2.9 3.3,4 4.4,2.2 11.6,2.2 16,0 2.2,-1.1 3.3,-2.6 3.3,-4 v -2 c 0,-1.4 -1.1,-2.9 -3.3,-4 z"
           id="path258"
           inkscape:connector-curvature="0"
           style="fill:#999999" />
        <path
           d="m 40,50 c -4.4,2.2 -11.6,2.2 -16,0 -2.2,-1.1 -3.3,-2.6 -3.3,-4 v 2 c 0,1.4 1.1,2.9 3.3,4 4.4,2.2 11.6,2.2 16,0 2.2,-1.1 3.3,-2.6 3.3,-4 v -2 c 0,1.4 -1.1,2.9 -3.3,4 z"
           id="path260"
           inkscape:connector-curvature="0"
           style="opacity:0.1" />
        <path
           d="m 23,24 v 22 c 0,1.2 0.9,2.3 2.6,3.2 3.5,1.8 9.2,1.8 12.7,0 1.8,-0.9 2.6,-2 2.6,-3.2 V 24 Z"
           id="path262"
           inkscape:connector-curvature="0"
           style="fill:#999999" />
        <path
           d="m 23,24 v 22 c 0,1.2 0.9,2.3 2.6,3.2 3.5,1.8 9.2,1.8 12.7,0 1.8,-0.9 2.6,-2 2.6,-3.2 V 24 Z"
           id="path264"
           inkscape:connector-curvature="0"
           style="opacity:0.2" />
        <path
           d="m 15.7,4.6 -2,-1 C 12.2,2.8 10.2,3 8,4.1 3.6,6.3 0,11.7 0,16.1 0,18.4 1,20 2.6,20.7 l 1.5,0.8 c 1.5,0.9 3.6,0.8 5.9,-0.3 4.4,-2.2 8,-7.6 8,-12 0,-2.4 -0.9,-3.9 -2.3,-4.6 z"
           id="path266"
           inkscape:connector-curvature="0"
           style="fill:#999999" />
        <path
           d="m 18,9.1 c 0,4.4 -3.6,9.8 -8,12 -4.4,2.2 -8,0.4 -8,-4 0,-4.4 3.6,-9.8 8,-12 4.4,-2.2 8,-0.5 8,4 z"
           id="path268"
           inkscape:connector-curvature="0"
           style="opacity:0.2" />
        <path
           d="m 56.6,27.1 -42,-21 C 13.4,5.5 11.8,5.6 10,6.5 6.4,8.3 3.5,12.7 3.5,16.2 c 0,1.9 0.8,3.2 2.1,3.7 l 41.7,20.8 z"
           id="path270"
           inkscape:connector-curvature="0"
           style="fill:#999999" />
        <path
           d="m 56.6,27.1 -42,-21 C 13.4,5.5 11.8,5.6 10,6.5 6.4,8.3 3.5,12.7 3.5,16.2 c 0,1.9 0.8,3.2 2.1,3.7 l 41.7,20.8 z"
           id="path272"
           inkscape:connector-curvature="0"
           style="opacity:0.1" />
        <path
           d="m 61.7,27.6 -2,-1 C 58.3,25.9 56.3,26 54,27.1 c -4.4,2.2 -8,7.6 -8,12 0,2.3 1,3.9 2.6,4.6 l 1.5,0.8 c 1.5,0.9 3.6,0.8 5.9,-0.3 4.4,-2.2 8,-7.6 8,-12 0,-2.4 -0.9,-3.9 -2.3,-4.6 z"
           id="path274"
           inkscape:connector-curvature="0"
           style="fill:#999999" />
        <path
           d="m 64,32.1 c 0,4.4 -3.6,9.8 -8,12 -4.4,2.2 -8,0.4 -8,-4 0,-4.4 3.6,-9.8 8,-12 4.4,-2.2 8,-0.5 8,4 z"
           id="path276"
           inkscape:connector-curvature="0"
           style="opacity:0.2" />
        <path
           d="m 62.5,32.8 c 0,3.6 -2.9,8 -6.5,9.7 -3.6,1.8 -6.5,0.3 -6.5,-3.3 0,-3.6 2.9,-8 6.5,-9.7 3.6,-1.7 6.5,-0.3 6.5,3.3 z"
           id="path278"
           inkscape:connector-curvature="0"
           style="opacity:0.2" />
      </g>
    </g>
  </g>
  <g
     id="i439"
     class="top-level-node"
     transform="matrix(0.37892914,0,0,0.37892914,-100.0373,86.731803)">
    <g
       id="g305">
      <g
         id="g303">
        <path
           d="m 48.3,4.6 2,-1 C 51.8,2.8 53.8,3 56,4.1 c 4.4,2.2 8,7.6 8,12 0,2.3 -1,3.9 -2.6,4.6 l -1.5,0.8 C 58.4,22.4 56.3,22.3 54,21.2 49.6,19 46,13.6 46,9.2 46,6.8 46.9,5.3 48.3,4.6 Z"
           id="path285"
           inkscape:connector-curvature="0"
           style="fill:#999999" />
        <path
           d="m 46,9.1 c 0,4.4 3.6,9.8 8,12 4.4,2.2 8,0.4 8,-4 0,-4.4 -3.6,-9.8 -8,-12 -4.4,-2.2 -8,-0.5 -8,4 z"
           id="path287"
           inkscape:connector-curvature="0"
           style="opacity:0.2" />
        <path
           d="m 15.7,4.6 -2,-1 C 12.2,2.8 10.2,3 8,4.1 3.6,6.3 0,11.7 0,16.1 0,18.4 1,20 2.6,20.7 l 1.5,0.8 c 1.5,0.9 3.6,0.8 5.9,-0.3 4.4,-2.2 8,-7.6 8,-12 0,-2.4 -0.9,-3.9 -2.3,-4.6 z"
           id="path289"
           inkscape:connector-curvature="0"
           style="fill:#999999" />
        <path
           d="m 18,9.1 c 0,4.4 -3.6,9.8 -8,12 -4.4,2.2 -8,0.4 -8,-4 0,-4.4 3.6,-9.8 8,-12 4.4,-2.2 8,-0.5 8,4 z"
           id="path291"
           inkscape:connector-curvature="0"
           style="opacity:0.2" />
        <path
           d="M 54,6.6 C 52.2,5.7 50.6,5.6 49.4,6.2 L 32,14.9 14.6,6.2 C 13.4,5.6 11.8,5.7 10,6.6 6.4,8.4 3.5,12.8 3.5,16.3 c 0,1.9 0.8,3.2 2.1,3.7 l 41.7,20.8 9.3,-13.7 -6.2,-3.1 8,-4 c 1.3,-0.5 2.1,-1.8 2.1,-3.7 0,-3.6 -2.9,-8 -6.5,-9.7 z"
           id="path293"
           inkscape:connector-curvature="0"
           style="fill:#999999" />
        <path
           d="M 54,6.6 C 52.2,5.7 50.6,5.6 49.4,6.2 L 32,14.9 14.6,6.2 C 13.4,5.6 11.8,5.7 10,6.6 6.4,8.4 3.5,12.8 3.5,16.3 c 0,1.9 0.8,3.2 2.1,3.7 l 41.7,20.8 9.3,-13.7 -6.2,-3.1 8,-4 c 1.3,-0.5 2.1,-1.8 2.1,-3.7 0,-3.6 -2.9,-8 -6.5,-9.7 z"
           id="path295"
           inkscape:connector-curvature="0"
           style="opacity:0.1" />
        <path
           d="m 61.7,27.6 -2,-1 C 58.3,25.9 56.3,26 54,27.1 c -4.4,2.2 -8,7.6 -8,12 0,2.3 1,3.9 2.6,4.6 l 1.5,0.8 c 1.5,0.9 3.6,0.8 5.9,-0.3 4.4,-2.2 8,-7.6 8,-12 0,-2.4 -0.9,-3.9 -2.3,-4.6 z"
           id="path297"
           inkscape:connector-curvature="0"
           style="fill:#999999" />
        <path
           d="m 64,32.1 c 0,4.4 -3.6,9.8 -8,12 -4.4,2.2 -8,0.4 -8,-4 0,-4.4 3.6,-9.8 8,-12 4.4,-2.2 8,-0.5 8,4 z"
           id="path299"
           inkscape:connector-curvature="0"
           style="opacity:0.2" />
        <path
           d="m 62.5,32.8 c 0,3.6 -2.9,8 -6.5,9.7 -3.6,1.8 -6.5,0.3 -6.5,-3.3 0,-3.6 2.9,-8 6.5,-9.7 3.6,-1.7 6.5,-0.3 6.5,3.3 z"
           id="path301"
           inkscape:connector-curvature="0"
           style="opacity:0.2" />
      </g>
    </g>
  </g>
  <g
     id="i440"
     class="top-level-node"
     transform="matrix(0.37892914,0,0,0.37892914,-60.628666,83.70037)">
    <g
       id="g330">
      <g
         id="g328">
        <path
           d="m 15.7,4.6 -2,-1 C 12.2,2.8 10.2,3 8,4.1 3.6,6.3 0,11.7 0,16.1 0,18.4 1,20 2.6,20.7 l 1.5,0.8 c 1.5,0.9 3.6,0.8 5.9,-0.3 4.4,-2.2 8,-7.6 8,-12 0,-2.4 -0.9,-3.9 -2.3,-4.6 z"
           id="path308"
           inkscape:connector-curvature="0"
           style="fill:#999999" />
        <path
           d="m 18,9.1 c 0,4.4 -3.6,9.8 -8,12 -4.4,2.2 -8,0.4 -8,-4 0,-4.4 3.6,-9.8 8,-12 4.4,-2.2 8,-0.5 8,4 z"
           id="path310"
           inkscape:connector-curvature="0"
           style="opacity:0.2" />
        <path
           d="m 56.6,27.1 -42,-21 C 13.4,5.5 11.8,5.6 10,6.5 6.4,8.3 3.5,12.7 3.5,16.2 c 0,1.9 0.8,3.2 2.1,3.7 l 8,4 -6.2,3.1 9.3,13.7 15.3,-7.5 15.3,7.7 z"
           id="path312"
           inkscape:connector-curvature="0"
           style="fill:#999999" />
        <path
           d="m 56.6,27.1 -42,-21 C 13.4,5.5 11.8,5.6 10,6.5 6.4,8.3 3.5,12.7 3.5,16.2 c 0,1.9 0.8,3.2 2.1,3.7 l 8,4 -6.2,3.1 9.3,13.7 15.3,-7.5 15.3,7.7 z"
           id="path314"
           inkscape:connector-curvature="0"
           style="opacity:0.1" />
        <path
           d="m 61.7,27.6 -2,-1 C 58.3,25.9 56.3,26 54,27.1 c -4.4,2.2 -8,7.6 -8,12 0,2.3 1,3.9 2.6,4.6 l 1.5,0.8 c 1.5,0.9 3.6,0.8 5.9,-0.3 4.4,-2.2 8,-7.6 8,-12 0,-2.4 -0.9,-3.9 -2.3,-4.6 z"
           id="path316"
           inkscape:connector-curvature="0"
           style="fill:#999999" />
        <path
           d="m 64,32.1 c 0,4.4 -3.6,9.8 -8,12 -4.4,2.2 -8,0.4 -8,-4 0,-4.4 3.6,-9.8 8,-12 4.4,-2.2 8,-0.5 8,4 z"
           id="path318"
           inkscape:connector-curvature="0"
           style="opacity:0.2" />
        <path
           d="m 62.5,32.8 c 0,3.6 -2.9,8 -6.5,9.7 -3.6,1.8 -6.5,0.3 -6.5,-3.3 0,-3.6 2.9,-8 6.5,-9.7 3.6,-1.7 6.5,-0.3 6.5,3.3 z"
           id="path320"
           inkscape:connector-curvature="0"
           style="opacity:0.2" />
        <path
           d="m 2.3,27.6 2,-1 c 1.4,-0.7 3.4,-0.6 5.7,0.5 4.4,2.2 8,7.6 8,12 0,2.3 -1,3.9 -2.6,4.6 l -1.5,0.8 C 12.4,45.4 10.3,45.3 8,44.2 3.6,42 0,36.6 0,32.2 0,29.8 0.9,28.3 2.3,27.6 Z"
           id="path322"
           inkscape:connector-curvature="0"
           style="fill:#999999" />
        <path
           d="m 0,32.1 c 0,4.4 3.6,9.8 8,12 4.4,2.2 8,0.4 8,-4 0,-4.4 -3.6,-9.8 -8,-12 -4.4,-2.2 -8,-0.5 -8,4 z"
           id="path324"
           inkscape:connector-curvature="0"
           style="opacity:0.2" />
        <path
           d="m 1.5,32.8 c 0,3.6 2.9,8 6.5,9.7 3.6,1.8 6.5,0.3 6.5,-3.3 0,-3.6 -2.9,-8 -6.5,-9.7 -3.6,-1.7 -6.5,-0.3 -6.5,3.3 z"
           id="path326"
           inkscape:connector-curvature="0"
           style="opacity:0.2" />
      </g>
    </g>
  </g>
  <g
     id="i441"
     class="top-level-node"
     transform="matrix(0.37892914,0,0,0.37892914,-21.220036,86.731803)">
    <g
       id="g367">
      <g
         id="g365">
        <path
           d="m 40,50 c -4.4,-2.2 -11.6,-2.2 -16,0 -2.2,1.1 -3.3,2.6 -3.3,4 v 2 c 0,1.4 1.1,2.9 3.3,4 4.4,2.2 11.6,2.2 16,0 2.2,-1.1 3.3,-2.6 3.3,-4 v -2 c 0,-1.4 -1.1,-2.9 -3.3,-4 z"
           id="path333"
           inkscape:connector-curvature="0"
           style="fill:#999999" />
        <path
           d="m 40,58 c -4.4,2.2 -11.6,2.2 -16,0 -2.2,-1.1 -3.3,-2.6 -3.3,-4 v 2 c 0,1.4 1.1,2.9 3.3,4 4.4,2.2 11.6,2.2 16,0 2.2,-1.1 3.3,-2.6 3.3,-4 v -2 c 0,1.4 -1.1,2.9 -3.3,4 z"
           id="path335"
           inkscape:connector-curvature="0"
           style="opacity:0.1" />
        <path
           d="m 23,32 v 22 c 0,1.2 0.9,2.3 2.6,3.2 3.5,1.8 9.2,1.8 12.7,0 1.8,-0.9 2.6,-2 2.6,-3.2 V 32 Z"
           id="path337"
           inkscape:connector-curvature="0"
           style="fill:#999999" />
        <path
           d="m 23,32 v 22 c 0,1.2 0.9,2.3 2.6,3.2 3.5,1.8 9.2,1.8 12.7,0 1.8,-0.9 2.6,-2 2.6,-3.2 V 32 Z"
           id="path339"
           inkscape:connector-curvature="0"
           style="opacity:0.2" />
        <path
           d="m 15.7,12.6 -2,-1 C 12.3,10.9 10.3,11 8,12.1 c -4.4,2.2 -8,7.6 -8,12 0,2.3 1,3.9 2.6,4.6 l 1.5,0.8 c 1.5,0.9 3.6,0.8 5.9,-0.3 4.4,-2.2 8,-7.6 8,-12 0,-2.4 -0.9,-3.9 -2.3,-4.6 z"
           id="path341"
           inkscape:connector-curvature="0"
           style="fill:#999999" />
        <path
           d="m 18,17.1 c 0,4.4 -3.6,9.8 -8,12 -4.4,2.2 -8,0.4 -8,-4 0,-4.4 3.6,-9.8 8,-12 4.4,-2.2 8,-0.5 8,4 z"
           id="path343"
           inkscape:connector-curvature="0"
           style="opacity:0.2" />
        <path
           d="m 56.6,35.1 -42,-21 c -1.2,-0.6 -2.8,-0.5 -4.6,0.4 -3.6,1.8 -6.5,6.2 -6.5,9.7 0,1.9 0.8,3.2 2.1,3.7 l 41.7,20.8 z"
           id="path345"
           inkscape:connector-curvature="0"
           style="fill:#999999" />
        <path
           d="m 56.6,35.1 -42,-21 c -1.2,-0.6 -2.8,-0.5 -4.6,0.4 -3.6,1.8 -6.5,6.2 -6.5,9.7 0,1.9 0.8,3.2 2.1,3.7 l 41.7,20.8 z"
           id="path347"
           inkscape:connector-curvature="0"
           style="opacity:0.1" />
        <path
           d="m 61.7,35.6 -2,-1 C 58.3,33.9 56.3,34 54,35.1 c -4.4,2.2 -8,7.6 -8,12 0,2.3 1,3.9 2.6,4.6 l 1.5,0.8 c 1.5,0.9 3.6,0.8 5.9,-0.3 4.4,-2.2 8,-7.6 8,-12 0,-2.4 -0.9,-3.9 -2.3,-4.6 z"
           id="path349"
           inkscape:connector-curvature="0"
           style="fill:#999999" />
        <path
           d="m 64,40.1 c 0,4.4 -3.6,9.8 -8,12 -4.4,2.2 -8,0.4 -8,-4 0,-4.4 3.6,-9.8 8,-12 4.4,-2.2 8,-0.5 8,4 z"
           id="path351"
           inkscape:connector-curvature="0"
           style="opacity:0.2" />
        <path
           d="m 62.5,40.8 c 0,3.6 -2.9,8 -6.5,9.7 -3.6,1.8 -6.5,0.3 -6.5,-3.3 0,-3.6 2.9,-8 6.5,-9.7 3.6,-1.7 6.5,-0.3 6.5,3.3 z"
           id="path353"
           inkscape:connector-curvature="0"
           style="opacity:0.2" />
        <path
           d="m 23,8 v 20 c 0,1.2 0.9,2.3 2.6,3.2 3.5,1.8 9.2,1.8 12.7,0 1.8,-0.9 2.6,-2 2.6,-3.2 V 8 Z"
           id="path355"
           inkscape:connector-curvature="0"
           style="fill:#999999" />
        <path
           d="m 23,8 v 20 c 0,1.2 0.9,2.3 2.6,3.2 3.5,1.8 9.2,1.8 12.7,0 1.8,-0.9 2.6,-2 2.6,-3.2 V 8 Z"
           id="path357"
           inkscape:connector-curvature="0"
           style="opacity:0.2" />
        <path
           d="M 40,4 C 35.6,1.8 28.4,1.8 24,4 21.8,5.1 20.7,6.6 20.7,8 v 2 c 0,1.4 1.1,2.9 3.3,4 4.4,2.2 11.6,2.2 16,0 2.2,-1.1 3.3,-2.6 3.3,-4 V 8 C 43.3,6.6 42.2,5.1 40,4 Z"
           id="path359"
           inkscape:connector-curvature="0"
           style="fill:#999999" />
        <path
           d="m 38.4,4.8 c 3.5,1.8 3.5,4.6 0,6.4 -3.5,1.8 -9.2,1.8 -12.7,0 -3.5,-1.8 -3.5,-4.6 0,-6.4 3.5,-1.8 9.1,-1.7 12.7,0 z"
           id="path361"
           inkscape:connector-curvature="0"
           style="opacity:0.3" />
        <path
           d="M 40,12 C 35.6,14.2 28.4,14.2 24,12 21.8,10.9 20.7,9.4 20.7,8 v 2 c 0,1.4 1.1,2.9 3.3,4 4.4,2.2 11.6,2.2 16,0 2.2,-1.1 3.3,-2.6 3.3,-4 V 8 c 0,1.4 -1.1,2.9 -3.3,4 z"
           id="path363"
           inkscape:connector-curvature="0"
           style="opacity:0.1" />
      </g>
    </g>
  </g>
  <g
     id="i442"
     class="top-level-node"
     transform="matrix(0.37892914,0,0,0.37892914,18.18859,83.70037)">
    <g
       id="g396">
      <g
         id="g394">
        <path
           d="m 48.3,4.6 2,-1 C 51.8,2.8 53.8,3 56,4.1 c 4.4,2.2 8,7.6 8,12 0,2.3 -1,3.9 -2.6,4.6 l -1.5,0.8 C 58.4,22.4 56.3,22.3 54,21.2 49.6,19 46,13.6 46,9.2 46,6.8 46.9,5.3 48.3,4.6 Z"
           id="path370"
           inkscape:connector-curvature="0"
           style="fill:#999999" />
        <path
           d="m 46,9.1 c 0,4.4 3.6,9.8 8,12 4.4,2.2 8,0.4 8,-4 0,-4.4 -3.6,-9.8 -8,-12 -4.4,-2.2 -8,-0.5 -8,4 z"
           id="path372"
           inkscape:connector-curvature="0"
           style="opacity:0.2" />
        <path
           d="m 15.7,4.6 -2,-1 C 12.2,2.8 10.2,3 8,4.1 3.6,6.3 0,11.7 0,16.1 0,18.4 1,20 2.6,20.7 l 1.5,0.8 c 1.5,0.9 3.6,0.8 5.9,-0.3 4.4,-2.2 8,-7.6 8,-12 0,-2.4 -0.9,-3.9 -2.3,-4.6 z"
           id="path374"
           inkscape:connector-curvature="0"
           style="fill:#999999" />
        <path
           d="m 18,9.1 c 0,4.4 -3.6,9.8 -8,12 -4.4,2.2 -8,0.4 -8,-4 0,-4.4 3.6,-9.8 8,-12 4.4,-2.2 8,-0.5 8,4 z"
           id="path376"
           inkscape:connector-curvature="0"
           style="opacity:0.2" />
        <path
           d="M 54,6.6 C 52.2,5.7 50.6,5.6 49.4,6.2 L 32,14.9 14.6,6.2 C 13.4,5.6 11.8,5.7 10,6.6 6.4,8.4 3.5,12.8 3.5,16.3 c 0,1.9 0.8,3.2 2.1,3.7 l 8,4 -6.2,3.1 9.3,13.7 15.3,-7.6 15.3,7.7 9.3,-13.7 -6.2,-3.2 8,-4 c 1.3,-0.5 2.1,-1.8 2.1,-3.7 0,-3.6 -2.9,-8 -6.5,-9.7 z"
           id="path378"
           inkscape:connector-curvature="0"
           style="fill:#999999" />
        <path
           d="M 54,6.6 C 52.2,5.7 50.6,5.6 49.4,6.2 L 32,14.9 14.6,6.2 C 13.4,5.6 11.8,5.7 10,6.6 6.4,8.4 3.5,12.8 3.5,16.3 c 0,1.9 0.8,3.2 2.1,3.7 l 8,4 -6.2,3.1 9.3,13.7 15.3,-7.6 15.3,7.7 9.3,-13.7 -6.2,-3.2 8,-4 c 1.3,-0.5 2.1,-1.8 2.1,-3.7 0,-3.6 -2.9,-8 -6.5,-9.7 z"
           id="path380"
           inkscape:connector-curvature="0"
           style="opacity:0.1" />
        <path
           d="m 61.7,27.6 -2,-1 C 58.3,25.9 56.3,26 54,27.1 c -4.4,2.2 -8,7.6 -8,12 0,2.3 1,3.9 2.6,4.6 l 1.5,0.8 c 1.5,0.9 3.6,0.8 5.9,-0.3 4.4,-2.2 8,-7.6 8,-12 0,-2.4 -0.9,-3.9 -2.3,-4.6 z"
           id="path382"
           inkscape:connector-curvature="0"
           style="fill:#999999" />
        <path
           d="m 64,32.1 c 0,4.4 -3.6,9.8 -8,12 -4.4,2.2 -8,0.4 -8,-4 0,-4.4 3.6,-9.8 8,-12 4.4,-2.2 8,-0.5 8,4 z"
           id="path384"
           inkscape:connector-curvature="0"
           style="opacity:0.2" />
        <path
           d="m 62.5,32.8 c 0,3.6 -2.9,8 -6.5,9.7 -3.6,1.8 -6.5,0.3 -6.5,-3.3 0,-3.6 2.9,-8 6.5,-9.7 3.6,-1.7 6.5,-0.3 6.5,3.3 z"
           id="path386"
           inkscape:connector-curvature="0"
           style="opacity:0.2" />
        <path
           d="m 2.3,27.6 2,-1 c 1.4,-0.7 3.4,-0.6 5.7,0.5 4.4,2.2 8,7.6 8,12 0,2.3 -1,3.9 -2.6,4.6 l -1.5,0.8 C 12.4,45.4 10.3,45.3 8,44.2 3.6,42 0,36.6 0,32.2 0,29.8 0.9,28.3 2.3,27.6 Z"
           id="path388"
           inkscape:connector-curvature="0"
           style="fill:#999999" />
        <path
           d="m 0,32.1 c 0,4.4 3.6,9.8 8,12 4.4,2.2 8,0.4 8,-4 0,-4.4 -3.6,-9.8 -8,-12 -4.4,-2.2 -8,-0.5 -8,4 z"
           id="path390"
           inkscape:connector-curvature="0"
           style="opacity:0.2" />
        <path
           d="m 1.5,32.8 c 0,3.6 2.9,8 6.5,9.7 3.6,1.8 6.5,0.3 6.5,-3.3 0,-3.6 -2.9,-8 -6.5,-9.7 -3.6,-1.7 -6.5,-0.3 -6.5,3.3 z"
           id="path392"
           inkscape:connector-curvature="0"
           style="opacity:0.2" />
      </g>
    </g>
  </g>
  <g
     id="i443"
     class="top-level-node"
     transform="matrix(0.37892914,0,0,0.37892914,-93.974431,120.07757)">
    <g
       id="g423">
      <g
         id="g421">
        <path
           d="m 15.7,12.6 -2,-1 C 12.3,10.9 10.3,11 8,12.1 c -4.4,2.2 -8,7.6 -8,12 0,2.3 1,3.9 2.6,4.6 l 1.5,0.8 c 1.5,0.9 3.6,0.8 5.9,-0.3 4.4,-2.2 8,-7.6 8,-12 0,-2.4 -0.9,-3.9 -2.3,-4.6 z"
           id="path399"
           inkscape:connector-curvature="0"
           style="fill:#999999" />
        <path
           d="m 18,17.1 c 0,4.4 -3.6,9.8 -8,12 -4.4,2.2 -8,0.4 -8,-4 0,-4.4 3.6,-9.8 8,-12 4.4,-2.2 8,-0.5 8,4 z"
           id="path401"
           inkscape:connector-curvature="0"
           style="opacity:0.2" />
        <path
           d="m 34.6,24.1 -20,-10 c -1.2,-0.6 -2.8,-0.5 -4.6,0.4 -3.6,1.8 -6.5,6.2 -6.5,9.7 0,1.9 0.8,3.2 2.1,3.7 l 19.7,9.8 z"
           id="path403"
           inkscape:connector-curvature="0"
           style="fill:#999999" />
        <path
           d="m 34.6,24.1 -20,-10 c -1.2,-0.6 -2.8,-0.5 -4.6,0.4 -3.6,1.8 -6.5,6.2 -6.5,9.7 0,1.9 0.8,3.2 2.1,3.7 l 19.7,9.8 z"
           id="path405"
           inkscape:connector-curvature="0"
           style="opacity:0.1" />
        <path
           d="m 40,50 c -4.4,-2.2 -11.6,-2.2 -16,0 -2.2,1.1 -3.3,2.6 -3.3,4 v 2 c 0,1.4 1.1,2.9 3.3,4 4.4,2.2 11.6,2.2 16,0 2.2,-1.1 3.3,-2.6 3.3,-4 v -2 c 0,-1.4 -1.1,-2.9 -3.3,-4 z"
           id="path407"
           inkscape:connector-curvature="0"
           style="fill:#999999" />
        <path
           d="m 40,58 c -4.4,2.2 -11.6,2.2 -16,0 -2.2,-1.1 -3.3,-2.6 -3.3,-4 v 2 c 0,1.4 1.1,2.9 3.3,4 4.4,2.2 11.6,2.2 16,0 2.2,-1.1 3.3,-2.6 3.3,-4 v -2 c 0,1.4 -1.1,2.9 -3.3,4 z"
           id="path409"
           inkscape:connector-curvature="0"
           style="opacity:0.1" />
        <path
           d="m 23,8 v 46 c 0,1.2 0.9,2.3 2.6,3.2 3.5,1.8 9.2,1.8 12.7,0 1.8,-0.9 2.6,-2 2.6,-3.2 V 8 Z"
           id="path411"
           inkscape:connector-curvature="0"
           style="fill:#999999" />
        <path
           d="m 23,8 v 46 c 0,1.2 0.9,2.3 2.6,3.2 3.5,1.8 9.2,1.8 12.7,0 1.8,-0.9 2.6,-2 2.6,-3.2 V 8 Z"
           id="path413"
           inkscape:connector-curvature="0"
           style="opacity:0.2" />
        <path
           d="M 40,4 C 35.6,1.8 28.4,1.8 24,4 21.8,5.1 20.7,6.6 20.7,8 v 2 c 0,1.4 1.1,2.9 3.3,4 4.4,2.2 11.6,2.2 16,0 2.2,-1.1 3.3,-2.6 3.3,-4 V 8 C 43.3,6.6 42.2,5.1 40,4 Z"
           id="path415"
           inkscape:connector-curvature="0"
           style="fill:#999999" />
        <path
           d="m 38.4,4.8 c 3.5,1.8 3.5,4.6 0,6.4 -3.5,1.8 -9.2,1.8 -12.7,0 -3.5,-1.8 -3.5,-4.6 0,-6.4 3.5,-1.8 9.1,-1.7 12.7,0 z"
           id="path417"
           inkscape:connector-curvature="0"
           style="opacity:0.3" />
        <path
           d="M 40,12 C 35.6,14.2 28.4,14.2 24,12 21.8,10.9 20.7,9.4 20.7,8 v 2 c 0,1.4 1.1,2.9 3.3,4 4.4,2.2 11.6,2.2 16,0 2.2,-1.1 3.3,-2.6 3.3,-4 V 8 c 0,1.4 -1.1,2.9 -3.3,4 z"
           id="path419"
           inkscape:connector-curvature="0"
           style="opacity:0.1" />
      </g>
    </g>
  </g>
  <g
     id="i444"
     class="top-level-node"
     transform="matrix(0.37892914,0,0,0.37892914,-66.691533,120.07757)">
    <g
       id="g452">
      <g
         id="g450">
        <path
           d="M 24,50 C 19.6,47.8 12.4,47.8 8,50 5.8,51.1 4.7,52.6 4.7,54 v 2 c 0,1.4 1.1,2.9 3.3,4 4.4,2.2 11.6,2.2 16,0 2.2,-1.1 3.3,-2.6 3.3,-4 v -2 c 0,-1.4 -1.1,-2.9 -3.3,-4 z"
           id="path426"
           inkscape:connector-curvature="0"
           style="fill:#999999" />
        <path
           d="M 24,58 C 19.6,60.2 12.4,60.2 8,58 5.8,56.9 4.7,55.4 4.7,54 v 2 c 0,1.4 1.1,2.9 3.3,4 4.4,2.2 11.6,2.2 16,0 2.2,-1.1 3.3,-2.6 3.3,-4 v -2 c 0,1.4 -1.1,2.9 -3.3,4 z"
           id="path428"
           inkscape:connector-curvature="0"
           style="opacity:0.1" />
        <path
           d="m 7,8 v 46 c 0,1.2 0.9,2.3 2.6,3.2 3.5,1.8 9.2,1.8 12.7,0 1.8,-0.9 2.6,-2 2.6,-3.2 V 8 Z"
           id="path430"
           inkscape:connector-curvature="0"
           style="fill:#999999" />
        <path
           d="m 7,8 v 46 c 0,1.2 0.9,2.3 2.6,3.2 3.5,1.8 9.2,1.8 12.7,0 1.8,-0.9 2.6,-2 2.6,-3.2 V 8 Z"
           id="path432"
           inkscape:connector-curvature="0"
           style="opacity:0.2" />
        <path
           d="M 24,4 C 19.6,1.8 12.4,1.8 8,4 5.8,5.1 4.7,6.6 4.7,8 v 2 c 0,1.4 1.1,2.9 3.3,4 4.4,2.2 11.6,2.2 16,0 2.2,-1.1 3.3,-2.6 3.3,-4 V 8 C 27.3,6.6 26.2,5.1 24,4 Z"
           id="path434"
           inkscape:connector-curvature="0"
           style="fill:#999999" />
        <path
           d="m 22.4,4.8 c 3.5,1.8 3.5,4.6 0,6.4 C 18.9,13 13.2,13 9.7,11.2 6.2,9.4 6.2,6.6 9.7,4.8 13.2,3 18.8,3.1 22.4,4.8 Z"
           id="path436"
           inkscape:connector-curvature="0"
           style="opacity:0.3" />
        <path
           d="M 24,12 C 19.6,14.2 12.4,14.2 8,12 5.8,10.9 4.7,9.4 4.7,8 v 2 c 0,1.4 1.1,2.9 3.3,4 4.4,2.2 11.6,2.2 16,0 2.2,-1.1 3.3,-2.6 3.3,-4 V 8 c 0,1.4 -1.1,2.9 -3.3,4 z"
           id="path438"
           inkscape:connector-curvature="0"
           style="opacity:0.1" />
        <path
           d="m 40.6,35.1 -16,-8 c -1.2,-0.6 -2.8,-0.5 -4.6,0.4 -3.6,1.8 -6.5,6.2 -6.5,9.7 0,1.9 0.8,3.2 2.1,3.7 l 15.7,7.8 z"
           id="path440"
           inkscape:connector-curvature="0"
           style="fill:#999999" />
        <path
           d="m 40.6,35.1 -16,-8 c -1.2,-0.6 -2.8,-0.5 -4.6,0.4 -3.6,1.8 -6.5,6.2 -6.5,9.7 0,1.9 0.8,3.2 2.1,3.7 l 15.7,7.8 z"
           id="path442"
           inkscape:connector-curvature="0"
           style="opacity:0.1" />
        <path
           d="m 45.7,35.6 -2,-1 C 42.3,33.9 40.3,34 38,35.1 c -4.4,2.2 -8,7.6 -8,12 0,2.3 1,3.9 2.6,4.6 l 1.5,0.8 c 1.5,0.9 3.6,0.8 5.9,-0.3 4.4,-2.2 8,-7.6 8,-12 0,-2.4 -0.9,-3.9 -2.3,-4.6 z"
           id="path444"
           inkscape:connector-curvature="0"
           style="fill:#999999" />
        <path
           d="m 48,40.1 c 0,4.4 -3.6,9.8 -8,12 -4.4,2.2 -8,0.4 -8,-4 0,-4.4 3.6,-9.8 8,-12 4.4,-2.2 8,-0.5 8,4 z"
           id="path446"
           inkscape:connector-curvature="0"
           style="opacity:0.2" />
        <path
           d="m 46.5,40.8 c 0,3.6 -2.9,8 -6.5,9.7 -3.6,1.8 -6.5,0.3 -6.5,-3.3 0,-3.6 2.9,-8 6.5,-9.7 3.6,-1.7 6.5,-0.3 6.5,3.3 z"
           id="path448"
           inkscape:connector-curvature="0"
           style="opacity:0.2" />
      </g>
    </g>
  </g>
  <g
     id="i445"
     class="top-level-node"
     transform="matrix(0.37892914,0,0,0.37892914,-33.345768,126.14044)">
    <g
       id="g465">
      <g
         id="g463">
        <path
           d="M 60.9,29.3 12.6,5.2 C 11.4,4.6 9.8,4.7 8,5.6 4.4,7.4 1.5,11.8 1.5,15.3 c 0,1.9 0.8,3.2 2.1,3.7 l 47.6,23.8 c 1.2,0.7 2.9,0.7 4.8,-0.3 3.6,-1.8 6.5,-6.2 6.5,-9.7 0,-1.6 -0.6,-2.8 -1.6,-3.5 z"
           id="path455"
           inkscape:connector-curvature="0"
           style="fill:#999999" />
        <path
           d="m 49.5,39.3 c 0,-3.6 2.9,-8 6.5,-9.7 1.8,-0.9 3.4,-1 4.5,-0.4 L 12.6,5.2 C 11.4,4.6 9.8,4.7 8,5.6 4.4,7.4 1.5,11.8 1.5,15.3 c 0,1.9 0.8,3.2 2.1,3.7 l 47.6,23.8 c -1,-0.6 -1.7,-1.8 -1.7,-3.5 z"
           id="path457"
           inkscape:connector-curvature="0"
           style="opacity:0.1" />
        <path
           d="m 62.5,32.8 c 0,3.6 -2.9,8 -6.5,9.7 -3.6,1.8 -6.5,0.3 -6.5,-3.3 0,-3.6 2.9,-8 6.5,-9.7 3.6,-1.7 6.5,-0.3 6.5,3.3 z"
           id="path459"
           inkscape:connector-curvature="0"
           style="opacity:0.2" />
        <path
           d="m 61.8,33.1 c 0,3.2 -2.6,7.1 -5.8,8.7 -3.2,1.6 -5.8,0.3 -5.8,-2.9 0,-3.2 2.6,-7.1 5.8,-8.7 3.2,-1.6 5.8,-0.3 5.8,2.9 z"
           id="path461"
           inkscape:connector-curvature="0"
           style="opacity:0.2" />
      </g>
    </g>
  </g>
  <g
     id="i446"
     class="top-level-node"
     transform="matrix(0.37892914,0,0,0.37892914,3.03143,126.14044)">
    <g
       id="g476">
      <g
         id="g474">
        <path
           d="M 22.4,4.8 C 18.9,3 13.2,3 9.7,4.8 7.9,5.7 7,6.8 7,8 v 47.7 c 0,1.2 0.9,2.3 2.6,3.2 3.5,1.8 9.2,1.8 12.7,0 1.8,-0.9 2.6,-2 2.6,-3.2 V 8 C 25,6.8 24.1,5.7 22.4,4.8 Z"
           id="path468"
           inkscape:connector-curvature="0"
           style="fill:#999999" />
        <path
           d="M 22.4,11.2 C 18.9,13 13.2,13 9.7,11.2 7.9,10.3 7,9.2 7,8 v 47.7 c 0,1.2 0.9,2.3 2.6,3.2 3.5,1.8 9.2,1.8 12.7,0 1.8,-0.9 2.6,-2 2.6,-3.2 V 8 c 0.1,1.2 -0.8,2.3 -2.5,3.2 z"
           id="path470"
           inkscape:connector-curvature="0"
           style="opacity:0.2" />
        <path
           d="m 21.7,5.2 c 3.1,1.6 3.1,4.1 0,5.7 -3.1,1.6 -8.2,1.6 -11.3,0 -3.1,-1.6 -3.1,-4.1 0,-5.7 3.1,-1.6 8.1,-1.6 11.3,0 z"
           id="path472"
           inkscape:connector-curvature="0"
           style="opacity:0.3" />
      </g>
    </g>
  </g>
  <g
     id="i447"
     class="top-level-node"
     transform="matrix(0.37892914,0,0,0.37892914,6.06286,165.54907)">
    <g
       id="g497">
      <g
         id="g495">
        <path
           d="m 22.4,4.8 c 3.5,1.8 3.5,4.6 0,6.4 C 18.9,13 13.2,13 9.7,11.2 6.2,9.4 6.2,6.6 9.7,4.8 13.2,3 18.8,3.1 22.4,4.8 Z"
           stroke-miterlimit="10"
           id="path479"
           inkscape:connector-curvature="0"
           style="fill:none;stroke:#cc291f;stroke-width:2;stroke-miterlimit:10" />
        <path
           d="m 18.8,12.1 c -1.6,-0.8 -4.1,-0.8 -5.7,0 C 12.4,12.5 12,13 12,13.5 V 16 c 0,0.5 0.4,1 1.2,1.4 1.6,0.8 4.1,0.8 5.7,0 C 19.6,17 20,16.5 20,16 v -2.5 c 0,-0.5 -0.4,-1 -1.2,-1.4 z"
           id="path481"
           inkscape:connector-curvature="0"
           style="fill:#999999" />
        <path
           d="m 18.8,14.9 c -1.6,0.8 -4.1,0.8 -5.7,0 C 12.4,14.5 12,14 12,13.5 V 16 c 0,0.5 0.4,1 1.2,1.4 1.6,0.8 4.1,0.8 5.7,0 C 19.6,17 20,16.5 20,16 v -2.5 c 0,0.5 -0.4,1 -1.2,1.4 z"
           id="path483"
           inkscape:connector-curvature="0"
           style="opacity:0.1" />
        <path
           d="M 17.4,7.3 C 16.6,6.9 15.4,6.9 14.6,7.3 14.2,7.5 14,7.7 14,8 v 5.2 c 0,0.3 0.2,0.5 0.6,0.7 0.8,0.4 2,0.4 2.8,0 0.4,-0.2 0.6,-0.5 0.6,-0.7 V 8 C 18,7.7 17.8,7.5 17.4,7.3 Z"
           id="path485"
           inkscape:connector-curvature="0"
           style="fill:#999999" />
        <path
           d="m 17.4,8.7 c -0.8,0.4 -2,0.4 -2.8,0 C 14.2,8.5 14,8.3 14,8 v 5.2 c 0,0.3 0.2,0.5 0.6,0.7 0.8,0.4 2,0.4 2.8,0 0.4,-0.2 0.6,-0.5 0.6,-0.7 V 8 c 0,0.3 -0.2,0.5 -0.6,0.7 z"
           id="path487"
           inkscape:connector-curvature="0"
           style="opacity:0.1" />
        <path
           d="M 22.8,3.9 C 21,3 18.6,2.5 16,2.5 13.4,2.5 11,3 9.2,3.9 7.1,5 6,6.4 6,8 c 0,1.6 1.1,3 3.2,4.1 1.8,0.9 4.3,1.4 6.8,1.4 2.5,0 5,-0.5 6.8,-1.4 C 24.9,11 26,9.6 26,8 26,6.4 24.9,5 22.8,3.9 Z M 23.6,7 H 19.4 C 19.2,6.9 19,6.7 18.8,6.6 18.3,6.3 17.6,6.2 17,6.1 V 4.5 c 1.9,0.1 3.6,0.5 4.9,1.2 0.8,0.4 1.4,0.8 1.7,1.3 z M 10.1,5.7 C 11.4,5 13.1,4.7 15,4.5 V 6 C 14.3,6.1 13.7,6.3 13.2,6.5 12.9,6.6 12.8,6.8 12.6,6.9 H 8.4 C 8.7,6.5 9.3,6.1 10.1,5.7 Z M 8.4,9 h 4.2 c 0.2,0.1 0.4,0.3 0.6,0.4 0.5,0.3 1.2,0.4 1.8,0.5 v 1.5 C 13.1,11.3 11.4,10.9 10.1,10.2 9.3,9.9 8.7,9.5 8.4,9 Z m 13.5,1.3 C 20.6,11 18.8,11.4 17,11.5 V 9.9 C 17.7,9.8 18.3,9.6 18.8,9.4 19.1,9.3 19.2,9.1 19.4,9 h 4.2 c -0.3,0.5 -0.9,0.9 -1.7,1.3 z"
           id="path489"
           inkscape:connector-curvature="0"
           style="fill:#cc291f" />
        <path
           d="M 17.4,4.3 C 16.6,3.9 15.4,3.9 14.6,4.3 14.2,4.5 14,4.7 14,5 v 3 c 0,0.3 0.2,0.5 0.6,0.7 0.8,0.4 2,0.4 2.8,0 C 17.8,8.5 18,8.3 18,8 V 5 C 18,4.7 17.8,4.5 17.4,4.3 Z"
           id="path491"
           inkscape:connector-curvature="0"
           style="fill:#999999" />
        <path
           d="m 17.4,5.7 c -0.8,0.4 -2,0.4 -2.8,0 C 14.2,5.5 14,5.3 14,5 v 3 c 0,0.3 0.2,0.5 0.6,0.7 0.8,0.4 2,0.4 2.8,0 C 17.8,8.5 18,8.3 18,8 V 5 c 0,0.3 -0.2,0.5 -0.6,0.7 z"
           id="path493"
           inkscape:connector-curvature="0"
           style="opacity:0.1" />
      </g>
    </g>
  </g>
  <g
     id="i448"
     class="top-level-node"
     transform="matrix(0.37892914,0,0,0.37892914,-21.220036,162.51764)">
    <g
       id="g518">
      <g
         id="g516">
        <path
           d="M 14,10.1 11.4,8.8 C 10.8,8.5 9.9,8.6 9,9 7.1,9.9 5.6,12.2 5.6,14.1 c 0,1 0.4,1.7 1.1,2 L 9,17.3 c 0.6,0.4 1.5,0.4 2.5,-0.1 1.9,-0.9 3.4,-3.2 3.4,-5.1 0.1,-1 -0.3,-1.7 -0.9,-2 z"
           id="path500"
           inkscape:connector-curvature="0"
           style="fill:#999999" />
        <path
           d="m 15,12 c 0,1.9 -1.5,4.2 -3.4,5.1 C 9.7,18 8.2,17.3 8.2,15.4 8.2,13.5 9.7,11.2 11.6,10.3 13.5,9.4 15,10.1 15,12 Z"
           id="path502"
           inkscape:connector-curvature="0"
           style="opacity:0.2" />
        <path
           d="m 16.5,14.1 -3.2,-1.7 c -0.3,-0.2 -0.7,-0.1 -1.2,0.1 -1,0.5 -1.7,1.6 -1.7,2.6 0,0.5 0.2,0.8 0.6,1 l 3.1,1.7 c 0.3,0.2 0.8,0.2 1.3,-0.1 1,-0.5 1.7,-1.6 1.7,-2.6 -0.1,-0.5 -0.3,-0.8 -0.6,-1 z"
           id="path504"
           inkscape:connector-curvature="0"
           style="fill:#999999" />
        <path
           d="m 17,15.1 c 0,1 -0.8,2.1 -1.7,2.6 -0.9,0.5 -1.7,0.1 -1.7,-0.9 0,-1 0.8,-2.1 1.7,-2.6 0.9,-0.4 1.7,-0.1 1.7,0.9 z"
           id="path506"
           inkscape:connector-curvature="0"
           style="opacity:0.2" />
        <path
           d="m 16.9,6.8 c -1.1,0 -2.2,0.3 -3.4,0.9 -4,2 -7.1,6.7 -7.1,10.6 0,3 1.8,5 4.6,5 1.1,0 2.2,-0.3 3.3,-0.9 4,-2 7.1,-6.7 7.1,-10.6 0.1,-3 -1.7,-5 -4.5,-5 z m 2.6,4.4 -2.7,1.3 C 16.5,11.9 15.8,11.6 15,11.7 V 9.2 c 0.7,-0.3 1.3,-0.4 1.9,-0.4 1.5,0 2.4,0.8 2.6,2.4 z M 13,10.4 v 2.4 c -0.8,0.7 -1.4,1.6 -1.8,2.5 L 8.7,16.5 C 9.4,14.2 11,11.9 13,10.4 Z m -4.5,8.5 2.7,-1.3 c 0.3,0.7 1,1 1.8,0.9 V 21 c -0.7,0.3 -1.3,0.4 -1.9,0.4 -1.5,-0.1 -2.4,-1 -2.6,-2.5 z m 6.5,0.8 v -2.4 c 0.8,-0.7 1.5,-1.7 1.8,-2.7 l 2.5,-1.2 C 18.7,15.8 17,18.2 15,19.7 Z"
           id="path508"
           inkscape:connector-curvature="0"
           style="fill:#cc291f" />
        <path
           d="m 16.9,6.8 c -1.1,0 -2.2,0.3 -3.4,0.9 -4,2 -7.1,6.7 -7.1,10.6 0,3 1.8,5 4.6,5 1.1,0 2.2,-0.3 3.3,-0.9 4,-2 7.1,-6.7 7.1,-10.6 0.1,-3 -1.7,-5 -4.5,-5 z m 2.6,4.4 -2.7,1.3 C 16.5,11.9 15.8,11.6 15,11.7 V 9.2 c 0.7,-0.3 1.3,-0.4 1.9,-0.4 1.5,0 2.4,0.8 2.6,2.4 z M 13,10.4 v 2.4 c -0.8,0.7 -1.4,1.6 -1.8,2.5 L 8.7,16.5 C 9.4,14.2 11,11.9 13,10.4 Z m -4.5,8.5 2.7,-1.3 c 0.3,0.7 1,1 1.8,0.9 V 21 c -0.7,0.3 -1.3,0.4 -1.9,0.4 -1.5,-0.1 -2.4,-1 -2.6,-2.5 z m 6.5,0.8 v -2.4 c 0.8,-0.7 1.5,-1.7 1.8,-2.7 l 2.5,-1.2 C 18.7,15.8 17,18.2 15,19.7 Z"
           id="path510"
           inkscape:connector-curvature="0"
           style="opacity:0.28999999" />
        <path
           d="m 19.5,15.1 -3.2,-1.7 c -0.3,-0.2 -0.7,-0.1 -1.2,0.1 -1,0.5 -1.7,1.6 -1.7,2.6 0,0.5 0.2,0.8 0.6,1 l 3.1,1.7 c 0.3,0.2 0.8,0.2 1.3,-0.1 1,-0.5 1.7,-1.6 1.7,-2.6 -0.1,-0.5 -0.3,-0.8 -0.6,-1 z"
           id="path512"
           inkscape:connector-curvature="0"
           style="fill:#999999" />
        <path
           d="m 20,16.1 c 0,1 -0.8,2.1 -1.7,2.6 -1,0.5 -1.7,0.1 -1.7,-0.9 0,-1 0.8,-2.1 1.7,-2.6 0.9,-0.4 1.7,-0.1 1.7,0.9 z"
           id="path514"
           inkscape:connector-curvature="0"
           style="opacity:0.2" />
      </g>
    </g>
  </g>
  <g
     id="i449"
     class="top-level-node"
     transform="matrix(0.37892914,0,0,0.37892914,-48.502934,159.4862)">
    <g
       id="g561">
      <g
         id="g559">
        <path
           d="M 24,50 C 19.6,47.8 12.4,47.8 8,50 5.8,51.1 4.7,52.6 4.7,54 v 2 c 0,1.4 1.1,2.9 3.3,4 4.4,2.2 11.6,2.2 16,0 2.2,-1.1 3.3,-2.6 3.3,-4 v -2 c 0,-1.4 -1.1,-2.9 -3.3,-4 z"
           id="path521"
           inkscape:connector-curvature="0"
           style="fill:#999999" />
        <path
           d="M 24,58 C 19.6,60.2 12.4,60.2 8,58 5.8,56.9 4.7,55.4 4.7,54 v 2 c 0,1.4 1.1,2.9 3.3,4 4.4,2.2 11.6,2.2 16,0 2.2,-1.1 3.3,-2.6 3.3,-4 v -2 c 0,1.4 -1.1,2.9 -3.3,4 z"
           id="path523"
           inkscape:connector-curvature="0"
           style="opacity:0.1" />
        <path
           d="m 7,8 v 46 c 0,1.2 0.9,2.3 2.6,3.2 3.5,1.8 9.2,1.8 12.7,0 1.8,-0.9 2.6,-2 2.6,-3.2 V 8 Z"
           id="path525"
           inkscape:connector-curvature="0"
           style="fill:#999999" />
        <path
           d="m 7,8 v 46 c 0,1.2 0.9,2.3 2.6,3.2 3.5,1.8 9.2,1.8 12.7,0 1.8,-0.9 2.6,-2 2.6,-3.2 V 8 Z"
           id="path527"
           inkscape:connector-curvature="0"
           style="opacity:0.2" />
        <path
           d="M 24,4 C 19.6,1.8 12.4,1.8 8,4 5.8,5.1 4.7,6.6 4.7,8 v 2 c 0,1.4 1.1,2.9 3.3,4 4.4,2.2 11.6,2.2 16,0 2.2,-1.1 3.3,-2.6 3.3,-4 V 8 C 27.3,6.6 26.2,5.1 24,4 Z"
           id="path529"
           inkscape:connector-curvature="0"
           style="fill:#999999" />
        <path
           d="m 22.4,4.8 c 3.5,1.8 3.5,4.6 0,6.4 C 18.9,13 13.2,13 9.7,11.2 6.2,9.4 6.2,6.6 9.7,4.8 13.2,3 18.8,3.1 22.4,4.8 Z"
           id="path531"
           inkscape:connector-curvature="0"
           style="opacity:0.3" />
        <path
           d="M 24,12 C 19.6,14.2 12.4,14.2 8,12 5.8,10.9 4.7,9.4 4.7,8 v 2 c 0,1.4 1.1,2.9 3.3,4 4.4,2.2 11.6,2.2 16,0 2.2,-1.1 3.3,-2.6 3.3,-4 V 8 c 0,1.4 -1.1,2.9 -3.3,4 z"
           id="path533"
           inkscape:connector-curvature="0"
           style="opacity:0.1" />
        <path
           d="m 26.6,28.1 -2,-1 c -1.2,-0.6 -2.8,-0.5 -4.6,0.4 -3.6,1.8 -6.5,6.2 -6.5,9.7 0,1.9 0.8,3.2 2.1,3.7 l 1.7,0.8 z"
           id="path535"
           inkscape:connector-curvature="0"
           style="fill:#999999" />
        <path
           d="m 26.6,28.1 -2,-1 c -1.2,-0.6 -2.8,-0.5 -4.6,0.4 -3.6,1.8 -6.5,6.2 -6.5,9.7 0,1.9 0.8,3.2 2.1,3.7 l 1.7,0.8 z"
           id="path537"
           inkscape:connector-curvature="0"
           style="opacity:0.1" />
        <path
           d="m 29.7,27.6 -2,-1 C 26.3,25.9 24.3,26 22,27.1 c -4.4,2.2 -8,7.6 -8,12 0,2.3 1,3.9 2.6,4.6 l 1.5,0.8 c 1.5,0.9 3.6,0.8 5.9,-0.3 4.4,-2.2 8,-7.6 8,-12 0,-2.4 -0.9,-3.9 -2.3,-4.6 z"
           id="path539"
           inkscape:connector-curvature="0"
           style="fill:#999999" />
        <path
           d="m 32,32.1 c 0,4.4 -3.6,9.8 -8,12 -4.4,2.2 -8,0.4 -8,-4 0,-4.4 3.6,-9.8 8,-12 4.4,-2.2 8,-0.5 8,4 z"
           id="path541"
           inkscape:connector-curvature="0"
           style="opacity:0.2" />
        <path
           d="M 30,34.1 27.4,32.8 C 26.8,32.5 25.9,32.5 25,33 c -1.9,0.9 -3.4,3.2 -3.4,5.1 0,1 0.4,1.7 1.1,2 l 2.4,1.2 c 0.6,0.4 1.5,0.4 2.5,-0.1 1.9,-0.9 3.4,-3.2 3.4,-5.1 0,-1 -0.4,-1.7 -1,-2 z"
           id="path543"
           inkscape:connector-curvature="0"
           style="fill:#999999" />
        <path
           d="m 31,36 c 0,1.9 -1.5,4.2 -3.4,5.1 -1.9,0.9 -3.4,0.2 -3.4,-1.7 0,-1.9 1.5,-4.2 3.4,-5.1 1.9,-0.9 3.4,-0.2 3.4,1.7 z"
           id="path545"
           inkscape:connector-curvature="0"
           style="opacity:0.2" />
        <path
           d="m 32.5,38.1 -3.2,-1.7 c -0.3,-0.2 -0.7,-0.1 -1.2,0.1 -1,0.5 -1.7,1.6 -1.7,2.6 0,0.5 0.2,0.8 0.6,1 l 3.1,1.7 c 0.3,0.2 0.8,0.2 1.3,-0.1 1,-0.5 1.7,-1.6 1.7,-2.6 -0.1,-0.5 -0.3,-0.8 -0.6,-1 z"
           id="path547"
           inkscape:connector-curvature="0"
           style="fill:#999999" />
        <path
           d="m 33,39.1 c 0,1 -0.8,2.1 -1.7,2.6 -1,0.5 -1.7,0.1 -1.7,-0.9 0,-1 0.8,-2.1 1.7,-2.6 0.9,-0.4 1.7,-0.1 1.7,0.9 z"
           id="path549"
           inkscape:connector-curvature="0"
           style="opacity:0.2" />
        <path
           d="m 32.9,30.8 c -1.1,0 -2.2,0.3 -3.4,0.9 -4,2 -7.1,6.7 -7.1,10.6 0,3 1.8,5 4.6,5 1.1,0 2.2,-0.3 3.3,-0.9 4,-2 7.1,-6.7 7.1,-10.6 0.1,-3 -1.7,-5 -4.5,-5 z m 2.6,4.4 -2.7,1.3 c -0.3,-0.6 -1,-0.9 -1.8,-0.8 v -2.5 c 0.7,-0.3 1.3,-0.4 1.9,-0.4 1.5,0 2.4,0.8 2.6,2.4 z M 29,34.4 v 2.4 c -0.8,0.7 -1.4,1.6 -1.8,2.5 l -2.5,1.2 C 25.4,38.2 27,35.9 29,34.4 Z m -4.5,8.5 2.7,-1.3 c 0.3,0.7 1,1 1.8,0.9 V 45 c -0.7,0.3 -1.3,0.4 -1.9,0.4 -1.5,-0.1 -2.4,-1 -2.6,-2.5 z m 6.5,0.8 v -2.4 c 0.8,-0.7 1.5,-1.7 1.8,-2.7 l 2.5,-1.2 C 34.7,39.8 33,42.2 31,43.7 Z"
           id="path551"
           inkscape:connector-curvature="0"
           style="fill:#cc291f" />
        <path
           d="m 32.9,30.8 c -1.1,0 -2.2,0.3 -3.4,0.9 -4,2 -7.1,6.7 -7.1,10.6 0,3 1.8,5 4.6,5 1.1,0 2.2,-0.3 3.3,-0.9 4,-2 7.1,-6.7 7.1,-10.6 0.1,-3 -1.7,-5 -4.5,-5 z m 2.6,4.4 -2.7,1.3 c -0.3,-0.6 -1,-0.9 -1.8,-0.8 v -2.5 c 0.7,-0.3 1.3,-0.4 1.9,-0.4 1.5,0 2.4,0.8 2.6,2.4 z M 29,34.4 v 2.4 c -0.8,0.7 -1.4,1.6 -1.8,2.5 l -2.5,1.2 C 25.4,38.2 27,35.9 29,34.4 Z m -4.5,8.5 2.7,-1.3 c 0.3,0.7 1,1 1.8,0.9 V 45 c -0.7,0.3 -1.3,0.4 -1.9,0.4 -1.5,-0.1 -2.4,-1 -2.6,-2.5 z m 6.5,0.8 v -2.4 c 0.8,-0.7 1.5,-1.7 1.8,-2.7 l 2.5,-1.2 C 34.7,39.8 33,42.2 31,43.7 Z"
           id="path553"
           inkscape:connector-curvature="0"
           style="opacity:0.28999999" />
        <path
           d="m 35.5,39.1 -3.2,-1.7 c -0.3,-0.2 -0.7,-0.1 -1.2,0.1 -1,0.5 -1.7,1.6 -1.7,2.6 0,0.5 0.2,0.8 0.6,1 l 3.1,1.7 c 0.3,0.2 0.8,0.2 1.3,-0.1 1,-0.5 1.7,-1.6 1.7,-2.6 -0.1,-0.5 -0.3,-0.8 -0.6,-1 z"
           id="path555"
           inkscape:connector-curvature="0"
           style="fill:#999999" />
        <path
           d="m 36,40.1 c 0,1 -0.8,2.1 -1.7,2.6 -0.9,0.5 -1.7,0.1 -1.7,-0.9 0,-1 0.8,-2.1 1.7,-2.6 0.9,-0.5 1.7,-0.1 1.7,0.9 z"
           id="path557"
           inkscape:connector-curvature="0"
           style="opacity:0.2" />
      </g>
    </g>
  </g>
  <g
     id="i450"
     class="top-level-node"
     transform="matrix(0.37892914,0,0,0.37892914,-93.974431,159.4862)">
    <g
       id="g604">
      <g
         id="g602">
        <path
           d="m 15.7,12.6 -2,-1 C 12.3,10.9 10.3,11 8,12.1 c -4.4,2.2 -8,7.6 -8,12 0,2.3 1,3.9 2.6,4.6 l 1.5,0.8 c 1.5,0.9 3.6,0.8 5.9,-0.3 4.4,-2.2 8,-7.6 8,-12 0,-2.4 -0.9,-3.9 -2.3,-4.6 z"
           id="path564"
           inkscape:connector-curvature="0"
           style="fill:#999999" />
        <path
           d="m 18,17.1 c 0,4.4 -3.6,9.8 -8,12 -4.4,2.2 -8,0.4 -8,-4 0,-4.4 3.6,-9.8 8,-12 4.4,-2.2 8,-0.5 8,4 z"
           id="path566"
           inkscape:connector-curvature="0"
           style="opacity:0.2" />
        <path
           d="m 56.6,35.1 -42,-21 c -1.2,-0.6 -2.8,-0.5 -4.6,0.4 -3.6,1.8 -6.5,6.2 -6.5,9.7 0,1.9 0.8,3.2 2.1,3.7 l 41.7,20.8 z"
           id="path568"
           inkscape:connector-curvature="0"
           style="fill:#999999" />
        <path
           d="m 56.6,35.1 -42,-21 c -1.2,-0.6 -2.8,-0.5 -4.6,0.4 -3.6,1.8 -6.5,6.2 -6.5,9.7 0,1.9 0.8,3.2 2.1,3.7 l 41.7,20.8 z"
           id="path570"
           inkscape:connector-curvature="0"
           style="opacity:0.1" />
        <path
           d="m 61.7,35.6 -2,-1 C 58.3,33.9 56.3,34 54,35.1 c -4.4,2.2 -8,7.6 -8,12 0,2.3 1,3.9 2.6,4.6 l 1.5,0.8 c 1.5,0.9 3.6,0.8 5.9,-0.3 4.4,-2.2 8,-7.6 8,-12 0,-2.4 -0.9,-3.9 -2.3,-4.6 z"
           id="path572"
           inkscape:connector-curvature="0"
           style="fill:#999999" />
        <path
           d="m 64,40.1 c 0,4.4 -3.6,9.8 -8,12 -4.4,2.2 -8,0.4 -8,-4 0,-4.4 3.6,-9.8 8,-12 4.4,-2.2 8,-0.5 8,4 z"
           id="path574"
           inkscape:connector-curvature="0"
           style="opacity:0.2" />
        <path
           d="m 62.5,40.8 c 0,3.6 -2.9,8 -6.5,9.7 -3.6,1.8 -6.5,0.3 -6.5,-3.3 0,-3.6 2.9,-8 6.5,-9.7 3.6,-1.7 6.5,-0.3 6.5,3.3 z"
           id="path576"
           inkscape:connector-curvature="0"
           style="opacity:0.2" />
        <path
           d="m 38.4,4.8 c 3.5,1.8 3.5,4.6 0,6.4 -3.5,1.8 -9.2,1.8 -12.7,0 -3.5,-1.8 -3.5,-4.6 0,-6.4 3.5,-1.8 9.1,-1.7 12.7,0 z"
           stroke-miterlimit="10"
           id="path578"
           inkscape:connector-curvature="0"
           style="fill:none;stroke:#cc291f;stroke-width:2;stroke-miterlimit:10" />
        <path
           d="m 23,16 v 12 c 0,1.2 0.9,2.3 2.6,3.2 3.5,1.8 9.2,1.8 12.7,0 1.8,-0.9 2.6,-2 2.6,-3.2 V 16 Z"
           id="path580"
           inkscape:connector-curvature="0"
           style="fill:#999999" />
        <path
           d="m 23,16 v 12 c 0,1.2 0.9,2.3 2.6,3.2 3.5,1.8 9.2,1.8 12.7,0 1.8,-0.9 2.6,-2 2.6,-3.2 V 16 Z"
           id="path582"
           inkscape:connector-curvature="0"
           style="opacity:0.2" />
        <path
           d="M 40,12 C 35.6,9.8 28.4,9.8 24,12 c -2.2,1.1 -3.3,2.6 -3.3,4 v 2 c 0,1.4 1.1,2.9 3.3,4 4.4,2.2 11.6,2.2 16,0 2.2,-1.1 3.3,-2.6 3.3,-4 v -2 c 0,-1.4 -1.1,-2.9 -3.3,-4 z"
           id="path584"
           inkscape:connector-curvature="0"
           style="fill:#999999" />
        <path
           d="m 40,20 c -4.4,2.2 -11.6,2.2 -16,0 -2.2,-1.1 -3.3,-2.6 -3.3,-4 v 2 c 0,1.4 1.1,2.9 3.3,4 4.4,2.2 11.6,2.2 16,0 2.2,-1.1 3.3,-2.6 3.3,-4 v -2 c 0,1.4 -1.1,2.9 -3.3,4 z"
           id="path586"
           inkscape:connector-curvature="0"
           style="opacity:0.1" />
        <path
           d="m 34.8,12.1 c -1.6,-0.8 -4.1,-0.8 -5.7,0 C 28.4,12.5 28,13 28,13.5 V 16 c 0,0.5 0.4,1 1.2,1.4 1.6,0.8 4.1,0.8 5.7,0 C 35.6,17 36,16.5 36,16 v -2.5 c 0,-0.5 -0.4,-1 -1.2,-1.4 z"
           id="path588"
           inkscape:connector-curvature="0"
           style="fill:#999999" />
        <path
           d="m 34.8,14.9 c -1.6,0.8 -4.1,0.8 -5.7,0 C 28.4,14.5 28,14 28,13.5 V 16 c 0,0.5 0.4,1 1.2,1.4 1.6,0.8 4.1,0.8 5.7,0 C 35.6,17 36,16.5 36,16 v -2.5 c 0,0.5 -0.4,1 -1.2,1.4 z"
           id="path590"
           inkscape:connector-curvature="0"
           style="opacity:0.1" />
        <path
           d="M 33.4,7.3 C 32.6,6.9 31.4,6.9 30.6,7.3 30.2,7.5 30,7.7 30,8 v 5.2 c 0,0.3 0.2,0.5 0.6,0.7 0.8,0.4 2,0.4 2.8,0 0.4,-0.2 0.6,-0.5 0.6,-0.7 V 8 C 34,7.7 33.8,7.5 33.4,7.3 Z"
           id="path592"
           inkscape:connector-curvature="0"
           style="fill:#999999" />
        <path
           d="m 33.4,8.7 c -0.8,0.4 -2,0.4 -2.8,0 C 30.2,8.5 30,8.3 30,8 v 5.2 c 0,0.3 0.2,0.5 0.6,0.7 0.8,0.4 2,0.4 2.8,0 0.4,-0.2 0.6,-0.5 0.6,-0.7 V 8 c 0,0.3 -0.2,0.5 -0.6,0.7 z"
           id="path594"
           inkscape:connector-curvature="0"
           style="opacity:0.1" />
        <path
           d="M 38.8,3.9 C 37,3 34.6,2.5 32,2.5 29.4,2.5 27,3 25.2,3.9 23.1,5 22,6.4 22,8 c 0,1.6 1.1,3 3.2,4.1 1.8,0.9 4.3,1.4 6.8,1.4 2.5,0 5,-0.5 6.8,-1.4 C 40.9,11 42,9.6 42,8 42,6.4 40.9,5 38.8,3.9 Z M 39.6,7 H 35.4 C 35.2,6.9 35,6.7 34.8,6.6 34.3,6.3 33.6,6.2 33,6.1 V 4.5 c 1.9,0.1 3.6,0.5 4.9,1.2 0.8,0.4 1.4,0.8 1.7,1.3 z M 26.1,5.7 C 27.4,5 29.1,4.7 31,4.5 V 6 C 30.3,6.1 29.7,6.3 29.2,6.5 28.9,6.6 28.8,6.8 28.6,6.9 H 24.4 C 24.7,6.5 25.3,6.1 26.1,5.7 Z M 24.4,9 h 4.2 c 0.2,0.1 0.4,0.3 0.6,0.4 0.5,0.3 1.2,0.4 1.8,0.5 v 1.5 C 29.1,11.3 27.4,10.9 26.1,10.2 25.3,9.9 24.7,9.5 24.4,9 Z m 13.5,1.3 C 36.6,11 34.8,11.4 33,11.5 V 9.9 C 33.7,9.8 34.3,9.6 34.8,9.4 35.1,9.3 35.2,9.1 35.4,9 h 4.2 c -0.3,0.5 -0.9,0.9 -1.7,1.3 z"
           id="path596"
           inkscape:connector-curvature="0"
           style="fill:#cc291f" />
        <path
           d="M 33.4,4.3 C 32.6,3.9 31.4,3.9 30.6,4.3 30.2,4.5 30,4.7 30,5 v 3 c 0,0.3 0.2,0.5 0.6,0.7 0.8,0.4 2,0.4 2.8,0 C 33.8,8.5 34,8.3 34,8 V 5 C 34,4.7 33.8,4.5 33.4,4.3 Z"
           id="path598"
           inkscape:connector-curvature="0"
           style="fill:#999999" />
        <path
           d="m 33.4,5.7 c -0.8,0.4 -2,0.4 -2.8,0 C 30.2,5.5 30,5.3 30,5 v 3 c 0,0.3 0.2,0.5 0.6,0.7 0.8,0.4 2,0.4 2.8,0 C 33.8,8.5 34,8.3 34,8 V 5 c 0,0.3 -0.2,0.5 -0.6,0.7 z"
           id="path600"
           inkscape:connector-curvature="0"
           style="opacity:0.1" />
      </g>
    </g>
  </g>
  <g
     id="selection-layer"
     transform="matrix(0.37892914,0,0,0.37892914,141.82654,-54.276428)" />
</svg>
