<?xml version="1.0" encoding="UTF-8" standalone="no"?>
<!-- Created with Inkscape (http://www.inkscape.org/) -->

<svg
   xmlns:dc="http://purl.org/dc/elements/1.1/"
   xmlns:cc="http://creativecommons.org/ns#"
   xmlns:rdf="http://www.w3.org/1999/02/22-rdf-syntax-ns#"
   xmlns:svg="http://www.w3.org/2000/svg"
   xmlns="http://www.w3.org/2000/svg"
   xmlns:sodipodi="http://sodipodi.sourceforge.net/DTD/sodipodi-0.dtd"
   xmlns:inkscape="http://www.inkscape.org/namespaces/inkscape"
   width="24.251465mm"
   height="19.194939mm"
   viewBox="0 0 24.251465 19.194939"
   version="1.1"
   id="svg581"
   inkscape:version="0.92.2 (5c3e80d, 2017-08-06)"
   sodipodi:docname="pipes-.svg">
  <defs
     id="defs575" />
  <sodipodi:namedview
     id="base"
     pagecolor="#ffffff"
     bordercolor="#666666"
     borderopacity="1.0"
     inkscape:pageopacity="0.0"
     inkscape:pageshadow="2"
     inkscape:zoom="0.5037107"
     inkscape:cx="207.21664"
     inkscape:cy="526.83931"
     inkscape:document-units="mm"
     inkscape:current-layer="svg581"
     showgrid="false"
     inkscape:window-width="1360"
     inkscape:window-height="706"
     inkscape:window-x="-8"
     inkscape:window-y="-8"
     inkscape:window-maximized="1"
     fit-margin-top="0"
     fit-margin-left="0"
     fit-margin-right="0"
     fit-margin-bottom="0" />
  <metadata
     id="metadata578">
    <rdf:RDF>
      <cc:Work
         rdf:about="">
        <dc:format>image/svg+xml</dc:format>
        <dc:type
           rdf:resource="http://purl.org/dc/dcmitype/StillImage" />
        <dc:title></dc:title>
      </cc:Work>
    </rdf:RDF>
  </metadata>
  <g
     inkscape:label="Layer 1"
     inkscape:groupmode="layer"
     id="layer1"
     transform="translate(117.11223,-456.03091)" />
  <g
     id="i450"
     class="top-level-node"
     transform="matrix(0.37892914,0,0,0.37892914,0,-0.92904125)">
    <g
       id="g604">
      <g
         id="g602">
        <path
           d="m 15.7,12.6 -2,-1 C 12.3,10.9 10.3,11 8,12.1 c -4.4,2.2 -8,7.6 -8,12 0,2.3 1,3.9 2.6,4.6 l 1.5,0.8 c 1.5,0.9 3.6,0.8 5.9,-0.3 4.4,-2.2 8,-7.6 8,-12 0,-2.4 -0.9,-3.9 -2.3,-4.6 z"
           id="path564"
           inkscape:connector-curvature="0"
           style="fill:#999999" />
        <path
           d="m 18,17.1 c 0,4.4 -3.6,9.8 -8,12 -4.4,2.2 -8,0.4 -8,-4 0,-4.4 3.6,-9.8 8,-12 4.4,-2.2 8,-0.5 8,4 z"
           id="path566"
           inkscape:connector-curvature="0"
           style="opacity:0.2" />
        <path
           d="m 56.6,35.1 -42,-21 c -1.2,-0.6 -2.8,-0.5 -4.6,0.4 -3.6,1.8 -6.5,6.2 -6.5,9.7 0,1.9 0.8,3.2 2.1,3.7 l 41.7,20.8 z"
           id="path568"
           inkscape:connector-curvature="0"
           style="fill:#999999" />
        <path
           d="m 56.6,35.1 -42,-21 c -1.2,-0.6 -2.8,-0.5 -4.6,0.4 -3.6,1.8 -6.5,6.2 -6.5,9.7 0,1.9 0.8,3.2 2.1,3.7 l 41.7,20.8 z"
           id="path570"
           inkscape:connector-curvature="0"
           style="opacity:0.1" />
        <path
           d="m 61.7,35.6 -2,-1 C 58.3,33.9 56.3,34 54,35.1 c -4.4,2.2 -8,7.6 -8,12 0,2.3 1,3.9 2.6,4.6 l 1.5,0.8 c 1.5,0.9 3.6,0.8 5.9,-0.3 4.4,-2.2 8,-7.6 8,-12 0,-2.4 -0.9,-3.9 -2.3,-4.6 z"
           id="path572"
           inkscape:connector-curvature="0"
           style="fill:#999999" />
        <path
           d="m 64,40.1 c 0,4.4 -3.6,9.8 -8,12 -4.4,2.2 -8,0.4 -8,-4 0,-4.4 3.6,-9.8 8,-12 4.4,-2.2 8,-0.5 8,4 z"
           id="path574"
           inkscape:connector-curvature="0"
           style="opacity:0.2" />
        <path
           d="m 62.5,40.8 c 0,3.6 -2.9,8 -6.5,9.7 -3.6,1.8 -6.5,0.3 -6.5,-3.3 0,-3.6 2.9,-8 6.5,-9.7 3.6,-1.7 6.5,-0.3 6.5,3.3 z"
           id="path576"
           inkscape:connector-curvature="0"
           style="opacity:0.2" />
        <path
           d="m 38.4,4.8 c 3.5,1.8 3.5,4.6 0,6.4 -3.5,1.8 -9.2,1.8 -12.7,0 -3.5,-1.8 -3.5,-4.6 0,-6.4 3.5,-1.8 9.1,-1.7 12.7,0 z"
           stroke-miterlimit="10"
           id="path578"
           inkscape:connector-curvature="0"
           style="fill:none;stroke:#cc291f;stroke-width:2;stroke-miterlimit:10" />
        <path
           d="m 23,16 v 12 c 0,1.2 0.9,2.3 2.6,3.2 3.5,1.8 9.2,1.8 12.7,0 1.8,-0.9 2.6,-2 2.6,-3.2 V 16 Z"
           id="path580"
           inkscape:connector-curvature="0"
           style="fill:#999999" />
        <path
           d="m 23,16 v 12 c 0,1.2 0.9,2.3 2.6,3.2 3.5,1.8 9.2,1.8 12.7,0 1.8,-0.9 2.6,-2 2.6,-3.2 V 16 Z"
           id="path582"
           inkscape:connector-curvature="0"
           style="opacity:0.2" />
        <path
           d="M 40,12 C 35.6,9.8 28.4,9.8 24,12 c -2.2,1.1 -3.3,2.6 -3.3,4 v 2 c 0,1.4 1.1,2.9 3.3,4 4.4,2.2 11.6,2.2 16,0 2.2,-1.1 3.3,-2.6 3.3,-4 v -2 c 0,-1.4 -1.1,-2.9 -3.3,-4 z"
           id="path584"
           inkscape:connector-curvature="0"
           style="fill:#999999" />
        <path
           d="m 40,20 c -4.4,2.2 -11.6,2.2 -16,0 -2.2,-1.1 -3.3,-2.6 -3.3,-4 v 2 c 0,1.4 1.1,2.9 3.3,4 4.4,2.2 11.6,2.2 16,0 2.2,-1.1 3.3,-2.6 3.3,-4 v -2 c 0,1.4 -1.1,2.9 -3.3,4 z"
           id="path586"
           inkscape:connector-curvature="0"
           style="opacity:0.1" />
        <path
           d="m 34.8,12.1 c -1.6,-0.8 -4.1,-0.8 -5.7,0 C 28.4,12.5 28,13 28,13.5 V 16 c 0,0.5 0.4,1 1.2,1.4 1.6,0.8 4.1,0.8 5.7,0 C 35.6,17 36,16.5 36,16 v -2.5 c 0,-0.5 -0.4,-1 -1.2,-1.4 z"
           id="path588"
           inkscape:connector-curvature="0"
           style="fill:#999999" />
        <path
           d="m 34.8,14.9 c -1.6,0.8 -4.1,0.8 -5.7,0 C 28.4,14.5 28,14 28,13.5 V 16 c 0,0.5 0.4,1 1.2,1.4 1.6,0.8 4.1,0.8 5.7,0 C 35.6,17 36,16.5 36,16 v -2.5 c 0,0.5 -0.4,1 -1.2,1.4 z"
           id="path590"
           inkscape:connector-curvature="0"
           style="opacity:0.1" />
        <path
           d="M 33.4,7.3 C 32.6,6.9 31.4,6.9 30.6,7.3 30.2,7.5 30,7.7 30,8 v 5.2 c 0,0.3 0.2,0.5 0.6,0.7 0.8,0.4 2,0.4 2.8,0 0.4,-0.2 0.6,-0.5 0.6,-0.7 V 8 C 34,7.7 33.8,7.5 33.4,7.3 Z"
           id="path592"
           inkscape:connector-curvature="0"
           style="fill:#999999" />
        <path
           d="m 33.4,8.7 c -0.8,0.4 -2,0.4 -2.8,0 C 30.2,8.5 30,8.3 30,8 v 5.2 c 0,0.3 0.2,0.5 0.6,0.7 0.8,0.4 2,0.4 2.8,0 0.4,-0.2 0.6,-0.5 0.6,-0.7 V 8 c 0,0.3 -0.2,0.5 -0.6,0.7 z"
           id="path594"
           inkscape:connector-curvature="0"
           style="opacity:0.1" />
        <path
           d="M 38.8,3.9 C 37,3 34.6,2.5 32,2.5 29.4,2.5 27,3 25.2,3.9 23.1,5 22,6.4 22,8 c 0,1.6 1.1,3 3.2,4.1 1.8,0.9 4.3,1.4 6.8,1.4 2.5,0 5,-0.5 6.8,-1.4 C 40.9,11 42,9.6 42,8 42,6.4 40.9,5 38.8,3.9 Z M 39.6,7 H 35.4 C 35.2,6.9 35,6.7 34.8,6.6 34.3,6.3 33.6,6.2 33,6.1 V 4.5 c 1.9,0.1 3.6,0.5 4.9,1.2 0.8,0.4 1.4,0.8 1.7,1.3 z M 26.1,5.7 C 27.4,5 29.1,4.7 31,4.5 V 6 C 30.3,6.1 29.7,6.3 29.2,6.5 28.9,6.6 28.8,6.8 28.6,6.9 H 24.4 C 24.7,6.5 25.3,6.1 26.1,5.7 Z M 24.4,9 h 4.2 c 0.2,0.1 0.4,0.3 0.6,0.4 0.5,0.3 1.2,0.4 1.8,0.5 v 1.5 C 29.1,11.3 27.4,10.9 26.1,10.2 25.3,9.9 24.7,9.5 24.4,9 Z m 13.5,1.3 C 36.6,11 34.8,11.4 33,11.5 V 9.9 C 33.7,9.8 34.3,9.6 34.8,9.4 35.1,9.3 35.2,9.1 35.4,9 h 4.2 c -0.3,0.5 -0.9,0.9 -1.7,1.3 z"
           id="path596"
           inkscape:connector-curvature="0"
           style="fill:#cc291f" />
        <path
           d="M 33.4,4.3 C 32.6,3.9 31.4,3.9 30.6,4.3 30.2,4.5 30,4.7 30,5 v 3 c 0,0.3 0.2,0.5 0.6,0.7 0.8,0.4 2,0.4 2.8,0 C 33.8,8.5 34,8.3 34,8 V 5 C 34,4.7 33.8,4.5 33.4,4.3 Z"
           id="path598"
           inkscape:connector-curvature="0"
           style="fill:#999999" />
        <path
           d="m 33.4,5.7 c -0.8,0.4 -2,0.4 -2.8,0 C 30.2,5.5 30,5.3 30,5 v 3 c 0,0.3 0.2,0.5 0.6,0.7 0.8,0.4 2,0.4 2.8,0 C 33.8,8.5 34,8.3 34,8 V 5 c 0,0.3 -0.2,0.5 -0.6,0.7 z"
           id="path600"
           inkscape:connector-curvature="0"
           style="opacity:0.1" />
      </g>
    </g>
  </g>
  <g
     id="selection-layer"
     transform="matrix(0.37892914,0,0,0.37892914,235.80097,-214.69169)" />
</svg>
