<?xml version="1.0" encoding="UTF-8" standalone="no"?>
<!-- Created with Inkscape (http://www.inkscape.org/) -->

<svg
   xmlns:dc="http://purl.org/dc/elements/1.1/"
   xmlns:cc="http://creativecommons.org/ns#"
   xmlns:rdf="http://www.w3.org/1999/02/22-rdf-syntax-ns#"
   xmlns:svg="http://www.w3.org/2000/svg"
   xmlns="http://www.w3.org/2000/svg"
   xmlns:sodipodi="http://sodipodi.sourceforge.net/DTD/sodipodi-0.dtd"
   xmlns:inkscape="http://www.inkscape.org/namespaces/inkscape"
   width="210mm"
   height="297mm"
   viewBox="0 0 210 297"
   version="1.1"
   id="svg4515"
   inkscape:version="0.92.2 (5c3e80d, 2017-08-06)"
   sodipodi:docname="tst.svg">
  <defs
     id="defs4509" />
  <sodipodi:namedview
     id="base"
     pagecolor="#ffffff"
     bordercolor="#666666"
     borderopacity="1.0"
     inkscape:pageopacity="0.0"
     inkscape:pageshadow="2"
     inkscape:zoom="0.35"
     inkscape:cx="-87.142857"
     inkscape:cy="560"
     inkscape:document-units="mm"
     inkscape:current-layer="layer1"
     showgrid="false"
     inkscape:window-width="1360"
     inkscape:window-height="706"
     inkscape:window-x="-8"
     inkscape:window-y="-8"
     inkscape:window-maximized="1" />
  <metadata
     id="metadata4512">
    <rdf:RDF>
      <cc:Work
         rdf:about="">
        <dc:format>image/svg+xml</dc:format>
        <dc:type
           rdf:resource="http://purl.org/dc/dcmitype/StillImage" />
        <dc:title></dc:title>
      </cc:Work>
    </rdf:RDF>
  </metadata>
  <g
     inkscape:label="Layer 1"
     inkscape:groupmode="layer"
     id="layer1" />
	 <g><path xmlns="http://www.w3.org/2000/svg" d="m139 97-6 3 24 105h241l6-3-24-105z" fill="#f90"></path><path xmlns="http://www.w3.org/2000/svg" d="m133 100 24 105h241l-24-105z" opacity=".11"></path><path xmlns="http://www.w3.org/2000/svg" d="m380 97 24 105-6 3-24-105z" opacity=".29"></path><path xmlns="http://www.w3.org/2000/svg" d="m143 104 22 96h6l-22-96z" opacity=".15"></path><path xmlns="http://www.w3.org/2000/svg" d="m161 104 22 96h6l-22-96z" opacity=".15"></path><path xmlns="http://www.w3.org/2000/svg" d="m179 104 22 96h6l-22-96z" opacity=".15"></path><path xmlns="http://www.w3.org/2000/svg" d="m197 104 22 96h6l-22-96z" opacity=".15"></path><path xmlns="http://www.w3.org/2000/svg" d="m215 104 22 96h6l-22-96z" opacity=".15"></path><path xmlns="http://www.w3.org/2000/svg" d="m233 104 22 96h6l-22-96z" opacity=".15"></path><path xmlns="http://www.w3.org/2000/svg" d="m251 104 22 96h6l-22-96z" opacity=".15"></path><path xmlns="http://www.w3.org/2000/svg" d="m269 104 22 96h6l-22-96z" opacity=".15"></path><path xmlns="http://www.w3.org/2000/svg" d="m287 104 22 96h6l-22-96z" opacity=".15"></path><path xmlns="http://www.w3.org/2000/svg" d="m305 104 22 96h6l-22-96z" opacity=".15"></path><path xmlns="http://www.w3.org/2000/svg" d="m323 104 22 96h6l-22-96z" opacity=".15"></path><path xmlns="http://www.w3.org/2000/svg" d="m341 104 22 96h6l-22-96z" opacity=".15"></path><path xmlns="http://www.w3.org/2000/svg" d="m359 104 22 96h6l-22-96z" opacity=".15"></path><path xmlns="http://www.w3.org/2000/svg" d="m134 102-96 48v89l6 3 96-48v-89z" fill="#f90"></path><path xmlns="http://www.w3.org/2000/svg" d="m38 150v89l6 3v-89z" opacity=".11"></path><path xmlns="http://www.w3.org/2000/svg" d="m140 105v89l-96 48v-89z" opacity=".29"></path><path xmlns="http://www.w3.org/2000/svg" d="m57.9 206.3s-6.8 41.3-21 59c-10 12.5-12.3 33.3 19 35s43.9-7.6 43.9-24c0-28.6-41.9-70-41.9-70z" fill="#fc0"></path><path xmlns="http://www.w3.org/2000/svg" d="m76 306 131-65 381 191-130 65z" opacity=".3"></path><path xmlns="http://www.w3.org/2000/svg" d="m178 209 36-18-12 20-36 18z" fill="#2d3134"></path><path xmlns="http://www.w3.org/2000/svg" d="m178 209 36-18-12 20-36 18z" opacity=".29"></path><path xmlns="http://www.w3.org/2000/svg" d="m232.4 201.6c-7.5-3.7-14.2-4.2-19.2-1.9l-14 7c-5.4 2.4-8.8 7.9-8.8 15.9 0 15.5 12.5 34.3 28 42 7.6 3.8 14.6 4.2 19.6 1.8 0 0 13.9-6.9 15.1-7.6 4.5-2.7 7.3-7.9 7.3-15.2 0-15.4-12.6-34.2-28-42z" fill="#2d3134"></path><path xmlns="http://www.w3.org/2000/svg" d="m238.3 266.2c2-1 13.7-6.8 14.8-7.5 4.5-2.7 7.3-7.9 7.3-15.2 0-6.2-2.1-13-5.5-19.3l-14 7c3.4 6.4 5.5 13.1 5.5 19.3 0 7.8-3.1 13.2-8.1 15.7z" opacity=".29"></path><path xmlns="http://www.w3.org/2000/svg" d="m236.3 245.4c0 9.9-8 13.9-17.9 8.9-9.9-4.9-17.9-17-17.9-26.8 0-9.9 8-13.9 17.9-8.9s17.9 16.9 17.9 26.8z" fill="#999"></path><path xmlns="http://www.w3.org/2000/svg" d="m219.9 253.7c-9.9-4.9-17.9-17-17.9-26.8 0-4.9 1.9-8.3 5.1-9.9-4 1.3-6.6 5-6.6 10.6 0 9.9 8 21.9 17.9 26.8 5 2.5 9.6 2.7 12.8 1-3.1.9-7 .4-11.3-1.7z" opacity=".15"></path><path xmlns="http://www.w3.org/2000/svg" d="m227.3 239.6c0 4.1-3.3 5.8-7.5 3.7-4.1-2.1-7.5-7.1-7.5-11.2s3.3-5.8 7.5-3.7c4.2 2 7.5 7 7.5 11.2z" fill="#2d3134"></path><path xmlns="http://www.w3.org/2000/svg" d="m227.3 239.6c0 4.1-3.3 5.8-7.5 3.7-4.1-2.1-7.5-7.1-7.5-11.2s3.3-5.8 7.5-3.7c4.2 2 7.5 7 7.5 11.2z" opacity=".29"></path><path xmlns="http://www.w3.org/2000/svg" d="m225.8 240.3c0 4.1-3.3 5.8-7.5 3.7-4.1-2.1-7.5-7.1-7.5-11.2s3.3-5.8 7.5-3.7 7.5 7 7.5 11.2z" fill="#2d3134"></path><path xmlns="http://www.w3.org/2000/svg" d="m246.4 250.6c0 15.5-12.5 21.7-28 14s-28-26.5-28-42 12.5-21.7 28-14 28 26.6 28 42z" opacity=".11"></path><path xmlns="http://www.w3.org/2000/svg" d="m213 211.1c-7.5-3.7-14.2-4.2-19.2-1.9l-14 7c-5.4 2.4-8.8 7.9-8.8 15.9 0 15.5 12.5 34.3 28 42 7.6 3.8 14.6 4.2 19.6 1.8 0 0 13.9-6.9 15.1-7.6 4.5-2.7 7.3-7.9 7.3-15.2 0-15.5-12.5-34.3-28-42z" fill="#2d3134"></path><path xmlns="http://www.w3.org/2000/svg" d="m218.9 275.7c2-1 13.7-6.8 14.8-7.5 4.5-2.7 7.3-7.9 7.3-15.2 0-6.2-2.1-13-5.5-19.3l-14 7c3.4 6.4 5.5 13.1 5.5 19.3 0 7.7-3.1 13.1-8.1 15.7z" opacity=".29"></path><path xmlns="http://www.w3.org/2000/svg" d="m216.9 254.8c0 9.9-8 13.9-17.9 8.9-9.9-4.9-17.9-17-17.9-26.8 0-9.9 8-13.9 17.9-8.9s17.9 17 17.9 26.8z" fill="#999"></path><path xmlns="http://www.w3.org/2000/svg" d="m200.5 263.2c-9.9-4.9-17.9-17-17.9-26.8 0-4.9 1.9-8.3 5.1-9.9-4 1.3-6.6 5-6.6 10.6 0 9.9 8 21.9 17.9 26.8 5 2.5 9.6 2.7 12.8 1-3.1.9-7 .4-11.3-1.7z" opacity=".15"></path><path xmlns="http://www.w3.org/2000/svg" d="m207.9 249c0 4.1-3.3 5.8-7.5 3.7-4.1-2.1-7.5-7.1-7.5-11.2s3.3-5.8 7.5-3.7 7.5 7.1 7.5 11.2z" fill="#2d3134"></path><path xmlns="http://www.w3.org/2000/svg" d="m207.9 249c0 4.1-3.3 5.8-7.5 3.7-4.1-2.1-7.5-7.1-7.5-11.2s3.3-5.8 7.5-3.7 7.5 7.1 7.5 11.2z" opacity=".29"></path><path xmlns="http://www.w3.org/2000/svg" d="m206.5 249.7c0 4.1-3.3 5.8-7.5 3.7s-7.5-7.1-7.5-11.2 3.3-5.8 7.5-3.7 7.5 7.1 7.5 11.2z" fill="#2d3134"></path><path xmlns="http://www.w3.org/2000/svg" d="m227 260.1c0 15.5-12.5 21.7-28 14s-28-26.5-28-42 12.5-21.7 28-14 28 26.5 28 42z" opacity=".11"></path><path xmlns="http://www.w3.org/2000/svg" d="m178 209 36-18 36 18-36 18z" fill="#2d3134"></path><path xmlns="http://www.w3.org/2000/svg" d="m228 252 36-18-14-25-36 18z" fill="#2d3134"></path><path xmlns="http://www.w3.org/2000/svg" d="m228 252 36-18-14-25-36 18z" opacity=".29"></path><path xmlns="http://www.w3.org/2000/svg" d="m236 238 36-18-12 20-36 18z" fill="#2d3134"></path><path xmlns="http://www.w3.org/2000/svg" d="m236 238 36-18-12 20-36 18z" opacity=".29"></path><path xmlns="http://www.w3.org/2000/svg" d="m290.4 230.6c-7.5-3.7-14.2-4.2-19.2-1.9l-14 7c-5.4 2.4-8.8 7.9-8.8 15.9 0 15.5 12.5 34.3 28 42 7.6 3.8 14.6 4.2 19.6 1.8 0 0 13.9-6.9 15.1-7.6 4.5-2.7 7.3-7.9 7.3-15.2 0-15.4-12.6-34.2-28-42z" fill="#2d3134"></path><path xmlns="http://www.w3.org/2000/svg" d="m296.3 295.2c2-1 13.7-6.8 14.8-7.5 4.5-2.7 7.3-7.9 7.3-15.2 0-6.2-2.1-13-5.5-19.3l-14 7c3.4 6.4 5.5 13.1 5.5 19.3 0 7.8-3.1 13.2-8.1 15.7z" opacity=".29"></path><path xmlns="http://www.w3.org/2000/svg" d="m294.3 274.4c0 9.9-8 13.9-17.9 8.9-9.9-4.9-17.9-17-17.9-26.8s8-13.9 17.9-8.9c9.8 4.9 17.9 16.9 17.9 26.8z" fill="#999"></path><path xmlns="http://www.w3.org/2000/svg" d="m277.9 282.7c-9.9-4.9-17.9-17-17.9-26.8 0-4.9 1.9-8.3 5.1-9.9-4 1.3-6.6 5-6.6 10.6 0 9.9 8 21.9 17.9 26.8 5 2.5 9.6 2.7 12.8 1-3.1.9-7 .4-11.3-1.7z" opacity=".15"></path><path xmlns="http://www.w3.org/2000/svg" d="m285.3 268.6c0 4.1-3.3 5.8-7.5 3.7-4.1-2.1-7.5-7.1-7.5-11.2s3.3-5.8 7.5-3.7c4.2 2 7.5 7 7.5 11.2z" fill="#2d3134"></path><path xmlns="http://www.w3.org/2000/svg" d="m285.3 268.6c0 4.1-3.3 5.8-7.5 3.7-4.1-2.1-7.5-7.1-7.5-11.2s3.3-5.8 7.5-3.7c4.2 2 7.5 7 7.5 11.2z" opacity=".29"></path><path xmlns="http://www.w3.org/2000/svg" d="m283.8 269.3c0 4.1-3.3 5.8-7.5 3.7-4.1-2.1-7.5-7.1-7.5-11.2s3.3-5.8 7.5-3.7c4.2 2 7.5 7 7.5 11.2z" fill="#2d3134"></path><path xmlns="http://www.w3.org/2000/svg" d="m304.4 279.6c0 15.5-12.5 21.7-28 14s-28-26.5-28-42 12.5-21.7 28-14c15.4 7.8 28 26.6 28 42z" opacity=".11"></path><path xmlns="http://www.w3.org/2000/svg" d="m271 240.1c-7.5-3.7-14.2-4.2-19.2-1.9l-14 7c-5.4 2.4-8.8 7.9-8.8 15.9 0 15.5 12.5 34.3 28 42 7.6 3.8 14.6 4.2 19.6 1.8 0 0 13.9-6.9 15.1-7.6 4.5-2.7 7.3-7.9 7.3-15.2 0-15.5-12.5-34.3-28-42z" fill="#2d3134"></path><path xmlns="http://www.w3.org/2000/svg" d="m276.9 304.7c2-1 13.7-6.8 14.8-7.5 4.5-2.7 7.3-7.9 7.3-15.2 0-6.2-2.1-13-5.5-19.3l-14 7c3.4 6.4 5.5 13.1 5.5 19.3 0 7.7-3.1 13.1-8.1 15.7z" opacity=".29"></path><path xmlns="http://www.w3.org/2000/svg" d="m274.9 283.8c0 9.9-8 13.9-17.9 8.9-9.9-4.9-17.9-17-17.9-26.8s8-13.9 17.9-8.9 17.9 17 17.9 26.8z" fill="#999"></path><path xmlns="http://www.w3.org/2000/svg" d="m258.5 292.2c-9.9-4.9-17.9-17-17.9-26.8 0-4.9 1.9-8.3 5.1-9.9-4 1.3-6.6 5-6.6 10.6 0 9.9 8 21.9 17.9 26.8 5 2.5 9.6 2.7 12.8 1-3.1.9-7 .4-11.3-1.7z" opacity=".15"></path><path xmlns="http://www.w3.org/2000/svg" d="m265.9 278c0 4.1-3.3 5.8-7.5 3.7-4.1-2.1-7.5-7.1-7.5-11.2s3.3-5.8 7.5-3.7 7.5 7.1 7.5 11.2z" fill="#2d3134"></path><path xmlns="http://www.w3.org/2000/svg" d="m265.9 278c0 4.1-3.3 5.8-7.5 3.7-4.1-2.1-7.5-7.1-7.5-11.2s3.3-5.8 7.5-3.7 7.5 7.1 7.5 11.2z" opacity=".29"></path><path xmlns="http://www.w3.org/2000/svg" d="m264.5 278.7c0 4.1-3.3 5.8-7.5 3.7-4.1-2.1-7.5-7.1-7.5-11.2s3.3-5.8 7.5-3.7c4.1 2.1 7.5 7.1 7.5 11.2z" fill="#2d3134"></path><path xmlns="http://www.w3.org/2000/svg" d="m285 289.1c0 15.5-12.5 21.7-28 14s-28-26.5-28-42 12.5-21.7 28-14 28 26.5 28 42z" opacity=".11"></path><path xmlns="http://www.w3.org/2000/svg" d="m236 238 36-18 36 18-36 18z" fill="#2d3134"></path><path xmlns="http://www.w3.org/2000/svg" d="m286 281 36-18-14-25-36 18z" fill="#2d3134"></path><path xmlns="http://www.w3.org/2000/svg" d="m286 281 36-18-14-25-36 18z" opacity=".29"></path><path xmlns="http://www.w3.org/2000/svg" d="m319 256-10 5v31l62 31 10-5v-31z" fill="#2d3134"></path><path xmlns="http://www.w3.org/2000/svg" d="m309 261v31l62 31v-31z" opacity=".11"></path><path xmlns="http://www.w3.org/2000/svg" d="m381 287v31l-10 5v-31z" opacity=".29"></path><path xmlns="http://www.w3.org/2000/svg" d="m315 265-20 10v27l52 26 20-10v-27z" fill="#999"></path><path xmlns="http://www.w3.org/2000/svg" d="m329 272-4-2-20 10v27l4 2v-27z" fill="#2d3134"></path><path xmlns="http://www.w3.org/2000/svg" d="m357 286-4-2-20 10v27l4 2v-27z" fill="#2d3134"></path><path xmlns="http://www.w3.org/2000/svg" d="m367 291v27l-20 10v-27z" opacity=".29"></path><path xmlns="http://www.w3.org/2000/svg" d="m295 275v27l52 26v-27z" opacity=".11"></path><path xmlns="http://www.w3.org/2000/svg" d="m187 222-4 2v31l162 81 4-2v-31z" fill="#2d3134"></path><path xmlns="http://www.w3.org/2000/svg" d="m183 224v31l162 81v-31z" opacity=".11"></path><path xmlns="http://www.w3.org/2000/svg" d="m349 303v31l-4 2v-31z" opacity=".29"></path><path xmlns="http://www.w3.org/2000/svg" d="m185 225-36 18v31l24 12 36-18v-31z" fill="#2d3134"></path><path xmlns="http://www.w3.org/2000/svg" d="m149 243v31l24 12v-31z" opacity=".11"></path><path xmlns="http://www.w3.org/2000/svg" d="m209 237v31l-36 18v-31z" opacity=".29"></path><path xmlns="http://www.w3.org/2000/svg" d="m209 251-10 5v16l98 49 10-5v-16z" fill="#2d3134"></path><path xmlns="http://www.w3.org/2000/svg" d="m199 256v16l98 49v-16z" opacity=".11"></path><path xmlns="http://www.w3.org/2000/svg" d="m307 300v16l-10 5v-16z" opacity=".29"></path><path xmlns="http://www.w3.org/2000/svg" d="m321 293-36 18v31l24 12 36-18v-31z" fill="#2d3134"></path><path xmlns="http://www.w3.org/2000/svg" d="m285 311v31l24 12v-31z" opacity=".11"></path><path xmlns="http://www.w3.org/2000/svg" d="m345 305v31l-36 18v-31z" opacity=".29"></path><path xmlns="http://www.w3.org/2000/svg" d="m147 242-4 2v31l162 81 4-2v-31z" fill="#2d3134"></path><path xmlns="http://www.w3.org/2000/svg" d="m143 244v31l162 81v-31z" opacity=".11"></path><path xmlns="http://www.w3.org/2000/svg" d="m309 323v31l-4 2v-31z" opacity=".29"></path><path xmlns="http://www.w3.org/2000/svg" d="m85 256 36-18-12 20-36 18z" fill="#2d3134"></path><path xmlns="http://www.w3.org/2000/svg" d="m85 256 36-18-12 20-36 18z" opacity=".29"></path><path xmlns="http://www.w3.org/2000/svg" d="m139.4 248.6c-7.5-3.7-14.2-4.2-19.2-1.9l-14 7c-5.4 2.4-8.8 7.9-8.8 15.9 0 15.5 12.5 34.3 28 42 7.6 3.8 14.6 4.2 19.6 1.8 0 0 13.9-6.9 15.1-7.6 4.5-2.7 7.3-7.9 7.3-15.2 0-15.4-12.6-34.2-28-42z" fill="#2d3134"></path><path xmlns="http://www.w3.org/2000/svg" d="m145.3 313.2c2-1 13.7-6.8 14.8-7.5 4.5-2.7 7.3-7.9 7.3-15.2 0-6.2-2.1-13-5.5-19.3l-14 7c3.4 6.4 5.5 13.1 5.5 19.3 0 7.8-3.1 13.2-8.1 15.7z" opacity=".29"></path><path xmlns="http://www.w3.org/2000/svg" d="m143.3 292.4c0 9.9-8 13.9-17.9 8.9-9.9-4.9-17.9-17-17.9-26.8s8-13.9 17.9-8.9c9.8 4.9 17.9 16.9 17.9 26.8z" fill="#999"></path><path xmlns="http://www.w3.org/2000/svg" d="m126.9 300.7c-9.9-4.9-17.9-17-17.9-26.8 0-4.9 1.9-8.3 5.1-9.9-4 1.3-6.6 5-6.6 10.6 0 9.9 8 21.9 17.9 26.8 5 2.5 9.6 2.7 12.8 1-3.1.9-7 .4-11.3-1.7z" opacity=".15"></path><path xmlns="http://www.w3.org/2000/svg" d="m134.3 286.6c0 4.1-3.3 5.8-7.5 3.7-4.1-2.1-7.5-7.1-7.5-11.2s3.3-5.8 7.5-3.7c4.2 2 7.5 7 7.5 11.2z" fill="#2d3134"></path><path xmlns="http://www.w3.org/2000/svg" d="m134.3 286.6c0 4.1-3.3 5.8-7.5 3.7-4.1-2.1-7.5-7.1-7.5-11.2s3.3-5.8 7.5-3.7c4.2 2 7.5 7 7.5 11.2z" opacity=".29"></path><path xmlns="http://www.w3.org/2000/svg" d="m132.8 287.3c0 4.1-3.3 5.8-7.5 3.7-4.1-2.1-7.5-7.1-7.5-11.2s3.3-5.8 7.5-3.7c4.2 2 7.5 7 7.5 11.2z" fill="#2d3134"></path><path xmlns="http://www.w3.org/2000/svg" d="m153.4 297.6c0 15.5-12.5 21.7-28 14s-28-26.5-28-42 12.5-21.7 28-14c15.4 7.8 28 26.6 28 42z" opacity=".11"></path><path xmlns="http://www.w3.org/2000/svg" d="m120 258.1c-7.5-3.7-14.2-4.2-19.2-1.9l-14 7c-5.4 2.4-8.8 7.9-8.8 15.9 0 15.5 12.5 34.3 28 42 7.6 3.8 14.6 4.2 19.6 1.8 0 0 13.9-6.9 15.1-7.6 4.5-2.7 7.3-7.9 7.3-15.2 0-15.5-12.5-34.3-28-42z" fill="#2d3134"></path><path xmlns="http://www.w3.org/2000/svg" d="m125.9 322.7c2-1 13.7-6.8 14.8-7.5 4.5-2.7 7.3-7.9 7.3-15.2 0-6.2-2.1-13-5.5-19.3l-14 7c3.4 6.4 5.5 13.1 5.5 19.3 0 7.7-3.1 13.1-8.1 15.7z" opacity=".29"></path><path xmlns="http://www.w3.org/2000/svg" d="m123.9 301.8c0 9.9-8 13.9-17.9 8.9-9.9-4.9-17.9-17-17.9-26.8s8-13.9 17.9-8.9 17.9 17 17.9 26.8z" fill="#999"></path><path xmlns="http://www.w3.org/2000/svg" d="m107.5 310.2c-9.9-4.9-17.9-17-17.9-26.8 0-4.9 1.9-8.3 5.1-9.9-4 1.3-6.6 5-6.6 10.6 0 9.9 8 21.9 17.9 26.8 5 2.5 9.6 2.7 12.8 1-3.1.9-7 .4-11.3-1.7z" opacity=".15"></path><path xmlns="http://www.w3.org/2000/svg" d="m114.9 296c0 4.1-3.3 5.8-7.5 3.7-4.1-2.1-7.5-7.1-7.5-11.2s3.3-5.8 7.5-3.7 7.5 7.1 7.5 11.2z" fill="#2d3134"></path><path xmlns="http://www.w3.org/2000/svg" d="m114.9 296c0 4.1-3.3 5.8-7.5 3.7-4.1-2.1-7.5-7.1-7.5-11.2s3.3-5.8 7.5-3.7 7.5 7.1 7.5 11.2z" opacity=".29"></path><path xmlns="http://www.w3.org/2000/svg" d="m113.5 296.7c0 4.1-3.3 5.8-7.5 3.7-4.1-2.1-7.5-7.1-7.5-11.2s3.3-5.8 7.5-3.7 7.5 7.1 7.5 11.2z" fill="#2d3134"></path><path xmlns="http://www.w3.org/2000/svg" d="m134 307.1c0 15.5-12.5 21.7-28 14s-28-26.5-28-42 12.5-21.7 28-14 28 26.5 28 42z" opacity=".11"></path><path xmlns="http://www.w3.org/2000/svg" d="m85 256 36-18 36 18-36 18z" fill="#2d3134"></path><path xmlns="http://www.w3.org/2000/svg" d="m135 299 36-18-14-25-36 18z" fill="#2d3134"></path><path xmlns="http://www.w3.org/2000/svg" d="m135 299 36-18-14-25-36 18z" opacity=".29"></path><path xmlns="http://www.w3.org/2000/svg" d="m143 285 36-18-12 20-36 18z" fill="#2d3134"></path><path xmlns="http://www.w3.org/2000/svg" d="m143 285 36-18-12 20-36 18z" opacity=".29"></path><path xmlns="http://www.w3.org/2000/svg" d="m197.4 277.6c-7.5-3.7-14.2-4.2-19.2-1.9l-14 7c-5.4 2.4-8.8 7.9-8.8 15.9 0 15.5 12.5 34.3 28 42 7.6 3.8 14.6 4.2 19.6 1.8 0 0 13.9-6.9 15.1-7.6 4.5-2.7 7.3-7.9 7.3-15.2 0-15.4-12.6-34.2-28-42z" fill="#2d3134"></path><path xmlns="http://www.w3.org/2000/svg" d="m203.3 342.2c2-1 13.7-6.8 14.8-7.5 4.5-2.7 7.3-7.9 7.3-15.2 0-6.2-2.1-13-5.5-19.3l-14 7c3.4 6.4 5.5 13.1 5.5 19.3 0 7.8-3.1 13.2-8.1 15.7z" opacity=".29"></path><path xmlns="http://www.w3.org/2000/svg" d="m201.3 321.4c0 9.9-8 13.9-17.9 8.9-9.9-4.9-17.9-17-17.9-26.8s8-13.9 17.9-8.9c9.8 4.9 17.9 16.9 17.9 26.8z" fill="#999"></path><path xmlns="http://www.w3.org/2000/svg" d="m184.9 329.7c-9.9-4.9-17.9-17-17.9-26.8 0-4.9 1.9-8.3 5.1-9.9-4 1.3-6.6 5-6.6 10.6 0 9.9 8 21.9 17.9 26.8 5 2.5 9.6 2.7 12.8 1-3.1.9-7 .4-11.3-1.7z" opacity=".15"></path><path xmlns="http://www.w3.org/2000/svg" d="m192.3 315.6c0 4.1-3.3 5.8-7.5 3.7-4.1-2.1-7.5-7.1-7.5-11.2s3.3-5.8 7.5-3.7c4.2 2 7.5 7 7.5 11.2z" fill="#2d3134"></path><path xmlns="http://www.w3.org/2000/svg" d="m192.3 315.6c0 4.1-3.3 5.8-7.5 3.7-4.1-2.1-7.5-7.1-7.5-11.2s3.3-5.8 7.5-3.7c4.2 2 7.5 7 7.5 11.2z" opacity=".29"></path><path xmlns="http://www.w3.org/2000/svg" d="m190.8 316.3c0 4.1-3.3 5.8-7.5 3.7-4.1-2.1-7.5-7.1-7.5-11.2s3.3-5.8 7.5-3.7c4.2 2 7.5 7 7.5 11.2z" fill="#2d3134"></path><path xmlns="http://www.w3.org/2000/svg" d="m211.4 326.6c0 15.5-12.5 21.7-28 14s-28-26.5-28-42 12.5-21.7 28-14c15.4 7.8 28 26.6 28 42z" opacity=".11"></path><path xmlns="http://www.w3.org/2000/svg" d="m178 287.1c-7.5-3.7-14.2-4.2-19.2-1.9l-14 7c-5.4 2.4-8.8 7.9-8.8 15.9 0 15.5 12.5 34.3 28 42 7.6 3.8 14.6 4.2 19.6 1.8 0 0 13.9-6.9 15.1-7.6 4.5-2.7 7.3-7.9 7.3-15.2 0-15.5-12.5-34.3-28-42z" fill="#2d3134"></path><path xmlns="http://www.w3.org/2000/svg" d="m183.9 351.7c2-1 13.7-6.8 14.8-7.5 4.5-2.7 7.3-7.9 7.3-15.2 0-6.2-2.1-13-5.5-19.3l-14 7c3.4 6.4 5.5 13.1 5.5 19.3 0 7.7-3.1 13.1-8.1 15.7z" opacity=".29"></path><path xmlns="http://www.w3.org/2000/svg" d="m181.9 330.8c0 9.9-8 13.9-17.9 8.9-9.9-4.9-17.9-17-17.9-26.8s8-13.9 17.9-8.9 17.9 17 17.9 26.8z" fill="#999"></path><path xmlns="http://www.w3.org/2000/svg" d="m165.5 339.2c-9.9-4.9-17.9-17-17.9-26.8 0-4.9 1.9-8.3 5.1-9.9-4 1.3-6.6 5-6.6 10.6 0 9.9 8 21.9 17.9 26.8 5 2.5 9.6 2.7 12.8 1-3.1.9-7 .4-11.3-1.7z" opacity=".15"></path><path xmlns="http://www.w3.org/2000/svg" d="m172.9 325c0 4.1-3.3 5.8-7.5 3.7-4.1-2.1-7.5-7.1-7.5-11.2s3.3-5.8 7.5-3.7 7.5 7.1 7.5 11.2z" fill="#2d3134"></path><path xmlns="http://www.w3.org/2000/svg" d="m172.9 325c0 4.1-3.3 5.8-7.5 3.7-4.1-2.1-7.5-7.1-7.5-11.2s3.3-5.8 7.5-3.7 7.5 7.1 7.5 11.2z" opacity=".29"></path><path xmlns="http://www.w3.org/2000/svg" d="m171.5 325.7c0 4.1-3.3 5.8-7.5 3.7-4.1-2.1-7.5-7.1-7.5-11.2s3.3-5.8 7.5-3.7 7.5 7.1 7.5 11.2z" fill="#2d3134"></path><path xmlns="http://www.w3.org/2000/svg" d="m192 336.1c0 15.5-12.5 21.7-28 14s-28-26.5-28-42 12.5-21.7 28-14 28 26.5 28 42z" opacity=".11"></path><path xmlns="http://www.w3.org/2000/svg" d="m143 285 36-18 36 18-36 18z" fill="#2d3134"></path><path xmlns="http://www.w3.org/2000/svg" d="m193 328 36-18-14-25-36 18z" fill="#2d3134"></path><path xmlns="http://www.w3.org/2000/svg" d="m193 328 36-18-14-25-36 18z" opacity=".29"></path><path xmlns="http://www.w3.org/2000/svg" d="m249 298-20 10v27l52 26 20-10v-27z" fill="#999"></path><path xmlns="http://www.w3.org/2000/svg" d="m263 305-4-2-20 10v27l4 2v-27z" fill="#2d3134"></path><path xmlns="http://www.w3.org/2000/svg" d="m291 319-4-2-20 10v27l4 2v-27z" fill="#2d3134"></path><path xmlns="http://www.w3.org/2000/svg" d="m301 324v27l-20 10v-27z" opacity=".29"></path><path xmlns="http://www.w3.org/2000/svg" d="m229 308v27l52 26v-27z" opacity=".11"></path><path xmlns="http://www.w3.org/2000/svg" d="m220 306-10 5v26l62 31 10-5v-26z" fill="#2d3134"></path><path xmlns="http://www.w3.org/2000/svg" d="m210 311v26l62 31v-26z" opacity=".11"></path><path xmlns="http://www.w3.org/2000/svg" d="m282 337v26l-10 5v-26z" opacity=".29"></path><path xmlns="http://www.w3.org/2000/svg" d="m247 299-20 10v27l52 26 20-10v-27z" fill="#999"></path><path xmlns="http://www.w3.org/2000/svg" d="m261 306-4-2-20 10v27l4 2v-27z" fill="#2d3134"></path><path xmlns="http://www.w3.org/2000/svg" d="m289 320-4-2-20 10v27l4 2v-27z" fill="#2d3134"></path><path xmlns="http://www.w3.org/2000/svg" d="m299 325v27l-20 10v-27z" opacity=".29"></path><path xmlns="http://www.w3.org/2000/svg" d="m227 309v27l52 26v-27z" opacity=".11"></path><path xmlns="http://www.w3.org/2000/svg" d="m218 307-10 5v26l62 31 10-5v-26z" fill="#2d3134"></path><path xmlns="http://www.w3.org/2000/svg" d="m208 312v26l62 31v-26z" opacity=".11"></path><path xmlns="http://www.w3.org/2000/svg" d="m280 338v26l-10 5v-26z" opacity=".29"></path><path xmlns="http://www.w3.org/2000/svg" d="m382 287-112 56v26l44 22 112-56v-26z" fill="#2d3134"></path><path xmlns="http://www.w3.org/2000/svg" d="m270 343v26l44 22v-26z" opacity=".11"></path><path xmlns="http://www.w3.org/2000/svg" d="m426 309v26l-112 56v-26z" opacity=".29"></path><path xmlns="http://www.w3.org/2000/svg" d="m250 242-10 5 58 58 10 5 10-5-58-58z" fill="#f90"></path><path xmlns="http://www.w3.org/2000/svg" d="m298 305-58-58 10 5 58 58z" opacity=".11"></path><path xmlns="http://www.w3.org/2000/svg" d="m318 305-58-58-10 5 58 58z" opacity=".29"></path><path xmlns="http://www.w3.org/2000/svg" d="m67 187s22.5-32.3 75-54c47.7-19.7 110.3-23.3 143-14s77 68 77 68z" fill="#fc0"></path><path xmlns="http://www.w3.org/2000/svg" d="m368 100-96 48 24 105h6l96-48-24-105z" fill="#f90"></path><path xmlns="http://www.w3.org/2000/svg" d="m272 148 24 105h6l-24-105z" opacity=".11"></path><path xmlns="http://www.w3.org/2000/svg" d="m374 100 24 105-96 48-24-105z" opacity=".29"></path><path xmlns="http://www.w3.org/2000/svg" d="m379.1 131.4-1.3-5.8-92.3 46.2 1.3 5.8z" opacity=".15"></path><path xmlns="http://www.w3.org/2000/svg" d="m281.2 152.9 1.3 5.8 92.3-46.1-1.3-5.8z" opacity=".15"></path><path xmlns="http://www.w3.org/2000/svg" d="m392 187.5-1.4-5.8-92.3 46.1 1.3 5.9z" opacity=".15"></path><path xmlns="http://www.w3.org/2000/svg" d="m387.6 168.7-1.3-5.9-92.3 46.2v.1l1.3 5.7z" opacity=".15"></path><path xmlns="http://www.w3.org/2000/svg" d="m383.4 150.3-1.3-5.9-92.3 46.2 1.3 5.8z" opacity=".15"></path><path xmlns="http://www.w3.org/2000/svg" d="m41 146-6 3 24 105h241l6-3-24-105z" fill="#f90"></path><path xmlns="http://www.w3.org/2000/svg" d="m35 149 24 105h241l-24-105z" opacity=".11"></path><path xmlns="http://www.w3.org/2000/svg" d="m282 146 24 105-6 3-24-105z" opacity=".29"></path><path xmlns="http://www.w3.org/2000/svg" d="m386 85-104 52-12 12h6l104-52 12-12z" fill="#f90"></path><path xmlns="http://www.w3.org/2000/svg" d="m270 149 12-12h6l-12 12z" opacity=".11"></path><path xmlns="http://www.w3.org/2000/svg" d="m380 97 12-12-104 52-12 12z" opacity=".29"></path><path xmlns="http://www.w3.org/2000/svg" d="m45 153 22 96h6l-22-96z" opacity=".15"></path><path xmlns="http://www.w3.org/2000/svg" d="m63 153 22 96h6l-22-96z" opacity=".15"></path><path xmlns="http://www.w3.org/2000/svg" d="m81 153 22 96h6l-22-96z" opacity=".15"></path><path xmlns="http://www.w3.org/2000/svg" d="m99 153 22 96h6l-22-96z" opacity=".15"></path><path xmlns="http://www.w3.org/2000/svg" d="m117 153 22 96h6l-22-96z" opacity=".15"></path><path xmlns="http://www.w3.org/2000/svg" d="m135 153 22 96h6l-22-96z" opacity=".15"></path><path xmlns="http://www.w3.org/2000/svg" d="m153 153 22 96h6l-22-96z" opacity=".15"></path><path xmlns="http://www.w3.org/2000/svg" d="m171 153 22 96h6l-22-96z" opacity=".15"></path><path xmlns="http://www.w3.org/2000/svg" d="m189 153 22 96h6l-22-96z" opacity=".15"></path><path xmlns="http://www.w3.org/2000/svg" d="m207 153 22 96h6l-22-96z" opacity=".15"></path><path xmlns="http://www.w3.org/2000/svg" d="m225 153 22 96h6l-22-96z" opacity=".15"></path><path xmlns="http://www.w3.org/2000/svg" d="m243 153 22 96h6l-22-96z" opacity=".15"></path><path xmlns="http://www.w3.org/2000/svg" d="m261 153 22 96h6l-22-96z" opacity=".15"></path><path xmlns="http://www.w3.org/2000/svg" d="m493.3 285h-1v-30.7c0-1.1-.6-2.1-1.5-2.7s-2.1-.6-3-.1l-2.3 1.1-.4-.9 2.3-1.1c1.3-.6 2.8-.6 4 .2s2 2.1 2 3.5v30.7z" fill="#2d3134"></path><path xmlns="http://www.w3.org/2000/svg" d="m487 260.6v20.9c0 1.9 2.1 3 3.6 1.9l.5-.4c2.5-1.8 4-4.7 4-7.7v-21c0-1.9-2.2-3-3.7-1.8l-.8.6c-2.2 1.8-3.6 4.6-3.6 7.5z" fill="#2d3134"></path><path xmlns="http://www.w3.org/2000/svg" d="m502 281c-7.2 0-13 2.9-13 6.5v49c0 3.6 5.8 6.5 13 6.5s13-2.9 13-6.5v-49c0-3.6-5.8-6.5-13-6.5z" fill="#999"></path><path xmlns="http://www.w3.org/2000/svg" d="m502 294c-7.2 0-13-2.9-13-6.5v49c0 3.6 5.8 6.5 13 6.5s13-2.9 13-6.5v-49c0 3.6-5.8 6.5-13 6.5z" opacity=".2"></path><path xmlns="http://www.w3.org/2000/svg" d="m502 334c-7.2 0-13-2.9-13-6.5v1c0 3.6 5.8 6.5 13 6.5s13-2.9 13-6.5v-1c0 3.6-5.8 6.5-13 6.5z" fill="#999"></path><path xmlns="http://www.w3.org/2000/svg" d="m502 323.5c-7.2 0-13-2.9-13-6.5v1c0 3.6 5.8 6.5 13 6.5s13-2.9 13-6.5v-1c0 3.6-5.8 6.5-13 6.5z" fill="#999"></path><path xmlns="http://www.w3.org/2000/svg" d="m502 313c-7.2 0-13-2.9-13-6.5v1c0 3.6 5.8 6.5 13 6.5s13-2.9 13-6.5v-1c0 3.6-5.8 6.5-13 6.5z" fill="#999"></path><path xmlns="http://www.w3.org/2000/svg" d="m502 302.5c-7.2 0-13-2.9-13-6.5v1c0 3.6 5.8 6.5 13 6.5s13-2.9 13-6.5v-1c0 3.6-5.8 6.5-13 6.5z" fill="#999"></path><path xmlns="http://www.w3.org/2000/svg" d="m449.9 209c-6.1 0-11 2.5-11 5.5v102c0 3 4.9 5.5 11 5.5s11-2.5 11-5.5v-102c0-3-4.9-5.5-11-5.5z" fill="#2d3134"></path><ellipse xmlns="http://www.w3.org/2000/svg" cx="449.9" cy="214.5" opacity=".8" rx="8.2" ry="3.4"></ellipse><path xmlns="http://www.w3.org/2000/svg" d="m469 337.4c0-1.8-1.4-3.9-3.2-4.8-1.1-.6-2.1-.5-2.7.1-2 .7-4.1.4-5.9-.7-2.1-1.3-3.3-3.5-3.3-5.9v-154.5h-7.9v154.5c0 5.2 2.6 9.9 7.1 12.7 2.4 1.5 5.1 2.2 7.8 2.2 2.3 0 4.5-.5 6.7-1.6 0 0 1.4-.8 1.4-2z" fill="#2d3134"></path><path xmlns="http://www.w3.org/2000/svg" d="m454.1 209.4v2.1c2.5.6 4.1 1.7 4.1 3 0 1.9-3.7 3.4-8.2 3.4s-8.2-1.5-8.2-3.4c0-1.3 1.7-2.4 4.1-3v-2.1c-4 .8-6.9 2.8-6.9 5.1v102c0 3 4.9 5.5 11 5.5s11-2.5 11-5.5v-102c-.1-2.3-2.9-4.3-6.9-5.1z" fill="#2d3134"></path><path xmlns="http://www.w3.org/2000/svg" d="m449.9 220c-6.1 0-11-2.5-11-5.5v102c0 3 4.9 5.5 11 5.5s11-2.5 11-5.5v-102c0 3-4.9 5.5-11 5.5z" opacity=".2"></path><ellipse xmlns="http://www.w3.org/2000/svg" cx="450" cy="171.6" fill="#2d3134" rx="4" ry="2.6"></ellipse><path xmlns="http://www.w3.org/2000/svg" d="m341 264v138l68 34 97 23 48-24v-78l-62-63-11-40-60-30z" fill="#06547a"></path><path xmlns="http://www.w3.org/2000/svg" d="m576 382c-6-13.3-28.5-23.3-41-25s-21.8 3.3-33 11c-11.3 7.8 5.8 5.6 22 13.7 15.4 7.7 28.2 25.4 30.6 41.4l29.4-15c0-.1-2-12.9-8-26.1z" fill="#06547a"></path><path xmlns="http://www.w3.org/2000/svg" d="m358 284.5v26.5c0 1.9 1.1 3.7 2.8 4.6l34.4 17.2c1.1.6 2.4-.4 2.1-1.6l-3.5-15.8c-2.4-10.9-9.6-20.1-19.6-25.1l-14.1-7c-1-.6-2.1.1-2.1 1.2z" fill="#2d3134"></path><path xmlns="http://www.w3.org/2000/svg" d="m361.7 313.7c-1.1-.5-1.7-1.6-1.7-2.8v-25.6l13.3 6.7c9.5 4.7 16.3 13.4 18.6 23.8l3.3 14.7z" fill="#656565"></path><path xmlns="http://www.w3.org/2000/svg" d="m401 294 11 40 80-40-11-40z" fill="#2d3134"></path><path xmlns="http://www.w3.org/2000/svg" d="m404.6 300.2 76.4-38.2 8.6 30.9-76.3 38.2z" fill="#656565"></path><path xmlns="http://www.w3.org/2000/svg" d="m491.2 291.3-10.2-37.3-80 40 .9 3.3c8.6.8 17.4 1.2 26.5 1.2 22.8.1 44.2-2.6 62.8-7.2z" opacity=".2"></path><g xmlns="http://www.w3.org/2000/svg" fill="#2d3134"><path d="m455.7 289.3c-.6-.5-1.5-.5-2 .1l-26.4 30c-.5.6-.5 1.5.1 2s1.5.5 2-.1l7.1-8.1v6.9h1.8v-8.8h-.1l17.6-20c.6-.6.5-1.5-.1-2z"></path><path d="m481.1 275.4c-.6-.5-1.5-.5-2 .1l-26.4 30c-.5.6-.5 1.5.1 2s1.5.5 2-.1l6.3-7.2v7.6h1.8v-9.6l18.3-20.8c.5-.6.5-1.5-.1-2z"></path><path d="m379.8 338.4c-1.1 0-2.2-.3-3.1-.9-1.8-1.1-2.8-3-2.8-5.1v-32.3c0-2.3 1.3-4.3 3.3-5.3l3.7-1.8.4.9-3.7 1.8c-1.7.8-2.7 2.5-2.7 4.4v32.3c0 1.7.9 3.3 2.4 4.2s3.3 1 4.8.2l.6-.3.4.9-.6.3c-.9.5-1.8.7-2.7.7z"></path><path d="m374 299.3.7-.3c2.4-.8 4.9 1 4.9 3.5v21.5c0 3.1-1.9 6-4.9 7.1l-.9.3c-2.4.9-5.1-.9-5.1-3.5v-21.5c.2-3.1 2.3-6 5.3-7.1z"></path></g><path xmlns="http://www.w3.org/2000/svg" d="m578 383-14-7-22 11 10 16 4 2 22-11z" fill="#06547a"></path><path xmlns="http://www.w3.org/2000/svg" d="m556 405-4-2-10-16 14 7z" opacity=".11"></path><path xmlns="http://www.w3.org/2000/svg" d="m577 393v-8l-20 10v8z" fill="#fff"></path><ellipse xmlns="http://www.w3.org/2000/svg" cx="561.8" cy="396.9" fill="#2d3134" opacity=".3" rx="3.1" ry="2" transform="matrix(-.6313 .7756 -.7756 -.6313 1224.2512 211.8113)"></ellipse><ellipse xmlns="http://www.w3.org/2000/svg" cx="563.9" cy="394.9" fill="#2d3134" opacity=".3" rx="3.1" ry="2" transform="matrix(-.6313 .7756 -.7756 -.6313 1226.1511 206.9081)"></ellipse><path xmlns="http://www.w3.org/2000/svg" d="m570 396 6-3v-5l-6 3z" fill="#f90"></path><path xmlns="http://www.w3.org/2000/svg" d="m556 405 22-11v-11l-22 11z" opacity=".29"></path><path xmlns="http://www.w3.org/2000/svg" d="m358 326.5v5l10 5v-5z" fill="#2d3134" opacity=".3"></path><path xmlns="http://www.w3.org/2000/svg" d="m368 339-10-5v-2.5l10 5z" fill="#fff" opacity=".3"></path><path xmlns="http://www.w3.org/2000/svg" d="m341 402v-138l54 27 10 44 101 46v78l-97-23z" opacity=".11"></path><path xmlns="http://www.w3.org/2000/svg" d="m454 424.3c-7.5-3.7-14.2-4.2-19.2-1.9l-14 7c-5.4 2.4-8.8 7.9-8.8 15.9 0 15.5 12.5 34.3 28 42 7.6 3.8 14.6 4.2 19.6 1.8 0 0 13.9-6.9 15.1-7.6 4.5-2.7 7.3-7.9 7.3-15.2 0-15.5-12.5-34.3-28-42z" fill="#2d3134"></path><path xmlns="http://www.w3.org/2000/svg" d="m459.9 488.9c2-1 13.7-6.8 14.8-7.5 4.5-2.7 7.3-7.9 7.3-15.2 0-6.2-2.1-13-5.5-19.3l-14 7c3.4 6.4 5.5 13.1 5.5 19.3 0 7.8-3.1 13.1-8.1 15.7z" opacity=".29"></path><path xmlns="http://www.w3.org/2000/svg" d="m457.9 468.1c0 9.9-8 13.9-17.9 8.9-9.9-4.9-17.9-17-17.9-26.8s8-13.9 17.9-8.9 17.9 16.9 17.9 26.8z" fill="#999"></path><path xmlns="http://www.w3.org/2000/svg" d="m441.5 476.4c-9.9-4.9-17.9-17-17.9-26.8 0-4.9 1.9-8.3 5.1-9.9-4 1.3-6.6 5-6.6 10.6 0 9.9 8 21.9 17.9 26.8 5 2.5 9.6 2.7 12.8 1-3.1.9-7 .4-11.3-1.7z" opacity=".15"></path><path xmlns="http://www.w3.org/2000/svg" d="m448.9 462.2c0 4.1-3.3 5.8-7.5 3.7-4.1-2.1-7.5-7.1-7.5-11.2s3.3-5.8 7.5-3.7 7.5 7.1 7.5 11.2z" fill="#2d3134"></path><path xmlns="http://www.w3.org/2000/svg" d="m448.9 462.2c0 4.1-3.3 5.8-7.5 3.7-4.1-2.1-7.5-7.1-7.5-11.2s3.3-5.8 7.5-3.7 7.5 7.1 7.5 11.2z" opacity=".29"></path><path xmlns="http://www.w3.org/2000/svg" d="m447.5 462.9c0 4.1-3.3 5.8-7.5 3.7s-7.5-7.1-7.5-11.2 3.3-5.8 7.5-3.7c4.1 2.1 7.5 7.1 7.5 11.2z" fill="#2d3134"></path><path xmlns="http://www.w3.org/2000/svg" d="m468 473.3c0 15.5-12.5 21.7-28 14s-28-26.5-28-42 12.5-21.7 28-14 28 26.5 28 42z" opacity=".11"></path><path xmlns="http://www.w3.org/2000/svg" d="m492 424c-6-13.3-28.5-23.3-41-25s-21.8 3.3-33 11-11 24-11 24l2 2 .1.5c1.4-15.2 14.7-20.9 30.9-12.8 15.4 7.7 28.2 25.4 30.6 41.4l29.4-15c0-.1-2-12.8-8-26.1z" fill="#06547a"></path><path xmlns="http://www.w3.org/2000/svg" d="m498 423-14-7-22 11 10 16 4 2 22-11z" fill="#06547a"></path><path xmlns="http://www.w3.org/2000/svg" d="m476 445-4-2-10-16 14 7z" opacity=".11"></path><path xmlns="http://www.w3.org/2000/svg" d="m497 433v-8l-20 10v8z" fill="#fff"></path><ellipse xmlns="http://www.w3.org/2000/svg" cx="492.8" cy="431.9" fill="#2d3134" opacity=".3" rx="3.1" ry="2" transform="matrix(-.6313 .7756 -.7756 -.6313 1138.8378 322.4195)"></ellipse><ellipse xmlns="http://www.w3.org/2000/svg" cx="489.9" cy="431.9" fill="#2d3134" opacity=".3" rx="3.1" ry="2" transform="matrix(-.6313 .7756 -.7756 -.6313 1134.1324 324.6566)"></ellipse><path xmlns="http://www.w3.org/2000/svg" d="m478 442 6-3v-5l-6 3z" fill="#f90"></path><path xmlns="http://www.w3.org/2000/svg" d="m476 445 22-11v-11l-22 11z" opacity=".29"></path><path xmlns="http://www.w3.org/2000/svg" d="m592 402-4-2-120 60v25l4 2 120-60z" fill="#999"></path><path xmlns="http://www.w3.org/2000/svg" d="m472 487-4-2v-25l4 2z" opacity=".11"></path><path xmlns="http://www.w3.org/2000/svg" d="m478 478 12-6v-11l-12 6z" opacity=".5"></path><path xmlns="http://www.w3.org/2000/svg" d="m506 456 10-5v-7l-10 5z" opacity=".5"></path><path xmlns="http://www.w3.org/2000/svg" d="m548 435 10-5v-7l-10 5z" opacity=".5"></path><path xmlns="http://www.w3.org/2000/svg" d="m576 429 10-5v-11l-10 5z" opacity=".5"></path><path xmlns="http://www.w3.org/2000/svg" d="m472 487 120-60v-25l-120 60z" opacity=".29"></path><path xmlns="http://www.w3.org/2000/svg" d="m558 357-4-2-20 4-12 6-20 16v62l4 2 52-26z" fill="#999"></path><path xmlns="http://www.w3.org/2000/svg" d="m510 437 44-22v-2l-44 22z" opacity=".6"></path><path xmlns="http://www.w3.org/2000/svg" d="m510 433 44-22v-2l-44 22z" opacity=".6"></path><path xmlns="http://www.w3.org/2000/svg" d="m510 429 44-22v-2l-44 22z" opacity=".6"></path><path xmlns="http://www.w3.org/2000/svg" d="m510 425 44-22v-2l-44 22z" opacity=".6"></path><path xmlns="http://www.w3.org/2000/svg" d="m510 421 44-22v-2l-44 22z" opacity=".6"></path><path xmlns="http://www.w3.org/2000/svg" d="m510 417 44-22v-2l-44 22z" opacity=".6"></path><path xmlns="http://www.w3.org/2000/svg" d="m510 413 44-22v-2l-44 22z" opacity=".6"></path><path xmlns="http://www.w3.org/2000/svg" d="m510 409 44-22v-2l-44 22z" opacity=".6"></path><path xmlns="http://www.w3.org/2000/svg" d="m510 405 44-22v-2l-44 22z" opacity=".6"></path><path xmlns="http://www.w3.org/2000/svg" d="m510 401 44-22v-2l-44 22z" opacity=".6"></path><path xmlns="http://www.w3.org/2000/svg" d="m510 397 44-22v-2l-44 22z" opacity=".6"></path><path xmlns="http://www.w3.org/2000/svg" d="m510 393 44-22v-2l-44 22z" opacity=".6"></path><path xmlns="http://www.w3.org/2000/svg" d="m510 389 44-22v-2l-44 22z" opacity=".6"></path><path xmlns="http://www.w3.org/2000/svg" d="m518 435 4-2v-54l-4 2z" fill="#999"></path><path xmlns="http://www.w3.org/2000/svg" d="m530 429 4-2v-54l-4 2z" fill="#999"></path><path xmlns="http://www.w3.org/2000/svg" d="m542 423 4-2v-54l-4 2z" fill="#999"></path><path xmlns="http://www.w3.org/2000/svg" d="m506 445-4-2v-62l4 2z" opacity=".11"></path><path xmlns="http://www.w3.org/2000/svg" d="m506 445 52-26v-62l-20 4-12 6-20 16z" opacity=".29"></path><path xmlns="http://www.w3.org/2000/svg" d="m397 333c-7.2 0-13 2.9-13 6.5v49c0 3.6 5.8 6.5 13 6.5s13-2.9 13-6.5v-49c0-3.6-5.8-6.5-13-6.5z" fill="#999"></path><path xmlns="http://www.w3.org/2000/svg" d="m397 346c-7.2 0-13-2.9-13-6.5v49c0 3.6 5.8 6.5 13 6.5s13-2.9 13-6.5v-49c0 3.6-5.8 6.5-13 6.5z" opacity=".2"></path><path xmlns="http://www.w3.org/2000/svg" d="m397 386c-7.2 0-13-2.9-13-6.5v1c0 3.6 5.8 6.5 13 6.5s13-2.9 13-6.5v-1c0 3.6-5.8 6.5-13 6.5z" fill="#999"></path><path xmlns="http://www.w3.org/2000/svg" d="m397 375.5c-7.2 0-13-2.9-13-6.5v1c0 3.6 5.8 6.5 13 6.5s13-2.9 13-6.5v-1c0 3.6-5.8 6.5-13 6.5z" fill="#999"></path><path xmlns="http://www.w3.org/2000/svg" d="m397 365c-7.2 0-13-2.9-13-6.5v1c0 3.6 5.8 6.5 13 6.5s13-2.9 13-6.5v-1c0 3.6-5.8 6.5-13 6.5z" fill="#999"></path><path xmlns="http://www.w3.org/2000/svg" d="m397 354.5c-7.2 0-13-2.9-13-6.5v1c0 3.6 5.8 6.5 13 6.5s13-2.9 13-6.5v-1c0 3.6-5.8 6.5-13 6.5z" fill="#999"></path><path xmlns="http://www.w3.org/2000/svg" d="m331 269c-6.1 0-11 2.5-11 5.5v102c0 3 4.9 5.5 11 5.5s11-2.5 11-5.5v-102c-.1-3-5-5.5-11-5.5z" fill="#2d3134"></path><ellipse xmlns="http://www.w3.org/2000/svg" cx="331" cy="274.5" opacity=".8" rx="8.2" ry="3.4"></ellipse><path xmlns="http://www.w3.org/2000/svg" d="m350 397.4c0-1.8-1.4-3.9-3.2-4.8-1.1-.6-2.1-.5-2.7.1-2 .7-4.1.4-5.9-.7-2.1-1.3-3.3-3.5-3.3-5.9v-154.5h-7.9v154.5c0 5.2 2.6 9.9 7.1 12.7 2.4 1.5 5.1 2.2 7.8 2.2 2.3 0 4.5-.5 6.7-1.6 0 0 1.4-.8 1.4-2z" fill="#2d3134"></path><path xmlns="http://www.w3.org/2000/svg" d="m335.1 269.4v2.1c2.5.6 4.1 1.7 4.1 3 0 1.9-3.7 3.4-8.2 3.4s-8.2-1.5-8.2-3.4c0-1.3 1.7-2.4 4.1-3v-2.1c-4 .8-6.9 2.8-6.9 5.1v102c0 3 4.9 5.5 11 5.5s11-2.5 11-5.5v-102c-.1-2.3-2.9-4.3-6.9-5.1z" fill="#2d3134"></path><path xmlns="http://www.w3.org/2000/svg" d="m331 280c-6.1 0-11-2.5-11-5.5v102c0 3 4.9 5.5 11 5.5s11-2.5 11-5.5v-102c-.1 3-5 5.5-11 5.5z" opacity=".2"></path><ellipse xmlns="http://www.w3.org/2000/svg" cx="331" cy="231.6" fill="#2d3134" rx="4" ry="2.6"></ellipse><path xmlns="http://www.w3.org/2000/svg" d="m349 375-10 5-8 39 4 2 18-9v-35z" fill="#999"></path><path xmlns="http://www.w3.org/2000/svg" d="m339 380 4 2-8 39-4-2z" opacity=".11"></path><path xmlns="http://www.w3.org/2000/svg" d="m353 377-10 5-8 39 18-9z" opacity=".29"></path><path xmlns="http://www.w3.org/2000/svg" d="m349 388-6 3v4l50 25 2-9z" fill="#999"></path><path xmlns="http://www.w3.org/2000/svg" d="m343 391v4l50 25v-4z" opacity=".11"></path><path xmlns="http://www.w3.org/2000/svg" d="m349 404-10 5v4l50 25 6-11z" fill="#999"></path><path xmlns="http://www.w3.org/2000/svg" d="m339 409v4l50 25v-4z" opacity=".11"></path><path xmlns="http://www.w3.org/2000/svg" d="m403 402-10 5-8 39 4 2 18-9v-35z" fill="#999"></path><path xmlns="http://www.w3.org/2000/svg" d="m393 407 4 2-8 39-4-2z" opacity=".11"></path><path xmlns="http://www.w3.org/2000/svg" d="m407 404-10 5-8 39 18-9z" opacity=".29"></path><path xmlns="http://www.w3.org/2000/svg" d="m216 137c46.1-3 60.2-11.4 58.7-20.3-34.4-6.1-89.7-1.4-132.7 16.3-3.9 1.6-7.5 3.2-11.1 4.9 12.6 4.7 37.7 2.2 85.1-.9z" fill="#fff" opacity=".15"></path></g>
</svg>
