<?xml version="1.0" encoding="UTF-8" standalone="no"?>
<!-- Created with Inkscape (http://www.inkscape.org/) -->

<svg
   xmlns:dc="http://purl.org/dc/elements/1.1/"
   xmlns:cc="http://creativecommons.org/ns#"
   xmlns:rdf="http://www.w3.org/1999/02/22-rdf-syntax-ns#"
   xmlns:svg="http://www.w3.org/2000/svg"
   xmlns="http://www.w3.org/2000/svg"
   xmlns:sodipodi="http://sodipodi.sourceforge.net/DTD/sodipodi-0.dtd"
   xmlns:inkscape="http://www.inkscape.org/namespaces/inkscape"
   width="12.7mm"
   height="12.7mm"
   viewBox="0 0 12.7 12.7"
   version="1.1"
   id="svg158"
   inkscape:version="0.92.2 (5c3e80d, 2017-08-06)"
   sodipodi:docname="100.svg">
  <defs
     id="defs152" />
  <sodipodi:namedview
     id="base"
     pagecolor="#ffffff"
     bordercolor="#666666"
     borderopacity="1.0"
     inkscape:pageopacity="0.0"
     inkscape:pageshadow="2"
     inkscape:zoom="0.7"
     inkscape:cx="-364.73022"
     inkscape:cy="177.41326"
     inkscape:document-units="mm"
     inkscape:current-layer="layer1"
     showgrid="false"
     fit-margin-top="0"
     fit-margin-left="0"
     fit-margin-right="0"
     fit-margin-bottom="0"
     inkscape:pagecheckerboard="true"
     inkscape:window-width="1360"
     inkscape:window-height="706"
     inkscape:window-x="-8"
     inkscape:window-y="-8"
     inkscape:window-maximized="1" />
  <metadata
     id="metadata155">
    <rdf:RDF>
      <cc:Work
         rdf:about="">
        <dc:format>image/svg+xml</dc:format>
        <dc:type
           rdf:resource="http://purl.org/dc/dcmitype/StillImage" />
        <dc:title></dc:title>
      </cc:Work>
    </rdf:RDF>
  </metadata>
  <g
     inkscape:label="Layer 1"
     inkscape:groupmode="layer"
     id="layer1"
     transform="translate(-35.680955,-236.52381)">
    <g
       transform="matrix(0.26458333,0,0,0.26458333,-106.13571,217.47381)"
       id="g221">
      <g
         id="i13"
         class="top-level-node"
         transform="translate(536,72)">
        <g
           id="g54">
          <g
             id="g52">
            <circle
               cx="24"
               cy="24"
               r="24"
               id="circle50"
               style="fill:#cc291f" />
          </g>
        </g>
      </g>
      <g
         id="i30"
         class="top-level-node"
         transform="translate(544,80)">
        <g
           id="g145">
          <g
             id="g143">
            <path
               d="m 32,18.8 c 0,-0.2 0,-0.4 0,-0.7 0,0 0,-0.1 0,-0.1 H 31.7 L 26.9,5.6 c 0,0 0,-0.1 -0.1,-0.1 C 26.9,5.3 27,5.2 27,5 27,4.4 26.6,4 26,4 H 17.7 C 17.5,3.7 17.3,3.5 17,3.3 V 1 C 17,0.4 16.6,0 16,0 15.4,0 15,0.4 15,1 V 3.3 C 14.7,3.5 14.5,3.7 14.3,4 H 6 C 5.4,4 5,4.4 5,5 5,5.2 5.1,5.3 5.1,5.5 5.1,5.5 5,5.6 5,5.6 L 0.3,18 H 0 c 0,0 0,0.1 0,0.1 0,0.2 0,0.5 0,0.7 0,0.2 0,0.5 0.2,0.7 0.6,2.6 3,4.5 5.8,4.5 2.8,0 5.2,-1.9 5.8,-4.5 C 12,19.3 12,19 12,18.8 c 0,-0.2 0,-0.4 0,-0.7 0,0 0,-0.1 0,-0.1 H 11.7 L 7.1,6 h 7.2 c 0.2,0.3 0.4,0.5 0.7,0.7 v 20 c 0,1.8 -1.4,3.2 -3.2,3.2 H 11 c -0.6,0 -1,0.4 -1,1 0,0.6 0.4,1 1,1 h 10 c 0.6,0 1,-0.4 1,-1 0,-0.6 -0.4,-1 -1,-1 H 20.2 C 18.4,29.9 17,28.5 17,26.7 V 6.7 C 17.3,6.5 17.5,6.3 17.7,6 h 7.2 L 20.3,18 H 20 c 0,0 0,0.1 0,0.1 0,0.2 0,0.5 0,0.7 -0.1,0.3 0,0.5 0.1,0.8 0.7,2.6 3,4.5 5.8,4.5 2.8,0 5.2,-1.9 5.8,-4.5 C 32,19.3 32,19 32,18.8 Z M 2.4,18 6,8.8 9.6,18 Z m 20,0 3.6,-9.2 3.6,9.2 z"
               id="path141"
               inkscape:connector-curvature="0"
               style="fill:#ffffff" />
          </g>
        </g>
      </g>
    </g>
  </g>
</svg>
