<?xml version="1.0" encoding="UTF-8" standalone="no"?>
<!-- Created with Inkscape (http://www.inkscape.org/) -->

<svg
   xmlns:dc="http://purl.org/dc/elements/1.1/"
   xmlns:cc="http://creativecommons.org/ns#"
   xmlns:rdf="http://www.w3.org/1999/02/22-rdf-syntax-ns#"
   xmlns:svg="http://www.w3.org/2000/svg"
   xmlns="http://www.w3.org/2000/svg"
   xmlns:sodipodi="http://sodipodi.sourceforge.net/DTD/sodipodi-0.dtd"
   xmlns:inkscape="http://www.inkscape.org/namespaces/inkscape"
   width="12.7mm"
   height="12.7mm"
   viewBox="0 0 12.7 12.7"
   version="1.1"
   id="svg158"
   inkscape:version="0.92.2 (5c3e80d, 2017-08-06)"
   sodipodi:docname="101.svg">
  <defs
     id="defs152" />
  <sodipodi:namedview
     id="base"
     pagecolor="#ffffff"
     bordercolor="#666666"
     borderopacity="1.0"
     inkscape:pageopacity="0.0"
     inkscape:pageshadow="2"
     inkscape:zoom="0.7"
     inkscape:cx="37.841221"
     inkscape:cy="259.98468"
     inkscape:document-units="mm"
     inkscape:current-layer="layer1"
     showgrid="false"
     fit-margin-top="0"
     fit-margin-left="0"
     fit-margin-right="0"
     fit-margin-bottom="0"
     inkscape:pagecheckerboard="true"
     inkscape:window-width="1360"
     inkscape:window-height="706"
     inkscape:window-x="-8"
     inkscape:window-y="-8"
     inkscape:window-maximized="1" />
  <metadata
     id="metadata155">
    <rdf:RDF>
      <cc:Work
         rdf:about="">
        <dc:format>image/svg+xml</dc:format>
        <dc:type
           rdf:resource="http://purl.org/dc/dcmitype/StillImage" />
        <dc:title></dc:title>
      </cc:Work>
    </rdf:RDF>
  </metadata>
  <g
     inkscape:label="Layer 1"
     inkscape:groupmode="layer"
     id="layer1"
     transform="translate(70.832738,-258.37083)">
    <g
       transform="matrix(0.26458333,0,0,0.26458333,-195.71607,239.32083)"
       id="g211">
      <g
         id="i12"
         class="top-level-node"
         transform="translate(472,72)">
        <g
           id="g47">
          <g
             id="g45">
            <circle
               cx="24"
               cy="24"
               r="24"
               id="circle43"
               style="fill:#cc291f" />
          </g>
        </g>
      </g>
      <g
         id="i29"
         class="top-level-node"
         transform="translate(480,80)">
        <g
           id="g138">
          <g
             id="g136">
            <path
               d="M 31,0 9.9,3.7 V 24.1 C 9.2,23.5 8.5,23.2 7.5,23.2 c -1,0 -1.9,0.3 -3,0.8 -1.1,0.5 -1.9,1.2 -2.6,2.1 -0.7,0.9 -1,1.9 -1,2.9 0.1,0.9 0.4,1.7 1.1,2.2 0.6,0.5 1.4,0.8 2.4,0.8 1,0 2.2,-0.2 3.3,-0.7 1.1,-0.5 2.2,-1.2 2.9,-2 0.7,-0.9 1.4,-1.9 1.4,-2.9 V 13.2 l 16.9,-2.8 v 10.4 c -0.7,-0.6 -1.4,-0.9 -2.4,-0.9 -1,0 -1.9,0.3 -3,0.8 -1.1,0.5 -1.9,1.2 -2.6,2.1 -0.7,0.9 -1,1.9 -1,2.9 0.1,0.9 0.4,1.7 1.1,2.2 0.7,0.5 1.5,0.8 2.5,0.8 1,0 2.2,-0.2 3.3,-0.7 1.1,-0.5 2.2,-1.2 2.9,-2 0.7,-0.9 1.4,-1.9 1.4,-2.9 V 0 Z M 28.9,8.3 12,11.1 V 8.9 L 28.9,6.1 Z"
               id="path134"
               inkscape:connector-curvature="0"
               style="clip-rule:evenodd;fill:#ffffff;fill-rule:evenodd" />
          </g>
        </g>
      </g>
    </g>
  </g>
</svg>
