<?xml version="1.0" encoding="UTF-8" standalone="no"?>
<!-- Created with Inkscape (http://www.inkscape.org/) -->

<svg
   xmlns:dc="http://purl.org/dc/elements/1.1/"
   xmlns:cc="http://creativecommons.org/ns#"
   xmlns:rdf="http://www.w3.org/1999/02/22-rdf-syntax-ns#"
   xmlns:svg="http://www.w3.org/2000/svg"
   xmlns="http://www.w3.org/2000/svg"
   xmlns:sodipodi="http://sodipodi.sourceforge.net/DTD/sodipodi-0.dtd"
   xmlns:inkscape="http://www.inkscape.org/namespaces/inkscape"
   width="12.7mm"
   height="12.7mm"
   viewBox="0 0 12.7 12.7"
   version="1.1"
   id="svg158"
   inkscape:version="0.92.2 (5c3e80d, 2017-08-06)"
   sodipodi:docname="102.svg">
  <defs
     id="defs152" />
  <sodipodi:namedview
     id="base"
     pagecolor="#ffffff"
     bordercolor="#666666"
     borderopacity="1.0"
     inkscape:pageopacity="0.0"
     inkscape:pageshadow="2"
     inkscape:zoom="0.7"
     inkscape:cx="-418.15878"
     inkscape:cy="269.69897"
     inkscape:document-units="mm"
     inkscape:current-layer="layer1"
     showgrid="false"
     fit-margin-top="0"
     fit-margin-left="0"
     fit-margin-right="0"
     fit-margin-bottom="0"
     inkscape:pagecheckerboard="true"
     inkscape:window-width="1360"
     inkscape:window-height="706"
     inkscape:window-x="-8"
     inkscape:window-y="-8"
     inkscape:window-maximized="1" />
  <metadata
     id="metadata155">
    <rdf:RDF>
      <cc:Work
         rdf:about="">
        <dc:format>image/svg+xml</dc:format>
        <dc:type
           rdf:resource="http://purl.org/dc/dcmitype/StillImage" />
        <dc:title></dc:title>
      </cc:Work>
    </rdf:RDF>
  </metadata>
  <g
     inkscape:label="Layer 1"
     inkscape:groupmode="layer"
     id="layer1"
     transform="translate(-49.817262,-260.94107)">
    <g
       transform="matrix(0.26458333,0,0,0.26458333,-56.01607,241.89107)"
       id="g201">
      <g
         id="i11"
         class="top-level-node"
         transform="translate(400,72)">
        <g
           id="g40">
          <g
             id="g38">
            <circle
               cx="24"
               cy="24"
               r="24"
               id="circle36"
               style="fill:#cc291f" />
          </g>
        </g>
      </g>
      <g
         id="i28"
         class="top-level-node"
         transform="translate(408,80)">
        <g
           id="g131">
          <g
             id="g129">
            <path
               d="M 24.4,2.1 C 20.1,1.4 16,4.3 16,6.3 16,4.3 11.9,1.4 7.6,2.1 2.7,3 0.1,8 3.7,15.7 7.2,23.3 16,30 16,30 16,30 24.8,23.3 28.3,15.7 31.9,8 29.3,3 24.4,2.1 Z M 9,7 C 7.9,7 7,7.9 7,9 7,9.6 6.6,10 6,10 5.4,10 5,9.6 5,9 5,6.8 6.8,5 9,5 9.6,5 10,5.4 10,6 10,6.6 9.6,7 9,7 Z"
               id="path127"
               inkscape:connector-curvature="0"
               style="fill:#ffffff" />
          </g>
        </g>
      </g>
    </g>
  </g>
</svg>
