<?xml version="1.0" encoding="UTF-8" standalone="no"?>
<!-- Created with Inkscape (http://www.inkscape.org/) -->

<svg
   xmlns:dc="http://purl.org/dc/elements/1.1/"
   xmlns:cc="http://creativecommons.org/ns#"
   xmlns:rdf="http://www.w3.org/1999/02/22-rdf-syntax-ns#"
   xmlns:svg="http://www.w3.org/2000/svg"
   xmlns="http://www.w3.org/2000/svg"
   xmlns:sodipodi="http://sodipodi.sourceforge.net/DTD/sodipodi-0.dtd"
   xmlns:inkscape="http://www.inkscape.org/namespaces/inkscape"
   width="12.7mm"
   height="12.7mm"
   viewBox="0 0 12.7 12.7"
   version="1.1"
   id="svg158"
   inkscape:version="0.92.2 (5c3e80d, 2017-08-06)"
   sodipodi:docname="105.svg">
  <defs
     id="defs152" />
  <sodipodi:namedview
     id="base"
     pagecolor="#ffffff"
     bordercolor="#666666"
     borderopacity="1.0"
     inkscape:pageopacity="0.0"
     inkscape:pageshadow="2"
     inkscape:zoom="0.7"
     inkscape:cx="-94.444497"
     inkscape:cy="176.27041"
     inkscape:document-units="mm"
     inkscape:current-layer="layer1"
     showgrid="false"
     fit-margin-top="0"
     fit-margin-left="0"
     fit-margin-right="0"
     fit-margin-bottom="0"
     inkscape:pagecheckerboard="true"
     inkscape:window-width="1360"
     inkscape:window-height="706"
     inkscape:window-x="-8"
     inkscape:window-y="-8"
     inkscape:window-maximized="1" />
  <metadata
     id="metadata155">
    <rdf:RDF>
      <cc:Work
         rdf:about="">
        <dc:format>image/svg+xml</dc:format>
        <dc:type
           rdf:resource="http://purl.org/dc/dcmitype/StillImage" />
        <dc:title></dc:title>
      </cc:Work>
    </rdf:RDF>
  </metadata>
  <g
     inkscape:label="Layer 1"
     inkscape:groupmode="layer"
     id="layer1"
     transform="translate(35.832142,-236.22143)">
    <g
       transform="matrix(0.26458333,0,0,0.26458333,-84.515475,217.17143)"
       id="g170">
      <g
         id="i7"
         class="top-level-node"
         transform="translate(184,72)">
        <g
           id="g8">
          <g
             id="g6">
            <circle
               cx="24"
               cy="24"
               r="24"
               id="circle4"
               style="fill:#cc291f" />
          </g>
        </g>
      </g>
      <g
         id="i8"
         class="top-level-node"
         transform="translate(192,80)">
        <g
           id="g19">
          <g
             id="g17">
            <g
               id="g15">
              <path
                 d="m 24.9,23.1 c 0.6,0.4 1.3,0.6 2.1,0.6 2.3,0 4.2,-1.9 4.2,-4.2 0,-2.3 -1.9,-4.2 -4.2,-4.2 -0.1,0 -0.3,0 -0.4,0 v -1 H 3.8 v 2.3 c 0,4.7 2.9,10 6.9,11.9 H 2.6 C 3.1,29.9 5.3,31 7.9,31 h 14.5 c 2.6,0 4.8,-1.1 5.4,-2.5 h -8.2 c 2.2,-1.1 4,-3.1 5.3,-5.4 z m 1.6,-6.2 c 0.1,0 0.3,0 0.4,0 1.4,0 2.6,1.2 2.6,2.6 0,1.4 -1.2,2.6 -2.6,2.6 -0.5,0 -1,-0.2 -1.4,-0.4 0.6,-1.6 1,-3.3 1,-4.8 z"
                 id="path11"
                 inkscape:connector-curvature="0"
                 style="clip-rule:evenodd;fill:#ffffff;fill-rule:evenodd" />
              <path
                 d="m 14.6,13 c 0,0 4.1,-1.6 3.7,-4.3 C 17.9,5.9 15.8,6 15.4,4 14.8,1.5 16.6,0.3 16.6,0.3 c 0,0 -3,0.9 -3.5,3.6 -0.4,2.3 1.3,3 1.8,4.7 0.6,1.7 -0.3,4.4 -0.3,4.4 z"
                 id="path13"
                 inkscape:connector-curvature="0"
                 style="clip-rule:evenodd;fill:#ffffff;fill-rule:evenodd" />
            </g>
          </g>
        </g>
      </g>
    </g>
  </g>
</svg>
