<?xml version="1.0" encoding="UTF-8" standalone="no"?>
<!-- Created with Inkscape (http://www.inkscape.org/) -->

<svg
   xmlns:dc="http://purl.org/dc/elements/1.1/"
   xmlns:cc="http://creativecommons.org/ns#"
   xmlns:rdf="http://www.w3.org/1999/02/22-rdf-syntax-ns#"
   xmlns:svg="http://www.w3.org/2000/svg"
   xmlns="http://www.w3.org/2000/svg"
   xmlns:sodipodi="http://sodipodi.sourceforge.net/DTD/sodipodi-0.dtd"
   xmlns:inkscape="http://www.inkscape.org/namespaces/inkscape"
   width="12.7mm"
   height="12.7mm"
   viewBox="0 0 12.7 12.7"
   version="1.1"
   id="svg158"
   inkscape:version="0.92.2 (5c3e80d, 2017-08-06)"
   sodipodi:docname="106.svg">
  <defs
     id="defs152" />
  <sodipodi:namedview
     id="base"
     pagecolor="#ffffff"
     bordercolor="#666666"
     borderopacity="1.0"
     inkscape:pageopacity="0.0"
     inkscape:pageshadow="2"
     inkscape:zoom="0.7"
     inkscape:cx="-220.85717"
     inkscape:cy="99.142871"
     inkscape:document-units="mm"
     inkscape:current-layer="layer1"
     showgrid="false"
     fit-margin-top="0"
     fit-margin-left="0"
     fit-margin-right="0"
     fit-margin-bottom="0"
     inkscape:pagecheckerboard="true"
     inkscape:window-width="1360"
     inkscape:window-height="706"
     inkscape:window-x="-8"
     inkscape:window-y="-8"
     inkscape:window-maximized="1" />
  <metadata
     id="metadata155">
    <rdf:RDF>
      <cc:Work
         rdf:about="">
        <dc:format>image/svg+xml</dc:format>
        <dc:type
           rdf:resource="http://purl.org/dc/dcmitype/StillImage" />
        <dc:title></dc:title>
      </cc:Work>
    </rdf:RDF>
  </metadata>
  <g
     inkscape:label="Layer 1"
     inkscape:groupmode="layer"
     id="layer1"
     transform="translate(2.3854551,-215.81477)">
    <g
       transform="matrix(0.26458333,0,0,0.26458333,-144.20212,177.71477)"
       id="g234">
      <g
         id="i19"
         class="top-level-node"
         transform="translate(536,144)">
        <g
           id="g96">
          <g
             id="g94">
            <circle
               cx="24"
               cy="24"
               r="24"
               id="circle92"
               style="fill:#cc291f" />
          </g>
        </g>
      </g>
      <g
         id="i36"
         class="top-level-node"
         transform="translate(544,152)">
        <g
           id="g219">
          <g
             id="g217">
            <g
               id="g215">
              <path
                 d="M 6.9,7 H 8 C 8.6,7 9,6.6 9,6.1 V 1.9 C 9,1.4 8.6,1 8.1,1 H 6.9 C 6.4,1 6,1.4 6,1.9 V 6 c 0,0.6 0.4,1 0.9,1 z"
                 id="path209"
                 inkscape:connector-curvature="0"
                 style="clip-rule:evenodd;fill:#ffffff;fill-rule:evenodd" />
              <path
                 d="M 31,6.9 C 30.9,5.3 29.6,4 27.9,4 H 27 V 6.1 C 27,7.1 26.2,8 25.1,8 H 23.9 C 22.9,8 22,7.2 22,6.1 V 4 H 10 V 6.1 C 10,7.2 9.2,8 8.1,8 H 6.9 C 5.8,8 5,7.2 5,6.1 V 4 H 4.1 C 2.4,4 1.1,5.3 1,6.9 1,6.9 1,7 1,7 V 7.1 10 30 c 0,0.6 0.4,1 1,1 h 28 c 0.6,0 1,-0.4 1,-1 V 10 7.1 6.9 c 0,0.1 0,0 0,0 z M 8,29 H 3 V 27 H 6 V 24 H 8 Z M 8,22 H 3 V 20 H 6 V 17 H 8 Z M 8,15 H 3 v -5 h 5 z m 7,14 h -5 v -2 h 3 v -3 h 2 z m 0,-7 h -5 v -2 h 3 v -3 h 2 z m 0,-7 h -5 v -5 h 5 z m 7,14 h -5 v -5 h 5 z m 0,-7 h -5 v -2 h 3 v -3 h 2 z m 0,-7 h -5 v -2 h 3 v -3 h 2 z m 7,14 h -5 v -5 h 5 z m 0,-7 h -5 v -2 h 3 v -3 h 2 z m 0,-7 h -5 v -2 h 3 v -3 h 2 z"
                 id="path211"
                 inkscape:connector-curvature="0"
                 style="clip-rule:evenodd;fill:#ffffff;fill-rule:evenodd" />
              <path
                 d="M 23.9,7 H 25 c 0.6,0 1,-0.4 1,-0.9 V 1.9 C 26,1.4 25.6,1 25.1,1 H 24 C 23.4,1 23,1.4 23,1.9 V 6 c 0,0.6 0.4,1 0.9,1 z"
                 id="path213"
                 inkscape:connector-curvature="0"
                 style="clip-rule:evenodd;fill:#ffffff;fill-rule:evenodd" />
            </g>
          </g>
        </g>
      </g>
    </g>
  </g>
</svg>
