<?xml version="1.0" encoding="UTF-8" standalone="no"?>
<!-- Created with Inkscape (http://www.inkscape.org/) -->

<svg
   xmlns:dc="http://purl.org/dc/elements/1.1/"
   xmlns:cc="http://creativecommons.org/ns#"
   xmlns:rdf="http://www.w3.org/1999/02/22-rdf-syntax-ns#"
   xmlns:svg="http://www.w3.org/2000/svg"
   xmlns="http://www.w3.org/2000/svg"
   xmlns:sodipodi="http://sodipodi.sourceforge.net/DTD/sodipodi-0.dtd"
   xmlns:inkscape="http://www.inkscape.org/namespaces/inkscape"
   width="12.7mm"
   height="12.7mm"
   viewBox="0 0 12.7 12.7"
   version="1.1"
   id="svg158"
   inkscape:version="0.92.2 (5c3e80d, 2017-08-06)"
   sodipodi:docname="114.svg">
  <defs
     id="defs152" />
  <sodipodi:namedview
     id="base"
     pagecolor="#ffffff"
     bordercolor="#666666"
     borderopacity="1.0"
     inkscape:pageopacity="0.0"
     inkscape:pageshadow="2"
     inkscape:zoom="0.7"
     inkscape:cx="110.85715"
     inkscape:cy="222.28572"
     inkscape:document-units="mm"
     inkscape:current-layer="layer1"
     showgrid="false"
     fit-margin-top="0"
     fit-margin-left="0"
     fit-margin-right="0"
     fit-margin-bottom="0"
     inkscape:pagecheckerboard="true"
     inkscape:window-width="1360"
     inkscape:window-height="706"
     inkscape:window-x="-8"
     inkscape:window-y="-8"
     inkscape:window-maximized="1" />
  <metadata
     id="metadata155">
    <rdf:RDF>
      <cc:Work
         rdf:about="">
        <dc:format>image/svg+xml</dc:format>
        <dc:type
           rdf:resource="http://purl.org/dc/dcmitype/StillImage" />
        <dc:title></dc:title>
      </cc:Work>
    </rdf:RDF>
  </metadata>
  <g
     inkscape:label="Layer 1"
     inkscape:groupmode="layer"
     id="layer1"
     transform="translate(90.151537,-248.39632)">
    <g
       transform="matrix(0.26458333,0,0,0.26458333,-138.83487,191.24632)"
       id="g307">
      <g
         id="i20"
         class="top-level-node"
         transform="translate(184,216)">
        <g
           id="g103">
          <g
             id="g101">
            <circle
               cx="24"
               cy="24"
               r="24"
               id="circle99"
               style="fill:#cc291f" />
          </g>
        </g>
      </g>
      <g
         id="i37"
         class="top-level-node"
         transform="translate(192,224)">
        <g
           id="g226">
          <g
             id="g224">
            <path
               d="M 30.5,11 C 30.8,11 31,10.8 31,10.5 V 10 h 1 V 9 L 16.7,1.1 c -0.5,-0.2 -1,-0.2 -1.5,0 L 0,9 v 1 h 1 v 0.5 C 1,10.8 1.2,11 1.5,11 H 2 V 27 H 1.5 C 1.2,27 1,27.2 1,27.5 V 29 H 0.5 C 0.2,29 0,29.2 0,29.5 v 1 C 0,30.8 0.2,31 0.5,31 h 31 c 0.3,0 0.5,-0.2 0.5,-0.5 v -1 C 32,29.2 31.8,29 31.5,29 H 31 V 27.5 C 31,27.2 30.8,27 30.5,27 H 30 V 11 Z M 17,10 v 0.5 c 0,0.3 0.2,0.5 0.5,0.5 H 18 V 27 H 14 V 11 h 0.5 C 14.8,11 15,10.8 15,10.5 V 10 Z M 6,11 H 6.5 C 6.8,11 7,10.8 7,10.5 V 10 h 2 v 0.5 C 9,10.8 9.2,11 9.5,11 H 10 V 27 H 6 Z M 22,27 V 11 h 0.5 C 22.8,11 23,10.8 23,10.5 V 10 h 2 v 0.5 c 0,0.3 0.2,0.5 0.5,0.5 H 26 v 16 z"
               id="path222"
               inkscape:connector-curvature="0"
               style="fill:#ffffff" />
          </g>
        </g>
      </g>
    </g>
  </g>
</svg>
