<?xml version="1.0" encoding="UTF-8" standalone="no"?>
<!-- Created with Inkscape (http://www.inkscape.org/) -->

<svg
   xmlns:dc="http://purl.org/dc/elements/1.1/"
   xmlns:cc="http://creativecommons.org/ns#"
   xmlns:rdf="http://www.w3.org/1999/02/22-rdf-syntax-ns#"
   xmlns:svg="http://www.w3.org/2000/svg"
   xmlns="http://www.w3.org/2000/svg"
   xmlns:sodipodi="http://sodipodi.sourceforge.net/DTD/sodipodi-0.dtd"
   xmlns:inkscape="http://www.inkscape.org/namespaces/inkscape"
   width="31.149054mm"
   height="68.516731mm"
   viewBox="0 0 31.149054 68.516731"
   version="1.1"
   id="svg205550"
   inkscape:version="0.92.3 (2405546, 2018-03-11)"
   sodipodi:docname="plants-14.svg">
  <defs
     id="defs205544">
    <clipPath
       clipPathUnits="userSpaceOnUse"
       id="clipPath113469">
      <path
         d="m 891.251,2907.74 h 27.027 v -14.31 h -27.027 z"
         id="path113467"
         inkscape:connector-curvature="0" />
    </clipPath>
    <clipPath
       clipPathUnits="userSpaceOnUse"
       id="clipPath113377">
      <path
         d="m 835.991,2815.533 c -0.017,-6.293 4.232,-12.587 12.688,-17.305 v 0 c 16.444,-9.168 42.555,-8.903 58.328,0.588 v 0 c 7.658,4.608 11.466,10.54 11.484,16.477 v 0 c 0.002,1.814 0.011,3.629 0.018,5.444 v 0 c -0.019,-5.937 -3.83,-11.87 -11.485,-16.48 v 0 c -15.775,-9.494 -41.886,-9.758 -58.328,-0.587 v 0 c -8.459,4.714 -12.71,11.01 -12.689,17.305 v 0 z"
         id="path113375"
         inkscape:connector-curvature="0" />
    </clipPath>
    <clipPath
       clipPathUnits="userSpaceOnUse"
       id="clipPath113361">
      <path
         d="M 0,3189 H 2006.732 V 0 H 0 Z"
         id="path113359"
         inkscape:connector-curvature="0" />
    </clipPath>
    <clipPath
       clipPathUnits="userSpaceOnUse"
       id="clipPath113349">
      <path
         d="m 855.443,2766.866 c 0.912,-2.4 3.017,-4.676 6.307,-6.513 v 0 c 8.843,-4.93 22.887,-4.789 31.371,0.32 v 0 c 2.911,1.749 4.787,3.856 5.644,6.073 v 0 c 5.357,13.887 10.717,27.776 16.073,41.666 v 0 c -1.48,-3.842 -4.743,-7.503 -9.798,-10.546 v 0 c -14.73,-8.864 -39.125,-9.114 -54.482,-0.552 v 0 c -5.714,3.186 -9.376,7.144 -10.956,11.314 v 0 c 5.28,-13.92 10.563,-27.84 15.841,-41.762"
         id="path113347"
         inkscape:connector-curvature="0" />
    </clipPath>
  </defs>
  <sodipodi:namedview
     id="base"
     pagecolor="#ffffff"
     bordercolor="#666666"
     borderopacity="1.0"
     inkscape:pageopacity="0.0"
     inkscape:pageshadow="2"
     inkscape:zoom="0.35"
     inkscape:cx="283.15007"
     inkscape:cy="-10.519562"
     inkscape:document-units="mm"
     inkscape:current-layer="layer1"
     showgrid="false"
     fit-margin-top="0"
     fit-margin-left="0"
     fit-margin-right="0"
     fit-margin-bottom="0"
     inkscape:window-width="1366"
     inkscape:window-height="716"
     inkscape:window-x="-8"
     inkscape:window-y="-8"
     inkscape:window-maximized="1" />
  <metadata
     id="metadata205547">
    <rdf:RDF>
      <cc:Work
         rdf:about="">
        <dc:format>image/svg+xml</dc:format>
        <dc:type
           rdf:resource="http://purl.org/dc/dcmitype/StillImage" />
        <dc:title></dc:title>
      </cc:Work>
    </rdf:RDF>
  </metadata>
  <g
     inkscape:label="Layer 1"
     inkscape:groupmode="layer"
     id="layer1"
     transform="translate(-17.687378,-77.5333)">
    <g
       id="g113331"
       transform="matrix(0.35277777,0,0,-0.35277777,17.69681,124.35146)">
      <path
         d="m 0,0 c 0.003,0.953 0.008,1.903 0.011,2.721 0.017,5.938 3.827,11.87 11.483,16.476 15.772,9.495 41.885,9.761 58.326,0.592 C 78.279,15.073 82.53,8.775 82.513,2.482 L 82.495,-2.961 C 82.508,1.368 80.5,5.695 76.501,9.51 74.68,11.246 72.447,12.875 69.803,14.348 53.363,23.514 27.25,23.25 11.478,13.759 3.821,9.153 0.011,3.215 -0.006,-2.721 Z"
         style="fill:#934900;fill-opacity:1;fill-rule:nonzero;stroke:none"
         id="path113333"
         inkscape:connector-curvature="0" />
    </g>
    <g
       id="g113335"
       transform="matrix(0.35277777,0,0,-0.35277777,22.436238,120.60475)">
      <path
         d="m 0,0 c 14.73,8.869 39.123,9.114 54.48,0.552 10.089,-5.624 13.769,-13.655 10.927,-21.014 -5.356,-13.891 -10.716,-27.78 -16.073,-41.667 1.634,4.233 -0.483,8.858 -6.294,12.095 -8.842,4.93 -22.886,4.789 -31.371,-0.317 -5.326,-3.206 -7.196,-7.607 -5.658,-11.658 -5.277,13.923 -10.56,27.842 -15.84,41.762 C -12.496,-13.21 -9.252,-5.567 0,0"
         style="fill:#934900;fill-opacity:1;fill-rule:nonzero;stroke:none"
         id="path113337"
         inkscape:connector-curvature="0" />
    </g>
    <g
       id="g113339"
       transform="matrix(0.35277777,0,0,-0.35277777,23.817189,122.27649)">
      <path
         d="m 0,0 c -12.688,-7.638 -12.251,-19.801 0.972,-27.175 13.221,-7.37 34.221,-7.16 46.911,0.477 12.684,7.632 12.25,19.801 -0.976,27.169 C 33.687,7.848 12.684,7.634 0,0"
         style="fill:#512803;fill-opacity:1;fill-rule:nonzero;stroke:none"
         id="path113341"
         inkscape:connector-curvature="0" />
    </g>
    <g
       id="g113343"
       transform="matrix(0.35277777,0,0,-0.35277777,-277.22421,1118.569)">
      <g
         id="g113345"
         clip-path="url(#clipPath113349)">
        <g
           id="g113351"
           transform="translate(898.7656,2766.7456)">
          <path
             d="M 0,0 16.073,41.667 C 14.592,37.825 11.33,34.163 6.274,31.121 c -14.73,-8.865 -39.125,-9.114 -54.482,-0.552 -5.714,3.185 -9.375,7.144 -10.956,11.314 L -43.323,0.121 c 0.913,-2.4 3.017,-4.677 6.307,-6.514 8.844,-4.929 22.887,-4.788 31.372,0.32 2.91,1.75 4.787,3.856 5.644,6.073"
             style="fill:#934900;fill-opacity:1;fill-rule:nonzero;stroke:none"
             id="path113353"
             inkscape:connector-curvature="0" />
        </g>
      </g>
    </g>
    <g
       id="g113355"
       transform="matrix(0.35277777,0,0,-0.35277777,-277.22421,1118.569)">
      <g
         id="g113357"
         clip-path="url(#clipPath113361)">
        <g
           id="g113363"
           transform="translate(850.5581,2797.3145)">
          <path
             d="m 0,0 c -15.356,8.561 -15.863,22.694 -1.127,31.561 14.731,8.868 39.123,9.113 54.48,0.551 C 68.711,23.547 69.216,9.419 54.482,0.552 39.751,-8.313 15.357,-8.562 0,0 M 9.778,-4.664 C 35.564,-11.648 67.496,-1.366 67.933,17.979 67.951,24.275 63.701,30.57 55.242,35.288 38.801,44.454 12.688,44.19 -3.084,34.699 -23.548,22.384 -15.145,2.044 9.778,-4.664"
             style="fill:#773800;fill-opacity:1;fill-rule:nonzero;stroke:none"
             id="path113365"
             inkscape:connector-curvature="0" />
        </g>
        <g
           id="g113367"
           transform="translate(849.2407,2838.4429)">
          <path
             d="M 0,0 C 15.774,8.443 40.336,8.432 56.196,-0.199 70.292,-8.866 70.338,-22.488 55.976,-31.131 41.163,-40.043 16.642,-40.292 1.204,-31.685 -14.211,-23.088 -14.741,-8.916 0,0 m -0.544,-34.773 c 16.44,-9.17 42.552,-8.907 58.328,0.587 9.109,5.483 14.508,14.111 9.794,23.688 -0.009,0.023 -0.023,0.044 -0.033,0.069 -0.007,0.012 -0.011,0.031 -0.019,0.046 C 65.143,-5.076 57.553,1.894 44.94,5.171 33.45,8.255 21.23,8.002 10.956,5.2 -14.139,-1.359 -22.531,-22.513 -0.544,-34.773"
             style="fill:#c66a17;fill-opacity:1;fill-rule:nonzero;stroke:none"
             id="path113369"
             inkscape:connector-curvature="0" />
        </g>
      </g>
    </g>
    <g
       id="g113371"
       transform="matrix(0.35277777,0,0,-0.35277777,-277.22421,1118.569)">
      <g
         id="g113373"
         clip-path="url(#clipPath113377)">
        <g
           id="g113379"
           transform="translate(918.4912,2815.293)">
          <path
             d="m 0,0 0.018,5.444 c -0.02,-5.936 -3.831,-11.87 -11.484,-16.48 -15.776,-9.494 -41.888,-9.757 -58.328,-0.587 -8.46,4.715 -12.711,11.01 -12.69,17.305 L -82.5,0.24 c -0.018,-6.293 4.231,-12.588 12.688,-17.305 16.444,-9.168 42.555,-8.903 58.329,0.589 C -3.827,-11.868 -0.018,-5.937 0,0"
             style="fill:#934900;fill-opacity:1;fill-rule:nonzero;stroke:none"
             id="path113381"
             inkscape:connector-curvature="0" />
        </g>
      </g>
    </g>
    <g
       id="g113391"
       transform="matrix(0.35277777,0,0,-0.35277777,33.969354,117.20443)">
      <path
         d="m 0,0 c -0.812,4.83 -1.779,13.149 -1.822,27.452 l -2.163,0.039 C -4.5,15.021 -4.806,1.412 -5.427,-4.035 c -0.962,-8.429 -2.364,-25.106 -2.364,-25.106 5.612,-0.96 10.465,-1.581 12.666,1.968 0,0 -3.505,19.022 -4.875,27.173"
         style="fill:#029b1b;fill-opacity:1;fill-rule:nonzero;stroke:none"
         id="path113393"
         inkscape:connector-curvature="0" />
    </g>
    <g
       id="g113395"
       transform="matrix(0.35277777,0,0,-0.35277777,32.05476,118.62778)">
      <path
         d="m 0,0 c 0.621,5.446 0.928,19.056 1.442,31.526 l -1.666,0.033 C -0.862,21.148 -1.528,10.598 -2.839,5.789 c -1.342,-5.567 -6.422,-26.532 -8.754,-27.217 -0.038,-1.177 9.229,-3.678 9.229,-3.678 0,0 1.403,16.677 2.364,25.106"
         style="fill:#028715;fill-opacity:1;fill-rule:nonzero;stroke:none"
         id="path113397"
         inkscape:connector-curvature="0" />
    </g>
    <g
       id="g113399"
       transform="matrix(0.35277777,0,0,-0.35277777,31.754511,83.03875)">
      <path
         d="M 0,0 C 2.27,-7.094 6.712,-9.602 7.094,-14.882 7.945,-26.673 5.529,-33.892 3.546,-50.227 2.979,-54.884 2.601,-61.918 2.293,-69.356 l 2.164,-0.04 c -0.026,8.638 0.729,19.522 2.921,33.267 C 10.55,-16.225 13.748,-8.23 8.999,0 5.394,6.258 6.002,12.015 6.127,14.419 6.127,14.346 6.123,14.277 6.119,14.203 3.521,11.978 -1.829,5.716 0,0"
         style="fill:#08c41f;fill-opacity:1;fill-rule:nonzero;stroke:none"
         id="path113401"
         inkscape:connector-curvature="0" />
    </g>
    <g
       id="g113403"
       transform="matrix(0.35277777,0,0,-0.35277777,33.897035,77.56035)">
      <path
         d="M 0,0 C 0.003,-0.004 0.008,-0.007 0.012,-0.013 0.008,-0.008 0.003,-0.004 0,0"
         style="fill:#029b1b;fill-opacity:1;fill-rule:nonzero;stroke:none"
         id="path113405"
         inkscape:connector-curvature="0" />
    </g>
    <g
       id="g113407"
       transform="matrix(0.35277777,0,0,-0.35277777,33.919083,77.64096)">
      <path
         d="M 0,0 C 0,-0.017 0.003,-0.031 0.006,-0.048 0.003,-0.031 0,-0.017 0,0"
         style="fill:#029b1b;fill-opacity:1;fill-rule:nonzero;stroke:none"
         id="path113409"
         inkscape:connector-curvature="0" />
    </g>
    <g
       id="g113411"
       transform="matrix(0.35277777,0,0,-0.35277777,32.505044,100.55843)">
      <path
         d="M 0,0 C -0.625,-5.139 -1.098,-12.366 -1.576,-19.659 L -1.5,-19.662 C -1.052,-12.366 -0.625,-5.133 0,0"
         style="fill:#029b1b;fill-opacity:1;fill-rule:nonzero;stroke:none"
         id="path113413"
         inkscape:connector-curvature="0" />
    </g>
    <g
       id="g113415"
       transform="matrix(0.35277777,0,0,-0.35277777,33.923213,77.77498)">
      <path
         d="M 0,0 V -0.104 Z"
         style="fill:#029b1b;fill-opacity:1;fill-rule:nonzero;stroke:none"
         id="path113417"
         inkscape:connector-curvature="0" />
    </g>
    <g
       id="g113419"
       transform="matrix(0.35277777,0,0,-0.35277777,33.90134,77.56483)">
      <path
         d="M 0,0 C 0.02,-0.05 0.037,-0.126 0.05,-0.216 0.037,-0.126 0.02,-0.05 0,0"
         style="fill:#028715;fill-opacity:1;fill-rule:nonzero;stroke:none"
         id="path113421"
         inkscape:connector-curvature="0" />
    </g>
    <g
       id="g113423"
       transform="matrix(0.35277777,0,0,-0.35277777,33.85689,77.5333)">
      <path
         d="M 0,0 C 0.051,0 0.084,-0.027 0.114,-0.077 0.084,-0.027 0.049,0 0,0"
         style="fill:#028715;fill-opacity:1;fill-rule:nonzero;stroke:none"
         id="path113425"
         inkscape:connector-curvature="0" />
    </g>
    <g
       id="g113427"
       transform="matrix(0.35277777,0,0,-0.35277777,33.921131,77.65783)">
      <path
         d="m 0,0 c 0.006,-0.095 0.006,-0.208 0.006,-0.332 0,0.124 0,0.237 -0.006,0.332"
         style="fill:#028715;fill-opacity:1;fill-rule:nonzero;stroke:none"
         id="path113429"
         inkscape:connector-curvature="0" />
    </g>
    <g
       id="g113431"
       transform="matrix(0.35277777,0,0,-0.35277777,33.923213,77.8115)">
      <path
         d="M 0,0 C -0.001,-0.121 -0.008,-0.255 -0.021,-0.398 -0.008,-0.255 -0.001,-0.123 0,0"
         style="fill:#028715;fill-opacity:1;fill-rule:nonzero;stroke:none"
         id="path113433"
         inkscape:connector-curvature="0" />
    </g>
    <g
       id="g113435"
       transform="matrix(0.35277777,0,0,-0.35277777,32.563429,107.50614)">
      <path
         d="m 0,0 c 0.308,7.438 0.686,14.473 1.253,19.13 1.983,16.335 4.399,23.554 3.548,35.345 -0.382,5.28 -4.824,7.787 -7.094,14.881 -1.829,5.716 3.522,11.978 6.119,14.204 0.004,0.074 0.008,0.143 0.008,0.215 0.012,0.143 0.02,0.278 0.02,0.399 v 0.103 c 0,0.125 0,0.237 -0.005,0.332 -0.003,0.017 -0.006,0.032 -0.006,0.048 -0.013,0.09 -0.03,0.166 -0.051,0.216 -0.003,0.006 -0.008,0.008 -0.012,0.013 -0.03,0.05 -0.062,0.076 -0.113,0.076 -0.854,0 -9.649,-7.945 -7.38,-15.037 C -1.442,62.829 2.998,60.324 3.383,55.042 4.234,43.25 1.821,36.033 -0.166,19.694 -0.79,14.562 -1.218,7.329 -1.666,0.033 Z"
         style="fill:#00930e;fill-opacity:1;fill-rule:nonzero;stroke:none"
         id="path113437"
         inkscape:connector-curvature="0" />
    </g>
    <g
       id="g113439"
       transform="matrix(0.35277777,0,0,-0.35277777,33.431403,100.63301)">
      <path
         d="M 0,0 C 0,0 1.352,-0.069 2.316,1.281 4.491,4.315 7.478,8.377 8.393,8.869 9.717,9.579 9.152,8.3 9.152,8.3 9.152,8.3 3.286,1.16 2.546,-1.206 2.016,-2.897 1.529,-4.271 0.314,-4.672 -0.943,-5.093 -0.923,-4.54 -0.923,-4.54 Z"
         style="fill:#00930e;fill-opacity:1;fill-rule:nonzero;stroke:none"
         id="path113441"
         inkscape:connector-curvature="0" />
    </g>
    <g
       id="g113443"
       transform="matrix(0.35277777,0,0,-0.35277777,38.42508,93.63309)">
      <path
         d="m 0,0 c 0,0 -8.739,-5.936 -8.433,-12.431 0.29,-6.215 5.415,-10.672 12.725,-8.54 7.308,2.133 18.58,13.305 24.827,12.636 C 32.318,-8.678 15.417,8.624 0,0"
         style="fill:#07ad17;fill-opacity:1;fill-rule:nonzero;stroke:none"
         id="path113445"
         inkscape:connector-curvature="0" />
    </g>
    <g
       id="g113447"
       transform="matrix(0.35277777,0,0,-0.35277777,34.524558,93.77074)">
      <path
         d="m 0,0 c 0,0 1.89,0.271 3.776,3.701 1.946,3.537 5.724,11.21 6.728,11.749 1.328,0.715 2.059,-1.06 2.059,-1.06 0,0 -5.838,-7.155 -6.603,-9.508 C 4.743,1.139 2.198,-2.501 0.709,-3.883 -0.266,-4.788 -0.922,-4.54 -0.922,-4.54 Z"
         style="fill:#00930e;fill-opacity:1;fill-rule:nonzero;stroke:none"
         id="path113449"
         inkscape:connector-curvature="0" />
    </g>
    <g
       id="g113451"
       transform="matrix(0.35277777,0,0,-0.35277777,33.229862,97.22754)">
      <path
         d="m 0,0 c 0,0 -1.955,2.105 -2.567,3.323 -1.844,3.663 -5.659,11.063 -6.65,11.598 -1.325,0.708 -2.059,-1.067 -2.059,-1.067 0,0 5.836,-7.148 6.604,-9.505 1.216,-3.741 0.917,-5.549 2.405,-6.935 0.971,-0.905 1.631,-0.656 1.631,-0.656 z"
         style="fill:#00930e;fill-opacity:1;fill-rule:nonzero;stroke:none"
         id="path113453"
         inkscape:connector-curvature="0" />
    </g>
    <g
       id="g113455"
       transform="matrix(0.35277777,0,0,-0.35277777,45.57331,93.77074)">
      <path
         d="M 0,0 C 0.403,-0.87 0.797,-1.756 1.188,-2.667 2.244,-5.135 2.879,-7.482 3.262,-9.39 5.355,-8.371 7.271,-7.773 8.856,-7.945 10.571,-8.13 6.511,-3.246 0,0"
         style="fill:#037f17;fill-opacity:1;fill-rule:nonzero;stroke:none"
         id="path113457"
         inkscape:connector-curvature="0" />
    </g>
    <g
       id="g113459"
       transform="matrix(0.35277777,0,0,-0.35277777,45.57331,93.77074)">
      <path
         d="m 0,0 c -5.637,2.81 -13.111,4.394 -20.263,0.39 0,0 -1.656,-1.127 -3.502,-2.932 1.353,-2.379 3.618,-4.407 6.652,-5.42 4.932,-1.642 11.696,-1.874 16.609,-3.545 1.295,0.801 2.559,1.529 3.766,2.117 C 2.879,-7.482 2.244,-5.135 1.188,-2.667 0.797,-1.756 0.403,-0.87 0,0"
         style="fill:#037f17;fill-opacity:1;fill-rule:nonzero;stroke:none"
         id="path113461"
         inkscape:connector-curvature="0" />
    </g>
    <g
       id="g113463"
       transform="matrix(0.35277777,0,0,-0.35277777,-277.22421,1118.569)">
      <g
         id="g113465" />
      <g
         id="g113477">
        <g
           clip-path="url(#clipPath113469)"
           id="g113475"
           style="opacity:0.19999701">
          <g
             transform="translate(915.0166,2904.9399)"
             id="g113473">
            <path
               d="m 0,0 c -5.637,2.81 -13.111,4.394 -20.263,0.39 0,0 -1.656,-1.127 -3.502,-2.932 1.353,-2.379 3.618,-4.407 6.652,-5.42 4.932,-1.642 11.696,-1.874 16.609,-3.545 1.295,0.801 2.559,1.529 3.766,2.117 C 2.879,-7.482 2.244,-5.135 1.188,-2.667 0.797,-1.756 0.403,-0.87 0,0"
               style="fill:#231f20;fill-opacity:1;fill-rule:nonzero;stroke:none"
               id="path113471"
               inkscape:connector-curvature="0" />
          </g>
        </g>
      </g>
    </g>
    <g
       id="g113479"
       transform="matrix(0.35277777,0,0,-0.35277777,36.952303,89.51518)">
      <path
         d="m 0,0 c -2.31,-5.012 0.663,-12.127 7.325,-14.351 6.662,-2.216 16.675,-1.861 20.946,-5.961 0,0 -0.083,5.281 -2.646,11.259 C 23.062,-3.074 20.364,2.194 15.465,4.74 9.704,7.737 3.578,7.752 0,0"
         style="fill:#08c41f;fill-opacity:1;fill-rule:nonzero;stroke:none"
         id="path113481"
         inkscape:connector-curvature="0" />
    </g>
    <g
       id="g113483"
       transform="matrix(0.35277777,0,0,-0.35277777,46.919298,96.52837)">
      <path
         d="m 0,0 c -3.276,4.081 -12.941,3.68 -18.504,5.529 -6.66,2.223 -9.69,9.719 -7.322,14.011 0.838,1.517 4.255,1.388 5.022,1.172 1.183,-0.384 2.329,-0.863 3.276,-1.607 0.119,-0.093 0.233,-0.19 0.341,-0.29 0.119,-0.106 0.238,-0.21 0.343,-0.315 0.223,-0.212 0.443,-0.428 0.65,-0.654 0.414,-0.45 0.786,-0.932 1.115,-1.443 0.328,-0.517 0.61,-1.056 0.894,-1.631 0.285,-0.567 0.58,-1.158 0.932,-1.729 0.366,-0.565 0.785,-1.096 1.246,-1.58 0.465,-0.483 0.944,-0.913 1.446,-1.337 1.012,-0.83 2.11,-1.552 3.23,-2.181 1.11,-0.638 2.21,-1.254 3.204,-2.023 0.488,-0.372 0.901,-0.849 1.292,-1.35 0.386,-0.502 0.741,-1.029 1.067,-1.581 -0.243,0.594 -0.525,1.173 -0.858,1.725 -0.333,0.554 -0.718,1.09 -1.201,1.554 -0.48,0.441 -0.986,0.845 -1.514,1.23 -0.525,0.379 -1.067,0.728 -1.597,1.083 -0.532,0.351 -1.051,0.705 -1.561,1.073 -0.502,0.373 -0.987,0.765 -1.452,1.181 -0.462,0.417 -0.928,0.851 -1.339,1.299 -0.412,0.451 -0.774,0.934 -1.09,1.453 -0.649,1.021 -1.093,2.242 -1.836,3.37 -0.369,0.563 -0.796,1.086 -1.255,1.565 -0.23,0.241 -0.469,0.474 -0.715,0.694 -0.126,0.112 -0.25,0.218 -0.375,0.322 -0.13,0.106 -0.266,0.211 -0.402,0.313 -1.096,0.803 -2.34,1.318 -3.6,1.679 -0.602,0.17 -3.177,1.116 -1.931,2.966 0.898,1.329 2.237,1.8 4.325,1.907 -3.94,0.471 -7.618,-1.181 -10.084,-6.525 -2.31,-5.012 0.663,-12.128 7.325,-14.351 6.662,-2.216 16.675,-1.862 20.946,-5.961 z"
         style="fill:#00930e;fill-opacity:1;fill-rule:nonzero;stroke:none"
         id="path113485"
         inkscape:connector-curvature="0" />
    </g>
    <g
       id="g113487"
       transform="matrix(0.35277777,0,0,-0.35277777,21.694664,92.85779)">
      <path
         d="m 0,0 c 0,0 7.586,7.661 16.455,6.456 8.868,-1.207 12.852,-6.387 8.808,-12.935 -4.042,-6.551 -20.29,-6.692 -25.824,-10.239 -5.533,-3.55 -7.166,-5.889 -7.166,-5.889 0,0 0.133,15.515 7.727,22.607"
         style="fill:#08c41f;fill-opacity:1;fill-rule:nonzero;stroke:none"
         id="path113489"
         inkscape:connector-curvature="0" />
    </g>
    <g
       id="g113491"
       transform="matrix(0.35277777,0,0,-0.35277777,24.930979,111.78752)">
      <path
         d="m 0,0 c 1.376,3.462 2.879,6.87 4.421,10.26 1.521,3.337 3.084,6.687 4.849,9.904 0.854,1.574 1.797,3.078 2.874,4.506 1.029,1.378 2.147,2.752 3.491,3.842 1.243,1.005 2.844,1.638 4.377,0.884 1.413,-0.691 2.108,-2.322 2.644,-3.705 0.331,-0.848 0.635,-1.737 0.868,-2.621 -0.991,-0.056 -1.981,-0.111 -2.973,-0.164 0.23,0.764 0.161,1.679 0.079,2.46 -0.105,0.79 -0.304,1.635 -0.794,2.278 -1.123,1.486 -2.981,0.285 -3.989,-0.665 -1.233,-1.167 -2.25,-2.577 -3.193,-3.984 C 11.655,21.499 10.795,19.903 9.911,18.335 7.68,14.367 5.537,10.357 3.39,6.341 2.26,4.23 1.126,2.115 0,0 0.66,1.667 0,0 0,0"
         style="fill:#017a0a;fill-opacity:1;fill-rule:nonzero;stroke:none"
         id="path113493"
         inkscape:connector-curvature="0" />
    </g>
    <g
       id="g113495"
       transform="matrix(0.35277777,0,0,-0.35277777,27.499659,90.58039)">
      <path
         d="m 0,0 c -0.621,0.087 -1.233,0.116 -1.833,0.105 4.375,-0.913 6.801,-2.445 8.124,-4.906 0.9,-1.685 -0.853,-1.053 -1.328,-0.858 -0.036,0.015 -0.073,0.034 -0.109,0.047 -0.003,0.001 -0.008,0.001 -0.008,0.001 -0.197,0.075 -0.392,0.148 -0.597,0.212 -0.837,0.268 -1.727,0.402 -2.624,0.372 -0.896,-0.046 -1.733,-0.194 -2.578,-0.44 -0.837,-0.247 -1.64,-0.619 -2.382,-1.057 -1.49,-0.878 -2.733,-1.982 -4.015,-2.993 -1.274,-1.019 -2.566,-2.003 -3.925,-2.885 -1.388,-0.899 -2.746,-1.88 -4.012,-2.953 -1.264,-1.072 -2.457,-2.244 -3.515,-3.519 -0.527,-0.641 -1.021,-1.309 -1.472,-2.001 -0.446,-0.694 -0.862,-1.421 -1.148,-2.193 0.776,1.45 1.827,2.717 2.964,3.887 1.131,1.167 2.366,2.234 3.662,3.218 1.296,0.982 2.652,1.874 4.059,2.704 1.42,0.862 2.792,1.814 4.103,2.823 1.316,0.998 2.584,2.04 3.929,2.829 0.68,0.392 1.381,0.703 2.119,0.93 0.365,0.114 0.743,0.205 1.124,0.276 0.381,0.07 0.773,0.135 1.141,0.153 1.17,0.067 2.354,-0.215 3.462,-0.716 0.788,-0.404 2.117,-1.389 1.536,-3.279 -0.232,-0.76 -0.635,-1.532 -1.131,-2.335 -4.046,-6.551 -16.731,-5.903 -23.008,-9.992 -1.476,-0.967 -6.229,-4.463 -6.677,-5.33 l -0.043,-1.163 c 0,0 1.633,2.339 7.166,5.889 5.534,3.547 21.782,3.688 25.824,10.239 C 12.852,-6.387 8.868,-1.207 0,0"
         style="fill:#00930e;fill-opacity:1;fill-rule:nonzero;stroke:none"
         id="path113497"
         inkscape:connector-curvature="0" />
    </g>
    <g
       id="g113499"
       transform="matrix(0.35277777,0,0,-0.35277777,30.415931,102.22188)">
      <path
         d="m 0,0 c 0,0 -4.057,7.414 -11.438,4.481 -7.375,-2.933 -9.338,-14.257 -8.865,-22.204 0.474,-7.945 1.042,-12.962 1.042,-12.962 0,0 14.348,4.554 18.823,7.098 4.475,2.543 15.722,7.875 12.814,17.097 C 10.453,-0.388 2.89,0.459 0,0"
         style="fill:#07ad17;fill-opacity:1;fill-rule:nonzero;stroke:none"
         id="path113501"
         inkscape:connector-curvature="0" />
    </g>
    <g
       id="g113503"
       transform="matrix(0.35277777,0,0,-0.35277777,26.030656,109.38356)">
      <path
         d="m 0,0 c 0,0 -1.886,5.107 -2.362,13.053 -0.216,3.63 -0.369,7.947 3.125,11.625 -7.182,-3.076 -9.102,-14.24 -8.635,-22.1 0.474,-7.946 1.041,-12.962 1.041,-12.962 0,0 14.349,4.553 18.824,7.098 3.88,2.2 12.852,6.507 13.273,13.624 C 24.029,7.526 21.604,6.125 20.149,5.299 15.677,2.754 0,0 0,0"
         style="fill:#017a0a;fill-opacity:1;fill-rule:nonzero;stroke:none"
         id="path113505"
         inkscape:connector-curvature="0" />
    </g>
    <g
       id="g113507"
       transform="matrix(0.35277777,0,0,-0.35277777,24.966115,111.6952)">
      <path
         d="M 0,0 C 0.02,0.047 0.037,0.094 0.051,0.131 0.037,0.087 0.017,0.043 0,0"
         style="fill:#016610;fill-opacity:1;fill-rule:nonzero;stroke:none"
         id="path113509"
         inkscape:connector-curvature="0" />
    </g>
    <g
       id="g113511"
       transform="matrix(0.35277777,0,0,-0.35277777,24.930979,111.78752)">
      <path
         d="M 0,0 C 0,0 0.006,0.025 0.021,0.058 0.012,0.04 0.006,0.025 0,0"
         style="fill:#016610;fill-opacity:1;fill-rule:nonzero;stroke:none"
         id="path113513"
         inkscape:connector-curvature="0" />
    </g>
    <g
       id="g113515"
       transform="matrix(0.35277777,0,0,-0.35277777,24.946147,111.74653)">
      <path
         d="M 0,0 C 0.017,0.04 0.039,0.092 0.057,0.146 0.042,0.1 0.021,0.05 0,0"
         style="fill:#016610;fill-opacity:1;fill-rule:nonzero;stroke:none"
         id="path113517"
         inkscape:connector-curvature="0" />
    </g>
    <g
       id="g113519"
       transform="matrix(0.35277777,0,0,-0.35277777,24.98421,111.64906)">
      <path
         d="M 0,0 C 0.017,0.04 0.036,0.077 0.047,0.114 0.036,0.079 0.021,0.043 0,0"
         style="fill:#016610;fill-opacity:1;fill-rule:nonzero;stroke:none"
         id="path113521"
         inkscape:connector-curvature="0" />
    </g>
    <g
       id="g113523"
       transform="matrix(0.35277777,0,0,-0.35277777,25.000757,111.60891)">
      <path
         d="M 0,0 C 0.026,0.058 0.043,0.104 0.058,0.137 0.043,0.1 0.023,0.052 0,0"
         style="fill:#016610;fill-opacity:1;fill-rule:nonzero;stroke:none"
         id="path113525"
         inkscape:connector-curvature="0" />
    </g>
    <g
       id="g113527"
       transform="matrix(0.35277777,0,0,-0.35277777,24.938562,111.76703)">
      <path
         d="M 0,0 C 0.006,0.021 0.015,0.038 0.021,0.058 0.01,0.035 0.006,0.017 0,0"
         style="fill:#016610;fill-opacity:1;fill-rule:nonzero;stroke:none"
         id="path113529"
         inkscape:connector-curvature="0" />
    </g>
    <g
       id="g113531"
       transform="matrix(0.35277777,0,0,-0.35277777,30.446763,101.72905)">
      <path
         d="m 0,0 c -1.345,-1.09 -2.462,-2.464 -3.492,-3.842 -1.076,-1.429 -2.019,-2.932 -2.874,-4.506 -1.764,-3.217 -3.327,-6.567 -4.848,-9.904 -1.542,-3.39 -3.045,-6.798 -4.421,-10.26 1.126,2.115 2.26,4.23 3.389,6.341 2.148,4.016 4.291,8.026 6.522,11.994 0.884,1.568 1.744,3.163 2.743,4.66 0.942,1.407 1.96,2.816 3.193,3.983 0.427,0.402 1.007,0.845 1.615,1.117 L 1.205,0.771 C 0.778,0.568 0.374,0.299 0,0"
         style="fill:#017a0a;fill-opacity:1;fill-rule:nonzero;stroke:none"
         id="path113533"
         inkscape:connector-curvature="0" />
    </g>
    <g
       id="g113535"
       transform="matrix(0.35277777,0,0,-0.35277777,25.033319,111.5283)">
      <path
         d="M 0,0 C 0.002,0.006 0.002,0.006 0,0"
         style="fill:#016610;fill-opacity:1;fill-rule:nonzero;stroke:none"
         id="path113537"
         inkscape:connector-curvature="0" />
    </g>
    <g
       id="g113539"
       transform="matrix(0.35277777,0,0,-0.35277777,25.022276,111.5531)">
      <path
         d="M 0,0 C 0.013,0.024 0.019,0.043 0.028,0.056 0.019,0.042 0.013,0.023 0,0"
         style="fill:#016610;fill-opacity:1;fill-rule:nonzero;stroke:none"
         id="path113541"
         inkscape:connector-curvature="0" />
    </g>
    <g
       id="g113543"
       transform="matrix(0.35277777,0,0,-0.35277777,25.021077,111.56051)">
      <path
         d="M 0,0 C 0,0.006 0,0.014 0.003,0.021 0,0.014 0,0.006 0,0"
         style="fill:#016610;fill-opacity:1;fill-rule:nonzero;stroke:none"
         id="path113545"
         inkscape:connector-curvature="0" />
    </g>
    <g
       id="g113547"
       transform="matrix(0.35277777,0,0,-0.35277777,25.032118,111.53345)">
      <path
         d="M 0,0 C 0,0.007 0.002,0.013 0.003,0.015 0.002,0.013 0,0.007 0,0"
         style="fill:#016610;fill-opacity:1;fill-rule:nonzero;stroke:none"
         id="path113549"
         inkscape:connector-curvature="0" />
    </g>
  </g>
</svg>
