<?xml version="1.0" encoding="UTF-8" standalone="no"?>
<!-- Created with Inkscape (http://www.inkscape.org/) -->

<svg
   xmlns:dc="http://purl.org/dc/elements/1.1/"
   xmlns:cc="http://creativecommons.org/ns#"
   xmlns:rdf="http://www.w3.org/1999/02/22-rdf-syntax-ns#"
   xmlns:svg="http://www.w3.org/2000/svg"
   xmlns="http://www.w3.org/2000/svg"
   xmlns:sodipodi="http://sodipodi.sourceforge.net/DTD/sodipodi-0.dtd"
   xmlns:inkscape="http://www.inkscape.org/namespaces/inkscape"
   width="38.483238mm"
   height="75.033752mm"
   viewBox="0 0 38.483238 75.033752"
   version="1.1"
   id="svg281478"
   inkscape:version="0.92.3 (2405546, 2018-03-11)"
   sodipodi:docname="plants-3.svg">
  <defs
     id="defs281472" />
  <sodipodi:namedview
     id="base"
     pagecolor="#ffffff"
     bordercolor="#666666"
     borderopacity="1.0"
     inkscape:pageopacity="0.0"
     inkscape:pageshadow="2"
     inkscape:zoom="0.35"
     inkscape:cx="82.724228"
     inkscape:cy="336.08178"
     inkscape:document-units="mm"
     inkscape:current-layer="layer1"
     showgrid="false"
     fit-margin-top="0"
     fit-margin-left="0"
     fit-margin-right="0"
     fit-margin-bottom="0"
     inkscape:window-width="1366"
     inkscape:window-height="716"
     inkscape:window-x="-8"
     inkscape:window-y="-8"
     inkscape:window-maximized="1" />
  <metadata
     id="metadata281475">
    <rdf:RDF>
      <cc:Work
         rdf:about="">
        <dc:format>image/svg+xml</dc:format>
        <dc:type
           rdf:resource="http://purl.org/dc/dcmitype/StillImage" />
        <dc:title></dc:title>
      </cc:Work>
    </rdf:RDF>
  </metadata>
  <g
     inkscape:label="Layer 1"
     inkscape:groupmode="layer"
     id="layer1"
     transform="translate(99.372571,-162.72122)">
    <g
       id="g70355"
       transform="matrix(0.35277777,0,0,-0.35277777,-79.311105,208.30208)">
      <path
         d="m 0,0 -8.494,8.636 c -2.551,2.548 -5.78,5.804 -5.504,15.195 v 38.243 h -1.419 V 22.216 c 0,-8.989 2.253,-12.029 6.155,-15.924 5.712,-5.687 7.173,-7.888 9.68,-10.395 v 3.086 z"
         style="fill:#876d33;fill-opacity:1;fill-rule:nonzero;stroke:none"
         id="path70357"
         inkscape:connector-curvature="0" />
    </g>
    <path
       d="m -80.131158,191.23876 h 3.04059 v 46.51621 h -3.04059 z"
       style="fill:#876d33;fill-opacity:1;fill-rule:nonzero;stroke:none;stroke-width:0.35277778"
       id="path70359"
       inkscape:connector-curvature="0" />
    <g
       id="g70361"
       transform="matrix(0.35277777,0,0,-0.35277777,-77.16962,211.93083)">
      <path
         d="M 0,0 V 0 C 2.898,2.898 4.54,6.847 4.54,10.945 V 59.572 H 6.758 V 9.707 C 6.758,3.261 4.174,-2.969 -0.386,-7.53 Z"
         style="fill:#876d33;fill-opacity:1;fill-rule:nonzero;stroke:none"
         id="path70363"
         inkscape:connector-curvature="0" />
    </g>
    <g
       id="g70365"
       transform="matrix(0.35277777,0,0,-0.35277777,-74.753419,199.97184)">
      <path
         d="m 0,0 6.078,6.184 c 1.825,1.821 4.14,4.149 3.943,10.879 v 27.381 h 1.015 V 15.907 C 11.036,9.469 9.424,7.289 6.629,4.503 2.537,0.438 1.493,-1.143 -0.304,-2.935 v 2.201 z"
         style="fill:#c4b08d;fill-opacity:1;fill-rule:nonzero;stroke:none"
         id="path70367"
         inkscape:connector-curvature="0" />
    </g>
    <g
       id="g70369"
       transform="matrix(0.35277777,0,0,-0.35277777,-75.603816,185.63731)">
      <path
         d="m 0,0 c 0,-18.609 -15.082,-33.695 -33.69,-33.695 -18.606,0 -33.686,15.086 -33.686,33.695 0,18.601 15.08,33.683 33.686,33.683 C -15.082,33.683 0,18.601 0,0"
         style="fill:#427a06;fill-opacity:1;fill-rule:nonzero;stroke:none"
         id="path70371"
         inkscape:connector-curvature="0" />
    </g>
    <g
       id="g70373"
       transform="matrix(0.35277777,0,0,-0.35277777,-69.017333,170.37332)">
      <path
         d="m 0,0 c 0,-11.979 -9.71,-21.69 -21.691,-21.69 -11.976,0 -21.688,9.711 -21.688,21.69 0,11.976 9.712,21.691 21.688,21.691 C -9.71,21.691 0,11.976 0,0"
         style="fill:#427a06;fill-opacity:1;fill-rule:nonzero;stroke:none"
         id="path70375"
         inkscape:connector-curvature="0" />
    </g>
    <g
       id="g70377"
       transform="matrix(0.35277777,0,0,-0.35277777,-76.669558,172.1074)">
      <path
         d="m 0,0 c 0,-13.193 -10.691,-23.88 -23.883,-23.88 -13.188,0 -23.882,10.687 -23.882,23.88 0,13.192 10.694,23.883 23.882,23.883 C -10.691,23.883 0,13.192 0,0"
         style="fill:#427a06;fill-opacity:1;fill-rule:nonzero;stroke:none"
         id="path70379"
         inkscape:connector-curvature="0" />
    </g>
    <g
       id="g70381"
       transform="matrix(0.35277777,0,0,-0.35277777,-60.889333,180.66417)">
      <path
         d="m 0,0 c 0,-16.949 -13.751,-30.701 -30.708,-30.701 -16.964,0 -30.705,13.752 -30.705,30.701 0,16.958 13.741,30.706 30.705,30.706 C -13.751,30.706 0,16.958 0,0"
         style="fill:#427a06;fill-opacity:1;fill-rule:nonzero;stroke:none"
         id="path70383"
         inkscape:connector-curvature="0" />
    </g>
    <g
       id="g70385"
       transform="matrix(0.35277777,0,0,-0.35277777,-90.659426,183.16617)">
      <path
         d="m 0,0 v -38.728 c 2.762,-1.272 5.829,-1.993 9.067,-2.005 3.179,-11.392 13.503,-19.74 25.754,-19.74 14.774,0 26.765,12.155 26.765,27.149 v 1.772 c 6.064,2.335 10.37,8.219 10.37,15.103 v 9.986 c 4.247,0.442 7.883,2.932 9.915,6.463 z"
         style="fill:#427a06;fill-opacity:1;fill-rule:nonzero;stroke:none"
         id="path70387"
         inkscape:connector-curvature="0" />
    </g>
    <g
       id="g70389"
       transform="matrix(0.35277777,0,0,-0.35277777,-65.403918,177.95889)">
      <path
         d="m 0,0 c 0,13.805 -11.196,25.001 -25.003,25.001 -2.85,0 -5.587,-0.48 -8.139,-1.367 -2.842,6.5 -9.327,11.04 -16.865,11.04 -10.171,0 -18.411,-8.247 -18.411,-18.408 0,-0.359 0.013,-0.713 0.034,-1.067 -9.688,-3.358 -16.649,-12.555 -16.649,-23.38 0,-13.672 11.078,-24.747 24.742,-24.747 2.191,0 4.31,0.288 6.329,0.817 1.932,-7.059 8.374,-12.254 16.05,-12.254 6.762,0 12.58,4.032 15.184,9.823 0.062,-0.003 0.129,-0.008 0.19,-0.008 8.283,0 15.007,6.638 15.153,14.886 h 0.006 v 1.931 C -2.82,-13.206 0,-6.938 0,0"
         style="fill:#599b0d;fill-opacity:1;fill-rule:nonzero;stroke:none"
         id="path70391"
         inkscape:connector-curvature="0" />
    </g>
  </g>
</svg>
