<?xml version="1.0" encoding="UTF-8" standalone="no"?>
<!-- Created with Inkscape (http://www.inkscape.org/) -->

<svg
   xmlns:dc="http://purl.org/dc/elements/1.1/"
   xmlns:cc="http://creativecommons.org/ns#"
   xmlns:rdf="http://www.w3.org/1999/02/22-rdf-syntax-ns#"
   xmlns:svg="http://www.w3.org/2000/svg"
   xmlns="http://www.w3.org/2000/svg"
   xmlns:sodipodi="http://sodipodi.sourceforge.net/DTD/sodipodi-0.dtd"
   xmlns:inkscape="http://www.inkscape.org/namespaces/inkscape"
   width="26.809692mm"
   height="40.53447mm"
   viewBox="0 0 26.809692 40.53447"
   version="1.1"
   id="svg205606"
   inkscape:version="0.92.3 (2405546, 2018-03-11)"
   sodipodi:docname="plants-15.svg">
  <defs
     id="defs205600" />
  <sodipodi:namedview
     id="base"
     pagecolor="#ffffff"
     bordercolor="#666666"
     borderopacity="1.0"
     inkscape:pageopacity="0.0"
     inkscape:pageshadow="2"
     inkscape:zoom="0.35"
     inkscape:cx="-179.33602"
     inkscape:cy="-349.11371"
     inkscape:document-units="mm"
     inkscape:current-layer="layer1"
     showgrid="false"
     fit-margin-top="0"
     fit-margin-left="0"
     fit-margin-right="0"
     fit-margin-bottom="0"
     inkscape:window-width="1366"
     inkscape:window-height="716"
     inkscape:window-x="-8"
     inkscape:window-y="-8"
     inkscape:window-maximized="1" />
  <metadata
     id="metadata205603">
    <rdf:RDF>
      <cc:Work
         rdf:about="">
        <dc:format>image/svg+xml</dc:format>
        <dc:type
           rdf:resource="http://purl.org/dc/dcmitype/StillImage" />
        <dc:title></dc:title>
      </cc:Work>
    </rdf:RDF>
  </metadata>
  <g
     inkscape:label="Layer 1"
     inkscape:groupmode="layer"
     id="layer1"
     transform="translate(30.035798,-15.929195)">
    <g
       id="g113295"
       transform="matrix(0.35277777,0,0,-0.35277777,-4.2160356,49.361731)">
      <path
         d="m 0,0 c 0,0 -7.068,14.093 -22.339,14.875 -15.266,0.78 -31.446,2.281 -43.846,-6.779 -8.01,-5.854 -16.598,-24.272 20.127,-27.512 C -2.52,-23.26 6.989,-10.871 0,0"
         style="fill:#9b8075;fill-opacity:1;fill-rule:nonzero;stroke:none"
         id="path113297"
         inkscape:connector-curvature="0" />
    </g>
    <g
       id="g113299"
       transform="matrix(0.35277777,0,0,-0.35277777,-14.002834,30.037691)">
      <path
         d="m 0,0 c 0,0 1.647,0.235 3.284,3.215 1.688,3.073 4.975,9.742 5.847,10.209 1.151,0.618 1.79,-0.924 1.79,-0.924 0,0 -5.074,-6.212 -5.74,-8.26 C 4.124,0.991 1.912,-2.174 0.616,-3.375 -0.228,-4.16 -0.802,-3.945 -0.802,-3.945 Z"
         style="fill:#028715;fill-opacity:1;fill-rule:nonzero;stroke:none"
         id="path113301"
         inkscape:connector-curvature="0" />
    </g>
    <g
       id="g113303"
       transform="matrix(0.35277777,0,0,-0.35277777,-15.126289,33.041979)">
      <path
         d="m 0,0 c 0,0 -1.699,1.83 -2.229,2.888 -1.603,3.184 -4.921,9.614 -5.784,10.077 -1.15,0.617 -1.786,-0.925 -1.786,-0.925 0,0 5.07,-6.214 5.736,-8.261 1.058,-3.25 0.797,-4.821 2.092,-6.022 0.844,-0.787 1.417,-0.572 1.417,-0.572 z"
         style="fill:#028715;fill-opacity:1;fill-rule:nonzero;stroke:none"
         id="path113305"
         inkscape:connector-curvature="0" />
    </g>
    <g
       id="g113307"
       transform="matrix(0.35277777,0,0,-0.35277777,-19.370663,46.08358)">
      <path
         d="m 0,0 c 0,0 1.154,-4.423 8.443,-5.052 2.653,-0.23 6.17,0.653 8.081,3.737 0,0 -6.774,10.124 -1.718,41.838 2.757,17.297 5.536,24.241 1.412,31.394 -4.124,7.15 -1.905,13.56 -2.643,13.56 -0.741,0 -8.384,-6.906 -6.411,-13.067 1.971,-6.164 5.83,-8.341 6.164,-12.934 C 14.066,49.23 11.973,42.959 10.244,28.767 8.927,17.941 0,0 0,0"
         style="fill:#029b1b;fill-opacity:1;fill-rule:nonzero;stroke:none"
         id="path113309"
         inkscape:connector-curvature="0" />
    </g>
    <g
       id="g113311"
       transform="matrix(0.35277777,0,0,-0.35277777,-16.392019,47.86588)">
      <path
         d="m 0,0 c 0,0 1.719,22.498 3.034,33.329 1.727,14.191 3.82,20.462 3.079,30.706 -0.329,4.592 -4.187,6.771 -6.162,12.934 -1.588,4.965 3.061,10.409 5.318,12.338 0.044,0.781 0.053,1.222 -0.137,1.222 -0.741,0 -8.384,-6.906 -6.411,-13.067 1.97,-6.164 5.83,-8.341 6.164,-12.934 C 5.623,54.282 3.529,48.012 1.801,33.819 0.483,22.993 -8.443,5.052 -8.443,5.052 c 0,0 0.426,-1.801 2.56,-3.171 C -3.411,0.289 0,0 0,0"
         style="fill:#028715;fill-opacity:1;fill-rule:nonzero;stroke:none"
         id="path113313"
         inkscape:connector-curvature="0" />
    </g>
    <g
       id="g113315"
       transform="matrix(0.35277777,0,0,-0.35277777,-11.892022,26.33988)">
      <path
         d="m 0,0 c -2.012,-4.354 0.573,-10.539 6.362,-12.467 5.788,-1.93 14.491,-1.62 18.202,-5.182 0,0 -0.072,4.586 -2.3,9.781 -2.225,5.196 -4.57,9.772 -8.829,11.986 C 8.431,6.72 3.106,6.733 0,0"
         style="fill:#029b1b;fill-opacity:1;fill-rule:nonzero;stroke:none"
         id="path113317"
         inkscape:connector-curvature="0" />
    </g>
    <g
       id="g113319"
       transform="matrix(0.35277777,0,0,-0.35277777,-3.2324566,32.43376)">
      <path
         d="m 0,0 c -2.845,3.543 -11.243,3.195 -16.077,4.807 -5.788,1.928 -8.42,8.442 -6.361,12.169 0.728,1.32 3.698,1.207 4.366,1.02 1.025,-0.332 2.017,-0.753 2.843,-1.399 0.104,-0.076 0.203,-0.164 0.297,-0.248 0.1,-0.092 0.202,-0.182 0.294,-0.275 0.198,-0.185 0.388,-0.372 0.566,-0.568 0.362,-0.391 0.684,-0.81 0.968,-1.256 0.287,-0.446 0.534,-0.917 0.78,-1.415 0.245,-0.494 0.503,-1.009 0.812,-1.502 0.312,-0.49 0.679,-0.952 1.078,-1.374 0.406,-0.419 0.822,-0.793 1.259,-1.158 0.879,-0.724 1.831,-1.353 2.805,-1.898 0.967,-0.554 1.923,-1.086 2.785,-1.758 0.42,-0.322 0.782,-0.739 1.121,-1.172 0.333,-0.435 0.644,-0.895 0.927,-1.375 -0.206,0.516 -0.454,1.02 -0.743,1.5 -0.292,0.48 -0.624,0.948 -1.048,1.346 -0.414,0.387 -0.856,0.74 -1.31,1.073 -0.456,0.33 -0.931,0.633 -1.393,0.939 -0.459,0.307 -0.911,0.613 -1.352,0.933 -0.436,0.324 -0.86,0.666 -1.262,1.028 -0.403,0.359 -0.81,0.734 -1.165,1.126 -0.356,0.392 -0.67,0.813 -0.95,1.265 -0.56,0.884 -0.946,1.948 -1.594,2.929 -0.322,0.486 -0.691,0.941 -1.09,1.358 -0.199,0.211 -0.406,0.41 -0.619,0.602 -0.111,0.099 -0.216,0.189 -0.326,0.28 -0.114,0.093 -0.23,0.185 -0.351,0.27 -0.952,0.698 -2.033,1.149 -3.126,1.46 -0.527,0.149 -2.761,0.97 -1.676,2.579 0.776,1.154 1.942,1.563 3.754,1.656 -3.419,0.411 -6.616,-1.025 -8.759,-5.668 -2.012,-4.355 0.573,-10.539 6.362,-12.467 5.789,-1.931 14.491,-1.62 18.203,-5.182 z"
         style="fill:#028715;fill-opacity:1;fill-rule:nonzero;stroke:none"
         id="path113321"
         inkscape:connector-curvature="0" />
    </g>
    <g
       id="g113323"
       transform="matrix(0.35277777,0,0,-0.35277777,-25.150153,29.244611)">
      <path
         d="m 0,0 c 0,0 6.593,6.657 14.3,5.607 7.703,-1.044 11.165,-5.546 7.654,-11.239 -3.515,-5.69 -17.632,-5.811 -22.438,-8.892 -4.809,-3.084 -6.226,-5.118 -6.226,-5.118 0,0 0.112,13.478 6.71,19.642"
         style="fill:#029b1b;fill-opacity:1;fill-rule:nonzero;stroke:none"
         id="path113325"
         inkscape:connector-curvature="0" />
    </g>
    <g
       id="g113327"
       transform="matrix(0.35277777,0,0,-0.35277777,-20.105498,27.266451)">
      <path
         d="M 0,0 C -0.542,0.074 -1.069,0.102 -1.597,0.096 2.208,-0.702 4.317,-2.031 5.466,-4.169 6.25,-5.633 4.722,-5.085 4.313,-4.915 4.28,-4.902 4.247,-4.888 4.217,-4.877 4.213,-4.874 4.21,-4.874 4.21,-4.874 4.04,-4.807 3.868,-4.745 3.692,-4.69 2.965,-4.456 2.188,-4.339 1.411,-4.367 0.632,-4.404 -0.092,-4.535 -0.829,-4.75 -1.556,-4.963 -2.254,-5.288 -2.9,-5.664 -4.191,-6.43 -5.274,-7.388 -6.388,-8.266 c -1.106,-0.888 -2.228,-1.742 -3.411,-2.509 -1.204,-0.78 -2.381,-1.634 -3.481,-2.565 -1.103,-0.932 -2.136,-1.947 -3.058,-3.057 -0.461,-0.559 -0.888,-1.137 -1.278,-1.741 -0.39,-0.603 -0.75,-1.233 -0.998,-1.905 0.674,1.261 1.589,2.363 2.573,3.378 0.984,1.017 2.06,1.942 3.184,2.794 1.128,0.857 2.305,1.63 3.525,2.351 1.235,0.75 2.43,1.58 3.569,2.453 1.148,0.866 2.242,1.773 3.413,2.461 0.586,0.338 1.203,0.608 1.839,0.806 0.321,0.099 0.646,0.179 0.979,0.241 0.33,0.061 0.672,0.115 0.989,0.131 1.019,0.059 2.047,-0.188 3.008,-0.624 0.686,-0.348 1.843,-1.204 1.339,-2.847 -0.203,-0.661 -0.557,-1.33 -0.99,-2.03 -3.511,-5.69 -14.532,-5.127 -19.986,-8.682 -1.284,-0.834 -5.413,-3.872 -5.8,-4.626 l -0.038,-1.013 c 0,0 1.417,2.034 6.226,5.118 4.806,3.081 18.924,3.203 22.438,8.893 C 11.165,-5.546 7.703,-1.045 0,0"
         style="fill:#028715;fill-opacity:1;fill-rule:nonzero;stroke:none"
         id="path113329"
         inkscape:connector-curvature="0" />
    </g>
  </g>
</svg>
