<?xml version="1.0" encoding="UTF-8" standalone="no"?>
<!-- Created with Inkscape (http://www.inkscape.org/) -->

<svg
   xmlns:dc="http://purl.org/dc/elements/1.1/"
   xmlns:cc="http://creativecommons.org/ns#"
   xmlns:rdf="http://www.w3.org/1999/02/22-rdf-syntax-ns#"
   xmlns:svg="http://www.w3.org/2000/svg"
   xmlns="http://www.w3.org/2000/svg"
   xmlns:sodipodi="http://sodipodi.sourceforge.net/DTD/sodipodi-0.dtd"
   xmlns:inkscape="http://www.inkscape.org/namespaces/inkscape"
   width="36.166779mm"
   height="39.415642mm"
   viewBox="0 0 36.166779 39.415642"
   version="1.1"
   id="svg281528"
   inkscape:version="0.92.3 (2405546, 2018-03-11)"
   sodipodi:docname="plants-4.svg">
  <defs
     id="defs281522" />
  <sodipodi:namedview
     id="base"
     pagecolor="#ffffff"
     bordercolor="#666666"
     borderopacity="1.0"
     inkscape:pageopacity="0.0"
     inkscape:pageshadow="2"
     inkscape:zoom="0.35"
     inkscape:cx="-595.93905"
     inkscape:cy="274.48624"
     inkscape:document-units="mm"
     inkscape:current-layer="layer1"
     showgrid="false"
     fit-margin-top="0"
     fit-margin-left="0"
     fit-margin-right="0"
     fit-margin-bottom="0"
     inkscape:window-width="1366"
     inkscape:window-height="716"
     inkscape:window-x="-8"
     inkscape:window-y="-8"
     inkscape:window-maximized="1" />
  <metadata
     id="metadata281525">
    <rdf:RDF>
      <cc:Work
         rdf:about="">
        <dc:format>image/svg+xml</dc:format>
        <dc:type
           rdf:resource="http://purl.org/dc/dcmitype/StillImage" />
        <dc:title></dc:title>
      </cc:Work>
    </rdf:RDF>
  </metadata>
  <g
     inkscape:label="Layer 1"
     inkscape:groupmode="layer"
     id="layer1"
     transform="translate(-80.190421,-182.04218)">
    <g
       id="g70311"
       transform="matrix(0.35277777,0,0,-0.35277777,99.108138,220.80335)">
      <path
         d="m 0,0 c 0.104,-2.706 4.604,-2.297 4.609,0.225 l 0.046,47.68 C 4.653,49.277 3.615,50.39 2.336,50.39 1.059,50.39 0.027,49.264 0.035,47.897 L -0.031,12.134 c 0,-0.113 0.017,-0.221 0.031,-0.321 z"
         style="fill:#938548;fill-opacity:1;fill-rule:nonzero;stroke:none"
         id="path70313"
         inkscape:connector-curvature="0" />
    </g>
    <g
       id="g70315"
       transform="matrix(0.35277777,0,0,-0.35277777,102.4821,209.56819)">
      <path
         d="m 0,0 v -8.235 c 0.101,-3.523 -0.312,-4.453 -2.712,-6.167 l -4.473,-2.256 1.228,-2.506 4.554,2.31 c 3.878,2.548 4.183,5.3 4.183,8.64 L 2.78,0 Z"
         style="fill:#938548;fill-opacity:1;fill-rule:nonzero;stroke:none"
         id="path70317"
         inkscape:connector-curvature="0" />
    </g>
    <g
       id="g70319"
       transform="matrix(0.35277777,0,0,-0.35277777,97.038487,213.97671)">
      <path
         d="M 0,0 V 8.502 H -2.877 V 0 c 0,-3.448 0.319,-6.296 4.394,-8.968 l 4.636,-2.34 1.271,2.577 -4.537,2.285 C 0.319,-4.624 -0.113,-3.661 0,0"
         style="fill:#938548;fill-opacity:1;fill-rule:nonzero;stroke:none"
         id="path70321"
         inkscape:connector-curvature="0" />
    </g>
    <g
       id="g70323"
       transform="matrix(0.35277777,0,0,-0.35277777,109.30994,203.01083)">
      <path
         d="m 0,0 c 0,-12.938 -10.487,-23.437 -23.429,-23.437 -12.94,0 -23.431,10.499 -23.431,23.437 0,12.935 10.491,23.426 23.431,23.426 C -10.487,23.426 0,12.935 0,0"
         style="fill:#498c44;fill-opacity:1;fill-rule:nonzero;stroke:none"
         id="path70325"
         inkscape:connector-curvature="0" />
    </g>
    <g
       id="g70327"
       transform="matrix(0.35277777,0,0,-0.35277777,116.3572,203.71963)">
      <path
         d="m 0,0 c 0,-15.645 -12.696,-28.337 -28.341,-28.337 -15.649,0 -28.331,12.692 -28.331,28.337 0,15.645 12.682,28.329 28.331,28.329 C -12.696,28.329 0,15.645 0,0"
         style="fill:#427a06;fill-opacity:1;fill-rule:nonzero;stroke:none"
         id="path70329"
         inkscape:connector-curvature="0" />
    </g>
    <g
       id="g70331"
       transform="matrix(0.35277777,0,0,-0.35277777,116.28333,196.35747)">
      <path
         d="m 0,0 c 0,-11.979 -9.708,-21.695 -21.689,-21.695 -11.98,0 -21.688,9.716 -21.688,21.695 0,11.979 9.708,21.687 21.688,21.687 C -9.708,21.687 0,11.979 0,0"
         style="fill:#427a06;fill-opacity:1;fill-rule:nonzero;stroke:none"
         id="path70333"
         inkscape:connector-curvature="0" />
    </g>
    <g
       id="g70335"
       transform="matrix(0.35277777,0,0,-0.35277777,110.50504,189.58527)">
      <path
         d="m 0,0 c 0,-11.813 -9.57,-21.386 -21.38,-21.386 -11.81,0 -21.384,9.573 -21.384,21.386 0,11.805 9.574,21.382 21.384,21.382 C -9.57,21.382 0,11.805 0,0"
         style="fill:#427a06;fill-opacity:1;fill-rule:nonzero;stroke:none"
         id="path70337"
         inkscape:connector-curvature="0" />
    </g>
    <g
       id="g70339"
       transform="matrix(0.35277777,0,0,-0.35277777,99.682098,196.99723)">
      <path
         d="m 0,0 c 0,-15.261 -12.372,-27.624 -27.628,-27.624 -15.251,0 -27.624,12.363 -27.624,27.624 0,15.257 12.373,27.628 27.624,27.628 C -12.372,27.628 0,15.257 0,0"
         style="fill:#427a06;fill-opacity:1;fill-rule:nonzero;stroke:none"
         id="path70341"
         inkscape:connector-curvature="0" />
    </g>
    <g
       id="g70343"
       transform="matrix(0.35277777,0,0,-0.35277777,101.59895,191.12091)">
      <path
         d="m 0,0 c 0,-11.458 -9.294,-20.748 -20.753,-20.748 -11.457,0 -20.745,9.29 -20.745,20.748 0,11.455 9.288,20.748 20.745,20.748 C -9.294,20.748 0,11.455 0,0"
         style="fill:#427a06;fill-opacity:1;fill-rule:nonzero;stroke:none"
         id="path70345"
         inkscape:connector-curvature="0" />
    </g>
    <g
       id="g70347"
       transform="matrix(0.35277777,0,0,-0.35277777,103.50702,205.21861)">
      <path
         d="m 0,0 c 0,-15.044 -12.205,-27.244 -27.252,-27.244 -15.058,0 -27.259,12.2 -27.259,27.244 0,15.061 12.201,27.262 27.259,27.262 C -12.205,27.262 0,15.061 0,0"
         style="fill:#427a06;fill-opacity:1;fill-rule:nonzero;stroke:none"
         id="path70349"
         inkscape:connector-curvature="0" />
    </g>
    <g
       id="g70351"
       transform="matrix(0.35277777,0,0,-0.35277777,110.16931,196.63257)">
      <path
         d="m 0,0 c 0,10.378 -8.416,18.792 -18.795,18.792 -2.143,0 -4.198,-0.362 -6.117,-1.021 -2.136,4.882 -7.01,8.293 -12.679,8.293 -7.642,0 -13.839,-6.2 -13.839,-13.834 0,-0.272 0.009,-0.538 0.028,-0.801 -7.286,-2.523 -12.515,-9.436 -12.515,-17.575 0,-10.278 8.324,-18.605 18.598,-18.605 1.645,0 3.238,0.217 4.757,0.617 1.45,-5.312 6.294,-9.215 12.062,-9.215 5.084,0 9.456,3.027 11.414,7.38 0.051,-0.004 0.099,-0.004 0.149,-0.004 6.22,0 11.277,4.991 11.383,11.192 h 0.009 v 1.455 C -2.119,-9.928 0,-5.216 0,0"
         style="fill:#599b0d;fill-opacity:1;fill-rule:nonzero;stroke:none"
         id="path70353"
         inkscape:connector-curvature="0" />
    </g>
  </g>
</svg>
