<?xml version="1.0" encoding="UTF-8" standalone="no"?>
<!-- Created with Inkscape (http://www.inkscape.org/) -->

<svg
   xmlns:dc="http://purl.org/dc/elements/1.1/"
   xmlns:cc="http://creativecommons.org/ns#"
   xmlns:rdf="http://www.w3.org/1999/02/22-rdf-syntax-ns#"
   xmlns:svg="http://www.w3.org/2000/svg"
   xmlns="http://www.w3.org/2000/svg"
   xmlns:sodipodi="http://sodipodi.sourceforge.net/DTD/sodipodi-0.dtd"
   xmlns:inkscape="http://www.inkscape.org/namespaces/inkscape"
   width="20.980801mm"
   height="61.700668mm"
   viewBox="0 0 20.980801 61.700668"
   version="1.1"
   id="svg282009"
   inkscape:version="0.92.3 (2405546, 2018-03-11)"
   sodipodi:docname="plants-7.svg">
  <defs
     id="defs282003">
    <clipPath
       id="clipPath70487"
       clipPathUnits="userSpaceOnUse">
      <path
         inkscape:connector-curvature="0"
         id="path70485"
         d="m 1297.047,2988.625 c 0.01,0.117 0.01,0.234 0.01,0.351 v 0 c 0,-0.118 -0.01,-0.235 -0.01,-0.351 m -33.399,0.016 c 0,0.08 0,0.159 -0.01,0.239 v 0 c 0,-0.08 0,-0.159 0.01,-0.239 m 9.625,-16.611 c 9.017,-5.019 23.251,1.226 23.774,16.595 v 0 c -0.142,-2.433 -1.865,-4.836 -5.129,-6.654 v 0 c -10.542,-5.885 -27.918,-1.622 -28.27,6.67 v 0 c 0.2,-7.129 3.624,-13.122 9.625,-16.611" />
    </clipPath>
    <clipPath
       id="clipPath70475"
       clipPathUnits="userSpaceOnUse">
      <path
         inkscape:connector-curvature="0"
         id="path70473"
         d="m 1268.279,2986.312 c -3.095,1.868 -4.638,4.282 -4.65,6.679 v 0 c 0.013,-4.461 -0.681,-7.571 4.666,-10.786 v 0 c 10.443,-6.284 28.787,-1.889 28.762,6.771 v 0 l -0.01,4.115 c 0.02,-8.673 -18.328,-13.051 -28.768,-6.779" />
    </clipPath>
    <clipPath
       id="clipPath70463"
       clipPathUnits="userSpaceOnUse">
      <path
         inkscape:connector-curvature="0"
         id="path70461"
         d="m 1263.629,2992.991 c 0.012,-2.397 1.555,-4.811 4.65,-6.679 v 0 c 10.434,-6.272 28.788,-1.901 28.768,6.779 v 0 c -0.052,2.24 -1.141,4.124 -2.75,5.576 v 0 c -0.963,0.854 -1.551,1.191 -2.108,1.551 v 0 c -3.342,1.982 -7.595,2.912 -11.793,2.912 v 0 c -8.376,0 -16.528,-3.703 -16.767,-10.139 m 5.381,-5.437 c -5.999,3.602 -5.797,9.357 0.461,12.852 v 0 c 6.254,3.485 16.191,3.382 22.189,-0.234 v 0 c 6.004,-3.611 5.797,-9.357 -0.457,-12.851 v 0 c -3.052,-1.704 -6.981,-2.551 -10.903,-2.551 v 0 c -4.112,0 -8.217,0.932 -11.29,2.784 m 23.008,12.717 c -0.01,0 -0.018,0 -0.027,0 v 0 c 0.01,0 0.018,0 0.027,0 m -0.065,0 c -0.025,0 -0.052,-0.01 -0.079,-0.012 v 0 c 0.027,0.01 0.054,0.01 0.079,0.012 m 0.143,-0.012 c 0.025,-0.01 0.049,-0.016 0.071,-0.027 v 0 c -0.022,0.011 -0.046,0.02 -0.071,0.027" />
    </clipPath>
    <clipPath
       id="clipPath70451"
       clipPathUnits="userSpaceOnUse">
      <path
         inkscape:connector-curvature="0"
         id="path70449"
         d="M 0,3189 H 2006.732 V 0 H 0 Z" />
    </clipPath>
    <clipPath
       id="clipPath70439"
       clipPathUnits="userSpaceOnUse">
      <path
         inkscape:connector-curvature="0"
         id="path70437"
         d="m 1273.358,2971.981 c 0.449,-0.242 0.893,-0.483 1.345,-0.735 v 0 c 3.193,-1.734 8.226,-1.73 11.432,0.055 v 0 l 1.347,0.742 c -3.959,-2.206 -10.18,-2.21 -14.124,-0.062" />
    </clipPath>
  </defs>
  <sodipodi:namedview
     id="base"
     pagecolor="#ffffff"
     bordercolor="#666666"
     borderopacity="1.0"
     inkscape:pageopacity="0.0"
     inkscape:pageshadow="2"
     inkscape:zoom="0.35"
     inkscape:cx="-510.35124"
     inkscape:cy="88.028245"
     inkscape:document-units="mm"
     inkscape:current-layer="layer1"
     showgrid="false"
     fit-margin-top="0"
     fit-margin-left="0"
     fit-margin-right="0"
     fit-margin-bottom="0"
     inkscape:window-width="1366"
     inkscape:window-height="716"
     inkscape:window-x="-8"
     inkscape:window-y="-8"
     inkscape:window-maximized="1" />
  <metadata
     id="metadata282006">
    <rdf:RDF>
      <cc:Work
         rdf:about="">
        <dc:format>image/svg+xml</dc:format>
        <dc:type
           rdf:resource="http://purl.org/dc/dcmitype/StillImage" />
        <dc:title></dc:title>
      </cc:Work>
    </rdf:RDF>
  </metadata>
  <g
     inkscape:label="Layer 1"
     inkscape:groupmode="layer"
     id="layer1"
     transform="translate(-57.545313,-110.42347)">
    <g
       id="g70425"
       transform="matrix(0.35277777,0,0,-0.35277777,70.803878,169.25001)">
      <path
         d="m 0,0 c 3.172,-1.906 3.061,-4.95 -0.242,-6.797 -3.309,-1.848 -8.561,-1.789 -11.735,0.116 -3.169,1.919 -3.062,4.958 0.245,6.802 C -8.424,1.964 -3.174,1.913 0,0"
         style="fill:#adadad;fill-opacity:1;fill-rule:nonzero;stroke:none"
         id="path70427"
         inkscape:connector-curvature="0" />
    </g>
    <g
       id="g70429"
       transform="matrix(0.35277777,0,0,-0.35277777,66.685586,171.66707)">
      <path
         d="M 0,0 C -0.451,0.251 -0.896,0.492 -1.346,0.734 2.6,-1.413 8.82,-1.409 12.779,0.797 L 11.432,0.055 C 8.227,-1.73 3.193,-1.734 0,0"
         style="fill:#c65c06;fill-opacity:1;fill-rule:nonzero;stroke:none"
         id="path70431"
         inkscape:connector-curvature="0" />
    </g>
    <g
       id="g70433"
       transform="matrix(0.35277777,0,0,-0.35277777,-383.00134,1219.8568)">
      <g
         id="g70435"
         clip-path="url(#clipPath70439)">
        <g
           id="g70441"
           transform="translate(1274.7031,2971.2466)">
          <path
             d="M 0,0 -1.346,0.734 C 2.6,-1.413 8.82,-1.409 12.779,0.797 L 11.432,0.055 C 8.227,-1.73 3.193,-1.734 0,0"
             style="fill:#c65c06;fill-opacity:1;fill-rule:nonzero;stroke:none"
             id="path70443"
             inkscape:connector-curvature="0" />
        </g>
      </g>
    </g>
    <g
       id="g70445"
       transform="matrix(0.35277777,0,0,-0.35277777,-383.00134,1219.8568)">
      <g
         id="g70447"
         clip-path="url(#clipPath70451)">
        <g
           id="g70453"
           transform="translate(1291.6602,3000.1714)">
          <path
             d="m 0,0 c 6.004,-3.61 5.797,-9.356 -0.457,-12.851 -6.252,-3.49 -16.189,-3.385 -22.193,0.234 -5.998,3.602 -5.797,9.356 0.461,12.851 C -15.936,3.72 -5.998,3.616 0,0"
             style="fill:#38260e;fill-opacity:1;fill-rule:nonzero;stroke:none"
             id="path70455"
             inkscape:connector-curvature="0" />
        </g>
      </g>
    </g>
    <g
       id="g70457"
       transform="matrix(0.35277777,0,0,-0.35277777,-383.00134,1219.8568)">
      <g
         id="g70459"
         clip-path="url(#clipPath70463)">
        <g
           id="g70465"
           transform="translate(1291.2031,2987.3208)">
          <path
             d="m 0,0 c -6.252,-3.49 -16.189,-3.386 -22.193,0.233 -5.555,3.34 -0.379,11.535 0.445,12.743 C -18.051,11.695 5.771,3.223 0,0 m -27.574,5.671 c 0.011,-2.398 1.554,-4.812 4.65,-6.68 10.44,-6.271 28.787,-1.893 28.768,6.78 -0.315,13.388 -32.918,13.226 -33.418,-0.1"
             style="fill:#ffc050;fill-opacity:1;fill-rule:nonzero;stroke:none"
             id="path70467"
             inkscape:connector-curvature="0" />
        </g>
      </g>
    </g>
    <g
       id="g70469"
       transform="matrix(0.35277777,0,0,-0.35277777,-383.00134,1219.8568)">
      <g
         id="g70471"
         clip-path="url(#clipPath70475)">
        <g
           id="g70477"
           transform="translate(1263.6426,2988.8804)">
          <path
             d="M 0,0 -0.014,4.111 C -0.002,1.714 1.541,-0.7 4.637,-2.568 15.076,-8.84 33.424,-4.462 33.404,4.211 l 0.01,-4.115 C 33.439,-8.564 15.096,-12.959 4.652,-6.676 1.555,-4.812 0.008,-2.41 0,0"
             style="fill:#ffac33;fill-opacity:1;fill-rule:nonzero;stroke:none"
             id="path70479"
             inkscape:connector-curvature="0" />
        </g>
      </g>
    </g>
    <g
       id="g70481"
       transform="matrix(0.35277777,0,0,-0.35277777,-383.00134,1219.8568)">
      <g
         id="g70483"
         clip-path="url(#clipPath70487)">
        <g
           id="g70489"
           transform="translate(1272.7773,2972.314)">
          <path
             d="M 0,0 C -5.307,3.228 -9.01,9.178 -9.135,16.566 -9.127,14.156 -7.58,11.755 -4.482,9.891 5.951,3.615 24.305,7.998 24.279,16.662 24.078,6.685 18.197,1.772 14.705,-0.271 10.717,-2.484 4.439,-2.48 0.496,-0.283 0.35,-0.195 0.146,-0.083 0,0"
             style="fill:#b26202;fill-opacity:1;fill-rule:nonzero;stroke:none"
             id="path70491"
             inkscape:connector-curvature="0" />
        </g>
      </g>
    </g>
    <g
       id="g70501"
       transform="matrix(0.35277777,0,0,-0.35277777,67.692934,164.96532)">
      <path
         d="m 0,0 c 0.102,-2.706 4.604,-2.302 4.607,0.226 l 0.045,47.679 c 0,1.372 -1.039,2.49 -2.314,2.482 -1.277,0 -2.315,-1.114 -2.305,-2.491 l -0.062,-35.77 c 0,-0.101 0.013,-0.209 0.029,-0.317 z"
         style="fill:#938548;fill-opacity:1;fill-rule:nonzero;stroke:none"
         id="path70503"
         inkscape:connector-curvature="0" />
    </g>
    <g
       id="g70505"
       transform="matrix(0.35277777,0,0,-0.35277777,74.370911,141.5976)">
      <path
         d="M 0,0 V 8.49 H -2.873 V 0 c 0,-3.452 0.318,-6.296 4.393,-8.969 l 4.638,-2.347 1.268,2.585 -4.535,2.281 C 0.322,-4.628 -0.109,-3.661 0,0"
         style="fill:#4c4114;fill-opacity:1;fill-rule:nonzero;stroke:none"
         id="path70507"
         inkscape:connector-curvature="0" />
    </g>
    <g
       id="g70509"
       transform="matrix(0.35277777,0,0,-0.35277777,74.952439,128.20735)">
      <path
         d="m 0,0 c 0,0 -1.395,1.989 -0.773,8.323 0.253,2.618 0.312,10.148 0.312,10.148 0,5.325 -2.641,9.407 -6.826,10.317 -1.783,0.383 -2.483,4.161 -2.791,6.871 -0.277,2.422 -0.928,8.152 -0.928,8.152 0,3.265 -1.797,6.6 -4.592,6.6 -2.791,0 -3.939,-1.534 -4.871,-4.249 0,0 -0.773,-6.521 -3.15,-7.171 -3.401,-0.947 -6.328,-3.307 -6.328,-7.389 0,0 -0.024,-6.372 0.021,-8.068 0.178,-6.701 -3.076,-5.788 -3.256,-5.792 -4.339,-0.183 -6.668,-4.895 -6.668,-11.049 l 1.202,-18.255 c 0,0 0.162,-2.54 -2.596,-2.735 -3.863,-0.284 -8.531,-3.624 -8.067,-22.087 l 0.467,-15.02 c 0,-15.031 8.026,-16.42 8.026,-16.42 l 0.806,-9.152 c 0,-4.729 1.303,-9.736 5.123,-9.736 2.948,0 3.1,-3.615 3.1,-3.615 0.158,-7.064 6.976,-10.5 12.719,-10.5 8.838,0 10.228,5.071 13.488,9.044 6.205,0.722 8.061,7.068 9.146,18.472 0,0 2.795,-0.179 3.883,9.595 0.782,7.05 2.324,38.736 2.324,38.736 C 11.006,-16.107 9.361,-0.813 0,0"
         style="fill:#285b2e;fill-opacity:1;fill-rule:nonzero;stroke:none"
         id="path70511"
         inkscape:connector-curvature="0" />
    </g>
    <g
       id="g70513"
       transform="matrix(0.35277777,0,0,-0.35277777,73.140334,130.76242)">
      <path
         d="m 0,0 c 0,0 -1.809,-6.154 -0.721,23.896 0.047,1.41 1.446,10.866 -4.5,9.528 -1.83,-0.409 -2.017,6.767 -2.017,6.767 0,2.523 -0.082,4.608 -2.242,4.608 -2.159,0 -3.04,-1.18 -3.754,-3.274 0,0 -0.6,-5.028 -2.436,-5.537 -2.625,-0.721 -4.885,-2.548 -4.885,-5.695 0,0 -0.017,-4.917 0.018,-6.234 0.142,-5.162 -2.371,-4.462 -2.512,-4.466 -3.349,-0.137 -5.144,-3.778 -5.144,-8.514 l 0.679,-7.097 c 0,3.152 1.918,12.167 6.698,11.05 1.857,-0.442 3.08,4.524 3.08,4.524 0.716,2.089 1.644,3.982 3.802,3.982 2.161,0 2.352,-3.636 2.352,-6.159 0,0 0.189,-7.175 2.018,-6.763 5.949,1.33 4.498,-8.118 4.498,-9.528 0,-27.336 3.621,-20.098 3.621,-20.098 4.527,6.343 8.324,-5.97 7.197,-17.166 0,0 -0.574,-11.804 -1.133,-20.841 1.883,4.462 3.25,9.892 3.682,13.752 0.603,5.442 1.795,29.893 1.795,29.893 C 11.227,-2.177 4.346,6.88 0,0"
         style="fill:#487548;fill-opacity:1;fill-rule:nonzero;stroke:none"
         id="path70515"
         inkscape:connector-curvature="0" />
    </g>
    <g
       id="g70517"
       transform="matrix(0.35277777,0,0,-0.35277777,67.457984,139.06303)">
      <path
         d="m 0,0 c -0.529,4.208 -3.619,14.114 -13.035,10.862 -6.569,-2.28 -6.748,-6.605 -6.748,-6.605 0,0 -7.014,0.317 -5.742,-11.137 0.545,-4.887 2.353,-7.96 2.353,-7.96 0.684,0.53 -0.859,1.472 0,10.495 0.723,7.597 9.762,9.861 13.395,8.686 5.068,-1.631 5.613,-8.323 5.613,-8.323 1.809,-15.753 10.32,2.889 11.711,-13.339 0,0 1.152,-13.948 1.476,-11.021 0.489,4.412 1.016,8.836 1.11,12.414 C 10.592,0.379 1.045,-8.265 0,0"
         style="fill:#487548;fill-opacity:1;fill-rule:nonzero;stroke:none"
         id="path70519"
         inkscape:connector-curvature="0" />
    </g>
    <g
       id="g70521"
       transform="matrix(0.35277777,0,0,-0.35277777,69.691781,150.36607)">
      <path
         d="m 0,0 c 0,0 3.262,3.982 7.063,-0.55 3.798,-4.52 3.437,-13.935 3.437,-13.935 0,0 1.816,13.397 -1.627,17.375 C 5.434,6.872 2.357,5.062 1.086,3.44 0.096,2.16 0,0 0,0"
         style="fill:#487548;fill-opacity:1;fill-rule:nonzero;stroke:none"
         id="path70523"
         inkscape:connector-curvature="0" />
    </g>
  </g>
</svg>
