<?xml version="1.0" encoding="UTF-8" standalone="no"?>
<!-- Created with Inkscape (http://www.inkscape.org/) -->

<svg
   xmlns:dc="http://purl.org/dc/elements/1.1/"
   xmlns:cc="http://creativecommons.org/ns#"
   xmlns:rdf="http://www.w3.org/1999/02/22-rdf-syntax-ns#"
   xmlns:svg="http://www.w3.org/2000/svg"
   xmlns="http://www.w3.org/2000/svg"
   xmlns:sodipodi="http://sodipodi.sourceforge.net/DTD/sodipodi-0.dtd"
   xmlns:inkscape="http://www.inkscape.org/namespaces/inkscape"
   width="50.752312mm"
   height="40.224998mm"
   viewBox="0 0 50.752312 40.224998"
   version="1.1"
   id="svg281407"
   inkscape:version="0.92.3 (2405546, 2018-03-11)"
   sodipodi:docname="plants-2.svg">
  <defs
     id="defs281401" />
  <sodipodi:namedview
     id="base"
     pagecolor="#ffffff"
     bordercolor="#666666"
     borderopacity="1.0"
     inkscape:pageopacity="0.0"
     inkscape:pageshadow="2"
     inkscape:zoom="0.35"
     inkscape:cx="248.76702"
     inkscape:cy="-309.69854"
     inkscape:document-units="mm"
     inkscape:current-layer="layer1"
     showgrid="false"
     fit-margin-top="0"
     fit-margin-left="0"
     fit-margin-right="0"
     fit-margin-bottom="0"
     inkscape:window-width="1366"
     inkscape:window-height="716"
     inkscape:window-x="-8"
     inkscape:window-y="-8"
     inkscape:window-maximized="1" />
  <metadata
     id="metadata281404">
    <rdf:RDF>
      <cc:Work
         rdf:about="">
        <dc:format>image/svg+xml</dc:format>
        <dc:type
           rdf:resource="http://purl.org/dc/dcmitype/StillImage" />
        <dc:title></dc:title>
      </cc:Work>
    </rdf:RDF>
  </metadata>
  <g
     inkscape:label="Layer 1"
     inkscape:groupmode="layer"
     id="layer1"
     transform="translate(143.30473,-26.667262)">
    <g
       id="g70393"
       transform="matrix(0.35277777,0,0,-0.35277777,-127.98606,52.535722)">
      <path
         d="m 0,0 c -0.905,-0.913 -2.385,-0.884 -3.25,0.054 -9.473,10.321 -9.701,16.913 -9.701,30.939 v 11.02 l 3.39,0.384 V 31.898 c 0,-12.83 0.971,-19.139 9.596,-28.6 C 0.894,2.352 0.9,0.901 0,0"
         style="fill:#a58c53;fill-opacity:1;fill-rule:nonzero;stroke:none"
         id="path70395"
         inkscape:connector-curvature="0" />
    </g>
    <g
       id="g70397"
       transform="matrix(0.35277777,0,0,-0.35277777,-110.56836,61.889511)">
      <path
         d="m 0,0 v 3.386 c 7.569,0 13.723,6.158 13.723,13.722 v 10.524 h 3.383 V 17.108 C 17.106,7.677 9.433,0 0,0"
         style="fill:#a58c53;fill-opacity:1;fill-rule:nonzero;stroke:none"
         id="path70399"
         inkscape:connector-curvature="0" />
    </g>
    <g
       id="g70401"
       transform="matrix(0.35277777,0,0,-0.35277777,-111.30578,65.997791)">
      <path
         d="m 0,0 c 0,0 -0.542,-2.706 -3.622,-2.527 -2.02,0.113 -2.173,2.714 -2.173,2.714 -0.723,13.389 8.149,16.149 8.149,23.709 l 0.17,6.767 H 5.905 L 5.61,24.084 C 5.61,14.652 -0.542,11.592 0,0"
         style="fill:#a58c53;fill-opacity:1;fill-rule:nonzero;stroke:none"
         id="path70403"
         inkscape:connector-curvature="0" />
    </g>
    <g
       id="g70405"
       transform="matrix(0.35277777,0,0,-0.35277777,-109.74223,59.37114)">
      <path
         d="m 0,0 v 2.568 c -5.753,0 -10.435,4.683 -10.435,10.433 V 21.01 H -13.01 V 13.001 C -13.01,5.833 -7.171,0 0,0"
         style="fill:#a58c53;fill-opacity:1;fill-rule:nonzero;stroke:none"
         id="path70407"
         inkscape:connector-curvature="0" />
    </g>
    <g
       id="g70409"
       transform="matrix(0.35277777,0,0,-0.35277777,-131.09216,46.40913)">
      <path
         d="m 0,0 v 3.386 c -7.566,0 -13.725,6.15 -13.725,13.722 v 10.52 l -1.69,0.33 V 17.433 C -15.415,7.997 -9.434,0 0,0"
         style="fill:#a58c53;fill-opacity:1;fill-rule:nonzero;stroke:none"
         id="path70411"
         inkscape:connector-curvature="0" />
    </g>
    <g
       id="g70413"
       transform="matrix(0.35277777,0,0,-0.35277777,-96.191962,38.908651)">
      <path
         d="m 0,0 c 0.502,1.513 0.784,3.119 0.784,4.799 0,8.331 -6.645,15.082 -14.843,15.082 -2.756,0 -5.326,-0.776 -7.542,-2.106 -4.354,5.204 -11.389,10.466 -21.783,9.711 C -67.79,25.714 -70.551,9.357 -70.551,9.49 c 0,7.56 -5.642,13.793 -12.924,14.677 -2.084,6.134 -7.85,10.533 -14.649,10.533 -7.501,0 -13.757,-5.371 -15.178,-12.496 -1.865,0.921 -3.962,1.434 -6.178,1.434 -7.768,0 -14.068,-6.334 -14.068,-14.148 0,-0.859 0.084,-1.688 0.229,-2.498 0.961,-9.473 9.15,-17.575 23.731,-17.212 1.724,0.042 3.406,0.175 5.034,0.5 2.105,-4.003 6.285,-6.738 11.108,-6.738 1.534,0 3.009,0.271 4.367,0.784 v -12.084 c 0,-10.436 8.406,-18.892 18.787,-18.892 0.564,0 1.123,0.029 1.676,0.083 3.837,-7.468 11.498,-12.555 20.327,-12.555 7.515,0 14.188,3.686 18.376,9.394 2.348,-0.459 4.77,-0.692 7.251,-0.692 5.424,0 10.586,1.131 15.271,3.169 0,0 15.759,4.578 17.589,24.41 C 11.174,-12.25 5.992,-4.896 0,0"
         style="fill:#569e49;fill-opacity:1;fill-rule:nonzero;stroke:none"
         id="path70415"
         inkscape:connector-curvature="0" />
    </g>
    <g
       id="g70417"
       transform="matrix(0.35277777,0,0,-0.35277777,-104.34085,38.580671)">
      <path
         d="m 0,0 c 0.292,0.893 0.458,1.843 0.458,2.823 0,4.895 -3.899,8.852 -8.715,8.852 -1.618,0 -3.128,-0.454 -4.424,-1.235 -2.558,3.057 -6.69,6.151 -12.793,5.705 C -39.801,15.099 -41.422,5.5 -41.422,5.579 c 0,0.559 -7.285,3.594 -11.629,-4.549 -0.534,-0.997 -2.379,-4.57 2.172,-10.858 0,0 -1.628,-1.989 -1.422,-6.459 0.29,-6.125 4.936,-11.091 11.03,-11.091 0.332,0 0.659,0.008 0.987,0.042 2.251,-4.383 6.747,-7.376 11.93,-7.376 4.416,0 8.333,2.168 10.792,5.521 1.375,-0.264 2.803,-0.338 4.253,-0.405 7.506,-0.329 19.283,3.782 20.358,15.419 C 7.621,-7.956 3.515,-2.869 0,0"
         style="fill:#70ba65;fill-opacity:1;fill-rule:nonzero;stroke:none"
         id="path70419"
         inkscape:connector-curvature="0" />
    </g>
    <g
       id="g70421"
       transform="matrix(0.35277777,0,0,-0.35277777,-129.56979,38.599789)">
      <path
         d="m 0,0 c 11.764,3.44 11.221,15.928 6.488,19.931 -1.294,1.088 -2.855,1.889 -4.623,2.106 -1.221,3.594 -4.605,6.179 -8.597,6.179 -4.406,0 -8.077,-3.152 -8.911,-7.339 -1.095,0.543 -2.326,0.847 -3.626,0.847 -4.563,0 -8.262,-3.719 -8.262,-8.31 0,-0.496 0.052,-0.989 0.135,-1.463 0.566,-5.567 5.372,-10.321 13.934,-10.108 1.01,0.025 1.999,0.096 2.954,0.296 C -9.851,0.892 -4.946,-1.451 0,0"
         style="fill:#70ba65;fill-opacity:1;fill-rule:nonzero;stroke:none"
         id="path70423"
         inkscape:connector-curvature="0" />
    </g>
  </g>
</svg>
