<?xml version="1.0" encoding="UTF-8" standalone="no"?>
<!-- Created with Inkscape (http://www.inkscape.org/) -->

<svg
   xmlns:dc="http://purl.org/dc/elements/1.1/"
   xmlns:cc="http://creativecommons.org/ns#"
   xmlns:rdf="http://www.w3.org/1999/02/22-rdf-syntax-ns#"
   xmlns:svg="http://www.w3.org/2000/svg"
   xmlns="http://www.w3.org/2000/svg"
   xmlns:sodipodi="http://sodipodi.sourceforge.net/DTD/sodipodi-0.dtd"
   xmlns:inkscape="http://www.inkscape.org/namespaces/inkscape"
   width="43.714005mm"
   height="64.191734mm"
   viewBox="0 0 43.714005 64.191734"
   version="1.1"
   id="svg281339"
   inkscape:version="0.92.3 (2405546, 2018-03-11)"
   sodipodi:docname="plants-1.svg">
  <defs
     id="defs281333">
    <clipPath
       id="clipPath73175"
       clipPathUnits="userSpaceOnUse">
      <path
         inkscape:connector-curvature="0"
         id="path73173"
         d="m 455.377,3001.27 h 65.826 v -34.85 h -65.826 z" />
    </clipPath>
  </defs>
  <sodipodi:namedview
     id="base"
     pagecolor="#ffffff"
     bordercolor="#666666"
     borderopacity="1.0"
     inkscape:pageopacity="0.0"
     inkscape:pageshadow="2"
     inkscape:zoom="0.35"
     inkscape:cx="184.03771"
     inkscape:cy="501.30728"
     inkscape:document-units="mm"
     inkscape:current-layer="layer1"
     showgrid="false"
     fit-margin-top="0"
     fit-margin-left="0"
     fit-margin-right="0"
     fit-margin-bottom="0"
     inkscape:window-width="1366"
     inkscape:window-height="716"
     inkscape:window-x="-8"
     inkscape:window-y="-8"
     inkscape:window-maximized="1" />
  <metadata
     id="metadata281336">
    <rdf:RDF>
      <cc:Work
         rdf:about="">
        <dc:format>image/svg+xml</dc:format>
        <dc:type
           rdf:resource="http://purl.org/dc/dcmitype/StillImage" />
        <dc:title></dc:title>
      </cc:Work>
    </rdf:RDF>
  </metadata>
  <g
     inkscape:label="Layer 1"
     inkscape:groupmode="layer"
     id="layer1"
     transform="translate(126.17843,-217.27915)">
    <g
       id="g73169"
       transform="matrix(0.35277777,0,0,-0.35277777,-274.71734,1327.9582)">
      <g
         id="g73171" />
      <g
         id="g73183">
        <g
           clip-path="url(#clipPath73175)"
           id="g73181"
           style="opacity:0.119995">
          <g
             transform="translate(521.2031,2983.8408)"
             id="g73179">
            <path
               d="m 0,0 c 0,-9.621 -14.734,-17.42 -32.912,-17.42 -18.175,0 -32.914,7.799 -32.914,17.42 0,9.625 14.739,17.427 32.914,17.427 C -14.734,17.427 0,9.625 0,0"
               style="fill:#000202;fill-opacity:1;fill-rule:nonzero;stroke:none"
               id="path73177"
               inkscape:connector-curvature="0" />
          </g>
        </g>
      </g>
    </g>
    <g
       id="g73185"
       transform="matrix(0.35277777,0,0,-0.35277777,-102.52354,277.98801)">
      <path
         d="m 0,0 c 0,-2.117 -3.115,-3.835 -5.099,-3.835 -1.983,0 -5.098,1.718 -5.098,3.835 l 1.509,63.504 c 0,2.115 1.606,3.826 3.589,3.826 1.984,0 3.591,-1.711 3.591,-3.826 z"
         style="fill:#736529;fill-opacity:1;fill-rule:nonzero;stroke:none"
         id="path73187"
         inkscape:connector-curvature="0" />
    </g>
    <g
       id="g73189"
       transform="matrix(0.35277777,0,0,-0.35277777,-93.755079,249.38115)">
      <path
         d="m 0,0 c -15.648,26.436 -25.044,68.668 -26.136,71.613 0,0 -0.34,5.089 -2.388,5.089 -2.728,0 -3.4,-5.089 -3.4,-5.089 C -33.019,68.668 -37.036,37.419 -59.848,0 c -14.838,-24.347 -32.006,-37.068 -32.006,-37.068 0,0 -1.581,-7.378 12.254,-8.723 1.061,-0.109 2.068,-0.152 3.015,-0.167 2.489,-0.034 4.311,-2.117 5.216,-4.431 1.981,-5.076 7.186,-8.704 13.301,-8.704 1.088,0 2.152,0.119 3.17,0.342 2.796,0.603 5.791,0.019 7.882,-1.931 1.299,-1.21 2.873,-2.325 4.87,-3.276 6.018,-2.851 18.424,-2.851 24.438,0 1.868,0.88 3.427,1.977 4.771,3.169 2.169,1.936 5.177,2.626 8.02,2.023 0.995,-0.215 2.027,-0.327 3.083,-0.327 5.514,0 10.253,2.969 12.571,7.281 1.284,2.392 3.358,4.424 6.046,4.746 11.471,1.355 15.222,9.998 15.222,9.998 0,0 -17.471,12.51 -32.005,37.068"
         style="fill:#375e1d;fill-opacity:1;fill-rule:nonzero;stroke:none"
         id="path73191"
         inkscape:connector-curvature="0" />
    </g>
    <g
       id="g73193"
       transform="matrix(0.35277777,0,0,-0.35277777,-96.461729,238.91547)">
      <path
         d="m 0,0 c -11.635,19.667 -18.633,51.086 -19.443,53.278 0,0 -0.255,3.78 -1.774,3.78 -2.031,0 -2.53,-3.78 -2.53,-3.78 C -24.563,51.086 -27.547,27.839 -44.521,0 -55.56,-18.107 -68.33,-27.57 -68.33,-27.57 c 0,0 -1.173,-5.491 9.119,-6.485 0.791,-0.078 1.536,-0.112 2.242,-0.129 1.858,-0.026 3.208,-1.575 3.874,-3.295 1.48,-3.775 5.352,-6.471 9.901,-6.471 0.811,0 1.604,0.085 2.358,0.247 2.08,0.45 4.307,0.016 5.862,-1.432 0.962,-0.901 2.137,-1.728 3.621,-2.435 4.475,-2.132 13.708,-2.132 18.181,0 1.388,0.651 2.55,1.466 3.55,2.36 1.615,1.439 3.854,1.947 5.971,1.495 0.734,-0.15 1.5,-0.235 2.287,-0.235 4.105,0 7.628,2.202 9.349,5.415 0.951,1.777 2.502,3.291 4.502,3.526 8.536,1.009 11.325,7.439 11.325,7.439 0,0 -13.002,9.306 -23.812,27.57"
         style="fill:#406e21;fill-opacity:1;fill-rule:nonzero;stroke:none"
         id="path73195"
         inkscape:connector-curvature="0" />
    </g>
    <g
       id="g73197"
       transform="matrix(0.35277777,0,0,-0.35277777,-94.738834,233.44449)">
      <path
         d="m 0,0 c 0,0 -7.666,5.135 -14.036,15.23 -6.856,10.853 -10.978,27.297 -11.456,28.507 0,0 -0.15,2.086 -1.046,2.086 -1.192,0 -1.49,-2.086 -1.49,-2.086 C -28.51,42.527 -30.27,30.603 -40.271,15.23 -46.781,5.224 -54.305,0 -54.305,0 c 0,0 -0.689,-3.035 5.373,-3.588 4.928,-0.446 6.171,3.087 9.852,-0.596 1.05,-1.041 2.447,-5.025 6.571,-6.86 2.637,-1.176 8.078,-1.176 10.713,0 4.13,1.835 5.081,5.706 6.568,6.86 2.872,2.239 4.064,0 7.197,0 C -1.942,-4.184 0,0 0,0"
         style="fill:#488620;fill-opacity:1;fill-rule:nonzero;stroke:none"
         id="path73199"
         inkscape:connector-curvature="0" />
    </g>
  </g>
</svg>
