<svg enable-background="new 0 0 80 240" viewBox="0 0 80 240" xmlns="http://www.w3.org/2000/svg"><path d="m36.8 48.6s-8-2.1-13 2.3-6.6 8.3-7.2 9.3-3.5 2.8-6.6 6.2-9.2 11.1-9.6 13 9.8 17 11.2 19.6 4.4 7.8 6.3 9.2 7.8 3.3 10.2 3.7 7.3 1.7 8.5-.6-1-5-2.4-5.7-5.1-3.6-6.6-3.6-5.1-.3-6.1-.9-3.7-8.8-5.2-12.6-4-9-4-9 4.4-3.3 7.7-5.4 7.7-5.8 7.7-5.8 6-11.9 6.7-13.5 2.4-6.2 2.4-6.2z" fill="#fbd7c7"/><path d="m69.7 231.4c19.1-7.3 6-17.6-12.2-20.9-8-1.4-19-14.5-35.3-4.6s-.2 15.8 8 19.7c11.3 5.2 21.8 12.6 39.5 5.8z" opacity=".2"/><path d="m35.3 48.7c5.4-.9 7.1-7.4 6.9-9s-4-8.6-.7-14.3c3.3-5.8 8.6-8.9 15.3-7 6.8 1.9 6.6 8.4 6.6 10.5s-1.9 13.2-2.6 14.3-2.5 1.2-2.9 2.1-.6 6.6.8 7.6 8 8.7 8.6 10 2.5 12.4 2.5 12.4-1.4 17.2-1.5 20.1-1.6 9.6-.5 16.3 2.9 23.8 1 33.3-6.4 25-6.6 29.8 1.2 12.4.9 18.4c-.3 6.1-2.3 24.9.5 26.8s5.9 1.3 8.9.5 4.9-.5 5.9 1.6-.9 4-3.9 5.5-8.6 2.8-11.9 3.6-7.2 2.5-9.3.3c-1.5-1.6.4-6.4.8-9.4s-1-14.3-3-20.2-3.4-11.7-3-16.4c.4-4.8 2.2-16.1 1.3-21s-3.7-26.5-3.7-26.5-7.3 16.9-8.3 21-3.6 19.5-6.1 25.9-5 18.4-4.4 19.9 1.6 1.7 2.3 1.8 2.9-.5 4.8-1.3c2.8-1.1 5.2.5 6.3 2.2.8 1.2-2.5 3.8-4.2 4.5s-5.3.9-8.5 2.8-3.5 3.6-6.6 3.3c-3.6-.3-4.3-1.6-3.3-5.8s1.8-9.3 1.6-14.9c-.2-5.7-2.6-18.3.2-25.5s4.6-10.4 5.3-18.1c.7-7.8-1.3-16.5.9-25.8s5-21.3 5.4-22 5-11.8 4.2-14.2c-.8-2.5-5.1-11.6-5.8-13.1-.7-1.6-4.8-10.7-4.3-14.7s10.1-15.3 10.1-15.3z" fill="#fbd7c7"/><path d="m42 40.8s2.2 1.7 5 2c3.1.4 9.7-.1 9.7-4.4 0-2.6.1-5.8 2.1-6.1 1.6-.2 1.7 1.3 1.7 1.3s.7-4.6 1.3-5.4c1-1.3 1.8-.9 1.8-2.3s-.7-7.7-9.7-8.2-13.3 5-13.9 10.3 1.2 9.3 1.6 10.5.4 2.3.4 2.3z" fill="#762c07"/><path d="m33.2 97.6 13.9 2.4s7.8 21.1 4.7 30-5.3 17-5.3 17-7.9-.9-13.1-1.6-9.4-1.4-9.4-1.4-.5-23.8 5.9-40.9c1.7-4.4 3.3-5.5 3.3-5.5z" fill="#36c"/><path d="m33.2 97.6 13.9 2.4s7.8 21.1 4.7 30-5.3 17-5.3 17-7.9-.9-13.1-1.6-9.4-1.4-9.4-1.4-.5-23.8 5.9-40.9c1.7-4.4 3.3-5.5 3.3-5.5z" opacity=".2"/><path d="m65.9 100.4s-5.1.3-12.2-.3c-4.7-.3-13.7-1.3-13.7-1.3s-1.1 11.8-1.2 17.5 5.2 10.2 5.8 15.6.8 16.6.8 16.6 7.9 1.9 12.8 2 10.8.2 10.8.2 1.8-12.2 1.4-17.5.5-12-.9-17c-1.5-4.9-3.6-15.8-3.6-15.8z" fill="#36c"/><path d="m64.9 113.1s-5-12.3-5-15.1c0-2.9-1.8-10.5-2.7-13.9-.9-3.5-1.9-12.5-1.9-12.5s14.2 15 14.2 22-4.6 19.5-4.6 19.5z" opacity=".1"/><path d="m61.3 55.4s8.4 1.6 9.9 7 .1 9.8-.1 11 1.3 3.8 2.1 9.3.3 10.2.2 12.3 1.6 6.7.2 11.9-4 10.7-3.5 11.7 2 12 1.3 13.5c-.7 1.6-3.3-3.2-3.6-4.1s-2.2-4.8-2.8-6.1 0-4.6-.2-6.4-1.3-9.2-1.2-12.1 1.1-4.6.9-5.5-3.9-7.5-5.7-13.4c-.3-.9-.7-4.4-1-5.4-.3-.9-1.1-1.8-1.4-2.7-1.4-3.9-1.8-8.2-.7-11 1.6-4.2 5.6-10 5.6-10z" fill="#fbd7c7"/></svg>