<?xml version="1.0" encoding="UTF-8" standalone="no"?>
<svg
   xmlns:dc="http://purl.org/dc/elements/1.1/"
   xmlns:cc="http://creativecommons.org/ns#"
   xmlns:rdf="http://www.w3.org/1999/02/22-rdf-syntax-ns#"
   xmlns:svg="http://www.w3.org/2000/svg"
   xmlns="http://www.w3.org/2000/svg"
   xmlns:sodipodi="http://sodipodi.sourceforge.net/DTD/sodipodi-0.dtd"
   xmlns:inkscape="http://www.inkscape.org/namespaces/inkscape"
   enable-background="new 0 0 160 240"
   viewBox="0 0 9.0843954 21.543306"
   version="1.1"
   id="svg30"
   sodipodi:docname="city--man17.svg"
   width="9.0843954"
   height="21.543306"
   inkscape:version="0.92.2 (5c3e80d, 2017-08-06)">
  <metadata
     id="metadata36">
    <rdf:RDF>
      <cc:Work
         rdf:about="">
        <dc:format>image/svg+xml</dc:format>
        <dc:type
           rdf:resource="http://purl.org/dc/dcmitype/StillImage" />
        <dc:title></dc:title>
      </cc:Work>
    </rdf:RDF>
  </metadata>
  <defs
     id="defs34" />
  <sodipodi:namedview
     pagecolor="#ffffff"
     bordercolor="#666666"
     borderopacity="1"
     objecttolerance="10"
     gridtolerance="10"
     guidetolerance="10"
     inkscape:pageopacity="0"
     inkscape:pageshadow="2"
     inkscape:window-width="870"
     inkscape:window-height="480"
     id="namedview32"
     showgrid="false"
     fit-margin-top="0"
     fit-margin-left="0"
     fit-margin-right="0"
     fit-margin-bottom="0"
     inkscape:zoom="0.98333333"
     inkscape:cx="40.349135"
     inkscape:cy="113.55991"
     inkscape:window-x="0"
     inkscape:window-y="0"
     inkscape:window-maximized="0"
     inkscape:current-layer="svg30" />
  <g
     id="g52"
     transform="matrix(0.10497261,0,0,0.10497261,-4.1622548,-2.9740871)">
    <path
       id="path2"
       d="m 43.1,231.8 c 10.3,5.6 32.9,-3.3 48.4,-10.8 13.4,-6.4 41.7,-18.9 31.3,-25.2 -10.4,-6.3 -28,1.4 -44.7,9.1 -14.5,6.6 -49.5,19 -35,26.9 z"
       inkscape:connector-curvature="0"
       style="opacity:0.2" />
    <path
       id="path4"
       d="m 55.5,214.7 c -1.7,2.5 -6,6.6 -8.2,7.6 -2.2,0.9 -6.1,0.4 -6.8,2.8 -0.7,2.4 0.6,4.5 4.5,5.2 3.9,0.7 7.7,0 9.7,-1 2,-1 7.8,-2.9 11,-2.7 3.1,0.2 4.2,-1.4 4.3,-3.1 0.1,-1.7 -0.7,-8.2 -0.7,-8.2 z"
       inkscape:connector-curvature="0"
       style="fill:#825012" />
    <path
       id="path6"
       d="m 54.7,229.2 c 2,-1 7.8,-2.9 11,-2.7 3.1,0.2 4.2,-1.4 4.3,-3.1 0,-0.3 0,-0.7 0,-1.1 -0.6,1.2 -1.7,2.3 -3.2,2.4 -3.2,0.1 -4.2,0.3 -7.4,1.3 -3.2,0.9 -7.8,3.7 -13.3,2.9 -4,-0.5 -5,-2.1 -5.3,-4.2 -0.1,0.1 -0.1,0.3 -0.2,0.4 -0.7,2.4 0.6,4.5 4.5,5.2 3.9,0.7 7.6,-0.1 9.6,-1.1 z"
       inkscape:connector-curvature="0"
       style="opacity:0.4" />
    <path
       id="path8"
       d="m 111.4,188.3 c 0,0 -0.4,1.2 -2.3,4.6 -1.9,3.4 -4.8,5.4 -6.3,6.5 -1.5,1.1 -3.3,2.7 -2.9,4.3 1.6,7.1 15.9,5 19.6,-3.5 1.5,-3.5 7.5,-9.9 6.6,-12.5 -0.8,-2.4 -2.3,-4.9 -3.7,-5.3 -1.4,-0.4 -11,5.9 -11,5.9 z"
       inkscape:connector-curvature="0"
       style="fill:#825012" />
    <path
       id="path10"
       d="m 119.4,200.1 c 1.5,-3.5 7.5,-9.9 6.6,-12.5 -0.1,-0.4 -0.3,-0.8 -0.5,-1.2 -0.9,3.1 -4.7,7.4 -6,10.5 -4.6,11.2 -16.1,11.3 -19.7,6.1 v 0.7 c 1.6,7.1 16,5 19.6,-3.6 z"
       inkscape:connector-curvature="0"
       style="opacity:0.4" />
    <path
       id="path12"
       d="m 61.1,118.4 c 0,0 -3.2,5.9 -4.4,13.1 -1.2,7.2 -2.7,31.4 -2.5,39.1 0.4,20.2 -1.3,44.2 -1.9,45.9 -0.5,1.6 6.8,2.5 10.2,2.5 3.4,0 8.6,0.3 8.7,-1.4 0.1,-1.7 0.6,-22.6 0.9,-30.7 0.3,-8.1 -1.6,-15.2 0.7,-20.5 2.3,-5.3 8.3,-20.5 8.9,-26.4 0.7,-5.9 -0.9,-15.5 -0.9,-15.5 z"
       inkscape:connector-curvature="0"
       style="fill:#baa794" />
    <path
       id="path14"
       d="m 61.1,118.4 c 0,0 -3.2,5.9 -4.4,13.1 -1.2,7.2 -2.7,31.4 -2.5,39.1 0.4,20.2 -1.3,44.2 -1.9,45.9 -0.5,1.6 6.8,2.5 10.2,2.5 3.4,0 8.6,0.3 8.7,-1.4 0.1,-1.7 0.6,-22.6 0.9,-30.7 0.3,-8.1 -1.6,-15.2 0.7,-20.5 2.3,-5.3 8.3,-20.5 8.9,-26.4 0.7,-5.9 -0.9,-15.5 -0.9,-15.5 z"
       inkscape:connector-curvature="0"
       style="opacity:0.2" />
    <path
       id="path16"
       d="m 71.2,121.6 c 0.9,3.4 6.6,9.4 8.3,14.4 1.7,5 2.8,12.6 4.3,17.2 1.6,5.1 5,9.8 6.3,14.8 1.3,5 3.8,7.2 6.8,9.2 3,2 7.6,5.1 9.8,9 1.7,3.1 1.2,4.5 3.2,5.6 2,1.2 7.6,0.2 10.6,-2.1 3.3,-2.4 5.1,-4.4 4.4,-6.4 -0.7,-1.8 -3.4,-10.4 -11.1,-18.1 -3.4,-3.4 -5.1,-4.9 -5.5,-5.9 -0.4,-1 1,-12.3 1.4,-18.5 0.3,-5.2 0.1,-20.3 -3.7,-25 -2.5,-3.1 -3.8,-4.4 -3.8,-4.4 0,0 -6.9,3.2 -13.9,6.6 -8.1,3.8 -17.1,3.6 -17.1,3.6 z"
       inkscape:connector-curvature="0"
       style="fill:#baa794" />
    <path
       id="path18"
       d="m 80.9,51 c -5.8,-1 -14.8,-0.9 -16.8,4.2 -2,5.1 -7,20.6 -7.2,24 -0.3,3.4 1.1,7.9 1.4,11.7 0.6,6.6 1,16.7 0.7,24.4 -0.2,4.2 -1.9,8.8 -0.5,9.3 1.3,0.5 12.6,3.1 23.2,1.6 13.1,-1.8 25,-4.8 26,-7.5 0.7,-2 -2.4,-31.6 -1.7,-36.4 0.6,-4.2 0.4,-8.9 -1.4,-12.9 C 102.8,65.5 98.7,61.5 93.2,57.2 89.1,54.1 80.9,51 80.9,51 Z"
       inkscape:connector-curvature="0"
       style="fill:#e5e5e5" />
    <path
       id="path20"
       d="m 90.6,86.8 c 0,0 2.9,0 7.7,-1.2 4.9,-1.2 6.3,-2.1 6.3,-2.1 0,0 1.6,6.7 2.1,10.1 0.5,3.4 0.5,8.7 1,10.5 0.5,1.8 0.8,5.2 -2.4,9.7 -3.1,4.5 -17.3,21.1 -20.1,24.5 -2.8,3.4 -7.7,7.9 -10.7,7.9 -3,0 -6.6,-1 -7.9,-2.3 -1.3,-1.3 -1.6,-4.1 -0.4,-4.9 1.1,-0.8 4,-1.4 4,-1.4 l 0.7,-1.6 c 0,0 -0.7,0 -1.3,0 -0.6,0 -1.4,1.4 -2.5,1.6 -1.1,0.2 0,-2.5 0.3,-3.1 0.3,-0.7 2.5,-2 5.4,-2.4 2.9,-0.4 6.2,1 7.6,-1.2 1.4,-2.2 6.2,-12.2 9.2,-15.9 3,-3.7 7,-7.5 7,-8 0,-0.5 -2.7,-5.1 -4,-10.8 -1.1,-4.5 -2,-9.4 -2,-9.4 z"
       inkscape:connector-curvature="0"
       style="fill:#fbd7c7" />
    <path
       id="path22"
       d="m 68.1,34.6 c -2.8,4.4 -1.3,14.9 -0.9,17.5 0.4,2.6 1.1,5.5 3,6.2 1.9,0.7 3.6,1.5 3.6,2.7 0,1.2 -3,3.9 -1.7,4.7 1.3,0.8 8.5,0.9 14.5,-1.5 5.6,-2.3 7.2,-5 6.5,-6 -0.8,-0.9 -4.2,-2.9 -4.2,-5.9 0.1,-3.1 3.1,-7.9 3.2,-12.4 0.1,-9.1 -13.3,-14.6 -21.2,-8.3 -1,0.7 -2,1.7 -2.8,3 z"
       inkscape:connector-curvature="0"
       style="fill:#fbd7c7" />
    <path
       id="path24"
       d="m 81.7,30.2 c 5.6,3.1 -3.8,6.9 -1.6,9 1.9,1.8 1.9,7.3 2.9,9 1.2,2.1 2.4,-2.3 3.5,-3.4 1,-1 2.8,-1.2 3.3,0.3 0.5,1.5 -0.4,3.7 -0.5,4.3 C 90.9,49.1 93,43.7 92.6,38 92.2,31.2 82.5,24.7 71.9,30.7 c -2.1,1.2 -2.8,2.5 -1.7,1.6 2.1,-1.6 8,-4.1 11.5,-2.1 z"
       inkscape:connector-curvature="0"
       style="fill:#999999" />
    <path
       id="path26"
       d="m 91.6,101.5 c 0.2,1.9 1,4.9 -1.8,8.4 -4,5 -9.3,12.6 -12.2,16.7 1.3,-0.1 2.7,-0.2 4,-0.4 13.1,-1.8 25,-4.8 26,-7.5 0.4,-1.1 -0.3,-9.7 -0.9,-18.4 L 90,87.2 c 0,0 1.5,12.9 1.6,14.3 z"
       inkscape:connector-curvature="0"
       style="opacity:0.2" />
    <path
       id="path28"
       d="m 106.1,77.3 c 0.2,2.7 1.7,13.1 2.5,17.7 0.8,4.6 2.4,9.2 2.1,11.4 -0.3,2.2 -1.8,8.7 -5.2,12.8 -3.9,4.7 -9.6,11.1 -12.7,13.7 -1.8,1.5 -4.4,2.4 -4.4,2.4 l -2.6,3.1 -6.5,-7.1 2,-2.1 c 0,0 4.3,-9.8 6.9,-13.2 2.6,-3.3 7.1,-9.2 7.1,-9.2 0,0 -3.3,-8.7 -4,-11.8 -0.7,-3.1 -1.6,-9.7 -1.6,-9.7 z"
       inkscape:connector-curvature="0"
       style="fill:#e5e5e5" />
  </g>
</svg>
