<svg enable-background="new 0 0 80 240" viewBox="0 0 80 240" xmlns="http://www.w3.org/2000/svg"><path d="m7 71.8s-1.8 8.3-2.4 12.2c-.6 3.8-2.2 7.5-1.8 10.4s2.9 8 5.2 12c2.4 4.3 4.8 5.9 4.9 11.6.1 2.1-1.3 4.8.6 5.6s4.5.6 5.9.1 1.6-7.9 1.6-8.9c0-1.1-2.8-1.2-3.4-3.4-.6-2.3-4.8-13.6-4.5-15.8s3.8-12.9 3.8-12.9z" fill="#fbd7c7"/><path d="m65.9 229.5c20.1-7.7 8.6-18.7-10.6-22.1-8.4-1.5-17.1-18.6-38.1-5.2-16.9 10.8-1.6 17.2 7.1 21.2 11.9 5.6 22.9 13.3 41.6 6.1z" opacity=".2"/><path d="m17.1 61.7c1.3.1 6.4-6.1 5.9-8.8-.5-2.8-10.6-20 7-23.6 5.8-1.2 13.3 3 14.1 10.2.7 6 .4 14.9-1.9 16s-3.8.4-5.4 2.3-1.7 4.4-.7 7.1 3.7 3.4 3.7 3.4h-22.2z" fill="#fbd7c7"/><path d="m29.8 28.7c-17.7 3-6.9 24.9-7 25.3 1.8.9 5.3.9 6.9-.3 1.8-1.3 2.8-5.9 4.8-7.6s3.1-.1 3.2.5.1 1.3.1 1.3l1.4-.5s.8-2.5.9-5.8c.1-3.4-.7-6.8-.4-7.5.2-.6 1.4-.1 2.1-.3-2.5-4.2-7.9-5.8-12-5.1z" fill="#825012"/><path d="m15.6 213.5c-.2 2.6 2.6 5.1 6 4.2s7-3.8 10.9-5.4c4.5-1.9 8.3-3.1 9.3-6s-.5-6.4-7.3-6.1-11.5 5.7-11.5 5.7z" fill="#262626"/><path d="m17 215.4c4.1-.7 9.7-3.6 11.8-4.8 2.2-1.2 10.5-3.6 11.7-6.3s-4.8-5.2-9.1-3.7c-4.3 1.6-8.6 2.7-8.6 2.7z" fill="#fff"/><path d="m39.9 225.1c.3 1.9-.5 4.5 3.3 4.3 3.7-.2 10.9-1.6 13.7-1.8 2.7-.3 13.1-1.5 15.2-5.2 2-3.7.1-7.4-3-7.7s-7 2.2-10.4 1.4c-3.4-.7-8.3-2.7-8.3-2.7z" fill="#262626"/><path d="m42.2 225.3c2.6.3 8.1 0 12.8-.7 4.8-.7 14.3-1.8 16.3-5.6 1.5-2.9-.6-5-4.6-4.5-4.1.6-3.3 1.4-6.9 1.4-3.6.1-8.6-1.7-8.6-1.7l-9.2 11z" fill="#fff"/><path d="m15.9 112.5c-2 3.1-6.6 9.7-3.6 24.1 2.9 14.3 5.8 25.2 3.9 30.4s-3.7 13-3.4 17.4 0 8.1-.3 10.8-1.4 14.6 0 17.8c1.4 3.1 3.8 4.7 7.8 3.7s9.1-4.8 9.7-6.9c1.5-4.8-1-14.7.3-19.9 1-3.8 2.1-8 2.3-11.5s1.6-12 3.8-22.4c2.3-10.4 6.8-22.3 6.1-30.2-.8-8-26.6-13.3-26.6-13.3z" fill="#06547a"/><path d="m15.9 112.5c-2 3.1-6.6 9.7-3.6 24.1 2.9 14.3 5.8 25.2 3.9 30.4s-3.7 13-3.4 17.4 0 8.1-.3 10.8-1.4 14.6 0 17.8c1.4 3.1 3.8 4.7 7.8 3.7s9.1-4.8 9.7-6.9c1.5-4.8-1-14.7.3-19.9 1-3.8 2.1-8 2.3-11.5s1.6-12 3.8-22.4c2.3-10.4 6.8-22.3 6.1-30.2-.8-8-26.6-13.3-26.6-13.3z" opacity=".2"/><path d="m23.3 117.8c-2.2 5.7-3.4 14.6-.7 19.1s7.2 10.3 8.5 14.3c1.4 4 5.9 12.4 5.8 15.7s-2.2 18.1-1.3 28.5 2.1 21.6 1.8 24.3.7 9.4 4.3 9.5 13.1-3.6 15.8-8.1c2.1-3.4 1.1-4.9 0-5.7s-2.8-3.6-3.4-7.5c-.6-3.8-.1-23.6 1.2-29.1s2-7.9 1-13.1-4.4-26.3-5.3-32.8-1.6-12-1.6-12z" fill="#06547a"/><path d="m18.3 61s-6.6-1.9-10.4 1.9-2.4 7.9-.8 13 9.9 25.1 9.4 29.5c-.5 4.3-3.7 11.1-3.5 12.8.2 1.6 8 8.4 18.6 9.9s17.2-.3 17.3-1.4c.1-1.2.3-14.8-.9-20.9s-1.4-11.9.4-17.2 3-10.7 1.7-13.9c-1.3-3.1-3.3-4.7-6.4-6.2-3.1-1.4-6.7-2-6.7-2s-7.9 2.1-14.3 0c-8-2.7-4.4-5.5-4.4-5.5z" fill="#e5e5e5"/><path d="m35.1 84.5s5 1.3 8.6.7 5-1.4 5-1.4-1.2 4-1.7 5.4c-.9 3-1.8 8.5-1.9 10.9s-.3 5.1-.3 5.1 2.2 2.5 3.3 6.5c1.2 4 1.8 7.4 2.9 9.1 1.2 1.8 2.3 3.7 2.5 6.7.2 2.9.8 8.5-1.2 10s-5.9 3-7.5 2.3c-1.6-.8-2.3-2.1-2-2.6s1.5 1.3 2.8-.2c1.4-1.5 1.2-2.8.6-5.4s.7-4.5.3-5.4-9.5-12.5-10.5-17.9-.9-23.8-.9-23.8z" fill="#fbd7c7"/></svg>