<svg enable-background="new 0 0 80 240" viewBox="0 0 80 240" xmlns="http://www.w3.org/2000/svg"><path d="m25.1 232.5c-7.1-2.5-24.4-15.1-3.3-21.1 18.7-5.3 23-20.5 45-8.2 10.9 6.1 7.4 14.1-10.8 18.5-12.2 3-14.4 16.5-30.9 10.8z" opacity=".2"/><path d="m46.9 20.9c6.3-1.8 11.7 1.6 13.7 6.4 2.1 4.8 2 12.6 1.5 15.4-.5 2.9-1.6 7.2-1.6 7.2s7.8 7.7 8.8 17.2-3.9 15.8-3.7 23 3.9 33.7 3.2 41.2c-.7 7.6-10 22.8-10.8 26.9s-1.9 24.4-1.8 28.8 1.4 12.1 4.5 14.2c3.1 2.2 10 5.9 11.2 7.1 1 1 .9 4.3-3.3 4.5-4.3.2-4.4-.5-5.9-1.3s-5.5-4.2-7.1-4.7-6.5.1-7.8-1.8-.8-5.6-.2-7.5.8-6 .5-7.8-4.9-17.9-5.1-22.1 1.4-10 1.9-12.3 2.6-12 2.6-12-7.2 13.5-8.4 15.4-5.5 8.7-7.1 12.6-8.1 28.8-8.9 33.4-.9 10.9.9 12.8 9.3 8.1 10.5 9 3 2.4 1.8 3.5-8.2 1.8-10.3 1.3-6.6-4.4-8-6.1-4.7-2.3-4.7-4.2c0-.7.6-3 .8-5.4.3-4.1.2-9.1.1-12.5-.1-5.4-2.1-20.5-.2-25.9s6.2-11.2 6.7-13.7c.5-2.6 2.4-23.7 3.8-28.1s5-19.2 5.6-21.3 5.1-10.2 4.9-13.6c-.2-3.5-5.8-13.1-6.6-15.1s-2.9-9.2-3.2-11.7-5.2-13.5.8-17.7 12.2-4.6 13.6-7 .6-6.5-.3-9.6c-.8-3.1-5.2-14.8 7.6-18.5z" fill="#fbd7c7"/><path d="m40.3 45.9s.9-1.7.9-2.8c0-.5-2.8-6.5-.9-7.5s4 1.2 4 1.2 1.5-4 4-4.7 6.2 2.2 10.1.8 4-2.1 3.7-3.7-3.7-10.4-13.9-9-11.7 9.3-11.1 13c.4 2.2 3.1 9.6 3.1 10.2.1 1.3.1 2.5.1 2.5z" fill="#762c07"/><path d="m34.3 102.9s15 2.2 21 1.9 11.6-2.1 11.6-2.1 1.7 8.6 2.5 16.3c.5 5.1-.9 17.2-1.8 21.3s-1.4 6.4-1.4 6.4l-20.8.5 1.6-32.5z" fill="#36c"/><path d="m34.3 102.9s15 2.2 21 1.9 11.6-2.1 11.6-2.1 1.7 8.6 2.5 16.3c.5 5.1-.9 17.2-1.8 21.3s-1.4 6.4-1.4 6.4l-20.8.5 1.6-32.5z" opacity=".2"/><path d="m34.3 102.9s9.3 1.8 12 1.8h13.3s-4.4 18.4-5.1 22.5-4.4 14.9-4.8 15.8-3.1 6-3.1 6-6.3-.1-12.8-1.1-13.6-4.5-13.6-4.5 5.6-17.1 6.6-19.5 1-9.9 3.2-13.9c2.2-4.1 4.3-7.1 4.3-7.1z" fill="#36c"/><path d="m60.5 49.9s0 2.8-3 2.6-10.9-4.1-10.9-4.1 6.3 10.5 10.6 10.1c3.1-.2 3.3-8.6 3.3-8.6z" opacity=".1"/><path d="m25.2 73.7c.3 2.5 2.4 9.7 3.2 11.7s6.4 11.7 6.6 15.1c0 .9-.2 2-.6 3.3.9-.8 1.8-2.5 1.5-6-.5-6.1-4.6-22.6-4.6-24.7s-1.9-5.6-1.9-5.6l-4.2 6.1z" opacity=".1"/><path d="m28.9 55.5c-2.8-.3-6.8 2.7-8.5 6.1s-2.6 6.1-3.8 7.5-4.9 5.3-6.5 8-8.1 11.4-9 13.5 3.4 9.3 7.5 14.3c4.1 5.1 9.6 14.3 10.3 15.5s2 4.8 4.1 7.3c2.2 2.6 3.2 3.3 5.7 4.8 2.1 1.3 3.2 2.1 6.3 1.7s4.9-3.5 4.5-5.3-5.7-5-6.7-5.9-7-7.1-8-7.8-6.4-14.4-7-15.6-4.4-7.1-4.4-7.1 5.7-3.5 8.9-6.4 5.2-6.7 6.8-7.4 7.1-5.5 7.9-10.4c.9-5.2-.9-12-8.1-12.8z" fill="#fbd7c7"/></svg>