<?xml version="1.0" encoding="UTF-8" standalone="no"?>
<svg
   xmlns:dc="http://purl.org/dc/elements/1.1/"
   xmlns:cc="http://creativecommons.org/ns#"
   xmlns:rdf="http://www.w3.org/1999/02/22-rdf-syntax-ns#"
   xmlns:svg="http://www.w3.org/2000/svg"
   xmlns="http://www.w3.org/2000/svg"
   xmlns:sodipodi="http://sodipodi.sourceforge.net/DTD/sodipodi-0.dtd"
   xmlns:inkscape="http://www.inkscape.org/namespaces/inkscape"
   enable-background="new 0 0 80 240"
   viewBox="0 0 8.8146515 23.773227"
   version="1.1"
   id="svg56"
   sodipodi:docname="city--fireman02.svg"
   width="8.8146515"
   height="23.773228"
   inkscape:version="0.92.2 (5c3e80d, 2017-08-06)">
  <metadata
     id="metadata62">
    <rdf:RDF>
      <cc:Work
         rdf:about="">
        <dc:format>image/svg+xml</dc:format>
        <dc:type
           rdf:resource="http://purl.org/dc/dcmitype/StillImage" />
        <dc:title></dc:title>
      </cc:Work>
    </rdf:RDF>
  </metadata>
  <defs
     id="defs60" />
  <sodipodi:namedview
     pagecolor="#ffffff"
     bordercolor="#666666"
     borderopacity="1"
     objecttolerance="10"
     gridtolerance="10"
     guidetolerance="10"
     inkscape:pageopacity="0"
     inkscape:pageshadow="2"
     inkscape:window-width="1360"
     inkscape:window-height="706"
     id="namedview58"
     showgrid="false"
     fit-margin-top="0"
     fit-margin-left="0"
     fit-margin-right="0"
     fit-margin-bottom="0"
     inkscape:zoom="0.98333333"
     inkscape:cx="-202.20042"
     inkscape:cy="115.00185"
     inkscape:window-x="-8"
     inkscape:window-y="-8"
     inkscape:window-maximized="1"
     inkscape:current-layer="svg56" />
  <g
     id="g91"
     transform="matrix(0.11113306,0,0,0.11113306,-0.07501482,-2.3432475)">
    <path
       id="path2"
       d="m 61.7,26.7 c 0.5,1.6 -3,5.2 -7.9,4.6 -4.9,-0.6 -5.5,-9.4 1,-10.2 2,-0.3 6.4,4 6.9,5.6 z"
       inkscape:connector-curvature="0"
       style="opacity:0.5;fill:#999999" />
    <path
       id="path4"
       d="m 68.3,231.5 c 26.9,-13.2 1,-17.9 -14.1,-26.3 -20.8,-11.6 -27.5,-15.7 -43,-6.1 -17.1,10.6 0.2,17.9 16.1,25.3 18,8.4 25,14.9 41,7.1 z"
       inkscape:connector-curvature="0"
       style="opacity:0.2" />
    <path
       id="path6"
       d="m 11.8,210.4 c -0.3,1.9 -0.7,3.5 2,4.2 2.6,0.7 5.4,0.3 7.9,-1.7 2.5,-2 3.7,-3.1 7.1,-4.1 3.4,-1 5,-4 5,-6.5 0,-2.5 -2.1,-4.7 -6.5,-3.3 -4.5,1.4 -6.8,3.3 -6.8,3.3 z"
       inkscape:connector-curvature="0"
       style="fill:#656565" />
    <path
       id="path8"
       d="m 33.8,202.2 c 0,-0.8 -0.2,-1.5 -0.6,-2.2 0.5,2.2 0.3,6.4 -7.5,8 -2.4,0.5 -5.8,3.7 -8.3,4.5 -1.9,0.6 -4.3,0 -5.7,-1.1 -0.2,1.4 0,2.6 2.1,3.2 2.6,0.7 5.4,0.3 7.9,-1.7 2.5,-2 3.7,-3.1 7.1,-4.1 3.5,-1 5,-4 5,-6.6 z"
       inkscape:connector-curvature="0"
       style="opacity:0.5" />
    <path
       id="path10"
       d="m 51.7,227.3 c 0,2.6 -1.1,5 2.2,5.6 3.3,0.6 10.3,-3.8 13,-4.5 2.9,-0.8 9.9,-3.6 9.9,-6.1 0,-2.5 -2.9,-5.2 -6.1,-5 -3.1,0.3 -9.1,0.7 -9.1,0.7 z"
       inkscape:connector-curvature="0"
       style="fill:#656565" />
    <path
       id="path12"
       d="m 76.7,222.3 c 0,-1.4 -0.9,-2.8 -2.2,-3.8 3.9,4.7 -2.5,6.3 -6.2,7.3 -4.5,1.2 -9.5,4.2 -12.2,5 -1.9,0.5 -3.5,-0.1 -4.6,-0.7 0,1.4 0.3,2.5 2.3,2.9 3.3,0.6 10.3,-3.8 13,-4.5 2.9,-0.9 9.9,-3.7 9.9,-6.2 z"
       inkscape:connector-curvature="0"
       style="opacity:0.5" />
    <path
       id="path14"
       d="m 29.2,98.9 c -2.6,4.5 -5.2,11.4 -6.9,20.4 -1.7,9 -3.1,28.8 -5.8,40.6 -2.7,11.8 -4.6,18.2 -6.5,31.2 -1.9,13 -2,20.1 1.3,21.6 3.1,1.4 7.9,0.8 11.1,-1.7 4.2,-3.2 5.3,-7.5 5.3,-9.9 0,-2.4 2.3,-10.3 3.7,-16.8 1.4,-6.5 6.5,-28.8 9.4,-37.6 2.8,-8.8 8.5,-38.7 8.5,-38.7 z"
       inkscape:connector-curvature="0"
       style="fill:#262626" />
    <path
       id="path16"
       d="m 29.2,98.9 c -2.6,4.5 -5.2,11.4 -6.9,20.4 -1.7,9 -3.1,28.8 -5.8,40.6 -2.7,11.8 -4.6,18.2 -6.5,31.2 -1.9,13 -2,20.1 1.3,21.6 3.1,1.4 7.9,0.8 11.1,-1.7 4.2,-3.2 5.3,-7.5 5.3,-9.9 0,-2.4 2.3,-10.3 3.7,-16.8 1.4,-6.5 6.5,-28.8 9.4,-37.6 2.8,-8.8 8.5,-38.7 8.5,-38.7 z"
       inkscape:connector-curvature="0"
       style="opacity:0.2" />
    <path
       id="path18"
       d="m 36,105.9 c -1.7,3.6 -2.9,20.2 -0.9,25.7 2.4,6.4 8.5,32.7 10.1,48.9 0.5,5.1 2.9,42.2 3,45.8 0.1,3.5 2.1,4.9 6.4,5.2 4.3,0.3 13,-5.4 13.6,-10.3 0.7,-4.9 0.1,-6.3 -0.1,-9 -0.2,-2.7 -1.4,-17.3 -1.6,-25.3 -0.2,-8 0.5,-46.9 -1.2,-57.8 -1.6,-10.9 -4.5,-21.5 -4.5,-21.5 z"
       inkscape:connector-curvature="0"
       style="fill:#262626" />
    <path
       id="path20"
       d="m 65.1,75.2 c -2.3,-7.7 -8.6,-13.5 -8.6,-13.5 0,0 0.9,-5.5 -1,-6.6 C 53.6,54 47.7,54.5 43.1,52.9 38.5,51.4 38.9,51.6 38.9,51.6 l 0.5,-3 c 0,0 -3.5,-1.7 -4.8,-0.5 -1.3,1.2 -0.8,4.6 -0.8,4.6 0,0 -7.5,-1.3 -10.2,0 C 20.9,54 17.4,56 15.3,58.3 13.1,61 2.7,72.7 1.5,74.9 c -1.2,2.2 -0.9,6.6 -0.3,8.6 1,3.1 6.7,8.9 12.7,11.9 5.8,2.9 8.2,2.3 10.8,4.8 -0.8,5.4 -2.4,9.2 -2.2,10.2 0.3,2.5 4.1,1.9 6.2,3.1 5.9,3.4 21.3,5.3 26.9,5.4 5.6,0 9.4,-1.6 9.4,-1.6 0,0 0,-19.6 0.5,-24 0.5,-3.8 1.9,-10.4 -0.4,-18.1 z m -46.8,6.4 c 0,0 -0.8,-1.9 0.7,-2.2 1.5,-0.3 3.7,-3.5 3.7,-3.5 0,0 0.5,5.7 1.3,11.1 -3,-2.5 -5.7,-5.4 -5.7,-5.4 z"
       inkscape:connector-curvature="0"
       style="fill:#262626" />
    <path
       id="path22"
       d="m 36.7,51.8 c 0,0 2.8,-1.4 2.7,-5 0,-3.6 -4.3,-11.8 0,-18.1 4.3,-6.3 15.7,-7.7 20.2,0.6 4.7,8.6 0,20.2 -1.5,21 -1.5,0.8 -3.9,0.1 -4.5,0.6 -0.6,0.5 -0.5,2.8 -0.4,4.3 0.1,1.6 -6.8,2.3 -11,1.7 -4.1,-0.4 -5.5,-5.1 -5.5,-5.1 z"
       inkscape:connector-curvature="0"
       style="fill:#fbd7c7" />
    <path
       id="path24"
       d="m 39.2,45.3 c 0.4,1.2 2.7,3.3 6.1,3.1 3.4,-0.2 6.9,-4.1 7.6,-6.3 0.7,-2.3 1.2,-4.1 2.6,-3.7 1.4,0.4 0.3,2.4 0.9,2.4 0.7,0 4.8,-7.9 4.3,-9.8 -0.3,-1.2 -1.4,-4.6 -5.7,-7 -4.5,-2.4 -15.1,-2.3 -17.4,7.4 -1.5,6.2 1.6,13.9 1.6,13.9 z"
       inkscape:connector-curvature="0"
       style="fill:#825012" />
    <path
       id="path26"
       d="m 47.2,213.2 0.2,2.5 c 0,0 4,1.6 8.7,0.9 7.3,-1.1 11.9,-6.5 11.9,-6.5 l -0.1,-2.3 c 0,0 -5,4.8 -11.8,6.3 -5.3,1.3 -8.9,-0.9 -8.9,-0.9 z"
       inkscape:connector-curvature="0"
       style="fill:#ffcc00" />
    <path
       id="path28"
       d="m 46.8,207.6 0.2,2.5 c 0,0 4,1.6 8.7,0.9 7.3,-1.1 11.9,-6.5 11.9,-6.5 l -0.1,-2.3 c 0,0 -5,4.8 -11.8,6.3 -5.4,1.3 -8.9,-0.9 -8.9,-0.9 z"
       inkscape:connector-curvature="0"
       style="fill:#ffcc00" />
    <path
       id="path30"
       d="m 65,107 c 0,0 -0.5,5.2 -0.5,6.1 0,0.9 -2.2,3.6 -2.2,3.6 0,0 0,1.1 0.3,1.5 0.3,0.3 1,2 1.1,2.4 0.1,0.4 4.3,-1.4 4.8,-3.6 0.5,-2.2 0.2,-7.7 -0.9,-8.7 C 66.4,107.1 65,107 65,107 Z"
       inkscape:connector-curvature="0"
       style="fill:#656565" />
    <path
       id="path32"
       d="m 35.6,37.9 c 0,0 -10.3,15.2 -0.4,16.5 9.9,1.3 22.6,-7.6 26.6,-14.9 3.2,-5.9 4,-10.5 1.2,-13 -2.7,-2.4 -10.9,0.7 -10.9,0.7 z"
       inkscape:connector-curvature="0"
       style="fill:#262626" />
    <path
       id="path34"
       d="m 36.9,45 c -1.1,-0.8 -5.1,-12.9 2.4,-20.1 7.5,-7.2 21.5,-2.3 22.2,4.7 0.7,6.9 -15.1,22 -24.6,15.4 z"
       inkscape:connector-curvature="0"
       style="fill:#ffcc00" />
    <path
       id="path36"
       d="m 50.7,44.2 c 0,0 11.4,-6.2 11.3,-15.9 0,-3.4 -4.8,-7.2 -7.1,-7.2 2.5,0.6 2.7,3.1 2.1,7.8 -1.2,8.6 -6.3,15.3 -6.3,15.3 z"
       inkscape:connector-curvature="0"
       style="opacity:0.5;fill:#999999" />
    <g
       id="g54"
       style="fill:#ffcc00">
      <path
         id="path38"
         d="m 22.7,75.9 0.1,-2.5 c 0,0 -2.1,-2.6 -4.1,-5.4 -2,-2.8 -4.1,-8.8 -4.1,-8.8 l -2.1,2.4 c 0,0 2.7,6 4.3,8.4 1.6,2.4 5.2,6.8 5.2,6.8 z"
         inkscape:connector-curvature="0" />
      <path
         id="path40"
         d="m 20.6,78.5 c 0,0 -0.4,0.5 -1,0.8 -0.7,0.3 -1.1,0.4 -1.1,0.4 0,0 -3.1,-1.8 -4.9,-4.6 -4,-6.1 -5,-9 -5,-9 l 2,-2.2 c 0,0 1,3.3 5.3,9.9 1.8,2.9 4.7,4.7 4.7,4.7 z"
         inkscape:connector-curvature="0" />
      <path
         id="path42"
         d="m 22.7,74.9 c 0,0 4,2.9 10.2,5.2 6.2,2.4 16.2,3.9 16.2,3.9 l 0.1,3.3 c 0,0 -7.3,-0.6 -17.3,-4.2 C 26,81 22.8,78.8 22.8,78.8 Z"
         inkscape:connector-curvature="0" />
      <path
         id="path44"
         d="m 23.3,82.9 c 0,0 1.8,2.1 10,5.1 6.3,2.3 16.2,4.3 16.2,4.3 l 0.1,2.9 c 0,0 -10.8,-2.2 -17.3,-4.5 -3.5,-1.2 -8.4,-4.1 -8.4,-4.1 z"
         inkscape:connector-curvature="0" />
      <path
         id="path46"
         d="m 49.4,90.2 0.2,3.1 c 0,0 2.8,1.2 7.4,1.7 3.6,0.4 8.6,-0.8 8.6,-0.8 l 0.3,-2.8 c 0,0 -3.6,1.5 -8.9,0.9 -5.7,-0.7 -7.6,-2.1 -7.6,-2.1 z"
         inkscape:connector-curvature="0" />
      <path
         id="path48"
         d="m 49.7,96.7 0.2,3.1 c 0,0 2.8,1.6 7.4,1.7 3.6,0.1 8.1,-0.8 8.1,-0.8 v -2.8 c 0,0 -2.8,1.1 -8.1,0.9 -5.8,-0.2 -7.6,-2.1 -7.6,-2.1 z"
         inkscape:connector-curvature="0" />
      <path
         id="path50"
         d="M 9.3,194.9 9,197.8 c 0,0 0.7,2.7 5.5,3.2 6,0.6 14.5,-5.5 14.5,-5.5 l 0.6,-2.8 c 0,0 -9.4,5.7 -14.7,5.6 -3.4,0 -5.6,-3.4 -5.6,-3.4 z"
         inkscape:connector-curvature="0" />
      <path
         id="path52"
         d="m 10.3,188.7 -0.3,2.8 c 0,0 0.3,3 5.2,3.5 5.7,0.6 15.2,-5.1 15.2,-5.1 l 0.5,-2.1 c 0,0 -10.6,5 -15.1,4.8 -3.6,-0.3 -5.5,-3.9 -5.5,-3.9 z"
         inkscape:connector-curvature="0" />
    </g>
  </g>
</svg>
