<svg enable-background="new 0 0 160 240" viewBox="0 0 160 240" xmlns="http://www.w3.org/2000/svg"><path d="m120.5 228.6c-13.9 9.2-34-2.2-51.1-6.5-20.2-5.2-41.9-10.9-32.2-22.2s29.7-14.9 42 0c9.7 11.4 61.9 15.1 41.3 28.7z" opacity=".2"/><path d="m40 207.9c1.6 2.3 2.3 4.3 7.6 2.1 5.3-2.3 8.1-4.3 13.9-6.1s7.5-4.2 7.1-7.3c-.4-3-4-4.1-8.9-2.5-4.9 1.7-14.8 4.9-14.8 4.9z" fill="#262626"/><path d="m43.6 207.9c1.9-.6 7.4-2.7 12.6-4.8 2.7-1.1 9.9-2.2 11-6.2.4-1.7-.2-3.8-5.2-2.9s-14.1 3.7-14.1 3.7l-4.6 10.3z" fill="#fff"/><path d="m84.1 224.3c3.6 1.4 8.5 2.1 13.4 2.7 4.8.7 14.2 1.4 17.9-.8 3.6-2.2 3.4-4.8 2.4-7-1-2.1-3.6-3.3-9.4-2.7s-12.8-4.5-12.8-4.5l-13 4z" fill="#262626"/><path d="m86.4 220.9c3.9 2.1 9.2 3.4 16.7 3.9 7.7.5 12.2-.2 14-3.9 1.4-2.9-2.9-4.6-8-4.3s-16.6-6.3-16.6-6.3z" fill="#fff"/><path d="m54.7 102.4c-2.1 3.3-5.6 10.5-6 17s-5.1 42.2-7.5 49.2c-2.4 7.1-1.4 12.8-2.6 16s-2.3 15.1-1.3 19.7 2.1 6.2 5.6 5.6c3.5-.5 9.2-6.3 11.3-8.5s0-3.6-.2-5.8c-.1-2.2.1-11.4 1.7-14.4s.5-8 1.7-10.6 2.9-10.7 5-15.2 5.4-9.9 6.7-14.7c1.3-4.7-.5-28.5-.5-28.5z" fill="#06547a"/><path d="m54.7 102.4c-2.1 3.3-5.6 10.5-6 17s-5.1 42.2-7.5 49.2c-2.4 7.1-1.4 12.8-2.6 16s-2.3 15.1-1.3 19.7 2.1 6.2 5.6 5.6c3.5-.5 9.2-6.3 11.3-8.5s0-3.6-.2-5.8c-.1-2.2.1-11.4 1.7-14.4s.5-8 1.7-10.6 2.9-10.7 5-15.2 5.4-9.9 6.7-14.7c1.3-4.7-.5-28.5-.5-28.5z" opacity=".2"/><path d="m61.4 111.7c-2.1 6.3-4.3 15.1-1.7 19.4s5.2 5.6 7.5 10.7 5.6 17.2 4.6 24.7c-1 7.6 3.4 33.8 4.7 38.4s3.8 10.5 3.7 12.4c-.1 2 0 5.5 2.9 6.8s15.2-2.2 17.5-5.2c1.7-2.2 2.4-4.1.6-5.9s-4.8-2.9-5-5c-.1-2.1-1.8-7.5-2.6-13.6-.8-6.2-2.6-19.6-1.8-24.6s0-5.2-.7-12.7-1.2-32.2-4.1-37.6-25.6-7.8-25.6-7.8z" fill="#06547a"/><path d="m70 25.6c5.7.5 7.5 3.9 8.2 8.2.8 4.3-.3 12.5-.9 14.2-.5 1.4-2.3 2.9-3.1 3.8s-1.8 4.5-1 6.6c.9 2.1 2.7 3.5 2.7 3.5s-9.8 2-13.9 1.4c-4.1-.7-11.5 7.7-14.4 9.1s-8.2 4.5-8.2 4.5 3.9 4 5.7 6.3c1.8 2.4 5.4 8.6 6.3 9.1s2.6-.1 3.7 1.8c1.2 1.9 2.7 6.3 1.1 7.6-1.6 1.2-4.6-3.3-5.8-3.9-1.1-.6-4.2-3.7-6.7-5.4-2.6-1.6-14.9-12-15.8-15.6-.9-3.5 0-5.2 2.7-7.5 2.7-2.4 10.3-9.1 13.2-10.1 2.8-1 9.6-2.1 9.6-2.1s2.8-.2 4.6-3.2 2.6-4.1 1.6-6.5c-1-2.5-5-10.7-1.4-16.4 3.8-5.7 8.7-5.7 11.8-5.4z" fill="#fbd7c7"/><path d="m75.2 61.5s9.8 1 12.2 5.2 3.1 8.1 3.1 8.1-6.6 2.4-8.4 3.4 3.7 6.1 3.7 6.1-.3 12.6 0 17.5 1.5 17.9 1.5 17.9-8.6 4-21.6-.1-15.1-9.4-15.3-9.7 5.2-6.9 4.3-13.2c-1-6.3-9.3-22.9-9.3-22.9s-2-2.2-3.1-4.9-1.7-5.9-2-6.9c-.1-.5 1.3-4.5 6.4-6.6 5.1-2 11.2-.8 11.2-.8s-1 1.2-2.2 2-2.8 4 5.8 5.9c8.4 1.8 13.7-1 13.7-1z" fill="#e5e5e5"/><path d="m78.2 81.4s1.6-2.4 4.6-3.9 7.7-2.7 7.7-2.7 1.4 6.4 2.2 8c.9 1.6 7.8 13.3 8.3 15.3s-.5 5.4-3.4 6.9c-2.9 1.4-9.2 3.7-10.7 4s-2.9 1.2-5.2.7-3.5-1.8-2.4-3.3c1.1-1.4-.1-.9.1-2.3s1.2-2.4 3.6-2c2.4.3 1.6.6 2.3.6s.6-.6 2-2.2 2.6-2.4 2.6-2.4-3.4-3.9-5.1-7.6-6.6-9.1-6.6-9.1z" fill="#fbd7c7"/><path d="m77.4 37.3c-.2-1.2.1-3.9.5-5.3-1-3.4-3-6-7.8-6.4-3.1-.3-8.1-.3-11.7 5.4s.4 13.9 1.4 16.4c.3.8.5 1.5.4 2.2 0 .3 4.4 1.5 7.3 1.4 2.9 0 6.5-4.7 6.5-5.7 0-.9.7-3.1 1.9-3.8 1.1-.7.9.6.9.6l.5.5s.3-3.6.1-5.3z" fill="#825012"/></svg>