<?xml version="1.0" encoding="UTF-8" standalone="no"?>
<svg
   xmlns:dc="http://purl.org/dc/elements/1.1/"
   xmlns:cc="http://creativecommons.org/ns#"
   xmlns:rdf="http://www.w3.org/1999/02/22-rdf-syntax-ns#"
   xmlns:svg="http://www.w3.org/2000/svg"
   xmlns="http://www.w3.org/2000/svg"
   xmlns:sodipodi="http://sodipodi.sourceforge.net/DTD/sodipodi-0.dtd"
   xmlns:inkscape="http://www.inkscape.org/namespaces/inkscape"
   enable-background="new 0 0 160 240"
   viewBox="0 0 10.920662 28.509959"
   version="1.1"
   id="svg56"
   sodipodi:docname="city--fireman01.svg"
   width="9.1005516"
   height="23.758299"
   inkscape:version="0.92.2 (5c3e80d, 2017-08-06)">
  <metadata
     id="metadata62">
    <rdf:RDF>
      <cc:Work
         rdf:about="">
        <dc:format>image/svg+xml</dc:format>
        <dc:type
           rdf:resource="http://purl.org/dc/dcmitype/StillImage" />
        <dc:title></dc:title>
      </cc:Work>
    </rdf:RDF>
  </metadata>
  <defs
     id="defs60" />
  <sodipodi:namedview
     pagecolor="#ffffff"
     bordercolor="#666666"
     borderopacity="1"
     objecttolerance="10"
     gridtolerance="10"
     guidetolerance="10"
     inkscape:pageopacity="0"
     inkscape:pageshadow="2"
     inkscape:window-width="1360"
     inkscape:window-height="706"
     id="namedview58"
     showgrid="false"
     scale-x="1.2"
     fit-margin-top="0"
     fit-margin-left="0"
     fit-margin-right="0"
     fit-margin-bottom="0"
     inkscape:zoom="11.125147"
     inkscape:cx="-25.42068"
     inkscape:cy="8.5519285"
     inkscape:window-x="-8"
     inkscape:window-y="-8"
     inkscape:window-maximized="1"
     inkscape:current-layer="svg56" />
  <g
     id="g91"
     transform="matrix(0.13194975,0,0,0.13194975,-5.3081016,-2.4542653)">
    <path
       style="fill:#656565"
       inkscape:connector-curvature="0"
       id="path2"
       d="m 55.6,77.6 c -0.1,6.6 -2,14.5 -3.7,20 -1.7,5.5 -0.7,11.3 -0.1,12.5 0.6,1.2 2,5.3 2.3,6.2 0.3,0.9 1.8,0.9 2,-0.9 0.3,-1.8 -0.4,-5.5 0.2,-6.6 0.7,-1.1 2.6,-0.1 3,-2.6 0.4,-2.5 -0.7,-6.5 -0.1,-8.4 0.5,-1.9 3.2,-6.3 3.1,-9.3 -0.1,-3 0.1,-10.3 0.1,-10.3 z" />
    <path
       style="fill:#656565"
       inkscape:connector-curvature="0"
       id="path4"
       d="m 56.9,194.4 c -2.2,2.3 -5.1,5.4 -8.1,7 -3,1.6 -5.8,3.8 -5.3,6 0.5,2.2 3.9,4.6 10.1,3 3.7,-0.9 5.3,-4.4 7.9,-5.1 2.6,-0.7 6.5,-2.3 6.8,-3.6 0.3,-1.3 0.3,-5.2 0.3,-5.2 z" />
    <path
       style="opacity:0.5"
       inkscape:connector-curvature="0"
       id="path6"
       d="m 68.2,201.7 c 0.1,-0.4 0.1,-0.9 0.2,-1.5 -1.3,1.1 -4.3,2.5 -7.1,3.3 -3.4,0.9 -5.8,4.8 -9.4,5.9 -3.2,0.9 -8,-0.5 -8.4,-3.3 -0.2,0.5 -0.2,0.9 -0.1,1.4 0.5,2.2 3.9,4.6 10.1,3 3.7,-0.9 5.3,-4.4 7.9,-5.1 2.5,-0.8 6.5,-2.3 6.8,-3.7 z" />
    <path
       style="fill:#262626"
       inkscape:connector-curvature="0"
       id="path8"
       d="m 57.7,101.8 c 0,0 -3,9.5 -4,23.3 -1,13.8 -0.1,35.1 -0.1,46 0,10.9 -0.7,20.1 -1.4,22.2 -0.7,2.1 -1.3,6 -0.4,6.8 1.3,1.1 7.9,2.7 10.8,3.2 6.1,1 8.4,-3.8 9,-5.7 0.6,-1.9 2.7,-23.2 2.4,-30.6 -0.3,-7.4 0.8,-11.2 1.8,-18.9 0.9,-6.8 3.3,-27.2 3.3,-27.2 L 79.4,107 Z" />
    <path
       style="opacity:0.2"
       inkscape:connector-curvature="0"
       id="path10"
       d="m 57.7,101.8 c 0,0 -3,9.5 -4,23.3 -1,13.8 -0.1,35.1 -0.1,46 0,10.9 -0.7,20.1 -1.4,22.2 -0.7,2.1 -1.3,6 -0.4,6.8 1.3,1.1 7.9,2.7 10.8,3.2 6.1,1 8.4,-3.8 9,-5.7 0.6,-1.9 2.7,-23.2 2.4,-30.6 -0.3,-7.4 0.8,-11.2 1.8,-18.9 0.9,-6.8 3.3,-27.2 3.3,-27.2 L 79.4,107 Z" />
    <path
       style="fill:#ffcc00"
       inkscape:connector-curvature="0"
       id="path12"
       d="m 53.5,180.3 c 0,0 3.3,2.7 7.4,2.9 4,0.3 12.8,-2.7 12.8,-2.7 l -0.2,2.3 c 0,0 -7.2,2.5 -12.2,2.4 -5,-0.1 -7.9,-3 -7.9,-3 z" />
    <path
       style="fill:#ffcc00"
       inkscape:connector-curvature="0"
       id="path14"
       d="m 53,186.1 c 0,0 3.3,2.7 7.4,2.9 4,0.3 12.8,-2.7 12.8,-2.7 l -0.2,2.3 c 0,0 -7.2,2.5 -12.2,2.4 -5,-0.1 -7.9,-3 -7.9,-3 z" />
    <path
       style="fill:#262626"
       inkscape:connector-curvature="0"
       id="path16"
       d="m 56.9,36.2 c 0,0 5.1,3.1 14.8,4.5 9.6,1.3 12.4,1.1 12.4,1.1 0,0 -5.5,-5.6 -13.1,-6.8 -7.6,-1.2 -14.1,1.2 -14.1,1.2 z" />
    <path
       style="opacity:0.2"
       inkscape:connector-curvature="0"
       id="path18"
       d="m 104.4,231.1 c 26.9,-13.2 1,-17.9 -14.1,-26.3 -20.8,-11.6 -27.5,-15.7 -43,-6.1 -17.1,10.6 0.2,17.9 16.1,25.3 18,8.5 25,15 41,7.1 z" />
    <path
       style="fill:#656565"
       inkscape:connector-curvature="0"
       id="path20"
       d="m 95.4,214 c -1,2.5 -2.7,5.6 -5.3,8.1 -2.7,2.6 -4.7,6.3 -3.2,8.1 1.5,1.8 8.1,2.5 11.4,0.6 3.3,-1.9 10,-7.7 10.5,-8.8 0.5,-1.2 -0.1,-6.2 -0.1,-6.2 z" />
    <path
       style="opacity:0.5"
       inkscape:connector-curvature="0"
       id="path22"
       d="m 108.7,222 c 0.2,-0.4 0.2,-1.2 0.2,-2.2 -1.1,1.5 -3.6,3.6 -5.4,5.4 -2.2,2.1 -5.5,5 -9.6,5.5 -3.2,0.4 -6.3,-0.2 -7.6,-2.5 -0.1,0.8 0,1.5 0.5,2.1 1.5,1.9 8.1,2.5 11.4,0.6 3.3,-1.9 10,-7.7 10.5,-8.9 z" />
    <path
       style="fill:#262626"
       inkscape:connector-curvature="0"
       id="path24"
       d="m 66.7,105 c -0.1,1.4 0.3,20 1.5,23.5 1.2,3.5 5.1,5.3 7.9,13.3 2.8,8 2.7,15 5.3,23.5 2.7,8.4 6.7,35.2 8.1,42.8 1,5.6 2,11.3 2.8,11.8 1.6,1 4.1,1.4 6.4,1.7 4.6,0.5 8.1,0.4 10.2,-0.9 2.2,-1.3 2.6,-4.5 1.8,-9.5 -0.8,-5 -3.3,-23.4 -4.9,-32.4 -1.3,-7.2 -6.7,-32.9 -7,-41.4 -0.3,-8.5 0.5,-17.2 -2.8,-24.3 -3.3,-7.1 -6.4,-9.4 -6.4,-9.4 z" />
    <path
       style="fill:#ffcc00"
       inkscape:connector-curvature="0"
       id="path26"
       d="m 88.1,200.7 0.3,2.6 c 0,0 6.2,1.8 10.9,1.2 4.7,-0.6 9.9,-3.2 9.9,-3.2 l -0.3,-2.3 c 0,0 -7.2,3 -10.4,3.1 -5.4,0.1 -10.4,-1.4 -10.4,-1.4 z" />
    <path
       style="fill:#ffcc00"
       inkscape:connector-curvature="0"
       id="path28"
       d="m 89.1,207.1 0.3,2.6 c 0,0 6.2,1.8 10.9,1.2 4.7,-0.6 9.9,-3.2 9.9,-3.2 l -0.3,-2.3 c 0,0 -7.2,3 -10.4,3.1 -5.4,0.2 -10.4,-1.4 -10.4,-1.4 z" />
    <path
       style="fill:#262626"
       inkscape:connector-curvature="0"
       id="path30"
       d="m 117.6,79.6 c -0.4,-0.4 -0.8,-0.8 -1.2,-1.2 0,0 0,0 0,-0.1 -0.7,-1 -5.9,-8.4 -7.8,-11.8 -1.9,-3.4 -5,-10.1 -9.4,-12.2 -4.3,-2.2 -9.7,-2.6 -11.3,-3.3 -1.6,-0.7 0.5,-3.3 -0.1,-4.3 -0.7,-0.9 -10.1,-5.2 -16.7,-2.9 -4.6,1.6 -11,2 -12.9,7.5 -1.9,5.6 -5,14.7 -4.3,20.5 0.2,1.4 -0.7,13.1 -1.3,15.2 -0.7,2.4 -2.7,6.9 -2.4,7.9 0.3,1 1.4,2 1.4,2 l -0.3,2.6 c 0,0 2.6,0.1 4.6,0.2 0.3,0 -3,11.6 0.1,13 6.1,2.7 20.1,0.5 27.1,-0.4 6.5,-0.9 7.5,-7.3 7.5,-7.3 l -2.4,2 c 0,0 2,3 3.1,4.9 1,1.9 1.7,3.7 1.7,3.7 l 3.5,-1.8 c 0,0 0.1,1.8 2.4,1.3 2.3,-0.5 23.4,-13.3 24,-20.5 0.6,-7.1 -1.8,-11.4 -5.3,-15 z M 97.3,94.3 c -1.4,1.6 -1.9,2.6 -2.9,3.9 0,-0.1 -0.5,-2.1 0.3,-6.5 0.8,-4.5 0.6,-11.1 0.6,-11.1 0,0 1.4,2.8 2.9,5 1.5,2.1 3.3,3.6 3.3,3.9 0.3,0.8 -2.1,2.4 -4.2,4.8 z" />
    <path
       style="fill:#fbd7c7"
       inkscape:connector-curvature="0"
       id="path32"
       d="M 66.2,61.8 69,57.2 c 0,0 3.3,-0.9 6.2,-3.5 2.9,-2.6 8.6,-5.4 8.6,-5.4 0,0 -2.5,-1.7 -2.8,-4.6 -0.3,-2.9 3.1,-7.1 1.8,-13.9 -1.2,-6.7 -7.1,-11.5 -16.4,-7.4 -9.3,4.1 -8.5,19.2 -6.5,25.8 1.9,6.6 7.3,4.3 7.3,4.3 0,0 -0.6,2.8 -0.9,4.6 -0.3,1.9 -0.1,4.7 -0.1,4.7 z" />
    <g
       style="fill:#ffcc00"
       id="g46">
      <path
         inkscape:connector-curvature="0"
         id="path34"
         d="m 95.4,80.6 1.1,2.4 c 0,0 4.9,-4.6 7.2,-7.4 3.2,-3.9 7.5,-5.2 7.5,-5.2 l -1.7,-2.6 c 0,0 -5.4,2.8 -7.6,5.5 -3.5,4.2 -6.5,7.3 -6.5,7.3 z" />
      <path
         inkscape:connector-curvature="0"
         id="path36"
         d="m 99,86.6 1.6,2.2 c 0,0 4.7,-4.4 7,-7.2 3.2,-3.9 7.5,-5.2 7.5,-5.2 l -1.7,-2.6 c 0,0 -5.4,2.8 -7.6,5.5 -3.4,4.1 -6.8,7.3 -6.8,7.3 z" />
      <path
         inkscape:connector-curvature="0"
         id="path38"
         d="m 95.4,80.6 0.2,2.7 c 0,0 -8.5,-0.7 -14.4,-1.3 C 74.6,81.3 66,81.1 66,81.1 l 0.3,-2.7 c 0,0 7.5,0.2 14.4,0.7 6.9,0.5 14.7,1.5 14.7,1.5 z" />
      <path
         inkscape:connector-curvature="0"
         id="path40"
         d="M 95.2,87.9 95,90.4 c 0,0 -8.4,-0.7 -14.2,-1.3 C 74.3,88.5 65.9,88.3 65.9,88.3 L 66,85.6 c 0,0 7.5,0.2 14.4,0.7 7,0.6 14.8,1.6 14.8,1.6 z" />
      <path
         inkscape:connector-curvature="0"
         id="path42"
         d="M 54.7,76.7 55,79.5 62.6,80.7 62.5,78 Z" />
      <path
         inkscape:connector-curvature="0"
         id="path44"
         d="m 55.6,83.9 0.3,2.8 6.6,1.4 0.1,-3 z" />
    </g>
    <path
       style="fill:#656565"
       inkscape:connector-curvature="0"
       id="path48"
       d="m 88.8,105.5 c -0.3,0.3 -0.6,0.5 -0.8,0.5 -2,0.7 -3,1 -4.3,0.6 -1.3,-0.4 -5.2,-1.5 -6.9,-1.8 -1.6,-0.4 -4.4,-0.5 -3.8,1.3 0.6,1.7 3.6,2.7 4.5,3 1,0.3 1.5,0.9 0.5,2.2 -1,1.2 -9.1,4.6 -8.4,7.2 1.1,4.2 4.5,6.2 11.1,4.5 2.7,-0.7 9.9,-5.2 13.2,-7.7 -3.6,-4.9 -4.2,-8.6 -5.1,-9.8 z" />
    <path
       style="fill:#ffcc00"
       inkscape:connector-curvature="0"
       id="path50"
       d="m 57.5,33.8 c 0.6,2.3 9.2,1.2 16.2,3.1 8.2,2.2 10,4 10.7,2.1 3,-8.2 -1.8,-20.4 -12.7,-20.4 -10.1,0 -16,7.5 -14.2,15.2 z" />
    <path
       style="opacity:0.5;fill:#999999"
       inkscape:connector-curvature="0"
       id="path52"
       d="m 84.4,38.9 c 0,0 -19.2,-16.9 -26.3,-14.5 -7.1,2.4 -2.5,9 0.1,8.4 5.1,-1.3 26.2,6.1 26.2,6.1 z" />
    <path
       style="fill:#262626"
       inkscape:connector-curvature="0"
       id="path54"
       d="m 51.4,31.5 c 8.2,-2.2 23.8,1.9 29,4.6 5.4,2.8 9.2,5 9.2,5 l -5.5,0.8 c 0,0 -5.1,-1.8 -12.1,-3.8 -7,-2 -15.1,-1.8 -15.1,-1.8 0,0 -9.5,-3.7 -5.5,-4.8 z" />
  </g>
</svg>
