<svg enable-background="new 0 0 160 240" viewBox="0 0 160 240" xmlns="http://www.w3.org/2000/svg"><path d="m48.3 230.6c10.3 5.6 32.4-7.7 45.2-15.1 12.8-7.5 36.7-22.2 26.3-28.5s-25.9 4.1-39.7 12.4-46.3 23.4-31.8 31.2z" opacity=".2"/><path d="m91.2 28.5c5.8-1.2 13.3 3 14.1 10.2.7 6 .4 14.9-1.9 16s-3.8.4-5.4 2.3-2.1 4.8-1.1 7.5 1.3 4 1.3 4-23.5 8.8-25.2 11.8-7.2 10.3-7.2 11.3.4 6.5.1 10.6 0 5.8 1.3 7.5 3.6 3.5 4.1 5.7-.9 11.7-.9 11.7-.8.1-1.8-.5-1-.3-1.7-.2-2.2-.3-2.5-.9-.4-1.1-.4-1.1-.7.7-1.2.3-2.7-2.4-2.7-4.1c0-1.8.6-7.5.1-9.5-.5-2.1-4.7-17.7-3.6-20.9s6.7-17.3 7-18.5-.7-8.1 3.4-11 9.3-2 10.6-1.9 6.9-3.9 6.5-6.6c-.3-2.9-10.5-20.1 7.1-23.7z" fill="#fbd7c7"/><path d="m89.6 203.8c.8 1.8 4.1 4.1 7.8 1.9 3.6-2.3 8.1-5.3 11.4-6.6 3.2-1.3 5-2.8 4.7-5.6-.3-3.5-4.3-4.7-8.8-3-4.5 1.6-15.1 13.3-15.1 13.3z" fill="#262626"/><path d="m94.3 204.3c3.8-2 7.2-5.2 10.7-6.5s7.7-2.4 8-4.8-4.3-4.2-8.8-2.3-13.5 3.3-13.5 3.3z" fill="#fff"/><path d="m52.5 225.9c1.6.6 1.4 1.4 5 1.6 1.5.1 3.8-.4 5.8-.5 2.8-.1 4.6.1 6.7-.6 3.3-1.1 7.7-3.5 8.6-5.1 1.4-2.3-.9-6.5-4.5-5.5-3.4.9-5.7 2-7.7 2s-8.8-1.2-8.8-1.2z" fill="#262626"/><path d="m55.4 223.6c2.7.8 13.1 1.2 14.3.7 1.3-.5 7.6-2.6 8.1-5.1.3-1.4-.5-3.2-2.8-3.4-1.2-.1-3.7.6-5.7 1.1-5.8 1.6-10.7-.5-10.7-.5z" fill="#fff"/><path d="m71.7 114.2c-3.3 3.6-6.5 13.1-2 21.4s21.8 20.6 22.3 22.4-5.3 18-5.3 23.2 1.5 13.5 1.1 15.1c-.4 1.7-1.7 10.6 3.8 10.5s11.3-5.1 12.5-9.1-.2-7-.2-7-.4.3-.5-1.7-.4-10.8.8-13.5c1.3-2.7.9-9.5 1.2-11.1s2.1-7.9 2.2-11.2c.1-3 0-10.2-5.1-18.8-4.6-7.8-11.9-14.8-11.9-14.8z" fill="#06547a"/><path d="m71.7 114.2c-3.3 3.6-6.5 13.1-2 21.4s21.8 20.6 22.3 22.4-5.3 18-5.3 23.2 1.5 13.5 1.1 15.1c-.4 1.7-1.7 10.6 3.8 10.5s11.3-5.1 12.5-9.1-.2-7-.2-7-.4.3-.5-1.7-.4-10.8.8-13.5c1.3-2.7.9-9.5 1.2-11.1s2.1-7.9 2.2-11.2c.1-3 0-10.2-5.1-18.8-4.6-7.8-11.9-14.8-11.9-14.8z" opacity=".2"/><path d="m77.2 117.7s-2.4 6.3-1.6 11.7 4.4 13 4.4 13-1.5 15.1-2.6 19-10.4 17.6-13.7 24.4-14.6 27.6-15 31.9.7 9 5.7 9.2 13.5-6.5 14.1-8.2c.7-1.8-.6-3.5-.6-3.5s1.5 0 2.8-3.5c1.4-3.5 5.7-11.6 8.1-14.5s7.1-12.5 8.5-14 3.9-2.7 5-5 7.8-22.5 9.2-27.4c1.5-4.9 4.4-13.3 4-18.8-.4-5.3-1.2-10.6-1.2-10.6z" fill="#06547a"/><path d="m91.1 27.9c-17.7 3-6.9 24.9-7 25.3 1.8.9 5.3.9 6.9-.3 1.8-1.3 2.8-5.9 4.8-7.6s3.1-.1 3.2.5.1 1.3.1 1.3l1.4-.5s.8-2.5.9-5.8c.1-3.4-.7-6.8-.4-7.5.2-.6 1.4-.1 2.1-.3-2.6-4.1-7.9-5.8-12-5.1z" fill="#825012"/><path d="m80.1 58.3s-5.1 1.3 1.6 4.4 15.3 1.8 15.3 1.8 9.2 2 12.7 6.5c2.1 2.7 2.5 7.9 2.2 9-.3 1.2-4.4 7-4.3 10.8s-2.4 19.6-2.3 23.6c.1 3.9 0 9.5.1 10.4s-11.8 2.4-21.4-1.1-13.3-8.7-13.3-9.4 4.9-7.7 4.3-11.4-6.6-22.7-7.6-27-1.6-6.3-1.6-6.3l-2.3-1.2s-.1-7.4 4.1-9.2 12.5-.9 12.5-.9z" fill="#e5e5e5"/><path d="m98.3 84.6s5.6.2 7.6-.4c3.8-1.2 5.7-3.6 5.7-3.6s-.8 3.6-.8 6.5.4 4.1.7 6.6c.4 3.7-.1 6.6 1.2 8s5.4 5 8.1 8.1 3.8 3.6 6.3 4.6 5.5 1.6 6.5 2.6 2.1 1.9 1.6 3.4 0 2.6-.5 3.3-1.3.3-1.2 1.7-.8 1-1 1.7-1.8 1.2-2.9.9c-1.2-.3-3-.8-3-1.6s1.7-1.1 1.7-1.1-2.6-.9-3.4-2.1-1.8-2.4-3.8-3.5-15-9.5-16.2-12.2c-1.5-2.8-6.6-22.9-6.6-22.9z" fill="#fbd7c7"/></svg>