<svg enable-background="new 0 0 160 240" viewBox="0 0 160 240" xmlns="http://www.w3.org/2000/svg"><path d="m96.4 228c13.8-9.3 1.8-19.8-17.5-23.2-8.4-1.5-31.9-23-53-9.7-17 10.8 18.3 26.1 27 30.1 12 5.6 26.8 14 43.5 2.8z" opacity=".2"/><path d="m82.9 207.5 12.3-.4s2.4 3.3 1.8 5.9c-.7 2.6-4.4 6.8-5.3 8.6s-2.6 7.5-7.7 8.8-11.7.9-12.6-2.4c-.7-2.6 9.9-15 10.4-16.1.4-1 1.1-4.4 1.1-4.4z" fill="#825012"/><path d="m91.7 221.6c.9-1.8 4.6-5.9 5.3-8.6.2-.9.1-2-.2-2.9-.5 1.3-1.2 3.2-2.1 4.2-1.5 1.6-4.5 7.9-6.2 10.9-2.2 3.9-12.7 6.7-17 2.2-.1.3-.1.5 0 .7.9 3.3 7.5 3.7 12.6 2.4 4.9-1.4 6.7-7.1 7.6-8.9z" opacity=".4"/><path d="m42.6 193.9c-4.5 2.8-12.6 4.8-15.2 6.2-2.9 1.6-4.7 7.5 1.3 7.9s15.9-3.9 19.3-3.9 9.7-1.1 10.5-3-.4-6.9-.4-6.9z" fill="#825012"/><path d="m97.6 124.4s-15 4.7-22.2 7.9c-7.3 3.1-18.3 6.7-21.7 11.4-3.3 4.7-4.6 14.6-5.6 19.9-1 5.4-4.3 18.5-6.4 24.6-1.1 3.3-3 6.1-2.8 7.1s8.7 1.8 13.1 2c5.1.2 7 .2 8.6-1.2 1-.9 3.3-14.5 5.2-21.8 2-7.3 4.1-16.5 4.1-16.5s5.2-.6 11.9-1.7c7-1.2 25.5-6.2 28.8-8.1 3.3-2 3.1-17.9 3.1-17.9z" fill="#06547a"/><path d="m97.6 124.4s-15 4.7-22.2 7.9c-7.3 3.1-18.3 6.7-21.7 11.4-3.3 4.7-4.6 14.6-5.6 19.9-1 5.4-4.3 18.5-6.4 24.6-1.1 3.3-3 6.1-2.8 7.1s8.7 1.8 13.1 2c5.1.2 7 .2 8.6-1.2 1-.9 3.3-14.5 5.2-21.8 2-7.3 4.1-16.5 4.1-16.5s5.2-.6 11.9-1.7c7-1.2 25.5-6.2 28.8-8.1 3.3-2 3.1-17.9 3.1-17.9z" opacity=".2"/><path d="m98.2 81.3 7.2 3.9s-5.8 15.3-7.3 18.8c-.8 1.9-2.5 6.5-5.8 11.6-3.4 5.2-7.6 9.8-8.1 11.6s-.9 2.2-2.4 3.5c-1.6 1.3-2.5 1.7-4.1 2.6-.9.5-3 3.4-4.2 4.5s-6.3 1.6-6.9-.9c-.4-1.8 3.4-6.5 4.5-7.9 1.2-1.4 5.3-1.8 6.3-3.2s5.9-11.6 7.6-15.6c1.7-4.1 3.7-10.9 7-15.8s6.2-13.1 6.2-13.1z" fill="#fbd7c7"/><path d="m104.9 130-.1 7.5s-4.3 3.7-9.3 8.5c-4.9 4.7-10.7 10.4-12.5 12.2s-3.3 2.6-3.9 6.5.2 31.2.1 36c-.1 4.5-.1 10.7 1 11.7s6.2 1.3 10.6.7c5-.7 7.6-1.6 8-2.6s.5-15.6.9-21.9-.3-16.7-.3-16.7 9-3.3 14.3-5.5 22.7-7 26.3-13.7c3.5-6.7 2.3-14.3 1.4-19-.7-3.9-2.9-5.9-2.9-5.9z" fill="#06547a"/><path d="m106.1 68.3c-.4.1-3.9 3.7-5.8 6.8-1.8 3-4.7 9-4.7 9l5.2 1.8s-1.4 1.4-2 5.1c-.5 3.7 2.1 8.8 1 11.9-1 3.1-4.6 12.7-5.5 17.6s-1.3 7-.7 8.1c.7 1.2 3.3 5.4 14.3 6 11 .7 27.7-.6 30.2-.8 2.6-.2 3.8-.7 3.8-.7s1.3-20.7 2-27.4 2-16.7 1.2-21c-1.2-6.4-7.4-14.2-15.7-16.3-5.7-1.3-23.3-.1-23.3-.1z" fill="#999"/><path d="m58.5 201.2c.1-.2.2-.5.2-.8-2.9 1.3-7.8 2.1-11.3 2.2-3 .1-13.1 4-18 4-2.3 0-3.8-.8-4.8-1.6.2 1.5 1.3 2.8 4 3 6 .4 15.9-3.9 19.3-3.9s9.7-1 10.6-2.9z" opacity=".4"/><path d="m129.6 97.6s1.9 9.4 3.1 12.4c1.3 3 1.2 4 1.2 4s-3.5 5.5-6.5 11.2c-3 5.8-5.3 12.8-6.8 13.4-1.5.5-7.8 1.1-9.9 3.1-2.2 2-4.2 3.8-4.5 5s-1.9 4.7-1.1 5.8c.7 1.1 1-1.1 2.3-1.9s5.2-3.4 9.3-3.9 6-1.2 7.4-2.8 14.8-15 16.5-17.7 5.8-7.6 6.2-10.3c.4-2.8-.7-9.5-1.2-14.6-.5-5.2-.8-6.8-.8-6.8z" fill="#fbd7c7"/><path d="m105.5 46.8c-2.8 4.4-1.7 14.9-1.3 17.6.4 2.6 1.1 5.5 3 6.2s3.2 1.5 3.6 2.7c.7 2.3-.7 5.8.7 6.6 1.3.8 6.5-.4 12.2-3.4 5.3-2.8 8.1-6.3 7.3-7.2s-5.1-1.6-5-4.7 3.1-7.9 3.2-12.4c-.1-10.3-16.7-16.1-23.7-5.4z" fill="#fbd7c7"/><path d="m104.2 49.3c2.5 3 10.7 0 12.9 2.2 1.9 1.8 1.9 7.3 2.9 9 1.2 2.1 2.4-2.3 3.5-3.4 1-1 2.8-1.2 3.3.3s-.4 3.7-.5 4.3c1.6-.3 3.7-5.7 3.3-11.4-.4-6.8-10.5-13.6-21-7.6-5.6 3.1-4.4 6.6-4.4 6.6z" fill="#2d3134"/></svg>