<?xml version="1.0" encoding="UTF-8" standalone="no"?>
<svg
   xmlns:dc="http://purl.org/dc/elements/1.1/"
   xmlns:cc="http://creativecommons.org/ns#"
   xmlns:rdf="http://www.w3.org/1999/02/22-rdf-syntax-ns#"
   xmlns:svg="http://www.w3.org/2000/svg"
   xmlns="http://www.w3.org/2000/svg"
   xmlns:sodipodi="http://sodipodi.sourceforge.net/DTD/sodipodi-0.dtd"
   xmlns:inkscape="http://www.inkscape.org/namespaces/inkscape"
   enable-background="new 0 0 160 240"
   viewBox="0 0 8.5834904 20.409449"
   version="1.1"
   id="svg26"
   sodipodi:docname="city--man14.svg"
   width="8.5834904"
   height="20.409449"
   inkscape:version="0.92.2 (5c3e80d, 2017-08-06)">
  <metadata
     id="metadata32">
    <rdf:RDF>
      <cc:Work
         rdf:about="">
        <dc:format>image/svg+xml</dc:format>
        <dc:type
           rdf:resource="http://purl.org/dc/dcmitype/StillImage" />
        <dc:title></dc:title>
      </cc:Work>
    </rdf:RDF>
  </metadata>
  <defs
     id="defs30" />
  <sodipodi:namedview
     pagecolor="#ffffff"
     bordercolor="#666666"
     borderopacity="1"
     objecttolerance="10"
     gridtolerance="10"
     guidetolerance="10"
     inkscape:pageopacity="0"
     inkscape:pageshadow="2"
     inkscape:window-width="870"
     inkscape:window-height="480"
     id="namedview28"
     showgrid="false"
     fit-margin-top="0"
     fit-margin-left="0"
     fit-margin-right="0"
     fit-margin-bottom="0"
     inkscape:zoom="0.98333333"
     inkscape:cx="45.749135"
     inkscape:cy="113.55991"
     inkscape:window-x="0"
     inkscape:window-y="0"
     inkscape:window-maximized="0"
     inkscape:current-layer="svg26" />
  <g
     id="g46"
     transform="matrix(0.09918452,0,0,0.09918452,-3.3971556,-2.7560781)">
    <path
       id="path2"
       d="m 37.7,231.8 c 10.3,5.6 32.9,-3.3 48.4,-10.8 13.4,-6.4 41.7,-18.9 31.3,-25.2 -10.4,-6.3 -28,1.4 -44.7,9.1 -14.5,6.6 -49.5,19 -35,26.9 z"
       inkscape:connector-curvature="0"
       style="opacity:0.2" />
    <path
       id="path4"
       d="m 50.1,214.7 c -1.7,2.5 -6,6.6 -8.2,7.6 -2.2,0.9 -6.1,0.4 -6.8,2.8 -0.7,2.4 0.6,4.5 4.5,5.2 3.9,0.7 7.7,0 9.7,-1 2,-1 7.8,-2.9 11,-2.7 3.2,0.2 4.2,-1.4 4.3,-3.1 0.1,-1.8 -0.7,-8.2 -0.7,-8.2 z"
       inkscape:connector-curvature="0"
       style="fill:#825012" />
    <path
       id="path6"
       d="m 49.3,229.2 c 2,-1 7.8,-2.9 11,-2.7 3.1,0.2 4.2,-1.4 4.3,-3.1 0,-0.3 0,-0.7 0,-1.1 -0.6,1.2 -1.7,2.3 -3.2,2.4 -3.2,0.1 -4.2,0.3 -7.4,1.3 -3.2,0.9 -7.8,3.7 -13.3,2.9 -4,-0.5 -5,-2.1 -5.3,-4.2 -0.1,0.1 -0.1,0.3 -0.2,0.4 -0.7,2.4 0.6,4.5 4.5,5.2 3.9,0.7 7.6,-0.1 9.6,-1.1 z"
       inkscape:connector-curvature="0"
       style="opacity:0.4" />
    <path
       id="path8"
       d="m 106,188.3 c 0,0 -0.4,1.2 -2.3,4.6 -1.9,3.4 -4.8,5.4 -6.3,6.5 -1.5,1.1 -3.3,2.7 -2.9,4.3 1.6,7.1 15.9,5 19.6,-3.5 1.5,-3.5 7.5,-9.9 6.6,-12.5 -0.8,-2.4 -2.3,-4.9 -3.7,-5.3 -1.4,-0.5 -11,5.9 -11,5.9 z"
       inkscape:connector-curvature="0"
       style="fill:#825012" />
    <path
       id="path10"
       d="m 114,200.1 c 1.5,-3.5 7.5,-9.9 6.6,-12.5 -0.1,-0.4 -0.3,-0.8 -0.5,-1.2 -0.9,3.1 -4.7,7.4 -6,10.5 -4.6,11.2 -16.1,11.3 -19.7,6.1 v 0.7 c 1.6,7.1 16,5 19.6,-3.6 z"
       inkscape:connector-curvature="0"
       style="opacity:0.4" />
    <path
       id="path12"
       d="m 55.7,118.4 c 0,0 -3.2,5.9 -4.4,13.1 -1.2,7.2 -2.7,31.4 -2.5,39.1 0.4,20.2 -1.3,44.2 -1.9,45.9 -0.5,1.6 6.8,2.5 10.2,2.5 3.4,0 8.6,0.3 8.7,-1.4 0.1,-1.7 0.6,-22.6 0.9,-30.7 0.3,-8.1 -1.6,-15.2 0.7,-20.5 2.3,-5.3 8.3,-20.5 8.9,-26.4 0.7,-5.9 -0.9,-15.5 -0.9,-15.5 z"
       inkscape:connector-curvature="0"
       style="fill:#06547a" />
    <path
       id="path14"
       d="m 55.7,118.4 c 0,0 -3.2,5.9 -4.4,13.1 -1.2,7.2 -2.7,31.4 -2.5,39.1 0.4,20.2 -1.3,44.2 -1.9,45.9 -0.5,1.6 6.8,2.5 10.2,2.5 3.4,0 8.6,0.3 8.7,-1.4 0.1,-1.7 0.6,-22.6 0.9,-30.7 0.3,-8.1 -1.6,-15.2 0.7,-20.5 2.3,-5.3 8.3,-20.5 8.9,-26.4 0.7,-5.9 -0.9,-15.5 -0.9,-15.5 z"
       inkscape:connector-curvature="0"
       style="opacity:0.2" />
    <path
       id="path16"
       d="m 65.8,121.6 c 0.9,3.4 6.6,9.4 8.3,14.4 1.7,5 2.8,12.6 4.3,17.2 1.6,5.1 5,9.8 6.3,14.8 1.3,5 3.8,7.2 6.8,9.2 3,2 7.6,5.1 9.8,9 1.7,3.1 1.2,4.5 3.2,5.6 2,1.2 7.6,0.2 10.6,-2.1 3.3,-2.4 5.1,-4.4 4.4,-6.4 -0.7,-1.8 -3.4,-10.4 -11.1,-18.1 -3.4,-3.4 -5.1,-4.9 -5.5,-5.9 -0.4,-1 1,-12.3 1.4,-18.5 0.3,-5.2 0.1,-20.3 -3.7,-25 -2.5,-3.1 -3.8,-4.4 -3.8,-4.4 0,0 -6.9,3.2 -13.9,6.6 -8.1,3.8 -17.1,3.6 -17.1,3.6 z"
       inkscape:connector-curvature="0"
       style="fill:#06547a" />
    <path
       id="path18"
       d="m 75.5,51 c -5.8,-1 -14.8,-0.9 -16.8,4.2 -2,5.1 -7,20.6 -7.2,24 -0.3,3.4 1.1,7.9 1.4,11.7 0.6,6.6 1,16.7 0.7,24.4 -0.2,4.2 -1.9,8.8 -0.5,9.3 1.4,0.5 12.6,3.1 23.2,1.6 13.1,-1.8 25,-4.8 26,-7.5 0.7,-2 -2.4,-31.6 -1.7,-36.4 0.6,-4.2 0.4,-8.9 -1.4,-12.9 C 97.4,65.5 93.3,61.5 87.8,57.2 83.7,54.1 75.5,51 75.5,51 Z"
       inkscape:connector-curvature="0"
       style="fill:#999999" />
    <path
       id="path20"
       d="m 85.2,86.8 c 0,0 2.9,0 7.7,-1.2 4.9,-1.2 6.3,-2.1 6.3,-2.1 0,0 1.6,6.7 2.1,10.1 0.5,3.4 0.5,8.7 1,10.5 0.5,1.8 0.8,5.2 -2.4,9.7 -3.1,4.5 -17.3,21.1 -20.1,24.5 -2.8,3.4 -7.7,7.9 -10.7,7.9 -3,0 -6.6,-1 -7.9,-2.3 -1.3,-1.3 -1.6,-4.1 -0.4,-4.9 1.1,-0.8 4,-1.4 4,-1.4 l 0.7,-1.6 c 0,0 -0.7,0 -1.3,0 -0.6,0 -1.4,1.4 -2.5,1.6 -1.1,0.2 0,-2.5 0.3,-3.1 0.3,-0.7 2.5,-2 5.4,-2.4 2.9,-0.4 6.2,1 7.6,-1.2 1.4,-2.2 6.2,-12.2 9.2,-15.9 3,-3.7 7,-7.5 7,-8 0,-0.5 -2.7,-5.1 -4,-10.8 -1.1,-4.5 -2,-9.4 -2,-9.4 z"
       inkscape:connector-curvature="0"
       style="fill:#fbd7c7" />
    <path
       id="path22"
       d="m 63,34.2 c -2.8,4.4 -1.7,14.9 -1.3,17.6 0.4,2.7 1.1,5.5 3,6.2 1.9,0.7 3.6,1.5 3.6,2.7 0,1.2 -3,3.9 -1.7,4.7 1.3,0.8 8.5,0.9 14.5,-1.5 5.6,-2.3 7.2,-5 6.5,-6 C 86.8,57 83.4,55 83.4,52 83.5,48.9 86.5,44.1 86.6,39.6 86.7,29.3 70,23.5 63,34.2 Z"
       inkscape:connector-curvature="0"
       style="fill:#fbd7c7" />
    <path
       id="path24"
       d="m 61.7,36.7 c 2.5,3 10.7,0 12.9,2.2 1.9,1.8 1.9,7.3 2.9,9 1.2,2.1 2.4,-2.3 3.5,-3.4 1,-1 2.8,-1.2 3.3,0.3 0.5,1.5 -0.4,3.7 -0.5,4.3 1.6,-0.3 3.7,-5.7 3.3,-11.4 -0.4,-6.8 -10.5,-13.6 -21,-7.6 -5.5,3.1 -4.4,6.6 -4.4,6.6 z"
       inkscape:connector-curvature="0"
       style="fill:#2d3134" />
  </g>
</svg>
