<?xml version="1.0" encoding="UTF-8" standalone="no"?>
<svg
   xmlns:dc="http://purl.org/dc/elements/1.1/"
   xmlns:cc="http://creativecommons.org/ns#"
   xmlns:rdf="http://www.w3.org/1999/02/22-rdf-syntax-ns#"
   xmlns:svg="http://www.w3.org/2000/svg"
   xmlns="http://www.w3.org/2000/svg"
   xmlns:sodipodi="http://sodipodi.sourceforge.net/DTD/sodipodi-0.dtd"
   xmlns:inkscape="http://www.inkscape.org/namespaces/inkscape"
   enable-background="new 0 0 80 240"
   viewBox="0 0 7.125679 21.165354"
   version="1.1"
   id="svg20"
   sodipodi:docname="city--man20.svg"
   width="7.125679"
   height="21.165354"
   inkscape:version="0.92.2 (5c3e80d, 2017-08-06)">
  <metadata
     id="metadata26">
    <rdf:RDF>
      <cc:Work
         rdf:about="">
        <dc:format>image/svg+xml</dc:format>
        <dc:type
           rdf:resource="http://purl.org/dc/dcmitype/StillImage" />
        <dc:title></dc:title>
      </cc:Work>
    </rdf:RDF>
  </metadata>
  <defs
     id="defs24" />
  <sodipodi:namedview
     pagecolor="#ffffff"
     bordercolor="#666666"
     borderopacity="1"
     objecttolerance="10"
     gridtolerance="10"
     guidetolerance="10"
     inkscape:pageopacity="0"
     inkscape:pageshadow="2"
     inkscape:window-width="870"
     inkscape:window-height="480"
     id="namedview22"
     showgrid="false"
     fit-margin-top="0"
     fit-margin-left="0"
     fit-margin-right="0"
     fit-margin-bottom="0"
     inkscape:zoom="0.98333333"
     inkscape:cx="39.020586"
     inkscape:cy="113.88833"
     inkscape:window-x="0"
     inkscape:window-y="0"
     inkscape:window-maximized="0"
     inkscape:current-layer="svg20" />
  <g
     id="g37"
     transform="matrix(0.09897816,0,0,0.09897816,-0.09694058,-1.9844822)">
    <path
       id="path2"
       d="M 25.1,232.5 C 18,230 0.7,217.4 21.8,211.4 c 18.7,-5.3 23,-20.5 45,-8.2 10.9,6.1 7.4,14.1 -10.8,18.5 -12.2,3 -14.4,16.5 -30.9,10.8 z"
       inkscape:connector-curvature="0"
       style="opacity:0.2" />
    <path
       id="path4"
       d="m 46.9,20.9 c 6.3,-1.8 11.7,1.6 13.7,6.4 2.1,4.8 2,12.6 1.5,15.4 -0.5,2.9 -1.6,7.2 -1.6,7.2 0,0 7.8,7.7 8.8,17.2 1,9.5 -3.9,15.8 -3.7,23 0.2,7.2 3.9,33.7 3.2,41.2 -0.7,7.6 -10,22.8 -10.8,26.9 -0.8,4.1 -1.9,24.4 -1.8,28.8 0.1,4.4 1.4,12.1 4.5,14.2 3.1,2.2 10,5.9 11.2,7.1 1,1 0.9,4.3 -3.3,4.5 -4.3,0.2 -4.4,-0.5 -5.9,-1.3 -1.5,-0.8 -5.5,-4.2 -7.1,-4.7 -1.6,-0.5 -6.5,0.1 -7.8,-1.8 -1.3,-1.9 -0.8,-5.6 -0.2,-7.5 0.6,-1.9 0.8,-6 0.5,-7.8 -0.3,-1.8 -4.9,-17.9 -5.1,-22.1 -0.2,-4.2 1.4,-10 1.9,-12.3 0.5,-2.3 2.6,-12 2.6,-12 0,0 -7.2,13.5 -8.4,15.4 -1.2,1.9 -5.5,8.7 -7.1,12.6 -1.6,3.9 -8.1,28.8 -8.9,33.4 -0.8,4.6 -0.9,10.9 0.9,12.8 1.8,1.9 9.3,8.1 10.5,9 1.2,0.9 3,2.4 1.8,3.5 -1.2,1.1 -8.2,1.8 -10.3,1.3 -2.1,-0.5 -6.6,-4.4 -8,-6.1 -1.4,-1.7 -4.7,-2.3 -4.7,-4.2 0,-0.7 0.6,-3 0.8,-5.4 0.3,-4.1 0.2,-9.1 0.1,-12.5 -0.1,-5.4 -2.1,-20.5 -0.2,-25.9 1.9,-5.4 6.2,-11.2 6.7,-13.7 0.5,-2.6 2.4,-23.7 3.8,-28.1 1.4,-4.4 5,-19.2 5.6,-21.3 C 30.7,112 35.2,103.9 35,100.5 34.8,97 29.2,87.4 28.4,85.4 27.6,83.4 25.5,76.2 25.2,73.7 24.9,71.2 20,60.2 26,56 32,51.8 38.2,51.4 39.6,49 41,46.6 40.2,42.5 39.3,39.4 38.5,36.3 34.1,24.6 46.9,20.9 Z"
       inkscape:connector-curvature="0"
       style="fill:#fbd7c7" />
    <path
       id="path6"
       d="m 40.3,45.9 c 0,0 0.9,-1.7 0.9,-2.8 0,-0.5 -2.8,-6.5 -0.9,-7.5 1.9,-1 4,1.2 4,1.2 0,0 1.5,-4 4,-4.7 2.5,-0.7 6.2,2.2 10.1,0.8 3.9,-1.4 4,-2.1 3.7,-3.7 -0.3,-1.6 -3.7,-10.4 -13.9,-9 -10.2,1.4 -11.7,9.3 -11.1,13 0.4,2.2 3.1,9.6 3.1,10.2 0.1,1.3 0.1,2.5 0.1,2.5 z"
       inkscape:connector-curvature="0"
       style="fill:#762c07" />
    <path
       id="path8"
       d="m 34.3,102.9 c 0,0 15,2.2 21,1.9 6,-0.3 11.6,-2.1 11.6,-2.1 0,0 1.7,8.6 2.5,16.3 0.5,5.1 -0.9,17.2 -1.8,21.3 -0.9,4.1 -1.4,6.4 -1.4,6.4 l -20.8,0.5 1.6,-32.5 z"
       inkscape:connector-curvature="0"
       style="fill:#3366cc" />
    <path
       id="path10"
       d="m 34.3,102.9 c 0,0 15,2.2 21,1.9 6,-0.3 11.6,-2.1 11.6,-2.1 0,0 1.7,8.6 2.5,16.3 0.5,5.1 -0.9,17.2 -1.8,21.3 -0.9,4.1 -1.4,6.4 -1.4,6.4 l -20.8,0.5 1.6,-32.5 z"
       inkscape:connector-curvature="0"
       style="opacity:0.2" />
    <path
       id="path12"
       d="m 34.3,102.9 c 0,0 9.3,1.8 12,1.8 h 13.3 c 0,0 -4.4,18.4 -5.1,22.5 -0.7,4.1 -4.4,14.9 -4.8,15.8 -0.4,0.9 -3.1,6 -3.1,6 0,0 -6.3,-0.1 -12.8,-1.1 -6.5,-1 -13.6,-4.5 -13.6,-4.5 0,0 5.6,-17.1 6.6,-19.5 1,-2.4 1,-9.9 3.2,-13.9 2.2,-4.1 4.3,-7.1 4.3,-7.1 z"
       inkscape:connector-curvature="0"
       style="fill:#3366cc" />
    <path
       id="path14"
       d="m 60.5,49.9 c 0,0 0,2.8 -3,2.6 -3,-0.2 -10.9,-4.1 -10.9,-4.1 0,0 6.3,10.5 10.6,10.1 3.1,-0.2 3.3,-8.6 3.3,-8.6 z"
       inkscape:connector-curvature="0"
       style="opacity:0.1" />
    <path
       id="path16"
       d="m 25.2,73.7 c 0.3,2.5 2.4,9.7 3.2,11.7 0.8,2 6.4,11.7 6.6,15.1 0,0.9 -0.2,2 -0.6,3.3 0.9,-0.8 1.8,-2.5 1.5,-6 -0.5,-6.1 -4.6,-22.6 -4.6,-24.7 0,-2.1 -1.9,-5.6 -1.9,-5.6 l -4.2,6.1 z"
       inkscape:connector-curvature="0"
       style="opacity:0.1" />
    <path
       id="path18"
       d="m 28.9,55.5 c -2.8,-0.3 -6.8,2.7 -8.5,6.1 -1.7,3.4 -2.6,6.1 -3.8,7.5 -1.2,1.4 -4.9,5.3 -6.5,8 -1.6,2.7 -8.1,11.4 -9,13.5 -0.9,2.1 3.4,9.3 7.5,14.3 4.1,5.1 9.6,14.3 10.3,15.5 0.7,1.2 2,4.8 4.1,7.3 2.2,2.6 3.2,3.3 5.7,4.8 2.1,1.3 3.2,2.1 6.3,1.7 3.1,-0.4 4.9,-3.5 4.5,-5.3 -0.4,-1.8 -5.7,-5 -6.7,-5.9 -1,-0.9 -7,-7.1 -8,-7.8 -1,-0.7 -6.4,-14.4 -7,-15.6 -0.6,-1.2 -4.4,-7.1 -4.4,-7.1 0,0 5.7,-3.5 8.9,-6.4 3.2,-2.9 5.2,-6.7 6.8,-7.4 1.6,-0.7 7.1,-5.5 7.9,-10.4 0.9,-5.2 -0.9,-12 -8.1,-12.8 z"
       inkscape:connector-curvature="0"
       style="fill:#fbd7c7" />
  </g>
</svg>
