<?xml version="1.0" encoding="UTF-8" standalone="no"?>
<svg
   xmlns:dc="http://purl.org/dc/elements/1.1/"
   xmlns:cc="http://creativecommons.org/ns#"
   xmlns:rdf="http://www.w3.org/1999/02/22-rdf-syntax-ns#"
   xmlns:svg="http://www.w3.org/2000/svg"
   xmlns="http://www.w3.org/2000/svg"
   xmlns:sodipodi="http://sodipodi.sourceforge.net/DTD/sodipodi-0.dtd"
   xmlns:inkscape="http://www.inkscape.org/namespaces/inkscape"
   enable-background="new 0 0 80 240"
   viewBox="0 0 7.6946049 21.165354"
   version="1.1"
   id="svg20"
   sodipodi:docname="city--man21.svg"
   width="7.6946049"
   height="21.165354"
   inkscape:version="0.92.2 (5c3e80d, 2017-08-06)">
  <metadata
     id="metadata26">
    <rdf:RDF>
      <cc:Work
         rdf:about="">
        <dc:format>image/svg+xml</dc:format>
        <dc:type
           rdf:resource="http://purl.org/dc/dcmitype/StillImage" />
        <dc:title></dc:title>
      </cc:Work>
    </rdf:RDF>
  </metadata>
  <defs
     id="defs24" />
  <sodipodi:namedview
     pagecolor="#ffffff"
     bordercolor="#666666"
     borderopacity="1"
     objecttolerance="10"
     gridtolerance="10"
     guidetolerance="10"
     inkscape:pageopacity="0"
     inkscape:pageshadow="2"
     inkscape:window-width="870"
     inkscape:window-height="480"
     id="namedview22"
     showgrid="false"
     fit-margin-top="0"
     fit-margin-left="0"
     fit-margin-right="0"
     fit-margin-bottom="0"
     inkscape:zoom="0.98333333"
     inkscape:cx="39.611455"
     inkscape:cy="114.13358"
     inkscape:window-x="247"
     inkscape:window-y="46"
     inkscape:window-maximized="0"
     inkscape:current-layer="svg20" />
  <g
     id="g37"
     transform="matrix(0.09777713,0,0,0.09777713,-0.03799086,-1.7275543)">
    <path
       id="path2"
       d="m 36.8,48.6 c 0,0 -8,-2.1 -13,2.3 -5,4.4 -6.6,8.3 -7.2,9.3 -0.6,1 -3.5,2.8 -6.6,6.2 -3.1,3.4 -9.2,11.1 -9.6,13 -0.4,1.9 9.8,17 11.2,19.6 1.4,2.6 4.4,7.8 6.3,9.2 1.9,1.4 7.8,3.3 10.2,3.7 2.4,0.4 7.3,1.7 8.5,-0.6 1.2,-2.3 -1,-5 -2.4,-5.7 -1.4,-0.7 -5.1,-3.6 -6.6,-3.6 -1.5,0 -5.1,-0.3 -6.1,-0.9 -1,-0.6 -3.7,-8.8 -5.2,-12.6 -1.5,-3.8 -4,-9 -4,-9 0,0 4.4,-3.3 7.7,-5.4 3.3,-2.1 7.7,-5.8 7.7,-5.8 0,0 6,-11.9 6.7,-13.5 0.7,-1.6 2.4,-6.2 2.4,-6.2 z"
       inkscape:connector-curvature="0"
       style="fill:#fbd7c7" />
    <path
       id="path4"
       d="m 69.7,231.4 c 19.1,-7.3 6,-17.6 -12.2,-20.9 -8,-1.4 -19,-14.5 -35.3,-4.6 -16.3,9.9 -0.2,15.8 8,19.7 11.3,5.2 21.8,12.6 39.5,5.8 z"
       inkscape:connector-curvature="0"
       style="opacity:0.2" />
    <path
       id="path6"
       d="m 35.3,48.7 c 5.4,-0.9 7.1,-7.4 6.9,-9 -0.2,-1.6 -4,-8.6 -0.7,-14.3 3.3,-5.8 8.6,-8.9 15.3,-7 6.8,1.9 6.6,8.4 6.6,10.5 0,2.1 -1.9,13.2 -2.6,14.3 -0.7,1.1 -2.5,1.2 -2.9,2.1 -0.4,0.9 -0.6,6.6 0.8,7.6 1.4,1 8,8.7 8.6,10 0.6,1.3 2.5,12.4 2.5,12.4 0,0 -1.4,17.2 -1.5,20.1 -0.1,2.9 -1.6,9.6 -0.5,16.3 1.1,6.7 2.9,23.8 1,33.3 -1.9,9.5 -6.4,25 -6.6,29.8 -0.2,4.8 1.2,12.4 0.9,18.4 -0.3,6.1 -2.3,24.9 0.5,26.8 2.8,1.9 5.9,1.3 8.9,0.5 3,-0.8 4.9,-0.5 5.9,1.6 1,2.1 -0.9,4 -3.9,5.5 -3,1.5 -8.6,2.8 -11.9,3.6 -3.3,0.8 -7.2,2.5 -9.3,0.3 -1.5,-1.6 0.4,-6.4 0.8,-9.4 0.4,-3 -1,-14.3 -3,-20.2 -2,-5.9 -3.4,-11.7 -3,-16.4 0.4,-4.8 2.2,-16.1 1.3,-21 -0.9,-4.9 -3.7,-26.5 -3.7,-26.5 0,0 -7.3,16.9 -8.3,21 -1,4.1 -3.6,19.5 -6.1,25.9 -2.5,6.4 -5,18.4 -4.4,19.9 0.6,1.5 1.6,1.7 2.3,1.8 0.7,0.1 2.9,-0.5 4.8,-1.3 2.8,-1.1 5.2,0.5 6.3,2.2 0.8,1.2 -2.5,3.8 -4.2,4.5 -1.7,0.7 -5.3,0.9 -8.5,2.8 -3.2,1.9 -3.5,3.6 -6.6,3.3 -3.6,-0.3 -4.3,-1.6 -3.3,-5.8 1,-4.2 1.8,-9.3 1.6,-14.9 -0.2,-5.7 -2.6,-18.3 0.2,-25.5 2.8,-7.2 4.6,-10.4 5.3,-18.1 0.7,-7.8 -1.3,-16.5 0.9,-25.8 2.2,-9.3 5,-21.3 5.4,-22 0.4,-0.7 5,-11.8 4.2,-14.2 C 34.5,89.3 30.2,80.2 29.5,78.7 28.8,77.1 24.7,68 25.2,64 25.7,60 35.3,48.7 35.3,48.7 Z"
       inkscape:connector-curvature="0"
       style="fill:#fbd7c7" />
    <path
       id="path8"
       d="m 42,40.8 c 0,0 2.2,1.7 5,2 3.1,0.4 9.7,-0.1 9.7,-4.4 0,-2.6 0.1,-5.8 2.1,-6.1 1.6,-0.2 1.7,1.3 1.7,1.3 0,0 0.7,-4.6 1.3,-5.4 1,-1.3 1.8,-0.9 1.8,-2.3 0,-1.4 -0.7,-7.7 -9.7,-8.2 -9,-0.5 -13.3,5 -13.9,10.3 -0.6,5.3 1.2,9.3 1.6,10.5 0.4,1.2 0.4,2.3 0.4,2.3 z"
       inkscape:connector-curvature="0"
       style="fill:#762c07" />
    <path
       id="path10"
       d="m 33.2,97.6 13.9,2.4 c 0,0 7.8,21.1 4.7,30 -3.1,8.9 -5.3,17 -5.3,17 0,0 -7.9,-0.9 -13.1,-1.6 C 28.2,144.7 24,144 24,144 c 0,0 -0.5,-23.8 5.9,-40.9 1.7,-4.4 3.3,-5.5 3.3,-5.5 z"
       inkscape:connector-curvature="0"
       style="fill:#3366cc" />
    <path
       id="path12"
       d="m 33.2,97.6 13.9,2.4 c 0,0 7.8,21.1 4.7,30 -3.1,8.9 -5.3,17 -5.3,17 0,0 -7.9,-0.9 -13.1,-1.6 C 28.2,144.7 24,144 24,144 c 0,0 -0.5,-23.8 5.9,-40.9 1.7,-4.4 3.3,-5.5 3.3,-5.5 z"
       inkscape:connector-curvature="0"
       style="opacity:0.2" />
    <path
       id="path14"
       d="m 65.9,100.4 c 0,0 -5.1,0.3 -12.2,-0.3 C 49,99.8 40,98.8 40,98.8 c 0,0 -1.1,11.8 -1.2,17.5 -0.1,5.7 5.2,10.2 5.8,15.6 0.6,5.4 0.8,16.6 0.8,16.6 0,0 7.9,1.9 12.8,2 4.9,0.1 10.8,0.2 10.8,0.2 0,0 1.8,-12.2 1.4,-17.5 -0.4,-5.3 0.5,-12 -0.9,-17 -1.5,-4.9 -3.6,-15.8 -3.6,-15.8 z"
       inkscape:connector-curvature="0"
       style="fill:#3366cc" />
    <path
       id="path16"
       d="m 64.9,113.1 c 0,0 -5,-12.3 -5,-15.1 0,-2.9 -1.8,-10.5 -2.7,-13.9 -0.9,-3.5 -1.9,-12.5 -1.9,-12.5 0,0 14.2,15 14.2,22 0,7 -4.6,19.5 -4.6,19.5 z"
       inkscape:connector-curvature="0"
       style="opacity:0.1" />
    <path
       id="path18"
       d="m 61.3,55.4 c 0,0 8.4,1.6 9.9,7 1.5,5.4 0.1,9.8 -0.1,11 -0.2,1.2 1.3,3.8 2.1,9.3 0.8,5.5 0.3,10.2 0.2,12.3 -0.1,2.1 1.6,6.7 0.2,11.9 -1.4,5.2 -4,10.7 -3.5,11.7 0.5,1 2,12 1.3,13.5 -0.7,1.6 -3.3,-3.2 -3.6,-4.1 -0.3,-0.9 -2.2,-4.8 -2.8,-6.1 -0.6,-1.3 0,-4.6 -0.2,-6.4 -0.2,-1.8 -1.3,-9.2 -1.2,-12.1 0.1,-2.9 1.1,-4.6 0.9,-5.5 -0.2,-0.9 -3.9,-7.5 -5.7,-13.4 -0.3,-0.9 -0.7,-4.4 -1,-5.4 -0.3,-0.9 -1.1,-1.8 -1.4,-2.7 -1.4,-3.9 -1.8,-8.2 -0.7,-11 1.6,-4.2 5.6,-10 5.6,-10 z"
       inkscape:connector-curvature="0"
       style="fill:#fbd7c7" />
  </g>
</svg>
