<?xml version="1.0" encoding="UTF-8" standalone="no"?>
<svg
   xmlns:dc="http://purl.org/dc/elements/1.1/"
   xmlns:cc="http://creativecommons.org/ns#"
   xmlns:rdf="http://www.w3.org/1999/02/22-rdf-syntax-ns#"
   xmlns:svg="http://www.w3.org/2000/svg"
   xmlns="http://www.w3.org/2000/svg"
   xmlns:sodipodi="http://sodipodi.sourceforge.net/DTD/sodipodi-0.dtd"
   xmlns:inkscape="http://www.inkscape.org/namespaces/inkscape"
   enable-background="new 0 0 80 240"
   viewBox="0 0 7.853765 21.543306"
   version="1.1"
   id="svg48"
   sodipodi:docname="city--man01.svg"
   width="7.853765"
   height="21.543306"
   inkscape:version="0.92.2 (5c3e80d, 2017-08-06)">
  <metadata
     id="metadata54">
    <rdf:RDF>
      <cc:Work
         rdf:about="">
        <dc:format>image/svg+xml</dc:format>
        <dc:type
           rdf:resource="http://purl.org/dc/dcmitype/StillImage" />
        <dc:title></dc:title>
      </cc:Work>
    </rdf:RDF>
  </metadata>
  <defs
     id="defs52" />
  <sodipodi:namedview
     pagecolor="#ffffff"
     bordercolor="#666666"
     borderopacity="1"
     objecttolerance="10"
     gridtolerance="10"
     guidetolerance="10"
     inkscape:pageopacity="0"
     inkscape:pageshadow="2"
     inkscape:window-width="870"
     inkscape:window-height="480"
     id="namedview50"
     showgrid="false"
     fit-margin-top="0"
     fit-margin-left="0"
     fit-margin-right="0"
     fit-margin-bottom="0"
     inkscape:zoom="0.98333333"
     inkscape:cx="38.639447"
     inkscape:cy="114.21443"
     inkscape:window-x="0"
     inkscape:window-y="0"
     inkscape:window-maximized="0"
     inkscape:current-layer="svg48" />
  <g
     id="g79"
     transform="matrix(0.10234326,0,0,0.10234326,-0.13924346,-2.4269624)">
    <path
       id="path2"
       d="m 59.7,230.1 c 17.2,-9.6 4.2,-17 -11.8,-24.6 -17.8,-8.5 -24.2,-10.6 -40.5,-1.6 -13.9,7.6 -1.6,14.9 14.6,22.5 18.5,8.6 25.5,10.5 37.7,3.7 z"
       inkscape:connector-curvature="0"
       style="opacity:0.2" />
    <path
       id="path4"
       d="m 19,201.7 c -3.4,2.5 -6.8,4 -9.8,5.6 -3,1.6 -4.5,3.1 -4.1,4.5 0.3,1.5 3,3.2 7.6,3 4.6,-0.2 12,-4.4 13.4,-4.5 1.4,-0.1 1.1,0.8 2.1,0.8 1,0 6.4,-1 7,-1.7 0.6,-0.7 -0.1,-5.7 -0.1,-5.7 z"
       inkscape:connector-curvature="0"
       style="fill:#262626" />
    <path
       id="path6"
       d="m 35.1,209.4 c 0.3,-0.4 0.3,-1.8 0.2,-3.1 -1.3,1.2 -3.5,1.9 -5.7,2 -2.6,0.1 -5.7,0.6 -9.3,2.9 -3.6,2.3 -16,4.2 -14.6,-1.4 -0.6,0.7 -0.9,1.4 -0.7,2.1 0.3,1.5 3,3.2 7.6,3 4.6,-0.2 12,-4.4 13.4,-4.5 1.4,-0.1 1.1,0.8 2.1,0.8 1,0 6.5,-1.1 7,-1.8 z"
       inkscape:connector-curvature="0"
       style="opacity:0.5" />
    <path
       id="path8"
       d="m 21.2,123.1 c -0.9,6.6 -1.3,29.8 -0.4,40.3 0.8,10.6 0.7,25.9 -0.1,31.2 -0.6,3.9 -2.5,6 -2,7.4 0.5,1.5 5,4.6 10.2,5.2 5.2,0.6 7.2,-0.2 7.9,-2.2 0.6,-2 2.8,-23.5 3.5,-37 0.6,-12 1.7,-45.1 1.7,-45.1 H 21.2 Z"
       inkscape:connector-curvature="0"
       style="fill:#656565" />
    <path
       id="path10"
       d="m 21.2,123.1 c -0.9,6.6 -1.3,29.8 -0.4,40.3 0.8,10.6 0.7,25.9 -0.1,31.2 -0.6,3.9 -2.5,6 -2,7.4 0.5,1.5 5,4.6 10.2,5.2 5.2,0.6 7.2,-0.2 7.9,-2.2 0.6,-2 2.8,-23.5 3.5,-37 0.6,-12 1.7,-45.1 1.7,-45.1 H 21.2 Z"
       inkscape:connector-curvature="0"
       style="opacity:0.3" />
    <path
       id="path12"
       d="m 50,213.8 c -0.8,2.3 -4.3,8 -5,9.4 -0.8,1.4 -2.3,3.3 -1.3,4.7 1,1.4 5.7,3.3 10.4,1 4.7,-2.2 5.5,-7.7 5.5,-7.7 h 0.8 c 0,0 1,-2.3 1,-3.9 0,-1.6 -0.3,-2.6 -0.3,-2.6 z"
       inkscape:connector-curvature="0"
       style="fill:#262626" />
    <path
       id="path14"
       d="m 59.6,221.3 h 0.8 c 0,0 1,-2.3 1,-3.9 0,-1.6 -0.3,-2.6 -0.3,-2.6 H 61 c -0.1,0.2 -0.1,0.4 -0.1,0.6 -0.2,1.3 -2.5,8.3 -3.8,10 -3.4,4.4 -12.6,5.4 -13.5,0.3 -0.3,0.8 -0.4,1.6 0.1,2.2 1,1.5 5.7,3.3 10.4,1 4.7,-2.3 5.5,-7.6 5.5,-7.6 z"
       inkscape:connector-curvature="0"
       style="opacity:0.5" />
    <path
       id="path16"
       d="m 33,123.9 c 0.1,4.3 4.5,9.3 5.8,15.4 1.3,6.1 5.3,36.3 6.3,45.2 1.5,12.9 2.8,31.7 3.2,31.9 0.4,0.1 3.7,-1.9 6.9,-0.2 3.2,1.7 6.8,1 7.9,0.2 1.1,-0.8 0.6,-9.4 0.2,-14.6 -0.4,-5.2 -1.9,-43.6 -1.8,-48.8 0.1,-5.2 1.8,-19.3 1.4,-22.6 -0.4,-3.4 -2.3,-7.3 -2.3,-7.3 z"
       inkscape:connector-curvature="0"
       style="fill:#656565" />
    <path
       id="path18"
       d="m 33,123.9 c 0.1,4.3 4.5,9.3 5.8,15.4 1.3,6.1 5.3,36.3 6.3,45.2 1.5,12.9 2.8,31.7 3.2,31.9 0.4,0.1 3.7,-1.9 6.9,-0.2 3.2,1.7 6.8,1 7.9,0.2 1.1,-0.8 0.6,-9.4 0.2,-14.6 -0.4,-5.2 -1.9,-43.6 -1.8,-48.8 0.1,-5.2 1.8,-19.3 1.4,-22.6 -0.4,-3.4 -2.3,-7.3 -2.3,-7.3 z"
       inkscape:connector-curvature="0"
       style="opacity:0.15" />
    <path
       id="path20"
       d="m 22.9,76.6 c -2.5,4 -5.1,10.3 -6.6,14.5 -1.5,4.2 -5.4,11.7 -5.7,12.7 -0.2,0.9 -0.1,4.6 3.4,5.7 3.5,1.1 5.2,1.8 5.8,0.9 0.5,-0.8 4.2,-5 4.2,-5 z"
       inkscape:connector-curvature="0"
       style="fill:#656565" />
    <path
       id="path22"
       d="m 22.9,76.6 c -2.5,4 -5.1,10.3 -6.6,14.5 -1.5,4.2 -5.4,11.7 -5.7,12.7 -0.2,0.9 -0.1,4.6 3.4,5.7 3.5,1.1 5.2,1.8 5.8,0.9 0.5,-0.8 4.2,-5 4.2,-5 z"
       inkscape:connector-curvature="0"
       style="opacity:0.15" />
    <path
       id="path24"
       d="m 35.7,48.8 c -2,1.6 -10.2,13.3 -10.6,27.7 -0.4,14.4 3.2,21.1 3.2,21.1 0,0 10.9,-29.2 16.9,-35.6 6,-6.4 5.6,-11.5 5.6,-11.5 0,0 -3.8,-2.6 -7.9,-2.9 -4.1,-0.3 -7.2,1.2 -7.2,1.2 z"
       inkscape:connector-curvature="0"
       style="fill:#ffffff" />
    <path
       id="path26"
       d="m 35.4,58.8 2.3,6.4 6.4,-4.3 -6.8,6 L 35.2,59.1 34,59 30.2,63.3 v -3.8 c 0,0.3 0.3,1.9 0.3,1.9 L 34,58 Z"
       inkscape:connector-curvature="0"
       style="opacity:0.2" />
    <path
       id="path28"
       d="m 32.5,63.5 -0.1,-3.8 1.5,-1.6 1.5,0.7 1,2.7 -2.3,2.3 c 0,0 -2.1,18.1 -2.3,20.4 -0.1,2.2 -3.1,13 -3.1,13 0,0 -4.5,-12.5 -4.3,-12.7 0.2,-0.2 8.1,-21 8.1,-21 z"
       inkscape:connector-curvature="0"
       style="fill:#cc291f" />
    <path
       id="path30"
       d="m 68.7,132.1 c -0.3,1 -0.2,2 -2,3.2 -1.7,1.3 -3.1,3.6 -3.5,5.2 -0.4,1.6 -1.7,3.5 -1.9,4.7 -0.2,1.2 0.8,2 1.8,1.1 1,-0.8 2.9,-4.5 3.9,-4.8 1,-0.3 1.3,2.9 1.4,4 0.1,1 -1.5,3 -2.2,4 -0.8,1 -0.1,1.9 1,1.6 1.1,-0.3 5.9,-2.9 7.1,-7.9 1.3,-5 0.7,-12 0.7,-12 z"
       inkscape:connector-curvature="0"
       style="fill:#fbd7c7" />
    <path
       id="path32"
       d="m 66.5,131.3 -0.1,2 c 0,0 3.8,0.9 6.9,0.6 3.1,-0.3 3.8,-1 3.8,-1 l -0.3,-3 z"
       inkscape:connector-curvature="0"
       style="fill:#ffffff" />
    <path
       id="path34"
       d="m 39.3,48 c -2.1,0.3 -9.2,-2 -13.2,4.1 -4,6.1 -4.7,12.6 -4.9,18.3 -0.2,5.7 -1.2,43 -1.2,49.5 0,6.5 0.1,9.5 3,10.4 3.4,1.1 5.9,-1.9 6,-3.8 0.1,-1.9 -0.3,-30.7 -0.3,-30.7 0,0 -5,-12 -1.7,-25.8 3.3,-13.8 8.5,-18.4 8.5,-18.4 l 4.1,-3.5 z"
       inkscape:connector-curvature="0"
       style="fill:#656565" />
    <path
       id="path36"
       d="m 49.6,49.6 c 0,0 4,3.3 6.2,5.1 2.2,1.8 11.9,10.5 12.9,11.7 1,1.2 2.2,2.4 2.2,5.7 -0.1,3.2 0.4,8.4 1.7,11.9 4.1,10.6 4.3,15.2 4.6,19.8 0.3,4.6 0.9,26.6 0.9,26.6 0,0 -1.3,1.2 -6.4,1.8 -5.2,0.6 -6.4,-0.1 -6.4,-0.1 0,0 -1.5,-14.2 -2.3,-19.3 -1.3,-7.8 -5,-16.1 -5,-16.1 0,0 -0.6,3.5 -0.3,5.6 0.3,2.1 4.1,19.3 4.9,22.1 0.8,2.8 1.7,6.1 1.7,6.1 0,0 -4.2,6.6 -15.6,6.1 -11.4,-0.4 -18.2,-4 -19.6,-11 -1.4,-7 -1.7,-24.5 0.1,-34.3 1.8,-9.8 9.8,-25.6 15,-31.4 5.2,-5.8 5.4,-10.3 5.4,-10.3 z"
       inkscape:connector-curvature="0"
       style="fill:#656565" />
    <path
       id="path38"
       d="m 29.6,95.8 c 0,0 3.5,-8.9 8.9,-16.5 3.8,-5.2 7.8,-8.6 7.8,-8.6 l -0.3,-3.4 4.1,-1.5 2.5,-13.7 0.5,0.5 -1.7,14.1 -4.6,1 1,3.5 c 0,0 -5.4,4.7 -9,9.2 -3.9,4.9 -9.2,15.4 -9.2,15.4 z"
       inkscape:connector-curvature="0"
       style="opacity:0.2" />
    <path
       id="path40"
       d="m 33.8,27.9 c -3.8,2.8 -4,10.3 -3.9,15.4 0.1,5.1 0.7,9.3 1.5,9.7 0.8,0.4 2.4,0.6 2.4,0.6 0,0 -0.1,4.9 1.1,5.1 1.2,0.3 7.8,-2.8 10.9,-6 3.1,-3.1 3.5,-3.8 3.5,-3.8 0,0 4.3,-7.9 3.6,-14.1 -0.7,-6.2 -8.5,-14.6 -19.1,-6.9 z"
       inkscape:connector-curvature="0"
       style="fill:#fbd7c7" />
    <path
       id="path42"
       d="m 30.6,31 c -0.6,1 1.5,0.8 4.5,5.4 3.1,4.6 6.6,2.6 7.6,2.6 0.3,2.5 2.4,2.1 4.3,4.3 0,0 0.7,-2.5 2.1,-2.6 1.4,-0.1 0.9,4.2 0.9,4.2 0,0 0.2,1.7 1.2,2 1,0.3 4.7,-8.8 2.8,-14.7 C 51.1,22.8 37.5,19.6 30.6,31 Z"
       inkscape:connector-curvature="0"
       style="fill:#762c07" />
    <path
       id="path44"
       d="m 11.5,104.2 c 0.5,-0.5 3.6,-0.4 5.3,1.3 1.7,1.7 2.2,3.6 1.9,4.1 -0.2,0.4 -2.4,0.2 -4.9,-1.5 -2.5,-1.7 -2.9,-3.3 -2.3,-3.9 z"
       inkscape:connector-curvature="0"
       style="fill:#ffffff" />
    <path
       id="path46"
       d="m 12,104.6 c 1.2,-0.4 3.1,0.1 4.3,1.3 1.2,1.1 1.7,2.2 1.6,3 0,0.8 -1,2.7 -1.2,3.6 -0.2,0.8 -2.7,4.2 -3.5,5.3 -0.7,1.2 -1.6,1.7 -1.8,3.5 -0.2,1.8 -0.8,2.7 -2.1,2.8 -1.3,0.1 -6.1,-2.9 -5.2,-7.2 0.9,-4.2 2.6,-6.7 3.6,-8.1 0.5,-0.7 2.6,-1.8 3.3,-2.3 0.8,-0.6 0.6,-1.7 1,-1.9 z"
       inkscape:connector-curvature="0"
       style="fill:#fbd7c7" />
  </g>
</svg>
