<svg enable-background="new 0 0 160 240" viewBox="0 0 160 240" xmlns="http://www.w3.org/2000/svg"><path d="m36 189.1c17.1-9.5 32.9 2.5 50.8 13.5s51.6 21.3 37.8 28.7c-13.7 7.3-39.8-6.3-53.9-13.7s-50-19.9-34.7-28.5z" opacity=".2"/><path d="m96.8 98.7c2 5.8 4.6 14.5 5.4 16.5s2.2 4.5 1.6 7.5c-.7 3-1.7 5.1-3.8 5.9s-4.3.3-4.3.3z" fill="#fbd7c7"/><path d="m90.6 215c.1 2.8-1.1 5.3 3.5 6.6 3.6 1 7 1.9 11.9 5.4 2 1.4 4.9 3.1 8 3.5 1.5.2 3.7-.4 4.8-.9 3.1-1.2 2.3-3.7 2.2-4.7-.1-1.7-1.8-2.6-5.1-4-3.3-1.5-5.8-2.6-7.8-5.2-2-2.7-6.1-5.3-6.1-5.3z" fill="#262626"/><path d="m91.2 216.5s7.9 2.2 10.3 3.7c2.8 1.8 9.9 7.5 13.5 7.6 3.1.1 6-1.4 5.6-3.2s-2.8-2.5-5.9-4-5.8-3.7-7.1-6.1c-1.2-2.3-16.4 2-16.4 2z" fill="#fff"/><path d="m42.2 193.4s6.1 10.2 8.2 11.8c2.2 1.6 11.1 4.6 14.9 3.7s3.7-.8 3.9-2.7c.2-2 .6-2.2-2.6-3.7-3.1-1.6-6.9-5.3-7.5-7.4s-7.2-6.4-10.2-6.3c-2.9.1-6.7 4.6-6.7 4.6z" fill="#262626"/><path d="m45 193.6c2.9 2.3 5.6 8.2 7.5 9.1s8.9 3.4 13 2.7c3.6-.6 3.9-.8 3-1.7s-5-2.3-6.5-4.6c-1.5-2.4-5.3-7.9-5.3-7.9z" fill="#fff"/><path d="m97.4 125c1.2 3.7 5.7 16.4 7.9 23.6s5.4 18.1 5.7 20.6c.3 2.2-.9 7.8-1.6 11.3s-2.6 19-2.8 22.9c-.2 3-.8 4.6.7 6.3s2.6 4.6 2 5.9c-.7 1.3-6.2 3.4-10.5 3.7s-8.8-.1-9.3-1.2-.8-4.7-.4-8.8 3-33.8 2.1-37.4c-.9-3.7-6.2-16.8-8-21.1-1.2-2.9-2.5-5.4-2.5-5.4l2.9-17.4z" fill="#06547a"/><path d="m97.4 125c1.2 3.7 5.7 16.4 7.9 23.6s5.4 18.1 5.7 20.6c.3 2.2-.9 7.8-1.6 11.3s-2.6 19-2.8 22.9c-.2 3-.8 4.6.7 6.3s2.6 4.6 2 5.9c-.7 1.3-6.2 3.4-10.5 3.7s-8.8-.1-9.3-1.2-.8-4.7-.4-8.8 3-33.8 2.1-37.4c-.9-3.7-6.2-16.8-8-21.1-1.2-2.9-2.5-5.4-2.5-5.4l2.9-17.4z" opacity=".2"/><path d="m84.2 131.8s-2.7 11.7-3.5 13.5-1.9 6.5-3.1 10.7c-3.2 10.9-5.2 13.7-7.8 16.9-2.2 2.7-8.2 10.3-9.5 12.2-1.2 1.6-2.1 3.4-1.4 5.1s1.3 5.2 1.3 5.2-6 2.7-11.8 1.7-8.2-4.5-8.2-6.9 2.1-5.8 2.1-5.8-.4-4.1 1.6-6.4c2-2.4 4.3-6.9 6.4-9.7 1.7-2.2 3.1-3.8 3.5-6.8.8-4.9 1.6-14.1 2.4-19.6s1.5-10.5 4.6-19.6c2.4-6.9 5.1-8.1 5.1-8.1z" fill="#06547a"/><path d="m78 56.1c-.2 2.3.2 4.2-2.6 6.6s-4.7 3.4-4.7 3.4 7.1 12.7 15.7 11.3 8.3-13.5 8.3-13.5l-8.1-7.3z" fill="#fbd7c7"/><path d="m91.5 61.5s4-.7 6.8.1c2.9.9 6.3 3.8 5.9 7.1s-.9 5.1-.7 8.2.4 9.9-2.5 13.9c-2.8 4-3.2 9.1-3.4 12.8-.1 4 .3 16.8 1 22.8.3 2.6-4.8 5.7-13.8 6.3-7.4.6-22.9-5.6-24-10.9s4.8-35.2 4.8-35.2-7-.1-7.2-1.2-1.3-8.6.6-11.8c2.2-3.7 5.5-5.1 8.9-6.6 2.6-1.2 4-2 4-2s5.9 12.1 13.9 10.1c10.7-2.4 5.7-13.6 5.7-13.6z" fill="#e5e5e5"/><path d="m71.7 86.4s-5.1.2-7.7.1-5.6-.9-5.6-.9.5 2.2.2 3.5-2.3 14.8-2.6 15.8c-.5 1.6-.5 3.9.9 6.9 1.3 3 9.4 21.2 9.9 23.5.6 2.3 1.2 4.6 1.2 6.9.1 2.2-.1 2.5 1.3 3.9s2.9 1.8 4.6 2.3c1.6.5 2.8-.6 2.8-.6s1 .7 2.1.6c1-.1 1.4-.9 1.4-.9s2.2 1.4 3 .9c.9-.6-1.3-1.8-2.3-2.8s-1.5-2.8-1.5-2.8.8-3.1-.4-5.5-1.6-3-3.4-4.3-1.9-.1-3.3-3.3-2.4-9.8-3.9-13.9c-1.4-4.2-3.5-7.9-3.4-9s3.5-6.7 4.9-12.6c1.6-6.1 1.8-7.8 1.8-7.8z" fill="#fbd7c7"/><path d="m84.5 36.1c-5.4.3-8.4 3.5-8.6 7.1s0 6.2 0 6.2-1-.4-1.3.8c-.3 1.3.7 4.6 2.5 6.2s2.7 4.7 4.8 6.9c2.1 2.3 6.7 5.4 9.9 5s5.7-12.5 5.5-16.4-.1-16.5-12.8-15.8z" fill="#fbd7c7"/><path d="m84.5 35.8c-5.4.3-8.4 3.6-8.8 7.4-.3 2.8-.1 5.1.1 6.1.6.3 1.6.6 2.3 1.7 1 1.7 1 2.4 1 2.4l1.4-.5s1.5-7.5 3.7-8.3 4.1 1.9 7 1.3c2.8-.6 2.5-2.9 3.7-3 .2 0 .6.1 1 .3-1.5-4-4.5-7.8-11.4-7.4z" fill="#825012"/></svg>