<?xml version="1.0" encoding="UTF-8" standalone="no"?>
<svg
   xmlns:dc="http://purl.org/dc/elements/1.1/"
   xmlns:cc="http://creativecommons.org/ns#"
   xmlns:rdf="http://www.w3.org/1999/02/22-rdf-syntax-ns#"
   xmlns:svg="http://www.w3.org/2000/svg"
   xmlns="http://www.w3.org/2000/svg"
   xmlns:sodipodi="http://sodipodi.sourceforge.net/DTD/sodipodi-0.dtd"
   xmlns:inkscape="http://www.inkscape.org/namespaces/inkscape"
   enable-background="new 0 0 160 160"
   viewBox="0 0 11.086543 10.582678"
   version="1.1"
   id="svg30"
   sodipodi:docname="city--basicman10.svg"
   width="11.086543"
   height="10.582678"
   inkscape:version="0.92.2 (5c3e80d, 2017-08-06)">
  <metadata
     id="metadata36">
    <rdf:RDF>
      <cc:Work
         rdf:about="">
        <dc:format>image/svg+xml</dc:format>
        <dc:type
           rdf:resource="http://purl.org/dc/dcmitype/StillImage" />
        <dc:title></dc:title>
      </cc:Work>
    </rdf:RDF>
  </metadata>
  <defs
     id="defs34" />
  <sodipodi:namedview
     pagecolor="#ffffff"
     bordercolor="#666666"
     borderopacity="1"
     objecttolerance="10"
     gridtolerance="10"
     guidetolerance="10"
     inkscape:pageopacity="0"
     inkscape:pageshadow="2"
     inkscape:window-width="870"
     inkscape:window-height="480"
     id="namedview32"
     showgrid="false"
     fit-margin-top="0"
     fit-margin-left="0"
     fit-margin-right="0"
     fit-margin-bottom="0"
     inkscape:zoom="1.475"
     inkscape:cx="62.279386"
     inkscape:cy="70.795438"
     inkscape:window-x="0"
     inkscape:window-y="0"
     inkscape:window-maximized="0"
     inkscape:current-layer="svg30" />
  <g
     id="g52"
     transform="matrix(0.09863553,0,0,0.09863553,-1.7478822,-4.2911102)">
    <path
       id="path2"
       d="m 21.1,135.6 c 8.8,4.6 19.7,1.3 24.8,-1.3 5.1,-2.6 8.3,-0.3 9.5,1.9 1.2,2.2 3.3,10 9.1,12.3 5.8,2.3 12.3,2.3 19.7,-5 7.5,-7.3 14.5,-5.5 18.6,-3.5 4.1,2 8,8.2 9.7,9.1 1.8,0.9 1.1,-2.8 3.4,-1.8 2.4,1.1 8.5,5.1 12,2.7 3.4,-2.5 -4.7,-7.5 -9.8,-9.8 -24.6,-11 -9,-14.8 -20.3,-22.6 -11.3,-7.8 -20.3,2.7 -28.3,-2.6 -8,-5.3 -17,-3.4 -24.7,1.4 -7.7,4.8 -36.9,12.3 -23.7,19.2 z"
       inkscape:connector-curvature="0"
       style="opacity:0.2" />
    <path
       id="path4"
       d="m 54.6,129 c -3.6,2.1 -12.3,6.9 -16.2,7.3 -4.8,0.5 -7.4,-1.6 -8.3,-5.1 -1.4,-5.2 18.2,-13.5 18.2,-13.5 z"
       inkscape:connector-curvature="0"
       style="fill:#262626" />
    <path
       id="path6"
       d="m 52.8,127.7 c -4.5,2 -12.3,7.5 -16.9,6 -4.5,-1.6 -4.6,-4.4 -3.4,-6.7 2.4,-4.6 17.4,-7.2 17.4,-7.2 z"
       inkscape:connector-curvature="0"
       style="fill:#ffffff" />
    <path
       id="path8"
       d="m 47,121.8 c 1.7,-0.2 1.3,2.9 0.4,3.9 -0.9,1 -7.6,4.5 -11.5,6.1 -3.9,1.6 -10.3,3 -13.5,2.5 -3.2,-0.5 -3.4,-3.7 -1.9,-4.9 1.6,-1.2 6.4,-2.4 9.2,-5.7 2,-2.4 4.6,-6.5 4.6,-6.5 z"
       inkscape:connector-curvature="0"
       style="fill:#262626" />
    <path
       id="path10"
       d="m 45.1,123.1 c -2.1,1 -7.6,4.6 -12.4,6.1 -4.8,1.5 -9.6,2.2 -11.6,0.9 -1.3,-0.9 3.8,-1.7 6.5,-4 3.8,-3.1 5.1,-6.6 5.1,-6.6 z"
       inkscape:connector-curvature="0"
       style="fill:#ffffff" />
    <path
       id="path12"
       d="m 58.5,111.1 c -3,-0.3 -8.1,1.1 -9.9,6.2 -1.8,5.1 -1.2,9.7 1,10.6 2.2,0.9 3.5,0.1 4.4,1.5 0.9,1.4 3.3,7 4.5,10.1 1.2,3.1 3.2,6.4 5.5,8 2.3,1.6 6.2,2.7 10.2,0.4 4,-2.4 8,-6.5 11.6,-8.8 4.7,-3 14.9,-12.6 17.2,-16.3 2.3,-3.7 2.1,-6.2 2.1,-6.2 L 80.7,105.8 c 0,0 -9.5,9.1 -9.7,10.2 -0.2,1.1 2.2,3.3 1.9,4.6 -0.3,1.3 -0.6,2 -0.6,2 0,0 -7.7,-10.9 -13.8,-11.5 z"
       inkscape:connector-curvature="0"
       style="fill:#06547a" />
    <path
       id="path14"
       d="m 80.3,108.2 -9,8.1 c 0,0 -2.3,-1.2 -3.7,-3 -1.6,-2.1 -5.7,-12.6 -5.7,-12.6 0,0 -3.6,7 -4.7,9.8 -1.1,2.8 -7.6,8.8 -7.8,10.5 -0.2,1.7 -0.1,3.4 -1.9,3.6 -1.8,0.2 -14.1,-0.2 -16.6,-1.8 -1.9,-1.2 -0.7,-5.1 2.5,-7.1 2,-1.3 2.8,-3.3 3.8,-6.2 1,-2.8 3.7,-4.9 5.5,-8.6 1.8,-3.7 7.3,-20.2 9.3,-24.4 2,-4 6.5,-9.2 13,-4.9 6.8,4.5 7.9,5.7 11.6,10.2 3.5,4.2 7.3,9.2 7.3,9.2 z"
       inkscape:connector-curvature="0"
       style="fill:#06547a" />
    <path
       id="path16"
       d="m 80.3,108.2 -9,8.1 c 0,0 -2.3,-1.2 -3.7,-3 -1.6,-2.1 -5.7,-12.6 -5.7,-12.6 0,0 -3.6,7 -4.7,9.8 -1.1,2.8 -7.6,8.8 -7.8,10.5 -0.2,1.7 -0.1,3.4 -1.9,3.6 -1.8,0.2 -14.1,-0.2 -16.6,-1.8 -1.9,-1.2 -0.7,-5.1 2.5,-7.1 2,-1.3 2.8,-3.3 3.8,-6.2 1,-2.8 3.7,-4.9 5.5,-8.6 1.8,-3.7 7.3,-20.2 9.3,-24.4 2,-4 6.5,-9.2 13,-4.9 6.8,4.5 7.9,5.7 11.6,10.2 3.5,4.2 7.3,9.2 7.3,9.2 z"
       inkscape:connector-curvature="0"
       style="opacity:0.2" />
    <path
       id="path18"
       d="m 87.9,59.2 c -5,0.1 -13.4,-1.6 -17.7,-2.6 -4.3,-1 -7.6,-1.7 -9.5,2.6 -1.9,4.3 -6.6,19.9 -7,21.5 -0.4,1.6 -1.9,8.3 -2.1,10.5 -0.1,1.3 0.8,5 1.5,5.7 0.7,0.7 1.4,0 1.5,0.4 0.2,0.3 0.9,3.1 1.7,3.5 0.8,0.3 1.3,-0.4 1.6,-0.2 0.3,0.2 0.8,2.2 2,2.1 1,-0.1 0.8,-0.8 0.8,-0.8 0,0 0.9,1.5 1.8,1.2 1.2,-0.4 -0.1,-3.1 -0.3,-5.6 -0.2,-3.2 0.1,-4.4 0.1,-4.4 0,0 1.1,-0.3 1.3,-1.3 0.2,-1 0.5,-5.5 -0.2,-6.7 -0.7,-1.2 -2.6,-2.9 -2.6,-3.9 0,-1 1.1,-4.6 3.7,-8 2.6,-3.4 3.5,-6.5 3.5,-6.5 0,0 3.8,2.1 9.1,3.8 5.3,1.6 10.5,2.6 10.5,2.6 z"
       inkscape:connector-curvature="0"
       style="fill:#fbd7c7" />
    <path
       id="path20"
       d="m 95.9,60.7 c -3.3,-0.8 -4.1,-1.9 -7.5,-2.2 -3.4,-0.3 -4.2,-0.2 -4.9,0.9 -0.7,1.1 -1.5,5 -1,8.5 0.5,3.5 1.8,5.2 2,7.2 0.2,2 0.2,5 0.9,8.2 0.6,3.2 1.3,4.9 1.3,4.9 0,0 -2,0.9 -3.3,1.6 -1.4,0.7 -2.5,7 -3.9,10.4 -1.4,3.4 -3.5,5.7 0.6,11.2 4.5,5.9 9.7,12.4 16.2,12.9 4,0.3 6.4,0.1 7.6,-1.9 1.3,-2 2.2,-5.3 3.2,-6.4 1,-1.1 12.1,-11.1 13.2,-13.6 1.1,-2.5 0.3,-2.7 1.9,-4.5 1.6,-1.8 3.5,-7.4 2.6,-11.2 -0.9,-3.8 -6.7,-12.4 -10.3,-16.8 -8.1,-9.6 -18.6,-9.2 -18.6,-9.2 z"
       inkscape:connector-curvature="0"
       style="fill:#e5e5e5" />
    <path
       id="path22"
       d="m 108.8,64.6 c 0,0 0.1,1.3 1.5,2.2 1.4,0.9 4.6,3.8 4.7,6.2 0.1,2.4 -6.3,9.7 -11.6,9.3 -5.3,-0.4 -7.5,-7.3 -7.4,-8.6 0.1,-1.3 5.4,-9.6 5.4,-9.6 z"
       inkscape:connector-curvature="0"
       style="fill:#fbd7c7" />
    <path
       id="path24"
       d="m 111.4,60.6 c 0,0 1.6,1 -1,3.9 -2.6,2.8 -3.3,1.9 -3.3,1.9 0,0 -0.7,3.8 -4.5,5.6 -3.8,1.8 -9.9,4.9 -12.3,2.4 -2.2,-2.3 -1.7,-11.4 -1.2,-16.7 0.5,-5.3 4.3,-12.2 10,-13.8 5.2,-1.4 13,0.9 13.9,7.2 0.9,6.3 -1.6,9.5 -1.6,9.5 z"
       inkscape:connector-curvature="0"
       style="fill:#fbd7c7" />
    <path
       id="path26"
       d="m 111.4,60.6 c 0,0 2.5,-3.2 1.6,-9.5 -0.9,-6.3 -8.7,-8.6 -13.9,-7.2 -2.5,0.7 -4.6,2.4 -6.2,4.5 0.3,1.2 -0.7,3.6 1.4,4.9 2.4,1.4 5.2,-0.7 8.2,0.8 3,1.5 2,9.3 2,9.3 l 2.2,-0.1 c 0,0 0.6,-2 2.2,-2.6 1.1,-0.5 1.9,-0.4 2.5,-0.1 z"
       inkscape:connector-curvature="0"
       style="fill:#825012" />
    <path
       id="path28"
       d="m 108.9,96.1 c 0,0 3.6,2.8 6.7,3.1 3.1,0.3 6.2,-0.8 6.2,-0.8 0,0 -1.2,5.9 -1.4,8.8 -0.2,2.9 0,7.5 -1.4,11.4 -1.4,3.9 -5.6,17.2 -5.2,17.9 0.3,0.7 8.8,4.2 10.3,5 1.5,0.8 4.1,2.7 4.2,3.2 0,0.1 0,0.4 -0.5,0.7 1,0.8 2.8,2.1 2.2,2.8 -0.5,0.6 -1.1,0.6 -1.5,0.4 0.1,0.1 1.2,0.9 0.8,1.5 -0.7,0.8 -2.5,-0.1 -3.4,-0.7 0.3,0.3 0.3,0.7 -0.2,1.2 -0.6,0.6 -2.8,-0.3 -4.1,-1.1 -1.3,-0.8 -7.3,-4.1 -7.3,-4.1 0,0 0.7,1.6 0.5,2.8 -0.2,1.2 -1.4,1.3 -1.9,0.8 -0.5,-0.5 -2.2,-3.6 -2.7,-3.9 -0.5,-0.3 -1.3,-1.6 -1.2,-2.3 0.1,-0.7 -0.1,-1.5 -0.7,-2.9 -0.6,-1.4 -0.9,-2 -0.5,-6.5 0.5,-4.5 0.2,-10.7 1.3,-15.3 0.7,-3.2 1.6,-5.2 1.4,-6.2 -0.1,-1 -1.7,-5.8 -1.8,-9.8 -0.1,-3.1 0.2,-6 0.2,-6 z"
       inkscape:connector-curvature="0"
       style="fill:#fbd7c7" />
  </g>
</svg>
