<?xml version="1.0" encoding="UTF-8" standalone="no"?>
<svg
   xmlns:dc="http://purl.org/dc/elements/1.1/"
   xmlns:cc="http://creativecommons.org/ns#"
   xmlns:rdf="http://www.w3.org/1999/02/22-rdf-syntax-ns#"
   xmlns:svg="http://www.w3.org/2000/svg"
   xmlns="http://www.w3.org/2000/svg"
   xmlns:sodipodi="http://sodipodi.sourceforge.net/DTD/sodipodi-0.dtd"
   xmlns:inkscape="http://www.inkscape.org/namespaces/inkscape"
   enable-background="new 0 0 80 240"
   viewBox="0 0 6.4654055 21.543306"
   version="1.1"
   id="svg32"
   sodipodi:docname="city--man03.svg"
   width="6.4654055"
   height="21.543306"
   inkscape:version="0.92.2 (5c3e80d, 2017-08-06)">
  <metadata
     id="metadata38">
    <rdf:RDF>
      <cc:Work
         rdf:about="">
        <dc:format>image/svg+xml</dc:format>
        <dc:type
           rdf:resource="http://purl.org/dc/dcmitype/StillImage" />
        <dc:title></dc:title>
      </cc:Work>
    </rdf:RDF>
  </metadata>
  <defs
     id="defs36" />
  <sodipodi:namedview
     pagecolor="#ffffff"
     bordercolor="#666666"
     borderopacity="1"
     objecttolerance="10"
     gridtolerance="10"
     guidetolerance="10"
     inkscape:pageopacity="0"
     inkscape:pageshadow="2"
     inkscape:window-width="870"
     inkscape:window-height="480"
     id="namedview34"
     showgrid="false"
     fit-margin-top="0"
     fit-margin-left="0"
     fit-margin-right="0"
     fit-margin-bottom="0"
     inkscape:zoom="0.98333333"
     inkscape:cx="36.558498"
     inkscape:cy="111.73306"
     inkscape:window-x="0"
     inkscape:window-y="0"
     inkscape:window-maximized="0"
     inkscape:current-layer="svg32" />
  <g
     id="g55"
     transform="matrix(0.10094296,0,0,0.10094296,-0.34739538,-1.8485138)">
    <path
       id="path2"
       d="m 58.8,116.4 c 0,0 -0.5,4.7 -2.1,7 -1.6,2.3 -3.4,3.5 -3.4,3.5 l 0.1,-8.3 1.1,-4.3 z"
       inkscape:connector-curvature="0"
       style="fill:#fbd7c7" />
    <path
       id="path4"
       d="m 8.6,113 c 0,0 -0.7,6.3 -1.1,7.5 -0.3,1.2 0.7,3.3 2.1,4 3.1,1.6 5.5,1.1 6.3,0.8 1.2,-0.4 -2.6,-12.7 -2.6,-12.7 z"
       inkscape:connector-curvature="0"
       style="fill:#fbd7c7" />
    <path
       id="path6"
       d="m 14.4,50.6 c 0,0 -7,1.1 -9.7,5.3 C 2,60.1 4.5,70.1 4.4,76.6 4.3,83.1 4.2,94 4.6,98.3 c 0.5,4.3 2.2,10.6 2.2,12.4 0,1.8 -0.4,3.3 2.4,3.5 2.8,0.3 5.6,-0.6 5.6,-0.6 0,0 2.7,-23.8 2.3,-28.9 -0.4,-5.1 -2.7,-34.1 -2.7,-34.1 z"
       inkscape:connector-curvature="0"
       style="fill:#ffcc00" />
    <path
       id="path8"
       d="m 10.8,63.9 c 0,0 -1.2,11.1 0.1,16.2 1.3,5 2.5,9.9 1.8,13.6 -0.7,3.7 -2,9.6 -1.3,14.2 0.7,4.6 2.2,7 2.2,7 L 19.5,89.6 14,73.2 Z"
       inkscape:connector-curvature="0"
       style="opacity:0.2" />
    <path
       id="path10"
       d="m 19.2,214.2 c -3.1,3.1 -9.5,10.6 -2.8,14.2 6.7,3.6 13.8,3.5 20.9,3.2 7.1,-0.3 25.2,-3.2 28,-6.3 2.8,-3.2 3.9,-7.9 -2.8,-9.1 -6.7,-1.2 -11,-5.9 -20.1,-5.5 -9,0.4 -22.4,2.7 -23.2,3.5 z"
       inkscape:connector-curvature="0"
       style="opacity:0.3;fill:#262626" />
    <path
       id="path12"
       d="m 18.6,218.2 c 0,0 1.4,6.3 5.7,6.3 4.3,0 18.7,-2.2 18.7,-2.2 l -11.4,-8.7 z"
       inkscape:connector-curvature="0"
       style="fill:#262626" />
    <path
       id="path14"
       d="m 25.6,223.1 c 0,0 -0.8,6.5 2.4,6.9 3.2,0.4 14.4,-1 17.6,-1 3.2,0 14.8,-2.4 15.8,-5.1 1,-2.8 -0.4,-5.7 -4.7,-5.7 -4.3,0 -12.2,0.2 -13.6,-0.2 -1.6,-0.4 -17.5,5.1 -17.5,5.1 z"
       inkscape:connector-curvature="0"
       style="fill:#762c07" />
    <path
       id="path16"
       d="m 61.4,221.1 c 0,0.5 -0.1,0.9 -0.3,1.4 -1,2.8 -13,5.3 -16.2,5.3 -3.2,0 -14.8,1.4 -18.1,1 -0.2,0 -0.5,-0.1 -0.7,-0.2 0.4,0.7 0.9,1.3 1.8,1.4 3.2,0.4 14.4,-1 17.6,-1 3.2,0 14.8,-2.4 15.8,-5.1 0.3,-1 0.3,-1.9 0.1,-2.8 z"
       inkscape:connector-curvature="0"
       style="fill:#262626" />
    <path
       id="path18"
       d="m 13.5,112.3 c -0.8,2.6 3.5,29.6 3.5,32.7 0,3.1 1.8,17 1.4,21.5 -0.4,4.5 -1.4,27.2 -1.8,34.5 -0.4,7.3 0.4,18.9 2.4,20.1 2,1.2 8.7,1.2 10.6,0.8 1.9,-0.4 3.9,-105.5 3.9,-105.5 z"
       inkscape:connector-curvature="0"
       style="fill:#3399cc" />
    <path
       id="path20"
       d="m 13.5,112.3 c -0.8,2.6 3.5,29.6 3.5,32.7 0,3.1 1.8,17 1.4,21.5 -0.4,4.5 -1.4,27.2 -1.8,34.5 -0.4,7.3 0.4,18.9 2.4,20.1 2,1.2 8.7,1.2 10.6,0.8 1.9,-0.4 3.9,-105.5 3.9,-105.5 z"
       inkscape:connector-curvature="0"
       style="opacity:0.2" />
    <path
       id="path22"
       d="m 26.9,118.2 c 0,0 1,11.8 1,17.2 0,5.4 -2.8,45 -3.4,52.7 -0.6,7.7 -1.4,33.9 -0.2,36.5 1.2,2.6 3.4,3.5 7.4,2.6 4,-0.9 9.1,-2.4 12.1,-6.1 0.8,-1 2.9,-2.7 2.9,-2.7 0,0 -3.2,-5 -2.6,-10.5 0.6,-5.5 1.2,-15.4 1,-19.7 -0.2,-4.3 -0.2,-10.6 1.4,-16.4 1.6,-5.8 5.7,-17.9 6.9,-35.9 1.2,-18 0.8,-21.5 0.8,-21.5 z"
       inkscape:connector-curvature="0"
       style="fill:#3399cc" />
    <path
       id="path24"
       d="m 21.7,49.1 c 0,0 4.9,0.4 4.9,-3.7 0,-4.1 -0.1,-6.7 -0.1,-6.7 0,0 -2.5,-1.1 -2.3,-4.7 0.2,-3.6 1.3,-2.8 1.3,-2.8 L 44.9,33 c 0,0 1.3,0.4 0.3,3.9 -0.4,1.3 -1.4,3 -1.4,3.5 0,0.5 -1,3.5 -1.7,3.9 -0.7,0.4 -1.9,4.8 -1.9,6.3 0,1.5 0.7,3.5 0.7,3.5 0,0 -8.1,0.1 -12.8,-1 -4.7,-1.1 -6.4,-4 -6.4,-4 z"
       inkscape:connector-curvature="0"
       style="fill:#fbd7c7" />
    <path
       id="path26"
       d="m 26.9,43.1 c -0.4,-0.2 -0.6,-4.3 -0.9,-6.6 -0.3,-2.3 -2.8,-10 1.2,-14.9 4,-4.9 15.2,-4.5 17.3,2.4 1.9,6.2 0.7,10 -1,13.5 -1.7,3.5 -3.5,5.2 -4.1,6 -0.6,0.7 -6.2,1.5 -7.5,1.4 -1.2,0 -3.6,-1.2 -5,-1.8 z"
       inkscape:connector-curvature="0"
       style="fill:#825012" />
    <path
       id="path28"
       d="m 40.6,52.1 c -0.6,-0.2 -6,0.6 -10.5,-0.7 -4.5,-1.3 -6.5,-3.3 -6.5,-3.3 0,0 -9.3,1.8 -11.7,3 C 9.2,52.4 8.8,54.5 8.4,56.6 7.9,59.2 7.7,62 8,65 c 0.9,9.1 4.1,11.7 5,14 0.9,2.4 2.9,10.9 1.5,17.9 -1.4,7 -2,15.4 -1.8,17.6 0.2,2.2 2.4,7.7 14.7,8.3 14.5,0.7 26.8,-4.6 26.8,-4.6 v -1.1 c 0,0 0.7,1.3 2.6,1.2 1.9,-0.1 4,-2.3 4,-3 0,-0.7 0.4,-7.8 0.7,-9.4 0.3,-1.6 1.2,-2.5 0,-6.6 C 60.4,95.2 57.7,81.5 57,75 56.3,68.5 56.1,66.2 52.9,62.4 49.6,58.5 40.6,52.1 40.6,52.1 Z"
       inkscape:connector-curvature="0"
       style="fill:#ffcc00" />
    <path
       id="path30"
       d="m 54.3,117.1 c 0,0 -2.1,-3.1 -2.4,-5.1 -0.3,-2 -1,-9.3 -1.6,-10.9 C 49.7,99.4 49.5,96.3 48.4,94 47.3,91.6 41,77.7 41,77.7 c 0,0 0.9,6.4 3,11.3 0.8,1.9 2.5,3.9 2.5,9.6 0,5.6 2.8,11.4 3.4,12.7 1.6,3.4 1.5,7 1.5,8 1.8,-0.6 2.9,-1.1 2.9,-1.1 v -1.1 c -0.1,0 0,0 0,0 z"
       inkscape:connector-curvature="0"
       style="opacity:0.2" />
  </g>
</svg>
