<?xml version="1.0" encoding="UTF-8" standalone="no"?>
<svg
   xmlns:dc="http://purl.org/dc/elements/1.1/"
   xmlns:cc="http://creativecommons.org/ns#"
   xmlns:rdf="http://www.w3.org/1999/02/22-rdf-syntax-ns#"
   xmlns:svg="http://www.w3.org/2000/svg"
   xmlns="http://www.w3.org/2000/svg"
   xmlns:sodipodi="http://sodipodi.sourceforge.net/DTD/sodipodi-0.dtd"
   xmlns:inkscape="http://www.inkscape.org/namespaces/inkscape"
   enable-background="new 0 0 160 240"
   viewBox="0 0 10.007515 21.921259"
   version="1.1"
   id="svg26"
   sodipodi:docname="city--basicman08.svg"
   width="10.007515"
   height="21.921259"
   inkscape:version="0.92.2 (5c3e80d, 2017-08-06)">
  <metadata
     id="metadata32">
    <rdf:RDF>
      <cc:Work
         rdf:about="">
        <dc:format>image/svg+xml</dc:format>
        <dc:type
           rdf:resource="http://purl.org/dc/dcmitype/StillImage" />
        <dc:title></dc:title>
      </cc:Work>
    </rdf:RDF>
  </metadata>
  <defs
     id="defs30" />
  <sodipodi:namedview
     pagecolor="#ffffff"
     bordercolor="#666666"
     borderopacity="1"
     objecttolerance="10"
     gridtolerance="10"
     guidetolerance="10"
     inkscape:pageopacity="0"
     inkscape:pageshadow="2"
     inkscape:window-width="870"
     inkscape:window-height="480"
     id="namedview28"
     showgrid="false"
     fit-margin-top="0"
     fit-margin-left="0"
     fit-margin-right="0"
     fit-margin-bottom="0"
     inkscape:zoom="0.98333333"
     inkscape:cx="49.63595"
     inkscape:cy="110.24962"
     inkscape:window-x="0"
     inkscape:window-y="0"
     inkscape:window-maximized="0"
     inkscape:current-layer="svg26" />
  <g
     id="g46"
     transform="matrix(0.09927877,0,0,0.09927877,-3.0145055,-0.93763996)">
    <path
       id="path2"
       d="M 71.9,227.5 C 94,214.7 84.2,205.5 75,199 c -9.2,-6.5 -24.6,-8.5 -40.6,2.9 -7.3,5.2 -4.4,14.3 6.3,21.2 5.8,3.7 19.4,11.2 31.2,4.4 z"
       inkscape:connector-curvature="0"
       style="opacity:0.2" />
    <path
       id="path4"
       d="m 64.8,207 c 0,0 1.4,-7.7 3,-11.5 1.6,-3.8 2.7,-5.4 2.7,-5.4 l -4.8,-13.4 -3.7,0.4 z"
       inkscape:connector-curvature="0"
       style="fill:#ffffff" />
    <path
       id="path6"
       d="m 80.7,101 c -2.9,6 -8.4,15.8 -10.1,21.6 -1.7,5.8 -5.6,14.3 -5.6,14.3 0,0 -3.3,0.5 -7.1,3.4 -3.8,2.9 -7.4,6.8 -8.4,8.1 -2.4,3.2 -6.3,13.6 0.9,17.5 7.2,3.9 11.1,-4.5 15.5,-7.8 3.3,-2.5 10.4,-5.6 13.1,-9.8 2.7,-4.2 4.3,-8.2 6.9,-10.7 2.6,-2.5 5.2,-10.5 7.5,-11.1 2.2,-0.7 1.7,-22 1.7,-22 z"
       inkscape:connector-curvature="0"
       style="fill:#06547a" />
    <path
       id="path8"
       d="m 80.7,101 c -2.9,6 -8.4,15.8 -10.1,21.6 -1.7,5.8 -5.6,14.3 -5.6,14.3 0,0 -3.3,0.5 -7.1,3.4 -3.8,2.9 -7.4,6.8 -8.4,8.1 -2.4,3.2 -6.3,13.6 0.9,17.5 7.2,3.9 11.1,-4.5 15.5,-7.8 3.3,-2.5 10.4,-5.6 13.1,-9.8 2.7,-4.2 4.3,-8.2 6.9,-10.7 2.6,-2.5 5.2,-10.5 7.5,-11.1 2.2,-0.7 1.7,-22 1.7,-22 z"
       inkscape:connector-curvature="0"
       style="opacity:0.2" />
    <path
       id="path10"
       d="m 91.9,107.4 c -1.7,6.5 -0.5,15.4 0.8,18.3 1.3,2.9 2,5.8 1.3,12.8 -0.7,7.1 -0.7,11.4 -2.6,13.2 -2,1.8 -16.6,10.7 -20.9,14.4 -4.3,3.7 -6.2,6.3 -7.6,6.8 -1.4,0.5 -4.8,3.1 -5.4,4.5 -1.4,3.2 5.4,18.2 9.3,17.5 3.9,-0.7 5.5,-5.9 7.2,-7.7 3.9,-4.1 21.7,-15.1 27.6,-18.2 5.3,-2.8 8.1,-4.8 8.9,-9.3 0.8,-4.5 3.5,-19.5 5.9,-29.6 2.4,-10.1 1.4,-16.9 0.1,-21.7 -1.3,-4.8 -24.6,-1 -24.6,-1 z"
       inkscape:connector-curvature="0"
       style="fill:#06547a" />
    <path
       id="path12"
       d="m 62.7,21.5 c 0,0 2.6,-0.2 3.9,-0.3 3.4,-0.3 6.1,-3.7 5.9,-5 -0.1,-1.3 -2,-4 -2.5,-5.4 -0.5,-1.4 -3.4,-2 -4.8,-0.4 -1.4,1.6 -2.1,2.5 -4.1,3.8 -2,1.4 -6,8.1 -7.5,12 -1.5,3.9 -4.4,7.3 -5.2,10.9 -0.8,3.6 -0.5,6 4.3,8.4 4.7,2.4 10.7,7.5 12.2,10.1 1.5,2.6 4.5,7.9 9.6,2.1 5.1,-5.8 4.4,-7 1.7,-9.2 -2.7,-2.2 -5.6,-6.2 -9.6,-7.9 -4,-1.7 -7.6,-3.2 -7.6,-3.2 0,0 1.6,-4.1 2.4,-9 0.8,-4.9 1.3,-6.9 1.3,-6.9 z"
       inkscape:connector-curvature="0"
       style="fill:#fbd7c7" />
    <path
       id="path14"
       d="m 83.1,49.2 c 0,0 -7.7,-4.3 -11.3,-2.5 -3.6,1.9 -6.4,8.7 -5.4,11.2 1,2.5 3.4,6.9 6.3,10.2 2.8,3.3 10.6,12.3 10.1,19.2 -0.5,6.9 -2.4,12.2 -3.1,14 -0.7,1.9 7.3,8 15,9.5 7.8,1.6 22.3,0.7 22.4,-1.5 0.1,-2.8 -0.2,-13.1 -0.9,-17.1 -0.6,-3.9 1.4,-11.5 2.3,-17.8 0.9,-6.3 1,-14.5 -5,-17.1 -6,-2.6 -7.1,-1.7 -11.8,-1.9 -3.2,0.1 -18.6,-6.2 -18.6,-6.2 z"
       inkscape:connector-curvature="0"
       style="fill:#e5e5e5" />
    <path
       id="path16"
       d="m 51.3,150.9 c 2.4,-3 9.3,-2.7 8.5,3.8 -0.8,6.6 -3.1,8 -3.8,12.4 -0.7,4.4 -3.7,12.5 -7.9,14.2 -4.1,1.8 -10,-0.1 -9.9,-5.7 0.1,-5.6 4.7,-10.8 6.8,-14.9 2.1,-4.1 4.9,-8.1 6.3,-9.8 z"
       inkscape:connector-curvature="0"
       style="fill:#262626" />
    <path
       id="path18"
       d="m 58.8,176.8 c -2.5,1.3 -2.7,4.6 -2.7,7.3 0,2.7 0.1,9.2 -1.1,14.5 -1.2,5.3 0.6,11.8 3.6,13.1 3,1.3 6.1,-1 6.8,-2.3 0.7,-1.3 0.8,-12.3 0.8,-14.6 0,-2.4 -0.8,-17.3 -4.3,-18.2 -1.3,-0.3 -2.2,-0.3 -3.1,0.2 z"
       inkscape:connector-curvature="0"
       style="fill:#262626" />
    <path
       id="path20"
       d="m 104.6,56 c -2.7,-1.6 -3.5,-4.1 -4.1,-6.5 -0.6,-2.4 -1.4,-3.1 -1.6,-5.1 -0.1,-2 2,-6.7 0.7,-9.6 C 98.2,31.9 87.8,26.5 80.7,30.5 73.5,34.6 72.3,41.2 73.6,46.1 75,51 82,54 82,54 c 0,0 1.7,3.9 9,4.7 7.4,0.9 13.6,-2.7 13.6,-2.7 z"
       inkscape:connector-curvature="0"
       style="fill:#fbd7c7" />
    <path
       id="path22"
       d="m 96.3,47.7 c 0,0 -1.4,1.3 -2.9,0 -1.8,-1.6 1.2,-4.8 1.2,-4.8 l 0.7,-1.4 c 0,0 -1.6,-3.4 -3.1,-4.7 -1.5,-1.3 -2,-0.3 -4.1,-1.4 -2,-1 -0.9,-4.1 -3.8,-5.1 -1.4,-0.5 -3.3,0.1 -3.5,0.3 -7.2,4.1 -8.4,10.7 -7.1,15.6 1.3,4.9 8.4,7.9 8.4,7.9 0,0 3.1,0.4 6.7,-0.5 6.6,-1.6 7.5,-5.9 7.5,-5.9 z"
       inkscape:connector-curvature="0"
       style="fill:#825012" />
    <path
       id="path24"
       d="m 118.9,54.9 c 0,0 -1.4,-5 -1.7,-9.5 -0.3,-4.5 -0.3,-8.7 -1.4,-10.1 -1.1,-1.4 -3.1,-0.2 -4.5,-1.2 -1.4,-1 -4.5,-2.4 -4.4,-4.1 0.1,-1.6 1.7,-1.1 1.7,-1.1 0,0 -1.3,-1.2 -0.9,-3.1 0.5,-1.9 7.5,-5.6 9.3,-5.3 1.8,0.3 2.2,3.6 3.3,5.7 1.1,2.1 3.1,5.5 3.4,7.9 0.3,2.4 3.1,13.5 4.3,16.3 1.1,2.8 4.5,8.2 2.6,11.9 -1.4,2.7 -3.4,3.3 -7.2,3.8 -3.1,0.4 -10,4.4 -11.5,4.5 -1.4,0.1 -6,-1.4 -5.8,-8.3 0.2,-5.4 2.2,-6.3 3.1,-5.8 1,0.5 3.4,-0.3 5.6,-0.9 1.8,-0.4 4.1,-0.7 4.1,-0.7 z"
       inkscape:connector-curvature="0"
       style="fill:#fbd7c7" />
  </g>
</svg>
