<?xml version="1.0" encoding="UTF-8" standalone="no"?>
<svg
   xmlns:dc="http://purl.org/dc/elements/1.1/"
   xmlns:cc="http://creativecommons.org/ns#"
   xmlns:rdf="http://www.w3.org/1999/02/22-rdf-syntax-ns#"
   xmlns:svg="http://www.w3.org/2000/svg"
   xmlns="http://www.w3.org/2000/svg"
   xmlns:sodipodi="http://sodipodi.sourceforge.net/DTD/sodipodi-0.dtd"
   xmlns:inkscape="http://www.inkscape.org/namespaces/inkscape"
   enable-background="new 0 0 80 240"
   viewBox="0 0 8.107728 21.543306"
   version="1.1"
   id="svg30"
   sodipodi:docname="city--man05.svg"
   width="8.107728"
   height="21.543306"
   inkscape:version="0.92.2 (5c3e80d, 2017-08-06)">
  <metadata
     id="metadata36">
    <rdf:RDF>
      <cc:Work
         rdf:about="">
        <dc:format>image/svg+xml</dc:format>
        <dc:type
           rdf:resource="http://purl.org/dc/dcmitype/StillImage" />
        <dc:title></dc:title>
      </cc:Work>
    </rdf:RDF>
  </metadata>
  <defs
     id="defs34" />
  <sodipodi:namedview
     pagecolor="#ffffff"
     bordercolor="#666666"
     borderopacity="1"
     objecttolerance="10"
     gridtolerance="10"
     guidetolerance="10"
     inkscape:pageopacity="0"
     inkscape:pageshadow="2"
     inkscape:window-width="870"
     inkscape:window-height="480"
     id="namedview32"
     showgrid="false"
     fit-margin-top="0"
     fit-margin-left="0"
     fit-margin-right="0"
     fit-margin-bottom="0"
     inkscape:zoom="0.98333333"
     inkscape:cx="40.130373"
     inkscape:cy="114.82243"
     inkscape:window-x="0"
     inkscape:window-y="0"
     inkscape:window-maximized="0"
     inkscape:current-layer="svg30" />
  <g
     id="g52"
     transform="matrix(0.10114604,0,0,0.10114604,0.01318676,-2.208052)">
    <path
       id="path2"
       d="m 15.3,80.5 c -0.1,5.9 -1.4,12.4 -2.9,17.4 -1.5,5 -1,10.6 -0.5,11.7 0.5,1 1.8,4.7 2,5.5 0.3,0.8 1.6,0.8 1.8,-0.8 0.3,-1.6 -0.4,-4.9 0.2,-5.9 0.6,-1 2.3,-0.1 2.7,-2.3 0.4,-2.2 -0.6,-5.8 -0.1,-7.5 0.5,-1.7 2.9,-5.6 2.8,-8.3 -0.1,-2.7 0.1,-9.2 0.1,-9.2 z"
       inkscape:connector-curvature="0"
       style="fill:#fbd7c7" />
    <path
       id="path4"
       d="M 63.8,231.3 C 90.6,218.2 64.8,213.5 49.7,205.1 29,193.5 22.4,189.5 6.9,199 c -17,10.5 0.2,17.8 16,25.2 18.1,8.5 25,14.9 40.9,7.1 z"
       inkscape:connector-curvature="0"
       style="opacity:0.2" />
    <path
       id="path6"
       d="m 16.3,194.8 c -2.1,2.2 -5.1,5.4 -8.1,6.9 -3,1.6 -5.8,3.8 -5.3,6 0.5,2.1 3.8,4.6 10.1,3 3.7,-0.9 5.3,-4.4 7.8,-5.1 2.5,-0.7 6.4,-2.2 6.7,-3.6 0.3,-1.4 0.3,-5.2 0.3,-5.2 z"
       inkscape:connector-curvature="0"
       style="fill:#762c07" />
    <path
       id="path8"
       d="m 54.6,214.2 c -1,2.4 -2.6,5.6 -5.3,8.1 -2.6,2.5 -4.7,6.2 -3.2,8.1 1.5,1.9 8.1,2.4 11.3,0.6 3.2,-1.8 10,-7.6 10.4,-8.8 0.5,-1.2 -0.1,-6.2 -0.1,-6.2 z"
       inkscape:connector-curvature="0"
       style="fill:#762c07" />
    <path
       id="path10"
       d="m 27.6,202 c 0.1,-0.4 0.1,-0.9 0.2,-1.5 -1.3,1.1 -4.3,2.5 -7,3.3 -3.4,0.9 -5.7,4.8 -9.3,5.9 -3.2,0.9 -7.9,-0.5 -8.4,-3.3 -0.2,0.5 -0.2,0.9 -0.1,1.4 0.5,2.1 3.8,4.6 10.1,3 3.7,-0.9 5.3,-4.4 7.8,-5.1 2.5,-0.7 6.4,-2.3 6.7,-3.7 z"
       inkscape:connector-curvature="0"
       style="opacity:0.5" />
    <path
       id="path12"
       d="m 67.9,222.3 c 0.2,-0.4 0.2,-1.2 0.2,-2.2 -1.1,1.5 -3.5,3.6 -5.4,5.3 -2.1,2.1 -5.5,5 -9.5,5.5 -3.2,0.4 -6.3,-0.2 -7.5,-2.5 -0.1,0.8 0,1.5 0.4,2 1.5,1.9 8.1,2.4 11.3,0.6 3.3,-1.8 10,-7.6 10.5,-8.7 z"
       inkscape:connector-curvature="0"
       style="opacity:0.5" />
    <path
       id="path14"
       d="m 17.2,102.8 c 0,0 -3,9.5 -4,23.1 -1,13.6 0.6,35.5 0.6,46.4 0,10.9 1.1,19.2 0.4,21.3 -0.7,2.1 -1.2,3.3 0,3.3 1.2,0 5.9,2.1 8.7,2.7 2.8,0.6 5.1,1 5.7,-0.9 0.6,-1.9 3,-23.6 2.7,-31 -0.3,-7.4 0.2,-12.7 2,-19.2 1.8,-6.5 5.3,-26.8 5.3,-26.8 l 0.3,-13.9 z"
       inkscape:connector-curvature="0"
       style="fill:#656565" />
    <path
       id="path16"
       d="m 17.2,102.8 c 0,0 -3,9.5 -4,23.1 -1,13.6 0.6,35.5 0.6,46.4 0,10.9 1.1,19.2 0.4,21.3 -0.7,2.1 -1.2,3.3 0,3.3 1.2,0 5.9,2.1 8.7,2.7 2.8,0.6 5.1,1 5.7,-0.9 0.6,-1.9 3,-23.6 2.7,-31 -0.3,-7.4 0.2,-12.7 2,-19.2 1.8,-6.5 5.3,-26.8 5.3,-26.8 l 0.3,-13.9 z"
       inkscape:connector-curvature="0"
       style="opacity:0.2" />
    <path
       id="path18"
       d="m 26.1,105.9 c -0.1,1.4 0.3,19.9 1.5,23.3 1.2,3.4 5.1,5.3 7.8,13.2 2.7,7.9 3.5,15.2 6.2,23.6 2.7,8.4 10.1,36 10.5,41.7 0.5,5.7 -0.5,8.7 0.4,9.2 1.6,1 3.6,1.7 5.8,2.4 2.3,0.7 7.4,1.1 9.6,-0.1 2.1,-1.3 2.5,-2.2 1.8,-7.2 -0.8,-5 -3.2,-25.1 -5.2,-32.1 -2,-7 -6.2,-33.4 -6.4,-41.9 -0.3,-8.5 0.5,-17.1 -2.8,-24.1 -3.3,-7 -6.3,-9.4 -6.3,-9.4 z"
       inkscape:connector-curvature="0"
       style="fill:#656565" />
    <path
       id="path20"
       d="m 16.6,100.7 -0.1,3.6 c 0,0 1.1,5.9 13.8,7.1 12.7,1.2 20.4,-4.8 20.4,-4.8 L 50,103.5 c 0,0 -11,5.3 -21.5,3.6 -10.5,-1.7 -11.9,-6.4 -11.9,-6.4 z"
       inkscape:connector-curvature="0"
       style="fill:#762c07" />
    <path
       id="path22"
       d="m 30.6,45.8 c -4.5,1.6 -11,1.3 -12.9,6.8 -1.9,5.5 -4.9,14.7 -4.2,20.4 0.7,5.7 2.4,12 2.5,15.2 0.1,3.2 -0.6,8.2 0.1,10.7 0.7,2.5 0.8,5 4.9,6.8 6.1,2.7 11.6,3.4 18.6,2.4 8,-1.1 10.6,-3.3 11.3,-5.3 0.7,-2.1 1.2,-5.5 2,-10 0.8,-4.5 2.3,-10.4 2.3,-10.4 0,0 3.1,4.6 4.5,5.2 1.5,0.7 3.2,0.6 3.2,0.6 0,0 1.6,1.4 2.2,1.4 0.7,0 4.5,-1 7.2,-2.7 2.7,-1.6 3.9,-2.8 3.9,-3.2 0,-0.4 -1.1,-2.3 -1.1,-2.3 0,0 1.2,-1.1 0.5,-2.1 -0.7,-1 -6.5,-8.3 -8.4,-11.7 -1.9,-3.4 -4.8,-10 -9,-12.1 C 54,53.4 48.9,53.6 47.3,52.9 45.7,52.2 47.6,49.6 46.9,48.7 46.2,47.8 37.1,43.4 30.6,45.8 Z"
       inkscape:connector-curvature="0"
       style="fill:#e5e5e5" />
    <path
       id="path24"
       d="m 25,67.3 3.9,-7.9 c 0,0 3.3,-0.8 6.2,-3.4 2.9,-2.6 8.5,-5.3 8.5,-5.3 0,0 -2.9,-2.7 -3.3,-5.5 C 40,42.3 43.4,38.1 42.1,31.3 40.9,24.7 35,19.8 25.8,23.9 16.6,28 17.3,43 19.3,49.5 c 1.9,6.5 7.3,4.3 7.3,4.3 0,0 -1.1,5.1 -1.2,7 -0.1,1.8 -0.4,6.5 -0.4,6.5 z"
       inkscape:connector-curvature="0"
       style="fill:#fbd7c7" />
    <path
       id="path26"
       d="m 76,84 c 0,0 3,3.9 3.9,6.7 0.9,2.8 -3,8.6 -9.7,13.2 -6.7,4.6 -15.3,8.9 -17.2,10.2 -1.9,1.4 -8.5,6.7 -11.1,7.3 -5.4,1.4 -8.1,-0.6 -8.7,-2.7 -0.6,-2.1 6.3,-5.3 7.1,-6.2 0.8,-0.9 0,-2.8 -0.8,-3 -0.8,-0.3 -2.8,-0.6 -3.3,-2 -0.5,-1.4 1.2,-0.9 2.6,-0.6 1.4,0.3 4.5,1.1 5.5,1.5 1,0.3 1.6,1.5 3.2,0.9 1.6,-0.6 8.7,-9.1 12.7,-12.4 3.6,-3.1 7.5,-4.1 7.5,-4.1 l -2,-3.3 c 0,0 2.6,-0.5 6.1,-2.3 C 73.8,86 76,84 76,84 Z"
       inkscape:connector-curvature="0"
       style="fill:#fbd7c7" />
    <path
       id="path28"
       d="m 19.1,31.1 c -0.1,1.2 0.9,2.5 3.9,3.3 3.8,0.9 7.8,-2.1 11,-0.2 1.7,1.1 2.3,7.2 3.3,7.2 0.4,-1.9 1.1,-3.8 2.8,-3.5 1.5,0.3 1.3,2.2 1.2,2.9 0.9,0.4 3.7,-7.9 0.2,-13.9 C 38,21 30,20.8 25.2,23.5 c -4.8,2.7 -6,6.4 -6.1,7.6 z"
       inkscape:connector-curvature="0"
       style="fill:#825012" />
  </g>
</svg>
