<svg enable-background="new 0 0 80 240" viewBox="0 0 80 240" xmlns="http://www.w3.org/2000/svg"><path d="m65.7 233.1c21.2-5.9 7.4-23.7-17.8-25.9-8.7-.8-12.5-13.3-34 .4-17.3 11-1.3 16.3 7.5 20.5 12.1 5.6 23.4 10.8 44.3 5z" opacity=".2"/><path d="m9 65c-1.4 5.7-3.5 18-3 20.4s4.6 18.3 5.2 21.1c.5 2.8.5 6.4.5 6.4l10-9.1-5.2-29.3z" fill="#fbd7c7"/><path d="m11.5 211.3c-.6 2-2.9 7.7 1.6 9 5.2 1.5 7.6-.7 12.3-2.5s11.9-3.3 14.8-5.9c2.2-2-1.8-5.9-6-6.4s-5.3 1.4-6.5 1c-1.2-.3-1.9-1.2-1.9-1.2s-1.3 4.9-5.9 5.8c-4.6 1-8.4.2-8.4.2z" fill="#825012"/><path d="m15.1 104.6c-2.8 3.4-5.9 7.4-5.6 16.4.3 9.1.3 23.9 1.4 30.2s.6 13.2-.2 20.7-2.5 20-2.3 25.3c.2 6.6.9 14.3 1 17.4.1 2.5 3.3 4 6.8 3.1s9.5-4.9 10.5-5.6c.9-.7 3-2.8 2-5.1s-.9-14.1-.1-19.3 2.8-20.8 2.8-25.3c0-4.4 7.8-15.2 8.1-24.2s.3-32.2.3-32.2z" fill="#06547a"/><path d="m15.1 104.6c-2.8 3.4-5.9 7.4-5.6 16.4.3 9.1.3 23.9 1.4 30.2s.6 13.2-.2 20.7-2.5 20-2.3 25.3c.2 6.6.9 14.3 1 17.4.1 2.5 3.3 4 6.8 3.1s9.5-4.9 10.5-5.6c.9-.7 3-2.8 2-5.1s-.9-14.1-.1-19.3 2.8-20.8 2.8-25.3c0-4.4 7.8-15.2 8.1-24.2s.3-32.2.3-32.2z" opacity=".2"/><path d="m31.5 213.5c-4.4 1.1-11.2 4.2-15 5-2.4.5-4.7-.5-6.1-1.4.2 1.4.9 2.7 2.7 3.2 5.2 1.5 7.6-.7 12.3-2.5s11.9-3.3 14.8-5.9c1.3-1.2.5-3-1.3-4.4.2.3.4.7.6 1.2 1.2 2.6-3.6 3.7-8 4.8z" opacity=".4"/><path d="m37.1 222.6c-1.1 2.7-1.9 7.9 2 8.7s12.2-1.1 16.1-1.2 13.2-1.6 14.4-4.4-1.2-6.4-6.8-6-8.2-1.2-8.2-1.2-4.5 4.1-8.7 4.7-8.8-.6-8.8-.6z" fill="#825012"/><path d="m69.5 225.7c.6-1.3.3-2.8-.6-3.9.4 1.2.4 2.4-.6 3.5-2.9 3.1-7.6 1.9-17.5 3.1-8.2 1-12.1.8-14.6-.3.2 1.6 1 2.9 2.8 3.3 3.9.9 12.2-1.1 16.1-1.2 3.9-.2 13.2-1.7 14.4-4.5z" opacity=".4"/><path d="m24.5 105.5s-1.8 13.4.4 19.3 6.4 13.8 7 20.8 3.3 19.3 2.3 26.7-1.1 19-.7 27.9c.4 7.7 1.7 23.6 1.8 25.9.1 3.8 7.4 4 11.4 2.4 5.2-2.1 10.7-6.2 10-7.8-.6-1.6-1.5-8-1.8-14.5s-1.1-29.3 0-34.5c1.1-5.1 3-16.2 3.5-33.3.4-16.3.9-23.6.5-26.7s-34.4-6.2-34.4-6.2z" fill="#06547a"/><path d="m26 48.5c-3.8-1.3-9.2-3.6-15.5 2s-.7 23.2 1.1 27.6 2.8 10.5 2.7 13-1.4 3.3-1.9 5.9-.5 7.9-1.4 9.6-1.9 5-.1 5.6 21.6 6.4 31.2 6.3 14.8-3.8 16.2-4.8c1.4-.9 2.2-18.3 1.7-23.4s-.4-12.1-.3-15.3c.2-4.3-1.7-10.3-4.9-12.5-3.1-2.1-7.4-5.6-12.2-8s-16.6-6-16.6-6z" fill="#999"/><path d="m20.2 48.1c1.2-.3 4.8-3.3 4.8-5.4s-4-9.4-2.4-14.1 9.2-11.4 18.2-8.6 7.2 10.8 6.2 17.3-1.7 7.3-2.9 8.1c-1.3.8-2.9 1.4-2.9 3.1.1 1.7.3 4.6.9 5.8s-9.1 2.2-14.9-.1-7-6.1-7-6.1z" fill="#fbd7c7"/><path d="m22.7 39.8c.5 1.6 1.8 4.9 5.6 5.8s8.7-3.4 9.4-5.5 1-4.1 2.9-4.4 1.7 2.2 1.7 2.2 2.5-1.3 2.9-5.4c.2-1.7-.1-4.6 1.7-5.8 1.8-1.1-1.8-8.4-10.1-8.3-9.4.1-12.7 4.3-14.4 8.7-1.8 4.8-.6 9.9.3 12.7z" fill="#2d3134"/><path d="m62.9 121.5c-.8-2.5-5.1-15.8-6.2-18.6-1.1-2.7-.7-6-.7-10.6 0-1.8-.1-5.7-.4-10-1.9.2-6.5.8-12.2 2.5-1.5.4-2.9.9-4.1 1.3.3 1.2.7 2.3.8 3.1 1 4.4 4.8 14.1 5.8 16s1.1 4.4 3.5 9.6c2.3 5.2 8.2 13.5 8.8 14.8.5 1.3-1.3 4.6-1.3 6s-.1 8.7-.1 9.6c-.1.9-3.6 2.1-3.1 3.3.5 1.1 4.4-.5 5.8-1.4s3.3-5.4 4-7.3 1.3-9.4 1.3-11.2c0-1.7-1.1-4.6-1.9-7.1z" fill="#fbd7c7"/><path d="m7.7 57.9c-.3 3-.6 12.6-.6 12.6l5.9 4.5z" fill="#999"/></svg>