<svg enable-background="new 0 0 80 240" viewBox="0 0 80 240" xmlns="http://www.w3.org/2000/svg"><path d="m59.7 230.1c17.2-9.6 4.2-17-11.8-24.6-17.8-8.5-24.2-10.6-40.5-1.6-13.9 7.6-1.6 14.9 14.6 22.5 18.5 8.6 25.5 10.5 37.7 3.7z" opacity=".2"/><path d="m19 201.7c-3.4 2.5-6.8 4-9.8 5.6s-4.5 3.1-4.1 4.5c.3 1.5 3 3.2 7.6 3s12-4.4 13.4-4.5 1.1.8 2.1.8 6.4-1 7-1.7-.1-5.7-.1-5.7z" fill="#262626"/><path d="m35.1 209.4c.3-.4.3-1.8.2-3.1-1.3 1.2-3.5 1.9-5.7 2-2.6.1-5.7.6-9.3 2.9s-16 4.2-14.6-1.4c-.6.7-.9 1.4-.7 2.1.3 1.5 3 3.2 7.6 3s12-4.4 13.4-4.5 1.1.8 2.1.8 6.5-1.1 7-1.8z" opacity=".5"/><path d="m21.2 123.1c-.9 6.6-1.3 29.8-.4 40.3.8 10.6.7 25.9-.1 31.2-.6 3.9-2.5 6-2 7.4.5 1.5 5 4.6 10.2 5.2s7.2-.2 7.9-2.2c.6-2 2.8-23.5 3.5-37 .6-12 1.7-45.1 1.7-45.1h-20.8z" fill="#656565"/><path d="m21.2 123.1c-.9 6.6-1.3 29.8-.4 40.3.8 10.6.7 25.9-.1 31.2-.6 3.9-2.5 6-2 7.4.5 1.5 5 4.6 10.2 5.2s7.2-.2 7.9-2.2c.6-2 2.8-23.5 3.5-37 .6-12 1.7-45.1 1.7-45.1h-20.8z" opacity=".3"/><path d="m50 213.8c-.8 2.3-4.3 8-5 9.4-.8 1.4-2.3 3.3-1.3 4.7s5.7 3.3 10.4 1c4.7-2.2 5.5-7.7 5.5-7.7h.8s1-2.3 1-3.9-.3-2.6-.3-2.6z" fill="#262626"/><path d="m59.6 221.3h.8s1-2.3 1-3.9-.3-2.6-.3-2.6h-.1c-.1.2-.1.4-.1.6-.2 1.3-2.5 8.3-3.8 10-3.4 4.4-12.6 5.4-13.5.3-.3.8-.4 1.6.1 2.2 1 1.5 5.7 3.3 10.4 1s5.5-7.6 5.5-7.6z" opacity=".5"/><path d="m33 123.9c.1 4.3 4.5 9.3 5.8 15.4s5.3 36.3 6.3 45.2c1.5 12.9 2.8 31.7 3.2 31.9.4.1 3.7-1.9 6.9-.2s6.8 1 7.9.2.6-9.4.2-14.6-1.9-43.6-1.8-48.8 1.8-19.3 1.4-22.6c-.4-3.4-2.3-7.3-2.3-7.3z" fill="#656565"/><path d="m33 123.9c.1 4.3 4.5 9.3 5.8 15.4s5.3 36.3 6.3 45.2c1.5 12.9 2.8 31.7 3.2 31.9.4.1 3.7-1.9 6.9-.2s6.8 1 7.9.2.6-9.4.2-14.6-1.9-43.6-1.8-48.8 1.8-19.3 1.4-22.6c-.4-3.4-2.3-7.3-2.3-7.3z" opacity=".15"/><path d="m22.9 76.6c-2.5 4-5.1 10.3-6.6 14.5s-5.4 11.7-5.7 12.7c-.2.9-.1 4.6 3.4 5.7s5.2 1.8 5.8.9c.5-.8 4.2-5 4.2-5z" fill="#656565"/><path d="m22.9 76.6c-2.5 4-5.1 10.3-6.6 14.5s-5.4 11.7-5.7 12.7c-.2.9-.1 4.6 3.4 5.7s5.2 1.8 5.8.9c.5-.8 4.2-5 4.2-5z" opacity=".15"/><path d="m35.7 48.8c-2 1.6-10.2 13.3-10.6 27.7s3.2 21.1 3.2 21.1 10.9-29.2 16.9-35.6 5.6-11.5 5.6-11.5-3.8-2.6-7.9-2.9-7.2 1.2-7.2 1.2z" fill="#fff"/><path d="m35.4 58.8 2.3 6.4 6.4-4.3-6.8 6-2.1-7.8-1.2-.1-3.8 4.3v-3.8c0 .3.3 1.9.3 1.9l3.5-3.4z" opacity=".2"/><path d="m32.5 63.5-.1-3.8 1.5-1.6 1.5.7 1 2.7-2.3 2.3s-2.1 18.1-2.3 20.4c-.1 2.2-3.1 13-3.1 13s-4.5-12.5-4.3-12.7 8.1-21 8.1-21z" fill="#cc291f"/><path d="m68.7 132.1c-.3 1-.2 2-2 3.2-1.7 1.3-3.1 3.6-3.5 5.2s-1.7 3.5-1.9 4.7.8 2 1.8 1.1c1-.8 2.9-4.5 3.9-4.8s1.3 2.9 1.4 4c.1 1-1.5 3-2.2 4-.8 1-.1 1.9 1 1.6s5.9-2.9 7.1-7.9c1.3-5 .7-12 .7-12z" fill="#fbd7c7"/><path d="m66.5 131.3-.1 2s3.8.9 6.9.6 3.8-1 3.8-1l-.3-3z" fill="#fff"/><path d="m39.3 48c-2.1.3-9.2-2-13.2 4.1s-4.7 12.6-4.9 18.3-1.2 43-1.2 49.5.1 9.5 3 10.4c3.4 1.1 5.9-1.9 6-3.8s-.3-30.7-.3-30.7-5-12-1.7-25.8 8.5-18.4 8.5-18.4l4.1-3.5z" fill="#656565"/><path d="m49.6 49.6s4 3.3 6.2 5.1 11.9 10.5 12.9 11.7 2.2 2.4 2.2 5.7c-.1 3.2.4 8.4 1.7 11.9 4.1 10.6 4.3 15.2 4.6 19.8s.9 26.6.9 26.6-1.3 1.2-6.4 1.8c-5.2.6-6.4-.1-6.4-.1s-1.5-14.2-2.3-19.3c-1.3-7.8-5-16.1-5-16.1s-.6 3.5-.3 5.6 4.1 19.3 4.9 22.1 1.7 6.1 1.7 6.1-4.2 6.6-15.6 6.1c-11.4-.4-18.2-4-19.6-11s-1.7-24.5.1-34.3 9.8-25.6 15-31.4 5.4-10.3 5.4-10.3z" fill="#656565"/><path d="m29.6 95.8s3.5-8.9 8.9-16.5c3.8-5.2 7.8-8.6 7.8-8.6l-.3-3.4 4.1-1.5 2.5-13.7.5.5-1.7 14.1-4.6 1 1 3.5s-5.4 4.7-9 9.2c-3.9 4.9-9.2 15.4-9.2 15.4z" opacity=".2"/><path d="m33.8 27.9c-3.8 2.8-4 10.3-3.9 15.4s.7 9.3 1.5 9.7 2.4.6 2.4.6-.1 4.9 1.1 5.1c1.2.3 7.8-2.8 10.9-6 3.1-3.1 3.5-3.8 3.5-3.8s4.3-7.9 3.6-14.1-8.5-14.6-19.1-6.9z" fill="#fbd7c7"/><path d="m30.6 31c-.6 1 1.5.8 4.5 5.4 3.1 4.6 6.6 2.6 7.6 2.6.3 2.5 2.4 2.1 4.3 4.3 0 0 .7-2.5 2.1-2.6s.9 4.2.9 4.2.2 1.7 1.2 2 4.7-8.8 2.8-14.7c-2.9-9.4-16.5-12.6-23.4-1.2z" fill="#762c07"/><path d="m11.5 104.2c.5-.5 3.6-.4 5.3 1.3s2.2 3.6 1.9 4.1c-.2.4-2.4.2-4.9-1.5s-2.9-3.3-2.3-3.9z" fill="#fff"/><path d="m12 104.6c1.2-.4 3.1.1 4.3 1.3 1.2 1.1 1.7 2.2 1.6 3 0 .8-1 2.7-1.2 3.6-.2.8-2.7 4.2-3.5 5.3-.7 1.2-1.6 1.7-1.8 3.5s-.8 2.7-2.1 2.8-6.1-2.9-5.2-7.2c.9-4.2 2.6-6.7 3.6-8.1.5-.7 2.6-1.8 3.3-2.3.8-.6.6-1.7 1-1.9z" fill="#fbd7c7"/></svg>