<?xml version="1.0" encoding="UTF-8" standalone="no"?>
<svg
   xmlns:dc="http://purl.org/dc/elements/1.1/"
   xmlns:cc="http://creativecommons.org/ns#"
   xmlns:rdf="http://www.w3.org/1999/02/22-rdf-syntax-ns#"
   xmlns:svg="http://www.w3.org/2000/svg"
   xmlns="http://www.w3.org/2000/svg"
   xmlns:sodipodi="http://sodipodi.sourceforge.net/DTD/sodipodi-0.dtd"
   xmlns:inkscape="http://www.inkscape.org/namespaces/inkscape"
   enable-background="new 0 0 160 240"
   viewBox="0 0 10.281619 21.921259"
   version="1.1"
   id="svg42"
   sodipodi:docname="city--man12.svg"
   inkscape:version="0.92.2 (5c3e80d, 2017-08-06)"
   width="10.281619"
   height="21.921259">
  <metadata
     id="metadata48">
    <rdf:RDF>
      <cc:Work
         rdf:about="">
        <dc:format>image/svg+xml</dc:format>
        <dc:type
           rdf:resource="http://purl.org/dc/dcmitype/StillImage" />
        <dc:title></dc:title>
      </cc:Work>
    </rdf:RDF>
  </metadata>
  <defs
     id="defs46" />
  <sodipodi:namedview
     pagecolor="#ffffff"
     bordercolor="#666666"
     borderopacity="1"
     objecttolerance="10"
     gridtolerance="10"
     guidetolerance="10"
     inkscape:pageopacity="0"
     inkscape:pageshadow="2"
     inkscape:window-width="870"
     inkscape:window-height="480"
     id="namedview44"
     showgrid="false"
     inkscape:zoom="0.98333333"
     inkscape:cx="50.326504"
     inkscape:cy="112.13907"
     inkscape:window-x="0"
     inkscape:window-y="0"
     inkscape:window-maximized="0"
     inkscape:current-layer="svg42"
     fit-margin-top="0"
     fit-margin-left="0"
     fit-margin-right="0"
     fit-margin-bottom="0" />
  <g
     id="g70"
     transform="matrix(0.09966661,0,0,0.09966661,-2.9574567,-1.2152543)">
    <path
       id="path2"
       d="m 33,231 c 11.2,6.1 44.5,-13.9 58.5,-22.1 13.9,-8.1 50.5,-32.3 39.2,-39.2 -11.4,-6.9 -38.7,12.6 -53.7,21.6 -15,9 -59.8,31.1 -44,39.7 z"
       inkscape:connector-curvature="0"
       style="opacity:0.2" />
    <path
       id="path4"
       d="m 106.7,44.9 c 0,0 5.3,-1.2 7.8,-1.4 2.5,-0.3 7.3,2.1 8.3,3.8 1,1.7 0.4,3 -1.1,3.9 -1.5,0.9 -2.4,-1.2 -4.3,-1.2 -1.9,0 -3.1,0.5 -5.3,1 -2.3,0.5 -4.1,-0.6 -5,-0.9 -1,-0.3 -1.9,-0.3 -1.9,-0.3 z"
       inkscape:connector-curvature="0"
       style="fill:#fbd7c7" />
    <path
       id="path6"
       d="m 100.3,44.2 7.4,-0.1 c 0,0 1.5,1.1 1,3.7 -0.5,2.6 -1.4,3.9 -1.4,3.9 h -5.5 z"
       inkscape:connector-curvature="0"
       style="fill:#ffffff" />
    <path
       id="path8"
       d="m 94.1,42.6 11.8,-0.1 c 0,0 2.4,1.7 1.6,5.8 -0.8,4.1 -2.3,6.1 -2.3,6.1 h -8.7 z"
       inkscape:connector-curvature="0"
       style="fill:#656565" />
    <path
       id="path10"
       d="m 96.5,15.9 c 2.4,0.9 4.1,3.8 4.5,10.2 0.4,6.4 0,11.5 -1.5,12.2 -1.5,0.7 -2.4,0.4 -2.4,0.4 L 97,46.8 82.3,41 c 0,0 0.3,-3.9 -0.6,-6.3 -0.9,-2.4 -3.3,-11.1 -0.7,-15.1 2.6,-3.9 7.9,-6.7 15.5,-3.7 z"
       inkscape:connector-curvature="0"
       style="fill:#fbd7c7" />
    <path
       id="path12"
       d="m 95.1,31.1 c 0.1,0.8 0.9,-1.2 1.6,-3.1 0.7,-1.9 1.9,-4.2 2.5,-6.9 0.7,-2.7 1.3,-1.7 1.3,-2.8 0.1,-1.2 -5.4,-8.8 -15.5,-5.1 -10.1,3.7 -7.6,15.8 -6.7,19.1 0.9,3.3 3.9,7.3 6.8,7.2 2.9,-0.1 6.2,-2.3 6.5,-6.7 0.3,-4.4 3.4,-3.5 3.5,-1.7 z"
       inkscape:connector-curvature="0"
       style="fill:#762c07" />
    <path
       id="path14"
       d="m 32.9,212.5 c -0.1,0.6 -1.1,3.7 -1.1,3.7 0,0 -1.9,1.6 -1.6,3 0.4,1.4 19.2,8.9 20.8,9.1 1.6,0.2 2.1,-0.9 1.9,-2.1 -0.2,-1.1 -1.3,-2.9 -2.2,-3.9 -0.9,-0.9 -2.6,-4.2 -3,-5.5 -0.4,-1.3 -0.6,-2.1 -0.6,-2.1 z"
       inkscape:connector-curvature="0"
       style="fill:#262626" />
    <path
       id="path16"
       d="m 30.2,219.2 c 0.4,1.4 19.2,8.9 20.8,9.1 1.3,0.2 2,-0.6 2,-1.6 -0.9,-0.2 -2.4,-0.6 -4.8,-1.4 -4.1,-1.5 -8.6,-4.4 -10.9,-5.6 -1.6,-0.9 -4.3,-2.6 -5.6,-3.5 -0.3,0.3 -1.9,1.7 -1.5,3 z"
       inkscape:connector-curvature="0"
       style="opacity:0.5" />
    <path
       id="path18"
       d="m 105.2,182.4 c 0.1,2.6 2.5,4.7 6.1,3.6 3.6,-1.1 5.4,-4.3 5.4,-4.3 0,0 6.8,-2.3 10.2,-5.9 3.4,-3.6 5.3,-9.3 4.9,-11.3 -0.3,-1.9 -2.3,-3.6 -5.6,-2.6 -3.3,1.1 -9.9,4.9 -11.3,6.7 -1.4,2 -9.7,13.8 -9.7,13.8 z"
       inkscape:connector-curvature="0"
       style="fill:#262626" />
    <path
       id="path20"
       d="m 116.6,181.8 c 0,0 6.8,-2.3 10.2,-5.9 3.4,-3.6 5.3,-9.3 4.9,-11.3 -0.1,-0.9 -0.6,-1.7 -1.4,-2.2 0,0.2 0.1,0.3 0.1,0.5 0.8,3.6 -1,7.1 -4.1,11 -3.1,3.9 -9.9,5.7 -9.9,5.7 0,0 -4.1,7.2 -10.7,5 1,1.4 2.9,2.2 5.4,1.5 3.8,-1.1 5.5,-4.3 5.5,-4.3 z"
       inkscape:connector-curvature="0"
       style="opacity:0.5" />
    <path
       id="path22"
       d="m 59,107.3 c -2.5,4.5 -6.1,13.7 -6.3,23 -0.2,9.3 -7.9,39.1 -11.4,48.9 -3.4,9.8 -9.4,31.3 -9.4,33 0,1.7 1.1,4.9 7.5,6.3 6.4,1.4 10,-1.3 10.3,-2 0.3,-0.7 0.8,-8.1 2.1,-12.1 1.4,-4 11.5,-24.9 15.2,-37.1 3.8,-12.2 9.3,-33.1 12.3,-37.4 3,-4.3 3.1,-18.3 3.1,-18.3 z"
       inkscape:connector-curvature="0"
       style="fill:#656565" />
    <path
       id="path24"
       d="m 59,107.3 c -2.5,4.5 -6.1,13.7 -6.3,23 -0.2,9.3 -7.9,39.1 -11.4,48.9 -3.4,9.8 -9.4,31.3 -9.4,33 0,1.7 1.1,4.9 7.5,6.3 6.4,1.4 10,-1.3 10.3,-2 0.3,-0.7 0.8,-8.1 2.1,-12.1 1.4,-4 11.5,-24.9 15.2,-37.1 3.8,-12.2 9.3,-33.1 12.3,-37.4 3,-4.3 3.1,-18.3 3.1,-18.3 z"
       inkscape:connector-curvature="0"
       style="opacity:0.3" />
    <path
       id="path26"
       d="m 77,111.9 c 0,0 -0.5,4.2 0.1,10.1 0.6,5.9 3.5,5.7 7.1,12.8 3.5,7.1 6.5,17 10.9,28.6 4.4,11.6 8.6,19.4 9.9,20.6 1.3,1.2 7.2,1.5 10.9,-4.4 3.8,-5.9 4.3,-8.3 3.6,-9.9 -0.6,-1.6 -3.6,-2.3 -4.5,-4.1 -0.9,-1.8 -3.1,-9.4 -4.9,-20.1 -1.8,-10.7 -2.7,-15 -5.3,-20.8 -2.6,-5.8 -4.9,-15.3 -4.9,-15.3 z"
       inkscape:connector-curvature="0"
       style="fill:#656565" />
    <path
       id="path28"
       d="m 77,111.9 c 0,0 -0.5,4.2 0.1,10.1 0.6,5.9 3.5,5.7 7.1,12.8 3.5,7.1 6.5,17 10.9,28.6 4.4,11.6 8.6,19.4 9.9,20.6 1.3,1.2 7.2,1.5 10.9,-4.4 3.8,-5.9 4.3,-8.3 3.6,-9.9 -0.6,-1.6 -3.6,-2.3 -4.5,-4.1 -0.9,-1.8 -3.1,-9.4 -4.9,-20.1 -1.8,-10.7 -2.7,-15 -5.3,-20.8 -2.6,-5.8 -4.9,-15.3 -4.9,-15.3 z"
       inkscape:connector-curvature="0"
       style="opacity:0.15" />
    <path
       id="path30"
       d="m 79.7,37.6 c -2.5,-1.5 -10.3,-3 -12.8,0 -2.8,3.6 -2.6,5.4 -1.8,17.8 1,14.5 -3.2,32.6 -7,43.3 -3.8,10.7 -6.7,17 -6.4,19.3 0.3,2.3 15.5,9.2 27.3,12.9 11.8,3.6 22.6,-3 24.7,-7.7 2,-4.7 -0.4,-11.1 -0.8,-19.5 -0.4,-8.4 -0.6,-25.3 0.5,-34.2 1.2,-8.9 -0.5,-14.8 -3.1,-18.2 -2.6,-3.4 -5.8,-6.8 -11.1,-8.1 -5.4,-1.5 -9.5,-5.6 -9.5,-5.6 z"
       inkscape:connector-curvature="0"
       style="fill:#656565" />
    <path
       id="path32"
       d="m 97.8,62.2 c -1.2,3.1 -6.2,10.6 -8.7,13.7 -2.5,3.1 -3,4.2 -3.3,6 -0.3,1.8 -1.9,32.2 -1.9,32.2 0,0 4.2,-21.7 7.4,-26.4 3.2,-4.7 6.5,-25.5 6.5,-25.5 z"
       inkscape:connector-curvature="0"
       style="opacity:0.15" />
    <path
       id="path34"
       d="m 74.3,114.9 6.6,0.4 c 0,0 -0.2,1.6 -1.1,5.3 -0.9,3.6 -1.1,9.2 -3.9,11.2 -2.8,2 -7,3.3 -9.1,3.3 -2.1,0 -4,-4.3 -1.7,-5.5 2.3,-1.2 4.6,-2.1 5.7,-6.3 1.1,-4.1 1.4,-5.3 3.5,-8.4 z"
       inkscape:connector-curvature="0"
       style="fill:#fbd7c7" />
    <g
       id="g40"
       style="fill:#ffffff">
      <path
         id="path36"
         d="m 79.6,37.7 c 0,0 8,3.4 11.4,4.5 3.4,1.1 7.5,6.3 7.5,6.3 0,0 -2.5,-2.9 -7.9,-4.4 -5.4,-1.4 -9.8,-5 -11,-6.4 z"
         inkscape:connector-curvature="0" />
      <path
         id="path38"
         d="m 73,116 8,1.2 0.6,-2 -8.1,-0.9 z"
         inkscape:connector-curvature="0" />
    </g>
  </g>
</svg>
