<?xml version="1.0" encoding="UTF-8" standalone="no"?>
<svg
   xmlns:dc="http://purl.org/dc/elements/1.1/"
   xmlns:cc="http://creativecommons.org/ns#"
   xmlns:rdf="http://www.w3.org/1999/02/22-rdf-syntax-ns#"
   xmlns:svg="http://www.w3.org/2000/svg"
   xmlns="http://www.w3.org/2000/svg"
   xmlns:sodipodi="http://sodipodi.sourceforge.net/DTD/sodipodi-0.dtd"
   xmlns:inkscape="http://www.inkscape.org/namespaces/inkscape"
   enable-background="new 0 0 160 240"
   viewBox="0 0 13.022166 20.031496"
   version="1.1"
   id="svg28"
   sodipodi:docname="city--man16.svg"
   width="13.022166"
   height="20.031496"
   inkscape:version="0.92.2 (5c3e80d, 2017-08-06)">
  <metadata
     id="metadata34">
    <rdf:RDF>
      <cc:Work
         rdf:about="">
        <dc:format>image/svg+xml</dc:format>
        <dc:type
           rdf:resource="http://purl.org/dc/dcmitype/StillImage" />
        <dc:title></dc:title>
      </cc:Work>
    </rdf:RDF>
  </metadata>
  <defs
     id="defs32" />
  <sodipodi:namedview
     pagecolor="#ffffff"
     bordercolor="#666666"
     borderopacity="1"
     objecttolerance="10"
     gridtolerance="10"
     guidetolerance="10"
     inkscape:pageopacity="0"
     inkscape:pageshadow="2"
     inkscape:window-width="870"
     inkscape:window-height="480"
     id="namedview30"
     showgrid="false"
     fit-margin-top="0"
     fit-margin-left="0"
     fit-margin-right="0"
     fit-margin-bottom="0"
     inkscape:zoom="0.98333333"
     inkscape:cx="58.667099"
     inkscape:cy="113.52062"
     inkscape:window-x="0"
     inkscape:window-y="0"
     inkscape:window-maximized="0"
     inkscape:current-layer="svg28" />
  <g
     id="g49"
     transform="matrix(0.10371853,0,0,0.10371853,-2.2126172,-4.1889199)">
    <path
       id="path2"
       d="m 96.4,228 c 13.8,-9.3 1.8,-19.8 -17.5,-23.2 -8.4,-1.5 -31.9,-23 -53,-9.7 -17,10.8 18.3,26.1 27,30.1 12,5.6 26.8,14 43.5,2.8 z"
       inkscape:connector-curvature="0"
       style="opacity:0.2" />
    <path
       id="path4"
       d="m 82.9,207.5 12.3,-0.4 c 0,0 2.4,3.3 1.8,5.9 -0.7,2.6 -4.4,6.8 -5.3,8.6 -0.9,1.8 -2.6,7.5 -7.7,8.8 -5.1,1.3 -11.7,0.9 -12.6,-2.4 -0.7,-2.6 9.9,-15 10.4,-16.1 0.4,-1 1.1,-4.4 1.1,-4.4 z"
       inkscape:connector-curvature="0"
       style="fill:#825012" />
    <path
       id="path6"
       d="m 91.7,221.6 c 0.9,-1.8 4.6,-5.9 5.3,-8.6 0.2,-0.9 0.1,-2 -0.2,-2.9 -0.5,1.3 -1.2,3.2 -2.1,4.2 -1.5,1.6 -4.5,7.9 -6.2,10.9 -2.2,3.9 -12.7,6.7 -17,2.2 -0.1,0.3 -0.1,0.5 0,0.7 0.9,3.3 7.5,3.7 12.6,2.4 4.9,-1.4 6.7,-7.1 7.6,-8.9 z"
       inkscape:connector-curvature="0"
       style="opacity:0.4" />
    <path
       id="path8"
       d="m 42.6,193.9 c -4.5,2.8 -12.6,4.8 -15.2,6.2 -2.9,1.6 -4.7,7.5 1.3,7.9 6,0.4 15.9,-3.9 19.3,-3.9 3.4,0 9.7,-1.1 10.5,-3 0.8,-1.9 -0.4,-6.9 -0.4,-6.9 z"
       inkscape:connector-curvature="0"
       style="fill:#825012" />
    <path
       id="path10"
       d="m 97.6,124.4 c 0,0 -15,4.7 -22.2,7.9 -7.3,3.1 -18.3,6.7 -21.7,11.4 -3.3,4.7 -4.6,14.6 -5.6,19.9 -1,5.4 -4.3,18.5 -6.4,24.6 -1.1,3.3 -3,6.1 -2.8,7.1 0.2,1 8.7,1.8 13.1,2 5.1,0.2 7,0.2 8.6,-1.2 1,-0.9 3.3,-14.5 5.2,-21.8 2,-7.3 4.1,-16.5 4.1,-16.5 0,0 5.2,-0.6 11.9,-1.7 7,-1.2 25.5,-6.2 28.8,-8.1 3.3,-2 3.1,-17.9 3.1,-17.9 z"
       inkscape:connector-curvature="0"
       style="fill:#06547a" />
    <path
       id="path12"
       d="m 97.6,124.4 c 0,0 -15,4.7 -22.2,7.9 -7.3,3.1 -18.3,6.7 -21.7,11.4 -3.3,4.7 -4.6,14.6 -5.6,19.9 -1,5.4 -4.3,18.5 -6.4,24.6 -1.1,3.3 -3,6.1 -2.8,7.1 0.2,1 8.7,1.8 13.1,2 5.1,0.2 7,0.2 8.6,-1.2 1,-0.9 3.3,-14.5 5.2,-21.8 2,-7.3 4.1,-16.5 4.1,-16.5 0,0 5.2,-0.6 11.9,-1.7 7,-1.2 25.5,-6.2 28.8,-8.1 3.3,-2 3.1,-17.9 3.1,-17.9 z"
       inkscape:connector-curvature="0"
       style="opacity:0.2" />
    <path
       id="path14"
       d="m 98.2,81.3 7.2,3.9 c 0,0 -5.8,15.3 -7.3,18.8 -0.8,1.9 -2.5,6.5 -5.8,11.6 -3.4,5.2 -7.6,9.8 -8.1,11.6 -0.5,1.8 -0.9,2.2 -2.4,3.5 -1.6,1.3 -2.5,1.7 -4.1,2.6 -0.9,0.5 -3,3.4 -4.2,4.5 -1.2,1.1 -6.3,1.6 -6.9,-0.9 -0.4,-1.8 3.4,-6.5 4.5,-7.9 1.2,-1.4 5.3,-1.8 6.3,-3.2 1,-1.4 5.9,-11.6 7.6,-15.6 1.7,-4.1 3.7,-10.9 7,-15.8 3.3,-4.9 6.2,-13.1 6.2,-13.1 z"
       inkscape:connector-curvature="0"
       style="fill:#fbd7c7" />
    <path
       id="path16"
       d="m 104.9,130 -0.1,7.5 c 0,0 -4.3,3.7 -9.3,8.5 -4.9,4.7 -10.7,10.4 -12.5,12.2 -1.8,1.8 -3.3,2.6 -3.9,6.5 -0.6,3.9 0.2,31.2 0.1,36 -0.1,4.5 -0.1,10.7 1,11.7 1.1,1 6.2,1.3 10.6,0.7 5,-0.7 7.6,-1.6 8,-2.6 0.4,-1 0.5,-15.6 0.9,-21.9 0.4,-6.3 -0.3,-16.7 -0.3,-16.7 0,0 9,-3.3 14.3,-5.5 5.3,-2.2 22.7,-7 26.3,-13.7 3.5,-6.7 2.3,-14.3 1.4,-19 -0.7,-3.9 -2.9,-5.9 -2.9,-5.9 z"
       inkscape:connector-curvature="0"
       style="fill:#06547a" />
    <path
       id="path18"
       d="m 106.1,68.3 c -0.4,0.1 -3.9,3.7 -5.8,6.8 -1.8,3 -4.7,9 -4.7,9 l 5.2,1.8 c 0,0 -1.4,1.4 -2,5.1 -0.5,3.7 2.1,8.8 1,11.9 -1,3.1 -4.6,12.7 -5.5,17.6 -0.9,4.9 -1.3,7 -0.7,8.1 0.7,1.2 3.3,5.4 14.3,6 11,0.7 27.7,-0.6 30.2,-0.8 2.6,-0.2 3.8,-0.7 3.8,-0.7 0,0 1.3,-20.7 2,-27.4 0.7,-6.7 2,-16.7 1.2,-21 -1.2,-6.4 -7.4,-14.2 -15.7,-16.3 -5.7,-1.3 -23.3,-0.1 -23.3,-0.1 z"
       inkscape:connector-curvature="0"
       style="fill:#999999" />
    <path
       id="path20"
       d="m 58.5,201.2 c 0.1,-0.2 0.2,-0.5 0.2,-0.8 -2.9,1.3 -7.8,2.1 -11.3,2.2 -3,0.1 -13.1,4 -18,4 -2.3,0 -3.8,-0.8 -4.8,-1.6 0.2,1.5 1.3,2.8 4,3 6,0.4 15.9,-3.9 19.3,-3.9 3.4,0 9.7,-1 10.6,-2.9 z"
       inkscape:connector-curvature="0"
       style="opacity:0.4" />
    <path
       id="path22"
       d="m 129.6,97.6 c 0,0 1.9,9.4 3.1,12.4 1.3,3 1.2,4 1.2,4 0,0 -3.5,5.5 -6.5,11.2 -3,5.8 -5.3,12.8 -6.8,13.4 -1.5,0.5 -7.8,1.1 -9.9,3.1 -2.2,2 -4.2,3.8 -4.5,5 -0.3,1.2 -1.9,4.7 -1.1,5.8 0.7,1.1 1,-1.1 2.3,-1.9 1.3,-0.8 5.2,-3.4 9.3,-3.9 4.1,-0.5 6,-1.2 7.4,-2.8 1.4,-1.6 14.8,-15 16.5,-17.7 1.7,-2.7 5.8,-7.6 6.2,-10.3 0.4,-2.8 -0.7,-9.5 -1.2,-14.6 -0.5,-5.2 -0.8,-6.8 -0.8,-6.8 z"
       inkscape:connector-curvature="0"
       style="fill:#fbd7c7" />
    <path
       id="path24"
       d="m 105.5,46.8 c -2.8,4.4 -1.7,14.9 -1.3,17.6 0.4,2.6 1.1,5.5 3,6.2 1.9,0.7 3.2,1.5 3.6,2.7 0.7,2.3 -0.7,5.8 0.7,6.6 1.3,0.8 6.5,-0.4 12.2,-3.4 5.3,-2.8 8.1,-6.3 7.3,-7.2 -0.8,-0.9 -5.1,-1.6 -5,-4.7 0.1,-3.1 3.1,-7.9 3.2,-12.4 -0.1,-10.3 -16.7,-16.1 -23.7,-5.4 z"
       inkscape:connector-curvature="0"
       style="fill:#fbd7c7" />
    <path
       id="path26"
       d="m 104.2,49.3 c 2.5,3 10.7,0 12.9,2.2 1.9,1.8 1.9,7.3 2.9,9 1.2,2.1 2.4,-2.3 3.5,-3.4 1,-1 2.8,-1.2 3.3,0.3 0.5,1.5 -0.4,3.7 -0.5,4.3 1.6,-0.3 3.7,-5.7 3.3,-11.4 -0.4,-6.8 -10.5,-13.6 -21,-7.6 -5.6,3.1 -4.4,6.6 -4.4,6.6 z"
       inkscape:connector-curvature="0"
       style="fill:#2d3134" />
  </g>
</svg>
