<?xml version="1.0" encoding="UTF-8" standalone="no"?>
<svg
   xmlns:dc="http://purl.org/dc/elements/1.1/"
   xmlns:cc="http://creativecommons.org/ns#"
   xmlns:rdf="http://www.w3.org/1999/02/22-rdf-syntax-ns#"
   xmlns:svg="http://www.w3.org/2000/svg"
   xmlns="http://www.w3.org/2000/svg"
   xmlns:sodipodi="http://sodipodi.sourceforge.net/DTD/sodipodi-0.dtd"
   xmlns:inkscape="http://www.inkscape.org/namespaces/inkscape"
   enable-background="new 0 0 160 240"
   viewBox="0 0 8.8882923 21.165354"
   version="1.1"
   id="svg30"
   sodipodi:docname="city--man18.svg"
   width="8.8882923"
   height="21.165354"
   inkscape:version="0.92.2 (5c3e80d, 2017-08-06)">
  <metadata
     id="metadata36">
    <rdf:RDF>
      <cc:Work
         rdf:about="">
        <dc:format>image/svg+xml</dc:format>
        <dc:type
           rdf:resource="http://purl.org/dc/dcmitype/StillImage" />
        <dc:title></dc:title>
      </cc:Work>
    </rdf:RDF>
  </metadata>
  <defs
     id="defs34" />
  <sodipodi:namedview
     pagecolor="#ffffff"
     bordercolor="#666666"
     borderopacity="1"
     objecttolerance="10"
     gridtolerance="10"
     guidetolerance="10"
     inkscape:pageopacity="0"
     inkscape:pageshadow="2"
     inkscape:window-width="870"
     inkscape:window-height="480"
     id="namedview32"
     showgrid="false"
     fit-margin-top="0"
     fit-margin-left="0"
     fit-margin-right="0"
     fit-margin-bottom="0"
     inkscape:zoom="0.98333333"
     inkscape:cx="46.01547"
     inkscape:cy="113.58492"
     inkscape:window-x="0"
     inkscape:window-y="0"
     inkscape:window-maximized="0"
     inkscape:current-layer="svg30" />
  <g
     id="g52"
     transform="matrix(0.09957296,0,0,0.09957296,-3.3839402,-2.0933881)">
    <path
       id="path2"
       d="m 44,231.8 c 10.3,5.6 30.1,-3.1 45.7,-10.6 13.4,-6.4 41.7,-18.9 31.3,-25.2 -10.4,-6.3 -28,1.4 -44.7,9.1 C 61.6,211.8 29.4,224 44,231.8 Z"
       inkscape:connector-curvature="0"
       style="opacity:0.2" />
    <path
       id="path4"
       d="m 38.4,213.2 c 0,0 4.7,2.5 7.5,2.6 2.7,0.1 5.6,-0.8 5.6,-0.8 0,0 0.4,4.8 4.3,6.8 1.3,0.7 6.7,2 7.5,3.3 2,3.1 -2.9,6.2 -8.2,6.1 -4.5,0 -7.6,-1.7 -10.9,-3.3 -3.9,-1.8 -9.7,-2.2 -10.1,-4.4 -0.9,-4.1 4.3,-10.3 4.3,-10.3 z"
       inkscape:connector-curvature="0"
       style="fill:#825012" />
    <path
       id="path6"
       d="m 63.3,225.3 c 0,-0.1 -0.1,-0.1 -0.2,-0.2 -0.2,0.7 -0.5,1.4 -0.9,1.9 -1.6,2 -6,3.8 -10.7,2.1 -3.4,-1.2 -5.1,-2.6 -9.1,-3.7 -2.6,-0.7 -6.3,-1.4 -8.3,-3.9 -0.1,0.8 -0.2,1.5 0,2.3 0.4,2.2 6.2,2.6 10.1,4.4 3.3,1.5 6.4,3.2 10.9,3.3 5.3,0 10.2,-3.1 8.2,-6.2 z"
       inkscape:connector-curvature="0"
       style="opacity:0.4" />
    <path
       id="path8"
       d="m 91,201.1 c 0,0 6.6,2.2 9.3,0.9 2.7,-1.3 3.5,-5.2 3.5,-5.2 0,0 2.9,-1.4 4.9,-2.4 2,-1 4,-2.5 6.6,-1.8 2.6,0.7 6.3,3.2 4.2,7.2 -1.8,3.4 -5.5,5.2 -10,7.1 -3.6,1.5 -9.6,4.8 -13.8,4.5 -3.7,-0.3 -5.1,-3 -4.6,-5.4 0.6,-2.4 -0.1,-4.9 -0.1,-4.9 z"
       inkscape:connector-curvature="0"
       style="fill:#825012" />
    <path
       id="path10"
       d="m 119.6,199.8 c 2.1,-4.1 -1.6,-6.6 -4.2,-7.2 -0.5,-0.1 -0.9,-0.1 -1.4,-0.1 4.7,1.5 4.8,3.9 3.9,6.5 -1.4,4 -10.1,6.8 -16.3,9.7 -3.1,1.5 -7.9,2 -10.3,-0.6 0.5,1.6 2,3 4.5,3.2 4.1,0.3 10.2,-3 13.8,-4.5 4.4,-1.7 8.2,-3.6 10,-7 z"
       inkscape:connector-curvature="0"
       style="opacity:0.4" />
    <path
       id="path12"
       d="m 54.9,99.7 c -0.8,2.6 -3,6.6 -5,10.4 -2,3.8 -3.9,7.3 -3.5,14 0.4,7.3 2.6,40.2 1.4,44.2 -1.2,4.1 -2.9,10.2 -5.3,18.8 -2.4,8.5 -6.1,24.6 -7.1,27.3 -0.5,1.5 0.4,3.4 5.5,4.6 3.6,0.8 11.3,1.8 12.7,0.5 0.9,-0.8 2.4,-10.5 4.5,-15.8 2,-5.1 6.8,-25.2 7.6,-28.9 0.8,-3.7 9.4,-22.4 9.4,-38.6 0,-2.1 0.8,-26.9 0.8,-26.9 z"
       inkscape:connector-curvature="0"
       style="fill:#baa794" />
    <path
       id="path14"
       d="m 54.9,99.7 c -0.8,2.6 -3,6.6 -5,10.4 -2,3.8 -3.9,7.3 -3.5,14 0.4,7.3 2.6,40.2 1.4,44.2 -1.2,4.1 -2.9,10.2 -5.3,18.8 -2.4,8.5 -6.1,24.6 -7.1,27.3 -0.5,1.5 0.4,3.4 5.5,4.6 3.6,0.8 11.3,1.8 12.7,0.5 0.9,-0.8 2.4,-10.5 4.5,-15.8 2,-5.1 6.8,-25.2 7.6,-28.9 0.8,-3.7 9.4,-22.4 9.4,-38.6 0,-2.1 0.8,-26.9 0.8,-26.9 z"
       inkscape:connector-curvature="0"
       style="opacity:0.2" />
    <path
       id="path16"
       d="m 64.8,104.5 c 0,0 -1.6,11.7 -0.8,18.2 0.8,6.6 5.1,12.3 8.4,16.5 3.4,4.3 9.2,13.5 11.7,16.7 2.3,3 2.4,4.2 2.2,7.6 -0.1,3.4 -0.8,10.2 0.6,19.1 1.5,9.4 3.5,19 3.6,20.9 0.1,1.8 5.1,1.4 9.3,-0.4 4.2,-1.8 7.3,-5.3 6.9,-7.2 -0.4,-1.9 -2.3,-6.8 -3.3,-14.7 -1,-7.9 -0.5,-21.5 -0.2,-26.6 0.3,-5.1 0.1,-19 -2.4,-25.2 -2.5,-6.2 -3.9,-9.1 -4.7,-12.5 -0.8,-3.4 -0.4,-8.5 -0.4,-8.5 z"
       inkscape:connector-curvature="0"
       style="fill:#baa794" />
    <path
       id="path18"
       d="m 68.1,49.3 c -3.1,-0.4 -6.7,-3 -11.5,0.7 -4.9,3.7 -4.6,8.1 -4.2,11.8 0.4,3.7 -0.9,8.1 1,15.2 1.9,7.1 3.3,14.4 2.5,16.8 -0.8,2.4 -2.2,6.5 -3.4,9.3 -1.3,3 -3.6,7.3 -4,8.6 -0.4,1.3 8,6 18.1,7.3 10.1,1.3 29.9,2.8 30.5,0.7 1,-3.4 0.1,-6.6 0.3,-9.7 0.1,-3.1 1.1,-15.2 1.3,-19.6 0.2,-3.4 1.2,-6 1.7,-10.1 0.5,-4.1 0.7,-5.6 -1.8,-9.8 -2.5,-4.2 -4,-9.2 -7.9,-11.8 -3.5,-2.3 -4.9,-2.9 -7.2,-3.6 -2.4,-0.8 -15.4,-5.8 -15.4,-5.8 z"
       inkscape:connector-curvature="0"
       style="fill:#e5e5e5" />
    <path
       id="path20"
       d="m 76.7,76.1 15.5,4.5 c 0,0 -2,6.6 -3.3,10.1 -1.3,3.5 -2.6,5.2 -2.2,7 0.4,1.8 3.9,25.1 4.3,27.6 0.4,2.5 0,10.9 -0.8,12.9 -0.8,2 -5,4.2 -7.2,3.9 -2.2,-0.3 -2.8,-2.9 -3,-3.9 -0.3,-1 0.7,-2.2 2,-2.6 1.3,-0.4 2.2,-1.8 2.2,-1.8 0,0 -0.1,-1.3 -0.3,-2.9 -0.1,-1.6 0.8,-3.5 0.8,-3.5 0,0 -5.4,-14 -7,-19 -1.6,-5 -2.2,-8.3 -2.8,-10.8 -0.5,-2.5 -0.4,-9.2 0.4,-13.4 0.8,-4.5 1.4,-8.1 1.4,-8.1 z"
       inkscape:connector-curvature="0"
       style="fill:#fbd7c7" />
    <path
       id="path22"
       d="m 64.3,49.7 c 1.2,-0.3 4.7,-3.3 4.7,-5.2 0,-1.9 -3.8,-9.2 -2.4,-13.8 2.6,-8.5 8.8,-11.4 17.6,-8.7 8.8,2.7 7.3,10.8 6.3,17.2 -1,6.4 -1.6,7.2 -2.9,7.9 -1.2,0.8 -2.9,1.4 -2.8,3.1 0.1,1.7 0.3,4.5 0.9,5.7 0.6,1.2 -8.9,2.2 -14.6,-0.1 -5.7,-2.3 -6.8,-6.1 -6.8,-6.1 z"
       inkscape:connector-curvature="0"
       style="fill:#fbd7c7" />
    <path
       id="path24"
       d="M 89.1,27.8 C 85.2,30.7 78.3,34.7 71.9,32.6 66.8,30.9 69.1,26 73.3,22 c -3.9,1.6 -5.7,4.4 -6.8,7.3 -1.8,4.6 -0.6,9.6 0.3,12.3 0.5,1.6 1.8,4.8 5.5,5.6 3.7,0.9 8.5,-3.3 9.2,-5.4 0.7,-2 1,-4 2.8,-4.3 1.8,-0.3 1.6,2.2 1.6,2.2 0,0 2.4,-1.2 2.8,-5.2 0.2,-1.2 0,-4.5 0.4,-6.7 z"
       inkscape:connector-curvature="0"
       style="fill:#999999" />
    <path
       id="path26"
       d="M 97,119.8 C 96.3,116.3 94.7,109.1 93.3,105.2 91.4,99.9 90.5,97.8 90.8,95.4 91,93 94,79.8 94,79.8 L 76.4,76.9 c 0,0 -5.3,13.2 -4.9,21.1 0.5,10.8 5.2,18.4 8.2,22.2 8.1,0.5 16,0.6 17.3,-0.4 z"
       inkscape:connector-curvature="0"
       style="opacity:0.2" />
    <path
       id="path28"
       d="m 76.9,74.7 c 0,0 -4.3,16.4 -4.1,22.9 0.2,6.5 5.5,19.2 6.8,21.8 1.3,2.6 3.8,5.6 3.8,5.6 l 0.6,2.1 7.3,0.5 0.1,-2.6 c 0,0 1,-4.7 0.5,-11.1 -0.4,-5.2 -3.5,-15.7 -3.7,-17.1 -0.1,-1.3 4.7,-11.6 5.5,-14.8 0.8,-3.2 0.8,-4.7 0.8,-4.7 z"
       inkscape:connector-curvature="0"
       style="fill:#e5e5e5" />
  </g>
</svg>
