<?xml version="1.0" encoding="UTF-8" standalone="no"?>
<svg
   xmlns:dc="http://purl.org/dc/elements/1.1/"
   xmlns:cc="http://creativecommons.org/ns#"
   xmlns:rdf="http://www.w3.org/1999/02/22-rdf-syntax-ns#"
   xmlns:svg="http://www.w3.org/2000/svg"
   xmlns="http://www.w3.org/2000/svg"
   xmlns:sodipodi="http://sodipodi.sourceforge.net/DTD/sodipodi-0.dtd"
   xmlns:inkscape="http://www.inkscape.org/namespaces/inkscape"
   enable-background="new 0 0 160 240"
   viewBox="0 0 12.168653 18.519686"
   version="1.1"
   id="svg32"
   sodipodi:docname="city--man19.svg"
   width="12.168653"
   height="18.519686"
   inkscape:version="0.92.2 (5c3e80d, 2017-08-06)">
  <metadata
     id="metadata38">
    <rdf:RDF>
      <cc:Work
         rdf:about="">
        <dc:format>image/svg+xml</dc:format>
        <dc:type
           rdf:resource="http://purl.org/dc/dcmitype/StillImage" />
        <dc:title></dc:title>
      </cc:Work>
    </rdf:RDF>
  </metadata>
  <defs
     id="defs36" />
  <sodipodi:namedview
     pagecolor="#ffffff"
     bordercolor="#666666"
     borderopacity="1"
     objecttolerance="10"
     gridtolerance="10"
     guidetolerance="10"
     inkscape:pageopacity="0"
     inkscape:pageshadow="2"
     inkscape:window-width="870"
     inkscape:window-height="480"
     id="namedview34"
     showgrid="false"
     fit-margin-top="0"
     fit-margin-left="0"
     fit-margin-right="0"
     fit-margin-bottom="0"
     inkscape:zoom="10.24"
     inkscape:cx="9.8112208"
     inkscape:cy="14.217603"
     inkscape:window-x="0"
     inkscape:window-y="0"
     inkscape:window-maximized="0"
     inkscape:current-layer="svg32" />
  <g
     id="g55"
     transform="matrix(0.09626187,0,0,0.09626187,-1.7743856,-3.9594461)">
    <path
       id="path2"
       d="m 93.5,228 c 13.8,-9.3 1.8,-19.8 -17.5,-23.2 -8.4,-1.5 -31.9,-23 -53,-9.7 -17,10.8 18.3,26.1 27,30.1 12,5.6 26.8,14 43.5,2.8 z"
       inkscape:connector-curvature="0"
       style="opacity:0.2" />
    <path
       id="path4"
       d="m 80,207.5 12.3,-0.4 c 0,0 2.4,3.3 1.8,5.9 -0.6,2.6 -4.4,6.8 -5.3,8.6 -0.9,1.8 -2.6,7.5 -7.7,8.8 -5.1,1.3 -11.7,0.9 -12.6,-2.4 -0.7,-2.6 9.9,-15 10.4,-16.1 0.4,-1 1.1,-4.4 1.1,-4.4 z"
       inkscape:connector-curvature="0"
       style="fill:#825012" />
    <path
       id="path6"
       d="m 88.8,221.6 c 0.9,-1.8 4.6,-5.9 5.3,-8.6 0.2,-0.9 0.1,-2 -0.2,-2.9 -0.5,1.3 -1.2,3.2 -2.1,4.2 -1.5,1.6 -4.5,7.9 -6.2,10.9 -2.2,3.9 -12.7,6.7 -17,2.2 -0.1,0.3 -0.1,0.5 0,0.7 0.9,3.3 7.5,3.7 12.6,2.4 5,-1.4 6.7,-7.1 7.6,-8.9 z"
       inkscape:connector-curvature="0"
       style="opacity:0.4" />
    <path
       id="path8"
       d="m 39.7,193.9 c -4.5,2.8 -12.6,4.8 -15.2,6.2 -2.9,1.6 -4.7,7.5 1.3,7.9 6,0.4 15.9,-3.9 19.3,-3.9 3.4,0 9.7,-1.1 10.5,-3 0.9,-1.9 -0.4,-6.9 -0.4,-6.9 z"
       inkscape:connector-curvature="0"
       style="fill:#825012" />
    <path
       id="path10"
       d="m 94.7,124.4 c 0,0 -15,4.7 -22.2,7.9 -7.2,3.2 -18.3,6.7 -21.7,11.4 -3.3,4.7 -4.6,14.6 -5.6,19.9 -1,5.4 -4.3,18.5 -6.4,24.6 -1.1,3.3 -3,6.1 -2.8,7.1 0.2,1 8.7,1.8 13.1,2 5.1,0.2 7,0.2 8.6,-1.2 1,-0.9 3.3,-14.5 5.2,-21.8 2,-7.3 4.1,-16.5 4.1,-16.5 0,0 5.2,-0.6 11.9,-1.7 7,-1.2 25.5,-6.2 28.8,-8.1 3.3,-2 3.1,-17.9 3.1,-17.9 z"
       inkscape:connector-curvature="0"
       style="fill:#baa794" />
    <path
       id="path12"
       d="m 94.7,124.4 c 0,0 -15,4.7 -22.2,7.9 -7.2,3.2 -18.3,6.7 -21.7,11.4 -3.3,4.7 -4.6,14.6 -5.6,19.9 -1,5.4 -4.3,18.5 -6.4,24.6 -1.1,3.3 -3,6.1 -2.8,7.1 0.2,1 8.7,1.8 13.1,2 5.1,0.2 7,0.2 8.6,-1.2 1,-0.9 3.3,-14.5 5.2,-21.8 2,-7.3 4.1,-16.5 4.1,-16.5 0,0 5.2,-0.6 11.9,-1.7 7,-1.2 25.5,-6.2 28.8,-8.1 3.3,-2 3.1,-17.9 3.1,-17.9 z"
       inkscape:connector-curvature="0"
       style="opacity:0.2" />
    <path
       id="path14"
       d="m 95.3,81.3 7.2,3.9 c 0,0 -5.8,15.3 -7.3,18.8 -0.8,1.9 -2.5,6.5 -5.8,11.6 -3.4,5.2 -7.6,9.8 -8.1,11.6 -0.5,1.8 -0.9,2.2 -2.4,3.5 -1.6,1.3 -2.5,1.7 -4.1,2.6 -0.9,0.5 -3,3.4 -4.2,4.5 -1.2,1.1 -6.3,1.6 -6.9,-0.9 -0.4,-1.8 3.4,-6.5 4.5,-7.9 1.2,-1.4 5.3,-1.8 6.3,-3.2 1,-1.4 5.9,-11.6 7.6,-15.6 1.7,-4.1 3.7,-10.9 7,-15.8 3.3,-4.9 6.2,-13.1 6.2,-13.1 z"
       inkscape:connector-curvature="0"
       style="fill:#fbd7c7" />
    <path
       id="path16"
       d="m 102,130 -0.1,7.5 c 0,0 -4.3,3.7 -9.3,8.5 -4.9,4.7 -10.7,10.4 -12.5,12.2 -1.8,1.8 -3.3,2.6 -3.9,6.5 -0.6,3.9 0.2,31.2 0.1,36 -0.1,4.5 -0.1,10.7 1,11.7 1.2,1 6.2,1.3 10.6,0.7 5,-0.7 7.6,-1.6 8,-2.6 0.4,-1 0.5,-15.6 0.9,-21.9 0.4,-6.3 -0.3,-16.7 -0.3,-16.7 0,0 9,-3.3 14.3,-5.5 5.3,-2.2 22.7,-7 26.3,-13.7 3.5,-6.7 2.3,-14.3 1.4,-19 -0.7,-3.9 -2.9,-5.9 -2.9,-5.9 z"
       inkscape:connector-curvature="0"
       style="fill:#baa794" />
    <path
       id="path18"
       d="m 55.6,201.2 c 0.1,-0.2 0.2,-0.5 0.2,-0.8 -2.9,1.3 -7.8,2.1 -11.3,2.2 -3,0.1 -13.1,4 -18,4 -2.3,0 -3.8,-0.8 -4.8,-1.6 0.2,1.5 1.3,2.8 4,3 6,0.4 15.9,-3.9 19.3,-3.9 3.5,0.1 9.8,-1 10.6,-2.9 z"
       inkscape:connector-curvature="0"
       style="opacity:0.4" />
    <path
       id="path20"
       d="m 119.6,136.2 c -0.7,1.3 -1.2,2.2 -1.7,2.4 -1.5,0.5 -7.8,1.1 -9.9,3.1 -2.2,2 -4.2,3.8 -4.5,5 -0.3,1.2 -1.9,4.7 -1.1,5.8 0.7,1.1 1,-1.1 2.3,-1.9 1.3,-0.8 5.2,-3.4 9.3,-3.9 4.1,-0.5 6,-1.2 7.4,-2.8 0.5,-0.5 2.2,-2.3 4.4,-4.6 z"
       inkscape:connector-curvature="0"
       style="fill:#fbd7c7" />
    <path
       id="path22"
       d="m 142.6,94 c -0.3,-3.8 0.1,-7.1 -0.3,-9.2 -1.2,-6.4 -7.4,-14.2 -15.7,-16.3 -5.7,-1.4 -23.4,-0.3 -23.4,-0.3 -0.4,0.1 -3.9,3.7 -5.8,6.8 -1.8,3 -4.2,9.3 -4.2,9.3 -1,1.9 -4.7,9.4 -5.9,11.7 -1.2,2.4 -5.8,10.6 -6.9,13.4 -1.1,2.8 -3.6,11 -4.4,12.3 -0.8,1.3 -2,3 -2,3 l 8.3,3.3 1.1,-2.1 c 0,0 5.6,-7.1 7.7,-10.2 2,-2.9 3,-7.2 3.9,-9.2 -1.1,3.6 -2.7,9.8 -3.5,14 -0.9,4.9 -1.3,7 -0.7,8.1 0.7,1.2 3.3,5.4 14.3,6 4.1,0.2 9.1,0.2 13.8,0.1 l -0.5,1.6 -1.1,1.6 c 0,0 2.9,2 3.8,3.3 0.9,1.3 1.3,2.9 1.3,2.9 l 1.7,-1.7 c 0,0 5.4,-4.4 7.3,-6 0.9,-0.7 1.8,-1.8 2.2,-2.4 1.1,-0.1 1.3,-0.1 1.7,-0.1 2.6,-0.2 3.8,-0.7 3.8,-0.7 0,0 0.2,-3.4 0.5,-7.9 2.3,-2.1 4.8,-4.9 5.2,-8.9 0.4,-3.4 -2,-19.6 -2.2,-22.4 z"
       inkscape:connector-curvature="0"
       style="fill:#e5e5e5" />
    <path
       id="path24"
       d="m 126.1,98.1 c -0.4,5.1 0.8,12.1 0.8,13.8 0,1.7 -2,3.4 -5.8,8.1 -3.7,4.6 -7.2,14 -7.6,14.9 1.8,0 3.6,0 5.4,-0.1 0.3,-0.9 2.1,-6.3 4,-10.2 2.1,-4.3 6.8,-10.8 6.8,-10.8 0,0 -0.9,-2.5 -1.4,-4.9 -0.7,-2.7 -2.2,-10.8 -2.2,-10.8 z"
       inkscape:connector-curvature="0"
       style="opacity:0.2" />
    <path
       id="path26"
       d="m 139.1,133.3 c 0,0 0.2,-3.4 0.5,-7.9 0,0 -1.4,2.2 -2.2,3.5 -0.8,1.2 -3.8,5.2 -3.8,5.2 1.1,-0.1 1.3,-0.1 1.7,-0.1 2.7,-0.3 3.8,-0.7 3.8,-0.7 z"
       inkscape:connector-curvature="0"
       style="opacity:0.2" />
    <path
       id="path28"
       d="m 102.6,46.8 c -3.1,4.2 -1.7,14.9 -1.3,17.6 0.4,2.6 1.1,5.5 3,6.2 1.9,0.7 3.2,1.5 3.6,2.7 0.7,2.3 -0.7,5.8 0.7,6.6 1.4,0.8 6.5,-0.4 12.2,-3.4 5.3,-2.8 8.1,-6.3 7.3,-7.2 -0.8,-0.9 -5.1,-1.6 -5,-4.7 0.1,-3.1 3.1,-7.9 3.2,-12.4 -0.1,-10.3 -16.6,-15.1 -23.7,-5.4 z"
       inkscape:connector-curvature="0"
       style="fill:#fbd7c7" />
    <path
       id="path30"
       d="m 115.8,43 c 5.6,3.1 -3.8,6.9 -1.6,9 1.9,1.8 1.9,7.3 2.9,9 1.2,2.1 2.4,-2.3 3.5,-3.4 1,-1 2.8,-1.2 3.3,0.3 0.5,1.5 -0.4,3.7 -0.5,4.3 1.6,-0.3 3.7,-5.7 3.3,-11.4 -0.4,-6.8 -10.1,-13.3 -20.7,-7.3 -2.1,1.2 -2.8,2.5 -1.7,1.6 2.1,-1.6 8,-4.1 11.5,-2.1 z"
       inkscape:connector-curvature="0"
       style="fill:#999999" />
  </g>
</svg>
