<svg enable-background="new 0 0 160 240" viewBox="0 0 160 240" xmlns="http://www.w3.org/2000/svg"><path d="m45.6 231.8c10.3 5.6 30.1-3.1 45.7-10.6 13.4-6.4 41.7-18.9 31.3-25.2s-28 1.4-44.7 9.1c-14.7 6.7-46.9 18.9-32.3 26.7z" opacity=".2"/><path d="m40 213.2s4.7 2.5 7.5 2.6c2.7.1 5.6-.8 5.6-.8s.4 4.8 4.3 6.8c1.3.7 6.7 2 7.5 3.3 2 3.1-2.9 6.2-8.2 6.1-4.5 0-7.6-1.7-10.9-3.3-3.9-1.8-9.7-2.2-10.1-4.4-.9-4.1 4.3-10.3 4.3-10.3z" fill="#825012"/><path d="m64.9 225.3c0-.1-.1-.1-.2-.2-.2.7-.5 1.4-.9 1.9-1.6 2-6 3.8-10.7 2.1-3.4-1.2-5.1-2.6-9.1-3.7-2.6-.7-6.3-1.4-8.3-3.9-.1.8-.2 1.5 0 2.3.4 2.2 6.2 2.6 10.1 4.4 3.3 1.5 6.4 3.2 10.9 3.3 5.3 0 10.2-3.1 8.2-6.2z" opacity=".4"/><path d="m92.6 201.1s6.6 2.2 9.3.9 3.5-5.2 3.5-5.2 2.9-1.4 4.9-2.4c2-.9 4-2.5 6.6-1.8s6.3 3.2 4.2 7.2c-1.8 3.4-5.5 5.2-10 7.1-3.6 1.5-9.6 4.8-13.8 4.5-3.7-.3-5.1-3-4.6-5.4.6-2.4-.1-4.9-.1-4.9z" fill="#825012"/><path d="m121.2 199.8c2.1-4.1-1.6-6.6-4.2-7.2-.5-.1-.9-.1-1.4-.1 4.7 1.5 4.8 3.9 3.9 6.5-1.4 4-10.1 6.8-16.3 9.7-3.1 1.5-7.9 2-10.3-.6.5 1.6 2 3 4.5 3.2 4.1.3 10.2-3 13.8-4.5 4.4-1.7 8.2-3.6 10-7z" opacity=".4"/><path d="m56.5 99.7c-.8 2.6-3 6.6-5 10.4s-3.9 7.3-3.5 14c.4 7.3 2.6 40.2 1.4 44.2s-2.9 10.2-5.3 18.8c-2.4 8.5-6.1 24.6-7.1 27.3-.5 1.5.4 3.4 5.5 4.6 3.6.8 11.3 1.8 12.7.5.9-.8 2.4-10.5 4.5-15.8 2-5.1 6.8-25.2 7.6-28.9s9.4-22.4 9.4-38.6c0-2.1.8-26.9.8-26.9z" fill="#06547a"/><path d="m56.5 99.7c-.8 2.6-3 6.6-5 10.4s-3.9 7.3-3.5 14c.4 7.3 2.6 40.2 1.4 44.2s-2.9 10.2-5.3 18.8c-2.4 8.5-6.1 24.6-7.1 27.3-.5 1.5.4 3.4 5.5 4.6 3.6.8 11.3 1.8 12.7.5.9-.8 2.4-10.5 4.5-15.8 2-5.1 6.8-25.2 7.6-28.9s9.4-22.4 9.4-38.6c0-2.1.8-26.9.8-26.9z" opacity=".2"/><path d="m66.4 104.5s-1.6 11.7-.8 18.2c.8 6.6 5.1 12.3 8.4 16.5 3.4 4.3 9.2 13.5 11.7 16.7 2.3 3 2.4 4.2 2.2 7.6-.1 3.4-.8 10.2.6 19.1 1.5 9.4 3.5 19 3.6 20.9s5.1 1.4 9.3-.4 7.3-5.3 6.9-7.2c-.4-1.8-2.3-6.8-3.3-14.7s-.5-21.5-.2-26.6.1-19-2.4-25.2-3.9-9.1-4.7-12.5-.4-8.5-.4-8.5z" fill="#06547a"/><path d="m69.7 49.3c-3.1-.4-6.7-3-11.5.7-4.9 3.7-4.6 8.1-4.2 11.8s-.9 8.1 1 15.2 3.3 14.4 2.5 16.8-2.2 6.5-3.4 9.3c-1.3 3-3.6 7.3-4 8.6s8 6 18.1 7.3 29.9 2.8 30.5.7c1-3.4.1-6.6.3-9.7.1-3.1 1.1-15.2 1.3-19.6.2-3.4 1.2-6 1.7-10.1s.7-5.6-1.8-9.8-4-9.2-7.9-11.8c-3.5-2.3-4.9-2.9-7.2-3.6-2.4-.8-15.4-5.8-15.4-5.8z" fill="#999"/><path d="m78.3 76.1 15.5 4.5s-2 6.6-3.3 10.1-2.6 5.2-2.2 7 3.9 25.1 4.3 27.6 0 10.9-.8 12.9-5 4.2-7.2 3.9-2.8-2.9-3-3.9c-.3-1 .7-2.2 2-2.6s2.2-1.8 2.2-1.8-.1-1.3-.3-2.9c-.1-1.6.8-3.5.8-3.5s-5.4-14-7-19-2.2-8.3-2.8-10.8c-.5-2.5-.4-9.2.4-13.4.8-4.5 1.4-8.1 1.4-8.1z" fill="#fbd7c7"/><path d="m65.8 49.8c1.2-.3 4.7-3.3 4.7-5.2s-3.9-9.3-2.4-13.8 9-11.2 17.8-8.5 7.1 10.5 6.1 16.9-1.6 7.2-2.9 7.9c-1.2.8-2.9 1.4-2.8 3.1s.3 4.5.9 5.7-8.9 2.2-14.6-.1c-5.6-2.2-6.8-6-6.8-6z" fill="#fbd7c7"/><path d="m68.3 41.7c.5 1.6 1.8 4.8 5.5 5.6 3.7.9 8.5-3.3 9.2-5.4.7-2 1-4 2.8-4.3s1.6 2.2 1.6 2.2 2.4-1.2 2.8-5.2c.2-1.7-.1-4.5 1.7-5.6s-1.8-8.3-9.9-8.1c-9.2.1-12.4 4.2-14.1 8.5-1.7 4.5-.5 9.5.4 12.3z" fill="#2d3134"/></svg>