<?xml version="1.0" encoding="UTF-8" standalone="no"?>
<svg
   xmlns:dc="http://purl.org/dc/elements/1.1/"
   xmlns:cc="http://creativecommons.org/ns#"
   xmlns:rdf="http://www.w3.org/1999/02/22-rdf-syntax-ns#"
   xmlns:svg="http://www.w3.org/2000/svg"
   xmlns="http://www.w3.org/2000/svg"
   xmlns:sodipodi="http://sodipodi.sourceforge.net/DTD/sodipodi-0.dtd"
   xmlns:inkscape="http://www.inkscape.org/namespaces/inkscape"
   enable-background="new 0 0 160 160"
   viewBox="0 0 10.380651 11.338583"
   version="1.1"
   id="svg28"
   sodipodi:docname="city--basicman11.svg"
   width="10.380651"
   height="11.338583"
   inkscape:version="0.92.2 (5c3e80d, 2017-08-06)">
  <metadata
     id="metadata34">
    <rdf:RDF>
      <cc:Work
         rdf:about="">
        <dc:format>image/svg+xml</dc:format>
        <dc:type
           rdf:resource="http://purl.org/dc/dcmitype/StillImage" />
        <dc:title></dc:title>
      </cc:Work>
    </rdf:RDF>
  </metadata>
  <defs
     id="defs32" />
  <sodipodi:namedview
     pagecolor="#ffffff"
     bordercolor="#666666"
     borderopacity="1"
     objecttolerance="10"
     gridtolerance="10"
     guidetolerance="10"
     inkscape:pageopacity="0"
     inkscape:pageshadow="2"
     inkscape:window-width="870"
     inkscape:window-height="480"
     id="namedview30"
     showgrid="false"
     fit-margin-top="-2.7755576e-017"
     fit-margin-left="0"
     fit-margin-right="0"
     fit-margin-bottom="0"
     inkscape:zoom="1.475"
     inkscape:cx="52.689733"
     inkscape:cy="70.652987"
     inkscape:window-x="0"
     inkscape:window-y="0"
     inkscape:window-maximized="0"
     inkscape:current-layer="svg28" />
  <g
     id="g49"
     transform="matrix(0.10115735,0,0,0.10115735,-2.7626343,-3.9010741)">
    <path
       id="path2"
       d="m 27.8,120.5 c 2.9,-4.4 6.5,-4.8 17.4,-1.4 10.9,3.4 33.9,-1.9 42.7,1.3 8.8,3.1 32,7.3 36.2,9.8 4.2,2.6 11.4,6.6 -1.5,15 -12.9,8.4 -29.6,5.3 -34.5,2.5 -4.9,-2.8 -5.3,-3.7 -9.3,-2.5 -6.6,2.1 -10.9,5.3 -21.4,0.1 -9.4,-4.6 -8.1,-15.3 -14.6,-18 -6.5,-2.7 -18,-2.4 -15,-6.8 z"
       inkscape:connector-curvature="0"
       style="opacity:0.2" />
    <path
       id="path4"
       d="m 88.1,143.9 c -0.1,2 -1,3 0.2,3.4 1.2,0.4 18.6,1.5 20.5,1.5 3.2,0 8.1,-1.9 9.8,-3.5 1,-1 1.5,-5.7 -3.6,-6.8 -5.1,-1.2 -12.8,1.3 -12.8,1.3 z"
       inkscape:connector-curvature="0"
       style="fill:#262626" />
    <path
       id="path6"
       d="m 95.2,143.8 c 3.5,0.5 10.5,1.6 13.7,1.5 3.5,-0.1 8.3,-1.1 8.5,-2.9 0.2,-1.4 -0.9,-3.8 -6.2,-3 C 108,139.9 99.9,139 99.9,139 Z"
       inkscape:connector-curvature="0"
       style="fill:#ffffff" />
    <path
       id="path8"
       d="m 107.6,143.6 c 2.4,0.1 11.8,-1 13.6,-1.5 3.3,-0.9 6.4,-4.3 6.6,-7.5 0.2,-3.2 -2.4,-7.5 -6.4,-6.5 -3.5,0.8 -4.5,2.9 -6.3,3.6 -1.8,0.7 -6.9,1.1 -6.9,1.1 l -1.1,10.6 z"
       inkscape:connector-curvature="0"
       style="fill:#262626" />
    <path
       id="path10"
       d="m 109,139.7 c 0,0 5.8,0.2 9.5,-0.2 3.5,-0.4 8.8,-3.2 8.4,-7.1 -0.4,-3.9 -4.7,-5 -7.7,-3 -2.8,1.8 -6.3,2.7 -8.3,1.9 -2,-0.8 -1.9,8.4 -1.9,8.4 z"
       inkscape:connector-curvature="0"
       style="fill:#ffffff" />
    <path
       id="path12"
       d="m 86.9,146.8 c 0.6,0.3 7.9,-0.5 11.6,-1.4 3.7,-0.9 8.6,-3.6 8.6,-3.6 0,0 -10.6,-26.4 -12.6,-27.8 -2,-1.4 -17,2.8 -17,2.8 l 0.3,12.3 c 0,0 3.1,6.9 5.5,8.3 2.4,1.5 2.6,2.8 2.8,4.3 0.2,1.5 -0.3,4.5 0.8,5.1 z"
       inkscape:connector-curvature="0"
       style="fill:#06547a" />
    <path
       id="path14"
       d="m 86.9,146.8 c 0.6,0.3 7.9,-0.5 11.6,-1.4 3.7,-0.9 8.6,-3.6 8.6,-3.6 0,0 -10.6,-26.4 -12.6,-27.8 -2,-1.4 -17,2.8 -17,2.8 l 0.3,12.3 c 0,0 3.1,6.9 5.5,8.3 2.4,1.5 2.6,2.8 2.8,4.3 0.2,1.5 -0.3,4.5 0.8,5.1 z"
       inkscape:connector-curvature="0"
       style="opacity:0.2" />
    <path
       id="path16"
       d="m 47.3,129.4 c 0,0 2.5,13.1 10.2,16 7.6,2.8 18.5,0.5 23.9,-6 5.4,-6.5 10.1,-18.4 10.1,-18.4 0,0 1.9,4.2 3.2,7.3 1.4,3 4.7,7.2 5.9,8.8 1.2,1.7 2.5,5.4 4,6.5 1.6,1.1 6.1,-0.4 9.6,-3.7 3.5,-3.3 4.4,-6.6 3.6,-8.5 -0.8,-1.9 -2.5,-0.4 -3.6,-2.4 -1.4,-2.4 -5.9,-11.7 -9.2,-19.9 -3.3,-8.2 -3.7,-15.9 -6.3,-18.3 -2.6,-2.4 -6,-7 -13.1,-2.2 -7.2,4.8 -10,14.9 -13,20.7 -2.1,4.2 -3.8,7.9 -3.8,7.9 z"
       inkscape:connector-curvature="0"
       style="fill:#06547a" />
    <path
       id="path18"
       d="m 47.4,122.8 c -1.3,1.2 -2,2.6 -4.1,2.4 -2.1,-0.2 -8,-1.8 -10.1,-1.9 -1.5,-0.1 -2.9,-0.2 -4.1,-0.1 -0.3,0 -1.3,-0.4 -0.2,-0.9 -0.6,0.1 -0.9,-0.1 -0.9,-0.1 -0.6,-0.8 2.6,-1.9 2.1,-1.7 -0.8,0.2 -1.5,0.5 -1.9,0.2 -0.6,-0.5 1.8,-1.7 3.6,-2 1.2,-0.2 2.3,0 2.3,0 0,0 -0.3,-0.2 -1.2,-0.4 -0.9,-0.2 -2.2,0.9 -2.9,0.3 -0.6,-0.5 2.4,-2 3.6,-1.9 1.2,0.1 3.5,1.2 4,1.2 h 3.7 c 0,0 -0.9,-2.2 -1.2,-3.6 -0.4,-1.4 -1.1,-9.8 -1.1,-9.8 l 7.7,-2.4 z"
       inkscape:connector-curvature="0"
       style="fill:#fbd7c7" />
    <path
       id="path20"
       d="m 57.1,72 c 0,0 -0.9,-3.9 0.3,-5.5 1.2,-1.6 1.3,-2.4 3.3,-2.8 2,-0.5 3.2,-0.7 3.4,-2 0.2,-1.3 1.3,-14 -1.2,-18.1 -2.9,-4.6 -13.1,-8.5 -19,-0.1 -5,7 1.3,13.7 1.5,17 0.2,3.1 -3.1,6.1 -4.9,7.3 -1.8,1.2 0.8,4.5 5,5 4.1,0.6 11.6,-0.8 11.6,-0.8 z"
       inkscape:connector-curvature="0"
       style="fill:#fbd7c7" />
    <path
       id="path22"
       d="m 60,43.4 c 0.1,-1 0.6,-1.3 1.3,-1.5 -4,-3.7 -12.4,-5.7 -17.6,1.6 -4.7,6.6 0.7,13 1.4,16.5 0.6,1 1.4,1.8 2.9,2.1 3.9,1 7.5,-5.6 7.5,-6.2 0,-0.6 0,-1.4 1.4,-2.4 1.4,-1 2.4,1 2.4,1 h 1 c 0,0 0.5,-2.1 0.8,-4.8 C 61.5,47 59.8,45 60,43.4 Z"
       inkscape:connector-curvature="0"
       style="fill:#825012" />
    <path
       id="path24"
       d="m 40.3,67.8 c 0,0 -0.1,2.6 3.4,2.5 3.5,-0.1 10.8,0.1 13.8,1 3,1 11.3,3.3 12.5,4.5 1.8,1.9 -0.6,9.7 -1.7,14.2 -1.1,4.5 -2.3,6.9 -2.1,8.5 0.3,3.3 5.5,13 5.5,13 0,0 -0.9,1.6 -1.7,4.1 -0.6,1.8 -1,3.3 -2.1,4.5 -1,1.2 -8.9,6.3 -13.4,8.5 -3.3,1.6 -6,2.3 -7.1,1.9 -1.2,-0.4 -1.1,-7.9 -3.7,-12.2 -2.6,-4.3 -9.9,-17.5 -11.5,-31.6 -1.4,-12.8 -1,-17.3 2.3,-18.5 3.3,-1.2 5.8,-0.4 5.8,-0.4 z"
       inkscape:connector-curvature="0"
       style="fill:#e5e5e5" />
    <path
       id="path26"
       d="m 98.7,90.8 c 0,0 -2.4,-2.2 -3.7,-1.9 -2,0.5 -2,2.1 -4.4,3.1 -2.4,1 -3.9,0.9 -7.1,0 -3.1,-0.9 -10.1,-1.1 -14.1,-2.2 -3.9,-1 -4.4,-0.9 -4.4,-0.9 0,0 -1.8,-4.4 0.2,-8.4 2,-4.2 3.9,-4.8 4.6,-4.5 0.8,0.3 2.9,3.5 6,4.6 3.1,1 7.8,2.4 10.7,2.5 2.9,0.1 8.6,1.7 9.4,2.8 1,1.1 3.8,4 2.8,4.9 z"
       inkscape:connector-curvature="0"
       style="fill:#fbd7c7" />
  </g>
</svg>
