<?xml version="1.0" encoding="UTF-8" standalone="no"?>
<svg
   xmlns:dc="http://purl.org/dc/elements/1.1/"
   xmlns:cc="http://creativecommons.org/ns#"
   xmlns:rdf="http://www.w3.org/1999/02/22-rdf-syntax-ns#"
   xmlns:svg="http://www.w3.org/2000/svg"
   xmlns="http://www.w3.org/2000/svg"
   xmlns:sodipodi="http://sodipodi.sourceforge.net/DTD/sodipodi-0.dtd"
   xmlns:inkscape="http://www.inkscape.org/namespaces/inkscape"
   enable-background="new 0 0 80 240"
   viewBox="0 0 7.6855197 21.543308"
   version="1.1"
   id="svg38"
   sodipodi:docname="city--man02.svg"
   width="7.6855197"
   height="21.543308"
   inkscape:version="0.92.2 (5c3e80d, 2017-08-06)">
  <metadata
     id="metadata44">
    <rdf:RDF>
      <cc:Work
         rdf:about="">
        <dc:format>image/svg+xml</dc:format>
        <dc:type
           rdf:resource="http://purl.org/dc/dcmitype/StillImage" />
        <dc:title></dc:title>
      </cc:Work>
    </rdf:RDF>
  </metadata>
  <defs
     id="defs42" />
  <sodipodi:namedview
     pagecolor="#ffffff"
     bordercolor="#666666"
     borderopacity="1"
     objecttolerance="10"
     gridtolerance="10"
     guidetolerance="10"
     inkscape:pageopacity="0"
     inkscape:pageshadow="2"
     inkscape:window-width="870"
     inkscape:window-height="480"
     id="namedview40"
     showgrid="false"
     fit-margin-top="0"
     fit-margin-left="0"
     fit-margin-right="0"
     fit-margin-bottom="0"
     inkscape:zoom="0.98333333"
     inkscape:cx="37.135356"
     inkscape:cy="114.49533"
     inkscape:window-x="0"
     inkscape:window-y="0"
     inkscape:window-maximized="0"
     inkscape:current-layer="svg38" />
  <g
     id="g64"
     transform="matrix(0.10215303,0,0,0.10215303,-0.29263209,-2.4111001)">
    <path
       id="path2"
       d="M 68.8,230 C 86,220.3 73,213 57,205.3 39.2,196.8 32.1,193.6 16.5,203.7 c -9.5,6.1 -2.4,15.9 13.8,23.5 18.4,8.7 26.3,9.6 38.5,2.8 z"
       inkscape:connector-curvature="0"
       style="opacity:0.2" />
    <path
       id="path4"
       d="m 16.8,213.2 c 0,2.1 -0.1,5.9 3.8,5.9 3.9,0 5.9,-2.9 6.2,-3.8 0.3,-1 -0.1,-3 1.3,-3.8 1.3,-0.8 6.3,-2.5 6.6,-7.1 0.4,-4.9 -1.8,-5 -3.5,-5 -1.7,0 -5.9,0.3 -5.9,0.3 z"
       inkscape:connector-curvature="0"
       style="fill:#262626" />
    <path
       id="path6"
       d="m 33.2,199.7 c 1.2,1.5 1,3.9 0.1,5.7 -1.9,3.6 -6.4,3.1 -6.8,5.2 -0.4,2.1 -2.7,5.6 -5.4,6 -2,0.3 -3.2,-0.3 -4.2,-1.2 0.2,1.8 1,3.6 3.8,3.6 4,0 5.9,-2.9 6.2,-3.8 0.3,-1 -0.1,-3 1.3,-3.8 1.3,-0.8 6.3,-2.5 6.6,-7.1 0.2,-2.9 -0.6,-4.1 -1.6,-4.6 z"
       inkscape:connector-curvature="0"
       style="opacity:0.5" />
    <path
       id="path8"
       d="m 16.2,125.3 c -0.3,6 1.4,21.3 1.2,32.8 -0.2,11.5 -2.8,43.8 -2.5,47.6 0.3,3.8 -0.3,8.8 3.8,9.6 3.2,0.6 7.4,-1.8 9,-4.3 1.6,-2.5 2.6,-6.2 2.7,-10.5 0.1,-4.3 9.4,-58.4 9.5,-60.6 0.1,-2.2 -1,-13.8 -1,-13.8 z"
       inkscape:connector-curvature="0"
       style="fill:#656565" />
    <path
       id="path10"
       d="m 16.2,125.3 c -0.3,6 1.4,21.3 1.2,32.8 -0.2,11.5 -2.8,43.8 -2.5,47.6 0.3,3.8 -0.3,8.8 3.8,9.6 3.2,0.6 7.4,-1.8 9,-4.3 1.6,-2.5 2.6,-6.2 2.7,-10.5 0.1,-4.3 9.4,-58.4 9.5,-60.6 0.1,-2.2 -1,-13.8 -1,-13.8 z"
       inkscape:connector-curvature="0"
       style="opacity:0.3" />
    <path
       id="path12"
       d="m 45.1,27.4 c 2.5,1 4.3,3.8 4.7,10.3 0.4,6.5 0,11.6 -1.5,12.3 -1.5,0.7 -2.5,0.4 -2.5,0.4 l 1.1,7.1 -16.8,-4.7 c 0,0 0.3,-3.9 -0.6,-6.4 C 28.6,44 26,35.2 28.7,31.2 c 2.7,-4 8.4,-6.9 16.4,-3.8 z"
       inkscape:connector-curvature="0"
       style="fill:#fbd7c7" />
    <path
       id="path14"
       d="m 5.4,113.6 c 0,0 -0.8,7 -0.5,8.7 0.3,1.7 3.5,9.6 5.3,10 1.8,0.4 3.6,-1 3.4,-2.3 -0.2,-1.2 -2,-3.3 -2.1,-5.4 -0.2,-2.1 -0.1,-5.3 0.8,-5.7 0.9,-0.5 2.9,2 3.8,3.1 0.9,1.1 2.5,0.7 2.5,-0.2 0,-0.8 -1.9,-2.6 -2.3,-4.1 -0.4,-1.5 -1.2,-2.7 -2.3,-4 -1.1,-1.4 -1.5,-2.3 -1.5,-2.3 z"
       inkscape:connector-curvature="0"
       style="fill:#fbd7c7" />
    <path
       id="path16"
       d="m 4.2,111.5 c 0,0 -0.6,3.1 0.5,3.8 0.9,0.5 4.5,1.2 6.8,0.3 2,-0.8 3.1,-1.5 3.2,-2.2 0.1,-0.7 -0.8,-2 -0.8,-2 z"
       inkscape:connector-curvature="0"
       style="fill:#ffffff" />
    <path
       id="path18"
       d="m 43.9,224 v 4.1 c 0,0.8 0.1,2.9 4.3,2.6 4.2,-0.3 6.4,-1.2 6.6,-1.5 0.2,-0.3 0.7,-1.1 0.7,-1.1 0,0 7.2,0.6 12.4,-1.6 5.4,-2.3 8.6,-7.3 4,-9.4 -2.8,-1.3 -4.4,0.3 -8.6,-0.2 -4.5,-0.5 -7.1,-2.7 -7.1,-2.7 z"
       inkscape:connector-curvature="0"
       style="fill:#262626" />
    <path
       id="path20"
       d="m 68,226.3 c 5.4,-2.3 8.6,-7.3 4,-9.4 4.8,4.5 -4.5,8.7 -8.6,9 -2.7,0.2 -8.6,0.5 -12.4,1.3 -3.1,0.6 -6.2,0.4 -7.1,-0.8 v 1.7 c 0,0.8 0.1,2.9 4.3,2.6 4.3,-0.3 6.4,-1.2 6.6,-1.5 0.2,-0.3 0.7,-1.1 0.7,-1.1 0,0 7.3,0.4 12.5,-1.8 z"
       inkscape:connector-curvature="0"
       style="opacity:0.5" />
    <path
       id="path22"
       d="m 33.3,128.3 c -0.4,6.2 2.3,19.4 3.4,26.8 1.1,7.4 2.9,38.7 3.7,46.5 0.6,6.3 2.7,23.4 3.9,24.3 1.2,0.9 9.6,-0.3 13.1,-2.6 2.3,-1.6 4.9,-4.7 4.5,-6.8 -0.4,-2.1 -3.1,-4.1 -3.5,-14.9 -0.3,-10.8 0.9,-30.2 0.6,-44.9 -0.3,-14.8 -1,-31.5 -1,-31.5 z"
       inkscape:connector-curvature="0"
       style="fill:#656565" />
    <path
       id="path24"
       d="m 33.3,128.3 c -0.4,6.2 2.3,19.4 3.4,26.8 1.1,7.4 2.9,38.7 3.7,46.5 0.6,6.3 2.7,23.4 3.9,24.3 1.2,0.9 9.6,-0.3 13.1,-2.6 2.3,-1.6 4.9,-4.7 4.5,-6.8 -0.4,-2.1 -3.1,-4.1 -3.5,-14.9 -0.3,-10.8 0.9,-30.2 0.6,-44.9 -0.3,-14.8 -1,-31.5 -1,-31.5 z"
       inkscape:connector-curvature="0"
       style="opacity:0.15" />
    <path
       id="path26"
       d="m 12.6,55.9 c -1.2,1.4 -2,5.5 -2.3,7.6 C 10,65.6 4.5,82.9 3.6,86.2 2.7,89.6 2.8,95.3 3,100.6 c 0.2,5.3 0.2,11.7 0.3,12.6 0.1,1 4,2 6.9,1.6 2.9,-0.4 4.6,-1.2 4.9,-3.6 0.3,-2.4 1.8,-13.9 3.8,-18.1 2,-4.2 4.9,-11.7 4.9,-11.7 z"
       inkscape:connector-curvature="0"
       style="fill:#656565" />
    <path
       id="path28"
       d="m 12.6,55.9 c -1.2,1.4 -2,5.5 -2.3,7.6 C 10,65.6 4.5,82.9 3.6,86.2 2.7,89.6 2.8,95.3 3,100.6 c 0.2,5.3 0.2,11.7 0.3,12.6 0.1,1 4,2 6.9,1.6 2.9,-0.4 4.6,-1.2 4.9,-3.6 0.3,-2.4 1.8,-13.9 3.8,-18.1 2,-4.2 4.9,-11.7 4.9,-11.7 z"
       inkscape:connector-curvature="0"
       style="opacity:0.15" />
    <path
       id="path30"
       d="m 65.7,103.2 0.1,8.8 c 0,0 4.1,1.1 7.1,-0.5 3,-1.6 5.2,-4.7 5.2,-5.8 0,-1.1 -0.3,-2.4 -1.3,-2.4 -1.1,0 -2,1.6 -3.2,0.3 -1.2,-1.3 -0.4,-2.2 0.6,-2.9 0.9,-0.7 1.3,-2.5 -0.8,-2.3 -1,0.1 -1.9,0.8 -2.5,1.3 -0.9,0.8 -1.8,1.8 -3,2.8 -1.3,1.2 -2.2,0.7 -2.2,0.7 z"
       inkscape:connector-curvature="0"
       style="fill:#fbd7c7" />
    <path
       id="path32"
       d="m 30.2,49.3 -3.6,0.8 0.1,0.9 c 0,0 -5.5,-0.7 -9.4,1.4 -4,2.1 -6.1,4 -5.6,7.3 0.6,3.4 3.9,15.1 6.1,21.1 2.2,6 3.5,9.3 2.9,14.2 -0.6,4.9 -7.1,27.7 -6.7,31.2 0.4,3.5 5.8,6.1 12.5,7.9 6.9,1.8 31.9,3.2 32.4,-1.9 0.5,-5 0.5,-18.9 0.5,-18.9 0,0 7.1,1.3 8.4,-0.4 1.3,-1.7 2.8,-4.5 1.2,-7.9 -1.5,-3.4 -2.1,-3.5 -3.1,-3.8 -1,-0.3 -5.5,-1 -6.8,-2.7 -1.3,-1.6 -0.3,-7.8 -0.3,-15.7 0,-7.9 0.3,-13.6 -3.2,-17.3 C 52.1,61.8 48.1,56.6 44.8,55.4 40.4,54 29.5,54.3 30.2,49.3 Z"
       inkscape:connector-curvature="0"
       style="fill:#656565" />
    <path
       id="path34"
       d="m 27.5,49.9 c 0,0 0.1,5.2 7.4,6.1 6.9,0.9 19,8.5 19,8.5 0,0 -13,-7.3 -18.9,-7.8 -8.8,-0.7 -8.4,-6.8 -8.4,-6.8 z"
       inkscape:connector-curvature="0"
       style="opacity:0.2" />
    <path
       id="path36"
       d="m 43.7,42.8 c 0.1,0.8 1,-1.3 1.7,-3.1 0.7,-1.9 2,-4.3 2.7,-7 C 48.8,30 49.4,31 49.5,29.8 49.6,28.6 43.8,20.9 33.2,24.6 22.6,28.3 25,40.6 26,44 c 1,3.4 4.1,7.3 7.1,7.3 3,-0.1 6.5,-2.4 6.8,-6.8 0.4,-4.4 3.6,-3.5 3.8,-1.7 z"
       inkscape:connector-curvature="0"
       style="fill:#762c07" />
  </g>
</svg>
