<svg enable-background="new 0 0 552 368" viewBox="0 0 552 368" xmlns="http://www.w3.org/2000/svg"><path d="m488 304v14.1c0 6.6 1.1 13.1 3.1 19.3l1.9 5.8c4 12.1-8.6 23-20 17.3l-28.7-14.3c-13.6-6.8-27.7-12.6-42.1-17.4l-74.2-24.8-192-96s-38.9-20.4-61.9-34c-33.4-19.6-40.3-23.5-47-28-9.5-6.4-22.1-15.6-22.1-25 0-13.8 10.8-8.3 18-14 8.3-6.5-4-18-4-18z" fill="#39c"/><path d="m488 304v14.1c0 6.6 1.1 13.1 3.1 19.3l1.9 5.8c4 12.1-8.6 23-20 17.3l-28.7-14.3c-13.6-6.8-27.7-12.6-42.1-17.4l-74.2-24.8-192-96s-38.9-20.4-61.9-34c-33.4-19.6-40.3-23.5-47-28-9.5-6.4-22.1-15.6-22.1-25 0-13.8 10.8-8.3 18-14 8.3-6.5-4-18-4-18z" opacity=".15"/><path d="m136 48v-5l-16.1-8c-14.4-7.4-31.1-12-51.9-12-37.6 0-68 18.2-68 37 0 9.4 9.9 19.9 24.1 28l7.9 4 8 4 8 8 320 160h8l80 40 96-48-80-40h-8l-320-160z" fill="#999"/><path d="m68 27c20.8 0 37.5 5.6 51.9 13l16.1 8v-5l-16.1-8c-14.4-7.4-31.1-12-51.9-12-37.6 0-68 18.2-68 37 0-.4.1 4.6.1 4.6s-.5-4.5 1.1-9.1c5.4-16 33.1-28.5 66.8-28.5z" opacity=".2"/><path d="m44 16c-1.1 0-2 .4-2 1v34c0 .6.9 1 2 1s2-.4 2-1v-34c0-.6-.9-1-2-1z" fill="#e5e5e5"/><path d="m44 18c-1.1 0-2-.4-2-1v34c0 .6.9 1 2 1s2-.4 2-1v-34c0 .6-.9 1-2 1z" opacity=".2"/><path d="m44 13c-3.3 0-6 1.3-6 3v1c0 1.7 2.7 3 6 3s6-1.3 6-3v-1c0-1.7-2.7-3-6-3z" fill="#e5e5e5"/><path d="m44 9c3.3 0 6 1.3 6 3v-1c0-1.7-2.7-3-6-3s-6 1.3-6 3v1c0-1.7 2.7-3 6-3z" fill="#e5e5e5"/><path d="m44 9c3.3 0 6 1.3 6 3v-1c0-1.7-2.7-3-6-3s-6 1.3-6 3v1c0-1.7 2.7-3 6-3z" opacity=".1"/><path d="m44 0c-1.1 0-2 .4-2 1v15c0 .6.9 1 2 1s2-.4 2-1v-15c0-.6-.9-1-2-1z" fill="#e5e5e5"/><path d="m44 2c-1.1 0-2-.4-2-1v15c0 .6.9 1 2 1s2-.4 2-1v-15c0 .6-.9 1-2 1z" opacity=".2"/><path d="m44 14c-3.3 0-6-1.3-6-3v1 5l1 1v-4.3c.3.2.6.4 1 .6v4.7h1v-4.4c.9.3 1.9.4 3 .4s2.1-.1 3-.4v4.4h1v-4.8c.4-.2.7-.4 1-.6v4.4l1-1v-5-1c0 1.7-2.7 3-6 3z" fill="#e5e5e5"/><path d="m44 14c-3.3 0-6-1.3-6-3v1 4 1c0 1.7 2.7 3 6 3s6-1.3 6-3v-1-4-1c0 1.7-2.7 3-6 3zm5-.3v4c-.3.2-.6.4-1 .6v-4c.4-.2.7-.4 1-.6zm-9 .5v4c-.4-.2-.7-.4-1-.6v-4c.3.3.6.5 1 .6zm1 4.4v-4c.9.3 1.9.4 3 .4s2.1-.1 3-.4v4c-.9.3-1.9.4-3 .4s-2.1-.1-3-.4z" opacity=".2"/><path d="m392 262c-1.1 0-2 .4-2 1v6c0 .6.9 1 2 1s2-.4 2-1v-6c0-.6-.9-1-2-1z" fill="#999"/><path d="m392 264c-1.1 0-2-.4-2-1v6c0 .6.9 1 2 1s2-.4 2-1v-6c0 .6-.9 1-2 1z" opacity=".2"/><path d="m408 270c-1.1 0-2 .4-2 1v6c0 .6.9 1 2 1s2-.4 2-1v-6c0-.6-.9-1-2-1z" fill="#999"/><path d="m408 272c-1.1 0-2-.4-2-1v6c0 .6.9 1 2 1s2-.4 2-1v-6c0 .6-.9 1-2 1z" opacity=".2"/><path d="m424 278c-1.1 0-2 .4-2 1v6c0 .6.9 1 2 1s2-.4 2-1v-6c0-.6-.9-1-2-1z" fill="#999"/><path d="m424 280c-1.1 0-2-.4-2-1v6c0 .6.9 1 2 1s2-.4 2-1v-6c0 .6-.9 1-2 1z" opacity=".2"/><path d="m440 286c-1.1 0-2 .4-2 1v6c0 .6.9 1 2 1s2-.4 2-1v-6c0-.6-.9-1-2-1z" fill="#999"/><path d="m440 288c-1.1 0-2-.4-2-1v6c0 .6.9 1 2 1s2-.4 2-1v-6c0 .6-.9 1-2 1z" opacity=".2"/><path d="m400 266c-1.1 0-2 .4-2 1v6c0 .6.9 1 2 1s2-.4 2-1v-6c0-.6-.9-1-2-1z" fill="#999"/><path d="m400 268c-1.1 0-2-.4-2-1v6c0 .6.9 1 2 1s2-.4 2-1v-6c0 .6-.9 1-2 1z" opacity=".2"/><path d="m416 274c-1.1 0-2 .4-2 1v6c0 .6.9 1 2 1s2-.4 2-1v-6c0-.6-.9-1-2-1z" fill="#999"/><path d="m416 276c-1.1 0-2-.4-2-1v6c0 .6.9 1 2 1s2-.4 2-1v-6c0 .6-.9 1-2 1z" opacity=".2"/><path d="m432 282c-1.1 0-2 .4-2 1v6c0 .6.9 1 2 1s2-.4 2-1v-6c0-.6-.9-1-2-1z" fill="#999"/><path d="m432 284c-1.1 0-2-.4-2-1v6c0 .6.9 1 2 1s2-.4 2-1v-6c0 .6-.9 1-2 1z" opacity=".2"/><path d="m448 290c-1.1 0-2 .4-2 1v6c0 .6.9 1 2 1s2-.4 2-1v-6c0-.6-.9-1-2-1z" fill="#999"/><path d="m448 292c-1.1 0-2-.4-2-1v6c0 .6.9 1 2 1s2-.4 2-1v-6c0 .6-.9 1-2 1z" opacity=".2"/><path d="m496 223c-1.1 0-2 .4-2 1v6c0 .6.9 1 2 1s2-.4 2-1v-6c0-.6-.9-1-2-1z" fill="#999"/><path d="m496 225c-1.1 0-2-.4-2-1v6c0 .6.9 1 2 1s2-.4 2-1v-6c0 .6-.9 1-2 1z" opacity=".2"/><path d="m512 231c-1.1 0-2 .4-2 1v6c0 .6.9 1 2 1s2-.4 2-1v-6c0-.6-.9-1-2-1z" fill="#999"/><path d="m512 233c-1.1 0-2-.4-2-1v6c0 .6.9 1 2 1s2-.4 2-1v-6c0 .6-.9 1-2 1z" opacity=".2"/><path d="m528 239c-1.1 0-2 .4-2 1v6c0 .6.9 1 2 1s2-.4 2-1v-6c0-.6-.9-1-2-1z" fill="#999"/><path d="m528 241c-1.1 0-2-.4-2-1v6c0 .6.9 1 2 1s2-.4 2-1v-6c0 .6-.9 1-2 1z" opacity=".2"/><path d="m504 227c-1.1 0-2 .4-2 1v6c0 .6.9 1 2 1s2-.4 2-1v-6c0-.6-.9-1-2-1z" fill="#999"/><path d="m504 229c-1.1 0-2-.4-2-1v6c0 .6.9 1 2 1s2-.4 2-1v-6c0 .6-.9 1-2 1z" opacity=".2"/><path d="m520 235c-1.1 0-2 .4-2 1v6c0 .6.9 1 2 1s2-.4 2-1v-6c0-.6-.9-1-2-1z" fill="#999"/><path d="m520 237c-1.1 0-2-.4-2-1v6c0 .6.9 1 2 1s2-.4 2-1v-6c0 .6-.9 1-2 1z" opacity=".2"/><path d="m536 243c-1.1 0-2 .4-2 1v6c0 .6.9 1 2 1s2-.4 2-1v-6c0-.6-.9-1-2-1z" fill="#999"/><path d="m536 245c-1.1 0-2-.4-2-1v6c0 .6.9 1 2 1s2-.4 2-1v-6c0 .6-.9 1-2 1z" opacity=".2"/><path d="m472 216-96 48h-8l96-48z" opacity=".2"/><path d="m384 258c-1.1 0-2 .4-2 1v6c0 .6.9 1 2 1s2-.4 2-1v-6c0-.6-.9-1-2-1z" fill="#999"/><path d="m384 260c-1.1 0-2-.4-2-1v6c0 .6.9 1 2 1s2-.4 2-1v-6c0 .6-.9 1-2 1z" opacity=".2"/><path d="m134 42-96 48v5l2 1 96-48v-5z" fill="#999"/><path d="m40 96-2-1v-5l2 1z" opacity=".11"/><path d="m136 48v-5l-96 48v5l8 8 96-48z" opacity=".29"/><g fill="#656565"><path d="m493.9 345.5c0 1.3-1.1 3-2.4 3.6-1.3.7-2.4.1-2.4-1.2s1.1-3 2.4-3.6 2.4-.2 2.4 1.2z"/><path d="m497 341.8c0 1.6-1.3 3.6-2.9 4.4s-2.9.2-2.9-1.5c0-1.6 1.3-3.6 2.9-4.4s2.9-.1 2.9 1.5z"/><path d="m491.1 345.1c0 1.6-1.3 3.6-2.9 4.4s-2.9.2-2.9-1.5c0-1.6 1.3-3.6 2.9-4.4 1.6-.7 2.9-.1 2.9 1.5z"/><path d="m495.3 348.5c0 1.6-1.3 3.6-2.9 4.4s-2.9.2-2.9-1.5c0-1.6 1.3-3.6 2.9-4.4 1.5-.7 2.9-.1 2.9 1.5z"/></g><path d="m493.6 346.7c.1-.1.1-.3.1-.4.1 0 .2-.1.3-.1 1.6-.8 2.9-2.8 2.9-4.4s-1.3-2.3-2.9-1.5c-1.5.8-2.7 2.5-2.9 4.1-.1 0-.1.1-.2.1-.3-1.2-1.5-1.6-2.8-.9-1.6.8-2.9 2.8-2.9 4.4s1.3 2.3 2.9 1.5c.4-.2.8-.5 1.1-.8.2.3.4.5.8.6-.4.7-.6 1.4-.6 2.1 0 1.6 1.3 2.3 2.9 1.5s2.9-2.8 2.9-4.4c.1-1.1-.6-1.8-1.6-1.8z" opacity=".29"/><path d="m36 45c-1.1 0-2 .4-2 1v6c0 .6.9 1 2 1s2-.4 2-1v-6c0-.6-.9-1-2-1z" fill="#999"/><path d="m36 47c-1.1 0-2-.4-2-1v6c0 .6.9 1 2 1s2-.4 2-1v-6c0 .6-.9 1-2 1z" opacity=".2"/><path d="m52 37c-1.1 0-2 .4-2 1v6c0 .6.9 1 2 1s2-.4 2-1v-6c0-.6-.9-1-2-1z" fill="#999"/><path d="m52 39c-1.1 0-2-.4-2-1v6c0 .6.9 1 2 1s2-.4 2-1v-6c0 .6-.9 1-2 1z" opacity=".2"/><path d="m27 70c0-1-.8-2.3-1.9-2.8-1-.5-1.9-.1-1.9.9v.3 1.9l3.7 1.9v-1.9c.1-.1.1-.2.1-.3z" fill="#999"/><path d="m27 70c0-1-.8-2.3-1.9-2.8-1-.5-1.9-.1-1.9.9v.3 1.9l3.7 1.9v-1.9c.1-.1.1-.2.1-.3z" opacity=".11"/><path d="m26.6 69.8c0-.8-.6-1.8-1.4-2.2-.3-.2-.7-.2-.9-.1l-3.7 1.9c-.3.1-.5.4-.5.9 0 .8.6 1.8 1.4 2.2.3.2.6.2.9.1l3.7-1.9c.2-.1.5-.4.5-.9z" fill="#656565"/><path d="m23.2 71.9c0-1-.8-2.3-1.9-2.8-1-.5-1.9-.1-1.9.9v.3 1.9l3.7 1.9v-1.9c.1-.2.1-.2.1-.3z" fill="#999"/><path d="m23.2 71.9c0-1-.8-2.3-1.9-2.8-1-.5-1.9-.1-1.9.9v.3 1.9l3.7 1.9v-1.9c.1-.2.1-.2.1-.3z" opacity=".11"/><path d="m93 37c0-1-.8-2.3-1.9-2.8-1-.5-1.9-.1-1.9.9v.3 1.9l3.7 1.9v-1.9c.1-.1.1-.2.1-.3z" fill="#999"/><path d="m93 37c0-1-.8-2.3-1.9-2.8-1-.5-1.9-.1-1.9.9v.3 1.9l3.7 1.9v-1.9c.1-.1.1-.2.1-.3z" opacity=".11"/><path d="m92.6 36.8c0-.8-.6-1.8-1.4-2.2-.3-.2-.7-.2-.9-.1l-3.7 1.9c-.3.1-.5.4-.5.9 0 .8.6 1.8 1.4 2.2.3.2.6.2.9.1l3.7-1.9c.2-.1.5-.4.5-.9z" fill="#656565"/><path d="m89.2 38.9c0-1-.8-2.3-1.9-2.8-1-.5-1.9-.1-1.9.9v.3 1.9l3.7 1.9v-1.9c.1-.2.1-.2.1-.3z" fill="#999"/><path d="m89.2 38.9c0-1-.8-2.3-1.9-2.8-1-.5-1.9-.1-1.9.9v.3 1.9l3.7 1.9v-1.9c.1-.2.1-.2.1-.3z" opacity=".11"/><path d="m24.5 51c0-1-.8-2.3-1.9-2.8-1-.5-1.9-.1-1.9.9v.3 1.9l3.7 1.9v-1.9c.1-.1.1-.2.1-.3z" fill="#999"/><path d="m24.5 51c0-1-.8-2.3-1.9-2.8-1-.5-1.9-.1-1.9.9v.3 1.9l3.7 1.9v-1.9c.1-.1.1-.2.1-.3z" opacity=".11"/><path d="m24 50.8c0-.8-.6-1.8-1.4-2.2-.3-.2-.7-.2-.9-.1l-3.7 1.9c-.3.1-.5.4-.5.9 0 .8.6 1.8 1.4 2.2.3.2.6.2.9.1l3.7-1.9c.3-.1.5-.4.5-.9z" fill="#656565"/><path d="m20.7 52.9c0-1-.8-2.3-1.9-2.8-1-.5-1.8-.1-1.8.9v.3 1.9l3.7 1.9v-1.9c0-.2 0-.2 0-.3z" fill="#999"/><path d="m20.7 52.9c0-1-.8-2.3-1.9-2.8-1-.5-1.8-.1-1.8.9v.3 1.9l3.7 1.9v-1.9c0-.2 0-.2 0-.3z" opacity=".11"/><path d="m60.5 33c0-1-.8-2.3-1.9-2.8-1-.5-1.9-.1-1.9.9v.3 1.9l3.7 1.9v-1.9c.1-.1.1-.2.1-.3z" fill="#999"/><path d="m60.5 33c0-1-.8-2.3-1.9-2.8-1-.5-1.9-.1-1.9.9v.3 1.9l3.7 1.9v-1.9c.1-.1.1-.2.1-.3z" opacity=".11"/><path d="m60 32.8c0-.8-.6-1.8-1.4-2.2-.3-.2-.7-.2-.9-.1l-3.7 1.9c-.3.1-.5.4-.5.9 0 .8.6 1.8 1.4 2.2.3.2.6.2.9.1l3.7-1.9c.3-.1.5-.4.5-.9z" fill="#656565"/><path d="m56.7 34.9c0-1-.8-2.3-1.9-2.8-1-.5-1.8-.1-1.8.9v.3 1.9l3.7 1.9v-1.9c0-.2 0-.2 0-.3z" fill="#999"/><path d="m56.7 34.9c0-1-.8-2.3-1.9-2.8-1-.5-1.8-.1-1.8.9v.3 1.9l3.7 1.9v-1.9c0-.2 0-.2 0-.3z" opacity=".11"/><path d="m30 36-6 3v2l4 2 6-3v-2z" fill="#999"/><path d="m28 43-4-2v-2l4 2z" opacity=".11"/><path d="m34 40-6 3v-2l6-3z" opacity=".29"/><path d="m61 49-10 5v2l8 4 10-5v-2z" fill="#999"/><path d="m59 60-8-4v-2l8 4z" opacity=".11"/><path d="m69 55-10 5v-2l10-5z" opacity=".29"/><path d="m102 48-8 4v2l4 2 8-4v-2z" fill="#999"/><path d="m98 56-4-2v-2l4 2z" opacity=".11"/><path d="m106 52-8 4v-2l8-4z" opacity=".29"/><path d="m55 71-8 4v2l4 2 8-4v-2z" fill="#999"/><path d="m51 79-4-2v-2l4 2z" opacity=".11"/><path d="m59 75-8 4v-2l8-4z" opacity=".29"/><path d="m492 307 8 55 10 5 2-1v-49z" fill="#39c"/><path d="m492 307 8 55 10 5v-51z" opacity=".11"/><path d="m510 367 2-1v-50h-2z" opacity=".29"/><path d="m550 243-96 48v12l2 1 96-48v-12z" fill="#999"/><path d="m456 304-2-1v-12l2 1z" opacity=".11"/><path d="m552 256-96 48v-12l96-48z" opacity=".29"/><path d="m456 304-80-40h-8l-320-160-8-8v-5l-8-4-7.9-4c-12.7-7.2-22.2-14.8-24-23-.1-.1-.1 4.8-.1 4.6 1.5 14.3 9.5 39.5 27 54.4 4.9 4.2 12.1 8.6 13 9l416 208c31.4-5.2 60.9-18.8 85.4-39.2l10.6-8.8v-32z" fill="#cc291f"/><path d="m456 336c31.4-5.2 60.9-18.8 85.4-39.2l10.6-8.8v-32l-96 48z" opacity=".29"/><path d="m376 264h-8l-320-160-8-8v-5l-8-4-7.9-4c-12.7-7.2-22.2-14.8-24-23-.1-.1-.1 4.8-.1 4.6 1.5 14.3 9.5 39.5 27 54.4 4.9 4.2 12.1 8.6 13 9l416 208v-32z" opacity=".11"/><path d="m54 107 2 1 96-48-2-1z" opacity=".15"/><path d="m230 195 2 1 96-48-2-1z" opacity=".15"/><path d="m246 203 2 1 96-48-2-1z" opacity=".15"/><path d="m310 235 2 1 96-48-2-1z" opacity=".15"/><path d="m294 227 2 1 96-48-2-1z" opacity=".15"/><path d="m102 131 2 1 96-48-2-1z" opacity=".15"/><path d="m118 139 2 1 96-48-2-1z" opacity=".15"/><path d="m182 171 2 1 96-48-2-1z" opacity=".15"/><path d="m166 163 2 1 96-48-2-1z" opacity=".15"/><path d="m358 259 2 1 96-48-2-1z" opacity=".15"/><path d="m270 183 50-25 50 25v8l-50 25-50-25z" fill="#999"/><path d="m296 170-2 1 50 25 2-1z" opacity=".2"/><path d="m270 187v1l50 25 50-25v-1l-50 25z" opacity=".2"/><path d="m320 216-50-25v-8l50 25z" opacity=".11"/><path d="m320 216 50-25v-8l-50 25z" opacity=".29"/><path d="m318 212v3l-2-1v-3z" opacity=".2"/><path d="m314 210v3l-2-1v-3z" opacity=".2"/><path d="m310 208v3l-2-1v-3z" opacity=".2"/><path d="m306 206v3l-2-1v-3z" opacity=".2"/><path d="m302 204v3l-2-1v-3z" opacity=".2"/><path d="m298 202v3l-2-1v-3z" opacity=".2"/><path d="m294 200v3l-2-1v-3z" opacity=".2"/><path d="m290 198v3l-2-1v-3z" opacity=".2"/><path d="m286 196v3l-2-1v-3z" opacity=".2"/><path d="m282 194v3l-2-1v-3z" opacity=".2"/><path d="m278 192v3l-2-1v-3z" opacity=".2"/><path d="m274 190v3l-2-1v-3z" opacity=".2"/><path d="m322 212v3l2-1v-3z" opacity=".2"/><path d="m326 210v3l2-1v-3z" opacity=".2"/><path d="m330 208v3l2-1v-3z" opacity=".2"/><path d="m334 206v3l2-1v-3z" opacity=".2"/><path d="m338 204v3l2-1v-3z" opacity=".2"/><path d="m342 202v3l2-1v-3z" opacity=".2"/><path d="m346 200v3l2-1v-3z" opacity=".2"/><path d="m350 198v3l2-1v-3z" opacity=".2"/><path d="m354 196v3l2-1v-3z" opacity=".2"/><path d="m358 194v3l2-1v-3z" opacity=".2"/><path d="m362 192v3l2-1v-3z" opacity=".2"/><path d="m366 190v3l2-1v-3z" opacity=".2"/><path d="m334 215 50-25 50 25v8l-50 25-50-25z" fill="#999"/><path d="m360 202-2 1 50 25 2-1z" opacity=".2"/><path d="m334 219v1l50 25 50-25v-1l-50 25z" opacity=".2"/><path d="m384 248-50-25v-8l50 25z" opacity=".11"/><path d="m384 248 50-25v-8l-50 25z" opacity=".29"/><path d="m382 244v3l-2-1v-3z" opacity=".2"/><path d="m378 242v3l-2-1v-3z" opacity=".2"/><path d="m374 240v3l-2-1v-3z" opacity=".2"/><path d="m370 238v3l-2-1v-3z" opacity=".2"/><path d="m366 236v3l-2-1v-3z" opacity=".2"/><path d="m362 234v3l-2-1v-3z" opacity=".2"/><path d="m358 232v3l-2-1v-3z" opacity=".2"/><path d="m354 230v3l-2-1v-3z" opacity=".2"/><path d="m350 228v3l-2-1v-3z" opacity=".2"/><path d="m346 226v3l-2-1v-3z" opacity=".2"/><path d="m342 224v3l-2-1v-3z" opacity=".2"/><path d="m338 222v3l-2-1v-3z" opacity=".2"/><path d="m386 244v3l2-1v-3z" opacity=".2"/><path d="m390 242v3l2-1v-3z" opacity=".2"/><path d="m394 240v3l2-1v-3z" opacity=".2"/><path d="m398 238v3l2-1v-3z" opacity=".2"/><path d="m402 236v3l2-1v-3z" opacity=".2"/><path d="m406 234v3l2-1v-3z" opacity=".2"/><path d="m410 232v3l2-1v-3z" opacity=".2"/><path d="m414 230v3l2-1v-3z" opacity=".2"/><path d="m418 228v3l2-1v-3z" opacity=".2"/><path d="m422 226v3l2-1v-3z" opacity=".2"/><path d="m426 224v3l2-1v-3z" opacity=".2"/><path d="m430 222v3l2-1v-3z" opacity=".2"/><path d="m142 119 50-25 50 25v8l-50 25-50-25z" fill="#999"/><path d="m168 106-2 1 50 25 2-1z" opacity=".2"/><path d="m142 123v1l50 25 50-25v-1l-50 25z" opacity=".2"/><path d="m192 152-50-25v-8l50 25z" opacity=".11"/><path d="m192 152 50-25v-8l-50 25z" opacity=".29"/><path d="m190 148v3l-2-1v-3z" opacity=".2"/><path d="m186 146v3l-2-1v-3z" opacity=".2"/><path d="m182 144v3l-2-1v-3z" opacity=".2"/><path d="m178 142v3l-2-1v-3z" opacity=".2"/><path d="m174 140v3l-2-1v-3z" opacity=".2"/><path d="m170 138v3l-2-1v-3z" opacity=".2"/><path d="m166 136v3l-2-1v-3z" opacity=".2"/><path d="m162 134v3l-2-1v-3z" opacity=".2"/><path d="m158 132v3l-2-1v-3z" opacity=".2"/><path d="m154 130v3l-2-1v-3z" opacity=".2"/><path d="m150 128v3l-2-1v-3z" opacity=".2"/><path d="m146 126v3l-2-1v-3z" opacity=".2"/><path d="m194 148v3l2-1v-3z" opacity=".2"/><path d="m198 146v3l2-1v-3z" opacity=".2"/><path d="m202 144v3l2-1v-3z" opacity=".2"/><path d="m206 142v3l2-1v-3z" opacity=".2"/><path d="m210 140v3l2-1v-3z" opacity=".2"/><path d="m214 138v3l2-1v-3z" opacity=".2"/><path d="m218 136v3l2-1v-3z" opacity=".2"/><path d="m222 134v3l2-1v-3z" opacity=".2"/><path d="m226 132v3l2-1v-3z" opacity=".2"/><path d="m230 130v3l2-1v-3z" opacity=".2"/><path d="m234 128v3l2-1v-3z" opacity=".2"/><path d="m238 126v3l2-1v-3z" opacity=".2"/><path d="m206 151 50-25 50 25v8l-50 25-50-25z" fill="#999"/><path d="m232 138-2 1 50 25 2-1z" opacity=".2"/><path d="m206 155v1l50 25 50-25v-1l-50 25z" opacity=".2"/><path d="m256 184-50-25v-8l50 25z" opacity=".11"/><path d="m256 184 50-25v-8l-50 25z" opacity=".29"/><path d="m254 180v3l-2-1v-3z" opacity=".2"/><path d="m250 178v3l-2-1v-3z" opacity=".2"/><path d="m246 176v3l-2-1v-3z" opacity=".2"/><path d="m242 174v3l-2-1v-3z" opacity=".2"/><path d="m238 172v3l-2-1v-3z" opacity=".2"/><path d="m234 170v3l-2-1v-3z" opacity=".2"/><path d="m230 168v3l-2-1v-3z" opacity=".2"/><path d="m226 166v3l-2-1v-3z" opacity=".2"/><path d="m222 164v3l-2-1v-3z" opacity=".2"/><path d="m218 162v3l-2-1v-3z" opacity=".2"/><path d="m214 160v3l-2-1v-3z" opacity=".2"/><path d="m210 158v3l-2-1v-3z" opacity=".2"/><path d="m258 180v3l2-1v-3z" opacity=".2"/><path d="m262 178v3l2-1v-3z" opacity=".2"/><path d="m266 176v3l2-1v-3z" opacity=".2"/><path d="m270 174v3l2-1v-3z" opacity=".2"/><path d="m274 172v3l2-1v-3z" opacity=".2"/><path d="m278 170v3l2-1v-3z" opacity=".2"/><path d="m282 168v3l2-1v-3z" opacity=".2"/><path d="m286 166v3l2-1v-3z" opacity=".2"/><path d="m290 164v3l2-1v-3z" opacity=".2"/><path d="m294 162v3l2-1v-3z" opacity=".2"/><path d="m298 160v3l2-1v-3z" opacity=".2"/><path d="m302 158v3l2-1v-3z" opacity=".2"/><path d="m78 87 50-25 50 25v8l-50 25-50-25z" fill="#999"/><path d="m104 74-2 1 50 25 2-1z" opacity=".2"/><path d="m78 91v1l50 25 50-25v-1l-50 25z" opacity=".2"/><path d="m128 120-50-25v-8l50 25z" opacity=".11"/><path d="m128 120 50-25v-8l-50 25z" opacity=".29"/><path d="m126 116v3l-2-1v-3z" opacity=".2"/><path d="m122 114v3l-2-1v-3z" opacity=".2"/><path d="m118 112v3l-2-1v-3z" opacity=".2"/><path d="m114 110v3l-2-1v-3z" opacity=".2"/><path d="m110 108v3l-2-1v-3z" opacity=".2"/><path d="m106 106v3l-2-1v-3z" opacity=".2"/><path d="m102 104v3l-2-1v-3z" opacity=".2"/><path d="m98 102v3l-2-1v-3z" opacity=".2"/><path d="m94 100v3l-2-1v-3z" opacity=".2"/><path d="m90 98v3l-2-1v-3z" opacity=".2"/><path d="m86 96v3l-2-1v-3z" opacity=".2"/><path d="m82 94v3l-2-1v-3z" opacity=".2"/><path d="m130 116v3l2-1v-3z" opacity=".2"/><path d="m134 114v3l2-1v-3z" opacity=".2"/><path d="m138 112v3l2-1v-3z" opacity=".2"/><path d="m142 110v3l2-1v-3z" opacity=".2"/><path d="m146 108v3l2-1v-3z" opacity=".2"/><path d="m150 106v3l2-1v-3z" opacity=".2"/><path d="m154 104v3l2-1v-3z" opacity=".2"/><path d="m158 102v3l2-1v-3z" opacity=".2"/><path d="m162 100v3l2-1v-3z" opacity=".2"/><path d="m166 98v3l2-1v-3z" opacity=".2"/><path d="m170 96v3l2-1v-3z" opacity=".2"/><path d="m174 94v3l2-1v-3z" opacity=".2"/><path d="m488 156-96 48v4l16 8v48l24 12 64-32v-56l16-16v-4z" fill="#e5e5e5"/><path d="m488 158 20 10-92 46-20-10z" opacity=".2"/><path d="m507 168.5 1-.5-20-10v1z" opacity=".11"/><path d="m488 158-92 46 1 .5 91-45.5z" opacity=".29"/><path d="m456 160-32 16v12l16 8 32-16v-12z" fill="#e5e5e5"/><path d="m440 196-16-8v-12l16 8z" opacity=".11"/><path d="m456 162 12 6-28 14-12-6z" opacity=".2"/><path d="m422 226v6l4 2v-6zm-8 2 4 2v-6l-4-2zm8 16 4 2v-6l-4-2zm-8-4 4 2v-6l-4-2z" fill="#2d3134"/><path d="m416 216v4h16v56l64-32v-56l16-16v-4z" opacity=".29"/><path d="m472 180-32 16v-12l32-16z" opacity=".29"/><path d="m416 220-24-12v-4l24 12z" opacity=".11"/><path d="m408 216v48l24 12v-56h-16z" opacity=".11"/><path d="m467 168.5 1-.5-12-6v1z" opacity=".11"/><path d="m456 162-28 14 1 .5 27-13.5z" opacity=".29"/><path d="m448 152c-.1 0-.3.1-.3.1l-.8 21.2c0 .3.4.5 1 .5s1-.2 1-.5l-.8-21.2c.2 0 0-.1-.1-.1z" fill="#e5e5e5"/><path d="m452.8 158.7-9.1 4.6c-.3.1-.6-.1-.6-.4 0-.2.1-.3.2-.4l9.1-4.6c.3-.1.6.1.6.4 0 .1-.1.3-.2.4z" fill="#e5e5e5"/><path d="m451.9 154.1-7.4 3.7c-.2.1-.5-.1-.5-.3 0-.1.1-.3.2-.3l7.4-3.7c.2-.1.5.1.5.3 0 .1-.1.2-.2.3z" fill="#e5e5e5"/><path d="m477 198-24 12v56l24 12 24-12-8-60z" fill="#cc291f"/><path d="m474.3 257.6 24-11.9-3.4-25.6-23.9 11.9-18-9v24z" fill="#e5e5e5"/><path d="m501 266-24 12-8-60 24-12z" opacity=".29"/><path d="m477 278-24-12v-56l16 8z" opacity=".11"/><path d="m457 210 12 6 8-4v-12z" opacity=".29"/><path d="m477 200v12l12-6z" opacity=".11"/></svg>