<svg enable-background="new 0 0 80 64" viewBox="0 0 80 64" xmlns="http://www.w3.org/2000/svg"><path d="m60 59 14-7 4 2v2l-14 7-4-2z" fill="#656565"/><path d="m64 63-4-2v-2l4 2z" opacity=".11"/><path d="m64 63 14-7v-2l-14 7z" opacity=".29"/><path d="m2 30 14-7 4 2v2l-14 7-4-2z" fill="#656565"/><path d="m6 34-4-2v-2l4 2z" opacity=".11"/><path d="m6 34 14-7v-2l-14 7z" opacity=".29"/><path d="m8 33v-2l2-1 54 27-4 2z" fill="#656565"/><path d="m8 33v-2l54 27-2 1z" opacity=".11"/><path d="m16 29v-2l2-1 54 27-4 2z" fill="#656565"/><path d="m16 29v-2l54 27-2 1z" opacity=".11"/><g fill="#2d3134"><path d="m41 4 1 .5 23 56-1 .5z"/><path d="m41 4 1 .5 36 49.5-1 .5z"/><path d="m35 1v1l-31 27-2 1z"/><path d="m35 1v1l-19 21-2 1z"/></g></svg>