<svg enable-background="new 0 0 544 376" viewBox="0 0 544 376" xmlns="http://www.w3.org/2000/svg"><path d="m191.8 239.9 46.3 23.2c43.8 21.9 89.4 40.2 136.3 54.6 22.4 6.9 44.6 14.5 66.5 22.7 20.7 7.8 41.2 16.1 61.4 25.1l8.4 3.7c10.9 4.8 19.3-10.5 9.3-17l-352-232.2h-168l130.2 84.6c19.8 12.9 40.4 24.7 61.6 35.3z" fill="#39c"/><path d="m191.8 239.9 46.3 23.2c43.8 21.9 89.4 40.2 136.3 54.6 22.4 6.9 44.6 14.5 66.5 22.7 20.7 7.8 41.2 16.1 61.4 25.1l8.4 3.7c10.9 4.8 19.3-10.5 9.3-17l-352-232.2h-168l130.2 84.6c19.8 12.9 40.4 24.7 61.6 35.3z" opacity=".15"/><path d="m510 252v5l-6-1-322-161-10-9-76-38-96 48 76 38 10 9 322 161h8v-5s29.5 18 60 18c37.6 0 68-15.2 68-34 0-14.7-34-31-34-31z" fill="#e5e5e5"/><path d="m384 312-.2-.1c-.2-.1-.1-.1.2.1z"/><path d="m172 86-96 48 10 9 96-48z" opacity=".29"/><path d="m510 252v5s32 15.3 32 30c0 9.1-7.2 17.4-18.9 23.5 12.9-6.2 20.9-17.9 20.9-27.5 0-14.7-34-31-34-31z" opacity=".2"/><path d="m96 36-96 48v12l2 1 96-48v-12z" fill="#e5e5e5"/><path d="m2 97-2-1v-12l2 1z" opacity=".11"/><path d="m98 49-96 48v-12l96-48z" opacity=".29"/><path d="m80 16-24 12-8 52 24 12 24-12v-56z" fill="#06547a"/><path d="m54.3 39.1-3.4 22.3 21.1 10.6 24-12v-24l-24 12z" fill="#e5e5e5"/><path d="m96 80-24 12v-56l24-12z" opacity=".29"/><path d="m72 92-24-12 8-52 16 8z" opacity=".11"/><path d="m60 28 12 6 8-4v-12z" opacity=".29"/><path d="m80 18v12l12-6z" opacity=".11"/><path d="m136 0-96 48v4l16 8v48l24 12 64-32v-56l16-16v-4z" fill="#e5e5e5"/><path d="m136 2 20 10-92 46-20-10z" opacity=".2"/><path d="m155 12.5 1-.5-20-10v1z" opacity=".11"/><path d="m136 2-92 46 1 .5 91-45.5z" opacity=".29"/><path d="m112 8-32 16v12l16 8 32-16v-12z" fill="#e5e5e5"/><path d="m96 44-16-8v-12l16 8z" opacity=".11"/><path d="m112 10 12 6-28 14-12-6z" opacity=".2"/><g fill="#2d3134"><path d="m101 33v4l2-1v-4z"/><path d="m105 31v4l2-1v-4z"/><path d="m109 29v4l2-1v-4z"/><path d="m113 27v4l2-1v-4z"/><path d="m117 25v4l2-1v-4z"/><path d="m121 23v4l2-1v-4z"/><path d="m70 70v6l4 2v-6zm-8 2 4 2v-6l-4-2zm8 16 4 2v-6l-4-2zm-8-4 4 2v-6l-4-2z"/><path d="m94 74 4-2v-6l-4 2z"/><path d="m102 70 4-2v-6l-4 2z"/><path d="m118 62 4-2v-6l-4 2z"/><path d="m126 58 4-2v-6l-4 2z"/><path d="m94 62 4-2v-6l-4 2z"/><path d="m102 58 4-2v-6l-4 2z"/><path d="m110 54 4-2v-6l-4 2z"/><path d="m118 50 4-2v-6l-4 2z"/><path d="m126 40v6l4-2v-6z"/><path d="m94 86 4-2v-6l-4 2z"/><path d="m102 82 4-2v-6l-4 2z"/><path d="m118 74 4-2v-6l-4 2z"/><path d="m126 70 4-2v-6l-4 2z"/></g><path d="m64 60v4h16v56l64-32v-56l16-16v-4z" opacity=".29"/><path d="m128 28-32 16v-12l32-16z" opacity=".29"/><path d="m64 64-24-12v-4l24 12z" opacity=".11"/><path d="m56 60v48l24 12v-56h-16z" opacity=".11"/><path d="m123 16.5 1-.5-12-6v1z" opacity=".11"/><path d="m112 10-28 14 1 .5 27-13.5z" opacity=".29"/><path d="m104 .2c-.1 0-.3.1-.3.1l-.7 21.2c0 .3.4.5 1 .5s1-.2 1-.5l-.8-21.2c.1-.1-.1-.1-.2-.1z" fill="#e5e5e5"/><path d="m108.8 6.8-9.1 4.6c-.4.1-.7-.1-.7-.4 0-.2.1-.3.2-.4l9.1-4.6c.3-.1.6.1.6.4.1.2 0 .4-.1.4z" fill="#e5e5e5"/><path d="m107.9 2.2-7.5 3.8c-.2.1-.5-.1-.5-.3 0-.1.1-.3.2-.3l7.4-3.7c.2-.1.5.1.5.3.1.1 0 .2-.1.2z" fill="#e5e5e5"/><path d="m504 256-96 48h8l94-47z" opacity=".2"/><path d="m16 94c-1.1 0-2 .4-2 1v6c0 .6.9 1 2 1s2-.4 2-1v-6c0-.6-.9-1-2-1z" fill="#e5e5e5"/><path d="m16 96c-1.1 0-2-.4-2-1v6c0 .6.9 1 2 1s2-.4 2-1v-6c0 .6-.9 1-2 1z" opacity=".2"/><path d="m8 90c-1.1 0-2 .4-2 1v6c0 .6.9 1 2 1s2-.4 2-1v-6c0-.6-.9-1-2-1z" fill="#e5e5e5"/><path d="m8 92c-1.1 0-2-.4-2-1v6c0 .6.9 1 2 1s2-.4 2-1v-6c0 .6-.9 1-2 1z" opacity=".2"/><path d="m32 102c-1.1 0-2 .4-2 1v6c0 .6.9 1 2 1s2-.4 2-1v-6c0-.6-.9-1-2-1z" fill="#e5e5e5"/><path d="m32 104c-1.1 0-2-.4-2-1v6c0 .6.9 1 2 1s2-.4 2-1v-6c0 .6-.9 1-2 1z" opacity=".2"/><path d="m48 110c-1.1 0-2 .4-2 1v6c0 .6.9 1 2 1s2-.4 2-1v-6c0-.6-.9-1-2-1z" fill="#e5e5e5"/><path d="m48 112c-1.1 0-2-.4-2-1v6c0 .6.9 1 2 1s2-.4 2-1v-6c0 .6-.9 1-2 1z" opacity=".2"/><path d="m64 118c-1.1 0-2 .4-2 1v6c0 .6.9 1 2 1s2-.4 2-1v-6c0-.6-.9-1-2-1z" fill="#e5e5e5"/><path d="m64 120c-1.1 0-2-.4-2-1v6c0 .6.9 1 2 1s2-.4 2-1v-6c0 .6-.9 1-2 1z" opacity=".2"/><path d="m24 98c-1.1 0-2 .4-2 1v6c0 .6.9 1 2 1s2-.4 2-1v-6c0-.6-.9-1-2-1z" fill="#e5e5e5"/><path d="m24 100c-1.1 0-2-.4-2-1v6c0 .6.9 1 2 1s2-.4 2-1v-6c0 .6-.9 1-2 1z" opacity=".2"/><path d="m40 106c-1.1 0-2 .4-2 1v6c0 .6.9 1 2 1s2-.4 2-1v-6c0-.6-.9-1-2-1z" fill="#e5e5e5"/><path d="m40 108c-1.1 0-2-.4-2-1v6c0 .6.9 1 2 1s2-.4 2-1v-6c0 .6-.9 1-2 1z" opacity=".2"/><path d="m56 114c-1.1 0-2 .4-2 1v6c0 .6.9 1 2 1s2-.4 2-1v-6c0-.6-.9-1-2-1z" fill="#e5e5e5"/><path d="m56 116c-1.1 0-2-.4-2-1v6c0 .6.9 1 2 1s2-.4 2-1v-6c0 .6-.9 1-2 1z" opacity=".2"/><path d="m72 122c-1.1 0-2 .4-2 1v6c0 .6.9 1 2 1s2-.4 2-1v-6c0-.6-.9-1-2-1z" fill="#e5e5e5"/><path d="m72 124c-1.1 0-2-.4-2-1v6c0 .6.9 1 2 1s2-.4 2-1v-6c0 .6-.9 1-2 1z" opacity=".2"/><path d="m156 74c-1.1 0-2 .4-2 1v6c0 .6.9 1 2 1s2-.4 2-1v-6c0-.6-.9-1-2-1z" fill="#e5e5e5"/><path d="m156 76c-1.1 0-2-.4-2-1v6c0 .6.9 1 2 1s2-.4 2-1v-6c0 .6-.9 1-2 1z" opacity=".2"/><path d="m148 70c-1.1 0-2 .4-2 1v6c0 .6.9 1 2 1s2-.4 2-1v-6c0-.6-.9-1-2-1z" fill="#e5e5e5"/><path d="m148 72c-1.1 0-2-.4-2-1v6c0 .6.9 1 2 1s2-.4 2-1v-6c0 .6-.9 1-2 1z" opacity=".2"/><path d="m164 78c-1.1 0-2 .4-2 1v6c0 .6.9 1 2 1s2-.4 2-1v-6c0-.6-.9-1-2-1z" fill="#e5e5e5"/><path d="m164 80c-1.1 0-2-.4-2-1v6c0 .6.9 1 2 1s2-.4 2-1v-6c0 .6-.9 1-2 1z" opacity=".2"/><path d="m118 159 2 1 96-48-2-1z" opacity=".15"/><path d="m150 175 2 1 96-48-2-1z" opacity=".15"/><path d="m182 191 2 1 96-48-2-1z" opacity=".15"/><path d="m214 207 2 1 96-48-2-1z" opacity=".15"/><path d="m246 223 2 1 96-48-2-1z" opacity=".15"/><path d="m278 239 2 1 96-48-2-1z" opacity=".15"/><path d="m310 255 2 1 96-48-2-1z" opacity=".15"/><path d="m342 271 2 1 96-48-2-1z" opacity=".15"/><path d="m374 287 2 1 96-48-2-1z" opacity=".15"/><path d="m104 121-14 7v15l30 15 14-7v-15z" fill="#f90"/><path d="m90 128v15l30 15v-15z" opacity=".11"/><path d="m134 136v15l-14 7v-15z" opacity=".29"/><path d="m93 131.5-1-.5v11l1 .5z" opacity=".15"/><path d="m95 132.5-1-.5v11l1 .5z" opacity=".15"/><path d="m97 133.5-1-.5v11l1 .5z" opacity=".15"/><path d="m99 134.5-1-.5v11l1 .5z" opacity=".15"/><path d="m101 135.5-1-.5v11l1 .5z" opacity=".15"/><path d="m103 136.5-1-.5v11l1 .5z" opacity=".15"/><path d="m105 137.5-1-.5v11l1 .5z" opacity=".15"/><path d="m107 138.5-1-.5v11l1 .5z" opacity=".15"/><path d="m109 139.5-1-.5v11l1 .5z" opacity=".15"/><path d="m111 140.5-1-.5v11l1 .5z" opacity=".15"/><path d="m113 141.5-1-.5v11l1 .5z" opacity=".15"/><path d="m115 142.5-1-.5v11l1 .5z" opacity=".15"/><path d="m117 143.5-1-.5v11l1 .5z" opacity=".15"/><path d="m119 144.5-1-.5v11l1 .5z" opacity=".15"/><path d="m136 137-14 7v15l30 15 14-7v-15z" fill="#fc0"/><path d="m122 144v15l30 15v-15z" opacity=".11"/><path d="m166 152v15l-14 7v-15z" opacity=".29"/><path d="m125 147.5-1-.5v11l1 .5z" opacity=".15"/><path d="m127 148.5-1-.5v11l1 .5z" opacity=".15"/><path d="m129 149.5-1-.5v11l1 .5z" opacity=".15"/><path d="m131 150.5-1-.5v11l1 .5z" opacity=".15"/><path d="m133 151.5-1-.5v11l1 .5z" opacity=".15"/><path d="m135 152.5-1-.5v11l1 .5z" opacity=".15"/><path d="m137 153.5-1-.5v11l1 .5z" opacity=".15"/><path d="m139 154.5-1-.5v11l1 .5z" opacity=".15"/><path d="m141 155.5-1-.5v11l1 .5z" opacity=".15"/><path d="m143 156.5-1-.5v11l1 .5z" opacity=".15"/><path d="m145 157.5-1-.5v11l1 .5z" opacity=".15"/><path d="m147 158.5-1-.5v11l1 .5z" opacity=".15"/><path d="m149 159.5-1-.5v11l1 .5z" opacity=".15"/><path d="m151 160.5-1-.5v11l1 .5z" opacity=".15"/><path d="m168 153-14 7v15l30 15 14-7v-15z" fill="#fc0"/><path d="m154 160v15l30 15v-15z" opacity=".11"/><path d="m198 168v15l-14 7v-15z" opacity=".29"/><path d="m157 163.5-1-.5v11l1 .5z" opacity=".15"/><path d="m159 164.5-1-.5v11l1 .5z" opacity=".15"/><path d="m161 165.5-1-.5v11l1 .5z" opacity=".15"/><path d="m163 166.5-1-.5v11l1 .5z" opacity=".15"/><path d="m165 167.5-1-.5v11l1 .5z" opacity=".15"/><path d="m167 168.5-1-.5v11l1 .5z" opacity=".15"/><path d="m169 169.5-1-.5v11l1 .5z" opacity=".15"/><path d="m171 170.5-1-.5v11l1 .5z" opacity=".15"/><path d="m173 171.5-1-.5v11l1 .5z" opacity=".15"/><path d="m175 172.5-1-.5v11l1 .5z" opacity=".15"/><path d="m177 173.5-1-.5v11l1 .5z" opacity=".15"/><path d="m179 174.5-1-.5v11l1 .5z" opacity=".15"/><path d="m181 175.5-1-.5v11l1 .5z" opacity=".15"/><path d="m183 176.5-1-.5v11l1 .5z" opacity=".15"/><path d="m200 169-14 7v15l30 15 14-7v-15z" fill="#f90"/><path d="m186 176v15l30 15v-15z" opacity=".11"/><path d="m230 184v15l-14 7v-15z" opacity=".29"/><path d="m189 179.5-1-.5v11l1 .5z" opacity=".15"/><path d="m191 180.5-1-.5v11l1 .5z" opacity=".15"/><path d="m193 181.5-1-.5v11l1 .5z" opacity=".15"/><path d="m195 182.5-1-.5v11l1 .5z" opacity=".15"/><path d="m197 183.5-1-.5v11l1 .5z" opacity=".15"/><path d="m199 184.5-1-.5v11l1 .5z" opacity=".15"/><path d="m201 185.5-1-.5v11l1 .5z" opacity=".15"/><path d="m203 186.5-1-.5v11l1 .5z" opacity=".15"/><path d="m205 187.5-1-.5v11l1 .5z" opacity=".15"/><path d="m207 188.5-1-.5v11l1 .5z" opacity=".15"/><path d="m209 189.5-1-.5v11l1 .5z" opacity=".15"/><path d="m211 190.5-1-.5v11l1 .5z" opacity=".15"/><path d="m213 191.5-1-.5v11l1 .5z" opacity=".15"/><path d="m215 192.5-1-.5v11l1 .5z" opacity=".15"/><path d="m232 185-14 7v15l30 15 14-7v-15z" fill="#539b00"/><path d="m218 192v15l30 15v-15z" opacity=".11"/><path d="m262 200v15l-14 7v-15z" opacity=".29"/><path d="m221 195.5-1-.5v11l1 .5z" opacity=".15"/><path d="m223 196.5-1-.5v11l1 .5z" opacity=".15"/><path d="m225 197.5-1-.5v11l1 .5z" opacity=".15"/><path d="m227 198.5-1-.5v11l1 .5z" opacity=".15"/><path d="m229 199.5-1-.5v11l1 .5z" opacity=".15"/><path d="m231 200.5-1-.5v11l1 .5z" opacity=".15"/><path d="m233 201.5-1-.5v11l1 .5z" opacity=".15"/><path d="m235 202.5-1-.5v11l1 .5z" opacity=".15"/><path d="m237 203.5-1-.5v11l1 .5z" opacity=".15"/><path d="m239 204.5-1-.5v11l1 .5z" opacity=".15"/><path d="m241 205.5-1-.5v11l1 .5z" opacity=".15"/><path d="m243 206.5-1-.5v11l1 .5z" opacity=".15"/><path d="m245 207.5-1-.5v11l1 .5z" opacity=".15"/><path d="m247 208.5-1-.5v11l1 .5z" opacity=".15"/><path d="m264 201-14 7v15l30 15 14-7v-15z" fill="#f90"/><path d="m250 208v15l30 15v-15z" opacity=".11"/><path d="m294 216v15l-14 7v-15z" opacity=".29"/><path d="m253 211.5-1-.5v11l1 .5z" opacity=".15"/><path d="m255 212.5-1-.5v11l1 .5z" opacity=".15"/><path d="m257 213.5-1-.5v11l1 .5z" opacity=".15"/><path d="m259 214.5-1-.5v11l1 .5z" opacity=".15"/><path d="m261 215.5-1-.5v11l1 .5z" opacity=".15"/><path d="m263 216.5-1-.5v11l1 .5z" opacity=".15"/><path d="m265 217.5-1-.5v11l1 .5z" opacity=".15"/><path d="m267 218.5-1-.5v11l1 .5z" opacity=".15"/><path d="m269 219.5-1-.5v11l1 .5z" opacity=".15"/><path d="m271 220.5-1-.5v11l1 .5z" opacity=".15"/><path d="m273 221.5-1-.5v11l1 .5z" opacity=".15"/><path d="m275 222.5-1-.5v11l1 .5z" opacity=".15"/><path d="m277 223.5-1-.5v11l1 .5z" opacity=".15"/><path d="m279 224.5-1-.5v11l1 .5z" opacity=".15"/><path d="m296 217-14 7v15l30 15 14-7v-15z" fill="#f90"/><path d="m282 224v15l30 15v-15z" opacity=".11"/><path d="m326 232v15l-14 7v-15z" opacity=".29"/><path d="m285 227.5-1-.5v11l1 .5z" opacity=".15"/><path d="m287 228.5-1-.5v11l1 .5z" opacity=".15"/><path d="m289 229.5-1-.5v11l1 .5z" opacity=".15"/><path d="m291 230.5-1-.5v11l1 .5z" opacity=".15"/><path d="m293 231.5-1-.5v11l1 .5z" opacity=".15"/><path d="m295 232.5-1-.5v11l1 .5z" opacity=".15"/><path d="m297 233.5-1-.5v11l1 .5z" opacity=".15"/><path d="m299 234.5-1-.5v11l1 .5z" opacity=".15"/><path d="m301 235.5-1-.5v11l1 .5z" opacity=".15"/><path d="m303 236.5-1-.5v11l1 .5z" opacity=".15"/><path d="m305 237.5-1-.5v11l1 .5z" opacity=".15"/><path d="m307 238.5-1-.5v11l1 .5z" opacity=".15"/><path d="m309 239.5-1-.5v11l1 .5z" opacity=".15"/><path d="m311 240.5-1-.5v11l1 .5z" opacity=".15"/><path d="m328 233-14 7v15l30 15 14-7v-15z" fill="#539b00"/><path d="m314 240v15l30 15v-15z" opacity=".11"/><path d="m358 248v15l-14 7v-15z" opacity=".29"/><path d="m317 243.5-1-.5v11l1 .5z" opacity=".15"/><path d="m319 244.5-1-.5v11l1 .5z" opacity=".15"/><path d="m321 245.5-1-.5v11l1 .5z" opacity=".15"/><path d="m323 246.5-1-.5v11l1 .5z" opacity=".15"/><path d="m325 247.5-1-.5v11l1 .5z" opacity=".15"/><path d="m327 248.5-1-.5v11l1 .5z" opacity=".15"/><path d="m329 249.5-1-.5v11l1 .5z" opacity=".15"/><path d="m331 250.5-1-.5v11l1 .5z" opacity=".15"/><path d="m333 251.5-1-.5v11l1 .5z" opacity=".15"/><path d="m335 252.5-1-.5v11l1 .5z" opacity=".15"/><path d="m337 253.5-1-.5v11l1 .5z" opacity=".15"/><path d="m339 254.5-1-.5v11l1 .5z" opacity=".15"/><path d="m341 255.5-1-.5v11l1 .5z" opacity=".15"/><path d="m343 256.5-1-.5v11l1 .5z" opacity=".15"/><path d="m360 249-14 7v15l30 15 14-7v-15z" fill="#f90"/><path d="m346 256v15l30 15v-15z" opacity=".11"/><path d="m390 264v15l-14 7v-15z" opacity=".29"/><path d="m349 259.5-1-.5v11l1 .5z" opacity=".15"/><path d="m351 260.5-1-.5v11l1 .5z" opacity=".15"/><path d="m353 261.5-1-.5v11l1 .5z" opacity=".15"/><path d="m355 262.5-1-.5v11l1 .5z" opacity=".15"/><path d="m357 263.5-1-.5v11l1 .5z" opacity=".15"/><path d="m359 264.5-1-.5v11l1 .5z" opacity=".15"/><path d="m361 265.5-1-.5v11l1 .5z" opacity=".15"/><path d="m363 266.5-1-.5v11l1 .5z" opacity=".15"/><path d="m365 267.5-1-.5v11l1 .5z" opacity=".15"/><path d="m367 268.5-1-.5v11l1 .5z" opacity=".15"/><path d="m369 269.5-1-.5v11l1 .5z" opacity=".15"/><path d="m371 270.5-1-.5v11l1 .5z" opacity=".15"/><path d="m373 271.5-1-.5v11l1 .5z" opacity=".15"/><path d="m375 272.5-1-.5v11l1 .5z" opacity=".15"/><path d="m472 225-14 7v15l30 15 14-7v-15z" fill="#fc0"/><path d="m458 232v15l30 15v-15z" opacity=".11"/><path d="m502 240v15l-14 7v-15z" opacity=".29"/><path d="m500 254-4 2v-11l4-2z" opacity=".15"/><path d="m494 257-4 2v-11l4-2z" opacity=".15"/><path d="m456 233-14 7v15l30 15 14-7v-15z" fill="#539b00"/><path d="m442 240v15l30 15v-15z" opacity=".11"/><path d="m486 248v15l-14 7v-15z" opacity=".29"/><path d="m484 262-4 2v-11l4-2z" opacity=".15"/><path d="m478 265-4 2v-11l4-2z" opacity=".15"/><path d="m440 241-14 7v15l30 15 14-7v-15z" fill="#fc0"/><path d="m426 248v15l30 15v-15z" opacity=".11"/><path d="m470 256v15l-14 7v-15z" opacity=".29"/><path d="m468 270-4 2v-11l4-2z" opacity=".15"/><path d="m462 273-4 2v-11l4-2z" opacity=".15"/><path d="m424 249-14 7v15l30 15 14-7v-15z" fill="#f90"/><path d="m410 256v15l30 15v-15z" opacity=".11"/><path d="m454 264v15l-14 7v-15z" opacity=".29"/><path d="m452 278-4 2v-11l4-2z" opacity=".15"/><path d="m446 281-4 2v-11l4-2z" opacity=".15"/><path d="m408 257-14 7v15l30 15 14-7v-15z" fill="#539b00"/><path d="m394 264v15l30 15v-15z" opacity=".11"/><path d="m438 272v15l-14 7v-15z" opacity=".29"/><path d="m436 286-4 2v-11l4-2z" opacity=".15"/><path d="m430 289-4 2v-11l4-2z" opacity=".15"/><path d="m392 265-14 7v15l30 15 14-7v-15z" fill="#539b00"/><path d="m378 272v15l30 15v-15z" opacity=".11"/><path d="m422 280v15l-14 7v-15z" opacity=".29"/><path d="m420 294-4 2v-11l4-2z" opacity=".15"/><path d="m414 297-4 2v-11l4-2z" opacity=".15"/><path d="m381 275.5-1-.5v11l1 .5z" opacity=".15"/><path d="m383 276.5-1-.5v11l1 .5z" opacity=".15"/><path d="m385 277.5-1-.5v11l1 .5z" opacity=".15"/><path d="m387 278.5-1-.5v11l1 .5z" opacity=".15"/><path d="m389 279.5-1-.5v11l1 .5z" opacity=".15"/><path d="m391 280.5-1-.5v11l1 .5z" opacity=".15"/><path d="m393 281.5-1-.5v11l1 .5z" opacity=".15"/><path d="m395 282.5-1-.5v11l1 .5z" opacity=".15"/><path d="m397 283.5-1-.5v11l1 .5z" opacity=".15"/><path d="m399 284.5-1-.5v11l1 .5z" opacity=".15"/><path d="m401 285.5-1-.5v11l1 .5z" opacity=".15"/><path d="m403 286.5-1-.5v11l1 .5z" opacity=".15"/><path d="m405 287.5-1-.5v11l1 .5z" opacity=".15"/><path d="m407 288.5-1-.5v11l1 .5z" opacity=".15"/><path d="m376 225-14 7v15l30 15 14-7v-15z" fill="#f90"/><path d="m362 232v15l30 15v-15z" opacity=".11"/><path d="m406 240v15l-14 7v-15z" opacity=".29"/><path d="m404 254-4 2v-11l4-2z" opacity=".15"/><path d="m398 257-4 2v-11l4-2z" opacity=".15"/><path d="m104 105-14 7v15l30 15 14-7v-15z" fill="#539b00"/><path d="m90 112v15l30 15v-15z" opacity=".11"/><path d="m134 120v15l-14 7v-15z" opacity=".29"/><path d="m93 115.5-1-.5v11l1 .5z" opacity=".15"/><path d="m95 116.5-1-.5v11l1 .5z" opacity=".15"/><path d="m97 117.5-1-.5v11l1 .5z" opacity=".15"/><path d="m99 118.5-1-.5v11l1 .5z" opacity=".15"/><path d="m101 119.5-1-.5v11l1 .5z" opacity=".15"/><path d="m103 120.5-1-.5v11l1 .5z" opacity=".15"/><path d="m105 121.5-1-.5v11l1 .5z" opacity=".15"/><path d="m107 122.5-1-.5v11l1 .5z" opacity=".15"/><path d="m109 123.5-1-.5v11l1 .5z" opacity=".15"/><path d="m111 124.5-1-.5v11l1 .5z" opacity=".15"/><path d="m113 125.5-1-.5v11l1 .5z" opacity=".15"/><path d="m115 126.5-1-.5v11l1 .5z" opacity=".15"/><path d="m117 127.5-1-.5v11l1 .5z" opacity=".15"/><path d="m119 128.5-1-.5v11l1 .5z" opacity=".15"/><path d="m136 121-14 7v15l30 15 14-7v-15z" fill="#f90"/><path d="m122 128v15l30 15v-15z" opacity=".11"/><path d="m166 136v15l-14 7v-15z" opacity=".29"/><path d="m125 131.5-1-.5v11l1 .5z" opacity=".15"/><path d="m127 132.5-1-.5v11l1 .5z" opacity=".15"/><path d="m129 133.5-1-.5v11l1 .5z" opacity=".15"/><path d="m131 134.5-1-.5v11l1 .5z" opacity=".15"/><path d="m133 135.5-1-.5v11l1 .5z" opacity=".15"/><path d="m135 136.5-1-.5v11l1 .5z" opacity=".15"/><path d="m137 137.5-1-.5v11l1 .5z" opacity=".15"/><path d="m139 138.5-1-.5v11l1 .5z" opacity=".15"/><path d="m141 139.5-1-.5v11l1 .5z" opacity=".15"/><path d="m143 140.5-1-.5v11l1 .5z" opacity=".15"/><path d="m145 141.5-1-.5v11l1 .5z" opacity=".15"/><path d="m147 142.5-1-.5v11l1 .5z" opacity=".15"/><path d="m149 143.5-1-.5v11l1 .5z" opacity=".15"/><path d="m151 144.5-1-.5v11l1 .5z" opacity=".15"/><path d="m168 137-14 7v15l30 15 14-7v-15z" fill="#f90"/><path d="m154 144v15l30 15v-15z" opacity=".11"/><path d="m198 152v15l-14 7v-15z" opacity=".29"/><path d="m157 147.5-1-.5v11l1 .5z" opacity=".15"/><path d="m159 148.5-1-.5v11l1 .5z" opacity=".15"/><path d="m161 149.5-1-.5v11l1 .5z" opacity=".15"/><path d="m163 150.5-1-.5v11l1 .5z" opacity=".15"/><path d="m165 151.5-1-.5v11l1 .5z" opacity=".15"/><path d="m167 152.5-1-.5v11l1 .5z" opacity=".15"/><path d="m169 153.5-1-.5v11l1 .5z" opacity=".15"/><path d="m171 154.5-1-.5v11l1 .5z" opacity=".15"/><path d="m173 155.5-1-.5v11l1 .5z" opacity=".15"/><path d="m175 156.5-1-.5v11l1 .5z" opacity=".15"/><path d="m177 157.5-1-.5v11l1 .5z" opacity=".15"/><path d="m179 158.5-1-.5v11l1 .5z" opacity=".15"/><path d="m181 159.5-1-.5v11l1 .5z" opacity=".15"/><path d="m183 160.5-1-.5v11l1 .5z" opacity=".15"/><path d="m200 153-14 7v15l30 15 14-7v-15z" fill="#fc0"/><path d="m186 160v15l30 15v-15z" opacity=".11"/><path d="m230 168v15l-14 7v-15z" opacity=".29"/><path d="m189 163.5-1-.5v11l1 .5z" opacity=".15"/><path d="m191 164.5-1-.5v11l1 .5z" opacity=".15"/><path d="m193 165.5-1-.5v11l1 .5z" opacity=".15"/><path d="m195 166.5-1-.5v11l1 .5z" opacity=".15"/><path d="m197 167.5-1-.5v11l1 .5z" opacity=".15"/><path d="m199 168.5-1-.5v11l1 .5z" opacity=".15"/><path d="m201 169.5-1-.5v11l1 .5z" opacity=".15"/><path d="m203 170.5-1-.5v11l1 .5z" opacity=".15"/><path d="m205 171.5-1-.5v11l1 .5z" opacity=".15"/><path d="m207 172.5-1-.5v11l1 .5z" opacity=".15"/><path d="m209 173.5-1-.5v11l1 .5z" opacity=".15"/><path d="m211 174.5-1-.5v11l1 .5z" opacity=".15"/><path d="m213 175.5-1-.5v11l1 .5z" opacity=".15"/><path d="m215 176.5-1-.5v11l1 .5z" opacity=".15"/><path d="m232 169-14 7v15l30 15 14-7v-15z" fill="#539b00"/><path d="m218 176v15l30 15v-15z" opacity=".11"/><path d="m262 184v15l-14 7v-15z" opacity=".29"/><path d="m221 179.5-1-.5v11l1 .5z" opacity=".15"/><path d="m223 180.5-1-.5v11l1 .5z" opacity=".15"/><path d="m225 181.5-1-.5v11l1 .5z" opacity=".15"/><path d="m227 182.5-1-.5v11l1 .5z" opacity=".15"/><path d="m229 183.5-1-.5v11l1 .5z" opacity=".15"/><path d="m231 184.5-1-.5v11l1 .5z" opacity=".15"/><path d="m233 185.5-1-.5v11l1 .5z" opacity=".15"/><path d="m235 186.5-1-.5v11l1 .5z" opacity=".15"/><path d="m237 187.5-1-.5v11l1 .5z" opacity=".15"/><path d="m239 188.5-1-.5v11l1 .5z" opacity=".15"/><path d="m241 189.5-1-.5v11l1 .5z" opacity=".15"/><path d="m243 190.5-1-.5v11l1 .5z" opacity=".15"/><path d="m245 191.5-1-.5v11l1 .5z" opacity=".15"/><path d="m247 192.5-1-.5v11l1 .5z" opacity=".15"/><path d="m264 185-14 7v15l30 15 14-7v-15z" fill="#539b00"/><path d="m250 192v15l30 15v-15z" opacity=".11"/><path d="m294 200v15l-14 7v-15z" opacity=".29"/><path d="m253 195.5-1-.5v11l1 .5z" opacity=".15"/><path d="m255 196.5-1-.5v11l1 .5z" opacity=".15"/><path d="m257 197.5-1-.5v11l1 .5z" opacity=".15"/><path d="m259 198.5-1-.5v11l1 .5z" opacity=".15"/><path d="m261 199.5-1-.5v11l1 .5z" opacity=".15"/><path d="m263 200.5-1-.5v11l1 .5z" opacity=".15"/><path d="m265 201.5-1-.5v11l1 .5z" opacity=".15"/><path d="m267 202.5-1-.5v11l1 .5z" opacity=".15"/><path d="m269 203.5-1-.5v11l1 .5z" opacity=".15"/><path d="m271 204.5-1-.5v11l1 .5z" opacity=".15"/><path d="m273 205.5-1-.5v11l1 .5z" opacity=".15"/><path d="m275 206.5-1-.5v11l1 .5z" opacity=".15"/><path d="m277 207.5-1-.5v11l1 .5z" opacity=".15"/><path d="m279 208.5-1-.5v11l1 .5z" opacity=".15"/><path d="m296 201-14 7v15l30 15 14-7v-15z" fill="#f90"/><path d="m282 208v15l30 15v-15z" opacity=".11"/><path d="m326 216v15l-14 7v-15z" opacity=".29"/><path d="m285 211.5-1-.5v11l1 .5z" opacity=".15"/><path d="m287 212.5-1-.5v11l1 .5z" opacity=".15"/><path d="m289 213.5-1-.5v11l1 .5z" opacity=".15"/><path d="m291 214.5-1-.5v11l1 .5z" opacity=".15"/><path d="m293 215.5-1-.5v11l1 .5z" opacity=".15"/><path d="m295 216.5-1-.5v11l1 .5z" opacity=".15"/><path d="m297 217.5-1-.5v11l1 .5z" opacity=".15"/><path d="m299 218.5-1-.5v11l1 .5z" opacity=".15"/><path d="m301 219.5-1-.5v11l1 .5z" opacity=".15"/><path d="m303 220.5-1-.5v11l1 .5z" opacity=".15"/><path d="m305 221.5-1-.5v11l1 .5z" opacity=".15"/><path d="m307 222.5-1-.5v11l1 .5z" opacity=".15"/><path d="m309 223.5-1-.5v11l1 .5z" opacity=".15"/><path d="m311 224.5-1-.5v11l1 .5z" opacity=".15"/><path d="m328 217-14 7v15l30 15 14-7v-15z" fill="#fc0"/><path d="m314 224v15l30 15v-15z" opacity=".11"/><path d="m358 232v15l-14 7v-15z" opacity=".29"/><path d="m317 227.5-1-.5v11l1 .5z" opacity=".15"/><path d="m319 228.5-1-.5v11l1 .5z" opacity=".15"/><path d="m321 229.5-1-.5v11l1 .5z" opacity=".15"/><path d="m323 230.5-1-.5v11l1 .5z" opacity=".15"/><path d="m325 231.5-1-.5v11l1 .5z" opacity=".15"/><path d="m327 232.5-1-.5v11l1 .5z" opacity=".15"/><path d="m329 233.5-1-.5v11l1 .5z" opacity=".15"/><path d="m331 234.5-1-.5v11l1 .5z" opacity=".15"/><path d="m333 235.5-1-.5v11l1 .5z" opacity=".15"/><path d="m335 236.5-1-.5v11l1 .5z" opacity=".15"/><path d="m337 237.5-1-.5v11l1 .5z" opacity=".15"/><path d="m339 238.5-1-.5v11l1 .5z" opacity=".15"/><path d="m341 239.5-1-.5v11l1 .5z" opacity=".15"/><path d="m343 240.5-1-.5v11l1 .5z" opacity=".15"/><path d="m360 233-14 7v15l30 15 14-7v-15z" fill="#539b00"/><path d="m346 240v15l30 15v-15z" opacity=".11"/><path d="m390 248v15l-14 7v-15z" opacity=".29"/><path d="m349 243.5-1-.5v11l1 .5z" opacity=".15"/><path d="m351 244.5-1-.5v11l1 .5z" opacity=".15"/><path d="m353 245.5-1-.5v11l1 .5z" opacity=".15"/><path d="m355 246.5-1-.5v11l1 .5z" opacity=".15"/><path d="m357 247.5-1-.5v11l1 .5z" opacity=".15"/><path d="m359 248.5-1-.5v11l1 .5z" opacity=".15"/><path d="m361 249.5-1-.5v11l1 .5z" opacity=".15"/><path d="m363 250.5-1-.5v11l1 .5z" opacity=".15"/><path d="m365 251.5-1-.5v11l1 .5z" opacity=".15"/><path d="m367 252.5-1-.5v11l1 .5z" opacity=".15"/><path d="m369 253.5-1-.5v11l1 .5z" opacity=".15"/><path d="m371 254.5-1-.5v11l1 .5z" opacity=".15"/><path d="m373 255.5-1-.5v11l1 .5z" opacity=".15"/><path d="m375 256.5-1-.5v11l1 .5z" opacity=".15"/><path d="m472 209-14 7v15l30 15 14-7v-15z" fill="#539b00"/><path d="m458 216v15l30 15v-15z" opacity=".11"/><path d="m502 224v15l-14 7v-15z" opacity=".29"/><path d="m500 238-4 2v-11l4-2z" opacity=".15"/><path d="m494 241-4 2v-11l4-2z" opacity=".15"/><path d="m456 217-14 7v15l30 15 14-7v-15z" fill="#f90"/><path d="m442 224v15l30 15v-15z" opacity=".11"/><path d="m486 232v15l-14 7v-15z" opacity=".29"/><path d="m484 246-4 2v-11l4-2z" opacity=".15"/><path d="m478 249-4 2v-11l4-2z" opacity=".15"/><path d="m440 225-14 7v15l30 15 14-7v-15z" fill="#539b00"/><path d="m426 232v15l30 15v-15z" opacity=".11"/><path d="m470 240v15l-14 7v-15z" opacity=".29"/><path d="m468 254-4 2v-11l4-2z" opacity=".15"/><path d="m462 257-4 2v-11l4-2z" opacity=".15"/><path d="m424 233-14 7v15l30 15 14-7v-15z" fill="#f90"/><path d="m410 240v15l30 15v-15z" opacity=".11"/><path d="m454 248v15l-14 7v-15z" opacity=".29"/><path d="m452 262-4 2v-11l4-2z" opacity=".15"/><path d="m446 265-4 2v-11l4-2z" opacity=".15"/><path d="m408 241-14 7v15l30 15 14-7v-15z" fill="#f90"/><path d="m394 248v15l30 15v-15z" opacity=".11"/><path d="m438 256v15l-14 7v-15z" opacity=".29"/><path d="m436 270-4 2v-11l4-2z" opacity=".15"/><path d="m430 273-4 2v-11l4-2z" opacity=".15"/><path d="m392 249-14 7v15l30 15 14-7v-15z" fill="#fc0"/><path d="m378 256v15l30 15v-15z" opacity=".11"/><path d="m422 264v15l-14 7v-15z" opacity=".29"/><path d="m420 278-4 2v-11l4-2z" opacity=".15"/><path d="m414 281-4 2v-11l4-2z" opacity=".15"/><path d="m381 259.5-1-.5v11l1 .5z" opacity=".15"/><path d="m383 260.5-1-.5v11l1 .5z" opacity=".15"/><path d="m385 261.5-1-.5v11l1 .5z" opacity=".15"/><path d="m387 262.5-1-.5v11l1 .5z" opacity=".15"/><path d="m389 263.5-1-.5v11l1 .5z" opacity=".15"/><path d="m391 264.5-1-.5v11l1 .5z" opacity=".15"/><path d="m393 265.5-1-.5v11l1 .5z" opacity=".15"/><path d="m395 266.5-1-.5v11l1 .5z" opacity=".15"/><path d="m397 267.5-1-.5v11l1 .5z" opacity=".15"/><path d="m399 268.5-1-.5v11l1 .5z" opacity=".15"/><path d="m401 269.5-1-.5v11l1 .5z" opacity=".15"/><path d="m403 270.5-1-.5v11l1 .5z" opacity=".15"/><path d="m405 271.5-1-.5v11l1 .5z" opacity=".15"/><path d="m407 272.5-1-.5v11l1 .5z" opacity=".15"/><path d="m104 89-14 7v15l30 15 14-7v-15z" fill="#f90"/><path d="m90 96v15l30 15v-15z" opacity=".11"/><path d="m134 104v15l-14 7v-15z" opacity=".29"/><path d="m93 99.5-1-.5v11l1 .5z" opacity=".15"/><path d="m95 100.5-1-.5v11l1 .5z" opacity=".15"/><path d="m97 101.5-1-.5v11l1 .5z" opacity=".15"/><path d="m99 102.5-1-.5v11l1 .5z" opacity=".15"/><path d="m101 103.5-1-.5v11l1 .5z" opacity=".15"/><path d="m103 104.5-1-.5v11l1 .5z" opacity=".15"/><path d="m105 105.5-1-.5v11l1 .5z" opacity=".15"/><path d="m107 106.5-1-.5v11l1 .5z" opacity=".15"/><path d="m109 107.5-1-.5v11l1 .5z" opacity=".15"/><path d="m111 108.5-1-.5v11l1 .5z" opacity=".15"/><path d="m113 109.5-1-.5v11l1 .5z" opacity=".15"/><path d="m115 110.5-1-.5v11l1 .5z" opacity=".15"/><path d="m117 111.5-1-.5v11l1 .5z" opacity=".15"/><path d="m119 112.5-1-.5v11l1 .5z" opacity=".15"/><path d="m136 105-14 7v15l30 15 14-7v-15z" fill="#fc0"/><path d="m122 112v15l30 15v-15z" opacity=".11"/><path d="m166 120v15l-14 7v-15z" opacity=".29"/><path d="m125 115.5-1-.5v11l1 .5z" opacity=".15"/><path d="m127 116.5-1-.5v11l1 .5z" opacity=".15"/><path d="m129 117.5-1-.5v11l1 .5z" opacity=".15"/><path d="m131 118.5-1-.5v11l1 .5z" opacity=".15"/><path d="m133 119.5-1-.5v11l1 .5z" opacity=".15"/><path d="m135 120.5-1-.5v11l1 .5z" opacity=".15"/><path d="m137 121.5-1-.5v11l1 .5z" opacity=".15"/><path d="m139 122.5-1-.5v11l1 .5z" opacity=".15"/><path d="m141 123.5-1-.5v11l1 .5z" opacity=".15"/><path d="m143 124.5-1-.5v11l1 .5z" opacity=".15"/><path d="m145 125.5-1-.5v11l1 .5z" opacity=".15"/><path d="m147 126.5-1-.5v11l1 .5z" opacity=".15"/><path d="m149 127.5-1-.5v11l1 .5z" opacity=".15"/><path d="m151 128.5-1-.5v11l1 .5z" opacity=".15"/><path d="m168 121-14 7v15l30 15 14-7v-15z" fill="#f90"/><path d="m154 128v15l30 15v-15z" opacity=".11"/><path d="m198 136v15l-14 7v-15z" opacity=".29"/><path d="m157 131.5-1-.5v11l1 .5z" opacity=".15"/><path d="m159 132.5-1-.5v11l1 .5z" opacity=".15"/><path d="m161 133.5-1-.5v11l1 .5z" opacity=".15"/><path d="m163 134.5-1-.5v11l1 .5z" opacity=".15"/><path d="m165 135.5-1-.5v11l1 .5z" opacity=".15"/><path d="m167 136.5-1-.5v11l1 .5z" opacity=".15"/><path d="m169 137.5-1-.5v11l1 .5z" opacity=".15"/><path d="m171 138.5-1-.5v11l1 .5z" opacity=".15"/><path d="m173 139.5-1-.5v11l1 .5z" opacity=".15"/><path d="m175 140.5-1-.5v11l1 .5z" opacity=".15"/><path d="m177 141.5-1-.5v11l1 .5z" opacity=".15"/><path d="m179 142.5-1-.5v11l1 .5z" opacity=".15"/><path d="m181 143.5-1-.5v11l1 .5z" opacity=".15"/><path d="m183 144.5-1-.5v11l1 .5z" opacity=".15"/><path d="m200 137-14 7v15l30 15 14-7v-15z" fill="#539b00"/><path d="m186 144v15l30 15v-15z" opacity=".11"/><path d="m230 152v15l-14 7v-15z" opacity=".29"/><path d="m189 147.5-1-.5v11l1 .5z" opacity=".15"/><path d="m191 148.5-1-.5v11l1 .5z" opacity=".15"/><path d="m193 149.5-1-.5v11l1 .5z" opacity=".15"/><path d="m195 150.5-1-.5v11l1 .5z" opacity=".15"/><path d="m197 151.5-1-.5v11l1 .5z" opacity=".15"/><path d="m199 152.5-1-.5v11l1 .5z" opacity=".15"/><path d="m201 153.5-1-.5v11l1 .5z" opacity=".15"/><path d="m203 154.5-1-.5v11l1 .5z" opacity=".15"/><path d="m205 155.5-1-.5v11l1 .5z" opacity=".15"/><path d="m207 156.5-1-.5v11l1 .5z" opacity=".15"/><path d="m209 157.5-1-.5v11l1 .5z" opacity=".15"/><path d="m211 158.5-1-.5v11l1 .5z" opacity=".15"/><path d="m213 159.5-1-.5v11l1 .5z" opacity=".15"/><path d="m215 160.5-1-.5v11l1 .5z" opacity=".15"/><path d="m232 153-14 7v15l30 15 14-7v-15z" fill="#f90"/><path d="m218 160v15l30 15v-15z" opacity=".11"/><path d="m262 168v15l-14 7v-15z" opacity=".29"/><path d="m221 163.5-1-.5v11l1 .5z" opacity=".15"/><path d="m223 164.5-1-.5v11l1 .5z" opacity=".15"/><path d="m225 165.5-1-.5v11l1 .5z" opacity=".15"/><path d="m227 166.5-1-.5v11l1 .5z" opacity=".15"/><path d="m229 167.5-1-.5v11l1 .5z" opacity=".15"/><path d="m231 168.5-1-.5v11l1 .5z" opacity=".15"/><path d="m233 169.5-1-.5v11l1 .5z" opacity=".15"/><path d="m235 170.5-1-.5v11l1 .5z" opacity=".15"/><path d="m237 171.5-1-.5v11l1 .5z" opacity=".15"/><path d="m239 172.5-1-.5v11l1 .5z" opacity=".15"/><path d="m241 173.5-1-.5v11l1 .5z" opacity=".15"/><path d="m243 174.5-1-.5v11l1 .5z" opacity=".15"/><path d="m245 175.5-1-.5v11l1 .5z" opacity=".15"/><path d="m247 176.5-1-.5v11l1 .5z" opacity=".15"/><path d="m264 169-14 7v15l30 15 14-7v-15z" fill="#fc0"/><path d="m250 176v15l30 15v-15z" opacity=".11"/><path d="m294 184v15l-14 7v-15z" opacity=".29"/><path d="m253 179.5-1-.5v11l1 .5z" opacity=".15"/><path d="m255 180.5-1-.5v11l1 .5z" opacity=".15"/><path d="m257 181.5-1-.5v11l1 .5z" opacity=".15"/><path d="m259 182.5-1-.5v11l1 .5z" opacity=".15"/><path d="m261 183.5-1-.5v11l1 .5z" opacity=".15"/><path d="m263 184.5-1-.5v11l1 .5z" opacity=".15"/><path d="m265 185.5-1-.5v11l1 .5z" opacity=".15"/><path d="m267 186.5-1-.5v11l1 .5z" opacity=".15"/><path d="m269 187.5-1-.5v11l1 .5z" opacity=".15"/><path d="m271 188.5-1-.5v11l1 .5z" opacity=".15"/><path d="m273 189.5-1-.5v11l1 .5z" opacity=".15"/><path d="m275 190.5-1-.5v11l1 .5z" opacity=".15"/><path d="m277 191.5-1-.5v11l1 .5z" opacity=".15"/><path d="m279 192.5-1-.5v11l1 .5z" opacity=".15"/><path d="m296 185-14 7v15l30 15 14-7v-15z" fill="#539b00"/><path d="m282 192v15l30 15v-15z" opacity=".11"/><path d="m326 200v15l-14 7v-15z" opacity=".29"/><path d="m285 195.5-1-.5v11l1 .5z" opacity=".15"/><path d="m287 196.5-1-.5v11l1 .5z" opacity=".15"/><path d="m289 197.5-1-.5v11l1 .5z" opacity=".15"/><path d="m291 198.5-1-.5v11l1 .5z" opacity=".15"/><path d="m293 199.5-1-.5v11l1 .5z" opacity=".15"/><path d="m295 200.5-1-.5v11l1 .5z" opacity=".15"/><path d="m297 201.5-1-.5v11l1 .5z" opacity=".15"/><path d="m299 202.5-1-.5v11l1 .5z" opacity=".15"/><path d="m301 203.5-1-.5v11l1 .5z" opacity=".15"/><path d="m303 204.5-1-.5v11l1 .5z" opacity=".15"/><path d="m305 205.5-1-.5v11l1 .5z" opacity=".15"/><path d="m307 206.5-1-.5v11l1 .5z" opacity=".15"/><path d="m309 207.5-1-.5v11l1 .5z" opacity=".15"/><path d="m311 208.5-1-.5v11l1 .5z" opacity=".15"/><path d="m392 169-14 7v15l30 15 14-7v-15z" fill="#f90"/><path d="m378 176v15l30 15v-15z" opacity=".11"/><path d="m422 184v15l-14 7v-15z" opacity=".29"/><path d="m376 177-14 7v15l30 15 14-7v-15z" fill="#539b00"/><path d="m362 184v15l30 15v-15z" opacity=".11"/><path d="m406 192v15l-14 7v-15z" opacity=".29"/><path d="m360 185-14 7v15l30 15 14-7v-15z" fill="#fc0"/><path d="m346 192v15l30 15v-15z" opacity=".11"/><path d="m390 200v15l-14 7v-15z" opacity=".29"/><path d="m344 193-14 7v15l30 15 14-7v-15z" fill="#f90"/><path d="m330 200v15l30 15v-15z" opacity=".11"/><path d="m374 208v15l-14 7v-15z" opacity=".29"/><path d="m328 201-14 7v15l30 15 14-7v-15z" fill="#539b00"/><path d="m314 208v15l30 15v-15z" opacity=".11"/><path d="m358 216v15l-14 7v-15z" opacity=".29"/><path d="m317 211.5-1-.5v11l1 .5z" opacity=".15"/><path d="m319 212.5-1-.5v11l1 .5z" opacity=".15"/><path d="m321 213.5-1-.5v11l1 .5z" opacity=".15"/><path d="m323 214.5-1-.5v11l1 .5z" opacity=".15"/><path d="m325 215.5-1-.5v11l1 .5z" opacity=".15"/><path d="m327 216.5-1-.5v11l1 .5z" opacity=".15"/><path d="m329 217.5-1-.5v11l1 .5z" opacity=".15"/><path d="m331 218.5-1-.5v11l1 .5z" opacity=".15"/><path d="m333 219.5-1-.5v11l1 .5z" opacity=".15"/><path d="m335 220.5-1-.5v11l1 .5z" opacity=".15"/><path d="m337 221.5-1-.5v11l1 .5z" opacity=".15"/><path d="m339 222.5-1-.5v11l1 .5z" opacity=".15"/><path d="m341 223.5-1-.5v11l1 .5z" opacity=".15"/><path d="m343 224.5-1-.5v11l1 .5z" opacity=".15"/><path d="m440 177-14 7v15l30 15 14-7v-15z" fill="#f90"/><path d="m426 184v15l30 15v-15z" opacity=".11"/><path d="m470 192v15l-14 7v-15z" opacity=".29"/><path d="m424 185-14 7v15l30 15 14-7v-15z" fill="#fc0"/><path d="m410 192v15l30 15v-15z" opacity=".11"/><path d="m454 200v15l-14 7v-15z" opacity=".29"/><path d="m408 193-14 7v15l30 15 14-7v-15z" fill="#f90"/><path d="m394 200v15l30 15v-15z" opacity=".11"/><path d="m438 208v15l-14 7v-15z" opacity=".29"/><path d="m392 201-14 7v15l30 15 14-7v-15z" fill="#f90"/><path d="m378 208v15l30 15v-15z" opacity=".11"/><path d="m422 216v15l-14 7v-15z" opacity=".29"/><path d="m376 209-14 7v15l30 15 14-7v-15z" fill="#fc0"/><path d="m362 216v15l30 15v-15z" opacity=".11"/><path d="m406 224v15l-14 7v-15z" opacity=".29"/><path d="m472 193-14 7v15l30 15 14-7v-15z" fill="#539b00"/><path d="m458 200v15l30 15v-15z" opacity=".11"/><path d="m502 208v15l-14 7v-15z" opacity=".29"/><path d="m500 222-4 2v-11l4-2z" opacity=".15"/><path d="m494 225-4 2v-11l4-2z" opacity=".15"/><path d="m456 201-14 7v15l30 15 14-7v-15z" fill="#f90"/><path d="m442 208v15l30 15v-15z" opacity=".11"/><path d="m486 216v15l-14 7v-15z" opacity=".29"/><path d="m484 230-4 2v-11l4-2z" opacity=".15"/><path d="m478 233-4 2v-11l4-2z" opacity=".15"/><path d="m440 209-14 7v15l30 15 14-7v-15z" fill="#fc0"/><path d="m426 216v15l30 15v-15z" opacity=".11"/><path d="m470 224v15l-14 7v-15z" opacity=".29"/><path d="m468 238-4 2v-11l4-2z" opacity=".15"/><path d="m462 241-4 2v-11l4-2z" opacity=".15"/><path d="m424 217-14 7v15l30 15 14-7v-15z" fill="#fc0"/><path d="m410 224v15l30 15v-15z" opacity=".11"/><path d="m454 232v15l-14 7v-15z" opacity=".29"/><path d="m452 246-4 2v-11l4-2z" opacity=".15"/><path d="m446 249-4 2v-11l4-2z" opacity=".15"/><path d="m408 225-14 7v15l30 15 14-7v-15z" fill="#539b00"/><path d="m394 232v15l30 15v-15z" opacity=".11"/><path d="m438 240v15l-14 7v-15z" opacity=".29"/><path d="m436 254-4 2v-11l4-2z" opacity=".15"/><path d="m430 257-4 2v-11l4-2z" opacity=".15"/><path d="m397 235.5-1-.5v11l1 .5z" opacity=".15"/><path d="m399 236.5-1-.5v11l1 .5z" opacity=".15"/><path d="m401 237.5-1-.5v11l1 .5z" opacity=".15"/><path d="m403 238.5-1-.5v11l1 .5z" opacity=".15"/><path d="m405 239.5-1-.5v11l1 .5z" opacity=".15"/><path d="m407 240.5-1-.5v11l1 .5z" opacity=".15"/><path d="m409 241.5-1-.5v11l1 .5z" opacity=".15"/><path d="m411 242.5-1-.5v11l1 .5z" opacity=".15"/><path d="m413 243.5-1-.5v11l1 .5z" opacity=".15"/><path d="m415 244.5-1-.5v11l1 .5z" opacity=".15"/><path d="m417 245.5-1-.5v11l1 .5z" opacity=".15"/><path d="m419 246.5-1-.5v11l1 .5z" opacity=".15"/><path d="m421 247.5-1-.5v11l1 .5z" opacity=".15"/><path d="m423 248.5-1-.5v11l1 .5z" opacity=".15"/><path d="m360 217-14 7v15l30 15 14-7v-15z" fill="#f90"/><path d="m346 224v15l30 15v-15z" opacity=".11"/><path d="m390 232v15l-14 7v-15z" opacity=".29"/><path d="m388 246-4 2v-11l4-2z" opacity=".15"/><path d="m382 249-4 2v-11l4-2z" opacity=".15"/><path d="m349 227.5-1-.5v11l1 .5z" opacity=".15"/><path d="m351 228.5-1-.5v11l1 .5z" opacity=".15"/><path d="m353 229.5-1-.5v11l1 .5z" opacity=".15"/><path d="m355 230.5-1-.5v11l1 .5z" opacity=".15"/><path d="m357 231.5-1-.5v11l1 .5z" opacity=".15"/><path d="m359 232.5-1-.5v11l1 .5z" opacity=".15"/><path d="m361 233.5-1-.5v11l1 .5z" opacity=".15"/><path d="m363 234.5-1-.5v11l1 .5z" opacity=".15"/><path d="m365 235.5-1-.5v11l1 .5z" opacity=".15"/><path d="m367 236.5-1-.5v11l1 .5z" opacity=".15"/><path d="m369 237.5-1-.5v11l1 .5z" opacity=".15"/><path d="m371 238.5-1-.5v11l1 .5z" opacity=".15"/><path d="m373 239.5-1-.5v11l1 .5z" opacity=".15"/><path d="m375 240.5-1-.5v11l1 .5z" opacity=".15"/><path d="m104 73-14 7v15l30 15 14-7v-15z" fill="#539b00"/><path d="m90 80v15l30 15v-15z" opacity=".11"/><path d="m134 88v15l-14 7v-15z" opacity=".29"/><path d="m93 83.5-1-.5v11l1 .5z" opacity=".15"/><path d="m95 84.5-1-.5v11l1 .5z" opacity=".15"/><path d="m97 85.5-1-.5v11l1 .5z" opacity=".15"/><path d="m99 86.5-1-.5v11l1 .5z" opacity=".15"/><path d="m101 87.5-1-.5v11l1 .5z" opacity=".15"/><path d="m103 88.5-1-.5v11l1 .5z" opacity=".15"/><path d="m105 89.5-1-.5v11l1 .5z" opacity=".15"/><path d="m107 90.5-1-.5v11l1 .5z" opacity=".15"/><path d="m109 91.5-1-.5v11l1 .5z" opacity=".15"/><path d="m111 92.5-1-.5v11l1 .5z" opacity=".15"/><path d="m113 93.5-1-.5v11l1 .5z" opacity=".15"/><path d="m115 94.5-1-.5v11l1 .5z" opacity=".15"/><path d="m117 95.5-1-.5v11l1 .5z" opacity=".15"/><path d="m119 96.5-1-.5v11l1 .5z" opacity=".15"/><path d="m136 89-14 7v15l30 15 14-7v-15z" fill="#f90"/><path d="m122 96v15l30 15v-15z" opacity=".11"/><path d="m166 104v15l-14 7v-15z" opacity=".29"/><path d="m125 99.5-1-.5v11l1 .5z" opacity=".15"/><path d="m127 100.5-1-.5v11l1 .5z" opacity=".15"/><path d="m129 101.5-1-.5v11l1 .5z" opacity=".15"/><path d="m131 102.5-1-.5v11l1 .5z" opacity=".15"/><path d="m133 103.5-1-.5v11l1 .5z" opacity=".15"/><path d="m135 104.5-1-.5v11l1 .5z" opacity=".15"/><path d="m137 105.5-1-.5v11l1 .5z" opacity=".15"/><path d="m139 106.5-1-.5v11l1 .5z" opacity=".15"/><path d="m141 107.5-1-.5v11l1 .5z" opacity=".15"/><path d="m143 108.5-1-.5v11l1 .5z" opacity=".15"/><path d="m145 109.5-1-.5v11l1 .5z" opacity=".15"/><path d="m147 110.5-1-.5v11l1 .5z" opacity=".15"/><path d="m149 111.5-1-.5v11l1 .5z" opacity=".15"/><path d="m151 112.5-1-.5v11l1 .5z" opacity=".15"/><path d="m168 105-14 7v15l30 15 14-7v-15z" fill="#539b00"/><path d="m154 112v15l30 15v-15z" opacity=".11"/><path d="m198 120v15l-14 7v-15z" opacity=".29"/><path d="m157 115.5-1-.5v11l1 .5z" opacity=".15"/><path d="m159 116.5-1-.5v11l1 .5z" opacity=".15"/><path d="m161 117.5-1-.5v11l1 .5z" opacity=".15"/><path d="m163 118.5-1-.5v11l1 .5z" opacity=".15"/><path d="m165 119.5-1-.5v11l1 .5z" opacity=".15"/><path d="m167 120.5-1-.5v11l1 .5z" opacity=".15"/><path d="m169 121.5-1-.5v11l1 .5z" opacity=".15"/><path d="m171 122.5-1-.5v11l1 .5z" opacity=".15"/><path d="m173 123.5-1-.5v11l1 .5z" opacity=".15"/><path d="m175 124.5-1-.5v11l1 .5z" opacity=".15"/><path d="m177 125.5-1-.5v11l1 .5z" opacity=".15"/><path d="m179 126.5-1-.5v11l1 .5z" opacity=".15"/><path d="m181 127.5-1-.5v11l1 .5z" opacity=".15"/><path d="m183 128.5-1-.5v11l1 .5z" opacity=".15"/><path d="m200 121-14 7v15l30 15 14-7v-15z" fill="#539b00"/><path d="m186 128v15l30 15v-15z" opacity=".11"/><path d="m230 136v15l-14 7v-15z" opacity=".29"/><path d="m189 131.5-1-.5v11l1 .5z" opacity=".15"/><path d="m191 132.5-1-.5v11l1 .5z" opacity=".15"/><path d="m193 133.5-1-.5v11l1 .5z" opacity=".15"/><path d="m195 134.5-1-.5v11l1 .5z" opacity=".15"/><path d="m197 135.5-1-.5v11l1 .5z" opacity=".15"/><path d="m199 136.5-1-.5v11l1 .5z" opacity=".15"/><path d="m201 137.5-1-.5v11l1 .5z" opacity=".15"/><path d="m203 138.5-1-.5v11l1 .5z" opacity=".15"/><path d="m205 139.5-1-.5v11l1 .5z" opacity=".15"/><path d="m207 140.5-1-.5v11l1 .5z" opacity=".15"/><path d="m209 141.5-1-.5v11l1 .5z" opacity=".15"/><path d="m211 142.5-1-.5v11l1 .5z" opacity=".15"/><path d="m213 143.5-1-.5v11l1 .5z" opacity=".15"/><path d="m215 144.5-1-.5v11l1 .5z" opacity=".15"/><path d="m232 137-14 7v15l30 15 14-7v-15z" fill="#fc0"/><path d="m218 144v15l30 15v-15z" opacity=".11"/><path d="m262 152v15l-14 7v-15z" opacity=".29"/><path d="m221 147.5-1-.5v11l1 .5z" opacity=".15"/><path d="m223 148.5-1-.5v11l1 .5z" opacity=".15"/><path d="m225 149.5-1-.5v11l1 .5z" opacity=".15"/><path d="m227 150.5-1-.5v11l1 .5z" opacity=".15"/><path d="m229 151.5-1-.5v11l1 .5z" opacity=".15"/><path d="m231 152.5-1-.5v11l1 .5z" opacity=".15"/><path d="m233 153.5-1-.5v11l1 .5z" opacity=".15"/><path d="m235 154.5-1-.5v11l1 .5z" opacity=".15"/><path d="m237 155.5-1-.5v11l1 .5z" opacity=".15"/><path d="m239 156.5-1-.5v11l1 .5z" opacity=".15"/><path d="m241 157.5-1-.5v11l1 .5z" opacity=".15"/><path d="m243 158.5-1-.5v11l1 .5z" opacity=".15"/><path d="m245 159.5-1-.5v11l1 .5z" opacity=".15"/><path d="m247 160.5-1-.5v11l1 .5z" opacity=".15"/><path d="m296 137-14 7v15l30 15 14-7v-15z" fill="#f90"/><path d="m282 144v15l30 15v-15z" opacity=".11"/><path d="m326 152v15l-14 7v-15z" opacity=".29"/><path d="m280 145-14 7v15l30 15 14-7v-15z" fill="#f90"/><path d="m266 152v15l30 15v-15z" opacity=".11"/><path d="m310 160v15l-14 7v-15z" opacity=".29"/><path d="m264 153-14 7v15l30 15 14-7v-15z" fill="#f90"/><path d="m250 160v15l30 15v-15z" opacity=".11"/><path d="m294 168v15l-14 7v-15z" opacity=".29"/><path d="m253 163.5-1-.5v11l1 .5z" opacity=".15"/><path d="m255 164.5-1-.5v11l1 .5z" opacity=".15"/><path d="m257 165.5-1-.5v11l1 .5z" opacity=".15"/><path d="m259 166.5-1-.5v11l1 .5z" opacity=".15"/><path d="m261 167.5-1-.5v11l1 .5z" opacity=".15"/><path d="m263 168.5-1-.5v11l1 .5z" opacity=".15"/><path d="m265 169.5-1-.5v11l1 .5z" opacity=".15"/><path d="m267 170.5-1-.5v11l1 .5z" opacity=".15"/><path d="m269 171.5-1-.5v11l1 .5z" opacity=".15"/><path d="m271 172.5-1-.5v11l1 .5z" opacity=".15"/><path d="m273 173.5-1-.5v11l1 .5z" opacity=".15"/><path d="m275 174.5-1-.5v11l1 .5z" opacity=".15"/><path d="m277 175.5-1-.5v11l1 .5z" opacity=".15"/><path d="m279 176.5-1-.5v11l1 .5z" opacity=".15"/><path d="m376 129-14 7v15l30 15 14-7v-15z" fill="#f90"/><path d="m362 136v15l30 15v-15z" opacity=".11"/><path d="m406 144v15l-14 7v-15z" opacity=".29"/><path d="m360 137-14 7v15l30 15 14-7v-15z" fill="#f90"/><path d="m346 144v15l30 15v-15z" opacity=".11"/><path d="m390 152v15l-14 7v-15z" opacity=".29"/><path d="m344 145-14 7v15l30 15 14-7v-15z" fill="#f90"/><path d="m330 152v15l30 15v-15z" opacity=".11"/><path d="m374 160v15l-14 7v-15z" opacity=".29"/><path d="m328 153-14 7v15l30 15 14-7v-15z" fill="#539b00"/><path d="m314 160v15l30 15v-15z" opacity=".11"/><path d="m358 168v15l-14 7v-15z" opacity=".29"/><path d="m312 161-14 7v15l30 15 14-7v-15z" fill="#539b00"/><path d="m298 168v15l30 15v-15z" opacity=".11"/><path d="m342 176v15l-14 7v-15z" opacity=".29"/><path d="m296 169-14 7v15l30 15 14-7v-15z" fill="#f90"/><path d="m282 176v15l30 15v-15z" opacity=".11"/><path d="m326 184v15l-14 7v-15z" opacity=".29"/><path d="m285 179.5-1-.5v11l1 .5z" opacity=".15"/><path d="m287 180.5-1-.5v11l1 .5z" opacity=".15"/><path d="m289 181.5-1-.5v11l1 .5z" opacity=".15"/><path d="m291 182.5-1-.5v11l1 .5z" opacity=".15"/><path d="m293 183.5-1-.5v11l1 .5z" opacity=".15"/><path d="m295 184.5-1-.5v11l1 .5z" opacity=".15"/><path d="m297 185.5-1-.5v11l1 .5z" opacity=".15"/><path d="m299 186.5-1-.5v11l1 .5z" opacity=".15"/><path d="m301 187.5-1-.5v11l1 .5z" opacity=".15"/><path d="m303 188.5-1-.5v11l1 .5z" opacity=".15"/><path d="m305 189.5-1-.5v11l1 .5z" opacity=".15"/><path d="m307 190.5-1-.5v11l1 .5z" opacity=".15"/><path d="m309 191.5-1-.5v11l1 .5z" opacity=".15"/><path d="m311 192.5-1-.5v11l1 .5z" opacity=".15"/><path d="m408 145-14 7v15l30 15 14-7v-15z" fill="#f90"/><path d="m394 152v15l30 15v-15z" opacity=".11"/><path d="m438 160v15l-14 7v-15z" opacity=".29"/><path d="m392 153-14 7v15l30 15 14-7v-15z" fill="#f90"/><path d="m378 160v15l30 15v-15z" opacity=".11"/><path d="m422 168v15l-14 7v-15z" opacity=".29"/><path d="m376 161-14 7v15l30 15 14-7v-15z" fill="#539b00"/><path d="m362 168v15l30 15v-15z" opacity=".11"/><path d="m406 176v15l-14 7v-15z" opacity=".29"/><path d="m440 161-14 7v15l30 15 14-7v-15z" fill="#fc0"/><path d="m426 168v15l30 15v-15z" opacity=".11"/><path d="m470 176v15l-14 7v-15z" opacity=".29"/><path d="m468 190-4 2v-11l4-2z" opacity=".15"/><path d="m462 193-4 2v-11l4-2z" opacity=".15"/><path d="m429 171.5-1-.5v11l1 .5z" opacity=".15"/><path d="m431 172.5-1-.5v11l1 .5z" opacity=".15"/><path d="m433 173.5-1-.5v11l1 .5z" opacity=".15"/><path d="m435 174.5-1-.5v11l1 .5z" opacity=".15"/><path d="m437 175.5-1-.5v11l1 .5z" opacity=".15"/><path d="m439 176.5-1-.5v11l1 .5z" opacity=".15"/><path d="m441 177.5-1-.5v11l1 .5z" opacity=".15"/><path d="m443 178.5-1-.5v11l1 .5z" opacity=".15"/><path d="m445 179.5-1-.5v11l1 .5z" opacity=".15"/><path d="m447 180.5-1-.5v11l1 .5z" opacity=".15"/><path d="m449 181.5-1-.5v11l1 .5z" opacity=".15"/><path d="m451 182.5-1-.5v11l1 .5z" opacity=".15"/><path d="m453 183.5-1-.5v11l1 .5z" opacity=".15"/><path d="m455 184.5-1-.5v11l1 .5z" opacity=".15"/><path d="m424 169-14 7v15l30 15 14-7v-15z" fill="#539b00"/><path d="m410 176v15l30 15v-15z" opacity=".11"/><path d="m454 184v15l-14 7v-15z" opacity=".29"/><path d="m452 198-4 2v-11l4-2z" opacity=".15"/><path d="m446 201-4 2v-11l4-2z" opacity=".15"/><path d="m413 179.5-1-.5v11l1 .5z" opacity=".15"/><path d="m415 180.5-1-.5v11l1 .5z" opacity=".15"/><path d="m417 181.5-1-.5v11l1 .5z" opacity=".15"/><path d="m419 182.5-1-.5v11l1 .5z" opacity=".15"/><path d="m421 183.5-1-.5v11l1 .5z" opacity=".15"/><path d="m423 184.5-1-.5v11l1 .5z" opacity=".15"/><path d="m425 185.5-1-.5v11l1 .5z" opacity=".15"/><path d="m427 186.5-1-.5v11l1 .5z" opacity=".15"/><path d="m429 187.5-1-.5v11l1 .5z" opacity=".15"/><path d="m431 188.5-1-.5v11l1 .5z" opacity=".15"/><path d="m433 189.5-1-.5v11l1 .5z" opacity=".15"/><path d="m435 190.5-1-.5v11l1 .5z" opacity=".15"/><path d="m437 191.5-1-.5v11l1 .5z" opacity=".15"/><path d="m439 192.5-1-.5v11l1 .5z" opacity=".15"/><path d="m408 177-14 7v15l30 15 14-7v-15z" fill="#539b00"/><path d="m394 184v15l30 15v-15z" opacity=".11"/><path d="m438 192v15l-14 7v-15z" opacity=".29"/><path d="m436 206-4 2v-11l4-2z" opacity=".15"/><path d="m430 209-4 2v-11l4-2z" opacity=".15"/><path d="m397 187.5-1-.5v11l1 .5z" opacity=".15"/><path d="m399 188.5-1-.5v11l1 .5z" opacity=".15"/><path d="m401 189.5-1-.5v11l1 .5z" opacity=".15"/><path d="m403 190.5-1-.5v11l1 .5z" opacity=".15"/><path d="m405 191.5-1-.5v11l1 .5z" opacity=".15"/><path d="m407 192.5-1-.5v11l1 .5z" opacity=".15"/><path d="m409 193.5-1-.5v11l1 .5z" opacity=".15"/><path d="m411 194.5-1-.5v11l1 .5z" opacity=".15"/><path d="m413 195.5-1-.5v11l1 .5z" opacity=".15"/><path d="m415 196.5-1-.5v11l1 .5z" opacity=".15"/><path d="m417 197.5-1-.5v11l1 .5z" opacity=".15"/><path d="m419 198.5-1-.5v11l1 .5z" opacity=".15"/><path d="m421 199.5-1-.5v11l1 .5z" opacity=".15"/><path d="m423 200.5-1-.5v11l1 .5z" opacity=".15"/><path d="m360 169-14 7v15l30 15 14-7v-15z" fill="#fc0"/><path d="m346 176v15l30 15v-15z" opacity=".11"/><path d="m390 184v15l-14 7v-15z" opacity=".29"/><path d="m388 198-4 2v-11l4-2z" opacity=".15"/><path d="m382 201-4 2v-11l4-2z" opacity=".15"/><path d="m349 179.5-1-.5v11l1 .5z" opacity=".15"/><path d="m351 180.5-1-.5v11l1 .5z" opacity=".15"/><path d="m353 181.5-1-.5v11l1 .5z" opacity=".15"/><path d="m355 182.5-1-.5v11l1 .5z" opacity=".15"/><path d="m357 183.5-1-.5v11l1 .5z" opacity=".15"/><path d="m359 184.5-1-.5v11l1 .5z" opacity=".15"/><path d="m361 185.5-1-.5v11l1 .5z" opacity=".15"/><path d="m363 186.5-1-.5v11l1 .5z" opacity=".15"/><path d="m365 187.5-1-.5v11l1 .5z" opacity=".15"/><path d="m367 188.5-1-.5v11l1 .5z" opacity=".15"/><path d="m369 189.5-1-.5v11l1 .5z" opacity=".15"/><path d="m371 190.5-1-.5v11l1 .5z" opacity=".15"/><path d="m373 191.5-1-.5v11l1 .5z" opacity=".15"/><path d="m375 192.5-1-.5v11l1 .5z" opacity=".15"/><path d="m344 177-14 7v15l30 15 14-7v-15z" fill="#f90"/><path d="m330 184v15l30 15v-15z" opacity=".11"/><path d="m374 192v15l-14 7v-15z" opacity=".29"/><path d="m372 206-4 2v-11l4-2z" opacity=".15"/><path d="m366 209-4 2v-11l4-2z" opacity=".15"/><path d="m333 187.5-1-.5v11l1 .5z" opacity=".15"/><path d="m335 188.5-1-.5v11l1 .5z" opacity=".15"/><path d="m337 189.5-1-.5v11l1 .5z" opacity=".15"/><path d="m339 190.5-1-.5v11l1 .5z" opacity=".15"/><path d="m341 191.5-1-.5v11l1 .5z" opacity=".15"/><path d="m343 192.5-1-.5v11l1 .5z" opacity=".15"/><path d="m345 193.5-1-.5v11l1 .5z" opacity=".15"/><path d="m347 194.5-1-.5v11l1 .5z" opacity=".15"/><path d="m349 195.5-1-.5v11l1 .5z" opacity=".15"/><path d="m351 196.5-1-.5v11l1 .5z" opacity=".15"/><path d="m353 197.5-1-.5v11l1 .5z" opacity=".15"/><path d="m355 198.5-1-.5v11l1 .5z" opacity=".15"/><path d="m357 199.5-1-.5v11l1 .5z" opacity=".15"/><path d="m359 200.5-1-.5v11l1 .5z" opacity=".15"/><path d="m328 185-14 7v15l30 15 14-7v-15z" fill="#fc0"/><path d="m314 192v15l30 15v-15z" opacity=".11"/><path d="m358 200v15l-14 7v-15z" opacity=".29"/><path d="m356 214-4 2v-11l4-2z" opacity=".15"/><path d="m350 217-4 2v-11l4-2z" opacity=".15"/><path d="m317 195.5-1-.5v11l1 .5z" opacity=".15"/><path d="m319 196.5-1-.5v11l1 .5z" opacity=".15"/><path d="m321 197.5-1-.5v11l1 .5z" opacity=".15"/><path d="m323 198.5-1-.5v11l1 .5z" opacity=".15"/><path d="m325 199.5-1-.5v11l1 .5z" opacity=".15"/><path d="m327 200.5-1-.5v11l1 .5z" opacity=".15"/><path d="m329 201.5-1-.5v11l1 .5z" opacity=".15"/><path d="m331 202.5-1-.5v11l1 .5z" opacity=".15"/><path d="m333 203.5-1-.5v11l1 .5z" opacity=".15"/><path d="m335 204.5-1-.5v11l1 .5z" opacity=".15"/><path d="m337 205.5-1-.5v11l1 .5z" opacity=".15"/><path d="m339 206.5-1-.5v11l1 .5z" opacity=".15"/><path d="m341 207.5-1-.5v11l1 .5z" opacity=".15"/><path d="m343 208.5-1-.5v11l1 .5z" opacity=".15"/><path d="m184 17-14 7v15l30 15 14-7v-15z" fill="#fc0"/><path d="m170 24v15l30 15v-15z" opacity=".11"/><path d="m214 32v15l-14 7v-15z" opacity=".29"/><path d="m168 25-14 7v15l30 15 14-7v-15z" fill="#fc0"/><path d="m154 32v15l30 15v-15z" opacity=".11"/><path d="m198 40v15l-14 7v-15z" opacity=".29"/><path d="m152 33-14 7v15l30 15 14-7v-15z" fill="#539b00"/><path d="m138 40v15l30 15v-15z" opacity=".11"/><path d="m182 48v15l-14 7v-15z" opacity=".29"/><path d="m136 41-14 7v15l30 15 14-7v-15z" fill="#539b00"/><path d="m122 48v15l30 15v-15z" opacity=".11"/><path d="m166 56v15l-14 7v-15z" opacity=".29"/><path d="m120 49-14 7v15l30 15 14-7v-15z" fill="#f90"/><path d="m106 56v15l30 15v-15z" opacity=".11"/><path d="m150 64v15l-14 7v-15z" opacity=".29"/><path d="m104 57-14 7v15l30 15 14-7v-15z" fill="#fc0"/><path d="m90 64v15l30 15v-15z" opacity=".11"/><path d="m134 72v15l-14 7v-15z" opacity=".29"/><path d="m93 67.5-1-.5v11l1 .5z" opacity=".15"/><path d="m95 68.5-1-.5v11l1 .5z" opacity=".15"/><path d="m97 69.5-1-.5v11l1 .5z" opacity=".15"/><path d="m99 70.5-1-.5v11l1 .5z" opacity=".15"/><path d="m101 71.5-1-.5v11l1 .5z" opacity=".15"/><path d="m103 72.5-1-.5v11l1 .5z" opacity=".15"/><path d="m105 73.5-1-.5v11l1 .5z" opacity=".15"/><path d="m107 74.5-1-.5v11l1 .5z" opacity=".15"/><path d="m109 75.5-1-.5v11l1 .5z" opacity=".15"/><path d="m111 76.5-1-.5v11l1 .5z" opacity=".15"/><path d="m113 77.5-1-.5v11l1 .5z" opacity=".15"/><path d="m115 78.5-1-.5v11l1 .5z" opacity=".15"/><path d="m117 79.5-1-.5v11l1 .5z" opacity=".15"/><path d="m119 80.5-1-.5v11l1 .5z" opacity=".15"/><path d="m216 33-14 7v15l30 15 14-7v-15z" fill="#fc0"/><path d="m202 40v15l30 15v-15z" opacity=".11"/><path d="m246 48v15l-14 7v-15z" opacity=".29"/><path d="m200 41-14 7v15l30 15 14-7v-15z" fill="#539b00"/><path d="m186 48v15l30 15v-15z" opacity=".11"/><path d="m230 56v15l-14 7v-15z" opacity=".29"/><path d="m184 49-14 7v15l30 15 14-7v-15z" fill="#f90"/><path d="m170 56v15l30 15v-15z" opacity=".11"/><path d="m214 64v15l-14 7v-15z" opacity=".29"/><path d="m168 57-14 7v15l30 15 14-7v-15z" fill="#fc0"/><path d="m154 64v15l30 15v-15z" opacity=".11"/><path d="m198 72v15l-14 7v-15z" opacity=".29"/><path d="m152 65-14 7v15l30 15 14-7v-15z" fill="#f90"/><path d="m138 72v15l30 15v-15z" opacity=".11"/><path d="m182 80v15l-14 7v-15z" opacity=".29"/><path d="m136 73-14 7v15l30 15 14-7v-15z" fill="#539b00"/><path d="m122 80v15l30 15v-15z" opacity=".11"/><path d="m166 88v15l-14 7v-15z" opacity=".29"/><path d="m125 83.5-1-.5v11l1 .5z" opacity=".15"/><path d="m127 84.5-1-.5v11l1 .5z" opacity=".15"/><path d="m129 85.5-1-.5v11l1 .5z" opacity=".15"/><path d="m131 86.5-1-.5v11l1 .5z" opacity=".15"/><path d="m133 87.5-1-.5v11l1 .5z" opacity=".15"/><path d="m135 88.5-1-.5v11l1 .5z" opacity=".15"/><path d="m137 89.5-1-.5v11l1 .5z" opacity=".15"/><path d="m139 90.5-1-.5v11l1 .5z" opacity=".15"/><path d="m141 91.5-1-.5v11l1 .5z" opacity=".15"/><path d="m143 92.5-1-.5v11l1 .5z" opacity=".15"/><path d="m145 93.5-1-.5v11l1 .5z" opacity=".15"/><path d="m147 94.5-1-.5v11l1 .5z" opacity=".15"/><path d="m149 95.5-1-.5v11l1 .5z" opacity=".15"/><path d="m151 96.5-1-.5v11l1 .5z" opacity=".15"/><path d="m248 49-14 7v15l30 15 14-7v-15z" fill="#f90"/><path d="m234 56v15l30 15v-15z" opacity=".11"/><path d="m278 64v15l-14 7v-15z" opacity=".29"/><path d="m232 57-14 7v15l30 15 14-7v-15z" fill="#f90"/><path d="m218 64v15l30 15v-15z" opacity=".11"/><path d="m262 72v15l-14 7v-15z" opacity=".29"/><path d="m216 65-14 7v15l30 15 14-7v-15z" fill="#539b00"/><path d="m202 72v15l30 15v-15z" opacity=".11"/><path d="m246 80v15l-14 7v-15z" opacity=".29"/><path d="m200 73-14 7v15l30 15 14-7v-15z" fill="#539b00"/><path d="m186 80v15l30 15v-15z" opacity=".11"/><path d="m230 88v15l-14 7v-15z" opacity=".29"/><path d="m184 81-14 7v15l30 15 14-7v-15z" fill="#fc0"/><path d="m170 88v15l30 15v-15z" opacity=".11"/><path d="m214 96v15l-14 7v-15z" opacity=".29"/><path d="m168 89-14 7v15l30 15 14-7v-15z" fill="#fc0"/><path d="m154 96v15l30 15v-15z" opacity=".11"/><path d="m198 104v15l-14 7v-15z" opacity=".29"/><path d="m157 99.5-1-.5v11l1 .5z" opacity=".15"/><path d="m159 100.5-1-.5v11l1 .5z" opacity=".15"/><path d="m161 101.5-1-.5v11l1 .5z" opacity=".15"/><path d="m163 102.5-1-.5v11l1 .5z" opacity=".15"/><path d="m165 103.5-1-.5v11l1 .5z" opacity=".15"/><path d="m167 104.5-1-.5v11l1 .5z" opacity=".15"/><path d="m169 105.5-1-.5v11l1 .5z" opacity=".15"/><path d="m171 106.5-1-.5v11l1 .5z" opacity=".15"/><path d="m173 107.5-1-.5v11l1 .5z" opacity=".15"/><path d="m175 108.5-1-.5v11l1 .5z" opacity=".15"/><path d="m177 109.5-1-.5v11l1 .5z" opacity=".15"/><path d="m179 110.5-1-.5v11l1 .5z" opacity=".15"/><path d="m181 111.5-1-.5v11l1 .5z" opacity=".15"/><path d="m183 112.5-1-.5v11l1 .5z" opacity=".15"/><path d="m280 65-14 7v15l30 15 14-7v-15z" fill="#f90"/><path d="m266 72v15l30 15v-15z" opacity=".11"/><path d="m310 80v15l-14 7v-15z" opacity=".29"/><path d="m264 73-14 7v15l30 15 14-7v-15z" fill="#fc0"/><path d="m250 80v15l30 15v-15z" opacity=".11"/><path d="m294 88v15l-14 7v-15z" opacity=".29"/><path d="m248 81-14 7v15l30 15 14-7v-15z" fill="#fc0"/><path d="m234 88v15l30 15v-15z" opacity=".11"/><path d="m278 96v15l-14 7v-15z" opacity=".29"/><path d="m232 89-14 7v15l30 15 14-7v-15z" fill="#f90"/><path d="m218 96v15l30 15v-15z" opacity=".11"/><path d="m262 104v15l-14 7v-15z" opacity=".29"/><path d="m216 97-14 7v15l30 15 14-7v-15z" fill="#539b00"/><path d="m202 104v15l30 15v-15z" opacity=".11"/><path d="m246 112v15l-14 7v-15z" opacity=".29"/><path d="m200 105-14 7v15l30 15 14-7v-15z" fill="#f90"/><path d="m186 112v15l30 15v-15z" opacity=".11"/><path d="m230 120v15l-14 7v-15z" opacity=".29"/><path d="m189 115.5-1-.5v11l1 .5z" opacity=".15"/><path d="m191 116.5-1-.5v11l1 .5z" opacity=".15"/><path d="m193 117.5-1-.5v11l1 .5z" opacity=".15"/><path d="m195 118.5-1-.5v11l1 .5z" opacity=".15"/><path d="m197 119.5-1-.5v11l1 .5z" opacity=".15"/><path d="m199 120.5-1-.5v11l1 .5z" opacity=".15"/><path d="m201 121.5-1-.5v11l1 .5z" opacity=".15"/><path d="m203 122.5-1-.5v11l1 .5z" opacity=".15"/><path d="m205 123.5-1-.5v11l1 .5z" opacity=".15"/><path d="m207 124.5-1-.5v11l1 .5z" opacity=".15"/><path d="m209 125.5-1-.5v11l1 .5z" opacity=".15"/><path d="m211 126.5-1-.5v11l1 .5z" opacity=".15"/><path d="m213 127.5-1-.5v11l1 .5z" opacity=".15"/><path d="m215 128.5-1-.5v11l1 .5z" opacity=".15"/><path d="m312 81-14 7v15l30 15 14-7v-15z" fill="#539b00"/><path d="m298 88v15l30 15v-15z" opacity=".11"/><path d="m342 96v15l-14 7v-15z" opacity=".29"/><path d="m296 89-14 7v15l30 15 14-7v-15z" fill="#f90"/><path d="m282 96v15l30 15v-15z" opacity=".11"/><path d="m326 104v15l-14 7v-15z" opacity=".29"/><path d="m280 97-14 7v15l30 15 14-7v-15z" fill="#fc0"/><path d="m266 104v15l30 15v-15z" opacity=".11"/><path d="m310 112v15l-14 7v-15z" opacity=".29"/><path d="m264 105-14 7v15l30 15 14-7v-15z" fill="#f90"/><path d="m250 112v15l30 15v-15z" opacity=".11"/><path d="m294 120v15l-14 7v-15z" opacity=".29"/><path d="m248 113-14 7v15l30 15 14-7v-15z" fill="#539b00"/><path d="m234 120v15l30 15v-15z" opacity=".11"/><path d="m278 128v15l-14 7v-15z" opacity=".29"/><path d="m232 121-14 7v15l30 15 14-7v-15z" fill="#fc0"/><path d="m218 128v15l30 15v-15z" opacity=".11"/><path d="m262 136v15l-14 7v-15z" opacity=".29"/><path d="m221 131.5-1-.5v11l1 .5z" opacity=".15"/><path d="m223 132.5-1-.5v11l1 .5z" opacity=".15"/><path d="m225 133.5-1-.5v11l1 .5z" opacity=".15"/><path d="m227 134.5-1-.5v11l1 .5z" opacity=".15"/><path d="m229 135.5-1-.5v11l1 .5z" opacity=".15"/><path d="m231 136.5-1-.5v11l1 .5z" opacity=".15"/><path d="m233 137.5-1-.5v11l1 .5z" opacity=".15"/><path d="m235 138.5-1-.5v11l1 .5z" opacity=".15"/><path d="m237 139.5-1-.5v11l1 .5z" opacity=".15"/><path d="m239 140.5-1-.5v11l1 .5z" opacity=".15"/><path d="m241 141.5-1-.5v11l1 .5z" opacity=".15"/><path d="m243 142.5-1-.5v11l1 .5z" opacity=".15"/><path d="m245 143.5-1-.5v11l1 .5z" opacity=".15"/><path d="m247 144.5-1-.5v11l1 .5z" opacity=".15"/><path d="m344 97-14 7v15l30 15 14-7v-15z" fill="#fc0"/><path d="m330 104v15l30 15v-15z" opacity=".11"/><path d="m374 112v15l-14 7v-15z" opacity=".29"/><path d="m328 105-14 7v15l30 15 14-7v-15z" fill="#539b00"/><path d="m314 112v15l30 15v-15z" opacity=".11"/><path d="m358 120v15l-14 7v-15z" opacity=".29"/><path d="m312 113-14 7v15l30 15 14-7v-15z" fill="#f90"/><path d="m298 120v15l30 15v-15z" opacity=".11"/><path d="m342 128v15l-14 7v-15z" opacity=".29"/><path d="m296 121-14 7v15l30 15 14-7v-15z" fill="#539b00"/><path d="m282 128v15l30 15v-15z" opacity=".11"/><path d="m326 136v15l-14 7v-15z" opacity=".29"/><path d="m280 129-14 7v15l30 15 14-7v-15z" fill="#fc0"/><path d="m266 136v15l30 15v-15z" opacity=".11"/><path d="m310 144v15l-14 7v-15z" opacity=".29"/><path d="m308 158-4 2v-11l4-2z" opacity=".15"/><path d="m302 161-4 2v-11l4-2z" opacity=".15"/><path d="m269 139.5-1-.5v11l1 .5z" opacity=".15"/><path d="m271 140.5-1-.5v11l1 .5z" opacity=".15"/><path d="m273 141.5-1-.5v11l1 .5z" opacity=".15"/><path d="m275 142.5-1-.5v11l1 .5z" opacity=".15"/><path d="m277 143.5-1-.5v11l1 .5z" opacity=".15"/><path d="m279 144.5-1-.5v11l1 .5z" opacity=".15"/><path d="m281 145.5-1-.5v11l1 .5z" opacity=".15"/><path d="m283 146.5-1-.5v11l1 .5z" opacity=".15"/><path d="m285 147.5-1-.5v11l1 .5z" opacity=".15"/><path d="m287 148.5-1-.5v11l1 .5z" opacity=".15"/><path d="m289 149.5-1-.5v11l1 .5z" opacity=".15"/><path d="m291 150.5-1-.5v11l1 .5z" opacity=".15"/><path d="m293 151.5-1-.5v11l1 .5z" opacity=".15"/><path d="m295 152.5-1-.5v11l1 .5z" opacity=".15"/><path d="m264 137-14 7v15l30 15 14-7v-15z" fill="#f90"/><path d="m250 144v15l30 15v-15z" opacity=".11"/><path d="m294 152v15l-14 7v-15z" opacity=".29"/><path d="m292 166-4 2v-11l4-2z" opacity=".15"/><path d="m286 169-4 2v-11l4-2z" opacity=".15"/><path d="m253 147.5-1-.5v11l1 .5z" opacity=".15"/><path d="m255 148.5-1-.5v11l1 .5z" opacity=".15"/><path d="m257 149.5-1-.5v11l1 .5z" opacity=".15"/><path d="m259 150.5-1-.5v11l1 .5z" opacity=".15"/><path d="m261 151.5-1-.5v11l1 .5z" opacity=".15"/><path d="m263 152.5-1-.5v11l1 .5z" opacity=".15"/><path d="m265 153.5-1-.5v11l1 .5z" opacity=".15"/><path d="m267 154.5-1-.5v11l1 .5z" opacity=".15"/><path d="m269 155.5-1-.5v11l1 .5z" opacity=".15"/><path d="m271 156.5-1-.5v11l1 .5z" opacity=".15"/><path d="m273 157.5-1-.5v11l1 .5z" opacity=".15"/><path d="m275 158.5-1-.5v11l1 .5z" opacity=".15"/><path d="m277 159.5-1-.5v11l1 .5z" opacity=".15"/><path d="m279 160.5-1-.5v11l1 .5z" opacity=".15"/><path d="m376 113-14 7v15l30 15 14-7v-15z" fill="#539b00"/><path d="m362 120v15l30 15v-15z" opacity=".11"/><path d="m406 128v15l-14 7v-15z" opacity=".29"/><path d="m404 142-4 2v-11l4-2z" opacity=".15"/><path d="m398 145-4 2v-11l4-2z" opacity=".15"/><path d="m365 123.5-1-.5v11l1 .5z" opacity=".15"/><path d="m367 124.5-1-.5v11l1 .5z" opacity=".15"/><path d="m369 125.5-1-.5v11l1 .5z" opacity=".15"/><path d="m371 126.5-1-.5v11l1 .5z" opacity=".15"/><path d="m373 127.5-1-.5v11l1 .5z" opacity=".15"/><path d="m375 128.5-1-.5v11l1 .5z" opacity=".15"/><path d="m377 129.5-1-.5v11l1 .5z" opacity=".15"/><path d="m379 130.5-1-.5v11l1 .5z" opacity=".15"/><path d="m381 131.5-1-.5v11l1 .5z" opacity=".15"/><path d="m383 132.5-1-.5v11l1 .5z" opacity=".15"/><path d="m385 133.5-1-.5v11l1 .5z" opacity=".15"/><path d="m387 134.5-1-.5v11l1 .5z" opacity=".15"/><path d="m389 135.5-1-.5v11l1 .5z" opacity=".15"/><path d="m391 136.5-1-.5v11l1 .5z" opacity=".15"/><path d="m360 121-14 7v15l30 15 14-7v-15z" fill="#539b00"/><path d="m346 128v15l30 15v-15z" opacity=".11"/><path d="m390 136v15l-14 7v-15z" opacity=".29"/><path d="m388 150-4 2v-11l4-2z" opacity=".15"/><path d="m382 153-4 2v-11l4-2z" opacity=".15"/><path d="m349 131.5-1-.5v11l1 .5z" opacity=".15"/><path d="m351 132.5-1-.5v11l1 .5z" opacity=".15"/><path d="m353 133.5-1-.5v11l1 .5z" opacity=".15"/><path d="m355 134.5-1-.5v11l1 .5z" opacity=".15"/><path d="m357 135.5-1-.5v11l1 .5z" opacity=".15"/><path d="m359 136.5-1-.5v11l1 .5z" opacity=".15"/><path d="m361 137.5-1-.5v11l1 .5z" opacity=".15"/><path d="m363 138.5-1-.5v11l1 .5z" opacity=".15"/><path d="m365 139.5-1-.5v11l1 .5z" opacity=".15"/><path d="m367 140.5-1-.5v11l1 .5z" opacity=".15"/><path d="m369 141.5-1-.5v11l1 .5z" opacity=".15"/><path d="m371 142.5-1-.5v11l1 .5z" opacity=".15"/><path d="m373 143.5-1-.5v11l1 .5z" opacity=".15"/><path d="m375 144.5-1-.5v11l1 .5z" opacity=".15"/><path d="m344 129-14 7v15l30 15 14-7v-15z" fill="#fc0"/><path d="m330 136v15l30 15v-15z" opacity=".11"/><path d="m374 144v15l-14 7v-15z" opacity=".29"/><path d="m372 158-4 2v-11l4-2z" opacity=".15"/><path d="m366 161-4 2v-11l4-2z" opacity=".15"/><path d="m333 139.5-1-.5v11l1 .5z" opacity=".15"/><path d="m335 140.5-1-.5v11l1 .5z" opacity=".15"/><path d="m337 141.5-1-.5v11l1 .5z" opacity=".15"/><path d="m339 142.5-1-.5v11l1 .5z" opacity=".15"/><path d="m341 143.5-1-.5v11l1 .5z" opacity=".15"/><path d="m343 144.5-1-.5v11l1 .5z" opacity=".15"/><path d="m345 145.5-1-.5v11l1 .5z" opacity=".15"/><path d="m347 146.5-1-.5v11l1 .5z" opacity=".15"/><path d="m349 147.5-1-.5v11l1 .5z" opacity=".15"/><path d="m351 148.5-1-.5v11l1 .5z" opacity=".15"/><path d="m353 149.5-1-.5v11l1 .5z" opacity=".15"/><path d="m355 150.5-1-.5v11l1 .5z" opacity=".15"/><path d="m357 151.5-1-.5v11l1 .5z" opacity=".15"/><path d="m359 152.5-1-.5v11l1 .5z" opacity=".15"/><path d="m328 137-14 7v15l30 15 14-7v-15z" fill="#f90"/><path d="m314 144v15l30 15v-15z" opacity=".11"/><path d="m358 152v15l-14 7v-15z" opacity=".29"/><path d="m356 166-4 2v-11l4-2z" opacity=".15"/><path d="m350 169-4 2v-11l4-2z" opacity=".15"/><path d="m317 147.5-1-.5v11l1 .5z" opacity=".15"/><path d="m319 148.5-1-.5v11l1 .5z" opacity=".15"/><path d="m321 149.5-1-.5v11l1 .5z" opacity=".15"/><path d="m323 150.5-1-.5v11l1 .5z" opacity=".15"/><path d="m325 151.5-1-.5v11l1 .5z" opacity=".15"/><path d="m327 152.5-1-.5v11l1 .5z" opacity=".15"/><path d="m329 153.5-1-.5v11l1 .5z" opacity=".15"/><path d="m331 154.5-1-.5v11l1 .5z" opacity=".15"/><path d="m333 155.5-1-.5v11l1 .5z" opacity=".15"/><path d="m335 156.5-1-.5v11l1 .5z" opacity=".15"/><path d="m337 157.5-1-.5v11l1 .5z" opacity=".15"/><path d="m339 158.5-1-.5v11l1 .5z" opacity=".15"/><path d="m341 159.5-1-.5v11l1 .5z" opacity=".15"/><path d="m343 160.5-1-.5v11l1 .5z" opacity=".15"/><path d="m504 294c-1.1 0-2 .4-2 1v6c0 .6.9 1 2 1s2-.4 2-1v-6c0-.6-.9-1-2-1z" fill="#e5e5e5"/><path d="m504 296c-1.1 0-2-.4-2-1v6c0 .6.9 1 2 1s2-.4 2-1v-6c0 .6-.9 1-2 1z" opacity=".2"/><path d="m520 286c-1.1 0-2 .4-2 1v6c0 .6.9 1 2 1s2-.4 2-1v-6c0-.6-.9-1-2-1z" fill="#e5e5e5"/><path d="m520 288c-1.1 0-2-.4-2-1v6c0 .6.9 1 2 1s2-.4 2-1v-6c0 .6-.9 1-2 1z" opacity=".2"/><path d="m460.5 307c0-1-.8-2.3-1.9-2.8-1-.5-1.9-.1-1.9.9v.3 1.9l3.7 1.9v-1.9c.1-.1.1-.2.1-.3z" fill="#e5e5e5"/><path d="m460.5 307c0-1-.8-2.3-1.9-2.8-1-.5-1.9-.1-1.9.9v.3 1.9l3.7 1.9v-1.9c.1-.1.1-.2.1-.3z" opacity=".11"/><path d="m460 306.8c0-.8-.6-1.8-1.4-2.2-.3-.2-.7-.2-.9-.1l-3.7 1.9c-.3.1-.5.4-.5.9 0 .8.6 1.8 1.4 2.2.3.2.6.2.9.1l3.7-1.9c.3-.1.5-.4.5-.9z" fill="#656565"/><path d="m456.7 308.9c0-1-.8-2.3-1.9-2.8-1-.5-1.9-.1-1.9.9v.3 1.9l3.7 1.9v-1.9c.1-.2.1-.2.1-.3z" fill="#e5e5e5"/><path d="m456.7 308.9c0-1-.8-2.3-1.9-2.8-1-.5-1.9-.1-1.9.9v.3 1.9l3.7 1.9v-1.9c.1-.2.1-.2.1-.3z" opacity=".11"/><path d="m526.5 274c0-1-.8-2.3-1.9-2.8-1-.5-1.9-.1-1.9.9v.3 1.9l3.7 1.9v-1.9c.1-.1.1-.2.1-.3z" fill="#e5e5e5"/><path d="m526.5 274c0-1-.8-2.3-1.9-2.8-1-.5-1.9-.1-1.9.9v.3 1.9l3.7 1.9v-1.9c.1-.1.1-.2.1-.3z" opacity=".11"/><path d="m526 273.8c0-.8-.6-1.8-1.4-2.2-.3-.2-.7-.2-.9-.1l-3.7 1.9c-.3.1-.5.4-.5.9 0 .8.6 1.8 1.4 2.2.3.2.6.2.9.1l3.7-1.9c.3-.1.5-.4.5-.9z" fill="#656565"/><path d="m522.7 275.9c0-1-.8-2.3-1.9-2.8-1-.5-1.9-.1-1.9.9v.3 1.9l3.7 1.9v-1.9c.1-.2.1-.2.1-.3z" fill="#e5e5e5"/><path d="m522.7 275.9c0-1-.8-2.3-1.9-2.8-1-.5-1.9-.1-1.9.9v.3 1.9l3.7 1.9v-1.9c.1-.2.1-.2.1-.3z" opacity=".11"/><path d="m500.5 311c0-1-.8-2.3-1.9-2.8-1-.5-1.9-.1-1.9.9v.3 1.9l3.7 1.9v-1.9c.1-.1.1-.2.1-.3z" fill="#e5e5e5"/><path d="m500.5 311c0-1-.8-2.3-1.9-2.8-1-.5-1.9-.1-1.9.9v.3 1.9l3.7 1.9v-1.9c.1-.1.1-.2.1-.3z" opacity=".11"/><path d="m500 310.8c0-.8-.6-1.8-1.4-2.2-.3-.2-.7-.2-.9-.1l-3.7 1.9c-.3.1-.5.4-.5.9 0 .8.6 1.8 1.4 2.2.3.2.6.2.9.1l3.7-1.9c.3-.1.5-.4.5-.9z" fill="#656565"/><path d="m496.7 312.9c0-1-.8-2.3-1.9-2.8-1-.5-1.9-.1-1.9.9v.3 1.9l3.7 1.9v-1.9c.1-.2.1-.2.1-.3z" fill="#e5e5e5"/><path d="m496.7 312.9c0-1-.8-2.3-1.9-2.8-1-.5-1.9-.1-1.9.9v.3 1.9l3.7 1.9v-1.9c.1-.2.1-.2.1-.3z" opacity=".11"/><path d="m536.5 293c0-1-.8-2.3-1.9-2.8-1-.5-1.9-.1-1.9.9v.3 1.9l3.7 1.9v-1.9c.1-.1.1-.2.1-.3z" fill="#e5e5e5"/><path d="m536.5 293c0-1-.8-2.3-1.9-2.8-1-.5-1.9-.1-1.9.9v.3 1.9l3.7 1.9v-1.9c.1-.1.1-.2.1-.3z" opacity=".11"/><path d="m536 292.8c0-.8-.6-1.8-1.4-2.2-.3-.2-.7-.2-.9-.1l-3.7 1.9c-.3.1-.5.4-.5.9 0 .8.6 1.8 1.4 2.2.3.2.6.2.9.1l3.7-1.9c.3-.1.5-.4.5-.9z" fill="#656565"/><path d="m532.7 294.9c0-1-.8-2.3-1.9-2.8-1-.5-1.9-.1-1.9.9v.3 1.9l3.7 1.9v-1.9c.1-.2.1-.2.1-.3z" fill="#e5e5e5"/><path d="m532.7 294.9c0-1-.8-2.3-1.9-2.8-1-.5-1.9-.1-1.9.9v.3 1.9l3.7 1.9v-1.9c.1-.2.1-.2.1-.3z" opacity=".11"/><path d="m510 252-94 47v5l2 1 94-47v-5z" fill="#e5e5e5"/><path d="m418 305-2-1v-5l2 1z" opacity=".11"/><path d="m512 258-94 47v-5l94-47z" opacity=".29"/><path d="m512 265c-1.1 0-2 .4-2 1v34c0 .6.9 1 2 1s2-.4 2-1v-34c0-.6-.9-1-2-1z" fill="#e5e5e5"/><path d="m512 267c-1.1 0-2-.4-2-1v34c0 .6.9 1 2 1s2-.4 2-1v-34c0 .6-.9 1-2 1z" opacity=".2"/><path d="m512 262c-3.3 0-6 1.3-6 3v1c0 1.7 2.7 3 6 3s6-1.3 6-3v-1c0-1.7-2.7-3-6-3z" fill="#e5e5e5"/><path d="m512 258c3.3 0 6 1.3 6 3v-1c0-1.7-2.7-3-6-3s-6 1.3-6 3v1c0-1.7 2.7-3 6-3z" fill="#e5e5e5"/><path d="m512 258c3.3 0 6 1.3 6 3v-1c0-1.7-2.7-3-6-3s-6 1.3-6 3v1c0-1.7 2.7-3 6-3z" opacity=".1"/><path d="m512 249c-1.1 0-2 .4-2 1v15c0 .6.9 1 2 1s2-.4 2-1v-15c0-.6-.9-1-2-1z" fill="#e5e5e5"/><path d="m512 251c-1.1 0-2-.4-2-1v15c0 .6.9 1 2 1s2-.4 2-1v-15c0 .6-.9 1-2 1z" opacity=".2"/><path d="m512 263c-3.3 0-6-1.3-6-3v1 5l1 1v-4.3c.3.2.6.4 1 .6v4.8h1v-4.4c.9.3 1.9.4 3 .4s2.1-.1 3-.4v4.4h1v-4.8c.4-.2.7-.4 1-.6v4.3l1-1v-5-1c0 1.7-2.7 3-6 3z" fill="#e5e5e5"/><path d="m512 263c-3.3 0-6-1.3-6-3v1 4 1c0 1.7 2.7 3 6 3s6-1.3 6-3v-1-4-1c0 1.7-2.7 3-6 3zm5-.3v4c-.3.2-.6.4-1 .6v-4c.4-.2.7-.4 1-.6zm-9 .5v4c-.4-.2-.7-.4-1-.6v-4c.3.3.6.5 1 .6zm1 4.4v-4c.9.3 1.9.4 3 .4s2.1-.1 3-.4v4c-.9.3-1.9.4-3 .4s-2.1-.1-3-.4z" opacity=".2"/><path d="m476 317c-30.5 0-60-18-60-18v5h-8l-322-161-10-9-76-38v24l383.8 191.9c3.2 1.4 69.5 31.3 97.2 28.1 28.9-3.4 59.3-31 63-55 0-.1-.1-.2-.1-.3-1.8 18-31.5 32.3-67.9 32.3z" fill="#06547a"/><path d="m384 312-.2-.1c-.2-.1-.1-.1.2.1z" fill="#06547a"/><path d="m476 317c-30.5 0-60-18-60-18v5h-8l-322-161-10-9-76-38v24l383.8 191.9c2.9 1.3 56.8 25.6 87.7 28.1l7.5-23c-1 0-2 0-3 0z" opacity=".11"/><path d="m481 340c28.9-3.4 59.3-31 63-55 0-.1-.1-.2-.1-.3-1.7 17.5-29.9 31.5-65 32.3l-7.3 23.1c3.4.2 6.6.2 9.4-.1z" opacity=".29"/><path d="m520 301-6 3v2l4 2 6-3v-2z" fill="#e5e5e5"/><path d="m518 308-4-2v-2l4 2z" opacity=".11"/><path d="m524 305-6 3v-2l6-3z" opacity=".29"/><path d="m492 285-10 5v2l8 4 10-5v-2z" fill="#e5e5e5"/><path d="m490 296-8-4v-2l8 4z" opacity=".11"/><path d="m500 291-10 5v-2l10-5z" opacity=".29"/><path d="m501 268-8 4v2l4 2 8-4v-2z" fill="#e5e5e5"/><path d="m497 276-4-2v-2l4 2z" opacity=".11"/><path d="m505 272-8 4v-2l8-4z" opacity=".29"/><path d="m454 291-8 4v2l4 2 8-4v-2z" fill="#e5e5e5"/><path d="m450 299-4-2v-2l4 2z" opacity=".11"/><path d="m458 295-8 4v-2l8-4z" opacity=".29"/></svg>