<svg enable-background="new 0 0 160 240" viewBox="0 0 160 240" xmlns="http://www.w3.org/2000/svg"><path d="m66.5 28.3s3.6-1.3 3.9-2.4-.4-11-1.3-13-3.7-7.4-4.9-8.6-4.4-2.1-4.4-2.1-1.1-1.5-2.3-1.2-1.8 1.8-1.1 2.6.4.9 0 1.2-.4 1.2.5 2.1 2.3 3.8 3.1 6.1 1.8 9.6 2.6 11.3 2.9 3.9 3.9 4z" fill="#fbd7c7"/><path d="m67.5 14.5s-3.6-3.3-4.5-3.3-1.1 1.8-.4 2.9 2.5 3.3 2.7 4.7.1 2.8-.5 2.9-3.2-8.8-3.4-10.4-.4-3.9.8-4.1c1.1-.3 5.3 7.3 5.3 7.3z" opacity=".2"/><path d="m70.9 23.8s9.3 5.4 11 7.8 15.4 12.3 18.9 14.6 14.3 11.8 14.3 11.8l-12.3 14.2s-12-11.4-14.7-14-8.2-10-10.3-11.7c-3-2.4-8.2-9.9-10-12.4s-2.5-6-2.5-6 1.6 0 3.3-1.3c1.6-1.1 2.3-3 2.3-3z" fill="#cc291f"/><path d="m148 230.3c12.3-8.2-.2-17-17.1-21.3-7.4-1.9-20.2-11.6-39.8-1.1-15.8 8.5 7.5 12.3 16.4 16.8 10.7 5.4 19 19.9 40.5 5.6z" opacity=".2"/><path d="m113.6 198.8-10.4 1.2s-.2 1.8-2.1 3.8-10.1 6.4-11.7 7.6c-2.8 2.1-.9 5 1.5 5.3 2.6.4 6.1-.4 10.5-2 3.4-1.2 7.4-2.3 11.3-3.6 3.3-1.1 2.5-5.9 2-8-.6-2-1.1-4.3-1.1-4.3z" fill="#2d3134"/><path d="m91 215.3c2.7.4 6.5-.5 11.2-2.2 3.7-1.3 7.9-2.5 12-3.9.3-.1.5-.2.7-.3-.3 1-1 1.9-2.2 2.3-3.8 1.3-7.8 2.4-11.3 3.6-4.4 1.6-7.9 2.4-10.5 2-1.8-.3-3.2-1.9-2.8-3.5.5 1 1.6 1.8 2.9 2z" opacity=".4"/><path d="m149.8 214.6c-.2.1-10.6 2.2-10.6 2.2s-2.7 6-5.3 8.1c-2.1 1.8-8 5.7-7.7 7.9s6.3 4 11.9 1.1c2.6-1.3 12.9-6.6 13.4-10.1.6-3.9-1.7-9.2-1.7-9.2z" fill="#2d3134"/><path d="m138.1 232.2c2.6-1.3 12.9-6.6 13.4-10.1 0-.2 0-.3.1-.5.1.8.1 1.6-.1 2.3-.5 3.5-10.8 8.8-13.4 10.1-5.6 2.9-11.6 1.1-11.9-1.1 0-.3.1-.7.3-1.2 1.2 1.9 6.6 3.1 11.6.5z" opacity=".4"/><path d="m130.4 52.8-10.4-2.9-7 1.7-3.2 61.9z" fill="#fff"/><path d="m152.7 217.1c.6-3-1.7-21.3-2.7-27.8-1.7-10.7-5-15-6.1-20.1s-.3-31.6-1.1-43.8c-.3-4.3-1.3-9.2-3.4-11.9-.3-1.5-.6-3-.8-4.5.9-1 1.1-3.3.9-4.7-.5-4.3-.3-8.6 1.1-13.1 3.8-11.6 11-21.8 3.1-29.4-3.7-3.6-13.4-9-13.4-9s-10.7 17.9-12.5 22.5c-1.3 3.2-3.2 7.7-4.7 12.8.3-10.8 1.2-36 1.2-36-1.9-1.2-7.2-2-10.3-2-2.8 5.7-4.8 24-4.8 28.5 0 2.6-.1 10.1.6 19.5.3 3.8 1.3 9 2.5 11.3-.1 2.2 0 3.4-.3 5-3.4 2.1-4.6 17.4-4.5 20 .4 11.2.6 23.6 1.1 33s-1.8 31.3 1.8 36.9c.6.9 2.5 1.8 5.6 1.9s8-.2 8.9-1.3c2-2.3 2.1-8.7 2.1-14.3s.5-13.6.2-21.5c-.3-6 .6-13.6 2-19 .1.2.1.4.2.5 3.7 12.1 4.6 20.3 6.4 27.3s6.7 23.5 7.8 31.8c.4 3.2.3 9.5 2.7 12.5 3.3 4.1 11.3 2 12.9.6 2-1.5 2.9-2.8 3.5-5.7z" fill="#cc291f"/><path d="m129.7 52.7s-2.6-1.1-2.7-2.9c-.2-1.9 5.6-9.2.8-16-4.9-6.8-16.9-5.5-19 1.2s-2.3 19.6-.7 21c2 1.7 5.6 1 5.6 1s1.2 3.1.9 4.9c-.4 2.5 1.9 2.7 3.2 2.7 1.8-.2 9.5-5 11.9-11.9z" fill="#fbd7c7"/><path d="m127.7 48-1.5.9s3.9-5.4 1.3-6.5-3.9 2.2-3.9 2.2-1.9-3.4-5-3.7-11.4-2.2-11.1-4.8c.1-1 3.4-10 13.2-8.3s10.2 9.9 9.6 13.2c-.5 3.4-2.6 7-2.6 7z" fill="#762c07"/><path d="m104 38.9s-2.8 1.2-2.8 2.1 8.3 4.5 14 3.9 16.1-3.5 16.7-5-.7-16.2-12.7-16.2c-14-.1-15.2 15.2-15.2 15.2z" fill="#39c"/><path d="m101.2 41c0 .9 8.3 4.5 14 3.9 4.6-.5 12.1-2.4 15.2-4-3.1 1.1-7.3 2.2-10.4 2.1-5.4-.2-14.2-2.8-16.1-4.1.1 0-2.7 1.2-2.7 2.1z" opacity=".2"/><path d="m105.5 37.2 1.2.4c.6-3.6 3.3-13.3 13.8-13.3.6 0 1.2.1 1.8.1-.9-.3-1.9-.4-3-.4-10.4 0-13.1 9.4-13.8 13.2z" opacity=".2"/><path d="m110 38.7c.3-2.6 2-13.8 11.2-13.8.5 0 1 .1 1.4.1-.7-.3-1.5-.4-2.4-.4-9.1 0-11.2 10.9-11.5 13.6z" opacity=".2"/><path d="m109.9 50.8-4.4-1.1 1-3.9-1.3-.3-1 3.9c-1.2-.2-2.5.6-2.8 1.8l-3.1 12.2c-.3 1.3.5 2.7 1.8 3l5.5 1.4c1.3.3 2.7-.5 3-1.8l3.1-12.2c.3-1.4-.5-2.7-1.8-3z" fill="#2d3134"/><path d="m107.7 69.2s1.4-3.1 1.9-4.7 2.8-6.1 1.7-7.4c-1.3-1.4-3 3.9-3.7 3.9s-4.7-2.4-5.4-4.7.1-5.3-1.4-5.5-3.8 3.8-4.1 8c-.3 4 .6 5.8 1.5 7.7.9 1.8 4.2 6 4.2 6z" fill="#fbd7c7"/><path d="m122.1 103.7c4.1 1.8 12.2 2.6 17.3.6-.5-4.3-.3-8.6 1.1-13.1 3.1-9.4 8.4-17.8 6.1-24.7-1.9-3-7-3.9-9.1-2.3-5.6 4.2-13.6 15.4-13.6 15.4l-14.9-12.3c-1.4-.4-8.2 2-8.5 4.4s3.2 13.2 6.4 18.6c3.9 5.9 10.6 11.4 15.2 13.4z" opacity=".2"/><path d="m109.2 67.2c-1.4-.4-8.2 2-8.5 4.4s3.3 10.2 6.6 15.6c3.6 6 10.5 12.2 15.5 12.8 4.3.4 11.9-4 15.5-8.8 3.9-5.2 9.3-13.3 9.2-22.2-.1-5-5.3-9.8-9.8-4.9-3.7 4.1-5.4 7.7-8 12.5-2.2 4-5.8 8.6-5.8 8.6z" fill="#cc291f"/><g fill="#e5e5e5"><path d="m128 79.3s3.8 3.6 7 5.9 5.6 3.2 5.6 3.2l3.3-5.4s-3.3-1.8-5.6-3.7-7-5.7-7-5.7z"/><path d="m133.7 209.4s4.1 2.1 9.1 1.1 9.4-4.6 9.4-4.6l-.7-6.5s-6.3 3.8-10 4.4-9.3-.6-9.3-.6z"/><path d="m98.2 184.8.1 6.3s1.6 1.2 7.3 1.4 11.7-.9 11.7-.9l.1-6.7s-7.3.9-11.4.8-7.8-.9-7.8-.9z"/></g><path d="m102.3 109.2s4.6 1 14.3 1 22-1.6 22-1.6l1 4.8s-13.4 2.2-21.7 2.5-15.8-1.5-15.8-1.5z" fill="#2d3134"/></svg>