<svg enable-background="new 0 0 160 240" viewBox="0 0 160 240" xmlns="http://www.w3.org/2000/svg"><path d="m72.3 96.9c2 5.8 4.6 14.5 5.4 16.5s2.2 4.5 1.6 7.5-1.7 5.1-3.8 5.9-4.3.3-4.3.3z" fill="#fbd7c7"/><path d="m70.8 116.6 7.1-3.1-.2-4-5.6-19.1z" fill="#cc291f"/><path d="m70.8 116.6 7.1-3.1-.2-4-5.6-19.1z" opacity=".2"/><path d="m12.5 189.8c16.3-9.1 31.3 2.4 48.4 12.8 17.1 10.5 49.1 20.4 36 27.4s-37.9-6-51.4-13.1c-13.4-7.1-47.6-19-33-27.1z" opacity=".2"/><path d="m64.7 214.6c.1 2.8-1.1 5.3 3.5 6.6 3.6 1 7 1.9 11.9 5.4 2 1.4 4.9 3.1 8 3.5 1.5.2 3.7-.4 4.8-.9 3.1-1.2 2.3-3.7 2.2-4.7-.1-1.7-1.8-2.6-5.1-4-3.3-1.5-5.8-2.6-7.8-5.2-2-2.7-6.1-5.3-6.1-5.3z" fill="#262626"/><path d="m65.3 216.1s7.9 2.2 10.3 3.7c2.8 1.8 9.9 7.5 13.5 7.6 3.1.1 6-1.4 5.6-3.2s-2.8-2.5-5.9-4c-3-1.5-5.8-3.7-7.1-6.1s-16.4 2-16.4 2z" fill="#2d3134"/><path d="m16.3 193s6.1 10.2 8.2 11.8 11.1 4.6 14.9 3.7 3.7-.8 3.9-2.7c.2-2 .6-2.2-2.6-3.7-3.1-1.6-6.9-5.3-7.5-7.4s-7.2-6.4-10.2-6.3-6.7 4.6-6.7 4.6z" fill="#262626"/><path d="m19.2 193.2c2.9 2.3 5.6 8.2 7.5 9.1s8.9 3.4 13 2.7c3.6-.6 3.9-.8 3-1.7-.9-1-5-2.3-6.5-4.6s-5.3-7.9-5.3-7.9z" fill="#2d3134"/><path d="m57.8 117.3s-11.5-68.2-9-69.5c2.6-1.3 11.4-3 15.4-3.2s10.6 4.1 10.6 4.1l-6.7 68.6z" fill="#fff"/><path d="m85.1 165.4c-.4-6-3.5-20.1-5.8-27.3-1.9-6.1-5.8-18.7-5.8-23.6 0-1.5-.7-4.5-1.3-6 0-1.6-.1-3.1-.1-4.7.5-3.1 1.2-7.4 1.2-9.1 0-3.4 1.7-13.9 2.8-17 .6-1.5 2.2-5.2 3-9.3.9-4.7.5-12.2-.3-15.3-.6-2.4-2.8-5.6-8.6-6.4 0 0-1 19.1-2.6 27.2-.5 2.4-.9 6.6-1.2 11.5-.1-4.5-.5-9.2-1.4-12.4-3-11-16.1-25.2-16.1-25.2s-6.9 4-9.6 8c-2.8 4.1-5.2 10.6-5.2 18.8s-1.1 30.2-1.4 34.6c0 .7-2.2 17.4-2.4 23.4-.3 6.3-.1 19.5-1.8 24.7-.9 2.9-4 7.6-5.5 9.8-5.3 8.1-8.2 17.2-8.2 19.7 0 1.4-.2 3.6 1.5 6.3 1.3 2 3.8 3.2 6.2 3.6 5.8 1 10.5-2.6 10.5-2.6s1.5-2.7.8-4.4.3-3.9 1.5-5.5c1.4-1.9 7.4-12.1 9.3-15 2.8-4.2 3.3-7 6.6-17.9.5-1.7 1.9-6.8 3.4-13.6.5 1 1.6 4.8 2.3 6.5 1.8 4.4 5.6 18.6 6.5 22.3s.1 38.3-.3 42.4.3 8.5 1.6 9.4c1.1.8 3.8.8 8.1.6 4.3-.3 9-2.2 9.6-3.5.7-1.3 1-4.4-.4-6.1s.4-4.1.6-7.1c.3-3.8 2.8-33.3 2.5-36.8z" fill="#cc291f"/><path d="m51.4 47.3s2.7-1.1 2.9-3.1-5.9-9.7-.8-16.8 17.8-5.8 20 1.3 2.4 20.7.7 22.1c-2.1 1.8-5.9 1.1-5.9 1.1s-1.3 3.3-1 5.1c.4 2.7-2 2.9-3.3 2.8-1.9-.2-10.8-3.5-12.6-12.5z" fill="#fbd7c7"/><path d="m53.5 42.4 1.6 1s-4.2-5.6-1.4-6.8 4.1 2.3 4.1 2.3 2.1-3.6 5.3-3.9 12-2.3 11.7-5.1c-.1-1.1-3.6-10.5-14-8.7s-10.6 10.4-10 13.9c.5 3.5 2.7 7.3 2.7 7.3z" fill="#762c07"/><path d="m77.7 33.5s2.8 1.2 2.8 2.1-8.3 4.5-14 3.9-16.1-3.5-16.7-5 .7-16.2 12.7-16.2c14.1 0 15.2 15.2 15.2 15.2z" fill="#39c"/><path d="m80.5 35.6c0 .9-8.3 4.5-14 3.9-4.6-.5-12.1-2.4-15.2-4 3.1 1.1 7.3 2.2 10.4 2.1 5.4-.2 14.2-2.8 16.1-4.1-.1 0 2.7 1.3 2.7 2.1z" opacity=".2"/><path d="m76.2 31.8-1.2.4c-.6-3.6-3.3-13.3-13.8-13.3-.6 0-1.2.1-1.8.1.9-.3 1.9-.4 3-.4 10.5 0 13.2 9.5 13.8 13.2z" opacity=".2"/><path d="m71.8 33.3c-.3-2.6-2-13.8-11.2-13.8-.5 0-1 .1-1.4.1.7-.3 1.5-.4 2.4-.4 9.1 0 11.2 10.9 11.5 13.6z" opacity=".2"/><path d="m63.4 199-.2 5.8s3.6.6 9.2.1 10.3-1.7 10.3-1.7l.6-6.3s-7 2-11.3 2.2-8.6-.1-8.6-.1z" fill="#e5e5e5"/><path d="m19.1 173.4s2.3 3.3 6.8 4.8c4.5 1.4 12.2 1.7 12.2 1.7l-3 4.9s-7.4.7-12.1-1.6-6.3-4.8-6.3-4.8z" fill="#e5e5e5"/><path d="m36 101.5s4.5 1.4 14.1 2.1 22.1.2 22.1.2l.2 4.8s-13.1 1.1-21.3.7-15.6-2.7-15.6-2.7z" fill="#2d3134"/><path d="m54.1 125.4c-1.4-3.3-5-16.9-6.4-21.2s-1.8-8-1.8-9.2c.1-1.1 4.5-18.4 4.5-22.3s.9-13.5-8.3-14.8c-4.1-.5-3 7.4-3.8 10.5s-4.6 23.6-4.7 24.7c0 .2-.1.4-.2.6-.3 6.9-.7 13.3-.8 15.4 0 .2-.3 2.5-.7 5.7 1.7 2 8.1 8 10.3 8.5l11.8 5.3c-.2-.4.3-2.6.1-3.2z" opacity=".2"/><path d="m43.2 130c.1 2.2-.1 2.4 1.3 3.8s2.9 1.7 4.4 2.2c1.6.5 2.7-.6 2.7-.6s1 .7 2 .6 1.3-.9 1.3-.9 2.1 1.4 2.9.8-1.3-1.7-2.2-2.7-1.5-2.7-1.5-2.7.8-3-.4-5.3c-1.1-2.3-1.5-2.9-3.3-4.2-1.5-1-1.8-.5-2.6-1.9l-6.3 3.5c.1.3.2.6.3.8.8 2.2 1.3 4.5 1.4 6.6z" fill="#fbd7c7"/><path d="m48.6 116.6c-1.4-3.3-2.5-10-3.9-14.2-1.5-4.3-2.9-7.2-2.8-8.3s5.3-11.9 7.6-22.6c.8-3.8 2.5-15.1-6.8-16.3-4.1-.5-7.4 5.9-8.2 8.9-.8 3.1-5.3 27.2-5.4 28.3-.2 1.7.1 4.4 1.2 7.6 1.3 3.7 7.3 15.5 9.8 21.2.3.8 1.7 1.7 1.8 2.2l6.6-3.7c-.2-.3.3-2.5.1-3.1z" fill="#cc291f"/><path d="m32.2 74.3s2.5.8 6.7 1.5 9.3.9 9.3.9l-1.7 5.8s-3.8.1-8.8-.7c-4.4-.7-6.5-1.4-6.5-1.4z" fill="#e5e5e5"/></svg>