<svg enable-background="new 0 0 552 336" viewBox="0 0 552 336" xmlns="http://www.w3.org/2000/svg"><path d="m456 328s-176.7-66.3-252-104c-40.4-20.2-101.9-56.6-123-73-30-23.3-35-35-42-39s-22.3-8.7-18-17 44 0 44 0z" fill="#39c"/><path d="m456 328s-176.7-66.3-252-104c-40.4-20.2-101.9-56.6-123-73-30-23.3-35-35-42-39s-22.3-8.7-18-17 44 0 44 0z" opacity=".15"/><path d="m136 48v-5l-16.1-8c-14.4-7.4-31.1-12-51.9-12-37.6 0-68 18.2-68 37 0 9.4 9.9 19.9 24.1 28l7.9 4 8 4 8 8 320 160h8l80 40 96-48-80-40h-8l-320-160z" fill="#e5e5e5"/><path d="m68 27c20.8 0 37.5 5.6 51.9 13l16.1 8v-5l-16.1-8c-14.4-7.4-31.1-12-51.9-12-37.6 0-68 18.2-68 37 0-.4.1 4.6.1 4.6s-.5-4.5 1.1-9.1c5.4-16 33.1-28.5 66.8-28.5z" opacity=".2"/><path d="m44 16c-1.1 0-2 .4-2 1v34c0 .6.9 1 2 1s2-.4 2-1v-34c0-.6-.9-1-2-1z" fill="#e5e5e5"/><path d="m44 18c-1.1 0-2-.4-2-1v34c0 .6.9 1 2 1s2-.4 2-1v-34c0 .6-.9 1-2 1z" opacity=".2"/><path d="m44 13c-3.3 0-6 1.3-6 3v1c0 1.7 2.7 3 6 3s6-1.3 6-3v-1c0-1.7-2.7-3-6-3z" fill="#e5e5e5"/><path d="m44 9c3.3 0 6 1.3 6 3v-1c0-1.7-2.7-3-6-3s-6 1.3-6 3v1c0-1.7 2.7-3 6-3z" fill="#e5e5e5"/><path d="m44 9c3.3 0 6 1.3 6 3v-1c0-1.7-2.7-3-6-3s-6 1.3-6 3v1c0-1.7 2.7-3 6-3z" opacity=".1"/><path d="m44 0c-1.1 0-2 .4-2 1v15c0 .6.9 1 2 1s2-.4 2-1v-15c0-.6-.9-1-2-1z" fill="#e5e5e5"/><path d="m44 2c-1.1 0-2-.4-2-1v15c0 .6.9 1 2 1s2-.4 2-1v-15c0 .6-.9 1-2 1z" opacity=".2"/><path d="m44 14c-3.3 0-6-1.3-6-3v1 5l1 1v-4.3c.3.2.6.4 1 .6v4.7h1v-4.4c.9.3 1.9.4 3 .4s2.1-.1 3-.4v4.4h1v-4.8c.4-.2.7-.4 1-.6v4.4l1-1v-5-1c0 1.7-2.7 3-6 3z" fill="#e5e5e5"/><path d="m44 14c-3.3 0-6-1.3-6-3v1 4 1c0 1.7 2.7 3 6 3s6-1.3 6-3v-1-4-1c0 1.7-2.7 3-6 3zm5-.3v4c-.3.2-.6.4-1 .6v-4c.4-.2.7-.4 1-.6zm-9 .5v4c-.4-.2-.7-.4-1-.6v-4c.3.3.6.5 1 .6zm1 4.4v-4c.9.3 1.9.4 3 .4s2.1-.1 3-.4v4c-.9.3-1.9.4-3 .4s-2.1-.1-3-.4z" opacity=".2"/><path d="m36 45c-1.1 0-2 .4-2 1v6c0 .6.9 1 2 1s2-.4 2-1v-6c0-.6-.9-1-2-1z" fill="#e5e5e5"/><path d="m36 47c-1.1 0-2-.4-2-1v6c0 .6.9 1 2 1s2-.4 2-1v-6c0 .6-.9 1-2 1z" opacity=".2"/><path d="m52 37c-1.1 0-2 .4-2 1v6c0 .6.9 1 2 1s2-.4 2-1v-6c0-.6-.9-1-2-1z" fill="#e5e5e5"/><path d="m52 39c-1.1 0-2-.4-2-1v6c0 .6.9 1 2 1s2-.4 2-1v-6c0 .6-.9 1-2 1z" opacity=".2"/><path d="m392 262c-1.1 0-2 .4-2 1v6c0 .6.9 1 2 1s2-.4 2-1v-6c0-.6-.9-1-2-1z" fill="#e5e5e5"/><path d="m392 264c-1.1 0-2-.4-2-1v6c0 .6.9 1 2 1s2-.4 2-1v-6c0 .6-.9 1-2 1z" opacity=".2"/><path d="m408 270c-1.1 0-2 .4-2 1v6c0 .6.9 1 2 1s2-.4 2-1v-6c0-.6-.9-1-2-1z" fill="#e5e5e5"/><path d="m408 272c-1.1 0-2-.4-2-1v6c0 .6.9 1 2 1s2-.4 2-1v-6c0 .6-.9 1-2 1z" opacity=".2"/><path d="m424 278c-1.1 0-2 .4-2 1v6c0 .6.9 1 2 1s2-.4 2-1v-6c0-.6-.9-1-2-1z" fill="#e5e5e5"/><path d="m424 280c-1.1 0-2-.4-2-1v6c0 .6.9 1 2 1s2-.4 2-1v-6c0 .6-.9 1-2 1z" opacity=".2"/><path d="m440 286c-1.1 0-2 .4-2 1v6c0 .6.9 1 2 1s2-.4 2-1v-6c0-.6-.9-1-2-1z" fill="#e5e5e5"/><path d="m440 288c-1.1 0-2-.4-2-1v6c0 .6.9 1 2 1s2-.4 2-1v-6c0 .6-.9 1-2 1z" opacity=".2"/><path d="m400 266c-1.1 0-2 .4-2 1v6c0 .6.9 1 2 1s2-.4 2-1v-6c0-.6-.9-1-2-1z" fill="#e5e5e5"/><path d="m400 268c-1.1 0-2-.4-2-1v6c0 .6.9 1 2 1s2-.4 2-1v-6c0 .6-.9 1-2 1z" opacity=".2"/><path d="m416 274c-1.1 0-2 .4-2 1v6c0 .6.9 1 2 1s2-.4 2-1v-6c0-.6-.9-1-2-1z" fill="#e5e5e5"/><path d="m416 276c-1.1 0-2-.4-2-1v6c0 .6.9 1 2 1s2-.4 2-1v-6c0 .6-.9 1-2 1z" opacity=".2"/><path d="m432 282c-1.1 0-2 .4-2 1v6c0 .6.9 1 2 1s2-.4 2-1v-6c0-.6-.9-1-2-1z" fill="#e5e5e5"/><path d="m432 284c-1.1 0-2-.4-2-1v6c0 .6.9 1 2 1s2-.4 2-1v-6c0 .6-.9 1-2 1z" opacity=".2"/><path d="m448 290c-1.1 0-2 .4-2 1v6c0 .6.9 1 2 1s2-.4 2-1v-6c0-.6-.9-1-2-1z" fill="#e5e5e5"/><path d="m448 292c-1.1 0-2-.4-2-1v6c0 .6.9 1 2 1s2-.4 2-1v-6c0 .6-.9 1-2 1z" opacity=".2"/><path d="m496 223c-1.1 0-2 .4-2 1v6c0 .6.9 1 2 1s2-.4 2-1v-6c0-.6-.9-1-2-1z" fill="#e5e5e5"/><path d="m496 225c-1.1 0-2-.4-2-1v6c0 .6.9 1 2 1s2-.4 2-1v-6c0 .6-.9 1-2 1z" opacity=".2"/><path d="m512 231c-1.1 0-2 .4-2 1v6c0 .6.9 1 2 1s2-.4 2-1v-6c0-.6-.9-1-2-1z" fill="#e5e5e5"/><path d="m512 233c-1.1 0-2-.4-2-1v6c0 .6.9 1 2 1s2-.4 2-1v-6c0 .6-.9 1-2 1z" opacity=".2"/><path d="m528 239c-1.1 0-2 .4-2 1v6c0 .6.9 1 2 1s2-.4 2-1v-6c0-.6-.9-1-2-1z" fill="#e5e5e5"/><path d="m528 241c-1.1 0-2-.4-2-1v6c0 .6.9 1 2 1s2-.4 2-1v-6c0 .6-.9 1-2 1z" opacity=".2"/><path d="m504 227c-1.1 0-2 .4-2 1v6c0 .6.9 1 2 1s2-.4 2-1v-6c0-.6-.9-1-2-1z" fill="#e5e5e5"/><path d="m504 229c-1.1 0-2-.4-2-1v6c0 .6.9 1 2 1s2-.4 2-1v-6c0 .6-.9 1-2 1z" opacity=".2"/><path d="m520 235c-1.1 0-2 .4-2 1v6c0 .6.9 1 2 1s2-.4 2-1v-6c0-.6-.9-1-2-1z" fill="#e5e5e5"/><path d="m520 237c-1.1 0-2-.4-2-1v6c0 .6.9 1 2 1s2-.4 2-1v-6c0 .6-.9 1-2 1z" opacity=".2"/><path d="m536 243c-1.1 0-2 .4-2 1v6c0 .6.9 1 2 1s2-.4 2-1v-6c0-.6-.9-1-2-1z" fill="#e5e5e5"/><path d="m536 245c-1.1 0-2-.4-2-1v6c0 .6.9 1 2 1s2-.4 2-1v-6c0 .6-.9 1-2 1z" opacity=".2"/><path d="m78 119 2 1 96-48-2-1z" opacity=".15"/><path d="m110 135 2 1 96-48-2-1z" opacity=".15"/><path d="m142 151 2 1 96-48-2-1z" opacity=".15"/><path d="m174 167 2 1 96-48-2-1z" opacity=".15"/><path d="m206 183 2 1 96-48-2-1z" opacity=".15"/><path d="m238 199 2 1 96-48-2-1z" opacity=".15"/><path d="m270 215 2 1 96-48-2-1z" opacity=".15"/><path d="m302 231 2 1 96-48-2-1z" opacity=".15"/><path d="m334 247 2 1 96-48-2-1z" opacity=".15"/><path d="m472 216-96 48h-8l96-48z" opacity=".2"/><path d="m384 258c-1.1 0-2 .4-2 1v6c0 .6.9 1 2 1s2-.4 2-1v-6c0-.6-.9-1-2-1z" fill="#e5e5e5"/><path d="m384 260c-1.1 0-2-.4-2-1v6c0 .6.9 1 2 1s2-.4 2-1v-6c0 .6-.9 1-2 1z" opacity=".2"/><path d="m27 70c0-1-.8-2.3-1.9-2.8-1-.5-1.9-.1-1.9.9v.3 1.9l3.7 1.9v-1.9c.1-.1.1-.2.1-.3z" fill="#e5e5e5"/><path d="m27 70c0-1-.8-2.3-1.9-2.8-1-.5-1.9-.1-1.9.9v.3 1.9l3.7 1.9v-1.9c.1-.1.1-.2.1-.3z" opacity=".11"/><path d="m26.6 69.8c0-.8-.6-1.8-1.4-2.2-.3-.2-.7-.2-.9-.1l-3.7 1.9c-.3.1-.5.4-.5.9 0 .8.6 1.8 1.4 2.2.3.2.6.2.9.1l3.7-1.9c.2-.1.5-.4.5-.9z" fill="#656565"/><path d="m23.2 71.9c0-1-.8-2.3-1.9-2.8-1-.5-1.9-.1-1.9.9v.3 1.9l3.7 1.9v-1.9c.1-.2.1-.2.1-.3z" fill="#e5e5e5"/><path d="m23.2 71.9c0-1-.8-2.3-1.9-2.8-1-.5-1.9-.1-1.9.9v.3 1.9l3.7 1.9v-1.9c.1-.2.1-.2.1-.3z" opacity=".11"/><path d="m93 37c0-1-.8-2.3-1.9-2.8-1-.5-1.9-.1-1.9.9v.3 1.9l3.7 1.9v-1.9c.1-.1.1-.2.1-.3z" fill="#e5e5e5"/><path d="m93 37c0-1-.8-2.3-1.9-2.8-1-.5-1.9-.1-1.9.9v.3 1.9l3.7 1.9v-1.9c.1-.1.1-.2.1-.3z" opacity=".11"/><path d="m92.6 36.8c0-.8-.6-1.8-1.4-2.2-.3-.2-.7-.2-.9-.1l-3.7 1.9c-.3.1-.5.4-.5.9 0 .8.6 1.8 1.4 2.2.3.2.6.2.9.1l3.7-1.9c.2-.1.5-.4.5-.9z" fill="#656565"/><path d="m89.2 38.9c0-1-.8-2.3-1.9-2.8-1-.5-1.9-.1-1.9.9v.3 1.9l3.7 1.9v-1.9c.1-.2.1-.2.1-.3z" fill="#e5e5e5"/><path d="m89.2 38.9c0-1-.8-2.3-1.9-2.8-1-.5-1.9-.1-1.9.9v.3 1.9l3.7 1.9v-1.9c.1-.2.1-.2.1-.3z" opacity=".11"/><path d="m24.5 51c0-1-.8-2.3-1.9-2.8-1-.5-1.9-.1-1.9.9v.3 1.9l3.7 1.9v-1.9c.1-.1.1-.2.1-.3z" fill="#e5e5e5"/><path d="m24.5 51c0-1-.8-2.3-1.9-2.8-1-.5-1.9-.1-1.9.9v.3 1.9l3.7 1.9v-1.9c.1-.1.1-.2.1-.3z" opacity=".11"/><path d="m24 50.8c0-.8-.6-1.8-1.4-2.2-.3-.2-.7-.2-.9-.1l-3.7 1.9c-.3.1-.5.4-.5.9 0 .8.6 1.8 1.4 2.2.3.2.6.2.9.1l3.7-1.9c.3-.1.5-.4.5-.9z" fill="#656565"/><path d="m20.7 52.9c0-1-.8-2.3-1.9-2.8-1-.5-1.8-.1-1.8.9v.3 1.9l3.7 1.9v-1.9c0-.2 0-.2 0-.3z" fill="#e5e5e5"/><path d="m20.7 52.9c0-1-.8-2.3-1.9-2.8-1-.5-1.8-.1-1.8.9v.3 1.9l3.7 1.9v-1.9c0-.2 0-.2 0-.3z" opacity=".11"/><path d="m60.5 33c0-1-.8-2.3-1.9-2.8-1-.5-1.9-.1-1.9.9v.3 1.9l3.7 1.9v-1.9c.1-.1.1-.2.1-.3z" fill="#e5e5e5"/><path d="m60.5 33c0-1-.8-2.3-1.9-2.8-1-.5-1.9-.1-1.9.9v.3 1.9l3.7 1.9v-1.9c.1-.1.1-.2.1-.3z" opacity=".11"/><path d="m60 32.8c0-.8-.6-1.8-1.4-2.2-.3-.2-.7-.2-.9-.1l-3.7 1.9c-.3.1-.5.4-.5.9 0 .8.6 1.8 1.4 2.2.3.2.6.2.9.1l3.7-1.9c.3-.1.5-.4.5-.9z" fill="#656565"/><path d="m56.7 34.9c0-1-.8-2.3-1.9-2.8-1-.5-1.8-.1-1.8.9v.3 1.9l3.7 1.9v-1.9c0-.2 0-.2 0-.3z" fill="#e5e5e5"/><path d="m56.7 34.9c0-1-.8-2.3-1.9-2.8-1-.5-1.8-.1-1.8.9v.3 1.9l3.7 1.9v-1.9c0-.2 0-.2 0-.3z" opacity=".11"/><path d="m134 42-96 48v5l2 1 96-48v-5z" fill="#e5e5e5"/><path d="m40 96-2-1v-5l2 1z" opacity=".11"/><path d="m136 48v-5l-96 48v5l8 8 96-48z" opacity=".29"/><path d="m30 36-6 3v2l4 2 6-3v-2z" fill="#e5e5e5"/><path d="m28 43-4-2v-2l4 2z" opacity=".11"/><path d="m34 40-6 3v-2l6-3z" opacity=".29"/><path d="m61 49-10 5v2l8 4 10-5v-2z" fill="#e5e5e5"/><path d="m59 60-8-4v-2l8 4z" opacity=".11"/><path d="m69 55-10 5v-2l10-5z" opacity=".29"/><path d="m102 48-8 4v2l4 2 8-4v-2z" fill="#e5e5e5"/><path d="m98 56-4-2v-2l4 2z" opacity=".11"/><path d="m106 52-8 4v-2l8-4z" opacity=".29"/><path d="m55 71-8 4v2l4 2 8-4v-2z" fill="#e5e5e5"/><path d="m51 79-4-2v-2l4 2z" opacity=".11"/><path d="m59 75-8 4v-2l8-4z" opacity=".29"/><path d="m64 81-14 7v15l30 15 14-7v-15z" fill="#f90"/><path d="m50 88v15l30 15v-15z" opacity=".11"/><path d="m94 96v15l-14 7v-15z" opacity=".29"/><path d="m53 91.5-1-.5v11l1 .5z" opacity=".15"/><path d="m55 92.5-1-.5v11l1 .5z" opacity=".15"/><path d="m57 93.5-1-.5v11l1 .5z" opacity=".15"/><path d="m59 94.5-1-.5v11l1 .5z" opacity=".15"/><path d="m61 95.5-1-.5v11l1 .5z" opacity=".15"/><path d="m63 96.5-1-.5v11l1 .5z" opacity=".15"/><path d="m65 97.5-1-.5v11l1 .5z" opacity=".15"/><path d="m67 98.5-1-.5v11l1 .5z" opacity=".15"/><path d="m69 99.5-1-.5v11l1 .5z" opacity=".15"/><path d="m71 100.5-1-.5v11l1 .5z" opacity=".15"/><path d="m73 101.5-1-.5v11l1 .5z" opacity=".15"/><path d="m75 102.5-1-.5v11l1 .5z" opacity=".15"/><path d="m77 103.5-1-.5v11l1 .5z" opacity=".15"/><path d="m79 104.5-1-.5v11l1 .5z" opacity=".15"/><path d="m96 97-14 7v15l30 15 14-7v-15z" fill="#fc0"/><path d="m82 104v15l30 15v-15z" opacity=".11"/><path d="m126 112v15l-14 7v-15z" opacity=".29"/><path d="m85 107.5-1-.5v11l1 .5z" opacity=".15"/><path d="m87 108.5-1-.5v11l1 .5z" opacity=".15"/><path d="m89 109.5-1-.5v11l1 .5z" opacity=".15"/><path d="m91 110.5-1-.5v11l1 .5z" opacity=".15"/><path d="m93 111.5-1-.5v11l1 .5z" opacity=".15"/><path d="m95 112.5-1-.5v11l1 .5z" opacity=".15"/><path d="m97 113.5-1-.5v11l1 .5z" opacity=".15"/><path d="m99 114.5-1-.5v11l1 .5z" opacity=".15"/><path d="m101 115.5-1-.5v11l1 .5z" opacity=".15"/><path d="m103 116.5-1-.5v11l1 .5z" opacity=".15"/><path d="m105 117.5-1-.5v11l1 .5z" opacity=".15"/><path d="m107 118.5-1-.5v11l1 .5z" opacity=".15"/><path d="m109 119.5-1-.5v11l1 .5z" opacity=".15"/><path d="m111 120.5-1-.5v11l1 .5z" opacity=".15"/><path d="m128 113-14 7v15l30 15 14-7v-15z" fill="#fc0"/><path d="m114 120v15l30 15v-15z" opacity=".11"/><path d="m158 128v15l-14 7v-15z" opacity=".29"/><path d="m117 123.5-1-.5v11l1 .5z" opacity=".15"/><path d="m119 124.5-1-.5v11l1 .5z" opacity=".15"/><path d="m121 125.5-1-.5v11l1 .5z" opacity=".15"/><path d="m123 126.5-1-.5v11l1 .5z" opacity=".15"/><path d="m125 127.5-1-.5v11l1 .5z" opacity=".15"/><path d="m127 128.5-1-.5v11l1 .5z" opacity=".15"/><path d="m129 129.5-1-.5v11l1 .5z" opacity=".15"/><path d="m131 130.5-1-.5v11l1 .5z" opacity=".15"/><path d="m133 131.5-1-.5v11l1 .5z" opacity=".15"/><path d="m135 132.5-1-.5v11l1 .5z" opacity=".15"/><path d="m137 133.5-1-.5v11l1 .5z" opacity=".15"/><path d="m139 134.5-1-.5v11l1 .5z" opacity=".15"/><path d="m141 135.5-1-.5v11l1 .5z" opacity=".15"/><path d="m143 136.5-1-.5v11l1 .5z" opacity=".15"/><path d="m160 129-14 7v15l30 15 14-7v-15z" fill="#f90"/><path d="m146 136v15l30 15v-15z" opacity=".11"/><path d="m190 144v15l-14 7v-15z" opacity=".29"/><path d="m149 139.5-1-.5v11l1 .5z" opacity=".15"/><path d="m151 140.5-1-.5v11l1 .5z" opacity=".15"/><path d="m153 141.5-1-.5v11l1 .5z" opacity=".15"/><path d="m155 142.5-1-.5v11l1 .5z" opacity=".15"/><path d="m157 143.5-1-.5v11l1 .5z" opacity=".15"/><path d="m159 144.5-1-.5v11l1 .5z" opacity=".15"/><path d="m161 145.5-1-.5v11l1 .5z" opacity=".15"/><path d="m163 146.5-1-.5v11l1 .5z" opacity=".15"/><path d="m165 147.5-1-.5v11l1 .5z" opacity=".15"/><path d="m167 148.5-1-.5v11l1 .5z" opacity=".15"/><path d="m169 149.5-1-.5v11l1 .5z" opacity=".15"/><path d="m171 150.5-1-.5v11l1 .5z" opacity=".15"/><path d="m173 151.5-1-.5v11l1 .5z" opacity=".15"/><path d="m175 152.5-1-.5v11l1 .5z" opacity=".15"/><path d="m192 145-14 7v15l30 15 14-7v-15z" fill="#539b00"/><path d="m178 152v15l30 15v-15z" opacity=".11"/><path d="m222 160v15l-14 7v-15z" opacity=".29"/><path d="m181 155.5-1-.5v11l1 .5z" opacity=".15"/><path d="m183 156.5-1-.5v11l1 .5z" opacity=".15"/><path d="m185 157.5-1-.5v11l1 .5z" opacity=".15"/><path d="m187 158.5-1-.5v11l1 .5z" opacity=".15"/><path d="m189 159.5-1-.5v11l1 .5z" opacity=".15"/><path d="m191 160.5-1-.5v11l1 .5z" opacity=".15"/><path d="m193 161.5-1-.5v11l1 .5z" opacity=".15"/><path d="m195 162.5-1-.5v11l1 .5z" opacity=".15"/><path d="m197 163.5-1-.5v11l1 .5z" opacity=".15"/><path d="m199 164.5-1-.5v11l1 .5z" opacity=".15"/><path d="m201 165.5-1-.5v11l1 .5z" opacity=".15"/><path d="m203 166.5-1-.5v11l1 .5z" opacity=".15"/><path d="m205 167.5-1-.5v11l1 .5z" opacity=".15"/><path d="m207 168.5-1-.5v11l1 .5z" opacity=".15"/><path d="m224 161-14 7v15l30 15 14-7v-15z" fill="#f90"/><path d="m210 168v15l30 15v-15z" opacity=".11"/><path d="m254 176v15l-14 7v-15z" opacity=".29"/><path d="m213 171.5-1-.5v11l1 .5z" opacity=".15"/><path d="m215 172.5-1-.5v11l1 .5z" opacity=".15"/><path d="m217 173.5-1-.5v11l1 .5z" opacity=".15"/><path d="m219 174.5-1-.5v11l1 .5z" opacity=".15"/><path d="m221 175.5-1-.5v11l1 .5z" opacity=".15"/><path d="m223 176.5-1-.5v11l1 .5z" opacity=".15"/><path d="m225 177.5-1-.5v11l1 .5z" opacity=".15"/><path d="m227 178.5-1-.5v11l1 .5z" opacity=".15"/><path d="m229 179.5-1-.5v11l1 .5z" opacity=".15"/><path d="m231 180.5-1-.5v11l1 .5z" opacity=".15"/><path d="m233 181.5-1-.5v11l1 .5z" opacity=".15"/><path d="m235 182.5-1-.5v11l1 .5z" opacity=".15"/><path d="m237 183.5-1-.5v11l1 .5z" opacity=".15"/><path d="m239 184.5-1-.5v11l1 .5z" opacity=".15"/><path d="m256 177-14 7v15l30 15 14-7v-15z" fill="#f90"/><path d="m242 184v15l30 15v-15z" opacity=".11"/><path d="m286 192v15l-14 7v-15z" opacity=".29"/><path d="m245 187.5-1-.5v11l1 .5z" opacity=".15"/><path d="m247 188.5-1-.5v11l1 .5z" opacity=".15"/><path d="m249 189.5-1-.5v11l1 .5z" opacity=".15"/><path d="m251 190.5-1-.5v11l1 .5z" opacity=".15"/><path d="m253 191.5-1-.5v11l1 .5z" opacity=".15"/><path d="m255 192.5-1-.5v11l1 .5z" opacity=".15"/><path d="m257 193.5-1-.5v11l1 .5z" opacity=".15"/><path d="m259 194.5-1-.5v11l1 .5z" opacity=".15"/><path d="m261 195.5-1-.5v11l1 .5z" opacity=".15"/><path d="m263 196.5-1-.5v11l1 .5z" opacity=".15"/><path d="m265 197.5-1-.5v11l1 .5z" opacity=".15"/><path d="m267 198.5-1-.5v11l1 .5z" opacity=".15"/><path d="m269 199.5-1-.5v11l1 .5z" opacity=".15"/><path d="m271 200.5-1-.5v11l1 .5z" opacity=".15"/><path d="m288 193-14 7v15l30 15 14-7v-15z" fill="#539b00"/><path d="m274 200v15l30 15v-15z" opacity=".11"/><path d="m318 208v15l-14 7v-15z" opacity=".29"/><path d="m277 203.5-1-.5v11l1 .5z" opacity=".15"/><path d="m279 204.5-1-.5v11l1 .5z" opacity=".15"/><path d="m281 205.5-1-.5v11l1 .5z" opacity=".15"/><path d="m283 206.5-1-.5v11l1 .5z" opacity=".15"/><path d="m285 207.5-1-.5v11l1 .5z" opacity=".15"/><path d="m287 208.5-1-.5v11l1 .5z" opacity=".15"/><path d="m289 209.5-1-.5v11l1 .5z" opacity=".15"/><path d="m291 210.5-1-.5v11l1 .5z" opacity=".15"/><path d="m293 211.5-1-.5v11l1 .5z" opacity=".15"/><path d="m295 212.5-1-.5v11l1 .5z" opacity=".15"/><path d="m297 213.5-1-.5v11l1 .5z" opacity=".15"/><path d="m299 214.5-1-.5v11l1 .5z" opacity=".15"/><path d="m301 215.5-1-.5v11l1 .5z" opacity=".15"/><path d="m303 216.5-1-.5v11l1 .5z" opacity=".15"/><path d="m320 209-14 7v15l30 15 14-7v-15z" fill="#f90"/><path d="m306 216v15l30 15v-15z" opacity=".11"/><path d="m350 224v15l-14 7v-15z" opacity=".29"/><path d="m309 219.5-1-.5v11l1 .5z" opacity=".15"/><path d="m311 220.5-1-.5v11l1 .5z" opacity=".15"/><path d="m313 221.5-1-.5v11l1 .5z" opacity=".15"/><path d="m315 222.5-1-.5v11l1 .5z" opacity=".15"/><path d="m317 223.5-1-.5v11l1 .5z" opacity=".15"/><path d="m319 224.5-1-.5v11l1 .5z" opacity=".15"/><path d="m321 225.5-1-.5v11l1 .5z" opacity=".15"/><path d="m323 226.5-1-.5v11l1 .5z" opacity=".15"/><path d="m325 227.5-1-.5v11l1 .5z" opacity=".15"/><path d="m327 228.5-1-.5v11l1 .5z" opacity=".15"/><path d="m329 229.5-1-.5v11l1 .5z" opacity=".15"/><path d="m331 230.5-1-.5v11l1 .5z" opacity=".15"/><path d="m333 231.5-1-.5v11l1 .5z" opacity=".15"/><path d="m335 232.5-1-.5v11l1 .5z" opacity=".15"/><path d="m432 185-14 7v15l30 15 14-7v-15z" fill="#fc0"/><path d="m418 192v15l30 15v-15z" opacity=".11"/><path d="m462 200v15l-14 7v-15z" opacity=".29"/><path d="m460 214-4 2v-11l4-2z" opacity=".15"/><path d="m454 217-4 2v-11l4-2z" opacity=".15"/><path d="m416 193-14 7v15l30 15 14-7v-15z" fill="#539b00"/><path d="m402 200v15l30 15v-15z" opacity=".11"/><path d="m446 208v15l-14 7v-15z" opacity=".29"/><path d="m444 222-4 2v-11l4-2z" opacity=".15"/><path d="m438 225-4 2v-11l4-2z" opacity=".15"/><path d="m400 201-14 7v15l30 15 14-7v-15z" fill="#fc0"/><path d="m386 208v15l30 15v-15z" opacity=".11"/><path d="m430 216v15l-14 7v-15z" opacity=".29"/><path d="m428 230-4 2v-11l4-2z" opacity=".15"/><path d="m422 233-4 2v-11l4-2z" opacity=".15"/><path d="m384 209-14 7v15l30 15 14-7v-15z" fill="#f90"/><path d="m370 216v15l30 15v-15z" opacity=".11"/><path d="m414 224v15l-14 7v-15z" opacity=".29"/><path d="m412 238-4 2v-11l4-2z" opacity=".15"/><path d="m406 241-4 2v-11l4-2z" opacity=".15"/><path d="m368 217-14 7v15l30 15 14-7v-15z" fill="#539b00"/><path d="m354 224v15l30 15v-15z" opacity=".11"/><path d="m398 232v15l-14 7v-15z" opacity=".29"/><path d="m396 246-4 2v-11l4-2z" opacity=".15"/><path d="m390 249-4 2v-11l4-2z" opacity=".15"/><path d="m352 225-14 7v15l30 15 14-7v-15z" fill="#539b00"/><path d="m338 232v15l30 15v-15z" opacity=".11"/><path d="m382 240v15l-14 7v-15z" opacity=".29"/><path d="m380 254-4 2v-11l4-2z" opacity=".15"/><path d="m374 257-4 2v-11l4-2z" opacity=".15"/><path d="m341 235.5-1-.5v11l1 .5z" opacity=".15"/><path d="m343 236.5-1-.5v11l1 .5z" opacity=".15"/><path d="m345 237.5-1-.5v11l1 .5z" opacity=".15"/><path d="m347 238.5-1-.5v11l1 .5z" opacity=".15"/><path d="m349 239.5-1-.5v11l1 .5z" opacity=".15"/><path d="m351 240.5-1-.5v11l1 .5z" opacity=".15"/><path d="m353 241.5-1-.5v11l1 .5z" opacity=".15"/><path d="m355 242.5-1-.5v11l1 .5z" opacity=".15"/><path d="m357 243.5-1-.5v11l1 .5z" opacity=".15"/><path d="m359 244.5-1-.5v11l1 .5z" opacity=".15"/><path d="m361 245.5-1-.5v11l1 .5z" opacity=".15"/><path d="m363 246.5-1-.5v11l1 .5z" opacity=".15"/><path d="m365 247.5-1-.5v11l1 .5z" opacity=".15"/><path d="m367 248.5-1-.5v11l1 .5z" opacity=".15"/><path d="m80 57-14 7v15l30 15 14-7v-15z" fill="#539b00"/><path d="m66 64v15l30 15v-15z" opacity=".11"/><path d="m110 72v15l-14 7v-15z" opacity=".29"/><path d="m336 185-14 7v15l30 15 14-7v-15z" fill="#f90"/><path d="m322 192v15l30 15v-15z" opacity=".11"/><path d="m366 200v15l-14 7v-15z" opacity=".29"/><path d="m364 214-4 2v-11l4-2z" opacity=".15"/><path d="m358 217-4 2v-11l4-2z" opacity=".15"/><path d="m64 65-14 7v15l30 15 14-7v-15z" fill="#539b00"/><path d="m50 72v15l30 15v-15z" opacity=".11"/><path d="m94 80v15l-14 7v-15z" opacity=".29"/><path d="m53 75.5-1-.5v11l1 .5z" opacity=".15"/><path d="m55 76.5-1-.5v11l1 .5z" opacity=".15"/><path d="m57 77.5-1-.5v11l1 .5z" opacity=".15"/><path d="m59 78.5-1-.5v11l1 .5z" opacity=".15"/><path d="m61 79.5-1-.5v11l1 .5z" opacity=".15"/><path d="m63 80.5-1-.5v11l1 .5z" opacity=".15"/><path d="m65 81.5-1-.5v11l1 .5z" opacity=".15"/><path d="m67 82.5-1-.5v11l1 .5z" opacity=".15"/><path d="m69 83.5-1-.5v11l1 .5z" opacity=".15"/><path d="m71 84.5-1-.5v11l1 .5z" opacity=".15"/><path d="m73 85.5-1-.5v11l1 .5z" opacity=".15"/><path d="m75 86.5-1-.5v11l1 .5z" opacity=".15"/><path d="m77 87.5-1-.5v11l1 .5z" opacity=".15"/><path d="m79 88.5-1-.5v11l1 .5z" opacity=".15"/><path d="m96 81-14 7v15l30 15 14-7v-15z" fill="#f90"/><path d="m82 88v15l30 15v-15z" opacity=".11"/><path d="m126 96v15l-14 7v-15z" opacity=".29"/><path d="m85 91.5-1-.5v11l1 .5z" opacity=".15"/><path d="m87 92.5-1-.5v11l1 .5z" opacity=".15"/><path d="m89 93.5-1-.5v11l1 .5z" opacity=".15"/><path d="m91 94.5-1-.5v11l1 .5z" opacity=".15"/><path d="m93 95.5-1-.5v11l1 .5z" opacity=".15"/><path d="m95 96.5-1-.5v11l1 .5z" opacity=".15"/><path d="m97 97.5-1-.5v11l1 .5z" opacity=".15"/><path d="m99 98.5-1-.5v11l1 .5z" opacity=".15"/><path d="m101 99.5-1-.5v11l1 .5z" opacity=".15"/><path d="m103 100.5-1-.5v11l1 .5z" opacity=".15"/><path d="m105 101.5-1-.5v11l1 .5z" opacity=".15"/><path d="m107 102.5-1-.5v11l1 .5z" opacity=".15"/><path d="m109 103.5-1-.5v11l1 .5z" opacity=".15"/><path d="m111 104.5-1-.5v11l1 .5z" opacity=".15"/><path d="m128 97-14 7v15l30 15 14-7v-15z" fill="#f90"/><path d="m114 104v15l30 15v-15z" opacity=".11"/><path d="m158 112v15l-14 7v-15z" opacity=".29"/><path d="m117 107.5-1-.5v11l1 .5z" opacity=".15"/><path d="m119 108.5-1-.5v11l1 .5z" opacity=".15"/><path d="m121 109.5-1-.5v11l1 .5z" opacity=".15"/><path d="m123 110.5-1-.5v11l1 .5z" opacity=".15"/><path d="m125 111.5-1-.5v11l1 .5z" opacity=".15"/><path d="m127 112.5-1-.5v11l1 .5z" opacity=".15"/><path d="m129 113.5-1-.5v11l1 .5z" opacity=".15"/><path d="m131 114.5-1-.5v11l1 .5z" opacity=".15"/><path d="m133 115.5-1-.5v11l1 .5z" opacity=".15"/><path d="m135 116.5-1-.5v11l1 .5z" opacity=".15"/><path d="m137 117.5-1-.5v11l1 .5z" opacity=".15"/><path d="m139 118.5-1-.5v11l1 .5z" opacity=".15"/><path d="m141 119.5-1-.5v11l1 .5z" opacity=".15"/><path d="m143 120.5-1-.5v11l1 .5z" opacity=".15"/><path d="m160 113-14 7v15l30 15 14-7v-15z" fill="#fc0"/><path d="m146 120v15l30 15v-15z" opacity=".11"/><path d="m190 128v15l-14 7v-15z" opacity=".29"/><path d="m149 123.5-1-.5v11l1 .5z" opacity=".15"/><path d="m151 124.5-1-.5v11l1 .5z" opacity=".15"/><path d="m153 125.5-1-.5v11l1 .5z" opacity=".15"/><path d="m155 126.5-1-.5v11l1 .5z" opacity=".15"/><path d="m157 127.5-1-.5v11l1 .5z" opacity=".15"/><path d="m159 128.5-1-.5v11l1 .5z" opacity=".15"/><path d="m161 129.5-1-.5v11l1 .5z" opacity=".15"/><path d="m163 130.5-1-.5v11l1 .5z" opacity=".15"/><path d="m165 131.5-1-.5v11l1 .5z" opacity=".15"/><path d="m167 132.5-1-.5v11l1 .5z" opacity=".15"/><path d="m169 133.5-1-.5v11l1 .5z" opacity=".15"/><path d="m171 134.5-1-.5v11l1 .5z" opacity=".15"/><path d="m173 135.5-1-.5v11l1 .5z" opacity=".15"/><path d="m175 136.5-1-.5v11l1 .5z" opacity=".15"/><path d="m192 129-14 7v15l30 15 14-7v-15z" fill="#539b00"/><path d="m178 136v15l30 15v-15z" opacity=".11"/><path d="m222 144v15l-14 7v-15z" opacity=".29"/><path d="m181 139.5-1-.5v11l1 .5z" opacity=".15"/><path d="m183 140.5-1-.5v11l1 .5z" opacity=".15"/><path d="m185 141.5-1-.5v11l1 .5z" opacity=".15"/><path d="m187 142.5-1-.5v11l1 .5z" opacity=".15"/><path d="m189 143.5-1-.5v11l1 .5z" opacity=".15"/><path d="m191 144.5-1-.5v11l1 .5z" opacity=".15"/><path d="m193 145.5-1-.5v11l1 .5z" opacity=".15"/><path d="m195 146.5-1-.5v11l1 .5z" opacity=".15"/><path d="m197 147.5-1-.5v11l1 .5z" opacity=".15"/><path d="m199 148.5-1-.5v11l1 .5z" opacity=".15"/><path d="m201 149.5-1-.5v11l1 .5z" opacity=".15"/><path d="m203 150.5-1-.5v11l1 .5z" opacity=".15"/><path d="m205 151.5-1-.5v11l1 .5z" opacity=".15"/><path d="m207 152.5-1-.5v11l1 .5z" opacity=".15"/><path d="m224 145-14 7v15l30 15 14-7v-15z" fill="#539b00"/><path d="m210 152v15l30 15v-15z" opacity=".11"/><path d="m254 160v15l-14 7v-15z" opacity=".29"/><path d="m213 155.5-1-.5v11l1 .5z" opacity=".15"/><path d="m215 156.5-1-.5v11l1 .5z" opacity=".15"/><path d="m217 157.5-1-.5v11l1 .5z" opacity=".15"/><path d="m219 158.5-1-.5v11l1 .5z" opacity=".15"/><path d="m221 159.5-1-.5v11l1 .5z" opacity=".15"/><path d="m223 160.5-1-.5v11l1 .5z" opacity=".15"/><path d="m225 161.5-1-.5v11l1 .5z" opacity=".15"/><path d="m227 162.5-1-.5v11l1 .5z" opacity=".15"/><path d="m229 163.5-1-.5v11l1 .5z" opacity=".15"/><path d="m231 164.5-1-.5v11l1 .5z" opacity=".15"/><path d="m233 165.5-1-.5v11l1 .5z" opacity=".15"/><path d="m235 166.5-1-.5v11l1 .5z" opacity=".15"/><path d="m237 167.5-1-.5v11l1 .5z" opacity=".15"/><path d="m239 168.5-1-.5v11l1 .5z" opacity=".15"/><path d="m256 161-14 7v15l30 15 14-7v-15z" fill="#f90"/><path d="m242 168v15l30 15v-15z" opacity=".11"/><path d="m286 176v15l-14 7v-15z" opacity=".29"/><path d="m245 171.5-1-.5v11l1 .5z" opacity=".15"/><path d="m247 172.5-1-.5v11l1 .5z" opacity=".15"/><path d="m249 173.5-1-.5v11l1 .5z" opacity=".15"/><path d="m251 174.5-1-.5v11l1 .5z" opacity=".15"/><path d="m253 175.5-1-.5v11l1 .5z" opacity=".15"/><path d="m255 176.5-1-.5v11l1 .5z" opacity=".15"/><path d="m257 177.5-1-.5v11l1 .5z" opacity=".15"/><path d="m259 178.5-1-.5v11l1 .5z" opacity=".15"/><path d="m261 179.5-1-.5v11l1 .5z" opacity=".15"/><path d="m263 180.5-1-.5v11l1 .5z" opacity=".15"/><path d="m265 181.5-1-.5v11l1 .5z" opacity=".15"/><path d="m267 182.5-1-.5v11l1 .5z" opacity=".15"/><path d="m269 183.5-1-.5v11l1 .5z" opacity=".15"/><path d="m271 184.5-1-.5v11l1 .5z" opacity=".15"/><path d="m288 177-14 7v15l30 15 14-7v-15z" fill="#fc0"/><path d="m274 184v15l30 15v-15z" opacity=".11"/><path d="m318 192v15l-14 7v-15z" opacity=".29"/><path d="m277 187.5-1-.5v11l1 .5z" opacity=".15"/><path d="m279 188.5-1-.5v11l1 .5z" opacity=".15"/><path d="m281 189.5-1-.5v11l1 .5z" opacity=".15"/><path d="m283 190.5-1-.5v11l1 .5z" opacity=".15"/><path d="m285 191.5-1-.5v11l1 .5z" opacity=".15"/><path d="m287 192.5-1-.5v11l1 .5z" opacity=".15"/><path d="m289 193.5-1-.5v11l1 .5z" opacity=".15"/><path d="m291 194.5-1-.5v11l1 .5z" opacity=".15"/><path d="m293 195.5-1-.5v11l1 .5z" opacity=".15"/><path d="m295 196.5-1-.5v11l1 .5z" opacity=".15"/><path d="m297 197.5-1-.5v11l1 .5z" opacity=".15"/><path d="m299 198.5-1-.5v11l1 .5z" opacity=".15"/><path d="m301 199.5-1-.5v11l1 .5z" opacity=".15"/><path d="m303 200.5-1-.5v11l1 .5z" opacity=".15"/><path d="m320 193-14 7v15l30 15 14-7v-15z" fill="#539b00"/><path d="m306 200v15l30 15v-15z" opacity=".11"/><path d="m350 208v15l-14 7v-15z" opacity=".29"/><path d="m309 203.5-1-.5v11l1 .5z" opacity=".15"/><path d="m311 204.5-1-.5v11l1 .5z" opacity=".15"/><path d="m313 205.5-1-.5v11l1 .5z" opacity=".15"/><path d="m315 206.5-1-.5v11l1 .5z" opacity=".15"/><path d="m317 207.5-1-.5v11l1 .5z" opacity=".15"/><path d="m319 208.5-1-.5v11l1 .5z" opacity=".15"/><path d="m321 209.5-1-.5v11l1 .5z" opacity=".15"/><path d="m323 210.5-1-.5v11l1 .5z" opacity=".15"/><path d="m325 211.5-1-.5v11l1 .5z" opacity=".15"/><path d="m327 212.5-1-.5v11l1 .5z" opacity=".15"/><path d="m329 213.5-1-.5v11l1 .5z" opacity=".15"/><path d="m331 214.5-1-.5v11l1 .5z" opacity=".15"/><path d="m333 215.5-1-.5v11l1 .5z" opacity=".15"/><path d="m335 216.5-1-.5v11l1 .5z" opacity=".15"/><path d="m432 169-14 7v15l30 15 14-7v-15z" fill="#539b00"/><path d="m418 176v15l30 15v-15z" opacity=".11"/><path d="m462 184v15l-14 7v-15z" opacity=".29"/><path d="m460 198-4 2v-11l4-2z" opacity=".15"/><path d="m454 201-4 2v-11l4-2z" opacity=".15"/><path d="m416 177-14 7v15l30 15 14-7v-15z" fill="#f90"/><path d="m402 184v15l30 15v-15z" opacity=".11"/><path d="m446 192v15l-14 7v-15z" opacity=".29"/><path d="m444 206-4 2v-11l4-2z" opacity=".15"/><path d="m438 209-4 2v-11l4-2z" opacity=".15"/><path d="m400 185-14 7v15l30 15 14-7v-15z" fill="#539b00"/><path d="m386 192v15l30 15v-15z" opacity=".11"/><path d="m430 200v15l-14 7v-15z" opacity=".29"/><path d="m428 214-4 2v-11l4-2z" opacity=".15"/><path d="m422 217-4 2v-11l4-2z" opacity=".15"/><path d="m384 193-14 7v15l30 15 14-7v-15z" fill="#f90"/><path d="m370 200v15l30 15v-15z" opacity=".11"/><path d="m414 208v15l-14 7v-15z" opacity=".29"/><path d="m412 222-4 2v-11l4-2z" opacity=".15"/><path d="m406 225-4 2v-11l4-2z" opacity=".15"/><path d="m368 201-14 7v15l30 15 14-7v-15z" fill="#f90"/><path d="m354 208v15l30 15v-15z" opacity=".11"/><path d="m398 216v15l-14 7v-15z" opacity=".29"/><path d="m396 230-4 2v-11l4-2z" opacity=".15"/><path d="m390 233-4 2v-11l4-2z" opacity=".15"/><path d="m352 209-14 7v15l30 15 14-7v-15z" fill="#fc0"/><path d="m338 216v15l30 15v-15z" opacity=".11"/><path d="m382 224v15l-14 7v-15z" opacity=".29"/><path d="m380 238-4 2v-11l4-2z" opacity=".15"/><path d="m374 241-4 2v-11l4-2z" opacity=".15"/><path d="m341 219.5-1-.5v11l1 .5z" opacity=".15"/><path d="m343 220.5-1-.5v11l1 .5z" opacity=".15"/><path d="m345 221.5-1-.5v11l1 .5z" opacity=".15"/><path d="m347 222.5-1-.5v11l1 .5z" opacity=".15"/><path d="m349 223.5-1-.5v11l1 .5z" opacity=".15"/><path d="m351 224.5-1-.5v11l1 .5z" opacity=".15"/><path d="m353 225.5-1-.5v11l1 .5z" opacity=".15"/><path d="m355 226.5-1-.5v11l1 .5z" opacity=".15"/><path d="m357 227.5-1-.5v11l1 .5z" opacity=".15"/><path d="m359 228.5-1-.5v11l1 .5z" opacity=".15"/><path d="m361 229.5-1-.5v11l1 .5z" opacity=".15"/><path d="m363 230.5-1-.5v11l1 .5z" opacity=".15"/><path d="m365 231.5-1-.5v11l1 .5z" opacity=".15"/><path d="m367 232.5-1-.5v11l1 .5z" opacity=".15"/><path d="m144 9-14 7v15l30 15 14-7v-15z" fill="#fc0"/><path d="m130 16v15l30 15v-15z" opacity=".11"/><path d="m174 24v15l-14 7v-15z" opacity=".29"/><path d="m128 17-14 7v15l30 15 14-7v-15z" fill="#fc0"/><path d="m114 24v15l30 15v-15z" opacity=".11"/><path d="m158 32v15l-14 7v-15z" opacity=".29"/><path d="m112 25-14 7v15l30 15 14-7v-15z" fill="#539b00"/><path d="m98 32v15l30 15v-15z" opacity=".11"/><path d="m142 40v15l-14 7v-15z" opacity=".29"/><path d="m96 33-14 7v15l30 15 14-7v-15z" fill="#539b00"/><path d="m82 40v15l30 15v-15z" opacity=".11"/><path d="m126 48v15l-14 7v-15z" opacity=".29"/><path d="m80 41-14 7v15l30 15 14-7v-15z" fill="#fc0"/><path d="m66 48v15l30 15v-15z" opacity=".11"/><path d="m110 56v15l-14 7v-15z" opacity=".29"/><path d="m69 51.5-1-.5v11l1 .5z" opacity=".15"/><path d="m71 52.5-1-.5v11l1 .5z" opacity=".15"/><path d="m73 53.5-1-.5v11l1 .5z" opacity=".15"/><path d="m75 54.5-1-.5v11l1 .5z" opacity=".15"/><path d="m77 55.5-1-.5v11l1 .5z" opacity=".15"/><path d="m79 56.5-1-.5v11l1 .5z" opacity=".15"/><path d="m81 57.5-1-.5v11l1 .5z" opacity=".15"/><path d="m83 58.5-1-.5v11l1 .5z" opacity=".15"/><path d="m85 59.5-1-.5v11l1 .5z" opacity=".15"/><path d="m87 60.5-1-.5v11l1 .5z" opacity=".15"/><path d="m89 61.5-1-.5v11l1 .5z" opacity=".15"/><path d="m91 62.5-1-.5v11l1 .5z" opacity=".15"/><path d="m93 63.5-1-.5v11l1 .5z" opacity=".15"/><path d="m95 64.5-1-.5v11l1 .5z" opacity=".15"/><path d="m176 25-14 7v15l30 15 14-7v-15z" fill="#fc0"/><path d="m162 32v15l30 15v-15z" opacity=".11"/><path d="m206 40v15l-14 7v-15z" opacity=".29"/><path d="m160 33-14 7v15l30 15 14-7v-15z" fill="#539b00"/><path d="m146 40v15l30 15v-15z" opacity=".11"/><path d="m190 48v15l-14 7v-15z" opacity=".29"/><path d="m144 41-14 7v15l30 15 14-7v-15z" fill="#f90"/><path d="m130 48v15l30 15v-15z" opacity=".11"/><path d="m174 56v15l-14 7v-15z" opacity=".29"/><path d="m128 49-14 7v15l30 15 14-7v-15z" fill="#fc0"/><path d="m114 56v15l30 15v-15z" opacity=".11"/><path d="m158 64v15l-14 7v-15z" opacity=".29"/><path d="m112 57-14 7v15l30 15 14-7v-15z" fill="#f90"/><path d="m98 64v15l30 15v-15z" opacity=".11"/><path d="m142 72v15l-14 7v-15z" opacity=".29"/><path d="m96 65-14 7v15l30 15 14-7v-15z" fill="#539b00"/><path d="m82 72v15l30 15v-15z" opacity=".11"/><path d="m126 80v15l-14 7v-15z" opacity=".29"/><path d="m85 75.5-1-.5v11l1 .5z" opacity=".15"/><path d="m87 76.5-1-.5v11l1 .5z" opacity=".15"/><path d="m89 77.5-1-.5v11l1 .5z" opacity=".15"/><path d="m91 78.5-1-.5v11l1 .5z" opacity=".15"/><path d="m93 79.5-1-.5v11l1 .5z" opacity=".15"/><path d="m95 80.5-1-.5v11l1 .5z" opacity=".15"/><path d="m97 81.5-1-.5v11l1 .5z" opacity=".15"/><path d="m99 82.5-1-.5v11l1 .5z" opacity=".15"/><path d="m101 83.5-1-.5v11l1 .5z" opacity=".15"/><path d="m103 84.5-1-.5v11l1 .5z" opacity=".15"/><path d="m105 85.5-1-.5v11l1 .5z" opacity=".15"/><path d="m107 86.5-1-.5v11l1 .5z" opacity=".15"/><path d="m109 87.5-1-.5v11l1 .5z" opacity=".15"/><path d="m111 88.5-1-.5v11l1 .5z" opacity=".15"/><path d="m208 41-14 7v15l30 15 14-7v-15z" fill="#f90"/><path d="m194 48v15l30 15v-15z" opacity=".11"/><path d="m238 56v15l-14 7v-15z" opacity=".29"/><path d="m192 49-14 7v15l30 15 14-7v-15z" fill="#f90"/><path d="m178 56v15l30 15v-15z" opacity=".11"/><path d="m222 64v15l-14 7v-15z" opacity=".29"/><path d="m176 57-14 7v15l30 15 14-7v-15z" fill="#539b00"/><path d="m162 64v15l30 15v-15z" opacity=".11"/><path d="m206 72v15l-14 7v-15z" opacity=".29"/><path d="m160 65-14 7v15l30 15 14-7v-15z" fill="#539b00"/><path d="m146 72v15l30 15v-15z" opacity=".11"/><path d="m190 80v15l-14 7v-15z" opacity=".29"/><path d="m144 73-14 7v15l30 15 14-7v-15z" fill="#fc0"/><path d="m130 80v15l30 15v-15z" opacity=".11"/><path d="m174 88v15l-14 7v-15z" opacity=".29"/><path d="m128 81-14 7v15l30 15 14-7v-15z" fill="#fc0"/><path d="m114 88v15l30 15v-15z" opacity=".11"/><path d="m158 96v15l-14 7v-15z" opacity=".29"/><path d="m117 91.5-1-.5v11l1 .5z" opacity=".15"/><path d="m119 92.5-1-.5v11l1 .5z" opacity=".15"/><path d="m121 93.5-1-.5v11l1 .5z" opacity=".15"/><path d="m123 94.5-1-.5v11l1 .5z" opacity=".15"/><path d="m125 95.5-1-.5v11l1 .5z" opacity=".15"/><path d="m127 96.5-1-.5v11l1 .5z" opacity=".15"/><path d="m129 97.5-1-.5v11l1 .5z" opacity=".15"/><path d="m131 98.5-1-.5v11l1 .5z" opacity=".15"/><path d="m133 99.5-1-.5v11l1 .5z" opacity=".15"/><path d="m135 100.5-1-.5v11l1 .5z" opacity=".15"/><path d="m137 101.5-1-.5v11l1 .5z" opacity=".15"/><path d="m139 102.5-1-.5v11l1 .5z" opacity=".15"/><path d="m141 103.5-1-.5v11l1 .5z" opacity=".15"/><path d="m143 104.5-1-.5v11l1 .5z" opacity=".15"/><path d="m240 57-14 7v15l30 15 14-7v-15z" fill="#f90"/><path d="m226 64v15l30 15v-15z" opacity=".11"/><path d="m270 72v15l-14 7v-15z" opacity=".29"/><path d="m224 65-14 7v15l30 15 14-7v-15z" fill="#fc0"/><path d="m210 72v15l30 15v-15z" opacity=".11"/><path d="m254 80v15l-14 7v-15z" opacity=".29"/><path d="m208 73-14 7v15l30 15 14-7v-15z" fill="#fc0"/><path d="m194 80v15l30 15v-15z" opacity=".11"/><path d="m238 88v15l-14 7v-15z" opacity=".29"/><path d="m192 81-14 7v15l30 15 14-7v-15z" fill="#f90"/><path d="m178 88v15l30 15v-15z" opacity=".11"/><path d="m222 96v15l-14 7v-15z" opacity=".29"/><path d="m176 89-14 7v15l30 15 14-7v-15z" fill="#539b00"/><path d="m162 96v15l30 15v-15z" opacity=".11"/><path d="m206 104v15l-14 7v-15z" opacity=".29"/><path d="m160 97-14 7v15l30 15 14-7v-15z" fill="#f90"/><path d="m146 104v15l30 15v-15z" opacity=".11"/><path d="m190 112v15l-14 7v-15z" opacity=".29"/><path d="m149 107.5-1-.5v11l1 .5z" opacity=".15"/><path d="m151 108.5-1-.5v11l1 .5z" opacity=".15"/><path d="m153 109.5-1-.5v11l1 .5z" opacity=".15"/><path d="m155 110.5-1-.5v11l1 .5z" opacity=".15"/><path d="m157 111.5-1-.5v11l1 .5z" opacity=".15"/><path d="m159 112.5-1-.5v11l1 .5z" opacity=".15"/><path d="m161 113.5-1-.5v11l1 .5z" opacity=".15"/><path d="m163 114.5-1-.5v11l1 .5z" opacity=".15"/><path d="m165 115.5-1-.5v11l1 .5z" opacity=".15"/><path d="m167 116.5-1-.5v11l1 .5z" opacity=".15"/><path d="m169 117.5-1-.5v11l1 .5z" opacity=".15"/><path d="m171 118.5-1-.5v11l1 .5z" opacity=".15"/><path d="m173 119.5-1-.5v11l1 .5z" opacity=".15"/><path d="m175 120.5-1-.5v11l1 .5z" opacity=".15"/><path d="m272 73-14 7v15l30 15 14-7v-15z" fill="#539b00"/><path d="m258 80v15l30 15v-15z" opacity=".11"/><path d="m302 88v15l-14 7v-15z" opacity=".29"/><path d="m256 81-14 7v15l30 15 14-7v-15z" fill="#f90"/><path d="m242 88v15l30 15v-15z" opacity=".11"/><path d="m286 96v15l-14 7v-15z" opacity=".29"/><path d="m240 89-14 7v15l30 15 14-7v-15z" fill="#fc0"/><path d="m226 96v15l30 15v-15z" opacity=".11"/><path d="m270 104v15l-14 7v-15z" opacity=".29"/><path d="m224 97-14 7v15l30 15 14-7v-15z" fill="#f90"/><path d="m210 104v15l30 15v-15z" opacity=".11"/><path d="m254 112v15l-14 7v-15z" opacity=".29"/><path d="m208 105-14 7v15l30 15 14-7v-15z" fill="#539b00"/><path d="m194 112v15l30 15v-15z" opacity=".11"/><path d="m238 120v15l-14 7v-15z" opacity=".29"/><path d="m192 113-14 7v15l30 15 14-7v-15z" fill="#fc0"/><path d="m178 120v15l30 15v-15z" opacity=".11"/><path d="m222 128v15l-14 7v-15z" opacity=".29"/><path d="m181 123.5-1-.5v11l1 .5z" opacity=".15"/><path d="m183 124.5-1-.5v11l1 .5z" opacity=".15"/><path d="m185 125.5-1-.5v11l1 .5z" opacity=".15"/><path d="m187 126.5-1-.5v11l1 .5z" opacity=".15"/><path d="m189 127.5-1-.5v11l1 .5z" opacity=".15"/><path d="m191 128.5-1-.5v11l1 .5z" opacity=".15"/><path d="m193 129.5-1-.5v11l1 .5z" opacity=".15"/><path d="m195 130.5-1-.5v11l1 .5z" opacity=".15"/><path d="m197 131.5-1-.5v11l1 .5z" opacity=".15"/><path d="m199 132.5-1-.5v11l1 .5z" opacity=".15"/><path d="m201 133.5-1-.5v11l1 .5z" opacity=".15"/><path d="m203 134.5-1-.5v11l1 .5z" opacity=".15"/><path d="m205 135.5-1-.5v11l1 .5z" opacity=".15"/><path d="m207 136.5-1-.5v11l1 .5z" opacity=".15"/><path d="m304 89-14 7v15l30 15 14-7v-15z" fill="#fc0"/><path d="m290 96v15l30 15v-15z" opacity=".11"/><path d="m334 104v15l-14 7v-15z" opacity=".29"/><path d="m288 97-14 7v15l30 15 14-7v-15z" fill="#539b00"/><path d="m274 104v15l30 15v-15z" opacity=".11"/><path d="m318 112v15l-14 7v-15z" opacity=".29"/><path d="m272 105-14 7v15l30 15 14-7v-15z" fill="#f90"/><path d="m258 112v15l30 15v-15z" opacity=".11"/><path d="m302 120v15l-14 7v-15z" opacity=".29"/><path d="m256 113-14 7v15l30 15 14-7v-15z" fill="#539b00"/><path d="m242 120v15l30 15v-15z" opacity=".11"/><path d="m286 128v15l-14 7v-15z" opacity=".29"/><path d="m240 121-14 7v15l30 15 14-7v-15z" fill="#f90"/><path d="m226 128v15l30 15v-15z" opacity=".11"/><path d="m270 136v15l-14 7v-15z" opacity=".29"/><path d="m224 129-14 7v15l30 15 14-7v-15z" fill="#f90"/><path d="m210 136v15l30 15v-15z" opacity=".11"/><path d="m254 144v15l-14 7v-15z" opacity=".29"/><path d="m213 139.5-1-.5v11l1 .5z" opacity=".15"/><path d="m215 140.5-1-.5v11l1 .5z" opacity=".15"/><path d="m217 141.5-1-.5v11l1 .5z" opacity=".15"/><path d="m219 142.5-1-.5v11l1 .5z" opacity=".15"/><path d="m221 143.5-1-.5v11l1 .5z" opacity=".15"/><path d="m223 144.5-1-.5v11l1 .5z" opacity=".15"/><path d="m225 145.5-1-.5v11l1 .5z" opacity=".15"/><path d="m227 146.5-1-.5v11l1 .5z" opacity=".15"/><path d="m229 147.5-1-.5v11l1 .5z" opacity=".15"/><path d="m231 148.5-1-.5v11l1 .5z" opacity=".15"/><path d="m233 149.5-1-.5v11l1 .5z" opacity=".15"/><path d="m235 150.5-1-.5v11l1 .5z" opacity=".15"/><path d="m237 151.5-1-.5v11l1 .5z" opacity=".15"/><path d="m239 152.5-1-.5v11l1 .5z" opacity=".15"/><path d="m336 105-14 7v15l30 15 14-7v-15z" fill="#fc0"/><path d="m322 112v15l30 15v-15z" opacity=".11"/><path d="m366 120v15l-14 7v-15z" opacity=".29"/><path d="m320 113-14 7v15l30 15 14-7v-15z" fill="#fc0"/><path d="m306 120v15l30 15v-15z" opacity=".11"/><path d="m350 128v15l-14 7v-15z" opacity=".29"/><path d="m304 121-14 7v15l30 15 14-7v-15z" fill="#f90"/><path d="m290 128v15l30 15v-15z" opacity=".11"/><path d="m334 136v15l-14 7v-15z" opacity=".29"/><path d="m288 129-14 7v15l30 15 14-7v-15z" fill="#539b00"/><path d="m274 136v15l30 15v-15z" opacity=".11"/><path d="m318 144v15l-14 7v-15z" opacity=".29"/><path d="m272 137-14 7v15l30 15 14-7v-15z" fill="#539b00"/><path d="m258 144v15l30 15v-15z" opacity=".11"/><path d="m302 152v15l-14 7v-15z" opacity=".29"/><path d="m256 145-14 7v15l30 15 14-7v-15z" fill="#fc0"/><path d="m242 152v15l30 15v-15z" opacity=".11"/><path d="m286 160v15l-14 7v-15z" opacity=".29"/><path d="m245 155.5-1-.5v11l1 .5z" opacity=".15"/><path d="m247 156.5-1-.5v11l1 .5z" opacity=".15"/><path d="m249 157.5-1-.5v11l1 .5z" opacity=".15"/><path d="m251 158.5-1-.5v11l1 .5z" opacity=".15"/><path d="m253 159.5-1-.5v11l1 .5z" opacity=".15"/><path d="m255 160.5-1-.5v11l1 .5z" opacity=".15"/><path d="m257 161.5-1-.5v11l1 .5z" opacity=".15"/><path d="m259 162.5-1-.5v11l1 .5z" opacity=".15"/><path d="m261 163.5-1-.5v11l1 .5z" opacity=".15"/><path d="m263 164.5-1-.5v11l1 .5z" opacity=".15"/><path d="m265 165.5-1-.5v11l1 .5z" opacity=".15"/><path d="m267 166.5-1-.5v11l1 .5z" opacity=".15"/><path d="m269 167.5-1-.5v11l1 .5z" opacity=".15"/><path d="m271 168.5-1-.5v11l1 .5z" opacity=".15"/><path d="m368 121-14 7v15l30 15 14-7v-15z" fill="#f90"/><path d="m354 128v15l30 15v-15z" opacity=".11"/><path d="m398 136v15l-14 7v-15z" opacity=".29"/><path d="m352 129-14 7v15l30 15 14-7v-15z" fill="#f90"/><path d="m338 136v15l30 15v-15z" opacity=".11"/><path d="m382 144v15l-14 7v-15z" opacity=".29"/><path d="m336 137-14 7v15l30 15 14-7v-15z" fill="#539b00"/><path d="m322 144v15l30 15v-15z" opacity=".11"/><path d="m366 152v15l-14 7v-15z" opacity=".29"/><path d="m320 145-14 7v15l30 15 14-7v-15z" fill="#fc0"/><path d="m306 152v15l30 15v-15z" opacity=".11"/><path d="m350 160v15l-14 7v-15z" opacity=".29"/><path d="m304 153-14 7v15l30 15 14-7v-15z" fill="#fc0"/><path d="m290 160v15l30 15v-15z" opacity=".11"/><path d="m334 168v15l-14 7v-15z" opacity=".29"/><path d="m288 161-14 7v15l30 15 14-7v-15z" fill="#f90"/><path d="m274 168v15l30 15v-15z" opacity=".11"/><path d="m318 176v15l-14 7v-15z" opacity=".29"/><path d="m277 171.5-1-.5v11l1 .5z" opacity=".15"/><path d="m279 172.5-1-.5v11l1 .5z" opacity=".15"/><path d="m281 173.5-1-.5v11l1 .5z" opacity=".15"/><path d="m283 174.5-1-.5v11l1 .5z" opacity=".15"/><path d="m285 175.5-1-.5v11l1 .5z" opacity=".15"/><path d="m287 176.5-1-.5v11l1 .5z" opacity=".15"/><path d="m289 177.5-1-.5v11l1 .5z" opacity=".15"/><path d="m291 178.5-1-.5v11l1 .5z" opacity=".15"/><path d="m293 179.5-1-.5v11l1 .5z" opacity=".15"/><path d="m295 180.5-1-.5v11l1 .5z" opacity=".15"/><path d="m297 181.5-1-.5v11l1 .5z" opacity=".15"/><path d="m299 182.5-1-.5v11l1 .5z" opacity=".15"/><path d="m301 183.5-1-.5v11l1 .5z" opacity=".15"/><path d="m303 184.5-1-.5v11l1 .5z" opacity=".15"/><path d="m400 137-14 7v15l30 15 14-7v-15z" fill="#f90"/><path d="m386 144v15l30 15v-15z" opacity=".11"/><path d="m430 152v15l-14 7v-15z" opacity=".29"/><path d="m384 145-14 7v15l30 15 14-7v-15z" fill="#fc0"/><path d="m370 152v15l30 15v-15z" opacity=".11"/><path d="m414 160v15l-14 7v-15z" opacity=".29"/><path d="m368 153-14 7v15l30 15 14-7v-15z" fill="#f90"/><path d="m354 160v15l30 15v-15z" opacity=".11"/><path d="m398 168v15l-14 7v-15z" opacity=".29"/><path d="m352 161-14 7v15l30 15 14-7v-15z" fill="#539b00"/><path d="m338 168v15l30 15v-15z" opacity=".11"/><path d="m382 176v15l-14 7v-15z" opacity=".29"/><path d="m336 169-14 7v15l30 15 14-7v-15z" fill="#fc0"/><path d="m322 176v15l30 15v-15z" opacity=".11"/><path d="m366 184v15l-14 7v-15z" opacity=".29"/><path d="m432 153-14 7v15l30 15 14-7v-15z" fill="#fc0"/><path d="m418 160v15l30 15v-15z" opacity=".11"/><path d="m462 168v15l-14 7v-15z" opacity=".29"/><path d="m460 182-4 2v-11l4-2z" opacity=".15"/><path d="m454 185-4 2v-11l4-2z" opacity=".15"/><path d="m416 161-14 7v15l30 15 14-7v-15z" fill="#539b00"/><path d="m402 168v15l30 15v-15z" opacity=".11"/><path d="m446 176v15l-14 7v-15z" opacity=".29"/><path d="m444 190-4 2v-11l4-2z" opacity=".15"/><path d="m438 193-4 2v-11l4-2z" opacity=".15"/><path d="m400 169-14 7v15l30 15 14-7v-15z" fill="#fc0"/><path d="m386 176v15l30 15v-15z" opacity=".11"/><path d="m430 184v15l-14 7v-15z" opacity=".29"/><path d="m428 198-4 2v-11l4-2z" opacity=".15"/><path d="m422 201-4 2v-11l4-2z" opacity=".15"/><path d="m384 177-14 7v15l30 15 14-7v-15z" fill="#f90"/><path d="m370 184v15l30 15v-15z" opacity=".11"/><path d="m414 192v15l-14 7v-15z" opacity=".29"/><path d="m412 206-4 2v-11l4-2z" opacity=".15"/><path d="m406 209-4 2v-11l4-2z" opacity=".15"/><path d="m368 185-14 7v15l30 15 14-7v-15z" fill="#539b00"/><path d="m354 192v15l30 15v-15z" opacity=".11"/><path d="m398 200v15l-14 7v-15z" opacity=".29"/><path d="m396 214-4 2v-11l4-2z" opacity=".15"/><path d="m390 217-4 2v-11l4-2z" opacity=".15"/><path d="m320 177-14 7v15l30 15 14-7v-15z" fill="#f90"/><path d="m306 184v15l30 15v-15z" opacity=".11"/><path d="m350 192v15l-14 7v-15z" opacity=".29"/><path d="m348 206-4 2v-11l4-2z" opacity=".15"/><path d="m342 209-4 2v-11l4-2z" opacity=".15"/><path d="m309 187.5-1-.5v11l1 .5z" opacity=".15"/><path d="m311 188.5-1-.5v11l1 .5z" opacity=".15"/><path d="m313 189.5-1-.5v11l1 .5z" opacity=".15"/><path d="m315 190.5-1-.5v11l1 .5z" opacity=".15"/><path d="m317 191.5-1-.5v11l1 .5z" opacity=".15"/><path d="m319 192.5-1-.5v11l1 .5z" opacity=".15"/><path d="m321 193.5-1-.5v11l1 .5z" opacity=".15"/><path d="m323 194.5-1-.5v11l1 .5z" opacity=".15"/><path d="m325 195.5-1-.5v11l1 .5z" opacity=".15"/><path d="m327 196.5-1-.5v11l1 .5z" opacity=".15"/><path d="m329 197.5-1-.5v11l1 .5z" opacity=".15"/><path d="m331 198.5-1-.5v11l1 .5z" opacity=".15"/><path d="m333 199.5-1-.5v11l1 .5z" opacity=".15"/><path d="m335 200.5-1-.5v11l1 .5z" opacity=".15"/><path d="m352 193-14 7v15l30 15 14-7v-15z" fill="#fc0"/><path d="m338 200v15l30 15v-15z" opacity=".11"/><path d="m382 208v15l-14 7v-15z" opacity=".29"/><path d="m380 222-4 2v-11l4-2z" opacity=".15"/><path d="m374 225-4 2v-11l4-2z" opacity=".15"/><path d="m341 203.5-1-.5v11l1 .5z" opacity=".15"/><path d="m343 204.5-1-.5v11l1 .5z" opacity=".15"/><path d="m345 205.5-1-.5v11l1 .5z" opacity=".15"/><path d="m347 206.5-1-.5v11l1 .5z" opacity=".15"/><path d="m349 207.5-1-.5v11l1 .5z" opacity=".15"/><path d="m351 208.5-1-.5v11l1 .5z" opacity=".15"/><path d="m353 209.5-1-.5v11l1 .5z" opacity=".15"/><path d="m355 210.5-1-.5v11l1 .5z" opacity=".15"/><path d="m357 211.5-1-.5v11l1 .5z" opacity=".15"/><path d="m359 212.5-1-.5v11l1 .5z" opacity=".15"/><path d="m361 213.5-1-.5v11l1 .5z" opacity=".15"/><path d="m363 214.5-1-.5v11l1 .5z" opacity=".15"/><path d="m365 215.5-1-.5v11l1 .5z" opacity=".15"/><path d="m367 216.5-1-.5v11l1 .5z" opacity=".15"/><path d="m176 9-14 7v15l30 15 14-7v-15z" fill="#fc0"/><path d="m162 16v15l30 15v-15z" opacity=".11"/><path d="m206 24v15l-14 7v-15z" opacity=".29"/><path d="m160 17-14 7v15l30 15 14-7v-15z" fill="#539b00"/><path d="m146 24v15l30 15v-15z" opacity=".11"/><path d="m190 32v15l-14 7v-15z" opacity=".29"/><path d="m144 25-14 7v15l30 15 14-7v-15z" fill="#f90"/><path d="m130 32v15l30 15v-15z" opacity=".11"/><path d="m174 40v15l-14 7v-15z" opacity=".29"/><path d="m128 33-14 7v15l30 15 14-7v-15z" fill="#fc0"/><path d="m114 40v15l30 15v-15z" opacity=".11"/><path d="m158 48v15l-14 7v-15z" opacity=".29"/><path d="m117 43.5-1-.5v11l1 .5z" opacity=".15"/><path d="m119 44.5-1-.5v11l1 .5z" opacity=".15"/><path d="m121 45.5-1-.5v11l1 .5z" opacity=".15"/><path d="m123 46.5-1-.5v11l1 .5z" opacity=".15"/><path d="m125 47.5-1-.5v11l1 .5z" opacity=".15"/><path d="m127 48.5-1-.5v11l1 .5z" opacity=".15"/><path d="m129 49.5-1-.5v11l1 .5z" opacity=".15"/><path d="m131 50.5-1-.5v11l1 .5z" opacity=".15"/><path d="m133 51.5-1-.5v11l1 .5z" opacity=".15"/><path d="m135 52.5-1-.5v11l1 .5z" opacity=".15"/><path d="m137 53.5-1-.5v11l1 .5z" opacity=".15"/><path d="m139 54.5-1-.5v11l1 .5z" opacity=".15"/><path d="m141 55.5-1-.5v11l1 .5z" opacity=".15"/><path d="m143 56.5-1-.5v11l1 .5z" opacity=".15"/><path d="m208 25-14 7v15l30 15 14-7v-15z" fill="#f90"/><path d="m194 32v15l30 15v-15z" opacity=".11"/><path d="m238 40v15l-14 7v-15z" opacity=".29"/><path d="m192 33-14 7v15l30 15 14-7v-15z" fill="#f90"/><path d="m178 40v15l30 15v-15z" opacity=".11"/><path d="m222 48v15l-14 7v-15z" opacity=".29"/><path d="m176 41-14 7v15l30 15 14-7v-15z" fill="#539b00"/><path d="m162 48v15l30 15v-15z" opacity=".11"/><path d="m206 56v15l-14 7v-15z" opacity=".29"/><path d="m160 49-14 7v15l30 15 14-7v-15z" fill="#539b00"/><path d="m146 56v15l30 15v-15z" opacity=".11"/><path d="m190 64v15l-14 7v-15z" opacity=".29"/><path d="m144 57-14 7v15l30 15 14-7v-15z" fill="#fc0"/><path d="m130 64v15l30 15v-15z" opacity=".11"/><path d="m174 72v15l-14 7v-15z" opacity=".29"/><path d="m133 67.5-1-.5v11l1 .5z" opacity=".15"/><path d="m135 68.5-1-.5v11l1 .5z" opacity=".15"/><path d="m137 69.5-1-.5v11l1 .5z" opacity=".15"/><path d="m139 70.5-1-.5v11l1 .5z" opacity=".15"/><path d="m141 71.5-1-.5v11l1 .5z" opacity=".15"/><path d="m143 72.5-1-.5v11l1 .5z" opacity=".15"/><path d="m145 73.5-1-.5v11l1 .5z" opacity=".15"/><path d="m147 74.5-1-.5v11l1 .5z" opacity=".15"/><path d="m149 75.5-1-.5v11l1 .5z" opacity=".15"/><path d="m151 76.5-1-.5v11l1 .5z" opacity=".15"/><path d="m153 77.5-1-.5v11l1 .5z" opacity=".15"/><path d="m155 78.5-1-.5v11l1 .5z" opacity=".15"/><path d="m157 79.5-1-.5v11l1 .5z" opacity=".15"/><path d="m159 80.5-1-.5v11l1 .5z" opacity=".15"/><path d="m240 41-14 7v15l30 15 14-7v-15z" fill="#f90"/><path d="m226 48v15l30 15v-15z" opacity=".11"/><path d="m270 56v15l-14 7v-15z" opacity=".29"/><path d="m224 49-14 7v15l30 15 14-7v-15z" fill="#fc0"/><path d="m210 56v15l30 15v-15z" opacity=".11"/><path d="m254 64v15l-14 7v-15z" opacity=".29"/><path d="m208 57-14 7v15l30 15 14-7v-15z" fill="#fc0"/><path d="m194 64v15l30 15v-15z" opacity=".11"/><path d="m238 72v15l-14 7v-15z" opacity=".29"/><path d="m192 65-14 7v15l30 15 14-7v-15z" fill="#f90"/><path d="m178 72v15l30 15v-15z" opacity=".11"/><path d="m222 80v15l-14 7v-15z" opacity=".29"/><path d="m176 73-14 7v15l30 15 14-7v-15z" fill="#539b00"/><path d="m162 80v15l30 15v-15z" opacity=".11"/><path d="m206 88v15l-14 7v-15z" opacity=".29"/><path d="m160 81-14 7v15l30 15 14-7v-15z" fill="#f90"/><path d="m146 88v15l30 15v-15z" opacity=".11"/><path d="m190 96v15l-14 7v-15z" opacity=".29"/><path d="m149 91.5-1-.5v11l1 .5z" opacity=".15"/><path d="m151 92.5-1-.5v11l1 .5z" opacity=".15"/><path d="m153 93.5-1-.5v11l1 .5z" opacity=".15"/><path d="m155 94.5-1-.5v11l1 .5z" opacity=".15"/><path d="m157 95.5-1-.5v11l1 .5z" opacity=".15"/><path d="m159 96.5-1-.5v11l1 .5z" opacity=".15"/><path d="m161 97.5-1-.5v11l1 .5z" opacity=".15"/><path d="m163 98.5-1-.5v11l1 .5z" opacity=".15"/><path d="m165 99.5-1-.5v11l1 .5z" opacity=".15"/><path d="m167 100.5-1-.5v11l1 .5z" opacity=".15"/><path d="m169 101.5-1-.5v11l1 .5z" opacity=".15"/><path d="m171 102.5-1-.5v11l1 .5z" opacity=".15"/><path d="m173 103.5-1-.5v11l1 .5z" opacity=".15"/><path d="m175 104.5-1-.5v11l1 .5z" opacity=".15"/><path d="m272 57-14 7v15l30 15 14-7v-15z" fill="#539b00"/><path d="m258 64v15l30 15v-15z" opacity=".11"/><path d="m302 72v15l-14 7v-15z" opacity=".29"/><path d="m256 65-14 7v15l30 15 14-7v-15z" fill="#f90"/><path d="m242 72v15l30 15v-15z" opacity=".11"/><path d="m286 80v15l-14 7v-15z" opacity=".29"/><path d="m240 73-14 7v15l30 15 14-7v-15z" fill="#fc0"/><path d="m226 80v15l30 15v-15z" opacity=".11"/><path d="m270 88v15l-14 7v-15z" opacity=".29"/><path d="m224 81-14 7v15l30 15 14-7v-15z" fill="#f90"/><path d="m210 88v15l30 15v-15z" opacity=".11"/><path d="m254 96v15l-14 7v-15z" opacity=".29"/><path d="m208 89-14 7v15l30 15 14-7v-15z" fill="#539b00"/><path d="m194 96v15l30 15v-15z" opacity=".11"/><path d="m238 104v15l-14 7v-15z" opacity=".29"/><path d="m192 97-14 7v15l30 15 14-7v-15z" fill="#539b00"/><path d="m178 104v15l30 15v-15z" opacity=".11"/><path d="m222 112v15l-14 7v-15z" opacity=".29"/><path d="m181 107.5-1-.5v11l1 .5z" opacity=".15"/><path d="m183 108.5-1-.5v11l1 .5z" opacity=".15"/><path d="m185 109.5-1-.5v11l1 .5z" opacity=".15"/><path d="m187 110.5-1-.5v11l1 .5z" opacity=".15"/><path d="m189 111.5-1-.5v11l1 .5z" opacity=".15"/><path d="m191 112.5-1-.5v11l1 .5z" opacity=".15"/><path d="m193 113.5-1-.5v11l1 .5z" opacity=".15"/><path d="m195 114.5-1-.5v11l1 .5z" opacity=".15"/><path d="m197 115.5-1-.5v11l1 .5z" opacity=".15"/><path d="m199 116.5-1-.5v11l1 .5z" opacity=".15"/><path d="m201 117.5-1-.5v11l1 .5z" opacity=".15"/><path d="m203 118.5-1-.5v11l1 .5z" opacity=".15"/><path d="m205 119.5-1-.5v11l1 .5z" opacity=".15"/><path d="m207 120.5-1-.5v11l1 .5z" opacity=".15"/><path d="m304 73-14 7v15l30 15 14-7v-15z" fill="#fc0"/><path d="m290 80v15l30 15v-15z" opacity=".11"/><path d="m334 88v15l-14 7v-15z" opacity=".29"/><path d="m288 81-14 7v15l30 15 14-7v-15z" fill="#539b00"/><path d="m274 88v15l30 15v-15z" opacity=".11"/><path d="m318 96v15l-14 7v-15z" opacity=".29"/><path d="m272 89-14 7v15l30 15 14-7v-15z" fill="#f90"/><path d="m258 96v15l30 15v-15z" opacity=".11"/><path d="m302 104v15l-14 7v-15z" opacity=".29"/><path d="m256 97-14 7v15l30 15 14-7v-15z" fill="#539b00"/><path d="m242 104v15l30 15v-15z" opacity=".11"/><path d="m286 112v15l-14 7v-15z" opacity=".29"/><path d="m240 105-14 7v15l30 15 14-7v-15z" fill="#f90"/><path d="m226 112v15l30 15v-15z" opacity=".11"/><path d="m270 120v15l-14 7v-15z" opacity=".29"/><path d="m224 113-14 7v15l30 15 14-7v-15z" fill="#f90"/><path d="m210 120v15l30 15v-15z" opacity=".11"/><path d="m254 128v15l-14 7v-15z" opacity=".29"/><path d="m213 123.5-1-.5v11l1 .5z" opacity=".15"/><path d="m215 124.5-1-.5v11l1 .5z" opacity=".15"/><path d="m217 125.5-1-.5v11l1 .5z" opacity=".15"/><path d="m219 126.5-1-.5v11l1 .5z" opacity=".15"/><path d="m221 127.5-1-.5v11l1 .5z" opacity=".15"/><path d="m223 128.5-1-.5v11l1 .5z" opacity=".15"/><path d="m225 129.5-1-.5v11l1 .5z" opacity=".15"/><path d="m227 130.5-1-.5v11l1 .5z" opacity=".15"/><path d="m229 131.5-1-.5v11l1 .5z" opacity=".15"/><path d="m231 132.5-1-.5v11l1 .5z" opacity=".15"/><path d="m233 133.5-1-.5v11l1 .5z" opacity=".15"/><path d="m235 134.5-1-.5v11l1 .5z" opacity=".15"/><path d="m237 135.5-1-.5v11l1 .5z" opacity=".15"/><path d="m239 136.5-1-.5v11l1 .5z" opacity=".15"/><path d="m336 89-14 7v15l30 15 14-7v-15z" fill="#fc0"/><path d="m322 96v15l30 15v-15z" opacity=".11"/><path d="m366 104v15l-14 7v-15z" opacity=".29"/><path d="m320 97-14 7v15l30 15 14-7v-15z" fill="#fc0"/><path d="m306 104v15l30 15v-15z" opacity=".11"/><path d="m350 112v15l-14 7v-15z" opacity=".29"/><path d="m304 105-14 7v15l30 15 14-7v-15z" fill="#f90"/><path d="m290 112v15l30 15v-15z" opacity=".11"/><path d="m334 120v15l-14 7v-15z" opacity=".29"/><path d="m288 113-14 7v15l30 15 14-7v-15z" fill="#539b00"/><path d="m274 120v15l30 15v-15z" opacity=".11"/><path d="m318 128v15l-14 7v-15z" opacity=".29"/><path d="m272 121-14 7v15l30 15 14-7v-15z" fill="#539b00"/><path d="m258 128v15l30 15v-15z" opacity=".11"/><path d="m302 136v15l-14 7v-15z" opacity=".29"/><path d="m256 129-14 7v15l30 15 14-7v-15z" fill="#539b00"/><path d="m242 136v15l30 15v-15z" opacity=".11"/><path d="m286 144v15l-14 7v-15z" opacity=".29"/><path d="m245 139.5-1-.5v11l1 .5z" opacity=".15"/><path d="m247 140.5-1-.5v11l1 .5z" opacity=".15"/><path d="m249 141.5-1-.5v11l1 .5z" opacity=".15"/><path d="m251 142.5-1-.5v11l1 .5z" opacity=".15"/><path d="m253 143.5-1-.5v11l1 .5z" opacity=".15"/><path d="m255 144.5-1-.5v11l1 .5z" opacity=".15"/><path d="m257 145.5-1-.5v11l1 .5z" opacity=".15"/><path d="m259 146.5-1-.5v11l1 .5z" opacity=".15"/><path d="m261 147.5-1-.5v11l1 .5z" opacity=".15"/><path d="m263 148.5-1-.5v11l1 .5z" opacity=".15"/><path d="m265 149.5-1-.5v11l1 .5z" opacity=".15"/><path d="m267 150.5-1-.5v11l1 .5z" opacity=".15"/><path d="m269 151.5-1-.5v11l1 .5z" opacity=".15"/><path d="m271 152.5-1-.5v11l1 .5z" opacity=".15"/><path d="m368 105-14 7v15l30 15 14-7v-15z" fill="#f90"/><path d="m354 112v15l30 15v-15z" opacity=".11"/><path d="m398 120v15l-14 7v-15z" opacity=".29"/><path d="m352 113-14 7v15l30 15 14-7v-15z" fill="#f90"/><path d="m338 120v15l30 15v-15z" opacity=".11"/><path d="m382 128v15l-14 7v-15z" opacity=".29"/><path d="m336 121-14 7v15l30 15 14-7v-15z" fill="#539b00"/><path d="m322 128v15l30 15v-15z" opacity=".11"/><path d="m366 136v15l-14 7v-15z" opacity=".29"/><path d="m320 129-14 7v15l30 15 14-7v-15z" fill="#fc0"/><path d="m306 136v15l30 15v-15z" opacity=".11"/><path d="m350 144v15l-14 7v-15z" opacity=".29"/><path d="m304 137-14 7v15l30 15 14-7v-15z" fill="#fc0"/><path d="m290 144v15l30 15v-15z" opacity=".11"/><path d="m334 152v15l-14 7v-15z" opacity=".29"/><path d="m288 145-14 7v15l30 15 14-7v-15z" fill="#fc0"/><path d="m274 152v15l30 15v-15z" opacity=".11"/><path d="m318 160v15l-14 7v-15z" opacity=".29"/><path d="m277 155.5-1-.5v11l1 .5z" opacity=".15"/><path d="m279 156.5-1-.5v11l1 .5z" opacity=".15"/><path d="m281 157.5-1-.5v11l1 .5z" opacity=".15"/><path d="m283 158.5-1-.5v11l1 .5z" opacity=".15"/><path d="m285 159.5-1-.5v11l1 .5z" opacity=".15"/><path d="m287 160.5-1-.5v11l1 .5z" opacity=".15"/><path d="m289 161.5-1-.5v11l1 .5z" opacity=".15"/><path d="m291 162.5-1-.5v11l1 .5z" opacity=".15"/><path d="m293 163.5-1-.5v11l1 .5z" opacity=".15"/><path d="m295 164.5-1-.5v11l1 .5z" opacity=".15"/><path d="m297 165.5-1-.5v11l1 .5z" opacity=".15"/><path d="m299 166.5-1-.5v11l1 .5z" opacity=".15"/><path d="m301 167.5-1-.5v11l1 .5z" opacity=".15"/><path d="m303 168.5-1-.5v11l1 .5z" opacity=".15"/><path d="m400 121-14 7v15l30 15 14-7v-15z" fill="#f90"/><path d="m386 128v15l30 15v-15z" opacity=".11"/><path d="m430 136v15l-14 7v-15z" opacity=".29"/><path d="m384 129-14 7v15l30 15 14-7v-15z" fill="#fc0"/><path d="m370 136v15l30 15v-15z" opacity=".11"/><path d="m414 144v15l-14 7v-15z" opacity=".29"/><path d="m368 137-14 7v15l30 15 14-7v-15z" fill="#f90"/><path d="m354 144v15l30 15v-15z" opacity=".11"/><path d="m398 152v15l-14 7v-15z" opacity=".29"/><path d="m352 145-14 7v15l30 15 14-7v-15z" fill="#539b00"/><path d="m338 152v15l30 15v-15z" opacity=".11"/><path d="m382 160v15l-14 7v-15z" opacity=".29"/><path d="m336 153-14 7v15l30 15 14-7v-15z" fill="#fc0"/><path d="m322 160v15l30 15v-15z" opacity=".11"/><path d="m366 168v15l-14 7v-15z" opacity=".29"/><path d="m432 137-14 7v15l30 15 14-7v-15z" fill="#fc0"/><path d="m418 144v15l30 15v-15z" opacity=".11"/><path d="m462 152v15l-14 7v-15z" opacity=".29"/><path d="m460 166-4 2v-11l4-2z" opacity=".15"/><path d="m454 169-4 2v-11l4-2z" opacity=".15"/><path d="m416 145-14 7v15l30 15 14-7v-15z" fill="#539b00"/><path d="m402 152v15l30 15v-15z" opacity=".11"/><path d="m446 160v15l-14 7v-15z" opacity=".29"/><path d="m444 174-4 2v-11l4-2z" opacity=".15"/><path d="m438 177-4 2v-11l4-2z" opacity=".15"/><path d="m400 153-14 7v15l30 15 14-7v-15z" fill="#fc0"/><path d="m386 160v15l30 15v-15z" opacity=".11"/><path d="m430 168v15l-14 7v-15z" opacity=".29"/><path d="m428 182-4 2v-11l4-2z" opacity=".15"/><path d="m422 185-4 2v-11l4-2z" opacity=".15"/><path d="m384 161-14 7v15l30 15 14-7v-15z" fill="#f90"/><path d="m370 168v15l30 15v-15z" opacity=".11"/><path d="m414 176v15l-14 7v-15z" opacity=".29"/><path d="m412 190-4 2v-11l4-2z" opacity=".15"/><path d="m406 193-4 2v-11l4-2z" opacity=".15"/><path d="m368 169-14 7v15l30 15 14-7v-15z" fill="#539b00"/><path d="m354 176v15l30 15v-15z" opacity=".11"/><path d="m398 184v15l-14 7v-15z" opacity=".29"/><path d="m396 198-4 2v-11l4-2z" opacity=".15"/><path d="m390 201-4 2v-11l4-2z" opacity=".15"/><path d="m320 161-14 7v15l30 15 14-7v-15z" fill="#539b00"/><path d="m306 168v15l30 15v-15z" opacity=".11"/><path d="m350 176v15l-14 7v-15z" opacity=".29"/><path d="m348 190-4 2v-11l4-2z" opacity=".15"/><path d="m342 193-4 2v-11l4-2z" opacity=".15"/><path d="m309 171.5-1-.5v11l1 .5z" opacity=".15"/><path d="m311 172.5-1-.5v11l1 .5z" opacity=".15"/><path d="m313 173.5-1-.5v11l1 .5z" opacity=".15"/><path d="m315 174.5-1-.5v11l1 .5z" opacity=".15"/><path d="m317 175.5-1-.5v11l1 .5z" opacity=".15"/><path d="m319 176.5-1-.5v11l1 .5z" opacity=".15"/><path d="m321 177.5-1-.5v11l1 .5z" opacity=".15"/><path d="m323 178.5-1-.5v11l1 .5z" opacity=".15"/><path d="m325 179.5-1-.5v11l1 .5z" opacity=".15"/><path d="m327 180.5-1-.5v11l1 .5z" opacity=".15"/><path d="m329 181.5-1-.5v11l1 .5z" opacity=".15"/><path d="m331 182.5-1-.5v11l1 .5z" opacity=".15"/><path d="m333 183.5-1-.5v11l1 .5z" opacity=".15"/><path d="m335 184.5-1-.5v11l1 .5z" opacity=".15"/><path d="m352 177-14 7v15l30 15 14-7v-15z" fill="#f90"/><path d="m338 184v15l30 15v-15z" opacity=".11"/><path d="m382 192v15l-14 7v-15z" opacity=".29"/><path d="m380 206-4 2v-11l4-2z" opacity=".15"/><path d="m374 209-4 2v-11l4-2z" opacity=".15"/><path d="m341 187.5-1-.5v11l1 .5z" opacity=".15"/><path d="m343 188.5-1-.5v11l1 .5z" opacity=".15"/><path d="m345 189.5-1-.5v11l1 .5z" opacity=".15"/><path d="m347 190.5-1-.5v11l1 .5z" opacity=".15"/><path d="m349 191.5-1-.5v11l1 .5z" opacity=".15"/><path d="m351 192.5-1-.5v11l1 .5z" opacity=".15"/><path d="m353 193.5-1-.5v11l1 .5z" opacity=".15"/><path d="m355 194.5-1-.5v11l1 .5z" opacity=".15"/><path d="m357 195.5-1-.5v11l1 .5z" opacity=".15"/><path d="m359 196.5-1-.5v11l1 .5z" opacity=".15"/><path d="m361 197.5-1-.5v11l1 .5z" opacity=".15"/><path d="m363 198.5-1-.5v11l1 .5z" opacity=".15"/><path d="m365 199.5-1-.5v11l1 .5z" opacity=".15"/><path d="m367 200.5-1-.5v11l1 .5z" opacity=".15"/><path d="m240 25-14 7v15l30 15 14-7v-15z" fill="#f90"/><path d="m226 32v15l30 15v-15z" opacity=".11"/><path d="m270 40v15l-14 7v-15z" opacity=".29"/><path d="m224 33-14 7v15l30 15 14-7v-15z" fill="#fc0"/><path d="m210 40v15l30 15v-15z" opacity=".11"/><path d="m254 48v15l-14 7v-15z" opacity=".29"/><path d="m208 41-14 7v15l30 15 14-7v-15z" fill="#539b00"/><path d="m194 48v15l30 15v-15z" opacity=".11"/><path d="m238 56v15l-14 7v-15z" opacity=".29"/><path d="m192 49-14 7v15l30 15 14-7v-15z" fill="#fc0"/><path d="m178 56v15l30 15v-15z" opacity=".11"/><path d="m222 64v15l-14 7v-15z" opacity=".29"/><path d="m181 59.5-1-.5v11l1 .5z" opacity=".15"/><path d="m183 60.5-1-.5v11l1 .5z" opacity=".15"/><path d="m185 61.5-1-.5v11l1 .5z" opacity=".15"/><path d="m187 62.5-1-.5v11l1 .5z" opacity=".15"/><path d="m189 63.5-1-.5v11l1 .5z" opacity=".15"/><path d="m191 64.5-1-.5v11l1 .5z" opacity=".15"/><path d="m193 65.5-1-.5v11l1 .5z" opacity=".15"/><path d="m195 66.5-1-.5v11l1 .5z" opacity=".15"/><path d="m197 67.5-1-.5v11l1 .5z" opacity=".15"/><path d="m199 68.5-1-.5v11l1 .5z" opacity=".15"/><path d="m201 69.5-1-.5v11l1 .5z" opacity=".15"/><path d="m203 70.5-1-.5v11l1 .5z" opacity=".15"/><path d="m205 71.5-1-.5v11l1 .5z" opacity=".15"/><path d="m207 72.5-1-.5v11l1 .5z" opacity=".15"/><path d="m272 41-14 7v15l30 15 14-7v-15z" fill="#539b00"/><path d="m258 48v15l30 15v-15z" opacity=".11"/><path d="m302 56v15l-14 7v-15z" opacity=".29"/><path d="m256 49-14 7v15l30 15 14-7v-15z" fill="#f90"/><path d="m242 56v15l30 15v-15z" opacity=".11"/><path d="m286 64v15l-14 7v-15z" opacity=".29"/><path d="m240 57-14 7v15l30 15 14-7v-15z" fill="#fc0"/><path d="m226 64v15l30 15v-15z" opacity=".11"/><path d="m270 72v15l-14 7v-15z" opacity=".29"/><path d="m224 65-14 7v15l30 15 14-7v-15z" fill="#fc0"/><path d="m210 72v15l30 15v-15z" opacity=".11"/><path d="m254 80v15l-14 7v-15z" opacity=".29"/><path d="m208 73-14 7v15l30 15 14-7v-15z" fill="#539b00"/><path d="m194 80v15l30 15v-15z" opacity=".11"/><path d="m238 88v15l-14 7v-15z" opacity=".29"/><path d="m192 81-14 7v15l30 15 14-7v-15z" fill="#fc0"/><path d="m178 88v15l30 15v-15z" opacity=".11"/><path d="m222 96v15l-14 7v-15z" opacity=".29"/><path d="m181 91.5-1-.5v11l1 .5z" opacity=".15"/><path d="m183 92.5-1-.5v11l1 .5z" opacity=".15"/><path d="m185 93.5-1-.5v11l1 .5z" opacity=".15"/><path d="m187 94.5-1-.5v11l1 .5z" opacity=".15"/><path d="m189 95.5-1-.5v11l1 .5z" opacity=".15"/><path d="m191 96.5-1-.5v11l1 .5z" opacity=".15"/><path d="m193 97.5-1-.5v11l1 .5z" opacity=".15"/><path d="m195 98.5-1-.5v11l1 .5z" opacity=".15"/><path d="m197 99.5-1-.5v11l1 .5z" opacity=".15"/><path d="m199 100.5-1-.5v11l1 .5z" opacity=".15"/><path d="m201 101.5-1-.5v11l1 .5z" opacity=".15"/><path d="m203 102.5-1-.5v11l1 .5z" opacity=".15"/><path d="m205 103.5-1-.5v11l1 .5z" opacity=".15"/><path d="m207 104.5-1-.5v11l1 .5z" opacity=".15"/><path d="m304 57-14 7v15l30 15 14-7v-15z" fill="#fc0"/><path d="m290 64v15l30 15v-15z" opacity=".11"/><path d="m334 72v15l-14 7v-15z" opacity=".29"/><path d="m288 65-14 7v15l30 15 14-7v-15z" fill="#539b00"/><path d="m274 72v15l30 15v-15z" opacity=".11"/><path d="m318 80v15l-14 7v-15z" opacity=".29"/><path d="m272 73-14 7v15l30 15 14-7v-15z" fill="#f90"/><path d="m258 80v15l30 15v-15z" opacity=".11"/><path d="m302 88v15l-14 7v-15z" opacity=".29"/><path d="m256 81-14 7v15l30 15 14-7v-15z" fill="#539b00"/><path d="m242 88v15l30 15v-15z" opacity=".11"/><path d="m286 96v15l-14 7v-15z" opacity=".29"/><path d="m240 89-14 7v15l30 15 14-7v-15z" fill="#f90"/><path d="m226 96v15l30 15v-15z" opacity=".11"/><path d="m270 104v15l-14 7v-15z" opacity=".29"/><path d="m224 97-14 7v15l30 15 14-7v-15z" fill="#539b00"/><path d="m210 104v15l30 15v-15z" opacity=".11"/><path d="m254 112v15l-14 7v-15z" opacity=".29"/><path d="m213 107.5-1-.5v11l1 .5z" opacity=".15"/><path d="m215 108.5-1-.5v11l1 .5z" opacity=".15"/><path d="m217 109.5-1-.5v11l1 .5z" opacity=".15"/><path d="m219 110.5-1-.5v11l1 .5z" opacity=".15"/><path d="m221 111.5-1-.5v11l1 .5z" opacity=".15"/><path d="m223 112.5-1-.5v11l1 .5z" opacity=".15"/><path d="m225 113.5-1-.5v11l1 .5z" opacity=".15"/><path d="m227 114.5-1-.5v11l1 .5z" opacity=".15"/><path d="m229 115.5-1-.5v11l1 .5z" opacity=".15"/><path d="m231 116.5-1-.5v11l1 .5z" opacity=".15"/><path d="m233 117.5-1-.5v11l1 .5z" opacity=".15"/><path d="m235 118.5-1-.5v11l1 .5z" opacity=".15"/><path d="m237 119.5-1-.5v11l1 .5z" opacity=".15"/><path d="m239 120.5-1-.5v11l1 .5z" opacity=".15"/><path d="m336 73-14 7v15l30 15 14-7v-15z" fill="#fc0"/><path d="m322 80v15l30 15v-15z" opacity=".11"/><path d="m366 88v15l-14 7v-15z" opacity=".29"/><path d="m320 81-14 7v15l30 15 14-7v-15z" fill="#fc0"/><path d="m306 88v15l30 15v-15z" opacity=".11"/><path d="m350 96v15l-14 7v-15z" opacity=".29"/><path d="m304 89-14 7v15l30 15 14-7v-15z" fill="#f90"/><path d="m290 96v15l30 15v-15z" opacity=".11"/><path d="m334 104v15l-14 7v-15z" opacity=".29"/><path d="m288 97-14 7v15l30 15 14-7v-15z" fill="#539b00"/><path d="m274 104v15l30 15v-15z" opacity=".11"/><path d="m318 112v15l-14 7v-15z" opacity=".29"/><path d="m272 105-14 7v15l30 15 14-7v-15z" fill="#539b00"/><path d="m258 112v15l30 15v-15z" opacity=".11"/><path d="m302 120v15l-14 7v-15z" opacity=".29"/><path d="m256 113-14 7v15l30 15 14-7v-15z" fill="#f90"/><path d="m242 120v15l30 15v-15z" opacity=".11"/><path d="m286 128v15l-14 7v-15z" opacity=".29"/><path d="m245 123.5-1-.5v11l1 .5z" opacity=".15"/><path d="m247 124.5-1-.5v11l1 .5z" opacity=".15"/><path d="m249 125.5-1-.5v11l1 .5z" opacity=".15"/><path d="m251 126.5-1-.5v11l1 .5z" opacity=".15"/><path d="m253 127.5-1-.5v11l1 .5z" opacity=".15"/><path d="m255 128.5-1-.5v11l1 .5z" opacity=".15"/><path d="m257 129.5-1-.5v11l1 .5z" opacity=".15"/><path d="m259 130.5-1-.5v11l1 .5z" opacity=".15"/><path d="m261 131.5-1-.5v11l1 .5z" opacity=".15"/><path d="m263 132.5-1-.5v11l1 .5z" opacity=".15"/><path d="m265 133.5-1-.5v11l1 .5z" opacity=".15"/><path d="m267 134.5-1-.5v11l1 .5z" opacity=".15"/><path d="m269 135.5-1-.5v11l1 .5z" opacity=".15"/><path d="m271 136.5-1-.5v11l1 .5z" opacity=".15"/><path d="m368 89-14 7v15l30 15 14-7v-15z" fill="#f90"/><path d="m354 96v15l30 15v-15z" opacity=".11"/><path d="m398 104v15l-14 7v-15z" opacity=".29"/><path d="m352 97-14 7v15l30 15 14-7v-15z" fill="#f90"/><path d="m338 104v15l30 15v-15z" opacity=".11"/><path d="m382 112v15l-14 7v-15z" opacity=".29"/><path d="m336 105-14 7v15l30 15 14-7v-15z" fill="#539b00"/><path d="m322 112v15l30 15v-15z" opacity=".11"/><path d="m366 120v15l-14 7v-15z" opacity=".29"/><path d="m320 113-14 7v15l30 15 14-7v-15z" fill="#fc0"/><path d="m306 120v15l30 15v-15z" opacity=".11"/><path d="m350 128v15l-14 7v-15z" opacity=".29"/><path d="m304 121-14 7v15l30 15 14-7v-15z" fill="#fc0"/><path d="m290 128v15l30 15v-15z" opacity=".11"/><path d="m334 136v15l-14 7v-15z" opacity=".29"/><path d="m288 129-14 7v15l30 15 14-7v-15z" fill="#f90"/><path d="m274 136v15l30 15v-15z" opacity=".11"/><path d="m318 144v15l-14 7v-15z" opacity=".29"/><path d="m277 139.5-1-.5v11l1 .5z" opacity=".15"/><path d="m279 140.5-1-.5v11l1 .5z" opacity=".15"/><path d="m281 141.5-1-.5v11l1 .5z" opacity=".15"/><path d="m283 142.5-1-.5v11l1 .5z" opacity=".15"/><path d="m285 143.5-1-.5v11l1 .5z" opacity=".15"/><path d="m287 144.5-1-.5v11l1 .5z" opacity=".15"/><path d="m289 145.5-1-.5v11l1 .5z" opacity=".15"/><path d="m291 146.5-1-.5v11l1 .5z" opacity=".15"/><path d="m293 147.5-1-.5v11l1 .5z" opacity=".15"/><path d="m295 148.5-1-.5v11l1 .5z" opacity=".15"/><path d="m297 149.5-1-.5v11l1 .5z" opacity=".15"/><path d="m299 150.5-1-.5v11l1 .5z" opacity=".15"/><path d="m301 151.5-1-.5v11l1 .5z" opacity=".15"/><path d="m303 152.5-1-.5v11l1 .5z" opacity=".15"/><path d="m400 105-14 7v15l30 15 14-7v-15z" fill="#f90"/><path d="m386 112v15l30 15v-15z" opacity=".11"/><path d="m430 120v15l-14 7v-15z" opacity=".29"/><path d="m384 113-14 7v15l30 15 14-7v-15z" fill="#fc0"/><path d="m370 120v15l30 15v-15z" opacity=".11"/><path d="m414 128v15l-14 7v-15z" opacity=".29"/><path d="m368 121-14 7v15l30 15 14-7v-15z" fill="#f90"/><path d="m354 128v15l30 15v-15z" opacity=".11"/><path d="m398 136v15l-14 7v-15z" opacity=".29"/><path d="m352 129-14 7v15l30 15 14-7v-15z" fill="#539b00"/><path d="m338 136v15l30 15v-15z" opacity=".11"/><path d="m382 144v15l-14 7v-15z" opacity=".29"/><path d="m336 137-14 7v15l30 15 14-7v-15z" fill="#fc0"/><path d="m322 144v15l30 15v-15z" opacity=".11"/><path d="m366 152v15l-14 7v-15z" opacity=".29"/><path d="m432 121-14 7v15l30 15 14-7v-15z" fill="#fc0"/><path d="m418 128v15l30 15v-15z" opacity=".11"/><path d="m462 136v15l-14 7v-15z" opacity=".29"/><path d="m460 150-4 2v-11l4-2z" opacity=".15"/><path d="m454 153-4 2v-11l4-2z" opacity=".15"/><path d="m416 129-14 7v15l30 15 14-7v-15z" fill="#539b00"/><path d="m402 136v15l30 15v-15z" opacity=".11"/><path d="m446 144v15l-14 7v-15z" opacity=".29"/><path d="m444 158-4 2v-11l4-2z" opacity=".15"/><path d="m438 161-4 2v-11l4-2z" opacity=".15"/><path d="m400 137-14 7v15l30 15 14-7v-15z" fill="#fc0"/><path d="m386 144v15l30 15v-15z" opacity=".11"/><path d="m430 152v15l-14 7v-15z" opacity=".29"/><path d="m428 166-4 2v-11l4-2z" opacity=".15"/><path d="m422 169-4 2v-11l4-2z" opacity=".15"/><path d="m384 145-14 7v15l30 15 14-7v-15z" fill="#f90"/><path d="m370 152v15l30 15v-15z" opacity=".11"/><path d="m414 160v15l-14 7v-15z" opacity=".29"/><path d="m412 174-4 2v-11l4-2z" opacity=".15"/><path d="m406 177-4 2v-11l4-2z" opacity=".15"/><path d="m368 153-14 7v15l30 15 14-7v-15z" fill="#539b00"/><path d="m354 160v15l30 15v-15z" opacity=".11"/><path d="m398 168v15l-14 7v-15z" opacity=".29"/><path d="m396 182-4 2v-11l4-2z" opacity=".15"/><path d="m390 185-4 2v-11l4-2z" opacity=".15"/><path d="m320 145-14 7v15l30 15 14-7v-15z" fill="#539b00"/><path d="m306 152v15l30 15v-15z" opacity=".11"/><path d="m350 160v15l-14 7v-15z" opacity=".29"/><path d="m348 174-4 2v-11l4-2z" opacity=".15"/><path d="m342 177-4 2v-11l4-2z" opacity=".15"/><path d="m309 155.5-1-.5v11l1 .5z" opacity=".15"/><path d="m311 156.5-1-.5v11l1 .5z" opacity=".15"/><path d="m313 157.5-1-.5v11l1 .5z" opacity=".15"/><path d="m315 158.5-1-.5v11l1 .5z" opacity=".15"/><path d="m317 159.5-1-.5v11l1 .5z" opacity=".15"/><path d="m319 160.5-1-.5v11l1 .5z" opacity=".15"/><path d="m321 161.5-1-.5v11l1 .5z" opacity=".15"/><path d="m323 162.5-1-.5v11l1 .5z" opacity=".15"/><path d="m325 163.5-1-.5v11l1 .5z" opacity=".15"/><path d="m327 164.5-1-.5v11l1 .5z" opacity=".15"/><path d="m329 165.5-1-.5v11l1 .5z" opacity=".15"/><path d="m331 166.5-1-.5v11l1 .5z" opacity=".15"/><path d="m333 167.5-1-.5v11l1 .5z" opacity=".15"/><path d="m335 168.5-1-.5v11l1 .5z" opacity=".15"/><path d="m352 161-14 7v15l30 15 14-7v-15z" fill="#fc0"/><path d="m338 168v15l30 15v-15z" opacity=".11"/><path d="m382 176v15l-14 7v-15z" opacity=".29"/><path d="m380 190-4 2v-11l4-2z" opacity=".15"/><path d="m374 193-4 2v-11l4-2z" opacity=".15"/><path d="m341 171.5-1-.5v11l1 .5z" opacity=".15"/><path d="m343 172.5-1-.5v11l1 .5z" opacity=".15"/><path d="m345 173.5-1-.5v11l1 .5z" opacity=".15"/><path d="m347 174.5-1-.5v11l1 .5z" opacity=".15"/><path d="m349 175.5-1-.5v11l1 .5z" opacity=".15"/><path d="m351 176.5-1-.5v11l1 .5z" opacity=".15"/><path d="m353 177.5-1-.5v11l1 .5z" opacity=".15"/><path d="m355 178.5-1-.5v11l1 .5z" opacity=".15"/><path d="m357 179.5-1-.5v11l1 .5z" opacity=".15"/><path d="m359 180.5-1-.5v11l1 .5z" opacity=".15"/><path d="m361 181.5-1-.5v11l1 .5z" opacity=".15"/><path d="m363 182.5-1-.5v11l1 .5z" opacity=".15"/><path d="m365 183.5-1-.5v11l1 .5z" opacity=".15"/><path d="m367 184.5-1-.5v11l1 .5z" opacity=".15"/><path d="m488 156-96 48v4l16 8v48l24 12 64-32v-56l16-16v-4z" fill="#e5e5e5"/><path d="m488 158 20 10-92 46-20-10z" opacity=".2"/><path d="m507 168.5 1-.5-20-10v1z" opacity=".11"/><path d="m488 158-92 46 1 .5 91-45.5z" opacity=".29"/><path d="m456 160-32 16v12l16 8 32-16v-12z" fill="#e5e5e5"/><path d="m440 196-16-8v-12l16 8z" opacity=".11"/><path d="m456 162 12 6-28 14-12-6z" opacity=".2"/><path d="m422 226v6l4 2v-6zm-8 2 4 2v-6l-4-2zm8 16 4 2v-6l-4-2zm-8-4 4 2v-6l-4-2z" fill="#2d3134"/><path d="m416 216v4h16v56l64-32v-56l16-16v-4z" opacity=".29"/><path d="m472 180-32 16v-12l32-16z" opacity=".29"/><path d="m416 220-24-12v-4l24 12z" opacity=".11"/><path d="m408 216v48l24 12v-56h-16z" opacity=".11"/><path d="m467 168.5 1-.5-12-6v1z" opacity=".11"/><path d="m456 162-28 14 1 .5 27-13.5z" opacity=".29"/><g fill="#e5e5e5"><path d="m448 152c-.1 0-.3.1-.3.1l-.8 21.2c0 .3.4.5 1 .5s1-.2 1-.5l-.8-21.2c.2 0 0-.1-.1-.1z"/><path d="m452.8 158.7-9.1 4.6c-.3.1-.6-.1-.6-.4 0-.2.1-.3.2-.4l9.1-4.6c.3-.1.6.1.6.4 0 .1-.1.3-.2.4z"/><path d="m451.9 154.1-7.4 3.7c-.2.1-.5-.1-.5-.3 0-.1.1-.3.2-.3l7.4-3.7c.2-.1.5.1.5.3 0 .1-.1.2-.2.3z"/></g><path d="m477 198-24 12v56l24 12 24-12-8-60z" fill="#06547a"/><path d="m474.3 257.6 24-11.9-3.4-25.6-23.9 11.9-18-9v24z" fill="#e5e5e5"/><path d="m501 266-24 12-8-60 24-12z" opacity=".29"/><path d="m477 278-24-12v-56l16 8z" opacity=".11"/><path d="m457 210 12 6 8-4v-12z" opacity=".29"/><path d="m477 200v12l12-6z" opacity=".11"/><path d="m550 243-96 48v12l2 1 96-48v-12z" fill="#e5e5e5"/><path d="m456 304-2-1v-12l2 1z" opacity=".11"/><path d="m552 256-96 48v-12l96-48z" opacity=".29"/><path d="m456 304-80-40h-8l-320-160-8-8v-5l-8-4-7.9-4c-12.7-7.2-22.2-14.8-24-23-.1-.1-.1 4.8-.1 4.6 1.5 14.3 9.5 31.6 27 46.4 4.9 4.2 12.1 8.6 13 9l416 208 96-48v-24z" fill="#06547a"/><path d="m456 328 96-48v-24l-96 48z" opacity=".29"/><path d="m376 264h-8l-320-160-8-8v-5l-8-4-7.9-4c-12.7-7.2-22.2-14.8-24-23-.1-.1-.1 4.8-.1 4.6 1.5 14.3 9.5 31.6 27 46.4 4.9 4.2 12.1 8.6 13 9l416 208v-24z" opacity=".11"/></svg>