<svg enable-background="new 0 0 80 240" viewBox="0 0 80 240" xmlns="http://www.w3.org/2000/svg"><path d="m18.9 51.9c-3.5 1.9-4.5 10-5.5 17.5s-2.2 15.8-2 19.2 5.1 8.8 7.7 12.2 6.9 7.2 6.9 7.2l3.9-6.8s-8.8-12.9-9-13.7 3.9-17.9 4-19.4c0-1.3-6-16.2-6-16.2z" fill="#cc291f"/><path d="m13.2 69.1-.8 5.2 9.3 2.9-.5-5.9z" fill="#e5e5e5"/><path d="m18.9 51.9c-3.5 1.9-4.5 10-5.5 17.5s-2.2 15.8-2 19.2 5.1 8.8 7.7 12.2 6.9 7.2 6.9 7.2l3.9-6.8s-8.8-12.9-9-13.7 3.9-17.9 4-19.4c0-1.3-6-16.2-6-16.2z" opacity=".2"/><path d="m68.1 225.7c15.9-10.7-.4-14.4-14.7-20.3-13.8-5.6-23.9-15-39.8-2.5-12.8 10.2 10.4 17.7 17.4 21.1 10.4 5.1 22.3 11.7 37.1 1.7z" opacity=".2"/><path d="m12.3 206.6s-2 4.2.5 5 5.3 0 9.6-2.2 12.1-4.2 13.9-7.4c1.7-3.1-2.8-6.1-9.6-4.2s-5.5 1.5-5.5 1.5z" fill="#2d3134"/><path d="m36.4 199.4c0 .4-.1.8-.4 1.2-1.8 3.2-9.6 5.2-13.9 7.4s-7.2 3-9.6 2.2c-.4-.1-.7-.4-.9-.6 0 .9.3 1.7 1.2 2.1 2.5.8 5.3 0 9.6-2.2s12.1-4.2 13.9-7.4c.6-1 .6-1.9.1-2.7z" opacity=".4"/><path d="m49.8 221.4s-3.2 7.1 1.4 8.1 8.6-3.3 10.9-4.7 8-5 9.5-6.9c1.1-1.3.8-6.6-5.8-5.8s-10.4 4.4-10.4 4.4z" fill="#2d3134"/><path d="m71 213.3c.5 1.2.3 2.6-.2 3.2-1.5 1.9-7.1 5.4-9.5 6.9s-6.3 5.7-10.9 4.7c-.6-.1-1.1-.4-1.4-.7.3 1 1 1.7 2.3 2 4.6 1 8.6-3.3 10.9-4.7 2.4-1.5 8-5 9.5-6.9.6-.8.7-3-.7-4.5z" opacity=".4"/><path d="m29 52.3s4.3 4.8 7.7 5.8c3.9 1.1 11.1.1 11.1.1s2.3-8.3 2.9-9.5 2.8-1.1 3.2-3.8 1.8-15.7 0-17.9-11.4-7.7-16.9-1.2-2 17.5-2.4 20.1-5.6 6.4-5.6 6.4z" fill="#fbd7c7"/><path d="m34.2 47.4s6.3 2.3 10.1 1.6c3.7-.7 6-4.4 6-4.4s.1-5 1.2-6.8 1.6-.8 1.6-.8 2.3-4 2.2-6.9c-.2-3.8-3.9-9.7-13.8-7.2-7.8 2-8.9 10.2-8.8 13.7 0 3.5 1.5 10.8 1.5 10.8z" fill="#762c07"/><path d="m63.3 153.6c1.1-10.3.5-23-.2-31.4s-3.1-33-2.7-39.1c.4-6.2 1.7-15.3-2.2-19-3.9-3.8-10.2-6.1-10.2-6.1s-6.3.5-12.1-1.7-5.2-5.5-5.2-5.5-11.3-2.2-13.9 3.2 2.3 23.7 3.2 30.5 2.5 12.4 1.2 23.1c-.9 7.2-3.1 15.8-3.1 20s-.9 22.5-1.1 26c-.3 4.1-3.3 14-4.9 21.4-2.3 10.6-2.4 32.3-.5 34.3.7.8 2.7.7 5.5-.1 5-1.3 6.9-6 7.8-7.8 2.7-4.9 2.6-12.3 3.8-18.8 1.2-6.1 4.7-21 8.8-31.4.4-1.1.9-2.5 1.4-4 2.7 9.3 5.4 18.2 4.7 26.9-.8 9.6-.3 23.2.1 32.9.4 11.4.8 19.1 5.4 20.4 4.3 1.2 10-3.3 11.2-6.2 1.2-3 1.8-4.4 1.2-7.5-.3-1.6-.5-16.4-.1-25.4.3-9.2.7-24.2 1.9-34.7z" fill="#cc291f"/><path d="m54.3 35.5c2.9-1 6.7-5.5 5.7-8.6s-5.5-4.6-8.6-4.6c-3 .1 2.9 13.2 2.9 13.2z" fill="#39c"/><path d="m54.3 35.5c2.9-1 6.7-5.5 5.7-8.6s-5.5-4.6-8.6-4.6c-3 .1 2.9 13.2 2.9 13.2z" opacity=".2"/><path d="m30.7 38.1c2.1 2.4 11.7 4.6 18.9.8 7.1-3.8 9.4-9.1 7.4-13.8-2.7-6.4-15.2-9.6-22-3.7s-5.8 15-4.3 16.7z" fill="#39c"/><path d="m51.6 20.5c-4.9-2.1-11.4-2.3-15.7 1.4-3 2.6-4.6 6-5.2 8.9.4.2.8.3 1.2.4.6-2.9 2.3-6.4 5.2-8.9 4-3.4 9.8-3.4 14.5-1.8z" opacity=".2"/><path d="m38 22.8c-2.7 2.6-4 5.9-4.5 8.9.4.1.7.1 1.1.2.5-2.9 1.8-6.1 4.5-8.6 3.5-3.4 8.8-3.8 13.1-2.2-4.4-2.1-10.3-2-14.2 1.7z" opacity=".2"/><path d="m10.2 191s2.6.4 6.4-.9 12-7 12-7l-.6 5.3s-6.8 6.4-10.9 7.6-6.9 1-6.9 1z" fill="#e5e5e5"/><path d="m43.7 211.8s3.2 1.1 6.3.3c8.4-2.4 11.2-8.3 11.2-8.3l-.1-6.3s-7.2 7.4-10.9 7.9c-4.5.7-6.9-.1-6.9-.1z" fill="#e5e5e5"/><path d="m45.8 112.7c5.2-.1 12.4-1.1 13.7-1.6 0-.7-.4-5-.4-5.8-1.4.5-8.3 1.4-13.4 1.5-8.2.2-20.1-2.6-24.1-3.9-.1.8-.2 4.5-.4 5.1 3.5 1.3 16.1 4.9 24.6 4.7z" fill="#2d3134"/><path d="m60.3 83.1c.2-3.8.8-8.6.3-12.7-1.2-3.9-3.8-5.2-8.1-5.2-8.6-.1-8.4 8.2-8.2 15.1.3 9.4.8 22 3.2 28.1s13.3 20.5 15.3 31c.4 1.9.7 3.1 1 3.9.1-7.6-.4-15.3-.8-21-.6-8.4-3.1-33-2.7-39.2z" opacity=".2"/><path d="m62.6 124.2s-.4 3 .3 5.2 2.1 5.8 1.3 8.1-.9 5.5-.2 6.7c.7 1.1 4.9-4.1 5.1-5.9s1.1-7.7.5-9.9c-.6-2.3-2.4-7.7-2.4-7.7z" fill="#fbd7c7"/><path d="m62.6 125.7c1 0 4.8-1.8 5.4-3.1 1.2-2.6-3.6-10-5.5-13.7-1.5-2.9-3-10.1-3-10.1s.1-14.1.2-18.8c.1-4.5 1.9-16.7-6.9-16.8-8.6-.1-8.3 7.7-7.6 14.6s1.3 20.6 3.7 26.8 9.9 20.9 13.7 21.1z" fill="#cc291f"/><path d="m45.8 83.9s2.7 0 7.3-.6 6.6-1.8 6.6-1.8l.1 5.7s-1.7 1.2-6 1.8-7.6.7-7.6.7z" fill="#e5e5e5"/></svg>