<svg enable-background="new 0 0 304 384" viewBox="0 0 304 384" xmlns="http://www.w3.org/2000/svg"><path d="m16 225-14 7v15l62 31 14-7v-15z" fill="#539b00"/><path d="m2 232v15l62 31v-15z" opacity=".11"/><path d="m78 256v15l-14 7v-15z" opacity=".29"/><path d="m76 270-4 2v-11l4-2z" opacity=".15"/><path d="m70 273-4 2v-11l4-2z" opacity=".15"/><path d="m5 235.5-1-.5v11l1 .5z" opacity=".15"/><path d="m7 236.5-1-.5v11l1 .5z" opacity=".15"/><path d="m9 237.5-1-.5v11l1 .5z" opacity=".15"/><path d="m11 238.5-1-.5v11l1 .5z" opacity=".15"/><path d="m13 239.5-1-.5v11l1 .5z" opacity=".15"/><path d="m15 240.5-1-.5v11l1 .5z" opacity=".15"/><path d="m17 241.5-1-.5v11l1 .5z" opacity=".15"/><path d="m19 242.5-1-.5v11l1 .5z" opacity=".15"/><path d="m21 243.5-1-.5v11l1 .5z" opacity=".15"/><path d="m23 244.5-1-.5v11l1 .5z" opacity=".15"/><path d="m25 245.5-1-.5v11l1 .5z" opacity=".15"/><path d="m27 246.5-1-.5v11l1 .5z" opacity=".15"/><path d="m29 247.5-1-.5v11l1 .5z" opacity=".15"/><path d="m31 248.5-1-.5v11l1 .5z" opacity=".15"/><path d="m33 249.5-1-.5v11l1 .5z" opacity=".15"/><path d="m35 250.5-1-.5v11l1 .5z" opacity=".15"/><path d="m37 251.5-1-.5v11l1 .5z" opacity=".15"/><path d="m39 252.5-1-.5v11l1 .5z" opacity=".15"/><path d="m41 253.5-1-.5v11l1 .5z" opacity=".15"/><path d="m43 254.5-1-.5v11l1 .5z" opacity=".15"/><path d="m45 255.5-1-.5v11l1 .5z" opacity=".15"/><path d="m47 256.5-1-.5v11l1 .5z" opacity=".15"/><path d="m49 257.5-1-.5v11l1 .5z" opacity=".15"/><path d="m51 258.5-1-.5v11l1 .5z" opacity=".15"/><path d="m53 259.5-1-.5v11l1 .5z" opacity=".15"/><path d="m55 260.5-1-.5v11l1 .5z" opacity=".15"/><path d="m57 261.5-1-.5v11l1 .5z" opacity=".15"/><path d="m59 262.5-1-.5v11l1 .5z" opacity=".15"/><path d="m61 263.5-1-.5v11l1 .5z" opacity=".15"/><path d="m63 264.5-1-.5v11l1 .5z" opacity=".15"/><path d="m60 259 14-7 4 2v2l-14 7-4-1.9z" fill="#656565"/><path d="m64 263-4-1.9v-2l4 1.9z" opacity=".11"/><path d="m64 263 14-7v-2l-14 7z" opacity=".29"/><path d="m2 230 14-7 4 2v2l-14 7-4-2z" fill="#656565"/><path d="m6 234-4-2v-2l4 2z" opacity=".11"/><path d="m6 234 14-7v-2l-14 7z" opacity=".29"/><path d="m8 233v-2l2-1 54 27-4 2z" fill="#656565"/><path d="m8 233v-2l54 27-2 1z" opacity=".11"/><path d="m16 229v-2l2-1 54 27-4 2z" fill="#656565"/><path d="m16 229v-2l54 27-2 1z" opacity=".11"/><g fill="#2d3134"><path d="m41 204 1 .5 23 56-1 .5z"/><path d="m41 204 1 .5 36 49.5-1 .5z"/><path d="m35 201v1l-31 27-2 1z"/><path d="m35 201v1l-19 21-2 1z"/></g><path d="m240 244-64 32-8-4v-8l64-32 8 4z" fill="#e5e5e5"/><path d="m240 244-64 32v-8l64-32z" opacity=".29"/><path d="m160 348 8 4 8-4v-80l-8-4-8 4z" fill="#e5e5e5"/><path d="m160 348 8 4v-80l-8-4z" opacity=".11"/><path d="m168 352 8-4v-80l-8 4z" opacity=".29"/><path d="m232 248 56 28 8-4v-8l-56-28-8 4z" fill="#e5e5e5"/><path d="m232 248 56 28v-8l-56-28z" opacity=".11"/><path d="m288 348 8 4 8-4v-80l-8-4-8 4z" fill="#e5e5e5"/><path d="m288 348 8 4v-80l-8-4z" opacity=".11"/><path d="m296 352 8-4v-80l-8 4z" opacity=".29"/><path d="m304 276-64 32-8-4v-8l64-32 8 4z" fill="#e5e5e5"/><path d="m304 276-64 32v-8l64-32z" opacity=".29"/><path d="m168 280 56 28 8-4v-8l-56-28-8 4z" fill="#e5e5e5"/><path d="m168 280 56 28v-8l-56-28z" opacity=".11"/><path d="m224 380 8 4 8-4v-80l-8-4-8 4z" fill="#e5e5e5"/><path d="m224 380 8 4v-80l-8-4z" opacity=".11"/><path d="m232 384 8-4v-80l-8 4z" opacity=".29"/><path d="m160 268 8 4 8-4 32-56-8-4-8 4z" fill="#e5e5e5"/><path d="m160 268 8 4 32-56-8-4z" opacity=".11"/><path d="m168 272 8-4 32-56-8 4z" opacity=".29"/><path d="m288 268 8 4 8-4-32-56-8-4-8 4z" fill="#e5e5e5"/><path d="m288 268 8 4-32-56-8-4z" opacity=".11"/><path d="m296 272 8-4-32-56-8 4z" opacity=".29"/><path d="m224 300 8 4 8-4v-72l-8-4-8 4z" fill="#e5e5e5"/><path d="m224 300 8 4v-72l-8-4z" opacity=".11"/><path d="m232 304 8-4v-72l-8 4z" opacity=".29"/><path d="m192 208 40-20 40 20v4l-40 20-40-20z" fill="#999"/><path d="m232 232-40-20v-4l40 20z" opacity=".11"/><path d="m232 232 40-20v-4l-40 20z" opacity=".29"/><path d="m232 176c-8.8 0-16 3.6-16 8v24c0 4.4 7.2 8 16 8s16-3.6 16-8v-24c0-4.4-7.2-8-16-8z" fill="#e5e5e5"/><path d="m232 192c-8.8 0-16-3.6-16-8v24c0 4.4 7.2 8 16 8s16-3.6 16-8v-24c0 4.4-7.2 8-16 8z" opacity=".2"/><path d="m268 77.8c1.2-1.7 2-3.7 2-5.5 0-1.6-.7-2.8-1.7-3.3-.1 0-.2-.1-.2-.1l-26.1-13s-.2-.1-.3-.1c-1-.3-2.3-.2-3.8.5-3.3 1.7-6 5.7-6 9 0 1.8.8 3 2 3.5l26.3 13.1c1 .3 2.3.1 3.7-.6s2.7-1.8 3.7-3.1z" fill="#999"/><path d="m270 72.3c0 3.3-2.7 7.3-6 9s-6 .3-6-3 2.7-7.3 6-9 6-.3 6 3z" opacity=".29"/><path d="m239 64-2-1-36-36v-6l2 1 39 39z" fill="#999"/><path d="m239 64-36-36v-6l39 39z" opacity=".29"/><path d="m201 27 36 36 2 1-36-36z" opacity=".11"/><path d="m192 184 40-20 40 20v4l-40 20-40-20z" fill="#999"/><path d="m232 208-40-20v-4l40 20z" opacity=".11"/><path d="m232 208 40-20v-4l-40 20z" opacity=".29"/><path d="m272 164-40-20-20 10v20l40 20 20-10z" fill="#e5e5e5"/><path d="m212 169v1l40 20 20-10v-1l-20 10z" opacity=".15"/><path d="m212 164v1l40 20 20-10v-1l-20 10z" opacity=".15"/><path d="m212 159v1l40 20 20-10v-1l-20 10z" opacity=".15"/><path d="m252 194 20-10v-20l-20 10z" opacity=".29"/><path d="m252 194-40-20v-20l40 20z" opacity=".11"/><path d="m224 188 8 4 8-4v-136l-8-4-8-6z" fill="#e5e5e5"/><path d="m224 188 8 4v-146l-8-4z" opacity=".11"/><path d="m232 192 8-4v-136l-8-6z" opacity=".29"/><path d="m192 114.7 2.6 1.3h2.7l31-78-2.7-1.3h-2.6z" fill="#999"/><path d="m194.6 116h2.7l31-78h-2.7z" opacity=".29"/><path d="m232 167-10-5-80-120 6-1 4-5 80 111z" fill="#e5e5e5"/><path d="m232 167-84-126 4-5 80 111z" opacity=".29"/><path d="m142 42 80 120 10 5-84-126z" opacity=".11"/><path d="m245 54-8-4-63-37 6-5 8 4 63 37z" fill="#e5e5e5"/><path d="m245 54-63-37 6-5 63 37z" opacity=".29"/><path d="m174 13 63 37 8 4-63-37z" opacity=".11"/><path d="m255 72-2-1-36-36v-6l2 1 39 39z" fill="#999"/><path d="m255 72-36-36v-6l39 39z" opacity=".29"/><path d="m217 35 36 36 2 1-36-36z" opacity=".11"/><path d="m33 199.5 1-.5c.4.6.9 1.2 1.6 1.5.3.2.6.2.9.2.1-.2.2-.5.2-.8 0-.5-.2-.9-.6-1.3l-.1-.1v-5l1-.5 3 1.5v4.5s-.2.2-.3.3c-.1.2-.2.4-.2.7 0 1.1.9 2.4 2 3 .3.1.5.2.8.2.1-.1.1-.3.2-.4l1-.5v.3c0 1.1-1.1 2-2.2 2-.1 0-.1 0-.2 0-.1 0-.1 0-.2 0-.2 0-.3-.1-.5-.1-.1 0-.3-.1-.4-.2-1-.5-1.9-1.5-2.3-2.6l-.7.3h-.1c-.4.2-1 .1-1.7-.2-1-.3-1.8-1.3-2.2-2.3 0-.1 0-.1 0 0z" fill="#656565"/><path d="m39 199.5 1-.5v-4.5l-1 .5z" opacity=".29"/><path d="m34.6 200.9c1.2.6 2.1.1 2.1-1.1 0-.5-.2-.9-.6-1.3l-.1-.1v-5l3 1.5v4.5c-.3.2-.5.6-.5 1.1 0 1.1.9 2.4 2 3 1 .5 1.8.2 2-.7v.3c0 1.4-1.1 1.9-2.5 1.3-1.1-.6-2-1.7-2.4-2.9-.3.8-1.3 1.1-2.4.5-1-.5-1.8-1.5-2.2-2.5.4.6.9 1.1 1.6 1.4z" opacity=".11"/><path d="m41 196-2 1-4-2-1-5 2-1 6 3z" fill="#2d3134"/><path d="m40 193-1 4-4-2-1-5z" opacity=".11"/><path d="m42 192-1 4-2 1 1-4z" opacity=".29"/><path d="m40.6 148.4c0 2.9-2.4 6.5-5.3 8s-5.3.3-5.3-2.7 2.4-6.5 5.3-8c3-1.4 5.3-.2 5.3 2.7z" fill="#999"/><path d="m40.6 148.4c0 2.9-2.4 6.5-5.3 8s-5.3.3-5.3-2.7 2.4-6.5 5.3-8c3-1.4 5.3-.2 5.3 2.7z" opacity=".29"/><path d="m32.8 154.8c0-2.7 2.2-6.1 4.9-7.4.9-.5 1.8-.6 2.6-.6-.8-1.1-2.5-1.3-4.3-.4-2.7 1.4-4.9 4.7-4.9 7.4-.1 1.8 1.7 1.9 1.7 1z" fill="#2d3134"/><path d="m50 181-10-5-10 5v4l2 4 10 5 2-1 6-8z" fill="#999"/><path d="m42 194 2-1 6-8v-4l-10 5v4z" opacity=".29"/><path d="m42 194-10-5-2-4v-4l10 5v4z" opacity=".11"/><path d="m47 153.5 1-.5 1 .5v27.5l-1 .5-1-.5z" fill="#2d3134"/><path d="m47 153.5 1-.5v28.5l-1-.5z" opacity=".0121"/><path d="m48 153 1 .5v27.5l-1 .5z" opacity=".0841"/><path d="m39 157.5 1-.5 1 .5v27.5l-1 .5-1-.5z" fill="#2d3134"/><path d="m39 157.5 1-.5v28.5l-1-.5z" opacity=".0121"/><path d="m40 157 1 .5v27.5l-1 .5z" opacity=".0841"/><path d="m31 153.5 1-.5 1 .5v27.5l-1 .5-1-.5z" fill="#2d3134"/><path d="m31 153.5 1-.5v28.5l-1-.5z" opacity=".0121"/><path d="m32 153 1 .5v27.5l-1 .5z" opacity=".0841"/><path d="m32 153 6 3h6l148-148-6-3h-6z" fill="#e5e5e5"/><path d="m38 156h6l148-148h-6z" opacity=".29"/><path d="m181 10-53 9-4-5 4 2 57-8z" fill="#e5e5e5"/><path d="m181 10-53 9-4-5 57-8 4 2z" fill="#e5e5e5"/><path d="m181 10-53 9v-3l57-8z" opacity=".29"/><path d="m148 44-4-2-24-24 4-4 4 2 24 24z" fill="#e5e5e5"/><path d="m121 27.2h33.9v5.7h-33.9z" opacity=".29" transform="matrix(.7071 .7071 -.7071 .7071 61.6325 -88.7939)"/><path d="m120 18 24 24 4 2-24-24z" opacity=".11"/><path d="m34 153 4 2 10-10 78-123-2-2-4-2z" fill="#e5e5e5"/><path d="m38 155 10-10 78-123-2-2z" opacity=".29"/><path d="m49 152.1c0 2.8-2.2 6.1-5 7.5s-5 .3-5-2.5 2.2-6.1 5-7.5c2.7-1.3 5-.2 5 2.5z" fill="#999"/><path d="m49 152.1c0 2.8-2.2 6.1-5 7.5s-5 .3-5-2.5 2.2-6.1 5-7.5c2.7-1.3 5-.2 5 2.5z" opacity=".29"/><path d="m232 172-14-7-14 7v2l4 12v4l14 7 10-5z" fill="#e5e5e5"/><path d="m209 186.5-4-12 12.2 6.1 4 12z" fill="#39c"/><path d="m209 186.5-4-12 16.2 18.1z" fill="#fff" opacity=".2"/><path d="m210 186-3.6-10.8-1.4-.7 4 12 12.2 6.1-.4-1.2z" fill="#231f20" opacity=".2"/><path d="m228 190v-14l-9.3 4.6 4 12z" fill="#39c"/><path d="m227 176.5v13.5l-4.4 2.2.1.4 5.3-2.6v-14z" fill="#231f20" opacity=".2"/><path d="m222 197 10-5v-4-16l-14 7v2l4 12z" opacity=".29"/><path d="m222 197-14-7v-4l-4-12v-2l14 7v2l4 12z" opacity=".11"/></svg>