<svg enable-background="new 0 0 208 256" viewBox="0 0 208 256" xmlns="http://www.w3.org/2000/svg"><path d="m0 232 40-20 40 20v4l-40 20-40-20z" fill="#999"/><path d="m40 256-40-20v-4l40 20z" opacity=".11"/><path d="m40 256 40-20v-4l-40 20z" opacity=".29"/><path d="m70 205-14-7-14 7v20l14 7 10-5v-4l4-16z" fill="#e5e5e5"/><path d="m64 224 4-16-9.3 4.6v14z" fill="#39c"/><path d="m67 208.5-4 15.5-4.4 2.2.1.4 5.3-2.6 4-16z" fill="#231f20" opacity=".2"/><path d="m56 232 10-5v-4l4-16v-2l-14 7z" opacity=".29"/><path d="m56 232-14-7v-18-2l14 7z" opacity=".11"/><path d="m46 193v21l58-166-4-2-6-3-54 147z" fill="#e5e5e5"/><path d="m104 48-58 166v-21l54-147z" opacity=".29"/><path d="m185 111.4 1-.5c.4.6.9 1.2 1.6 1.5.3.2.6.2.9.2.1-.2.2-.5.2-.8 0-.5-.2-.9-.6-1.3l-.1-.1v-5l1-.5 3 1.5v4.5s-.2.2-.3.3c-.1.2-.2.4-.2.7 0 1.1.9 2.4 2 3 .3.1.5.2.8.2.1-.1.1-.3.2-.4l1-.5v.3c0 1.1-1.1 2-2.2 2-.1 0-.1 0-.2 0-.1 0-.1 0-.2 0-.2 0-.3-.1-.5-.1-.1 0-.3-.1-.4-.2-1-.5-1.9-1.5-2.3-2.6l-.7.3h-.1c-.4.2-1 .1-1.7-.2-1-.3-1.8-1.3-2.2-2.3z" fill="#656565"/><path d="m191 111.5 1-.5v-4.5l-1 .5z" opacity=".29"/><path d="m186.6 112.9c1.2.6 2.1.1 2.1-1.1 0-.5-.2-.9-.6-1.3l-.1-.1v-5l3 1.5v4.5c-.3.2-.5.6-.5 1.1 0 1.1.9 2.4 2 3 1 .5 1.8.2 2-.7v.3c0 1.4-1.1 1.9-2.5 1.3-1.1-.6-2-1.7-2.4-2.9-.3.8-1.3 1.1-2.4.5-1-.5-1.8-1.5-2.2-2.5.4.5.9 1.1 1.6 1.4z" opacity=".11"/><path d="m193 108-2 1-4-2-1-5 2-1 6 3z" fill="#2d3134"/><path d="m192 105-1 4-4-2-1-5z" opacity=".11"/><path d="m194 104-1 4-2 1 1-4z" opacity=".29"/><path d="m192.6 60.4c0 2.9-2.4 6.5-5.3 8s-5.3.3-5.3-2.7c0-2.9 2.4-6.5 5.3-8 3-1.5 5.3-.3 5.3 2.7z" fill="#999"/><path d="m192.6 60.4c0 2.9-2.4 6.5-5.3 8s-5.3.3-5.3-2.7c0-2.9 2.4-6.5 5.3-8 3-1.5 5.3-.3 5.3 2.7z" opacity=".29"/><path d="m184.8 66.8c0-2.7 2.2-6.1 4.9-7.4.9-.5 1.8-.6 2.6-.6-.8-1.1-2.5-1.3-4.3-.4-2.7 1.4-4.9 4.7-4.9 7.4-.1 1.8 1.7 1.8 1.7 1z" fill="#2d3134"/><path d="m202 93-10-5-10 5v4l2 4 10 5 2-1 6-8z" fill="#999"/><path d="m194 106 2-1 6-8v-4l-10 5v4z" opacity=".29"/><path d="m194 106-10-5-2-4v-4l10 5v4z" opacity=".11"/><path d="m199 65.5 1-.5 1 .5v27.5l-1 .5-1-.5z" fill="#2d3134"/><path d="m199 65.5 1-.5v28.5l-1-.5z" opacity=".0121"/><path d="m200 65 1 .5v27.5l-1 .5z" opacity=".0841"/><path d="m191 69.5 1-.5 1 .5v27.5l-1 .5-1-.5z" fill="#2d3134"/><path d="m191 69.5 1-.5v28.5l-1-.5z" opacity=".0121"/><path d="m192 69 1 .5v27.5l-1 .5z" opacity=".0841"/><path d="m183 65.5 1-.5 1 .5v27.5l-1 .5-1-.5z" fill="#2d3134"/><path d="m183 65.5 1-.5v28.5l-1-.5z" opacity=".0121"/><path d="m184 65 1 .5v27.5l-1 .5z" opacity=".0841"/><path d="m32 236 8 4 8-4v-116l-8-8-8-4z" fill="#e5e5e5"/><path d="m32 236 8 4v-128l-8-4z" opacity=".11"/><path d="m40 240 8-4v-116l-8-8z" opacity=".29"/><path d="m37.1 165.8c1.2-1.7 2-3.7 2-5.5 0-1.6-.7-2.8-1.7-3.3-.1 0-.2-.1-.2-.1l-26.1-13s-.2-.1-.3-.1c-1-.3-2.3-.2-3.8.5-3.3 1.7-6 5.7-6 9 0 1.8.8 3 2 3.5l26.3 13.1c1 .3 2.3.1 3.7-.6s2.7-1.8 3.7-3.1z" fill="#999"/><path d="m39.1 160.3c0 3.3-2.7 7.3-6 9s-6 .3-6-3 2.7-7.3 6-9 6-.3 6 3z" opacity=".29"/><path d="m61.8 132 4.2 3.3 1-2-31.5-32.1-2.6-1.3-1 2z" fill="#999"/><path d="m66 135.3 1-2-31.5-32.1-1 2z" opacity=".29"/><path d="m33.1 100.6-18 49-2 2-2-1 20-55 2 1z" fill="#999"/><path d="m33.1 100.6-18 49-2 2-2-1 20-55 2 1z" opacity=".11"/><path d="m33.1 96.6-20 55 2-2 18-49z" opacity=".29"/><path d="m17.1 129.5 4.6 2.3 4.7.8 44.6-93.5-4.7-2.3-4.7-.8z" fill="#e5e5e5"/><path d="m21.7 131.8 4.7.8 44.6-93.5-4.7-.8z" opacity=".29"/><path d="m43.1 105.6-18 49-2 2-2-1 20-55 2 1z" fill="#999"/><path d="m43.1 105.6-18 49-2 2-2-1 20-55 2 1z" opacity=".11"/><path d="m43.1 101.6-20 55 2-2 18-49z" opacity=".29"/><path d="m192 65.1-132-32.1-5 1.9 4 2 132 32.1 5-1.9z" fill="#e5e5e5"/><path d="m59 36.9 5-1.9 132 32.1-5 1.9z" opacity=".29"/><path d="m110 3 4 2h6l79 61h-7l-4-2z" fill="#e5e5e5"/><path d="m110 3 4 2 78 61-4-2z" opacity=".11"/><path d="m114 5h6l79 61h-7z" opacity=".29"/><path d="m97.6 42.4 3.1 1.6 3.3 1 14-38-3.1-1.6-3.3-1z" fill="#e5e5e5"/><path d="m100.7 44 3.3 1 14-38-3.3-1z" opacity=".29"/><path d="m201 64.1c0 2.8-2.2 6.1-5 7.5s-5 .3-5-2.5 2.2-6.1 5-7.5c2.7-1.4 5-.3 5 2.5z" fill="#999"/><path d="m201 64.1c0 2.8-2.2 6.1-5 7.5s-5 .3-5-2.5 2.2-6.1 5-7.5c2.7-1.4 5-.3 5 2.5z" opacity=".29"/><path d="m55 35 3.9 2h6.1l55.1-32-4.1-2h-6z" fill="#e5e5e5"/><path d="m58.9 37h6.1l55.1-32h-6.1z" opacity=".29"/><path d="m60 222-40-20-20 10v20l40 20 20-10z" fill="#e5e5e5"/><path d="m0 227v1l40 20 20-10v-1l-20 10z" opacity=".15"/><path d="m0 222v1l40 20 20-10v-1l-20 10z" opacity=".15"/><path d="m0 217v1l40 20 20-10v-1l-20 10z" opacity=".15"/><path d="m40 252 20-10v-20l-20 10z" opacity=".29"/><path d="m40 252-40-20v-20l40 20z" opacity=".11"/></svg>