<svg enable-background="new 0 0 48 40" viewBox="0 0 48 40" xmlns="http://www.w3.org/2000/svg"><path d="m28 35 14-7 4 2v2l-14 7-4-2z" fill="#656565"/><path d="m32 39-4-2v-2l4 2z" opacity=".11"/><path d="m32 39 14-7v-2l-14 7z" opacity=".29"/><path d="m2 22 14-7 4 2v2l-14 7-4-2z" fill="#656565"/><path d="m6 26-4-2v-2l4 2z" opacity=".11"/><path d="m6 26 14-7v-2l-14 7z" opacity=".29"/><path d="m8 25v-2l2-1 22 11-4 2z" fill="#656565"/><path d="m8 25v-2l22 11-2 1z" opacity=".11"/><path d="m16 21v-2l2-1 22 11-4 2z" fill="#656565"/><path d="m16 21v-2l22 11-2 1z" opacity=".11"/><g fill="#2d3134"><path d="m25 4 1 .5 7 32-1 .5z"/><path d="m25 4 1 .5 20 25.5-1 .5z"/><path d="m19 1v1l-15 19-2 1z"/><path d="m19 1v1l-3 13-2 1z"/></g></svg>