<svg enable-background="new 0 0 80 240" viewBox="0 0 80 240" xmlns="http://www.w3.org/2000/svg"><path d="m13.2 225.3c-12.3-8.2.2-17 17.1-21.3 7.4-1.9 20.2-11.6 39.8-1.1 15.8 8.5-7.5 12.3-16.4 16.8-10.7 5.4-19 19.8-40.5 5.6z" opacity=".2"/><path d="m47.6 193.8 10.4 1.2s.2 1.8 2.1 3.8 10.1 6.4 11.7 7.6c2.8 2.1.9 5-1.5 5.3-2.6.4-6.1-.4-10.5-2-3.4-1.2-7.4-2.3-11.3-3.6-3.3-1.1-2.5-5.9-2-8 .6-2 1.1-4.3 1.1-4.3z" fill="#2d3134"/><path d="m70.3 210.2c-2.7.4-6.5-.5-11.2-2.2-3.7-1.3-7.9-2.5-12-3.9-.3-.1-.5-.2-.7-.3.3 1 1 1.9 2.2 2.3 3.8 1.3 7.8 2.4 11.3 3.6 4.4 1.6 7.9 2.4 10.5 2 1.8-.3 3.2-1.9 2.8-3.5-.6 1.1-1.7 1.8-2.9 2z" opacity=".4"/><path d="m62.1 115 3.6-3.5s1.9 4.8 2.2 7.2-.3 14.4-2.1 14.4-1-3-1-4 .7-4.1.7-4.1-.5 1.9-1.4 1.7-1.5-1.9-.9-3.5-.9-4.3-.9-4.3z" fill="#fbd7c7"/><path d="m61 115.4s4.9-2.5 5-3.6c0-.2.7-3 .4-3.9-1.5-4.7-6.6-17.3-6.6-17.3l-3.3 12.7z" fill="#cc291f"/><path d="m61 115.4s4.9-2.5 5-3.6c0-.2.7-3 .4-3.9-1.5-4.7-6.6-17.3-6.6-17.3l-3.3 12.7z" opacity=".2"/><path d="m11.4 209.6c.2.1 10.6 2.2 10.6 2.2s2.7 6 5.3 8.1c2.1 1.8 8 5.7 7.7 7.9s-6.3 4-11.9 1.1c-2.6-1.3-12.9-6.6-13.4-10.1-.6-3.9 1.7-9.2 1.7-9.2z" fill="#2d3134"/><path d="m23.2 227.2c-2.6-1.3-12.9-6.6-13.4-10.1 0-.2 0-.3-.1-.5-.1.8-.1 1.6.1 2.3.5 3.5 10.8 8.8 13.4 10.1 5.6 2.9 11.6 1.1 11.9-1.1 0-.3-.1-.7-.3-1.2-1.3 1.9-6.6 3.1-11.6.5z" opacity=".4"/><path d="m30.8 47.8 10.4-2.9 7 1.7 3.2 61.9z" fill="#fff"/><path d="m59.9 109.4c-.2-1.6-.4-2.6-.6-4.6.9-10.5 1.2-26 1.2-29.7 0-4.5.8-17.3-3-22.7-1.9-2.7-10.2-4.5-10.8-4.8 0 0 .9 24.7 1.3 35.4-1.5-5.1-3.4-9.6-4.7-12.8-1.9-4.5-12.5-22.5-12.5-22.5s-9.9 3.1-13.7 6.6c-6.1 5.7-.4 20.2 3.4 31.8s.2 35.9.1 36.3c-3.4 17.9-2 36.8-3.1 41.9s-4.2 10.2-5.8 21c-1 6.5-2.7 24.5-2.5 27.6.2 3.5.8 3.4 2.5 4.9 1.5 1.4 9.5 3.4 12.9-.6 1.5-1.9 1.8-9.7 2.2-12.9 1.1-8.3 5.7-24.5 7.5-31.5s7.1-26.5 7.1-26.6c1.4 5.4 3.4 12 3.1 18-.4 7.9.4 16.5.4 22.2s-1.1 12.5 1.1 14.6c1 1 6.8 1.6 9.9 1.5 2.4-.1 3.9-.7 5.5-2.7.5-.7.8-1.7.7-2.8-.6-4.2-.5-25.2 0-34.6s1.1-21.9 1.5-33.1c0-2.6-2.2-16.8-3.7-19.9z" fill="#cc291f"/><path d="m31.5 47.7s2.6-1.1 2.7-2.9c.2-1.9-5.6-9.2-.8-16s16.9-5.5 19 1.2 2.3 19.6.7 21c-2 1.7-5.6 1-5.6 1s-1.2 3.1-.9 4.9c.4 2.5-1.9 2.7-3.2 2.7-1.8-.2-9.5-5-11.9-11.9z" fill="#fbd7c7"/><path d="m33.5 43 1.5 1s-3.9-5.4-1.3-6.5 3.9 2.2 3.9 2.2 1.9-3.4 5-3.7 11.4-2.2 11.1-4.8c-.1-1-3.4-10-13.2-8.3-9.9 1.7-10.2 9.9-9.6 13.2.5 3.3 2.6 6.9 2.6 6.9z" fill="#762c07"/><path d="m57.2 33.9s2.8 1.2 2.8 2.1-8.3 4.5-14 3.9-16.1-3.5-16.7-5 .7-16.2 12.7-16.2c14-.1 15.2 15.2 15.2 15.2z" fill="#39c"/><path d="m60 35.9c0 .9-8.3 4.5-14 3.9-4.6-.5-12.1-2.4-15.2-4 3.1 1.1 7.3 2.2 10.4 2.1 5.4-.2 14.2-2.8 16.1-4.1-.1.1 2.7 1.3 2.7 2.1z" opacity=".2"/><path d="m55.7 32.2-1.2.4c-.6-3.6-3.3-13.3-13.8-13.3-.6 0-1.2.1-1.8.1.9-.3 1.9-.4 3-.4 10.4 0 13.1 9.4 13.8 13.2z" opacity=".2"/><path d="m51.3 33.7c-.3-2.6-2-13.8-11.2-13.8-.5 0-1 .1-1.4.1.7-.3 1.5-.4 2.4-.4 9.1 0 11.2 10.9 11.5 13.6z" opacity=".2"/><path d="m44.9 184.7-.1 4.6s2.3.9 7.7.8 9.5-1.4 9.5-1.4l-.1-5.2s-4.7 1.1-8.8 1.2-8.2 0-8.2 0z" fill="#e5e5e5"/><path d="m10.2 198.1s3.9 3.4 9.6 3.8 7.6-.3 7.6-.3l-.8 5.5s-1.2.8-6.8.3c-8.5-.8-10.3-3.3-10.3-3.3z" fill="#e5e5e5"/><path d="m23.1 105.2s4.6 1 14.3 1 22-1.6 22-1.6l.5 4.8s-13 2.2-21.2 2.4-15.7-1.4-15.7-1.4z" fill="#2d3134"/><path d="m29 71c1-7-2.7-9.8-6.7-12.6-3.4-2.3-5.9-1.6-7.6.6-1.4 7 2.8 18 5.8 27.1 3.8 11.6-1 23.7-1.1 24.1-.3 1.5 14.1 28.6 15.6 24.3 1.4-3.9-3-17.7-4.5-23-4.3-15.9-3.5-25.8-1.5-40.5z" opacity=".2"/><path d="m21.1 124.8s-.2 7.9 0 10.5c.2 2.7 1.2 6.3 2.1 7.1 1.6 1.6 4.7 2.9 6.8 2.4 2.1-.4 2.2-2.5 2.2-3.3s-.3-7.9-.3-7.9 1.1.1 1.3 1.1c.3 1-.7 2.3.3 3s1.8-1.6 2-2.9c.2-1.2-.4-3.4-1-4.1s-1.2-1.7-2.4-2.8-3.8-4.1-3.8-4.1z" fill="#fbd7c7"/><path d="m22.3 55.5c4 2.8 7.7 7 6.1 13.9s-5.5 24.6-5.5 24.6.8 3.7 2.6 10.4c1.4 5.3 3.9 14.3 4.6 18.4.2 1.1-.6 2.1-.7 2.3-.5.9-6.2 2-8.4 2.2-.3 0-1.4-.4-1.5-.5-1.9-1.8-4-9.3-5.7-14.8s-4.1-15.1-3.8-18.8c.3-3.6 1.8-22.7 2.2-26.5.6-6.4 3.9-15.5 10.1-11.2z" fill="#cc291f"/><path d="m11.4 73s2.5.8 6.7 1.5 9.1.9 9.1.9l-1.2 5.4s-3.7.4-8.7-.4c-4.4-.7-6.3-1.3-6.3-1.3z" fill="#e5e5e5"/></svg>