<svg enable-background="new 0 0 80 240" viewBox="0 0 80 240" xmlns="http://www.w3.org/2000/svg"><path d="m62.6 81.9s6.4 1.8 8.2 2.8 5.2 3 5 5.3-1.5 4.4-4.1 5c-2.6.7-3.6-.6-3.6-1.3s.3-2-.3-2.4-5.4-2-6.4-2.9c-.9-.8-2.4-2.6-2.4-2.6z" fill="#fbd7c7"/><path d="m52 64.7s6.8 10.8 8.1 12.7 3.3 4.4 3.3 4.4l-4.1 4.5-2.1-1.8s-6.8-6.5-7.8-7.1c-1.4-.8-1.9-11.6-1.9-11.6z" fill="#cc291f"/><path d="m52 64.7s6.8 10.8 8.1 12.7 3.3 4.4 3.3 4.4l-4.1 4.5-2.1-1.8s-6.8-6.5-7.8-7.1c-1.4-.8-1.9-11.6-1.9-11.6z" opacity=".2"/><path d="m15.3 226.5c-12.3-8.3-.6-16.8 16.6-19.9 7.5-1.3 21-10.2 39.8 1.8 15.1 9.6-8 12.5-17.6 15.6-11.3 3.6-23.9 12.5-38.8 2.5z" opacity=".2"/><path d="m27.5 45.9 10.3-2.9 7.1 1.7 3.2 62z" fill="#fff"/><path d="m47.9 200.2 10.5 1.2s.2 1.8 2.1 3.8 10.1 6.4 11.7 7.6c2.8 2.1.9 5-1.5 5.4-2.6.4-6.1-.4-10.5-2-3.4-1.2-7.5-2.3-11.3-3.6-3.4-1.1-2.5-5.9-2-8s1-4.4 1-4.4z" fill="#2d3134"/><path d="m70.6 216.6c-2.7.4-6.5-.5-11.2-2.2-3.7-1.3-8-2.5-12-3.9-.3-.1-.5-.2-.7-.3.3 1 1 1.9 2.2 2.3 3.8 1.3 7.9 2.4 11.3 3.6 4.4 1.6 7.9 2.4 10.5 2 1.8-.3 3.2-1.9 2.8-3.5-.5 1-1.6 1.8-2.9 2z" opacity=".4"/><path d="m14.7 208.3c.2.1 10.6 2.2 10.6 2.2s2.7 6 5.3 8.2c2.1 1.8 8 5.7 7.7 7.9s-6.3 4-11.9 1.1c-2.6-1.3-12.9-6.6-13.4-10.1-.6-4 1.7-9.3 1.7-9.3z" fill="#2d3134"/><path d="m26.4 225.9c-2.6-1.3-12.9-6.6-13.4-10.1 0-.2 0-.3-.1-.5-.1.8-.1 1.6.1 2.3.5 3.5 10.8 8.8 13.4 10.1 5.6 2.9 11.6 1.1 11.9-1.1 0-.3-.1-.7-.3-1.2-1.2 1.9-6.6 3.1-11.6.5z" opacity=".4"/><path d="m59.7 168c.1-9.9-1.2-21.4-.3-33 .4-4.9-1.5-22.3-2-26.2-1.2-9.8-3.1-28.5-3.1-33s2-22.7 0-25.2-10.2-4.5-10.8-4.8c0 0 1.4 27.8 1.5 33.5 0 .8.1 2 .2 3.6-1.5-5.8-3.7-10.9-5.2-14.5-1.9-4.5-12.6-22.5-12.6-22.5s-9.6 5.5-13.4 9c-6.1 5.7 2.3 17.3 3.1 29.4.4 5.1.4 13 2 19.6-.1 1.7-.1 3.2-.2 4.8-3.1 3.9-6.2 23-6.1 32.5.1 7.1-2 31-2 39.5 0 7.7 1.3 33.1 1.7 33.9 1.7 3.1 14.8.8 15.1-.2s-.2-3.2-.4-7.9 4-31.8 4.9-36.8c.9-4.8 2.6-15.6 5.3-25.5.1.4 2.8 11.3 3.3 21 .4 8.8 2.7 17.1 3.3 21.1.6 4.2 1.5 19.2 2 20.2.3.6.6 1.3 2.8 1.2s10.5-.3 12.3-2c2.6-2.5-1.6-27.8-1.4-37.7z" fill="#cc291f"/><path d="m28.1 45.8s2.6-1.1 2.8-2.9c.2-1.9-5.6-9.2-.8-16s16.9-5.6 19 1.2 2.3 19.6.7 21c-2 1.7-5.6 1-5.6 1s-1.2 3.1-.9 4.9c.4 2.5-1.9 2.8-3.2 2.7-1.8-.2-9.5-4.9-12-11.9z" fill="#fbd7c7"/><path d="m30.1 41.2 1.5.9s-4-5.4-1.3-6.5 3.9 2.2 3.9 2.2 2-3.4 5-3.7c3.1-.3 11.4-2.2 11.2-4.8-.1-1-3.4-10-13.3-8.3s-10.2 9.9-9.6 13.2 2.6 7 2.6 7z" fill="#762c07"/><path d="m58.6 108.7-24.8-2.9 3.6-30.3 24.7 2.8z" fill="#2d3134"/><path d="m44.4 100.9s4.1.7 6.4 1.4c2.3.6 6.2.6 8.9.2s3.2-7.1.3-7.4-4.7-.5-4.7-.5 1.2-2.3 2.8-3.4c1.2-.8 1.6-1.3 1-2.2-.6-.8-3.8 1.7-6.3 2.9s-3.5.3-4.9 1.1c-1.4.7-3.5 1.2-3.5 1.2z" fill="#fbd7c7"/><path d="m44.7 101.1.3-7.1-3.5-.2s-2.5-1.4-8.7-3.9c-4.8-2-8.2-2.8-8.2-2.8s1.8-13.4 2.2-20.3-5.4-13.7-10.9-12.2c-1.8.5-2.9 1.5-3.5 2.9-2.3 6.2 4.1 16.3 4.8 26.9.3 4.9.4 12.2 1.8 18.6 5.7-.4 21.8-1.9 21.8-1.9z" opacity=".2"/><path d="m16 53.9c5.4-1.5 10.1 3.8 9.7 10.7-.4 7-3.4 24.4-3.4 24.4s3.6 1.1 8.7 2.1c5.5 1.1 11.3 1.4 12.5 1.7 1.3.4 1.5 1.2 1.5 1.2l-.3 7.1s-1 .3-3.8.8-8.8-.6-16.1-1-12.2-.5-13.4-4.7-1.6-17.4-1.3-24.4-.4-16.2 5.9-17.9z" fill="#cc291f"/><path d="m54.4 30.9s2.8 1.2 2.8 2.1-8.3 4.5-14 3.9-16.1-3.5-16.7-5 .7-16.2 12.7-16.2c14 0 15.2 15.2 15.2 15.2z" fill="#39c"/><path d="m57.2 33c0 .9-8.3 4.5-14 3.9-4.6-.5-12.1-2.4-15.2-4 3.1 1.1 7.3 2.2 10.4 2.1 5.4-.2 14.2-2.8 16.1-4.1-.1 0 2.7 1.2 2.7 2.1z" opacity=".2"/><path d="m52.9 29.2-1.2.4c-.6-3.6-3.3-13.3-13.8-13.3-.6 0-1.2.1-1.8.1.9-.3 1.9-.4 3-.4 10.4 0 13.1 9.5 13.8 13.2z" opacity=".2"/><path d="m48.5 30.7c-.3-2.6-2-13.8-11.2-13.8-.5 0-1 .1-1.4.1.7-.3 1.5-.4 2.4-.4 9.1 0 11.2 10.9 11.5 13.6z" opacity=".2"/><g fill="#e5e5e5"><path d="m11.5 197.4v5.5s4.1 1.2 8.2.8 8-1.6 8-1.6l.6-5.7s-7 1.6-9.3 1.6-7.5-.6-7.5-.6z"/><path d="m44.5 193.1.3 4.8s4.8.6 8.7-.1 8.3-2.5 8.3-2.5l-.3-5.3s-5.3 2.5-8.3 2.9-8.7.2-8.7.2z"/><path d="m24.5 76.6-.9 6s-3.9.3-6.8.3-6.8-.4-6.8-.4v-6.1s4 .6 7 .5 7.5-.3 7.5-.3z"/></g><path d="m19.2 103.8s4.6 1 14.3 1 22-1.6 22-1.6l.5 4.8s-13 2.2-21.2 2.4-15.8-1.5-15.8-1.5z" fill="#2d3134"/></svg>