<svg enable-background="new 0 0 80 144" viewBox="0 0 80 144" xmlns="http://www.w3.org/2000/svg"><path d="m60 139 14-7 4 2v2l-14 7-4-2z" fill="#656565"/><path d="m64 143-4-2v-2l4 2z" opacity=".11"/><path d="m64 143 14-7v-2l-14 7z" opacity=".29"/><path d="m2 110 14-7 4 2v2l-14 7-4-2z" fill="#656565"/><path d="m6 114-4-2v-2l4 2z" opacity=".11"/><path d="m6 114 14-7v-2l-14 7z" opacity=".29"/><path d="m8 113v-2l2-1 54 27-4 2z" fill="#656565"/><path d="m8 113v-2l54 27-2 1z" opacity=".11"/><path d="m16 109v-2l2-1 54 27-4 2z" fill="#656565"/><path d="m16 109v-2l54 27-2 1z" opacity=".11"/><path d="m58 123v3l-2-1z" fill="#2d3134"/><path d="m58 123v3l-2-1z" opacity=".11"/><path d="m22 118 14-7 22 11.1v2l-14 7v1.9l-22-11z" fill="#2d3134"/><path d="m44 133-22-11v-4l22 11z" opacity=".11"/><path d="m44 131 14-7v-2l-14 7z" opacity=".29"/><path d="m39 27.5 1-.5 1 .5v99l-1 .5-1-.5z" fill="#2d3134"/><path d="m39 27.5 1-.5v100l-1-.5z" opacity=".11"/><path d="m40 27 1 .5v99l-1 .5z" opacity=".29"/><path d="m52 20.5 1-.5 1 .5v99.5l-1 .5-1-.5z" fill="#2d3134"/><path d="m52 20.5 1-.5v100.5l-1-.5z" opacity=".11"/><path d="m53 20 1 .5v99.5l-1 .5z" opacity=".29"/><path d="m26 20.5 1-.5 1 .5v99.5l-1 .5-1-.5z" fill="#2d3134"/><path d="m26 20.5 1-.5v100.5l-1-.5z" opacity=".11"/><path d="m27 20 1 .5v99.5l-1 .5z" opacity=".29"/><path d="m18 11 14-7 30 15v6l-14 7-30-15z" fill="#656565"/><path d="m48 32-30-15v-6l30 15z" opacity=".11"/><path d="m48 32 14-7v-6l-14 7z" opacity=".29"/></svg>