<svg enable-background="new 0 0 80 240" viewBox="0 0 80 240" xmlns="http://www.w3.org/2000/svg"><path d="m9.4 55.9c-1.2 6.2-4.8 26.2-2.8 29.8s10.9 3.3 17.3.3c6.3-2.9-14.5-30.1-14.5-30.1z" fill="#cc291f"/><path d="m7 68.3-.8 6.3s3.3 1.1 5.4 1.1 3.3.1 3.3.1l-1.3-6z" fill="#e5e5e5"/><path d="m9.4 55.9c-1.2 6.2-4.8 26.2-2.8 29.8s10.9 3.3 17.3.3c6.3-2.9-14.5-30.1-14.5-30.1z" opacity=".2"/><path d="m58.6 227.1c12.5-4.6 5.1-9.9-8.4-17.1-13-6.9-19-17.4-35.9-6.7-13.6 8.7 5.3 18.2 11.8 22.2 9.8 6.2 15.9 7.8 32.5 1.6z" opacity=".2"/><path d="m12 201.7s-.8 7.9.2 9.6c1.2 2.2 5.3 2.5 8.3.8s5.1-4.2 8.6-5.1 7.6-3.5 5.6-5.5c-2.4-2.4-5.1-1.9-10.7-.7-1.8.4-2.8-1.6-2.8-1.6z" fill="#2d3134"/><path d="m34.8 201.5s-.1-.1 0 0c-.2 1.6-3.4 3.4-6.2 4.2-3.5.9-5.6 3.4-8.6 5.1-2.8 1.6-6.5 1.5-8-.3.1.3.2.6.3.8 1.2 2.2 5.3 2.5 8.3.8s5.1-4.2 8.6-5.1c3.5-1 7.6-3.5 5.6-5.5z" opacity=".4"/><path d="m60.9 80.3-24.7 3.8-4.6-30.3 24.6-3.7z" fill="#2d3134"/><path d="m22 52.6s4.2 4.8 7.6 5.7c3.8 1.1 11 .1 11 .1s2.2-8.2 2.8-9.4 2.8-1.1 3.2-3.8 1.8-15.5 0-17.7-11.3-7.7-16.7-1.2-2 17.3-2.4 19.9c-.3 2.7-5.5 6.4-5.5 6.4z" fill="#fbd7c7"/><path d="m27.2 47.9s6.3 2.3 10 1.6 6-4.4 6-4.4.1-5 1.2-6.8 1.6-.8 1.6-.8 2.3-4 2.1-6.8c-.2-3.7-3.8-9.6-13.7-7.1-7.7 2-8.9 10.1-8.8 13.5.1 3.5 1.6 10.8 1.6 10.8z" fill="#762c07"/><path d="m36.1 217.8c-.3 2.7-1 10.3 1.2 11.1 3.4 1.3 9.7-.8 12.8-1.8s11-3.2 11.3-5.8c.3-2.5-1.9-4.6-6.3-3.8-3.6.7-8 .4-8.7-1-.6-1.4-.6-1.4-.6-1.4z" fill="#2d3134"/><path d="m61.1 219.5v.5c-.3 2.7-8.5 4.9-11.6 6-3.1 1-9.6 3.2-13.1 1.9 0 0-.1 0-.1-.1.2.6.5 1 1 1.2 3.4 1.3 9.7-.8 12.8-1.8s11-3.2 11.3-5.8c.1-.8 0-1.4-.3-1.9z" opacity=".4"/><path d="m53 83.2c.4-6.1 1.7-15.2-2.2-18.9-3.8-3.7-10.1-6-10.1-6s-6.2.5-12-1.7c-5.7-2.2-5.2-5.5-5.2-5.5s-11-2.1-13.6 3.3c-2.5 5.4 2.3 23.5 3.2 30.2.8 6.3.5 11.2 1.3 19.8-.1.7-.3 4.1-.4 4.8-1.8 3.4-2.9 11.7-3.1 12.8-1.6 9.4.1 29.5-.4 35.8-.4 5.2-1.2 20.2-1 28.3.3 8.9 1.5 20.8 2.4 21.7 2.7 2.5 7.5 0 10.2-2.4s3.2-3.5 3.5-4.8-.3-3.6-.2-11.4 1.8-23.3 2.5-27.7c.3-2.2 1.7-7.4 3.2-12.9 1.7 7.5 2.9 14.7 1.6 25.3-1.4 11.1.3 23.7.4 30.1s.8 19 2.7 20.1c1.4.8 4.2.7 7.8-.7 6.9-2.8 6.6-6 6.6-6s.7-8.6.5-14.9c-.3-7.4-1-22.3.2-33.5 1.1-10.8 4-30.6 3.5-42.6 0-.7-.1-10-2.2-14-.1-1.9-.3-3.6-.3-5.6 2.4-4.7.9-20.5 1.1-23.6z" fill="#cc291f"/><path d="m73.3 81.1s.8-1.7.6-4-.5-11.6-2.3-12.3-4.5-.3-4.2 4c.3 4.2-1.1 4.8-.6 7.1.6 2.3 2 3.7 2 3.7z" fill="#fbd7c7"/><path d="m45 66c-6.5 2.3-4.6 10.1-3.8 14.1.6 3.3 6 19.7 10.7 28 0-.4 0-.8-.1-1.2 2.5-4.7 1-20.5 1.2-23.6.3-4.2.9-9.7.1-14-1.3-3-3.5-4.9-8.1-3.3z" opacity=".2"/><path d="m44.4 63.5c-6.5 2.3-5.5 10.4-3.8 14.1s8.2 28.1 17.4 27.9c7.5-.1 14.7-20.2 14.7-20.2l.9-4.4-6.1-2.9-2.2 2-7 8.5s-2.9-11.5-3.8-15.2c-1.3-4.9-3.6-12-10.1-9.8z" fill="#cc291f"/><path d="m57.7 64.4c-1.1.1-1.1 2.9-.2 6.1s1.1 5.1 2.6 4.8.6-5.6.2-6.9c-.4-1.4-1.2-4.2-2.6-4z" fill="#fbd7c7"/><g fill="#e5e5e5"><path d="m9.6 192.2.3 4.7s2.6 1.1 6.4-.3c5.7-2 9.3-5.5 9.3-5.5l-.1-4.3s-7.9 4.4-10.1 4.9c-3.6.8-5.8.5-5.8.5z"/><path d="m33 209.5s1.9 1.2 7.7-.1 10.2-5.4 10.2-5.4l-.1 5.8s-4.3 4.1-8.8 5.2c-4.6 1.1-8.4.7-8.4.7z"/><path d="m42.8 84.2 2.2 5.8s4-.9 6.5-2.2c4.6-2.4 5.8-4.5 5.8-4.5l-1.5-5.9s-3.2 2.6-6.8 4.3c-2.4 1.2-6.2 2.5-6.2 2.5z"/></g><path d="m48 36.5c2.9-1 6.7-5.5 5.7-8.6-1-3-5.5-4.6-8.6-4.6-3 .2 2.9 13.2 2.9 13.2z" fill="#39c"/><path d="m48 36.5c2.9-1 6.7-5.5 5.7-8.6-1-3-5.5-4.6-8.6-4.6-3 .2 2.9 13.2 2.9 13.2z" opacity=".2"/><path d="m24.3 39.1c2.1 2.4 11.7 4.6 18.9.8 7.1-3.8 9.4-9.1 7.4-13.8-2.7-6.4-15.2-9.6-22-3.7s-5.8 15.1-4.3 16.7z" fill="#39c"/><path d="m45.3 21.5c-4.9-2.1-11.4-2.3-15.7 1.4-3 2.6-4.6 6-5.2 8.9.4.2.8.3 1.2.4.6-2.9 2.3-6.4 5.2-8.9 3.9-3.3 9.7-3.4 14.5-1.8z" opacity=".2"/><path d="m31.7 23.9c-2.7 2.6-4 5.9-4.5 8.9.4.1.7.1 1.1.2.5-2.9 1.8-6.1 4.5-8.6 3.5-3.4 8.8-3.8 13.1-2.2-4.5-2.2-10.4-2.1-14.2 1.7z" opacity=".2"/><path d="m38.6 114c5.2-.1 12.4-1.1 13.7-1.6 0-.7-.4-5-.4-5.8-1.4.5-8.3 1.4-13.4 1.5-8.2.2-20.1-2.6-24.1-3.9-.1.8-.2 4.5-.4 5.1 3.5 1.3 16.1 4.9 24.6 4.7z" fill="#2d3134"/></svg>