<svg enable-background="new 0 0 472 408" viewBox="0 0 472 408" xmlns="http://www.w3.org/2000/svg"><path d="m88 372 72 36 96-48-72-36z" opacity=".2"/><path d="m176 328 8 4 8-4v-224l-8-4-8 4z" fill="#e5e5e5"/><path d="m176 328 8 4v-224l-8-4z" opacity=".11"/><path d="m184 332 8-4v-224l-8 4z" opacity=".29"/><path d="m184 248-80 40-8-4v-8l80-40 8 4z" fill="#e5e5e5"/><path d="m184 248-80 40v-8l80-40z" opacity=".29"/><path d="m104 280-8-4 80-164 8 4v10l-74 151z" fill="#e5e5e5"/><path d="m104 280 80-164v10l-74 151z" opacity=".29"/><path d="m88 372 8 4 8-4v-224l-8-4-8 4z" fill="#e5e5e5"/><path d="m88 372 8 4v-224l-8-4z" opacity=".11"/><path d="m96 376 8-4v-224l-8 4z" opacity=".29"/><path d="m440 16-432 216-4-2v-8l432-216 4 2z" fill="#e5e5e5"/><path d="m440 16-432 216v-8l432-216z" opacity=".29"/><path d="m4 222 4 2v8l-4-2z" opacity=".11"/><path d="m436 18 32 16 4-2v-8l-32-16-4 2z" fill="#e5e5e5"/><path d="m436 18 32 16v-8l-32-16z" opacity=".11"/><path d="m442 21-422 211-2-1v-2l422-211 2 1z" fill="#656565"/><path d="m442 21-422 211v-2l422-211z" opacity=".29"/><path d="m18 229 2 1v2l-2-1z" opacity=".11"/><path d="m454 27-422 211-2-1v-2l422-211 2 1z" fill="#656565"/><path d="m454 27-422 211v-2l422-211z" opacity=".29"/><path d="m30 235 2 1v2l-2-1z" opacity=".11"/><path d="m8 232 32 16 4-2v-8l-32-16-4 2z" fill="#e5e5e5"/><path d="m8 232 32 16v-8l-32-16z" opacity=".11"/><path d="m364 54 32 16 4-2v-8l-32-16-4 2z" fill="#e5e5e5"/><path d="m364 54 32 16v-8l-32-16z" opacity=".11"/><path d="m472 32-432 216-4-2v-8l432-216 4 2z" fill="#e5e5e5"/><path d="m472 32-432 216v-8l432-216z" opacity=".29"/><path d="m36 238 4 2v8l-4-2z" opacity=".11"/><path d="m184 116 56 28 8-4v-8l-56-28-8 4z" fill="#e5e5e5"/><path d="m184 116 56 28v-8l-56-28z" opacity=".11"/><path d="m184 316 56 28 8-4v-8l-56-28-8 4z" fill="#e5e5e5"/><path d="m184 316 56 28v-8l-56-28z" opacity=".11"/><path d="m240 360 8 4 8-4v-224l-8-4-8 4z" fill="#e5e5e5"/><path d="m240 360 8 4v-224l-8-4z" opacity=".11"/><path d="m248 364 8-4v-224l-8 4z" opacity=".29"/><path d="m248 280-80 40-8-4v-8l80-40 8 4z" fill="#e5e5e5"/><path d="m248 280-80 40v-8l80-40z" opacity=".29"/><path d="m180 104 4 2 4-2v-97l-4-2-4 2z" fill="#e5e5e5"/><path d="m180 104 4 2v-97l-4-2z" opacity=".11"/><path d="m184 106 4-2v-97l-4 2z" opacity=".29"/><path d="m168 312-8-4 80-164 8 4v10l-74 151z" fill="#e5e5e5"/><path d="m168 312 80-164v10l-74 151z" opacity=".29"/><path d="m396 62-176-36-4-5 4 2 180 37z" fill="#e5e5e5"/><path d="m396 62-176-36-4-5 180 37 4 2z" fill="#e5e5e5"/><path d="m396 62-176-36v-3l180 37z" opacity=".29"/><path d="m364 46-176-36-4-5 4 2 180 37z" fill="#e5e5e5"/><path d="m364 46-176-36-4-5 180 37 4 2z" fill="#e5e5e5"/><path d="m364 46-176-36v-3l180 37z" opacity=".29"/><path d="m96 160 56 28 8-4v-8l-56-28-8 4z" fill="#e5e5e5"/><path d="m96 160 56 28v-8l-56-28z" opacity=".11"/><path d="m96 360 56 28 8-4v-8l-56-28-8 4z" fill="#e5e5e5"/><path d="m96 360 56 28v-8l-56-28z" opacity=".11"/><path d="m152 404 8 4 8-4v-224l-8-4-8 4z" fill="#e5e5e5"/><path d="m152 404 8 4v-224l-8-4z" opacity=".11"/><path d="m160 408 8-4v-224l-8 4z" opacity=".29"/><path d="m132 161-4-2 52-152 4-2 4 2-52 152z" fill="#e5e5e5"/><path d="m132 161 52-152 4-2-52 152z" opacity=".29"/><path d="m244 136 4 2 4-2-32-113-4-2-4 2z" fill="#e5e5e5"/><path d="m244 136 4 2-32-113-4-2z" opacity=".11"/><path d="m248 138 4-2-32-113-4 2z" opacity=".29"/><path d="m164 177-4-2 52-152 4-2 4 2-52 152z" fill="#e5e5e5"/><path d="m164 177 52-152 4-2-52 152z" opacity=".29"/><path d="m74 154 24-12 56 28v2l-24 12-56-28z" fill="#e5e5e5"/><path d="m82.9 154 15.1-7.5 47.1 23.5-15.1 7.5z" opacity=".3"/><path d="m98 149v-2.5l-15.1 7.5 2.6 1.3z" opacity=".29"/><path d="m98 149 44.5 22.3 2.6-1.3-47.1-23.5z" opacity=".11"/><path d="m130 202-56-28v-20l56 28z" fill="#e5e5e5"/><g fill="#fff"><path d="m93 174.5-13-6.5v-8l13 6.5z"/><path d="m109 182.5-13-6.5v-8l13 6.5z"/><path d="m125 190.5-13-6.5v-8l13 6.5z"/></g><path d="m124 189-5-2.5v-6l5 2.5z" fill="#39c"/><path d="m120 186v-5l-1-.5v6l5 2.5v-1z" opacity=".3"/><path d="m118 186-5-2.5v-6l5 2.5z" fill="#39c"/><path d="m114 183v-5l-1-.5v6l5 2.5v-1z" opacity=".3"/><path d="m108 181-5-2.5v-6l5 2.5z" fill="#39c"/><path d="m104 178v-5l-1-.5v6l5 2.5v-1z" opacity=".3"/><path d="m102 178-5-2.5v-6l5 2.5z" fill="#39c"/><path d="m98 175v-5l-1-.5v6l5 2.5v-1z" opacity=".3"/><path d="m92 173-5-2.5v-6l5 2.5z" fill="#39c"/><path d="m92 173-5-2.5v-6z" fill="#fff" opacity=".2"/><path d="m88 170v-5l-1-.5v6l5 2.5v-1z" opacity=".3"/><path d="m86 170-5-2.5v-6l5 2.5z" fill="#39c"/><path d="m82 167v-5l-1-.5v6l5 2.5v-1z" opacity=".3"/><path d="m130 202-56-28v-20l56 28z" opacity=".11"/><path d="m130 202 24-12v-20l-24 12z" fill="#e5e5e5"/><path d="m135 190.5 13-6.5v-8l-13 6.5z" fill="#fff"/><path d="m136 189 5-2.5v-6l-5 2.5z" fill="#39c"/><path d="m140 186v-5l1-.5v6l-5 2.5v-1z" opacity=".3"/><path d="m142 186 5-2.5v-6l-5 2.5z" fill="#39c"/><path d="m146 183v-5l1-.5v6l-5 2.5v-1z" opacity=".3"/><path d="m130 202 24-12v-20l-24 12z" opacity=".29"/><path d="m4 222 4 2 4-2 176-215-4-2-4 2z" fill="#e5e5e5"/><path d="m8 224 4-2 176-215-4 2z" opacity=".29"/><path d="m184 14 30 15 4-7-30-15-4 2z" fill="#e5e5e5"/><path d="m184 14 30 15v-5l-30-15z" opacity=".11"/><path d="m36 238 4 2 4-2 176-215-4-2-4 2z" fill="#e5e5e5"/><path d="m40 240 4-2 176-215-4 2z" opacity=".29"/></svg>