<svg enable-background="new 0 0 48 40" viewBox="0 0 48 40" xmlns="http://www.w3.org/2000/svg"><path d="m28 35 14-7 4 2v2l-14 7-4-2z" fill="#656565"/><path d="m32 39-4-2v-2l4 2z" opacity=".11"/><path d="m32 39 14-7v-2l-14 7z" opacity=".29"/><path d="m2 22 14-7 4 2v2l-14 7-4-2z" fill="#656565"/><path d="m6 26-4-2v-2l4 2z" opacity=".11"/><path d="m6 26 14-7v-2l-14 7z" opacity=".29"/><path d="m6 22 14-7 22 11.1v2l-14 7v1.9l-22-11z" fill="#2d3134"/><path d="m28 37-22-11v-4l22 11z" opacity=".11"/><path d="m28 35 14-7v-2l-14 7z" opacity=".29"/><path d="m23 27.5 1-.5 1 .5v3l-1 .5-1-.5z" fill="#2d3134"/><path d="m23 27.5 1-.5v4l-1-.5z" opacity=".11"/><path d="m24 27 1 .5v3l-1 .5z" opacity=".29"/><path d="m10 20.5 1-.5 1 .5v3.5l-1 .5-1-.5z" fill="#2d3134"/><path d="m10 20.5 1-.5v4.5l-1-.5z" opacity=".11"/><path d="m11 20 1 .5v3.5l-1 .5z" opacity=".29"/><path d="m2 11 14-7 30 15v6l-14 7-30-15z" fill="#656565"/><path d="m32 32-30-15v-6l30 15z" opacity=".11"/><path d="m32 32 14-7v-6l-14 7z" opacity=".29"/></svg>