<svg enable-background="new 0 0 472 376" viewBox="0 0 472 376" xmlns="http://www.w3.org/2000/svg"><path d="m232 340 72 36 96-48-72-36z" opacity=".2"/><path d="m320 296 8 4 8-4v-224l-8-4-8 4z" fill="#e5e5e5"/><path d="m320 296 8 4v-224l-8-4z" opacity=".11"/><path d="m328 300 8-4v-224l-8 4z" opacity=".29"/><path d="m328 216-80 40-8-4v-8l80-40 8 4z" fill="#e5e5e5"/><path d="m328 216-80 40v-8l80-40z" opacity=".29"/><path d="m328 208-8-4-80-80v-8l8 4 80 80z" fill="#e5e5e5"/><path d="m328 208-80-80v-8l80 80z" opacity=".29"/><path d="m240 124 80 80 8 4-80-80z" opacity=".11"/><path d="m232 340 8 4 8-4v-224l-8-4-8 4z" fill="#e5e5e5"/><path d="m232 340 8 4v-224l-8-4z" opacity=".11"/><path d="m240 344 8-4v-224l-8 4z" opacity=".29"/><path d="m440 56-432 216-4-2v-8l432-216 4 2z" fill="#e5e5e5"/><path d="m440 56-432 216v-8l432-216z" opacity=".29"/><path d="m4 262 4 2v8l-4-2z" opacity=".11"/><path d="m436 58 32 16 4-2v-8l-32-16-4 2z" fill="#e5e5e5"/><path d="m436 58 32 16v-8l-32-16z" opacity=".11"/><path d="m442 61-422 211-2-1v-2l422-211 2 1z" fill="#656565"/><path d="m442 61-422 211v-2l422-211z" opacity=".29"/><path d="m18 269 2 1v2l-2-1z" opacity=".11"/><path d="m454 67-422 211-2-1v-2l422-211 2 1z" fill="#656565"/><path d="m454 67-422 211v-2l422-211z" opacity=".29"/><path d="m30 275 2 1v2l-2-1z" opacity=".11"/><path d="m8 272 32 16 4-2v-8l-32-16-4 2z" fill="#e5e5e5"/><path d="m8 272 32 16v-8l-32-16z" opacity=".11"/><path d="m96 228 32 16 4-2v-8l-32-16-4 2z" fill="#e5e5e5"/><path d="m96 228 32 16v-8l-32-16z" opacity=".11"/><path d="m472 72-432 216-4-2v-8l432-216 4 2z" fill="#e5e5e5"/><path d="m472 72-432 216v-8l432-216z" opacity=".29"/><path d="m36 278 4 2v8l-4-2z" opacity=".11"/><path d="m336 56 24-12 56 28v2l-24 12-56-28z" fill="#e5e5e5"/><path d="m344.9 56 15.1-7.5 47.1 23.5-15.1 7.5z" opacity=".3"/><path d="m360 51v-2.5l-15.1 7.5 2.6 1.3z" opacity=".29"/><path d="m360 51 44.5 22.3 2.6-1.3-47.1-23.5z" opacity=".11"/><path d="m392 104-56-28v-20l56 28z" fill="#e5e5e5"/><g fill="#fff"><path d="m355 76.5-13-6.5v-8l13 6.5z"/><path d="m371 84.5-13-6.5v-8l13 6.5z"/><path d="m387 92.5-13-6.5v-8l13 6.5z"/></g><path d="m386 91-5-2.5v-6l5 2.5z" fill="#39c"/><path d="m382 88v-5l-1-.5v6l5 2.5v-1z" opacity=".3"/><path d="m380 88-5-2.5v-6l5 2.5z" fill="#39c"/><path d="m376 85v-5l-1-.5v6l5 2.5v-1z" opacity=".3"/><path d="m370 83-5-2.5v-6l5 2.5z" fill="#39c"/><path d="m366 80v-5l-1-.5v6l5 2.5v-1z" opacity=".3"/><path d="m364 80-5-2.5v-6l5 2.5z" fill="#39c"/><path d="m360 77v-5l-1-.5v6l5 2.5v-1z" opacity=".3"/><path d="m354 75-5-2.5v-6l5 2.5z" fill="#39c"/><path d="m354 75-5-2.5v-6z" fill="#fff" opacity=".2"/><path d="m350 72v-5l-1-.5v6l5 2.5v-1z" opacity=".3"/><path d="m348 72-5-2.5v-6l5 2.5z" fill="#39c"/><path d="m344 69v-5l-1-.5v6l5 2.5v-1z" opacity=".3"/><path d="m392 104-56-28v-20l56 28z" opacity=".11"/><path d="m392 104 24-12v-20l-24 12z" fill="#e5e5e5"/><path d="m397 92.5 13-6.5v-8l-13 6.5z" fill="#fff"/><path d="m398 91 5-2.5v-6l-5 2.5z" fill="#39c"/><path d="m402 88v-5l1-.5v6l-5 2.5v-1z" opacity=".3"/><path d="m404 88 5-2.5v-6l-5 2.5z" fill="#39c"/><path d="m408 85v-5l1-.5v6l-5 2.5v-1z" opacity=".3"/><path d="m392 104 24-12v-20l-24 12z" opacity=".29"/><path d="m328 84 56 28 8-4v-8l-56-28-8 4z" fill="#e5e5e5"/><path d="m328 84 56 28v-8l-56-28z" opacity=".11"/><path d="m328 284 56 28 8-4v-8l-56-28-8 4z" fill="#e5e5e5"/><path d="m328 284 56 28v-8l-56-28z" opacity=".11"/><path d="m384 328 8 4 8-4v-224l-8-4-8 4z" fill="#e5e5e5"/><path d="m384 328 8 4v-224l-8-4z" opacity=".11"/><path d="m392 332 8-4v-224l-8 4z" opacity=".29"/><path d="m392 248-80 40-8-4v-8l80-40 8 4z" fill="#e5e5e5"/><path d="m392 248-80 40v-8l80-40z" opacity=".29"/><path d="m392 240-8-4-80-80v-8l8 4 80 80z" fill="#e5e5e5"/><path d="m392 240-80-80v-8l80 80z" opacity=".29"/><path d="m304 156 80 80 8 4-80-80z" opacity=".11"/><path d="m376 112-4-2-81-81v-6l4 2 85 85z" fill="#e5e5e5"/><path d="m376 112-81-81v-6l85 85z" opacity=".29"/><path d="m291 29 81 81 4 2-81-81z" opacity=".11"/><path d="m468 66-173-38-4-5 4 2 177 39z" fill="#e5e5e5"/><path d="m468 66-173-38-4-5 177 39 4 2z" fill="#e5e5e5"/><path d="m468 66-173-38v-3l177 39z" opacity=".29"/><path d="m436 50-173-38-4-5 4 2 177 39z" fill="#e5e5e5"/><path d="m436 50-173-38-4-5 177 39 4 2z" fill="#e5e5e5"/><path d="m436 50-173-38v-3l177 39z" opacity=".29"/><path d="m344 96-4-2-81-81v-6l4 2 85 85z" fill="#e5e5e5"/><path d="m344 96-81-81v-6l85 85z" opacity=".29"/><path d="m259 13 81 81 4 2-81-81z" opacity=".11"/><path d="m240 128 56 28 8-4v-8l-56-28-8 4z" fill="#e5e5e5"/><path d="m240 128 56 28v-8l-56-28z" opacity=".11"/><path d="m240 328 56 28 8-4v-8l-56-28-8 4z" fill="#e5e5e5"/><path d="m240 328 56 28v-8l-56-28z" opacity=".11"/><path d="m296 372 8 4 8-4v-224l-8-4-8 4z" fill="#e5e5e5"/><path d="m296 372 8 4v-224l-8-4z" opacity=".11"/><path d="m304 376 8-4v-224l-8 4z" opacity=".29"/><path d="m236 116 4 2 4-2 19-107-4-2-4 2z" fill="#e5e5e5"/><path d="m236 116 4 2 19-107-4-2z" opacity=".11"/><path d="m240 118 4-2 19-107-4 2z" opacity=".29"/><path d="m92 218 4 2 4-2 163-209-4-2-4 2z" fill="#e5e5e5"/><path d="m96 220 4-2 163-209-4 2z" opacity=".29"/><path d="m259 16 32 16 4-2v-5l-32-16-4 2z" fill="#e5e5e5"/><path d="m259 16 32 16v-5l-32-16z" opacity=".11"/><path d="m300 148 4 2 4-2-13-123-4-2-4 2z" fill="#e5e5e5"/><path d="m300 148 4 2-13-123-4-2z" opacity=".11"/><path d="m304 150 4-2-13-123-4 2z" opacity=".29"/><path d="m124 234 4 2 4-2 163-209-4-2-4 2z" fill="#e5e5e5"/><path d="m128 236 4-2 163-209-4 2z" opacity=".29"/></svg>