<svg enable-background="new 0 0 544 392" viewBox="0 0 544 392" xmlns="http://www.w3.org/2000/svg"><path d="m191.8 256 96.2 48 68.5 31.5c12.4 5.7 25 10.8 37.8 15.3l34.2 12.1c7.7 2.7 15.4 5.2 23.3 7.5l48.2 14.2c17.1 5 28.4-17.3 14.2-28.1-4.7-3.6-8.1-8.5-9.9-14l-8.3-26.5-328-188h-168l20.2 25.9c1.9 2.5.2 6.1-3 6.1h-3c-3.6 0-4.7 4.8-1.5 6.4z" fill="#39c"/><path d="m191.8 256 96.2 48 68.5 31.5c12.4 5.7 25 10.8 37.8 15.3l34.2 12.1c7.7 2.7 15.4 5.2 23.3 7.5l48.2 14.2c17.1 5 28.4-17.3 14.2-28.1-4.7-3.6-8.1-8.5-9.9-14l-8.3-26.5-328-188h-168l20.2 25.9c1.9 2.5.2 6.1-3 6.1h-3c-3.6 0-4.7 4.8-1.5 6.4z" opacity=".15"/><path d="m510 252v5l-6-1-322-161-10-9-76-38-96 48 76 38 10 9 322 161h8v-5s29.5 18 60 18c37.6 0 68-15.2 68-34 0-14.7-34-31-34-31z" fill="#999"/><path d="m384 312-.2-.1c-.2-.1-.1-.1.2.1z"/><path d="m172 86-96 48 10 9 96-48z" opacity=".29"/><path d="m510 252v5s32 15.3 32 30c0 9.1-7.2 17.4-18.9 23.5 12.9-6.2 20.9-17.9 20.9-27.5 0-14.7-34-31-34-31z" opacity=".2"/><path d="m96 36-96 48v12l2 1 96-48v-12z" fill="#999"/><path d="m2 97-2-1v-12l2 1z" opacity=".11"/><path d="m98 49-96 48v-12l96-48z" opacity=".29"/><path d="m80 16-24 12-8 52 24 12 24-12v-56z" fill="#cc291f"/><path d="m54.3 39.1-3.4 22.3 21.1 10.6 24-12v-24l-24 12z" fill="#e5e5e5"/><path d="m96 80-24 12v-56l24-12z" opacity=".29"/><path d="m72 92-24-12 8-52 16 8z" opacity=".11"/><path d="m60 28 12 6 8-4v-12z" opacity=".29"/><path d="m80 18v12l12-6z" opacity=".11"/><path d="m136 0-96 48v4l16 8v48l24 12 64-32v-56l16-16v-4z" fill="#e5e5e5"/><path d="m136 2 20 10-92 46-20-10z" opacity=".2"/><path d="m155 12.5 1-.5-20-10v1z" opacity=".11"/><path d="m136 2-92 46 1 .5 91-45.5z" opacity=".29"/><path d="m112 8-32 16v12l16 8 32-16v-12z" fill="#e5e5e5"/><path d="m96 44-16-8v-12l16 8z" opacity=".11"/><path d="m112 10 12 6-28 14-12-6z" opacity=".2"/><g fill="#2d3134"><path d="m101 33v4l2-1v-4z"/><path d="m105 31v4l2-1v-4z"/><path d="m109 29v4l2-1v-4z"/><path d="m113 27v4l2-1v-4z"/><path d="m117 25v4l2-1v-4z"/><path d="m121 23v4l2-1v-4z"/><path d="m70 70v6l4 2v-6zm-8 2 4 2v-6l-4-2zm8 16 4 2v-6l-4-2zm-8-4 4 2v-6l-4-2z"/><path d="m94 74 4-2v-6l-4 2z"/><path d="m102 70 4-2v-6l-4 2z"/><path d="m118 62 4-2v-6l-4 2z"/><path d="m126 58 4-2v-6l-4 2z"/><path d="m94 62 4-2v-6l-4 2z"/><path d="m102 58 4-2v-6l-4 2z"/><path d="m110 54 4-2v-6l-4 2z"/><path d="m118 50 4-2v-6l-4 2z"/><path d="m126 40v6l4-2v-6z"/><path d="m94 86 4-2v-6l-4 2z"/><path d="m102 82 4-2v-6l-4 2z"/><path d="m118 74 4-2v-6l-4 2z"/><path d="m126 70 4-2v-6l-4 2z"/></g><path d="m64 60v4h16v56l64-32v-56l16-16v-4z" opacity=".29"/><path d="m128 28-32 16v-12l32-16z" opacity=".29"/><path d="m64 64-24-12v-4l24 12z" opacity=".11"/><path d="m56 60v48l24 12v-56h-16z" opacity=".11"/><path d="m123 16.5 1-.5-12-6v1z" opacity=".11"/><path d="m112 10-28 14 1 .5 27-13.5z" opacity=".29"/><path d="m104 .2c-.1 0-.3.1-.3.1l-.7 21.2c0 .3.4.5 1 .5s1-.2 1-.5l-.8-21.2c.1-.1-.1-.1-.2-.1z" fill="#e5e5e5"/><path d="m108.8 6.8-9.1 4.6c-.4.1-.7-.1-.7-.4 0-.2.1-.3.2-.4l9.1-4.6c.3-.1.6.1.6.4.1.2 0 .4-.1.4z" fill="#e5e5e5"/><path d="m107.9 2.2-7.5 3.8c-.2.1-.5-.1-.5-.3 0-.1.1-.3.2-.3l7.4-3.7c.2-.1.5.1.5.3.1.1 0 .2-.1.2z" fill="#e5e5e5"/><path d="m504 256-96 48h8l94-47z" opacity=".2"/><path d="m16 94c-1.1 0-2 .4-2 1v6c0 .6.9 1 2 1s2-.4 2-1v-6c0-.6-.9-1-2-1z" fill="#999"/><path d="m16 96c-1.1 0-2-.4-2-1v6c0 .6.9 1 2 1s2-.4 2-1v-6c0 .6-.9 1-2 1z" opacity=".2"/><path d="m8 90c-1.1 0-2 .4-2 1v6c0 .6.9 1 2 1s2-.4 2-1v-6c0-.6-.9-1-2-1z" fill="#999"/><path d="m8 92c-1.1 0-2-.4-2-1v6c0 .6.9 1 2 1s2-.4 2-1v-6c0 .6-.9 1-2 1z" opacity=".2"/><path d="m32 102c-1.1 0-2 .4-2 1v6c0 .6.9 1 2 1s2-.4 2-1v-6c0-.6-.9-1-2-1z" fill="#999"/><path d="m32 104c-1.1 0-2-.4-2-1v6c0 .6.9 1 2 1s2-.4 2-1v-6c0 .6-.9 1-2 1z" opacity=".2"/><path d="m48 110c-1.1 0-2 .4-2 1v6c0 .6.9 1 2 1s2-.4 2-1v-6c0-.6-.9-1-2-1z" fill="#999"/><path d="m48 112c-1.1 0-2-.4-2-1v6c0 .6.9 1 2 1s2-.4 2-1v-6c0 .6-.9 1-2 1z" opacity=".2"/><path d="m64 118c-1.1 0-2 .4-2 1v6c0 .6.9 1 2 1s2-.4 2-1v-6c0-.6-.9-1-2-1z" fill="#999"/><path d="m64 120c-1.1 0-2-.4-2-1v6c0 .6.9 1 2 1s2-.4 2-1v-6c0 .6-.9 1-2 1z" opacity=".2"/><path d="m24 98c-1.1 0-2 .4-2 1v6c0 .6.9 1 2 1s2-.4 2-1v-6c0-.6-.9-1-2-1z" fill="#999"/><path d="m24 100c-1.1 0-2-.4-2-1v6c0 .6.9 1 2 1s2-.4 2-1v-6c0 .6-.9 1-2 1z" opacity=".2"/><path d="m40 106c-1.1 0-2 .4-2 1v6c0 .6.9 1 2 1s2-.4 2-1v-6c0-.6-.9-1-2-1z" fill="#999"/><path d="m40 108c-1.1 0-2-.4-2-1v6c0 .6.9 1 2 1s2-.4 2-1v-6c0 .6-.9 1-2 1z" opacity=".2"/><path d="m56 114c-1.1 0-2 .4-2 1v6c0 .6.9 1 2 1s2-.4 2-1v-6c0-.6-.9-1-2-1z" fill="#999"/><path d="m56 116c-1.1 0-2-.4-2-1v6c0 .6.9 1 2 1s2-.4 2-1v-6c0 .6-.9 1-2 1z" opacity=".2"/><path d="m72 122c-1.1 0-2 .4-2 1v6c0 .6.9 1 2 1s2-.4 2-1v-6c0-.6-.9-1-2-1z" fill="#999"/><path d="m72 124c-1.1 0-2-.4-2-1v6c0 .6.9 1 2 1s2-.4 2-1v-6c0 .6-.9 1-2 1z" opacity=".2"/><path d="m156 74c-1.1 0-2 .4-2 1v6c0 .6.9 1 2 1s2-.4 2-1v-6c0-.6-.9-1-2-1z" fill="#999"/><path d="m156 76c-1.1 0-2-.4-2-1v6c0 .6.9 1 2 1s2-.4 2-1v-6c0 .6-.9 1-2 1z" opacity=".2"/><path d="m148 70c-1.1 0-2 .4-2 1v6c0 .6.9 1 2 1s2-.4 2-1v-6c0-.6-.9-1-2-1z" fill="#999"/><path d="m148 72c-1.1 0-2-.4-2-1v6c0 .6.9 1 2 1s2-.4 2-1v-6c0 .6-.9 1-2 1z" opacity=".2"/><path d="m164 78c-1.1 0-2 .4-2 1v6c0 .6.9 1 2 1s2-.4 2-1v-6c0-.6-.9-1-2-1z" fill="#999"/><path d="m164 80c-1.1 0-2-.4-2-1v6c0 .6.9 1 2 1s2-.4 2-1v-6c0 .6-.9 1-2 1z" opacity=".2"/><path d="m510 252-94 47v5l2 1 94-47v-5z" fill="#999"/><path d="m418 305-2-1v-5l2 1z" opacity=".11"/><path d="m512 258-94 47v-5l94-47z" opacity=".29"/><path d="m512 265c-1.1 0-2 .4-2 1v34c0 .6.9 1 2 1s2-.4 2-1v-34c0-.6-.9-1-2-1z" fill="#e5e5e5"/><path d="m512 267c-1.1 0-2-.4-2-1v34c0 .6.9 1 2 1s2-.4 2-1v-34c0 .6-.9 1-2 1z" opacity=".2"/><path d="m512 262c-3.3 0-6 1.3-6 3v1c0 1.7 2.7 3 6 3s6-1.3 6-3v-1c0-1.7-2.7-3-6-3z" fill="#e5e5e5"/><path d="m512 258c3.3 0 6 1.3 6 3v-1c0-1.7-2.7-3-6-3s-6 1.3-6 3v1c0-1.7 2.7-3 6-3z" fill="#e5e5e5"/><path d="m512 258c3.3 0 6 1.3 6 3v-1c0-1.7-2.7-3-6-3s-6 1.3-6 3v1c0-1.7 2.7-3 6-3z" opacity=".1"/><path d="m512 249c-1.1 0-2 .4-2 1v15c0 .6.9 1 2 1s2-.4 2-1v-15c0-.6-.9-1-2-1z" fill="#e5e5e5"/><path d="m512 251c-1.1 0-2-.4-2-1v15c0 .6.9 1 2 1s2-.4 2-1v-15c0 .6-.9 1-2 1z" opacity=".2"/><path d="m512 263c-3.3 0-6-1.3-6-3v1 5l1 1v-4.3c.3.2.6.4 1 .6v4.8h1v-4.4c.9.3 1.9.4 3 .4s2.1-.1 3-.4v4.4h1v-4.8c.4-.2.7-.4 1-.6v4.3l1-1v-5-1c0 1.7-2.7 3-6 3z" fill="#e5e5e5"/><path d="m512 263c-3.3 0-6-1.3-6-3v1 4 1c0 1.7 2.7 3 6 3s6-1.3 6-3v-1-4-1c0 1.7-2.7 3-6 3zm5-.3v4c-.3.2-.6.4-1 .6v-4c.4-.2.7-.4 1-.6zm-9 .5v4c-.4-.2-.7-.4-1-.6v-4c.3.3.6.5 1 .6zm1 4.4v-4c.9.3 1.9.4 3 .4s2.1-.1 3-.4v4c-.9.3-1.9.4-3 .4s-2.1-.1-3-.4z" opacity=".2"/><path d="m476 317c-30.5 0-60-18-60-18v5h-8l-322-161-10-9-76-38v31.8l383.8 191.9c3.2 1.4 69.5 31.3 97.2 28.1 28.9-3.4 59.3-38.8 63-62.8 0-.1-.1-.2-.1-.3-1.8 18-31.5 32.3-67.9 32.3z" fill="#cc291f"/><path d="m384 319.8-.2-.1c-.2-.1-.1-.1.2.1z" fill="#cc291f"/><path d="m476 317c-30.5 0-60-18-60-18v5h-8l-322-161-10-9-76-38v31.8l383.8 191.9c2.9 1.3 56.8 25.6 87.7 28.1l7.5-30.8c-1 0-2 0-3 0z" opacity=".11"/><path d="m481 347.8c28.9-3.4 59.3-38.8 63-62.8 0-.1-.1-.2-.1-.3-1.7 17.5-29.9 31.5-65 32.3l-7.3 30.8c3.4.3 6.6.3 9.4 0z" opacity=".29"/><path d="m504 294c-1.1 0-2 .4-2 1v6c0 .6.9 1 2 1s2-.4 2-1v-6c0-.6-.9-1-2-1z" fill="#999"/><path d="m504 296c-1.1 0-2-.4-2-1v6c0 .6.9 1 2 1s2-.4 2-1v-6c0 .6-.9 1-2 1z" opacity=".2"/><path d="m520 286c-1.1 0-2 .4-2 1v6c0 .6.9 1 2 1s2-.4 2-1v-6c0-.6-.9-1-2-1z" fill="#999"/><path d="m520 288c-1.1 0-2-.4-2-1v6c0 .6.9 1 2 1s2-.4 2-1v-6c0 .6-.9 1-2 1z" opacity=".2"/><path d="m460.5 307c0-1-.8-2.3-1.9-2.8-1-.5-1.9-.1-1.9.9v.3 1.9l3.7 1.9v-1.9c.1-.1.1-.2.1-.3z" fill="#999"/><path d="m460.5 307c0-1-.8-2.3-1.9-2.8-1-.5-1.9-.1-1.9.9v.3 1.9l3.7 1.9v-1.9c.1-.1.1-.2.1-.3z" opacity=".11"/><path d="m460 306.8c0-.8-.6-1.8-1.4-2.2-.3-.2-.7-.2-.9-.1l-3.7 1.9c-.3.1-.5.4-.5.9 0 .8.6 1.8 1.4 2.2.3.2.6.2.9.1l3.7-1.9c.3-.1.5-.4.5-.9z" fill="#656565"/><path d="m456.7 308.9c0-1-.8-2.3-1.9-2.8-1-.5-1.9-.1-1.9.9v.3 1.9l3.7 1.9v-1.9c.1-.2.1-.2.1-.3z" fill="#999"/><path d="m456.7 308.9c0-1-.8-2.3-1.9-2.8-1-.5-1.9-.1-1.9.9v.3 1.9l3.7 1.9v-1.9c.1-.2.1-.2.1-.3z" opacity=".11"/><path d="m526.5 274c0-1-.8-2.3-1.9-2.8-1-.5-1.9-.1-1.9.9v.3 1.9l3.7 1.9v-1.9c.1-.1.1-.2.1-.3z" fill="#999"/><path d="m526.5 274c0-1-.8-2.3-1.9-2.8-1-.5-1.9-.1-1.9.9v.3 1.9l3.7 1.9v-1.9c.1-.1.1-.2.1-.3z" opacity=".11"/><path d="m526 273.8c0-.8-.6-1.8-1.4-2.2-.3-.2-.7-.2-.9-.1l-3.7 1.9c-.3.1-.5.4-.5.9 0 .8.6 1.8 1.4 2.2.3.2.6.2.9.1l3.7-1.9c.3-.1.5-.4.5-.9z" fill="#656565"/><path d="m522.7 275.9c0-1-.8-2.3-1.9-2.8-1-.5-1.9-.1-1.9.9v.3 1.9l3.7 1.9v-1.9c.1-.2.1-.2.1-.3z" fill="#999"/><path d="m522.7 275.9c0-1-.8-2.3-1.9-2.8-1-.5-1.9-.1-1.9.9v.3 1.9l3.7 1.9v-1.9c.1-.2.1-.2.1-.3z" opacity=".11"/><path d="m500.5 311c0-1-.8-2.3-1.9-2.8-1-.5-1.9-.1-1.9.9v.3 1.9l3.7 1.9v-1.9c.1-.1.1-.2.1-.3z" fill="#999"/><path d="m500.5 311c0-1-.8-2.3-1.9-2.8-1-.5-1.9-.1-1.9.9v.3 1.9l3.7 1.9v-1.9c.1-.1.1-.2.1-.3z" opacity=".11"/><path d="m500 310.8c0-.8-.6-1.8-1.4-2.2-.3-.2-.7-.2-.9-.1l-3.7 1.9c-.3.1-.5.4-.5.9 0 .8.6 1.8 1.4 2.2.3.2.6.2.9.1l3.7-1.9c.3-.1.5-.4.5-.9z" fill="#656565"/><path d="m496.7 312.9c0-1-.8-2.3-1.9-2.8-1-.5-1.9-.1-1.9.9v.3 1.9l3.7 1.9v-1.9c.1-.2.1-.2.1-.3z" fill="#999"/><path d="m496.7 312.9c0-1-.8-2.3-1.9-2.8-1-.5-1.9-.1-1.9.9v.3 1.9l3.7 1.9v-1.9c.1-.2.1-.2.1-.3z" opacity=".11"/><path d="m536.5 293c0-1-.8-2.3-1.9-2.8-1-.5-1.9-.1-1.9.9v.3 1.9l3.7 1.9v-1.9c.1-.1.1-.2.1-.3z" fill="#999"/><path d="m536.5 293c0-1-.8-2.3-1.9-2.8-1-.5-1.9-.1-1.9.9v.3 1.9l3.7 1.9v-1.9c.1-.1.1-.2.1-.3z" opacity=".11"/><path d="m536 292.8c0-.8-.6-1.8-1.4-2.2-.3-.2-.7-.2-.9-.1l-3.7 1.9c-.3.1-.5.4-.5.9 0 .8.6 1.8 1.4 2.2.3.2.6.2.9.1l3.7-1.9c.3-.1.5-.4.5-.9z" fill="#656565"/><path d="m532.7 294.9c0-1-.8-2.3-1.9-2.8-1-.5-1.9-.1-1.9.9v.3 1.9l3.7 1.9v-1.9c.1-.2.1-.2.1-.3z" fill="#999"/><path d="m532.7 294.9c0-1-.8-2.3-1.9-2.8-1-.5-1.9-.1-1.9.9v.3 1.9l3.7 1.9v-1.9c.1-.2.1-.2.1-.3z" opacity=".11"/><path d="m520 301-6 3v2l4 2 6-3v-2z" fill="#999"/><path d="m518 308-4-2v-2l4 2z" opacity=".11"/><path d="m524 305-6 3v-2l6-3z" opacity=".29"/><path d="m492 285-10 5v2l8 4 10-5v-2z" fill="#999"/><path d="m490 296-8-4v-2l8 4z" opacity=".11"/><path d="m500 291-10 5v-2l10-5z" opacity=".29"/><path d="m501 268-8 4v2l4 2 8-4v-2z" fill="#999"/><path d="m497 276-4-2v-2l4 2z" opacity=".11"/><path d="m505 272-8 4v-2l8-4z" opacity=".29"/><path d="m454 291-8 4v2l4 2 8-4v-2z" fill="#999"/><path d="m450 299-4-2v-2l4 2z" opacity=".11"/><path d="m458 295-8 4v-2l8-4z" opacity=".29"/><path d="m94 147 2 1 96-48-2-1z" opacity=".15"/><path d="m270 235 2 1 96-48-2-1z" opacity=".15"/><path d="m286 243 2 1 96-48-2-1z" opacity=".15"/><path d="m350 275 2 1 96-48-2-1z" opacity=".15"/><path d="m334 267 2 1 96-48-2-1z" opacity=".15"/><path d="m142 171 2 1 96-48-2-1z" opacity=".15"/><path d="m158 179 2 1 96-48-2-1z" opacity=".15"/><path d="m222 211 2 1 96-48-2-1z" opacity=".15"/><path d="m206 203 2 1 96-48-2-1z" opacity=".15"/><path d="m398 299 2 1 96-48-2-1z" opacity=".15"/><path d="m310 223 50-25 50 25v8l-50 25-50-25z" fill="#999"/><path d="m336 210-2 1 50 25 2-1z" opacity=".2"/><path d="m310 227v1l50 25 50-25v-1l-50 25z" opacity=".2"/><path d="m360 256-50-25v-8l50 25z" opacity=".11"/><path d="m360 256 50-25v-8l-50 25z" opacity=".29"/><path d="m358 252v3l-2-1v-3z" opacity=".2"/><path d="m354 250v3l-2-1v-3z" opacity=".2"/><path d="m350 248v3l-2-1v-3z" opacity=".2"/><path d="m346 246v3l-2-1v-3z" opacity=".2"/><path d="m342 244v3l-2-1v-3z" opacity=".2"/><path d="m338 242v3l-2-1v-3z" opacity=".2"/><path d="m334 240v3l-2-1v-3z" opacity=".2"/><path d="m330 238v3l-2-1v-3z" opacity=".2"/><path d="m326 236v3l-2-1v-3z" opacity=".2"/><path d="m322 234v3l-2-1v-3z" opacity=".2"/><path d="m318 232v3l-2-1v-3z" opacity=".2"/><path d="m314 230v3l-2-1v-3z" opacity=".2"/><path d="m362 252v3l2-1v-3z" opacity=".2"/><path d="m366 250v3l2-1v-3z" opacity=".2"/><path d="m370 248v3l2-1v-3z" opacity=".2"/><path d="m374 246v3l2-1v-3z" opacity=".2"/><path d="m378 244v3l2-1v-3z" opacity=".2"/><path d="m382 242v3l2-1v-3z" opacity=".2"/><path d="m386 240v3l2-1v-3z" opacity=".2"/><path d="m390 238v3l2-1v-3z" opacity=".2"/><path d="m394 236v3l2-1v-3z" opacity=".2"/><path d="m398 234v3l2-1v-3z" opacity=".2"/><path d="m402 232v3l2-1v-3z" opacity=".2"/><path d="m406 230v3l2-1v-3z" opacity=".2"/><path d="m374 255 50-25 50 25v8l-50 25-50-25z" fill="#999"/><path d="m400 242-2 1 50 25 2-1z" opacity=".2"/><path d="m374 259v1l50 25 50-25v-1l-50 25z" opacity=".2"/><path d="m424 288-50-25v-8l50 25z" opacity=".11"/><path d="m424 288 50-25v-8l-50 25z" opacity=".29"/><path d="m422 284v3l-2-1v-3z" opacity=".2"/><path d="m418 282v3l-2-1v-3z" opacity=".2"/><path d="m414 280v3l-2-1v-3z" opacity=".2"/><path d="m410 278v3l-2-1v-3z" opacity=".2"/><path d="m406 276v3l-2-1v-3z" opacity=".2"/><path d="m402 274v3l-2-1v-3z" opacity=".2"/><path d="m398 272v3l-2-1v-3z" opacity=".2"/><path d="m394 270v3l-2-1v-3z" opacity=".2"/><path d="m390 268v3l-2-1v-3z" opacity=".2"/><path d="m386 266v3l-2-1v-3z" opacity=".2"/><path d="m382 264v3l-2-1v-3z" opacity=".2"/><path d="m378 262v3l-2-1v-3z" opacity=".2"/><path d="m426 284v3l2-1v-3z" opacity=".2"/><path d="m430 282v3l2-1v-3z" opacity=".2"/><path d="m434 280v3l2-1v-3z" opacity=".2"/><path d="m438 278v3l2-1v-3z" opacity=".2"/><path d="m442 276v3l2-1v-3z" opacity=".2"/><path d="m446 274v3l2-1v-3z" opacity=".2"/><path d="m450 272v3l2-1v-3z" opacity=".2"/><path d="m454 270v3l2-1v-3z" opacity=".2"/><path d="m458 268v3l2-1v-3z" opacity=".2"/><path d="m462 266v3l2-1v-3z" opacity=".2"/><path d="m466 264v3l2-1v-3z" opacity=".2"/><path d="m470 262v3l2-1v-3z" opacity=".2"/><path d="m182 159 50-25 50 25v8l-50 25-50-25z" fill="#999"/><path d="m208 146-2 1 50 25 2-1z" opacity=".2"/><path d="m182 163v1l50 25 50-25v-1l-50 25z" opacity=".2"/><path d="m232 192-50-25v-8l50 25z" opacity=".11"/><path d="m232 192 50-25v-8l-50 25z" opacity=".29"/><path d="m230 188v3l-2-1v-3z" opacity=".2"/><path d="m226 186v3l-2-1v-3z" opacity=".2"/><path d="m222 184v3l-2-1v-3z" opacity=".2"/><path d="m218 182v3l-2-1v-3z" opacity=".2"/><path d="m214 180v3l-2-1v-3z" opacity=".2"/><path d="m210 178v3l-2-1v-3z" opacity=".2"/><path d="m206 176v3l-2-1v-3z" opacity=".2"/><path d="m202 174v3l-2-1v-3z" opacity=".2"/><path d="m198 172v3l-2-1v-3z" opacity=".2"/><path d="m194 170v3l-2-1v-3z" opacity=".2"/><path d="m190 168v3l-2-1v-3z" opacity=".2"/><path d="m186 166v3l-2-1v-3z" opacity=".2"/><path d="m234 188v3l2-1v-3z" opacity=".2"/><path d="m238 186v3l2-1v-3z" opacity=".2"/><path d="m242 184v3l2-1v-3z" opacity=".2"/><path d="m246 182v3l2-1v-3z" opacity=".2"/><path d="m250 180v3l2-1v-3z" opacity=".2"/><path d="m254 178v3l2-1v-3z" opacity=".2"/><path d="m258 176v3l2-1v-3z" opacity=".2"/><path d="m262 174v3l2-1v-3z" opacity=".2"/><path d="m266 172v3l2-1v-3z" opacity=".2"/><path d="m270 170v3l2-1v-3z" opacity=".2"/><path d="m274 168v3l2-1v-3z" opacity=".2"/><path d="m278 166v3l2-1v-3z" opacity=".2"/><path d="m246 191 50-25 50 25v8l-50 25-50-25z" fill="#999"/><path d="m272 178-2 1 50 25 2-1z" opacity=".2"/><path d="m246 195v1l50 25 50-25v-1l-50 25z" opacity=".2"/><path d="m296 224-50-25v-8l50 25z" opacity=".11"/><path d="m296 224 50-25v-8l-50 25z" opacity=".29"/><path d="m294 220v3l-2-1v-3z" opacity=".2"/><path d="m290 218v3l-2-1v-3z" opacity=".2"/><path d="m286 216v3l-2-1v-3z" opacity=".2"/><path d="m282 214v3l-2-1v-3z" opacity=".2"/><path d="m278 212v3l-2-1v-3z" opacity=".2"/><path d="m274 210v3l-2-1v-3z" opacity=".2"/><path d="m270 208v3l-2-1v-3z" opacity=".2"/><path d="m266 206v3l-2-1v-3z" opacity=".2"/><path d="m262 204v3l-2-1v-3z" opacity=".2"/><path d="m258 202v3l-2-1v-3z" opacity=".2"/><path d="m254 200v3l-2-1v-3z" opacity=".2"/><path d="m250 198v3l-2-1v-3z" opacity=".2"/><path d="m298 220v3l2-1v-3z" opacity=".2"/><path d="m302 218v3l2-1v-3z" opacity=".2"/><path d="m306 216v3l2-1v-3z" opacity=".2"/><path d="m310 214v3l2-1v-3z" opacity=".2"/><path d="m314 212v3l2-1v-3z" opacity=".2"/><path d="m318 210v3l2-1v-3z" opacity=".2"/><path d="m322 208v3l2-1v-3z" opacity=".2"/><path d="m326 206v3l2-1v-3z" opacity=".2"/><path d="m330 204v3l2-1v-3z" opacity=".2"/><path d="m334 202v3l2-1v-3z" opacity=".2"/><path d="m338 200v3l2-1v-3z" opacity=".2"/><path d="m342 198v3l2-1v-3z" opacity=".2"/><path d="m118 127 50-25 50 25v8l-50 25-50-25z" fill="#999"/><path d="m144 114-2 1 50 25 2-1z" opacity=".2"/><path d="m118 131v1l50 25 50-25v-1l-50 25z" opacity=".2"/><path d="m168 160-50-25v-8l50 25z" opacity=".11"/><path d="m168 160 50-25v-8l-50 25z" opacity=".29"/><path d="m166 156v3l-2-1v-3z" opacity=".2"/><path d="m162 154v3l-2-1v-3z" opacity=".2"/><path d="m158 152v3l-2-1v-3z" opacity=".2"/><path d="m154 150v3l-2-1v-3z" opacity=".2"/><path d="m150 148v3l-2-1v-3z" opacity=".2"/><path d="m146 146v3l-2-1v-3z" opacity=".2"/><path d="m142 144v3l-2-1v-3z" opacity=".2"/><path d="m138 142v3l-2-1v-3z" opacity=".2"/><path d="m134 140v3l-2-1v-3z" opacity=".2"/><path d="m130 138v3l-2-1v-3z" opacity=".2"/><path d="m126 136v3l-2-1v-3z" opacity=".2"/><path d="m122 134v3l-2-1v-3z" opacity=".2"/><path d="m170 156v3l2-1v-3z" opacity=".2"/><path d="m174 154v3l2-1v-3z" opacity=".2"/><path d="m178 152v3l2-1v-3z" opacity=".2"/><path d="m182 150v3l2-1v-3z" opacity=".2"/><path d="m186 148v3l2-1v-3z" opacity=".2"/><path d="m190 146v3l2-1v-3z" opacity=".2"/><path d="m194 144v3l2-1v-3z" opacity=".2"/><path d="m198 142v3l2-1v-3z" opacity=".2"/><path d="m202 140v3l2-1v-3z" opacity=".2"/><path d="m206 138v3l2-1v-3z" opacity=".2"/><path d="m210 136v3l2-1v-3z" opacity=".2"/><path d="m214 134v3l2-1v-3z" opacity=".2"/></svg>