<svg enable-background="new 0 0 48 88" viewBox="0 0 48 88" xmlns="http://www.w3.org/2000/svg"><path d="m16 49-14 7v15l30 15 14-7v-15z" fill="#539b00"/><path d="m2 56v15l30 15v-15z" opacity=".11"/><path d="m46 64v15l-14 7v-15z" opacity=".29"/><path d="m44 78-4 2v-11l4-2z" opacity=".15"/><path d="m38 81-4 2v-11l4-2z" opacity=".15"/><path d="m5 59.5-1-.5v11l1 .5z" opacity=".15"/><path d="m7 60.5-1-.5v11l1 .5z" opacity=".15"/><path d="m9 61.5-1-.5v11l1 .5z" opacity=".15"/><path d="m11 62.5-1-.5v11l1 .5z" opacity=".15"/><path d="m13 63.5-1-.5v11l1 .5z" opacity=".15"/><path d="m15 64.5-1-.5v11l1 .5z" opacity=".15"/><path d="m17 65.5-1-.5v11l1 .5z" opacity=".15"/><path d="m19 66.5-1-.5v11l1 .5z" opacity=".15"/><path d="m21 67.5-1-.5v11l1 .5z" opacity=".15"/><path d="m23 68.5-1-.5v11l1 .5z" opacity=".15"/><path d="m25 69.5-1-.5v11l1 .5z" opacity=".15"/><path d="m27 70.5-1-.5v11l1 .5z" opacity=".15"/><path d="m29 71.5-1-.5v11l1 .5z" opacity=".15"/><path d="m31 72.5-1-.5v11l1 .5z" opacity=".15"/><path d="m28 67 14-7 4 2v2l-14 7-4-2z" fill="#656565"/><path d="m32 71-4-2v-2l4 2z" opacity=".11"/><path d="m32 71 14-7v-2l-14 7z" opacity=".29"/><path d="m2 54 14-7 4 2v2l-14 7-4-2z" fill="#656565"/><path d="m6 58-4-2v-2l4 2z" opacity=".11"/><path d="m6 58 14-7v-2l-14 7z" opacity=".29"/><path d="m6 54 14-7 22 11.1v2l-14 7v1.9l-22-11z" fill="#2d3134"/><path d="m28 69-22-11v-4l22 11z" opacity=".11"/><path d="m28 67 14-7v-2l-14 7z" opacity=".29"/><path d="m23 27.5 1-.5 1 .5v35l-1 .5-1-.5z" fill="#2d3134"/><path d="m23 27.5 1-.5v36l-1-.5z" opacity=".11"/><path d="m24 27 1 .5v35l-1 .5z" opacity=".29"/><path d="m36 20.5 1-.5 1 .5v35.5l-1 .5-1-.5z" fill="#2d3134"/><path d="m36 20.5 1-.5v36.5l-1-.5z" opacity=".11"/><path d="m37 20 1 .5v35.5l-1 .5z" opacity=".29"/><path d="m10 20.5 1-.5 1 .5v35.5l-1 .5-1-.5z" fill="#2d3134"/><path d="m10 20.5 1-.5v36.5l-1-.5z" opacity=".11"/><path d="m11 20 1 .5v35.5l-1 .5z" opacity=".29"/><path d="m2 11 14-7 30 15v6l-14 7-30-15z" fill="#656565"/><path d="m32 32-30-15v-6l30 15z" opacity=".11"/><path d="m32 32 14-7v-6l-14 7z" opacity=".29"/></svg>