<svg enable-background="new 0 0 552 368" viewBox="0 0 552 368" xmlns="http://www.w3.org/2000/svg"><path d="m488 304v14.1c0 6.6 1.1 13.1 3.1 19.3l1.9 5.8c4 12.1-8.6 23-20 17.3l-28.7-14.3c-13.6-6.8-27.7-12.6-42.1-17.4l-74.2-24.8-192-96s-38.9-20.4-61.9-34c-33.4-19.6-40.3-23.5-47-28-9.5-6.4-22.1-15.6-22.1-25 0-13.8 10.8-8.3 18-14 8.3-6.5-4-18-4-18z" fill="#39c"/><path d="m488.2 303.9v14.1c0 6.6 1.1 13.1 3.1 19.3l1.9 5.8c4 12.1-8.6 23-20 17.3l-28.7-14.3c-13.6-6.8-27.7-12.6-42.1-17.4l-74.3-24.8-192-96s-38.9-20.4-61.9-34c-33.4-19.6-40.3-23.5-47-28-9.5-6.4-22.1-15.6-22.1-25 0-13.8 10.8-8.3 18-14 8.3-6.5-4-18-4-18z" opacity=".15"/><path d="m119.9 44c-14.4-7.4-31.1-12-51.9-12-37.6 0-68 18.2-68 37 0 9.4 9.9 15.9 24.1 24l23.9 11 320 160 88 44 96-48-88-44-320-160z" fill="#cc291f"/><path d="m68 36c20.8 0 37.5 4.6 51.9 12l24.1 12 320 160 84 42 4-2-88-44-320-160-24.1-12c-14.4-7.4-31.1-12-51.9-12-37.6 0-68 18.2-68 37 0 .6.1 1.3.1 1.9 2.2-18 31.8-34.9 67.9-34.9z" opacity=".2"/><g fill="#999"><path d="m493.9 345.5c0 1.3-1.1 3-2.4 3.6-1.3.7-2.4.1-2.4-1.2s1.1-3 2.4-3.6 2.4-.2 2.4 1.2z"/><path d="m497 341.8c0 1.6-1.3 3.6-2.9 4.4s-2.9.2-2.9-1.5c0-1.6 1.3-3.6 2.9-4.4s2.9-.1 2.9 1.5z"/><path d="m491.1 345.1c0 1.6-1.3 3.6-2.9 4.4s-2.9.2-2.9-1.5c0-1.6 1.3-3.6 2.9-4.4 1.6-.7 2.9-.1 2.9 1.5z"/><path d="m495.3 348.5c0 1.6-1.3 3.6-2.9 4.4s-2.9.2-2.9-1.5c0-1.6 1.3-3.6 2.9-4.4 1.5-.7 2.9-.1 2.9 1.5z"/></g><path d="m493.6 346.7c.1-.1.1-.3.1-.4.1 0 .2-.1.3-.1 1.6-.8 2.9-2.8 2.9-4.4s-1.3-2.3-2.9-1.5c-1.5.8-2.7 2.5-2.9 4.1-.1 0-.1.1-.2.1-.3-1.2-1.5-1.6-2.8-.9-1.6.8-2.9 2.8-2.9 4.4s1.3 2.3 2.9 1.5c.4-.2.8-.5 1.1-.8.2.3.4.5.8.6-.4.7-.6 1.4-.6 2.1 0 1.6 1.3 2.3 2.9 1.5s2.9-2.8 2.9-4.4c.1-1.1-.6-1.8-1.6-1.8z" opacity=".29"/><path d="m42 21c-1.1 0-2 .4-2 1v34c0 .6.9 1 2 1s2-.4 2-1v-34c0-.6-.9-1-2-1z" fill="#e5e5e5"/><path d="m42 23c-1.1 0-2-.4-2-1v34c0 .6.9 1 2 1s2-.4 2-1v-34c0 .6-.9 1-2 1z" opacity=".2"/><path d="m42 18c-3.3 0-6 1.3-6 3v1c0 1.7 2.7 3 6 3s6-1.3 6-3v-1c0-1.7-2.7-3-6-3z" fill="#e5e5e5"/><path d="m42 14c3.3 0 6 1.3 6 3v-1c0-1.7-2.7-3-6-3s-6 1.3-6 3v1c0-1.7 2.7-3 6-3z" fill="#e5e5e5"/><path d="m42 14c3.3 0 6 1.3 6 3v-1c0-1.7-2.7-3-6-3s-6 1.3-6 3v1c0-1.7 2.7-3 6-3z" opacity=".1"/><path d="m42 5c-1.1 0-2 .4-2 1v15c0 .6.9 1 2 1s2-.4 2-1v-15c0-.6-.9-1-2-1z" fill="#e5e5e5"/><path d="m42 7c-1.1 0-2-.4-2-1v15c0 .6.9 1 2 1s2-.4 2-1v-15c0 .6-.9 1-2 1z" opacity=".2"/><path d="m42 19c-3.3 0-6-1.3-6-3v1 5l1 1v-4.3c.3.2.6.4 1 .6v4.7h1v-4.4c.9.3 1.9.4 3 .4s2.1-.1 3-.4v4.4h1v-4.8c.4-.2.7-.4 1-.6v4.4l1-1v-5-1c0 1.7-2.7 3-6 3z" fill="#e5e5e5"/><path d="m42 19c-3.3 0-6-1.3-6-3v1 4 1c0 1.7 2.7 3 6 3s6-1.3 6-3v-1-4-1c0 1.7-2.7 3-6 3zm5-.3v4c-.3.2-.6.4-1 .6v-4c.4-.2.7-.4 1-.6zm-9 .5v4c-.4-.2-.7-.4-1-.6v-4c.3.3.6.5 1 .6zm1 4.4v-4c.9.3 1.9.4 3 .4s2.1-.1 3-.4v4c-.9.3-1.9.4-3 .4s-2.1-.1-3-.4z" opacity=".2"/><path d="m34 50c-1.1 0-2 .4-2 1v6c0 .6.9 1 2 1s2-.4 2-1v-6c0-.6-.9-1-2-1z" fill="#cc291f"/><path d="m34 52c-1.1 0-2-.4-2-1v6c0 .6.9 1 2 1s2-.4 2-1v-6c0 .6-.9 1-2 1z" opacity=".2"/><path d="m50 42c-1.1 0-2 .4-2 1v6c0 .6.9 1 2 1s2-.4 2-1v-6c0-.6-.9-1-2-1z" fill="#cc291f"/><path d="m50 44c-1.1 0-2-.4-2-1v6c0 .6.9 1 2 1s2-.4 2-1v-6c0 .6-.9 1-2 1z" opacity=".2"/><path d="m25 75c0-1-.8-2.3-1.9-2.8-1-.5-1.9-.1-1.9.9v.3 1.9l3.7 1.9v-1.9c.1-.1.1-.2.1-.3z" fill="#cc291f"/><path d="m25 75c0-1-.8-2.3-1.9-2.8-1-.5-1.9-.1-1.9.9v.3 1.9l3.7 1.9v-1.9c.1-.1.1-.2.1-.3z" opacity=".11"/><path d="m24.6 74.8c0-.8-.6-1.8-1.4-2.2-.3-.2-.7-.2-.9-.1l-3.7 1.9c-.3.1-.5.4-.5.9 0 .8.6 1.8 1.4 2.2.3.2.6.2.9.1l3.7-1.9c.2-.1.5-.4.5-.9z" fill="#262626"/><path d="m21.2 76.9c0-1-.8-2.3-1.9-2.8-1-.5-1.9-.1-1.9.9v.3 1.9l3.7 1.9v-1.9c.1-.2.1-.2.1-.3z" fill="#cc291f"/><path d="m21.2 76.9c0-1-.8-2.3-1.9-2.8-1-.5-1.9-.1-1.9.9v.3 1.9l3.7 1.9v-1.9c.1-.2.1-.2.1-.3z" opacity=".11"/><path d="m22.5 56c0-1-.8-2.3-1.9-2.8-1-.5-1.9-.1-1.9.9v.3 1.9l3.7 1.9v-1.9c.1-.1.1-.2.1-.3z" fill="#cc291f"/><path d="m22.5 56c0-1-.8-2.3-1.9-2.8-1-.5-1.9-.1-1.9.9v.3 1.9l3.7 1.9v-1.9c.1-.1.1-.2.1-.3z" opacity=".11"/><path d="m22 55.8c0-.8-.6-1.8-1.4-2.2-.3-.2-.7-.2-.9-.1l-3.7 1.9c-.3.1-.5.4-.5.9 0 .8.6 1.8 1.4 2.2.3.2.6.2.9.1l3.7-1.9c.3-.1.5-.4.5-.9z" fill="#262626"/><path d="m18.7 57.9c0-1-.8-2.3-1.9-2.8-1-.5-1.8-.1-1.8.9v.3 1.9l3.7 1.9v-1.9c0-.2 0-.2 0-.3z" fill="#cc291f"/><path d="m18.7 57.9c0-1-.8-2.3-1.9-2.8-1-.5-1.8-.1-1.8.9v.3 1.9l3.7 1.9v-1.9c0-.2 0-.2 0-.3z" opacity=".11"/><path d="m58.5 38c0-1-.8-2.3-1.9-2.8-1-.5-1.9-.1-1.9.9v.3 1.9l3.7 1.9v-1.9c.1-.1.1-.2.1-.3z" fill="#cc291f"/><path d="m58.5 38c0-1-.8-2.3-1.9-2.8-1-.5-1.9-.1-1.9.9v.3 1.9l3.7 1.9v-1.9c.1-.1.1-.2.1-.3z" opacity=".11"/><path d="m58 37.8c0-.8-.6-1.8-1.4-2.2-.3-.2-.7-.2-.9-.1l-3.7 1.9c-.3.1-.5.4-.5.9 0 .8.6 1.8 1.4 2.2.3.2.6.2.9.1l3.7-1.9c.3-.1.5-.4.5-.9z" fill="#262626"/><path d="m54.7 39.9c0-1-.8-2.3-1.9-2.8-1-.5-1.8-.1-1.8.9v.3 1.9l3.7 1.9v-1.9c0-.2 0-.2 0-.3z" fill="#cc291f"/><path d="m54.7 39.9c0-1-.8-2.3-1.9-2.8-1-.5-1.8-.1-1.8.9v.3 1.9l3.7 1.9v-1.9c0-.2 0-.2 0-.3z" opacity=".11"/><path d="m30 42-6 3v2l4 2 6-3v-2z" fill="#cc291f"/><path d="m28 49-4-2v-2l4 2z" opacity=".11"/><path d="m34 46-6 3v-2l6-3z" opacity=".29"/><path d="m55 54-10 5v2l8 4 10-5v-2z" fill="#cc291f"/><path d="m53 65-8-4v-2l8 4z" opacity=".11"/><path d="m63 60-10 5v-2l10-5z" opacity=".29"/><path d="m45 72-8 4v2l4 2 8-4v-2z" fill="#cc291f"/><path d="m41 80-4-2v-2l4 2z" opacity=".11"/><path d="m49 76-8 4v-2l8-4z" opacity=".29"/><path d="m85 52-8 4v2l4 2 8-4v-2z" fill="#cc291f"/><path d="m81 60-4-2v-2l4 2z" opacity=".11"/><path d="m89 56-8 4v-2l8-4z" opacity=".29"/><path d="m87 44c0-1-.8-2.3-1.9-2.8-1-.5-1.9-.1-1.9.9v.3 1.9l3.7 1.9v-1.9c.1-.1.1-.2.1-.3z" fill="#cc291f"/><path d="m87 44c0-1-.8-2.3-1.9-2.8-1-.5-1.9-.1-1.9.9v.3 1.9l3.7 1.9v-1.9c.1-.1.1-.2.1-.3z" opacity=".11"/><path d="m86.6 43.8c0-.8-.6-1.8-1.4-2.2-.3-.2-.7-.2-.9-.1l-3.7 1.9c-.3.1-.5.4-.5.9 0 .8.6 1.8 1.4 2.2.3.2.6.2.9.1l3.7-1.9c.3-.1.5-.4.5-.9z" fill="#262626"/><path d="m83.3 45.9c0-1-.8-2.3-1.9-2.8-1-.5-1.9-.1-1.9.9v.3 1.9l3.7 1.9v-1.9c.1-.2.1-.2.1-.3z" fill="#cc291f"/><path d="m83.3 45.9c0-1-.8-2.3-1.9-2.8-1-.5-1.9-.1-1.9.9v.3 1.9l3.7 1.9v-1.9c.1-.2.1-.2.1-.3z" opacity=".11"/><path d="m492 307 8 55 10 5 2-1v-49z" fill="#39c"/><path d="m492 307 8 55 10 5v-51z" opacity=".11"/><path d="m510 367 2-1v-50h-2z" opacity=".29"/><path d="m56 108 2 1 92-46-2-1z" opacity=".15"/><path d="m232 196 2 1 92-46-2-1z" opacity=".15"/><path d="m248 204 2 1 92-46-2-1z" opacity=".15"/><path d="m312 236 2 1 92-46-2-1z" opacity=".15"/><path d="m319 239 2 1 92-46-2-1z" opacity=".15"/><path d="m325 242 2 1 92-46-2-1z" opacity=".15"/><path d="m331 245 2 1 92-46-2-1z" opacity=".15"/><path d="m337 248 2 1 92-46-2-1z" opacity=".15"/><path d="m343 251 2 1 92-46-2-1z" opacity=".15"/><path d="m349 254 2 1 92-46-2-1z" opacity=".15"/><path d="m355 257 2 1 92-46-2-1z" opacity=".15"/><path d="m254 207 2 1 92-46-2-1z" opacity=".15"/><path d="m260 210 2 1 92-46-2-1z" opacity=".15"/><path d="m266 213 2 1 92-46-2-1z" opacity=".15"/><path d="m272 216 2 1 92-46-2-1z" opacity=".15"/><path d="m278 219 2 1 92-46-2-1z" opacity=".15"/><path d="m284 222 2 1 92-46-2-1z" opacity=".15"/><path d="m290 225 2 1 92-46-2-1z" opacity=".15"/><path d="m190 175 2 1 92-46-2-1z" opacity=".15"/><path d="m196 178 2 1 92-46-2-1z" opacity=".15"/><path d="m202 181 2 1 92-46-2-1z" opacity=".15"/><path d="m208 184 2 1 92-46-2-1z" opacity=".15"/><path d="m214 187 2 1 92-46-2-1z" opacity=".15"/><path d="m220 190 2 1 92-46-2-1z" opacity=".15"/><path d="m226 193 2 1 92-46-2-1z" opacity=".15"/><path d="m127 143 2 1 92-46-2-1z" opacity=".15"/><path d="m133 146 2 1 92-46-2-1z" opacity=".15"/><path d="m139 149 2 1 92-46-2-1z" opacity=".15"/><path d="m145 152 2 1 92-46-2-1z" opacity=".15"/><path d="m151 155 2 1 92-46-2-1z" opacity=".15"/><path d="m157 158 2 1 92-46-2-1z" opacity=".15"/><path d="m163 161 2 1 92-46-2-1z" opacity=".15"/><path d="m62 111 2 1 92-46-2-1z" opacity=".15"/><path d="m68 114 2 1 92-46-2-1z" opacity=".15"/><path d="m74 117 2 1 92-46-2-1z" opacity=".15"/><path d="m80 120 2 1 92-46-2-1z" opacity=".15"/><path d="m86 123 2 1 92-46-2-1z" opacity=".15"/><path d="m92 126 2 1 92-46-2-1z" opacity=".15"/><path d="m98 129 2 1 92-46-2-1z" opacity=".15"/><path d="m296 228 2 1 92-46-2-1z" opacity=".15"/><path d="m376 268 2 1 92-46-2-1z" opacity=".15"/><path d="m383 271 2 1 92-46-2-1z" opacity=".15"/><path d="m389 274 2 1 92-46-2-1z" opacity=".15"/><path d="m360 260 2 1 92-46-2-1z" opacity=".15"/><path d="m104 132 2 1 92-46-2-1z" opacity=".15"/><path d="m120 140 2 1 92-46-2-1z" opacity=".15"/><path d="m184 172 2 1 92-46-2-1z" opacity=".15"/><path d="m168 164 2 1 92-46-2-1z" opacity=".15"/><path d="m358 207v-12l2-1 2 1v12l-2 1z" fill="#999"/><path d="m358 207v-12l2 1v12z" opacity=".11"/><path d="m362 195v12l-2 1v-12z" opacity=".29"/><path d="m166 110v-12l2-1 2 1v12l-2 1z" fill="#999"/><path d="m166 110v-12l2 1v12z" opacity=".11"/><path d="m170 98v12l-2 1v-12z" opacity=".29"/><path d="m294 174v-12l2-1 2 1v12l-2 1z" fill="#999"/><path d="m294 174v-12l2 1v12z" opacity=".11"/><path d="m298 162v12l-2 1v-12z" opacity=".29"/><path d="m230 142v-12l2-1 2 1v12l-2 1z" fill="#999"/><path d="m230 142v-12l2 1v12z" opacity=".11"/><path d="m234 130v12l-2 1v-12z" opacity=".29"/><path d="m94 69-4 2 2-2z" fill="#999"/><path d="m94 69-4 2 2-2z" opacity=".29"/><path d="m90 71v-2l2-2 2-1 350 175 8 8v1l-2 1-2-1-6-6-350-175z" fill="#999"/><path d="m90 71v-2l2-2 350 175 8 8v1l-2-1-6-6-350-175z" opacity=".11"/><path d="m86 73-4 2 2-2z" fill="#cc291f"/><path d="m86 73-4 2 2-2z" opacity=".29"/><path d="m82 75v-4l2-2 4-2 350 175 8 8v3l-4 2-2-1-6-6-350-175z" fill="#cc291f"/><path d="m82 75v-4l2-2 350 175 8 8v3l-2-1-6-6-350-175z" opacity=".11"/><path d="m80 76-4 2 2-2z" fill="#999"/><path d="m80 76-4 2 2-2z" opacity=".29"/><path d="m76 78v-2l2-2 2-1 350 175 8 8v1l-2 1-2-1-6-6-350-175z" fill="#999"/><path d="m76 78v-2l2-2 350 175 8 8v1l-2-1-6-6-350-175z" opacity=".11"/><path d="m216 139v-2l14-7 2 1v2l-14 7z" fill="#999"/><path d="m216 139v-2l2 1v2z" opacity=".11"/><path d="m232 131v2l-14 7v-2z" opacity=".29"/><path d="m214 150v-12l2-1 2 1v12l-2 1z" fill="#999"/><path d="m214 150v-12l2 1v12z" opacity=".11"/><path d="m218 138v12l-2 1v-12z" opacity=".29"/><path d="m280 171v-2l14-7 2 1v2l-14 7z" fill="#999"/><path d="m280 171v-2l2 1v2z" opacity=".11"/><path d="m296 163v2l-14 7v-2z" opacity=".29"/><path d="m278 182v-12l2-1 2 1v12l-2 1z" fill="#999"/><path d="m278 182v-12l2 1v12z" opacity=".11"/><path d="m282 170v12l-2 1v-12z" opacity=".29"/><path d="m344 204v-2l14-7 2 1v2l-14 7z" fill="#999"/><path d="m344 204v-2l2 1v2z" opacity=".11"/><path d="m360 196v2l-14 7v-2z" opacity=".29"/><path d="m342 215v-12l2-1 2 1v12l-2 1z" fill="#999"/><path d="m342 215v-12l2 1v12z" opacity=".11"/><path d="m346 203v12l-2 1v-12z" opacity=".29"/><path d="m152 107v-2l14-7 2 1v2l-14 7z" fill="#999"/><path d="m152 107v-2l2 1v2z" opacity=".11"/><path d="m168 99v2l-14 7v-2z" opacity=".29"/><path d="m150 118v-12l2-1 2 1v12l-2 1z" fill="#999"/><path d="m150 118v-12l2 1v12z" opacity=".11"/><path d="m154 106v12l-2 1v-12z" opacity=".29"/><path d="m456 308-408-204-23.9-12c-12.7-7.2-22.2-14.8-24-23-.1-.1-.1 4.8-.1 4.6 1.5 14.3 9.5 30.5 27 45.4 4.9 4.2 12.1 8.6 13 9l416 208c31.4-5.2 60.9-18.8 85.4-39.2l10.6-8.8v-28z" fill="#656565"/><path d="m456 336c31.4-5.2 60.9-18.8 85.4-39.2l10.6-8.8v-28l-96 48z" opacity=".29"/><path d="m48 104-23.9-12c-12.7-7.2-22.2-14.8-24-23-.1-.1-.1 4.8-.1 4.6 1.5 14.3 9.5 30.5 27 45.4 4.9 4.2 12.1 8.6 13 9l416 208v-28z" opacity=".11"/><path d="m508 160-120 60v4l16 8v48l24 12 88-44v-56l16-16v-4z" fill="#e5e5e5"/><path d="m508 162 20 10-116 58-20-10z" opacity=".2"/><path d="m527 172.5 1-.5-20-10v1z" opacity=".11"/><path d="m508 162-116 58 1 .5 115-57.5z" opacity=".29"/><path d="m418 242v6l4 2v-6zm-8 2 4 2v-6l-4-2zm8 16 4 2v-6l-4-2zm-8-4 4 2v-6l-4-2z" fill="#2d3134"/><path d="m412 232v4h16v56l88-44v-56l16-16v-4z" opacity=".29"/><path d="m412 236-24-12v-4l24 12z" opacity=".11"/><path d="m404 232v48l24 12v-56h-16z" opacity=".11"/><path d="m478 167-56 28v12l16 8 56-28v-12z" fill="#e5e5e5"/><path d="m438 215-16-8v-12l16 8z" opacity=".11"/><path d="m478 169 12 6-52 26-12-6z" opacity=".2"/><path d="m494 187-56 28v-12l56-28z" opacity=".29"/><path d="m489 175.5 1-.5-12-6v1z" opacity=".11"/><path d="m478 169-52 26 1 .5 51-25.5z" opacity=".29"/><path d="m458 165.2c-.1 0-.3.1-.3.1l-.8 21.2c0 .3.4.5 1 .5s1-.2 1-.5l-.8-21.2c.2-.1 0-.1-.1-.1z" fill="#e5e5e5"/><path d="m462.8 171.8-9.1 4.6c-.3.1-.6-.1-.6-.4 0-.2.1-.3.2-.4l9.1-4.6c.3-.1.6.1.6.4 0 .2-.1.4-.2.4z" fill="#e5e5e5"/><path d="m461.9 167.2-7.4 3.7c-.2.1-.5-.1-.5-.3 0-.1.1-.3.2-.3l7.4-3.7c.2-.1.5.1.5.3 0 .2-.1.3-.2.3z" fill="#e5e5e5"/><path d="m491 205-24 12v56l24 12 24-12-8-60z" fill="#cc291f"/><path d="m488.3 264.6 24-11.9-3.4-25.6-23.9 11.9-18-9v24z" fill="#e5e5e5"/><path d="m515 273-24 12-8-60 24-12z" opacity=".29"/><path d="m491 285-24-12v-56l16 8z" opacity=".11"/><path d="m471 217 12 6 8-4v-12z" opacity=".29"/><path d="m491 207v12l12-6z" opacity=".11"/><path d="m550 251-96 48v8l2 1 96-48v-8z" fill="#656565"/><path d="m456 308-2-1v-8l2 1z" opacity=".11"/><path d="m552 260-96 48v-8l96-48z" opacity=".29"/></svg>