<svg enable-background="new 0 0 552 368" viewBox="0 0 552 368" xmlns="http://www.w3.org/2000/svg"><path d="m488 304v14.1c0 6.6 1.1 13.1 3.1 19.3l1.9 5.8c4 12.1-8.6 23-20 17.3l-28.7-14.3c-13.6-6.8-27.7-12.6-42.1-17.4l-74.2-24.8-192-96s-38.9-20.4-61.9-34c-33.4-19.6-40.3-23.5-47-28-9.5-6.4-22.1-15.6-22.1-25 0-13.8 10.8-8.3 18-14 8.3-6.5-4-18-4-18z" fill="#39c"/><path d="m488 304v14.1c0 6.6 1.1 13.1 3.1 19.3l1.9 5.8c4 12.1-8.6 23-20 17.3l-28.7-14.3c-13.6-6.8-27.7-12.6-42.1-17.4l-74.2-24.8-192-96s-38.9-20.4-61.9-34c-33.4-19.6-40.3-23.5-47-28-9.5-6.4-22.1-15.6-22.1-25 0-13.8 10.8-8.3 18-14 8.3-6.5-4-18-4-18z" opacity=".15"/><path d="m119.9 44c-14.4-7.4-31.1-12-51.9-12-37.6 0-68 18.2-68 37 0 9.4 9.9 15.9 24.1 24l23.9 11 320 160 88 44 96-48-88-44-320-160z" fill="#999"/><path d="m68 36c20.8 0 37.5 4.6 51.9 12l24.1 12 320 160 84 42 4-2-88-44-320-160-24.1-12c-14.4-7.4-31.1-12-51.9-12-37.6 0-68 18.2-68 37 0 .6.1 1.3.1 1.9 2.2-18 31.8-34.9 67.9-34.9z" opacity=".2"/><g fill="#656565"><path d="m493.9 345.5c0 1.3-1.1 3-2.4 3.6-1.3.7-2.4.1-2.4-1.2s1.1-3 2.4-3.6 2.4-.2 2.4 1.2z"/><path d="m497 341.8c0 1.6-1.3 3.6-2.9 4.4s-2.9.2-2.9-1.5c0-1.6 1.3-3.6 2.9-4.4s2.9-.1 2.9 1.5z"/><path d="m491.1 345.1c0 1.6-1.3 3.6-2.9 4.4s-2.9.2-2.9-1.5c0-1.6 1.3-3.6 2.9-4.4 1.6-.7 2.9-.1 2.9 1.5z"/><path d="m495.3 348.5c0 1.6-1.3 3.6-2.9 4.4s-2.9.2-2.9-1.5c0-1.6 1.3-3.6 2.9-4.4 1.5-.7 2.9-.1 2.9 1.5z"/></g><path d="m493.6 346.7c.1-.1.1-.3.1-.4.1 0 .2-.1.3-.1 1.6-.8 2.9-2.8 2.9-4.4s-1.3-2.3-2.9-1.5c-1.5.8-2.7 2.5-2.9 4.1-.1 0-.1.1-.2.1-.3-1.2-1.5-1.6-2.8-.9-1.6.8-2.9 2.8-2.9 4.4s1.3 2.3 2.9 1.5c.4-.2.8-.5 1.1-.8.2.3.4.5.8.6-.4.7-.6 1.4-.6 2.1 0 1.6 1.3 2.3 2.9 1.5s2.9-2.8 2.9-4.4c.1-1.1-.6-1.8-1.6-1.8z" opacity=".29"/><path d="m42 21c-1.1 0-2 .4-2 1v34c0 .6.9 1 2 1s2-.4 2-1v-34c0-.6-.9-1-2-1z" fill="#f8ebcb"/><path d="m42 23c-1.1 0-2-.4-2-1v34c0 .6.9 1 2 1s2-.4 2-1v-34c0 .6-.9 1-2 1z" opacity=".2"/><path d="m42 18c-3.3 0-6 1.3-6 3v1c0 1.7 2.7 3 6 3s6-1.3 6-3v-1c0-1.7-2.7-3-6-3z" fill="#f8ebcb"/><path d="m42 14c3.3 0 6 1.3 6 3v-1c0-1.7-2.7-3-6-3s-6 1.3-6 3v1c0-1.7 2.7-3 6-3z" fill="#f8ebcb"/><path d="m42 14c3.3 0 6 1.3 6 3v-1c0-1.7-2.7-3-6-3s-6 1.3-6 3v1c0-1.7 2.7-3 6-3z" opacity=".1"/><path d="m42 5c-1.1 0-2 .4-2 1v15c0 .6.9 1 2 1s2-.4 2-1v-15c0-.6-.9-1-2-1z" fill="#f8ebcb"/><path d="m42 7c-1.1 0-2-.4-2-1v15c0 .6.9 1 2 1s2-.4 2-1v-15c0 .6-.9 1-2 1z" opacity=".2"/><path d="m42 19c-3.3 0-6-1.3-6-3v1 5l1 1v-4.3c.3.2.6.4 1 .6v4.7h1v-4.4c.9.3 1.9.4 3 .4s2.1-.1 3-.4v4.4h1v-4.8c.4-.2.7-.4 1-.6v4.4l1-1v-5-1c0 1.7-2.7 3-6 3z" fill="#f8ebcb"/><path d="m42 19c-3.3 0-6-1.3-6-3v1 4 1c0 1.7 2.7 3 6 3s6-1.3 6-3v-1-4-1c0 1.7-2.7 3-6 3zm5-.3v4c-.3.2-.6.4-1 .6v-4c.4-.2.7-.4 1-.6zm-9 .5v4c-.4-.2-.7-.4-1-.6v-4c.3.3.6.5 1 .6zm1 4.4v-4c.9.3 1.9.4 3 .4s2.1-.1 3-.4v4c-.9.3-1.9.4-3 .4s-2.1-.1-3-.4z" opacity=".2"/><path d="m34 50c-1.1 0-2 .4-2 1v6c0 .6.9 1 2 1s2-.4 2-1v-6c0-.6-.9-1-2-1z" fill="#999"/><path d="m34 52c-1.1 0-2-.4-2-1v6c0 .6.9 1 2 1s2-.4 2-1v-6c0 .6-.9 1-2 1z" opacity=".2"/><path d="m50 42c-1.1 0-2 .4-2 1v6c0 .6.9 1 2 1s2-.4 2-1v-6c0-.6-.9-1-2-1z" fill="#999"/><path d="m50 44c-1.1 0-2-.4-2-1v6c0 .6.9 1 2 1s2-.4 2-1v-6c0 .6-.9 1-2 1z" opacity=".2"/><path d="m25 75c0-1-.8-2.3-1.9-2.8-1-.5-1.9-.1-1.9.9v.3 1.9l3.7 1.9v-1.9c.1-.1.1-.2.1-.3z" fill="#999"/><path d="m25 75c0-1-.8-2.3-1.9-2.8-1-.5-1.9-.1-1.9.9v.3 1.9l3.7 1.9v-1.9c.1-.1.1-.2.1-.3z" opacity=".11"/><path d="m24.6 74.8c0-.8-.6-1.8-1.4-2.2-.3-.2-.7-.2-.9-.1l-3.7 1.9c-.3.1-.5.4-.5.9 0 .8.6 1.8 1.4 2.2.3.2.6.2.9.1l3.7-1.9c.2-.1.5-.4.5-.9z" fill="#656565"/><path d="m21.2 76.9c0-1-.8-2.3-1.9-2.8-1-.5-1.9-.1-1.9.9v.3 1.9l3.7 1.9v-1.9c.1-.2.1-.2.1-.3z" fill="#999"/><path d="m21.2 76.9c0-1-.8-2.3-1.9-2.8-1-.5-1.9-.1-1.9.9v.3 1.9l3.7 1.9v-1.9c.1-.2.1-.2.1-.3z" opacity=".11"/><path d="m22.5 56c0-1-.8-2.3-1.9-2.8-1-.5-1.9-.1-1.9.9v.3 1.9l3.7 1.9v-1.9c.1-.1.1-.2.1-.3z" fill="#999"/><path d="m22.5 56c0-1-.8-2.3-1.9-2.8-1-.5-1.9-.1-1.9.9v.3 1.9l3.7 1.9v-1.9c.1-.1.1-.2.1-.3z" opacity=".11"/><path d="m22 55.8c0-.8-.6-1.8-1.4-2.2-.3-.2-.7-.2-.9-.1l-3.7 1.9c-.3.1-.5.4-.5.9 0 .8.6 1.8 1.4 2.2.3.2.6.2.9.1l3.7-1.9c.3-.1.5-.4.5-.9z" fill="#656565"/><path d="m18.7 57.9c0-1-.8-2.3-1.9-2.8-1-.5-1.8-.1-1.8.9v.3 1.9l3.7 1.9v-1.9c0-.2 0-.2 0-.3z" fill="#999"/><path d="m18.7 57.9c0-1-.8-2.3-1.9-2.8-1-.5-1.8-.1-1.8.9v.3 1.9l3.7 1.9v-1.9c0-.2 0-.2 0-.3z" opacity=".11"/><path d="m58.5 38c0-1-.8-2.3-1.9-2.8-1-.5-1.9-.1-1.9.9v.3 1.9l3.7 1.9v-1.9c.1-.1.1-.2.1-.3z" fill="#999"/><path d="m58.5 38c0-1-.8-2.3-1.9-2.8-1-.5-1.9-.1-1.9.9v.3 1.9l3.7 1.9v-1.9c.1-.1.1-.2.1-.3z" opacity=".11"/><path d="m58 37.8c0-.8-.6-1.8-1.4-2.2-.3-.2-.7-.2-.9-.1l-3.7 1.9c-.3.1-.5.4-.5.9 0 .8.6 1.8 1.4 2.2.3.2.6.2.9.1l3.7-1.9c.3-.1.5-.4.5-.9z" fill="#656565"/><path d="m54.7 39.9c0-1-.8-2.3-1.9-2.8-1-.5-1.8-.1-1.8.9v.3 1.9l3.7 1.9v-1.9c0-.2 0-.2 0-.3z" fill="#999"/><path d="m54.7 39.9c0-1-.8-2.3-1.9-2.8-1-.5-1.8-.1-1.8.9v.3 1.9l3.7 1.9v-1.9c0-.2 0-.2 0-.3z" opacity=".11"/><path d="m30 42-6 3v2l4 2 6-3v-2z" fill="#999"/><path d="m28 49-4-2v-2l4 2z" opacity=".11"/><path d="m34 46-6 3v-2l6-3z" opacity=".29"/><path d="m55 54-10 5v2l8 4 10-5v-2z" fill="#999"/><path d="m53 65-8-4v-2l8 4z" opacity=".11"/><path d="m63 60-10 5v-2l10-5z" opacity=".29"/><path d="m45 72-8 4v2l4 2 8-4v-2z" fill="#999"/><path d="m41 80-4-2v-2l4 2z" opacity=".11"/><path d="m49 76-8 4v-2l8-4z" opacity=".29"/><path d="m492 307 8 55 10 5 2-1v-49z" fill="#39c"/><path d="m492 307 8 55 10 5v-51z" opacity=".11"/><path d="m510 367 2-1v-50h-2z" opacity=".29"/><path d="m456 308-408-204-23.9-12c-12.7-7.2-22.2-14.8-24-23-.1-.1-.1 4.8-.1 4.6 1.5 14.3 9.5 30.5 27 45.4 4.9 4.2 12.1 8.6 13 9l416 208c31.4-5.2 60.9-18.8 85.4-39.2l10.6-8.8v-28z" fill="#28896d"/><path d="m456 336c31.4-5.2 60.9-18.8 85.4-39.2l10.6-8.8v-28l-96 48z" opacity=".29"/><path d="m48 104-23.9-12c-12.7-7.2-22.2-14.8-24-23-.1-.1-.1 4.8-.1 4.6 1.5 14.3 9.5 30.5 27 45.4 4.9 4.2 12.1 8.6 13 9l416 208v-28z" opacity=".11"/><path d="m72 29v-2l4-2 2 1v2l-4 2z" fill="#999"/><path d="m72 29v-2l2 1v2z" opacity=".11"/><path d="m78 26v2l-4 2v-2z" opacity=".29"/><path d="m70 42v-14l2-1 2 1v14l-2 1z" fill="#999"/><path d="m70 42v-14l2 1v14z" opacity=".11"/><path d="m74 28v14l-2 1v-14z" opacity=".29"/><path d="m70 30v-2l2-1 6 3v2l-2 1z" fill="#999"/><path d="m70 30v-2l6 3v2z" opacity=".11"/><path d="m78 30v2l-2 1v-2z" opacity=".29"/><path d="m76 27v-2l2-1 6 3v2l-2 1z" fill="#999"/><path d="m76 27v-2l6 3v2z" opacity=".11"/><path d="m84 27v2l-2 1v-2z" opacity=".29"/><path d="m82 29v-14l2-1 2 1v14l-2 1z" fill="#999"/><path d="m82 29v-14l2 1v14z" opacity=".11"/><path d="m86 15v14l-2 1v-14z" opacity=".29"/><path d="m78 19v-2l4-2 2 1v2l-4 2z" fill="#999"/><path d="m78 19v-2l2 1v2z" opacity=".11"/><path d="m84 16v2l-4 2v-2z" opacity=".29"/><path d="m76 32v-14l2-1 2 1v14l-2 1z" fill="#999"/><path d="m76 32v-14l2 1v14z" opacity=".11"/><path d="m80 18v14l-2 1v-14z" opacity=".29"/><path d="m76 20v-2l2-1 6 3v2l-2 1z" fill="#999"/><path d="m76 20v-2l6 3v2z" opacity=".11"/><path d="m84 20v2l-2 1v-2z" opacity=".29"/><path d="m82 17v-2l2-1 6 3v2l-2 1z" fill="#999"/><path d="m82 17v-2l6 3v2z" opacity=".11"/><path d="m90 17v2l-2 1v-2z" opacity=".29"/><path d="m98 23v-16l2-1 2 1v16l-2 1z" fill="#999"/><path d="m98 23v-16l2 1v16z" opacity=".11"/><path d="m102 7v16l-2 1v-16z" opacity=".29"/><path d="m112 20c-35.3 0-64 28.7-64 64 0 17.7 28.7 32 64 32s64-14.3 64-32c0-35.3-28.7-64-64-64z" fill="#e5e5e5"/><path d="m112 108c-33.5 0-61-12.9-63.8-29.3-.1 1.7-.2 3.5-.2 5.3 0 17.7 28.7 32 64 32s64-14.3 64-32c0-1.8-.1-3.6-.2-5.3-2.8 16.4-30.3 29.3-63.8 29.3z" opacity=".2"/><path d="m112 16c-8.8 0-16 3.6-16 8v4c0 4.4 7.2 8 16 8s16-3.6 16-8v-4c0-4.4-7.2-8-16-8z" fill="#e5e5e5"/><path d="m112 32c-8.8 0-16-3.6-16-8v4c0 4.4 7.2 8 16 8s16-3.6 16-8v-4c0 4.4-7.2 8-16 8z" opacity=".2"/><path d="m386 167v-16l2-1 2 1v16l-2 1z" fill="#999"/><path d="m386 167v-16l2 1v16z" opacity=".11"/><path d="m390 151v16l-2 1v-16z" opacity=".29"/><path d="m194 71v-16l2-1 2 1v16l-2 1z" fill="#999"/><path d="m194 71v-16l2 1v16z" opacity=".11"/><path d="m198 55v16l-2 1v-16z" opacity=".29"/><path d="m290 119v-16l2-1 2 1v16l-2 1z" fill="#999"/><path d="m290 119v-16l2 1v16z" opacity=".11"/><path d="m294 103v16l-2 1v-16z" opacity=".29"/><path d="m208 68c-35.3 0-64 28.7-64 64 0 17.7 28.7 32 64 32s64-14.3 64-32c0-35.3-28.7-64-64-64z" fill="#e5e5e5"/><path d="m208 156c-33.5 0-61-12.9-63.8-29.3-.1 1.8-.2 3.5-.2 5.3 0 17.7 28.7 32 64 32s64-14.3 64-32c0-1.8-.1-3.6-.2-5.3-2.8 16.4-30.3 29.3-63.8 29.3z" opacity=".2"/><path d="m208 64c-8.8 0-16 3.6-16 8v4c0 4.4 7.2 8 16 8s16-3.6 16-8v-4c0-4.4-7.2-8-16-8z" fill="#e5e5e5"/><path d="m208 80c-8.8 0-16-3.6-16-8v4c0 4.4 7.2 8 16 8s16-3.6 16-8v-4c0 4.4-7.2 8-16 8z" opacity=".2"/><path d="m304 116c-35.3 0-64 28.7-64 64 0 17.7 28.7 32 64 32s64-14.3 64-32c0-35.3-28.7-64-64-64z" fill="#e5e5e5"/><path d="m304 204c-33.5 0-61-12.9-63.8-29.3-.1 1.8-.2 3.5-.2 5.3 0 17.7 28.7 32 64 32s64-14.3 64-32c0-1.8-.1-3.6-.2-5.3-2.8 16.4-30.3 29.3-63.8 29.3z" opacity=".2"/><path d="m304 112c-8.8 0-16 3.6-16 8v4c0 4.4 7.2 8 16 8s16-3.6 16-8v-4c0-4.4-7.2-8-16-8z" fill="#e5e5e5"/><path d="m304 128c-8.8 0-16-3.6-16-8v4c0 4.4 7.2 8 16 8s16-3.6 16-8v-4c0 4.4-7.2 8-16 8z" opacity=".2"/><path d="m400 164c-35.3 0-64 28.7-64 64 0 17.7 28.7 32 64 32s64-14.3 64-32c0-35.3-28.7-64-64-64z" fill="#e5e5e5"/><path d="m400 252c-33.5 0-61-12.9-63.8-29.3-.1 1.8-.2 3.5-.2 5.3 0 17.7 28.7 32 64 32s64-14.3 64-32c0-1.8-.1-3.6-.2-5.3-2.8 16.4-30.3 29.3-63.8 29.3z" opacity=".2"/><path d="m400 160c-8.8 0-16 3.6-16 8v4c0 4.4 7.2 8 16 8s16-3.6 16-8v-4c0-4.4-7.2-8-16-8z" fill="#e5e5e5"/><path d="m400 176c-8.8 0-16-3.6-16-8v4c0 4.4 7.2 8 16 8s16-3.6 16-8v-4c0 4.4-7.2 8-16 8z" opacity=".2"/><path d="m116 40v-16l2-1 2 1v16l-2 1z" fill="#999"/><path d="m116 40v-16l2 1v16z" opacity=".11"/><path d="m120 24v16l-2 1v-16z" opacity=".29"/><path d="m88 20v-16l2-1 2 1v16l-2 1z" fill="#999"/><path d="m88 20v-16l2 1v16z" opacity=".11"/><path d="m92 4v16l-2 1v-16z" opacity=".29"/><path d="m90 27v-16l2-1 2 1v16l-2 1z" fill="#999"/><path d="m90 27v-16l2 1v16z" opacity=".11"/><path d="m94 11v16l-2 1v-16z" opacity=".29"/><path d="m412 180v-16l2-1 2 1v16l-2 1z" fill="#999"/><path d="m412 180v-16l2 1v16z" opacity=".11"/><path d="m416 164v16l-2 1v-16z" opacity=".29"/><path d="m124 36v-16l2-1 2 1v16l-2 1z" fill="#999"/><path d="m124 36v-16l2 1v16z" opacity=".11"/><path d="m128 20v16l-2 1v-16z" opacity=".29"/><path d="m88 4v-2l2-1 362 181v2l-2 1z" fill="#999"/><path d="m88 4v-2l362 181v2z" opacity=".11"/><path d="m452 182v2l-2 1v-2z" opacity=".29"/><path d="m118 25v-2l6-3 2 1v2l-6 3z" fill="#999"/><path d="m118 25v-2l2 1v2z" opacity=".11"/><path d="m126 21v2l-6 3v-2z" opacity=".29"/><path d="m92 12v-2l6-3 2 1v2l-6 3z" fill="#999"/><path d="m92 12v-2l2 1v2z" opacity=".11"/><path d="m100 8v2l-6 3v-2z" opacity=".29"/><path d="m212 88v-16l2-1 2 1v16l-2 1z" fill="#999"/><path d="m212 88v-16l2 1v16z" opacity=".11"/><path d="m216 72v16l-2 1v-16z" opacity=".29"/><path d="m186 75v-16l2-1 2 1v16l-2 1z" fill="#999"/><path d="m186 75v-16l2 1v16z" opacity=".11"/><path d="m190 59v16l-2 1v-16z" opacity=".29"/><path d="m220 84v-16l2-1 2 1v16l-2 1z" fill="#999"/><path d="m220 84v-16l2 1v16z" opacity=".11"/><path d="m224 68v16l-2 1v-16z" opacity=".29"/><path d="m214 73v-2l6-3 2 1v2l-6 3z" fill="#999"/><path d="m214 73v-2l2 1v2z" opacity=".11"/><path d="m222 69v2l-6 3v-2z" opacity=".29"/><path d="m188 60v-2l6-3 2 1v2l-6 3z" fill="#999"/><path d="m188 60v-2l2 1v2z" opacity=".11"/><path d="m196 56v2l-6 3v-2z" opacity=".29"/><path d="m308 136v-16l2-1 2 1v16l-2 1z" fill="#999"/><path d="m308 136v-16l2 1v16z" opacity=".11"/><path d="m312 120v16l-2 1v-16z" opacity=".29"/><path d="m282 123v-16l2-1 2 1v16l-2 1z" fill="#999"/><path d="m282 123v-16l2 1v16z" opacity=".11"/><path d="m286 107v16l-2 1v-16z" opacity=".29"/><path d="m316 132v-16l2-1 2 1v16l-2 1z" fill="#999"/><path d="m316 132v-16l2 1v16z" opacity=".11"/><path d="m320 116v16l-2 1v-16z" opacity=".29"/><path d="m310 121v-2l6-3 2 1v2l-6 3z" fill="#999"/><path d="m310 121v-2l2 1v2z" opacity=".11"/><path d="m318 117v2l-6 3v-2z" opacity=".29"/><path d="m284 108v-2l6-3 2 1v2l-6 3z" fill="#999"/><path d="m284 108v-2l2 1v2z" opacity=".11"/><path d="m292 104v2l-6 3v-2z" opacity=".29"/><path d="m404 184v-16l2-1 2 1v16l-2 1z" fill="#999"/><path d="m404 184v-16l2 1v16z" opacity=".11"/><path d="m408 168v16l-2 1v-16z" opacity=".29"/><path d="m378 171v-16l2-1 2 1v16l-2 1z" fill="#999"/><path d="m378 171v-16l2 1v16z" opacity=".11"/><path d="m382 155v16l-2 1v-16z" opacity=".29"/><path d="m406 169v-2l6-3 2 1v2l-6 3z" fill="#999"/><path d="m406 169v-2l2 1v2z" opacity=".11"/><path d="m414 165v2l-6 3v-2z" opacity=".29"/><path d="m380 156v-2l6-3 2 1v2l-6 3z" fill="#999"/><path d="m380 156v-2l2 1v2z" opacity=".11"/><path d="m388 152v2l-6 3v-2z" opacity=".29"/><path d="m84 22v-2l4-2 2 1v2l-4 2z" fill="#999"/><path d="m84 22v-2l2 1v2z" opacity=".11"/><path d="m90 19v2l-4 2v-2z" opacity=".29"/><path d="m84 6v-2l4-2 2 1v2l-4 2z" fill="#999"/><path d="m84 6v-2l2 1v2z" opacity=".11"/><path d="m90 3v2l-4 2v-2z" opacity=".29"/><path d="m82 23v-16l2-1 2 1v16l-2 1z" fill="#999"/><path d="m82 23v-16l2 1v16z" opacity=".11"/><path d="m86 7v16l-2 1v-16z" opacity=".29"/><path d="m82 7v-2l2-1 362 181v2l-2 1z" fill="#999"/><path d="m82 7v-2l362 181v2z" opacity=".11"/><path d="m446 185v2l-2 1v-2z" opacity=".29"/><path d="m508 160-120 60v4l16 8v48l24 12 88-44v-56l16-16v-4z" fill="#f8ebcb"/><path d="m508 162 20 10-116 58-20-10z" opacity=".2"/><path d="m527 172.5 1-.5-20-10v1z" opacity=".11"/><path d="m508 162-116 58 1 .5 115-57.5z" opacity=".29"/><path d="m418 242v6l4 2v-6zm-8 2 4 2v-6l-4-2zm8 16 4 2v-6l-4-2zm-8-4 4 2v-6l-4-2z" fill="#2d3134"/><path d="m412 232v4h16v56l88-44v-56l16-16v-4z" opacity=".29"/><path d="m412 236-24-12v-4l24 12z" opacity=".11"/><path d="m404 232v48l24 12v-56h-16z" opacity=".11"/><path d="m478 167-56 28v12l16 8 56-28v-12z" fill="#f8ebcb"/><path d="m438 215-16-8v-12l16 8z" opacity=".11"/><path d="m478 169 12 6-52 26-12-6z" opacity=".2"/><path d="m494 187-56 28v-12l56-28z" opacity=".29"/><path d="m489 175.5 1-.5-12-6v1z" opacity=".11"/><path d="m478 169-52 26 1 .5 51-25.5z" opacity=".29"/><path d="m458 165.2c-.1 0-.3.1-.3.1l-.8 21.2c0 .3.4.5 1 .5s1-.2 1-.5l-.8-21.2c.2-.1 0-.1-.1-.1z" fill="#999"/><path d="m462.8 171.8-9.1 4.6c-.3.1-.6-.1-.6-.4 0-.2.1-.3.2-.4l9.1-4.6c.3-.1.6.1.6.4 0 .2-.1.4-.2.4z" fill="#999"/><path d="m461.9 167.2-7.4 3.7c-.2.1-.5-.1-.5-.3 0-.1.1-.3.2-.3l7.4-3.7c.2-.1.5.1.5.3 0 .2-.1.3-.2.3z" fill="#999"/><path d="m491 205-24 12v56l24 12 24-12-8-60z" fill="#28896d"/><path d="m488.3 264.6 24-11.9-3.4-25.6-23.9 11.9-18-9v24z" fill="#999"/><path d="m515 273-24 12-8-60 24-12z" opacity=".29"/><path d="m491 285-24-12v-56l16 8z" opacity=".11"/><path d="m471 217 12 6 8-4v-12z" opacity=".29"/><path d="m491 207v12l12-6z" opacity=".11"/><path d="m550 251-96 48v8l2 1 96-48v-8z" fill="#999"/><path d="m456 308-2-1v-8l2 1z" opacity=".11"/><path d="m552 260-96 48v-8l96-48z" opacity=".29"/></svg>