<svg enable-background="new 0 0 144 208" viewBox="0 0 144 208" xmlns="http://www.w3.org/2000/svg"><path d="m80 68-64 32-8-4v-8l64-32 8 4z" fill="#e5e5e5"/><path d="m80 68-64 32v-8l64-32z" opacity=".29"/><path d="m0 172 8 4 8-4v-80l-8-4-8 4z" fill="#e5e5e5"/><path d="m0 172 8 4v-80l-8-4z" opacity=".11"/><path d="m8 176 8-4v-80l-8 4z" opacity=".29"/><path d="m72 72 56 28 8-4v-8l-56-28-8 4z" fill="#e5e5e5"/><path d="m72 72 56 28v-8l-56-28z" opacity=".11"/><path d="m128 172 8 4 8-4v-80l-8-4-8 4z" fill="#e5e5e5"/><path d="m128 172 8 4v-80l-8-4z" opacity=".11"/><path d="m136 176 8-4v-80l-8 4z" opacity=".29"/><path d="m144 100-64 32-8-4v-8l64-32 8 4z" fill="#e5e5e5"/><path d="m144 100-64 32v-8l64-32z" opacity=".29"/><path d="m8 104 56 28 8-4v-8l-56-28-8 4z" fill="#e5e5e5"/><path d="m8 104 56 28v-8l-56-28z" opacity=".11"/><path d="m64 204 8 4 8-4v-80l-8-4-8 4z" fill="#e5e5e5"/><path d="m64 204 8 4v-80l-8-4z" opacity=".11"/><path d="m72 208 8-4v-80l-8 4z" opacity=".29"/><path d="m0 92 8 4 8-4 32-56-8-4-8 4z" fill="#e5e5e5"/><path d="m0 92 8 4 32-56-8-4z" opacity=".11"/><path d="m8 96 8-4 32-56-8 4z" opacity=".29"/><path d="m128 92 8 4 8-4-32-56-8-4-8 4z" fill="#e5e5e5"/><path d="m128 92 8 4-32-56-8-4z" opacity=".11"/><path d="m136 96 8-4-32-56-8 4z" opacity=".29"/><path d="m64 124 8 4 8-4v-72l-8-4-8 4z" fill="#e5e5e5"/><path d="m64 124 8 4v-72l-8-4z" opacity=".11"/><path d="m72 128 8-4v-72l-8 4z" opacity=".29"/><path d="m32 32 40-20 40 20v4l-40 20-40-20z" fill="#999"/><path d="m72 56-40-20v-4l40 20z" opacity=".11"/><path d="m72 56 40-20v-4l-40 20z" opacity=".29"/><path d="m72 0c-8.8 0-16 3.6-16 8v24c0 4.4 7.2 8 16 8s16-3.6 16-8v-24c0-4.4-7.2-8-16-8z" fill="#e5e5e5"/><path d="m72 16c-8.8 0-16-3.6-16-8v24c0 4.4 7.2 8 16 8s16-3.6 16-8v-24c0 4.4-7.2 8-16 8z" opacity=".2"/></svg>