<svg enable-background="new 0 0 552 336" viewBox="0 0 552 336" xmlns="http://www.w3.org/2000/svg"><path d="m456 328s-176.7-66.3-252-104c-40.4-20.2-101.9-56.6-123-73-30-23.3-35-35-42-39s-22.3-8.7-18-17 44 0 44 0z" fill="#39c"/><path d="m456 328s-176.7-66.3-252-104c-40.4-20.2-101.9-56.6-123-73-30-23.3-35-35-42-39s-22.3-8.7-18-17 44 0 44 0z" opacity=".15"/><path d="m136 48v-5l-16.1-8c-14.4-7.4-31.1-12-51.9-12-37.6 0-68 18.2-68 37 0 9.4 9.9 19.9 24.1 28l7.9 4 8 4 8 8 320 160h8l80 40 96-48-80-40h-8l-320-160z" fill="#e5e5e5"/><path d="m68 27c20.8 0 37.5 5.6 51.9 13l16.1 8v-5l-16.1-8c-14.4-7.4-31.1-12-51.9-12-37.6 0-68 18.2-68 37 0-.4.1 4.6.1 4.6s-.5-4.5 1.1-9.1c5.4-16 33.1-28.5 66.8-28.5z" opacity=".2"/><path d="m44 16c-1.1 0-2 .4-2 1v34c0 .6.9 1 2 1s2-.4 2-1v-34c0-.6-.9-1-2-1z" fill="#e5e5e5"/><path d="m44 18c-1.1 0-2-.4-2-1v34c0 .6.9 1 2 1s2-.4 2-1v-34c0 .6-.9 1-2 1z" opacity=".2"/><path d="m44 13c-3.3 0-6 1.3-6 3v1c0 1.7 2.7 3 6 3s6-1.3 6-3v-1c0-1.7-2.7-3-6-3z" fill="#e5e5e5"/><path d="m44 9c3.3 0 6 1.3 6 3v-1c0-1.7-2.7-3-6-3s-6 1.3-6 3v1c0-1.7 2.7-3 6-3z" fill="#e5e5e5"/><path d="m44 9c3.3 0 6 1.3 6 3v-1c0-1.7-2.7-3-6-3s-6 1.3-6 3v1c0-1.7 2.7-3 6-3z" opacity=".1"/><path d="m44 0c-1.1 0-2 .4-2 1v15c0 .6.9 1 2 1s2-.4 2-1v-15c0-.6-.9-1-2-1z" fill="#e5e5e5"/><path d="m44 2c-1.1 0-2-.4-2-1v15c0 .6.9 1 2 1s2-.4 2-1v-15c0 .6-.9 1-2 1z" opacity=".2"/><path d="m44 14c-3.3 0-6-1.3-6-3v1 5l1 1v-4.3c.3.2.6.4 1 .6v4.7h1v-4.4c.9.3 1.9.4 3 .4s2.1-.1 3-.4v4.4h1v-4.8c.4-.2.7-.4 1-.6v4.4l1-1v-5-1c0 1.7-2.7 3-6 3z" fill="#e5e5e5"/><path d="m44 14c-3.3 0-6-1.3-6-3v1 4 1c0 1.7 2.7 3 6 3s6-1.3 6-3v-1-4-1c0 1.7-2.7 3-6 3zm5-.3v4c-.3.2-.6.4-1 .6v-4c.4-.2.7-.4 1-.6zm-9 .5v4c-.4-.2-.7-.4-1-.6v-4c.3.3.6.5 1 .6zm1 4.4v-4c.9.3 1.9.4 3 .4s2.1-.1 3-.4v4c-.9.3-1.9.4-3 .4s-2.1-.1-3-.4z" opacity=".2"/><path d="m36 45c-1.1 0-2 .4-2 1v6c0 .6.9 1 2 1s2-.4 2-1v-6c0-.6-.9-1-2-1z" fill="#e5e5e5"/><path d="m36 47c-1.1 0-2-.4-2-1v6c0 .6.9 1 2 1s2-.4 2-1v-6c0 .6-.9 1-2 1z" opacity=".2"/><path d="m52 37c-1.1 0-2 .4-2 1v6c0 .6.9 1 2 1s2-.4 2-1v-6c0-.6-.9-1-2-1z" fill="#e5e5e5"/><path d="m52 39c-1.1 0-2-.4-2-1v6c0 .6.9 1 2 1s2-.4 2-1v-6c0 .6-.9 1-2 1z" opacity=".2"/><path d="m392 262c-1.1 0-2 .4-2 1v6c0 .6.9 1 2 1s2-.4 2-1v-6c0-.6-.9-1-2-1z" fill="#e5e5e5"/><path d="m392 264c-1.1 0-2-.4-2-1v6c0 .6.9 1 2 1s2-.4 2-1v-6c0 .6-.9 1-2 1z" opacity=".2"/><path d="m408 270c-1.1 0-2 .4-2 1v6c0 .6.9 1 2 1s2-.4 2-1v-6c0-.6-.9-1-2-1z" fill="#e5e5e5"/><path d="m408 272c-1.1 0-2-.4-2-1v6c0 .6.9 1 2 1s2-.4 2-1v-6c0 .6-.9 1-2 1z" opacity=".2"/><path d="m424 278c-1.1 0-2 .4-2 1v6c0 .6.9 1 2 1s2-.4 2-1v-6c0-.6-.9-1-2-1z" fill="#e5e5e5"/><path d="m424 280c-1.1 0-2-.4-2-1v6c0 .6.9 1 2 1s2-.4 2-1v-6c0 .6-.9 1-2 1z" opacity=".2"/><path d="m440 286c-1.1 0-2 .4-2 1v6c0 .6.9 1 2 1s2-.4 2-1v-6c0-.6-.9-1-2-1z" fill="#e5e5e5"/><path d="m440 288c-1.1 0-2-.4-2-1v6c0 .6.9 1 2 1s2-.4 2-1v-6c0 .6-.9 1-2 1z" opacity=".2"/><path d="m400 266c-1.1 0-2 .4-2 1v6c0 .6.9 1 2 1s2-.4 2-1v-6c0-.6-.9-1-2-1z" fill="#e5e5e5"/><path d="m400 268c-1.1 0-2-.4-2-1v6c0 .6.9 1 2 1s2-.4 2-1v-6c0 .6-.9 1-2 1z" opacity=".2"/><path d="m416 274c-1.1 0-2 .4-2 1v6c0 .6.9 1 2 1s2-.4 2-1v-6c0-.6-.9-1-2-1z" fill="#e5e5e5"/><path d="m416 276c-1.1 0-2-.4-2-1v6c0 .6.9 1 2 1s2-.4 2-1v-6c0 .6-.9 1-2 1z" opacity=".2"/><path d="m432 282c-1.1 0-2 .4-2 1v6c0 .6.9 1 2 1s2-.4 2-1v-6c0-.6-.9-1-2-1z" fill="#e5e5e5"/><path d="m432 284c-1.1 0-2-.4-2-1v6c0 .6.9 1 2 1s2-.4 2-1v-6c0 .6-.9 1-2 1z" opacity=".2"/><path d="m448 290c-1.1 0-2 .4-2 1v6c0 .6.9 1 2 1s2-.4 2-1v-6c0-.6-.9-1-2-1z" fill="#e5e5e5"/><path d="m448 292c-1.1 0-2-.4-2-1v6c0 .6.9 1 2 1s2-.4 2-1v-6c0 .6-.9 1-2 1z" opacity=".2"/><path d="m496 223c-1.1 0-2 .4-2 1v6c0 .6.9 1 2 1s2-.4 2-1v-6c0-.6-.9-1-2-1z" fill="#e5e5e5"/><path d="m496 225c-1.1 0-2-.4-2-1v6c0 .6.9 1 2 1s2-.4 2-1v-6c0 .6-.9 1-2 1z" opacity=".2"/><path d="m512 231c-1.1 0-2 .4-2 1v6c0 .6.9 1 2 1s2-.4 2-1v-6c0-.6-.9-1-2-1z" fill="#e5e5e5"/><path d="m512 233c-1.1 0-2-.4-2-1v6c0 .6.9 1 2 1s2-.4 2-1v-6c0 .6-.9 1-2 1z" opacity=".2"/><path d="m528 239c-1.1 0-2 .4-2 1v6c0 .6.9 1 2 1s2-.4 2-1v-6c0-.6-.9-1-2-1z" fill="#e5e5e5"/><path d="m528 241c-1.1 0-2-.4-2-1v6c0 .6.9 1 2 1s2-.4 2-1v-6c0 .6-.9 1-2 1z" opacity=".2"/><path d="m504 227c-1.1 0-2 .4-2 1v6c0 .6.9 1 2 1s2-.4 2-1v-6c0-.6-.9-1-2-1z" fill="#e5e5e5"/><path d="m504 229c-1.1 0-2-.4-2-1v6c0 .6.9 1 2 1s2-.4 2-1v-6c0 .6-.9 1-2 1z" opacity=".2"/><path d="m520 235c-1.1 0-2 .4-2 1v6c0 .6.9 1 2 1s2-.4 2-1v-6c0-.6-.9-1-2-1z" fill="#e5e5e5"/><path d="m520 237c-1.1 0-2-.4-2-1v6c0 .6.9 1 2 1s2-.4 2-1v-6c0 .6-.9 1-2 1z" opacity=".2"/><path d="m536 243c-1.1 0-2 .4-2 1v6c0 .6.9 1 2 1s2-.4 2-1v-6c0-.6-.9-1-2-1z" fill="#e5e5e5"/><path d="m536 245c-1.1 0-2-.4-2-1v6c0 .6.9 1 2 1s2-.4 2-1v-6c0 .6-.9 1-2 1z" opacity=".2"/><path d="m78 119 2 1 96-48-2-1z" opacity=".15"/><path d="m110 135 2 1 96-48-2-1z" opacity=".15"/><path d="m142 151 2 1 96-48-2-1z" opacity=".15"/><path d="m174 167 2 1 96-48-2-1z" opacity=".15"/><path d="m206 183 2 1 96-48-2-1z" opacity=".15"/><path d="m238 199 2 1 96-48-2-1z" opacity=".15"/><path d="m270 215 2 1 96-48-2-1z" opacity=".15"/><path d="m302 231 2 1 96-48-2-1z" opacity=".15"/><path d="m334 247 2 1 96-48-2-1z" opacity=".15"/><path d="m472 216-96 48h-8l96-48z" opacity=".2"/><path d="m384 258c-1.1 0-2 .4-2 1v6c0 .6.9 1 2 1s2-.4 2-1v-6c0-.6-.9-1-2-1z" fill="#e5e5e5"/><path d="m384 260c-1.1 0-2-.4-2-1v6c0 .6.9 1 2 1s2-.4 2-1v-6c0 .6-.9 1-2 1z" opacity=".2"/><path d="m27 70c0-1-.8-2.3-1.9-2.8-1-.5-1.9-.1-1.9.9v.3 1.9l3.7 1.9v-1.9c.1-.1.1-.2.1-.3z" fill="#e5e5e5"/><path d="m27 70c0-1-.8-2.3-1.9-2.8-1-.5-1.9-.1-1.9.9v.3 1.9l3.7 1.9v-1.9c.1-.1.1-.2.1-.3z" opacity=".11"/><path d="m26.6 69.8c0-.8-.6-1.8-1.4-2.2-.3-.2-.7-.2-.9-.1l-3.7 1.9c-.3.1-.5.4-.5.9 0 .8.6 1.8 1.4 2.2.3.2.6.2.9.1l3.7-1.9c.2-.1.5-.4.5-.9z" fill="#656565"/><path d="m23.2 71.9c0-1-.8-2.3-1.9-2.8-1-.5-1.9-.1-1.9.9v.3 1.9l3.7 1.9v-1.9c.1-.2.1-.2.1-.3z" fill="#e5e5e5"/><path d="m23.2 71.9c0-1-.8-2.3-1.9-2.8-1-.5-1.9-.1-1.9.9v.3 1.9l3.7 1.9v-1.9c.1-.2.1-.2.1-.3z" opacity=".11"/><path d="m93 37c0-1-.8-2.3-1.9-2.8-1-.5-1.9-.1-1.9.9v.3 1.9l3.7 1.9v-1.9c.1-.1.1-.2.1-.3z" fill="#e5e5e5"/><path d="m93 37c0-1-.8-2.3-1.9-2.8-1-.5-1.9-.1-1.9.9v.3 1.9l3.7 1.9v-1.9c.1-.1.1-.2.1-.3z" opacity=".11"/><path d="m92.6 36.8c0-.8-.6-1.8-1.4-2.2-.3-.2-.7-.2-.9-.1l-3.7 1.9c-.3.1-.5.4-.5.9 0 .8.6 1.8 1.4 2.2.3.2.6.2.9.1l3.7-1.9c.2-.1.5-.4.5-.9z" fill="#656565"/><path d="m89.2 38.9c0-1-.8-2.3-1.9-2.8-1-.5-1.9-.1-1.9.9v.3 1.9l3.7 1.9v-1.9c.1-.2.1-.2.1-.3z" fill="#e5e5e5"/><path d="m89.2 38.9c0-1-.8-2.3-1.9-2.8-1-.5-1.9-.1-1.9.9v.3 1.9l3.7 1.9v-1.9c.1-.2.1-.2.1-.3z" opacity=".11"/><path d="m24.5 51c0-1-.8-2.3-1.9-2.8-1-.5-1.9-.1-1.9.9v.3 1.9l3.7 1.9v-1.9c.1-.1.1-.2.1-.3z" fill="#e5e5e5"/><path d="m24.5 51c0-1-.8-2.3-1.9-2.8-1-.5-1.9-.1-1.9.9v.3 1.9l3.7 1.9v-1.9c.1-.1.1-.2.1-.3z" opacity=".11"/><path d="m24 50.8c0-.8-.6-1.8-1.4-2.2-.3-.2-.7-.2-.9-.1l-3.7 1.9c-.3.1-.5.4-.5.9 0 .8.6 1.8 1.4 2.2.3.2.6.2.9.1l3.7-1.9c.3-.1.5-.4.5-.9z" fill="#656565"/><path d="m20.7 52.9c0-1-.8-2.3-1.9-2.8-1-.5-1.8-.1-1.8.9v.3 1.9l3.7 1.9v-1.9c0-.2 0-.2 0-.3z" fill="#e5e5e5"/><path d="m20.7 52.9c0-1-.8-2.3-1.9-2.8-1-.5-1.8-.1-1.8.9v.3 1.9l3.7 1.9v-1.9c0-.2 0-.2 0-.3z" opacity=".11"/><path d="m60.5 33c0-1-.8-2.3-1.9-2.8-1-.5-1.9-.1-1.9.9v.3 1.9l3.7 1.9v-1.9c.1-.1.1-.2.1-.3z" fill="#e5e5e5"/><path d="m60.5 33c0-1-.8-2.3-1.9-2.8-1-.5-1.9-.1-1.9.9v.3 1.9l3.7 1.9v-1.9c.1-.1.1-.2.1-.3z" opacity=".11"/><path d="m60 32.8c0-.8-.6-1.8-1.4-2.2-.3-.2-.7-.2-.9-.1l-3.7 1.9c-.3.1-.5.4-.5.9 0 .8.6 1.8 1.4 2.2.3.2.6.2.9.1l3.7-1.9c.3-.1.5-.4.5-.9z" fill="#656565"/><path d="m56.7 34.9c0-1-.8-2.3-1.9-2.8-1-.5-1.8-.1-1.8.9v.3 1.9l3.7 1.9v-1.9c0-.2 0-.2 0-.3z" fill="#e5e5e5"/><path d="m56.7 34.9c0-1-.8-2.3-1.9-2.8-1-.5-1.8-.1-1.8.9v.3 1.9l3.7 1.9v-1.9c0-.2 0-.2 0-.3z" opacity=".11"/><path d="m134 42-96 48v5l2 1 96-48v-5z" fill="#e5e5e5"/><path d="m40 96-2-1v-5l2 1z" opacity=".11"/><path d="m136 48v-5l-96 48v5l8 8 96-48z" opacity=".29"/><path d="m30 36-6 3v2l4 2 6-3v-2z" fill="#e5e5e5"/><path d="m28 43-4-2v-2l4 2z" opacity=".11"/><path d="m34 40-6 3v-2l6-3z" opacity=".29"/><path d="m61 49-10 5v2l8 4 10-5v-2z" fill="#e5e5e5"/><path d="m59 60-8-4v-2l8 4z" opacity=".11"/><path d="m69 55-10 5v-2l10-5z" opacity=".29"/><path d="m102 48-8 4v2l4 2 8-4v-2z" fill="#e5e5e5"/><path d="m98 56-4-2v-2l4 2z" opacity=".11"/><path d="m106 52-8 4v-2l8-4z" opacity=".29"/><path d="m55 71-8 4v2l4 2 8-4v-2z" fill="#e5e5e5"/><path d="m51 79-4-2v-2l4 2z" opacity=".11"/><path d="m59 75-8 4v-2l8-4z" opacity=".29"/><path d="m488 156-96 48v4l16 8v48l24 12 64-32v-56l16-16v-4z" fill="#e5e5e5"/><path d="m488 158 20 10-92 46-20-10z" opacity=".2"/><path d="m507 168.5 1-.5-20-10v1z" opacity=".11"/><path d="m488 158-92 46 1 .5 91-45.5z" opacity=".29"/><path d="m456 160-32 16v12l16 8 32-16v-12z" fill="#e5e5e5"/><path d="m440 196-16-8v-12l16 8z" opacity=".11"/><path d="m456 162 12 6-28 14-12-6z" opacity=".2"/><path d="m422 226v6l4 2v-6zm-8 2 4 2v-6l-4-2zm8 16 4 2v-6l-4-2zm-8-4 4 2v-6l-4-2z" fill="#2d3134"/><path d="m416 216v4h16v56l64-32v-56l16-16v-4z" opacity=".29"/><path d="m472 180-32 16v-12l32-16z" opacity=".29"/><path d="m416 220-24-12v-4l24 12z" opacity=".11"/><path d="m408 216v48l24 12v-56h-16z" opacity=".11"/><path d="m467 168.5 1-.5-12-6v1z" opacity=".11"/><path d="m456 162-28 14 1 .5 27-13.5z" opacity=".29"/><g fill="#e5e5e5"><path d="m448 152c-.1 0-.3.1-.3.1l-.8 21.2c0 .3.4.5 1 .5s1-.2 1-.5l-.8-21.2c.2 0 0-.1-.1-.1z"/><path d="m452.8 158.7-9.1 4.6c-.3.1-.6-.1-.6-.4 0-.2.1-.3.2-.4l9.1-4.6c.3-.1.6.1.6.4 0 .1-.1.3-.2.4z"/><path d="m451.9 154.1-7.4 3.7c-.2.1-.5-.1-.5-.3 0-.1.1-.3.2-.3l7.4-3.7c.2-.1.5.1.5.3 0 .1-.1.2-.2.3z"/></g><path d="m477 198-24 12v56l24 12 24-12-8-60z" fill="#06547a"/><path d="m474.3 257.6 24-11.9-3.4-25.6-23.9 11.9-18-9v24z" fill="#e5e5e5"/><path d="m501 266-24 12-8-60 24-12z" opacity=".29"/><path d="m477 278-24-12v-56l16 8z" opacity=".11"/><path d="m457 210 12 6 8-4v-12z" opacity=".29"/><path d="m477 200v12l12-6z" opacity=".11"/><path d="m550 243-96 48v12l2 1 96-48v-12z" fill="#e5e5e5"/><path d="m456 304-2-1v-12l2 1z" opacity=".11"/><path d="m552 256-96 48v-12l96-48z" opacity=".29"/><path d="m456 304-80-40h-8l-320-160-8-8v-5l-8-4-7.9-4c-12.7-7.2-22.2-14.8-24-23-.1-.1-.1 4.8-.1 4.6 1.5 14.3 9.5 31.6 27 46.4 4.9 4.2 12.1 8.6 13 9l416 208 96-48v-24z" fill="#06547a"/><path d="m456 328 96-48v-24l-96 48z" opacity=".29"/><path d="m376 264h-8l-320-160-8-8v-5l-8-4-7.9-4c-12.7-7.2-22.2-14.8-24-23-.1-.1-.1 4.8-.1 4.6 1.5 14.3 9.5 31.6 27 46.4 4.9 4.2 12.1 8.6 13 9l416 208v-24z" opacity=".11"/></svg>