<svg enable-background="new 0 0 544 400" viewBox="0 0 544 400" xmlns="http://www.w3.org/2000/svg"><path d="m513 286-8 4v2l4 2 8-4v-2z" fill="#cc291f"/><path d="m509 294-4-2v-2l4 2z" opacity=".11"/><path d="m517 290-8 4v-2l8-4z" opacity=".29"/><path d="m191.8 264 96.2 48 68.5 31.5c12.4 5.7 25 10.8 37.8 15.3l34.2 12.1c7.7 2.7 15.4 5.2 23.3 7.5l48.2 14.2c17.1 5 28.4-17.3 14.2-28.1-4.7-3.6-8.1-8.5-9.9-14l-8.3-26.5-328-188h-168l20.2 25.9c1.9 2.5.2 6.1-3 6.1h-3c-3.6 0-4.7 4.8-1.5 6.4z" fill="#39c"/><path d="m191.8 264 96.2 48 68.5 31.5c12.4 5.7 25 10.8 37.8 15.3l34.2 12.1c7.7 2.7 15.4 5.2 23.3 7.5l48.2 14.2c17.1 5 28.4-17.3 14.2-28.1-4.7-3.6-8.1-8.5-9.9-14l-8.3-26.5-328-188h-168l20.2 25.9c1.9 2.5.2 6.1-3 6.1h-3c-3.6 0-4.7 4.8-1.5 6.4z" opacity=".15"/><path d="m510 267-22-11-306-153-10-5-76-38-96 48 76 38 10 5 330 165s29.5 18 60 18c37.6 0 68-15.2 68-34 0-14.7-34-33-34-33z" fill="#999"/><path d="m96 63.8 76 38 10 5 306 153 22 11s31.5 16.9 33.8 31.3c.1-.7.2-1.4.2-2.2 0-14.8-34-33-34-33l-22-11-306-152.9-10-5-76-38z" opacity=".2"/><path d="m384 320-.2-.1c-.2-.1-.1-.1.2.1z"/><path d="m96 52-96 48v8l2 1 96-48v-8z" fill="#999"/><path d="m2 109-2-1v-8l2 1z" opacity=".11"/><path d="m98 61-96 48v-8l96-48z" opacity=".29"/><path d="m76 26-24 12-8 52 24 12 24-12v-56z" fill="#28896d"/><path d="m50.3 49.1-3.4 22.3 21.1 10.6 24-12v-24l-24 12z" fill="#999"/><path d="m92 90-24 12v-56l24-12z" opacity=".29"/><path d="m68 102-24-12 8-52 16 8z" opacity=".11"/><path d="m56 38 12 6 8-4v-12z" opacity=".29"/><path d="m76 28v12l12-6z" opacity=".11"/><path d="m144 4-120 60v4l16 8v48l24 12 88-44v-56l16-16v-4z" fill="#f8ebcb"/><path d="m144 6 20 10-116 58-20-10z" opacity=".2"/><path d="m163 16.5 1-.5-20-10v1z" opacity=".11"/><path d="m144 6-116 58 1 .5 115-57.5z" opacity=".29"/><g fill="#2d3134"><path d="m54 86v6l4 2v-6zm-8 2 4 2v-6l-4-2zm8 16 4 2v-6l-4-2zm-8-4 4 2v-6l-4-2z"/><path d="m90 84 4-2v-6l-4 2z"/><path d="m98 80 4-2v-6l-4 2z"/><path d="m114 72 4-2v-6l-4 2z"/><path d="m122 68 4-2v-6l-4 2z"/><path d="m90 72 4-2v-6l-4 2z"/><path d="m98 68 4-2v-6l-4 2z"/><path d="m106 64 4-2v-6l-4 2z"/><path d="m114 60 4-2v-6l-4 2z"/><path d="m122 50v6l4-2v-6z"/><path d="m90 96 4-2v-6l-4 2z"/><path d="m98 92 4-2v-6l-4 2z"/><path d="m74 92 4-2v-6l-4 2z"/><path d="m82 88 4-2v-6l-4 2z"/><path d="m74 80 4-2v-6l-4 2z"/><path d="m82 76 4-2v-6l-4 2z"/><path d="m74 104 4-2v-6l-4 2z"/><path d="m82 100 4-2v-6l-4 2z"/><path d="m114 84 4-2v-6l-4 2z"/><path d="m106 76 4-2v-6l-4 2z"/><path d="m106 88 4-2v-6l-4 2z"/><path d="m122 80 4-2v-6l-4 2z"/><path d="m130 64 4-2v-6l-4 2z"/><path d="m130 46v6l4-2v-6z"/><path d="m130 76 4-2v-6l-4 2z"/><path d="m138 60 4-2v-6l-4 2z"/><path d="m138 42v6l4-2v-6z"/><path d="m138 72 4-2v-6l-4 2z"/></g><path d="m48 76v4h16v56l88-44v-56l16-16v-4z" opacity=".29"/><path d="m48 80-24-12v-4l24 12z" opacity=".11"/><path d="m40 76v48l24 12v-56h-16z" opacity=".11"/><path d="m114 11-56 28v12l16 8 56-28v-12z" fill="#f8ebcb"/><path d="m74 59-16-8v-12l16 8z" opacity=".11"/><path d="m114 13 12 6-52 26-12-6z" opacity=".2"/><path d="m91 42v4l2-1v-4z" fill="#2d3134"/><path d="m95 40v4l2-1v-4z" fill="#2d3134"/><path d="m99 38v4l2-1v-4z" fill="#2d3134"/><path d="m103 36v4l2-1v-4z" fill="#2d3134"/><path d="m107 34v4l2-1v-4z" fill="#2d3134"/><path d="m111 32v4l2-1v-4z" fill="#2d3134"/><path d="m115 30v4l2-1v-4z" fill="#2d3134"/><path d="m119 28v4l2-1v-4z" fill="#2d3134"/><path d="m83 46v4l2-1v-4z" fill="#2d3134"/><path d="m87 44v4l2-1v-4z" fill="#2d3134"/><path d="m130 31-56 28v-12l56-28z" opacity=".29"/><path d="m125 19.5 1-.5-12-6v1z" opacity=".11"/><path d="m114 13-52 26 1 .5 51-25.5z" opacity=".29"/><path d="m94 9.2c-.1 0-.3.1-.3.1l-.7 21.2c0 .3.4.5 1 .5s1-.2 1-.5l-.7-21.2c0-.1-.2-.1-.3-.1z" fill="#999"/><path d="m98.8 15.8-9.1 4.6c-.4.1-.7-.1-.7-.4 0-.2.1-.3.2-.4l9.1-4.6c.3-.1.6.1.6.4.1.2 0 .4-.1.4z" fill="#999"/><path d="m97.9 11.2-7.5 3.8c-.2.1-.5-.1-.5-.3 0-.1.1-.3.2-.3l7.4-3.7c.2-.1.5.1.5.3.1.1 0 .2-.1.2z" fill="#999"/><path d="m384 327.8-.2-.1c-.2-.1-.1-.1.2.1z" fill="#28896d"/><path d="m478 331c-30.5 0-90-29-90-29l-302-151-10-5-76-38v27.8l383.8 191.9c3.2 1.4 69.5 31.3 97.2 28.1 28.9-3.4 59.3-29.3 63-53.3 0-.1-.1-3.6-.1-3.7-1.8 17.9-29.5 32.2-65.9 32.2z" fill="#28896d"/><path d="m384 327.8-.2-.1c-.2-.1-.1-.1.2.1z" fill="#28896d"/><path d="m478 331c-30.5 0-90-29-90-29l-302-151-10-5-76-38v27.8l383.8 191.9c2.9 1.3 56.8 25.6 87.7 28.1l9.5-24.8c-1 .1-2 0-3 0z" opacity=".11"/><path d="m544 302.4c0-.1-.1-3.6-.1-3.7-1.7 17.5-28 31.6-63 32.3l-9.3 24.8c3.5.3 6.7.3 9.5 0 28.8-3.5 59.2-29.4 62.9-53.4z" opacity=".29"/><path d="m502 300-10 5v2l8 4 10-5v-2z" fill="#999"/><path d="m500 311-8-4v-2l8 4z" opacity=".11"/><path d="m510 306-10 5v-2l10-5z" opacity=".29"/><path d="m513 286-8 4v2l4 2 8-4v-2z" fill="#999"/><path d="m509 294-4-2v-2l4 2z" opacity=".11"/><path d="m517 290-8 4v-2l8-4z" opacity=".29"/><path d="m468 310-8 4v2l4 2 8-4v-2z" fill="#999"/><path d="m464 318-4-2v-2l4 2z" opacity=".11"/><path d="m472 314-8 4v-2l8-4z" opacity=".29"/><path d="m138 71v-16l2-1 2 1v16l-2 1z" fill="#999"/><path d="m138 71v-16l2 1v16z" opacity=".11"/><path d="m142 55v16l-2 1v-16z" opacity=".29"/><path d="m152 68c-35.3 0-64 28.7-64 64 0 17.7 28.7 32 64 32s64-14.3 64-32c0-35.3-28.7-64-64-64z" fill="#e5e5e5"/><path d="m152 156c-33.5 0-61-12.9-63.8-29.3-.1 1.8-.2 3.5-.2 5.3 0 17.7 28.7 32 64 32s64-14.3 64-32c0-1.8-.1-3.6-.2-5.3-2.8 16.4-30.3 29.3-63.8 29.3z" opacity=".2"/><path d="m152 64c-8.8 0-16 3.6-16 8v4c0 4.4 7.2 8 16 8s16-3.6 16-8v-4c0-4.4-7.2-8-16-8z" fill="#e5e5e5"/><path d="m152 80c-8.8 0-16-3.6-16-8v4c0 4.4 7.2 8 16 8s16-3.6 16-8v-4c0 4.4-7.2 8-16 8z" opacity=".2"/><path d="m426 215v-16l2-1 2 1v16l-2 1z" fill="#999"/><path d="m426 215v-16l2 1v16z" opacity=".11"/><path d="m430 199v16l-2 1v-16z" opacity=".29"/><path d="m234 119v-16l2-1 2 1v16l-2 1z" fill="#999"/><path d="m234 119v-16l2 1v16z" opacity=".11"/><path d="m238 103v16l-2 1v-16z" opacity=".29"/><path d="m330 167v-16l2-1 2 1v16l-2 1z" fill="#999"/><path d="m330 167v-16l2 1v16z" opacity=".11"/><path d="m334 151v16l-2 1v-16z" opacity=".29"/><path d="m248 116c-35.3 0-64 28.7-64 64 0 17.7 28.7 32 64 32s64-14.3 64-32c0-35.3-28.7-64-64-64z" fill="#e5e5e5"/><path d="m248 204c-33.5 0-61-12.9-63.8-29.3-.1 1.8-.2 3.5-.2 5.3 0 17.7 28.7 32 64 32s64-14.3 64-32c0-1.8-.1-3.6-.2-5.3-2.8 16.4-30.3 29.3-63.8 29.3z" opacity=".2"/><path d="m248 112c-8.8 0-16 3.6-16 8v4c0 4.4 7.2 8 16 8s16-3.6 16-8v-4c0-4.4-7.2-8-16-8z" fill="#e5e5e5"/><path d="m248 128c-8.8 0-16-3.6-16-8v4c0 4.4 7.2 8 16 8s16-3.6 16-8v-4c0 4.4-7.2 8-16 8z" opacity=".2"/><path d="m344 164c-35.3 0-64 28.7-64 64 0 17.7 28.7 32 64 32s64-14.3 64-32c0-35.3-28.7-64-64-64z" fill="#e5e5e5"/><path d="m344 252c-33.5 0-61-12.9-63.8-29.3-.1 1.8-.2 3.5-.2 5.3 0 17.7 28.7 32 64 32s64-14.3 64-32c0-1.8-.1-3.6-.2-5.3-2.8 16.4-30.3 29.3-63.8 29.3z" opacity=".2"/><path d="m344 160c-8.8 0-16 3.6-16 8v4c0 4.4 7.2 8 16 8s16-3.6 16-8v-4c0-4.4-7.2-8-16-8z" fill="#e5e5e5"/><path d="m344 176c-8.8 0-16-3.6-16-8v4c0 4.4 7.2 8 16 8s16-3.6 16-8v-4c0 4.4-7.2 8-16 8z" opacity=".2"/><path d="m440 212c-35.3 0-64 28.7-64 64 0 17.7 28.7 32 64 32s64-14.3 64-32c0-35.3-28.7-64-64-64z" fill="#e5e5e5"/><path d="m440 300c-33.5 0-61-12.9-63.8-29.3-.1 1.8-.2 3.5-.2 5.3 0 17.7 28.7 32 64 32s64-14.3 64-32c0-1.8-.1-3.6-.2-5.3-2.8 16.4-30.3 29.3-63.8 29.3z" opacity=".2"/><path d="m440 208c-8.8 0-16 3.6-16 8v4c0 4.4 7.2 8 16 8s16-3.6 16-8v-4c0-4.4-7.2-8-16-8z" fill="#e5e5e5"/><path d="m440 224c-8.8 0-16-3.6-16-8v4c0 4.4 7.2 8 16 8s16-3.6 16-8v-4c0 4.4-7.2 8-16 8z" opacity=".2"/><path d="m156 88v-16l2-1 2 1v16l-2 1z" fill="#999"/><path d="m156 88v-16l2 1v16z" opacity=".11"/><path d="m160 72v16l-2 1v-16z" opacity=".29"/><path d="m462 235v-16l2-1 2 1v16l-2 1z" fill="#999"/><path d="m462 235v-16l2 1v16z" opacity=".11"/><path d="m466 219v16l-2 1v-16z" opacity=".29"/><path d="m130 75v-16l2-1 2 1v16l-2 1z" fill="#999"/><path d="m130 75v-16l2 1v16z" opacity=".11"/><path d="m134 59v16l-2 1v-16z" opacity=".29"/><path d="m452 228v-16l2-1 2 1v16l-2 1z" fill="#999"/><path d="m452 228v-16l2 1v16z" opacity=".11"/><path d="m456 212v16l-2 1v-16z" opacity=".29"/><path d="m164 84v-16l2-1 2 1v16l-2 1z" fill="#999"/><path d="m164 84v-16l2 1v16z" opacity=".11"/><path d="m168 68v16l-2 1v-16z" opacity=".29"/><path d="m110 43v-2l2-1 354 177v2l-2 1z" fill="#999"/><path d="m110 43v-2l354 177v2z" opacity=".11"/><path d="m466 217v2l-2 1v-2z" opacity=".29"/><path d="m158 73v-2l6-3 2 1v2l-6 3z" fill="#999"/><path d="m158 73v-2l2 1v2z" opacity=".11"/><path d="m166 69v2l-6 3v-2z" opacity=".29"/><path d="m132 60v-2l6-3 2 1v2l-6 3z" fill="#999"/><path d="m132 60v-2l2 1v2z" opacity=".11"/><path d="m140 56v2l-6 3v-2z" opacity=".29"/><path d="m252 136v-16l2-1 2 1v16l-2 1z" fill="#999"/><path d="m252 136v-16l2 1v16z" opacity=".11"/><path d="m256 120v16l-2 1v-16z" opacity=".29"/><path d="m226 123v-16l2-1 2 1v16l-2 1z" fill="#999"/><path d="m226 123v-16l2 1v16z" opacity=".11"/><path d="m230 107v16l-2 1v-16z" opacity=".29"/><path d="m260 132v-16l2-1 2 1v16l-2 1z" fill="#999"/><path d="m260 132v-16l2 1v16z" opacity=".11"/><path d="m264 116v16l-2 1v-16z" opacity=".29"/><path d="m254 121v-2l6-3 2 1v2l-6 3z" fill="#999"/><path d="m254 121v-2l2 1v2z" opacity=".11"/><path d="m262 117v2l-6 3v-2z" opacity=".29"/><path d="m228 108v-2l6-3 2 1v2l-6 3z" fill="#999"/><path d="m228 108v-2l2 1v2z" opacity=".11"/><path d="m236 104v2l-6 3v-2z" opacity=".29"/><path d="m348 184v-16l2-1 2 1v16l-2 1z" fill="#999"/><path d="m348 184v-16l2 1v16z" opacity=".11"/><path d="m352 168v16l-2 1v-16z" opacity=".29"/><path d="m322 171v-16l2-1 2 1v16l-2 1z" fill="#999"/><path d="m322 171v-16l2 1v16z" opacity=".11"/><path d="m326 155v16l-2 1v-16z" opacity=".29"/><path d="m356 180v-16l2-1 2 1v16l-2 1z" fill="#999"/><path d="m356 180v-16l2 1v16z" opacity=".11"/><path d="m360 164v16l-2 1v-16z" opacity=".29"/><path d="m350 169v-2l6-3 2 1v2l-6 3z" fill="#999"/><path d="m350 169v-2l2 1v2z" opacity=".11"/><path d="m358 165v2l-6 3v-2z" opacity=".29"/><path d="m324 156v-2l6-3 2 1v2l-6 3z" fill="#999"/><path d="m324 156v-2l2 1v2z" opacity=".11"/><path d="m332 152v2l-6 3v-2z" opacity=".29"/><path d="m444 232v-16l2-1 2 1v16l-2 1z" fill="#999"/><path d="m444 232v-16l2 1v16z" opacity=".11"/><path d="m448 216v16l-2 1v-16z" opacity=".29"/><path d="m418 219v-16l2-1 2 1v16l-2 1z" fill="#999"/><path d="m418 219v-16l2 1v16z" opacity=".11"/><path d="m422 203v16l-2 1v-16z" opacity=".29"/><path d="m446 217v-2l6-3 2 1v2l-6 3z" fill="#999"/><path d="m446 217v-2l2 1v2z" opacity=".11"/><path d="m454 213v2l-6 3v-2z" opacity=".29"/><path d="m456 222v-2l6-3 2 1v2l-6 3z" fill="#999"/><path d="m456 222v-2l2 1v2z" opacity=".11"/><path d="m464 218v2l-6 3v-2z" opacity=".29"/><path d="m420 204v-2l6-3 2 1v2l-6 3z" fill="#999"/><path d="m420 204v-2l2 1v2z" opacity=".11"/><path d="m428 200v2l-6 3v-2z" opacity=".29"/><path d="m458 237v-2l4-2 2 1v2l-4 2z" fill="#999"/><path d="m458 237v-2l2 1v2z" opacity=".11"/><path d="m464 234v2l-4 2v-2z" opacity=".29"/><path d="m456 238v-16l2-1 2 1v16l-2 1z" fill="#999"/><path d="m456 238v-16l2 1v16z" opacity=".11"/><path d="m460 222v16l-2 1v-16z" opacity=".29"/><path d="m458 239v-2l2-1 6 3v2l-2 1z" fill="#999"/><path d="m458 239v-2l6 3v2z" opacity=".11"/><path d="m466 239v2l-2 1v-2z" opacity=".29"/><path d="m464 236v-2l2-1 6 3v2l-2 1z" fill="#999"/><path d="m464 236v-2l6 3v2z" opacity=".11"/><path d="m472 236v2l-2 1v-2z" opacity=".29"/><path d="m470 251v-14l2-1 2 1v14l-2 1z" fill="#999"/><path d="m470 251v-14l2 1v14z" opacity=".11"/><path d="m474 237v14l-2 1v-14z" opacity=".29"/><path d="m466 241v-2l4-2 2 1v2l-4 2z" fill="#999"/><path d="m466 241v-2l2 1v2z" opacity=".11"/><path d="m472 238v2l-4 2v-2z" opacity=".29"/><path d="m466 253v-2l4-2 2 1v2l-4 2z" fill="#999"/><path d="m466 253v-2l2 1v2z" opacity=".11"/><path d="m472 250v2l-4 2v-2z" opacity=".29"/><path d="m464 254v-14l2-1 2 1v14l-2 1z" fill="#999"/><path d="m464 254v-14l2 1v14z" opacity=".11"/><path d="m468 240v14l-2 1v-14z" opacity=".29"/><path d="m466 255v-2l2-1 6 3v2l-2 1z" fill="#999"/><path d="m466 255v-2l6 3v2z" opacity=".11"/><path d="m474 255v2l-2 1v-2z" opacity=".29"/><path d="m472 252v-2l2-1 6 3v2l-2 1z" fill="#999"/><path d="m472 252v-2l6 3v2z" opacity=".11"/><path d="m480 252v2l-2 1v-2z" opacity=".29"/><path d="m478 267v-14l2-1 2 1v14l-2 1z" fill="#999"/><path d="m478 267v-14l2 1v14z" opacity=".11"/><path d="m482 253v14l-2 1v-14z" opacity=".29"/><path d="m474 257v-2l4-2 2 1v2l-4 2z" fill="#999"/><path d="m474 257v-2l2 1v2z" opacity=".11"/><path d="m480 254v2l-4 2v-2z" opacity=".29"/><path d="m474 269v-2l4-2 2 1v2l-4 2z" fill="#999"/><path d="m474 269v-2l2 1v2z" opacity=".11"/><path d="m480 266v2l-4 2v-2z" opacity=".29"/><path d="m472 270v-14l2-1 2 1v14l-2 1z" fill="#999"/><path d="m472 270v-14l2 1v14z" opacity=".11"/><path d="m476 256v14l-2 1v-14z" opacity=".29"/><path d="m474 271v-2l2-1 6 3v2l-2 1z" fill="#999"/><path d="m474 271v-2l6 3v2z" opacity=".11"/><path d="m482 271v2l-2 1v-2z" opacity=".29"/><path d="m480 268v-2l2-1 6 3v2l-2 1z" fill="#999"/><path d="m480 268v-2l6 3v2z" opacity=".11"/><path d="m488 268v2l-2 1v-2z" opacity=".29"/><path d="m486 283v-14l2-1 2 1v14l-2 1z" fill="#999"/><path d="m486 283v-14l2 1v14z" opacity=".11"/><path d="m490 269v14l-2 1v-14z" opacity=".29"/><path d="m482 273v-2l4-2 2 1v2l-4 2z" fill="#999"/><path d="m482 273v-2l2 1v2z" opacity=".11"/><path d="m488 270v2l-4 2v-2z" opacity=".29"/><path d="m482 285v-2l4-2 2 1v2l-4 2z" fill="#999"/><path d="m482 285v-2l2 1v2z" opacity=".11"/><path d="m488 282v2l-4 2v-2z" opacity=".29"/><path d="m480 286v-14l2-1 2 1v14l-2 1z" fill="#999"/><path d="m480 286v-14l2 1v14z" opacity=".11"/><path d="m484 272v14l-2 1v-14z" opacity=".29"/><path d="m482 287v-2l2-1 6 3v2l-2 1z" fill="#999"/><path d="m482 287v-2l6 3v2z" opacity=".11"/><path d="m490 287v2l-2 1v-2z" opacity=".29"/><path d="m488 284v-2l2-1 6 3v2l-2 1z" fill="#999"/><path d="m488 284v-2l6 3v2z" opacity=".11"/><path d="m496 284v2l-2 1v-2z" opacity=".29"/><path d="m494 299v-14l2-1 2 1v14l-2 1z" fill="#999"/><path d="m494 299v-14l2 1v14z" opacity=".11"/><path d="m498 285v14l-2 1v-14z" opacity=".29"/><path d="m490 289v-2l4-2 2 1v2l-4 2z" fill="#999"/><path d="m490 289v-2l2 1v2z" opacity=".11"/><path d="m496 286v2l-4 2v-2z" opacity=".29"/><path d="m490 301v-2l4-2 2 1v2l-4 2z" fill="#999"/><path d="m490 301v-2l2 1v2z" opacity=".11"/><path d="m496 298v2l-4 2v-2z" opacity=".29"/><path d="m488 302v-14l2-1 2 1v14l-2 1z" fill="#999"/><path d="m488 302v-14l2 1v14z" opacity=".11"/><path d="m492 288v14l-2 1v-14z" opacity=".29"/><path d="m104 46v-2l2-1 354 177v2l-2 1z" fill="#999"/><path d="m104 46v-2l354 177v2z" opacity=".11"/><path d="m460 220v2l-2 1v-2z" opacity=".29"/><path d="m520 298c-1.1 0-2 .4-2 1v6c0 .6.9 1 2 1s2-.4 2-1v-6c0-.6-.9-1-2-1z" fill="#999"/><path d="m520 300c-1.1 0-2-.4-2-1v6c0 .6.9 1 2 1s2-.4 2-1v-6c0 .6-.9 1-2 1z" opacity=".2"/><path d="m466.5 322c0-1-.8-2.3-1.9-2.8-1-.5-1.9-.1-1.9.9v.3 1.9l3.7 1.9v-1.9c.1-.1.1-.2.1-.3z" fill="#999"/><path d="m466.5 322c0-1-.8-2.3-1.9-2.8-1-.5-1.9-.1-1.9.9v.3 1.9l3.7 1.9v-1.9c.1-.1.1-.2.1-.3z" opacity=".11"/><path d="m466 321.8c0-.8-.6-1.8-1.4-2.2-.3-.2-.7-.2-.9-.1l-3.7 1.9c-.3.1-.5.4-.5.9 0 .8.6 1.8 1.4 2.2.3.2.6.2.9.1l3.7-1.9c.3-.1.5-.4.5-.9z" fill="#656565"/><path d="m462.7 323.9c0-1-.8-2.3-1.9-2.8-1-.5-1.9-.1-1.9.9v.3 1.9l3.7 1.9v-1.9c.1-.2.1-.2.1-.3z" fill="#999"/><path d="m462.7 323.9c0-1-.8-2.3-1.9-2.8-1-.5-1.9-.1-1.9.9v.3 1.9l3.7 1.9v-1.9c.1-.2.1-.2.1-.3z" opacity=".11"/><path d="m530.5 288c0-1-.8-2.3-1.9-2.8-1-.5-1.9-.1-1.9.9v.3 1.9l3.7 1.9v-1.9c.1-.1.1-.2.1-.3z" fill="#999"/><path d="m530.5 288c0-1-.8-2.3-1.9-2.8-1-.5-1.9-.1-1.9.9v.3 1.9l3.7 1.9v-1.9c.1-.1.1-.2.1-.3z" opacity=".11"/><path d="m530 287.8c0-.8-.6-1.8-1.4-2.2-.3-.2-.7-.2-.9-.1l-3.7 1.9c-.3.1-.5.4-.5.9 0 .8.6 1.8 1.4 2.2.3.2.6.2.9.1l3.7-1.9c.3-.1.5-.4.5-.9z" fill="#656565"/><path d="m526.7 289.9c0-1-.8-2.3-1.9-2.8-1-.5-1.9-.1-1.9.9v.3 1.9l3.7 1.9v-1.9c.1-.2.1-.2.1-.3z" fill="#999"/><path d="m526.7 289.9c0-1-.8-2.3-1.9-2.8-1-.5-1.9-.1-1.9.9v.3 1.9l3.7 1.9v-1.9c.1-.2.1-.2.1-.3z" opacity=".11"/><path d="m500.5 323c0-1-.8-2.3-1.9-2.8-1-.5-1.9-.1-1.9.9v.3 1.9l3.7 1.9v-1.9c.1-.1.1-.2.1-.3z" fill="#999"/><path d="m500.5 323c0-1-.8-2.3-1.9-2.8-1-.5-1.9-.1-1.9.9v.3 1.9l3.7 1.9v-1.9c.1-.1.1-.2.1-.3z" opacity=".11"/><path d="m500 322.8c0-.8-.6-1.8-1.4-2.2-.3-.2-.7-.2-.9-.1l-3.7 1.9c-.3.1-.5.4-.5.9 0 .8.6 1.8 1.4 2.2.3.2.6.2.9.1l3.7-1.9c.3-.1.5-.4.5-.9z" fill="#656565"/><path d="m496.7 324.9c0-1-.8-2.3-1.9-2.8-1-.5-1.9-.1-1.9.9v.3 1.9l3.7 1.9v-1.9c.1-.2.1-.2.1-.3z" fill="#999"/><path d="m496.7 324.9c0-1-.8-2.3-1.9-2.8-1-.5-1.9-.1-1.9.9v.3 1.9l3.7 1.9v-1.9c.1-.2.1-.2.1-.3z" opacity=".11"/><path d="m536.5 305c0-1-.8-2.3-1.9-2.8-1-.5-1.9-.1-1.9.9v.3 1.9l3.7 1.9v-1.9c.1-.1.1-.2.1-.3z" fill="#999"/><path d="m536.5 305c0-1-.8-2.3-1.9-2.8-1-.5-1.9-.1-1.9.9v.3 1.9l3.7 1.9v-1.9c.1-.1.1-.2.1-.3z" opacity=".11"/><path d="m536 304.8c0-.8-.6-1.8-1.4-2.2-.3-.2-.7-.2-.9-.1l-3.7 1.9c-.3.1-.5.4-.5.9 0 .8.6 1.8 1.4 2.2.3.2.6.2.9.1l3.7-1.9c.3-.1.5-.4.5-.9z" fill="#656565"/><path d="m532.7 306.9c0-1-.8-2.3-1.9-2.8-1-.5-1.9-.1-1.9.9v.3 1.9l3.7 1.9v-1.9c.1-.2.1-.2.1-.3z" fill="#999"/><path d="m532.7 306.9c0-1-.8-2.3-1.9-2.8-1-.5-1.9-.1-1.9.9v.3 1.9l3.7 1.9v-1.9c.1-.2.1-.2.1-.3z" opacity=".11"/><path d="m520 313-6 3v2l4 2 6-3v-2z" fill="#999"/><path d="m518 320-4-2v-2l4 2z" opacity=".11"/><path d="m524 317-6 3v-2l6-3z" opacity=".29"/><path d="m512 277c-1.1 0-2 .4-2 1v34c0 .6.9 1 2 1s2-.4 2-1v-34c0-.6-.9-1-2-1z" fill="#f8ebcb"/><path d="m512 279c-1.1 0-2-.4-2-1v34c0 .6.9 1 2 1s2-.4 2-1v-34c0 .6-.9 1-2 1z" opacity=".2"/><path d="m512 274c-3.3 0-6 1.3-6 3v1c0 1.7 2.7 3 6 3s6-1.3 6-3v-1c0-1.7-2.7-3-6-3z" fill="#f8ebcb"/><path d="m512 270c3.3 0 6 1.3 6 3v-1c0-1.7-2.7-3-6-3s-6 1.3-6 3v1c0-1.7 2.7-3 6-3z" fill="#f8ebcb"/><path d="m512 270c3.3 0 6 1.3 6 3v-1c0-1.7-2.7-3-6-3s-6 1.3-6 3v1c0-1.7 2.7-3 6-3z" opacity=".1"/><path d="m512 261c-1.1 0-2 .4-2 1v15c0 .6.9 1 2 1s2-.4 2-1v-15c0-.6-.9-1-2-1z" fill="#f8ebcb"/><path d="m512 263c-1.1 0-2-.4-2-1v15c0 .6.9 1 2 1s2-.4 2-1v-15c0 .6-.9 1-2 1z" opacity=".2"/><path d="m512 275c-3.3 0-6-1.3-6-3v1 5l1 1v-4.3c.3.2.6.4 1 .6v4.8h1v-4.4c.9.3 1.9.4 3 .4s2.1-.1 3-.4v4.4h1v-4.8c.4-.2.7-.4 1-.6v4.3l1-1v-5-1c0 1.7-2.7 3-6 3z" fill="#f8ebcb"/><path d="m512 275c-3.3 0-6-1.3-6-3v1 4 1c0 1.7 2.7 3 6 3s6-1.3 6-3v-1-4-1c0 1.7-2.7 3-6 3zm5-.3v4c-.3.2-.6.4-1 .6v-4c.4-.2.7-.4 1-.6zm-9 .5v4c-.4-.2-.7-.4-1-.6v-4c.3.3.6.5 1 .6zm1 4.4v-4c.9.3 1.9.4 3 .4s2.1-.1 3-.4v4c-.9.3-1.9.4-3 .4s-2.1-.1-3-.4z" opacity=".2"/><path d="m504 306c-1.1 0-2 .4-2 1v6c0 .6.9 1 2 1s2-.4 2-1v-6c0-.6-.9-1-2-1z" fill="#999"/><path d="m504 308c-1.1 0-2-.4-2-1v6c0 .6.9 1 2 1s2-.4 2-1v-6c0 .6-.9 1-2 1z" opacity=".2"/></svg>