<svg enable-background="new 0 0 160 240" viewBox="0 0 160 240" xmlns="http://www.w3.org/2000/svg"><path d="m54.7 57.7s-11.4 20.6-14.2 22.8-9.5-6.8-9.5-6.8l20.5-20.3z" fill="#cc291f"/><path d="m54.7 57.7s-11.4 20.6-14.2 22.8-9.5-6.8-9.5-6.8l20.5-20.3z" opacity=".2"/><path d="m60.1 42.5-4.4-1.1 1-3.9-1.3-.3-1 3.9c-1.2-.2-2.5.6-2.8 1.8l-3.1 12.1c-.3 1.3.5 2.7 1.8 3l5.5 1.4c1.3.3 2.7-.5 3-1.8l3.1-12.2c.3-1.3-.5-2.6-1.8-2.9z" fill="#2d3134"/><path d="m62.1 44.8c-1.3-.2-2.6.8-2.7 2s-1.9 8.7-1 9.7c1 1 3.3-3.6 3.9-5.4.5-1.7 1-6.2-.2-6.3z" fill="#fbd7c7"/><path d="m67.5 232.9c15.9-10.7-.4-14.4-14.7-20.3-13.8-5.6-23.9-15-39.8-2.5-12.8 10.1 10.5 17.6 17.4 21 10.4 5.2 22.3 11.8 37.1 1.8z" opacity=".2"/><path d="m11.8 213.7s-2 4.2.5 5 5.3 0 9.6-2.2 12.1-4.2 13.9-7.4c1.7-3.1-2.8-6.1-9.6-4.2s-5.5 1.5-5.5 1.5z" fill="#2d3134"/><path d="m35.8 206.6c0 .4-.1.8-.4 1.2-1.8 3.2-9.6 5.2-13.9 7.4s-7.2 3-9.6 2.2c-.4-.1-.7-.4-.9-.6 0 .9.3 1.7 1.2 2.1 2.5.8 5.3 0 9.6-2.2s12.1-4.2 13.9-7.4c.6-1.1.6-2 .1-2.7z" opacity=".4"/><path d="m49.2 228.5s-3.2 7.1 1.4 8.1 8.6-3.3 10.9-4.7c2.4-1.5 8-5 9.5-6.9 1.1-1.3.8-6.6-5.8-5.8s-10.2 4.5-10.2 4.5z" fill="#2d3134"/><path d="m70.4 220.4c.5 1.2.3 2.6-.2 3.2-1.5 1.9-7.1 5.4-9.5 6.9s-6.3 5.7-10.9 4.7c-.6-.1-1.1-.4-1.4-.7.3 1 1 1.7 2.3 2 4.6 1 8.6-3.3 10.9-4.7 2.4-1.5 8-5 9.5-6.9.6-.8.8-3-.7-4.5z" opacity=".4"/><path d="m28.4 59.4s4.3 4.8 7.7 5.8c3.9 1.1 11.1.1 11.1.1s2.3-8.3 2.9-9.5 2.8-1.1 3.2-3.8 1.8-15.7 0-17.9-11.4-7.7-16.9-1.2-1.9 17.4-2.4 20.1c-.4 2.6-5.6 6.4-5.6 6.4z" fill="#fbd7c7"/><path d="m33.6 54.6s6.3 2.3 10.1 1.6c3.7-.7 6-4.4 6-4.4s.1-5 1.2-6.8 1.6-.8 1.6-.8 2.3-4 2.2-6.9c-.2-3.8-3.9-9.7-13.8-7.2-7.8 2-8.9 10.2-8.8 13.7s1.5 10.8 1.5 10.8z" fill="#762c07"/><path d="m62.7 160.7c1.1-10.3.5-23-.2-31.4-.2-2.7-.3-3.5-.7-8.8 0-.4-1.6-4.2-1.6-4.6-.1-1.7-.3-3.3-.4-4.9 0-.3.7-2.3.7-4.2-.2-8.6-.9-13.3-.7-16.7.4-6.2 1.7-15.3-2.2-19s-10.2-6-10.2-6-6.3.5-12.1-1.7-5.2-5.5-5.2-5.5-11.3-2.2-13.8 3.2c-2.6 5.4 2.3 23.7 3.2 30.5.7 5.1.9 7.7 1.4 14.1.1 1 1.3 2.3 1.3 2.5 0 1.3-.1 2.9-.3 4.5-.1.8-2 5.3-2.1 6.1-.9 7.2-2.3 11.7-2.3 15.9s-.9 22.5-1.1 26c-.3 4.1-3.3 14-4.9 21.4-2.3 10.6-2.4 32.3-.5 34.3.7.8 2.7.7 5.5-.1 5-1.3 6.9-6 7.8-7.8 2.7-4.9 2.6-12.3 3.8-18.8 1.2-6.1 4.7-21 8.8-31.4.4-1.1.9-2.5 1.4-4 2.7 9.3 5.4 18.2 4.7 26.9-.8 9.6-.3 23.2.1 32.9.4 11.4.8 19.1 5.4 20.4 4.3 1.2 10-3.3 11.2-6.2 1.2-3 1.8-4.4 1.2-7.5-.3-1.6-.5-16.4-.1-25.4.3-9.1.8-24.2 1.9-34.7z" fill="#cc291f"/><path d="m53.8 42.6c2.9-1 6.7-5.5 5.7-8.6-1-3-5.5-4.6-8.6-4.6-3 .2 2.9 13.2 2.9 13.2z" fill="#39c"/><path d="m53.8 42.6c2.9-1 6.7-5.5 5.7-8.6-1-3-5.5-4.6-8.6-4.6-3 .2 2.9 13.2 2.9 13.2z" opacity=".2"/><path d="m30.1 45.2c2.1 2.4 11.7 4.6 18.9.8 7.1-3.8 9.4-9.1 7.4-13.8-2.7-6.4-15.2-9.6-22-3.7s-5.8 15.1-4.3 16.7z" fill="#39c"/><path d="m51.1 27.6c-4.9-2.1-11.4-2.3-15.7 1.4-3 2.6-4.6 6-5.2 8.9.4.2.8.3 1.2.4.6-2.9 2.3-6.4 5.2-8.9 3.9-3.3 9.7-3.4 14.5-1.8z" opacity=".2"/><path d="m37.4 30c-2.7 2.6-4 5.9-4.5 8.9.4.1.7.1 1.1.2.5-2.9 1.8-6.1 4.5-8.6 3.5-3.4 8.8-3.8 13.1-2.2-4.4-2.2-10.3-2.1-14.2 1.7z" opacity=".2"/><path d="m93.2 24.9s-.2-8.4.9-11.3 4-6.8 5-8.3 3.4-4.1 4.3-4.1 1.3.4 1.3.4.9-1 1.8-.3-2.1 3.9-2.1 3.9l-1.9 2.7s2.1-1.9 3.2-2.6 2.2-1.1 2.6-.4-1.4 2.4-2 2.9-3.2 4.6-3.2 4.6 3.5-3.4 4.2-3.6 1.1 1 .3 2-3 3.8-3.3 5.4-1.8 7.5-2.7 8.8-2.8 2.4-2.8 2.4z" fill="#fbd7c7"/><path d="m93.1 24.6 6.6 3s-.7 6.9-4.9 14.8-6.2 11.1-8.9 15.1c-2.6 3.7-9.5 14.9-17.8 23.8-4.1 4.4-5 5.2-6.9 8.1-2.1 3.2-1.2 6-4.1 8.1-4 2.9-11.8-17.7-10.6-24.3 1.2-6.4 6.2-4.2 10.8-7.7 4.7-3.6 16.2-15.4 17.9-18s6.9-10 10.4-14.3c3.4-4.4 7.5-8.6 7.5-8.6z" fill="#cc291f"/><g fill="#e5e5e5"><path d="m58.4 64.4s4.6 3.1 6.3 6.2 2.6 11.5 2.6 11.5l4.9-5.1s.2-4.6-1.9-9.4c-1.5-3.5-7.6-7.3-7.6-7.3z"/><path d="m9.6 198.1s2.6.4 6.4-.9 12-7 12-7l-.6 5.3s-6.8 6.4-10.9 7.6-6.9 1-6.9 1z"/><path d="m43.1 218.9s3.2 1.1 6.3.3c8.4-2.4 11.2-8.3 11.2-8.3l-.1-6.3s-7.2 7.4-10.9 7.9c-4.5.7-6.9-.1-6.9-.1z"/></g><path d="m46.5 117.7c5.2-.1 12.4-1.1 13.7-1.6 0-.7-.4-5-.4-5.8-1.4.5-8.3 1.4-13.4 1.5-8.2.2-20.1-2.6-24.1-3.9-.1.8-.2 4.5-.4 5.1 3.5 1.3 16.1 4.9 24.6 4.7z" fill="#2d3134"/></svg>