<svg enable-background="new 0 0 256 144" viewBox="0 0 256 144" xmlns="http://www.w3.org/2000/svg"><path d="m120 124v16l8 4 8-4v-16l-8-4z" fill="#656565"/><path d="m128 144-8-4v-16l8 4z" opacity=".11"/><path d="m128 144 8-4v-16l-8 4z" opacity=".29"/><path d="m152 108v16l8 4 8-4v-16l-8-4z" fill="#656565"/><path d="m160 128-8-4v-16l8 4z" opacity=".11"/><path d="m160 128 8-4v-16l-8 4z" opacity=".29"/><path d="m184 92v16l8 4 8-4v-16l-8-4z" fill="#656565"/><path d="m192 112-8-4v-16l8 4z" opacity=".11"/><path d="m192 112 8-4v-16l-8 4z" opacity=".29"/><path d="m216 76v16l8 4 8-4v-16l-8-4z" fill="#656565"/><path d="m224 96-8-4v-16l8 4z" opacity=".11"/><path d="m224 96 8-4v-16l-8 4z" opacity=".29"/><path d="m88 108v16l8 4 8-4v-16l-8-4z" fill="#656565"/><path d="m96 128-8-4v-16l8 4z" opacity=".11"/><path d="m96 128 8-4v-16l-8 4z" opacity=".29"/><path d="m56 92v16l8 4 8-4v-16l-8-4z" fill="#656565"/><path d="m64 112-8-4v-16l8 4z" opacity=".11"/><path d="m64 112 8-4v-16l-8 4z" opacity=".29"/><path d="m24 76v16l8 4 8-4v-16l-8-4z" fill="#656565"/><path d="m32 96-8-4v-16l8 4z" opacity=".11"/><path d="m32 96 8-4v-16l-8 4z" opacity=".29"/><path d="m0 64v8l128 64 128-64v-8l-128-64z" fill="#999"/><path d="m128 136 128-64v-8l-128 64z" opacity=".29"/><path d="m128 136-128-64v-8l128 64z" opacity=".11"/></svg>