<?xml version="1.0" encoding="UTF-8" standalone="no"?>
<!-- Created with Inkscape (http://www.inkscape.org/) -->

<svg
   xmlns:dc="http://purl.org/dc/elements/1.1/"
   xmlns:cc="http://creativecommons.org/ns#"
   xmlns:rdf="http://www.w3.org/1999/02/22-rdf-syntax-ns#"
   xmlns:svg="http://www.w3.org/2000/svg"
   xmlns="http://www.w3.org/2000/svg"
   xmlns:sodipodi="http://sodipodi.sourceforge.net/DTD/sodipodi-0.dtd"
   xmlns:inkscape="http://www.inkscape.org/namespaces/inkscape"
   width="10.347943mm"
   height="24.328075mm"
   viewBox="0 0 10.347943 24.328076"
   version="1.1"
   id="svg581"
   inkscape:version="0.92.2 (5c3e80d, 2017-08-06)"
   sodipodi:docname="engineers-17.svg">
  <defs
     id="defs575" />
  <sodipodi:namedview
     id="base"
     pagecolor="#ffffff"
     bordercolor="#666666"
     borderopacity="1.0"
     inkscape:pageopacity="0.0"
     inkscape:pageshadow="2"
     inkscape:zoom="0.7"
     inkscape:cx="-435.50083"
     inkscape:cy="-68.780801"
     inkscape:document-units="mm"
     inkscape:current-layer="svg581"
     showgrid="false"
     inkscape:window-width="1360"
     inkscape:window-height="706"
     inkscape:window-x="-8"
     inkscape:window-y="-8"
     inkscape:window-maximized="1"
     fit-margin-top="0"
     fit-margin-left="0"
     fit-margin-right="0"
     fit-margin-bottom="0" />
  <metadata
     id="metadata578">
    <rdf:RDF>
      <cc:Work
         rdf:about="">
        <dc:format>image/svg+xml</dc:format>
        <dc:type
           rdf:resource="http://purl.org/dc/dcmitype/StillImage" />
        <dc:title></dc:title>
      </cc:Work>
    </rdf:RDF>
  </metadata>
  <g
     inkscape:label="Layer 1"
     inkscape:groupmode="layer"
     id="layer1"
     transform="translate(-221.49852,164.74498)" />
  <g
     id="i400"
     class="top-level-node"
     transform="matrix(0.11367874,0,0,0.11367874,-1.0166298,-2.0462173)">
    <g
       id="g1137">
      <g
         id="g1135">
        <path
           d="m 72.3,96.9 c 2,5.8 4.6,14.5 5.4,16.5 0.8,2 2.2,4.5 1.6,7.5 -0.6,3 -1.7,5.1 -3.8,5.9 -2.1,0.8 -4.3,0.3 -4.3,0.3 z"
           id="path1091"
           inkscape:connector-curvature="0"
           style="fill:#fbd7c7" />
        <path
           d="m 70.8,116.6 7.1,-3.1 -6.5,-21.2 -5.1,6.8 z"
           id="path1093"
           inkscape:connector-curvature="0"
           style="fill:#99cc33" />
        <path
           d="m 78.8,53.1 c -0.6,-2.2 -2.4,-5 -7,-6.1 -2.3,-1.2 -5.4,-2.5 -7.6,-2.4 -4,0.2 -12.8,1.9 -15.4,3.2 0,0 -6.9,4 -9.6,8 -2.8,4.1 -5.2,10.6 -5.2,18.8 0,4.4 1,16.6 0.8,26.6 -0.3,8.7 -1.9,15.6 -2,17.6 -0.3,4.3 8.9,5.9 14.4,7.5 5.5,1.6 21.9,-5.2 21.8,-6.8 -0.5,-7.9 2.3,-19.6 2.3,-23 0,-3.4 3.6,-15.7 4.8,-18.8 0.6,-1.5 2.2,-5.2 3,-9.3 1,-4.7 0.5,-12.2 -0.3,-15.3 z"
           id="path1095"
           inkscape:connector-curvature="0"
           style="fill:#99cc33" />
        <path
           d="m 12.5,189.8 c 16.3,-9.1 31.3,2.4 48.4,12.8 17.1,10.5 49.1,20.4 36,27.4 -13.1,7 -37.9,-6 -51.4,-13.1 -13.4,-7.1 -47.6,-19 -33,-27.1 z"
           id="path1097"
           inkscape:connector-curvature="0"
           style="opacity:0.2" />
        <path
           d="m 64.7,214.6 c 0.1,2.8 -1.1,5.3 3.5,6.6 3.6,1 7,1.9 11.9,5.4 2,1.4 4.9,3.1 8,3.5 1.5,0.2 3.7,-0.4 4.8,-0.9 3.1,-1.2 2.3,-3.7 2.2,-4.7 -0.1,-1.7 -1.8,-2.6 -5.1,-4 -3.3,-1.5 -5.8,-2.6 -7.8,-5.2 -2,-2.7 -6.1,-5.3 -6.1,-5.3 z"
           id="path1099"
           inkscape:connector-curvature="0"
           style="fill:#262626" />
        <path
           d="m 65.3,216.1 c 0,0 7.9,2.2 10.3,3.7 2.8,1.8 9.9,7.5 13.5,7.6 3.1,0.1 6,-1.4 5.6,-3.2 -0.4,-1.8 -2.8,-2.5 -5.9,-4 -3,-1.5 -5.8,-3.7 -7.1,-6.1 -1.3,-2.4 -16.4,2 -16.4,2 z"
           id="path1101"
           inkscape:connector-curvature="0"
           style="fill:#2d3134" />
        <path
           d="m 70.4,99.7 c 0.2,0.5 -0.7,11.5 1.1,17.4 1.5,5.1 5.3,15.5 7.3,21.8 2.2,7.2 6.1,24 6.4,26.6 0.3,2.2 -0.9,7.8 -1.6,11.3 -0.7,3.5 -2.5,22.5 -2.8,26.3 -0.2,3 -0.8,4.6 0.7,6.3 1.4,1.7 2.6,4.6 2,5.9 -0.7,1.3 -6.2,3.4 -10.5,3.7 -4.3,0.3 -8.8,-0.1 -9.3,-1.2 -0.5,-1 -0.8,-4.7 -0.4,-8.8 0.4,-4.1 3,-37.2 2.1,-40.9 -0.9,-3.7 -6.9,-22.7 -8.7,-27.1 -1.2,-2.9 -2.5,-5.4 -2.5,-5.4 l 2.9,-17.4 z"
           id="path1103"
           inkscape:connector-curvature="0"
           style="fill:#06547a" />
        <path
           d="m 70.4,99.7 c 0.2,0.5 -0.7,11.5 1.1,17.4 1.5,5.1 5.3,15.5 7.3,21.8 2.2,7.2 6.1,24 6.4,26.6 0.3,2.2 -0.9,7.8 -1.6,11.3 -0.7,3.5 -2.5,22.5 -2.8,26.3 -0.2,3 -0.8,4.6 0.7,6.3 1.4,1.7 2.6,4.6 2,5.9 -0.7,1.3 -6.2,3.4 -10.5,3.7 -4.3,0.3 -8.8,-0.1 -9.3,-1.2 -0.5,-1 -0.8,-4.7 -0.4,-8.8 0.4,-4.1 3,-37.2 2.1,-40.9 -0.9,-3.7 -6.9,-22.7 -8.7,-27.1 -1.2,-2.9 -2.5,-5.4 -2.5,-5.4 l 2.9,-17.4 z"
           id="path1105"
           inkscape:connector-curvature="0"
           style="opacity:0.2" />
        <path
           d="m 16.3,193 c 0,0 6.1,10.2 8.2,11.8 2.1,1.6 11.1,4.6 14.9,3.7 3.8,-0.9 3.7,-0.8 3.9,-2.7 0.2,-2 0.6,-2.2 -2.6,-3.7 -3.1,-1.6 -6.9,-5.3 -7.5,-7.4 -0.6,-2.1 -7.2,-6.4 -10.2,-6.3 -3,0.1 -6.7,4.6 -6.7,4.6 z"
           id="path1107"
           inkscape:connector-curvature="0"
           style="fill:#262626" />
        <path
           d="m 19.2,193.2 c 2.9,2.3 5.6,8.2 7.5,9.1 1.9,0.9 8.9,3.4 13,2.7 3.6,-0.6 3.9,-0.8 3,-1.7 -0.9,-1 -5,-2.3 -6.5,-4.6 -1.5,-2.3 -5.3,-7.9 -5.3,-7.9 z"
           id="path1109"
           inkscape:connector-curvature="0"
           style="fill:#2d3134" />
        <path
           d="m 59.3,115.3 c 0,0 -6.8,31.9 -8.1,36.1 -3.2,10.9 -4.8,14.5 -7.3,17.7 -2.2,2.7 -8.2,13.8 -9.5,15.7 -1.2,1.6 -2.1,3.4 -1.4,5.1 0.7,1.7 1.3,5.2 1.3,5.2 0,0 -6,2.7 -11.8,1.7 -5.8,-1 -8.2,-4.5 -8.2,-6.9 0,-2.4 2.1,-5.8 2.1,-5.8 0,0 1.3,-8.9 6.6,-16.9 1.5,-2.3 4.6,-7 5.5,-9.8 1.6,-5.1 1.5,-18.3 1.8,-24.7 0.2,-6.1 -0.5,-14 2.4,-23.1 1,-3.1 2.7,-2.8 6.6,-5.1 3.9,-2.3 14.4,-33.1 14.4,-33.1 l 22.7,-2.8 -5.7,33.2 z"
           id="path1111"
           inkscape:connector-curvature="0"
           style="fill:#06547a" />
        <path
           d="m 53.8,125.1 c -1.4,-3.3 -5,-16.9 -6.4,-21.2 -1.4,-4.3 -1.8,-8 -1.8,-9.2 0.1,-1.1 4.5,-18.4 4.5,-22.3 0,-3.9 0.9,-13.5 -8.3,-14.8 -4.1,-0.5 -3,7.4 -3.8,10.5 -0.4,1.7 -2.4,8.3 -4.1,14.1 -0.2,8.8 6.6,40.3 8.1,40.6 l 8,3.6 c 1.2,-0.1 2.5,-0.3 3.9,-0.6 0,-0.2 0,-0.5 -0.1,-0.7 z"
           id="path1113"
           inkscape:connector-curvature="0"
           style="opacity:0.2" />
        <path
           d="m 43.2,130 c 0.1,2.2 -0.1,2.4 1.3,3.8 1.4,1.4 2.9,1.7 4.4,2.2 1.6,0.5 2.7,-0.6 2.7,-0.6 0,0 1,0.7 2,0.6 1,-0.1 1.3,-0.9 1.3,-0.9 0,0 2.1,1.4 2.9,0.8 0.8,-0.6 -1.3,-1.7 -2.2,-2.7 -0.9,-1 -1.5,-2.7 -1.5,-2.7 0,0 0.8,-3 -0.4,-5.3 -1.1,-2.3 -1.5,-2.9 -3.3,-4.2 -1.5,-1 -1.8,-0.5 -2.6,-1.9 l -6.3,3.5 c 0.1,0.3 0.2,0.6 0.3,0.8 0.8,2.2 1.3,4.5 1.4,6.6 z"
           id="path1115"
           inkscape:connector-curvature="0"
           style="fill:#fbd7c7" />
        <path
           d="m 48.3,116.3 c -1.4,-3.3 -2.5,-10 -3.9,-14.2 -1.5,-4.3 -2.9,-7.2 -2.8,-8.3 0.1,-1.1 5.3,-11.9 7.6,-22.6 0.8,-3.8 2.5,-15.1 -6.8,-16.3 -4.1,-0.5 -7.4,5.9 -8.2,8.9 -0.8,3.1 -5.3,27.2 -5.4,28.3 -0.2,1.7 0.1,4.4 1.2,7.6 1.3,3.7 7.3,15.5 9.8,21.2 0.3,0.8 1.7,1.7 1.8,2.2 l 6.6,-3.7 c -0.2,-0.3 0.4,-2.5 0.1,-3.1 z"
           id="path1117"
           inkscape:connector-curvature="0"
           style="fill:#99cc33" />
        <path
           d="m 45.1,49.4 c 0,0 4.3,3.7 6.4,11.4 1.7,5.9 1.7,10.6 2.2,10.7 0.5,0.1 4.3,0 4.3,0 0,0 -0.1,-7.5 -3.3,-15.6 -1.9,-4.8 -5.8,-8.7 -5.8,-8.7 z"
           id="path1119"
           inkscape:connector-curvature="0"
           style="fill:#06547a" />
        <path
           d="m 74.2,48.8 c 0,0 1,5 1.3,12 0.3,5.3 0.3,8 0.3,8 L 72,69.3 c 0,0 0.3,-2.3 -0.1,-9.9 C 71.4,50.7 71,47.2 71,47.2 Z"
           id="path1121"
           inkscape:connector-curvature="0"
           style="fill:#06547a" />
        <path
           d="m 51.4,47.3 c 0,0 2.7,-1.1 2.9,-3.1 0.2,-2 -5.9,-9.7 -0.8,-16.8 5.1,-7.1 17.8,-5.8 20,1.3 2.2,7.1 2.4,20.7 0.7,22.1 -2.1,1.8 -5.9,1.1 -5.9,1.1 0,0 -1.3,3.3 -1,5.1 0.4,2.7 -2,2.9 -3.3,2.8 C 62.1,59.6 53.2,56.3 51.4,47.3 Z"
           id="path1123"
           inkscape:connector-curvature="0"
           style="fill:#fbd7c7" />
        <path
           d="m 53.5,42.4 1.6,1 c 0,0 -4.2,-5.6 -1.4,-6.8 2.8,-1.2 4.1,2.3 4.1,2.3 0,0 2.1,-3.6 5.3,-3.9 3.2,-0.3 12,-2.3 11.7,-5.1 -0.1,-1.1 -3.6,-10.5 -14,-8.7 -10.4,1.8 -10.6,10.4 -10,13.9 0.5,3.5 2.7,7.3 2.7,7.3 z"
           id="path1125"
           inkscape:connector-curvature="0"
           style="fill:#762c07" />
        <path
           d="m 77.5,33.2 c 0,0 2.8,1.2 2.8,2.1 0,0.9 -8.3,4.5 -14,3.9 C 60.6,38.6 50.2,35.7 49.6,34.2 49,32.8 50.3,18 62.2,18 76.3,18 77.5,33.2 77.5,33.2 Z"
           id="path1127"
           inkscape:connector-curvature="0"
           style="fill:#ffcc00" />
        <path
           d="m 80.3,35.3 c 0,0.9 -8.3,4.5 -14,3.9 -4.6,-0.5 -12.1,-2.4 -15.2,-4 3.1,1.1 7.3,2.2 10.4,2.1 5.4,-0.2 14.2,-2.8 16.1,-4.1 -0.1,0 2.7,1.3 2.7,2.1 z"
           id="path1129"
           inkscape:connector-curvature="0"
           style="opacity:0.2" />
        <path
           d="m 76,31.5 -1.2,0.4 C 74.2,28.3 71.5,18.6 61,18.6 c -0.6,0 -1.2,0.1 -1.8,0.1 0.9,-0.3 1.9,-0.4 3,-0.4 10.4,0 13.1,9.5 13.8,13.2 z"
           id="path1131"
           inkscape:connector-curvature="0"
           style="opacity:0.2" />
        <path
           d="m 71.6,33 c -0.3,-2.6 -2,-13.8 -11.2,-13.8 -0.5,0 -1,0.1 -1.4,0.1 0.7,-0.3 1.5,-0.4 2.4,-0.4 9.1,0 11.2,10.9 11.5,13.6 z"
           id="path1133"
           inkscape:connector-curvature="0"
           style="opacity:0.2" />
      </g>
    </g>
  </g>
</svg>
