<?xml version="1.0" encoding="UTF-8" standalone="no"?>
<!-- Created with Inkscape (http://www.inkscape.org/) -->

<svg
   xmlns:dc="http://purl.org/dc/elements/1.1/"
   xmlns:cc="http://creativecommons.org/ns#"
   xmlns:rdf="http://www.w3.org/1999/02/22-rdf-syntax-ns#"
   xmlns:svg="http://www.w3.org/2000/svg"
   xmlns="http://www.w3.org/2000/svg"
   xmlns:sodipodi="http://sodipodi.sourceforge.net/DTD/sodipodi-0.dtd"
   xmlns:inkscape="http://www.inkscape.org/namespaces/inkscape"
   width="13.536157mm"
   height="24.17737mm"
   viewBox="0 0 13.536156 24.17737"
   version="1.1"
   id="svg581"
   inkscape:version="0.92.2 (5c3e80d, 2017-08-06)"
   sodipodi:docname="engineers-13.svg">
  <defs
     id="defs575" />
  <sodipodi:namedview
     id="base"
     pagecolor="#ffffff"
     bordercolor="#666666"
     borderopacity="1.0"
     inkscape:pageopacity="0.0"
     inkscape:pageshadow="2"
     inkscape:zoom="0.7"
     inkscape:cx="-350.12591"
     inkscape:cy="-138.39564"
     inkscape:document-units="mm"
     inkscape:current-layer="svg581"
     showgrid="false"
     inkscape:window-width="1360"
     inkscape:window-height="706"
     inkscape:window-x="-8"
     inkscape:window-y="-8"
     inkscape:window-maximized="1"
     fit-margin-top="0"
     fit-margin-left="0"
     fit-margin-right="0"
     fit-margin-bottom="0" />
  <metadata
     id="metadata578">
    <rdf:RDF>
      <cc:Work
         rdf:about="">
        <dc:format>image/svg+xml</dc:format>
        <dc:type
           rdf:resource="http://purl.org/dc/dcmitype/StillImage" />
        <dc:title></dc:title>
      </cc:Work>
    </rdf:RDF>
  </metadata>
  <g
     inkscape:label="Layer 1"
     inkscape:groupmode="layer"
     id="layer1"
     transform="translate(-142.61033,183.0132)" />
  <g
     id="i393"
     class="top-level-node"
     transform="matrix(0.11367874,0,0,0.11367874,-3.9771299,-1.9665867)">
    <g
       id="g768">
      <g
         id="g766">
        <path
           d="m 140.7,113.6 3.6,-3.5 c 0,0 1.9,4.8 2.2,7.2 0.3,2.3 -0.3,14.4 -2.1,14.4 -1.8,0 -1,-3 -1,-4 0,-1 0.7,-4.1 0.7,-4.1 0,0 -0.5,1.9 -1.4,1.7 -0.9,-0.2 -1.5,-1.9 -0.9,-3.5 0.6,-1.6 -0.9,-4.3 -0.9,-4.3 z"
           id="path722"
           inkscape:connector-curvature="0"
           style="fill:#fbd7c7" />
        <path
           d="m 139.7,114 c 0,0 4.9,-2.5 5,-3.6 0.1,-1.1 -8.8,-23.4 -8.8,-23.4 z"
           id="path724"
           inkscape:connector-curvature="0"
           style="fill:#99cc33" />
        <path
           d="m 138.7,105.8 c -2.5,-17.6 -0.6,-27.2 -0.3,-31.7 0.5,-8 3,-19.4 -1.6,-22.3 -2.7,-1.7 -7.2,-4.3 -9.9,-5.1 l -17,-0.4 c 0,0 -9.5,4.4 -14.2,7.3 -7.2,4.3 2.7,15.7 5.1,30 3.2,18.6 1.6,32.8 2,33.7 0.8,1.6 30.3,3.4 37.1,-1.6 0.9,-0.6 -0.6,-6 -1.2,-9.9 z"
           id="path726"
           inkscape:connector-curvature="0"
           style="fill:#99cc33" />
        <path
           d="m 91.8,223.9 c -12.3,-8.2 0.2,-17 17.1,-21.3 7.4,-1.9 20.2,-11.6 39.8,-1.1 15.8,8.5 -7.5,12.3 -16.4,16.8 -10.6,5.4 -19,19.8 -40.5,5.6 z"
           id="path728"
           inkscape:connector-curvature="0"
           style="opacity:0.2" />
        <path
           d="m 126.2,192.4 10.4,1.2 c 0,0 0.2,1.8 2.1,3.8 1.9,2 10.1,6.4 11.7,7.6 2.8,2.1 0.9,5 -1.5,5.3 -2.6,0.4 -6.1,-0.4 -10.5,-2 -3.4,-1.2 -7.4,-2.3 -11.3,-3.6 -3.3,-1.1 -2.5,-5.9 -2,-8 0.6,-2 1.1,-4.3 1.1,-4.3 z"
           id="path730"
           inkscape:connector-curvature="0"
           style="fill:#2d3134" />
        <path
           d="m 148.9,208.8 c -2.7,0.4 -6.5,-0.5 -11.2,-2.2 -3.7,-1.3 -7.9,-2.5 -12,-3.9 -0.3,-0.1 -0.5,-0.2 -0.7,-0.3 0.3,1 1,1.9 2.2,2.3 3.8,1.3 7.8,2.4 11.3,3.6 4.4,1.6 7.9,2.4 10.5,2 1.8,-0.3 3.2,-1.9 2.8,-3.5 -0.6,1 -1.7,1.8 -2.9,2 z"
           id="path732"
           inkscape:connector-curvature="0"
           style="opacity:0.4" />
        <path
           d="m 136.4,93.5 c 0,0 6.1,23.2 5.7,34.4 -0.4,11.2 -2.4,23.6 -2.9,33 -0.5,9.4 -0.4,30.7 0.1,34.9 0.6,4.8 -1.8,5.1 -4.8,5.2 -3.1,0.1 -9.1,-0.9 -10.1,-1.9 -1,-1 -0.9,-8.7 -0.9,-14.3 0,-5.6 -0.5,-14 -0.1,-21.9 0.3,-6.8 -2.2,-16.2 -3.6,-21.4 -1.4,-5.2 -7.4,-22.6 -7.8,-27.4 -0.4,-4.8 0,-15.2 0,-15.2 z"
           id="path734"
           inkscape:connector-curvature="0"
           style="fill:#06547a" />
        <path
           d="m 136.4,93.5 c 0,0 6.1,23.2 5.7,34.4 -0.4,11.2 -2.4,23.6 -2.9,33 -0.5,9.4 -0.4,30.7 0.1,34.9 0.6,4.8 -1.8,5.1 -4.8,5.2 -3.1,0.1 -9.1,-0.9 -10.1,-1.9 -1,-1 -0.9,-8.7 -0.9,-14.3 0,-5.6 -0.5,-14 -0.1,-21.9 0.3,-6.8 -2.2,-16.2 -3.6,-21.4 -1.4,-5.2 -7.4,-22.6 -7.8,-27.4 -0.4,-4.8 0,-15.2 0,-15.2 z"
           id="path736"
           inkscape:connector-curvature="0"
           style="opacity:0.2" />
        <path
           d="m 90.1,208.2 c 0.2,0.1 10.6,2.2 10.6,2.2 0,0 2.7,6 5.3,8.1 2.1,1.8 8,5.7 7.7,7.9 -0.3,2.2 -6.3,4 -11.9,1.1 -2.6,-1.3 -12.9,-6.6 -13.4,-10.1 -0.6,-3.9 1.7,-9.2 1.7,-9.2 z"
           id="path738"
           inkscape:connector-curvature="0"
           style="fill:#2d3134" />
        <path
           d="m 101.8,225.8 c -2.6,-1.3 -12.9,-6.6 -13.4,-10.1 0,-0.2 0,-0.3 -0.1,-0.5 -0.1,0.8 -0.1,1.6 0.1,2.3 0.5,3.5 10.8,8.8 13.4,10.1 5.6,2.9 11.6,1.1 11.9,-1.1 0,-0.3 -0.1,-0.7 -0.3,-1.2 -1.2,1.9 -6.6,3.1 -11.6,0.5 z"
           id="path740"
           inkscape:connector-curvature="0"
           style="opacity:0.4" />
        <g
           id="g748"
           style="fill:#06547a">
          <path
             d="m 134.5,67.7 c 0.2,1.6 0.3,12.7 4,34.3 -0.1,1 -9.9,6.5 -10.1,7.8 -1.2,8 -6.3,33.3 -8.1,34.4 -3.7,12.1 -6.5,19.8 -8.3,26.8 -1.8,7 -5.9,23.7 -7,32 -0.4,3.2 -1,12 -1.7,12.9 -3.3,4.1 -11.3,2 -12.9,0.6 -1.7,-1.6 -2.6,-2.4 -2.2,-5.5 0.4,-3.1 1.7,-21.3 2.7,-27.8 1.7,-10.7 5,-15 6.1,-20.1 1.1,-5.1 -1.1,-24.1 2.3,-42 3.4,-17.9 8.1,-51.4 8.1,-51.4 z"
             id="path742"
             inkscape:connector-curvature="0" />
          <path
             d="m 101,50.4 c 0,0 4.3,3.7 6.4,11.4 1.7,5.9 1.7,10.6 2.2,10.7 0.5,0.1 4.3,0 4.3,0 0,0 -0.1,-7.5 -3.3,-15.6 -1.9,-4.8 -5.8,-8.7 -5.8,-8.7 z"
             id="path744"
             inkscape:connector-curvature="0" />
          <path
             d="m 132.3,48.9 c 0,0 1,5 1.3,12 0.3,5.3 0.3,8 0.3,8 l -3.8,0.6 c 0,0 0.3,-2.3 -0.1,-9.9 -0.5,-8.7 -0.9,-12.2 -0.9,-12.2 z"
             id="path746"
             inkscape:connector-curvature="0" />
        </g>
        <path
           d="m 110.1,46.2 c 0,0 2.6,-1.1 2.7,-2.9 0.2,-1.9 -5.6,-9.2 -0.8,-16 4.9,-6.8 16.9,-5.5 19,1.2 2.1,6.8 2.3,19.6 0.7,21 -2,1.7 -5.6,1 -5.6,1 0,0 -1.2,3.1 -0.9,4.9 0.4,2.5 -1.9,2.7 -3.2,2.7 -1.7,-0.1 -9.4,-4.9 -11.9,-11.9 z"
           id="path750"
           inkscape:connector-curvature="0"
           style="fill:#fbd7c7" />
        <path
           d="m 112.1,41.6 1.5,0.9 c 0,0 -3.9,-5.4 -1.3,-6.5 2.6,-1.1 3.9,2.2 3.9,2.2 0,0 1.9,-3.4 5,-3.7 3.1,-0.3 11.4,-2.2 11.1,-4.8 -0.1,-1 -3.4,-10 -13.2,-8.3 -9.8,1.7 -10.2,9.9 -9.6,13.2 0.6,3.3 2.6,7 2.6,7 z"
           id="path752"
           inkscape:connector-curvature="0"
           style="fill:#762c07" />
        <path
           d="m 135.8,32.5 c 0,0 2.8,1.2 2.8,2.1 0,0.9 -8.3,4.5 -14,3.9 -5.7,-0.6 -16.1,-3.5 -16.7,-5 -0.6,-1.5 0.7,-16.2 12.7,-16.2 14,-0.1 15.2,15.2 15.2,15.2 z"
           id="path754"
           inkscape:connector-curvature="0"
           style="fill:#ffcc00" />
        <path
           d="m 138.6,34.5 c 0,0.9 -8.3,4.5 -14,3.9 -4.6,-0.5 -12.1,-2.4 -15.2,-4 3.1,1.1 7.3,2.2 10.4,2.1 5.4,-0.2 14.2,-2.8 16.1,-4.1 -0.1,0.1 2.7,1.3 2.7,2.1 z"
           id="path756"
           inkscape:connector-curvature="0"
           style="opacity:0.2" />
        <path
           d="m 134.3,30.7 -1.2,0.4 c -0.6,-3.6 -3.3,-13.3 -13.8,-13.3 -0.6,0 -1.2,0.1 -1.8,0.1 0.9,-0.3 1.9,-0.4 3,-0.4 10.4,0 13.1,9.5 13.8,13.2 z"
           id="path758"
           inkscape:connector-curvature="0"
           style="opacity:0.2" />
        <path
           d="m 129.9,32.2 c -0.3,-2.6 -2,-13.8 -11.2,-13.8 -0.5,0 -1,0.1 -1.4,0.1 0.7,-0.3 1.5,-0.4 2.4,-0.4 9.1,0 11.2,10.9 11.5,13.6 z"
           id="path760"
           inkscape:connector-curvature="0"
           style="opacity:0.2" />
        <path
           d="m 51.7,80.3 c 0,0 -0.9,1.2 -2.2,1.6 -1.2,0.4 -6.9,2.7 -8.6,4.1 -1.7,1.4 -6.2,7.4 -5.9,8.9 0.3,1.5 3.6,1.3 5.1,0.8 1.4,-0.5 3.1,-2 4.3,-3.4 1.3,-1.4 6.2,-4.6 7,-4.3 0.9,0.3 -3.7,3.2 -4.5,4.1 -0.8,0.9 0.7,1.4 2.3,0.9 2,-0.6 5.1,-3.2 5.7,-4.3 0.6,-1 1.7,-3.8 1.7,-3.8 l 0.7,-0.3 z"
           id="path762"
           inkscape:connector-curvature="0"
           style="fill:#fbd7c7" />
        <path
           d="m 51.1,80.5 c 0,0.5 5.1,5 6.3,4.8 1.2,-0.2 7.4,-3.2 10.6,-4.6 2.2,-0.9 7.7,-4.2 11.1,-5.4 3.4,-1.2 17,-4.9 20.8,-6 5.7,-1.6 6.8,-8.5 4.4,-12.2 C 101.8,53.4 98.7,51.6 93.6,54.4 88.5,57.2 72.2,64.7 69,66.6 64.9,69.2 51.3,78.3 51.1,80.5 Z"
           id="path764"
           inkscape:connector-curvature="0"
           style="fill:#99cc33" />
      </g>
    </g>
  </g>
</svg>
