<?xml version="1.0" encoding="UTF-8" standalone="no"?>
<!-- Created with Inkscape (http://www.inkscape.org/) -->

<svg
   xmlns:dc="http://purl.org/dc/elements/1.1/"
   xmlns:cc="http://creativecommons.org/ns#"
   xmlns:rdf="http://www.w3.org/1999/02/22-rdf-syntax-ns#"
   xmlns:svg="http://www.w3.org/2000/svg"
   xmlns="http://www.w3.org/2000/svg"
   xmlns:sodipodi="http://sodipodi.sourceforge.net/DTD/sodipodi-0.dtd"
   xmlns:inkscape="http://www.inkscape.org/namespaces/inkscape"
   width="8.4040146mm"
   height="23.94479mm"
   viewBox="0 0 8.4040144 23.94479"
   version="1.1"
   id="svg581"
   inkscape:version="0.92.2 (5c3e80d, 2017-08-06)"
   sodipodi:docname="engineers-14.svg">
  <defs
     id="defs575" />
  <sodipodi:namedview
     id="base"
     pagecolor="#ffffff"
     bordercolor="#666666"
     borderopacity="1.0"
     inkscape:pageopacity="0.0"
     inkscape:pageshadow="2"
     inkscape:zoom="0.7"
     inkscape:cx="-329.35831"
     inkscape:cy="182.86032"
     inkscape:document-units="mm"
     inkscape:current-layer="svg581"
     showgrid="false"
     inkscape:window-width="1360"
     inkscape:window-height="706"
     inkscape:window-x="-8"
     inkscape:window-y="-8"
     inkscape:window-maximized="1"
     fit-margin-top="0"
     fit-margin-left="0"
     fit-margin-right="0"
     fit-margin-bottom="0" />
  <metadata
     id="metadata578">
    <rdf:RDF>
      <cc:Work
         rdf:about="">
        <dc:format>image/svg+xml</dc:format>
        <dc:type
           rdf:resource="http://purl.org/dc/dcmitype/StillImage" />
        <dc:title></dc:title>
      </cc:Work>
    </rdf:RDF>
  </metadata>
  <g
     inkscape:label="Layer 1"
     inkscape:groupmode="layer"
     id="layer1"
     transform="translate(-193.41498,97.781648)" />
  <g
     id="i399"
     class="top-level-node"
     transform="matrix(0.11367874,0,0,0.11367874,-0.21598961,-2.3180212)">
    <g
       id="g1088">
      <g
         id="g1086">
        <path
           d="m 69,51 -35.8,-7.7 -9.4,44 35.8,7.6 5.8,12.5 9.4,-43.9 z"
           id="path1032"
           inkscape:connector-curvature="0"
           style="fill:#e5e5e5" />
        <path
           d="M 59.6,94.9 23.8,87.3 33.2,43.3 69,51 Z"
           id="path1034"
           inkscape:connector-curvature="0"
           style="opacity:0.1" />
        <path
           d="m 10.4,55.8 c -1.8,4.1 -8.5,26.1 -8.5,28.4 0,2.3 1.9,4.1 6.1,5 4.2,0.9 16,1.8 16,1.8 L 21.6,82.5 18,71.5 Z"
           id="path1036"
           inkscape:connector-curvature="0"
           style="fill:#99cc33" />
        <path
           d="m 10.4,55.8 c -1.8,4.1 -8.5,26.1 -8.5,28.4 0,2.3 1.9,4.1 6.1,5 4.2,0.9 16,1.8 16,1.8 L 21.6,82.5 18,71.5 Z"
           id="path1038"
           inkscape:connector-curvature="0"
           style="opacity:0.2" />
        <path
           d="m 22.1,52.2 c 0,0 3.6,5.3 6.9,6.6 3.7,1.5 10.9,1.5 10.9,1.5 0,0 2.1,-7.8 2.9,-8.8 0.8,-1.1 3,-0.6 3.9,-3.1 0.9,-2.6 4.7,-14.9 3.4,-17.4 -1.3,-2.5 -9.6,-9.7 -16.2,-4.3 -6.6,5.4 -5.4,16.6 -6.1,19.1 -1.7,5.2 -5.7,6.4 -5.7,6.4 z"
           id="path1040"
           inkscape:connector-curvature="0"
           style="fill:#fbd7c7" />
        <path
           d="m 27,47.2 c 0,0 5.7,3.4 9.5,3.5 3.7,0 6.7,-3.2 6.7,-3.2 0,0 1,-4.9 2.5,-6.4 1.4,-1.6 1.7,-0.5 1.7,-0.5 0,0 3,-3.5 3.4,-6.3 0.5,-3.7 -1.9,-10.2 -12.1,-9.6 -8,0.4 -10.6,8.2 -11.2,11.6 C 26.9,39.7 27,47.2 27,47.2 Z"
           id="path1042"
           inkscape:connector-curvature="0"
           style="fill:#762c07" />
        <path
           d="m 23.6,51.2 c 0,0 -11,-0.7 -13.5,4.6 -2.5,5.3 1.8,21.1 3.5,28.8 1.4,6.7 2.9,11.1 1.7,21.7 -0.9,7.2 -0.8,12.5 0.5,13 2.6,1 14,5 24.5,4.8 6.8,-0.2 9.9,-4.6 10.5,-5.1 0.5,-0.5 1.8,-29.7 2.2,-35.8 0.4,-6.1 1.7,-15.2 -2.2,-18.9 -3.8,-3.7 -10.1,-6 -10.1,-6 0,0 -6.2,0.5 -12,-1.7 -5.8,-2.2 -5.1,-5.4 -5.1,-5.4 z"
           id="path1044"
           inkscape:connector-curvature="0"
           style="fill:#99cc33" />
        <path
           d="m 48.7,40.4 c 3,-0.1 8,-3.2 7.9,-6.4 0,-3.2 -3.9,-6 -6.8,-6.8 -2.8,-0.9 -1.1,13.2 -1.1,13.2 z"
           id="path1046"
           inkscape:connector-curvature="0"
           style="fill:#ffcc00" />
        <path
           d="m 48.7,40.4 c 3,-0.1 8,-3.2 7.9,-6.4 0,-3.2 -3.9,-6 -6.8,-6.8 -2.8,-0.9 -1.1,13.2 -1.1,13.2 z"
           id="path1048"
           inkscape:connector-curvature="0"
           style="opacity:0.2" />
        <path
           d="m 25.5,35.9 c 1.3,2.9 9.7,7.8 17.6,6.4 C 51,40.9 54.7,36.4 54.2,31.5 53.5,24.7 42.7,18 34.5,21.5 26.3,25 24.6,33.9 25.5,35.9 Z"
           id="path1050"
           inkscape:connector-curvature="0"
           style="fill:#ffcc00" />
        <path
           d="m 26.5,36.6 c -0.9,-2 0.8,-10.9 9,-14.4 4.8,-2.1 10.5,-0.7 14.6,2.2 -4.1,-3.4 -10.4,-5.3 -15.6,-3 -8.2,3.6 -9.9,12.4 -9,14.4 0.4,0.8 1.3,1.7 2.6,2.7 -0.8,-0.6 -1.3,-1.3 -1.6,-1.9 z"
           id="path1052"
           inkscape:connector-curvature="0"
           style="fill:#ffcc00" />
        <path
           d="M 50.6,25.4 C 46.5,22 40.5,19.8 35.3,22.1 c -3.6,1.6 -6.2,4.4 -7.6,6.9 0.3,0.3 0.6,0.5 1,0.8 1.4,-2.6 4,-5.3 7.6,-6.9 4.8,-2.1 10.2,-0.4 14.3,2.5 z"
           id="path1054"
           inkscape:connector-curvature="0"
           style="opacity:0.2" />
        <path
           d="m 37,23.6 c -3.3,1.7 -5.6,4.4 -6.9,7.1 0.3,0.2 0.7,0.4 1,0.5 1.4,-2.6 3.5,-5.2 6.8,-6.8 4.4,-2.2 9.5,-1 13,1.8 -3.5,-3.3 -9.2,-5 -13.9,-2.6 z"
           id="path1056"
           inkscape:connector-curvature="0"
           style="opacity:0.2" />
        <path
           d="m 58.6,227.1 c 12.5,-4.6 5.1,-9.9 -8.4,-17.1 -13,-6.9 -19,-17.4 -35.9,-6.7 -13.6,8.7 5.3,18.2 11.8,22.2 9.8,6.2 15.9,7.8 32.5,1.6 z"
           id="path1058"
           inkscape:connector-curvature="0"
           style="opacity:0.2" />
        <path
           d="m 36.1,217.8 c -0.3,2.7 -1,10.3 1.2,11.1 3.4,1.3 9.7,-0.8 12.8,-1.8 3.1,-1 11,-3.2 11.3,-5.8 0.3,-2.5 -1.9,-4.6 -6.3,-3.8 -3.6,0.7 -8,0.4 -8.7,-1 -0.6,-1.4 -0.6,-1.4 -0.6,-1.4 z"
           id="path1060"
           inkscape:connector-curvature="0"
           style="fill:#2d3134" />
        <path
           d="m 61.1,219.5 v 0.5 c -0.3,2.7 -8.5,4.9 -11.6,6 -3.1,1 -9.6,3.2 -13.1,1.9 0,0 -0.1,0 -0.1,-0.1 0.2,0.6 0.5,1 1,1.2 3.4,1.3 9.7,-0.8 12.8,-1.8 3.1,-1 11,-3.2 11.3,-5.8 0.1,-0.8 0,-1.4 -0.3,-1.9 z"
           id="path1062"
           inkscape:connector-curvature="0"
           style="opacity:0.4" />
        <path
           d="m 12,201.7 c 0,0 -0.8,7.9 0.2,9.6 1.2,2.2 5.3,2.5 8.3,0.8 3,-1.7 5.1,-4.2 8.6,-5.1 3.5,-0.9 7.6,-3.5 5.6,-5.5 -2.4,-2.4 -5.1,-1.9 -10.7,-0.7 -1.8,0.4 -2.8,-1.6 -2.8,-1.6 z"
           id="path1064"
           inkscape:connector-curvature="0"
           style="fill:#2d3134" />
        <path
           d="m 34.8,201.5 c 0,0 -0.1,-0.1 0,0 -0.2,1.6 -3.4,3.4 -6.2,4.2 -3.5,0.9 -5.6,3.4 -8.6,5.1 -2.8,1.6 -6.5,1.5 -8,-0.3 0.1,0.3 0.2,0.6 0.3,0.8 1.2,2.2 5.3,2.5 8.3,0.8 3,-1.7 5.1,-4.2 8.6,-5.1 3.5,-1 7.6,-3.5 5.6,-5.5 z"
           id="path1066"
           inkscape:connector-curvature="0"
           style="opacity:0.4" />
        <path
           d="m 28.5,88.5 c -1,-0.1 -4.8,-0.7 -4.8,-0.7 0,0 -7.2,15.3 -9.5,21.5 -1.4,3.7 -2.1,9.6 -2.2,13.3 -0.2,9.8 1,29.1 0.5,35.4 -0.4,5.2 -2.3,16.6 -2,24.6 0.3,8.9 0,24.3 1,25.1 2.7,2.5 7.9,0.1 10.6,-2.2 2.7,-2.3 3.5,-3.8 3.8,-5 0.3,-1.3 -0.6,-3.4 -0.4,-11.1 0.1,-7.8 1.8,-23.3 2.5,-27.7 0.7,-4.4 5.3,-20.2 7,-28.2 1.7,-7.9 -6.5,-45 -6.5,-45 z"
           id="path1068"
           inkscape:connector-curvature="0"
           style="fill:#06547a" />
        <path
           d="m 28.5,88.5 c -1,-0.1 -4.8,-0.7 -4.8,-0.7 0,0 -7.2,15.3 -9.5,21.5 -1.4,3.7 -2.1,9.6 -2.2,13.3 -0.2,9.8 1,29.1 0.5,35.4 -0.4,5.2 -2.3,16.6 -2,24.6 0.3,8.9 0,24.3 1,25.1 2.7,2.5 7.9,0.1 10.6,-2.2 2.7,-2.3 3.5,-3.8 3.8,-5 0.3,-1.3 -0.6,-3.4 -0.4,-11.1 0.1,-7.8 1.8,-23.3 2.5,-27.7 0.7,-4.4 5.3,-20.2 7,-28.2 1.7,-7.9 -6.5,-45 -6.5,-45 z"
           id="path1070"
           inkscape:connector-curvature="0"
           style="opacity:0.2" />
        <path
           d="m 51.6,104.5 c 0,0 1.4,14.8 1.8,23.5 0.5,12 -1.4,30.2 -2.5,41 -1.1,11.2 -1.5,25.5 -1.3,32.9 0.2,6.4 0.6,15.6 0.6,15.6 0,0 0.3,3.2 -6.6,6 -3.6,1.5 -7.7,2.2 -8.5,0.9 -0.8,-1.3 -1.9,-13.9 -2,-20.3 -0.1,-6.4 -1.1,-19.2 0.3,-30.3 1.4,-11.1 -0.8,-18.2 -2.5,-26.1 -1.8,-7.9 -6.1,-21.9 -6.6,-28.4 -0.5,-6.5 3,-30.8 3,-30.8 l 4.5,0.3 c 0,0 5,21.7 11.3,23.8 6.2,2.1 8.5,-8.1 8.5,-8.1 z"
           id="path1072"
           inkscape:connector-curvature="0"
           style="fill:#06547a" />
        <path
           d="m 48.8,98.8 c 1.2,2.1 2.2,3.5 3.2,4.5 0.2,-3.3 0.4,-6.7 0.5,-9.8 L 40,75 c 0,0 5.1,17.4 8.8,23.8 z"
           id="path1074"
           inkscape:connector-curvature="0"
           style="opacity:0.2" />
        <path
           d="m 22.3,50.8 -3.5,0.3 c 0,0 -1.5,6.3 0.4,18.5 1.7,10.8 4.4,18.7 4.4,18.7 l 3.5,0.1 c 0,0 -3,-9.6 -4.7,-20.5 -1.3,-9.1 -0.1,-17.1 -0.1,-17.1 z"
           id="path1076"
           inkscape:connector-curvature="0"
           style="fill:#06547a" />
        <path
           d="m 22.3,50.8 -3.5,0.3 c 0,0 -1.5,6.3 0.4,18.5 1.7,10.8 4.4,18.7 4.4,18.7 l 3.5,0.1 c 0,0 -3,-9.6 -4.7,-20.5 -1.3,-9.1 -0.1,-17.1 -0.1,-17.1 z"
           id="path1078"
           inkscape:connector-curvature="0"
           style="opacity:0.2" />
        <path
           d="m 42,58.5 2.8,1.3 c 0,0 -4.8,4.7 -9.8,17.2 -2.2,5.4 -3.7,12.1 -3.7,12.1 L 27.8,89 c 0,0 2.1,-9.7 6.9,-20 C 37.8,62.2 42,58.5 42,58.5 Z"
           id="path1080"
           inkscape:connector-curvature="0"
           style="fill:#06547a" />
        <path
           d="m 72.8,81.1 c 0,0 1.8,-2.1 2.4,-4.8 C 76,72.9 76.4,66 74.1,65.5 73,65.3 73,67.2 71.1,72.2 69.6,76 69.7,67.9 67.7,68 c -0.9,0 0.2,2.3 -0.5,4.3 -0.4,1.1 -0.4,2.6 -0.1,4.1 0.7,2.8 1.3,3.2 1.3,3.2 z"
           id="path1082"
           inkscape:connector-curvature="0"
           style="fill:#fbd7c7" />
        <path
           d="m 44.4,63.5 c -6.5,2.3 -5.5,10.4 -3.8,14.1 1.7,3.7 12.1,26.7 17.2,26.6 5.1,-0.1 14.3,-19.9 14.3,-19.9 l 1.4,-3.3 -6.1,-2.9 -1.1,2.9 -8,7.6 c 0,0 -2.9,-11.5 -3.8,-15.2 -1.3,-5 -3.6,-12.1 -10.1,-9.9 z"
           id="path1084"
           inkscape:connector-curvature="0"
           style="fill:#99cc33" />
      </g>
    </g>
  </g>
</svg>
