<?xml version="1.0" encoding="UTF-8" standalone="no"?>
<!-- Created with Inkscape (http://www.inkscape.org/) -->

<svg
   xmlns:dc="http://purl.org/dc/elements/1.1/"
   xmlns:cc="http://creativecommons.org/ns#"
   xmlns:rdf="http://www.w3.org/1999/02/22-rdf-syntax-ns#"
   xmlns:svg="http://www.w3.org/2000/svg"
   xmlns="http://www.w3.org/2000/svg"
   xmlns:sodipodi="http://sodipodi.sourceforge.net/DTD/sodipodi-0.dtd"
   xmlns:inkscape="http://www.inkscape.org/namespaces/inkscape"
   width="5.3519735mm"
   height="6.5115137mm"
   viewBox="0 0 5.3519736 6.5115137"
   version="1.1"
   id="svg581"
   inkscape:version="0.92.2 (5c3e80d, 2017-08-06)"
   sodipodi:docname="engineers-1.svg">
  <defs
     id="defs575" />
  <sodipodi:namedview
     id="base"
     pagecolor="#ffffff"
     bordercolor="#666666"
     borderopacity="1.0"
     inkscape:pageopacity="0.0"
     inkscape:pageshadow="2"
     inkscape:zoom="5.6250001"
     inkscape:cx="-43.114361"
     inkscape:cy="-26.163791"
     inkscape:document-units="mm"
     inkscape:current-layer="svg581"
     showgrid="false"
     inkscape:window-width="1360"
     inkscape:window-height="706"
     inkscape:window-x="-8"
     inkscape:window-y="-8"
     inkscape:window-maximized="1"
     fit-margin-top="0"
     fit-margin-left="0"
     fit-margin-right="0"
     fit-margin-bottom="0" />
  <metadata
     id="metadata578">
    <rdf:RDF>
      <cc:Work
         rdf:about="">
        <dc:format>image/svg+xml</dc:format>
        <dc:type
           rdf:resource="http://purl.org/dc/dcmitype/StillImage" />
        <dc:title></dc:title>
      </cc:Work>
    </rdf:RDF>
  </metadata>
  <g
     inkscape:label="Layer 1"
     inkscape:groupmode="layer"
     id="layer1"
     transform="translate(-49.16366,156.75872)" />
  <g
     id="i383"
     class="top-level-node"
     transform="matrix(0.02597333,0,0,0.02597333,-0.88162575,-1.1739945)">
    <g
       id="g104">
      <g
         id="g102">
        <g
           id="g56">
          <path
             d="m 103.8,80.3 c -0.6,-2.2 -2.4,-5 -7,-6.1 -2.3,-1.2 -5.4,-2.5 -7.6,-2.4 -4,0.2 -12.8,1.9 -15.4,3.2 0,0 -6.9,4 -9.6,8 -2.8,4.1 -5.2,10.6 -5.2,18.8 0,4.4 1,16.6 0.8,26.6 -0.3,8.7 -1.9,15.6 -2,17.6 -0.3,4.3 8.9,5.9 14.4,7.5 5.5,1.6 21.9,-5.2 21.8,-6.8 -0.5,-7.9 2.3,-19.6 2.3,-23 0,-3.4 3.6,-15.7 4.8,-18.8 0.6,-1.5 2.2,-5.2 3,-9.3 0.9,-4.7 0.5,-12.2 -0.3,-15.3 z"
             id="path20"
             inkscape:connector-curvature="0"
             style="fill:#99cc33" />
          <path
             d="m 37.5,217 c 16.3,-9.1 31.3,2.4 48.4,12.8 17.1,10.5 49.2,20.3 36.1,27.3 -13.1,7 -37.9,-6 -51.4,-13.1 -13.5,-7 -47.7,-18.8 -33.1,-27 z"
             id="path22"
             inkscape:connector-curvature="0"
             style="opacity:0.2" />
          <path
             d="m 89.7,241.8 c 0.1,2.8 -1.1,5.3 3.5,6.6 3.6,1 7,1.9 11.9,5.4 2,1.4 4.9,3.1 8,3.5 1.5,0.2 3.7,-0.4 4.8,-0.9 3.1,-1.2 2.3,-3.7 2.2,-4.7 -0.1,-1.7 -1.8,-2.6 -5.1,-4 -3.3,-1.5 -5.8,-2.6 -7.8,-5.2 -2,-2.7 -6.1,-5.3 -6.1,-5.3 z"
             id="path24"
             inkscape:connector-curvature="0"
             style="fill:#262626" />
          <path
             d="m 90.3,243.3 c 0,0 7.9,2.2 10.3,3.7 2.8,1.8 9.9,7.5 13.5,7.6 3.1,0.1 6,-1.4 5.6,-3.2 -0.4,-1.8 -2.8,-2.5 -5.9,-4 -3,-1.5 -5.8,-3.7 -7.1,-6.1 -1.2,-2.3 -16.4,2 -16.4,2 z"
             id="path26"
             inkscape:connector-curvature="0"
             style="fill:#2d3134" />
          <path
             d="m 95.3,126.9 c 0.2,0.5 -0.7,11.5 1.1,17.4 1.5,5.1 5.3,15.5 7.3,21.8 2.2,7.2 6.1,24 6.4,26.6 0.3,2.2 -0.9,7.8 -1.6,11.3 -0.7,3.5 -2.5,22.5 -2.8,26.3 -0.2,3 -0.8,4.6 0.7,6.3 1.4,1.7 2.6,4.6 2,5.9 -0.6,1.3 -6.2,3.4 -10.5,3.7 -4.3,0.3 -8.8,-0.1 -9.3,-1.2 -0.5,-1.1 -0.8,-4.7 -0.4,-8.8 0.4,-4.1 3,-37.2 2.1,-40.9 -0.9,-3.7 -6.9,-22.7 -8.7,-27.1 -1.2,-2.9 -2.5,-5.4 -2.5,-5.4 L 82,145.4 Z"
             id="path28"
             inkscape:connector-curvature="0"
             style="fill:#06547a" />
          <path
             d="m 95.3,126.9 c 0.2,0.5 -0.7,11.5 1.1,17.4 1.5,5.1 5.3,15.5 7.3,21.8 2.2,7.2 6.1,24 6.4,26.6 0.3,2.2 -0.9,7.8 -1.6,11.3 -0.7,3.5 -2.5,22.5 -2.8,26.3 -0.2,3 -0.8,4.6 0.7,6.3 1.4,1.7 2.6,4.6 2,5.9 -0.6,1.3 -6.2,3.4 -10.5,3.7 -4.3,0.3 -8.8,-0.1 -9.3,-1.2 -0.5,-1.1 -0.8,-4.7 -0.4,-8.8 0.4,-4.1 3,-37.2 2.1,-40.9 -0.9,-3.7 -6.9,-22.7 -8.7,-27.1 -1.2,-2.9 -2.5,-5.4 -2.5,-5.4 L 82,145.4 Z"
             id="path30"
             inkscape:connector-curvature="0"
             style="opacity:0.2" />
          <path
             d="m 41.3,220.2 c 0,0 6.1,10.2 8.2,11.8 2.2,1.6 11.1,4.6 14.9,3.7 3.8,-0.9 3.7,-0.8 3.9,-2.7 0.2,-1.9 0.6,-2.2 -2.6,-3.7 -3.1,-1.6 -6.9,-5.3 -7.5,-7.4 -0.6,-2.1 -7.2,-6.4 -10.2,-6.3 -2.9,0.1 -6.7,4.6 -6.7,4.6 z"
             id="path32"
             inkscape:connector-curvature="0"
             style="fill:#262626" />
          <path
             d="m 44.1,220.4 c 2.9,2.3 5.6,8.2 7.5,9.1 1.9,0.9 8.9,3.4 13,2.7 3.6,-0.6 3.9,-0.8 3,-1.7 -0.9,-1 -5,-2.3 -6.5,-4.6 -1.5,-2.4 -5.3,-7.9 -5.3,-7.9 z"
             id="path34"
             inkscape:connector-curvature="0"
             style="fill:#2d3134" />
          <path
             d="m 84.3,142.5 c 0,0 -6.8,31.9 -8.1,36.1 -3.2,10.9 -4.8,14.5 -7.3,17.7 -2.2,2.7 -8.2,13.8 -9.5,15.7 -1.2,1.6 -2.1,3.4 -1.4,5.1 0.7,1.7 1.3,5.2 1.3,5.2 0,0 -6,2.7 -11.8,1.7 -5.8,-1 -8.2,-4.5 -8.2,-6.9 0,-2.5 2.1,-5.8 2.1,-5.8 0,0 1.3,-8.9 6.6,-16.9 1.5,-2.3 4.6,-7 5.5,-9.8 1.6,-5.1 1.5,-18.3 1.8,-24.7 0.2,-6.1 -0.5,-14 2.4,-23.1 1,-3.1 2.7,-2.8 6.6,-5.1 3.9,-2.3 14.4,-33.1 14.4,-33.1 l 22.7,-2.8 -5.7,33.2 z"
             id="path36"
             inkscape:connector-curvature="0"
             style="fill:#06547a" />
          <path
             d="m 70,76.7 c 0,0 4.3,3.7 6.4,11.4 1.7,5.9 1.7,10.6 2.2,10.7 0.5,0.1 4.3,0 4.3,0 0,0 -0.1,-7.5 -3.3,-15.6 -1.9,-4.8 -5.8,-8.7 -5.8,-8.7 z"
             id="path38"
             inkscape:connector-curvature="0"
             style="fill:#06547a" />
          <path
             d="m 99.2,76 c 0,0 1,5 1.3,12 0.3,5.3 0.3,8 0.3,8 L 97,96.6 c 0,0 0.3,-2.3 -0.1,-9.9 C 96.4,78 96,74.5 96,74.5 Z"
             id="path40"
             inkscape:connector-curvature="0"
             style="fill:#06547a" />
          <path
             d="m 76.4,74.5 c 0,0 2.7,-1.1 2.9,-3.1 0.2,-2 -5.9,-9.7 -0.8,-16.8 5.1,-7.1 17.8,-5.8 20,1.3 2.2,7.1 2.4,20.7 0.7,22.1 -2.1,1.8 -5.9,1.1 -5.9,1.1 0,0 -1.3,3.3 -1,5.1 0.4,2.7 -2,2.9 -3.3,2.8 C 87.1,86.9 78.2,83.5 76.4,74.5 Z"
             id="path42"
             inkscape:connector-curvature="0"
             style="fill:#fbd7c7" />
          <path
             d="m 78.5,69.6 1.6,1 c 0,0 -4.2,-5.6 -1.4,-6.8 2.8,-1.2 4.1,2.3 4.1,2.3 0,0 2.1,-3.6 5.3,-3.9 3.2,-0.3 12,-2.3 11.7,-5.1 -0.1,-1.1 -3.6,-10.5 -14,-8.7 -10.4,1.8 -10.7,10.4 -10.1,13.9 0.6,3.5 2.8,7.3 2.8,7.3 z"
             id="path44"
             inkscape:connector-curvature="0"
             style="fill:#762c07" />
          <g
             id="g54">
            <path
               d="m 102.5,60.5 c 0,0 2.8,1.2 2.8,2.1 0,0.9 -8.3,4.5 -14,3.9 C 85.6,65.9 75.2,63 74.6,61.5 74,60 75.3,45.2 87.2,45.2 c 14.1,0 15.3,15.3 15.3,15.3 z"
               id="path46"
               inkscape:connector-curvature="0"
               style="fill:#ffcc00" />
            <path
               d="m 105.3,62.5 c 0,0.9 -8.3,4.5 -14,3.9 C 86.7,66 79.2,64 76,62.5 c 3.1,1.1 7.3,2.2 10.4,2.1 5.4,-0.2 14.2,-2.8 16.1,-4.1 0,0 2.8,1.2 2.8,2 z"
               id="path48"
               inkscape:connector-curvature="0"
               style="opacity:0.2" />
            <path
               d="m 101,58.8 -1.2,0.4 C 99.2,55.6 96.5,45.9 86,45.9 c -0.6,0 -1.2,0.1 -1.8,0.1 0.9,-0.3 1.9,-0.4 3,-0.4 10.4,0 13.1,9.4 13.8,13.2 z"
               id="path50"
               inkscape:connector-curvature="0"
               style="opacity:0.2" />
            <path
               d="m 96.6,60.3 c -0.3,-2.6 -2,-13.8 -11.2,-13.8 -0.5,0 -1,0.1 -1.4,0.1 0.7,-0.3 1.5,-0.4 2.4,-0.4 9.1,0 11.2,10.9 11.5,13.6 z"
               id="path52"
               inkscape:connector-curvature="0"
               style="opacity:0.2" />
          </g>
        </g>
        <polygon
           points="106,249 200,295.9 240,275.9 146,229 "
           id="polygon58"
           style="opacity:0.3" />
        <g
           id="g76">
          <path
             d="m 207.2,249.7 c -3.8,-1.9 -7.2,-2.1 -9.7,-1 v 0 l -7.1,3.5 v 0 c -2.7,1.2 -4.4,4 -4.4,8.1 0,7.8 6.3,17.3 14.1,21.2 3.9,1.9 7.4,2.1 9.9,0.9 0,0 7,-3.5 7.6,-3.9 2.3,-1.4 3.7,-4 3.7,-7.7 0,-7.7 -6.3,-17.2 -14.1,-21.1 z"
             id="path60"
             inkscape:connector-curvature="0"
             style="fill:#2d3134" />
          <path
             d="m 210.2,282.4 c 1,-0.5 6.9,-3.5 7.5,-3.8 2.3,-1.4 3.7,-4 3.7,-7.7 0,-3.1 -1,-6.6 -2.8,-9.8 l -7.1,3.5 c 1.7,3.2 2.8,6.6 2.8,9.8 0,3.9 -1.6,6.7 -4.1,8 z"
             id="path62"
             inkscape:connector-curvature="0"
             style="opacity:0.38999999" />
          <path
             d="m 210.7,272.6 c 0,5.9 -4.7,8.2 -10.6,5.3 -5.9,-2.9 -10.6,-10.1 -10.6,-15.9 0,-5.9 4.7,-8.2 10.6,-5.3 5.9,2.9 10.6,10 10.6,15.9 z"
             id="path64"
             inkscape:connector-curvature="0"
             style="fill:#a9abb0" />
          <path
             d="m 201,277.5 c -5.9,-2.9 -10.6,-10.1 -10.6,-15.9 0,-2.9 1.2,-4.9 3,-5.9 -2.4,0.8 -3.9,3 -3.9,6.3 0,5.9 4.7,13 10.6,15.9 3,1.5 5.7,1.6 7.6,0.6 -1.8,0.6 -4.1,0.3 -6.7,-1 z"
             id="path66"
             inkscape:connector-curvature="0"
             style="fill:#808285" />
          <path
             d="m 205.4,269.1 c 0,2.4 -2,3.4 -4.4,2.2 -2.4,-1.2 -4.4,-4.2 -4.4,-6.6 0,-2.4 2,-3.4 4.4,-2.2 2.4,1.2 4.4,4.2 4.4,6.6 z"
             id="path68"
             inkscape:connector-curvature="0"
             style="fill:#2d3134" />
          <path
             d="m 205.4,269.1 c 0,2.4 -2,3.4 -4.4,2.2 -2.4,-1.2 -4.4,-4.2 -4.4,-6.6 0,-2.4 2,-3.4 4.4,-2.2 2.4,1.2 4.4,4.2 4.4,6.6 z"
             id="path70"
             inkscape:connector-curvature="0"
             style="opacity:0.38999999" />
          <path
             d="m 204.5,269.5 c 0,2.4 -2,3.4 -4.4,2.2 -2.4,-1.2 -4.4,-4.2 -4.4,-6.6 0,-2.4 2,-3.4 4.4,-2.2 2.4,1.2 4.4,4.2 4.4,6.6 z"
             id="path72"
             inkscape:connector-curvature="0"
             style="fill:#2d3134" />
          <path
             d="m 214.3,274.5 c 0,7.8 -6.3,11 -14.1,7.1 -7.8,-3.9 -14.2,-13.5 -14.2,-21.3 0,-7.8 6.3,-11 14.1,-7.1 7.8,3.9 14.2,13.4 14.2,21.3 z"
             id="path74"
             inkscape:connector-curvature="0"
             style="opacity:0.06000001" />
        </g>
        <path
           d="m 200,270 c -0.3,0 -0.6,-0.1 -0.9,-0.2 l -52.3,-26.2 -7.8,13.2 c -1.5,2.7 -4.4,4.3 -7.6,4.1 -3.2,-0.2 -5.9,-2.1 -7.1,-5 l -10.2,-22.4 -6,-43.2 -8.4,-33.6 c -1.2,-4.6 1,-9.3 5.3,-11.5 l 25.2,-12.6 c 2.8,-1.4 5.9,-1.4 8.7,-0.1 2.8,1.3 4.8,3.7 5.6,6.7 l 7.6,30.5 V 185 c 0,1.1 -0.9,2 -2,2 -1.1,0 -2,-0.9 -2,-2 v -14.8 l -7.5,-30 c -0.5,-1.8 -1.7,-3.3 -3.4,-4.1 -1.7,-0.8 -3.6,-0.7 -5.3,0.1 l -25.2,12.6 c -2.6,1.3 -3.9,4.1 -3.2,6.9 l 8.5,33.9 6,42.7 10,21.9 c 0.7,1.6 2,2.5 3.7,2.6 1.6,0.1 3.1,-0.7 3.9,-2.1 l 9.8,-16.5 55.7,27.8 c 1,0.5 1.4,1.7 0.9,2.7 -0.6,0.9 -1.3,1.3 -2,1.3 z"
           id="path78"
           inkscape:connector-curvature="0"
           style="fill:#2d3134" />
        <g
           id="g90">
          <polygon
             points="214,243 234,213 154,173 106,197 106,222 166,267 "
             id="polygon80"
             style="fill:#ff9900" />
          <polygon
             points="106,222 106,197 186,237 166,267 "
             id="polygon82"
             style="opacity:0.11000001" />
          <polygon
             points="193,231 154,200 154,175 230,213 "
             id="polygon84"
             style="opacity:0.11000001" />
          <polygon
             points="214,243 234,213 186,237 166,267 "
             id="polygon86"
             style="opacity:0.28999999" />
          <polygon
             points="154,200 135,209.5 110,197 154,175 "
             id="polygon88"
             style="opacity:0.28999999" />
        </g>
        <path
           d="m 121.8,130.8 c 0,0 4.6,-1.8 5.3,-2.4 0.7,-0.6 4.5,4 5.7,5.4 1.2,1.4 1,3.3 0.2,5.7 -0.9,2.8 -8.8,5.7 -8.5,3.8 0.2,-1.2 2.5,-4.1 2.1,-5.6 -0.2,-0.8 -0.8,-1.9 -2.8,-1.8 -1.3,0 -2.2,0.7 -2.6,1.3 -0.2,0.3 -2.6,1.5 -2.6,0.9 0,-1.1 0,-2.3 0.4,-3 0.8,-1.5 2.8,-4.3 2.8,-4.3 z"
           id="path92"
           inkscape:connector-curvature="0"
           style="fill:#fbd7c7" />
        <path
           d="m 104.3,83 c 0.8,2.4 4.7,26.1 5.4,27.8 0.7,1.7 18.9,16.4 19.2,17.6 0.3,1.2 -7.1,4.6 -9,3.5 -1.6,-0.9 -7.5,-4.6 -12.8,-8.6 -1.6,-1.2 -8.2,-8.4 -8.6,-9.4 -0.5,-1 5.8,-30.9 5.8,-30.9 z"
           id="path94"
           inkscape:connector-curvature="0"
           style="fill:#99cc33" />
        <path
           d="m 100.9,132.1 -4.4,6.2 c 0,0 8,6.1 8.6,6.1 0.7,0 2.8,2 2.5,3.3 -0.3,1.3 -1.8,2.1 -1.3,2.5 1.6,1.3 7.2,-0.7 8.5,-3 1.3,-2.3 0.6,-5.9 -0.3,-7.1 -0.8,-1.2 -2,-1.8 -3.2,-2.6 -2.1,-1.3 -10.4,-5.4 -10.4,-5.4 z"
           id="path96"
           inkscape:connector-curvature="0"
           style="fill:#fbd7c7" />
        <path
           d="m 64.3,83.7 c -2.7,0.7 -5.1,9.8 -4.8,14.7 0.8,14.1 2.9,29.2 3.6,31 1.7,4.6 38.3,13.6 39.3,14.1 1,0.5 6.3,-6.6 6.1,-8 -0.2,-1.4 -21.1,-8.9 -24.3,-10.3 -2.6,-1.1 -10.5,-3.8 -10.5,-3.8 0,0 -0.1,-5.8 0.3,-11.6 0.4,-6.9 0.8,-10.5 0.8,-13.2 C 74.6,91 71.2,82 64.3,83.7 Z"
           id="path98"
           inkscape:connector-curvature="0"
           style="fill:#99cc33" />
        <path
           d="m 174,190 c -21.5,-2.8 -42.4,7.7 -48,15 l 59.8,30 34.2,-17 c -6.7,-10.5 -28.5,-25.7 -46,-28 z"
           id="path100"
           inkscape:connector-curvature="0"
           style="fill:#656565" />
      </g>
    </g>
  </g>
</svg>
