<?xml version="1.0" encoding="UTF-8" standalone="no"?>
<!-- Created with Inkscape (http://www.inkscape.org/) -->

<svg
   xmlns:dc="http://purl.org/dc/elements/1.1/"
   xmlns:cc="http://creativecommons.org/ns#"
   xmlns:rdf="http://www.w3.org/1999/02/22-rdf-syntax-ns#"
   xmlns:svg="http://www.w3.org/2000/svg"
   xmlns="http://www.w3.org/2000/svg"
   xmlns:sodipodi="http://sodipodi.sourceforge.net/DTD/sodipodi-0.dtd"
   xmlns:inkscape="http://www.inkscape.org/namespaces/inkscape"
   width="10.184522mm"
   height="24.182352mm"
   viewBox="0 0 10.184521 24.182352"
   version="1.1"
   id="svg581"
   inkscape:version="0.92.2 (5c3e80d, 2017-08-06)"
   sodipodi:docname="engineers-10.svg">
  <defs
     id="defs575" />
  <sodipodi:namedview
     id="base"
     pagecolor="#ffffff"
     bordercolor="#666666"
     borderopacity="1.0"
     inkscape:pageopacity="0.0"
     inkscape:pageshadow="2"
     inkscape:zoom="0.7"
     inkscape:cx="-419.14265"
     inkscape:cy="285.63255"
     inkscape:document-units="mm"
     inkscape:current-layer="svg581"
     showgrid="false"
     inkscape:window-width="1360"
     inkscape:window-height="706"
     inkscape:window-x="-8"
     inkscape:window-y="-8"
     inkscape:window-maximized="1"
     fit-margin-top="0"
     fit-margin-left="0"
     fit-margin-right="0"
     fit-margin-bottom="0" />
  <metadata
     id="metadata578">
    <rdf:RDF>
      <cc:Work
         rdf:about="">
        <dc:format>image/svg+xml</dc:format>
        <dc:type
           rdf:resource="http://purl.org/dc/dcmitype/StillImage" />
        <dc:title></dc:title>
      </cc:Work>
    </rdf:RDF>
  </metadata>
  <g
     inkscape:label="Layer 1"
     inkscape:groupmode="layer"
     id="layer1"
     transform="translate(-160.87101,70.827392)" />
  <g
     id="i396"
     class="top-level-node"
     transform="matrix(0.11367874,0,0,0.11367874,-1.017781,-1.989378)">
    <g
       id="g921">
      <g
         id="g919">
        <path
           d="m 62.8,113.9 3.6,-3.5 c 0,0 1.9,4.8 2.2,7.2 0.3,2.3 -0.3,14.4 -2.1,14.4 -1.8,0 -1,-3 -1,-4 0,-1 0.7,-4.1 0.7,-4.1 0,0 -0.5,1.9 -1.4,1.7 -0.9,-0.2 -1.5,-1.9 -0.9,-3.5 0.6,-1.6 -0.9,-4.3 -0.9,-4.3 z"
           id="path875"
           inkscape:connector-curvature="0"
           style="fill:#fbd7c7" />
        <path
           d="m 61.7,114.3 c 0,0 4.9,-2.5 5,-3.6 0.1,-1.1 -8.1,-21.4 -8.1,-21.4 z"
           id="path877"
           inkscape:connector-curvature="0"
           style="fill:#99cc33" />
        <path
           d="M 60.8,106 C 58.3,88.4 60.2,78.8 60.5,74.3 61,66.3 63.5,54.9 58.9,52 56.2,50.3 51.7,47.7 49,46.9 L 31.5,46.6 c 0,0 -10,5 -13.7,8.5 -6.1,5.7 -0.6,18.4 3.5,29.9 6.3,17.8 3.2,31.6 3.7,32.5 0.8,1.6 30.3,3.4 37.1,-1.6 0.7,-0.6 -0.8,-6 -1.3,-9.9 z"
           id="path879"
           inkscape:connector-curvature="0"
           style="fill:#99cc33" />
        <path
           d="m 13.9,224.1 c -12.3,-8.2 0.2,-17 17.1,-21.3 7.4,-1.9 20.2,-11.6 39.8,-1.1 15.8,8.5 -7.5,12.3 -16.4,16.8 -10.7,5.4 -19,19.9 -40.5,5.6 z"
           id="path881"
           inkscape:connector-curvature="0"
           style="opacity:0.2" />
        <path
           d="m 48.3,192.7 10.4,1.2 c 0,0 0.2,1.8 2.1,3.8 1.9,2 10.1,6.4 11.7,7.6 2.8,2.1 0.9,5 -1.5,5.3 -2.6,0.4 -6.1,-0.4 -10.5,-2 -3.4,-1.2 -7.4,-2.3 -11.3,-3.6 -3.3,-1.1 -2.5,-5.9 -2,-8 0.6,-2.1 1.1,-4.3 1.1,-4.3 z"
           id="path883"
           inkscape:connector-curvature="0"
           style="fill:#2d3134" />
        <path
           d="m 70.9,209.1 c -2.7,0.4 -6.5,-0.5 -11.2,-2.2 -3.7,-1.3 -7.9,-2.5 -12,-3.9 -0.3,-0.1 -0.5,-0.2 -0.7,-0.3 0.3,1 1,1.9 2.2,2.3 3.8,1.3 7.8,2.4 11.3,3.6 4.4,1.6 7.9,2.4 10.5,2 1.8,-0.3 3.2,-1.9 2.8,-3.5 -0.5,1 -1.6,1.8 -2.9,2 z"
           id="path885"
           inkscape:connector-curvature="0"
           style="opacity:0.4" />
        <path
           d="m 58.5,93.7 c 0,0 6.1,23.2 5.7,34.4 -0.4,11.2 -2.4,23.6 -2.9,33 -0.5,9.4 -0.4,30.7 0.1,34.9 0.6,4.8 -1.8,5.1 -4.8,5.2 -3.1,0.1 -9.1,-0.9 -10.1,-1.9 -1,-1 -0.9,-8.7 -0.9,-14.3 0,-5.6 -0.5,-14 -0.1,-21.9 0.3,-6.8 -2.2,-16.2 -3.6,-21.4 -1.4,-5.2 -7.4,-22.6 -7.8,-27.4 C 33.7,109.5 34,99.1 34,99.1 Z"
           id="path887"
           inkscape:connector-curvature="0"
           style="fill:#06547a" />
        <path
           d="m 58.5,93.7 c 0,0 6.1,23.2 5.7,34.4 -0.4,11.2 -2.4,23.6 -2.9,33 -0.5,9.4 -0.4,30.7 0.1,34.9 0.6,4.8 -1.8,5.1 -4.8,5.2 -3.1,0.1 -9.1,-0.9 -10.1,-1.9 -1,-1 -0.9,-8.7 -0.9,-14.3 0,-5.6 -0.5,-14 -0.1,-21.9 0.3,-6.8 -2.2,-16.2 -3.6,-21.4 -1.4,-5.2 -7.4,-22.6 -7.8,-27.4 C 33.7,109.5 34,99.1 34,99.1 Z"
           id="path889"
           inkscape:connector-curvature="0"
           style="opacity:0.2" />
        <path
           d="m 12.1,208.5 c 0.2,0.1 10.6,2.2 10.6,2.2 0,0 2.7,6 5.3,8.1 2.1,1.8 8,5.7 7.7,7.9 -0.3,2.2 -6.3,4 -11.9,1.1 -2.6,-1.3 -12.9,-6.6 -13.4,-10.1 -0.6,-4 1.7,-9.2 1.7,-9.2 z"
           id="path891"
           inkscape:connector-curvature="0"
           style="fill:#2d3134" />
        <path
           d="m 23.8,226 c -2.6,-1.3 -12.9,-6.6 -13.4,-10.1 0,-0.2 0,-0.3 -0.1,-0.5 -0.1,0.8 -0.1,1.6 0.1,2.3 0.5,3.5 10.8,8.8 13.4,10.1 5.6,2.9 11.6,1.1 11.9,-1.1 0,-0.3 -0.1,-0.7 -0.3,-1.2 -1.2,1.9 -6.6,3.1 -11.6,0.5 z"
           id="path893"
           inkscape:connector-curvature="0"
           style="opacity:0.4" />
        <g
           id="g901"
           style="fill:#06547a">
          <path
             d="m 56.6,68 c 0.2,1.6 0.3,12.7 4,34.3 -0.1,1 -9.9,6.5 -10.1,7.8 -1.2,8 -6.3,33.3 -8.1,34.4 -3.7,12.1 -6.5,19.8 -8.3,26.8 -1.8,7 -5.9,23.7 -7,32 -0.4,3.2 -1,12 -1.7,12.9 -3.3,4.1 -11.3,2 -12.9,0.6 -1.7,-1.6 -2.6,-2.4 -2.2,-5.5 0.4,-3.1 1.7,-21.3 2.7,-27.8 1.7,-10.7 5,-15 6.1,-20.1 1.1,-5.1 -1.1,-24.1 2.3,-42 C 24.8,103.5 29.5,70 29.5,70 Z"
             id="path895"
             inkscape:connector-curvature="0" />
          <path
             d="m 23.4,51.1 c 0,0 4.3,3.7 6.4,11.4 1.7,5.9 1.7,10.6 2.2,10.7 0.5,0.1 4.3,0 4.3,0 0,0 -0.1,-7.5 -3.3,-15.6 -1.9,-4.8 -5.9,-8.9 -5.9,-8.9 z"
             id="path897"
             inkscape:connector-curvature="0" />
          <path
             d="m 54.3,48.5 c 0,0 1.1,5.7 1.4,12.7 0.3,5.3 0.3,8 0.3,8 l -3.8,0.6 c 0,0 0.3,-2.3 -0.1,-9.9 -0.5,-8.7 -1,-12.9 -1,-12.9 z"
             id="path899"
             inkscape:connector-curvature="0" />
        </g>
        <path
           d="m 32.2,46.5 c 0,0 2.6,-1.1 2.7,-2.9 0.2,-1.9 -5.6,-9.2 -0.8,-16 4.8,-6.8 16.9,-5.5 19,1.2 2.1,6.8 2.3,19.6 0.7,21 -2,1.7 -5.6,1 -5.6,1 0,0 -1.2,3.1 -0.9,4.9 0.4,2.5 -1.9,2.7 -3.2,2.7 -1.8,-0.2 -9.5,-5 -11.9,-11.9 z"
           id="path903"
           inkscape:connector-curvature="0"
           style="fill:#fbd7c7" />
        <path
           d="m 34.2,41.9 1.5,0.9 c 0,0 -3.9,-5.4 -1.3,-6.5 2.6,-1.1 3.9,2.2 3.9,2.2 0,0 1.9,-3.4 5,-3.7 C 46.4,34.5 54.7,32.6 54.4,30 54.3,29 51,20 41.2,21.7 31.4,23.4 31,31.6 31.5,34.9 c 0.5,3.3 2.7,7 2.7,7 z"
           id="path905"
           inkscape:connector-curvature="0"
           style="fill:#762c07" />
        <path
           d="m 57.9,32.7 c 0,0 2.8,1.2 2.8,2.1 0,0.9 -8.3,4.5 -14,3.9 C 41,38.1 30.6,35.2 30,33.7 29.4,32.2 30.7,17.5 42.7,17.5 c 14,0 15.2,15.2 15.2,15.2 z"
           id="path907"
           inkscape:connector-curvature="0"
           style="fill:#ffcc00" />
        <path
           d="m 60.7,34.8 c 0,0.9 -8.3,4.5 -14,3.9 -4.6,-0.5 -12.1,-2.4 -15.2,-4 3.1,1.1 7.3,2.2 10.4,2.1 5.4,-0.2 14.2,-2.8 16.1,-4.1 -0.1,0 2.7,1.2 2.7,2.1 z"
           id="path909"
           inkscape:connector-curvature="0"
           style="opacity:0.2" />
        <path
           d="m 56.4,31 -1.2,0.4 C 54.6,27.8 51.9,18.1 41.4,18.1 c -0.6,0 -1.2,0.1 -1.8,0.1 0.9,-0.3 1.9,-0.4 3,-0.4 10.4,0 13.1,9.5 13.8,13.2 z"
           id="path911"
           inkscape:connector-curvature="0"
           style="opacity:0.2" />
        <path
           d="m 51.9,32.5 c -0.3,-2.6 -2,-13.8 -11.2,-13.8 -0.5,0 -1,0.1 -1.4,0.1 0.7,-0.3 1.5,-0.4 2.4,-0.4 9.1,0 11.2,10.9 11.5,13.6 z"
           id="path913"
           inkscape:connector-curvature="0"
           style="opacity:0.2" />
        <path
           d="m 78,77.9 -0.7,8 c 0,0 0.9,0.2 2.4,1 1.5,0.8 5.8,1.9 8.4,2 3.1,0.1 6.6,-1 8,-1.9 1.4,-0.9 2.7,-2.6 2.4,-4.7 -0.3,-2.1 -5.5,-1 -8.7,-1.3 -1.5,-0.1 -3.3,-0.5 -3,-1 0.2,-0.6 4.7,1.1 5.3,-0.2 1,-2.2 -3.7,-2.9 -6.1,-3 -2.4,-0.1 -3.8,0.5 -5.3,1 -1.3,0.3 -2.7,0.1 -2.7,0.1 z"
           id="path915"
           inkscape:connector-curvature="0"
           style="fill:#fbd7c7" />
        <path
           d="M 78.1,77.5 C 77.6,76.6 59.8,74.3 53.5,73 50.9,72.5 46.9,69.6 43.4,66.9 39.9,64.3 34.9,60.9 32.2,58.7 29.2,56.2 25.6,53.5 20.7,54.1 14.1,55 13.8,64.9 20,70.8 c 4,3.9 4.5,2.5 14.5,6.8 9.7,4.2 13.7,5.4 18.5,6.6 4.8,1.2 23.3,2.5 24,2 0.7,-0.5 1.4,-8.1 1.1,-8.7 z"
           id="path917"
           inkscape:connector-curvature="0"
           style="fill:#99cc33" />
      </g>
    </g>
  </g>
</svg>
