<?xml version="1.0" encoding="UTF-8" standalone="no"?>
<!-- Created with Inkscape (http://www.inkscape.org/) -->

<svg
   xmlns:dc="http://purl.org/dc/elements/1.1/"
   xmlns:cc="http://creativecommons.org/ns#"
   xmlns:rdf="http://www.w3.org/1999/02/22-rdf-syntax-ns#"
   xmlns:svg="http://www.w3.org/2000/svg"
   xmlns="http://www.w3.org/2000/svg"
   xmlns:sodipodi="http://sodipodi.sourceforge.net/DTD/sodipodi-0.dtd"
   xmlns:inkscape="http://www.inkscape.org/namespaces/inkscape"
   width="6.6300607mm"
   height="6.500001mm"
   viewBox="0 0 6.6300605 6.500001"
   version="1.1"
   id="svg581"
   inkscape:version="0.92.2 (5c3e80d, 2017-08-06)"
   sodipodi:docname="engineers-2.svg">
  <defs
     id="defs575" />
  <sodipodi:namedview
     id="base"
     pagecolor="#ffffff"
     bordercolor="#666666"
     borderopacity="1.0"
     inkscape:pageopacity="0.0"
     inkscape:pageshadow="2"
     inkscape:zoom="0.7"
     inkscape:cx="-397.66608"
     inkscape:cy="-20.150631"
     inkscape:document-units="mm"
     inkscape:current-layer="svg581"
     showgrid="false"
     inkscape:window-width="1360"
     inkscape:window-height="706"
     inkscape:window-x="-8"
     inkscape:window-y="-8"
     inkscape:window-maximized="1"
     fit-margin-top="0"
     fit-margin-left="0"
     fit-margin-right="0"
     fit-margin-bottom="0" />
  <metadata
     id="metadata578">
    <rdf:RDF>
      <cc:Work
         rdf:about="">
        <dc:format>image/svg+xml</dc:format>
        <dc:type
           rdf:resource="http://purl.org/dc/dcmitype/StillImage" />
        <dc:title></dc:title>
      </cc:Work>
    </rdf:RDF>
  </metadata>
  <g
     inkscape:label="Layer 1"
     inkscape:groupmode="layer"
     id="layer1"
     transform="translate(-63.529441,134.05018)" />
  <g
     id="i386"
     class="top-level-node"
     transform="matrix(0.02886601,0,0,0.02886601,-0.17319606,-1.9248014)">
    <g
       id="g292">
      <g
         id="g290">
        <polygon
           points="6,188 100,234.9 140,214.9 46,168 "
           id="polygon200"
           style="opacity:0.3" />
        <g
           id="g218">
          <path
             d="m 32.2,163.7 c -3.8,-1.9 -7.2,-2.1 -9.7,-1 v 0 l -7.1,3.5 v 0 c -2.7,1.2 -4.4,4 -4.4,8.1 0,7.8 6.3,17.3 14.1,21.2 3.9,1.9 7.4,2.1 9.9,0.9 0,0 7,-3.5 7.6,-3.9 2.3,-1.4 3.7,-4 3.7,-7.7 0,-7.7 -6.3,-17.2 -14.1,-21.1 z"
             id="path202"
             inkscape:connector-curvature="0"
             style="fill:#2d3134" />
          <path
             d="m 35.2,196.4 c 1,-0.5 6.9,-3.5 7.5,-3.8 2.3,-1.4 3.7,-4 3.7,-7.7 0,-3.1 -1,-6.6 -2.8,-9.8 l -7.1,3.5 c 1.7,3.2 2.8,6.6 2.8,9.8 0,3.9 -1.6,6.7 -4.1,8 z"
             id="path204"
             inkscape:connector-curvature="0"
             style="opacity:0.38999999" />
          <path
             d="m 35.7,186.6 c 0,5.9 -4.7,8.2 -10.6,5.3 C 19.2,189 14.5,181.8 14.5,176 c 0,-5.8 4.7,-8.2 10.6,-5.3 5.9,2.9 10.6,10 10.6,15.9 z"
             id="path206"
             inkscape:connector-curvature="0"
             style="fill:#a9abb0" />
          <path
             d="m 26,191.5 c -5.9,-2.9 -10.6,-10.1 -10.6,-15.9 0,-2.9 1.2,-4.9 3,-5.9 -2.4,0.8 -3.9,3 -3.9,6.3 0,5.9 4.7,13 10.6,15.9 3,1.5 5.7,1.6 7.6,0.6 -1.8,0.6 -4.1,0.3 -6.7,-1 z"
             id="path208"
             inkscape:connector-curvature="0"
             style="fill:#808285" />
          <path
             d="m 30.4,183.1 c 0,2.4 -2,3.4 -4.4,2.2 -2.4,-1.2 -4.4,-4.2 -4.4,-6.6 0,-2.4 2,-3.4 4.4,-2.2 2.4,1.2 4.4,4.2 4.4,6.6 z"
             id="path210"
             inkscape:connector-curvature="0"
             style="fill:#2d3134" />
          <path
             d="m 30.4,183.1 c 0,2.4 -2,3.4 -4.4,2.2 -2.4,-1.2 -4.4,-4.2 -4.4,-6.6 0,-2.4 2,-3.4 4.4,-2.2 2.4,1.2 4.4,4.2 4.4,6.6 z"
             id="path212"
             inkscape:connector-curvature="0"
             style="opacity:0.38999999" />
          <path
             d="m 29.6,183.5 c 0,2.4 -2,3.4 -4.4,2.2 -2.4,-1.2 -4.4,-4.2 -4.4,-6.6 0,-2.4 2,-3.4 4.4,-2.2 2.4,1.2 4.4,4.2 4.4,6.6 z"
             id="path214"
             inkscape:connector-curvature="0"
             style="fill:#2d3134" />
          <path
             d="m 39.3,188.5 c 0,7.8 -6.3,11 -14.1,7.1 -7.8,-3.9 -14.1,-13.4 -14.1,-21.2 0,-7.8 6.3,-11 14.1,-7.1 7.8,3.9 14.1,13.3 14.1,21.2 z"
             id="path216"
             inkscape:connector-curvature="0"
             style="opacity:0.06000001" />
        </g>
        <path
           d="m 121.9,204.7 c -0.4,0 -0.8,0 -1.3,-0.1 -3.6,-0.4 -6.6,-2.6 -8.1,-5.9 l -8.3,-17.8 c -0.5,-1 0,-2.2 1,-2.7 1,-0.5 2.2,0 2.7,1 l 8.3,17.8 c 0.9,2 2.8,3.3 5,3.6 2.2,0.3 4.3,-0.6 5.7,-2.3 l 5.5,-6.9 c 1.1,-1.3 1.7,-3 1.7,-4.7 0,-1.1 0.9,-2 2,-2 1.1,0 2,0.9 2,2 0,2.6 -0.9,5.2 -2.5,7.2 l -5.5,6.9 c -2.1,2.5 -5.1,3.9 -8.2,3.9 z"
           id="path220"
           inkscape:connector-curvature="0"
           style="fill:#2d3134" />
        <path
           d="m 81.9,224.7 c -0.4,0 -0.8,0 -1.3,-0.1 C 77,224.2 74,222 72.5,218.7 l -8,-17.2 -39.4,-19.7 c -1,-0.5 -1.4,-1.7 -0.9,-2.7 0.5,-1 1.7,-1.4 2.7,-0.9 l 40.6,20.3 8.6,18.5 c 0.9,2 2.8,3.3 5,3.6 2.2,0.3 4.3,-0.6 5.7,-2.3 l 5.5,-6.9 c 1.1,-1.3 1.7,-3 1.7,-4.7 0,-1.1 0.9,-2 2,-2 1.1,0 2,0.9 2,2 0,2.6 -0.9,5.2 -2.5,7.2 l -5.5,6.9 c -2,2.5 -5,3.9 -8.1,3.9 z"
           id="path222"
           inkscape:connector-curvature="0"
           style="fill:#2d3134" />
        <g
           id="g234">
          <polygon
             points="32,189 92,209 140,185 140,165 60,125 12,149 "
             id="polygon224"
             style="fill:#ff9900" />
          <polygon
             points="32,189 12,149 92,189 92,209 "
             id="polygon226"
             style="opacity:0.11000001" />
          <polygon
             points="78,164 60,127 136,165 114,176 "
             id="polygon228"
             style="opacity:0.11000001" />
          <polygon
             points="140,185 140,165 92,189 92,209 "
             id="polygon230"
             style="opacity:0.28999999" />
          <polygon
             points="78,164 62,172 16,149 60,127 "
             id="polygon232"
             style="opacity:0.28999999" />
        </g>
        <path
           d="m 76,141 c -24.3,-3.3 -39.8,6.8 -46,15 l 62,31 30,-15 c 0,-5.7 -21.7,-27.7 -46,-31 z"
           id="path236"
           inkscape:connector-curvature="0"
           style="fill:#656565" />
        <path
           d="m 96,209.6 c -1.1,0 -2,-0.9 -2,-2 v -19 l 19.1,-50.3 c 0.8,-3.1 2.9,-5.6 5.8,-7.1 l 31.5,-15.8 c 1.6,-0.8 3.4,-0.6 4.7,0.5 1.4,1.1 1.9,2.8 1.5,4.5 l -0.1,0.2 -18.5,48.8 v 18.3 c 0,1.1 -0.9,2 -2,2 -1.1,0 -2,-0.9 -2,-2 v -19 l 18.8,-49.2 c 0,-0.1 0,-0.3 -0.2,-0.3 -0.1,-0.1 -0.3,-0.1 -0.4,0 L 120.7,135 c -1.8,0.9 -3.2,2.6 -3.7,4.6 l -0.1,0.2 -18.9,49.6 v 18.3 c 0,1 -0.9,1.9 -2,1.9 z"
           id="path238"
           inkscape:connector-curvature="0"
           style="fill:#2d3134" />
        <g
           id="g288">
          <path
             d="m 150.3,124.7 c 0,0 -2.3,0 -5.6,0.2 -2.6,0.1 -6.3,0 -7.6,-3.1 -0.5,-1.3 2.7,-6.5 5.9,-7.1 2,-0.4 3.5,-0.4 5.2,0.4 2.2,1.1 3.4,1.3 3.4,1.3 z"
             id="path240"
             inkscape:connector-curvature="0"
             style="fill:#fbd7c7" />
          <path
             d="m 183.7,118.3 c 0,0 -30.4,-3.3 -31.9,-2.9 -1.4,0.5 -5.5,9.4 -1.9,9.6 3.7,0.1 40.1,6.6 42.7,4.9 2.6,-1.7 14,-19.9 14,-19.9 z"
             id="path242"
             inkscape:connector-curvature="0"
             style="fill:#99cc33" />
          <path
             d="m 200.9,103 c 0,0 -6.2,3.1 -9.8,3.7 -3.6,0.6 -10.6,0.4 -10.6,0.4 0,0 -1,-6.5 -1.6,-7.8 -0.6,-1.2 -2.9,-3 -3.3,-5.7 -0.4,-2.8 -1.8,-14.1 0,-16.3 1.8,-2.2 11.5,-7.9 17.1,-1.2 5.6,6.7 2,17.8 2.4,20.4 0.4,2.6 5.8,6.5 5.8,6.5 z"
             id="path244"
             inkscape:connector-curvature="0"
             style="fill:#fbd7c7" />
          <path
             d="m 195.5,98.1 c 0,0 -6.4,2.3 -10.2,1.6 -3.8,-0.7 -6.1,-4.5 -6.1,-4.5 0,0 -0.1,-5.1 -1.2,-6.9 -1.1,-1.8 -1.6,-0.8 -1.6,-0.8 0,0 -2.1,-4.1 -1.6,-6.9 0.5,-2.8 3.4,-9.9 13.5,-7.3 7.9,2 9.1,10.3 9,13.9 -0.2,3.5 -1.8,10.9 -1.8,10.9 z"
             id="path246"
             inkscape:connector-curvature="0"
             style="fill:#762c07" />
          <path
             d="m 201,102.8 c 0,0 -4.2,1.3 -8.8,2.1 -4.6,0.8 -12.1,2.1 -12.1,2.1 0,0 -5.3,3 -6.8,3.9 -2.1,1.3 -6.3,3.1 -5.4,10.7 0.8,7.5 5.6,21.3 5.6,21.3 0,0 2.1,11.4 1.7,15.4 -0.5,6 -1.9,14.6 -0.8,16.9 0.7,1.5 13.2,-2.8 21.3,-3.1 8.1,-0.3 13.5,-1.7 13.8,-2.9 0.3,-1.3 0,-13.3 0.7,-17.6 0.7,-4.3 7.1,-36.8 5.8,-41.2 -1.7,-6.6 -15,-7.6 -15,-7.6 z"
             id="path248"
             inkscape:connector-curvature="0"
             style="fill:#99cc33" />
          <g
             id="g260">
            <path
               d="m 173.8,84.4 c -3,-1 -6.9,-5.7 -5.9,-8.9 1,-3.1 5.7,-4.8 8.9,-4.7 3.1,0.1 -3,13.6 -3,13.6 z"
               id="path250"
               inkscape:connector-curvature="0"
               style="fill:#ffcc00" />
            <path
               d="m 173.8,84.4 c -3,-1 -6.9,-5.7 -5.9,-8.9 1,-3.1 5.7,-4.8 8.9,-4.7 3.1,0.1 -3,13.6 -3,13.6 z"
               id="path252"
               inkscape:connector-curvature="0"
               style="opacity:0.2" />
            <path
               d="m 198.3,87.1 c -2.2,2.5 -12.1,4.7 -19.5,0.9 -7.4,-3.9 -9.7,-9.5 -7.7,-14.3 2.8,-6.6 15.7,-9.9 22.8,-3.8 7,6.1 5.9,15.5 4.4,17.2 z"
               id="path254"
               inkscape:connector-curvature="0"
               style="fill:#ffcc00" />
            <path
               d="m 176.6,68.9 c 5.1,-2.2 11.8,-2.4 16.3,1.5 3.1,2.7 4.8,6.3 5.4,9.3 -0.4,0.2 -0.8,0.3 -1.3,0.5 -0.6,-3 -2.3,-6.6 -5.4,-9.2 -4.1,-3.7 -10.1,-3.8 -15,-2.1 z"
               id="path256"
               inkscape:connector-curvature="0"
               style="opacity:0.2" />
            <path
               d="m 190.7,71.3 c 2.8,2.7 4.2,6.1 4.7,9.2 -0.4,0.1 -0.8,0.2 -1.2,0.2 -0.5,-3 -1.9,-6.3 -4.6,-8.9 -3.7,-3.6 -9.1,-3.9 -13.5,-2.3 4.5,-2.1 10.6,-2 14.6,1.8 z"
               id="path258"
               inkscape:connector-curvature="0"
               style="opacity:0.2" />
          </g>
          <path
             d="m 232.2,290.6 c -9.9,5.3 -31.2,-7.4 -43.5,-14.6 -12.3,-7.2 -35.3,-21.4 -25.3,-27.4 10,-6 24.9,4 38.2,11.9 13.2,8 44.5,22.6 30.6,30.1 z"
             id="path262"
             inkscape:connector-curvature="0"
             style="opacity:0.2" />
          <path
             d="m 190.4,263.5 c -0.8,1.8 -4.3,4.3 -8,1.9 -3.8,-2.3 -8.4,-5.5 -11.8,-6.8 -3.4,-1.3 -5.2,-2.9 -4.9,-5.8 0.4,-3.7 4.5,-4.9 9.2,-3.2 4.6,1.8 15.5,13.9 15.5,13.9 z"
             id="path264"
             inkscape:connector-curvature="0"
             style="fill:#262626" />
          <path
             d="m 185.6,264 c -4,-2 -7.4,-5.4 -11.1,-6.7 -3.7,-1.3 -7.9,-2.4 -8.2,-5 -0.3,-2.5 4.5,-4.4 9.1,-2.4 4.6,2 14,3.4 14,3.4 z"
             id="path266"
             inkscape:connector-curvature="0"
             style="fill:#2d3134" />
          <path
             d="m 210.3,157.6 c 1,7.4 4.9,20.8 0.2,29.5 -4.7,8.6 -22.1,27.1 -22.6,29 -0.5,1.8 4.3,13.2 4.8,24.2 0.3,5.4 -0.4,13.7 -0.5,15.4 -0.1,2.3 0.9,9.4 -4.8,9.3 -5.7,-0.1 -10.9,-3.7 -12.1,-7.9 -1.2,-4.2 0.2,-7.2 0.2,-7.2 0,0 0.5,0.4 0.6,-1.8 0.1,-2.1 0.4,-14.9 -2.1,-25.5 -0.4,-1.6 -2.1,-8.1 -2.2,-11.6 -0.1,-3.1 -0.4,-16.3 4.8,-25.2 3.2,-5.4 7.5,-10.4 10.1,-13.1 1.3,-1.4 12.5,-34.8 12.5,-34.8 h 4.1 z"
             id="path268"
             inkscape:connector-curvature="0"
             style="fill:#06547a" />
          <path
             d="m 210.3,157.6 c 1,7.4 4.9,20.8 0.2,29.5 -4.7,8.6 -22.1,27.1 -22.6,29 -0.5,1.8 4.3,13.2 4.8,24.2 0.3,5.4 -0.4,13.7 -0.5,15.4 -0.1,2.3 0.9,9.4 -4.8,9.3 -5.7,-0.1 -10.9,-3.7 -12.1,-7.9 -1.2,-4.2 0.2,-7.2 0.2,-7.2 0,0 0.5,0.4 0.6,-1.8 0.1,-2.1 0.4,-14.9 -2.1,-25.5 -0.4,-1.6 -2.1,-8.1 -2.2,-11.6 -0.1,-3.1 -0.4,-16.3 4.8,-25.2 3.2,-5.4 7.5,-10.4 10.1,-13.1 1.3,-1.4 12.5,-34.8 12.5,-34.8 h 4.1 z"
             id="path270"
             inkscape:connector-curvature="0"
             style="opacity:0.2" />
          <path
             d="m 228.8,286.4 c -1.6,0.6 -1.4,1.4 -5.2,1.6 -1.6,0.1 -3.9,-0.4 -6.1,-0.5 -2.9,-0.1 -4.7,0.1 -6.9,-0.7 -3.4,-1.1 -8,-3.7 -8.9,-5.2 -1.4,-2.4 0.9,-6.7 4.7,-5.7 3.5,0.9 5.9,2 7.9,2 2,0 9.2,-1.2 9.2,-1.2 z"
             id="path272"
             inkscape:connector-curvature="0"
             style="fill:#262626" />
          <path
             d="m 225.9,284.1 c -2.7,0.8 -13.5,1.2 -14.8,0.7 -1.3,-0.5 -7.9,-2.6 -8.4,-5.2 -0.3,-1.4 0.6,-3.4 2.9,-3.6 1.3,-0.1 3.9,0.6 5.9,1.2 6,1.6 11.1,-0.5 11.1,-0.5 z"
             id="path274"
             inkscape:connector-curvature="0"
             style="fill:#2d3134" />
          <path
             d="m 204.4,180.7 c -0.8,5.6 -4.6,13.4 -4.6,13.4 0,0 2.1,21.4 3.1,25.5 2.3,9 9.6,17.5 14.2,25.3 4,6.8 14.2,27 15.3,31.9 1,4.4 1,9.3 -4.1,9.5 -5.1,0.2 -15.4,-5.5 -16.1,-7.4 -0.7,-1.9 0.6,-3.7 0.6,-3.7 0,0 -9.3,-15.4 -11.4,-18.7 -2.5,-3.9 -7.5,-12.4 -9,-14 -1.5,-1.6 -3.9,-3.4 -5,-5.7 -1.1,-2.3 -8.2,-23.5 -9.8,-28.6 -2.7,-8.9 -3.6,-21.9 -3.9,-31.4 -0.2,-7 1.3,-20 1.3,-20 0,0 -0.6,3.5 2.5,2.4 4.4,-1.6 17.4,-20.9 17.4,-20.9 l 4.3,-0.3 c 0.1,0.1 6.1,37.1 5.2,42.7 z"
             id="path276"
             inkscape:connector-curvature="0"
             style="fill:#06547a" />
          <path
             d="m 201.8,103 3.3,0.3 c 0,0 0.4,8.9 -0.7,21.2 -0.9,10.2 -1.5,13.7 -1.5,13.7 l -3.2,0.1 c 0,0 0.9,-5.1 1.7,-15.4 0.8,-9.8 0.4,-19.9 0.4,-19.9 z"
             id="path278"
             inkscape:connector-curvature="0"
             style="fill:#06547a" />
          <path
             d="m 201.8,103 3.3,0.3 c 0,0 0.4,8.9 -0.7,21.2 -0.9,10.2 -1.5,13.7 -1.5,13.7 l -3.2,0.1 c 0,0 0.9,-5.1 1.7,-15.4 0.8,-9.8 0.4,-19.9 0.4,-19.9 z"
             id="path280"
             inkscape:connector-curvature="0"
             style="opacity:0.2" />
          <path
             d="m 179.4,107.2 -2.9,1.8 c 0,0 4.1,-0.6 11.5,11.5 3.2,5.2 7.3,18 7.3,18 l 3.3,-0.3 c 0,0 -3.9,-13.2 -10.4,-22.8 -4.3,-6.5 -8.8,-8.2 -8.8,-8.2 z"
             id="path282"
             inkscape:connector-curvature="0"
             style="fill:#06547a" />
          <path
             d="m 130,136.3 c 0,0 -2.1,-0.8 -5.3,-1.8 -2.5,-0.8 -5.4,-1.6 -5.5,-4.9 0,-1.4 4.5,-6.6 7.7,-6 2.1,0.3 3.2,1.6 4.5,3 1.7,1.8 2.8,2.4 2.8,2.4 z"
             id="path284"
             inkscape:connector-curvature="0"
             style="fill:#fbd7c7" />
          <path
             d="m 170.8,114.5 c -1.5,-0.9 -5,3.5 -6.4,8.3 -1.4,4.9 -8.2,9.6 -8.2,9.6 0,0 -21.2,-4.5 -22.7,-4.3 -1.5,0.2 -7.1,8.3 -3.5,9.1 3.6,0.8 25.7,9.3 28.8,8.9 3.4,-0.5 11.2,-3.7 18.5,-13.7 4.3,-6 2.9,-5.7 2.9,-5.7 z"
             id="path286"
             inkscape:connector-curvature="0"
             style="fill:#99cc33" />
        </g>
      </g>
    </g>
  </g>
</svg>
