<?xml version="1.0" encoding="UTF-8" standalone="no"?>
<!-- Created with Inkscape (http://www.inkscape.org/) -->

<svg
   xmlns:dc="http://purl.org/dc/elements/1.1/"
   xmlns:cc="http://creativecommons.org/ns#"
   xmlns:rdf="http://www.w3.org/1999/02/22-rdf-syntax-ns#"
   xmlns:svg="http://www.w3.org/2000/svg"
   xmlns="http://www.w3.org/2000/svg"
   xmlns:sodipodi="http://sodipodi.sourceforge.net/DTD/sodipodi-0.dtd"
   xmlns:inkscape="http://www.inkscape.org/namespaces/inkscape"
   width="13.948485mm"
   height="24.188683mm"
   viewBox="0 0 13.948485 24.188683"
   version="1.1"
   id="svg581"
   inkscape:version="0.92.2 (5c3e80d, 2017-08-06)"
   sodipodi:docname="engineers-12.svg">
  <defs
     id="defs575" />
  <sodipodi:namedview
     id="base"
     pagecolor="#ffffff"
     bordercolor="#666666"
     borderopacity="1.0"
     inkscape:pageopacity="0.0"
     inkscape:pageshadow="2"
     inkscape:zoom="0.7"
     inkscape:cx="-372.15303"
     inkscape:cy="22.007733"
     inkscape:document-units="mm"
     inkscape:current-layer="svg581"
     showgrid="false"
     inkscape:window-width="1360"
     inkscape:window-height="706"
     inkscape:window-x="-8"
     inkscape:window-y="-8"
     inkscape:window-maximized="1"
     fit-margin-top="0"
     fit-margin-left="0"
     fit-margin-right="0"
     fit-margin-bottom="0" />
  <metadata
     id="metadata578">
    <rdf:RDF>
      <cc:Work
         rdf:about="">
        <dc:format>image/svg+xml</dc:format>
        <dc:type
           rdf:resource="http://purl.org/dc/dcmitype/StillImage" />
        <dc:title></dc:title>
      </cc:Work>
    </rdf:RDF>
  </metadata>
  <g
     inkscape:label="Layer 1"
     inkscape:groupmode="layer"
     id="layer1"
     transform="translate(-148.43834,140.58445)" />
  <g
     id="i394"
     class="top-level-node"
     transform="matrix(0.11367874,0,0,0.11367874,-0.71084841,-1.9552743)">
    <g
       id="g817">
      <g
         id="g815">
        <path
           d="m 103,37.5 c 0,0 9.2,-4.3 12.9,-4.7 3.7,-0.4 12.5,2.3 13,3.9 0.5,1.6 -2.6,1.8 -3.9,1.9 -1.3,0.1 -5.2,-0.6 -7,-0.3 -1.5,0.2 -3.8,1.3 -3.8,1.3 0,0 6.4,-0.2 6.1,1.3 -0.3,1.5 -5.1,1.5 -7.3,1.3 -0.6,0 -3.2,0 -4.8,0.4 -0.6,0.1 -3.3,1.1 -3.3,1.1 z"
           id="path771"
           inkscape:connector-curvature="0"
           style="fill:#fbd7c7" />
        <path
           d="m 46.7,48.3 c 2.5,-2.2 10.9,-2.2 15.2,-2.7 5.5,-0.6 17.1,-2.7 20.9,-3.7 8.1,-2.2 20.5,-5.8 21.7,-5.2 1.2,0.6 3,4.8 2.5,6.9 -0.5,1.7 -5.8,2.9 -13,5.6 -4.6,1.7 -10.7,3.2 -14.4,4.5 C 75.9,55 64.3,58.5 59.8,60 49.9,63.3 41.9,52.7 46.7,48.3 Z"
           id="path773"
           inkscape:connector-curvature="0"
           style="fill:#99cc33" />
        <path
           d="M 58.1,105.8 C 55.6,88.2 57,77 57.2,72.5 57.5,67.1 57.9,62.5 59.4,59.9 61.5,56.3 59,53.5 56.2,51.7 53.5,50 49,47.4 46.3,46.6 L 28.8,46.3 c 0,0 -10,5 -13.7,8.5 -6.1,5.7 -0.6,18.4 3.5,29.9 6.3,17.8 3.2,31.6 3.7,32.5 0.8,1.6 30.3,3.4 37.1,-1.6 0.8,-0.5 -0.7,-5.9 -1.3,-9.8 z"
           id="path775"
           inkscape:connector-curvature="0"
           style="fill:#99cc33" />
        <path
           d="m 11.2,223.9 c -12.3,-8.2 0.2,-17 17.1,-21.3 7.4,-1.9 20.2,-11.6 39.8,-1.1 15.8,8.5 -7.5,12.3 -16.4,16.8 -10.6,5.4 -18.9,19.8 -40.5,5.6 z"
           id="path777"
           inkscape:connector-curvature="0"
           style="opacity:0.2" />
        <path
           d="m 45.6,192.4 10.4,1.2 c 0,0 0.2,1.8 2.1,3.8 1.9,2 10.1,6.4 11.7,7.6 2.8,2.1 0.9,5 -1.5,5.3 -2.6,0.4 -6.1,-0.4 -10.5,-2 -3.4,-1.2 -7.4,-2.3 -11.3,-3.6 -3.3,-1.1 -2.5,-5.9 -2,-8 0.6,-2 1.1,-4.3 1.1,-4.3 z"
           id="path779"
           inkscape:connector-curvature="0"
           style="fill:#2d3134" />
        <path
           d="m 68.3,208.8 c -2.7,0.4 -6.5,-0.5 -11.2,-2.2 -3.7,-1.3 -7.9,-2.5 -12,-3.9 -0.3,-0.1 -0.5,-0.2 -0.7,-0.3 0.3,1 1,1.9 2.2,2.3 3.8,1.3 7.8,2.4 11.3,3.6 4.4,1.6 7.9,2.4 10.5,2 1.8,-0.3 3.2,-1.9 2.8,-3.5 -0.6,1 -1.7,1.8 -2.9,2 z"
           id="path781"
           inkscape:connector-curvature="0"
           style="opacity:0.4" />
        <path
           d="m 55.9,93.5 c 0,0 6.1,23.2 5.7,34.4 -0.4,11.2 -2.4,23.6 -2.9,33 -0.5,9.4 -0.4,30.7 0.1,34.9 0.6,4.8 -1.8,5.1 -4.8,5.2 -3.1,0.1 -9.1,-0.9 -10.1,-1.9 -1,-1 -0.9,-8.7 -0.9,-14.3 0,-5.6 -0.5,-14 -0.1,-21.9 0.3,-6.8 -2.2,-16.2 -3.6,-21.4 -1.4,-5.2 -7.4,-22.6 -7.8,-27.4 -0.4,-4.8 -0.1,-15.2 -0.1,-15.2 z"
           id="path783"
           inkscape:connector-curvature="0"
           style="fill:#06547a" />
        <path
           d="m 55.9,93.5 c 0,0 6.1,23.2 5.7,34.4 -0.4,11.2 -2.4,23.6 -2.9,33 -0.5,9.4 -0.4,30.7 0.1,34.9 0.6,4.8 -1.8,5.1 -4.8,5.2 -3.1,0.1 -9.1,-0.9 -10.1,-1.9 -1,-1 -0.9,-8.7 -0.9,-14.3 0,-5.6 -0.5,-14 -0.1,-21.9 0.3,-6.8 -2.2,-16.2 -3.6,-21.4 -1.4,-5.2 -7.4,-22.6 -7.8,-27.4 -0.4,-4.8 -0.1,-15.2 -0.1,-15.2 z"
           id="path785"
           inkscape:connector-curvature="0"
           style="opacity:0.2" />
        <path
           d="m 9.5,208.2 c 0.2,0.1 10.6,2.2 10.6,2.2 0,0 2.7,6 5.3,8.1 2.1,1.8 8,5.7 7.7,7.9 -0.3,2.2 -6.3,4 -11.9,1.1 -2.6,-1.3 -12.9,-6.6 -13.4,-10.1 -0.6,-3.9 1.7,-9.2 1.7,-9.2 z"
           id="path787"
           inkscape:connector-curvature="0"
           style="fill:#2d3134" />
        <path
           d="m 21.2,225.8 c -2.6,-1.3 -12.9,-6.6 -13.4,-10.1 0,-0.2 0,-0.3 -0.1,-0.5 -0.1,0.8 -0.1,1.6 0.1,2.3 0.5,3.5 10.8,8.8 13.4,10.1 5.6,2.9 11.6,1.1 11.9,-1.1 0,-0.3 -0.1,-0.7 -0.3,-1.2 -1.2,1.9 -6.6,3.1 -11.6,0.5 z"
           id="path789"
           inkscape:connector-curvature="0"
           style="opacity:0.4" />
        <g
           id="g797"
           style="fill:#06547a">
          <path
             d="m 53.9,67.7 c 0.2,1.6 0.3,12.7 4,34.3 -0.1,1 -9.9,6.5 -10.1,7.8 -1.2,8 -6.3,33.3 -8.1,34.4 -3.7,12.1 -6.5,19.8 -8.3,26.8 -1.8,7 -5.9,23.7 -7,32 -0.4,3.2 -1,12 -1.7,12.9 -3.3,4.1 -11.3,2 -12.9,0.6 -1.7,-1.6 -2.6,-2.4 -2.2,-5.5 0.4,-3.1 1.7,-21.3 2.7,-27.8 1.7,-10.7 5,-15 6.1,-20.1 1.1,-5.1 -1.1,-24.1 2.3,-42 3.4,-17.9 8.1,-51.4 8.1,-51.4 z"
             id="path791"
             inkscape:connector-curvature="0" />
          <path
             d="m 20.7,50.9 c 0,0 4.3,3.7 6.4,11.4 1.7,5.9 1.7,10.6 2.2,10.7 0.5,0.1 4.3,0 4.3,0 0,0 -0.1,-7.5 -3.3,-15.6 -1.9,-4.8 -5.9,-8.9 -5.9,-8.9 z"
             id="path793"
             inkscape:connector-curvature="0" />
          <path
             d="m 51.7,48.2 c 0,0 1.1,5.7 1.4,12.7 0.3,5.3 0.3,8 0.3,8 l -3.8,0.6 c 0,0 0.3,-2.3 -0.1,-9.9 -0.5,-8.7 -1,-12.9 -1,-12.9 z"
             id="path795"
             inkscape:connector-curvature="0" />
        </g>
        <path
           d="m 29.5,46.2 c 0,0 2.6,-1.1 2.7,-2.9 0.2,-1.9 -5.6,-9.2 -0.8,-16 4.8,-6.8 16.9,-5.5 19,1.2 2.1,6.8 2.3,19.6 0.7,21 -2,1.7 -5.6,1 -5.6,1 0,0 -1.2,3.1 -0.9,4.9 0.4,2.5 -1.9,2.7 -3.2,2.7 C 39.7,58 32,53.2 29.5,46.2 Z"
           id="path799"
           inkscape:connector-curvature="0"
           style="fill:#fbd7c7" />
        <path
           d="m 31.5,41.6 1.5,0.9 c 0,0 -3.9,-5.4 -1.3,-6.5 2.6,-1.1 3.9,2.2 3.9,2.2 0,0 1.9,-3.4 5,-3.7 3.1,-0.3 11.4,-2.2 11.1,-4.8 -0.1,-1 -3.4,-10 -13.2,-8.3 -9.8,1.7 -10.2,9.9 -9.6,13.2 0.6,3.3 2.6,7 2.6,7 z"
           id="path801"
           inkscape:connector-curvature="0"
           style="fill:#762c07" />
        <path
           d="m 55.2,32.5 c 0,0 2.8,1.2 2.8,2.1 0,0.9 -8.3,4.5 -14,3.9 C 38.3,37.9 27.9,35 27.3,33.5 26.7,32 28,17.2 40,17.2 c 14.1,0 15.2,15.3 15.2,15.3 z"
           id="path803"
           inkscape:connector-curvature="0"
           style="fill:#ffcc00" />
        <path
           d="m 58,34.5 c 0,0.9 -8.3,4.5 -14,3.9 -4.6,-0.5 -12.1,-2.4 -15.2,-4 3.1,1.1 7.3,2.2 10.4,2.1 5.4,-0.2 14.2,-2.8 16.1,-4.1 -0.1,0.1 2.7,1.3 2.7,2.1 z"
           id="path805"
           inkscape:connector-curvature="0"
           style="opacity:0.2" />
        <path
           d="m 53.7,30.7 -1.2,0.4 C 51.9,27.5 49.2,17.8 38.7,17.8 c -0.6,0 -1.2,0.1 -1.8,0.1 0.9,-0.3 1.9,-0.4 3,-0.4 10.4,0 13.2,9.5 13.8,13.2 z"
           id="path807"
           inkscape:connector-curvature="0"
           style="opacity:0.2" />
        <path
           d="M 49.3,32.2 C 49,29.6 47.3,18.4 38.1,18.4 c -0.5,0 -1,0.1 -1.4,0.1 0.7,-0.3 1.5,-0.4 2.4,-0.4 9.1,0 11.2,10.9 11.5,13.6 z"
           id="path809"
           inkscape:connector-curvature="0"
           style="opacity:0.2" />
        <path
           d="m 19.2,123.4 c 0,0 -0.2,7.9 0,10.5 0.2,2.6 1.2,6.3 2.1,7.1 1.6,1.6 4.7,2.9 6.8,2.4 2.1,-0.5 2.2,-2.5 2.2,-3.3 0,-0.8 -0.3,-7.9 -0.3,-7.9 0,0 1.1,0.1 1.3,1.1 0.3,1 -0.7,2.3 0.3,3 1,0.7 1.8,-1.6 2,-2.9 0.2,-1.2 -0.4,-3.4 -1,-4.1 -0.6,-0.7 -1.2,-1.7 -2.4,-2.8 -1.2,-1.1 -3.8,-4.1 -3.8,-4.1 z"
           id="path811"
           inkscape:connector-curvature="0"
           style="fill:#fbd7c7" />
        <path
           d="m 20.3,54.1 c 4.7,1.1 7.7,7 6.1,13.9 -1.6,6.9 -3.7,13.1 -4.8,15.9 -1.1,2.8 -2.2,8 -2.2,8 0,0 1.6,4.7 3.4,11.3 1.8,6.7 5.5,19.2 5,20.3 -0.5,1.1 -8.2,2.6 -9.3,2.5 C 17.4,125.9 14.7,115.9 13,110.3 11.3,104.7 7.7,95.5 8,91.8 8.3,88.2 10.8,69.6 11.1,65.9 11.8,59.5 15,52.8 20.3,54.1 Z"
           id="path813"
           inkscape:connector-curvature="0"
           style="fill:#99cc33" />
      </g>
    </g>
  </g>
</svg>
