<?xml version="1.0" encoding="UTF-8" standalone="no"?>
<!-- Created with Inkscape (http://www.inkscape.org/) -->

<svg
   xmlns:dc="http://purl.org/dc/elements/1.1/"
   xmlns:cc="http://creativecommons.org/ns#"
   xmlns:rdf="http://www.w3.org/1999/02/22-rdf-syntax-ns#"
   xmlns:svg="http://www.w3.org/2000/svg"
   xmlns="http://www.w3.org/2000/svg"
   xmlns:sodipodi="http://sodipodi.sourceforge.net/DTD/sodipodi-0.dtd"
   xmlns:inkscape="http://www.inkscape.org/namespaces/inkscape"
   width="10.325245mm"
   height="24.328064mm"
   viewBox="0 0 10.325245 24.328064"
   version="1.1"
   id="svg581"
   inkscape:version="0.92.2 (5c3e80d, 2017-08-06)"
   sodipodi:docname="engineers-11.svg">
  <defs
     id="defs575" />
  <sodipodi:namedview
     id="base"
     pagecolor="#ffffff"
     bordercolor="#666666"
     borderopacity="1.0"
     inkscape:pageopacity="0.0"
     inkscape:pageshadow="2"
     inkscape:zoom="0.7"
     inkscape:cx="-384.88764"
     inkscape:cy="182.50372"
     inkscape:document-units="mm"
     inkscape:current-layer="svg581"
     showgrid="false"
     inkscape:window-width="1360"
     inkscape:window-height="706"
     inkscape:window-x="-8"
     inkscape:window-y="-8"
     inkscape:window-maximized="1"
     fit-margin-top="0"
     fit-margin-left="0"
     fit-margin-right="0"
     fit-margin-bottom="0" />
  <metadata
     id="metadata578">
    <rdf:RDF>
      <cc:Work
         rdf:about="">
        <dc:format>image/svg+xml</dc:format>
        <dc:type
           rdf:resource="http://purl.org/dc/dcmitype/StillImage" />
        <dc:title></dc:title>
      </cc:Work>
    </rdf:RDF>
  </metadata>
  <g
     inkscape:label="Layer 1"
     inkscape:groupmode="layer"
     id="layer1"
     transform="translate(-151.8077,98.259274)" />
  <g
     id="i395"
     class="top-level-node"
     transform="matrix(0.11367874,0,0,0.11367874,-1.048773,-1.8403954)">
    <g
       id="g872">
      <g
         id="g870">
        <path
           d="m 74.1,41.6 c 0,0 9.2,-4.3 12.9,-4.7 3.7,-0.4 12.5,2.3 13,3.9 0.5,1.6 -2.6,1.8 -3.9,1.9 -1.3,0.1 -5.2,-0.6 -7,-0.3 -1.5,0.2 -3.8,1.3 -3.8,1.3 0,0 6.4,-0.2 6.1,1.3 -0.3,1.5 -5.1,1.5 -7.3,1.3 -0.6,0 -3.2,0 -4.8,0.4 -0.6,0.1 -3.3,1.1 -3.3,1.1 z"
           id="path820"
           inkscape:connector-curvature="0"
           style="fill:#fbd7c7" />
        <path
           d="M 17.9,52.4 C 20.4,50.2 28.8,50.2 33.1,49.7 38.6,49.1 50.2,47 54,46 c 8.1,-2.2 20.5,-5.8 21.7,-5.2 1.2,0.6 3,4.8 2.5,6.9 -0.5,1.7 -5.8,2.9 -13,5.6 C 60.6,55 54.5,56.5 50.8,57.8 47,59 35.4,62.5 31,64 21.1,67.3 13,56.7 17.9,52.4 Z"
           id="path822"
           inkscape:connector-curvature="0"
           style="fill:#99cc33" />
        <path
           d="m 28.4,50.2 c 0,0 4.3,4.8 7.7,5.8 3.9,1.1 11.1,0.1 11.1,0.1 0,0 2.3,-8.3 2.9,-9.5 0.6,-1.2 2.8,-1.1 3.2,-3.8 0.4,-2.7 1.8,-15.7 0,-17.9 -1.8,-2.2 -11.4,-7.7 -16.9,-1.2 -5.5,6.5 -2,17.5 -2.4,20.1 -0.4,2.5 -5.6,6.4 -5.6,6.4 z"
           id="path824"
           inkscape:connector-curvature="0"
           style="fill:#fbd7c7" />
        <path
           d="m 33.6,45.3 c 0,0 6.3,2.3 10.1,1.6 3.7,-0.7 6,-4.4 6,-4.4 0,0 0.1,-5 1.2,-6.8 1.1,-1.8 1.6,-0.8 1.6,-0.8 0,0 2.3,-4 2.2,-6.9 -0.2,-3.8 -3.9,-9.7 -13.8,-7.2 -7.9,2 -9,10.2 -8.9,13.7 0.1,3.5 1.6,10.8 1.6,10.8 z"
           id="path826"
           inkscape:connector-curvature="0"
           style="fill:#762c07" />
        <path
           d="m 53.7,33.4 c 2.9,-1 6.7,-5.5 5.7,-8.6 -1,-3 -5.5,-4.6 -8.6,-4.6 -3,0.2 2.9,13.2 2.9,13.2 z"
           id="path828"
           inkscape:connector-curvature="0"
           style="fill:#ffcc00" />
        <path
           d="m 53.7,33.4 c 2.9,-1 6.7,-5.5 5.7,-8.6 -1,-3 -5.5,-4.6 -8.6,-4.6 -3,0.2 2.9,13.2 2.9,13.2 z"
           id="path830"
           inkscape:connector-curvature="0"
           style="opacity:0.2" />
        <path
           d="m 30.1,36 c 2.1,2.4 11.7,4.6 18.9,0.8 7.1,-3.8 9.4,-9.1 7.4,-13.8 -2.7,-6.4 -15.2,-9.6 -22,-3.7 -6.8,5.9 -5.8,15 -4.3,16.7 z"
           id="path832"
           inkscape:connector-curvature="0"
           style="fill:#ffcc00" />
        <path
           d="m 31.3,36.4 c -1.5,-1.7 -2.5,-10.7 4.3,-16.6 4,-3.4 9.9,-3.8 14.7,-2.2 -4.9,-2.1 -11.6,-2 -15.9,1.8 -6.8,5.9 -5.8,15 -4.3,16.6 0.6,0.7 1.8,1.3 3.3,1.8 -1,-0.4 -1.7,-0.9 -2.1,-1.4 z"
           id="path834"
           inkscape:connector-curvature="0"
           style="fill:#ffcc00" />
        <path
           d="m 51,18.4 c -4.9,-2.1 -11.4,-2.3 -15.7,1.4 -3,2.6 -4.6,6 -5.2,8.9 0.4,0.2 0.8,0.3 1.2,0.4 0.6,-2.9 2.3,-6.4 5.2,-8.9 4,-3.4 9.8,-3.4 14.5,-1.8 z"
           id="path836"
           inkscape:connector-curvature="0"
           style="opacity:0.2" />
        <path
           d="m 37.4,20.7 c -2.7,2.6 -4,5.9 -4.5,8.9 0.4,0.1 0.7,0.1 1.1,0.2 0.5,-2.9 1.8,-6.1 4.5,-8.6 C 42,17.8 47.3,17.4 51.6,19 47.2,16.9 41.2,17 37.4,20.7 Z"
           id="path838"
           inkscape:connector-curvature="0"
           style="opacity:0.2" />
        <path
           d="M 67.5,225 C 83.4,214.3 67.1,210.6 52.8,204.7 39,199.1 28.9,189.7 13,202.2 c -12.8,10.1 10.5,17.6 17.4,21 10.4,5.2 22.3,11.8 37.1,1.8 z"
           id="path840"
           inkscape:connector-curvature="0"
           style="opacity:0.2" />
        <path
           d="m 11.7,205.8 c 0,0 -2,4.2 0.5,5 2.5,0.8 5.3,0 9.6,-2.2 4.3,-2.2 12.1,-4.2 13.9,-7.4 1.7,-3.1 -2.8,-6.1 -9.6,-4.2 -6.8,1.9 -5.5,1.5 -5.5,1.5 z"
           id="path842"
           inkscape:connector-curvature="0"
           style="fill:#2d3134" />
        <path
           d="m 35.8,198.7 c 0,0.4 -0.1,0.8 -0.4,1.2 -1.8,3.2 -9.6,5.2 -13.9,7.4 -4.3,2.2 -7.2,3 -9.6,2.2 -0.4,-0.1 -0.7,-0.4 -0.9,-0.6 0,0.9 0.3,1.7 1.2,2.1 2.5,0.8 5.3,0 9.6,-2.2 4.3,-2.2 12.1,-4.2 13.9,-7.4 0.6,-1 0.6,-1.9 0.1,-2.7 z"
           id="path844"
           inkscape:connector-curvature="0"
           style="opacity:0.4" />
        <path
           d="m 49.1,220.7 c 0,0 -3.2,7.1 1.4,8.1 4.6,1 8.6,-3.3 10.9,-4.7 2.4,-1.5 8,-5 9.5,-6.9 1.1,-1.3 0.8,-6.6 -5.8,-5.8 -6.5,0.8 -10.4,4.4 -10.4,4.4 z"
           id="path846"
           inkscape:connector-curvature="0"
           style="fill:#2d3134" />
        <path
           d="m 70.4,212.6 c 0.5,1.2 0.3,2.6 -0.2,3.2 -1.5,1.9 -7.1,5.4 -9.5,6.9 -2.4,1.5 -6.3,5.7 -10.9,4.7 -0.6,-0.1 -1.1,-0.4 -1.4,-0.7 0.3,1 1,1.7 2.3,2 4.6,1 8.6,-3.3 10.9,-4.7 2.4,-1.5 8,-5 9.5,-6.9 0.6,-0.8 0.7,-3.1 -0.7,-4.5 z"
           id="path848"
           inkscape:connector-curvature="0"
           style="opacity:0.4" />
        <path
           d="m 30.1,48.7 c 0,0 -11.6,-0.7 -14.1,4.7 -2.5,5.4 4.4,23.9 6.2,30.5 2.3,8.8 2.4,12.9 1.1,23.6 -0.9,7.2 12.6,1.7 23.3,1.4 6.8,-0.2 11.3,4.2 10.7,-4.1 -0.7,-9.4 1.3,-20.5 1.5,-23.7 0.4,-6.2 1.7,-15.3 -2.2,-19 -3.9,-3.7 -9,-6.1 -9,-6.1 0,0 -6.3,0.5 -12.1,-1.7 -5.8,-2.2 -5.4,-5.6 -5.4,-5.6 z"
           id="path850"
           inkscape:connector-curvature="0"
           style="fill:#99cc33" />
        <path
           d="m 22.7,106.8 c 5.1,0.2 8.4,-21.6 8.4,-21.6 L 36,86 c 0,0 3.4,17.7 10.5,25.6 -2.5,11.7 -6.6,29.6 -9.3,36.4 -4.2,10.4 -9.1,27.7 -10.3,33.8 -1.3,6.5 -2.3,17.1 -2.2,17.9 0.3,2 -3.1,7.6 -8.2,8.8 -5.1,1.2 -6.5,-0.5 -6.5,-1.5 0.3,-5.7 1,-23.7 3.3,-34.3 1.6,-7.4 5.1,-15.7 5.4,-19.8 0.3,-4.1 0.4,-27.3 2.7,-39.9 0.7,-4 1.3,-6.2 1.3,-6.2 z"
           id="path852"
           inkscape:connector-curvature="0"
           style="fill:#06547a" />
        <path
           d="m 22.7,106.8 c 5.1,0.2 8.4,-21.6 8.4,-21.6 L 36,86 c 0,0 3.4,17.7 10.5,25.6 -2.5,11.7 -6.6,29.6 -9.3,36.4 -4.2,10.4 -9.1,27.7 -10.3,33.8 -1.3,6.5 -2.3,17.1 -2.2,17.9 0.3,2 -3.1,7.6 -8.2,8.8 -5.1,1.2 -6.5,-0.5 -6.5,-1.5 0.3,-5.7 1,-23.7 3.3,-34.3 1.6,-7.4 5.1,-15.7 5.4,-19.8 0.3,-4.1 0.4,-27.3 2.7,-39.9 0.7,-4 1.3,-6.2 1.3,-6.2 z"
           id="path854"
           inkscape:connector-curvature="0"
           style="opacity:0.2" />
        <path
           d="m 38.5,86.3 -3.8,-0.5 c 0,0 -2,37.2 2.9,55 2.8,10.4 7.2,20.7 6.4,30.3 -0.8,9.6 -0.1,24.5 0.3,34.2 0.4,11.4 0.9,20.6 3.6,21.3 4.3,1.2 10.5,-3.3 11.7,-6.2 1.2,-3 1.8,-4.4 1.2,-7.5 -0.3,-1.6 -1.5,-18.1 -1.1,-27.1 0.4,-9 1.8,-22.3 3,-32.8 1.2,-10.5 0.8,-20.8 -1.2,-31.8 -1.3,-7.6 -1.5,-14 -1.7,-17.4 -0.1,-1.5 -1,-19.3 -1,-19.3 0,0 -1.7,30.4 -13.1,20.6 -2.8,-2.6 -7.2,-18.8 -7.2,-18.8 z"
           id="path856"
           inkscape:connector-curvature="0"
           style="fill:#06547a" />
        <path
           d="m 28.1,48.5 -3.6,0.3 c 0,0 -0.2,5.3 1.8,17.6 1.7,10.8 5,19.4 5,19.4 l 3.5,0.1 c 0,0 -3.6,-10.3 -5.3,-21.2 -1.3,-9.1 -1.4,-16.2 -1.4,-16.2 z"
           id="path858"
           inkscape:connector-curvature="0"
           style="fill:#06547a" />
        <path
           d="m 28.1,48.5 -3.6,0.3 c 0,0 -0.2,5.3 1.8,17.6 1.7,10.8 5,19.4 5,19.4 l 3.5,0.1 c 0,0 -3.6,-10.3 -5.3,-21.2 -1.3,-9.1 -1.4,-16.2 -1.4,-16.2 z"
           id="path860"
           inkscape:connector-curvature="0"
           style="opacity:0.2" />
        <path
           d="m 44.9,71.2 c 0,0 -0.7,27.2 5.1,37.8 7.2,13.3 11.1,15 11.1,15 z"
           id="path862"
           inkscape:connector-curvature="0"
           style="opacity:0.2" />
        <path
           d="m 62.1,122.7 c 0,0 -0.4,3 0.3,5.2 0.7,2.2 2.1,5.8 1.3,8.1 -0.8,2.3 -0.9,5.5 -0.2,6.7 0.7,1.1 4.9,-4.1 5.1,-5.9 0.2,-1.8 1.1,-7.7 0.5,-9.9 -0.6,-2.3 -2.4,-7.7 -2.4,-7.7 z"
           id="path864"
           inkscape:connector-curvature="0"
           style="fill:#fbd7c7" />
        <path
           d="m 61.1,124 c 0.8,0.5 5.7,-2.1 6.3,-3.4 0.6,-1.3 -3.6,-9.6 -5.5,-13.2 -1.5,-2.9 -3.4,-10.1 -3.4,-10.1 0,0 0.1,-14.2 0.2,-18.8 0.1,-4.5 2.4,-16.6 -6.4,-16.7 -8.6,-0.1 -7.9,8.2 -7.2,15.1 0.8,6.9 1.7,19.6 4.1,25.7 2.4,6 10.5,20.5 11.9,21.4 z"
           id="path866"
           inkscape:connector-curvature="0"
           style="fill:#99cc33" />
        <path
           d="m 48.2,56.3 3.3,1.8 c 0,0 -3.9,3.9 -8.9,16.4 -2.2,5.4 -4,12.1 -4,12.1 l -3.1,-0.1 c 0,0 2.1,-9.7 6.9,-20 3.1,-6.9 5.8,-10.2 5.8,-10.2 z"
           id="path868"
           inkscape:connector-curvature="0"
           style="fill:#06547a" />
      </g>
    </g>
  </g>
</svg>
