<?xml version="1.0" encoding="UTF-8" standalone="no"?>
<!-- Created with Inkscape (http://www.inkscape.org/) -->

<svg
   xmlns:dc="http://purl.org/dc/elements/1.1/"
   xmlns:cc="http://creativecommons.org/ns#"
   xmlns:rdf="http://www.w3.org/1999/02/22-rdf-syntax-ns#"
   xmlns:svg="http://www.w3.org/2000/svg"
   xmlns="http://www.w3.org/2000/svg"
   xmlns:sodipodi="http://sodipodi.sourceforge.net/DTD/sodipodi-0.dtd"
   xmlns:inkscape="http://www.inkscape.org/namespaces/inkscape"
   width="58.243958mm"
   height="49.560001mm"
   viewBox="0 0 58.243958 49.560002"
   version="1.1"
   id="svg14909"
   inkscape:version="0.92.2 (5c3e80d, 2017-08-06)"
   sodipodi:docname="apartemant-12.svg">
  <defs
     id="defs14903">
    <clipPath
       clipPathUnits="userSpaceOnUse"
       id="clipPath262171">
      <path
         d="m 1848.49,925.951 h 8.28 v -4.797 h -8.28 z"
         id="path262169"
         inkscape:connector-curvature="0" />
    </clipPath>
    <clipPath
       clipPathUnits="userSpaceOnUse"
       id="clipPath262127">
      <path
         d="m 1891.8,899.958 h 8.28 v -4.795 h -8.28 z"
         id="path262125"
         inkscape:connector-curvature="0" />
    </clipPath>
    <clipPath
       clipPathUnits="userSpaceOnUse"
       id="clipPath262083">
      <path
         d="m 1915.49,887.398 h 15.62 v -9.05 h -15.62 z"
         id="path262081"
         inkscape:connector-curvature="0" />
    </clipPath>
    <clipPath
       clipPathUnits="userSpaceOnUse"
       id="clipPath262067">
      <path
         d="m 1934.01,1029.59 h 23.76 v -20.64 h -23.76 z"
         id="path262065"
         inkscape:connector-curvature="0" />
    </clipPath>
    <clipPath
       clipPathUnits="userSpaceOnUse"
       id="clipPath262031">
      <path
         d="m 1911.85,1018.84 h 36.09 v -31.346 h -36.09 z"
         id="path262029"
         inkscape:connector-curvature="0" />
    </clipPath>
    <clipPath
       clipPathUnits="userSpaceOnUse"
       id="clipPath261975">
      <path
         d="M 1856.91,1019.31 H 1893 v -31.355 h -36.09 z"
         id="path261973"
         inkscape:connector-curvature="0" />
    </clipPath>
    <clipPath
       clipPathUnits="userSpaceOnUse"
       id="clipPath261915">
      <path
         d="m 1943.86,924.434 h 45.82 v -35.762 h -45.82 z"
         id="path261913"
         inkscape:connector-curvature="0" />
    </clipPath>
    <clipPath
       clipPathUnits="userSpaceOnUse"
       id="clipPath261899">
      <path
         d="m 1889.12,943.535 h 55.4 v -41.316 h -55.4 z"
         id="path261897"
         inkscape:connector-curvature="0" />
    </clipPath>
  </defs>
  <sodipodi:namedview
     id="base"
     pagecolor="#ffffff"
     bordercolor="#666666"
     borderopacity="1.0"
     inkscape:pageopacity="0.0"
     inkscape:pageshadow="2"
     inkscape:zoom="0.35"
     inkscape:cx="-439.93268"
     inkscape:cy="190.79956"
     inkscape:document-units="mm"
     inkscape:current-layer="layer1"
     showgrid="false"
     fit-margin-top="0"
     fit-margin-left="0"
     fit-margin-right="0"
     fit-margin-bottom="0"
     inkscape:window-width="1360"
     inkscape:window-height="706"
     inkscape:window-x="-8"
     inkscape:window-y="-8"
     inkscape:window-maximized="1" />
  <metadata
     id="metadata14906">
    <rdf:RDF>
      <cc:Work
         rdf:about="">
        <dc:format>image/svg+xml</dc:format>
        <dc:type
           rdf:resource="http://purl.org/dc/dcmitype/StillImage" />
        <dc:title></dc:title>
      </cc:Work>
    </rdf:RDF>
  </metadata>
  <g
     inkscape:label="Layer 1"
     inkscape:groupmode="layer"
     id="layer1"
     transform="translate(-38.913735,-149.75571)">
    <g
       id="g20766"
       transform="matrix(1,0,0,0.86,0,24.435)">
      <g
         transform="matrix(0.35277777,0,0,-0.35277777,39.482404,183.03214)"
         id="g261885">
        <path
           inkscape:connector-curvature="0"
           id="path261887"
           style="fill:#94b226;fill-opacity:1;fill-rule:nonzero;stroke:none"
           d="m 0,0 92.539,-54.527 c 2.159,-1.254 5.666,-1.254 7.838,0 l 61.472,35.49 c 1.092,0.631 1.638,1.457 1.635,2.281 l 0.005,-2.123 c 0.003,-0.824 -0.542,-1.652 -1.636,-2.285 l -61.467,-35.49 c -2.175,-1.252 -5.683,-1.252 -7.84,0 L 0.003,-2.121 c -1.07,0.619 -1.607,1.435 -1.609,2.25 L -1.611,2.254 C -1.61,1.438 -1.07,0.623 0,0" />
      </g>
      <g
         transform="matrix(0.35277777,0,0,-0.35277777,39.491374,181.43088)"
         id="g261889">
        <path
           inkscape:connector-curvature="0"
           id="path261891"
           style="fill:#9ece4a;fill-opacity:1;fill-rule:nonzero;stroke:none"
           d="m 0,0 c -2.174,-1.254 -2.184,-3.285 -0.025,-4.539 l 92.539,-54.527 c 2.159,-1.254 5.666,-1.254 7.838,0 l 61.471,35.49 c 2.171,1.252 2.181,3.285 0.026,4.539 L 69.309,35.49 c -2.157,1.254 -5.666,1.254 -7.837,0 z" />
      </g>
      <g
         id="g261893"
         transform="matrix(0.35277777,0,0,-0.35277777,-605.73917,510.78681)">
        <g
           id="g261895" />
        <g
           id="g261907">
          <g
             style="opacity:0.13999903"
             id="g261905"
             clip-path="url(#clipPath261899)">
            <g
               id="g261903"
               transform="translate(1908.5986,943.5352)">
              <path
                 inkscape:connector-curvature="0"
                 id="path261901"
                 style="fill:#1b1c1e;fill-opacity:1;fill-rule:nonzero;stroke:none"
                 d="m 0,0 -19.477,-5.799 1.246,-0.724 0.056,-24.127 18.368,-10.666 35.727,20.703 z" />
            </g>
          </g>
        </g>
      </g>
      <g
         id="g261909"
         transform="matrix(0.35277777,0,0,-0.35277777,-605.73917,510.78681)">
        <g
           id="g261911" />
        <g
           id="g261923">
          <g
             style="opacity:0.13999903"
             id="g261921"
             clip-path="url(#clipPath261915)">
            <g
               id="g261919"
               transform="translate(1963.3418,924.4336)">
              <path
                 inkscape:connector-curvature="0"
                 id="path261917"
                 style="fill:#1b1c1e;fill-opacity:1;fill-rule:nonzero;stroke:none"
                 d="m 0,0 -19.479,-5.801 1.248,-0.722 0.055,-24.125 8.718,-5.114 35.8,20.701 z" />
            </g>
          </g>
        </g>
      </g>
      <g
         transform="matrix(0.35277777,0,0,-0.35277777,72.059571,157.35104)"
         id="g261925">
        <path
           inkscape:connector-curvature="0"
           id="path261927"
           style="fill:#d1cfb0;fill-opacity:1;fill-rule:nonzero;stroke:none"
           d="m 0,0 -0.247,-70.938 -30.747,-17.945 0.248,70.938 z" />
      </g>
      <g
         transform="matrix(0.35277777,0,0,-0.35277777,61.213031,163.68173)"
         id="g261929">
        <path
           inkscape:connector-curvature="0"
           id="path261931"
           style="fill:#eae9ce;fill-opacity:1;fill-rule:nonzero;stroke:none"
           d="m 0,0 -0.248,-70.938 -43.985,25.393 0.249,70.941 z" />
      </g>
      <g
         transform="matrix(0.35277777,0,0,-0.35277777,50.466079,159.365)"
         id="g261933">
        <path
           inkscape:connector-curvature="0"
           id="path261935"
           style="fill:#d1cfb0;fill-opacity:1;fill-rule:nonzero;stroke:none"
           d="m 0,0 -0.169,-51.527 -9.582,5.535 0.17,51.529 z" />
      </g>
      <g
         transform="matrix(0.35277777,0,0,-0.35277777,47.66901,157.74792)"
         id="g261937">
        <path
           inkscape:connector-curvature="0"
           id="path261939"
           style="fill:#848484;fill-opacity:1;fill-rule:nonzero;stroke:none"
           d="M 0,0 -0.167,-48.912 7.769,-53.5 7.929,-4.584 Z" />
      </g>
      <g
         transform="matrix(0.35277777,0,0,-0.35277777,54.765214,161.86272)"
         id="g261941">
        <path
           inkscape:connector-curvature="0"
           id="path261943"
           style="fill:#d1cfb0;fill-opacity:1;fill-rule:nonzero;stroke:none"
           d="m 0,0 -0.173,-51.529 -9.581,5.539 0.173,51.527 z" />
      </g>
      <g
         transform="matrix(0.35277777,0,0,-0.35277777,51.967113,160.24559)"
         id="g261945">
        <path
           inkscape:connector-curvature="0"
           id="path261947"
           style="fill:#848484;fill-opacity:1;fill-rule:nonzero;stroke:none"
           d="M 0,0 -0.165,-48.916 7.769,-53.5 7.932,-4.584 Z" />
      </g>
      <g
         transform="matrix(0.35277777,0,0,-0.35277777,59.064323,164.36113)"
         id="g261949">
        <path
           inkscape:connector-curvature="0"
           id="path261951"
           style="fill:#d1cfb0;fill-opacity:1;fill-rule:nonzero;stroke:none"
           d="m 0,0 -0.172,-51.527 -9.582,5.537 0.169,51.527 z" />
      </g>
      <g
         transform="matrix(0.35277777,0,0,-0.35277777,56.26691,162.74399)"
         id="g261953">
        <path
           inkscape:connector-curvature="0"
           id="path261955"
           style="fill:#848484;fill-opacity:1;fill-rule:nonzero;stroke:none"
           d="m 0,0 -0.165,-48.914 7.93,-4.584 0.165,48.914 z" />
      </g>
      <g
         transform="matrix(0.35277777,0,0,-0.35277777,46.922117,154.72172)"
         id="g261957">
        <path
           inkscape:connector-curvature="0"
           id="path261959"
           style="fill:#eae9ce;fill-opacity:1;fill-rule:nonzero;stroke:none"
           d="M 0,0 27.274,15.932 67.78,-7.457 40.507,-23.385 Z" />
      </g>
      <g
         transform="matrix(0.35277777,0,0,-0.35277777,56.543902,148.39172)"
         id="g261961">
        <path
           inkscape:connector-curvature="0"
           id="path261963"
           style="fill:#fffeee;fill-opacity:1;fill-rule:nonzero;stroke:none"
           d="m 0,0 -30.749,-17.945 43.984,-25.397 30.746,17.946 z m 0.002,-4.023 37.031,-21.381 -23.804,-13.912 -37.032,21.378 z" />
      </g>
      <g
         transform="matrix(0.35277777,0,0,-0.35277777,68.418137,158.0483)"
         id="g261965">
        <path
           inkscape:connector-curvature="0"
           id="path261967"
           style="fill:#efeae1;fill-opacity:1;fill-rule:nonzero;stroke:none"
           d="M 0,0 -33.657,19.436 -54.086,7.482 -20.427,-11.949 Z" />
      </g>
      <g
         id="g261969"
         transform="matrix(0.35277777,0,0,-0.35277777,-605.73917,510.78681)">
        <g
           id="g261971" />
        <g
           id="g261983">
          <g
             style="opacity:0.11000097"
             id="g261981"
             clip-path="url(#clipPath261975)">
            <g
               id="g261979"
               transform="translate(1861.8535,1007.3555)">
              <path
                 inkscape:connector-curvature="0"
                 id="path261977"
                 style="fill:#161615;fill-opacity:1;fill-rule:nonzero;stroke:none"
                 d="M 0,0 17.94,10.506 15.436,11.953 -4.942,0.031 28.717,-19.4 l 2.434,1.416 z" />
            </g>
          </g>
        </g>
      </g>
      <g
         transform="matrix(0.35277777,0,0,-0.35277777,80.593442,163.84572)"
         id="g261985">
        <path
           inkscape:connector-curvature="0"
           id="path261987"
           style="fill:#dee0e0;fill-opacity:1;fill-rule:nonzero;stroke:none"
           d="m 0,0 -0.247,-89.686 -43.985,25.397 0.248,89.685 z" />
      </g>
      <g
         transform="matrix(0.35277777,0,0,-0.35277777,69.847469,159.52901)"
         id="g261989">
        <path
           inkscape:connector-curvature="0"
           id="path261991"
           style="fill:#c7c9c9;fill-opacity:1;fill-rule:nonzero;stroke:none"
           d="m 0,0 -0.172,-70.275 -9.582,5.537 0.174,70.279 z" />
      </g>
      <g
         transform="matrix(0.35277777,0,0,-0.35277777,67.05077,157.9105)"
         id="g261993">
        <path
           inkscape:connector-curvature="0"
           id="path261995"
           style="fill:#848484;fill-opacity:1;fill-rule:nonzero;stroke:none"
           d="m 0,0 -0.168,-67.664 7.934,-4.584 0.162,67.662 z" />
      </g>
      <g
         transform="matrix(0.35277777,0,0,-0.35277777,74.146287,162.02671)"
         id="g261997">
        <path
           inkscape:connector-curvature="0"
           id="path261999"
           style="fill:#c7c9c9;fill-opacity:1;fill-rule:nonzero;stroke:none"
           d="m 0,0 -0.172,-70.277 -9.58,5.541 0.171,70.275 z" />
      </g>
      <g
         transform="matrix(0.35277777,0,0,-0.35277777,71.348874,160.40889)"
         id="g262001">
        <path
           inkscape:connector-curvature="0"
           id="path262003"
           style="fill:#848484;fill-opacity:1;fill-rule:nonzero;stroke:none"
           d="M 0,0 -0.166,-67.662 7.764,-72.25 7.93,-4.584 Z" />
      </g>
      <g
         transform="matrix(0.35277777,0,0,-0.35277777,78.445422,164.52437)"
         id="g262005">
        <path
           inkscape:connector-curvature="0"
           id="path262007"
           style="fill:#c7c9c9;fill-opacity:1;fill-rule:nonzero;stroke:none"
           d="m 0,0 -0.173,-70.277 -9.582,5.539 0.174,70.275 z" />
      </g>
      <g
         transform="matrix(0.35277777,0,0,-0.35277777,75.647638,162.90729)"
         id="g262009">
        <path
           inkscape:connector-curvature="0"
           id="path262011"
           style="fill:#848484;fill-opacity:1;fill-rule:nonzero;stroke:none"
           d="m 0,0 -0.165,-67.664 7.931,-4.584 0.165,67.666 z" />
      </g>
      <g
         transform="matrix(0.35277777,0,0,-0.35277777,66.302846,154.88433)"
         id="g262013">
        <path
           inkscape:connector-curvature="0"
           id="path262015"
           style="fill:#d3d3d3;fill-opacity:1;fill-rule:nonzero;stroke:none"
           d="M 0,0 27.274,15.93 67.782,-7.459 40.508,-23.389 Z" />
      </g>
      <g
         transform="matrix(0.35277777,0,0,-0.35277777,75.924287,148.55502)"
         id="g262017">
        <path
           inkscape:connector-curvature="0"
           id="path262019"
           style="fill:#f4f4f4;fill-opacity:1;fill-rule:nonzero;stroke:none"
           d="m 0,0 -30.749,-17.947 43.984,-25.397 30.749,17.949 z m 0.005,-4.023 37.028,-21.381 -23.804,-13.91 -37.028,21.376 z" />
      </g>
      <g
         transform="matrix(0.35277777,0,0,-0.35277777,87.798496,158.21094)"
         id="g262021">
        <path
           inkscape:connector-curvature="0"
           id="path262023"
           style="fill:#efeae1;fill-opacity:1;fill-rule:nonzero;stroke:none"
           d="M 0,0 -33.654,19.432 -54.086,7.482 -20.425,-11.949 Z" />
      </g>
      <g
         id="g262025"
         transform="matrix(0.35277777,0,0,-0.35277777,-605.73917,510.78681)">
        <g
           id="g262027" />
        <g
           id="g262039">
          <g
             style="opacity:0.11000097"
             id="g262037"
             clip-path="url(#clipPath262031)">
            <g
               id="g262035"
               transform="translate(1916.7939,1006.8926)">
              <path
                 inkscape:connector-curvature="0"
                 id="path262033"
                 style="fill:#161615;fill-opacity:1;fill-rule:nonzero;stroke:none"
                 d="m 0,0 17.937,10.506 -2.505,1.445 -20.378,-11.92 33.661,-19.429 2.434,1.414 z" />
            </g>
          </g>
        </g>
      </g>
      <g
         transform="matrix(0.35277777,0,0,-0.35277777,91.495783,151.62043)"
         id="g262041">
        <path
           inkscape:connector-curvature="0"
           id="path262043"
           style="fill:#c7c9c9;fill-opacity:1;fill-rule:nonzero;stroke:none"
           d="m 0,0 -20.244,-11.813 -0.162,-16.712 -10.498,-6.129 -0.247,-89.686 30.747,17.947 0.249,89.688 -0.008,-0.006 z" />
      </g>
      <g
         transform="matrix(0.35277777,0,0,-0.35277777,84.354097,155.78762)"
         id="g262045">
        <path
           inkscape:connector-curvature="0"
           id="path262047"
           style="fill:#dee0e0;fill-opacity:1;fill-rule:nonzero;stroke:none"
           d="M 0,0 -0.162,-16.717 -29.12,0.002 -28.955,16.719 Z" />
      </g>
      <g
         transform="matrix(0.35277777,0,0,-0.35277777,74.94554,149.88895)"
         id="g262049">
        <path
           inkscape:connector-curvature="0"
           id="path262051"
           style="fill:#d3d3d3;fill-opacity:1;fill-rule:nonzero;stroke:none"
           d="M 0,0 17.956,10.486 44.626,-4.91 26.669,-15.398 Z" />
      </g>
      <g
         transform="matrix(0.35277777,0,0,-0.35277777,81.280062,145.72176)"
         id="g262053">
        <path
           inkscape:connector-curvature="0"
           id="path262055"
           style="fill:#f4f4f4;fill-opacity:1;fill-rule:nonzero;stroke:none"
           d="m 0,0 -20.241,-11.814 28.955,-16.719 20.244,11.812 z m 0.003,-2.65 24.38,-14.075 -15.67,-9.162 -24.382,14.076 z" />
      </g>
      <g
         transform="matrix(0.35277777,0,0,-0.35277777,89.098658,152.07867)"
         id="g262057">
        <path
           inkscape:connector-curvature="0"
           id="path262059"
           style="fill:#efeae1;fill-opacity:1;fill-rule:nonzero;stroke:none"
           d="M 0,0 -22.16,12.791 -35.607,4.924 -13.45,-7.871 Z" />
      </g>
      <g
         id="g262061"
         transform="matrix(0.35277777,0,0,-0.35277777,-605.73917,510.78681)">
        <g
           id="g262063" />
        <g
           id="g262075">
          <g
             style="opacity:0.11000097"
             id="g262073"
             clip-path="url(#clipPath262067)">
            <g
               id="g262071"
               transform="translate(1937.2617,1021.7266)">
              <path
                 inkscape:connector-curvature="0"
                 id="path262069"
                 style="fill:#161615;fill-opacity:1;fill-rule:nonzero;stroke:none"
                 d="M 0,0 11.815,6.916 10.161,7.865 -3.25,0.018 l 22.157,-12.793 1.603,0.931 z" />
            </g>
          </g>
        </g>
      </g>
      <g
         id="g262077"
         transform="matrix(0.35277777,0,0,-0.35277777,-605.73917,510.78681)">
        <g
           id="g262079" />
        <g
           id="g262091">
          <g
             style="opacity:0.19000202"
             id="g262089"
             clip-path="url(#clipPath262083)">
            <g
               id="g262087"
               transform="translate(1928.7998,886.0742)">
              <path
                 inkscape:connector-curvature="0"
                 id="path262085"
                 style="fill:#181816;fill-opacity:1;fill-rule:nonzero;stroke:none"
                 d="M 0,0 C 3.062,-1.768 3.084,-4.639 0.039,-6.404 -3.003,-8.17 -7.945,-8.166 -11.008,-6.4 -14.06,-4.639 -14.085,-1.768 -11.048,0 -8.006,1.768 -3.053,1.764 0,0" />
            </g>
          </g>
        </g>
      </g>
      <g
         transform="matrix(0.35277777,0,0,-0.35277777,72.214617,194.82472)"
         id="g262093">
        <path
           inkscape:connector-curvature="0"
           id="path262095"
           style="fill:#775a20;fill-opacity:1;fill-rule:nonzero;stroke:none"
           d="M 0,0 -1.411,1.43 C -1.833,1.854 -2.368,2.396 -2.32,3.955 v 6.35 H -2.56 V 3.686 c 0,-1.491 0.378,-1.998 1.019,-2.639 0.951,-0.951 1.193,-1.313 1.613,-1.731 v 0.512 z" />
      </g>
      <g
         transform="matrix(0.35277777,0,0,-0.35277777,72.079229,191.99283)"
         id="g262097">
        <path
           inkscape:connector-curvature="0"
           id="path262099"
           style="fill:#775a20;fill-opacity:1;fill-rule:nonzero;stroke:none"
           d="m 0,0 1.087,-0.025 0.612,-20.807 c 0,0 -0.123,-0.947 -1.208,-0.947 -1.108,0 -1.168,0.933 -1.168,0.933 z" />
      </g>
      <g
         transform="matrix(0.35277777,0,0,-0.35277777,72.571513,195.4276)"
         id="g262101">
        <path
           inkscape:connector-curvature="0"
           id="path262103"
           style="fill:#775a20;fill-opacity:1;fill-rule:nonzero;stroke:none"
           d="M 0,0 V 0 C 0.476,0.479 0.753,1.139 0.753,1.818 V 9.887 H 1.12 V 1.609 c 0,-1.068 -0.429,-2.103 -1.187,-2.861 z" />
      </g>
      <g
         transform="matrix(0.35277777,0,0,-0.35277777,72.97151,193.69678)"
         id="g262105">
        <path
           inkscape:connector-curvature="0"
           id="path262107"
           style="fill:#c4b08d;fill-opacity:1;fill-rule:nonzero;stroke:none"
           d="m 0,0 1.012,1.027 c 0.301,0.301 0.684,0.688 0.653,1.807 v 4.543 h 0.17 V 2.639 C 1.835,1.572 1.564,1.209 1.104,0.744 0.421,0.07 0.246,-0.188 -0.046,-0.486 v 0.365 z" />
      </g>
      <g
         transform="matrix(0.35277777,0,0,-0.35277777,76.648425,190.72297)"
         id="g262109">
        <path
           inkscape:connector-curvature="0"
           id="path262111"
           style="fill:#4b6d0f;fill-opacity:1;fill-rule:nonzero;stroke:none"
           d="M 0,0 C 0,1.326 -0.962,2.426 -2.229,2.656 -2.331,5.08 -4.32,7.018 -6.77,7.018 c -0.349,0 -0.679,-0.043 -1.004,-0.118 -0.37,1.332 -1.584,2.319 -3.038,2.319 -0.727,0 -1.392,-0.246 -1.924,-0.656 -0.725,0.824 -1.786,1.347 -2.976,1.347 -2.147,0 -3.893,-1.713 -3.957,-3.847 -0.058,0.001 -0.113,0.011 -0.171,0.011 -1.994,0 -3.611,-1.617 -3.611,-3.611 0,-0.084 0.009,-0.168 0.015,-0.252 -1.006,-0.496 -1.696,-1.531 -1.696,-2.727 0,-1.351 0.889,-2.504 2.111,-2.89 0,-0.067 -0.008,-0.135 -0.008,-0.203 0,-3.088 2.505,-5.592 5.593,-5.592 0.65,0 1.268,0.115 1.846,0.318 0.819,-1.017 2.063,-1.68 3.464,-1.68 1.779,0 3.311,1.067 4.022,2.6 0.47,-0.17 0.981,-0.267 1.515,-0.267 2.515,0 4.559,2.042 4.559,4.558 0,0.35 -0.046,0.692 -0.123,1.018 C -0.927,-2.393 0,-1.307 0,0" />
      </g>
      <g
         transform="matrix(0.35277777,0,0,-0.35277777,70.369756,189.8672)"
         id="g262113">
        <path
           inkscape:connector-curvature="0"
           id="path262115"
           style="fill:#71991c;fill-opacity:1;fill-rule:nonzero;stroke:none"
           d="m 0,0 c -0.009,0.055 -0.009,0.109 -0.009,0.164 0,1.537 1.247,2.781 2.788,2.781 1.141,0 2.122,-0.681 2.55,-1.666 0.36,0.303 1.023,0.756 1.447,0.844 3.786,0.781 3.793,-3.559 3.912,-3.453 0.168,0.146 0.694,2.539 -0.966,3.875 C 7.312,4.469 5.594,3.152 5.21,3.023 4.779,4.008 3.59,4.891 2.446,4.891 0.902,4.891 -0.28,3.893 -0.28,2.35 -0.28,2.301 -0.384,1.453 -0.379,1.402 -1.221,1.219 -2.795,0.293 -2.795,-1.344 c 0,-0.545 0.125,-1.068 0.332,-1.537 C -2.223,-1.535 -1.268,-0.438 0,0" />
      </g>
      <g
         transform="matrix(0.35277777,0,0,-0.35277777,72.655227,190.44047)"
         id="g262117">
        <path
           inkscape:connector-curvature="0"
           id="path262119"
           style="fill:#71991c;fill-opacity:1;fill-rule:nonzero;stroke:none"
           d="m 0,0 c 1.062,-0.373 1.752,-1.324 1.827,-2.379 0.513,0.234 1.492,-0.109 1.893,-0.246 1.732,-0.604 2.285,-2.283 1.764,-4.064 0.317,0.322 0.565,0.71 0.725,1.16 0.57,1.623 -0.294,3.406 -1.917,3.974 C 3.955,-1.438 3.608,-1.383 3.275,-1.381 3.208,-0.502 2.631,0.303 1.744,0.611 0.914,0.902 0.03,0.688 -0.575,0.131 -0.381,0.107 -0.189,0.066 0,0" />
      </g>
      <g
         id="g262121"
         transform="matrix(0.35277777,0,0,-0.35277777,-605.73917,510.78681)">
        <g
           id="g262123" />
        <g
           id="g262135">
          <g
             style="opacity:0.19000202"
             id="g262133"
             clip-path="url(#clipPath262127)">
            <g
               id="g262131"
               transform="translate(1898.8613,899.2559)">
              <path
                 inkscape:connector-curvature="0"
                 id="path262129"
                 style="fill:#181816;fill-opacity:1;fill-rule:nonzero;stroke:none"
                 d="M 0,0 C 1.622,-0.934 1.635,-2.455 0.021,-3.393 -1.591,-4.326 -4.212,-4.326 -5.834,-3.389 -7.454,-2.455 -7.467,-0.934 -5.856,0 -4.246,0.938 -1.619,0.934 0,0" />
            </g>
          </g>
        </g>
      </g>
      <g
         transform="matrix(0.35277777,0,0,-0.35277777,62.821194,191.76132)"
         id="g262137">
        <path
           inkscape:connector-curvature="0"
           id="path262139"
           style="fill:#775a20;fill-opacity:1;fill-rule:nonzero;stroke:none"
           d="M 0,0 -0.749,0.76 C -0.972,0.984 -1.257,1.271 -1.231,2.098 V 5.463 H -1.358 V 1.955 c 0,-0.791 0.199,-1.059 0.542,-1.398 0.503,-0.502 0.63,-0.696 0.851,-0.916 v 0.269 z" />
      </g>
      <g
         transform="matrix(0.35277777,0,0,-0.35277777,62.74854,190.26066)"
         id="g262141">
        <path
           inkscape:connector-curvature="0"
           id="path262143"
           style="fill:#775a20;fill-opacity:1;fill-rule:nonzero;stroke:none"
           d="m 0,0 0.576,-0.01 0.325,-11.027 c 0,0 -0.066,-0.502 -0.641,-0.502 -0.584,0 -0.619,0.492 -0.619,0.492 z" />
      </g>
      <g
         transform="matrix(0.35277777,0,0,-0.35277777,63.009657,192.08036)"
         id="g262145">
        <path
           inkscape:connector-curvature="0"
           id="path262147"
           style="fill:#775a20;fill-opacity:1;fill-rule:nonzero;stroke:none"
           d="M 0,0 V 0 C 0.253,0.254 0.396,0.604 0.396,0.965 V 5.24 H 0.595 V 0.854 c 0,-0.567 -0.229,-1.114 -0.629,-1.514 z" />
      </g>
      <g
         transform="matrix(0.35277777,0,0,-0.35277777,63.221536,191.16395)"
         id="g262149">
        <path
           inkscape:connector-curvature="0"
           id="path262151"
           style="fill:#c4b08d;fill-opacity:1;fill-rule:nonzero;stroke:none"
           d="M 0,0 0.535,0.545 C 0.695,0.707 0.899,0.91 0.881,1.504 V 3.912 H 0.974 V 1.402 C 0.974,0.836 0.827,0.646 0.582,0.398 0.224,0.039 0.131,-0.096 -0.027,-0.256 v 0.193 z" />
      </g>
      <g
         transform="matrix(0.35277777,0,0,-0.35277777,65.169742,189.58748)"
         id="g262153">
        <path
           inkscape:connector-curvature="0"
           id="path262155"
           style="fill:#4b6d0f;fill-opacity:1;fill-rule:nonzero;stroke:none"
           d="m 0,0 c 0,0.703 -0.512,1.287 -1.178,1.406 -0.057,1.287 -1.112,2.315 -2.409,2.315 -0.184,0 -0.359,-0.026 -0.533,-0.065 -0.194,0.709 -0.838,1.231 -1.609,1.231 -0.384,0 -0.737,-0.131 -1.018,-0.348 -0.386,0.438 -0.947,0.715 -1.576,0.715 -1.141,0 -2.066,-0.908 -2.098,-2.043 -0.032,0.004 -0.061,0.008 -0.093,0.008 -1.055,0 -1.913,-0.856 -1.913,-1.914 0,-0.045 0.006,-0.088 0.011,-0.135 -0.535,-0.262 -0.902,-0.809 -0.902,-1.441 0,-0.719 0.469,-1.327 1.12,-1.534 0,-0.037 -0.005,-0.072 -0.005,-0.105 0,-1.639 1.326,-2.965 2.965,-2.965 0.344,0 0.672,0.061 0.976,0.172 0.435,-0.543 1.096,-0.893 1.834,-0.893 0.944,0 1.758,0.565 2.135,1.375 0.249,-0.09 0.522,-0.138 0.804,-0.138 1.33,0 2.413,1.08 2.413,2.416 0,0.183 -0.023,0.363 -0.064,0.537 C -0.489,-1.27 0,-0.691 0,0" />
      </g>
      <g
         transform="matrix(0.35277777,0,0,-0.35277777,61.842818,189.13343)"
         id="g262157">
        <path
           inkscape:connector-curvature="0"
           id="path262159"
           style="fill:#71991c;fill-opacity:1;fill-rule:nonzero;stroke:none"
           d="m 0,0 c -0.003,0.027 -0.003,0.057 -0.003,0.086 0,0.814 0.661,1.475 1.477,1.475 0.603,0 1.123,-0.362 1.349,-0.885 0.193,0.162 0.542,0.402 0.768,0.447 2.006,0.414 2.009,-1.887 2.074,-1.83 0.09,0.08 0.366,1.348 -0.514,2.055 -1.277,1.019 -2.186,0.324 -2.389,0.256 -0.23,0.517 -0.86,0.984 -1.465,0.984 -0.817,0 -1.444,-0.527 -1.444,-1.342 0,-0.023 -0.056,-0.478 -0.052,-0.504 -0.448,-0.097 -1.28,-0.588 -1.28,-1.455 0,-0.289 0.064,-0.566 0.176,-0.816 C -1.178,-0.814 -0.672,-0.232 0,0" />
      </g>
      <g
         transform="matrix(0.35277777,0,0,-0.35277777,63.054451,189.43728)"
         id="g262161">
        <path
           inkscape:connector-curvature="0"
           id="path262163"
           style="fill:#71991c;fill-opacity:1;fill-rule:nonzero;stroke:none"
           d="M 0,0 C 0.561,-0.197 0.927,-0.703 0.967,-1.26 1.24,-1.137 1.757,-1.318 1.97,-1.393 2.889,-1.711 3.182,-2.6 2.904,-3.543 3.07,-3.373 3.203,-3.168 3.29,-2.932 3.592,-2.07 3.135,-1.125 2.274,-0.824 2.096,-0.76 1.91,-0.734 1.732,-0.732 1.698,-0.266 1.393,0.16 0.922,0.324 0.482,0.479 0.015,0.363 -0.306,0.068 -0.204,0.057 -0.101,0.035 0,0" />
      </g>
      <g
         id="g262165"
         transform="matrix(0.35277777,0,0,-0.35277777,-605.73917,510.78681)">
        <g
           id="g262167" />
        <g
           id="g262179">
          <g
             style="opacity:0.19000202"
             id="g262177"
             clip-path="url(#clipPath262171)">
            <g
               id="g262175"
               transform="translate(1855.542,925.25)">
              <path
                 inkscape:connector-curvature="0"
                 id="path262173"
                 style="fill:#181816;fill-opacity:1;fill-rule:nonzero;stroke:none"
                 d="M 0,0 C 1.623,-0.936 1.632,-2.459 0.021,-3.395 -1.59,-4.33 -4.214,-4.33 -5.835,-3.393 -7.452,-2.459 -7.468,-0.936 -5.856,0 -4.245,0.936 -1.62,0.934 0,0" />
            </g>
          </g>
        </g>
      </g>
      <g
         transform="matrix(0.35277777,0,0,-0.35277777,47.538094,182.59116)"
         id="g262181">
        <path
           inkscape:connector-curvature="0"
           id="path262183"
           style="fill:#775a20;fill-opacity:1;fill-rule:nonzero;stroke:none"
           d="M 0,0 -0.748,0.76 C -0.972,0.984 -1.254,1.268 -1.229,2.096 V 5.461 H -1.356 V 1.953 c 0,-0.791 0.2,-1.058 0.54,-1.398 0.504,-0.504 0.629,-0.696 0.852,-0.918 v 0.273 z" />
      </g>
      <g
         transform="matrix(0.35277777,0,0,-0.35277777,47.46573,181.0898)"
         id="g262185">
        <path
           inkscape:connector-curvature="0"
           id="path262187"
           style="fill:#775a20;fill-opacity:1;fill-rule:nonzero;stroke:none"
           d="m 0,0 0.576,-0.016 0.325,-11.025 c 0,0 -0.066,-0.502 -0.64,-0.502 -0.586,0 -0.617,0.494 -0.617,0.494 z" />
      </g>
      <g
         transform="matrix(0.35277777,0,0,-0.35277777,47.726874,182.91016)"
         id="g262189">
        <path
           inkscape:connector-curvature="0"
           id="path262191"
           style="fill:#775a20;fill-opacity:1;fill-rule:nonzero;stroke:none"
           d="M 0,0 V 0 C 0.254,0.252 0.399,0.602 0.399,0.961 V 5.238 H 0.596 V 0.852 c 0,-0.567 -0.229,-1.116 -0.63,-1.514 z" />
      </g>
      <g
         transform="matrix(0.35277777,0,0,-0.35277777,47.938752,181.99381)"
         id="g262193">
        <path
           inkscape:connector-curvature="0"
           id="path262195"
           style="fill:#c4b08d;fill-opacity:1;fill-rule:nonzero;stroke:none"
           d="M 0,0 0.537,0.543 C 0.697,0.705 0.901,0.91 0.885,1.504 V 3.91 H 0.977 V 1.398 C 0.977,0.832 0.833,0.643 0.585,0.396 0.225,0.039 0.133,-0.098 -0.023,-0.256 v 0.193 z" />
      </g>
      <g
         transform="matrix(0.35277777,0,0,-0.35277777,49.887303,180.418)"
         id="g262197">
        <path
           inkscape:connector-curvature="0"
           id="path262199"
           style="fill:#4b6d0f;fill-opacity:1;fill-rule:nonzero;stroke:none"
           d="m 0,0 c 0,0.703 -0.511,1.287 -1.182,1.408 -0.052,1.285 -1.108,2.313 -2.403,2.313 -0.187,0 -0.362,-0.024 -0.534,-0.063 -0.195,0.705 -0.84,1.229 -1.611,1.229 -0.383,0 -0.735,-0.131 -1.017,-0.35 -0.386,0.438 -0.946,0.715 -1.579,0.715 -1.139,0 -2.064,-0.908 -2.094,-2.039 -0.034,0.002 -0.06,0.004 -0.09,0.004 -1.059,0 -1.917,-0.856 -1.917,-1.91 0,-0.045 0.007,-0.088 0.008,-0.133 -0.532,-0.266 -0.898,-0.811 -0.898,-1.445 0,-0.719 0.469,-1.329 1.12,-1.532 0,-0.037 -0.005,-0.072 -0.005,-0.109 0,-1.637 1.327,-2.963 2.963,-2.963 0.344,0 0.671,0.062 0.979,0.17 0.435,-0.543 1.093,-0.891 1.836,-0.891 0.942,0 1.753,0.563 2.13,1.377 0.25,-0.09 0.522,-0.142 0.801,-0.142 1.333,0 2.419,1.086 2.419,2.416 0,0.185 -0.026,0.363 -0.067,0.539 C -0.491,-1.268 0,-0.689 0,0" />
      </g>
      <g
         transform="matrix(0.35277777,0,0,-0.35277777,46.56104,179.96395)"
         id="g262201">
        <path
           inkscape:connector-curvature="0"
           id="path262203"
           style="fill:#71991c;fill-opacity:1;fill-rule:nonzero;stroke:none"
           d="m 0,0 c -0.006,0.027 -0.006,0.059 -0.006,0.086 0,0.812 0.661,1.475 1.478,1.475 0.605,0 1.123,-0.362 1.35,-0.883 0.192,0.16 0.539,0.398 0.764,0.445 2.012,0.416 2.013,-1.885 2.077,-1.828 0.09,0.078 0.368,1.344 -0.517,2.053 C 3.872,2.369 2.964,1.672 2.758,1.604 2.532,2.123 1.899,2.59 1.295,2.59 c -0.817,0 -1.444,-0.527 -1.444,-1.344 0,-0.027 -0.057,-0.475 -0.055,-0.502 -0.444,-0.099 -1.279,-0.592 -1.279,-1.457 0,-0.291 0.066,-0.564 0.176,-0.814 C -1.179,-0.814 -0.674,-0.232 0,0" />
      </g>
      <g
         transform="matrix(0.35277777,0,0,-0.35277777,47.772329,180.26851)"
         id="g262205">
        <path
           inkscape:connector-curvature="0"
           id="path262207"
           style="fill:#71991c;fill-opacity:1;fill-rule:nonzero;stroke:none"
           d="m 0,0 c 0.561,-0.195 0.926,-0.701 0.966,-1.26 0.269,0.125 0.789,-0.056 1.004,-0.131 0.917,-0.316 1.211,-1.209 0.934,-2.152 0.165,0.17 0.299,0.377 0.382,0.615 0.303,0.86 -0.154,1.805 -1.011,2.108 C 2.092,-0.76 1.91,-0.732 1.732,-0.73 1.697,-0.264 1.394,0.162 0.922,0.326 0.483,0.48 0.015,0.365 -0.308,0.07 -0.203,0.061 -0.099,0.037 0,0" />
      </g>
    </g>
  </g>
</svg>
