<?xml version="1.0" encoding="UTF-8" standalone="no"?>
<!-- Created with Inkscape (http://www.inkscape.org/) -->

<svg
   xmlns:dc="http://purl.org/dc/elements/1.1/"
   xmlns:cc="http://creativecommons.org/ns#"
   xmlns:rdf="http://www.w3.org/1999/02/22-rdf-syntax-ns#"
   xmlns:svg="http://www.w3.org/2000/svg"
   xmlns="http://www.w3.org/2000/svg"
   xmlns:sodipodi="http://sodipodi.sourceforge.net/DTD/sodipodi-0.dtd"
   xmlns:inkscape="http://www.inkscape.org/namespaces/inkscape"
   width="46.742348mm"
   height="49.504181mm"
   viewBox="0 0 46.742348 49.504181"
   version="1.1"
   id="svg21739"
   inkscape:version="0.92.2 (5c3e80d, 2017-08-06)"
   sodipodi:docname="apartemant-22.svg">
  <defs
     id="defs21733">
    <clipPath
       clipPathUnits="userSpaceOnUse"
       id="clipPath271435">
      <path
         d="m 1010.92,954.754 h 9.04 v -13.709 h -9.04 z"
         id="path271433"
         inkscape:connector-curvature="0" />
    </clipPath>
    <clipPath
       clipPathUnits="userSpaceOnUse"
       id="clipPath271419">
      <path
         d="m 956.081,926.857 h 9.08 v -10.308 h -9.08 z"
         id="path271417"
         inkscape:connector-curvature="0" />
    </clipPath>
    <clipPath
       clipPathUnits="userSpaceOnUse"
       id="clipPath271395">
      <path
         d="m 931.604,937.014 h 9.079 v -10.309 h -9.079 z"
         id="path271393"
         inkscape:connector-curvature="0" />
    </clipPath>
    <clipPath
       clipPathUnits="userSpaceOnUse"
       id="clipPath271371">
      <path
         d="m 956.172,967.574 h 9.009 V 953.24 h -9.009 z"
         id="path271369"
         inkscape:connector-curvature="0" />
    </clipPath>
    <clipPath
       clipPathUnits="userSpaceOnUse"
       id="clipPath271347">
      <path
         d="m 931.696,977.869 h 9.007 v -14.33 h -9.007 z"
         id="path271345"
         inkscape:connector-curvature="0" />
    </clipPath>
    <clipPath
       clipPathUnits="userSpaceOnUse"
       id="clipPath271315">
      <path
         d="M 940.154,1022.54 H 979.21 V 981.184 H 940.154 Z"
         id="path271313"
         inkscape:connector-curvature="0" />
    </clipPath>
    <clipPath
       clipPathUnits="userSpaceOnUse"
       id="clipPath271067">
      <path
         d="m 962.385,999.941 h 71.775 V 881.242 h -71.775 z"
         id="path271065"
         inkscape:connector-curvature="0" />
    </clipPath>
    <clipPath
       clipPathUnits="userSpaceOnUse"
       id="clipPath271071">
      <path
         d="m 1025.262,954.904 -0.01,45.037 -50.269,-28.628 0.074,-45.506 0.114,-44.565 49.953,29.104 0.128,44.552 z"
         id="path271069"
         inkscape:connector-curvature="0" />
    </clipPath>
    <clipPath
       clipPathUnits="userSpaceOnUse"
       id="clipPath271075">
      <path
         d="m 962.385,998.932 h 71.775 v -47.86 h -71.775 z"
         id="path271073"
         inkscape:connector-curvature="0" />
    </clipPath>
    <clipPath
       clipPathUnits="userSpaceOnUse"
       id="clipPath271079">
      <path
         d="m 962.385,998.932 h 71.775 v -47.86 h -71.775 z"
         id="path271077"
         inkscape:connector-curvature="0" />
    </clipPath>
    <clipPath
       clipPathUnits="userSpaceOnUse"
       id="clipPath271083">
      <path
         d="m 962.385,985.166 h 71.775 v -47.857 h -71.775 z"
         id="path271081"
         inkscape:connector-curvature="0" />
    </clipPath>
    <clipPath
       clipPathUnits="userSpaceOnUse"
       id="clipPath271087">
      <path
         d="m 962.385,985.166 h 71.775 v -47.857 h -71.775 z"
         id="path271085"
         inkscape:connector-curvature="0" />
    </clipPath>
    <clipPath
       clipPathUnits="userSpaceOnUse"
       id="clipPath271091">
      <path
         d="m 962.385,971.402 h 71.775 v -47.859 h -71.775 z"
         id="path271089"
         inkscape:connector-curvature="0" />
    </clipPath>
    <clipPath
       clipPathUnits="userSpaceOnUse"
       id="clipPath271095">
      <path
         d="m 962.385,971.402 h 71.775 v -47.859 h -71.775 z"
         id="path271093"
         inkscape:connector-curvature="0" />
    </clipPath>
    <clipPath
       clipPathUnits="userSpaceOnUse"
       id="clipPath271099">
      <path
         d="m 962.385,957.637 h 71.775 v -47.856 h -71.775 z"
         id="path271097"
         inkscape:connector-curvature="0" />
    </clipPath>
    <clipPath
       clipPathUnits="userSpaceOnUse"
       id="clipPath271103">
      <path
         d="m 962.385,957.637 h 71.775 v -47.856 h -71.775 z"
         id="path271101"
         inkscape:connector-curvature="0" />
    </clipPath>
    <clipPath
       clipPathUnits="userSpaceOnUse"
       id="clipPath271107">
      <path
         d="m 962.385,943.873 h 71.775 v -47.855 h -71.775 z"
         id="path271105"
         inkscape:connector-curvature="0" />
    </clipPath>
    <clipPath
       clipPathUnits="userSpaceOnUse"
       id="clipPath271111">
      <path
         d="m 962.385,943.873 h 71.775 v -47.855 h -71.775 z"
         id="path271109"
         inkscape:connector-curvature="0" />
    </clipPath>
    <clipPath
       clipPathUnits="userSpaceOnUse"
       id="clipPath271115">
      <path
         d="m 962.385,930.109 h 71.775 v -47.857 h -71.775 z"
         id="path271113"
         inkscape:connector-curvature="0" />
    </clipPath>
    <clipPath
       clipPathUnits="userSpaceOnUse"
       id="clipPath271119">
      <path
         d="m 962.385,930.109 h 71.775 v -47.857 h -71.775 z"
         id="path271117"
         inkscape:connector-curvature="0" />
    </clipPath>
    <clipPath
       clipPathUnits="userSpaceOnUse"
       id="clipPath270879">
      <path
         d="m 916.055,999.941 h 71.778 V 881.242 h -71.778 z"
         id="path270877"
         inkscape:connector-curvature="0" />
    </clipPath>
    <clipPath
       clipPathUnits="userSpaceOnUse"
       id="clipPath270883">
      <path
         d="m 924.957,954.904 0.009,45.037 50.087,-28.89 -0.008,-45.035 0.127,-44.774 -50.08,29.104 -0.126,44.552 z"
         id="path270881"
         inkscape:connector-curvature="0" />
    </clipPath>
    <clipPath
       clipPathUnits="userSpaceOnUse"
       id="clipPath270887">
      <path
         d="m 916.055,998.932 h 71.778 v -47.86 h -71.778 z"
         id="path270885"
         inkscape:connector-curvature="0" />
    </clipPath>
    <clipPath
       clipPathUnits="userSpaceOnUse"
       id="clipPath270891">
      <path
         d="m 916.055,998.932 h 71.778 v -47.86 h -71.778 z"
         id="path270889"
         inkscape:connector-curvature="0" />
    </clipPath>
    <clipPath
       clipPathUnits="userSpaceOnUse"
       id="clipPath270895">
      <path
         d="m 916.055,985.166 h 71.778 v -47.857 h -71.778 z"
         id="path270893"
         inkscape:connector-curvature="0" />
    </clipPath>
    <clipPath
       clipPathUnits="userSpaceOnUse"
       id="clipPath270899">
      <path
         d="m 916.055,985.166 h 71.778 v -47.857 h -71.778 z"
         id="path270897"
         inkscape:connector-curvature="0" />
    </clipPath>
    <clipPath
       clipPathUnits="userSpaceOnUse"
       id="clipPath270903">
      <path
         d="m 916.055,971.402 h 71.778 v -47.859 h -71.778 z"
         id="path270901"
         inkscape:connector-curvature="0" />
    </clipPath>
    <clipPath
       clipPathUnits="userSpaceOnUse"
       id="clipPath270907">
      <path
         d="m 916.055,971.402 h 71.778 v -47.859 h -71.778 z"
         id="path270905"
         inkscape:connector-curvature="0" />
    </clipPath>
    <clipPath
       clipPathUnits="userSpaceOnUse"
       id="clipPath270911">
      <path
         d="m 916.055,957.637 h 71.778 v -47.856 h -71.778 z"
         id="path270909"
         inkscape:connector-curvature="0" />
    </clipPath>
    <clipPath
       clipPathUnits="userSpaceOnUse"
       id="clipPath270915">
      <path
         d="m 916.055,957.637 h 71.778 v -47.856 h -71.778 z"
         id="path270913"
         inkscape:connector-curvature="0" />
    </clipPath>
    <clipPath
       clipPathUnits="userSpaceOnUse"
       id="clipPath270919">
      <path
         d="m 916.055,943.873 h 71.778 v -47.855 h -71.778 z"
         id="path270917"
         inkscape:connector-curvature="0" />
    </clipPath>
    <clipPath
       clipPathUnits="userSpaceOnUse"
       id="clipPath270923">
      <path
         d="m 916.055,943.873 h 71.778 v -47.855 h -71.778 z"
         id="path270921"
         inkscape:connector-curvature="0" />
    </clipPath>
    <clipPath
       clipPathUnits="userSpaceOnUse"
       id="clipPath270927">
      <path
         d="m 916.055,930.109 h 71.778 v -47.857 h -71.778 z"
         id="path270925"
         inkscape:connector-curvature="0" />
    </clipPath>
    <clipPath
       clipPathUnits="userSpaceOnUse"
       id="clipPath270931">
      <path
         d="m 916.055,930.109 h 71.778 v -47.857 h -71.778 z"
         id="path270929"
         inkscape:connector-curvature="0" />
    </clipPath>
    <clipPath
       clipPathUnits="userSpaceOnUse"
       id="clipPath270819">
      <path
         d="m 950.508,928.006 h 90.602 v -46.809 h -90.602 z"
         id="path270817"
         inkscape:connector-curvature="0" />
    </clipPath>
    <clipPath
       clipPathUnits="userSpaceOnUse"
       id="clipPath270775">
      <path
         d="m 1024.67,921.922 h 16.88 v -9.779 h -16.88 z"
         id="path270773"
         inkscape:connector-curvature="0" />
    </clipPath>
  </defs>
  <sodipodi:namedview
     id="base"
     pagecolor="#ffffff"
     bordercolor="#666666"
     borderopacity="1.0"
     inkscape:pageopacity="0.0"
     inkscape:pageshadow="2"
     inkscape:zoom="0.35"
     inkscape:cx="-95.953718"
     inkscape:cy="282.12261"
     inkscape:document-units="mm"
     inkscape:current-layer="layer1"
     showgrid="false"
     fit-margin-top="0"
     fit-margin-left="0"
     fit-margin-right="0"
     fit-margin-bottom="0"
     inkscape:window-width="1360"
     inkscape:window-height="706"
     inkscape:window-x="-8"
     inkscape:window-y="-8"
     inkscape:window-maximized="1" />
  <metadata
     id="metadata21736">
    <rdf:RDF>
      <cc:Work
         rdf:about="">
        <dc:format>image/svg+xml</dc:format>
        <dc:type
           rdf:resource="http://purl.org/dc/dcmitype/StillImage" />
        <dc:title></dc:title>
      </cc:Work>
    </rdf:RDF>
  </metadata>
  <g
     inkscape:label="Layer 1"
     inkscape:groupmode="layer"
     id="layer1"
     transform="translate(52.097364,-173.9741)">
    <g
       id="g27760"
       transform="matrix(1,0,0,0.86,0,27.821666)">
      <g
         transform="matrix(0.35277777,0,0,-0.35277777,-51.49836,214.86325)"
         id="g270761">
        <path
           inkscape:connector-curvature="0"
           id="path270763"
           style="fill:#94b226;fill-opacity:1;fill-rule:nonzero;stroke:none"
           d="m 0,0 56.015,-32.609 c 2.273,-1.321 5.971,-1.321 8.26,0 l 64.797,37.412 c 1.151,0.66 1.728,1.535 1.722,2.408 L 130.8,4.971 C 130.805,4.1 130.229,3.227 129.076,2.559 L 64.282,-34.848 c -2.291,-1.326 -5.988,-1.326 -8.262,0 L 0.003,-2.232 c -1.127,0.654 -1.694,1.511 -1.696,2.375 L -1.697,2.377 C -1.697,1.518 -1.132,0.66 0,0" />
      </g>
      <g
         transform="matrix(0.35277777,0,0,-0.35277777,-51.49005,213.17378)"
         id="g270765">
        <path
           inkscape:connector-curvature="0"
           id="path270767"
           style="fill:#9ece4a;fill-opacity:1;fill-rule:nonzero;stroke:none"
           d="m 0,0 c -2.287,-1.322 -2.296,-3.463 -0.023,-4.789 l 56.014,-32.609 c 2.274,-1.321 5.972,-1.321 8.261,0 l 64.797,37.412 c 2.285,1.318 2.299,3.459 0.023,4.781 L 73.056,37.408 c -2.274,1.322 -5.97,1.322 -8.259,0 z" />
      </g>
      <g
         id="g270769"
         transform="matrix(0.35277777,0,0,-0.35277777,-375.34797,534.94433)">
        <g
           id="g270771" />
        <g
           id="g270783">
          <g
             style="opacity:0.19000202"
             id="g270781"
             clip-path="url(#clipPath270775)">
            <g
               id="g270779"
               transform="translate(1039.0571,920.4902)">
              <path
                 inkscape:connector-curvature="0"
                 id="path270777"
                 style="fill:#181816;fill-opacity:1;fill-rule:nonzero;stroke:none"
                 d="M 0,0 C 3.307,-1.908 3.329,-5.01 0.041,-6.92 -3.245,-8.826 -8.591,-8.822 -11.897,-6.916 -15.199,-5.01 -15.226,-1.908 -11.944,0 -8.658,1.912 -3.303,1.904 0,0" />
            </g>
          </g>
        </g>
      </g>
      <g
         transform="matrix(0.35277777,0,0,-0.35277777,-11.476321,206.56952)"
         id="g270785">
        <path
           inkscape:connector-curvature="0"
           id="path270787"
           style="fill:#775a20;fill-opacity:1;fill-rule:nonzero;stroke:none"
           d="m 0,0 -1.524,1.547 c -0.455,0.457 -1.034,1.043 -0.987,2.73 v 6.864 H -2.768 V 3.984 c 0,-1.609 0.408,-2.16 1.101,-2.853 1.029,-1.024 1.29,-1.412 1.743,-1.869 v 0.552 z" />
      </g>
      <g
         transform="matrix(0.35277777,0,0,-0.35277777,-11.623062,203.50961)"
         id="g270789">
        <path
           inkscape:connector-curvature="0"
           id="path270791"
           style="fill:#775a20;fill-opacity:1;fill-rule:nonzero;stroke:none"
           d="M 0,0 1.173,-0.027 1.836,-22.51 c 0,0 -0.135,-1.023 -1.306,-1.023 -1.198,0 -1.263,1.01 -1.263,1.01 z" />
      </g>
      <g
         transform="matrix(0.35277777,0,0,-0.35277777,-11.09185,207.22066)"
         id="g270793">
        <path
           inkscape:connector-curvature="0"
           id="path270795"
           style="fill:#775a20;fill-opacity:1;fill-rule:nonzero;stroke:none"
           d="m 0,0 v 0 c 0.52,0.518 0.813,1.232 0.813,1.965 v 8.721 h 0.4 V 1.742 c 0,-1.156 -0.461,-2.277 -1.283,-3.092 z" />
      </g>
      <g
         transform="matrix(0.35277777,0,0,-0.35277777,-10.658971,205.35063)"
         id="g270797">
        <path
           inkscape:connector-curvature="0"
           id="path270799"
           style="fill:#c4b08d;fill-opacity:1;fill-rule:nonzero;stroke:none"
           d="m 0,0 1.093,1.109 c 0.325,0.327 0.74,0.745 0.705,1.955 V 7.975 H 1.984 V 2.854 C 1.984,1.699 1.689,1.311 1.19,0.807 0.456,0.074 0.266,-0.197 -0.053,-0.525 v 0.394 z" />
      </g>
      <g
         transform="matrix(0.35277777,0,0,-0.35277777,-6.6862522,202.13708)"
         id="g270801">
        <path
           inkscape:connector-curvature="0"
           id="path270803"
           style="fill:#4b6d0f;fill-opacity:1;fill-rule:nonzero;stroke:none"
           d="m 0,0 c 0,1.434 -1.044,2.627 -2.405,2.871 -0.112,2.617 -2.265,4.713 -4.908,4.713 -0.377,0 -0.733,-0.049 -1.089,-0.129 -0.396,1.445 -1.71,2.506 -3.279,2.506 -0.784,0 -1.507,-0.264 -2.079,-0.709 -0.784,0.891 -1.928,1.457 -3.216,1.457 -2.322,0 -4.208,-1.85 -4.275,-4.16 -0.064,0.006 -0.124,0.014 -0.187,0.014 -2.15,0 -3.901,-1.749 -3.901,-3.901 0,-0.094 0.012,-0.182 0.016,-0.273 -1.089,-0.535 -1.835,-1.653 -1.835,-2.946 0,-1.461 0.961,-2.705 2.283,-3.125 0,-0.07 -0.01,-0.142 -0.01,-0.216 0,-3.336 2.708,-6.045 6.047,-6.045 0.702,0 1.372,0.125 1.995,0.347 0.885,-1.105 2.229,-1.812 3.74,-1.812 1.923,0 3.579,1.144 4.346,2.803 0.51,-0.182 1.064,-0.288 1.636,-0.288 2.717,0 4.924,2.207 4.924,4.926 0,0.377 -0.043,0.744 -0.127,1.1 C -1,-2.59 0,-1.41 0,0" />
      </g>
      <g
         transform="matrix(0.35277777,0,0,-0.35277777,-13.470012,201.21033)"
         id="g270805">
        <path
           inkscape:connector-curvature="0"
           id="path270807"
           style="fill:#71991c;fill-opacity:1;fill-rule:nonzero;stroke:none"
           d="m 0,0 c -0.009,0.051 -0.009,0.113 -0.009,0.17 0,1.662 1.346,3.006 3.011,3.006 1.233,0 2.293,-0.737 2.754,-1.799 0.392,0.328 1.104,0.816 1.565,0.91 4.09,0.846 4.098,-3.846 4.229,-3.728 0.184,0.16 0.749,2.742 -1.048,4.185 C 7.9,4.822 6.042,3.404 5.628,3.264 5.165,4.326 3.876,5.279 2.641,5.279 0.978,5.279 -0.3,4.201 -0.3,2.535 -0.3,2.48 -0.415,1.566 -0.414,1.512 -1.322,1.311 -3.021,0.313 -3.021,-1.455 c 0,-0.59 0.134,-1.156 0.36,-1.664 C -2.402,-1.664 -1.37,-0.477 0,0" />
      </g>
      <g
         transform="matrix(0.35277777,0,0,-0.35277777,-11.000542,201.83115)"
         id="g270809">
        <path
           inkscape:connector-curvature="0"
           id="path270811"
           style="fill:#71991c;fill-opacity:1;fill-rule:nonzero;stroke:none"
           d="m 0,0 c 1.147,-0.402 1.891,-1.432 1.975,-2.572 0.549,0.256 1.611,-0.116 2.046,-0.266 1.87,-0.65 2.467,-2.469 1.903,-4.391 0.344,0.346 0.61,0.768 0.786,1.252 C 7.324,-4.221 6.391,-2.291 4.639,-1.68 4.274,-1.555 3.901,-1.496 3.538,-1.494 3.468,-0.541 2.842,0.326 1.883,0.658 0.988,0.975 0.033,0.742 -0.621,0.139 -0.415,0.113 -0.206,0.072 0,0" />
      </g>
      <g
         id="g270813"
         transform="matrix(0.35277777,0,0,-0.35277777,-375.34797,534.94433)">
        <g
           id="g270815" />
        <g
           id="g270827">
          <g
             style="opacity:0.130005"
             id="g270825"
             clip-path="url(#clipPath270819)">
            <g
               id="g270823"
               transform="translate(1041.1128,908.625)">
              <path
                 inkscape:connector-curvature="0"
                 id="path270821"
                 style="fill:#060606;fill-opacity:1;fill-rule:nonzero;stroke:none"
                 d="m 0,0 -47.479,-27.428 -18.49,0.082 -24.635,14.055 55.752,32.672 z" />
            </g>
          </g>
        </g>
      </g>
      <g
         transform="matrix(0.35277777,0,0,-0.35277777,-44.14995,197.99815)"
         id="g270829">
        <path
           inkscape:connector-curvature="0"
           id="path270831"
           style="fill:#b8bbab;fill-opacity:1;fill-rule:nonzero;stroke:none"
           d="M 0,0 0.125,-44.777 36.627,-23.699 36.5,50.719 Z" />
      </g>
      <g
         transform="matrix(0.35277777,0,0,-0.35277777,-31.273401,180.10568)"
         id="g270833">
        <path
           inkscape:connector-curvature="0"
           id="path270835"
           style="fill:#818377;fill-opacity:1;fill-rule:nonzero;stroke:none"
           d="m 0,0 0.126,-74.418 36.268,-21.078 -0.13,44.775 z" />
      </g>
      <g
         transform="matrix(0.35277777,0,0,-0.35277777,-44.14995,197.99815)"
         id="g270837">
        <path
           inkscape:connector-curvature="0"
           id="path270839"
           style="fill:#727374;fill-opacity:1;fill-rule:nonzero;stroke:none"
           d="M 0,0 0.125,-44.777 36.391,-65.85 36.263,-21.076 Z" />
      </g>
      <g
         transform="matrix(0.35277777,0,0,-0.35277777,-31.35711,205.43334)"
         id="g270841">
        <path
           inkscape:connector-curvature="0"
           id="path270843"
           style="fill:#a4a5a6;fill-opacity:1;fill-rule:nonzero;stroke:none"
           d="m 0,0 0.127,-44.773 36.504,21.072 -0.13,44.775 z" />
      </g>
      <g
         transform="matrix(0.35277777,0,0,-0.35277777,-31.35711,190.72002)"
         id="g270845">
        <path
           inkscape:connector-curvature="0"
           id="path270847"
           style="fill:#c9cdbb;fill-opacity:1;fill-rule:nonzero;stroke:none"
           d="M 0,0 36.501,21.072 0.237,42.15 -36.263,21.072 Z m 50.363,21.072 -50.41,-58.748 -50.079,58.748 50.41,29.104 z" />
      </g>
      <g
         transform="matrix(0.35277777,0,0,-0.35277777,-44.14995,183.28618)"
         id="g270849">
        <path
           inkscape:connector-curvature="0"
           id="path270851"
           style="fill:#c6c6c6;fill-opacity:1;fill-rule:nonzero;stroke:none"
           d="M 0,0 36.263,-21.072 72.764,0 36.5,21.078 Z" />
      </g>
      <g
         transform="matrix(0.35277777,0,0,-0.35277777,-18.480371,182.18721)"
         id="g270853">
        <path
           inkscape:connector-curvature="0"
           id="path270855"
           style="fill:#bababa;fill-opacity:1;fill-rule:nonzero;stroke:none"
           d="m 0,0 -0.007,-3.332 -36.503,21.074 0.009,3.33 z" />
      </g>
      <g
         transform="matrix(0.35277777,0,0,-0.35277777,-31.35711,174.75337)"
         id="g270857">
        <path
           inkscape:connector-curvature="0"
           id="path270859"
           style="fill:#d8d8d8;fill-opacity:1;fill-rule:nonzero;stroke:none"
           d="m 0,0 -0.009,-3.33 -36.266,-21.074 0.012,3.332 z" />
      </g>
      <g
         transform="matrix(0.35277777,0,0,-0.35277777,-49.0439,198.07531)"
         id="g270861">
        <path
           inkscape:connector-curvature="0"
           id="path270863"
           style="fill:#ff623e;fill-opacity:1;fill-rule:nonzero;stroke:none"
           d="M 0,0 0.009,45.037 50.097,16.146 50.088,-28.889 50.101,-73.605 0.135,-44.559 0.009,-0.008 Z" />
      </g>
      <g
         transform="matrix(0.35277777,0,0,-0.35277777,-31.37089,192.37917)"
         id="g270865">
        <path
           inkscape:connector-curvature="0"
           id="path270867"
           style="fill:#db381d;fill-opacity:1;fill-rule:nonzero;stroke:none"
           d="m 0,0 50.402,28.891 -0.011,-44.827 0.011,0.006 0.129,-44.888 -50.527,-28.934 -0.012,44.717 z" />
      </g>
      <g
         transform="matrix(0.35277777,0,0,-0.35277777,-31.273401,189.62174)"
         id="g270869">
        <path
           inkscape:connector-curvature="0"
           id="path270871"
           style="fill:#f1f2f2;fill-opacity:1;fill-rule:nonzero;stroke:none"
           d="M 0,0 36.264,21.074 -0.237,42.146 -36.5,21.074 Z M -0.283,50.176 50.125,21.074 -0.276,-7.816 -50.364,21.074 Z" />
      </g>
      <g
         id="g270873"
         transform="matrix(0.35277777,0,0,-0.35277777,-375.34797,534.94433)">
        <g
           id="g270875" />
        <g
           id="g271059">
          <g
             style="opacity:0.36000097"
             id="g271057"
             clip-path="url(#clipPath270879)">
            <g
               id="g271055">
              <g
                 id="g271053"
                 clip-path="url(#clipPath270883)">
                <g
                   id="g270951">
                  <g
                     id="g270933" />
                  <g
                     id="g270949">
                    <g
                       style="opacity:0.55999798"
                       id="g270947"
                       clip-path="url(#clipPath270887)">
                      <g
                         id="g270945">
                        <g
                           id="g270935" />
                        <g
                           id="g270943">
                          <g
                             id="g270941"
                             clip-path="url(#clipPath270891)">
                            <g
                               id="g270939"
                               transform="translate(929.4634,991.3086)">
                              <path
                                 inkscape:connector-curvature="0"
                                 id="path270937"
                                 style="fill:#ffffff;fill-opacity:1;fill-rule:nonzero;stroke:none"
                                 d="m 0,0 c 1.579,-0.945 3.037,-2.73 4.543,-4.326 0.602,-0.637 1.21,-1.102 1.83,-1.459 2.278,-1.315 4.677,-1.121 7.148,-2.094 0.219,-0.088 0.44,-0.199 0.658,-0.326 1.252,-0.723 2.513,-2.037 3.769,-3.352 1.261,-1.316 2.517,-2.629 3.76,-3.347 0.259,-0.149 0.518,-0.274 0.776,-0.366 2.411,-0.861 4.754,-0.791 6.988,-2.076 0.673,-0.392 1.334,-0.902 1.986,-1.599 1.483,-1.586 2.934,-3.311 4.417,-4.166 1.579,-0.877 3.039,-0.778 4.553,-0.93 0.603,-0.061 1.214,-0.295 1.832,-0.654 2.281,-1.317 4.67,-4.274 7.136,-6.149 0.222,-0.168 0.441,-0.314 0.665,-0.443 1.248,-0.723 2.509,-0.859 3.772,-1 1.259,-0.139 2.519,-0.279 3.768,-0.998 0.256,-0.147 0.514,-0.32 0.769,-0.526 -0.006,-2.142 -0.011,-4.285 -0.019,-6.425 -0.255,0.203 -0.513,0.377 -0.77,0.527 -1.247,0.719 -2.506,0.857 -3.767,0.998 -1.261,0.139 -2.524,0.279 -3.773,0.998 -0.221,0.129 -0.443,0.274 -0.665,0.443 -2.464,1.874 -4.854,4.834 -7.134,6.147 -0.619,0.359 -1.228,0.596 -1.831,0.654 -1.516,0.156 -2.976,0.053 -4.49,0.895 -1.554,0.894 -2.999,2.617 -4.481,4.201 -0.651,0.697 -1.315,1.207 -1.985,1.594 -2.233,1.293 -4.577,1.22 -6.987,2.08 -0.26,0.094 -0.52,0.219 -0.78,0.367 -1.243,0.719 -2.497,2.031 -3.756,3.344 -1.261,1.32 -2.523,2.636 -3.777,3.361 -0.217,0.123 -0.436,0.232 -0.653,0.32 -2.469,0.973 -4.869,0.778 -7.148,2.094 -0.617,0.356 -1.228,0.826 -1.828,1.459 -1.506,1.596 -2.964,3.381 -4.479,4.289 -1.551,0.895 -3.001,0.846 -4.489,0.975 -0.653,0.056 -1.314,0.308 -1.986,0.697 -2.233,1.289 -4.569,4.063 -6.981,5.988 0.006,2.143 0.011,4.284 0.02,6.428 2.408,-1.926 4.744,-4.697 6.976,-5.986 0.672,-0.391 1.336,-0.643 1.99,-0.698 C -2.936,0.809 -1.485,0.855 0,0" />
                            </g>
                          </g>
                        </g>
                      </g>
                    </g>
                  </g>
                </g>
                <g
                   id="g270971">
                  <g
                     id="g270953" />
                  <g
                     id="g270969">
                    <g
                       style="opacity:0.55999798"
                       id="g270967"
                       clip-path="url(#clipPath270895)">
                      <g
                         id="g270965">
                        <g
                           id="g270955" />
                        <g
                           id="g270963">
                          <g
                             id="g270961"
                             clip-path="url(#clipPath270899)">
                            <g
                               id="g270959"
                               transform="translate(929.4634,977.5449)">
                              <path
                                 inkscape:connector-curvature="0"
                                 id="path270957"
                                 style="fill:#ffffff;fill-opacity:1;fill-rule:nonzero;stroke:none"
                                 d="m 0,0 c 1.579,-0.947 3.037,-2.73 4.543,-4.326 0.602,-0.633 1.21,-1.104 1.83,-1.463 2.278,-1.315 4.677,-1.117 7.148,-2.092 0.219,-0.086 0.44,-0.197 0.658,-0.322 1.252,-0.721 2.513,-2.039 3.769,-3.356 1.261,-1.316 2.517,-2.63 3.76,-3.345 0.259,-0.151 0.518,-0.276 0.776,-0.367 2.411,-0.86 4.754,-0.79 6.988,-2.079 0.673,-0.388 1.334,-0.9 1.986,-1.597 1.483,-1.584 2.934,-3.309 4.417,-4.166 1.579,-0.877 3.039,-0.776 4.553,-0.928 0.603,-0.061 1.214,-0.297 1.832,-0.654 2.281,-1.317 4.67,-4.276 7.136,-6.149 0.222,-0.168 0.441,-0.314 0.665,-0.445 1.248,-0.719 2.509,-0.859 3.772,-0.996 1.259,-0.141 2.519,-0.279 3.768,-1 0.256,-0.149 0.514,-0.32 0.769,-0.524 -0.006,-2.146 -0.011,-4.287 -0.019,-6.427 -0.255,0.203 -0.513,0.379 -0.77,0.525 -1.247,0.719 -2.506,0.857 -3.767,0.998 -1.261,0.139 -2.524,0.281 -3.773,1 -0.221,0.129 -0.443,0.274 -0.665,0.442 -2.464,1.876 -4.854,4.835 -7.134,6.148 -0.619,0.357 -1.228,0.596 -1.831,0.656 -1.516,0.153 -2.976,0.049 -4.49,0.891 -1.554,0.898 -2.999,2.621 -4.481,4.203 -0.651,0.695 -1.315,1.207 -1.985,1.596 -2.233,1.291 -4.577,1.218 -6.987,2.078 -0.26,0.094 -0.52,0.219 -0.78,0.367 -1.243,0.719 -2.497,2.029 -3.756,3.344 -1.261,1.32 -2.523,2.636 -3.777,3.361 -0.217,0.127 -0.436,0.231 -0.653,0.32 -2.469,0.973 -4.869,0.78 -7.148,2.096 -0.617,0.357 -1.228,0.824 -1.828,1.457 -1.506,1.596 -2.964,3.379 -4.479,4.289 -1.551,0.895 -3.001,0.848 -4.489,0.973 -0.653,0.056 -1.314,0.31 -1.986,0.697 -2.233,1.291 -4.569,4.065 -6.981,5.99 0.006,2.141 0.011,4.284 0.02,6.426 2.408,-1.924 4.744,-4.695 6.976,-5.984 0.672,-0.389 1.336,-0.645 1.99,-0.699 C -2.936,0.809 -1.485,0.857 0,0" />
                            </g>
                          </g>
                        </g>
                      </g>
                    </g>
                  </g>
                </g>
                <g
                   id="g270991">
                  <g
                     id="g270973" />
                  <g
                     id="g270989">
                    <g
                       style="opacity:0.55999798"
                       id="g270987"
                       clip-path="url(#clipPath270903)">
                      <g
                         id="g270985">
                        <g
                           id="g270975" />
                        <g
                           id="g270983">
                          <g
                             id="g270981"
                             clip-path="url(#clipPath270907)">
                            <g
                               id="g270979"
                               transform="translate(929.4634,963.7793)">
                              <path
                                 inkscape:connector-curvature="0"
                                 id="path270977"
                                 style="fill:#ffffff;fill-opacity:1;fill-rule:nonzero;stroke:none"
                                 d="m 0,0 c 1.579,-0.943 3.037,-2.729 4.543,-4.326 0.602,-0.631 1.21,-1.102 1.83,-1.457 2.278,-1.317 4.677,-1.121 7.148,-2.098 0.219,-0.086 0.44,-0.193 0.658,-0.32 1.252,-0.723 2.513,-2.039 3.769,-3.356 1.261,-1.316 2.517,-2.627 3.76,-3.347 0.259,-0.149 0.518,-0.274 0.776,-0.366 2.411,-0.863 4.754,-0.787 6.988,-2.076 0.673,-0.39 1.334,-0.898 1.986,-1.599 1.483,-1.584 2.934,-3.309 4.417,-4.166 1.579,-0.877 3.039,-0.774 4.553,-0.928 0.603,-0.061 1.214,-0.297 1.832,-0.654 2.281,-1.317 4.67,-4.276 7.136,-6.149 0.222,-0.168 0.441,-0.314 0.665,-0.443 1.248,-0.721 2.509,-0.863 3.772,-1 1.259,-0.141 2.519,-0.278 3.768,-1 0.256,-0.147 0.514,-0.32 0.769,-0.524 -0.006,-2.144 -0.011,-4.285 -0.019,-6.427 -0.255,0.205 -0.513,0.377 -0.77,0.527 -1.247,0.719 -2.506,0.859 -3.767,0.998 -1.261,0.139 -2.524,0.279 -3.773,1.002 -0.221,0.127 -0.443,0.273 -0.665,0.439 -2.464,1.875 -4.854,4.834 -7.134,6.151 -0.619,0.355 -1.228,0.594 -1.831,0.652 -1.516,0.154 -2.976,0.051 -4.49,0.893 -1.554,0.898 -2.999,2.619 -4.481,4.201 -0.651,0.697 -1.315,1.207 -1.985,1.6 -2.233,1.289 -4.577,1.216 -6.987,2.076 -0.26,0.093 -0.52,0.217 -0.78,0.369 -1.243,0.717 -2.497,2.031 -3.756,3.344 -1.261,1.316 -2.523,2.632 -3.777,3.357 -0.217,0.125 -0.436,0.232 -0.653,0.32 -2.469,0.975 -4.869,0.78 -7.148,2.096 -0.617,0.356 -1.228,0.826 -1.828,1.457 -1.506,1.596 -2.964,3.379 -4.479,4.289 -1.551,0.895 -3.001,0.848 -4.489,0.977 -0.653,0.054 -1.314,0.306 -1.986,0.695 -2.233,1.289 -4.569,4.064 -6.981,5.99 0.006,2.141 0.011,4.282 0.02,6.426 2.408,-1.922 4.744,-4.695 6.976,-5.984 0.672,-0.389 1.336,-0.643 1.99,-0.7 C -2.936,0.811 -1.485,0.857 0,0" />
                            </g>
                          </g>
                        </g>
                      </g>
                    </g>
                  </g>
                </g>
                <g
                   id="g271011">
                  <g
                     id="g270993" />
                  <g
                     id="g271009">
                    <g
                       style="opacity:0.55999798"
                       id="g271007"
                       clip-path="url(#clipPath270911)">
                      <g
                         id="g271005">
                        <g
                           id="g270995" />
                        <g
                           id="g271003">
                          <g
                             id="g271001"
                             clip-path="url(#clipPath270915)">
                            <g
                               id="g270999"
                               transform="translate(929.4634,950.0176)">
                              <path
                                 inkscape:connector-curvature="0"
                                 id="path270997"
                                 style="fill:#ffffff;fill-opacity:1;fill-rule:nonzero;stroke:none"
                                 d="m 0,0 c 1.579,-0.947 3.037,-2.732 4.543,-4.328 0.602,-0.633 1.21,-1.104 1.83,-1.457 2.278,-1.317 4.677,-1.121 7.148,-2.096 0.219,-0.088 0.44,-0.195 0.658,-0.324 1.252,-0.721 2.513,-2.037 3.769,-3.352 1.261,-1.318 2.517,-2.631 3.76,-3.347 0.259,-0.151 0.518,-0.278 0.776,-0.369 2.411,-0.86 4.754,-0.788 6.988,-2.077 0.673,-0.386 1.334,-0.9 1.986,-1.599 1.483,-1.584 2.934,-3.307 4.417,-4.162 1.579,-0.879 3.039,-0.778 4.553,-0.932 0.603,-0.059 1.214,-0.295 1.832,-0.65 2.281,-1.321 4.67,-4.28 7.136,-6.151 0.222,-0.168 0.441,-0.316 0.665,-0.443 1.248,-0.721 2.509,-0.861 3.772,-1 1.259,-0.141 2.519,-0.279 3.768,-0.998 0.256,-0.149 0.514,-0.322 0.769,-0.528 -0.006,-2.142 -0.011,-4.285 -0.019,-6.423 -0.255,0.201 -0.513,0.375 -0.77,0.523 -1.247,0.721 -2.506,0.858 -3.767,1 -1.261,0.141 -2.524,0.279 -3.773,1 -0.221,0.129 -0.443,0.272 -0.665,0.442 -2.464,1.875 -4.854,4.833 -7.134,6.15 -0.619,0.355 -1.228,0.592 -1.831,0.654 -1.516,0.151 -2.976,0.051 -4.49,0.893 -1.554,0.896 -2.999,2.617 -4.481,4.201 -0.651,0.695 -1.315,1.209 -1.985,1.598 -2.233,1.289 -4.577,1.216 -6.987,2.076 -0.26,0.094 -0.52,0.217 -0.78,0.365 -1.243,0.719 -2.497,2.033 -3.756,3.348 -1.261,1.314 -2.523,2.634 -3.777,3.357 -0.217,0.127 -0.436,0.236 -0.653,0.322 -2.469,0.973 -4.869,0.778 -7.148,2.094 -0.617,0.359 -1.228,0.824 -1.828,1.457 -1.506,1.596 -2.964,3.379 -4.479,4.291 -1.551,0.893 -3.001,0.848 -4.489,0.971 -0.653,0.056 -1.314,0.314 -1.986,0.703 -2.233,1.287 -4.569,4.059 -6.981,5.986 0.006,2.139 0.011,4.28 0.02,6.424 2.408,-1.92 4.744,-4.695 6.976,-5.984 0.672,-0.389 1.336,-0.641 1.99,-0.697 C -2.936,0.807 -1.485,0.855 0,0" />
                            </g>
                          </g>
                        </g>
                      </g>
                    </g>
                  </g>
                </g>
                <g
                   id="g271031">
                  <g
                     id="g271013" />
                  <g
                     id="g271029">
                    <g
                       style="opacity:0.55999798"
                       id="g271027"
                       clip-path="url(#clipPath270919)">
                      <g
                         id="g271025">
                        <g
                           id="g271015" />
                        <g
                           id="g271023">
                          <g
                             id="g271021"
                             clip-path="url(#clipPath270923)">
                            <g
                               id="g271019"
                               transform="translate(929.4634,936.252)">
                              <path
                                 inkscape:connector-curvature="0"
                                 id="path271017"
                                 style="fill:#ffffff;fill-opacity:1;fill-rule:nonzero;stroke:none"
                                 d="m 0,0 c 1.579,-0.945 3.037,-2.732 4.543,-4.326 0.602,-0.633 1.21,-1.1 1.83,-1.459 2.278,-1.317 4.677,-1.121 7.148,-2.092 0.219,-0.09 0.44,-0.199 0.658,-0.322 1.252,-0.727 2.513,-2.043 3.769,-3.36 1.261,-1.312 2.517,-2.627 3.76,-3.345 0.259,-0.149 0.518,-0.272 0.776,-0.367 2.411,-0.862 4.754,-0.786 6.988,-2.077 0.673,-0.388 1.334,-0.898 1.986,-1.599 1.483,-1.584 2.934,-3.305 4.417,-4.164 1.579,-0.879 3.039,-0.776 4.553,-0.93 0.603,-0.061 1.214,-0.295 1.832,-0.652 2.281,-1.315 4.67,-4.278 7.136,-6.151 0.222,-0.168 0.441,-0.314 0.665,-0.441 1.248,-0.723 2.509,-0.865 3.772,-1 1.259,-0.141 2.519,-0.279 3.768,-0.998 0.256,-0.151 0.514,-0.324 0.769,-0.528 -0.006,-2.142 -0.011,-4.283 -0.019,-6.423 -0.255,0.203 -0.513,0.377 -0.77,0.521 -1.247,0.723 -2.506,0.863 -3.767,1 -1.261,0.143 -2.524,0.281 -3.773,1.002 -0.221,0.127 -0.443,0.275 -0.665,0.44 -2.464,1.876 -4.854,4.833 -7.134,6.15 -0.619,0.359 -1.228,0.596 -1.831,0.656 -1.516,0.154 -2.976,0.051 -4.49,0.889 -1.554,0.9 -2.999,2.619 -4.481,4.205 -0.651,0.695 -1.315,1.207 -1.985,1.596 -2.233,1.287 -4.577,1.218 -6.987,2.078 -0.26,0.092 -0.52,0.218 -0.78,0.367 -1.243,0.719 -2.497,2.029 -3.756,3.344 -1.261,1.316 -2.523,2.636 -3.777,3.359 -0.217,0.123 -0.436,0.236 -0.653,0.318 -2.469,0.975 -4.869,0.78 -7.148,2.1 -0.617,0.355 -1.228,0.822 -1.828,1.457 -1.506,1.596 -2.964,3.377 -4.479,4.287 -1.551,0.895 -3.001,0.848 -4.489,0.977 -0.653,0.052 -1.314,0.308 -1.986,0.695 -2.233,1.291 -4.569,4.064 -6.981,5.99 0.006,2.137 0.011,4.28 0.02,6.424 2.408,-1.922 4.744,-4.695 6.976,-5.984 0.672,-0.389 1.336,-0.641 1.99,-0.696 C -2.936,0.809 -1.485,0.857 0,0" />
                            </g>
                          </g>
                        </g>
                      </g>
                    </g>
                  </g>
                </g>
                <g
                   id="g271051">
                  <g
                     id="g271033" />
                  <g
                     id="g271049">
                    <g
                       style="opacity:0.55999798"
                       id="g271047"
                       clip-path="url(#clipPath270927)">
                      <g
                         id="g271045">
                        <g
                           id="g271035" />
                        <g
                           id="g271043">
                          <g
                             id="g271041"
                             clip-path="url(#clipPath270931)">
                            <g
                               id="g271039"
                               transform="translate(929.4634,922.4902)">
                              <path
                                 inkscape:connector-curvature="0"
                                 id="path271037"
                                 style="fill:#ffffff;fill-opacity:1;fill-rule:nonzero;stroke:none"
                                 d="m 0,0 c 1.579,-0.947 3.037,-2.734 4.543,-4.33 0.602,-0.633 1.21,-1.102 1.83,-1.457 2.278,-1.317 4.677,-1.121 7.148,-2.096 0.219,-0.086 0.44,-0.195 0.658,-0.322 1.252,-0.725 2.513,-2.039 3.769,-3.354 1.261,-1.318 2.517,-2.629 3.76,-3.349 0.259,-0.149 0.518,-0.27 0.776,-0.365 2.411,-0.858 4.754,-0.788 6.988,-2.077 0.673,-0.388 1.334,-0.902 1.986,-1.599 1.483,-1.584 2.934,-3.309 4.417,-4.164 1.579,-0.879 3.039,-0.776 4.553,-0.928 0.603,-0.063 1.214,-0.299 1.832,-0.654 2.281,-1.319 4.67,-4.276 7.136,-6.151 0.222,-0.17 0.441,-0.314 0.665,-0.443 1.248,-0.723 2.509,-0.859 3.772,-0.998 1.259,-0.139 2.519,-0.277 3.768,-1 0.256,-0.149 0.514,-0.32 0.769,-0.526 -0.006,-2.142 -0.011,-4.283 -0.019,-6.425 -0.255,0.203 -0.513,0.379 -0.77,0.527 -1.247,0.719 -2.506,0.857 -3.767,0.998 -1.261,0.141 -2.524,0.277 -3.773,1 -0.221,0.127 -0.443,0.274 -0.665,0.442 -2.464,1.873 -4.854,4.832 -7.134,6.148 -0.619,0.359 -1.228,0.596 -1.831,0.654 -1.516,0.153 -2.976,0.051 -4.49,0.891 -1.554,0.898 -2.999,2.621 -4.481,4.205 -0.651,0.697 -1.315,1.207 -1.985,1.596 -2.233,1.289 -4.577,1.216 -6.987,2.078 -0.26,0.094 -0.52,0.215 -0.78,0.367 -1.243,0.717 -2.497,2.029 -3.756,3.344 -1.261,1.316 -2.523,2.634 -3.777,3.361 -0.217,0.123 -0.436,0.232 -0.653,0.318 -2.469,0.977 -4.869,0.78 -7.148,2.096 -0.617,0.358 -1.228,0.824 -1.828,1.459 -1.506,1.596 -2.964,3.379 -4.479,4.287 -1.551,0.897 -3.001,0.848 -4.489,0.973 -0.653,0.06 -1.314,0.312 -1.986,0.701 -2.233,1.289 -4.569,4.063 -6.981,5.988 0.006,2.141 0.011,4.278 0.02,6.424 2.408,-1.924 4.744,-4.697 6.976,-5.986 0.672,-0.387 1.336,-0.639 1.99,-0.694 C -2.936,0.805 -1.485,0.855 0,0" />
                            </g>
                          </g>
                        </g>
                      </g>
                    </g>
                  </g>
                </g>
              </g>
            </g>
          </g>
        </g>
      </g>
      <g
         id="g271061"
         transform="matrix(0.35277777,0,0,-0.35277777,-375.34797,534.94433)">
        <g
           id="g271063" />
        <g
           id="g271247">
          <g
             style="opacity:0.36000097"
             id="g271245"
             clip-path="url(#clipPath271067)">
            <g
               id="g271243">
              <g
                 id="g271241"
                 clip-path="url(#clipPath271071)">
                <g
                   id="g271139">
                  <g
                     id="g271121" />
                  <g
                     id="g271137">
                    <g
                       style="opacity:0.55999798"
                       id="g271135"
                       clip-path="url(#clipPath271075)">
                      <g
                         id="g271133">
                        <g
                           id="g271123" />
                        <g
                           id="g271131">
                          <g
                             id="g271129"
                             clip-path="url(#clipPath271079)">
                            <g
                               id="g271127"
                               transform="translate(1020.7539,991.3086)">
                              <path
                                 inkscape:connector-curvature="0"
                                 id="path271125"
                                 style="fill:#ffffff;fill-opacity:1;fill-rule:nonzero;stroke:none"
                                 d="m 0,0 c -1.578,-0.945 -3.036,-2.73 -4.543,-4.326 -0.599,-0.637 -1.21,-1.102 -1.828,-1.459 -2.28,-1.315 -4.678,-1.121 -7.15,-2.094 -0.219,-0.088 -0.437,-0.199 -0.66,-0.326 -1.248,-0.723 -2.51,-2.037 -3.767,-3.352 -1.261,-1.316 -2.513,-2.629 -3.76,-3.347 -0.259,-0.149 -0.517,-0.274 -0.774,-0.366 -2.413,-0.861 -4.755,-0.791 -6.987,-2.076 -0.674,-0.392 -1.336,-0.902 -1.988,-1.599 -1.484,-1.586 -2.932,-3.311 -4.417,-4.166 -1.579,-0.877 -3.04,-0.778 -4.554,-0.93 -0.602,-0.061 -1.214,-0.295 -1.83,-0.654 -2.28,-1.317 -4.671,-4.274 -7.136,-6.149 -0.221,-0.168 -0.443,-0.314 -0.666,-0.443 -1.249,-0.723 -2.51,-0.859 -3.771,-1 -1.261,-0.139 -2.521,-0.279 -3.768,-0.998 -0.258,-0.147 -0.513,-0.32 -0.77,-0.526 0.006,-2.142 0.013,-4.285 0.019,-6.425 0.254,0.203 0.512,0.377 0.77,0.527 1.246,0.719 2.505,0.857 3.767,0.998 1.261,0.139 2.523,0.279 3.773,0.998 0.221,0.129 0.443,0.274 0.664,0.443 2.466,1.874 4.855,4.834 7.136,6.147 0.617,0.359 1.228,0.596 1.829,0.654 1.516,0.156 2.976,0.053 4.49,0.895 1.554,0.894 3,2.617 4.484,4.201 0.649,0.697 1.312,1.207 1.984,1.594 2.234,1.293 4.576,1.22 6.988,2.08 0.26,0.094 0.518,0.219 0.777,0.367 1.244,0.719 2.498,2.031 3.756,3.344 1.261,1.32 2.523,2.636 3.778,3.361 0.218,0.123 0.436,0.232 0.654,0.32 2.469,0.973 4.867,0.778 7.146,2.094 0.619,0.356 1.228,0.826 1.829,1.459 1.508,1.596 2.965,3.381 4.481,4.289 1.548,0.895 3,0.846 4.486,0.975 0.655,0.056 1.316,0.308 1.986,0.697 C 8.662,-3.504 11,-0.73 13.41,1.195 13.403,3.338 13.398,5.479 13.392,7.623 10.981,5.697 8.647,2.926 6.414,1.637 5.741,1.246 5.078,0.994 4.424,0.939 2.938,0.809 1.485,0.855 0,0" />
                            </g>
                          </g>
                        </g>
                      </g>
                    </g>
                  </g>
                </g>
                <g
                   id="g271159">
                  <g
                     id="g271141" />
                  <g
                     id="g271157">
                    <g
                       style="opacity:0.55999798"
                       id="g271155"
                       clip-path="url(#clipPath271083)">
                      <g
                         id="g271153">
                        <g
                           id="g271143" />
                        <g
                           id="g271151">
                          <g
                             id="g271149"
                             clip-path="url(#clipPath271087)">
                            <g
                               id="g271147"
                               transform="translate(1020.7539,977.5449)">
                              <path
                                 inkscape:connector-curvature="0"
                                 id="path271145"
                                 style="fill:#ffffff;fill-opacity:1;fill-rule:nonzero;stroke:none"
                                 d="m 0,0 c -1.578,-0.947 -3.036,-2.73 -4.543,-4.326 -0.599,-0.633 -1.21,-1.104 -1.828,-1.463 -2.28,-1.315 -4.678,-1.117 -7.15,-2.092 -0.219,-0.086 -0.437,-0.197 -0.66,-0.322 -1.248,-0.721 -2.51,-2.039 -3.767,-3.356 -1.261,-1.316 -2.513,-2.63 -3.76,-3.345 -0.259,-0.151 -0.517,-0.276 -0.774,-0.367 -2.413,-0.86 -4.755,-0.79 -6.987,-2.079 -0.674,-0.388 -1.336,-0.9 -1.988,-1.597 -1.484,-1.584 -2.932,-3.309 -4.417,-4.166 -1.579,-0.877 -3.04,-0.776 -4.554,-0.928 -0.602,-0.061 -1.214,-0.297 -1.83,-0.654 -2.28,-1.317 -4.671,-4.276 -7.136,-6.149 -0.221,-0.168 -0.443,-0.314 -0.666,-0.445 -1.249,-0.719 -2.51,-0.859 -3.771,-0.996 -1.261,-0.141 -2.521,-0.279 -3.768,-1 -0.258,-0.149 -0.513,-0.32 -0.77,-0.524 0.006,-2.146 0.013,-4.287 0.019,-6.427 0.254,0.203 0.512,0.379 0.77,0.525 1.246,0.719 2.505,0.857 3.767,0.998 1.261,0.139 2.523,0.281 3.773,1 0.221,0.129 0.443,0.274 0.664,0.442 2.466,1.876 4.855,4.835 7.136,6.148 0.617,0.357 1.228,0.596 1.829,0.656 1.516,0.153 2.976,0.049 4.49,0.891 1.554,0.898 3,2.621 4.484,4.203 0.649,0.695 1.312,1.207 1.984,1.596 2.234,1.291 4.576,1.218 6.988,2.078 0.26,0.094 0.518,0.219 0.777,0.367 1.244,0.719 2.498,2.029 3.756,3.344 1.261,1.32 2.523,2.636 3.778,3.361 0.218,0.127 0.436,0.231 0.654,0.32 2.469,0.973 4.867,0.78 7.146,2.096 0.619,0.357 1.228,0.824 1.829,1.457 1.508,1.596 2.965,3.379 4.481,4.289 1.548,0.895 3,0.848 4.486,0.973 0.655,0.056 1.316,0.31 1.986,0.697 C 8.662,-3.504 11,-0.73 13.41,1.195 13.403,3.336 13.398,5.479 13.392,7.621 10.981,5.697 8.647,2.926 6.414,1.637 5.741,1.248 5.078,0.992 4.424,0.938 2.938,0.809 1.485,0.857 0,0" />
                            </g>
                          </g>
                        </g>
                      </g>
                    </g>
                  </g>
                </g>
                <g
                   id="g271179">
                  <g
                     id="g271161" />
                  <g
                     id="g271177">
                    <g
                       style="opacity:0.55999798"
                       id="g271175"
                       clip-path="url(#clipPath271091)">
                      <g
                         id="g271173">
                        <g
                           id="g271163" />
                        <g
                           id="g271171">
                          <g
                             id="g271169"
                             clip-path="url(#clipPath271095)">
                            <g
                               id="g271167"
                               transform="translate(1020.7539,963.7793)">
                              <path
                                 inkscape:connector-curvature="0"
                                 id="path271165"
                                 style="fill:#ffffff;fill-opacity:1;fill-rule:nonzero;stroke:none"
                                 d="m 0,0 c -1.578,-0.943 -3.036,-2.729 -4.543,-4.326 -0.599,-0.631 -1.21,-1.102 -1.828,-1.457 -2.28,-1.317 -4.678,-1.121 -7.15,-2.098 -0.219,-0.086 -0.437,-0.193 -0.66,-0.32 -1.248,-0.723 -2.51,-2.039 -3.767,-3.356 -1.261,-1.316 -2.513,-2.627 -3.76,-3.347 -0.259,-0.149 -0.517,-0.274 -0.774,-0.366 -2.413,-0.863 -4.755,-0.787 -6.987,-2.076 -0.674,-0.39 -1.336,-0.898 -1.988,-1.599 -1.484,-1.584 -2.932,-3.309 -4.417,-4.166 -1.579,-0.877 -3.04,-0.774 -4.554,-0.928 -0.602,-0.061 -1.214,-0.297 -1.83,-0.654 -2.28,-1.317 -4.671,-4.276 -7.136,-6.149 -0.221,-0.168 -0.443,-0.314 -0.666,-0.443 -1.249,-0.721 -2.51,-0.863 -3.771,-1 -1.261,-0.141 -2.521,-0.278 -3.768,-1 -0.258,-0.147 -0.513,-0.32 -0.77,-0.524 0.006,-2.144 0.013,-4.285 0.019,-6.427 0.254,0.205 0.512,0.377 0.77,0.527 1.246,0.719 2.505,0.859 3.767,0.998 1.261,0.139 2.523,0.279 3.773,1.002 0.221,0.127 0.443,0.273 0.664,0.439 2.466,1.875 4.855,4.834 7.136,6.151 0.617,0.355 1.228,0.594 1.829,0.652 1.516,0.154 2.976,0.051 4.49,0.893 1.554,0.898 3,2.619 4.484,4.201 0.649,0.697 1.312,1.207 1.984,1.6 2.234,1.289 4.576,1.216 6.988,2.076 0.26,0.093 0.518,0.217 0.777,0.369 1.244,0.717 2.498,2.031 3.756,3.344 1.261,1.316 2.523,2.632 3.778,3.357 0.218,0.125 0.436,0.232 0.654,0.32 2.469,0.975 4.867,0.78 7.146,2.096 0.619,0.356 1.228,0.826 1.829,1.457 1.508,1.596 2.965,3.379 4.481,4.289 1.548,0.895 3,0.848 4.486,0.977 0.655,0.054 1.316,0.306 1.986,0.695 C 8.662,-3.504 11,-0.729 13.41,1.197 13.403,3.338 13.398,5.479 13.392,7.623 10.981,5.701 8.647,2.928 6.414,1.639 5.741,1.25 5.078,0.996 4.424,0.939 2.938,0.811 1.485,0.857 0,0" />
                            </g>
                          </g>
                        </g>
                      </g>
                    </g>
                  </g>
                </g>
                <g
                   id="g271199">
                  <g
                     id="g271181" />
                  <g
                     id="g271197">
                    <g
                       style="opacity:0.55999798"
                       id="g271195"
                       clip-path="url(#clipPath271099)">
                      <g
                         id="g271193">
                        <g
                           id="g271183" />
                        <g
                           id="g271191">
                          <g
                             id="g271189"
                             clip-path="url(#clipPath271103)">
                            <g
                               id="g271187"
                               transform="translate(1020.7539,950.0176)">
                              <path
                                 inkscape:connector-curvature="0"
                                 id="path271185"
                                 style="fill:#ffffff;fill-opacity:1;fill-rule:nonzero;stroke:none"
                                 d="m 0,0 c -1.578,-0.947 -3.036,-2.732 -4.543,-4.328 -0.599,-0.633 -1.21,-1.104 -1.828,-1.457 -2.28,-1.317 -4.678,-1.121 -7.15,-2.096 -0.219,-0.088 -0.437,-0.195 -0.66,-0.324 -1.248,-0.721 -2.51,-2.037 -3.767,-3.352 -1.261,-1.318 -2.513,-2.631 -3.76,-3.347 -0.259,-0.151 -0.517,-0.278 -0.774,-0.369 -2.413,-0.86 -4.755,-0.788 -6.987,-2.077 -0.674,-0.386 -1.336,-0.9 -1.988,-1.599 -1.484,-1.584 -2.932,-3.307 -4.417,-4.162 -1.579,-0.879 -3.04,-0.778 -4.554,-0.932 -0.602,-0.059 -1.214,-0.295 -1.83,-0.65 -2.28,-1.321 -4.671,-4.28 -7.136,-6.151 -0.221,-0.168 -0.443,-0.316 -0.666,-0.443 -1.249,-0.721 -2.51,-0.861 -3.771,-1 -1.261,-0.141 -2.521,-0.279 -3.768,-0.998 -0.258,-0.149 -0.513,-0.322 -0.77,-0.528 0.006,-2.142 0.013,-4.285 0.019,-6.423 0.254,0.201 0.512,0.375 0.77,0.523 1.246,0.721 2.505,0.858 3.767,1 1.261,0.141 2.523,0.279 3.773,1 0.221,0.129 0.443,0.272 0.664,0.442 2.466,1.875 4.855,4.833 7.136,6.15 0.617,0.355 1.228,0.592 1.829,0.654 1.516,0.151 2.976,0.051 4.49,0.893 1.554,0.896 3,2.617 4.484,4.201 0.649,0.695 1.312,1.209 1.984,1.598 2.234,1.289 4.576,1.216 6.988,2.076 0.26,0.094 0.518,0.217 0.777,0.365 1.244,0.719 2.498,2.033 3.756,3.348 1.261,1.314 2.523,2.634 3.778,3.357 0.218,0.127 0.436,0.236 0.654,0.322 2.469,0.973 4.867,0.778 7.146,2.094 0.619,0.359 1.228,0.824 1.829,1.457 1.508,1.596 2.965,3.379 4.481,4.291 1.548,0.893 3,0.848 4.486,0.971 0.655,0.056 1.316,0.314 1.986,0.703 C 8.662,-3.504 11,-0.732 13.41,1.195 13.403,3.334 13.398,5.475 13.392,7.619 10.981,5.699 8.647,2.924 6.414,1.635 5.741,1.246 5.078,0.994 4.424,0.938 2.938,0.807 1.485,0.855 0,0" />
                            </g>
                          </g>
                        </g>
                      </g>
                    </g>
                  </g>
                </g>
                <g
                   id="g271219">
                  <g
                     id="g271201" />
                  <g
                     id="g271217">
                    <g
                       style="opacity:0.55999798"
                       id="g271215"
                       clip-path="url(#clipPath271107)">
                      <g
                         id="g271213">
                        <g
                           id="g271203" />
                        <g
                           id="g271211">
                          <g
                             id="g271209"
                             clip-path="url(#clipPath271111)">
                            <g
                               id="g271207"
                               transform="translate(1020.7539,936.252)">
                              <path
                                 inkscape:connector-curvature="0"
                                 id="path271205"
                                 style="fill:#ffffff;fill-opacity:1;fill-rule:nonzero;stroke:none"
                                 d="m 0,0 c -1.578,-0.945 -3.036,-2.732 -4.543,-4.326 -0.599,-0.633 -1.21,-1.1 -1.828,-1.459 -2.28,-1.317 -4.678,-1.121 -7.15,-2.092 -0.219,-0.09 -0.437,-0.199 -0.66,-0.322 -1.248,-0.727 -2.51,-2.043 -3.767,-3.36 -1.261,-1.312 -2.513,-2.627 -3.76,-3.345 -0.259,-0.149 -0.517,-0.272 -0.774,-0.367 -2.413,-0.862 -4.755,-0.786 -6.987,-2.077 -0.674,-0.388 -1.336,-0.898 -1.988,-1.599 -1.484,-1.584 -2.932,-3.305 -4.417,-4.164 -1.579,-0.879 -3.04,-0.776 -4.554,-0.93 -0.602,-0.061 -1.214,-0.295 -1.83,-0.652 -2.28,-1.315 -4.671,-4.278 -7.136,-6.151 -0.221,-0.168 -0.443,-0.314 -0.666,-0.441 -1.249,-0.723 -2.51,-0.865 -3.771,-1 -1.261,-0.141 -2.521,-0.279 -3.768,-0.998 -0.258,-0.151 -0.513,-0.324 -0.77,-0.528 0.006,-2.142 0.013,-4.283 0.019,-6.423 0.254,0.203 0.512,0.377 0.77,0.521 1.246,0.723 2.505,0.863 3.767,1 1.261,0.143 2.523,0.281 3.773,1.002 0.221,0.127 0.443,0.275 0.664,0.44 2.466,1.876 4.855,4.833 7.136,6.15 0.617,0.359 1.228,0.596 1.829,0.656 1.516,0.154 2.976,0.051 4.49,0.889 1.554,0.9 3,2.619 4.484,4.205 0.649,0.695 1.312,1.207 1.984,1.596 2.234,1.287 4.576,1.218 6.988,2.078 0.26,0.092 0.518,0.218 0.777,0.367 1.244,0.719 2.498,2.029 3.756,3.344 1.261,1.316 2.523,2.636 3.778,3.359 0.218,0.123 0.436,0.236 0.654,0.318 2.469,0.975 4.867,0.78 7.146,2.1 0.619,0.355 1.228,0.822 1.829,1.457 1.508,1.596 2.965,3.377 4.481,4.287 1.548,0.895 3,0.848 4.486,0.977 0.655,0.052 1.316,0.308 1.986,0.695 2.234,1.291 4.572,4.064 6.982,5.99 -0.007,2.137 -0.012,4.28 -0.018,6.424 C 10.981,5.699 8.647,2.926 6.414,1.637 5.741,1.248 5.078,0.996 4.424,0.941 2.938,0.809 1.485,0.857 0,0" />
                            </g>
                          </g>
                        </g>
                      </g>
                    </g>
                  </g>
                </g>
                <g
                   id="g271239">
                  <g
                     id="g271221" />
                  <g
                     id="g271237">
                    <g
                       style="opacity:0.55999798"
                       id="g271235"
                       clip-path="url(#clipPath271115)">
                      <g
                         id="g271233">
                        <g
                           id="g271223" />
                        <g
                           id="g271231">
                          <g
                             id="g271229"
                             clip-path="url(#clipPath271119)">
                            <g
                               id="g271227"
                               transform="translate(1020.7539,922.4902)">
                              <path
                                 inkscape:connector-curvature="0"
                                 id="path271225"
                                 style="fill:#ffffff;fill-opacity:1;fill-rule:nonzero;stroke:none"
                                 d="m 0,0 c -1.578,-0.947 -3.036,-2.734 -4.543,-4.33 -0.599,-0.633 -1.21,-1.102 -1.828,-1.457 -2.28,-1.317 -4.678,-1.121 -7.15,-2.096 -0.219,-0.086 -0.437,-0.195 -0.66,-0.322 -1.248,-0.725 -2.51,-2.039 -3.767,-3.354 -1.261,-1.318 -2.513,-2.629 -3.76,-3.349 -0.259,-0.149 -0.517,-0.27 -0.774,-0.365 -2.413,-0.858 -4.755,-0.788 -6.987,-2.077 -0.674,-0.388 -1.336,-0.902 -1.988,-1.599 -1.484,-1.584 -2.932,-3.309 -4.417,-4.164 -1.579,-0.879 -3.04,-0.776 -4.554,-0.928 -0.602,-0.063 -1.214,-0.299 -1.83,-0.654 -2.28,-1.319 -4.671,-4.276 -7.136,-6.151 -0.221,-0.17 -0.443,-0.314 -0.666,-0.443 -1.249,-0.723 -2.51,-0.859 -3.771,-0.998 -1.261,-0.139 -2.521,-0.277 -3.768,-1 -0.258,-0.149 -0.513,-0.32 -0.77,-0.526 0.006,-2.142 0.013,-4.283 0.019,-6.425 0.254,0.203 0.512,0.379 0.77,0.527 1.246,0.719 2.505,0.857 3.767,0.998 1.261,0.141 2.523,0.277 3.773,1 0.221,0.127 0.443,0.274 0.664,0.442 2.466,1.873 4.855,4.832 7.136,6.148 0.617,0.359 1.228,0.596 1.829,0.654 1.516,0.153 2.976,0.051 4.49,0.891 1.554,0.898 3,2.621 4.484,4.205 0.649,0.697 1.312,1.207 1.984,1.596 2.234,1.289 4.576,1.216 6.988,2.078 0.26,0.094 0.518,0.215 0.777,0.367 1.244,0.717 2.498,2.029 3.756,3.344 1.261,1.316 2.523,2.634 3.778,3.361 0.218,0.123 0.436,0.232 0.654,0.318 2.469,0.977 4.867,0.78 7.146,2.096 0.619,0.358 1.228,0.824 1.829,1.459 1.508,1.596 2.965,3.379 4.481,4.287 1.548,0.897 3,0.848 4.486,0.973 0.655,0.06 1.316,0.312 1.986,0.701 C 8.662,-3.504 11,-0.73 13.41,1.195 13.403,3.336 13.398,5.473 13.392,7.619 10.981,5.695 8.647,2.922 6.414,1.633 5.741,1.246 5.078,0.994 4.424,0.939 2.938,0.805 1.485,0.855 0,0" />
                            </g>
                          </g>
                        </g>
                      </g>
                    </g>
                  </g>
                </g>
              </g>
            </g>
          </g>
        </g>
      </g>
      <g
         transform="matrix(0.35277777,0,0,-0.35277777,-19.410562,217.72546)"
         id="g271249">
        <path
           inkscape:connector-curvature="0"
           id="path271251"
           style="fill:#ddd3d0;fill-opacity:1;fill-rule:nonzero;stroke:none"
           d="m 0,0 -1.65,0.963 -0.087,28.16 1.647,1.072 z" />
      </g>
      <g
         transform="matrix(0.35277777,0,0,-0.35277777,-23.152622,219.8869)"
         id="g271253">
        <path
           inkscape:connector-curvature="0"
           id="path271255"
           style="fill:#d3d3d3;fill-opacity:1;fill-rule:nonzero;stroke:none"
           d="m 0,0 -1.083,0.699 -0.086,30.192 1.086,-0.696 z" />
      </g>
      <g
         transform="matrix(0.35277777,0,0,-0.35277777,-23.181721,209.23466)"
         id="g271257">
        <path
           inkscape:connector-curvature="0"
           id="path271259"
           style="fill:#efefef;fill-opacity:1;fill-rule:nonzero;stroke:none"
           d="M 0,0 -1.071,0.689 10.817,7.555 11.89,6.865 Z" />
      </g>
      <g
         transform="matrix(0.35277777,0,0,-0.35277777,-19.710282,207.76983)"
         id="g271261">
        <path
           inkscape:connector-curvature="0"
           id="path271263"
           style="fill:#cc805a;fill-opacity:1;fill-rule:nonzero;stroke:none"
           d="m 0,0 0.079,-27.805 -9.343,-5.367 -0.081,27.807 z" />
      </g>
      <g
         transform="matrix(0.35277777,0,0,-0.35277777,-22.672882,209.54404)"
         id="g271265">
        <path
           inkscape:connector-curvature="0"
           id="path271267"
           style="fill:#bcbcbc;fill-opacity:1;fill-rule:nonzero;stroke:none"
           d="m 0,0 9.165,5.209 0.071,-28.402 1.298,0.746 -0.087,30.189 -11.889,-6.865 0.082,-30.195 1.43,0.834 z" />
      </g>
      <g
         transform="matrix(0.35277777,0,0,-0.35277777,-22.162842,213.82286)"
         id="g271269">
        <path
           inkscape:connector-curvature="0"
           id="path271271"
           style="fill:#ad9634;fill-opacity:1;fill-rule:nonzero;stroke:none"
           d="M 0,0 C 0.013,0.006 0.038,0.006 0.044,0.006 0.081,-0.002 0.309,-0.1 0.346,-0.117 0.075,-0.002 -0.282,-0.742 0.016,-0.879 -0.213,-0.775 -0.275,-0.771 -0.319,-0.688 -0.427,-0.479 -0.231,-0.037 0,0" />
      </g>
      <g
         transform="matrix(0.35277777,0,0,-0.35277777,-21.962841,214.0378)"
         id="g271273">
        <path
           inkscape:connector-curvature="0"
           id="path271275"
           style="fill:#f2d95f;fill-opacity:1;fill-rule:nonzero;stroke:none"
           d="M 0,0 C -0.178,-0.365 -0.158,-0.758 0.044,-0.879 0.245,-0.998 0.548,-0.795 0.723,-0.428 0.906,-0.064 0.888,0.334 0.685,0.451 0.486,0.57 0.177,0.369 0,0" />
      </g>
      <g
         transform="matrix(0.35277777,0,0,-0.35277777,-21.94718,214.3479)"
         id="g271277">
        <path
           inkscape:connector-curvature="0"
           id="path271279"
           style="fill:#f9e97a;fill-opacity:1;fill-rule:nonzero;stroke:none"
           d="M 0,0 C -0.202,0.121 -0.223,0.514 -0.044,0.879 0.133,1.248 0.441,1.449 0.641,1.33 0.843,1.213 0.862,0.814 0.679,0.451 0.503,0.084 0.201,-0.119 0,0 M 0.205,-0.176 C 0.6,0.029 0.835,0.529 0.878,0.889 1.021,1.902 -0.081,2.238 -0.611,1.148 L -0.612,1.145 C -1.064,0.238 -0.49,-0.541 0.205,-0.176" />
      </g>
      <g
         transform="matrix(0.35277777,0,0,-0.35277777,-31.1301,189.97384)"
         id="g271281">
        <path
           inkscape:connector-curvature="0"
           id="path271283"
           style="fill:#c9cdbb;fill-opacity:1;fill-rule:nonzero;stroke:none"
           d="M 0,0 38.888,22.451 0.251,44.906 -38.636,22.451 Z" />
      </g>
      <g
         transform="matrix(0.35277777,0,0,-0.35277777,-44.759902,182.05354)"
         id="g271285">
        <path
           inkscape:connector-curvature="0"
           id="path271287"
           style="fill:#5e8a91;fill-opacity:1;fill-rule:nonzero;stroke:none"
           d="M 0,0 38.636,-22.451 77.524,0 38.887,22.455 Z" />
      </g>
      <g
         transform="matrix(0.35277777,0,0,-0.35277777,-17.41119,180.88361)"
         id="g271289">
        <path
           inkscape:connector-curvature="0"
           id="path271291"
           style="fill:#64afbc;fill-opacity:1;fill-rule:nonzero;stroke:none"
           d="m 0,0 -0.008,-3.545 -38.892,22.451 0.012,3.547 z" />
      </g>
      <g
         transform="matrix(0.35277777,0,0,-0.35277777,-31.1301,172.96264)"
         id="g271293">
        <path
           inkscape:connector-curvature="0"
           id="path271295"
           style="fill:#4f979e;fill-opacity:1;fill-rule:nonzero;stroke:none"
           d="m 0,0 -0.012,-3.547 -38.636,-22.451 0.012,3.545 z" />
      </g>
      <g
         transform="matrix(0.35277777,0,0,-0.35277777,-49.969942,180.88361)"
         id="g271297">
        <path
           inkscape:connector-curvature="0"
           id="path271299"
           style="fill:#64afbc;fill-opacity:1;fill-rule:nonzero;stroke:none"
           d="m 0,0 53.389,-30.775 v -4.883 L 0.133,-4.664 Z" />
      </g>
      <g
         transform="matrix(0.35277777,0,0,-0.35277777,-31.135601,191.74047)"
         id="g271301">
        <path
           inkscape:connector-curvature="0"
           id="path271303"
           style="fill:#4f979e;fill-opacity:1;fill-rule:nonzero;stroke:none"
           d="M 0,0 53.671,30.775 53.808,25.994 0,-4.883 Z" />
      </g>
      <g
         transform="matrix(0.35277777,0,0,-0.35277777,-31.041542,188.80454)"
         id="g271305">
        <path
           inkscape:connector-curvature="0"
           id="path271307"
           style="fill:#82cadb;fill-opacity:1;fill-rule:nonzero;stroke:none"
           d="M 0,0 38.637,22.453 -0.251,44.906 -38.887,22.453 Z M -0.3,53.461 53.405,22.453 -0.267,-8.322 -53.655,22.453 Z" />
      </g>
      <g
         id="g271309"
         transform="matrix(0.35277777,0,0,-0.35277777,-375.34797,534.94433)">
        <g
           id="g271311" />
        <g
           id="g271323">
          <g
             style="opacity:0.11000097"
             id="g271321"
             clip-path="url(#clipPath271315)">
            <g
               id="g271319"
               transform="translate(946.6563,1001.8398)">
              <path
                 inkscape:connector-curvature="0"
                 id="path271317"
                 style="fill:#161615;fill-opacity:1;fill-rule:nonzero;stroke:none"
                 d="m 0,0 32.358,18.813 -3.291,1.89 -35.569,-20.662 35.833,-20.697 3.223,1.867 z" />
            </g>
          </g>
        </g>
      </g>
      <g
         transform="matrix(0.35277777,0,0,-0.35277777,-18.76855,189.3992)"
         id="g271325">
        <path
           inkscape:connector-curvature="0"
           id="path271327"
           style="fill:#ff623e;fill-opacity:1;fill-rule:nonzero;stroke:none"
           d="m 0,0 0.196,-45.99 10.908,6.304 -0.197,45.993 z" />
      </g>
      <g
         transform="matrix(0.35277777,0,0,-0.35277777,-15.58289,187.5574)"
         id="g271329">
        <path
           inkscape:connector-curvature="0"
           id="path271331"
           style="fill:#3a3a3a;fill-opacity:1;fill-rule:nonzero;stroke:none"
           d="M 0,0 0.185,-43.018 -8.84,-48.232 -9.03,-5.217 Z" />
      </g>
      <g
         transform="matrix(0.35277777,0,0,-0.35277777,-43.471111,190.06203)"
         id="g271333">
        <path
           inkscape:connector-curvature="0"
           id="path271335"
           style="fill:#db381d;fill-opacity:1;fill-rule:nonzero;stroke:none"
           d="m 0,0 -0.195,-32.744 -10.905,6.303 0.194,32.742 z" />
      </g>
      <g
         transform="matrix(0.35277777,0,0,-0.35277777,-46.655901,188.22167)"
         id="g271337">
        <path
           inkscape:connector-curvature="0"
           id="path271339"
           style="fill:#3a3a3a;fill-opacity:1;fill-rule:nonzero;stroke:none"
           d="m 0,0 -0.186,-29.77 9.024,-5.216 0.19,29.769 z" />
      </g>
      <g
         id="g271341"
         transform="matrix(0.35277777,0,0,-0.35277777,-375.34797,534.94433)">
        <g
           id="g271343" />
        <g
           id="g271355">
          <g
             style="opacity:0.130005"
             id="g271353"
             clip-path="url(#clipPath271347)">
            <g
               id="g271351"
               transform="translate(931.6958,977.8691)">
              <path
                 inkscape:connector-curvature="0"
                 id="path271349"
                 style="fill:#ffffff;fill-opacity:1;fill-rule:nonzero;stroke:none"
                 d="M 0,0 9.007,-8.229 8.968,-14.33 0,-4.736 Z" />
            </g>
          </g>
        </g>
      </g>
      <g
         transform="matrix(0.35277777,0,0,-0.35277777,-34.835802,193.69521)"
         id="g271357">
        <path
           inkscape:connector-curvature="0"
           id="path271359"
           style="fill:#db381d;fill-opacity:1;fill-rule:nonzero;stroke:none"
           d="m 0,0 -0.197,-32.74 -10.905,6.302 0.195,32.741 z" />
      </g>
      <g
         transform="matrix(0.35277777,0,0,-0.35277777,-38.021141,191.85413)"
         id="g271361">
        <path
           inkscape:connector-curvature="0"
           id="path271363"
           style="fill:#3a3a3a;fill-opacity:1;fill-rule:nonzero;stroke:none"
           d="m 0,0 -0.185,-29.768 9.024,-5.216 0.19,29.765 z" />
      </g>
      <g
         id="g271365"
         transform="matrix(0.35277777,0,0,-0.35277777,-375.34797,534.94433)">
        <g
           id="g271367" />
        <g
           id="g271379">
          <g
             style="opacity:0.130005"
             id="g271377"
             clip-path="url(#clipPath271371)">
            <g
               id="g271375"
               transform="translate(956.1719,967.5742)">
              <path
                 inkscape:connector-curvature="0"
                 id="path271373"
                 style="fill:#ffffff;fill-opacity:1;fill-rule:nonzero;stroke:none"
                 d="M 0,0 9.009,-8.232 8.97,-14.334 0,-4.736 Z" />
            </g>
          </g>
        </g>
      </g>
      <g
         transform="matrix(0.35277777,0,0,-0.35277777,-43.471111,202.14947)"
         id="g271381">
        <path
           inkscape:connector-curvature="0"
           id="path271383"
           style="fill:#db381d;fill-opacity:1;fill-rule:nonzero;stroke:none"
           d="m 0,0 -0.195,-32.74 -10.905,6.301 0.197,32.744 z" />
      </g>
      <g
         transform="matrix(0.35277777,0,0,-0.35277777,-46.655901,200.30842)"
         id="g271385">
        <path
           inkscape:connector-curvature="0"
           id="path271387"
           style="fill:#3a3a3a;fill-opacity:1;fill-rule:nonzero;stroke:none"
           d="m 0,0 -0.186,-29.768 9.025,-5.214 0.189,29.765 z" />
      </g>
      <g
         id="g271389"
         transform="matrix(0.35277777,0,0,-0.35277777,-375.34797,534.94433)">
        <g
           id="g271391" />
        <g
           id="g271403">
          <g
             style="opacity:0.130005"
             id="g271401"
             clip-path="url(#clipPath271395)">
            <g
               id="g271399"
               transform="translate(931.6523,937.0137)">
              <path
                 inkscape:connector-curvature="0"
                 id="path271397"
                 style="fill:#ffffff;fill-opacity:1;fill-rule:nonzero;stroke:none"
                 d="m 0,0 9.031,-4.893 -0.034,-5.416 -9.045,2.487 z" />
            </g>
          </g>
        </g>
      </g>
      <g
         transform="matrix(0.35277777,0,0,-0.35277777,-34.835802,205.73306)"
         id="g271405">
        <path
           inkscape:connector-curvature="0"
           id="path271407"
           style="fill:#db381d;fill-opacity:1;fill-rule:nonzero;stroke:none"
           d="m 0,0 -0.194,-32.74 -10.908,6.302 0.197,32.741 z" />
      </g>
      <g
         transform="matrix(0.35277777,0,0,-0.35277777,-38.02061,203.89267)"
         id="g271409">
        <path
           inkscape:connector-curvature="0"
           id="path271411"
           style="fill:#3a3a3a;fill-opacity:1;fill-rule:nonzero;stroke:none"
           d="m 0,0 -0.186,-29.766 9.027,-5.216 0.187,29.769 z" />
      </g>
      <g
         id="g271413"
         transform="matrix(0.35277777,0,0,-0.35277777,-375.34797,534.94433)">
        <g
           id="g271415" />
        <g
           id="g271427">
          <g
             style="opacity:0.130005"
             id="g271425"
             clip-path="url(#clipPath271419)">
            <g
               id="g271423"
               transform="translate(956.1318,926.8574)">
              <path
                 inkscape:connector-curvature="0"
                 id="path271421"
                 style="fill:#ffffff;fill-opacity:1;fill-rule:nonzero;stroke:none"
                 d="m 0,0 9.029,-4.896 -0.034,-5.413 -9.046,2.487 z" />
            </g>
          </g>
        </g>
      </g>
      <g
         id="g271429"
         transform="matrix(0.35277777,0,0,-0.35277777,-375.34797,534.94433)">
        <g
           id="g271431" />
        <g
           id="g271443">
          <g
             style="opacity:0.130005"
             id="g271441"
             clip-path="url(#clipPath271435)">
            <g
               id="g271439"
               transform="translate(1010.9487,941.0449)">
              <path
                 inkscape:connector-curvature="0"
                 id="path271437"
                 style="fill:#ffffff;fill-opacity:1;fill-rule:nonzero;stroke:none"
                 d="M 0,0 9.016,7.016 8.987,13.709 -0.033,5.297 Z" />
            </g>
          </g>
        </g>
      </g>
    </g>
  </g>
</svg>
