<?xml version="1.0" encoding="UTF-8" standalone="no"?>
<!-- Created with Inkscape (http://www.inkscape.org/) -->

<svg
   xmlns:dc="http://purl.org/dc/elements/1.1/"
   xmlns:cc="http://creativecommons.org/ns#"
   xmlns:rdf="http://www.w3.org/1999/02/22-rdf-syntax-ns#"
   xmlns:svg="http://www.w3.org/2000/svg"
   xmlns="http://www.w3.org/2000/svg"
   xmlns:sodipodi="http://sodipodi.sourceforge.net/DTD/sodipodi-0.dtd"
   xmlns:inkscape="http://www.inkscape.org/namespaces/inkscape"
   width="54.579334mm"
   height="65.970772mm"
   viewBox="0 0 54.579334 65.970772"
   version="1.1"
   id="svg15365"
   inkscape:version="0.92.3 (2405546, 2018-03-11)"
   sodipodi:docname="apartemant-13.svg">
  <defs
     id="defs15359">
    <clipPath
       clipPathUnits="userSpaceOnUse"
       id="clipPath271503">
      <path
         d="m 1670.95,746.074 h 102.97 V 691.59 h -102.97 z"
         id="path271501"
         inkscape:connector-curvature="0" />
    </clipPath>
    <clipPath
       clipPathUnits="userSpaceOnUse"
       id="clipPath271459">
      <path
         d="m 1737.1,740.213 h 22.87 v -13.249 h -22.87 z"
         id="path271457"
         inkscape:connector-curvature="0" />
    </clipPath>
  </defs>
  <sodipodi:namedview
     id="base"
     pagecolor="#ffffff"
     bordercolor="#666666"
     borderopacity="1.0"
     inkscape:pageopacity="0.0"
     inkscape:pageshadow="2"
     inkscape:zoom="0.35"
     inkscape:cx="-441.14366"
     inkscape:cy="181.81203"
     inkscape:document-units="mm"
     inkscape:current-layer="layer1"
     showgrid="false"
     fit-margin-top="0"
     fit-margin-left="0"
     fit-margin-right="0"
     fit-margin-bottom="0"
     inkscape:window-width="1366"
     inkscape:window-height="716"
     inkscape:window-x="-8"
     inkscape:window-y="-8"
     inkscape:window-maximized="1" />
  <metadata
     id="metadata15362">
    <rdf:RDF>
      <cc:Work
         rdf:about="">
        <dc:format>image/svg+xml</dc:format>
        <dc:type
           rdf:resource="http://purl.org/dc/dcmitype/StillImage" />
        <dc:title></dc:title>
      </cc:Work>
    </rdf:RDF>
  </metadata>
  <g
     inkscape:label="Layer 1"
     inkscape:groupmode="layer"
     id="layer1"
     transform="translate(-39.234142,-130.967)">
    <g
       id="g271445"
       transform="matrix(0.35277777,0,0,-0.35277777,39.933375,182.17481)">
      <path
         d="m 0,0 65.407,-38.076 c 2.655,-1.543 6.974,-1.543 9.645,0 l 75.656,43.68 c 1.344,0.775 2.018,1.794 2.011,2.81 l 0.012,-2.611 c 0.001,-1.018 -0.672,-2.037 -2.015,-2.817 L 75.063,-40.689 c -2.677,-1.545 -6.996,-1.545 -9.648,0 L 0.006,-2.613 c -1.319,0.767 -1.979,1.769 -1.979,2.775 L -1.981,2.777 C -1.981,1.771 -1.316,0.766 0,0"
         style="fill:#94b226;fill-opacity:1;fill-rule:nonzero;stroke:none"
         id="path271447"
         inkscape:connector-curvature="0" />
    </g>
    <g
       id="g271449"
       transform="matrix(0.35277777,0,0,-0.35277777,39.943721,180.20287)">
      <path
         d="m 0,0 c -2.671,-1.545 -2.683,-4.043 -0.029,-5.59 l 65.407,-38.076 c 2.654,-1.543 6.974,-1.543 9.644,0 l 75.657,43.68 c 2.672,1.545 2.687,4.043 0.032,5.586 L 85.307,43.678 c -2.655,1.543 -6.976,1.543 -9.648,0 z"
         style="fill:#9ece4a;fill-opacity:1;fill-rule:nonzero;stroke:none"
         id="path271451"
         inkscape:connector-curvature="0" />
    </g>
    <g
       transform="matrix(0.35277777,0,0,-0.35277777,-533.18857,435.80068)"
       id="g271453">
      <g
         id="g271455" />
      <g
         id="g271467">
        <g
           clip-path="url(#clipPath271459)"
           id="g271465"
           style="opacity:0.19000202">
          <g
             transform="translate(1756.5928,738.2715)"
             id="g271463">
            <path
               d="m 0,0 c 4.481,-2.584 4.511,-6.785 0.06,-9.373 -4.457,-2.584 -11.697,-2.578 -16.175,0.008 -4.474,2.58 -4.511,6.781 -0.062,9.365 C -11.723,2.592 -4.479,2.586 0,0"
               style="fill:#181816;fill-opacity:1;fill-rule:nonzero;stroke:none"
               id="path271461"
               inkscape:connector-curvature="0" />
          </g>
        </g>
      </g>
    </g>
    <g
       id="g271469"
       transform="matrix(0.35277777,0,0,-0.35277777,82.860645,170.41329)">
      <path
         d="m 0,0 -2.06,2.094 c -0.619,0.621 -1.403,1.412 -1.338,3.699 v 9.295 H -3.745 V 5.395 c 0,-2.182 0.551,-2.92 1.492,-3.866 C -0.86,0.145 -0.509,-0.391 0.104,-1 v 0.75 z"
         style="fill:#775a20;fill-opacity:1;fill-rule:nonzero;stroke:none"
         id="path271471"
         inkscape:connector-curvature="0" />
    </g>
    <g
       id="g271473"
       transform="matrix(0.35277777,0,0,-0.35277777,82.662207,166.26742)">
      <path
         d="m 0,0 1.589,-0.037 0.9,-30.461 c 0,0 -0.179,-1.389 -1.769,-1.389 -1.622,0 -1.709,1.369 -1.709,1.369 z"
         style="fill:#775a20;fill-opacity:1;fill-rule:nonzero;stroke:none"
         id="path271475"
         inkscape:connector-curvature="0" />
    </g>
    <g
       id="g271477"
       transform="matrix(0.35277777,0,0,-0.35277777,83.383594,171.29594)">
      <path
         d="M 0,0 V 0 C 0.702,0.699 1.102,1.67 1.102,2.66 V 14.477 H 1.643 V 2.354 c 0,-1.561 -0.631,-3.081 -1.739,-4.186 z"
         style="fill:#775a20;fill-opacity:1;fill-rule:nonzero;stroke:none"
         id="path271479"
         inkscape:connector-curvature="0" />
    </g>
    <g
       id="g271481"
       transform="matrix(0.35277777,0,0,-0.35277777,83.969249,168.76239)">
      <path
         d="m 0,0 1.479,1.504 c 0.443,0.441 1.004,1.01 0.957,2.644 v 6.657 H 2.685 V 3.863 C 2.685,2.299 2.293,1.773 1.612,1.094 0.616,0.105 0.359,-0.273 -0.07,-0.709 v 0.533 z"
         style="fill:#c4b08d;fill-opacity:1;fill-rule:nonzero;stroke:none"
         id="path271483"
         inkscape:connector-curvature="0" />
    </g>
    <g
       id="g271485"
       transform="matrix(0.35277777,0,0,-0.35277777,89.351536,164.40917)">
      <path
         d="m 0,0 c 0,1.943 -1.41,3.559 -3.262,3.893 -0.152,3.545 -3.063,6.38 -6.645,6.38 -0.512,0 -0.998,-0.06 -1.48,-0.171 -0.533,1.953 -2.317,3.396 -4.439,3.396 -1.065,0 -2.038,-0.359 -2.819,-0.963 -1.061,1.207 -2.612,1.977 -4.353,1.977 -3.146,0 -5.705,-2.506 -5.795,-5.635 -0.081,0.006 -0.166,0.014 -0.252,0.014 -2.919,0 -5.288,-2.364 -5.288,-5.284 0,-0.125 0.015,-0.244 0.024,-0.367 -1.472,-0.726 -2.482,-2.242 -2.482,-3.992 0,-1.982 1.303,-3.664 3.091,-4.234 0,-0.1 -0.014,-0.196 -0.014,-0.295 0,-4.518 3.666,-8.188 8.192,-8.188 0.948,0 1.857,0.168 2.703,0.469 1.194,-1.496 3.018,-2.461 5.066,-2.461 2.606,0 4.844,1.557 5.89,3.803 0.691,-0.246 1.438,-0.389 2.22,-0.389 3.678,0 6.672,2.988 6.672,6.674 0,0.51 -0.068,1.012 -0.179,1.49 C -1.355,-3.504 0,-1.906 0,0"
         style="fill:#4b6d0f;fill-opacity:1;fill-rule:nonzero;stroke:none"
         id="path271487"
         inkscape:connector-curvature="0" />
    </g>
    <g
       id="g271489"
       transform="matrix(0.35277777,0,0,-0.35277777,80.161392,163.15378)">
      <path
         d="m 0,0 c -0.017,0.076 -0.017,0.156 -0.017,0.234 0,2.25 1.83,4.073 4.082,4.073 1.669,0 3.109,-0.998 3.735,-2.44 0.527,0.444 1.49,1.108 2.118,1.235 5.539,1.146 5.549,-5.211 5.728,-5.055 0.249,0.215 1.014,3.719 -1.418,5.674 -3.526,2.816 -6.041,0.89 -6.604,0.701 -0.633,1.441 -2.375,2.73 -4.05,2.73 -2.256,0 -3.987,-1.459 -3.987,-3.716 0,-0.071 -0.155,-1.313 -0.15,-1.385 -1.226,-0.274 -3.533,-1.627 -3.533,-4.024 0,-0.798 0.187,-1.562 0.492,-2.254 C -3.257,-2.254 -1.857,-0.646 0,0"
         style="fill:#71991c;fill-opacity:1;fill-rule:nonzero;stroke:none"
         id="path271491"
         inkscape:connector-curvature="0" />
    </g>
    <g
       id="g271493"
       transform="matrix(0.35277777,0,0,-0.35277777,83.506943,163.99576)">
      <path
         d="m 0,0 c 1.554,-0.541 2.56,-1.939 2.674,-3.479 0.749,0.344 2.182,-0.158 2.771,-0.361 2.533,-0.883 3.341,-3.342 2.584,-5.947 0.458,0.467 0.825,1.031 1.056,1.693 0.833,2.379 -0.424,4.99 -2.802,5.821 C 5.783,-2.1 5.278,-2.021 4.791,-2.018 4.695,-0.73 3.849,0.443 2.552,0.896 1.335,1.324 0.04,1.01 -0.841,0.193 -0.56,0.162 -0.283,0.1 0,0"
         style="fill:#71991c;fill-opacity:1;fill-rule:nonzero;stroke:none"
         id="path271495"
         inkscape:connector-curvature="0" />
    </g>
    <g
       transform="matrix(0.35277777,0,0,-0.35277777,-533.18857,435.80068)"
       id="g271497">
      <g
         id="g271499" />
      <g
         id="g271511">
        <g
           clip-path="url(#clipPath271503)"
           id="g271509"
           style="opacity:0.130005">
          <g
             transform="translate(1773.916,723.7344)"
             id="g271507">
            <path
               d="m 0,0 -55.641,-32.127 -18.595,-0.018 -28.728,16.385 65.018,38.1 z"
               style="fill:#060606;fill-opacity:1;fill-rule:nonzero;stroke:none"
               id="path271505"
               inkscape:connector-curvature="0" />
          </g>
        </g>
      </g>
    </g>
    <g
       id="g271513"
       transform="matrix(0.35277777,0,0,-0.35277777,45.309418,144.82172)">
      <path
         d="M 0,0 45.154,26.244 55.171,20.459 10.019,-5.781 Z"
         style="fill:#dccb82;fill-opacity:1;fill-rule:nonzero;stroke:none"
         id="path271515"
         inkscape:connector-curvature="0" />
    </g>
    <g
       id="g271517"
       transform="matrix(0.35277777,0,0,-0.35277777,48.848246,144.76799)">
      <path
         d="M 0,0 45.158,26.242 45.14,20.307 -0.013,-5.934 Z"
         style="fill:#c5b575;fill-opacity:1;fill-rule:nonzero;stroke:none"
         id="path271519"
         inkscape:connector-curvature="0" />
    </g>
    <g
       id="g271521"
       transform="matrix(0.35277777,0,0,-0.35277777,54.142321,149.92186)">
      <path
         d="M 0,0 45.159,26.244 55.175,20.459 10.019,-5.783 Z"
         style="fill:#dccb82;fill-opacity:1;fill-rule:nonzero;stroke:none"
         id="path271523"
         inkscape:connector-curvature="0" />
    </g>
    <g
       id="g271525"
       transform="matrix(0.35277777,0,0,-0.35277777,57.682816,149.86743)">
      <path
         d="M 0,0 45.155,26.242 45.139,20.305 -0.018,-5.938 Z"
         style="fill:#c5b575;fill-opacity:1;fill-rule:nonzero;stroke:none"
         id="path271527"
         inkscape:connector-curvature="0" />
    </g>
    <g
       id="g271529"
       transform="matrix(0.35277777,0,0,-0.35277777,45.314921,142.7271)">
      <path
         d="M 0,0 45.157,26.24 45.139,20.307 -0.016,-5.938 Z"
         style="fill:#c5b575;fill-opacity:1;fill-rule:nonzero;stroke:none"
         id="path271531"
         inkscape:connector-curvature="0" />
    </g>
    <g
       id="g271533"
       transform="matrix(0.35277777,0,0,-0.35277777,45.322171,140.22459)">
      <path
         d="M 0,0 45.156,26.242 55.172,20.457 10.017,-5.783 Z"
         style="fill:#cfecff;fill-opacity:1;fill-rule:nonzero;stroke:none"
         id="path271535"
         inkscape:connector-curvature="0" />
    </g>
    <g
       id="g271537"
       transform="matrix(0.35277777,0,0,-0.35277777,48.855787,142.26479)">
      <path
         d="M 0,0 45.155,26.24 45.137,19.146 -0.021,-7.096 Z"
         style="fill:#60b1e8;fill-opacity:1;fill-rule:nonzero;stroke:none"
         id="path271539"
         inkscape:connector-curvature="0" />
    </g>
    <g
       id="g271541"
       transform="matrix(0.35277777,0,0,-0.35277777,54.148883,147.82723)">
      <path
         d="M 0,0 45.156,26.24 45.141,20.307 -0.019,-5.938 Z"
         style="fill:#c5b575;fill-opacity:1;fill-rule:nonzero;stroke:none"
         id="path271543"
         inkscape:connector-curvature="0" />
    </g>
    <g
       id="g271545"
       transform="matrix(0.35277777,0,0,-0.35277777,48.848246,144.76799)">
      <path
         d="M 0,0 45.158,26.242 60.182,17.568 15.025,-8.672 Z"
         style="fill:#c5e0ef;fill-opacity:1;fill-rule:nonzero;stroke:none"
         id="path271547"
         inkscape:connector-curvature="0" />
    </g>
    <g
       id="g271549"
       transform="matrix(0.35277777,0,0,-0.35277777,54.155762,145.3247)">
      <path
         d="M 0,0 45.155,26.242 55.174,20.459 10.018,-5.781 Z"
         style="fill:#cfecff;fill-opacity:1;fill-rule:nonzero;stroke:none"
         id="path271551"
         inkscape:connector-curvature="0" />
    </g>
    <g
       id="g271553"
       transform="matrix(0.35277777,0,0,-0.35277777,57.689748,147.36421)">
      <path
         d="M 0,0 45.156,26.24 45.136,19.146 -0.02,-7.096 Z"
         style="fill:#60b1e8;fill-opacity:1;fill-rule:nonzero;stroke:none"
         id="path271555"
         inkscape:connector-curvature="0" />
    </g>
    <g
       id="g271557"
       transform="matrix(0.35277777,0,0,-0.35277777,62.982791,152.92803)">
      <path
         d="M 0,0 45.154,26.242 45.14,20.307 -0.017,-5.934 Z"
         style="fill:#c5b575;fill-opacity:1;fill-rule:nonzero;stroke:none"
         id="path271559"
         inkscape:connector-curvature="0" />
    </g>
    <g
       id="g271561"
       transform="matrix(0.35277777,0,0,-0.35277777,57.682816,149.86743)">
      <path
         d="M 0,0 45.155,26.242 60.178,17.566 15.023,-8.676 Z"
         style="fill:#c5e0ef;fill-opacity:1;fill-rule:nonzero;stroke:none"
         id="path271563"
         inkscape:connector-curvature="0" />
    </g>
    <g
       id="g271565"
       transform="matrix(0.35277777,0,0,-0.35277777,62.976917,155.02125)">
      <path
         d="M 0,0 45.156,26.24 55.174,20.457 10.017,-5.783 Z"
         style="fill:#dccb82;fill-opacity:1;fill-rule:nonzero;stroke:none"
         id="path271567"
         inkscape:connector-curvature="0" />
    </g>
    <g
       id="g271569"
       transform="matrix(0.35277777,0,0,-0.35277777,62.990358,150.42481)">
      <path
         d="M 0,0 45.155,26.242 55.171,20.459 10.014,-5.783 Z"
         style="fill:#cfecff;fill-opacity:1;fill-rule:nonzero;stroke:none"
         id="path271571"
         inkscape:connector-curvature="0" />
    </g>
    <g
       id="g271573"
       transform="matrix(0.35277777,0,0,-0.35277777,66.522942,152.46501)">
      <path
         d="M 0,0 -0.315,-111.549 44.84,-85.307 45.157,26.242 Z"
         style="fill:#60b1e8;fill-opacity:1;fill-rule:nonzero;stroke:none"
         id="path271575"
         inkscape:connector-curvature="0" />
    </g>
    <g
       id="g271577"
       transform="matrix(0.35277777,0,0,-0.35277777,62.990358,150.42481)">
      <path
         d="m 0,0 -0.021,-7.096 -15.024,8.676 0.02,7.096 -10.018,5.781 -0.02,-7.094 -15.025,8.672 0.022,7.096 -10.017,5.783 -0.021,-7.094 -0.015,-5.937 -0.28,-98.514 60.097,-34.701 0.281,98.519 0.035,13.03 z"
         style="fill:#8acaff;fill-opacity:1;fill-rule:nonzero;stroke:none"
         id="path271579"
         inkscape:connector-curvature="0" />
    </g>
    <g
       id="g271581"
       transform="matrix(0.35277777,0,0,-0.35277777,64.697741,157.25026)">
      <path
         d="m 0,0 -0.229,-88.439 -12.45,7.199 0.223,88.437 z"
         style="fill:#60b1e8;fill-opacity:1;fill-rule:nonzero;stroke:none"
         id="path271583"
         inkscape:connector-curvature="0" />
    </g>
    <g
       id="g271585"
       transform="matrix(0.35277777,0,0,-0.35277777,61.060434,155.14804)">
      <path
         d="m 0,0 -0.21,-85.041 10.304,-5.957 0.217,85.041 z"
         style="fill:#666666;fill-opacity:1;fill-rule:nonzero;stroke:none"
         id="path271587"
         inkscape:connector-curvature="0" />
    </g>
    <g
       id="g271589"
       transform="matrix(0.35277777,0,0,-0.35277777,77.442534,151.92827)">
      <path
         d="m 0,0 0.184,-30.369 10.037,5.805 -0.18,30.367 z"
         style="fill:#8acaff;fill-opacity:1;fill-rule:nonzero;stroke:none"
         id="path271591"
         inkscape:connector-curvature="0" />
    </g>
    <g
       id="g271593"
       transform="matrix(0.35277777,0,0,-0.35277777,80.374646,150.23396)">
      <path
         d="m 0,0 0.171,-27.627 -8.309,-4.805 -0.174,27.629 z"
         style="fill:#666666;fill-opacity:1;fill-rule:nonzero;stroke:none"
         id="path271595"
         inkscape:connector-curvature="0" />
    </g>
    <g
       id="g271597"
       transform="matrix(0.35277777,0,0,-0.35277777,77.442534,171.85606)">
      <path
         d="m 0,0 0.184,-30.367 10.037,5.803 -0.18,30.369 z"
         style="fill:#8acaff;fill-opacity:1;fill-rule:nonzero;stroke:none"
         id="path271599"
         inkscape:connector-curvature="0" />
    </g>
    <g
       id="g271601"
       transform="matrix(0.35277777,0,0,-0.35277777,80.374646,170.16111)">
      <path
         d="m 0,0 0.171,-27.627 -8.309,-4.805 -0.174,27.627 z"
         style="fill:#666666;fill-opacity:1;fill-rule:nonzero;stroke:none"
         id="path271603"
         inkscape:connector-curvature="0" />
    </g>
    <g
       id="g271605"
       transform="matrix(0.35277777,0,0,-0.35277777,60.227738,163.91239)">
      <path
         d="m 0,0 2.294,1.322 10.297,-5.9 -10e-4,-2.627 z"
         style="fill:#efefef;fill-opacity:1;fill-rule:nonzero;stroke:none"
         id="path271607"
         inkscape:connector-curvature="0" />
    </g>
    <g
       id="g271609"
       transform="matrix(0.35277777,0,0,-0.35277777,64.669139,166.45416)">
      <path
         d="m 0,0 0.011,-3.195 -12.609,7.24 0.008,3.16 z"
         style="fill:#d8d8d8;fill-opacity:1;fill-rule:nonzero;stroke:none"
         id="path271611"
         inkscape:connector-curvature="0" />
    </g>
    <g
       id="g271613"
       transform="matrix(0.35277777,0,0,-0.35277777,60.252185,175.87857)">
      <path
         d="M 0,0 2.139,1.426 12.441,-4.477 12.438,-7.102 Z"
         style="fill:#efefef;fill-opacity:1;fill-rule:nonzero;stroke:none"
         id="path271615"
         inkscape:connector-curvature="0" />
    </g>
    <g
       id="g271617"
       transform="matrix(0.35277777,0,0,-0.35277777,64.640194,178.38386)">
      <path
         d="m 0,0 0.007,-3.193 -12.455,7.132 0.01,3.163 z"
         style="fill:#d8d8d8;fill-opacity:1;fill-rule:nonzero;stroke:none"
         id="path271619"
         inkscape:connector-curvature="0" />
    </g>
    <g
       id="g271621"
       transform="matrix(0.35277777,0,0,-0.35277777,52.116935,151.23374)">
      <path
         d="m 0,0 -0.128,-22 -7.275,4.205 0.132,21.996 z"
         style="fill:#60b1e8;fill-opacity:1;fill-rule:nonzero;stroke:none"
         id="path271623"
         inkscape:connector-curvature="0" />
    </g>
    <g
       id="g271625"
       transform="matrix(0.35277777,0,0,-0.35277777,49.993707,150.00661)">
      <path
         d="m 0,0 -0.126,-20.014 6.021,-3.48 0.124,20.015 z"
         style="fill:#666666;fill-opacity:1;fill-rule:nonzero;stroke:none"
         id="path271627"
         inkscape:connector-curvature="0" />
    </g>
    <g
       id="g271629"
       transform="matrix(0.35277777,0,0,-0.35277777,48.549558,153.86923)">
      <path
         d="m 0,0 -0.032,-12.254 -3.836,-2.228 0.032,12.252 z"
         style="fill:#a3955a;fill-opacity:1;fill-rule:nonzero;stroke:none"
         id="path271631"
         inkscape:connector-curvature="0" />
    </g>
    <g
       id="g271633"
       transform="matrix(0.35277777,0,0,-0.35277777,52.090768,158.39887)">
      <path
         d="m 0,0 -18.325,10.609 -0.029,-12.244 18.321,-10.615 2.231,-1.289 0.036,12.25 z"
         style="fill:#ffffff;fill-opacity:1;fill-rule:nonzero;stroke:none"
         id="path271635"
         inkscape:connector-curvature="0" />
    </g>
    <g
       id="g271637"
       transform="matrix(0.35277777,0,0,-0.35277777,55.054551,157.60512)">
      <path
         d="m 0,0 -3.95,-2.252 -2.217,-1.287 -0.036,-12.25 2.217,1.289 3.952,2.252 z"
         style="fill:#d3cdb4;fill-opacity:1;fill-rule:nonzero;stroke:none"
         id="path271639"
         inkscape:connector-curvature="0" />
    </g>
    <g
       id="g271641"
       transform="matrix(0.35277777,0,0,-0.35277777,55.054551,157.60512)">
      <path
         d="m 0,0 -3.95,-2.252 -2.217,-1.287 -2.234,1.289 -18.326,10.609 2.22,1.291 3.833,2.229 2.235,-1.289 -3.836,-2.231 16.088,-9.32 3.955,2.252 z"
         style="fill:#efead8;fill-opacity:1;fill-rule:nonzero;stroke:none"
         id="path271643"
         inkscape:connector-curvature="0" />
    </g>
    <g
       id="g271645"
       transform="matrix(0.35277777,0,0,-0.35277777,52.123153,163.52999)">
      <path
         d="m 0,0 -0.13,-22 -7.274,4.205 0.133,21.996 z"
         style="fill:#60b1e8;fill-opacity:1;fill-rule:nonzero;stroke:none"
         id="path271647"
         inkscape:connector-curvature="0" />
    </g>
    <g
       id="g271649"
       transform="matrix(0.35277777,0,0,-0.35277777,49.999263,162.30285)">
      <path
         d="m 0,0 -0.124,-20.014 6.02,-3.48 0.125,20.015 z"
         style="fill:#666666;fill-opacity:1;fill-rule:nonzero;stroke:none"
         id="path271651"
         inkscape:connector-curvature="0" />
    </g>
    <g
       id="g271653"
       transform="matrix(0.35277777,0,0,-0.35277777,48.556437,166.16614)">
      <path
         d="m 0,0 -0.038,-12.25 -3.836,-2.23 0.037,12.251 z"
         style="fill:#a3955a;fill-opacity:1;fill-rule:nonzero;stroke:none"
         id="path271655"
         inkscape:connector-curvature="0" />
    </g>
    <g
       id="g271657"
       transform="matrix(0.35277777,0,0,-0.35277777,52.096272,170.69441)">
      <path
         d="m 0,0 -18.322,10.609 -0.034,-12.25 18.324,-10.611 2.231,-1.287 0.036,12.248 z"
         style="fill:#ffffff;fill-opacity:1;fill-rule:nonzero;stroke:none"
         id="path271659"
         inkscape:connector-curvature="0" />
    </g>
    <g
       id="g271661"
       transform="matrix(0.35277777,0,0,-0.35277777,55.060108,169.90132)">
      <path
         d="m 0,0 -3.95,-2.252 -2.216,-1.287 -0.036,-12.248 2.218,1.287 3.952,2.25 z"
         style="fill:#d3cdb4;fill-opacity:1;fill-rule:nonzero;stroke:none"
         id="path271663"
         inkscape:connector-curvature="0" />
    </g>
    <g
       id="g271665"
       transform="matrix(0.35277777,0,0,-0.35277777,55.060108,169.90132)">
      <path
         d="m 0,0 -3.95,-2.252 -2.216,-1.287 -2.235,1.291 -18.323,10.609 2.219,1.289 3.834,2.227 2.235,-1.289 -3.836,-2.229 16.089,-9.32 3.952,2.248 z"
         style="fill:#efead8;fill-opacity:1;fill-rule:nonzero;stroke:none"
         id="path271667"
         inkscape:connector-curvature="0" />
    </g>
  </g>
</svg>
