<?xml version="1.0" encoding="UTF-8" standalone="no"?>
<!-- Created with Inkscape (http://www.inkscape.org/) -->

<svg
   xmlns:dc="http://purl.org/dc/elements/1.1/"
   xmlns:cc="http://creativecommons.org/ns#"
   xmlns:rdf="http://www.w3.org/1999/02/22-rdf-syntax-ns#"
   xmlns:svg="http://www.w3.org/2000/svg"
   xmlns="http://www.w3.org/2000/svg"
   xmlns:sodipodi="http://sodipodi.sourceforge.net/DTD/sodipodi-0.dtd"
   xmlns:inkscape="http://www.inkscape.org/namespaces/inkscape"
   width="39.68008mm"
   height="66.296974mm"
   viewBox="0 0 39.68008 66.296974"
   version="1.1"
   id="svg11129"
   inkscape:version="0.92.3 (2405546, 2018-03-11)"
   sodipodi:docname="apartemant-7.svg">
  <defs
     id="defs11123" />
  <sodipodi:namedview
     id="base"
     pagecolor="#ffffff"
     bordercolor="#666666"
     borderopacity="1.0"
     inkscape:pageopacity="0.0"
     inkscape:pageshadow="2"
     inkscape:zoom="0.35"
     inkscape:cx="-623.58545"
     inkscape:cy="293.85704"
     inkscape:document-units="mm"
     inkscape:current-layer="layer1"
     showgrid="false"
     fit-margin-top="0"
     fit-margin-left="0"
     fit-margin-right="0"
     fit-margin-bottom="0"
     inkscape:window-width="1366"
     inkscape:window-height="716"
     inkscape:window-x="-8"
     inkscape:window-y="-8"
     inkscape:window-maximized="1" />
  <metadata
     id="metadata11126">
    <rdf:RDF>
      <cc:Work
         rdf:about="">
        <dc:format>image/svg+xml</dc:format>
        <dc:type
           rdf:resource="http://purl.org/dc/dcmitype/StillImage" />
        <dc:title></dc:title>
      </cc:Work>
    </rdf:RDF>
  </metadata>
  <g
     inkscape:label="Layer 1"
     inkscape:groupmode="layer"
     id="layer1"
     transform="translate(-87.505197,-160.28603)">
    <g
       id="g263725"
       transform="matrix(0.35277777,0,0,-0.35277777,92.974981,197.39126)">
      <path
         d="M 0,0 0.145,-50.047 40.942,-26.49 40.801,56.691 Z"
         style="fill:#b8bbab;fill-opacity:1;fill-rule:nonzero;stroke:none"
         id="path263727"
         inkscape:connector-curvature="0" />
    </g>
    <g
       id="g263729"
       transform="matrix(0.35277777,0,0,-0.35277777,107.36861,177.39175)">
      <path
         d="m 0,0 0.142,-83.182 40.536,-23.556 -0.142,50.045 z"
         style="fill:#818377;fill-opacity:1;fill-rule:nonzero;stroke:none"
         id="path263731"
         inkscape:connector-curvature="0" />
    </g>
    <g
       id="g263733"
       transform="matrix(0.35277777,0,0,-0.35277777,92.974981,197.39126)">
      <path
         d="M 0,0 0.145,-50.047 40.68,-73.604 40.538,-23.559 Z"
         style="fill:#727374;fill-opacity:1;fill-rule:nonzero;stroke:none"
         id="path263735"
         inkscape:connector-curvature="0" />
    </g>
    <g
       id="g263737"
       transform="matrix(0.35277777,0,0,-0.35277777,107.27592,205.70217)">
      <path
         d="M 0,0 0.142,-50.045 40.94,-26.488 40.799,23.557 Z"
         style="fill:#a4a5a6;fill-opacity:1;fill-rule:nonzero;stroke:none"
         id="path263739"
         inkscape:connector-curvature="0" />
    </g>
    <g
       id="g263741"
       transform="matrix(0.35277777,0,0,-0.35277777,107.27592,189.2567)">
      <path
         d="M 0,0 40.799,23.557 0.263,47.115 -40.538,23.557 Z M 56.292,23.557 -0.055,-42.109 -56.032,23.557 0.314,56.088 Z"
         style="fill:#c9cdbb;fill-opacity:1;fill-rule:nonzero;stroke:none"
         id="path263743"
         inkscape:connector-curvature="0" />
    </g>
    <g
       id="g263745"
       transform="matrix(0.35277777,0,0,-0.35277777,92.974981,180.94642)">
      <path
         d="M 0,0 40.538,-23.557 81.337,0 40.801,23.559 Z"
         style="fill:#c6c6c6;fill-opacity:1;fill-rule:nonzero;stroke:none"
         id="path263747"
         inkscape:connector-curvature="0" />
    </g>
    <g
       id="g263749"
       transform="matrix(0.35277777,0,0,-0.35277777,121.66883,179.7186)">
      <path
         d="m 0,0 -0.008,-3.723 -40.801,23.555 0.01,3.723 z"
         style="fill:#bababa;fill-opacity:1;fill-rule:nonzero;stroke:none"
         id="path263751"
         inkscape:connector-curvature="0" />
    </g>
    <g
       id="g263753"
       transform="matrix(0.35277777,0,0,-0.35277777,107.27592,171.40904)">
      <path
         d="m 0,0 -0.01,-3.723 -40.538,-23.554 0.01,3.722 z"
         style="fill:#d8d8d8;fill-opacity:1;fill-rule:nonzero;stroke:none"
         id="path263755"
         inkscape:connector-curvature="0" />
    </g>
    <g
       id="g263757"
       transform="matrix(0.35277777,0,0,-0.35277777,87.505197,197.47738)">
      <path
         d="M 0,0 0.011,50.336 55.999,18.051 55.988,-32.291 56.13,-82.504 0.152,-49.973 0.015,-0.006 Z"
         style="fill:#ededed;fill-opacity:1;fill-rule:nonzero;stroke:none"
         id="path263759"
         inkscape:connector-curvature="0" />
    </g>
    <g
       id="g263761"
       transform="matrix(0.35277777,0,0,-0.35277777,107.26039,191.10944)">
      <path
         d="m 0,0 56.336,32.289 -0.01,-50.103 0.01,0.005 0.144,-50.173 -56.349,-32.573 -0.142,50.213 z"
         style="fill:#bababa;fill-opacity:1;fill-rule:nonzero;stroke:none"
         id="path263763"
         inkscape:connector-curvature="0" />
    </g>
    <g
       id="g263765"
       transform="matrix(0.35277777,0,0,-0.35277777,107.36861,188.02953)">
      <path
         d="M 0,0 40.536,23.559 -0.263,47.113 -40.801,23.559 Z M -0.314,56.086 56.029,23.559 -0.307,-8.73 -56.295,23.555 Z"
         style="fill:#f1f2f2;fill-opacity:1;fill-rule:nonzero;stroke:none"
         id="path263767"
         inkscape:connector-curvature="0" />
    </g>
    <g
       id="g263769"
       transform="matrix(0.35277777,0,0,-0.35277777,110.33998,202.7256)">
      <path
         d="m 0,0 -1.359,0.977 0.098,-26.961 1.362,-0.977 z"
         style="fill:#f4f4f4;fill-opacity:1;fill-rule:nonzero;stroke:none"
         id="path263771"
         inkscape:connector-curvature="0" />
    </g>
    <g
       id="g263773"
       transform="matrix(0.35277777,0,0,-0.35277777,110.33998,191.21347)">
      <path
         d="m 0,0 -1.359,0.98 0.098,-26.962 1.362,-0.973 z"
         style="fill:#f4f4f4;fill-opacity:1;fill-rule:nonzero;stroke:none"
         id="path263775"
         inkscape:connector-curvature="0" />
    </g>
    <g
       id="g263777"
       transform="matrix(0.35277777,0,0,-0.35277777,110.57562,210.86985)">
      <path
         d="M 0,0 9.558,5.184 V 28.445 L 0,22.414 Z"
         style="fill:#707c7c;fill-opacity:1;fill-rule:nonzero;stroke:none"
         id="path263779"
         inkscape:connector-curvature="0" />
    </g>
    <g
       id="g263781"
       transform="matrix(0.35277777,0,0,-0.35277777,113.79989,209.53934)">
      <path
         d="M 0,0 -1.738,0.971 -9.688,-3.635 -7.953,-4.6 Z"
         style="fill:#ffffff;fill-opacity:1;fill-rule:nonzero;stroke:none"
         id="path263783"
         inkscape:connector-curvature="0" />
    </g>
    <g
       id="g263785"
       transform="matrix(0.35277777,0,0,-0.35277777,113.76718,201.45992)">
      <path
         d="m 0,0 -1.646,0.967 v -22.899 l 1.739,-0.97 z"
         style="fill:#f4f4f4;fill-opacity:1;fill-rule:nonzero;stroke:none"
         id="path263787"
         inkscape:connector-curvature="0" />
    </g>
    <g
       id="g263789"
       transform="matrix(0.35277777,0,0,-0.35277777,110.38202,205.33977)">
      <path
         d="M 0,0 9.696,5.598 V 3.805 L 0,-1.793 Z"
         style="fill:#ffffff;fill-opacity:1;fill-rule:nonzero;stroke:none"
         id="path263791"
         inkscape:connector-curvature="0" />
    </g>
    <g
       id="g263793"
       transform="matrix(0.35277777,0,0,-0.35277777,110.77096,205.72976)">
      <path
         d="M 0,0 9.695,5.6 V 3.807 L 0,-1.791 Z"
         style="fill:#efefef;fill-opacity:1;fill-rule:nonzero;stroke:none"
         id="path263795"
         inkscape:connector-curvature="0" />
    </g>
    <g
       id="g263797"
       transform="matrix(0.35277777,0,0,-0.35277777,114.38657,200.38571)">
      <path
         d="m 0,0 -1.362,0.975 -11.468,-6.631 1.359,-0.977 z"
         style="fill:#ffffff;fill-opacity:1;fill-rule:nonzero;stroke:none"
         id="path263799"
         inkscape:connector-curvature="0" />
    </g>
    <g
       id="g263801"
       transform="matrix(0.35277777,0,0,-0.35277777,110.99419,211.16198)">
      <path
         d="M 0,0 7.953,4.6 7.86,27.502 0,22.904 Z m 9.717,3.586 -11.471,-6.633 -0.1,26.961 11.47,6.633 z"
         style="fill:#e2e2e2;fill-opacity:1;fill-rule:nonzero;stroke:none"
         id="path263803"
         inkscape:connector-curvature="0" />
    </g>
    <g
       id="g263805"
       transform="matrix(0.35277777,0,0,-0.35277777,122.13323,204.15536)">
      <path
         d="M 0,0 9.555,5.184 V 28.443 L 0,22.414 Z"
         style="fill:#707c7c;fill-opacity:1;fill-rule:nonzero;stroke:none"
         id="path263807"
         inkscape:connector-curvature="0" />
    </g>
    <g
       id="g263809"
       transform="matrix(0.35277777,0,0,-0.35277777,125.32508,194.74542)">
      <path
         d="m 0,0 -1.648,0.969 v -22.903 l 1.737,-0.968 z"
         style="fill:#f4f4f4;fill-opacity:1;fill-rule:nonzero;stroke:none"
         id="path263811"
         inkscape:connector-curvature="0" />
    </g>
    <g
       id="g263813"
       transform="matrix(0.35277777,0,0,-0.35277777,125.35646,202.82485)">
      <path
         d="M 0,0 -1.737,0.969 -9.687,-3.635 -7.95,-4.6 Z"
         style="fill:#ffffff;fill-opacity:1;fill-rule:nonzero;stroke:none"
         id="path263815"
         inkscape:connector-curvature="0" />
    </g>
    <g
       id="g263817"
       transform="matrix(0.35277777,0,0,-0.35277777,121.93926,198.62528)">
      <path
         d="M 0,0 9.694,5.598 V 3.805 L 0,-1.791 Z"
         style="fill:#ffffff;fill-opacity:1;fill-rule:nonzero;stroke:none"
         id="path263819"
         inkscape:connector-curvature="0" />
    </g>
    <g
       id="g263821"
       transform="matrix(0.35277777,0,0,-0.35277777,121.89793,196.01183)">
      <path
         d="m 0,0 -1.363,0.979 0.102,-26.959 1.359,-0.973 z"
         style="fill:#f4f4f4;fill-opacity:1;fill-rule:nonzero;stroke:none"
         id="path263823"
         inkscape:connector-curvature="0" />
    </g>
    <g
       id="g263825"
       transform="matrix(0.35277777,0,0,-0.35277777,125.94352,193.67193)">
      <path
         d="m 0,0 -1.362,0.979 -11.469,-6.633 1.363,-0.979 z"
         style="fill:#ffffff;fill-opacity:1;fill-rule:nonzero;stroke:none"
         id="path263827"
         inkscape:connector-curvature="0" />
    </g>
    <g
       id="g263829"
       transform="matrix(0.35277777,0,0,-0.35277777,122.32754,199.01527)">
      <path
         d="M 0,0 9.696,5.6 V 3.809 L 0,-1.789 Z"
         style="fill:#efefef;fill-opacity:1;fill-rule:nonzero;stroke:none"
         id="path263831"
         inkscape:connector-curvature="0" />
    </g>
    <g
       id="g263833"
       transform="matrix(0.35277777,0,0,-0.35277777,122.5518,204.44749)">
      <path
         d="M 0,0 7.95,4.6 7.861,27.502 0,22.902 Z M 9.715,3.588 -1.756,-3.041 -1.854,23.912 9.614,30.545 Z"
         style="fill:#e2e2e2;fill-opacity:1;fill-rule:nonzero;stroke:none"
         id="path263835"
         inkscape:connector-curvature="0" />
    </g>
    <g
       id="g263837"
       transform="matrix(0.35277777,0,0,-0.35277777,110.57562,199.35772)">
      <path
         d="M 0,0 9.558,5.186 V 28.445 L 0,22.414 Z"
         style="fill:#707c7c;fill-opacity:1;fill-rule:nonzero;stroke:none"
         id="path263839"
         inkscape:connector-curvature="0" />
    </g>
    <g
       id="g263841"
       transform="matrix(0.35277777,0,0,-0.35277777,113.79989,198.02721)">
      <path
         d="M 0,0 -1.738,0.969 -9.688,-3.633 -7.953,-4.6 Z"
         style="fill:#ffffff;fill-opacity:1;fill-rule:nonzero;stroke:none"
         id="path263843"
         inkscape:connector-curvature="0" />
    </g>
    <g
       id="g263845"
       transform="matrix(0.35277777,0,0,-0.35277777,113.76718,189.94776)">
      <path
         d="m 0,0 -1.646,0.969 v -22.903 l 1.739,-0.968 z"
         style="fill:#f4f4f4;fill-opacity:1;fill-rule:nonzero;stroke:none"
         id="path263847"
         inkscape:connector-curvature="0" />
    </g>
    <g
       id="g263849"
       transform="matrix(0.35277777,0,0,-0.35277777,110.38202,193.8283)">
      <path
         d="M 0,0 9.696,5.6 V 3.807 L 0,-1.791 Z"
         style="fill:#ffffff;fill-opacity:1;fill-rule:nonzero;stroke:none"
         id="path263851"
         inkscape:connector-curvature="0" />
    </g>
    <g
       id="g263853"
       transform="matrix(0.35277777,0,0,-0.35277777,110.77096,194.21692)">
      <path
         d="M 0,0 9.695,5.598 V 3.807 L 0,-1.791 Z"
         style="fill:#efefef;fill-opacity:1;fill-rule:nonzero;stroke:none"
         id="path263855"
         inkscape:connector-curvature="0" />
    </g>
    <g
       id="g263857"
       transform="matrix(0.35277777,0,0,-0.35277777,114.38657,188.87429)">
      <path
         d="M 0,0 -1.362,0.979 -12.83,-5.65 -11.471,-6.631 Z"
         style="fill:#ffffff;fill-opacity:1;fill-rule:nonzero;stroke:none"
         id="path263859"
         inkscape:connector-curvature="0" />
    </g>
    <g
       id="g263861"
       transform="matrix(0.35277777,0,0,-0.35277777,110.99419,199.64985)">
      <path
         d="M 0,0 7.953,4.6 7.86,27.502 0,22.904 Z m 9.717,3.59 -11.471,-6.631 -0.1,26.955 11.47,6.631 z"
         style="fill:#e2e2e2;fill-opacity:1;fill-rule:nonzero;stroke:none"
         id="path263863"
         inkscape:connector-curvature="0" />
    </g>
    <g
       id="g263865"
       transform="matrix(0.35277777,0,0,-0.35277777,122.13323,192.64323)">
      <path
         d="M 0,0 9.555,5.186 V 28.443 L 0,22.416 Z"
         style="fill:#707c7c;fill-opacity:1;fill-rule:nonzero;stroke:none"
         id="path263867"
         inkscape:connector-curvature="0" />
    </g>
    <g
       id="g263869"
       transform="matrix(0.35277777,0,0,-0.35277777,125.35646,191.31272)">
      <path
         d="M 0,0 -1.737,0.971 -9.687,-3.633 -7.95,-4.6 Z"
         style="fill:#ffffff;fill-opacity:1;fill-rule:nonzero;stroke:none"
         id="path263871"
         inkscape:connector-curvature="0" />
    </g>
    <g
       id="g263873"
       transform="matrix(0.35277777,0,0,-0.35277777,125.32508,183.23327)">
      <path
         d="m 0,0 -1.648,0.969 v -22.901 l 1.737,-0.97 z"
         style="fill:#f4f4f4;fill-opacity:1;fill-rule:nonzero;stroke:none"
         id="path263875"
         inkscape:connector-curvature="0" />
    </g>
    <g
       id="g263877"
       transform="matrix(0.35277777,0,0,-0.35277777,121.93926,187.11315)">
      <path
         d="M 0,0 9.694,5.598 V 3.805 L 0,-1.791 Z"
         style="fill:#ffffff;fill-opacity:1;fill-rule:nonzero;stroke:none"
         id="path263879"
         inkscape:connector-curvature="0" />
    </g>
    <g
       id="g263881"
       transform="matrix(0.35277777,0,0,-0.35277777,121.89793,184.4997)">
      <path
         d="m 0,0 -1.363,0.98 0.102,-26.962 1.359,-0.971 z"
         style="fill:#f4f4f4;fill-opacity:1;fill-rule:nonzero;stroke:none"
         id="path263883"
         inkscape:connector-curvature="0" />
    </g>
    <g
       id="g263885"
       transform="matrix(0.35277777,0,0,-0.35277777,125.94352,182.15909)">
      <path
         d="m 0,0 -1.362,0.975 -11.469,-6.629 1.363,-0.981 z"
         style="fill:#ffffff;fill-opacity:1;fill-rule:nonzero;stroke:none"
         id="path263887"
         inkscape:connector-curvature="0" />
    </g>
    <g
       id="g263889"
       transform="matrix(0.35277777,0,0,-0.35277777,122.32754,187.50177)">
      <path
         d="M 0,0 9.696,5.596 V 3.805 L 0,-1.793 Z"
         style="fill:#efefef;fill-opacity:1;fill-rule:nonzero;stroke:none"
         id="path263891"
         inkscape:connector-curvature="0" />
    </g>
    <g
       id="g263893"
       transform="matrix(0.35277777,0,0,-0.35277777,122.5518,192.93536)">
      <path
         d="M 0,0 7.95,4.6 7.861,27.502 0,22.902 Z M 9.715,3.588 -1.756,-3.041 -1.854,23.912 9.614,30.547 Z"
         style="fill:#e2e2e2;fill-opacity:1;fill-rule:nonzero;stroke:none"
         id="path263895"
         inkscape:connector-curvature="0" />
    </g>
    <g
       id="g263897"
       transform="matrix(0.35277777,0,0,-0.35277777,120.62807,219.43986)">
      <path
         d="m 0,0 -1.843,1.072 -0.095,31.477 1.839,1.199 z"
         style="fill:#f4f4f4;fill-opacity:1;fill-rule:nonzero;stroke:none"
         id="path263899"
         inkscape:connector-curvature="0" />
    </g>
    <g
       id="g263901"
       transform="matrix(0.35277777,0,0,-0.35277777,116.44641,221.79836)">
      <path
         d="m 0,0 -1.209,0.713 -0.099,33.646 1.213,-0.777 z"
         style="fill:#f4f4f4;fill-opacity:1;fill-rule:nonzero;stroke:none"
         id="path263903"
         inkscape:connector-curvature="0" />
    </g>
    <g
       id="g263905"
       transform="matrix(0.35277777,0,0,-0.35277777,116.41302,209.95137)">
      <path
         d="M 0,0 -1.194,0.771 12.095,8.447 13.291,7.678 Z"
         style="fill:#ffffff;fill-opacity:1;fill-rule:nonzero;stroke:none"
         id="path263907"
         inkscape:connector-curvature="0" />
    </g>
    <g
       id="g263909"
       transform="matrix(0.35277777,0,0,-0.35277777,120.29387,208.31358)">
      <path
         d="m 0,0 0.086,-31.078 -10.441,-6 -0.09,31.082 z"
         style="fill:#2f4b77;fill-opacity:1;fill-rule:nonzero;stroke:none"
         id="path263911"
         inkscape:connector-curvature="0" />
    </g>
    <g
       id="g263913"
       transform="matrix(0.35277777,0,0,-0.35277777,116.98179,210.29586)">
      <path
         d="m 0,0 10.244,5.822 0.084,-31.752 1.449,0.84 -0.098,33.744 -13.291,-7.677 0.094,-33.582 1.599,0.929 z"
         style="fill:#e2e2e2;fill-opacity:1;fill-rule:nonzero;stroke:none"
         id="path263915"
         inkscape:connector-curvature="0" />
    </g>
    <g
       id="g263917"
       transform="matrix(0.35277777,0,0,-0.35277777,117.55297,215.07768)">
      <path
         d="M 0,0 C 0.013,0.002 0.041,0.002 0.047,0.002 0.089,-0.004 0.344,-0.119 0.385,-0.135 0.082,-0.004 -0.313,-0.836 0.019,-0.984 -0.241,-0.869 -0.308,-0.865 -0.359,-0.77 -0.477,-0.537 -0.261,-0.045 0,0"
         style="fill:#ad9634;fill-opacity:1;fill-rule:nonzero;stroke:none"
         id="path263919"
         inkscape:connector-curvature="0" />
    </g>
    <g
       id="g263921"
       transform="matrix(0.35277777,0,0,-0.35277777,117.7762,215.31953)">
      <path
         d="M 0,0 C -0.2,-0.408 -0.179,-0.846 0.05,-0.98 0.271,-1.115 0.611,-0.889 0.81,-0.479 1.013,-0.07 0.988,0.373 0.766,0.506 0.541,0.637 0.199,0.412 0,0"
         style="fill:#f2d95f;fill-opacity:1;fill-rule:nonzero;stroke:none"
         id="path263923"
         inkscape:connector-curvature="0" />
    </g>
    <g
       id="g263925"
       transform="matrix(0.35277777,0,0,-0.35277777,117.79377,215.6654)">
      <path
         d="M 0,0 C -0.229,0.135 -0.25,0.572 -0.05,0.98 0.149,1.393 0.491,1.617 0.716,1.486 0.938,1.354 0.963,0.91 0.76,0.502 0.562,0.092 0.222,-0.135 0,0 M 0.228,-0.197 C 0.668,0.031 0.937,0.594 0.979,0.99 1.141,2.123 -0.093,2.5 -0.683,1.283 V 1.279 C -1.191,0.264 -0.55,-0.604 0.228,-0.197"
         style="fill:#f9e97a;fill-opacity:1;fill-rule:nonzero;stroke:none"
         id="path263927"
         inkscape:connector-curvature="0" />
    </g>
    <g
       id="g263929"
       transform="matrix(0.35277777,0,0,-0.35277777,104.48023,203.18037)">
      <path
         d="m 0,0 1.359,0.979 -0.1,-26.963 -1.363,-0.973 z"
         style="fill:#f4f4f4;fill-opacity:1;fill-rule:nonzero;stroke:none"
         id="path263931"
         inkscape:connector-curvature="0" />
    </g>
    <g
       id="g263933"
       transform="matrix(0.35277777,0,0,-0.35277777,104.48023,191.66824)">
      <path
         d="m 0,0 1.359,0.979 -0.1,-26.961 -1.363,-0.975 z"
         style="fill:#f4f4f4;fill-opacity:1;fill-rule:nonzero;stroke:none"
         id="path263935"
         inkscape:connector-curvature="0" />
    </g>
    <g
       id="g263937"
       transform="matrix(0.35277777,0,0,-0.35277777,104.24356,211.32528)">
      <path
         d="M 0,0 -9.554,5.186 V 28.445 L 0,22.414 Z"
         style="fill:#939999;fill-opacity:1;fill-rule:nonzero;stroke:none"
         id="path263939"
         inkscape:connector-curvature="0" />
    </g>
    <g
       id="g263941"
       transform="matrix(0.35277777,0,0,-0.35277777,101.01998,209.99339)">
      <path
         d="M 0,0 1.737,0.965 9.686,-3.637 7.951,-4.602 Z"
         style="fill:#ffffff;fill-opacity:1;fill-rule:nonzero;stroke:none"
         id="path263943"
         inkscape:connector-curvature="0" />
    </g>
    <g
       id="g263945"
       transform="matrix(0.35277777,0,0,-0.35277777,101.05165,201.91534)">
      <path
         d="M 0,0 1.647,0.971 V -21.934 L -0.09,-22.898 Z"
         style="fill:#f4f4f4;fill-opacity:1;fill-rule:nonzero;stroke:none"
         id="path263947"
         inkscape:connector-curvature="0" />
    </g>
    <g
       id="g263949"
       transform="matrix(0.35277777,0,0,-0.35277777,104.43681,205.79453)">
      <path
         d="M 0,0 -9.692,5.6 V 3.805 L 0,-1.791 Z"
         style="fill:#ffffff;fill-opacity:1;fill-rule:nonzero;stroke:none"
         id="path263951"
         inkscape:connector-curvature="0" />
    </g>
    <g
       id="g263953"
       transform="matrix(0.35277777,0,0,-0.35277777,104.04853,206.1845)">
      <path
         d="M 0,0 -9.694,5.6 V 3.807 L 0,-1.791 Z"
         style="fill:#ffffff;fill-opacity:1;fill-rule:nonzero;stroke:none"
         id="path263955"
         inkscape:connector-curvature="0" />
    </g>
    <g
       id="g263957"
       transform="matrix(0.35277777,0,0,-0.35277777,100.43255,200.84119)">
      <path
         d="M 0,0 1.36,0.979 12.833,-5.652 11.474,-6.631 Z"
         style="fill:#ffffff;fill-opacity:1;fill-rule:nonzero;stroke:none"
         id="path263959"
         inkscape:connector-curvature="0" />
    </g>
    <g
       id="g263961"
       transform="matrix(0.35277777,0,0,-0.35277777,103.82493,211.61674)">
      <path
         d="M 0,0 V 22.902 L -7.861,27.5 -7.951,4.602 Z M -9.616,30.545 1.857,23.914 1.753,-3.043 -9.718,3.586 Z"
         style="fill:#ffffff;fill-opacity:1;fill-rule:nonzero;stroke:none"
         id="path263963"
         inkscape:connector-curvature="0" />
    </g>
    <g
       id="g263965"
       transform="matrix(0.35277777,0,0,-0.35277777,92.686612,204.61079)">
      <path
         d="M 0,0 -9.556,5.186 V 28.447 L 0,22.416 Z"
         style="fill:#939999;fill-opacity:1;fill-rule:nonzero;stroke:none"
         id="path263967"
         inkscape:connector-curvature="0" />
    </g>
    <g
       id="g263969"
       transform="matrix(0.35277777,0,0,-0.35277777,89.495419,195.20016)">
      <path
         d="M 0,0 1.645,0.969 V -21.936 L -0.091,-22.9 Z"
         style="fill:#f4f4f4;fill-opacity:1;fill-rule:nonzero;stroke:none"
         id="path263971"
         inkscape:connector-curvature="0" />
    </g>
    <g
       id="g263973"
       transform="matrix(0.35277777,0,0,-0.35277777,89.463405,203.2789)">
      <path
         d="m 0,0 1.735,0.965 7.951,-4.6 -1.735,-0.967 z"
         style="fill:#ffffff;fill-opacity:1;fill-rule:nonzero;stroke:none"
         id="path263975"
         inkscape:connector-curvature="0" />
    </g>
    <g
       id="g263977"
       transform="matrix(0.35277777,0,0,-0.35277777,92.880234,199.08004)">
      <path
         d="M 0,0 -9.696,5.598 V 3.803 L 0,-1.793 Z"
         style="fill:#ffffff;fill-opacity:1;fill-rule:nonzero;stroke:none"
         id="path263979"
         inkscape:connector-curvature="0" />
    </g>
    <g
       id="g263981"
       transform="matrix(0.35277777,0,0,-0.35277777,92.922594,196.46659)">
      <path
         d="M 0,0 1.36,0.979 1.259,-25.982 -0.102,-26.955 Z"
         style="fill:#f4f4f4;fill-opacity:1;fill-rule:nonzero;stroke:none"
         id="path263983"
         inkscape:connector-curvature="0" />
    </g>
    <g
       id="g263985"
       transform="matrix(0.35277777,0,0,-0.35277777,88.876347,194.12664)">
      <path
         d="M 0,0 1.36,0.979 12.83,-5.654 11.47,-6.633 Z"
         style="fill:#ffffff;fill-opacity:1;fill-rule:nonzero;stroke:none"
         id="path263987"
         inkscape:connector-curvature="0" />
    </g>
    <g
       id="g263989"
       transform="matrix(0.35277777,0,0,-0.35277777,92.491296,199.47001)">
      <path
         d="M 0,0 -9.692,5.598 V 3.807 L 0,-1.789 Z"
         style="fill:#ffffff;fill-opacity:1;fill-rule:nonzero;stroke:none"
         id="path263991"
         inkscape:connector-curvature="0" />
    </g>
    <g
       id="g263993"
       transform="matrix(0.35277777,0,0,-0.35277777,92.268358,204.90225)">
      <path
         d="m 0,0 v 22.902 l -7.86,4.6 -0.091,-22.9 z M -9.615,30.545 1.854,23.912 1.753,-3.043 -9.718,3.586 Z"
         style="fill:#ffffff;fill-opacity:1;fill-rule:nonzero;stroke:none"
         id="path263995"
         inkscape:connector-curvature="0" />
    </g>
    <g
       id="g263997"
       transform="matrix(0.35277777,0,0,-0.35277777,104.24356,199.81244)">
      <path
         d="M 0,0 -9.554,5.188 V 28.445 L 0,22.414 Z"
         style="fill:#939999;fill-opacity:1;fill-rule:nonzero;stroke:none"
         id="path263999"
         inkscape:connector-curvature="0" />
    </g>
    <g
       id="g264001"
       transform="matrix(0.35277777,0,0,-0.35277777,101.01998,198.48126)">
      <path
         d="M 0,0 1.737,0.969 9.686,-3.635 7.951,-4.6 Z"
         style="fill:#ffffff;fill-opacity:1;fill-rule:nonzero;stroke:none"
         id="path264003"
         inkscape:connector-curvature="0" />
    </g>
    <g
       id="g264005"
       transform="matrix(0.35277777,0,0,-0.35277777,101.05165,190.40184)">
      <path
         d="M 0,0 1.647,0.969 V -21.934 L -0.09,-22.902 Z"
         style="fill:#f4f4f4;fill-opacity:1;fill-rule:nonzero;stroke:none"
         id="path264007"
         inkscape:connector-curvature="0" />
    </g>
    <g
       id="g264009"
       transform="matrix(0.35277777,0,0,-0.35277777,104.43681,194.2824)">
      <path
         d="M 0,0 -9.692,5.6 V 3.807 L 0,-1.793 Z"
         style="fill:#ffffff;fill-opacity:1;fill-rule:nonzero;stroke:none"
         id="path264011"
         inkscape:connector-curvature="0" />
    </g>
    <g
       id="g264013"
       transform="matrix(0.35277777,0,0,-0.35277777,104.04853,194.67168)">
      <path
         d="M 0,0 -9.694,5.598 V 3.805 L 0,-1.791 Z"
         style="fill:#ffffff;fill-opacity:1;fill-rule:nonzero;stroke:none"
         id="path264015"
         inkscape:connector-curvature="0" />
    </g>
    <g
       id="g264017"
       transform="matrix(0.35277777,0,0,-0.35277777,100.43255,189.32835)">
      <path
         d="M 0,0 1.36,0.977 12.833,-5.654 11.474,-6.633 Z"
         style="fill:#ffffff;fill-opacity:1;fill-rule:nonzero;stroke:none"
         id="path264019"
         inkscape:connector-curvature="0" />
    </g>
    <g
       id="g264021"
       transform="matrix(0.35277777,0,0,-0.35277777,103.82493,200.1039)">
      <path
         d="m 0,0 v 22.902 l -7.861,4.6 L -7.951,4.6 Z M -9.616,30.545 1.857,23.912 1.753,-3.045 -9.718,3.586 Z"
         style="fill:#ffffff;fill-opacity:1;fill-rule:nonzero;stroke:none"
         id="path264023"
         inkscape:connector-curvature="0" />
    </g>
    <g
       id="g264025"
       transform="matrix(0.35277777,0,0,-0.35277777,92.686612,193.09794)">
      <path
         d="M 0,0 -9.556,5.186 V 28.445 L 0,22.416 Z"
         style="fill:#939999;fill-opacity:1;fill-rule:nonzero;stroke:none"
         id="path264027"
         inkscape:connector-curvature="0" />
    </g>
    <g
       id="g264029"
       transform="matrix(0.35277777,0,0,-0.35277777,89.463405,191.76746)">
      <path
         d="M 0,0 1.735,0.969 9.686,-3.633 7.951,-4.598 Z"
         style="fill:#ffffff;fill-opacity:1;fill-rule:nonzero;stroke:none"
         id="path264031"
         inkscape:connector-curvature="0" />
    </g>
    <g
       id="g264033"
       transform="matrix(0.35277777,0,0,-0.35277777,89.495419,183.68804)">
      <path
         d="m 0,0 1.645,0.969 v -22.903 l -1.736,-0.968 z"
         style="fill:#f4f4f4;fill-opacity:1;fill-rule:nonzero;stroke:none"
         id="path264035"
         inkscape:connector-curvature="0" />
    </g>
    <g
       id="g264037"
       transform="matrix(0.35277777,0,0,-0.35277777,92.880234,187.5672)">
      <path
         d="M 0,0 -9.696,5.598 V 3.803 L 0,-1.795 Z"
         style="fill:#ffffff;fill-opacity:1;fill-rule:nonzero;stroke:none"
         id="path264039"
         inkscape:connector-curvature="0" />
    </g>
    <g
       id="g264041"
       transform="matrix(0.35277777,0,0,-0.35277777,92.922594,184.95375)">
      <path
         d="M 0,0 1.36,0.979 1.259,-25.982 -0.102,-26.955 Z"
         style="fill:#f4f4f4;fill-opacity:1;fill-rule:nonzero;stroke:none"
         id="path264043"
         inkscape:connector-curvature="0" />
    </g>
    <g
       id="g264045"
       transform="matrix(0.35277777,0,0,-0.35277777,88.876347,182.61386)">
      <path
         d="M 0,0 1.36,0.977 12.83,-5.654 11.47,-6.633 Z"
         style="fill:#ffffff;fill-opacity:1;fill-rule:nonzero;stroke:none"
         id="path264047"
         inkscape:connector-curvature="0" />
    </g>
    <g
       id="g264049"
       transform="matrix(0.35277777,0,0,-0.35277777,92.491296,187.95719)">
      <path
         d="M 0,0 -9.692,5.598 V 3.809 L 0,-1.789 Z"
         style="fill:#ffffff;fill-opacity:1;fill-rule:nonzero;stroke:none"
         id="path264051"
         inkscape:connector-curvature="0" />
    </g>
    <g
       id="g264053"
       transform="matrix(0.35277777,0,0,-0.35277777,92.268358,193.38941)">
      <path
         d="M 0,0 V 22.902 L -7.86,27.5 -7.951,4.598 Z M -9.615,30.545 1.854,23.912 1.753,-3.043 -9.718,3.584 Z"
         style="fill:#ffffff;fill-opacity:1;fill-rule:nonzero;stroke:none"
         id="path264055"
         inkscape:connector-curvature="0" />
    </g>
    <g
       id="g264057"
       transform="matrix(0.35277777,0,0,-0.35277777,104.19839,214.47136)">
      <path
         d="M 0,0 1.36,0.979 1.259,-25.982 -0.103,-26.957 Z"
         style="fill:#f4f4f4;fill-opacity:1;fill-rule:nonzero;stroke:none"
         id="path264059"
         inkscape:connector-curvature="0" />
    </g>
    <g
       id="g264061"
       transform="matrix(0.35277777,0,0,-0.35277777,103.96172,222.61555)">
      <path
         d="M 0,0 -9.555,5.184 V 28.445 L 0,22.416 Z"
         style="fill:#939999;fill-opacity:1;fill-rule:nonzero;stroke:none"
         id="path264063"
         inkscape:connector-curvature="0" />
    </g>
    <g
       id="g264065"
       transform="matrix(0.35277777,0,0,-0.35277777,100.73883,221.28504)">
      <path
         d="M 0,0 1.737,0.969 9.685,-3.635 7.949,-4.6 Z"
         style="fill:#ffffff;fill-opacity:1;fill-rule:nonzero;stroke:none"
         id="path264067"
         inkscape:connector-curvature="0" />
    </g>
    <g
       id="g264069"
       transform="matrix(0.35277777,0,0,-0.35277777,100.77021,213.2049)">
      <path
         d="m 0,0 1.648,0.967 v -22.903 l -1.737,-0.968 z"
         style="fill:#f4f4f4;fill-opacity:1;fill-rule:nonzero;stroke:none"
         id="path264071"
         inkscape:connector-curvature="0" />
    </g>
    <g
       id="g264073"
       transform="matrix(0.35277777,0,0,-0.35277777,104.15535,217.08618)">
      <path
         d="M 0,0 -9.693,5.6 V 3.805 L 0,-1.793 Z"
         style="fill:#ffffff;fill-opacity:1;fill-rule:nonzero;stroke:none"
         id="path264075"
         inkscape:connector-curvature="0" />
    </g>
    <g
       id="g264077"
       transform="matrix(0.35277777,0,0,-0.35277777,103.76673,217.47546)">
      <path
         d="M 0,0 -9.693,5.6 V 3.807 L 0,-1.791 Z"
         style="fill:#ffffff;fill-opacity:1;fill-rule:nonzero;stroke:none"
         id="path264079"
         inkscape:connector-curvature="0" />
    </g>
    <g
       id="g264081"
       transform="matrix(0.35277777,0,0,-0.35277777,100.15178,212.13144)">
      <path
         d="m 0,0 1.359,0.977 11.472,-6.631 -1.36,-0.979 z"
         style="fill:#ffffff;fill-opacity:1;fill-rule:nonzero;stroke:none"
         id="path264083"
         inkscape:connector-curvature="0" />
    </g>
    <g
       id="g264085"
       transform="matrix(0.35277777,0,0,-0.35277777,103.54315,222.90768)">
      <path
         d="M 0,0 V 22.902 L -7.86,27.504 -7.949,4.6 Z M -9.613,30.547 1.857,23.914 1.755,-3.043 -9.717,3.586 Z"
         style="fill:#ffffff;fill-opacity:1;fill-rule:nonzero;stroke:none"
         id="path264087"
         inkscape:connector-curvature="0" />
    </g>
    <g
       id="g264089"
       transform="matrix(0.35277777,0,0,-0.35277777,92.405148,215.90106)">
      <path
         d="M 0,0 -9.557,5.184 V 28.443 L 0,22.414 Z"
         style="fill:#939999;fill-opacity:1;fill-rule:nonzero;stroke:none"
         id="path264091"
         inkscape:connector-curvature="0" />
    </g>
    <g
       id="g264093"
       transform="matrix(0.35277777,0,0,-0.35277777,89.213638,206.49113)">
      <path
         d="M 0,0 1.647,0.967 V -21.934 L -0.09,-22.9 Z"
         style="fill:#f4f4f4;fill-opacity:1;fill-rule:nonzero;stroke:none"
         id="path264095"
         inkscape:connector-curvature="0" />
    </g>
    <g
       id="g264097"
       transform="matrix(0.35277777,0,0,-0.35277777,89.181914,214.56989)">
      <path
         d="M 0,0 1.737,0.967 9.688,-3.635 7.95,-4.602 Z"
         style="fill:#ffffff;fill-opacity:1;fill-rule:nonzero;stroke:none"
         id="path264099"
         inkscape:connector-curvature="0" />
    </g>
    <g
       id="g264101"
       transform="matrix(0.35277777,0,0,-0.35277777,92.599802,210.37169)">
      <path
         d="M 0,0 -9.699,5.598 V 3.805 L 0,-1.789 Z"
         style="fill:#ffffff;fill-opacity:1;fill-rule:nonzero;stroke:none"
         id="path264103"
         inkscape:connector-curvature="0" />
    </g>
    <g
       id="g264105"
       transform="matrix(0.35277777,0,0,-0.35277777,92.640786,207.75687)">
      <path
         d="M 0,0 1.361,0.977 1.262,-25.986 -0.101,-26.959 Z"
         style="fill:#f4f4f4;fill-opacity:1;fill-rule:nonzero;stroke:none"
         id="path264107"
         inkscape:connector-curvature="0" />
    </g>
    <g
       id="g264109"
       transform="matrix(0.35277777,0,0,-0.35277777,88.593825,205.41763)">
      <path
         d="M 0,0 1.364,0.979 12.833,-5.654 11.472,-6.631 Z"
         style="fill:#ffffff;fill-opacity:1;fill-rule:nonzero;stroke:none"
         id="path264111"
         inkscape:connector-curvature="0" />
    </g>
    <g
       id="g264113"
       transform="matrix(0.35277777,0,0,-0.35277777,92.209806,210.76026)">
      <path
         d="M 0,0 -9.693,5.598 V 3.805 L 0,-1.793 Z"
         style="fill:#ffffff;fill-opacity:1;fill-rule:nonzero;stroke:none"
         id="path264115"
         inkscape:connector-curvature="0" />
    </g>
    <g
       id="g264117"
       transform="matrix(0.35277777,0,0,-0.35277777,91.986577,216.19319)">
      <path
         d="m 0,0 v 22.902 l -7.86,4.6 -0.09,-22.9 z M -9.617,30.545 1.854,23.914 1.754,-3.045 -9.718,3.586 Z"
         style="fill:#ffffff;fill-opacity:1;fill-rule:nonzero;stroke:none"
         id="path264119"
         inkscape:connector-curvature="0" />
    </g>
    <g
       id="g264121"
       transform="matrix(0.35277777,0,0,-0.35277777,96.618505,177.03485)">
      <path
         d="M 0,0 0.105,-8.43 30.308,9.01 30.202,28.281 Z"
         style="fill:#b8bbab;fill-opacity:1;fill-rule:nonzero;stroke:none"
         id="path264123"
         inkscape:connector-curvature="0" />
    </g>
    <g
       id="g264125"
       transform="matrix(0.35277777,0,0,-0.35277777,107.27317,167.05786)">
      <path
         d="m 0,0 0.105,-19.271 30.007,-17.44 -0.105,8.43 z"
         style="fill:#818377;fill-opacity:1;fill-rule:nonzero;stroke:none"
         id="path264127"
         inkscape:connector-curvature="0" />
    </g>
    <g
       id="g264129"
       transform="matrix(0.35277777,0,0,-0.35277777,96.618505,177.03485)">
      <path
         d="M 0,0 0.105,-8.43 30.111,-25.867 30.007,11.182 Z"
         style="fill:#727374;fill-opacity:1;fill-rule:nonzero;stroke:none"
         id="path264131"
         inkscape:connector-curvature="0" />
    </g>
    <g
       id="g264133"
       transform="matrix(0.35277777,0,0,-0.35277777,107.20425,173.09023)">
      <path
         d="m 0,0 0.104,-37.049 30.204,17.438 -0.106,8.429 z"
         style="fill:#a4a5a6;fill-opacity:1;fill-rule:nonzero;stroke:none"
         id="path264135"
         inkscape:connector-curvature="0" />
    </g>
    <g
       id="g264137"
       transform="matrix(0.35277777,0,0,-0.35277777,107.20425,175.84081)">
      <path
         d="M 0,0 30.202,17.438 0.195,34.875 -30.007,17.438 Z M 41.673,17.438 -0.039,11.131 -41.475,17.438 0.233,41.52 Z"
         style="fill:#c9cdbb;fill-opacity:1;fill-rule:nonzero;stroke:none"
         id="path264139"
         inkscape:connector-curvature="0" />
    </g>
    <g
       id="g264141"
       transform="matrix(0.35277777,0,0,-0.35277777,96.618505,169.68925)">
      <path
         d="M 0,0 30.007,-17.438 60.209,0 30.202,17.438 Z"
         style="fill:#c6c6c6;fill-opacity:1;fill-rule:nonzero;stroke:none"
         id="path264143"
         inkscape:connector-curvature="0" />
    </g>
    <g
       id="g264145"
       transform="matrix(0.35277777,0,0,-0.35277777,117.85891,168.78041)">
      <path
         d="m 0,0 -0.006,-2.756 -30.205,17.438 0.009,2.756 z"
         style="fill:#bababa;fill-opacity:1;fill-rule:nonzero;stroke:none"
         id="path264147"
         inkscape:connector-curvature="0" />
    </g>
    <g
       id="g264149"
       transform="matrix(0.35277777,0,0,-0.35277777,107.20425,162.62884)">
      <path
         d="m 0,0 -0.009,-2.756 -30.004,-17.437 0.006,2.755 z"
         style="fill:#d8d8d8;fill-opacity:1;fill-rule:nonzero;stroke:none"
         id="path264151"
         inkscape:connector-curvature="0" />
    </g>
    <g
       id="g264153"
       transform="matrix(0.35277777,0,0,-0.35277777,92.57292,168.78178)">
      <path
         d="M 0,0 41.444,-23.902 41.496,-56.025 0.105,-31.826 Z"
         style="fill:#ededed;fill-opacity:1;fill-rule:nonzero;stroke:none"
         id="path264155"
         inkscape:connector-curvature="0" />
    </g>
    <g
       id="g264157"
       transform="matrix(0.35277777,0,0,-0.35277777,107.19358,177.214)">
      <path
         d="M 0,0 41.703,23.906 41.807,-8.016 0.052,-32.123 -0.009,5.045 Z"
         style="fill:#bababa;fill-opacity:1;fill-rule:nonzero;stroke:none"
         id="path264159"
         inkscape:connector-curvature="0" />
    </g>
    <g
       id="g264161"
       transform="matrix(0.35277777,0,0,-0.35277777,107.27317,174.93266)">
      <path
         d="M 0,0 30.007,17.439 -0.195,34.877 -30.202,17.439 Z M -0.23,41.518 41.478,17.439 -0.226,-6.467 -41.67,17.436 Z"
         style="fill:#f1f2f2;fill-opacity:1;fill-rule:nonzero;stroke:none"
         id="path264163"
         inkscape:connector-curvature="0" />
    </g>
  </g>
</svg>
