<?xml version="1.0" encoding="UTF-8" standalone="no"?>
<!-- Created with Inkscape (http://www.inkscape.org/) -->

<svg
   xmlns:dc="http://purl.org/dc/elements/1.1/"
   xmlns:cc="http://creativecommons.org/ns#"
   xmlns:rdf="http://www.w3.org/1999/02/22-rdf-syntax-ns#"
   xmlns:svg="http://www.w3.org/2000/svg"
   xmlns="http://www.w3.org/2000/svg"
   xmlns:sodipodi="http://sodipodi.sourceforge.net/DTD/sodipodi-0.dtd"
   xmlns:inkscape="http://www.inkscape.org/namespaces/inkscape"
   width="45.225758mm"
   height="47.075363mm"
   viewBox="0 0 45.225758 47.075363"
   version="1.1"
   id="svg12887"
   inkscape:version="0.92.3 (2405546, 2018-03-11)"
   sodipodi:docname="apartemant-10.svg">
  <defs
     id="defs12881">
    <clipPath
       clipPathUnits="userSpaceOnUse"
       id="clipPath261855">
      <path
         d="m 2063.862,894.957 c 0,-0.118 0.081,-0.235 0.238,-0.328 v 0 c 0.313,-0.184 0.826,-0.184 1.139,0.002 v 0 c 0.157,0.091 0.236,0.207 0.236,0.326 v 0 l 0.01,6.529 c 0,-0.119 -0.078,-0.239 -0.232,-0.33 v 0 c -0.313,-0.181 -0.826,-0.181 -1.14,0 v 0 c -0.157,0.091 -0.239,0.213 -0.239,0.334 v 0 l -0.01,-6.533 z"
         id="path261853"
         inkscape:connector-curvature="0" />
    </clipPath>
    <clipPath
       clipPathUnits="userSpaceOnUse"
       id="clipPath261811">
      <path
         d="M 0,2270.272 H 3066.787 V 0 H 0 Z"
         id="path261809"
         inkscape:connector-curvature="0" />
    </clipPath>
    <clipPath
       clipPathUnits="userSpaceOnUse"
       id="clipPath261835">
      <path
         d="m 2060.25,898.49 h 11.33 v -6.561 h -11.33 z"
         id="path261833"
         inkscape:connector-curvature="0" />
    </clipPath>
    <clipPath
       clipPathUnits="userSpaceOnUse"
       id="clipPath261799">
      <path
         d="m 2039.623,912.308 c 0,-0.181 0.124,-0.367 0.369,-0.514 v 0 c 0.484,-0.278 1.277,-0.278 1.761,0.007 v 0 c 0.242,0.14 0.361,0.322 0.361,0.504 v 0 l 0.018,10.09 c 0,-0.182 -0.121,-0.366 -0.361,-0.508 v 0 c -0.484,-0.282 -1.273,-0.282 -1.762,0 v 0 c -0.243,0.142 -0.372,0.329 -0.372,0.515 v 0 z"
         id="path261797"
         inkscape:connector-curvature="0" />
    </clipPath>
    <clipPath
       clipPathUnits="userSpaceOnUse"
       id="clipPath261779">
      <path
         d="m 2034.04,917.766 h 17.51 v -10.143 h -17.51 z"
         id="path261777"
         inkscape:connector-curvature="0" />
    </clipPath>
    <clipPath
       clipPathUnits="userSpaceOnUse"
       id="clipPath261735">
      <path
         d="m 2115.2,997.055 h 13.77 v -9.928 h -13.77 z"
         id="path261733"
         inkscape:connector-curvature="0" />
    </clipPath>
    <clipPath
       clipPathUnits="userSpaceOnUse"
       id="clipPath261687">
      <path
         d="m 2097.73,999.658 h 23.86 v -25.642 h -23.86 z"
         id="path261685"
         inkscape:connector-curvature="0" />
    </clipPath>
    <clipPath
       clipPathUnits="userSpaceOnUse"
       id="clipPath261635">
      <path
         d="m 2067.28,974.539 h 37.98 v -40.832 h -37.98 z"
         id="path261633"
         inkscape:connector-curvature="0" />
    </clipPath>
    <clipPath
       clipPathUnits="userSpaceOnUse"
       id="clipPath261603">
      <path
         d="m 2083.81,917.209 h 70.7 v -38.598 h -70.7 z"
         id="path261601"
         inkscape:connector-curvature="0" />
    </clipPath>
  </defs>
  <sodipodi:namedview
     id="base"
     pagecolor="#ffffff"
     bordercolor="#666666"
     borderopacity="1.0"
     inkscape:pageopacity="0.0"
     inkscape:pageshadow="2"
     inkscape:zoom="0.35"
     inkscape:cx="-658.81971"
     inkscape:cy="100.38988"
     inkscape:document-units="mm"
     inkscape:current-layer="layer1"
     showgrid="false"
     fit-margin-top="0"
     fit-margin-left="0"
     fit-margin-right="0"
     fit-margin-bottom="0"
     inkscape:window-width="1366"
     inkscape:window-height="716"
     inkscape:window-x="-8"
     inkscape:window-y="-8"
     inkscape:window-maximized="1" />
  <metadata
     id="metadata12884">
    <rdf:RDF>
      <cc:Work
         rdf:about="">
        <dc:format>image/svg+xml</dc:format>
        <dc:type
           rdf:resource="http://purl.org/dc/dcmitype/StillImage" />
        <dc:title></dc:title>
      </cc:Work>
    </rdf:RDF>
  </metadata>
  <g
     inkscape:label="Layer 1"
     inkscape:groupmode="layer"
     id="layer1"
     transform="translate(-96.827597,-128.31946)">
    <g
       id="g261589"
       transform="matrix(0.35277777,0,0,-0.35277777,141.47374,163.1604)">
      <path
         d="m 0,0 -54.197,-31.553 c -2.2,-1.281 -5.78,-1.281 -7.992,0 l -62.692,36.192 c -1.114,0.646 -1.671,1.488 -1.669,2.332 l -0.006,-2.166 c 0,-0.846 0.556,-1.688 1.67,-2.332 l 62.689,-36.194 c 2.215,-1.279 5.793,-1.279 7.994,0 l 54.197,31.555 c 1.094,0.631 1.64,1.465 1.643,2.297 L 1.643,2.297 C 1.639,1.463 1.092,0.631 0,0"
         style="fill:#94b226;fill-opacity:1;fill-rule:nonzero;stroke:none"
         id="path261591"
         inkscape:connector-curvature="0" />
    </g>
    <g
       id="g261593"
       transform="matrix(0.35277777,0,0,-0.35277777,141.46411,161.52811)">
      <path
         d="M 0,0 C 2.216,-1.279 2.228,-3.35 0.027,-4.627 L -54.17,-36.18 c -2.2,-1.281 -5.779,-1.281 -7.992,0 l -62.692,36.192 c -2.214,1.279 -2.225,3.349 -0.024,4.631 l 54.193,31.552 c 2.202,1.28 5.783,1.28 7.996,0 z"
         style="fill:#9ece4a;fill-opacity:1;fill-rule:nonzero;stroke:none"
         id="path261595"
         inkscape:connector-curvature="0" />
    </g>
    <g
       transform="matrix(0.35277777,0,0,-0.35277777,-618.58838,482.83149)"
       id="g261597">
      <g
         id="g261599" />
      <g
         id="g261611">
        <g
           clip-path="url(#clipPath261603)"
           id="g261609"
           style="opacity:0.130005">
          <g
             transform="translate(2154.5068,906.1543)"
             id="g261607">
            <path
               d="m 0,0 -47.271,-27.498 -4.793,-0.045 -18.631,10.801 48.389,27.797 z"
               style="fill:#060606;fill-opacity:1;fill-rule:nonzero;stroke:none"
               id="path261605"
               inkscape:connector-curvature="0" />
          </g>
        </g>
      </g>
    </g>
    <g
       id="g261613"
       transform="matrix(0.35277777,0,0,-0.35277777,123.19786,154.93834)">
      <path
         d="m 0,0 -0.259,-50.879 -46.295,26.727 0.263,50.877 z"
         style="fill:#dee0e0;fill-opacity:1;fill-rule:nonzero;stroke:none"
         id="path261615"
         inkscape:connector-curvature="0" />
    </g>
    <g
       id="g261617"
       transform="matrix(0.35277777,0,0,-0.35277777,108.15828,145.50844)">
      <path
         d="M 0,0 42.335,24.604 84.968,-0.01 42.631,-24.615 Z"
         style="fill:#d3d3d3;fill-opacity:1;fill-rule:nonzero;stroke:none"
         id="path261619"
         inkscape:connector-curvature="0" />
    </g>
    <g
       id="g261621"
       transform="matrix(0.35277777,0,0,-0.35277777,123.09277,136.08197)">
      <path
         d="M 0,0 -45.993,-26.727 0.298,-53.451 46.29,-26.727 Z m 0.005,-4.236 38.97,-22.5 -38.682,-22.479 -38.973,22.5 z"
         style="fill:#f4f4f4;fill-opacity:1;fill-rule:nonzero;stroke:none"
         id="path261623"
         inkscape:connector-curvature="0" />
    </g>
    <g
       id="g261625"
       transform="matrix(0.35277777,0,0,-0.35277777,135.5902,146.24429)">
      <path
         d="M 0,0 -35.424,20.451 -70.554,0.035 -35.13,-20.416 Z"
         style="fill:#e5e2dc;fill-opacity:1;fill-rule:nonzero;stroke:none"
         id="path261627"
         inkscape:connector-curvature="0" />
    </g>
    <g
       transform="matrix(0.35277777,0,0,-0.35277777,-618.58838,482.83149)"
       id="g261629">
      <g
         id="g261631" />
      <g
         id="g261643">
        <g
           clip-path="url(#clipPath261635)"
           id="g261641"
           style="opacity:0.11000097">
          <g
             transform="translate(2072.4775,954.125)"
             id="g261639">
            <path
               d="m 0,0 32.511,18.893 -2.637,1.521 -35.076,-20.383 35.424,-20.449 2.564,1.49 z"
               style="fill:#161615;fill-opacity:1;fill-rule:nonzero;stroke:none"
               id="path261637"
               inkscape:connector-curvature="0" />
          </g>
        </g>
      </g>
    </g>
    <g
       id="g261645"
       transform="matrix(0.35277777,0,0,-0.35277777,121.14837,157.8005)">
      <path
         d="m 0,0 -0.216,-11.236 -37.899,21.881 0.216,11.238 z"
         style="fill:#c7c9c9;fill-opacity:1;fill-rule:nonzero;stroke:none"
         id="path261647"
         inkscape:connector-curvature="0" />
    </g>
    <g
       id="g261649"
       transform="matrix(0.35277777,0,0,-0.35277777,108.23445,150.34327)">
      <path
         d="m 0,0 -0.181,-9.377 36.593,-21.127 0.18,9.379 z"
         style="fill:#848484;fill-opacity:1;fill-rule:nonzero;stroke:none"
         id="path261651"
         inkscape:connector-curvature="0" />
    </g>
    <g
       id="g261653"
       transform="matrix(0.35277777,0,0,-0.35277777,121.14837,164.91329)">
      <path
         d="m 0,0 -0.216,-11.236 -37.899,21.881 0.216,11.234 z"
         style="fill:#c7c9c9;fill-opacity:1;fill-rule:nonzero;stroke:none"
         id="path261655"
         inkscape:connector-curvature="0" />
    </g>
    <g
       id="g261657"
       transform="matrix(0.35277777,0,0,-0.35277777,108.23445,157.45533)">
      <path
         d="m 0,0 -0.181,-9.383 36.593,-21.125 0.18,9.381 z"
         style="fill:#848484;fill-opacity:1;fill-rule:nonzero;stroke:none"
         id="path261659"
         inkscape:connector-curvature="0" />
    </g>
    <g
       id="g261661"
       transform="matrix(0.35277777,0,0,-0.35277777,139.48283,134.2402)">
      <path
         d="m 0,0 -28.885,-16.785 -0.165,-31.945 -17.112,-9.942 -0.259,-50.879 45.989,26.727 0.262,50.873 h 0.004 z"
         style="fill:#c7c9c9;fill-opacity:1;fill-rule:nonzero;stroke:none"
         id="path261663"
         inkscape:connector-curvature="0" />
    </g>
    <g
       id="g261665"
       transform="matrix(0.35277777,0,0,-0.35277777,129.29291,140.16163)">
      <path
         d="m 0,0 -0.165,-31.949 -29.07,16.783 0.164,31.951 z"
         style="fill:#dee0e0;fill-opacity:1;fill-rule:nonzero;stroke:none"
         id="path261667"
         inkscape:connector-curvature="0" />
    </g>
    <g
       id="g261669"
       transform="matrix(0.35277777,0,0,-0.35277777,119.84715,134.23951)">
      <path
         d="M 0,0 26.587,15.451 53.359,-0.006 26.771,-15.457 Z"
         style="fill:#d3d3d3;fill-opacity:1;fill-rule:nonzero;stroke:none"
         id="path261671"
         inkscape:connector-curvature="0" />
    </g>
    <g
       id="g261673"
       transform="matrix(0.35277777,0,0,-0.35277777,129.2261,128.31946)">
      <path
         d="M 0,0 -28.882,-16.783 0.189,-33.568 29.074,-16.783 Z M 0.004,-2.66 24.477,-16.791 0.186,-30.908 -24.287,-16.777 Z"
         style="fill:#f4f4f4;fill-opacity:1;fill-rule:nonzero;stroke:none"
         id="path261675"
         inkscape:connector-curvature="0" />
    </g>
    <g
       id="g261677"
       transform="matrix(0.35277777,0,0,-0.35277777,137.0747,134.70116)">
      <path
         d="M 0,0 -22.245,12.842 -44.307,0.021 -22.063,-12.822 Z"
         style="fill:#e5e2dc;fill-opacity:1;fill-rule:nonzero;stroke:none"
         id="path261679"
         inkscape:connector-curvature="0" />
    </g>
    <g
       transform="matrix(0.35277777,0,0,-0.35277777,-618.58838,482.83149)"
       id="g261681">
      <g
         id="g261683" />
      <g
         id="g261695">
        <g
           clip-path="url(#clipPath261687)"
           id="g261693"
           style="opacity:0.11000097">
          <g
             transform="translate(2100.9971,986.8379)"
             id="g261691">
            <path
               d="m 0,0 20.417,11.865 -1.656,0.955 -22.028,-12.8 22.245,-12.842 1.613,0.935 z"
               style="fill:#161615;fill-opacity:1;fill-rule:nonzero;stroke:none"
               id="path261689"
               inkscape:connector-curvature="0" />
          </g>
        </g>
      </g>
    </g>
    <g
       id="g261697"
       transform="matrix(0.35277777,0,0,-0.35277777,128.00513,141.9586)">
      <path
         d="m 0,0 -0.135,-7.057 -23.8,13.741 0.135,7.058 z"
         style="fill:#c7c9c9;fill-opacity:1;fill-rule:nonzero;stroke:none"
         id="path261699"
         inkscape:connector-curvature="0" />
    </g>
    <g
       id="g261701"
       transform="matrix(0.35277777,0,0,-0.35277777,119.89469,137.27463)">
      <path
         d="m 0,0 -0.112,-5.893 22.981,-13.265 0.111,5.89 z"
         style="fill:#848484;fill-opacity:1;fill-rule:nonzero;stroke:none"
         id="path261703"
         inkscape:connector-curvature="0" />
    </g>
    <g
       id="g261705"
       transform="matrix(0.35277777,0,0,-0.35277777,128.00513,146.42551)">
      <path
         d="m 0,0 -0.135,-7.057 -23.8,13.741 0.135,7.056 z"
         style="fill:#c7c9c9;fill-opacity:1;fill-rule:nonzero;stroke:none"
         id="path261707"
         inkscape:connector-curvature="0" />
    </g>
    <g
       id="g261709"
       transform="matrix(0.35277777,0,0,-0.35277777,119.89469,141.74225)">
      <path
         d="m 0,0 -0.112,-5.891 22.981,-13.267 0.111,5.892 z"
         style="fill:#848484;fill-opacity:1;fill-rule:nonzero;stroke:none"
         id="path261711"
         inkscape:connector-curvature="0" />
    </g>
    <g
       id="g261713"
       transform="matrix(0.35277777,0,0,-0.35277777,130.13626,142.1219)">
      <path
         d="M 0,0 0.135,-7.059 23.936,6.684 23.803,13.74 Z"
         style="fill:#a8a8a8;fill-opacity:1;fill-rule:nonzero;stroke:none"
         id="path261715"
         inkscape:connector-curvature="0" />
    </g>
    <g
       id="g261717"
       transform="matrix(0.35277777,0,0,-0.35277777,138.24672,137.43864)">
      <path
         d="m 0,0 0.11,-5.893 -22.976,-13.267 -0.114,5.892 z"
         style="fill:#848484;fill-opacity:1;fill-rule:nonzero;stroke:none"
         id="path261719"
         inkscape:connector-curvature="0" />
    </g>
    <g
       id="g261721"
       transform="matrix(0.35277777,0,0,-0.35277777,130.13626,146.58947)">
      <path
         d="M 0,0 0.135,-7.057 23.936,6.686 23.803,13.74 Z"
         style="fill:#a8a8a8;fill-opacity:1;fill-rule:nonzero;stroke:none"
         id="path261723"
         inkscape:connector-curvature="0" />
    </g>
    <g
       id="g261725"
       transform="matrix(0.35277777,0,0,-0.35277777,138.24672,141.90555)">
      <path
         d="m 0,0 0.11,-5.891 -22.976,-13.269 -0.114,5.89 z"
         style="fill:#848484;fill-opacity:1;fill-rule:nonzero;stroke:none"
         id="path261727"
         inkscape:connector-curvature="0" />
    </g>
    <g
       transform="matrix(0.35277777,0,0,-0.35277777,-618.58838,482.83149)"
       id="g261729">
      <g
         id="g261731" />
      <g
         id="g261743">
        <g
           clip-path="url(#clipPath261735)"
           id="g261741"
           style="opacity:0.13999903">
          <g
             transform="translate(2120.042,997.0547)"
             id="g261739">
            <path
               d="m 0,0 -4.841,-2.074 0.312,-0.18 0.011,-5.023 4.568,-2.651 8.878,5.147 z"
               style="fill:#1b1c1e;fill-opacity:1;fill-rule:nonzero;stroke:none"
               id="path261737"
               inkscape:connector-curvature="0" />
          </g>
        </g>
      </g>
    </g>
    <g
       id="g261745"
       transform="matrix(0.35277777,0,0,-0.35277777,127.28546,131.54957)">
      <path
         d="M 0,0 0.017,-5.279 4.581,-7.932 4.565,-2.65 Z"
         style="fill:#dee0e0;fill-opacity:1;fill-rule:nonzero;stroke:none"
         id="path261747"
         inkscape:connector-curvature="0" />
    </g>
    <g
       id="g261749"
       transform="matrix(0.35277777,0,0,-0.35277777,128.89603,132.48459)">
      <path
         d="M 0,0 0.016,-5.281 7.58,-0.914 7.564,4.369 Z"
         style="fill:#c7c9c9;fill-opacity:1;fill-rule:nonzero;stroke:none"
         id="path261751"
         inkscape:connector-curvature="0" />
    </g>
    <g
       id="g261753"
       transform="matrix(0.35277777,0,0,-0.35277777,127.28546,131.54957)">
      <path
         d="M 0,0 4.565,-2.65 12.13,1.719 7.567,4.371 Z"
         style="fill:#f4f4f4;fill-opacity:1;fill-rule:nonzero;stroke:none"
         id="path261755"
         inkscape:connector-curvature="0" />
    </g>
    <g
       id="g261757"
       transform="matrix(0.35277777,0,0,-0.35277777,124.54213,158.06167)">
      <path
         d="M 0,0 0.213,-11.236 38.112,10.645 37.9,21.879 Z"
         style="fill:#a8a8a8;fill-opacity:1;fill-rule:nonzero;stroke:none"
         id="path261759"
         inkscape:connector-curvature="0" />
    </g>
    <g
       id="g261761"
       transform="matrix(0.35277777,0,0,-0.35277777,137.4561,150.60304)">
      <path
         d="m 0,0 0.179,-9.383 -36.592,-21.125 -0.179,9.379 z"
         style="fill:#848484;fill-opacity:1;fill-rule:nonzero;stroke:none"
         id="path261763"
         inkscape:connector-curvature="0" />
    </g>
    <g
       id="g261765"
       transform="matrix(0.35277777,0,0,-0.35277777,124.54213,165.17507)">
      <path
         d="M 0,0 0.213,-11.234 38.112,10.645 37.9,21.883 Z"
         style="fill:#a8a8a8;fill-opacity:1;fill-rule:nonzero;stroke:none"
         id="path261767"
         inkscape:connector-curvature="0" />
    </g>
    <g
       id="g261769"
       transform="matrix(0.35277777,0,0,-0.35277777,137.4561,157.71647)">
      <path
         d="m 0,0 0.179,-9.381 -36.592,-21.129 -0.179,9.383 z"
         style="fill:#848484;fill-opacity:1;fill-rule:nonzero;stroke:none"
         id="path261771"
         inkscape:connector-curvature="0" />
    </g>
    <g
       transform="matrix(0.35277777,0,0,-0.35277777,-618.58838,482.83149)"
       id="g261773">
      <g
         id="g261775" />
      <g
         id="g261787">
        <g
           clip-path="url(#clipPath261779)"
           id="g261785"
           style="opacity:0.19000202">
          <g
             transform="translate(2048.9639,916.2813)"
             id="g261783">
            <path
               d="m 0,0 c 3.427,-1.979 3.455,-5.193 0.039,-7.176 -3.406,-1.98 -8.951,-1.974 -12.375,0.008 -3.43,1.975 -3.457,5.189 -0.048,7.168 C -8.972,1.984 -3.425,1.975 0,0"
               style="fill:#181816;fill-opacity:1;fill-rule:nonzero;stroke:none"
               id="path261781"
               inkscape:connector-curvature="0" />
          </g>
        </g>
      </g>
    </g>
    <g
       id="g261789"
       transform="matrix(0.35277777,0,0,-0.35277777,101.83069,157.43122)">
      <path
         d="m 0,0 -0.019,-10.09 c 0,-0.181 -0.119,-0.363 -0.361,-0.504 -0.483,-0.285 -1.276,-0.285 -1.761,-0.006 -0.245,0.147 -0.369,0.332 -0.369,0.514 l 0.014,10.094 c 0,-0.186 0.13,-0.373 0.373,-0.516 0.488,-0.281 1.277,-0.281 1.762,0 C -0.122,-0.365 0,-0.182 0,0"
         style="fill:#8b5e3c;fill-opacity:1;fill-rule:nonzero;stroke:none"
         id="path261791"
         inkscape:connector-curvature="0" />
    </g>
    <g
       transform="matrix(0.35277777,0,0,-0.35277777,-618.58838,482.83149)"
       id="g261793">
      <g
         id="g261795"
         clip-path="url(#clipPath261799)">
        <g
           id="g261801"
           transform="translate(2042.1328,922.3945)">
          <path
             d="m 0,0 -0.019,-10.09 c 0,-0.181 -0.119,-0.363 -0.361,-0.504 -0.483,-0.285 -1.276,-0.285 -1.761,-0.006 -0.245,0.147 -0.369,0.332 -0.369,0.514 l 0.014,10.094 c 0,-0.186 0.13,-0.373 0.373,-0.516 0.488,-0.281 1.277,-0.281 1.762,0 C -0.122,-0.365 0,-0.182 0,0"
             style="fill:#8b5e3c;fill-opacity:1;fill-rule:nonzero;stroke:none"
             id="path261803"
             inkscape:connector-curvature="0" />
        </g>
      </g>
    </g>
    <g
       transform="matrix(0.35277777,0,0,-0.35277777,-618.58838,482.83149)"
       id="g261805">
      <g
         id="g261807"
         clip-path="url(#clipPath261811)">
        <g
           id="g261813"
           transform="translate(2041.7656,922.9082)">
          <path
             d="m 0,0 c 0.49,-0.277 0.49,-0.734 0.006,-1.021 -0.485,-0.282 -1.274,-0.282 -1.762,0 C -2.245,-0.734 -2.252,-0.277 -1.763,0 -1.279,0.283 -0.489,0.283 0,0"
             style="fill:#8b5e3c;fill-opacity:1;fill-rule:nonzero;stroke:none"
             id="path261815"
             inkscape:connector-curvature="0" />
        </g>
        <g
           id="g261817"
           transform="translate(2050.25,921.4316)">
          <path
             d="m 0,0 c -3.12,3.32 -6.238,6.639 -9.359,9.961 -3.138,-3.305 -6.276,-6.606 -9.411,-9.906 -4.769,-5.02 3.891,-10.668 12.932,-8.842 C -0.481,-7.688 3.645,-3.877 0,0"
             style="fill:#6d9114;fill-opacity:1;fill-rule:nonzero;stroke:none"
             id="path261819"
             inkscape:connector-curvature="0" />
        </g>
        <g
           id="g261821"
           transform="translate(2048.8223,926.2871)">
          <path
             d="m 0,0 c -2.643,2.814 -5.287,5.629 -7.932,8.443 -2.661,-2.798 -5.32,-5.599 -7.98,-8.396 -4.041,-4.254 3.303,-9.041 10.966,-7.496 C -0.406,-6.516 3.091,-3.291 0,0"
             style="fill:#80b21f;fill-opacity:1;fill-rule:nonzero;stroke:none"
             id="path261823"
             inkscape:connector-curvature="0" />
        </g>
        <g
           id="g261825"
           transform="translate(2047.3701,931.6211)">
          <path
             d="M 0,0 C -2.16,2.307 -4.321,4.605 -6.481,6.902 -8.656,4.617 -10.833,2.33 -13.002,0.041 -16.31,-3.436 -10.305,-7.35 -4.042,-6.084 -0.331,-5.324 2.528,-2.684 0,0"
             style="fill:#8ece29;fill-opacity:1;fill-rule:nonzero;stroke:none"
             id="path261827"
             inkscape:connector-curvature="0" />
        </g>
        <g
           id="g261829">
          <g
             id="g261831" />
          <g
             id="g261843">
            <g
               clip-path="url(#clipPath261835)"
               id="g261841"
               style="opacity:0.19000202">
              <g
                 transform="translate(2069.9033,897.5293)"
                 id="g261839">
                <path
                   d="M 0,0 C 2.218,-1.279 2.234,-3.359 0.026,-4.643 -2.176,-5.924 -5.763,-5.918 -7.978,-4.637 -10.197,-3.359 -10.218,-1.279 -8.011,0 -5.804,1.283 -2.215,1.279 0,0"
                   style="fill:#181816;fill-opacity:1;fill-rule:nonzero;stroke:none"
                   id="path261837"
                   inkscape:connector-curvature="0" />
              </g>
            </g>
          </g>
        </g>
        <g
           id="g261845"
           transform="translate(2065.4834,901.4863)">
          <path
             d="m 0,0 -0.009,-6.529 c 0,-0.119 -0.078,-0.235 -0.235,-0.326 -0.314,-0.186 -0.826,-0.186 -1.14,-0.002 -0.156,0.093 -0.237,0.211 -0.237,0.328 l 0.01,6.533 c 0,-0.121 0.082,-0.244 0.239,-0.334 0.314,-0.182 0.827,-0.182 1.141,0 C -0.079,-0.24 0,-0.119 0,0"
             style="fill:#8b5e3c;fill-opacity:1;fill-rule:nonzero;stroke:none"
             id="path261847"
             inkscape:connector-curvature="0" />
        </g>
      </g>
    </g>
    <g
       transform="matrix(0.35277777,0,0,-0.35277777,-618.58838,482.83149)"
       id="g261849">
      <g
         id="g261851"
         clip-path="url(#clipPath261855)">
        <g
           id="g261857"
           transform="translate(2065.4834,901.4863)">
          <path
             d="m 0,0 -0.009,-6.529 c 0,-0.119 -0.078,-0.235 -0.235,-0.326 -0.314,-0.186 -0.826,-0.186 -1.14,-0.002 -0.156,0.093 -0.237,0.211 -0.237,0.328 l 0.01,6.533 c 0,-0.121 0.082,-0.244 0.239,-0.334 0.314,-0.182 0.827,-0.182 1.141,0 C -0.079,-0.24 0,-0.119 0,0"
             style="fill:#8b5e3c;fill-opacity:1;fill-rule:nonzero;stroke:none"
             id="path261859"
             inkscape:connector-curvature="0" />
        </g>
      </g>
    </g>
    <g
       id="g261869"
       transform="matrix(0.35277777,0,0,-0.35277777,109.98557,164.69073)">
      <path
         d="m 0,0 c 0.315,-0.18 0.315,-0.475 0.003,-0.66 -0.314,-0.182 -0.826,-0.182 -1.141,0 -0.315,0.185 -0.32,0.48 -0.006,0.66 0.317,0.184 0.827,0.184 1.144,0"
         style="fill:#8b5e3c;fill-opacity:1;fill-rule:nonzero;stroke:none"
         id="path261871"
         inkscape:connector-curvature="0" />
    </g>
    <g
       id="g261873"
       transform="matrix(0.35277777,0,0,-0.35277777,111.92137,165.02765)">
      <path
         d="m 0,0 c -2.021,2.146 -4.036,4.295 -6.055,6.443 -2.03,-2.138 -4.06,-4.273 -6.088,-6.41 -3.086,-3.246 2.518,-6.9 8.368,-5.717 C -0.311,-4.973 2.356,-2.51 0,0"
         style="fill:#6d9114;fill-opacity:1;fill-rule:nonzero;stroke:none"
         id="path261875"
         inkscape:connector-curvature="0" />
    </g>
    <g
       id="g261877"
       transform="matrix(0.35277777,0,0,-0.35277777,111.59511,163.91968)">
      <path
         d="M 0,0 C -1.71,1.822 -3.42,3.643 -5.13,5.463 -6.85,3.652 -8.569,1.842 -10.292,0.031 -12.906,-2.723 -8.156,-5.816 -3.199,-4.818 -0.261,-4.215 2.002,-2.131 0,0"
         style="fill:#80b21f;fill-opacity:1;fill-rule:nonzero;stroke:none"
         id="path261879"
         inkscape:connector-curvature="0" />
    </g>
    <g
       id="g261881"
       transform="matrix(0.35277777,0,0,-0.35277777,111.26372,162.70289)">
      <path
         d="M 0,0 C -1.397,1.492 -2.793,2.982 -4.19,4.467 -5.599,2.986 -7.007,1.508 -8.411,0.025 -10.55,-2.221 -6.667,-4.754 -2.615,-3.934 -0.214,-3.441 1.636,-1.734 0,0"
         style="fill:#8ece29;fill-opacity:1;fill-rule:nonzero;stroke:none"
         id="path261883"
         inkscape:connector-curvature="0" />
    </g>
  </g>
</svg>
