<?xml version="1.0" encoding="UTF-8" standalone="no"?>
<!-- Created with Inkscape (http://www.inkscape.org/) -->

<svg
   xmlns:dc="http://purl.org/dc/elements/1.1/"
   xmlns:cc="http://creativecommons.org/ns#"
   xmlns:rdf="http://www.w3.org/1999/02/22-rdf-syntax-ns#"
   xmlns:svg="http://www.w3.org/2000/svg"
   xmlns="http://www.w3.org/2000/svg"
   xmlns:sodipodi="http://sodipodi.sourceforge.net/DTD/sodipodi-0.dtd"
   xmlns:inkscape="http://www.inkscape.org/namespaces/inkscape"
   width="54.048378mm"
   height="55.45525mm"
   viewBox="0 0 54.048378 55.45525"
   version="1.1"
   id="svg20317"
   inkscape:version="0.92.2 (5c3e80d, 2017-08-06)"
   sodipodi:docname="apartemant-20.svg">
  <defs
     id="defs20311">
    <clipPath
       clipPathUnits="userSpaceOnUse"
       id="clipPath263011">
      <path
         d="m 1110.93,925.017 h 11.4 v -6.6 h -11.4 z"
         id="path263009"
         inkscape:connector-curvature="0" />
    </clipPath>
    <clipPath
       clipPathUnits="userSpaceOnUse"
       id="clipPath262951">
      <path
         d="m 1148.19,901.626 h 11.39 v -6.601 h -11.39 z"
         id="path262949"
         inkscape:connector-curvature="0" />
    </clipPath>
    <clipPath
       clipPathUnits="userSpaceOnUse"
       id="clipPath262891">
      <path
         d="m 1185.44,892.096 h 11.39 v -6.601 h -11.39 z"
         id="path262889"
         inkscape:connector-curvature="0" />
    </clipPath>
    <clipPath
       clipPathUnits="userSpaceOnUse"
       id="clipPath262831">
      <path
         d="m 1231.93,918.375 h 11.4 v -6.6 h -11.4 z"
         id="path262829"
         inkscape:connector-curvature="0" />
    </clipPath>
    <clipPath
       clipPathUnits="userSpaceOnUse"
       id="clipPath262675">
      <path
         d="m 1147.74,947.68 h 93.05 v -46.42 h -93.05 z"
         id="path262673"
         inkscape:connector-curvature="0" />
    </clipPath>
  </defs>
  <sodipodi:namedview
     id="base"
     pagecolor="#ffffff"
     bordercolor="#666666"
     borderopacity="1.0"
     inkscape:pageopacity="0.0"
     inkscape:pageshadow="2"
     inkscape:zoom="0.98994949"
     inkscape:cx="-49.247526"
     inkscape:cy="218.52367"
     inkscape:document-units="mm"
     inkscape:current-layer="layer1"
     showgrid="false"
     fit-margin-top="0"
     fit-margin-left="0"
     fit-margin-right="0"
     fit-margin-bottom="0"
     inkscape:window-width="1360"
     inkscape:window-height="706"
     inkscape:window-x="-8"
     inkscape:window-y="-8"
     inkscape:window-maximized="1" />
  <metadata
     id="metadata20314">
    <rdf:RDF>
      <cc:Work
         rdf:about="">
        <dc:format>image/svg+xml</dc:format>
        <dc:type
           rdf:resource="http://purl.org/dc/dcmitype/StillImage" />
        <dc:title />
      </cc:Work>
    </rdf:RDF>
  </metadata>
  <g
     inkscape:label="Layer 1"
     inkscape:groupmode="layer"
     id="layer1"
     transform="translate(-2.4579543,-232.98666)">
    <g
       id="g1216"
       transform="matrix(1,0,0,0.86,0,36.436101)">
      <path
         d="m 55.802433,271.86997 c 0.934156,0.5394 0.939094,1.41323 0.01058,1.95121 L 32.96395,287.12479 c -0.927453,0.53904 -2.435578,0.53904 -3.369028,0 L 3.1641092,271.86574 c -0.93345,-0.5394 -0.9387417,-1.41323 -0.010583,-1.95263 l 22.8494158,-13.3029 c 0.927453,-0.53869 2.436636,-0.53869 3.370086,0 z"
         style="fill:#9ece4a;fill-opacity:1;fill-rule:nonzero;stroke:none;stroke-width:0.35277778"
         id="path262655"
         inkscape:connector-curvature="0" />
      <g
         transform="matrix(0.35277777,0,0,-0.35277777,49.010791,269.85459)"
         id="g262657">
        <path
           inkscape:connector-curvature="0"
           id="path262659"
           style="fill:#cecece;fill-opacity:1;fill-rule:nonzero;stroke:none"
           d="m 0,0 -0.007,-3.375 -47.181,-27.42 0.003,3.371 z" />
      </g>
      <g
         transform="matrix(0.35277777,0,0,-0.35277777,32.365123,279.52913)"
         id="g262661">
        <path
           inkscape:connector-curvature="0"
           id="path262663"
           style="fill:#e5e5e5;fill-opacity:1;fill-rule:nonzero;stroke:none"
           d="m 0,0 -0.004,-3.371 -61.098,35.482 0.004,3.377 z" />
      </g>
      <g
         transform="matrix(0.35277777,0,0,-0.35277777,49.010791,269.85459)"
         id="g262665">
        <path
           inkscape:connector-curvature="0"
           id="path262667"
           style="fill:#ffffff;fill-opacity:1;fill-rule:nonzero;stroke:none"
           d="m 0,0 -47.185,-27.424 -61.097,35.488 47.181,27.42 z" />
      </g>
      <g
         id="g262669"
         transform="matrix(0.35277777,0,0,-0.35277777,-384.58619,595.87916)">
        <g
           id="g262671" />
        <g
           id="g262683">
          <g
             style="opacity:0.130005"
             id="g262681"
             clip-path="url(#clipPath262675)">
            <g
               id="g262679"
               transform="translate(1240.793,922.6992)">
              <path
                 inkscape:connector-curvature="0"
                 id="path262677"
                 style="fill:#060606;fill-opacity:1;fill-rule:nonzero;stroke:none"
                 d="m 0,0 -37.488,-21.416 -22.809,-0.023 -32.76,18.687 50.242,27.732 z" />
            </g>
          </g>
        </g>
      </g>
      <g
         transform="matrix(0.35277777,0,0,-0.35277777,31.745011,277.89893)"
         id="g262685">
        <path
           inkscape:connector-curvature="0"
           id="path262687"
           style="fill:#ededed;fill-opacity:1;fill-rule:nonzero;stroke:none"
           d="M 0,0 -52.787,29.484 -52.891,98.537 -0.109,69.049 Z" />
      </g>
      <g
         transform="matrix(0.35277777,0,0,-0.35277777,38.875672,243.76421)"
         id="g262689">
        <path
           inkscape:connector-curvature="0"
           id="path262691"
           style="fill:#bababa;fill-opacity:1;fill-rule:nonzero;stroke:none"
           d="m 0,0 20.463,-4.172 0.099,-69.051 -40.775,-23.537 -0.109,69.049 z" />
      </g>
      <g
         transform="matrix(0.35277777,0,0,-0.35277777,40.316723,244.82805)"
         id="g262693">
        <path
           inkscape:connector-curvature="0"
           id="path262695"
           style="fill:#ce4238;fill-opacity:1;fill-rule:nonzero;stroke:none"
           d="M 0,0 -60.083,33.566 -36.799,28.816 23.283,-4.75 Z" />
      </g>
      <g
         transform="matrix(0.35277777,0,0,-0.35277777,32.159463,255.95708)"
         id="g262697">
        <path
           inkscape:connector-curvature="0"
           id="path262699"
           style="fill:#ef6354;fill-opacity:1;fill-rule:nonzero;stroke:none"
           d="M 0,0 -60.08,33.574 -36.96,65.113 23.123,31.547 Z" />
      </g>
      <g
         transform="matrix(0.35277777,0,0,-0.35277777,32.159463,255.95708)"
         id="g262701">
        <path
           inkscape:connector-curvature="0"
           id="path262703"
           style="fill:#b5302c;fill-opacity:1;fill-rule:nonzero;stroke:none"
           d="m 0,0 2.221,1.275 21.668,28.903 21.093,-4.217 1.424,0.836 -23.283,4.75 z" />
      </g>
      <g
         transform="matrix(0.35277777,0,0,-0.35277777,37.534473,264.93847)"
         id="g262705">
        <path
           inkscape:connector-curvature="0"
           id="path262707"
           style="fill:#ededed;fill-opacity:1;fill-rule:nonzero;stroke:none"
           d="m 0,0 0.051,-27.246 15.775,9.1 -0.055,27.25 z" />
      </g>
      <g
         transform="matrix(0.35277777,0,0,-0.35277777,42.577402,262.02805)"
         id="g262709">
        <path
           inkscape:connector-curvature="0"
           id="path262711"
           style="fill:#b5573a;fill-opacity:1;fill-rule:nonzero;stroke:none"
           d="m 0,0 -14.295,-8.25 0.051,-27.189 14.295,8.248 z" />
      </g>
      <g
         transform="matrix(0.35277777,0,0,-0.35277777,20.831952,261.92055)"
         id="g262713">
        <path
           inkscape:connector-curvature="0"
           id="path262715"
           style="fill:#a5b4b5;fill-opacity:1;fill-rule:nonzero;stroke:none"
           d="m 0,0 -0.05,-18.125 -15.778,9.104 0.05,18.125 z" />
      </g>
      <g
         transform="matrix(0.35277777,0,0,-0.35277777,18.398692,260.51839)"
         id="g262717">
        <path
           inkscape:connector-curvature="0"
           id="path262719"
           style="fill:#ffffff;fill-opacity:1;fill-rule:nonzero;stroke:none"
           d="m 0,0 -0.044,-18.125 -2.612,1.539 0.05,18.125 z" />
      </g>
      <g
         transform="matrix(0.35277777,0,0,-0.35277777,19.438082,268.38081)"
         id="g262721">
        <path
           inkscape:connector-curvature="0"
           id="path262723"
           style="fill:#e5e5e5;fill-opacity:1;fill-rule:nonzero;stroke:none"
           d="m 0,0 -12.213,7.129 c -0.582,0.334 -0.874,0.777 -0.874,1.223 L -13.09,6.859 c 0,-0.437 0.288,-0.879 0.873,-1.218 L 0,-1.48 c 1.159,-0.674 3.031,-0.67 4.191,0 V 0.01 C 3.035,-0.666 1.164,-0.666 0,0" />
      </g>
      <g
         transform="matrix(0.35277777,0,0,-0.35277777,20.916523,268.37734)"
         id="g262725">
        <path
           inkscape:connector-curvature="0"
           id="path262727"
           style="fill:#ffffff;fill-opacity:1;fill-rule:nonzero;stroke:none"
           d="m 0,0 c -1.156,-0.676 -3.027,-0.676 -4.191,-0.01 l -12.213,7.129 c -1.157,0.67 -1.162,1.758 -0.014,2.43 z" />
      </g>
      <g
         transform="matrix(0.35277777,0,0,-0.35277777,28.878333,266.42606)"
         id="g262729">
        <path
           inkscape:connector-curvature="0"
           id="path262731"
           style="fill:#a5b4b5;fill-opacity:1;fill-rule:nonzero;stroke:none"
           d="m 0,0 -0.059,-18.127 -15.773,9.102 0.055,18.13 z" />
      </g>
      <g
         transform="matrix(0.35277777,0,0,-0.35277777,26.423341,265.00253)"
         id="g262733">
        <path
           inkscape:connector-curvature="0"
           id="path262735"
           style="fill:#ffffff;fill-opacity:1;fill-rule:nonzero;stroke:none"
           d="m 0,0 -0.041,-18.131 -2.608,1.539 0.038,18.127 z" />
      </g>
      <g
         transform="matrix(0.35277777,0,0,-0.35277777,27.482711,272.90627)"
         id="g262737">
        <path
           inkscape:connector-curvature="0"
           id="path262739"
           style="fill:#e5e5e5;fill-opacity:1;fill-rule:nonzero;stroke:none"
           d="m 0,0 -12.205,7.131 c -0.585,0.336 -0.881,0.775 -0.881,1.219 l -0.003,-1.489 c 0,-0.439 0.294,-0.882 0.879,-1.216 L 0,-1.488 c 1.157,-0.658 3.036,-0.658 4.196,0.004 v 1.49 C 3.042,-0.664 1.165,-0.67 0,0" />
      </g>
      <g
         transform="matrix(0.35277777,0,0,-0.35277777,28.963082,272.90423)"
         id="g262741">
        <path
           inkscape:connector-curvature="0"
           id="path262743"
           style="fill:#ffffff;fill-opacity:1;fill-rule:nonzero;stroke:none"
           d="m 0,0 c -1.154,-0.67 -3.031,-0.676 -4.196,-0.006 l -12.205,7.131 c -1.165,0.664 -1.165,1.752 -0.016,2.428 z" />
      </g>
      <g
         transform="matrix(0.35277777,0,0,-0.35277777,20.831952,251.29311)"
         id="g262745">
        <path
           inkscape:connector-curvature="0"
           id="path262747"
           style="fill:#a5b4b5;fill-opacity:1;fill-rule:nonzero;stroke:none"
           d="m 0,0 -0.05,-18.121 -15.778,9.101 0.05,18.125 z" />
      </g>
      <g
         transform="matrix(0.35277777,0,0,-0.35277777,18.398692,249.89027)"
         id="g262749">
        <path
           inkscape:connector-curvature="0"
           id="path262751"
           style="fill:#ffffff;fill-opacity:1;fill-rule:nonzero;stroke:none"
           d="m 0,0 -0.044,-18.121 -2.612,1.535 0.05,18.129 z" />
      </g>
      <g
         transform="matrix(0.35277777,0,0,-0.35277777,19.438082,257.7499)"
         id="g262753">
        <path
           inkscape:connector-curvature="0"
           id="path262755"
           style="fill:#e5e5e5;fill-opacity:1;fill-rule:nonzero;stroke:none"
           d="m 0,0 -12.213,7.127 c -0.582,0.334 -0.874,0.773 -0.874,1.221 L -13.09,6.855 c 0,-0.439 0.288,-0.884 0.873,-1.218 L 0,-1.484 c 1.159,-0.674 3.031,-0.668 4.191,0 V 0 C 3.035,-0.67 1.164,-0.67 0,0" />
      </g>
      <g
         transform="matrix(0.35277777,0,0,-0.35277777,20.916523,257.7499)"
         id="g262757">
        <path
           inkscape:connector-curvature="0"
           id="path262759"
           style="fill:#ffffff;fill-opacity:1;fill-rule:nonzero;stroke:none"
           d="m 0,0 c -1.156,-0.67 -3.027,-0.67 -4.191,0 l -12.213,7.127 c -1.157,0.668 -1.162,1.758 -0.014,2.424 z" />
      </g>
      <g
         transform="matrix(0.35277777,0,0,-0.35277777,28.878333,255.79653)"
         id="g262761">
        <path
           inkscape:connector-curvature="0"
           id="path262763"
           style="fill:#a5b4b5;fill-opacity:1;fill-rule:nonzero;stroke:none"
           d="m 0,0 -0.059,-18.129 -15.773,9.106 0.055,18.128 z" />
      </g>
      <g
         transform="matrix(0.35277777,0,0,-0.35277777,26.423341,254.37443)"
         id="g262765">
        <path
           inkscape:connector-curvature="0"
           id="path262767"
           style="fill:#ffffff;fill-opacity:1;fill-rule:nonzero;stroke:none"
           d="m 0,0 -0.041,-18.125 -2.608,1.539 0.038,18.123 z" />
      </g>
      <g
         transform="matrix(0.35277777,0,0,-0.35277777,27.482711,262.27745)"
         id="g262769">
        <path
           inkscape:connector-curvature="0"
           id="path262771"
           style="fill:#e5e5e5;fill-opacity:1;fill-rule:nonzero;stroke:none"
           d="m 0,0 -12.205,7.133 c -0.585,0.336 -0.881,0.769 -0.881,1.221 l -0.003,-1.489 c 0,-0.441 0.294,-0.885 0.879,-1.219 L 0,-1.48 c 1.157,-0.67 3.036,-0.67 4.196,0 V 0.008 C 3.042,-0.662 1.165,-0.672 0,0" />
      </g>
      <g
         transform="matrix(0.35277777,0,0,-0.35277777,28.963082,262.2747)"
         id="g262773">
        <path
           inkscape:connector-curvature="0"
           id="path262775"
           style="fill:#ffffff;fill-opacity:1;fill-rule:nonzero;stroke:none"
           d="m 0,0 c -1.154,-0.67 -3.031,-0.68 -4.196,-0.008 l -12.205,7.133 c -1.165,0.666 -1.165,1.756 -0.016,2.428 z" />
      </g>
      <g
         transform="matrix(0.35277777,0,0,-0.35277777,39.919842,252.34113)"
         id="g262777">
        <path
           inkscape:connector-curvature="0"
           id="path262779"
           style="fill:#8a9a9b;fill-opacity:1;fill-rule:nonzero;stroke:none"
           d="M 0,0 0.052,-18.121 15.828,-9.02 15.779,9.105 Z" />
      </g>
      <g
         transform="matrix(0.35277777,0,0,-0.35277777,42.354173,250.93897)"
         id="g262781">
        <path
           inkscape:connector-curvature="0"
           id="path262783"
           style="fill:#ffffff;fill-opacity:1;fill-rule:nonzero;stroke:none"
           d="M 0,0 0.047,-18.117 2.654,-16.586 2.605,1.539 Z" />
      </g>
      <g
         transform="matrix(0.35277777,0,0,-0.35277777,41.315123,258.80069)"
         id="g262785">
        <path
           inkscape:connector-curvature="0"
           id="path262787"
           style="fill:#a3a3a3;fill-opacity:1;fill-rule:nonzero;stroke:none"
           d="m 0,0 12.209,7.127 c 0.584,0.34 0.873,0.779 0.873,1.225 l 0.006,-1.489 c 0,-0.439 -0.291,-0.884 -0.874,-1.224 L 0,-1.482 c -1.16,-0.67 -3.035,-0.67 -4.193,0 V 0.006 C -3.045,-0.67 -1.168,-0.67 0,0" />
      </g>
      <g
         transform="matrix(0.35277777,0,0,-0.35277777,39.835792,258.7986)"
         id="g262789">
        <path
           inkscape:connector-curvature="0"
           id="path262791"
           style="fill:#ededed;fill-opacity:1;fill-rule:nonzero;stroke:none"
           d="m 0,0 c 1.148,-0.676 3.025,-0.676 4.193,-0.006 l 12.209,7.127 c 1.157,0.674 1.162,1.758 0.015,2.434 z" />
      </g>
      <g
         transform="matrix(0.35277777,0,0,-0.35277777,32.876711,256.28644)"
         id="g262793">
        <path
           inkscape:connector-curvature="0"
           id="path262795"
           style="fill:#8a9a9b;fill-opacity:1;fill-rule:nonzero;stroke:none"
           d="m 0,0 0.059,-18.123 15.767,9.098 -0.051,18.13 z" />
      </g>
      <g
         transform="matrix(0.35277777,0,0,-0.35277777,35.330991,254.86293)"
         id="g262797">
        <path
           inkscape:connector-curvature="0"
           id="path262799"
           style="fill:#ffffff;fill-opacity:1;fill-rule:nonzero;stroke:none"
           d="M 0,0 0.044,-18.129 2.652,-16.59 2.605,1.535 Z" />
      </g>
      <g
         transform="matrix(0.35277777,0,0,-0.35277777,34.271282,262.76666)"
         id="g262801">
        <path
           inkscape:connector-curvature="0"
           id="path262803"
           style="fill:#a3a3a3;fill-opacity:1;fill-rule:nonzero;stroke:none"
           d="m 0,0 12.207,7.131 c 0.584,0.336 0.875,0.775 0.875,1.219 l 0.003,-1.489 c 0,-0.437 -0.288,-0.881 -0.872,-1.216 L 0,-1.484 c -1.162,-0.668 -3.035,-0.668 -4.193,0 v 1.49 C -3.044,-0.664 -1.169,-0.676 0,0" />
      </g>
      <g
         transform="matrix(0.35277777,0,0,-0.35277777,32.791941,262.7646)"
         id="g262805">
        <path
           inkscape:connector-curvature="0"
           id="path262807"
           style="fill:#ededed;fill-opacity:1;fill-rule:nonzero;stroke:none"
           d="M 0,0 C 1.149,-0.67 3.024,-0.682 4.193,-0.006 L 16.4,7.125 c 1.164,0.666 1.164,1.76 0.016,2.43 z" />
      </g>
      <g
         transform="matrix(0.35277777,0,0,-0.35277777,38.141501,269.32614)"
         id="g262809">
        <path
           inkscape:connector-curvature="0"
           id="path262811"
           style="fill:#d6d6d6;fill-opacity:1;fill-rule:nonzero;stroke:none"
           d="m 0,0 c -0.098,0.057 -0.229,0.047 -0.384,-0.037 -0.295,-0.172 -0.537,-0.594 -0.537,-0.938 0,-0.166 0.058,-0.287 0.157,-0.349 l 0.362,-0.205 c -0.105,0.056 -0.157,0.177 -0.164,0.349 0,0.344 0.243,0.76 0.541,0.932 0.152,0.086 0.283,0.096 0.388,0.039 z" />
      </g>
      <g
         transform="matrix(0.35277777,0,0,-0.35277777,38.132532,269.41363)"
         id="g262813">
        <path
           inkscape:connector-curvature="0"
           id="path262815"
           style="fill:#757575;fill-opacity:1;fill-rule:nonzero;stroke:none"
           d="m 0,0 c 0.3,0.174 0.539,0.033 0.539,-0.305 0.005,-0.34 -0.235,-0.765 -0.532,-0.933 -0.299,-0.178 -0.54,-0.039 -0.548,0.306 0,0.344 0.243,0.76 0.541,0.932" />
      </g>
      <g
         transform="matrix(0.35277777,0,0,-0.35277777,38.987951,269.38881)"
         id="g262817">
        <path
           inkscape:connector-curvature="0"
           id="path262819"
           style="fill:#757575;fill-opacity:1;fill-rule:nonzero;stroke:none"
           d="M 0,0 -1.786,-1.037 -2.572,-0.58 -2.576,-0.871 -1.786,-1.326 0,-0.289 c 0.052,0.025 0.073,0.066 0.073,0.105 V 0.104 C 0.073,0.068 0.052,0.033 0,0" />
      </g>
      <g
         transform="matrix(0.35277777,0,0,-0.35277777,38.986231,269.31166)"
         id="g262821">
        <path
           inkscape:connector-curvature="0"
           id="path262823"
           style="fill:#d6d6d6;fill-opacity:1;fill-rule:nonzero;stroke:none"
           d="m 0,0 c 0.105,-0.064 0.105,-0.162 0.005,-0.219 l -1.786,-1.037 -0.786,0.457 0.374,0.213 0.412,-0.232 L -0.371,0 C -0.273,0.064 -0.105,0.064 0,0" />
      </g>
      <g
         id="g262825"
         transform="matrix(0.35277777,0,0,-0.35277777,-384.58619,595.87916)">
        <g
           id="g262827" />
        <g
           id="g262839">
          <g
             style="opacity:0.19000202"
             id="g262837"
             clip-path="url(#clipPath262831)">
            <g
               id="g262835"
               transform="translate(1241.6455,917.4102)">
              <path
                 inkscape:connector-curvature="0"
                 id="path262833"
                 style="fill:#181816;fill-opacity:1;fill-rule:nonzero;stroke:none"
                 d="M 0,0 C 2.229,-1.289 2.249,-3.381 0.027,-4.674 -2.19,-5.959 -5.795,-5.953 -8.025,-4.668 -10.258,-3.381 -10.278,-1.289 -8.059,0 -5.839,1.289 -2.229,1.283 0,0" />
            </g>
          </g>
        </g>
      </g>
      <g
         transform="matrix(0.35277777,0,0,-0.35277777,51.35275,272.90698)"
         id="g262841">
        <path
           inkscape:connector-curvature="0"
           id="path262843"
           style="fill:#938548;fill-opacity:1;fill-rule:nonzero;stroke:none"
           d="M 0,0 C 0.02,-0.469 0.801,-0.398 0.803,0.041 L 0.81,8.322 C 0.807,8.561 0.629,8.756 0.404,8.756 0.188,8.756 0.003,8.561 0.009,8.322 L -0.005,2.105 C -0.005,2.088 0,2.068 0,2.051 Z" />
      </g>
      <g
         transform="matrix(0.35277777,0,0,-0.35277777,51.939093,270.95361)"
         id="g262845">
        <path
           inkscape:connector-curvature="0"
           id="path262847"
           style="fill:#938548;fill-opacity:1;fill-rule:nonzero;stroke:none"
           d="m 0,0 v -1.434 c 0.02,-0.611 -0.054,-0.775 -0.474,-1.072 l -0.774,-0.394 0.215,-0.434 0.788,0.402 C 0.43,-2.488 0.483,-2.01 0.483,-1.43 V 0 Z" />
      </g>
      <g
         transform="matrix(0.35277777,0,0,-0.35277777,50.993764,271.72048)"
         id="g262849">
        <path
           inkscape:connector-curvature="0"
           id="path262851"
           style="fill:#938548;fill-opacity:1;fill-rule:nonzero;stroke:none"
           d="M 0,0 V 1.479 H -0.502 V 0 c 0,-0.602 0.056,-1.098 0.765,-1.559 l 0.804,-0.406 0.225,0.447 -0.791,0.395 C 0.054,-0.805 -0.021,-0.639 0,0" />
      </g>
      <g
         transform="matrix(0.35277777,0,0,-0.35277777,53.126305,269.81532)"
         id="g262853">
        <path
           inkscape:connector-curvature="0"
           id="path262855"
           style="fill:#498c44;fill-opacity:1;fill-rule:nonzero;stroke:none"
           d="m 0,0 c 0,-2.248 -1.824,-4.072 -4.07,-4.072 -2.252,0 -4.075,1.824 -4.075,4.072 0,2.248 1.823,4.072 4.075,4.072 C -1.824,4.072 0,2.248 0,0" />
      </g>
      <g
         transform="matrix(0.35277777,0,0,-0.35277777,54.350691,269.93867)"
         id="g262857">
        <path
           inkscape:connector-curvature="0"
           id="path262859"
           style="fill:#4b6d0f;fill-opacity:1;fill-rule:nonzero;stroke:none"
           d="m 0,0 c 0,-2.721 -2.207,-4.922 -4.925,-4.922 -2.721,0 -4.925,2.201 -4.925,4.922 0,2.723 2.204,4.926 4.925,4.926 C -2.207,4.926 0,2.723 0,0" />
      </g>
      <g
         transform="matrix(0.35277777,0,0,-0.35277777,54.33688,268.65983)"
         id="g262861">
        <path
           inkscape:connector-curvature="0"
           id="path262863"
           style="fill:#4b6d0f;fill-opacity:1;fill-rule:nonzero;stroke:none"
           d="m 0,0 c 0,-2.08 -1.683,-3.764 -3.764,-3.764 -2.084,0 -3.775,1.684 -3.775,3.764 0,2.082 1.691,3.771 3.775,3.771 C -1.683,3.771 0,2.082 0,0" />
      </g>
      <g
         transform="matrix(0.35277777,0,0,-0.35277777,53.333342,267.48165)"
         id="g262865">
        <path
           inkscape:connector-curvature="0"
           id="path262867"
           style="fill:#4b6d0f;fill-opacity:1;fill-rule:nonzero;stroke:none"
           d="m 0,0 c 0,-2.053 -1.664,-3.717 -3.717,-3.717 -2.052,0 -3.716,1.664 -3.716,3.717 0,2.049 1.664,3.715 3.716,3.715 C -1.664,3.715 0,2.049 0,0" />
      </g>
      <g
         transform="matrix(0.35277777,0,0,-0.35277777,51.451969,268.77009)"
         id="g262869">
        <path
           inkscape:connector-curvature="0"
           id="path262871"
           style="fill:#4b6d0f;fill-opacity:1;fill-rule:nonzero;stroke:none"
           d="m 0,0 c 0,-2.652 -2.146,-4.801 -4.797,-4.801 -2.654,0 -4.801,2.149 -4.801,4.801 0,2.65 2.147,4.803 4.801,4.803 C -2.146,4.803 0,2.65 0,0" />
      </g>
      <g
         transform="matrix(0.35277777,0,0,-0.35277777,51.78582,267.74964)"
         id="g262873">
        <path
           inkscape:connector-curvature="0"
           id="path262875"
           style="fill:#4b6d0f;fill-opacity:1;fill-rule:nonzero;stroke:none"
           d="m 0,0 c 0,-1.992 -1.613,-3.604 -3.604,-3.604 -1.995,0 -3.606,1.612 -3.606,3.604 0,1.992 1.611,3.607 3.606,3.607 C -1.613,3.607 0,1.992 0,0" />
      </g>
      <g
         transform="matrix(0.35277777,0,0,-0.35277777,52.117555,270.19775)"
         id="g262877">
        <path
           inkscape:connector-curvature="0"
           id="path262879"
           style="fill:#4b6d0f;fill-opacity:1;fill-rule:nonzero;stroke:none"
           d="m 0,0 c 0,-2.619 -2.122,-4.74 -4.736,-4.74 -2.618,0 -4.738,2.121 -4.738,4.74 0,2.611 2.12,4.734 4.738,4.734 C -2.122,4.734 0,2.611 0,0" />
      </g>
      <g
         transform="matrix(0.35277777,0,0,-0.35277777,53.274789,268.70669)"
         id="g262881">
        <path
           inkscape:connector-curvature="0"
           id="path262883"
           style="fill:#71991c;fill-opacity:1;fill-rule:nonzero;stroke:none"
           d="m 0,0 c 0,1.805 -1.463,3.266 -3.266,3.266 -0.37,0 -0.729,-0.069 -1.065,-0.18 -0.368,0.852 -1.213,1.443 -2.199,1.443 -1.329,0 -2.408,-1.076 -2.408,-2.406 0,-0.043 0.004,-0.092 0.005,-0.139 -1.266,-0.437 -2.171,-1.64 -2.171,-3.052 0,-1.786 1.446,-3.231 3.231,-3.231 0.284,0 0.561,0.035 0.823,0.104 0.252,-0.924 1.098,-1.6 2.1,-1.6 0.881,0 1.641,0.525 1.981,1.281 0.009,-0.002 0.018,-0.002 0.028,-0.002 1.081,0 1.96,0.87 1.978,1.946 v 0.256 C -0.367,-1.727 0,-0.904 0,0" />
      </g>
      <g
         id="g262885"
         transform="matrix(0.35277777,0,0,-0.35277777,-384.58619,595.87916)">
        <g
           id="g262887" />
        <g
           id="g262899">
          <g
             style="opacity:0.19000202"
             id="g262897"
             clip-path="url(#clipPath262891)">
            <g
               id="g262895"
               transform="translate(1195.1504,891.1328)">
              <path
                 inkscape:connector-curvature="0"
                 id="path262893"
                 style="fill:#181816;fill-opacity:1;fill-rule:nonzero;stroke:none"
                 d="M 0,0 C 2.23,-1.291 2.25,-3.383 0.029,-4.676 -2.19,-5.963 -5.798,-5.955 -8.026,-4.67 -10.256,-3.383 -10.274,-1.291 -8.06,0 -5.839,1.287 -2.229,1.281 0,0" />
            </g>
          </g>
        </g>
      </g>
      <g
         transform="matrix(0.35277777,0,0,-0.35277777,34.950653,282.1784)"
         id="g262901">
        <path
           inkscape:connector-curvature="0"
           id="path262903"
           style="fill:#938548;fill-opacity:1;fill-rule:nonzero;stroke:none"
           d="M 0,0 C 0.02,-0.469 0.799,-0.4 0.802,0.045 L 0.811,8.324 C 0.807,8.563 0.629,8.756 0.404,8.756 0.185,8.756 0.002,8.563 0.007,8.322 L -0.008,2.107 C -0.008,2.092 -0.002,2.072 0,2.055 Z" />
      </g>
      <g
         transform="matrix(0.35277777,0,0,-0.35277777,35.536652,280.22572)"
         id="g262905">
        <path
           inkscape:connector-curvature="0"
           id="path262907"
           style="fill:#938548;fill-opacity:1;fill-rule:nonzero;stroke:none"
           d="m 0,0 v -1.432 c 0.019,-0.609 -0.052,-0.775 -0.472,-1.072 l -0.778,-0.394 0.217,-0.432 0.788,0.4 c 0.676,0.444 0.728,0.922 0.728,1.502 V 0 Z" />
      </g>
      <g
         transform="matrix(0.35277777,0,0,-0.35277777,34.591002,280.99122)"
         id="g262909">
        <path
           inkscape:connector-curvature="0"
           id="path262911"
           style="fill:#938548;fill-opacity:1;fill-rule:nonzero;stroke:none"
           d="M 0,0 V 1.475 H -0.5 V 0 c 0,-0.6 0.055,-1.098 0.764,-1.561 l 0.805,-0.406 0.222,0.449 -0.79,0.395 C 0.056,-0.805 -0.021,-0.639 0,0" />
      </g>
      <g
         transform="matrix(0.35277777,0,0,-0.35277777,36.724181,279.08609)"
         id="g262913">
        <path
           inkscape:connector-curvature="0"
           id="path262915"
           style="fill:#498c44;fill-opacity:1;fill-rule:nonzero;stroke:none"
           d="m 0,0 c 0,-2.25 -1.824,-4.072 -4.074,-4.072 -2.248,0 -4.073,1.822 -4.073,4.072 0,2.248 1.825,4.072 4.073,4.072 C -1.824,4.072 0,2.248 0,0" />
      </g>
      <g
         transform="matrix(0.35277777,0,0,-0.35277777,37.948572,279.20941)"
         id="g262917">
        <path
           inkscape:connector-curvature="0"
           id="path262919"
           style="fill:#4b6d0f;fill-opacity:1;fill-rule:nonzero;stroke:none"
           d="m 0,0 c 0,-2.719 -2.208,-4.922 -4.928,-4.922 -2.717,0 -4.922,2.203 -4.922,4.922 0,2.721 2.205,4.926 4.922,4.926 C -2.208,4.926 0,2.721 0,0" />
      </g>
      <g
         transform="matrix(0.35277777,0,0,-0.35277777,37.934811,277.92922)"
         id="g262921">
        <path
           inkscape:connector-curvature="0"
           id="path262923"
           style="fill:#4b6d0f;fill-opacity:1;fill-rule:nonzero;stroke:none"
           d="m 0,0 c 0,-2.084 -1.684,-3.77 -3.766,-3.77 -2.082,0 -3.774,1.686 -3.774,3.77 0,2.078 1.692,3.766 3.774,3.766 C -1.684,3.766 0,2.078 0,0" />
      </g>
      <g
         transform="matrix(0.35277777,0,0,-0.35277777,36.930903,276.75307)"
         id="g262925">
        <path
           inkscape:connector-curvature="0"
           id="path262927"
           style="fill:#4b6d0f;fill-opacity:1;fill-rule:nonzero;stroke:none"
           d="m 0,0 c 0,-2.051 -1.665,-3.717 -3.718,-3.717 -2.051,0 -3.714,1.666 -3.714,3.717 0,2.049 1.663,3.715 3.714,3.715 C -1.665,3.715 0,2.049 0,0" />
      </g>
      <g
         transform="matrix(0.35277777,0,0,-0.35277777,35.049871,278.04154)"
         id="g262929">
        <path
           inkscape:connector-curvature="0"
           id="path262931"
           style="fill:#4b6d0f;fill-opacity:1;fill-rule:nonzero;stroke:none"
           d="M 0,0 C 0,-2.65 -2.148,-4.799 -4.798,-4.799 -7.451,-4.799 -9.6,-2.65 -9.6,0 c 0,2.652 2.149,4.803 4.802,4.803 C -2.148,4.803 0,2.652 0,0" />
      </g>
      <g
         transform="matrix(0.35277777,0,0,-0.35277777,35.383352,277.02109)"
         id="g262933">
        <path
           inkscape:connector-curvature="0"
           id="path262935"
           style="fill:#4b6d0f;fill-opacity:1;fill-rule:nonzero;stroke:none"
           d="m 0,0 c 0,-1.99 -1.613,-3.605 -3.604,-3.605 -1.993,0 -3.606,1.615 -3.606,3.605 0,1.994 1.613,3.607 3.606,3.607 C -1.613,3.607 0,1.994 0,0" />
      </g>
      <g
         transform="matrix(0.35277777,0,0,-0.35277777,35.714081,279.46849)"
         id="g262937">
        <path
           inkscape:connector-curvature="0"
           id="path262939"
           style="fill:#4b6d0f;fill-opacity:1;fill-rule:nonzero;stroke:none"
           d="m 0,0 c 0,-2.621 -2.119,-4.74 -4.733,-4.74 -2.619,0 -4.736,2.119 -4.736,4.74 0,2.611 2.117,4.734 4.736,4.734 C -2.119,4.734 0,2.611 0,0" />
      </g>
      <g
         transform="matrix(0.35277777,0,0,-0.35277777,36.873012,277.97814)"
         id="g262941">
        <path
           inkscape:connector-curvature="0"
           id="path262943"
           style="fill:#71991c;fill-opacity:1;fill-rule:nonzero;stroke:none"
           d="m 0,0 c 0,1.805 -1.463,3.268 -3.268,3.268 -0.37,0 -0.728,-0.067 -1.064,-0.18 -0.369,0.85 -1.213,1.441 -2.2,1.441 -1.328,0 -2.407,-1.076 -2.407,-2.404 0,-0.045 0.003,-0.094 0.004,-0.141 -1.266,-0.435 -2.172,-1.638 -2.172,-3.052 0,-1.786 1.447,-3.231 3.232,-3.231 0.287,0 0.562,0.037 0.822,0.106 0.254,-0.926 1.098,-1.6 2.1,-1.6 0.881,0 1.641,0.525 1.984,1.279 h 0.025 c 1.083,0 1.961,0.866 1.977,1.948 h 0.001 v 0.25 C -0.367,-1.725 0,-0.904 0,0" />
      </g>
      <g
         id="g262945"
         transform="matrix(0.35277777,0,0,-0.35277777,-384.58619,595.87916)">
        <g
           id="g262947" />
        <g
           id="g262959">
          <g
             style="opacity:0.19000202"
             id="g262957"
             clip-path="url(#clipPath262951)">
            <g
               id="g262955"
               transform="translate(1157.8965,900.6602)">
              <path
                 inkscape:connector-curvature="0"
                 id="path262953"
                 style="fill:#181816;fill-opacity:1;fill-rule:nonzero;stroke:none"
                 d="M 0,0 C 2.23,-1.287 2.25,-3.381 0.028,-4.674 -2.189,-5.959 -5.796,-5.953 -8.025,-4.668 -10.257,-3.381 -10.276,-1.287 -8.061,0 -5.838,1.289 -2.229,1.285 0,0" />
            </g>
          </g>
        </g>
      </g>
      <g
         transform="matrix(0.35277777,0,0,-0.35277777,21.808801,278.81666)"
         id="g262961">
        <path
           inkscape:connector-curvature="0"
           id="path262963"
           style="fill:#938548;fill-opacity:1;fill-rule:nonzero;stroke:none"
           d="M 0,0 C 0.019,-0.469 0.799,-0.396 0.8,0.043 L 0.809,8.324 C 0.806,8.564 0.627,8.758 0.402,8.758 0.182,8.758 0.002,8.564 0.006,8.322 L -0.009,2.107 C -0.009,2.09 -0.004,2.072 0,2.055 Z" />
      </g>
      <g
         transform="matrix(0.35277777,0,0,-0.35277777,22.394483,276.86329)"
         id="g262965">
        <path
           inkscape:connector-curvature="0"
           id="path262967"
           style="fill:#938548;fill-opacity:1;fill-rule:nonzero;stroke:none"
           d="m 0,0 v -1.43 c 0.018,-0.615 -0.052,-0.777 -0.473,-1.074 l -0.777,-0.394 0.216,-0.434 0.788,0.402 c 0.676,0.444 0.73,0.922 0.73,1.5 V 0 Z" />
      </g>
      <g
         transform="matrix(0.35277777,0,0,-0.35277777,21.449153,277.63022)"
         id="g262969">
        <path
           inkscape:connector-curvature="0"
           id="path262971"
           style="fill:#938548;fill-opacity:1;fill-rule:nonzero;stroke:none"
           d="M 0,0 V 1.477 H -0.502 V 0 c 0,-0.6 0.057,-1.094 0.763,-1.561 L 1.067,-1.963 1.29,-1.514 0.5,-1.121 C 0.054,-0.803 -0.024,-0.637 0,0" />
      </g>
      <g
         transform="matrix(0.35277777,0,0,-0.35277777,23.581663,275.72437)"
         id="g262973">
        <path
           inkscape:connector-curvature="0"
           id="path262975"
           style="fill:#498c44;fill-opacity:1;fill-rule:nonzero;stroke:none"
           d="m 0,0 c 0,-2.248 -1.825,-4.072 -4.073,-4.072 -2.249,0 -4.072,1.824 -4.072,4.072 0,2.246 1.823,4.072 4.072,4.072 C -1.825,4.072 0,2.246 0,0" />
      </g>
      <g
         transform="matrix(0.35277777,0,0,-0.35277777,24.805861,275.84769)"
         id="g262977">
        <path
           inkscape:connector-curvature="0"
           id="path262979"
           style="fill:#4b6d0f;fill-opacity:1;fill-rule:nonzero;stroke:none"
           d="m 0,0 c 0,-2.721 -2.207,-4.924 -4.926,-4.924 -2.719,0 -4.923,2.203 -4.923,4.924 0,2.721 2.204,4.926 4.923,4.926 C -2.207,4.926 0,2.721 0,0" />
      </g>
      <g
         transform="matrix(0.35277777,0,0,-0.35277777,24.792452,274.56819)"
         id="g262981">
        <path
           inkscape:connector-curvature="0"
           id="path262983"
           style="fill:#4b6d0f;fill-opacity:1;fill-rule:nonzero;stroke:none"
           d="m 0,0 c 0,-2.08 -1.685,-3.766 -3.765,-3.766 -2.084,0 -3.774,1.686 -3.774,3.766 0,2.08 1.69,3.77 3.774,3.77 C -1.685,3.77 0,2.08 0,0" />
      </g>
      <g
         transform="matrix(0.35277777,0,0,-0.35277777,23.788202,273.39066)"
         id="g262985">
        <path
           inkscape:connector-curvature="0"
           id="path262987"
           style="fill:#4b6d0f;fill-opacity:1;fill-rule:nonzero;stroke:none"
           d="m 0,0 c 0,-2.053 -1.664,-3.719 -3.716,-3.719 -2.052,0 -3.714,1.666 -3.714,3.719 0,2.049 1.662,3.715 3.714,3.715 C -1.664,3.715 0,2.049 0,0" />
      </g>
      <g
         transform="matrix(0.35277777,0,0,-0.35277777,21.907861,274.67844)"
         id="g262989">
        <path
           inkscape:connector-curvature="0"
           id="path262991"
           style="fill:#4b6d0f;fill-opacity:1;fill-rule:nonzero;stroke:none"
           d="m 0,0 c 0,-2.656 -2.149,-4.803 -4.8,-4.803 -2.652,0 -4.802,2.147 -4.802,4.803 0,2.648 2.15,4.799 4.802,4.799 C -2.149,4.799 0,2.648 0,0" />
      </g>
      <g
         transform="matrix(0.35277777,0,0,-0.35277777,22.241342,273.65866)"
         id="g262993">
        <path
           inkscape:connector-curvature="0"
           id="path262995"
           style="fill:#4b6d0f;fill-opacity:1;fill-rule:nonzero;stroke:none"
           d="m 0,0 c 0,-1.992 -1.613,-3.604 -3.605,-3.604 -1.994,0 -3.607,1.612 -3.607,3.604 0,1.994 1.613,3.607 3.607,3.607 C -1.613,3.607 0,1.994 0,0" />
      </g>
      <g
         transform="matrix(0.35277777,0,0,-0.35277777,22.571722,276.10677)"
         id="g262997">
        <path
           inkscape:connector-curvature="0"
           id="path262999"
           style="fill:#4b6d0f;fill-opacity:1;fill-rule:nonzero;stroke:none"
           d="m 0,0 c 0,-2.619 -2.119,-4.738 -4.733,-4.738 -2.618,0 -4.736,2.119 -4.736,4.738 0,2.611 2.118,4.732 4.736,4.732 C -2.119,4.732 0,2.611 0,0" />
      </g>
      <g
         transform="matrix(0.35277777,0,0,-0.35277777,23.730311,274.61643)"
         id="g263001">
        <path
           inkscape:connector-curvature="0"
           id="path263003"
           style="fill:#71991c;fill-opacity:1;fill-rule:nonzero;stroke:none"
           d="m 0,0 c 0,1.807 -1.462,3.268 -3.266,3.268 -0.371,0 -0.731,-0.067 -1.066,-0.18 -0.37,0.851 -1.213,1.443 -2.2,1.443 -1.328,0 -2.406,-1.074 -2.406,-2.408 0,-0.041 0.003,-0.092 0.003,-0.137 -1.265,-0.437 -2.17,-1.64 -2.17,-3.054 0,-1.786 1.445,-3.229 3.232,-3.229 0.283,0 0.561,0.035 0.823,0.104 0.253,-0.922 1.094,-1.6 2.097,-1.6 0.883,0 1.644,0.527 1.986,1.281 0.007,-0.002 0.014,-0.002 0.024,-0.002 1.081,0 1.96,0.869 1.977,1.948 h 0.001 v 0.253 C -0.366,-1.723 0,-0.902 0,0" />
      </g>
      <g
         id="g263005"
         transform="matrix(0.35277777,0,0,-0.35277777,-384.58619,595.87916)">
        <g
           id="g263007" />
        <g
           id="g263019">
          <g
             style="opacity:0.19000202"
             id="g263017"
             clip-path="url(#clipPath263011)">
            <g
               id="g263015"
               transform="translate(1120.6436,924.0527)">
              <path
                 inkscape:connector-curvature="0"
                 id="path263013"
                 style="fill:#181816;fill-opacity:1;fill-rule:nonzero;stroke:none"
                 d="M 0,0 C 2.23,-1.289 2.248,-3.383 0.027,-4.674 -2.191,-5.961 -5.797,-5.953 -8.027,-4.668 -10.256,-3.383 -10.278,-1.289 -8.061,0 -5.839,1.287 -2.23,1.283 0,0" />
            </g>
          </g>
        </g>
      </g>
      <g
         transform="matrix(0.35277777,0,0,-0.35277777,8.6659627,270.56431)"
         id="g263021">
        <path
           inkscape:connector-curvature="0"
           id="path263023"
           style="fill:#938548;fill-opacity:1;fill-rule:nonzero;stroke:none"
           d="m 0,0 c 0.021,-0.469 0.8,-0.398 0.802,0.043 l 0.01,8.281 C 0.807,8.563 0.629,8.758 0.404,8.758 0.185,8.758 0.002,8.563 0.007,8.324 L -0.006,2.109 C -0.006,2.092 -0.003,2.072 0,2.055 Z" />
      </g>
      <g
         transform="matrix(0.35277777,0,0,-0.35277777,9.2523111,268.61163)"
         id="g263025">
        <path
           inkscape:connector-curvature="0"
           id="path263027"
           style="fill:#938548;fill-opacity:1;fill-rule:nonzero;stroke:none"
           d="m 0,0 v -1.432 c 0.019,-0.611 -0.054,-0.773 -0.474,-1.07 l -0.777,-0.394 0.216,-0.434 0.788,0.4 c 0.676,0.446 0.73,0.922 0.73,1.5 V 0 Z" />
      </g>
      <g
         transform="matrix(0.35277777,0,0,-0.35277777,8.3067908,269.37712)"
         id="g263029">
        <path
           inkscape:connector-curvature="0"
           id="path263031"
           style="fill:#938548;fill-opacity:1;fill-rule:nonzero;stroke:none"
           d="M 0,0 V 1.477 H -0.502 V 0 c 0,-0.6 0.056,-1.098 0.765,-1.561 L 1.068,-1.967 1.29,-1.518 0.5,-1.121 C 0.053,-0.803 -0.023,-0.639 0,0" />
      </g>
      <g
         transform="matrix(0.35277777,0,0,-0.35277777,10.438962,267.47196)"
         id="g263033">
        <path
           inkscape:connector-curvature="0"
           id="path263035"
           style="fill:#498c44;fill-opacity:1;fill-rule:nonzero;stroke:none"
           d="m 0,0 c 0,-2.25 -1.824,-4.074 -4.072,-4.074 -2.249,0 -4.074,1.824 -4.074,4.074 0,2.248 1.825,4.07 4.074,4.07 C -1.824,4.07 0,2.248 0,0" />
      </g>
      <g
         transform="matrix(0.35277777,0,0,-0.35277777,11.663882,267.59531)"
         id="g263037">
        <path
           inkscape:connector-curvature="0"
           id="path263039"
           style="fill:#4b6d0f;fill-opacity:1;fill-rule:nonzero;stroke:none"
           d="m 0,0 c 0,-2.719 -2.207,-4.924 -4.927,-4.924 -2.718,0 -4.923,2.205 -4.923,4.924 0,2.721 2.205,4.926 4.923,4.926 C -2.207,4.926 0,2.721 0,0" />
      </g>
      <g
         transform="matrix(0.35277777,0,0,-0.35277777,11.649751,266.31581)"
         id="g263041">
        <path
           inkscape:connector-curvature="0"
           id="path263043"
           style="fill:#4b6d0f;fill-opacity:1;fill-rule:nonzero;stroke:none"
           d="m 0,0 c 0,-2.082 -1.682,-3.766 -3.764,-3.766 -2.084,0 -3.774,1.684 -3.774,3.766 0,2.078 1.69,3.768 3.774,3.768 C -1.682,3.768 0,2.078 0,0" />
      </g>
      <g
         transform="matrix(0.35277777,0,0,-0.35277777,10.645501,265.13966)"
         id="g263045">
        <path
           inkscape:connector-curvature="0"
           id="path263047"
           style="fill:#4b6d0f;fill-opacity:1;fill-rule:nonzero;stroke:none"
           d="m 0,0 c 0,-2.051 -1.663,-3.713 -3.716,-3.713 -2.051,0 -3.714,1.662 -3.714,3.713 0,2.051 1.663,3.719 3.714,3.719 C -1.663,3.719 0,2.051 0,0" />
      </g>
      <g
         transform="matrix(0.35277777,0,0,-0.35277777,8.7651629,266.42673)"
         id="g263049">
        <path
           inkscape:connector-curvature="0"
           id="path263051"
           style="fill:#4b6d0f;fill-opacity:1;fill-rule:nonzero;stroke:none"
           d="M 0,0 C 0,-2.654 -2.149,-4.801 -4.798,-4.801 -7.45,-4.801 -9.6,-2.654 -9.6,0 c 0,2.65 2.15,4.803 4.802,4.803 C -2.149,4.803 0,2.65 0,0" />
      </g>
      <g
         transform="matrix(0.35277777,0,0,-0.35277777,9.0986411,265.40699)"
         id="g263053">
        <path
           inkscape:connector-curvature="0"
           id="path263055"
           style="fill:#4b6d0f;fill-opacity:1;fill-rule:nonzero;stroke:none"
           d="m 0,0 c 0,-1.988 -1.613,-3.604 -3.604,-3.604 -1.994,0 -3.606,1.616 -3.606,3.604 0,1.994 1.612,3.607 3.606,3.607 C -1.613,3.607 0,1.994 0,0" />
      </g>
      <g
         transform="matrix(0.35277777,0,0,-0.35277777,9.4297407,267.85439)"
         id="g263057">
        <path
           inkscape:connector-curvature="0"
           id="path263059"
           style="fill:#4b6d0f;fill-opacity:1;fill-rule:nonzero;stroke:none"
           d="m 0,0 c 0,-2.621 -2.121,-4.74 -4.734,-4.74 -2.617,0 -4.736,2.119 -4.736,4.74 0,2.611 2.119,4.732 4.736,4.732 C -2.121,4.732 0,2.611 0,0" />
      </g>
      <g
         transform="matrix(0.35277777,0,0,-0.35277777,10.588513,266.36336)"
         id="g263061">
        <path
           inkscape:connector-curvature="0"
           id="path263063"
           style="fill:#71991c;fill-opacity:1;fill-rule:nonzero;stroke:none"
           d="m 0,0 c 0,1.805 -1.462,3.266 -3.268,3.266 -0.37,0 -0.729,-0.067 -1.066,-0.18 -0.368,0.852 -1.211,1.443 -2.2,1.443 -1.327,0 -2.405,-1.076 -2.405,-2.406 0,-0.043 10e-4,-0.092 0.004,-0.141 -1.266,-0.435 -2.172,-1.638 -2.172,-3.05 0,-1.787 1.446,-3.231 3.232,-3.231 0.285,0 0.562,0.035 0.822,0.102 0.255,-0.922 1.097,-1.598 2.099,-1.598 0.883,0 1.642,0.525 1.984,1.281 0.008,-0.004 0.015,-0.004 0.025,-0.004 1.08,0 1.96,0.87 1.978,1.95 v 0.252 C -0.368,-1.725 0,-0.906 0,0" />
      </g>
    </g>
  </g>
</svg>
