<?xml version="1.0" encoding="UTF-8" standalone="no"?>
<!-- Created with Inkscape (http://www.inkscape.org/) -->

<svg
   xmlns:dc="http://purl.org/dc/elements/1.1/"
   xmlns:cc="http://creativecommons.org/ns#"
   xmlns:rdf="http://www.w3.org/1999/02/22-rdf-syntax-ns#"
   xmlns:svg="http://www.w3.org/2000/svg"
   xmlns="http://www.w3.org/2000/svg"
   xmlns:sodipodi="http://sodipodi.sourceforge.net/DTD/sodipodi-0.dtd"
   xmlns:inkscape="http://www.inkscape.org/namespaces/inkscape"
   width="59.793606mm"
   height="48.51033mm"
   viewBox="0 0 59.793606 48.51033"
   version="1.1"
   id="svg12623"
   inkscape:version="0.92.3 (2405546, 2018-03-11)"
   sodipodi:docname="apartemant-9.svg">
  <defs
     id="defs12617">
    <clipPath
       clipPathUnits="userSpaceOnUse"
       id="clipPath267055">
      <path
         d="m 2034,807.051 h 72.14 V 748.148 H 2034 Z"
         id="path267053"
         inkscape:connector-curvature="0" />
    </clipPath>
    <clipPath
       clipPathUnits="userSpaceOnUse"
       id="clipPath266827">
      <path
         d="m 2103.22,733.129 h 57.16 v -37.426 h -57.16 z"
         id="path266825"
         inkscape:connector-curvature="0" />
    </clipPath>
  </defs>
  <sodipodi:namedview
     id="base"
     pagecolor="#ffffff"
     bordercolor="#666666"
     borderopacity="1.0"
     inkscape:pageopacity="0.0"
     inkscape:pageshadow="2"
     inkscape:zoom="0.35"
     inkscape:cx="-697.00421"
     inkscape:cy="417.38734"
     inkscape:document-units="mm"
     inkscape:current-layer="layer1"
     showgrid="false"
     fit-margin-top="0"
     fit-margin-left="0"
     fit-margin-right="0"
     fit-margin-bottom="0"
     inkscape:window-width="1366"
     inkscape:window-height="716"
     inkscape:window-x="-8"
     inkscape:window-y="-8"
     inkscape:window-maximized="1" />
  <metadata
     id="metadata12620">
    <rdf:RDF>
      <cc:Work
         rdf:about="">
        <dc:format>image/svg+xml</dc:format>
        <dc:type
           rdf:resource="http://purl.org/dc/dcmitype/StillImage" />
        <dc:title></dc:title>
      </cc:Work>
    </rdf:RDF>
  </metadata>
  <g
     inkscape:label="Layer 1"
     inkscape:groupmode="layer"
     id="layer1"
     transform="translate(-106.93058,-210.75674)">
    <g
       id="g266813"
       transform="matrix(0.35277777,0,0,-0.35277777,165.55096,244.95752)">
      <path
         d="m 0,0 -58.124,-34.24 c -4.449,-2.586 -11.692,-2.586 -16.169,0 l -88.489,51.095 c -2.254,1.305 -3.377,3.01 -3.373,4.715 l -0.013,-4.382 c -0.005,-1.7 1.118,-3.413 3.371,-4.713 l 88.493,-51.098 c 4.479,-2.586 11.715,-2.586 16.166,0 l 58.126,34.24 C 2.204,-3.1 3.31,-1.418 3.317,0.268 l 0.008,4.38 C 3.32,2.965 2.212,1.285 0,0"
         style="fill:#94b226;fill-opacity:1;fill-rule:nonzero;stroke:none"
         id="path266815"
         inkscape:connector-curvature="0" />
    </g>
    <g
       id="g266817"
       transform="matrix(0.35277777,0,0,-0.35277777,165.5327,241.65369)">
      <path
         d="m 0,0 c 4.482,-2.588 4.507,-6.779 0.052,-9.365 l -58.124,-34.24 c -4.449,-2.586 -11.693,-2.586 -16.169,0 L -162.73,7.49 c -4.476,2.588 -4.504,6.78 -0.053,9.365 l 58.126,34.241 c 4.45,2.59 11.692,2.59 16.168,0 z"
         style="fill:#9ece4a;fill-opacity:1;fill-rule:nonzero;stroke:none"
         id="path266819"
         inkscape:connector-curvature="0" />
    </g>
    <g
       transform="matrix(0.35277777,0,0,-0.35277777,-599.15891,498.13001)"
       id="g266821">
      <g
         id="g266823" />
      <g
         id="g266835">
        <g
           clip-path="url(#clipPath266827)"
           id="g266833"
           style="opacity:0.19999701">
          <g
             transform="translate(2103.2217,695.7031)"
             id="g266831">
            <path
               d="M 0,0 H 14.335 L 57.156,24.094 35.37,37.426 Z"
               style="fill:#231f20;fill-opacity:1;fill-rule:nonzero;stroke:none"
               id="path266829"
               inkscape:connector-curvature="0" />
          </g>
        </g>
      </g>
    </g>
    <g
       id="g266837"
       transform="matrix(0.35277777,0,0,-0.35277777,129.9962,212.21808)">
      <path
         d="m 0,0 -0.134,-46.996 -36.139,-20.852 0.132,46.996 z"
         style="fill:#855d22;fill-opacity:1;fill-rule:nonzero;stroke:none"
         id="path266839"
         inkscape:connector-curvature="0" />
    </g>
    <g
       id="g266841"
       transform="matrix(0.35277777,0,0,-0.35277777,156.03871,227.14709)">
      <path
         d="m 0,0 -0.133,-46.992 -73.822,42.314 0.134,46.996 z"
         style="fill:#c88c33;fill-opacity:1;fill-rule:nonzero;stroke:none"
         id="path266843"
         inkscape:connector-curvature="0" />
    </g>
    <g
       id="g266845"
       transform="matrix(0.35277777,0,0,-0.35277777,156.16619,227.08507)">
      <path
         d="m 0,0 -36.502,-21.027 -73.821,42.318 36.14,20.852 z"
         style="fill:#e6e7e8;fill-opacity:1;fill-rule:nonzero;stroke:none"
         id="path266847"
         inkscape:connector-curvature="0" />
    </g>
    <g
       id="g266849"
       transform="matrix(0.35277777,0,0,-0.35277777,156.16619,227.08507)">
      <path
         d="m 0,0 -2.604,-2.35 -73.821,42.315 2.242,2.178 z"
         style="fill:#d1d3d4;fill-opacity:1;fill-rule:nonzero;stroke:none"
         id="path266851"
         inkscape:connector-curvature="0" />
    </g>
    <g
       id="g266853"
       transform="matrix(0.35277777,0,0,-0.35277777,129.97035,213.42871)">
      <path
         d="m 0,0 -33.014,-19.4 -3.053,1.98 36.14,20.852 z"
         style="fill:#bcbec0;fill-opacity:1;fill-rule:nonzero;stroke:none"
         id="path266855"
         inkscape:connector-curvature="0" />
    </g>
    <g
       id="g266857"
       transform="matrix(0.35277777,0,0,-0.35277777,156.03871,227.14709)">
      <path
         d="m 0,0 -0.133,-46.992 -36.142,-20.856 0.134,46.996 z"
         style="fill:#808080;fill-opacity:1;fill-rule:nonzero;stroke:none"
         id="path266859"
         inkscape:connector-curvature="0" />
    </g>
    <g
       id="g266861"
       transform="matrix(0.35277777,0,0,-0.35277777,143.28907,234.50304)">
      <path
         d="m 0,0 -0.135,-46.996 -73.819,42.318 0.133,46.996 z"
         style="fill:#c0c1c1;fill-opacity:1;fill-rule:nonzero;stroke:none"
         id="path266863"
         inkscape:connector-curvature="0" />
    </g>
    <g
       id="g266865"
       transform="matrix(0.35277777,0,0,-0.35277777,143.20261,235.96306)">
      <path
         d="m 0,0 -0.135,-46.885 -80.734,46.192 0.098,46.994 z"
         style="fill:#8e8e8e;fill-opacity:1;fill-rule:nonzero;stroke:none"
         id="path266867"
         inkscape:connector-curvature="0" />
    </g>
    <g
       id="g266869"
       transform="matrix(0.35277777,0,0,-0.35277777,143.20261,235.96306)">
      <path
         d="m 0,0 -0.135,-46.885 -52.239,29.678 0.135,46.996 z"
         style="fill:#e0e0e0;fill-opacity:1;fill-rule:nonzero;stroke:none"
         id="path266871"
         inkscape:connector-curvature="0" />
    </g>
    <g
       id="g266873"
       transform="matrix(0.35277777,0,0,-0.35277777,143.20261,235.96306)">
      <path
         d="m 0,0 -0.135,-21.322 -80.716,46.187 0.08,21.436 z"
         style="fill:#f9f04b;fill-opacity:1;fill-rule:nonzero;stroke:none"
         id="path266875"
         inkscape:connector-curvature="0" />
    </g>
    <g
       id="g266877"
       transform="matrix(0.35277777,0,0,-0.35277777,143.20261,244.02253)">
      <path
         d="m 0,0 -0.135,-1.188 -53.082,30.368 0.136,1.304 z"
         style="fill:#bcbec0;fill-opacity:1;fill-rule:nonzero;stroke:none"
         id="path266879"
         inkscape:connector-curvature="0" />
    </g>
    <g
       id="g266881"
       transform="matrix(0.35277777,0,0,-0.35277777,143.20261,244.98784)">
      <path
         d="m 0,0 -0.135,-1.193 -53.082,30.371 0.136,1.302 z"
         style="fill:#bcbec0;fill-opacity:1;fill-rule:nonzero;stroke:none"
         id="path266883"
         inkscape:connector-curvature="0" />
    </g>
    <g
       id="g266885"
       transform="matrix(0.35277777,0,0,-0.35277777,143.20261,245.95455)">
      <path
         d="m 0,0 -0.135,-1.189 -53.082,30.369 0.136,1.302 z"
         style="fill:#bcbec0;fill-opacity:1;fill-rule:nonzero;stroke:none"
         id="path266887"
         inkscape:connector-curvature="0" />
    </g>
    <g
       id="g266889"
       transform="matrix(0.35277777,0,0,-0.35277777,143.20261,246.91985)">
      <path
         d="m 0,0 -0.135,-1.193 -53.082,30.367 0.136,1.306 z"
         style="fill:#bcbec0;fill-opacity:1;fill-rule:nonzero;stroke:none"
         id="path266891"
         inkscape:connector-curvature="0" />
    </g>
    <g
       id="g266893"
       transform="matrix(0.35277777,0,0,-0.35277777,143.20261,247.88725)">
      <path
         d="m 0,0 -0.135,-1.189 -53.082,30.369 0.136,1.302 z"
         style="fill:#bcbec0;fill-opacity:1;fill-rule:nonzero;stroke:none"
         id="path266895"
         inkscape:connector-curvature="0" />
    </g>
    <g
       id="g266897"
       transform="matrix(0.35277777,0,0,-0.35277777,143.20261,248.85324)">
      <path
         d="m 0,0 -0.135,-1.191 -53.082,30.367 0.136,1.306 z"
         style="fill:#bcbec0;fill-opacity:1;fill-rule:nonzero;stroke:none"
         id="path266899"
         inkscape:connector-curvature="0" />
    </g>
    <g
       id="g266901"
       transform="matrix(0.35277777,0,0,-0.35277777,143.20261,249.81926)">
      <path
         d="m 0,0 -0.135,-1.189 -53.082,30.367 0.136,1.304 z"
         style="fill:#bcbec0;fill-opacity:1;fill-rule:nonzero;stroke:none"
         id="path266903"
         inkscape:connector-curvature="0" />
    </g>
    <g
       id="g266905"
       transform="matrix(0.35277777,0,0,-0.35277777,142.72477,250.45522)">
      <path
         d="m 0,0 0.244,-6.367 -79.759,46.754 0.019,6.295 z"
         style="fill:#bcbec0;fill-opacity:1;fill-rule:nonzero;stroke:none"
         id="path266907"
         inkscape:connector-curvature="0" />
    </g>
    <g
       id="g266909"
       transform="matrix(0.35277777,0,0,-0.35277777,158.57845,227.09195)">
      <path
         d="m 0,0 -0.133,-46.701 -43.783,-25.444 0.331,46.999 z"
         style="fill:#bcbec0;fill-opacity:1;fill-rule:nonzero;stroke:none"
         id="path266911"
         inkscape:connector-curvature="0" />
    </g>
    <g
       id="g266913"
       transform="matrix(0.35277777,0,0,-0.35277777,142.90117,234.19988)">
      <path
         d="M 0,0 36.142,20.855 -36.581,62.311 -72.722,41.459 Z M -36.334,66.453 44.439,20.148 0.854,-4.998 -79.996,41.303 Z"
         style="fill:#ffffff;fill-opacity:1;fill-rule:nonzero;stroke:none"
         id="path266915"
         inkscape:connector-curvature="0" />
    </g>
    <g
       id="g266917"
       transform="matrix(0.35277777,0,0,-0.35277777,116.32846,224.15396)">
      <path
         d="M 0,0 5.396,3.135 5.293,-33.691 -0.104,-36.828 Z"
         style="fill:#6f7070;fill-opacity:1;fill-rule:nonzero;stroke:none"
         id="path266919"
         inkscape:connector-curvature="0" />
    </g>
    <g
       id="g266921"
       transform="matrix(0.35277777,0,0,-0.35277777,114.69619,223.2121)">
      <path
         d="M 0,0 5.397,3.137 10.022,0.465 4.627,-2.67 Z"
         style="fill:#afb1b1;fill-opacity:1;fill-rule:nonzero;stroke:none"
         id="path266923"
         inkscape:connector-curvature="0" />
    </g>
    <g
       id="g266925"
       transform="matrix(0.35277777,0,0,-0.35277777,116.32846,224.15396)">
      <path
         d="m 0,0 -0.104,-36.828 -4.586,2.67 0.063,36.828 z"
         style="fill:#a6a8a9;fill-opacity:1;fill-rule:nonzero;stroke:none"
         id="path266927"
         inkscape:connector-curvature="0" />
    </g>
    <g
       id="g266929"
       transform="matrix(0.35277777,0,0,-0.35277777,142.84846,239.71133)">
      <path
         d="M 0,0 5.396,3.141 5.29,-33.688 -0.106,-36.824 Z"
         style="fill:#6f7070;fill-opacity:1;fill-rule:nonzero;stroke:none"
         id="path266931"
         inkscape:connector-curvature="0" />
    </g>
    <g
       id="g266933"
       transform="matrix(0.35277777,0,0,-0.35277777,141.21823,238.76876)">
      <path
         d="M 0,0 5.392,3.137 10.018,0.469 4.621,-2.672 Z"
         style="fill:#afb1b1;fill-opacity:1;fill-rule:nonzero;stroke:none"
         id="path266935"
         inkscape:connector-curvature="0" />
    </g>
    <g
       id="g266937"
       transform="matrix(0.35277777,0,0,-0.35277777,142.84846,239.71133)">
      <path
         d="m 0,0 -0.106,-36.824 -4.623,2.703 0.108,36.793 z"
         style="fill:#a6a8a9;fill-opacity:1;fill-rule:nonzero;stroke:none"
         id="path266939"
         inkscape:connector-curvature="0" />
    </g>
    <g
       id="g266941"
       transform="matrix(0.35277777,0,0,-0.35277777,158.57845,227.08507)">
      <path
         d="m 0,0 v -16.34 l -44.589,-24.431 0.133,16.369 z"
         style="fill:#d8d8d8;fill-opacity:1;fill-rule:nonzero;stroke:none"
         id="path266943"
         inkscape:connector-curvature="0" />
    </g>
    <g
       id="g266945"
       transform="matrix(0.35277777,0,0,-0.35277777,134.56095,234.85102)">
      <path
         d="M 0,0 5.396,3.139 5.293,-33.689 -0.104,-36.826 Z"
         style="fill:#6f7070;fill-opacity:1;fill-rule:nonzero;stroke:none"
         id="path266947"
         inkscape:connector-curvature="0" />
    </g>
    <g
       id="g266949"
       transform="matrix(0.35277777,0,0,-0.35277777,132.92902,233.90841)">
      <path
         d="M 0,0 5.399,3.137 10.022,0.467 4.626,-2.672 Z"
         style="fill:#afb1b1;fill-opacity:1;fill-rule:nonzero;stroke:none"
         id="path266951"
         inkscape:connector-curvature="0" />
    </g>
    <g
       id="g266953"
       transform="matrix(0.35277777,0,0,-0.35277777,134.56095,234.85102)">
      <path
         d="m 0,0 -0.104,-36.826 -4.625,2.699 0.103,36.799 z"
         style="fill:#a6a8a9;fill-opacity:1;fill-rule:nonzero;stroke:none"
         id="path266955"
         inkscape:connector-curvature="0" />
    </g>
    <g
       id="g266957"
       transform="matrix(0.35277777,0,0,-0.35277777,125.28815,229.41809)">
      <path
         d="M 0,0 5.396,3.139 5.293,-33.689 -0.106,-36.824 Z"
         style="fill:#6f7070;fill-opacity:1;fill-rule:nonzero;stroke:none"
         id="path266959"
         inkscape:connector-curvature="0" />
    </g>
    <g
       id="g266961"
       transform="matrix(0.35277777,0,0,-0.35277777,123.65551,228.47479)">
      <path
         d="M 0,0 5.396,3.137 10.023,0.465 4.628,-2.674 Z"
         style="fill:#afb1b1;fill-opacity:1;fill-rule:nonzero;stroke:none"
         id="path266963"
         inkscape:connector-curvature="0" />
    </g>
    <g
       id="g266965"
       transform="matrix(0.35277777,0,0,-0.35277777,125.28815,229.41809)">
      <path
         d="m 0,0 -0.106,-36.824 -4.625,2.717 0.103,36.781 z"
         style="fill:#a6a8a9;fill-opacity:1;fill-rule:nonzero;stroke:none"
         id="path266967"
         inkscape:connector-curvature="0" />
    </g>
    <g
       id="g266969"
       transform="matrix(0.35277777,0,0,-0.35277777,142.89532,235.69366)">
      <path
         d="M 0,0 -0.133,-16.369 -79.979,29.168 V 45.537 Z"
         style="fill:#efefef;fill-opacity:1;fill-rule:nonzero;stroke:none"
         id="path266971"
         inkscape:connector-curvature="0" />
    </g>
    <g
       id="g266973"
       transform="matrix(0.35277777,0,0,-0.35277777,150.05045,222.13858)">
      <path
         d="m 0,0 -0.024,-8.01 -4.528,-2.58 0.022,8.008 z"
         style="fill:#76ada2;fill-opacity:1;fill-rule:nonzero;stroke:none"
         id="path266975"
         inkscape:connector-curvature="0" />
    </g>
    <g
       id="g266977"
       transform="matrix(0.35277777,0,0,-0.35277777,148.45226,223.04946)">
      <path
         d="m 0,0 -0.021,-8.008 -10.845,6.258 0.025,8.01 z"
         style="fill:#aecec8;fill-opacity:1;fill-rule:nonzero;stroke:none"
         id="path266979"
         inkscape:connector-curvature="0" />
    </g>
    <g
       id="g266981"
       transform="matrix(0.35277777,0,0,-0.35277777,150.05045,222.13858)">
      <path
         d="m 0,0 -4.53,-2.582 -10.841,6.26 4.527,2.582 z"
         style="fill:#e6e7e8;fill-opacity:1;fill-rule:nonzero;stroke:none"
         id="path266983"
         inkscape:connector-curvature="0" />
    </g>
    <g
       id="g266985"
       transform="matrix(0.35277777,0,0,-0.35277777,145.71962,221.8492)">
      <path
         d="M 0,0 C 1.351,-0.781 2.444,-2.674 2.44,-4.227 2.438,-5.779 1.337,-6.408 -0.017,-5.625 -1.368,-4.844 -2.459,-2.953 -2.454,-1.4 -2.449,0.152 -1.354,0.781 0,0"
         style="fill:#7a918d;fill-opacity:1;fill-rule:nonzero;stroke:none"
         id="path266987"
         inkscape:connector-curvature="0" />
    </g>
    <g
       id="g266989"
       transform="matrix(0.35277777,0,0,-0.35277777,145.71753,222.39697)">
      <path
         d="M 0,0 C 0.604,-0.35 1.096,-1.199 1.096,-1.895 1.093,-2.592 0.599,-2.873 -0.006,-2.525 -0.611,-2.172 -1.103,-1.324 -1.099,-0.627 -1.097,0.068 -0.605,0.35 0,0"
         style="fill:#b1c9c7;fill-opacity:1;fill-rule:nonzero;stroke:none"
         id="path266991"
         inkscape:connector-curvature="0" />
    </g>
    <g
       id="g266993"
       transform="matrix(0.35277777,0,0,-0.35277777,146.7094,222.33977)">
      <path
         d="M 0,0 4.436,-2.518 V -2.893 L 0,-0.314 Z"
         style="fill:#7a918d;fill-opacity:1;fill-rule:nonzero;stroke:none"
         id="path266995"
         inkscape:connector-curvature="0" />
    </g>
    <g
       id="g266997"
       transform="matrix(0.35277777,0,0,-0.35277777,146.7094,222.66224)">
      <path
         d="M 0,0 4.436,-2.52 V -2.893 L 0,-0.314 Z"
         style="fill:#7a918d;fill-opacity:1;fill-rule:nonzero;stroke:none"
         id="path266999"
         inkscape:connector-curvature="0" />
    </g>
    <g
       id="g267001"
       transform="matrix(0.35277777,0,0,-0.35277777,154.57419,224.64111)">
      <path
         d="m 0,0 -0.024,-8.01 -4.53,-2.582 0.022,8.01 z"
         style="fill:#76ada2;fill-opacity:1;fill-rule:nonzero;stroke:none"
         id="path267003"
         inkscape:connector-curvature="0" />
    </g>
    <g
       id="g267005"
       transform="matrix(0.35277777,0,0,-0.35277777,152.97534,225.552)">
      <path
         d="m 0,0 -0.021,-8.01 -10.846,6.262 0.023,8.01 z"
         style="fill:#aecec8;fill-opacity:1;fill-rule:nonzero;stroke:none"
         id="path267007"
         inkscape:connector-curvature="0" />
    </g>
    <g
       id="g267009"
       transform="matrix(0.35277777,0,0,-0.35277777,154.57419,224.64111)">
      <path
         d="m 0,0 -4.532,-2.582 -10.844,6.262 4.531,2.582 z"
         style="fill:#e6e7e8;fill-opacity:1;fill-rule:nonzero;stroke:none"
         id="path267011"
         inkscape:connector-curvature="0" />
    </g>
    <g
       id="g267013"
       transform="matrix(0.35277777,0,0,-0.35277777,150.2427,224.3524)">
      <path
         d="M 0,0 C 1.352,-0.781 2.442,-2.674 2.44,-4.223 2.436,-5.779 1.339,-6.406 -0.013,-5.627 -1.368,-4.848 -2.461,-2.953 -2.453,-1.4 -2.451,0.152 -1.352,0.783 0,0"
         style="fill:#7a918d;fill-opacity:1;fill-rule:nonzero;stroke:none"
         id="path267015"
         inkscape:connector-curvature="0" />
    </g>
    <g
       id="g267017"
       transform="matrix(0.35277777,0,0,-0.35277777,150.24198,224.90017)">
      <path
         d="m 0,0 c 0.605,-0.348 1.093,-1.199 1.093,-1.891 -0.002,-0.701 -0.496,-0.98 -1.102,-0.63 -0.608,0.349 -1.096,1.197 -1.094,1.894 C -1.103,0.07 -0.609,0.354 0,0"
         style="fill:#b1c9c7;fill-opacity:1;fill-rule:nonzero;stroke:none"
         id="path267019"
         inkscape:connector-curvature="0" />
    </g>
    <g
       id="g267021"
       transform="matrix(0.35277777,0,0,-0.35277777,151.23279,224.84299)">
      <path
         d="M 0,0 4.435,-2.518 V -2.891 L 0,-0.314 Z"
         style="fill:#7a918d;fill-opacity:1;fill-rule:nonzero;stroke:none"
         id="path267023"
         inkscape:connector-curvature="0" />
    </g>
    <g
       id="g267025"
       transform="matrix(0.35277777,0,0,-0.35277777,151.23279,225.16547)">
      <path
         d="M 0,0 4.435,-2.52 V -2.893 L 0,-0.314 Z"
         style="fill:#7a918d;fill-opacity:1;fill-rule:nonzero;stroke:none"
         id="path267027"
         inkscape:connector-curvature="0" />
    </g>
    <g
       id="g267029"
       transform="matrix(0.35277777,0,0,-0.35277777,147.81459,242.09946)">
      <path
         d="M 0,0 -0.063,-12.91 22.784,0.773 v 13.045 z"
         style="fill:#b2aaa4;fill-opacity:1;fill-rule:nonzero;stroke:none"
         id="path267031"
         inkscape:connector-curvature="0" />
    </g>
    <g
       id="g267033"
       transform="matrix(0.35277777,0,0,-0.35277777,155.85234,236.90567)">
      <path
         d="m 0,0 v -13.949 l -0.714,-0.453 -0.114,13.896 z"
         style="fill:#b2aaa4;fill-opacity:1;fill-rule:nonzero;stroke:none"
         id="path267035"
         inkscape:connector-curvature="0" />
    </g>
    <g
       id="g267037"
       transform="matrix(0.35277777,0,0,-0.35277777,155.37966,237.41898)">
      <path
         d="m 0,0 0.251,-11.902 -21.208,-12.75 -0.044,12.232 z"
         style="fill:#939999;fill-opacity:1;fill-rule:nonzero;stroke:none"
         id="path267039"
         inkscape:connector-curvature="0" />
    </g>
    <g
       id="g267041"
       transform="matrix(0.35277777,0,0,-0.35277777,155.18088,241.48555)">
      <path
         d="m 0,0 -20.477,-12.41 0.039,11.517 20.333,12.315 z M -20.707,-13.406 0.814,-0.375 v 0.006 L 0.711,12.258 -20.707,-0.717 Z"
         style="fill:#c5c5c5;fill-opacity:1;fill-rule:nonzero;stroke:none"
         id="path267043"
         inkscape:connector-curvature="0" />
    </g>
    <g
       id="g267045"
       transform="matrix(0.35277777,0,0,-0.35277777,155.30801,241.55654)">
      <path
         d="m 0,0 -20.476,-12.41 0.038,11.515 20.333,12.315 z M -21.272,-13.648 0.817,-0.377 v 0.006 L 0.715,12.703 -21.272,-0.514 Z"
         style="fill:#f2f2f2;fill-opacity:1;fill-rule:nonzero;stroke:none"
         id="path267047"
         inkscape:connector-curvature="0" />
    </g>
    <g
       transform="matrix(0.35277777,0,0,-0.35277777,-599.15891,498.13001)"
       id="g267049">
      <g
         id="g267051" />
      <g
         id="g267063">
        <g
           clip-path="url(#clipPath267055)"
           id="g267061"
           style="opacity:0.11000097">
          <g
             transform="translate(2039.4033,787.7129)"
             id="g267059">
            <path
               d="m 0,0 30.155,17.758 -2.735,1.58 -32.819,-19.307 69.473,-39.595 2.66,1.544 z"
               style="fill:#161615;fill-opacity:1;fill-rule:nonzero;stroke:none"
               id="path267057"
               inkscape:connector-curvature="0" />
          </g>
        </g>
      </g>
    </g>
  </g>
</svg>
