<?xml version="1.0" encoding="UTF-8" standalone="no"?>
<!-- Created with Inkscape (http://www.inkscape.org/) -->

<svg
   xmlns:dc="http://purl.org/dc/elements/1.1/"
   xmlns:cc="http://creativecommons.org/ns#"
   xmlns:rdf="http://www.w3.org/1999/02/22-rdf-syntax-ns#"
   xmlns:svg="http://www.w3.org/2000/svg"
   xmlns="http://www.w3.org/2000/svg"
   xmlns:sodipodi="http://sodipodi.sourceforge.net/DTD/sodipodi-0.dtd"
   xmlns:inkscape="http://www.inkscape.org/namespaces/inkscape"
   width="63.222534mm"
   height="63.709045mm"
   viewBox="0 0 63.222534 63.709045"
   version="1.1"
   id="svg7841"
   inkscape:version="0.92.3 (2405546, 2018-03-11)"
   sodipodi:docname="apartemant-3.svg">
  <defs
     id="defs7835">
    <clipPath
       clipPathUnits="userSpaceOnUse"
       id="clipPath265567">
      <path
         d="m 2676.77,701.135 h 16.12 v -9.342 h -16.12 z"
         id="path265565"
         inkscape:connector-curvature="0" />
    </clipPath>
    <clipPath
       clipPathUnits="userSpaceOnUse"
       id="clipPath265523">
      <path
         d="m 2723.77,735.24 h 19.12 v -11.077 h -19.12 z"
         id="path265521"
         inkscape:connector-curvature="0" />
    </clipPath>
    <clipPath
       clipPathUnits="userSpaceOnUse"
       id="clipPath265479">
      <path
         d="m 2578.17,738.616 h 11.82 v -6.848 h -11.82 z"
         id="path265477"
         inkscape:connector-curvature="0" />
    </clipPath>
    <clipPath
       clipPathUnits="userSpaceOnUse"
       id="clipPath265215">
      <path
         d="m 2631.77,828.404 h 10.99 v -3.486 h -10.99 z"
         id="path265213"
         inkscape:connector-curvature="0" />
    </clipPath>
    <clipPath
       clipPathUnits="userSpaceOnUse"
       id="clipPath265127">
      <path
         d="m 2613.86,838.615 h 10.98 v -3.482 h -10.98 z"
         id="path265125"
         inkscape:connector-curvature="0" />
    </clipPath>
    <clipPath
       clipPathUnits="userSpaceOnUse"
       id="clipPath265039">
      <path
         d="m 2600.64,849.504 h 68.55 v -58.215 h -68.55 z"
         id="path265037"
         inkscape:connector-curvature="0" />
    </clipPath>
    <clipPath
       clipPathUnits="userSpaceOnUse"
       id="clipPath265003">
      <path
         d="m 2634.66,746.705 h 103.08 V 693.84 h -103.08 z"
         id="path265001"
         inkscape:connector-curvature="0" />
    </clipPath>
    <clipPath
       clipPathUnits="userSpaceOnUse"
       id="clipPath264959">
      <path
         d="m 2697.71,748.033 h 19.12 v -11.077 h -19.12 z"
         id="path264957"
         inkscape:connector-curvature="0" />
    </clipPath>
  </defs>
  <sodipodi:namedview
     id="base"
     pagecolor="#ffffff"
     bordercolor="#666666"
     borderopacity="1.0"
     inkscape:pageopacity="0.0"
     inkscape:pageshadow="2"
     inkscape:zoom="0.35"
     inkscape:cx="-379.09577"
     inkscape:cy="351.82361"
     inkscape:document-units="mm"
     inkscape:current-layer="layer1"
     showgrid="false"
     fit-margin-top="0"
     fit-margin-left="0"
     fit-margin-right="0"
     fit-margin-bottom="0"
     inkscape:window-width="1366"
     inkscape:window-height="716"
     inkscape:window-x="-8"
     inkscape:window-y="-8"
     inkscape:window-maximized="1" />
  <metadata
     id="metadata7838">
    <rdf:RDF>
      <cc:Work
         rdf:about="">
        <dc:format>image/svg+xml</dc:format>
        <dc:type
           rdf:resource="http://purl.org/dc/dcmitype/StillImage" />
        <dc:title></dc:title>
      </cc:Work>
    </rdf:RDF>
  </metadata>
  <g
     inkscape:label="Layer 1"
     inkscape:groupmode="layer"
     id="layer1"
     transform="translate(-22.817304,-178.21095)">
    <g
       id="g264945"
       transform="matrix(0.35277777,0,0,-0.35277777,85.22969,224.81689)">
      <path
         d="m 0,0 -75.766,-44.107 c -3.075,-1.793 -8.074,-1.793 -11.171,0 l -87.637,50.595 c -1.557,0.897 -2.337,2.078 -2.332,3.256 l -0.011,-3.025 c -0.002,-1.18 0.774,-2.362 2.335,-3.26 l 87.64,-50.6 c 3.091,-1.787 8.093,-1.787 11.17,0 l 75.764,44.11 c 1.528,0.89 2.293,2.051 2.296,3.215 L 2.295,3.213 C 2.293,2.051 1.528,0.891 0,0"
         style="fill:#94b226;fill-opacity:1;fill-rule:nonzero;stroke:none"
         id="path264947"
         inkscape:connector-curvature="0" />
    </g>
    <g
       id="g264949"
       transform="matrix(0.35277777,0,0,-0.35277777,85.217281,222.53345)">
      <path
         d="M 0,0 C 3.097,-1.795 3.109,-4.686 0.035,-6.473 L -75.73,-50.58 c -3.076,-1.793 -8.075,-1.793 -11.171,0 l -87.638,50.596 c -3.094,1.785 -3.113,4.685 -0.038,6.468 l 75.764,44.112 c 3.078,1.789 8.079,1.789 11.175,0 z"
         style="fill:#9ece4a;fill-opacity:1;fill-rule:nonzero;stroke:none"
         id="path264951"
         inkscape:connector-curvature="0" />
    </g>
    <g
       transform="matrix(0.35277777,0,0,-0.35277777,-884.49818,480.78194)"
       id="g264953">
      <g
         id="g264955" />
      <g
         id="g264967">
        <g
           clip-path="url(#clipPath264959)"
           id="g264965"
           style="opacity:0.19000202">
          <g
             transform="translate(2714.0078,746.4141)"
             id="g264963">
            <path
               d="M 0,0 C 3.746,-2.162 3.771,-5.674 0.051,-7.84 -3.675,-10 -9.726,-9.996 -13.472,-7.832 -17.214,-5.674 -17.242,-2.162 -13.523,0 -9.802,2.162 -3.741,2.156 0,0"
               style="fill:#181816;fill-opacity:1;fill-rule:nonzero;stroke:none"
               id="path264961"
               inkscape:connector-curvature="0" />
          </g>
        </g>
      </g>
    </g>
    <g
       id="g264969"
       transform="matrix(0.35277777,0,0,-0.35277777,69.902801,213.33506)">
      <path
         d="m 0,0 -1.726,1.75 c -0.515,0.52 -1.169,1.184 -1.112,3.098 v 7.771 H -3.132 V 4.516 c 0,-1.828 0.461,-2.448 1.248,-3.235 1.163,-1.156 1.459,-1.603 1.972,-2.115 v 0.631 z"
         style="fill:#775a20;fill-opacity:1;fill-rule:nonzero;stroke:none"
         id="path264971"
         inkscape:connector-curvature="0" />
    </g>
    <g
       id="g264973"
       transform="matrix(0.35277777,0,0,-0.35277777,69.736749,209.86793)">
      <path
         d="m 0,0 1.329,-0.031 0.749,-25.465 c 0,0 -0.148,-1.16 -1.474,-1.16 -1.359,0 -1.433,1.142 -1.433,1.142 z"
         style="fill:#775a20;fill-opacity:1;fill-rule:nonzero;stroke:none"
         id="path264975"
         inkscape:connector-curvature="0" />
    </g>
    <g
       id="g264977"
       transform="matrix(0.35277777,0,0,-0.35277777,70.339655,214.073)">
      <path
         d="m 0,0 v 0 c 0.587,0.59 0.919,1.395 0.919,2.225 v 9.882 H 1.374 V 1.973 c 0,-1.307 -0.529,-2.573 -1.455,-3.502 z"
         style="fill:#775a20;fill-opacity:1;fill-rule:nonzero;stroke:none"
         id="path264979"
         inkscape:connector-curvature="0" />
    </g>
    <g
       id="g264981"
       transform="matrix(0.35277777,0,0,-0.35277777,70.82916,211.95425)">
      <path
         d="M 0,0 1.24,1.26 C 1.609,1.629 2.082,2.104 2.035,3.469 V 9.033 H 2.244 V 3.236 C 2.244,1.924 1.917,1.482 1.349,0.918 0.516,0.088 0.302,-0.23 -0.06,-0.594 v 0.449 z"
         style="fill:#c4b08d;fill-opacity:1;fill-rule:nonzero;stroke:none"
         id="path264983"
         inkscape:connector-curvature="0" />
    </g>
    <g
       id="g264985"
       transform="matrix(0.35277777,0,0,-0.35277777,75.329881,208.31485)">
      <path
         d="m 0,0 c 0,1.627 -1.178,2.977 -2.726,3.258 -0.128,2.959 -2.565,5.334 -5.559,5.334 -0.43,0 -0.836,-0.055 -1.235,-0.147 -0.448,1.637 -1.937,2.842 -3.712,2.842 -0.888,0 -1.703,-0.305 -2.355,-0.808 -0.888,1.011 -2.19,1.656 -3.642,1.656 -2.63,0 -4.768,-2.1 -4.844,-4.713 -0.072,0.002 -0.137,0.014 -0.209,0.014 -2.445,0 -4.42,-1.979 -4.42,-4.418 0,-0.104 0.011,-0.207 0.018,-0.309 -1.234,-0.611 -2.082,-1.875 -2.082,-3.336 0,-1.654 1.094,-3.062 2.59,-3.541 0,-0.082 -0.008,-0.16 -0.008,-0.248 0,-3.779 3.065,-6.842 6.842,-6.842 0.795,0 1.554,0.147 2.264,0.393 1,-1.256 2.522,-2.059 4.235,-2.059 2.177,0 4.053,1.301 4.921,3.182 0.578,-0.207 1.203,-0.326 1.852,-0.326 3.08,0 5.582,2.496 5.582,5.578 0,0.429 -0.057,0.842 -0.152,1.248 C -1.138,-2.928 0,-1.596 0,0"
         style="fill:#4b6d0f;fill-opacity:1;fill-rule:nonzero;stroke:none"
         id="path264987"
         inkscape:connector-curvature="0" />
    </g>
    <g
       id="g264989"
       transform="matrix(0.35277777,0,0,-0.35277777,67.644529,207.2648)">
      <path
         d="M 0,0 C -0.009,0.061 -0.009,0.127 -0.009,0.193 -0.009,2.078 1.516,3.6 3.403,3.6 4.801,3.6 6,2.764 6.524,1.563 c 0.443,0.365 1.25,0.925 1.767,1.027 4.634,0.959 4.645,-4.356 4.791,-4.225 0.211,0.186 0.846,3.112 -1.186,4.744 C 8.951,5.467 6.851,3.859 6.377,3.695 5.85,4.9 4.394,5.98 2.992,5.98 1.108,5.98 -0.34,4.758 -0.34,2.877 -0.34,2.813 -0.468,1.773 -0.465,1.713 -1.494,1.486 -3.418,0.352 -3.418,-1.648 c 0,-0.666 0.149,-1.305 0.408,-1.881 C -2.718,-1.885 -1.551,-0.541 0,0"
         style="fill:#71991c;fill-opacity:1;fill-rule:nonzero;stroke:none"
         id="path264991"
         inkscape:connector-curvature="0" />
    </g>
    <g
       id="g264993"
       transform="matrix(0.35277777,0,0,-0.35277777,70.441969,207.96899)">
      <path
         d="m 0,0 c 1.301,-0.453 2.143,-1.619 2.24,-2.91 0.622,0.291 1.822,-0.131 2.313,-0.301 2.117,-0.734 2.796,-2.793 2.16,-4.973 0.389,0.395 0.693,0.87 0.885,1.42 C 8.299,-4.777 7.242,-2.592 5.252,-1.9 4.843,-1.756 4.417,-1.691 4.01,-1.686 3.929,-0.607 3.225,0.375 2.134,0.752 1.119,1.107 0.038,0.842 -0.702,0.162 -0.467,0.137 -0.233,0.08 0,0"
         style="fill:#71991c;fill-opacity:1;fill-rule:nonzero;stroke:none"
         id="path264995"
         inkscape:connector-curvature="0" />
    </g>
    <g
       transform="matrix(0.35277777,0,0,-0.35277777,-884.49818,480.78194)"
       id="g264997">
      <g
         id="g264999" />
      <g
         id="g265011">
        <g
           clip-path="url(#clipPath265003)"
           id="g265009"
           style="opacity:0.130005">
          <g
             transform="translate(2737.7363,721.916)"
             id="g265007">
            <path
               d="m 0,0 -49.021,-28.059 -22.19,-0.017 -31.868,18.178 59.625,34.687 z"
               style="fill:#060606;fill-opacity:1;fill-rule:nonzero;stroke:none"
               id="path265005"
               inkscape:connector-curvature="0" />
          </g>
        </g>
      </g>
    </g>
    <g
       id="g265013"
       transform="matrix(0.35277777,0,0,-0.35277777,72.097335,193.88614)">
      <path
         d="m 0,0 -0.26,-89.9 -44.916,-26.1 0.253,89.896 z"
         style="fill:#c7c9c9;fill-opacity:1;fill-rule:nonzero;stroke:none"
         id="path265015"
         inkscape:connector-curvature="0" />
    </g>
    <g
       id="g265017"
       transform="matrix(0.35277777,0,0,-0.35277777,56.249534,203.09486)">
      <path
         d="m 0,0 -0.253,-89.896 -76.661,44.433 0.255,89.897 z"
         style="fill:#dee0e0;fill-opacity:1;fill-rule:nonzero;stroke:none"
         id="path265019"
         inkscape:connector-curvature="0" />
    </g>
    <g
       id="g265021"
       transform="matrix(0.35277777,0,0,-0.35277777,30.466445,187.41761)">
      <path
         d="M 0,0 41.347,24.027 114.436,-18.34 73.086,-42.373 Z"
         style="fill:#d3d3d3;fill-opacity:1;fill-rule:nonzero;stroke:none"
         id="path265023"
         inkscape:connector-curvature="0" />
    </g>
    <g
       id="g265025"
       transform="matrix(0.35277777,0,0,-0.35277777,45.051601,178.21095)">
      <path
         d="m 0,0 -44.917,-26.104 76.659,-44.433 44.923,26.103 z M 0.009,-4.141 69.518,-44.445 31.742,-66.4 -37.771,-26.096 Z"
         style="fill:#f4f4f4;fill-opacity:1;fill-rule:nonzero;stroke:none"
         id="path265027"
         inkscape:connector-curvature="0" />
    </g>
    <g
       id="g265029"
       transform="matrix(0.35277777,0,0,-0.35277777,68.35147,194.60406)">
      <path
         d="m 0,0 -66.041,38.307 -34.312,-19.94 66.048,-38.305 z"
         style="fill:#848484;fill-opacity:1;fill-rule:nonzero;stroke:none"
         id="path265031"
         inkscape:connector-curvature="0" />
    </g>
    <g
       transform="matrix(0.35277777,0,0,-0.35277777,-884.49818,480.78194)"
       id="g265033">
      <g
         id="g265035" />
      <g
         id="g265047">
        <g
           clip-path="url(#clipPath265039)"
           id="g265045"
           style="opacity:0.11000097">
          <g
             transform="translate(2605.7197,829.5664)"
             id="g265043">
            <path
               d="m 0,0 31.75,18.451 -2.574,1.487 -34.257,-19.909 66.048,-38.306 2.502,1.455 z"
               style="fill:#161615;fill-opacity:1;fill-rule:nonzero;stroke:none"
               id="path265041"
               inkscape:connector-curvature="0" />
          </g>
        </g>
      </g>
    </g>
    <g
       id="g265049"
       transform="matrix(0.35277777,0,0,-0.35277777,39.547024,187.38729)">
      <path
         d="M 0,0 6.508,3.781 6.487,-3.678 -0.022,-7.459 Z"
         style="fill:#bababa;fill-opacity:1;fill-rule:nonzero;stroke:none"
         id="path265051"
         inkscape:connector-curvature="0" />
    </g>
    <g
       id="g265053"
       transform="matrix(0.35277777,0,0,-0.35277777,37.435199,186.06574)">
      <path
         d="M 0,0 6.005,3.492 11.992,0.035 5.986,-3.455 Z"
         style="fill:#ffffff;fill-opacity:1;fill-rule:nonzero;stroke:none"
         id="path265055"
         inkscape:connector-curvature="0" />
    </g>
    <g
       id="g265057"
       transform="matrix(0.35277777,0,0,-0.35277777,39.553585,184.7318)">
      <path
         d="m 0,0 -6.509,-3.781 6.49,-3.746 6.508,3.781 z m 0,-0.582 5.482,-3.166 -5.501,-3.199 -5.483,3.166 z"
         style="fill:#f7f7f7;fill-opacity:1;fill-rule:nonzero;stroke:none"
         id="path265059"
         inkscape:connector-curvature="0" />
    </g>
    <g
       id="g265061"
       transform="matrix(0.35277777,0,0,-0.35277777,39.547024,187.38729)">
      <path
         d="m 0,0 -0.022,-7.459 -6.488,3.748 0.02,7.457 z"
         style="fill:#ededed;fill-opacity:1;fill-rule:nonzero;stroke:none"
         id="path265063"
         inkscape:connector-curvature="0" />
    </g>
    <g
       id="g265065"
       transform="matrix(0.35277777,0,0,-0.35277777,37.406254,187.2102)">
      <path
         d="M 0,0 V 0.258 L 5.297,-2.799 5.293,-3.059 Z"
         style="fill:#9b9a98;fill-opacity:1;fill-rule:nonzero;stroke:none"
         id="path265067"
         inkscape:connector-curvature="0" />
    </g>
    <g
       id="g265069"
       transform="matrix(0.35277777,0,0,-0.35277777,37.402814,188.31955)">
      <path
         d="M 0,0 0.003,0.26 5.298,-2.799 5.296,-3.061 Z"
         style="fill:#9b9a98;fill-opacity:1;fill-rule:nonzero;stroke:none"
         id="path265071"
         inkscape:connector-curvature="0" />
    </g>
    <g
       id="g265073"
       transform="matrix(0.35277777,0,0,-0.35277777,37.403819,188.04255)">
      <path
         d="M 0,0 V 0.262 L 5.295,-2.795 V -3.057 Z"
         style="fill:#9b9a98;fill-opacity:1;fill-rule:nonzero;stroke:none"
         id="path265075"
         inkscape:connector-curvature="0" />
    </g>
    <g
       id="g265077"
       transform="matrix(0.35277777,0,0,-0.35277777,37.403819,187.76553)">
      <path
         d="M 0,0 V 0.262 L 5.298,-2.799 5.295,-3.055 Z"
         style="fill:#9b9a98;fill-opacity:1;fill-rule:nonzero;stroke:none"
         id="path265079"
         inkscape:connector-curvature="0" />
    </g>
    <g
       id="g265081"
       transform="matrix(0.35277777,0,0,-0.35277777,37.404878,187.4865)">
      <path
         d="M 0,0 V 0.256 L 5.297,-2.803 V -3.061 Z"
         style="fill:#9b9a98;fill-opacity:1;fill-rule:nonzero;stroke:none"
         id="path265083"
         inkscape:connector-curvature="0" />
    </g>
    <g
       id="g265085"
       transform="matrix(0.35277777,0,0,-0.35277777,37.406941,186.93323)">
      <path
         d="M 0,0 V 0.264 L 5.297,-2.799 V -3.057 Z"
         style="fill:#9b9a98;fill-opacity:1;fill-rule:nonzero;stroke:none"
         id="path265087"
         inkscape:connector-curvature="0" />
    </g>
    <g
       id="g265089"
       transform="matrix(0.35277777,0,0,-0.35277777,37.407629,186.65555)">
      <path
         d="M 0,0 V 0.26 L 5.299,-2.797 5.295,-3.057 Z"
         style="fill:#9b9a98;fill-opacity:1;fill-rule:nonzero;stroke:none"
         id="path265091"
         inkscape:connector-curvature="0" />
    </g>
    <g
       id="g265093"
       transform="matrix(0.35277777,0,0,-0.35277777,41.624426,187.2102)">
      <path
         d="m 0,0 v 0.258 l -5.295,-3.057 v -0.26 z"
         style="fill:#9b9a98;fill-opacity:1;fill-rule:nonzero;stroke:none"
         id="path265095"
         inkscape:connector-curvature="0" />
    </g>
    <g
       id="g265097"
       transform="matrix(0.35277777,0,0,-0.35277777,41.628554,188.31955)">
      <path
         d="m 0,0 v 0.26 l -5.299,-3.059 0.003,-0.262 z"
         style="fill:#9b9a98;fill-opacity:1;fill-rule:nonzero;stroke:none"
         id="path265099"
         inkscape:connector-curvature="0" />
    </g>
    <g
       id="g265101"
       transform="matrix(0.35277777,0,0,-0.35277777,41.627178,188.04255)">
      <path
         d="M 0,0 -0.002,0.262 -5.295,-2.795 V -3.057 Z"
         style="fill:#9b9a98;fill-opacity:1;fill-rule:nonzero;stroke:none"
         id="path265103"
         inkscape:connector-curvature="0" />
    </g>
    <g
       id="g265105"
       transform="matrix(0.35277777,0,0,-0.35277777,41.626516,187.76553)">
      <path
         d="M 0,0 V 0.262 L -5.297,-2.799 V -3.055 Z"
         style="fill:#9b9a98;fill-opacity:1;fill-rule:nonzero;stroke:none"
         id="path265107"
         inkscape:connector-curvature="0" />
    </g>
    <g
       id="g265109"
       transform="matrix(0.35277777,0,0,-0.35277777,41.624426,187.4865)">
      <path
         d="M 0,0 V 0.256 L -5.291,-2.803 V -3.061 Z"
         style="fill:#9b9a98;fill-opacity:1;fill-rule:nonzero;stroke:none"
         id="path265111"
         inkscape:connector-curvature="0" />
    </g>
    <g
       id="g265113"
       transform="matrix(0.35277777,0,0,-0.35277777,41.624426,186.93323)">
      <path
         d="M 0,0 V 0.264 L -5.298,-2.799 V -3.057 Z"
         style="fill:#9b9a98;fill-opacity:1;fill-rule:nonzero;stroke:none"
         id="path265115"
         inkscape:connector-curvature="0" />
    </g>
    <g
       id="g265117"
       transform="matrix(0.35277777,0,0,-0.35277777,41.624082,186.65555)">
      <path
         d="m 0,0 -0.004,0.26 -5.299,-3.057 0.004,-0.26 z"
         style="fill:#9b9a98;fill-opacity:1;fill-rule:nonzero;stroke:none"
         id="path265119"
         inkscape:connector-curvature="0" />
    </g>
    <g
       transform="matrix(0.35277777,0,0,-0.35277777,-884.49818,480.78194)"
       id="g265121">
      <g
         id="g265123" />
      <g
         id="g265135">
        <g
           clip-path="url(#clipPath265127)"
           id="g265133"
           style="opacity:0.08999628">
          <g
             transform="translate(2619.3467,838.0352)"
             id="g265131">
            <path
               d="m 0,0 4.986,-2.883 0.509,0.297 -5.499,3.166 -5.485,-3.199 0.494,-0.283 z"
               style="fill:#111111;fill-opacity:1;fill-rule:nonzero;stroke:none"
               id="path265129"
               inkscape:connector-curvature="0" />
          </g>
        </g>
      </g>
    </g>
    <g
       id="g265137"
       transform="matrix(0.35277777,0,0,-0.35277777,45.866359,190.98948)">
      <path
         d="M 0,0 6.513,3.781 6.487,-3.678 -0.021,-7.459 Z"
         style="fill:#bababa;fill-opacity:1;fill-rule:nonzero;stroke:none"
         id="path265139"
         inkscape:connector-curvature="0" />
    </g>
    <g
       id="g265141"
       transform="matrix(0.35277777,0,0,-0.35277777,43.755566,189.66725)">
      <path
         d="M 0,0 6.006,3.486 11.99,0.033 5.983,-3.461 Z"
         style="fill:#ffffff;fill-opacity:1;fill-rule:nonzero;stroke:none"
         id="path265143"
         inkscape:connector-curvature="0" />
    </g>
    <g
       id="g265145"
       transform="matrix(0.35277777,0,0,-0.35277777,45.874296,188.33402)">
      <path
         d="m 0,0 -6.509,-3.785 6.487,-3.742 6.512,3.781 z m 0,-0.582 5.48,-3.166 -5.502,-3.197 -5.483,3.166 z"
         style="fill:#f7f7f7;fill-opacity:1;fill-rule:nonzero;stroke:none"
         id="path265147"
         inkscape:connector-curvature="0" />
    </g>
    <g
       id="g265149"
       transform="matrix(0.35277777,0,0,-0.35277777,45.866359,190.98948)">
      <path
         d="m 0,0 -0.021,-7.459 -6.487,3.748 0.022,7.453 z"
         style="fill:#ededed;fill-opacity:1;fill-rule:nonzero;stroke:none"
         id="path265151"
         inkscape:connector-curvature="0" />
    </g>
    <g
       id="g265153"
       transform="matrix(0.35277777,0,0,-0.35277777,43.72662,190.81308)">
      <path
         d="m 0,0 v 0.26 l 5.295,-3.057 v -0.26 z"
         style="fill:#9b9a98;fill-opacity:1;fill-rule:nonzero;stroke:none"
         id="path265155"
         inkscape:connector-curvature="0" />
    </g>
    <g
       id="g265157"
       transform="matrix(0.35277777,0,0,-0.35277777,43.722493,191.92309)">
      <path
         d="M 0,0 0.003,0.264 5.299,-2.795 V -3.057 Z"
         style="fill:#9b9a98;fill-opacity:1;fill-rule:nonzero;stroke:none"
         id="path265159"
         inkscape:connector-curvature="0" />
    </g>
    <g
       id="g265161"
       transform="matrix(0.35277777,0,0,-0.35277777,43.723525,191.64544)">
      <path
         d="M 0,0 0.004,0.264 5.299,-2.795 V -3.057 Z"
         style="fill:#9b9a98;fill-opacity:1;fill-rule:nonzero;stroke:none"
         id="path265163"
         inkscape:connector-curvature="0" />
    </g>
    <g
       id="g265165"
       transform="matrix(0.35277777,0,0,-0.35277777,43.7249,191.36776)">
      <path
         d="M 0,0 V 0.262 L 5.297,-2.799 5.295,-3.057 Z"
         style="fill:#9b9a98;fill-opacity:1;fill-rule:nonzero;stroke:none"
         id="path265167"
         inkscape:connector-curvature="0" />
    </g>
    <g
       id="g265169"
       transform="matrix(0.35277777,0,0,-0.35277777,43.725244,191.09008)">
      <path
         d="m 0,0 v 0.26 l 5.299,-3.059 v -0.26 z"
         style="fill:#9b9a98;fill-opacity:1;fill-rule:nonzero;stroke:none"
         id="path265171"
         inkscape:connector-curvature="0" />
    </g>
    <g
       id="g265173"
       transform="matrix(0.35277777,0,0,-0.35277777,43.72662,190.5354)">
      <path
         d="M 0,0 V 0.26 L 5.3,-2.799 V -3.057 Z"
         style="fill:#9b9a98;fill-opacity:1;fill-rule:nonzero;stroke:none"
         id="path265175"
         inkscape:connector-curvature="0" />
    </g>
    <g
       id="g265177"
       transform="matrix(0.35277777,0,0,-0.35277777,43.728684,190.25775)">
      <path
         d="m 0,0 v 0.258 l 5.294,-3.057 v -0.26 z"
         style="fill:#9b9a98;fill-opacity:1;fill-rule:nonzero;stroke:none"
         id="path265179"
         inkscape:connector-curvature="0" />
    </g>
    <g
       id="g265181"
       transform="matrix(0.35277777,0,0,-0.35277777,47.944449,190.81308)">
      <path
         d="m 0,0 v 0.26 l -5.296,-3.057 v -0.26 z"
         style="fill:#9b9a98;fill-opacity:1;fill-rule:nonzero;stroke:none"
         id="path265183"
         inkscape:connector-curvature="0" />
    </g>
    <g
       id="g265185"
       transform="matrix(0.35277777,0,0,-0.35277777,47.947889,191.92309)">
      <path
         d="m 0,0 v 0.264 l -5.296,-3.059 0.001,-0.262 z"
         style="fill:#9b9a98;fill-opacity:1;fill-rule:nonzero;stroke:none"
         id="path265187"
         inkscape:connector-curvature="0" />
    </g>
    <g
       id="g265189"
       transform="matrix(0.35277777,0,0,-0.35277777,47.947545,191.64544)">
      <path
         d="M 0,0 -0.002,0.264 -5.295,-2.795 V -3.057 Z"
         style="fill:#9b9a98;fill-opacity:1;fill-rule:nonzero;stroke:none"
         id="path265191"
         inkscape:connector-curvature="0" />
    </g>
    <g
       id="g265193"
       transform="matrix(0.35277777,0,0,-0.35277777,47.946883,191.36776)">
      <path
         d="M 0,0 V 0.262 L -5.297,-2.799 V -3.057 Z"
         style="fill:#9b9a98;fill-opacity:1;fill-rule:nonzero;stroke:none"
         id="path265195"
         inkscape:connector-curvature="0" />
    </g>
    <g
       id="g265197"
       transform="matrix(0.35277777,0,0,-0.35277777,47.945507,191.09008)">
      <path
         d="m 0,0 v 0.26 l -5.295,-3.059 v -0.26 z"
         style="fill:#9b9a98;fill-opacity:1;fill-rule:nonzero;stroke:none"
         id="path265199"
         inkscape:connector-curvature="0" />
    </g>
    <g
       id="g265201"
       transform="matrix(0.35277777,0,0,-0.35277777,47.944449,190.5354)">
      <path
         d="M 0,0 V 0.26 L -5.298,-2.799 V -3.057 Z"
         style="fill:#9b9a98;fill-opacity:1;fill-rule:nonzero;stroke:none"
         id="path265203"
         inkscape:connector-curvature="0" />
    </g>
    <g
       id="g265205"
       transform="matrix(0.35277777,0,0,-0.35277777,47.943417,190.25775)">
      <path
         d="m 0,0 v 0.258 l -5.299,-3.057 v -0.26 z"
         style="fill:#9b9a98;fill-opacity:1;fill-rule:nonzero;stroke:none"
         id="path265207"
         inkscape:connector-curvature="0" />
    </g>
    <g
       transform="matrix(0.35277777,0,0,-0.35277777,-884.49818,480.78194)"
       id="g265209">
      <g
         id="g265211" />
      <g
         id="g265223">
        <g
           clip-path="url(#clipPath265215)"
           id="g265221"
           style="opacity:0.08999628">
          <g
             transform="translate(2637.2617,827.8223)"
             id="g265219">
            <path
               d="m 0,0 4.987,-2.885 0.508,0.301 -5.499,3.166 -5.486,-3.197 0.494,-0.289 z"
               style="fill:#111111;fill-opacity:1;fill-rule:nonzero;stroke:none"
               id="path265217"
               inkscape:connector-curvature="0" />
          </g>
        </g>
      </g>
    </g>
    <g
       id="g265225"
       transform="matrix(0.35277777,0,0,-0.35277777,68.924372,206.92237)">
      <path
         d="m 0,0 -0.411,-61.834 -35.953,-20.893 0.405,61.832 z"
         style="fill:#717676;fill-opacity:1;fill-rule:nonzero;stroke:none"
         id="path265227"
         inkscape:connector-curvature="0" />
    </g>
    <g
       id="g265229"
       transform="matrix(0.35277777,0,0,-0.35277777,56.238871,214.29348)">
      <path
         d="m 0,0 -0.405,-61.832 -36.193,20.893 0.41,61.834 z"
         style="fill:#4f5252;fill-opacity:1;fill-rule:nonzero;stroke:none"
         id="path265231"
         inkscape:connector-curvature="0" />
    </g>
    <g
       id="g265233"
       transform="matrix(0.35277777,0,0,-0.35277777,68.924372,206.92237)">
      <path
         d="M 0,0 -35.959,-20.895 -72.147,0 -63.88,4.805 -36.015,-11.289 -8.321,4.805 Z"
         style="fill:#7f8484;fill-opacity:1;fill-rule:nonzero;stroke:none"
         id="path265235"
         inkscape:connector-curvature="0" />
    </g>
    <g
       id="g265237"
       transform="matrix(0.35277777,0,0,-0.35277777,35.164174,194.3898)">
      <path
         d="m 0,0 -0.042,-15.328 -13.349,7.697 0.044,15.33 z"
         style="fill:#848484;fill-opacity:1;fill-rule:nonzero;stroke:none"
         id="path265239"
         inkscape:connector-curvature="0" />
    </g>
    <g
       id="g265241"
       transform="matrix(0.35277777,0,0,-0.35277777,33.105399,193.20262)">
      <path
         d="m 0,0 -0.038,-15.33 -2.209,1.297 0.042,15.336 z"
         style="fill:#ffffff;fill-opacity:1;fill-rule:nonzero;stroke:none"
         id="path265243"
         inkscape:connector-curvature="0" />
    </g>
    <g
       id="g265245"
       transform="matrix(0.35277777,0,0,-0.35277777,33.984239,199.85302)">
      <path
         d="m 0,0 -10.331,6.033 c -0.491,0.285 -0.737,0.653 -0.737,1.033 l -0.006,-1.261 c 0,-0.373 0.247,-0.75 0.741,-1.035 L 0,-1.254 c 0.979,-0.566 2.564,-0.566 3.546,0 V 0 C 2.568,-0.564 0.987,-0.564 0,0"
         style="fill:#e5e5e5;fill-opacity:1;fill-rule:nonzero;stroke:none"
         id="path265247"
         inkscape:connector-curvature="0" />
    </g>
    <g
       id="g265249"
       transform="matrix(0.35277777,0,0,-0.35277777,35.235162,199.85302)">
      <path
         d="m 0,0 c -0.978,-0.564 -2.559,-0.564 -3.546,0 l -10.331,6.033 c -0.977,0.565 -0.982,1.487 -0.011,2.051 z"
         style="fill:#ffffff;fill-opacity:1;fill-rule:nonzero;stroke:none"
         id="path265251"
         inkscape:connector-curvature="0" />
    </g>
    <g
       id="g265253"
       transform="matrix(0.35277777,0,0,-0.35277777,41.971348,198.19938)">
      <path
         d="m 0,0 -0.048,-15.336 -13.348,7.701 0.047,15.34 z"
         style="fill:#848484;fill-opacity:1;fill-rule:nonzero;stroke:none"
         id="path265255"
         inkscape:connector-curvature="0" />
    </g>
    <g
       id="g265257"
       transform="matrix(0.35277777,0,0,-0.35277777,39.894289,196.99637)">
      <path
         d="m 0,0 -0.035,-15.334 -2.207,1.301 0.032,15.336 z"
         style="fill:#ffffff;fill-opacity:1;fill-rule:nonzero;stroke:none"
         id="path265259"
         inkscape:connector-curvature="0" />
    </g>
    <g
       id="g265261"
       transform="matrix(0.35277777,0,0,-0.35277777,40.789322,203.68189)">
      <path
         d="m 0,0 -10.321,6.033 c -0.495,0.285 -0.746,0.653 -0.746,1.031 L -11.07,5.805 c 0,-0.373 0.248,-0.744 0.743,-1.028 L 0,-1.254 c 0.983,-0.568 2.572,-0.568 3.551,0 v 1.26 C 2.576,-0.563 0.989,-0.57 0,0"
         style="fill:#e5e5e5;fill-opacity:1;fill-rule:nonzero;stroke:none"
         id="path265263"
         inkscape:connector-curvature="0" />
    </g>
    <g
       id="g265265"
       transform="matrix(0.35277777,0,0,-0.35277777,42.041965,203.67985)">
      <path
         d="m 0,0 c -0.975,-0.568 -2.562,-0.576 -3.551,-0.006 l -10.321,6.033 c -0.985,0.565 -0.985,1.487 -0.013,2.055 z"
         style="fill:#ffffff;fill-opacity:1;fill-rule:nonzero;stroke:none"
         id="path265267"
         inkscape:connector-curvature="0" />
    </g>
    <g
       id="g265269"
       transform="matrix(0.35277777,0,0,-0.35277777,48.363708,211.40373)">
      <path
         d="m 0,0 -0.025,-10.486 -9.131,5.267 0.028,10.483 z"
         style="fill:#a5b4b5;fill-opacity:1;fill-rule:nonzero;stroke:none"
         id="path265271"
         inkscape:connector-curvature="0" />
    </g>
    <g
       id="g265273"
       transform="matrix(0.35277777,0,0,-0.35277777,46.956415,210.59278)">
      <path
         d="M 0,0 -0.025,-10.482 -1.536,-9.596 -1.51,0.891 Z"
         style="fill:#ffffff;fill-opacity:1;fill-rule:nonzero;stroke:none"
         id="path265275"
         inkscape:connector-curvature="0" />
    </g>
    <g
       id="g265277"
       transform="matrix(0.35277777,0,0,-0.35277777,47.557575,215.14028)">
      <path
         d="M 0,0 -7.066,4.127 C -7.401,4.318 -7.569,4.574 -7.569,4.832 L -7.573,3.969 c 0,-0.258 0.169,-0.51 0.507,-0.705 L 0,-0.854 c 0.67,-0.392 1.754,-0.388 2.425,0 V 0 C 1.756,-0.389 0.672,-0.389 0,0"
         style="fill:#e5e5e5;fill-opacity:1;fill-rule:nonzero;stroke:none"
         id="path265279"
         inkscape:connector-curvature="0" />
    </g>
    <g
       id="g265281"
       transform="matrix(0.35277777,0,0,-0.35277777,48.413,215.14028)">
      <path
         d="M 0,0 C -0.669,-0.389 -1.753,-0.389 -2.425,0 L -9.491,4.127 C -10.157,4.51 -10.16,5.143 -9.498,5.531 Z"
         style="fill:#ffffff;fill-opacity:1;fill-rule:nonzero;stroke:none"
         id="path265283"
         inkscape:connector-curvature="0" />
    </g>
    <g
       id="g265285"
       transform="matrix(0.35277777,0,0,-0.35277777,53.018733,214.0103)">
      <path
         d="m 0,0 -0.033,-10.484 -9.125,5.265 0.031,10.487 z"
         style="fill:#a5b4b5;fill-opacity:1;fill-rule:nonzero;stroke:none"
         id="path265287"
         inkscape:connector-curvature="0" />
    </g>
    <g
       id="g265289"
       transform="matrix(0.35277777,0,0,-0.35277777,51.598661,213.18623)">
      <path
         d="M 0,0 -0.024,-10.486 -1.535,-9.6 -1.51,0.887 Z"
         style="fill:#ffffff;fill-opacity:1;fill-rule:nonzero;stroke:none"
         id="path265291"
         inkscape:connector-curvature="0" />
    </g>
    <g
       id="g265293"
       transform="matrix(0.35277777,0,0,-0.35277777,52.211225,217.75786)">
      <path
         d="m 0,0 -7.059,4.123 c -0.339,0.195 -0.51,0.445 -0.51,0.707 V 3.971 c 0,-0.258 0.167,-0.51 0.505,-0.709 L 0,-0.857 c 0.672,-0.389 1.756,-0.389 2.427,0 V 0.002 C 1.762,-0.383 0.674,-0.395 0,0"
         style="fill:#e5e5e5;fill-opacity:1;fill-rule:nonzero;stroke:none"
         id="path265295"
         inkscape:connector-curvature="0" />
    </g>
    <g
       id="g265297"
       transform="matrix(0.35277777,0,0,-0.35277777,53.067311,217.7572)">
      <path
         d="m 0,0 c -0.665,-0.385 -1.753,-0.396 -2.427,-0.002 l -7.058,4.123 c -0.677,0.385 -0.677,1.016 -0.009,1.406 z"
         style="fill:#ffffff;fill-opacity:1;fill-rule:nonzero;stroke:none"
         id="path265299"
         inkscape:connector-curvature="0" />
    </g>
    <g
       id="g265301"
       transform="matrix(0.35277777,0,0,-0.35277777,63.391908,211.60629)">
      <path
         d="M 0,0 0.027,-10.484 9.154,-5.221 9.125,5.268 Z"
         style="fill:#a5b4b5;fill-opacity:1;fill-rule:nonzero;stroke:none"
         id="path265303"
         inkscape:connector-curvature="0" />
    </g>
    <g
       id="g265305"
       transform="matrix(0.35277777,0,0,-0.35277777,64.798539,210.79534)">
      <path
         d="M 0,0 0.026,-10.482 1.538,-9.596 1.509,0.891 Z"
         style="fill:#ffffff;fill-opacity:1;fill-rule:nonzero;stroke:none"
         id="path265307"
         inkscape:connector-curvature="0" />
    </g>
    <g
       id="g265309"
       transform="matrix(0.35277777,0,0,-0.35277777,64.198067,215.34218)">
      <path
         d="M 0,0 7.064,4.123 C 7.398,4.316 7.567,4.568 7.567,4.828 L 7.57,3.969 C 7.57,3.711 7.402,3.453 7.064,3.26 L 0,-0.857 c -0.674,-0.391 -1.755,-0.389 -2.427,0 V 0 C -1.757,-0.389 -0.674,-0.389 0,0"
         style="fill:#e5e5e5;fill-opacity:1;fill-rule:nonzero;stroke:none"
         id="path265311"
         inkscape:connector-curvature="0" />
    </g>
    <g
       id="g265313"
       transform="matrix(0.35277777,0,0,-0.35277777,63.341955,215.34218)">
      <path
         d="m 0,0 c 0.67,-0.389 1.753,-0.389 2.427,0 l 7.064,4.123 c 0.668,0.383 0.671,1.016 0.007,1.402 z"
         style="fill:#ffffff;fill-opacity:1;fill-rule:nonzero;stroke:none"
         id="path265315"
         inkscape:connector-curvature="0" />
    </g>
    <g
       id="g265317"
       transform="matrix(0.35277777,0,0,-0.35277777,58.73622,214.21218)">
      <path
         d="M 0,0 0.035,-10.486 9.157,-5.221 9.128,5.266 Z"
         style="fill:#a5b4b5;fill-opacity:1;fill-rule:nonzero;stroke:none"
         id="path265319"
         inkscape:connector-curvature="0" />
    </g>
    <g
       id="g265321"
       transform="matrix(0.35277777,0,0,-0.35277777,60.155948,213.38948)">
      <path
         d="M 0,0 0.025,-10.484 1.534,-9.598 1.513,0.889 Z"
         style="fill:#ffffff;fill-opacity:1;fill-rule:nonzero;stroke:none"
         id="path265323"
         inkscape:connector-curvature="0" />
    </g>
    <g
       id="g265325"
       transform="matrix(0.35277777,0,0,-0.35277777,59.543385,217.96114)">
      <path
         d="M 0,0 7.061,4.125 C 7.398,4.318 7.569,4.574 7.569,4.832 L 7.573,3.971 C 7.573,3.717 7.401,3.461 7.065,3.266 L 0,-0.857 c -0.667,-0.389 -1.753,-0.389 -2.427,0 V 0.004 C -1.76,-0.385 -0.674,-0.389 0,0"
         style="fill:#e5e5e5;fill-opacity:1;fill-rule:nonzero;stroke:none"
         id="path265327"
         inkscape:connector-curvature="0" />
    </g>
    <g
       id="g265329"
       transform="matrix(0.35277777,0,0,-0.35277777,58.687299,217.95976)">
      <path
         d="m 0,0 c 0.667,-0.389 1.753,-0.393 2.427,-0.004 l 7.06,4.125 c 0.678,0.385 0.678,1.016 0.009,1.408 z"
         style="fill:#ffffff;fill-opacity:1;fill-rule:nonzero;stroke:none"
         id="path265331"
         inkscape:connector-curvature="0" />
    </g>
    <g
       id="g265333"
       transform="matrix(0.35277777,0,0,-0.35277777,63.391908,219.32882)">
      <path
         d="M 0,0 0.027,-10.482 9.154,-5.215 9.125,5.268 Z"
         style="fill:#a5b4b5;fill-opacity:1;fill-rule:nonzero;stroke:none"
         id="path265335"
         inkscape:connector-curvature="0" />
    </g>
    <g
       id="g265337"
       transform="matrix(0.35277777,0,0,-0.35277777,64.798539,218.51647)">
      <path
         d="M 0,0 0.026,-10.482 1.538,-9.598 1.509,0.891 Z"
         style="fill:#ffffff;fill-opacity:1;fill-rule:nonzero;stroke:none"
         id="path265339"
         inkscape:connector-curvature="0" />
    </g>
    <g
       id="g265341"
       transform="matrix(0.35277777,0,0,-0.35277777,64.198067,223.064)">
      <path
         d="M 0,0 7.064,4.121 C 7.398,4.316 7.567,4.574 7.567,4.834 L 7.57,3.967 C 7.57,3.715 7.402,3.457 7.064,3.26 L 0,-0.859 c -0.674,-0.389 -1.755,-0.385 -2.427,0 V 0 C -1.757,-0.387 -0.674,-0.387 0,0"
         style="fill:#e5e5e5;fill-opacity:1;fill-rule:nonzero;stroke:none"
         id="path265343"
         inkscape:connector-curvature="0" />
    </g>
    <g
       id="g265345"
       transform="matrix(0.35277777,0,0,-0.35277777,63.341955,223.064)">
      <path
         d="m 0,0 c 0.67,-0.387 1.753,-0.387 2.427,0 l 7.064,4.121 c 0.668,0.389 0.671,1.018 0.007,1.406 z"
         style="fill:#ffffff;fill-opacity:1;fill-rule:nonzero;stroke:none"
         id="path265347"
         inkscape:connector-curvature="0" />
    </g>
    <g
       id="g265349"
       transform="matrix(0.35277777,0,0,-0.35277777,58.73622,221.93401)">
      <path
         d="M 0,0 0.035,-10.488 9.157,-5.219 9.128,5.266 Z"
         style="fill:#a5b4b5;fill-opacity:1;fill-rule:nonzero;stroke:none"
         id="path265351"
         inkscape:connector-curvature="0" />
    </g>
    <g
       id="g265353"
       transform="matrix(0.35277777,0,0,-0.35277777,60.155948,221.10997)">
      <path
         d="M 0,0 0.025,-10.49 1.534,-9.6 1.513,0.887 Z"
         style="fill:#ffffff;fill-opacity:1;fill-rule:nonzero;stroke:none"
         id="path265355"
         inkscape:connector-curvature="0" />
    </g>
    <g
       id="g265357"
       transform="matrix(0.35277777,0,0,-0.35277777,59.543385,225.68229)">
      <path
         d="M 0,0 7.061,4.125 C 7.398,4.32 7.569,4.57 7.569,4.83 L 7.573,3.967 C 7.573,3.715 7.401,3.459 7.065,3.264 L 0,-0.857 c -0.667,-0.389 -1.753,-0.389 -2.427,0 V 0.004 C -1.76,-0.387 -0.674,-0.389 0,0"
         style="fill:#e5e5e5;fill-opacity:1;fill-rule:nonzero;stroke:none"
         id="path265359"
         inkscape:connector-curvature="0" />
    </g>
    <g
       id="g265361"
       transform="matrix(0.35277777,0,0,-0.35277777,58.687299,225.68091)">
      <path
         d="m 0,0 c 0.667,-0.391 1.753,-0.393 2.427,-0.004 l 7.06,4.125 c 0.678,0.387 0.678,1.016 0.009,1.404 z"
         style="fill:#ffffff;fill-opacity:1;fill-rule:nonzero;stroke:none"
         id="path265363"
         inkscape:connector-curvature="0" />
    </g>
    <g
       id="g265365"
       transform="matrix(0.35277777,0,0,-0.35277777,47.985433,219.24132)">
      <path
         d="m 0,0 -0.026,-10.479 -9.128,5.262 0.027,10.485 z"
         style="fill:#a5b4b5;fill-opacity:1;fill-rule:nonzero;stroke:none"
         id="path265367"
         inkscape:connector-curvature="0" />
    </g>
    <g
       id="g265369"
       transform="matrix(0.35277777,0,0,-0.35277777,46.57777,218.429)">
      <path
         d="m 0,0 -0.023,-10.482 -1.512,0.89 0.027,10.483 z"
         style="fill:#ffffff;fill-opacity:1;fill-rule:nonzero;stroke:none"
         id="path265371"
         inkscape:connector-curvature="0" />
    </g>
    <g
       id="g265373"
       transform="matrix(0.35277777,0,0,-0.35277777,47.1793,222.9765)">
      <path
         d="M 0,0 -7.064,4.123 C -7.402,4.318 -7.571,4.572 -7.571,4.83 L -7.572,3.969 c 0,-0.256 0.168,-0.514 0.508,-0.707 L 0,-0.859 c 0.67,-0.387 1.754,-0.387 2.424,0 V 0 C 1.758,-0.385 0.674,-0.385 0,0"
         style="fill:#e5e5e5;fill-opacity:1;fill-rule:nonzero;stroke:none"
         id="path265375"
         inkscape:connector-curvature="0" />
    </g>
    <g
       id="g265377"
       transform="matrix(0.35277777,0,0,-0.35277777,48.034354,222.9765)">
      <path
         d="M 0,0 C -0.666,-0.385 -1.75,-0.385 -2.424,0 L -9.488,4.123 C -10.16,4.51 -10.162,5.139 -9.497,5.525 Z"
         style="fill:#ffffff;fill-opacity:1;fill-rule:nonzero;stroke:none"
         id="path265379"
         inkscape:connector-curvature="0" />
    </g>
    <g
       id="g265381"
       transform="matrix(0.35277777,0,0,-0.35277777,52.640114,221.84652)">
      <path
         d="m 0,0 -0.032,-10.484 -9.125,5.263 0.032,10.489 z"
         style="fill:#a5b4b5;fill-opacity:1;fill-rule:nonzero;stroke:none"
         id="path265383"
         inkscape:connector-curvature="0" />
    </g>
    <g
       id="g265385"
       transform="matrix(0.35277777,0,0,-0.35277777,51.220043,221.02313)">
      <path
         d="m 0,0 -0.024,-10.486 -1.509,0.89 0.024,10.487 z"
         style="fill:#ffffff;fill-opacity:1;fill-rule:nonzero;stroke:none"
         id="path265387"
         inkscape:connector-curvature="0" />
    </g>
    <g
       id="g265389"
       transform="matrix(0.35277777,0,0,-0.35277777,51.833294,225.59479)">
      <path
         d="M 0,0 -7.06,4.127 C -7.399,4.318 -7.571,4.572 -7.571,4.832 V 3.965 c 0,-0.252 0.17,-0.506 0.508,-0.697 L 0,-0.857 c 0.67,-0.385 1.756,-0.385 2.427,0 V 0.004 C 1.763,-0.383 0.677,-0.391 0,0"
         style="fill:#e5e5e5;fill-opacity:1;fill-rule:nonzero;stroke:none"
         id="path265391"
         inkscape:connector-curvature="0" />
    </g>
    <g
       id="g265393"
       transform="matrix(0.35277777,0,0,-0.35277777,52.68938,225.59341)">
      <path
         d="m 0,0 c -0.664,-0.387 -1.75,-0.395 -2.427,-0.004 l -7.059,4.127 c -0.678,0.385 -0.678,1.016 -0.01,1.402 z"
         style="fill:#ffffff;fill-opacity:1;fill-rule:nonzero;stroke:none"
         id="path265395"
         inkscape:connector-curvature="0" />
    </g>
    <g
       id="g265397"
       transform="matrix(0.35277777,0,0,-0.35277777,35.164174,203.67154)">
      <path
         d="m 0,0 -0.042,-15.33 -13.349,7.701 0.044,15.328 z"
         style="fill:#848484;fill-opacity:1;fill-rule:nonzero;stroke:none"
         id="path265399"
         inkscape:connector-curvature="0" />
    </g>
    <g
       id="g265401"
       transform="matrix(0.35277777,0,0,-0.35277777,33.105399,202.48647)">
      <path
         d="m 0,0 -0.038,-15.324 -2.209,1.299 0.042,15.334 z"
         style="fill:#ffffff;fill-opacity:1;fill-rule:nonzero;stroke:none"
         id="path265403"
         inkscape:connector-curvature="0" />
    </g>
    <g
       id="g265405"
       transform="matrix(0.35277777,0,0,-0.35277777,33.984239,209.1341)">
      <path
         d="m 0,0 -10.331,6.029 c -0.491,0.282 -0.737,0.657 -0.737,1.035 l -0.006,-1.261 c 0,-0.373 0.247,-0.752 0.741,-1.033 L 0,-1.256 c 0.979,-0.572 2.564,-0.566 3.546,0 V 0 C 2.568,-0.564 0.987,-0.564 0,0"
         style="fill:#e5e5e5;fill-opacity:1;fill-rule:nonzero;stroke:none"
         id="path265407"
         inkscape:connector-curvature="0" />
    </g>
    <g
       id="g265409"
       transform="matrix(0.35277777,0,0,-0.35277777,35.235162,209.1341)">
      <path
         d="m 0,0 c -0.978,-0.564 -2.559,-0.564 -3.546,0 l -10.331,6.029 c -0.977,0.565 -0.982,1.487 -0.011,2.051 z"
         style="fill:#ffffff;fill-opacity:1;fill-rule:nonzero;stroke:none"
         id="path265411"
         inkscape:connector-curvature="0" />
    </g>
    <g
       id="g265413"
       transform="matrix(0.35277777,0,0,-0.35277777,41.971348,207.48117)">
      <path
         d="m 0,0 -0.048,-15.338 -13.348,7.705 0.047,15.334 z"
         style="fill:#848484;fill-opacity:1;fill-rule:nonzero;stroke:none"
         id="path265415"
         inkscape:connector-curvature="0" />
    </g>
    <g
       id="g265417"
       transform="matrix(0.35277777,0,0,-0.35277777,39.894289,206.27745)">
      <path
         d="m 0,0 -0.035,-15.334 -2.207,1.301 0.032,15.33 z"
         style="fill:#ffffff;fill-opacity:1;fill-rule:nonzero;stroke:none"
         id="path265419"
         inkscape:connector-curvature="0" />
    </g>
    <g
       id="g265421"
       transform="matrix(0.35277777,0,0,-0.35277777,40.789322,212.96369)">
      <path
         d="m 0,0 -10.321,6.035 c -0.495,0.281 -0.746,0.651 -0.746,1.031 L -11.07,5.807 c 0,-0.375 0.248,-0.748 0.743,-1.036 L 0,-1.254 c 0.983,-0.566 2.572,-0.566 3.551,0 v 1.26 C 2.576,-0.563 0.989,-0.568 0,0"
         style="fill:#e5e5e5;fill-opacity:1;fill-rule:nonzero;stroke:none"
         id="path265423"
         inkscape:connector-curvature="0" />
    </g>
    <g
       id="g265425"
       transform="matrix(0.35277777,0,0,-0.35277777,42.041965,212.9616)">
      <path
         d="m 0,0 c -0.975,-0.568 -2.562,-0.574 -3.551,-0.006 l -10.321,6.035 c -0.985,0.559 -0.985,1.485 -0.013,2.055 z"
         style="fill:#ffffff;fill-opacity:1;fill-rule:nonzero;stroke:none"
         id="path265427"
         inkscape:connector-curvature="0" />
    </g>
    <g
       id="g265429"
       transform="matrix(0.35277777,0,0,-0.35277777,35.164174,212.95334)">
      <path
         d="m 0,0 -0.042,-15.33 -13.349,7.699 0.044,15.332 z"
         style="fill:#848484;fill-opacity:1;fill-rule:nonzero;stroke:none"
         id="path265431"
         inkscape:connector-curvature="0" />
    </g>
    <g
       id="g265433"
       transform="matrix(0.35277777,0,0,-0.35277777,33.105399,211.76756)">
      <path
         d="m 0,0 -0.038,-15.328 -2.209,1.301 0.042,15.332 z"
         style="fill:#ffffff;fill-opacity:1;fill-rule:nonzero;stroke:none"
         id="path265435"
         inkscape:connector-curvature="0" />
    </g>
    <g
       id="g265437"
       transform="matrix(0.35277777,0,0,-0.35277777,33.984239,218.41656)">
      <path
         d="m 0,0 -10.331,6.031 c -0.491,0.282 -0.737,0.655 -0.737,1.035 l -0.006,-1.261 c 0,-0.375 0.247,-0.752 0.741,-1.034 L 0,-1.256 c 0.979,-0.568 2.564,-0.566 3.546,0 V 0 C 2.568,-0.563 0.987,-0.563 0,0"
         style="fill:#e5e5e5;fill-opacity:1;fill-rule:nonzero;stroke:none"
         id="path265439"
         inkscape:connector-curvature="0" />
    </g>
    <g
       id="g265441"
       transform="matrix(0.35277777,0,0,-0.35277777,35.235162,218.41656)">
      <path
         d="m 0,0 c -0.978,-0.563 -2.559,-0.563 -3.546,0 l -10.331,6.031 c -0.977,0.565 -0.982,1.487 -0.011,2.053 z"
         style="fill:#ffffff;fill-opacity:1;fill-rule:nonzero;stroke:none"
         id="path265443"
         inkscape:connector-curvature="0" />
    </g>
    <g
       id="g265445"
       transform="matrix(0.35277777,0,0,-0.35277777,41.971348,216.76292)">
      <path
         d="m 0,0 -0.048,-15.338 -13.348,7.701 0.047,15.34 z"
         style="fill:#848484;fill-opacity:1;fill-rule:nonzero;stroke:none"
         id="path265447"
         inkscape:connector-curvature="0" />
    </g>
    <g
       id="g265449"
       transform="matrix(0.35277777,0,0,-0.35277777,39.894289,215.5606)">
      <path
         d="m 0,0 -0.035,-15.33 -2.207,1.301 0.032,15.33 z"
         style="fill:#ffffff;fill-opacity:1;fill-rule:nonzero;stroke:none"
         id="path265451"
         inkscape:connector-curvature="0" />
    </g>
    <g
       id="g265453"
       transform="matrix(0.35277777,0,0,-0.35277777,40.789322,222.24545)">
      <path
         d="m 0,0 -10.321,6.035 c -0.495,0.281 -0.746,0.651 -0.746,1.031 L -11.07,5.805 c 0,-0.373 0.248,-0.746 0.743,-1.032 L 0,-1.252 c 0.983,-0.568 2.572,-0.568 3.551,0 V 0.006 C 2.576,-0.561 0.989,-0.568 0,0"
         style="fill:#e5e5e5;fill-opacity:1;fill-rule:nonzero;stroke:none"
         id="path265455"
         inkscape:connector-curvature="0" />
    </g>
    <g
       id="g265457"
       transform="matrix(0.35277777,0,0,-0.35277777,42.041965,222.24339)">
      <path
         d="m 0,0 c -0.975,-0.566 -2.562,-0.574 -3.551,-0.006 l -10.321,6.035 c -0.985,0.559 -0.985,1.485 -0.013,2.053 z"
         style="fill:#ffffff;fill-opacity:1;fill-rule:nonzero;stroke:none"
         id="path265459"
         inkscape:connector-curvature="0" />
    </g>
    <g
       id="g265461"
       transform="matrix(0.35277777,0,0,-0.35277777,50.954454,191.63509)">
      <path
         d="M 0,0 0.009,-2.869 6.128,-6.428 6.119,-3.555 Z"
         style="fill:#dddddd;fill-opacity:1;fill-rule:nonzero;stroke:none"
         id="path265463"
         inkscape:connector-curvature="0" />
    </g>
    <g
       id="g265465"
       transform="matrix(0.35277777,0,0,-0.35277777,53.113136,192.88911)">
      <path
         d="M 0,0 0.009,-2.873 13.908,5.152 13.9,8.023 Z"
         style="fill:#c7c9c9;fill-opacity:1;fill-rule:nonzero;stroke:none"
         id="path265467"
         inkscape:connector-curvature="0" />
    </g>
    <g
       id="g265469"
       transform="matrix(0.35277777,0,0,-0.35277777,50.954454,191.63509)">
      <path
         d="M 0,0 6.119,-3.555 20.02,4.469 13.899,8.023 Z"
         style="fill:#f4f4f4;fill-opacity:1;fill-rule:nonzero;stroke:none"
         id="path265471"
         inkscape:connector-curvature="0" />
    </g>
    <g
       transform="matrix(0.35277777,0,0,-0.35277777,-884.49818,480.78194)"
       id="g265473">
      <g
         id="g265475" />
      <g
         id="g265487">
        <g
           clip-path="url(#clipPath265479)"
           id="g265485"
           style="opacity:0.19000202">
          <g
             transform="translate(2588.2471,737.6133)"
             id="g265483">
            <path
               d="M 0,0 C 2.313,-1.336 2.332,-3.508 0.03,-4.846 -2.271,-6.182 -6.012,-6.178 -8.33,-4.842 -10.643,-3.508 -10.658,-1.336 -8.359,0 -6.058,1.338 -2.313,1.336 0,0"
               style="fill:#181816;fill-opacity:1;fill-rule:nonzero;stroke:none"
               id="path265481"
               inkscape:connector-curvature="0" />
          </g>
        </g>
      </g>
    </g>
    <g
       id="g265489"
       transform="matrix(0.35277777,0,0,-0.35277777,26.698196,218.01556)">
      <path
         d="m 0,0 -1.066,1.084 c -0.322,0.318 -0.725,0.729 -0.69,1.91 V 7.797 H -1.938 V 2.789 c 0,-1.127 0.286,-1.51 0.772,-1.998 0.719,-0.713 0.903,-0.99 1.219,-1.307 v 0.391 z"
         style="fill:#775a20;fill-opacity:1;fill-rule:nonzero;stroke:none"
         id="path265491"
         inkscape:connector-curvature="0" />
    </g>
    <g
       id="g265493"
       transform="matrix(0.35277777,0,0,-0.35277777,26.59522,215.87201)">
      <path
         d="m 0,0 0.823,-0.02 0.463,-15.74 c 0,0 -0.096,-0.72 -0.913,-0.72 -0.839,0 -0.884,0.709 -0.884,0.709 z"
         style="fill:#775a20;fill-opacity:1;fill-rule:nonzero;stroke:none"
         id="path265495"
         inkscape:connector-curvature="0" />
    </g>
    <g
       id="g265497"
       transform="matrix(0.35277777,0,0,-0.35277777,26.968309,218.4717)">
      <path
         d="M 0,0 V 0 C 0.361,0.365 0.567,0.861 0.567,1.373 V 7.484 H 0.848 V 1.221 c 0,-0.811 -0.327,-1.592 -0.899,-2.168 z"
         style="fill:#775a20;fill-opacity:1;fill-rule:nonzero;stroke:none"
         id="path265499"
         inkscape:connector-curvature="0" />
    </g>
    <g
       id="g265501"
       transform="matrix(0.35277777,0,0,-0.35277777,27.271125,217.16117)">
      <path
         d="m 0,0 0.766,0.775 c 0.226,0.229 0.518,0.522 0.49,1.368 v 3.441 h 0.13 V 1.996 C 1.386,1.188 1.183,0.914 0.832,0.564 0.317,0.053 0.185,-0.146 -0.039,-0.367 v 0.277 z"
         style="fill:#c4b08d;fill-opacity:1;fill-rule:nonzero;stroke:none"
         id="path265503"
         inkscape:connector-curvature="0" />
    </g>
    <g
       id="g265505"
       transform="matrix(0.35277777,0,0,-0.35277777,30.052689,214.91221)">
      <path
         d="m 0,0 c 0,1.004 -0.73,1.838 -1.685,2.014 -0.08,1.83 -1.586,3.297 -3.437,3.297 -0.264,0 -0.516,-0.034 -0.762,-0.092 -0.279,1.013 -1.2,1.76 -2.293,1.76 -0.552,0 -1.054,-0.19 -1.459,-0.499 -0.549,0.624 -1.352,1.02 -2.251,1.02 -1.628,0 -2.946,-1.295 -2.995,-2.912 -0.044,0.002 -0.082,0.008 -0.128,0.008 -1.512,0 -2.733,-1.221 -2.733,-2.729 0,-0.066 0.008,-0.131 0.013,-0.191 -0.767,-0.377 -1.287,-1.158 -1.287,-2.065 0,-1.023 0.676,-1.89 1.6,-2.189 0,-0.049 -0.003,-0.098 -0.003,-0.152 0,-2.334 1.894,-4.229 4.229,-4.229 0.49,0 0.958,0.09 1.397,0.242 0.619,-0.777 1.561,-1.273 2.617,-1.273 1.349,0 2.507,0.804 3.045,1.967 0.356,-0.129 0.744,-0.202 1.146,-0.202 1.902,0 3.447,1.547 3.447,3.448 0,0.267 -0.032,0.523 -0.092,0.771 C -0.704,-1.811 0,-0.986 0,0"
         style="fill:#4b6d0f;fill-opacity:1;fill-rule:nonzero;stroke:none"
         id="path265507"
         inkscape:connector-curvature="0" />
    </g>
    <g
       id="g265509"
       transform="matrix(0.35277777,0,0,-0.35277777,25.302254,214.26385)">
      <path
         d="m 0,0 c -0.006,0.041 -0.006,0.082 -0.006,0.121 0,1.166 0.943,2.106 2.11,2.106 0.862,0 1.603,-0.514 1.927,-1.26 0.274,0.228 0.776,0.576 1.093,0.635 2.866,0.597 2.872,-2.69 2.962,-2.612 0.13,0.117 0.523,1.928 -0.732,2.934 -1.821,1.455 -3.12,0.461 -3.414,0.361 -0.325,0.746 -1.225,1.41 -2.092,1.41 -1.163,0 -2.06,-0.752 -2.06,-1.916 0,-0.039 -0.079,-0.679 -0.075,-0.716 -0.639,-0.141 -1.828,-0.842 -1.828,-2.079 0,-0.414 0.093,-0.808 0.252,-1.164 C -1.681,-1.162 -0.959,-0.334 0,0"
         style="fill:#71991c;fill-opacity:1;fill-rule:nonzero;stroke:none"
         id="path265511"
         inkscape:connector-curvature="0" />
    </g>
    <g
       id="g265513"
       transform="matrix(0.35277777,0,0,-0.35277777,27.031359,214.69724)">
      <path
         d="m 0,0 c 0.804,-0.283 1.325,-1.004 1.385,-1.803 0.386,0.178 1.126,-0.078 1.428,-0.185 1.31,-0.453 1.729,-1.727 1.335,-3.071 0.242,0.241 0.431,0.534 0.547,0.875 0.433,1.227 -0.217,2.575 -1.448,3.006 C 2.995,-1.09 2.731,-1.047 2.479,-1.047 2.427,-0.379 1.993,0.229 1.316,0.461 0.69,0.68 0.022,0.518 -0.433,0.098 -0.29,0.082 -0.144,0.047 0,0"
         style="fill:#71991c;fill-opacity:1;fill-rule:nonzero;stroke:none"
         id="path265515"
         inkscape:connector-curvature="0" />
    </g>
    <g
       transform="matrix(0.35277777,0,0,-0.35277777,-884.49818,480.78194)"
       id="g265517">
      <g
         id="g265519" />
      <g
         id="g265531">
        <g
           clip-path="url(#clipPath265523)"
           id="g265529"
           style="opacity:0.19000202">
          <g
             transform="translate(2740.0625,733.6211)"
             id="g265527">
            <path
               d="m 0,0 c 3.746,-2.164 3.771,-5.676 0.049,-7.842 -3.724,-2.16 -9.776,-2.152 -13.521,0.008 -3.742,2.158 -3.772,5.67 -0.051,7.834 3.721,2.162 9.78,2.154 13.523,0"
               style="fill:#181816;fill-opacity:1;fill-rule:nonzero;stroke:none"
               id="path265525"
               inkscape:connector-curvature="0" />
          </g>
        </g>
      </g>
    </g>
    <g
       id="g265533"
       transform="matrix(0.35277777,0,0,-0.35277777,79.09432,217.84882)">
      <path
         d="m 0,0 -1.726,1.754 c -0.515,0.517 -1.173,1.18 -1.115,3.094 v 7.771 H -3.13 V 4.514 c 0,-1.825 0.459,-2.444 1.244,-3.233 1.165,-1.154 1.461,-1.603 1.971,-2.115 v 0.631 z"
         style="fill:#775a20;fill-opacity:1;fill-rule:nonzero;stroke:none"
         id="path265535"
         inkscape:connector-curvature="0" />
    </g>
    <g
       id="g265537"
       transform="matrix(0.35277777,0,0,-0.35277777,78.928268,214.38029)">
      <path
         d="m 0,0 1.329,-0.033 0.749,-25.463 c 0,0 -0.148,-1.164 -1.475,-1.164 -1.358,0 -1.432,1.144 -1.432,1.144 z"
         style="fill:#775a20;fill-opacity:1;fill-rule:nonzero;stroke:none"
         id="path265539"
         inkscape:connector-curvature="0" />
    </g>
    <g
       id="g265541"
       transform="matrix(0.35277777,0,0,-0.35277777,79.530115,218.58608)">
      <path
         d="m 0,0 v 0 c 0.59,0.59 0.924,1.396 0.924,2.223 v 9.882 H 1.377 V 1.971 c 0,-1.307 -0.529,-2.575 -1.457,-3.502 z"
         style="fill:#775a20;fill-opacity:1;fill-rule:nonzero;stroke:none"
         id="path265543"
         inkscape:connector-curvature="0" />
    </g>
    <g
       id="g265545"
       transform="matrix(0.35277777,0,0,-0.35277777,80.020362,216.46732)">
      <path
         d="M 0,0 1.237,1.26 C 1.607,1.627 2.08,2.102 2.036,3.465 V 9.029 H 2.245 V 3.232 C 2.245,1.926 1.918,1.482 1.349,0.914 0.517,0.084 0.299,-0.23 -0.062,-0.598 v 0.452 z"
         style="fill:#c4b08d;fill-opacity:1;fill-rule:nonzero;stroke:none"
         id="path265547"
         inkscape:connector-curvature="0" />
    </g>
    <g
       id="g265549"
       transform="matrix(0.35277777,0,0,-0.35277777,84.521348,212.82793)">
      <path
         d="m 0,0 c 0,1.623 -1.18,2.973 -2.727,3.256 -0.128,2.961 -2.564,5.334 -5.558,5.334 -0.428,0 -0.836,-0.055 -1.236,-0.145 -0.447,1.637 -1.936,2.84 -3.713,2.84 -0.89,0 -1.704,-0.305 -2.353,-0.806 -0.888,1.009 -2.19,1.652 -3.645,1.652 -2.628,0 -4.766,-2.094 -4.844,-4.709 -0.07,0 -0.134,0.012 -0.207,0.012 -2.446,0 -4.42,-1.981 -4.42,-4.418 0,-0.106 0.009,-0.205 0.017,-0.307 -1.236,-0.611 -2.08,-1.877 -2.08,-3.338 0,-1.656 1.096,-3.06 2.588,-3.543 0,-0.078 -0.006,-0.156 -0.006,-0.242 0,-3.783 3.065,-6.844 6.842,-6.844 0.796,0 1.553,0.143 2.26,0.391 1.004,-1.254 2.527,-2.059 4.239,-2.059 2.177,0 4.053,1.301 4.921,3.18 0.574,-0.207 1.205,-0.324 1.852,-0.324 3.082,0 5.58,2.498 5.58,5.58 0,0.427 -0.055,0.844 -0.15,1.244 C -1.138,-2.928 0,-1.596 0,0"
         style="fill:#4b6d0f;fill-opacity:1;fill-rule:nonzero;stroke:none"
         id="path265551"
         inkscape:connector-curvature="0" />
    </g>
    <g
       id="g265553"
       transform="matrix(0.35277777,0,0,-0.35277777,76.836049,211.77928)">
      <path
         d="m 0,0 c -0.008,0.066 -0.008,0.131 -0.008,0.199 0,1.881 1.525,3.403 3.411,3.403 C 4.8,3.602 6,2.77 6.521,1.564 c 0.446,0.37 1.255,0.926 1.77,1.03 4.634,0.961 4.645,-4.358 4.791,-4.229 0.209,0.188 0.848,3.115 -1.186,4.746 C 8.95,5.469 6.848,3.861 6.377,3.697 5.849,4.902 4.392,5.98 2.994,5.98 1.11,5.98 -0.341,4.76 -0.341,2.879 -0.341,2.816 -0.47,1.775 -0.465,1.713 -1.493,1.488 -3.418,0.357 -3.418,-1.646 c 0,-0.665 0.149,-1.303 0.41,-1.879 C -2.718,-1.881 -1.55,-0.539 0,0"
         style="fill:#71991c;fill-opacity:1;fill-rule:nonzero;stroke:none"
         id="path265555"
         inkscape:connector-curvature="0" />
    </g>
    <g
       id="g265557"
       transform="matrix(0.35277777,0,0,-0.35277777,79.63415,212.48138)">
      <path
         d="m 0,0 c 1.3,-0.457 2.141,-1.625 2.237,-2.914 0.623,0.291 1.824,-0.127 2.314,-0.299 2.117,-0.738 2.796,-2.793 2.16,-4.973 0.387,0.391 0.692,0.866 0.883,1.418 0.7,1.987 -0.356,4.172 -2.346,4.864 C 4.839,-1.76 4.415,-1.691 4.008,-1.689 3.927,-0.613 3.221,0.371 2.13,0.748 1.117,1.105 0.034,0.84 -0.704,0.158 -0.471,0.131 -0.232,0.08 0,0"
         style="fill:#71991c;fill-opacity:1;fill-rule:nonzero;stroke:none"
         id="path265559"
         inkscape:connector-curvature="0" />
    </g>
    <g
       transform="matrix(0.35277777,0,0,-0.35277777,-884.49818,480.78194)"
       id="g265561">
      <g
         id="g265563" />
      <g
         id="g265575">
        <g
           clip-path="url(#clipPath265567)"
           id="g265573"
           style="opacity:0.19000202">
          <g
             transform="translate(2690.5098,699.7676)"
             id="g265571">
            <path
               d="M 0,0 C 3.156,-1.82 3.179,-4.783 0.04,-6.613 -3.099,-8.434 -8.202,-8.426 -11.363,-6.605 -14.519,-4.783 -14.544,-1.82 -11.405,0 -8.265,1.826 -3.155,1.818 0,0"
               style="fill:#181816;fill-opacity:1;fill-rule:nonzero;stroke:none"
               id="path265569"
               inkscape:connector-curvature="0" />
          </g>
        </g>
      </g>
    </g>
    <g
       id="g265577"
       transform="matrix(0.35277777,0,0,-0.35277777,62.089655,230.43653)">
      <path
         d="m 0,0 -1.458,1.477 c -0.431,0.435 -0.987,0.996 -0.937,2.609 v 6.553 H -2.642 V 3.807 c 0,-1.545 0.389,-2.063 1.051,-2.727 0.983,-0.976 1.23,-1.353 1.663,-1.783 v 0.527 z"
         style="fill:#775a20;fill-opacity:1;fill-rule:nonzero;stroke:none"
         id="path265579"
         inkscape:connector-curvature="0" />
    </g>
    <g
       id="g265581"
       transform="matrix(0.35277777,0,0,-0.35277777,61.948765,227.5123)">
      <path
         d="m 0,0 1.12,-0.031 0.634,-21.473 c 0,0 -0.125,-0.98 -1.245,-0.98 -1.144,0 -1.207,0.966 -1.207,0.966 z"
         style="fill:#775a20;fill-opacity:1;fill-rule:nonzero;stroke:none"
         id="path265583"
         inkscape:connector-curvature="0" />
    </g>
    <g
       id="g265585"
       transform="matrix(0.35277777,0,0,-0.35277777,62.456897,231.05939)">
      <path
         d="m 0,0 v 0 c 0.496,0.496 0.779,1.176 0.779,1.879 v 8.332 H 1.16 V 1.664 c 0,-1.103 -0.445,-2.172 -1.224,-2.953 z"
         style="fill:#775a20;fill-opacity:1;fill-rule:nonzero;stroke:none"
         id="path265587"
         inkscape:connector-curvature="0" />
    </g>
    <g
       id="g265589"
       transform="matrix(0.35277777,0,0,-0.35277777,62.870679,229.27273)">
      <path
         d="m 0,0 1.045,1.066 c 0.31,0.309 0.709,0.707 0.671,1.858 V 7.617 H 1.893 V 2.729 C 1.893,1.625 1.615,1.252 1.136,0.775 0.434,0.074 0.253,-0.195 -0.055,-0.502 v 0.379 z"
         style="fill:#c4b08d;fill-opacity:1;fill-rule:nonzero;stroke:none"
         id="path265591"
         inkscape:connector-curvature="0" />
    </g>
    <g
       id="g265593"
       transform="matrix(0.35277777,0,0,-0.35277777,66.665783,226.20248)">
      <path
         d="m 0,0 c 0,1.367 -0.993,2.508 -2.3,2.742 -0.108,2.498 -2.16,4.5 -4.687,4.5 -0.363,0 -0.706,-0.047 -1.039,-0.123 -0.377,1.381 -1.637,2.397 -3.13,2.397 -0.753,0 -1.439,-0.258 -1.987,-0.682 -0.75,0.852 -1.847,1.395 -3.075,1.395 -2.216,0 -4.021,-1.77 -4.083,-3.973 -0.06,0.004 -0.114,0.012 -0.177,0.012 -2.059,0 -3.726,-1.67 -3.726,-3.725 0,-0.086 0.009,-0.178 0.016,-0.26 -1.043,-0.515 -1.754,-1.582 -1.754,-2.816 0,-1.395 0.921,-2.58 2.18,-2.987 0,-0.066 -0.006,-0.132 -0.006,-0.205 0,-3.189 2.585,-5.773 5.771,-5.773 0.671,0 1.31,0.125 1.906,0.332 0.847,-1.059 2.129,-1.738 3.574,-1.738 1.838,0 3.417,1.099 4.151,2.683 0.486,-0.175 1.014,-0.273 1.564,-0.273 2.595,0 4.703,2.107 4.703,4.705 0,0.361 -0.046,0.711 -0.125,1.049 C -0.96,-2.473 0,-1.348 0,0"
         style="fill:#4b6d0f;fill-opacity:1;fill-rule:nonzero;stroke:none"
         id="path265595"
         inkscape:connector-curvature="0" />
    </g>
    <g
       id="g265597"
       transform="matrix(0.35277777,0,0,-0.35277777,60.184867,225.3178)">
      <path
         d="m 0,0 c -0.007,0.051 -0.007,0.109 -0.007,0.162 0,1.592 1.284,2.873 2.876,2.873 1.179,0 2.191,-0.703 2.63,-1.719 0.378,0.309 1.059,0.784 1.494,0.87 3.908,0.808 3.917,-3.676 4.038,-3.567 0.178,0.156 0.717,2.627 -0.998,4.002 C 7.551,4.609 5.776,3.254 5.376,3.113 4.932,4.131 3.705,5.039 2.523,5.039 c -1.589,0 -2.81,-1.027 -2.81,-2.613 0,-0.053 -0.109,-0.932 -0.107,-0.981 -0.865,-0.191 -2.489,-1.146 -2.489,-2.836 0,-0.56 0.125,-1.097 0.345,-1.586 C -2.294,-1.59 -1.306,-0.455 0,0"
         style="fill:#71991c;fill-opacity:1;fill-rule:nonzero;stroke:none"
         id="path265599"
         inkscape:connector-curvature="0" />
    </g>
    <g
       id="g265601"
       transform="matrix(0.35277777,0,0,-0.35277777,62.543363,225.91173)">
      <path
         d="m 0,0 c 1.099,-0.383 1.811,-1.367 1.892,-2.453 0.523,0.242 1.536,-0.111 1.948,-0.252 1.787,-0.621 2.359,-2.358 1.821,-4.195 0.33,0.33 0.588,0.732 0.747,1.193 0.593,1.678 -0.301,3.519 -1.975,4.103 -0.348,0.122 -0.706,0.18 -1.048,0.182 C 3.314,-0.512 2.72,0.314 1.799,0.633 0.945,0.934 0.032,0.711 -0.589,0.137 -0.394,0.113 -0.192,0.07 0,0"
         style="fill:#71991c;fill-opacity:1;fill-rule:nonzero;stroke:none"
         id="path265603"
         inkscape:connector-curvature="0" />
    </g>
  </g>
</svg>
