<?xml version="1.0" encoding="UTF-8" standalone="no"?>
<!-- Created with Inkscape (http://www.inkscape.org/) -->

<svg
   xmlns:dc="http://purl.org/dc/elements/1.1/"
   xmlns:cc="http://creativecommons.org/ns#"
   xmlns:rdf="http://www.w3.org/1999/02/22-rdf-syntax-ns#"
   xmlns:svg="http://www.w3.org/2000/svg"
   xmlns="http://www.w3.org/2000/svg"
   xmlns:sodipodi="http://sodipodi.sourceforge.net/DTD/sodipodi-0.dtd"
   xmlns:inkscape="http://www.inkscape.org/namespaces/inkscape"
   width="58.659187mm"
   height="62.950771mm"
   viewBox="0 0 58.659187 62.950772"
   version="1.1"
   id="svg7849"
   inkscape:version="0.92.3 (2405546, 2018-03-11)"
   sodipodi:docname="apartemant-5.svg">
  <defs
     id="defs7843">
    <clipPath
       clipPathUnits="userSpaceOnUse"
       id="clipPath268371">
      <path
         d="m 2638.13,1022.34 h 17.02 v -5.39 h -17.02 z"
         id="path268369"
         inkscape:connector-curvature="0" />
    </clipPath>
    <clipPath
       clipPathUnits="userSpaceOnUse"
       id="clipPath268283">
      <path
         d="m 2612.37,1037.73 h 17.01 v -5.39 h -17.01 z"
         id="path268281"
         inkscape:connector-curvature="0" />
    </clipPath>
    <clipPath
       clipPathUnits="userSpaceOnUse"
       id="clipPath268175">
      <path
         d="m 2657.86,893.833 h 7.86 v -4.559 h -7.86 z"
         id="path268173"
         inkscape:connector-curvature="0" />
    </clipPath>
    <clipPath
       clipPathUnits="userSpaceOnUse"
       id="clipPath268139">
      <path
         d="m 2579.91,920.235 h 11.84 v -6.852 h -11.84 z"
         id="path268137"
         inkscape:connector-curvature="0" />
    </clipPath>
    <clipPath
       clipPathUnits="userSpaceOnUse"
       id="clipPath268103">
      <path
         d="m 2689.5,913.62 h 8.71 v -5.049 h -8.71 z"
         id="path268101"
         inkscape:connector-curvature="0" />
    </clipPath>
    <clipPath
       clipPathUnits="userSpaceOnUse"
       id="clipPath268067">
      <path
         d="m 2628.79,890.519 h 14.99 v -8.686 h -14.99 z"
         id="path268065"
         inkscape:connector-curvature="0" />
    </clipPath>
    <clipPath
       clipPathUnits="userSpaceOnUse"
       id="clipPath268007">
      <path
         d="m 2624.01,930.389 h 75.93 v -39.254 h -75.93 z"
         id="path268005"
         inkscape:connector-curvature="0" />
    </clipPath>
    <clipPath
       clipPathUnits="userSpaceOnUse"
       id="clipPath263687">
      <path
         d="m 2487.57,715.024 h 11.39 v -6.59 h -11.39 z"
         id="path263685"
         inkscape:connector-curvature="0" />
    </clipPath>
    <clipPath
       clipPathUnits="userSpaceOnUse"
       id="clipPath263643">
      <path
         d="m 2512.64,705.624 h 11.38 v -6.593 h -11.38 z"
         id="path263641"
         inkscape:connector-curvature="0" />
    </clipPath>
    <clipPath
       clipPathUnits="userSpaceOnUse"
       id="clipPath263599">
      <path
         d="m 2509.1,727.396 h 8.73 v -5.056 h -8.73 z"
         id="path263597"
         inkscape:connector-curvature="0" />
    </clipPath>
    <clipPath
       clipPathUnits="userSpaceOnUse"
       id="clipPath263555">
      <path
         d="m 2525.22,720.817 h 15.97 v -9.251 h -15.97 z"
         id="path263553"
         inkscape:connector-curvature="0" />
    </clipPath>
    <clipPath
       clipPathUnits="userSpaceOnUse"
       id="clipPath263495">
      <path
         d="m 2485.95,689.97 h 9.12 v -5.283 h -9.12 z"
         id="path263493"
         inkscape:connector-curvature="0" />
    </clipPath>
    <clipPath
       clipPathUnits="userSpaceOnUse"
       id="clipPath263479">
      <path
         d="m 2400.79,847.809 h 64.78 v -55.008 h -64.78 z"
         id="path263477"
         inkscape:connector-curvature="0" />
    </clipPath>
    <clipPath
       clipPathUnits="userSpaceOnUse"
       id="clipPath263323">
      <path
         d="m 2433.08,748.869 h 89 v -44.933 h -89 z"
         id="path263321"
         inkscape:connector-curvature="0" />
    </clipPath>
  </defs>
  <sodipodi:namedview
     id="base"
     pagecolor="#ffffff"
     bordercolor="#666666"
     borderopacity="1.0"
     inkscape:pageopacity="0.0"
     inkscape:pageshadow="2"
     inkscape:zoom="0.35"
     inkscape:cx="110.85201"
     inkscape:cy="118.9621"
     inkscape:document-units="mm"
     inkscape:current-layer="layer1"
     showgrid="false"
     fit-margin-top="0"
     fit-margin-left="0"
     fit-margin-right="0"
     fit-margin-bottom="0"
     inkscape:window-width="1366"
     inkscape:window-height="716"
     inkscape:window-x="-8"
     inkscape:window-y="-8"
     inkscape:window-maximized="1" />
  <metadata
     id="metadata7846">
    <rdf:RDF>
      <cc:Work
         rdf:about="">
        <dc:format>image/svg+xml</dc:format>
        <dc:type
           rdf:resource="http://purl.org/dc/dcmitype/StillImage" />
        <dc:title></dc:title>
      </cc:Work>
    </rdf:RDF>
  </metadata>
  <g
     inkscape:label="Layer 1"
     inkscape:groupmode="layer"
     id="layer1"
     transform="translate(106.81471,-117.35795)">
    <g
       id="g263309"
       transform="matrix(0.35277777,0,0,-0.35277777,-49.047348,167.83344)">
      <path
         d="m 0,0 -52.412,-30.553 c -3.385,-1.968 -8.89,-1.968 -12.297,0 l -96.464,55.692 c -1.715,0.988 -2.571,2.289 -2.567,3.584 l -0.01,-3.33 c -0.004,-1.299 0.854,-2.596 2.568,-3.59 l 96.459,-55.69 c 3.41,-1.968 8.916,-1.968 12.3,0 l 52.415,30.553 c 1.68,0.977 2.526,2.256 2.528,3.533 L 2.528,3.535 C 2.528,2.256 1.684,0.973 0,0"
         style="fill:#94b226;fill-opacity:1;fill-rule:nonzero;stroke:none"
         id="path263311"
         inkscape:connector-curvature="0" />
    </g>
    <g
       id="g263313"
       transform="matrix(0.35277777,0,0,-0.35277777,-49.060472,165.32061)">
      <path
         d="m 0,0 c 3.405,-1.971 3.423,-5.156 0.037,-7.123 l -52.412,-30.553 c -3.385,-1.969 -8.89,-1.969 -12.297,0 l -96.464,55.692 c -3.406,1.966 -3.425,5.154 -0.038,7.121 l 52.411,30.554 c 3.384,1.967 8.892,1.967 12.298,0 z"
         style="fill:#9ece4a;fill-opacity:1;fill-rule:nonzero;stroke:none"
         id="path263315"
         inkscape:connector-curvature="0" />
    </g>
    <g
       transform="matrix(0.35277777,0,0,-0.35277777,-948.27409,419.17176)"
       id="g263317">
      <g
         id="g263319" />
      <g
         id="g263331">
        <g
           clip-path="url(#clipPath263323)"
           id="g263329"
           style="opacity:0.130005">
          <g
             transform="translate(2522.0801,725.4473)"
             id="g263327">
            <path
               d="m 0,0 -38.149,-21.492 -20.966,-0.02 -29.882,17.074 47.94,27.86 z"
               style="fill:#060606;fill-opacity:1;fill-rule:nonzero;stroke:none"
               id="path263325"
               inkscape:connector-curvature="0" />
          </g>
        </g>
      </g>
    </g>
    <g
       id="g263333"
       transform="matrix(0.35277777,0,0,-0.35277777,-64.337381,132.16983)">
      <path
         d="m 0,0 -0.24,-84.943 -42.443,-24.662 0.24,84.941 z"
         style="fill:#c7c9c9;fill-opacity:1;fill-rule:nonzero;stroke:none"
         id="path263335"
         inkscape:connector-curvature="0" />
    </g>
    <g
       id="g263337"
       transform="matrix(0.35277777,0,0,-0.35277777,-79.310443,140.87073)">
      <path
         d="m 0,0 -0.239,-84.941 -72.437,41.984 0.238,84.945 z"
         style="fill:#dee0e0;fill-opacity:1;fill-rule:nonzero;stroke:none"
         id="path263339"
         inkscape:connector-curvature="0" />
    </g>
    <g
       id="g263341"
       transform="matrix(0.35277777,0,0,-0.35277777,-99.899737,131.35954)">
      <path
         d="m 0,0 -0.073,-19.52 -6.809,3.899 0.075,19.516 z"
         style="fill:#c7c9c9;fill-opacity:1;fill-rule:nonzero;stroke:none"
         id="path263343"
         inkscape:connector-curvature="0" />
    </g>
    <g
       id="g263345"
       transform="matrix(0.35277777,0,0,-0.35277777,-101.87718,130.24125)">
      <path
         d="m 0,0 -0.068,-18.105 5.605,-3.206 0.068,18.102 z"
         style="fill:#848484;fill-opacity:1;fill-rule:nonzero;stroke:none"
         id="path263347"
         inkscape:connector-curvature="0" />
    </g>
    <g
       id="g263349"
       transform="matrix(0.35277777,0,0,-0.35277777,-99.899737,140.61236)">
      <path
         d="m 0,0 -0.073,-19.52 -6.809,3.899 0.075,19.514 z"
         style="fill:#c7c9c9;fill-opacity:1;fill-rule:nonzero;stroke:none"
         id="path263351"
         inkscape:connector-curvature="0" />
    </g>
    <g
       id="g263353"
       transform="matrix(0.35277777,0,0,-0.35277777,-101.87718,139.4941)">
      <path
         d="m 0,0 -0.068,-18.105 5.605,-3.206 0.068,18.106 z"
         style="fill:#848484;fill-opacity:1;fill-rule:nonzero;stroke:none"
         id="path263355"
         inkscape:connector-curvature="0" />
    </g>
    <g
       id="g263357"
       transform="matrix(0.35277777,0,0,-0.35277777,-99.899737,149.8659)">
      <path
         d="m 0,0 -0.073,-19.518 -6.809,3.897 0.075,19.517 z"
         style="fill:#c7c9c9;fill-opacity:1;fill-rule:nonzero;stroke:none"
         id="path263359"
         inkscape:connector-curvature="0" />
    </g>
    <g
       id="g263361"
       transform="matrix(0.35277777,0,0,-0.35277777,-101.87718,148.74692)">
      <path
         d="m 0,0 -0.068,-18.107 5.605,-3.204 0.068,18.104 z"
         style="fill:#848484;fill-opacity:1;fill-rule:nonzero;stroke:none"
         id="path263363"
         inkscape:connector-curvature="0" />
    </g>
    <g
       id="g263365"
       transform="matrix(0.35277777,0,0,-0.35277777,-92.106223,135.85812)">
      <path
         d="m 0,0 -0.07,-19.516 -6.811,3.893 0.073,19.518 z"
         style="fill:#c7c9c9;fill-opacity:1;fill-rule:nonzero;stroke:none"
         id="path263367"
         inkscape:connector-curvature="0" />
    </g>
    <g
       id="g263369"
       transform="matrix(0.35277777,0,0,-0.35277777,-94.082317,134.73986)">
      <path
         d="m 0,0 -0.069,-18.102 5.603,-3.205 0.068,18.102 z"
         style="fill:#848484;fill-opacity:1;fill-rule:nonzero;stroke:none"
         id="path263371"
         inkscape:connector-curvature="0" />
    </g>
    <g
       id="g263373"
       transform="matrix(0.35277777,0,0,-0.35277777,-92.106223,145.11099)">
      <path
         d="m 0,0 -0.07,-19.516 -6.811,3.893 0.073,19.518 z"
         style="fill:#c7c9c9;fill-opacity:1;fill-rule:nonzero;stroke:none"
         id="path263375"
         inkscape:connector-curvature="0" />
    </g>
    <g
       id="g263377"
       transform="matrix(0.35277777,0,0,-0.35277777,-94.082317,143.99406)">
      <path
         d="m 0,0 -0.069,-18.096 5.603,-3.207 0.068,18.1 z"
         style="fill:#848484;fill-opacity:1;fill-rule:nonzero;stroke:none"
         id="path263379"
         inkscape:connector-curvature="0" />
    </g>
    <g
       id="g263381"
       transform="matrix(0.35277777,0,0,-0.35277777,-92.106223,154.36382)">
      <path
         d="m 0,0 -0.07,-19.518 -6.811,3.893 0.073,19.52 z"
         style="fill:#c7c9c9;fill-opacity:1;fill-rule:nonzero;stroke:none"
         id="path263383"
         inkscape:connector-curvature="0" />
    </g>
    <g
       id="g263385"
       transform="matrix(0.35277777,0,0,-0.35277777,-94.082317,153.24622)">
      <path
         d="m 0,0 -0.069,-18.104 5.603,-3.203 0.068,18.1 z"
         style="fill:#848484;fill-opacity:1;fill-rule:nonzero;stroke:none"
         id="path263387"
         inkscape:connector-curvature="0" />
    </g>
    <g
       id="g263389"
       transform="matrix(0.35277777,0,0,-0.35277777,-84.311704,140.35675)">
      <path
         d="m 0,0 -0.072,-19.516 -6.812,3.895 0.076,19.516 z"
         style="fill:#c7c9c9;fill-opacity:1;fill-rule:nonzero;stroke:none"
         id="path263391"
         inkscape:connector-curvature="0" />
    </g>
    <g
       id="g263393"
       transform="matrix(0.35277777,0,0,-0.35277777,-86.28883,139.23915)">
      <path
         d="m 0,0 -0.069,-18.104 5.606,-3.201 0.067,18.102 z"
         style="fill:#848484;fill-opacity:1;fill-rule:nonzero;stroke:none"
         id="path263395"
         inkscape:connector-curvature="0" />
    </g>
    <g
       id="g263397"
       transform="matrix(0.35277777,0,0,-0.35277777,-84.311704,149.60957)">
      <path
         d="m 0,0 -0.072,-19.52 -6.812,3.899 0.076,19.516 z"
         style="fill:#c7c9c9;fill-opacity:1;fill-rule:nonzero;stroke:none"
         id="path263399"
         inkscape:connector-curvature="0" />
    </g>
    <g
       id="g263401"
       transform="matrix(0.35277777,0,0,-0.35277777,-86.28883,148.49131)">
      <path
         d="m 0,0 -0.069,-18.104 5.606,-3.203 0.067,18.102 z"
         style="fill:#848484;fill-opacity:1;fill-rule:nonzero;stroke:none"
         id="path263403"
         inkscape:connector-curvature="0" />
    </g>
    <g
       id="g263405"
       transform="matrix(0.35277777,0,0,-0.35277777,-84.311704,158.8624)">
      <path
         d="m 0,0 -0.072,-19.516 -6.812,3.895 0.076,19.514 z"
         style="fill:#c7c9c9;fill-opacity:1;fill-rule:nonzero;stroke:none"
         id="path263407"
         inkscape:connector-curvature="0" />
    </g>
    <g
       id="g263409"
       transform="matrix(0.35277777,0,0,-0.35277777,-86.28883,157.74347)">
      <path
         d="m 0,0 -0.069,-18.105 5.606,-3.208 0.067,18.106 z"
         style="fill:#848484;fill-opacity:1;fill-rule:nonzero;stroke:none"
         id="path263411"
         inkscape:connector-curvature="0" />
    </g>
    <g
       id="g263413"
       transform="matrix(0.35277777,0,0,-0.35277777,-68.647893,137.05221)">
      <path
         d="M 0,0 0.072,-19.52 6.88,-15.625 6.808,3.893 Z"
         style="fill:#a5a5a5;fill-opacity:1;fill-rule:nonzero;stroke:none"
         id="path263415"
         inkscape:connector-curvature="0" />
    </g>
    <g
       id="g263417"
       transform="matrix(0.35277777,0,0,-0.35277777,-66.671773,135.93461)">
      <path
         d="m 0,0 0.071,-18.104 -5.606,-3.205 -0.067,18.106 z"
         style="fill:#848484;fill-opacity:1;fill-rule:nonzero;stroke:none"
         id="path263419"
         inkscape:connector-curvature="0" />
    </g>
    <g
       id="g263421"
       transform="matrix(0.35277777,0,0,-0.35277777,-68.647893,146.30503)">
      <path
         d="M 0,0 0.072,-19.518 6.88,-15.623 6.808,3.893 Z"
         style="fill:#a5a5a5;fill-opacity:1;fill-rule:nonzero;stroke:none"
         id="path263423"
         inkscape:connector-curvature="0" />
    </g>
    <g
       id="g263425"
       transform="matrix(0.35277777,0,0,-0.35277777,-66.671773,145.18746)">
      <path
         d="m 0,0 0.071,-18.102 -5.606,-3.205 -0.067,18.102 z"
         style="fill:#848484;fill-opacity:1;fill-rule:nonzero;stroke:none"
         id="path263427"
         inkscape:connector-curvature="0" />
    </g>
    <g
       id="g263429"
       transform="matrix(0.35277777,0,0,-0.35277777,-68.647893,155.55857)">
      <path
         d="M 0,0 0.072,-19.516 6.88,-15.623 6.808,3.896 Z"
         style="fill:#a5a5a5;fill-opacity:1;fill-rule:nonzero;stroke:none"
         id="path263431"
         inkscape:connector-curvature="0" />
    </g>
    <g
       id="g263433"
       transform="matrix(0.35277777,0,0,-0.35277777,-66.671773,154.44031)">
      <path
         d="m 0,0 0.071,-18.105 -5.606,-3.206 -0.067,18.106 z"
         style="fill:#848484;fill-opacity:1;fill-rule:nonzero;stroke:none"
         id="path263435"
         inkscape:connector-curvature="0" />
    </g>
    <g
       id="g263437"
       transform="matrix(0.35277777,0,0,-0.35277777,-76.441725,141.55219)">
      <path
         d="M 0,0 0.073,-19.516 6.881,-15.619 6.805,3.898 Z"
         style="fill:#a5a5a5;fill-opacity:1;fill-rule:nonzero;stroke:none"
         id="path263439"
         inkscape:connector-curvature="0" />
    </g>
    <g
       id="g263441"
       transform="matrix(0.35277777,0,0,-0.35277777,-74.465261,140.43321)">
      <path
         d="m 0,0 0.067,-18.105 -5.604,-3.204 -0.066,18.102 z"
         style="fill:#848484;fill-opacity:1;fill-rule:nonzero;stroke:none"
         id="path263443"
         inkscape:connector-curvature="0" />
    </g>
    <g
       id="g263445"
       transform="matrix(0.35277777,0,0,-0.35277777,-76.441725,150.80504)">
      <path
         d="M 0,0 0.073,-19.516 6.881,-15.619 6.805,3.898 Z"
         style="fill:#a5a5a5;fill-opacity:1;fill-rule:nonzero;stroke:none"
         id="path263447"
         inkscape:connector-curvature="0" />
    </g>
    <g
       id="g263449"
       transform="matrix(0.35277777,0,0,-0.35277777,-74.465261,149.68606)">
      <path
         d="m 0,0 0.067,-18.102 -5.604,-3.207 -0.066,18.102 z"
         style="fill:#848484;fill-opacity:1;fill-rule:nonzero;stroke:none"
         id="path263451"
         inkscape:connector-curvature="0" />
    </g>
    <g
       id="g263453"
       transform="matrix(0.35277777,0,0,-0.35277777,-76.441725,160.0572)">
      <path
         d="M 0,0 0.073,-19.518 6.881,-15.621 6.805,3.893 Z"
         style="fill:#a5a5a5;fill-opacity:1;fill-rule:nonzero;stroke:none"
         id="path263455"
         inkscape:connector-curvature="0" />
    </g>
    <g
       id="g263457"
       transform="matrix(0.35277777,0,0,-0.35277777,-74.465261,158.93889)">
      <path
         d="m 0,0 0.067,-18.102 -5.604,-3.207 -0.066,18.102 z"
         style="fill:#848484;fill-opacity:1;fill-rule:nonzero;stroke:none"
         id="path263459"
         inkscape:connector-curvature="0" />
    </g>
    <g
       id="g263461"
       transform="matrix(0.35277777,0,0,-0.35277777,-103.67452,126.05753)">
      <path
         d="M 0,0 39.071,22.705 108.133,-17.328 69.061,-40.037 Z"
         style="fill:#d3d3d3;fill-opacity:1;fill-rule:nonzero;stroke:none"
         id="path263463"
         inkscape:connector-curvature="0" />
    </g>
    <g
       id="g263465"
       transform="matrix(0.35277777,0,0,-0.35277777,-89.891026,117.35795)">
      <path
         d="M 0,0 -42.445,-24.662 29.992,-66.65 72.436,-41.986 Z M 0.004,-3.91 65.684,-41.996 29.989,-62.74 -35.694,-24.656 Z"
         style="fill:#f4f4f4;fill-opacity:1;fill-rule:nonzero;stroke:none"
         id="path263467"
         inkscape:connector-curvature="0" />
    </g>
    <g
       id="g263469"
       transform="matrix(0.35277777,0,0,-0.35277777,-67.875469,132.84642)">
      <path
         d="M 0,0 -62.404,36.193 -94.824,17.352 -32.417,-18.84 Z"
         style="fill:#848484;fill-opacity:1;fill-rule:nonzero;stroke:none"
         id="path263471"
         inkscape:connector-curvature="0" />
    </g>
    <g
       transform="matrix(0.35277777,0,0,-0.35277777,-948.27409,419.17176)"
       id="g263473">
      <g
         id="g263475" />
      <g
         id="g263487">
        <g
           clip-path="url(#clipPath263479)"
           id="g263485"
           style="opacity:0.11000097">
          <g
             transform="translate(2405.5928,828.9688)"
             id="g263483">
            <path
               d="m 0,0 30.004,17.438 -2.433,1.402 -32.37,-18.813 62.407,-36.195 2.365,1.379 z"
               style="fill:#161615;fill-opacity:1;fill-rule:nonzero;stroke:none"
               id="path263481"
               inkscape:connector-curvature="0" />
          </g>
        </g>
      </g>
    </g>
    <g
       transform="matrix(0.35277777,0,0,-0.35277777,-948.27409,419.17176)"
       id="g263489">
      <g
         id="g263491" />
      <g
         id="g263503">
        <g
           clip-path="url(#clipPath263495)"
           id="g263501"
           style="opacity:0.19000202">
          <g
             transform="translate(2493.7266,689.1973)"
             id="g263499">
            <path
               d="m 0,0 c 1.785,-1.033 1.8,-2.709 0.024,-3.738 -1.774,-1.033 -4.666,-1.028 -6.449,0 C -8.211,-2.709 -8.224,-1.033 -6.452,0 -4.675,1.033 -1.78,1.025 0,0"
               style="fill:#181816;fill-opacity:1;fill-rule:nonzero;stroke:none"
               id="path263497"
               inkscape:connector-curvature="0" />
          </g>
        </g>
      </g>
    </g>
    <g
       id="g263505"
       transform="matrix(0.35277777,0,0,-0.35277777,-70.211951,176.57572)">
      <path
         d="m 0,0 c 0.014,-0.373 0.642,-0.316 0.642,0.033 l 0.004,6.631 c 0,0.19 -0.143,0.35 -0.323,0.35 C 0.146,7.014 0,6.854 0.009,6.664 L -0.007,1.689 C -0.007,1.676 0,1.662 0,1.646 Z"
         style="fill:#938548;fill-opacity:1;fill-rule:nonzero;stroke:none"
         id="path263507"
         inkscape:connector-curvature="0" />
    </g>
    <g
       id="g263509"
       transform="matrix(0.35277777,0,0,-0.35277777,-69.743427,175.01166)">
      <path
         d="m 0,0 v -1.145 c 0.016,-0.492 -0.041,-0.621 -0.377,-0.857 l -0.622,-0.318 0.171,-0.348 0.635,0.322 c 0.537,0.358 0.584,0.739 0.584,1.201 V 0 Z"
         style="fill:#938548;fill-opacity:1;fill-rule:nonzero;stroke:none"
         id="path263511"
         inkscape:connector-curvature="0" />
    </g>
    <g
       id="g263513"
       transform="matrix(0.35277777,0,0,-0.35277777,-70.499977,175.62555)">
      <path
         d="M 0,0 V 1.184 H -0.402 V 0 c 0,-0.477 0.047,-0.875 0.614,-1.246 l 0.645,-0.324 0.177,0.357 -0.63,0.318 C 0.044,-0.641 -0.017,-0.51 0,0"
         style="fill:#938548;fill-opacity:1;fill-rule:nonzero;stroke:none"
         id="path263515"
         inkscape:connector-curvature="0" />
    </g>
    <g
       id="g263517"
       transform="matrix(0.35277777,0,0,-0.35277777,-68.79188,174.10007)">
      <path
         d="m 0,0 c 0,-1.799 -1.463,-3.26 -3.263,-3.26 -1.799,0 -3.257,1.461 -3.257,3.26 0,1.801 1.458,3.26 3.257,3.26 C -1.463,3.26 0,1.801 0,0"
         style="fill:#498c44;fill-opacity:1;fill-rule:nonzero;stroke:none"
         id="path263519"
         inkscape:connector-curvature="0" />
    </g>
    <g
       id="g263521"
       transform="matrix(0.35277777,0,0,-0.35277777,-67.812445,174.19791)">
      <path
         d="m 0,0 c 0,-2.178 -1.769,-3.943 -3.94,-3.943 -2.182,0 -3.948,1.765 -3.948,3.943 0,2.178 1.766,3.941 3.948,3.941 C -1.769,3.941 0,2.178 0,0"
         style="fill:#4b6d0f;fill-opacity:1;fill-rule:nonzero;stroke:none"
         id="path263523"
         inkscape:connector-curvature="0" />
    </g>
    <g
       id="g263525"
       transform="matrix(0.35277777,0,0,-0.35277777,-67.823478,173.17403)">
      <path
         d="m 0,0 c 0,-1.668 -1.35,-3.016 -3.014,-3.016 -1.669,0 -3.02,1.348 -3.02,3.016 0,1.664 1.351,3.016 3.02,3.016 C -1.35,3.016 0,1.664 0,0"
         style="fill:#4b6d0f;fill-opacity:1;fill-rule:nonzero;stroke:none"
         id="path263527"
         inkscape:connector-curvature="0" />
    </g>
    <g
       id="g263529"
       transform="matrix(0.35277777,0,0,-0.35277777,-68.627203,172.23145)">
      <path
         d="m 0,0 c 0,-1.643 -1.332,-2.977 -2.975,-2.977 -1.641,0 -2.973,1.334 -2.973,2.977 0,1.639 1.332,2.973 2.973,2.973 C -1.332,2.973 0,1.639 0,0"
         style="fill:#4b6d0f;fill-opacity:1;fill-rule:nonzero;stroke:none"
         id="path263531"
         inkscape:connector-curvature="0" />
    </g>
    <g
       id="g263533"
       transform="matrix(0.35277777,0,0,-0.35277777,-70.132735,173.26224)">
      <path
         d="m 0,0 c 0,-2.127 -1.717,-3.846 -3.84,-3.846 -2.125,0 -3.846,1.719 -3.846,3.846 0,2.121 1.721,3.84 3.846,3.84 C -1.717,3.84 0,2.121 0,0"
         style="fill:#4b6d0f;fill-opacity:1;fill-rule:nonzero;stroke:none"
         id="path263535"
         inkscape:connector-curvature="0" />
    </g>
    <g
       id="g263537"
       transform="matrix(0.35277777,0,0,-0.35277777,-69.866062,172.44574)">
      <path
         d="m 0,0 c 0,-1.592 -1.292,-2.887 -2.883,-2.887 -1.596,0 -2.888,1.295 -2.888,2.887 0,1.596 1.292,2.887 2.888,2.887 C -1.292,2.887 0,1.596 0,0"
         style="fill:#4b6d0f;fill-opacity:1;fill-rule:nonzero;stroke:none"
         id="path263539"
         inkscape:connector-curvature="0" />
    </g>
    <g
       id="g263541"
       transform="matrix(0.35277777,0,0,-0.35277777,-69.600817,174.40667)">
      <path
         d="m 0,0 c 0,-2.092 -1.697,-3.791 -3.791,-3.791 -2.094,0 -3.789,1.699 -3.789,3.791 0,2.094 1.695,3.793 3.789,3.793 C -1.697,3.793 0,2.094 0,0"
         style="fill:#4b6d0f;fill-opacity:1;fill-rule:nonzero;stroke:none"
         id="path263543"
         inkscape:connector-curvature="0" />
    </g>
    <g
       id="g263545"
       transform="matrix(0.35277777,0,0,-0.35277777,-68.673029,173.21263)">
      <path
         d="m 0,0 c 0,1.445 -1.172,2.613 -2.616,2.613 -0.297,0 -0.584,-0.049 -0.852,-0.142 -0.294,0.681 -0.972,1.154 -1.761,1.154 -1.062,0 -1.928,-0.857 -1.928,-1.926 0,-0.035 0.002,-0.072 0.009,-0.107 -1.02,-0.354 -1.745,-1.317 -1.745,-2.446 0,-1.431 1.158,-2.585 2.589,-2.585 0.227,0 0.45,0.029 0.658,0.082 0.201,-0.741 0.879,-1.282 1.68,-1.282 0.707,0 1.317,0.424 1.589,1.028 h 0.022 c 0.866,0 1.569,0.691 1.583,1.554 h 0.001 v 0.203 C -0.292,-1.381 0,-0.723 0,0"
         style="fill:#71991c;fill-opacity:1;fill-rule:nonzero;stroke:none"
         id="path263547"
         inkscape:connector-curvature="0" />
    </g>
    <g
       transform="matrix(0.35277777,0,0,-0.35277777,-948.27409,419.17176)"
       id="g263549">
      <g
         id="g263551" />
      <g
         id="g263563">
        <g
           clip-path="url(#clipPath263555)"
           id="g263561"
           style="opacity:0.19000202">
          <g
             transform="translate(2538.8252,719.4629)"
             id="g263559">
            <path
               d="M 0,0 C 3.129,-1.805 3.151,-4.736 0.043,-6.547 -3.065,-8.352 -8.125,-8.344 -11.25,-6.541 -14.375,-4.736 -14.4,-1.805 -11.295,0 -8.184,1.809 -3.124,1.803 0,0"
               style="fill:#181816;fill-opacity:1;fill-rule:nonzero;stroke:none"
               id="path263557"
               inkscape:connector-curvature="0" />
          </g>
        </g>
      </g>
    </g>
    <g
       id="g263565"
       transform="matrix(0.35277777,0,0,-0.35277777,-55.171368,161.91132)">
      <path
         d="m 0,0 -1.443,1.463 c -0.43,0.432 -0.979,0.988 -0.93,2.582 v 6.492 H -2.617 V 3.77 c 0,-1.528 0.386,-2.043 1.046,-2.7 0.968,-0.966 1.214,-1.341 1.64,-1.767 v 0.523 z"
         style="fill:#775a20;fill-opacity:1;fill-rule:nonzero;stroke:none"
         id="path263567"
         inkscape:connector-curvature="0" />
    </g>
    <g
       id="g263569"
       transform="matrix(0.35277777,0,0,-0.35277777,-55.310539,159.01676)">
      <path
         d="m 0,0 1.111,-0.023 0.626,-21.274 c 0,0 -0.127,-0.965 -1.234,-0.965 -1.133,0 -1.191,0.953 -1.191,0.953 z"
         style="fill:#775a20;fill-opacity:1;fill-rule:nonzero;stroke:none"
         id="path263571"
         inkscape:connector-curvature="0" />
    </g>
    <g
       id="g263573"
       transform="matrix(0.35277777,0,0,-0.35277777,-54.807566,162.52801)">
      <path
         d="m 0,0 v 0 c 0.492,0.49 0.771,1.164 0.771,1.857 v 8.254 H 1.147 V 1.648 c 0,-1.093 -0.44,-2.15 -1.212,-2.927 z"
         style="fill:#775a20;fill-opacity:1;fill-rule:nonzero;stroke:none"
         id="path263575"
         inkscape:connector-curvature="0" />
    </g>
    <g
       id="g263577"
       transform="matrix(0.35277777,0,0,-0.35277777,-54.39762,160.75721)">
      <path
         d="M 0,0 1.033,1.051 C 1.34,1.355 1.737,1.754 1.699,2.895 V 7.541 H 1.875 V 2.697 C 1.875,1.604 1.598,1.234 1.126,0.764 0.43,0.07 0.251,-0.195 -0.054,-0.5 v 0.375 z"
         style="fill:#c4b08d;fill-opacity:1;fill-rule:nonzero;stroke:none"
         id="path263579"
         inkscape:connector-curvature="0" />
    </g>
    <g
       id="g263581"
       transform="matrix(0.35277777,0,0,-0.35277777,-50.63932,157.71863)">
      <path
         d="m 0,0 c 0,1.359 -0.984,2.49 -2.278,2.721 -0.105,2.476 -2.138,4.455 -4.645,4.455 -0.351,0 -0.69,-0.043 -1.027,-0.117 -0.375,1.361 -1.619,2.369 -3.101,2.369 -0.744,0 -1.422,-0.252 -1.964,-0.674 -0.747,0.844 -1.83,1.381 -3.044,1.381 -2.198,0 -3.983,-1.754 -4.049,-3.938 -0.059,0.006 -0.115,0.012 -0.173,0.012 -2.039,0 -3.695,-1.65 -3.695,-3.691 0,-0.084 0.011,-0.168 0.017,-0.256 -1.029,-0.508 -1.735,-1.563 -1.735,-2.783 0,-1.385 0.91,-2.561 2.159,-2.961 0,-0.067 -0.008,-0.135 -0.008,-0.204 0,-3.154 2.562,-5.718 5.721,-5.718 0.665,0 1.298,0.119 1.886,0.33 0.835,-1.049 2.112,-1.723 3.54,-1.723 1.817,0 3.384,1.088 4.111,2.658 0.483,-0.174 1.004,-0.271 1.547,-0.271 2.573,0 4.661,2.086 4.661,4.66 0,0.355 -0.044,0.705 -0.125,1.043 C -0.947,-2.443 0,-1.332 0,0"
         style="fill:#4b6d0f;fill-opacity:1;fill-rule:nonzero;stroke:none"
         id="path263583"
         inkscape:connector-curvature="0" />
    </g>
    <g
       id="g263585"
       transform="matrix(0.35277777,0,0,-0.35277777,-57.0579,156.84222)">
      <path
         d="m 0,0 c -0.005,0.055 -0.005,0.109 -0.005,0.162 0,1.576 1.273,2.846 2.844,2.846 1.171,0 2.171,-0.697 2.606,-1.701 0.371,0.308 1.049,0.773 1.48,0.859 3.872,0.801 3.881,-3.639 4.001,-3.531 0.176,0.152 0.711,2.599 -0.988,3.963 C 7.475,4.566 5.722,3.223 5.326,3.09 4.889,4.094 3.668,4.996 2.499,4.996 c -1.573,0 -2.786,-1.017 -2.786,-2.594 0,-0.05 -0.104,-0.916 -0.101,-0.972 -0.861,-0.186 -2.471,-1.131 -2.471,-2.805 0,-0.559 0.129,-1.092 0.343,-1.572 C -2.271,-1.57 -1.297,-0.451 0,0"
         style="fill:#71991c;fill-opacity:1;fill-rule:nonzero;stroke:none"
         id="path263587"
         inkscape:connector-curvature="0" />
    </g>
    <g
       id="g263589"
       transform="matrix(0.35277777,0,0,-0.35277777,-54.721417,157.42926)">
      <path
         d="m 0,0 c 1.086,-0.379 1.791,-1.354 1.869,-2.432 0.522,0.243 1.526,-0.107 1.934,-0.25 1.772,-0.617 2.336,-2.334 1.805,-4.152 0.323,0.326 0.579,0.723 0.74,1.18 0.583,1.666 -0.301,3.486 -1.959,4.068 C 4.045,-1.469 3.688,-1.41 3.351,-1.41 3.279,-0.51 2.689,0.311 1.779,0.627 0.934,0.924 0.029,0.705 -0.586,0.137 -0.391,0.111 -0.193,0.068 0,0"
         style="fill:#71991c;fill-opacity:1;fill-rule:nonzero;stroke:none"
         id="path263591"
         inkscape:connector-curvature="0" />
    </g>
    <g
       transform="matrix(0.35277777,0,0,-0.35277777,-948.27409,419.17176)"
       id="g263593">
      <g
         id="g263595" />
      <g
         id="g263607">
        <g
           clip-path="url(#clipPath263599)"
           id="g263605"
           style="opacity:0.19000202">
          <g
             transform="translate(2516.542,726.6563)"
             id="g263603">
            <path
               d="m 0,0 c 1.709,-0.986 1.723,-2.592 0.022,-3.576 -1.698,-0.988 -4.461,-0.985 -6.171,0 -1.71,0.984 -1.724,2.59 -0.025,3.576 1.7,0.988 4.465,0.984 6.174,0"
               style="fill:#181816;fill-opacity:1;fill-rule:nonzero;stroke:none"
               id="path263601"
               inkscape:connector-curvature="0" />
          </g>
        </g>
      </g>
    </g>
    <g
       id="g263609"
       transform="matrix(0.35277777,0,0,-0.35277777,-61.88136,160.93914)">
      <path
         d="M 0,0 -0.789,0.805 C -1.022,1.035 -1.321,1.34 -1.3,2.211 V 5.762 H -1.429 V 2.063 c 0,-0.834 0.207,-1.116 0.571,-1.477 0.527,-0.529 0.664,-0.732 0.896,-0.965 v 0.285 z"
         style="fill:#775a20;fill-opacity:1;fill-rule:nonzero;stroke:none"
         id="path263611"
         inkscape:connector-curvature="0" />
    </g>
    <g
       id="g263613"
       transform="matrix(0.35277777,0,0,-0.35277777,-61.957507,159.35643)">
      <path
         d="m 0,0 0.608,-0.014 0.339,-11.625 c 0,0 -0.065,-0.527 -0.674,-0.527 -0.618,0 -0.652,0.521 -0.652,0.521 z"
         style="fill:#775a20;fill-opacity:1;fill-rule:nonzero;stroke:none"
         id="path263615"
         inkscape:connector-curvature="0" />
    </g>
    <g
       id="g263617"
       transform="matrix(0.35277777,0,0,-0.35277777,-61.682922,161.27537)">
      <path
         d="M 0,0 V 0 C 0.27,0.27 0.421,0.639 0.421,1.016 V 5.527 H 0.627 V 0.9 c 0,-0.599 -0.237,-1.175 -0.662,-1.599 z"
         style="fill:#775a20;fill-opacity:1;fill-rule:nonzero;stroke:none"
         id="path263619"
         inkscape:connector-curvature="0" />
    </g>
    <g
       id="g263621"
       transform="matrix(0.35277777,0,0,-0.35277777,-61.460037,160.30797)">
      <path
         d="m 0,0 0.568,0.576 c 0.165,0.166 0.385,0.383 0.364,1.01 V 4.121 H 1.026 V 1.475 C 1.026,0.877 0.877,0.674 0.616,0.416 0.24,0.039 0.139,-0.104 -0.024,-0.273 v 0.207 z"
         style="fill:#c4b08d;fill-opacity:1;fill-rule:nonzero;stroke:none"
         id="path263623"
         inkscape:connector-curvature="0" />
    </g>
    <g
       id="g263625"
       transform="matrix(0.35277777,0,0,-0.35277777,-59.404701,158.64676)">
      <path
         d="M 0,0 C 0,0.74 -0.54,1.357 -1.246,1.484 -1.303,2.838 -2.416,3.92 -3.781,3.92 -3.977,3.92 -4.162,3.898 -4.346,3.854 -4.55,4.6 -5.23,5.148 -6.04,5.148 c -0.407,0 -0.776,-0.134 -1.076,-0.367 -0.406,0.461 -0.997,0.756 -1.662,0.756 -1.199,0 -2.175,-0.959 -2.213,-2.152 -0.03,0.002 -0.059,0.008 -0.091,0.008 -1.118,0 -2.02,-0.905 -2.02,-2.018 0,-0.047 0.004,-0.092 0.01,-0.141 -0.563,-0.279 -0.95,-0.855 -0.95,-1.519 0,-0.76 0.497,-1.403 1.184,-1.619 0,-0.037 -0.006,-0.073 -0.006,-0.114 0,-1.722 1.401,-3.123 3.125,-3.123 0.36,0 0.704,0.067 1.028,0.178 0.459,-0.57 1.156,-0.935 1.938,-0.935 0.991,0 1.845,0.591 2.246,1.451 0.263,-0.098 0.548,-0.151 0.843,-0.151 1.406,0 2.548,1.141 2.548,2.545 0,0.196 -0.024,0.389 -0.069,0.569 C -0.519,-1.338 0,-0.73 0,0"
         style="fill:#4b6d0f;fill-opacity:1;fill-rule:nonzero;stroke:none"
         id="path263627"
         inkscape:connector-curvature="0" />
    </g>
    <g
       id="g263629"
       transform="matrix(0.35277777,0,0,-0.35277777,-62.91215,158.16789)">
      <path
         d="m 0,0 c -0.006,0.029 -0.006,0.059 -0.006,0.09 0,0.859 0.698,1.555 1.558,1.555 0.637,0 1.183,-0.383 1.426,-0.934 0.201,0.17 0.57,0.422 0.805,0.473 C 5.897,1.619 5.902,-0.807 5.97,-0.748 6.066,-0.664 6.356,0.672 5.428,1.416 4.084,2.494 3.126,1.76 2.909,1.686 2.668,2.238 2.003,2.729 1.364,2.729 c -0.86,0 -1.519,-0.555 -1.519,-1.418 0,-0.028 -0.057,-0.502 -0.057,-0.53 -0.473,-0.103 -1.35,-0.623 -1.35,-1.535 0,-0.303 0.068,-0.598 0.188,-0.857 0.13,0.75 0.668,1.363 1.374,1.611"
         style="fill:#71991c;fill-opacity:1;fill-rule:nonzero;stroke:none"
         id="path263631"
         inkscape:connector-curvature="0" />
    </g>
    <g
       id="g263633"
       transform="matrix(0.35277777,0,0,-0.35277777,-61.636091,158.48896)">
      <path
         d="m 0,0 c 0.595,-0.209 0.978,-0.74 1.023,-1.33 0.286,0.133 0.83,-0.057 1.054,-0.135 0.969,-0.34 1.279,-1.277 0.986,-2.271 0.182,0.177 0.317,0.394 0.407,0.648 0.32,0.906 -0.163,1.904 -1.073,2.219 C 2.213,-0.803 2.018,-0.773 1.833,-0.773 1.794,-0.279 1.472,0.168 0.973,0.34 0.511,0.506 0.02,0.385 -0.32,0.072 -0.212,0.061 -0.106,0.035 0,0"
         style="fill:#71991c;fill-opacity:1;fill-rule:nonzero;stroke:none"
         id="path263635"
         inkscape:connector-curvature="0" />
    </g>
    <g
       transform="matrix(0.35277777,0,0,-0.35277777,-948.27409,419.17176)"
       id="g263637">
      <g
         id="g263639" />
      <g
         id="g263651">
        <g
           clip-path="url(#clipPath263643)"
           id="g263649"
           style="opacity:0.19000202">
          <g
             transform="translate(2522.3428,704.6582)"
             id="g263647">
            <path
               d="M 0,0 C 2.229,-1.287 2.244,-3.373 0.028,-4.666 -2.19,-5.951 -5.788,-5.945 -8.02,-4.658 -10.245,-3.373 -10.268,-1.287 -8.05,0 -5.835,1.291 -2.23,1.285 0,0"
               style="fill:#181816;fill-opacity:1;fill-rule:nonzero;stroke:none"
               id="path263645"
               inkscape:connector-curvature="0" />
          </g>
        </g>
      </g>
    </g>
    <g
       id="g263653"
       transform="matrix(0.35277777,0,0,-0.35277777,-60.257003,168.12557)">
      <path
         d="m 0,0 -1.029,1.045 c -0.307,0.307 -0.699,0.701 -0.664,1.84 V 7.51 H -1.867 V 2.688 c 0,-1.09 0.273,-1.456 0.744,-1.926 0.691,-0.69 0.867,-0.953 1.172,-1.258 v 0.373 z"
         style="fill:#775a20;fill-opacity:1;fill-rule:nonzero;stroke:none"
         id="path263655"
         inkscape:connector-curvature="0" />
    </g>
    <g
       id="g263657"
       transform="matrix(0.35277777,0,0,-0.35277777,-60.35691,166.06266)">
      <path
         d="m 0,0 0.794,-0.018 0.444,-15.158 c 0,0 -0.09,-0.689 -0.879,-0.689 -0.81,0 -0.849,0.679 -0.849,0.679 z"
         style="fill:#775a20;fill-opacity:1;fill-rule:nonzero;stroke:none"
         id="path263659"
         inkscape:connector-curvature="0" />
    </g>
    <g
       id="g263661"
       transform="matrix(0.35277777,0,0,-0.35277777,-59.998638,168.56517)">
      <path
         d="M 0,0 V 0 C 0.354,0.352 0.551,0.834 0.551,1.324 V 7.209 H 0.82 V 1.174 c 0,-0.778 -0.312,-1.529 -0.865,-2.084 z"
         style="fill:#775a20;fill-opacity:1;fill-rule:nonzero;stroke:none"
         id="path263663"
         inkscape:connector-curvature="0" />
    </g>
    <g
       id="g263665"
       transform="matrix(0.35277777,0,0,-0.35277777,-59.706485,167.30361)">
      <path
         d="M 0,0 0.738,0.752 C 0.955,0.969 1.235,1.25 1.213,2.063 V 5.379 H 1.338 V 1.926 C 1.338,1.146 1.143,0.883 0.801,0.545 0.307,0.053 0.179,-0.137 -0.033,-0.354 v 0.268 z"
         style="fill:#c4b08d;fill-opacity:1;fill-rule:nonzero;stroke:none"
         id="path263667"
         inkscape:connector-curvature="0" />
    </g>
    <g
       id="g263669"
       transform="matrix(0.35277777,0,0,-0.35277777,-57.027261,165.13731)">
      <path
         d="m 0,0 c 0,0.967 -0.702,1.773 -1.626,1.939 -0.073,1.764 -1.522,3.174 -3.306,3.174 -0.256,0 -0.496,-0.031 -0.735,-0.086 -0.27,0.975 -1.154,1.694 -2.209,1.694 -0.53,0 -1.017,-0.182 -1.404,-0.483 -0.527,0.602 -1.301,0.983 -2.168,0.983 -1.562,0 -2.838,-1.246 -2.883,-2.805 -0.044,0.004 -0.078,0.008 -0.126,0.008 -1.451,0 -2.63,-1.178 -2.63,-2.631 0,-0.061 0.008,-0.121 0.01,-0.184 -0.732,-0.361 -1.235,-1.113 -1.235,-1.982 0,-0.986 0.65,-1.826 1.54,-2.107 0,-0.049 -0.005,-0.098 -0.005,-0.147 0,-2.252 1.823,-4.074 4.072,-4.074 0.477,0 0.925,0.084 1.346,0.232 0.594,-0.746 1.504,-1.22 2.524,-1.22 1.296,0 2.411,0.771 2.926,1.888 0.347,-0.121 0.72,-0.193 1.104,-0.193 1.836,0 3.324,1.488 3.324,3.32 0,0.256 -0.034,0.502 -0.091,0.74 C -0.676,-1.742 0,-0.949 0,0"
         style="fill:#4b6d0f;fill-opacity:1;fill-rule:nonzero;stroke:none"
         id="path263671"
         inkscape:connector-curvature="0" />
    </g>
    <g
       id="g263673"
       transform="matrix(0.35277777,0,0,-0.35277777,-61.601298,164.51167)">
      <path
         d="m 0,0 c -0.006,0.037 -0.006,0.076 -0.006,0.113 0,1.121 0.906,2.028 2.03,2.028 0.83,0 1.542,-0.496 1.854,-1.213 0.266,0.218 0.748,0.551 1.054,0.613 2.76,0.57 2.765,-2.596 2.855,-2.516 C 7.909,-0.867 8.289,0.877 7.079,1.848 5.325,3.252 4.073,2.291 3.793,2.197 3.479,2.914 2.611,3.559 1.779,3.559 c -1.124,0 -1.984,-0.729 -1.984,-1.85 0,-0.037 -0.075,-0.654 -0.072,-0.691 -0.618,-0.133 -1.762,-0.813 -1.762,-2.002 0,-0.399 0.092,-0.78 0.244,-1.118 C -1.621,-1.123 -0.927,-0.322 0,0"
         style="fill:#71991c;fill-opacity:1;fill-rule:nonzero;stroke:none"
         id="path263675"
         inkscape:connector-curvature="0" />
    </g>
    <g
       id="g263677"
       transform="matrix(0.35277777,0,0,-0.35277777,-59.935932,164.93062)">
      <path
         d="m 0,0 c 0.77,-0.271 1.272,-0.969 1.329,-1.734 0.372,0.173 1.087,-0.079 1.378,-0.178 1.263,-0.442 1.665,-1.666 1.284,-2.961 0.232,0.232 0.413,0.514 0.53,0.846 0.418,1.183 -0.212,2.48 -1.395,2.892 -0.25,0.084 -0.5,0.125 -0.743,0.125 C 2.332,-0.365 1.912,0.217 1.264,0.443 0.664,0.658 0.021,0.502 -0.422,0.096 -0.279,0.076 -0.143,0.049 0,0"
         style="fill:#71991c;fill-opacity:1;fill-rule:nonzero;stroke:none"
         id="path263679"
         inkscape:connector-curvature="0" />
    </g>
    <g
       transform="matrix(0.35277777,0,0,-0.35277777,-948.27409,419.17176)"
       id="g263681">
      <g
         id="g263683" />
      <g
         id="g263695">
        <g
           clip-path="url(#clipPath263687)"
           id="g263693"
           style="opacity:0.19000202">
          <g
             transform="translate(2497.2744,714.0625)"
             id="g263691">
            <path
               d="m 0,0 c 2.229,-1.291 2.245,-3.377 0.029,-4.666 -2.217,-1.287 -5.818,-1.281 -8.05,0.002 -2.225,1.287 -2.245,3.373 -0.03,4.664 2.215,1.285 5.822,1.279 8.051,0"
               style="fill:#181816;fill-opacity:1;fill-rule:nonzero;stroke:none"
               id="path263689"
               inkscape:connector-curvature="0" />
          </g>
        </g>
      </g>
    </g>
    <g
       id="g263697"
       transform="matrix(0.35277777,0,0,-0.35277777,-69.101945,164.80864)">
      <path
         d="m 0,0 -1.026,1.043 c -0.307,0.309 -0.697,0.701 -0.662,1.84 V 7.51 H -1.865 V 2.684 C -1.865,1.6 -1.588,1.23 -1.121,0.76 -0.43,0.07 -0.252,-0.193 0.051,-0.5 v 0.377 z"
         style="fill:#775a20;fill-opacity:1;fill-rule:nonzero;stroke:none"
         id="path263699"
         inkscape:connector-curvature="0" />
    </g>
    <g
       id="g263701"
       transform="matrix(0.35277777,0,0,-0.35277777,-69.200476,162.74643)">
      <path
         d="m 0,0 0.792,-0.016 0.445,-15.16 c 0,0 -0.089,-0.685 -0.88,-0.685 -0.805,0 -0.849,0.675 -0.849,0.675 z"
         style="fill:#775a20;fill-opacity:1;fill-rule:nonzero;stroke:none"
         id="path263703"
         inkscape:connector-curvature="0" />
    </g>
    <g
       id="g263705"
       transform="matrix(0.35277777,0,0,-0.35277777,-68.841489,165.24962)">
      <path
         d="M 0,0 V 0 C 0.348,0.357 0.549,0.834 0.549,1.324 V 7.209 H 0.814 V 1.178 c 0,-0.782 -0.312,-1.53 -0.864,-2.086 z"
         style="fill:#775a20;fill-opacity:1;fill-rule:nonzero;stroke:none"
         id="path263707"
         inkscape:connector-curvature="0" />
    </g>
    <g
       id="g263709"
       transform="matrix(0.35277777,0,0,-0.35277777,-68.551082,163.98735)">
      <path
         d="m 0,0 0.74,0.748 c 0.217,0.221 0.5,0.504 0.474,1.318 V 5.377 H 1.341 V 1.928 C 1.341,1.143 1.142,0.883 0.805,0.545 0.312,0.053 0.183,-0.135 -0.03,-0.355 v 0.267 z"
         style="fill:#c4b08d;fill-opacity:1;fill-rule:nonzero;stroke:none"
         id="path263711"
         inkscape:connector-curvature="0" />
    </g>
    <g
       id="g263713"
       transform="matrix(0.35277777,0,0,-0.35277777,-65.871488,161.82039)">
      <path
         d="m 0,0 c 0,0.967 -0.703,1.773 -1.622,1.938 -0.076,1.765 -1.527,3.173 -3.31,3.173 -0.255,0 -0.496,-0.029 -0.735,-0.084 -0.266,0.971 -1.15,1.69 -2.207,1.69 -0.531,0 -1.015,-0.18 -1.406,-0.481 -0.527,0.602 -1.296,0.985 -2.166,0.985 -1.563,0 -2.839,-1.25 -2.881,-2.805 -0.044,0.004 -0.085,0.006 -0.126,0.006 -1.457,0 -2.632,-1.176 -2.632,-2.629 0,-0.061 0.008,-0.121 0.013,-0.184 -0.734,-0.363 -1.238,-1.111 -1.238,-1.984 0,-0.988 0.65,-1.824 1.539,-2.109 0,-0.047 -0.005,-0.098 -0.005,-0.143 0,-2.25 1.826,-4.076 4.073,-4.076 0.475,0 0.927,0.086 1.347,0.236 0.594,-0.75 1.503,-1.224 2.522,-1.224 1.297,0 2.413,0.769 2.929,1.89 0.343,-0.125 0.716,-0.193 1.104,-0.193 1.832,0 3.32,1.486 3.32,3.318 0,0.254 -0.033,0.502 -0.089,0.74 C -0.675,-1.744 0,-0.953 0,0"
         style="fill:#4b6d0f;fill-opacity:1;fill-rule:nonzero;stroke:none"
         id="path263715"
         inkscape:connector-curvature="0" />
    </g>
    <g
       id="g263717"
       transform="matrix(0.35277777,0,0,-0.35277777,-70.445182,161.19613)">
      <path
         d="m 0,0 c -0.004,0.039 -0.004,0.076 -0.004,0.117 0,1.119 0.907,2.028 2.025,2.028 0.833,0 1.548,-0.497 1.859,-1.213 0.264,0.216 0.747,0.547 1.055,0.609 2.76,0.57 2.762,-2.592 2.852,-2.516 C 7.909,-0.863 8.292,0.879 7.08,1.852 5.325,3.252 4.076,2.297 3.794,2.201 3.481,2.916 2.613,3.559 1.784,3.559 0.655,3.559 -0.204,2.83 -0.204,1.713 -0.204,1.672 -0.28,1.057 -0.278,1.02 -0.891,0.885 -2.036,0.211 -2.036,-0.982 c 0,-0.397 0.089,-0.78 0.245,-1.12 0.17,0.981 0.865,1.78 1.791,2.102"
         style="fill:#71991c;fill-opacity:1;fill-rule:nonzero;stroke:none"
         id="path263719"
         inkscape:connector-curvature="0" />
    </g>
    <g
       id="g263721"
       transform="matrix(0.35277777,0,0,-0.35277777,-68.781561,161.61436)">
      <path
         d="M 0,0 C 0.774,-0.271 1.279,-0.967 1.337,-1.736 1.706,-1.561 2.42,-1.811 2.71,-1.91 3.977,-2.354 4.377,-3.578 4,-4.873 c 0.227,0.232 0.41,0.516 0.525,0.848 0.418,1.181 -0.213,2.48 -1.393,2.89 C 2.884,-1.049 2.63,-1.006 2.39,-1.006 2.34,-0.367 1.92,0.221 1.27,0.441 0.668,0.656 0.028,0.502 -0.414,0.094 -0.276,0.078 -0.135,0.049 0,0"
         style="fill:#71991c;fill-opacity:1;fill-rule:nonzero;stroke:none"
         id="path263723"
         inkscape:connector-curvature="0" />
    </g>
  </g>
</svg>
