<?xml version="1.0" encoding="UTF-8" standalone="no"?>
<!-- Created with Inkscape (http://www.inkscape.org/) -->

<svg
   xmlns:dc="http://purl.org/dc/elements/1.1/"
   xmlns:cc="http://creativecommons.org/ns#"
   xmlns:rdf="http://www.w3.org/1999/02/22-rdf-syntax-ns#"
   xmlns:svg="http://www.w3.org/2000/svg"
   xmlns="http://www.w3.org/2000/svg"
   xmlns:sodipodi="http://sodipodi.sourceforge.net/DTD/sodipodi-0.dtd"
   xmlns:inkscape="http://www.inkscape.org/namespaces/inkscape"
   width="49.489433mm"
   height="60.94437mm"
   viewBox="0 0 49.489433 60.94437"
   version="1.1"
   id="svg24171"
   inkscape:version="0.92.3 (2405546, 2018-03-11)"
   sodipodi:docname="apartemant-25.svg">
  <defs
     id="defs24165">
    <clipPath
       clipPathUnits="userSpaceOnUse"
       id="clipPath272847">
      <path
         d="m 496.215,837.033 h 41.35 v -43.785 h -41.35 z"
         id="path272845"
         inkscape:connector-curvature="0" />
    </clipPath>
    <clipPath
       clipPathUnits="userSpaceOnUse"
       id="clipPath272407">
      <path
         d="m 508.761,736.922 h 94.658 v -49.469 h -94.658 z"
         id="path272405"
         inkscape:connector-curvature="0" />
    </clipPath>
    <clipPath
       clipPathUnits="userSpaceOnUse"
       id="clipPath272363">
      <path
         d="m 585.694,730.501 h 17.877 v -10.355 h -17.877 z"
         id="path272361"
         inkscape:connector-curvature="0" />
    </clipPath>
  </defs>
  <sodipodi:namedview
     id="base"
     pagecolor="#ffffff"
     bordercolor="#666666"
     borderopacity="1.0"
     inkscape:pageopacity="0.0"
     inkscape:pageshadow="2"
     inkscape:zoom="0.35"
     inkscape:cx="-425.04809"
     inkscape:cy="75.170465"
     inkscape:document-units="mm"
     inkscape:current-layer="layer1"
     showgrid="false"
     fit-margin-top="0"
     fit-margin-left="0"
     fit-margin-right="0"
     fit-margin-bottom="0"
     inkscape:window-width="1366"
     inkscape:window-height="716"
     inkscape:window-x="-8"
     inkscape:window-y="-8"
     inkscape:window-maximized="1" />
  <metadata
     id="metadata24168">
    <rdf:RDF>
      <cc:Work
         rdf:about="">
        <dc:format>image/svg+xml</dc:format>
        <dc:type
           rdf:resource="http://purl.org/dc/dcmitype/StillImage" />
        <dc:title></dc:title>
      </cc:Work>
    </rdf:RDF>
  </metadata>
  <g
     inkscape:label="Layer 1"
     inkscape:groupmode="layer"
     id="layer1"
     transform="translate(-34.975522,-107.77781)">
    <g
       id="g272349"
       transform="matrix(0.35277777,0,0,-0.35277777,35.610169,155.33471)">
      <path
         d="m 0,0 59.305,-34.527 c 2.407,-1.397 6.324,-1.397 8.748,0 L 136.659,5.08 c 1.216,0.703 1.827,1.629 1.821,2.551 l 0.006,-2.371 c 0.003,-0.922 -0.604,-1.85 -1.824,-2.551 L 68.063,-36.898 c -2.428,-1.401 -6.342,-1.401 -8.751,0 L 0.004,-2.369 c -1.193,0.691 -1.794,1.603 -1.796,2.514 L -1.799,2.516 C -1.799,1.605 -1.196,0.697 0,0"
         style="fill:#94b226;fill-opacity:1;fill-rule:nonzero;stroke:none"
         id="path272351"
         inkscape:connector-curvature="0" />
    </g>
    <g
       id="g272353"
       transform="matrix(0.35277777,0,0,-0.35277777,35.619629,153.54671)">
      <path
         d="m 0,0 c -2.423,-1.4 -2.434,-3.668 -0.027,-5.068 l 59.305,-34.528 c 2.407,-1.396 6.325,-1.396 8.748,0 l 68.606,39.608 c 2.42,1.4 2.432,3.666 0.023,5.066 L 77.348,39.607 c -2.406,1.401 -6.321,1.401 -8.745,0 z"
         style="fill:#9ece4a;fill-opacity:1;fill-rule:nonzero;stroke:none"
         id="path272355"
         inkscape:connector-curvature="0" />
    </g>
    <g
       transform="matrix(0.35277777,0,0,-0.35277777,-131.16863,407.58459)"
       id="g272357">
      <g
         id="g272359" />
      <g
         id="g272371">
        <g
           clip-path="url(#clipPath272363)"
           id="g272369"
           style="opacity:0.19000202">
          <g
             transform="translate(600.9302,728.9844)"
             id="g272367">
            <path
               d="m 0,0 c 3.502,-2.02 3.526,-5.303 0.044,-7.324 -3.479,-2.02 -9.139,-2.018 -12.638,0.002 -3.5,2.019 -3.528,5.302 -0.051,7.322 C -9.167,2.023 -3.498,2.02 0,0"
               style="fill:#181816;fill-opacity:1;fill-rule:nonzero;stroke:none"
               id="path272365"
               inkscape:connector-curvature="0" />
          </g>
        </g>
      </g>
    </g>
    <g
       id="g272373"
       transform="matrix(0.35277777,0,0,-0.35277777,77.983648,146.55457)">
      <path
         d="m 0,0 -1.614,1.637 c -0.482,0.484 -1.095,1.103 -1.042,2.89 v 7.264 H -2.927 V 4.219 c 0,-1.707 0.428,-2.285 1.164,-3.022 1.089,-1.084 1.364,-1.5 1.845,-1.976 v 0.582 z"
         style="fill:#775a20;fill-opacity:1;fill-rule:nonzero;stroke:none"
         id="path272375"
         inkscape:connector-curvature="0" />
    </g>
    <g
       id="g272377"
       transform="matrix(0.35277777,0,0,-0.35277777,77.828078,143.3148)">
      <path
         d="M 0,0 1.243,-0.027 1.946,-23.83 c 0,0 -0.141,-1.084 -1.383,-1.084 -1.269,0 -1.338,1.066 -1.338,1.066 z"
         style="fill:#775a20;fill-opacity:1;fill-rule:nonzero;stroke:none"
         id="path272379"
         inkscape:connector-curvature="0" />
    </g>
    <g
       id="g272381"
       transform="matrix(0.35277777,0,0,-0.35277777,78.390998,147.24357)">
      <path
         d="m 0,0 v 0 c 0.548,0.545 0.862,1.301 0.862,2.08 v 9.234 H 1.285 V 1.84 c 0,-1.221 -0.492,-2.406 -1.361,-3.27 z"
         style="fill:#775a20;fill-opacity:1;fill-rule:nonzero;stroke:none"
         id="path272383"
         inkscape:connector-curvature="0" />
    </g>
    <g
       id="g272385"
       transform="matrix(0.35277777,0,0,-0.35277777,78.848338,145.26403)">
      <path
         d="M 0,0 1.161,1.176 C 1.504,1.523 1.946,1.965 1.907,3.242 V 8.441 H 2.104 V 3.023 C 2.104,1.797 1.792,1.389 1.262,0.854 0.486,0.076 0.286,-0.213 -0.053,-0.555 v 0.418 z"
         style="fill:#c4b08d;fill-opacity:1;fill-rule:nonzero;stroke:none"
         id="path272387"
         inkscape:connector-curvature="0" />
    </g>
    <g
       id="g272389"
       transform="matrix(0.35277777,0,0,-0.35277777,83.055149,141.86162)">
      <path
         d="m 0,0 c 0,1.518 -1.104,2.781 -2.544,3.039 -0.121,2.774 -2.397,4.99 -5.197,4.99 -0.402,0 -0.777,-0.049 -1.152,-0.134 -0.422,1.527 -1.812,2.652 -3.474,2.652 -0.833,0 -1.593,-0.281 -2.2,-0.75 -0.829,0.941 -2.042,1.543 -3.407,1.543 -2.456,0 -4.452,-1.959 -4.525,-4.404 -0.069,0.002 -0.129,0.011 -0.198,0.011 -2.28,0 -4.131,-1.845 -4.131,-4.129 0,-0.099 0.014,-0.191 0.019,-0.289 -1.153,-0.568 -1.943,-1.748 -1.943,-3.119 0,-1.549 1.016,-2.863 2.417,-3.305 0,-0.078 -0.01,-0.156 -0.01,-0.232 0,-3.531 2.866,-6.398 6.402,-6.398 0.743,0 1.45,0.13 2.11,0.367 0.937,-1.174 2.362,-1.926 3.96,-1.926 2.037,0 3.791,1.219 4.602,2.975 0.541,-0.196 1.125,-0.303 1.734,-0.303 2.875,0 5.214,2.334 5.214,5.213 0,0.4 -0.049,0.787 -0.138,1.164 C -1.059,-2.738 0,-1.488 0,0"
         style="fill:#4b6d0f;fill-opacity:1;fill-rule:nonzero;stroke:none"
         id="path272391"
         inkscape:connector-curvature="0" />
    </g>
    <g
       id="g272393"
       transform="matrix(0.35277777,0,0,-0.35277777,75.873159,140.88047)">
      <path
         d="m 0,0 c -0.01,0.057 -0.01,0.121 -0.01,0.182 0,1.757 1.428,3.183 3.19,3.183 1.303,0 2.428,-0.781 2.915,-1.906 0.413,0.346 1.169,0.865 1.656,0.965 4.33,0.894 4.34,-4.072 4.476,-3.953 0.195,0.172 0.794,2.908 -1.107,4.433 C 8.363,5.107 6.398,3.605 5.96,3.453 5.467,4.58 4.104,5.588 2.797,5.588 1.035,5.588 -0.317,4.445 -0.317,2.686 -0.317,2.629 -0.44,1.66 -0.438,1.602 -1.401,1.389 -3.201,0.33 -3.201,-1.541 c 0,-0.625 0.143,-1.223 0.382,-1.76 C -2.543,-1.762 -1.45,-0.508 0,0"
         style="fill:#71991c;fill-opacity:1;fill-rule:nonzero;stroke:none"
         id="path272395"
         inkscape:connector-curvature="0" />
    </g>
    <g
       id="g272397"
       transform="matrix(0.35277777,0,0,-0.35277777,78.48887,141.5378)">
      <path
         d="m 0,0 c 1.21,-0.428 2,-1.516 2.088,-2.725 0.584,0.27 1.705,-0.119 2.166,-0.279 1.979,-0.687 2.611,-2.611 2.016,-4.648 0.362,0.365 0.646,0.81 0.83,1.324 C 7.752,-4.469 6.763,-2.43 4.909,-1.777 4.522,-1.646 4.125,-1.582 3.743,-1.58 3.669,-0.572 3.006,0.346 1.989,0.701 1.043,1.033 0.032,0.787 -0.663,0.146 -0.441,0.123 -0.22,0.076 0,0"
         style="fill:#71991c;fill-opacity:1;fill-rule:nonzero;stroke:none"
         id="path272399"
         inkscape:connector-curvature="0" />
    </g>
    <g
       transform="matrix(0.35277777,0,0,-0.35277777,-131.16863,407.58459)"
       id="g272401">
      <g
         id="g272403" />
      <g
         id="g272415">
        <g
           clip-path="url(#clipPath272407)"
           id="g272413"
           style="opacity:0.130005">
          <g
             transform="translate(603.4189,716.6387)"
             id="g272411">
            <path
               d="m 0,0 -50.519,-29.166 -18.057,-0.02 -26.082,14.879 59.03,34.59 z"
               style="fill:#060606;fill-opacity:1;fill-rule:nonzero;stroke:none"
               id="path272409"
               inkscape:connector-curvature="0" />
          </g>
        </g>
      </g>
    </g>
    <g
       id="g272417"
       transform="matrix(0.35277777,0,0,-0.35277777,43.389698,137.47949)">
      <path
         d="m 0,0 0.134,-47.406 38.645,22.312 -0.131,78.793 z"
         style="fill:#b8bbab;fill-opacity:1;fill-rule:nonzero;stroke:none"
         id="path272419"
         inkscape:connector-curvature="0" />
    </g>
    <g
       id="g272421"
       transform="matrix(0.35277777,0,0,-0.35277777,57.024028,118.53556)">
      <path
         d="m 0,0 0.131,-78.793 38.398,-22.312 -0.136,47.402 z"
         style="fill:#818377;fill-opacity:1;fill-rule:nonzero;stroke:none"
         id="path272423"
         inkscape:connector-curvature="0" />
    </g>
    <g
       id="g272425"
       transform="matrix(0.35277777,0,0,-0.35277777,43.389698,137.47949)">
      <path
         d="m 0,0 0.134,-47.406 38.397,-22.317 -0.134,47.407 z"
         style="fill:#727374;fill-opacity:1;fill-rule:nonzero;stroke:none"
         id="path272427"
         inkscape:connector-curvature="0" />
    </g>
    <g
       id="g272429"
       transform="matrix(0.35277777,0,0,-0.35277777,56.935308,145.35222)">
      <path
         d="M 0,0 0.134,-47.406 38.781,-25.09 38.645,22.313 Z"
         style="fill:#a4a5a6;fill-opacity:1;fill-rule:nonzero;stroke:none"
         id="path272431"
         inkscape:connector-curvature="0" />
    </g>
    <g
       id="g272433"
       transform="matrix(0.35277777,0,0,-0.35277777,56.935308,129.77419)">
      <path
         d="M 0,0 38.645,22.313 0.251,44.631 -38.397,22.313 Z M 53.324,22.313 -0.049,-39.889 -53.074,22.313 0.299,53.127 Z"
         style="fill:#c9cdbb;fill-opacity:1;fill-rule:nonzero;stroke:none"
         id="path272435"
         inkscape:connector-curvature="0" />
    </g>
    <g
       id="g272437"
       transform="matrix(0.35277777,0,0,-0.35277777,43.389698,121.90283)">
      <path
         d="M 0,0 38.397,-22.313 77.042,0 38.648,22.318 Z"
         style="fill:#c6c6c6;fill-opacity:1;fill-rule:nonzero;stroke:none"
         id="path272439"
         inkscape:connector-curvature="0" />
    </g>
    <g
       id="g272441"
       transform="matrix(0.35277777,0,0,-0.35277777,70.568229,120.73975)">
      <path
         d="m 0,0 -0.009,-3.525 -38.647,22.312 0.011,3.526 z"
         style="fill:#bababa;fill-opacity:1;fill-rule:nonzero;stroke:none"
         id="path272443"
         inkscape:connector-curvature="0" />
    </g>
    <g
       id="g272445"
       transform="matrix(0.35277777,0,0,-0.35277777,56.935308,112.86839)">
      <path
         d="m 0,0 -0.011,-3.525 -38.398,-22.313 0.012,3.525 z"
         style="fill:#d8d8d8;fill-opacity:1;fill-rule:nonzero;stroke:none"
         id="path272447"
         inkscape:connector-curvature="0" />
    </g>
    <g
       id="g272449"
       transform="matrix(0.35277777,0,0,-0.35277777,38.209508,137.56148)">
      <path
         d="M 0,0 0.007,47.682 53.04,17.096 53.032,-30.584 53.165,-77.988 0.141,-47.174 0.007,-0.006 Z"
         style="fill:#ff9e73;fill-opacity:1;fill-rule:nonzero;stroke:none"
         id="path272451"
         inkscape:connector-curvature="0" />
    </g>
    <g
       id="g272453"
       transform="matrix(0.35277777,0,0,-0.35277777,56.920838,131.53049)">
      <path
         d="m 0,0 53.365,30.588 -0.014,-47.457 0.014,0.002 0.134,-47.524 -53.487,-31.004 -0.02,47.715 z"
         style="fill:#ea6e3d;fill-opacity:1;fill-rule:nonzero;stroke:none"
         id="path272455"
         inkscape:connector-curvature="0" />
    </g>
    <g
       id="g272457"
       transform="matrix(0.35277777,0,0,-0.35277777,57.024028,128.61179)">
      <path
         d="M 0,0 38.393,22.314 -0.251,44.627 -38.648,22.314 Z M -0.3,53.127 53.072,22.314 -0.292,-8.273 -53.325,22.313 Z"
         style="fill:#f1f2f2;fill-opacity:1;fill-rule:nonzero;stroke:none"
         id="path272459"
         inkscape:connector-curvature="0" />
    </g>
    <g
       id="g272461"
       transform="matrix(0.35277777,0,0,-0.35277777,59.837958,142.53274)">
      <path
         d="m 0,0 -1.289,0.926 0.093,-25.539 1.291,-0.92 z"
         style="fill:#ddd3d0;fill-opacity:1;fill-rule:nonzero;stroke:none"
         id="path272463"
         inkscape:connector-curvature="0" />
    </g>
    <g
       id="g272465"
       transform="matrix(0.35277777,0,0,-0.35277777,59.837958,131.62764)">
      <path
         d="m 0,0 -1.289,0.928 0.093,-25.543 1.291,-0.92 z"
         style="fill:#ddd3d0;fill-opacity:1;fill-rule:nonzero;stroke:none"
         id="path272467"
         inkscape:connector-curvature="0" />
    </g>
    <g
       id="g272469"
       transform="matrix(0.35277777,0,0,-0.35277777,60.060348,150.24701)">
      <path
         d="M 0,0 9.054,4.91 V 26.943 L 0,21.232 Z"
         style="fill:#707c7c;fill-opacity:1;fill-rule:nonzero;stroke:none"
         id="path272471"
         inkscape:connector-curvature="0" />
    </g>
    <g
       id="g272473"
       transform="matrix(0.35277777,0,0,-0.35277777,63.113929,148.98677)">
      <path
         d="M 0,0 -1.644,0.92 -9.172,-3.439 -7.53,-4.355 Z"
         style="fill:#ffddcf;fill-opacity:1;fill-rule:nonzero;stroke:none"
         id="path272475"
         inkscape:connector-curvature="0" />
    </g>
    <g
       id="g272477"
       transform="matrix(0.35277777,0,0,-0.35277777,63.084119,141.33383)">
      <path
         d="m 0,0 -1.559,0.918 v -21.691 l 1.643,-0.92 z"
         style="fill:#ddd3d0;fill-opacity:1;fill-rule:nonzero;stroke:none"
         id="path272479"
         inkscape:connector-curvature="0" />
    </g>
    <g
       id="g272481"
       transform="matrix(0.35277777,0,0,-0.35277777,59.878278,145.00839)">
      <path
         d="M 0,0 9.183,5.299 V 3.604 L 0,-1.701 Z"
         style="fill:#ffddcf;fill-opacity:1;fill-rule:nonzero;stroke:none"
         id="path272483"
         inkscape:connector-curvature="0" />
    </g>
    <g
       id="g272485"
       transform="matrix(0.35277777,0,0,-0.35277777,60.246408,145.37839)">
      <path
         d="M 0,0 9.181,5.305 V 3.607 L 0,-1.693 Z"
         style="fill:#efcbbf;fill-opacity:1;fill-rule:nonzero;stroke:none"
         id="path272487"
         inkscape:connector-curvature="0" />
    </g>
    <g
       id="g272489"
       transform="matrix(0.35277777,0,0,-0.35277777,63.671168,140.31617)">
      <path
         d="m 0,0 -1.29,0.924 -10.865,-6.281 1.289,-0.926 z"
         style="fill:#ffddcf;fill-opacity:1;fill-rule:nonzero;stroke:none"
         id="path272491"
         inkscape:connector-curvature="0" />
    </g>
    <g
       id="g272493"
       transform="matrix(0.35277777,0,0,-0.35277777,60.457578,150.52332)">
      <path
         d="M 0,0 7.53,4.355 7.445,26.049 0,21.693 Z M 9.206,3.396 -1.661,-2.883 -1.756,22.65 9.109,28.934 Z"
         style="fill:#efcbbf;fill-opacity:1;fill-rule:nonzero;stroke:none"
         id="path272495"
         inkscape:connector-curvature="0" />
    </g>
    <g
       id="g272497"
       transform="matrix(0.35277777,0,0,-0.35277777,71.008347,143.88667)">
      <path
         d="M 0,0 9.052,4.91 V 26.943 L 0,21.229 Z"
         style="fill:#707c7c;fill-opacity:1;fill-rule:nonzero;stroke:none"
         id="path272499"
         inkscape:connector-curvature="0" />
    </g>
    <g
       id="g272501"
       transform="matrix(0.35277777,0,0,-0.35277777,74.032289,134.97349)">
      <path
         d="m 0,0 -1.561,0.916 v -21.693 l 1.643,-0.916 z"
         style="fill:#ddd3d0;fill-opacity:1;fill-rule:nonzero;stroke:none"
         id="path272503"
         inkscape:connector-curvature="0" />
    </g>
    <g
       id="g272505"
       transform="matrix(0.35277777,0,0,-0.35277777,74.061038,142.62646)">
      <path
         d="M 0,0 -1.642,0.916 -9.176,-3.443 -7.53,-4.354 Z"
         style="fill:#ffddcf;fill-opacity:1;fill-rule:nonzero;stroke:none"
         id="path272507"
         inkscape:connector-curvature="0" />
    </g>
    <g
       id="g272509"
       transform="matrix(0.35277777,0,0,-0.35277777,70.824028,138.64807)">
      <path
         d="M 0,0 9.184,5.301 V 3.602 L 0,-1.697 Z"
         style="fill:#ffddcf;fill-opacity:1;fill-rule:nonzero;stroke:none"
         id="path272511"
         inkscape:connector-curvature="0" />
    </g>
    <g
       id="g272513"
       transform="matrix(0.35277777,0,0,-0.35277777,70.785108,136.17242)">
      <path
         d="m 0,0 -1.289,0.924 0.096,-25.537 1.29,-0.916 z"
         style="fill:#ddd3d0;fill-opacity:1;fill-rule:nonzero;stroke:none"
         id="path272515"
         inkscape:connector-curvature="0" />
    </g>
    <g
       id="g272517"
       transform="matrix(0.35277777,0,0,-0.35277777,74.618288,133.95651)">
      <path
         d="m 0,0 -1.294,0.924 -10.861,-6.281 1.289,-0.924 z"
         style="fill:#ffddcf;fill-opacity:1;fill-rule:nonzero;stroke:none"
         id="path272519"
         inkscape:connector-curvature="0" />
    </g>
    <g
       id="g272521"
       transform="matrix(0.35277777,0,0,-0.35277777,71.193169,139.01735)">
      <path
         d="m 0,0 9.182,5.305 v -1.7 L 0,-1.695 Z"
         style="fill:#efcbbf;fill-opacity:1;fill-rule:nonzero;stroke:none"
         id="path272523"
         inkscape:connector-curvature="0" />
    </g>
    <g
       id="g272525"
       transform="matrix(0.35277777,0,0,-0.35277777,71.404698,144.16226)">
      <path
         d="M 0,0 7.53,4.354 7.448,26.047 0,21.691 Z M 9.205,3.396 -1.66,-2.881 -1.756,22.648 9.109,28.93 Z"
         style="fill:#efcbbf;fill-opacity:1;fill-rule:nonzero;stroke:none"
         id="path272527"
         inkscape:connector-curvature="0" />
    </g>
    <g
       id="g272529"
       transform="matrix(0.35277777,0,0,-0.35277777,60.060348,139.34192)">
      <path
         d="M 0,0 9.054,4.91 V 26.941 L 0,21.232 Z"
         style="fill:#707c7c;fill-opacity:1;fill-rule:nonzero;stroke:none"
         id="path272531"
         inkscape:connector-curvature="0" />
    </g>
    <g
       id="g272533"
       transform="matrix(0.35277777,0,0,-0.35277777,63.113929,138.08234)">
      <path
         d="M 0,0 -1.644,0.918 -9.172,-3.439 -7.53,-4.355 Z"
         style="fill:#ffddcf;fill-opacity:1;fill-rule:nonzero;stroke:none"
         id="path272535"
         inkscape:connector-curvature="0" />
    </g>
    <g
       id="g272537"
       transform="matrix(0.35277777,0,0,-0.35277777,63.084119,130.42943)">
      <path
         d="m 0,0 -1.559,0.92 v -21.695 l 1.643,-0.918 z"
         style="fill:#ddd3d0;fill-opacity:1;fill-rule:nonzero;stroke:none"
         id="path272539"
         inkscape:connector-curvature="0" />
    </g>
    <g
       id="g272541"
       transform="matrix(0.35277777,0,0,-0.35277777,59.878278,134.10327)">
      <path
         d="M 0,0 9.183,5.303 V 3.604 L 0,-1.701 Z"
         style="fill:#ffddcf;fill-opacity:1;fill-rule:nonzero;stroke:none"
         id="path272543"
         inkscape:connector-curvature="0" />
    </g>
    <g
       id="g272545"
       transform="matrix(0.35277777,0,0,-0.35277777,60.246408,134.47258)">
      <path
         d="M 0,0 9.181,5.301 V 3.604 L 0,-1.695 Z"
         style="fill:#efcbbf;fill-opacity:1;fill-rule:nonzero;stroke:none"
         id="path272547"
         inkscape:connector-curvature="0" />
    </g>
    <g
       id="g272549"
       transform="matrix(0.35277777,0,0,-0.35277777,63.671168,129.41173)">
      <path
         d="m 0,0 -1.29,0.926 -10.865,-6.28 1.289,-0.927 z"
         style="fill:#ffddcf;fill-opacity:1;fill-rule:nonzero;stroke:none"
         id="path272551"
         inkscape:connector-curvature="0" />
    </g>
    <g
       id="g272553"
       transform="matrix(0.35277777,0,0,-0.35277777,60.457578,139.61888)">
      <path
         d="M 0,0 7.53,4.355 7.445,26.049 0,21.697 Z M 9.206,3.398 -1.661,-2.883 -1.756,22.652 9.109,28.934 Z"
         style="fill:#efcbbf;fill-opacity:1;fill-rule:nonzero;stroke:none"
         id="path272555"
         inkscape:connector-curvature="0" />
    </g>
    <g
       id="g272557"
       transform="matrix(0.35277777,0,0,-0.35277777,71.008347,132.98157)">
      <path
         d="M 0,0 9.052,4.91 V 26.943 L 0,21.23 Z"
         style="fill:#707c7c;fill-opacity:1;fill-rule:nonzero;stroke:none"
         id="path272559"
         inkscape:connector-curvature="0" />
    </g>
    <g
       id="g272561"
       transform="matrix(0.35277777,0,0,-0.35277777,74.061038,131.72133)">
      <path
         d="M 0,0 -1.642,0.916 -9.176,-3.443 -7.53,-4.357 Z"
         style="fill:#ffddcf;fill-opacity:1;fill-rule:nonzero;stroke:none"
         id="path272563"
         inkscape:connector-curvature="0" />
    </g>
    <g
       id="g272565"
       transform="matrix(0.35277777,0,0,-0.35277777,74.032289,124.06911)">
      <path
         d="m 0,0 -1.561,0.92 v -21.695 l 1.643,-0.916 z"
         style="fill:#ddd3d0;fill-opacity:1;fill-rule:nonzero;stroke:none"
         id="path272567"
         inkscape:connector-curvature="0" />
    </g>
    <g
       id="g272569"
       transform="matrix(0.35277777,0,0,-0.35277777,70.824028,127.74433)">
      <path
         d="M 0,0 9.184,5.303 V 3.604 L 0,-1.695 Z"
         style="fill:#ffddcf;fill-opacity:1;fill-rule:nonzero;stroke:none"
         id="path272571"
         inkscape:connector-curvature="0" />
    </g>
    <g
       id="g272573"
       transform="matrix(0.35277777,0,0,-0.35277777,70.785108,125.2673)">
      <path
         d="m 0,0 -1.289,0.928 0.096,-25.543 1.29,-0.918 z"
         style="fill:#ddd3d0;fill-opacity:1;fill-rule:nonzero;stroke:none"
         id="path272575"
         inkscape:connector-curvature="0" />
    </g>
    <g
       id="g272577"
       transform="matrix(0.35277777,0,0,-0.35277777,74.618288,123.05141)">
      <path
         d="m 0,0 -1.294,0.926 -10.861,-6.28 1.289,-0.927 z"
         style="fill:#ffddcf;fill-opacity:1;fill-rule:nonzero;stroke:none"
         id="path272579"
         inkscape:connector-curvature="0" />
    </g>
    <g
       id="g272581"
       transform="matrix(0.35277777,0,0,-0.35277777,71.193169,128.11226)">
      <path
         d="M 0,0 9.182,5.301 V 3.605 L 0,-1.697 Z"
         style="fill:#efcbbf;fill-opacity:1;fill-rule:nonzero;stroke:none"
         id="path272583"
         inkscape:connector-curvature="0" />
    </g>
    <g
       id="g272585"
       transform="matrix(0.35277777,0,0,-0.35277777,71.404698,133.25854)">
      <path
         d="M 0,0 7.53,4.357 7.448,26.049 0,21.695 Z M 9.205,3.396 -1.66,-2.881 -1.756,22.652 9.109,28.934 Z"
         style="fill:#efcbbf;fill-opacity:1;fill-rule:nonzero;stroke:none"
         id="path272587"
         inkscape:connector-curvature="0" />
    </g>
    <g
       id="g272589"
       transform="matrix(0.35277777,0,0,-0.35277777,69.583129,158.36432)">
      <path
         d="m 0,0 -1.744,1.016 -0.094,29.816 1.744,1.133 z"
         style="fill:#ddd3d0;fill-opacity:1;fill-rule:nonzero;stroke:none"
         id="path272591"
         inkscape:connector-curvature="0" />
    </g>
    <g
       id="g272593"
       transform="matrix(0.35277777,0,0,-0.35277777,65.622108,160.65395)">
      <path
         d="m 0,0 -1.149,0.738 -0.09,31.967 1.151,-0.738 z"
         style="fill:#ddd3d0;fill-opacity:1;fill-rule:nonzero;stroke:none"
         id="path272595"
         inkscape:connector-curvature="0" />
    </g>
    <g
       id="g272597"
       transform="matrix(0.35277777,0,0,-0.35277777,65.590959,149.37677)">
      <path
         d="M 0,0 -1.136,0.73 11.453,8 12.588,7.271 Z"
         style="fill:#ffddcf;fill-opacity:1;fill-rule:nonzero;stroke:none"
         id="path272599"
         inkscape:connector-curvature="0" />
    </g>
    <g
       id="g272601"
       transform="matrix(0.35277777,0,0,-0.35277777,69.266508,147.82509)">
      <path
         d="m 0,0 0.082,-29.441 -9.893,-5.684 -0.084,29.443 z"
         style="fill:#2f4b77;fill-opacity:1;fill-rule:nonzero;stroke:none"
         id="path272603"
         inkscape:connector-curvature="0" />
    </g>
    <g
       id="g272605"
       transform="matrix(0.35277777,0,0,-0.35277777,66.128729,149.70268)">
      <path
         d="m 0,0 9.705,5.512 0.076,-30.073 1.375,0.795 -0.093,31.961 -12.587,-7.271 0.088,-31.967 1.512,0.881 z"
         style="fill:#efcbbf;fill-opacity:1;fill-rule:nonzero;stroke:none"
         id="path272607"
         inkscape:connector-curvature="0" />
    </g>
    <g
       id="g272609"
       transform="matrix(0.35277777,0,0,-0.35277777,66.669779,154.23227)">
      <path
         d="m 0,0 h 0.047 c 0.038,-0.006 0.278,-0.113 0.318,-0.129 -0.287,0.123 -0.664,-0.662 -0.35,-0.805 -0.242,0.11 -0.307,0.112 -0.354,0.204 C -0.453,-0.508 -0.248,-0.045 0,0"
         style="fill:#ad9634;fill-opacity:1;fill-rule:nonzero;stroke:none"
         id="path272611"
         inkscape:connector-curvature="0" />
    </g>
    <g
       id="g272613"
       transform="matrix(0.35277777,0,0,-0.35277777,66.881808,154.46106)">
      <path
         d="M 0,0 C -0.19,-0.389 -0.17,-0.803 0.045,-0.928 0.258,-1.059 0.579,-0.842 0.764,-0.453 0.958,-0.068 0.938,0.354 0.726,0.475 0.511,0.602 0.187,0.385 0,0"
         style="fill:#f2d95f;fill-opacity:1;fill-rule:nonzero;stroke:none"
         id="path272615"
         inkscape:connector-curvature="0" />
    </g>
    <g
       id="g272617"
       transform="matrix(0.35277777,0,0,-0.35277777,66.897677,154.78832)">
      <path
         d="M 0,0 C -0.215,0.125 -0.235,0.539 -0.045,0.928 0.142,1.313 0.466,1.529 0.681,1.402 0.893,1.281 0.913,0.859 0.719,0.475 0.534,0.086 0.213,-0.131 0,0 M 0.217,-0.189 C 0.635,0.027 0.886,0.559 0.93,0.936 1.082,2.012 -0.084,2.365 -0.646,1.211 L -0.647,1.209 c -0.48,-0.961 0.128,-1.785 0.864,-1.398"
         style="fill:#f9e97a;fill-opacity:1;fill-rule:nonzero;stroke:none"
         id="path272619"
         inkscape:connector-curvature="0" />
    </g>
    <g
       id="g272621"
       transform="matrix(0.35277777,0,0,-0.35277777,54.287068,142.96338)">
      <path
         d="M 0,0 1.285,0.926 1.193,-24.613 -0.101,-25.531 Z"
         style="fill:#ddd3d0;fill-opacity:1;fill-rule:nonzero;stroke:none"
         id="path272623"
         inkscape:connector-curvature="0" />
    </g>
    <g
       id="g272625"
       transform="matrix(0.35277777,0,0,-0.35277777,54.287068,132.05828)">
      <path
         d="M 0,0 1.285,0.926 1.193,-24.613 -0.101,-25.535 Z"
         style="fill:#ddd3d0;fill-opacity:1;fill-rule:nonzero;stroke:none"
         id="path272627"
         inkscape:connector-curvature="0" />
    </g>
    <g
       id="g272629"
       transform="matrix(0.35277777,0,0,-0.35277777,54.063658,150.67831)">
      <path
         d="M 0,0 -9.052,4.912 V 26.945 L 0,21.23 Z"
         style="fill:#939999;fill-opacity:1;fill-rule:nonzero;stroke:none"
         id="path272631"
         inkscape:connector-curvature="0" />
    </g>
    <g
       id="g272633"
       transform="matrix(0.35277777,0,0,-0.35277777,51.010968,149.41741)">
      <path
         d="M 0,0 1.643,0.916 9.171,-3.443 7.526,-4.359 Z"
         style="fill:#ffddcf;fill-opacity:1;fill-rule:nonzero;stroke:none"
         id="path272635"
         inkscape:connector-curvature="0" />
    </g>
    <g
       id="g272637"
       transform="matrix(0.35277777,0,0,-0.35277777,51.039538,141.76381)">
      <path
         d="m 0,0 1.562,0.916 v -21.695 l -1.643,-0.916 z"
         style="fill:#ddd3d0;fill-opacity:1;fill-rule:nonzero;stroke:none"
         id="path272639"
         inkscape:connector-curvature="0" />
    </g>
    <g
       id="g272641"
       transform="matrix(0.35277777,0,0,-0.35277777,54.246398,145.4404)">
      <path
         d="M 0,0 -9.184,5.307 V 3.605 L 0,-1.695 Z"
         style="fill:#ffddcf;fill-opacity:1;fill-rule:nonzero;stroke:none"
         id="path272643"
         inkscape:connector-curvature="0" />
    </g>
    <g
       id="g272645"
       transform="matrix(0.35277777,0,0,-0.35277777,53.877608,145.80833)">
      <path
         d="M 0,0 -9.182,5.301 V 3.604 L 0,-1.699 Z"
         style="fill:#ffddcf;fill-opacity:1;fill-rule:nonzero;stroke:none"
         id="path272647"
         inkscape:connector-curvature="0" />
    </g>
    <g
       id="g272649"
       transform="matrix(0.35277777,0,0,-0.35277777,50.453008,140.74749)">
      <path
         d="M 0,0 1.292,0.926 12.153,-5.355 10.868,-6.281 Z"
         style="fill:#ffddcf;fill-opacity:1;fill-rule:nonzero;stroke:none"
         id="path272651"
         inkscape:connector-curvature="0" />
    </g>
    <g
       id="g272653"
       transform="matrix(0.35277777,0,0,-0.35277777,53.665898,150.95533)">
      <path
         d="M 0,0 V 21.695 L -7.445,26.055 -7.526,4.359 Z M -9.107,28.936 1.761,22.654 1.66,-2.877 -9.202,3.402 Z"
         style="fill:#ffddcf;fill-opacity:1;fill-rule:nonzero;stroke:none"
         id="path272655"
         inkscape:connector-curvature="0" />
    </g>
    <g
       id="g272657"
       transform="matrix(0.35277777,0,0,-0.35277777,43.115839,144.31799)">
      <path
         d="M 0,0 -9.051,4.912 V 26.945 L 0,21.232 Z"
         style="fill:#939999;fill-opacity:1;fill-rule:nonzero;stroke:none"
         id="path272659"
         inkscape:connector-curvature="0" />
    </g>
    <g
       id="g272661"
       transform="matrix(0.35277777,0,0,-0.35277777,40.092918,135.40346)">
      <path
         d="m 0,0 1.559,0.916 v -21.693 l -1.646,-0.918 z"
         style="fill:#ddd3d0;fill-opacity:1;fill-rule:nonzero;stroke:none"
         id="path272663"
         inkscape:connector-curvature="0" />
    </g>
    <g
       id="g272665"
       transform="matrix(0.35277777,0,0,-0.35277777,40.062088,143.05709)">
      <path
         d="M 0,0 1.646,0.918 9.176,-3.441 7.534,-4.359 Z"
         style="fill:#ffddcf;fill-opacity:1;fill-rule:nonzero;stroke:none"
         id="path272667"
         inkscape:connector-curvature="0" />
    </g>
    <g
       id="g272669"
       transform="matrix(0.35277777,0,0,-0.35277777,43.299278,139.07937)">
      <path
         d="M 0,0 -9.184,5.303 V 3.604 L 0,-1.695 Z"
         style="fill:#ffddcf;fill-opacity:1;fill-rule:nonzero;stroke:none"
         id="path272671"
         inkscape:connector-curvature="0" />
    </g>
    <g
       id="g272673"
       transform="matrix(0.35277777,0,0,-0.35277777,43.339428,136.60305)">
      <path
         d="M 0,0 1.289,0.928 1.19,-24.613 -0.095,-25.535 Z"
         style="fill:#ddd3d0;fill-opacity:1;fill-rule:nonzero;stroke:none"
         id="path272675"
         inkscape:connector-curvature="0" />
    </g>
    <g
       id="g272677"
       transform="matrix(0.35277777,0,0,-0.35277777,39.506389,134.38714)">
      <path
         d="m 0,0 1.289,0.926 10.865,-6.28 -1.289,-0.927 z"
         style="fill:#ffddcf;fill-opacity:1;fill-rule:nonzero;stroke:none"
         id="path272679"
         inkscape:connector-curvature="0" />
    </g>
    <g
       id="g272681"
       transform="matrix(0.35277777,0,0,-0.35277777,42.931508,139.44937)">
      <path
         d="M 0,0 -9.183,5.305 V 3.609 L 0,-1.693 Z"
         style="fill:#ffddcf;fill-opacity:1;fill-rule:nonzero;stroke:none"
         id="path272683"
         inkscape:connector-curvature="0" />
    </g>
    <g
       id="g272685"
       transform="matrix(0.35277777,0,0,-0.35277777,42.719808,144.59498)">
      <path
         d="M 0,0 V 21.697 L -7.446,26.055 -7.534,4.359 Z M -9.109,28.936 1.756,22.654 1.662,-2.881 -9.206,3.4 Z"
         style="fill:#ffddcf;fill-opacity:1;fill-rule:nonzero;stroke:none"
         id="path272687"
         inkscape:connector-curvature="0" />
    </g>
    <g
       id="g272689"
       transform="matrix(0.35277777,0,0,-0.35277777,54.063658,139.77255)">
      <path
         d="M 0,0 -9.052,4.908 V 26.941 L 0,21.229 Z"
         style="fill:#939999;fill-opacity:1;fill-rule:nonzero;stroke:none"
         id="path272691"
         inkscape:connector-curvature="0" />
    </g>
    <g
       id="g272693"
       transform="matrix(0.35277777,0,0,-0.35277777,51.010968,138.51298)">
      <path
         d="M 0,0 1.643,0.918 9.171,-3.441 7.526,-4.355 Z"
         style="fill:#ffddcf;fill-opacity:1;fill-rule:nonzero;stroke:none"
         id="path272695"
         inkscape:connector-curvature="0" />
    </g>
    <g
       id="g272697"
       transform="matrix(0.35277777,0,0,-0.35277777,51.039538,130.85869)">
      <path
         d="m 0,0 1.562,0.916 v -21.695 l -1.643,-0.918 z"
         style="fill:#ddd3d0;fill-opacity:1;fill-rule:nonzero;stroke:none"
         id="path272699"
         inkscape:connector-curvature="0" />
    </g>
    <g
       id="g272701"
       transform="matrix(0.35277777,0,0,-0.35277777,54.246398,134.53391)">
      <path
         d="M 0,0 -9.184,5.303 V 3.604 L 0,-1.701 Z"
         style="fill:#ffddcf;fill-opacity:1;fill-rule:nonzero;stroke:none"
         id="path272703"
         inkscape:connector-curvature="0" />
    </g>
    <g
       id="g272705"
       transform="matrix(0.35277777,0,0,-0.35277777,53.877608,134.90321)">
      <path
         d="M 0,0 -9.182,5.301 V 3.604 L 0,-1.697 Z"
         style="fill:#ffddcf;fill-opacity:1;fill-rule:nonzero;stroke:none"
         id="path272707"
         inkscape:connector-curvature="0" />
    </g>
    <g
       id="g272709"
       transform="matrix(0.35277777,0,0,-0.35277777,50.453008,129.84171)">
      <path
         d="M 0,0 1.292,0.924 12.153,-5.357 10.868,-6.283 Z"
         style="fill:#ffddcf;fill-opacity:1;fill-rule:nonzero;stroke:none"
         id="path272711"
         inkscape:connector-curvature="0" />
    </g>
    <g
       id="g272713"
       transform="matrix(0.35277777,0,0,-0.35277777,53.665898,140.04952)">
      <path
         d="M 0,0 V 21.695 L -7.445,26.053 -7.526,4.355 Z M -9.107,28.936 1.761,22.652 1.66,-2.883 -9.202,3.396 Z"
         style="fill:#ffddcf;fill-opacity:1;fill-rule:nonzero;stroke:none"
         id="path272715"
         inkscape:connector-curvature="0" />
    </g>
    <g
       id="g272717"
       transform="matrix(0.35277777,0,0,-0.35277777,43.115839,133.41287)">
      <path
         d="M 0,0 -9.051,4.912 V 26.945 L 0,21.234 Z"
         style="fill:#939999;fill-opacity:1;fill-rule:nonzero;stroke:none"
         id="path272719"
         inkscape:connector-curvature="0" />
    </g>
    <g
       id="g272721"
       transform="matrix(0.35277777,0,0,-0.35277777,40.062088,132.15197)">
      <path
         d="M 0,0 1.646,0.916 9.176,-3.441 7.534,-4.357 Z"
         style="fill:#ffddcf;fill-opacity:1;fill-rule:nonzero;stroke:none"
         id="path272723"
         inkscape:connector-curvature="0" />
    </g>
    <g
       id="g272725"
       transform="matrix(0.35277777,0,0,-0.35277777,40.092918,124.49974)">
      <path
         d="m 0,0 1.559,0.918 v -21.693 l -1.646,-0.916 z"
         style="fill:#ddd3d0;fill-opacity:1;fill-rule:nonzero;stroke:none"
         id="path272727"
         inkscape:connector-curvature="0" />
    </g>
    <g
       id="g272729"
       transform="matrix(0.35277777,0,0,-0.35277777,43.299278,128.17428)">
      <path
         d="M 0,0 -9.184,5.303 V 3.602 L 0,-1.697 Z"
         style="fill:#ffddcf;fill-opacity:1;fill-rule:nonzero;stroke:none"
         id="path272731"
         inkscape:connector-curvature="0" />
    </g>
    <g
       id="g272733"
       transform="matrix(0.35277777,0,0,-0.35277777,43.339428,125.69862)">
      <path
         d="M 0,0 1.289,0.924 1.19,-24.609 -0.095,-25.533 Z"
         style="fill:#ddd3d0;fill-opacity:1;fill-rule:nonzero;stroke:none"
         id="path272735"
         inkscape:connector-curvature="0" />
    </g>
    <g
       id="g272737"
       transform="matrix(0.35277777,0,0,-0.35277777,39.506389,123.48205)">
      <path
         d="M 0,0 1.289,0.928 12.154,-5.359 10.865,-6.283 Z"
         style="fill:#ffddcf;fill-opacity:1;fill-rule:nonzero;stroke:none"
         id="path272739"
         inkscape:connector-curvature="0" />
    </g>
    <g
       id="g272741"
       transform="matrix(0.35277777,0,0,-0.35277777,42.931508,128.54289)">
      <path
         d="M 0,0 -9.183,5.301 V 3.604 L 0,-1.699 Z"
         style="fill:#ffddcf;fill-opacity:1;fill-rule:nonzero;stroke:none"
         id="path272743"
         inkscape:connector-curvature="0" />
    </g>
    <g
       id="g272745"
       transform="matrix(0.35277777,0,0,-0.35277777,42.719808,133.68917)">
      <path
         d="M 0,0 V 21.693 L -7.446,26.049 -7.534,4.357 Z M -9.109,28.934 1.756,22.65 1.662,-2.883 -9.206,3.398 Z"
         style="fill:#ffddcf;fill-opacity:1;fill-rule:nonzero;stroke:none"
         id="path272747"
         inkscape:connector-curvature="0" />
    </g>
    <g
       id="g272749"
       transform="matrix(0.35277777,0,0,-0.35277777,57.175268,128.98247)">
      <path
         d="M 0,0 41.173,23.768 0.266,47.543 -40.905,23.768 Z"
         style="fill:#c9cdbb;fill-opacity:1;fill-rule:nonzero;stroke:none"
         id="path272751"
         inkscape:connector-curvature="0" />
    </g>
    <g
       id="g272753"
       transform="matrix(0.35277777,0,0,-0.35277777,42.744789,120.5978)">
      <path
         d="M 0,0 40.905,-23.768 82.079,0 41.171,23.775 Z"
         style="fill:#a53f20;fill-opacity:1;fill-rule:nonzero;stroke:none"
         id="path272755"
         inkscape:connector-curvature="0" />
    </g>
    <g
       id="g272757"
       transform="matrix(0.35277777,0,0,-0.35277777,71.700288,119.35894)">
      <path
         d="m 0,0 -0.009,-3.754 -41.177,23.77 0.013,3.755 z"
         style="fill:#bf5834;fill-opacity:1;fill-rule:nonzero;stroke:none"
         id="path272759"
         inkscape:connector-curvature="0" />
    </g>
    <g
       id="g272761"
       transform="matrix(0.35277777,0,0,-0.35277777,57.175268,110.97289)">
      <path
         d="m 0,0 -0.013,-3.756 -40.906,-23.769 0.014,3.754 z"
         style="fill:#a53f20;fill-opacity:1;fill-rule:nonzero;stroke:none"
         id="path272763"
         inkscape:connector-curvature="0" />
    </g>
    <g
       id="g272765"
       transform="matrix(0.35277777,0,0,-0.35277777,37.228329,119.35966)">
      <path
         d="m 0,0 56.526,-32.58 v -5.172 L 0.141,-4.934 Z"
         style="fill:#bf5834;fill-opacity:1;fill-rule:nonzero;stroke:none"
         id="path272767"
         inkscape:connector-curvature="0" />
    </g>
    <g
       id="g272769"
       transform="matrix(0.35277777,0,0,-0.35277777,57.169588,130.85318)">
      <path
         d="M 0,0 56.824,32.582 56.97,27.518 0,-5.172 Z"
         style="fill:#a53f20;fill-opacity:1;fill-rule:nonzero;stroke:none"
         id="path272771"
         inkscape:connector-curvature="0" />
    </g>
    <g
       id="g272773"
       transform="matrix(0.35277777,0,0,-0.35277777,57.268958,127.74433)">
      <path
         d="M 0,0 40.908,23.77 -0.266,47.541 -41.171,23.77 Z M -0.319,56.598 56.542,23.77 -0.282,-8.813 -56.808,23.768 Z"
         style="fill:#ea6e3d;fill-opacity:1;fill-rule:nonzero;stroke:none"
         id="path272775"
         inkscape:connector-curvature="0" />
    </g>
    <g
       id="g272777"
       transform="matrix(0.35277777,0,0,-0.35277777,54.020408,153.65834)">
      <path
         d="M 0,0 1.288,0.926 1.192,-24.613 -0.1,-25.535 Z"
         style="fill:#ddd3d0;fill-opacity:1;fill-rule:nonzero;stroke:none"
         id="path272779"
         inkscape:connector-curvature="0" />
    </g>
    <g
       id="g272781"
       transform="matrix(0.35277777,0,0,-0.35277777,53.795968,161.37261)">
      <path
         d="M 0,0 -9.051,4.908 V 26.941 L 0,21.232 Z"
         style="fill:#939999;fill-opacity:1;fill-rule:nonzero;stroke:none"
         id="path272783"
         inkscape:connector-curvature="0" />
    </g>
    <g
       id="g272785"
       transform="matrix(0.35277777,0,0,-0.35277777,50.743098,160.11237)">
      <path
         d="M 0,0 1.644,0.914 9.173,-3.441 7.53,-4.357 Z"
         style="fill:#ffddcf;fill-opacity:1;fill-rule:nonzero;stroke:none"
         id="path272787"
         inkscape:connector-curvature="0" />
    </g>
    <g
       id="g272789"
       transform="matrix(0.35277777,0,0,-0.35277777,50.773408,152.46012)">
      <path
         d="m 0,0 1.558,0.918 v -21.695 l -1.644,-0.914 z"
         style="fill:#ddd3d0;fill-opacity:1;fill-rule:nonzero;stroke:none"
         id="path272791"
         inkscape:connector-curvature="0" />
    </g>
    <g
       id="g272793"
       transform="matrix(0.35277777,0,0,-0.35277777,53.979058,156.13465)">
      <path
         d="M 0,0 -9.181,5.301 V 3.604 L 0,-1.699 Z"
         style="fill:#ffddcf;fill-opacity:1;fill-rule:nonzero;stroke:none"
         id="path272795"
         inkscape:connector-curvature="0" />
    </g>
    <g
       id="g272797"
       transform="matrix(0.35277777,0,0,-0.35277777,53.611468,156.50398)">
      <path
         d="m 0,0 -9.183,5.305 v -1.7 L 0,-1.695 Z"
         style="fill:#ffddcf;fill-opacity:1;fill-rule:nonzero;stroke:none"
         id="path272799"
         inkscape:connector-curvature="0" />
    </g>
    <g
       id="g272801"
       transform="matrix(0.35277777,0,0,-0.35277777,50.186528,151.44242)">
      <path
         d="M 0,0 1.292,0.926 12.156,-5.355 10.868,-6.281 Z"
         style="fill:#ffddcf;fill-opacity:1;fill-rule:nonzero;stroke:none"
         id="path272803"
         inkscape:connector-curvature="0" />
    </g>
    <g
       id="g272805"
       transform="matrix(0.35277777,0,0,-0.35277777,53.399448,161.64957)">
      <path
         d="M 0,0 V 21.693 L -7.444,26.049 -7.53,4.357 Z M -9.107,28.934 1.76,22.652 1.661,-2.883 -9.203,3.396 Z"
         style="fill:#ffddcf;fill-opacity:1;fill-rule:nonzero;stroke:none"
         id="path272807"
         inkscape:connector-curvature="0" />
    </g>
    <g
       id="g272809"
       transform="matrix(0.35277777,0,0,-0.35277777,42.849168,155.01292)">
      <path
         d="M 0,0 -9.051,4.912 V 26.945 L 0,21.232 Z"
         style="fill:#939999;fill-opacity:1;fill-rule:nonzero;stroke:none"
         id="path272811"
         inkscape:connector-curvature="0" />
    </g>
    <g
       id="g272813"
       transform="matrix(0.35277777,0,0,-0.35277777,39.825759,146.09909)">
      <path
         d="m 0,0 1.561,0.918 v -21.695 l -1.645,-0.916 z"
         style="fill:#ddd3d0;fill-opacity:1;fill-rule:nonzero;stroke:none"
         id="path272815"
         inkscape:connector-curvature="0" />
    </g>
    <g
       id="g272817"
       transform="matrix(0.35277777,0,0,-0.35277777,39.795949,153.75203)">
      <path
         d="M 0,0 1.645,0.916 9.176,-3.443 7.532,-4.357 Z"
         style="fill:#ffddcf;fill-opacity:1;fill-rule:nonzero;stroke:none"
         id="path272819"
         inkscape:connector-curvature="0" />
    </g>
    <g
       id="g272821"
       transform="matrix(0.35277777,0,0,-0.35277777,43.033139,149.77502)">
      <path
         d="M 0,0 -9.185,5.301 V 3.604 L 0,-1.695 Z"
         style="fill:#ffddcf;fill-opacity:1;fill-rule:nonzero;stroke:none"
         id="path272823"
         inkscape:connector-curvature="0" />
    </g>
    <g
       id="g272825"
       transform="matrix(0.35277777,0,0,-0.35277777,43.071739,147.29868)">
      <path
         d="m 0,0 1.293,0.926 -0.095,-25.537 -1.29,-0.92 z"
         style="fill:#ddd3d0;fill-opacity:1;fill-rule:nonzero;stroke:none"
         id="path272827"
         inkscape:connector-curvature="0" />
    </g>
    <g
       id="g272829"
       transform="matrix(0.35277777,0,0,-0.35277777,39.239589,145.08211)">
      <path
         d="M 0,0 1.291,0.926 12.156,-5.357 10.863,-6.283 Z"
         style="fill:#ffddcf;fill-opacity:1;fill-rule:nonzero;stroke:none"
         id="path272831"
         inkscape:connector-curvature="0" />
    </g>
    <g
       id="g272833"
       transform="matrix(0.35277777,0,0,-0.35277777,42.664349,150.14364)">
      <path
         d="m 0,0 -9.183,5.305 v -1.7 L 0,-1.695 Z"
         style="fill:#ffddcf;fill-opacity:1;fill-rule:nonzero;stroke:none"
         id="path272835"
         inkscape:connector-curvature="0" />
    </g>
    <g
       id="g272837"
       transform="matrix(0.35277777,0,0,-0.35277777,42.453179,155.28923)">
      <path
         d="M 0,0 V 21.693 L -7.448,26.051 -7.532,4.357 Z M -9.109,28.934 1.753,22.65 1.661,-2.881 -9.204,3.398 Z"
         style="fill:#ffddcf;fill-opacity:1;fill-rule:nonzero;stroke:none"
         id="path272839"
         inkscape:connector-curvature="0" />
    </g>
    <g
       transform="matrix(0.35277777,0,0,-0.35277777,-131.16863,407.58459)"
       id="g272841">
      <g
         id="g272843" />
      <g
         id="g272855">
        <g
           clip-path="url(#clipPath272847)"
           id="g272853"
           style="opacity:0.11000097">
          <g
             transform="translate(503.0986,815.1152)"
             id="g272851">
            <path
               d="m 0,0 34.262,19.916 -3.485,2.002 -37.66,-21.875 37.938,-21.91 3.412,1.974 z"
               style="fill:#161615;fill-opacity:1;fill-rule:nonzero;stroke:none"
               id="path272849"
               inkscape:connector-curvature="0" />
          </g>
        </g>
      </g>
    </g>
  </g>
</svg>
