<?xml version="1.0" encoding="UTF-8" standalone="no"?>
<!-- Created with Inkscape (http://www.inkscape.org/) -->

<svg
   xmlns:dc="http://purl.org/dc/elements/1.1/"
   xmlns:cc="http://creativecommons.org/ns#"
   xmlns:rdf="http://www.w3.org/1999/02/22-rdf-syntax-ns#"
   xmlns:svg="http://www.w3.org/2000/svg"
   xmlns="http://www.w3.org/2000/svg"
   xmlns:sodipodi="http://sodipodi.sourceforge.net/DTD/sodipodi-0.dtd"
   xmlns:inkscape="http://www.inkscape.org/namespaces/inkscape"
   width="46.131336mm"
   height="47.33041mm"
   viewBox="0 0 46.131336 47.33041"
   version="1.1"
   id="svg17471"
   inkscape:version="0.92.3 (2405546, 2018-03-11)"
   sodipodi:docname="apartemant-17.svg">
  <defs
     id="defs17465">
    <clipPath
       clipPathUnits="userSpaceOnUse"
       id="clipPath272075">
      <path
         d="m 1274.104,727.765 45.052,-25.166 34.801,20.09 -0.085,58.936 -17.463,3.558 -17.348,-23.65 -45.047,25.166 z"
         id="path272073"
         inkscape:connector-curvature="0" />
    </clipPath>
    <clipPath
       clipPathUnits="userSpaceOnUse"
       id="clipPath272083">
      <path
         d="m 1276.76,805.197 h 2.82 v -88.176 h -2.82 z"
         id="path272081"
         inkscape:connector-curvature="0" />
    </clipPath>
    <clipPath
       clipPathUnits="userSpaceOnUse"
       id="clipPath272097">
      <path
         d="m 1284.58,802.937 h 2.82 V 714.76 h -2.82 z"
         id="path272095"
         inkscape:connector-curvature="0" />
    </clipPath>
    <clipPath
       clipPathUnits="userSpaceOnUse"
       id="clipPath272111">
      <path
         d="m 1292.39,800.674 h 2.82 v -88.178 h -2.82 z"
         id="path272109"
         inkscape:connector-curvature="0" />
    </clipPath>
    <clipPath
       clipPathUnits="userSpaceOnUse"
       id="clipPath272125">
      <path
         d="m 1300.2,798.41 h 2.82 v -88.178 h -2.82 z"
         id="path272123"
         inkscape:connector-curvature="0" />
    </clipPath>
    <clipPath
       clipPathUnits="userSpaceOnUse"
       id="clipPath272139">
      <path
         d="m 1308.02,797.666 h 2.82 V 696.152 h -2.82 z"
         id="path272137"
         inkscape:connector-curvature="0" />
    </clipPath>
    <clipPath
       clipPathUnits="userSpaceOnUse"
       id="clipPath272153">
      <path
         d="m 1315.83,795.061 h 2.82 V 693.547 h -2.82 z"
         id="path272151"
         inkscape:connector-curvature="0" />
    </clipPath>
    <clipPath
       clipPathUnits="userSpaceOnUse"
       id="clipPath272167">
      <path
         d="m 1323.64,792.455 h 2.82 V 690.943 h -2.82 z"
         id="path272165"
         inkscape:connector-curvature="0" />
    </clipPath>
    <clipPath
       clipPathUnits="userSpaceOnUse"
       id="clipPath272181">
      <path
         d="m 1331.46,789.85 h 2.82 V 688.336 h -2.82 z"
         id="path272179"
         inkscape:connector-curvature="0" />
    </clipPath>
    <clipPath
       clipPathUnits="userSpaceOnUse"
       id="clipPath272195">
      <path
         d="m 1339.27,787.246 h 2.82 V 685.732 h -2.82 z"
         id="path272193"
         inkscape:connector-curvature="0" />
    </clipPath>
    <clipPath
       clipPathUnits="userSpaceOnUse"
       id="clipPath272209">
      <path
         d="m 1347.08,784.641 h 2.83 V 683.127 h -2.83 z"
         id="path272207"
         inkscape:connector-curvature="0" />
    </clipPath>
    <clipPath
       clipPathUnits="userSpaceOnUse"
       id="clipPath272051">
      <path
         d="m 1291.49,742.131 h 79.42 v -39.615 h -79.42 z"
         id="path272049"
         inkscape:connector-curvature="0" />
    </clipPath>
  </defs>
  <sodipodi:namedview
     id="base"
     pagecolor="#ffffff"
     bordercolor="#666666"
     borderopacity="1.0"
     inkscape:pageopacity="0.0"
     inkscape:pageshadow="2"
     inkscape:zoom="0.35"
     inkscape:cx="114.32019"
     inkscape:cy="-1.9852677"
     inkscape:document-units="mm"
     inkscape:current-layer="layer1"
     showgrid="false"
     fit-margin-top="0"
     fit-margin-left="0"
     fit-margin-right="0"
     fit-margin-bottom="0"
     inkscape:window-width="1366"
     inkscape:window-height="716"
     inkscape:window-x="-8"
     inkscape:window-y="-8"
     inkscape:window-maximized="1" />
  <metadata
     id="metadata17468">
    <rdf:RDF>
      <cc:Work
         rdf:about="">
        <dc:format>image/svg+xml</dc:format>
        <dc:type
           rdf:resource="http://purl.org/dc/dcmitype/StillImage" />
        <dc:title></dc:title>
      </cc:Work>
    </rdf:RDF>
  </metadata>
  <g
     inkscape:label="Layer 1"
     inkscape:groupmode="layer"
     id="layer1"
     transform="translate(107.73234,-100.97765)">
    <g
       id="g272025"
       transform="matrix(0.35277777,0,0,-0.35277777,-62.192959,135.82811)">
      <path
         d="m 0,0 -55.28,-32.188 c -2.245,-1.304 -5.895,-1.304 -8.151,0 L -127.379,4.73 c -1.134,0.655 -1.704,1.52 -1.7,2.379 l -0.009,-2.211 c 0,-0.861 0.567,-1.72 1.705,-2.377 l 63.943,-36.917 c 2.258,-1.307 5.91,-1.307 8.155,0 l 55.279,32.183 c 1.115,0.647 1.675,1.496 1.675,2.344 L 1.678,2.342 C 1.675,1.492 1.115,0.645 0,0"
         style="fill:#94b226;fill-opacity:1;fill-rule:nonzero;stroke:none"
         id="path272027"
         inkscape:connector-curvature="0" />
    </g>
    <g
       id="g272029"
       transform="matrix(0.35277777,0,0,-0.35277777,-62.201928,134.16274)">
      <path
         d="m 0,0 c 2.259,-1.307 2.27,-3.42 0.025,-4.721 l -55.28,-32.187 c -2.245,-1.305 -5.894,-1.305 -8.15,0 L -127.354,0.01 c -2.257,1.303 -2.27,3.418 -0.023,4.722 l 55.28,32.184 c 2.242,1.305 5.895,1.305 8.155,0 z"
         style="fill:#9ece4a;fill-opacity:1;fill-rule:nonzero;stroke:none"
         id="path272031"
         inkscape:connector-curvature="0" />
    </g>
    <g
       id="g272033"
       transform="matrix(0.35277777,0,0,-0.35277777,-67.999664,132.44295)">
      <path
         d="m 0,0 -0.005,-2.885 -40.267,-23.4 v 2.877 z"
         style="fill:#cecece;fill-opacity:1;fill-rule:nonzero;stroke:none"
         id="path272035"
         inkscape:connector-curvature="0" />
    </g>
    <g
       id="g272037"
       transform="matrix(0.35277777,0,0,-0.35277777,-82.206889,140.70086)">
      <path
         d="m 0,0 v -2.877 l -52.147,30.287 0.005,2.881 z"
         style="fill:#e5e5e5;fill-opacity:1;fill-rule:nonzero;stroke:none"
         id="path272039"
         inkscape:connector-curvature="0" />
    </g>
    <g
       id="g272041"
       transform="matrix(0.35277777,0,0,-0.35277777,-67.999664,132.44295)">
      <path
         d="M 0,0 -40.272,-23.408 -92.414,6.883 -52.146,30.285 Z"
         style="fill:#ffffff;fill-opacity:1;fill-rule:nonzero;stroke:none"
         id="path272043"
         inkscape:connector-curvature="0" />
    </g>
    <g
       transform="matrix(0.35277777,0,0,-0.35277777,-548.10439,387.17056)"
       id="g272045">
      <g
         id="g272047" />
      <g
         id="g272059">
        <g
           clip-path="url(#clipPath272051)"
           id="g272057"
           style="opacity:0.130005">
          <g
             transform="translate(1370.9121,720.8105)"
             id="g272055">
            <path
               d="M 0,0 -31.996,-18.279 -51.46,-18.295 -79.424,-2.348 -36.542,21.32 Z"
               style="fill:#060606;fill-opacity:1;fill-rule:nonzero;stroke:none"
               id="path272053"
               inkscape:connector-curvature="0" />
          </g>
        </g>
      </g>
    </g>
    <g
       id="g272061"
       transform="matrix(0.35277777,0,0,-0.35277777,-82.735368,139.30905)">
      <path
         d="M 0,0 -45.053,25.166 -45.143,84.1 -0.096,58.934 Z"
         style="fill:#e0c968;fill-opacity:1;fill-rule:nonzero;stroke:none"
         id="path272063"
         inkscape:connector-curvature="0" />
    </g>
    <g
       id="g272065"
       transform="matrix(0.35277777,0,0,-0.35277777,-76.648919,110.17525)">
      <path
         d="m 0,0 17.463,-3.559 0.085,-58.935 -34.801,-20.09 -0.096,58.934 z"
         style="fill:#b5a14e;fill-opacity:1;fill-rule:nonzero;stroke:none"
         id="path272067"
         inkscape:connector-curvature="0" />
    </g>
    <g
       transform="matrix(0.35277777,0,0,-0.35277777,-548.10439,387.17056)"
       id="g272069">
      <g
         id="g272071"
         clip-path="url(#clipPath272075)">
        <g
           id="g272077">
          <g
             id="g272079" />
          <g
             id="g272089">
            <g
               clip-path="url(#clipPath272083)"
               id="g272087"
               style="opacity:0.14999402">
              <path
                 d="m 1279.581,717.021 h -2.819 v 88.176 h 2.819 z"
                 style="fill:#ffffff;fill-opacity:1;fill-rule:nonzero;stroke:none"
                 id="path272085"
                 inkscape:connector-curvature="0" />
            </g>
          </g>
        </g>
        <g
           id="g272091">
          <g
             id="g272093" />
          <g
             id="g272103">
            <g
               clip-path="url(#clipPath272097)"
               id="g272101"
               style="opacity:0.14999402">
              <path
                 d="m 1287.396,714.76 h -2.82 v 88.178 h 2.82 z"
                 style="fill:#ffffff;fill-opacity:1;fill-rule:nonzero;stroke:none"
                 id="path272099"
                 inkscape:connector-curvature="0" />
            </g>
          </g>
        </g>
        <g
           id="g272105">
          <g
             id="g272107" />
          <g
             id="g272117">
            <g
               clip-path="url(#clipPath272111)"
               id="g272115"
               style="opacity:0.14999402">
              <path
                 d="m 1295.21,712.496 h -2.819 v 88.178 h 2.819 z"
                 style="fill:#ffffff;fill-opacity:1;fill-rule:nonzero;stroke:none"
                 id="path272113"
                 inkscape:connector-curvature="0" />
            </g>
          </g>
        </g>
        <g
           id="g272119">
          <g
             id="g272121" />
          <g
             id="g272131">
            <g
               clip-path="url(#clipPath272125)"
               id="g272129"
               style="opacity:0.14999402">
              <path
                 d="m 1303.022,710.232 h -2.823 v 88.178 h 2.823 z"
                 style="fill:#ffffff;fill-opacity:1;fill-rule:nonzero;stroke:none"
                 id="path272127"
                 inkscape:connector-curvature="0" />
            </g>
          </g>
        </g>
        <g
           id="g272133">
          <g
             id="g272135" />
          <g
             id="g272145">
            <g
               clip-path="url(#clipPath272139)"
               id="g272143"
               style="opacity:0.14999402">
              <path
                 d="m 1310.836,696.152 h -2.819 v 101.514 h 2.819 z"
                 style="fill:#ffffff;fill-opacity:1;fill-rule:nonzero;stroke:none"
                 id="path272141"
                 inkscape:connector-curvature="0" />
            </g>
          </g>
        </g>
        <g
           id="g272147">
          <g
             id="g272149" />
          <g
             id="g272159">
            <g
               clip-path="url(#clipPath272153)"
               id="g272157"
               style="opacity:0.14999402">
              <path
                 d="m 1318.651,693.547 h -2.821 v 101.514 h 2.821 z"
                 style="fill:#ffffff;fill-opacity:1;fill-rule:nonzero;stroke:none"
                 id="path272155"
                 inkscape:connector-curvature="0" />
            </g>
          </g>
        </g>
        <g
           id="g272161">
          <g
             id="g272163" />
          <g
             id="g272173">
            <g
               clip-path="url(#clipPath272167)"
               id="g272171"
               style="opacity:0.14999402">
              <path
                 d="m 1326.465,690.943 h -2.821 v 101.512 h 2.821 z"
                 style="fill:#ffffff;fill-opacity:1;fill-rule:nonzero;stroke:none"
                 id="path272169"
                 inkscape:connector-curvature="0" />
            </g>
          </g>
        </g>
        <g
           id="g272175">
          <g
             id="g272177" />
          <g
             id="g272187">
            <g
               clip-path="url(#clipPath272181)"
               id="g272185"
               style="opacity:0.14999402">
              <path
                 d="m 1334.277,688.336 h -2.821 V 789.85 h 2.821 z"
                 style="fill:#ffffff;fill-opacity:1;fill-rule:nonzero;stroke:none"
                 id="path272183"
                 inkscape:connector-curvature="0" />
            </g>
          </g>
        </g>
        <g
           id="g272189">
          <g
             id="g272191" />
          <g
             id="g272201">
            <g
               clip-path="url(#clipPath272195)"
               id="g272199"
               style="opacity:0.14999402">
              <path
                 d="m 1342.092,685.732 h -2.819 v 101.514 h 2.819 z"
                 style="fill:#ffffff;fill-opacity:1;fill-rule:nonzero;stroke:none"
                 id="path272197"
                 inkscape:connector-curvature="0" />
            </g>
          </g>
        </g>
        <g
           id="g272203">
          <g
             id="g272205" />
          <g
             id="g272215">
            <g
               clip-path="url(#clipPath272209)"
               id="g272213"
               style="opacity:0.14999402">
              <path
                 d="m 1349.907,683.127 h -2.824 v 101.514 h 2.824 z"
                 style="fill:#ffffff;fill-opacity:1;fill-rule:nonzero;stroke:none"
                 id="path272211"
                 inkscape:connector-curvature="0" />
            </g>
          </g>
        </g>
      </g>
    </g>
    <g
       id="g272225"
       transform="matrix(0.35277777,0,0,-0.35277777,-79.992062,116.47839)">
      <path
         d="M 0,0 0.068,-38.893 6.512,-35.205 6.441,3.684 Z"
         style="fill:#c7c9c9;fill-opacity:1;fill-rule:nonzero;stroke:none"
         id="path272227"
         inkscape:connector-curvature="0" />
    </g>
    <g
       id="g272229"
       transform="matrix(0.35277777,0,0,-0.35277777,-78.12204,115.42072)">
      <path
         d="m 0,0 0.065,-37.553 -5.303,-3.033 -0.063,37.551 z"
         style="fill:#848484;fill-opacity:1;fill-rule:nonzero;stroke:none"
         id="path272231"
         inkscape:connector-curvature="0" />
    </g>
    <g
       id="g272233"
       transform="matrix(0.35277777,0,0,-0.35277777,-74.158449,118.87065)">
      <path
         d="M 0,0 0.067,-38.895 6.512,-35.211 6.443,3.684 Z"
         style="fill:#c7c9c9;fill-opacity:1;fill-rule:nonzero;stroke:none"
         id="path272235"
         inkscape:connector-curvature="0" />
    </g>
    <g
       id="g272237"
       transform="matrix(0.35277777,0,0,-0.35277777,-72.288798,117.8144)">
      <path
         d="M 0,0 0.068,-37.551 -5.238,-40.582 -5.3,-3.033 Z"
         style="fill:#848484;fill-opacity:1;fill-rule:nonzero;stroke:none"
         id="path272239"
         inkscape:connector-curvature="0" />
    </g>
    <g
       id="g272241"
       transform="matrix(0.35277777,0,0,-0.35277777,-75.419692,111.08406)">
      <path
         d="m 0,0 -51.282,28.648 19.875,-4.05 51.279,-28.651 z"
         style="fill:#ddca7a;fill-opacity:1;fill-rule:nonzero;stroke:none"
         id="path272243"
         inkscape:connector-curvature="0" />
    </g>
    <g
       id="g272245"
       transform="matrix(0.35277777,0,0,-0.35277777,-82.381911,120.58081)">
      <path
         d="M 0,0 -51.276,28.65 -31.547,55.568 19.735,26.92 Z"
         style="fill:#ffeb97;fill-opacity:1;fill-rule:nonzero;stroke:none"
         id="path272247"
         inkscape:connector-curvature="0" />
    </g>
    <g
       id="g272249"
       transform="matrix(0.35277777,0,0,-0.35277777,-82.381911,120.58081)">
      <path
         d="M 0,0 1.894,1.084 20.39,25.752 38.395,22.156 39.607,22.867 19.735,26.92 Z"
         style="fill:#b7a456;fill-opacity:1;fill-rule:nonzero;stroke:none"
         id="path272251"
         inkscape:connector-curvature="0" />
    </g>
    <g
       id="g272253"
       transform="matrix(0.35277777,0,0,-0.35277777,-94.461807,115.24297)">
      <path
         d="m 0,0 -0.062,-17.426 -6.081,3.479 0.068,17.427 z"
         style="fill:#c7c9c9;fill-opacity:1;fill-rule:nonzero;stroke:none"
         id="path272255"
         inkscape:connector-curvature="0" />
    </g>
    <g
       id="g272257"
       transform="matrix(0.35277777,0,0,-0.35277777,-96.226049,114.2439)">
      <path
         d="m 0,0 -0.061,-16.164 5.005,-2.863 0.057,16.164 z"
         style="fill:#848484;fill-opacity:1;fill-rule:nonzero;stroke:none"
         id="path272259"
         inkscape:connector-curvature="0" />
    </g>
    <g
       id="g272261"
       transform="matrix(0.35277777,0,0,-0.35277777,-97.066948,117.20875)">
      <path
         d="m 0,0 -0.021,-7.715 -2.417,-1.404 0.021,7.717 z"
         style="fill:#a3955a;fill-opacity:1;fill-rule:nonzero;stroke:none"
         id="path272263"
         inkscape:connector-curvature="0" />
    </g>
    <g
       id="g272265"
       transform="matrix(0.35277777,0,0,-0.35277777,-94.836986,120.06127)">
      <path
         d="m 0,0 -11.541,6.686 -0.022,-7.719 11.543,-6.686 1.407,-0.81 0.022,7.715 z"
         style="fill:#ffffff;fill-opacity:1;fill-rule:nonzero;stroke:none"
         id="path272267"
         inkscape:connector-curvature="0" />
    </g>
    <g
       id="g272269"
       transform="matrix(0.35277777,0,0,-0.35277777,-92.969716,119.56174)">
      <path
         d="m 0,0 -2.486,-1.416 -1.398,-0.814 -0.022,-7.715 1.398,0.81 2.489,1.418 z"
         style="fill:#d3cdb4;fill-opacity:1;fill-rule:nonzero;stroke:none"
         id="path272271"
         inkscape:connector-curvature="0" />
    </g>
    <g
       id="g272273"
       transform="matrix(0.35277777,0,0,-0.35277777,-92.969716,119.56174)">
      <path
         d="m 0,0 -2.486,-1.416 -1.398,-0.814 -1.409,0.814 -11.541,6.686 1.395,0.812 2.418,1.402 1.407,-0.814 -2.417,-1.402 10.135,-5.872 2.491,1.417 z"
         style="fill:#efead8;fill-opacity:1;fill-rule:nonzero;stroke:none"
         id="path272275"
         inkscape:connector-curvature="0" />
    </g>
    <g
       id="g272277"
       transform="matrix(0.35277777,0,0,-0.35277777,-85.272008,120.44505)">
      <path
         d="m 0,0 -0.065,-17.426 -6.08,3.481 0.064,17.424 z"
         style="fill:#c7c9c9;fill-opacity:1;fill-rule:nonzero;stroke:none"
         id="path272279"
         inkscape:connector-curvature="0" />
    </g>
    <g
       id="g272281"
       transform="matrix(0.35277777,0,0,-0.35277777,-87.036567,119.44598)">
      <path
         d="m 0,0 -0.065,-16.164 5.007,-2.865 0.06,16.164 z"
         style="fill:#848484;fill-opacity:1;fill-rule:nonzero;stroke:none"
         id="path272283"
         inkscape:connector-curvature="0" />
    </g>
    <g
       id="g272285"
       transform="matrix(0.35277777,0,0,-0.35277777,-87.878895,122.40948)">
      <path
         d="m 0,0 -0.02,-7.719 -2.419,-1.406 0.025,7.721 z"
         style="fill:#a3955a;fill-opacity:1;fill-rule:nonzero;stroke:none"
         id="path272287"
         inkscape:connector-curvature="0" />
    </g>
    <g
       id="g272289"
       transform="matrix(0.35277777,0,0,-0.35277777,-85.648219,125.26338)">
      <path
         d="m 0,0 -11.541,6.686 -0.022,-7.719 11.543,-6.684 1.407,-0.81 0.021,7.714 z"
         style="fill:#ffffff;fill-opacity:1;fill-rule:nonzero;stroke:none"
         id="path272291"
         inkscape:connector-curvature="0" />
    </g>
    <g
       id="g272293"
       transform="matrix(0.35277777,0,0,-0.35277777,-83.780949,124.76385)">
      <path
         d="m 0,0 -2.486,-1.416 -1.399,-0.813 -0.021,-7.714 1.397,0.81 2.487,1.416 z"
         style="fill:#d3cdb4;fill-opacity:1;fill-rule:nonzero;stroke:none"
         id="path272295"
         inkscape:connector-curvature="0" />
    </g>
    <g
       id="g272297"
       transform="matrix(0.35277777,0,0,-0.35277777,-83.780949,124.76385)">
      <path
         d="m 0,0 -2.486,-1.416 -1.399,-0.813 -1.408,0.813 -11.541,6.686 1.395,0.81 2.416,1.402 1.407,-0.808 -2.414,-1.404 10.132,-5.872 2.492,1.416 z"
         style="fill:#efead8;fill-opacity:1;fill-rule:nonzero;stroke:none"
         id="path272299"
         inkscape:connector-curvature="0" />
    </g>
    <g
       id="g272301"
       transform="matrix(0.35277777,0,0,-0.35277777,-94.461807,123.58701)">
      <path
         d="m 0,0 -0.062,-17.43 -6.081,3.481 0.068,17.426 z"
         style="fill:#c7c9c9;fill-opacity:1;fill-rule:nonzero;stroke:none"
         id="path272303"
         inkscape:connector-curvature="0" />
    </g>
    <g
       id="g272305"
       transform="matrix(0.35277777,0,0,-0.35277777,-96.226049,122.5886)">
      <path
         d="m 0,0 -0.061,-16.164 5.005,-2.863 0.057,16.162 z"
         style="fill:#848484;fill-opacity:1;fill-rule:nonzero;stroke:none"
         id="path272307"
         inkscape:connector-curvature="0" />
    </g>
    <g
       id="g272309"
       transform="matrix(0.35277777,0,0,-0.35277777,-97.066948,125.55275)">
      <path
         d="m 0,0 -0.021,-7.721 -2.417,-1.398 0.021,7.715 z"
         style="fill:#a3955a;fill-opacity:1;fill-rule:nonzero;stroke:none"
         id="path272311"
         inkscape:connector-curvature="0" />
    </g>
    <g
       id="g272313"
       transform="matrix(0.35277777,0,0,-0.35277777,-94.836986,128.40668)">
      <path
         d="m 0,0 -11.541,6.686 -0.022,-7.715 11.543,-6.686 1.407,-0.814 0.022,7.718 z"
         style="fill:#ffffff;fill-opacity:1;fill-rule:nonzero;stroke:none"
         id="path272315"
         inkscape:connector-curvature="0" />
    </g>
    <g
       id="g272317"
       transform="matrix(0.35277777,0,0,-0.35277777,-92.969716,127.90646)">
      <path
         d="m 0,0 -2.486,-1.418 -1.398,-0.811 -0.022,-7.718 1.398,0.814 2.489,1.416 z"
         style="fill:#d3cdb4;fill-opacity:1;fill-rule:nonzero;stroke:none"
         id="path272319"
         inkscape:connector-curvature="0" />
    </g>
    <g
       id="g272321"
       transform="matrix(0.35277777,0,0,-0.35277777,-92.969716,127.90646)">
      <path
         d="m 0,0 -2.486,-1.418 -1.398,-0.811 -1.409,0.811 -11.541,6.686 1.395,0.812 2.418,1.404 1.407,-0.812 -2.417,-1.404 10.135,-5.872 2.491,1.417 z"
         style="fill:#efead8;fill-opacity:1;fill-rule:nonzero;stroke:none"
         id="path272323"
         inkscape:connector-curvature="0" />
    </g>
    <g
       id="g272325"
       transform="matrix(0.35277777,0,0,-0.35277777,-85.272008,128.78977)">
      <path
         d="m 0,0 -0.065,-17.428 -6.08,3.481 0.064,17.426 z"
         style="fill:#c7c9c9;fill-opacity:1;fill-rule:nonzero;stroke:none"
         id="path272327"
         inkscape:connector-curvature="0" />
    </g>
    <g
       id="g272329"
       transform="matrix(0.35277777,0,0,-0.35277777,-87.036567,127.78999)">
      <path
         d="m 0,0 -0.065,-16.166 5.007,-2.867 0.06,16.168 z"
         style="fill:#848484;fill-opacity:1;fill-rule:nonzero;stroke:none"
         id="path272331"
         inkscape:connector-curvature="0" />
    </g>
    <g
       id="g272333"
       transform="matrix(0.35277777,0,0,-0.35277777,-87.878895,130.75555)">
      <path
         d="m 0,0 -0.02,-7.717 -2.419,-1.402 0.025,7.717 z"
         style="fill:#a3955a;fill-opacity:1;fill-rule:nonzero;stroke:none"
         id="path272335"
         inkscape:connector-curvature="0" />
    </g>
    <g
       id="g272337"
       transform="matrix(0.35277777,0,0,-0.35277777,-85.648219,133.60879)">
      <path
         d="m 0,0 -11.541,6.686 -0.022,-7.717 11.543,-6.684 1.407,-0.812 0.021,7.716 z"
         style="fill:#ffffff;fill-opacity:1;fill-rule:nonzero;stroke:none"
         id="path272339"
         inkscape:connector-curvature="0" />
    </g>
    <g
       id="g272341"
       transform="matrix(0.35277777,0,0,-0.35277777,-83.780949,133.10788)">
      <path
         d="m 0,0 -2.486,-1.42 -1.399,-0.81 -0.021,-7.717 1.397,0.81 2.487,1.418 z"
         style="fill:#d3cdb4;fill-opacity:1;fill-rule:nonzero;stroke:none"
         id="path272343"
         inkscape:connector-curvature="0" />
    </g>
    <g
       id="g272345"
       transform="matrix(0.35277777,0,0,-0.35277777,-83.780949,133.10788)">
      <path
         d="m 0,0 -2.486,-1.42 -1.399,-0.81 -1.408,0.81 -11.541,6.686 1.395,0.81 2.416,1.406 1.407,-0.814 -2.414,-1.402 10.132,-5.871 2.492,1.416 z"
         style="fill:#efead8;fill-opacity:1;fill-rule:nonzero;stroke:none"
         id="path272347"
         inkscape:connector-curvature="0" />
    </g>
  </g>
</svg>
