<?xml version="1.0" encoding="UTF-8" standalone="no"?>
<!-- Created with Inkscape (http://www.inkscape.org/) -->

<svg
   xmlns:dc="http://purl.org/dc/elements/1.1/"
   xmlns:cc="http://creativecommons.org/ns#"
   xmlns:rdf="http://www.w3.org/1999/02/22-rdf-syntax-ns#"
   xmlns:svg="http://www.w3.org/2000/svg"
   xmlns="http://www.w3.org/2000/svg"
   xmlns:sodipodi="http://sodipodi.sourceforge.net/DTD/sodipodi-0.dtd"
   xmlns:inkscape="http://www.inkscape.org/namespaces/inkscape"
   width="44.054111mm"
   height="44.462246mm"
   viewBox="0 0 44.054112 44.462246"
   version="1.1"
   id="svg6287"
   inkscape:version="0.92.2 (5c3e80d, 2017-08-06)"
   sodipodi:docname="apartemant-1.svg">
  <defs
     id="defs6281">
    <clipPath
       clipPathUnits="userSpaceOnUse"
       id="clipPath261535">
      <path
         d="m 2853.1,688.717 h 6.77 v -3.924 h -6.77 z"
         id="path261533"
         inkscape:connector-curvature="0" />
    </clipPath>
    <clipPath
       clipPathUnits="userSpaceOnUse"
       id="clipPath261475">
      <path
         d="m 2836.46,697.729 h 6.77 v -3.922 h -6.77 z"
         id="path261473"
         inkscape:connector-curvature="0" />
    </clipPath>
    <clipPath
       clipPathUnits="userSpaceOnUse"
       id="clipPath261415">
      <path
         d="m 2819.82,706.743 h 6.77 v -3.923 h -6.77 z"
         id="path261413"
         inkscape:connector-curvature="0" />
    </clipPath>
    <clipPath
       clipPathUnits="userSpaceOnUse"
       id="clipPath261355">
      <path
         d="m 2801.94,718.476 h 9.34 v -5.412 h -9.34 z"
         id="path261353"
         inkscape:connector-curvature="0" />
    </clipPath>
    <clipPath
       clipPathUnits="userSpaceOnUse"
       id="clipPath261275">
      <path
         d="m 2834.41,817.596 h 37 v -39.778 h -37 z"
         id="path261273"
         inkscape:connector-curvature="0" />
    </clipPath>
    <clipPath
       clipPathUnits="userSpaceOnUse"
       id="clipPath261239">
      <path
         d="m 2850.51,721.643 h 68.87 v -37.827 h -68.87 z"
         id="path261237"
         inkscape:connector-curvature="0" />
    </clipPath>
  </defs>
  <sodipodi:namedview
     id="base"
     pagecolor="#ffffff"
     bordercolor="#666666"
     borderopacity="1.0"
     inkscape:pageopacity="0.0"
     inkscape:pageshadow="2"
     inkscape:zoom="1.6914286"
     inkscape:cx="-17.677519"
     inkscape:cy="58.477147"
     inkscape:document-units="mm"
     inkscape:current-layer="layer1"
     showgrid="false"
     fit-margin-top="0"
     fit-margin-left="0"
     fit-margin-right="0"
     fit-margin-bottom="0"
     inkscape:window-width="1360"
     inkscape:window-height="706"
     inkscape:window-x="-8"
     inkscape:window-y="-8"
     inkscape:window-maximized="1" />
  <metadata
     id="metadata6284">
    <rdf:RDF>
      <cc:Work
         rdf:about="">
        <dc:format>image/svg+xml</dc:format>
        <dc:type
           rdf:resource="http://purl.org/dc/dcmitype/StillImage" />
        <dc:title></dc:title>
      </cc:Work>
    </rdf:RDF>
  </metadata>
  <g
     inkscape:label="Layer 1"
     inkscape:groupmode="layer"
     id="layer1"
     transform="translate(25.050635,-139.08096)">
    <g
       id="g357"
       transform="matrix(1,0,0,0.86,0,22.583692)">
      <g
         transform="matrix(0.35277777,0,0,-0.35277777,18.430071,174.39908)"
         id="g261229">
        <path
           inkscape:connector-curvature="0"
           id="path261231"
           style="fill:#9ece4a;fill-opacity:1;fill-rule:nonzero;stroke:none"
           d="M 0,0 C 2.158,-1.246 2.168,-3.262 0.025,-4.508 L -52.77,-35.246 c -2.144,-1.244 -5.628,-1.244 -7.786,0 l -61.072,35.258 c -2.156,1.246 -2.169,3.265 -0.02,4.509 l 52.793,30.739 c 2.142,1.246 5.628,1.246 7.786,0 z" />
      </g>
      <g
         id="g261233"
         transform="matrix(0.35277777,0,0,-0.35277777,-1011.4533,426.76957)">
        <g
           id="g261235" />
        <g
           id="g261247">
          <g
             style="opacity:0.130005"
             id="g261245"
             clip-path="url(#clipPath261239)">
            <g
               id="g261243"
               transform="translate(2919.3799,710.873)">
              <path
                 inkscape:connector-curvature="0"
                 id="path261241"
                 style="fill:#060606;fill-opacity:1;fill-rule:nonzero;stroke:none"
                 d="m 0,0 -46.425,-27.057 -4.294,0.227 -18.147,10.519 47.137,27.081 z" />
            </g>
          </g>
        </g>
      </g>
      <g
         transform="matrix(0.35277777,0,0,-0.35277777,16.441912,144.64727)"
         id="g261249">
        <path
           inkscape:connector-curvature="0"
           id="path261251"
           style="fill:#e5cc61;fill-opacity:1;fill-rule:nonzero;stroke:none"
           d="m 0,0 -0.254,-89.666 -44.804,-26.035 0.256,89.666 z" />
      </g>
      <g
         transform="matrix(0.35277777,0,0,-0.35277777,0.63684161,153.83191)"
         id="g261253">
        <path
           inkscape:connector-curvature="0"
           id="path261255"
           style="fill:#ffea94;fill-opacity:1;fill-rule:nonzero;stroke:none"
           d="m 0,0 -0.256,-89.666 -45.095,26.035 0.255,89.666 z" />
      </g>
      <g
         transform="matrix(0.35277777,0,0,-0.35277777,-14.015863,144.64518)"
         id="g261257">
        <path
           inkscape:connector-curvature="0"
           id="path261259"
           style="fill:#ffea94;fill-opacity:1;fill-rule:nonzero;stroke:none"
           d="M 0,0 41.244,23.965 82.772,-0.012 41.53,-23.979 Z" />
      </g>
      <g
         transform="matrix(0.35277777,0,0,-0.35277777,0.53280661,135.46194)"
         id="g261261">
        <path
           inkscape:connector-curvature="0"
           id="path261263"
           style="fill:#fff8d9;fill-opacity:1;fill-rule:nonzero;stroke:none"
           d="M 0,0 -44.801,-26.037 0.295,-52.072 45.097,-26.037 Z M 0.006,-4.129 37.971,-26.047 0.288,-47.945 -37.678,-26.025 Z" />
      </g>
      <g
         transform="matrix(0.35277777,0,0,-0.35277777,12.707054,145.36244)"
         id="g261265">
        <path
           inkscape:connector-curvature="0"
           id="path261267"
           style="fill:#ffffff;fill-opacity:1;fill-rule:nonzero;stroke:none"
           d="M 0,0 -34.504,19.922 -68.727,0.037 -34.22,-19.887 Z" />
      </g>
      <g
         id="g261269"
         transform="matrix(0.35277777,0,0,-0.35277777,-1011.4533,426.76957)">
        <g
           id="g261271" />
        <g
           id="g261283">
          <g
             style="opacity:0.11000097"
             id="g261281"
             clip-path="url(#clipPath261275)">
            <g
               id="g261279"
               transform="translate(2839.4736,797.709)">
              <path
                 inkscape:connector-curvature="0"
                 id="path261277"
                 style="fill:#161615;fill-opacity:1;fill-rule:nonzero;stroke:none"
                 d="M 0,0 31.667,18.406 29.1,19.887 -5.068,0.031 l 34.506,-19.922 2.496,1.452 z" />
            </g>
          </g>
        </g>
      </g>
      <g
         transform="matrix(0.35277777,0,0,-0.35277777,-1.3599694,156.90904)"
         id="g261285">
        <path
           inkscape:connector-curvature="0"
           id="path261287"
           style="fill:#fff8d9;fill-opacity:1;fill-rule:nonzero;stroke:none"
           d="m 0,0 -0.21,-10.945 -36.921,21.316 0.209,10.947 z" />
      </g>
      <g
         transform="matrix(0.35277777,0,0,-0.35277777,-13.940748,149.64403)"
         id="g261289">
        <path
           inkscape:connector-curvature="0"
           id="path261291"
           style="fill:#848484;fill-opacity:1;fill-rule:nonzero;stroke:none"
           d="m 0,0 -0.174,-9.137 35.645,-20.58 0.174,9.139 z" />
      </g>
      <g
         transform="matrix(0.35277777,0,0,-0.35277777,-1.3599694,163.83713)"
         id="g261293">
        <path
           inkscape:connector-curvature="0"
           id="path261295"
           style="fill:#fff8d9;fill-opacity:1;fill-rule:nonzero;stroke:none"
           d="m 0,0 -0.21,-10.949 -36.921,21.316 0.209,10.944 z" />
      </g>
      <g
         transform="matrix(0.35277777,0,0,-0.35277777,-13.940748,156.57281)"
         id="g261297">
        <path
           inkscape:connector-curvature="0"
           id="path261299"
           style="fill:#848484;fill-opacity:1;fill-rule:nonzero;stroke:none"
           d="m 0,0 -0.174,-9.141 35.645,-20.58 0.174,9.141 z" />
      </g>
      <g
         transform="matrix(0.35277777,0,0,-0.35277777,-1.3599694,170.76799)"
         id="g261301">
        <path
           inkscape:connector-curvature="0"
           id="path261303"
           style="fill:#fff8d9;fill-opacity:1;fill-rule:nonzero;stroke:none"
           d="m 0,0 -0.21,-10.947 -36.921,21.316 0.209,10.947 z" />
      </g>
      <g
         transform="matrix(0.35277777,0,0,-0.35277777,-13.940748,163.50227)"
         id="g261305">
        <path
           inkscape:connector-curvature="0"
           id="path261307"
           style="fill:#848484;fill-opacity:1;fill-rule:nonzero;stroke:none"
           d="m 0,0 -0.174,-9.141 35.645,-20.578 0.174,9.141 z" />
      </g>
      <g
         transform="matrix(0.35277777,0,0,-0.35277777,-1.3599694,177.69674)"
         id="g261309">
        <path
           inkscape:connector-curvature="0"
           id="path261311"
           style="fill:#fff8d9;fill-opacity:1;fill-rule:nonzero;stroke:none"
           d="m 0,0 -0.21,-10.945 -36.921,21.314 0.209,10.945 z" />
      </g>
      <g
         transform="matrix(0.35277777,0,0,-0.35277777,-13.940748,170.43105)"
         id="g261313">
        <path
           inkscape:connector-curvature="0"
           id="path261315"
           style="fill:#848484;fill-opacity:1;fill-rule:nonzero;stroke:none"
           d="m 0,0 -0.174,-9.141 35.645,-20.58 0.174,9.141 z" />
      </g>
      <g
         transform="matrix(0.35277777,0,0,-0.35277777,1.9445706,157.16328)"
         id="g261317">
        <path
           inkscape:connector-curvature="0"
           id="path261319"
           style="fill:#eae2c1;fill-opacity:1;fill-rule:nonzero;stroke:none"
           d="M 0,0 0.211,-10.947 37.129,10.369 36.92,21.314 Z" />
      </g>
      <g
         transform="matrix(0.35277777,0,0,-0.35277777,14.525059,149.89829)"
         id="g261321">
        <path
           inkscape:connector-curvature="0"
           id="path261323"
           style="fill:#848484;fill-opacity:1;fill-rule:nonzero;stroke:none"
           d="m 0,0 0.175,-9.137 -35.647,-20.58 -0.174,9.139 z" />
      </g>
      <g
         transform="matrix(0.35277777,0,0,-0.35277777,1.9445706,164.09205)"
         id="g261325">
        <path
           inkscape:connector-curvature="0"
           id="path261327"
           style="fill:#eae2c1;fill-opacity:1;fill-rule:nonzero;stroke:none"
           d="M 0,0 0.211,-10.947 37.129,10.369 36.92,21.314 Z" />
      </g>
      <g
         transform="matrix(0.35277777,0,0,-0.35277777,14.525059,156.82704)"
         id="g261329">
        <path
           inkscape:connector-curvature="0"
           id="path261331"
           style="fill:#848484;fill-opacity:1;fill-rule:nonzero;stroke:none"
           d="m 0,0 0.175,-9.139 -35.647,-20.582 -0.174,9.139 z" />
      </g>
      <g
         transform="matrix(0.35277777,0,0,-0.35277777,1.9445706,171.02152)"
         id="g261333">
        <path
           inkscape:connector-curvature="0"
           id="path261335"
           style="fill:#eae2c1;fill-opacity:1;fill-rule:nonzero;stroke:none"
           d="M 0,0 0.211,-10.949 37.129,10.369 36.92,21.314 Z" />
      </g>
      <g
         transform="matrix(0.35277777,0,0,-0.35277777,14.525059,163.7572)"
         id="g261337">
        <path
           inkscape:connector-curvature="0"
           id="path261339"
           style="fill:#848484;fill-opacity:1;fill-rule:nonzero;stroke:none"
           d="m 0,0 0.175,-9.139 -35.647,-20.578 -0.174,9.141 z" />
      </g>
      <g
         transform="matrix(0.35277777,0,0,-0.35277777,1.9445706,177.95101)"
         id="g261341">
        <path
           inkscape:connector-curvature="0"
           id="path261343"
           style="fill:#eae2c1;fill-opacity:1;fill-rule:nonzero;stroke:none"
           d="M 0,0 0.211,-10.945 37.129,10.367 36.92,21.316 Z" />
      </g>
      <g
         transform="matrix(0.35277777,0,0,-0.35277777,14.525059,170.68597)"
         id="g261345">
        <path
           inkscape:connector-curvature="0"
           id="path261347"
           style="fill:#848484;fill-opacity:1;fill-rule:nonzero;stroke:none"
           d="m 0,0 0.175,-9.139 -35.647,-20.582 -0.174,9.139 z" />
      </g>
      <g
         id="g261349"
         transform="matrix(0.35277777,0,0,-0.35277777,-1011.4533,426.76957)">
        <g
           id="g261351" />
        <g
           id="g261363">
          <g
             style="opacity:0.19000202"
             id="g261361"
             clip-path="url(#clipPath261355)">
            <g
               id="g261359"
               transform="translate(2809.8975,717.6855)">
              <path
                 inkscape:connector-curvature="0"
                 id="path261357"
                 style="fill:#181816;fill-opacity:1;fill-rule:nonzero;stroke:none"
                 d="M 0,0 C 1.83,-1.059 1.846,-2.773 0.024,-3.836 -1.794,-4.887 -4.75,-4.881 -6.58,-3.83 -8.408,-2.773 -8.425,-1.059 -6.607,0 -4.786,1.055 -1.823,1.051 0,0" />
            </g>
          </g>
        </g>
      </g>
      <g
         transform="matrix(0.35277777,0,0,-0.35277777,-21.893065,174.13659)"
         id="g261365">
        <path
           inkscape:connector-curvature="0"
           id="path261367"
           style="fill:#938548;fill-opacity:1;fill-rule:nonzero;stroke:none"
           d="M 0,0 C 0.015,-0.385 0.657,-0.324 0.657,0.037 L 0.663,6.828 C 0.662,7.021 0.515,7.18 0.328,7.18 0.151,7.18 0.003,7.021 0.006,6.824 L -0.005,1.73 C -0.005,1.717 0,1.701 0,1.684 Z" />
      </g>
      <g
         transform="matrix(0.35277777,0,0,-0.35277777,-21.412475,172.53462)"
         id="g261369">
        <path
           inkscape:connector-curvature="0"
           id="path261371"
           style="fill:#938548;fill-opacity:1;fill-rule:nonzero;stroke:none"
           d="m 0,0 v -1.176 c 0.015,-0.5 -0.046,-0.635 -0.389,-0.877 l -0.638,-0.324 0.179,-0.355 0.647,0.33 c 0.553,0.363 0.597,0.756 0.597,1.228 V 0 Z" />
      </g>
      <g
         transform="matrix(0.35277777,0,0,-0.35277777,-22.188313,173.163)"
         id="g261373">
        <path
           inkscape:connector-curvature="0"
           id="path261375"
           style="fill:#938548;fill-opacity:1;fill-rule:nonzero;stroke:none"
           d="M 0,0 V 1.211 H -0.41 V 0 c 0,-0.492 0.046,-0.898 0.627,-1.279 l 0.66,-0.334 0.182,0.369 -0.646,0.324 C 0.047,-0.658 -0.017,-0.523 0,0" />
      </g>
      <g
         transform="matrix(0.35277777,0,0,-0.35277777,-20.438888,171.60029)"
         id="g261377">
        <path
           inkscape:connector-curvature="0"
           id="path261379"
           style="fill:#498c44;fill-opacity:1;fill-rule:nonzero;stroke:none"
           d="m 0,0 c 0,-1.846 -1.498,-3.34 -3.341,-3.34 -1.843,0 -3.339,1.494 -3.339,3.34 0,1.842 1.496,3.338 3.339,3.338 C -1.498,3.338 0,1.842 0,0" />
      </g>
      <g
         transform="matrix(0.35277777,0,0,-0.35277777,-19.435668,171.70092)"
         id="g261381">
        <path
           inkscape:connector-curvature="0"
           id="path261383"
           style="fill:#4b6d0f;fill-opacity:1;fill-rule:nonzero;stroke:none"
           d="m 0,0 c 0,-2.232 -1.811,-4.039 -4.039,-4.039 -2.23,0 -4.037,1.807 -4.037,4.039 0,2.229 1.807,4.037 4.037,4.037 C -1.811,4.037 0,2.229 0,0" />
      </g>
      <g
         transform="matrix(0.35277777,0,0,-0.35277777,-19.446701,170.65221)"
         id="g261385">
        <path
           inkscape:connector-curvature="0"
           id="path261387"
           style="fill:#4b6d0f;fill-opacity:1;fill-rule:nonzero;stroke:none"
           d="m 0,0 c 0,-1.709 -1.379,-3.09 -3.085,-3.09 -1.71,0 -3.096,1.381 -3.096,3.09 0,1.703 1.386,3.088 3.096,3.088 C -1.379,3.088 0,1.703 0,0" />
      </g>
      <g
         transform="matrix(0.35277777,0,0,-0.35277777,-20.26937,169.68828)"
         id="g261389">
        <path
           inkscape:connector-curvature="0"
           id="path261391"
           style="fill:#4b6d0f;fill-opacity:1;fill-rule:nonzero;stroke:none"
           d="m 0,0 c 0,-1.682 -1.367,-3.045 -3.049,-3.045 -1.681,0 -3.046,1.363 -3.046,3.045 0,1.682 1.365,3.051 3.046,3.051 C -1.367,3.051 0,1.682 0,0" />
      </g>
      <g
         transform="matrix(0.35277777,0,0,-0.35277777,-21.811414,170.74386)"
         id="g261393">
        <path
           inkscape:connector-curvature="0"
           id="path261395"
           style="fill:#4b6d0f;fill-opacity:1;fill-rule:nonzero;stroke:none"
           d="m 0,0 c 0,-2.178 -1.764,-3.936 -3.936,-3.936 -2.176,0 -3.935,1.758 -3.935,3.936 0,2.174 1.759,3.938 3.935,3.938 C -1.764,3.938 0,2.174 0,0" />
      </g>
      <g
         transform="matrix(0.35277777,0,0,-0.35277777,-21.53892,169.90738)"
         id="g261397">
        <path
           inkscape:connector-curvature="0"
           id="path261399"
           style="fill:#4b6d0f;fill-opacity:1;fill-rule:nonzero;stroke:none"
           d="m 0,0 c 0,-1.631 -1.321,-2.955 -2.956,-2.955 -1.631,0 -2.955,1.324 -2.955,2.955 0,1.633 1.324,2.957 2.955,2.957 C -1.321,2.957 0,1.633 0,0" />
      </g>
      <g
         transform="matrix(0.35277777,0,0,-0.35277777,-21.266399,171.91451)"
         id="g261401">
        <path
           inkscape:connector-curvature="0"
           id="path261403"
           style="fill:#4b6d0f;fill-opacity:1;fill-rule:nonzero;stroke:none"
           d="m 0,0 c 0,-2.148 -1.74,-3.887 -3.881,-3.887 -2.15,0 -3.887,1.739 -3.887,3.887 0,2.143 1.737,3.883 3.887,3.883 C -1.74,3.883 0,2.143 0,0" />
      </g>
      <g
         transform="matrix(0.35277777,0,0,-0.35277777,-20.317603,170.69216)"
         id="g261405">
        <path
           inkscape:connector-curvature="0"
           id="path261407"
           style="fill:#71991c;fill-opacity:1;fill-rule:nonzero;stroke:none"
           d="m 0,0 c 0,1.48 -1.198,2.678 -2.678,2.678 -0.302,0 -0.599,-0.053 -0.874,-0.145 -0.3,0.696 -0.994,1.182 -1.803,1.182 -1.088,0 -1.972,-0.883 -1.972,-1.975 0,-0.033 0.003,-0.074 0.003,-0.111 -1.037,-0.361 -1.781,-1.346 -1.781,-2.504 0,-1.463 1.186,-2.65 2.648,-2.65 0.236,0 0.461,0.027 0.677,0.086 0.205,-0.758 0.897,-1.311 1.721,-1.311 0.722,0 1.346,0.432 1.626,1.049 h 0.018 c 0.89,0 1.61,0.713 1.624,1.594 V -1.9 C -0.3,-1.41 0,-0.742 0,0" />
      </g>
      <g
         id="g261409"
         transform="matrix(0.35277777,0,0,-0.35277777,-1011.4533,426.76957)">
        <g
           id="g261411" />
        <g
           id="g261423">
          <g
             style="opacity:0.19000202"
             id="g261421"
             clip-path="url(#clipPath261415)">
            <g
               id="g261419"
               transform="translate(2825.5889,706.1699)">
              <path
                 inkscape:connector-curvature="0"
                 id="path261417"
                 style="fill:#181816;fill-opacity:1;fill-rule:nonzero;stroke:none"
                 d="M 0,0 C 1.328,-0.766 1.341,-2.01 0.018,-2.779 -1.299,-3.541 -3.441,-3.539 -4.769,-2.775 -6.096,-2.01 -6.106,-0.766 -4.788,0 -3.469,0.768 -1.321,0.762 0,0" />
            </g>
          </g>
        </g>
      </g>
      <g
         transform="matrix(0.35277777,0,0,-0.35277777,-15.887552,178.04745)"
         id="g261425">
        <path
           inkscape:connector-curvature="0"
           id="path261427"
           style="fill:#938548;fill-opacity:1;fill-rule:nonzero;stroke:none"
           d="m 0,0 c 0.013,-0.277 0.477,-0.234 0.479,0.027 l 0.003,4.92 C 0.479,5.092 0.375,5.207 0.241,5.207 0.112,5.207 0,5.092 0.007,4.947 L -0.002,1.256 C -0.002,1.246 0,1.232 0,1.221 Z" />
      </g>
      <g
         transform="matrix(0.35277777,0,0,-0.35277777,-15.539255,176.88646)"
         id="g261429">
        <path
           inkscape:connector-curvature="0"
           id="path261431"
           style="fill:#938548;fill-opacity:1;fill-rule:nonzero;stroke:none"
           d="m 0,0 v -0.852 c 0.014,-0.361 -0.031,-0.461 -0.28,-0.636 l -0.461,-0.235 0.129,-0.256 0.468,0.237 c 0.402,0.265 0.433,0.551 0.433,0.892 V 0 Z" />
      </g>
      <g
         transform="matrix(0.35277777,0,0,-0.35277777,-16.100462,177.34122)"
         id="g261433">
        <path
           inkscape:connector-curvature="0"
           id="path261435"
           style="fill:#938548;fill-opacity:1;fill-rule:nonzero;stroke:none"
           d="M 0,0 V 0.879 H -0.3 V 0 c 0,-0.355 0.033,-0.652 0.457,-0.928 L 0.634,-1.168 0.767,-0.9 0.298,-0.668 C 0.03,-0.479 -0.013,-0.381 0,0" />
      </g>
      <g
         transform="matrix(0.35277777,0,0,-0.35277777,-14.833346,176.20846)"
         id="g261437">
        <path
           inkscape:connector-curvature="0"
           id="path261439"
           style="fill:#498c44;fill-opacity:1;fill-rule:nonzero;stroke:none"
           d="m 0,0 c 0,-1.338 -1.083,-2.42 -2.42,-2.42 -1.337,0 -2.421,1.082 -2.421,2.42 0,1.334 1.084,2.42 2.421,2.42 C -1.083,2.42 0,1.334 0,0" />
      </g>
      <g
         transform="matrix(0.35277777,0,0,-0.35277777,-14.105742,176.28218)"
         id="g261441">
        <path
           inkscape:connector-curvature="0"
           id="path261443"
           style="fill:#4b6d0f;fill-opacity:1;fill-rule:nonzero;stroke:none"
           d="m 0,0 c 0,-1.615 -1.311,-2.926 -2.929,-2.926 -1.615,0 -2.926,1.311 -2.926,2.926 0,1.617 1.311,2.93 2.926,2.93 C -1.311,2.93 0,1.617 0,0" />
      </g>
      <g
         transform="matrix(0.35277777,0,0,-0.35277777,-14.112674,175.52219)"
         id="g261445">
        <path
           inkscape:connector-curvature="0"
           id="path261447"
           style="fill:#4b6d0f;fill-opacity:1;fill-rule:nonzero;stroke:none"
           d="m 0,0 c 0,-1.236 -1.003,-2.238 -2.239,-2.238 -1.239,0 -2.243,1.002 -2.243,2.238 0,1.238 1.004,2.242 2.243,2.242 C -1.003,2.242 0,1.238 0,0" />
      </g>
      <g
         transform="matrix(0.35277777,0,0,-0.35277777,-14.709706,174.82218)"
         id="g261449">
        <path
           inkscape:connector-curvature="0"
           id="path261451"
           style="fill:#4b6d0f;fill-opacity:1;fill-rule:nonzero;stroke:none"
           d="m 0,0 c 0,-1.221 -0.989,-2.207 -2.211,-2.207 -1.218,0 -2.208,0.986 -2.208,2.207 0,1.217 0.99,2.209 2.208,2.209 C -0.989,2.209 0,1.217 0,0" />
      </g>
      <g
         transform="matrix(0.35277777,0,0,-0.35277777,-15.829344,175.5863)"
         id="g261453">
        <path
           inkscape:connector-curvature="0"
           id="path261455"
           style="fill:#4b6d0f;fill-opacity:1;fill-rule:nonzero;stroke:none"
           d="m 0,0 c 0,-1.58 -1.273,-2.859 -2.847,-2.859 -1.579,0 -2.854,1.279 -2.854,2.859 0,1.572 1.275,2.85 2.854,2.85 C -1.273,2.85 0,1.572 0,0" />
      </g>
      <g
         transform="matrix(0.35277777,0,0,-0.35277777,-15.630218,174.98133)"
         id="g261457">
        <path
           inkscape:connector-curvature="0"
           id="path261459"
           style="fill:#4b6d0f;fill-opacity:1;fill-rule:nonzero;stroke:none"
           d="m 0,0 c 0,-1.184 -0.956,-2.143 -2.144,-2.143 -1.182,0 -2.14,0.959 -2.14,2.143 0,1.188 0.958,2.143 2.14,2.143 C -0.956,2.143 0,1.188 0,0" />
      </g>
      <g
         transform="matrix(0.35277777,0,0,-0.35277777,-15.432469,176.43585)"
         id="g261461">
        <path
           inkscape:connector-curvature="0"
           id="path261463"
           style="fill:#4b6d0f;fill-opacity:1;fill-rule:nonzero;stroke:none"
           d="m 0,0 c 0,-1.561 -1.264,-2.818 -2.815,-2.818 -1.56,0 -2.818,1.257 -2.818,2.818 0,1.551 1.258,2.813 2.818,2.813 C -1.264,2.813 0,1.551 0,0" />
      </g>
      <g
         transform="matrix(0.35277777,0,0,-0.35277777,-14.744843,175.54978)"
         id="g261465">
        <path
           inkscape:connector-curvature="0"
           id="path261467"
           style="fill:#71991c;fill-opacity:1;fill-rule:nonzero;stroke:none"
           d="m 0,0 c 0,1.072 -0.869,1.941 -1.939,1.941 -0.223,0 -0.436,-0.039 -0.637,-0.105 -0.218,0.506 -0.721,0.857 -1.306,0.857 -0.79,0 -1.43,-0.64 -1.43,-1.433 0,-0.024 0.002,-0.055 0.004,-0.078 -0.754,-0.264 -1.294,-0.979 -1.294,-1.819 0,-1.06 0.862,-1.92 1.922,-1.92 0.169,0 0.334,0.022 0.49,0.065 0.15,-0.551 0.651,-0.953 1.249,-0.953 0.524,0 0.974,0.314 1.175,0.761 l 0.01,-0.002 c 0.649,0 1.172,0.52 1.182,1.157 v 0.152 C -0.219,-1.025 0,-0.537 0,0" />
      </g>
      <g
         id="g261469"
         transform="matrix(0.35277777,0,0,-0.35277777,-1011.4533,426.76957)">
        <g
           id="g261471" />
        <g
           id="g261483">
          <g
             style="opacity:0.19000202"
             id="g261481"
             clip-path="url(#clipPath261475)">
            <g
               id="g261479"
               transform="translate(2842.2314,697.1563)">
              <path
                 inkscape:connector-curvature="0"
                 id="path261477"
                 style="fill:#181816;fill-opacity:1;fill-rule:nonzero;stroke:none"
                 d="M 0,0 C 1.322,-0.766 1.336,-2.008 0.018,-2.779 -1.304,-3.543 -3.445,-3.537 -4.771,-2.777 -6.097,-2.008 -6.109,-0.766 -4.793,0 -3.472,0.766 -1.326,0.762 0,0" />
            </g>
          </g>
        </g>
      </g>
      <g
         transform="matrix(0.35277777,0,0,-0.35277777,-10.017823,181.2266)"
         id="g261485">
        <path
           inkscape:connector-curvature="0"
           id="path261487"
           style="fill:#938548;fill-opacity:1;fill-rule:nonzero;stroke:none"
           d="M 0,0 C 0.014,-0.279 0.477,-0.238 0.477,0.023 L 0.482,4.947 C 0.479,5.09 0.375,5.205 0.24,5.205 0.112,5.205 0,5.09 0.006,4.947 L -0.003,1.252 c 0,-0.01 0.002,-0.02 0.003,-0.033 z" />
      </g>
      <g
         transform="matrix(0.35277777,0,0,-0.35277777,-9.6684684,180.0663)"
         id="g261489">
        <path
           inkscape:connector-curvature="0"
           id="path261491"
           style="fill:#938548;fill-opacity:1;fill-rule:nonzero;stroke:none"
           d="m 0,0 v -0.85 c 0.01,-0.363 -0.032,-0.461 -0.284,-0.636 l -0.459,-0.235 0.128,-0.259 0.469,0.24 c 0.401,0.261 0.433,0.549 0.433,0.89 V 0 Z" />
      </g>
      <g
         transform="matrix(0.35277777,0,0,-0.35277777,-10.231051,180.52107)"
         id="g261493">
        <path
           inkscape:connector-curvature="0"
           id="path261495"
           style="fill:#938548;fill-opacity:1;fill-rule:nonzero;stroke:none"
           d="M 0,0 V 0.877 H -0.297 V 0 c 0,-0.357 0.031,-0.652 0.453,-0.928 l 0.478,-0.24 0.135,0.266 -0.47,0.234 C 0.032,-0.477 -0.011,-0.381 0,0" />
      </g>
      <g
         transform="matrix(0.35277777,0,0,-0.35277777,-8.9632744,179.38828)"
         id="g261497">
        <path
           inkscape:connector-curvature="0"
           id="path261499"
           style="fill:#498c44;fill-opacity:1;fill-rule:nonzero;stroke:none"
           d="m 0,0 c 0,-1.338 -1.083,-2.424 -2.422,-2.424 -1.334,0 -2.42,1.086 -2.42,2.424 0,1.334 1.086,2.42 2.42,2.42 C -1.083,2.42 0,1.334 0,0" />
      </g>
      <g
         transform="matrix(0.35277777,0,0,-0.35277777,-8.2353264,179.46202)"
         id="g261501">
        <path
           inkscape:connector-curvature="0"
           id="path261503"
           style="fill:#4b6d0f;fill-opacity:1;fill-rule:nonzero;stroke:none"
           d="m 0,0 c 0,-1.617 -1.313,-2.926 -2.93,-2.926 -1.615,0 -2.926,1.309 -2.926,2.926 0,1.617 1.311,2.93 2.926,2.93 C -1.313,2.93 0,1.617 0,0" />
      </g>
      <g
         transform="matrix(0.35277777,0,0,-0.35277777,-8.2436074,178.70203)"
         id="g261505">
        <path
           inkscape:connector-curvature="0"
           id="path261507"
           style="fill:#4b6d0f;fill-opacity:1;fill-rule:nonzero;stroke:none"
           d="m 0,0 c 0,-1.236 -1,-2.238 -2.236,-2.238 -1.239,0 -2.243,1.002 -2.243,2.238 0,1.238 1.004,2.242 2.243,2.242 C -1,2.242 0,1.238 0,0" />
      </g>
      <g
         transform="matrix(0.35277777,0,0,-0.35277777,-8.8402954,178.00197)"
         id="g261509">
        <path
           inkscape:connector-curvature="0"
           id="path261511"
           style="fill:#4b6d0f;fill-opacity:1;fill-rule:nonzero;stroke:none"
           d="m 0,0 c 0,-1.221 -0.99,-2.207 -2.211,-2.207 -1.219,0 -2.207,0.986 -2.207,2.207 0,1.217 0.988,2.211 2.207,2.211 C -0.99,2.211 0,1.217 0,0" />
      </g>
      <g
         transform="matrix(0.35277777,0,0,-0.35277777,-9.9589274,178.7668)"
         id="g261513">
        <path
           inkscape:connector-curvature="0"
           id="path261515"
           style="fill:#4b6d0f;fill-opacity:1;fill-rule:nonzero;stroke:none"
           d="m 0,0 c 0,-1.58 -1.277,-2.855 -2.852,-2.855 -1.573,0 -2.852,1.275 -2.852,2.855 0,1.574 1.279,2.854 2.852,2.854 C -1.277,2.854 0,1.574 0,0" />
      </g>
      <g
         transform="matrix(0.35277777,0,0,-0.35277777,-9.7597754,178.16186)"
         id="g261517">
        <path
           inkscape:connector-curvature="0"
           id="path261519"
           style="fill:#4b6d0f;fill-opacity:1;fill-rule:nonzero;stroke:none"
           d="m 0,0 c 0,-1.182 -0.959,-2.141 -2.143,-2.141 -1.184,0 -2.144,0.959 -2.144,2.141 0,1.188 0.96,2.146 2.144,2.146 C -0.959,2.146 0,1.188 0,0" />
      </g>
      <g
         transform="matrix(0.35277777,0,0,-0.35277777,-9.5630584,179.61635)"
         id="g261521">
        <path
           inkscape:connector-curvature="0"
           id="path261523"
           style="fill:#4b6d0f;fill-opacity:1;fill-rule:nonzero;stroke:none"
           d="m 0,0 c 0,-1.555 -1.263,-2.816 -2.813,-2.816 -1.559,0 -2.817,1.261 -2.817,2.816 0,1.553 1.258,2.814 2.817,2.814 C -1.263,2.814 0,1.553 0,0" />
      </g>
      <g
         transform="matrix(0.35277777,0,0,-0.35277777,-8.8754324,178.73029)"
         id="g261525">
        <path
           inkscape:connector-curvature="0"
           id="path261527"
           style="fill:#71991c;fill-opacity:1;fill-rule:nonzero;stroke:none"
           d="m 0,0 c 0,1.074 -0.868,1.941 -1.94,1.941 -0.219,0 -0.435,-0.037 -0.633,-0.103 -0.219,0.504 -0.722,0.857 -1.309,0.857 -0.789,0 -1.431,-0.642 -1.431,-1.433 0,-0.024 0.002,-0.053 0.004,-0.082 -0.751,-0.26 -1.292,-0.975 -1.292,-1.815 0,-1.062 0.862,-1.92 1.922,-1.92 0.167,0 0.334,0.022 0.489,0.063 0.15,-0.549 0.65,-0.951 1.251,-0.951 0.523,0 0.975,0.312 1.175,0.761 h 0.015 c 0.644,0 1.167,0.516 1.176,1.155 v 0.152 C -0.216,-1.025 0,-0.537 0,0" />
      </g>
      <g
         id="g261529"
         transform="matrix(0.35277777,0,0,-0.35277777,-1011.4533,426.76957)">
        <g
           id="g261531" />
        <g
           id="g261543">
          <g
             style="opacity:0.19000202"
             id="g261541"
             clip-path="url(#clipPath261535)">
            <g
               id="g261539"
               transform="translate(2858.8682,688.1445)">
              <path
                 inkscape:connector-curvature="0"
                 id="path261537"
                 style="fill:#181816;fill-opacity:1;fill-rule:nonzero;stroke:none"
                 d="M 0,0 C 1.326,-0.768 1.336,-2.012 0.017,-2.779 -1.301,-3.545 -3.446,-3.541 -4.771,-2.777 -6.097,-2.012 -6.108,-0.768 -4.791,0 -3.469,0.764 -1.324,0.762 0,0" />
            </g>
          </g>
        </g>
      </g>
      <g
         transform="matrix(0.35277777,0,0,-0.35277777,-4.1470374,184.40642)"
         id="g261545">
        <path
           inkscape:connector-curvature="0"
           id="path261547"
           style="fill:#938548;fill-opacity:1;fill-rule:nonzero;stroke:none"
           d="M 0,0 C 0.01,-0.279 0.475,-0.238 0.475,0.023 L 0.479,4.947 C 0.478,5.088 0.37,5.205 0.236,5.205 0.109,5.205 0,5.088 0.004,4.945 L -0.005,1.252 C -0.005,1.244 -0.002,1.23 0,1.221 Z" />
      </g>
      <g
         transform="matrix(0.35277777,0,0,-0.35277777,-3.7994274,183.24543)"
         id="g261549">
        <path
           inkscape:connector-curvature="0"
           id="path261551"
           style="fill:#938548;fill-opacity:1;fill-rule:nonzero;stroke:none"
           d="m 0,0 v -0.854 c 0.011,-0.361 -0.032,-0.46 -0.28,-0.636 l -0.463,-0.235 0.128,-0.257 0.469,0.24 c 0.402,0.262 0.434,0.549 0.434,0.892 V 0 Z" />
      </g>
      <g
         transform="matrix(0.35277777,0,0,-0.35277777,-4.3613234,183.70157)"
         id="g261553">
        <path
           inkscape:connector-curvature="0"
           id="path261555"
           style="fill:#938548;fill-opacity:1;fill-rule:nonzero;stroke:none"
           d="M 0,0 V 0.879 H -0.298 V 0 c 0,-0.355 0.034,-0.652 0.454,-0.926 L 0.634,-1.166 0.768,-0.902 0.3,-0.666 C 0.031,-0.477 -0.013,-0.377 0,0" />
      </g>
      <g
         transform="matrix(0.35277777,0,0,-0.35277777,-3.0935194,182.56812)"
         id="g261557">
        <path
           inkscape:connector-curvature="0"
           id="path261559"
           style="fill:#498c44;fill-opacity:1;fill-rule:nonzero;stroke:none"
           d="m 0,0 c 0,-1.338 -1.084,-2.422 -2.422,-2.422 -1.335,0 -2.42,1.084 -2.42,2.422 0,1.334 1.085,2.418 2.42,2.418 C -1.084,2.418 0,1.334 0,0" />
      </g>
      <g
         transform="matrix(0.35277777,0,0,-0.35277777,-2.3659154,182.64186)"
         id="g261561">
        <path
           inkscape:connector-curvature="0"
           id="path261563"
           style="fill:#4b6d0f;fill-opacity:1;fill-rule:nonzero;stroke:none"
           d="m 0,0 c 0,-1.617 -1.314,-2.926 -2.929,-2.926 -1.614,0 -2.925,1.309 -2.925,2.926 0,1.617 1.311,2.928 2.925,2.928 C -1.314,2.928 0,1.617 0,0" />
      </g>
      <g
         transform="matrix(0.35277777,0,0,-0.35277777,-2.3734824,181.88187)"
         id="g261565">
        <path
           inkscape:connector-curvature="0"
           id="path261567"
           style="fill:#4b6d0f;fill-opacity:1;fill-rule:nonzero;stroke:none"
           d="m 0,0 c 0,-1.238 -1.001,-2.236 -2.239,-2.236 -1.24,0 -2.241,0.998 -2.241,2.236 0,1.238 1.001,2.242 2.241,2.242 C -1.001,2.242 0,1.238 0,0" />
      </g>
      <g
         transform="matrix(0.35277777,0,0,-0.35277777,-2.9701704,181.18181)"
         id="g261569">
        <path
           inkscape:connector-curvature="0"
           id="path261571"
           style="fill:#4b6d0f;fill-opacity:1;fill-rule:nonzero;stroke:none"
           d="m 0,0 c 0,-1.221 -0.99,-2.209 -2.21,-2.209 -1.22,0 -2.208,0.988 -2.208,2.209 0,1.221 0.988,2.209 2.208,2.209 C -0.99,2.209 0,1.221 0,0" />
      </g>
      <g
         transform="matrix(0.35277777,0,0,-0.35277777,-4.0884584,181.94664)"
         id="g261573">
        <path
           inkscape:connector-curvature="0"
           id="path261575"
           style="fill:#4b6d0f;fill-opacity:1;fill-rule:nonzero;stroke:none"
           d="m 0,0 c 0,-1.578 -1.276,-2.855 -2.854,-2.855 -1.576,0 -2.852,1.277 -2.852,2.855 0,1.572 1.276,2.852 2.852,2.852 C -1.276,2.852 0,1.572 0,0" />
      </g>
      <g
         transform="matrix(0.35277777,0,0,-0.35277777,-3.8913964,181.34164)"
         id="g261577">
        <path
           inkscape:connector-curvature="0"
           id="path261579"
           style="fill:#4b6d0f;fill-opacity:1;fill-rule:nonzero;stroke:none"
           d="m 0,0 c 0,-1.182 -0.958,-2.139 -2.141,-2.139 -1.184,0 -2.142,0.957 -2.142,2.139 0,1.188 0.958,2.146 2.142,2.146 C -0.958,2.146 0,1.188 0,0" />
      </g>
      <g
         transform="matrix(0.35277777,0,0,-0.35277777,-3.6936474,182.79619)"
         id="g261581">
        <path
           inkscape:connector-curvature="0"
           id="path261583"
           style="fill:#4b6d0f;fill-opacity:1;fill-rule:nonzero;stroke:none"
           d="m 0,0 c 0,-1.555 -1.263,-2.816 -2.812,-2.816 -1.557,0 -2.818,1.261 -2.818,2.816 0,1.553 1.261,2.813 2.818,2.813 C -1.263,2.813 0,1.553 0,0" />
      </g>
      <g
         transform="matrix(0.35277777,0,0,-0.35277777,-3.0060214,181.91013)"
         id="g261585">
        <path
           inkscape:connector-curvature="0"
           id="path261587"
           style="fill:#71991c;fill-opacity:1;fill-rule:nonzero;stroke:none"
           d="m 0,0 c 0,1.074 -0.867,1.941 -1.939,1.941 -0.221,0 -0.436,-0.039 -0.633,-0.105 -0.22,0.506 -0.723,0.859 -1.307,0.859 -0.79,0 -1.432,-0.642 -1.432,-1.431 0,-0.028 0.003,-0.057 0.003,-0.084 -0.751,-0.26 -1.291,-0.973 -1.291,-1.815 0,-1.062 0.86,-1.92 1.919,-1.92 0.172,0 0.337,0.02 0.49,0.063 0.153,-0.549 0.653,-0.953 1.25,-0.953 0.526,0 0.975,0.314 1.178,0.763 h 0.014 c 0.644,0 1.166,0.516 1.177,1.155 v 0.152 C -0.217,-1.023 0,-0.537 0,0" />
      </g>
    </g>
  </g>
</svg>
