<svg enable-background="new 0 0 80 240" viewBox="0 0 80 240" xmlns="http://www.w3.org/2000/svg"><path d="m20.1 203c-11.9 7.7-12.5 14.6 0 21.3 13.7 7.4 22.8 3.4 33.4-2.7s12-13.6-3.7-19.9c-12.7-5.1-20.7-4.5-29.7 1.3z" opacity=".2"/><path d="m30.4 32.2c-.6 1.9-.5 9.8-1.2 14.2-.8 5.3-7.2 24.3 2.1 18.3s7.1-34 3.2-34.2c-3.1-.2-3.5-.2-4.1 1.7z" fill="#762c07"/><path d="m25.4 80.2s-3.3 11-6 19.4-4.5 14-5.4 16.1-1.3 5.8-.8 7.4 2.4 5.1 3.1 5.7c1.8 1.6 4.5 1.3 4.9.8s.4-2.3-.3-3-2.7-3.1-1.5-6c1.2-3 1-4.2 1-6.1 0-1.5-.5-1.7.7-4.2s7-14.7 7.6-16.4c.6-1.6-3.3-13.7-3.3-13.7z" fill="#fbd7c7"/><path d="m39.6 52.2s-9.3-4.1-12.5.3-1.7 11.2-1.7 11.2-5.5 6.2-5.5 9.6 5.2 6.6 5.2 6.6.6 16-.3 22.6-4.6 23.6-4 34.3c.7 10.8 2.4 25.4 2.7 29.6s2.2 10.2 3.1 15c.9 4.9 4.8 13.1 1.5 19.7-2.1 4.2-8.6 6.9-10.3 7.4-8.1 2.4-5.2 8.7 1.5 6.6 2.8-.9 5.6-2.9 8.4-4s9.6 2.9 10-4c.2-3.9-.6-8.7-.4-11.9s2.2-16.9 1.3-23.1-3.3-7.9-3.7-9c-.3-1 4.6-32.3 4.6-32.3l1.1.1s1.3 30 1.2 33 2.1 17.9 2.8 25 1.3 19.3-2 23.2c-3.4 4.1-12.1 7.9-11.3 11.3.5 2.1 8.2 4.2 11.6-.4 2.4-3.2 8-4.3 10.4-6 2-1.4 1.7-4.9.8-6.8s-1.3-10.6-.3-16 4.2-14.9 3.4-20-3.3-8.3-3-11.9 8.3-25.2 6.7-40.2-9.2-17.7-10.5-23.8 3.1-14.1 5.3-18.4 5.4-11.8 2.6-14.4c-2.8-2.7-6-4.5-7.2-6.5s-2.5-8.4-2.5-8.4z" fill="#fbd7c7"/><path d="m23 111.4s5 6.6 8.9 11.3c3 3.6 7.6 8.1 7.6 8.1l1.1.1s5.5-9.7 9.3-12.2c5.3-3.5 9.3-5.4 9.3-5.4l-1.5-3.9s-10.1 5-19 5.2c-7.1.2-15.1-6-15.1-6z" fill="#262626"/><path d="m34.5 51s-6.4 10.3-9 12.5-6.3 7-5.6 11.7c.4 3.1 1.8 4.4 4.4 5.7 1.5.8 4.4 1.1 4.4 1.1s1.5 5 7 6c7.4 1.3 17.3-1.7 17.3-1.7l1.1-2.1s-10-1.4-10.7-7.8c-.5-4.3 6-18.4 6-18.4s-10 11.2-15.9 17.1c-2.5 2.5-4.8 4-4.8 4s-1.6-5.3-1.2-8.8c.4-3.4 1.3-6.6 3.2-10.3 1.4-2.7 4.1-7.1 4.6-8.5 0-.5-.8-.5-.8-.5z" fill="#262626"/><path d="m37 52.5s-4.3.7-5-.9c-.7-1.7-4.5-15.7 2.4-24.4s20.8-3.1 20.8 6.1c0 8.3-3.3 10.7-4.8 14.7-.9 2.5-1.6 5.9-.1 8.6s2.8 4.1 2.8 4.1-7.7 4.7-13.4 3.3c-5.8-1.4-.2-4.3-1-6.7s-1.7-4.8-1.7-4.8z" fill="#fbd7c7"/><path d="m49.7 75s6.6 9.2 9.9 13.9 6.9 8.9 6.9 8.9-4.1 1.7-8.4 5.4c-4.4 3.8-5.7 6.1-6.7 6.2s-5 .1-8.6 1.8c-3.1 1.5-3.8 3.4-4.2 5.5s-.5 2.6.7 3.7c1.2 1 3.1.8 3.7.5 1.6-.8 2-2.4 3.4-3.1 1.9-.9 4.2-1.3 6.1-2.5 1.8-1.2 18.6-9.1 21.1-11.6s3.7-5.5 1.3-9.5c-2.5-4.1-10.5-17.7-12.5-22.2s-4.5-9.2-9.1-9.5-8.5 6.9-3.6 12.5z" fill="#fbd7c7"/><path d="m30.4 32.2s3.6-11.6 16.7-9.2c8.2 1.5 10.5 10.7 9.8 16.9-.7 6.3-3.3 10-2.1 13.1 2.3 5.7 1 9.5-1.6 12.9-4.4 5.6-13.3 8.3-12.3-3 .7-8.7-5.2-12.6-3.2-21.8 1.3-5.8-1.1-8.3-3.7-7.8-.9-1.9-1.9-2.7-3.6-1.1z" fill="#762c07"/></svg>