<?xml version="1.0" encoding="UTF-8" standalone="no"?>
<svg
   xmlns:dc="http://purl.org/dc/elements/1.1/"
   xmlns:cc="http://creativecommons.org/ns#"
   xmlns:rdf="http://www.w3.org/1999/02/22-rdf-syntax-ns#"
   xmlns:svg="http://www.w3.org/2000/svg"
   xmlns="http://www.w3.org/2000/svg"
   xmlns:sodipodi="http://sodipodi.sourceforge.net/DTD/sodipodi-0.dtd"
   xmlns:inkscape="http://www.inkscape.org/namespaces/inkscape"
   enable-background="new 0 0 80 240"
   viewBox="0 0 6.2067642 21.024933"
   version="1.1"
   id="svg2409"
   sodipodi:docname="city--woman16.svg"
   width="6.2067642"
   height="21.024933"
   inkscape:version="0.92.2 (5c3e80d, 2017-08-06)">
  <metadata
     id="metadata2415">
    <rdf:RDF>
      <cc:Work
         rdf:about="">
        <dc:format>image/svg+xml</dc:format>
        <dc:type
           rdf:resource="http://purl.org/dc/dcmitype/StillImage" />
        <dc:title></dc:title>
      </cc:Work>
    </rdf:RDF>
  </metadata>
  <defs
     id="defs2413" />
  <sodipodi:namedview
     pagecolor="#ffffff"
     bordercolor="#666666"
     borderopacity="1"
     objecttolerance="10"
     gridtolerance="10"
     guidetolerance="10"
     inkscape:pageopacity="0"
     inkscape:pageshadow="2"
     inkscape:window-width="870"
     inkscape:window-height="480"
     id="namedview2411"
     showgrid="false"
     fit-margin-top="0"
     fit-margin-left="0"
     fit-margin-right="0"
     fit-margin-bottom="0"
     inkscape:zoom="1.2791667"
     inkscape:cx="4.0881955"
     inkscape:cy="15.780655"
     inkscape:window-x="0"
     inkscape:window-y="0"
     inkscape:window-maximized="1"
     inkscape:current-layer="svg2409" />
  <g
     id="g2424"
     transform="matrix(0.1,0,0,0.1,-0.79813653,-2.0143521)">
    <path
       id="path2395"
       d="m 30.1,205.8 c -9.6,5.9 -10.3,13 2.1,19.7 13.7,7.4 21.7,5.7 32.3,-0.4 9.3,-5.4 7.2,-12.7 -8.5,-19 -12.6,-5.1 -19.1,-4.5 -25.9,-0.3 z"
       inkscape:connector-curvature="0"
       style="opacity:0.2" />
    <path
       id="path2397"
       d="m 63.5,216.4 c -3.7,-0.3 -11.2,1.5 -12.9,-0.8 -1.7,-2.3 -1.1,-17.8 0,-24.7 1.1,-6.9 2.4,-17.1 2.4,-18.7 0,-1.6 1.7,-15.3 2.7,-20.7 0.9,-5.4 1.9,-21.7 1.3,-27.6 -0.5,-6 -2.7,-30.9 -2.9,-34.7 -0.3,-3.7 2,-23 -1.7,-27.1 C 48.7,58 36.6,55.3 36.6,55.3 30.9,53.7 21.9,53.8 20.4,55.4 18.9,57 14,65.8 12.6,67.8 c -1.5,2 -4.9,6 -4.6,8.9 0.3,2.9 13.4,16.1 15.3,17.8 1.9,1.7 4.1,3.5 4.1,3.5 0,0 -6,6.9 -7.7,14.3 -1.7,7.4 -0.8,24 1.5,32.3 2.3,8.3 3.2,10.4 1.5,16.9 -1.7,6.5 -2.8,15.1 -0.8,24.7 2,9.6 4.3,18.2 3.7,23.9 -0.5,5.7 -1.5,8.5 1.6,9.2 3.1,0.7 5.8,-3.5 8.1,-3.9 2.3,-0.4 6.4,-0.5 6.4,-0.5 0,0 -0.5,4.3 -0.5,6.1 0,1.9 -0.3,5.4 2.1,6.1 2.4,0.7 8,-2.8 10.9,-2.7 2.9,0.1 9.7,0.5 12.1,-2.7 1.8,-2.7 0.9,-5 -2.8,-5.3 z M 29.7,91.7 c 0,0 -3.5,-4.8 -5.3,-7.3 -1.9,-2.5 -7,-8.4 -7,-8.4 l 5.3,-5.3 c 0,0 5,11.7 6.5,14.6 1.5,3 0.5,6.4 0.5,6.4 z m 11.2,79.4 c -2,5.3 -1.5,14.1 -1.2,20.7 0.3,6.6 1.3,16.6 1.3,16.6 0,0 -1.5,0 -2.7,0 -1.2,0 -2.9,-0.1 -4.3,-1.2 -1.3,-1.1 -1.1,-14.5 -0.5,-22.3 0.5,-7.8 0.3,-18.5 0.5,-21 0.3,-2.5 0.5,-6.5 1.9,-10.5 1.3,-4 1.1,-20.5 1.1,-20.5 0,0 3.5,18.5 4.6,23.4 1.3,5 1.3,9.5 -0.7,14.8 z"
       inkscape:connector-curvature="0"
       style="fill:#fbd7c7" />
    <path
       id="path2399"
       d="m 21.6,106.6 c 0,0 5.7,2.8 12.9,4.8 7.2,2 22.3,1.3 22.3,1.3 l 0.3,3.5 c 0,0 -7.6,5.7 -13,10 -5.4,4.3 -7.3,6.9 -7.3,6.9 0,0 -5.7,-3.8 -8.6,-5.2 -2.8,-1.3 -6.2,-7.5 -7.4,-12.2 -0.9,-3.4 0,-6.8 0,-6.8 z"
       inkscape:connector-curvature="0"
       style="fill:#262626" />
    <path
       id="path2401"
       d="m 25.5,78.3 c 0,0 20.9,1.7 22.4,1.7 1.5,0 5,-16.5 5,-16.5 0,0 5.5,6.3 6.4,10.1 0.8,3.4 -0.9,7.2 -4.5,8.6 -2.5,1 -17.4,-0.4 -20.5,-0.7 -3.1,-0.3 -7.8,-1.2 -7.8,-1.2 z"
       inkscape:connector-curvature="0"
       style="fill:#262626" />
    <path
       id="path2403"
       d="m 53.4,63.2 c 0,0 1.6,1.2 0.6,7.9 -1,6.7 -1,20.4 0.9,27 1.9,6.6 5.5,21 6.6,23.7 1.1,2.7 2.4,3.3 3.1,4.4 0.5,0.8 1.4,5 0.9,6.5 -0.5,1.5 -2.9,5.3 -5,5.9 -2.1,0.6 -4.5,0.6 -4.8,-0.3 -0.3,-0.9 1.8,-1.3 2.1,-2.7 0.3,-1.4 0.5,-6.3 0.5,-7.6 0,-1.3 -1.2,-4.8 -5.2,-11.3 -4,-6.5 -7.4,-11.9 -8.5,-19 -1.1,-7.2 -3.3,-27.7 -2.8,-31.6 0.8,-5.4 7.7,-8.2 11.6,-2.9 z"
       inkscape:connector-curvature="0"
       style="fill:#fbd7c7" />
    <path
       id="path2405"
       d="m 42.8,22.5 c 3.5,1.2 4.8,4.2 5.4,10.5 0.6,6.3 -0.2,10.2 -0.7,11.3 -0.5,1.1 -4.3,2.4 -5.2,4 -0.9,1.6 -1.7,4.9 -1.1,5.6 1,1.3 1.8,1.3 1.8,1.3 0,0 -8.7,2.1 -11.8,0.7 -3.1,-1.4 -3,-3.1 -2.4,-3.8 0.6,-0.7 1.7,-3.6 1.1,-5.2 -0.6,-1.6 -7.8,-8 -5.5,-15.6 2.8,-9.1 11.3,-11.3 18.4,-8.8 z"
       inkscape:connector-curvature="0"
       style="fill:#fbd7c7" />
    <path
       id="path2407"
       d="m 34,20.4 c -8.6,1.7 -12,8.8 -10.4,16.7 1.3,6.3 1.4,7.9 0.3,10.4 -3.6,8.3 -5.9,15.3 -2.3,19.6 5.6,6.6 18.3,3.4 23.2,-3.8 C 48,58.7 50.6,52 48.7,46.8 45.9,39 48,37 48.8,31.4 49.6,25.8 42.6,18.7 34,20.4 Z"
       inkscape:connector-curvature="0"
       style="fill:#762c07" />
  </g>
</svg>
