<?xml version="1.0" encoding="UTF-8" standalone="no"?>
<svg
   xmlns:dc="http://purl.org/dc/elements/1.1/"
   xmlns:cc="http://creativecommons.org/ns#"
   xmlns:rdf="http://www.w3.org/1999/02/22-rdf-syntax-ns#"
   xmlns:svg="http://www.w3.org/2000/svg"
   xmlns="http://www.w3.org/2000/svg"
   xmlns:sodipodi="http://sodipodi.sourceforge.net/DTD/sodipodi-0.dtd"
   xmlns:inkscape="http://www.inkscape.org/namespaces/inkscape"
   enable-background="new 0 0 80 240"
   viewBox="0 0 5.3457718 20.698172"
   version="1.1"
   id="svg1451"
   sodipodi:docname="city--woman05.svg"
   width="5.3457718"
   height="20.698172"
   inkscape:version="0.92.2 (5c3e80d, 2017-08-06)">
  <metadata
     id="metadata1457">
    <rdf:RDF>
      <cc:Work
         rdf:about="">
        <dc:format>image/svg+xml</dc:format>
        <dc:type
           rdf:resource="http://purl.org/dc/dcmitype/StillImage" />
        <dc:title></dc:title>
      </cc:Work>
    </rdf:RDF>
  </metadata>
  <defs
     id="defs1455" />
  <sodipodi:namedview
     pagecolor="#ffffff"
     bordercolor="#666666"
     borderopacity="1"
     objecttolerance="10"
     gridtolerance="10"
     guidetolerance="10"
     inkscape:pageopacity="0"
     inkscape:pageshadow="2"
     inkscape:window-width="870"
     inkscape:window-height="480"
     id="namedview1453"
     showgrid="false"
     fit-margin-top="0"
     fit-margin-left="0"
     fit-margin-right="0"
     fit-margin-bottom="0"
     inkscape:zoom="1.2791667"
     inkscape:cx="-0.27957958"
     inkscape:cy="17.051952"
     inkscape:window-x="0"
     inkscape:window-y="0"
     inkscape:window-maximized="1"
     inkscape:current-layer="svg1451" />
  <g
     id="g1474"
     transform="matrix(0.1,0,0,0.1,-1.6223606,-2.3212)">
    <path
       id="path1421"
       d="m 21.7,112 c 0,0 -1.6,3 -2.2,5.1 -0.7,2.1 -1.7,8.6 -1.6,9.7 0.1,1 4.1,8.4 5.8,9.2 1.7,0.8 2,-10.2 2,-10.2 l -0.5,-4.8 2.7,-5.6 z"
       inkscape:connector-curvature="0"
       style="fill:#fbd7c7" />
    <path
       id="path1423"
       d="m 25.3,205.3 c -11.8,7.6 -12.4,14.4 0,21 13.5,7.2 22.4,3.3 32.9,-2.7 10.5,-6 11.8,-13.4 -3.6,-19.6 -12.5,-5 -20.4,-4.4 -29.3,1.3 z"
       inkscape:connector-curvature="0"
       style="opacity:0.2" />
    <path
       id="path1425"
       d="m 22.8,123.4 c -0.4,3.3 -1.6,26.2 0,32.2 1.6,6 2.2,8.8 2.6,11 0.4,2.2 1.8,4.1 2.5,7.6 0.7,3.5 3.7,15.1 2.7,19.6 -0.9,4.6 -1.4,11.7 -4.5,15.6 -3.1,3.9 -8,6.8 -4.8,8 3.1,1.2 6.7,0.4 8.1,-0.5 1.4,-0.9 5.2,-6.5 8.4,-7.7 3.1,-1.2 6.3,-2.9 6,-6 -0.3,-3.1 -3.1,-3.8 -3.3,-7.6 -0.1,-3.8 4.5,-14.3 3.1,-21.3 -1.3,-7.1 -3.4,-10.5 -3.4,-10.5 l 2.4,-16.2 c 0,0 1.7,18.9 1.8,20.5 0.1,1.6 1,4.7 1,4.7 0,0 -0.3,8.1 0.3,12.7 0.5,4.6 3.8,13.2 2,20 -1.8,6.8 -1.4,8 -3.9,11.1 -2.5,3.1 -7.2,5.6 -3.8,7.3 3.4,1.7 7.3,2.5 9.9,-1.8 2.6,-4.3 5.5,-5.9 6.9,-7.2 1.4,-1.3 1.8,-2.2 0.8,-6.3 -1,-4.1 -1,-9.4 0.4,-13.6 1.4,-4.2 4.7,-15.4 4.8,-20.2 0.1,-4.7 -2.2,-9.4 -2.2,-9.4 0,0 4.3,-15.1 5.5,-26.8 1.2,-11.7 1,-20.4 -1,-25.5 -1.9,-5.2 -42.3,10.3 -42.3,10.3 z"
       inkscape:connector-curvature="0"
       style="fill:#fbd7c7" />
    <path
       id="path1427"
       d="m 46.2,210.8 c 0,0 1.6,1.7 4.2,1.8 3,0.1 6.1,-1.6 6.6,-2.9 0.7,-1.7 0.3,-4.3 0.3,-4.3 0,0 2.8,2.3 2.8,5.1 0,2.5 -1.8,5.5 -1.9,6.5 0,1 0.1,3.5 0.1,3.5 l -1.8,1 -3,-1.4 c 0,0 -0.9,2.9 -2.9,4.4 -2,1.4 -6.8,4.2 -11.3,2.5 -4.5,-1.7 -2,-5.6 -0.9,-6.9 1.1,-1.3 5,-4 6,-5.9 1.1,-2.3 1.8,-3.4 1.8,-3.4 z"
       inkscape:connector-curvature="0"
       style="fill:#e5e5e5" />
    <path
       id="path1429"
       d="m 28.3,203.6 c 0,0 2.4,2.4 5.2,2.3 2.1,-0.1 5.3,-1.5 6.4,-3.4 0.9,-1.6 1.4,-4.6 1.4,-4.6 0,0 2.7,1.6 2.7,5.2 0,3.2 -2.3,6.3 -2.4,8.5 -0.1,2.2 0,1.3 0,1.3 l -2.4,1.2 -2.4,-1.2 c 0,0 0.8,-2.5 0,-2 -0.8,0.5 -3.3,4.2 -5.1,5.9 -1.8,1.7 -5.8,4 -9.4,2.9 -3.6,-1.1 -3.4,-4.8 -1.3,-6.6 1.8,-1.6 4.1,-2.8 5.4,-5.2 1.3,-2.3 1.9,-4.3 1.9,-4.3 z"
       inkscape:connector-curvature="0"
       style="fill:#e5e5e5" />
    <path
       id="path1431"
       d="M 44,203.1 V 203 c -0.4,1.5 -1.2,2.5 -3.1,4 -2.2,1.8 -4,3.3 -6.1,5.8 -2.1,2.6 -6,6 -10.7,6 -2.7,0 -4.7,-1.9 -4.4,-3.8 -0.6,1.8 0.1,3.8 2.6,4.6 3.6,1.1 7.7,-1.2 9.4,-2.9 1.8,-1.7 4.3,-5.4 5.1,-5.9 0.8,-0.5 0,2 0,2 l 2.4,1.2 2.3,-1.2 c 0,-0.2 0,-0.6 0.1,-1.3 0.1,-2.1 2.4,-5.2 2.4,-8.4 z"
       inkscape:connector-curvature="0"
       style="opacity:0.4" />
    <path
       id="path1433"
       d="m 50.7,224.5 c 2,-1.4 2.9,-4.4 2.9,-4.4 l 3,1.4 1.8,-1 c 0,0 -0.2,-2.5 -0.1,-3.5 0,-0.9 1.5,-3.3 1.8,-5.7 -0.2,0.4 -0.4,0.8 -0.7,1.2 -1.4,2.3 -3.7,3.4 -6.5,8.1 -2.6,4.5 -9.3,5.9 -12,5.4 -2.2,-0.4 -3.7,-1.3 -4,-2.7 -0.2,1.3 0.4,2.7 2.6,3.5 4.3,1.9 9.2,-0.9 11.2,-2.3 z"
       inkscape:connector-curvature="0"
       style="opacity:0.4" />
    <path
       id="path1435"
       d="m 22,122.7 c -0.3,2.1 -1.3,27.5 -0.3,33.8 2,12.5 5,17.6 6.7,29.8 0.3,2.5 0.6,7.7 0.6,7.7 0,0 5.5,0.6 8.1,0.4 4.2,-0.4 5.5,-0.8 5.5,-0.8 0,0 1.7,-6.7 1.8,-16.8 0,-3.7 -3.3,-13.2 -3.3,-13.2 l 1.6,-8.4 -3,-32.8 C 30.2,122.2 22,122.7 22,122.7 Z"
       inkscape:connector-curvature="0"
       style="fill:#993399" />
    <path
       id="path1437"
       d="m 22,122.7 c -0.3,2.1 -1.3,27.5 -0.3,33.8 2,12.5 5,17.6 6.7,29.8 0.3,2.5 0.6,7.7 0.6,7.7 0,0 5.5,0.6 8.1,0.4 4.2,-0.4 5.5,-0.8 5.5,-0.8 0,0 1.7,-6.7 1.8,-16.8 0,-3.7 -3.3,-13.2 -3.3,-13.2 l 1.6,-8.4 -3,-32.8 C 30.2,122.2 22,122.7 22,122.7 Z"
       inkscape:connector-curvature="0"
       style="opacity:0.15" />
    <path
       id="path1439"
       d="m 46.5,200.6 c 0,0 3.5,1.1 6.8,0.9 4.7,-0.3 7.7,-1.9 7.7,-1.9 0.1,0.7 1.9,-14.1 2.6,-21.6 0.5,-5 -1.2,-9.8 -0.9,-12.4 C 63,163 70,136.5 69,128.3 68.4,123.5 25.9,96.7 28.5,122.8 c 1.1,11.1 7.4,12 9.8,16.4 3.6,6.6 3.9,12.4 4.2,16 0.6,6.3 2.5,22.7 2.9,27 0.2,4.3 1.1,18.4 1.1,18.4 z"
       inkscape:connector-curvature="0"
       style="fill:#993399" />
    <path
       id="path1441"
       d="m 24.3,89.7 c 0,0 -1.9,8.4 -2.9,23.8 -0.1,2.3 0,5.7 -0.1,9.7 -0.1,6.6 11.1,10.9 22.5,11.6 12.5,0.8 25.4,-0.6 25.8,-6.8 1.1,-14.8 -9.3,-28.5 -10.6,-34.3 -1.3,-5.8 6.7,-8.6 6.7,-8.6 0,0 -2,-4.7 -1.5,-11.6 C 64.7,66.6 58.8,63.6 56.7,62.2 55,61 39.4,53.8 36.9,53.1 c -2.5,-0.7 -7.1,-0.9 -8.2,3.5 -1.2,4.5 0,9.2 -1.4,10.9 -1.4,1.7 -6.5,8.1 -6.3,12.4 0.1,4.5 3.3,9.8 3.3,9.8 z"
       inkscape:connector-curvature="0"
       style="fill:#baa794" />
    <path
       id="path1443"
       d="m 39.3,27.6 c -5.3,3.5 -5.8,10.8 -5.6,15.8 0.2,5 0.3,9.1 2.2,10.8 1.9,1.7 2.1,2.4 2.3,3.6 0.2,1.2 -5.7,5.7 -0.6,8 5.1,2.3 6.9,-0.3 10.9,-2.1 4.3,-1.9 7.6,-1.6 7.6,-1.6 0,0 -2.6,-4.7 -2.4,-8.1 0.2,-3.3 1,-5.8 2.6,-9.3 C 57.9,41.2 60.5,32 55.2,28.3 49.9,24.6 42.9,25.2 39.3,27.6 Z"
       inkscape:connector-curvature="0"
       style="fill:#fbd7c7" />
    <path
       id="path1445"
       d="m 52.7,25.9 c 0,0 -3.4,-4.2 -10.2,-2.1 -6.8,2.1 -8.2,7.9 -8.2,7.9 l 2.7,-1.8 -1.6,3.5 2.5,-2.1 c 0,0 -1.1,2.6 -1.1,2.5 0,-0.2 2.6,-2.1 2.6,-2.1 0,0 -1.8,4.6 -1.8,4.4 0.1,-0.2 6.5,-6.2 6.5,-6.2 l -3.4,7.2 1.6,-0.5 -1.5,7.3 1.5,-2.5 0.3,5.7 1.8,-6.2 1,4.3 1.1,-4.1 1.4,6.8 1.3,-3.5 0.9,3 1.8,-4.5 0.4,1.8 1.5,-2.7 0.2,1.6 1,-0.2 -2,7.5 1.9,-3.7 -0.5,6.3 3.1,-7.2 0.3,1.6 1.6,-6.7 0.3,3.2 0.6,-4.9 0.9,0.9 -0.7,-4.3 1,0.6 -1.9,-3.6 1.3,0.5 c -0.1,-0.2 -2,-8.1 -8.2,-7.7 z"
       inkscape:connector-curvature="0"
       style="fill:#2d3134" />
    <path
       id="path1447"
       d="m 52.2,82.9 c 0,0 -6.7,8.3 -15.4,7.1 C 27.6,88.6 34,75.4 34,75.4 c 0,0 -8,14.1 -12.9,6.3 0.9,4 3.2,8 3.2,8 0,0 0,0 0,0 1.8,1.2 3.2,0.9 5.6,-2 1.8,12.4 21.9,6.1 24.9,3.3 -0.7,-2.6 -2.6,-8.1 -2.6,-8.1 z"
       inkscape:connector-curvature="0"
       style="opacity:0.15" />
    <path
       id="path1449"
       d="M 67.5,101.1 C 66.8,97.6 65.3,87.9 64.6,85.6 l -10.7,2.5 c 0.1,0.3 0.1,0.3 0.2,0.6 1,2.6 3.3,14.4 3.5,15.3 0.2,0.9 -2,3.3 -3,5.6 -2.7,6.1 -3.3,13.9 -3.7,15.5 -0.5,1.6 -1.6,2.9 -2.9,3.8 -1.3,0.9 -5.8,4.6 -6.2,5.6 -0.3,0.7 -1.7,4.5 -1.1,6 0.6,1.5 2.6,2.7 3.6,2.7 1,0 3,-2.8 3.8,-4.2 0.8,-1.4 0.9,-2.2 3.9,-4.5 3.1,-2.3 3.4,-5.4 7,-11.1 3.6,-5.7 6.1,-10.2 7.2,-13 1.3,-2.8 1.6,-7.7 1.3,-9.3 z"
       inkscape:connector-curvature="0"
       style="fill:#fbd7c7" />
  </g>
</svg>
