<svg enable-background="new 0 0 80 240" viewBox="0 0 80 240" xmlns="http://www.w3.org/2000/svg"><path d="m20.1 64.2s-3.7 14-3.7 16.8 2.2 10.2 4.8 14.4c2.6 4.1 5.4 10.5 5.4 10.5l2.1-4s-2.2-10.5-3.5-14.1-1.9-4.2-.9-7.4c1.1-3.3 3-8.6 3-8.6z" fill="#fbd7c7"/><path d="m23.7 209.1c-9.3 5.7-10 12.5 2.1 18.9 13.2 7.1 20.9 5.5 31.1-.4 9-5.2 6.9-12.2-8.2-18.3-12.2-4.9-18.4-4.3-25-.2z" opacity=".2"/><path d="m25.4 98c-2.4 3.2-11.5 14.3-8.9 30s7.1 24.2 6.3 27.9-3.7 10.8-3 18.7c.8 9.7 3.7 19.7 3.8 23 .2 3.3 1.3 6.3.4 8.8s-3.1 4.4-.9 6.1c1.8 1.4 1-.6 10.2 2.7 12.3 4.5 9.7-1.8 3.6-2.9-2.2-.4-4.1-4.8-4.8-7.7-.3-1.2-1.2-15.8-.4-22.6.8-6.7.9-17.1.8-20.1s2.4-14.4 3.4-20c1.4-8.5 4-38.5 4-38.5z" fill="#fbd7c7"/><path d="m23.6 207.3s-2.3 2.6-2.2 4.9 1.9 5.7 1.9 7v3.2l1.7 1 1.6-.8s-.7-5.3.5-6.1 4.8 1.9 7.2 2.5 8.3-.1 10.4-1 .4-3.6-1.5-4.7c-2.6-1.4-6.7-1.2-6.7-1.2s1.3.4 2.8 1.9c2.7 2.7-4.8 3.3-11.7-2.6-2.6-2.4-4-4.1-4-4.1z" fill="#cc291f"/><path d="m33.9 102.3s-5.4 12.9-5.4 19.1 4.1 8.5 4.9 10.5 1.1 8.5 3 16.2 4.2 12.5 2 18.1c-3.6 8.8-2.9 16.4-1.8 27.2 1.1 10.7.2 16.8-.1 18.5-.4 2-3.5 3-1.9 5.4 2.2 3.2 8.4 3.6 11.1 4.9 3.2 1.5 7.2 2 8.2.4s.2-3.9-3.4-3.8c-3.1.1-5.3-5-6.2-7.3-.9-2.2 1-9.6 2.6-21.2 1.5-11.6 2.2-24.2 2.9-29 .8-4.8 3.2-9 3.8-30.5s-1.6-27.6-1.6-27.6z" fill="#fbd7c7"/><path d="m35.6 213.1s-2.4 2-2.4 4.5c0 2.6 2.1 5.4 2.4 7.4s.2 3.5.2 3.5l1.9.9 1.9-.8s-1.6-5.7.1-6.1 6.8 3.6 9.9 3.6 7.3-3.9 7.3-5.4-3.4-3.1-5.4-2.9c-2 .1-2.9.6-2.9.6s3.1 1.3 3.5 2.4c.4 1-.6 1.7-1.9 2-2.6.5-5.1-1.8-9.3-5.2-3.6-2.9-5.3-4.5-5.3-4.5z" fill="#cc291f"/><path d="m52.5 104.3c.2 5.9 6 36.3 8.1 46.6.4 2.2-3.6 4.2-11.9 6.5s-13.2 2.1-18.6-3.5-13.7-3.7-16.4-5.2 1.4-14.8 1.7-25.7 6.3-19.8 6.3-19.8z" fill="#28896d"/><path d="m26.7 56.9c-2.5 1.1-7.9 5.6-6.9 9.3s4.7 16.1 5.5 19.7c.8 3.5 1.2 8.7-.2 10.6s-4.3 7.3-4.3 7.3 9.9 2.7 18.3 2.7 14.2-1.5 14.2-1.5-1.2-20.7-.7-21.8 5-3 4.6-7.5c-.3-2.9-1.9-4.3-3.7-6.1-1.3-1.4-3-3.6-4.4-4.9-1.7-1.6-6-3.6-10.1-6.3-4.2-2.6-12.3-1.5-12.3-1.5z" fill="#e5e5e5"/><path d="m50.7 66.3s1.5 1.2.6 7.6c-1 6.4-1 19.7.9 26 1.8 6.3 5.3 20.2 6.3 22.8 1.1 2.6 2.3 3.2 3 4.2.5.7 1.4 4.8.9 6.3s-2.8 5.1-4.8 5.7-4.3.6-4.6-.3 1.7-1.2 2-2.6.5-6.1.5-7.3-1.2-4.6-5-10.8-7.1-11.4-8.2-18.3-3.2-26.7-2.7-30.4c.6-5.3 7.3-7.9 11.1-2.9z" fill="#fbd7c7"/><path d="m40.8 27.2c3.4 1.2 4.6 4.1 5.2 10.1s-.2 9.8-.6 10.9-4.2 2.3-5.1 3.8-1.6 4.7-1.1 5.4c1 1.3 1.7 1.2 1.7 1.2s-8.3 2-11.3.7-2.9-3-2.3-3.7 1.7-3.5 1.1-5-7.5-7.7-5.3-15c2.6-8.7 10.8-10.8 17.7-8.4z" fill="#fbd7c7"/><path d="m32.2 25.1c-8.2 1.6-11.5 8.5-10 16.1 1.2 6.1 1.3 7.6.3 10-3.4 8-5.7 14.8-2.2 18.9 5.4 6.4 17.6 3.3 22.3-3.6 3.1-4.5 5.6-10.9 3.8-15.9-2.7-7.5-.6-9.5.1-14.8.8-5.4-6-12.3-14.3-10.7z" fill="#762c07"/></svg>