<svg enable-background="new 0 0 80 240" viewBox="0 0 80 240" xmlns="http://www.w3.org/2000/svg"><path d="m27.9 76.6s1.5 13.1.2 18.2-2.3 8.4-2.9 14-.3 10.3-1.3 13c-1 2.6-.8 7.1-.3 10 .3 2.2 1 6.4 2.1 6.2s.7-1.5.9-2.7c.2-1.1.4-2.8.2-3.7-.1-.9-.1-.8.6-1.4s.2-3.4.1-4.7c-.4-2.9 2-9.6 3-14.3s4.1-11.6 3.5-16.2-.7-16.9-.7-16.9z" fill="#fbd7c7"/><path d="m6.3 215.9c-6.2 7.5 4.4 11.2 19.8 12.5s29.8 8.1 40.2 2.8 4-15.3-16.3-16.6-19.7-6.1-28.8-4.1-12.7 2.8-14.9 5.4z" opacity=".2"/><path d="m32.1 213.6c2.4 0 4 4.7-.4 6s-9.2 1.9-10.6 2.1c-2.1.2-7.3.7-9.8 0-2.7-.7-2.2-3.4-1.5-4.6.7-1.1 15.1-4.3 17.7-4.3 2.6.2 4.2.8 4.6.8z" fill="#262626"/><path d="m10.7 219.9c1.5.5 6 .5 9.8 0 1.5-.2 13.2-2.5 13.9-3.9s-9.9-5.6-9.9-5.6-5.5 2.7-7.7 3.1-5.4.8-7.1 2.7c-1.1 1.2-.3 3.3 1 3.7z" fill="#fff"/><path d="m54.5 216.8c-.2 2-1.2 6.7.5 10.2 1 2.1 6.8 3 9.2.5s-1.4-14.2-1.4-14.2z" fill="#262626"/><path d="m55.1 216s-2.8 11.2 4.3 11.1c7.2-.1 5.1-5.1 4.5-8.5s-2-5.2-2-5.2z" fill="#fff"/><path d="m53.8 217.6s2.9.1 6.7.3 4.1-1.6 4.1-1.6-.8-6.5-.9-11.4c-.2-4.9.4-18.8-.2-25.2-.7-6.4-.8-11.7.4-23.3s2.5-18.7.2-24.7-3.7-8.5-3.7-8.5l-31.9 3.4s-3.8 9-4.2 20c-.4 11.1 2.6 20.8 1.7 26.6-.9 5.9-1.3 18.7-1.9 24.7-.9 9.4-4.4 15.5-4.4 15.5s1 3 6.1 3.8 8.7-1.7 8.7-1.7.2-6.5.9-14.7c.8-8.2 2.2-16.2 2.4-22.7s.6-7.5 1-9.2c.5-1.7 2.3-13.6 3.4-17.1 1.4-4.7 1.8-9.4 2.9-9.4 1.1.1.9 4.1 2.2 11.9 1.1 6.5 4.8 32.8 4.9 40.8.1 8.1 1.6 22.5 1.6 22.5z" fill="#cc291f"/><path d="m28.4 126.5s-3.8 9-4.2 20c-.4 11.1 2.6 20.8 1.7 26.6-.9 5.9-1.3 18.7-1.9 24.7-.9 9.4-4.4 15.5-4.4 15.5s1 3 6.1 3.8 8.7-1.7 8.7-1.7.2-6.5.9-14.7c.8-8.2 2.2-16.2 2.4-22.7s.6-7.5 1-9.2c.5-1.7 2.3-13.6 3.4-17.1 1.4-4.7 1.8-9.4 2.9-9.4 0 0 1.1-10.4.5-17.5z" fill="#cc291f"/><path d="m28.4 126.5s-3.8 9-4.2 20c-.4 11.1 2.6 20.8 1.7 26.6-.9 5.9-1.3 18.7-1.9 24.7-.9 9.4-4.4 15.5-4.4 15.5s1 3 6.1 3.8 8.7-1.7 8.7-1.7.2-6.5.9-14.7c.8-8.2 2.2-16.2 2.4-22.7s.6-7.5 1-9.2c.5-1.7 2.3-13.6 3.4-17.1 1.4-4.7 1.8-9.4 2.9-9.4 0 0 1.1-10.4.5-17.5z" opacity=".2"/><path d="m47.3 154.4c1.1 6.5 4.8 32.8 4.9 40.8s1.6 22.4 1.6 22.4 2.9.1 6.7.3 4.1-1.6 4.1-1.6-.8-6.5-.9-11.4c-.2-4.9.4-18.8-.2-25.2-.7-6.4-.8-11.7.4-23.3 1.1-11.6 2.5-18.7.2-24.7s-3.7-8.5-3.7-8.5l-17.6 1.8c.6 7.1 2.3 17.5 2.3 17.5 1.1.1.9 4.1 2.2 11.9z" fill="#cc291f"/><path d="m60.3 83.5s-2.6 15.5-2.1 20.6c.4 5.1 1.3 11.2 2.3 14.8s1.7 6 .9 7.3-1.8 5.3-1.1 6c1.8 1.6 2.5 5.6 3 6.6.3.6.9 1.1 1.8.6s.2-4.7.3-5.7.4-5.8.4-7.4.6-15.7 0-18.8-1.4-8.2.4-14.7c1.8-6.4 2.8-7.3 2.8-10.2-.1-3-8.7.9-8.7.9z" fill="#fbd7c7"/><path d="m40 67.8s-12.3 13.3 1.7 14.9 16.5-7.7 13.9-12.9c-2.6-5.1-6.9-7.8-6.9-7.8z" fill="#fbd7c7"/><path d="m40.3 68.6s-5.6-1.7-8.9.6-3.8 7.7-3.8 7.7.6.5 1.4.9 1.3.4 1.3.4 0 1.7-.9 4.2c-.8 2.6-2.7 5-1.7 8.5.9 3.4 3.1 3.9 3.1 4.6 0 .8.6 12.2-.7 18.5s-2.5 12.8-2.4 14.6c0 .3.4 5.5 13.1 5.8 12.7.2 20.7-8.8 20.7-8.8s-2.6-6.8-3.7-11c-1-3.9 2.4-17.8 2.4-21.4s0-8.5 0-8.5 1.3 1.2 5.2 1.1c2.1-.1 3.7-1.4 3.7-1.4s.9-5.6-3.1-8.9-8.5-3.5-8.5-3.5-5.1 10.4-13.9 8.1c-9.5-2.4-3.3-11.5-3.3-11.5z" fill="#fc0"/><path d="m47.9 41.1c-8.1-.5-12 3-13.5 8.6-1.5 5.4 4 15.3-1.8 17.9.1 2.2 5.1 4.5 7.3 2.1 2.2-2.3 2.9-2.4 2.9-2.4z" fill="#825012"/><path d="m37.2 51.2c-1.5 3.1-1.9 15.6.6 17.6s7.6-1.3 12.5-3.5 5.5-19-1.9-19.2-9.6 1.8-11.2 5.1z" fill="#fbd7c7"/><path d="m46.4 41.3c-3.3.8-7.1 5.2-6.4 10 1 6.2 13.2 18.3 4.6 22.2 1.4 4.6 9.5 4.3 14 2 4.3-2.3 4.7-4.5 4.6-5.3s-3.8-4.9-3.8-10.9c-.1-6.1-.5-21.1-13-18z" fill="#825012"/><path d="m27.9 90.9s1.1 4.3 13.6 5.1c12.5.9 18.6-4.8 18.6-4.8s-3.3 7.9-17.4 7.4-14.8-7.7-14.8-7.7z" opacity=".2"/></svg>