<?xml version="1.0" encoding="UTF-8" standalone="no"?>
<svg
   xmlns:dc="http://purl.org/dc/elements/1.1/"
   xmlns:cc="http://creativecommons.org/ns#"
   xmlns:rdf="http://www.w3.org/1999/02/22-rdf-syntax-ns#"
   xmlns:svg="http://www.w3.org/2000/svg"
   xmlns="http://www.w3.org/2000/svg"
   xmlns:sodipodi="http://sodipodi.sourceforge.net/DTD/sodipodi-0.dtd"
   xmlns:inkscape="http://www.inkscape.org/namespaces/inkscape"
   enable-background="new 0 0 160 240"
   viewBox="0 0 10.684675 16.999424"
   version="1.1"
   id="svg606"
   sodipodi:docname="city--basicwoman09.svg"
   width="10.684675"
   height="16.999424"
   inkscape:version="0.92.2 (5c3e80d, 2017-08-06)">
  <metadata
     id="metadata612">
    <rdf:RDF>
      <cc:Work
         rdf:about="">
        <dc:format>image/svg+xml</dc:format>
        <dc:type
           rdf:resource="http://purl.org/dc/dcmitype/StillImage" />
        <dc:title></dc:title>
      </cc:Work>
    </rdf:RDF>
  </metadata>
  <defs
     id="defs610" />
  <sodipodi:namedview
     pagecolor="#ffffff"
     bordercolor="#666666"
     borderopacity="1"
     objecttolerance="10"
     gridtolerance="10"
     guidetolerance="10"
     inkscape:pageopacity="0"
     inkscape:pageshadow="2"
     inkscape:window-width="880"
     inkscape:window-height="480"
     id="namedview608"
     showgrid="false"
     fit-margin-top="0"
     fit-margin-left="0"
     fit-margin-right="0"
     fit-margin-bottom="0"
     inkscape:zoom="1.2791667"
     inkscape:cx="3.630067"
     inkscape:cy="30.834101"
     inkscape:window-x="0"
     inkscape:window-y="0"
     inkscape:window-maximized="1"
     inkscape:current-layer="svg606" />
  <g
     id="g630"
     transform="matrix(0.1,0,0,0.1,-3.2197688,-5.7337274)">
    <path
       id="path574"
       d="m 40.3,226.5 c 9.5,4.5 40.3,-10.4 58.5,-17.5 13.5,-5.3 43.2,-17.8 38,-22 -5,-4 -26.6,4.7 -45.5,11.5 -19.6,7 -58.9,24.2 -51,28 z"
       inkscape:connector-curvature="0"
       style="opacity:0.2" />
    <path
       id="path576"
       d="m 61,77.9 c 0,0 9.3,-13.7 12.3,-13 3,0.7 3,2 2.9,5 -0.1,3 -1.4,17.5 -1.4,17.5 z"
       inkscape:connector-curvature="0"
       style="fill:#fbd7c7" />
    <path
       id="path578"
       d="m 132.7,135.1 c 1.2,2.7 3.5,8.1 4.7,10.9 1.2,2.9 2.5,6.5 0.9,8.4 -1.6,1.9 -2.9,2 -3.9,1.9 -1,-0.1 -7.9,-14.4 -8.7,-16.8 -1,-2.2 5.2,-8 7,-4.4 z"
       inkscape:connector-curvature="0"
       style="fill:#262626" />
    <path
       id="path580"
       d="m 133.2,139 c 1.1,3.1 2.6,7.1 3.7,9.4 1.1,2.3 1.8,6.3 -0.8,7.8 -2.6,1.5 -5.2,0 -8.1,-4.6 -2.9,-4.6 -3.3,-8.8 -3.3,-8.8 z"
       inkscape:connector-curvature="0"
       style="fill:#ffffff" />
    <path
       id="path582"
       d="m 34,205.1 c 0.3,-0.4 2.3,-2.2 4,-1 1.7,1.2 3.8,3.7 4.5,4 0.7,0.3 2.8,0.2 2.8,0.2 l 8.4,8.1 -1.7,5.1 -9.8,-6.8 z"
       inkscape:connector-curvature="0"
       style="fill:#ffffff" />
    <path
       id="path584"
       d="m 80.2,124.6 c 0,0 1.2,14.3 0.5,15.6 -0.7,1.3 -8.9,14.8 -11.4,18.7 -2.5,3.9 -4.3,6 -4.7,9 -0.4,2.7 -0.8,10.9 -3.6,22.3 -2.8,11.6 -6.8,29.3 -7.3,29.3 -0.5,0 -2.4,-1 -4.2,-3.9 -1.8,-2.8 -2,-4.5 -4.8,-6.7 -0.7,-0.6 -2,-0.8 -2,-0.8 0,0 3,-5.9 4.5,-13.6 1.4,-7.7 2.4,-20.2 4.6,-28.5 2.2,-8.3 3.2,-18 7,-29.4 2.2,-6.8 8.6,-15.7 8.6,-15.7 z"
       inkscape:connector-curvature="0"
       style="fill:#cc291f" />
    <path
       id="path586"
       d="m 80.2,124.6 c 0,0 1.2,14.3 0.5,15.6 -0.7,1.3 -8.9,14.8 -11.4,18.7 -2.5,3.9 -4.3,6 -4.7,9 -0.4,2.7 -0.8,10.9 -3.6,22.3 -2.8,11.6 -6.8,29.3 -7.3,29.3 -0.5,0 -2.4,-1 -4.2,-3.9 -1.8,-2.8 -2,-4.5 -4.8,-6.7 -0.7,-0.6 -2,-0.8 -2,-0.8 0,0 3,-5.9 4.5,-13.6 1.4,-7.7 2.4,-20.2 4.6,-28.5 2.2,-8.3 3.2,-18 7,-29.4 2.2,-6.8 8.6,-15.7 8.6,-15.7 z"
       inkscape:connector-curvature="0"
       style="opacity:0.2" />
    <path
       id="path588"
       d="m 76.7,134.9 c 1.8,3.5 7.9,10.7 12,14.7 4.4,4.2 10.3,9.2 11.9,10.3 2.3,1.6 5.2,1.2 9.2,-2.1 3.6,-3 13.4,-11.1 14.1,-10.9 0.7,0.2 1.6,1.1 2.7,1.8 2.5,1.8 6.9,-2.1 7.6,-5.2 0.7,-3.1 -0.6,-12.1 -4.9,-12.5 -4.3,-0.4 -6.9,2.7 -11.7,5.7 -4.5,2.8 -12.3,6.1 -12.3,6.1 0,0 -4.5,-11.4 -6.5,-16.2 -2.1,-4.8 -3.4,-11 -11.7,-12.4 -8.3,-1.4 -10.4,20.7 -10.4,20.7 z"
       inkscape:connector-curvature="0"
       style="fill:#cc291f" />
    <path
       id="path590"
       d="M 54.2,86.6 C 54,90.4 52.6,101 54,103.3 c 1.4,2.3 6.2,5.3 6.2,5.3 0,0 2,15.8 2.9,18.2 0.9,2.4 6.3,11.1 15.6,10.4 10.1,-0.7 13.5,-6.4 14.7,-12.8 1.2,-6.6 -0.4,-8.1 -2,-9.4 -1.6,-1.3 -4.1,-2.2 -4.6,-5 -0.5,-2.8 -1.6,-8.7 -3.3,-15.7 -1.5,-6.3 -4,-11.5 -11.1,-13 -7,-1.4 -18.2,5.3 -18.2,5.3 z"
       inkscape:connector-curvature="0"
       style="fill:#ffcc00" />
    <path
       id="path592"
       d="m 57,83.6 c 0.1,4.1 -1.6,9.6 3.7,13.4 4.9,3.5 6.5,-2.5 6.9,-7.9 0.5,-5.4 -0.8,-12 -0.8,-12 z"
       inkscape:connector-curvature="0"
       style="fill:#fbd7c7" />
    <path
       id="path594"
       d="m 58.3,57.8 c -5.2,-0.6 -12,4.9 -12.4,12.4 -0.4,7.5 2.7,8.4 3.1,12.4 0.4,4 -2.2,6 -2.2,6 0,0 3.4,4.8 9.4,-1.1 6,-5.9 2.1,-29.7 2.1,-29.7 z"
       inkscape:connector-curvature="0"
       style="fill:#825012" />
    <path
       id="path596"
       d="m 50.9,68.1 c -1.9,2.1 -3.1,4.4 -1.8,10.8 1.3,6.4 1.9,9.3 4.8,8.8 2.9,-0.4 11.1,-4.6 12,-6.6 0.9,-2 -11.3,-17.1 -15,-13 z"
       inkscape:connector-curvature="0"
       style="fill:#fbd7c7" />
    <path
       id="path598"
       d="m 54.5,60.8 c -2.7,2.9 -6.1,6.9 -1.7,12 4.4,5.1 10.2,6.9 9.6,11.7 -0.5,4.8 -3.7,6.4 -3.7,6.4 0,0 8.9,4.3 14.5,-0.5 7.6,-6.6 5.5,-10.6 4.4,-11.8 -1.4,-1.6 -2.3,-0.1 -4.7,-4 -2.7,-4.5 -2.2,-14 -9.5,-16.6 -4.6,-1.7 -6.3,0.1 -8.9,2.8 z"
       inkscape:connector-curvature="0"
       style="fill:#825012" />
    <path
       id="path600"
       d="m 53.7,102.5 c 0.2,2.7 18.1,15.3 23,9.6 -7.5,3.7 -21.6,-7.6 -23,-9.6 z"
       inkscape:connector-curvature="0"
       style="opacity:0.2" />
    <path
       id="path602"
       d="m 33.9,204.9 c -1.6,1 -2,3 -1.5,5.4 0.5,2.4 1.2,5.3 4.4,6.9 3.1,1.6 10.1,5.6 12.7,5.7 2.1,0.1 2.6,-1.1 2.6,-1.9 0,-0.8 -0.7,-1.7 -2.9,-2.9 -2.2,-1.2 -5.7,-2.4 -6.9,-5 -1.2,-2.6 -3.3,-6.7 -5,-8 -1.7,-1.4 -3.1,-0.5 -3.4,-0.2 z"
       inkscape:connector-curvature="0"
       style="fill:#262626" />
    <path
       id="path604"
       d="m 70.1,100.9 c 0,0 3.4,0.3 6,0.4 2.1,0.1 3,0 3,0 0,0 -0.5,9.3 -0.9,14.2 -0.3,4.6 -0.2,12.1 -3.3,13.5 -3,1.4 -7.5,-1.4 -12.7,-3.9 -5.3,-2.6 -9.2,-5 -11.1,-5.5 -1.9,-0.5 -7.8,-2.7 -8.2,-5.2 -0.2,-1.1 2.7,-5.7 4.2,-6.2 1.5,-0.5 3.5,1.7 3.5,1.7 0,0 -0.2,-1.3 1.1,-1.2 1,0.1 1.6,1.4 1.8,2.8 0.1,1.4 0.2,2.7 0.6,3.5 0.3,0.7 7.8,3.6 10.2,4.2 2.4,0.6 5.1,1.3 5.1,1.3 0,0 0.2,-6.7 0.4,-10.9 0.2,-4.2 0.3,-8.7 0.3,-8.7 z"
       inkscape:connector-curvature="0"
       style="fill:#fbd7c7" />
  </g>
</svg>
