<svg enable-background="new 0 0 80 240" viewBox="0 0 80 240" xmlns="http://www.w3.org/2000/svg"><path d="m42.8 237.8c5.5-.2 6.9-2.6 8.2-7.3 1.4-4.7-.4-5.7 2.9-8.1s5.9-4.8 5-8.4c-1.7-6.9-9-15.1-15.9-15.1s-19.8 10.2-20.2 11.2-3.4 2.3-.4 6.4c4.8 6.5 8.4 21.6 20.4 21.3z" opacity=".2"/><path d="m27.8 204.8s-2.4 2.3-4.3 3.7-2 4.1-1.9 5 2.1 3.3 5.5 2.7 6-4.3 8.3-6.4c2.3-2.2 2.3-2 4-2.3s0-4.2-2.3-4.3-6.8-2.3-6.8-2.3-1.5 2.8-2.5 3.9z" fill="#fff"/><path d="m27.8 204.8s-2.4 2.3-4.3 3.7-2 4.1-1.9 5 2.1 3.3 5.5 2.7 6-4.3 8.3-6.4c2.3-2.2 2.3-2 4-2.3s0-4.2-2.3-4.3-6.8-2.3-6.8-2.3-1.5 2.8-2.5 3.9z" fill="#fff"/><path d="m35.4 209.9c2.3-2.2 2.3-2 4-2.3.2 0 .4-.1.5-.3l-6.6-1.3s.3 2.6-1.8 4.9c-2 2.3-3.2 3.6-5.7 3.6-1.8 0-3.1-.4-4.1-1.6v.7c.1 1 2.1 3.3 5.5 2.7s5.9-4.2 8.2-6.4z" fill="#262626"/><path d="m25.4 119.9s-3.4 9.4-3.1 20.4c.3 11.5 1.6 18.7 2.4 21.7 1.1 4.5 3.4 5.9 3.9 15.7s.6 19.8-.2 22.7-2.7 4-2.4 4.7 3.8-.4 5.5 1.2 4.5 2.7 5.9 2.7c1.4.1 2 0 2 0l-3.7-78.2z" fill="#cc291f"/><path d="m25.4 119.9s-3.4 9.4-3.1 20.4c.3 11.5 1.6 18.7 2.4 21.7 1.1 4.5 3.4 5.9 3.9 15.7s.6 19.8-.2 22.7-2.7 4-2.4 4.7 3.8-.4 5.5 1.2 4.5 2.7 5.9 2.7c1.4.1 2 0 2 0l-3.7-78.2z" opacity=".2"/><path d="m41.7 225.9s-1.7 4.5-1.7 5.4-.2 3.9.4 4.6c.5.6 3.2 1.5 5.3 1.2 2.2-.3 4.3-2.4 4.5-3.2.2-.9-.1-6.3-.2-7.1s-.5-2.6-.5-2.6z" fill="#fff"/><path d="m49.6 224.1-1.4.3c.4 1.9.9 6.3.3 8.1-.8 2.1-3 2.7-4.9 2.7-1.1 0-3-.6-3.5-2 0 1.1.1 2.3.4 2.7.5.6 3.2 1.5 5.3 1.2 2.2-.3 4.3-2.4 4.5-3.2.2-.9-.1-6.3-.2-7.1s-.5-2.7-.5-2.7z" fill="#262626"/><path d="m33.8 131.7s-3 7.1-3.5 17.3.7 17 .9 19.3c.1 2.3.5 9.4 1.8 12.1s3.7 7.9 4.6 14.4 1.3 18.4 1.4 21.4c.1 4-.5 7.3.2 9.2s3-.4 5.5.3c2.5.6 6.4 1.4 7.1 1s-.5-7.5-.4-11.6-.2-19.8-1.1-26.4c-.8-6.6-5.6-12.8-4.8-19.5s5.4-20.8 6.5-25c1.1-4.1 1.4-10.2.8-15.7-.5-5.6-19 3.2-19 3.2z" fill="#cc291f"/><path d="m25.4 114.8s-4.3 3.1-5.9 5.1-2.4 2.9-2.4 4.7.8 2.9 1.6 2.7 0-2.7 0-2.7l.8-1.6s-.8 1.4-.4 2c.4.5 2.2 2.4 2.7 2 .6-.4.4-1.2.4-1.2s-1.5-1-1.2-1.6.8-.8.8-.8-.3 1.8 0 2.4c.3.5 1.6.4 1.6.4l2.4-5.5z" fill="#fbd7c7"/><path d="m44.8 71.7c-4.6-.9-13.3-1.6-16.5 2.4s-2.4 5.1-2.4 7.1-1.5 5.3-2.4 7.5-2.3 5.9-.8 8.2c1.5 2.4 4.3 3.5 4.3 3.5s-.8 9.3-1.7 12.9c-.9 3.5-2 9.8-2.4 11.8s1.6 7.9 5.5 9.4c3.9 1.6 12.8 2.3 18.1-1.6s6.3-6.3 6.3-6.3-1.9-7.7-1.6-10.6 5.2-17.6 5.2-17.6l3.6-11.8 1.2-.8s.3-2.6-1.2-5.1c-1.5-2.6-4-5.2-7.5-6.3s-3.7-1.9-7.7-2.7z" fill="#fc0"/><path d="m34.2 73.6s-6.9 5.5-2.4 10.2 13.3-4.2 14.9-7.9c1.7-3.5-7.1-7.6-12.5-2.3z" fill="#fbd7c7"/><path d="m22.3 93.3s-.1 4.3 11 6.5c16.5 3.3 19.8-2.9 19.8-2.9s-3.1 8.6-19.2 5.5c-14-2.7-11.6-9.1-11.6-9.1z" fill="#262626" opacity=".2"/><path d="m42.9 45.5c-8.1-.5-12 3-13.5 8.6-1.5 5.4 4 15.3-1.8 17.9.1 2.2 5.1 4.5 7.3 2.1 2.2-2.3 2.9-2.4 2.9-2.4z" fill="#825012"/><path d="m32.3 55.6c-1.5 3.1-1.9 15.6.6 17.6s7.6-1.3 12.5-3.5 5.5-19-1.9-19.2-9.6 1.8-11.2 5.1z" fill="#fbd7c7"/><path d="m41.4 45.7c-3.3.8-7.1 5.2-6.4 10 1 6.2 13.2 18.3 4.6 22.2 1.4 4.6 9.5 4.3 14 2 4.3-2.3 4.7-4.5 4.6-5.3s-3.8-4.9-3.8-10.9c-.1-6.1-.4-21.1-13-18z" fill="#825012"/><path d="m50.6 88.9s2.8 0 4.8-.3 4.7-2 4.7-2 .2 4.6.8 7.3 1.6 10.4 2 11.5 1.9 2 0 5.9-9.7 15.9-11.1 19.1-1.3 6.2-2 7.1-2.5 1.7-2.7 1.6c-.3-.1-.7-.1-.7-.1s-.4.4-1.1.4-.9-.4-.9-.4-.5.8-1.6.7-1-.8-1-.8-1.6.8-2.4.6-1.2-1-.7-1.3 1.6-.2 2.4-.9 2.1-2.8 2.1-2.8-.3-.2-.2-1.4c0-1.2-.1-3.1 1-3.7 1.2-.6 2.6-.6 3.4-1.6 2.5-3 3.2-8.2 5.4-12.7 2.1-4.5 3.6-6.2 3.6-6.6s-2.8-6.7-3.8-10.2c-1.1-3.8-2-9.4-2-9.4z" fill="#fbd7c7"/></svg>