<svg enable-background="new 0 0 240 160" viewBox="0 0 240 160" xmlns="http://www.w3.org/2000/svg"><path d="m162.2 25 41.2 20.4c1.6.8 1.6 3 0 3.8l-4.7 2.4c-1.2.6-2.5 1.1-3.7 1.6l-34.3 10.1c-5.2 1.5-10.1 4.1-14.4 7.5l-34.3 27.4c-1.2 1-2.6 1.8-4 2.6-2.6 1.3-5.5 2.1-8.5 2.3l-44 .3c-7.4.2-14.3 3.9-18.6 10l-3.6 5.1c-2.2 3.2-5.3 5.8-8.8 7.6-1.8.9-4 .7-5.6-.4-1.7-1.2-2.5-3.2-2.3-5.2l2.5-18.2c.3-2.2 1.9-4 4-4.6l10.1-2.8 13.1-4.2 40.7-29.9z" fill="#202426" opacity=".2"/><path d="m22.5 126.2c2-.1 4.3-4.9 6-8.3s4.5-5.6 7.2-8.1 11.1-7.8 11.1-7.8 4.9-.6 8.1-.6 12.2 1.1 21.5 1.8 21.2-.1 24.6-1.1 21.6-12.1 28.8-18.7 12.3-14.7 14.9-17c2.5-2.3 8.6-5.2 12.3-6.5s13.6-2.3 18.9-3.8c5.4-1.5 17-3.3 21.5-4s5.8-3.5 6.2-6-2.9-4.6-4.4-5.3c-1.4-.7-13.2-4.1-16.3-4.9s-6.4-2.8-6.4-2.8c-2-1.5-8.6-5.4-9.9-3.4s3.3 6.4 5 7.2c1.6.8 5 2.9 6.2 3.3s8.8 4 8.8 4-5.3-.4-11.2-.3-7.5-2.7-9.5-3.8-7.6-7.1-10.6-9.4-6.9-5.3-6.9-5.3l-3.1 4.4s-8.3 7.7-9.8 8.7-8.8 8.1-9.6 8.7-4.4.9-10 2.2-8.9 2-18.9 6.5-18.7 13.2-22.5 15.1-11 5-16.5 8.5-13.5 12.5-13.5 12.5-2.1-1-4.9-.9c-2.7.1-3.3 2.5-5.3 3.4-1.9.9-9.3 1.9-12.1 2.2s-3.4 1.2-4 3.2 2.7 4.9 4 5 6.4-.9 6.4-.9-4.6 1.8-6.6 2.9-.8 2.6-1 3.4-1.9 2.6-3 5.8c-1.1 3.3 2.4 10.2 4.5 10.1zm38.8-33.3s5.9-2.7 8.3-4.7c2.4-1.9 5.5-5.7 7.5-6.7s11.9-2 18.8-4.7c6.9-2.6 13.6-6.5 13.6-6.5l2.1 1.6s-6.8 7.9-9.6 11-7.5 9.3-7.5 9.3-5.8-2.3-12.2-2c-6.5.4-21 2.7-21 2.7z" fill="#fbd7c7"/><path d="m183.8 16.6c3.6 2.1 3.8 7.2 2 10.1s-4.9 6.3-7 7.3-6.8 1.2-8.1 2c-3 1.9-3.3 5.7-3.3 5.7s-5.5-4-7.2-5.3c-1.7-1.2-4.8-5.4-4.8-5.4s4.5.6 7.1-1.1 3.1-6.1 5.3-8.5c2-2.2 7.7-9.5 16-4.8z" fill="#fbd7c7"/><path d="m142.6 68.4-1.4 2.6s-9.6-1.3-14.4-1.4-12.9.8-13.9 1.4-1.3 1-1.3 1l-2.1-1.6s2.1-4.5 3-7.3 1-13.5 1-13.5l3.4-1.1s1.7 7.5 6 10.8c4.3 3.4 19.7 9.1 19.7 9.1z" fill="#262626"/><path d="m148.3 25.4c-3-2.1-7.9-.9-11.4 2.2s-12.1 11.2-14 11.8c-1.8.6-9.1 4.8-10.6 5.2s-5.4 2.7-7.5 5.3c-2.1 2.5-5.7 6.5-4.3 8.1s3.7 1.6 4.6.3c.8-1.3 5.8-4.8 5.8-4.8s-1.4 2.5-1.7 3.3-.2 2.7.4 2.7 2.5-3.8 3-4 1.5-2.2 1.7-3.3.8-3.1.8-3.1 5.7-3.2 9-4 7.8-3.2 8.8-4.3c1-1 11.9-10.3 11.9-10.3s6.5-3 3.5-5.1z" fill="#fbd7c7"/><path d="m167 40.5s-8.7-.8-11.5 0-6.4 2.4-6.4 2.4l-3.1-2.6s2.4-5 3.8-6.5 3.7-4.8 3.7-4.8l-.8-.4s-3.2 1.2-5.3 1.7c-2 .5-5.9.1-9 2.3s-2.5 4.7-2.5 4.7-.3 1.9 3.5 3.2 5.6 1.5 6.7 2.3 1.8 5.9 3.6 8.5c3.4 4.8 7.7 8.6 7.7 8.6l2.7-1s-1.9-2.6-1.2-6.3c1.4-7.4 9-11.6 9-11.6z" fill="#262626"/><path d="m181.5 20.5c2.5 1.1 4.1 4.5 2.1 7.6s-8.1 5.9-10.4 6.6-5.9.1-6.9 2.7c-.9 2.6-.8 5.4 1.2 6.5s3.8.4 6.7-1.3c1.4-.9 10.1-7.6 11.9-13.8s1-9.8-1.6-12.4c-2.8-2.9-8.1-4.6-12.7-3.5s-10.1 4.5-12.7 7.2c-3.2 3.3-6.8 7.6-10.9 8.5-8.8 1.9-5.4 7.5 4.2 6.4 2.2-.2 5.2-2.9 7.6-3.1 2.7-.3 4.7-2 5.7-4.3.9-2.3 3.1-3.2 8-4.7 4.1-1.4 5.5-3.4 7.8-2.4z" fill="#762c07"/></svg>