<svg enable-background="new 0 0 80 240" viewBox="0 0 80 240" xmlns="http://www.w3.org/2000/svg"><path d="m63.9 236.2c15.7-7.7 6-16.3-10.9-21.1-14.9-4.2-26.2-22.2-43.2-11.3-13.8 8.7 4.9 17.9 18.3 22.6 19.1 6.8 22.8 16.1 35.8 9.8z" opacity=".2"/><path d="m33.2 205.3c1.7.7-1.6 1.8-5.3 4.3s-6.9 6.6-11.9 6.3-5.7-2.2-2.9-5.4 12.8-8.2 20.1-5.2z" fill="#262626"/><path d="m31.1 205.3c-2.9 1.9-5.5 3.9-8 5.8s-8 4.2-10.3 3.6-2-4 .7-6.4 8.6-6.1 9.9-7.3c1.1-1.3 13.5.4 7.7 4.3z" fill="#fff"/><path d="m62.1 222.4c-2 3.3-4 10.8-7.9 11.6s-6.9-.4-7.4-2.1 4-9.9 7.6-12.7 10.2-1 7.7 3.2z" fill="#262626"/><path d="m60.8 222.6c-1.5 2.9-3.1 9.5-7.6 10s-5.9-.7-6.4-2.1.9-5.4 3.8-8.6 3.3-5.8 7.2-5 4.7 2.5 3 5.7z" fill="#fff"/><path d="m23.7 116.8s-3.4 6.2-4 15.7c-1 15.3 1.5 32.7 1.9 37.2.4 4.6-.4 21.3-1.4 26.9s-1.8 7.6-1.8 7.6 4.3 4.6 9.4 3.9 6.5-2.1 6.5-3.3-.4-11.5-.7-17.2 1.4-14.3 1.9-21.9c.4-7 2.4-17.9 2.4-17.9l-1.4-32.2c-4.1.5-12.8 1.2-12.8 1.2z" fill="#cc291f"/><path d="m23.7 116.8s-3.4 6.2-4 15.7c-1 15.3 1.5 32.7 1.9 37.2.4 4.6-.4 21.3-1.4 26.9s-1.8 7.6-1.8 7.6 4.3 4.6 9.4 3.9 6.5-2.1 6.5-3.3-.4-11.5-.7-17.2 1.4-14.3 1.9-21.9c.4-7 2.4-17.9 2.4-17.9l-1.4-32.2c-4.1.5-12.8 1.2-12.8 1.2z" opacity=".2"/><path d="m47.1 182.1c1.4 7.7 5 19.3 4.4 27.7-.5 8.4-.9 11.2-.9 11.2s2.9 1.7 6.9 2.6 6.5-2.2 6.5-2.2 1.3-15.8-.9-29-3.9-22.1-4.5-32c-.7-9.9.8-25-2.7-34.9-.6-1.6-2.8-6.8-4.4-7.8-5-3.3-13.1-4.2-19.5-3.4 0 0-.3 19.9.4 22.4.7 2.4 2.7 5.4 4.6 11.2 1.6 4.7 3.4 9.9 5.1 15.7 1.5 5 3.6 11.4 5 18.5z" fill="#cc291f"/><path d="m33.1 64c-2.3-5.8-3.7-21.6-4-25.3s-4.8-20.4-5.9-22.9c-1.2-2.5-4-8.5-4.2-11.2s-.2-2.7-1.4-2.9-1.1 3.9-.6 6.7.5 5.4.5 5.4-1.6-1.9-2.6-1.2.7 2.2 1.2 2.9.5 1.8 1.8 2.3 1.4.1 1.8 1.2.3 9.1.7 14.4 1.2 4.4 1.6 7.4-.1 9.6 1.4 17c1.4 7.4 2.2 10.4 2.2 10.4z" fill="#fbd7c7"/><path d="m34.1 67.3s-8.1 11.9 1.5 13.1 13.6-11.3 13.7-12.1-4.8-9-4.8-9z" fill="#fbd7c7"/><path d="m31.6 62.2s-4.2 2.5-7.2 4c-.3.1 1.1 6.1.4 10.9-.6 4-3.1 6.9-2.6 10.5.7 5 4.1 6.6 4.2 7.7s-1.1 12.2-2 16.6c-1 5.1-4.4 13.3-4.4 13.3s4.7 8.6 16 9.2 21.1-6.6 20.6-8.3c-.9-2.7-4.9-11.9-4.7-16.2s4.4-16.7 5.6-20.5 6-11.5 5.7-14.9c-.2-3.6-3.8-10.6-10-9.3-1.1.2-5.3 2.1-5.3 2.1s-3.7 13.4-11.5 12.2c-6.9-1.1-2.3-11.4-2.3-11.4z" fill="#fc0"/><path d="m43.8 40.1c-3-1.1-7.8-.8-11.9 4.2-3.9 4.8-3.9 11.2-2.8 14.8 2.1 6.5-3.3 7.1-3.3 7.1s2.8 5.2 8.5 2.5c7.1-3.4 14.7-8.1 13.7-16.3s-4.2-12.3-4.2-12.3z" fill="#825012"/><path d="m34.1 48.6s-2.8 1.6-3.1 6.9c-.3 4.9-.3 11.5 2.1 12.9s11.4-2.1 13.1-4.9c1.7-2.7-2-21.4-12.1-14.9z" fill="#fbd7c7"/><path d="m41.8 40.2c5.7-1.1 10.5 3 11.3 10.3s2.2 14.2 5.3 16.1-5.2-4.2-6.8 5.1c-.3 1.4-2.6 3-5.3 3.1-6.1.2-7.7-3-7.7-3s4.8-1.7 4.4-5.7c-.6-6.8-6.4-8.8-7.9-15.5s6.7-10.4 6.7-10.4z" fill="#825012"/><path d="m52.7 69.8s1.7-6.3 3.3-11 4.7-8.6 5-11.2c.4-2.8.4-6.3 1.8-10.8 1.5-4.8 1-8.1.8-8.6s-.4-.7-1.2-1.5-.5-2.1-.7-2.4c-.2-.4-1.2-1.6-.8-2.2s.8-.5 1.5 0 .8 1 .9 1.6c.1.5.3.8.3.8s.2-1.2.5-2.1.5-2.9.5-4.4-.4-4.9.7-5 1 2.8 1 4.1.3 3.7.3 3.7 1.3-3.4 1.7-4.7.6-3.3 1.5-3 .4 2.5-.1 4.2-.8 3.9-.8 3.9 1.2-2.4 1.7-3.6 1.2-3.6 1.9-3.4-.2 3.3-.7 4.6-1 2.8-1 2.8 1.7-1.6 2.1-2.1 1.4-2.2 2-1.9-.6 2.1-1.6 3.3-1.4 2.8-1.8 4.5-2.3 3.4-2.4 4.1-1.1 3.7-.9 8.4.3 10.1-.4 11.9c-.7 1.9-2.4 6-3.8 13.7-1.4 7.6-1.2 9.1-1.7 12.3-.2 1.6-1.4 3.3-3.3 3.3-2-.3-6.6-6.2-6.3-9.3z" fill="#fbd7c7"/><path d="m23.2 90.5s1.3 4.3 13.6 5.2c12.3.8 18.3-4.7 18.3-4.7s-3.9 7.9-17.8 7.1c-12.9-.9-14.1-7.6-14.1-7.6z" opacity=".2"/></svg>