<?xml version="1.0" encoding="UTF-8" standalone="no"?>
<svg
   xmlns:dc="http://purl.org/dc/elements/1.1/"
   xmlns:cc="http://creativecommons.org/ns#"
   xmlns:rdf="http://www.w3.org/1999/02/22-rdf-syntax-ns#"
   xmlns:svg="http://www.w3.org/2000/svg"
   xmlns="http://www.w3.org/2000/svg"
   xmlns:sodipodi="http://sodipodi.sourceforge.net/DTD/sodipodi-0.dtd"
   xmlns:inkscape="http://www.inkscape.org/namespaces/inkscape"
   enable-background="new 0 0 80 240"
   viewBox="0 0 5.6196065 20.654413"
   version="1.1"
   id="svg1180"
   sodipodi:docname="city--woman02.svg"
   width="5.6196065"
   height="20.654413"
   inkscape:version="0.92.2 (5c3e80d, 2017-08-06)">
  <metadata
     id="metadata1186">
    <rdf:RDF>
      <cc:Work
         rdf:about="">
        <dc:format>image/svg+xml</dc:format>
        <dc:type
           rdf:resource="http://purl.org/dc/dcmitype/StillImage" />
        <dc:title></dc:title>
      </cc:Work>
    </rdf:RDF>
  </metadata>
  <defs
     id="defs1184" />
  <sodipodi:namedview
     pagecolor="#ffffff"
     bordercolor="#666666"
     borderopacity="1"
     objecttolerance="10"
     gridtolerance="10"
     guidetolerance="10"
     inkscape:pageopacity="0"
     inkscape:pageshadow="2"
     inkscape:window-width="870"
     inkscape:window-height="480"
     id="namedview1182"
     showgrid="false"
     fit-margin-top="0"
     fit-margin-left="0"
     fit-margin-right="0"
     fit-margin-bottom="0"
     inkscape:zoom="1.2791667"
     inkscape:cx="4.8995044"
     inkscape:cy="16.818673"
     inkscape:window-x="0"
     inkscape:window-y="0"
     inkscape:window-maximized="1"
     inkscape:current-layer="svg1180" />
  <g
     id="g1201"
     transform="matrix(0.1,0,0,0.1,-0.9812266,-2.3219408)">
    <path
       id="path1154"
       d="m 23.5,55.8 c 0,0 -6.9,8.5 -9.2,11.7 -2.1,2.9 -3.9,6 -4.4,7.9 -0.5,1.9 1.2,4.9 3.5,7.2 2.7,2.7 6.8,8.4 8.3,10.8 1.5,2.4 3.1,5.5 3.1,5.5 L 36,92.6 c 0,0 -7.3,-6.6 -9.7,-10 -2.4,-3.3 -5,-6.7 -5,-6.7 l 6.8,-3.5 z"
       inkscape:connector-curvature="0"
       style="fill:#cc291f" />
    <path
       id="path1156"
       d="m 23.5,55.8 c 0,0 -6.9,8.5 -9.2,11.7 -2.1,2.9 -3.9,6 -4.4,7.9 -0.5,1.9 1.2,4.9 3.5,7.2 2.7,2.7 6.8,8.4 8.3,10.8 1.5,2.4 3.1,5.5 3.1,5.5 L 36,92.6 c 0,0 -7.3,-6.6 -9.7,-10 -2.4,-3.3 -5,-6.7 -5,-6.7 l 6.8,-3.5 z"
       inkscape:connector-curvature="0"
       style="opacity:0.15" />
    <path
       id="path1158"
       d="m 47.6,59.6 c 2.9,1.3 12.3,6.7 13,10.6 0.8,3.9 -1.5,9.8 -2,13.8 -1.6,11.8 0.9,20.5 0.9,20.5 0,0 -3.6,2.1 -5.4,2.1 -1.9,-0.1 -6.5,-47 -6.5,-47 z"
       inkscape:connector-curvature="0"
       style="fill:#cc291f" />
    <path
       id="path1160"
       d="m 27.6,206.4 c -9.2,5.6 -9.9,12.4 2,18.7 13,7 20.7,5.5 30.8,-0.4 8.9,-5.1 6.9,-12.1 -8.1,-18.1 -12,-4.8 -18.2,-4.2 -24.7,-0.2 z"
       inkscape:connector-curvature="0"
       style="opacity:0.2" />
    <path
       id="path1162"
       d="m 29.4,96.4 c -2.4,3.1 -11.4,14.1 -8.8,29.7 2.6,15.6 7,23.9 6.3,27.6 -0.7,3.7 -3.6,10.7 -2.9,18.5 0.8,9.6 3.6,19.5 3.8,22.7 0.2,3.2 1.3,6.2 0.4,8.7 -0.9,2.5 -3,4.3 -0.9,6 1.8,1.4 1,-0.6 10.1,2.7 12.1,4.5 9.6,-1.8 3.6,-2.9 -2.1,-0.4 -4.1,-4.7 -4.7,-7.6 -0.3,-1.2 -1.2,-15.7 -0.4,-22.3 0.8,-6.6 0.9,-16.9 0.8,-19.9 -0.1,-3 2.4,-14.3 3.3,-19.8 1.4,-8.4 4,-38.1 4,-38.1 z"
       inkscape:connector-curvature="0"
       style="fill:#fbd7c7" />
    <path
       id="path1164"
       d="m 27.6,204.7 c 0,0 -2.3,2.5 -2.2,4.8 0.1,2.3 1.8,5.6 1.8,6.9 v 3.2 l 1.7,0.9 1.6,-0.8 c 0,0 -0.7,-5.3 0.5,-6.1 1.2,-0.8 4.7,1.9 7.2,2.5 2.5,0.6 8.2,-0.1 10.3,-0.9 2.2,-0.9 0.4,-3.6 -1.5,-4.7 -2.6,-1.4 -6.6,-1.1 -6.6,-1.1 0,0 1.3,0.4 2.8,1.9 2.7,2.7 -4.7,3.2 -11.5,-2.6 -2.7,-2.4 -4.1,-4 -4.1,-4 z"
       inkscape:connector-curvature="0"
       style="fill:#656565" />
    <path
       id="path1166"
       d="m 37.8,100.7 c 0,0 -5.3,12.7 -5.3,18.9 0,6.2 4.1,8.4 4.8,10.4 0.8,2 1,8.4 2.9,16 1.9,7.6 4.2,12.4 2,17.9 -3.5,8.7 -2.9,16.3 -1.8,26.9 1,10.6 0.2,16.6 -0.1,18.4 -0.4,2 -3.5,3 -1.9,5.4 2.2,3.2 8.3,3.6 11,4.9 3.2,1.5 7.2,2 8.1,0.4 0.9,-1.5 0.2,-3.9 -3.4,-3.7 -3,0.1 -5.2,-5 -6.1,-7.2 -0.9,-2.2 1,-9.5 2.6,-21 1.5,-11.5 2.1,-24 2.9,-28.7 0.8,-4.7 3.1,-8.9 3.8,-30.2 0.7,-21.3 -1.6,-27.4 -1.6,-27.4 z"
       inkscape:connector-curvature="0"
       style="fill:#fbd7c7" />
    <path
       id="path1168"
       d="m 39.4,210.4 c 0,0 -2.3,2 -2.3,4.5 0,2.5 2.1,5.3 2.4,7.3 0.3,2 0.2,3.4 0.2,3.4 l 1.9,0.9 1.9,-0.8 c 0,0 -1.6,-5.6 0.1,-6.1 1.6,-0.4 6.7,3.6 9.8,3.6 3.1,0 7.2,-3.9 7.2,-5.3 0,-1.5 -3.4,-3 -5.4,-2.9 -2,0.1 -2.8,0.6 -2.8,0.6 0,0 3,1.3 3.5,2.3 0.4,1 -0.6,1.7 -1.8,2 -2.6,0.5 -5,-1.8 -9.2,-5.1 -3.8,-2.8 -5.5,-4.4 -5.5,-4.4 z"
       inkscape:connector-curvature="0"
       style="fill:#656565" />
    <path
       id="path1170"
       d="m 30.8,95.2 c 0,0 -9.2,9.7 -10.3,18.3 -2.2,17.6 -1.7,49.9 -1.7,49.9 0,0 7.8,7.7 20,7.3 9.7,-0.3 16.6,-3.3 16.6,-3.3 0,0 3,-35.7 2.9,-44.9 -0.1,-8.1 -2.5,-19.7 -2.5,-19.7 0,0 -13,-2 -17.8,-3.8 -4.7,-1.7 -7.2,-3.8 -7.2,-3.8 z"
       inkscape:connector-curvature="0"
       style="fill:#262626" />
    <path
       id="path1172"
       d="m 54.4,65.1 c 0,0 1.5,1.1 0.6,7.5 -1,6.3 -1,19.4 0.8,25.7 1.8,6.3 5.2,20 6.3,22.6 1,2.6 2.3,3.2 2.9,4.2 0.5,0.7 1.3,4.8 0.9,6.2 -0.5,1.4 -2.8,5 -4.7,5.6 -1.9,0.6 -4.3,0.6 -4.6,-0.3 -0.3,-0.9 1.7,-1.2 2,-2.6 0.3,-1.3 0.5,-6 0.5,-7.3 0,-1.2 -1.1,-4.6 -4.9,-10.7 -3.8,-6.2 -7,-11.3 -8.1,-18.1 -1,-6.8 -3.1,-26.4 -2.7,-30.1 0.6,-5.1 7.2,-7.7 11,-2.7 z"
       inkscape:connector-curvature="0"
       style="fill:#fbd7c7" />
    <path
       id="path1174"
       d="m 34.5,53.3 c -3.5,-0.2 -8.1,-0.7 -10.3,1.5 -2.2,2.2 -2.8,4.6 -1.6,9 1.2,4.4 8.1,21.8 7.5,25.4 -1.2,7.7 -5.9,13 -5.9,13 0,0 3.7,2.4 13.3,3.6 2.6,0.3 9.3,0.8 9.3,0.8 0,0 2.2,7.3 2.7,9.2 1.4,5.3 1.8,10.1 1.8,10.1 0,0 5.4,1.4 8.9,-0.9 2.2,-1.4 3.7,-3.2 3.4,-4 -0.3,-0.8 -3,-8.7 -4.3,-13.1 -1.3,-4.4 -4.8,-18.3 -4.7,-25 0.1,-6.6 3.5,-13.8 -0.1,-18.5 -3.6,-4.7 -12,-8.6 -12,-8.6 z"
       inkscape:connector-curvature="0"
       style="fill:#cc291f" />
    <path
       id="path1176"
       d="m 44.5,26.3 c 3.3,1.2 4.6,4 5.1,10 0.5,6 -0.2,9.7 -0.6,10.8 -0.5,1 -4.1,2.2 -5,3.8 -0.9,1.5 -1.6,4.7 -1.1,5.3 0.9,1.2 1.7,1.2 1.7,1.2 0,0 -8.3,2 -11.2,0.7 -2.9,-1.3 -2.8,-3 -2.3,-3.6 0.6,-0.7 1.6,-3.4 1.1,-5 C 31.6,48 24.8,41.8 26.9,34.6 29.6,26 37.8,23.9 44.5,26.3 Z"
       inkscape:connector-curvature="0"
       style="fill:#fbd7c7" />
    <path
       id="path1178"
       d="m 43.3,51.2 c 2.5,-1.4 4.8,-9.9 4.8,-9.9 0,0 0.6,1.1 0.7,4.2 1.6,-1.1 3.2,-13.2 -1.5,-17.3 -8.7,-7.7 -16.3,-4.9 -18.9,-2 2.7,-1 3.3,-0.5 3.4,-0.6 0,0 -8.3,2.4 -9.5,11.2 -1.1,7.9 2.4,12 4.1,13.7 0,-1.1 0.4,-3.3 0.4,-3.3 0,0 0.3,8 6.5,9.7 8.2,-2.5 9.2,-10.4 9.2,-10.4 0,0 1,1.4 0.8,4.7 z"
       inkscape:connector-curvature="0"
       style="fill:#825012" />
  </g>
</svg>
