<?xml version="1.0" encoding="UTF-8" standalone="no"?>
<svg
   xmlns:dc="http://purl.org/dc/elements/1.1/"
   xmlns:cc="http://creativecommons.org/ns#"
   xmlns:rdf="http://www.w3.org/1999/02/22-rdf-syntax-ns#"
   xmlns:svg="http://www.w3.org/2000/svg"
   xmlns="http://www.w3.org/2000/svg"
   xmlns:sodipodi="http://sodipodi.sourceforge.net/DTD/sodipodi-0.dtd"
   xmlns:inkscape="http://www.inkscape.org/namespaces/inkscape"
   enable-background="new 0 0 80 240"
   viewBox="0 0 7.6319723 21.007973"
   version="1.1"
   id="svg1955"
   sodipodi:docname="city--woman10.svg"
   width="7.6319723"
   height="21.007973"
   inkscape:version="0.92.2 (5c3e80d, 2017-08-06)">
  <metadata
     id="metadata1961">
    <rdf:RDF>
      <cc:Work
         rdf:about="">
        <dc:format>image/svg+xml</dc:format>
        <dc:type
           rdf:resource="http://purl.org/dc/dcmitype/StillImage" />
        <dc:title></dc:title>
      </cc:Work>
    </rdf:RDF>
  </metadata>
  <defs
     id="defs1959" />
  <sodipodi:namedview
     pagecolor="#ffffff"
     bordercolor="#666666"
     borderopacity="1"
     objecttolerance="10"
     gridtolerance="10"
     guidetolerance="10"
     inkscape:pageopacity="0"
     inkscape:pageshadow="2"
     inkscape:window-width="870"
     inkscape:window-height="480"
     id="namedview1957"
     showgrid="false"
     fit-margin-top="0"
     fit-margin-left="0"
     fit-margin-right="0"
     fit-margin-bottom="0"
     inkscape:zoom="1.2791667"
     inkscape:cx="4.0578728"
     inkscape:cy="20.38903"
     inkscape:window-x="0"
     inkscape:window-y="0"
     inkscape:window-maximized="1"
     inkscape:current-layer="svg1955" />
  <g
     id="g1979"
     transform="matrix(0.1,0,0,0.1,-0.15982518,-2.4845175)">
    <path
       id="path1923"
       d="m 7.5,232.9 c -15.6,-7.6 2.8,-16.8 19.6,-21.6 14.9,-4.2 29.5,-20.9 46.5,-10.1 13.7,8.7 -8.4,16.6 -21.8,21.4 -18.9,6.8 -31.3,16.6 -44.3,10.3 z"
       inkscape:connector-curvature="0"
       style="opacity:0.2" />
    <path
       id="path1925"
       d="m 14.4,125.5 c 0.2,6.2 -0.2,31.5 -0.9,35.1 -0.8,3.6 -4,10.5 -4,21 0,8.4 0,19.5 -0.9,25.2 -0.9,5.7 -3,8.4 -1.2,10.1 1.9,1.7 2.9,3 6.5,2.8 3.6,-0.2 4,0.2 6.5,1.5 2.5,1.3 9,0.5 9.4,-1.8 0.4,-2.3 -7.4,-1.3 -9.1,-4.1 -1.7,-2.8 -3.2,-8.7 -2.3,-14.9 0.9,-6.2 8.8,-23 8.1,-26.7 -0.7,-3.7 6.4,-17.6 9.6,-24.5 3.2,-6.9 -7.3,-31.5 -7.3,-31.5 l -10.5,-4.5 c 0.1,0 -4.1,5.4 -3.9,12.3 z"
       inkscape:connector-curvature="0"
       style="fill:#fbd7c7" />
    <path
       id="path1927"
       d="m 7.2,211.2 c 0,0 3,1.4 5,2.2 2.6,1.2 7.6,-0.8 7.6,-0.8 0,0 0.9,1.5 2.2,1.8 1.4,0.3 5.9,0.2 7.2,0.4 1.5,0.2 4.9,2 2.9,4.3 -1.9,2.1 -6.1,4.1 -10.6,3.5 -2.6,-0.3 -7.2,-1.8 -8.4,-1.4 -1.2,0.4 -0.5,4.4 -0.5,4.4 l -2,1 -2.4,-1.2 c 0,0 0,-1.4 -0.3,-3 -0.4,-1.6 -2.1,-2.3 -2.1,-5.2 0,-2.9 1.4,-6 1.4,-6 z"
       inkscape:connector-curvature="0"
       style="fill:#e5e5e5" />
    <path
       id="path1929"
       d="m 32.1,219.1 c 0.6,-0.7 0.7,-1.4 0.5,-1.9 -1.8,2.7 -7,5.3 -14,3.5 -4.8,-1.2 -7.9,-1 -12.9,-2.9 0.2,2.5 1.7,3.2 2.1,4.7 0.4,1.6 0.3,3 0.3,3 l 2.4,1.2 2,-1 c 0,0 -0.7,-4 0.5,-4.4 1.2,-0.4 5.8,1.1 8.4,1.4 4.6,0.5 8.8,-1.4 10.7,-3.6 z"
       inkscape:connector-curvature="0"
       style="opacity:0.4" />
    <path
       id="path1931"
       d="m 31.2,107.2 c 0,0 -4.7,7.3 -2.9,14 1.8,6.6 3.7,8.3 3.7,8.3 0,0 0.9,9.2 2.1,12.5 1.2,3.3 5.9,12.5 6.5,14.3 2.9,7.8 1,11.1 1.4,17.5 0.4,6.3 3.6,11 5.7,16 2.1,4.9 2.8,6.4 1.8,9 -1,2.6 -3.4,7.1 0.8,8.6 4.2,1.5 6.3,-0.1 9.3,2 3,2.1 7.9,2.8 9.8,0.5 1.9,-2.3 -3,-3.3 -3.7,-3.5 -0.7,-0.2 -4.3,-4.4 -5.1,-9.6 -0.9,-5.8 -2,-12.6 -2.4,-18.9 -0.3,-5.5 -1.3,-12 -1,-14.3 0.3,-2.3 2.2,-13.7 2.2,-22.4 0,-8.7 -5.6,-28 -5.6,-28 z"
       inkscape:connector-curvature="0"
       style="fill:#fbd7c7" />
    <path
       id="path1933"
       d="m 49.3,199.1 c 0,0 3.2,1.2 5.7,2.3 1.5,0.6 4.5,0.5 5.4,0.3 0.9,-0.3 2,-0.7 2,-0.7 0,0 1.3,3.5 2.2,3.8 0.9,0.3 4.3,-0.7 6,1.1 1.8,1.8 1.3,2.8 0.4,3.9 -0.9,1 -4.4,3.5 -7,3 -1.9,-0.4 -7.8,-2.7 -9.1,-2.5 -1.2,0.3 -0.7,4.6 -0.7,4.6 L 52,216 50,215 c 0,0 -0.1,-2.1 -0.7,-3.6 -0.7,-1.4 -1.9,-3.1 -1.9,-6.1 0,-3 1.9,-6.2 1.9,-6.2 z"
       inkscape:connector-curvature="0"
       style="fill:#e5e5e5" />
    <path
       id="path1935"
       d="m 71.8,207.6 c -0.1,1.9 -5.3,4.8 -7.6,4.1 -6.9,-2 -12.5,-3.9 -16.8,-6.3 0,3 1.2,4.6 1.9,6 0.7,1.4 0.7,3.6 0.7,3.6 l 2,1 2.3,-1.1 c 0,0 -0.6,-4.3 0.7,-4.6 1.2,-0.3 7.1,2.1 9.1,2.5 2.6,0.5 6.2,-2 7,-3 0.5,-0.7 0.9,-1.4 0.7,-2.2 z"
       inkscape:connector-curvature="0"
       style="opacity:0.4" />
    <path
       id="path1937"
       d="m 16.1,112.2 c -1.2,2.9 -3.7,9 -3.1,16.6 0.6,7.6 -0.2,27.9 -0.6,30.9 -0.4,2.9 -3.7,16.4 -3.9,27 -0.1,7.2 -0.4,10 -0.4,10 0,0 2.5,1.8 6.6,1.8 4.1,0 6.8,-0.6 6.8,-0.6 0,0 6.1,-18.9 6.3,-22.3 0.2,-3.4 0,-6.6 2.1,-11.5 2.1,-4.9 6.4,-10.5 7.8,-20.3 1.4,-9.8 -1.6,-28.7 -1.6,-28.7 z"
       inkscape:connector-curvature="0"
       style="fill:#993399" />
    <path
       id="path1939"
       d="m 16.1,112.2 c -1.2,2.9 -3.7,9 -3.1,16.6 0.6,7.6 -0.2,27.9 -0.6,30.9 -0.4,2.9 -3.7,16.4 -3.9,27 -0.1,7.2 -0.4,10 -0.4,10 0,0 2.5,1.8 6.6,1.8 4.1,0 6.8,-0.6 6.8,-0.6 0,0 6.1,-18.9 6.3,-22.3 0.2,-3.4 0,-6.6 2.1,-11.5 2.1,-4.9 6.4,-10.5 7.8,-20.3 1.4,-9.8 -1.6,-28.7 -1.6,-28.7 z"
       inkscape:connector-curvature="0"
       style="opacity:0.15" />
    <path
       id="path1941"
       d="m 54.6,114.6 c 0,0 5.9,18.2 5.5,28.7 -0.4,10.5 -2.3,18.2 -2.1,19.9 0.2,1.8 2.7,23.8 2.7,23.8 0,0 -3.1,1.8 -6.1,2.3 -2.9,0.6 -8.6,1 -8.6,1 0,0 -4.3,-8.6 -5.5,-16.4 -1.2,-7.8 0.8,-10.5 -0.8,-15.8 C 38.1,152.8 29.2,137 28.6,128.2 28,119.4 27.4,113.4 27.4,113.4 Z"
       inkscape:connector-curvature="0"
       style="fill:#993399" />
    <path
       id="path1943"
       d="m 17.7,65.8 c 0,0 -3.7,12.9 -3.7,15.6 0,2.7 5.4,15.8 5.8,16.7 C 20.2,99 25,94 25,94 c 0,0 -3,-8.3 -3,-10.7 0,-2.3 1.8,-8.2 1.8,-8.2 z"
       inkscape:connector-curvature="0"
       style="fill:#fbd7c7" />
    <path
       id="path1945"
       d="M 33.9,53.4 C 32.6,53.2 25,50 21.2,51.9 c -2.7,1.3 -3.9,3.6 -4,5.7 -0.1,1.7 0.4,5.9 -0.2,8.3 -0.3,1.3 -0.9,4 -0.9,4 l 2.4,1.7 c 0,0 1,8.4 0.4,14.8 -0.6,6.4 -3.4,15.4 -5,20.3 -1.9,5.8 -3.3,15.8 -2.1,23.9 0.9,6.1 47.4,9.8 47.4,1.8 0,-2.8 0,-2.1 -0.1,-4.4 -0.6,-14.8 -3.9,-38 -2.3,-40.8 1.7,-2.8 4,-7.2 1,-11.9 -3,-4.7 -5.6,-6.6 -5.9,-7.6 -0.3,-1 -0.2,-3 -2.3,-5.1 -2.4,-2.4 -8.6,-8 -15.7,-9.2 z"
       inkscape:connector-curvature="0"
       style="fill:#baa794" />
    <path
       id="path1947"
       d="m 56.1,84 c -3.2,1.3 -7.5,0.3 -7.5,0.3 0,0 -0.2,3.5 -0.2,5.6 0,1.2 0.1,3 0.1,3 0,0 5.5,-3 8.4,-5.5 0,0 0,-0.1 0.1,-0.1 0.9,-1.5 1.9,-3.4 2.3,-5.6 -0.9,0.8 -1.9,1.8 -3.2,2.3 z"
       inkscape:connector-curvature="0"
       style="opacity:0.15" />
    <path
       id="path1949"
       d="m 37.3,82.7 c 0,0 4.3,0.5 6.9,0.4 C 47,83 49,82.5 49,82.5 c 0,0 -0.2,4.5 -0.4,8.5 -0.3,6 -1.2,9.8 -0.7,13 0.8,4.8 5.4,11.2 6.6,13.7 1.2,2.5 3.8,8.3 5.2,10 1.4,1.7 5.3,5.4 5.4,6.9 0.1,2.1 0,5.4 -3.3,6.8 -0.8,0.4 -3.5,1.1 -4.9,-0.3 -0.7,-0.6 2.3,-2.9 2.3,-3.3 0,-0.2 -1.6,-1.9 -1.8,-3.3 -0.4,-1.9 -2.6,-3.9 -4.5,-6 -2.7,-2.9 -11.1,-11.6 -12.6,-15.4 -1.6,-3.8 -2.8,-12.9 -3,-19.3 -0.2,-6.1 0,-11.1 0,-11.1 z"
       inkscape:connector-curvature="0"
       style="fill:#fbd7c7" />
    <path
       id="path1951"
       d="m 32.7,27.3 c 6.8,-1.6 14.3,0.7 15.5,10.3 1.2,9.6 -1,11.7 -2.1,12.4 -1.1,0.7 -2.4,3.3 -2.9,4.9 -0.5,1.6 0.2,2.6 0.2,2.6 0,0 -7.7,4.5 -12.3,2.7 -4,-1.5 -4.4,-3.5 -2.8,-6.6 1.6,-3.1 -2.3,-5 -3.5,-9.6 -1.3,-4.6 -1.2,-14.7 7.9,-16.7 z"
       inkscape:connector-curvature="0"
       style="fill:#fbd7c7" />
    <path
       id="path1953"
       d="m 41.5,25.3 c 3.5,1.1 6.3,6 6.3,6 l -2.6,-1.5 2.5,3.7 -2.3,-1.6 2.2,5 -1.3,-0.7 c 0,0 0.8,1.8 0.3,4.6 -0.3,1.9 -1.3,3.4 -1.3,3.4 v -3.4 c 0,0 -0.3,4.3 -2.5,7.3 0,0 1,-4.4 0.6,-5.2 -0.4,-0.7 -0.9,1.6 -0.9,1.6 l -0.7,-2 -0.4,2.1 -1.7,-0.9 c 0,0 0.6,2.2 -1.1,5.6 -1,2 -3.9,4.8 -3.9,4.8 l 0.9,-4.3 -3.8,6.2 -0.9,-3.4 -0.6,2.4 -0.6,-1.7 -0.8,1.9 c 0,0 -0.9,-3.6 -1.3,-4.4 -0.3,-0.7 -0.8,0.7 -0.8,0.7 L 25,47 24.3,48.3 23.5,42.9 22.9,44 22.3,38.5 21.2,39.7 c 0,0 0.2,-5.4 1.9,-7.7 1.2,-1.7 2.4,-1.9 2.4,-1.9 L 23.8,30 c 0,0 2.6,-3.8 7,-4.4 3.6,-0.5 4,0.3 4,0.3 0,0 2.5,-1.9 6.7,-0.6 z"
       inkscape:connector-curvature="0"
       style="fill:#2d3134" />
  </g>
</svg>
