<?xml version="1.0" encoding="UTF-8" standalone="no"?>
<svg
   xmlns:dc="http://purl.org/dc/elements/1.1/"
   xmlns:cc="http://creativecommons.org/ns#"
   xmlns:rdf="http://www.w3.org/1999/02/22-rdf-syntax-ns#"
   xmlns:svg="http://www.w3.org/2000/svg"
   xmlns="http://www.w3.org/2000/svg"
   xmlns:sodipodi="http://sodipodi.sourceforge.net/DTD/sodipodi-0.dtd"
   xmlns:inkscape="http://www.inkscape.org/namespaces/inkscape"
   enable-background="new 0 0 160 240"
   viewBox="0 0 7.0880284 18.122713"
   version="1.1"
   id="svg2342"
   sodipodi:docname="city--woman14.svg"
   width="7.0880284"
   height="18.122713"
   inkscape:version="0.92.2 (5c3e80d, 2017-08-06)">
  <metadata
     id="metadata2348">
    <rdf:RDF>
      <cc:Work
         rdf:about="">
        <dc:format>image/svg+xml</dc:format>
        <dc:type
           rdf:resource="http://purl.org/dc/dcmitype/StillImage" />
        <dc:title></dc:title>
      </cc:Work>
    </rdf:RDF>
  </metadata>
  <defs
     id="defs2346" />
  <sodipodi:namedview
     pagecolor="#ffffff"
     bordercolor="#666666"
     borderopacity="1"
     objecttolerance="10"
     gridtolerance="10"
     guidetolerance="10"
     inkscape:pageopacity="0"
     inkscape:pageshadow="2"
     inkscape:window-width="870"
     inkscape:window-height="480"
     id="namedview2344"
     showgrid="false"
     fit-margin-top="0"
     fit-margin-left="0"
     fit-margin-right="0"
     fit-margin-bottom="0"
     inkscape:zoom="1.2791667"
     inkscape:cx="-9.9076037"
     inkscape:cy="31.367201"
     inkscape:window-x="0"
     inkscape:window-y="0"
     inkscape:window-maximized="1"
     inkscape:current-layer="svg2342" />
  <g
     id="g2363"
     transform="matrix(0.1,0,0,0.1,-5.8011477,-5.1692287)">
    <path
       id="path2316"
       d="m 66.6,209.3 c -11.2,7.2 -11.7,13.7 0,19.9 12.8,6.9 21.3,3.1 31.3,-2.5 10,-5.6 11.2,-12.7 -3.5,-18.6 -11.9,-4.7 -19.4,-4.2 -27.8,1.2 z"
       inkscape:connector-curvature="0"
       style="opacity:0.2" />
    <path
       id="path2318"
       d="m 67.6,177.1 c 0.5,6 1.5,16 1.2,22.4 -0.3,7 -1.1,11 -2,15 -0.9,4.2 -6.2,7.7 -2.4,8.7 3.8,0.9 8.8,-0.9 10.2,-5.1 1.4,-4.2 7,-9.6 7.5,-11.4 0.5,-1.8 -3.8,-4.5 -3.9,-7.5 -0.1,-3 0.8,-9.3 2.4,-14.6 1.6,-5.3 0.8,-7.9 0.8,-7.9 z"
       inkscape:connector-curvature="0"
       style="fill:#fbd7c7" />
    <path
       id="path2320"
       d="m 67.8,206.6 c 0,0 5,1.4 7.7,-0.4 2.6,-1.8 3.5,-5.1 3.5,-5.1 0,0 3,2.1 3.5,5.1 0.5,3 -1.3,9.3 -1.3,9.3 l -2,2 -3.1,-1 c 0,0 -1.1,5.7 -4.3,7.5 -3.5,1.9 -9.8,1 -10.2,-0.8 -0.7,-3.2 2.4,-4.2 3.7,-6.3 1.3,-2.1 2.5,-10.3 2.5,-10.3 z"
       inkscape:connector-curvature="0"
       style="fill:#baa794" />
    <path
       id="path2322"
       d="m 61.6,222.6 c 0,0.2 0,0.4 0.1,0.6 0.4,1.8 6.7,2.7 10.2,0.8 3.3,-1.8 4.3,-7.5 4.3,-7.5 l 3.1,1 2,-2 c 0,0 1.3,-4.6 1.4,-7.9 -0.4,0.8 -1.1,1.5 -2.1,2.1 -3.4,2 -3.9,3.3 -5.1,6.7 -1.1,3 -1.6,6.1 -5.7,7.2 -2.5,0.8 -6.3,0.3 -8.2,-1 z"
       inkscape:connector-curvature="0"
       style="opacity:0.4" />
    <path
       id="path2324"
       d="m 82.2,179.9 c 0,2 1.6,16.8 1.2,22 -0.4,5.2 -1.1,12.5 -3.2,16.4 -2.1,3.9 -7.1,6.8 -4.2,8.4 2.9,1.6 10.1,1.8 12.2,-2.8 2.1,-4.6 8,-12.5 6.7,-14.6 -1.3,-2.1 -3.5,-4.3 -2.4,-10.2 1.2,-5.9 4.7,-14.6 5.1,-16.9 0.3,-2.3 -15.4,-2.3 -15.4,-2.3 z"
       inkscape:connector-curvature="0"
       style="fill:#fbd7c7" />
    <path
       id="path2326"
       d="m 80.3,100.5 4.5,2 c 0,0 -2.4,3.5 -2.2,8.1 0.2,4.6 3.5,5.2 3.1,11.4 -0.4,6.2 -2.6,8.8 -4.7,11.9 -1.9,2.8 -14,13.3 -15,18.4 -1.4,7.1 -0.5,32.3 0,33.2 0.5,0.9 10.6,5.1 20.1,6.6 9.6,1.4 14.8,-3.7 14.8,-3.7 0,0 1.7,-13.9 2,-16.5 0.3,-2.6 0.3,-4.5 5.1,-5.9 4.9,-1.4 18.4,-6 20.3,-17.7 2,-11.7 -1.5,-19.7 -4.1,-25.5 -2.6,-5.8 0.2,-23.5 -0.5,-27.8 -0.7,-4.3 -3,-7.1 -9.4,-9.6 -5.7,-2.3 -13.1,-4.1 -18.5,-4.3 -5.4,-0.3 -11.7,-1.5 -13.4,7.1 -1.4,8.1 -2.1,12.3 -2.1,12.3 z"
       inkscape:connector-curvature="0"
       style="fill:#825012" />
    <path
       id="path2328"
       d="m 110.7,108.8 10,0.6 c 0,0 -0.8,16.5 -1.2,18.5 -0.4,2 -2,4.5 -6.3,11 -3.8,5.8 -12.6,13.8 -13.4,15.7 -0.8,2 -2.1,4 -4.5,4.9 -2.4,0.9 -3.3,1.6 -4.4,3 -1,1.3 -2.8,3 -5.8,2.2 -3,-0.8 -4.1,-2.8 -2.3,-5.1 1.8,-2.4 3.5,-6 5.2,-6.5 1.7,-0.5 5.1,-0.8 5.9,-1.2 1.2,-0.6 5.2,-5.9 6.7,-9.8 3.3,-9.1 9.3,-13.8 9.8,-16.9 0.6,-3.1 0.3,-16.4 0.3,-16.4 z"
       inkscape:connector-curvature="0"
       style="fill:#fbd7c7" />
    <path
       id="path2330"
       d="m 110.9,117.3 -0.4,-12.2 c 0,0 -3.8,13.5 -10.2,12.2 -6.4,-1.3 -5.9,-13.8 -5.9,-13.8 0,0 -3.3,8.8 -7.9,9.4 -1.8,0.3 -2.9,-0.1 -3.6,-0.6 0.6,2.3 2.1,3.6 2.7,6.3 3.6,1.3 7.3,-4.9 7.3,-4.9 0,0 0.5,8.3 7.5,8.7 6.8,0.4 10.5,-5.1 10.5,-5.1 z"
       inkscape:connector-curvature="0"
       style="opacity:0.15" />
    <path
       id="path2332"
       d="m 81.8,211.7 c 0,0 3.8,1.4 6.2,0 2.4,-1.4 4.7,-6.7 4.7,-6.7 0,0 2.8,1.2 2.8,5.1 -0.1,3.9 -0.7,4.7 -0.7,6.4 0,1.7 0.3,3 0.3,3 l -1.6,1.6 -3.1,-0.8 c 0,0 -1.1,6.1 -4,8 -3.9,2.7 -10.5,1.4 -12.3,-0.5 -1,-1.1 -0.8,-3.3 1.7,-5 2.4,-1.7 4.5,-5.2 4.9,-6.7 0.4,-1.6 1.1,-4.4 1.1,-4.4 z"
       inkscape:connector-curvature="0"
       style="fill:#baa794" />
    <path
       id="path2334"
       d="m 90.4,220.3 3.1,0.8 1.6,-1.6 c 0,0 -0.3,-1.3 -0.3,-3 0,-1.6 0.6,-2.4 0.7,-6.4 0,-0.1 0,-0.2 0,-0.4 -1.1,3 -3,4.4 -5.1,8.2 -1.9,3.5 -1.2,7.9 -6.3,10.2 -3.6,1.7 -8.8,-0.3 -10.4,-1.4 0.1,0.4 0.3,0.7 0.5,0.9 1.8,1.9 8.4,3.1 12.3,0.5 2.8,-1.7 3.9,-7.8 3.9,-7.8 z"
       inkscape:connector-curvature="0"
       style="opacity:0.4" />
    <path
       id="path2336"
       d="m 105.8,55.4 c -6.7,-1.8 -13,1.8 -14.2,10.2 -1.2,8.4 0.1,16 2.4,17.7 2.3,1.7 2.9,3.7 2.8,5.5 -0.1,1.8 -0.8,4.3 -0.8,4.3 0,0 9.1,-4.2 12.2,-5.1 3.1,-0.9 5,-1.8 5,-1.8 0,0 -3.7,-4 -3.4,-8.1 0.1,-1.9 9.5,-19 -4,-22.7 z"
       inkscape:connector-curvature="0"
       style="fill:#fbd7c7" />
    <path
       id="path2338"
       d="m 91.2,64.1 c 0.9,1.3 9.4,-0.8 10.2,2 2.2,7.2 6.8,7.3 6.8,7.3 0,0 1,-3.1 2.3,-2.6 1.3,0.5 0.7,2.2 0.2,3.7 -0.6,1.6 -1.3,2.8 0.2,3 3,0.5 8,-11 5.5,-17.5 -2.5,-6.6 -8.3,-6.1 -8.3,-6.1 0,0 -6.1,-4.9 -12.3,-0.1 -5.9,4.5 -5.4,9.1 -4.6,10.3 z"
       inkscape:connector-curvature="0"
       style="fill:#999999" />
    <path
       id="path2340"
       d="m 80.9,100.8 3.8,1.6 c 0,0 -2.4,6.3 -2,8.8 0.5,2.7 2.1,5.4 2.1,5.4 0,0 0.6,1.1 -0.1,4.5 -0.4,1.8 -1.1,6.2 -3.1,11.4 -2.1,5.2 -5.1,10 -5.3,11.7 -0.1,1.7 -0.4,2.1 -1.6,3.5 -1.2,1.4 -2.9,1.4 -3.1,2.4 -0.2,1 0.1,3.9 -0.8,5.1 -0.9,1.2 -4.4,1.3 -4.8,1 -0.4,-0.3 -1.9,-6.7 -1.1,-8.1 0.8,-1.4 4.5,-2.5 5.1,-3.9 0.7,-1.4 3.3,-11.3 4.1,-15.3 0.8,-3.9 1.4,-10.4 3.5,-15.4 2.1,-4.9 3.3,-12.7 3.3,-12.7 z"
       inkscape:connector-curvature="0"
       style="fill:#fbd7c7" />
  </g>
</svg>
