<?xml version="1.0" encoding="UTF-8" standalone="no"?>
<svg
   xmlns:dc="http://purl.org/dc/elements/1.1/"
   xmlns:cc="http://creativecommons.org/ns#"
   xmlns:rdf="http://www.w3.org/1999/02/22-rdf-syntax-ns#"
   xmlns:svg="http://www.w3.org/2000/svg"
   xmlns="http://www.w3.org/2000/svg"
   xmlns:sodipodi="http://sodipodi.sourceforge.net/DTD/sodipodi-0.dtd"
   xmlns:inkscape="http://www.inkscape.org/namespaces/inkscape"
   enable-background="new 0 0 80 240"
   viewBox="0 0 6.6242504 19.013699"
   version="1.1"
   id="svg398"
   sodipodi:docname="city--basicwoman07.svg"
   width="6.6242504"
   height="19.013699"
   inkscape:version="0.92.2 (5c3e80d, 2017-08-06)">
  <metadata
     id="metadata404">
    <rdf:RDF>
      <cc:Work
         rdf:about="">
        <dc:format>image/svg+xml</dc:format>
        <dc:type
           rdf:resource="http://purl.org/dc/dcmitype/StillImage" />
        <dc:title></dc:title>
      </cc:Work>
    </rdf:RDF>
  </metadata>
  <defs
     id="defs402" />
  <sodipodi:namedview
     pagecolor="#ffffff"
     bordercolor="#666666"
     borderopacity="1"
     objecttolerance="10"
     gridtolerance="10"
     guidetolerance="10"
     inkscape:pageopacity="0"
     inkscape:pageshadow="2"
     inkscape:window-width="880"
     inkscape:window-height="480"
     id="namedview400"
     showgrid="false"
     fit-margin-top="0"
     fit-margin-left="0"
     fit-margin-right="0"
     fit-margin-bottom="0"
     inkscape:zoom="1.2791667"
     inkscape:cx="10.326924"
     inkscape:cy="28.775082"
     inkscape:window-x="0"
     inkscape:window-y="0"
     inkscape:window-maximized="1"
     inkscape:current-layer="svg398" />
  <g
     id="g418"
     transform="matrix(0.1,0,0,0.1,-0.37727435,-4.4199739)">
    <path
       id="path374"
       d="m 68.7,82.7 c -0.8,4.9 -1.3,11.8 -1.3,14.8 0,3 0.7,5.9 0,8.9 -0.7,3 -5.9,14.2 -6.1,16.7 -0.2,2.5 -1,6.8 -2.1,7.7 -1.1,0.9 -6.5,-0.8 -6.4,-3.1 0.1,-2.3 2.1,-3.7 3.6,-6.3 1.3,-2.3 1.8,-7 2.5,-10.2 0.9,-3.7 1.9,-5 1.8,-9.3 -0.1,-4.3 0.2,-20.5 0.2,-20.5 z"
       inkscape:connector-curvature="0"
       style="fill:#fbd7c7" />
    <path
       id="path376"
       d="M 63.6,233.5 C 78.5,227.9 64.8,216.4 49.4,212 35.8,208.1 21.7,193.1 8.1,201.1 c -12.8,7.6 5.7,16.6 17.9,20.9 17.4,6.3 28,15.1 37.6,11.5 z"
       inkscape:connector-curvature="0"
       style="opacity:0.2;fill:#262626" />
    <path
       id="path378"
       d="m 66.5,224.1 c 0.3,1.4 0.8,3.5 -0.1,4.3 -1.3,1 -7.9,1.2 -13.2,0.4 -2.6,-0.4 -5.8,-1.9 -6.3,-3.1 -0.5,-1.3 -0.3,-2.4 0.3,-2.8 0.6,-0.4 19.3,1.2 19.3,1.2 z"
       inkscape:connector-curvature="0"
       style="fill:#2d3134" />
    <path
       id="path380"
       d="m 66.9,226.8 c -1.8,2 -12.8,0.9 -15.1,0.2 -1.4,-0.4 -4.6,-1.4 -4.9,-2.9 -0.2,-0.9 -0.7,-3.1 2.1,-4.1 2.8,-1.1 11.6,1 11.6,1 0,0 4.6,1.4 6.1,3.2 0.4,0.6 0.5,2.2 0.2,2.6 z"
       inkscape:connector-curvature="0"
       style="fill:#ffffff" />
    <path
       id="path382"
       d="m 9.1,205.6 c 0.4,1.9 2.8,3.2 5.1,3.4 3.3,0.2 7.4,-2 10.7,-2.8 2.3,-0.6 3.6,-1.5 3.9,-2.4 0.3,-0.8 0.5,-2.7 -0.2,-2.9 -0.8,-0.1 -18.2,0.2 -18.3,0.7 -0.2,0.6 -1.6,2.1 -1.2,4 z"
       inkscape:connector-curvature="0"
       style="fill:#2d3134" />
    <path
       id="path384"
       d="m 27.8,203.1 c -2.9,2 -5.2,1.7 -8.3,2.9 -2.5,1 -3.7,1.5 -6.4,1.2 -1.4,-0.2 -3.5,-1.1 -4,-2.7 -0.2,-0.9 0.4,-3.4 2.4,-4.1 2,-0.7 3.8,-0.3 6.3,-0.8 2.6,-0.5 14.8,0.3 10,3.5 z"
       inkscape:connector-curvature="0"
       style="fill:#ffffff" />
    <path
       id="path386"
       d="m 55.5,120.9 c 3.6,5.8 4.8,5.8 4.8,17.3 0,11.5 -7.1,28.8 -4.6,33 4.7,8.3 7.6,15.7 9.9,32.4 2.3,16.4 1.4,21.4 1.4,21.4 0,0 -2.3,2.1 -8.1,1.5 -4.8,-0.5 -5.7,-2 -6,-3.8 -0.4,-2.4 2.2,-8.2 1,-14.1 C 52.6,202.7 48.4,187.5 46,183.2 43.3,178.6 42.1,176 41.1,166.4 40,156.7 36,129.3 36,129.3 Z"
       inkscape:connector-curvature="0"
       style="fill:#cc291f" />
    <path
       id="path388"
       d="m 55.5,120.9 c 3.6,5.8 4.8,5.8 4.8,17.3 0,11.5 -7.1,28.8 -4.6,33 4.7,8.3 7.6,15.7 9.9,32.4 2.3,16.4 1.4,21.4 1.4,21.4 0,0 -2.3,2.1 -8.1,1.5 -4.8,-0.5 -5.7,-2 -6,-3.8 -0.4,-2.4 2.2,-8.2 1,-14.1 C 52.6,202.7 48.4,187.5 46,183.2 43.3,178.6 42.1,176 41.1,166.4 40,156.7 36,129.3 36,129.3 Z"
       inkscape:connector-curvature="0"
       style="opacity:0.2" />
    <path
       id="path390"
       d="m 52.3,124.3 c 0,0 1.9,6.9 0.2,14.1 -1.7,7.2 -21.8,20.2 -22.4,23 -0.6,2.7 0.8,9.9 -0.2,16.2 -0.9,5.7 -1.4,13.1 -1.5,17.6 -0.1,2.9 1.3,6.2 0.1,7.5 -1.3,1.5 -6.1,1.9 -8.5,2.1 -5,0.4 -5.1,-3.1 -5.1,-3.1 0,0 1.1,-4.6 1.2,-8.7 0,-4.2 0.3,-26.9 0.2,-31 -0.1,-4.1 1.5,-15.3 5.9,-23.3 4.5,-8 8.7,-14.9 13,-15 4.3,-0.2 17.1,0.6 17.1,0.6 z"
       inkscape:connector-curvature="0"
       style="fill:#cc291f" />
    <path
       id="path392"
       d="m 26.4,131.2 c 0,0 9.8,2 20.1,0.6 10.2,-1.4 13,-2.5 13.3,-3.1 -0.3,-1.4 -4,-9.1 -3.3,-13.3 0.7,-4.2 9.8,-30.9 9.8,-30.9 0,0 2.4,-1.3 2.5,-2.1 0.1,-0.9 1.1,-8 -7.1,-8.4 -8.1,-0.4 -22.2,2.4 -26.6,3.7 -4.4,1.3 -8.8,1.7 -10.5,6.4 -1.6,4.6 -0.5,6 -0.5,6 0,0 1.7,1.3 3.4,1.4 1.8,0.1 3.8,-0.2 3.8,-0.2 0,0 0.2,12.3 -0.5,15.2 -0.7,2.9 -2,8.8 -2.3,12.5 -0.2,3.6 -2.1,12.2 -2.1,12.2 z"
       inkscape:connector-curvature="0"
       style="fill:#ffcc00" />
    <path
       id="path394"
       d="m 41.1,44.8 c 7.1,-2 12.5,1.2 15,6.6 2.5,5.4 4.1,15.8 6.2,19.8 2.1,4 3.4,11.3 -11.7,13.8 -15,2.5 -20.1,-7.2 -19.9,-9.1 0.5,-0.3 3.2,-0.2 2.4,-7.8 -0.8,-7.6 -0.2,-21 8,-23.3 z"
       inkscape:connector-curvature="0"
       style="fill:#825012" />
    <path
       id="path396"
       d="m 24.1,89.9 c 0,0 0.3,7.8 0.4,10.7 0.1,2.8 0.6,5.7 0.1,6.9 -0.5,1.2 -3.1,8.9 -4,11.3 -1.2,3.5 -2,8 -3.8,9.1 -1.5,1 -2,1.1 -2.4,2.4 -0.4,1.4 -0.7,4.7 -0.4,5.9 0.3,1.2 5,2.2 6.2,1.3 1.2,-0.9 1.4,-5.8 2,-7.4 0.7,-1.5 8.2,-15.4 8.6,-17.6 0.4,-2.3 1.1,-11.1 1.1,-15.8 0,-2.4 -0.2,-5.8 -0.2,-5.8 0,0 -1.6,0.5 -3.8,0.4 -2.2,-0.1 -3.8,-1.4 -3.8,-1.4 z"
       inkscape:connector-curvature="0"
       style="fill:#fbd7c7" />
  </g>
</svg>
