<?xml version="1.0" encoding="UTF-8" standalone="no"?>
<svg
   xmlns:dc="http://purl.org/dc/elements/1.1/"
   xmlns:cc="http://creativecommons.org/ns#"
   xmlns:rdf="http://www.w3.org/1999/02/22-rdf-syntax-ns#"
   xmlns:svg="http://www.w3.org/2000/svg"
   xmlns="http://www.w3.org/2000/svg"
   xmlns:sodipodi="http://sodipodi.sourceforge.net/DTD/sodipodi-0.dtd"
   xmlns:inkscape="http://www.inkscape.org/namespaces/inkscape"
   enable-background="new 0 0 160 240"
   viewBox="0 0 7.115622 18.2318"
   version="1.1"
   id="svg2061"
   sodipodi:docname="city--woman11.svg"
   width="7.115622"
   height="18.2318"
   inkscape:version="0.92.2 (5c3e80d, 2017-08-06)">
  <metadata
     id="metadata2067">
    <rdf:RDF>
      <cc:Work
         rdf:about="">
        <dc:format>image/svg+xml</dc:format>
        <dc:type
           rdf:resource="http://purl.org/dc/dcmitype/StillImage" />
        <dc:title></dc:title>
      </cc:Work>
    </rdf:RDF>
  </metadata>
  <defs
     id="defs2065" />
  <sodipodi:namedview
     pagecolor="#ffffff"
     bordercolor="#666666"
     borderopacity="1"
     objecttolerance="10"
     gridtolerance="10"
     guidetolerance="10"
     inkscape:pageopacity="0"
     inkscape:pageshadow="2"
     inkscape:window-width="870"
     inkscape:window-height="480"
     id="namedview2063"
     showgrid="false"
     fit-margin-top="0"
     fit-margin-left="0"
     fit-margin-right="0"
     fit-margin-bottom="0"
     inkscape:zoom="1.2791667"
     inkscape:cx="-10.031777"
     inkscape:cy="30.876311"
     inkscape:window-x="0"
     inkscape:window-y="0"
     inkscape:window-maximized="1"
     inkscape:current-layer="svg2061" />
  <g
     id="g2085"
     transform="matrix(0.1,0,0,0.1,-5.8011477,-5.0601414)">
    <path
       id="path2029"
       d="m 66.6,209.3 c -11.2,7.2 -11.7,13.7 0,19.9 12.8,6.9 21.3,3.1 31.3,-2.5 10,-5.6 11.2,-12.7 -3.5,-18.6 -11.9,-4.7 -19.4,-4.2 -27.8,1.2 z"
       inkscape:connector-curvature="0"
       style="opacity:0.2" />
    <path
       id="path2031"
       d="m 67.6,177.1 c 0.5,6 1.5,16 1.2,22.4 -0.3,7 -1.1,11 -2,15 -0.9,4.2 -6.2,7.7 -2.4,8.7 3.8,0.9 8.8,-0.9 10.2,-5.1 1.4,-4.2 7,-9.6 7.5,-11.4 0.5,-1.8 -3.8,-4.5 -3.9,-7.5 -0.1,-3 0.8,-9.3 2.4,-14.6 1.6,-5.3 0.8,-7.9 0.8,-7.9 z"
       inkscape:connector-curvature="0"
       style="fill:#fbd7c7" />
    <path
       id="path2033"
       d="m 67.8,206.6 c 0,0 5,1.4 7.7,-0.4 2.6,-1.8 3.5,-5.1 3.5,-5.1 0,0 3,2.1 3.5,5.1 0.5,3 -1.3,9.3 -1.3,9.3 l -2,2 -3.1,-1 c 0,0 -1.1,5.7 -4.3,7.5 -3.5,1.9 -9.8,1 -10.2,-0.8 -0.7,-3.2 2.4,-4.2 3.7,-6.3 1.3,-2.1 2.5,-10.3 2.5,-10.3 z"
       inkscape:connector-curvature="0"
       style="fill:#e5e5e5" />
    <path
       id="path2035"
       d="m 61.6,222.6 c 0,0.2 0,0.4 0.1,0.6 0.4,1.8 6.7,2.7 10.2,0.8 3.3,-1.8 4.3,-7.5 4.3,-7.5 l 3.1,1 2,-2 c 0,0 1.3,-4.6 1.4,-7.9 -0.4,0.8 -1.1,1.5 -2.1,2.1 -3.4,2 -3.9,3.3 -5.1,6.7 -1.1,3 -1.6,6.1 -5.7,7.2 -2.5,0.8 -6.3,0.3 -8.2,-1 z"
       inkscape:connector-curvature="0"
       style="opacity:0.4" />
    <path
       id="path2037"
       d="m 82.2,179.9 c 0,2 1.6,16.8 1.2,22 -0.4,5.2 -1.1,12.5 -3.2,16.4 -2.2,3.9 -7.1,6.8 -4.2,8.4 2.9,1.6 10.1,1.8 12.2,-2.8 2.1,-4.6 8,-12.5 6.7,-14.6 -1.3,-2.1 -3.5,-4.3 -2.4,-10.2 1.2,-5.9 4.7,-14.6 5.1,-16.9 0.3,-2.3 -15.4,-2.3 -15.4,-2.3 z"
       inkscape:connector-curvature="0"
       style="fill:#fbd7c7" />
    <path
       id="path2039"
       d="m 81.8,211.7 c 0,0 3.8,1.4 6.2,0 2.4,-1.4 4.7,-6.7 4.7,-6.7 0,0 2.8,1.2 2.8,5.1 0,3.9 -0.7,4.7 -0.7,6.4 0,1.7 0.3,3 0.3,3 l -1.6,1.6 -3.1,-0.8 c 0,0 -1.1,6.1 -4,8 -3.9,2.7 -10.5,1.4 -12.3,-0.5 -1,-1.1 -0.8,-3.3 1.7,-5 2.5,-1.7 4.5,-5.2 4.9,-6.7 0.4,-1.5 1.1,-4.4 1.1,-4.4 z"
       inkscape:connector-curvature="0"
       style="fill:#e5e5e5" />
    <path
       id="path2041"
       d="m 90.5,220.3 3.1,0.8 1.6,-1.6 c 0,0 -0.3,-1.3 -0.3,-3 0,-1.6 0.6,-2.4 0.7,-6.4 0,-0.1 0,-0.2 0,-0.4 -1.1,3 -3,4.4 -5.1,8.2 -1.9,3.5 -1.2,7.9 -6.3,10.2 -3.6,1.7 -8.8,-0.3 -10.4,-1.4 0.1,0.4 0.3,0.7 0.5,0.9 1.8,1.9 8.4,3.1 12.3,0.5 2.7,-1.7 3.9,-7.8 3.9,-7.8 z"
       inkscape:connector-curvature="0"
       style="opacity:0.4" />
    <path
       id="path2043"
       d="m 86.2,131.6 c -1.8,1.8 -13.1,11.8 -16.1,15.5 -3,3.7 -5.2,9.3 -4.3,13.8 0.9,4.5 1.9,20.1 1.8,24.7 -0.1,4 -0.6,8.5 0.4,9.1 1,0.7 9,2.2 12,-0.5 1.2,-1 3.3,-17.3 3.7,-23 0.4,-5.8 1.7,-10.4 5,-12.7 3.3,-2.4 14.2,-9.8 15.1,-13.6 0.9,-3.8 0.5,-10.2 0.5,-10.2 z"
       inkscape:connector-curvature="0"
       style="fill:#993399" />
    <path
       id="path2045"
       d="m 86.2,131.6 c -1.8,1.8 -13.1,11.8 -16.1,15.5 -3,3.7 -5.2,9.3 -4.3,13.8 0.9,4.5 1.9,20.1 1.8,24.7 -0.1,4 -0.6,8.5 0.4,9.1 1,0.7 9,2.2 12,-0.5 1.2,-1 3.3,-17.3 3.7,-23 0.4,-5.8 1.7,-10.4 5,-12.7 3.3,-2.4 14.2,-9.8 15.1,-13.6 0.9,-3.8 0.5,-10.2 0.5,-10.2 z"
       inkscape:connector-curvature="0"
       style="opacity:0.15" />
    <path
       id="path2047"
       d="m 93.2,136.4 0.1,10.2 c 0,0 -7,5.3 -10.4,9.2 -2.8,3.2 -3.5,6.8 -3,11.2 0.5,4.3 0.3,10.5 0.3,15.6 0,3.7 -0.2,14.2 0.2,15.5 0.4,1.3 5.5,1.4 8.5,1 3,-0.4 6.2,-1.3 6.4,-2 0.3,-0.7 0.9,-9.6 2.2,-15 1.3,-5.4 1.3,-12.7 1.3,-12.7 0,0 11.3,-4.6 16.4,-6.6 5.1,-2 11,-6.4 13,-14.2 2,-7.7 -1,-15.1 -1,-15.1 z"
       inkscape:connector-curvature="0"
       style="fill:#993399" />
    <path
       id="path2049"
       d="m 80.3,100.5 4.5,2 c 0,0 -2.4,3.5 -2.2,8.1 0.3,4.6 3.5,5.2 3.1,11.4 -0.2,4 -3,6.9 -4.6,9.8 -1.4,2.6 -3.5,6.7 -4,8.6 -1,3.6 7.3,6.5 11.8,7.4 9.8,2 39,6 40.1,-3.4 1.1,-9.2 -3.5,-14.1 -5.4,-20.9 -1.7,-6.1 0.9,-24.2 0.3,-28.5 -0.7,-4.3 -3,-7.1 -9.4,-9.6 -5.7,-2.3 -13.1,-4.1 -18.5,-4.3 -5.4,-0.3 -11.7,-1.5 -13.4,7.1 -1.6,8.1 -2.3,12.3 -2.3,12.3 z"
       inkscape:connector-curvature="0"
       style="fill:#baa794" />
    <path
       id="path2051"
       d="m 110.7,108.8 10,0.6 c 0,0 -0.8,16.5 -1.2,18.5 -0.4,2 -2,4.5 -6.3,11 -3.8,5.8 -12.6,13.8 -13.4,15.7 -0.8,2 -2.1,4 -4.5,4.9 -2.4,0.9 -3.3,1.6 -4.4,3 -1,1.3 -2.8,3 -5.8,2.2 -3,-0.8 -4.1,-2.8 -2.3,-5.1 1.8,-2.4 3.5,-6 5.2,-6.5 1.7,-0.5 5.1,-0.8 5.9,-1.2 1.2,-0.6 5.2,-5.9 6.7,-9.8 3.3,-9.1 9.3,-13.8 9.8,-16.9 0.6,-3.1 0.3,-16.4 0.3,-16.4 z"
       inkscape:connector-curvature="0"
       style="fill:#fbd7c7" />
    <path
       id="path2053"
       d="m 110.9,117.3 -0.4,-12.2 c 0,0 -3.8,13.5 -10.2,12.2 -6.4,-1.3 -5.9,-13.8 -5.9,-13.8 0,0 -3.3,8.8 -7.9,9.4 -1.8,0.3 -2.9,-0.1 -3.6,-0.6 0.6,2.3 2.1,3.6 2.7,6.3 3.6,1.3 7.3,-4.9 7.3,-4.9 0,0 0.5,8.3 7.5,8.7 6.8,0.4 10.5,-5.1 10.5,-5.1 z"
       inkscape:connector-curvature="0"
       style="opacity:0.15" />
    <path
       id="path2055"
       d="m 80.9,100.8 3.8,1.6 c 0,0 -2.4,6.3 -2,8.8 0.5,2.7 2.1,5.4 2.1,5.4 0,0 0.6,1.1 -0.1,4.5 -0.4,1.8 -1.1,6.2 -3.1,11.4 -2.1,5.2 -5.1,10 -5.3,11.7 -0.1,1.7 -0.4,2.1 -1.6,3.5 -1.2,1.4 -2.9,1.4 -3.1,2.4 -0.2,1 0.1,3.9 -0.8,5.1 -0.9,1.2 -4.4,1.3 -4.8,1 -0.4,-0.3 -1.9,-6.7 -1.1,-8.1 0.8,-1.4 4.5,-2.5 5.1,-3.9 0.7,-1.4 3.3,-11.3 4.1,-15.3 0.8,-3.9 1.4,-10.4 3.5,-15.4 2.1,-4.9 3.3,-12.7 3.3,-12.7 z"
       inkscape:connector-curvature="0"
       style="fill:#fbd7c7" />
    <path
       id="path2057"
       d="m 96.9,54.8 c -5.1,3.3 -5.5,10.4 -5.4,15.2 0.2,4.8 0.3,8.8 2.1,10.4 1.8,1.6 2,2.3 2.2,3.5 0.2,1.1 -5.5,5.5 -0.6,7.7 4.9,2.2 6.6,-0.3 10.5,-2 4.2,-1.8 7,-3.1 7,-3.1 0,0 -2.1,-3 -1.9,-6.3 0.2,-3.2 0.9,-5.6 2.5,-8.9 1.6,-3.3 4,-12.2 -1.1,-15.7 -5,-3.5 -11.8,-3 -15.3,-0.8 z"
       inkscape:connector-curvature="0"
       style="fill:#fbd7c7" />
    <path
       id="path2059"
       d="m 109.8,53.2 c 0,0 -3.3,-4.1 -9.8,-2 -6.5,2.1 -7.9,7.6 -7.9,7.6 l 2.6,-1.7 -1.6,3.4 2.4,-2.1 c 0,0 -1.1,2.5 -1.1,2.4 0,-0.1 2.5,-2 2.5,-2 0,0 -1.7,4.4 -1.7,4.2 0,-0.2 6.2,-5.9 6.2,-5.9 l -3.2,6.9 1.5,-0.5 -1.4,7 1.4,-2.4 0.3,5.4 1.7,-6 1,4.1 1.1,-3.9 1.4,6.5 1.3,-3.3 0.8,2.9 1.7,-4.3 0.4,1.7 1.5,-2.6 0.2,1.6 1,-0.2 -1.9,7.2 1.8,-3.5 -0.5,6.1 3,-7 0.3,1.5 1.5,-6.5 0.3,3.1 0.6,-4.7 0.9,0.9 -0.7,-4.2 0.9,0.5 -1.8,-3.5 1.2,0.5 c -0.2,0 -2,-7.5 -7.9,-7.2 z"
       inkscape:connector-curvature="0"
       style="fill:#2d3134" />
  </g>
</svg>
