<?xml version="1.0" encoding="UTF-8" standalone="no"?>
<svg
   xmlns:dc="http://purl.org/dc/elements/1.1/"
   xmlns:cc="http://creativecommons.org/ns#"
   xmlns:rdf="http://www.w3.org/1999/02/22-rdf-syntax-ns#"
   xmlns:svg="http://www.w3.org/2000/svg"
   xmlns="http://www.w3.org/2000/svg"
   xmlns:sodipodi="http://sodipodi.sourceforge.net/DTD/sodipodi-0.dtd"
   xmlns:inkscape="http://www.inkscape.org/namespaces/inkscape"
   enable-background="new 0 0 80 240"
   viewBox="0 0 6.6367884 18.872929"
   version="1.1"
   id="svg3985"
   sodipodi:docname="city--basicwoman02.svg"
   width="6.6367884"
   height="18.872929"
   inkscape:version="0.92.2 (5c3e80d, 2017-08-06)">
  <metadata
     id="metadata3991">
    <rdf:RDF>
      <cc:Work
         rdf:about="">
        <dc:format>image/svg+xml</dc:format>
        <dc:type
           rdf:resource="http://purl.org/dc/dcmitype/StillImage" />
        <dc:title></dc:title>
      </cc:Work>
    </rdf:RDF>
  </metadata>
  <defs
     id="defs3989" />
  <sodipodi:namedview
     pagecolor="#ffffff"
     bordercolor="#666666"
     borderopacity="1"
     objecttolerance="10"
     gridtolerance="10"
     guidetolerance="10"
     inkscape:pageopacity="0"
     inkscape:pageshadow="2"
     inkscape:window-width="1360"
     inkscape:window-height="706"
     id="namedview3987"
     showgrid="false"
     fit-margin-top="0"
     fit-margin-left="0"
     fit-margin-right="0"
     fit-margin-bottom="0"
     inkscape:zoom="2.2208333"
     inkscape:cx="-1.1341271"
     inkscape:cy="27.098453"
     inkscape:window-x="-8"
     inkscape:window-y="-8"
     inkscape:window-maximized="1"
     inkscape:current-layer="svg3985" />
  <g
     id="g4004"
     transform="matrix(0.1,0,0,0.1,-1.1268581,-4.3297345)">
    <path
       id="path3963"
       d="m 13.2,85.7 c 0,0 2.9,7.2 3.1,14.8 0.2,7.6 -1,14.1 -1.1,17.4 -0.1,3.2 -0.4,7.3 0.6,9.8 0.9,2.4 1.2,2.8 2.7,2.9 1.5,0.1 5.8,0.6 6.7,-1.1 0.9,-1.7 0.1,-4.4 -2.3,-5.8 -2.4,-1.4 -2.7,-1.5 -2.2,-3.4 0.5,-2.2 1.2,-4.3 1.7,-6.6 0.6,-2.9 1.7,-12.6 0.3,-17.6 C 21.3,91.1 20,85.9 20,85.9 h -6.8 z"
       inkscape:connector-curvature="0"
       style="fill:#fbd7c7" />
    <path
       id="path3965"
       d="m 11.4,226.1 c 1.8,7.1 7.2,6.5 33.6,4.9 26.4,-1.6 35,-3.3 32.1,-10.9 -2.9,-7.6 -16.9,-11.5 -33.7,-6.5 -16.8,5.1 -33.8,4.9 -32,12.5 z"
       inkscape:connector-curvature="0"
       style="opacity:0.2" />
    <path
       id="path3967"
       d="m 48.9,226 c 2.2,1.1 7.3,0.3 12.7,0.1 5.4,-0.2 9.6,-1.4 10.3,-4 0.7,-2.6 -0.5,-2.9 -0.5,-2.9 0,0 -22.9,1.8 -23.4,3.6 -0.5,2 0.9,3.2 0.9,3.2 z"
       inkscape:connector-curvature="0"
       style="fill:#262626" />
    <path
       id="path3969"
       d="m 49,225 c 2.9,0.2 11,-0.1 14.2,-0.3 3.7,-0.2 8.1,-1.8 8.8,-3.9 1.1,-3.2 -1.8,-4.7 -5.2,-5.2 -3.4,-0.4 -9.5,0.3 -11,0.3 -7.2,0.1 -11.1,8.7 -6.8,9.1 z"
       inkscape:connector-curvature="0"
       style="fill:#ffffff" />
    <path
       id="path3971"
       d="m 15.5,223 c 0,0 -0.8,5.5 4.7,5.7 5.5,0.3 6.3,-5.2 6.3,-5.2 z"
       inkscape:connector-curvature="0"
       style="fill:#262626" />
    <path
       id="path3973"
       d="m 33.8,122.4 -12.2,0.3 c -2.1,3 -6.2,8.3 -5.7,22.7 0.5,14.3 3.4,29.6 1.8,36.5 -1.6,6.9 -0.7,25.3 -1.7,30.9 -0.9,5.5 -1.8,9.9 -1.8,9.9 0,0 0.9,4.5 5.5,5.1 4.5,0.6 7.4,-2.4 7.4,-2.4 0,0 0.7,-9.3 1,-16.4 0.3,-7 2.1,-21.8 3,-29.4 0.8,-7.4 2.6,-32.7 4.4,-33.8 -0.7,-1.4 -1.3,-3.9 -1.8,-6.1 -0.5,-2 -0.5,-10.7 0.1,-17.3 z"
       inkscape:connector-curvature="0"
       style="fill:#cc291f" />
    <path
       id="path3975"
       d="m 33.8,122.4 -12.2,0.3 c -2.1,3 -6.2,8.3 -5.7,22.7 0.5,14.3 3.4,29.6 1.8,36.5 -1.6,6.9 -0.7,25.3 -1.7,30.9 -0.9,5.5 -1.8,9.9 -1.8,9.9 0,0 0.9,4.5 5.5,5.1 4.5,0.6 7.4,-2.4 7.4,-2.4 0,0 0.7,-9.3 1,-16.4 0.3,-7 2.1,-21.8 3,-29.4 0.8,-7.4 2.6,-32.7 4.4,-33.8 -0.7,-1.4 -1.3,-3.9 -1.8,-6.1 -0.5,-2 -0.5,-10.7 0.1,-17.3 z"
       inkscape:connector-curvature="0"
       style="opacity:0.2" />
    <path
       id="path3977"
       d="m 40.7,158.4 c 1.2,4.2 1.2,11.6 2,24.4 0.8,12.8 2.3,15.2 2.8,24 0.5,8.8 0.9,16.5 1.3,17.1 0.4,0.6 3,2.8 9,1.1 6,-1.7 6.8,-5.5 6.6,-7.9 -0.2,-2.4 -2.4,-2.4 -4.2,-10.3 -1.8,-7.9 -1.1,-23.5 -2.1,-30.2 -1,-6.4 1.3,-20 1,-29.7 -0.2,-8.5 -1.6,-11.2 -2.4,-16.1 -0.9,-5.3 -4.4,-8.8 -4.4,-8.8 l -16.6,0.4 c -0.7,6.5 -1.5,12.9 -1,17.5 0.3,2.9 2.6,6 2.6,6 2,0.2 4.4,9 5.4,12.5 z"
       inkscape:connector-curvature="0"
       style="fill:#cc291f" />
    <path
       id="path3979"
       d="m 34,75.9 c -8.6,-0.1 -14.6,-1.2 -17.9,0.9 -3.3,2.1 -3.8,4.1 -3.9,6.2 -0.1,1.8 -0.4,2.8 1.5,3.2 1.9,0.4 2.9,0.4 2.9,0.4 0,0 0.9,3.1 2.9,7 2,3.9 5.2,12.2 4.9,17.4 -0.3,5.2 -5.5,14.3 -5.5,14.3 0,0 -2.6,4.7 14.3,5.4 16.9,0.7 21.2,-2.1 21.2,-2.1 0,0 -3.9,-11.6 -4.7,-17.1 -0.8,-5.5 1.7,-14.3 1.8,-17.1 0.1,-2.7 -0.6,-3.8 -0.6,-3.8 0,0 4.9,-1 5.2,-1.9 0.3,-0.9 1,-12.6 -22.1,-12.8 z"
       inkscape:connector-curvature="0"
       style="fill:#ffcc00" />
    <path
       id="path3981"
       d="m 38.3,43.3 c -6.7,-0.1 -12.8,2.6 -14,12.4 -1.3,11 -6.8,15.5 -5.1,19.4 1.7,4 8.2,8.7 20.8,6 12.6,-2.7 12,-7.4 12,-7.4 0,0 -3.5,-2 -2.8,-5.6 0.8,-4 6.7,-24.4 -10.9,-24.8 z"
       inkscape:connector-curvature="0"
       style="fill:#825012" />
    <path
       id="path3983"
       d="m 47.2,90.9 c 0,0 -0.7,6.4 -0.5,11.4 0.3,5.1 1.7,11.1 2.9,15.2 1.1,4.1 3.2,8 3.6,8.5 0.4,0.5 0.6,3.3 1.1,4.1 0.4,0.8 0.1,0.6 0.2,1.5 0.1,0.9 2.5,1.1 3.2,0.8 0.6,-0.4 2.2,-5.9 1.9,-6.8 -0.4,-0.9 -2.8,-1.6 -3.1,-2.8 -0.4,-1.8 -0.6,-5 -1.1,-6.6 -0.3,-1.1 -1.7,-5.1 -1.7,-9.6 0.1,-4.4 1.1,-9.8 1.4,-13.5 0.1,-2.1 0.2,-4 0.2,-4 0,0 -0.9,0.6 -3.6,1.2 -2.3,0.5 -4.5,0.6 -4.5,0.6 z"
       inkscape:connector-curvature="0"
       style="fill:#fbd7c7" />
  </g>
</svg>
