<svg enable-background="new 0 0 160 240" viewBox="0 0 160 240" xmlns="http://www.w3.org/2000/svg"><path d="m66.6 209.3c-11.2 7.2-11.7 13.7 0 19.9 12.8 6.9 21.3 3.1 31.3-2.5s11.2-12.7-3.5-18.6c-11.9-4.7-19.4-4.2-27.8 1.2z" opacity=".2"/><path d="m67.6 177.1c.5 6 1.5 16 1.2 22.4-.3 7-1.1 11-2 15-.9 4.2-6.2 7.7-2.4 8.7 3.8.9 8.8-.9 10.2-5.1s7-9.6 7.5-11.4-3.8-4.5-3.9-7.5.8-9.3 2.4-14.6.8-7.9.8-7.9z" fill="#fbd7c7"/><path d="m67.8 206.6s5 1.4 7.7-.4c2.6-1.8 3.5-5.1 3.5-5.1s3 2.1 3.5 5.1-1.3 9.3-1.3 9.3l-2 2-3.1-1s-1.1 5.7-4.3 7.5c-3.5 1.9-9.8 1-10.2-.8-.7-3.2 2.4-4.2 3.7-6.3s2.5-10.3 2.5-10.3z" fill="#baa794"/><path d="m61.6 222.6c0 .2 0 .4.1.6.4 1.8 6.7 2.7 10.2.8 3.3-1.8 4.3-7.5 4.3-7.5l3.1 1 2-2s1.3-4.6 1.4-7.9c-.4.8-1.1 1.5-2.1 2.1-3.4 2-3.9 3.3-5.1 6.7-1.1 3-1.6 6.1-5.7 7.2-2.5.8-6.3.3-8.2-1z" opacity=".4"/><path d="m82.2 179.9c0 2 1.6 16.8 1.2 22s-1.1 12.5-3.2 16.4-7.1 6.8-4.2 8.4 10.1 1.8 12.2-2.8 8-12.5 6.7-14.6-3.5-4.3-2.4-10.2c1.2-5.9 4.7-14.6 5.1-16.9.3-2.3-15.4-2.3-15.4-2.3z" fill="#fbd7c7"/><path d="m80.3 100.5 4.5 2s-2.4 3.5-2.2 8.1 3.5 5.2 3.1 11.4-2.6 8.8-4.7 11.9c-1.9 2.8-14 13.3-15 18.4-1.4 7.1-.5 32.3 0 33.2s10.6 5.1 20.1 6.6c9.6 1.4 14.8-3.7 14.8-3.7s1.7-13.9 2-16.5.3-4.5 5.1-5.9c4.9-1.4 18.4-6 20.3-17.7 2-11.7-1.5-19.7-4.1-25.5s.2-23.5-.5-27.8-3-7.1-9.4-9.6c-5.7-2.3-13.1-4.1-18.5-4.3-5.4-.3-11.7-1.5-13.4 7.1-1.4 8.1-2.1 12.3-2.1 12.3z" fill="#825012"/><path d="m110.7 108.8 10 .6s-.8 16.5-1.2 18.5-2 4.5-6.3 11c-3.8 5.8-12.6 13.8-13.4 15.7-.8 2-2.1 4-4.5 4.9s-3.3 1.6-4.4 3c-1 1.3-2.8 3-5.8 2.2s-4.1-2.8-2.3-5.1c1.8-2.4 3.5-6 5.2-6.5s5.1-.8 5.9-1.2c1.2-.6 5.2-5.9 6.7-9.8 3.3-9.1 9.3-13.8 9.8-16.9.6-3.1.3-16.4.3-16.4z" fill="#fbd7c7"/><path d="m110.9 117.3-.4-12.2s-3.8 13.5-10.2 12.2-5.9-13.8-5.9-13.8-3.3 8.8-7.9 9.4c-1.8.3-2.9-.1-3.6-.6.6 2.3 2.1 3.6 2.7 6.3 3.6 1.3 7.3-4.9 7.3-4.9s.5 8.3 7.5 8.7c6.8.4 10.5-5.1 10.5-5.1z" opacity=".15"/><path d="m81.8 211.7s3.8 1.4 6.2 0 4.7-6.7 4.7-6.7 2.8 1.2 2.8 5.1c-.1 3.9-.7 4.7-.7 6.4s.3 3 .3 3l-1.6 1.6-3.1-.8s-1.1 6.1-4 8c-3.9 2.7-10.5 1.4-12.3-.5-1-1.1-.8-3.3 1.7-5 2.4-1.7 4.5-5.2 4.9-6.7.4-1.6 1.1-4.4 1.1-4.4z" fill="#baa794"/><path d="m90.4 220.3 3.1.8 1.6-1.6s-.3-1.3-.3-3c0-1.6.6-2.4.7-6.4 0-.1 0-.2 0-.4-1.1 3-3 4.4-5.1 8.2-1.9 3.5-1.2 7.9-6.3 10.2-3.6 1.7-8.8-.3-10.4-1.4.1.4.3.7.5.9 1.8 1.9 8.4 3.1 12.3.5 2.8-1.7 3.9-7.8 3.9-7.8z" opacity=".4"/><path d="m105.8 55.4c-6.7-1.8-13 1.8-14.2 10.2s.1 16 2.4 17.7 2.9 3.7 2.8 5.5-.8 4.3-.8 4.3 9.1-4.2 12.2-5.1 5-1.8 5-1.8-3.7-4-3.4-8.1c.1-1.9 9.5-19-4-22.7z" fill="#fbd7c7"/><path d="m91.2 64.1c.9 1.3 9.4-.8 10.2 2 2.2 7.2 6.8 7.3 6.8 7.3s1-3.1 2.3-2.6.7 2.2.2 3.7c-.6 1.6-1.3 2.8.2 3 3 .5 8-11 5.5-17.5-2.5-6.6-8.3-6.1-8.3-6.1s-6.1-4.9-12.3-.1c-5.9 4.5-5.4 9.1-4.6 10.3z" fill="#999"/><path d="m80.9 100.8 3.8 1.6s-2.4 6.3-2 8.8c.5 2.7 2.1 5.4 2.1 5.4s.6 1.1-.1 4.5c-.4 1.8-1.1 6.2-3.1 11.4-2.1 5.2-5.1 10-5.3 11.7-.1 1.7-.4 2.1-1.6 3.5s-2.9 1.4-3.1 2.4.1 3.9-.8 5.1-4.4 1.3-4.8 1-1.9-6.7-1.1-8.1 4.5-2.5 5.1-3.9c.7-1.4 3.3-11.3 4.1-15.3.8-3.9 1.4-10.4 3.5-15.4 2.1-4.9 3.3-12.7 3.3-12.7z" fill="#fbd7c7"/></svg>