<?xml version="1.0" encoding="UTF-8" standalone="no"?>
<svg
   xmlns:dc="http://purl.org/dc/elements/1.1/"
   xmlns:cc="http://creativecommons.org/ns#"
   xmlns:rdf="http://www.w3.org/1999/02/22-rdf-syntax-ns#"
   xmlns:svg="http://www.w3.org/2000/svg"
   xmlns="http://www.w3.org/2000/svg"
   xmlns:sodipodi="http://sodipodi.sourceforge.net/DTD/sodipodi-0.dtd"
   xmlns:inkscape="http://www.inkscape.org/namespaces/inkscape"
   enable-background="new 0 0 80 240"
   viewBox="0 0 4.9101229 18.640993"
   version="1.1"
   id="svg58"
   sodipodi:docname="city--basicwoman04.svg"
   width="4.9101229"
   height="18.640993"
   inkscape:version="0.92.2 (5c3e80d, 2017-08-06)">
  <metadata
     id="metadata64">
    <rdf:RDF>
      <cc:Work
         rdf:about="">
        <dc:format>image/svg+xml</dc:format>
        <dc:type
           rdf:resource="http://purl.org/dc/dcmitype/StillImage" />
        <dc:title></dc:title>
      </cc:Work>
    </rdf:RDF>
  </metadata>
  <defs
     id="defs62" />
  <sodipodi:namedview
     pagecolor="#ffffff"
     bordercolor="#666666"
     borderopacity="1"
     objecttolerance="10"
     gridtolerance="10"
     guidetolerance="10"
     inkscape:pageopacity="0"
     inkscape:pageshadow="2"
     inkscape:window-width="880"
     inkscape:window-height="480"
     id="namedview60"
     showgrid="false"
     fit-margin-top="0"
     fit-margin-left="0"
     fit-margin-right="0"
     fit-margin-bottom="0"
     inkscape:zoom="2.2208333"
     inkscape:cx="9.0344719"
     inkscape:cy="31.025463"
     inkscape:window-x="0"
     inkscape:window-y="0"
     inkscape:window-maximized="1"
     inkscape:current-layer="svg58" />
  <g
     id="g76"
     transform="matrix(0.1,0,0,0.1,-1.1121382,-4.85)">
    <path
       id="path38"
       d="m 38.9,234.9 c 5.7,0.4 17.8,-11.4 17.8,-14.3 0,-2.9 -3.6,-6.2 -12.4,-5.9 -5.7,0.2 -9.2,-5.7 -14.6,-5.4 -5.4,0.3 -9.7,5.4 -10.3,8.1 -0.5,2.7 2.7,5.9 8.6,10.3 6,4.2 2.5,6.6 10.9,7.2 z"
       inkscape:connector-curvature="0"
       style="opacity:0.2" />
    <path
       id="path40"
       d="m 37.2,229.7 c 0,0 0.5,3.6 4.8,2.6 4.3,-1 11.6,-7.2 11.9,-10 0.3,-2.8 0.7,-5.7 -3,-5.8 -3.7,-0.1 -13.9,1.6 -13.7,13.2 z"
       inkscape:connector-curvature="0"
       style="fill:#ffffff" />
    <path
       id="path42"
       d="m 42,232.2 c 4.3,-1 11.6,-7.2 11.9,-10 0.1,-1.1 0.2,-2.2 0.1,-3.2 -0.6,2.6 -3.2,5.6 -7.6,9.1 -3.2,2.6 -6.8,3 -8.6,3.1 0.7,0.8 1.9,1.6 4.2,1 z"
       inkscape:connector-curvature="0"
       style="fill:#262626" />
    <path
       id="path44"
       d="m 25.4,125.1 c 0,0 -4.5,9.1 -3.1,16.5 1.4,7.4 8.4,22.7 7.2,27.2 -1.2,4.5 -3.4,17.4 -3.2,26.5 0.1,9.1 -2.2,13.6 -1.1,15.8 1.1,2.2 2.7,6.2 7.3,5.4 4.6,-0.8 6.2,-2.6 6.2,-2.6 0,0 2.3,-41.6 2.3,-45.8 0,-4.2 -2.3,-40.9 -2.3,-40.9 z"
       inkscape:connector-curvature="0"
       style="fill:#cc291f" />
    <path
       id="path46"
       d="m 25.4,125.1 c 0,0 -4.5,9.1 -3.1,16.5 1.4,7.4 8.4,22.7 7.2,27.2 -1.2,4.5 -3.4,17.4 -3.2,26.5 0.1,9.1 -2.2,13.6 -1.1,15.8 1.1,2.2 2.7,6.2 7.3,5.4 4.6,-0.8 6.2,-2.6 6.2,-2.6 0,0 2.3,-41.6 2.3,-45.8 0,-4.2 -2.3,-40.9 -2.3,-40.9 z"
       inkscape:connector-curvature="0"
       style="opacity:0.2" />
    <path
       id="path48"
       d="m 31.7,127 c 0,0 -6.4,8.1 -4.2,16.9 2.2,8.8 5.5,10.9 7.2,17.2 1.6,6.2 4.2,12.7 3.2,17.3 -0.9,4.6 -4.9,12.3 -4.2,20.9 0.7,8.6 0.5,21.5 -0.3,25.3 -0.8,3.8 2.2,7.2 5.7,7.2 3.5,0 9.6,-5 9.9,-6.9 0.3,-1.9 -0.4,-3.6 -1.2,-5.5 -0.8,-1.9 -2.2,-10.5 -0.1,-20.1 2,-9.6 4.1,-18.5 4.5,-24.3 0.4,-5.8 3.4,-12.6 2.3,-23.5 -1.1,-10.9 -3.9,-21.1 -3.9,-21.1 z"
       inkscape:connector-curvature="0"
       style="fill:#cc291f" />
    <path
       id="path50"
       d="m 15,84.6 c 0,0 -0.1,7.3 -1.6,12.4 -1.5,5.1 -3.1,10.7 -1.8,13.4 1.3,2.7 8.2,5.8 10.3,9.5 2.1,3.7 4.6,7.4 4.6,7.4 l 2.3,-7.4 c 0,0 -5.5,-8.2 -7.2,-10 C 20,108.1 19,106.5 19,106.5 L 21.4,100.7 17.8,85 Z"
       inkscape:connector-curvature="0"
       style="fill:#fbd7c7" />
    <path
       id="path52"
       d="m 28.9,78.5 c 0,0 -6.6,-2.4 -10.8,-0.8 -4.2,1.6 -3.9,7.4 -3.9,7.4 l 1.5,1.1 c 0,0 2,4.9 2,8 0,3.1 4.1,12.4 5,18.4 0.9,5.9 2.2,9.3 0.8,12.7 -1.4,3.4 -1.9,7.7 -1.9,7.7 0,0 0.7,2 7.4,4.2 8.5,2.7 23,3.6 23.5,2.4 0.5,-1.1 -1.1,-10.4 -1.7,-15.3 -0.6,-4.9 -1.5,-15.7 -0.7,-16.9 0.8,-1.2 3.9,-4.3 3.6,-7.3 -0.3,-3 -1.9,-5.1 -4.7,-7.3 -2.8,-2.2 -5.1,-9.2 -7.3,-9.7 -2,-0.6 -12.8,-4.6 -12.8,-4.6 z"
       inkscape:connector-curvature="0"
       style="fill:#ffcc00" />
    <path
       id="path54"
       d="m 39.5,48.5 c 5.3,0 11.4,0.9 11.8,13.9 0.4,13 3.2,13.6 2.4,17.8 -0.8,4.2 -4.3,8.4 -18.2,7.7 -13.9,-0.7 -15.3,-6.6 -14.6,-9.7 0.7,-3.1 4.6,-8.8 5.4,-15 0.8,-5.9 2.8,-14.7 13.2,-14.7 z"
       inkscape:connector-curvature="0"
       style="fill:#825012" />
    <path
       id="path56"
       d="m 38.4,101 c 0,0 1.8,1.3 4.3,1.8 2.4,0.5 6.1,0.3 6.1,0.3 0,0 -3.5,9.6 -5.7,13 -2.2,3.4 -3.1,6.6 -3.1,6.6 0,0 2.2,2.2 4.5,6.1 2.3,3.9 6.2,10 7.3,10.3 1.1,0.3 1.9,-0.1 3.4,1.6 1.5,1.8 5.8,6.1 4.9,6.5 -0.9,0.4 -3.2,-1.3 -3.2,-1.3 0,0 1.8,3 1,3.6 -0.8,0.6 -3,-1.8 -3,-1.8 0,0 0.9,1.6 0.2,2.1 -0.7,0.5 -0.9,0.2 -0.9,0.2 0,0 -0.4,0.8 -1.3,0.5 -0.9,-0.3 -3.9,-4.3 -4.8,-6.1 -0.9,-1.8 -2.2,-4.5 -3.7,-6.2 -1.6,-1.8 -12.4,-11 -12.2,-14.1 0.3,-3.1 2,-12.7 4,-17.2 1.9,-4.7 2.2,-5.9 2.2,-5.9 z"
       inkscape:connector-curvature="0"
       style="fill:#fbd7c7" />
  </g>
</svg>
