<?xml version="1.0" encoding="UTF-8" standalone="no"?>
<svg
   xmlns:dc="http://purl.org/dc/elements/1.1/"
   xmlns:cc="http://creativecommons.org/ns#"
   xmlns:rdf="http://www.w3.org/1999/02/22-rdf-syntax-ns#"
   xmlns:svg="http://www.w3.org/2000/svg"
   xmlns="http://www.w3.org/2000/svg"
   xmlns:sodipodi="http://sodipodi.sourceforge.net/DTD/sodipodi-0.dtd"
   xmlns:inkscape="http://www.inkscape.org/namespaces/inkscape"
   enable-background="new 0 0 80 240"
   viewBox="0 0 7.2164388 20.290882"
   version="1.1"
   id="svg2159"
   sodipodi:docname="city--woman12.svg"
   width="7.2164388"
   height="20.290882"
   inkscape:version="0.92.2 (5c3e80d, 2017-08-06)">
  <metadata
     id="metadata2165">
    <rdf:RDF>
      <cc:Work
         rdf:about="">
        <dc:format>image/svg+xml</dc:format>
        <dc:type
           rdf:resource="http://purl.org/dc/dcmitype/StillImage" />
        <dc:title></dc:title>
      </cc:Work>
    </rdf:RDF>
  </metadata>
  <defs
     id="defs2163" />
  <sodipodi:namedview
     pagecolor="#ffffff"
     bordercolor="#666666"
     borderopacity="1"
     objecttolerance="10"
     gridtolerance="10"
     guidetolerance="10"
     inkscape:pageopacity="0"
     inkscape:pageshadow="2"
     inkscape:window-width="870"
     inkscape:window-height="480"
     id="namedview2161"
     showgrid="false"
     fit-margin-top="0"
     fit-margin-left="0"
     fit-margin-right="0"
     fit-margin-bottom="0"
     inkscape:zoom="1.2791667"
     inkscape:cx="2.1357606"
     inkscape:cy="22.484119"
     inkscape:window-x="0"
     inkscape:window-y="0"
     inkscape:window-maximized="1"
     inkscape:current-layer="svg2159" />
  <g
     id="g2181"
     transform="matrix(0.1,0,0,0.1,-0.53902642,-3.0884267)">
    <path
       id="path2131"
       d="m 11,231.9 c -14.8,-7.2 2.6,-15.9 18.5,-20.4 14.1,-4 27.9,-19.8 44,-9.5 12.9,8.2 -8,15.7 -20.6,20.2 -17.9,6.4 -29.7,15.6 -41.9,9.7 z"
       inkscape:connector-curvature="0"
       style="opacity:0.2" />
    <g
       id="g2139"
       style="fill:#fbd7c7">
      <path
         id="path2133"
         d="m 22.8,109.3 c -1.5,3.1 -5.1,8.6 -5.2,10.2 -0.1,1.6 -1.1,5.1 -0.5,6.7 0.6,1.6 4.1,4.2 4.8,4.2 0.7,0 1.5,-2.6 1.5,-3.3 0,-0.7 -1,-2.2 -1,-2.2 0,0 1.8,0.7 2,0 0.2,-0.8 -1.6,-15.6 -1.6,-15.6 z"
         inkscape:connector-curvature="0" />
      <path
         id="path2135"
         d="m 23.5,172.3 c -0.3,3.1 -0.4,10.4 -0.6,15.4 -0.2,5 -0.6,12.2 -1.8,17.1 -1.3,4.9 -2.4,10.4 -3.7,12.5 -1.3,2 -6.8,7.2 -1.9,6.8 4.9,-0.4 8.6,-7 10.4,-8.9 1.8,-1.8 3.9,-5.5 3.9,-5.5 0,0 0.1,-2.4 1,-7 0.9,-4.6 6.5,-18.8 6.7,-24.1 C 37.9,173.3 36,168 36,168 Z"
         inkscape:connector-curvature="0" />
      <path
         id="path2137"
         d="m 59,209.6 c -1.1,1.2 -3.5,3.5 -0.6,4.2 2.9,0.7 7.1,-0.9 9,-5.5 1.8,-4.6 3.3,-9.3 3.6,-10.4 0.3,-1.1 -1.4,-3.6 -2,-5.5 -0.6,-1.9 -1.1,-10.6 -3.3,-15.9 -1.3,-3.1 -7,-8 -7,-8 L 46.3,173 c 0,0 2.8,4.1 4.8,6 2,1.9 4.6,6.5 6.7,9.1 2.1,2.7 4.2,6.2 4,9.6 -0.3,3.4 -1.7,10.7 -2.8,11.9 z"
         inkscape:connector-curvature="0" />
    </g>
    <path
       id="path2141"
       d="m 26.8,94.2 c 0,0 -4.2,8 -5.1,22.5 -0.7,12.2 -1,56.5 -0.9,58.9 0.5,7.4 18.8,7.3 27.4,7.9 8.6,0.6 18.7,-7.2 19.8,-9.2 1.1,-2 -3,-15.4 -2,-44.2 0.4,-10.9 -3.7,-15 -4.8,-22.4 C 59.3,94.9 62.5,81.2 62.8,77.1 63.3,70.6 58.9,67.7 56.9,66.5 53.8,64.7 40.8,61.6 38.5,61 c -2.3,-0.6 -6.7,-0.9 -7.8,3.3 -1.1,4.2 0.1,7.3 -1.3,8.9 -1.4,1.6 -6.2,7.6 -5.9,11.7 0.3,4.2 3.3,9.3 3.3,9.3 z"
       inkscape:connector-curvature="0"
       style="fill:#825012" />
    <path
       id="path2143"
       d="m 38.8,35 c -5,3.3 -5.4,10.2 -5.2,14.9 0.2,4.7 0.3,8.6 2.1,10.2 1.8,1.6 1.9,2.3 2.1,3.4 0.2,1.1 -0.6,7.5 -0.6,7.5 0,0 4.9,-2.2 9.5,-2.9 4.4,-0.6 7.9,-0.6 7.9,-0.6 0,0 -2.4,-4.4 -2.2,-7.6 0.2,-3.1 0.9,-5.5 2.5,-8.7 1.6,-3.2 3.9,-11.9 -1,-15.4 -5.1,-3.5 -11.8,-3 -15.1,-0.8 z"
       inkscape:connector-curvature="0"
       style="fill:#fbd7c7" />
    <path
       id="path2145"
       d="m 53,87.7 c 0,0 -6.3,7.9 -14.5,6.7 C 29.9,93.1 36,80.7 36,80.7 c 0,0 -7.5,13.3 -12.2,6 0.8,3.8 3,7.5 3,7.5 0,0 0,0 0,0 1.7,1.1 3,0.8 5.3,-1.9 C 33.8,104 52.7,98 55.5,95.4 54.8,92.9 53,87.7 53,87.7 Z"
       inkscape:connector-curvature="0"
       style="opacity:0.15" />
    <path
       id="path2147"
       d="m 51.4,33.4 c 6.4,1 10.1,7 7.7,16.2 -2.3,8.9 -6.6,9.5 -6.6,9.5 0,0 -1.5,-1.3 -0.5,-4.5 0.2,-0.7 0.8,-2.4 -0.8,-3 -1.8,-0.7 -2.7,3.1 -2.7,3.1 0,0 -4.4,-0.7 -4.9,-5.5 -0.6,-5.5 -1.9,-7.6 -5.2,-7.3 -3.3,0.2 -4.9,2.3 -5.5,0.8 -2.6,-4.7 8.7,-17.1 18.5,-9.3 z"
       inkscape:connector-curvature="0"
       style="fill:#999999" />
    <path
       id="path2149"
       d="m 18.4,211.9 c 0,0 5,2.1 7.5,0.3 2.5,-1.7 4.2,-4.9 4.2,-4.9 0,0 0.9,1.1 1.4,3.9 0.5,2.8 -1.2,8.7 -1.2,8.7 l -1.8,1.8 -2.9,-1 c 0,0 -2.5,5 -5.5,6.6 -3.3,1.8 -9.2,1 -9.6,-0.7 -0.7,-3 1.9,-4.2 3.5,-6 2.1,-2.2 4.4,-8.7 4.4,-8.7 z"
       inkscape:connector-curvature="0"
       style="fill:#baa794" />
    <path
       id="path2151"
       d="m 10.3,226.2 c 0,0.2 0,0.4 0.1,0.5 0.4,1.7 6.3,2.5 9.6,0.7 3.1,-1.7 5.5,-6.6 5.5,-6.6 l 2.9,1 1.8,-1.8 c 0,0 1.2,-4.4 1.3,-7.4 -0.4,0.7 -1,1.4 -1.9,2 -3.2,1.9 -3.1,3.4 -4.8,6.3 -1.4,2.4 -3,5.3 -6.8,6.4 -2.3,0.6 -5.9,0.2 -7.7,-1.1 z"
       inkscape:connector-curvature="0"
       style="opacity:0.4" />
    <path
       id="path2153"
       d="m 60.6,200.8 c 0,0 3.6,1 5.7,-0.5 2.1,-1.5 3.8,-6.5 3.8,-6.5 0,0 2.7,0.8 2.9,4.4 0.2,3.6 -0.2,4.4 -0.1,5.8 0.1,1.5 0.5,2.7 0.5,2.7 l -1.3,1.6 -2.9,-0.5 c 0,0 -1.5,5.3 -4,7.3 -3.3,2.7 -8.4,2.4 -10.2,0.8 -1,-0.9 -1,-3 1.1,-4.7 2.1,-1.7 3.7,-5.1 3.9,-6.5 0.2,-1.3 0.6,-3.9 0.6,-3.9 z"
       inkscape:connector-curvature="0"
       style="fill:#baa794" />
    <path
       id="path2155"
       d="m 69.1,207.9 2.9,0.5 1.3,-1.6 c 0,0 -0.3,-1.2 -0.5,-2.7 -0.1,-1.5 0.4,-2.3 0.1,-5.8 0,-0.1 0,-0.2 0,-0.3 -0.7,2.8 -2.4,4.2 -4,7.9 -1.4,3.4 -1.5,7 -5.9,9.6 -3.1,1.8 -7,0.7 -8.6,-0.2 0.1,0.3 0.3,0.6 0.5,0.8 1.8,1.6 6.9,1.9 10.2,-0.8 2.5,-2 4,-7.4 4,-7.4 z"
       inkscape:connector-curvature="0"
       style="opacity:0.4" />
    <path
       id="path2157"
       d="m 51.2,87.2 10,-1 c 0,0 1.4,12.1 1.2,15.3 -0.2,3.2 -0.1,6.3 -1,9 -0.9,2.7 -9,18.8 -10.8,22.5 -1.8,3.7 -3.6,9.2 -4.1,10.2 -0.4,1 -3.1,4.6 -4.2,5.2 -1.1,0.6 -3.6,1.2 -5.5,0.4 -1.5,-0.6 1.7,-9.9 2.2,-11.1 0.9,-2.2 2.7,-3.4 3.6,-4.7 0.9,-1.4 4,-6.9 5.2,-11.5 1.2,-4.6 2.5,-10.2 4.1,-12.5 1.7,-2.3 2.3,-4.6 1.9,-6.3 C 53.5,101 51.2,87.2 51.2,87.2 Z"
       inkscape:connector-curvature="0"
       style="fill:#fbd7c7" />
  </g>
</svg>
