<svg enable-background="new 0 0 160 240" viewBox="0 0 160 240" xmlns="http://www.w3.org/2000/svg"><path d="m66.6 209.3c-11.2 7.2-11.7 13.7 0 19.9 12.8 6.9 21.3 3.1 31.3-2.5s11.2-12.7-3.5-18.6c-11.9-4.7-19.4-4.2-27.8 1.2z" opacity=".2"/><path d="m67.6 177.1c.5 6 1.5 16 1.2 22.4-.3 7-1.1 11-2 15-.9 4.2-6.2 7.7-2.4 8.7 3.8.9 8.8-.9 10.2-5.1s7-9.6 7.5-11.4-3.8-4.5-3.9-7.5.8-9.3 2.4-14.6.8-7.9.8-7.9z" fill="#fbd7c7"/><path d="m67.8 206.6s5 1.4 7.7-.4c2.6-1.8 3.5-5.1 3.5-5.1s3 2.1 3.5 5.1-1.3 9.3-1.3 9.3l-2 2-3.1-1s-1.1 5.7-4.3 7.5c-3.5 1.9-9.8 1-10.2-.8-.7-3.2 2.4-4.2 3.7-6.3s2.5-10.3 2.5-10.3z" fill="#e5e5e5"/><path d="m61.6 222.6c0 .2 0 .4.1.6.4 1.8 6.7 2.7 10.2.8 3.3-1.8 4.3-7.5 4.3-7.5l3.1 1 2-2s1.3-4.6 1.4-7.9c-.4.8-1.1 1.5-2.1 2.1-3.4 2-3.9 3.3-5.1 6.7-1.1 3-1.6 6.1-5.7 7.2-2.5.8-6.3.3-8.2-1z" opacity=".4"/><path d="m82.2 179.9c0 2 1.6 16.8 1.2 22s-1.1 12.5-3.2 16.4c-2.2 3.9-7.1 6.8-4.2 8.4s10.1 1.8 12.2-2.8 8-12.5 6.7-14.6-3.5-4.3-2.4-10.2c1.2-5.9 4.7-14.6 5.1-16.9.3-2.3-15.4-2.3-15.4-2.3z" fill="#fbd7c7"/><path d="m81.8 211.7s3.8 1.4 6.2 0 4.7-6.7 4.7-6.7 2.8 1.2 2.8 5.1-.7 4.7-.7 6.4.3 3 .3 3l-1.6 1.6-3.1-.8s-1.1 6.1-4 8c-3.9 2.7-10.5 1.4-12.3-.5-1-1.1-.8-3.3 1.7-5s4.5-5.2 4.9-6.7 1.1-4.4 1.1-4.4z" fill="#e5e5e5"/><path d="m90.5 220.3 3.1.8 1.6-1.6s-.3-1.3-.3-3c0-1.6.6-2.4.7-6.4 0-.1 0-.2 0-.4-1.1 3-3 4.4-5.1 8.2-1.9 3.5-1.2 7.9-6.3 10.2-3.6 1.7-8.8-.3-10.4-1.4.1.4.3.7.5.9 1.8 1.9 8.4 3.1 12.3.5 2.7-1.7 3.9-7.8 3.9-7.8z" opacity=".4"/><path d="m86.2 131.6c-1.8 1.8-13.1 11.8-16.1 15.5s-5.2 9.3-4.3 13.8 1.9 20.1 1.8 24.7c-.1 4-.6 8.5.4 9.1 1 .7 9 2.2 12-.5 1.2-1 3.3-17.3 3.7-23 .4-5.8 1.7-10.4 5-12.7 3.3-2.4 14.2-9.8 15.1-13.6s.5-10.2.5-10.2z" fill="#939"/><path d="m86.2 131.6c-1.8 1.8-13.1 11.8-16.1 15.5s-5.2 9.3-4.3 13.8 1.9 20.1 1.8 24.7c-.1 4-.6 8.5.4 9.1 1 .7 9 2.2 12-.5 1.2-1 3.3-17.3 3.7-23 .4-5.8 1.7-10.4 5-12.7 3.3-2.4 14.2-9.8 15.1-13.6s.5-10.2.5-10.2z" opacity=".15"/><path d="m93.2 136.4.1 10.2s-7 5.3-10.4 9.2c-2.8 3.2-3.5 6.8-3 11.2.5 4.3.3 10.5.3 15.6 0 3.7-.2 14.2.2 15.5s5.5 1.4 8.5 1 6.2-1.3 6.4-2c.3-.7.9-9.6 2.2-15s1.3-12.7 1.3-12.7 11.3-4.6 16.4-6.6 11-6.4 13-14.2c2-7.7-1-15.1-1-15.1z" fill="#939"/><path d="m80.3 100.5 4.5 2s-2.4 3.5-2.2 8.1c.3 4.6 3.5 5.2 3.1 11.4-.2 4-3 6.9-4.6 9.8-1.4 2.6-3.5 6.7-4 8.6-1 3.6 7.3 6.5 11.8 7.4 9.8 2 39 6 40.1-3.4 1.1-9.2-3.5-14.1-5.4-20.9-1.7-6.1.9-24.2.3-28.5-.7-4.3-3-7.1-9.4-9.6-5.7-2.3-13.1-4.1-18.5-4.3-5.4-.3-11.7-1.5-13.4 7.1-1.6 8.1-2.3 12.3-2.3 12.3z" fill="#baa794"/><path d="m110.7 108.8 10 .6s-.8 16.5-1.2 18.5-2 4.5-6.3 11c-3.8 5.8-12.6 13.8-13.4 15.7-.8 2-2.1 4-4.5 4.9s-3.3 1.6-4.4 3c-1 1.3-2.8 3-5.8 2.2s-4.1-2.8-2.3-5.1c1.8-2.4 3.5-6 5.2-6.5s5.1-.8 5.9-1.2c1.2-.6 5.2-5.9 6.7-9.8 3.3-9.1 9.3-13.8 9.8-16.9.6-3.1.3-16.4.3-16.4z" fill="#fbd7c7"/><path d="m110.9 117.3-.4-12.2s-3.8 13.5-10.2 12.2-5.9-13.8-5.9-13.8-3.3 8.8-7.9 9.4c-1.8.3-2.9-.1-3.6-.6.6 2.3 2.1 3.6 2.7 6.3 3.6 1.3 7.3-4.9 7.3-4.9s.5 8.3 7.5 8.7c6.8.4 10.5-5.1 10.5-5.1z" opacity=".15"/><path d="m80.9 100.8 3.8 1.6s-2.4 6.3-2 8.8c.5 2.7 2.1 5.4 2.1 5.4s.6 1.1-.1 4.5c-.4 1.8-1.1 6.2-3.1 11.4-2.1 5.2-5.1 10-5.3 11.7-.1 1.7-.4 2.1-1.6 3.5s-2.9 1.4-3.1 2.4.1 3.9-.8 5.1-4.4 1.3-4.8 1-1.9-6.7-1.1-8.1 4.5-2.5 5.1-3.9c.7-1.4 3.3-11.3 4.1-15.3.8-3.9 1.4-10.4 3.5-15.4 2.1-4.9 3.3-12.7 3.3-12.7z" fill="#fbd7c7"/><path d="m96.9 54.8c-5.1 3.3-5.5 10.4-5.4 15.2.2 4.8.3 8.8 2.1 10.4s2 2.3 2.2 3.5c.2 1.1-5.5 5.5-.6 7.7s6.6-.3 10.5-2c4.2-1.8 7-3.1 7-3.1s-2.1-3-1.9-6.3c.2-3.2.9-5.6 2.5-8.9s4-12.2-1.1-15.7c-5-3.5-11.8-3-15.3-.8z" fill="#fbd7c7"/><path d="m109.8 53.2s-3.3-4.1-9.8-2-7.9 7.6-7.9 7.6l2.6-1.7-1.6 3.4 2.4-2.1s-1.1 2.5-1.1 2.4 2.5-2 2.5-2-1.7 4.4-1.7 4.2 6.2-5.9 6.2-5.9l-3.2 6.9 1.5-.5-1.4 7 1.4-2.4.3 5.4 1.7-6 1 4.1 1.1-3.9 1.4 6.5 1.3-3.3.8 2.9 1.7-4.3.4 1.7 1.5-2.6.2 1.6 1-.2-1.9 7.2 1.8-3.5-.5 6.1 3-7 .3 1.5 1.5-6.5.3 3.1.6-4.7.9.9-.7-4.2.9.5-1.8-3.5 1.2.5c-.2 0-2-7.5-7.9-7.2z" fill="#2d3134"/></svg>