<?xml version="1.0" encoding="UTF-8" standalone="no"?>
<svg
   xmlns:dc="http://purl.org/dc/elements/1.1/"
   xmlns:cc="http://creativecommons.org/ns#"
   xmlns:rdf="http://www.w3.org/1999/02/22-rdf-syntax-ns#"
   xmlns:svg="http://www.w3.org/2000/svg"
   xmlns="http://www.w3.org/2000/svg"
   xmlns:sodipodi="http://sodipodi.sourceforge.net/DTD/sodipodi-0.dtd"
   xmlns:inkscape="http://www.inkscape.org/namespaces/inkscape"
   enable-background="new 0 0 80 240"
   viewBox="0 0 5.2283516 21.106758"
   version="1.1"
   id="svg1556"
   sodipodi:docname="city--woman06.svg"
   width="5.2283516"
   height="21.106758"
   inkscape:version="0.92.2 (5c3e80d, 2017-08-06)">
  <metadata
     id="metadata1562">
    <rdf:RDF>
      <cc:Work
         rdf:about="">
        <dc:format>image/svg+xml</dc:format>
        <dc:type
           rdf:resource="http://purl.org/dc/dcmitype/StillImage" />
        <dc:title></dc:title>
      </cc:Work>
    </rdf:RDF>
  </metadata>
  <defs
     id="defs1560" />
  <sodipodi:namedview
     pagecolor="#ffffff"
     bordercolor="#666666"
     borderopacity="1"
     objecttolerance="10"
     gridtolerance="10"
     guidetolerance="10"
     inkscape:pageopacity="0"
     inkscape:pageshadow="2"
     inkscape:window-width="870"
     inkscape:window-height="480"
     id="namedview1558"
     showgrid="false"
     fit-margin-top="0"
     fit-margin-left="0"
     fit-margin-right="0"
     fit-margin-bottom="0"
     inkscape:zoom="1.2791667"
     inkscape:cx="4.472418"
     inkscape:cy="18.132346"
     inkscape:window-x="0"
     inkscape:window-y="0"
     inkscape:window-maximized="1"
     inkscape:current-layer="svg1556" />
  <g
     id="g1580"
     transform="matrix(0.1,0,0,0.1,-1.2,-2.2045175)">
    <path
       id="path1524"
       d="m 24.8,208.9 c -9.5,5.8 -10.2,12.8 2.1,19.4 13.5,7.2 21.4,5.7 31.9,-0.4 9.2,-5.3 7.1,-12.5 -8.4,-18.7 -12.5,-5 -18.8,-4.5 -25.6,-0.3 z"
       inkscape:connector-curvature="0"
       style="opacity:0.2" />
    <path
       id="path1526"
       d="m 13.1,116.9 c 0.2,6.2 2.3,21.9 3.8,26.3 1.5,4.4 3.2,11.2 2.5,14.8 -0.8,3.6 -3,9.6 -1.7,18 1.4,8.3 5.5,21.2 4.6,26.9 -0.9,5.7 -2.7,8.4 -0.8,10.1 1.9,1.7 2.9,3 6.6,2.8 3.6,-0.2 4,0.2 6.6,1.5 2.6,1.3 9,0.5 9.4,-1.8 0.4,-2.3 -7.5,-1.3 -9.1,-4.1 -1.7,-2.8 -4.3,-9.3 -3.4,-15.6 0.9,-6.3 2.9,-23.1 2.9,-28.2 0.1,-3.8 2.4,-17.3 4.3,-24.6 2.5,-9.3 4.3,-29.6 4.3,-29.6 l -26.3,-9.6 c 0,-0.1 -3.9,6.1 -3.7,13.1 z"
       inkscape:connector-curvature="0"
       style="fill:#fbd7c7" />
    <path
       id="path1528"
       d="m 21.3,207.3 c 0,0 3,1.4 5,2.2 2.7,1.2 7.6,-0.8 7.6,-0.8 0,0 0.8,2.3 2.2,2.6 1.4,0.3 6.6,-0.5 7.8,0.1 1.2,0.6 4.6,1.6 2.2,3.5 -2.4,1.8 -7.9,4.4 -10.4,3.9 -2.6,-0.5 -7.2,-1.8 -8.4,-1.4 -1.2,0.4 -0.5,4.5 -0.5,4.5 l -2,1 -2.4,-1.2 c 0,0 0,-1.4 -0.3,-3 -0.4,-1.6 -2.1,-2.3 -2.1,-5.2 -0.1,-3 1.3,-6.2 1.3,-6.2 z"
       inkscape:connector-curvature="0"
       style="fill:#e5e5e5" />
    <path
       id="path1530"
       d="m 19.9,213.9 c 0.1,2.6 1.7,3.3 2.1,4.7 0.4,1.6 0.3,3 0.3,3 l 2.4,1.2 2,-1 c 0,0 -0.7,-4.1 0.5,-4.5 1.2,-0.4 5.9,0.9 8.4,1.4 2.5,0.5 8,-2 10.4,-3.9 0.7,-0.5 0.9,-1.1 0.8,-1.6 -1.4,1.1 -6.1,5.5 -14.1,3.5 -4.7,-1.1 -7.8,-0.9 -12.8,-2.8 z"
       inkscape:connector-curvature="0"
       style="opacity:0.4" />
    <path
       id="path1532"
       d="m 31.7,112.3 c 0,0 -4.7,7.4 -2.9,14 1.8,6.7 3.7,8.3 3.7,8.3 0,0 1.4,7.9 2.6,11.2 1.2,3.3 4.6,13.3 4.3,15.2 -0.3,1.9 -3.9,10.6 -3.5,17 0.4,6.4 1.9,20 2.4,25.5 0.4,5.3 0.8,6.7 -0.2,9.3 -1,2.7 -3.4,7.2 0.8,8.6 4.2,1.4 6.3,-0.1 9.3,2 3,2.1 8,2.8 9.8,0.5 1.8,-2.3 -3,-3.3 -3.7,-3.5 -0.7,-0.2 -4.3,-4.4 -5.1,-9.6 -0.9,-5.9 0.1,-19.1 1.5,-24.5 1.4,-5.4 1.4,-14.1 1.7,-16.5 0.3,-2.4 5.9,-16.9 5.9,-25.6 0,-8.7 -3.8,-26.1 -3.8,-26.1 z"
       inkscape:connector-curvature="0"
       style="fill:#fbd7c7" />
    <path
       id="path1534"
       d="m 37.7,213.3 c 0,0 3.3,1.2 5.8,2.3 1.5,0.6 4.5,0.5 5.4,0.3 0.9,-0.3 2,-0.7 2,-0.7 0,0 1.3,3.5 2.3,3.8 0.9,0.3 4.3,-0.7 6,1.1 1.8,1.8 1.3,2.8 0.4,3.9 -0.9,1 -4.4,3.5 -7.1,3 -1.9,-0.4 -7.9,-2.7 -9.1,-2.5 -1.2,0.3 -0.7,4.6 -0.7,4.6 l -2.3,1.1 -2,-1 c 0,0 -0.1,-2.1 -0.7,-3.6 -0.7,-1.4 -1.9,-3.1 -1.9,-6.2 0,-3.1 1.9,-6.1 1.9,-6.1 z"
       inkscape:connector-curvature="0"
       style="fill:#e5e5e5" />
    <path
       id="path1536"
       d="m 60.3,221.8 c -0.1,1.9 -5.3,4.8 -7.6,4.1 -6.9,-2.1 -12.6,-3.9 -16.9,-6.3 0,3 1.3,4.6 1.9,6 0.7,1.4 0.7,3.6 0.7,3.6 l 2,1 2.3,-1.1 c 0,0 -0.6,-4.4 0.7,-4.6 1.2,-0.3 7.2,2.1 9.1,2.5 2.6,0.5 6.2,-2 7.1,-3 0.6,-0.7 0.9,-1.4 0.7,-2.2 z"
       inkscape:connector-curvature="0"
       style="opacity:0.4" />
    <path
       id="path1538"
       d="m 29.1,115.7 c 0,0 -16,-3.2 -16.1,-2.3 -0.6,7.1 -0.4,16.8 1.2,22.9 1.7,6.8 3.5,16.5 2.9,22.1 -0.7,5.6 -0.8,14.9 0.1,22.6 0.9,7.7 1.8,15.7 1.8,15.7 0,0 3.5,2 7.6,2 4.1,0 6.8,-1 6.8,-1 0,0 1.3,-20.6 1.6,-25.9 0.3,-5.4 2.1,-19.2 2.1,-19.2 0,0 0.8,-16.5 -0.7,-21.7 -1.4,-5.4 -7.3,-15.2 -7.3,-15.2 z"
       inkscape:connector-curvature="0"
       style="fill:#993399" />
    <path
       id="path1540"
       d="m 29.1,115.7 c 0,0 -16,-3.2 -16.1,-2.3 -0.6,7.1 -0.4,16.8 1.2,22.9 1.7,6.8 3.5,16.5 2.9,22.1 -0.7,5.6 -0.8,14.9 0.1,22.6 0.9,7.7 1.8,15.7 1.8,15.7 0,0 3.5,2 7.6,2 4.1,0 6.8,-1 6.8,-1 0,0 1.3,-20.6 1.6,-25.9 0.3,-5.4 2.1,-19.2 2.1,-19.2 0,0 0.8,-16.5 -0.7,-21.7 -1.4,-5.4 -7.3,-15.2 -7.3,-15.2 z"
       inkscape:connector-curvature="0"
       style="opacity:0.15" />
    <path
       id="path1542"
       d="m 37.7,161.1 c -0.8,4.8 -2.5,9.4 -2.5,16 0,6.5 1.2,25.5 1.2,25.5 0,0 3.4,1.3 7.2,1.4 3.8,0.1 8.6,-1.2 8.6,-1.2 0,0 -0.3,-20.3 0.3,-24.4 0.5,-4.1 2.7,-13 4.6,-22.3 2.4,-11.4 1.4,-21.7 0,-27.9 -1.4,-6.2 -2.6,-11.8 -2.6,-11.8 0,0 -3.1,-1.8 -7.5,-4 l -21.1,1 c 0,0 -2.3,15.7 0.1,20.6 2.6,5.4 5.3,5.5 7.3,9.2 2.4,4.3 3.8,9.2 3.8,9.2 0,0 1.4,3.9 0.6,8.7 z"
       inkscape:connector-curvature="0"
       style="fill:#993399" />
    <path
       id="path1544"
       d="m 18.4,64.2 c 0,0 -3.7,13 -3.7,15.7 0,2.7 5.4,15.9 5.8,16.8 0.4,0.9 5.2,-4.1 5.2,-4.1 0,0 -2.9,-8.4 -2.9,-10.8 0,-2.4 1.8,-8.2 1.8,-8.2 z"
       inkscape:connector-curvature="0"
       style="fill:#fbd7c7" />
    <path
       id="path1546"
       d="m 34.6,51.7 c -1.3,-0.2 -9,-3.4 -12.8,-1.5 -2.7,1.3 -3.9,3.6 -4,5.7 -0.1,1.7 0.4,5.9 -0.2,8.3 -0.3,1.3 -0.9,4 -0.9,4 l 2.5,1.7 c 0,0 1,8.5 0.4,14.9 -0.6,6.4 -3,15.7 -5.1,20.4 -2.2,5.1 -2.5,9.6 -2.5,16.1 0,8 17.5,12.8 25.5,13 7.7,0.1 22.8,-1.3 22.5,-7.6 -0.8,-14.9 -4,-38.2 -2.3,-41 1.7,-2.8 4,-7.2 1,-11.9 -3,-4.7 -5.6,-6.7 -5.9,-7.7 -0.3,-1 -0.2,-3 -2.4,-5.1 C 48,58.5 41.7,52.9 34.6,51.7 Z"
       inkscape:connector-curvature="0"
       style="fill:#baa794" />
    <path
       id="path1548"
       d="m 31.2,24.4 c 6.9,-1.6 14.3,0.7 15.6,10.3 1.3,9.6 -1,11.7 -2.1,12.4 -1.1,0.7 -2.4,3.3 -2.9,4.9 -0.5,1.6 0.2,2.6 0.2,2.6 0,0 -7.7,4.5 -12.4,2.7 -4,-1.5 -4.5,-3.5 -2.8,-6.6 1.7,-3.1 -2.3,-5 -3.5,-9.6 C 21.9,36.7 22,26.5 31.2,24.4 Z"
       inkscape:connector-curvature="0"
       style="fill:#fbd7c7" />
    <path
       id="path1550"
       d="m 40,22.5 c 3.5,1.1 6.4,6 6.4,6 l -2.6,-1.5 2.5,3.7 -2.3,-1.6 2.2,5 -1.4,-0.7 c 0,0 0.8,1.8 0.3,4.6 -0.3,1.9 -1.4,3.4 -1.4,3.4 V 38 c 0,0 -0.3,4.4 -2.5,7.4 0,0 1,-4.5 0.6,-5.2 -0.4,-0.7 -0.9,1.6 -0.9,1.6 l -0.7,-2 -0.4,2.1 L 38,41 c 0,0 0.6,2.2 -1.1,5.6 -1,2 -3.9,4.8 -3.9,4.8 l 0.9,-4.3 -3.6,6.3 -0.9,-3.4 -0.6,2.4 -0.6,-1.8 -0.8,2 c 0,0 -0.9,-3.6 -1.3,-4.4 -0.3,-0.7 -0.8,0.7 -0.8,0.7 l -1.9,-4.7 -0.7,1.4 -0.8,-5.4 -0.6,1.1 -0.6,-5.5 -1.2,1.2 c 0,0 0.2,-5.4 1.9,-7.7 1.2,-1.7 2.4,-2 2.4,-2 l -1.7,-0.1 c 0,0 2.7,-3.9 7,-4.4 3.7,-0.5 4.1,0.3 4.1,0.3 0,0 2.7,-1.9 6.8,-0.6 z"
       inkscape:connector-curvature="0"
       style="fill:#2d3134" />
    <path
       id="path1552"
       d="m 56.9,82.4 c -3.2,1.3 -5.6,0.6 -5.6,0.6 0,0 -0.4,2.2 -0.4,4.2 0,1.2 0.1,3 0.1,3 0,0 3.7,-2 6.7,-4.5 0,0 0,-0.1 0.1,-0.1 0.9,-1.5 2,-3.4 2.3,-5.6 -0.8,1 -1.9,1.9 -3.2,2.4 z"
       inkscape:connector-curvature="0"
       style="opacity:0.15" />
    <path
       id="path1554"
       d="m 40.4,81.1 c 0,0 3.8,0.9 6.4,0.5 2.6,-0.4 4.9,-1.4 4.9,-1.4 0,0 -0.6,5.3 -0.5,9.3 0.1,3.9 -0.2,7.3 1.7,11.8 1.9,4.5 3.1,12.6 4.3,15.1 1.2,2.5 5.2,7.9 5.2,10.1 0,2.2 0,7.3 -0.8,8.6 -0.8,1.2 -4,4.4 -5.4,3.8 -1.4,-0.6 -0.9,-5.5 -0.9,-6.3 0,-0.8 0.8,-4.1 0.2,-5.2 -0.6,-1 -8.8,-12.9 -10.4,-16.8 C 43.5,106.7 40.7,98.9 40.5,92.5 40.3,86.1 40.4,81.1 40.4,81.1 Z"
       inkscape:connector-curvature="0"
       style="fill:#fbd7c7" />
  </g>
</svg>
