<?xml version="1.0" encoding="UTF-8" standalone="no"?>
<svg
   xmlns:dc="http://purl.org/dc/elements/1.1/"
   xmlns:cc="http://creativecommons.org/ns#"
   xmlns:rdf="http://www.w3.org/1999/02/22-rdf-syntax-ns#"
   xmlns:svg="http://www.w3.org/2000/svg"
   xmlns="http://www.w3.org/2000/svg"
   xmlns:sodipodi="http://sodipodi.sourceforge.net/DTD/sodipodi-0.dtd"
   xmlns:inkscape="http://www.inkscape.org/namespaces/inkscape"
   enable-background="new 0 0 160 240"
   viewBox="0 0 8.2625046 23.273703"
   version="1.1"
   id="svg782"
   sodipodi:docname="city--basicwoman11.svg"
   width="8.2625046"
   height="23.273703"
   inkscape:version="0.92.2 (5c3e80d, 2017-08-06)">
  <metadata
     id="metadata788">
    <rdf:RDF>
      <cc:Work
         rdf:about="">
        <dc:format>image/svg+xml</dc:format>
        <dc:type
           rdf:resource="http://purl.org/dc/dcmitype/StillImage" />
        <dc:title></dc:title>
      </cc:Work>
    </rdf:RDF>
  </metadata>
  <defs
     id="defs786" />
  <sodipodi:namedview
     pagecolor="#ffffff"
     bordercolor="#666666"
     borderopacity="1"
     objecttolerance="10"
     gridtolerance="10"
     guidetolerance="10"
     inkscape:pageopacity="0"
     inkscape:pageshadow="2"
     inkscape:window-width="880"
     inkscape:window-height="480"
     id="namedview784"
     showgrid="false"
     fit-margin-top="0"
     fit-margin-left="0"
     fit-margin-right="0"
     fit-margin-bottom="0"
     inkscape:zoom="1.2791667"
     inkscape:cx="18.691349"
     inkscape:cy="11.59314"
     inkscape:window-x="0"
     inkscape:window-y="0"
     inkscape:window-maximized="1"
     inkscape:current-layer="svg782" />
  <g
     id="g802"
     transform="matrix(0.1,0,0,0.1,-2.8036174,-0.358778)">
    <path
       id="path758"
       d="m 88.2,110.5 c 2.7,3.2 6.4,7.3 5.6,15.1 -0.9,7.7 -1.4,20.1 -1.4,20.1 0,0 3.5,-1 4.6,-1.2 0.7,-0.1 2.2,-0.8 1.9,2 -0.3,2.8 -6.5,21.1 -10,22.1 -3.5,1 -10.1,-7.7 -10.3,-9.5 -0.1,-1.8 -2.7,-18.4 -2.9,-19 -0.2,-0.6 9.3,-10.3 8.5,-16.3 -0.8,-6 -1.1,-10.7 -1.1,-10.7 z"
       inkscape:connector-curvature="0"
       style="fill:#cc291f" />
    <path
       id="path760"
       d="m 88.2,110.5 c 2.7,3.2 6.4,7.3 5.6,15.1 -0.9,7.7 -1.4,20.1 -1.4,20.1 0,0 3.5,-1 4.6,-1.2 0.7,-0.1 2.2,-0.8 1.9,2 -0.3,2.8 -6.5,21.1 -10,22.1 -3.5,1 -10.1,-7.7 -10.3,-9.5 -0.1,-1.8 -2.7,-18.4 -2.9,-19 -0.2,-0.6 9.3,-10.3 8.5,-16.3 -0.8,-6 -1.1,-10.7 -1.1,-10.7 z"
       inkscape:connector-curvature="0"
       style="opacity:0.2" />
    <path
       id="path762"
       d="m 66.9,199.6 c -12.1,6.8 -6.4,10.5 2.1,17.7 7.7,6.5 25.1,23.1 38.2,18.1 6.4,-2.5 3.2,-14 -3.7,-21.4 -8.6,-9.4 -20.7,-23.3 -36.6,-14.4 z"
       inkscape:connector-curvature="0"
       style="opacity:0.2" />
    <path
       id="path764"
       d="m 88.9,62.9 8.4,4.3 c 0,0 3.5,-9.4 6.7,-14.9 3.2,-5.5 4.8,-8.4 5.2,-10.1 0.4,-1.7 -1,-8.4 -2.1,-12.4 -1,-4 -3.3,-10.9 -3,-13.2 0.3,-2.3 0.9,-6.4 1.5,-7.7 0.9,-2.1 2.3,-3.6 1.7,-4 -0.6,-0.5 -1.4,0.9 -1.9,2 -0.4,0.8 -1,2 -1,2 0,0 1.2,-2.7 1.5,-3.3 0.3,-0.6 1,-1.5 0.4,-1.8 -0.8,-0.4 -1.3,0.7 -1.8,1.8 -0.3,0.8 -0.7,1.6 -0.7,1.6 0,0 0.4,-1 0.7,-2 0.2,-0.8 0.4,-1.5 -0.1,-1.6 -1.2,-0.2 -1.4,2.1 -2,3.6 -0.3,1 -0.9,3.1 -0.9,3.1 0,0 -0.5,-2.1 -0.8,-2.8 -0.3,-0.8 -0.2,-2.4 -1,-2.2 -0.9,0.2 -0.5,2.1 -0.3,3.2 0.3,1 0.9,2.8 0.5,3.8 -0.4,0.9 -1.8,1.8 -1.8,1.8 0,0 0.1,-1.8 -0.8,-2.6 -0.9,-0.8 -1.4,-0.8 -1.9,-0.5 -0.4,0.3 0.4,1.2 0.6,2.2 0.2,1 0.3,2.3 0.6,2.7 0.3,0.4 2.2,1.3 2.7,2.7 0.5,1.3 0.9,9 1.2,13.3 0.3,4.3 1.6,8.9 1.1,9.6 -0.5,0.7 -5.3,5.9 -7.7,9.9 -2.4,4 -5,11.5 -5,11.5 z"
       inkscape:connector-curvature="0"
       style="fill:#fbd7c7" />
    <path
       id="path766"
       d="m 84.8,159.7 c -2.8,-0.6 -8.6,8.1 -8.5,10.7 0.1,2.6 2.2,6.9 3.1,8.2 0.9,1.3 2.8,4.2 4.5,4.3 1.9,0 1.9,-0.2 2,-0.9 0.1,-0.7 -2.9,-10.8 -2.6,-12.3 0.3,-1.6 2.9,-9.6 1.5,-10 z"
       inkscape:connector-curvature="0"
       style="fill:#ffffff" />
    <path
       id="path768"
       d="m 84.9,159.8 c 0.2,-0.8 1.8,-0.3 2.1,1.6 0.3,1.9 -0.7,7.9 -0.9,10.3 -0.2,2.4 1.3,9.4 1,10.3 -0.3,0.9 -1.5,1.4 -2.4,0.6 -1,-1 -0.9,-5.7 -1.6,-8.4 -0.7,-2.7 -1.5,-3.5 -0.5,-6.5 1.2,-3 2.2,-7.6 2.3,-7.9 z"
       inkscape:connector-curvature="0"
       style="fill:#262626" />
    <path
       id="path770"
       d="m 83.6,114.1 c 0,0 4.8,12 0.6,18.4 -4.2,6.4 -7.6,7.3 -9.1,9.9 -1.5,2.7 -7.2,11.7 -6.7,12.1 0.5,0.4 8.1,1.4 10.2,1.5 2.2,0.1 6,0.5 6.9,2.2 0.9,1.7 0.5,1.4 0.5,1.4 0,0 -3.6,1.3 -5.6,4 -2,2.7 -3.4,6.6 -3.4,8.6 0,2 0.1,3.2 -0.1,3.1 -0.2,-0.1 -5.4,-6.3 -7.7,-7.1 -2.3,-0.8 -8.8,-0.7 -11.9,-0.6 -2.3,0.1 -4.1,-0.8 -5,-3.1 -0.9,-2.4 0.2,-6.8 0.5,-12 0.5,-6.4 2.8,-17.9 6.1,-24.8 2.9,-6.2 6.6,-11 6.6,-11 z"
       inkscape:connector-curvature="0"
       style="fill:#cc291f" />
    <path
       id="path772"
       d="M 75.7,72.2 C 80,69.5 88.1,60.6 88.5,60.7 c 0.4,0.1 3.1,1.6 5.1,2.7 2,1.1 4.8,2.5 5,2.8 0.1,0.3 -1.6,9.2 -3.2,13.6 -1.6,4.4 -8.1,21.3 -7.6,24.3 0.5,3 2.2,6.2 3.5,8.1 1.2,1.9 2.5,4.1 1.9,4.5 -0.6,0.4 -4.5,0.1 -10.5,1.5 -5.6,1.3 -15.9,5.6 -21.8,4.9 -0.5,-0.1 0.6,-5.7 1,-11 0.5,-5.3 1.4,-15.1 0.9,-16.4 -0.5,-1.4 -6.3,-7.1 -2.9,-11.1 3.4,-4 15.8,-12.4 15.8,-12.4 z"
       inkscape:connector-curvature="0"
       style="fill:#ffcc00" />
    <path
       id="path774"
       d="m 62.4,49.3 c 3.8,-4.5 12,-5.8 17.2,-1.8 5.2,4 8.1,10.3 11.7,14 3.6,3.7 6.5,14.1 -3.5,19.4 -10.1,5.3 -22.1,-0.8 -23.4,-5.4 1.4,-0.1 2.9,-1.4 2.2,-4.2 -0.7,-2.7 -10.2,-14.9 -4.2,-22 z"
       inkscape:connector-curvature="0"
       style="fill:#825012" />
    <path
       id="path776"
       d="m 68.9,93.9 c 0.8,-0.5 3.2,-5.3 1.1,-9.2 -2.1,-3.9 -6.7,-0.3 -10.2,1 -3.3,1.1 -5.4,2.9 -6.2,2.9 -0.8,0 -4.4,-2.5 -8.3,-3.7 -3.9,-1.2 -6.3,-2 -7.8,-4.1 -1.4,-2.1 -2.2,-4.9 -2.9,-5 -0.7,-0.1 -1.1,0.6 -1.1,0.6 0,0 -0.3,-1.3 -0.4,-2.6 -0.1,-1.3 0.1,-2.7 -0.9,-2.7 -1,0 -0.6,2.6 -0.5,3.9 0.1,0.7 0.2,2.4 0.2,2.4 0,0 -1.3,-2.2 -1.9,-1.4 -0.6,0.8 0.3,2.3 0.7,2.9 0.4,0.6 0.6,1.5 0.3,1.7 -0.3,0.2 -2.2,-0.4 -2.6,0.5 -0.4,0.9 1.9,1.3 1.9,1.4 0,0.1 -1.6,0.7 -2,1 -0.3,0.4 -0.4,1.2 0,1.4 0.4,0.1 1.7,-1.2 3.4,-0.7 1.7,0.5 7,2.3 10.8,5.5 3.8,3.2 9.2,7.4 10.8,7.2 1.6,-0.1 6,-2.4 9.3,-2.7 3.2,-0.1 6.3,-0.3 6.3,-0.3 z"
       inkscape:connector-curvature="0"
       style="fill:#fbd7c7" />
    <path
       id="path778"
       d="m 95,146.2 c -1.4,1.3 -6.4,10.1 -5.9,12.1 0.5,2 2.5,2 3.7,3.3 1.2,1.2 5.3,5.9 6.6,6 1.3,0.1 2.8,-0.6 2.9,-0.9 0.1,-0.3 -2.4,-21.6 -4.2,-21.6 -1.9,0 -2.1,0.1 -3.1,1.1 z"
       inkscape:connector-curvature="0"
       style="fill:#ffffff" />
    <path
       id="path780"
       d="m 96.5,146.1 c 0.6,-1 2.3,-2.3 3.7,1.2 1.4,3.5 -0.6,5.2 1.3,12.2 0.5,1.7 2.9,6 2,6.9 -0.9,0.9 -1.6,0.9 -2.3,0.4 -0.7,-0.5 -4.9,-6.9 -5.2,-9.6 -0.2,-2.8 -0.4,-9.6 0.5,-11.1 z"
       inkscape:connector-curvature="0"
       style="fill:#262626" />
  </g>
</svg>
