<svg enable-background="new 0 0 160 240" viewBox="0 0 160 240" xmlns="http://www.w3.org/2000/svg"><path d="m88.2 110.5c2.7 3.2 6.4 7.3 5.6 15.1-.9 7.7-1.4 20.1-1.4 20.1s3.5-1 4.6-1.2c.7-.1 2.2-.8 1.9 2s-6.5 21.1-10 22.1-10.1-7.7-10.3-9.5c-.1-1.8-2.7-18.4-2.9-19s9.3-10.3 8.5-16.3-1.1-10.7-1.1-10.7z" fill="#cc291f"/><path d="m88.2 110.5c2.7 3.2 6.4 7.3 5.6 15.1-.9 7.7-1.4 20.1-1.4 20.1s3.5-1 4.6-1.2c.7-.1 2.2-.8 1.9 2s-6.5 21.1-10 22.1-10.1-7.7-10.3-9.5c-.1-1.8-2.7-18.4-2.9-19s9.3-10.3 8.5-16.3-1.1-10.7-1.1-10.7z" opacity=".2"/><path d="m66.9 199.6c-12.1 6.8-6.4 10.5 2.1 17.7 7.7 6.5 25.1 23.1 38.2 18.1 6.4-2.5 3.2-14-3.7-21.4-8.6-9.4-20.7-23.3-36.6-14.4z" opacity=".2"/><path d="m88.9 62.9 8.4 4.3s3.5-9.4 6.7-14.9 4.8-8.4 5.2-10.1-1-8.4-2.1-12.4c-1-4-3.3-10.9-3-13.2s.9-6.4 1.5-7.7c.9-2.1 2.3-3.6 1.7-4-.6-.5-1.4.9-1.9 2-.4.8-1 2-1 2s1.2-2.7 1.5-3.3 1-1.5.4-1.8c-.8-.4-1.3.7-1.8 1.8-.3.8-.7 1.6-.7 1.6s.4-1 .7-2c.2-.8.4-1.5-.1-1.6-1.2-.2-1.4 2.1-2 3.6-.3 1-.9 3.1-.9 3.1s-.5-2.1-.8-2.8c-.3-.8-.2-2.4-1-2.2-.9.2-.5 2.1-.3 3.2.3 1 .9 2.8.5 3.8-.4.9-1.8 1.8-1.8 1.8s.1-1.8-.8-2.6-1.4-.8-1.9-.5c-.4.3.4 1.2.6 2.2s.3 2.3.6 2.7 2.2 1.3 2.7 2.7c.5 1.3.9 9 1.2 13.3s1.6 8.9 1.1 9.6-5.3 5.9-7.7 9.9-5 11.5-5 11.5z" fill="#fbd7c7"/><path d="m84.8 159.7c-2.8-.6-8.6 8.1-8.5 10.7s2.2 6.9 3.1 8.2 2.8 4.2 4.5 4.3c1.9 0 1.9-.2 2-.9s-2.9-10.8-2.6-12.3c.3-1.6 2.9-9.6 1.5-10z" fill="#fff"/><path d="m84.9 159.8c.2-.8 1.8-.3 2.1 1.6s-.7 7.9-.9 10.3 1.3 9.4 1 10.3-1.5 1.4-2.4.6c-1-1-.9-5.7-1.6-8.4s-1.5-3.5-.5-6.5c1.2-3 2.2-7.6 2.3-7.9z" fill="#262626"/><path d="m83.6 114.1s4.8 12 .6 18.4-7.6 7.3-9.1 9.9c-1.5 2.7-7.2 11.7-6.7 12.1s8.1 1.4 10.2 1.5c2.2.1 6 .5 6.9 2.2s.5 1.4.5 1.4-3.6 1.3-5.6 4-3.4 6.6-3.4 8.6.1 3.2-.1 3.1-5.4-6.3-7.7-7.1-8.8-.7-11.9-.6c-2.3.1-4.1-.8-5-3.1-.9-2.4.2-6.8.5-12 .5-6.4 2.8-17.9 6.1-24.8 2.9-6.2 6.6-11 6.6-11z" fill="#cc291f"/><path d="m75.7 72.2c4.3-2.7 12.4-11.6 12.8-11.5s3.1 1.6 5.1 2.7 4.8 2.5 5 2.8c.1.3-1.6 9.2-3.2 13.6s-8.1 21.3-7.6 24.3 2.2 6.2 3.5 8.1c1.2 1.9 2.5 4.1 1.9 4.5s-4.5.1-10.5 1.5c-5.6 1.3-15.9 5.6-21.8 4.9-.5-.1.6-5.7 1-11 .5-5.3 1.4-15.1.9-16.4-.5-1.4-6.3-7.1-2.9-11.1s15.8-12.4 15.8-12.4z" fill="#fc0"/><path d="m62.4 49.3c3.8-4.5 12-5.8 17.2-1.8s8.1 10.3 11.7 14 6.5 14.1-3.5 19.4c-10.1 5.3-22.1-.8-23.4-5.4 1.4-.1 2.9-1.4 2.2-4.2-.7-2.7-10.2-14.9-4.2-22z" fill="#825012"/><path d="m68.9 93.9c.8-.5 3.2-5.3 1.1-9.2s-6.7-.3-10.2 1c-3.3 1.1-5.4 2.9-6.2 2.9s-4.4-2.5-8.3-3.7-6.3-2-7.8-4.1c-1.4-2.1-2.2-4.9-2.9-5s-1.1.6-1.1.6-.3-1.3-.4-2.6.1-2.7-.9-2.7-.6 2.6-.5 3.9c.1.7.2 2.4.2 2.4s-1.3-2.2-1.9-1.4.3 2.3.7 2.9.6 1.5.3 1.7-2.2-.4-2.6.5 1.9 1.3 1.9 1.4-1.6.7-2 1c-.3.4-.4 1.2 0 1.4.4.1 1.7-1.2 3.4-.7s7 2.3 10.8 5.5 9.2 7.4 10.8 7.2c1.6-.1 6-2.4 9.3-2.7 3.2-.1 6.3-.3 6.3-.3z" fill="#fbd7c7"/><path d="m95 146.2c-1.4 1.3-6.4 10.1-5.9 12.1s2.5 2 3.7 3.3c1.2 1.2 5.3 5.9 6.6 6s2.8-.6 2.9-.9-2.4-21.6-4.2-21.6c-1.9 0-2.1.1-3.1 1.1z" fill="#fff"/><path d="m96.5 146.1c.6-1 2.3-2.3 3.7 1.2s-.6 5.2 1.3 12.2c.5 1.7 2.9 6 2 6.9s-1.6.9-2.3.4-4.9-6.9-5.2-9.6c-.2-2.8-.4-9.6.5-11.1z" fill="#262626"/></svg>