<?xml version="1.0" encoding="UTF-8" standalone="no"?>
<svg
   xmlns:dc="http://purl.org/dc/elements/1.1/"
   xmlns:cc="http://creativecommons.org/ns#"
   xmlns:rdf="http://www.w3.org/1999/02/22-rdf-syntax-ns#"
   xmlns:svg="http://www.w3.org/2000/svg"
   xmlns="http://www.w3.org/2000/svg"
   xmlns:sodipodi="http://sodipodi.sourceforge.net/DTD/sodipodi-0.dtd"
   xmlns:inkscape="http://www.inkscape.org/namespaces/inkscape"
   enable-background="new 0 0 240 160"
   viewBox="0 0 18.803011 11.410418"
   version="1.1"
   id="svg2470"
   sodipodi:docname="city--woman17.svg"
   width="18.803011"
   height="11.410418"
   inkscape:version="0.92.2 (5c3e80d, 2017-08-06)">
  <metadata
     id="metadata2476">
    <rdf:RDF>
      <cc:Work
         rdf:about="">
        <dc:format>image/svg+xml</dc:format>
        <dc:type
           rdf:resource="http://purl.org/dc/dcmitype/StillImage" />
        <dc:title></dc:title>
      </cc:Work>
    </rdf:RDF>
  </metadata>
  <defs
     id="defs2474" />
  <sodipodi:namedview
     pagecolor="#ffffff"
     bordercolor="#666666"
     borderopacity="1"
     objecttolerance="10"
     gridtolerance="10"
     guidetolerance="10"
     inkscape:pageopacity="0"
     inkscape:pageshadow="2"
     inkscape:window-width="870"
     inkscape:window-height="480"
     id="namedview2472"
     showgrid="false"
     fit-margin-top="0"
     fit-margin-left="0"
     fit-margin-right="0"
     fit-margin-bottom="0"
     inkscape:zoom="0.98333333"
     inkscape:cx="18.816555"
     inkscape:cy="-4.6800888"
     inkscape:window-x="0"
     inkscape:window-y="0"
     inkscape:window-maximized="1"
     inkscape:current-layer="svg2470" />
  <g
     id="g2485"
     transform="matrix(0.1,0,0,0.1,-1.6569899,-1.2562613)">
    <path
       id="path2456"
       d="m 162.2,25 41.2,20.4 c 1.6,0.8 1.6,3 0,3.8 l -4.7,2.4 c -1.2,0.6 -2.5,1.1 -3.7,1.6 l -34.3,10.1 c -5.2,1.5 -10.1,4.1 -14.4,7.5 L 112,98.2 c -1.2,1 -2.6,1.8 -4,2.6 -2.6,1.3 -5.5,2.1 -8.5,2.3 l -44,0.3 c -7.4,0.2 -14.3,3.9 -18.6,10 l -3.6,5.1 c -2.2,3.2 -5.3,5.8 -8.8,7.6 -1.8,0.9 -4,0.7 -5.6,-0.4 -1.7,-1.2 -2.5,-3.2 -2.3,-5.2 l 2.5,-18.2 c 0.3,-2.2 1.9,-4 4,-4.6 L 33.2,94.9 46.3,90.7 87,60.8 Z"
       inkscape:connector-curvature="0"
       style="opacity:0.2;fill:#202426" />
    <path
       id="path2458"
       d="m 22.5,126.2 c 2,-0.1 4.3,-4.9 6,-8.3 1.7,-3.4 4.5,-5.6 7.2,-8.1 2.7,-2.5 11.1,-7.8 11.1,-7.8 0,0 4.9,-0.6 8.1,-0.6 3.2,0 12.2,1.1 21.5,1.8 9.3,0.7 21.2,-0.1 24.6,-1.1 3.4,-1 21.6,-12.1 28.8,-18.7 7.2,-6.6 12.3,-14.7 14.9,-17 2.5,-2.3 8.6,-5.2 12.3,-6.5 3.7,-1.3 13.6,-2.3 18.9,-3.8 5.4,-1.5 17,-3.3 21.5,-4 4.5,-0.7 5.8,-3.5 6.2,-6 0.4,-2.5 -2.9,-4.6 -4.4,-5.3 -1.4,-0.7 -13.2,-4.1 -16.3,-4.9 -3.1,-0.8 -6.4,-2.8 -6.4,-2.8 -2,-1.5 -8.6,-5.4 -9.9,-3.4 -1.3,2 3.3,6.4 5,7.2 1.6,0.8 5,2.9 6.2,3.3 1.2,0.4 8.8,4 8.8,4 0,0 -5.3,-0.4 -11.2,-0.3 -5.9,0.1 -7.5,-2.7 -9.5,-3.8 -2,-1.1 -7.6,-7.1 -10.6,-9.4 -3,-2.3 -6.9,-5.3 -6.9,-5.3 l -3.1,4.4 c 0,0 -8.3,7.7 -9.8,8.7 -1.5,1 -8.8,8.1 -9.6,8.7 -0.8,0.6 -4.4,0.9 -10,2.2 -5.6,1.3 -8.9,2 -18.9,6.5 C 87,60.4 78.3,69.1 74.5,71 70.7,72.9 63.5,76 58,79.5 52.5,83 44.5,92 44.5,92 c 0,0 -2.1,-1 -4.9,-0.9 -2.7,0.1 -3.3,2.5 -5.3,3.4 -1.9,0.9 -9.3,1.9 -12.1,2.2 -2.8,0.3 -3.4,1.2 -4,3.2 -0.6,2 2.7,4.9 4,5 1.3,0.1 6.4,-0.9 6.4,-0.9 0,0 -4.6,1.8 -6.6,2.9 -2,1.1 -0.8,2.6 -1,3.4 -0.2,0.8 -1.9,2.6 -3,5.8 -1.1,3.3 2.4,10.2 4.5,10.1 z M 61.3,92.9 c 0,0 5.9,-2.7 8.3,-4.7 2.4,-1.9 5.5,-5.7 7.5,-6.7 2,-1 11.9,-2 18.8,-4.7 6.9,-2.6 13.6,-6.5 13.6,-6.5 l 2.1,1.6 c 0,0 -6.8,7.9 -9.6,11 -2.8,3.1 -7.5,9.3 -7.5,9.3 0,0 -5.8,-2.3 -12.2,-2 -6.5,0.4 -21,2.7 -21,2.7 z"
       inkscape:connector-curvature="0"
       style="fill:#fbd7c7" />
    <path
       id="path2460"
       d="m 183.8,16.6 c 3.6,2.1 3.8,7.2 2,10.1 -1.8,2.9 -4.9,6.3 -7,7.3 -2.1,1 -6.8,1.2 -8.1,2 -3,1.9 -3.3,5.7 -3.3,5.7 0,0 -5.5,-4 -7.2,-5.3 -1.7,-1.2 -4.8,-5.4 -4.8,-5.4 0,0 4.5,0.6 7.1,-1.1 2.6,-1.7 3.1,-6.1 5.3,-8.5 2,-2.2 7.7,-9.5 16,-4.8 z"
       inkscape:connector-curvature="0"
       style="fill:#fbd7c7" />
    <path
       id="path2462"
       d="m 142.6,68.4 -1.4,2.6 c 0,0 -9.6,-1.3 -14.4,-1.4 -4.8,-0.1 -12.9,0.8 -13.9,1.4 -1,0.6 -1.3,1 -1.3,1 l -2.1,-1.6 c 0,0 2.1,-4.5 3,-7.3 0.9,-2.8 1,-13.5 1,-13.5 l 3.4,-1.1 c 0,0 1.7,7.5 6,10.8 4.3,3.4 19.7,9.1 19.7,9.1 z"
       inkscape:connector-curvature="0"
       style="fill:#262626" />
    <path
       id="path2464"
       d="m 148.3,25.4 c -3,-2.1 -7.9,-0.9 -11.4,2.2 -3.5,3.1 -12.1,11.2 -14,11.8 -1.8,0.6 -9.1,4.8 -10.6,5.2 -1.5,0.4 -5.4,2.7 -7.5,5.3 -2.1,2.5 -5.7,6.5 -4.3,8.1 1.4,1.6 3.7,1.6 4.6,0.3 0.8,-1.3 5.8,-4.8 5.8,-4.8 0,0 -1.4,2.5 -1.7,3.3 -0.3,0.8 -0.2,2.7 0.4,2.7 0.6,0 2.5,-3.8 3,-4 0.5,-0.2 1.5,-2.2 1.7,-3.3 0.2,-1.1 0.8,-3.1 0.8,-3.1 0,0 5.7,-3.2 9,-4 3.3,-0.8 7.8,-3.2 8.8,-4.3 1,-1 11.9,-10.3 11.9,-10.3 0,0 6.5,-3 3.5,-5.1 z"
       inkscape:connector-curvature="0"
       style="fill:#fbd7c7" />
    <path
       id="path2466"
       d="m 167,40.5 c 0,0 -8.7,-0.8 -11.5,0 -2.8,0.8 -6.4,2.4 -6.4,2.4 L 146,40.3 c 0,0 2.4,-5 3.8,-6.5 1.4,-1.5 3.7,-4.8 3.7,-4.8 l -0.8,-0.4 c 0,0 -3.2,1.2 -5.3,1.7 -2,0.5 -5.9,0.1 -9,2.3 -3.1,2.2 -2.5,4.7 -2.5,4.7 0,0 -0.3,1.9 3.5,3.2 3.8,1.3 5.6,1.5 6.7,2.3 1.1,0.8 1.8,5.9 3.6,8.5 3.4,4.8 7.7,8.6 7.7,8.6 l 2.7,-1 c 0,0 -1.9,-2.6 -1.2,-6.3 1.4,-7.4 9,-11.6 9,-11.6 z"
       inkscape:connector-curvature="0"
       style="fill:#262626" />
    <path
       id="path2468"
       d="m 181.5,20.5 c 2.5,1.1 4.1,4.5 2.1,7.6 -2,3.1 -8.1,5.9 -10.4,6.6 -2.3,0.7 -5.9,0.1 -6.9,2.7 -0.9,2.6 -0.8,5.4 1.2,6.5 2,1.1 3.8,0.4 6.7,-1.3 1.4,-0.9 10.1,-7.6 11.9,-13.8 1.8,-6.2 1,-9.8 -1.6,-12.4 -2.8,-2.9 -8.1,-4.6 -12.7,-3.5 -4.6,1.1 -10.1,4.5 -12.7,7.2 -3.2,3.3 -6.8,7.6 -10.9,8.5 -8.8,1.9 -5.4,7.5 4.2,6.4 2.2,-0.2 5.2,-2.9 7.6,-3.1 2.7,-0.3 4.7,-2 5.7,-4.3 0.9,-2.3 3.1,-3.2 8,-4.7 4.1,-1.4 5.5,-3.4 7.8,-2.4 z"
       inkscape:connector-curvature="0"
       style="fill:#762c07" />
  </g>
</svg>
