<?xml version="1.0" encoding="UTF-8" standalone="no"?>
<svg
   xmlns:dc="http://purl.org/dc/elements/1.1/"
   xmlns:cc="http://creativecommons.org/ns#"
   xmlns:rdf="http://www.w3.org/1999/02/22-rdf-syntax-ns#"
   xmlns:svg="http://www.w3.org/2000/svg"
   xmlns="http://www.w3.org/2000/svg"
   xmlns:sodipodi="http://sodipodi.sourceforge.net/DTD/sodipodi-0.dtd"
   xmlns:inkscape="http://www.inkscape.org/namespaces/inkscape"
   enable-background="new 0 0 160 240"
   viewBox="0 0 11.171824 18.359926"
   version="1.1"
   id="svg696"
   sodipodi:docname="city--basicwoman10.svg"
   width="11.171824"
   height="18.359926"
   inkscape:version="0.92.2 (5c3e80d, 2017-08-06)">
  <metadata
     id="metadata702">
    <rdf:RDF>
      <cc:Work
         rdf:about="">
        <dc:format>image/svg+xml</dc:format>
        <dc:type
           rdf:resource="http://purl.org/dc/dcmitype/StillImage" />
        <dc:title></dc:title>
      </cc:Work>
    </rdf:RDF>
  </metadata>
  <defs
     id="defs700" />
  <sodipodi:namedview
     pagecolor="#ffffff"
     bordercolor="#666666"
     borderopacity="1"
     objecttolerance="10"
     gridtolerance="10"
     guidetolerance="10"
     inkscape:pageopacity="0"
     inkscape:pageshadow="2"
     inkscape:window-width="880"
     inkscape:window-height="480"
     id="namedview698"
     showgrid="false"
     fit-margin-top="0"
     fit-margin-left="0"
     fit-margin-right="0"
     fit-margin-bottom="0"
     inkscape:zoom="1.2791667"
     inkscape:cx="12.552398"
     inkscape:cy="25.111841"
     inkscape:window-x="0"
     inkscape:window-y="0"
     inkscape:window-maximized="1"
     inkscape:current-layer="svg696" />
  <g
     id="g716"
     transform="matrix(0.1,0,0,0.1,-2.1083186,-4.4132245)">
    <path
       id="path672"
       d="m 109.5,79.5 c 1.5,-0.8 4.7,-4.8 5.6,-4.8 0.9,0 6.2,2.5 5.1,4.3 -1.1,1.9 -5,4 -6.4,4 -1.4,0 -1.1,-0.3 -2.3,0.1 -1.2,0.4 -2.2,1.3 -2.2,1.3 z"
       inkscape:connector-curvature="0"
       style="fill:#fbd7c7" />
    <path
       id="path674"
       d="m 35,226.9 c 9.5,4.5 40.3,-10.4 58.5,-17.5 13.5,-5.3 46.2,-17.7 38,-22 -5.6,-3 -26.6,4.7 -45.5,11.5 -19.6,7.1 -59,24.2 -51,28 z"
       inkscape:connector-curvature="0"
       style="opacity:0.2" />
    <path
       id="path676"
       d="m 117.7,185.4 c 0.7,-2.2 4.6,-13.1 9.6,-10.6 4.9,2.5 3.4,7.2 2.1,9.9 -1.3,2.8 -4.6,6.6 -7.9,8.9 -3.2,2.2 -3.8,-8.2 -3.8,-8.2 z"
       inkscape:connector-curvature="0"
       style="fill:#262626" />
    <path
       id="path678"
       d="m 120.8,192.3 c 0,0 5.6,-4.2 7.4,-8 1.8,-3.6 1.9,-7.1 -1.5,-9.2 -3.4,-2.1 -6.2,3.2 -7.9,6.4 -1.6,3.2 -2,4.6 -2,4.6 z"
       inkscape:connector-curvature="0"
       style="fill:#ffffff" />
    <path
       id="path680"
       d="m 79.5,114.4 c -5.6,3.9 -6.9,5 -11.1,12.7 -5.7,10.5 -10.6,34.3 -13.1,35.9 -5,3.2 -13,10.1 -20.3,19.3 -6.6,8.2 -15.5,12.9 -6.1,18.4 9.4,5.5 8.3,-1.2 12.6,-6.3 4.3,-5.1 13.7,-15.7 19,-18.3 5.2,-2.6 8.5,-9.6 15.2,-20.2 6.7,-10.6 16.1,-20.2 18.1,-29.3 2,-9.1 -14.3,-12.2 -14.3,-12.2 z"
       inkscape:connector-curvature="0"
       style="fill:#cc291f" />
    <path
       id="path682"
       d="m 79.5,114.4 c -5.6,3.9 -6.9,5 -11.1,12.7 -5.7,10.5 -10.6,34.3 -13.1,35.9 -5,3.2 -13,10.1 -20.3,19.3 -6.6,8.2 -15.5,12.9 -6.1,18.4 9.4,5.5 8.3,-1.2 12.6,-6.3 4.3,-5.1 13.7,-15.7 19,-18.3 5.2,-2.6 8.5,-9.6 15.2,-20.2 6.7,-10.6 16.1,-20.2 18.1,-29.3 2,-9.1 -14.3,-12.2 -14.3,-12.2 z"
       inkscape:connector-curvature="0"
       style="opacity:0.2" />
    <path
       id="path684"
       d="m 83,119.8 c -3.9,6.2 -7.2,17.5 -3,24.4 4.2,6.9 18.6,16.1 19.6,18.9 1,2.7 2.4,10.7 4.1,16 2.1,6.7 5.5,16.5 8.2,18.1 2.7,1.6 10.4,-0.5 11.6,-6.4 1.2,-5.9 -3,-7.5 -4.3,-8.5 -1.3,-1 -2.6,-1 -3.5,-7.6 -0.9,-6.6 -1.7,-12.3 -3.3,-16.9 -1.6,-4.7 -4.8,-12.8 -7.3,-17.2 -2.5,-4.3 -3.1,-5.6 -3.5,-10.9 -0.5,-5.2 -18.6,-9.9 -18.6,-9.9 z"
       inkscape:connector-curvature="0"
       style="fill:#cc291f" />
    <path
       id="path686"
       d="m 30.5,192.2 c -1.4,0.4 -3.1,2.7 -3.1,2.7 0,0 -1.9,17.9 -0.5,17.7 1.4,-0.3 4,-2.3 6.3,-6.3 2.3,-4 2.7,-6.8 2.6,-9.7 -0.1,-2.1 -2.6,-5.2 -5.3,-4.4 z"
       inkscape:connector-curvature="0"
       style="fill:#ffffff" />
    <path
       id="path688"
       d="m 30.5,193.2 c 2.5,0.8 3.2,2.7 1.5,7 -1.9,4.9 -0.8,7.1 -2.6,9.8 -1.6,2.4 -2.6,3 -4.5,2.6 -1.8,-0.5 -4.4,-3 -3.7,-6.5 0.5,-2.9 1.6,-3.2 3.3,-6.7 1.8,-3.6 3.8,-6.9 6,-6.2 z"
       inkscape:connector-curvature="0"
       style="fill:#262626" />
    <path
       id="path690"
       d="m 91.3,68.6 c -4,0.1 -7.4,3.8 -9.5,15 -2.2,11.2 -1.6,23.8 -3.8,28.1 -2.3,4.4 -7.3,10.4 -7.3,10.4 0,0 5.8,1.9 11.6,4.3 5.8,2.4 8.3,4.1 12.2,6 3.8,1.9 8,1.2 8,1.2 -0.6,0.2 -0.5,-8.8 0.3,-14.8 0.8,-6 3.3,-15.9 3.3,-15.9 0,0 3.5,-0.5 5.1,-4.3 1.6,-3.9 -0.6,-6.8 -0.1,-13.6 0.5,-7 0.5,-10.2 -3.8,-12.3 -4.4,-2.1 -16,-4.1 -16,-4.1 z"
       inkscape:connector-curvature="0"
       style="fill:#ffcc00" />
    <path
       id="path692"
       d="m 99.7,77.1 c 2.8,-2.1 9.5,-1.8 8.9,3.5 -0.3,3.1 -1.9,2.7 -5.5,5.4 -3.8,2.8 -6,4.8 -6.2,5.7 -0.1,0.9 -0.1,11.3 -0.3,16 -0.1,4.7 0.1,7.7 0.6,9.4 0.5,1.7 0.5,3.3 -1,4.9 -1.4,1.5 -3.8,1.8 -4.6,0.1 -0.8,-1.7 -1.3,-4.3 -0.8,-4.9 0.5,-0.5 1.3,-1.1 1.3,-1.1 0,0 0.7,-1.9 0.3,-4 -0.4,-2.1 -3.8,-17.4 -3,-21.6 1.1,-4.8 8.5,-12 10.3,-13.4 z"
       inkscape:connector-curvature="0"
       style="fill:#fbd7c7" />
    <path
       id="path694"
       d="M 109.8,44.2 C 102.4,43.6 98,47 95.5,53.8 c -2.5,6.8 -3,9.1 -6.2,10.5 -3.2,1.4 -4,5.7 1,8.8 5,3.1 7.7,2.8 12,0.3 4.3,-2.5 8,0.8 8.5,4.6 0.1,0.9 0.2,2.5 0.2,2.5 0,0 4.4,0.4 6.4,-3.8 -2.7,-0.3 -3.2,-1.4 -2.6,-4.3 0.7,-3.1 5.1,-9.3 4.3,-18.1 -0.5,-7.3 -5.5,-9.8 -9.3,-10.1 z"
       inkscape:connector-curvature="0"
       style="fill:#825012" />
  </g>
</svg>
