<?xml version="1.0" encoding="UTF-8" standalone="no"?>
<svg
   xmlns:dc="http://purl.org/dc/elements/1.1/"
   xmlns:cc="http://creativecommons.org/ns#"
   xmlns:rdf="http://www.w3.org/1999/02/22-rdf-syntax-ns#"
   xmlns:svg="http://www.w3.org/2000/svg"
   xmlns="http://www.w3.org/2000/svg"
   xmlns:sodipodi="http://sodipodi.sourceforge.net/DTD/sodipodi-0.dtd"
   xmlns:inkscape="http://www.inkscape.org/namespaces/inkscape"
   enable-background="new 0 0 80 240"
   viewBox="0 0 4.6740561 19.252144"
   version="1.1"
   id="svg4090"
   sodipodi:docname="city--basicwoman03.svg"
   width="4.6740561"
   height="19.252144"
   inkscape:version="0.92.2 (5c3e80d, 2017-08-06)">
  <metadata
     id="metadata4096">
    <rdf:RDF>
      <cc:Work
         rdf:about="">
        <dc:format>image/svg+xml</dc:format>
        <dc:type
           rdf:resource="http://purl.org/dc/dcmitype/StillImage" />
        <dc:title></dc:title>
      </cc:Work>
    </rdf:RDF>
  </metadata>
  <defs
     id="defs4094" />
  <sodipodi:namedview
     pagecolor="#ffffff"
     bordercolor="#666666"
     borderopacity="1"
     objecttolerance="10"
     gridtolerance="10"
     guidetolerance="10"
     inkscape:pageopacity="0"
     inkscape:pageshadow="2"
     inkscape:window-width="906"
     inkscape:window-height="667"
     id="namedview4092"
     showgrid="false"
     fit-margin-top="0"
     fit-margin-left="0"
     fit-margin-right="0"
     fit-margin-bottom="0"
     inkscape:zoom="2.2208333"
     inkscape:cx="1.866749"
     inkscape:cy="31.169761"
     inkscape:window-x="167"
     inkscape:window-y="28"
     inkscape:window-maximized="0"
     inkscape:current-layer="svg4090" />
  <g
     id="g4115"
     transform="matrix(0.1,0,0,0.1,-1.71,-4.528297)">
    <path
       id="path4056"
       d="m 42.8,237.8 c 5.5,-0.2 6.9,-2.6 8.2,-7.3 1.4,-4.7 -0.4,-5.7 2.9,-8.1 3.3,-2.4 5.9,-4.8 5,-8.4 -1.7,-6.9 -9,-15.1 -15.9,-15.1 -6.9,0 -19.8,10.2 -20.2,11.2 -0.4,1 -3.4,2.3 -0.4,6.4 4.8,6.5 8.4,21.6 20.4,21.3 z"
       inkscape:connector-curvature="0"
       style="opacity:0.2" />
    <path
       id="path4058"
       d="m 27.8,204.8 c 0,0 -2.4,2.3 -4.3,3.7 -1.9,1.4 -2,4.1 -1.9,5 0.1,0.9 2.1,3.3 5.5,2.7 3.4,-0.6 6,-4.3 8.3,-6.4 2.3,-2.2 2.3,-2 4,-2.3 1.7,-0.3 0,-4.2 -2.3,-4.3 -2.3,-0.1 -6.8,-2.3 -6.8,-2.3 0,0 -1.5,2.8 -2.5,3.9 z"
       inkscape:connector-curvature="0"
       style="fill:#ffffff" />
    <path
       id="path4060"
       d="m 27.8,204.8 c 0,0 -2.4,2.3 -4.3,3.7 -1.9,1.4 -2,4.1 -1.9,5 0.1,0.9 2.1,3.3 5.5,2.7 3.4,-0.6 6,-4.3 8.3,-6.4 2.3,-2.2 2.3,-2 4,-2.3 1.7,-0.3 0,-4.2 -2.3,-4.3 -2.3,-0.1 -6.8,-2.3 -6.8,-2.3 0,0 -1.5,2.8 -2.5,3.9 z"
       inkscape:connector-curvature="0"
       style="fill:#ffffff" />
    <path
       id="path4062"
       d="m 35.4,209.9 c 2.3,-2.2 2.3,-2 4,-2.3 0.2,0 0.4,-0.1 0.5,-0.3 L 33.3,206 c 0,0 0.3,2.6 -1.8,4.9 -2,2.3 -3.2,3.6 -5.7,3.6 -1.8,0 -3.1,-0.4 -4.1,-1.6 v 0.7 c 0.1,1 2.1,3.3 5.5,2.7 3.4,-0.6 5.9,-4.2 8.2,-6.4 z"
       inkscape:connector-curvature="0"
       style="fill:#262626" />
    <path
       id="path4064"
       d="m 25.4,119.9 c 0,0 -3.4,9.4 -3.1,20.4 0.3,11.5 1.6,18.7 2.4,21.7 1.1,4.5 3.4,5.9 3.9,15.7 0.5,9.8 0.6,19.8 -0.2,22.7 -0.8,2.9 -2.7,4 -2.4,4.7 0.3,0.7 3.8,-0.4 5.5,1.2 1.7,1.6 4.5,2.7 5.9,2.7 1.4,0.1 2,0 2,0 l -3.7,-78.2 z"
       inkscape:connector-curvature="0"
       style="fill:#cc291f" />
    <path
       id="path4066"
       d="m 25.4,119.9 c 0,0 -3.4,9.4 -3.1,20.4 0.3,11.5 1.6,18.7 2.4,21.7 1.1,4.5 3.4,5.9 3.9,15.7 0.5,9.8 0.6,19.8 -0.2,22.7 -0.8,2.9 -2.7,4 -2.4,4.7 0.3,0.7 3.8,-0.4 5.5,1.2 1.7,1.6 4.5,2.7 5.9,2.7 1.4,0.1 2,0 2,0 l -3.7,-78.2 z"
       inkscape:connector-curvature="0"
       style="opacity:0.2" />
    <path
       id="path4068"
       d="m 41.7,225.9 c 0,0 -1.7,4.5 -1.7,5.4 0,0.9 -0.2,3.9 0.4,4.6 0.5,0.6 3.2,1.5 5.3,1.2 2.2,-0.3 4.3,-2.4 4.5,-3.2 0.2,-0.9 -0.1,-6.3 -0.2,-7.1 -0.1,-0.8 -0.5,-2.6 -0.5,-2.6 z"
       inkscape:connector-curvature="0"
       style="fill:#ffffff" />
    <path
       id="path4070"
       d="m 49.6,224.1 -1.4,0.3 c 0.4,1.9 0.9,6.3 0.3,8.1 -0.8,2.1 -3,2.7 -4.9,2.7 -1.1,0 -3,-0.6 -3.5,-2 0,1.1 0.1,2.3 0.4,2.7 0.5,0.6 3.2,1.5 5.3,1.2 2.2,-0.3 4.3,-2.4 4.5,-3.2 0.2,-0.9 -0.1,-6.3 -0.2,-7.1 -0.1,-0.8 -0.5,-2.7 -0.5,-2.7 z"
       inkscape:connector-curvature="0"
       style="fill:#262626" />
    <path
       id="path4072"
       d="m 33.8,131.7 c 0,0 -3,7.1 -3.5,17.3 -0.5,10.2 0.7,17 0.9,19.3 0.1,2.3 0.5,9.4 1.8,12.1 1.3,2.7 3.7,7.9 4.6,14.4 0.9,6.5 1.3,18.4 1.4,21.4 0.1,4 -0.5,7.3 0.2,9.2 0.7,1.9 3,-0.4 5.5,0.3 2.5,0.6 6.4,1.4 7.1,1 0.7,-0.4 -0.5,-7.5 -0.4,-11.6 0.1,-4.1 -0.2,-19.8 -1.1,-26.4 -0.8,-6.6 -5.6,-12.8 -4.8,-19.5 0.8,-6.7 5.4,-20.8 6.5,-25 1.1,-4.1 1.4,-10.2 0.8,-15.7 -0.5,-5.6 -19,3.2 -19,3.2 z"
       inkscape:connector-curvature="0"
       style="fill:#cc291f" />
    <path
       id="path4074"
       d="m 25.4,114.8 c 0,0 -4.3,3.1 -5.9,5.1 -1.6,2 -2.4,2.9 -2.4,4.7 0,1.8 0.8,2.9 1.6,2.7 0.8,-0.2 0,-2.7 0,-2.7 l 0.8,-1.6 c 0,0 -0.8,1.4 -0.4,2 0.4,0.5 2.2,2.4 2.7,2 0.6,-0.4 0.4,-1.2 0.4,-1.2 0,0 -1.5,-1 -1.2,-1.6 0.3,-0.6 0.8,-0.8 0.8,-0.8 0,0 -0.3,1.8 0,2.4 0.3,0.5 1.6,0.4 1.6,0.4 l 2.4,-5.5 z"
       inkscape:connector-curvature="0"
       style="fill:#fbd7c7" />
    <path
       id="path4076"
       d="m 44.8,71.7 c -4.6,-0.9 -13.3,-1.6 -16.5,2.4 -3.2,4 -2.4,5.1 -2.4,7.1 0,2 -1.5,5.3 -2.4,7.5 -0.9,2.2 -2.3,5.9 -0.8,8.2 1.5,2.4 4.3,3.5 4.3,3.5 0,0 -0.8,9.3 -1.7,12.9 -0.9,3.5 -2,9.8 -2.4,11.8 -0.4,2 1.6,7.9 5.5,9.4 3.9,1.6 12.8,2.3 18.1,-1.6 5.3,-3.9 6.3,-6.3 6.3,-6.3 0,0 -1.9,-7.7 -1.6,-10.6 0.3,-2.9 5.2,-17.6 5.2,-17.6 L 60,86.6 61.2,85.8 c 0,0 0.3,-2.6 -1.2,-5.1 -1.5,-2.6 -4,-5.2 -7.5,-6.3 -3.5,-1.1 -3.7,-1.9 -7.7,-2.7 z"
       inkscape:connector-curvature="0"
       style="fill:#ffcc00" />
    <path
       id="path4078"
       d="m 34.2,73.6 c 0,0 -6.9,5.5 -2.4,10.2 4.5,4.7 13.3,-4.2 14.9,-7.9 1.7,-3.5 -7.1,-7.6 -12.5,-2.3 z"
       inkscape:connector-curvature="0"
       style="fill:#fbd7c7" />
    <path
       id="path4080"
       d="m 22.3,93.3 c 0,0 -0.1,4.3 11,6.5 16.5,3.3 19.8,-2.9 19.8,-2.9 0,0 -3.1,8.6 -19.2,5.5 -14,-2.7 -11.6,-9.1 -11.6,-9.1 z"
       inkscape:connector-curvature="0"
       style="opacity:0.2;fill:#262626" />
    <path
       id="path4082"
       d="m 42.9,45.5 c -8.1,-0.5 -12,3 -13.5,8.6 -1.5,5.4 4,15.3 -1.8,17.9 0.1,2.2 5.1,4.5 7.3,2.1 2.2,-2.3 2.9,-2.4 2.9,-2.4 z"
       inkscape:connector-curvature="0"
       style="fill:#825012" />
    <path
       id="path4084"
       d="m 32.3,55.6 c -1.5,3.1 -1.9,15.6 0.6,17.6 2.5,2 7.6,-1.3 12.5,-3.5 4.9,-2.2 5.5,-19 -1.9,-19.2 -7.4,-0.2 -9.6,1.8 -11.2,5.1 z"
       inkscape:connector-curvature="0"
       style="fill:#fbd7c7" />
    <path
       id="path4086"
       d="m 41.4,45.7 c -3.3,0.8 -7.1,5.2 -6.4,10 1,6.2 13.2,18.3 4.6,22.2 1.4,4.6 9.5,4.3 14,2 4.3,-2.3 4.7,-4.5 4.6,-5.3 -0.1,-0.8 -3.8,-4.9 -3.8,-10.9 -0.1,-6.1 -0.4,-21.1 -13,-18 z"
       inkscape:connector-curvature="0"
       style="fill:#825012" />
    <path
       id="path4088"
       d="m 50.6,88.9 c 0,0 2.8,0 4.8,-0.3 2,-0.3 4.7,-2 4.7,-2 0,0 0.2,4.6 0.8,7.3 0.6,2.7 1.6,10.4 2,11.5 0.4,1.1 1.9,2 0,5.9 -1.9,3.9 -9.7,15.9 -11.1,19.1 -1.4,3.2 -1.3,6.2 -2,7.1 -0.7,0.9 -2.5,1.7 -2.7,1.6 -0.3,-0.1 -0.7,-0.1 -0.7,-0.1 0,0 -0.4,0.4 -1.1,0.4 -0.7,0 -0.9,-0.4 -0.9,-0.4 0,0 -0.5,0.8 -1.6,0.7 -1.1,-0.1 -1,-0.8 -1,-0.8 0,0 -1.6,0.8 -2.4,0.6 -0.8,-0.2 -1.2,-1 -0.7,-1.3 0.5,-0.3 1.6,-0.2 2.4,-0.9 0.8,-0.7 2.1,-2.8 2.1,-2.8 0,0 -0.3,-0.2 -0.2,-1.4 0,-1.2 -0.1,-3.1 1,-3.7 1.2,-0.6 2.6,-0.6 3.4,-1.6 2.5,-3 3.2,-8.2 5.4,-12.7 2.1,-4.5 3.6,-6.2 3.6,-6.6 0,-0.4 -2.8,-6.7 -3.8,-10.2 -1.1,-3.8 -2,-9.4 -2,-9.4 z"
       inkscape:connector-curvature="0"
       style="fill:#fbd7c7" />
  </g>
</svg>
