<svg enable-background="new 0 0 80 240" viewBox="0 0 80 240" xmlns="http://www.w3.org/2000/svg"><path d="m30.1 205.8c-9.6 5.9-10.3 13 2.1 19.7 13.7 7.4 21.7 5.7 32.3-.4 9.3-5.4 7.2-12.7-8.5-19-12.6-5.1-19.1-4.5-25.9-.3z" opacity=".2"/><path d="m63.5 216.4c-3.7-.3-11.2 1.5-12.9-.8s-1.1-17.8 0-24.7 2.4-17.1 2.4-18.7 1.7-15.3 2.7-20.7c.9-5.4 1.9-21.7 1.3-27.6-.5-6-2.7-30.9-2.9-34.7-.3-3.7 2-23-1.7-27.1s-15.8-6.8-15.8-6.8c-5.7-1.6-14.7-1.5-16.2.1s-6.4 10.4-7.8 12.4c-1.5 2-4.9 6-4.6 8.9s13.4 16.1 15.3 17.8 4.1 3.5 4.1 3.5-6 6.9-7.7 14.3-.8 24 1.5 32.3 3.2 10.4 1.5 16.9-2.8 15.1-.8 24.7 4.3 18.2 3.7 23.9c-.5 5.7-1.5 8.5 1.6 9.2s5.8-3.5 8.1-3.9 6.4-.5 6.4-.5-.5 4.3-.5 6.1c0 1.9-.3 5.4 2.1 6.1s8-2.8 10.9-2.7 9.7.5 12.1-2.7c1.8-2.7.9-5-2.8-5.3zm-33.8-124.7s-3.5-4.8-5.3-7.3c-1.9-2.5-7-8.4-7-8.4l5.3-5.3s5 11.7 6.5 14.6c1.5 3 .5 6.4.5 6.4zm11.2 79.4c-2 5.3-1.5 14.1-1.2 20.7s1.3 16.6 1.3 16.6-1.5 0-2.7 0-2.9-.1-4.3-1.2c-1.3-1.1-1.1-14.5-.5-22.3.5-7.8.3-18.5.5-21 .3-2.5.5-6.5 1.9-10.5 1.3-4 1.1-20.5 1.1-20.5s3.5 18.5 4.6 23.4c1.3 5 1.3 9.5-.7 14.8z" fill="#fbd7c7"/><path d="m21.6 106.6s5.7 2.8 12.9 4.8 22.3 1.3 22.3 1.3l.3 3.5s-7.6 5.7-13 10-7.3 6.9-7.3 6.9-5.7-3.8-8.6-5.2c-2.8-1.3-6.2-7.5-7.4-12.2-.9-3.4 0-6.8 0-6.8z" fill="#262626"/><path d="m25.5 78.3s20.9 1.7 22.4 1.7 5-16.5 5-16.5 5.5 6.3 6.4 10.1c.8 3.4-.9 7.2-4.5 8.6-2.5 1-17.4-.4-20.5-.7s-7.8-1.2-7.8-1.2z" fill="#262626"/><path d="m53.4 63.2s1.6 1.2.6 7.9-1 20.4.9 27 5.5 21 6.6 23.7 2.4 3.3 3.1 4.4c.5.8 1.4 5 .9 6.5s-2.9 5.3-5 5.9-4.5.6-4.8-.3 1.8-1.3 2.1-2.7.5-6.3.5-7.6-1.2-4.8-5.2-11.3-7.4-11.9-8.5-19c-1.1-7.2-3.3-27.7-2.8-31.6.8-5.4 7.7-8.2 11.6-2.9z" fill="#fbd7c7"/><path d="m42.8 22.5c3.5 1.2 4.8 4.2 5.4 10.5s-.2 10.2-.7 11.3-4.3 2.4-5.2 4-1.7 4.9-1.1 5.6c1 1.3 1.8 1.3 1.8 1.3s-8.7 2.1-11.8.7-3-3.1-2.4-3.8 1.7-3.6 1.1-5.2-7.8-8-5.5-15.6c2.8-9.1 11.3-11.3 18.4-8.8z" fill="#fbd7c7"/><path d="m34 20.4c-8.6 1.7-12 8.8-10.4 16.7 1.3 6.3 1.4 7.9.3 10.4-3.6 8.3-5.9 15.3-2.3 19.6 5.6 6.6 18.3 3.4 23.2-3.8 3.2-4.6 5.8-11.3 3.9-16.5-2.8-7.8-.7-9.8.1-15.4s-6.2-12.7-14.8-11z" fill="#762c07"/></svg>