<svg enable-background="new 0 0 160 240" viewBox="0 0 160 240" xmlns="http://www.w3.org/2000/svg"><path d="m84 219.3c15.2-8 9.8-10.5 3.9-13.9-5.9-3.3-14.3-1.8-22.4 2.1s-16.6 7.7-4.6 12.6 16 2.9 23.1-.8z" opacity=".2"/><path d="m86.8 204.1c.9 3.4 0 6.7-.7 8.8-.8 2.3-2.9 6.4-7.5 6.2-4.6-.1-6.3-3.2-5.3-9.9s12.6-8.5 13.5-5.1z" fill="#262626"/><path d="m86.2 205.4c.5 2.3-.2 8.5-4.6 11.3-3.7 2.4-6.9.5-7.3-1.1s.9-10.8 1.4-11.6c.4-.8 10-.9 10.5 1.4z" fill="#fff"/><path d="m80.6 211.1c.5 1.3 1.1 1.8-1.1 3.4-2 1.4-5.4 4.4-8.4 4.6s-11.7-1.8-12.2-2.4-.1-1.9.8-2.2c.8-.3 20.9-3.4 20.9-3.4z" fill="#262626"/><path d="m66.9 208.1c-1.7.8-2 2.6-3.7 2.9s-3.4 1.3-3.7 2.6c-.3 1-.1 1.4 2.1 1.9s7.3 1.9 10 1 8.4-4.2 8.4-4.7-7.9-6.2-13.1-3.7z" fill="#fff"/><path d="m99.1 137.2c-9 .8-25.8 4.7-28.9 9.6-3.1 4.8-1.3 10.1-.3 14.8s3.5 27.2 3.4 32.6-2.5 12.8.8 13.6 9.4 3.4 11.3 1c1.8-2.4 4.6-10.2 4.3-11.5s-1.8-.5-3.4-13.9c-1.7-14.3-1.8-20.9-1.8-20.9s14.1-3.2 22.4-6.3c17-6.3 1.1-19.8-7.8-19z" fill="#cc291f"/><path d="m99.1 137.2c-9 .8-25.8 4.7-28.9 9.6-3.1 4.8-1.3 10.1-.3 14.8s3.5 27.2 3.4 32.6-2.5 12.8.8 13.6 9.4 3.4 11.3 1c1.8-2.4 4.6-10.2 4.3-11.5s-1.8-.5-3.4-13.9c-1.7-14.3-1.8-20.9-1.8-20.9s14.1-3.2 22.4-6.3c17-6.3 1.1-19.8-7.8-19z" opacity=".2"/><path d="m115.3 143.1c-6.4 2.3-18.2 6.4-22.4 7.9s-10.2 2.5-12 6.9c-1.8 4.5-.1 15.6-4.2 26.3s-11.5 24.5-11.5 24.5 2.4-.7 4.5 1.2c2.1 1.8 5.1 3.8 8.5 3.5s4.2-1.6 4.2-1.6-1.3-4.8.7-9 6.9-14.1 9.3-22.6 1.7-12.6 2.6-13 11.4-1.4 20.7-3.1c9.4-1.7 13-8.8 13-17s-3.1-10.7-3.1-10.7z" fill="#cc291f"/><path d="m95.4 96.6c.1 3.4.6 15.9-1.8 21.5s-4.2 12.5-6.2 15.8-4.5 7.8-4.8 8.7-.6 1.7.4 2.8 1.7 1.1 1.9 1.5.7 1.3 3.3 2 3.3.8 3.7.1-1.9-1.5-2.3-1.8c-.4-.2-.5-.7-.1-1.8s1.1-3.8 1.1-5.2-.3-1.6.6-2.9 3.9-6.6 5.5-9.1c1.7-2.5 3.7-6.4 4-8.1s1-22.2 1-22.2z" fill="#fbd7c7"/><path d="m103.3 87c-2.7-.1-5.6.5-7.3 3.7-1.8 3.2-1.5 5.2-1.5 5.2s.7.7 1.4 1 1 .3 1 .3-4.8 6.1-5.4 9.8c-.7 4.3 3.1 6 3.6 6.8s1.8 13.4 1.8 16.6c-.1 3.1 0 6.6 0 6.6s-1.3 6.6 5 6.9c5.9.3 8.7.6 12.9 1.9 4.5 1.4 7 1.3 9.8 0s4.1-4.9 4.1-4.9-2.7-5.2-3.5-7.3c-1-2.3-1.8-7.3-1.5-11.4.3-4 3.4-15.3 3-21.8-.5-6.5-5.9-10.1-5.9-10.1z" fill="#fc0"/><path d="m91.4 109.1c2.4 7.1 17.2 11 20.8 5.1-10.3 4.6-19.6-3.6-20.8-5.1z" opacity=".2"/><path d="m114.7 105s-2.5 7.7-3 12c-.5 4.4-.5 9.7-1.6 11.4-1.1 1.8-3.2 4.5-4.8 8.3-1.7 3.8-2.7 7.3-3.6 7.3s-2.6-.5-3.4-.4c-2.8.2-3.9 1.4-4.4 2.2s-.6 1.5-.1 2.6 1.7 1.6 3 1.5c1.2-.1 7.4-1.2 8.3-2.4s7.4-9.6 8.6-10.9c1.2-1.2 3.3-2.9 3.8-5.7s3.2-12.9 4-16 2.3-7.6 2.3-7.6-1.9.7-5.1-.2-4-2.1-4-2.1z" fill="#fbd7c7"/><path d="m104.3 87.7s-7.3 8.2-1.1 11.6 14.7-9.4 14.7-9.4-2.6-2.1-4-4.8c-1.4-2.8-9.6 2.6-9.6 2.6z" fill="#fbd7c7"/><path d="m113.2 60.4c-2.8-.5-8.7-1-12.8 4.1-4.1 5.2-3.2 12.6-2.5 15.8 1.2 5.3-2.6 7.5-2.6 7.5s1.1 4.1 7.3 1.7 10.6-29.1 10.6-29.1z" fill="#825012"/><path d="m103.1 68.3s-2.2 1.6-3.4 5.5c-.5 1.9-1.2 12.9.8 14.5 2.2 1.8 5.4 1 7.4 0s4.7-1.3 6.2-3.9c.8-1.2-2.5-22.4-11-16.1z" fill="#fbd7c7"/><path d="m108.9 61.8c-4.5 3-7.2 5-4.4 10.8 2.8 5.9 8.3 10.4 6.6 13.8s-4.7 5-4.7 5 2.9 5.4 11.4 4c8.2-1.4 9.1-4.3 9.5-5.6.7-2.1-2.9-5.7-3.3-10.2-.3-4.5-.6-17.5-8-19.3-4.4-1-6.2 1-7.1 1.5z" fill="#825012"/></svg>