<svg enable-background="new 0 0 80 240" viewBox="0 0 80 240" xmlns="http://www.w3.org/2000/svg"><path d="m33.8 34.9c-.6 1.9-.5 9.7-1.2 14-.8 5.2-7.1 24 2.1 18.1s7-33.5 3.1-33.7c-3.1-.3-3.4-.3-4 1.6z" fill="#762c07"/><path d="m24.8 206.2c-11.8 7.6-12.4 14.4 0 21 13.5 7.2 22.4 3.3 32.9-2.7s11.8-13.4-3.7-19.5c-12.5-5-20.4-4.5-29.2 1.2z" opacity=".2"/><path d="m28.8 82.2s-3.2 10.8-5.9 19.1-4.4 13.8-5.3 15.9-1.3 5.7-.8 7.3 2.3 5 3 5.7c1.7 1.6 4.4 1.2 4.8.8.4-.5.4-2.2-.3-2.9s-2.6-3-1.4-6c1.2-2.9 1-4.2 1-6 0-1.5-.5-1.7.7-4.1 1.2-2.5 6.9-14.5 7.5-16.2s-3.3-13.6-3.3-13.6z" fill="#fbd7c7"/><path d="m42.8 54.7s-9.1-4-12.3.3-1.7 11-1.7 11-5.4 6.1-5.4 9.4 5.1 6.5 5.1 6.5.6 15.8-.3 22.3-3.8 23.3-3.1 33.9 1.6 25 1.9 29.2c.3 4.1 2.2 10 3 14.8.9 4.8 4.1 13.2.9 19.6s-6.1 9.3-7.4 10.5.2 5.2 3 4.5 7.2-7.1 9.9-8.1c2.7-1.1 7.2-4 6-7.7-1.2-3.6-1.7-2.2-2-5.3s2.2-16.7 1.3-22.8-3.2-7.8-3.6-8.8 5.7-29.5 5.7-29.5 1.2 27.3 1.1 30.2 2.1 17.7 2.7 24.6c.7 7 1 18.8-2 22.9-2.9 4.1-8 10.3-6 11.7s8.3 2.7 9.8-.9 5.3-11.1 6.7-13.1 1.9-3.1 1-5-1.5-5-.5-10.3 4.1-14.7 3.3-19.7-3.2-8.1-2.9-11.7c.3-3.5 8.1-24.8 6.6-39.7-1.6-14.8-9-17.5-10.3-23.5s3-13.9 5.2-18.2c2.2-4.2 5.3-11.6 2.6-14.2-2.7-2.7-5.9-4.4-7.1-6.4s-2.5-8.2-2.5-8.2z" fill="#fbd7c7"/><path d="m25.4 210.3s-4.9 1.7-5.9 3.9c-.8 1.8-.5 3.9 1.2 5 1.8 1 5.2 1.3 8.2-.4 2.9-1.7 6.8-8.4 7.5-8.7s.2 3.7.2 3.7l2.1 1.1 2.3-.9s-.2-4.5.7-6 2.6-3.9 2-6.9-2.6-3.3-2.6-3.3 0 3.5-4 7.3c-3.8 3.6-5.9 9.6-9.2 9.3-4.5-.7-2.5-4.1-2.5-4.1z" fill="#cc291f"/><path d="m42.2 217.1s-4.6 3.5-4.9 5.7-.2 3.7 2.9 4.7 7.1-.2 9-1.8 4.4-5.8 4.4-5.8l2 1.1 2.3-1.1s-.3-2.7.4-5.1 1.4-4.4 1.4-7.4-2.8-3.3-2.8-3.3 1.7 1.6-.8 5.1-4.4 11.3-8.1 11.5c-6.9.5-5.8-3.6-5.8-3.6z" fill="#cc291f"/><path d="m60.8 110.8c-2.7-4.3-5.3-6.4-5.4-6.8 0 0-6.4 3.9-16.4 3.1s-10.6-3.1-10.6-3.1c-1.4 6.7-4.5 17.6-5.5 21.1-1.9 6.8-6.1 18-5.6 19 2.1 4.2 12.6 3.2 17.4 7.6s17.8 3.7 24 1.6 9.4-5.8 9.2-6.5c-4.8-18.7-1.8-27.6-7.1-36z" fill="#28896d"/><path d="m27.7 82.8c.3.6 3.1 5.5 3 11.7 0 2.9-1.7 6.6-2.7 9.6 7.4 6.7 22 3.9 27.6.3-4.5-6.7 1.9-20.2 3-22.4 2.2-4.2 5.3-11.6 2.6-14.2-2.7-2.7-5.9-4.4-7.1-6.4s-2.5-8.2-2.5-8.2l-8.9 1.6s-3.6-1.6-7-1.7c-2.2 2.1-4.9 9.8-7.4 12.7-2.5 2.8-5.4 5.4-5.4 9.6 0 3.2 4.3 6.5 4.8 7.4z" fill="#e5e5e5"/><path d="m37.9 53.9s-8.9 14.8-2.4 16.5c6.3 1.7 16-8.7 16-8.7l-7.8-8.7z" fill="#fbd7c7"/><path d="m40.2 54.9s-4.3.7-4.9-.9c-.7-1.7-4.4-15.5 2.4-24.1s20.5-3.1 20.5 6c0 8.1-3.2 10.5-4.7 14.5-.9 2.5-1.6 5.8-.1 8.4 1.5 2.7 2.7 4 2.7 4s-7.6 4.6-13.3 3.2-.2-4.2-1-6.6c-.7-2.1-1.6-4.5-1.6-4.5z" fill="#fbd7c7"/><path d="m23 76.1c3.1 5.9 12.5 10.5 26.6 7.4-.8 2.3-21.1 7.5-26.6-7.4z" opacity=".15"/><path d="m51 74.8c-1.1-2.9-.7-10.2 5.3-10.5s6.7 5.7 7.2 13.6 3.5 20.7 3.7 23.3-1.5 9.7-5.6 16-6.9 11.4-7.1 12.3c-.2 1-1.4 4.9-3.1 6.1-.7.5-1.5 1.2-1.9 2.5s.5 2.4.7 2.7c.3.7-.2 1.5-1.4 2.2-1.3.8-3.2-.5-4.2-1.3-.7-.5-2.5-2.1-2-4.3.4-1.6 1.7-6.6 3.7-7.8s3.9-2.7 4.6-4.1 2.2-11.9 4.8-17.2c1.4-2.9 3.1-4.8 3.1-5.9-.1-.9-6.7-24.7-7.8-27.6z" fill="#fbd7c7"/><path d="m33.8 34.9s3.5-11.5 16.4-9.1c8.1 1.5 10.4 10.5 9.6 16.7-.7 6.2-3.3 9.9-2.1 12.9 2.3 5.6 1 9.4-1.6 12.7-4.3 5.5-13.1 8.2-12.1-2.9.7-8.6-5.1-12.4-3.1-21.5 1.2-5.7-1.1-8.2-3.6-7.7-.9-1.9-1.9-2.6-3.5-1.1z" fill="#762c07"/></svg>