<?xml version="1.0" encoding="UTF-8" standalone="no"?>
<svg
   xmlns:dc="http://purl.org/dc/elements/1.1/"
   xmlns:cc="http://creativecommons.org/ns#"
   xmlns:rdf="http://www.w3.org/1999/02/22-rdf-syntax-ns#"
   xmlns:svg="http://www.w3.org/2000/svg"
   xmlns="http://www.w3.org/2000/svg"
   xmlns:sodipodi="http://sodipodi.sourceforge.net/DTD/sodipodi-0.dtd"
   xmlns:inkscape="http://www.inkscape.org/namespaces/inkscape"
   enable-background="new 0 0 80 240"
   viewBox="0 0 6.6718292 19.231043"
   version="1.1"
   id="svg157"
   sodipodi:docname="city--basicwoman01.svg"
   width="6.6718292"
   height="19.231043"
   inkscape:version="0.92.2 (5c3e80d, 2017-08-06)">
  <metadata
     id="metadata163">
    <rdf:RDF>
      <cc:Work
         rdf:about="">
        <dc:format>image/svg+xml</dc:format>
        <dc:type
           rdf:resource="http://purl.org/dc/dcmitype/StillImage" />
        <dc:title></dc:title>
      </cc:Work>
    </rdf:RDF>
  </metadata>
  <defs
     id="defs161" />
  <sodipodi:namedview
     pagecolor="#ffffff"
     bordercolor="#666666"
     borderopacity="1"
     objecttolerance="10"
     gridtolerance="10"
     guidetolerance="10"
     inkscape:pageopacity="0"
     inkscape:pageshadow="2"
     inkscape:window-width="1360"
     inkscape:window-height="706"
     id="namedview159"
     showgrid="false"
     fit-margin-top="0"
     fit-margin-left="0"
     fit-margin-right="0"
     fit-margin-bottom="0"
     inkscape:zoom="1.2791667"
     inkscape:cx="5.4768513"
     inkscape:cy="26.65371"
     inkscape:window-x="-8"
     inkscape:window-y="-8"
     inkscape:window-maximized="1"
     inkscape:current-layer="svg157" />
  <g
     id="g182"
     transform="matrix(0.1,0,0,0.1,-0.44999167,-4.088297)">
    <path
       id="path123"
       d="m 27.9,76.6 c 0,0 1.5,13.1 0.2,18.2 -1.3,5.1 -2.3,8.4 -2.9,14 -0.6,5.6 -0.3,10.3 -1.3,13 -1,2.6 -0.8,7.1 -0.3,10 0.3,2.2 1,6.4 2.1,6.2 1.1,-0.2 0.7,-1.5 0.9,-2.7 0.2,-1.1 0.4,-2.8 0.2,-3.7 -0.1,-0.9 -0.1,-0.8 0.6,-1.4 0.7,-0.6 0.2,-3.4 0.1,-4.7 -0.4,-2.9 2,-9.6 3,-14.3 1,-4.7 4.1,-11.6 3.5,-16.2 -0.6,-4.6 -0.7,-16.9 -0.7,-16.9 z"
       inkscape:connector-curvature="0"
       style="fill:#fbd7c7" />
    <path
       id="path125"
       d="m 6.3,215.9 c -6.2,7.5 4.4,11.2 19.8,12.5 15.4,1.3 29.8,8.1 40.2,2.8 10.4,-5.3 4,-15.3 -16.3,-16.6 -20.3,-1.3 -19.7,-6.1 -28.8,-4.1 -9.1,2 -12.7,2.8 -14.9,5.4 z"
       inkscape:connector-curvature="0"
       style="opacity:0.2" />
    <path
       id="path127"
       d="m 32.1,213.6 c 2.4,0 4,4.7 -0.4,6 -4.4,1.3 -9.2,1.9 -10.6,2.1 -2.1,0.2 -7.3,0.7 -9.8,0 -2.7,-0.7 -2.2,-3.4 -1.5,-4.6 0.7,-1.1 15.1,-4.3 17.7,-4.3 2.6,0.2 4.2,0.8 4.6,0.8 z"
       inkscape:connector-curvature="0"
       style="fill:#262626" />
    <path
       id="path129"
       d="m 10.7,219.9 c 1.5,0.5 6,0.5 9.8,0 1.5,-0.2 13.2,-2.5 13.9,-3.9 0.7,-1.4 -9.9,-5.6 -9.9,-5.6 0,0 -5.5,2.7 -7.7,3.1 -2.2,0.4 -5.4,0.8 -7.1,2.7 -1.1,1.2 -0.3,3.3 1,3.7 z"
       inkscape:connector-curvature="0"
       style="fill:#ffffff" />
    <path
       id="path131"
       d="m 54.5,216.8 c -0.2,2 -1.2,6.7 0.5,10.2 1,2.1 6.8,3 9.2,0.5 2.4,-2.5 -1.4,-14.2 -1.4,-14.2 z"
       inkscape:connector-curvature="0"
       style="fill:#262626" />
    <path
       id="path133"
       d="m 55.1,216 c 0,0 -2.8,11.2 4.3,11.1 7.2,-0.1 5.1,-5.1 4.5,-8.5 -0.6,-3.4 -2,-5.2 -2,-5.2 z"
       inkscape:connector-curvature="0"
       style="fill:#ffffff" />
    <path
       id="path135"
       d="m 53.8,217.6 c 0,0 2.9,0.1 6.7,0.3 3.8,0.2 4.1,-1.6 4.1,-1.6 0,0 -0.8,-6.5 -0.9,-11.4 -0.2,-4.9 0.4,-18.8 -0.2,-25.2 -0.7,-6.4 -0.8,-11.7 0.4,-23.3 1.2,-11.6 2.5,-18.7 0.2,-24.7 -2.3,-6 -3.7,-8.5 -3.7,-8.5 l -31.9,3.4 c 0,0 -3.8,9 -4.2,20 -0.4,11.1 2.6,20.8 1.7,26.6 -0.9,5.9 -1.3,18.7 -1.9,24.7 -0.9,9.4 -4.4,15.5 -4.4,15.5 0,0 1,3 6.1,3.8 5.1,0.8 8.7,-1.7 8.7,-1.7 0,0 0.2,-6.5 0.9,-14.7 0.8,-8.2 2.2,-16.2 2.4,-22.7 0.2,-6.5 0.6,-7.5 1,-9.2 0.5,-1.7 2.3,-13.6 3.4,-17.1 1.4,-4.7 1.8,-9.4 2.9,-9.4 1.1,0.1 0.9,4.1 2.2,11.9 1.1,6.5 4.8,32.8 4.9,40.8 0.1,8.1 1.6,22.5 1.6,22.5 z"
       inkscape:connector-curvature="0"
       style="fill:#cc291f" />
    <path
       id="path137"
       d="m 28.4,126.5 c 0,0 -3.8,9 -4.2,20 -0.4,11.1 2.6,20.8 1.7,26.6 -0.9,5.9 -1.3,18.7 -1.9,24.7 -0.9,9.4 -4.4,15.5 -4.4,15.5 0,0 1,3 6.1,3.8 5.1,0.8 8.7,-1.7 8.7,-1.7 0,0 0.2,-6.5 0.9,-14.7 0.8,-8.2 2.2,-16.2 2.4,-22.7 0.2,-6.5 0.6,-7.5 1,-9.2 0.5,-1.7 2.3,-13.6 3.4,-17.1 1.4,-4.7 1.8,-9.4 2.9,-9.4 0,0 1.1,-10.4 0.5,-17.5 z"
       inkscape:connector-curvature="0"
       style="fill:#cc291f" />
    <path
       id="path139"
       d="m 28.4,126.5 c 0,0 -3.8,9 -4.2,20 -0.4,11.1 2.6,20.8 1.7,26.6 -0.9,5.9 -1.3,18.7 -1.9,24.7 -0.9,9.4 -4.4,15.5 -4.4,15.5 0,0 1,3 6.1,3.8 5.1,0.8 8.7,-1.7 8.7,-1.7 0,0 0.2,-6.5 0.9,-14.7 0.8,-8.2 2.2,-16.2 2.4,-22.7 0.2,-6.5 0.6,-7.5 1,-9.2 0.5,-1.7 2.3,-13.6 3.4,-17.1 1.4,-4.7 1.8,-9.4 2.9,-9.4 0,0 1.1,-10.4 0.5,-17.5 z"
       inkscape:connector-curvature="0"
       style="opacity:0.2" />
    <path
       id="path141"
       d="m 47.3,154.4 c 1.1,6.5 4.8,32.8 4.9,40.8 0.1,8 1.6,22.4 1.6,22.4 0,0 2.9,0.1 6.7,0.3 3.8,0.2 4.1,-1.6 4.1,-1.6 0,0 -0.8,-6.5 -0.9,-11.4 -0.2,-4.9 0.4,-18.8 -0.2,-25.2 -0.7,-6.4 -0.8,-11.7 0.4,-23.3 1.1,-11.6 2.5,-18.7 0.2,-24.7 -2.3,-6 -3.7,-8.5 -3.7,-8.5 L 42.8,125 c 0.6,7.1 2.3,17.5 2.3,17.5 1.1,0.1 0.9,4.1 2.2,11.9 z"
       inkscape:connector-curvature="0"
       style="fill:#cc291f" />
    <path
       id="path143"
       d="m 60.3,83.5 c 0,0 -2.6,15.5 -2.1,20.6 0.4,5.1 1.3,11.2 2.3,14.8 1,3.6 1.7,6 0.9,7.3 -0.8,1.3 -1.8,5.3 -1.1,6 1.8,1.6 2.5,5.6 3,6.6 0.3,0.6 0.9,1.1 1.8,0.6 0.9,-0.5 0.2,-4.7 0.3,-5.7 0.1,-1 0.4,-5.8 0.4,-7.4 0,-1.6 0.6,-15.7 0,-18.8 -0.6,-3.1 -1.4,-8.2 0.4,-14.7 1.8,-6.4 2.8,-7.3 2.8,-10.2 -0.1,-3 -8.7,0.9 -8.7,0.9 z"
       inkscape:connector-curvature="0"
       style="fill:#fbd7c7" />
    <path
       id="path145"
       d="m 40,67.8 c 0,0 -12.3,13.3 1.7,14.9 C 55.7,84.3 58.2,75 55.6,69.8 53,64.7 48.7,62 48.7,62 Z"
       inkscape:connector-curvature="0"
       style="fill:#fbd7c7" />
    <path
       id="path147"
       d="m 40.3,68.6 c 0,0 -5.6,-1.7 -8.9,0.6 -3.3,2.3 -3.8,7.7 -3.8,7.7 0,0 0.6,0.5 1.4,0.9 0.8,0.4 1.3,0.4 1.3,0.4 0,0 0,1.7 -0.9,4.2 -0.8,2.6 -2.7,5 -1.7,8.5 0.9,3.4 3.1,3.9 3.1,4.6 0,0.8 0.6,12.2 -0.7,18.5 -1.3,6.3 -2.5,12.8 -2.4,14.6 0,0.3 0.4,5.5 13.1,5.8 12.7,0.2 20.7,-8.8 20.7,-8.8 0,0 -2.6,-6.8 -3.7,-11 -1,-3.9 2.4,-17.8 2.4,-21.4 0,-3.6 0,-8.5 0,-8.5 0,0 1.3,1.2 5.2,1.1 2.1,-0.1 3.7,-1.4 3.7,-1.4 0,0 0.9,-5.6 -3.1,-8.9 -4,-3.3 -8.5,-3.5 -8.5,-3.5 0,0 -5.1,10.4 -13.9,8.1 -9.5,-2.4 -3.3,-11.5 -3.3,-11.5 z"
       inkscape:connector-curvature="0"
       style="fill:#ffcc00" />
    <path
       id="path149"
       d="m 47.9,41.1 c -8.1,-0.5 -12,3 -13.5,8.6 -1.5,5.4 4,15.3 -1.8,17.9 0.1,2.2 5.1,4.5 7.3,2.1 2.2,-2.3 2.9,-2.4 2.9,-2.4 z"
       inkscape:connector-curvature="0"
       style="fill:#825012" />
    <path
       id="path151"
       d="m 37.2,51.2 c -1.5,3.1 -1.9,15.6 0.6,17.6 2.5,2 7.6,-1.3 12.5,-3.5 4.9,-2.2 5.5,-19 -1.9,-19.2 -7.4,-0.2 -9.6,1.8 -11.2,5.1 z"
       inkscape:connector-curvature="0"
       style="fill:#fbd7c7" />
    <path
       id="path153"
       d="m 46.4,41.3 c -3.3,0.8 -7.1,5.2 -6.4,10 1,6.2 13.2,18.3 4.6,22.2 1.4,4.6 9.5,4.3 14,2 4.3,-2.3 4.7,-4.5 4.6,-5.3 -0.1,-0.8 -3.8,-4.9 -3.8,-10.9 -0.1,-6.1 -0.5,-21.1 -13,-18 z"
       inkscape:connector-curvature="0"
       style="fill:#825012" />
    <path
       id="path155"
       d="m 27.9,90.9 c 0,0 1.1,4.3 13.6,5.1 12.5,0.9 18.6,-4.8 18.6,-4.8 0,0 -3.3,7.9 -17.4,7.4 C 28.6,98.1 27.9,90.9 27.9,90.9 Z"
       inkscape:connector-curvature="0"
       style="opacity:0.2" />
  </g>
</svg>
