<?xml version="1.0" encoding="UTF-8" standalone="no"?>
<svg
   xmlns:dc="http://purl.org/dc/elements/1.1/"
   xmlns:cc="http://creativecommons.org/ns#"
   xmlns:rdf="http://www.w3.org/1999/02/22-rdf-syntax-ns#"
   xmlns:svg="http://www.w3.org/2000/svg"
   xmlns="http://www.w3.org/2000/svg"
   xmlns:sodipodi="http://sodipodi.sourceforge.net/DTD/sodipodi-0.dtd"
   xmlns:inkscape="http://www.inkscape.org/namespaces/inkscape"
   enable-background="new 0 0 80 240"
   viewBox="0 0 7.4709949 21.004467"
   version="1.1"
   id="svg1849"
   sodipodi:docname="city--woman09.svg"
   width="7.4709949"
   height="21.004467"
   inkscape:version="0.92.2 (5c3e80d, 2017-08-06)">
  <metadata
     id="metadata1855">
    <rdf:RDF>
      <cc:Work
         rdf:about="">
        <dc:format>image/svg+xml</dc:format>
        <dc:type
           rdf:resource="http://purl.org/dc/dcmitype/StillImage" />
        <dc:title></dc:title>
      </cc:Work>
    </rdf:RDF>
  </metadata>
  <defs
     id="defs1853" />
  <sodipodi:namedview
     pagecolor="#ffffff"
     bordercolor="#666666"
     borderopacity="1"
     objecttolerance="10"
     gridtolerance="10"
     guidetolerance="10"
     inkscape:pageopacity="0"
     inkscape:pageshadow="2"
     inkscape:window-width="870"
     inkscape:window-height="480"
     id="namedview1851"
     showgrid="false"
     fit-margin-top="0"
     fit-margin-left="0"
     fit-margin-right="0"
     fit-margin-bottom="0"
     inkscape:zoom="1.2791667"
     inkscape:cx="3.5764398"
     inkscape:cy="19.225989"
     inkscape:window-x="0"
     inkscape:window-y="0"
     inkscape:window-maximized="1"
     inkscape:current-layer="svg1849" />
  <g
     id="g1873"
     transform="matrix(0.1,0,0,0.1,-0.28040822,-2.3701414)">
    <path
       id="path1817"
       d="m 20.9,105 c -1.5,3.2 -5.2,8.9 -5.4,10.6 -0.2,1.7 -1.1,5.2 -0.5,6.9 0.6,1.7 4.2,4.3 5,4.3 0.8,0 1.5,-2.7 1.5,-3.4 0,-0.7 -1,-2.3 -1,-2.3 0,0 1.9,0.8 2,0 0.2,-0.8 -1.6,-16.1 -1.6,-16.1 z"
       inkscape:connector-curvature="0"
       style="fill:#fbd7c7" />
    <path
       id="path1819"
       d="m 8.6,231.8 c -15.3,-7.4 2.7,-16.5 19.2,-21.1 14.5,-4.1 28.9,-20.4 45.5,-9.9 C 86.7,209.3 65,217 52,221.7 33.4,228.3 21.3,237.9 8.6,231.8 Z"
       inkscape:connector-curvature="0"
       style="opacity:0.2" />
    <path
       id="path1821"
       d="m 21.6,170.1 c -0.3,3.2 -0.4,10.8 -0.6,16 -0.2,5.2 -0.6,12.6 -1.9,17.7 -1.3,5.1 -2.5,10.8 -3.8,12.9 -1.3,2.1 -7.1,7.5 -2,7.1 5.1,-0.4 8.9,-7.3 10.8,-9.2 1.9,-1.9 4,-5.6 4,-5.6 0,0 0.1,-2.5 1.1,-7.3 1,-4.8 6.7,-19.4 7,-24.9 0.3,-5.5 -1.6,-11 -1.6,-11 z"
       inkscape:connector-curvature="0"
       style="fill:#fbd7c7" />
    <path
       id="path1823"
       d="m 58.3,208.8 c -1.1,1.2 -3.6,3.6 -0.6,4.3 3.1,0.7 7.4,-1 9.3,-5.7 1.9,-4.8 3.4,-9.6 3.7,-10.8 0.3,-1.1 -1.4,-3.7 -2.1,-5.7 -0.7,-2 -1.1,-11 -3.4,-16.4 -1.3,-3.2 -7.3,-8.3 -7.3,-8.3 l -12.8,4.7 c 0,0 2.9,4.2 5,6.2 2.1,2 4.8,6.7 7,9.5 2.2,2.8 4.4,6.4 4.1,9.9 -0.3,3.4 -1.8,11 -2.9,12.3 z"
       inkscape:connector-curvature="0"
       style="fill:#fbd7c7" />
    <path
       id="path1825"
       d="m 16.3,211.1 c 0,0 5.2,2.1 7.7,0.4 2.5,-1.8 4.4,-5 4.4,-5 0,0 0.9,1.1 1.4,4 0.5,2.9 -1.2,9 -1.2,9 l -1.9,1.9 -3,-1 c 0,0 -2.6,5.1 -5.7,6.9 -3.4,1.9 -9.5,1 -9.9,-0.8 -0.7,-3.1 2,-4.4 3.6,-6.2 2.2,-2.5 4.6,-9.2 4.6,-9.2 z"
       inkscape:connector-curvature="0"
       style="fill:#e5e5e5" />
    <path
       id="path1827"
       d="m 8,225.9 c 0,0.2 0,0.4 0.1,0.6 0.4,1.8 6.5,2.6 9.9,0.8 3.2,-1.7 5.7,-6.9 5.7,-6.9 l 3,1 1.9,-1.9 c 0,0 1.3,-4.5 1.3,-7.6 -0.4,0.7 -1,1.5 -2,2 -3.3,2 -3.2,3.5 -5,6.5 -1.5,2.5 -3.1,5.5 -7,6.6 -2.4,0.7 -6.1,0.2 -7.9,-1.1 z"
       inkscape:connector-curvature="0"
       style="opacity:0.4" />
    <path
       id="path1829"
       d="m 59.9,199.7 c 0,0 3.7,1 5.9,-0.5 2.2,-1.5 3.9,-6.7 3.9,-6.7 0,0 2.8,0.9 3,4.6 0.3,3.7 -0.3,4.5 -0.1,6 0.1,1.6 0.5,2.8 0.5,2.8 l -1.3,1.6 -3,-0.5 c 0,0 -1.6,5.5 -4.1,7.6 -3.4,2.8 -8.7,2.5 -10.6,0.8 -1,-0.9 -1,-3.1 1.1,-4.9 2.1,-1.8 3.8,-5.3 4,-6.8 0.3,-1.4 0.7,-4 0.7,-4 z"
       inkscape:connector-curvature="0"
       style="fill:#e5e5e5" />
    <path
       id="path1831"
       d="m 68.7,207 3,0.5 1.3,-1.6 c 0,0 -0.4,-1.2 -0.5,-2.8 -0.1,-1.5 0.4,-2.3 0.1,-6 0,-0.1 0,-0.2 0,-0.3 -0.7,2.9 -2.5,4.4 -4.1,8.2 -1.5,3.5 -1.5,7.2 -6.1,9.9 -3.2,1.9 -7.3,0.7 -8.9,-0.2 0.1,0.3 0.3,0.6 0.5,0.8 1.8,1.7 7.1,2 10.6,-0.8 2.5,-2.2 4.1,-7.7 4.1,-7.7 z"
       inkscape:connector-curvature="0"
       style="opacity:0.4" />
    <path
       id="path1833"
       d="m 20.9,120.2 c 0,0 -2.8,21.5 -2,29.7 0.8,8.2 1.8,15.7 1.5,19.7 -0.3,4.1 -0.6,21.1 -1,23.2 -0.4,2.2 2.8,2.8 6.1,3.4 3.3,0.6 7.3,0.4 8,-1.3 0.7,-1.7 4.2,-19.1 3.9,-22.5 -0.3,-3.4 -1.9,-9.3 -1.4,-11.9 0.5,-2.7 7.6,-12.7 9,-20 1.4,-7.3 -0.9,-19.6 -0.9,-19.6 z"
       inkscape:connector-curvature="0"
       style="fill:#993399" />
    <path
       id="path1835"
       d="m 20.9,120.2 c 0,0 -2.8,21.5 -2,29.7 0.8,8.2 1.8,15.7 1.5,19.7 -0.3,4.1 -0.6,21.1 -1,23.2 -0.4,2.2 2.8,2.8 6.1,3.4 3.3,0.6 7.3,0.4 8,-1.3 0.7,-1.7 4.2,-19.1 3.9,-22.5 -0.3,-3.4 -1.9,-9.3 -1.4,-11.9 0.5,-2.7 7.6,-12.7 9,-20 1.4,-7.3 -0.9,-19.6 -0.9,-19.6 z"
       inkscape:connector-curvature="0"
       style="opacity:0.15" />
    <path
       id="path1837"
       d="m 29.7,119.4 c 0,0 3.3,11.1 4.3,14.1 1,3.1 4.5,19.2 5.2,22.3 0.8,3.1 2.4,9 3.2,11.5 0.8,2.4 3.6,5.6 6,8.2 2.4,2.5 6.9,9.1 8.2,11.5 1.3,2.4 1.4,3.3 4.5,2.8 3.6,-0.6 7.2,-3.9 8.2,-4.8 0.4,-1.6 -0.8,-8.1 -2.9,-12.9 -2.1,-4.8 -6.9,-10.1 -6.9,-12.3 0,-2.2 3.1,-16.4 3.3,-22.8 0.3,-6.4 1.1,-14.3 0.1,-17.5 -1,-3.2 -3.6,-6.8 -3.6,-6.8 0,0 -8.4,3.3 -14.1,4.5 -5.8,1.3 -15.5,2.2 -15.5,2.2 z"
       inkscape:connector-curvature="0"
       style="fill:#993399" />
    <path
       id="path1839"
       d="m 25,89.3 c 0,0 -4.3,8.3 -5.2,23.3 -0.8,12.6 -0.9,12.3 -0.3,13.6 1,2.3 15.6,3.6 24.9,3.8 6.3,0.1 16.2,-1.4 19.2,-4.8 1.3,-1.4 0.5,-5.5 0.4,-6.1 -1.1,-6.3 -2.5,-9.9 -3.3,-15.6 C 58.7,90.2 62,76 62.3,71.8 62.8,65 58.3,62 56.2,60.8 53,59 39.6,55.8 37.2,55.1 c -2.4,-0.6 -6.9,-0.9 -8,3.4 -1.1,4.3 0.1,7.6 -1.3,9.2 -1.4,1.7 -6.4,7.9 -6.1,12.1 0.1,4.3 3.2,9.5 3.2,9.5 z"
       inkscape:connector-curvature="0"
       style="fill:#baa794" />
    <path
       id="path1841"
       d="m 52.1,82.7 c 0,0 -6.5,8.1 -15,6.9 -9,-1.3 -2.7,-14.1 -2.7,-14.1 0,0 -7.8,13.7 -12.6,6.1 0.9,3.9 3.1,7.8 3.1,7.8 0,0 0,0 0,0 1.7,1.2 3.1,0.9 5.5,-1.9 1.8,12.1 21.3,5.9 24.2,3.2 -0.6,-2.7 -2.5,-8 -2.5,-8 z"
       inkscape:connector-curvature="0"
       style="opacity:0.15" />
    <path
       id="path1843"
       d="m 50.2,82.1 10.3,-1 c 0,0 1.4,12.5 1.3,15.8 -0.1,3.3 -0.1,6.5 -1,9.3 -0.9,2.8 -9.3,19.5 -11.2,23.3 -1.9,3.8 -3.8,9.6 -4.2,10.6 -0.4,1 -3.2,4.8 -4.3,5.4 -1.1,0.6 -3.7,1.2 -5.7,0.4 -1.5,-0.6 1.8,-10.2 2.3,-11.5 1,-2.2 2.8,-3.5 3.8,-4.9 1,-1.4 4.1,-7.1 5.4,-11.9 1.3,-4.8 2.5,-10.6 4.3,-12.9 1.7,-2.4 2.4,-4.7 2,-6.5 -0.6,-1.8 -3,-16.1 -3,-16.1 z"
       inkscape:connector-curvature="0"
       style="fill:#fbd7c7" />
    <path
       id="path1845"
       d="m 37.2,28 c -5.2,3.4 -5.6,10.5 -5.4,15.4 0.2,4.9 0.3,8.9 2.2,10.5 1.8,1.7 2,2.4 2.2,3.5 0.2,1.1 -5.5,5.6 -0.6,7.8 4.9,2.2 6.7,-0.3 10.7,-2 4.2,-1.8 7.4,-1.6 7.4,-1.6 0,0 -2.5,-4.6 -2.3,-7.8 0.2,-3.2 1,-5.7 2.5,-9 C 55.5,41.4 58,32.4 52.8,28.9 47.6,25.4 40.7,25.7 37.2,28 Z"
       inkscape:connector-curvature="0"
       style="fill:#fbd7c7" />
    <path
       id="path1847"
       d="m 50.2,26.3 c 0,0 -3.3,-4.1 -9.9,-2 -6.6,2.1 -8,7.7 -8,7.7 l 2.6,-1.7 -1.6,3.4 2.4,-2.1 c 0,0 -1.1,2.6 -1.1,2.4 0,-0.2 2.5,-2 2.5,-2 0,0 -1.8,4.4 -1.7,4.3 0.1,-0.2 6.3,-6 6.3,-6 l -3.3,7 1.5,-0.5 -1.4,7.1 1.4,-2.4 0.3,5.5 1.7,-6 1,4.2 1.1,-4 1.4,6.6 1.3,-3.4 0.9,2.9 1.8,-4.4 0.4,1.7 1.5,-2.7 0.2,1.6 1,-0.2 -1.9,7.3 1.9,-3.6 -0.5,6.1 3,-7.1 0.3,1.5 1.5,-6.5 0.3,3.1 0.6,-4.8 0.9,0.9 -0.7,-4.2 0.9,0.5 -1.9,-3.5 1.2,0.5 c 0,0.1 -1.9,-7.5 -7.9,-7.2 z"
       inkscape:connector-curvature="0"
       style="fill:#2d3134" />
  </g>
</svg>
