<svg enable-background="new 0 0 80 240" viewBox="0 0 80 240" xmlns="http://www.w3.org/2000/svg"><path d="m15.2 202.4c-11.4 2.8-1.1 16.8 13.9 21.1 13.3 3.8 25.9 17 39.3 9.1 12.5-7.4-5.7-20.7-17.1-21.3-20.2-1.2-31.7-10-36.1-8.9z" fill="#262626" opacity=".2"/><path d="m28.7 66.2-7.7 9 10.6 13.1 15.2-6.5-.6-9.4-9.4-5z" fill="#fbd7c7"/><path d="m51.6 219.3s2.2 4.7 3.4 6.4 5.5 6.6 10.4 5.3 1.6-7.2 1.6-7.2l-6.9-6z" fill="#2d3134"/><path d="m54.2 220.9c.9 1.9 2.1 4.1 3.7 5.5 1.6 1.5 3.8 3.1 6.4 3.2 2.5 0 3.5-1.3 3.7-2.3.3-1.6.3-3-2.6-5.3-2.8-2.3-3.6-3.3-3.7-4.3-.1-.9-7.5 3.2-7.5 3.2z" fill="#fff"/><path d="m11.9 202.9c1.2 2.9 2.3 8.5 5.1 10.9 1.7 1.5 5.6 3.1 8.2 2.8s3.9-1.2 4-2.5-1.3-4.2-4.6-6.6-6.6-4.5-6.6-4.5z" fill="#2d3134"/><path d="m14.5 205.7c.9 2.5 1.8 5 3.1 6.4 1.5 1.5 5 3.1 7.5 3 2.3 0 3.3-.7 3.7-1.2.6-.5.9-1.8-.2-3-1-1.2-3.3-2.8-4-4.4-.8-1.5-1.4-3.1-1.4-3.1z" fill="#fff"/><path d="m48.7 81 3.2-1s.1 3.5-.8 12.1c-.5 5.2-1.8 11-1.8 11s1.4 2.4 2.7 6.6c1.2 4.1 2.3 11.2 3.2 13.3s3 5.1 3.1 5.8c.3 1.3-.8 3.4-1.3 3.7-2 1.1-4.3 1-5.5.1-1.1-.8-2.6-4.2-2.5-4.4.6-1.2 1.9-.6 2-.4.1.1-.9-2.9-.8-3.8s.2-.7.2-1.3-9.2-19.3-9.2-19.3z" fill="#fbd7c7"/><path d="m49.9 121.7s6.8 11 8.5 23.9 3.8 18.4 3 24.3c-2.1 16.9 2.9 48.9 2.1 50.2-1.2 1.9-2.8 2.8-7.3 2.1-5.6-.9-6-6.5-6-6.5s.3-11.5.1-17.2-3.7-10.8-3.5-22.3c.1-5.2 2-9.2.5-11.8-1.5-2.7-16.1-32.6-16.1-32.6z" fill="#cc291f"/><path d="m49.9 121.7s6.8 11 8.5 23.9 3.8 18.4 3 24.3c-2.1 16.9 2.9 48.9 2.1 50.2-1.2 1.9-2.8 2.8-7.3 2.1-5.6-.9-6-6.5-6-6.5s.3-11.5.1-17.2-3.7-10.8-3.5-22.3c.1-5.2 2-9.2.5-11.8-1.5-2.7-16.1-32.6-16.1-32.6z" opacity=".2"/><path d="m42.9 125.2s1.4 11.9-1 16.7c-2.5 4.7-4 12.5-4.6 19.9s-.2 10.8-4.4 15.2-7 10.1-8.2 16.7c-.9 5.2-.8 11.6-.8 11.6s-2.9 3.4-7.5 1.9-5-5.3-5-5.3.9-6.4 1.6-10.7c.9-4.8 2.5-12.8 4.4-16.2s4.2-5.4 4.4-8.8-5.5-18.8-4.2-33 7-17.8 7-17.8z" fill="#cc291f"/><path d="m49.7 81.2s2.2 0 3-.5c.8-.6.2-7.9-3.5-9.6s-6.7-2-8.2-1.6-.9.5-.9.5 5.9 10.9-2.8 13.4c-7.6 2.1-13.7-10.8-13.7-10.8s-8.9.6-11.3 4.7c-2.3 4.1-1.5 9.7-1.5 9.7s3.3.5 5.7.5c2.6 0 3.3.2 3.3.2s-1.4 1-.7 6.1c.8 5.1 3.5 15 2.7 18.9s-1.8 9.6-2.4 11.6-1.5 5.2-1.5 5.2 11.3 9.5 24.4 3.9c11-4.7 10-7.9 10-7.9s-3.1-10.4-3.8-13.6-.7-13.1-.7-13.1 4.2-3.1 4-7.2-2-6.1-2-8.3-.1-2.1-.1-2.1z" fill="#fc0"/><path d="m51.8 90.9s-.6 6-12.3 8.4c-17.5 3.5-20.2-4.6-20.2-4.6s2.5 10.6 19.6 7.4c14.7-2.9 12.9-11.2 12.9-11.2z" fill="#262626" opacity=".2"/><path d="m11.1 87 8.5.5s.4 9 .3 13.1c-.1 4.7-1.6 10-1.4 11.9.2 2.2.1 10.4.1 13.2s-.5 4 0 4.8c.5.9 2.6 1.3 2.2 3.1-.3 1.8-1.2 4.1-1.2 4.1s1.6 2 1.8 2.6.4 3.1-.5 3.3-1.4.4-1.8.1c-.3-.2-2.1-1.1-2.3-1.2s-.9-.9-.9-.9-.9 0-1.4-.2-1.9-1.4-1.8-2.4c.1-.9 1.8-6.1 1.6-7-.3-.9-3.8-18.3-3.7-19.8 0 0 .6-8.1.6-12.6.1-4.4-.1-12.6-.1-12.6z" fill="#fbd7c7"/><path d="m38.9 69.6c2.6 5.7 9.6 1.5 9.7-1-2.7 0-3.7-2.6-3.7-4.5s3.5-21.1-10.2-21.7 4.2 27.2 4.2 27.2z" fill="#825012"/><path d="m37.4 48c1.5 1.5 5.6 6.7 5.6 6.7s-.1 14.9-4.4 16.2c-1.8.5-5.1.5-8.7-2s-4.4-4.2-4.5-11.3c-.1-11.1 6-15.6 12-9.6z" fill="#fbd7c7"/><path d="m32.5 42.4c1.2.1 6.9 2.4 7.1 6.6.4 7.4-7.3 13.8-8.9 16.6-2.7 4.9 4.5 5.5 4.5 5.5s-4.8 7.8-12.1 6.4-8.4-5.8-6.3-10.3c2.6-5.4 2.6-8.2 4.9-17.1 2.1-7.8 9-7.9 10.8-7.7z" fill="#825012"/></svg>