<?xml version="1.0" encoding="UTF-8" standalone="no"?>
<svg
   xmlns:dc="http://purl.org/dc/elements/1.1/"
   xmlns:cc="http://creativecommons.org/ns#"
   xmlns:rdf="http://www.w3.org/1999/02/22-rdf-syntax-ns#"
   xmlns:svg="http://www.w3.org/2000/svg"
   xmlns="http://www.w3.org/2000/svg"
   xmlns:sodipodi="http://sodipodi.sourceforge.net/DTD/sodipodi-0.dtd"
   xmlns:inkscape="http://www.inkscape.org/namespaces/inkscape"
   enable-background="new 0 0 80 240"
   viewBox="0 0 7.4144082 20.383404"
   version="1.1"
   id="svg2251"
   sodipodi:docname="city--woman13.svg"
   width="7.4144082"
   height="20.383404"
   inkscape:version="0.92.2 (5c3e80d, 2017-08-06)">
  <metadata
     id="metadata2257">
    <rdf:RDF>
      <cc:Work
         rdf:about="">
        <dc:format>image/svg+xml</dc:format>
        <dc:type
           rdf:resource="http://purl.org/dc/dcmitype/StillImage" />
        <dc:title></dc:title>
      </cc:Work>
    </rdf:RDF>
  </metadata>
  <defs
     id="defs2255" />
  <sodipodi:namedview
     pagecolor="#ffffff"
     bordercolor="#666666"
     borderopacity="1"
     objecttolerance="10"
     gridtolerance="10"
     guidetolerance="10"
     inkscape:pageopacity="0"
     inkscape:pageshadow="2"
     inkscape:window-width="870"
     inkscape:window-height="480"
     id="namedview2253"
     showgrid="false"
     fit-margin-top="0"
     fit-margin-left="0"
     fit-margin-right="0"
     fit-margin-bottom="0"
     inkscape:zoom="1.2791667"
     inkscape:cx="4.5918498"
     inkscape:cy="23.233669"
     inkscape:window-x="0"
     inkscape:window-y="0"
     inkscape:window-maximized="1"
     inkscape:current-layer="svg2251" />
  <g
     id="g2272"
     transform="matrix(0.1,0,0,0.1,-0.20433122,-3.1124948)">
    <path
       id="path2225"
       d="m 7.8,233 c -15.2,-7.4 2.7,-16.3 19,-20.9 14.4,-4.1 28.7,-20.3 45.2,-9.8 13.3,8.4 -8.2,16.1 -21.1,20.7 -18.5,6.6 -30.6,16.1 -43.1,10 z"
       inkscape:connector-curvature="0"
       style="opacity:0.2" />
    <path
       id="path2227"
       d="m 14.4,128.7 c 0.2,6 -0.2,30.6 -0.9,34.1 -0.7,3.5 -3.9,10.2 -3.9,20.4 0,8.2 0,18.9 -0.9,24.4 -0.9,5.5 -2.9,8.2 -1.1,9.8 1.8,1.6 2.8,2.9 6.4,2.7 3.6,-0.2 3.9,0.2 6.4,1.4 2.5,1.2 8.7,0.5 9.1,-1.7 0.4,-2.2 -7.2,-1.2 -8.8,-4 -1.6,-2.7 -3.1,-8.4 -2.3,-14.5 0.9,-6.1 8.5,-22.3 7.8,-25.9 -0.7,-3.6 6.2,-17.1 9.4,-23.8 3.1,-6.6 -7,-30.6 -7,-30.6 l -10.1,-4.3 c -0.2,0.1 -4.2,5.3 -4.1,12 z"
       inkscape:connector-curvature="0"
       style="fill:#fbd7c7" />
    <path
       id="path2229"
       d="m 7.4,211.9 c 0,0 2.9,1.3 4.8,2.2 2.6,1.1 7.3,-0.8 7.3,-0.8 0,0 0.9,1.4 2.2,1.8 1.3,0.3 5.8,0.2 7,0.4 1.5,0.2 4.8,2 2.8,4.2 -1.8,2.1 -5.9,4 -10.3,3.4 -2.5,-0.3 -7,-1.8 -8.2,-1.4 -1.2,0.4 -0.5,4.3 -0.5,4.3 l -2,1 -2.3,-1.2 c 0,0 0,-1.4 -0.3,-2.9 -0.4,-1.5 -2,-2.2 -2,-5 0,-2.8 1.5,-6 1.5,-6 z"
       inkscape:connector-curvature="0"
       style="fill:#baa794" />
    <path
       id="path2231"
       d="m 31.6,219.6 c 0.6,-0.7 0.7,-1.3 0.5,-1.9 -1.7,2.6 -6.8,5.1 -13.5,3.4 -4.7,-1.2 -7.6,-1 -12.5,-2.8 0.2,2.4 1.6,3.1 2,4.6 0.4,1.5 0.3,2.9 0.3,2.9 l 2.3,1.2 2,-1 c 0,0 -0.7,-3.9 0.5,-4.3 1.2,-0.4 5.7,1.1 8.2,1.4 4.3,0.5 8.4,-1.4 10.2,-3.5 z"
       inkscape:connector-curvature="0"
       style="opacity:0.4" />
    <path
       id="path2233"
       d="m 17.7,70.8 c 0,0 -3.6,12.5 -3.6,15.2 0,2.7 5.2,15.4 5.6,16.2 0.4,0.9 5,-4 5,-4 0,0 -2.8,-8.2 -2.8,-10.4 0,-2.3 1.7,-8 1.7,-8 z"
       inkscape:connector-curvature="0"
       style="fill:#fbd7c7" />
    <path
       id="path2235"
       d="m 30.8,110.9 c 0,0 -4.6,7.1 -2.8,13.6 1.7,6.4 3.6,8.1 3.6,8.1 0,0 0.9,8.9 2,12.1 1.1,3.2 5.7,12.1 6.3,13.8 2.8,7.6 1,10.8 1.4,16.9 0.4,6.2 3.5,10.7 5.6,15.5 2,4.8 2.7,6.2 1.7,8.8 -0.9,2.6 -3.3,6.9 0.8,8.3 4.1,1.4 6.1,-0.1 9,1.9 2.9,2 7.7,2.7 9.5,0.5 1.8,-2.3 -2.9,-3.2 -3.6,-3.4 -0.7,-0.2 -4.2,-4.3 -4.9,-9.3 -0.9,-5.7 -2,-12.2 -2.3,-18.4 -0.3,-5.4 -1.3,-11.6 -1,-13.9 0.3,-2.3 2.1,-13.3 2.1,-21.7 0,-8.4 -5.5,-27.2 -5.5,-27.2 z"
       inkscape:connector-curvature="0"
       style="fill:#fbd7c7" />
    <path
       id="path2237"
       d="M 33.3,58.8 C 32,58.6 24.6,55.5 20.9,57.3 c -2.6,1.3 -3.8,3.5 -3.8,5.5 -0.1,1.6 0.4,5.7 -0.2,8.1 -0.3,1.3 -0.9,3.9 -0.9,3.9 l 2.4,1.6 c 0,0 1,8.2 0.4,14.3 -0.6,6.2 -3.3,15 -4.9,19.7 -2.4,7.2 -2.6,21.1 -1.4,29.5 1.2,8.5 -6,36.9 -4.6,39.3 1.5,2.6 24.2,6 31.9,6.1 7.5,0.1 17.1,-4.1 18.3,-6.3 1.4,-2.4 0.3,-33.4 -0.3,-47.8 -0.6,-14.4 -3.8,-36.9 -2.2,-39.6 1.6,-2.7 3.9,-7 0.9,-11.5 -2.9,-4.6 -5.4,-6.4 -5.7,-7.4 -0.3,-0.9 -0.2,-2.9 -2.3,-4.9 -2.2,-2.5 -8.2,-7.9 -15.2,-9 z"
       inkscape:connector-curvature="0"
       style="fill:#825012" />
    <path
       id="path2239"
       d="m 32.2,33.2 c 6.6,-1.5 13.8,0.7 15,10 1.2,9.3 -0.9,11.3 -2,12 -1.1,0.7 -2.3,3.2 -2.8,4.7 -0.5,1.5 0.2,2.5 0.2,2.5 0,0 -8,4 -11.9,2.7 -3.9,-1.4 -4.3,-3.4 -2.7,-6.4 1.6,-3 -2.2,-4.9 -3.4,-9.3 C 23.4,45 23.4,35.3 32.2,33.2 Z"
       inkscape:connector-curvature="0"
       style="fill:#fbd7c7" />
    <path
       id="path2241"
       d="m 54.9,88.4 c -3.1,1.2 -7.3,0.3 -7.3,0.3 0,0 -0.2,3.4 -0.2,5.4 0,1.1 0.1,2.9 0.1,2.9 0,0 5.3,-2.9 8.1,-5.3 0,0 0,-0.1 0.1,-0.1 0.9,-1.5 1.9,-3.3 2.2,-5.4 -0.7,0.8 -1.8,1.7 -3,2.2 z"
       inkscape:connector-curvature="0"
       style="opacity:0.15" />
    <path
       id="path2243"
       d="m 36.7,87.2 c 0,0 4.2,0.5 6.7,0.4 2.8,-0.1 4.7,-0.6 4.7,-0.6 0,0 -0.2,4.4 -0.4,8.3 -0.3,5.8 -1.1,9.5 -0.6,12.6 0.7,4.7 5.2,10.9 6.4,13.3 1.2,2.4 3.7,8.1 5.1,9.7 1.3,1.6 5.1,5.3 5.2,6.7 0.1,2 0,5.2 -3.2,6.6 -0.8,0.3 -3.4,1.1 -4.8,-0.3 -0.6,-0.6 2.3,-2.8 2.3,-3.2 0,-0.2 -1.5,-1.8 -1.8,-3.2 -0.4,-1.9 -2.5,-3.8 -4.4,-5.8 -2.7,-2.8 -10.8,-11.2 -12.3,-14.9 -1.5,-3.7 -2.7,-12.5 -2.9,-18.7 -0.2,-6.1 0,-10.9 0,-10.9 z"
       inkscape:connector-curvature="0"
       style="fill:#fbd7c7" />
    <path
       id="path2245"
       d="m 34.2,32 c 3.9,-2.2 9.9,-0.1 12.4,4.6 2.8,5.3 0.1,3 -0.3,5 -0.4,2 0.7,9.6 -4.2,11.3 0.6,-0.9 1.2,-3.2 -0.5,-3 -2.3,0.2 -1.4,9.8 -10.8,11.2 C 17.9,56.3 16.6,29.3 34.2,32 Z"
       inkscape:connector-curvature="0"
       style="fill:#999999" />
    <path
       id="path2247"
       d="m 48.3,200.2 c 0,0 3.1,1.2 5.6,2.3 1.4,0.6 4.3,0.5 5.2,0.3 0.9,-0.4 1.9,-0.8 1.9,-0.8 0,0 1.3,3.4 2.2,3.7 0.9,0.3 4.2,-0.6 5.8,1 1.7,1.8 1.3,2.7 0.4,3.8 -0.8,1 -4.3,3.4 -6.8,2.9 -1.9,-0.3 -7.6,-2.7 -8.8,-2.4 -1.2,0.3 -0.7,4.5 -0.7,4.5 l -2.2,1.1 -2,-1 c 0,0 0,-2.1 -0.7,-3.5 -0.6,-1.4 -1.8,-3 -1.8,-5.9 0,-2.9 1.9,-6 1.9,-6 z"
       inkscape:connector-curvature="0"
       style="fill:#baa794" />
    <path
       id="path2249"
       d="m 70.2,208.4 c -0.1,1.8 -5.1,4.7 -7.4,4 -6.7,-2 -12.1,-3.8 -16.4,-6.1 0,2.9 1.2,4.4 1.8,5.8 0.6,1.4 0.7,3.5 0.7,3.5 l 2,1 2.2,-1.1 c 0,0 -0.5,-4.2 0.7,-4.5 1.2,-0.3 6.9,2.1 8.8,2.4 2.5,0.5 6,-1.9 6.8,-2.9 0.6,-0.7 1,-1.3 0.8,-2.1 z"
       inkscape:connector-curvature="0"
       style="opacity:0.4" />
  </g>
</svg>
