<svg enable-background="new 0 0 80 240" viewBox="0 0 80 240" xmlns="http://www.w3.org/2000/svg"><path d="m7.5 232.9c-15.6-7.6 2.8-16.8 19.6-21.6 14.9-4.2 29.5-20.9 46.5-10.1 13.7 8.7-8.4 16.6-21.8 21.4-18.9 6.8-31.3 16.6-44.3 10.3z" opacity=".2"/><path d="m14.4 125.5c.2 6.2-.2 31.5-.9 35.1-.8 3.6-4 10.5-4 21 0 8.4 0 19.5-.9 25.2s-3 8.4-1.2 10.1c1.9 1.7 2.9 3 6.5 2.8s4 .2 6.5 1.5 9 .5 9.4-1.8-7.4-1.3-9.1-4.1-3.2-8.7-2.3-14.9 8.8-23 8.1-26.7 6.4-17.6 9.6-24.5-7.3-31.5-7.3-31.5l-10.5-4.5c.1 0-4.1 5.4-3.9 12.3z" fill="#fbd7c7"/><path d="m7.2 211.2s3 1.4 5 2.2c2.6 1.2 7.6-.8 7.6-.8s.9 1.5 2.2 1.8c1.4.3 5.9.2 7.2.4 1.5.2 4.9 2 2.9 4.3-1.9 2.1-6.1 4.1-10.6 3.5-2.6-.3-7.2-1.8-8.4-1.4s-.5 4.4-.5 4.4l-2 1-2.4-1.2s0-1.4-.3-3c-.4-1.6-2.1-2.3-2.1-5.2s1.4-6 1.4-6z" fill="#e5e5e5"/><path d="m32.1 219.1c.6-.7.7-1.4.5-1.9-1.8 2.7-7 5.3-14 3.5-4.8-1.2-7.9-1-12.9-2.9.2 2.5 1.7 3.2 2.1 4.7.4 1.6.3 3 .3 3l2.4 1.2 2-1s-.7-4 .5-4.4 5.8 1.1 8.4 1.4c4.6.5 8.8-1.4 10.7-3.6z" opacity=".4"/><path d="m31.2 107.2s-4.7 7.3-2.9 14c1.8 6.6 3.7 8.3 3.7 8.3s.9 9.2 2.1 12.5 5.9 12.5 6.5 14.3c2.9 7.8 1 11.1 1.4 17.5.4 6.3 3.6 11 5.7 16 2.1 4.9 2.8 6.4 1.8 9s-3.4 7.1.8 8.6 6.3-.1 9.3 2 7.9 2.8 9.8.5-3-3.3-3.7-3.5-4.3-4.4-5.1-9.6c-.9-5.8-2-12.6-2.4-18.9-.3-5.5-1.3-12-1-14.3s2.2-13.7 2.2-22.4-5.6-28-5.6-28z" fill="#fbd7c7"/><path d="m49.3 199.1s3.2 1.2 5.7 2.3c1.5.6 4.5.5 5.4.3.9-.3 2-.7 2-.7s1.3 3.5 2.2 3.8 4.3-.7 6 1.1c1.8 1.8 1.3 2.8.4 3.9-.9 1-4.4 3.5-7 3-1.9-.4-7.8-2.7-9.1-2.5-1.2.3-.7 4.6-.7 4.6l-2.2 1.1-2-1s-.1-2.1-.7-3.6c-.7-1.4-1.9-3.1-1.9-6.1s1.9-6.2 1.9-6.2z" fill="#e5e5e5"/><path d="m71.8 207.6c-.1 1.9-5.3 4.8-7.6 4.1-6.9-2-12.5-3.9-16.8-6.3 0 3 1.2 4.6 1.9 6s.7 3.6.7 3.6l2 1 2.3-1.1s-.6-4.3.7-4.6c1.2-.3 7.1 2.1 9.1 2.5 2.6.5 6.2-2 7-3 .5-.7.9-1.4.7-2.2z" opacity=".4"/><path d="m16.1 112.2c-1.2 2.9-3.7 9-3.1 16.6s-.2 27.9-.6 30.9c-.4 2.9-3.7 16.4-3.9 27-.1 7.2-.4 10-.4 10s2.5 1.8 6.6 1.8 6.8-.6 6.8-.6 6.1-18.9 6.3-22.3 0-6.6 2.1-11.5 6.4-10.5 7.8-20.3-1.6-28.7-1.6-28.7z" fill="#939"/><path d="m16.1 112.2c-1.2 2.9-3.7 9-3.1 16.6s-.2 27.9-.6 30.9c-.4 2.9-3.7 16.4-3.9 27-.1 7.2-.4 10-.4 10s2.5 1.8 6.6 1.8 6.8-.6 6.8-.6 6.1-18.9 6.3-22.3 0-6.6 2.1-11.5 6.4-10.5 7.8-20.3-1.6-28.7-1.6-28.7z" opacity=".15"/><path d="m54.6 114.6s5.9 18.2 5.5 28.7-2.3 18.2-2.1 19.9c.2 1.8 2.7 23.8 2.7 23.8s-3.1 1.8-6.1 2.3c-2.9.6-8.6 1-8.6 1s-4.3-8.6-5.5-16.4.8-10.5-.8-15.8-10.5-21.1-11.1-29.9-1.2-14.8-1.2-14.8z" fill="#939"/><path d="m17.7 65.8s-3.7 12.9-3.7 15.6 5.4 15.8 5.8 16.7 5.2-4.1 5.2-4.1-3-8.3-3-10.7c0-2.3 1.8-8.2 1.8-8.2z" fill="#fbd7c7"/><path d="m33.9 53.4c-1.3-.2-8.9-3.4-12.7-1.5-2.7 1.3-3.9 3.6-4 5.7-.1 1.7.4 5.9-.2 8.3-.3 1.3-.9 4-.9 4l2.4 1.7s1 8.4.4 14.8-3.4 15.4-5 20.3c-1.9 5.8-3.3 15.8-2.1 23.9.9 6.1 47.4 9.8 47.4 1.8 0-2.8 0-2.1-.1-4.4-.6-14.8-3.9-38-2.3-40.8 1.7-2.8 4-7.2 1-11.9s-5.6-6.6-5.9-7.6-.2-3-2.3-5.1c-2.4-2.4-8.6-8-15.7-9.2z" fill="#baa794"/><path d="m56.1 84c-3.2 1.3-7.5.3-7.5.3s-.2 3.5-.2 5.6c0 1.2.1 3 .1 3s5.5-3 8.4-5.5c0 0 0-.1.1-.1.9-1.5 1.9-3.4 2.3-5.6-.9.8-1.9 1.8-3.2 2.3z" opacity=".15"/><path d="m37.3 82.7s4.3.5 6.9.4c2.8-.1 4.8-.6 4.8-.6s-.2 4.5-.4 8.5c-.3 6-1.2 9.8-.7 13 .8 4.8 5.4 11.2 6.6 13.7s3.8 8.3 5.2 10 5.3 5.4 5.4 6.9c.1 2.1 0 5.4-3.3 6.8-.8.4-3.5 1.1-4.9-.3-.7-.6 2.3-2.9 2.3-3.3 0-.2-1.6-1.9-1.8-3.3-.4-1.9-2.6-3.9-4.5-6-2.7-2.9-11.1-11.6-12.6-15.4-1.6-3.8-2.8-12.9-3-19.3-.2-6.1 0-11.1 0-11.1z" fill="#fbd7c7"/><path d="m32.7 27.3c6.8-1.6 14.3.7 15.5 10.3s-1 11.7-2.1 12.4-2.4 3.3-2.9 4.9.2 2.6.2 2.6-7.7 4.5-12.3 2.7c-4-1.5-4.4-3.5-2.8-6.6s-2.3-5-3.5-9.6c-1.3-4.6-1.2-14.7 7.9-16.7z" fill="#fbd7c7"/><path d="m41.5 25.3c3.5 1.1 6.3 6 6.3 6l-2.6-1.5 2.5 3.7-2.3-1.6 2.2 5-1.3-.7s.8 1.8.3 4.6c-.3 1.9-1.3 3.4-1.3 3.4v-3.4s-.3 4.3-2.5 7.3c0 0 1-4.4.6-5.2-.4-.7-.9 1.6-.9 1.6l-.7-2-.4 2.1-1.7-.9s.6 2.2-1.1 5.6c-1 2-3.9 4.8-3.9 4.8l.9-4.3-3.8 6.2-.9-3.4-.6 2.4-.6-1.7-.8 1.9s-.9-3.6-1.3-4.4c-.3-.7-.8.7-.8.7l-1.8-4.5-.7 1.3-.8-5.4-.6 1.1-.6-5.5-1.1 1.2s.2-5.4 1.9-7.7c1.2-1.7 2.4-1.9 2.4-1.9l-1.7-.1s2.6-3.8 7-4.4c3.6-.5 4 .3 4 .3s2.5-1.9 6.7-.6z" fill="#2d3134"/></svg>