<svg enable-background="new 0 0 80 240" viewBox="0 0 80 240" xmlns="http://www.w3.org/2000/svg"><path d="m68.7 82.7c-.8 4.9-1.3 11.8-1.3 14.8s.7 5.9 0 8.9-5.9 14.2-6.1 16.7-1 6.8-2.1 7.7-6.5-.8-6.4-3.1 2.1-3.7 3.6-6.3c1.3-2.3 1.8-7 2.5-10.2.9-3.7 1.9-5 1.8-9.3s.2-20.5.2-20.5z" fill="#fbd7c7"/><path d="m63.6 233.5c14.9-5.6 1.2-17.1-14.2-21.5-13.6-3.9-27.7-18.9-41.3-10.9-12.8 7.6 5.7 16.6 17.9 20.9 17.4 6.3 28 15.1 37.6 11.5z" fill="#262626" opacity=".2"/><path d="m66.5 224.1c.3 1.4.8 3.5-.1 4.3-1.3 1-7.9 1.2-13.2.4-2.6-.4-5.8-1.9-6.3-3.1-.5-1.3-.3-2.4.3-2.8s19.3 1.2 19.3 1.2z" fill="#2d3134"/><path d="m66.9 226.8c-1.8 2-12.8.9-15.1.2-1.4-.4-4.6-1.4-4.9-2.9-.2-.9-.7-3.1 2.1-4.1 2.8-1.1 11.6 1 11.6 1s4.6 1.4 6.1 3.2c.4.6.5 2.2.2 2.6z" fill="#fff"/><path d="m9.1 205.6c.4 1.9 2.8 3.2 5.1 3.4 3.3.2 7.4-2 10.7-2.8 2.3-.6 3.6-1.5 3.9-2.4.3-.8.5-2.7-.2-2.9-.8-.1-18.2.2-18.3.7-.2.6-1.6 2.1-1.2 4z" fill="#2d3134"/><path d="m27.8 203.1c-2.9 2-5.2 1.7-8.3 2.9-2.5 1-3.7 1.5-6.4 1.2-1.4-.2-3.5-1.1-4-2.7-.2-.9.4-3.4 2.4-4.1s3.8-.3 6.3-.8c2.6-.5 14.8.3 10 3.5z" fill="#fff"/><path d="m55.5 120.9c3.6 5.8 4.8 5.8 4.8 17.3s-7.1 28.8-4.6 33c4.7 8.3 7.6 15.7 9.9 32.4 2.3 16.4 1.4 21.4 1.4 21.4s-2.3 2.1-8.1 1.5c-4.8-.5-5.7-2-6-3.8-.4-2.4 2.2-8.2 1-14.1-1.3-5.9-5.5-21.1-7.9-25.4-2.7-4.6-3.9-7.2-4.9-16.8-1.1-9.7-5.1-37.1-5.1-37.1z" fill="#cc291f"/><path d="m55.5 120.9c3.6 5.8 4.8 5.8 4.8 17.3s-7.1 28.8-4.6 33c4.7 8.3 7.6 15.7 9.9 32.4 2.3 16.4 1.4 21.4 1.4 21.4s-2.3 2.1-8.1 1.5c-4.8-.5-5.7-2-6-3.8-.4-2.4 2.2-8.2 1-14.1-1.3-5.9-5.5-21.1-7.9-25.4-2.7-4.6-3.9-7.2-4.9-16.8-1.1-9.7-5.1-37.1-5.1-37.1z" opacity=".2"/><path d="m52.3 124.3s1.9 6.9.2 14.1-21.8 20.2-22.4 23c-.6 2.7.8 9.9-.2 16.2-.9 5.7-1.4 13.1-1.5 17.6-.1 2.9 1.3 6.2.1 7.5-1.3 1.5-6.1 1.9-8.5 2.1-5 .4-5.1-3.1-5.1-3.1s1.1-4.6 1.2-8.7c0-4.2.3-26.9.2-31s1.5-15.3 5.9-23.3c4.5-8 8.7-14.9 13-15 4.3-.2 17.1.6 17.1.6z" fill="#cc291f"/><path d="m26.4 131.2s9.8 2 20.1.6c10.2-1.4 13-2.5 13.3-3.1-.3-1.4-4-9.1-3.3-13.3s9.8-30.9 9.8-30.9 2.4-1.3 2.5-2.1c.1-.9 1.1-8-7.1-8.4-8.1-.4-22.2 2.4-26.6 3.7s-8.8 1.7-10.5 6.4c-1.6 4.6-.5 6-.5 6s1.7 1.3 3.4 1.4c1.8.1 3.8-.2 3.8-.2s.2 12.3-.5 15.2-2 8.8-2.3 12.5c-.2 3.6-2.1 12.2-2.1 12.2z" fill="#fc0"/><path d="m41.1 44.8c7.1-2 12.5 1.2 15 6.6s4.1 15.8 6.2 19.8 3.4 11.3-11.7 13.8c-15 2.5-20.1-7.2-19.9-9.1.5-.3 3.2-.2 2.4-7.8s-.2-21 8-23.3z" fill="#825012"/><path d="m24.1 89.9s.3 7.8.4 10.7c.1 2.8.6 5.7.1 6.9s-3.1 8.9-4 11.3c-1.2 3.5-2 8-3.8 9.1-1.5 1-2 1.1-2.4 2.4-.4 1.4-.7 4.7-.4 5.9s5 2.2 6.2 1.3 1.4-5.8 2-7.4c.7-1.5 8.2-15.4 8.6-17.6.4-2.3 1.1-11.1 1.1-15.8 0-2.4-.2-5.8-.2-5.8s-1.6.5-3.8.4-3.8-1.4-3.8-1.4z" fill="#fbd7c7"/></svg>