<?xml version="1.0" encoding="UTF-8" standalone="no"?>
<!-- Created with Inkscape (http://www.inkscape.org/) -->

<svg
   xmlns:dc="http://purl.org/dc/elements/1.1/"
   xmlns:cc="http://creativecommons.org/ns#"
   xmlns:rdf="http://www.w3.org/1999/02/22-rdf-syntax-ns#"
   xmlns:svg="http://www.w3.org/2000/svg"
   xmlns="http://www.w3.org/2000/svg"
   xmlns:sodipodi="http://sodipodi.sourceforge.net/DTD/sodipodi-0.dtd"
   xmlns:inkscape="http://www.inkscape.org/namespaces/inkscape"
   width="2.7869935mm"
   height="5.7121797mm"
   viewBox="0 0 2.7869935 5.7121796"
   version="1.1"
   id="svg163440"
   inkscape:version="0.92.2 (5c3e80d, 2017-08-06)"
   sodipodi:docname="people-business-03.svg">
  <defs
     id="defs163434">
    <clipPath
       id="clipPath1972"
       clipPathUnits="userSpaceOnUse">
      <path
         inkscape:connector-curvature="0"
         id="path1970"
         d="m 560.418,1876.48 h 68.788 v -25.6 h -68.788 z" />
    </clipPath>
  </defs>
  <sodipodi:namedview
     id="base"
     pagecolor="#ffffff"
     bordercolor="#666666"
     borderopacity="1.0"
     inkscape:pageopacity="0.0"
     inkscape:pageshadow="2"
     inkscape:zoom="0.35"
     inkscape:cx="5.2667619"
     inkscape:cy="10.794673"
     inkscape:document-units="mm"
     inkscape:current-layer="layer1"
     showgrid="false"
     fit-margin-top="0"
     fit-margin-left="0"
     fit-margin-right="0"
     fit-margin-bottom="0"
     inkscape:window-width="1360"
     inkscape:window-height="706"
     inkscape:window-x="-8"
     inkscape:window-y="-8"
     inkscape:window-maximized="1" />
  <metadata
     id="metadata163437">
    <rdf:RDF>
      <cc:Work
         rdf:about="">
        <dc:format>image/svg+xml</dc:format>
        <dc:type
           rdf:resource="http://purl.org/dc/dcmitype/StillImage" />
        <dc:title></dc:title>
      </cc:Work>
    </rdf:RDF>
  </metadata>
  <g
     inkscape:label="Layer 1"
     inkscape:groupmode="layer"
     id="layer1"
     transform="translate(78.878617,-145.97725)">
    <g
       id="g4058"
       transform="matrix(0.1,0,0,0.086,-69.736608,136.03367)">
      <g
         transform="matrix(0.35277777,0,0,-0.35277777,-289.1231,834.993)"
         id="g1966">
        <g
           id="g1968" />
        <g
           id="g1980">
          <g
             style="opacity:0.28999299"
             id="g1978"
             clip-path="url(#clipPath1972)">
            <g
               id="g1976"
               transform="translate(570.606,1863.9536)">
              <path
                 inkscape:connector-curvature="0"
                 id="path1974"
                 style="fill:#231f20;fill-opacity:1;fill-rule:nonzero;stroke:none"
                 d="m 0,0 c 16.861,-1.981 10.982,-3.894 10.982,-7.53 0,-5.154 8.961,-5.549 19.61,-5.549 18.988,0 28.008,5.794 28.008,12.417 0,6.619 -11.728,13.189 -30.722,13.189 C 7.871,12.527 -6.659,10.293 -9.805,5.939 -12.137,2.713 -3.192,0.376 0,0" />
            </g>
          </g>
        </g>
      </g>
      <g
         transform="matrix(0.35277777,0,0,-0.35277777,-70.308209,174.35237)"
         id="g1982">
        <path
           inkscape:connector-curvature="0"
           id="path1984"
           style="fill:#383736;fill-opacity:1;fill-rule:nonzero;stroke:none"
           d="m 0,0 c 0,0 -0.046,-7.608 -0.043,-7.764 0.06,-2.986 -1.42,-9.022 -8.337,-9.022 h -2.84 c 0,0 -4.733,0.523 -3.594,7.188 0.402,2.327 1.799,10.242 1.799,10.242 z" />
      </g>
      <g
         transform="matrix(0.35277777,0,0,-0.35277777,-70.308209,173.76669)"
         id="g1986">
        <path
           inkscape:connector-curvature="0"
           id="path1988"
           style="fill:#545454;fill-opacity:1;fill-rule:nonzero;stroke:none"
           d="m 0,0 c 0,0 0.153,0.177 -0.043,-8.332 -0.07,-2.989 -1.466,-7.964 -8.251,-7.964 -2.746,0 -3.448,-0.056 -3.524,-0.055 -1.997,0.055 -3.457,2.1 -2.86,6.353 0.262,1.852 2.061,9.978 2.194,9.978 z" />
      </g>
      <g
         transform="matrix(0.35277777,0,0,-0.35277777,-81.34458,148.1407)"
         id="g1990">
        <path
           inkscape:connector-curvature="0"
           id="path1992"
           style="fill:#77a5b2;fill-opacity:1;fill-rule:nonzero;stroke:none"
           d="m 0,0 c 1.654,-0.216 5.251,2.556 5.251,2.556 0,0 0.117,0.399 0.324,1.097 1.169,3.95 5.463,17.493 6.242,22.548 0.861,5.56 1.711,15.621 1.711,15.621 0,0 2.706,15.846 -3.069,18.047 C 7.158,61.125 1.176,57.66 0.998,48.437 0.928,44.887 0.405,27.146 0.405,27.146 L -3.89,4.797 c 0,0 0.657,-4.37 3.89,-4.797" />
      </g>
      <g
         transform="matrix(0.35277777,0,0,-0.35277777,-80.484859,147.7378)"
         id="g1994">
        <path
           inkscape:connector-curvature="0"
           id="path1996"
           style="fill:#e8c5ac;fill-opacity:1;fill-rule:nonzero;stroke:none"
           d="m 0,0 -4.213,0.776 -1.17,0.98 -2.169,-6.9 0.253,-6.264 c 0,0 -0.486,-3.175 2.871,-3.796 2.192,-0.404 0.237,-0.044 0.237,-0.044 3.004,-0.553 3.836,2.635 3.836,2.635 l 2.241,8.301 C 2.25,-2.535 1.928,-0.359 0,0" />
      </g>
      <g
         transform="matrix(0.35277777,0,0,-0.35277777,-83.131359,147.37606)"
         id="g1998">
        <path
           inkscape:connector-curvature="0"
           id="path2000"
           style="fill:#e4eff4;fill-opacity:1;fill-rule:nonzero;stroke:none"
           d="m 0,0 c -0.101,-0.74 1.341,-2.404 3.491,-2.896 2.789,-0.634 4.19,-0.269 4.19,-0.269 1.366,0.279 2.148,0.699 2.374,1.607 0,0 0.85,3.353 1.066,4.419 0.135,0.687 -0.197,0.734 -0.197,0.734 0,0 -0.131,-0.539 -0.274,-0.717 C 10.131,2.202 8.796,1.393 6.011,1.666 1.633,2.098 1.456,4.741 1.456,4.741 0.822,4.828 0.577,4.566 0.511,3.833 Z" />
      </g>
      <g
         transform="matrix(0.35277777,0,0,-0.35277777,-84.52734,171.43935)"
         id="g2002">
        <path
           inkscape:connector-curvature="0"
           id="path2004"
           style="fill:#545454;fill-opacity:1;fill-rule:nonzero;stroke:none"
           d="m 0,0 -2.625,-1.884 c 0,0 -10.566,-3.721 -11.295,-3.999 -0.831,-0.316 -2.639,-0.83 -2.573,-2.302 0.013,-0.348 -0.02,-0.571 0.169,-0.903 0.691,-1.188 2.248,-1.823 3.714,-2.22 3.198,-0.863 10.131,-0.515 10.131,-0.515 2.016,0.05 5.425,0.71 5.818,0.969 0,0 1.765,0.333 2.013,-0.283 0.088,-0.223 -0.183,-1.187 -0.227,-1.38 l 4.426,1.305 c 0.225,0.088 0.821,2.087 1.008,2.98 l 0.493,5.965 z" />
      </g>
      <g
         transform="matrix(0.35277777,0,0,-0.35277777,-89.591108,175.00367)"
         id="g2006">
        <path
           inkscape:connector-curvature="0"
           id="path2008"
           style="fill:#282827;fill-opacity:1;fill-rule:nonzero;stroke:none"
           d="m 0,0 c 0.813,-0.485 1.99,-0.8 3.165,-1.045 4.693,-0.974 12.022,-0.045 12.022,-0.045 0.723,0.095 3.483,0.496 3.483,0.496 0,0 1.094,-0.192 1.036,-0.44 0.01,0.128 -0.014,0.013 0.044,-0.008 0.102,-0.048 -0.271,-1.372 -0.271,-1.372 l -1.069,0.821 c 0,0 -3.356,-0.408 -3.957,-0.539 0,0 -7.051,-0.87 -11.779,0.049 -1.492,0.291 -3.962,1.403 -4.726,2.86 C -2.19,1.03 -2.315,1.647 -2.095,2.046 -2.085,1.974 -1.093,0.656 0,0" />
      </g>
      <g
         transform="matrix(0.35277777,0,0,-0.35277777,-82.639239,175.36834)"
         id="g2010">
        <path
           inkscape:connector-curvature="0"
           id="path2012"
           style="fill:#282827;fill-opacity:1;fill-rule:nonzero;stroke:none"
           d="m 0,0 4.854,1.618 c 0,0 -0.553,-1.738 -0.611,-1.705 L -0.179,-1.395 C -0.154,-1.252 -0.052,-0.377 0,0" />
      </g>
      <g
         transform="matrix(0.35277777,0,0,-0.35277777,-80.436631,146.77023)"
         id="g2014">
        <path
           inkscape:connector-curvature="0"
           id="path2016"
           style="fill:#282827;fill-opacity:1;fill-rule:nonzero;stroke:none"
           d="m 0,0 -14.123,-69.601 c -0.552,-2.503 -0.959,-2.983 -0.294,-3.906 2.48,-3.44 11.288,-8.992 13.462,-3.77 L 19.517,3.941 Z" />
      </g>
      <g
         transform="matrix(0.35277777,0,0,-0.35277777,-76.75071,145.81406)"
         id="g2018">
        <path
           inkscape:connector-curvature="0"
           id="path2020"
           style="fill:#231f20;fill-opacity:1;fill-rule:nonzero;stroke:none"
           d="m 0,0 3.849,-77.683 0.178,-5.407 c 0.024,-1.841 2.435,-3.811 5.498,-4.346 3.777,-0.659 5.852,0.351 5.852,0.351 2.486,0.711 3.62,3.439 3.683,4.084 l 0.899,39.089 1.183,40.659 z" />
      </g>
      <g
         transform="matrix(0.35277777,0,0,-0.35277777,-79.254261,127.92403)"
         id="g2022">
        <path
           inkscape:connector-curvature="0"
           id="path2024"
           style="fill:#8db9c9;fill-opacity:1;fill-rule:nonzero;stroke:none"
           d="M 0,0 C -3.044,-5.21 -3.429,-11.676 -3.232,-45.583 L -5.464,-59.81 c -0.056,-1.433 -1.672,-6.415 0.697,-7.391 0,0 6.697,-4.464 16.041,-5.022 12.601,-0.752 16.32,0.837 16.32,0.837 2.23,0.139 2.42,7.657 2.509,8.368 l 1.013,51.136 c 0.263,3.316 -11.493,10.859 -13.455,12.12 l -8.058,2.8 C 9.603,3.038 2.068,3.528 0,0" />
      </g>
      <g
         transform="matrix(0.35277777,0,0,-0.35277777,-70.601899,147.27495)"
         id="g2026">
        <path
           inkscape:connector-curvature="0"
           id="path2028"
           style="fill:#ffe8d9;fill-opacity:1;fill-rule:nonzero;stroke:none"
           d="M 0,0 0.134,1.662 -3.725,6.783 -9.313,5.538 c 0,0 -5.166,-1.083 -6.12,-4.257 -1.741,-5.798 2.661,-5.673 2.661,-5.673 0.231,0.06 2.884,1.331 3.815,1.331 0.468,0 4.521,0.44 4.521,0.44 C -1.953,-2.353 -0.6,-1.871 0,0" />
      </g>
      <g
         transform="matrix(0.35277777,0,0,-0.35277777,-77.591831,130.91644)"
         id="g2030">
        <path
           inkscape:connector-curvature="0"
           id="path2032"
           style="fill:#bdccd1;fill-opacity:1;fill-rule:nonzero;stroke:none"
           d="M 0,0 C -1.482,2.329 -0.723,8.882 2.978,11.811 4.087,11.725 4.89,11.52 4.89,11.52 l 7.103,-2.103 c 0,0 3.493,-2.217 5.698,-4.042 C 16.567,5.389 13.913,4.137 9.97,0.671 6.295,-2.559 2.052,-3.229 0,0" />
      </g>
      <g
         transform="matrix(0.35277777,0,0,-0.35277777,-76.849939,128.98544)"
         id="g2034">
        <path
           inkscape:connector-curvature="0"
           id="path2036"
           style="fill:#e8c5ac;fill-opacity:1;fill-rule:nonzero;stroke:none"
           d="M 0,0 C 4.383,-4.367 6.956,0.158 9.818,3.532 L 10.354,15.689 0.299,12.8 Z" />
      </g>
      <g
         transform="matrix(0.35277777,0,0,-0.35277777,-73.321458,126.29413)"
         id="g2038">
        <path
           inkscape:connector-curvature="0"
           id="path2040"
           style="fill:#ededed;fill-opacity:1;fill-rule:nonzero;stroke:none"
           d="m 0,0 c 0,0 0.005,-1.639 -0.065,-1.934 -1.136,-4.92 -7.227,-6.723 -7.227,-6.723 -0.774,-0.372 -0.76,-1.274 -0.687,-2.464 l 0.312,-3.501 c 0.074,-1.142 0.67,-1.045 1.139,-0.588 0,0 4.707,3.793 6.034,5.078 3.125,3.018 2.895,3.734 1.87,7.707 C 0.757,-0.028 0,0 0,0" />
      </g>
      <g
         transform="matrix(0.35277777,0,0,-0.35277777,-76.399301,129.27362)"
         id="g2042">
        <path
           inkscape:connector-curvature="0"
           id="path2044"
           style="fill:#ededed;fill-opacity:1;fill-rule:nonzero;stroke:none"
           d="m 0,0 c 0.491,-0.631 0.38,-1.048 0.025,-1.51 l -1.868,-2.501 c -0.969,-1.101 -1.051,-0.176 -1.035,0.753 l 0.015,6.655 c 0.545,4.178 1.67,4.341 1.67,4.341 0,0 0.018,-0.967 -0.084,-1.832 C -1.457,4.477 -1.353,1.743 0,0" />
      </g>
      <g
         transform="matrix(0.35277777,0,0,-0.35277777,-76.163819,121.27929)"
         id="g2046">
        <path
           inkscape:connector-curvature="0"
           id="path2048"
           style="fill:#ffe8d9;fill-opacity:1;fill-rule:nonzero;stroke:none"
           d="m 0,0 c -2.477,0.098 -2.845,-2.271 -2.845,-2.271 l -0.193,-4.97 c 0,0 0.075,-1.085 1.001,-1.314 1.398,-0.343 2.057,0.866 2.741,2.196 0.039,0.077 0.919,2.043 0.975,2.158 C 2.431,-2.533 2.344,-0.087 0,0" />
      </g>
      <g
         transform="matrix(0.35277777,0,0,-0.35277777,-76.032239,118.39455)"
         id="g2050">
        <path
           inkscape:connector-curvature="0"
           id="path2052"
           style="fill:#ffe1cc;fill-opacity:1;fill-rule:nonzero;stroke:none"
           d="M 0,0 -0.001,-0.005 9.565,-0.421 9.042,-17.688 c -0.178,-1.181 -0.034,-1.677 -0.267,-2.671 -0.257,-1.095 -0.802,-2.044 -2.374,-3.031 0,0 -3.525,-2.068 -5.306,-2.913 -1.006,-0.472 -1.587,-0.766 -2.699,-0.786 -3.672,-0.068 -5.19,2.776 -5.841,4.852 -0.286,0.926 -1.067,3.781 -1.118,4.781 l -0.941,10.288 -0.279,9.243 z" />
      </g>
      <g
         transform="matrix(0.35277777,0,0,-0.35277777,-78.774701,117.01046)"
         id="g2054">
        <path
           inkscape:connector-curvature="0"
           id="path2056"
           style="fill:#633a11;fill-opacity:1;fill-rule:nonzero;stroke:none"
           d="m 0,0 c -2.743,-1.401 -4.092,-3.364 -2.926,-7.581 0.946,-3.419 1.307,-4.087 1.255,-4.137 -0.041,-0.037 -0.026,2.284 -0.033,3.647 -0.008,2.029 2.046,1.279 2.865,0.586 1.201,-1.025 4.068,-2.945 4.143,-2.989 1.073,-0.677 1.313,-0.216 1.421,0.575 0.025,0.173 0.07,1.226 0.07,1.226 0.138,-0.104 2.633,-1.394 3.303,-1.823 1.9,-1.233 2.173,-2.916 2.025,-4.421 l -0.056,-1.505 c -0.031,-0.781 -0.199,-1.675 0.572,-1.623 0.82,0.061 1.471,0.223 1.732,1.056 0,0 0.783,2.881 2.646,2.416 1.808,-0.453 0.285,-4.581 0.17,-4.8 l -0.817,-5.643 c 0.694,-0.236 2.306,0.871 3.284,2.792 1.803,3.542 2.944,6.091 3.446,7.173 C 28.042,-4.417 19.442,6.541 7.341,3.38 5.072,2.785 0,0 0,0" />
      </g>
      <g
         transform="matrix(0.35277777,0,0,-0.35277777,-72.849651,122.0379)"
         id="g2058">
        <path
           inkscape:connector-curvature="0"
           id="path2060"
           style="fill:#ffe1cc;fill-opacity:1;fill-rule:nonzero;stroke:none"
           d="m 0,0 c -2.478,0.095 -2.847,-2.269 -2.847,-2.269 l -0.195,-4.977 c 0,0 0.078,-1.084 1.001,-1.315 1.399,-0.339 2.062,0.872 2.742,2.198 0.042,0.08 0.923,2.046 0.974,2.163 C 2.432,-2.535 2.344,-0.093 0,0" />
      </g>
      <g
         transform="matrix(0.35277777,0,0,-0.35277777,-71.593909,146.46568)"
         id="g2062">
        <path
           inkscape:connector-curvature="0"
           id="path2064"
           style="fill:#9fc8d3;fill-opacity:1;fill-rule:nonzero;stroke:none"
           d="m 0,0 c 1.421,-2.126 5.632,-1.218 5.632,-1.218 0,0 6.559,4.287 12.229,8.608 5.672,4.315 6.066,7.664 3.174,13.139 l -8.941,16.342 c 0,0 -2.861,7.235 -7.36,7.005 C -0.409,43.621 -3.278,36.47 -0.715,31.735 0.701,29.13 6.807,21.291 9.639,17.698 c 0.948,-1.192 0.8,-2.216 0.177,-2.659 L 0.055,5.996 C 0.055,5.996 -2.184,3.267 0,0" />
      </g>
      <g
         transform="matrix(0.35277777,0,0,-0.35277777,-72.62003,144.90679)"
         id="g2066">
        <path
           inkscape:connector-curvature="0"
           id="path2068"
           style="fill:#e4eff4;fill-opacity:1;fill-rule:nonzero;stroke:none"
           d="m 0,0 c -0.599,-0.53 -0.664,-3.524 1.197,-5.789 1.727,-2.089 2.689,-2.113 2.689,-2.113 1.199,-0.534 2.021,-0.642 2.683,-0.064 0,0 2.439,1.808 3.176,2.519 0.477,0.459 0.194,0.74 0.194,0.74 0,0 -0.379,-0.357 -0.876,-0.337 C 8.271,-5.016 6.711,-4.748 5.201,-3.212 2.274,-0.229 3.383,2.058 3.383,2.058 2.94,2.481 2.446,2.423 2.001,1.89 Z" />
      </g>
    </g>
  </g>
</svg>
