<?xml version="1.0" encoding="UTF-8" standalone="no"?>
<!-- Created with Inkscape (http://www.inkscape.org/) -->

<svg
   xmlns:dc="http://purl.org/dc/elements/1.1/"
   xmlns:cc="http://creativecommons.org/ns#"
   xmlns:rdf="http://www.w3.org/1999/02/22-rdf-syntax-ns#"
   xmlns:svg="http://www.w3.org/2000/svg"
   xmlns="http://www.w3.org/2000/svg"
   xmlns:sodipodi="http://sodipodi.sourceforge.net/DTD/sodipodi-0.dtd"
   xmlns:inkscape="http://www.inkscape.org/namespaces/inkscape"
   width="2.6241364mm"
   height="5.5298295mm"
   viewBox="0 0 2.6241365 5.5298295"
   version="1.1"
   id="svg113590"
   inkscape:version="0.92.2 (5c3e80d, 2017-08-06)"
   sodipodi:docname="people-dancing-17.svg">
  <defs
     id="defs113584">
    <clipPath
       id="clipPath6938"
       clipPathUnits="userSpaceOnUse">
      <path
         inkscape:connector-curvature="0"
         id="path6936"
         d="m 332.31,670.939 h 80.557 V 627.742 H 332.31 Z" />
    </clipPath>
    <clipPath
       id="clipPath19962"
       clipPathUnits="userSpaceOnUse">
      <path
         inkscape:connector-curvature="0"
         id="path19960"
         d="m 509.182,647.722 h 56.485 v -19.98 h -56.485 z" />
    </clipPath>
    <clipPath
       id="clipPath19818"
       clipPathUnits="userSpaceOnUse">
      <path
         inkscape:connector-curvature="0"
         id="path19816"
         d="m 671.425,650.716 h 65.619 v -22.975 h -65.619 z" />
    </clipPath>
    <clipPath
       id="clipPath14734"
       clipPathUnits="userSpaceOnUse">
      <path
         inkscape:connector-curvature="0"
         id="path14732"
         d="m 800.948,651.727 h 68.678 v -23.986 h -68.678 z" />
    </clipPath>
    <clipPath
       id="clipPath14822"
       clipPathUnits="userSpaceOnUse">
      <path
         inkscape:connector-curvature="0"
         id="path14820"
         d="m 957.738,645.951 h 63.252 v -18.209 h -63.252 z" />
    </clipPath>
    <clipPath
       id="clipPath20130"
       clipPathUnits="userSpaceOnUse">
      <path
         inkscape:connector-curvature="0"
         id="path20128"
         d="m 1084.85,651.425 h 64.51 v -23.683 h -64.51 z" />
    </clipPath>
    <clipPath
       id="clipPath20722"
       clipPathUnits="userSpaceOnUse">
      <path
         inkscape:connector-curvature="0"
         id="path20720"
         d="m 1222.08,654.393 h 75.95 v -26.652 h -75.95 z" />
    </clipPath>
    <clipPath
       id="clipPath20266"
       clipPathUnits="userSpaceOnUse">
      <path
         inkscape:connector-curvature="0"
         id="path20264"
         d="m 1383.9,646.412 h 44.62 v -18.67 h -44.62 z" />
    </clipPath>
    <clipPath
       id="clipPath20442"
       clipPathUnits="userSpaceOnUse">
      <path
         inkscape:connector-curvature="0"
         id="path20440"
         d="m 1493.26,654.136 h 75.09 v -26.394 h -75.09 z" />
    </clipPath>
    <clipPath
       id="clipPath20366"
       clipPathUnits="userSpaceOnUse">
      <path
         inkscape:connector-curvature="0"
         id="path20364"
         d="m 1632.21,651.13 h 77.31 v -23.389 h -77.31 z" />
    </clipPath>
    <clipPath
       id="clipPath20538"
       clipPathUnits="userSpaceOnUse">
      <path
         inkscape:connector-curvature="0"
         id="path20536"
         d="m 1778.62,646.625 h 45.13 v -18.883 h -45.13 z" />
    </clipPath>
    <clipPath
       id="clipPath20590"
       clipPathUnits="userSpaceOnUse">
      <path
         inkscape:connector-curvature="0"
         id="path20588"
         d="m 1895.15,652.288 h 61.65 v -24.547 h -61.65 z" />
    </clipPath>
    <clipPath
       id="clipPath20798"
       clipPathUnits="userSpaceOnUse">
      <path
         inkscape:connector-curvature="0"
         id="path20796"
         d="m 2032.21,650.712 h 54.29 v -22.97 h -54.29 z" />
    </clipPath>
    <clipPath
       id="clipPath20218"
       clipPathUnits="userSpaceOnUse">
      <path
         inkscape:connector-curvature="0"
         id="path20216"
         d="m 2154,646.547 h 46.37 V 627.742 H 2154 Z" />
    </clipPath>
    <clipPath
       id="clipPath20882"
       clipPathUnits="userSpaceOnUse">
      <path
         inkscape:connector-curvature="0"
         id="path20880"
         d="m 2287.35,649.844 h 48.35 v -22.102 h -48.35 z" />
    </clipPath>
    <clipPath
       id="clipPath21206"
       clipPathUnits="userSpaceOnUse">
      <path
         inkscape:connector-curvature="0"
         id="path21204"
         d="m 2432.86,646.93 h 8.25 v -13.96 h -8.25 z" />
    </clipPath>
    <clipPath
       id="clipPath21150"
       clipPathUnits="userSpaceOnUse">
      <path
         inkscape:connector-curvature="0"
         id="path21148"
         d="m 2406.52,649.765 h 54.69 v -22.024 h -54.69 z" />
    </clipPath>
    <clipPath
       id="clipPath21098"
       clipPathUnits="userSpaceOnUse">
      <path
         inkscape:connector-curvature="0"
         id="path21096"
         d="m 2526.96,654.315 h 61.23 v -26.573 h -61.23 z" />
    </clipPath>
  </defs>
  <sodipodi:namedview
     id="base"
     pagecolor="#ffffff"
     bordercolor="#666666"
     borderopacity="1.0"
     inkscape:pageopacity="0.0"
     inkscape:pageshadow="2"
     inkscape:zoom="0.35"
     inkscape:cx="-507.28048"
     inkscape:cy="500.01478"
     inkscape:document-units="mm"
     inkscape:current-layer="layer1"
     showgrid="false"
     inkscape:window-width="1360"
     inkscape:window-height="706"
     inkscape:window-x="-8"
     inkscape:window-y="-8"
     inkscape:window-maximized="1"
     fit-margin-top="0"
     fit-margin-left="0"
     fit-margin-right="0"
     fit-margin-bottom="0" />
  <metadata
     id="metadata113587">
    <rdf:RDF>
      <cc:Work
         rdf:about="">
        <dc:format>image/svg+xml</dc:format>
        <dc:type
           rdf:resource="http://purl.org/dc/dcmitype/StillImage" />
        <dc:title></dc:title>
      </cc:Work>
    </rdf:RDF>
  </metadata>
  <g
     inkscape:label="Layer 1"
     inkscape:groupmode="layer"
     id="layer1"
     transform="translate(-56.732838,-275.59909)">
    <g
       id="g38432"
       transform="matrix(0.1,0,0,0.086,52.240416,254.4247)">
      <g
         transform="matrix(0.35277777,0,0,-0.35277777,53.049305,249.87669)"
         id="g21044">
        <path
           inkscape:connector-curvature="0"
           id="path21046"
           style="fill:#c6907d;fill-opacity:1;fill-rule:nonzero;stroke:none"
           d="m 0,0 v -0.004 l -8.699,-0.447 0.724,-15.334 c 0.053,-1.119 1.127,-2.692 1.948,-3.756 l 2.271,-3.088 c 0.811,-0.767 1.904,-1.17 3.018,-1.119 l 1.929,0.09 -0.002,0.004 1.856,0.086 c 1.113,0.05 2.164,0.562 2.896,1.398 l 2.188,3.652 c 0.695,1.348 1.424,2.44 1.371,3.559 L 8.777,0.375 Z" />
      </g>
      <g
         transform="matrix(0.35277777,0,0,-0.35277777,52.895662,258.25033)"
         id="g21048">
        <path
           inkscape:connector-curvature="0"
           id="path21050"
           style="fill:#e8c5ac;fill-opacity:1;fill-rule:nonzero;stroke:none"
           d="M 0,0 1.627,0.078 1.625,0.082 0,0.004 Z" />
      </g>
      <g
         transform="matrix(0.35277777,0,0,-0.35277777,55.572504,249.77194)"
         id="g21052">
        <path
           inkscape:connector-curvature="0"
           id="path21054"
           style="fill:#e8c5ac;fill-opacity:1;fill-rule:nonzero;stroke:none"
           d="m 0,0 0.721,-15.332 c 0.054,-1.117 -0.672,-2.209 -1.366,-3.561 l -2.187,-3.65 c -0.736,-0.842 -1.787,-1.344 -2.9,-1.398 l 1.625,0.076 c 1.113,0.051 2.164,0.562 2.896,1.398 l 2.188,3.653 c 0.695,1.347 1.423,2.439 1.371,3.558 L 1.625,0.078 Z" />
      </g>
      <g
         transform="matrix(0.35277777,0,0,-0.35277777,51.39222,259.24871)"
         id="g21056">
        <path
           inkscape:connector-curvature="0"
           id="path21058"
           style="fill:#c6907d;fill-opacity:1;fill-rule:nonzero;stroke:none"
           d="m 0,0 0.135,8.404 11.303,0.535 0.687,-8.31 z" />
      </g>
      <g
         transform="matrix(0.35277777,0,0,-0.35277777,56.146441,251.88102)"
         id="g21060">
        <path
           inkscape:connector-curvature="0"
           id="path21062"
           style="fill:#e8c5ac;fill-opacity:1;fill-rule:nonzero;stroke:none"
           d="M 0,0 0.641,-0.01 C 1.615,-0.232 2.691,-1.088 2.521,-2.564 2.361,-3.906 2.262,-4.023 2.068,-5.686 1.797,-8.039 -0.15,-7.369 -0.15,-7.369 Z" />
      </g>
      <g
         transform="matrix(0.35277777,0,0,-0.35277777,50.147832,252.16282)"
         id="g21064">
        <path
           inkscape:connector-curvature="0"
           id="path21066"
           style="fill:#c6907d;fill-opacity:1;fill-rule:nonzero;stroke:none"
           d="m 0,0 -0.637,-0.074 c -0.949,-0.313 -1.943,-1.268 -1.633,-2.721 0.286,-1.32 0.395,-1.428 0.743,-3.064 0.492,-2.319 2.367,-1.467 2.367,-1.467 z" />
      </g>
      <g
         transform="matrix(0.35277777,0,0,-0.35277777,50.863053,246.73061)"
         id="g21068">
        <path
           inkscape:connector-curvature="0"
           id="path21070"
           style="fill:#561f04;fill-opacity:1;fill-rule:nonzero;stroke:none"
           d="M 0,0 C 0,0 0.02,0.008 0.045,0.016 0.014,0.016 0,0 0,0" />
      </g>
      <g
         transform="matrix(0.35277777,0,0,-0.35277777,56.878171,249.16629)"
         id="g21072">
        <path
           inkscape:connector-curvature="0"
           id="path21074"
           style="fill:#c46526;fill-opacity:1;fill-rule:nonzero;stroke:none"
           d="m 0,0 c -0.119,2.16 -1.984,4.584 -3.57,5.869 -2.799,2.27 -5.422,1.899 -5.422,1.899 0.457,0.101 1.791,-1.625 1.16,-2.166 -0.795,-0.672 -1.354,0.412 -2.035,1.484 -1.213,1.912 -4.205,1.121 -4.205,1.121 0,0 1.558,-0.309 1.676,-1.945 0,0 0.056,-0.694 -0.141,-0.836 -0.256,-0.182 -0.121,-0.244 -1.018,0.744 -1.207,1.332 -3.144,0.836 -3.451,0.75 0.094,-0.006 0.352,-0.123 0.981,-1.012 0.55,-0.787 0.341,-2.049 -0.416,-1.97 0,0 -0.123,0.498 -0.411,0.933 -0.75,1.123 -1.857,0.832 -1.857,0.832 0,0 0.857,-0.916 0.098,-2.053 -0.266,-0.4 -0.871,-1.148 -0.871,-1.148 0,0 -2.459,-1.955 -2.036,-5.17 l 2.547,-12.15 0.004,-0.059 c 0.055,-1.119 1.131,-2.695 1.949,-3.758 0,0 1.926,-2.078 4.758,-3.601 1.418,-0.762 3.883,-0.885 5.125,0.297 1.162,1.103 3.194,2.638 4.274,4.328 0.767,1.199 1.336,2.291 1.363,3.341 C -1.297,-12.832 0.131,-2.426 0,0" />
      </g>
      <g
         transform="matrix(0.35277777,0,0,-0.35277777,50.874774,255.74023)"
         id="g21076">
        <path
           inkscape:connector-curvature="0"
           id="path21078"
           style="fill:#561f04;fill-opacity:1;fill-rule:nonzero;stroke:none"
           d="m 0,0 c 0,0 1.926,-2.078 4.758,-3.602 1.418,-0.761 3.883,-0.884 5.125,0.297 1.162,1.104 3.193,2.639 4.273,4.328 0.768,1.2 1.336,2.291 1.364,3.342 0.187,1.336 0.664,3.58 0.734,6.795 0.086,3.074 -0.287,8.033 -2.381,11.004 -1.262,1.791 -3.715,3.078 -4.736,3.184 0.218,-0.416 0.74,-1.01 0.504,-1.246 C 9.855,23.686 9.496,23.42 9.232,23.195 8.438,22.52 7.879,23.607 7.199,24.68 c -0.695,1.093 -1.97,1.3 -2.939,1.277 0.187,-0.268 0.328,-0.615 0.361,-1.061 0,0 0.027,-0.353 -0.029,-0.605 0.037,-0.137 0.066,-0.279 0.076,-0.441 0,0 0.061,-0.69 -0.139,-0.83 -0.256,-0.182 -0.117,-0.247 -1.015,0.742 -0.778,0.857 -1.856,0.957 -2.606,0.894 0.028,-0.037 0.051,-0.068 0.084,-0.113 0.303,-0.436 0.379,-1.022 0.246,-1.439 0.27,-0.754 0.026,-1.641 -0.613,-1.575 0,0 -0.119,0.498 -0.41,0.936 -0.483,0.721 -1.113,0.857 -1.5,0.863 0.008,-0.162 -0.008,-0.338 -0.061,-0.523 0.145,-0.377 0.219,-0.934 -0.199,-1.563 -0.266,-0.402 -0.873,-1.144 -0.873,-1.144 0,0 -1.953,-1.563 -2.072,-4.188 L -1.953,3.816 -1.949,3.758 C -1.895,2.639 -0.818,1.063 0,0" />
      </g>
      <g
         transform="matrix(0.35277777,0,0,-0.35277777,50.838235,248.08041)"
         id="g21080">
        <path
           inkscape:connector-curvature="0"
           id="path21082"
           style="fill:#561f04;fill-opacity:1;fill-rule:nonzero;stroke:none"
           d="M 0,0 C 0,0 0.018,0.002 0.043,0.012 0.014,0.012 0,0 0,0" />
      </g>
      <g
         transform="matrix(0.35277777,0,0,-0.35277777,67.580701,278.02585)"
         id="g21084">
        <path
           inkscape:connector-curvature="0"
           id="path21086"
           style="fill:#f7cbad;fill-opacity:1;fill-rule:nonzero;stroke:none"
           d="m 0,0 c 0,0 6.775,-4.023 7.621,-4.658 0.848,-0.635 1.361,-0.858 2.09,-2.856 0.715,-1.959 0.687,-5.961 -0.873,-7.224 -2.938,-2.383 -3.524,-1.176 -4.049,0.394 -1.111,3.336 -2.699,4.686 -2.699,4.686 0,0 -4.42,2.037 -5.477,4.789 C -4.445,-2.117 0,0 0,0" />
      </g>
      <g
         transform="matrix(0.35277777,0,0,-0.35277777,48.319878,260.47378)"
         id="g21088">
        <path
           inkscape:connector-curvature="0"
           id="path21090"
           style="fill:#820c17;fill-opacity:1;fill-rule:nonzero;stroke:none"
           d="m 0,0 c 0,0 -5.162,-0.541 -7.643,-15.881 -0.974,-6.017 -1.546,-9.678 -1.904,-13.127 -0.635,-6.138 2.748,-9.935 4.233,-12.064 4.183,-6.006 12.916,-14.821 12.916,-14.821 l 7.408,12.278 -9.102,28.58 z" />
      </g>
      <g
         transform="matrix(0.35277777,0,0,-0.35277777,-845.86634,531.96762)"
         id="g21092">
        <g
           id="g21094" />
        <g
           id="g21106">
          <g
             style="opacity:0.27000403"
             id="g21104"
             clip-path="url(#clipPath21098)">
            <g
               id="g21102"
               transform="translate(2560.5059,654.3135)">
              <path
                 inkscape:connector-curvature="0"
                 id="path21100"
                 style="fill:#231f20;fill-opacity:1;fill-rule:nonzero;stroke:none"
                 d="m 0,0 c -10.846,0.104 -36.133,-4.984 -33.332,-15.887 1.754,-6.801 14.719,-12.043 35.795,-10.371 12.986,1.031 28.062,11.789 24.758,15.723 C 24.988,-7.885 7.111,-0.068 0,0" />
            </g>
          </g>
        </g>
      </g>
      <g
         transform="matrix(0.35277777,0,0,-0.35277777,48.421161,303.3239)"
         id="g21108">
        <path
           inkscape:connector-curvature="0"
           id="path21110"
           style="fill:#fafcfc;fill-opacity:1;fill-rule:nonzero;stroke:none"
           d="m 0,0 c 0,0 -2.064,-1.734 -2.051,-4.85 0.014,-3.111 0.119,-3.947 0.865,-4.58 0.748,-0.633 3.006,-1.158 4.881,-1.031 1.883,0.135 4.784,1.084 5.834,1.568 1.426,0.661 3.246,1.377 5.301,2.354 2.783,1.322 3.826,2.445 3.92,2.664 0.16,0.375 0.674,2.504 0.385,3.326 -0.248,0.703 -0.614,1.279 -0.92,1.5 C 14.299,3.773 10.768,-1.334 9.09,0.693 7.416,2.717 0,0 0,0" />
      </g>
      <g
         transform="matrix(0.35277777,0,0,-0.35277777,48.281276,302.71687)"
         id="g21112">
        <path
           inkscape:connector-curvature="0"
           id="path21114"
           style="fill:#228c59;fill-opacity:1;fill-rule:nonzero;stroke:none"
           d="m 0,0 c 0,0 -1.387,-1.51 -1.588,-4.613 -0.16,-2.459 -0.154,-3.989 0.506,-4.713 0.627,-0.692 3.025,-1.512 4.9,-1.309 1.493,0.162 3.211,0.563 4.315,0.973 3.646,1.363 4.42,1.791 5.681,2.31 4.981,2.059 5.661,3.702 5.692,4.893 0.037,1.396 -2.356,3.73 -6.135,3.436 C 7.939,0.568 10.422,0.256 9.09,0.688 6.59,1.502 0,0 0,0" />
      </g>
      <g
         transform="matrix(0.35277777,0,0,-0.35277777,53.536456,273.38947)"
         id="g21116">
        <path
           inkscape:connector-curvature="0"
           id="path21118"
           style="fill:#336689;fill-opacity:1;fill-rule:nonzero;stroke:none"
           d="m 0,0 c 6.625,-11.594 2.674,-47.191 -0.096,-63.58 -1.906,-11.272 -3.031,-20.158 -3.025,-20.02 -0.047,-1.097 -3.01,-4.146 -5.729,-5.043 -3.99,-1.316 -8.877,-0.392 -7.447,4.92 0,0 1.924,22.33 2.863,30.782 1.588,14.289 2.223,20.746 1.78,29.58 C -11.863,-19.199 -10.213,17.869 0,0" />
      </g>
      <g
         transform="matrix(0.35277777,0,0,-0.35277777,56.412401,304.70603)"
         id="g21120">
        <path
           inkscape:connector-curvature="0"
           id="path21122"
           style="fill:#fafcfc;fill-opacity:1;fill-rule:nonzero;stroke:none"
           d="m 0,0 c 0,0 -2.063,-1.734 -2.049,-4.85 0.012,-3.111 0.117,-3.945 0.863,-4.58 0.748,-0.633 3.25,-1.412 5.127,-1.281 1.881,0.133 4.395,1.947 5.543,2.211 1.145,0.264 0.825,0.291 4.92,1.287 5.764,1.402 7.442,3.234 7.834,4.764 0.141,0.549 0.078,1.992 0.049,2.379 C 22.248,0.416 22.018,0.781 21.768,0.961 17.852,3.783 10.766,-1.334 9.09,0.695 7.416,2.717 0,0 0,0" />
      </g>
      <g
         transform="matrix(0.35277777,0,0,-0.35277777,56.271851,304.099)"
         id="g21124">
        <path
           inkscape:connector-curvature="0"
           id="path21126"
           style="fill:#37a573;fill-opacity:1;fill-rule:nonzero;stroke:none"
           d="m 0,0 c 0,0 -1.385,-1.51 -1.586,-4.613 -0.16,-2.459 -0.189,-4.176 0.559,-4.811 0.75,-0.631 2.97,-1.414 4.845,-1.211 1.495,0.164 2.75,0.612 3.852,1.022 1.834,0.685 2.918,0.869 6.121,1.468 4.961,0.926 8.195,2.944 8.814,5.793 0.297,1.364 -1.072,3.37 -4.851,3.075 C 12.322,0.316 10.424,0.256 9.092,0.688 6.59,1.502 0,0 0,0" />
      </g>
      <g
         transform="matrix(0.35277777,0,0,-0.35277777,60.336381,276.75532)"
         id="g21128">
        <path
           inkscape:connector-curvature="0"
           id="path21130"
           style="fill:#4f81aa;fill-opacity:1;fill-rule:nonzero;stroke:none"
           d="m 0,0 c 3.387,-12.492 5.08,-35.992 4.658,-39.59 -0.012,-0.103 -0.637,-11.642 -1.906,-20.746 -1.309,-9.385 -3.195,-18.519 -3.164,-18.373 -0.108,-0.51 -1.754,-2.535 -4.399,-3.639 -3.877,-1.615 -8.82,-1.066 -7.798,4.342 0,0 1.968,29.16 2.025,32.277 0.209,11.856 -4.342,30.168 -6.141,38.53 C -17.602,-3.127 -2.1,7.736 0,0" />
      </g>
      <g
         transform="matrix(0.35277777,0,0,-0.35277777,48.713287,282.71186)"
         id="g21132">
        <path
           inkscape:connector-curvature="0"
           id="path21134"
           style="fill:#aa131b;fill-opacity:1;fill-rule:nonzero;stroke:none"
           d="m 0,0 c 0,0 0.795,14.506 -0.078,23.658 -0.785,8.264 -4.76,24.735 -4.94,30.016 0,0 -0.72,5.701 2.702,8.764 1.015,0.908 4.793,2.38 6.601,3.06 6.723,2.52 14.145,2.086 16.383,1.561 3.6,-0.848 14.791,-1.551 14.82,-9.315 C 35.5,54.059 32.947,43.133 33.582,34.244 34.031,27.955 35.113,16.73 35.275,14.979 35.529,12.107 37.02,1.822 36.758,1.639 18.369,-11.232 0,0 0,0" />
      </g>
      <g
         transform="matrix(0.35277777,0,0,-0.35277777,59.589491,260.62399)"
         id="g21136">
        <path
           inkscape:connector-curvature="0"
           id="path21138"
           style="fill:#ba3145;fill-opacity:1;fill-rule:nonzero;stroke:none"
           d="m 0,0 c 2.225,0.799 5.18,-0.781 6.986,-8.68 1.694,-7.41 4.319,-14.3 6.776,-19.687 2.765,-6.074 10.373,-20.75 10.373,-20.75 0,0 0.869,-1.094 -1.483,-3.811 -1.881,-2.168 -4.42,-2.328 -4.42,-2.328 0,0 -9.339,12.703 -14.421,20.535 -2.872,4.428 -7.198,23.713 -7.198,23.713 0,0 -1.904,9.102 3.387,11.008" />
      </g>
    </g>
  </g>
</svg>
