<?xml version="1.0" encoding="UTF-8" standalone="no"?>
<!-- Created with Inkscape (http://www.inkscape.org/) -->

<svg
   xmlns:dc="http://purl.org/dc/elements/1.1/"
   xmlns:cc="http://creativecommons.org/ns#"
   xmlns:rdf="http://www.w3.org/1999/02/22-rdf-syntax-ns#"
   xmlns:svg="http://www.w3.org/2000/svg"
   xmlns="http://www.w3.org/2000/svg"
   xmlns:sodipodi="http://sodipodi.sourceforge.net/DTD/sodipodi-0.dtd"
   xmlns:inkscape="http://www.inkscape.org/namespaces/inkscape"
   width="4.0721684mm"
   height="5.177299mm"
   viewBox="0 0 4.0721683 5.1772989"
   version="1.1"
   id="svg45331"
   inkscape:version="0.92.2 (5c3e80d, 2017-08-06)"
   sodipodi:docname="people-business-26.svg">
  <defs
     id="defs45325">
    <clipPath
       id="clipPath2864"
       clipPathUnits="userSpaceOnUse">
      <path
         inkscape:connector-curvature="0"
         id="path2862"
         d="m 1713.778,1928.833 c -0.536,-0.312 -0.927,-0.874 -1.106,-1.65 v 0 l 1.125,0.653 c 0.179,0.778 0.57,1.34 1.107,1.651 v 0 z" />
    </clipPath>
    <clipPath
       id="clipPath2848"
       clipPathUnits="userSpaceOnUse">
      <path
         inkscape:connector-curvature="0"
         id="path2846"
         d="M 0,2119.953 H 3253.108 V 0 H 0 Z" />
    </clipPath>
    <clipPath
       id="clipPath2836"
       clipPathUnits="userSpaceOnUse">
      <path
         inkscape:connector-curvature="0"
         id="path2834"
         d="m 1711.152,1926.674 v -0.651 c 0.308,-0.179 0.813,-0.18 1.126,0 v 0 0.651 c -0.315,-0.183 -0.82,-0.178 -1.129,0" />
    </clipPath>
    <clipPath
       id="clipPath2820"
       clipPathUnits="userSpaceOnUse">
      <path
         inkscape:connector-curvature="0"
         id="path2818"
         d="M 0,2119.953 H 3253.108 V 0 H 0 Z" />
    </clipPath>
    <clipPath
       id="clipPath2808"
       clipPathUnits="userSpaceOnUse">
      <path
         inkscape:connector-curvature="0"
         id="path2806"
         d="m 1710.148,1926.8 c 0,-0.121 0.077,-0.238 0.231,-0.325 v 0 0.65 c -0.156,0.087 -0.233,0.207 -0.233,0.324 v 0 -0.649 z" />
    </clipPath>
    <clipPath
       id="clipPath2796"
       clipPathUnits="userSpaceOnUse">
      <path
         inkscape:connector-curvature="0"
         id="path2794"
         d="m 1714.756,1928.103 v -0.65 c 0.158,0.09 0.237,0.211 0.237,0.331 v 0 0.65 c 0,-0.119 -0.078,-0.24 -0.236,-0.331" />
    </clipPath>
    <clipPath
       id="clipPath2784"
       clipPathUnits="userSpaceOnUse">
      <path
         inkscape:connector-curvature="0"
         id="path2782"
         d="M 0,2119.953 H 3253.108 V 0 H 0 Z" />
    </clipPath>
    <clipPath
       id="clipPath2772"
       clipPathUnits="userSpaceOnUse">
      <path
         inkscape:connector-curvature="0"
         id="path2770"
         d="m 1720.53,1921.188 10e-4,-0.65 c 0.309,-0.181 0.814,-0.181 1.128,0 v 0 0.65 c -0.316,-0.182 -0.821,-0.181 -1.129,0" />
    </clipPath>
    <clipPath
       id="clipPath2756"
       clipPathUnits="userSpaceOnUse">
      <path
         inkscape:connector-curvature="0"
         id="path2754"
         d="M 0,2119.953 H 3253.108 V 0 H 0 Z" />
    </clipPath>
    <clipPath
       id="clipPath2744"
       clipPathUnits="userSpaceOnUse">
      <path
         inkscape:connector-curvature="0"
         id="path2742"
         d="m 1719.524,1921.312 c 0,-0.119 0.08,-0.235 0.234,-0.324 v 0 0.65 c -0.154,0.089 -0.233,0.207 -0.233,0.324 v 0 -0.65 z" />
    </clipPath>
    <clipPath
       id="clipPath2732"
       clipPathUnits="userSpaceOnUse">
      <path
         inkscape:connector-curvature="0"
         id="path2730"
         d="m 1724.133,1922.619 v -0.654 c 0.158,0.094 0.238,0.212 0.238,0.331 v 0 0.65 c 0,-0.117 -0.08,-0.238 -0.238,-0.327" />
    </clipPath>
    <clipPath
       id="clipPath2536"
       clipPathUnits="userSpaceOnUse">
      <path
         inkscape:connector-curvature="0"
         id="path2534"
         d="m 1708.77,1889.11 h 53.56 v -38.31 h -53.56 z" />
    </clipPath>
    <clipPath
       id="clipPath3428"
       clipPathUnits="userSpaceOnUse">
      <path
         inkscape:connector-curvature="0"
         id="path3426"
         d="m 1819.231,1919.634 0.051,-0.722 c 0.167,0.114 0.248,0.253 0.238,0.383 v 0 l -0.048,0.721 c 0.01,-0.131 -0.071,-0.272 -0.241,-0.382" />
    </clipPath>
    <clipPath
       id="clipPath3440"
       clipPathUnits="userSpaceOnUse">
      <path
         inkscape:connector-curvature="0"
         id="path3438"
         d="m 1814.225,1917.859 c 0.01,-0.132 0.103,-0.255 0.282,-0.343 v 0 l -0.049,0.721 c -0.177,0.085 -0.273,0.212 -0.281,0.34 v 0 z" />
    </clipPath>
    <clipPath
       id="clipPath3452"
       clipPathUnits="userSpaceOnUse">
      <path
         inkscape:connector-curvature="0"
         id="path3450"
         d="M 0,2119.953 H 3253.108 V 0 H 0 Z" />
    </clipPath>
    <clipPath
       id="clipPath3468"
       clipPathUnits="userSpaceOnUse">
      <path
         inkscape:connector-curvature="0"
         id="path3466"
         d="m 1815.349,1917.792 0.046,-0.72 c 0.354,-0.177 0.915,-0.14 1.248,0.082 v 0 l -0.048,0.721 c -0.335,-0.223 -0.893,-0.259 -1.246,-0.083" />
    </clipPath>
    <clipPath
       id="clipPath3480"
       clipPathUnits="userSpaceOnUse">
      <path
         inkscape:connector-curvature="0"
         id="path3478"
         d="M 0,2119.953 H 3253.108 V 0 H 0 Z" />
    </clipPath>
    <clipPath
       id="clipPath3492"
       clipPathUnits="userSpaceOnUse">
      <path
         inkscape:connector-curvature="0"
         id="path3490"
         d="m 1808.461,1925.033 0.049,-0.719 c 0.167,0.112 0.245,0.25 0.238,0.383 v 0 l -0.049,0.719 c 0.01,-0.131 -0.07,-0.268 -0.238,-0.383" />
    </clipPath>
    <clipPath
       id="clipPath3504"
       clipPathUnits="userSpaceOnUse">
      <path
         inkscape:connector-curvature="0"
         id="path3502"
         d="m 1803.454,1923.259 c 0.01,-0.132 0.102,-0.258 0.279,-0.342 v 0 l -0.048,0.72 c -0.177,0.086 -0.273,0.214 -0.28,0.342 v 0 z" />
    </clipPath>
    <clipPath
       id="clipPath3516"
       clipPathUnits="userSpaceOnUse">
      <path
         inkscape:connector-curvature="0"
         id="path3514"
         d="M 0,2119.953 H 3253.108 V 0 H 0 Z" />
    </clipPath>
    <clipPath
       id="clipPath3532"
       clipPathUnits="userSpaceOnUse">
      <path
         inkscape:connector-curvature="0"
         id="path3530"
         d="m 1804.576,1923.193 0.047,-0.721 c 0.353,-0.175 0.915,-0.14 1.248,0.081 v 0 l -0.049,0.722 c -0.333,-0.223 -0.894,-0.258 -1.246,-0.082" />
    </clipPath>
    <clipPath
       id="clipPath3544"
       clipPathUnits="userSpaceOnUse">
      <path
         inkscape:connector-curvature="0"
         id="path3542"
         d="M 0,2119.953 H 3253.108 V 0 H 0 Z" />
    </clipPath>
    <clipPath
       id="clipPath3560"
       clipPathUnits="userSpaceOnUse">
      <path
         inkscape:connector-curvature="0"
         id="path3558"
         d="m 1807.327,1925.772 c -0.572,-0.383 -0.964,-1.034 -1.106,-1.907 v 0 l 1.197,0.803 c 0.144,0.873 0.537,1.525 1.109,1.907 v 0 z" />
    </clipPath>
    <clipPath
       id="clipPath3240"
       clipPathUnits="userSpaceOnUse">
      <path
         inkscape:connector-curvature="0"
         id="path3238"
         d="m 1804.45,1875.26 h 66.26 v -26.97 h -66.26 z" />
    </clipPath>
    <clipPath
       id="clipPath3596"
       clipPathUnits="userSpaceOnUse">
      <path
         inkscape:connector-curvature="0"
         id="path3594"
         d="m 1887.55,1874.88 h 68.5 v -28.2 h -68.5 z" />
    </clipPath>
    <clipPath
       id="clipPath3760"
       clipPathUnits="userSpaceOnUse">
      <path
         inkscape:connector-curvature="0"
         id="path3758"
         d="m 1940.709,1921.043 c -0.01,-0.134 0.073,-0.277 0.243,-0.394 v 0 l 0.052,0.743 c -0.176,0.111 -0.256,0.256 -0.246,0.388 v 0 z" />
    </clipPath>
    <clipPath
       id="clipPath3772"
       clipPathUnits="userSpaceOnUse">
      <path
         inkscape:connector-curvature="0"
         id="path3770"
         d="m 1945.896,1919.955 -0.048,-0.737 c 0.182,0.088 0.281,0.215 0.289,0.351 v 0 l 0.048,0.737 c -0.01,-0.134 -0.106,-0.261 -0.289,-0.351" />
    </clipPath>
    <clipPath
       id="clipPath3784"
       clipPathUnits="userSpaceOnUse">
      <path
         inkscape:connector-curvature="0"
         id="path3782"
         d="M 0,2119.953 H 3253.108 V 0 H 0 Z" />
    </clipPath>
    <clipPath
       id="clipPath3800"
       clipPathUnits="userSpaceOnUse">
      <path
         inkscape:connector-curvature="0"
         id="path3798"
         d="m 1943.658,1918.845 c 0.343,-0.226 0.914,-0.264 1.28,-0.084 v 0 l 0.047,0.741 c -0.361,-0.182 -0.936,-0.146 -1.28,0.084 v 0 z" />
    </clipPath>
    <clipPath
       id="clipPath3812"
       clipPathUnits="userSpaceOnUse">
      <path
         inkscape:connector-curvature="0"
         id="path3810"
         d="M 0,2119.953 H 3253.108 V 0 H 0 Z" />
    </clipPath>
    <clipPath
       id="clipPath3824"
       clipPathUnits="userSpaceOnUse">
      <path
         inkscape:connector-curvature="0"
         id="path3822"
         d="m 1951.754,1926.58 c -0.01,-0.136 0.071,-0.278 0.241,-0.392 v 0 l 0.052,0.737 c -0.174,0.117 -0.253,0.258 -0.245,0.391 v 0 z" />
    </clipPath>
    <clipPath
       id="clipPath3836"
       clipPathUnits="userSpaceOnUse">
      <path
         inkscape:connector-curvature="0"
         id="path3834"
         d="m 1956.943,1925.491 -0.049,-0.737 c 0.18,0.088 0.277,0.215 0.287,0.352 v 0 l 0.049,0.737 c -0.01,-0.132 -0.104,-0.262 -0.287,-0.352" />
    </clipPath>
    <clipPath
       id="clipPath3848"
       clipPathUnits="userSpaceOnUse">
      <path
         inkscape:connector-curvature="0"
         id="path3846"
         d="M 0,2119.953 H 3253.108 V 0 H 0 Z" />
    </clipPath>
    <clipPath
       id="clipPath3864"
       clipPathUnits="userSpaceOnUse">
      <path
         inkscape:connector-curvature="0"
         id="path3862"
         d="m 1954.703,1924.383 c 0.34,-0.229 0.916,-0.262 1.279,-0.086 v 0 l 0.049,0.743 c -0.361,-0.183 -0.938,-0.15 -1.279,0.081 v 0 z" />
    </clipPath>
    <clipPath
       id="clipPath3876"
       clipPathUnits="userSpaceOnUse">
      <path
         inkscape:connector-curvature="0"
         id="path3874"
         d="M 0,2119.953 H 3253.108 V 0 H 0 Z" />
    </clipPath>
    <clipPath
       id="clipPath3892"
       clipPathUnits="userSpaceOnUse">
      <path
         inkscape:connector-curvature="0"
         id="path3890"
         d="m 1953.117,1926.55 1.227,-0.822 c -0.145,0.891 -0.551,1.561 -1.133,1.955 v 0 l -1.232,0.823 c 0.588,-0.393 0.989,-1.061 1.138,-1.956" />
    </clipPath>
    <clipPath
       id="clipPath3948"
       clipPathUnits="userSpaceOnUse">
      <path
         inkscape:connector-curvature="0"
         id="path3946"
         d="m 2018.76,1870.93 h 70.11 v -23.75 h -70.11 z" />
    </clipPath>
    <clipPath
       id="clipPath4212"
       clipPathUnits="userSpaceOnUse">
      <path
         inkscape:connector-curvature="0"
         id="path4210"
         d="m 2154.433,1916.311 c 0,-0.141 0.087,-0.289 0.273,-0.405 v 0 l 0.028,0.784 c -0.187,0.117 -0.276,0.264 -0.271,0.407 v 0 z" />
    </clipPath>
    <clipPath
       id="clipPath4224"
       clipPathUnits="userSpaceOnUse">
      <path
         inkscape:connector-curvature="0"
         id="path4222"
         d="m 2159.973,1915.328 -0.03,-0.782 c 0.192,0.1 0.289,0.239 0.295,0.381 v 0 l 0.027,0.785 c 0,-0.142 -0.103,-0.28 -0.292,-0.384" />
    </clipPath>
    <clipPath
       id="clipPath4236"
       clipPathUnits="userSpaceOnUse">
      <path
         inkscape:connector-curvature="0"
         id="path4234"
         d="M 0,2119.953 H 3253.108 V 0 H 0 Z" />
    </clipPath>
    <clipPath
       id="clipPath4252"
       clipPathUnits="userSpaceOnUse">
      <path
         inkscape:connector-curvature="0"
         id="path4250"
         d="m 2157.634,1914.081 c 0.368,-0.23 0.978,-0.251 1.357,-0.046 v 0 l 0.029,0.783 c -0.377,-0.203 -0.988,-0.185 -1.36,0.049 v 0 z" />
    </clipPath>
    <clipPath
       id="clipPath4264"
       clipPathUnits="userSpaceOnUse">
      <path
         inkscape:connector-curvature="0"
         id="path4262"
         d="M 0,2119.953 H 3253.108 V 0 H 0 Z" />
    </clipPath>
    <clipPath
       id="clipPath4276"
       clipPathUnits="userSpaceOnUse">
      <path
         inkscape:connector-curvature="0"
         id="path4274"
         d="m 2165.961,1922.544 c 0,-0.146 0.086,-0.293 0.271,-0.409 v 0 l 0.032,0.784 c -0.188,0.117 -0.279,0.265 -0.274,0.408 v 0 z" />
    </clipPath>
    <clipPath
       id="clipPath4288"
       clipPathUnits="userSpaceOnUse">
      <path
         inkscape:connector-curvature="0"
         id="path4286"
         d="m 2171.5,1921.561 -0.028,-0.785 c 0.189,0.101 0.287,0.239 0.293,0.379 v 0 l 0.028,0.787 c 0,-0.142 -0.102,-0.281 -0.293,-0.381" />
    </clipPath>
    <clipPath
       id="clipPath4300"
       clipPathUnits="userSpaceOnUse">
      <path
         inkscape:connector-curvature="0"
         id="path4298"
         d="M 0,2119.953 H 3253.108 V 0 H 0 Z" />
    </clipPath>
    <clipPath
       id="clipPath4316"
       clipPathUnits="userSpaceOnUse">
      <path
         inkscape:connector-curvature="0"
         id="path4314"
         d="m 2169.16,1920.31 c 0.37,-0.229 0.979,-0.249 1.359,-0.045 v 0 l 0.03,0.784 c -0.379,-0.201 -0.99,-0.186 -1.36,0.046 v 0 z" />
    </clipPath>
    <clipPath
       id="clipPath4328"
       clipPathUnits="userSpaceOnUse">
      <path
         inkscape:connector-curvature="0"
         id="path4326"
         d="M 0,2119.953 H 3253.108 V 0 H 0 Z" />
    </clipPath>
    <clipPath
       id="clipPath4344"
       clipPathUnits="userSpaceOnUse">
      <path
         inkscape:connector-curvature="0"
         id="path4342"
         d="m 2167.406,1922.556 1.331,-0.832 c -0.186,0.942 -0.633,1.637 -1.266,2.036 v 0 l -1.332,0.833 c 0.636,-0.396 1.084,-1.091 1.267,-2.037" />
    </clipPath>
    <clipPath
       id="clipPath4598"
       clipPathUnits="userSpaceOnUse">
      <path
         inkscape:connector-curvature="0"
         id="path4596"
         d="m 2331.633,1939.514 c 0,-0.142 0.1,-0.287 0.296,-0.396 v 0 0.783 c -0.196,0.107 -0.292,0.246 -0.292,0.387 v 0 -0.774 z" />
    </clipPath>
    <clipPath
       id="clipPath4610"
       clipPathUnits="userSpaceOnUse">
      <path
         inkscape:connector-curvature="0"
         id="path4608"
         d="m 2337.17,1938.719 v -0.771 c 0.189,0.099 0.285,0.249 0.285,0.379 v 0 0.787 c 0,-0.14 -0.091,-0.287 -0.283,-0.395" />
    </clipPath>
    <clipPath
       id="clipPath4622"
       clipPathUnits="userSpaceOnUse">
      <path
         inkscape:connector-curvature="0"
         id="path4620"
         d="M 0,2119.953 H 3253.108 V 0 H 0 Z" />
    </clipPath>
    <clipPath
       id="clipPath4638"
       clipPathUnits="userSpaceOnUse">
      <path
         inkscape:connector-curvature="0"
         id="path4636"
         d="m 2334.888,1938.187 v -0.785 c 0.382,-0.217 0.981,-0.217 1.349,0 v 0 0.785 c -0.368,-0.217 -0.963,-0.217 -1.349,0" />
    </clipPath>
    <clipPath
       id="clipPath4650"
       clipPathUnits="userSpaceOnUse">
      <path
         inkscape:connector-curvature="0"
         id="path4648"
         d="M 0,2119.953 H 3253.108 V 0 H 0 Z" />
    </clipPath>
    <clipPath
       id="clipPath4662"
       clipPathUnits="userSpaceOnUse">
      <path
         inkscape:connector-curvature="0"
         id="path4660"
         d="m 2342.868,1946.09 c 0,-0.141 0.101,-0.294 0.291,-0.401 v 0 l 0.01,0.777 c -0.195,0.113 -0.291,0.255 -0.291,0.401 v 0 z" />
    </clipPath>
    <clipPath
       id="clipPath4674"
       clipPathUnits="userSpaceOnUse">
      <path
         inkscape:connector-curvature="0"
         id="path4672"
         d="m 2348.401,1945.298 v -0.782 c 0.182,0.104 0.277,0.25 0.277,0.39 v 0 l 0.01,0.781 c 0,-0.143 -0.095,-0.282 -0.282,-0.389" />
    </clipPath>
    <clipPath
       id="clipPath4686"
       clipPathUnits="userSpaceOnUse">
      <path
         inkscape:connector-curvature="0"
         id="path4684"
         d="M 0,2119.953 H 3253.108 V 0 H 0 Z" />
    </clipPath>
    <clipPath
       id="clipPath4702"
       clipPathUnits="userSpaceOnUse">
      <path
         inkscape:connector-curvature="0"
         id="path4700"
         d="m 2346.127,1944.756 v -0.778 c 0.376,-0.212 0.982,-0.212 1.348,0 v 0 0.778 c -0.366,-0.213 -0.972,-0.213 -1.348,0" />
    </clipPath>
    <clipPath
       id="clipPath4714"
       clipPathUnits="userSpaceOnUse">
      <path
         inkscape:connector-curvature="0"
         id="path4712"
         d="M 0,2119.953 H 3253.108 V 0 H 0 Z" />
    </clipPath>
    <clipPath
       id="clipPath4730"
       clipPathUnits="userSpaceOnUse">
      <path
         inkscape:connector-curvature="0"
         id="path4728"
         d="m 2343.05,1948.089 c -0.023,0.013 -0.045,0.026 -0.068,0.038 v 0 z m 1.257,-1.939 1.349,-0.782 c -0.21,0.926 -0.683,1.603 -1.326,1.976 v 0 l -1.28,0.745 c 0.612,-0.371 1.048,-1.041 1.257,-1.939" />
    </clipPath>
    <clipPath
       id="clipPath4742"
       clipPathUnits="userSpaceOnUse">
      <path
         inkscape:connector-curvature="0"
         id="path4740"
         d="M 0,2119.953 H 3253.108 V 0 H 0 Z" />
    </clipPath>
    <clipPath
       id="clipPath4918"
       clipPathUnits="userSpaceOnUse">
      <path
         inkscape:connector-curvature="0"
         id="path4916"
         d="m 2276.169,1866.541 c 0,-0.151 0.1,-0.291 0.285,-0.401 v 0 0.785 c -0.19,0.105 -0.286,0.259 -0.286,0.394 v 0 -0.778 z" />
    </clipPath>
    <clipPath
       id="clipPath4930"
       clipPathUnits="userSpaceOnUse">
      <path
         inkscape:connector-curvature="0"
         id="path4928"
         d="m 2281.734,1865.741 -0.01,-0.776 c 0.185,0.103 0.278,0.244 0.278,0.385 v 0 0.786 c 0,-0.141 -0.096,-0.281 -0.276,-0.395" />
    </clipPath>
    <clipPath
       id="clipPath4942"
       clipPathUnits="userSpaceOnUse">
      <path
         inkscape:connector-curvature="0"
         id="path4940"
         d="M 0,2119.953 H 3253.108 V 0 H 0 Z" />
    </clipPath>
    <clipPath
       id="clipPath4958"
       clipPathUnits="userSpaceOnUse">
      <path
         inkscape:connector-curvature="0"
         id="path4956"
         d="m 2279.442,1865.203 v -0.782 c 0.372,-0.219 0.983,-0.219 1.351,0 v 0 0.782 c -0.372,-0.221 -0.983,-0.221 -1.355,0" />
    </clipPath>
    <clipPath
       id="clipPath4970"
       clipPathUnits="userSpaceOnUse">
      <path
         inkscape:connector-curvature="0"
         id="path4968"
         d="M 0,2119.953 H 3253.108 V 0 H 0 Z" />
    </clipPath>
    <clipPath
       id="clipPath4982"
       clipPathUnits="userSpaceOnUse">
      <path
         inkscape:connector-curvature="0"
         id="path4980"
         d="m 2287.467,1873.148 c 0,-0.144 0.095,-0.29 0.287,-0.404 v 0 0.786 c -0.191,0.114 -0.29,0.258 -0.29,0.404 v 0 -0.786 z" />
    </clipPath>
    <clipPath
       id="clipPath4994"
       clipPathUnits="userSpaceOnUse">
      <path
         inkscape:connector-curvature="0"
         id="path4992"
         d="m 2293.032,1872.36 v -0.782 c 0.191,0.096 0.282,0.241 0.282,0.378 v 0 0.788 c 0,-0.14 -0.094,-0.281 -0.281,-0.384" />
    </clipPath>
    <clipPath
       id="clipPath5006"
       clipPathUnits="userSpaceOnUse">
      <path
         inkscape:connector-curvature="0"
         id="path5004"
         d="M 0,2119.953 H 3253.108 V 0 H 0 Z" />
    </clipPath>
    <clipPath
       id="clipPath5022"
       clipPathUnits="userSpaceOnUse">
      <path
         inkscape:connector-curvature="0"
         id="path5020"
         d="m 2290.745,1871.81 -0.01,-0.78 c 0.377,-0.22 0.986,-0.214 1.353,0 v 0 0.78 c -0.371,-0.212 -0.98,-0.212 -1.351,0" />
    </clipPath>
    <clipPath
       id="clipPath5034"
       clipPathUnits="userSpaceOnUse">
      <path
         inkscape:connector-curvature="0"
         id="path5032"
         d="M 0,2119.953 H 3253.108 V 0 H 0 Z" />
    </clipPath>
    <clipPath
       id="clipPath5050"
       clipPathUnits="userSpaceOnUse">
      <path
         inkscape:connector-curvature="0"
         id="path5048"
         d="m 2288.91,1873.212 1.359,-0.784 c -0.216,0.934 -0.691,1.61 -1.337,1.987 v 0 l -1.356,0.791 c 0.652,-0.377 1.121,-1.054 1.334,-1.994" />
    </clipPath>
    <clipPath
       id="clipPath4408"
       clipPathUnits="userSpaceOnUse">
      <path
         inkscape:connector-curvature="0"
         id="path4406"
         d="m 2301.08,1906.05 h 45.97 v -31.57 h -45.97 z" />
    </clipPath>
    <clipPath
       id="clipPath4392"
       clipPathUnits="userSpaceOnUse">
      <path
         inkscape:connector-curvature="0"
         id="path4390"
         d="m 2227.58,1871.71 h 52.38 v -32.03 h -52.38 z" />
    </clipPath>
    <clipPath
       id="clipPath5114"
       clipPathUnits="userSpaceOnUse">
      <path
         inkscape:connector-curvature="0"
         id="path5112"
         d="m 2417.33,1884.9 h 51.88 v -27.05 h -51.88 z" />
    </clipPath>
    <clipPath
       id="clipPath5554"
       clipPathUnits="userSpaceOnUse">
      <path
         inkscape:connector-curvature="0"
         id="path5552"
         d="m 2532.68,1877.97 h 61.16 v -27.88 h -61.16 z" />
    </clipPath>
    <clipPath
       id="clipPath5662"
       clipPathUnits="userSpaceOnUse">
      <path
         inkscape:connector-curvature="0"
         id="path5660"
         d="m 2652.02,1878.72 h 75.96 v -28.55 h -75.96 z" />
    </clipPath>
    <clipPath
       id="clipPath5782"
       clipPathUnits="userSpaceOnUse">
      <path
         inkscape:connector-curvature="0"
         id="path5780"
         d="m 2686.34,2040.48 h 6.76 v -5.02 h -6.76 z" />
    </clipPath>
    <clipPath
       id="clipPath5454"
       clipPathUnits="userSpaceOnUse">
      <path
         inkscape:connector-curvature="0"
         id="path5452"
         d="m 2763.78,1887.52 h 61.17 v -27.89 h -61.17 z" />
    </clipPath>
    <clipPath
       id="clipPath5226"
       clipPathUnits="userSpaceOnUse">
      <path
         inkscape:connector-curvature="0"
         id="path5224"
         d="m 2874.06,1879.83 h 115.04 v -37.41 h -115.04 z" />
    </clipPath>
    <clipPath
       id="clipPath5266"
       clipPathUnits="userSpaceOnUse">
      <path
         inkscape:connector-curvature="0"
         id="path5264"
         d="m 2898.47,1905.023 c -0.019,-0.014 -0.036,-0.025 -0.058,-0.038 v 0 c -0.579,-0.382 -0.588,-1.091 -0.535,-1.501 v 0 l 39.797,23.128 c -0.051,0.406 -0.042,1.119 0.537,1.502 v 0 c 0.018,0.012 0.037,0.024 0.058,0.036 v 0 c -13.266,-7.711 -26.531,-15.418 -39.799,-23.127" />
    </clipPath>
  </defs>
  <sodipodi:namedview
     id="base"
     pagecolor="#ffffff"
     bordercolor="#666666"
     borderopacity="1.0"
     inkscape:pageopacity="0.0"
     inkscape:pageshadow="2"
     inkscape:zoom="0.35"
     inkscape:cx="-575.95715"
     inkscape:cy="-135.33456"
     inkscape:document-units="mm"
     inkscape:current-layer="layer1"
     showgrid="false"
     fit-margin-top="0"
     fit-margin-left="0"
     fit-margin-right="0"
     fit-margin-bottom="0"
     inkscape:window-width="1360"
     inkscape:window-height="706"
     inkscape:window-x="-8"
     inkscape:window-y="-8"
     inkscape:window-maximized="1" />
  <metadata
     id="metadata45328">
    <rdf:RDF>
      <cc:Work
         rdf:about="">
        <dc:format>image/svg+xml</dc:format>
        <dc:type
           rdf:resource="http://purl.org/dc/dcmitype/StillImage" />
        <dc:title></dc:title>
      </cc:Work>
    </rdf:RDF>
  </metadata>
  <g
     inkscape:label="Layer 1"
     inkscape:groupmode="layer"
     id="layer1"
     transform="translate(-74.903547,-379.99163)">
    <g
       transform="matrix(0.1,0,0,0.086,55.410772,359.36755)"
       id="g43809">
      <g
         transform="matrix(0.35277777,0,0,-0.35277777,-818.8386,949.9808)"
         id="g5220">
        <g
           id="g5222" />
        <g
           id="g5234">
          <g
             style="opacity:0.25"
             id="g5232"
             clip-path="url(#clipPath5226)">
            <g
               id="g5230"
               transform="translate(2987.1406,1856.1514)">
              <path
                 inkscape:connector-curvature="0"
                 id="path5228"
                 style="fill:#231f20;fill-opacity:1;fill-rule:nonzero;stroke:none"
                 d="m 0,0 c -6.612,-10.391 -26.136,-16.374 -37.785,-12.595 -20.377,6.609 -28.647,20.612 -34.008,16.688 -5.361,-3.923 -4.198,-6.368 -9.429,-7.415 -5.23,-1.046 -33.608,1.7 -31.778,9.024 1.832,7.323 18.57,12.946 20.794,16.999 2.224,4.054 21.185,-5.623 29.292,-8.238 8.108,-2.615 13.004,1.1 26.938,4.97 C -22.041,23.301 10.211,16.046 0,0" />
            </g>
          </g>
        </g>
      </g>
      <g
         transform="matrix(0.35277777,0,0,-0.35277777,210.3988,286.30298)"
         id="g5236">
        <path
           inkscape:connector-curvature="0"
           id="path5238"
           style="fill:#3d3d3d;fill-opacity:1;fill-rule:nonzero;stroke:none"
           d="m 0,0 c 0,0 1.613,-2.274 1.337,-6.156 -0.273,-3.876 -0.851,-5.364 -1.835,-6.09 -0.984,-0.729 -2.217,-0.896 -4.547,-0.58 -2.332,0.321 -6.069,2.591 -7.477,3.014 -1.407,0.423 -1.005,0.431 -6.025,2.006 -7.068,2.226 -8.278,4.112 -8.859,5.996 -0.588,1.914 -0.869,3.555 0,4.099 5.11,3.193 13.878,-3.067 16.132,-0.677 C -9.022,3.997 0,0 0,0" />
      </g>
      <g
         transform="matrix(0.35277777,0,0,-0.35277777,210.62311,285.55848)"
         id="g5240">
        <path
           inkscape:connector-curvature="0"
           id="path5242"
           style="fill:#231f20;fill-opacity:1;fill-rule:nonzero;stroke:none"
           d="m 0,0 c 0,0 1.612,-2.275 1.338,-6.152 -0.273,-3.882 -0.853,-5.369 -1.835,-6.098 -0.986,-0.725 -2.822,-1.099 -5.139,-0.686 -1.847,0.325 -3.377,0.983 -4.715,1.588 -2.231,1.006 -3.564,1.322 -7.504,2.333 -6.111,1.565 -9.898,5.871 -10.372,7.787 -0.419,1.688 1.473,4.267 6.162,3.593 6.732,-0.959 9.097,-1.185 10.791,-0.757 C -8.09,2.414 0,0 0,0" />
      </g>
      <g
         transform="matrix(0.35277777,0,0,-0.35277777,206.67468,274.54641)"
         id="g5244">
        <path
           inkscape:connector-curvature="0"
           id="path5246"
           style="fill:#151a1c;fill-opacity:1;fill-rule:nonzero;stroke:none"
           d="m 0,0 c 0,0 -3.106,-25.157 -2.174,-32.921 0.486,-4.054 13.356,-9.936 15.528,-5.899 1.187,2.204 2.486,36.646 2.486,36.646 z" />
      </g>
      <g
         transform="matrix(0.35277777,0,0,-0.35277777,206.37562,290.80005)"
         id="g5248">
        <path
           inkscape:connector-curvature="0"
           id="path5250"
           style="fill:#3d3d3d;fill-opacity:1;fill-rule:nonzero;stroke:none"
           d="m 0,0 c 0,0 1.84,-2.189 1.882,-6.173 0.046,-3.985 -0.421,-5.552 -1.365,-6.373 -0.945,-0.828 -2.837,-2.473 -5.246,-2.342 -2.408,0.133 -5.447,0.911 -6.92,1.226 -1.472,0.313 -2.595,0.131 -7.854,1.322 -7.407,1.682 -11.923,6.328 -12.675,8.206 -0.758,1.902 0.305,4.965 0.305,4.965 6.14,-0.676 18.122,-2.76 20.224,-0.131 C -9.548,3.328 0,0 0,0" />
      </g>
      <g
         transform="matrix(0.35277777,0,0,-0.35277777,206.54236,290.0216)"
         id="g5252">
        <path
           inkscape:connector-curvature="0"
           id="path5254"
           style="fill:#231f20;fill-opacity:1;fill-rule:nonzero;stroke:none"
           d="m 0,0 c 0,0 1.839,-2.187 1.883,-6.171 0.045,-3.986 -0.42,-5.554 -1.367,-6.377 -0.946,-0.824 -2.837,-2.471 -5.247,-2.34 -2.406,0.131 -5.445,0.909 -6.915,1.228 -1.473,0.317 -3.452,-0.546 -8.698,0.705 -5.247,1.257 -11.091,5.67 -11.734,7.587 -0.568,1.692 -2.096,6.281 4.045,5.603 6.137,-0.673 14.285,-2.162 16.387,0.464 C -9.545,3.328 0,0 0,0" />
      </g>
      <g
         transform="matrix(0.35277777,0,0,-0.35277777,203.82557,272.02635)"
         id="g5256">
        <path
           inkscape:connector-curvature="0"
           id="path5258"
           style="fill:#263438;fill-opacity:1;fill-rule:nonzero;stroke:none"
           d="m 0,0 c -9.452,-0.809 -8.695,-9.94 -8.695,-9.94 0.669,-11.862 2.299,-31.03 1.861,-38.978 -0.105,-1.9 -1.506,-2.834 -1.712,-3.251 -0.56,-1.13 3.885,-9.464 10.78,-9.753 4.108,-0.171 8.413,1.778 8.213,2.91 L 9.631,-15.531 C 9.631,-15.531 5.697,0.486 0,0" />
      </g>
      <g
         transform="matrix(0.35277777,0,0,-0.35277777,-818.8386,949.9808)"
         id="g5260">
        <g
           clip-path="url(#clipPath5266)"
           id="g5262">
          <g
             transform="translate(2898.4697,1905.0225)"
             id="g5268">
            <path
               inkscape:connector-curvature="0"
               id="path5270"
               style="fill:#231f20;fill-opacity:1;fill-rule:nonzero;stroke:none"
               d="M 0,0 39.799,23.127 C 39.778,23.116 39.76,23.103 39.741,23.091 39.163,22.708 39.153,21.996 39.204,21.589 L -0.593,-1.539 c -0.053,0.411 -0.044,1.12 0.535,1.502 C -0.036,-0.024 -0.019,-0.013 0,0" />
          </g>
        </g>
      </g>
      <g
         transform="matrix(0.35277777,0,0,-0.35277777,226.02575,273.77661)"
         id="g5280">
        <path
           inkscape:connector-curvature="0"
           id="path5282"
           style="fill:#3d7d84;fill-opacity:1;fill-rule:nonzero;stroke:none"
           d="m 0,0 -10.199,4.73 -21.578,8.724 c -5.418,2.56 -18.851,2.458 -18.555,-8.777 l -1.063,-17.553 23.313,3.124 c 0,0 16.098,-7.021 23.058,-6.355 C 7.389,-14.926 0,0 0,0" />
      </g>
      <g
         transform="matrix(0.35277777,0,0,-0.35277777,226.78714,280.50832)"
         id="g5284">
        <path
           inkscape:connector-curvature="0"
           id="path5286"
           style="fill:#263438;fill-opacity:1;fill-rule:nonzero;stroke:none"
           d="M 0,0 C 5.32,4.138 5.674,16.422 5.674,16.422 L 2.718,39.182 -20.043,27.36 -27.434,16.13 -61.67,25.597 C -68.295,24.975 -72.36,15.85 -71.297,5.615 l 4.255,-1.606 c 0,0 4.019,-0.991 6.414,0.55 2.644,1.7 2.995,3.024 2.995,3.024 0,0 25.465,-10.56 32.806,-12.017 C -10.609,-7.259 -5.08,-3.951 0,0" />
      </g>
      <g
         transform="matrix(0.35277777,0,0,-0.35277777,213.88283,266.46232)"
         id="g5288">
        <path
           inkscape:connector-curvature="0"
           id="path5290"
           style="fill:#e5b28c;fill-opacity:1;fill-rule:nonzero;stroke:none"
           d="M 0,0 C 0,0 -9.225,2.068 -10.936,2.368 -14.334,2.955 -20.617,0 -20.617,0 l -3.916,-3.619 c 0,0 -0.519,-0.813 0.886,-1.111 1.406,-0.296 3.51,2.217 3.51,2.217 l 4.101,1.185 c 0,0 2.638,0.086 2.735,-1.185 0.073,-0.958 -2.205,-1.459 -3.178,-1.624 -0.677,-0.115 -2.174,-0.571 -2.437,-1.259 -0.399,-1.028 0.517,-1.473 0.517,-1.473 0,0 0.568,-0.113 3.694,0.441 2.513,0.442 4.39,0.543 5.838,0.811 1.995,0.372 3.177,1.849 3.177,1.849 l 4.582,-1.183 z" />
      </g>
      <g
         transform="matrix(0.35277777,0,0,-0.35277777,223.40267,252.82284)"
         id="g5292">
        <path
           inkscape:connector-curvature="0"
           id="path5294"
           style="fill:#282e30;fill-opacity:1;fill-rule:nonzero;stroke:none"
           d="m 0,0 c 0,0 10.204,3.646 13.603,-13.347 0.77,-3.849 5.443,-25.682 2.824,-30.287 0,0 -10.817,-7.325 -18.502,-6.144 -5.728,0.882 -28.882,3.935 -28.882,3.935 0,0 -1.177,0.288 0.103,3.933 0.849,2.418 2.174,3.312 2.174,3.312 l 25.052,4.97 z" />
      </g>
      <g
         transform="matrix(0.35277777,0,0,-0.35277777,220.74652,260.78137)"
         id="g5296">
        <path
           inkscape:connector-curvature="0"
           id="path5298"
           style="fill:#995710;fill-opacity:1;fill-rule:nonzero;stroke:none"
           d="M 0,0 -4.466,2.535 -7.918,0.539 -3.553,-1.995 Z" />
      </g>
      <g
         transform="matrix(0.35277777,0,0,-0.35277777,215.08552,243.04843)"
         id="g5300">
        <path
           inkscape:connector-curvature="0"
           id="path5302"
           style="fill:#edc3a4;fill-opacity:1;fill-rule:nonzero;stroke:none"
           d="M 0,0 -6.969,-5.76 0.79,-24.164 c 2.474,-6.063 5.399,-6.118 7.281,-5.496 3.906,1.289 7.485,4.949 9.224,6.977 3.371,3.928 0.829,11.132 0.664,11.733 l -3.54,14.873 z" />
      </g>
      <g
         transform="matrix(0.35277777,0,0,-0.35277777,224.28463,252.85816)"
         id="g5304">
        <path
           inkscape:connector-curvature="0"
           id="path5306"
           style="fill:#edc3a4;fill-opacity:1;fill-rule:nonzero;stroke:none"
           d="m 0,0 c 0,0 -1.909,2.899 -2.628,4.336 -1.138,2.268 -3.863,10.492 -3.863,10.492 l -11.135,-3.703 c 0,0 0.894,-6.266 1.778,-8.714 0.551,-1.526 3.337,-7.571 3.337,-7.571 0.173,-1.873 -7.868,-15.424 -7.329,-21.243 l 20.869,8.906 C 0.798,-15.018 0,0 0,0" />
      </g>
      <g
         transform="matrix(0.35277777,0,0,-0.35277777,212.67292,243.26977)"
         id="g5308">
        <path
           inkscape:connector-curvature="0"
           id="path5310"
           style="fill:#a87d31;fill-opacity:1;fill-rule:nonzero;stroke:none"
           d="m 0,0 c -0.882,-1.209 -1.669,-2.311 -1.349,-3.915 0.233,-1.159 1.166,-2.615 2.434,-4.113 1.352,-1.597 6.262,-7.129 6.871,-7.758 0,0 1.424,0.01 1.284,0.962 -0.706,4.814 2.192,2.691 5.779,-0.527 0,0 2.351,-2.166 5.288,-3.239 5.301,-1.939 7.991,1.159 7.991,0.879 -0.003,-0.198 0.637,3.467 0.641,8.086 C 28.948,0.852 26.973,5.262 23.228,7.957 21.623,9.111 14.116,12.19 5.903,6.287 2.87,4.109 1.026,1.412 0,0" />
      </g>
      <g
         transform="matrix(0.35277777,0,0,-0.35277777,215.63297,247.23714)"
         id="g5312">
        <path
           inkscape:connector-curvature="0"
           id="path5314"
           style="fill:#efccaf;fill-opacity:1;fill-rule:nonzero;stroke:none"
           d="m 0,0 c 0,0 1.86,0.235 3.048,-1.645 0.839,-1.328 0.682,-2.683 0.503,-3.12 -0.472,-1.169 -1.208,-1.6 -1.208,-1.6 0,0 -0.979,3.48 -1.2,4.111 C 0.923,-1.625 0,0 0,0" />
      </g>
      <g
         transform="matrix(0.35277777,0,0,-0.35277777,215.25917,247.05765)"
         id="g5316">
        <path
           inkscape:connector-curvature="0"
           id="path5318"
           style="fill:#f7ddcb;fill-opacity:1;fill-rule:nonzero;stroke:none"
           d="m 0,0 c 0,0 -1.034,-0.243 0.109,-1.492 1.145,-1.248 1.569,-2.076 1.836,-2.889 0.243,-0.75 0.712,-3.047 0.712,-3.047 0,0 0.905,-0.745 1.13,0.806 0.107,0.737 -0.063,2.039 -0.563,3.626 C 3.021,-2.348 1.008,0.646 0,0" />
      </g>
      <g
         transform="matrix(0.35277777,0,0,-0.35277777,217.15326,257.42532)"
         id="g5320">
        <path
           inkscape:connector-curvature="0"
           id="path5322"
           style="fill:#37484f;fill-opacity:1;fill-rule:nonzero;stroke:none"
           d="m 0,0 c -2.27,-2.824 -1.906,-11.275 -1.064,-20.392 l 1.597,-24.117 c 0.097,-1.044 -9.783,-1.571 -8.613,-6.099 0.607,-2.354 1.797,-8.725 9.752,-13.859 1.195,-0.771 10.363,-4.013 17.197,-3.08 6.728,0.916 15.709,11.292 15.401,14.63 L 29.906,0.343 C 29.137,11.122 20.73,15.292 20.73,15.292 L 8.69,8.69 Z" />
      </g>
      <g
         transform="matrix(0.35277777,0,0,-0.35277777,205.63804,266.19979)"
         id="g5324">
        <path
           inkscape:connector-curvature="0"
           id="path5326"
           style="fill:#587c99;fill-opacity:1;fill-rule:nonzero;stroke:none"
           d="M 0,0 0.005,-1.667 0.416,-1.906 0.409,-0.239 Z" />
      </g>
      <g
         transform="matrix(0.35277777,0,0,-0.35277777,202.99943,267.72306)"
         id="g5328">
        <path
           inkscape:connector-curvature="0"
           id="path5330"
           style="fill:#587c99;fill-opacity:1;fill-rule:nonzero;stroke:none"
           d="M 0,0 0.005,-1.669 7.484,2.65 7.479,4.318 Z" />
      </g>
      <g
         transform="matrix(0.35277777,0,0,-0.35277777,202.99943,267.72306)"
         id="g5332">
        <path
           inkscape:connector-curvature="0"
           id="path5334"
           style="fill:#081627;fill-opacity:1;fill-rule:nonzero;stroke:none"
           d="M 0,0 0.005,-1.669 0.415,-1.906 0.41,-0.239 Z" />
      </g>
      <g
         transform="matrix(0.35277777,0,0,-0.35277777,203.14413,267.80729)"
         id="g5336">
        <path
           inkscape:connector-curvature="0"
           id="path5338"
           style="fill:#091a2e;fill-opacity:1;fill-rule:nonzero;stroke:none"
           d="M 0,0 0.005,-1.667 7.485,2.65 7.479,4.317 Z" />
      </g>
      <g
         transform="matrix(0.35277777,0,0,-0.35277777,207.0061,265.82651)"
         id="g5340">
        <path
           inkscape:connector-curvature="0"
           id="path5342"
           style="fill:#587c99;fill-opacity:1;fill-rule:nonzero;stroke:none"
           d="m 0,0 21.838,-12.688 0.007,-1.67 -21.84,12.691 -13.383,-7.724 -0.003,1.665 z" />
      </g>
      <g
         transform="matrix(0.35277777,0,0,-0.35277777,209.98919,273.029)"
         id="g5344">
        <path
           inkscape:connector-curvature="0"
           id="path5346"
           style="fill:#98a0a7;fill-opacity:1;fill-rule:nonzero;stroke:none"
           d="M 0,0 0.005,-1.667 13.389,6.059 13.382,7.728 Z" />
      </g>
      <g
         transform="matrix(0.35277777,0,0,-0.35277777,202.28561,268.55193)"
         id="g5348">
        <path
           inkscape:connector-curvature="0"
           id="path5350"
           style="fill:#80868c;fill-opacity:1;fill-rule:nonzero;stroke:none"
           d="m 0,0 0.003,-1.665 21.839,-12.693 -0.005,1.667 z" />
      </g>
      <g
         transform="matrix(0.35277777,0,0,-0.35277777,202.99877,267.77199)"
         id="g5352">
        <path
           inkscape:connector-curvature="0"
           id="path5354"
           style="fill:#426277;fill-opacity:1;fill-rule:nonzero;stroke:none"
           d="M 0,0 0.41,-0.239 7.891,4.08 7.479,4.317 Z" />
      </g>
      <g
         transform="matrix(0.35277777,0,0,-0.35277777,202.27736,268.7466)"
         id="g5356">
        <path
           inkscape:connector-curvature="0"
           id="path5358"
           style="fill:#dfe9f4;fill-opacity:1;fill-rule:nonzero;stroke:none"
           d="M 0,0 21.836,-12.688 35.222,-4.963 13.383,7.728 Z" />
      </g>
      <g
         transform="matrix(0.35277777,0,0,-0.35277777,201.60659,268.58933)"
         id="g5360">
        <path
           inkscape:connector-curvature="0"
           id="path5362"
           style="fill:#98bdea;fill-opacity:1;fill-rule:nonzero;stroke:none"
           d="m 0,0 25.258,-14.679 c 0.404,-0.233 1.057,-0.235 1.464,0 l 14.041,8.107 c 0.206,0.119 0.304,0.272 0.304,0.427 0.002,-0.555 0.004,-1.109 0.007,-1.669 0,-0.151 -0.104,-0.309 -0.305,-0.423 l -14.042,-8.108 c -0.408,-0.235 -1.061,-0.235 -1.463,0 L 0.007,-1.666 c -0.201,0.117 -0.303,0.268 -0.303,0.421 -0.002,0.556 -0.002,1.112 -0.005,1.668 C -0.301,0.269 -0.2,0.118 0,0" />
      </g>
      <g
         transform="matrix(0.35277777,0,0,-0.35277777,205.63804,266.19979)"
         id="g5364">
        <path
           inkscape:connector-curvature="0"
           id="path5366"
           style="fill:#6e97d3;fill-opacity:1;fill-rule:nonzero;stroke:none"
           d="m 0,0 -7.479,-4.318 0.41,-0.239 7.478,4.318 z m 23.557,-15.355 3.533,2.039 -1.273,0.739 -3.533,-2.039 z m -8.46,-4.958 3.534,2.043 -1.271,0.738 -3.536,-2.039 z m -2.763,0.955 13.382,7.728 L 3.878,1.058 -9.503,-6.667 Z M 2.62,2.182 c 0.404,0.231 1.059,0.235 1.463,0 l 25.258,-14.679 c 0.402,-0.235 0.399,-0.617 -0.006,-0.848 l -14.041,-8.108 c -0.406,-0.235 -1.06,-0.233 -1.464,0 l -25.258,14.68 c -0.401,0.234 -0.402,0.612 0.007,0.847 z" />
      </g>
      <g
         transform="matrix(0.35277777,0,0,-0.35277777,213.95035,271.50166)"
         id="g5368">
        <path
           inkscape:connector-curvature="0"
           id="path5370"
           style="fill:#98bdea;fill-opacity:1;fill-rule:nonzero;stroke:none"
           d="M 0,0 3.535,2.043 V 1.712 L 0,-0.333 -1.274,0.409 v 0.335 z" />
      </g>
      <g
         transform="matrix(0.35277777,0,0,-0.35277777,213.50077,271.23929)"
         id="g5372">
        <path
           inkscape:connector-curvature="0"
           id="path5374"
           style="fill:#bddcf9;fill-opacity:1;fill-rule:nonzero;stroke:none"
           d="M 0,0 1.274,-0.744 4.81,1.3 3.533,2.042 Z" />
      </g>
      <g
         transform="matrix(0.35277777,0,0,-0.35277777,210.95969,273.2545)"
         id="g5376">
        <path
           inkscape:connector-curvature="0"
           id="path5378"
           style="fill:#bddcf9;fill-opacity:1;fill-rule:nonzero;stroke:none"
           d="M 0,0 3.538,2.041 V 1.706 L 0,-0.335 -1.273,0.406 v 0.333 z" />
      </g>
      <g
         transform="matrix(0.35277777,0,0,-0.35277777,210.51042,272.99369)"
         id="g5380">
        <path
           inkscape:connector-curvature="0"
           id="path5382"
           style="fill:#84afd3;fill-opacity:1;fill-rule:nonzero;stroke:none"
           d="M 0,0 1.273,-0.739 4.812,1.302 3.536,2.042 Z" />
      </g>
      <g
         transform="matrix(0.35277777,0,0,-0.35277777,211.0851,272.83074)"
         id="g5384">
        <path
           inkscape:connector-curvature="0"
           id="path5386"
           style="fill:#bf3c32;fill-opacity:1;fill-rule:nonzero;stroke:none"
           d="m 0,0 c -0.145,-0.082 -0.142,-0.216 0,-0.3 l 0.154,-0.088 0.038,-0.003 0.336,0.193 -0.004,0.024 -0.085,0.051 c -0.033,0.021 -0.033,0.054 0,0.07 l 0.608,0.351 c 0.033,0.019 0.084,0.023 0.119,0 L 1.254,0.247 H 1.296 L 1.635,0.441 1.634,0.464 1.479,0.554 C 1.336,0.64 1.104,0.64 0.962,0.556 Z" />
      </g>
      <g
         transform="matrix(0.35277777,0,0,-0.35277777,214.08161,271.05603)"
         id="g5388">
        <path
           inkscape:connector-curvature="0"
           id="path5390"
           style="fill:#9ce237;fill-opacity:1;fill-rule:nonzero;stroke:none"
           d="m 0,0 c -0.143,-0.084 -0.143,-0.219 0.003,-0.303 l 0.152,-0.087 0.038,-0.003 0.335,0.196 -0.003,0.021 -0.086,0.053 c -0.034,0.02 -0.034,0.051 0,0.069 l 0.608,0.35 c 0.033,0.02 0.085,0.02 0.118,0 L 1.254,0.247 H 1.296 L 1.636,0.441 1.632,0.463 1.478,0.553 C 1.339,0.633 1.105,0.637 0.961,0.556 Z" />
      </g>
      <g
         transform="matrix(0.35277777,0,0,-0.35277777,215.1613,271.59016)"
         id="g5392">
        <path
           inkscape:connector-curvature="0"
           id="path5394"
           style="fill:#6e97d3;fill-opacity:1;fill-rule:nonzero;stroke:none"
           d="m 0,0 c -0.139,-0.082 -0.254,-0.278 -0.254,-0.441 0.002,-0.162 0.119,-0.225 0.255,-0.148 0.143,0.082 0.257,0.28 0.256,0.442 C 0.257,0.014 0.144,0.08 0,0" />
      </g>
      <g
         transform="matrix(0.35277777,0,0,-0.35277777,215.1613,271.59016)"
         id="g5396">
        <path
           inkscape:connector-curvature="0"
           id="path5398"
           style="fill:#1f3c5e;fill-opacity:1;fill-rule:nonzero;stroke:none"
           d="m 0,0 c 0.066,0.037 0.121,0.039 0.169,0.02 0.01,-0.026 0.019,-0.057 0.019,-0.092 0,-0.159 -0.115,-0.357 -0.254,-0.437 -0.067,-0.039 -0.124,-0.04 -0.168,-0.024 -0.011,0.028 -0.02,0.055 -0.02,0.092 0,0.163 0.115,0.359 0.254,0.441" />
      </g>
      <g
         transform="matrix(0.35277777,0,0,-0.35277777,202.61671,269.50415)"
         id="g5400">
        <path
           inkscape:connector-curvature="0"
           id="path5402"
           style="fill:#6e97d3;fill-opacity:1;fill-rule:nonzero;stroke:none"
           d="M 0,0 C 0.171,0.103 0.409,0.086 0.672,-0.065 L 3.502,-1.7 c 0.261,-0.149 0.542,-0.439 0.741,-0.85 0.004,-0.01 0.013,-0.018 0.02,-0.031 H 4.261 c 0.114,-0.247 0.18,-0.504 0.18,-0.746 L 4.229,-3.445 C 4.208,-3.216 4.125,-2.967 4.006,-2.729 L 3.993,-2.734 c -0.19,0.407 -0.495,0.728 -0.758,0.877 l -2.829,1.634 c -0.262,0.154 -0.502,0.168 -0.675,0.07 z" />
      </g>
      <g
         transform="matrix(0.35277777,0,0,-0.35277777,202.77755,269.57047)"
         id="g5404">
        <path
           inkscape:connector-curvature="0"
           id="path5406"
           style="fill:#98bdea;fill-opacity:1;fill-rule:nonzero;stroke:none"
           d="M 0,0 C -0.52,0.3 -0.945,0.059 -0.947,-0.537 L 3.77,-3.263 c 10e-4,0.596 -0.418,1.326 -0.941,1.626 z" />
      </g>
      <g
         transform="matrix(0.35277777,0,0,-0.35277777,204.83638,270.72236)"
         id="g5408">
        <path
           inkscape:connector-curvature="0"
           id="path5410"
           style="fill:#d7dddc;fill-opacity:1;fill-rule:nonzero;stroke:none"
           d="m 0,0 c 0.065,0.037 0.158,0.031 0.255,-0.033 l 0.754,-0.431 c 0.259,-0.161 0.483,-0.733 0.23,-0.87 L 0.944,-1.492 c 0.067,0.035 0.109,0.117 0.115,0.229 0.007,0.229 -0.16,0.526 -0.342,0.64 l -0.754,0.431 c -0.101,0.064 -0.192,0.071 -0.259,0.035 z" />
      </g>
      <g
         transform="matrix(0.35277777,0,0,-0.35277777,204.82328,270.79024)"
         id="g5412">
        <path
           inkscape:connector-curvature="0"
           id="path5414"
           style="fill:#8e9a99;fill-opacity:1;fill-rule:nonzero;stroke:none"
           d="m 0,0 c -0.195,0.123 -0.361,0.037 -0.371,-0.196 -0.008,-0.229 0.144,-0.514 0.342,-0.637 l 0.754,-0.432 c 0.197,-0.124 0.363,-0.036 0.371,0.195 0.008,0.233 -0.146,0.517 -0.342,0.639 z" />
      </g>
      <g
         transform="matrix(0.35277777,0,0,-0.35277777,207.54214,272.34137)"
         id="g5416">
        <path
           inkscape:connector-curvature="0"
           id="path5418"
           style="fill:#d7dddc;fill-opacity:1;fill-rule:nonzero;stroke:none"
           d="M 0,0 C 0.066,0.035 0.158,0.027 0.256,-0.033 L 1.01,-0.466 C 1.199,-0.582 1.361,-0.875 1.351,-1.105 1.348,-1.22 1.304,-1.299 1.239,-1.332 l -0.294,-0.16 c 0.067,0.037 0.11,0.115 0.113,0.23 0.008,0.234 -0.162,0.529 -0.341,0.637 l -0.754,0.433 c -0.1,0.064 -0.191,0.069 -0.259,0.037 z" />
      </g>
      <g
         transform="matrix(0.35277777,0,0,-0.35277777,207.52907,272.40906)"
         id="g5420">
        <path
           inkscape:connector-curvature="0"
           id="path5422"
           style="fill:#8e9a99;fill-opacity:1;fill-rule:nonzero;stroke:none"
           d="m 0,0 c -0.196,0.123 -0.363,0.037 -0.371,-0.194 -0.008,-0.231 0.144,-0.517 0.342,-0.64 L 0.724,-1.265 C 0.922,-1.387 1.086,-1.3 1.095,-1.07 1.104,-0.837 0.951,-0.554 0.754,-0.433 Z" />
      </g>
      <g
         transform="matrix(0.35277777,0,0,-0.35277777,205.68524,271.25788)"
         id="g5424">
        <path
           inkscape:connector-curvature="0"
           id="path5426"
           style="fill:#d7dddc;fill-opacity:1;fill-rule:nonzero;stroke:none"
           d="M 0,0 C 0.069,0.039 0.159,0.026 0.26,-0.033 L 3.83,-2.14 C 4.082,-2.297 4.313,-2.871 4.058,-3.01 L 3.764,-3.167 c 0.066,0.034 0.11,0.114 0.113,0.231 0.007,0.228 -0.158,0.52 -0.342,0.635 l -3.571,2.109 c -0.098,0.061 -0.19,0.069 -0.256,0.034 z" />
      </g>
      <g
         transform="matrix(0.35277777,0,0,-0.35277777,205.67249,271.32559)"
         id="g5428">
        <path
           inkscape:connector-curvature="0"
           id="path5430"
           style="fill:#8e9a99;fill-opacity:1;fill-rule:nonzero;stroke:none"
           d="m 0,0 c -0.195,0.123 -0.361,0.034 -0.368,-0.199 -0.009,-0.228 0.142,-0.512 0.342,-0.634 l 3.569,-2.108 c 0.198,-0.12 0.361,-0.034 0.37,0.197 0.008,0.23 -0.143,0.515 -0.342,0.635 z" />
      </g>
      <g
         transform="matrix(0.35277777,0,0,-0.35277777,208.06234,271.6615)"
         id="g5432">
        <path
           inkscape:connector-curvature="0"
           id="path5434"
           style="fill:#e5b28c;fill-opacity:1;fill-rule:nonzero;stroke:none"
           d="m 0,0 c 0,0 -0.663,3.5 -3.416,5.071 -2.174,1.242 -6.109,3.933 -6.109,3.933 0,0 -1.863,-0.102 -0.93,-1.654 0.644,-1.073 3.003,-3.21 3.003,-3.21 0,0 0.723,-1.866 -1.346,-1.656 -2.071,0.207 -7.352,3.314 -7.352,3.314 l -2.446,1.666 c 0,0 -1.235,-0.092 -1.073,-1.563 0.208,-1.865 2.485,-5.901 4.245,-7.041 0.771,-0.497 1.76,-0.726 3.624,-1.345 1.863,-0.623 9.729,-2.278 9.729,-2.278 0,0 1.059,0.145 1.71,2.117 C 0.163,-1.053 0,0 0,0" />
      </g>
      <g
         transform="matrix(0.35277777,0,0,-0.35277777,224.4214,252.46026)"
         id="g5436">
        <path
           inkscape:connector-curvature="0"
           id="path5438"
           style="fill:#ffffff;fill-opacity:1;fill-rule:nonzero;stroke:none"
           d="m 0,0 c 0,0 -4.674,-1.328 -10.18,-4.287 -3.529,-1.898 -6.505,-5.852 -6.505,-5.852 0,0 2.182,5.133 3.531,6.931 3.976,5.302 7.415,6.059 8.854,6.479 1.781,0.523 1.989,-0.32 1.989,-0.32 z" />
      </g>
      <g
         transform="matrix(0.35277777,0,0,-0.35277777,225.4053,252.69969)"
         id="g5440">
        <path
           inkscape:connector-curvature="0"
           id="path5442"
           style="fill:#605d5d;fill-opacity:1;fill-rule:nonzero;stroke:none"
           d="m 0,0 c 0,0 -4.213,0.292 -12.078,-4.217 -3.484,-1.996 -7.934,-5.748 -7.934,-5.748 0,0 1.766,2.897 4.007,5.094 5.424,5.312 9.755,6.402 11.213,6.749 1.186,0.284 1.771,0.64 2.688,-0.088 C -1.567,1.363 0,0 0,0" />
      </g>
      <g
         transform="matrix(0.35277777,0,0,-0.35277777,206.56096,272.60716)"
         id="g5444">
        <path
           inkscape:connector-curvature="0"
           id="path5446"
           style="fill:#43555b;fill-opacity:1;fill-rule:nonzero;stroke:none"
           d="m 0,0 c 0.168,-3.398 1.461,-3.323 1.461,-3.323 0,0 22.97,-4.716 25.361,-4.891 3.446,-0.251 7.588,0.351 8.726,1.283 4.834,3.96 5.334,24.491 5.767,32.592 0.312,5.799 0.452,8.478 -1.533,12.969 -2.312,5.233 -6.976,6.763 -10.469,3.165 C 26.617,39.016 26.721,13.653 26.617,10.649 26.543,8.516 24.612,7.271 22.477,7.337 L 4.107,6.289 c 0,0 -1.489,-0.233 -2.697,-1.67 C 0.758,3.843 -0.063,1.272 0,0" />
      </g>
    </g>
  </g>
</svg>
