<?xml version="1.0" encoding="UTF-8" standalone="no"?>
<!-- Created with Inkscape (http://www.inkscape.org/) -->

<svg
   xmlns:dc="http://purl.org/dc/elements/1.1/"
   xmlns:cc="http://creativecommons.org/ns#"
   xmlns:rdf="http://www.w3.org/1999/02/22-rdf-syntax-ns#"
   xmlns:svg="http://www.w3.org/2000/svg"
   xmlns="http://www.w3.org/2000/svg"
   xmlns:sodipodi="http://sodipodi.sourceforge.net/DTD/sodipodi-0.dtd"
   xmlns:inkscape="http://www.inkscape.org/namespaces/inkscape"
   width="2.9784229mm"
   height="6.0037174mm"
   viewBox="0 0 2.9784229 6.0037175"
   version="1.1"
   id="svg113590"
   inkscape:version="0.92.2 (5c3e80d, 2017-08-06)"
   sodipodi:docname="people-dancing-3.svg">
  <defs
     id="defs113584">
    <clipPath
       id="clipPath6938"
       clipPathUnits="userSpaceOnUse">
      <path
         inkscape:connector-curvature="0"
         id="path6936"
         d="m 332.31,670.939 h 80.557 V 627.742 H 332.31 Z" />
    </clipPath>
    <clipPath
       id="clipPath19962"
       clipPathUnits="userSpaceOnUse">
      <path
         inkscape:connector-curvature="0"
         id="path19960"
         d="m 509.182,647.722 h 56.485 v -19.98 h -56.485 z" />
    </clipPath>
    <clipPath
       id="clipPath19818"
       clipPathUnits="userSpaceOnUse">
      <path
         inkscape:connector-curvature="0"
         id="path19816"
         d="m 671.425,650.716 h 65.619 v -22.975 h -65.619 z" />
    </clipPath>
  </defs>
  <sodipodi:namedview
     id="base"
     pagecolor="#ffffff"
     bordercolor="#666666"
     borderopacity="1.0"
     inkscape:pageopacity="0.0"
     inkscape:pageshadow="2"
     inkscape:zoom="0.35"
     inkscape:cx="144.01399"
     inkscape:cy="252.70432"
     inkscape:document-units="mm"
     inkscape:current-layer="layer1"
     showgrid="false"
     inkscape:window-width="1360"
     inkscape:window-height="706"
     inkscape:window-x="-8"
     inkscape:window-y="-8"
     inkscape:window-maximized="1"
     fit-margin-top="0"
     fit-margin-left="0"
     fit-margin-right="0"
     fit-margin-bottom="0" />
  <metadata
     id="metadata113587">
    <rdf:RDF>
      <cc:Work
         rdf:about="">
        <dc:format>image/svg+xml</dc:format>
        <dc:type
           rdf:resource="http://purl.org/dc/dcmitype/StillImage" />
        <dc:title></dc:title>
      </cc:Work>
    </rdf:RDF>
  </metadata>
  <g
     inkscape:label="Layer 1"
     inkscape:groupmode="layer"
     id="layer1"
     transform="translate(115.58882,-330.64335)">
    <g
       id="g35864"
       transform="matrix(0.1,0,0,0.086,-102.68965,304.95172)">
      <g
         transform="matrix(0.35277777,0,0,-0.35277777,-128.12745,303.57402)"
         id="g19800">
        <path
           inkscape:connector-curvature="0"
           id="path19802"
           style="fill:#ffe1cc;fill-opacity:1;fill-rule:nonzero;stroke:none"
           d="M 0,0 2.009,2.771 5.438,4.883 6.785,7.9 c 0,0 0.332,0.84 1.419,1.496 0.422,0.249 1.164,0.688 1.164,0.688 0,0 1.847,2.756 -0.4,3.322 C 8.242,13.59 7.466,13.297 7.466,13.297 6.56,13.658 5.575,13.568 4.48,13.658 2.245,13.85 1.577,13.41 1.035,12.699 0.682,12.234 -0.071,10.641 -0.071,10.641 -0.872,8.973 -2.381,1.604 0,0" />
      </g>
      <g
         transform="matrix(0.35277777,0,0,-0.35277777,-127.19055,301.5952)"
         id="g19804">
        <path
           inkscape:connector-curvature="0"
           id="path19806"
           style="fill:#ffe1cc;fill-opacity:1;fill-rule:nonzero;stroke:none"
           d="m 0,0 c 0.273,1.658 2.401,2.5 3.714,2.33 0.459,-0.053 0.866,3.941 2.733,3.557 0,0 0.397,-2.073 0.449,-3.826 C 6.9,1.906 7.032,0.623 5.988,-0.41 3.219,-3.133 2.625,-3.221 1.308,-3.053 -0.009,-2.887 -0.263,-1.652 0,0" />
      </g>
      <g
         transform="matrix(0.35277777,0,0,-0.35277777,-114.67692,310.64958)"
         id="g19808">
        <path
           inkscape:connector-curvature="0"
           id="path19810"
           style="fill:#6d2f06;fill-opacity:1;fill-rule:nonzero;stroke:none"
           d="m 0,0 c -1.848,-2 -1.574,-0.713 -2.967,-1.078 -0.205,-0.055 -0.026,0.051 -2.967,-0.676 -0.145,-0.039 -3.39,-0.818 -3.99,-5.144 -0.273,-1.983 -0.244,-6.116 -0.25,-6.147 -0.039,-0.305 -3.298,-0.322 -3.197,-0.512 0.884,-1.675 1.637,-10.047 1.637,-10.047 -0.571,-0.068 -4.404,5.819 -5.8,7.821 -5.14,7.369 -5.091,20.57 8.365,21.179 2.967,0.133 7.284,-1.08 9.037,-2.564 C 0.891,1.965 1.133,1.229 0,0" />
      </g>
      <g
         transform="matrix(0.35277777,0,0,-0.35277777,-359.22014,590.00376)"
         id="g19812">
        <g
           id="g19814" />
        <g
           id="g19826">
          <g
             style="opacity:0.28999299"
             id="g19824"
             clip-path="url(#clipPath19818)">
            <g
               id="g19822"
               transform="translate(726.6113,640.9229)">
              <path
                 inkscape:connector-curvature="0"
                 id="path19820"
                 style="fill:#231f20;fill-opacity:1;fill-rule:nonzero;stroke:none"
                 d="m 0,0 c -16.023,-1.51 -9.715,-3.021 -8.765,-5.607 1.597,-4.342 -8.407,-7.522 -18.346,-7.573 -21.312,-0.109 -29.31,5.852 -27.924,12.102 1.293,5.807 26.572,11.15 40.097,10.859 C 3.732,9.379 7.088,8.83 9.582,6.605 12.287,4.189 8.391,0.795 0,0" />
            </g>
          </g>
        </g>
      </g>
      <g
         transform="matrix(0.35277777,0,0,-0.35277777,-117.77268,362.46037)"
         id="g19828">
        <path
           inkscape:connector-curvature="0"
           id="path19830"
           style="fill:#141413;fill-opacity:1;fill-rule:nonzero;stroke:none"
           d="m 0,0 c 0,0 0.221,-2.545 1.281,-4.057 1.567,-2.242 3.602,-4.756 3.687,-5.07 0.139,-0.523 0.025,-1.584 0.025,-1.584 0,0 0.696,-2.721 -5.745,-2.402 -5.028,0.242 -6.987,2.906 -6.987,2.906 0,0 -2.195,2.51 -2.427,2.598 -0.668,0.246 -1.235,0.746 -1.235,0.746 0,0 -0.97,6.252 0.983,8.258 C -8.48,3.387 0,0 0,0" />
      </g>
      <g
         transform="matrix(0.35277777,0,0,-0.35277777,-114.79612,318.89919)"
         id="g19832">
        <path
           inkscape:connector-curvature="0"
           id="path19834"
           style="fill:#350d99;fill-opacity:1;fill-rule:nonzero;stroke:none"
           d="m 0,0 c 0,0 4.773,3.145 10.477,0.279 4.019,-2.021 12.419,-5.791 12.419,-5.791 L 17.321,6.029 c 0,0 6.875,4.459 8.525,2.237 6.398,-8.633 9.3,-17.649 9.3,-17.649 0,0 3.629,-10.713 -7.941,-8.441 -8.266,1.627 -18.434,4.076 -18.434,4.076 z" />
      </g>
      <g
         transform="matrix(0.35277777,0,0,-0.35277777,-108.21463,317.32063)"
         id="g19836">
        <path
           inkscape:connector-curvature="0"
           id="path19838"
           style="fill:#cadee0;fill-opacity:1;fill-rule:nonzero;stroke:none"
           d="M 0,0 C 0,0 -1.029,0.545 -0.877,1.172 -0.73,1.803 -0.851,2.906 1.783,4.521 2.725,5.09 3.94,5.33 4.251,5.381 4.715,5.461 5.651,5.08 5.891,4.564 6.064,4.188 6.091,3.691 5.592,2.709 4.531,0.627 2.639,-0.143 1.969,-0.146 1.301,-0.152 0,0 0,0" />
      </g>
      <g
         transform="matrix(0.35277777,0,0,-0.35277777,-107.47909,316.66539)"
         id="g19840">
        <path
           inkscape:connector-curvature="0"
           id="path19842"
           style="fill:#e8c5ac;fill-opacity:1;fill-rule:nonzero;stroke:none"
           d="m 0,0 -1.455,-0.654 -3.46,1.925 -1.449,2.846 -1.728,0.852 c 0,0 -3.061,2.543 -1.144,3.42 0.669,0.308 1.586,0.42 1.586,0.42 0.889,0.367 2.887,1.259 3.906,1.615 2.35,0.81 3.634,-2.203 3.634,-2.203 L 1.39,5.404 C 2.243,3.83 2.289,1.598 0,0" />
      </g>
      <g
         transform="matrix(0.35277777,0,0,-0.35277777,-106.04353,316.78596)"
         id="g19844">
        <path
           inkscape:connector-curvature="0"
           id="path19846"
           style="fill:#e8c5ac;fill-opacity:1;fill-rule:nonzero;stroke:none"
           d="m 0,0 -3.104,3.666 -4.001,-3.854 1.718,-1.957 z" />
      </g>
      <g
         transform="matrix(0.35277777,0,0,-0.35277777,-108.41857,317.17185)"
         id="g19848">
        <path
           inkscape:connector-curvature="0"
           id="path19850"
           style="fill:#f5f5f5;fill-opacity:1;fill-rule:nonzero;stroke:none"
           d="m 0,0 c 0,0 1.371,-1.078 4.322,0.842 1.57,1.015 1.408,1.084 1.873,1.982 0.348,0.688 0.263,1.34 0.263,1.34 L 7.32,2.908 c 0,0 0.856,-0.89 -1.183,-2.629 C 3.121,-2.293 0.834,-0.975 0.834,-0.975 Z" />
      </g>
      <g
         transform="matrix(0.35277777,0,0,-0.35277777,-108.03962,315.86682)"
         id="g19852">
        <path
           inkscape:connector-curvature="0"
           id="path19854"
           style="fill:#e8c5ac;fill-opacity:1;fill-rule:nonzero;stroke:none"
           d="M 0,0 C -0.729,1.428 -2.992,1.6 -4.196,1.072 -4.619,0.895 -5.5,5.016 -7.164,4.143 c 0,0 0.141,-2.672 0.127,-3.309 -0.006,-0.145 0.023,-1.654 1.567,-2.404 3.423,-1.666 3.902,-2.088 5.105,-1.567 C 0.84,-2.619 0.729,-1.432 0,0" />
      </g>
      <g
         transform="matrix(0.35277777,0,0,-0.35277777,-107.66204,336.22939)"
         id="g19856">
        <path
           inkscape:connector-curvature="0"
           id="path19858"
           style="fill:#141413;fill-opacity:1;fill-rule:nonzero;stroke:none"
           d="m 0,0 c 0,0 -2.973,2.842 -9.021,3.045 -6.051,0.199 -7.17,0.48 -7.17,0.48 l 2.118,31.834 c 0,0 12.749,-24.255 13.588,-28.158 C 0.352,3.295 0,0 0,0" />
      </g>
      <g
         transform="matrix(0.35277777,0,0,-0.35277777,-104.68135,358.60119)"
         id="g19860">
        <path
           inkscape:connector-curvature="0"
           id="path19862"
           style="fill:#141413;fill-opacity:1;fill-rule:nonzero;stroke:none"
           d="m 0,0 2.303,-2.43 c 0,0 10.986,-2.863 11.679,-3.017 0.456,-0.106 1.25,-0.555 1.329,-1.356 0.033,-0.32 0.043,-0.515 -0.118,-0.836 -0.579,-1.101 -1.998,-1.664 -3.295,-2.156 -3.529,-1.332 -14.509,-0.34 -14.877,-0.121 0,0 -1.121,0.096 -1.32,-0.475 -0.072,-0.205 0.076,-0.949 0.059,-0.963 l -5.328,0.93 c -0.209,0.07 -0.823,1.442 -0.768,3.225 l -0.323,4.66 z" />
      </g>
      <g
         transform="matrix(0.35277777,0,0,-0.35277777,-99.334543,361.13745)"
         id="g19864">
        <path
           inkscape:connector-curvature="0"
           id="path19866"
           style="fill:#282827;fill-opacity:1;fill-rule:nonzero;stroke:none"
           d="m 0,0 c -0.773,-1.275 -2.102,-1.881 -3.412,-2.32 -4.281,-1.44 -14.864,-0.231 -14.864,-0.231 -0.896,0 -1.22,-0.353 -1.218,-0.885 l 0.098,-0.728 c 0.039,0.014 1.131,0.963 1.111,0.963 0,0 9.956,-1.262 14.222,-0.244 1.342,0.332 3.545,1.431 4.184,2.793 C 0.236,-0.422 0.332,0.143 0.117,0.5 0.105,0.43 0.033,0.059 0,0" />
      </g>
      <g
         transform="matrix(0.35277777,0,0,-0.35277777,-112.0266,335.76571)"
         id="g19868">
        <path
           inkscape:connector-curvature="0"
           id="path19870"
           style="fill:#14353a;fill-opacity:1;fill-rule:nonzero;stroke:none"
           d="m 0,0 c 0,0 11.688,-24.223 14.623,-33.43 2.51,-7.875 7.728,-32.752 7.728,-32.752 0,-2.115 -0.967,-2.752 -1.153,-2.918 -2.039,-1.83 -10.285,-3.195 -11.349,-0.461 0,0 -5.644,22.987 -8.338,29.959 -3.858,9.998 -19.276,35.473 -19.276,35.473 z" />
      </g>
      <g
         transform="matrix(0.35277777,0,0,-0.35277777,-114.32276,335.80016)"
         id="g19872">
        <path
           inkscape:connector-curvature="0"
           id="path19874"
           style="fill:#3b6872;fill-opacity:1;fill-rule:nonzero;stroke:none"
           d="m 0,0 c 0,0 -4.031,-31.441 -5.135,-42.371 -0.865,-8.58 -4.118,-34.326 -4.118,-34.326 -0.204,-1.242 -0.845,-1.594 -1.964,-1.838 -6.451,-1.406 -8.98,0.933 -8.98,0.933 -1.188,0.645 -1.089,1.637 -1.125,2.221 0,0 1.11,25.006 1.195,34.061 0.164,17.515 1.286,42.576 1.286,42.576 z" />
      </g>
      <g
         transform="matrix(0.35277777,0,0,-0.35277777,-119.73864,322.14586)"
         id="g19876">
        <path
           inkscape:connector-curvature="0"
           id="path19878"
           style="fill:#fcaf03;fill-opacity:1;fill-rule:nonzero;stroke:none"
           d="M 0,0 C 0,0 1.63,8.484 4.081,9.619 6.539,10.754 15.11,8.658 15.11,8.658 c 0,0 5.308,-10.381 5.39,-11.017 0.081,-0.641 2.454,-2.518 3.495,-31.672 0.127,-3.574 -0.506,-6.315 -1.278,-7.149 -8.17,-8.806 -26.166,-2.425 -26.166,-2.425 z" />
      </g>
      <g
         transform="matrix(0.35277777,0,0,-0.35277777,-126.15807,338.92211)"
         id="g19880">
        <path
           inkscape:connector-curvature="0"
           id="path19882"
           style="fill:#480dba;fill-opacity:1;fill-rule:nonzero;stroke:none"
           d="m 0,0 c 0,0 4.267,14.783 5.519,20.797 1.012,4.881 1.938,15.641 1.938,15.641 0,0 -11.171,23.037 -12.882,29.271 -2.832,10.32 -3.439,38.445 -1.417,38.645 1.028,0.103 1.822,-1.008 8.296,-1.008 0.81,0 0.201,-22.867 3.237,-30.151 3.864,-9.273 7.286,-13.353 9.308,-14.365 1.304,-0.652 10.251,-1.519 10.251,-1.519 0,0 -6.706,-5.79 -4.316,-9.928 1.048,-1.807 3.459,-10.93 2.017,-24.512 C 21.342,17.125 19.178,5.762 19.178,5.762 17.563,-1.844 15.54,-3.193 14.458,-3.734 11.681,-5.111 9.254,-4.166 7.854,-3.512 3.722,-1.59 -0.119,0.441 0,0" />
      </g>
      <g
         transform="matrix(0.35277777,0,0,-0.35277777,-114.10588,322.05408)"
         id="g19884">
        <path
           inkscape:connector-curvature="0"
           id="path19886"
           style="fill:#480dba;fill-opacity:1;fill-rule:nonzero;stroke:none"
           d="m 0,0 c -1.674,3.375 -4.006,8.977 -6.27,11.182 -2.025,1.974 -4.05,0.697 -4.673,1.308 1.144,0.395 9.896,1.141 11.156,1.1 3.582,-0.123 6.17,-7.926 9.715,-16.903 3.56,-9.001 9.324,-32.769 9.324,-32.769 0.17,-1.293 0.25,-2.834 -0.986,-4.1 0,0 -3.245,-2.429 -5.25,-2.783 0,0 -4.392,25.557 -13.016,42.965" />
      </g>
      <g
         transform="matrix(0.35277777,0,0,-0.35277777,-114.78716,319.60269)"
         id="g19888">
        <path
           inkscape:connector-curvature="0"
           id="path19890"
           style="fill:#7a797a;fill-opacity:1;fill-rule:nonzero;stroke:none"
           d="m 0,0 -2.729,3.576 c 0,0 1.108,1.195 1.838,0.883 1.229,-0.52 4.359,-3.842 4.359,-3.842 l 3.95,-4.222 c 1.217,-1.299 1.899,-2.403 1.355,-4.163 l -1.115,-2.925 3.235,-2.811 c 1.063,-0.625 1.789,-2.158 1.748,-4.146 l 0.584,-12.67 c 0,0 -5.202,14.416 -6.669,17.914 C 3.262,-4.543 0,0 0,0" />
      </g>
      <g
         transform="matrix(0.35277777,0,0,-0.35277777,-115.4924,321.17299)"
         id="g19892">
        <path
           inkscape:connector-curvature="0"
           id="path19894"
           style="fill:#e8c5ac;fill-opacity:1;fill-rule:nonzero;stroke:none"
           d="m 0,0 c -2.055,-2.18 -5.72,-1.246 -8.841,1.295 l -2.35,14.48 10.536,-1.337 1.638,-9.399 C 0.983,5.039 2.028,2.15 0,0" />
      </g>
      <g
         transform="matrix(0.35277777,0,0,-0.35277777,-116.49319,313.12661)"
         id="g19896">
        <path
           inkscape:connector-curvature="0"
           id="path19898"
           style="fill:#282827;fill-opacity:1;fill-rule:nonzero;stroke:none"
           d="M 0,0 C -0.08,0.012 -0.1,0.16 -0.03,0.23 L 1.502,1.783 C 1.809,2.096 2.188,2.227 2.274,2.236 L 7.561,1.199 C 7.853,1.121 7.24,1.336 7.605,1.119 L 7.789,0.57 C 7.787,0.535 7.76,0.51 7.739,0.52 L 2.35,1.576 C 2.167,1.607 1.98,1.541 1.828,1.385 L 0.57,0.115 C 0.455,-0.004 0.31,-0.059 0.172,-0.033 Z" />
      </g>
      <g
         transform="matrix(0.35277777,0,0,-0.35277777,-117.75684,310.4236)"
         id="g19900">
        <path
           inkscape:connector-curvature="0"
           id="path19902"
           style="fill:#ffe1cc;fill-opacity:1;fill-rule:nonzero;stroke:none"
           d="m 0,0 v -0.004 l -8.016,-2.297 3.965,-14.513 c 0.385,-0.963 0.6,-1.874 1.002,-2.666 0.439,-0.875 1.1,-1.614 2.467,-2.147 0,0 3.312,-0.584 5.399,-0.738 1.245,-0.09 3.009,0.166 4.886,1.197 1.453,0.799 1.996,2.42 1.499,5.148 C 11.16,-15.801 8.314,1.516 8.314,1.516 Z" />
      </g>
      <g
         transform="matrix(0.35277777,0,0,-0.35277777,-120.36719,315.70283)"
         id="g19904">
        <path
           inkscape:connector-curvature="0"
           id="path19906"
           style="fill:#282827;fill-opacity:1;fill-rule:nonzero;stroke:none"
           d="M 0,0 C -0.077,0.006 -0.108,0.232 -0.048,0.305 L 1.74,4.08 c 0.441,0.822 1.364,0.9 1.722,0.867 L 8.175,4.311 C 8.199,4.309 8.218,4.273 8.216,4.24 L 8.089,3.686 C 8.083,3.654 8.067,3.631 8.042,3.631 L 3.749,4.254 C 3.569,4.271 2.469,4.172 2.22,3.441 L 0.705,0.158 C 0.603,0.031 0.46,-0.035 0.328,-0.029 Z" />
      </g>
      <g
         transform="matrix(0.35277777,0,0,-0.35277777,-114.92912,313.6344)"
         id="g19908">
        <path
           inkscape:connector-curvature="0"
           id="path19910"
           style="fill:#282827;fill-opacity:1;fill-rule:nonzero;stroke:none"
           d="m 0,0 c 0,0 0.121,-0.258 -0.114,-0.307 -0.124,-0.025 -0.312,0.188 -0.638,0.036 -0.613,-0.28 -0.642,-0.616 -0.816,-0.741 -0.174,-0.121 -0.235,0.242 -0.235,0.242 0,0 -0.09,0.692 0.819,1.049 C -0.118,0.615 0,0 0,0" />
      </g>
      <g
         transform="matrix(0.35277777,0,0,-0.35277777,-113.73779,312.64293)"
         id="g19912">
        <path
           inkscape:connector-curvature="0"
           id="path19914"
           style="fill:#282827;fill-opacity:1;fill-rule:nonzero;stroke:none"
           d="M 0,0 C -0.023,0.664 -0.188,0.814 -0.238,0.846 -0.33,0.91 -0.486,0.859 -0.592,0.801 L -2.377,-0.197 C -2.447,-0.229 -2.478,-0.238 -2.512,-0.26 -2.621,-0.314 -3.58,-0.84 -3.506,-1.738 l 0.035,-0.512 c 0.01,-0.162 0.016,-0.271 0.035,-0.438 0.051,-0.375 0.167,-0.626 0.352,-0.746 0.262,-0.168 1.051,-0.279 1.18,-0.23 0,0 0.685,0.383 0.89,0.545 1,0.789 1.072,2.035 1.068,2.047 C 0.054,-1.061 0.037,-0.9 0,0" />
      </g>
      <g
         transform="matrix(0.35277777,0,0,-0.35277777,-117.0437,315.0531)"
         id="g19916">
        <path
           inkscape:connector-curvature="0"
           id="path19918"
           style="fill:#282827;fill-opacity:1;fill-rule:nonzero;stroke:none"
           d="m 0,0 c 0.35,-0.094 0.666,-0.111 0.672,-0.111 0.004,0 0.01,-0.002 0.01,-0.002 C 0.439,-0.125 0.211,-0.094 0,0 M 3.953,4.736 C 3.453,5.066 2.572,4.684 2.523,4.654 L -0.286,3.445 -1.811,2.76 C -2.275,2.52 -2.184,2.375 -1.932,1.506 c 0.1,-0.338 0.835,-1.408 1.414,-1.813 0.678,-0.478 1.587,-0.24 1.608,-0.226 0.066,0.004 0.426,0.054 1.5,0.58 L 2.663,0.082 C 3.904,0.725 4.225,1.861 4.238,1.922 4.256,1.961 4.58,2.846 4.57,3.52 4.559,4.15 4.299,4.512 3.953,4.736" />
      </g>
      <g
         transform="matrix(0.35277777,0,0,-0.35277777,-114.57701,312.82411)"
         id="g19920">
        <path
           inkscape:connector-curvature="0"
           id="path19922"
           style="fill:#282827;fill-opacity:1;fill-rule:nonzero;stroke:none"
           d="m 0,0 c -0.095,-0.043 -0.84,-0.547 -0.863,-1.279 l 0.033,-0.446 c 0.01,-0.146 0.014,-0.234 0.033,-0.379 0.043,-0.324 0.096,-0.623 0.402,-0.744 0.522,-0.215 1.131,0.2 1.131,0.2 0,0 1.557,0.513 1.506,2.847 C 2.225,0.922 2.119,0.898 2.047,0.963 1.936,1.057 1.756,0.973 1.664,0.928 L 0.115,0.051 C 0.055,0.027 0.028,0.018 0,0 M 1.209,-3.039 0.676,-3.291 c -0.087,-0.029 -0.955,-0.398 -1.5,-0.051 -0.34,0.219 -0.557,0.602 -0.627,1.158 -0.019,0.166 -0.026,0.266 -0.035,0.426 l -0.035,0.434 c -0.094,1.207 1.001,1.838 1.223,1.949 0.056,0.031 0.103,0.053 0.136,0.066 L 1.68,1.652 C 1.887,1.754 2.279,1.98 2.477,1.863 2.814,1.666 2.74,1.207 2.751,0.619 2.767,0.018 2.74,-0.232 2.736,-0.25 2.747,-0.299 2.705,-2.266 1.209,-3.039" />
      </g>
      <g
         transform="matrix(0.35277777,0,0,-0.35277777,-119.66869,313.9355)"
         id="g19924">
        <path
           inkscape:connector-curvature="0"
           id="path19926"
           style="fill:#ffe1cc;fill-opacity:1;fill-rule:nonzero;stroke:none"
           d="m 0,0 c 2.078,0.584 3.109,-1.555 3.109,-1.555 l 1.175,-4.174 c 0,0 0.157,-0.933 -0.579,-1.316 C 2.589,-7.619 1.79,-6.732 0.937,-5.74 0.889,-5.689 -0.198,-4.107 -0.266,-4.021 -1.243,-2.762 -1.967,-0.555 0,0" />
      </g>
      <g
         transform="matrix(0.35277777,0,0,-0.35277777,-118.98398,318.39624)"
         id="g19928">
        <path
           inkscape:connector-curvature="0"
           id="path19930"
           style="fill:#7a797a;fill-opacity:1;fill-rule:nonzero;stroke:none"
           d="m 0,0 -2.16,-1.965 c 0,0 -0.686,-0.894 -0.785,-1.101 -0.554,-1.141 -0.394,-2.83 -0.394,-2.83 l -0.08,-8.532 c 0.059,-1.381 0.391,-1.654 1.297,-2.199 l 2.742,-1.342 -2.78,-1.588 c -0.887,-0.355 -1.834,-1.511 -0.659,-3.964 l 4.403,-12.733 c 0,0 0.995,12.58 0.767,19.906 C 2.156,-10.246 0,0 0,0" />
      </g>
      <g
         transform="matrix(0.35277777,0,0,-0.35277777,-115.67531,309.5554)"
         id="g19932">
        <path
           inkscape:connector-curvature="0"
           id="path19934"
           style="fill:#6d2f06;fill-opacity:1;fill-rule:nonzero;stroke:none"
           d="m 0,0 c 0,0 -4.992,1.348 -8.5,0 -3.675,-1.414 -6.256,-2.813 -7.014,-5.26 -2.833,-9.174 3.777,-15.109 3.777,-15.109 0,0 2.563,-0.404 5.339,6.707 1.072,2.748 1.338,4.283 1.929,4.512 0.65,0.244 -1.142,-5.84 -1.601,-6.766 -0.112,-0.215 3.976,4.125 5.933,7.15 1.713,2.647 4.049,5.395 3.778,6.608 C 3.257,-0.426 1.387,-0.52 0,0" />
      </g>
    </g>
  </g>
</svg>
