<?xml version="1.0" encoding="UTF-8" standalone="no"?>
<!-- Created with Inkscape (http://www.inkscape.org/) -->

<svg
   xmlns:dc="http://purl.org/dc/elements/1.1/"
   xmlns:cc="http://creativecommons.org/ns#"
   xmlns:rdf="http://www.w3.org/1999/02/22-rdf-syntax-ns#"
   xmlns:svg="http://www.w3.org/2000/svg"
   xmlns="http://www.w3.org/2000/svg"
   xmlns:sodipodi="http://sodipodi.sourceforge.net/DTD/sodipodi-0.dtd"
   xmlns:inkscape="http://www.inkscape.org/namespaces/inkscape"
   width="2.9048846mm"
   height="4.204309mm"
   viewBox="0 0 2.9048842 4.204309"
   version="1.1"
   id="svg45331"
   inkscape:version="0.92.2 (5c3e80d, 2017-08-06)"
   sodipodi:docname="people-casual-19.svg">
  <defs
     id="defs45325">
    <clipPath
       id="clipPath2864"
       clipPathUnits="userSpaceOnUse">
      <path
         inkscape:connector-curvature="0"
         id="path2862"
         d="m 1713.778,1928.833 c -0.536,-0.312 -0.927,-0.874 -1.106,-1.65 v 0 l 1.125,0.653 c 0.179,0.778 0.57,1.34 1.107,1.651 v 0 z" />
    </clipPath>
    <clipPath
       id="clipPath2848"
       clipPathUnits="userSpaceOnUse">
      <path
         inkscape:connector-curvature="0"
         id="path2846"
         d="M 0,2119.953 H 3253.108 V 0 H 0 Z" />
    </clipPath>
    <clipPath
       id="clipPath2836"
       clipPathUnits="userSpaceOnUse">
      <path
         inkscape:connector-curvature="0"
         id="path2834"
         d="m 1711.152,1926.674 v -0.651 c 0.308,-0.179 0.813,-0.18 1.126,0 v 0 0.651 c -0.315,-0.183 -0.82,-0.178 -1.129,0" />
    </clipPath>
    <clipPath
       id="clipPath2820"
       clipPathUnits="userSpaceOnUse">
      <path
         inkscape:connector-curvature="0"
         id="path2818"
         d="M 0,2119.953 H 3253.108 V 0 H 0 Z" />
    </clipPath>
    <clipPath
       id="clipPath2808"
       clipPathUnits="userSpaceOnUse">
      <path
         inkscape:connector-curvature="0"
         id="path2806"
         d="m 1710.148,1926.8 c 0,-0.121 0.077,-0.238 0.231,-0.325 v 0 0.65 c -0.156,0.087 -0.233,0.207 -0.233,0.324 v 0 -0.649 z" />
    </clipPath>
    <clipPath
       id="clipPath2796"
       clipPathUnits="userSpaceOnUse">
      <path
         inkscape:connector-curvature="0"
         id="path2794"
         d="m 1714.756,1928.103 v -0.65 c 0.158,0.09 0.237,0.211 0.237,0.331 v 0 0.65 c 0,-0.119 -0.078,-0.24 -0.236,-0.331" />
    </clipPath>
    <clipPath
       id="clipPath2784"
       clipPathUnits="userSpaceOnUse">
      <path
         inkscape:connector-curvature="0"
         id="path2782"
         d="M 0,2119.953 H 3253.108 V 0 H 0 Z" />
    </clipPath>
    <clipPath
       id="clipPath2772"
       clipPathUnits="userSpaceOnUse">
      <path
         inkscape:connector-curvature="0"
         id="path2770"
         d="m 1720.53,1921.188 10e-4,-0.65 c 0.309,-0.181 0.814,-0.181 1.128,0 v 0 0.65 c -0.316,-0.182 -0.821,-0.181 -1.129,0" />
    </clipPath>
    <clipPath
       id="clipPath2756"
       clipPathUnits="userSpaceOnUse">
      <path
         inkscape:connector-curvature="0"
         id="path2754"
         d="M 0,2119.953 H 3253.108 V 0 H 0 Z" />
    </clipPath>
    <clipPath
       id="clipPath2744"
       clipPathUnits="userSpaceOnUse">
      <path
         inkscape:connector-curvature="0"
         id="path2742"
         d="m 1719.524,1921.312 c 0,-0.119 0.08,-0.235 0.234,-0.324 v 0 0.65 c -0.154,0.089 -0.233,0.207 -0.233,0.324 v 0 -0.65 z" />
    </clipPath>
    <clipPath
       id="clipPath2732"
       clipPathUnits="userSpaceOnUse">
      <path
         inkscape:connector-curvature="0"
         id="path2730"
         d="m 1724.133,1922.619 v -0.654 c 0.158,0.094 0.238,0.212 0.238,0.331 v 0 0.65 c 0,-0.117 -0.08,-0.238 -0.238,-0.327" />
    </clipPath>
    <clipPath
       id="clipPath2536"
       clipPathUnits="userSpaceOnUse">
      <path
         inkscape:connector-curvature="0"
         id="path2534"
         d="m 1708.77,1889.11 h 53.56 v -38.31 h -53.56 z" />
    </clipPath>
    <clipPath
       id="clipPath3428"
       clipPathUnits="userSpaceOnUse">
      <path
         inkscape:connector-curvature="0"
         id="path3426"
         d="m 1819.231,1919.634 0.051,-0.722 c 0.167,0.114 0.248,0.253 0.238,0.383 v 0 l -0.048,0.721 c 0.01,-0.131 -0.071,-0.272 -0.241,-0.382" />
    </clipPath>
    <clipPath
       id="clipPath3440"
       clipPathUnits="userSpaceOnUse">
      <path
         inkscape:connector-curvature="0"
         id="path3438"
         d="m 1814.225,1917.859 c 0.01,-0.132 0.103,-0.255 0.282,-0.343 v 0 l -0.049,0.721 c -0.177,0.085 -0.273,0.212 -0.281,0.34 v 0 z" />
    </clipPath>
    <clipPath
       id="clipPath3452"
       clipPathUnits="userSpaceOnUse">
      <path
         inkscape:connector-curvature="0"
         id="path3450"
         d="M 0,2119.953 H 3253.108 V 0 H 0 Z" />
    </clipPath>
    <clipPath
       id="clipPath3468"
       clipPathUnits="userSpaceOnUse">
      <path
         inkscape:connector-curvature="0"
         id="path3466"
         d="m 1815.349,1917.792 0.046,-0.72 c 0.354,-0.177 0.915,-0.14 1.248,0.082 v 0 l -0.048,0.721 c -0.335,-0.223 -0.893,-0.259 -1.246,-0.083" />
    </clipPath>
    <clipPath
       id="clipPath3480"
       clipPathUnits="userSpaceOnUse">
      <path
         inkscape:connector-curvature="0"
         id="path3478"
         d="M 0,2119.953 H 3253.108 V 0 H 0 Z" />
    </clipPath>
    <clipPath
       id="clipPath3492"
       clipPathUnits="userSpaceOnUse">
      <path
         inkscape:connector-curvature="0"
         id="path3490"
         d="m 1808.461,1925.033 0.049,-0.719 c 0.167,0.112 0.245,0.25 0.238,0.383 v 0 l -0.049,0.719 c 0.01,-0.131 -0.07,-0.268 -0.238,-0.383" />
    </clipPath>
    <clipPath
       id="clipPath3504"
       clipPathUnits="userSpaceOnUse">
      <path
         inkscape:connector-curvature="0"
         id="path3502"
         d="m 1803.454,1923.259 c 0.01,-0.132 0.102,-0.258 0.279,-0.342 v 0 l -0.048,0.72 c -0.177,0.086 -0.273,0.214 -0.28,0.342 v 0 z" />
    </clipPath>
    <clipPath
       id="clipPath3516"
       clipPathUnits="userSpaceOnUse">
      <path
         inkscape:connector-curvature="0"
         id="path3514"
         d="M 0,2119.953 H 3253.108 V 0 H 0 Z" />
    </clipPath>
    <clipPath
       id="clipPath3532"
       clipPathUnits="userSpaceOnUse">
      <path
         inkscape:connector-curvature="0"
         id="path3530"
         d="m 1804.576,1923.193 0.047,-0.721 c 0.353,-0.175 0.915,-0.14 1.248,0.081 v 0 l -0.049,0.722 c -0.333,-0.223 -0.894,-0.258 -1.246,-0.082" />
    </clipPath>
    <clipPath
       id="clipPath3544"
       clipPathUnits="userSpaceOnUse">
      <path
         inkscape:connector-curvature="0"
         id="path3542"
         d="M 0,2119.953 H 3253.108 V 0 H 0 Z" />
    </clipPath>
    <clipPath
       id="clipPath3560"
       clipPathUnits="userSpaceOnUse">
      <path
         inkscape:connector-curvature="0"
         id="path3558"
         d="m 1807.327,1925.772 c -0.572,-0.383 -0.964,-1.034 -1.106,-1.907 v 0 l 1.197,0.803 c 0.144,0.873 0.537,1.525 1.109,1.907 v 0 z" />
    </clipPath>
    <clipPath
       id="clipPath3240"
       clipPathUnits="userSpaceOnUse">
      <path
         inkscape:connector-curvature="0"
         id="path3238"
         d="m 1804.45,1875.26 h 66.26 v -26.97 h -66.26 z" />
    </clipPath>
    <clipPath
       id="clipPath3596"
       clipPathUnits="userSpaceOnUse">
      <path
         inkscape:connector-curvature="0"
         id="path3594"
         d="m 1887.55,1874.88 h 68.5 v -28.2 h -68.5 z" />
    </clipPath>
    <clipPath
       id="clipPath3760"
       clipPathUnits="userSpaceOnUse">
      <path
         inkscape:connector-curvature="0"
         id="path3758"
         d="m 1940.709,1921.043 c -0.01,-0.134 0.073,-0.277 0.243,-0.394 v 0 l 0.052,0.743 c -0.176,0.111 -0.256,0.256 -0.246,0.388 v 0 z" />
    </clipPath>
    <clipPath
       id="clipPath3772"
       clipPathUnits="userSpaceOnUse">
      <path
         inkscape:connector-curvature="0"
         id="path3770"
         d="m 1945.896,1919.955 -0.048,-0.737 c 0.182,0.088 0.281,0.215 0.289,0.351 v 0 l 0.048,0.737 c -0.01,-0.134 -0.106,-0.261 -0.289,-0.351" />
    </clipPath>
    <clipPath
       id="clipPath3784"
       clipPathUnits="userSpaceOnUse">
      <path
         inkscape:connector-curvature="0"
         id="path3782"
         d="M 0,2119.953 H 3253.108 V 0 H 0 Z" />
    </clipPath>
    <clipPath
       id="clipPath3800"
       clipPathUnits="userSpaceOnUse">
      <path
         inkscape:connector-curvature="0"
         id="path3798"
         d="m 1943.658,1918.845 c 0.343,-0.226 0.914,-0.264 1.28,-0.084 v 0 l 0.047,0.741 c -0.361,-0.182 -0.936,-0.146 -1.28,0.084 v 0 z" />
    </clipPath>
    <clipPath
       id="clipPath3812"
       clipPathUnits="userSpaceOnUse">
      <path
         inkscape:connector-curvature="0"
         id="path3810"
         d="M 0,2119.953 H 3253.108 V 0 H 0 Z" />
    </clipPath>
    <clipPath
       id="clipPath3824"
       clipPathUnits="userSpaceOnUse">
      <path
         inkscape:connector-curvature="0"
         id="path3822"
         d="m 1951.754,1926.58 c -0.01,-0.136 0.071,-0.278 0.241,-0.392 v 0 l 0.052,0.737 c -0.174,0.117 -0.253,0.258 -0.245,0.391 v 0 z" />
    </clipPath>
    <clipPath
       id="clipPath3836"
       clipPathUnits="userSpaceOnUse">
      <path
         inkscape:connector-curvature="0"
         id="path3834"
         d="m 1956.943,1925.491 -0.049,-0.737 c 0.18,0.088 0.277,0.215 0.287,0.352 v 0 l 0.049,0.737 c -0.01,-0.132 -0.104,-0.262 -0.287,-0.352" />
    </clipPath>
    <clipPath
       id="clipPath3848"
       clipPathUnits="userSpaceOnUse">
      <path
         inkscape:connector-curvature="0"
         id="path3846"
         d="M 0,2119.953 H 3253.108 V 0 H 0 Z" />
    </clipPath>
    <clipPath
       id="clipPath3864"
       clipPathUnits="userSpaceOnUse">
      <path
         inkscape:connector-curvature="0"
         id="path3862"
         d="m 1954.703,1924.383 c 0.34,-0.229 0.916,-0.262 1.279,-0.086 v 0 l 0.049,0.743 c -0.361,-0.183 -0.938,-0.15 -1.279,0.081 v 0 z" />
    </clipPath>
    <clipPath
       id="clipPath3876"
       clipPathUnits="userSpaceOnUse">
      <path
         inkscape:connector-curvature="0"
         id="path3874"
         d="M 0,2119.953 H 3253.108 V 0 H 0 Z" />
    </clipPath>
    <clipPath
       id="clipPath3892"
       clipPathUnits="userSpaceOnUse">
      <path
         inkscape:connector-curvature="0"
         id="path3890"
         d="m 1953.117,1926.55 1.227,-0.822 c -0.145,0.891 -0.551,1.561 -1.133,1.955 v 0 l -1.232,0.823 c 0.588,-0.393 0.989,-1.061 1.138,-1.956" />
    </clipPath>
    <clipPath
       id="clipPath3948"
       clipPathUnits="userSpaceOnUse">
      <path
         inkscape:connector-curvature="0"
         id="path3946"
         d="m 2018.76,1870.93 h 70.11 v -23.75 h -70.11 z" />
    </clipPath>
    <clipPath
       id="clipPath4212"
       clipPathUnits="userSpaceOnUse">
      <path
         inkscape:connector-curvature="0"
         id="path4210"
         d="m 2154.433,1916.311 c 0,-0.141 0.087,-0.289 0.273,-0.405 v 0 l 0.028,0.784 c -0.187,0.117 -0.276,0.264 -0.271,0.407 v 0 z" />
    </clipPath>
    <clipPath
       id="clipPath4224"
       clipPathUnits="userSpaceOnUse">
      <path
         inkscape:connector-curvature="0"
         id="path4222"
         d="m 2159.973,1915.328 -0.03,-0.782 c 0.192,0.1 0.289,0.239 0.295,0.381 v 0 l 0.027,0.785 c 0,-0.142 -0.103,-0.28 -0.292,-0.384" />
    </clipPath>
    <clipPath
       id="clipPath4236"
       clipPathUnits="userSpaceOnUse">
      <path
         inkscape:connector-curvature="0"
         id="path4234"
         d="M 0,2119.953 H 3253.108 V 0 H 0 Z" />
    </clipPath>
    <clipPath
       id="clipPath4252"
       clipPathUnits="userSpaceOnUse">
      <path
         inkscape:connector-curvature="0"
         id="path4250"
         d="m 2157.634,1914.081 c 0.368,-0.23 0.978,-0.251 1.357,-0.046 v 0 l 0.029,0.783 c -0.377,-0.203 -0.988,-0.185 -1.36,0.049 v 0 z" />
    </clipPath>
    <clipPath
       id="clipPath4264"
       clipPathUnits="userSpaceOnUse">
      <path
         inkscape:connector-curvature="0"
         id="path4262"
         d="M 0,2119.953 H 3253.108 V 0 H 0 Z" />
    </clipPath>
    <clipPath
       id="clipPath4276"
       clipPathUnits="userSpaceOnUse">
      <path
         inkscape:connector-curvature="0"
         id="path4274"
         d="m 2165.961,1922.544 c 0,-0.146 0.086,-0.293 0.271,-0.409 v 0 l 0.032,0.784 c -0.188,0.117 -0.279,0.265 -0.274,0.408 v 0 z" />
    </clipPath>
    <clipPath
       id="clipPath4288"
       clipPathUnits="userSpaceOnUse">
      <path
         inkscape:connector-curvature="0"
         id="path4286"
         d="m 2171.5,1921.561 -0.028,-0.785 c 0.189,0.101 0.287,0.239 0.293,0.379 v 0 l 0.028,0.787 c 0,-0.142 -0.102,-0.281 -0.293,-0.381" />
    </clipPath>
    <clipPath
       id="clipPath4300"
       clipPathUnits="userSpaceOnUse">
      <path
         inkscape:connector-curvature="0"
         id="path4298"
         d="M 0,2119.953 H 3253.108 V 0 H 0 Z" />
    </clipPath>
    <clipPath
       id="clipPath4316"
       clipPathUnits="userSpaceOnUse">
      <path
         inkscape:connector-curvature="0"
         id="path4314"
         d="m 2169.16,1920.31 c 0.37,-0.229 0.979,-0.249 1.359,-0.045 v 0 l 0.03,0.784 c -0.379,-0.201 -0.99,-0.186 -1.36,0.046 v 0 z" />
    </clipPath>
    <clipPath
       id="clipPath4328"
       clipPathUnits="userSpaceOnUse">
      <path
         inkscape:connector-curvature="0"
         id="path4326"
         d="M 0,2119.953 H 3253.108 V 0 H 0 Z" />
    </clipPath>
    <clipPath
       id="clipPath4344"
       clipPathUnits="userSpaceOnUse">
      <path
         inkscape:connector-curvature="0"
         id="path4342"
         d="m 2167.406,1922.556 1.331,-0.832 c -0.186,0.942 -0.633,1.637 -1.266,2.036 v 0 l -1.332,0.833 c 0.636,-0.396 1.084,-1.091 1.267,-2.037" />
    </clipPath>
    <clipPath
       id="clipPath4598"
       clipPathUnits="userSpaceOnUse">
      <path
         inkscape:connector-curvature="0"
         id="path4596"
         d="m 2331.633,1939.514 c 0,-0.142 0.1,-0.287 0.296,-0.396 v 0 0.783 c -0.196,0.107 -0.292,0.246 -0.292,0.387 v 0 -0.774 z" />
    </clipPath>
    <clipPath
       id="clipPath4610"
       clipPathUnits="userSpaceOnUse">
      <path
         inkscape:connector-curvature="0"
         id="path4608"
         d="m 2337.17,1938.719 v -0.771 c 0.189,0.099 0.285,0.249 0.285,0.379 v 0 0.787 c 0,-0.14 -0.091,-0.287 -0.283,-0.395" />
    </clipPath>
    <clipPath
       id="clipPath4622"
       clipPathUnits="userSpaceOnUse">
      <path
         inkscape:connector-curvature="0"
         id="path4620"
         d="M 0,2119.953 H 3253.108 V 0 H 0 Z" />
    </clipPath>
    <clipPath
       id="clipPath4638"
       clipPathUnits="userSpaceOnUse">
      <path
         inkscape:connector-curvature="0"
         id="path4636"
         d="m 2334.888,1938.187 v -0.785 c 0.382,-0.217 0.981,-0.217 1.349,0 v 0 0.785 c -0.368,-0.217 -0.963,-0.217 -1.349,0" />
    </clipPath>
    <clipPath
       id="clipPath4650"
       clipPathUnits="userSpaceOnUse">
      <path
         inkscape:connector-curvature="0"
         id="path4648"
         d="M 0,2119.953 H 3253.108 V 0 H 0 Z" />
    </clipPath>
    <clipPath
       id="clipPath4662"
       clipPathUnits="userSpaceOnUse">
      <path
         inkscape:connector-curvature="0"
         id="path4660"
         d="m 2342.868,1946.09 c 0,-0.141 0.101,-0.294 0.291,-0.401 v 0 l 0.01,0.777 c -0.195,0.113 -0.291,0.255 -0.291,0.401 v 0 z" />
    </clipPath>
    <clipPath
       id="clipPath4674"
       clipPathUnits="userSpaceOnUse">
      <path
         inkscape:connector-curvature="0"
         id="path4672"
         d="m 2348.401,1945.298 v -0.782 c 0.182,0.104 0.277,0.25 0.277,0.39 v 0 l 0.01,0.781 c 0,-0.143 -0.095,-0.282 -0.282,-0.389" />
    </clipPath>
    <clipPath
       id="clipPath4686"
       clipPathUnits="userSpaceOnUse">
      <path
         inkscape:connector-curvature="0"
         id="path4684"
         d="M 0,2119.953 H 3253.108 V 0 H 0 Z" />
    </clipPath>
    <clipPath
       id="clipPath4702"
       clipPathUnits="userSpaceOnUse">
      <path
         inkscape:connector-curvature="0"
         id="path4700"
         d="m 2346.127,1944.756 v -0.778 c 0.376,-0.212 0.982,-0.212 1.348,0 v 0 0.778 c -0.366,-0.213 -0.972,-0.213 -1.348,0" />
    </clipPath>
    <clipPath
       id="clipPath4714"
       clipPathUnits="userSpaceOnUse">
      <path
         inkscape:connector-curvature="0"
         id="path4712"
         d="M 0,2119.953 H 3253.108 V 0 H 0 Z" />
    </clipPath>
    <clipPath
       id="clipPath4730"
       clipPathUnits="userSpaceOnUse">
      <path
         inkscape:connector-curvature="0"
         id="path4728"
         d="m 2343.05,1948.089 c -0.023,0.013 -0.045,0.026 -0.068,0.038 v 0 z m 1.257,-1.939 1.349,-0.782 c -0.21,0.926 -0.683,1.603 -1.326,1.976 v 0 l -1.28,0.745 c 0.612,-0.371 1.048,-1.041 1.257,-1.939" />
    </clipPath>
    <clipPath
       id="clipPath4742"
       clipPathUnits="userSpaceOnUse">
      <path
         inkscape:connector-curvature="0"
         id="path4740"
         d="M 0,2119.953 H 3253.108 V 0 H 0 Z" />
    </clipPath>
    <clipPath
       id="clipPath4918"
       clipPathUnits="userSpaceOnUse">
      <path
         inkscape:connector-curvature="0"
         id="path4916"
         d="m 2276.169,1866.541 c 0,-0.151 0.1,-0.291 0.285,-0.401 v 0 0.785 c -0.19,0.105 -0.286,0.259 -0.286,0.394 v 0 -0.778 z" />
    </clipPath>
    <clipPath
       id="clipPath4930"
       clipPathUnits="userSpaceOnUse">
      <path
         inkscape:connector-curvature="0"
         id="path4928"
         d="m 2281.734,1865.741 -0.01,-0.776 c 0.185,0.103 0.278,0.244 0.278,0.385 v 0 0.786 c 0,-0.141 -0.096,-0.281 -0.276,-0.395" />
    </clipPath>
    <clipPath
       id="clipPath4942"
       clipPathUnits="userSpaceOnUse">
      <path
         inkscape:connector-curvature="0"
         id="path4940"
         d="M 0,2119.953 H 3253.108 V 0 H 0 Z" />
    </clipPath>
    <clipPath
       id="clipPath4958"
       clipPathUnits="userSpaceOnUse">
      <path
         inkscape:connector-curvature="0"
         id="path4956"
         d="m 2279.442,1865.203 v -0.782 c 0.372,-0.219 0.983,-0.219 1.351,0 v 0 0.782 c -0.372,-0.221 -0.983,-0.221 -1.355,0" />
    </clipPath>
    <clipPath
       id="clipPath4970"
       clipPathUnits="userSpaceOnUse">
      <path
         inkscape:connector-curvature="0"
         id="path4968"
         d="M 0,2119.953 H 3253.108 V 0 H 0 Z" />
    </clipPath>
    <clipPath
       id="clipPath4982"
       clipPathUnits="userSpaceOnUse">
      <path
         inkscape:connector-curvature="0"
         id="path4980"
         d="m 2287.467,1873.148 c 0,-0.144 0.095,-0.29 0.287,-0.404 v 0 0.786 c -0.191,0.114 -0.29,0.258 -0.29,0.404 v 0 -0.786 z" />
    </clipPath>
    <clipPath
       id="clipPath4994"
       clipPathUnits="userSpaceOnUse">
      <path
         inkscape:connector-curvature="0"
         id="path4992"
         d="m 2293.032,1872.36 v -0.782 c 0.191,0.096 0.282,0.241 0.282,0.378 v 0 0.788 c 0,-0.14 -0.094,-0.281 -0.281,-0.384" />
    </clipPath>
    <clipPath
       id="clipPath5006"
       clipPathUnits="userSpaceOnUse">
      <path
         inkscape:connector-curvature="0"
         id="path5004"
         d="M 0,2119.953 H 3253.108 V 0 H 0 Z" />
    </clipPath>
    <clipPath
       id="clipPath5022"
       clipPathUnits="userSpaceOnUse">
      <path
         inkscape:connector-curvature="0"
         id="path5020"
         d="m 2290.745,1871.81 -0.01,-0.78 c 0.377,-0.22 0.986,-0.214 1.353,0 v 0 0.78 c -0.371,-0.212 -0.98,-0.212 -1.351,0" />
    </clipPath>
    <clipPath
       id="clipPath5034"
       clipPathUnits="userSpaceOnUse">
      <path
         inkscape:connector-curvature="0"
         id="path5032"
         d="M 0,2119.953 H 3253.108 V 0 H 0 Z" />
    </clipPath>
    <clipPath
       id="clipPath5050"
       clipPathUnits="userSpaceOnUse">
      <path
         inkscape:connector-curvature="0"
         id="path5048"
         d="m 2288.91,1873.212 1.359,-0.784 c -0.216,0.934 -0.691,1.61 -1.337,1.987 v 0 l -1.356,0.791 c 0.652,-0.377 1.121,-1.054 1.334,-1.994" />
    </clipPath>
    <clipPath
       id="clipPath4408"
       clipPathUnits="userSpaceOnUse">
      <path
         inkscape:connector-curvature="0"
         id="path4406"
         d="m 2301.08,1906.05 h 45.97 v -31.57 h -45.97 z" />
    </clipPath>
    <clipPath
       id="clipPath4392"
       clipPathUnits="userSpaceOnUse">
      <path
         inkscape:connector-curvature="0"
         id="path4390"
         d="m 2227.58,1871.71 h 52.38 v -32.03 h -52.38 z" />
    </clipPath>
    <clipPath
       id="clipPath5114"
       clipPathUnits="userSpaceOnUse">
      <path
         inkscape:connector-curvature="0"
         id="path5112"
         d="m 2417.33,1884.9 h 51.88 v -27.05 h -51.88 z" />
    </clipPath>
    <clipPath
       id="clipPath5554"
       clipPathUnits="userSpaceOnUse">
      <path
         inkscape:connector-curvature="0"
         id="path5552"
         d="m 2532.68,1877.97 h 61.16 v -27.88 h -61.16 z" />
    </clipPath>
    <clipPath
       id="clipPath5662"
       clipPathUnits="userSpaceOnUse">
      <path
         inkscape:connector-curvature="0"
         id="path5660"
         d="m 2652.02,1878.72 h 75.96 v -28.55 h -75.96 z" />
    </clipPath>
    <clipPath
       id="clipPath5782"
       clipPathUnits="userSpaceOnUse">
      <path
         inkscape:connector-curvature="0"
         id="path5780"
         d="m 2686.34,2040.48 h 6.76 v -5.02 h -6.76 z" />
    </clipPath>
    <clipPath
       id="clipPath5454"
       clipPathUnits="userSpaceOnUse">
      <path
         inkscape:connector-curvature="0"
         id="path5452"
         d="m 2763.78,1887.52 h 61.17 v -27.89 h -61.17 z" />
    </clipPath>
    <clipPath
       id="clipPath5226"
       clipPathUnits="userSpaceOnUse">
      <path
         inkscape:connector-curvature="0"
         id="path5224"
         d="m 2874.06,1879.83 h 115.04 v -37.41 h -115.04 z" />
    </clipPath>
    <clipPath
       id="clipPath5266"
       clipPathUnits="userSpaceOnUse">
      <path
         inkscape:connector-curvature="0"
         id="path5264"
         d="m 2898.47,1905.023 c -0.019,-0.014 -0.036,-0.025 -0.058,-0.038 v 0 c -0.579,-0.382 -0.588,-1.091 -0.535,-1.501 v 0 l 39.797,23.128 c -0.051,0.406 -0.042,1.119 0.537,1.502 v 0 c 0.018,0.012 0.037,0.024 0.058,0.036 v 0 c -13.266,-7.711 -26.531,-15.418 -39.799,-23.127" />
    </clipPath>
    <clipPath
       id="clipPath3000"
       clipPathUnits="userSpaceOnUse">
      <path
         inkscape:connector-curvature="0"
         id="path2998"
         d="m 3070.44,1903.77 h 111.77 v -40.19 h -111.77 z" />
    </clipPath>
    <clipPath
       id="clipPath6042"
       clipPathUnits="userSpaceOnUse">
      <path
         inkscape:connector-curvature="0"
         id="path6040"
         d="m 409.323,1548.74 h 49.951 v -25.11 h -49.951 z" />
    </clipPath>
    <clipPath
       id="clipPath5930"
       clipPathUnits="userSpaceOnUse">
      <path
         inkscape:connector-curvature="0"
         id="path5928"
         d="m 516.004,1548.66 h 54.751 v -25.03 h -54.751 z" />
    </clipPath>
    <clipPath
       id="clipPath6142"
       clipPathUnits="userSpaceOnUse">
      <path
         inkscape:connector-curvature="0"
         id="path6140"
         d="m 636.118,1542.78 h 45.362 v -19.15 h -45.362 z" />
    </clipPath>
    <clipPath
       id="clipPath6318"
       clipPathUnits="userSpaceOnUse">
      <path
         inkscape:connector-curvature="0"
         id="path6316"
         d="m 763.75,1602.23 h 22.211 v -7.49 H 763.75 Z" />
    </clipPath>
    <clipPath
       id="clipPath6242"
       clipPathUnits="userSpaceOnUse">
      <path
         inkscape:connector-curvature="0"
         id="path6240"
         d="m 749.178,1542.78 h 45.362 v -19.15 h -45.362 z" />
    </clipPath>
    <clipPath
       id="clipPath6358"
       clipPathUnits="userSpaceOnUse">
      <path
         inkscape:connector-curvature="0"
         id="path6356"
         d="m 859.142,1541.98 h 55.33 v -18.35 h -55.33 z" />
    </clipPath>
    <clipPath
       id="clipPath6562"
       clipPathUnits="userSpaceOnUse">
      <path
         inkscape:connector-curvature="0"
         id="path6560"
         d="m 972.921,1548.99 h 50.329 v -25.36 h -50.329 z" />
    </clipPath>
    <clipPath
       id="clipPath6898"
       clipPathUnits="userSpaceOnUse">
      <path
         inkscape:connector-curvature="0"
         id="path6896"
         d="m 1113.757,1660.871 0.977,-0.369 c -0.337,0.508 -0.215,1.396 0.271,1.968 v 0 l -0.978,0.368 c -0.484,-0.573 -0.605,-1.457 -0.27,-1.967" />
    </clipPath>
    <clipPath
       id="clipPath6882"
       clipPathUnits="userSpaceOnUse">
      <path
         inkscape:connector-curvature="0"
         id="path6880"
         d="M 0,2119.953 H 3253.108 V 0 H 0 Z" />
    </clipPath>
    <clipPath
       id="clipPath6870"
       clipPathUnits="userSpaceOnUse">
      <path
         inkscape:connector-curvature="0"
         id="path6868"
         d="m 1120.652,1670.681 0.975,-0.367 c 0.342,0.405 0.774,0.55 1.118,0.419 v 0 l -0.98,0.369 c -0.082,0.031 -0.168,0.047 -0.258,0.047 v 0 c -0.283,0 -0.596,-0.157 -0.855,-0.468" />
    </clipPath>
    <clipPath
       id="clipPath6858"
       clipPathUnits="userSpaceOnUse">
      <path
         inkscape:connector-curvature="0"
         id="path6856"
         d="m 1116.5,1656.939 0.98,-0.367 c -0.144,0.053 -0.271,0.155 -0.374,0.304 v 0 l -0.973,0.368 c 0.098,-0.15 0.226,-0.25 0.367,-0.305" />
    </clipPath>
    <clipPath
       id="clipPath6798"
       clipPathUnits="userSpaceOnUse">
      <path
         inkscape:connector-curvature="0"
         id="path6796"
         d="m 1085.74,1549.12 h 50.59 v -25.49 h -50.59 z" />
    </clipPath>
    <clipPath
       id="clipPath6450"
       clipPathUnits="userSpaceOnUse">
      <path
         inkscape:connector-curvature="0"
         id="path6448"
         d="m 1192.19,1544.97 h 58.91 v -21.34 h -58.91 z" />
    </clipPath>
    <clipPath
       id="clipPath7190"
       clipPathUnits="userSpaceOnUse">
      <path
         inkscape:connector-curvature="0"
         id="path7188"
         d="m 1415.1,1546.39 h 59.78 v -22.76 h -59.78 z" />
    </clipPath>
    <clipPath
       id="clipPath7322"
       clipPathUnits="userSpaceOnUse">
      <path
         inkscape:connector-curvature="0"
         id="path7320"
         d="m 1529.94,1551.96 h 66.67 v -28.33 h -66.67 z" />
    </clipPath>
    <clipPath
       id="clipPath7582"
       clipPathUnits="userSpaceOnUse">
      <path
         inkscape:connector-curvature="0"
         id="path7580"
         d="m 1678.67,1677.25 h 3.75 v -4.02 h -3.75 z" />
    </clipPath>
    <clipPath
       id="clipPath7566"
       clipPathUnits="userSpaceOnUse">
      <path
         inkscape:connector-curvature="0"
         id="path7564"
         d="m 1671.46,1674.81 h 5.24 v -3.89 h -5.24 z" />
    </clipPath>
    <clipPath
       id="clipPath7462"
       clipPathUnits="userSpaceOnUse">
      <path
         inkscape:connector-curvature="0"
         id="path7460"
         d="m 1648.93,1550.63 h 57.38 v -27 h -57.38 z" />
    </clipPath>
    <clipPath
       id="clipPath8174"
       clipPathUnits="userSpaceOnUse">
      <path
         inkscape:connector-curvature="0"
         id="path8172"
         d="m 1758.53,1552.63 h 42.25 v -29 h -42.25 z" />
    </clipPath>
    <clipPath
       id="clipPath8038"
       clipPathUnits="userSpaceOnUse">
      <path
         inkscape:connector-curvature="0"
         id="path8036"
         d="m 1882.656,1601.848 c 0,-0.062 0.041,-0.123 0.122,-0.172 v 0 l 10e-4,0.539 c -0.081,0.047 -0.122,0.108 -0.122,0.168 v 0 z" />
    </clipPath>
    <clipPath
       id="clipPath8006"
       clipPathUnits="userSpaceOnUse">
      <path
         inkscape:connector-curvature="0"
         id="path8004"
         d="M 0,2119.953 H 3253.108 V 0 H 0 Z" />
    </clipPath>
    <clipPath
       id="clipPath7994"
       clipPathUnits="userSpaceOnUse">
      <path
         inkscape:connector-curvature="0"
         id="path7992"
         d="m 1882.336,1603.443 c 0,-0.061 0.041,-0.12 0.121,-0.166 v 0 0.539 c -0.08,0.043 -0.12,0.104 -0.12,0.165 v 0 z" />
    </clipPath>
    <clipPath
       id="clipPath7946"
       clipPathUnits="userSpaceOnUse">
      <path
         inkscape:connector-curvature="0"
         id="path7944"
         d="M 0,2119.953 H 3253.108 V 0 H 0 Z" />
    </clipPath>
    <clipPath
       id="clipPath7934"
       clipPathUnits="userSpaceOnUse">
      <path
         inkscape:connector-curvature="0"
         id="path7932"
         d="m 1881.995,1605.067 c 0,-0.065 0.04,-0.124 0.119,-0.17 v 0 0.536 c -0.082,0.052 -0.122,0.11 -0.122,0.169 v 0 -0.535 z" />
    </clipPath>
    <clipPath
       id="clipPath7894"
       clipPathUnits="userSpaceOnUse">
      <path
         inkscape:connector-curvature="0"
         id="path7892"
         d="M 0,2119.953 H 3253.108 V 0 H 0 Z" />
    </clipPath>
    <clipPath
       id="clipPath7882"
       clipPathUnits="userSpaceOnUse">
      <path
         inkscape:connector-curvature="0"
         id="path7880"
         d="m 1883.262,1605.788 c 0,-0.061 0.041,-0.121 0.122,-0.168 v 0 0.538 c -0.081,0.046 -0.121,0.109 -0.121,0.169 v 0 z" />
    </clipPath>
    <clipPath
       id="clipPath7870"
       clipPathUnits="userSpaceOnUse">
      <path
         inkscape:connector-curvature="0"
         id="path7868"
         d="M 0,2119.953 H 3253.108 V 0 H 0 Z" />
    </clipPath>
    <clipPath
       id="clipPath7858"
       clipPathUnits="userSpaceOnUse">
      <path
         inkscape:connector-curvature="0"
         id="path7856"
         d="m 1882.565,1606.09 c 0.159,-0.087 0.418,-0.09 0.574,0 v 0 l 0.01,0.54 c -0.16,-0.092 -0.42,-0.089 -0.579,10e-4 v 0 -0.541 z" />
    </clipPath>
    <clipPath
       id="clipPath7842"
       clipPathUnits="userSpaceOnUse">
      <path
         inkscape:connector-curvature="0"
         id="path7840"
         d="M 0,2119.953 H 3253.108 V 0 H 0 Z" />
    </clipPath>
    <clipPath
       id="clipPath7830"
       clipPathUnits="userSpaceOnUse">
      <path
         inkscape:connector-curvature="0"
         id="path7828"
         d="m 1881.72,1606.68 c 0,-0.062 0.038,-0.122 0.12,-0.169 v 0 0.54 c -0.083,0.046 -0.122,0.106 -0.122,0.167 v 0 c 0,-0.18 -10e-4,-0.359 -10e-4,-0.538" />
    </clipPath>
    <clipPath
       id="clipPath7794"
       clipPathUnits="userSpaceOnUse">
      <path
         inkscape:connector-curvature="0"
         id="path7792"
         d="M 0,2119.953 H 3253.108 V 0 H 0 Z" />
    </clipPath>
    <clipPath
       id="clipPath7782"
       clipPathUnits="userSpaceOnUse">
      <path
         inkscape:connector-curvature="0"
         id="path7780"
         d="m 1879.92,1609.156 c 0,-0.06 0.042,-0.118 0.121,-0.166 v 0 0.538 c -0.081,0.045 -0.123,0.106 -0.123,0.165 v 0 -0.537 z" />
    </clipPath>
    <clipPath
       id="clipPath7622"
       clipPathUnits="userSpaceOnUse">
      <path
         inkscape:connector-curvature="0"
         id="path7620"
         d="m 1866.46,1541.36 h 41.73 v -17.73 h -41.73 z" />
    </clipPath>
    <clipPath
       id="clipPath1856"
       clipPathUnits="userSpaceOnUse">
      <path
         inkscape:connector-curvature="0"
         id="path1854"
         d="m 1978.82,1549.83 h 38.47 v -19.92 h -38.47 z" />
    </clipPath>
    <clipPath
       id="clipPath8394"
       clipPathUnits="userSpaceOnUse">
      <path
         inkscape:connector-curvature="0"
         id="path8392"
         d="m 2093.14,1546.97 h 47.55 v -23.34 h -47.55 z" />
    </clipPath>
    <clipPath
       id="clipPath8518"
       clipPathUnits="userSpaceOnUse">
      <path
         inkscape:connector-curvature="0"
         id="path8516"
         d="m 2183.37,1545.67 h 41.84 v -22.04 h -41.84 z" />
    </clipPath>
    <clipPath
       id="clipPath10650"
       clipPathUnits="userSpaceOnUse">
      <path
         inkscape:connector-curvature="0"
         id="path10648"
         d="m 2358.269,1682.219 1.196,-0.067 c 0.312,-0.02 0.65,0.162 0.933,0.544 v 0 l -1.194,0.068 c -0.286,-0.382 -0.621,-0.561 -0.935,-0.545" />
    </clipPath>
    <clipPath
       id="clipPath10638"
       clipPathUnits="userSpaceOnUse">
      <path
         inkscape:connector-curvature="0"
         id="path10636"
         d="m 2359.874,1693.927 1.199,-0.068 c 0.546,0.734 1.19,1.079 1.794,1.044 v 0 l -1.193,0.07 c -0.028,10e-4 -0.057,0 -0.085,0 v 0 c -0.579,0 -1.191,-0.349 -1.715,-1.048" />
    </clipPath>
    <clipPath
       id="clipPath10622"
       clipPathUnits="userSpaceOnUse">
      <path
         inkscape:connector-curvature="0"
         id="path10620"
         d="M 0,2119.953 H 3253.108 V 0 H 0 Z" />
    </clipPath>
    <clipPath
       id="clipPath10610"
       clipPathUnits="userSpaceOnUse">
      <path
         inkscape:connector-curvature="0"
         id="path10608"
         d="m 2361.354,1684.888 c 0.01,-10e-4 0.018,0 0.025,-10e-4 v 0 l 1.148,-0.067 c -0.655,0.059 -1.221,0.53 -1.604,1.361 v 0 l -1.197,0.069 c 0.389,-0.84 0.961,-1.312 1.628,-1.362 m 1.195,-0.07 c 0.01,-10e-4 0.019,-10e-4 0.025,-10e-4 v 0 h -0.047 c 0.01,-10e-4 0.014,0 0.022,0" />
    </clipPath>
    <clipPath
       id="clipPath10594"
       clipPathUnits="userSpaceOnUse">
      <path
         inkscape:connector-curvature="0"
         id="path10592"
         d="M 0,2119.953 H 3253.108 V 0 H 0 Z" />
    </clipPath>
    <clipPath
       id="clipPath10582"
       clipPathUnits="userSpaceOnUse">
      <path
         inkscape:connector-curvature="0"
         id="path10580"
         d="m 2362.654,1687.391 c -0.311,-0.417 -0.683,-0.634 -1.052,-0.613 v 0 l 1.196,-0.068 c 0.368,-0.022 0.741,0.196 1.052,0.613 v 0 c 0.652,0.877 0.83,2.365 0.398,3.321 v 0 l -1.194,0.068 c 0.43,-0.954 0.252,-2.444 -0.4,-3.321" />
    </clipPath>
    <clipPath
       id="clipPath10562"
       clipPathUnits="userSpaceOnUse">
      <path
         inkscape:connector-curvature="0"
         id="path10560"
         d="M 0,2119.953 H 3253.108 V 0 H 0 Z" />
    </clipPath>
    <clipPath
       id="clipPath10550"
       clipPathUnits="userSpaceOnUse">
      <path
         inkscape:connector-curvature="0"
         id="path10548"
         d="m 2345.228,1688.061 5.462,-0.312 c 0.094,1.046 0.253,2.098 0.476,3.121 v 0 l -5.463,0.317 c -0.222,-1.028 -0.38,-2.077 -0.475,-3.126" />
    </clipPath>
    <clipPath
       id="clipPath10534"
       clipPathUnits="userSpaceOnUse">
      <path
         inkscape:connector-curvature="0"
         id="path10532"
         d="M 0,2119.953 H 3253.108 V 0 H 0 Z" />
    </clipPath>
    <clipPath
       id="clipPath10522"
       clipPathUnits="userSpaceOnUse">
      <path
         inkscape:connector-curvature="0"
         id="path10520"
         d="m 2345.469,1681.934 5.462,-0.314 c -0.175,0.967 -0.28,1.965 -0.322,2.982 v 0 l -5.463,0.314 c 0.043,-1.017 0.151,-2.015 0.323,-2.982" />
    </clipPath>
    <clipPath
       id="clipPath10506"
       clipPathUnits="userSpaceOnUse">
      <path
         inkscape:connector-curvature="0"
         id="path10504"
         d="M 0,2119.953 H 3253.108 V 0 H 0 Z" />
    </clipPath>
    <clipPath
       id="clipPath10494"
       clipPathUnits="userSpaceOnUse">
      <path
         inkscape:connector-curvature="0"
         id="path10492"
         d="m 2346.555,1694.2 5.465,-0.316 c 0.338,0.949 0.733,1.868 1.186,2.732 v 0 l -5.465,0.314 c -0.452,-0.865 -0.844,-1.779 -1.186,-2.73" />
    </clipPath>
    <clipPath
       id="clipPath10474"
       clipPathUnits="userSpaceOnUse">
      <path
         inkscape:connector-curvature="0"
         id="path10472"
         d="M 0,2119.953 H 3253.108 V 0 H 0 Z" />
    </clipPath>
    <clipPath
       id="clipPath10462"
       clipPathUnits="userSpaceOnUse">
      <path
         inkscape:connector-curvature="0"
         id="path10460"
         d="m 2346.693,1677.938 c 0.173,-0.375 0.359,-0.728 0.553,-1.059 v 0 l 5.459,-0.313 c -0.192,0.328 -0.377,0.682 -0.55,1.058 v 0 c -0.189,0.408 -0.358,0.828 -0.51,1.262 v 0 l -5.464,0.313 c 0.154,-0.433 0.322,-0.855 0.512,-1.261" />
    </clipPath>
    <clipPath
       id="clipPath10450"
       clipPathUnits="userSpaceOnUse">
      <path
         inkscape:connector-curvature="0"
         id="path10448"
         d="M 0,2119.953 H 3253.108 V 0 H 0 Z" />
    </clipPath>
    <clipPath
       id="clipPath10438"
       clipPathUnits="userSpaceOnUse">
      <path
         inkscape:connector-curvature="0"
         id="path10436"
         d="m 2349.219,1699.291 5.464,-0.314 c 0.543,0.722 1.11,1.345 1.691,1.869 v 0 l -5.46,0.313 c -0.584,-0.523 -1.154,-1.144 -1.695,-1.868" />
    </clipPath>
    <clipPath
       id="clipPath10414"
       clipPathUnits="userSpaceOnUse">
      <path
         inkscape:connector-curvature="0"
         id="path10412"
         d="M 0,2119.953 H 3253.108 V 0 H 0 Z" />
    </clipPath>
    <clipPath
       id="clipPath10402"
       clipPathUnits="userSpaceOnUse">
      <path
         inkscape:connector-curvature="0"
         id="path10400"
         d="m 2350.259,1673.785 5.461,-0.313 c -0.569,0.31 -1.114,0.726 -1.625,1.247 v 0 l -5.461,0.315 c 0.508,-0.522 1.054,-0.938 1.625,-1.249" />
    </clipPath>
    <clipPath
       id="clipPath10390"
       clipPathUnits="userSpaceOnUse">
      <path
         inkscape:connector-curvature="0"
         id="path10388"
         d="M 0,2119.953 H 3253.108 V 0 H 0 Z" />
    </clipPath>
    <clipPath
       id="clipPath10378"
       clipPathUnits="userSpaceOnUse">
      <path
         inkscape:connector-curvature="0"
         id="path10376"
         d="m 2352.757,1702.473 5.461,-0.314 c 0.632,0.335 1.272,0.565 1.909,0.689 v 0 l -5.464,0.315 c -0.633,-0.125 -1.277,-0.355 -1.906,-0.69" />
    </clipPath>
    <clipPath
       id="clipPath10362"
       clipPathUnits="userSpaceOnUse">
      <path
         inkscape:connector-curvature="0"
         id="path10360"
         d="M 0,2119.953 H 3253.108 V 0 H 0 Z" />
    </clipPath>
    <clipPath
       id="clipPath10350"
       clipPathUnits="userSpaceOnUse">
      <path
         inkscape:connector-curvature="0"
         id="path10348"
         d="m 2352.587,1673.103 c 1.822,-0.104 3.643,-0.209 5.462,-0.314 v 0 c -0.171,0.01 -0.336,0.027 -0.505,0.052 v 0 l -5.462,0.315 c 0.168,-0.025 0.336,-0.042 0.505,-0.053" />
    </clipPath>
    <clipPath
       id="clipPath10918"
       clipPathUnits="userSpaceOnUse">
      <path
         inkscape:connector-curvature="0"
         id="path10916"
         d="m 2448.707,1664.164 1.237,-0.221 c -0.508,0.533 -0.559,1.613 -0.114,2.403 v 0 l -1.235,0.223 c -0.447,-0.791 -0.395,-1.872 0.112,-2.405" />
    </clipPath>
    <clipPath
       id="clipPath10902"
       clipPathUnits="userSpaceOnUse">
      <path
         inkscape:connector-curvature="0"
         id="path10900"
         d="M 0,2119.953 H 3253.108 V 0 H 0 Z" />
    </clipPath>
    <clipPath
       id="clipPath10890"
       clipPathUnits="userSpaceOnUse">
      <path
         inkscape:connector-curvature="0"
         id="path10888"
         d="m 2454.686,1677.384 1.238,-0.219 c 0.313,0.564 0.792,0.831 1.224,0.75 v 0 l -1.234,0.223 c -0.05,0.01 -0.101,0.014 -0.152,0.014 v 0 c -0.389,0 -0.796,-0.268 -1.076,-0.768" />
    </clipPath>
    <clipPath
       id="clipPath10878"
       clipPathUnits="userSpaceOnUse">
      <path
         inkscape:connector-curvature="0"
         id="path10876"
         d="m 2452.824,1660.092 1.235,-0.219 c -0.179,0.031 -0.351,0.125 -0.502,0.281 v 0 l -1.238,0.225 c 0.15,-0.16 0.324,-0.252 0.505,-0.287" />
    </clipPath>
    <clipPath
       id="clipPath10762"
       clipPathUnits="userSpaceOnUse">
      <path
         inkscape:connector-curvature="0"
         id="path10760"
         d="m 2419.74,1547.43 h 59.52 v -23.8 h -59.52 z" />
    </clipPath>
    <clipPath
       id="clipPath12810"
       clipPathUnits="userSpaceOnUse">
      <path
         inkscape:connector-curvature="0"
         id="path12808"
         d="m 2531.16,1567.57 h 72.57 v -43.94 h -72.57 z" />
    </clipPath>
  </defs>
  <sodipodi:namedview
     id="base"
     pagecolor="#ffffff"
     bordercolor="#666666"
     borderopacity="1.0"
     inkscape:pageopacity="0.0"
     inkscape:pageshadow="2"
     inkscape:zoom="0.35"
     inkscape:cx="-299.26595"
     inkscape:cy="-244.39584"
     inkscape:document-units="mm"
     inkscape:current-layer="layer1"
     showgrid="false"
     fit-margin-top="0"
     fit-margin-left="0"
     fit-margin-right="0"
     fit-margin-bottom="0"
     inkscape:window-width="1360"
     inkscape:window-height="706"
     inkscape:window-x="-8"
     inkscape:window-y="-8"
     inkscape:window-maximized="1" />
  <metadata
     id="metadata45328">
    <rdf:RDF>
      <cc:Work
         rdf:about="">
        <dc:format>image/svg+xml</dc:format>
        <dc:type
           rdf:resource="http://purl.org/dc/dcmitype/StillImage" />
        <dc:title></dc:title>
      </cc:Work>
    </rdf:RDF>
  </metadata>
  <g
     inkscape:label="Layer 1"
     inkscape:groupmode="layer"
     id="layer1"
     transform="translate(-1.6956575,-352.10883)">
    <g
       id="g20378"
       transform="matrix(0.1,0,0,0.086,2.8332898,323.74884)">
      <g
         transform="matrix(0.35277777,0,0,-0.35277777,-900.86554,916.15743)"
         id="g12804">
        <g
           id="g12806" />
        <g
           id="g12818">
          <g
             style="opacity:0.25"
             id="g12816"
             clip-path="url(#clipPath12810)">
            <g
               id="g12814"
               transform="translate(2531.1641,1537.8394)">
              <path
                 inkscape:connector-curvature="0"
                 id="path12812"
                 style="fill:#231f20;fill-opacity:1;fill-rule:nonzero;stroke:none"
                 d="m 0,0 c 0.052,-1.259 -0.504,-7.063 10.345,-11.101 10.846,-4.036 16.903,-5.046 16.65,2.522 -0.253,7.57 -5.045,16.149 0.759,21.699 5.801,5.548 9.082,-2.271 14.631,0.757 5.551,3.026 3.279,5.299 11.605,3.785 8.324,-1.516 24.649,-2.44 16.237,4.455 C 61.811,29.014 43.142,32.04 32.798,27.751 22.455,23.462 -0.502,12.364 0,0" />
            </g>
          </g>
        </g>
      </g>
      <g
         transform="matrix(0.35277777,0,0,-0.35277777,12.891582,353.15839)"
         id="g12820">
        <path
           inkscape:connector-curvature="0"
           id="path12822"
           style="fill:#ffe1cc;fill-opacity:1;fill-rule:nonzero;stroke:none"
           d="M 0,0 C 0,0 1.451,-0.946 1.387,-3.911 1.325,-6.874 0.125,-7.567 -0.756,-8.01 c -0.885,-0.443 -1.642,0.124 -1.578,0.82 0.063,0.694 1.136,2.522 0.693,3.659 -0.441,1.135 -1.385,2.9 -1.135,3.153 C -2.523,-0.126 0,0 0,0" />
      </g>
      <g
         transform="matrix(0.35277777,0,0,-0.35277777,10.606455,344.91461)"
         id="g12824">
        <path
           inkscape:connector-curvature="0"
           id="path12826"
           style="fill:#ffe1cc;fill-opacity:1;fill-rule:nonzero;stroke:none"
           d="m 0,0 c 0,0 1.302,0.795 2.438,-1.442 1.139,-2.239 2.622,-9.894 3.134,-12.278 0.51,-2.383 1.409,-9.361 1.179,-10.124 -0.23,-0.764 -2.157,-1.767 -3.022,-0.277 C 2.866,-22.633 0,0 0,0" />
      </g>
      <g
         transform="matrix(0.35277777,0,0,-0.35277777,8.7002914,345.25843)"
         id="g12828">
        <path
           inkscape:connector-curvature="0"
           id="path12830"
           style="fill:#08b708;fill-opacity:1;fill-rule:nonzero;stroke:none"
           d="m 0,0 c 0.443,1.994 4.686,3.937 7.125,0.903 2.281,-2.836 4.071,-7.621 4.071,-7.621 0,0 0.064,-1.192 -4.192,-2.633 -3.792,-1.286 -4.031,-0.038 -4.031,-0.038 0,0 -3.837,5.506 -2.973,9.389" />
      </g>
      <g
         transform="matrix(0.35277777,0,0,-0.35277777,10.165844,338.62299)"
         id="g12832">
        <path
           inkscape:connector-curvature="0"
           id="path12834"
           style="fill:#633a11;fill-opacity:1;fill-rule:nonzero;stroke:none"
           d="m 0,0 c 0,0 0.613,0.653 1.913,0.206 0.63,-0.212 0.811,-0.385 0.811,-0.385 l -0.96,-0.608 c 0,0 -0.36,0.68 -1.764,0.787" />
      </g>
      <g
         transform="matrix(0.35277777,0,0,-0.35277777,9.7207364,359.47823)"
         id="g12836">
        <path
           inkscape:connector-curvature="0"
           id="path12838"
           style="fill:#ffe8d9;fill-opacity:1;fill-rule:nonzero;stroke:none"
           d="m 0,0 c 0,0 1.892,-3.215 1.892,-4.037 0,-0.82 0,-6.243 2.559,-8.693 3.35,-3.208 5.675,-1.577 5.738,-0.064 0.065,1.514 -1.892,8.766 -2.018,10.218 -0.124,1.451 -1.388,3.533 -1.388,3.533 z" />
      </g>
      <g
         transform="matrix(0.35277777,0,0,-0.35277777,13.340474,364.09828)"
         id="g12840">
        <path
           inkscape:connector-curvature="0"
           id="path12842"
           style="fill:#dae0df;fill-opacity:1;fill-rule:nonzero;stroke:none"
           d="m 0,0 5.212,-2.025 c 0,0 2.367,-0.466 3.236,-0.747 C 9.429,-3.089 9.521,-3.587 9.689,-4 9.8,-4.279 9.817,-4.563 9.702,-4.83 9.4,-5.494 8.56,-6.224 7.817,-6.68 5.624,-8.033 2.696,-7.378 2.696,-7.378 c -0.482,0.113 -7.863,0.857 -7.863,0.857 0,0 -0.437,0.788 -0.603,1.285 l -0.444,3.445 c 0,0 -0.322,1.032 -0.2,1.368 0.27,0.762 1.247,0.723 1.247,0.723 z" />
      </g>
      <g
         transform="matrix(0.35277777,0,0,-0.35277777,11.767103,354.59377)"
         id="g12844">
        <path
           inkscape:connector-curvature="0"
           id="path12846"
           style="fill:#3b5972;fill-opacity:1;fill-rule:nonzero;stroke:none"
           d="m 0,0 c 0,0 2.776,-7.602 3.406,-12.331 0.254,-1.892 -1.878,-3.377 -5.232,-3.721 -3.859,-0.395 -6.024,0.274 -6.11,0.792 -0.877,5.282 -1.145,11.003 -1.145,11.003 z" />
      </g>
      <g
         transform="matrix(0.35277777,0,0,-0.35277777,15.735165,365.43326)"
         id="g12848">
        <path
           inkscape:connector-curvature="0"
           id="path12850"
           style="fill:#ef6c33;fill-opacity:1;fill-rule:nonzero;stroke:none"
           d="M 0,0 C 0.505,0.617 0.944,0.943 1.308,1.116 1.439,1.079 1.561,1.043 1.66,1.012 2.641,0.695 2.733,0.197 2.901,-0.216 3.012,-0.495 3.029,-0.778 2.914,-1.046 2.74,-1.429 2.382,-1.828 1.976,-2.185 l -3.569,-1.411 c 0,0 0.134,1.815 1.593,3.596" />
      </g>
      <g
         transform="matrix(0.35277777,0,0,-0.35277777,11.51768,366.39874)"
         id="g12852">
        <path
           inkscape:connector-curvature="0"
           id="path12854"
           style="fill:#ef6c33;fill-opacity:1;fill-rule:nonzero;stroke:none"
           d="m 0,0 c 0,0 -0.437,0.788 -0.603,1.285 l -0.276,2.098 -0.126,1.124 c 0,0 2.024,-0.564 3.126,-2.086 C 3.173,0.977 3.635,-0.253 3.681,-0.376 1.8,-0.181 0,0 0,0" />
      </g>
      <g
         transform="matrix(0.35277777,0,0,-0.35277777,14.396744,364.53184)"
         id="g12856">
        <path
           inkscape:connector-curvature="0"
           id="path12858"
           style="fill:#dae0df;fill-opacity:1;fill-rule:nonzero;stroke:none"
           d="M 0,0 C 0,0 -1.392,0.027 -1.929,1.577 -2.242,2.488 -2.388,2.579 -2.651,2.633 -2.904,2.688 -3.151,2.246 -3.655,1.97 -4.429,1.545 -4.715,1.329 -5.374,1.176 -6.078,1.013 -6.066,0.151 -5.176,-0.586 c 0.688,-0.573 1.901,-1.513 1.901,-1.513 z" />
      </g>
      <g
         transform="matrix(0.35277777,0,0,-0.35277777,14.277549,365.79344)"
         id="g12860">
        <path
           inkscape:connector-curvature="0"
           id="path12862"
           style="fill:#0ae00f;fill-opacity:1;fill-rule:nonzero;stroke:none"
           d="M 0,0 C 0.214,0.024 0.278,0.281 0.313,0.497 0.358,0.768 0.466,1.137 0.706,1.503 1.371,2.502 2.444,2.726 2.733,2.793 2.829,2.82 2.744,2.799 2.704,2.895 2.518,3.369 2.147,3.197 2.005,3.167 1.547,3.059 0.664,2.707 0.195,1.978 -0.445,0.975 -0.298,0.461 -0.296,0.146 -0.296,0.018 -0.134,-0.009 0,0" />
      </g>
      <g
         transform="matrix(0.35277777,0,0,-0.35277777,13.553755,365.4794)"
         id="g12864">
        <path
           inkscape:connector-curvature="0"
           id="path12866"
           style="fill:#0ae00f;fill-opacity:1;fill-rule:nonzero;stroke:none"
           d="M 0,0 C 0.213,0.021 0.282,0.277 0.314,0.494 0.359,0.767 0.468,1.135 0.709,1.503 1.371,2.501 2.448,2.723 2.736,2.793 2.831,2.819 2.746,2.797 2.708,2.895 2.521,3.368 2.15,3.195 2.008,3.164 1.552,3.057 0.665,2.704 0.197,1.978 -0.441,0.976 -0.297,0.458 -0.293,0.146 -0.289,0.015 -0.132,-0.011 0,0" />
      </g>
      <g
         transform="matrix(0.35277777,0,0,-0.35277777,13.876546,365.67784)"
         id="g12868">
        <path
           inkscape:connector-curvature="0"
           id="path12870"
           style="fill:#0ae00f;fill-opacity:1;fill-rule:nonzero;stroke:none"
           d="M 0,0 C 0.213,0.026 0.276,0.281 0.313,0.496 0.356,0.768 0.462,1.14 0.709,1.504 1.372,2.5 2.443,2.726 2.733,2.795 2.827,2.822 2.741,2.799 2.706,2.895 2.517,3.368 2.146,3.198 2.005,3.167 1.548,3.059 0.663,2.708 0.192,1.98 -0.443,0.979 -0.297,0.459 -0.295,0.148 -0.297,0.019 -0.134,-0.013 0,0" />
      </g>
      <g
         transform="matrix(0.35277777,0,0,-0.35277777,12.393424,366.35997)"
         id="g12872">
        <path
           inkscape:connector-curvature="0"
           id="path12874"
           style="fill:#7ac1dd;fill-opacity:1;fill-rule:nonzero;stroke:none"
           d="m 0,0 c 0,0 -1.276,0.227 -1.703,0.285 -0.997,0.138 -1.208,0.421 -1.208,0.421 0,0 0.394,-0.924 0.427,-0.9 0,0 0.115,-0.251 0.697,-0.372 0.535,-0.109 2.088,-0.323 2.088,-0.323 z" />
      </g>
      <g
         transform="matrix(0.35277777,0,0,-0.35277777,16.773496,365.54901)"
         id="g12876">
        <path
           inkscape:connector-curvature="0"
           id="path12878"
           style="fill:#7ac1dd;fill-opacity:1;fill-rule:nonzero;stroke:none"
           d="M 0,0 C -0.233,-0.919 -1.873,-1.919 -2.668,-2.279 -4.46,-3.088 -7.082,-2.9 -7.082,-2.9 c -1.584,0.173 -3.654,0.379 -4.227,0.472 0,0 -3.645,0.571 -3.75,0.579 -0.013,0.078 1.174,-1.04 1.203,-1.049 0.964,-0.219 5.282,-0.883 5.763,-1.006 0,0 4.254,-0.687 6.639,1.018 0.713,0.5 1.747,1.186 1.663,2.063 C 0.186,-0.563 0.012,0.045 0,0" />
      </g>
      <g
         transform="matrix(0.35277777,0,0,-0.35277777,4.8920904,357.1802)"
         id="g12880">
        <path
           inkscape:connector-curvature="0"
           id="path12882"
           style="fill:#ffe8d9;fill-opacity:1;fill-rule:nonzero;stroke:none"
           d="m 0,0 c 0,0 0.582,-6.677 0.189,-7.396 -0.392,-0.722 -3.531,-3.85 -3.154,-9.082 0.335,-4.625 4.5,-3.49 5.279,-2.187 0.782,1.296 4.104,8.246 4.687,9.582 0.585,1.335 -0.284,6.906 -0.284,6.906 z" />
      </g>
      <g
         transform="matrix(0.35277777,0,0,-0.35277777,5.5511144,363.75206)"
         id="g12884">
        <path
           inkscape:connector-curvature="0"
           id="path12886"
           style="fill:#dae0df;fill-opacity:1;fill-rule:nonzero;stroke:none"
           d="m 0,0 2.864,-4.803 c 0,0 1.578,-1.822 2.09,-2.582 0.58,-0.85 0.347,-1.299 0.227,-1.73 -0.084,-0.287 -0.247,-0.521 -0.503,-0.66 -0.646,-0.338 -1.758,-0.395 -2.62,-0.302 -2.564,0.287 -4.469,2.601 -4.469,2.601 -0.312,0.387 -5.674,5.514 -5.674,5.514 0,0 0.14,0.889 0.314,1.386 l 1.768,2.987 c 0,0 0.382,1.01 0.685,1.199 0.683,0.436 1.427,-0.195 1.427,-0.195 z" />
      </g>
      <g
         transform="matrix(0.35277777,0,0,-0.35277777,8.7640024,355.5951)"
         id="g12888">
        <path
           inkscape:connector-curvature="0"
           id="path12890"
           style="fill:#3b5972;fill-opacity:1;fill-rule:nonzero;stroke:none"
           d="m 0,0 c 0,0 -0.519,-7.181 -2.224,-11.636 -0.681,-1.785 -2.377,-1.631 -5.488,-0.332 -3.576,1.496 -5.235,2.96 -5.06,3.454 1.75,5.06 1.373,10.975 1.373,10.975 z" />
      </g>
      <g
         transform="matrix(0.35277777,0,0,-0.35277777,6.6184174,366.27749)"
         id="g12892">
        <path
           inkscape:connector-curvature="0"
           id="path12894"
           style="fill:#ef6c33;fill-opacity:1;fill-rule:nonzero;stroke:none"
           d="m 0,0 c 0.776,0.174 1.323,0.163 1.718,0.076 0.08,-0.11 0.151,-0.211 0.211,-0.302 0.58,-0.851 0.346,-1.299 0.226,-1.73 C 2.071,-2.243 1.908,-2.477 1.652,-2.617 1.281,-2.814 0.753,-2.906 0.212,-2.94 l -3.682,1.085 c 0,0 1.224,1.348 3.47,1.855" />
      </g>
      <g
         transform="matrix(0.35277777,0,0,-0.35277777,2.6989594,364.44418)"
         id="g12896">
        <path
           inkscape:connector-curvature="0"
           id="path12898"
           style="fill:#ef6c33;fill-opacity:1;fill-rule:nonzero;stroke:none"
           d="M 0,0 C 0,0 0.14,0.889 0.314,1.386 L 1.39,3.207 1.981,4.17 c 0,0 1.246,-1.691 1.18,-3.567 C 3.104,-1.182 2.711,-2.435 2.671,-2.562 1.309,-1.252 0,0 0,0" />
      </g>
      <g
         transform="matrix(0.35277777,0,0,-0.35277777,6.1178524,364.74425)"
         id="g12900">
        <path
           inkscape:connector-curvature="0"
           id="path12902"
           style="fill:#dae0df;fill-opacity:1;fill-rule:nonzero;stroke:none"
           d="m 0,0 c 0,0 -1.082,0.879 -0.553,2.432 0.312,0.911 0.256,1.069 0.08,1.279 -0.165,0.196 -0.632,0 -1.199,0.094 C -2.545,3.944 -2.9,3.951 -3.516,4.234 -4.17,4.539 -4.691,3.851 -4.441,2.723 -4.254,1.849 -3.875,0.36 -3.875,0.36 Z" />
      </g>
      <g
         transform="matrix(0.35277777,0,0,-0.35277777,5.2472674,365.66444)"
         id="g12904">
        <path
           inkscape:connector-curvature="0"
           id="path12906"
           style="fill:#0ae00f;fill-opacity:1;fill-rule:nonzero;stroke:none"
           d="m 0,0 c 0.186,-0.114 0.392,0.05 0.554,0.198 0.2,0.187 0.511,0.411 0.93,0.551 C 2.621,1.127 3.605,0.644 3.872,0.521 3.965,0.481 3.885,0.519 3.913,0.616 4.058,1.107 3.659,1.2 3.529,1.264 3.101,1.458 2.188,1.725 1.372,1.438 0.25,1.042 0.049,0.544 -0.143,0.294 -0.223,0.195 -0.11,0.072 0,0" />
      </g>
      <g
         transform="matrix(0.35277777,0,0,-0.35277777,4.8697064,364.97214)"
         id="g12908">
        <path
           inkscape:connector-curvature="0"
           id="path12910"
           style="fill:#0ae00f;fill-opacity:1;fill-rule:nonzero;stroke:none"
           d="M 0,0 C 0.184,-0.114 0.396,0.047 0.552,0.194 0.754,0.384 1.067,0.608 1.483,0.75 2.62,1.127 3.606,0.641 3.877,0.521 3.966,0.484 3.885,0.517 3.916,0.616 4.059,1.106 3.661,1.197 3.529,1.259 3.103,1.457 2.187,1.723 1.372,1.439 0.253,1.042 0.049,0.544 -0.142,0.295 -0.218,0.189 -0.108,0.071 0,0" />
      </g>
      <g
         transform="matrix(0.35277777,0,0,-0.35277777,5.0019984,365.32715)"
         id="g12912">
        <path
           inkscape:connector-curvature="0"
           id="path12914"
           style="fill:#0ae00f;fill-opacity:1;fill-rule:nonzero;stroke:none"
           d="M 0,0 C 0.185,-0.11 0.389,0.054 0.553,0.199 0.756,0.386 1.065,0.615 1.483,0.751 2.619,1.127 3.604,0.645 3.876,0.522 3.966,0.486 3.884,0.521 3.916,0.619 4.058,1.108 3.661,1.2 3.528,1.264 3.102,1.46 2.188,1.727 1.371,1.443 0.252,1.046 0.05,0.546 -0.141,0.298 -0.221,0.199 -0.112,0.072 0,0" />
      </g>
      <g
         transform="matrix(0.35277777,0,0,-0.35277777,3.4130964,364.95267)"
         id="g12916">
        <path
           inkscape:connector-curvature="0"
           id="path12918"
           style="fill:#7ac1dd;fill-opacity:1;fill-rule:nonzero;stroke:none"
           d="m 0,0 c 0,0 -0.866,0.964 -1.168,1.271 -0.7,0.724 -0.693,1.077 -0.693,1.077 0,0 -0.259,-0.97 -0.216,-0.974 0,0 -0.066,-0.269 0.321,-0.721 0.353,-0.415 1.447,-1.539 1.447,-1.539 z" />
      </g>
      <g
         transform="matrix(0.35277777,0,0,-0.35277777,7.3656804,367.00732)"
         id="g12920">
        <path
           inkscape:connector-curvature="0"
           id="path12922"
           style="fill:#7ac1dd;fill-opacity:1;fill-rule:nonzero;stroke:none"
           d="m 0,0 c -0.747,-0.582 -2.656,-0.362 -3.505,-0.155 -1.913,0.463 -3.863,2.223 -3.863,2.223 -1.143,1.114 -2.649,2.548 -3.041,2.973 0,0 -2.525,2.693 -2.6,2.764 0.036,0.071 0.283,-1.542 0.3,-1.566 0.626,-0.765 4.59,-5.237 4.892,-5.63 0,0 1.987,-2.082 4.895,-1.992 0.871,0.027 2.107,-0.137 2.581,0.606 C -0.201,-0.558 0.037,0.026 0,0" />
      </g>
      <g
         transform="matrix(0.35277777,0,0,-0.35277777,10.331897,344.07038)"
         id="g12924">
        <path
           inkscape:connector-curvature="0"
           id="path12926"
           style="fill:#0ae00f;fill-opacity:1;fill-rule:nonzero;stroke:none"
           d="m 0,0 c 2.017,-2.417 3.93,-6.844 4.077,-12.101 0,0 0.016,-4.939 0.053,-8.099 0.011,-1.446 1.483,-11.321 1.549,-11.522 0,0 0.008,-1.936 -7.935,-3.421 -9.832,-1.838 -14.678,4.209 -14.678,4.209 0.875,0.908 2.021,8.583 2.017,8.845 -0.084,7.225 0.72,13.887 0.72,13.887 2.695,8.519 8.214,8.825 8.214,8.825 0,0 4.616,1.023 5.983,-0.623" />
      </g>
      <g
         transform="matrix(0.35277777,0,0,-0.35277777,8.3843784,343.59152)"
         id="g12928">
        <path
           inkscape:connector-curvature="0"
           id="path12930"
           style="fill:#e8c5ac;fill-opacity:1;fill-rule:nonzero;stroke:none"
           d="m 0,0 c 0.615,-0.247 1.116,-0.41 1.284,-0.369 2.158,-1.194 3.112,-4.499 2.549,-5.83 -0.777,-1.835 -3.019,-1.853 -5.19,-0.51 -1.57,0.977 -3.221,2.144 -4.312,2.773 C -2.933,-0.135 -0.728,-0.108 0,0" />
      </g>
      <g
         transform="matrix(0.35277777,0,0,-0.35277777,9.3107374,344.66777)"
         id="g12932">
        <path
           inkscape:connector-curvature="0"
           id="path12934"
           style="fill:#e8c5ac;fill-opacity:1;fill-rule:nonzero;stroke:none"
           d="m 0,0 c -1.881,-2.63 -7.226,-1.172 -6.557,1.033 0.94,3.113 0.754,6.565 0.754,6.565 l 4.545,-1.034 z" />
      </g>
      <g
         transform="matrix(0.35277777,0,0,-0.35277777,8.7940064,338.86486)"
         id="g12936">
        <path
           inkscape:connector-curvature="0"
           id="path12938"
           style="fill:#ffe1cc;fill-opacity:1;fill-rule:nonzero;stroke:none"
           d="m 0,0 0.001,-0.002 -5.686,-1.121 1.426,-9.652 c 0.214,-0.689 0.499,-2.257 2.739,-3.636 0,0 1.128,-0.832 2.525,-1.285 2.097,-0.687 3.729,0.313 4.324,1.09 0.576,0.744 1.757,2.284 1.989,5.169 l 0.27,7.579 -0.922,3.208 z" />
      </g>
      <g
         transform="matrix(0.35277777,0,0,-0.35277777,9.9167394,337.27372)"
         id="g12940">
        <path
           inkscape:connector-curvature="0"
           id="path12942"
           style="fill:#633a11;fill-opacity:1;fill-rule:nonzero;stroke:none"
           d="m 0,0 c 5.628,-1.994 6.12,-4.701 6.128,-4.771 0.141,-1.28 -1.75,-2.874 -1.714,-2.896 0.03,-0.021 -0.24,2.816 -0.296,2.595 -1.357,-5.434 -7.91,-5.439 -7.991,-5.466 -0.035,-0.012 0.456,1.24 0.517,1.415 0.036,0.101 -0.631,0.263 -1.003,-0.521 -0.037,-0.075 -0.226,-0.735 -0.434,-1.663 -0.087,-0.4 -0.656,-1.578 -0.736,-1.461 0,0 -0.489,2.308 -2.216,1.05 -0.907,-0.666 0.249,-2.765 0.339,-2.886 l -0.426,-3.433 c -0.028,-0.165 -0.215,0.798 -1.385,2.331 -1.255,1.64 -2.017,2.666 -2.455,3.241 -4.675,6.108 0.798,13.361 7.705,13.285 C -2.651,0.802 0,0 0,0" />
      </g>
      <g
         transform="matrix(0.35277777,0,0,-0.35277777,7.2395794,340.97585)"
         id="g12944">
        <path
           inkscape:connector-curvature="0"
           id="path12946"
           style="fill:#ffe1cc;fill-opacity:1;fill-rule:nonzero;stroke:none"
           d="m 0,0 c 1.729,0.364 2.313,-2.277 2.313,-2.277 0,0 0.22,-2.434 -0.313,-2.651 C 1.197,-5.262 0.767,-5.38 0.235,-4.644 0.205,-4.605 -0.92,-3.051 -0.966,-2.988 -1.817,-1.803 -1.385,-0.291 0,0" />
      </g>
      <g
         transform="matrix(0.35277777,0,0,-0.35277777,5.2607074,345.80587)"
         id="g12948">
        <path
           inkscape:connector-curvature="0"
           id="path12950"
           style="fill:#ffe1cc;fill-opacity:1;fill-rule:nonzero;stroke:none"
           d="m 0,0 c 0,0 3.186,1.516 4.56,-2.321 1.278,-3.563 -7.011,-12.448 -7.011,-12.448 0,0 -5.393,1.975 -4.422,3.576 C -5.9,-9.594 -2.016,-1.476 0,0" />
      </g>
      <g
         transform="matrix(0.35277777,0,0,-0.35277777,2.9786764,351.37863)"
         id="g12952">
        <path
           inkscape:connector-curvature="0"
           id="path12954"
           style="fill:#ffe1cc;fill-opacity:1;fill-rule:nonzero;stroke:none"
           d="M 0,0 2.964,-8.264 7.19,-6.495 Z" />
      </g>
      <g
         transform="matrix(0.35277777,0,0,-0.35277777,-5.7291576,373.63121)"
         id="g12956">
        <path
           inkscape:connector-curvature="0"
           id="path12958"
           style="fill:#db265e;fill-opacity:1;fill-rule:nonzero;stroke:none"
           d="m 0,0 c 0,0 -1.707,-2.864 -0.966,-5.135 0.864,-2.64 13.98,-9.099 18.298,-3.506 0.934,1.21 -9.147,5.438 -12.301,6.405 C 1.881,-1.271 0,0 0,0" />
      </g>
      <g
         transform="matrix(0.35277777,0,0,-0.35277777,-3.0040816,370.04399)"
         id="g12960">
        <path
           inkscape:connector-curvature="0"
           id="path12962"
           style="fill:#db265e;fill-opacity:1;fill-rule:nonzero;stroke:none"
           d="m 0,0 c 0,0 -2.22,-1.255 -2.844,-3.56 -0.728,-2.682 0.506,-14.892 12.709,-12.301 2.246,0.479 -4.526,3.304 -8.773,12.814 C -0.253,-0.039 0,0 0,0" />
      </g>
      <g
         transform="matrix(0.35277777,0,0,-0.35277777,-4.9998336,340.40121)"
         id="g12964">
        <path
           inkscape:connector-curvature="0"
           id="path12966"
           style="fill:#683534;fill-opacity:1;fill-rule:nonzero;stroke:none"
           d="m 0,0 c 0,0 -10.442,-16.166 -12.471,-11.182 -1.522,3.732 5.147,34.353 5.419,35.312 1.198,4.169 5.894,7.115 8.389,5.618 0.128,-0.077 2.156,0.779 5.369,-0.079 1.249,-0.333 4.617,-1.784 5.737,-4.343 1.272,-2.899 -0.915,-6.557 -0.915,-6.557 L 13.622,-6.98 Z" />
      </g>
      <g
         transform="matrix(0.35277777,0,0,-0.35277777,-4.1302546,356.82019)"
         id="g12968">
        <path
           inkscape:connector-curvature="0"
           id="path12970"
           style="fill:#dba88d;fill-opacity:1;fill-rule:nonzero;stroke:none"
           d="m 0,0 c 0.098,-0.472 2.214,-4.239 6.821,-12.906 1.364,-2.57 1.52,-4.129 0.757,-5.203 -3.872,-5.461 -4.677,-11.662 -4.948,-15.866 -0.286,-4.428 0.072,-6.734 0.234,-7.528 0,0 1.635,-9.06 5.248,-8.903 0.517,0.021 1.084,0.25 0.951,0.728 -0.058,0.225 -1.25,3.516 -1.59,5.236 -1.062,5.348 8.391,22.731 8.391,22.731 0.838,1.931 1.588,3.247 1.174,6.205 -0.318,2.278 -7.265,27.491 -7.265,27.491 l -3.524,5.22 C 6.249,17.205 -1.931,9.237 0,0" />
      </g>
      <g
         transform="matrix(0.35277777,0,0,-0.35277777,-3.5494406,352.77115)"
         id="g12972">
        <path
           inkscape:connector-curvature="0"
           id="path12974"
           style="fill:#eac49b;fill-opacity:1;fill-rule:nonzero;stroke:none"
           d="m 0,0 c -1.493,-3.311 -9.373,0.882 -10.637,-9.382 -0.087,-0.722 2.468,-21.311 1.796,-25.334 -2.005,-12.038 2.552,-21.409 2.715,-23.653 0,0 -2.088,-5.548 8.08,-8.384 6.556,-1.833 6.302,0.811 4.524,1.626 -0.411,0.188 -1.474,0.71 -6.202,3.76 -1.089,1.492 -0.879,3.057 -0.859,4.618 0.03,3.051 -0.505,11.472 0.598,18.533 2.335,14.986 1.104,33.563 1.104,33.563 0,0 4.415,0.679 4.509,1.055 l -1.02,4.475 z" />
      </g>
      <g
         transform="matrix(0.35277777,0,0,-0.35277777,4.5282884,351.10113)"
         id="g12976">
        <path
           inkscape:connector-curvature="0"
           id="path12978"
           style="fill:#cca283;fill-opacity:1;fill-rule:nonzero;stroke:none"
           d="m 0,0 c 0,0 3.729,-2.601 4.465,-5.099 0.502,-1.713 0.374,-3.248 0.173,-4.564 -0.096,-0.609 -0.733,-1.63 -1.798,-1.467 -1.183,0.183 -2.027,0.794 -2.314,1.925 -0.357,1.395 -0.717,2.456 -0.717,2.456 0,0 -1.463,1.838 -1.908,2.656 -0.434,0.822 -0.399,3.802 -0.399,3.802 z" />
      </g>
      <g
         transform="matrix(0.35277777,0,0,-0.35277777,2.5001514,347.26245)"
         id="g12980">
        <path
           inkscape:connector-curvature="0"
           id="path12982"
           style="fill:#dba88d;fill-opacity:1;fill-rule:nonzero;stroke:none"
           d="m 0,0 c -1.75,3.187 -5.17,22.35 -10.847,20.984 -2.331,-0.563 1.532,-9.754 1.532,-9.754 0,0 1.7,-10.773 3.736,-14.029 3.049,-4.883 8.973,-11.601 8.973,-11.601 0,0 4.924,1.413 3.71,2.559 C 7.003,-11.746 0.556,-1.018 0,0" />
      </g>
      <g
         transform="matrix(0.35277777,0,0,-0.35277777,-0.7144566,340.58998)"
         id="g12984">
        <path
           inkscape:connector-curvature="0"
           id="path12986"
           style="fill:#093c4c;fill-opacity:1;fill-rule:nonzero;stroke:none"
           d="m 0,0 c 0,0 -0.529,2.024 -1.336,2.268 -0.803,0.235 -2.707,0.648 -6.063,1.336 -4.84,0.988 -13.057,-3.1 -13.603,-3.922 -0.551,-0.823 1.395,-5.13 2.216,-10.34 0.825,-5.213 3.845,-8.227 2.747,-11.793 -1.093,-3.566 -7.54,-15.354 -7.428,-33.202 0.014,-2.605 8.648,-4.272 16.13,-4.067 9.896,0.27 18.337,6.472 18.337,6.472 0,0 -4.882,6.404 -2.85,18.711 1.375,8.293 -8.355,3.713 -10.826,10.845 -1.549,4.472 4.117,8.627 4.738,11.39 C 2.803,-8.993 0,0 0,0" />
      </g>
      <g
         transform="matrix(0.35277777,0,0,-0.35277777,-2.8783256,339.63398)"
         id="g12988">
        <path
           inkscape:connector-curvature="0"
           id="path12990"
           style="fill:#d8af93;fill-opacity:1;fill-rule:nonzero;stroke:none"
           d="m 0,0 c 1.086,-0.737 2.022,-1.302 2.022,-5.244 0,-5.283 -0.456,-5.72 -0.854,-5.829 -0.629,-0.164 -5.187,5.137 -6.433,6.787 -1.317,1.751 -2.085,3.576 -1.897,4.492 0.956,4.762 0.515,8.913 0.515,8.913 l 6.34,0.824 c 0,0 -0.414,-5.763 -0.551,-7.682 C -0.896,1.775 -0.875,0.596 0,0" />
      </g>
      <g
         transform="matrix(0.35277777,0,0,-0.35277777,-3.2541656,331.58345)"
         id="g12992">
        <path
           inkscape:connector-curvature="0"
           id="path12994"
           style="fill:#d8af93;fill-opacity:1;fill-rule:nonzero;stroke:none"
           d="m 0,0 c 4.776,0.123 4.979,-3.846 5.171,-6.49 0.136,-1.849 -0.018,-5.33 -0.018,-5.33 -0.36,-3.447 -1.348,-5.94 -3.132,-6.618 -2.239,-0.838 -5.5,1.043 -8.209,3.953 -2.4,2.58 -2.78,4.318 -2.845,4.733 l 3.25,5.022 c 0,0 3.238,4.662 5.783,4.73" />
      </g>
      <g
         transform="matrix(0.35277777,0,0,-0.35277777,-6.0733276,334.19521)"
         id="g12996">
        <path
           inkscape:connector-curvature="0"
           id="path12998"
           style="fill:#d8af93;fill-opacity:1;fill-rule:nonzero;stroke:none"
           d="m 0,0 c 1.566,0.797 2.847,-1.349 2.847,-1.349 0,0 0.295,-2.335 0.732,-3.533 C 3.858,-5.609 2.093,-5.479 1.276,-4.686 1.228,-4.63 0.195,-3.714 0.13,-3.644 -0.837,-2.617 -1.476,-0.762 0,0" />
      </g>
      <g
         transform="matrix(0.35277777,0,0,-0.35277777,-1.1210156,331.88614)"
         id="g13000">
        <path
           inkscape:connector-curvature="0"
           id="path13002"
           style="fill:#683534;fill-opacity:1;fill-rule:nonzero;stroke:none"
           d="m 0,0 c 0,0 -0.281,-2.906 -3.46,-5.118 -3.179,-2.212 -6.223,-3.595 -6.223,-3.595 0,0 2.625,3.318 3.044,4.565 0.412,1.242 -1.911,-2.096 -4.552,-3.747 -2.642,-1.648 -4.442,-1.512 -4.442,-1.512 0,0 2.529,9.108 4.842,11.689 2.421,2.697 5.141,3.391 7.233,2.92 C 0.738,4.236 0,0 0,0" />
      </g>
      <g
         transform="matrix(0.35277777,0,0,-0.35277777,3.1061524,350.08535)"
         id="g13004">
        <path
           inkscape:connector-curvature="0"
           id="path13006"
           style="fill:#093c4c;fill-opacity:1;fill-rule:nonzero;stroke:none"
           d="m 0,0 c 0,-6.961 -5.647,-12.606 -12.607,-12.606 -6.963,0 -12.609,5.645 -12.609,12.606 0,6.963 5.646,12.61 12.609,12.61 C -5.647,12.61 0,6.963 0,0" />
      </g>
      <g
         transform="matrix(0.35277777,0,0,-0.35277777,-5.9847716,356.68839)"
         id="g13008">
        <path
           inkscape:connector-curvature="0"
           id="path13010"
           style="fill:#af0c37;fill-opacity:1;fill-rule:nonzero;stroke:none"
           d="m 0,0 2.77,-0.139 c 0,0 -0.672,15.947 -3.183,20.053 -1.521,2.492 -2.124,1.153 -2.124,1.153 z" />
      </g>
      <g
         transform="matrix(0.35277777,0,0,-0.35277777,-5.0394416,356.12529)"
         id="g13012">
        <path
           inkscape:connector-curvature="0"
           id="path13014"
           style="fill:#db3159;fill-opacity:1;fill-rule:nonzero;stroke:none"
           d="m 0,0 c 0,0 -15.882,1.777 -16.269,1.777 -0.388,0 -0.929,-5.172 -1.484,-12.088 -0.3,-3.748 -0.69,-3.457 2.075,-4.84 1.181,-0.59 5.948,-1.663 13.278,-2.077 4.619,-0.26 3.798,3.778 3.735,5.396 C 1.268,-10.212 0,0 0,0" />
      </g>
      <g
         transform="matrix(0.35277777,0,0,-0.35277777,-3.3620096,351.60603)"
         id="g13016">
        <path
           inkscape:connector-curvature="0"
           id="path13018"
           style="fill:#eac49b;fill-opacity:1;fill-rule:nonzero;stroke:none"
           d="m 0,0 c 0,0 4.245,-3.048 4.521,-3.303 0.996,-0.917 1.494,-2.804 1.536,-3.645 0.042,-0.84 -0.135,-2.456 -0.609,-3.098 -0.161,-0.219 -0.629,-0.488 -0.864,-0.535 -0.571,-0.122 -1.806,0.115 -2.321,1.957 -0.477,1.693 -1.848,2.596 -2.545,3.134 -1.953,1.523 -1.387,2.953 -1.346,3.406 C -1.585,-1.627 0,0 0,0" />
      </g>
      <g
         transform="matrix(0.35277777,0,0,-0.35277777,-8.0177246,340.67352)"
         id="g13020">
        <path
           inkscape:connector-curvature="0"
           id="path13022"
           style="fill:#eac49b;fill-opacity:1;fill-rule:nonzero;stroke:none"
           d="m 0,0 c 0,0 -3.365,1.259 -6.685,-21.428 -0.93,-6.357 18.764,-13.145 18.764,-13.145 0,0 1.067,0.612 1.296,1.094 0.522,1.1 -0.142,2.461 -0.142,2.461 0,0 -13.529,9.012 -13.651,10.633 -0.046,0.55 0.181,1.186 0.475,2.129 0.684,2.213 2.8,7.128 2.8,7.128 0,0 1.188,2.461 0.865,5.872 C 3.293,-0.735 0,0 0,0" />
      </g>
      <g
         transform="matrix(0.35277777,0,0,-0.35277777,-9.9049436,355.84416)"
         id="g13024">
        <path
           inkscape:connector-curvature="0"
           id="path13026"
           style="fill:#db3159;fill-opacity:1;fill-rule:nonzero;stroke:none"
           d="m 0,0 c 0.036,0.109 1.754,10.453 3.232,14.066 1.344,3.289 2.628,3.933 3.521,4.379 1.728,0.866 3.187,0.09 3.207,0.091 0,0 -1.256,1.085 -1.522,1.241 C 8.125,19.97 7.565,20.503 6.087,20.193 4.661,19.896 2.118,18.401 0.741,15.033 -0.739,11.411 -2.754,0.472 -2.782,0.366 Z" />
      </g>
      <g
         transform="matrix(0.35277777,0,0,-0.35277777,4.1021244,354.42687)"
         id="g13028">
        <path
           inkscape:connector-curvature="0"
           id="path13030"
           style="fill:#ffe1cc;fill-opacity:1;fill-rule:nonzero;stroke:none"
           d="M 0,0 C 0.813,-0.973 4.341,0.733 5.011,2.196 5.679,3.657 1.138,5.803 -0.124,4.542 -1.387,3.279 -1.892,2.271 0,0" />
      </g>
      <g
         transform="matrix(0.35277777,0,0,-0.35277777,4.6964044,351.27286)"
         id="g13032">
        <path
           inkscape:connector-curvature="0"
           id="path13034"
           style="fill:#d8af93;fill-opacity:1;fill-rule:nonzero;stroke:none"
           d="M 0,0 C 0,0 2.593,-1.716 2.764,-2.758 2.978,-4.05 3.191,-5.806 3.326,-6.744 3.438,-7.5 3.122,-7.589 2.456,-7.436 c -0.671,0.152 -1.177,2.57 -1.177,2.57 0,0 -1.188,0.531 -1.955,0.954 -0.949,0.517 -1.249,2.307 -1.1,2.764 C -1.635,-0.68 -0.491,0.251 0,0" />
      </g>
      <g
         transform="matrix(0.35277777,0,0,-0.35277777,5.9152604,345.13735)"
         id="g13036">
        <path
           inkscape:connector-curvature="0"
           id="path13038"
           style="fill:#2bf72b;fill-opacity:1;fill-rule:nonzero;stroke:none"
           d="m 0,0 c 1.944,0.631 5.771,-2.034 4.4,-5.676 -1.284,-3.407 -4.496,-7.38 -4.496,-7.38 0,0 -0.992,-0.663 -4.398,2.271 -3.034,2.611 -2.082,3.453 -2.082,3.453 0,0 2.791,6.103 6.576,7.332" />
      </g>
    </g>
  </g>
</svg>
