<?xml version="1.0" encoding="UTF-8" standalone="no"?>
<!-- Created with Inkscape (http://www.inkscape.org/) -->

<svg
   xmlns:dc="http://purl.org/dc/elements/1.1/"
   xmlns:cc="http://creativecommons.org/ns#"
   xmlns:rdf="http://www.w3.org/1999/02/22-rdf-syntax-ns#"
   xmlns:svg="http://www.w3.org/2000/svg"
   xmlns="http://www.w3.org/2000/svg"
   xmlns:sodipodi="http://sodipodi.sourceforge.net/DTD/sodipodi-0.dtd"
   xmlns:inkscape="http://www.inkscape.org/namespaces/inkscape"
   width="2.4513848mm"
   height="6.1794572mm"
   viewBox="0 0 2.4513847 6.1794571"
   version="1.1"
   id="svg113590"
   inkscape:version="0.92.2 (5c3e80d, 2017-08-06)"
   sodipodi:docname="people-dancing-14.svg">
  <defs
     id="defs113584">
    <clipPath
       id="clipPath6938"
       clipPathUnits="userSpaceOnUse">
      <path
         inkscape:connector-curvature="0"
         id="path6936"
         d="m 332.31,670.939 h 80.557 V 627.742 H 332.31 Z" />
    </clipPath>
    <clipPath
       id="clipPath19962"
       clipPathUnits="userSpaceOnUse">
      <path
         inkscape:connector-curvature="0"
         id="path19960"
         d="m 509.182,647.722 h 56.485 v -19.98 h -56.485 z" />
    </clipPath>
    <clipPath
       id="clipPath19818"
       clipPathUnits="userSpaceOnUse">
      <path
         inkscape:connector-curvature="0"
         id="path19816"
         d="m 671.425,650.716 h 65.619 v -22.975 h -65.619 z" />
    </clipPath>
    <clipPath
       id="clipPath14734"
       clipPathUnits="userSpaceOnUse">
      <path
         inkscape:connector-curvature="0"
         id="path14732"
         d="m 800.948,651.727 h 68.678 v -23.986 h -68.678 z" />
    </clipPath>
    <clipPath
       id="clipPath14822"
       clipPathUnits="userSpaceOnUse">
      <path
         inkscape:connector-curvature="0"
         id="path14820"
         d="m 957.738,645.951 h 63.252 v -18.209 h -63.252 z" />
    </clipPath>
    <clipPath
       id="clipPath20130"
       clipPathUnits="userSpaceOnUse">
      <path
         inkscape:connector-curvature="0"
         id="path20128"
         d="m 1084.85,651.425 h 64.51 v -23.683 h -64.51 z" />
    </clipPath>
    <clipPath
       id="clipPath20722"
       clipPathUnits="userSpaceOnUse">
      <path
         inkscape:connector-curvature="0"
         id="path20720"
         d="m 1222.08,654.393 h 75.95 v -26.652 h -75.95 z" />
    </clipPath>
    <clipPath
       id="clipPath20266"
       clipPathUnits="userSpaceOnUse">
      <path
         inkscape:connector-curvature="0"
         id="path20264"
         d="m 1383.9,646.412 h 44.62 v -18.67 h -44.62 z" />
    </clipPath>
    <clipPath
       id="clipPath20442"
       clipPathUnits="userSpaceOnUse">
      <path
         inkscape:connector-curvature="0"
         id="path20440"
         d="m 1493.26,654.136 h 75.09 v -26.394 h -75.09 z" />
    </clipPath>
    <clipPath
       id="clipPath20366"
       clipPathUnits="userSpaceOnUse">
      <path
         inkscape:connector-curvature="0"
         id="path20364"
         d="m 1632.21,651.13 h 77.31 v -23.389 h -77.31 z" />
    </clipPath>
    <clipPath
       id="clipPath20538"
       clipPathUnits="userSpaceOnUse">
      <path
         inkscape:connector-curvature="0"
         id="path20536"
         d="m 1778.62,646.625 h 45.13 v -18.883 h -45.13 z" />
    </clipPath>
    <clipPath
       id="clipPath20590"
       clipPathUnits="userSpaceOnUse">
      <path
         inkscape:connector-curvature="0"
         id="path20588"
         d="m 1895.15,652.288 h 61.65 v -24.547 h -61.65 z" />
    </clipPath>
    <clipPath
       id="clipPath20798"
       clipPathUnits="userSpaceOnUse">
      <path
         inkscape:connector-curvature="0"
         id="path20796"
         d="m 2032.21,650.712 h 54.29 v -22.97 h -54.29 z" />
    </clipPath>
    <clipPath
       id="clipPath20218"
       clipPathUnits="userSpaceOnUse">
      <path
         inkscape:connector-curvature="0"
         id="path20216"
         d="m 2154,646.547 h 46.37 V 627.742 H 2154 Z" />
    </clipPath>
  </defs>
  <sodipodi:namedview
     id="base"
     pagecolor="#ffffff"
     bordercolor="#666666"
     borderopacity="1.0"
     inkscape:pageopacity="0.0"
     inkscape:pageshadow="2"
     inkscape:zoom="0.35"
     inkscape:cx="-730.11883"
     inkscape:cy="497.4357"
     inkscape:document-units="mm"
     inkscape:current-layer="layer1"
     showgrid="false"
     inkscape:window-width="1360"
     inkscape:window-height="706"
     inkscape:window-x="-8"
     inkscape:window-y="-8"
     inkscape:window-maximized="1"
     fit-margin-top="0"
     fit-margin-left="0"
     fit-margin-right="0"
     fit-margin-bottom="0" />
  <metadata
     id="metadata113587">
    <rdf:RDF>
      <cc:Work
         rdf:about="">
        <dc:format>image/svg+xml</dc:format>
        <dc:type
           rdf:resource="http://purl.org/dc/dcmitype/StillImage" />
        <dc:title></dc:title>
      </cc:Work>
    </rdf:RDF>
  </metadata>
  <g
     inkscape:label="Layer 1"
     inkscape:groupmode="layer"
     id="layer1"
     transform="translate(-115.69215,-274.26708)">
    <g
       id="g37836"
       transform="matrix(0.1,0,0,0.086,105.22606,253.50412)">
      <g
         transform="matrix(0.35277777,0,0,-0.35277777,111.20624,270.61353)"
         id="g20200">
        <path
           inkscape:connector-curvature="0"
           id="path20202"
           style="fill:#eac3a9;fill-opacity:1;fill-rule:nonzero;stroke:none"
           d="m 0,0 c 0,0 -3.57,1.334 -4.098,6.021 -0.482,4.333 1.479,11.53 4.166,26.108 3.684,20 4.547,34.111 4.114,35.531 -0.436,1.428 -3.254,6.619 -3.254,6.619 0,0 -2.199,5.129 -1.801,6.774 0.756,3.136 3.527,1.195 4.34,-0.424 C 4.211,79.16 4.662,78.555 5.902,76.502 7.443,73.939 9.467,72.436 8.443,69.092 8.15,68.158 11.164,48.566 8.713,34.959 6.443,22.332 5.982,17.139 5.211,11.377 4.441,5.615 5.852,-3 0,0" />
      </g>
      <g
         transform="matrix(0.35277777,0,0,-0.35277777,115.1557,242.95356)"
         id="g20204">
        <path
           inkscape:connector-curvature="0"
           id="path20206"
           style="fill:#eac3a9;fill-opacity:1;fill-rule:nonzero;stroke:none"
           d="m 0,0 c 0,0 -0.953,1.059 -2.117,-1.824 -0.475,-1.182 -1.33,-3.44 -2.858,-3.045 -0.812,0.211 0,-5.82 0,-5.82 0,0 2.262,1.048 2.75,1.693 1.012,1.328 2.118,6.773 2.118,6.773 0,0 0.814,2.803 0.107,2.223" />
      </g>
      <g
         transform="matrix(0.35277777,0,0,-0.35277777,112.80615,265.98127)"
         id="g20208">
        <path
           inkscape:connector-curvature="0"
           id="path20210"
           style="fill:#f7d2b7;fill-opacity:1;fill-rule:nonzero;stroke:none"
           d="m 0,0 c -0.545,-1.615 -2.018,-2.629 -2.074,-7.754 -0.072,-6.869 0.058,-6.391 0.113,-6.473 0.426,-0.736 7.119,6.743 8.514,9.043 2.83,4.707 2.656,6.055 2.461,7.26 L 7.398,13.744 -1.938,12.521 c 0,0 1.249,-6.662 1.79,-8.949 C 0.004,2.955 0.518,1.506 0,0" />
      </g>
      <g
         transform="matrix(0.35277777,0,0,-0.35277777,-655.2224,534.7373)"
         id="g20212">
        <g
           id="g20214" />
        <g
           id="g20226">
          <g
             style="opacity:0.28999299"
             id="g20224"
             clip-path="url(#clipPath20218)">
            <g
               id="g20222"
               transform="translate(2173.3076,627.7617)">
              <path
                 inkscape:connector-curvature="0"
                 id="path20220"
                 style="fill:#231f20;fill-opacity:1;fill-rule:nonzero;stroke:none"
                 d="m 0,0 c 26.795,0.652 27.059,3.385 27.059,8.436 0,5.054 -10.83,10.349 -24.557,10.349 -12.584,0 -17.406,-2.355 -19.232,-3.816 C -19.998,12.354 -24.41,-0.596 0,0" />
            </g>
          </g>
        </g>
      </g>
      <g
         transform="matrix(0.35277777,0,0,-0.35277777,109.06754,306.49766)"
         id="g20228">
        <path
           inkscape:connector-curvature="0"
           id="path20230"
           style="fill:#cc1d2e;fill-opacity:1;fill-rule:nonzero;stroke:none"
           d="m 0,0 c 0,0 -1.027,8.313 -0.871,18.627 0.074,5.006 1.445,9.717 1.197,15.252 -0.617,13.771 -5.09,21.525 -4.16,29.424 0.488,4.156 2.17,9.763 7.746,13.017 1.918,1.121 4.494,0.973 7.047,0.301 4.881,-1.283 4.727,-4.797 4.727,-4.797 0,0 -5.733,-11.697 -5.268,-15.492 C 14.602,22.4 3.375,-1.633 3.375,-1.633 Z" />
      </g>
      <g
         transform="matrix(0.35277777,0,0,-0.35277777,113.61779,281.70608)"
         id="g20232">
        <path
           inkscape:connector-curvature="0"
           id="path20234"
           style="fill:#f72f3a;fill-opacity:1;fill-rule:nonzero;stroke:none"
           d="m 0,0 18.145,-31.932 c 0,0 3.486,-5.664 -0.655,-10.675 C 11.193,-50.23 1.479,-66.68 1.479,-66.68 c 0,0 -1.274,-3.355 -4.885,-1.185 -1.551,0.931 0.527,3.689 0.527,3.689 0,0 3.531,10.377 5.065,14.979 2.015,6.045 5.392,8.986 5.392,8.986 0,0 1.852,1.852 0.635,3.645 -1.606,2.365 -15.34,18.902 -15.34,18.902 0,0 -8.514,9.383 -1.853,15.795 C -4.547,2.396 0,0 0,0" />
      </g>
      <g
         transform="matrix(0.35277777,0,0,-0.35277777,115.77996,285.18905)"
         id="g20236">
        <path
           inkscape:connector-curvature="0"
           id="path20238"
           style="fill:#7f7f7f;fill-opacity:1;fill-rule:nonzero;stroke:none"
           d="m 0,0 c 0,0 -1.627,4.264 -1.088,10.705 0.692,8.256 3.922,19.895 4.877,20.861 2.953,2.985 5.606,6.346 4.887,8.67 -1.309,4.239 -3.649,7.131 -9.535,14.26 -3.995,4.832 -12.088,4.031 -12.088,4.031 0,0 -5.574,-3.718 -4.336,-10.849 1.238,-7.125 3.719,-16.42 2.48,-21.071 -1.242,-4.648 -8.783,-21.671 -8.783,-21.671 0,0 0.15,-2.444 5.02,-4.434 C -9.252,-3.309 -2.994,-2.492 0,0" />
      </g>
      <g
         transform="matrix(0.35277777,0,0,-0.35277777,111.27652,304.71102)"
         id="g20240">
        <path
           inkscape:connector-curvature="0"
           id="path20242"
           style="fill:#24292d;fill-opacity:1;fill-rule:nonzero;stroke:none"
           d="m 0,0 c 0,0 -0.182,-10.246 3.072,-11.949 0.449,-0.235 5.629,-2.19 5.629,-2.19 0,0 2.11,-4.074 1.006,-5.472 -0.031,-0.039 -4.223,0 -5.059,0 -4.072,0 -6.119,3.273 -6.119,3.273 0,0 -1.707,2.541 -2.125,3.268 -2.441,4.254 -2.236,1.533 -2.236,1.533 l -0.023,-8.002 c 0,0 -0.934,0 -0.983,0.025 -0.043,0.022 -1.986,11.836 -1.986,11.836 0,0 -1.305,2.449 0.98,5.717 1.258,1.797 0.174,3.154 0.983,3.27 C -4.439,1.658 0,0 0,0" />
      </g>
      <g
         transform="matrix(0.35277777,0,0,-0.35277777,115.19566,304.24937)"
         id="g20244">
        <path
           inkscape:connector-curvature="0"
           id="path20246"
           style="fill:#45494c;fill-opacity:1;fill-rule:nonzero;stroke:none"
           d="m 0,0 c 0,0 -2.613,-8.17 2.287,-11.764 2.535,-1.857 2.451,-3.269 2.451,-3.269 0,0 0.328,-1.797 -0.162,-3.594 -0.541,-1.982 -4.217,-0.91 -7.183,0.438 -3.875,1.759 -4.661,6.275 -4.661,6.275 l -1.4,6.113 -2.969,-8.099 -0.662,0.318 c 0.024,0 1.311,9.25 2.215,12.264 1.424,4.75 3.385,4.095 3.875,5.076 C -4.707,6.756 0,0 0,0" />
      </g>
      <g
         transform="matrix(0.35277777,0,0,-0.35277777,125.49925,250.64579)"
         id="g20248">
        <path
           inkscape:connector-curvature="0"
           id="path20250"
           style="fill:#eac3a9;fill-opacity:1;fill-rule:nonzero;stroke:none"
           d="m 0,0 c 0,0 -1.273,6.195 -0.754,7.779 0.328,1.01 1.506,1.244 2.143,1.469 0.39,0.141 1.031,1.031 1.031,1.031 0,0 0.596,1.391 1.512,4.551 0.468,1.623 1.265,1.494 1.466,0.731 C 5.52,15.1 4.848,12.125 4.523,10.639 4.424,10.18 4.561,9.158 5.516,10.201 6.975,11.791 9.365,14.484 9.955,14.43 10.811,14.35 10.426,13.715 9.26,12.229 8.309,11.018 6.273,8.939 6.43,8.732 8.455,6.074 7.064,4.564 7.064,4.564 7.064,4.564 4.193,0.83 3.135,0.158 0.576,-1.465 0,0 0,0" />
      </g>
      <g
         transform="matrix(0.35277777,0,0,-0.35277777,115.17637,268.69255)"
         id="g20252">
        <path
           inkscape:connector-curvature="0"
           id="path20254"
           style="fill:#eac3a9;fill-opacity:1;fill-rule:nonzero;stroke:none"
           d="m 0,0 c 0,0 -1.199,1.303 0.07,5.334 1.176,3.723 5.854,9.516 13.346,20.48 10.279,15.045 15.848,26.35 16.006,27.676 0.064,0.502 1.568,2.573 2.592,3.17 2.496,1.453 2.752,0.213 1.48,-3.281 C 33.197,52.557 28.475,35.252 21.525,24.994 15.08,15.475 12.82,11.391 10.096,6.947 7.371,2.51 3.705,-4.582 0,0" />
      </g>
      <g
         transform="matrix(0.35277777,0,0,-0.35277777,118.15568,256.57892)"
         id="g20256">
        <path
           inkscape:connector-curvature="0"
           id="path20258"
           style="fill:#f72f3a;fill-opacity:1;fill-rule:nonzero;stroke:none"
           d="m 0,0 c 0,0 -2.07,7.311 -9.93,8.617 -7.855,1.309 -14.662,-5.314 -16.568,-11.978 -2.479,-8.676 0.941,-18.756 3.408,-22.93 2.473,-4.178 7.545,-16.715 6.201,-23.551 -1.375,-7.002 -5.033,-9.178 -5.033,-9.178 0,0 11.461,0.499 13.19,11.184 1.732,10.682 -0.623,22.012 -0.623,22.012 0,0 0.552,0.994 2.07,-7.287 1.519,-8.28 1.025,-14.551 1.025,-14.551 0,0 5.26,4.359 6.969,16.326 0.619,4.338 -1.35,12.522 -2.416,15.889 -1.432,4.517 1.244,9.033 1.244,9.033 0,0 1.84,2.426 0.463,6.414" />
      </g>
    </g>
  </g>
</svg>
