<?xml version="1.0" encoding="UTF-8" standalone="no"?>
<!-- Created with Inkscape (http://www.inkscape.org/) -->

<svg
   xmlns:dc="http://purl.org/dc/elements/1.1/"
   xmlns:cc="http://creativecommons.org/ns#"
   xmlns:rdf="http://www.w3.org/1999/02/22-rdf-syntax-ns#"
   xmlns:svg="http://www.w3.org/2000/svg"
   xmlns="http://www.w3.org/2000/svg"
   xmlns:sodipodi="http://sodipodi.sourceforge.net/DTD/sodipodi-0.dtd"
   xmlns:inkscape="http://www.inkscape.org/namespaces/inkscape"
   width="1.527162mm"
   height="5.3717799mm"
   viewBox="0 0 1.527162 5.3717799"
   version="1.1"
   id="svg164951"
   inkscape:version="0.92.2 (5c3e80d, 2017-08-06)"
   sodipodi:docname="people-business-11.svg">
  <defs
     id="defs164945">
    <clipPath
       id="clipPath2192"
       clipPathUnits="userSpaceOnUse">
      <path
         inkscape:connector-curvature="0"
         id="path2190"
         d="m 1338.93,1871.66 h 35.95 v -18.63 h -35.95 z" />
    </clipPath>
  </defs>
  <sodipodi:namedview
     id="base"
     pagecolor="#ffffff"
     bordercolor="#666666"
     borderopacity="1.0"
     inkscape:pageopacity="0.0"
     inkscape:pageshadow="2"
     inkscape:zoom="0.35"
     inkscape:cx="2.8859758"
     inkscape:cy="10.151394"
     inkscape:document-units="mm"
     inkscape:current-layer="layer1"
     showgrid="false"
     fit-margin-top="0"
     fit-margin-left="0"
     fit-margin-right="0"
     fit-margin-bottom="0"
     inkscape:window-width="1360"
     inkscape:window-height="706"
     inkscape:window-x="-8"
     inkscape:window-y="-8"
     inkscape:window-maximized="1" />
  <metadata
     id="metadata164948">
    <rdf:RDF>
      <cc:Work
         rdf:about="">
        <dc:format>image/svg+xml</dc:format>
        <dc:type
           rdf:resource="http://purl.org/dc/dcmitype/StillImage" />
        <dc:title></dc:title>
      </cc:Work>
    </rdf:RDF>
  </metadata>
  <g
     inkscape:label="Layer 1"
     inkscape:groupmode="layer"
     id="layer1"
     transform="translate(78.2487,-146.14745)">
    <g
       id="g5636"
       transform="matrix(0.1,0,0,0.086,-69.736607,136.03367)">
      <g
         transform="matrix(0.35277777,0,0,-0.35277777,-554.87641,833.77366)"
         id="g2186">
        <g
           id="g2188" />
        <g
           id="g2200">
          <g
             style="opacity:0.28999299"
             id="g2198"
             clip-path="url(#clipPath2192)">
            <g
               id="g2196"
               transform="translate(1373.5332,1865.4502)">
              <path
                 inkscape:connector-curvature="0"
                 id="path2194"
                 style="fill:#231f20;fill-opacity:1;fill-rule:nonzero;stroke:none"
                 d="m 0,0 c -1.748,-1.906 -4.431,-2.583 -6,-5.167 -1.568,-2.585 -4.06,-8.215 -14.487,-7.107 -10.431,1.107 -18.959,8.109 -10.957,13.745 C -23.442,7.106 8.213,8.951 0,0" />
            </g>
          </g>
        </g>
      </g>
      <g
         transform="matrix(0.35277777,0,0,-0.35277777,-72.504868,174.22151)"
         id="g2202">
        <path
           inkscape:connector-curvature="0"
           id="path2204"
           style="fill:#e8c5ac;fill-opacity:1;fill-rule:nonzero;stroke:none"
           d="m 0,0 c -0.056,0.056 -6.228,4.445 -6.299,4.496 -2.675,1.94 -3.159,4.929 -3.135,6.802 0.191,14.785 7.079,58.719 7.079,58.719 0,0 0.555,4.183 -1.521,4.045 L -21.08,72.944 c 0.071,-1.608 1.118,-4.118 1.432,-4.968 0.441,-1.194 -2.7,-2.447 -2.672,-5.523 l 3.562,-54.078 0.07,-1.454 0.138,-3.391 c 0,-1.166 1.099,-3.265 2.63,-3.669 1.316,-0.346 2.492,-0.692 2.492,-0.692 0,0 12.598,-2.816 13.755,-2.329 C 2.907,-2.077 0.277,-0.278 0,0" />
      </g>
      <g
         transform="matrix(0.35277777,0,0,-0.35277777,-77.669032,175.64659)"
         id="g2206">
        <path
           inkscape:connector-curvature="0"
           id="path2208"
           style="fill:#5b5454;fill-opacity:1;fill-rule:nonzero;stroke:none"
           d="M 0,0 2.733,1.974 0.155,3.926 -1.54,3.564 Z" />
      </g>
      <g
         transform="matrix(0.35277777,0,0,-0.35277777,-78.910669,174.38791)"
         id="g2210">
        <path
           inkscape:connector-curvature="0"
           id="path2212"
           style="fill:#7c7676;fill-opacity:1;fill-rule:nonzero;stroke:none"
           d="m 0,0 1.257,-2.851 c 0,0 0.185,-0.521 1.471,-0.671 0.335,-0.041 0.792,-0.046 0.792,-0.046 l -0.451,3.443 z" />
      </g>
      <g
         transform="matrix(0.35277777,0,0,-0.35277777,-71.144381,175.86707)"
         id="g2214">
        <path
           inkscape:connector-curvature="0"
           id="path2216"
           style="fill:#7c7676;fill-opacity:1;fill-rule:nonzero;stroke:none"
           d="M 0,0 C 0.712,0.719 0.325,1.941 -0.129,2.161 -1.977,3.056 -2.956,3.488 -2.956,3.488 -2.035,2.697 -3.893,2.5 -5.439,2.123 c -1.884,-0.46 -3.985,-0.566 -6.412,0.191 -1.717,0.537 -4.81,2.019 -6.071,2.6 -4.221,1.942 -5.105,4.246 -5.105,4.246 0,0 -0.043,-1.006 0.286,-2.55 0.479,-2.262 1.513,-2.463 1.513,-2.463 0,0 -0.231,-0.193 2.005,-0.659 2.519,-0.525 7.495,-3.988 10.827,-4.854 C -5.632,-2.082 -1.722,-1.738 0,0" />
      </g>
      <g
         transform="matrix(0.35277777,0,0,-0.35277777,-71.234286,175.61886)"
         id="g2218">
        <path
           inkscape:connector-curvature="0"
           id="path2220"
           style="fill:#b21b0b;fill-opacity:1;fill-rule:nonzero;stroke:none"
           d="m 0,0 c 0.991,1.053 0.063,1.632 -0.789,2.187 -0.124,0.08 -2.813,1.774 -2.813,1.774 0.922,-0.792 1.091,-1.589 -1.436,-2.126 -1.897,-0.404 -4.315,-0.11 -6.592,1.018 -2.116,1.048 -5.266,3.133 -6.109,3.646 -3.969,2.414 -5.105,4.245 -5.105,4.245 0,0 -0.635,-2.744 -0.306,-4.289 0.479,-2.264 1.645,-3.322 1.645,-3.322 l 3.368,-0.141 C -15.68,2.407 -12.26,-0.375 -8.288,-1.287 -4.216,-2.223 -1.209,-1.285 0,0" />
      </g>
      <g
         transform="matrix(0.35277777,0,0,-0.35277777,-77.532613,130.64227)"
         id="g2222">
        <path
           inkscape:connector-curvature="0"
           id="path2224"
           style="fill:#cc8c25;fill-opacity:1;fill-rule:nonzero;stroke:none"
           d="m 0,0 c 0,0 7.59,2.394 10.1,16.147 2.124,11.628 -3.046,17.719 -8.674,19.841 -5.222,1.969 -12.033,0.792 -14.272,-2.029 -2.113,-2.66 -1.263,-6.078 2.117,-10.358 4.184,-5.291 10.835,-5.587 12.873,-8.94 0.759,-1.25 0.833,-2.825 0.774,-4.35 C 2.63,3.108 1.553,1.622 0,0" />
      </g>
      <g
         transform="matrix(0.35277777,0,0,-0.35277777,-72.420096,148.00229)"
         id="g2226">
        <path
           inkscape:connector-curvature="0"
           id="path2228"
           style="fill:#911309;fill-opacity:1;fill-rule:nonzero;stroke:none"
           d="m 0,0 -6.831,-1.166 -5.247,24.162 -1.735,16.439 c -0.818,4.361 -1.192,11.531 3.537,12.009 6.16,0.623 6.644,-8.375 6.644,-8.375 l 0.18,-19.182 z" />
      </g>
      <g
         transform="matrix(0.35277777,0,0,-0.35277777,-73.578336,149.39428)"
         id="g2230">
        <path
           inkscape:connector-curvature="0"
           id="path2232"
           style="fill:#e8caba;fill-opacity:1;fill-rule:nonzero;stroke:none"
           d="m 0,0 c -0.374,-1.542 1.391,-3.045 2.749,-3.375 0.472,-0.116 0.052,-3.079 0.484,-4.328 0.453,-1.313 1.75,-0.908 2.016,-0.616 0.21,0.229 -0.011,4.757 -0.023,5.9 C 5.181,1.391 3.815,1.863 2.457,2.191 1.101,2.522 0.378,1.542 0,0" />
      </g>
      <g
         transform="matrix(0.35277777,0,0,-0.35277777,-74.222226,148.50369)"
         id="g2234">
        <path
           inkscape:connector-curvature="0"
           id="path2236"
           style="fill:#e8caba;fill-opacity:1;fill-rule:nonzero;stroke:none"
           d="m 0,0 3.999,0.496 2.064,-4.735 0.09,-0.805 0.113,-6.489 c 0,0 0.294,-3.115 -2.897,-3.512 -2.08,-0.258 -0.223,-0.029 -0.223,-0.029 -2.855,-0.355 -3.728,3.612 -3.728,3.612 L -1.778,-4.64 C -2.031,-2.892 -1.835,-0.23 0,0" />
      </g>
      <g
         transform="matrix(0.35277777,0,0,-0.35277777,-73.799871,147.63416)"
         id="g2238">
        <path
           inkscape:connector-curvature="0"
           id="path2240"
           style="fill:#d3cfcf;fill-opacity:1;fill-rule:nonzero;stroke:none"
           d="m 0,0 c -3.216,-0.304 -3.789,1.32 -3.752,1.024 0,0 -0.584,-0.536 -0.29,-1.43 0.095,-0.283 1.083,-3.493 1.977,-3.941 0,0 0.843,-0.826 4.83,0.039 3.087,0.67 2.332,2.582 2.34,2.892 L 4.342,1.746 C 4.351,2.03 3.79,2.515 3.507,2.48 3.507,2.48 3.585,0.338 0,0" />
      </g>
      <g
         transform="matrix(0.35277777,0,0,-0.35277777,-75.558583,177.01099)"
         id="g2242">
        <path
           inkscape:connector-curvature="0"
           id="path2244"
           style="fill:#ffe1cc;fill-opacity:1;fill-rule:nonzero;stroke:none"
           d="m 0,0 c -0.061,0.053 -2.982,3.897 -3.803,5 -3.183,4.292 -2.254,9.748 -2.254,9.748 l 0.078,0.634 7.893,60.43 c 0,0 0.078,0.529 0.228,2.405 0.056,0.694 0.078,1.473 0.088,1.998 H -22.201 L -22.29,79.8 c -0.995,-5.022 -0.24,-8.725 0.126,-11.873 0.214,-1.838 5.357,-50.834 5.833,-55.521 l 0.126,-4.793 c 0,-1.166 0.246,-1.595 1.051,-2.959 0.9,-1.523 6.922,-6.368 6.922,-6.368 0,0 3.843,-3.391 7.609,-1.885 1.951,0.781 1.826,2.354 0.826,3.403 C 0.141,-0.127 0.071,-0.063 0,0" />
      </g>
      <g
         transform="matrix(0.35277777,0,0,-0.35277777,-73.335792,151.03515)"
         id="g2246">
        <path
           inkscape:connector-curvature="0"
           id="path2248"
           style="fill:#5b5353;fill-opacity:1;fill-rule:nonzero;stroke:none"
           d="m 0,0 c -0.433,-5.629 -0.689,-21.565 -0.689,-21.565 0,-1.126 -7.498,-5.947 -12.644,-6.553 -6.274,-0.737 -12.552,1.477 -12.552,1.477 -0.767,0 -1.565,0.502 -1.622,1.527 -0.506,9.237 -1.477,19.366 -1.514,20.069 -0.193,3.66 -0.186,9.782 0.738,15.688 l 25.792,8.599 C -2.504,18.764 0.923,11.997 0,0" />
      </g>
      <g
         transform="matrix(0.35277777,0,0,-0.35277777,-83.46854,148.52817)"
         id="g2250">
        <path
           inkscape:connector-curvature="0"
           id="path2252"
           style="fill:#3a3535;fill-opacity:1;fill-rule:nonzero;stroke:none"
           d="m 0,0 c -0.093,-0.937 -0.173,-1.869 -0.229,-2.778 2.606,-1.016 8.778,-2.863 16.911,-1.621 5.704,0.869 9.382,3.869 10.153,4.429 1.23,0.895 1.112,1.662 1.711,2.587 -0.301,2.488 -0.76,4.495 -1.191,6.028 -0.238,0.418 -0.456,0.752 -0.618,0.995 L 2.498,4.059 0.439,3.537 C 0.288,2.568 0.169,1.595 0.063,0.627 0.041,0.417 0.02,0.21 0,0" />
      </g>
      <g
         transform="matrix(0.35277777,0,0,-0.35277777,-75.337074,129.95171)"
         id="g2254">
        <path
           inkscape:connector-curvature="0"
           id="path2256"
           style="fill:#b21b0b;fill-opacity:1;fill-rule:nonzero;stroke:none"
           d="m 0,0 5.537,-17.097 c 0,0 1.177,-3.391 1.017,-5.353 C 6.326,-25.214 4.485,-27.69 4.36,-27.894 3.045,-30.04 2.535,-32.955 3.182,-35.63 L 5.05,-47.167 c 0,0 0.119,-2.046 -5.881,-5.276 -9.523,-5.127 -21.477,-0.067 -21.477,-0.067 -0.487,0.436 0.515,5.628 0.621,6.157 l 1.566,8.448 c 0.279,1.317 0.374,2.67 0.279,4.011 l -3.322,11.26 c 0,0 -3.046,10.337 -0.094,13.659 2.564,2.882 7.476,6.922 9.968,8.491 0.627,0.393 2.031,1.014 3.692,1.477 0,0 6.068,1.291 9.598,-0.993" />
      </g>
      <g
         transform="matrix(0.35277777,0,0,-0.35277777,-76.53389,131.92952)"
         id="g2258">
        <path
           inkscape:connector-curvature="0"
           id="path2260"
           style="fill:#e8c5ac;fill-opacity:1;fill-rule:nonzero;stroke:none"
           d="M 0,0 C -4.43,-4.084 -6.759,0.417 -9.413,3.807 L -9.621,16.404 0.416,15.297 Z" />
      </g>
      <g
         transform="matrix(0.35277777,0,0,-0.35277777,-79.86219,129.17877)"
         id="g2262">
        <path
           inkscape:connector-curvature="0"
           id="path2264"
           style="fill:#ededed;fill-opacity:1;fill-rule:nonzero;stroke:none"
           d="m 0,0 c 0,0 -0.067,-1.596 -0.013,-1.884 0.919,-4.83 6.773,-6.813 6.773,-6.813 0.737,-0.392 0.691,-1.27 0.577,-2.423 l -0.44,-3.392 c -0.114,-1.107 -0.691,-0.992 -1.13,-0.53 0,0 -4.432,3.868 -5.676,5.168 -2.922,3.054 -2.669,3.742 -1.523,7.567 C -0.74,0 0,0 0,0" />
      </g>
      <g
         transform="matrix(0.35277777,0,0,-0.35277777,-80.405485,151.02601)"
         id="g2266">
        <path
           inkscape:connector-curvature="0"
           id="path2268"
           style="fill:#d32a1e;fill-opacity:1;fill-rule:nonzero;stroke:none"
           d="m 0,0 -6.89,-0.762 -3.817,24.429 -0.764,16.511 c -0.326,4.263 0.31,11.398 5.151,11.709 5.793,0.371 5.377,-7.522 5.377,-7.522 L -2.044,24.05 Z" />
      </g>
      <g
         transform="matrix(0.35277777,0,0,-0.35277777,-81.566847,152.32706)"
         id="g2270">
        <path
           inkscape:connector-curvature="0"
           id="path2272"
           style="fill:#ffe8d9;fill-opacity:1;fill-rule:nonzero;stroke:none"
           d="M 0,0 C 0.086,-1.584 2.208,-2.514 3.604,-2.44 4.09,-2.415 4.542,-5.374 5.316,-6.444 6.128,-7.571 7.252,-6.81 7.423,-6.453 7.558,-6.174 6.043,-1.902 5.701,-0.81 4.56,2.826 3.116,2.882 1.722,2.807 0.326,2.733 -0.082,1.585 0,0" />
      </g>
      <g
         transform="matrix(0.35277777,0,0,-0.35277777,-82.234471,151.42084)"
         id="g2274">
        <path
           inkscape:connector-curvature="0"
           id="path2276"
           style="fill:#ffe8d9;fill-opacity:1;fill-rule:nonzero;stroke:none"
           d="m 0,0 4.021,0.261 1.782,-4.849 0.044,-0.809 -0.271,-6.484 c 0,0 0.112,-3.126 -3.096,-3.336 -2.093,-0.136 -0.226,-0.015 -0.226,-0.015 -2.87,-0.187 -3.511,3.825 -3.511,3.825 l -0.79,6.88 C -2.198,-2.767 -1.846,-0.121 0,0" />
      </g>
      <g
         transform="matrix(0.35277777,0,0,-0.35277777,-81.761475,150.57732)"
         id="g2278">
        <path
           inkscape:connector-curvature="0"
           id="path2280"
           style="fill:#ededed;fill-opacity:1;fill-rule:nonzero;stroke:none"
           d="m 0,0 c -3.229,-0.115 -3.615,1.362 -3.598,1.258 0,0 -0.702,-0.517 -0.46,-1.425 0.076,-0.289 0.616,-3.628 1.066,-3.991 0,0 1.492,-1.067 5.499,-0.305 2.426,0.461 2.313,1.777 2.339,2.087 L 4.293,1.465 C 4.316,1.749 3.868,2.124 3.583,2.105 3.583,2.105 3.597,0.127 0,0" />
      </g>
      <g
         transform="matrix(0.35277777,0,0,-0.35277777,-77.160186,131.98688)"
         id="g2282">
        <path
           inkscape:connector-curvature="0"
           id="path2284"
           style="fill:#ededed;fill-opacity:1;fill-rule:nonzero;stroke:none"
           d="m 0,0 c -0.482,-0.61 -0.554,-0.969 -0.231,-1.43 l 2.629,-2.93 c 0.901,-1.108 1.017,-0.208 1.04,0.692 L 3.415,2.609 C 3.046,6.692 1.96,6.892 1.96,6.892 1.96,6.892 1.966,6.579 1.94,5.733 1.895,4.307 1.467,1.852 0,0" />
      </g>
      <g
         transform="matrix(0.35277777,0,0,-0.35277777,-77.388256,121.33207)"
         id="g2286">
        <path
           inkscape:connector-curvature="0"
           id="path2288"
           style="fill:#ffe1cc;fill-opacity:1;fill-rule:nonzero;stroke:none"
           d="m 0,0 c 6.645,-0.554 6.315,-6.092 6.184,-9.784 -0.093,-2.582 -0.83,-7.382 -0.83,-7.382 -1.028,-4.722 -2.867,-7.366 -5.445,-8.029 -3.231,-0.83 -7.372,1.612 -10.685,6.061 -2.936,3.941 -3.193,6.409 -3.223,6.995 L -15.254,2.333 C -15.254,2.333 -3.532,0.294 0,0" />
      </g>
      <g
         transform="matrix(0.35277777,0,0,-0.35277777,-78.629893,131.14318)"
         id="g2290">
        <path
           inkscape:connector-curvature="0"
           id="path2292"
           style="fill:#eda72b;fill-opacity:1;fill-rule:nonzero;stroke:none"
           d="m 0,0 c 0,0 -15.491,1.969 -18.076,16.92 -1.355,7.843 1.394,16.982 11.074,20.581 C -0.776,39.815 4.813,34.826 5.92,30.763 7.324,25.613 5.537,21.802 1.951,19.688 -4.629,15.813 -4.601,12.112 -4.324,9.354 -3.902,5.153 -1.814,1.622 0,0" />
      </g>
      <g
         transform="matrix(0.35277777,0,0,-0.35277777,-80.391701,177.54241)"
         id="g2294">
        <path
           inkscape:connector-curvature="0"
           id="path2296"
           style="fill:#5b5454;fill-opacity:1;fill-rule:nonzero;stroke:none"
           d="M 0,0 3.086,1.359 0.969,3.807 h -1.733 z" />
      </g>
      <g
         transform="matrix(0.35277777,0,0,-0.35277777,-81.343909,176.05292)"
         id="g2298">
        <path
           inkscape:connector-curvature="0"
           id="path2300"
           style="fill:#7c7676;fill-opacity:1;fill-rule:nonzero;stroke:none"
           d="m 0,0 0.636,-3.05 c 0,0 0.073,-0.549 1.3,-0.965 0.32,-0.108 0.763,-0.207 0.763,-0.207 l 0.277,3.461 z" />
      </g>
      <g
         transform="matrix(0.35277777,0,0,-0.35277777,-74.813755,179.24411)"
         id="g2302">
        <path
           inkscape:connector-curvature="0"
           id="path2304"
           style="fill:#7c7676;fill-opacity:1;fill-rule:nonzero;stroke:none"
           d="M 0,0 C 1.44,0.872 0.846,2.652 0.746,2.848 -0.085,4.509 -1.419,4.254 -1.419,4.254 -0.684,3.288 -3.351,2.24 -4.944,2.193 -6.883,2.137 -8.895,3.485 -11.109,4.73 c -1.569,0.883 -3.154,2.861 -4.149,3.832 -3.046,2.976 -3.21,5.553 -3.21,5.553 0,0 -0.251,-0.974 -0.251,-2.553 0,-2.315 0.969,-2.724 0.969,-2.724 0,0 0.126,-0.808 2.215,-1.73 2.353,-1.039 3.959,-5.156 7.039,-6.696 C -5.944,-0.864 -2.094,-1.266 0,0" />
      </g>
      <g
         transform="matrix(0.35277777,0,0,-0.35277777,-74.850267,178.98281)"
         id="g2306">
        <path
           inkscape:connector-curvature="0"
           id="path2308"
           style="fill:#b21b0b;fill-opacity:1;fill-rule:nonzero;stroke:none"
           d="m 0,0 c 1.592,0.969 1.332,2.302 -1.194,4.828 -0.104,0.104 -0.68,0.637 -0.68,0.637 0.736,-0.965 0.552,-2.411 -1.998,-2.836 -2.076,-0.346 -4.292,0.208 -6.507,1.938 -1.416,1.109 -3.529,2.423 -5.537,4.846 -2.963,3.577 -2.354,6.298 -2.354,6.298 0,0 -1.591,-1.176 -1.176,-4.084 0.329,-2.291 1.216,-3.724 1.216,-3.724 l 3.421,-1.605 C -12.526,5.214 -12.067,2.187 -8.376,0.467 -4.586,-1.297 -1.508,-0.917 0,0" />
      </g>
    </g>
  </g>
</svg>
