<?xml version="1.0" encoding="UTF-8" standalone="no"?>
<!-- Created with Inkscape (http://www.inkscape.org/) -->

<svg
   xmlns:dc="http://purl.org/dc/elements/1.1/"
   xmlns:cc="http://creativecommons.org/ns#"
   xmlns:rdf="http://www.w3.org/1999/02/22-rdf-syntax-ns#"
   xmlns:svg="http://www.w3.org/2000/svg"
   xmlns="http://www.w3.org/2000/svg"
   xmlns:sodipodi="http://sodipodi.sourceforge.net/DTD/sodipodi-0.dtd"
   xmlns:inkscape="http://www.inkscape.org/namespaces/inkscape"
   width="3.4354331mm"
   height="4.4339781mm"
   viewBox="0 0 3.4354327 4.4339781"
   version="1.1"
   id="svg45331"
   inkscape:version="0.92.2 (5c3e80d, 2017-08-06)"
   sodipodi:docname="people-casual-20.svg">
  <defs
     id="defs45325">
    <clipPath
       id="clipPath2864"
       clipPathUnits="userSpaceOnUse">
      <path
         inkscape:connector-curvature="0"
         id="path2862"
         d="m 1713.778,1928.833 c -0.536,-0.312 -0.927,-0.874 -1.106,-1.65 v 0 l 1.125,0.653 c 0.179,0.778 0.57,1.34 1.107,1.651 v 0 z" />
    </clipPath>
    <clipPath
       id="clipPath2848"
       clipPathUnits="userSpaceOnUse">
      <path
         inkscape:connector-curvature="0"
         id="path2846"
         d="M 0,2119.953 H 3253.108 V 0 H 0 Z" />
    </clipPath>
    <clipPath
       id="clipPath2836"
       clipPathUnits="userSpaceOnUse">
      <path
         inkscape:connector-curvature="0"
         id="path2834"
         d="m 1711.152,1926.674 v -0.651 c 0.308,-0.179 0.813,-0.18 1.126,0 v 0 0.651 c -0.315,-0.183 -0.82,-0.178 -1.129,0" />
    </clipPath>
    <clipPath
       id="clipPath2820"
       clipPathUnits="userSpaceOnUse">
      <path
         inkscape:connector-curvature="0"
         id="path2818"
         d="M 0,2119.953 H 3253.108 V 0 H 0 Z" />
    </clipPath>
    <clipPath
       id="clipPath2808"
       clipPathUnits="userSpaceOnUse">
      <path
         inkscape:connector-curvature="0"
         id="path2806"
         d="m 1710.148,1926.8 c 0,-0.121 0.077,-0.238 0.231,-0.325 v 0 0.65 c -0.156,0.087 -0.233,0.207 -0.233,0.324 v 0 -0.649 z" />
    </clipPath>
    <clipPath
       id="clipPath2796"
       clipPathUnits="userSpaceOnUse">
      <path
         inkscape:connector-curvature="0"
         id="path2794"
         d="m 1714.756,1928.103 v -0.65 c 0.158,0.09 0.237,0.211 0.237,0.331 v 0 0.65 c 0,-0.119 -0.078,-0.24 -0.236,-0.331" />
    </clipPath>
    <clipPath
       id="clipPath2784"
       clipPathUnits="userSpaceOnUse">
      <path
         inkscape:connector-curvature="0"
         id="path2782"
         d="M 0,2119.953 H 3253.108 V 0 H 0 Z" />
    </clipPath>
    <clipPath
       id="clipPath2772"
       clipPathUnits="userSpaceOnUse">
      <path
         inkscape:connector-curvature="0"
         id="path2770"
         d="m 1720.53,1921.188 10e-4,-0.65 c 0.309,-0.181 0.814,-0.181 1.128,0 v 0 0.65 c -0.316,-0.182 -0.821,-0.181 -1.129,0" />
    </clipPath>
    <clipPath
       id="clipPath2756"
       clipPathUnits="userSpaceOnUse">
      <path
         inkscape:connector-curvature="0"
         id="path2754"
         d="M 0,2119.953 H 3253.108 V 0 H 0 Z" />
    </clipPath>
    <clipPath
       id="clipPath2744"
       clipPathUnits="userSpaceOnUse">
      <path
         inkscape:connector-curvature="0"
         id="path2742"
         d="m 1719.524,1921.312 c 0,-0.119 0.08,-0.235 0.234,-0.324 v 0 0.65 c -0.154,0.089 -0.233,0.207 -0.233,0.324 v 0 -0.65 z" />
    </clipPath>
    <clipPath
       id="clipPath2732"
       clipPathUnits="userSpaceOnUse">
      <path
         inkscape:connector-curvature="0"
         id="path2730"
         d="m 1724.133,1922.619 v -0.654 c 0.158,0.094 0.238,0.212 0.238,0.331 v 0 0.65 c 0,-0.117 -0.08,-0.238 -0.238,-0.327" />
    </clipPath>
    <clipPath
       id="clipPath2536"
       clipPathUnits="userSpaceOnUse">
      <path
         inkscape:connector-curvature="0"
         id="path2534"
         d="m 1708.77,1889.11 h 53.56 v -38.31 h -53.56 z" />
    </clipPath>
    <clipPath
       id="clipPath3428"
       clipPathUnits="userSpaceOnUse">
      <path
         inkscape:connector-curvature="0"
         id="path3426"
         d="m 1819.231,1919.634 0.051,-0.722 c 0.167,0.114 0.248,0.253 0.238,0.383 v 0 l -0.048,0.721 c 0.01,-0.131 -0.071,-0.272 -0.241,-0.382" />
    </clipPath>
    <clipPath
       id="clipPath3440"
       clipPathUnits="userSpaceOnUse">
      <path
         inkscape:connector-curvature="0"
         id="path3438"
         d="m 1814.225,1917.859 c 0.01,-0.132 0.103,-0.255 0.282,-0.343 v 0 l -0.049,0.721 c -0.177,0.085 -0.273,0.212 -0.281,0.34 v 0 z" />
    </clipPath>
    <clipPath
       id="clipPath3452"
       clipPathUnits="userSpaceOnUse">
      <path
         inkscape:connector-curvature="0"
         id="path3450"
         d="M 0,2119.953 H 3253.108 V 0 H 0 Z" />
    </clipPath>
    <clipPath
       id="clipPath3468"
       clipPathUnits="userSpaceOnUse">
      <path
         inkscape:connector-curvature="0"
         id="path3466"
         d="m 1815.349,1917.792 0.046,-0.72 c 0.354,-0.177 0.915,-0.14 1.248,0.082 v 0 l -0.048,0.721 c -0.335,-0.223 -0.893,-0.259 -1.246,-0.083" />
    </clipPath>
    <clipPath
       id="clipPath3480"
       clipPathUnits="userSpaceOnUse">
      <path
         inkscape:connector-curvature="0"
         id="path3478"
         d="M 0,2119.953 H 3253.108 V 0 H 0 Z" />
    </clipPath>
    <clipPath
       id="clipPath3492"
       clipPathUnits="userSpaceOnUse">
      <path
         inkscape:connector-curvature="0"
         id="path3490"
         d="m 1808.461,1925.033 0.049,-0.719 c 0.167,0.112 0.245,0.25 0.238,0.383 v 0 l -0.049,0.719 c 0.01,-0.131 -0.07,-0.268 -0.238,-0.383" />
    </clipPath>
    <clipPath
       id="clipPath3504"
       clipPathUnits="userSpaceOnUse">
      <path
         inkscape:connector-curvature="0"
         id="path3502"
         d="m 1803.454,1923.259 c 0.01,-0.132 0.102,-0.258 0.279,-0.342 v 0 l -0.048,0.72 c -0.177,0.086 -0.273,0.214 -0.28,0.342 v 0 z" />
    </clipPath>
    <clipPath
       id="clipPath3516"
       clipPathUnits="userSpaceOnUse">
      <path
         inkscape:connector-curvature="0"
         id="path3514"
         d="M 0,2119.953 H 3253.108 V 0 H 0 Z" />
    </clipPath>
    <clipPath
       id="clipPath3532"
       clipPathUnits="userSpaceOnUse">
      <path
         inkscape:connector-curvature="0"
         id="path3530"
         d="m 1804.576,1923.193 0.047,-0.721 c 0.353,-0.175 0.915,-0.14 1.248,0.081 v 0 l -0.049,0.722 c -0.333,-0.223 -0.894,-0.258 -1.246,-0.082" />
    </clipPath>
    <clipPath
       id="clipPath3544"
       clipPathUnits="userSpaceOnUse">
      <path
         inkscape:connector-curvature="0"
         id="path3542"
         d="M 0,2119.953 H 3253.108 V 0 H 0 Z" />
    </clipPath>
    <clipPath
       id="clipPath3560"
       clipPathUnits="userSpaceOnUse">
      <path
         inkscape:connector-curvature="0"
         id="path3558"
         d="m 1807.327,1925.772 c -0.572,-0.383 -0.964,-1.034 -1.106,-1.907 v 0 l 1.197,0.803 c 0.144,0.873 0.537,1.525 1.109,1.907 v 0 z" />
    </clipPath>
    <clipPath
       id="clipPath3240"
       clipPathUnits="userSpaceOnUse">
      <path
         inkscape:connector-curvature="0"
         id="path3238"
         d="m 1804.45,1875.26 h 66.26 v -26.97 h -66.26 z" />
    </clipPath>
    <clipPath
       id="clipPath3596"
       clipPathUnits="userSpaceOnUse">
      <path
         inkscape:connector-curvature="0"
         id="path3594"
         d="m 1887.55,1874.88 h 68.5 v -28.2 h -68.5 z" />
    </clipPath>
    <clipPath
       id="clipPath3760"
       clipPathUnits="userSpaceOnUse">
      <path
         inkscape:connector-curvature="0"
         id="path3758"
         d="m 1940.709,1921.043 c -0.01,-0.134 0.073,-0.277 0.243,-0.394 v 0 l 0.052,0.743 c -0.176,0.111 -0.256,0.256 -0.246,0.388 v 0 z" />
    </clipPath>
    <clipPath
       id="clipPath3772"
       clipPathUnits="userSpaceOnUse">
      <path
         inkscape:connector-curvature="0"
         id="path3770"
         d="m 1945.896,1919.955 -0.048,-0.737 c 0.182,0.088 0.281,0.215 0.289,0.351 v 0 l 0.048,0.737 c -0.01,-0.134 -0.106,-0.261 -0.289,-0.351" />
    </clipPath>
    <clipPath
       id="clipPath3784"
       clipPathUnits="userSpaceOnUse">
      <path
         inkscape:connector-curvature="0"
         id="path3782"
         d="M 0,2119.953 H 3253.108 V 0 H 0 Z" />
    </clipPath>
    <clipPath
       id="clipPath3800"
       clipPathUnits="userSpaceOnUse">
      <path
         inkscape:connector-curvature="0"
         id="path3798"
         d="m 1943.658,1918.845 c 0.343,-0.226 0.914,-0.264 1.28,-0.084 v 0 l 0.047,0.741 c -0.361,-0.182 -0.936,-0.146 -1.28,0.084 v 0 z" />
    </clipPath>
    <clipPath
       id="clipPath3812"
       clipPathUnits="userSpaceOnUse">
      <path
         inkscape:connector-curvature="0"
         id="path3810"
         d="M 0,2119.953 H 3253.108 V 0 H 0 Z" />
    </clipPath>
    <clipPath
       id="clipPath3824"
       clipPathUnits="userSpaceOnUse">
      <path
         inkscape:connector-curvature="0"
         id="path3822"
         d="m 1951.754,1926.58 c -0.01,-0.136 0.071,-0.278 0.241,-0.392 v 0 l 0.052,0.737 c -0.174,0.117 -0.253,0.258 -0.245,0.391 v 0 z" />
    </clipPath>
    <clipPath
       id="clipPath3836"
       clipPathUnits="userSpaceOnUse">
      <path
         inkscape:connector-curvature="0"
         id="path3834"
         d="m 1956.943,1925.491 -0.049,-0.737 c 0.18,0.088 0.277,0.215 0.287,0.352 v 0 l 0.049,0.737 c -0.01,-0.132 -0.104,-0.262 -0.287,-0.352" />
    </clipPath>
    <clipPath
       id="clipPath3848"
       clipPathUnits="userSpaceOnUse">
      <path
         inkscape:connector-curvature="0"
         id="path3846"
         d="M 0,2119.953 H 3253.108 V 0 H 0 Z" />
    </clipPath>
    <clipPath
       id="clipPath3864"
       clipPathUnits="userSpaceOnUse">
      <path
         inkscape:connector-curvature="0"
         id="path3862"
         d="m 1954.703,1924.383 c 0.34,-0.229 0.916,-0.262 1.279,-0.086 v 0 l 0.049,0.743 c -0.361,-0.183 -0.938,-0.15 -1.279,0.081 v 0 z" />
    </clipPath>
    <clipPath
       id="clipPath3876"
       clipPathUnits="userSpaceOnUse">
      <path
         inkscape:connector-curvature="0"
         id="path3874"
         d="M 0,2119.953 H 3253.108 V 0 H 0 Z" />
    </clipPath>
    <clipPath
       id="clipPath3892"
       clipPathUnits="userSpaceOnUse">
      <path
         inkscape:connector-curvature="0"
         id="path3890"
         d="m 1953.117,1926.55 1.227,-0.822 c -0.145,0.891 -0.551,1.561 -1.133,1.955 v 0 l -1.232,0.823 c 0.588,-0.393 0.989,-1.061 1.138,-1.956" />
    </clipPath>
    <clipPath
       id="clipPath3948"
       clipPathUnits="userSpaceOnUse">
      <path
         inkscape:connector-curvature="0"
         id="path3946"
         d="m 2018.76,1870.93 h 70.11 v -23.75 h -70.11 z" />
    </clipPath>
    <clipPath
       id="clipPath4212"
       clipPathUnits="userSpaceOnUse">
      <path
         inkscape:connector-curvature="0"
         id="path4210"
         d="m 2154.433,1916.311 c 0,-0.141 0.087,-0.289 0.273,-0.405 v 0 l 0.028,0.784 c -0.187,0.117 -0.276,0.264 -0.271,0.407 v 0 z" />
    </clipPath>
    <clipPath
       id="clipPath4224"
       clipPathUnits="userSpaceOnUse">
      <path
         inkscape:connector-curvature="0"
         id="path4222"
         d="m 2159.973,1915.328 -0.03,-0.782 c 0.192,0.1 0.289,0.239 0.295,0.381 v 0 l 0.027,0.785 c 0,-0.142 -0.103,-0.28 -0.292,-0.384" />
    </clipPath>
    <clipPath
       id="clipPath4236"
       clipPathUnits="userSpaceOnUse">
      <path
         inkscape:connector-curvature="0"
         id="path4234"
         d="M 0,2119.953 H 3253.108 V 0 H 0 Z" />
    </clipPath>
    <clipPath
       id="clipPath4252"
       clipPathUnits="userSpaceOnUse">
      <path
         inkscape:connector-curvature="0"
         id="path4250"
         d="m 2157.634,1914.081 c 0.368,-0.23 0.978,-0.251 1.357,-0.046 v 0 l 0.029,0.783 c -0.377,-0.203 -0.988,-0.185 -1.36,0.049 v 0 z" />
    </clipPath>
    <clipPath
       id="clipPath4264"
       clipPathUnits="userSpaceOnUse">
      <path
         inkscape:connector-curvature="0"
         id="path4262"
         d="M 0,2119.953 H 3253.108 V 0 H 0 Z" />
    </clipPath>
    <clipPath
       id="clipPath4276"
       clipPathUnits="userSpaceOnUse">
      <path
         inkscape:connector-curvature="0"
         id="path4274"
         d="m 2165.961,1922.544 c 0,-0.146 0.086,-0.293 0.271,-0.409 v 0 l 0.032,0.784 c -0.188,0.117 -0.279,0.265 -0.274,0.408 v 0 z" />
    </clipPath>
    <clipPath
       id="clipPath4288"
       clipPathUnits="userSpaceOnUse">
      <path
         inkscape:connector-curvature="0"
         id="path4286"
         d="m 2171.5,1921.561 -0.028,-0.785 c 0.189,0.101 0.287,0.239 0.293,0.379 v 0 l 0.028,0.787 c 0,-0.142 -0.102,-0.281 -0.293,-0.381" />
    </clipPath>
    <clipPath
       id="clipPath4300"
       clipPathUnits="userSpaceOnUse">
      <path
         inkscape:connector-curvature="0"
         id="path4298"
         d="M 0,2119.953 H 3253.108 V 0 H 0 Z" />
    </clipPath>
    <clipPath
       id="clipPath4316"
       clipPathUnits="userSpaceOnUse">
      <path
         inkscape:connector-curvature="0"
         id="path4314"
         d="m 2169.16,1920.31 c 0.37,-0.229 0.979,-0.249 1.359,-0.045 v 0 l 0.03,0.784 c -0.379,-0.201 -0.99,-0.186 -1.36,0.046 v 0 z" />
    </clipPath>
    <clipPath
       id="clipPath4328"
       clipPathUnits="userSpaceOnUse">
      <path
         inkscape:connector-curvature="0"
         id="path4326"
         d="M 0,2119.953 H 3253.108 V 0 H 0 Z" />
    </clipPath>
    <clipPath
       id="clipPath4344"
       clipPathUnits="userSpaceOnUse">
      <path
         inkscape:connector-curvature="0"
         id="path4342"
         d="m 2167.406,1922.556 1.331,-0.832 c -0.186,0.942 -0.633,1.637 -1.266,2.036 v 0 l -1.332,0.833 c 0.636,-0.396 1.084,-1.091 1.267,-2.037" />
    </clipPath>
    <clipPath
       id="clipPath4598"
       clipPathUnits="userSpaceOnUse">
      <path
         inkscape:connector-curvature="0"
         id="path4596"
         d="m 2331.633,1939.514 c 0,-0.142 0.1,-0.287 0.296,-0.396 v 0 0.783 c -0.196,0.107 -0.292,0.246 -0.292,0.387 v 0 -0.774 z" />
    </clipPath>
    <clipPath
       id="clipPath4610"
       clipPathUnits="userSpaceOnUse">
      <path
         inkscape:connector-curvature="0"
         id="path4608"
         d="m 2337.17,1938.719 v -0.771 c 0.189,0.099 0.285,0.249 0.285,0.379 v 0 0.787 c 0,-0.14 -0.091,-0.287 -0.283,-0.395" />
    </clipPath>
    <clipPath
       id="clipPath4622"
       clipPathUnits="userSpaceOnUse">
      <path
         inkscape:connector-curvature="0"
         id="path4620"
         d="M 0,2119.953 H 3253.108 V 0 H 0 Z" />
    </clipPath>
    <clipPath
       id="clipPath4638"
       clipPathUnits="userSpaceOnUse">
      <path
         inkscape:connector-curvature="0"
         id="path4636"
         d="m 2334.888,1938.187 v -0.785 c 0.382,-0.217 0.981,-0.217 1.349,0 v 0 0.785 c -0.368,-0.217 -0.963,-0.217 -1.349,0" />
    </clipPath>
    <clipPath
       id="clipPath4650"
       clipPathUnits="userSpaceOnUse">
      <path
         inkscape:connector-curvature="0"
         id="path4648"
         d="M 0,2119.953 H 3253.108 V 0 H 0 Z" />
    </clipPath>
    <clipPath
       id="clipPath4662"
       clipPathUnits="userSpaceOnUse">
      <path
         inkscape:connector-curvature="0"
         id="path4660"
         d="m 2342.868,1946.09 c 0,-0.141 0.101,-0.294 0.291,-0.401 v 0 l 0.01,0.777 c -0.195,0.113 -0.291,0.255 -0.291,0.401 v 0 z" />
    </clipPath>
    <clipPath
       id="clipPath4674"
       clipPathUnits="userSpaceOnUse">
      <path
         inkscape:connector-curvature="0"
         id="path4672"
         d="m 2348.401,1945.298 v -0.782 c 0.182,0.104 0.277,0.25 0.277,0.39 v 0 l 0.01,0.781 c 0,-0.143 -0.095,-0.282 -0.282,-0.389" />
    </clipPath>
    <clipPath
       id="clipPath4686"
       clipPathUnits="userSpaceOnUse">
      <path
         inkscape:connector-curvature="0"
         id="path4684"
         d="M 0,2119.953 H 3253.108 V 0 H 0 Z" />
    </clipPath>
    <clipPath
       id="clipPath4702"
       clipPathUnits="userSpaceOnUse">
      <path
         inkscape:connector-curvature="0"
         id="path4700"
         d="m 2346.127,1944.756 v -0.778 c 0.376,-0.212 0.982,-0.212 1.348,0 v 0 0.778 c -0.366,-0.213 -0.972,-0.213 -1.348,0" />
    </clipPath>
    <clipPath
       id="clipPath4714"
       clipPathUnits="userSpaceOnUse">
      <path
         inkscape:connector-curvature="0"
         id="path4712"
         d="M 0,2119.953 H 3253.108 V 0 H 0 Z" />
    </clipPath>
    <clipPath
       id="clipPath4730"
       clipPathUnits="userSpaceOnUse">
      <path
         inkscape:connector-curvature="0"
         id="path4728"
         d="m 2343.05,1948.089 c -0.023,0.013 -0.045,0.026 -0.068,0.038 v 0 z m 1.257,-1.939 1.349,-0.782 c -0.21,0.926 -0.683,1.603 -1.326,1.976 v 0 l -1.28,0.745 c 0.612,-0.371 1.048,-1.041 1.257,-1.939" />
    </clipPath>
    <clipPath
       id="clipPath4742"
       clipPathUnits="userSpaceOnUse">
      <path
         inkscape:connector-curvature="0"
         id="path4740"
         d="M 0,2119.953 H 3253.108 V 0 H 0 Z" />
    </clipPath>
    <clipPath
       id="clipPath4918"
       clipPathUnits="userSpaceOnUse">
      <path
         inkscape:connector-curvature="0"
         id="path4916"
         d="m 2276.169,1866.541 c 0,-0.151 0.1,-0.291 0.285,-0.401 v 0 0.785 c -0.19,0.105 -0.286,0.259 -0.286,0.394 v 0 -0.778 z" />
    </clipPath>
    <clipPath
       id="clipPath4930"
       clipPathUnits="userSpaceOnUse">
      <path
         inkscape:connector-curvature="0"
         id="path4928"
         d="m 2281.734,1865.741 -0.01,-0.776 c 0.185,0.103 0.278,0.244 0.278,0.385 v 0 0.786 c 0,-0.141 -0.096,-0.281 -0.276,-0.395" />
    </clipPath>
    <clipPath
       id="clipPath4942"
       clipPathUnits="userSpaceOnUse">
      <path
         inkscape:connector-curvature="0"
         id="path4940"
         d="M 0,2119.953 H 3253.108 V 0 H 0 Z" />
    </clipPath>
    <clipPath
       id="clipPath4958"
       clipPathUnits="userSpaceOnUse">
      <path
         inkscape:connector-curvature="0"
         id="path4956"
         d="m 2279.442,1865.203 v -0.782 c 0.372,-0.219 0.983,-0.219 1.351,0 v 0 0.782 c -0.372,-0.221 -0.983,-0.221 -1.355,0" />
    </clipPath>
    <clipPath
       id="clipPath4970"
       clipPathUnits="userSpaceOnUse">
      <path
         inkscape:connector-curvature="0"
         id="path4968"
         d="M 0,2119.953 H 3253.108 V 0 H 0 Z" />
    </clipPath>
    <clipPath
       id="clipPath4982"
       clipPathUnits="userSpaceOnUse">
      <path
         inkscape:connector-curvature="0"
         id="path4980"
         d="m 2287.467,1873.148 c 0,-0.144 0.095,-0.29 0.287,-0.404 v 0 0.786 c -0.191,0.114 -0.29,0.258 -0.29,0.404 v 0 -0.786 z" />
    </clipPath>
    <clipPath
       id="clipPath4994"
       clipPathUnits="userSpaceOnUse">
      <path
         inkscape:connector-curvature="0"
         id="path4992"
         d="m 2293.032,1872.36 v -0.782 c 0.191,0.096 0.282,0.241 0.282,0.378 v 0 0.788 c 0,-0.14 -0.094,-0.281 -0.281,-0.384" />
    </clipPath>
    <clipPath
       id="clipPath5006"
       clipPathUnits="userSpaceOnUse">
      <path
         inkscape:connector-curvature="0"
         id="path5004"
         d="M 0,2119.953 H 3253.108 V 0 H 0 Z" />
    </clipPath>
    <clipPath
       id="clipPath5022"
       clipPathUnits="userSpaceOnUse">
      <path
         inkscape:connector-curvature="0"
         id="path5020"
         d="m 2290.745,1871.81 -0.01,-0.78 c 0.377,-0.22 0.986,-0.214 1.353,0 v 0 0.78 c -0.371,-0.212 -0.98,-0.212 -1.351,0" />
    </clipPath>
    <clipPath
       id="clipPath5034"
       clipPathUnits="userSpaceOnUse">
      <path
         inkscape:connector-curvature="0"
         id="path5032"
         d="M 0,2119.953 H 3253.108 V 0 H 0 Z" />
    </clipPath>
    <clipPath
       id="clipPath5050"
       clipPathUnits="userSpaceOnUse">
      <path
         inkscape:connector-curvature="0"
         id="path5048"
         d="m 2288.91,1873.212 1.359,-0.784 c -0.216,0.934 -0.691,1.61 -1.337,1.987 v 0 l -1.356,0.791 c 0.652,-0.377 1.121,-1.054 1.334,-1.994" />
    </clipPath>
    <clipPath
       id="clipPath4408"
       clipPathUnits="userSpaceOnUse">
      <path
         inkscape:connector-curvature="0"
         id="path4406"
         d="m 2301.08,1906.05 h 45.97 v -31.57 h -45.97 z" />
    </clipPath>
    <clipPath
       id="clipPath4392"
       clipPathUnits="userSpaceOnUse">
      <path
         inkscape:connector-curvature="0"
         id="path4390"
         d="m 2227.58,1871.71 h 52.38 v -32.03 h -52.38 z" />
    </clipPath>
    <clipPath
       id="clipPath5114"
       clipPathUnits="userSpaceOnUse">
      <path
         inkscape:connector-curvature="0"
         id="path5112"
         d="m 2417.33,1884.9 h 51.88 v -27.05 h -51.88 z" />
    </clipPath>
    <clipPath
       id="clipPath5554"
       clipPathUnits="userSpaceOnUse">
      <path
         inkscape:connector-curvature="0"
         id="path5552"
         d="m 2532.68,1877.97 h 61.16 v -27.88 h -61.16 z" />
    </clipPath>
    <clipPath
       id="clipPath5662"
       clipPathUnits="userSpaceOnUse">
      <path
         inkscape:connector-curvature="0"
         id="path5660"
         d="m 2652.02,1878.72 h 75.96 v -28.55 h -75.96 z" />
    </clipPath>
    <clipPath
       id="clipPath5782"
       clipPathUnits="userSpaceOnUse">
      <path
         inkscape:connector-curvature="0"
         id="path5780"
         d="m 2686.34,2040.48 h 6.76 v -5.02 h -6.76 z" />
    </clipPath>
    <clipPath
       id="clipPath5454"
       clipPathUnits="userSpaceOnUse">
      <path
         inkscape:connector-curvature="0"
         id="path5452"
         d="m 2763.78,1887.52 h 61.17 v -27.89 h -61.17 z" />
    </clipPath>
    <clipPath
       id="clipPath5226"
       clipPathUnits="userSpaceOnUse">
      <path
         inkscape:connector-curvature="0"
         id="path5224"
         d="m 2874.06,1879.83 h 115.04 v -37.41 h -115.04 z" />
    </clipPath>
    <clipPath
       id="clipPath5266"
       clipPathUnits="userSpaceOnUse">
      <path
         inkscape:connector-curvature="0"
         id="path5264"
         d="m 2898.47,1905.023 c -0.019,-0.014 -0.036,-0.025 -0.058,-0.038 v 0 c -0.579,-0.382 -0.588,-1.091 -0.535,-1.501 v 0 l 39.797,23.128 c -0.051,0.406 -0.042,1.119 0.537,1.502 v 0 c 0.018,0.012 0.037,0.024 0.058,0.036 v 0 c -13.266,-7.711 -26.531,-15.418 -39.799,-23.127" />
    </clipPath>
    <clipPath
       id="clipPath3000"
       clipPathUnits="userSpaceOnUse">
      <path
         inkscape:connector-curvature="0"
         id="path2998"
         d="m 3070.44,1903.77 h 111.77 v -40.19 h -111.77 z" />
    </clipPath>
    <clipPath
       id="clipPath6042"
       clipPathUnits="userSpaceOnUse">
      <path
         inkscape:connector-curvature="0"
         id="path6040"
         d="m 409.323,1548.74 h 49.951 v -25.11 h -49.951 z" />
    </clipPath>
    <clipPath
       id="clipPath5930"
       clipPathUnits="userSpaceOnUse">
      <path
         inkscape:connector-curvature="0"
         id="path5928"
         d="m 516.004,1548.66 h 54.751 v -25.03 h -54.751 z" />
    </clipPath>
    <clipPath
       id="clipPath6142"
       clipPathUnits="userSpaceOnUse">
      <path
         inkscape:connector-curvature="0"
         id="path6140"
         d="m 636.118,1542.78 h 45.362 v -19.15 h -45.362 z" />
    </clipPath>
    <clipPath
       id="clipPath6318"
       clipPathUnits="userSpaceOnUse">
      <path
         inkscape:connector-curvature="0"
         id="path6316"
         d="m 763.75,1602.23 h 22.211 v -7.49 H 763.75 Z" />
    </clipPath>
    <clipPath
       id="clipPath6242"
       clipPathUnits="userSpaceOnUse">
      <path
         inkscape:connector-curvature="0"
         id="path6240"
         d="m 749.178,1542.78 h 45.362 v -19.15 h -45.362 z" />
    </clipPath>
    <clipPath
       id="clipPath6358"
       clipPathUnits="userSpaceOnUse">
      <path
         inkscape:connector-curvature="0"
         id="path6356"
         d="m 859.142,1541.98 h 55.33 v -18.35 h -55.33 z" />
    </clipPath>
    <clipPath
       id="clipPath6562"
       clipPathUnits="userSpaceOnUse">
      <path
         inkscape:connector-curvature="0"
         id="path6560"
         d="m 972.921,1548.99 h 50.329 v -25.36 h -50.329 z" />
    </clipPath>
    <clipPath
       id="clipPath6898"
       clipPathUnits="userSpaceOnUse">
      <path
         inkscape:connector-curvature="0"
         id="path6896"
         d="m 1113.757,1660.871 0.977,-0.369 c -0.337,0.508 -0.215,1.396 0.271,1.968 v 0 l -0.978,0.368 c -0.484,-0.573 -0.605,-1.457 -0.27,-1.967" />
    </clipPath>
    <clipPath
       id="clipPath6882"
       clipPathUnits="userSpaceOnUse">
      <path
         inkscape:connector-curvature="0"
         id="path6880"
         d="M 0,2119.953 H 3253.108 V 0 H 0 Z" />
    </clipPath>
    <clipPath
       id="clipPath6870"
       clipPathUnits="userSpaceOnUse">
      <path
         inkscape:connector-curvature="0"
         id="path6868"
         d="m 1120.652,1670.681 0.975,-0.367 c 0.342,0.405 0.774,0.55 1.118,0.419 v 0 l -0.98,0.369 c -0.082,0.031 -0.168,0.047 -0.258,0.047 v 0 c -0.283,0 -0.596,-0.157 -0.855,-0.468" />
    </clipPath>
    <clipPath
       id="clipPath6858"
       clipPathUnits="userSpaceOnUse">
      <path
         inkscape:connector-curvature="0"
         id="path6856"
         d="m 1116.5,1656.939 0.98,-0.367 c -0.144,0.053 -0.271,0.155 -0.374,0.304 v 0 l -0.973,0.368 c 0.098,-0.15 0.226,-0.25 0.367,-0.305" />
    </clipPath>
    <clipPath
       id="clipPath6798"
       clipPathUnits="userSpaceOnUse">
      <path
         inkscape:connector-curvature="0"
         id="path6796"
         d="m 1085.74,1549.12 h 50.59 v -25.49 h -50.59 z" />
    </clipPath>
    <clipPath
       id="clipPath6450"
       clipPathUnits="userSpaceOnUse">
      <path
         inkscape:connector-curvature="0"
         id="path6448"
         d="m 1192.19,1544.97 h 58.91 v -21.34 h -58.91 z" />
    </clipPath>
    <clipPath
       id="clipPath7190"
       clipPathUnits="userSpaceOnUse">
      <path
         inkscape:connector-curvature="0"
         id="path7188"
         d="m 1415.1,1546.39 h 59.78 v -22.76 h -59.78 z" />
    </clipPath>
    <clipPath
       id="clipPath7322"
       clipPathUnits="userSpaceOnUse">
      <path
         inkscape:connector-curvature="0"
         id="path7320"
         d="m 1529.94,1551.96 h 66.67 v -28.33 h -66.67 z" />
    </clipPath>
    <clipPath
       id="clipPath7582"
       clipPathUnits="userSpaceOnUse">
      <path
         inkscape:connector-curvature="0"
         id="path7580"
         d="m 1678.67,1677.25 h 3.75 v -4.02 h -3.75 z" />
    </clipPath>
    <clipPath
       id="clipPath7566"
       clipPathUnits="userSpaceOnUse">
      <path
         inkscape:connector-curvature="0"
         id="path7564"
         d="m 1671.46,1674.81 h 5.24 v -3.89 h -5.24 z" />
    </clipPath>
    <clipPath
       id="clipPath7462"
       clipPathUnits="userSpaceOnUse">
      <path
         inkscape:connector-curvature="0"
         id="path7460"
         d="m 1648.93,1550.63 h 57.38 v -27 h -57.38 z" />
    </clipPath>
    <clipPath
       id="clipPath8174"
       clipPathUnits="userSpaceOnUse">
      <path
         inkscape:connector-curvature="0"
         id="path8172"
         d="m 1758.53,1552.63 h 42.25 v -29 h -42.25 z" />
    </clipPath>
    <clipPath
       id="clipPath8038"
       clipPathUnits="userSpaceOnUse">
      <path
         inkscape:connector-curvature="0"
         id="path8036"
         d="m 1882.656,1601.848 c 0,-0.062 0.041,-0.123 0.122,-0.172 v 0 l 10e-4,0.539 c -0.081,0.047 -0.122,0.108 -0.122,0.168 v 0 z" />
    </clipPath>
    <clipPath
       id="clipPath8006"
       clipPathUnits="userSpaceOnUse">
      <path
         inkscape:connector-curvature="0"
         id="path8004"
         d="M 0,2119.953 H 3253.108 V 0 H 0 Z" />
    </clipPath>
    <clipPath
       id="clipPath7994"
       clipPathUnits="userSpaceOnUse">
      <path
         inkscape:connector-curvature="0"
         id="path7992"
         d="m 1882.336,1603.443 c 0,-0.061 0.041,-0.12 0.121,-0.166 v 0 0.539 c -0.08,0.043 -0.12,0.104 -0.12,0.165 v 0 z" />
    </clipPath>
    <clipPath
       id="clipPath7946"
       clipPathUnits="userSpaceOnUse">
      <path
         inkscape:connector-curvature="0"
         id="path7944"
         d="M 0,2119.953 H 3253.108 V 0 H 0 Z" />
    </clipPath>
    <clipPath
       id="clipPath7934"
       clipPathUnits="userSpaceOnUse">
      <path
         inkscape:connector-curvature="0"
         id="path7932"
         d="m 1881.995,1605.067 c 0,-0.065 0.04,-0.124 0.119,-0.17 v 0 0.536 c -0.082,0.052 -0.122,0.11 -0.122,0.169 v 0 -0.535 z" />
    </clipPath>
    <clipPath
       id="clipPath7894"
       clipPathUnits="userSpaceOnUse">
      <path
         inkscape:connector-curvature="0"
         id="path7892"
         d="M 0,2119.953 H 3253.108 V 0 H 0 Z" />
    </clipPath>
    <clipPath
       id="clipPath7882"
       clipPathUnits="userSpaceOnUse">
      <path
         inkscape:connector-curvature="0"
         id="path7880"
         d="m 1883.262,1605.788 c 0,-0.061 0.041,-0.121 0.122,-0.168 v 0 0.538 c -0.081,0.046 -0.121,0.109 -0.121,0.169 v 0 z" />
    </clipPath>
    <clipPath
       id="clipPath7870"
       clipPathUnits="userSpaceOnUse">
      <path
         inkscape:connector-curvature="0"
         id="path7868"
         d="M 0,2119.953 H 3253.108 V 0 H 0 Z" />
    </clipPath>
    <clipPath
       id="clipPath7858"
       clipPathUnits="userSpaceOnUse">
      <path
         inkscape:connector-curvature="0"
         id="path7856"
         d="m 1882.565,1606.09 c 0.159,-0.087 0.418,-0.09 0.574,0 v 0 l 0.01,0.54 c -0.16,-0.092 -0.42,-0.089 -0.579,10e-4 v 0 -0.541 z" />
    </clipPath>
    <clipPath
       id="clipPath7842"
       clipPathUnits="userSpaceOnUse">
      <path
         inkscape:connector-curvature="0"
         id="path7840"
         d="M 0,2119.953 H 3253.108 V 0 H 0 Z" />
    </clipPath>
    <clipPath
       id="clipPath7830"
       clipPathUnits="userSpaceOnUse">
      <path
         inkscape:connector-curvature="0"
         id="path7828"
         d="m 1881.72,1606.68 c 0,-0.062 0.038,-0.122 0.12,-0.169 v 0 0.54 c -0.083,0.046 -0.122,0.106 -0.122,0.167 v 0 c 0,-0.18 -10e-4,-0.359 -10e-4,-0.538" />
    </clipPath>
    <clipPath
       id="clipPath7794"
       clipPathUnits="userSpaceOnUse">
      <path
         inkscape:connector-curvature="0"
         id="path7792"
         d="M 0,2119.953 H 3253.108 V 0 H 0 Z" />
    </clipPath>
    <clipPath
       id="clipPath7782"
       clipPathUnits="userSpaceOnUse">
      <path
         inkscape:connector-curvature="0"
         id="path7780"
         d="m 1879.92,1609.156 c 0,-0.06 0.042,-0.118 0.121,-0.166 v 0 0.538 c -0.081,0.045 -0.123,0.106 -0.123,0.165 v 0 -0.537 z" />
    </clipPath>
    <clipPath
       id="clipPath7622"
       clipPathUnits="userSpaceOnUse">
      <path
         inkscape:connector-curvature="0"
         id="path7620"
         d="m 1866.46,1541.36 h 41.73 v -17.73 h -41.73 z" />
    </clipPath>
    <clipPath
       id="clipPath1856"
       clipPathUnits="userSpaceOnUse">
      <path
         inkscape:connector-curvature="0"
         id="path1854"
         d="m 1978.82,1549.83 h 38.47 v -19.92 h -38.47 z" />
    </clipPath>
    <clipPath
       id="clipPath8394"
       clipPathUnits="userSpaceOnUse">
      <path
         inkscape:connector-curvature="0"
         id="path8392"
         d="m 2093.14,1546.97 h 47.55 v -23.34 h -47.55 z" />
    </clipPath>
    <clipPath
       id="clipPath8518"
       clipPathUnits="userSpaceOnUse">
      <path
         inkscape:connector-curvature="0"
         id="path8516"
         d="m 2183.37,1545.67 h 41.84 v -22.04 h -41.84 z" />
    </clipPath>
    <clipPath
       id="clipPath10650"
       clipPathUnits="userSpaceOnUse">
      <path
         inkscape:connector-curvature="0"
         id="path10648"
         d="m 2358.269,1682.219 1.196,-0.067 c 0.312,-0.02 0.65,0.162 0.933,0.544 v 0 l -1.194,0.068 c -0.286,-0.382 -0.621,-0.561 -0.935,-0.545" />
    </clipPath>
    <clipPath
       id="clipPath10638"
       clipPathUnits="userSpaceOnUse">
      <path
         inkscape:connector-curvature="0"
         id="path10636"
         d="m 2359.874,1693.927 1.199,-0.068 c 0.546,0.734 1.19,1.079 1.794,1.044 v 0 l -1.193,0.07 c -0.028,10e-4 -0.057,0 -0.085,0 v 0 c -0.579,0 -1.191,-0.349 -1.715,-1.048" />
    </clipPath>
    <clipPath
       id="clipPath10622"
       clipPathUnits="userSpaceOnUse">
      <path
         inkscape:connector-curvature="0"
         id="path10620"
         d="M 0,2119.953 H 3253.108 V 0 H 0 Z" />
    </clipPath>
    <clipPath
       id="clipPath10610"
       clipPathUnits="userSpaceOnUse">
      <path
         inkscape:connector-curvature="0"
         id="path10608"
         d="m 2361.354,1684.888 c 0.01,-10e-4 0.018,0 0.025,-10e-4 v 0 l 1.148,-0.067 c -0.655,0.059 -1.221,0.53 -1.604,1.361 v 0 l -1.197,0.069 c 0.389,-0.84 0.961,-1.312 1.628,-1.362 m 1.195,-0.07 c 0.01,-10e-4 0.019,-10e-4 0.025,-10e-4 v 0 h -0.047 c 0.01,-10e-4 0.014,0 0.022,0" />
    </clipPath>
    <clipPath
       id="clipPath10594"
       clipPathUnits="userSpaceOnUse">
      <path
         inkscape:connector-curvature="0"
         id="path10592"
         d="M 0,2119.953 H 3253.108 V 0 H 0 Z" />
    </clipPath>
    <clipPath
       id="clipPath10582"
       clipPathUnits="userSpaceOnUse">
      <path
         inkscape:connector-curvature="0"
         id="path10580"
         d="m 2362.654,1687.391 c -0.311,-0.417 -0.683,-0.634 -1.052,-0.613 v 0 l 1.196,-0.068 c 0.368,-0.022 0.741,0.196 1.052,0.613 v 0 c 0.652,0.877 0.83,2.365 0.398,3.321 v 0 l -1.194,0.068 c 0.43,-0.954 0.252,-2.444 -0.4,-3.321" />
    </clipPath>
    <clipPath
       id="clipPath10562"
       clipPathUnits="userSpaceOnUse">
      <path
         inkscape:connector-curvature="0"
         id="path10560"
         d="M 0,2119.953 H 3253.108 V 0 H 0 Z" />
    </clipPath>
    <clipPath
       id="clipPath10550"
       clipPathUnits="userSpaceOnUse">
      <path
         inkscape:connector-curvature="0"
         id="path10548"
         d="m 2345.228,1688.061 5.462,-0.312 c 0.094,1.046 0.253,2.098 0.476,3.121 v 0 l -5.463,0.317 c -0.222,-1.028 -0.38,-2.077 -0.475,-3.126" />
    </clipPath>
    <clipPath
       id="clipPath10534"
       clipPathUnits="userSpaceOnUse">
      <path
         inkscape:connector-curvature="0"
         id="path10532"
         d="M 0,2119.953 H 3253.108 V 0 H 0 Z" />
    </clipPath>
    <clipPath
       id="clipPath10522"
       clipPathUnits="userSpaceOnUse">
      <path
         inkscape:connector-curvature="0"
         id="path10520"
         d="m 2345.469,1681.934 5.462,-0.314 c -0.175,0.967 -0.28,1.965 -0.322,2.982 v 0 l -5.463,0.314 c 0.043,-1.017 0.151,-2.015 0.323,-2.982" />
    </clipPath>
    <clipPath
       id="clipPath10506"
       clipPathUnits="userSpaceOnUse">
      <path
         inkscape:connector-curvature="0"
         id="path10504"
         d="M 0,2119.953 H 3253.108 V 0 H 0 Z" />
    </clipPath>
    <clipPath
       id="clipPath10494"
       clipPathUnits="userSpaceOnUse">
      <path
         inkscape:connector-curvature="0"
         id="path10492"
         d="m 2346.555,1694.2 5.465,-0.316 c 0.338,0.949 0.733,1.868 1.186,2.732 v 0 l -5.465,0.314 c -0.452,-0.865 -0.844,-1.779 -1.186,-2.73" />
    </clipPath>
    <clipPath
       id="clipPath10474"
       clipPathUnits="userSpaceOnUse">
      <path
         inkscape:connector-curvature="0"
         id="path10472"
         d="M 0,2119.953 H 3253.108 V 0 H 0 Z" />
    </clipPath>
    <clipPath
       id="clipPath10462"
       clipPathUnits="userSpaceOnUse">
      <path
         inkscape:connector-curvature="0"
         id="path10460"
         d="m 2346.693,1677.938 c 0.173,-0.375 0.359,-0.728 0.553,-1.059 v 0 l 5.459,-0.313 c -0.192,0.328 -0.377,0.682 -0.55,1.058 v 0 c -0.189,0.408 -0.358,0.828 -0.51,1.262 v 0 l -5.464,0.313 c 0.154,-0.433 0.322,-0.855 0.512,-1.261" />
    </clipPath>
    <clipPath
       id="clipPath10450"
       clipPathUnits="userSpaceOnUse">
      <path
         inkscape:connector-curvature="0"
         id="path10448"
         d="M 0,2119.953 H 3253.108 V 0 H 0 Z" />
    </clipPath>
    <clipPath
       id="clipPath10438"
       clipPathUnits="userSpaceOnUse">
      <path
         inkscape:connector-curvature="0"
         id="path10436"
         d="m 2349.219,1699.291 5.464,-0.314 c 0.543,0.722 1.11,1.345 1.691,1.869 v 0 l -5.46,0.313 c -0.584,-0.523 -1.154,-1.144 -1.695,-1.868" />
    </clipPath>
    <clipPath
       id="clipPath10414"
       clipPathUnits="userSpaceOnUse">
      <path
         inkscape:connector-curvature="0"
         id="path10412"
         d="M 0,2119.953 H 3253.108 V 0 H 0 Z" />
    </clipPath>
    <clipPath
       id="clipPath10402"
       clipPathUnits="userSpaceOnUse">
      <path
         inkscape:connector-curvature="0"
         id="path10400"
         d="m 2350.259,1673.785 5.461,-0.313 c -0.569,0.31 -1.114,0.726 -1.625,1.247 v 0 l -5.461,0.315 c 0.508,-0.522 1.054,-0.938 1.625,-1.249" />
    </clipPath>
    <clipPath
       id="clipPath10390"
       clipPathUnits="userSpaceOnUse">
      <path
         inkscape:connector-curvature="0"
         id="path10388"
         d="M 0,2119.953 H 3253.108 V 0 H 0 Z" />
    </clipPath>
    <clipPath
       id="clipPath10378"
       clipPathUnits="userSpaceOnUse">
      <path
         inkscape:connector-curvature="0"
         id="path10376"
         d="m 2352.757,1702.473 5.461,-0.314 c 0.632,0.335 1.272,0.565 1.909,0.689 v 0 l -5.464,0.315 c -0.633,-0.125 -1.277,-0.355 -1.906,-0.69" />
    </clipPath>
    <clipPath
       id="clipPath10362"
       clipPathUnits="userSpaceOnUse">
      <path
         inkscape:connector-curvature="0"
         id="path10360"
         d="M 0,2119.953 H 3253.108 V 0 H 0 Z" />
    </clipPath>
    <clipPath
       id="clipPath10350"
       clipPathUnits="userSpaceOnUse">
      <path
         inkscape:connector-curvature="0"
         id="path10348"
         d="m 2352.587,1673.103 c 1.822,-0.104 3.643,-0.209 5.462,-0.314 v 0 c -0.171,0.01 -0.336,0.027 -0.505,0.052 v 0 l -5.462,0.315 c 0.168,-0.025 0.336,-0.042 0.505,-0.053" />
    </clipPath>
    <clipPath
       id="clipPath10918"
       clipPathUnits="userSpaceOnUse">
      <path
         inkscape:connector-curvature="0"
         id="path10916"
         d="m 2448.707,1664.164 1.237,-0.221 c -0.508,0.533 -0.559,1.613 -0.114,2.403 v 0 l -1.235,0.223 c -0.447,-0.791 -0.395,-1.872 0.112,-2.405" />
    </clipPath>
    <clipPath
       id="clipPath10902"
       clipPathUnits="userSpaceOnUse">
      <path
         inkscape:connector-curvature="0"
         id="path10900"
         d="M 0,2119.953 H 3253.108 V 0 H 0 Z" />
    </clipPath>
    <clipPath
       id="clipPath10890"
       clipPathUnits="userSpaceOnUse">
      <path
         inkscape:connector-curvature="0"
         id="path10888"
         d="m 2454.686,1677.384 1.238,-0.219 c 0.313,0.564 0.792,0.831 1.224,0.75 v 0 l -1.234,0.223 c -0.05,0.01 -0.101,0.014 -0.152,0.014 v 0 c -0.389,0 -0.796,-0.268 -1.076,-0.768" />
    </clipPath>
    <clipPath
       id="clipPath10878"
       clipPathUnits="userSpaceOnUse">
      <path
         inkscape:connector-curvature="0"
         id="path10876"
         d="m 2452.824,1660.092 1.235,-0.219 c -0.179,0.031 -0.351,0.125 -0.502,0.281 v 0 l -1.238,0.225 c 0.15,-0.16 0.324,-0.252 0.505,-0.287" />
    </clipPath>
    <clipPath
       id="clipPath10762"
       clipPathUnits="userSpaceOnUse">
      <path
         inkscape:connector-curvature="0"
         id="path10760"
         d="m 2419.74,1547.43 h 59.52 v -23.8 h -59.52 z" />
    </clipPath>
    <clipPath
       id="clipPath12810"
       clipPathUnits="userSpaceOnUse">
      <path
         inkscape:connector-curvature="0"
         id="path12808"
         d="m 2531.16,1567.57 h 72.57 v -43.94 h -72.57 z" />
    </clipPath>
    <clipPath
       id="clipPath11038"
       clipPathUnits="userSpaceOnUse">
      <path
         inkscape:connector-curvature="0"
         id="path11036"
         d="m 2634.7,1565.62 h 89.61 v -32.86 h -89.61 z" />
    </clipPath>
  </defs>
  <sodipodi:namedview
     id="base"
     pagecolor="#ffffff"
     bordercolor="#666666"
     borderopacity="1.0"
     inkscape:pageopacity="0.0"
     inkscape:pageshadow="2"
     inkscape:zoom="0.35"
     inkscape:cx="-486.22503"
     inkscape:cy="-348.71919"
     inkscape:document-units="mm"
     inkscape:current-layer="layer1"
     showgrid="false"
     fit-margin-top="0"
     fit-margin-left="0"
     fit-margin-right="0"
     fit-margin-bottom="0"
     inkscape:window-width="1360"
     inkscape:window-height="706"
     inkscape:window-x="-8"
     inkscape:window-y="-8"
     inkscape:window-maximized="1" />
  <metadata
     id="metadata45328">
    <rdf:RDF>
      <cc:Work
         rdf:about="">
        <dc:format>image/svg+xml</dc:format>
        <dc:type
           rdf:resource="http://purl.org/dc/dcmitype/StillImage" />
        <dc:title></dc:title>
      </cc:Work>
    </rdf:RDF>
  </metadata>
  <g
     inkscape:label="Layer 1"
     inkscape:groupmode="layer"
     id="layer1"
     transform="translate(-51.161914,-324.27694)">
    <g
       id="g21282"
       transform="matrix(0.1,0,0,0.086,47.591668,298.41545)">
      <g
         transform="matrix(0.35277777,0,0,-0.35277777,-891.01921,892.99652)"
         id="g11032">
        <g
           id="g11034" />
        <g
           id="g11046">
          <g
             style="opacity:0.25"
             id="g11044"
             clip-path="url(#clipPath11038)">
            <g
               id="g11042"
               transform="translate(2710.9844,1563.0928)">
              <path
                 inkscape:connector-curvature="0"
                 id="path11040"
                 style="fill:#231f20;fill-opacity:1;fill-rule:nonzero;stroke:none"
                 d="m 0,0 c -4.709,1.495 -9.135,2.53 -15.189,2.53 -11.391,0 -12.353,-3.882 -15.142,-5.697 -0.331,0.126 -0.631,0.259 -0.972,0.383 -4.731,1.713 -9.168,2.884 -15.221,2.819 -14.859,-0.158 -11.872,-7.929 -18.463,-8.001 -3.687,-0.039 -11.342,-5.027 -11.298,-9.346 0.058,-5.608 5.934,-9.753 13.78,-11.322 6.544,-1.299 16.928,-2.214 23.554,-1.385 8.596,1.068 15.264,2.974 18.652,7.043 4.418,-0.318 8.9,-0.4 12.362,-0.066 12.596,1.213 21.265,3.888 21.265,11.873 C 13.328,-6.113 8.152,-2.576 0,0" />
            </g>
          </g>
        </g>
      </g>
      <g
         transform="matrix(0.35277777,0,0,-0.35277777,51.293602,325.71881)"
         id="g11048">
        <path
           inkscape:connector-curvature="0"
           id="path11050"
           style="fill:#e5cbbd;fill-opacity:1;fill-rule:nonzero;stroke:none"
           d="M 0,0 3.556,0.171 5.235,-1.76 c 0,0 1.704,-3.525 0.633,-5.412 C 5.375,-8.044 3.93,-9.559 2.629,-9.66 0.788,-9.812 -0.805,-7.455 -0.805,-7.455 l -1.12,5.048 C -2.072,-1.332 -1.615,-0.077 0,0" />
      </g>
      <g
         transform="matrix(0.35277777,0,0,-0.35277777,51.884099,326.36771)"
         id="g11052">
        <path
           inkscape:connector-curvature="0"
           id="path11054"
           style="fill:#084da0;fill-opacity:1;fill-rule:nonzero;stroke:none"
           d="m 0,0 c -1.316,-0.44 -4.686,1.254 -4.686,1.254 0,0 -0.16,0.31 -0.441,0.841 -1.582,3.034 -7.23,13.394 -8.671,17.395 -1.586,4.399 -3.879,12.472 -3.879,12.472 0,0 -3.311,9.267 1.04,11.986 2.491,1.546 8.914,0.724 10.526,-6.772 0.627,-2.883 1.931,-15.447 1.931,-15.447 L 2.396,4.534 C 2.396,4.534 2.564,0.87 0,0" />
      </g>
      <g
         transform="matrix(0.35277777,0,0,-0.35277777,41.902296,343.24781)"
         id="g11056">
        <path
           inkscape:connector-curvature="0"
           id="path11058"
           style="fill:#545454;fill-opacity:1;fill-rule:nonzero;stroke:none"
           d="m 0,0 c 0.565,-2.951 0.668,-2.748 1.693,-4.302 1.337,-2.022 6.433,-6.332 6.913,-6.792 0.312,-0.301 0.738,-1.047 0.414,-1.733 -0.128,-0.27 -0.216,-0.434 -0.493,-0.609 -0.994,-0.607 -2.399,-0.338 -3.682,-0.154 -4.101,0.596 -7.828,4.132 -7.828,4.132 -0.48,0.561 -3.811,2.777 -4,3.125 0,0 -1.097,0.528 -1.533,0.164 -0.159,-0.131 -0.392,-0.976 -0.441,-1.138 l -2.734,2.787 c -0.132,0.159 0.234,1.899 0.452,2.644 l 1.471,4.965 z" />
      </g>
      <g
         transform="matrix(0.35277777,0,0,-0.35277777,44.974294,347.85597)"
         id="g11060">
        <path
           inkscape:connector-curvature="0"
           id="path11062"
           style="fill:#282827;fill-opacity:1;fill-rule:nonzero;stroke:none"
           d="m 0,0 c -1.232,-0.65 -2.573,-0.418 -3.85,-0.22 -5.51,0.86 -8.874,5.111 -8.874,5.111 -0.934,0.964 -2.233,1.787 -2.728,1.964 0,0 -1.444,0.944 -1.787,0.062 -0.072,-0.184 -0.094,-0.016 -0.15,-0.235 0.043,0.107 0.16,0.18 0.126,0.224 -0.09,0.142 -0.402,-1.151 -0.402,-1.151 0.561,0.257 1.974,1.271 4.309,-0.734 0,0 3.362,-4.824 8.449,-5.827 1.264,-0.25 3.527,-0.563 4.693,0.222 0.205,0.137 0.548,0.543 0.548,0.934 C 0.294,0.305 0.057,0.035 0,0" />
      </g>
      <g
         transform="matrix(0.35277777,0,0,-0.35277777,38.910917,345.35174)"
         id="g11064">
        <path
           inkscape:connector-curvature="0"
           id="path11066"
           style="fill:#282827;fill-opacity:1;fill-rule:nonzero;stroke:none"
           d="m 0,0 -3.008,2.982 c 0,0 -0.302,-1.525 -0.239,-1.522 l 2.769,-2.803 C -0.448,-1.226 -0.114,-0.296 0,0" />
      </g>
      <g
         transform="matrix(0.35277777,0,0,-0.35277777,48.049017,328.45319)"
         id="g11068">
        <path
           inkscape:connector-curvature="0"
           id="path11070"
           style="fill:#134854;fill-opacity:1;fill-rule:nonzero;stroke:none"
           d="m 0,0 -8.94,-22.897 -7.697,-20.069 c -0.364,-2.152 -4.467,-3.182 -5.435,-3.21 -1.539,-0.046 -5.783,0.353 -5.832,5.166 l 5.689,15.792 6.399,29.977 z" />
      </g>
      <g
         transform="matrix(0.35277777,0,0,-0.35277777,48.268145,350.39276)"
         id="g11072">
        <path
           inkscape:connector-curvature="0"
           id="path11074"
           style="fill:#020200;fill-opacity:1;fill-rule:nonzero;stroke:none"
           d="M 0,0 -2.666,-2.316 -3.336,0.4 Z" />
      </g>
      <g
         transform="matrix(0.35277777,0,0,-0.35277777,48.902695,347.50372)"
         id="g11076">
        <path
           inkscape:connector-curvature="0"
           id="path11078"
           style="fill:#545454;fill-opacity:1;fill-rule:nonzero;stroke:none"
           d="m 0,0 7.454,-3.669 c 0,0 3.734,-1.736 5.045,-2.121 0.593,-0.171 1.124,-0.753 1.314,-1.395 0.131,-0.41 0.126,-0.851 -0.088,-1.217 -0.53,-0.951 -1.871,-1.92 -3.024,-2.504 -3.426,-1.717 -7.661,-0.369 -7.661,-0.369 -0.702,0.231 -5.443,1.87 -5.81,2.039 -1.017,0.471 -1.859,0.554 -2.053,0.02 0,0 0.317,-1.123 0.358,-1.289 l -4.014,1.52 c 0,0 -0.542,1.223 -0.728,1.982 l -1.237,5.027 z" />
      </g>
      <g
         transform="matrix(0.35277777,0,0,-0.35277777,53.791983,350.09734)"
         id="g11080">
        <path
           inkscape:connector-curvature="0"
           id="path11082"
           style="fill:#282827;fill-opacity:1;fill-rule:nonzero;stroke:none"
           d="m 0,0 c -0.459,-1.33 -2.189,-2.39 -3.322,-3.012 -3.991,-2.188 -7.737,-0.421 -7.737,-0.421 -1.351,0.438 -5.145,1.721 -5.522,1.823 0,0 -2.245,0.949 -2.07,-0.187 0.023,-0.19 0.004,-0.234 0.065,-0.449 -0.018,0.117 0.026,0.212 0.029,0.263 0.057,0.785 2.309,-0.14 2.309,-0.14 0.342,-0.215 4.694,-1.832 5.396,-2.063 0,0 4.136,-1.817 7.892,0.392 1.113,0.657 2.518,1.513 2.978,2.834 C 0.141,-0.595 0.023,0.061 0,0" />
      </g>
      <g
         transform="matrix(0.35277777,0,0,-0.35277777,47.212193,350.73142)"
         id="g11084">
        <path
           inkscape:connector-curvature="0"
           id="path11086"
           style="fill:#282827;fill-opacity:1;fill-rule:nonzero;stroke:none"
           d="m 0,0 c 0,0 -1.855,0.503 -2.48,0.642 -1.453,0.339 -1.729,0.777 -1.729,0.777 0,0 0.46,-1.411 0.508,-1.376 0,0 0.142,-0.383 0.99,-0.646 0.771,-0.238 3.038,-0.747 3.038,-0.747 z" />
      </g>
      <g
         transform="matrix(0.35277777,0,0,-0.35277777,45.413185,329.25195)"
         id="g11088">
        <path
           inkscape:connector-curvature="0"
           id="path11090"
           style="fill:#276072;fill-opacity:1;fill-rule:nonzero;stroke:none"
           d="m 0,0 c 0,0 5.33,-26.662 6.821,-33.877 2.823,-13.674 4.711,-18.768 4.711,-18.768 0.355,-1.526 -1.021,-3.584 -3.437,-4.608 -4.264,-1.809 -6.833,-0.9 -6.833,-0.9 -0.688,0.194 -0.738,0.608 -0.917,1.124 0,0 -3.514,8.668 -4.824,16.078 -1.053,5.937 -1.181,10.611 -2.893,15.718 -8.089,24.14 -8.13,24.552 -8.13,24.552 z" />
      </g>
      <g
         transform="matrix(0.35277777,0,0,-0.35277777,48.456237,311.27235)"
         id="g11092">
        <path
           inkscape:connector-curvature="0"
           id="path11094"
           style="fill:#2371e2;fill-opacity:1;fill-rule:nonzero;stroke:none"
           d="M 0,0 C 2.412,-4.536 2.239,-8.788 2.239,-17.851 L 1.734,-49.254 c 0,-1.224 -0.121,-2.663 -1.42,-3.688 0,0 -5.242,-3.619 -13.236,-3.768 -3.063,-0.057 -9.93,1.523 -9.93,1.523 -1.925,0.344 -1.865,3.257 -1.809,2.834 l -2.13,41.512 c -0.111,2.836 11.677,10.215 11.677,10.215 l 6.942,2.117 c 0,0 6.535,1.586 8.172,-1.491" />
      </g>
      <g
         transform="matrix(0.35277777,0,0,-0.35277777,46.902154,314.26404)"
         id="g11096">
        <path
           inkscape:connector-curvature="0"
           id="path11098"
           style="fill:#dfe6e8;fill-opacity:1;fill-rule:nonzero;stroke:none"
           d="m 0,0 c 1.34,1.935 0.916,7.541 -2.132,10.162 -0.949,-0.04 -1.635,-0.19 -1.635,-0.19 l -6.435,-1.297 c 0,0 -2.393,-1.884 -4.326,-3.367 0.959,-0.024 2.846,-1.324 6.079,-4.401 C -5.433,-1.968 -1.848,-2.682 0,0" />
      </g>
      <g
         transform="matrix(0.35277777,0,0,-0.35277777,46.337136,312.59283)"
         id="g11100">
        <path
           inkscape:connector-curvature="0"
           id="path11102"
           style="fill:#e8c5ac;fill-opacity:1;fill-rule:nonzero;stroke:none"
           d="m 0,0 c -3.871,-3.577 -5.907,0.366 -8.228,3.331 l -0.051,10.366 8.45,-2.792 z" />
      </g>
      <g
         transform="matrix(0.35277777,0,0,-0.35277777,43.427064,310.18367)"
         id="g11104">
        <path
           inkscape:connector-curvature="0"
           id="path11106"
           style="fill:#ffffff;fill-opacity:1;fill-rule:nonzero;stroke:none"
           d="m 0,0 c 0,0 -0.054,-1.401 -0.006,-1.652 0.801,-4.229 6.36,-5.95 6.36,-5.95 0.645,-0.34 0.611,-1.109 0.505,-2.121 l -0.822,-2.991 c -0.102,-0.967 -0.608,-0.864 -0.991,-0.459 0,0 -3.876,3.387 -4.966,4.524 -2.555,2.677 -2.336,3.279 -1.33,6.626 C -0.641,0 0,0 0,0" />
      </g>
      <g
         transform="matrix(0.35277777,0,0,-0.35277777,45.945103,312.82485)"
         id="g11108">
        <path
           inkscape:connector-curvature="0"
           id="path11110"
           style="fill:#ffffff;fill-opacity:1;fill-rule:nonzero;stroke:none"
           d="M 0,0 C -0.44,-0.523 -0.703,-1.018 -0.423,-1.42 L 1.432,-3.479 C 2.223,-4.441 2.32,-3.658 2.342,-2.87 L 2.546,2.802 C 2.223,6.376 1.269,6.549 1.269,6.549 c 0,0 -0.046,-0.823 0.013,-1.564 C 1.388,3.768 1.206,1.435 0,0" />
      </g>
      <g
         transform="matrix(0.35277777,0,0,-0.35277777,44.423061,305.71056)"
         id="g11112">
        <path
           inkscape:connector-curvature="0"
           id="path11114"
           style="fill:#ffe8d9;fill-opacity:1;fill-rule:nonzero;stroke:none"
           d="m 0,0 c 2.111,0 2.343,-2.023 2.343,-2.023 v -4.241 c 0,0 -0.102,-0.924 -0.892,-1.088 -1.203,-0.243 -1.72,0.803 -2.259,1.961 -0.035,0.067 -0.712,1.771 -0.756,1.869 C -2.146,-2.071 -1.998,0 0,0" />
      </g>
      <g
         transform="matrix(0.35277777,0,0,-0.35277777,45.995401,303.54842)"
         id="g11116">
        <path
           inkscape:connector-curvature="0"
           id="path11118"
           style="fill:#ffe1cc;fill-opacity:1;fill-rule:nonzero;stroke:none"
           d="m 0,0 v -0.008 l -9.839,0.408 1.41,-12.991 c 0.113,-1.012 0.221,-4.089 0.389,-4.947 0.184,-0.934 0.603,-1.809 1.748,-2.672 0,0 2.061,-1.641 3.985,-2.403 0.88,-0.343 1.832,-0.653 2.769,-0.506 0.721,0.113 2.451,1.128 2.451,1.128 1.132,0.68 2.057,1.058 2.68,2.806 0.267,0.779 1.03,3.182 1.105,4.035 l 1.148,8.731 0.54,7.863 z" />
      </g>
      <g
         transform="matrix(0.35277777,0,0,-0.35277777,48.372153,302.45996)"
         id="g11120">
        <path
           inkscape:connector-curvature="0"
           id="path11122"
           style="fill:#633a11;fill-opacity:1;fill-rule:nonzero;stroke:none"
           d="M 0,0 C 2.288,-1.289 3.365,-3.007 2.239,-6.562 1.32,-9.438 0.992,-9.997 1.036,-10.037 c 0.029,-0.036 0.095,1.944 0.146,3.098 0.074,1.737 -1.7,1.166 -2.414,0.598 -1.054,-0.828 -3.558,-2.37 -3.625,-2.409 -0.936,-0.537 -1.122,-0.142 -1.189,0.542 -0.013,0.146 -0.017,1.047 -0.017,1.047 -0.125,-0.092 -2.29,-1.104 -2.871,-1.446 -1.656,-0.98 -1.941,-2.409 -1.866,-3.698 v -1.286 c 0,-0.664 0.107,-1.43 -0.547,-1.359 -0.696,0.081 -0.634,0.345 -0.83,1.059 0,0 -1.486,2.544 -2.773,2.043 -1.482,-0.576 -0.399,-3.89 -0.307,-4.079 l 0.508,-4.829 c -0.6,-0.18 -1.933,0.813 -2.702,2.485 -1.409,3.077 -2.299,5.282 -2.688,6.222 -3.849,9.217 3.826,18.261 14.014,15.165 C -4.219,2.536 0,0 0,0" />
      </g>
      <g
         transform="matrix(0.35277777,0,0,-0.35277777,43.115623,306.58837)"
         id="g11124">
        <path
           inkscape:connector-curvature="0"
           id="path11126"
           style="fill:#ffe8d9;fill-opacity:1;fill-rule:nonzero;stroke:none"
           d="M 0,0 C 2.114,0 2.397,-2.833 2.397,-2.833 L 2.35,-6.269 c 0,0 -0.102,-0.921 -0.899,-1.084 -1.201,-0.249 -1.717,0.808 -2.255,1.958 -0.037,0.067 -0.72,1.769 -0.759,1.874 C -2.148,-2.075 -1.993,0 0,0" />
      </g>
      <g
         transform="matrix(0.35277777,0,0,-0.35277777,36.990254,331.06632)"
         id="g11128">
        <path
           inkscape:connector-curvature="0"
           id="path11130"
           style="fill:#ffe8d9;fill-opacity:1;fill-rule:nonzero;stroke:none"
           d="M 0,0 C -0.255,-1.336 1.096,-2.629 2.258,-3.041 2.45,-3.105 1.753,-4.407 1.666,-5.065 1.508,-6.269 2.351,-6.792 2.77,-6.12 2.911,-5.893 4.967,-2.875 4.894,-1.895 4.663,1.364 3.266,1.742 2.053,1.97 0.844,2.2 0.255,1.332 0,0" />
      </g>
      <g
         transform="matrix(0.35277777,0,0,-0.35277777,37.153555,330.74057)"
         id="g11132">
        <path
           inkscape:connector-curvature="0"
           id="path11134"
           style="fill:#3b8ced;fill-opacity:1;fill-rule:nonzero;stroke:none"
           d="m 0,0 c -1.352,0.316 -3.345,3.539 -3.345,3.539 0,0 0.025,0.344 0.067,0.951 0.243,3.428 0.856,15.257 1.723,19.436 0.959,4.588 3.868,15.845 3.868,15.845 0,0 2.365,8.698 7.261,7.116 4.944,-1.589 5.386,-9.194 3.619,-13.083 C 11.97,31.11 7.844,20.771 7.844,20.771 L 4.439,2.61 C 4.439,2.61 2.646,-0.613 0,0" />
      </g>
      <g
         transform="matrix(0.35277777,0,0,-0.35277777,36.582372,330.44928)"
         id="g11136">
        <path
           inkscape:connector-curvature="0"
           id="path11138"
           style="fill:#ffe8d9;fill-opacity:1;fill-rule:nonzero;stroke:none"
           d="m 0,0 3.567,-0.132 1.258,-5.123 c 0,0 -0.199,0.22 -0.601,0.107 -0.362,-0.099 -0.497,-0.847 -0.497,-0.847 0,0 -0.365,-3.336 -0.588,-4.453 -0.082,-0.414 -0.749,-0.226 -1.226,0.069 -0.506,0.303 -0.737,1.099 -0.737,1.099 -3.766,0.414 -3.67,3.309 -3.67,3.309 l 0.185,2.802 C -2.288,-1.659 -1.633,0.066 0,0" />
      </g>
      <g
         transform="matrix(0.35277777,0,0,-0.35277777,38.771402,330.66634)"
         id="g11140">
        <path
           inkscape:connector-curvature="0"
           id="path11142"
           style="fill:#e4eff4;fill-opacity:1;fill-rule:nonzero;stroke:none"
           d="m 0,0 c -0.139,-0.602 -1.749,-1.486 -3.568,-1.238 -2.358,0.322 -3.353,1.012 -3.353,1.012 -0.978,0.622 -1.467,1.179 -1.374,1.955 0,0 -0.036,2.514 0.109,3.407 0.092,0.578 0.483,0.797 0.454,0.61 C -7.848,4.989 -6.456,3.661 -4.2,3.067 -0.659,2.119 0.246,4.128 0.246,4.128 0.769,4.009 0.885,3.739 0.721,3.144 Z" />
      </g>
      <g
         transform="matrix(0.35277777,0,0,-0.35277777,51.463465,327.31358)"
         id="g11144">
        <path
           inkscape:connector-curvature="0"
           id="path11146"
           style="fill:#e5cbbd;fill-opacity:1;fill-rule:nonzero;stroke:none"
           d="m 0,0 c 3.192,-0.696 2.718,-2.78 2.718,-2.78 0,0 0.847,-1.413 0.621,-1.47 -2.992,-0.752 -5.151,1.02 -5.151,2.49 0,0.611 0,2.153 1.812,1.76" />
      </g>
      <g
         transform="matrix(0.35277777,0,0,-0.35277777,53.215986,325.45888)"
         id="g11148">
        <path
           inkscape:connector-curvature="0"
           id="path11150"
           style="fill:#e4eff4;fill-opacity:1;fill-rule:nonzero;stroke:none"
           d="m 0,0 c 0.203,-0.585 -0.706,-2.17 -2.377,-2.918 -2.762,-1.222 -5.578,-0.944 -5.9,-0.237 0,0 -1.231,2.597 -1.573,3.435 -0.23,0.543 0.076,0.807 0.076,0.807 0,0 0.194,-0.421 0.336,-0.543 0.526,-0.466 2.052,-0.813 4.275,-0.144 3.503,1.056 3.223,3.237 3.223,3.237 0.506,0.171 0.747,0 0.917,-0.592 z" />
      </g>
      <g
         transform="matrix(0.35277777,0,0,-0.35277777,66.666316,323.73944)"
         id="g11152">
        <path
           inkscape:connector-curvature="0"
           id="path11154"
           style="fill:#ffe1cc;fill-opacity:1;fill-rule:nonzero;stroke:none"
           d="m 0,0 -3.82,-1.666 c 0,0 -8.086,10.936 -9.921,15.381 -1.238,3.001 -3.328,13.896 -3.328,13.896 -1.421,3.154 -3.615,9.13 -0.008,9.933 5.545,1.241 6.625,-4.527 6.625,-4.527 0,0 1.626,-13.061 2.848,-16.818 C -6.2,11.899 0,0 0,0" />
      </g>
      <g
         transform="matrix(0.35277777,0,0,-0.35277777,65.521147,323.82644)"
         id="g11156">
        <path
           inkscape:connector-curvature="0"
           id="path11158"
           style="fill:#ffe1cc;fill-opacity:1;fill-rule:nonzero;stroke:none"
           d="m 0,0 2.48,0.943 2.063,-2.705 0.182,-0.5 1.085,-4.146 c 0,0 0.672,-1.954 -1.307,-2.703 C 3.212,-9.599 4.364,-9.164 4.364,-9.164 2.594,-9.842 1.421,-7.433 1.421,-7.433 l -1.834,4.186 C -0.851,-2.167 -1.141,-0.427 0,0" />
      </g>
      <g
         transform="matrix(0.35277777,0,0,-0.35277777,66.074444,324.18592)"
         id="g11160">
        <path
           inkscape:connector-curvature="0"
           id="path11162"
           style="fill:#ffe1cc;fill-opacity:1;fill-rule:nonzero;stroke:none"
           d="M 0,0 C 0.109,-1.088 1.596,-1.681 2.563,-1.588 2.891,-1.56 3.283,-3.591 3.848,-4.316 4.434,-5.07 5.19,-4.514 5.297,-4.265 5.386,-4.066 4.227,-1.158 3.964,-0.414 3.078,2.074 2.085,2.074 1.119,1.983 0.16,1.901 -0.094,1.093 0,0" />
      </g>
      <g
         transform="matrix(0.35277777,0,0,-0.35277777,59.387154,300.79167)"
         id="g11164">
        <path
           inkscape:connector-curvature="0"
           id="path11166"
           style="fill:#684005;fill-opacity:1;fill-rule:nonzero;stroke:none"
           d="m 0,0 c 0,0 3.719,-0.063 6.893,-3.02 3.661,-3.416 3.813,-7.523 2.683,-12.459 -0.789,-3.464 -0.71,-5.693 0.155,-7.279 0.658,-1.205 -0.285,-2.731 -0.285,-2.731 0,0 -0.754,-1.035 -2.589,-1.582 -1.829,-0.543 -18.396,-1.199 -18.396,-1.199 0,0 12.175,12.307 12.198,13.018 C 0.677,-14.552 0,0 0,0" />
      </g>
      <g
         transform="matrix(0.35277777,0,0,-0.35277777,58.260955,344.07066)"
         id="g11168">
        <path
           inkscape:connector-curvature="0"
           id="path11170"
           style="fill:#e8c5ac;fill-opacity:1;fill-rule:nonzero;stroke:none"
           d="m 0,0 c -0.033,0.048 -2.201,4.715 -3.354,7.674 -1.527,3.89 0.337,8.456 0.337,8.456 L 9.601,52.799 c 0,0 1.118,3.09 -0.486,3.328 l -13.261,2.004 c -0.21,-1.238 0.169,-3.321 0.265,-4.021 0.141,-0.983 -2.456,-1.415 -2.942,-3.758 l -4.15,-40.456 -1.58,-2.303 5.735,-7.096 c 0,0 2.224,-3.807 5.817,-2.87 C 1.104,-1.827 0.166,-0.261 0,0" />
      </g>
      <g
         transform="matrix(0.35277777,0,0,-0.35277777,53.999708,342.65077)"
         id="g11172">
        <path
           inkscape:connector-curvature="0"
           id="path11174"
           style="fill:#5b5454;fill-opacity:1;fill-rule:nonzero;stroke:none"
           d="M 0,0 2.592,0.368 1.528,2.653 0.231,3.019 Z" />
      </g>
      <g
         transform="matrix(0.35277777,0,0,-0.35277777,58.651665,344.63239)"
         id="g11176">
        <path
           inkscape:connector-curvature="0"
           id="path11178"
           style="fill:#7c7676;fill-opacity:1;fill-rule:nonzero;stroke:none"
           d="m 0,0 c -0.941,1.283 -1.463,1.939 -1.463,1.939 0.346,-0.878 -0.92,-1.516 -2.121,-1.213 -1.466,0.366 -2.153,0.321 -3.549,1.729 -0.988,0.989 -3.445,5.055 -4.104,5.91 -2.199,2.873 -1.975,4.786 -1.975,4.786 0,0 -0.387,-0.682 -0.726,-1.864 -0.128,-0.458 -0.178,-0.827 -0.182,-1.13 L -14.171,6.91 c 0,0 -0.054,-0.559 0.452,-0.968 0.205,-0.175 0.532,-0.325 0.532,-0.325 l 0.752,2.039 c 1.071,-1.525 3.172,-5.737 4.869,-7.644 1.616,-1.818 4.771,-2.205 6.589,-1.635 C -0.229,-1.386 0.233,-0.318 0,0" />
      </g>
      <g
         transform="matrix(0.35277777,0,0,-0.35277777,58.433225,344.97159)"
         id="g11180">
        <path
           inkscape:connector-curvature="0"
           id="path11182"
           style="fill:#bc001b;fill-opacity:1;fill-rule:nonzero;stroke:none"
           d="m 0,0 c 1.067,0.361 0.635,1.099 0.254,1.793 -0.051,0.1 -1.677,2.803 -1.677,2.803 0.357,-0.85 0.138,-1.769 -1.371,-2.098 -2.24,-0.489 -3.501,0.889 -4.651,2.5 -1.08,1.495 -2.463,4.789 -2.657,5.53 -0.792,3.022 -1.06,5.028 -1.06,5.028 0,0 -0.96,-0.143 -1.649,-1.522 -0.824,-1.649 0.191,-2.712 0.191,-2.712 l 1.296,-2.301 C -10.25,6.935 -8.912,3.476 -6.514,1.401 -4.053,-0.729 -1.291,-0.442 0,0" />
      </g>
      <g
         transform="matrix(0.35277777,0,0,-0.35277777,66.624645,346.97833)"
         id="g11184">
        <path
           inkscape:connector-curvature="0"
           id="path11186"
           style="fill:#ffe1cc;fill-opacity:1;fill-rule:nonzero;stroke:none"
           d="m 0,0 c -0.057,0.027 -2.906,1.928 -4.396,3.817 -2.789,3.554 -3.213,7.107 -3.213,7.107 l -4.398,22.584 c 0,0 -2.76,27.334 -3.029,28.775 -0.101,0.53 -0.235,1.124 -0.336,1.516 l -15.833,-1.859 -0.752,-2.049 c 0.269,-3.976 2.958,-7.449 3.877,-9.739 0.267,-0.68 8.149,-17.196 7.953,-19.348 -0.686,-7.55 5.971,-22.1 6.614,-23.788 l 0.024,-3.269 c 0.232,-0.876 0.507,-1.149 1.389,-2.014 0.981,-0.959 6.491,-3.38 6.491,-3.38 0,0 3.571,-1.77 6.091,0.127 1.31,0.983 0.671,0.826 -0.291,1.412 C 0.135,-0.064 0.063,-0.032 0,0" />
      </g>
      <g
         transform="matrix(0.35277777,0,0,-0.35277777,63.911263,326.05712)"
         id="g11188">
        <path
           inkscape:connector-curvature="0"
           id="path11190"
           style="fill:#bc001b;fill-opacity:1;fill-rule:nonzero;stroke:none"
           d="m 0,0 c 3.717,-12.69 4.904,-15.564 4.904,-15.564 -0.139,0 -3.55,-8.616 -14.604,-9.911 -4.884,-0.567 -10.872,0.366 -10.872,0.366 -7.643,1.186 -14.678,9.5 -13.999,9.918 1.582,0.981 6.63,13.158 6.824,13.668 0.972,2.591 5.754,15.06 6.26,15.732 l 16.309,1.223 C -5.187,15.062 -1.337,4.561 0,0" />
      </g>
      <g
         transform="matrix(0.35277777,0,0,-0.35277777,62.098128,310.68892)"
         id="g11192">
        <path
           inkscape:connector-curvature="0"
           id="path11194"
           style="fill:#bc001b;fill-opacity:1;fill-rule:nonzero;stroke:none"
           d="m 0,0 3.818,-12.119 c 0,0 0.916,-2.647 0.789,-4.171 -0.173,-2.16 -1.609,-4.086 -1.701,-4.243 -1.025,-1.676 -3.775,-3.906 -3.034,-7.363 L 3.41,-39.237 c 0,0 -0.547,-2.555 -5.671,-4.349 -10.052,-3.523 -16.727,1.865 -16.727,1.865 -0.376,0.343 2.852,13.388 2.852,13.388 0.216,1.025 0.292,2.078 0.216,3.125 l -2.585,8.768 c 0,0 -2.238,8.473 0.06,11.064 1.99,2.244 5.686,4.968 7.619,6.192 0.486,0.309 2.071,-0.402 3.363,-0.047 0,0 4.719,1.008 7.463,-0.769" />
      </g>
      <g
         transform="matrix(0.35277777,0,0,-0.35277777,60.78762,311.22066)"
         id="g11196">
        <path
           inkscape:connector-curvature="0"
           id="path11198"
           style="fill:#e8c5ac;fill-opacity:1;fill-rule:nonzero;stroke:none"
           d="m 0,0 c 2.35,-4.901 1.764,-7.544 0.881,-7.646 -3.049,-0.34 -8.518,5.078 -8.33,7.746 l 0.553,11.011 7.81,-0.867 z" />
      </g>
      <g
         transform="matrix(0.35277777,0,0,-0.35277777,60.496155,303.52468)"
         id="g11200">
        <path
           inkscape:connector-curvature="0"
           id="path11202"
           style="fill:#ffe1cc;fill-opacity:1;fill-rule:nonzero;stroke:none"
           d="m 0,0 c 5.168,-0.431 4.915,-4.746 4.812,-7.623 -0.072,-2.011 -0.648,-5.748 -0.648,-5.748 -0.797,-3.683 -2.226,-5.733 -4.235,-6.253 -2.509,-0.653 -5.734,1.254 -8.31,4.72 -2.279,3.069 -2.478,4.993 -2.508,5.446 L -11.86,1.82 c 0,0 9.113,-1.589 11.86,-1.82" />
      </g>
      <g
         transform="matrix(0.35277777,0,0,-0.35277777,63.180219,347.89664)"
         id="g11204">
        <path
           inkscape:connector-curvature="0"
           id="path11206"
           style="fill:#5b5454;fill-opacity:1;fill-rule:nonzero;stroke:none"
           d="M 0,0 2.044,1.647 -0.04,3.054 -1.347,2.706 Z" />
      </g>
      <g
         transform="matrix(0.35277777,0,0,-0.35277777,62.165278,346.97162)"
         id="g11208">
        <path
           inkscape:connector-curvature="0"
           id="path11210"
           style="fill:#7c7676;fill-opacity:1;fill-rule:nonzero;stroke:none"
           d="m 0,0 1.093,-2.162 c 0,0 0.168,-0.399 1.178,-0.46 0.258,-0.017 0.606,0 0.606,0 L 2.386,0.037 Z" />
      </g>
      <g
         transform="matrix(0.35277777,0,0,-0.35277777,67.726026,348.0434)"
         id="g11212">
        <path
           inkscape:connector-curvature="0"
           id="path11214"
           style="fill:#7c7676;fill-opacity:1;fill-rule:nonzero;stroke:none"
           d="M 0,0 C 0.365,0.366 0.158,0.875 0.183,1.061 0.264,1.706 -0.574,1.241 -0.663,1.342 -1.625,2.416 -2.611,2.103 -2.611,2.103 -1.866,1.53 -3.004,1.005 -4.189,0.644 -5.631,0.212 -7.42,0.811 -9.331,1.299 c -1.359,0.348 -2.951,1.513 -3.895,2.042 -2.89,1.613 -3.535,3.521 -3.535,3.521 0,0 0.007,-0.783 0.331,-1.976 0.469,-1.737 1.28,-1.848 1.28,-1.848 0,0 0.259,-0.582 2.011,-0.853 1.977,-0.3 4.019,-3.066 6.647,-3.598 C -4.32,-1.855 -1.348,-1.349 0,0" />
      </g>
      <g
         transform="matrix(0.35277777,0,0,-0.35277777,67.6344,347.85202)"
         id="g11216">
        <path
           inkscape:connector-curvature="0"
           id="path11218"
           style="fill:#bc001b;fill-opacity:1;fill-rule:nonzero;stroke:none"
           d="M 0,0 C 0.998,1.048 0.317,0.678 -2.098,2.067 -2.197,2.128 -1.61,2.027 -3.441,1.179 -4.929,0.5 -6.704,0.471 -8.719,1.317 c -1.289,0.549 -3.342,1.143 -5.213,2.709 -3.087,2.59 -2.316,5.187 -2.316,5.187 0,0 -1.613,-2.327 -0.713,-4.429 0.713,-1.655 1.672,-2.555 1.672,-2.555 l 2.893,-0.511 C -10.465,1.37 -9.504,-0.815 -6.385,-1.358 -3.18,-1.912 -0.946,-1.001 0,0" />
      </g>
      <g
         transform="matrix(0.35277777,0,0,-0.35277777,58.856267,300.71519)"
         id="g11220">
        <path
           inkscape:connector-curvature="0"
           id="path11222"
           style="fill:#684005;fill-opacity:1;fill-rule:nonzero;stroke:none"
           d="m 0,0 c 0,0 -11.643,0.282 -12.486,-11.437 -0.236,-3.212 0.383,-3.618 0.099,-6.207 -0.429,-3.813 -1.421,-6.489 -4.006,-6.601 -0.236,-0.005 3.497,-5.98 9.897,-6.605 0,0 5.172,0.92 5.646,8.493 0.468,7.542 0.846,9.865 2.355,12.025 1.286,1.838 0.961,0.765 2.047,1.68 1.36,1.145 3.489,3.398 0.865,6.707 C 2.894,-0.03 0,0 0,0" />
      </g>
      <g
         transform="matrix(0.35277777,0,0,-0.35277777,58.967207,302.93159)"
         id="g11224">
        <path
           inkscape:connector-curvature="0"
           id="path11226"
           style="fill:#684005;fill-opacity:1;fill-rule:nonzero;stroke:none"
           d="m 0,0 -4.227,-12.067 c 0,0 10.595,-0.475 11.54,11.317 0.039,0.521 1.848,-4.575 1.848,-6.451 0,-0.144 0.229,2.189 0.247,2.962 C 9.479,0.51 4.957,2.157 4.957,2.157 Z" />
      </g>
      <g
         transform="matrix(0.35277777,0,0,-0.35277777,53.228024,326.37374)"
         id="g11228">
        <path
           inkscape:connector-curvature="0"
           id="path11230"
           style="fill:#ffe1cc;fill-opacity:1;fill-rule:nonzero;stroke:none"
           d="m 0,0 -4.531,1.218 3.732,18.952 3.976,12.245 c 0.932,3.201 3.355,8.228 6.96,7.121 4.315,-1.32 1.847,-6.966 1.847,-6.966 L 5.613,18.069 Z" />
      </g>
      <g
         transform="matrix(0.35277777,0,0,-0.35277777,52.5173,325.24598)"
         id="g11232">
        <path
           inkscape:connector-curvature="0"
           id="path11234"
           style="fill:#ffe1cc;fill-opacity:1;fill-rule:nonzero;stroke:none"
           d="m 0,0 2.303,-2.106 -0.98,-4.599 c 0,0 -1.871,-5.245 -2.735,-5.293 -0.685,-0.044 -1.555,1.312 -1.555,1.312 -2.143,0.648 -1.934,2 -1.784,3.052 0.1,0.698 0.452,2.294 0.452,2.294 C -3.928,-4.015 -2.242,-1 0,0" />
      </g>
    </g>
  </g>
</svg>
