<?xml version="1.0" encoding="UTF-8" standalone="no"?>
<!-- Created with Inkscape (http://www.inkscape.org/) -->

<svg
   xmlns:dc="http://purl.org/dc/elements/1.1/"
   xmlns:cc="http://creativecommons.org/ns#"
   xmlns:rdf="http://www.w3.org/1999/02/22-rdf-syntax-ns#"
   xmlns:svg="http://www.w3.org/2000/svg"
   xmlns="http://www.w3.org/2000/svg"
   xmlns:sodipodi="http://sodipodi.sourceforge.net/DTD/sodipodi-0.dtd"
   xmlns:inkscape="http://www.inkscape.org/namespaces/inkscape"
   width="1.7654562mm"
   height="5.5350885mm"
   viewBox="0 0 1.7654562 5.5350885"
   version="1.1"
   id="svg164079"
   inkscape:version="0.92.2 (5c3e80d, 2017-08-06)"
   sodipodi:docname="people-business-06.svg">
  <defs
     id="defs164073">
    <clipPath
       id="clipPath80"
       clipPathUnits="userSpaceOnUse">
      <path
         inkscape:connector-curvature="0"
         id="path78"
         d="m 877.905,1879.33 h 48.403 v -28.45 h -48.403 z" />
    </clipPath>
  </defs>
  <sodipodi:namedview
     id="base"
     pagecolor="#ffffff"
     bordercolor="#666666"
     borderopacity="1.0"
     inkscape:pageopacity="0.0"
     inkscape:pageshadow="2"
     inkscape:zoom="0.35"
     inkscape:cx="-392.37798"
     inkscape:cy="287.60284"
     inkscape:document-units="mm"
     inkscape:current-layer="layer1"
     showgrid="false"
     fit-margin-top="0"
     fit-margin-left="0"
     fit-margin-right="0"
     fit-margin-bottom="0"
     inkscape:window-width="1360"
     inkscape:window-height="706"
     inkscape:window-x="-8"
     inkscape:window-y="-8"
     inkscape:window-maximized="1" />
  <metadata
     id="metadata164076">
    <rdf:RDF>
      <cc:Work
         rdf:about="">
        <dc:format>image/svg+xml</dc:format>
        <dc:type
           rdf:resource="http://purl.org/dc/dcmitype/StillImage" />
        <dc:title></dc:title>
      </cc:Work>
    </rdf:RDF>
  </metadata>
  <g
     inkscape:label="Layer 1"
     inkscape:groupmode="layer"
     id="layer1"
     transform="translate(-26.331556,-219.39317)">
    <g
       id="g4643"
       transform="matrix(0.1,0,0,0.086,24.492856,203.05489)">
      <g
         transform="matrix(0.35277777,0,0,-0.35277777,-291.31845,907.29078)"
         id="g74">
        <g
           id="g76" />
        <g
           id="g88">
          <g
             style="opacity:0.28999299"
             id="g86"
             clip-path="url(#clipPath80)">
            <g
               id="g84"
               transform="translate(926.2588,1867.2979)">
              <path
                 inkscape:connector-curvature="0"
                 id="path82"
                 style="fill:#231f20;fill-opacity:1;fill-rule:nonzero;stroke:none"
                 d="m 0,0 c 0,0 -0.755,-2.643 -6.039,-7.549 -5.284,-4.906 -14.152,-10.38 -27.552,-8.492 -13.399,1.888 -19.06,14.154 -11.134,18.872 14.717,8.761 7.36,10.756 26.986,8.114 C 1.887,8.303 0,0 0,0" />
            </g>
          </g>
        </g>
      </g>
      <g
         transform="matrix(0.35277777,0,0,-0.35277777,24.963857,247.74793)"
         id="g90">
        <path
           inkscape:connector-curvature="0"
           id="path92"
           style="fill:#545454;fill-opacity:1;fill-rule:nonzero;stroke:none"
           d="m 0,0 c 0,0 -1.015,-1.623 -3.516,-2.144 -1.544,-0.32 -6.632,-0.955 -6.632,-0.955 -2.526,-0.31 -5.589,-1.114 -6.071,-3.596 0,0 -0.175,-1.247 -0.084,-1.65 0.316,-1.388 1.665,-1.935 3.306,-2.519 0,0 2.981,-1.06 5.536,-1.532 3.299,-0.607 5.124,-0.511 7.503,-0.147 0,0 3.003,0.511 4.215,0.516 C 5.6,-12.021 5.375,-13 5.529,-14.26 l 4.272,-1.116 c 4.273,-0.546 7.102,3.3 6.985,4.269 l -1.155,9.396 z" />
      </g>
      <g
         transform="matrix(0.35277777,0,0,-0.35277777,25.937629,251.9215)"
         id="g94">
        <path
           inkscape:connector-curvature="0"
           id="path96"
           style="fill:#383736;fill-opacity:1;fill-rule:nonzero;stroke:none"
           d="m 0,0 c -1.15,-0.117 -4.476,-0.715 -7.875,-0.324 -3.214,0.369 -8.38,2.252 -8.38,2.252 -1.453,0.516 -2.691,1.405 -2.795,2.239 -0.022,-0.32 -0.033,-0.647 0.007,-0.822 0.312,-1.389 1.663,-1.935 3.301,-2.519 0,0 2.984,-1.06 5.536,-1.531 3.302,-0.608 5.126,-0.51 7.506,-0.149 0,0 3.448,0.492 3.574,0.509 0.793,0.121 1.578,-0.091 1.594,-0.232 C 2.439,-0.51 2.121,0.216 0,0" />
      </g>
      <g
         transform="matrix(0.35277777,0,0,-0.35277777,28.345046,252.58483)"
         id="g98">
        <path
           inkscape:connector-curvature="0"
           id="path100"
           style="fill:#383736;fill-opacity:1;fill-rule:nonzero;stroke:none"
           d="M 0,0 -4.234,1.104 C -4.188,0.69 -4.086,-0.288 -4.038,-0.69 L 0.235,-1.807 C 4.507,-2.351 7.334,1.495 7.217,2.462 L 6.984,4.267 C 7.104,3.297 4.275,-0.547 0,0" />
      </g>
      <g
         transform="matrix(0.35277777,0,0,-0.35277777,28.154017,244.45355)"
         id="g102">
        <path
           inkscape:connector-curvature="0"
           id="path104"
           style="fill:#545454;fill-opacity:1;fill-rule:nonzero;stroke:none"
           d="m 0,0 c 0,0 -0.345,-2.483 -2.749,-2.691 -1.481,-0.13 -3.623,-0.19 -3.623,-0.19 -2.536,0.473 -5.711,0.427 -6.298,-1.463 0,0 -0.268,-0.737 -0.227,-1.141 0.132,-1.391 -0.361,-0.226 1.541,-1.925 0,0 3.613,-2.723 5.845,-3.774 2.809,-1.321 4.257,-1.369 5.164,-1.274 0,0 1.815,0.358 2.95,0.219 1.259,-0.154 0.936,-1.742 0.936,-2.99 l 3.872,-1.599 c 3.941,-1.044 7.03,2.369 7.03,3.326 v 9.962 z" />
      </g>
      <g
         transform="matrix(0.35277777,0,0,-0.35277777,28.585552,248.64039)"
         id="g106">
        <path
           inkscape:connector-curvature="0"
           id="path108"
           style="fill:#383736;fill-opacity:1;fill-rule:nonzero;stroke:none"
           d="m 0,0 c -1.088,0.023 -2.349,0.207 -5.602,1.109 -2.717,0.754 -6.706,3.538 -6.706,3.538 -0.95,0.708 -1.724,1.575 -1.722,2.398 -0.06,-0.308 -0.079,-0.626 -0.091,-0.801 -0.088,-1.267 1.022,-1.963 1.938,-2.6 0,0 3.112,-2.337 5.449,-3.102 3.021,-0.989 3.488,-0.896 4.847,-0.943 0,0 1.725,-0.08 2.866,-0.131 C 1.493,-0.555 2.205,-0.856 2.205,-0.997 2.18,-0.927 2.013,-0.042 0,0" />
      </g>
      <g
         transform="matrix(0.35277777,0,0,-0.35277777,30.768497,249.99755)"
         id="g110">
        <path
           inkscape:connector-curvature="0"
           id="path112"
           style="fill:#383736;fill-opacity:1;fill-rule:nonzero;stroke:none"
           d="M 0,0 -3.839,1.584 C -3.844,1.176 -3.873,0.746 -3.873,0.348 L 0,-1.251 c 3.941,-1.043 7.03,2.368 7.03,3.327 v 1.25 C 7.03,2.369 3.941,-1.043 0,0" />
      </g>
      <g
         transform="matrix(0.35277777,0,0,-0.35277777,32.750835,226.3346)"
         id="g114">
        <path
           inkscape:connector-curvature="0"
           id="path116"
           style="fill:#ffe8d9;fill-opacity:1;fill-rule:nonzero;stroke:none"
           d="m 0,0 c -0.086,-1.732 -2.479,-2.755 -4.056,-2.674 -0.551,0.026 -1.041,-3.206 -1.908,-4.38 -0.913,-1.232 -2.19,-0.402 -2.384,-0.013 -0.153,0.304 1.532,4.977 1.912,6.168 1.268,3.974 2.895,4.039 4.474,3.961 C -0.387,2.984 0.084,1.733 0,0" />
      </g>
      <g
         transform="matrix(0.35277777,0,0,-0.35277777,32.654024,225.08005)"
         id="g118">
        <path
           inkscape:connector-curvature="0"
           id="path120"
           style="fill:#38556d;fill-opacity:1;fill-rule:nonzero;stroke:none"
           d="m 0,0 c 1.778,-0.017 5.215,3.375 5.215,3.375 0,0 0.075,0.438 0.203,1.204 0.726,4.323 4.001,19.081 4.174,24.526 0.187,5.979 -2.19,21.817 -2.19,21.817 0,0 -1.375,13.504 -10.438,13.132 C -8.51,63.83 -5.358,55.839 -5.412,51.043 -5.454,47.271 -3.516,28.104 -3.516,28.104 L -4.724,4.563 c 0,0 1.256,-4.531 4.724,-4.563" />
      </g>
      <g
         transform="matrix(0.35277777,0,0,-0.35277777,33.500664,225.34344)"
         id="g122">
        <path
           inkscape:connector-curvature="0"
           id="path124"
           style="fill:#ffe8d9;fill-opacity:1;fill-rule:nonzero;stroke:none"
           d="m 0,0 -4.547,0.275 -1.986,-5.3 -0.042,-0.884 0.345,-7.081 c 0,0 -0.104,-3.417 3.521,-3.637 2.368,-0.145 0.256,-0.017 0.256,-0.017 3.247,-0.196 3.711,3.278 3.711,3.278 L 2.547,-4.31 C 2.707,-2.384 2.085,-0.126 0,0" />
      </g>
      <g
         transform="matrix(0.35277777,0,0,-0.35277777,30.659992,225.30297)"
         id="g126">
        <path
           inkscape:connector-curvature="0"
           id="path128"
           style="fill:#e4eff4;fill-opacity:1;fill-rule:nonzero;stroke:none"
           d="m 0,0 c -0.013,-0.793 1.728,-2.368 4.058,-2.607 3.03,-0.308 4.463,0.252 4.463,0.252 1.406,0.476 2.176,1.022 2.297,2.01 0,0 0.465,3.652 0.556,4.805 0.057,0.746 -0.303,0.75 -0.303,0.75 0,0 -0.067,-0.585 -0.193,-0.797 C 10.414,3.641 9.111,2.605 6.135,2.537 1.451,2.428 0.929,5.195 0.929,5.195 0.246,5.202 0.02,4.898 0.044,4.111 Z" />
      </g>
      <g
         transform="matrix(0.35277777,0,0,-0.35277777,33.992075,225.38096)"
         id="g130">
        <path
           inkscape:connector-curvature="0"
           id="path132"
           style="fill:#e8c5ac;fill-opacity:1;fill-rule:nonzero;stroke:none"
           d="m 0,0 c 0,0 2.125,9.979 -10.232,9.979 -9.791,0 -9.791,-10.392 -9.791,-10.392 l 4.951,-59.847 h 12.224 z" />
      </g>
      <g
         transform="matrix(0.35277777,0,0,-0.35277777,25.417247,192.36665)"
         id="g134">
        <path
           inkscape:connector-curvature="0"
           id="path136"
           style="fill:#ffe1cc;fill-opacity:1;fill-rule:nonzero;stroke:none"
           d="m 0,0 -8.399,-1.026 3.514,-21.603 c 0.886,-6.209 3.593,-6.938 5.485,-6.799 3.929,0.287 8.105,2.857 10.192,4.336 4.045,2.863 3.357,10.151 3.344,10.744 l 0.172,14.639 z" />
      </g>
      <g
         transform="matrix(0.35277777,0,0,-0.35277777,31.273216,206.75628)"
         id="g138">
        <path
           inkscape:connector-curvature="0"
           id="path140"
           style="fill:#ffe1cc;fill-opacity:1;fill-rule:nonzero;stroke:none"
           d="M 0,0 -0.695,11.51 -2.959,24.531 -13.906,21.983 -12.491,9.34 c 0,-1.802 -1.272,-2.293 -2.224,-3.821 l -5.191,-8.291 c -1.245,-1.999 -3.845,-5.176 -3.845,-10.772 V -44.321 L 1.354,-47.813 V -6.957 C 1.354,-4.573 0.893,-2.208 0,0" />
      </g>
      <g
         transform="matrix(0.35277777,0,0,-0.35277777,25.792611,219.84091)"
         id="g142">
        <path
           inkscape:connector-curvature="0"
           id="path144"
           style="fill:#14546d;fill-opacity:1;fill-rule:nonzero;stroke:none"
           d="M 0,0 V -5.726 C 0,-9.98 1.015,-17.194 1.015,-17.194 l 19.563,-0.744 c 2.463,0.494 3.397,3.858 3.397,7.248 V 0 Z" />
      </g>
      <g
         transform="matrix(0.35277777,0,0,-0.35277777,33.992075,225.38096)"
         id="g146">
        <path
           inkscape:connector-curvature="0"
           id="path148"
           style="fill:#ffe1cc;fill-opacity:1;fill-rule:nonzero;stroke:none"
           d="m 0,0 c 0,0 -0.812,6.936 -9.436,6.936 -1.15,0 0,0.012 -3.397,0.002 -8.245,-0.024 -9.395,-8.428 -9.395,-8.428 l 5.138,-58.527 13.088,-0.243 z" />
      </g>
      <g
         transform="matrix(0.35277777,0,0,-0.35277777,23.055655,191.64455)"
         id="g150">
        <path
           inkscape:connector-curvature="0"
           id="path152"
           style="fill:#633a11;fill-opacity:1;fill-rule:nonzero;stroke:none"
           d="m 0,0 c -4.529,-2.972 -3.996,-6.847 -0.566,-9.341 1.557,-1.133 3.067,-4.246 3.539,-6.652 l 0.47,-2.266 c 0.034,-0.835 1.241,-1.97 1.748,-0.707 0.566,1.415 -0.509,2.372 0.046,3.114 0.562,0.753 2.264,1.132 4.246,-3.397 l 1.132,-3.538 c 1.841,-3.963 5.237,-3.963 7.643,-3.255 0,0 2.406,0.849 3.538,2.123 0.556,0.624 3.714,6.754 4.293,8.869 C 29.015,-4.388 23.495,8.492 7.501,3.68 3.193,2.384 0,0 0,0" />
      </g>
      <g
         transform="matrix(0.35277777,0,0,-0.35277777,26.180331,223.6295)"
         id="g154">
        <path
           inkscape:connector-curvature="0"
           id="path156"
           style="fill:#282827;fill-opacity:1;fill-rule:nonzero;stroke:none"
           d="m 0,0 0.531,-68.42 c 0,0 4.469,-4.152 11.889,-4.152 4.15,0 8.206,2.678 8.317,3.832 l 2.466,69.943 z" />
      </g>
      <g
         transform="matrix(0.35277777,0,0,-0.35277777,24.204053,226.09672)"
         id="g158">
        <path
           inkscape:connector-curvature="0"
           id="path160"
           style="fill:#383736;fill-opacity:1;fill-rule:nonzero;stroke:none"
           d="m 0,0 1.203,-60.648 c -0.033,0.033 -0.141,-1.486 -0.778,-1.84 -0.631,-0.35 -0.602,-1.627 -0.283,-2.477 0.424,-1.133 4.387,-7.431 12.738,-7.006 2.543,0.129 5.537,1.1 5.661,2.194 l 4.169,69.754 z" />
      </g>
      <g
         transform="matrix(0.35277777,0,0,-0.35277777,24.237628,206.75663)"
         id="g162">
        <path
           inkscape:connector-curvature="0"
           id="path164"
           style="fill:#4d6b89;fill-opacity:1;fill-rule:nonzero;stroke:none"
           d="m 0,0 c -2.417,-2.495 -5.172,-5.46 -5.172,-14.229 l 0.831,-39.933 c 0,-1.524 -0.089,-5.588 7.736,-6.794 2.454,-0.377 5.975,-1.469 11.513,0.378 2.264,0.755 14.154,6.228 14.154,9.435 L 29.15,-6.086 C 28.778,9.152 20.043,12.497 20.043,12.497 L 9.665,8.715 Z" />
      </g>
      <g
         transform="matrix(0.35277777,0,0,-0.35277777,30.611599,201.33148)"
         id="g166">
        <path
           inkscape:connector-curvature="0"
           id="path168"
           style="fill:#e4eff4;fill-opacity:1;fill-rule:nonzero;stroke:none"
           d="M 0,0 C 1.468,0.349 1.84,0.095 2.123,-0.802 2.402,-1.685 2.395,-1.74 2.738,-2.594 3.021,-3.302 2.689,-3.349 2.689,-3.349 c 0,0 -7.36,-2.028 -12.831,-5.756 -3.89,-2.649 -4.188,-2.902 -4.188,-2.902 l 0.908,2.985 c 0.708,2.548 3.656,5.06 8.044,6.994 0,0 3.587,1.603 5.378,2.028" />
      </g>
      <g
         transform="matrix(0.35277777,0,0,-0.35277777,25.063763,229.79673)"
         id="g170">
        <path
           inkscape:connector-curvature="0"
           id="path172"
           style="fill:#ffe8d9;fill-opacity:1;fill-rule:nonzero;stroke:none"
           d="m 0,0 c -0.066,-1.734 -2.45,-2.782 -4.027,-2.719 -0.551,0.019 -1.006,-3.218 -1.86,-4.399 -0.9,-1.242 -2.185,-0.427 -2.384,-0.04 -0.155,0.302 1.478,4.993 1.844,6.188 1.223,3.989 2.853,4.071 4.43,4.01 C -0.42,2.979 0.064,1.732 0,0" />
      </g>
      <g
         transform="matrix(0.35277777,0,0,-0.35277777,24.953882,229.34249)"
         id="g174">
        <path
           inkscape:connector-curvature="0"
           id="path176"
           style="fill:#688caa;fill-opacity:1;fill-rule:nonzero;stroke:none"
           d="m 0,0 c 1.776,0.003 5.175,3.434 5.175,3.434 0,0 0.068,2.726 0.188,3.491 0.677,4.332 3.297,16.927 3.41,22.374 0.121,5.981 -1.935,21.702 -1.935,21.702 0,0 -0.558,11.383 -7.132,11.383 -5.478,0 -6.414,-5.052 -6.414,-9.849 0,-3.773 2.882,-24.469 2.882,-24.469 L -4.777,4.511 c 0,0 1.307,-4.515 4.777,-4.511" />
      </g>
      <g
         transform="matrix(0.35277777,0,0,-0.35277777,25.803432,228.79731)"
         id="g178">
        <path
           inkscape:connector-curvature="0"
           id="path180"
           style="fill:#ffe8d9;fill-opacity:1;fill-rule:nonzero;stroke:none"
           d="m 0,0 -4.553,0.225 -1.927,-5.322 -0.031,-0.884 0.423,-7.078 c 0,0 -0.069,-3.416 3.558,-3.598 2.371,-0.117 0.257,-0.013 0.257,-0.013 3.249,-0.162 3.675,3.317 3.675,3.317 l 1.192,9.072 C 2.729,-2.355 2.083,-0.104 0,0" />
      </g>
      <g
         transform="matrix(0.35277777,0,0,-0.35277777,22.961252,228.78817)"
         id="g182">
        <path
           inkscape:connector-curvature="0"
           id="path184"
           style="fill:#e4eff4;fill-opacity:1;fill-rule:nonzero;stroke:none"
           d="m 0,0 c -0.002,-0.793 1.754,-2.35 4.089,-2.562 3.03,-0.274 4.458,0.3 4.458,0.3 1.401,0.491 2.165,1.047 2.276,2.035 0,0 0.425,3.658 0.502,4.812 0.051,0.746 -0.312,0.746 -0.312,0.746 0,0 -0.059,-0.586 -0.183,-0.799 C 10.374,3.754 9.083,2.706 6.106,2.604 1.424,2.444 0.945,5.283 0.945,5.283 0.261,5.283 0.148,4.611 0.148,3.656 Z" />
      </g>
      <g
         transform="matrix(0.35277777,0,0,-0.35277777,24.931154,197.13949)"
         id="g186">
        <path
           inkscape:connector-curvature="0"
           id="path188"
           style="fill:#efcfbd;fill-opacity:1;fill-rule:nonzero;stroke:none"
           d="M 0,0 C 0,0 1.783,-0.21 2.448,-2.234 2.919,-3.663 2.457,-4.886 2.189,-5.25 1.477,-6.224 0.697,-6.455 0.697,-6.455 c 0,0 -0.102,3.463 -0.159,4.1 C 0.478,-1.72 0,0 0,0" />
      </g>
      <g
         transform="matrix(0.35277777,0,0,-0.35277777,24.625402,196.88454)"
         id="g190">
        <path
           inkscape:connector-curvature="0"
           id="path192"
           style="fill:#ffe8d9;fill-opacity:1;fill-rule:nonzero;stroke:none"
           d="M 0,0 C 0,0 -1.018,0.014 -0.246,-1.413 0.526,-2.837 0.73,-3.706 0.787,-4.524 0.838,-5.272 0.741,-7.521 0.741,-7.521 c 0,0 0.667,-0.9 1.236,0.488 0.272,0.662 0.416,1.909 0.323,3.502 C 2.262,-2.885 1.088,0.368 0,0" />
      </g>
    </g>
  </g>
</svg>
