<?xml version="1.0" encoding="UTF-8" standalone="no"?>
<!-- Created with Inkscape (http://www.inkscape.org/) -->

<svg
   xmlns:dc="http://purl.org/dc/elements/1.1/"
   xmlns:cc="http://creativecommons.org/ns#"
   xmlns:rdf="http://www.w3.org/1999/02/22-rdf-syntax-ns#"
   xmlns:svg="http://www.w3.org/2000/svg"
   xmlns="http://www.w3.org/2000/svg"
   xmlns:sodipodi="http://sodipodi.sourceforge.net/DTD/sodipodi-0.dtd"
   xmlns:inkscape="http://www.inkscape.org/namespaces/inkscape"
   width="3.0032942mm"
   height="5.396543mm"
   viewBox="0 0 3.0032943 5.3965431"
   version="1.1"
   id="svg113590"
   inkscape:version="0.92.2 (5c3e80d, 2017-08-06)"
   sodipodi:docname="people-dancing-7.svg">
  <defs
     id="defs113584">
    <clipPath
       id="clipPath6938"
       clipPathUnits="userSpaceOnUse">
      <path
         inkscape:connector-curvature="0"
         id="path6936"
         d="m 332.31,670.939 h 80.557 V 627.742 H 332.31 Z" />
    </clipPath>
    <clipPath
       id="clipPath19962"
       clipPathUnits="userSpaceOnUse">
      <path
         inkscape:connector-curvature="0"
         id="path19960"
         d="m 509.182,647.722 h 56.485 v -19.98 h -56.485 z" />
    </clipPath>
    <clipPath
       id="clipPath19818"
       clipPathUnits="userSpaceOnUse">
      <path
         inkscape:connector-curvature="0"
         id="path19816"
         d="m 671.425,650.716 h 65.619 v -22.975 h -65.619 z" />
    </clipPath>
    <clipPath
       id="clipPath14734"
       clipPathUnits="userSpaceOnUse">
      <path
         inkscape:connector-curvature="0"
         id="path14732"
         d="m 800.948,651.727 h 68.678 v -23.986 h -68.678 z" />
    </clipPath>
    <clipPath
       id="clipPath14822"
       clipPathUnits="userSpaceOnUse">
      <path
         inkscape:connector-curvature="0"
         id="path14820"
         d="m 957.738,645.951 h 63.252 v -18.209 h -63.252 z" />
    </clipPath>
    <clipPath
       id="clipPath20130"
       clipPathUnits="userSpaceOnUse">
      <path
         inkscape:connector-curvature="0"
         id="path20128"
         d="m 1084.85,651.425 h 64.51 v -23.683 h -64.51 z" />
    </clipPath>
    <clipPath
       id="clipPath20722"
       clipPathUnits="userSpaceOnUse">
      <path
         inkscape:connector-curvature="0"
         id="path20720"
         d="m 1222.08,654.393 h 75.95 v -26.652 h -75.95 z" />
    </clipPath>
  </defs>
  <sodipodi:namedview
     id="base"
     pagecolor="#ffffff"
     bordercolor="#666666"
     borderopacity="1.0"
     inkscape:pageopacity="0.0"
     inkscape:pageshadow="2"
     inkscape:zoom="0.35"
     inkscape:cx="-103.93347"
     inkscape:cy="438.63438"
     inkscape:document-units="mm"
     inkscape:current-layer="layer1"
     showgrid="false"
     inkscape:window-width="1360"
     inkscape:window-height="706"
     inkscape:window-x="-8"
     inkscape:window-y="-8"
     inkscape:window-maximized="1"
     fit-margin-top="0"
     fit-margin-left="0"
     fit-margin-right="0"
     fit-margin-bottom="0" />
  <metadata
     id="metadata113587">
    <rdf:RDF>
      <cc:Work
         rdf:about="">
        <dc:format>image/svg+xml</dc:format>
        <dc:type
           rdf:resource="http://purl.org/dc/dcmitype/StillImage" />
        <dc:title></dc:title>
      </cc:Work>
    </rdf:RDF>
  </metadata>
  <g
     inkscape:label="Layer 1"
     inkscape:groupmode="layer"
     id="layer1"
     transform="translate(49.986063,-259.49214)">
    <g
       id="g36542"
       transform="matrix(0.1,0,0,0.086,-43.635974,239.64204)">
      <g
         transform="matrix(0.35277777,0,0,-0.35277777,-58.097447,243.87055)"
         id="g20712">
        <path
           inkscape:connector-curvature="0"
           id="path20714"
           style="fill:#5b31ad;fill-opacity:1;fill-rule:nonzero;stroke:none"
           d="m 0,0 c 0,0 -13.396,-19.279 -14.705,-21.893 -1.307,-2.613 -0.654,-7.189 3.267,-8.496 4.17,-1.39 25.817,-5.228 25.817,-5.228 l -2.287,6.209 -15.36,6.861 9.477,11.764 C 6.209,-10.783 6.537,5.883 0,0" />
      </g>
      <g
         transform="matrix(0.35277777,0,0,-0.35277777,-491.50041,515.01886)"
         id="g20716">
        <g
           id="g20718" />
        <g
           id="g20730">
          <g
             style="opacity:0.27000403"
             id="g20728"
             clip-path="url(#clipPath20722)">
            <g
               id="g20726"
               transform="translate(1289.3447,643.0898)">
              <path
                 inkscape:connector-curvature="0"
                 id="path20724"
                 style="fill:#231f20;fill-opacity:1;fill-rule:nonzero;stroke:none"
                 d="m 0,0 c -5.135,1.998 -28.092,-1.568 -20.461,5.215 4.565,4.062 -8.193,6.744 -16.068,5.947 -10.592,-1.08 -33.567,-3.986 -30.442,-15.223 1.95,-7.005 18.266,-12.175 39.067,-11.16 14.482,0.707 29.998,4.494 34.502,7.612 C 13.191,-3.045 2.297,-0.895 0,0" />
            </g>
          </g>
        </g>
      </g>
      <g
         transform="matrix(0.35277777,0,0,-0.35277777,-38.416283,255.30619)"
         id="g20732">
        <path
           inkscape:connector-curvature="0"
           id="path20734"
           style="fill:#e5b28c;fill-opacity:1;fill-rule:nonzero;stroke:none"
           d="m 0,0 c 0,0 0.33,-3.393 1.396,-2.223 0.758,0.832 8.641,0.838 9.151,-0.652 1.101,-3.219 2.732,-1.336 2.732,-1.336 0,0 1.758,3.01 -0.117,5.584 -2.461,3.379 -2.924,3.617 -5.955,3.775 -3.033,0.165 -9.014,0.02 -9.014,0.02 z" />
      </g>
      <g
         transform="matrix(0.35277777,0,0,-0.35277777,-56.598817,245.13835)"
         id="g20736">
        <path
           inkscape:connector-curvature="0"
           id="path20738"
           style="fill:#f7cbad;fill-opacity:1;fill-rule:nonzero;stroke:none"
           d="m 0,0 c 0,0 2.615,6.861 4.574,17.973 0.266,1.507 7.903,-1.619 7.903,-1.619 0,0 -1.041,-10.471 -0.77,-13.856 C 11.928,-0.283 0,0 0,0" />
      </g>
      <g
         transform="matrix(0.35277777,0,0,-0.35277777,-55.086407,283.26315)"
         id="g20740">
        <path
           inkscape:connector-curvature="0"
           id="path20742"
           style="fill:#fafcfc;fill-opacity:1;fill-rule:nonzero;stroke:none"
           d="m 0,0 c 0,0 -2.027,-1.502 -1.813,-4.48 0.209,-2.975 0.143,-3.715 0.899,-4.272 0.756,-0.559 2.998,-1.328 4.785,-1.088 1.791,0.248 4.656,1.986 5.736,2.315 1.081,0.32 0.77,0.326 4.623,1.539 5.422,1.705 6.352,3.15 6.797,4.597 0.452,1.469 0.666,2.725 0,3.143 C 17.107,4.205 10.379,-0.596 8.65,1.24 6.922,3.068 0,0 0,0" />
      </g>
      <g
         transform="matrix(0.35277777,0,0,-0.35277777,-55.258677,282.69265)"
         id="g20744">
        <path
           inkscape:connector-curvature="0"
           id="path20746"
           style="fill:#9db2b2;fill-opacity:1;fill-rule:nonzero;stroke:none"
           d="m 0,0 c 0,0 -0.877,-0.928 -1.438,-4.188 -0.505,-2.939 0.229,-4.269 0.524,-4.566 0.826,-0.828 3.459,-1.484 5.24,-1.172 1.416,0.256 2.59,0.758 3.619,1.223 1.709,0.769 2.731,1.015 5.756,1.789 4.69,1.201 7.594,4.504 7.957,5.975 C 21.977,0.357 20.525,2.336 16.93,1.82 11.764,1.084 9.953,0.908 8.65,1.236 6.207,1.855 0,0 0,0" />
      </g>
      <g
         transform="matrix(0.35277777,0,0,-0.35277777,-50.955077,259.36108)"
         id="g20748">
        <path
           inkscape:connector-curvature="0"
           id="path20750"
           style="fill:#8597b5;fill-opacity:1;fill-rule:nonzero;stroke:none"
           d="M 0,0 C 2.777,-7.996 6.625,-25.459 7.324,-35.789 7.557,-39.23 7.271,-41.813 6.82,-43.125 1.873,-57.512 -1.275,-66.5 -1.275,-66.5 c -9.663,-9.666 -11.834,-1.391 -11.598,-0.334 0,0 2.928,13.344 5.531,20.115 1.121,2.922 2.592,6.737 2.473,7.864 -0.899,8.546 -8.543,19.111 -7.641,31.476 C -12.291,-4.309 -4.906,14.125 0,0" />
      </g>
      <g
         transform="matrix(0.35277777,0,0,-0.35277777,-52.786487,234.55018)"
         id="g20752">
        <path
           inkscape:connector-curvature="0"
           id="path20754"
           style="fill:#f7cbad;fill-opacity:1;fill-rule:nonzero;stroke:none"
           d="M 0,0 8.432,1 7.723,-15.574 c -0.135,-4.559 -2.616,-5.662 -4.014,-5.848 -2.908,-0.389 -5.938,0.801 -7.672,1.561 -3.353,1.463 -4.256,6.877 -4.33,7.312 l -2.189,10.58 z" />
      </g>
      <g
         transform="matrix(0.35277777,0,0,-0.35277777,-55.422667,240.18776)"
         id="g20756">
        <path
           inkscape:connector-curvature="0"
           id="path20758"
           style="fill:#ffde73;fill-opacity:1;fill-rule:nonzero;stroke:none"
           d="m 0,0 c 0,0 -1.861,3.789 -4.043,9.08 -2.184,5.297 -1.096,8.059 0.414,10.068 0.984,1.317 1.484,2.145 2.035,2.989 1.199,1.849 1.145,2.488 1.145,2.488 0,0 1.957,0 1.637,-1.855 -0.174,-1.014 0.597,-0.936 0.597,-0.936 0,0 1.651,0.609 1.389,2.25 -0.268,1.641 -0.746,1.977 -0.746,1.977 0,0 2.445,-0.704 3.17,-2.25 0.369,-0.797 0.888,0.312 1.156,0.978 0.264,0.67 0.172,1.779 0.172,1.779 l 3.91,-2.877 c 0,0 0.598,0.151 0.863,0.819 0.268,0.67 -0.385,1.533 -0.385,1.533 0,0 3.6,-1.559 4.844,-6.314 0.424,-1.625 -0.031,-4.383 -1.25,-6.211 -1.148,-1.713 -2.836,-6.914 -2.836,-6.914 0,0 -0.324,-4.258 -1.427,-0.686 C 10.08,7.764 7.625,4.311 5.936,1.42 4.166,-1.611 1.939,-3.205 0,0" />
      </g>
      <g
         transform="matrix(0.35277777,0,0,-0.35277777,-51.881117,237.52674)"
         id="g20760">
        <path
           inkscape:connector-curvature="0"
           id="path20762"
           style="fill:#e5b7a3;fill-opacity:1;fill-rule:nonzero;stroke:none"
           d="m 0,0 c 0,0 -1.271,-0.43 -1.471,-1.996 -0.14,-1.106 0.364,-1.922 0.616,-2.147 0.656,-0.601 1.259,-0.646 1.259,-0.646 0,0 -0.416,2.523 -0.463,2.998 C -0.107,-1.326 0,0 0,0" />
      </g>
      <g
         transform="matrix(0.35277777,0,0,-0.35277777,-51.693017,237.29663)"
         id="g20764">
        <path
           inkscape:connector-curvature="0"
           id="path20766"
           style="fill:#f7ddcb;fill-opacity:1;fill-rule:nonzero;stroke:none"
           d="m 0,0 c 0,0 0.736,0.164 0.379,-0.99 -0.367,-1.147 -0.393,-1.809 -0.318,-2.412 0.068,-0.553 0.455,-2.159 0.455,-2.159 0,0 -0.36,-0.755 -0.969,0.163 -0.289,0.439 -0.572,1.318 -0.729,2.484 C -1.244,-2.434 -0.846,0.1 0,0" />
      </g>
      <g
         transform="matrix(0.35277777,0,0,-0.35277777,-48.787397,259.58569)"
         id="g20768">
        <path
           inkscape:connector-curvature="0"
           id="path20770"
           style="fill:#afbbd3;fill-opacity:1;fill-rule:nonzero;stroke:none"
           d="m 0,0 c 7.223,-6.043 18.883,-32.594 18.883,-32.594 0,0 4.271,-6.969 1.125,-16.414 -2.178,-6.533 -4.629,-28.494 -4.629,-28.494 0.191,-1.426 -8.022,6.731 -11.108,4.895 0,0 -0.673,15.959 4.272,27.875 1.859,4.478 -5.568,13.662 -10.34,19.703 -5.527,7.002 -10.56,12.826 -10.492,17.687 0.141,10.248 4.324,10.231 4.324,10.231 0,0 6.342,-1.528 7.965,-2.889" />
      </g>
      <g
         transform="matrix(0.35277777,0,0,-0.35277777,-55.350987,264.87254)"
         id="g20772">
        <path
           inkscape:connector-curvature="0"
           id="path20774"
           style="fill:#7650d6;fill-opacity:1;fill-rule:nonzero;stroke:none"
           d="m 0,0 c 0,0 -3.287,9.568 -5.172,18.361 -1.959,9.149 -2.939,15.686 -4.902,32.352 0,0 -0.362,11.043 6.863,11.764 3.641,0.359 14.541,-4.534 16.34,-5.883 1.219,-0.912 7.625,-5.774 7.189,-17.975 C 20.189,35.02 20.686,29.92 20.645,23.588 20.604,17.426 21.625,15.42 23.26,11.822 24.426,9.26 26.955,4.375 26.699,4.197 8.717,-8.393 0,0 0,0" />
      </g>
      <g
         transform="matrix(0.35277777,0,0,-0.35277777,-51.757077,245.71438)"
         id="g20776">
        <path
           inkscape:connector-curvature="0"
           id="path20778"
           style="fill:#8463ea;fill-opacity:1;fill-rule:nonzero;stroke:none"
           d="m 0,0 c 0,0 -7.189,-1.635 -2.613,-9.805 2.865,-5.115 12.416,-16.554 16.338,-17.865 7.894,-2.629 28.755,-3.486 28.755,-3.486 0,0 0.704,7.636 -3.484,9.15 -0.287,0.104 -19.496,3.313 -21.359,5.287 C 11.111,-9.805 4.617,1.906 0,0" />
      </g>
      <g
         transform="matrix(0.35277777,0,0,-0.35277777,-44.465187,285.28059)"
         id="g20780">
        <path
           inkscape:connector-curvature="0"
           id="path20782"
           style="fill:#d0d6d6;fill-opacity:1;fill-rule:nonzero;stroke:none"
           d="m 0,0 c 0,0 -4.832,6.182 -8.432,3.822 -0.773,-0.509 -2.359,-3.259 -2.92,-5.17 -0.273,-0.925 -1.197,-4.287 2.25,-5.843 1.684,-0.762 5.168,-1.926 8.653,-4.159 3.488,-2.228 8.683,-4.566 10.226,-4.718 2.998,-0.301 6.073,0.761 2.549,3.927 C 9.328,-9.438 3.262,-3.705 3.934,-0.332 4.439,2.197 0,0 0,0" />
      </g>
      <g
         transform="matrix(0.35277777,0,0,-0.35277777,-39.569019,290.35594)"
         id="g20784">
        <path
           inkscape:connector-curvature="0"
           id="path20786"
           style="fill:#fafcfc;fill-opacity:1;fill-rule:nonzero;stroke:none"
           d="m 0,0 c -1.039,0.963 -3.418,1.432 -4.773,2.027 -1.799,0.782 -7.983,3.934 -10.002,5.393 -2.028,1.463 -5.061,4.498 -8.657,5.17 -0.873,0.164 -1.5,0.068 -1.959,-0.172 -0.295,-1.338 -0.484,-3.912 2.411,-5.223 1.683,-0.761 5.167,-1.925 8.652,-4.158 3.488,-2.228 8.683,-4.566 10.226,-4.719 C -1.977,-1.895 0.172,-1.422 0,0" />
      </g>
      <g
         transform="matrix(0.35277777,0,0,-0.35277777,-39.756424,290.78377)"
         id="g20788">
        <path
           inkscape:connector-curvature="0"
           id="path20790"
           style="fill:#81959b;fill-opacity:1;fill-rule:nonzero;stroke:none"
           d="m 0,0 c -0.105,0.076 -0.201,0.15 -0.287,0.225 -1.348,1.123 -10.026,3.687 -14.297,6.834 -4.271,3.15 -5.51,5.734 -9.555,5.171 -0.357,-0.05 -0.629,-0.144 -0.871,-0.251 0.072,-1.26 0.629,-2.698 2.561,-3.571 1.683,-0.762 6.59,-3.043 9.228,-6.23 2.008,-2.426 5.073,-2.948 6.617,-3.098 C -5.051,-1.074 -0.781,-0.826 0,0" />
      </g>
    </g>
  </g>
</svg>
