<?xml version="1.0" encoding="UTF-8" standalone="no"?>
<!-- Created with Inkscape (http://www.inkscape.org/) -->

<svg
   xmlns:dc="http://purl.org/dc/elements/1.1/"
   xmlns:cc="http://creativecommons.org/ns#"
   xmlns:rdf="http://www.w3.org/1999/02/22-rdf-syntax-ns#"
   xmlns:svg="http://www.w3.org/2000/svg"
   xmlns="http://www.w3.org/2000/svg"
   xmlns:sodipodi="http://sodipodi.sourceforge.net/DTD/sodipodi-0.dtd"
   xmlns:inkscape="http://www.inkscape.org/namespaces/inkscape"
   width="2.2444584mm"
   height="5.62078mm"
   viewBox="0 0 2.2444585 5.62078"
   version="1.1"
   id="svg164983"
   inkscape:version="0.92.2 (5c3e80d, 2017-08-06)"
   sodipodi:docname="people-business-15.svg">
  <defs
     id="defs164977">
    <clipPath
       id="clipPath5810"
       clipPathUnits="userSpaceOnUse">
      <path
         inkscape:connector-curvature="0"
         id="path5808"
         d="m 1619.15,1879.69 h 63.63 v -28.61 h -63.63 z" />
    </clipPath>
  </defs>
  <sodipodi:namedview
     id="base"
     pagecolor="#ffffff"
     bordercolor="#666666"
     borderopacity="1.0"
     inkscape:pageopacity="0.0"
     inkscape:pageshadow="2"
     inkscape:zoom="0.35"
     inkscape:cx="-525.7585"
     inkscape:cy="-137.94949"
     inkscape:document-units="mm"
     inkscape:current-layer="layer1"
     showgrid="false"
     fit-margin-top="0"
     fit-margin-left="0"
     fit-margin-right="0"
     fit-margin-bottom="0"
     inkscape:window-width="1360"
     inkscape:window-height="706"
     inkscape:window-x="-8"
     inkscape:window-y="-8"
     inkscape:window-maximized="1" />
  <metadata
     id="metadata164980">
    <rdf:RDF>
      <cc:Work
         rdf:about="">
        <dc:format>image/svg+xml</dc:format>
        <dc:type
           rdf:resource="http://purl.org/dc/dcmitype/StillImage" />
        <dc:title></dc:title>
      </cc:Work>
    </rdf:RDF>
  </metadata>
  <g
     inkscape:label="Layer 1"
     inkscape:groupmode="layer"
     id="layer1"
     transform="translate(-61.621815,-106.71342)">
    <g
       id="g6392"
       transform="matrix(0.1,0,0,0.086,56.46964,100.10476)">
      <g
         transform="matrix(0.35277777,0,0,-0.35277777,-519.67943,795.22264)"
         id="g5804">
        <g
           id="g5806" />
        <g
           id="g5818">
          <g
             style="opacity:0.27000403"
             id="g5816"
             clip-path="url(#clipPath5810)">
            <g
               id="g5814"
               transform="translate(1668.1855,1869.2207)">
              <path
                 inkscape:connector-curvature="0"
                 id="path5812"
                 style="fill:#231f20;fill-opacity:1;fill-rule:nonzero;stroke:none"
                 d="m 0,0 c -4.346,1.95 6.212,2.296 1.611,6.979 -1.967,2.001 -9.402,3.42 -16.104,3.488 -10.227,0.105 -37,-4.6 -34.357,-15.566 1.651,-6.843 10.623,-14.925 39.246,-12.65 12.25,0.97 25.424,6.717 24.102,11.573 C 13.69,-3.222 1.947,-0.871 0,0" />
            </g>
          </g>
        </g>
      </g>
      <g
         transform="matrix(0.35277777,0,0,-0.35277777,63.432579,134.55584)"
         id="g5820">
        <path
           inkscape:connector-curvature="0"
           id="path5822"
           style="fill:#231f20;fill-opacity:1;fill-rule:nonzero;stroke:none"
           d="m 0,0 c 0,0 0.998,-1.596 3.455,-2.107 1.518,-0.315 6.52,-0.939 6.52,-0.939 2.48,-0.305 5.489,-1.094 5.963,-3.533 0,0 0.171,-1.227 0.081,-1.621 -0.308,-1.367 -1.636,-1.903 -3.246,-2.474 0,0 -2.931,-1.042 -5.441,-1.506 -3.243,-0.596 -5.036,-0.505 -7.369,-0.146 0,0 -2.955,0.504 -4.145,0.506 -1.319,0.006 -1.099,-0.954 -1.253,-2.193 l -4.196,-1.094 c -4.198,-0.54 -6.978,3.244 -6.862,4.191 l 1.138,9.235 z" />
      </g>
      <g
         transform="matrix(0.35277777,0,0,-0.35277777,62.475184,138.6567)"
         id="g5824">
        <path
           inkscape:connector-curvature="0"
           id="path5826"
           style="fill:#383736;fill-opacity:1;fill-rule:nonzero;stroke:none"
           d="m 0,0 c 1.133,-0.118 4.4,-0.701 7.741,-0.319 3.155,0.365 8.234,2.214 8.234,2.214 1.426,0.505 2.643,1.379 2.747,2.199 0.02,-0.314 0.031,-0.637 -0.005,-0.807 -0.31,-1.369 -1.637,-1.901 -3.245,-2.476 0,0 -2.931,-1.043 -5.441,-1.502 -3.244,-0.6 -5.037,-0.506 -7.378,-0.15 0,0 -3.385,0.487 -3.511,0.502 -0.776,0.12 -1.55,-0.089 -1.566,-0.229 C -2.394,-0.5 -2.08,0.211 0,0" />
      </g>
      <g
         transform="matrix(0.35277777,0,0,-0.35277777,60.109809,139.30885)"
         id="g5828">
        <path
           inkscape:connector-curvature="0"
           id="path5830"
           style="fill:#383736;fill-opacity:1;fill-rule:nonzero;stroke:none"
           d="M 0,0 4.159,1.085 C 4.117,0.679 4.015,-0.281 3.969,-0.678 l -4.199,-1.1 C -4.428,-2.313 -7.207,1.468 -7.089,2.418 L -6.86,4.192 C -6.978,3.241 -4.201,-0.536 0,0" />
      </g>
      <g
         transform="matrix(0.35277777,0,0,-0.35277777,60.297902,131.31914)"
         id="g5832">
        <path
           inkscape:connector-curvature="0"
           id="path5834"
           style="fill:#231f20;fill-opacity:1;fill-rule:nonzero;stroke:none"
           d="m 0,0 c 0,0 0.34,-2.438 2.7,-2.642 1.455,-0.128 3.564,-0.189 3.564,-0.189 2.491,0.466 5.61,0.421 6.183,-1.439 0,0 0.267,-0.723 0.228,-1.117 -0.13,-1.369 0.35,-0.225 -1.516,-1.893 0,0 -3.549,-2.676 -5.744,-3.709 -2.759,-1.299 -4.182,-1.345 -5.073,-1.25 0,0 -1.786,0.351 -2.9,0.214 -1.237,-0.152 -0.919,-1.714 -0.919,-2.935 l -3.806,-1.572 c -3.874,-1.03 -6.91,2.326 -6.91,3.267 v 9.788 z" />
      </g>
      <g
         transform="matrix(0.35277777,0,0,-0.35277777,59.874515,135.43277)"
         id="g5836">
        <path
           inkscape:connector-curvature="0"
           id="path5838"
           style="fill:#383736;fill-opacity:1;fill-rule:nonzero;stroke:none"
           d="m 0,0 c 1.068,0.023 2.304,0.201 5.503,1.087 2.67,0.742 6.587,3.479 6.587,3.479 0.937,0.698 1.697,1.546 1.693,2.361 0.061,-0.307 0.079,-0.619 0.092,-0.794 0.086,-1.242 -1.007,-1.925 -1.903,-2.55 0,0 -3.059,-2.3 -5.357,-3.049 -2.969,-0.972 -3.426,-0.881 -4.761,-0.924 0,0 -1.698,-0.082 -2.819,-0.132 C -1.468,-0.546 -2.167,-0.841 -2.167,-0.978 -2.145,-0.911 -1.979,-0.042 0,0" />
      </g>
      <g
         transform="matrix(0.35277777,0,0,-0.35277777,57.728559,136.76619)"
         id="g5840">
        <path
           inkscape:connector-curvature="0"
           id="path5842"
           style="fill:#383736;fill-opacity:1;fill-rule:nonzero;stroke:none"
           d="M 0,0 3.775,1.556 C 3.778,1.156 3.807,0.734 3.807,0.343 L 0,-1.231 c -3.874,-1.024 -6.91,2.327 -6.91,3.269 v 1.23 C -6.91,2.327 -3.874,-1.023 0,0" />
      </g>
      <g
         transform="matrix(0.35277777,0,0,-0.35277777,55.781041,112.37751)"
         id="g5844">
        <path
           inkscape:connector-curvature="0"
           id="path5846"
           style="fill:#ffe8d9;fill-opacity:1;fill-rule:nonzero;stroke:none"
           d="m 0,0 c 0.085,-1.704 2.438,-2.707 3.985,-2.627 0.541,0.023 1.023,-3.155 1.876,-4.304 0.898,-1.211 2.152,-0.396 2.343,-0.016 0.15,0.299 -1.506,4.891 -1.882,6.063 C 5.08,3.02 3.478,3.083 1.93,3.009 0.38,2.931 -0.081,1.702 0,0" />
      </g>
      <g
         transform="matrix(0.35277777,0,0,-0.35277777,55.876132,111.14501)"
         id="g5848">
        <path
           inkscape:connector-curvature="0"
           id="path5850"
           style="fill:#1c1c1b;fill-opacity:1;fill-rule:nonzero;stroke:none"
           d="m 0,0 c -1.747,-0.015 -5.125,3.317 -5.125,3.317 0,0 -0.072,0.427 -0.2,1.182 -0.712,4.246 -3.929,18.751 -4.098,24.099 -0.185,5.877 1.622,21.773 1.622,21.773 0,0 0.926,14.189 10.474,12.44 C 7.971,61.845 5.265,54.87 5.319,50.155 5.36,46.447 3.457,27.617 3.457,27.617 L 4.644,4.482 C 4.644,4.482 3.409,0.032 0,0" />
      </g>
      <g
         transform="matrix(0.35277777,0,0,-0.35277777,55.044123,111.40356)"
         id="g5852">
        <path
           inkscape:connector-curvature="0"
           id="path5854"
           style="fill:#ffe8d9;fill-opacity:1;fill-rule:nonzero;stroke:none"
           d="m 0,0 4.469,0.269 1.952,-5.206 0.037,-0.872 -0.334,-6.956 c 0,0 0.1,-3.357 -3.46,-3.577 -2.327,-0.141 -0.254,-0.016 -0.254,-0.016 -3.19,-0.191 -3.645,3.222 -3.645,3.222 l -1.268,8.901 C -2.657,-2.344 -2.048,-0.124 0,0" />
      </g>
      <g
         transform="matrix(0.35277777,0,0,-0.35277777,57.835345,111.36395)"
         id="g5856">
        <path
           inkscape:connector-curvature="0"
           id="path5858"
           style="fill:#e4eff4;fill-opacity:1;fill-rule:nonzero;stroke:none"
           d="m 0,0 c 0.013,-0.781 -1.696,-2.329 -3.987,-2.561 -2.977,-0.303 -4.385,0.245 -4.385,0.245 -1.383,0.465 -2.139,1.005 -2.256,1.975 0,0 -0.46,3.59 -0.55,4.724 -0.053,0.733 0.299,0.737 0.299,0.737 0,0 0.066,-0.576 0.192,-0.783 0.454,-0.761 1.733,-1.777 4.66,-1.847 4.602,-0.105 5.117,2.613 5.117,2.613 0.671,0.007 0.892,-0.29 0.865,-1.063 z" />
      </g>
      <g
         transform="matrix(0.35277777,0,0,-0.35277777,54.562185,111.4406)"
         id="g5860">
        <path
           inkscape:connector-curvature="0"
           id="path5862"
           style="fill:#e8c5ac;fill-opacity:1;fill-rule:nonzero;stroke:none"
           d="m 0,0 c 0,0 -2.092,9.803 10.053,9.803 9.621,0 9.621,-10.209 9.621,-10.209 L 14.807,-62.435 H 2.796 Z" />
      </g>
      <g
         transform="matrix(0.35277777,0,0,-0.35277777,59.154505,77.875736)"
         id="g5864">
        <path
           inkscape:connector-curvature="0"
           id="path5866"
           style="fill:#e8cab5;fill-opacity:1;fill-rule:nonzero;stroke:none"
           d="m 0,0 5.118,0.879 3.143,-0.832 5.127,-17.132 c 1.796,-5.601 -0.188,-7.327 -1.837,-7.983 -3.437,-1.367 -7.223,-1.961 -9.59,-1.567 -4.586,0.759 -7.776,8.237 -8.006,8.74 l -6.142,12.278 z" />
      </g>
      <g
         transform="matrix(0.35277777,0,0,-0.35277777,57.232095,93.139407)"
         id="g5868">
        <path
           inkscape:connector-curvature="0"
           id="path5870"
           style="fill:#e8cab5;fill-opacity:1;fill-rule:nonzero;stroke:none"
           d="M 0,0 0.036,11.478 1.612,24.366 13.667,21.604 12.278,9.178 c 0,-1.772 1.246,-2.254 2.185,-3.755 l 5.099,-8.147 C 20.786,-4.69 23.34,-7.813 23.34,-13.31 v -30.242 l -24.67,-3.43 V -6.837 C -1.33,-4.492 -0.875,-2.17 0,0" />
      </g>
      <g
         transform="matrix(0.35277777,0,0,-0.35277777,62.618165,105.99753)"
         id="g5872">
        <path
           inkscape:connector-curvature="0"
           id="path5874"
           style="fill:#14546d;fill-opacity:1;fill-rule:nonzero;stroke:none"
           d="m 0,0 v -5.626 c 0,-4.179 -0.998,-11.268 -0.998,-11.268 l -19.223,-0.729 c -2.419,0.484 -3.338,3.789 -3.338,7.119 V 0 Z" />
      </g>
      <g
         transform="matrix(0.35277777,0,0,-0.35277777,54.562185,111.4406)"
         id="g5876">
        <path
           inkscape:connector-curvature="0"
           id="path5878"
           style="fill:#ffe1cc;fill-opacity:1;fill-rule:nonzero;stroke:none"
           d="m 0,0 c 0,0 0.796,6.813 9.27,6.813 1.13,0 0,0.012 3.339,0.004 8.099,-0.025 9.229,-8.282 9.229,-8.282 L 16.791,-62.196 3.93,-62.435 Z" />
      </g>
      <g
         transform="matrix(0.35277777,0,0,-0.35277777,62.058704,77.408416)"
         id="g5880">
        <path
           inkscape:connector-curvature="0"
           id="path5882"
           style="fill:#664119;fill-opacity:1;fill-rule:nonzero;stroke:none"
           d="m 0,0 c 2.637,-1.242 1.112,-4.894 1.112,-4.894 -0.029,0.059 0.284,0.055 -0.639,0.246 -0.926,0.194 -0.477,-1.78 -0.44,-1.86 0.039,-0.082 1.118,-7.164 1.118,-7.164 0.315,-0.716 -0.239,-2.166 -1.186,-1.31 -1.054,0.961 -0.541,2.209 -1.315,2.606 -0.779,0.409 -1.864,-0.126 -2.992,-4.893 0,0 -2.53,-7.716 -5.007,-9.137 0,0 -1.962,-1.24 -4.299,0.145 -0.672,0.4 -3.911,4.734 -5.749,7.766 -3.965,6.532 -5.884,17.168 8.195,19.817 C -5.518,2.392 0,0 0,0" />
      </g>
      <g
         transform="matrix(0.35277777,0,0,-0.35277777,62.237139,109.71997)"
         id="g5884">
        <path
           inkscape:connector-curvature="0"
           id="path5886"
           style="fill:#1c1c1b;fill-opacity:1;fill-rule:nonzero;stroke:none"
           d="m 0,0 -0.521,-70.452 c 0,0 -4.389,-4.079 -11.684,-4.079 -4.076,0 -8.063,2.628 -8.17,3.762 l -2.422,71.952 z" />
      </g>
      <g
         transform="matrix(0.35277777,0,0,-0.35277777,64.179498,112.14411)"
         id="g5888">
        <path
           inkscape:connector-curvature="0"
           id="path5890"
           style="fill:#383736;fill-opacity:1;fill-rule:nonzero;stroke:none"
           d="m 0,0 -1.184,-62.817 c 0.032,0.033 0.14,-1.459 0.769,-1.81 0.618,-0.342 0.588,-1.596 0.273,-2.432 -0.414,-1.11 -4.307,-7.302 -12.512,-6.881 -2.501,0.125 -5.445,1.079 -5.564,2.153 l -4.099,71.762 z" />
      </g>
      <g
         transform="matrix(0.35277777,0,0,-0.35277777,57.881832,87.808446)"
         id="g5892">
        <path
           inkscape:connector-curvature="0"
           id="path5894"
           style="fill:#e4eff4;fill-opacity:1;fill-rule:nonzero;stroke:none"
           d="m 0,0 c -1.44,0.343 -1.806,0.092 -2.083,-0.788 -0.272,-0.868 -0.268,-0.924 -0.605,-1.76 -0.276,-0.699 0.047,-0.745 0.047,-0.745 0,0 7.234,-1.994 12.612,-5.654 3.818,-2.603 4.147,-3.075 4.147,-3.075 l -0.928,3.155 c -0.692,2.505 -3.592,4.972 -7.901,6.873 0,0 -3.525,1.577 -5.289,1.994" />
      </g>
      <g
         transform="matrix(0.35277777,0,0,-0.35277777,61.540544,81.529776)"
         id="g5896">
        <path
           inkscape:connector-curvature="0"
           id="path5898"
           style="fill:#d6b19f;fill-opacity:1;fill-rule:nonzero;stroke:none"
           d="m 0,0 c 0,0 -1.519,-0.987 -1.403,-2.981 0.105,-1.799 1.08,-2.243 1.452,-2.438 1,-0.529 1.755,-0.403 1.755,-0.403 0,0 -1.334,2.962 -1.545,3.523 C 0.053,-1.743 0,0 0,0" />
      </g>
      <g
         transform="matrix(0.35277777,0,0,-0.35277777,61.673179,81.363546)"
         id="g5900">
        <path
           inkscape:connector-curvature="0"
           id="path5902"
           style="fill:#ffe8d9;fill-opacity:1;fill-rule:nonzero;stroke:none"
           d="m 0,0 c 0,0 0.854,0.43 0.785,-1.089 -0.067,-1.516 0.116,-2.333 0.403,-3.045 0.262,-0.653 1.264,-2.511 1.264,-2.511 0,0 -0.19,-1.034 -1.242,-0.093 -0.497,0.444 -1.132,1.44 -1.707,2.821 C -0.728,-3.358 -1.067,-0.137 0,0" />
      </g>
      <g
         transform="matrix(0.35277777,0,0,-0.35277777,62.454864,114.2196)"
         id="g5904">
        <path
           inkscape:connector-curvature="0"
           id="path5906"
           style="fill:#d8bbab;fill-opacity:1;fill-rule:nonzero;stroke:none"
           d="m 0,0 c -0.455,-1.639 1.461,-3.332 2.959,-3.747 0.521,-0.146 -1.555,-2.634 0.633,-3.089 0,0 0.971,-0.834 2.13,0.79 0.093,0.125 1.731,2.123 0.974,3.478 C 5.69,-0.767 4.61,1.462 3.641,2.158 2.374,3.057 0.46,1.641 0,0" />
      </g>
      <g
         transform="matrix(0.35277777,0,0,-0.35277777,61.91985,114.6695)"
         id="g5908">
        <path
           inkscape:connector-curvature="0"
           id="path5910"
           style="fill:#161615;fill-opacity:1;fill-rule:nonzero;stroke:none"
           d="m 0,0 c 0,0 -2.219,-2.493 -8.059,-0.434 -5.839,2.059 -11.87,7.119 -11.87,7.119 l 0.742,3.516 c 0,0 15.116,-6.863 17.898,-5.916 C 1.492,5.228 0,0 0,0" />
      </g>
      <g
         transform="matrix(0.35277777,0,0,-0.35277777,64.408945,93.276175)"
         id="g5912">
        <path
           inkscape:connector-curvature="0"
           id="path5914"
           style="fill:#383736;fill-opacity:1;fill-rule:nonzero;stroke:none"
           d="M 0,0 C 3.336,-2.6 4.338,-4.978 4.338,-13.595 L 3.52,-52.834 c 0,-1.5 0.088,-5.492 -7.601,-6.679 -2.41,-0.37 -5.87,-1.44 -11.312,0.375 -2.223,0.737 -13.908,6.118 -13.908,9.271 l -0.371,42.91 c 0.173,5.075 0.484,11.32 1.298,14.004 1.855,6.118 7.231,5.375 7.231,5.375 0,0 9.17,-2.96 13.957,-6.602 C -4.865,4.058 -4.737,3.791 0,0" />
      </g>
      <g
         transform="matrix(0.35277777,0,0,-0.35277777,63.264145,113.49076)"
         id="g5916">
        <path
           inkscape:connector-curvature="0"
           id="path5918"
           style="fill:#e8cab5;fill-opacity:1;fill-rule:nonzero;stroke:none"
           d="m 0,0 -3.811,-1.939 -2.124,0.641 c 0,0 -1.068,-2.781 0.046,-5.981 0.657,-1.891 0.753,-2.392 0.974,-3.199 0.278,-1.02 0.463,-1.669 0.463,-1.669 0,0 0.047,-0.645 1.206,-0.465 1.332,0.216 3.801,1.767 3.801,1.767 0.465,0.089 0.938,-0.066 1.528,0.136 2.181,0.742 1.622,3.984 1.622,3.984 L 2.501,-1.16 C 2.408,-0.464 2.048,-0.02 0,0" />
      </g>
      <g
         transform="matrix(0.35277777,0,0,-0.35277777,62.479365,115.15475)"
         id="g5920">
        <path
           inkscape:connector-curvature="0"
           id="path5922"
           style="fill:#424241;fill-opacity:1;fill-rule:nonzero;stroke:none"
           d="m 0,0 c -1.731,-0.206 -2.921,0.329 -2.921,0.329 0,0 -1.598,0.591 -1.805,1.984 -0.614,4.184 -1.845,22.575 -1.726,27.826 0.125,5.757 2.803,20.806 2.803,20.806 0,0 1.018,10.931 7.474,10.673 5.378,-0.214 6.089,-5.112 5.886,-9.73 C 9.553,48.258 5.864,28.455 5.864,28.455 L 5.587,2.747 C 5.587,2.747 4.032,0.483 0,0" />
      </g>
    </g>
  </g>
</svg>
