<?xml version="1.0" encoding="UTF-8" standalone="no"?>
<!-- Created with Inkscape (http://www.inkscape.org/) -->

<svg
   xmlns:dc="http://purl.org/dc/elements/1.1/"
   xmlns:cc="http://creativecommons.org/ns#"
   xmlns:rdf="http://www.w3.org/1999/02/22-rdf-syntax-ns#"
   xmlns:svg="http://www.w3.org/2000/svg"
   xmlns="http://www.w3.org/2000/svg"
   xmlns:sodipodi="http://sodipodi.sourceforge.net/DTD/sodipodi-0.dtd"
   xmlns:inkscape="http://www.inkscape.org/namespaces/inkscape"
   width="1.7846384mm"
   height="4.7974129mm"
   viewBox="0 0 1.7846383 4.7974128"
   version="1.1"
   id="svg45331"
   inkscape:version="0.92.2 (5c3e80d, 2017-08-06)"
   sodipodi:docname="people-casual-7.svg">
  <defs
     id="defs45325">
    <clipPath
       id="clipPath2864"
       clipPathUnits="userSpaceOnUse">
      <path
         inkscape:connector-curvature="0"
         id="path2862"
         d="m 1713.778,1928.833 c -0.536,-0.312 -0.927,-0.874 -1.106,-1.65 v 0 l 1.125,0.653 c 0.179,0.778 0.57,1.34 1.107,1.651 v 0 z" />
    </clipPath>
    <clipPath
       id="clipPath2848"
       clipPathUnits="userSpaceOnUse">
      <path
         inkscape:connector-curvature="0"
         id="path2846"
         d="M 0,2119.953 H 3253.108 V 0 H 0 Z" />
    </clipPath>
    <clipPath
       id="clipPath2836"
       clipPathUnits="userSpaceOnUse">
      <path
         inkscape:connector-curvature="0"
         id="path2834"
         d="m 1711.152,1926.674 v -0.651 c 0.308,-0.179 0.813,-0.18 1.126,0 v 0 0.651 c -0.315,-0.183 -0.82,-0.178 -1.129,0" />
    </clipPath>
    <clipPath
       id="clipPath2820"
       clipPathUnits="userSpaceOnUse">
      <path
         inkscape:connector-curvature="0"
         id="path2818"
         d="M 0,2119.953 H 3253.108 V 0 H 0 Z" />
    </clipPath>
    <clipPath
       id="clipPath2808"
       clipPathUnits="userSpaceOnUse">
      <path
         inkscape:connector-curvature="0"
         id="path2806"
         d="m 1710.148,1926.8 c 0,-0.121 0.077,-0.238 0.231,-0.325 v 0 0.65 c -0.156,0.087 -0.233,0.207 -0.233,0.324 v 0 -0.649 z" />
    </clipPath>
    <clipPath
       id="clipPath2796"
       clipPathUnits="userSpaceOnUse">
      <path
         inkscape:connector-curvature="0"
         id="path2794"
         d="m 1714.756,1928.103 v -0.65 c 0.158,0.09 0.237,0.211 0.237,0.331 v 0 0.65 c 0,-0.119 -0.078,-0.24 -0.236,-0.331" />
    </clipPath>
    <clipPath
       id="clipPath2784"
       clipPathUnits="userSpaceOnUse">
      <path
         inkscape:connector-curvature="0"
         id="path2782"
         d="M 0,2119.953 H 3253.108 V 0 H 0 Z" />
    </clipPath>
    <clipPath
       id="clipPath2772"
       clipPathUnits="userSpaceOnUse">
      <path
         inkscape:connector-curvature="0"
         id="path2770"
         d="m 1720.53,1921.188 10e-4,-0.65 c 0.309,-0.181 0.814,-0.181 1.128,0 v 0 0.65 c -0.316,-0.182 -0.821,-0.181 -1.129,0" />
    </clipPath>
    <clipPath
       id="clipPath2756"
       clipPathUnits="userSpaceOnUse">
      <path
         inkscape:connector-curvature="0"
         id="path2754"
         d="M 0,2119.953 H 3253.108 V 0 H 0 Z" />
    </clipPath>
    <clipPath
       id="clipPath2744"
       clipPathUnits="userSpaceOnUse">
      <path
         inkscape:connector-curvature="0"
         id="path2742"
         d="m 1719.524,1921.312 c 0,-0.119 0.08,-0.235 0.234,-0.324 v 0 0.65 c -0.154,0.089 -0.233,0.207 -0.233,0.324 v 0 -0.65 z" />
    </clipPath>
    <clipPath
       id="clipPath2732"
       clipPathUnits="userSpaceOnUse">
      <path
         inkscape:connector-curvature="0"
         id="path2730"
         d="m 1724.133,1922.619 v -0.654 c 0.158,0.094 0.238,0.212 0.238,0.331 v 0 0.65 c 0,-0.117 -0.08,-0.238 -0.238,-0.327" />
    </clipPath>
    <clipPath
       id="clipPath2536"
       clipPathUnits="userSpaceOnUse">
      <path
         inkscape:connector-curvature="0"
         id="path2534"
         d="m 1708.77,1889.11 h 53.56 v -38.31 h -53.56 z" />
    </clipPath>
    <clipPath
       id="clipPath3428"
       clipPathUnits="userSpaceOnUse">
      <path
         inkscape:connector-curvature="0"
         id="path3426"
         d="m 1819.231,1919.634 0.051,-0.722 c 0.167,0.114 0.248,0.253 0.238,0.383 v 0 l -0.048,0.721 c 0.01,-0.131 -0.071,-0.272 -0.241,-0.382" />
    </clipPath>
    <clipPath
       id="clipPath3440"
       clipPathUnits="userSpaceOnUse">
      <path
         inkscape:connector-curvature="0"
         id="path3438"
         d="m 1814.225,1917.859 c 0.01,-0.132 0.103,-0.255 0.282,-0.343 v 0 l -0.049,0.721 c -0.177,0.085 -0.273,0.212 -0.281,0.34 v 0 z" />
    </clipPath>
    <clipPath
       id="clipPath3452"
       clipPathUnits="userSpaceOnUse">
      <path
         inkscape:connector-curvature="0"
         id="path3450"
         d="M 0,2119.953 H 3253.108 V 0 H 0 Z" />
    </clipPath>
    <clipPath
       id="clipPath3468"
       clipPathUnits="userSpaceOnUse">
      <path
         inkscape:connector-curvature="0"
         id="path3466"
         d="m 1815.349,1917.792 0.046,-0.72 c 0.354,-0.177 0.915,-0.14 1.248,0.082 v 0 l -0.048,0.721 c -0.335,-0.223 -0.893,-0.259 -1.246,-0.083" />
    </clipPath>
    <clipPath
       id="clipPath3480"
       clipPathUnits="userSpaceOnUse">
      <path
         inkscape:connector-curvature="0"
         id="path3478"
         d="M 0,2119.953 H 3253.108 V 0 H 0 Z" />
    </clipPath>
    <clipPath
       id="clipPath3492"
       clipPathUnits="userSpaceOnUse">
      <path
         inkscape:connector-curvature="0"
         id="path3490"
         d="m 1808.461,1925.033 0.049,-0.719 c 0.167,0.112 0.245,0.25 0.238,0.383 v 0 l -0.049,0.719 c 0.01,-0.131 -0.07,-0.268 -0.238,-0.383" />
    </clipPath>
    <clipPath
       id="clipPath3504"
       clipPathUnits="userSpaceOnUse">
      <path
         inkscape:connector-curvature="0"
         id="path3502"
         d="m 1803.454,1923.259 c 0.01,-0.132 0.102,-0.258 0.279,-0.342 v 0 l -0.048,0.72 c -0.177,0.086 -0.273,0.214 -0.28,0.342 v 0 z" />
    </clipPath>
    <clipPath
       id="clipPath3516"
       clipPathUnits="userSpaceOnUse">
      <path
         inkscape:connector-curvature="0"
         id="path3514"
         d="M 0,2119.953 H 3253.108 V 0 H 0 Z" />
    </clipPath>
    <clipPath
       id="clipPath3532"
       clipPathUnits="userSpaceOnUse">
      <path
         inkscape:connector-curvature="0"
         id="path3530"
         d="m 1804.576,1923.193 0.047,-0.721 c 0.353,-0.175 0.915,-0.14 1.248,0.081 v 0 l -0.049,0.722 c -0.333,-0.223 -0.894,-0.258 -1.246,-0.082" />
    </clipPath>
    <clipPath
       id="clipPath3544"
       clipPathUnits="userSpaceOnUse">
      <path
         inkscape:connector-curvature="0"
         id="path3542"
         d="M 0,2119.953 H 3253.108 V 0 H 0 Z" />
    </clipPath>
    <clipPath
       id="clipPath3560"
       clipPathUnits="userSpaceOnUse">
      <path
         inkscape:connector-curvature="0"
         id="path3558"
         d="m 1807.327,1925.772 c -0.572,-0.383 -0.964,-1.034 -1.106,-1.907 v 0 l 1.197,0.803 c 0.144,0.873 0.537,1.525 1.109,1.907 v 0 z" />
    </clipPath>
    <clipPath
       id="clipPath3240"
       clipPathUnits="userSpaceOnUse">
      <path
         inkscape:connector-curvature="0"
         id="path3238"
         d="m 1804.45,1875.26 h 66.26 v -26.97 h -66.26 z" />
    </clipPath>
    <clipPath
       id="clipPath3596"
       clipPathUnits="userSpaceOnUse">
      <path
         inkscape:connector-curvature="0"
         id="path3594"
         d="m 1887.55,1874.88 h 68.5 v -28.2 h -68.5 z" />
    </clipPath>
    <clipPath
       id="clipPath3760"
       clipPathUnits="userSpaceOnUse">
      <path
         inkscape:connector-curvature="0"
         id="path3758"
         d="m 1940.709,1921.043 c -0.01,-0.134 0.073,-0.277 0.243,-0.394 v 0 l 0.052,0.743 c -0.176,0.111 -0.256,0.256 -0.246,0.388 v 0 z" />
    </clipPath>
    <clipPath
       id="clipPath3772"
       clipPathUnits="userSpaceOnUse">
      <path
         inkscape:connector-curvature="0"
         id="path3770"
         d="m 1945.896,1919.955 -0.048,-0.737 c 0.182,0.088 0.281,0.215 0.289,0.351 v 0 l 0.048,0.737 c -0.01,-0.134 -0.106,-0.261 -0.289,-0.351" />
    </clipPath>
    <clipPath
       id="clipPath3784"
       clipPathUnits="userSpaceOnUse">
      <path
         inkscape:connector-curvature="0"
         id="path3782"
         d="M 0,2119.953 H 3253.108 V 0 H 0 Z" />
    </clipPath>
    <clipPath
       id="clipPath3800"
       clipPathUnits="userSpaceOnUse">
      <path
         inkscape:connector-curvature="0"
         id="path3798"
         d="m 1943.658,1918.845 c 0.343,-0.226 0.914,-0.264 1.28,-0.084 v 0 l 0.047,0.741 c -0.361,-0.182 -0.936,-0.146 -1.28,0.084 v 0 z" />
    </clipPath>
    <clipPath
       id="clipPath3812"
       clipPathUnits="userSpaceOnUse">
      <path
         inkscape:connector-curvature="0"
         id="path3810"
         d="M 0,2119.953 H 3253.108 V 0 H 0 Z" />
    </clipPath>
    <clipPath
       id="clipPath3824"
       clipPathUnits="userSpaceOnUse">
      <path
         inkscape:connector-curvature="0"
         id="path3822"
         d="m 1951.754,1926.58 c -0.01,-0.136 0.071,-0.278 0.241,-0.392 v 0 l 0.052,0.737 c -0.174,0.117 -0.253,0.258 -0.245,0.391 v 0 z" />
    </clipPath>
    <clipPath
       id="clipPath3836"
       clipPathUnits="userSpaceOnUse">
      <path
         inkscape:connector-curvature="0"
         id="path3834"
         d="m 1956.943,1925.491 -0.049,-0.737 c 0.18,0.088 0.277,0.215 0.287,0.352 v 0 l 0.049,0.737 c -0.01,-0.132 -0.104,-0.262 -0.287,-0.352" />
    </clipPath>
    <clipPath
       id="clipPath3848"
       clipPathUnits="userSpaceOnUse">
      <path
         inkscape:connector-curvature="0"
         id="path3846"
         d="M 0,2119.953 H 3253.108 V 0 H 0 Z" />
    </clipPath>
    <clipPath
       id="clipPath3864"
       clipPathUnits="userSpaceOnUse">
      <path
         inkscape:connector-curvature="0"
         id="path3862"
         d="m 1954.703,1924.383 c 0.34,-0.229 0.916,-0.262 1.279,-0.086 v 0 l 0.049,0.743 c -0.361,-0.183 -0.938,-0.15 -1.279,0.081 v 0 z" />
    </clipPath>
    <clipPath
       id="clipPath3876"
       clipPathUnits="userSpaceOnUse">
      <path
         inkscape:connector-curvature="0"
         id="path3874"
         d="M 0,2119.953 H 3253.108 V 0 H 0 Z" />
    </clipPath>
    <clipPath
       id="clipPath3892"
       clipPathUnits="userSpaceOnUse">
      <path
         inkscape:connector-curvature="0"
         id="path3890"
         d="m 1953.117,1926.55 1.227,-0.822 c -0.145,0.891 -0.551,1.561 -1.133,1.955 v 0 l -1.232,0.823 c 0.588,-0.393 0.989,-1.061 1.138,-1.956" />
    </clipPath>
    <clipPath
       id="clipPath3948"
       clipPathUnits="userSpaceOnUse">
      <path
         inkscape:connector-curvature="0"
         id="path3946"
         d="m 2018.76,1870.93 h 70.11 v -23.75 h -70.11 z" />
    </clipPath>
    <clipPath
       id="clipPath4212"
       clipPathUnits="userSpaceOnUse">
      <path
         inkscape:connector-curvature="0"
         id="path4210"
         d="m 2154.433,1916.311 c 0,-0.141 0.087,-0.289 0.273,-0.405 v 0 l 0.028,0.784 c -0.187,0.117 -0.276,0.264 -0.271,0.407 v 0 z" />
    </clipPath>
    <clipPath
       id="clipPath4224"
       clipPathUnits="userSpaceOnUse">
      <path
         inkscape:connector-curvature="0"
         id="path4222"
         d="m 2159.973,1915.328 -0.03,-0.782 c 0.192,0.1 0.289,0.239 0.295,0.381 v 0 l 0.027,0.785 c 0,-0.142 -0.103,-0.28 -0.292,-0.384" />
    </clipPath>
    <clipPath
       id="clipPath4236"
       clipPathUnits="userSpaceOnUse">
      <path
         inkscape:connector-curvature="0"
         id="path4234"
         d="M 0,2119.953 H 3253.108 V 0 H 0 Z" />
    </clipPath>
    <clipPath
       id="clipPath4252"
       clipPathUnits="userSpaceOnUse">
      <path
         inkscape:connector-curvature="0"
         id="path4250"
         d="m 2157.634,1914.081 c 0.368,-0.23 0.978,-0.251 1.357,-0.046 v 0 l 0.029,0.783 c -0.377,-0.203 -0.988,-0.185 -1.36,0.049 v 0 z" />
    </clipPath>
    <clipPath
       id="clipPath4264"
       clipPathUnits="userSpaceOnUse">
      <path
         inkscape:connector-curvature="0"
         id="path4262"
         d="M 0,2119.953 H 3253.108 V 0 H 0 Z" />
    </clipPath>
    <clipPath
       id="clipPath4276"
       clipPathUnits="userSpaceOnUse">
      <path
         inkscape:connector-curvature="0"
         id="path4274"
         d="m 2165.961,1922.544 c 0,-0.146 0.086,-0.293 0.271,-0.409 v 0 l 0.032,0.784 c -0.188,0.117 -0.279,0.265 -0.274,0.408 v 0 z" />
    </clipPath>
    <clipPath
       id="clipPath4288"
       clipPathUnits="userSpaceOnUse">
      <path
         inkscape:connector-curvature="0"
         id="path4286"
         d="m 2171.5,1921.561 -0.028,-0.785 c 0.189,0.101 0.287,0.239 0.293,0.379 v 0 l 0.028,0.787 c 0,-0.142 -0.102,-0.281 -0.293,-0.381" />
    </clipPath>
    <clipPath
       id="clipPath4300"
       clipPathUnits="userSpaceOnUse">
      <path
         inkscape:connector-curvature="0"
         id="path4298"
         d="M 0,2119.953 H 3253.108 V 0 H 0 Z" />
    </clipPath>
    <clipPath
       id="clipPath4316"
       clipPathUnits="userSpaceOnUse">
      <path
         inkscape:connector-curvature="0"
         id="path4314"
         d="m 2169.16,1920.31 c 0.37,-0.229 0.979,-0.249 1.359,-0.045 v 0 l 0.03,0.784 c -0.379,-0.201 -0.99,-0.186 -1.36,0.046 v 0 z" />
    </clipPath>
    <clipPath
       id="clipPath4328"
       clipPathUnits="userSpaceOnUse">
      <path
         inkscape:connector-curvature="0"
         id="path4326"
         d="M 0,2119.953 H 3253.108 V 0 H 0 Z" />
    </clipPath>
    <clipPath
       id="clipPath4344"
       clipPathUnits="userSpaceOnUse">
      <path
         inkscape:connector-curvature="0"
         id="path4342"
         d="m 2167.406,1922.556 1.331,-0.832 c -0.186,0.942 -0.633,1.637 -1.266,2.036 v 0 l -1.332,0.833 c 0.636,-0.396 1.084,-1.091 1.267,-2.037" />
    </clipPath>
    <clipPath
       id="clipPath4598"
       clipPathUnits="userSpaceOnUse">
      <path
         inkscape:connector-curvature="0"
         id="path4596"
         d="m 2331.633,1939.514 c 0,-0.142 0.1,-0.287 0.296,-0.396 v 0 0.783 c -0.196,0.107 -0.292,0.246 -0.292,0.387 v 0 -0.774 z" />
    </clipPath>
    <clipPath
       id="clipPath4610"
       clipPathUnits="userSpaceOnUse">
      <path
         inkscape:connector-curvature="0"
         id="path4608"
         d="m 2337.17,1938.719 v -0.771 c 0.189,0.099 0.285,0.249 0.285,0.379 v 0 0.787 c 0,-0.14 -0.091,-0.287 -0.283,-0.395" />
    </clipPath>
    <clipPath
       id="clipPath4622"
       clipPathUnits="userSpaceOnUse">
      <path
         inkscape:connector-curvature="0"
         id="path4620"
         d="M 0,2119.953 H 3253.108 V 0 H 0 Z" />
    </clipPath>
    <clipPath
       id="clipPath4638"
       clipPathUnits="userSpaceOnUse">
      <path
         inkscape:connector-curvature="0"
         id="path4636"
         d="m 2334.888,1938.187 v -0.785 c 0.382,-0.217 0.981,-0.217 1.349,0 v 0 0.785 c -0.368,-0.217 -0.963,-0.217 -1.349,0" />
    </clipPath>
    <clipPath
       id="clipPath4650"
       clipPathUnits="userSpaceOnUse">
      <path
         inkscape:connector-curvature="0"
         id="path4648"
         d="M 0,2119.953 H 3253.108 V 0 H 0 Z" />
    </clipPath>
    <clipPath
       id="clipPath4662"
       clipPathUnits="userSpaceOnUse">
      <path
         inkscape:connector-curvature="0"
         id="path4660"
         d="m 2342.868,1946.09 c 0,-0.141 0.101,-0.294 0.291,-0.401 v 0 l 0.01,0.777 c -0.195,0.113 -0.291,0.255 -0.291,0.401 v 0 z" />
    </clipPath>
    <clipPath
       id="clipPath4674"
       clipPathUnits="userSpaceOnUse">
      <path
         inkscape:connector-curvature="0"
         id="path4672"
         d="m 2348.401,1945.298 v -0.782 c 0.182,0.104 0.277,0.25 0.277,0.39 v 0 l 0.01,0.781 c 0,-0.143 -0.095,-0.282 -0.282,-0.389" />
    </clipPath>
    <clipPath
       id="clipPath4686"
       clipPathUnits="userSpaceOnUse">
      <path
         inkscape:connector-curvature="0"
         id="path4684"
         d="M 0,2119.953 H 3253.108 V 0 H 0 Z" />
    </clipPath>
    <clipPath
       id="clipPath4702"
       clipPathUnits="userSpaceOnUse">
      <path
         inkscape:connector-curvature="0"
         id="path4700"
         d="m 2346.127,1944.756 v -0.778 c 0.376,-0.212 0.982,-0.212 1.348,0 v 0 0.778 c -0.366,-0.213 -0.972,-0.213 -1.348,0" />
    </clipPath>
    <clipPath
       id="clipPath4714"
       clipPathUnits="userSpaceOnUse">
      <path
         inkscape:connector-curvature="0"
         id="path4712"
         d="M 0,2119.953 H 3253.108 V 0 H 0 Z" />
    </clipPath>
    <clipPath
       id="clipPath4730"
       clipPathUnits="userSpaceOnUse">
      <path
         inkscape:connector-curvature="0"
         id="path4728"
         d="m 2343.05,1948.089 c -0.023,0.013 -0.045,0.026 -0.068,0.038 v 0 z m 1.257,-1.939 1.349,-0.782 c -0.21,0.926 -0.683,1.603 -1.326,1.976 v 0 l -1.28,0.745 c 0.612,-0.371 1.048,-1.041 1.257,-1.939" />
    </clipPath>
    <clipPath
       id="clipPath4742"
       clipPathUnits="userSpaceOnUse">
      <path
         inkscape:connector-curvature="0"
         id="path4740"
         d="M 0,2119.953 H 3253.108 V 0 H 0 Z" />
    </clipPath>
    <clipPath
       id="clipPath4918"
       clipPathUnits="userSpaceOnUse">
      <path
         inkscape:connector-curvature="0"
         id="path4916"
         d="m 2276.169,1866.541 c 0,-0.151 0.1,-0.291 0.285,-0.401 v 0 0.785 c -0.19,0.105 -0.286,0.259 -0.286,0.394 v 0 -0.778 z" />
    </clipPath>
    <clipPath
       id="clipPath4930"
       clipPathUnits="userSpaceOnUse">
      <path
         inkscape:connector-curvature="0"
         id="path4928"
         d="m 2281.734,1865.741 -0.01,-0.776 c 0.185,0.103 0.278,0.244 0.278,0.385 v 0 0.786 c 0,-0.141 -0.096,-0.281 -0.276,-0.395" />
    </clipPath>
    <clipPath
       id="clipPath4942"
       clipPathUnits="userSpaceOnUse">
      <path
         inkscape:connector-curvature="0"
         id="path4940"
         d="M 0,2119.953 H 3253.108 V 0 H 0 Z" />
    </clipPath>
    <clipPath
       id="clipPath4958"
       clipPathUnits="userSpaceOnUse">
      <path
         inkscape:connector-curvature="0"
         id="path4956"
         d="m 2279.442,1865.203 v -0.782 c 0.372,-0.219 0.983,-0.219 1.351,0 v 0 0.782 c -0.372,-0.221 -0.983,-0.221 -1.355,0" />
    </clipPath>
    <clipPath
       id="clipPath4970"
       clipPathUnits="userSpaceOnUse">
      <path
         inkscape:connector-curvature="0"
         id="path4968"
         d="M 0,2119.953 H 3253.108 V 0 H 0 Z" />
    </clipPath>
    <clipPath
       id="clipPath4982"
       clipPathUnits="userSpaceOnUse">
      <path
         inkscape:connector-curvature="0"
         id="path4980"
         d="m 2287.467,1873.148 c 0,-0.144 0.095,-0.29 0.287,-0.404 v 0 0.786 c -0.191,0.114 -0.29,0.258 -0.29,0.404 v 0 -0.786 z" />
    </clipPath>
    <clipPath
       id="clipPath4994"
       clipPathUnits="userSpaceOnUse">
      <path
         inkscape:connector-curvature="0"
         id="path4992"
         d="m 2293.032,1872.36 v -0.782 c 0.191,0.096 0.282,0.241 0.282,0.378 v 0 0.788 c 0,-0.14 -0.094,-0.281 -0.281,-0.384" />
    </clipPath>
    <clipPath
       id="clipPath5006"
       clipPathUnits="userSpaceOnUse">
      <path
         inkscape:connector-curvature="0"
         id="path5004"
         d="M 0,2119.953 H 3253.108 V 0 H 0 Z" />
    </clipPath>
    <clipPath
       id="clipPath5022"
       clipPathUnits="userSpaceOnUse">
      <path
         inkscape:connector-curvature="0"
         id="path5020"
         d="m 2290.745,1871.81 -0.01,-0.78 c 0.377,-0.22 0.986,-0.214 1.353,0 v 0 0.78 c -0.371,-0.212 -0.98,-0.212 -1.351,0" />
    </clipPath>
    <clipPath
       id="clipPath5034"
       clipPathUnits="userSpaceOnUse">
      <path
         inkscape:connector-curvature="0"
         id="path5032"
         d="M 0,2119.953 H 3253.108 V 0 H 0 Z" />
    </clipPath>
    <clipPath
       id="clipPath5050"
       clipPathUnits="userSpaceOnUse">
      <path
         inkscape:connector-curvature="0"
         id="path5048"
         d="m 2288.91,1873.212 1.359,-0.784 c -0.216,0.934 -0.691,1.61 -1.337,1.987 v 0 l -1.356,0.791 c 0.652,-0.377 1.121,-1.054 1.334,-1.994" />
    </clipPath>
    <clipPath
       id="clipPath4408"
       clipPathUnits="userSpaceOnUse">
      <path
         inkscape:connector-curvature="0"
         id="path4406"
         d="m 2301.08,1906.05 h 45.97 v -31.57 h -45.97 z" />
    </clipPath>
    <clipPath
       id="clipPath4392"
       clipPathUnits="userSpaceOnUse">
      <path
         inkscape:connector-curvature="0"
         id="path4390"
         d="m 2227.58,1871.71 h 52.38 v -32.03 h -52.38 z" />
    </clipPath>
    <clipPath
       id="clipPath5114"
       clipPathUnits="userSpaceOnUse">
      <path
         inkscape:connector-curvature="0"
         id="path5112"
         d="m 2417.33,1884.9 h 51.88 v -27.05 h -51.88 z" />
    </clipPath>
    <clipPath
       id="clipPath5554"
       clipPathUnits="userSpaceOnUse">
      <path
         inkscape:connector-curvature="0"
         id="path5552"
         d="m 2532.68,1877.97 h 61.16 v -27.88 h -61.16 z" />
    </clipPath>
    <clipPath
       id="clipPath5662"
       clipPathUnits="userSpaceOnUse">
      <path
         inkscape:connector-curvature="0"
         id="path5660"
         d="m 2652.02,1878.72 h 75.96 v -28.55 h -75.96 z" />
    </clipPath>
    <clipPath
       id="clipPath5782"
       clipPathUnits="userSpaceOnUse">
      <path
         inkscape:connector-curvature="0"
         id="path5780"
         d="m 2686.34,2040.48 h 6.76 v -5.02 h -6.76 z" />
    </clipPath>
    <clipPath
       id="clipPath5454"
       clipPathUnits="userSpaceOnUse">
      <path
         inkscape:connector-curvature="0"
         id="path5452"
         d="m 2763.78,1887.52 h 61.17 v -27.89 h -61.17 z" />
    </clipPath>
    <clipPath
       id="clipPath5226"
       clipPathUnits="userSpaceOnUse">
      <path
         inkscape:connector-curvature="0"
         id="path5224"
         d="m 2874.06,1879.83 h 115.04 v -37.41 h -115.04 z" />
    </clipPath>
    <clipPath
       id="clipPath5266"
       clipPathUnits="userSpaceOnUse">
      <path
         inkscape:connector-curvature="0"
         id="path5264"
         d="m 2898.47,1905.023 c -0.019,-0.014 -0.036,-0.025 -0.058,-0.038 v 0 c -0.579,-0.382 -0.588,-1.091 -0.535,-1.501 v 0 l 39.797,23.128 c -0.051,0.406 -0.042,1.119 0.537,1.502 v 0 c 0.018,0.012 0.037,0.024 0.058,0.036 v 0 c -13.266,-7.711 -26.531,-15.418 -39.799,-23.127" />
    </clipPath>
    <clipPath
       id="clipPath3000"
       clipPathUnits="userSpaceOnUse">
      <path
         inkscape:connector-curvature="0"
         id="path2998"
         d="m 3070.44,1903.77 h 111.77 v -40.19 h -111.77 z" />
    </clipPath>
    <clipPath
       id="clipPath6042"
       clipPathUnits="userSpaceOnUse">
      <path
         inkscape:connector-curvature="0"
         id="path6040"
         d="m 409.323,1548.74 h 49.951 v -25.11 h -49.951 z" />
    </clipPath>
    <clipPath
       id="clipPath5930"
       clipPathUnits="userSpaceOnUse">
      <path
         inkscape:connector-curvature="0"
         id="path5928"
         d="m 516.004,1548.66 h 54.751 v -25.03 h -54.751 z" />
    </clipPath>
    <clipPath
       id="clipPath6142"
       clipPathUnits="userSpaceOnUse">
      <path
         inkscape:connector-curvature="0"
         id="path6140"
         d="m 636.118,1542.78 h 45.362 v -19.15 h -45.362 z" />
    </clipPath>
    <clipPath
       id="clipPath6318"
       clipPathUnits="userSpaceOnUse">
      <path
         inkscape:connector-curvature="0"
         id="path6316"
         d="m 763.75,1602.23 h 22.211 v -7.49 H 763.75 Z" />
    </clipPath>
    <clipPath
       id="clipPath6242"
       clipPathUnits="userSpaceOnUse">
      <path
         inkscape:connector-curvature="0"
         id="path6240"
         d="m 749.178,1542.78 h 45.362 v -19.15 h -45.362 z" />
    </clipPath>
    <clipPath
       id="clipPath6358"
       clipPathUnits="userSpaceOnUse">
      <path
         inkscape:connector-curvature="0"
         id="path6356"
         d="m 859.142,1541.98 h 55.33 v -18.35 h -55.33 z" />
    </clipPath>
    <clipPath
       id="clipPath6562"
       clipPathUnits="userSpaceOnUse">
      <path
         inkscape:connector-curvature="0"
         id="path6560"
         d="m 972.921,1548.99 h 50.329 v -25.36 h -50.329 z" />
    </clipPath>
    <clipPath
       id="clipPath6898"
       clipPathUnits="userSpaceOnUse">
      <path
         inkscape:connector-curvature="0"
         id="path6896"
         d="m 1113.757,1660.871 0.977,-0.369 c -0.337,0.508 -0.215,1.396 0.271,1.968 v 0 l -0.978,0.368 c -0.484,-0.573 -0.605,-1.457 -0.27,-1.967" />
    </clipPath>
    <clipPath
       id="clipPath6882"
       clipPathUnits="userSpaceOnUse">
      <path
         inkscape:connector-curvature="0"
         id="path6880"
         d="M 0,2119.953 H 3253.108 V 0 H 0 Z" />
    </clipPath>
    <clipPath
       id="clipPath6870"
       clipPathUnits="userSpaceOnUse">
      <path
         inkscape:connector-curvature="0"
         id="path6868"
         d="m 1120.652,1670.681 0.975,-0.367 c 0.342,0.405 0.774,0.55 1.118,0.419 v 0 l -0.98,0.369 c -0.082,0.031 -0.168,0.047 -0.258,0.047 v 0 c -0.283,0 -0.596,-0.157 -0.855,-0.468" />
    </clipPath>
    <clipPath
       id="clipPath6858"
       clipPathUnits="userSpaceOnUse">
      <path
         inkscape:connector-curvature="0"
         id="path6856"
         d="m 1116.5,1656.939 0.98,-0.367 c -0.144,0.053 -0.271,0.155 -0.374,0.304 v 0 l -0.973,0.368 c 0.098,-0.15 0.226,-0.25 0.367,-0.305" />
    </clipPath>
    <clipPath
       id="clipPath6798"
       clipPathUnits="userSpaceOnUse">
      <path
         inkscape:connector-curvature="0"
         id="path6796"
         d="m 1085.74,1549.12 h 50.59 v -25.49 h -50.59 z" />
    </clipPath>
  </defs>
  <sodipodi:namedview
     id="base"
     pagecolor="#ffffff"
     bordercolor="#666666"
     borderopacity="1.0"
     inkscape:pageopacity="0.0"
     inkscape:pageshadow="2"
     inkscape:zoom="0.35"
     inkscape:cx="3.3725604"
     inkscape:cy="9.0659577"
     inkscape:document-units="mm"
     inkscape:current-layer="layer1"
     showgrid="false"
     fit-margin-top="0"
     fit-margin-left="0"
     fit-margin-right="0"
     fit-margin-bottom="0"
     inkscape:window-width="1360"
     inkscape:window-height="706"
     inkscape:window-x="-8"
     inkscape:window-y="-8"
     inkscape:window-maximized="1" />
  <metadata
     id="metadata45328">
    <rdf:RDF>
      <cc:Work
         rdf:about="">
        <dc:format>image/svg+xml</dc:format>
        <dc:type
           rdf:resource="http://purl.org/dc/dcmitype/StillImage" />
        <dc:title></dc:title>
      </cc:Work>
    </rdf:RDF>
  </metadata>
  <g
     inkscape:label="Layer 1"
     inkscape:groupmode="layer"
     id="layer1"
     transform="translate(78.377448,-418.57749)">
    <g
       id="g11054"
       transform="matrix(0.1,0,0,0.086,-69.736616,384.77224)">
      <g
         transform="matrix(0.35277777,0,0,-0.35277777,-82.276488,418.40007)"
         id="g6772">
        <path
           inkscape:connector-curvature="0"
           id="path6774"
           style="fill:#edd0c0;fill-opacity:1;fill-rule:nonzero;stroke:none"
           d="m 0,0 c 0,0 -3.152,-4.051 -3.109,-6.986 0.032,-2.015 0.683,-3.623 1.344,-4.974 0.305,-0.622 1.336,-1.51 2.428,-0.981 1.209,0.594 1.916,1.534 1.845,2.846 -0.083,1.623 -0.044,2.887 -0.044,2.887 0,0 0.961,2.469 1.162,3.5 0.194,1.034 -0.839,4.23 -0.839,4.23 z" />
      </g>
      <g
         transform="matrix(0.35277777,0,0,-0.35277777,-81.37646,413.58607)"
         id="g6776">
        <path
           inkscape:connector-curvature="0"
           id="path6778"
           style="fill:#edd0c0;fill-opacity:1;fill-rule:nonzero;stroke:none"
           d="m 0,0 c 0.825,4.02 -1.656,23.814 4.433,26.318 2.556,1.045 1.849,-11.101 1.849,-11.101 0,0 1.769,-12.179 0.667,-16.367 -1.655,-6.28 -5.787,-15.496 -5.787,-15.496 0,0 -5.778,-0.127 -4.855,1.513 C -3.615,-14.996 -0.257,-1.28 0,0" />
      </g>
      <g
         transform="matrix(0.35277777,0,0,-0.35277777,-84.193339,429.44918)"
         id="g6780">
        <path
           inkscape:connector-curvature="0"
           id="path6782"
           style="fill:#af0c37;fill-opacity:1;fill-rule:nonzero;stroke:none"
           d="m 0,0 -3.121,-0.159 c 0,0 0.758,17.995 3.589,22.626 1.718,2.807 2.395,1.296 2.395,1.296 z" />
      </g>
      <g
         transform="matrix(0.35277777,0,0,-0.35277777,-85.29441,428.95342)"
         id="g6784">
        <path
           inkscape:connector-curvature="0"
           id="path6786"
           style="fill:#db3159;fill-opacity:1;fill-rule:nonzero;stroke:none"
           d="m 0,0 c 0,0 18.015,2.398 18.451,2.398 0.442,0 1.052,-5.833 1.676,-13.632 0.337,-4.226 0.78,-3.901 -2.34,-5.461 -1.333,-0.667 -6.708,-1.872 -14.978,-2.34 -5.21,-0.297 -4.287,4.258 -4.21,6.085 C -1.331,-11.125 0,0 0,0" />
      </g>
      <g
         transform="matrix(0.35277777,0,0,-0.35277777,-79.77036,428.49625)"
         id="g6788">
        <path
           inkscape:connector-curvature="0"
           id="path6790"
           style="fill:#db3159;fill-opacity:1;fill-rule:nonzero;stroke:none"
           d="m 0,0 c -0.041,0.121 -1.98,11.792 -3.645,15.866 -1.518,3.711 -3.767,4.962 -4.835,5.305 -1.004,0.323 -2.73,-0.265 -2.752,-0.263 0,0 1.367,1.34 1.716,1.407 0.391,0.068 1.58,0.754 2.651,0.465 1.587,-0.433 4.477,-2.028 6.03,-5.823 C 0.834,12.872 3.107,0.529 3.14,0.411 Z" />
      </g>
      <g
         transform="matrix(0.35277777,0,0,-0.35277777,-469.4339,986.37092)"
         id="g6792">
        <g
           id="g6794" />
        <g
           id="g6806">
          <g
             style="opacity:0.27000403"
             id="g6804"
             clip-path="url(#clipPath6798)">
            <g
               id="g6802"
               transform="translate(1127.9858,1535.9536)">
              <path
                 inkscape:connector-curvature="0"
                 id="path6800"
                 style="fill:#231f20;fill-opacity:1;fill-rule:nonzero;stroke:none"
                 d="m 0,0 c -4.65,1.806 3.008,5.427 -1.916,9.766 -2.104,1.859 -11.466,3.983 -18.6,3.257 -9.588,-0.977 -24.199,-3.824 -21.371,-13.995 1.768,-6.354 12.619,-11.693 33.954,-11.335 13.13,0.224 18.688,6.134 15.318,9.775 C 6.262,-1.313 2.083,-0.809 0,0" />
            </g>
          </g>
        </g>
      </g>
      <g
         transform="matrix(0.35277777,0,0,-0.35277777,-75.152724,401.16236)"
         id="g6808">
        <path
           inkscape:connector-curvature="0"
           id="path6810"
           style="fill:#683534;fill-opacity:1;fill-rule:nonzero;stroke:none"
           d="m 0,0 c 0,0 3.82,2.283 6.108,7.904 1.719,4.212 0.886,7.049 0.684,8.158 -0.622,3.433 -4.734,7.245 -9.289,6.559 -0.774,-0.117 -3.044,0.784 -6.553,-0.154 -1.41,-0.374 -5.062,-1.961 -5.929,-4.993 -1.248,-4.37 0.625,-6.552 0.625,-6.552 l 2.185,-4.683 10.295,-7.801 z" />
      </g>
      <g
         transform="matrix(0.35277777,0,0,-0.35277777,-79.30046,440.00256)"
         id="g6812">
        <path
           inkscape:connector-curvature="0"
           id="path6814"
           style="fill:#af0c37;fill-opacity:1;fill-rule:nonzero;stroke:none"
           d="m 0,0 c 0,0 -0.063,-2.854 -2.046,-7.824 -0.553,-1.385 -1.586,-4.273 -2.393,-5.55 -0.201,-0.318 -0.456,-1.254 0.342,-1.654 1.24,-0.62 2.735,-0.235 4.222,0.628 3.693,2.13 4.509,5.977 4.509,5.977 l 1.067,4.18 2.333,-5.15 c 0,0 0.403,0.581 0.489,0.487 0.514,-0.56 -2.655,8.137 -2.655,8.137 0,0 -0.949,3.292 -3.501,2.442 C -0.528,0.708 0,0 0,0" />
      </g>
      <g
         transform="matrix(0.35277777,0,0,-0.35277777,-76.657383,423.56513)"
         id="g6816">
        <path
           inkscape:connector-curvature="0"
           id="path6818"
           style="fill:#f4d8c6;fill-opacity:1;fill-rule:nonzero;stroke:none"
           d="m 0,0 c -0.114,-0.533 -2.499,-4.783 -7.697,-14.564 -1.539,-2.893 -1.712,-4.652 -0.851,-5.862 4.366,-6.163 3.54,-13.616 3.844,-18.356 0.321,-4.995 1.652,-7.142 1.469,-8.032 0,0 -1.843,-10.224 -5.919,-10.045 -0.583,0.026 -1.383,0.069 -1.236,0.61 0.068,0.258 1.576,4.177 1.961,6.116 1.195,6.034 -9.469,25.642 -9.469,25.642 -0.945,2.178 -1.473,3.559 -1.325,7.004 0.114,2.587 8.196,31.01 8.196,31.01 l 3.975,5.887 c 0,0 9.229,-8.994 7.052,-19.41" />
      </g>
      <g
         transform="matrix(0.35277777,0,0,-0.35277777,-76.308372,441.79933)"
         id="g6820">
        <path
           inkscape:connector-curvature="0"
           id="path6822"
           style="fill:#db3159;fill-opacity:1;fill-rule:nonzero;stroke:none"
           d="m 0,0 c 0,0 -2.189,-3.364 -3.488,-5.025 -0.915,-1.179 -5.635,-5.067 -5.635,-5.067 0,0 -0.713,-0.73 -0.776,-1.665 -0.068,-1.039 1.102,-1.154 1.102,-1.154 h 6.214 c 0,0 1.491,0.052 2.719,1.608 0.764,0.961 2.76,4.07 2.76,4.07 l -0.06,-5.53 c 0,0 2.213,0.019 2.09,0 -0.191,-0.033 0.681,7.306 0.681,7.306 0,0 0.186,3.396 -1.169,6.134 C 3.082,3.41 0,0 0,0" />
      </g>
      <g
         transform="matrix(0.35277777,0,0,-0.35277777,-77.312608,418.99712)"
         id="g6824">
        <path
           inkscape:connector-curvature="0"
           id="path6826"
           style="fill:#f7ddc4;fill-opacity:1;fill-rule:nonzero;stroke:none"
           d="m 0,0 c 1.683,-3.738 10.573,0.995 11.996,-10.587 0.1,-0.813 -4.563,-23.028 -3.807,-27.565 2.265,-13.584 -1.09,-12.732 -1.306,-26.89 0,0 -1.762,-7.727 -7.978,-7.857 -0.79,-0.019 -2.919,-0.133 -2.654,0.13 0.127,0.129 2.48,2.822 2.48,2.822 1.232,1.685 1.947,4.172 1.927,5.928 -0.035,3.444 0.567,12.943 -0.676,20.909 -2.634,16.906 -1.247,37.859 -1.247,37.859 0,0 -4.978,0.77 -5.083,1.191 l 1.15,5.048 z" />
      </g>
      <g
         transform="matrix(0.35277777,0,0,-0.35277777,-82.399998,418.64053)"
         id="g6828">
        <path
           inkscape:connector-curvature="0"
           id="path6830"
           style="fill:#edd0c0;fill-opacity:1;fill-rule:nonzero;stroke:none"
           d="m 0,0 c 0,0 -2.221,-2.721 -2.059,-3.901 0.203,-1.459 0.561,-3.426 0.729,-4.481 0.133,-0.85 0.502,-0.841 1.17,-0.453 0.672,0.389 0.405,3.163 0.405,3.163 0,0 1.103,0.968 1.788,1.679 0.851,0.879 0.575,2.904 0.266,3.348 C 1.986,-0.187 0.444,0.435 0,0" />
      </g>
      <g
         transform="matrix(0.35277777,0,0,-0.35277777,-80.511738,405.25582)"
         id="g6832">
        <path
           inkscape:connector-curvature="0"
           id="path6834"
           style="fill:#093c4c;fill-opacity:1;fill-rule:nonzero;stroke:none"
           d="M 0,0 C 0,0 0.598,2.282 1.506,2.553 2.414,2.822 4.562,3.289 8.35,4.059 13.809,5.176 24.07,0.5 24.686,-0.428 c 0.617,-0.927 1.036,-4.589 -2.094,-11.003 -2.609,-5.352 -4.783,-9.804 -3.546,-13.826 1.237,-4.024 4.945,-11.792 4.821,-31.923 -0.016,-2.941 -7.29,-5.879 -15.645,-4.641 -8.356,1.238 -15.007,1.729 -15.007,1.729 0,0 2.24,8.125 4.81,17.554 2.499,9.15 2.192,9.093 3.923,15.826 1.327,5.171 -3.572,9.717 -4.269,12.832 C -3.161,-10.145 0,0 0,0" />
      </g>
      <g
         transform="matrix(0.35277777,0,0,-0.35277777,-78.069319,404.17805)"
         id="g6836">
        <path
           inkscape:connector-curvature="0"
           id="path6838"
           style="fill:#edd0c0;fill-opacity:1;fill-rule:nonzero;stroke:none"
           d="m 0,0 c -1.226,-0.829 -2.284,-1.468 -2.284,-5.917 0,-5.958 0.514,-6.455 0.965,-6.574 0.707,-0.187 5.847,5.793 7.254,7.653 1.486,1.977 2.352,4.037 2.141,5.072 C 6.997,5.605 7.494,10.286 7.494,10.286 l -7.148,0.932 c 0,0 0.464,-6.5 0.619,-8.666 C 1.005,2.002 0.983,0.676 0,0" />
      </g>
      <g
         transform="matrix(0.35277777,0,0,-0.35277777,-77.64543,395.09695)"
         id="g6840">
        <path
           inkscape:connector-curvature="0"
           id="path6842"
           style="fill:#edd0c0;fill-opacity:1;fill-rule:nonzero;stroke:none"
           d="m 0,0 c -5.393,0.139 -5.619,-4.339 -5.836,-7.319 -0.153,-2.09 0.019,-6.015 0.019,-6.015 0.411,-3.886 1.523,-6.699 3.536,-7.464 2.525,-0.946 6.202,1.174 9.26,4.457 2.708,2.912 3.134,4.875 3.208,5.342 l -3.669,5.665 c 0,0 -3.651,5.256 -6.518,5.334" />
      </g>
      <g
         transform="matrix(0.35277777,0,0,-0.35277777,-74.466104,398.0437)"
         id="g6844">
        <path
           inkscape:connector-curvature="0"
           id="path6846"
           style="fill:#d8af93;fill-opacity:1;fill-rule:nonzero;stroke:none"
           d="m 0,0 c -1.768,0.898 -3.212,-1.52 -3.212,-1.52 0,0 -0.332,-2.634 -0.826,-3.985 -0.314,-0.818 1.676,-0.672 2.598,0.224 0.056,0.059 1.218,1.093 1.295,1.17 C 0.942,-2.949 1.664,-0.858 0,0" />
      </g>
      <g
         transform="matrix(0.35277777,0,0,-0.35277777,-80.051498,395.43833)"
         id="g6848">
        <path
           inkscape:connector-curvature="0"
           id="path6850"
           style="fill:#db3159;fill-opacity:1;fill-rule:nonzero;stroke:none"
           d="m 0,0 c 0,0 0.31,-3.275 3.897,-5.772 3.591,-2.496 7.022,-4.057 7.022,-4.057 0,0 -2.962,3.746 -3.431,5.147 -0.465,1.407 2.151,-2.362 5.133,-4.223 2.982,-1.862 5.008,-1.704 5.008,-1.704 0,0 -2.85,10.274 -5.457,13.184 C 9.438,5.615 5.912,5.12 3.509,4.838 -0.468,4.37 0,0 0,0" />
      </g>
      <g
         transform="matrix(0.35277777,0,0,-0.35277777,-469.4339,986.37092)"
         id="g6852">
        <g
           clip-path="url(#clipPath6858)"
           id="g6854">
          <g
             transform="translate(1117.4795,1656.5718)"
             id="g6860">
            <path
               inkscape:connector-curvature="0"
               id="path6862"
               style="fill:#a0a1a1;fill-opacity:1;fill-rule:nonzero;stroke:none"
               d="M 0,0 -0.979,0.367 C -1.12,0.422 -1.249,0.522 -1.346,0.672 L -0.373,0.304 C -0.271,0.155 -0.144,0.053 0,0" />
          </g>
        </g>
      </g>
      <g
         transform="matrix(0.35277777,0,0,-0.35277777,-469.4339,986.37092)"
         id="g6864">
        <g
           clip-path="url(#clipPath6870)"
           id="g6866">
          <g
             transform="translate(1121.6265,1670.3135)"
             id="g6872">
            <path
               inkscape:connector-curvature="0"
               id="path6874"
               style="fill:#a0a1a1;fill-opacity:1;fill-rule:nonzero;stroke:none"
               d="m 0,0 -0.974,0.368 c 0.341,0.408 0.772,0.551 1.112,0.421 L 1.119,0.419 C 0.774,0.551 0.343,0.406 0,0" />
          </g>
        </g>
      </g>
      <g
         transform="matrix(0.35277777,0,0,-0.35277777,-469.4339,986.37092)"
         id="g6876">
        <g
           clip-path="url(#clipPath6882)"
           id="g6878">
          <g
             transform="translate(1117.1064,1656.876)"
             id="g6884">
            <path
               inkscape:connector-curvature="0"
               id="path6886"
               style="fill:#a0a1a1;fill-opacity:1;fill-rule:nonzero;stroke:none"
               d="M 0,0 -0.973,0.368 -3.35,3.995 -2.373,3.625 Z" />
          </g>
          <g
             transform="translate(1115.0049,1662.4702)"
             id="g6888">
            <path
               inkscape:connector-curvature="0"
               id="path6890"
               style="fill:#a0a1a1;fill-opacity:1;fill-rule:nonzero;stroke:none"
               d="M 0,0 -0.978,0.368 5.647,8.211 6.622,7.843 Z" />
          </g>
        </g>
      </g>
      <g
         transform="matrix(0.35277777,0,0,-0.35277777,-469.4339,986.37092)"
         id="g6892">
        <g
           clip-path="url(#clipPath6898)"
           id="g6894">
          <g
             transform="translate(1114.7334,1660.5015)"
             id="g6900">
            <path
               inkscape:connector-curvature="0"
               id="path6902"
               style="fill:#a0a1a1;fill-opacity:1;fill-rule:nonzero;stroke:none"
               d="M 0,0 -0.977,0.37 C -1.311,0.88 -1.19,1.764 -0.706,2.336 L 0.271,1.969 C -0.214,1.396 -0.336,0.509 0,0" />
          </g>
        </g>
      </g>
      <g
         transform="matrix(0.35277777,0,0,-0.35277777,-72.386162,398.35997)"
         id="g6912">
        <path
           inkscape:connector-curvature="0"
           id="path6914"
           style="fill:#3f3f3f;fill-opacity:1;fill-rule:nonzero;stroke:none"
           d="m 0,0 c 0.336,-0.514 0.215,-1.391 -0.273,-1.97 l -6.622,-7.843 c -0.483,-0.574 -1.146,-0.629 -1.488,-0.114 l -2.373,3.626 c -0.336,0.509 -0.214,1.396 0.271,1.968 l 6.622,7.844 c 0.488,0.577 1.152,0.626 1.484,0.114 z" />
      </g>
      <g
         transform="matrix(0.35277777,0,0,-0.35277777,-73.298419,397.52106)"
         id="g6916">
        <path
           inkscape:connector-curvature="0"
           id="path6918"
           style="fill:#6a7575;fill-opacity:1;fill-rule:nonzero;stroke:none"
           d="m 0,0 c -0.029,-0.375 -0.249,-0.665 -0.489,-0.644 -0.242,0.019 -0.412,0.339 -0.382,0.715 0.031,0.376 0.251,0.664 0.492,0.647 C -0.142,0.696 0.033,0.376 0,0" />
      </g>
      <g
         transform="matrix(0.35277777,0,0,-0.35277777,-73.469128,397.31677)"
         id="g6920">
        <path
           inkscape:connector-curvature="0"
           id="path6922"
           style="fill:#71b5b3;fill-opacity:1;fill-rule:nonzero;stroke:none"
           d="m 0,0 c -0.099,0.008 -0.188,-0.044 -0.266,-0.125 -0.062,-0.107 -0.11,-0.233 -0.121,-0.383 -0.03,-0.376 0.14,-0.697 0.382,-0.715 0.1,-0.009 0.19,0.043 0.268,0.123 0.062,0.107 0.111,0.235 0.119,0.385 C 0.416,-0.338 0.242,-0.016 0,0" />
      </g>
      <g
         transform="matrix(0.35277777,0,0,-0.35277777,-71.386037,406.72189)"
         id="g6924">
        <path
           inkscape:connector-curvature="0"
           id="path6926"
           style="fill:#f7ddc4;fill-opacity:1;fill-rule:nonzero;stroke:none"
           d="m 0,0 c 0,0 0.181,-6.368 -17.767,-11.34 -8.682,-2.402 3.216,27.952 3.216,27.952 l 3.516,-2.242 c 0,0 -3.761,-18.388 -3.403,-18.203 1.654,0.856 6.192,4.743 6.192,4.743 0,0 2.181,1.938 4.278,2.782 C 0.782,5.602 0,0 0,0" />
      </g>
      <g
         transform="matrix(0.35277777,0,0,-0.35277777,-75.985765,402.11822)"
         id="g6928">
        <path
           inkscape:connector-curvature="0"
           id="path6930"
           style="fill:#f7ddc4;fill-opacity:1;fill-rule:nonzero;stroke:none"
           d="m 0,0 c 0,0 4.27,2.109 4.677,2.229 0.412,0.118 1.809,1.105 2.055,2.02 0.245,0.917 1.214,4.817 1.214,4.817 0,0 0.146,0.564 -0.487,0.735 C 6.824,9.97 5.945,10.357 4.464,8.786 2.987,7.219 2.14,6.224 1.247,5.791 -1.271,4.576 -1.624,3.535 -1.687,3.02 -1.747,2.509 0,0 0,0" />
      </g>
    </g>
  </g>
</svg>
