<?xml version="1.0" encoding="UTF-8" standalone="no"?>
<!-- Created with Inkscape (http://www.inkscape.org/) -->

<svg
   xmlns:dc="http://purl.org/dc/elements/1.1/"
   xmlns:cc="http://creativecommons.org/ns#"
   xmlns:rdf="http://www.w3.org/1999/02/22-rdf-syntax-ns#"
   xmlns:svg="http://www.w3.org/2000/svg"
   xmlns="http://www.w3.org/2000/svg"
   xmlns:sodipodi="http://sodipodi.sourceforge.net/DTD/sodipodi-0.dtd"
   xmlns:inkscape="http://www.inkscape.org/namespaces/inkscape"
   width="1.3089169mm"
   height="5.387723mm"
   viewBox="0 0 1.308917 5.3877229"
   version="1.1"
   id="svg164959"
   inkscape:version="0.92.2 (5c3e80d, 2017-08-06)"
   sodipodi:docname="people-business-12.svg">
  <defs
     id="defs164953">
    <clipPath
       id="clipPath2076"
       clipPathUnits="userSpaceOnUse">
      <path
         inkscape:connector-curvature="0"
         id="path2074"
         d="m 1400.12,1874.43 h 37.11 v -21.4 h -37.11 z" />
    </clipPath>
  </defs>
  <sodipodi:namedview
     id="base"
     pagecolor="#ffffff"
     bordercolor="#666666"
     borderopacity="1.0"
     inkscape:pageopacity="0.0"
     inkscape:pageshadow="2"
     inkscape:zoom="0.35"
     inkscape:cx="-797.60583"
     inkscape:cy="473.03864"
     inkscape:document-units="mm"
     inkscape:current-layer="layer1"
     showgrid="false"
     fit-margin-top="0"
     fit-margin-left="0"
     fit-margin-right="0"
     fit-margin-bottom="0"
     inkscape:window-width="1360"
     inkscape:window-height="706"
     inkscape:window-x="-8"
     inkscape:window-y="-8"
     inkscape:window-maximized="1" />
  <metadata
     id="metadata164956">
    <rdf:RDF>
      <cc:Work
         rdf:about="">
        <dc:format>image/svg+xml</dc:format>
        <dc:type
           rdf:resource="http://purl.org/dc/dcmitype/StillImage" />
        <dc:title></dc:title>
      </cc:Work>
    </rdf:RDF>
  </metadata>
  <g
     inkscape:label="Layer 1"
     inkscape:groupmode="layer"
     id="layer1"
     transform="translate(-180.77411,-268.60375)">
    <g
       id="g5828"
       transform="matrix(0.1,0,0,0.086,163.28571,247.96602)">
      <g
         transform="matrix(0.35277777,0,0,-0.35277777,-319.04872,956.33061)"
         id="g2070">
        <g
           id="g2072" />
        <g
           id="g2084">
          <g
             style="opacity:0.28999299"
             id="g2082"
             clip-path="url(#clipPath2076)">
            <g
               id="g2080"
               transform="translate(1432.1123,1859.0024)">
              <path
                 inkscape:connector-curvature="0"
                 id="path2078"
                 style="fill:#231f20;fill-opacity:1;fill-rule:nonzero;stroke:none"
                 d="m 0,0 c -1.453,-2.146 -4.707,-6.645 -13.013,-5.883 -8.305,0.761 -25.373,4.205 -16.473,12.736 6.644,6.367 9.067,11.143 28.724,7.06 C 11.189,11.43 1.454,2.146 0,0" />
            </g>
          </g>
        </g>
      </g>
      <g
         transform="matrix(0.35277777,0,0,-0.35277777,179.83486,297.78305)"
         id="g2086">
        <path
           inkscape:connector-curvature="0"
           id="path2088"
           style="fill:#e8c5ac;fill-opacity:1;fill-rule:nonzero;stroke:none"
           d="M 0,0 C -0.184,0.102 -0.359,-0.097 0,0" />
      </g>
      <g
         transform="matrix(0.35277777,0,0,-0.35277777,187.55463,279.68545)"
         id="g2090">
        <path
           inkscape:connector-curvature="0"
           id="path2092"
           style="fill:#e8c5ac;fill-opacity:1;fill-rule:nonzero;stroke:none"
           d="m 0,0 c 0.026,3.077 0.692,8.444 0.185,10.686 l -21.218,0.006 c 0.072,-0.741 0.106,-0.998 0.106,-0.998 l 8.311,-51.235 0.08,-0.123 c 0,0 0.37,-3.324 -3.491,-5.859 -0.866,-0.593 -5.715,-3.734 -5.791,-3.76 -0.028,-0.01 -0.041,-0.01 -0.065,-0.017 0.104,-0.056 0.205,-0.206 0.205,-0.577 0,-1.255 12.784,-0.139 12.784,-0.139 0,0 3.128,-0.236 4.616,0.874 1.27,0.949 1.605,1.101 1.605,2.269 z" />
      </g>
      <g
         transform="matrix(0.35277777,0,0,-0.35277777,185.11308,298.10877)"
         id="g2094">
        <path
           inkscape:connector-curvature="0"
           id="path2096"
           style="fill:#7c7676;fill-opacity:1;fill-rule:nonzero;stroke:none"
           d="m 0,0 0.312,-2.977 c 0,0 0.845,-0.579 1.798,-0.415 1.266,0.221 1.731,0.831 1.731,0.831 l 0.97,4.672 c 0,0 -0.924,-1.581 -3.507,-2.042 C 0.497,-0.074 0,0 0,0" />
      </g>
      <g
         transform="matrix(0.35277777,0,0,-0.35277777,184.20567,296.71697)"
         id="g2098">
        <path
           inkscape:connector-curvature="0"
           id="path2100"
           style="fill:#b21b0b;fill-opacity:1;fill-rule:nonzero;stroke:none"
           d="m 0,0 c -4.884,-3.104 -7.932,-1.423 -8.368,-1.188 -1.764,0.948 -1.03,2.062 -0.078,2.734 0.393,0.277 0.97,0.409 0.97,0.409 0.055,-0.006 -4.661,0.399 -6,-0.525 -0.445,-0.307 -0.851,-0.727 -0.874,-1.06 -0.046,-0.716 0.466,-1.233 0.466,-1.233 0,0 2.816,-1.14 4.761,-2.135 3.309,-1.698 11.349,-0.67 14.36,-0.8 1.03,-0.044 2.449,1.542 2.526,3.521 0.104,2.665 -0.7,3.809 -0.7,3.809 0,0 -1.32,0.217 -3.568,-1.302 C 2.952,1.864 1.015,0.646 0,0" />
      </g>
      <g
         transform="matrix(0.35277777,0,0,-0.35277777,185.94303,297.889)"
         id="g2102">
        <path
           inkscape:connector-curvature="0"
           id="path2104"
           style="fill:#7c7676;fill-opacity:1;fill-rule:nonzero;stroke:none"
           d="m 0,0 c -0.447,-0.098 -2.065,-0.173 -4.557,-0.416 -4.564,-0.443 -6.562,-0.196 -9.361,0.952 -2.025,0.829 -3.051,1.309 -3.984,1.862 -0.483,0.286 -1.489,0.866 -1.372,1.294 -0.221,-0.671 0.195,-1.224 0.195,-1.224 0,0 4.015,-2.423 5.987,-2.976 2.414,-0.678 6.221,-0.366 9.504,-0.277 1.709,0.047 3.68,0.106 4.616,0.277 1.014,0.186 1.201,1.416 1.257,1.581 C 2.319,1.176 1.42,0.312 0,0" />
      </g>
      <g
         transform="matrix(0.35277777,0,0,-0.35277777,185.17164,273.52284)"
         id="g2106">
        <path
           inkscape:connector-curvature="0"
           id="path2108"
           style="fill:#ffe8d9;fill-opacity:1;fill-rule:nonzero;stroke:none"
           d="m 0,0 c 0.018,-1.73 -2.228,-2.892 -3.75,-2.907 -0.532,-0.007 -0.818,-3.258 -1.584,-4.478 -0.805,-1.282 -2.083,-0.532 -2.293,-0.156 -0.166,0.295 1.184,5.049 1.482,6.26 0.987,4.036 2.552,4.199 4.078,4.214 C -0.545,2.95 -0.021,1.73 0,0" />
      </g>
      <g
         transform="matrix(0.35277777,0,0,-0.35277777,185.83555,272.49054)"
         id="g2110">
        <path
           inkscape:connector-curvature="0"
           id="path2112"
           style="fill:#ffe8d9;fill-opacity:1;fill-rule:nonzero;stroke:none"
           d="m 0,0 -4.395,0.002 -1.601,-5.398 0.012,-0.883 0.744,-7.038 c 0,0 0.096,-3.41 3.603,-3.414 2.286,-0.002 0.246,0 0.246,0 3.137,-0.004 3.969,3.499 3.969,3.499 l 0.717,9.101 C 3.334,-2.205 2.014,-0.002 0,0" />
      </g>
      <g
         transform="matrix(0.35277777,0,0,-0.35277777,183.97141,271.97084)"
         id="g2114">
        <path
           inkscape:connector-curvature="0"
           id="path2116"
           style="fill:#911309;fill-opacity:1;fill-rule:nonzero;stroke:none"
           d="M 0,0 7.513,-0.308 10.365,23.746 9.466,39.042 C 9.604,43.888 7.67,52.055 2.82,52.055 c -5.804,0 -4.719,-7.721 -4.719,-7.721 L 0.5,24.132 Z" />
      </g>
      <g
         transform="matrix(0.35277777,0,0,-0.35277777,186.80705,270.71632)"
         id="g2118">
        <path
           inkscape:connector-curvature="0"
           id="path2120"
           style="fill:#ededed;fill-opacity:1;fill-rule:nonzero;stroke:none"
           d="m 0,0 c 0.299,0 0.541,-0.244 0.541,-0.542 l -0.898,-3.7 c 0,-0.299 -0.243,-0.542 -0.54,-0.542 l -7.249,-0.005 c -0.309,0 -0.576,0.229 -0.621,0.537 v 3.705 c -0.044,0.283 0.141,0.536 0.426,0.536 z" />
      </g>
      <g
         transform="matrix(0.35277777,0,0,-0.35277777,183.93627,271.2131)"
         id="g2122">
        <path
           inkscape:connector-curvature="0"
           id="path2124"
           style="fill:#b21b0b;fill-opacity:1;fill-rule:nonzero;stroke:none"
           d="m 0,0 c 0,-0.272 0.223,-0.493 0.493,-0.493 0.273,0 0.493,0.221 0.493,0.493 0,0.272 -0.22,0.493 -0.493,0.493 C 0.223,0.493 0,0.272 0,0" />
      </g>
      <g
         transform="matrix(0.35277777,0,0,-0.35277777,178.6391,273.79347)"
         id="g2126">
        <path
           inkscape:connector-curvature="0"
           id="path2128"
           style="fill:#14546d;fill-opacity:1;fill-rule:nonzero;stroke:none"
           d="m 0,0 c 3.837,7.289 14.181,6.048 18.598,2.047 1.473,-1.333 3.859,-4.83 3.74,-7.758 -0.002,-0.061 -0.005,-0.149 -0.005,-0.249 0.108,1.041 0.176,1.698 0.197,1.877 0.366,3.147 3.842,7.82 2.847,12.842 L -2.441,7.778 C -2.433,7.545 -2.135,3.79 -2.135,3.79 l 0.933,-7.153 C -1.261,-2.827 -0.661,-1.261 0,0" />
      </g>
      <g
         transform="matrix(0.35277777,0,0,-0.35277777,186.93828,273.2276)"
         id="g2130">
        <path
           inkscape:connector-curvature="0"
           id="path2132"
           style="fill:#ffe1cc;fill-opacity:1;fill-rule:nonzero;stroke:none"
           d="M 0,0 -0.885,4.164 -25.336,4.086 V 0.943 c 0,0 0,-1.433 0.096,-2.604 0.149,-1.877 0.226,-2.406 0.226,-2.406 l 5.685,-61.732 c 0,0 0.076,-1.62 0.021,-2.157 -0.131,-1.308 -1.578,-1.875 -5.188,-2.956 -1.086,-0.325 -3.712,-1.225 -3.773,-1.244 -0.711,-0.234 -2.307,-1.2 -0.46,-1.523 1.235,-0.216 12.376,-3.437 12.376,-3.437 0,0 4.374,0.952 5.63,1.049 1.581,0.121 1.742,1.417 1.742,2.585 l -0.463,1.927 c 0.457,4.971 5.269,57.495 5.481,59.329 C -3.598,-9.078 -1.724,-5.992 0,0" />
      </g>
      <g
         transform="matrix(0.35277777,0,0,-0.35277777,177.74401,271.56482)"
         id="g2134">
        <path
           inkscape:connector-curvature="0"
           id="path2136"
           style="fill:#5b5353;fill-opacity:1;fill-rule:nonzero;stroke:none"
           d="M 0,0 C 0.151,-1.876 0.229,-2.407 0.229,-2.407 L 2.507,-29.83 c 0,-1.127 0.039,-2.354 1.358,-2.979 0,0 7.835,-3.705 16.538,2.01 1.476,0.969 6.957,4.209 7.511,5.593 0.05,0.129 0.913,13.315 0.921,14.018 0.057,4.961 -0.1,8.729 -1.094,13.751 L -0.078,1.582 C -0.064,1.104 -0.041,0.529 0,0" />
      </g>
      <g
         transform="matrix(0.35277777,0,0,-0.35277777,177.86633,272.28332)"
         id="g2138">
        <path
           inkscape:connector-curvature="0"
           id="path2140"
           style="fill:#3a3535;fill-opacity:1;fill-rule:nonzero;stroke:none"
           d="m 0,0 c 0,0 1.211,-5.665 13.399,-4.658 5.265,0.435 14.619,5.639 14.619,5.639 -0.066,1.092 -0.205,2.254 -0.451,3.498 L -0.251,3.498 C -0.238,3.02 -0.215,2.444 -0.174,1.916 -0.098,0.968 -0.039,0.366 0,0" />
      </g>
      <g
         transform="matrix(0.35277777,0,0,-0.35277777,179.5944,253.8648)"
         id="g2142">
        <path
           inkscape:connector-curvature="0"
           id="path2144"
           style="fill:#b21b0b;fill-opacity:1;fill-rule:nonzero;stroke:none"
           d="m 0,0 -8.734,-18.494 c 0,0 -0.781,-1.226 -0.752,-2.312 0.027,-1.071 0.036,-2.376 1.364,-4.409 0.143,-0.218 0.288,-0.421 0.433,-0.612 1.432,-1.859 2.9,-3.871 2.9,-6.216 L -5.165,-47.69 c 0,0 0.016,-1.022 0.091,-2.566 0,0 3.158,-4.277 10.162,-4.305 7.312,-0.029 17.686,6.3 17.581,6.83 l -3.703,13.162 c -0.279,1.316 -0.374,2.669 -0.281,4.011 l 1.665,15.369 c 0,0 0.295,6.038 -0.554,9.275 C 17.581,2.53 11.771,3.674 11.456,4.318 11.456,4.318 0.662,1.151 0,0" />
      </g>
      <g
         transform="matrix(0.35277777,0,0,-0.35277777,183.92868,252.24372)"
         id="g2146">
        <path
           inkscape:connector-curvature="0"
           id="path2148"
           style="fill:#ededed;fill-opacity:1;fill-rule:nonzero;stroke:none"
           d="m 0,0 c -0.415,1.799 -0.761,1.522 -1.592,0.9 l -6.714,-2.007 c -0.817,-0.758 -4.845,-2.7 -5.537,-4.707 l -1.144,-4.474 c 0.138,0.139 1.008,1.409 3.359,3.228 4.291,3.322 13.013,5.676 13.013,5.676 C 1.661,-1.384 0,0 0,0" />
      </g>
      <g
         transform="matrix(0.35277777,0,0,-0.35277777,178.79481,275.14516)"
         id="g2150">
        <path
           inkscape:connector-curvature="0"
           id="path2152"
           style="fill:#d32a1e;fill-opacity:1;fill-rule:nonzero;stroke:none"
           d="M 0,0 6.924,-0.32 9.169,24.304 8.877,40.83 c 0.277,4.43 -1.04,11.356 -5.89,11.356 -5.803,0 -4.886,-7.852 -4.886,-7.852 L 0.5,24.13 Z" />
      </g>
      <g
         transform="matrix(0.35277777,0,0,-0.35277777,180.03708,276.3692)"
         id="g2154">
        <path
           inkscape:connector-curvature="0"
           id="path2156"
           style="fill:#ffe8d9;fill-opacity:1;fill-rule:nonzero;stroke:none"
           d="m 0,0 c 0.015,-1.585 -2.044,-2.65 -3.441,-2.665 -0.487,-0.006 -0.748,-2.987 -1.452,-4.106 -0.737,-1.176 -1.91,-0.488 -2.102,-0.143 -0.151,0.269 1.086,4.63 1.358,5.742 0.907,3.701 2.343,3.85 3.74,3.863 C -0.502,2.706 -0.02,1.588 0,0" />
      </g>
      <g
         transform="matrix(0.35277777,0,0,-0.35277777,180.64583,275.42178)"
         id="g2158">
        <path
           inkscape:connector-curvature="0"
           id="path2160"
           style="fill:#ffe8d9;fill-opacity:1;fill-rule:nonzero;stroke:none"
           d="m 0,0 -4.031,0.002 -1.467,-4.952 0.009,-0.81 0.683,-6.453 c 0,0 0.089,-3.128 3.303,-3.131 2.099,-0.002 0.228,-0.002 0.228,-0.002 2.877,-0.002 3.256,4.043 3.256,4.043 l 0.351,6.915 C 2.369,-2.621 1.848,-0.003 0,0" />
      </g>
      <g
         transform="matrix(0.35277777,0,0,-0.35277777,180.11942,274.61031)"
         id="g2162">
        <path
           inkscape:connector-curvature="0"
           id="path2164"
           style="fill:#ededed;fill-opacity:1;fill-rule:nonzero;stroke:none"
           d="m 0,0 c 3.229,0.092 3.481,1.754 3.481,1.456 0,0 0.763,-0.441 0.58,-1.364 -0.059,-0.293 -0.648,-3.599 -1.478,-4.153 0,0 -0.737,-0.922 -4.798,-0.554 -3.147,0.287 -2.632,2.277 -2.678,2.584 l 0.501,3.106 c 0.156,0.64 0.407,0.934 0.693,0.934 0,0 0.1,-2.113 3.699,-2.009" />
      </g>
      <g
         transform="matrix(0.35277777,0,0,-0.35277777,178.96255,242.58798)"
         id="g2166">
        <path
           inkscape:connector-curvature="0"
           id="path2168"
           style="fill:#ffe1cc;fill-opacity:1;fill-rule:nonzero;stroke:none"
           d="m 0,0 -8.384,-0.396 4.279,-22.175 c 0.831,-4.153 3.29,-5.937 5.169,-5.999 3.639,-0.118 6.191,2.657 9.504,7.107 2.936,3.941 2.328,6.404 2.359,6.99 L 14.182,0 Z" />
      </g>
      <g
         transform="matrix(0.35277777,0,0,-0.35277777,178.13335,254.3273)"
         id="g2170">
        <path
           inkscape:connector-curvature="0"
           id="path2172"
           style="fill:#eda72b;fill-opacity:1;fill-rule:nonzero;stroke:none"
           d="M 0,0 C 0,0 20.868,1.052 24.457,16.427 26.396,24.733 23.072,37.008 13.659,39.869 5.439,42.367 -1.846,38.853 -5.444,33.316 -8.354,28.841 -7.937,21.411 -4.891,17.812 -0.231,12.306 1.2,12.274 2.308,8.398 3.467,4.34 1.816,1.622 0,0" />
      </g>
      <g
         transform="matrix(0.35277777,0,0,-0.35277777,182.36978,300.35379)"
         id="g2174">
        <path
           inkscape:connector-curvature="0"
           id="path2176"
           style="fill:#7c7676;fill-opacity:1;fill-rule:nonzero;stroke:none"
           d="m 0,0 0.66,-2.92 c 0,0 0.937,-0.474 1.897,-0.192 1.276,0.374 1.687,1.038 1.687,1.038 l 0.467,4.761 c 0,0 -1.514,-2.551 -3.853,-2.62 C 0.013,0.041 0,0 0,0" />
      </g>
      <g
         transform="matrix(0.35277777,0,0,-0.35277777,181.17021,298.95421)"
         id="g2178">
        <path
           inkscape:connector-curvature="0"
           id="path2180"
           style="fill:#d32a1e;fill-opacity:1;fill-rule:nonzero;stroke:none"
           d="m 0,0 c -4.983,-2.354 -7.739,-1.177 -8.215,-0.995 -1.921,0.724 -2.081,1.706 -1.177,2.492 0.371,0.322 1.246,0.517 1.246,0.517 0.056,0 -5.983,-1.099 -6.783,-2.109 -0.343,-0.433 -0.45,-0.824 -0.434,-1.157 0.034,-0.717 0.62,-1.168 0.62,-1.168 0,0 3.026,-0.79 5.139,-1.541 3.597,-1.28 12.768,0.259 15.88,0.499 1.067,0.082 2.195,1.798 2.047,3.773 -0.194,2.663 -1.124,3.657 -1.124,3.657 0,0 -1.411,0.096 -3.548,-1.686 C 3.132,1.849 0.82,0.387 0,0" />
      </g>
      <g
         transform="matrix(0.35277777,0,0,-0.35277777,183.37538,299.89129)"
         id="g2182">
        <path
           inkscape:connector-curvature="0"
           id="path2184"
           style="fill:#7c7676;fill-opacity:1;fill-rule:nonzero;stroke:none"
           d="m 0,0 c -0.449,-0.151 -2.284,-0.692 -4.775,-1.107 -5.35,-0.892 -7.96,-0.768 -10.969,0.03 -2.179,0.575 -3.288,0.928 -4.312,1.362 -0.529,0.228 -1.561,0.863 -1.558,1.119 -0.029,-0.948 0.339,-1.195 0.339,-1.195 0,0 2.729,-1.176 6.5,-2.223 4.462,-1.239 8.786,0.264 11.453,0.56 1.901,0.211 2.656,-0.09 3.51,0.398 C 1.339,-0.394 1.786,0.8 1.825,0.971 1.849,1.079 1.424,0.482 0,0" />
      </g>
    </g>
  </g>
</svg>
