<?xml version="1.0" encoding="UTF-8" standalone="no"?>
<!-- Created with Inkscape (http://www.inkscape.org/) -->

<svg
   xmlns:dc="http://purl.org/dc/elements/1.1/"
   xmlns:cc="http://creativecommons.org/ns#"
   xmlns:rdf="http://www.w3.org/1999/02/22-rdf-syntax-ns#"
   xmlns:svg="http://www.w3.org/2000/svg"
   xmlns="http://www.w3.org/2000/svg"
   xmlns:sodipodi="http://sodipodi.sourceforge.net/DTD/sodipodi-0.dtd"
   xmlns:inkscape="http://www.inkscape.org/namespaces/inkscape"
   width="3.5446699mm"
   height="5.6342154mm"
   viewBox="0 0 3.5446699 5.6342154"
   version="1.1"
   id="svg164471"
   inkscape:version="0.92.2 (5c3e80d, 2017-08-06)"
   sodipodi:docname="people-business-08.svg">
  <defs
     id="defs164465">
    <clipPath
       id="clipPath2900"
       clipPathUnits="userSpaceOnUse">
      <path
         inkscape:connector-curvature="0"
         id="path2898"
         d="m 1046.05,1897.5 h 57.85 v -36.31 h -57.85 z" />
    </clipPath>
  </defs>
  <sodipodi:namedview
     id="base"
     pagecolor="#ffffff"
     bordercolor="#666666"
     borderopacity="1.0"
     inkscape:pageopacity="0.0"
     inkscape:pageshadow="2"
     inkscape:zoom="0.35"
     inkscape:cx="-497.58712"
     inkscape:cy="7.7901963"
     inkscape:document-units="mm"
     inkscape:current-layer="layer1"
     showgrid="false"
     fit-margin-top="0"
     fit-margin-left="0"
     fit-margin-right="0"
     fit-margin-bottom="0"
     inkscape:window-width="1360"
     inkscape:window-height="706"
     inkscape:window-x="-8"
     inkscape:window-y="-8"
     inkscape:window-maximized="1" />
  <metadata
     id="metadata164468">
    <rdf:RDF>
      <cc:Work
         rdf:about="">
        <dc:format>image/svg+xml</dc:format>
        <dc:type
           rdf:resource="http://purl.org/dc/dcmitype/StillImage" />
        <dc:title></dc:title>
      </cc:Work>
    </rdf:RDF>
  </metadata>
  <g
     inkscape:label="Layer 1"
     inkscape:groupmode="layer"
     id="layer1"
     transform="translate(-54.168141,-145.26028)">
    <g
       id="g5072"
       transform="matrix(0.1,0,0,0.086,50.346428,135.34273)">
      <g
         transform="matrix(0.35277777,0,0,-0.35277777,38.217126,177.87076)"
         id="g1962">
        <path
           inkscape:connector-curvature="0"
           id="path1964"
           style="fill:#ffffff;fill-opacity:1;fill-rule:nonzero;stroke:none"
           d="m 0,0 c 0,0 7.041,5.678 13.169,7.947 6.134,2.271 7.491,-0.452 7.491,-0.452 l 9.312,-6.361 c 0,0 -11.576,-4.541 -14.981,-6.358 C 11.577,-7.04 8.63,-8.401 8.63,-8.401 Z" />
      </g>
      <g
         transform="matrix(0.35277777,0,0,-0.35277777,-319.43683,833.78215)"
         id="g2894">
        <g
           id="g2896" />
        <g
           id="g2908">
          <g
             style="opacity:0.28999299"
             id="g2906"
             clip-path="url(#clipPath2900)">
            <g
               id="g2904"
               transform="translate(1052.0303,1872.7422)">
              <path
                 inkscape:connector-curvature="0"
                 id="path2902"
                 style="fill:#160b01;fill-opacity:1;fill-rule:nonzero;stroke:none"
                 d="M 0,0 C 0,0 13.185,8.775 18.696,12.417 38.647,25.601 47.78,25.061 50.688,24.567 53.599,24.075 51.942,18.463 36.431,8.861 31.731,5.951 45.871,7.717 38.155,0 34.515,-3.641 23.141,-9.846 10.342,-11.322 1.995,-12.285 -15.015,-10.584 0,0" />
            </g>
          </g>
        </g>
      </g>
      <g
         transform="matrix(0.35277777,0,0,-0.35277777,53.862335,169.80442)"
         id="g2910">
        <path
           inkscape:connector-curvature="0"
           id="path2912"
           style="fill:#231f20;fill-opacity:1;fill-rule:nonzero;stroke:none"
           d="M 0,0 C 0,0 -1.843,2.2 -2.242,1.992 -2.642,1.784 -3.851,-0.318 -3.955,-0.621 -4.059,-0.928 -4.059,-1.326 -3.34,-1.806 -2.62,-2.284 0,0 0,0" />
      </g>
      <g
         transform="matrix(0.35277777,0,0,-0.35277777,66.147892,163.37466)"
         id="g2914">
        <path
           inkscape:connector-curvature="0"
           id="path2916"
           style="fill:#231f20;fill-opacity:1;fill-rule:nonzero;stroke:none"
           d="m 0,0 c 0,0 -1.595,-2.888 0.453,-2.805 1.262,0.05 5.221,1.063 5.221,1.063 2.084,0.67 4.764,0.973 5.462,-0.558 0,0 0.302,-0.593 0.314,-0.936 0.033,-1.184 0.326,-0.149 -1.097,-1.786 0,0 -2.747,-2.681 -4.515,-3.805 -2.222,-1.412 -3.438,-1.609 -4.211,-1.627 0,0 -1.568,0.109 -2.51,-0.129 -1.043,-0.267 -0.601,-1.57 -0.466,-2.617 l -3.091,-1.762 c -3.205,-1.304 -6.173,1.239 -6.275,2.044 l -1.07,8.392 z" />
      </g>
      <g
         transform="matrix(0.35277777,0,0,-0.35277777,66.232638,166.94654)"
         id="g2918">
        <path
           inkscape:connector-curvature="0"
           id="path2920"
           style="fill:#231f20;fill-opacity:1;fill-rule:nonzero;stroke:none"
           d="m 0,0 c 0.914,0.138 1.954,0.426 4.602,1.535 2.207,0.927 5.264,3.7 5.264,3.7 0.727,0.697 1.284,1.509 1.195,2.202 0.083,-0.254 0.132,-0.519 0.163,-0.664 0.208,-1.06 -0.651,-1.764 -1.355,-2.398 0,0 -2.368,-2.301 -4.256,-3.196 -2.438,-1.158 -2.842,-1.13 -3.98,-1.315 0,0 -1.445,-0.251 -2.401,-0.416 C -1.196,-0.625 -1.764,-0.958 -1.75,-1.074 -1.738,-1.013 -1.691,-0.25 0,0" />
      </g>
      <g
         transform="matrix(0.35277777,0,0,-0.35277777,64.540416,168.32304)"
         id="g2922">
        <path
           inkscape:connector-curvature="0"
           id="path2924"
           style="fill:#231f20;fill-opacity:1;fill-rule:nonzero;stroke:none"
           d="M 0,0 3.061,1.745 C 3.108,1.401 3.18,1.041 3.225,0.706 L 0.133,-1.054 C -3.074,-2.355 -6.041,0.187 -6.145,0.994 L -6.277,2.048 C -6.176,1.243 -3.207,-1.302 0,0" />
      </g>
      <g
         transform="matrix(0.35277777,0,0,-0.35277777,51.444917,140.73815)"
         id="g2926">
        <path
           inkscape:connector-curvature="0"
           id="path2928"
           style="fill:#f2d9cc;fill-opacity:1;fill-rule:nonzero;stroke:none"
           d="m 0,0 -3.517,-6.644 -0.131,-3.131 0.035,-3.87 -1.703,-3.525 c 0,0 -0.604,-1.393 2.684,-2.801 1.677,-0.719 4.011,1.408 4.011,1.408 0.951,0.583 2.122,2.745 2.353,4.002 0.219,1.157 0.444,6.704 0.444,6.704 C 3.92,-6.181 1.807,0.313 0,0" />
      </g>
      <g
         transform="matrix(0.35277777,0,0,-0.35277777,51.066298,143.74554)"
         id="g2930">
        <path
           inkscape:connector-curvature="0"
           id="path2932"
           style="fill:#ffe8d9;fill-opacity:1;fill-rule:nonzero;stroke:none"
           d="m 0,0 c 0,0 -0.582,-1.783 0.778,-3.445 1.365,-1.661 1.365,-2.401 1.365,-2.401 0,0 0.189,-0.534 -0.414,-1.012 -0.603,-0.477 -1.916,-1.296 -1.736,-1.96 0.18,-0.667 0.483,-1.209 1.428,-0.756 0.941,0.455 3.047,2.781 3.047,2.781 0,0 0.768,1.947 0.437,3.706 C 4.411,-0.446 3.212,0.292 3.212,0.292 3.212,0.292 0.79,1.506 0,0" />
      </g>
      <g
         transform="matrix(0.35277777,0,0,-0.35277777,51.166205,144.76341)"
         id="g2934">
        <path
           inkscape:connector-curvature="0"
           id="path2936"
           style="fill:#253133;fill-opacity:1;fill-rule:nonzero;stroke:none"
           d="m 0,0 c -2.944,0.732 -3.332,2.816 -3.332,2.816 0,0 -0.549,0.221 -0.181,2.251 0.69,3.786 3.282,17.374 4.893,21.877 1.768,4.947 8.797,17.629 8.797,17.629 0,0 5.17,10.584 12.453,7.364 C 27.028,49.994 22.183,44.485 20.681,40.551 19.505,37.456 14.122,27.203 12.271,22.606 10.112,17.24 5.171,0.587 5.171,0.587 5.171,0.587 2.954,-0.734 0,0" />
      </g>
      <g
         transform="matrix(0.35277777,0,0,-0.35277777,63.344261,117.37318)"
         id="g2938">
        <path
           inkscape:connector-curvature="0"
           id="path2940"
           style="fill:#ffe1cc;fill-opacity:1;fill-rule:nonzero;stroke:none"
           d="M 0,0 7.098,-0.868 4.127,-19.131 C 3.379,-24.381 1.09,-25 -0.51,-24.882 c -3.32,0.245 -6.851,2.417 -8.619,3.667 -3.418,2.422 -2.838,8.583 -2.826,9.086 L -12.1,0.246 Z" />
      </g>
      <g
         transform="matrix(0.35277777,0,0,-0.35277777,58.474975,126.31267)"
         id="g2942">
        <path
           inkscape:connector-curvature="0"
           id="path2944"
           style="fill:#ffe1cc;fill-opacity:1;fill-rule:nonzero;stroke:none"
           d="M 0,0 1.986,11.433 11.6,9.197 10.355,-1.905 c 0,-1.579 1.115,-2.014 1.955,-3.353 z" />
      </g>
      <g
         transform="matrix(0.35277777,0,0,-0.35277777,61.869765,142.33305)"
         id="g2946">
        <path
           inkscape:connector-curvature="0"
           id="path2948"
           style="fill:#253133;fill-opacity:1;fill-rule:nonzero;stroke:none"
           d="m 0,0 c 0,0 7.984,-30.606 8.723,-33.806 1.615,-7 5.326,-31.236 5.326,-31.236 0,0 0.285,-4.64 -6.076,-6.045 -3.56,-0.788 -7.475,1.81 -7.619,2.819 -3.2,22.4 -4.43,26.831 -5.417,29.294 -1.66,4.148 -7.017,14.344 -10.089,21.414 -2.463,5.663 -2.465,12.231 -2.465,12.231 z" />
      </g>
      <g
         transform="matrix(0.35277777,0,0,-0.35277777,53.552641,169.2687)"
         id="g2950">
        <path
           inkscape:connector-curvature="0"
           id="path2952"
           style="fill:#231f20;fill-opacity:1;fill-rule:nonzero;stroke:none"
           d="m 0,0 c 0,0 -2.84,-1.84 -4.293,-6.669 -0.601,-1.99 0.189,-3.303 0.189,-3.303 0,0 1.687,-0.626 3.175,-1.28 0.286,-0.128 0.646,-0.78 0.885,-1.011 2.79,-2.675 4.2,-3.479 4.616,-3.712 2.139,-1.201 4.885,-1.492 6.555,-1.201 1.668,0.292 6.379,3.056 6.379,3.056 0,0 0.558,2.24 -1.25,3.112 -1.809,0.875 -5.006,0.438 -5.006,0.438 0,0 -3.98,3.728 -5.371,5.185 C 4.485,-3.93 0,0 0,0" />
      </g>
      <g
         transform="matrix(0.35277777,0,0,-0.35277777,63.703618,147.01064)"
         id="g2954">
        <path
           inkscape:connector-curvature="0"
           id="path2956"
           style="fill:#49595b;fill-opacity:1;fill-rule:nonzero;stroke:none"
           d="m 0,0 c -1.624,-10.857 -6.843,-36.259 -8.29,-40.239 -3.123,-8.581 -10.866,-30.344 -11.309,-31.008 -0.13,-0.196 -0.816,-1.28 -5.851,3.822 -1.573,1.591 -4.637,3.566 -6.402,2.192 0,0 6.628,22.621 9.426,31.011 4.291,12.87 4.486,40.072 4.486,40.072 z" />
      </g>
      <g
         transform="matrix(0.35277777,0,0,-0.35277777,64.436355,129.87767)"
         id="g2958">
        <path
           inkscape:connector-curvature="0"
           id="path2960"
           style="fill:#323f42;fill-opacity:1;fill-rule:nonzero;stroke:none"
           d="M 0,0 C 2.121,-2.19 4.752,-8.962 4.359,-16.651 3.578,-31.862 0.652,-49.803 0.652,-49.803 c 0,-1.338 -1.755,-3.704 -5.849,-4.678 -2.121,-0.506 -4.435,-1.409 -9.362,0 -6.824,1.95 -11.504,7.518 -11.504,10.334 0,0 0.768,9.046 -0.587,34.518 -0.975,18.33 9.007,20.481 9.007,20.481 l 9.159,-3.201 z" />
      </g>
      <g
         transform="matrix(0.35277777,0,0,-0.35277777,72.239156,145.66568)"
         id="g2962">
        <path
           inkscape:connector-curvature="0"
           id="path2964"
           style="fill:#ffe8d9;fill-opacity:1;fill-rule:nonzero;stroke:none"
           d="m 0,0 3.079,-4.32 c 0,0 2.359,-4.159 -0.321,-6.199 -1.356,-1.033 -2.695,-1.556 -2.695,-1.556 0,0 -0.876,-0.317 -1.513,-0.029 -0.355,0.163 -0.594,0.955 -0.429,1.501 0.159,0.524 -0.12,1.526 -0.621,2.154 -2.696,3.387 -3.099,4.791 -3.099,4.791 z" />
      </g>
      <g
         transform="matrix(0.35277777,0,0,-0.35277777,71.589763,147.21786)"
         id="g2966">
        <path
           inkscape:connector-curvature="0"
           id="path2968"
           style="fill:#49595b;fill-opacity:1;fill-rule:nonzero;stroke:none"
           d="m 0,0 c -3.082,-2.437 -4.934,-0.975 -4.934,-0.975 0,0 -11.167,10.421 -15.341,17.683 -2.619,4.552 -6.666,16.616 -6.666,16.616 0,0 -4.012,12.263 1.034,15.07 4.203,2.337 7.283,-1.998 8.755,-5.945 1.969,-5.285 4.11,-14.762 6.499,-19.761 C -7.928,16.981 2.439,3.96 2.439,3.96 2.439,3.96 2.479,1.961 0,0" />
      </g>
      <g
         transform="matrix(0.35277777,0,0,-0.35277777,54.877595,173.42816)"
         id="g2970">
        <path
           inkscape:connector-curvature="0"
           id="path2972"
           style="fill:#383736;fill-opacity:1;fill-rule:nonzero;stroke:none"
           d="m 0,0 c 0.152,-0.144 3.014,-3.692 3.635,-4.184 1.364,-1.091 2.367,-1.189 3.021,-1.201 -0.888,-0.196 -3.324,-0.194 -5.472,0.873 -2.583,1.283 -4.817,4.14 -4.955,4.149 -0.221,0.013 2.869,-1.094 2.869,-1.094 z" />
      </g>
      <g
         transform="matrix(0.35277777,0,0,-0.35277777,53.730388,172.62269)"
         id="g2974">
        <path
           inkscape:connector-curvature="0"
           id="path2976"
           style="fill:#4c4b4b;fill-opacity:1;fill-rule:nonzero;stroke:none"
           d="m 0,0 c 1.104,-1.462 2.006,-2.893 2.139,-3.437 l -6.675,2.975 c 0,0 -0.331,0.464 -0.444,1.063 C -5.406,2.867 -1.234,1.637 0,0" />
      </g>
      <g
         transform="matrix(0.35277777,0,0,-0.35277777,58.839465,125.11429)"
         id="g2978">
        <path
           inkscape:connector-curvature="0"
           id="path2980"
           style="fill:#f5f5f5;fill-opacity:1;fill-rule:nonzero;stroke:none"
           d="M 0,0 C -1.286,0.304 -1.612,0.085 -1.861,-0.704 -2.107,-1.479 -2.1,-1.528 -2.4,-2.278 c -0.248,-0.62 0.043,-0.663 0.043,-0.663 0,0 6.461,-1.78 11.265,-5.053 3.414,-2.327 3.676,-2.548 3.676,-2.548 l -0.797,2.621 c -0.622,2.238 -3.209,4.443 -7.062,6.14 0,0 -3.149,1.409 -4.725,1.781" />
      </g>
      <g
         transform="matrix(0.35277777,0,0,-0.35277777,59.232874,115.85232)"
         id="g2982">
        <path
           inkscape:connector-curvature="0"
           id="path2984"
           style="fill:#84460f;fill-opacity:1;fill-rule:nonzero;stroke:none"
           d="m 0,0 c 0.175,0.329 0.498,0.833 0.975,1.133 0.619,0.387 1.267,0.375 1.267,0.375 0,0 -0.187,-0.046 -0.845,-0.424 C 1.08,0.906 0.932,0.64 0.855,0.409 c 2.101,0.893 4.752,1.214 8.007,0.724 0.394,-0.061 2.583,-0.611 4.365,-0.52 0.108,0.008 -0.712,-0.248 -0.608,-0.797 0.051,-0.267 0.939,-0.233 1.502,-0.233 0.43,0 2.349,-0.376 2.77,-1.173 0.021,-0.044 -0.94,-0.189 -0.374,-0.659 0.856,-0.714 1.736,-1.456 2.581,-2.676 0.657,-0.948 1.127,-2.817 1.127,-2.817 -0.252,-0.502 -1.636,0.066 -2.223,-0.52 -0.307,-0.307 -1.256,-1.341 -1.845,-2.848 -0.589,-1.518 -0.96,-2.956 -1.358,-4.994 L 14.4,-18.017 c -0.029,-0.708 -1.046,1.407 -1.517,2.036 -0.475,0.634 -1.418,0.247 -4.144,-2.124 -1.173,-1.022 -6.104,-5.039 -6.104,-5.039 -1.363,-0.829 -2.559,-1.308 -3.733,0.476 -0.385,0.588 -3.158,5.573 -3.65,7.363 C -6.417,-9.216 -5.086,-2.749 0,0" />
      </g>
      <g
         transform="matrix(0.35277777,0,0,-0.35277777,63.754577,121.40808)"
         id="g2986">
        <path
           inkscape:connector-curvature="0"
           id="path2988"
           style="fill:#efcfbd;fill-opacity:1;fill-rule:nonzero;stroke:none"
           d="m 0,0 c 0,0 -1.507,-0.18 -2.072,-1.889 -0.395,-1.209 -0.005,-2.244 0.222,-2.551 0.601,-0.821 1.261,-1.018 1.261,-1.018 0,0 0.086,2.928 0.135,3.467 C -0.407,-1.457 0,0 0,0" />
      </g>
      <g
         transform="matrix(0.35277777,0,0,-0.35277777,64.012625,121.19327)"
         id="g2990">
        <path
           inkscape:connector-curvature="0"
           id="path2992"
           style="fill:#ffe8d9;fill-opacity:1;fill-rule:nonzero;stroke:none"
           d="m 0,0 c 0,0 0.86,0.013 0.207,-1.192 -0.652,-1.205 -0.824,-1.941 -0.873,-2.631 -0.042,-0.632 0.041,-2.535 0.041,-2.535 0,0 -0.565,-0.762 -1.046,0.413 -0.229,0.559 -0.352,1.612 -0.274,2.961 C -1.912,-2.439 -0.92,0.31 0,0" />
      </g>
    </g>
  </g>
</svg>
