<?xml version="1.0" encoding="UTF-8" standalone="no"?>
<!-- Created with Inkscape (http://www.inkscape.org/) -->

<svg
   xmlns:dc="http://purl.org/dc/elements/1.1/"
   xmlns:cc="http://creativecommons.org/ns#"
   xmlns:rdf="http://www.w3.org/1999/02/22-rdf-syntax-ns#"
   xmlns:svg="http://www.w3.org/2000/svg"
   xmlns="http://www.w3.org/2000/svg"
   xmlns:sodipodi="http://sodipodi.sourceforge.net/DTD/sodipodi-0.dtd"
   xmlns:inkscape="http://www.inkscape.org/namespaces/inkscape"
   width="2.1343257mm"
   height="5.505547mm"
   viewBox="0 0 2.1343258 5.505547"
   version="1.1"
   id="svg164651"
   inkscape:version="0.92.2 (5c3e80d, 2017-08-06)"
   sodipodi:docname="people-business-09.svg">
  <defs
     id="defs164645">
    <clipPath
       id="clipPath1744"
       clipPathUnits="userSpaceOnUse">
      <path
         inkscape:connector-curvature="0"
         id="path1742"
         d="m 1130.22,1882.11 h 55.19 v -29.08 h -55.19 z" />
    </clipPath>
  </defs>
  <sodipodi:namedview
     id="base"
     pagecolor="#ffffff"
     bordercolor="#666666"
     borderopacity="1.0"
     inkscape:pageopacity="0.0"
     inkscape:pageshadow="2"
     inkscape:zoom="0.35"
     inkscape:cx="-691.68091"
     inkscape:cy="-166.73868"
     inkscape:document-units="mm"
     inkscape:current-layer="layer1"
     showgrid="false"
     fit-margin-top="0"
     fit-margin-left="0"
     fit-margin-right="0"
     fit-margin-bottom="0"
     inkscape:window-width="1360"
     inkscape:window-height="706"
     inkscape:window-x="-8"
     inkscape:window-y="-8"
     inkscape:window-maximized="1" />
  <metadata
     id="metadata164648">
    <rdf:RDF>
      <cc:Work
         rdf:about="">
        <dc:format>image/svg+xml</dc:format>
        <dc:type
           rdf:resource="http://purl.org/dc/dcmitype/StillImage" />
        <dc:title></dc:title>
      </cc:Work>
    </rdf:RDF>
  </metadata>
  <g
     inkscape:label="Layer 1"
     inkscape:groupmode="layer"
     id="layer1"
     transform="translate(-105.52212,-99.211512)">
    <g
       id="g5258"
       transform="matrix(0.1,0,0,0.086,95.930356,93.195357)">
      <g
         transform="matrix(0.35277777,0,0,-0.35277777,-302.80017,787.68219)"
         id="g1738">
        <g
           id="g1740" />
        <g
           id="g1752">
          <g
             style="opacity:0.27000403"
             id="g1750"
             clip-path="url(#clipPath1744)">
            <g
               id="g1748"
               transform="translate(1134.3066,1865.7783)">
              <path
                 inkscape:connector-curvature="0"
                 id="path1746"
                 style="fill:#231f20;fill-opacity:1;fill-rule:nonzero;stroke:none"
                 d="m 0,0 c 10.823,4.108 12.123,4.918 10.241,9.252 -2.207,5.086 5.346,7.075 16.941,7.075 20.673,0 23.919,-9.141 23.919,-15.075 0,-8.947 -5.779,-13.216 -26.445,-13.936 C 15.778,-12.996 0.559,-12.177 -2.5,-8.754 -5.884,-4.969 -3.271,-1.24 0,0" />
            </g>
          </g>
        </g>
      </g>
      <g
         transform="matrix(0.35277777,0,0,-0.35277777,102.26932,104.14478)"
         id="g1754">
        <path
           inkscape:connector-curvature="0"
           id="path1756"
           style="fill:#ffe8d9;fill-opacity:1;fill-rule:nonzero;stroke:none"
           d="m 0,0 -0.807,1.461 -6.065,2.164 -3.988,-4.131 c 0,0 -3.732,-3.768 -2.774,-6.955 1.745,-5.832 5.365,-3.292 5.365,-3.292 0.16,0.173 1.682,2.709 2.461,3.232 0.389,0.255 3.538,2.872 3.538,2.872 C -0.338,-3.057 0.529,-1.899 0,0" />
      </g>
      <g
         transform="matrix(0.35277777,0,0,-0.35277777,104.26057,127.12529)"
         id="g1758">
        <path
           inkscape:connector-curvature="0"
           id="path1760"
           style="fill:#545454;fill-opacity:1;fill-rule:nonzero;stroke:none"
           d="m 0,0 c 0,0 -1.009,-1.619 -3.501,-2.142 -1.539,-0.323 -6.612,-0.957 -6.612,-0.957 -2.521,-0.308 -5.574,-1.106 -6.055,-3.586 0,0 -0.168,-1.245 -0.088,-1.647 0.324,-1.389 1.66,-1.927 3.302,-2.521 0,0 2.967,-1.054 5.518,-1.525 3.289,-0.603 5.109,-0.514 7.482,-0.149 0,0 2.985,0.517 4.2,0.517 1.336,0.006 1.109,-0.971 1.265,-2.232 l 4.164,-0.553 c 3.012,-0.372 6.683,2.404 6.566,3.373 l 0.011,2.234 -0.121,4.086 z" />
      </g>
      <g
         transform="matrix(0.35277777,0,0,-0.35277777,105.23244,131.29159)"
         id="g1762">
        <path
           inkscape:connector-curvature="0"
           id="path1764"
           style="fill:#383736;fill-opacity:1;fill-rule:nonzero;stroke:none"
           d="m 0,0 c -1.147,-0.119 -4.465,-0.717 -7.855,-0.328 -3.204,0.373 -8.348,2.249 -8.348,2.249 -1.453,0.516 -2.685,1.403 -2.785,2.237 -0.023,-0.322 -0.041,-0.645 0,-0.82 0.318,-1.387 1.656,-1.934 3.299,-2.518 0,0 2.969,-1.056 5.507,-1.531 3.299,-0.601 5.114,-0.502 7.491,-0.144 0,0 3.439,0.492 3.56,0.506 0.787,0.124 1.575,-0.087 1.587,-0.234 C 2.427,-0.512 2.111,0.21 0,0" />
      </g>
      <g
         transform="matrix(0.35277777,0,0,-0.35277777,107.6316,131.95461)"
         id="g1766">
        <path
           inkscape:connector-curvature="0"
           id="path1768"
           style="fill:#383736;fill-opacity:1;fill-rule:nonzero;stroke:none"
           d="m 0,0 -4.221,1.102 c 0.045,-0.415 -0.011,-1.38 0.009,-1.715 0,0 1.878,-0.668 3.015,-0.849 C 4.698,-2.4 6.709,1.196 6.686,1.977 L 6.688,4.032 C 6.688,3.429 4.264,-0.548 0,0" />
      </g>
      <g
         transform="matrix(0.35277777,0,0,-0.35277777,107.44076,123.83761)"
         id="g1770">
        <path
           inkscape:connector-curvature="0"
           id="path1772"
           style="fill:#545454;fill-opacity:1;fill-rule:nonzero;stroke:none"
           d="m 0,0 c 0,0 -0.34,-2.473 -2.733,-2.688 -1.483,-0.129 -3.619,-0.186 -3.619,-0.186 -2.529,0.473 -5.695,0.421 -6.279,-1.464 0,0 -0.265,-0.731 -0.223,-1.137 0.133,-1.386 -0.367,-0.224 1.537,-1.921 0,0 3.598,-2.719 5.825,-3.768 2.799,-1.321 4.239,-1.367 5.145,-1.275 0,0 1.81,0.358 2.947,0.22 1.25,-0.153 0.921,-1.736 0.921,-2.98 l 3.861,-1.597 c 3.931,-1.051 7.012,2.359 7.012,3.322 v 9.94 z" />
      </g>
      <g
         transform="matrix(0.35277777,0,0,-0.35277777,107.86968,128.01637)"
         id="g1774">
        <path
           inkscape:connector-curvature="0"
           id="path1776"
           style="fill:#383736;fill-opacity:1;fill-rule:nonzero;stroke:none"
           d="m 0,0 c -1.085,0.016 -2.345,0.206 -5.58,1.106 -2.705,0.748 -6.683,3.534 -6.683,3.534 -0.949,0.706 -1.725,1.571 -1.715,2.397 -0.063,-0.313 -0.085,-0.631 -0.092,-0.8 -0.094,-1.27 1.012,-1.967 1.926,-2.602 0,0 3.1,-2.33 5.436,-3.092 3.012,-0.995 3.473,-0.896 4.836,-0.948 0,0 1.713,-0.077 2.858,-0.127 C 1.484,-0.559 2.205,-0.855 2.205,-0.998 2.178,-0.927 2.01,-0.046 0,0" />
      </g>
      <g
         transform="matrix(0.35277777,0,0,-0.35277777,110.04489,129.37305)"
         id="g1778">
        <path
           inkscape:connector-curvature="0"
           id="path1780"
           style="fill:#383736;fill-opacity:1;fill-rule:nonzero;stroke:none"
           d="M 0,0 -3.819,1.583 C -3.832,1.178 -3.861,0.748 -3.861,0.354 L 0,-1.25 C 3.932,-2.289 7.012,1.12 7.012,2.079 V 3.323 C 7.012,2.362 3.932,-1.041 0,0" />
      </g>
      <g
         transform="matrix(0.35277777,0,0,-0.35277777,112.02067,105.75087)"
         id="g1782">
        <path
           inkscape:connector-curvature="0"
           id="path1784"
           style="fill:#ffe8d9;fill-opacity:1;fill-rule:nonzero;stroke:none"
           d="m 0,0 c -0.079,-1.724 -2.467,-2.749 -4.038,-2.662 -0.55,0.026 -1.039,-3.199 -1.901,-4.373 -0.91,-1.235 -2.182,-0.405 -2.377,-0.021 -0.151,0.313 1.528,4.977 1.905,6.166 1.263,3.964 2.89,4.031 4.458,3.948 C -0.376,2.986 0.091,1.732 0,0" />
      </g>
      <g
         transform="matrix(0.35277777,0,0,-0.35277777,111.92627,104.49668)"
         id="g1786">
        <path
           inkscape:connector-curvature="0"
           id="path1788"
           style="fill:#2761e2;fill-opacity:1;fill-rule:nonzero;stroke:none"
           d="m 0,0 c 1.775,-0.017 5.194,3.369 5.194,3.369 0,0 0.072,0.435 0.207,1.198 0.717,4.317 10.099,18.174 9.709,23.599 -0.284,4.028 -6.028,22.439 -6.028,22.439 0,0 -2.759,13.581 -11.791,13.207 -5.459,-0.221 -2.632,-8.071 -2.685,-12.854 -0.04,-3.768 1.896,-22.896 1.896,-22.896 L -4.713,4.552 C -4.713,4.552 -3.457,0.03 0,0" />
      </g>
      <g
         transform="matrix(0.35277777,0,0,-0.35277777,112.76963,104.75851)"
         id="g1790">
        <path
           inkscape:connector-curvature="0"
           id="path1792"
           style="fill:#ffe8d9;fill-opacity:1;fill-rule:nonzero;stroke:none"
           d="m 0,0 -4.534,0.265 -1.976,-5.285 -0.048,-0.886 0.35,-7.065 c 0,0 -0.105,-3.412 3.509,-3.633 2.359,-0.142 0.256,-0.014 0.256,-0.014 3.23,-0.2 3.704,3.272 3.704,3.272 l 1.277,9.038 C 2.705,-2.388 2.077,-0.133 0,0" />
      </g>
      <g
         transform="matrix(0.35277777,0,0,-0.35277777,109.93708,104.7208)"
         id="g1794">
        <path
           inkscape:connector-curvature="0"
           id="path1796"
           style="fill:#e4eff4;fill-opacity:1;fill-rule:nonzero;stroke:none"
           d="m 0,0 c -0.013,-0.789 1.729,-2.361 4.05,-2.596 3.022,-0.312 4.442,0.251 4.442,0.251 1.407,0.476 2.178,1.018 2.299,2.007 0,0 0.465,3.641 0.554,4.792 0.055,0.744 -0.305,0.748 -0.305,0.748 0,0 -0.066,-0.578 -0.194,-0.787 C 10.385,3.64 9.082,2.602 6.114,2.534 1.451,2.428 0.926,5.188 0.926,5.188 0.245,5.198 0.025,4.896 0.05,4.107 Z" />
      </g>
      <g
         transform="matrix(0.35277777,0,0,-0.35277777,113.26022,104.79693)"
         id="g1798">
        <path
           inkscape:connector-curvature="0"
           id="path1800"
           style="fill:#e8c5ac;fill-opacity:1;fill-rule:nonzero;stroke:none"
           d="m 0,0 c 0,0 2.123,9.965 -10.199,9.965 -9.761,0 -9.761,-10.379 -9.761,-10.379 l 4.938,-59.74 h 12.18 z" />
      </g>
      <g
         transform="matrix(0.35277777,0,0,-0.35277777,104.71187,71.838033)"
         id="g1802">
        <path
           inkscape:connector-curvature="0"
           id="path1804"
           style="fill:#ffe1cc;fill-opacity:1;fill-rule:nonzero;stroke:none"
           d="m 0,0 -8.366,-1.029 3.498,-21.564 c 0.886,-6.198 3.578,-6.928 5.463,-6.786 3.922,0.287 8.082,2.852 10.165,4.328 4.031,2.857 3.346,10.134 3.333,10.728 l 0.174,14.605 z" />
      </g>
      <g
         transform="matrix(0.35277777,0,0,-0.35277777,110.30501,82.151634)"
         id="g1806">
        <path
           inkscape:connector-curvature="0"
           id="path1808"
           style="fill:#ffe1cc;fill-opacity:1;fill-rule:nonzero;stroke:none"
           d="m 0,0 -2.251,13.003 -10.921,-2.545 1.418,-12.624 c 0,-1.797 -6.824,-17.315 -6.824,-22.906 l 20.621,6.641 C 2.043,-16.053 0,0 0,0" />
      </g>
      <g
         transform="matrix(0.35277777,0,0,-0.35277777,105.08777,99.268404)"
         id="g1810">
        <path
           inkscape:connector-curvature="0"
           id="path1812"
           style="fill:#14546d;fill-opacity:1;fill-rule:nonzero;stroke:none"
           d="m 0,0 v -5.706 c 0,-4.255 1.014,-11.455 1.014,-11.455 l 19.489,-0.742 c 2.46,0.491 3.39,3.849 3.39,7.235 V 0 Z" />
      </g>
      <g
         transform="matrix(0.35277777,0,0,-0.35277777,113.26022,104.79693)"
         id="g1814">
        <path
           inkscape:connector-curvature="0"
           id="path1816"
           style="fill:#ffe1cc;fill-opacity:1;fill-rule:nonzero;stroke:none"
           d="m 0,0 c 0,0 -0.807,6.925 -9.403,6.925 -1.15,0 0,0.01 -3.388,0 -8.221,-0.026 -9.361,-8.414 -9.361,-8.414 l 5.111,-58.431 13.048,-0.234 z" />
      </g>
      <g
         transform="matrix(0.35277777,0,0,-0.35277777,101.29883,71.585023)"
         id="g1818">
        <path
           inkscape:connector-curvature="0"
           id="path1820"
           style="fill:#492606;fill-opacity:1;fill-rule:nonzero;stroke:none"
           d="m 0,0 c 0.104,-4.204 0.967,-6.796 2.577,-7.339 1.826,-0.602 2.921,-4.899 3.394,-7.307 l 0.465,-2.258 c 0.036,-0.836 1.233,-1.971 1.744,-0.703 0.565,1.41 -0.511,2.362 0.043,3.105 0.56,0.746 2.262,1.131 4.232,-3.39 l 1.131,-3.534 c 1.837,-3.959 5.22,-3.959 7.621,-3.247 0,0 2.392,0.845 3.524,2.114 0.553,0.62 3.702,6.751 4.281,8.855 1.185,4.332 0.194,9.811 -2.04,13.412 -0.98,1.593 -3.48,2.703 -3.175,3.959 C 23.914,4.102 13.421,6.171 6.029,2.371 1.832,0.215 0,0 0,0" />
      </g>
      <g
         transform="matrix(0.35277777,0,0,-0.35277777,105.47499,103.04976)"
         id="g1822">
        <path
           inkscape:connector-curvature="0"
           id="path1824"
           style="fill:#282827;fill-opacity:1;fill-rule:nonzero;stroke:none"
           d="m 0,0 0.52,-68.302 c 0,0 4.455,-4.144 11.856,-4.144 4.136,0 8.179,2.668 8.29,3.825 l 2.457,69.829 z" />
      </g>
      <g
         transform="matrix(0.35277777,0,0,-0.35277777,103.50268,105.51229)"
         id="g1826">
        <path
           inkscape:connector-curvature="0"
           id="path1828"
           style="fill:#383736;fill-opacity:1;fill-rule:nonzero;stroke:none"
           d="m 0,0 1.202,-60.545 c -0.038,0.037 -0.14,-1.485 -0.777,-1.838 -0.635,-0.348 -0.604,-1.618 -0.284,-2.473 0.426,-1.126 4.378,-7.42 12.699,-6.991 2.535,0.13 5.523,1.101 5.644,2.188 l 4.155,69.644 z" />
      </g>
      <g
         transform="matrix(0.35277777,0,0,-0.35277777,103.53575,86.205643)"
         id="g1830">
        <path
           inkscape:connector-curvature="0"
           id="path1832"
           style="fill:#376af7;fill-opacity:1;fill-rule:nonzero;stroke:none"
           d="m 0,0 c -2.402,-2.488 -3.331,-5.253 -3.331,-14.005 l 0.825,-39.862 c 0,-1.52 -0.126,-6.058 4.812,-6.622 2.459,-0.276 7.035,-1.827 12.56,0.016 2.256,0.752 14.104,6.211 14.104,9.418 l 0.086,44.981 C 28.689,9.141 20.032,12.337 20.032,12.337 L 9.634,8.702 Z" />
      </g>
      <g
         transform="matrix(0.35277777,0,0,-0.35277777,109.88882,80.787724)"
         id="g1834">
        <path
           inkscape:connector-curvature="0"
           id="path1836"
           style="fill:#e4eff4;fill-opacity:1;fill-rule:nonzero;stroke:none"
           d="M 0,0 C 1.467,0.348 1.834,0.092 2.122,-0.808 2.399,-1.685 2.392,-1.741 2.73,-2.59 3.014,-3.303 2.688,-3.35 2.688,-3.35 c 0,0 -7.337,-2.023 -12.793,-5.739 -3.876,-2.648 -4.174,-2.902 -4.174,-2.902 l 0.906,2.983 c 0.706,2.54 3.645,5.055 8.018,6.98 0,0 3.572,1.603 5.355,2.028" />
      </g>
      <g
         transform="matrix(0.35277777,0,0,-0.35277777,104.24748,75.852113)"
         id="g1838">
        <path
           inkscape:connector-curvature="0"
           id="path1840"
           style="fill:#efcfbd;fill-opacity:1;fill-rule:nonzero;stroke:none"
           d="M 0,0 C 0,0 1.779,-0.209 2.444,-2.228 2.916,-3.652 2.456,-4.88 2.189,-5.239 1.476,-6.207 0.698,-6.442 0.698,-6.442 c 0,0 -0.095,3.456 -0.16,4.091 C 0.477,-1.717 0,0 0,0" />
      </g>
      <g
         transform="matrix(0.35277777,0,0,-0.35277777,103.94434,75.597693)"
         id="g1842">
        <path
           inkscape:connector-curvature="0"
           id="path1844"
           style="fill:#ffe8d9;fill-opacity:1;fill-rule:nonzero;stroke:none"
           d="m 0,0 c 0,0 -1.017,0.011 -0.245,-1.407 0.766,-1.425 0.974,-2.29 1.029,-3.104 0.05,-0.752 -0.047,-2.996 -0.047,-2.996 0,0 0.666,-0.901 1.236,0.486 0.265,0.662 0.41,1.907 0.317,3.5 C 2.258,-2.882 1.082,0.363 0,0" />
      </g>
      <g
         transform="matrix(0.35277777,0,0,-0.35277777,100.29045,104.74076)"
         id="g1846">
        <path
           inkscape:connector-curvature="0"
           id="path1848"
           style="fill:#5387f9;fill-opacity:1;fill-rule:nonzero;stroke:none"
           d="m 0,0 c 2.569,-1.977 4.636,-2.212 4.636,-2.212 0,0 12.119,11.859 13.716,13.499 2.313,2.365 2.868,3.86 3.627,7 1.402,5.811 -0.575,21.544 -0.575,21.544 0,0 -0.705,10.841 -7.905,12.599 C 8.185,53.73 4.564,48.399 5.52,43.707 6.398,39.329 8.796,29.087 9.718,23.638 10.056,21.622 9.485,19.536 8.115,18.021 L -1.64,5.803 c 0,0 -1.262,-0.84 -0.964,-2.607 C -2.436,2.244 -0.97,0.738 0,0" />
      </g>
    </g>
  </g>
</svg>
