<?xml version="1.0" encoding="UTF-8" standalone="no"?>
<!-- Created with Inkscape (http://www.inkscape.org/) -->

<svg
   xmlns:dc="http://purl.org/dc/elements/1.1/"
   xmlns:cc="http://creativecommons.org/ns#"
   xmlns:rdf="http://www.w3.org/1999/02/22-rdf-syntax-ns#"
   xmlns:svg="http://www.w3.org/2000/svg"
   xmlns="http://www.w3.org/2000/svg"
   xmlns:sodipodi="http://sodipodi.sourceforge.net/DTD/sodipodi-0.dtd"
   xmlns:inkscape="http://www.inkscape.org/namespaces/inkscape"
   width="2.807059mm"
   height="5.6386576mm"
   viewBox="0 0 2.8070591 5.6386576"
   version="1.1"
   id="svg113590"
   inkscape:version="0.92.2 (5c3e80d, 2017-08-06)"
   sodipodi:docname="people-dancing-2.svg">
  <defs
     id="defs113584">
    <clipPath
       id="clipPath6938"
       clipPathUnits="userSpaceOnUse">
      <path
         inkscape:connector-curvature="0"
         id="path6936"
         d="m 332.31,670.939 h 80.557 V 627.742 H 332.31 Z" />
    </clipPath>
    <clipPath
       id="clipPath19962"
       clipPathUnits="userSpaceOnUse">
      <path
         inkscape:connector-curvature="0"
         id="path19960"
         d="m 509.182,647.722 h 56.485 v -19.98 h -56.485 z" />
    </clipPath>
  </defs>
  <sodipodi:namedview
     id="base"
     pagecolor="#ffffff"
     bordercolor="#666666"
     borderopacity="1.0"
     inkscape:pageopacity="0.0"
     inkscape:pageshadow="2"
     inkscape:zoom="0.35"
     inkscape:cx="322.07197"
     inkscape:cy="676.68202"
     inkscape:document-units="mm"
     inkscape:current-layer="layer1"
     showgrid="false"
     inkscape:window-width="1360"
     inkscape:window-height="706"
     inkscape:window-x="-8"
     inkscape:window-y="-8"
     inkscape:window-maximized="1"
     fit-margin-top="0"
     fit-margin-left="0"
     fit-margin-right="0"
     fit-margin-bottom="0" />
  <metadata
     id="metadata113587">
    <rdf:RDF>
      <cc:Work
         rdf:about="">
        <dc:format>image/svg+xml</dc:format>
        <dc:type
           rdf:resource="http://purl.org/dc/dcmitype/StillImage" />
        <dc:title></dc:title>
      </cc:Work>
    </rdf:RDF>
  </metadata>
  <g
     inkscape:label="Layer 1"
     inkscape:groupmode="layer"
     id="layer1"
     transform="translate(162.7,-322.23346)">
    <g
       id="g35634"
       transform="matrix(0.1,0,0,0.086,-145.16682,297.09825)">
      <g
         transform="matrix(0.35277777,0,0,-0.35277777,-166.63628,296.89806)"
         id="g19936">
        <path
           inkscape:connector-curvature="0"
           id="path19938"
           style="fill:#051830;fill-opacity:1;fill-rule:nonzero;stroke:none"
           d="m 0,0 c 0,0 0.432,0.654 -0.165,1.088 -0.604,0.439 -2.289,0.385 -2.944,0.275 -0.657,-0.109 -2.399,-0.601 -2.18,-1.42 0.217,-0.816 0.761,-2.234 2.125,-2.07 C -1.802,-1.965 0,0 0,0" />
      </g>
      <g
         transform="matrix(0.35277777,0,0,-0.35277777,-167.99315,298.1769)"
         id="g19940">
        <path
           inkscape:connector-curvature="0"
           id="path19942"
           style="fill:#f2ceb6;fill-opacity:1;fill-rule:nonzero;stroke:none"
           d="m 0,0 c 0,0 -1.167,5.236 -1.387,6.895 -0.221,1.638 -0.941,0.865 -1.094,4.691 -0.108,2.725 2.183,1.965 2.183,1.965 0,0 1.528,4.252 3.488,2.943 C 4.882,15.369 6.898,13.766 6.463,12.129 6.122,10.854 4.199,8.359 3.846,7.004 3.336,5.066 4.249,2.836 4.249,2.836 Z" />
      </g>
      <g
         transform="matrix(0.35277777,0,0,-0.35277777,-161.18823,312.04752)"
         id="g19944">
        <path
           inkscape:connector-curvature="0"
           id="path19946"
           style="fill:#08b79e;fill-opacity:1;fill-rule:nonzero;stroke:none"
           d="m 0,0 c -4.642,9.285 -6.911,14.52 -9.106,21.068 -4.259,12.731 -6.203,22.086 -6.203,22.086 0,0 -0.84,-1.197 -2.095,-1.381 -2.786,-0.408 -3.328,1.114 -3.328,1.114 0,0 2.763,-15.53 6.994,-29.699 3.71,-12.444 6.311,-21.358 6.311,-21.358 z" />
      </g>
      <g
         transform="matrix(0.35277777,0,0,-0.35277777,-159.63311,310.8383)"
         id="g19948">
        <path
           inkscape:connector-curvature="0"
           id="path19950"
           style="fill:#722807;fill-opacity:1;fill-rule:nonzero;stroke:none"
           d="m 0,0 c 0,0 -3.634,-2.596 -5.064,-1.426 -1.428,1.168 -1.817,2.725 -3.765,2.336 -1.948,-0.389 -6.361,-0.521 -4.285,3.117 1.063,1.86 -1.298,1.299 -4.414,4.153 -3.118,2.857 -1.559,6.492 0.388,7.142 1.95,0.649 0.456,6.27 0.91,8.309 0.465,2.092 2.12,6.654 6.623,6.492 3.635,-0.129 3.504,-0.129 4.152,1.557 0.65,1.687 3.247,1.818 4.675,1.039 1.429,-0.778 3.768,-0.131 4.416,0.39 0.647,0.52 5.843,1.819 6.752,-2.205 0.907,-4.027 3.037,-4.443 5.063,-4.547 2.597,-0.128 2.986,-3.763 1.559,-7.271 C 16.479,17.791 14.384,14.611 16.62,13.633 18.694,12.725 18.568,8.701 15.969,8.57 13.373,8.441 14.835,6.529 14.673,5.715 14.41,4.416 14.284,3.117 11.556,2.598 10.791,2.455 7.14,1.559 7.14,1.559 c 0,0 -4.026,-3.248 -5.063,-2.207 C 1.041,0.389 0,0 0,0" />
      </g>
      <g
         transform="matrix(0.35277777,0,0,-0.35277777,-161.09742,312.32589)"
         id="g19952">
        <path
           inkscape:connector-curvature="0"
           id="path19954"
           style="fill:#f2ceb6;fill-opacity:1;fill-rule:nonzero;stroke:none"
           d="m 0,0 c -1.352,-0.826 -1.558,-2.287 -1.797,-7.031 -0.319,-6.358 7.429,-0.733 9.026,1.179 1.694,2.028 3.335,5.243 2.918,6.288 -0.656,1.638 2.766,14.298 2.766,14.298 L 0.223,14.395 c 0,0 1.743,-9.022 1.797,-11.34 C 2.033,2.463 1.089,0.662 0,0" />
      </g>
      <g
         transform="matrix(0.35277777,0,0,-0.35277777,-354.95985,579.2891)"
         id="g19956">
        <g
           id="g19958" />
        <g
           id="g19970">
          <g
             style="opacity:0.27000403"
             id="g19968"
             clip-path="url(#clipPath19962)">
            <g
               id="g19966"
               transform="translate(562.0845,629.2148)">
              <path
                 inkscape:connector-curvature="0"
                 id="path19964"
                 style="fill:#231f20;fill-opacity:1;fill-rule:nonzero;stroke:none"
                 d="m 0,0 c -2.348,-2.744 -13.46,-0.959 -23.648,-0.178 -13.698,1.053 -29.255,0.119 -29.255,7.231 0,7.109 28.845,13.246 47.418,10.972 C 8.92,16.264 2.447,2.854 0,0" />
            </g>
          </g>
        </g>
      </g>
      <g
         transform="matrix(0.35277777,0,0,-0.35277777,-158.58046,349.54946)"
         id="g19972">
        <path
           inkscape:connector-curvature="0"
           id="path19974"
           style="fill:#a5079e;fill-opacity:1;fill-rule:nonzero;stroke:none"
           d="m 0,0 c 0,0 -2.231,-3.693 -3.64,-5.504 -0.995,-1.281 -5.605,-4.392 -6.785,-6.406 -0.599,-1.02 -0.707,-3.223 -0.443,-4.709 0.271,-1.492 0.809,-0.897 2.683,-0.897 1.323,0 4.777,0.352 6.706,0.352 1.271,0 1.999,2.254 1.999,2.254 l 2.63,7.045 0.331,-9.133 h 2.283 c 0.186,0 0.335,11.06 0.335,11.06 0,0 0.205,3.704 -1.269,6.674 C 3.356,3.713 0,0 0,0" />
      </g>
      <g
         transform="matrix(0.35277777,0,0,-0.35277777,-169.81509,348.08737)"
         id="g19976">
        <path
           inkscape:connector-curvature="0"
           id="path19978"
           style="fill:#a5079e;fill-opacity:1;fill-rule:nonzero;stroke:none"
           d="m 0,0 c 0,0 -2.229,-3.693 -3.641,-5.5 -0.991,-1.281 -7.322,-4.408 -7.322,-7.113 0,-2.434 0.072,-2.883 0.098,-4.008 0.025,-1.092 0.243,-0.969 2.114,-0.969 1.329,0 5.342,0.422 7.272,0.422 1.275,0 2.49,3.955 2.49,3.955 L 3.154,-7.861 3.484,-17 h 2.277 c 0.19,0 0.34,11.068 0.34,11.068 0,0 0.203,3.698 -1.271,6.67 C 3.356,3.715 0,0 0,0" />
      </g>
      <g
         transform="matrix(0.35277777,0,0,-0.35277777,-156.8648,349.64317)"
         id="g19980">
        <path
           inkscape:connector-curvature="0"
           id="path19982"
           style="fill:#e8c5ac;fill-opacity:1;fill-rule:nonzero;stroke:none"
           d="m 0,0 c 0,0 3.382,17.777 0.764,27.916 -1.891,7.336 -0.11,33.371 -0.11,33.371 l -15.052,-0.652 4.973,-32.219 2.991,-29.398 c 0,0 -0.98,-2.729 -4.691,-6.87 -1.272,-1.427 -0.734,-1.578 3.055,-1.199 3.27,0.324 5.789,3.985 7.091,5.887 C 0.436,-1.09 0,0 0,0" />
      </g>
      <g
         transform="matrix(0.35277777,0,0,-0.35277777,-160.45838,328.8293)"
         id="g19984">
        <path
           inkscape:connector-curvature="0"
           id="path19986"
           style="fill:#e8c5ac;fill-opacity:1;fill-rule:nonzero;stroke:none"
           d="m 0,0 c 0,0 -9.429,-25.211 -9.771,-28.902 -1.305,-14.178 -10.905,-27.481 -10.905,-27.481 0,0 0.073,-1.756 -0.649,-2.355 -0.511,-0.424 -7.093,-5.717 -9.822,-5.823 -3.173,-0.127 -1.416,2.176 -1.416,2.176 0,0 5.405,6.174 6.219,8.51 1.141,3.277 15.796,61.809 15.796,61.809 z" />
      </g>
      <g
         transform="matrix(0.35277777,0,0,-0.35277777,-165.32871,329.13728)"
         id="g19988">
        <path
           inkscape:connector-curvature="0"
           id="path19990"
           style="fill:#a5079e;fill-opacity:1;fill-rule:nonzero;stroke:none"
           d="m 0,0 c -0.539,-2.828 -1.546,-8.674 -2.615,-13.047 3.803,-1.529 9.139,-2.394 15.22,-2.394 5.395,0 8.41,0.562 12.175,2.285 3.588,18.586 -3.19,26.955 -3.19,31.146 0,9.658 6.535,13.168 8.162,19.315 1.437,5.439 0.536,6.998 -0.307,7.845 -2.289,2.286 -9.875,3.926 -15.593,5.559 -2.289,0.656 -3.476,1.365 -4.473,1.199 -2.229,-0.369 -5.124,-7.851 -5.124,-7.851 0,0 -3.816,-6.327 -2.943,-9.272 C 2.28,31.514 4.363,25.297 3.164,17.555 1.771,8.57 1.035,5.43 0,0" />
      </g>
      <g
         transform="matrix(0.35277777,0,0,-0.35277777,-156.28017,328.87132)"
         id="g19992">
        <path
           inkscape:connector-curvature="0"
           id="path19994"
           style="fill:#0fd3bb;fill-opacity:1;fill-rule:nonzero;stroke:none"
           d="m 0,0 c -1.633,-1.223 -7.417,-2.48 -18.044,-0.76 -2.083,0.334 -5.834,1.069 -7.633,2.701 0.558,2.897 2.373,9.586 3.191,14.86 1.199,7.742 -0.884,13.959 -1.852,17.23 -0.872,2.946 2.944,9.272 2.944,9.272 0,0 2.288,9.166 2.803,9.242 0.997,0.15 4.852,-1.186 7.142,-1.84 C -5.73,49.07 2.596,46.572 4.886,44.283 5.728,43.443 5.54,41.99 4.103,36.551 2.475,30.404 -4.06,26.895 -4.06,17.236 -4.06,14.381 0,10.33 0,0" />
      </g>
      <g
         transform="matrix(0.35277777,0,0,-0.35277777,-156.28017,328.87132)"
         id="g19996">
        <path
           inkscape:connector-curvature="0"
           id="path19998"
           style="fill:#0fd3bb;fill-opacity:1;fill-rule:nonzero;stroke:none"
           d="m 0,0 c -1.633,-1.223 -7.417,-2.48 -18.044,-0.76 -2.083,0.334 -5.834,1.069 -7.633,2.701 0.558,2.897 2.373,9.586 3.191,14.86 1.199,7.742 -0.884,13.959 -1.852,17.23 -0.872,2.946 2.944,9.272 2.944,9.272 0,0 2.288,9.166 2.803,9.242 0.997,0.15 4.852,-1.186 7.142,-1.84 C -5.73,49.07 2.596,46.572 4.886,44.283 5.728,43.443 5.54,41.99 4.103,36.551 2.475,30.404 -4.06,26.895 -4.06,17.236 -4.06,14.381 0,10.33 0,0" />
      </g>
      <g
         transform="matrix(0.35277777,0,0,-0.35277777,-149.78875,326.89245)"
         id="g20000">
        <path
           inkscape:connector-curvature="0"
           id="path20002"
           style="fill:#f2ceb6;fill-opacity:1;fill-rule:nonzero;stroke:none"
           d="m 0,0 c 0,0 4.942,-4.086 6.031,-7.9 1.092,-3.813 1.793,-5.678 0.198,-6.131 -0.79,-0.231 -1.336,2.101 -2.695,4.045 -2.901,4.154 -3.651,2.158 -3.651,2.158 0,0 0.298,-0.828 0.891,-2.813 0.298,-0.988 0.016,-1.898 -0.375,-2.007 -0.498,-0.147 -0.72,0.002 -1.067,0.687 -0.319,0.629 -0.742,1.715 -1.574,3.465 -1.722,3.631 -0.211,7.455 -0.211,7.455 z" />
      </g>
      <g
         transform="matrix(0.35277777,0,0,-0.35277777,-154.54623,313.09485)"
         id="g20004">
        <path
           inkscape:connector-curvature="0"
           id="path20006"
           style="fill:#0fd3bb;fill-opacity:1;fill-rule:nonzero;stroke:none"
           d="m 0,0 c 1.798,-0.49 3.271,-4.086 9.212,-18.941 5.487,-13.719 6.378,-22.27 6.378,-22.27 0,0 -0.25,-0.961 -2.263,-1.814 -1.355,-0.58 -3.429,-0.161 -3.429,-0.161 0,0 -4.268,13.538 -6.414,18.032 -2.603,5.457 -6.234,13.267 -6.234,13.267 0,0 -0.811,1.037 -1.313,4.908 C -4.774,-1.549 -2.617,0.709 0,0" />
      </g>
      <g
         transform="matrix(0.35277777,0,0,-0.35277777,-159.70237,310.08177)"
         id="g20008">
        <path
           inkscape:connector-curvature="0"
           id="path20010"
           style="fill:#f2ceb6;fill-opacity:1;fill-rule:nonzero;stroke:none"
           d="m 0,0 c -0.052,0.059 -1.916,-2.506 -1.998,-2.482 0.033,-0.321 0.059,-0.61 0.063,-0.825 0.014,-0.591 -0.931,-2.392 -2.02,-3.054 -1.352,-0.827 -3.316,-4.979 1.423,-5.325 5.589,-0.41 13.09,1.35 17.163,3.178 C 11.634,-6.393 3.504,-4.09 0,0" />
      </g>
      <g
         transform="matrix(0.35277777,0,0,-0.35277777,-159.13496,302.86566)"
         id="g20012">
        <path
           inkscape:connector-curvature="0"
           id="path20014"
           style="fill:#ffe1cc;fill-opacity:1;fill-rule:nonzero;stroke:none"
           d="M 0,0 C 5.547,1.57 6.958,-3.012 7.963,-6.041 8.677,-8.16 9.53,-12.27 9.53,-12.27 c 0.603,-4.132 0.192,-7.335 -1.697,-8.652 -2.364,-1.648 -6.732,-0.428 -10.757,2.172 -3.575,2.307 -4.53,4.219 -4.732,4.687 l -4.008,10.288 c 0,0 8.718,2.939 11.664,3.775" />
      </g>
      <g
         transform="matrix(0.35277777,0,0,-0.35277777,-160.64908,303.1454)"
         id="g20016">
        <path
           inkscape:connector-curvature="0"
           id="path20018"
           style="fill:#722807;fill-opacity:1;fill-rule:nonzero;stroke:none"
           d="m 0,0 -0.771,-9.563 c 0,0 3.662,-0.181 4.942,0.463 0,0 -0.317,1.395 -0.393,3.493 -0.009,0.25 1.263,-2.051 1.195,-3.168 -0.011,-0.231 2.655,0.502 5.735,2.691 0.653,0.467 2.457,2.086 2.172,2.891 -1.776,4.959 -6.997,5.617 -6.997,5.617 z" />
      </g>
      <g
         transform="matrix(0.35277777,0,0,-0.35277777,-160.22874,302.04365)"
         id="g20020">
        <path
           inkscape:connector-curvature="0"
           id="path20022"
           style="fill:#722807;fill-opacity:1;fill-rule:nonzero;stroke:none"
           d="m 0,0 c 0,0 2.597,-3.895 0.39,-7.529 -2.209,-3.637 -2.077,-3.508 -1.43,-4.159 0.651,-0.646 0.704,-2.251 -0.104,-4.119 -2.045,-4.726 2.573,-5.875 3.741,-5.355 1.562,0.693 -1.494,-4.936 -4.609,-4.936 -3.117,0 -7.791,0.78 -6.556,7.143 0.569,2.934 -3.376,15.971 -2.986,16.1 0.387,0.126 5.061,2.335 5.061,2.335 z" />
      </g>
    </g>
  </g>
</svg>
