<?xml version="1.0" encoding="UTF-8" standalone="no"?>
<!-- Created with Inkscape (http://www.inkscape.org/) -->

<svg
   xmlns:dc="http://purl.org/dc/elements/1.1/"
   xmlns:cc="http://creativecommons.org/ns#"
   xmlns:rdf="http://www.w3.org/1999/02/22-rdf-syntax-ns#"
   xmlns:svg="http://www.w3.org/2000/svg"
   xmlns="http://www.w3.org/2000/svg"
   xmlns:sodipodi="http://sodipodi.sourceforge.net/DTD/sodipodi-0.dtd"
   xmlns:inkscape="http://www.inkscape.org/namespaces/inkscape"
   width="2.5190308mm"
   height="3.6081486mm"
   viewBox="0 0 2.5190308 3.6081485"
   version="1.1"
   id="svg113590"
   inkscape:version="0.92.2 (5c3e80d, 2017-08-06)"
   sodipodi:docname="people-riding-1.svg">
  <defs
     id="defs113584">
    <clipPath
       id="clipPath6938"
       clipPathUnits="userSpaceOnUse">
      <path
         inkscape:connector-curvature="0"
         id="path6936"
         d="m 332.31,670.939 h 80.557 V 627.742 H 332.31 Z" />
    </clipPath>
    <clipPath
       id="clipPath19962"
       clipPathUnits="userSpaceOnUse">
      <path
         inkscape:connector-curvature="0"
         id="path19960"
         d="m 509.182,647.722 h 56.485 v -19.98 h -56.485 z" />
    </clipPath>
    <clipPath
       id="clipPath19818"
       clipPathUnits="userSpaceOnUse">
      <path
         inkscape:connector-curvature="0"
         id="path19816"
         d="m 671.425,650.716 h 65.619 v -22.975 h -65.619 z" />
    </clipPath>
    <clipPath
       id="clipPath14734"
       clipPathUnits="userSpaceOnUse">
      <path
         inkscape:connector-curvature="0"
         id="path14732"
         d="m 800.948,651.727 h 68.678 v -23.986 h -68.678 z" />
    </clipPath>
    <clipPath
       id="clipPath14822"
       clipPathUnits="userSpaceOnUse">
      <path
         inkscape:connector-curvature="0"
         id="path14820"
         d="m 957.738,645.951 h 63.252 v -18.209 h -63.252 z" />
    </clipPath>
    <clipPath
       id="clipPath20130"
       clipPathUnits="userSpaceOnUse">
      <path
         inkscape:connector-curvature="0"
         id="path20128"
         d="m 1084.85,651.425 h 64.51 v -23.683 h -64.51 z" />
    </clipPath>
    <clipPath
       id="clipPath20722"
       clipPathUnits="userSpaceOnUse">
      <path
         inkscape:connector-curvature="0"
         id="path20720"
         d="m 1222.08,654.393 h 75.95 v -26.652 h -75.95 z" />
    </clipPath>
    <clipPath
       id="clipPath20266"
       clipPathUnits="userSpaceOnUse">
      <path
         inkscape:connector-curvature="0"
         id="path20264"
         d="m 1383.9,646.412 h 44.62 v -18.67 h -44.62 z" />
    </clipPath>
    <clipPath
       id="clipPath20442"
       clipPathUnits="userSpaceOnUse">
      <path
         inkscape:connector-curvature="0"
         id="path20440"
         d="m 1493.26,654.136 h 75.09 v -26.394 h -75.09 z" />
    </clipPath>
    <clipPath
       id="clipPath20366"
       clipPathUnits="userSpaceOnUse">
      <path
         inkscape:connector-curvature="0"
         id="path20364"
         d="m 1632.21,651.13 h 77.31 v -23.389 h -77.31 z" />
    </clipPath>
    <clipPath
       id="clipPath20538"
       clipPathUnits="userSpaceOnUse">
      <path
         inkscape:connector-curvature="0"
         id="path20536"
         d="m 1778.62,646.625 h 45.13 v -18.883 h -45.13 z" />
    </clipPath>
    <clipPath
       id="clipPath20590"
       clipPathUnits="userSpaceOnUse">
      <path
         inkscape:connector-curvature="0"
         id="path20588"
         d="m 1895.15,652.288 h 61.65 v -24.547 h -61.65 z" />
    </clipPath>
    <clipPath
       id="clipPath20798"
       clipPathUnits="userSpaceOnUse">
      <path
         inkscape:connector-curvature="0"
         id="path20796"
         d="m 2032.21,650.712 h 54.29 v -22.97 h -54.29 z" />
    </clipPath>
    <clipPath
       id="clipPath20218"
       clipPathUnits="userSpaceOnUse">
      <path
         inkscape:connector-curvature="0"
         id="path20216"
         d="m 2154,646.547 h 46.37 V 627.742 H 2154 Z" />
    </clipPath>
    <clipPath
       id="clipPath20882"
       clipPathUnits="userSpaceOnUse">
      <path
         inkscape:connector-curvature="0"
         id="path20880"
         d="m 2287.35,649.844 h 48.35 v -22.102 h -48.35 z" />
    </clipPath>
    <clipPath
       id="clipPath21206"
       clipPathUnits="userSpaceOnUse">
      <path
         inkscape:connector-curvature="0"
         id="path21204"
         d="m 2432.86,646.93 h 8.25 v -13.96 h -8.25 z" />
    </clipPath>
    <clipPath
       id="clipPath21150"
       clipPathUnits="userSpaceOnUse">
      <path
         inkscape:connector-curvature="0"
         id="path21148"
         d="m 2406.52,649.765 h 54.69 v -22.024 h -54.69 z" />
    </clipPath>
    <clipPath
       id="clipPath21098"
       clipPathUnits="userSpaceOnUse">
      <path
         inkscape:connector-curvature="0"
         id="path21096"
         d="m 2526.96,654.315 h 61.23 v -26.573 h -61.23 z" />
    </clipPath>
    <clipPath
       id="clipPath20954"
       clipPathUnits="userSpaceOnUse">
      <path
         inkscape:connector-curvature="0"
         id="path20952"
         d="m 2663.33,652.114 h 56.93 v -24.373 h -56.93 z" />
    </clipPath>
    <clipPath
       id="clipPath20038"
       clipPathUnits="userSpaceOnUse">
      <path
         inkscape:connector-curvature="0"
         id="path20036"
         d="m 2785.76,651.686 h 65.21 v -23.944 h -65.21 z" />
    </clipPath>
    <clipPath
       id="clipPath13978"
       clipPathUnits="userSpaceOnUse">
      <path
         inkscape:connector-curvature="0"
         id="path13976"
         d="m 2914.83,655.885 h 60.35 v -28.144 h -60.35 z" />
    </clipPath>
    <clipPath
       id="clipPath19038"
       clipPathUnits="userSpaceOnUse">
      <path
         inkscape:connector-curvature="0"
         id="path19036"
         d="m 3087.28,646.215 h 38.96 v -18.473 h -38.96 z" />
    </clipPath>
    <clipPath
       id="clipPath48350"
       clipPathUnits="userSpaceOnUse">
      <path
         inkscape:connector-curvature="0"
         id="path48348"
         d="m 459.653,532.627 c 0.112,-0.395 0.335,-0.637 0.601,-0.699 v 0 l 7.049,-1.772 c -0.266,0.065 -0.482,0.305 -0.6,0.702 v 0 c -0.235,0.801 0.05,1.941 0.629,2.543 v 0 l -7.051,1.771 c -0.583,-0.6 -0.863,-1.74 -0.628,-2.545" />
    </clipPath>
    <clipPath
       id="clipPath48338"
       clipPathUnits="userSpaceOnUse">
      <path
         inkscape:connector-curvature="0"
         id="path48336"
         d="m 460.281,535.172 7.051,-1.771 c 0.296,0.305 0.608,0.414 0.879,0.348 v 0 l -7.054,1.773 c -0.05,0.012 -0.102,0.018 -0.155,0.018 v 0 c -0.231,0 -0.484,-0.118 -0.721,-0.368" />
    </clipPath>
    <clipPath
       id="clipPath48250"
       clipPathUnits="userSpaceOnUse">
      <path
         inkscape:connector-curvature="0"
         id="path48248"
         d="m 441.885,537.059 c 0.118,-0.395 0.338,-0.636 0.605,-0.701 v 0 l 7.054,-1.775 c -0.268,0.069 -0.488,0.308 -0.605,0.706 v 0 c -0.235,0.798 0.048,1.941 0.629,2.546 v 0 l -7.047,1.771 c -0.587,-0.605 -0.869,-1.744 -0.636,-2.547" />
    </clipPath>
    <clipPath
       id="clipPath48238"
       clipPathUnits="userSpaceOnUse">
      <path
         inkscape:connector-curvature="0"
         id="path48236"
         d="m 442.521,539.606 7.047,-1.771 c 0.296,0.303 0.608,0.409 0.878,0.347 v 0 l -7.057,1.771 c -0.051,0.013 -0.102,0.02 -0.155,0.02 v 0 c -0.229,0 -0.478,-0.121 -0.713,-0.367" />
    </clipPath>
    <clipPath
       id="clipPath48214"
       clipPathUnits="userSpaceOnUse">
      <path
         inkscape:connector-curvature="0"
         id="path48212"
         d="M 0,2119.953 H 3253.108 V 0 H 0 Z" />
    </clipPath>
    <clipPath
       id="clipPath48202"
       clipPathUnits="userSpaceOnUse">
      <path
         inkscape:connector-curvature="0"
         id="path48200"
         d="m 455.025,479.399 0.569,-0.331 c -0.003,0.977 0.687,2.169 1.537,2.658 v 0 l -0.574,0.333 c -0.844,-0.491 -1.535,-1.68 -1.532,-2.66" />
    </clipPath>
    <clipPath
       id="clipPath48186"
       clipPathUnits="userSpaceOnUse">
      <path
         inkscape:connector-curvature="0"
         id="path48184"
         d="M 0,2119.953 H 3253.108 V 0 H 0 Z" />
    </clipPath>
    <clipPath
       id="clipPath48174"
       clipPathUnits="userSpaceOnUse">
      <path
         inkscape:connector-curvature="0"
         id="path48172"
         d="m 456.798,482.198 0.569,-0.333 c 0.432,0.247 0.82,0.273 1.1,0.109 v 0 l -0.57,0.33 c -0.118,0.068 -0.255,0.104 -0.407,0.104 v 0 c -0.208,0 -0.443,-0.067 -0.692,-0.21" />
    </clipPath>
    <clipPath
       id="clipPath48102"
       clipPathUnits="userSpaceOnUse">
      <path
         inkscape:connector-curvature="0"
         id="path48100"
         d="M 0,2119.953 H 3253.108 V 0 H 0 Z" />
    </clipPath>
    <clipPath
       id="clipPath48090"
       clipPathUnits="userSpaceOnUse">
      <path
         inkscape:connector-curvature="0"
         id="path48088"
         d="m 453.377,480.498 0.573,-0.329 c -0.003,0.979 0.681,2.165 1.533,2.655 v 0 l -0.571,0.334 c -0.847,-0.491 -1.54,-1.684 -1.535,-2.66" />
    </clipPath>
    <clipPath
       id="clipPath48058"
       clipPathUnits="userSpaceOnUse">
      <path
         inkscape:connector-curvature="0"
         id="path48056"
         d="M 0,2119.953 H 3253.108 V 0 H 0 Z" />
    </clipPath>
    <clipPath
       id="clipPath48046"
       clipPathUnits="userSpaceOnUse">
      <path
         inkscape:connector-curvature="0"
         id="path48044"
         d="m 449.418,476.506 c 0,-0.518 0.344,-1.042 1.034,-1.439 v 0 l 0.008,2.51 c -0.689,0.4 -1.037,0.921 -1.037,1.443 v 0 c -0.002,-0.838 -0.002,-1.676 -0.005,-2.514" />
    </clipPath>
    <clipPath
       id="clipPath47978"
       clipPathUnits="userSpaceOnUse">
      <path
         inkscape:connector-curvature="0"
         id="path47976"
         d="m 441.588,496.606 h 71.406 v -33.451 h -71.406 z" />
    </clipPath>
  </defs>
  <sodipodi:namedview
     id="base"
     pagecolor="#ffffff"
     bordercolor="#666666"
     borderopacity="1.0"
     inkscape:pageopacity="0.0"
     inkscape:pageshadow="2"
     inkscape:zoom="0.7"
     inkscape:cx="-7.1465345"
     inkscape:cy="110.78024"
     inkscape:document-units="mm"
     inkscape:current-layer="layer1"
     showgrid="false"
     inkscape:window-width="1360"
     inkscape:window-height="706"
     inkscape:window-x="-8"
     inkscape:window-y="-8"
     inkscape:window-maximized="1"
     fit-margin-top="0"
     fit-margin-left="0"
     fit-margin-right="0"
     fit-margin-bottom="0" />
  <metadata
     id="metadata113587">
    <rdf:RDF>
      <cc:Work
         rdf:about="">
        <dc:format>image/svg+xml</dc:format>
        <dc:type
           rdf:resource="http://purl.org/dc/dcmitype/StillImage" />
        <dc:title></dc:title>
      </cc:Work>
    </rdf:RDF>
  </metadata>
  <g
     inkscape:label="Layer 1"
     inkscape:groupmode="layer"
     id="layer1"
     transform="translate(23.040158,-343.97234)">
    <g
       id="g694"
       transform="matrix(0.1,0,0,0.086,-19.602578,316.03964)">
      <g
         transform="matrix(0.35277777,0,0,-0.35277777,-190.15831,530.14481)"
         id="g47972">
        <g
           id="g47974" />
        <g
           id="g47986">
          <g
             style="opacity:0.28999299"
             id="g47984"
             clip-path="url(#clipPath47978)">
            <g
               id="g47982"
               transform="translate(500.8984,496.4629)">
              <path
                 inkscape:connector-curvature="0"
                 id="path47980"
                 style="fill:#231f20;fill-opacity:1;fill-rule:nonzero;stroke:none"
                 d="m 0,0 c 2.625,-0.639 13.108,0.001 12.016,-3.822 -1.094,-3.824 -2.185,-6.009 -13.927,-6.829 -11.743,-0.818 -36.047,-13.924 -41.235,-16.931 -5.186,-3.003 -14.197,-8.463 -16.112,-4.096 C -61.167,-27.31 -10.103,2.456 0,0" />
            </g>
          </g>
        </g>
      </g>
      <g
         transform="matrix(0.35277777,0,0,-0.35277777,-16.191836,352.92083)"
         id="g47988">
        <path
           inkscape:connector-curvature="0"
           id="path47990"
           style="fill:#888786;fill-opacity:1;fill-rule:nonzero;stroke:none"
           d="m 0,0 -0.791,0.48 c 0.275,0.164 0.526,0.18 0.709,0.07 L 0.707,0.064 C 0.524,0.178 0.274,0.159 0,0" />
      </g>
      <g
         transform="matrix(0.35277777,0,0,-0.35277777,-18.494706,355.05816)"
         id="g47992">
        <path
           inkscape:connector-curvature="0"
           id="path47994"
           style="fill:#494848;fill-opacity:1;fill-rule:nonzero;stroke:none"
           d="M 0,0 -0.789,0.486 -0.798,2.77 -0.003,2.285 Z" />
      </g>
      <g
         transform="matrix(0.35277777,0,0,-0.35277777,-18.495767,354.252)"
         id="g47996">
        <path
           inkscape:connector-curvature="0"
           id="path47998"
           style="fill:#888786;fill-opacity:1;fill-rule:nonzero;stroke:none"
           d="M 0,0 -0.795,0.484 5.74,4.254 6.531,3.773 Z" />
      </g>
      <g
         transform="matrix(0.35277777,0,0,-0.35277777,-16.191836,352.92083)"
         id="g48000">
        <path
           inkscape:connector-curvature="0"
           id="path48002"
           style="fill:#696868;fill-opacity:1;fill-rule:nonzero;stroke:none"
           d="m 0,0 c 0.547,0.316 0.996,0.063 0.999,-0.569 0,-0.633 -0.444,-1.4 -0.995,-1.718 l -6.532,-3.772 -0.003,2.286 z" />
      </g>
      <g
         transform="matrix(0.35277777,0,0,-0.35277777,-14.148195,352.71067)"
         id="g48004">
        <path
           inkscape:connector-curvature="0"
           id="path48006"
           style="fill:#51666b;fill-opacity:1;fill-rule:nonzero;stroke:none"
           d="m 0,0 -2.062,1.196 c 0.533,-0.305 0.859,-0.966 0.864,-1.897 0.006,-1.882 -1.319,-4.171 -2.956,-5.116 -0.516,-0.295 -0.996,-0.429 -1.422,-0.406 -0.251,0.013 -0.482,0.081 -0.686,0.198 0.312,-0.181 0.674,-0.389 1.032,-0.597 l 1.033,-0.603 c 0.538,-0.313 1.283,-0.268 2.107,0.206 1.634,0.946 2.96,3.237 2.953,5.116 C 0.861,-0.968 0.533,-0.313 0,0" />
      </g>
      <g
         transform="matrix(0.35277777,0,0,-0.35277777,-15.093717,352.61249)"
         id="g48008">
        <path
           inkscape:connector-curvature="0"
           id="path48010"
           style="fill:#332c27;fill-opacity:1;fill-rule:nonzero;stroke:none"
           d="M 0,0 C 1.641,0.945 2.973,0.188 2.976,-1.694 2.981,-3.573 1.66,-5.864 0.02,-6.807 -1.613,-7.752 -2.946,-6.997 -2.953,-5.113 -2.96,-3.234 -1.634,-0.94 0,0" />
      </g>
      <g
         transform="matrix(0.35277777,0,0,-0.35277777,-14.429505,351.51936)"
         id="g48012">
        <path
           inkscape:connector-curvature="0"
           id="path48014"
           style="fill:#51666b;fill-opacity:1;fill-rule:nonzero;stroke:none"
           d="m 0,0 c -0.864,0.5 -2.061,0.432 -3.378,-0.334 -2.625,-1.513 -4.746,-5.183 -4.737,-8.201 0.004,-1.496 0.531,-2.549 1.386,-3.045 l 2.063,-1.2 c -0.853,0.495 -1.382,1.551 -1.387,3.047 -0.008,3.013 2.11,6.687 4.737,8.203 1.319,0.761 2.517,0.832 3.381,0.331 z" />
      </g>
      <g
         transform="matrix(0.35277777,0,0,-0.35277777,-14.885646,355.18667)"
         id="g48016">
        <path
           inkscape:connector-curvature="0"
           id="path48018"
           style="fill:#304649;fill-opacity:1;fill-rule:nonzero;stroke:none"
           d="M 0,0 C 1.635,0.945 2.96,3.236 2.953,5.115 2.949,6.994 1.621,7.754 -0.02,6.813 -1.655,5.864 -2.979,3.575 -2.974,1.696 -2.966,-0.185 -1.635,-0.944 0,0 M -0.023,8.865 C 2.602,10.381 4.733,9.163 4.744,6.149 4.751,3.134 2.63,-0.538 0.011,-2.052 -2.616,-3.566 -4.751,-2.35 -4.76,0.662 -4.768,3.676 -2.65,7.35 -0.023,8.865" />
      </g>
      <g
         transform="matrix(0.35277777,0,0,-0.35277777,-14.708547,353.87889)"
         id="g48020">
        <path
           inkscape:connector-curvature="0"
           id="path48022"
           style="fill:#888786;fill-opacity:1;fill-rule:nonzero;stroke:none"
           d="m 0,0 -0.791,0.484 c 0.28,0.16 0.529,0.176 0.712,0.071 L 0.711,0.068 C 0.529,0.177 0.278,0.161 0,0" />
      </g>
      <g
         transform="matrix(0.35277777,0,0,-0.35277777,-17.009546,356.0145)"
         id="g48024">
        <path
           inkscape:connector-curvature="0"
           id="path48026"
           style="fill:#494848;fill-opacity:1;fill-rule:nonzero;stroke:none"
           d="M 0,0 -0.792,0.48 -0.798,2.767 -0.007,2.284 Z" />
      </g>
      <g
         transform="matrix(0.35277777,0,0,-0.35277777,-17.011946,355.20871)"
         id="g48028">
        <path
           inkscape:connector-curvature="0"
           id="path48030"
           style="fill:#888786;fill-opacity:1;fill-rule:nonzero;stroke:none"
           d="M 0,0 -0.791,0.482 5.739,4.254 6.529,3.77 Z" />
      </g>
      <g
         transform="matrix(0.35277777,0,0,-0.35277777,-14.708547,353.87889)"
         id="g48032">
        <path
           inkscape:connector-curvature="0"
           id="path48034"
           style="fill:#696868;fill-opacity:1;fill-rule:nonzero;stroke:none"
           d="M 0,0 C 0.554,0.316 1,0.062 1,-0.569 1.002,-1.198 0.556,-1.968 0.009,-2.283 l -6.531,-3.771 -0.007,2.284 z" />
      </g>
      <g
         transform="matrix(0.35277777,0,0,-0.35277777,-15.719327,354.9531)"
         id="g48036">
        <path
           inkscape:connector-curvature="0"
           id="path48038"
           style="fill:#7a7978;fill-opacity:1;fill-rule:nonzero;stroke:none"
           d="M 0,0 -0.003,-2.511 C -0.007,-3.03 -0.348,-3.54 -1.023,-3.935 l 0.01,2.513 C -0.337,-1.031 0,-0.517 0,0" />
      </g>
      <g
         transform="matrix(0.35277777,0,0,-0.35277777,-190.15831,530.14481)"
         id="g48040">
        <g
           clip-path="url(#clipPath48046)"
           id="g48042">
          <g
             transform="translate(450.4595,477.5771)"
             id="g48048">
            <path
               inkscape:connector-curvature="0"
               id="path48050"
               style="fill:#9e9d9b;fill-opacity:1;fill-rule:nonzero;stroke:none"
               d="m 0,0 -0.007,-2.511 c -0.69,0.398 -1.035,0.922 -1.035,1.44 l 0.006,2.513 C -1.036,0.921 -0.688,0.399 0,0" />
          </g>
        </g>
      </g>
      <g
         transform="matrix(0.35277777,0,0,-0.35277777,-190.15831,530.14481)"
         id="g48052">
        <g
           clip-path="url(#clipPath48058)"
           id="g48054">
          <g
             transform="translate(459.293,475.3301)"
             id="g48060">
            <path
               inkscape:connector-curvature="0"
               id="path48062"
               style="fill:#7a7978;fill-opacity:1;fill-rule:nonzero;stroke:none"
               d="m 0,0 c -1.355,-0.791 -3.571,-0.791 -4.939,0 l -3.894,2.247 -0.008,-2.511 3.897,-2.248 c 1.367,-0.791 3.578,-0.791 4.939,0 l 34.161,19.854 0.011,2.512 z" />
          </g>
          <g
             transform="translate(493.4404,498.0449)"
             id="g48064">
            <path
               inkscape:connector-curvature="0"
               id="path48066"
               style="fill:#888786;fill-opacity:1;fill-rule:nonzero;stroke:none"
               d="m 0,0 c 1.374,-0.792 1.378,-2.07 0.02,-2.86 l -34.167,-19.855 c -1.355,-0.791 -3.572,-0.791 -4.94,0 l -3.894,2.247 c -1.37,0.791 -1.377,2.074 -0.018,2.864 L -8.832,2.25 c 1.357,0.787 3.571,0.787 4.939,0 z" />
          </g>
          <g
             transform="translate(498.1289,499.5498)"
             id="g48068">
            <path
               inkscape:connector-curvature="0"
               id="path48070"
               style="fill:#888786;fill-opacity:1;fill-rule:nonzero;stroke:none"
               d="m 0,0 c -0.135,0.114 -0.345,0.139 -0.601,0.047 -0.507,-0.187 -0.988,-0.763 -1.083,-1.295 -0.045,-0.261 0.018,-0.46 0.15,-0.577 l 0.677,-0.569 c -0.137,0.114 -0.196,0.314 -0.154,0.575 0.093,0.534 0.58,1.113 1.084,1.298 0.259,0.09 0.465,0.07 0.603,-0.045 z" />
          </g>
          <g
             transform="translate(498.2021,499.0283)"
             id="g48072">
            <path
               inkscape:connector-curvature="0"
               id="path48074"
               style="fill:#696868;fill-opacity:1;fill-rule:nonzero;stroke:none"
               d="M 0,0 C 0.505,0.185 0.846,-0.093 0.753,-0.624 0.664,-1.153 0.177,-1.73 -0.33,-1.913 -0.836,-2.104 -1.174,-1.823 -1.084,-1.298 -0.991,-0.764 -0.504,-0.185 0,0" />
          </g>
          <g
             transform="translate(453.9541,478.7471)"
             id="g48076">
            <path
               inkscape:connector-curvature="0"
               id="path48078"
               style="fill:#69e3ff;fill-opacity:1;fill-rule:nonzero;stroke:none"
               d="M 0,0 -0.57,0.329 -0.578,1.751 -0.004,1.422 Z" />
          </g>
          <g
             transform="translate(455.4829,482.8242)"
             id="g48080">
            <path
               inkscape:connector-curvature="0"
               id="path48082"
               style="fill:#c2b3a5;fill-opacity:1;fill-rule:nonzero;stroke:none"
               d="M 0,0 -0.57,0.334 -0.33,0.471 0.239,0.138 Z" />
          </g>
        </g>
      </g>
      <g
         transform="matrix(0.35277777,0,0,-0.35277777,-190.15831,530.14481)"
         id="g48084">
        <g
           clip-path="url(#clipPath48090)"
           id="g48086">
          <g
             transform="translate(453.9502,480.1689)"
             id="g48092">
            <path
               inkscape:connector-curvature="0"
               id="path48094"
               style="fill:#69e3ff;fill-opacity:1;fill-rule:nonzero;stroke:none"
               d="m 0,0 -0.574,0.329 c -0.004,0.976 0.689,2.169 1.536,2.66 L 1.533,2.655 C 0.681,2.165 -0.003,0.979 0,0" />
          </g>
        </g>
      </g>
      <g
         transform="matrix(0.35277777,0,0,-0.35277777,-190.15831,530.14481)"
         id="g48098"
         clip-path="url(#clipPath48102)">
        <g
           id="g48104"
           transform="translate(455.7217,482.9619)">
          <path
             d="m 0,0 c 0.851,0.494 1.545,0.099 1.545,-0.876 l 0.004,-1.422 -3.317,-1.917 -0.003,1.422 c -0.004,0.98 0.681,2.165 1.532,2.655 z"
             style="fill:#36c0ea;fill-opacity:1;fill-rule:nonzero;stroke:none"
             id="path48106"
             inkscape:connector-curvature="0" />
        </g>
        <g
           id="g48108"
           transform="translate(446.6694,480.6865)">
          <path
             d="m 0,0 c -0.294,-0.093 -0.534,-0.381 -0.642,-0.841 l -1.491,-6.384 2.352,0.678 0.851,6.239 c 0.104,0.455 0.345,0.741 0.638,0.837 z"
             style="fill:#5b5855;fill-opacity:1;fill-rule:nonzero;stroke:none"
             id="path48110"
             inkscape:connector-curvature="0" />
        </g>
        <g
           id="g48112"
           transform="translate(446.8521,481.8828)">
          <path
             d="m 0,0 c -0.713,0.109 -1.325,-0.366 -1.554,-1.354 l -0.689,-6.635 0.655,-0.736 0.763,6.688 c 0.132,0.567 0.46,0.868 0.859,0.868 z"
             style="fill:#7a7978;fill-opacity:1;fill-rule:nonzero;stroke:none"
             id="path48114"
             inkscape:connector-curvature="0" />
        </g>
        <g
           id="g48116"
           transform="translate(450.8628,475.0215)">
          <path
             d="m 0,0 -2.063,1.2 c 0.53,-0.312 0.86,-0.971 0.862,-1.904 0.007,-1.878 -1.32,-4.171 -2.953,-5.112 -0.514,-0.299 -0.999,-0.429 -1.422,-0.407 -0.253,0.013 -0.487,0.08 -0.69,0.2 0.314,-0.182 0.674,-0.388 1.033,-0.6 l 1.034,-0.6 c 0.538,-0.312 1.284,-0.267 2.109,0.205 1.635,0.949 2.956,3.239 2.952,5.118 C 0.861,-0.967 0.527,-0.311 0,0"
             style="fill:#51666b;fill-opacity:1;fill-rule:nonzero;stroke:none"
             id="path48118"
             inkscape:connector-curvature="0" />
        </g>
        <g
           id="g48120"
           transform="translate(448.1841,475.3008)">
          <path
             d="M 0,0 C 1.633,0.945 2.965,0.19 2.971,-1.691 2.978,-3.576 1.657,-5.862 0.017,-6.809 -1.617,-7.754 -2.947,-6.993 -2.955,-5.113 -2.96,-3.235 -1.638,-0.942 0,0"
             style="fill:#332c27;fill-opacity:1;fill-rule:nonzero;stroke:none"
             id="path48122"
             inkscape:connector-curvature="0" />
        </g>
        <g
           id="g48124"
           transform="translate(450.0615,478.3994)">
          <path
             d="m 0,0 c -0.859,0.502 -2.06,0.431 -3.378,-0.331 -2.624,-1.516 -4.746,-5.186 -4.738,-8.205 0.009,-1.495 0.534,-2.551 1.389,-3.044 l 2.062,-1.202 c -0.856,0.499 -1.382,1.551 -1.386,3.051 -0.011,3.015 2.112,6.686 4.737,8.2 1.317,0.765 2.515,0.836 3.381,0.332 z"
             style="fill:#51666b;fill-opacity:1;fill-rule:nonzero;stroke:none"
             id="path48126"
             inkscape:connector-curvature="0" />
        </g>
        <g
           id="g48128"
           transform="translate(448.7725,468.0039)">
          <path
             d="M 0,0 C 1.635,0.948 2.957,3.238 2.953,5.117 2.947,6.998 1.615,7.754 -0.018,6.813 -1.658,5.864 -2.98,3.573 -2.973,1.697 -2.965,-0.187 -1.639,-0.944 0,0 M -0.025,8.864 C 2.6,10.379 4.733,9.164 4.74,6.15 4.748,3.132 2.63,-0.541 0.003,-2.053 c -2.624,-1.516 -4.756,-0.301 -4.765,2.717 -0.01,3.016 2.112,6.687 4.737,8.2"
             style="fill:#304649;fill-opacity:1;fill-rule:nonzero;stroke:none"
             id="path48130"
             inkscape:connector-curvature="0" />
        </g>
        <g
           id="g48132"
           transform="translate(447.9121,481.3096)">
          <path
             d="m 0,0 c -0.337,0.315 -0.717,0.528 -1.065,0.573 0,-0.257 0.008,-0.902 0.005,-1.169 0.251,0.027 0.566,-0.12 0.835,-0.369 0.698,-0.652 1.089,-1.932 0.874,-2.86 l -1.336,-5.709 c -0.095,-0.416 0.039,-0.855 0.35,-1.147 l 0.224,-0.206 1.493,6.381 C 1.717,-3.045 1.099,-1.022 0,0"
             style="fill:#7a7978;fill-opacity:1;fill-rule:nonzero;stroke:none"
             id="path48134"
             inkscape:connector-curvature="0" />
        </g>
        <g
           id="g48136"
           transform="translate(450.9995,479.1523)">
          <path
             d="m 0,0 c -0.106,0.56 -0.301,1.113 -0.568,1.61 -0.221,0.414 -0.497,0.786 -0.811,1.076 -0.55,0.516 -1.126,0.682 -1.6,0.54 l -1.709,-0.53 c 0.475,0.148 1.048,-0.023 1.601,-0.539 0.313,-0.289 0.586,-0.66 0.81,-1.074 0.265,-0.497 0.461,-1.05 0.57,-1.61 0.12,-0.633 0.125,-1.268 0,-1.822 L -3.2,-8.729 -1.488,-8.206 0,-1.821 C 0.127,-1.266 0.122,-0.631 0,0"
             style="fill:#9e9d9b;fill-opacity:1;fill-rule:nonzero;stroke:none"
             id="path48138"
             inkscape:connector-curvature="0" />
        </g>
        <g
           id="g48140"
           transform="translate(449.4604,472.8848)">
          <path
             d="m 0,0 c -0.188,0.114 -0.453,0.105 -0.756,-0.058 -0.586,-0.323 -1.078,-1.124 -1.09,-1.795 -0.008,-0.331 0.105,-0.569 0.29,-0.684 l 0.94,-0.578 c -0.185,0.117 -0.3,0.353 -0.293,0.685 0.015,0.672 0.504,1.474 1.092,1.801 0.301,0.157 0.567,0.166 0.754,0.054 z"
             style="fill:#9e9d9b;fill-opacity:1;fill-rule:nonzero;stroke:none"
             id="path48142"
             inkscape:connector-curvature="0" />
        </g>
        <g
           id="g48144"
           transform="translate(449.6436,472.2559)">
          <path
             d="M 0,0 C 0.592,0.316 1.062,0.039 1.045,-0.632 1.035,-1.299 0.543,-2.105 -0.048,-2.43 -0.636,-2.753 -1.104,-2.47 -1.092,-1.801 -1.077,-1.129 -0.588,-0.327 0,0"
             style="fill:#7a7978;fill-opacity:1;fill-rule:nonzero;stroke:none"
             id="path48146"
             inkscape:connector-curvature="0" />
        </g>
        <g
           id="g48148"
           transform="translate(449.4575,482.0234)">
          <path
             d="M 0,0 -2.453,0.016 5.095,54.114 7.508,53.777 Z"
             style="fill:#7a7978;fill-opacity:1;fill-rule:nonzero;stroke:none"
             id="path48150"
             inkscape:connector-curvature="0" />
        </g>
        <g
           id="g48152"
           transform="translate(449.4556,482.0371)">
          <path
             d="m 0,0 c 0,-0.236 -0.549,-0.432 -1.227,-0.432 -0.677,-0.006 -1.224,0.185 -1.224,0.423 -0.004,0.238 0.547,0.436 1.224,0.436 C -0.549,0.427 0,0.236 0,0"
             style="fill:#7a7978;fill-opacity:1;fill-rule:nonzero;stroke:none"
             id="path48154"
             inkscape:connector-curvature="0" />
        </g>
        <g
           id="g48156"
           transform="translate(455.4849,479.7266)">
          <path
             d="M 0,0 -6.361,11.363 -4.482,12.848 2.666,0.275 Z"
             style="fill:#7a7978;fill-opacity:1;fill-rule:nonzero;stroke:none"
             id="path48158"
             inkscape:connector-curvature="0" />
        </g>
        <g
           id="g48160"
           transform="translate(452.2148,496.2676)">
          <path
             d="m 0,0 -1.423,-10.108 c -0.017,-0.093 -0.289,-0.152 -0.804,-0.144 -0.887,0.012 -2.149,0.214 -2.824,0.444 -0.284,0.101 -0.414,0.189 -0.408,0.257 L -4.031,0.561 C -4.041,0.49 -3.911,0.403 -3.625,0.306 -2.953,0.073 -1.689,-0.131 -0.798,-0.141 -0.291,-0.149 -0.011,-0.092 0,0"
             style="fill:#36c0ea;fill-opacity:1;fill-rule:nonzero;stroke:none"
             id="path48162"
             inkscape:connector-curvature="0" />
        </g>
        <g
           id="g48164"
           transform="translate(451.8076,496.5254)">
          <path
             d="m 0,0 c 0.673,-0.233 0.495,-0.414 -0.391,-0.398 -0.891,0.009 -2.155,0.213 -2.827,0.446 -0.672,0.233 -0.496,0.409 0.394,0.4 C -1.938,0.434 -0.674,0.236 0,0"
             style="fill:#69e3ff;fill-opacity:1;fill-rule:nonzero;stroke:none"
             id="path48166"
             inkscape:connector-curvature="0" />
        </g>
      </g>
      <g
         transform="matrix(0.35277777,0,0,-0.35277777,-190.15831,530.14481)"
         id="g48168">
        <g
           clip-path="url(#clipPath48174)"
           id="g48170">
          <g
             transform="translate(457.3677,481.8643)"
             id="g48176">
            <path
               inkscape:connector-curvature="0"
               id="path48178"
               style="fill:#69e3ff;fill-opacity:1;fill-rule:nonzero;stroke:none"
               d="M 0,0 -0.57,0.334 C -0.139,0.58 0.249,0.603 0.529,0.439 L 1.099,0.11 C 0.819,0.273 0.432,0.248 0,0" />
          </g>
        </g>
      </g>
      <g
         transform="matrix(0.35277777,0,0,-0.35277777,-190.15831,530.14481)"
         id="g48180">
        <g
           clip-path="url(#clipPath48186)"
           id="g48182">
          <g
             transform="translate(455.5977,477.6504)"
             id="g48188">
            <path
               inkscape:connector-curvature="0"
               id="path48190"
               style="fill:#69e3ff;fill-opacity:1;fill-rule:nonzero;stroke:none"
               d="m 0,0 -0.57,0.331 -0.003,1.418 0.57,-0.331 z" />
          </g>
          <g
             transform="translate(457.1309,481.7256)"
             id="g48192">
            <path
               inkscape:connector-curvature="0"
               id="path48194"
               style="fill:#69e3ff;fill-opacity:1;fill-rule:nonzero;stroke:none"
               d="m 0,0 -0.574,0.333 0.241,0.14 0.57,-0.334 z" />
          </g>
        </g>
      </g>
      <g
         transform="matrix(0.35277777,0,0,-0.35277777,-190.15831,530.14481)"
         id="g48196">
        <g
           clip-path="url(#clipPath48202)"
           id="g48198">
          <g
             transform="translate(455.5942,479.0684)"
             id="g48204">
            <path
               inkscape:connector-curvature="0"
               id="path48206"
               style="fill:#69e3ff;fill-opacity:1;fill-rule:nonzero;stroke:none"
               d="M 0,0 -0.57,0.331 C -0.572,1.311 0.119,2.499 0.963,2.99 L 1.537,2.657 C 0.687,2.169 -0.003,0.977 0,0" />
          </g>
        </g>
      </g>
      <g
         transform="matrix(0.35277777,0,0,-0.35277777,-190.15831,530.14481)"
         id="g48208">
        <g
           clip-path="url(#clipPath48214)"
           id="g48210">
          <g
             transform="translate(457.3677,481.8643)"
             id="g48216">
            <path
               inkscape:connector-curvature="0"
               id="path48218"
               style="fill:#36c0ea;fill-opacity:1;fill-rule:nonzero;stroke:none"
               d="M 0,0 C 0.855,0.493 1.547,0.102 1.547,-0.876 L 1.55,-2.3 -1.77,-4.214 -1.773,-2.796 c -0.004,0.977 0.686,2.169 1.536,2.657 z" />
          </g>
          <g
             transform="translate(470.7998,496.165)"
             id="g48220">
            <path
               inkscape:connector-curvature="0"
               id="path48222"
               style="fill:#15abff;fill-opacity:1;fill-rule:nonzero;stroke:none"
               d="m 0,0 -4.794,-3.925 c 0,0 -2.197,-1.411 -2.962,-2.045 -0.861,-0.705 -0.751,-1.243 -0.758,-1.727 0,-0.324 0.097,-0.616 0.317,-0.837 0.57,-0.551 1.705,-0.95 2.634,-1.113 2.75,-0.489 5.434,1.334 5.434,1.334 7.478,4.216 6.684,6.059 6.684,6.059 L 5.302,1.203 Z" />
          </g>
          <g
             transform="translate(472.8975,509.8037)"
             id="g48224">
            <path
               inkscape:connector-curvature="0"
               id="path48226"
               style="fill:#e8c5ac;fill-opacity:1;fill-rule:nonzero;stroke:none"
               d="M 0,0 10.603,14.776 -1.929,17.35 c 0,0 -4.448,-10.645 -5.996,-14.349 -1.07,-2.574 0.958,-5.986 0.958,-5.986 0,0 4.206,-9.502 4.051,-10.475 -0.154,-0.971 -3.976,-4.103 -3.976,-4.103 0,0 -0.683,-0.443 -1.42,-0.938 0,-0.01 -0.005,-0.02 -0.005,-0.028 -0.052,-1.407 1.432,-2.05 2.456,-1.871 5.28,0.929 8.907,6.998 9.04,7.903 0.005,0.02 0.025,0.04 0.025,0.061 C 2.562,-2.157 0,0 0,0" />
          </g>
          <g
             transform="translate(445.6816,536.6162)"
             id="g48228">
            <path
               inkscape:connector-curvature="0"
               id="path48230"
               style="fill:#e8c5ac;fill-opacity:1;fill-rule:nonzero;stroke:none"
               d="m 0,0 c 2.567,-0.503 10.097,0.464 12.222,0.963 3.778,0.882 5.422,3.535 5.422,3.535 0,0 6.845,7.907 7.876,10.083 1.717,3.64 -2.916,5.438 -5.908,2.424 C 18.51,15.906 14.025,8.88 11.983,7.026 11.099,6.223 9.456,5.699 9.456,5.699 L 0.5,2.924 C 0.5,2.924 -0.384,0.073 0,0" />
          </g>
        </g>
      </g>
      <g
         transform="matrix(0.35277777,0,0,-0.35277777,-190.15831,530.14481)"
         id="g48232">
        <g
           clip-path="url(#clipPath48238)"
           id="g48234">
          <g
             transform="translate(449.5684,537.835)"
             id="g48240">
            <path
               inkscape:connector-curvature="0"
               id="path48242"
               style="fill:#36c0ea;fill-opacity:1;fill-rule:nonzero;stroke:none"
               d="m 0,0 -7.047,1.771 c 0.29,0.303 0.6,0.416 0.867,0.347 L 0.878,0.347 C 0.608,0.409 0.296,0.303 0,0" />
          </g>
        </g>
      </g>
      <g
         transform="matrix(0.35277777,0,0,-0.35277777,-190.15831,530.14481)"
         id="g48244">
        <g
           clip-path="url(#clipPath48250)"
           id="g48246">
          <g
             transform="translate(449.5435,534.583)"
             id="g48252">
            <path
               inkscape:connector-curvature="0"
               id="path48254"
               style="fill:#36c0ea;fill-opacity:1;fill-rule:nonzero;stroke:none"
               d="m 0,0 -7.053,1.774 c -0.267,0.067 -0.488,0.307 -0.606,0.702 -0.233,0.803 0.05,1.942 0.637,2.546 L 0.025,3.252 C -0.556,2.646 -0.839,1.504 -0.604,0.706 -0.488,0.308 -0.267,0.069 0,0" />
          </g>
        </g>
      </g>
      <g
         transform="matrix(0.35277777,0,0,-0.35277777,-31.560566,340.40858)"
         id="g48264">
        <path
           inkscape:connector-curvature="0"
           id="path48266"
           style="fill:#69e3ff;fill-opacity:1;fill-rule:nonzero;stroke:none"
           d="M 0,0 C 0.583,0.601 1.246,0.441 1.476,-0.358 1.708,-1.158 1.429,-2.299 0.846,-2.903 0.262,-3.507 -0.396,-3.346 -0.629,-2.546 -0.864,-1.748 -0.581,-0.605 0,0" />
      </g>
      <g
         transform="matrix(0.35277777,0,0,-0.35277777,-28.935756,342.86116)"
         id="g48268">
        <path
           inkscape:connector-curvature="0"
           id="path48270"
           style="fill:#36c0ea;fill-opacity:1;fill-rule:nonzero;stroke:none"
           d="m 0,0 -0.549,-4.248 c -0.01,-0.093 -0.396,-0.224 -0.813,-0.224 -0.888,0 -1.754,0.1 -2.435,0.296 -0.604,0.172 -0.786,0.389 -0.775,0.455 l 0.546,4.278 c -0.015,-0.069 0.12,-0.16 0.404,-0.258 0.673,-0.231 1.937,-0.434 2.825,-0.444 C -0.285,-0.153 -0.009,-0.096 0,0" />
      </g>
      <g
         transform="matrix(0.35277777,0,0,-0.35277777,-29.079236,342.77157)"
         id="g48272">
        <path
           inkscape:connector-curvature="0"
           id="path48274"
           style="fill:#69e3ff;fill-opacity:1;fill-rule:nonzero;stroke:none"
           d="m 0,0 c 0.672,-0.233 0.497,-0.409 -0.391,-0.398 -0.887,0.009 -2.151,0.212 -2.824,0.443 -0.672,0.233 -0.496,0.413 0.391,0.4 C -1.935,0.436 -0.671,0.234 0,0" />
      </g>
      <g
         transform="matrix(0.35277777,0,0,-0.35277777,-31.707356,354.65232)"
         id="g48276">
        <path
           inkscape:connector-curvature="0"
           id="path48278"
           style="fill:#7a7978;fill-opacity:1;fill-rule:nonzero;stroke:none"
           d="m 0,0 -0.102,-0.683 c 0,0 -0.102,-0.263 1.16,-0.424 1.286,-0.165 1.252,0.06 1.252,0.06 l 0.1,0.772 z" />
      </g>
      <g
         transform="matrix(0.35277777,0,0,-0.35277777,-30.008556,342.42878)"
         id="g48280">
        <path
           inkscape:connector-curvature="0"
           id="path48282"
           style="fill:#7a7978;fill-opacity:1;fill-rule:nonzero;stroke:none"
           d="m 0,0 -0.098,-0.678 c 0,0 -0.101,-0.263 1.158,-0.425 1.284,-0.167 1.253,0.06 1.253,0.06 l 0.097,0.774 z" />
      </g>
      <g
         transform="matrix(0.35277777,0,0,-0.35277777,-31.231076,340.43684)"
         id="g48284">
        <path
           inkscape:connector-curvature="0"
           id="path48286"
           style="fill:#888786;fill-opacity:1;fill-rule:nonzero;stroke:none"
           d="m 0,0 c -0.201,0.048 -0.441,-0.037 -0.661,-0.27 -0.442,-0.457 -0.656,-1.322 -0.481,-1.928 0.092,-0.303 0.256,-0.485 0.457,-0.538 l 13.892,-3.472 c -0.203,0.048 -0.368,0.23 -0.456,0.535 -0.179,0.61 0.038,1.475 0.479,1.935 0.224,0.23 0.46,0.313 0.666,0.26 z" />
      </g>
      <g
         transform="matrix(0.35277777,0,0,-0.35277777,-26.563826,341.7556)"
         id="g48288">
        <path
           inkscape:connector-curvature="0"
           id="path48290"
           style="fill:#696868;fill-opacity:1;fill-rule:nonzero;stroke:none"
           d="M 0,0 C 0.442,0.457 0.941,0.337 1.118,-0.274 1.299,-0.882 1.084,-1.747 0.642,-2.206 0.201,-2.666 -0.305,-2.544 -0.479,-1.935 -0.658,-1.325 -0.441,-0.46 0,0" />
      </g>
      <g
         transform="matrix(0.35277777,0,0,-0.35277777,-12.654925,353.74522)"
         id="g48292">
        <path
           inkscape:connector-curvature="0"
           id="path48294"
           style="fill:#15abff;fill-opacity:1;fill-rule:nonzero;stroke:none"
           d="m 0,0 c 0.864,-1.002 0.834,-3.542 1.357,-5.683 0.221,-0.91 0.502,-2.67 0.812,-3.652 0.35,-1.104 0.91,-1.212 1.371,-1.406 0.313,-0.126 0.63,-0.151 0.933,-0.025 0.75,0.337 1.542,1.302 2.1,2.109 0.8,1.156 0.722,3.716 0.722,3.716 C 7.425,5.707 3.943,5.889 3.943,5.889 L 0.77,6.349 C 0.77,6.349 -1.586,1.845 0,0" />
      </g>
      <g
         transform="matrix(0.35277777,0,0,-0.35277777,-21.459727,345.47186)"
         id="g48296">
        <path
           inkscape:connector-curvature="0"
           id="path48298"
           style="fill:#ffe8d9;fill-opacity:1;fill-rule:nonzero;stroke:none"
           d="m 0,0 9.151,-14.535 c 0,0 1.35,-1.912 3.324,-2.674 4.463,-1.732 12.358,-6.299 12.561,-6.268 4.256,0.644 1.133,5.968 1.133,5.968 0,0 -4.071,4.216 -6.2,5.224 -2.035,0.963 -3.317,1.176 -3.317,1.176 L 10.709,4.604 Z" />
      </g>
      <g
         transform="matrix(0.35277777,0,0,-0.35277777,-25.534067,334.4482)"
         id="g48300">
        <path
           inkscape:connector-curvature="0"
           id="path48302"
           style="fill:#15abff;fill-opacity:1;fill-rule:nonzero;stroke:none"
           d="m 0,0 c -1.268,-3.16 -1.761,-8.356 -0.154,-13.818 0,0 1.633,-5.091 2.653,-8.356 0.469,-1.493 0.454,-5.678 -0.107,-6.636 -1.527,-2.618 -4.508,-8.374 -4.508,-8.604 0,0 8.122,-5.769 16.794,-4.641 10.739,1.389 18.707,10.786 18.707,10.786 -1.207,0.644 -7.238,6.281 -10.646,13.517 C 19.406,-10.68 17.36,-3.698 17.36,-3.698 14.032,2.215 5.952,2.644 5.952,2.644 5.952,2.644 0.857,2.153 0,0" />
      </g>
      <g
         transform="matrix(0.35277777,0,0,-0.35277777,-23.358345,333.50118)"
         id="g48304">
        <path
           inkscape:connector-curvature="0"
           id="path48306"
           style="fill:#e8c5ac;fill-opacity:1;fill-rule:nonzero;stroke:none"
           d="m 0,0 c -0.554,-0.459 -3.215,-1.614 -3.401,-1.63 -1.822,-1.947 -1.72,-7.398 -1.15,-8.856 1.048,-2.689 5.325,-4.225 8.187,4.035 0.656,1.888 2.707,3.386 4.688,3.341 C 4.023,0.916 0.783,0.135 0,0" />
      </g>
      <g
         transform="matrix(0.35277777,0,0,-0.35277777,-23.767605,335.06008)"
         id="g48308">
        <path
           inkscape:connector-curvature="0"
           id="path48310"
           style="fill:#e8c5ac;fill-opacity:1;fill-rule:nonzero;stroke:none"
           d="M 0,0 C 2.813,-2.078 7.83,1.206 6.406,3.254 4.397,6.146 3.438,9.76 3.438,9.76 L -0.898,7.177 Z" />
      </g>
      <g
         transform="matrix(0.35277777,0,0,-0.35277777,-25.615905,341.36288)"
         id="g48312">
        <path
           inkscape:connector-curvature="0"
           id="path48314"
           style="fill:#ffe8d9;fill-opacity:1;fill-rule:nonzero;stroke:none"
           d="m 0,0 c 0,0 -0.104,-2.659 0.28,-2.815 3.055,-1.205 11.927,-3.129 15.702,-0.639 1.02,0.673 1.205,2.529 1.205,2.529 0,0 1.06,10.712 0.753,13.779 -0.518,5.151 -5.162,3.689 -6.026,-0.304 C 11.575,10.971 12.021,3.899 11.326,1.124 11.163,0.48 0,0 0,0" />
      </g>
      <g
         transform="matrix(0.35277777,0,0,-0.35277777,-25.174405,328.9137)"
         id="g48316">
        <path
           inkscape:connector-curvature="0"
           id="path48318"
           style="fill:#ffe1cc;fill-opacity:1;fill-rule:nonzero;stroke:none"
           d="M 0,0 V -0.002 L 6.225,0.743 7.986,-9.669 c 0.012,-0.782 0.238,-2.49 -1.611,-4.656 0,0 -0.879,-1.236 -2.167,-2.171 -1.925,-1.406 -3.942,-0.922 -4.815,-0.321 -0.841,0.574 -2.57,1.766 -3.776,4.658 l -2.81,7.711 -0.121,3.61 z" />
      </g>
      <g
         transform="matrix(0.35277777,0,0,-0.35277777,-26.861636,327.64966)"
         id="g48320">
        <path
           inkscape:connector-curvature="0"
           id="path48322"
           style="fill:#633a11;fill-opacity:1;fill-rule:nonzero;stroke:none"
           d="m 0,0 c -5.128,-3.935 -1.955,-9.335 -1.985,-9.371 -0.024,-0.032 -0.69,2.98 -0.563,2.774 3.216,-5.144 9.965,-2.962 10.054,-2.962 0.042,0 -0.882,1.128 -1.004,1.286 -0.071,0.094 0.563,0.482 1.206,-0.202 0.063,-0.066 0.48,-0.68 1.005,-1.566 0.224,-0.382 1.203,-1.408 1.245,-1.259 0,0 -0.27,2.54 1.929,1.82 1.154,-0.381 0.67,-2.929 0.614,-3.084 l 1.587,-3.387 c 0.084,-0.168 -0.048,0.889 0.647,2.858 0.742,2.11 1.185,3.418 1.449,4.158 C 18.95,-1.084 10.893,4.554 3.811,2.167 2.461,1.711 0,0 0,0" />
      </g>
      <g
         transform="matrix(0.35277777,0,0,-0.35277777,-22.868797,330.56629)"
         id="g48324">
        <path
           inkscape:connector-curvature="0"
           id="path48326"
           style="fill:#ffe1cc;fill-opacity:1;fill-rule:nonzero;stroke:none"
           d="m 0,0 c -1.904,-0.207 -1.62,-3.119 -1.62,-3.119 0,0 0.585,-2.577 1.207,-2.627 0.94,-0.076 1.42,-0.051 1.72,0.882 0.02,0.051 0.657,2.028 0.684,2.108 C 2.472,-1.25 1.523,0.161 0,0" />
      </g>
      <path
         d="m -31.933847,339.32304 c 0,0 -0.65123,-0.16969 -1.21814,-0.16969 -0.28258,0 -0.89288,0.39723 -1.02059,0.60784 -0.078,0.13229 -0.11465,0.7807 0.0857,0.86466 0.19755,0.085 0.59372,0.12876 0.79339,0.15663 0.28011,0.0406 0.58103,-0.2921 0.79234,-0.48154 0.39723,-0.35384 1.08197,-0.0328 1.38924,0.0286 0.0698,0.0148 -0.19861,-0.6223 -0.82197,-1.00647"
         style="fill:#ffe1cc;fill-opacity:1;fill-rule:nonzero;stroke:none;stroke-width:0.35277778"
         id="path48330"
         inkscape:connector-curvature="0" />
      <g
         transform="matrix(0.35277777,0,0,-0.35277777,-190.15831,530.14481)"
         id="g48332">
        <g
           clip-path="url(#clipPath48338)"
           id="g48334">
          <g
             transform="translate(467.3325,533.4014)"
             id="g48340">
            <path
               inkscape:connector-curvature="0"
               id="path48342"
               style="fill:#36c0ea;fill-opacity:1;fill-rule:nonzero;stroke:none"
               d="m 0,0 -7.052,1.771 c 0.293,0.307 0.608,0.416 0.877,0.349 L 0.878,0.348 C 0.607,0.414 0.296,0.305 0,0" />
          </g>
        </g>
      </g>
      <g
         transform="matrix(0.35277777,0,0,-0.35277777,-190.15831,530.14481)"
         id="g48344">
        <g
           clip-path="url(#clipPath48350)"
           id="g48346">
          <g
             transform="translate(467.3037,530.1563)"
             id="g48352">
            <path
               inkscape:connector-curvature="0"
               id="path48354"
               style="fill:#36c0ea;fill-opacity:1;fill-rule:nonzero;stroke:none"
               d="m 0,0 -7.05,1.771 c -0.265,0.063 -0.489,0.305 -0.6,0.7 -0.235,0.804 0.045,1.945 0.627,2.546 L 0.029,3.245 C -0.551,2.643 -0.835,1.503 -0.601,0.701 -0.482,0.305 -0.267,0.064 0,0" />
          </g>
        </g>
      </g>
      <g
         transform="matrix(0.35277777,0,0,-0.35277777,-25.293785,341.97264)"
         id="g48364">
        <path
           inkscape:connector-curvature="0"
           id="path48366"
           style="fill:#69e3ff;fill-opacity:1;fill-rule:nonzero;stroke:none"
           d="M 0,0 C 0.583,0.604 1.244,0.446 1.477,-0.357 1.712,-1.156 1.427,-2.299 0.844,-2.901 0.267,-3.506 -0.398,-3.343 -0.629,-2.544 -0.864,-1.742 -0.58,-0.603 0,0" />
      </g>
      <g
         transform="matrix(0.35277777,0,0,-0.35277777,-25.318585,341.10795)"
         id="g48368">
        <path
           inkscape:connector-curvature="0"
           id="path48370"
           style="fill:#ffe8d9;fill-opacity:1;fill-rule:nonzero;stroke:none"
           d="M 0,0 C 0,0 -2.29,1.766 -3.894,1.929 -4.695,2.01 -6.402,0.79 -6.784,0.196 -7.469,-0.843 -7.46,-1.954 -6.947,-2.29 c 0.803,-0.522 1.863,-0.69 2.409,-0.842 1.004,-0.28 1.668,0.733 2.388,1.089 C -1.208,-1.567 0,-1.847 0.884,-2.052 1.08,-2.093 1.366,-1.004 0,0" />
      </g>
      <g
         transform="matrix(0.35277777,0,0,-0.35277777,-21.884685,329.05388)"
         id="g48372">
        <path
           inkscape:connector-curvature="0"
           id="path48374"
           style="fill:#633a11;fill-opacity:1;fill-rule:nonzero;stroke:none"
           d="m 0,0 c 1.023,-0.307 4.301,-0.104 5.633,-0.82 1.33,-0.715 2.252,0.513 3.89,-0.204 1.639,-0.717 2.559,-0.103 3.891,-0.511 1.332,-0.411 1.741,2.25 3.278,1.738 1.536,-0.51 2.149,0.718 3.069,0.718 0.923,0 1.744,1.637 2.358,1.126 0.614,-0.511 1.226,-1.945 -0.101,-1.945 -1.334,0 -1.23,-0.614 -3.177,-1.025 C 16.896,-1.333 17.613,-2.97 15.566,-3.074 13.518,-3.178 10.647,-3.892 9.933,-3.178 9.215,-2.459 8.91,-3.381 6.655,-2.766 4.403,-2.152 5.222,-3.892 3.075,-3.178 0.921,-2.459 0,0 0,0" />
      </g>
      <g
         transform="matrix(0.35277777,0,0,-0.35277777,-23.690585,327.13946)"
         id="g48376">
        <path
           inkscape:connector-curvature="0"
           id="path48378"
           style="fill:#633a11;fill-opacity:1;fill-rule:nonzero;stroke:none"
           d="m 0,0 c 1.024,-0.311 4.301,-0.104 5.631,-0.821 1.331,-0.716 2.252,0.51 3.891,-0.205 1.639,-0.716 2.561,-0.102 3.893,-0.511 1.33,-0.408 1.739,2.254 3.275,1.741 1.537,-0.515 2.152,0.717 3.072,0.717 0.923,0 1.742,1.639 2.357,1.127 C 22.732,1.534 23.347,0.1 22.015,0.1 20.685,0.1 20.787,-0.511 18.842,-0.923 16.895,-1.333 17.613,-2.97 15.563,-3.073 13.517,-3.175 10.648,-3.891 9.933,-3.175 9.215,-2.456 8.909,-3.38 6.656,-2.765 4.404,-2.15 5.223,-3.891 3.072,-3.175 0.922,-2.456 0,0 0,0" />
      </g>
      <g
         transform="matrix(0.35277777,0,0,-0.35277777,-14.189895,328.52543)"
         id="g48380">
        <path
           inkscape:connector-curvature="0"
           id="path48382"
           style="fill:#633a11;fill-opacity:1;fill-rule:nonzero;stroke:none"
           d="M 0,0 C 0,0 0.271,-1.056 1.158,-1.021 2.047,-0.989 3.512,-1.126 4.199,0.82 4.878,2.767 4.796,3.428 5.562,3.414 7.404,3.38 5.529,5.088 3.921,3.824 2.983,3.086 2.59,1.915 1.433,1.298 0.271,0.686 0,0 0,0" />
      </g>
      <g
         transform="matrix(0.35277777,0,0,-0.35277777,-15.734326,327.03061)"
         id="g48384">
        <path
           inkscape:connector-curvature="0"
           id="path48386"
           style="fill:#633a11;fill-opacity:1;fill-rule:nonzero;stroke:none"
           d="M 0,0 C 0,0 -1.058,0.273 -1.024,1.161 -0.99,2.048 -1.126,3.515 0.819,4.2 2.764,4.882 3.426,4.799 3.413,5.564 3.379,7.407 5.088,5.53 3.824,3.926 3.085,2.985 1.913,2.596 1.3,1.436 0.685,0.275 0,0 0,0" />
      </g>
      <g
         transform="matrix(0.35277777,0,0,-0.35277777,-13.969055,328.47272)"
         id="g48388">
        <path
           inkscape:connector-curvature="0"
           id="path48390"
           style="fill:#e52976;fill-opacity:1;fill-rule:nonzero;stroke:none"
           d="M 0,0 C -0.034,0 0.025,0.141 0.059,0.29 0.226,1.048 0.676,2.947 -0.074,2.761 -0.967,2.536 -3.28,0.969 -1.863,0.15 c 1.42,-0.819 0.448,-1.417 1.119,-2.609 0.67,-1.194 3.279,-0.075 3.132,0.671 C 2.237,-1.043 0.674,0.077 0,0" />
      </g>
      <g
         transform="matrix(0.35277777,0,0,-0.35277777,-15.860937,326.46594)"
         id="g48392">
        <path
           inkscape:connector-curvature="0"
           id="path48394"
           style="fill:#e52976;fill-opacity:1;fill-rule:nonzero;stroke:none"
           d="M 0,0 C -0.036,-0.004 0.027,0.15 0.058,0.309 0.237,1.104 0.71,3.104 -0.075,2.908 -1.02,2.672 -3.453,1.023 -1.961,0.159 -0.47,-0.704 -1.49,-1.334 -0.785,-2.592 -0.075,-3.846 2.673,-2.668 2.516,-1.883 2.354,-1.098 0.707,0.08 0,0" />
      </g>
      <g
         transform="matrix(0.35277777,0,0,-0.35277777,-12.654925,353.74522)"
         id="g48396">
        <path
           inkscape:connector-curvature="0"
           id="path48398"
           style="fill:#ffe8d9;fill-opacity:1;fill-rule:nonzero;stroke:none"
           d="M 0,0 C 0,0 1.178,-0.435 1.972,-6.193 2.316,-8.719 4.583,-7.911 4.633,-5.349 4.685,-2.792 5.223,3.637 1.459,6.042 -0.572,7.339 0,0 0,0" />
      </g>
    </g>
  </g>
</svg>
