<?xml version="1.0" encoding="UTF-8" standalone="no"?>
<!-- Created with Inkscape (http://www.inkscape.org/) -->

<svg
   xmlns:dc="http://purl.org/dc/elements/1.1/"
   xmlns:cc="http://creativecommons.org/ns#"
   xmlns:rdf="http://www.w3.org/1999/02/22-rdf-syntax-ns#"
   xmlns:svg="http://www.w3.org/2000/svg"
   xmlns="http://www.w3.org/2000/svg"
   xmlns:sodipodi="http://sodipodi.sourceforge.net/DTD/sodipodi-0.dtd"
   xmlns:inkscape="http://www.inkscape.org/namespaces/inkscape"
   width="2.7995601mm"
   height="6.2418885mm"
   viewBox="0 0 2.79956 6.2418884"
   version="1.1"
   id="svg45331"
   inkscape:version="0.92.2 (5c3e80d, 2017-08-06)"
   sodipodi:docname="people-business-24.svg">
  <defs
     id="defs45325">
    <clipPath
       id="clipPath2864"
       clipPathUnits="userSpaceOnUse">
      <path
         inkscape:connector-curvature="0"
         id="path2862"
         d="m 1713.778,1928.833 c -0.536,-0.312 -0.927,-0.874 -1.106,-1.65 v 0 l 1.125,0.653 c 0.179,0.778 0.57,1.34 1.107,1.651 v 0 z" />
    </clipPath>
    <clipPath
       id="clipPath2848"
       clipPathUnits="userSpaceOnUse">
      <path
         inkscape:connector-curvature="0"
         id="path2846"
         d="M 0,2119.953 H 3253.108 V 0 H 0 Z" />
    </clipPath>
    <clipPath
       id="clipPath2836"
       clipPathUnits="userSpaceOnUse">
      <path
         inkscape:connector-curvature="0"
         id="path2834"
         d="m 1711.152,1926.674 v -0.651 c 0.308,-0.179 0.813,-0.18 1.126,0 v 0 0.651 c -0.315,-0.183 -0.82,-0.178 -1.129,0" />
    </clipPath>
    <clipPath
       id="clipPath2820"
       clipPathUnits="userSpaceOnUse">
      <path
         inkscape:connector-curvature="0"
         id="path2818"
         d="M 0,2119.953 H 3253.108 V 0 H 0 Z" />
    </clipPath>
    <clipPath
       id="clipPath2808"
       clipPathUnits="userSpaceOnUse">
      <path
         inkscape:connector-curvature="0"
         id="path2806"
         d="m 1710.148,1926.8 c 0,-0.121 0.077,-0.238 0.231,-0.325 v 0 0.65 c -0.156,0.087 -0.233,0.207 -0.233,0.324 v 0 -0.649 z" />
    </clipPath>
    <clipPath
       id="clipPath2796"
       clipPathUnits="userSpaceOnUse">
      <path
         inkscape:connector-curvature="0"
         id="path2794"
         d="m 1714.756,1928.103 v -0.65 c 0.158,0.09 0.237,0.211 0.237,0.331 v 0 0.65 c 0,-0.119 -0.078,-0.24 -0.236,-0.331" />
    </clipPath>
    <clipPath
       id="clipPath2784"
       clipPathUnits="userSpaceOnUse">
      <path
         inkscape:connector-curvature="0"
         id="path2782"
         d="M 0,2119.953 H 3253.108 V 0 H 0 Z" />
    </clipPath>
    <clipPath
       id="clipPath2772"
       clipPathUnits="userSpaceOnUse">
      <path
         inkscape:connector-curvature="0"
         id="path2770"
         d="m 1720.53,1921.188 10e-4,-0.65 c 0.309,-0.181 0.814,-0.181 1.128,0 v 0 0.65 c -0.316,-0.182 -0.821,-0.181 -1.129,0" />
    </clipPath>
    <clipPath
       id="clipPath2756"
       clipPathUnits="userSpaceOnUse">
      <path
         inkscape:connector-curvature="0"
         id="path2754"
         d="M 0,2119.953 H 3253.108 V 0 H 0 Z" />
    </clipPath>
    <clipPath
       id="clipPath2744"
       clipPathUnits="userSpaceOnUse">
      <path
         inkscape:connector-curvature="0"
         id="path2742"
         d="m 1719.524,1921.312 c 0,-0.119 0.08,-0.235 0.234,-0.324 v 0 0.65 c -0.154,0.089 -0.233,0.207 -0.233,0.324 v 0 -0.65 z" />
    </clipPath>
    <clipPath
       id="clipPath2732"
       clipPathUnits="userSpaceOnUse">
      <path
         inkscape:connector-curvature="0"
         id="path2730"
         d="m 1724.133,1922.619 v -0.654 c 0.158,0.094 0.238,0.212 0.238,0.331 v 0 0.65 c 0,-0.117 -0.08,-0.238 -0.238,-0.327" />
    </clipPath>
    <clipPath
       id="clipPath2536"
       clipPathUnits="userSpaceOnUse">
      <path
         inkscape:connector-curvature="0"
         id="path2534"
         d="m 1708.77,1889.11 h 53.56 v -38.31 h -53.56 z" />
    </clipPath>
    <clipPath
       id="clipPath3428"
       clipPathUnits="userSpaceOnUse">
      <path
         inkscape:connector-curvature="0"
         id="path3426"
         d="m 1819.231,1919.634 0.051,-0.722 c 0.167,0.114 0.248,0.253 0.238,0.383 v 0 l -0.048,0.721 c 0.01,-0.131 -0.071,-0.272 -0.241,-0.382" />
    </clipPath>
    <clipPath
       id="clipPath3440"
       clipPathUnits="userSpaceOnUse">
      <path
         inkscape:connector-curvature="0"
         id="path3438"
         d="m 1814.225,1917.859 c 0.01,-0.132 0.103,-0.255 0.282,-0.343 v 0 l -0.049,0.721 c -0.177,0.085 -0.273,0.212 -0.281,0.34 v 0 z" />
    </clipPath>
    <clipPath
       id="clipPath3452"
       clipPathUnits="userSpaceOnUse">
      <path
         inkscape:connector-curvature="0"
         id="path3450"
         d="M 0,2119.953 H 3253.108 V 0 H 0 Z" />
    </clipPath>
    <clipPath
       id="clipPath3468"
       clipPathUnits="userSpaceOnUse">
      <path
         inkscape:connector-curvature="0"
         id="path3466"
         d="m 1815.349,1917.792 0.046,-0.72 c 0.354,-0.177 0.915,-0.14 1.248,0.082 v 0 l -0.048,0.721 c -0.335,-0.223 -0.893,-0.259 -1.246,-0.083" />
    </clipPath>
    <clipPath
       id="clipPath3480"
       clipPathUnits="userSpaceOnUse">
      <path
         inkscape:connector-curvature="0"
         id="path3478"
         d="M 0,2119.953 H 3253.108 V 0 H 0 Z" />
    </clipPath>
    <clipPath
       id="clipPath3492"
       clipPathUnits="userSpaceOnUse">
      <path
         inkscape:connector-curvature="0"
         id="path3490"
         d="m 1808.461,1925.033 0.049,-0.719 c 0.167,0.112 0.245,0.25 0.238,0.383 v 0 l -0.049,0.719 c 0.01,-0.131 -0.07,-0.268 -0.238,-0.383" />
    </clipPath>
    <clipPath
       id="clipPath3504"
       clipPathUnits="userSpaceOnUse">
      <path
         inkscape:connector-curvature="0"
         id="path3502"
         d="m 1803.454,1923.259 c 0.01,-0.132 0.102,-0.258 0.279,-0.342 v 0 l -0.048,0.72 c -0.177,0.086 -0.273,0.214 -0.28,0.342 v 0 z" />
    </clipPath>
    <clipPath
       id="clipPath3516"
       clipPathUnits="userSpaceOnUse">
      <path
         inkscape:connector-curvature="0"
         id="path3514"
         d="M 0,2119.953 H 3253.108 V 0 H 0 Z" />
    </clipPath>
    <clipPath
       id="clipPath3532"
       clipPathUnits="userSpaceOnUse">
      <path
         inkscape:connector-curvature="0"
         id="path3530"
         d="m 1804.576,1923.193 0.047,-0.721 c 0.353,-0.175 0.915,-0.14 1.248,0.081 v 0 l -0.049,0.722 c -0.333,-0.223 -0.894,-0.258 -1.246,-0.082" />
    </clipPath>
    <clipPath
       id="clipPath3544"
       clipPathUnits="userSpaceOnUse">
      <path
         inkscape:connector-curvature="0"
         id="path3542"
         d="M 0,2119.953 H 3253.108 V 0 H 0 Z" />
    </clipPath>
    <clipPath
       id="clipPath3560"
       clipPathUnits="userSpaceOnUse">
      <path
         inkscape:connector-curvature="0"
         id="path3558"
         d="m 1807.327,1925.772 c -0.572,-0.383 -0.964,-1.034 -1.106,-1.907 v 0 l 1.197,0.803 c 0.144,0.873 0.537,1.525 1.109,1.907 v 0 z" />
    </clipPath>
    <clipPath
       id="clipPath3240"
       clipPathUnits="userSpaceOnUse">
      <path
         inkscape:connector-curvature="0"
         id="path3238"
         d="m 1804.45,1875.26 h 66.26 v -26.97 h -66.26 z" />
    </clipPath>
    <clipPath
       id="clipPath3596"
       clipPathUnits="userSpaceOnUse">
      <path
         inkscape:connector-curvature="0"
         id="path3594"
         d="m 1887.55,1874.88 h 68.5 v -28.2 h -68.5 z" />
    </clipPath>
    <clipPath
       id="clipPath3760"
       clipPathUnits="userSpaceOnUse">
      <path
         inkscape:connector-curvature="0"
         id="path3758"
         d="m 1940.709,1921.043 c -0.01,-0.134 0.073,-0.277 0.243,-0.394 v 0 l 0.052,0.743 c -0.176,0.111 -0.256,0.256 -0.246,0.388 v 0 z" />
    </clipPath>
    <clipPath
       id="clipPath3772"
       clipPathUnits="userSpaceOnUse">
      <path
         inkscape:connector-curvature="0"
         id="path3770"
         d="m 1945.896,1919.955 -0.048,-0.737 c 0.182,0.088 0.281,0.215 0.289,0.351 v 0 l 0.048,0.737 c -0.01,-0.134 -0.106,-0.261 -0.289,-0.351" />
    </clipPath>
    <clipPath
       id="clipPath3784"
       clipPathUnits="userSpaceOnUse">
      <path
         inkscape:connector-curvature="0"
         id="path3782"
         d="M 0,2119.953 H 3253.108 V 0 H 0 Z" />
    </clipPath>
    <clipPath
       id="clipPath3800"
       clipPathUnits="userSpaceOnUse">
      <path
         inkscape:connector-curvature="0"
         id="path3798"
         d="m 1943.658,1918.845 c 0.343,-0.226 0.914,-0.264 1.28,-0.084 v 0 l 0.047,0.741 c -0.361,-0.182 -0.936,-0.146 -1.28,0.084 v 0 z" />
    </clipPath>
    <clipPath
       id="clipPath3812"
       clipPathUnits="userSpaceOnUse">
      <path
         inkscape:connector-curvature="0"
         id="path3810"
         d="M 0,2119.953 H 3253.108 V 0 H 0 Z" />
    </clipPath>
    <clipPath
       id="clipPath3824"
       clipPathUnits="userSpaceOnUse">
      <path
         inkscape:connector-curvature="0"
         id="path3822"
         d="m 1951.754,1926.58 c -0.01,-0.136 0.071,-0.278 0.241,-0.392 v 0 l 0.052,0.737 c -0.174,0.117 -0.253,0.258 -0.245,0.391 v 0 z" />
    </clipPath>
    <clipPath
       id="clipPath3836"
       clipPathUnits="userSpaceOnUse">
      <path
         inkscape:connector-curvature="0"
         id="path3834"
         d="m 1956.943,1925.491 -0.049,-0.737 c 0.18,0.088 0.277,0.215 0.287,0.352 v 0 l 0.049,0.737 c -0.01,-0.132 -0.104,-0.262 -0.287,-0.352" />
    </clipPath>
    <clipPath
       id="clipPath3848"
       clipPathUnits="userSpaceOnUse">
      <path
         inkscape:connector-curvature="0"
         id="path3846"
         d="M 0,2119.953 H 3253.108 V 0 H 0 Z" />
    </clipPath>
    <clipPath
       id="clipPath3864"
       clipPathUnits="userSpaceOnUse">
      <path
         inkscape:connector-curvature="0"
         id="path3862"
         d="m 1954.703,1924.383 c 0.34,-0.229 0.916,-0.262 1.279,-0.086 v 0 l 0.049,0.743 c -0.361,-0.183 -0.938,-0.15 -1.279,0.081 v 0 z" />
    </clipPath>
    <clipPath
       id="clipPath3876"
       clipPathUnits="userSpaceOnUse">
      <path
         inkscape:connector-curvature="0"
         id="path3874"
         d="M 0,2119.953 H 3253.108 V 0 H 0 Z" />
    </clipPath>
    <clipPath
       id="clipPath3892"
       clipPathUnits="userSpaceOnUse">
      <path
         inkscape:connector-curvature="0"
         id="path3890"
         d="m 1953.117,1926.55 1.227,-0.822 c -0.145,0.891 -0.551,1.561 -1.133,1.955 v 0 l -1.232,0.823 c 0.588,-0.393 0.989,-1.061 1.138,-1.956" />
    </clipPath>
    <clipPath
       id="clipPath3948"
       clipPathUnits="userSpaceOnUse">
      <path
         inkscape:connector-curvature="0"
         id="path3946"
         d="m 2018.76,1870.93 h 70.11 v -23.75 h -70.11 z" />
    </clipPath>
    <clipPath
       id="clipPath4212"
       clipPathUnits="userSpaceOnUse">
      <path
         inkscape:connector-curvature="0"
         id="path4210"
         d="m 2154.433,1916.311 c 0,-0.141 0.087,-0.289 0.273,-0.405 v 0 l 0.028,0.784 c -0.187,0.117 -0.276,0.264 -0.271,0.407 v 0 z" />
    </clipPath>
    <clipPath
       id="clipPath4224"
       clipPathUnits="userSpaceOnUse">
      <path
         inkscape:connector-curvature="0"
         id="path4222"
         d="m 2159.973,1915.328 -0.03,-0.782 c 0.192,0.1 0.289,0.239 0.295,0.381 v 0 l 0.027,0.785 c 0,-0.142 -0.103,-0.28 -0.292,-0.384" />
    </clipPath>
    <clipPath
       id="clipPath4236"
       clipPathUnits="userSpaceOnUse">
      <path
         inkscape:connector-curvature="0"
         id="path4234"
         d="M 0,2119.953 H 3253.108 V 0 H 0 Z" />
    </clipPath>
    <clipPath
       id="clipPath4252"
       clipPathUnits="userSpaceOnUse">
      <path
         inkscape:connector-curvature="0"
         id="path4250"
         d="m 2157.634,1914.081 c 0.368,-0.23 0.978,-0.251 1.357,-0.046 v 0 l 0.029,0.783 c -0.377,-0.203 -0.988,-0.185 -1.36,0.049 v 0 z" />
    </clipPath>
    <clipPath
       id="clipPath4264"
       clipPathUnits="userSpaceOnUse">
      <path
         inkscape:connector-curvature="0"
         id="path4262"
         d="M 0,2119.953 H 3253.108 V 0 H 0 Z" />
    </clipPath>
    <clipPath
       id="clipPath4276"
       clipPathUnits="userSpaceOnUse">
      <path
         inkscape:connector-curvature="0"
         id="path4274"
         d="m 2165.961,1922.544 c 0,-0.146 0.086,-0.293 0.271,-0.409 v 0 l 0.032,0.784 c -0.188,0.117 -0.279,0.265 -0.274,0.408 v 0 z" />
    </clipPath>
    <clipPath
       id="clipPath4288"
       clipPathUnits="userSpaceOnUse">
      <path
         inkscape:connector-curvature="0"
         id="path4286"
         d="m 2171.5,1921.561 -0.028,-0.785 c 0.189,0.101 0.287,0.239 0.293,0.379 v 0 l 0.028,0.787 c 0,-0.142 -0.102,-0.281 -0.293,-0.381" />
    </clipPath>
    <clipPath
       id="clipPath4300"
       clipPathUnits="userSpaceOnUse">
      <path
         inkscape:connector-curvature="0"
         id="path4298"
         d="M 0,2119.953 H 3253.108 V 0 H 0 Z" />
    </clipPath>
    <clipPath
       id="clipPath4316"
       clipPathUnits="userSpaceOnUse">
      <path
         inkscape:connector-curvature="0"
         id="path4314"
         d="m 2169.16,1920.31 c 0.37,-0.229 0.979,-0.249 1.359,-0.045 v 0 l 0.03,0.784 c -0.379,-0.201 -0.99,-0.186 -1.36,0.046 v 0 z" />
    </clipPath>
    <clipPath
       id="clipPath4328"
       clipPathUnits="userSpaceOnUse">
      <path
         inkscape:connector-curvature="0"
         id="path4326"
         d="M 0,2119.953 H 3253.108 V 0 H 0 Z" />
    </clipPath>
    <clipPath
       id="clipPath4344"
       clipPathUnits="userSpaceOnUse">
      <path
         inkscape:connector-curvature="0"
         id="path4342"
         d="m 2167.406,1922.556 1.331,-0.832 c -0.186,0.942 -0.633,1.637 -1.266,2.036 v 0 l -1.332,0.833 c 0.636,-0.396 1.084,-1.091 1.267,-2.037" />
    </clipPath>
    <clipPath
       id="clipPath4598"
       clipPathUnits="userSpaceOnUse">
      <path
         inkscape:connector-curvature="0"
         id="path4596"
         d="m 2331.633,1939.514 c 0,-0.142 0.1,-0.287 0.296,-0.396 v 0 0.783 c -0.196,0.107 -0.292,0.246 -0.292,0.387 v 0 -0.774 z" />
    </clipPath>
    <clipPath
       id="clipPath4610"
       clipPathUnits="userSpaceOnUse">
      <path
         inkscape:connector-curvature="0"
         id="path4608"
         d="m 2337.17,1938.719 v -0.771 c 0.189,0.099 0.285,0.249 0.285,0.379 v 0 0.787 c 0,-0.14 -0.091,-0.287 -0.283,-0.395" />
    </clipPath>
    <clipPath
       id="clipPath4622"
       clipPathUnits="userSpaceOnUse">
      <path
         inkscape:connector-curvature="0"
         id="path4620"
         d="M 0,2119.953 H 3253.108 V 0 H 0 Z" />
    </clipPath>
    <clipPath
       id="clipPath4638"
       clipPathUnits="userSpaceOnUse">
      <path
         inkscape:connector-curvature="0"
         id="path4636"
         d="m 2334.888,1938.187 v -0.785 c 0.382,-0.217 0.981,-0.217 1.349,0 v 0 0.785 c -0.368,-0.217 -0.963,-0.217 -1.349,0" />
    </clipPath>
    <clipPath
       id="clipPath4650"
       clipPathUnits="userSpaceOnUse">
      <path
         inkscape:connector-curvature="0"
         id="path4648"
         d="M 0,2119.953 H 3253.108 V 0 H 0 Z" />
    </clipPath>
    <clipPath
       id="clipPath4662"
       clipPathUnits="userSpaceOnUse">
      <path
         inkscape:connector-curvature="0"
         id="path4660"
         d="m 2342.868,1946.09 c 0,-0.141 0.101,-0.294 0.291,-0.401 v 0 l 0.01,0.777 c -0.195,0.113 -0.291,0.255 -0.291,0.401 v 0 z" />
    </clipPath>
    <clipPath
       id="clipPath4674"
       clipPathUnits="userSpaceOnUse">
      <path
         inkscape:connector-curvature="0"
         id="path4672"
         d="m 2348.401,1945.298 v -0.782 c 0.182,0.104 0.277,0.25 0.277,0.39 v 0 l 0.01,0.781 c 0,-0.143 -0.095,-0.282 -0.282,-0.389" />
    </clipPath>
    <clipPath
       id="clipPath4686"
       clipPathUnits="userSpaceOnUse">
      <path
         inkscape:connector-curvature="0"
         id="path4684"
         d="M 0,2119.953 H 3253.108 V 0 H 0 Z" />
    </clipPath>
    <clipPath
       id="clipPath4702"
       clipPathUnits="userSpaceOnUse">
      <path
         inkscape:connector-curvature="0"
         id="path4700"
         d="m 2346.127,1944.756 v -0.778 c 0.376,-0.212 0.982,-0.212 1.348,0 v 0 0.778 c -0.366,-0.213 -0.972,-0.213 -1.348,0" />
    </clipPath>
    <clipPath
       id="clipPath4714"
       clipPathUnits="userSpaceOnUse">
      <path
         inkscape:connector-curvature="0"
         id="path4712"
         d="M 0,2119.953 H 3253.108 V 0 H 0 Z" />
    </clipPath>
    <clipPath
       id="clipPath4730"
       clipPathUnits="userSpaceOnUse">
      <path
         inkscape:connector-curvature="0"
         id="path4728"
         d="m 2343.05,1948.089 c -0.023,0.013 -0.045,0.026 -0.068,0.038 v 0 z m 1.257,-1.939 1.349,-0.782 c -0.21,0.926 -0.683,1.603 -1.326,1.976 v 0 l -1.28,0.745 c 0.612,-0.371 1.048,-1.041 1.257,-1.939" />
    </clipPath>
    <clipPath
       id="clipPath4742"
       clipPathUnits="userSpaceOnUse">
      <path
         inkscape:connector-curvature="0"
         id="path4740"
         d="M 0,2119.953 H 3253.108 V 0 H 0 Z" />
    </clipPath>
    <clipPath
       id="clipPath4918"
       clipPathUnits="userSpaceOnUse">
      <path
         inkscape:connector-curvature="0"
         id="path4916"
         d="m 2276.169,1866.541 c 0,-0.151 0.1,-0.291 0.285,-0.401 v 0 0.785 c -0.19,0.105 -0.286,0.259 -0.286,0.394 v 0 -0.778 z" />
    </clipPath>
    <clipPath
       id="clipPath4930"
       clipPathUnits="userSpaceOnUse">
      <path
         inkscape:connector-curvature="0"
         id="path4928"
         d="m 2281.734,1865.741 -0.01,-0.776 c 0.185,0.103 0.278,0.244 0.278,0.385 v 0 0.786 c 0,-0.141 -0.096,-0.281 -0.276,-0.395" />
    </clipPath>
    <clipPath
       id="clipPath4942"
       clipPathUnits="userSpaceOnUse">
      <path
         inkscape:connector-curvature="0"
         id="path4940"
         d="M 0,2119.953 H 3253.108 V 0 H 0 Z" />
    </clipPath>
    <clipPath
       id="clipPath4958"
       clipPathUnits="userSpaceOnUse">
      <path
         inkscape:connector-curvature="0"
         id="path4956"
         d="m 2279.442,1865.203 v -0.782 c 0.372,-0.219 0.983,-0.219 1.351,0 v 0 0.782 c -0.372,-0.221 -0.983,-0.221 -1.355,0" />
    </clipPath>
    <clipPath
       id="clipPath4970"
       clipPathUnits="userSpaceOnUse">
      <path
         inkscape:connector-curvature="0"
         id="path4968"
         d="M 0,2119.953 H 3253.108 V 0 H 0 Z" />
    </clipPath>
    <clipPath
       id="clipPath4982"
       clipPathUnits="userSpaceOnUse">
      <path
         inkscape:connector-curvature="0"
         id="path4980"
         d="m 2287.467,1873.148 c 0,-0.144 0.095,-0.29 0.287,-0.404 v 0 0.786 c -0.191,0.114 -0.29,0.258 -0.29,0.404 v 0 -0.786 z" />
    </clipPath>
    <clipPath
       id="clipPath4994"
       clipPathUnits="userSpaceOnUse">
      <path
         inkscape:connector-curvature="0"
         id="path4992"
         d="m 2293.032,1872.36 v -0.782 c 0.191,0.096 0.282,0.241 0.282,0.378 v 0 0.788 c 0,-0.14 -0.094,-0.281 -0.281,-0.384" />
    </clipPath>
    <clipPath
       id="clipPath5006"
       clipPathUnits="userSpaceOnUse">
      <path
         inkscape:connector-curvature="0"
         id="path5004"
         d="M 0,2119.953 H 3253.108 V 0 H 0 Z" />
    </clipPath>
    <clipPath
       id="clipPath5022"
       clipPathUnits="userSpaceOnUse">
      <path
         inkscape:connector-curvature="0"
         id="path5020"
         d="m 2290.745,1871.81 -0.01,-0.78 c 0.377,-0.22 0.986,-0.214 1.353,0 v 0 0.78 c -0.371,-0.212 -0.98,-0.212 -1.351,0" />
    </clipPath>
    <clipPath
       id="clipPath5034"
       clipPathUnits="userSpaceOnUse">
      <path
         inkscape:connector-curvature="0"
         id="path5032"
         d="M 0,2119.953 H 3253.108 V 0 H 0 Z" />
    </clipPath>
    <clipPath
       id="clipPath5050"
       clipPathUnits="userSpaceOnUse">
      <path
         inkscape:connector-curvature="0"
         id="path5048"
         d="m 2288.91,1873.212 1.359,-0.784 c -0.216,0.934 -0.691,1.61 -1.337,1.987 v 0 l -1.356,0.791 c 0.652,-0.377 1.121,-1.054 1.334,-1.994" />
    </clipPath>
    <clipPath
       id="clipPath4408"
       clipPathUnits="userSpaceOnUse">
      <path
         inkscape:connector-curvature="0"
         id="path4406"
         d="m 2301.08,1906.05 h 45.97 v -31.57 h -45.97 z" />
    </clipPath>
    <clipPath
       id="clipPath4392"
       clipPathUnits="userSpaceOnUse">
      <path
         inkscape:connector-curvature="0"
         id="path4390"
         d="m 2227.58,1871.71 h 52.38 v -32.03 h -52.38 z" />
    </clipPath>
    <clipPath
       id="clipPath5114"
       clipPathUnits="userSpaceOnUse">
      <path
         inkscape:connector-curvature="0"
         id="path5112"
         d="m 2417.33,1884.9 h 51.88 v -27.05 h -51.88 z" />
    </clipPath>
    <clipPath
       id="clipPath5554"
       clipPathUnits="userSpaceOnUse">
      <path
         inkscape:connector-curvature="0"
         id="path5552"
         d="m 2532.68,1877.97 h 61.16 v -27.88 h -61.16 z" />
    </clipPath>
    <clipPath
       id="clipPath5662"
       clipPathUnits="userSpaceOnUse">
      <path
         inkscape:connector-curvature="0"
         id="path5660"
         d="m 2652.02,1878.72 h 75.96 v -28.55 h -75.96 z" />
    </clipPath>
    <clipPath
       id="clipPath5782"
       clipPathUnits="userSpaceOnUse">
      <path
         inkscape:connector-curvature="0"
         id="path5780"
         d="m 2686.34,2040.48 h 6.76 v -5.02 h -6.76 z" />
    </clipPath>
  </defs>
  <sodipodi:namedview
     id="base"
     pagecolor="#ffffff"
     bordercolor="#666666"
     borderopacity="1.0"
     inkscape:pageopacity="0.0"
     inkscape:pageshadow="2"
     inkscape:zoom="0.35"
     inkscape:cx="-760.61668"
     inkscape:cy="719.22316"
     inkscape:document-units="mm"
     inkscape:current-layer="layer1"
     showgrid="false"
     fit-margin-top="0"
     fit-margin-left="0"
     fit-margin-right="0"
     fit-margin-bottom="0"
     inkscape:window-width="1360"
     inkscape:window-height="706"
     inkscape:window-x="-8"
     inkscape:window-y="-8"
     inkscape:window-maximized="1" />
  <metadata
     id="metadata45328">
    <rdf:RDF>
      <cc:Work
         rdf:about="">
        <dc:format>image/svg+xml</dc:format>
        <dc:type
           rdf:resource="http://purl.org/dc/dcmitype/StillImage" />
        <dc:title></dc:title>
      </cc:Work>
    </rdf:RDF>
  </metadata>
  <g
     inkscape:label="Layer 1"
     inkscape:groupmode="layer"
     id="layer1"
     transform="translate(-123.76138,-605.02877)">
    <g
       transform="matrix(0.1,0,0,0.086,112.20773,585.70441)"
       id="g43651">
      <g
         transform="matrix(0.35277777,0,0,-0.35277777,-818.8386,949.9808)"
         id="g5656">
        <g
           id="g5658" />
        <g
           id="g5670">
          <g
             style="opacity:0.28999299"
             id="g5668"
             clip-path="url(#clipPath5662)">
            <g
               id="g5666"
               transform="translate(2718.5449,1865.7173)">
              <path
                 inkscape:connector-curvature="0"
                 id="path5664"
                 style="fill:#231f20;fill-opacity:1;fill-rule:nonzero;stroke:none"
                 d="m 0,0 c -19.143,-2.057 -12.464,-4.041 -12.464,-7.821 0,-5.343 -9.946,-7.731 -22.031,-7.731 -21.557,0 -32.026,7.986 -32.026,14.862 0,6.87 13.317,13.692 34.875,13.692 22.715,0 36.98,-2.282 40.552,-6.803 C 11.555,2.849 3.623,0.387 0,0" />
            </g>
          </g>
        </g>
      </g>
      <g
         transform="matrix(0.35277777,0,0,-0.35277777,134.09995,284.27881)"
         id="g5672">
        <path
           inkscape:connector-curvature="0"
           id="path5674"
           style="fill:#231f20;fill-opacity:1;fill-rule:nonzero;stroke:none"
           d="m 0,0 1.395,-2.946 c 0,0 13.181,-5.044 13.991,-5.45 0.923,-0.457 2.965,-1.271 2.646,-2.903 -0.071,-0.388 -0.064,-0.634 -0.344,-0.98 -0.995,-1.22 -2.933,-1.726 -4.72,-1.96 -3.891,-0.541 -11.974,0.768 -11.974,0.768 -2.355,0.331 -6.413,1.267 -6.837,1.603 0,0 -1.509,0.398 -2.242,0.207 -0.031,-0.008 -0.019,-1.345 0,-1.557 l -4.942,2.044 c -0.249,0.128 -0.624,2.423 -0.702,3.442 l 0.391,6.698 z" />
      </g>
      <g
         transform="matrix(0.35277777,0,0,-0.35277777,139.46602,288.91434)"
         id="g5676">
        <path
           inkscape:connector-curvature="0"
           id="path5678"
           style="fill:#282827;fill-opacity:1;fill-rule:nonzero;stroke:none"
           d="m 0,0 c -1.032,-0.43 -2.461,-0.623 -3.881,-0.74 -5.668,-0.458 -14.116,1.558 -14.116,1.558 -0.841,0.207 -2.941,0.72 -3.94,0.783 -0.355,0.022 -1.367,-0.087 -1.359,-0.122 0.008,0.152 0.042,-0.062 0,0 -0.011,0.018 0,-1.557 0,-1.557 l 1.433,0.772 c 0,0 0.013,0.215 4.719,-0.962 0,0 7.969,-2.079 13.673,-1.69 1.8,0.124 4.874,1.028 6.007,2.542 C 2.739,0.852 2.99,1.516 2.801,1.99 2.768,1.908 1.393,0.584 0,0" />
      </g>
      <g
         transform="matrix(0.35277777,0,0,-0.35277777,131.24774,288.3924)"
         id="g5680">
        <path
           inkscape:connector-curvature="0"
           id="path5682"
           style="fill:#282827;fill-opacity:1;fill-rule:nonzero;stroke:none"
           d="m 0,0 -5.438,2.455 c 0,0 0.368,-2.005 0.445,-1.975 L 0,-1.557 C -0.006,-1.397 -0.002,-0.413 0,0" />
      </g>
      <g
         transform="matrix(0.35277777,0,0,-0.35277777,132.94758,257.33781)"
         id="g5684">
        <path
           inkscape:connector-curvature="0"
           id="path5686"
           style="fill:#162a35;fill-opacity:1;fill-rule:nonzero;stroke:none"
           d="m 0,0 3.709,-74.458 c 0,-5.174 2.934,-4.956 2.631,-5.487 -2.038,-3.606 -16.016,-7.387 -17.945,-1.917 l -7.127,77.765 z" />
      </g>
      <g
         transform="matrix(0.35277777,0,0,-0.35277777,121.41614,288.74505)"
         id="g5688">
        <path
           inkscape:connector-curvature="0"
           id="path5690"
           style="fill:#383736;fill-opacity:1;fill-rule:nonzero;stroke:none"
           d="m 0,0 c 0,0 -0.254,-7.447 -0.273,-7.622 -0.288,-3.31 3.576,-11.782 9.182,-12.306 0.836,-0.077 3.769,0.191 3.769,0.191 0,0 3.836,0.132 3.111,6.843 -0.28,2.613 -2.961,13.137 -2.961,13.137 z" />
      </g>
      <g
         transform="matrix(0.35277777,0,0,-0.35277777,121.2277,288.08945)"
         id="g5692">
        <path
           inkscape:connector-curvature="0"
           id="path5694"
           style="fill:#231f20;fill-opacity:1;fill-rule:nonzero;stroke:none"
           d="m 0,0 c 0,0 0.436,-4.278 0.799,-9.84 0.22,-3.309 4.224,-10.326 9.168,-10.6 1.278,-0.065 2.29,0.051 2.37,0.056 2.139,0.11 5.049,0.882 3.87,7.721 -0.422,2.438 -2.154,11.85 -2.306,11.852 z" />
      </g>
      <g
         transform="matrix(0.35277777,0,0,-0.35277777,128.62741,258.15742)"
         id="g5696">
        <path
           inkscape:connector-curvature="0"
           id="path5698"
           style="fill:#365666;fill-opacity:1;fill-rule:nonzero;stroke:none"
           d="m 0,0 c -0.99,-13.477 -5.557,-92.298 -5.557,-92.298 -0.167,-1.887 -4.046,-3.888 -5.755,-3.879 -6.838,0.041 -9.541,4.428 -9.569,5.088 l -1.183,89.205 z" />
      </g>
      <g
         transform="matrix(0.35277777,0,0,-0.35277777,134.07857,260.2448)"
         id="g5700">
        <path
           inkscape:connector-curvature="0"
           id="path5702"
           style="fill:#e8c5ac;fill-opacity:1;fill-rule:nonzero;stroke:none"
           d="m 0,0 7.119,3.457 c 0,0 2.161,-3.033 5.183,-9.225 0.636,-1.303 0.699,-2.9 0.699,-2.9 0,0 1.053,-7.273 -5.374,-8.056 -0.578,-0.07 -3.362,-0.018 -3.362,-0.018 -0.549,0.418 -0.998,1.038 -0.864,1.774 0.123,0.692 0.063,2.632 -0.773,4.198 C 1.851,-9.32 0.149,-6.21 0.149,-6.21 -1.235,-3.996 -1.093,-0.798 0,0" />
      </g>
      <g
         transform="matrix(0.35277777,0,0,-0.35277777,135.02184,261.35996)"
         id="g5704">
        <path
           inkscape:connector-curvature="0"
           id="path5706"
           style="fill:#ffe1cc;fill-opacity:1;fill-rule:nonzero;stroke:none"
           d="m 0,0 c 0.454,-1.996 3.015,-3.776 5.023,-3.885 0.701,-0.034 0.762,-3.124 1.695,-4.616 0.983,-1.559 2.72,-0.752 3.019,-0.326 0.238,0.343 -1.132,5.27 -1.449,6.709 C 7.243,2.705 5.231,3.362 3.224,3.475 1.212,3.593 -0.485,2.119 0,0" />
      </g>
      <g
         transform="matrix(0.35277777,0,0,-0.35277777,135.85281,261.87347)"
         id="g5708">
        <path
           inkscape:connector-curvature="0"
           id="path5710"
           style="fill:#162a35;fill-opacity:1;fill-rule:nonzero;stroke:none"
           d="m 0,0 c -5.39,-2.392 -6.839,-1.747 -6.839,-1.747 0,0 -8.443,17.658 -10.983,26.403 -1.802,6.218 -5.69,24.101 -5.69,24.101 0,0 -4.74,15.553 1.925,19.022 2.164,1.12 4.361,0.472 6.462,-0.62 1.946,-1.009 6.952,-4.363 7.949,-10.08 0.698,-4.012 3.64,-26.105 4.069,-28.084 C -0.806,18.362 5.205,4.509 5.205,4.509 5.205,4.509 4.418,1.959 0,0" />
      </g>
      <g
         transform="matrix(0.35277777,0,0,-0.35277777,122.81896,241.01358)"
         id="g5712">
        <path
           inkscape:connector-curvature="0"
           id="path5714"
           style="fill:#d7dfe2;fill-opacity:1;fill-rule:nonzero;stroke:none"
           d="m 0,0 c 0,0 3.76,6.126 7.193,7.354 3.444,1.222 14.5,0.661 14.5,0.661 0,0 5.895,-11.862 5.953,-12.668 0.059,-0.814 -2.742,-22.149 -2.742,-22.149 l -14.748,10.823 z" />
      </g>
      <g
         transform="matrix(0.35277777,0,0,-0.35277777,132.50763,239.76214)"
         id="g5716">
        <path
           inkscape:connector-curvature="0"
           id="path5718"
           style="fill:#294354;fill-opacity:1;fill-rule:nonzero;stroke:none"
           d="m 0,0 c -1.718,3.055 -8.264,6.421 -10.347,6.685 2.94,-1.938 6.813,-8.244 7.444,-17.209 0.326,-4.682 -0.829,-16.665 -0.999,-16.397 -0.155,0.252 -9.808,17.759 -13.597,20.94 -0.539,0.453 -5.586,10.946 -5.586,10.946 0,0 -12.861,-10.667 -14.168,-12.843 l 0.299,-62.082 c 0.201,-1.414 -0.076,-1.904 1.513,-2.575 0,0 6.792,-3.76 20.483,-2.975 7.387,0.423 19.248,4.634 19.248,4.634 0.201,0.144 0.56,0.261 0.52,0.841 l -2.741,22.94 C 2.467,-22.781 3.934,-7.035 0,0" />
      </g>
      <g
         transform="matrix(0.35277777,0,0,-0.35277777,131.75177,265.48238)"
         id="g5720">
        <path
           inkscape:connector-curvature="0"
           id="path5722"
           style="fill:#162a35;fill-opacity:1;fill-rule:nonzero;stroke:none"
           d="m 0,0 -1.702,26.891 0.473,18.618 c 0,0 -0.809,1.647 -1.123,2.162 L -2.431,27.04 -0.845,-0.271 C -0.595,-0.211 -0.12,-0.069 0,0" />
      </g>
      <g
         transform="matrix(0.35277777,0,0,-0.35277777,129.8573,239.87961)"
         id="g5724">
        <path
           inkscape:connector-curvature="0"
           id="path5726"
           style="fill:#e8c5ac;fill-opacity:1;fill-rule:nonzero;stroke:none"
           d="m 0,0 c -5.294,-5.132 -10.618,1.048 -14.267,4.831 l 0.01,12.94 13.316,-3.201 z" />
      </g>
      <g
         transform="matrix(0.35277777,0,0,-0.35277777,130.10778,242.97196)"
         id="g5728">
        <path
           inkscape:connector-curvature="0"
           id="path5730"
           style="fill:#160b01;fill-opacity:1;fill-rule:nonzero;stroke:none"
           d="m 0,0 c -0.144,0.495 -0.503,1.015 -0.397,1.605 l 0.385,1.802 -2.686,3.671 -1.4,-0.249 -0.786,-4.158 1.915,-1.417 c 0.429,-0.365 1.001,-1.1 0.978,-1.621 l 1.383,-11.794 3.558,-5.368 c 0,0 1.087,4.013 1.036,5.348 C 3.802,-7.479 0,0 0,0" />
      </g>
      <g
         transform="matrix(0.35277777,0,0,-0.35277777,130.19353,238.26731)"
         id="g5732">
        <path
           inkscape:connector-curvature="0"
           id="path5734"
           style="fill:#365666;fill-opacity:1;fill-rule:nonzero;stroke:none"
           d="m 0,0 -0.728,0.896 c 0,0 -0.4,0.543 -0.15,0.405 1.408,-0.763 2.233,-2.017 2.823,-2.806 1.176,-1.578 4.192,-6.597 4.192,-6.597 0.607,-1.159 0.394,-2.005 -0.268,-2.851 l -1.901,-2.543 2.233,-1.43 c 1.447,-0.785 1.139,-2.618 0.805,-3.913 -1.171,-4.565 -4.115,-11.637 -4.115,-11.637 0,0 0.297,8.105 -0.202,12.855 C 1.579,-6.888 0,0 0,0" />
      </g>
      <g
         transform="matrix(0.35277777,0,0,-0.35277777,129.03291,240.22346)"
         id="g5736">
        <path
           inkscape:connector-curvature="0"
           id="path5738"
           style="fill:#ffffff;fill-opacity:1;fill-rule:nonzero;stroke:none"
           d="m 0,0 c -0.734,-0.612 -0.097,-1.358 0.352,-1.877 l 2.816,-3.221 c 0.894,-0.953 1.194,0.194 1.148,1.26 L 4.162,3.82 c -0.417,4.005 -2.3,4.308 -2.3,4.308 0,0 0.106,-0.971 0.075,-2.207 C 1.89,4.271 2.102,1.769 0,0" />
      </g>
      <g
         transform="matrix(0.35277777,0,0,-0.35277777,124.81302,236.68016)"
         id="g5740">
        <path
           inkscape:connector-curvature="0"
           id="path5742"
           style="fill:#ffffff;fill-opacity:1;fill-rule:nonzero;stroke:none"
           d="m 0,0 c 0,0 0.284,-2.569 0.809,-3.7 2.576,-5.585 10.096,-6.576 10.096,-6.576 0.881,-0.25 0.868,-0.646 0.817,-2.011 l -0.536,-5.004 c -0.057,-1.311 -0.798,-1.221 -1.396,-0.713 0,0 -5.95,4.208 -7.639,5.638 -3.964,3.371 -4.502,5.888 -3.422,10.481 C -0.899,-0.286 0,0 0,0" />
      </g>
      <g
         transform="matrix(0.35277777,0,0,-0.35277777,124.38651,237.25015)"
         id="g5744">
        <path
           inkscape:connector-curvature="0"
           id="path5746"
           style="fill:#365666;fill-opacity:1;fill-rule:nonzero;stroke:none"
           d="m 0,0 -2.877,-5.272 c 0,0 -0.52,-0.671 -0.345,-2.044 0.122,-0.975 0.65,-2.323 0.65,-2.323 l 3.609,-6.903 c 0.61,-1.647 1.309,-2.168 2.684,-2.187 l 4.867,-0.272 -1.495,-3.228 c -0.514,-1.041 -0.095,-1.597 0.863,-2.189 9.946,-6.153 11.646,-10.207 11.646,-10.207 0,0 0.025,4.442 -8.435,16.803 -2.155,3.153 -5.853,7.62 -8.473,11.238 C -0.718,-1.881 0,0 0,0" />
      </g>
      <g
         transform="matrix(0.35277777,0,0,-0.35277777,118.19841,265.98484)"
         id="g5748">
        <path
           inkscape:connector-curvature="0"
           id="path5750"
           style="fill:#e8c5ac;fill-opacity:1;fill-rule:nonzero;stroke:none"
           d="m 0,0 c -0.671,-1.782 1.496,-3.911 3.255,-4.554 0.612,-0.231 -0.048,-4.915 2.532,-5.689 0,0 0.434,1.162 1.115,3.225 0.057,0.168 0.989,1.8 0.293,3.443 C 5.372,0.782 5.256,1.527 3.5,2.176 1.738,2.818 0.671,1.776 0,0" />
      </g>
      <g
         transform="matrix(0.35277777,0,0,-0.35277777,117.19866,265.58088)"
         id="g5752">
        <path
           inkscape:connector-curvature="0"
           id="path5754"
           style="fill:#ffe1cc;fill-opacity:1;fill-rule:nonzero;stroke:none"
           d="M 0,0 5.407,-0.215 7.436,-0.832 7.043,-7.188 c 0,0 -0.118,-1.036 0.821,-2.238 0.374,-0.474 1.026,-1.299 1.026,-1.299 0,0 0.551,-3.752 -2.613,-3.213 -1.024,0.167 -1.805,0.857 -1.805,0.857 -1.367,0.081 -3.661,0.461 -5.183,0.629 -3.514,0.4 -2.963,4.257 -2.963,4.257 l 0.139,3.785 C -3.483,-2.299 -2.476,0.095 0,0" />
      </g>
      <g
         transform="matrix(0.35277777,0,0,-0.35277777,117.7106,266.88142)"
         id="g5756">
        <path
           inkscape:connector-curvature="0"
           id="path5758"
           style="fill:#365666;fill-opacity:1;fill-rule:nonzero;stroke:none"
           d="m 0,0 c -2.109,-0.138 -3.508,0.535 -3.508,0.535 0,0 -1.89,0.762 -2.051,2.366 -0.492,4.787 -0.853,25.784 -0.389,31.74 0.505,6.545 4.655,23.513 4.655,23.513 -0.017,-0.106 1.948,12.367 9.67,11.712 6.477,-0.55 7.035,-6.166 6.514,-11.401 C 14.474,54.342 8.813,32.022 8.813,32.022 L 6.905,2.797 C 6.905,2.797 4.898,0.311 0,0" />
      </g>
      <g
         transform="matrix(0.35277777,0,0,-0.35277777,128.38214,230.52377)"
         id="g5760">
        <path
           inkscape:connector-curvature="0"
           id="path5762"
           style="fill:#ffe8d9;fill-opacity:1;fill-rule:nonzero;stroke:none"
           d="M 0,0 C 2.61,-0.095 2.818,-2.613 2.818,-2.613 L 2.627,-7.865 c 0,0 -0.164,-1.137 -1.157,-1.294 -1.49,-0.263 -2.082,1.068 -2.7,2.515 -0.036,0.091 -0.804,2.227 -0.844,2.348 C -2.748,-2.471 -2.459,0.089 0,0" />
      </g>
      <g
         transform="matrix(0.35277777,0,0,-0.35277777,127.30174,227.37529)"
         id="g5764">
        <path
           inkscape:connector-curvature="0"
           id="path5766"
           style="fill:#efd3bf;fill-opacity:1;fill-rule:nonzero;stroke:none"
           d="m 0,0 0.004,-0.01 -9.648,-2.934 5.081,-17.509 c 0.494,-1.158 0.776,-2.245 1.267,-3.205 0.55,-1.045 1.367,-1.934 3.025,-2.547 0,0 1.846,-0.218 4.4,-0.441 1.167,-0.083 4.35,-0.182 5.509,0.057 4.214,0.843 4.519,5.114 4.323,6.63 -0.13,1 -0.4,3.332 -0.622,4.37 L 11.596,-4.826 9.447,4.695 Z" />
      </g>
      <g
         transform="matrix(0.35277777,0,0,-0.35277777,129.7357,225.23918)"
         id="g5768">
        <path
           inkscape:connector-curvature="0"
           id="path5770"
           style="fill:#56390f;fill-opacity:1;fill-rule:nonzero;stroke:none"
           d="m 0,0 c 3.168,-0.871 7.144,-2.986 6.561,-4.937 -0.975,-3.267 -2.484,-4.835 -3.388,-5.94 -1.652,-2.011 -2.317,-2.081 -2.404,-2.113 -0.084,-0.029 0.377,4.586 -1.508,4.167 -0.085,-0.018 -6.277,-1.732 -6.286,-5.284 -0.005,-2.707 0.455,-6.895 0.455,-6.895 -0.056,-0.917 -1.177,-0.197 -1.538,0 -0.639,0.347 -3.023,3.642 -3.795,2.787 0,0 0.578,-4.483 0.537,-4.741 -1.072,-7.117 -2.677,-6.624 -2.677,-6.624 -0.171,-0.03 -1.12,1.792 -2.162,3.312 -1.467,2.133 -3.341,5.049 -4.092,6.069 -6.144,8.378 -1.253,21.771 11.933,21.722 C -5.903,1.51 -2.05,0.563 0,0" />
      </g>
      <g
         transform="matrix(0.35277777,0,0,-0.35277777,125.33525,233.35358)"
         id="g5772">
        <path
           inkscape:connector-curvature="0"
           id="path5774"
           style="fill:#282827;fill-opacity:1;fill-rule:nonzero;stroke:none"
           d="m 0,0 c -0.107,-0.024 -0.309,0.115 -0.181,0.363 l 1.613,3.816 c 0.347,0.928 1.046,1.25 1.703,1.409 l 6.922,1.116 c 0.035,0.012 0.291,0.624 0.303,0.582 L 10.506,6.674 C 10.512,6.629 10.205,5.879 10.172,5.864 L 3.176,4.784 C 2.933,4.724 2.729,4.54 2.613,4.274 L 1.027,0.548 C 0.933,0.338 0.777,0.199 0.592,0.151 Z" />
      </g>
      <g
         transform="matrix(0.35277777,0,0,-0.35277777,-818.8386,949.9808)"
         id="g5776">
        <g
           id="g5778" />
        <g
           id="g5790">
          <g
             style="opacity:0.25999499"
             id="g5788"
             clip-path="url(#clipPath5782)">
            <g
               id="g5786"
               transform="translate(2687.4609,2039.1787)">
              <path
                 inkscape:connector-curvature="0"
                 id="path5784"
                 style="fill:#859393;fill-opacity:1;fill-rule:nonzero;stroke:none"
                 d="m 0,0 c -0.573,-0.179 -1.074,-0.7 -1.113,-1.493 -0.014,-0.348 -0.014,-0.407 0.002,-0.49 0.011,-0.063 0.018,-0.125 0.024,-0.306 0.011,-0.48 0.162,-0.827 0.465,-1.068 0.605,-0.485 1.67,-0.345 1.675,-0.345 0.097,0.003 0.57,0.025 2.136,0.489 l 0.082,0.028 c 2.491,0.327 2.301,2.052 2.317,2.067 0,0 -0.025,0.405 0.043,1.29 C 5.674,0.679 5.588,1.048 5.386,1.192 5.146,1.37 4.712,1.292 4.578,1.254 L 0.006,0 C 0.006,0 0.003,0.001 0,0" />
            </g>
          </g>
        </g>
      </g>
      <g
         transform="matrix(0.35277777,0,0,-0.35277777,129.39084,230.64851)"
         id="g5792">
        <path
           inkscape:connector-curvature="0"
           id="path5794"
           style="fill:#282827;fill-opacity:1;fill-rule:nonzero;stroke:none"
           d="m 0,0 c -0.521,-0.17 -0.974,-0.668 -1,-1.438 -0.015,-0.339 -0.006,-0.397 0,-0.472 0.012,-0.063 0.026,-0.127 0.026,-0.287 0.013,-0.477 0.148,-0.803 0.421,-1.028 0.559,-0.472 1.526,-0.347 1.537,-0.344 0.086,0.014 0.512,0.023 1.927,0.457 l 0.077,0.029 c 2.02,0.58 1.987,1.716 2.063,1.983 0.006,0.009 0.012,0.661 0.015,1.246 C 5.069,0.634 5.023,0.985 4.838,1.124 4.625,1.295 4.235,1.226 4.107,1.186 L 0.006,0 C 0.003,0.008 0.001,0 0,0 M 3.299,-3.931 3.201,-3.96 C 1.646,-4.463 1.145,-4.468 1.053,-4.466 1.021,-4.472 -0.26,-4.634 -1.124,-3.911 c -0.479,0.401 -0.731,0.982 -0.753,1.704 -0.007,0.103 -0.013,0.146 -0.015,0.186 -0.014,0.105 -0.03,0.178 -0.014,0.639 0.048,1.269 0.846,1.984 1.519,2.214 l 0.131,0.045 4.084,1.166 C 3.9,2.074 4.748,2.33 5.386,1.826 5.827,1.478 5.877,0.962 5.877,0.143 5.877,-1.049 5.706,-1.668 5.676,-1.714 5.646,-1.789 5.471,-3.17 3.299,-3.931" />
      </g>
      <g
         transform="matrix(0.35277777,0,0,-0.35277777,125.02866,231.05294)"
         id="g5796">
        <path
           inkscape:connector-curvature="0"
           id="path5798"
           style="fill:#efd3bf;fill-opacity:1;fill-rule:nonzero;stroke:none"
           d="m 0,0 c 2.885,1.105 4.846,-4.292 4.846,-4.292 l 0.959,-2.842 c 0,0 -0.955,-0.714 -1.838,-1.184 -1.324,-0.725 -3.018,0.093 -4.076,1.277 -0.064,0.07 -1.492,1.979 -1.552,2.104 C -2.814,-2.583 -2.313,-0.879 0,0" />
      </g>
      <g
         transform="matrix(0.35277777,0,0,-0.35277777,131.31079,230.38305)"
         id="g5800">
        <path
           inkscape:connector-curvature="0"
           id="path5802"
           style="fill:#282827;fill-opacity:1;fill-rule:nonzero;stroke:none"
           d="m 0,0 1.088,0.407 c 0,0 0.208,0.114 0.242,-0.322 l 0.033,-0.434 c 0,0 -0.101,-0.117 -0.522,-0.261 -0.42,-0.147 -0.772,-0.264 -0.772,-0.264 z" />
      </g>
    </g>
  </g>
</svg>
