<?xml version="1.0" encoding="UTF-8" standalone="no"?>
<!-- Created with Inkscape (http://www.inkscape.org/) -->

<svg
   xmlns:dc="http://purl.org/dc/elements/1.1/"
   xmlns:cc="http://creativecommons.org/ns#"
   xmlns:rdf="http://www.w3.org/1999/02/22-rdf-syntax-ns#"
   xmlns:svg="http://www.w3.org/2000/svg"
   xmlns="http://www.w3.org/2000/svg"
   xmlns:sodipodi="http://sodipodi.sourceforge.net/DTD/sodipodi-0.dtd"
   xmlns:inkscape="http://www.inkscape.org/namespaces/inkscape"
   width="1.8580672mm"
   height="5.9841537mm"
   viewBox="0 0 1.8580671 5.9841537"
   version="1.1"
   id="svg113590"
   inkscape:version="0.92.2 (5c3e80d, 2017-08-06)"
   sodipodi:docname="people-dancing-11.svg">
  <defs
     id="defs113584">
    <clipPath
       id="clipPath6938"
       clipPathUnits="userSpaceOnUse">
      <path
         inkscape:connector-curvature="0"
         id="path6936"
         d="m 332.31,670.939 h 80.557 V 627.742 H 332.31 Z" />
    </clipPath>
    <clipPath
       id="clipPath19962"
       clipPathUnits="userSpaceOnUse">
      <path
         inkscape:connector-curvature="0"
         id="path19960"
         d="m 509.182,647.722 h 56.485 v -19.98 h -56.485 z" />
    </clipPath>
    <clipPath
       id="clipPath19818"
       clipPathUnits="userSpaceOnUse">
      <path
         inkscape:connector-curvature="0"
         id="path19816"
         d="m 671.425,650.716 h 65.619 v -22.975 h -65.619 z" />
    </clipPath>
    <clipPath
       id="clipPath14734"
       clipPathUnits="userSpaceOnUse">
      <path
         inkscape:connector-curvature="0"
         id="path14732"
         d="m 800.948,651.727 h 68.678 v -23.986 h -68.678 z" />
    </clipPath>
    <clipPath
       id="clipPath14822"
       clipPathUnits="userSpaceOnUse">
      <path
         inkscape:connector-curvature="0"
         id="path14820"
         d="m 957.738,645.951 h 63.252 v -18.209 h -63.252 z" />
    </clipPath>
    <clipPath
       id="clipPath20130"
       clipPathUnits="userSpaceOnUse">
      <path
         inkscape:connector-curvature="0"
         id="path20128"
         d="m 1084.85,651.425 h 64.51 v -23.683 h -64.51 z" />
    </clipPath>
    <clipPath
       id="clipPath20722"
       clipPathUnits="userSpaceOnUse">
      <path
         inkscape:connector-curvature="0"
         id="path20720"
         d="m 1222.08,654.393 h 75.95 v -26.652 h -75.95 z" />
    </clipPath>
    <clipPath
       id="clipPath20266"
       clipPathUnits="userSpaceOnUse">
      <path
         inkscape:connector-curvature="0"
         id="path20264"
         d="m 1383.9,646.412 h 44.62 v -18.67 h -44.62 z" />
    </clipPath>
    <clipPath
       id="clipPath20442"
       clipPathUnits="userSpaceOnUse">
      <path
         inkscape:connector-curvature="0"
         id="path20440"
         d="m 1493.26,654.136 h 75.09 v -26.394 h -75.09 z" />
    </clipPath>
    <clipPath
       id="clipPath20366"
       clipPathUnits="userSpaceOnUse">
      <path
         inkscape:connector-curvature="0"
         id="path20364"
         d="m 1632.21,651.13 h 77.31 v -23.389 h -77.31 z" />
    </clipPath>
    <clipPath
       id="clipPath20538"
       clipPathUnits="userSpaceOnUse">
      <path
         inkscape:connector-curvature="0"
         id="path20536"
         d="m 1778.62,646.625 h 45.13 v -18.883 h -45.13 z" />
    </clipPath>
  </defs>
  <sodipodi:namedview
     id="base"
     pagecolor="#ffffff"
     bordercolor="#666666"
     borderopacity="1.0"
     inkscape:pageopacity="0.0"
     inkscape:pageshadow="2"
     inkscape:zoom="0.35"
     inkscape:cx="-825.19253"
     inkscape:cy="511.949"
     inkscape:document-units="mm"
     inkscape:current-layer="layer1"
     showgrid="false"
     inkscape:window-width="1360"
     inkscape:window-height="706"
     inkscape:window-x="-8"
     inkscape:window-y="-8"
     inkscape:window-maximized="1"
     fit-margin-top="0"
     fit-margin-left="0"
     fit-margin-right="0"
     fit-margin-bottom="0" />
  <metadata
     id="metadata113587">
    <rdf:RDF>
      <cc:Work
         rdf:about="">
        <dc:format>image/svg+xml</dc:format>
        <dc:type
           rdf:resource="http://purl.org/dc/dcmitype/StillImage" />
        <dc:title></dc:title>
      </cc:Work>
    </rdf:RDF>
  </metadata>
  <g
     inkscape:label="Layer 1"
     inkscape:groupmode="layer"
     id="layer1"
     transform="translate(-140.84707,-278.30235)">
    <g
       id="g37236"
       transform="matrix(0.1,0,0,0.086,127.59849,257.10311)">
      <g
         transform="matrix(0.35277777,0,0,-0.35277777,138.55018,266.08521)"
         id="g20524">
        <path
           inkscape:connector-curvature="0"
           id="path20526"
           style="fill:#eac49b;fill-opacity:1;fill-rule:nonzero;stroke:none"
           d="m 0,0 c 0,0 -3.955,0.752 -6.146,-6.813 -2.266,-7.828 -4.6,-22.816 -4.6,-22.816 0,0 2.869,-13.68 8.035,-21.392 1.824,-2.717 2.764,0.568 2.764,0.568 l -3.629,20.754 c 1.308,7.644 5.359,18.092 6.551,22.713 C 4.006,-2.998 1.578,-0.27 0,0" />
      </g>
      <g
         transform="matrix(0.35277777,0,0,-0.35277777,138.49785,283.34173)"
         id="g20528">
        <path
           inkscape:connector-curvature="0"
           id="path20530"
           style="fill:#eac49b;fill-opacity:1;fill-rule:nonzero;stroke:none"
           d="m 0,0 c 0,0 2.475,-6.129 2.73,-7.063 0.5,-1.818 0.12,-2.679 -0.521,-3.728 -0.643,-1.049 -2.488,-2.35 -2.488,-2.35 0,0 -2.895,-0.662 -3.153,0.539 -0.257,1.202 0.403,1.668 0.403,1.668 l 1.156,2.694 c 0,0 -1.441,5.105 -0.818,6.734 C -2.064,0.123 0,0 0,0" />
      </g>
      <g
         transform="matrix(0.35277777,0,0,-0.35277777,-494.97183,537.53945)"
         id="g20532">
        <g
           id="g20534" />
        <g
           id="g20546">
          <g
             style="opacity:0.28999299"
             id="g20544"
             clip-path="url(#clipPath20538)">
            <g
               id="g20542"
               transform="translate(1800.668,646.625)">
              <path
                 inkscape:connector-curvature="0"
                 id="path20540"
                 style="fill:#231f20;fill-opacity:1;fill-rule:nonzero;stroke:none"
                 d="m 0,0 c 13.719,0 23.082,-5.398 23.082,-10.541 0,-5.143 -15.613,-8.342 -29.338,-8.342 C -31.428,-18.883 -24.42,0 0,0" />
            </g>
          </g>
        </g>
      </g>
      <g
         transform="matrix(0.35277777,0,0,-0.35277777,136.7257,288.19446)"
         id="g20548">
        <path
           inkscape:connector-curvature="0"
           id="path20550"
           style="fill:#dba88d;fill-opacity:1;fill-rule:nonzero;stroke:none"
           d="m 0,0 c 0.184,-0.545 4.318,-8.5 7.586,-14.703 1.623,-3.076 2.295,-4.645 1.629,-6.074 -4.43,-9.528 -4.305,-26.561 -3.713,-28.352 0,0 3.223,-10.543 7.498,-9.85 0.609,0.104 1.449,0.249 1.225,0.803 -0.104,0.262 -2.37,3.799 -3.075,5.776 -1.212,3.394 7.018,28.638 7.018,28.638 0.721,2.41 1.103,3.934 0.518,7.545 C 18.244,-13.504 9.648,16.48 9.648,16.48 L 1.242,21.15 C 1.242,21.15 -3.598,10.707 0,0" />
      </g>
      <g
         transform="matrix(0.35277777,0,0,-0.35277777,140.28379,307.16453)"
         id="g20552">
        <path
           inkscape:connector-curvature="0"
           id="path20554"
           style="fill:#068439;fill-opacity:1;fill-rule:nonzero;stroke:none"
           d="m 0,0 c 0,0 1.197,-3.818 3.707,-3.834 0.346,-0.002 2.621,-3.432 2.621,-3.432 0,0 0.92,-1.306 0.02,-2.47 -0.903,-1.166 -3.467,-0.065 -5.143,0.658 -4.158,1.791 -5.16,5.033 -5.16,5.033 l -1.647,4.268 -1.943,-6.354 c 0,0 -0.582,0.09 -0.576,0.453 0.016,0.805 1.045,7.576 1.045,7.576 0,0 0.314,4.924 2.541,4.866 C -1.299,6.676 0,0 0,0" />
      </g>
      <g
         transform="matrix(0.35277777,0,0,-0.35277777,141.10645,289.51393)"
         id="g20556">
        <path
           inkscape:connector-curvature="0"
           id="path20558"
           style="fill:#eac49b;fill-opacity:1;fill-rule:nonzero;stroke:none"
           d="m 0,0 c 0.057,-0.592 3.854,-11.84 5.654,-18.873 0.899,-3.488 1.203,-5.229 0.19,-6.512 -6.75,-8.535 -10.713,-25.726 -10.545,-27.672 0,0 0.713,-11.396 5.189,-11.724 0.641,-0.041 1.83,-1.026 1.741,-0.414 -0.086,0.59 -1.788,4.484 -1.852,7.777 -0.07,3.734 13.768,26.879 13.768,26.879 1.306,2.256 2.212,3.687 2.334,7.475 0.334,10.496 -4.913,33.843 -4.913,33.843 L 7.871,18.77 C 7.871,18.77 -1.055,11.646 0,0" />
      </g>
      <g
         transform="matrix(0.35277777,0,0,-0.35277777,138.32629,269.13208)"
         id="g20560">
        <path
           inkscape:connector-curvature="0"
           id="path20562"
           style="fill:#dba88d;fill-opacity:1;fill-rule:nonzero;stroke:none"
           d="m 0,0 c 0.576,-1.424 -0.369,-4.105 2.975,-5.434 2.127,-0.841 5.923,6.139 8.728,8.918 0.438,0.434 -3.916,1.799 -5.187,10.903 -0.27,1.947 0.107,4.552 0.107,4.552 l -8.256,3.493 c 0,0 0.528,-7.94 1.27,-16.301 C -0.313,5.559 -0.682,1.684 0,0" />
      </g>
      <g
         transform="matrix(0.35277777,0,0,-0.35277777,143.58073,268.12676)"
         id="g20564">
        <path
           inkscape:connector-curvature="0"
           id="path20566"
           style="fill:#13ce63;fill-opacity:1;fill-rule:nonzero;stroke:none"
           d="m 0,0 c 0,0 4.957,-6.576 5.379,-10.063 0.16,-1.339 -1.742,-4.244 -3.209,-7.177 -1.092,-2.188 -2.293,-5.52 -1.975,-8.375 0.055,-0.479 0.639,-6.246 2.159,-10.672 3.24,-9.451 8.429,-22.719 8.429,-22.719 0,0 -0.31,-2.586 -9.16,-4.211 -17.955,-3.299 -21.117,2.631 -21.117,2.631 -0.414,0.387 -2.838,11.131 -1.375,18.457 1.23,6.149 5.66,14.744 5.637,16.465 -0.065,4.459 -1.192,9.68 -1.192,9.68 0,0 -2,8.273 -2.433,14.183 -0.319,4.34 0.777,6.196 2.964,7.516 0.547,0.334 4.717,0.332 7.713,-0.438 0,0 5.432,-0.511 8.18,-5.277" />
      </g>
      <g
         transform="matrix(0.35277777,0,0,-0.35277777,138.24567,261.44675)"
         id="g20568">
        <path
           inkscape:connector-curvature="0"
           id="path20570"
           style="fill:#eac49b;fill-opacity:1;fill-rule:nonzero;stroke:none"
           d="m 0,0 c 1.875,0.957 3.41,-1.611 3.41,-1.611 0,0 0.35,-2.801 0.877,-4.231 C 4.615,-6.711 2.504,-6.555 1.531,-5.605 1.467,-5.543 0.23,-4.445 0.152,-4.359 -1.004,-3.131 -1.768,-0.912 0,0" />
      </g>
      <g
         transform="matrix(0.35277777,0,0,-0.35277777,140.22523,310.54143)"
         id="g20572">
        <path
           inkscape:connector-curvature="0"
           id="path20574"
           style="fill:#0bad4d;fill-opacity:1;fill-rule:nonzero;stroke:none"
           d="m 0,0 c 0.32,-1.678 2.586,-4.896 4.533,-5.115 0.447,-0.051 1.479,-3.864 1.479,-3.864 0,0 0.189,-1.064 -0.69,-1.63 -1.283,-0.825 -3.83,0.464 -5.343,1.597 -3.762,2.799 -3.633,6.653 -3.633,6.653 l -0.635,4.695 -3.203,-5.32 c 0,0 -0.584,0.119 -0.471,0.591 0.197,0.813 3.082,7.686 3.082,7.686 0,0 1.293,4.764 3.764,3.139 C 0.789,7.18 -0.398,2.088 0,0" />
      </g>
      <g
         transform="matrix(0.35277777,0,0,-0.35277777,134.76267,258.71686)"
         id="g20576">
        <path
           inkscape:connector-curvature="0"
           id="path20578"
           style="fill:#e05e05;fill-opacity:1;fill-rule:nonzero;stroke:none"
           d="m 0,0 c 1.799,7.41 7.938,9.736 11.215,9.883 l -0.002,0.006 c 0,0 12.209,0.814 12.246,-11.004 0.035,-10.602 4.959,-10.324 4.959,-10.324 0,0 -3.48,-3.014 -5.225,-4.043 -3.711,-2.192 -8.113,-2.299 -8.113,-2.299 0,0 -20.072,-2.766 -15.08,17.781" />
      </g>
      <g
         transform="matrix(0.35277777,0,0,-0.35277777,141.3559,272.4545)"
         id="g20580">
        <path
           inkscape:connector-curvature="0"
           id="path20582"
           style="fill:#eac3a9;fill-opacity:1;fill-rule:nonzero;stroke:none"
           d="m 0,0 c 0,0 -1.391,1.17 -0.625,5.439 0.711,3.944 4.717,10.45 10.912,22.592 8.498,16.66 12.688,28.895 12.68,30.264 -0.006,0.519 -1.008,4.107 -1.434,6.262 -0.295,1.523 0.531,5.082 0.531,5.082 0,0 1.079,3.027 2.647,3.81 1.48,0.74 2.111,-2.295 1.904,-3.494 -0.529,-3.068 0.709,-5.256 0.848,-7.303 0.105,-1.588 0.211,-2.433 -0.861,-4.281 C 26.152,57.592 24.383,39.605 18.646,28.256 13.332,17.725 11.563,13.27 9.369,8.391 7.178,3.518 4.369,-4.184 0,0" />
      </g>
    </g>
  </g>
</svg>
