<?xml version="1.0" encoding="UTF-8" standalone="no"?>
<!-- Created with Inkscape (http://www.inkscape.org/) -->

<svg
   xmlns:dc="http://purl.org/dc/elements/1.1/"
   xmlns:cc="http://creativecommons.org/ns#"
   xmlns:rdf="http://www.w3.org/1999/02/22-rdf-syntax-ns#"
   xmlns:svg="http://www.w3.org/2000/svg"
   xmlns="http://www.w3.org/2000/svg"
   xmlns:sodipodi="http://sodipodi.sourceforge.net/DTD/sodipodi-0.dtd"
   xmlns:inkscape="http://www.inkscape.org/namespaces/inkscape"
   width="2.9117525mm"
   height="5.3926916mm"
   viewBox="0 0 2.9117525 5.3926916"
   version="1.1"
   id="svg113590"
   inkscape:version="0.92.2 (5c3e80d, 2017-08-06)"
   sodipodi:docname="people-dancing-10.svg">
  <defs
     id="defs113584">
    <clipPath
       id="clipPath6938"
       clipPathUnits="userSpaceOnUse">
      <path
         inkscape:connector-curvature="0"
         id="path6936"
         d="m 332.31,670.939 h 80.557 V 627.742 H 332.31 Z" />
    </clipPath>
    <clipPath
       id="clipPath19962"
       clipPathUnits="userSpaceOnUse">
      <path
         inkscape:connector-curvature="0"
         id="path19960"
         d="m 509.182,647.722 h 56.485 v -19.98 h -56.485 z" />
    </clipPath>
    <clipPath
       id="clipPath19818"
       clipPathUnits="userSpaceOnUse">
      <path
         inkscape:connector-curvature="0"
         id="path19816"
         d="m 671.425,650.716 h 65.619 v -22.975 h -65.619 z" />
    </clipPath>
    <clipPath
       id="clipPath14734"
       clipPathUnits="userSpaceOnUse">
      <path
         inkscape:connector-curvature="0"
         id="path14732"
         d="m 800.948,651.727 h 68.678 v -23.986 h -68.678 z" />
    </clipPath>
    <clipPath
       id="clipPath14822"
       clipPathUnits="userSpaceOnUse">
      <path
         inkscape:connector-curvature="0"
         id="path14820"
         d="m 957.738,645.951 h 63.252 v -18.209 h -63.252 z" />
    </clipPath>
    <clipPath
       id="clipPath20130"
       clipPathUnits="userSpaceOnUse">
      <path
         inkscape:connector-curvature="0"
         id="path20128"
         d="m 1084.85,651.425 h 64.51 v -23.683 h -64.51 z" />
    </clipPath>
    <clipPath
       id="clipPath20722"
       clipPathUnits="userSpaceOnUse">
      <path
         inkscape:connector-curvature="0"
         id="path20720"
         d="m 1222.08,654.393 h 75.95 v -26.652 h -75.95 z" />
    </clipPath>
    <clipPath
       id="clipPath20266"
       clipPathUnits="userSpaceOnUse">
      <path
         inkscape:connector-curvature="0"
         id="path20264"
         d="m 1383.9,646.412 h 44.62 v -18.67 h -44.62 z" />
    </clipPath>
    <clipPath
       id="clipPath20442"
       clipPathUnits="userSpaceOnUse">
      <path
         inkscape:connector-curvature="0"
         id="path20440"
         d="m 1493.26,654.136 h 75.09 v -26.394 h -75.09 z" />
    </clipPath>
    <clipPath
       id="clipPath20366"
       clipPathUnits="userSpaceOnUse">
      <path
         inkscape:connector-curvature="0"
         id="path20364"
         d="m 1632.21,651.13 h 77.31 v -23.389 h -77.31 z" />
    </clipPath>
  </defs>
  <sodipodi:namedview
     id="base"
     pagecolor="#ffffff"
     bordercolor="#666666"
     borderopacity="1.0"
     inkscape:pageopacity="0.0"
     inkscape:pageshadow="2"
     inkscape:zoom="0.35"
     inkscape:cx="-172.51229"
     inkscape:cy="403.76088"
     inkscape:document-units="mm"
     inkscape:current-layer="layer1"
     showgrid="false"
     inkscape:window-width="1360"
     inkscape:window-height="706"
     inkscape:window-x="-8"
     inkscape:window-y="-8"
     inkscape:window-maximized="1"
     fit-margin-top="0"
     fit-margin-left="0"
     fit-margin-right="0"
     fit-margin-bottom="0" />
  <metadata
     id="metadata113587">
    <rdf:RDF>
      <cc:Work
         rdf:about="">
        <dc:format>image/svg+xml</dc:format>
        <dc:type
           rdf:resource="http://purl.org/dc/dcmitype/StillImage" />
        <dc:title></dc:title>
      </cc:Work>
    </rdf:RDF>
  </metadata>
  <g
     inkscape:label="Layer 1"
     inkscape:groupmode="layer"
     id="layer1"
     transform="translate(31.84125,-250.26905)">
    <g
       id="g37088"
       transform="matrix(0.1,0,0,0.086,-27.346836,231.21037)">
      <g
         transform="matrix(0.35277777,0,0,-0.35277777,-33.851007,232.67402)"
         id="g20348">
        <path
           inkscape:connector-curvature="0"
           id="path20350"
           style="fill:#dbb295;fill-opacity:1;fill-rule:nonzero;stroke:none"
           d="m 0,0 c 0,0 -5.961,1.064 -18.217,-21.813 -1.455,-2.718 -1.961,-6.697 2.289,-8.167 4.248,-1.471 21.567,-3.596 21.567,-3.596 l 0.816,21.242 z" />
      </g>
      <g
         transform="matrix(0.35277777,0,0,-0.35277777,-34.455289,232.35708)"
         id="g20352">
        <path
           inkscape:connector-curvature="0"
           id="path20354"
           style="fill:#efca2e;fill-opacity:1;fill-rule:nonzero;stroke:none"
           d="M 0,0 C 0.461,-0.066 3.709,-0.748 4.166,-0.898 L 6.422,-9.934 C 4.92,-15.098 1.174,-21.355 1.174,-21.355 c -6.92,-1.127 -11.447,3.042 -13.641,5.834 C -6.535,-1.797 -4.33,-0.654 0,0" />
      </g>
      <g
         transform="matrix(0.35277777,0,0,-0.35277777,-27.98538,251.70129)"
         id="g20356">
        <path
           inkscape:connector-curvature="0"
           id="path20358"
           style="fill:#37698c;fill-opacity:1;fill-rule:nonzero;stroke:none"
           d="m 0,0 c -0.164,-2.676 -1.873,-29.982 -3.822,-39.248 -1.315,-6.244 -13.168,-16.098 -13.168,-16.098 -4.045,-3.459 -10.93,-10.541 -10.93,-10.541 -2.441,9.752 -5.129,10.848 -5.615,11.576 0,0 6.611,7.926 15.359,16.995 4.41,4.576 1.045,22.404 0.975,33.697 C -17.225,0.078 0.225,3.689 0,0" />
      </g>
      <g
         transform="matrix(0.35277777,0,0,-0.35277777,-620.75264,505.77156)"
         id="g20360">
        <g
           id="g20362" />
        <g
           id="g20374">
          <g
             style="opacity:0.27000403"
             id="g20372"
             clip-path="url(#clipPath20366)">
            <g
               id="g20370"
               transform="translate(1693.0898,644.127)">
              <path
                 inkscape:connector-curvature="0"
                 id="path20368"
                 style="fill:#231f20;fill-opacity:1;fill-rule:nonzero;stroke:none"
                 d="m 0,0 c -4.662,1.957 -0.871,0.107 -5.807,4.813 -2.111,2.011 -14.597,2.648 -21.746,1.865 -9.615,-1.063 -35.949,-2.483 -33.111,-13.51 1.771,-6.877 33.148,-11.459 57.279,-8.775 13.098,1.455 22.475,6.269 19.133,10.246 C 13.49,-2.68 2.086,-0.879 0,0" />
            </g>
          </g>
        </g>
      </g>
      <g
         transform="matrix(0.35277777,0,0,-0.35277777,-37.9176,273.1739)"
         id="g20376">
        <path
           inkscape:connector-curvature="0"
           id="path20378"
           style="fill:#f76943;fill-opacity:1;fill-rule:nonzero;stroke:none"
           d="m 0,0 c 0,0 -0.936,7.865 -5.275,7.709 -0.934,-0.031 -3.745,-1.576 -5.229,-2.93 -0.715,-0.656 -3.275,-3.072 -1.117,-6.22 1.053,-1.543 3.447,-4.372 5.289,-8.12 1.846,-3.748 5.105,-8.486 6.357,-9.429 2.428,-1.824 5.637,-2.52 4.256,2.06 C 3.107,-13.031 0.869,-4.91 3.219,-2.354 4.982,-0.43 0,0 0,0" />
      </g>
      <g
         transform="matrix(0.35277777,0,0,-0.35277777,-36.349388,280.11646)"
         id="g20380">
        <path
           inkscape:connector-curvature="0"
           id="path20382"
           style="fill:#fafcfc;fill-opacity:1;fill-rule:nonzero;stroke:none"
           d="m 0,0 c -0.395,1.373 -2.205,3.021 -3.063,4.244 -1.138,1.621 -4.826,7.572 -5.808,9.893 -0.981,2.32 -2.008,6.529 -4.762,8.992 -0.664,0.596 -1.254,0.844 -1.777,0.879 -0.955,-1.002 -2.469,-3.123 -0.656,-5.77 1.052,-1.543 3.447,-4.371 5.289,-8.119 C -8.932,6.371 -5.672,1.633 -4.42,0.689 -2.701,-0.605 -0.6,-1.318 0,0" />
      </g>
      <g
         transform="matrix(0.35277777,0,0,-0.35277777,-36.735918,280.38792)"
         id="g20384">
        <path
           inkscape:connector-curvature="0"
           id="path20386"
           style="fill:#81959b;fill-opacity:1;fill-rule:nonzero;stroke:none"
           d="m 0,0 c -0.049,0.119 -0.096,0.232 -0.131,0.344 -0.576,1.676 -6.721,8.429 -8.76,13.381 -2.035,4.951 -1.75,7.83 -5.535,9.463 -0.334,0.142 -0.619,0.208 -0.887,0.238 -0.595,-1.123 -0.867,-2.658 0.342,-4.418 1.053,-1.543 4.092,-6.076 4.701,-10.209 C -9.805,5.658 -7.432,3.604 -6.18,2.662 -4.922,1.715 -1.107,-0.301 0,0" />
      </g>
      <g
         transform="matrix(0.35277777,0,0,-0.35277777,-18.912389,238.02633)"
         id="g20388">
        <path
           inkscape:connector-curvature="0"
           id="path20390"
           style="fill:#f7cbad;fill-opacity:1;fill-rule:nonzero;stroke:none"
           d="m 0,0 c 0,0 -1.4,5.09 -0.924,6.758 0.369,1.301 0.475,1.416 1.158,1.853 0.424,0.27 1.948,-0.056 1.948,-0.056 0,0 1.746,3.66 2.121,3.758 0.377,0.097 1.717,0.882 2.713,-1.297 2.099,-4.59 1.701,-6.873 1.701,-6.873 0,0 -2.83,-8.237 -3.912,-9.336 C 2.184,-7.854 0,0 0,0" />
      </g>
      <g
         transform="matrix(0.35277777,0,0,-0.35277777,-33.68424,233.04745)"
         id="g20392">
        <path
           inkscape:connector-curvature="0"
           id="path20394"
           style="fill:#f7cbad;fill-opacity:1;fill-rule:nonzero;stroke:none"
           d="m 0,0 c 0,0 3.164,3.953 4.586,8.857 0.666,2.297 9.039,-0.916 9.039,-0.916 0,0 -1.254,-6.468 -2.375,-11.171 C 10.207,-7.605 1.139,-1.711 0,0" />
      </g>
      <g
         transform="matrix(0.35277777,0,0,-0.35277777,-28.0674,278.85072)"
         id="g20396">
        <path
           inkscape:connector-curvature="0"
           id="path20398"
           style="fill:#fafcfc;fill-opacity:1;fill-rule:nonzero;stroke:none"
           d="m 0,0 c 0,0 -2.285,-1.879 -2.393,-5.104 -0.109,-3.226 -0.029,-4.087 0.748,-4.71 0.78,-0.631 3.436,-1.336 5.459,-1.131 2.026,0.213 4.819,1.843 6.399,2.496 1.185,0.49 0.564,0.209 5.064,1.144 7,1.451 8.823,3.889 9.52,5.424 0.275,0.598 0.26,3.395 -0.434,3.865 C 20.268,4.754 11.518,-0.959 9.797,1.076 8.08,3.107 0,0 0,0" />
      </g>
      <g
         transform="matrix(0.35277777,0,0,-0.35277777,-28.194162,278.22853)"
         id="g20400">
        <path
           inkscape:connector-curvature="0"
           id="path20402"
           style="fill:#f76943;fill-opacity:1;fill-rule:nonzero;stroke:none"
           d="m 0,0 c 0,0 -1.549,-1.615 -1.887,-4.842 -0.269,-2.551 -0.246,-4.355 0.533,-4.984 0.782,-0.625 3.016,-1.324 5.038,-1.039 1.611,0.23 2.978,0.74 4.179,1.211 2,0.783 3.168,1.013 6.635,1.761 5.367,1.159 10.332,4.028 10.824,6.479 C 25.611,0.039 23.18,1.904 19.105,1.455 13.252,0.814 11.211,0.68 9.797,1.072 7.141,1.818 0,0 0,0" />
      </g>
      <g
         transform="matrix(0.35277777,0,0,-0.35277777,-27.020074,250.16753)"
         id="g20404">
        <path
           inkscape:connector-curvature="0"
           id="path20406"
           style="fill:#4f81aa;fill-opacity:1;fill-rule:nonzero;stroke:none"
           d="m 0,0 c 11.109,-26.633 14.568,-39.771 14.215,-38.889 0.98,-2.449 1.644,-8.545 -0.326,-15.683 -2.553,-9.235 -6.258,-25.936 -5.664,-25.272 -0.409,-0.461 -0.491,-2.558 -4.303,-5.283 -3.459,-2.469 -10.022,-2.34 -9.369,1.635 0,0 0.875,8.599 2.562,17.047 1.768,8.861 4.352,17.619 4.194,19.226 -0.95,9.492 -14.477,24.985 -17.485,34.475 C -17.445,-8.729 -8.014,19.211 0,0" />
      </g>
      <g
         transform="matrix(0.35277777,0,0,-0.35277777,-28.553837,223.52592)"
         id="g20408">
        <path
           inkscape:connector-curvature="0"
           id="path20410"
           style="fill:#f7cbad;fill-opacity:1;fill-rule:nonzero;stroke:none"
           d="M 0,0 6.939,-0.061 6.076,-17.99 c -0.142,-5.141 -2.287,-5.989 -3.842,-6.051 -3.226,-0.127 -6.867,1.576 -8.707,2.59 -3.56,1.963 -3.675,7.963 -3.718,8.453 l -1.497,11.908 z" />
      </g>
      <g
         transform="matrix(0.35277777,0,0,-0.35277777,-25.74674,222.86997)"
         id="g20412">
        <path
           inkscape:connector-curvature="0"
           id="path20414"
           style="fill:#ce7805;fill-opacity:1;fill-rule:nonzero;stroke:none"
           d="m 0,0 c -0.75,-1.404 -0.982,-4.813 -1.24,-4.672 -3.922,2.125 -2.783,-6 -2.942,-8.006 0,0 -0.244,-2.697 -1.062,-2.367 -0.717,0.285 -0.162,7.514 -3.84,1.549 0,0 -2.057,-4.524 -3.92,-6.125 -3.369,-2.887 -5.391,-1.346 -5.31,-1.553 0.056,-0.146 -0.573,1.879 -1.635,5.799 -2.145,7.924 -3.432,11.643 -1.633,14.789 1.896,3.318 7.658,4.746 12.498,3.922 C -5.016,2.637 0,0 0,0" />
      </g>
      <g
         transform="matrix(0.35277777,0,0,-0.35277777,-27.803479,226.75741)"
         id="g20416">
        <path
           inkscape:connector-curvature="0"
           id="path20418"
           style="fill:#efccaf;fill-opacity:1;fill-rule:nonzero;stroke:none"
           d="m 0,0 c 0,0 -1.434,-0.34 -1.785,-2.047 -0.25,-1.209 0.236,-2.16 0.49,-2.437 0.67,-0.731 1.328,-0.844 1.328,-0.844 0,0 -0.24,2.828 -0.25,3.355 C -0.227,-1.449 0,0 0,0" />
      </g>
      <g
         transform="matrix(0.35277777,0,0,-0.35277777,-27.576122,226.52246)"
         id="g20420">
        <path
           inkscape:connector-curvature="0"
           id="path20422"
           style="fill:#f7ddcb;fill-opacity:1;fill-rule:nonzero;stroke:none"
           d="m 0,0 c 0,0 0.826,0.109 0.33,-1.129 -0.5,-1.23 -0.582,-1.957 -0.553,-2.633 0.026,-0.615 0.311,-2.431 0.311,-2.431 0,0 -0.457,-0.799 -1.055,0.279 -0.277,0.514 -0.512,1.516 -0.58,2.824 C -1.58,-2.559 -0.916,0.197 0,0" />
      </g>
      <g
         transform="matrix(0.35277777,0,0,-0.35277777,-34.397398,254.49114)"
         id="g20424">
        <path
           inkscape:connector-curvature="0"
           id="path20426"
           style="fill:#ffd527;fill-opacity:1;fill-rule:nonzero;stroke:none"
           d="m 0,0 c -0.98,6.537 -2.059,22.457 -2.943,27.613 -1.016,5.922 -2.95,15.846 -2.86,21.897 0.104,6.801 0.983,11.025 3.922,12.988 1.35,0.898 4.85,0.086 6.699,-0.572 7.352,-2.615 13.725,-5.963 15.522,-8.578 3.832,-5.575 3.158,-11.994 3.514,-14.95 C 24.342,34.313 23.332,21.709 23.691,15.523 24.342,4.25 27.799,-3.756 28.615,-6.045 28.615,-6.045 2.369,-15.813 0,0" />
      </g>
      <g
         transform="matrix(0.35277777,0,0,-0.35277777,-28.922454,235.12348)"
         id="g20428">
        <path
           inkscape:connector-curvature="0"
           id="path20430"
           style="fill:#f7cbad;fill-opacity:1;fill-rule:nonzero;stroke:none"
           d="m 0,0 c 0,0 2.477,1.035 8.006,-5.883 4.576,-5.717 7.353,-8.986 9.15,-11.111 1.205,-1.422 2.289,-2.123 3.268,-1.469 4.683,3.119 9.967,12.744 9.967,12.744 0,0 1.47,1.469 2.777,-0.654 1.309,-2.123 1.502,-3.824 1.502,-3.824 0,0 -5.096,-15.129 -12.447,-18.723 -2.467,-1.205 -3.432,-1.471 -6.537,0.979 -7.438,5.873 -18.135,17.482 -18.135,17.482 0,0 -4.412,7.518 2.449,10.459" />
      </g>
      <g
         transform="matrix(0.35277777,0,0,-0.35277777,-28.922454,235.12348)"
         id="g20432">
        <path
           inkscape:connector-curvature="0"
           id="path20434"
           style="fill:#ffe36c;fill-opacity:1;fill-rule:nonzero;stroke:none"
           d="m 0,0 c 2.824,0.66 4.902,-0.98 9.479,-6.699 1.882,-2.356 3.209,-4.149 4.244,-5.604 -1.592,-3.869 -6.504,-7.552 -9.147,-8.775 -4.847,4.75 -7.025,10.619 -7.025,10.619 0,0 -4.819,8.758 2.449,10.459" />
      </g>
    </g>
  </g>
</svg>
