<?xml version="1.0" encoding="UTF-8" standalone="no"?>
<!-- Created with Inkscape (http://www.inkscape.org/) -->

<svg
   xmlns:dc="http://purl.org/dc/elements/1.1/"
   xmlns:cc="http://creativecommons.org/ns#"
   xmlns:rdf="http://www.w3.org/1999/02/22-rdf-syntax-ns#"
   xmlns:svg="http://www.w3.org/2000/svg"
   xmlns="http://www.w3.org/2000/svg"
   xmlns:sodipodi="http://sodipodi.sourceforge.net/DTD/sodipodi-0.dtd"
   xmlns:inkscape="http://www.inkscape.org/namespaces/inkscape"
   width="2.2756464mm"
   height="5.7998824mm"
   viewBox="0 0 2.2756464 5.7998825"
   version="1.1"
   id="svg113590"
   inkscape:version="0.92.2 (5c3e80d, 2017-08-06)"
   sodipodi:docname="people-dancing-6.svg">
  <defs
     id="defs113584">
    <clipPath
       id="clipPath6938"
       clipPathUnits="userSpaceOnUse">
      <path
         inkscape:connector-curvature="0"
         id="path6936"
         d="m 332.31,670.939 h 80.557 V 627.742 H 332.31 Z" />
    </clipPath>
    <clipPath
       id="clipPath19962"
       clipPathUnits="userSpaceOnUse">
      <path
         inkscape:connector-curvature="0"
         id="path19960"
         d="m 509.182,647.722 h 56.485 v -19.98 h -56.485 z" />
    </clipPath>
    <clipPath
       id="clipPath19818"
       clipPathUnits="userSpaceOnUse">
      <path
         inkscape:connector-curvature="0"
         id="path19816"
         d="m 671.425,650.716 h 65.619 v -22.975 h -65.619 z" />
    </clipPath>
    <clipPath
       id="clipPath14734"
       clipPathUnits="userSpaceOnUse">
      <path
         inkscape:connector-curvature="0"
         id="path14732"
         d="m 800.948,651.727 h 68.678 v -23.986 h -68.678 z" />
    </clipPath>
    <clipPath
       id="clipPath14822"
       clipPathUnits="userSpaceOnUse">
      <path
         inkscape:connector-curvature="0"
         id="path14820"
         d="m 957.738,645.951 h 63.252 v -18.209 h -63.252 z" />
    </clipPath>
    <clipPath
       id="clipPath20130"
       clipPathUnits="userSpaceOnUse">
      <path
         inkscape:connector-curvature="0"
         id="path20128"
         d="m 1084.85,651.425 h 64.51 v -23.683 h -64.51 z" />
    </clipPath>
  </defs>
  <sodipodi:namedview
     id="base"
     pagecolor="#ffffff"
     bordercolor="#666666"
     borderopacity="1.0"
     inkscape:pageopacity="0.0"
     inkscape:pageshadow="2"
     inkscape:zoom="0.35"
     inkscape:cx="108.82995"
     inkscape:cy="574.80706"
     inkscape:document-units="mm"
     inkscape:current-layer="layer1"
     showgrid="false"
     inkscape:window-width="1360"
     inkscape:window-height="706"
     inkscape:window-x="-8"
     inkscape:window-y="-8"
     inkscape:window-maximized="1"
     fit-margin-top="0"
     fit-margin-left="0"
     fit-margin-right="0"
     fit-margin-bottom="0" />
  <metadata
     id="metadata113587">
    <rdf:RDF>
      <cc:Work
         rdf:about="">
        <dc:format>image/svg+xml</dc:format>
        <dc:type
           rdf:resource="http://purl.org/dc/dcmitype/StillImage" />
        <dc:title></dc:title>
      </cc:Work>
    </rdf:RDF>
  </metadata>
  <g
     inkscape:label="Layer 1"
     inkscape:groupmode="layer"
     id="layer1"
     transform="translate(106.27972,-295.11783)">
    <g
       id="g36380"
       transform="matrix(0.1,0,0,0.086,-94.627705,272.38824)">
      <g
         transform="matrix(0.35277777,0,0,-0.35277777,-110.03402,302.85515)"
         id="g20116">
        <path
           inkscape:connector-curvature="0"
           id="path20118"
           style="fill:#e8c5ac;fill-opacity:1;fill-rule:nonzero;stroke:none"
           d="M 0,0 3.223,22.932 13.078,20.469 3.391,-7.588 0.416,-12.094 c -0.941,0.33 -2.475,1.1 -3.508,1.537 -2.377,1.016 -1.23,4.19 -1.23,4.19 0,0 1.859,4.66 4.322,6.367" />
      </g>
      <g
         transform="matrix(0.35277777,0,0,-0.35277777,-104.1195,283.216)"
         id="g20120">
        <path
           inkscape:connector-curvature="0"
           id="path20122"
           style="fill:#890404;fill-opacity:1;fill-rule:nonzero;stroke:none"
           d="m 0,0 c 0,0 -11.207,0.572 -13.045,-8.906 -0.896,-4.614 -0.498,-20.61 -1.066,-20.61 -1.932,0 -1.516,-4.925 -1.516,-4.925 0,0 0.619,-2.383 4.357,-3.414 3.069,-0.846 8.153,-0.19 8.153,-0.19 l 2.256,0.697 -3.016,17.686 z" />
      </g>
      <g
         transform="matrix(0.35277777,0,0,-0.35277777,-499.23232,553.1916)"
         id="g20124">
        <g
           id="g20126" />
        <g
           id="g20138">
          <g
             style="opacity:0.28999299"
             id="g20136"
             clip-path="url(#clipPath20130)">
            <g
               id="g20134"
               transform="translate(1093.3154,641.7246)">
              <path
                 inkscape:connector-curvature="0"
                 id="path20132"
                 style="fill:#231f20;fill-opacity:1;fill-rule:nonzero;stroke:none"
                 d="m 0,0 c 14.703,-3.275 9.77,-5.264 9.865,-8.311 0.141,-4.318 8.92,-5.968 19.518,-5.628 18.898,0.603 26.836,5.884 26.662,11.433 C 55.861,3.045 41.779,8.465 24.434,9.309 4.529,10.279 -5.021,9.566 -8.037,5.82 -10.271,3.043 -3.119,0.699 0,0" />
            </g>
          </g>
        </g>
      </g>
      <g
         transform="matrix(0.35277777,0,0,-0.35277777,-98.823675,325.44255)"
         id="g20140">
        <path
           inkscape:connector-curvature="0"
           id="path20142"
           style="fill:#7a7a62;fill-opacity:1;fill-rule:nonzero;stroke:none"
           d="m 0,0 c 0,0 -0.613,-5.99 -0.615,-6.133 -0.147,-2.678 -3.91,-9.084 -8.115,-8.937 -0.627,0.017 -2.772,0.527 -2.772,0.527 0,0 -2.82,0.486 -1.566,5.785 0.49,2.065 3.603,10.223 3.603,10.223 z" />
      </g>
      <g
         transform="matrix(0.35277777,0,0,-0.35277777,-108.13717,320.61803)"
         id="g20144">
        <path
           inkscape:connector-curvature="0"
           id="path20146"
           style="fill:#192830;fill-opacity:1;fill-rule:nonzero;stroke:none"
           d="m 0,0 0.377,-2.574 c 0,0 -6.193,-8.662 -6.535,-9.258 -0.397,-0.674 -1.334,-2.037 -0.438,-3.029 0.209,-0.241 0.313,-0.414 0.639,-0.537 1.148,-0.45 2.592,-0.026 3.824,0.513 2.697,1.17 7.258,5.254 7.258,5.254 1.354,1.158 4.447,5.125 4.979,4.83 0.187,-0.103 2.675,2.731 2.675,2.731 0.104,0.187 -0.093,0.314 -0.324,1.109 -0.883,3.037 -3.564,5.518 -3.564,5.518 z" />
      </g>
      <g
         transform="matrix(0.35277777,0,0,-0.35277777,-109.55655,325.91316)"
         id="g20148">
        <path
           inkscape:connector-curvature="0"
           id="path20150"
           style="fill:#7a7a62;fill-opacity:1;fill-rule:nonzero;stroke:none"
           d="m 0,0 c 0.84,0.104 1.828,0.535 2.775,1.02 3.786,1.921 7.821,6.58 7.821,6.58 0.445,0.472 2.654,2.839 2.654,2.839 0,0 3.076,3.403 3.193,3.7 -0.068,0.103 0.504,-1.325 0.502,-1.368 -0.007,-0.099 -5.457,-5.818 -5.793,-6.238 0,0 -4.336,-4.527 -8.115,-6.508 C 1.84,-0.604 -0.49,-1.195 -1.852,-0.607 -2.102,-0.5 -2.541,-0.143 -2.623,0.256 -2.566,0.215 -1.129,-0.156 0,0" />
      </g>
      <g
         transform="matrix(0.35277777,0,0,-0.35277777,-98.614231,324.93683)"
         id="g20152">
        <path
           inkscape:connector-curvature="0"
           id="path20154"
           style="fill:#192830;fill-opacity:1;fill-rule:nonzero;stroke:none"
           d="m 0,0 c 0,0 -0.783,-3.383 -1.648,-7.797 -0.514,-2.635 -4.233,-7.848 -7.92,-7.582 -0.952,0.076 -1.688,0.274 -1.748,0.281 -1.571,0.299 -3.639,1.203 -2.032,6.565 0.575,1.914 2.864,9.275 2.975,9.265 z" />
      </g>
      <g
         transform="matrix(0.35277777,0,0,-0.35277777,-108.32044,301.40132)"
         id="g20156">
        <path
           inkscape:connector-curvature="0"
           id="path20158"
           style="fill:#0b2b3f;fill-opacity:1;fill-rule:nonzero;stroke:none"
           d="m 0,0 c 0,0 -6.125,-19.164 -8.076,-25.996 -2.141,-7.496 0.232,-11.039 0.232,-11.039 l 7.528,-21.07 c 0,0 6.687,-4.018 12.308,3.744 0.682,0.941 -6.959,20.601 -6.424,23.279 1.315,6.58 11.539,30.738 11.539,30.738 z" />
      </g>
      <g
         transform="matrix(0.35277777,0,0,-0.35277777,-103.42978,300.47319)"
         id="g20160">
        <path
           inkscape:connector-curvature="0"
           id="path20162"
           style="fill:#194566;fill-opacity:1;fill-rule:nonzero;stroke:none"
           d="m 0,0 c 0.373,-3.717 0.537,-30.771 0,-43.346 -0.318,-7.449 0.676,-19.756 1.895,-30.031 0.179,-1.519 3.025,-2.902 4.343,-3.092 5.354,-0.787 7.407,3.694 7.408,4.227 l 0.534,26.758 2.972,39.382 z" />
      </g>
      <g
         transform="matrix(0.35277777,0,0,-0.35277777,-97.974812,284.26817)"
         id="g20164">
        <path
           inkscape:connector-curvature="0"
           id="path20166"
           style="fill:#b50404;fill-opacity:1;fill-rule:nonzero;stroke:none"
           d="m 0,0 c -1.105,1.676 -9.166,5.117 -9.166,5.117 0,0 -15.584,-1.709 -17.668,-5.906 -2.484,-4.992 -1.283,-21.006 -1.283,-36.357 0,0 -0.467,-6.84 -0.76,-8.719 -0.131,-0.85 -3.516,-10.477 -3.709,-11.041 -1.066,-3.1 10.436,-5.887 21,-6.438 14.115,-0.736 14.707,3.514 14.707,3.514 0.184,1.801 0.686,28.639 0.686,29.793 C 3.807,-10.576 0,0 0,0" />
      </g>
      <g
         transform="matrix(0.35277777,0,0,-0.35277777,-105.20196,285.90594)"
         id="g20168">
        <path
           inkscape:connector-curvature="0"
           id="path20170"
           style="fill:#e8c5ac;fill-opacity:1;fill-rule:nonzero;stroke:none"
           d="M 0,0 C 4.258,-3.828 8.523,1.42 9.627,4.734 L 8.178,16.561 0.156,13.574 Z" />
      </g>
      <g
         transform="matrix(0.35277777,0,0,-0.35277777,-103.93484,274.63704)"
         id="g20172">
        <path
           inkscape:connector-curvature="0"
           id="path20174"
           style="fill:#f2c8a5;fill-opacity:1;fill-rule:nonzero;stroke:none"
           d="M 0,0 -0.006,-0.008 7.977,-2.01 4.553,-16.443 c -0.35,-0.959 -0.535,-1.864 -0.903,-2.659 -0.404,-0.869 -1.029,-1.625 -2.359,-2.195 0,0 -2.414,-1.107 -4.48,-1.387 -0.942,-0.121 -6.713,-1.457 -6.944,4.319 -0.031,0.83 0.897,13.976 0.897,13.976 l 0.203,2.854 z" />
      </g>
      <g
         transform="matrix(0.35277777,0,0,-0.35277777,-106.16105,273.9432)"
         id="g20176">
        <path
           inkscape:connector-curvature="0"
           id="path20178"
           style="fill:#7a4c22;fill-opacity:1;fill-rule:nonzero;stroke:none"
           d="m 0,0 c -1.332,-0.598 -2.291,-1.744 -2.686,-2.674 -0.863,-2.041 1.413,-5.627 1.459,-5.752 0.26,-0.754 4.965,-7.527 5.204,-7.488 0.074,0.012 2.086,2.25 3.033,2.76 0,0 3.941,1.002 5.133,0.152 1.3,-0.928 0.076,-3.598 -0.065,-3.758 l 0.496,-3.453 c -0.004,-0.098 3.022,4.996 3.485,5.912 2.125,4.162 2.408,5.645 2.56,6.508 C 19.316,-3.93 16.75,0.4 10.439,1.387 7.127,1.9 4.689,1.832 3.354,1.371 3.074,1.277 0,0 0,0" />
      </g>
      <g
         transform="matrix(0.35277777,0,0,-0.35277777,-101.93324,278.28265)"
         id="g20180">
        <path
           inkscape:connector-curvature="0"
           id="path20182"
           style="fill:#f2c8a5;fill-opacity:1;fill-rule:nonzero;stroke:none"
           d="M 0,0 C -2.068,0.508 -2.787,-1.422 -2.787,-1.422 L -3.84,-5.244 c 0,0 -0.326,-1.268 0.277,-1.486 1.163,-0.415 2.247,0.259 3.053,1.255 0.051,0.059 1.131,1.561 1.194,1.649 C 1.605,-2.553 1.955,-0.484 0,0" />
      </g>
      <g
         transform="matrix(0.35277777,0,0,-0.35277777,-101.55701,287.25299)"
         id="g20184">
        <path
           inkscape:connector-curvature="0"
           id="path20186"
           style="fill:#c40808;fill-opacity:1;fill-rule:nonzero;stroke:none"
           d="m 0,0 c 0,0 -1.076,12.113 -3.686,20.781 -2.789,9.262 -3.158,12.381 -3.158,12.381 0,0 0.131,2.873 2.842,4.309 2.393,1.267 4.508,2.166 6.254,-0.772 9.603,-16.15 10.387,-38.605 10.387,-38.605 0,0 0.211,-3.571 -1.428,-4.916 C 8.836,-8.777 1.533,-7.934 0,0" />
      </g>
      <g
         transform="matrix(0.35277777,0,0,-0.35277777,-104.90565,268.25259)"
         id="g20188">
        <path
           inkscape:connector-curvature="0"
           id="path20190"
           style="fill:#e8c5ac;fill-opacity:1;fill-rule:nonzero;stroke:none"
           d="m 0,0 -2.904,-0.33 -2.918,2.734 -0.719,3.137 c 0,0 0.088,-0.117 -0.838,0.729 -0.363,0.332 -0.717,0.476 -0.717,0.476 0,0 -1.775,4.414 0.52,4.465 0.744,0.016 1.785,-0.897 1.785,-0.897 0.955,0.143 2.619,0.192 3.697,0.286 C 0.408,10.82 0.58,8.027 0.58,8.027 L 1.359,4.906 C 1.811,3.15 1.109,0.795 0,0" />
      </g>
      <g
         transform="matrix(0.35277777,0,0,-0.35277777,-100.49526,275.01875)"
         id="g20192">
        <path
           inkscape:connector-curvature="0"
           id="path20194"
           style="fill:#e8c5ac;fill-opacity:1;fill-rule:nonzero;stroke:none"
           d="m 0,0 -11.65,22.58 -5.274,-3.221 8.334,-24.414 c 0,0 1.768,-3.031 6.822,-0.758 C 1.951,-4.141 0,0 0,0" />
      </g>
      <g
         transform="matrix(0.35277777,0,0,-0.35277777,-105.72491,267.35068)"
         id="g20196">
        <path
           inkscape:connector-curvature="0"
           id="path20198"
           style="fill:#e8c5ac;fill-opacity:1;fill-rule:nonzero;stroke:none"
           d="m 0,0 c -0.365,1.578 -2.543,2.297 -3.846,2.08 -0.457,-0.07 0.709,3.826 -1.131,3.377 0,0 -1.429,-1.189 -2.054,-2.99 -0.049,-0.141 -0.481,-1.451 1.289,-2.66 3.179,-2.166 3.308,-3.002 4.613,-2.789 C 0.178,-2.77 0.359,-1.576 0,0" />
      </g>
    </g>
  </g>
</svg>
