<?xml version="1.0" encoding="UTF-8" standalone="no"?>
<!-- Created with Inkscape (http://www.inkscape.org/) -->

<svg
   xmlns:dc="http://purl.org/dc/elements/1.1/"
   xmlns:cc="http://creativecommons.org/ns#"
   xmlns:rdf="http://www.w3.org/1999/02/22-rdf-syntax-ns#"
   xmlns:svg="http://www.w3.org/2000/svg"
   xmlns="http://www.w3.org/2000/svg"
   xmlns:sodipodi="http://sodipodi.sourceforge.net/DTD/sodipodi-0.dtd"
   xmlns:inkscape="http://www.inkscape.org/namespaces/inkscape"
   width="3.8007443mm"
   height="6.4403753mm"
   viewBox="0 0 3.8007443 6.4403753"
   version="1.1"
   id="svg113590"
   inkscape:version="0.92.2 (5c3e80d, 2017-08-06)"
   sodipodi:docname="people-dancing-21.svg">
  <defs
     id="defs113584">
    <clipPath
       id="clipPath6938"
       clipPathUnits="userSpaceOnUse">
      <path
         inkscape:connector-curvature="0"
         id="path6936"
         d="m 332.31,670.939 h 80.557 V 627.742 H 332.31 Z" />
    </clipPath>
    <clipPath
       id="clipPath19962"
       clipPathUnits="userSpaceOnUse">
      <path
         inkscape:connector-curvature="0"
         id="path19960"
         d="m 509.182,647.722 h 56.485 v -19.98 h -56.485 z" />
    </clipPath>
    <clipPath
       id="clipPath19818"
       clipPathUnits="userSpaceOnUse">
      <path
         inkscape:connector-curvature="0"
         id="path19816"
         d="m 671.425,650.716 h 65.619 v -22.975 h -65.619 z" />
    </clipPath>
    <clipPath
       id="clipPath14734"
       clipPathUnits="userSpaceOnUse">
      <path
         inkscape:connector-curvature="0"
         id="path14732"
         d="m 800.948,651.727 h 68.678 v -23.986 h -68.678 z" />
    </clipPath>
    <clipPath
       id="clipPath14822"
       clipPathUnits="userSpaceOnUse">
      <path
         inkscape:connector-curvature="0"
         id="path14820"
         d="m 957.738,645.951 h 63.252 v -18.209 h -63.252 z" />
    </clipPath>
    <clipPath
       id="clipPath20130"
       clipPathUnits="userSpaceOnUse">
      <path
         inkscape:connector-curvature="0"
         id="path20128"
         d="m 1084.85,651.425 h 64.51 v -23.683 h -64.51 z" />
    </clipPath>
    <clipPath
       id="clipPath20722"
       clipPathUnits="userSpaceOnUse">
      <path
         inkscape:connector-curvature="0"
         id="path20720"
         d="m 1222.08,654.393 h 75.95 v -26.652 h -75.95 z" />
    </clipPath>
    <clipPath
       id="clipPath20266"
       clipPathUnits="userSpaceOnUse">
      <path
         inkscape:connector-curvature="0"
         id="path20264"
         d="m 1383.9,646.412 h 44.62 v -18.67 h -44.62 z" />
    </clipPath>
    <clipPath
       id="clipPath20442"
       clipPathUnits="userSpaceOnUse">
      <path
         inkscape:connector-curvature="0"
         id="path20440"
         d="m 1493.26,654.136 h 75.09 v -26.394 h -75.09 z" />
    </clipPath>
    <clipPath
       id="clipPath20366"
       clipPathUnits="userSpaceOnUse">
      <path
         inkscape:connector-curvature="0"
         id="path20364"
         d="m 1632.21,651.13 h 77.31 v -23.389 h -77.31 z" />
    </clipPath>
    <clipPath
       id="clipPath20538"
       clipPathUnits="userSpaceOnUse">
      <path
         inkscape:connector-curvature="0"
         id="path20536"
         d="m 1778.62,646.625 h 45.13 v -18.883 h -45.13 z" />
    </clipPath>
    <clipPath
       id="clipPath20590"
       clipPathUnits="userSpaceOnUse">
      <path
         inkscape:connector-curvature="0"
         id="path20588"
         d="m 1895.15,652.288 h 61.65 v -24.547 h -61.65 z" />
    </clipPath>
    <clipPath
       id="clipPath20798"
       clipPathUnits="userSpaceOnUse">
      <path
         inkscape:connector-curvature="0"
         id="path20796"
         d="m 2032.21,650.712 h 54.29 v -22.97 h -54.29 z" />
    </clipPath>
    <clipPath
       id="clipPath20218"
       clipPathUnits="userSpaceOnUse">
      <path
         inkscape:connector-curvature="0"
         id="path20216"
         d="m 2154,646.547 h 46.37 V 627.742 H 2154 Z" />
    </clipPath>
    <clipPath
       id="clipPath20882"
       clipPathUnits="userSpaceOnUse">
      <path
         inkscape:connector-curvature="0"
         id="path20880"
         d="m 2287.35,649.844 h 48.35 v -22.102 h -48.35 z" />
    </clipPath>
    <clipPath
       id="clipPath21206"
       clipPathUnits="userSpaceOnUse">
      <path
         inkscape:connector-curvature="0"
         id="path21204"
         d="m 2432.86,646.93 h 8.25 v -13.96 h -8.25 z" />
    </clipPath>
    <clipPath
       id="clipPath21150"
       clipPathUnits="userSpaceOnUse">
      <path
         inkscape:connector-curvature="0"
         id="path21148"
         d="m 2406.52,649.765 h 54.69 v -22.024 h -54.69 z" />
    </clipPath>
    <clipPath
       id="clipPath21098"
       clipPathUnits="userSpaceOnUse">
      <path
         inkscape:connector-curvature="0"
         id="path21096"
         d="m 2526.96,654.315 h 61.23 v -26.573 h -61.23 z" />
    </clipPath>
    <clipPath
       id="clipPath20954"
       clipPathUnits="userSpaceOnUse">
      <path
         inkscape:connector-curvature="0"
         id="path20952"
         d="m 2663.33,652.114 h 56.93 v -24.373 h -56.93 z" />
    </clipPath>
    <clipPath
       id="clipPath20038"
       clipPathUnits="userSpaceOnUse">
      <path
         inkscape:connector-curvature="0"
         id="path20036"
         d="m 2785.76,651.686 h 65.21 v -23.944 h -65.21 z" />
    </clipPath>
    <clipPath
       id="clipPath13978"
       clipPathUnits="userSpaceOnUse">
      <path
         inkscape:connector-curvature="0"
         id="path13976"
         d="m 2914.83,655.885 h 60.35 v -28.144 h -60.35 z" />
    </clipPath>
    <clipPath
       id="clipPath19038"
       clipPathUnits="userSpaceOnUse">
      <path
         inkscape:connector-curvature="0"
         id="path19036"
         d="m 3087.28,646.215 h 38.96 v -18.473 h -38.96 z" />
    </clipPath>
  </defs>
  <sodipodi:namedview
     id="base"
     pagecolor="#ffffff"
     bordercolor="#666666"
     borderopacity="1.0"
     inkscape:pageopacity="0.0"
     inkscape:pageshadow="2"
     inkscape:zoom="0.35"
     inkscape:cx="-660.8935"
     inkscape:cy="540.71604"
     inkscape:document-units="mm"
     inkscape:current-layer="layer1"
     showgrid="false"
     inkscape:window-width="1360"
     inkscape:window-height="706"
     inkscape:window-x="-8"
     inkscape:window-y="-8"
     inkscape:window-maximized="1"
     fit-margin-top="0"
     fit-margin-left="0"
     fit-margin-right="0"
     fit-margin-bottom="0" />
  <metadata
     id="metadata113587">
    <rdf:RDF>
      <cc:Work
         rdf:about="">
        <dc:format>image/svg+xml</dc:format>
        <dc:type
           rdf:resource="http://purl.org/dc/dcmitype/StillImage" />
        <dc:title></dc:title>
      </cc:Work>
    </rdf:RDF>
  </metadata>
  <g
     inkscape:label="Layer 1"
     inkscape:groupmode="layer"
     id="layer1"
     transform="translate(-97.376282,-285.45743)">
    <g
       id="g39470"
       transform="matrix(0.1,0,0,0.086,89.348989,263.85134)">
      <g
         transform="matrix(0.35277777,0,0,-0.35277777,-995.17903,547.57516)"
         id="g19032">
        <g
           id="g19034" />
        <g
           id="g19046">
          <g
             style="opacity:0.27000403"
             id="g19044"
             clip-path="url(#clipPath19038)">
            <g
               id="g19042"
               transform="translate(3104.7227,627.7607)">
              <path
                 inkscape:connector-curvature="0"
                 id="path19040"
                 style="fill:#231f20;fill-opacity:1;fill-rule:nonzero;stroke:none"
                 d="m 0,0 c 7.471,-0.293 7.476,2.936 13.348,7.208 5.875,4.271 13.882,9.345 2.136,9.877 C 3.738,17.619 -24.025,21.624 -16.018,12.813 -8.009,4.003 -13.614,0.534 0,0" />
            </g>
          </g>
        </g>
      </g>
      <g
         transform="matrix(0.35277777,0,0,-0.35277777,106.68202,307.98014)"
         id="g19048">
        <path
           inkscape:connector-curvature="0"
           id="path19050"
           style="fill:#f4f4f4;fill-opacity:1;fill-rule:nonzero;stroke:none"
           d="m 0,0 -0.335,-3.95 c 0,0 0.62,-7.869 0.326,-9.545 -0.168,-0.931 -0.949,-1.624 -1.517,-1.944 -0.359,-0.195 -1.442,-0.567 -1.836,-0.444 -1.016,0.355 -2.389,1.379 -3.02,2.527 -1.222,2.198 -1.998,7.456 -1.998,7.456 0.07,0.732 -0.297,11.757 -0.297,11.757 0,0 1.04,0.749 1.71,1.075 l 4.508,2.147 z" />
      </g>
      <g
         transform="matrix(0.35277777,0,0,-0.35277777,104.96154,308.98543)"
         id="g19052">
        <path
           inkscape:connector-curvature="0"
           id="path19054"
           style="fill:#9fdbe9;fill-opacity:1;fill-rule:nonzero;stroke:none"
           d="M 0,0 C -0.116,0.022 -0.215,0.137 -0.196,0.257 -0.188,0.348 -0.129,0.46 -0.034,0.44 0.479,0.344 2.386,-0.085 3.623,-0.938 4.706,-1.686 4.501,-2.562 4.677,-2.999 4.721,-3.127 4.679,-3.271 4.548,-3.3 4.444,-3.323 4.321,-3.252 4.275,-3.132 4.126,-2.749 4.366,-1.968 3.396,-1.286 2.318,-0.543 0.614,-0.127 0,0" />
      </g>
      <g
         transform="matrix(0.35277777,0,0,-0.35277777,105.03975,309.4598)"
         id="g19056">
        <path
           inkscape:connector-curvature="0"
           id="path19058"
           style="fill:#9fdbe9;fill-opacity:1;fill-rule:nonzero;stroke:none"
           d="m 0,0 c -0.116,0.022 -0.211,0.129 -0.196,0.253 0.014,0.105 0.061,0.205 0.161,0.189 0.52,-0.109 2.419,-0.533 3.658,-1.38 1.094,-0.743 0.887,-1.62 1.05,-2.067 0.046,-0.124 0.006,-0.262 -0.118,-0.289 -0.117,-0.03 -0.233,0.046 -0.273,0.156 -0.145,0.38 0.091,1.174 -0.885,1.845 C 2.32,-0.545 0.61,-0.127 0,0" />
      </g>
      <g
         transform="matrix(0.35277777,0,0,-0.35277777,105.0339,309.94798)"
         id="g19060">
        <path
           inkscape:connector-curvature="0"
           id="path19062"
           style="fill:#9fdbe9;fill-opacity:1;fill-rule:nonzero;stroke:none"
           d="M 0,0 C -0.116,0.02 -0.214,0.127 -0.203,0.249 -0.184,0.351 -0.131,0.454 -0.04,0.446 0.481,0.332 2.386,-0.088 3.621,-0.938 4.7,-1.687 4.505,-2.569 4.677,-3.008 4.728,-3.127 4.681,-3.266 4.554,-3.302 4.436,-3.321 4.315,-3.251 4.269,-3.144 4.128,-2.759 4.366,-1.961 3.393,-1.292 2.312,-0.549 0.608,-0.141 0,0" />
      </g>
      <g
         transform="matrix(0.35277777,0,0,-0.35277777,106.17182,313.41963)"
         id="g19064">
        <path
           inkscape:connector-curvature="0"
           id="path19066"
           style="fill:#9fdbe9;fill-opacity:1;fill-rule:nonzero;stroke:none"
           d="m 0,0 c -0.945,-0.244 -2.666,1.282 -3.412,2.344 -2.559,3.668 -3.106,17.181 -3.101,17.828 0,1.49 0.359,1.841 0.359,1.841 0,0 -1.24,-0.718 -1.193,-0.76 0,0 -1.237,-0.696 -1.295,-1.586 -0.046,-0.711 0.663,-5.901 0.812,-7.254 0,0 0.954,-7.724 2.996,-10.847 0.711,-1.085 1.625,-2.226 2.987,-2.391 C -1.421,-0.884 0.136,0.021 0,0" />
      </g>
      <g
         transform="matrix(0.35277777,0,0,-0.35277777,108.87483,286.21094)"
         id="g19068">
        <path
           inkscape:connector-curvature="0"
           id="path19070"
           style="fill:#032b44;fill-opacity:1;fill-rule:nonzero;stroke:none"
           d="m 0,0 c 0,0 19.722,-18.76 25.188,-33.327 0.75,-2 2.87,-5.825 0.059,-9.804 -2.722,-3.852 -31.37,-19.326 -31.37,-19.326 0,0 -3.281,-2.184 -6.228,2.223 -0.617,0.924 -0.657,5.696 -0.657,5.696 0,0 8.787,7.753 22.737,14.169 1.005,0.463 3.871,0.65 1.887,3.948 C 7.208,-29.094 -9,-12.197 -9,-12.197 Z" />
      </g>
      <g
         transform="matrix(0.35277777,0,0,-0.35277777,101.4379,316.5319)"
         id="g19072">
        <path
           inkscape:connector-curvature="0"
           id="path19074"
           style="fill:#f4f4f4;fill-opacity:1;fill-rule:nonzero;stroke:none"
           d="m 0,0 -0.496,-7.795 c 0,0 -0.216,-3.594 -0.409,-5.338 -0.102,-0.954 -0.778,-1.662 -1.274,-1.974 -0.316,-0.196 -1.279,-0.557 -1.646,-0.412 -0.922,0.389 -2.07,1.599 -2.84,2.688 -2.274,3.222 -2.158,7.795 -2.158,7.795 0.033,0.754 -0.818,12.221 -0.818,12.221 0,0 0.907,0.757 1.503,1.078 l 3.957,2.12 z" />
      </g>
      <g
         transform="matrix(0.35277777,0,0,-0.35277777,99.609233,317.15788)"
         id="g19076">
        <path
           inkscape:connector-curvature="0"
           id="path19078"
           style="fill:#9fdbe9;fill-opacity:1;fill-rule:nonzero;stroke:none"
           d="m 0,0 c -0.109,0.045 -0.194,0.172 -0.182,0.302 0.005,0.095 0.062,0.219 0.146,0.195 0.503,-0.158 2.3,-0.788 3.467,-1.827 1.026,-0.901 1.465,-1.946 1.613,-2.442 0.045,-0.133 0,-0.286 -0.114,-0.304 C 4.822,-4.094 4.71,-4.013 4.669,-3.87 4.533,-3.452 4.139,-2.517 3.218,-1.697 2.191,-0.783 0.583,-0.198 0,0" />
      </g>
      <g
         transform="matrix(0.35277777,0,0,-0.35277777,99.602013,317.77661)"
         id="g19080">
        <path
           inkscape:connector-curvature="0"
           id="path19082"
           style="fill:#9fdbe9;fill-opacity:1;fill-rule:nonzero;stroke:none"
           d="m 0,0 c -0.117,0.038 -0.203,0.169 -0.187,0.302 0.017,0.099 0.073,0.216 0.16,0.183 C 0.462,0.321 2.257,-0.34 3.414,-1.392 4.434,-2.304 4.852,-3.357 5.002,-3.843 5.045,-3.99 5.006,-4.141 4.879,-4.163 4.773,-4.175 4.664,-4.081 4.625,-3.955 4.492,-3.526 4.104,-2.573 3.193,-1.742 2.179,-0.821 0.574,-0.203 0,0" />
      </g>
      <g
         transform="matrix(0.35277777,0,0,-0.35277777,99.588573,318.30199)"
         id="g19084">
        <path
           inkscape:connector-curvature="0"
           id="path19086"
           style="fill:#9fdbe9;fill-opacity:1;fill-rule:nonzero;stroke:none"
           d="m 0,0 c -0.104,0.051 -0.194,0.182 -0.165,0.309 0.017,0.101 0.069,0.213 0.158,0.177 0.492,-0.198 2.262,-0.961 3.381,-2.077 0.981,-0.982 1.351,-2.04 1.484,-2.542 0.038,-0.136 -0.017,-0.292 -0.14,-0.3 C 4.614,-4.439 4.507,-4.345 4.484,-4.214 4.357,-3.776 4.015,-2.806 3.138,-1.932 2.153,-0.951 0.578,-0.233 0,0" />
      </g>
      <g
         transform="matrix(0.35277777,0,0,-0.35277777,100.87635,321.77121)"
         id="g19088">
        <path
           inkscape:connector-curvature="0"
           id="path19090"
           style="fill:#9fdbe9;fill-opacity:1;fill-rule:nonzero;stroke:none"
           d="m 0,0 c -0.972,-0.274 -3.15,1.688 -3.982,2.726 -4.191,5.176 -2.576,17.853 -2.576,18.533 0.013,1.586 0.389,1.971 0.389,1.971 0,0 -1.275,-0.793 -1.231,-0.837 0,0 -1.259,-0.788 -1.327,-1.73 -0.054,-0.768 0.04,-8.035 0.202,-9.463 0,0 0.265,-6.294 3.179,-9.621 0.884,-1.007 2.058,-2.375 3.464,-2.512 C -1.457,-0.971 0.139,0.045 0,0" />
      </g>
      <g
         transform="matrix(0.35277777,0,0,-0.35277777,109.5473,289.21367)"
         id="g19092">
        <path
           inkscape:connector-curvature="0"
           id="path19094"
           style="fill:#063559;fill-opacity:1;fill-rule:nonzero;stroke:none"
           d="m 0,0 c 0,0 -2.881,-32.826 -5.983,-42.169 -0.34,-1.019 -2.01,-4.493 -2.01,-4.493 L -22.98,-77.839 c 0,0 -2.206,-0.507 -4.659,1.623 -3.817,3.316 -3.109,7.278 -3.109,7.278 0,0 4.274,13.677 13.106,29.062 1.003,1.748 1.247,20.819 1.423,26.497 0.285,9.119 -0.883,9.372 -0.568,15.957 z" />
      </g>
      <g
         transform="matrix(0.35277777,0,0,-0.35277777,112.39019,256.70302)"
         id="g19096">
        <path
           inkscape:connector-curvature="0"
           id="path19098"
           style="fill:#f1c7a4;fill-opacity:1;fill-rule:nonzero;stroke:none"
           d="m 0,0 c 0,0 -1.75,5.943 -0.705,7.234 1.044,1.292 0.588,6.247 0.588,6.247 0,0 2.415,0.813 1.98,-2.293 C 1.428,8.085 1.782,6.256 2.861,6.624 c 1.405,0.481 6.075,8.787 6.075,8.787 0,0 2.852,0.963 2.835,-3.31 C 11.748,5.773 4.221,-2.733 4.221,-2.733 Z" />
      </g>
      <g
         transform="matrix(0.35277777,0,0,-0.35277777,106.82744,271.87933)"
         id="g19100">
        <path
           inkscape:connector-curvature="0"
           id="path19102"
           style="fill:#22d20f;fill-opacity:1;fill-rule:nonzero;stroke:none"
           d="m 0,0 c 0,0 3.99,16.458 6.116,22.929 3.699,11.261 8.78,22.065 9.362,21.803 2.793,-1.266 5.894,-2.742 5.504,-4.408 -5.745,-24.742 -10.235,-52.43 -10.235,-52.43 z" />
      </g>
      <g
         transform="matrix(0.35277777,0,0,-0.35277777,110.38031,273.89609)"
         id="g19104">
        <path
           inkscape:connector-curvature="0"
           id="path19106"
           style="fill:#29da16;fill-opacity:1;fill-rule:nonzero;stroke:none"
           d="M 0,0 C 2.662,-6.514 4.347,-14.558 5.354,-28.021 5.949,-35.979 5.07,-44.262 5.07,-44.83 c 0,-1.214 0.959,1.136 -4.439,0.642 -4.345,-0.395 -11.709,-6.324 -16.139,-10.318 -4.96,-4.466 -7.862,-3.152 -7.862,-3.152 0.471,2.584 1.46,13.886 0.62,20.839 -1.165,9.657 -9.454,36.432 -9.454,36.432 0.274,0.295 11.587,2.728 16.064,4.895 2.036,0.987 7.439,6.705 7.439,6.705 0,0 6.049,-4.715 8.701,-11.213" />
      </g>
      <g
         transform="matrix(0.35277777,0,0,-0.35277777,104.68008,270.06101)"
         id="g19108">
        <path
           inkscape:connector-curvature="0"
           id="path19110"
           style="fill:#41ef2e;fill-opacity:1;fill-rule:nonzero;stroke:none"
           d="m 0,0 c 0,0 6.483,0.783 8.62,-5.059 2.137,-5.839 -0.641,-12.322 -0.641,-12.322 0,0 -0.927,8.334 -3.064,10.829 C 4.294,-5.828 0,0 0,0" />
      </g>
      <g
         transform="matrix(0.35277777,0,0,-0.35277777,106.07673,272.36924)"
         id="g19112">
        <path
           inkscape:connector-curvature="0"
           id="path19114"
           style="fill:#dcaf8d;fill-opacity:1;fill-rule:nonzero;stroke:none"
           d="M 0,0 -2.063,10.074 -14.51,7.014 c 0,0 2.785,-3.125 3.77,-5.192 0.603,-1.267 0.885,-4.431 -0.264,-4.44 -0.083,-0.156 4.014,-4.159 8.002,-6.117 C 0.718,-10.561 5.018,-7.133 0,0" />
      </g>
      <g
         transform="matrix(0.35277777,0,0,-0.35277777,86.210923,263.98938)"
         id="g19116">
        <path
           inkscape:connector-curvature="0"
           id="path19118"
           style="fill:#f1c7a4;fill-opacity:1;fill-rule:nonzero;stroke:none"
           d="m 0,0 c 0,0 1.695,1.032 -0.928,5.449 -2.624,4.415 -4.375,5.115 -4.375,5.115 0,0 -1.401,0.508 -0.631,-1.032 1.287,-2.558 1.945,-3.883 0.883,-4.386 -1.06,-0.501 -8.412,2.629 -8.412,2.629 0,0 -5.996,1.941 -1.99,-2.744 5.304,-6.207 11.816,-6.957 11.816,-6.957 l 2.125,-2.151 z" />
      </g>
      <g
         transform="matrix(0.35277777,0,0,-0.35277777,106.69168,273.48578)"
         id="g19120">
        <path
           inkscape:connector-curvature="0"
           id="path19122"
           style="fill:#ffffff;fill-opacity:1;fill-rule:nonzero;stroke:none"
           d="m 0,0 c -0.021,-1.045 -0.358,-2.27 -1.714,-2.758 -2.563,-0.925 -6.623,0.642 -6.837,0.714 0,0 0.91,-1.132 2.076,-2.562 0.572,-0.352 1.151,-0.681 1.73,-0.964 C -1.626,-7.101 1.895,-4.938 0,0" />
      </g>
      <g
         transform="matrix(0.35277777,0,0,-0.35277777,100.25796,271.14173)"
         id="g19124">
        <path
           inkscape:connector-curvature="0"
           id="path19126"
           style="fill:#2ce71c;fill-opacity:1;fill-rule:nonzero;stroke:none"
           d="m 0,0 c 0,0 -4.986,-0.809 -3.278,-3.645 1.71,-2.835 13.624,-8.835 18.52,-9.997 2.85,-0.675 5.272,-0.675 5.272,-0.675 0,0 -12.632,9.668 -14.319,11.966 C 5.412,-1.28 0.712,0.271 0,0" />
      </g>
      <g
         transform="matrix(0.35277777,0,0,-0.35277777,101.43414,274.04079)"
         id="g19128">
        <path
           inkscape:connector-curvature="0"
           id="path19130"
           style="fill:#41ef2e;fill-opacity:1;fill-rule:nonzero;stroke:none"
           d="m 0,0 c 0,0 -6.741,5.591 -21.464,16.851 -11.046,8.443 -21.061,13.729 -21.061,13.729 0,0 -1.538,-0.772 -2.749,-2.673 -0.465,-0.734 -1.023,-3.034 -1.023,-3.034 0,0 28.189,-24.858 37.556,-35.322 7.487,-8.367 8.462,-8.523 10.962,-6.334 C 4.501,-14.789 6.532,-8.038 0,0" />
      </g>
      <g
         transform="matrix(0.35277777,0,0,-0.35277777,99.894503,265.25544)"
         id="g19132">
        <path
           inkscape:connector-curvature="0"
           id="path19134"
           style="fill:#f1c7a4;fill-opacity:1;fill-rule:nonzero;stroke:none"
           d="m 0,0 0.002,-0.009 -4.794,-6.009 10.737,-8.794 c 0.809,-0.516 1.335,-0.709 2.064,-1.088 0.793,-0.421 2.493,-1.283 4.773,-0.429 1.141,0.429 3.619,1.503 4.915,2.28 1.781,1.067 1.865,2.624 1.865,2.624 0.076,0.798 0.301,1.29 -2.274,4.719 0,0 -4.947,5.975 -6.334,7.875 -1.833,2.502 -6.862,4.21 -6.862,4.21 z" />
      </g>
      <g
         transform="matrix(0.35277777,0,0,-0.35277777,102.74737,262.52348)"
         id="g19136">
        <path
           inkscape:connector-curvature="0"
           id="path19138"
           style="fill:#6d2f06;fill-opacity:1;fill-rule:nonzero;stroke:none"
           d="m 0,0 c 0.166,-0.147 2.517,-2.962 0.878,-4.956 -0.122,-0.151 -1.303,-0.462 -3.187,-2.476 -0.092,-0.105 -3.747,-3.775 -2.06,-7.367 0.779,-1.652 2.85,-4.796 2.859,-4.819 0.129,-0.256 -2.354,-1.884 -2.185,-1.979 0.056,-0.031 2.869,-4.795 2.643,-4.891 -0.35,-0.149 -1.959,0.521 -3.354,1.152 -1.194,0.545 -2.684,1.301 -3.545,1.719 -8.921,4.346 -11.26,11.143 -3.506,20.158 5.439,6.321 1.393,6.319 2.583,6.417 C -6.311,3.171 -3.532,3.171 0,0" />
      </g>
      <g
         transform="matrix(0.35277777,0,0,-0.35277777,100.49257,269.13394)"
         id="g19140">
        <path
           inkscape:connector-curvature="0"
           id="path19142"
           style="fill:#f1c7a4;fill-opacity:1;fill-rule:nonzero;stroke:none"
           d="m 0,0 c 0.75,1.731 3.252,0.093 3.252,0.093 l 2.691,-1.981 c 0,0 0.905,-0.848 0.489,-1.484 C 5.946,-4.125 5.062,-4.225 3.894,-3.939 3.832,-3.923 2.158,-3.542 2.061,-3.513 0.648,-3.093 -0.747,-1.739 0,0" />
      </g>
      <g
         transform="matrix(0.35277777,0,0,-0.35277777,99.315733,265.17381)"
         id="g19144">
        <path
           inkscape:connector-curvature="0"
           id="path19146"
           style="fill:#ac4309;fill-opacity:1;fill-rule:nonzero;stroke:none"
           d="m 0,0 c 0,0 2.242,3.1 2.027,5.021 -0.346,3.146 -3.524,4.702 -3.524,4.702 0,0 3.524,0.428 5.768,-1.925 C 6.518,5.449 5.449,3.419 3.311,1.284 0.205,-1.824 0.104,-5.557 0.427,-6.196 0.747,-6.838 -1.71,-2.776 0,0" />
      </g>
      <g
         transform="matrix(0.35277777,0,0,-0.35277777,101.36244,263.84121)"
         id="g19148">
        <path
           inkscape:connector-curvature="0"
           id="path19150"
           style="fill:#ac4309;fill-opacity:1;fill-rule:nonzero;stroke:none"
           d="m 0,0 c 0,0 1.308,2.325 1.141,3.811 -0.268,2.424 -3.953,3.203 -3.953,3.203 0,0 2.865,0.424 4.596,-1.387 C 3.516,3.812 2.853,2.314 1.89,0.925 -0.039,-1.862 -0.173,-3.175 0.074,-3.671 0.321,-4.165 -1.319,-2.143 0,0" />
      </g>
      <g
         transform="matrix(0.35277777,0,0,-0.35277777,102.8962,263.70413)"
         id="g19152">
        <path
           inkscape:connector-curvature="0"
           id="path19154"
           style="fill:#ac4309;fill-opacity:1;fill-rule:nonzero;stroke:none"
           d="m 0,0 c 0,0 0.107,2.137 -1.176,3.526 -1.282,1.391 -1.387,1.712 -1.387,1.712 0,0 1.647,-0.39 2.67,-1.606 C 1.815,1.604 0.534,0.321 0.534,0.321 0.534,0.321 -0.107,-0.425 0,0" />
      </g>
    </g>
  </g>
</svg>
