<?xml version="1.0" encoding="UTF-8" standalone="no"?>
<!-- Created with Inkscape (http://www.inkscape.org/) -->

<svg
   xmlns:dc="http://purl.org/dc/elements/1.1/"
   xmlns:cc="http://creativecommons.org/ns#"
   xmlns:rdf="http://www.w3.org/1999/02/22-rdf-syntax-ns#"
   xmlns:svg="http://www.w3.org/2000/svg"
   xmlns="http://www.w3.org/2000/svg"
   xmlns:sodipodi="http://sodipodi.sourceforge.net/DTD/sodipodi-0.dtd"
   xmlns:inkscape="http://www.inkscape.org/namespaces/inkscape"
   width="2.3518705mm"
   height="5.1401062mm"
   viewBox="0 0 2.3518703 5.1401061"
   version="1.1"
   id="svg45331"
   inkscape:version="0.92.2 (5c3e80d, 2017-08-06)"
   sodipodi:docname="people-casual-10.svg">
  <defs
     id="defs45325">
    <clipPath
       id="clipPath2864"
       clipPathUnits="userSpaceOnUse">
      <path
         inkscape:connector-curvature="0"
         id="path2862"
         d="m 1713.778,1928.833 c -0.536,-0.312 -0.927,-0.874 -1.106,-1.65 v 0 l 1.125,0.653 c 0.179,0.778 0.57,1.34 1.107,1.651 v 0 z" />
    </clipPath>
    <clipPath
       id="clipPath2848"
       clipPathUnits="userSpaceOnUse">
      <path
         inkscape:connector-curvature="0"
         id="path2846"
         d="M 0,2119.953 H 3253.108 V 0 H 0 Z" />
    </clipPath>
    <clipPath
       id="clipPath2836"
       clipPathUnits="userSpaceOnUse">
      <path
         inkscape:connector-curvature="0"
         id="path2834"
         d="m 1711.152,1926.674 v -0.651 c 0.308,-0.179 0.813,-0.18 1.126,0 v 0 0.651 c -0.315,-0.183 -0.82,-0.178 -1.129,0" />
    </clipPath>
    <clipPath
       id="clipPath2820"
       clipPathUnits="userSpaceOnUse">
      <path
         inkscape:connector-curvature="0"
         id="path2818"
         d="M 0,2119.953 H 3253.108 V 0 H 0 Z" />
    </clipPath>
    <clipPath
       id="clipPath2808"
       clipPathUnits="userSpaceOnUse">
      <path
         inkscape:connector-curvature="0"
         id="path2806"
         d="m 1710.148,1926.8 c 0,-0.121 0.077,-0.238 0.231,-0.325 v 0 0.65 c -0.156,0.087 -0.233,0.207 -0.233,0.324 v 0 -0.649 z" />
    </clipPath>
    <clipPath
       id="clipPath2796"
       clipPathUnits="userSpaceOnUse">
      <path
         inkscape:connector-curvature="0"
         id="path2794"
         d="m 1714.756,1928.103 v -0.65 c 0.158,0.09 0.237,0.211 0.237,0.331 v 0 0.65 c 0,-0.119 -0.078,-0.24 -0.236,-0.331" />
    </clipPath>
    <clipPath
       id="clipPath2784"
       clipPathUnits="userSpaceOnUse">
      <path
         inkscape:connector-curvature="0"
         id="path2782"
         d="M 0,2119.953 H 3253.108 V 0 H 0 Z" />
    </clipPath>
    <clipPath
       id="clipPath2772"
       clipPathUnits="userSpaceOnUse">
      <path
         inkscape:connector-curvature="0"
         id="path2770"
         d="m 1720.53,1921.188 10e-4,-0.65 c 0.309,-0.181 0.814,-0.181 1.128,0 v 0 0.65 c -0.316,-0.182 -0.821,-0.181 -1.129,0" />
    </clipPath>
    <clipPath
       id="clipPath2756"
       clipPathUnits="userSpaceOnUse">
      <path
         inkscape:connector-curvature="0"
         id="path2754"
         d="M 0,2119.953 H 3253.108 V 0 H 0 Z" />
    </clipPath>
    <clipPath
       id="clipPath2744"
       clipPathUnits="userSpaceOnUse">
      <path
         inkscape:connector-curvature="0"
         id="path2742"
         d="m 1719.524,1921.312 c 0,-0.119 0.08,-0.235 0.234,-0.324 v 0 0.65 c -0.154,0.089 -0.233,0.207 -0.233,0.324 v 0 -0.65 z" />
    </clipPath>
    <clipPath
       id="clipPath2732"
       clipPathUnits="userSpaceOnUse">
      <path
         inkscape:connector-curvature="0"
         id="path2730"
         d="m 1724.133,1922.619 v -0.654 c 0.158,0.094 0.238,0.212 0.238,0.331 v 0 0.65 c 0,-0.117 -0.08,-0.238 -0.238,-0.327" />
    </clipPath>
    <clipPath
       id="clipPath2536"
       clipPathUnits="userSpaceOnUse">
      <path
         inkscape:connector-curvature="0"
         id="path2534"
         d="m 1708.77,1889.11 h 53.56 v -38.31 h -53.56 z" />
    </clipPath>
    <clipPath
       id="clipPath3428"
       clipPathUnits="userSpaceOnUse">
      <path
         inkscape:connector-curvature="0"
         id="path3426"
         d="m 1819.231,1919.634 0.051,-0.722 c 0.167,0.114 0.248,0.253 0.238,0.383 v 0 l -0.048,0.721 c 0.01,-0.131 -0.071,-0.272 -0.241,-0.382" />
    </clipPath>
    <clipPath
       id="clipPath3440"
       clipPathUnits="userSpaceOnUse">
      <path
         inkscape:connector-curvature="0"
         id="path3438"
         d="m 1814.225,1917.859 c 0.01,-0.132 0.103,-0.255 0.282,-0.343 v 0 l -0.049,0.721 c -0.177,0.085 -0.273,0.212 -0.281,0.34 v 0 z" />
    </clipPath>
    <clipPath
       id="clipPath3452"
       clipPathUnits="userSpaceOnUse">
      <path
         inkscape:connector-curvature="0"
         id="path3450"
         d="M 0,2119.953 H 3253.108 V 0 H 0 Z" />
    </clipPath>
    <clipPath
       id="clipPath3468"
       clipPathUnits="userSpaceOnUse">
      <path
         inkscape:connector-curvature="0"
         id="path3466"
         d="m 1815.349,1917.792 0.046,-0.72 c 0.354,-0.177 0.915,-0.14 1.248,0.082 v 0 l -0.048,0.721 c -0.335,-0.223 -0.893,-0.259 -1.246,-0.083" />
    </clipPath>
    <clipPath
       id="clipPath3480"
       clipPathUnits="userSpaceOnUse">
      <path
         inkscape:connector-curvature="0"
         id="path3478"
         d="M 0,2119.953 H 3253.108 V 0 H 0 Z" />
    </clipPath>
    <clipPath
       id="clipPath3492"
       clipPathUnits="userSpaceOnUse">
      <path
         inkscape:connector-curvature="0"
         id="path3490"
         d="m 1808.461,1925.033 0.049,-0.719 c 0.167,0.112 0.245,0.25 0.238,0.383 v 0 l -0.049,0.719 c 0.01,-0.131 -0.07,-0.268 -0.238,-0.383" />
    </clipPath>
    <clipPath
       id="clipPath3504"
       clipPathUnits="userSpaceOnUse">
      <path
         inkscape:connector-curvature="0"
         id="path3502"
         d="m 1803.454,1923.259 c 0.01,-0.132 0.102,-0.258 0.279,-0.342 v 0 l -0.048,0.72 c -0.177,0.086 -0.273,0.214 -0.28,0.342 v 0 z" />
    </clipPath>
    <clipPath
       id="clipPath3516"
       clipPathUnits="userSpaceOnUse">
      <path
         inkscape:connector-curvature="0"
         id="path3514"
         d="M 0,2119.953 H 3253.108 V 0 H 0 Z" />
    </clipPath>
    <clipPath
       id="clipPath3532"
       clipPathUnits="userSpaceOnUse">
      <path
         inkscape:connector-curvature="0"
         id="path3530"
         d="m 1804.576,1923.193 0.047,-0.721 c 0.353,-0.175 0.915,-0.14 1.248,0.081 v 0 l -0.049,0.722 c -0.333,-0.223 -0.894,-0.258 -1.246,-0.082" />
    </clipPath>
    <clipPath
       id="clipPath3544"
       clipPathUnits="userSpaceOnUse">
      <path
         inkscape:connector-curvature="0"
         id="path3542"
         d="M 0,2119.953 H 3253.108 V 0 H 0 Z" />
    </clipPath>
    <clipPath
       id="clipPath3560"
       clipPathUnits="userSpaceOnUse">
      <path
         inkscape:connector-curvature="0"
         id="path3558"
         d="m 1807.327,1925.772 c -0.572,-0.383 -0.964,-1.034 -1.106,-1.907 v 0 l 1.197,0.803 c 0.144,0.873 0.537,1.525 1.109,1.907 v 0 z" />
    </clipPath>
    <clipPath
       id="clipPath3240"
       clipPathUnits="userSpaceOnUse">
      <path
         inkscape:connector-curvature="0"
         id="path3238"
         d="m 1804.45,1875.26 h 66.26 v -26.97 h -66.26 z" />
    </clipPath>
    <clipPath
       id="clipPath3596"
       clipPathUnits="userSpaceOnUse">
      <path
         inkscape:connector-curvature="0"
         id="path3594"
         d="m 1887.55,1874.88 h 68.5 v -28.2 h -68.5 z" />
    </clipPath>
    <clipPath
       id="clipPath3760"
       clipPathUnits="userSpaceOnUse">
      <path
         inkscape:connector-curvature="0"
         id="path3758"
         d="m 1940.709,1921.043 c -0.01,-0.134 0.073,-0.277 0.243,-0.394 v 0 l 0.052,0.743 c -0.176,0.111 -0.256,0.256 -0.246,0.388 v 0 z" />
    </clipPath>
    <clipPath
       id="clipPath3772"
       clipPathUnits="userSpaceOnUse">
      <path
         inkscape:connector-curvature="0"
         id="path3770"
         d="m 1945.896,1919.955 -0.048,-0.737 c 0.182,0.088 0.281,0.215 0.289,0.351 v 0 l 0.048,0.737 c -0.01,-0.134 -0.106,-0.261 -0.289,-0.351" />
    </clipPath>
    <clipPath
       id="clipPath3784"
       clipPathUnits="userSpaceOnUse">
      <path
         inkscape:connector-curvature="0"
         id="path3782"
         d="M 0,2119.953 H 3253.108 V 0 H 0 Z" />
    </clipPath>
    <clipPath
       id="clipPath3800"
       clipPathUnits="userSpaceOnUse">
      <path
         inkscape:connector-curvature="0"
         id="path3798"
         d="m 1943.658,1918.845 c 0.343,-0.226 0.914,-0.264 1.28,-0.084 v 0 l 0.047,0.741 c -0.361,-0.182 -0.936,-0.146 -1.28,0.084 v 0 z" />
    </clipPath>
    <clipPath
       id="clipPath3812"
       clipPathUnits="userSpaceOnUse">
      <path
         inkscape:connector-curvature="0"
         id="path3810"
         d="M 0,2119.953 H 3253.108 V 0 H 0 Z" />
    </clipPath>
    <clipPath
       id="clipPath3824"
       clipPathUnits="userSpaceOnUse">
      <path
         inkscape:connector-curvature="0"
         id="path3822"
         d="m 1951.754,1926.58 c -0.01,-0.136 0.071,-0.278 0.241,-0.392 v 0 l 0.052,0.737 c -0.174,0.117 -0.253,0.258 -0.245,0.391 v 0 z" />
    </clipPath>
    <clipPath
       id="clipPath3836"
       clipPathUnits="userSpaceOnUse">
      <path
         inkscape:connector-curvature="0"
         id="path3834"
         d="m 1956.943,1925.491 -0.049,-0.737 c 0.18,0.088 0.277,0.215 0.287,0.352 v 0 l 0.049,0.737 c -0.01,-0.132 -0.104,-0.262 -0.287,-0.352" />
    </clipPath>
    <clipPath
       id="clipPath3848"
       clipPathUnits="userSpaceOnUse">
      <path
         inkscape:connector-curvature="0"
         id="path3846"
         d="M 0,2119.953 H 3253.108 V 0 H 0 Z" />
    </clipPath>
    <clipPath
       id="clipPath3864"
       clipPathUnits="userSpaceOnUse">
      <path
         inkscape:connector-curvature="0"
         id="path3862"
         d="m 1954.703,1924.383 c 0.34,-0.229 0.916,-0.262 1.279,-0.086 v 0 l 0.049,0.743 c -0.361,-0.183 -0.938,-0.15 -1.279,0.081 v 0 z" />
    </clipPath>
    <clipPath
       id="clipPath3876"
       clipPathUnits="userSpaceOnUse">
      <path
         inkscape:connector-curvature="0"
         id="path3874"
         d="M 0,2119.953 H 3253.108 V 0 H 0 Z" />
    </clipPath>
    <clipPath
       id="clipPath3892"
       clipPathUnits="userSpaceOnUse">
      <path
         inkscape:connector-curvature="0"
         id="path3890"
         d="m 1953.117,1926.55 1.227,-0.822 c -0.145,0.891 -0.551,1.561 -1.133,1.955 v 0 l -1.232,0.823 c 0.588,-0.393 0.989,-1.061 1.138,-1.956" />
    </clipPath>
    <clipPath
       id="clipPath3948"
       clipPathUnits="userSpaceOnUse">
      <path
         inkscape:connector-curvature="0"
         id="path3946"
         d="m 2018.76,1870.93 h 70.11 v -23.75 h -70.11 z" />
    </clipPath>
    <clipPath
       id="clipPath4212"
       clipPathUnits="userSpaceOnUse">
      <path
         inkscape:connector-curvature="0"
         id="path4210"
         d="m 2154.433,1916.311 c 0,-0.141 0.087,-0.289 0.273,-0.405 v 0 l 0.028,0.784 c -0.187,0.117 -0.276,0.264 -0.271,0.407 v 0 z" />
    </clipPath>
    <clipPath
       id="clipPath4224"
       clipPathUnits="userSpaceOnUse">
      <path
         inkscape:connector-curvature="0"
         id="path4222"
         d="m 2159.973,1915.328 -0.03,-0.782 c 0.192,0.1 0.289,0.239 0.295,0.381 v 0 l 0.027,0.785 c 0,-0.142 -0.103,-0.28 -0.292,-0.384" />
    </clipPath>
    <clipPath
       id="clipPath4236"
       clipPathUnits="userSpaceOnUse">
      <path
         inkscape:connector-curvature="0"
         id="path4234"
         d="M 0,2119.953 H 3253.108 V 0 H 0 Z" />
    </clipPath>
    <clipPath
       id="clipPath4252"
       clipPathUnits="userSpaceOnUse">
      <path
         inkscape:connector-curvature="0"
         id="path4250"
         d="m 2157.634,1914.081 c 0.368,-0.23 0.978,-0.251 1.357,-0.046 v 0 l 0.029,0.783 c -0.377,-0.203 -0.988,-0.185 -1.36,0.049 v 0 z" />
    </clipPath>
    <clipPath
       id="clipPath4264"
       clipPathUnits="userSpaceOnUse">
      <path
         inkscape:connector-curvature="0"
         id="path4262"
         d="M 0,2119.953 H 3253.108 V 0 H 0 Z" />
    </clipPath>
    <clipPath
       id="clipPath4276"
       clipPathUnits="userSpaceOnUse">
      <path
         inkscape:connector-curvature="0"
         id="path4274"
         d="m 2165.961,1922.544 c 0,-0.146 0.086,-0.293 0.271,-0.409 v 0 l 0.032,0.784 c -0.188,0.117 -0.279,0.265 -0.274,0.408 v 0 z" />
    </clipPath>
    <clipPath
       id="clipPath4288"
       clipPathUnits="userSpaceOnUse">
      <path
         inkscape:connector-curvature="0"
         id="path4286"
         d="m 2171.5,1921.561 -0.028,-0.785 c 0.189,0.101 0.287,0.239 0.293,0.379 v 0 l 0.028,0.787 c 0,-0.142 -0.102,-0.281 -0.293,-0.381" />
    </clipPath>
    <clipPath
       id="clipPath4300"
       clipPathUnits="userSpaceOnUse">
      <path
         inkscape:connector-curvature="0"
         id="path4298"
         d="M 0,2119.953 H 3253.108 V 0 H 0 Z" />
    </clipPath>
    <clipPath
       id="clipPath4316"
       clipPathUnits="userSpaceOnUse">
      <path
         inkscape:connector-curvature="0"
         id="path4314"
         d="m 2169.16,1920.31 c 0.37,-0.229 0.979,-0.249 1.359,-0.045 v 0 l 0.03,0.784 c -0.379,-0.201 -0.99,-0.186 -1.36,0.046 v 0 z" />
    </clipPath>
    <clipPath
       id="clipPath4328"
       clipPathUnits="userSpaceOnUse">
      <path
         inkscape:connector-curvature="0"
         id="path4326"
         d="M 0,2119.953 H 3253.108 V 0 H 0 Z" />
    </clipPath>
    <clipPath
       id="clipPath4344"
       clipPathUnits="userSpaceOnUse">
      <path
         inkscape:connector-curvature="0"
         id="path4342"
         d="m 2167.406,1922.556 1.331,-0.832 c -0.186,0.942 -0.633,1.637 -1.266,2.036 v 0 l -1.332,0.833 c 0.636,-0.396 1.084,-1.091 1.267,-2.037" />
    </clipPath>
    <clipPath
       id="clipPath4598"
       clipPathUnits="userSpaceOnUse">
      <path
         inkscape:connector-curvature="0"
         id="path4596"
         d="m 2331.633,1939.514 c 0,-0.142 0.1,-0.287 0.296,-0.396 v 0 0.783 c -0.196,0.107 -0.292,0.246 -0.292,0.387 v 0 -0.774 z" />
    </clipPath>
    <clipPath
       id="clipPath4610"
       clipPathUnits="userSpaceOnUse">
      <path
         inkscape:connector-curvature="0"
         id="path4608"
         d="m 2337.17,1938.719 v -0.771 c 0.189,0.099 0.285,0.249 0.285,0.379 v 0 0.787 c 0,-0.14 -0.091,-0.287 -0.283,-0.395" />
    </clipPath>
    <clipPath
       id="clipPath4622"
       clipPathUnits="userSpaceOnUse">
      <path
         inkscape:connector-curvature="0"
         id="path4620"
         d="M 0,2119.953 H 3253.108 V 0 H 0 Z" />
    </clipPath>
    <clipPath
       id="clipPath4638"
       clipPathUnits="userSpaceOnUse">
      <path
         inkscape:connector-curvature="0"
         id="path4636"
         d="m 2334.888,1938.187 v -0.785 c 0.382,-0.217 0.981,-0.217 1.349,0 v 0 0.785 c -0.368,-0.217 -0.963,-0.217 -1.349,0" />
    </clipPath>
    <clipPath
       id="clipPath4650"
       clipPathUnits="userSpaceOnUse">
      <path
         inkscape:connector-curvature="0"
         id="path4648"
         d="M 0,2119.953 H 3253.108 V 0 H 0 Z" />
    </clipPath>
    <clipPath
       id="clipPath4662"
       clipPathUnits="userSpaceOnUse">
      <path
         inkscape:connector-curvature="0"
         id="path4660"
         d="m 2342.868,1946.09 c 0,-0.141 0.101,-0.294 0.291,-0.401 v 0 l 0.01,0.777 c -0.195,0.113 -0.291,0.255 -0.291,0.401 v 0 z" />
    </clipPath>
    <clipPath
       id="clipPath4674"
       clipPathUnits="userSpaceOnUse">
      <path
         inkscape:connector-curvature="0"
         id="path4672"
         d="m 2348.401,1945.298 v -0.782 c 0.182,0.104 0.277,0.25 0.277,0.39 v 0 l 0.01,0.781 c 0,-0.143 -0.095,-0.282 -0.282,-0.389" />
    </clipPath>
    <clipPath
       id="clipPath4686"
       clipPathUnits="userSpaceOnUse">
      <path
         inkscape:connector-curvature="0"
         id="path4684"
         d="M 0,2119.953 H 3253.108 V 0 H 0 Z" />
    </clipPath>
    <clipPath
       id="clipPath4702"
       clipPathUnits="userSpaceOnUse">
      <path
         inkscape:connector-curvature="0"
         id="path4700"
         d="m 2346.127,1944.756 v -0.778 c 0.376,-0.212 0.982,-0.212 1.348,0 v 0 0.778 c -0.366,-0.213 -0.972,-0.213 -1.348,0" />
    </clipPath>
    <clipPath
       id="clipPath4714"
       clipPathUnits="userSpaceOnUse">
      <path
         inkscape:connector-curvature="0"
         id="path4712"
         d="M 0,2119.953 H 3253.108 V 0 H 0 Z" />
    </clipPath>
    <clipPath
       id="clipPath4730"
       clipPathUnits="userSpaceOnUse">
      <path
         inkscape:connector-curvature="0"
         id="path4728"
         d="m 2343.05,1948.089 c -0.023,0.013 -0.045,0.026 -0.068,0.038 v 0 z m 1.257,-1.939 1.349,-0.782 c -0.21,0.926 -0.683,1.603 -1.326,1.976 v 0 l -1.28,0.745 c 0.612,-0.371 1.048,-1.041 1.257,-1.939" />
    </clipPath>
    <clipPath
       id="clipPath4742"
       clipPathUnits="userSpaceOnUse">
      <path
         inkscape:connector-curvature="0"
         id="path4740"
         d="M 0,2119.953 H 3253.108 V 0 H 0 Z" />
    </clipPath>
    <clipPath
       id="clipPath4918"
       clipPathUnits="userSpaceOnUse">
      <path
         inkscape:connector-curvature="0"
         id="path4916"
         d="m 2276.169,1866.541 c 0,-0.151 0.1,-0.291 0.285,-0.401 v 0 0.785 c -0.19,0.105 -0.286,0.259 -0.286,0.394 v 0 -0.778 z" />
    </clipPath>
    <clipPath
       id="clipPath4930"
       clipPathUnits="userSpaceOnUse">
      <path
         inkscape:connector-curvature="0"
         id="path4928"
         d="m 2281.734,1865.741 -0.01,-0.776 c 0.185,0.103 0.278,0.244 0.278,0.385 v 0 0.786 c 0,-0.141 -0.096,-0.281 -0.276,-0.395" />
    </clipPath>
    <clipPath
       id="clipPath4942"
       clipPathUnits="userSpaceOnUse">
      <path
         inkscape:connector-curvature="0"
         id="path4940"
         d="M 0,2119.953 H 3253.108 V 0 H 0 Z" />
    </clipPath>
    <clipPath
       id="clipPath4958"
       clipPathUnits="userSpaceOnUse">
      <path
         inkscape:connector-curvature="0"
         id="path4956"
         d="m 2279.442,1865.203 v -0.782 c 0.372,-0.219 0.983,-0.219 1.351,0 v 0 0.782 c -0.372,-0.221 -0.983,-0.221 -1.355,0" />
    </clipPath>
    <clipPath
       id="clipPath4970"
       clipPathUnits="userSpaceOnUse">
      <path
         inkscape:connector-curvature="0"
         id="path4968"
         d="M 0,2119.953 H 3253.108 V 0 H 0 Z" />
    </clipPath>
    <clipPath
       id="clipPath4982"
       clipPathUnits="userSpaceOnUse">
      <path
         inkscape:connector-curvature="0"
         id="path4980"
         d="m 2287.467,1873.148 c 0,-0.144 0.095,-0.29 0.287,-0.404 v 0 0.786 c -0.191,0.114 -0.29,0.258 -0.29,0.404 v 0 -0.786 z" />
    </clipPath>
    <clipPath
       id="clipPath4994"
       clipPathUnits="userSpaceOnUse">
      <path
         inkscape:connector-curvature="0"
         id="path4992"
         d="m 2293.032,1872.36 v -0.782 c 0.191,0.096 0.282,0.241 0.282,0.378 v 0 0.788 c 0,-0.14 -0.094,-0.281 -0.281,-0.384" />
    </clipPath>
    <clipPath
       id="clipPath5006"
       clipPathUnits="userSpaceOnUse">
      <path
         inkscape:connector-curvature="0"
         id="path5004"
         d="M 0,2119.953 H 3253.108 V 0 H 0 Z" />
    </clipPath>
    <clipPath
       id="clipPath5022"
       clipPathUnits="userSpaceOnUse">
      <path
         inkscape:connector-curvature="0"
         id="path5020"
         d="m 2290.745,1871.81 -0.01,-0.78 c 0.377,-0.22 0.986,-0.214 1.353,0 v 0 0.78 c -0.371,-0.212 -0.98,-0.212 -1.351,0" />
    </clipPath>
    <clipPath
       id="clipPath5034"
       clipPathUnits="userSpaceOnUse">
      <path
         inkscape:connector-curvature="0"
         id="path5032"
         d="M 0,2119.953 H 3253.108 V 0 H 0 Z" />
    </clipPath>
    <clipPath
       id="clipPath5050"
       clipPathUnits="userSpaceOnUse">
      <path
         inkscape:connector-curvature="0"
         id="path5048"
         d="m 2288.91,1873.212 1.359,-0.784 c -0.216,0.934 -0.691,1.61 -1.337,1.987 v 0 l -1.356,0.791 c 0.652,-0.377 1.121,-1.054 1.334,-1.994" />
    </clipPath>
    <clipPath
       id="clipPath4408"
       clipPathUnits="userSpaceOnUse">
      <path
         inkscape:connector-curvature="0"
         id="path4406"
         d="m 2301.08,1906.05 h 45.97 v -31.57 h -45.97 z" />
    </clipPath>
    <clipPath
       id="clipPath4392"
       clipPathUnits="userSpaceOnUse">
      <path
         inkscape:connector-curvature="0"
         id="path4390"
         d="m 2227.58,1871.71 h 52.38 v -32.03 h -52.38 z" />
    </clipPath>
    <clipPath
       id="clipPath5114"
       clipPathUnits="userSpaceOnUse">
      <path
         inkscape:connector-curvature="0"
         id="path5112"
         d="m 2417.33,1884.9 h 51.88 v -27.05 h -51.88 z" />
    </clipPath>
    <clipPath
       id="clipPath5554"
       clipPathUnits="userSpaceOnUse">
      <path
         inkscape:connector-curvature="0"
         id="path5552"
         d="m 2532.68,1877.97 h 61.16 v -27.88 h -61.16 z" />
    </clipPath>
    <clipPath
       id="clipPath5662"
       clipPathUnits="userSpaceOnUse">
      <path
         inkscape:connector-curvature="0"
         id="path5660"
         d="m 2652.02,1878.72 h 75.96 v -28.55 h -75.96 z" />
    </clipPath>
    <clipPath
       id="clipPath5782"
       clipPathUnits="userSpaceOnUse">
      <path
         inkscape:connector-curvature="0"
         id="path5780"
         d="m 2686.34,2040.48 h 6.76 v -5.02 h -6.76 z" />
    </clipPath>
    <clipPath
       id="clipPath5454"
       clipPathUnits="userSpaceOnUse">
      <path
         inkscape:connector-curvature="0"
         id="path5452"
         d="m 2763.78,1887.52 h 61.17 v -27.89 h -61.17 z" />
    </clipPath>
    <clipPath
       id="clipPath5226"
       clipPathUnits="userSpaceOnUse">
      <path
         inkscape:connector-curvature="0"
         id="path5224"
         d="m 2874.06,1879.83 h 115.04 v -37.41 h -115.04 z" />
    </clipPath>
    <clipPath
       id="clipPath5266"
       clipPathUnits="userSpaceOnUse">
      <path
         inkscape:connector-curvature="0"
         id="path5264"
         d="m 2898.47,1905.023 c -0.019,-0.014 -0.036,-0.025 -0.058,-0.038 v 0 c -0.579,-0.382 -0.588,-1.091 -0.535,-1.501 v 0 l 39.797,23.128 c -0.051,0.406 -0.042,1.119 0.537,1.502 v 0 c 0.018,0.012 0.037,0.024 0.058,0.036 v 0 c -13.266,-7.711 -26.531,-15.418 -39.799,-23.127" />
    </clipPath>
    <clipPath
       id="clipPath3000"
       clipPathUnits="userSpaceOnUse">
      <path
         inkscape:connector-curvature="0"
         id="path2998"
         d="m 3070.44,1903.77 h 111.77 v -40.19 h -111.77 z" />
    </clipPath>
    <clipPath
       id="clipPath6042"
       clipPathUnits="userSpaceOnUse">
      <path
         inkscape:connector-curvature="0"
         id="path6040"
         d="m 409.323,1548.74 h 49.951 v -25.11 h -49.951 z" />
    </clipPath>
    <clipPath
       id="clipPath5930"
       clipPathUnits="userSpaceOnUse">
      <path
         inkscape:connector-curvature="0"
         id="path5928"
         d="m 516.004,1548.66 h 54.751 v -25.03 h -54.751 z" />
    </clipPath>
    <clipPath
       id="clipPath6142"
       clipPathUnits="userSpaceOnUse">
      <path
         inkscape:connector-curvature="0"
         id="path6140"
         d="m 636.118,1542.78 h 45.362 v -19.15 h -45.362 z" />
    </clipPath>
    <clipPath
       id="clipPath6318"
       clipPathUnits="userSpaceOnUse">
      <path
         inkscape:connector-curvature="0"
         id="path6316"
         d="m 763.75,1602.23 h 22.211 v -7.49 H 763.75 Z" />
    </clipPath>
    <clipPath
       id="clipPath6242"
       clipPathUnits="userSpaceOnUse">
      <path
         inkscape:connector-curvature="0"
         id="path6240"
         d="m 749.178,1542.78 h 45.362 v -19.15 h -45.362 z" />
    </clipPath>
    <clipPath
       id="clipPath6358"
       clipPathUnits="userSpaceOnUse">
      <path
         inkscape:connector-curvature="0"
         id="path6356"
         d="m 859.142,1541.98 h 55.33 v -18.35 h -55.33 z" />
    </clipPath>
    <clipPath
       id="clipPath6562"
       clipPathUnits="userSpaceOnUse">
      <path
         inkscape:connector-curvature="0"
         id="path6560"
         d="m 972.921,1548.99 h 50.329 v -25.36 h -50.329 z" />
    </clipPath>
    <clipPath
       id="clipPath6898"
       clipPathUnits="userSpaceOnUse">
      <path
         inkscape:connector-curvature="0"
         id="path6896"
         d="m 1113.757,1660.871 0.977,-0.369 c -0.337,0.508 -0.215,1.396 0.271,1.968 v 0 l -0.978,0.368 c -0.484,-0.573 -0.605,-1.457 -0.27,-1.967" />
    </clipPath>
    <clipPath
       id="clipPath6882"
       clipPathUnits="userSpaceOnUse">
      <path
         inkscape:connector-curvature="0"
         id="path6880"
         d="M 0,2119.953 H 3253.108 V 0 H 0 Z" />
    </clipPath>
    <clipPath
       id="clipPath6870"
       clipPathUnits="userSpaceOnUse">
      <path
         inkscape:connector-curvature="0"
         id="path6868"
         d="m 1120.652,1670.681 0.975,-0.367 c 0.342,0.405 0.774,0.55 1.118,0.419 v 0 l -0.98,0.369 c -0.082,0.031 -0.168,0.047 -0.258,0.047 v 0 c -0.283,0 -0.596,-0.157 -0.855,-0.468" />
    </clipPath>
    <clipPath
       id="clipPath6858"
       clipPathUnits="userSpaceOnUse">
      <path
         inkscape:connector-curvature="0"
         id="path6856"
         d="m 1116.5,1656.939 0.98,-0.367 c -0.144,0.053 -0.271,0.155 -0.374,0.304 v 0 l -0.973,0.368 c 0.098,-0.15 0.226,-0.25 0.367,-0.305" />
    </clipPath>
    <clipPath
       id="clipPath6798"
       clipPathUnits="userSpaceOnUse">
      <path
         inkscape:connector-curvature="0"
         id="path6796"
         d="m 1085.74,1549.12 h 50.59 v -25.49 h -50.59 z" />
    </clipPath>
    <clipPath
       id="clipPath6450"
       clipPathUnits="userSpaceOnUse">
      <path
         inkscape:connector-curvature="0"
         id="path6448"
         d="m 1192.19,1544.97 h 58.91 v -21.34 h -58.91 z" />
    </clipPath>
    <clipPath
       id="clipPath7190"
       clipPathUnits="userSpaceOnUse">
      <path
         inkscape:connector-curvature="0"
         id="path7188"
         d="m 1415.1,1546.39 h 59.78 v -22.76 h -59.78 z" />
    </clipPath>
    <clipPath
       id="clipPath7322"
       clipPathUnits="userSpaceOnUse">
      <path
         inkscape:connector-curvature="0"
         id="path7320"
         d="m 1529.94,1551.96 h 66.67 v -28.33 h -66.67 z" />
    </clipPath>
  </defs>
  <sodipodi:namedview
     id="base"
     pagecolor="#ffffff"
     bordercolor="#666666"
     borderopacity="1.0"
     inkscape:pageopacity="0.0"
     inkscape:pageshadow="2"
     inkscape:zoom="0.35"
     inkscape:cx="-792.46786"
     inkscape:cy="-247.27387"
     inkscape:document-units="mm"
     inkscape:current-layer="layer1"
     showgrid="false"
     fit-margin-top="0"
     fit-margin-left="0"
     fit-margin-right="0"
     fit-margin-bottom="0"
     inkscape:window-width="1360"
     inkscape:window-height="706"
     inkscape:window-x="-8"
     inkscape:window-y="-8"
     inkscape:window-maximized="1" />
  <metadata
     id="metadata45328">
    <rdf:RDF>
      <cc:Work
         rdf:about="">
        <dc:format>image/svg+xml</dc:format>
        <dc:type
           rdf:resource="http://purl.org/dc/dcmitype/StillImage" />
        <dc:title></dc:title>
      </cc:Work>
    </rdf:RDF>
  </metadata>
  <g
     inkscape:label="Layer 1"
     inkscape:groupmode="layer"
     id="layer1"
     transform="translate(-132.18866,-350.41156)">
    <g
       id="g12818"
       transform="matrix(0.1,0,0,0.086,120.02814,322.62519)">
      <g
         transform="matrix(0.35277777,0,0,-0.35277777,-418.12456,920.36874)"
         id="g7316">
        <g
           id="g7318" />
        <g
           id="g7330">
          <g
             style="opacity:0.27000403"
             id="g7328"
             clip-path="url(#clipPath7322)">
            <g
               id="g7326"
               transform="translate(1593.8638,1536.9912)">
              <path
                 inkscape:connector-curvature="0"
                 id="path7324"
                 style="fill:#231f20;fill-opacity:1;fill-rule:nonzero;stroke:none"
                 d="m 0,0 c -11.663,-3.974 -28.269,-3.678 -26.241,-7.872 2.378,-4.92 -7.598,-6.578 -19.966,-4.792 -10.268,1.484 -17.714,6.729 -17.714,12.47 0,8.656 14.529,14.453 36.8,15.15 9.568,0.303 23.938,-3.431 27.235,-6.741 C 3.76,4.551 3.525,1.2 0,0" />
            </g>
          </g>
        </g>
      </g>
      <g
         transform="matrix(0.35277777,0,0,-0.35277777,138.69744,373.3844)"
         id="g7332">
        <path
           inkscape:connector-curvature="0"
           id="path7334"
           style="fill:#c1eae7;fill-opacity:1;fill-rule:nonzero;stroke:none"
           d="m 0,0 4.059,-1.836 c 0,0 8.178,-2.928 9.852,-3.889 0.917,-0.521 1.387,-1.647 1.524,-2.384 0.087,-0.472 0.109,-1.801 -0.171,-2.189 -0.719,-0.981 -2.273,-2.112 -3.696,-2.377 -2.752,-0.513 -8.574,0.588 -8.574,0.588 -0.75,0.352 -12.525,4.055 -12.525,4.055 0,0 -0.439,1.432 -0.548,2.301 l -0.719,5.748 z" />
      </g>
      <g
         transform="matrix(0.35277777,0,0,-0.35277777,138.97803,375.7162)"
         id="g7336">
        <path
           inkscape:connector-curvature="0"
           id="path7338"
           style="fill:#f5f5f5;fill-opacity:1;fill-rule:nonzero;stroke:none"
           d="m 0,0 c -0.082,-0.115 -0.236,-0.159 -0.353,-0.082 -0.09,0.064 -0.176,0.173 -0.113,0.264 0.352,0.492 1.674,2.267 3.115,3.13 C 3.913,4.07 5.053,4.088 5.567,4.044 5.715,4.03 5.841,3.913 5.807,3.771 5.781,3.639 5.651,3.554 5.518,3.563 5.065,3.598 4.032,3.577 2.897,2.898 1.635,2.142 0.417,0.573 0,0" />
      </g>
      <g
         transform="matrix(0.35277777,0,0,-0.35277777,139.49413,375.87297)"
         id="g7340">
        <path
           inkscape:connector-curvature="0"
           id="path7342"
           style="fill:#f5f5f5;fill-opacity:1;fill-rule:nonzero;stroke:none"
           d="m 0,0 c -0.085,-0.114 -0.239,-0.157 -0.356,-0.08 -0.09,0.062 -0.176,0.172 -0.11,0.261 0.348,0.491 1.672,2.268 3.112,3.133 C 3.908,4.07 5.048,4.09 5.566,4.044 5.713,4.034 5.838,3.913 5.807,3.771 5.778,3.639 5.651,3.551 5.513,3.565 5.062,3.599 4.026,3.577 2.895,2.9 1.631,2.143 0.417,0.573 0,0" />
      </g>
      <g
         transform="matrix(0.35277777,0,0,-0.35277777,139.98229,376.12598)"
         id="g7344">
        <path
           inkscape:connector-curvature="0"
           id="path7346"
           style="fill:#f5f5f5;fill-opacity:1;fill-rule:nonzero;stroke:none"
           d="m 0,0 c -0.083,-0.113 -0.235,-0.158 -0.352,-0.079 -0.094,0.061 -0.176,0.17 -0.113,0.261 0.353,0.493 1.673,2.268 3.113,3.131 1.263,0.756 2.403,0.778 2.921,0.73 C 5.715,4.034 5.841,3.913 5.807,3.771 5.782,3.638 5.652,3.553 5.517,3.562 5.066,3.599 4.03,3.578 2.896,2.899 1.635,2.143 0.419,0.571 0,0" />
      </g>
      <g
         transform="matrix(0.35277777,0,0,-0.35277777,143.60496,375.40409)"
         id="g7348">
        <path
           inkscape:connector-curvature="0"
           id="path7350"
           style="fill:#14546d;fill-opacity:1;fill-rule:nonzero;stroke:none"
           d="m 0,0 c -0.244,0.142 -0.183,0.131 -0.654,0.338 -0.648,-0.116 -1.722,-0.397 -3.3,-1.46 -3.061,-2.065 -3.551,-5.201 -3.551,-5.201 0,0 1.242,-0.615 7.135,0.293 0.072,0.014 0.132,0.026 0.193,0.041 0.633,0.429 1.048,0.853 1.396,1.329 0.28,0.389 0.392,1.805 0.305,2.276 C 1.387,-1.647 0.917,-0.521 0,0" />
      </g>
      <g
         transform="matrix(0.35277777,0,0,-0.35277777,144.13532,376.2128)"
         id="g7352">
        <path
           inkscape:connector-curvature="0"
           id="path7354"
           style="fill:#f5f5f5;fill-opacity:1;fill-rule:nonzero;stroke:none"
           d="m 0,0 c -0.082,-1.131 -2.24,-2.448 -3.627,-2.87 -4.76,-1.451 -19.231,2.994 -19.906,3.235 -1.578,0.559 -1.824,1.088 -1.824,1.088 0,0 0.325,-1.626 0.386,-1.599 0,0 0.315,-1.609 1.229,-2.005 0.737,-0.321 6.468,-1.49 7.948,-1.813 0,0 8.496,-1.842 12.494,-0.764 1.399,0.378 2.787,0.849 3.33,2.36 C 0.193,-1.91 0.013,0.16 0,0" />
      </g>
      <g
         transform="matrix(0.35277777,0,0,-0.35277777,128.163,376.17579)"
         id="g7356">
        <path
           inkscape:connector-curvature="0"
           id="path7358"
           style="fill:#c1eae7;fill-opacity:1;fill-rule:nonzero;stroke:none"
           d="m 0,0 7.491,-5.035 c 0,0 3.459,-2.305 5.092,-3.529 0.891,-0.669 1.237,-1.907 1.285,-2.701 0.03,-0.507 -0.122,-1.904 -0.465,-2.269 -0.884,-0.938 -2.696,-1.672 -4.19,-2.011 -4.423,-1.005 -8.911,1.742 -8.911,1.742 -0.735,0.469 -12.595,5.9 -12.595,5.9 0,0 -0.274,1.554 -0.274,2.475 v 6.123 z" />
      </g>
      <g
         transform="matrix(0.35277777,0,0,-0.35277777,127.80801,378.79905)"
         id="g7360">
        <path
           inkscape:connector-curvature="0"
           id="path7362"
           style="fill:#f5f5f5;fill-opacity:1;fill-rule:nonzero;stroke:none"
           d="m 0,0 c -0.099,-0.119 -0.274,-0.156 -0.394,-0.062 -0.099,0.075 -0.187,0.201 -0.11,0.296 0.424,0.525 2.006,2.406 3.661,3.27 1.45,0.753 2.717,0.702 3.286,0.62 C 6.608,4.097 6.739,3.957 6.693,3.801 6.652,3.656 6.506,3.571 6.356,3.593 5.857,3.658 4.705,3.706 3.406,3.03 1.955,2.272 0.502,0.609 0,0" />
      </g>
      <g
         transform="matrix(0.35277777,0,0,-0.35277777,128.42071,379.16132)"
         id="g7364">
        <path
           inkscape:connector-curvature="0"
           id="path7366"
           style="fill:#f5f5f5;fill-opacity:1;fill-rule:nonzero;stroke:none"
           d="M 0,0 C -0.101,-0.12 -0.272,-0.158 -0.397,-0.063 -0.492,0.013 -0.575,0.139 -0.5,0.236 -0.07,0.753 1.538,2.612 3.205,3.456 4.664,4.197 5.929,4.123 6.501,4.034 6.659,4.006 6.79,3.866 6.745,3.708 6.701,3.565 6.554,3.48 6.403,3.503 5.904,3.579 4.755,3.64 3.445,2.982 1.984,2.24 0.513,0.601 0,0" />
      </g>
      <g
         transform="matrix(0.35277777,0,0,-0.35277777,128.93762,379.47444)"
         id="g7368">
        <path
           inkscape:connector-curvature="0"
           id="path7370"
           style="fill:#f5f5f5;fill-opacity:1;fill-rule:nonzero;stroke:none"
           d="M 0,0 C -0.107,-0.112 -0.286,-0.143 -0.402,-0.038 -0.493,0.044 -0.57,0.173 -0.489,0.266 -0.034,0.758 1.669,2.534 3.378,3.287 4.872,3.949 6.131,3.812 6.699,3.691 6.856,3.655 6.977,3.509 6.923,3.357 6.872,3.214 6.721,3.14 6.574,3.165 6.081,3.27 4.938,3.39 3.595,2.795 2.096,2.137 0.541,0.576 0,0" />
      </g>
      <g
         transform="matrix(0.35277777,0,0,-0.35277777,132.60218,379.19712)"
         id="g7372">
        <path
           inkscape:connector-curvature="0"
           id="path7374"
           style="fill:#14546d;fill-opacity:1;fill-rule:nonzero;stroke:none"
           d="m 0,0 c -0.259,0.197 -0.569,0.42 -0.903,0.661 -0.579,0.088 -1.795,-0.009 -4.146,-1.197 -3.48,-1.76 -5.091,-4.871 -5.091,-4.871 0,0 2.321,-1.068 8.621,-0.891 0.103,0 0.186,0.016 0.286,0.019 0.822,0.36 1.575,0.801 2.052,1.31 0.344,0.364 0.495,1.761 0.465,2.269 C 1.236,-1.907 0.89,-0.668 0,0" />
      </g>
      <g
         transform="matrix(0.35277777,0,0,-0.35277777,133.03697,380.18741)"
         id="g7376">
        <path
           inkscape:connector-curvature="0"
           id="path7378"
           style="fill:#f5f5f5;fill-opacity:1;fill-rule:nonzero;stroke:none"
           d="m 0,0 c -0.238,-1.176 -3.259,-2.322 -4.74,-2.708 -7.371,-1.921 -19.164,6.041 -19.842,6.382 -1.58,0.795 -1.768,1.381 -1.768,1.381 0,0 0.126,-1.751 0.193,-1.725 0,0 0.122,-1.729 1.025,-2.265 0.733,-0.433 8.029,-3.909 9.538,-4.445 0,0 6.326,-2.4 11.289,-1.338 1.653,0.354 3.792,1.381 4.305,2.551 C 0.142,-1.845 0.032,0.166 0,0" />
      </g>
      <g
         transform="matrix(0.35277777,0,0,-0.35277777,133.35373,348.36819)"
         id="g7380">
        <path
           inkscape:connector-curvature="0"
           id="path7382"
           style="fill:#093c4c;fill-opacity:1;fill-rule:nonzero;stroke:none"
           d="m 0,0 c 0.899,-6.574 13.625,-59.074 15.959,-71.286 0.291,-1.52 -0.342,-2.081 -0.685,-2.595 -2.12,-3.18 -9.437,-3.375 -11.393,1.322 l -21.945,67.367 z" />
      </g>
      <g
         transform="matrix(0.35277777,0,0,-0.35277777,130.88411,347.73048)"
         id="g7384">
        <path
           inkscape:connector-curvature="0"
           id="path7386"
           style="fill:#14546d;fill-opacity:1;fill-rule:nonzero;stroke:none"
           d="m 0,0 -6.389,-82.49 c -0.116,-1.653 -0.827,-1.76 -3.605,-2.08 -3.429,-0.39 -5.854,0.453 -5.854,0.453 -2.196,0.77 -4.514,2.495 -4.628,4.598 l 0.607,77.711 z" />
      </g>
      <g
         transform="matrix(0.35277777,0,0,-0.35277777,138.62455,343.42376)"
         id="g7388">
        <path
           inkscape:connector-curvature="0"
           id="path7390"
           style="fill:#047547;fill-opacity:1;fill-rule:nonzero;stroke:none"
           d="m 0,0 c -0.146,0.646 0.808,2.815 0.808,2.815 0,0 -3.784,11.401 -8.753,21.935 -3.813,8.082 -7.879,7.15 -8.359,6.92 l -0.033,-0.253 2.451,-19.969 c 0,0 3.338,-7.206 3.989,-8.384 0.5,-0.911 0.466,-1.509 0.238,-1.911 1.606,0.844 4.614,1.913 7.918,0.472 C -0.953,1.279 -0.401,0.702 0,0" />
      </g>
      <g
         transform="matrix(0.35277777,0,0,-0.35277777,123.07805,354.34231)"
         id="g7392">
        <path
           inkscape:connector-curvature="0"
           id="path7394"
           style="fill:#079e64;fill-opacity:1;fill-rule:nonzero;stroke:none"
           d="m 0,0 c 0,0 -1.375,40.293 -0.763,49.122 0.194,2.794 4.321,6.118 4.321,6.118 1.525,1.327 10.788,8.008 10.788,8.008 0,0 0.952,1.11 0.923,1.088 l 6.383,0.406 c 0,0 6.751,-0.789 8.546,-4.133 2.639,-4.927 3.638,-5.544 3.65,-15.402 L 31.385,14.902 c -0.003,-1.328 0.905,-10.385 1.807,-16.031 0,0 -5.42,-3.386 -17.387,-3.386 -7.904,0 -12.416,1.807 -12.416,1.807 C 0,-1.129 -0.057,0.464 0,0" />
      </g>
      <g
         transform="matrix(0.35277777,0,0,-0.35277777,138.91326,342.42399)"
         id="g7396">
        <path
           inkscape:connector-curvature="0"
           id="path7398"
           style="fill:#0cad6b;fill-opacity:1;fill-rule:nonzero;stroke:none"
           d="m 0,0 c -0.104,0.675 -0.768,1.582 -1.33,2.143 -2.344,2.346 -10.93,2.516 -10.93,2.516 l -11.25,0.378 c 0,0 -2.723,0.046 -3.647,-0.455 -2.671,-1.467 -2.196,-6.424 -2.196,-6.424 0,0 15.174,-4.553 22.723,-4.884 C -3.554,-6.858 0.958,-4.644 0,0" />
      </g>
      <g
         transform="matrix(0.35277777,0,0,-0.35277777,131.97554,340.71284)"
         id="g7400">
        <path
           inkscape:connector-curvature="0"
           id="path7402"
           style="fill:#f2c8a5;fill-opacity:1;fill-rule:nonzero;stroke:none"
           d="M 0,0 C 0,0 -6.083,0.533 -7.37,0.267 -8.657,0 -9.475,-1.466 -10.413,-3.199 c -0.935,-1.734 -1.422,-2.515 -1.637,-3.471 -0.142,-0.633 -0.117,-1.996 0.586,-2.53 0.703,-0.534 6.668,2.8 6.668,2.8 l 5.85,3.332 c 0,0 0.701,2.402 -1.054,3.068" />
      </g>
      <g
         transform="matrix(0.35277777,0,0,-0.35277777,132.4375,340.84048)"
         id="g7404">
        <path
           inkscape:connector-curvature="0"
           id="path7406"
           style="fill:#f2c8a5;fill-opacity:1;fill-rule:nonzero;stroke:none"
           d="m 0,0 1.859,1.797 1.96,1.889 c 0,0 1.034,1.037 1.46,1.195 0.886,0.326 2.126,-0.002 4.034,-0.647 0.975,-0.328 3.582,-1.804 3.582,-1.804 0,0 1.457,-1.107 -1.358,-1.66 C 10.305,0.53 4.751,-3.972 4.751,-3.972 Z" />
      </g>
      <g
         transform="matrix(0.35277777,0,0,-0.35277777,124.284,335.82063)"
         id="g7408">
        <path
           inkscape:connector-curvature="0"
           id="path7410"
           style="fill:#2abc7d;fill-opacity:1;fill-rule:nonzero;stroke:none"
           d="m 0,0 c 0,0 4.508,-0.081 5.655,-5.075 1.012,-4.407 2.018,-11.717 2.1,-12.192 0.663,-3.836 1.998,-3.958 2.711,-3.594 2.051,1.036 13.178,6.943 13.178,6.943 0,0 1.643,0.033 2.425,-0.398 3.145,-1.728 2.105,-4.399 2.105,-4.399 0,0 -14.55,-14.711 -20.765,-15.145 -5.768,-0.408 -6.664,4.078 -7.492,5.909 -2.294,5.083 -4.921,17.335 -4.921,17.335 0,0 -2.128,10.535 5.004,10.616" />
      </g>
      <g
         transform="matrix(0.35277777,0,0,-0.35277777,132.00483,334.92387)"
         id="g7412">
        <path
           inkscape:connector-curvature="0"
           id="path7414"
           style="fill:#ea3606;fill-opacity:1;fill-rule:nonzero;stroke:none"
           d="M 0,0 C 0,0 -1.586,5.246 -4.045,5.738 -6.504,6.23 -9.838,-1.476 -9.838,-1.476 L -0.656,-10 C -0.656,-10 0,-1.803 0,0" />
      </g>
      <g
         transform="matrix(0.35277777,0,0,-0.35277777,128.57419,329.49042)"
         id="g7416">
        <path
           inkscape:connector-curvature="0"
           id="path7418"
           style="fill:#e0a77c;fill-opacity:1;fill-rule:nonzero;stroke:none"
           d="m 0,0 -3.565,-12.515 c 0,0 1.434,-5.077 5.503,-6.489 4.678,-1.621 7.106,2.754 5.091,4.923 -0.064,0.068 0.626,1.597 1.02,2.754 0.844,2.483 2.184,5.158 2.184,5.158 z" />
      </g>
      <g
         transform="matrix(0.35277777,0,0,-0.35277777,131.77329,338.45164)"
         id="g7420">
        <path
           inkscape:connector-curvature="0"
           id="path7422"
           style="fill:#2abc7d;fill-opacity:1;fill-rule:nonzero;stroke:none"
           d="m 0,0 c 0,0 4.917,14.262 3.771,17.05 -1.148,2.787 -6.23,1.804 -6.23,1.804 l 0.983,-1.968 c 0,0 0.984,-8.689 0.984,-11.476 C -0.492,2.623 0,0 0,0" />
      </g>
      <g
         transform="matrix(0.35277777,0,0,-0.35277777,132.13019,325.53941)"
         id="g7424">
        <path
           inkscape:connector-curvature="0"
           id="path7426"
           style="fill:#f2c8a5;fill-opacity:1;fill-rule:nonzero;stroke:none"
           d="m 0,0 -0.003,-0.001 -8.341,0.911 -1.839,-15.034 c -0.003,-1.044 -0.149,-1.971 -0.08,-2.866 0.077,-0.979 0.416,-1.916 1.484,-2.935 0,0 0.991,-1.015 2.608,-2.405 1.007,-0.86 1.73,-1.441 3.243,-2.089 0.994,-0.424 3.222,0.252 3.222,0.252 1.368,0.654 2.246,2.587 3.256,5.253 l 4.14,11.166 1.06,8.255 z" />
      </g>
      <g
         transform="matrix(0.35277777,0,0,-0.35277777,134.68096,324.87591)"
         id="g7428">
        <path
           inkscape:connector-curvature="0"
           id="path7430"
           style="fill:#261505;fill-opacity:1;fill-rule:nonzero;stroke:none"
           d="m 0,0 c 2.192,-1.582 4.394,-5.751 2.531,-9.109 -0.294,-0.53 -1.034,-1.331 -1.851,-2.218 -0.141,-0.154 1.335,3.553 -1.108,1.183 -2.712,-2.63 -7.435,-5.37 -7.21,-4.917 0.146,0.289 1.344,4.382 0.482,6.393 -0.063,0.147 -0.781,0.885 -3.255,-0.441 -1.752,-0.938 -3.905,-5.745 -3.922,-5.766 -0.163,-0.27 0.218,2.215 -0.073,3.473 0,0 -0.883,1.562 -2.248,1.521 -1.633,-0.048 -0.854,-3.931 -0.784,-4.135 l -1.089,-3.422 c -0.146,-0.073 -0.055,2.354 -1.276,5.668 -1.209,3.264 -0.939,2.68 -1.184,3.697 C -22.764,-0.75 -16.33,9.234 -3.611,3.17 -2.543,2.66 3.048,0.062 3.935,-3.487 3.973,-3.637 2.515,-1.368 1.422,-0.973 0.174,-0.524 0,0 0,0" />
      </g>
      <g
         transform="matrix(0.35277777,0,0,-0.35277777,128.90286,328.35546)"
         id="g7432">
        <path
           inkscape:connector-curvature="0"
           id="path7434"
           style="fill:#f2c8a5;fill-opacity:1;fill-rule:nonzero;stroke:none"
           d="M 0,0 C 2.043,0.322 1.988,-2.944 1.988,-2.944 L 1.731,-6.58 c 0,0 -0.252,-1.323 -1.086,-1.316 -0.972,0.011 -1.583,0.767 -1.998,2.011 -0.024,0.069 -0.649,1.831 -0.681,1.94 C -2.464,-2.399 -2.037,-0.325 0,0" />
      </g>
      <g
         transform="matrix(0.35277777,0,0,-0.35277777,131.85013,338.72138)"
         id="g7436">
        <path
           inkscape:connector-curvature="0"
           id="path7438"
           style="fill:#2abc7d;fill-opacity:1;fill-rule:nonzero;stroke:none"
           d="m 0,0 c 0,0 -0.984,7.323 -10.219,12.077 -5.341,2.749 -1.659,5.061 -1.659,5.061 l 1.291,4.467 c 0,0 -1.271,2.276 -6.189,-0.84 C -21.694,17.65 -27.217,7.826 -23.436,9.023 -15.608,11.502 0,0 0,0" />
      </g>
    </g>
  </g>
</svg>
