<?xml version="1.0" encoding="UTF-8" standalone="no"?>
<!-- Created with Inkscape (http://www.inkscape.org/) -->

<svg
   xmlns:dc="http://purl.org/dc/elements/1.1/"
   xmlns:cc="http://creativecommons.org/ns#"
   xmlns:rdf="http://www.w3.org/1999/02/22-rdf-syntax-ns#"
   xmlns:svg="http://www.w3.org/2000/svg"
   xmlns="http://www.w3.org/2000/svg"
   xmlns:sodipodi="http://sodipodi.sourceforge.net/DTD/sodipodi-0.dtd"
   xmlns:inkscape="http://www.inkscape.org/namespaces/inkscape"
   width="2.802002mm"
   height="5.8618717mm"
   viewBox="0 0 2.8020019 5.8618717"
   version="1.1"
   id="svg45331"
   inkscape:version="0.92.2 (5c3e80d, 2017-08-06)"
   sodipodi:docname="people-business-17.svg">
  <defs
     id="defs45325">
    <clipPath
       id="clipPath2864"
       clipPathUnits="userSpaceOnUse">
      <path
         inkscape:connector-curvature="0"
         id="path2862"
         d="m 1713.778,1928.833 c -0.536,-0.312 -0.927,-0.874 -1.106,-1.65 v 0 l 1.125,0.653 c 0.179,0.778 0.57,1.34 1.107,1.651 v 0 z" />
    </clipPath>
    <clipPath
       id="clipPath2848"
       clipPathUnits="userSpaceOnUse">
      <path
         inkscape:connector-curvature="0"
         id="path2846"
         d="M 0,2119.953 H 3253.108 V 0 H 0 Z" />
    </clipPath>
    <clipPath
       id="clipPath2836"
       clipPathUnits="userSpaceOnUse">
      <path
         inkscape:connector-curvature="0"
         id="path2834"
         d="m 1711.152,1926.674 v -0.651 c 0.308,-0.179 0.813,-0.18 1.126,0 v 0 0.651 c -0.315,-0.183 -0.82,-0.178 -1.129,0" />
    </clipPath>
    <clipPath
       id="clipPath2820"
       clipPathUnits="userSpaceOnUse">
      <path
         inkscape:connector-curvature="0"
         id="path2818"
         d="M 0,2119.953 H 3253.108 V 0 H 0 Z" />
    </clipPath>
    <clipPath
       id="clipPath2808"
       clipPathUnits="userSpaceOnUse">
      <path
         inkscape:connector-curvature="0"
         id="path2806"
         d="m 1710.148,1926.8 c 0,-0.121 0.077,-0.238 0.231,-0.325 v 0 0.65 c -0.156,0.087 -0.233,0.207 -0.233,0.324 v 0 -0.649 z" />
    </clipPath>
    <clipPath
       id="clipPath2796"
       clipPathUnits="userSpaceOnUse">
      <path
         inkscape:connector-curvature="0"
         id="path2794"
         d="m 1714.756,1928.103 v -0.65 c 0.158,0.09 0.237,0.211 0.237,0.331 v 0 0.65 c 0,-0.119 -0.078,-0.24 -0.236,-0.331" />
    </clipPath>
    <clipPath
       id="clipPath2784"
       clipPathUnits="userSpaceOnUse">
      <path
         inkscape:connector-curvature="0"
         id="path2782"
         d="M 0,2119.953 H 3253.108 V 0 H 0 Z" />
    </clipPath>
    <clipPath
       id="clipPath2772"
       clipPathUnits="userSpaceOnUse">
      <path
         inkscape:connector-curvature="0"
         id="path2770"
         d="m 1720.53,1921.188 10e-4,-0.65 c 0.309,-0.181 0.814,-0.181 1.128,0 v 0 0.65 c -0.316,-0.182 -0.821,-0.181 -1.129,0" />
    </clipPath>
    <clipPath
       id="clipPath2756"
       clipPathUnits="userSpaceOnUse">
      <path
         inkscape:connector-curvature="0"
         id="path2754"
         d="M 0,2119.953 H 3253.108 V 0 H 0 Z" />
    </clipPath>
    <clipPath
       id="clipPath2744"
       clipPathUnits="userSpaceOnUse">
      <path
         inkscape:connector-curvature="0"
         id="path2742"
         d="m 1719.524,1921.312 c 0,-0.119 0.08,-0.235 0.234,-0.324 v 0 0.65 c -0.154,0.089 -0.233,0.207 -0.233,0.324 v 0 -0.65 z" />
    </clipPath>
    <clipPath
       id="clipPath2732"
       clipPathUnits="userSpaceOnUse">
      <path
         inkscape:connector-curvature="0"
         id="path2730"
         d="m 1724.133,1922.619 v -0.654 c 0.158,0.094 0.238,0.212 0.238,0.331 v 0 0.65 c 0,-0.117 -0.08,-0.238 -0.238,-0.327" />
    </clipPath>
    <clipPath
       id="clipPath2536"
       clipPathUnits="userSpaceOnUse">
      <path
         inkscape:connector-curvature="0"
         id="path2534"
         d="m 1708.77,1889.11 h 53.56 v -38.31 h -53.56 z" />
    </clipPath>
    <clipPath
       id="clipPath3428"
       clipPathUnits="userSpaceOnUse">
      <path
         inkscape:connector-curvature="0"
         id="path3426"
         d="m 1819.231,1919.634 0.051,-0.722 c 0.167,0.114 0.248,0.253 0.238,0.383 v 0 l -0.048,0.721 c 0.01,-0.131 -0.071,-0.272 -0.241,-0.382" />
    </clipPath>
    <clipPath
       id="clipPath3440"
       clipPathUnits="userSpaceOnUse">
      <path
         inkscape:connector-curvature="0"
         id="path3438"
         d="m 1814.225,1917.859 c 0.01,-0.132 0.103,-0.255 0.282,-0.343 v 0 l -0.049,0.721 c -0.177,0.085 -0.273,0.212 -0.281,0.34 v 0 z" />
    </clipPath>
    <clipPath
       id="clipPath3452"
       clipPathUnits="userSpaceOnUse">
      <path
         inkscape:connector-curvature="0"
         id="path3450"
         d="M 0,2119.953 H 3253.108 V 0 H 0 Z" />
    </clipPath>
    <clipPath
       id="clipPath3468"
       clipPathUnits="userSpaceOnUse">
      <path
         inkscape:connector-curvature="0"
         id="path3466"
         d="m 1815.349,1917.792 0.046,-0.72 c 0.354,-0.177 0.915,-0.14 1.248,0.082 v 0 l -0.048,0.721 c -0.335,-0.223 -0.893,-0.259 -1.246,-0.083" />
    </clipPath>
    <clipPath
       id="clipPath3480"
       clipPathUnits="userSpaceOnUse">
      <path
         inkscape:connector-curvature="0"
         id="path3478"
         d="M 0,2119.953 H 3253.108 V 0 H 0 Z" />
    </clipPath>
    <clipPath
       id="clipPath3492"
       clipPathUnits="userSpaceOnUse">
      <path
         inkscape:connector-curvature="0"
         id="path3490"
         d="m 1808.461,1925.033 0.049,-0.719 c 0.167,0.112 0.245,0.25 0.238,0.383 v 0 l -0.049,0.719 c 0.01,-0.131 -0.07,-0.268 -0.238,-0.383" />
    </clipPath>
    <clipPath
       id="clipPath3504"
       clipPathUnits="userSpaceOnUse">
      <path
         inkscape:connector-curvature="0"
         id="path3502"
         d="m 1803.454,1923.259 c 0.01,-0.132 0.102,-0.258 0.279,-0.342 v 0 l -0.048,0.72 c -0.177,0.086 -0.273,0.214 -0.28,0.342 v 0 z" />
    </clipPath>
    <clipPath
       id="clipPath3516"
       clipPathUnits="userSpaceOnUse">
      <path
         inkscape:connector-curvature="0"
         id="path3514"
         d="M 0,2119.953 H 3253.108 V 0 H 0 Z" />
    </clipPath>
    <clipPath
       id="clipPath3532"
       clipPathUnits="userSpaceOnUse">
      <path
         inkscape:connector-curvature="0"
         id="path3530"
         d="m 1804.576,1923.193 0.047,-0.721 c 0.353,-0.175 0.915,-0.14 1.248,0.081 v 0 l -0.049,0.722 c -0.333,-0.223 -0.894,-0.258 -1.246,-0.082" />
    </clipPath>
    <clipPath
       id="clipPath3544"
       clipPathUnits="userSpaceOnUse">
      <path
         inkscape:connector-curvature="0"
         id="path3542"
         d="M 0,2119.953 H 3253.108 V 0 H 0 Z" />
    </clipPath>
    <clipPath
       id="clipPath3560"
       clipPathUnits="userSpaceOnUse">
      <path
         inkscape:connector-curvature="0"
         id="path3558"
         d="m 1807.327,1925.772 c -0.572,-0.383 -0.964,-1.034 -1.106,-1.907 v 0 l 1.197,0.803 c 0.144,0.873 0.537,1.525 1.109,1.907 v 0 z" />
    </clipPath>
    <clipPath
       id="clipPath3240"
       clipPathUnits="userSpaceOnUse">
      <path
         inkscape:connector-curvature="0"
         id="path3238"
         d="m 1804.45,1875.26 h 66.26 v -26.97 h -66.26 z" />
    </clipPath>
  </defs>
  <sodipodi:namedview
     id="base"
     pagecolor="#ffffff"
     bordercolor="#666666"
     borderopacity="1.0"
     inkscape:pageopacity="0.0"
     inkscape:pageshadow="2"
     inkscape:zoom="0.35"
     inkscape:cx="400.13825"
     inkscape:cy="343.02709"
     inkscape:document-units="mm"
     inkscape:current-layer="layer1"
     showgrid="false"
     fit-margin-top="0"
     fit-margin-left="0"
     fit-margin-right="0"
     fit-margin-bottom="0"
     inkscape:window-width="1360"
     inkscape:window-height="706"
     inkscape:window-x="-8"
     inkscape:window-y="-8"
     inkscape:window-maximized="1" />
  <metadata
     id="metadata45328">
    <rdf:RDF>
      <cc:Work
         rdf:about="">
        <dc:format>image/svg+xml</dc:format>
        <dc:type
           rdf:resource="http://purl.org/dc/dcmitype/StillImage" />
        <dc:title></dc:title>
      </cc:Work>
    </rdf:RDF>
  </metadata>
  <g
     inkscape:label="Layer 1"
     inkscape:groupmode="layer"
     id="layer1"
     transform="translate(183.35503,-324.44501)">
    <g
       id="g2076"
       transform="matrix(0.1,0,0,0.086,-163.75863,299.22161)">
      <g
         transform="matrix(0.35277777,0,0,-0.35277777,-827.88893,1013.4938)"
         id="g3234">
        <g
           id="g3236" />
        <g
           id="g3248">
          <g
             style="opacity:0.28999299"
             id="g3246"
             clip-path="url(#clipPath3240)">
            <g
               id="g3244"
               transform="translate(1862.4844,1862.9795)">
              <path
                 inkscape:connector-curvature="0"
                 id="path3242"
                 style="fill:#231f20;fill-opacity:1;fill-rule:nonzero;stroke:none"
                 d="m 0,0 c -16.701,-1.943 -10.875,-3.814 -10.875,-7.38 0,-5.048 -8.679,-7.305 -19.221,-7.305 -18.805,0 -27.939,7.544 -27.939,14.034 0,6.491 11.614,12.93 30.424,12.93 19.816,0 32.264,-2.154 35.378,-6.422 C 10.078,2.697 3.16,0.367 0,0" />
            </g>
          </g>
        </g>
      </g>
      <g
         id="g42916"
         transform="translate(-9.0503268,63.513005)">
        <g
           id="g3250"
           transform="matrix(0.35277777,0,0,-0.35277777,-167.12093,285.66201)">
          <path
             d="m 0,0 1.215,-2.784 c 0,0 11.502,-4.763 12.208,-5.146 0.806,-0.432 2.583,-1.199 2.309,-2.739 -0.065,-0.365 -0.058,-0.603 -0.304,-0.927 -0.865,-1.155 -2.556,-1.63 -4.115,-1.854 -3.395,-0.504 -10.446,0.73 -10.446,0.73 -2.056,0.312 -5.453,1.437 -5.82,1.756 0,0 -1.763,0.577 -2.1,-0.044 -0.125,-0.22 -0.201,-1.006 -0.183,-1.213 l -4.13,1.667 c -0.216,0.121 -0.544,2.291 -0.612,3.253 l 0.34,6.324 z"
             style="fill:#231f20;fill-opacity:1;fill-rule:nonzero;stroke:none"
             id="path3252"
             inkscape:connector-curvature="0" />
        </g>
        <g
           id="g3254"
           transform="matrix(0.35277777,0,0,-0.35277777,-162.43976,290.03918)">
          <path
             d="m 0,0 c -0.9,-0.411 -2.148,-0.593 -3.386,-0.703 -4.943,-0.426 -12.315,1.474 -12.315,1.474 -0.735,0.192 -3.499,0.964 -3.499,0.964 0,0 -0.842,0.148 -1.245,-0.27 0.002,-0.119 0.107,-1.547 0.107,-1.547 l 1.262,0.732 c 0,0 3.383,-0.848 3.976,-1.061 0,0 7.097,-1.808 12.073,-1.437 1.568,0.115 4.25,0.967 5.241,2.395 C 2.391,0.805 2.609,1.431 2.442,1.879 2.414,1.799 1.213,0.547 0,0"
             style="fill:#282827;fill-opacity:1;fill-rule:nonzero;stroke:none"
             id="path3256"
             inkscape:connector-curvature="0" />
        </g>
        <g
           id="g3258"
           transform="matrix(0.35277777,0,0,-0.35277777,-169.60901,289.5455)">
          <path
             d="m 0,0 -4.744,2.313 c 0,0 0.319,-1.895 0.387,-1.861 l 4.341,-1.933 C -0.023,-1.33 -0.006,-0.394 0,0"
             style="fill:#282827;fill-opacity:1;fill-rule:nonzero;stroke:none"
             id="path3260"
             inkscape:connector-curvature="0" />
        </g>
        <g
           id="g3262"
           transform="matrix(0.35277777,0,0,-0.35277777,-168.12727,260.2217)">
          <path
             d="m 0,0 4.367,-71.883 c 0.347,-2.457 1.774,-3.25 1.089,-4.114 -2.551,-3.216 -13.894,-6.474 -15.578,-1.303 l -6.221,73.431 z"
             style="fill:#141413;fill-opacity:1;fill-rule:nonzero;stroke:none"
             id="path3264"
             inkscape:connector-curvature="0" />
        </g>
        <g
           id="g3266"
           transform="matrix(0.35277777,0,0,-0.35277777,-180.69426,290.08877)">
          <path
             d="m 0,0 c 0,0 -0.224,-7.033 -0.238,-7.199 -0.248,-3.124 3.118,-11.127 8.011,-11.617 0.728,-0.076 3.288,0.178 3.288,0.178 0,0 3.344,0.124 2.715,6.468 -0.245,2.462 -2.584,12.396 -2.584,12.396 z"
             style="fill:#383736;fill-opacity:1;fill-rule:nonzero;stroke:none"
             id="path3268"
             inkscape:connector-curvature="0" />
        </g>
        <g
           id="g3270"
           transform="matrix(0.35277777,0,0,-0.35277777,-180.85931,289.47022)">
          <path
             d="m 0,0 c 0,0 0.383,-4.037 0.699,-9.29 0.19,-3.129 3.684,-9.751 7.997,-10.008 1.117,-0.063 1.997,0.048 2.071,0.05 1.86,0.102 4.401,0.834 3.374,7.292 -0.369,2.305 -1.881,11.189 -2.009,11.195 z"
             style="fill:#231f20;fill-opacity:1;fill-rule:nonzero;stroke:none"
             id="path3272"
             inkscape:connector-curvature="0" />
        </g>
        <g
           id="g3274"
           transform="matrix(0.35277777,0,0,-0.35277777,-172.75504,262.02195)">
          <path
             d="m 0,0 c -0.865,-12.723 -8.792,-82.41 -8.792,-82.41 -0.134,-1.787 -5.302,-3.846 -5.302,-3.846 -6.316,0.243 -9.278,4.195 -9.302,4.824 l 1.041,79.732 z"
             style="fill:#383736;fill-opacity:1;fill-rule:nonzero;stroke:none"
             id="path3276"
             inkscape:connector-curvature="0" />
        </g>
        <g
           id="g3278"
           transform="matrix(0.35277777,0,0,-0.35277777,-166.89703,262.86822)">
          <path
             d="m 0,0 5.221,2.016 c 0,0 1.76,-1.015 4.387,-6.246 1.232,-2.457 1.408,-5.119 1.408,-5.119 0,0 0.093,-4.026 -3.469,-5.134 -1.813,-0.564 -3.084,0.389 -3.084,0.389 -1.045,0.843 -1.182,2.577 -1.727,3.869 -0.545,1.289 -3.099,5.034 -3.099,5.034 C -1.467,-3.278 -0.871,-0.689 0,0"
             style="fill:#e8c5ac;fill-opacity:1;fill-rule:nonzero;stroke:none"
             id="path3280"
             inkscape:connector-curvature="0" />
        </g>
        <g
           id="g3282"
           transform="matrix(0.35277777,0,0,-0.35277777,-166.14493,263.82993)">
          <path
             d="M 0,0 C 0.364,-1.722 2.403,-3.255 4.005,-3.348 4.561,-3.386 4.694,-6.704 5.44,-7.987 6.224,-9.335 7.606,-8.64 7.847,-8.27 8.035,-7.979 6.858,-3.07 6.606,-1.824 5.773,2.335 4.169,2.9 2.569,2.999 0.967,3.095 -0.384,1.831 0,0"
             style="fill:#ffe1cc;fill-opacity:1;fill-rule:nonzero;stroke:none"
             id="path3284"
             inkscape:connector-curvature="0" />
        </g>
        <g
           id="g3286"
           transform="matrix(0.35277777,0,0,-0.35277777,-165.59169,264.34359)">
          <path
             d="m 0,0 c -4.716,-2.235 -5.966,-1.647 -5.966,-1.647 0,0 -7.367,16.673 -9.584,24.926 -1.571,5.873 -4.964,22.765 -4.964,22.765 0,0 -4.134,14.682 1.686,17.956 1.882,1.061 5.994,1.598 8.456,-0.104 1.601,-1.109 3.596,-6.313 4.111,-9.999 0.535,-3.796 3.174,-24.643 3.549,-26.52 C -0.708,17.339 4.261,3.425 4.261,3.425 4.261,3.425 1.78,0.845 0,0"
             style="fill:#2c3133;fill-opacity:1;fill-rule:nonzero;stroke:none"
             id="path3288"
             inkscape:connector-curvature="0" />
        </g>
        <g
           id="g3290"
           transform="matrix(0.35277777,0,0,-0.35277777,-176.96356,244.80713)">
          <path
             d="m 0,0 c 0,0 3.281,5.786 6.279,6.943 3.001,1.156 12.647,0.626 12.647,0.626 0,0 5.146,-11.202 5.195,-11.965 0.049,-0.766 -2.392,-20.916 -2.392,-20.916 L 8.86,-15.09 Z"
             style="fill:#d7dfe2;fill-opacity:1;fill-rule:nonzero;stroke:none"
             id="path3292"
             inkscape:connector-curvature="0" />
        </g>
        <g
           id="g3294"
           transform="matrix(0.35277777,0,0,-0.35277777,-169.32615,242.21042)">
          <path
             d="m 0,0 c -1.483,2.393 -4.62,2.525 -6.714,2.301 2.566,-1.83 5.943,-7.783 6.492,-16.251 0.285,-4.418 -0.724,-15.735 -0.869,-15.483 -0.138,0.238 -8.555,16.767 -11.864,19.781 -0.469,0.424 -4.964,9.152 -4.964,9.152 0,0 -11.925,-9.816 -13.064,-11.874 l 3.803,-58.749 c 0.174,-1.335 -0.062,-1.8 1.322,-2.428 0,0 6.964,-2.022 15.121,-1.763 6.454,0.208 16.791,4.373 16.791,4.373 0.175,0.134 0.488,0.247 0.453,0.797 L 4.119,-48.483 C 4.465,-25.523 3.435,-5.543 0,0"
             style="fill:#3d4244;fill-opacity:1;fill-rule:nonzero;stroke:none"
             id="path3296"
             inkscape:connector-curvature="0" />
        </g>
        <g
           id="g3298"
           transform="matrix(0.35277777,0,0,-0.35277777,-169.15631,267.9301)">
          <path
             d="m 0,0 -1.523,25.443 0.41,17.58 c 0,0 -0.701,1.554 -0.979,2.044 L -2.158,25.582 -0.734,-0.261 C -0.516,-0.207 -0.104,-0.068 0,0"
             style="fill:#383736;fill-opacity:1;fill-rule:nonzero;stroke:none"
             id="path3300"
             inkscape:connector-curvature="0" />
        </g>
        <g
           id="g3302"
           transform="matrix(0.35277777,0,0,-0.35277777,-170.82268,243.73674)">
          <path
             d="m 0,0 c -4.62,-4.846 -9.263,0.992 -12.448,4.559 l 0.009,12.223 11.617,-3.022 z"
             style="fill:#e8c5ac;fill-opacity:1;fill-rule:nonzero;stroke:none"
             id="path3304"
             inkscape:connector-curvature="0" />
        </g>
        <g
           id="g3306"
           transform="matrix(0.35277777,0,0,-0.35277777,-170.60393,246.65717)">
          <path
             d="M 0,0 C -0.124,0.471 -0.438,0.956 -0.345,1.515 L -0.01,3.219 -2.356,6.688 -3.575,6.452 -4.26,2.523 -2.592,1.188 c 0.375,-0.345 0.874,-1.042 0.854,-1.534 l 1.211,-11.134 2.977,-4.698 c 0,0 1.071,3.417 1.027,4.679 C 3.318,-7.06 0,0 0,0"
             style="fill:#160b01;fill-opacity:1;fill-rule:nonzero;stroke:none"
             id="path3308"
             inkscape:connector-curvature="0" />
        </g>
        <g
           id="g3310"
           transform="matrix(0.35277777,0,0,-0.35277777,-170.89399,242.17682)">
          <path
             d="m 0,0 0.738,1.921 c 0,0 0.938,-0.502 1.15,-0.646 1.178,-0.798 1.823,-2.022 2.286,-2.797 0.93,-1.551 3.262,-6.454 3.262,-6.454 0.459,-1.125 0.22,-1.905 -0.407,-2.669 l -1.806,-2.29 1.857,-1.47 c 1.215,-0.818 0.835,-2.533 0.469,-3.734 -1.293,-4.237 -4.277,-10.739 -4.277,-10.739 0,0 0.744,7.621 0.594,12.127 C 3.535,-6.575 0,0 0,0"
             style="fill:#7a797a;fill-opacity:1;fill-rule:nonzero;stroke:none"
             id="path3312"
             inkscape:connector-curvature="0" />
        </g>
        <g
           id="g3314"
           transform="matrix(0.35277777,0,0,-0.35277777,-171.54238,244.05974)">
          <path
             d="m 0,0 c -0.641,-0.583 -0.086,-1.286 0.307,-1.776 l 2.457,-3.039 c 0.778,-0.903 1.045,0.183 1.002,1.186 L 3.632,3.599 c -0.361,3.787 -2.006,4.07 -2.006,4.07 0,0 0.092,-0.913 0.063,-2.083 C 1.646,4.027 1.835,1.666 0,0"
             style="fill:#ffffff;fill-opacity:1;fill-rule:nonzero;stroke:none"
             id="path3316"
             inkscape:connector-curvature="0" />
        </g>
        <g
           id="g3318"
           transform="matrix(0.35277777,0,0,-0.35277777,-175.2231,240.71403)">
          <path
             d="m 0,0 c 0,0 0.246,-2.426 0.705,-3.5 2.247,-5.274 8.807,-6.206 8.807,-6.206 0.77,-0.239 0.76,-0.611 0.715,-1.901 l -0.469,-4.724 c -0.049,-1.237 -0.695,-1.15 -1.217,-0.671 0,0 -5.194,3.974 -6.663,5.324 -3.461,3.177 -3.932,5.559 -2.987,9.895 C -0.783,-0.277 0,0 0,0"
             style="fill:#ffffff;fill-opacity:1;fill-rule:nonzero;stroke:none"
             id="path3320"
             inkscape:connector-curvature="0" />
        </g>
        <g
           id="g3322"
           transform="matrix(0.35277777,0,0,-0.35277777,-175.59519,241.25439)">
          <path
             d="m 0,0 -2.511,-4.975 c 0,0 -0.455,-0.63 -0.299,-1.932 0.109,-0.917 0.566,-2.191 0.566,-2.191 l 3.148,-6.525 c 0.533,-1.552 1.142,-2.042 2.343,-2.061 l 4.246,-0.254 -1.305,-3.052 c -0.449,-0.978 -0.085,-1.505 0.751,-2.067 8.68,-5.806 10.162,-9.635 10.162,-9.635 0,0 0.023,4.195 -7.358,15.866 C 7.861,-13.85 4.635,-9.63 2.349,-6.218 -0.629,-1.773 0,0 0,0"
             style="fill:#7a797a;fill-opacity:1;fill-rule:nonzero;stroke:none"
             id="path3324"
             inkscape:connector-curvature="0" />
        </g>
        <g
           id="g3326"
           transform="matrix(0.35277777,0,0,-0.35277777,-171.89962,232.54881)">
          <path
             d="m 0,0 0.002,-0.004 -9.838,-0.676 0.99,-17.769 c 0.212,-1.207 0.236,-2.31 0.501,-3.329 0.294,-1.118 0.876,-2.136 2.323,-3.091 0,0 1.96,-0.97 4.125,-2.225 1.28,-0.742 5.087,-1.774 6.841,-0.69 0.99,0.614 2.621,0.468 3.994,4.55 0.082,0.247 0.6,3.917 0.627,4.953 l 0.414,11.156 0.014,6.822 z"
             style="fill:#ffe1cc;fill-opacity:1;fill-rule:nonzero;stroke:none"
             id="path3328"
             inkscape:connector-curvature="0" />
        </g>
        <g
           id="g3330"
           transform="matrix(0.35277777,0,0,-0.35277777,-168.73634,231.62003)">
          <path
             d="m 0,0 c 2.33,-1.737 0.906,-6.691 0.901,-6.654 -0.196,2.085 -2.464,3.285 -3.454,2.799 -1.93,-0.949 -8.028,-4.052 -8.703,-4.512 -1.93,-1.313 -2.091,-4.152 -1.901,-5.696 l 0.101,-1.55 c 0.052,-0.806 0.244,-1.72 -0.551,-1.685 -0.844,0.04 -0.795,0.366 -1.083,1.214 0,0 -1.322,2.706 -3.518,2.243 -1.875,-0.395 -0.172,-4.727 -0.046,-4.946 l -0.046,-5.287 c -0.221,0.045 -0.88,1.235 -1.935,3.186 -1.951,3.599 -2.225,4.381 -2.786,5.478 C -29.469,-2.783 -19.64,7.65 -7.093,4.708 -4.745,4.159 0,0 0,0"
             style="fill:#a89678;fill-opacity:1;fill-rule:nonzero;stroke:none"
             id="path3332"
             inkscape:connector-curvature="0" />
        </g>
        <g
           id="g3334"
           transform="matrix(0.35277777,0,0,-0.35277777,-175.03191,236.42968)">
          <path
             d="M 0,0 C 2.545,0.166 2.99,-2.262 2.99,-2.262 L 3.321,-7.38 c 0,0 -0.05,-1.12 -0.998,-1.378 -1.43,-0.389 -2.14,0.836 -2.88,2.19 -0.044,0.074 -1.003,2.077 -1.059,2.196 C -2.438,-2.674 -2.411,-0.156 0,0"
             style="fill:#ffe1cc;fill-opacity:1;fill-rule:nonzero;stroke:none"
             id="path3336"
             inkscape:connector-curvature="0" />
        </g>
        <g
           id="g3338"
           transform="matrix(0.35277777,0,0,-0.35277777,-181.1218,268.90076)">
          <path
             d="m 0,0 c -0.098,-1.793 2.262,-3.104 3.894,-3.189 0.568,-0.032 1.237,-4.445 3.586,-4.416 0,0 0.058,1.17 0.089,3.224 0.005,0.164 0.357,1.899 -0.645,3.186 C 4.271,2.218 3.979,2.856 2.348,2.946 0.714,3.032 0.099,1.79 0,0"
             style="fill:#e8c5ac;fill-opacity:1;fill-rule:nonzero;stroke:none"
             id="path3340"
             inkscape:connector-curvature="0" />
        </g>
        <g
           id="g3342"
           transform="matrix(0.35277777,0,0,-0.35277777,-184.04016,277.08115)">
          <path
             d="M 0,0 C 0.02,-0.27 0.151,-0.571 0.345,-0.811 Z"
             style="fill:#6d320a;fill-opacity:1;fill-rule:nonzero;stroke:none"
             id="path3344"
             inkscape:connector-curvature="0" />
        </g>
        <g
           id="g3346"
           transform="matrix(0.35277777,0,0,-0.35277777,-184.11077,275.94426)">
          <path
             d="m 0,0 c -6.422,7.494 -7.87,15.741 -7.945,16.175 l 0.093,-1.506 0.243,-0.912 C -6.967,11.126 -4.961,4.568 0.08,-1.272 Z"
             style="fill:#6d320a;fill-opacity:1;fill-rule:nonzero;stroke:none"
             id="path3348"
             inkscape:connector-curvature="0" />
        </g>
        <g
           id="g3350"
           transform="matrix(0.35277777,0,0,-0.35277777,-178.55487,279.79123)">
          <path
             d="M 0,0 C 0.019,-0.272 0.15,-0.57 0.343,-0.81 Z"
             style="fill:#6d320a;fill-opacity:1;fill-rule:nonzero;stroke:none"
             id="path3352"
             inkscape:connector-curvature="0" />
        </g>
        <g
           id="g3354"
           transform="matrix(0.35277777,0,0,-0.35277777,-174.91825,284.30223)">
          <path
             d="M 0,0 7.489,5.026 C 7.798,5.235 7.97,5.643 7.937,6.208 L 0.446,1.179 C 0.483,0.617 0.31,0.207 0,0"
             style="fill:#723919;fill-opacity:1;fill-rule:nonzero;stroke:none"
             id="path3356"
             inkscape:connector-curvature="0" />
        </g>
        <g
           id="g3358"
           transform="matrix(0.35277777,0,0,-0.35277777,-175.24861,276.00196)">
          <path
             d="m 0,0 0.094,-1.502 -0.117,-0.737 c -0.719,-4.12 -3.013,-6.818 -6.298,-7.695 0,0 -6.999,0.55 -9.214,1.644 -2.339,1.156 -6.054,4.118 -6.462,4.321 l -3.044,2.861 c -5.041,5.839 -7.047,12.398 -7.689,15.028 l -0.243,0.913 1.289,-20.845 c 0.074,-1.13 0.957,-2.461 1.982,-2.966 l 29.363,-14.509 c 1.023,-0.507 1.793,0.008 1.722,1.138 z"
             style="fill:#8c532c;fill-opacity:1;fill-rule:nonzero;stroke:none"
             id="path3360"
             inkscape:connector-curvature="0" />
        </g>
        <g
           id="g3362"
           transform="matrix(0.35277777,0,0,-0.35277777,-175.2431,276.08896)">
          <path
             d="M 0,0 7.488,5.027 7.475,5.272 -0.016,0.247 Z"
             style="fill:#5c361d;fill-opacity:1;fill-rule:nonzero;stroke:none"
             id="path3364"
             inkscape:connector-curvature="0" />
        </g>
        <g
           id="g3366"
           transform="matrix(0.35277777,0,0,-0.35277777,-175.2431,276.08896)">
          <path
             d="m 0,0 c -0.557,-4.554 -2.931,-7.529 -6.422,-8.456 0.007,-0.044 0.015,-0.088 0.017,-0.132 l 0.068,-1.1 c 3.285,0.878 5.579,3.575 6.298,7.696 l 0.117,0.737 z"
             style="fill:#6d320a;fill-opacity:1;fill-rule:nonzero;stroke:none"
             id="path3368"
             inkscape:connector-curvature="0" />
        </g>
        <g
           id="g3370"
           transform="matrix(0.35277777,0,0,-0.35277777,-186.91372,270.23815)">
          <path
             d="m 0,0 c 0.075,-0.434 1.523,-8.681 7.945,-16.175 l -0.016,0.265 c -0.025,0.451 0.284,0.654 0.691,0.453 l 1.722,-0.852 c 0.41,-0.201 0.762,-0.732 0.789,-1.182 l 0.125,-2.006 c 1.768,-1.526 3.806,-2.918 6.141,-4.072 2.216,-1.096 4.302,-1.67 6.191,-1.767 l -0.109,1.745 c -0.028,0.447 0.281,0.656 0.687,0.454 l 1.719,-0.85 c 0.373,-0.184 0.697,-0.638 0.775,-1.054 3.491,0.927 5.865,3.902 6.422,8.456 l -0.016,0.247 -10.338,5.106 -1.511,0.747 -9.303,4.599 -1.511,0.745 z"
             style="fill:#a5683d;fill-opacity:1;fill-rule:nonzero;stroke:none"
             id="path3372"
             inkscape:connector-curvature="0" />
        </g>
        <g
           id="g3374"
           transform="matrix(0.35277777,0,0,-0.35277777,-184.27164,268.46444)">
          <path
             d="m 0,0 -7.489,-5.028 33.066,-16.338 0.094,-1.502 1.289,-20.847 c 0.037,-0.563 -0.137,-0.973 -0.446,-1.18 l 7.489,5.026 c 0.309,0.21 0.48,0.618 0.447,1.182 l -1.383,22.347 z"
             style="fill:#6d3b18;fill-opacity:1;fill-rule:nonzero;stroke:none"
             id="path3376"
             inkscape:connector-curvature="0" />
        </g>
        <g
           id="g3378"
           transform="matrix(0.35277777,0,0,-0.35277777,-178.61069,279.1468)">
          <path
             d="m 0,0 c -1.888,0.102 -3.973,0.672 -6.189,1.768 -2.339,1.154 -4.374,2.547 -6.142,4.073 L -13.063,5.6 -12.862,5.061 c 1.768,-1.517 4.409,-3.37 6.75,-4.525 2.215,-1.097 4.302,-1.668 6.19,-1.768 z"
             style="fill:#6d320a;fill-opacity:1;fill-rule:nonzero;stroke:none"
             id="path3380"
             inkscape:connector-curvature="0" />
        </g>
        <g
           id="g3382"
           transform="matrix(0.35277777,0,0,-0.35277777,-177.6874,279.77778)">
          <path
             d="M 0,0 0.103,-1.683 C 0.115,-1.881 0.055,-2.028 -0.058,-2.097 l 0.302,0.2 c 0.11,0.073 0.17,0.217 0.157,0.413 L 0.299,0.201 Z"
             style="fill:#75460d;fill-opacity:1;fill-rule:nonzero;stroke:none"
             id="path3384"
             inkscape:connector-curvature="0" />
        </g>
        <g
           id="g3386"
           transform="matrix(0.35277777,0,0,-0.35277777,-177.6874,279.77778)">
          <path
             d="M 0,0 0.299,0.201 -2.328,1.498 -2.627,1.297 Z"
             style="fill:#eb921a;fill-opacity:1;fill-rule:nonzero;stroke:none"
             id="path3388"
             inkscape:connector-curvature="0" />
        </g>
        <g
           id="g3390"
           transform="matrix(0.35277777,0,0,-0.35277777,-178.61411,279.32026)">
          <path
             d="m 0,0 0.101,-1.682 c 0.027,-0.4 0.336,-0.868 0.697,-1.045 l 1.326,-0.656 c 0.358,-0.176 0.628,0.006 0.605,0.404 l -0.102,1.682 z"
             style="fill:#d87a13;fill-opacity:1;fill-rule:nonzero;stroke:none"
             id="path3392"
             inkscape:connector-curvature="0" />
        </g>
        <g
           id="g3394"
           transform="matrix(0.35277777,0,0,-0.35277777,-177.70981,278.65726)">
          <path
             d="m 0,0 -1.717,0.85 c -0.209,0.102 -0.389,0.1 -0.514,0.02 L -2.829,0.462 c 0.124,0.085 0.303,0.085 0.511,-0.015 L -0.6,-0.401 c 0.373,-0.183 0.758,-0.708 0.788,-1.185 l 0.126,-2.037 0.601,0.4 -0.124,2.038 C 0.758,-0.718 0.378,-0.186 0,0"
             style="fill:#89550f;fill-opacity:1;fill-rule:nonzero;stroke:none"
             id="path3396"
             inkscape:connector-curvature="0" />
        </g>
        <g
           id="g3398"
           transform="matrix(0.35277777,0,0,-0.35277777,-178.52764,278.49968)">
          <path
             d="M 0,0 C -0.411,0.202 -0.719,0 -0.689,-0.453 L -0.563,-2.492 2.633,-4.07 2.507,-2.033 C 2.482,-1.581 2.127,-1.05 1.719,-0.848 Z"
             style="fill:#f99b1c;fill-opacity:1;fill-rule:nonzero;stroke:none"
             id="path3400"
             inkscape:connector-curvature="0" />
        </g>
        <g
           id="g3402"
           transform="matrix(0.35277777,0,0,-0.35277777,-183.23225,277.10542)">
          <path
             d="m 0,0 0.103,-1.682 c 0.012,-0.199 -0.05,-0.344 -0.158,-0.416 l 0.297,0.2 c 0.11,0.072 0.172,0.218 0.161,0.414 L 0.297,0.199 Z"
             style="fill:#75460d;fill-opacity:1;fill-rule:nonzero;stroke:none"
             id="path3404"
             inkscape:connector-curvature="0" />
        </g>
        <g
           id="g3406"
           transform="matrix(0.35277777,0,0,-0.35277777,-183.23225,277.10542)">
          <path
             d="M 0,0 0.297,0.199 -2.329,1.496 -2.63,1.297 Z"
             style="fill:#eb921a;fill-opacity:1;fill-rule:nonzero;stroke:none"
             id="path3408"
             inkscape:connector-curvature="0" />
        </g>
        <g
           id="g3410"
           transform="matrix(0.35277777,0,0,-0.35277777,-184.16004,276.64776)">
          <path
             d="M 0,0 0.104,-1.684 C 0.132,-2.08 0.44,-2.55 0.8,-2.727 l 1.328,-0.656 c 0.355,-0.173 0.627,10e-4 0.604,0.404 L 2.63,-1.297 Z"
             style="fill:#d87a13;fill-opacity:1;fill-rule:nonzero;stroke:none"
             id="path3412"
             inkscape:connector-curvature="0" />
        </g>
        <g
           id="g3414"
           transform="matrix(0.35277777,0,0,-0.35277777,-183.25538,275.9849)">
          <path
             d="M 0,0 -1.718,0.848 C -1.925,0.952 -2.105,0.95 -2.229,0.864 l -0.6,-0.399 c 0.125,0.083 0.307,0.085 0.511,-0.017 L -0.6,-0.401 c 0.079,-0.04 0.153,-0.092 0.226,-0.156 0.013,-0.008 0.029,-0.018 0.044,-0.03 0.269,-0.248 0.498,-0.639 0.519,-0.999 l 0.128,-2.04 0.599,0.403 -0.126,2.039 C 0.758,-0.721 0.384,-0.188 0,0"
             style="fill:#89550f;fill-opacity:1;fill-rule:nonzero;stroke:none"
             id="path3416"
             inkscape:connector-curvature="0" />
        </g>
        <g
           id="g3418"
           transform="matrix(0.35277777,0,0,-0.35277777,-184.0732,275.82696)">
          <path
             d="m 0,0 c -0.408,0.203 -0.716,-0.001 -0.687,-0.454 l 0.124,-2.04 3.199,-1.58 -0.128,2.04 c -0.028,0.452 -0.38,0.982 -0.789,1.185 z"
             style="fill:#f99b1c;fill-opacity:1;fill-rule:nonzero;stroke:none"
             id="path3420"
             inkscape:connector-curvature="0" />
        </g>
        <g
           id="g3422"
           transform="matrix(0.35277777,0,0,-0.35277777,-818.8386,949.9808)">
          <g
             id="g3424"
             clip-path="url(#clipPath3428)">
            <g
               id="g3430"
               transform="translate(1819.2314,1919.6343)">
              <path
                 d="m 0,0 0.05,-0.722 c 0.168,0.114 0.249,0.253 0.239,0.383 L 0.241,0.382 C 0.248,0.251 0.17,0.11 0,0"
                 style="fill:#f99b1c;fill-opacity:1;fill-rule:nonzero;stroke:none"
                 id="path3432"
                 inkscape:connector-curvature="0" />
            </g>
          </g>
        </g>
        <g
           id="g3434"
           transform="matrix(0.35277777,0,0,-0.35277777,-818.8386,949.9808)">
          <g
             id="g3436"
             clip-path="url(#clipPath3440)">
            <g
               id="g3442"
               transform="translate(1814.1768,1918.5771)">
              <path
                 d="M 0,0 0.049,-0.717 C 0.056,-0.85 0.151,-0.973 0.33,-1.061 l -0.048,0.72 C 0.104,-0.255 0.008,-0.128 0,0"
                 style="fill:#ea921a;fill-opacity:1;fill-rule:nonzero;stroke:none"
                 id="path3444"
                 inkscape:connector-curvature="0" />
            </g>
          </g>
        </g>
        <g
           id="g3446"
           transform="matrix(0.35277777,0,0,-0.35277777,-818.8386,949.9808)">
          <g
             id="g3448"
             clip-path="url(#clipPath3452)">
            <g
               id="g3454"
               transform="translate(1814.459,1918.2363)">
              <path
                 d="M 0,0 0.048,-0.72 0.937,-1.165 0.89,-0.444 Z"
                 style="fill:#ea921a;fill-opacity:1;fill-rule:nonzero;stroke:none"
                 id="path3456"
                 inkscape:connector-curvature="0" />
            </g>
            <g
               id="g3458"
               transform="translate(1816.5947,1917.8745)">
              <path
                 d="M 0,0 0.048,-0.72 2.687,1.038 2.637,1.76 Z"
                 style="fill:#ffc585;fill-opacity:1;fill-rule:nonzero;stroke:none"
                 id="path3460"
                 inkscape:connector-curvature="0" />
            </g>
          </g>
        </g>
        <g
           id="g3462"
           transform="matrix(0.35277777,0,0,-0.35277777,-818.8386,949.9808)">
          <g
             id="g3464"
             clip-path="url(#clipPath3468)">
            <g
               id="g3470"
               transform="translate(1815.3486,1917.7925)">
              <path
                 d="M 0,0 0.047,-0.721 C 0.4,-0.897 0.961,-0.86 1.294,-0.638 L 1.246,0.082 C 0.912,-0.14 0.354,-0.176 0,0"
                 style="fill:#f99b1c;fill-opacity:1;fill-rule:nonzero;stroke:none"
                 id="path3472"
                 inkscape:connector-curvature="0" />
            </g>
          </g>
        </g>
        <g
           id="g3474"
           transform="matrix(0.35277777,0,0,-0.35277777,-818.8386,949.9808)">
          <g
             id="g3476"
             clip-path="url(#clipPath3480)">
            <g
               id="g3482"
               transform="translate(1814.415,1918.958)">
              <path
                 d="m 0,0 c -0.334,-0.224 -0.315,-0.543 0.044,-0.722 l 0.89,-0.444 c 0.353,-0.176 0.912,-0.14 1.246,0.083 L 4.816,0.676 C 5.153,0.898 5.132,1.225 4.779,1.4 L 3.887,1.844 C 3.531,2.022 2.974,1.98 2.64,1.758 Z"
                 style="fill:#ffb255;fill-opacity:1;fill-rule:nonzero;stroke:none"
                 id="path3484"
                 inkscape:connector-curvature="0" />
            </g>
          </g>
        </g>
        <g
           id="g3486"
           transform="matrix(0.35277777,0,0,-0.35277777,-818.8386,949.9808)">
          <g
             id="g3488"
             clip-path="url(#clipPath3492)">
            <g
               id="g3494"
               transform="translate(1808.4609,1925.0332)">
              <path
                 d="m 0,0 0.049,-0.719 c 0.167,0.112 0.245,0.25 0.238,0.383 L 0.238,0.383 C 0.247,0.252 0.168,0.114 0,0"
                 style="fill:#f99b1c;fill-opacity:1;fill-rule:nonzero;stroke:none"
                 id="path3496"
                 inkscape:connector-curvature="0" />
            </g>
          </g>
        </g>
        <g
           id="g3498"
           transform="matrix(0.35277777,0,0,-0.35277777,-818.8386,949.9808)">
          <g
             id="g3500"
             clip-path="url(#clipPath3504)">
            <g
               id="g3506"
               transform="translate(1803.4043,1923.9785)">
              <path
                 d="M 0,0 0.05,-0.72 C 0.059,-0.852 0.151,-0.977 0.329,-1.061 L 0.28,-0.341 C 0.104,-0.255 0.008,-0.127 0,0"
                 style="fill:#ea921a;fill-opacity:1;fill-rule:nonzero;stroke:none"
                 id="path3508"
                 inkscape:connector-curvature="0" />
            </g>
          </g>
        </g>
        <g
           id="g3510"
           transform="matrix(0.35277777,0,0,-0.35277777,-818.8386,949.9808)">
          <g
             id="g3512"
             clip-path="url(#clipPath3516)">
            <g
               id="g3518"
               transform="translate(1803.6846,1923.6377)">
              <path
                 d="M 0,0 0.049,-0.72 0.938,-1.166 0.891,-0.444 Z"
                 style="fill:#ea921a;fill-opacity:1;fill-rule:nonzero;stroke:none"
                 id="path3520"
                 inkscape:connector-curvature="0" />
            </g>
            <g
               id="g3522"
               transform="translate(1805.8223,1923.2744)">
              <path
                 d="M 0,0 0.049,-0.722 2.688,1.04 2.639,1.759 Z"
                 style="fill:#ffc585;fill-opacity:1;fill-rule:nonzero;stroke:none"
                 id="path3524"
                 inkscape:connector-curvature="0" />
            </g>
          </g>
        </g>
        <g
           id="g3526"
           transform="matrix(0.35277777,0,0,-0.35277777,-818.8386,949.9808)">
          <g
             id="g3528"
             clip-path="url(#clipPath3532)">
            <g
               id="g3534"
               transform="translate(1804.5752,1923.1934)">
              <path
                 d="m 0,0 0.048,-0.722 c 0.353,-0.174 0.915,-0.14 1.248,0.081 L 1.247,0.081 C 0.914,-0.142 0.354,-0.176 0,0"
                 style="fill:#f99b1c;fill-opacity:1;fill-rule:nonzero;stroke:none"
                 id="path3536"
                 inkscape:connector-curvature="0" />
            </g>
          </g>
        </g>
        <g
           id="g3538"
           transform="matrix(0.35277777,0,0,-0.35277777,-818.8386,949.9808)">
          <g
             id="g3540"
             clip-path="url(#clipPath3544)">
            <g
               id="g3546"
               transform="translate(1803.6426,1924.3594)">
              <path
                 d="M 0,0 C -0.333,-0.223 -0.315,-0.545 0.042,-0.722 L 0.933,-1.166 C 1.286,-1.342 1.847,-1.308 2.18,-1.085 L 4.818,0.674 C 5.152,0.899 5.133,1.222 4.78,1.398 L 3.887,1.841 C 3.532,2.02 2.973,1.983 2.638,1.762 Z"
                 style="fill:#ffb255;fill-opacity:1;fill-rule:nonzero;stroke:none"
                 id="path3548"
                 inkscape:connector-curvature="0" />
            </g>
            <g
               id="g3550"
               transform="translate(1808.5273,1926.5752)">
              <path
                 d="M 0,0 -1.2,-0.803 C -1.771,-1.187 -2.164,-1.837 -2.307,-2.71 l 1.198,0.803 C -0.966,-1.034 -0.572,-0.383 0,0"
                 style="fill:#8c532c;fill-opacity:1;fill-rule:nonzero;stroke:none"
                 id="path3552"
                 inkscape:connector-curvature="0" />
            </g>
          </g>
        </g>
        <g
           id="g3554"
           transform="matrix(0.35277777,0,0,-0.35277777,-818.8386,949.9808)">
          <g
             id="g3556"
             clip-path="url(#clipPath3560)">
            <g
               id="g3562"
               transform="translate(1806.2207,1923.8652)">
              <path
                 d="M 0,0 1.197,0.803 C 1.341,1.676 1.734,2.327 2.307,2.71 L 1.106,1.907 C 0.535,1.523 0.143,0.873 0,0"
                 style="fill:#8c532c;fill-opacity:1;fill-rule:nonzero;stroke:none"
                 id="path3564"
                 inkscape:connector-curvature="0" />
            </g>
          </g>
        </g>
        <g
           id="g3574"
           transform="matrix(0.35277777,0,0,-0.35277777,-181.22619,269.73689)">
          <path
             d="M 0,0 C 3.335,2.24 9.614,-2.998 10.829,-8.924 L 9.631,-9.729 C 8.422,-3.813 2.14,1.439 -1.2,-0.805 Z"
             style="fill:#8c532c;fill-opacity:1;fill-rule:nonzero;stroke:none"
             id="path3576"
             inkscape:connector-curvature="0" />
        </g>
        <g
           id="g3578"
           transform="matrix(0.35277777,0,0,-0.35277777,-180.12894,270.06864)">
          <path
             d="m 0,0 c -3.082,1.523 -5.49,0.303 -5.805,-2.699 l 1.51,-0.746 c 0.345,2.103 2.134,2.922 4.399,1.802 2.262,-1.121 4.268,-3.811 4.907,-6.401 l 1.51,-0.744 C 5.805,-5.28 3.083,-1.524 0,0"
             style="fill:#a5683d;fill-opacity:1;fill-rule:nonzero;stroke:none"
             id="path3580"
             inkscape:connector-curvature="0" />
        </g>
        <g
           id="g3582"
           transform="matrix(0.35277777,0,0,-0.35277777,-181.86666,268.00521)">
          <path
             d="M 0,0 4.718,-0.206 6.485,-0.792 6.147,-6.791 c 0,0 -0.098,-1.088 0.964,-2.007 0.311,-0.268 0.564,-0.874 0.564,-0.874 0,0 0.563,-4.001 -2.198,-3.495 -0.896,0.162 -1.573,0.814 -1.573,0.814 -1.193,0.076 -3.194,0.431 -4.523,0.594 -3.064,0.375 -2.586,4.019 -2.586,4.019 l 0.12,3.569 C -3.038,-2.171 -2.156,0.088 0,0"
             style="fill:#ffe1cc;fill-opacity:1;fill-rule:nonzero;stroke:none"
             id="path3584"
             inkscape:connector-curvature="0" />
        </g>
        <g
           id="g3586"
           transform="matrix(0.35277777,0,0,-0.35277777,-181.41948,269.23527)">
          <path
             d="m 0,0 c -1.837,-0.128 -3.061,0.509 -3.061,0.509 0,0 -1.65,0.721 -1.792,2.232 -0.426,4.522 -0.745,24.347 -0.338,29.975 0.442,6.18 4.06,22.199 4.06,22.199 -0.013,-0.094 1.703,11.684 8.44,11.062 5.647,-0.521 6.134,-5.82 5.678,-10.767 -0.358,-3.894 -5.3,-24.965 -5.3,-24.965 L 6.023,2.647 C 6.023,2.647 4.271,0.297 0,0"
             style="fill:#585e60;fill-opacity:1;fill-rule:nonzero;stroke:none"
             id="path3588"
             inkscape:connector-curvature="0" />
        </g>
      </g>
    </g>
  </g>
</svg>
