<?xml version="1.0" encoding="UTF-8" standalone="no"?>
<svg
   xmlns:dc="http://purl.org/dc/elements/1.1/"
   xmlns:cc="http://creativecommons.org/ns#"
   xmlns:rdf="http://www.w3.org/1999/02/22-rdf-syntax-ns#"
   xmlns:svg="http://www.w3.org/2000/svg"
   xmlns="http://www.w3.org/2000/svg"
   xmlns:sodipodi="http://sodipodi.sourceforge.net/DTD/sodipodi-0.dtd"
   xmlns:inkscape="http://www.inkscape.org/namespaces/inkscape"
   width="1280"
   height="640"
   version="1.1"
   id="svg265"
   sodipodi:docname="red-circle-icons.svg"
   inkscape:version="0.92.2 (5c3e80d, 2017-08-06)">
  <metadata
     id="metadata271">
    <rdf:RDF>
      <cc:Work
         rdf:about="">
        <dc:format>image/svg+xml</dc:format>
        <dc:type
           rdf:resource="http://purl.org/dc/dcmitype/StillImage" />
        <dc:title></dc:title>
      </cc:Work>
    </rdf:RDF>
  </metadata>
  <defs
     id="defs269" />
  <sodipodi:namedview
     pagecolor="#ffffff"
     bordercolor="#666666"
     borderopacity="1"
     objecttolerance="10"
     gridtolerance="10"
     guidetolerance="10"
     inkscape:pageopacity="0"
     inkscape:pageshadow="2"
     inkscape:window-width="1360"
     inkscape:window-height="706"
     id="namedview267"
     showgrid="false"
     inkscape:pagecheckerboard="true"
     inkscape:zoom="1.2551145"
     inkscape:cx="299.94793"
     inkscape:cy="440.31104"
     inkscape:window-x="-8"
     inkscape:window-y="-8"
     inkscape:window-maximized="1"
     inkscape:current-layer="svg265" />
  <g
     id="g170">
    <g
       id="i7"
       class="top-level-node"
       transform="translate(184,72)">
      <g
         id="g8">
        <g
           id="g6">
          <circle
             cx="24"
             cy="24"
             r="24"
             id="circle4"
             style="fill:#cc291f" />
        </g>
      </g>
    </g>
    <g
       id="i8"
       class="top-level-node"
       transform="translate(192,80)">
      <g
         id="g19">
        <g
           id="g17">
          <g
             id="g15">
            <path
               d="m 24.9,23.1 c 0.6,0.4 1.3,0.6 2.1,0.6 2.3,0 4.2,-1.9 4.2,-4.2 0,-2.3 -1.9,-4.2 -4.2,-4.2 -0.1,0 -0.3,0 -0.4,0 v -1 H 3.8 v 2.3 c 0,4.7 2.9,10 6.9,11.9 H 2.6 C 3.1,29.9 5.3,31 7.9,31 h 14.5 c 2.6,0 4.8,-1.1 5.4,-2.5 h -8.2 c 2.2,-1.1 4,-3.1 5.3,-5.4 z m 1.6,-6.2 c 0.1,0 0.3,0 0.4,0 1.4,0 2.6,1.2 2.6,2.6 0,1.4 -1.2,2.6 -2.6,2.6 -0.5,0 -1,-0.2 -1.4,-0.4 0.6,-1.6 1,-3.3 1,-4.8 z"
               id="path11"
               inkscape:connector-curvature="0"
               style="clip-rule:evenodd;fill:#ffffff;fill-rule:evenodd" />
            <path
               d="m 14.6,13 c 0,0 4.1,-1.6 3.7,-4.3 C 17.9,5.9 15.8,6 15.4,4 14.8,1.5 16.6,0.3 16.6,0.3 c 0,0 -3,0.9 -3.5,3.6 -0.4,2.3 1.3,3 1.8,4.7 0.6,1.7 -0.3,4.4 -0.3,4.4 z"
               id="path13"
               inkscape:connector-curvature="0"
               style="clip-rule:evenodd;fill:#ffffff;fill-rule:evenodd" />
          </g>
        </g>
      </g>
    </g>
  </g>
  <g
     id="g181">
    <g
       id="i9"
       class="top-level-node"
       transform="translate(256,72)">
      <g
         id="g26">
        <g
           id="g24">
          <circle
             cx="24"
             cy="24"
             r="24"
             id="circle22"
             style="fill:#cc291f" />
        </g>
      </g>
    </g>
    <g
       id="i26"
       class="top-level-node"
       transform="translate(264,80)">
      <g
         id="g117">
        <g
           id="g115">
          <polygon
             points="8,19.4 0,11.6 11.1,10 16,0 20.9,10 32,11.6 24,19.4 25.9,30.4 16,25.2 6.1,30.4 "
             id="polygon113"
             style="fill:#ffffff" />
        </g>
      </g>
    </g>
  </g>
  <g
     id="g191">
    <g
       id="i10"
       class="top-level-node"
       transform="translate(328,72)">
      <g
         id="g33">
        <g
           id="g31">
          <circle
             cx="24"
             cy="24"
             r="24"
             id="circle29"
             style="fill:#cc291f" />
        </g>
      </g>
    </g>
    <g
       id="i27"
       class="top-level-node"
       transform="translate(336,80)">
      <g
         id="g124">
        <g
           id="g122">
          <path
             d="M 2,12.3 V 18 H 15 V 11.1 H 3.2 C 2.6,11.1 2,11.6 2,12.3 Z M 2,30.8 C 2,31.4 2.6,32 3.2,32 H 15 V 20.1 H 2 Z M 17,32 h 11.7 c 0.7,0 1.2,-0.6 1.2,-1.2 V 20.1 H 17 Z M 28.7,11.1 H 17 V 18 h 13 v -5.7 c 0,-0.7 -0.6,-1.2 -1.3,-1.2 z M 18.6,8.7 c 1.7,0.8 5,0.5 7,0.5 1.5,0 2,-2.2 1.4,-3.6 L 25.4,1.9 C 24.8,0.5 22.9,-0.6 21.8,0.5 20.7,1.6 18.3,3.9 17.5,5.9 17.3,5.8 17.2,5.8 17,5.8 h -2.4 c -0.2,0 -0.3,0 -0.5,0.1 -0.7,-2 -3.2,-4.3 -4.2,-5.4 -1.4,-1.2 -3,0 -3.6,1.4 L 4.7,5.6 C 4.1,7 4.6,9.2 6.2,9.2 c 1.6,0 5.2,0.4 7,-0.5 0.2,0.6 0.8,1.1 1.5,1.1 h 2.4 c 0.7,0 1.3,-0.5 1.5,-1.1 z"
             id="path120"
             inkscape:connector-curvature="0"
             style="clip-rule:evenodd;fill:#ffffff;fill-rule:evenodd" />
        </g>
      </g>
    </g>
  </g>
  <g
     id="g201">
    <g
       id="i11"
       class="top-level-node"
       transform="translate(400,72)">
      <g
         id="g40">
        <g
           id="g38">
          <circle
             cx="24"
             cy="24"
             r="24"
             id="circle36"
             style="fill:#cc291f" />
        </g>
      </g>
    </g>
    <g
       id="i28"
       class="top-level-node"
       transform="translate(408,80)">
      <g
         id="g131">
        <g
           id="g129">
          <path
             d="M 24.4,2.1 C 20.1,1.4 16,4.3 16,6.3 16,4.3 11.9,1.4 7.6,2.1 2.7,3 0.1,8 3.7,15.7 7.2,23.3 16,30 16,30 16,30 24.8,23.3 28.3,15.7 31.9,8 29.3,3 24.4,2.1 Z M 9,7 C 7.9,7 7,7.9 7,9 7,9.6 6.6,10 6,10 5.4,10 5,9.6 5,9 5,6.8 6.8,5 9,5 9.6,5 10,5.4 10,6 10,6.6 9.6,7 9,7 Z"
             id="path127"
             inkscape:connector-curvature="0"
             style="fill:#ffffff" />
        </g>
      </g>
    </g>
  </g>
  <g
     id="g211">
    <g
       id="i12"
       class="top-level-node"
       transform="translate(472,72)">
      <g
         id="g47">
        <g
           id="g45">
          <circle
             cx="24"
             cy="24"
             r="24"
             id="circle43"
             style="fill:#cc291f" />
        </g>
      </g>
    </g>
    <g
       id="i29"
       class="top-level-node"
       transform="translate(480,80)">
      <g
         id="g138">
        <g
           id="g136">
          <path
             d="M 31,0 9.9,3.7 V 24.1 C 9.2,23.5 8.5,23.2 7.5,23.2 c -1,0 -1.9,0.3 -3,0.8 -1.1,0.5 -1.9,1.2 -2.6,2.1 -0.7,0.9 -1,1.9 -1,2.9 0.1,0.9 0.4,1.7 1.1,2.2 0.6,0.5 1.4,0.8 2.4,0.8 1,0 2.2,-0.2 3.3,-0.7 1.1,-0.5 2.2,-1.2 2.9,-2 0.7,-0.9 1.4,-1.9 1.4,-2.9 V 13.2 l 16.9,-2.8 v 10.4 c -0.7,-0.6 -1.4,-0.9 -2.4,-0.9 -1,0 -1.9,0.3 -3,0.8 -1.1,0.5 -1.9,1.2 -2.6,2.1 -0.7,0.9 -1,1.9 -1,2.9 0.1,0.9 0.4,1.7 1.1,2.2 0.7,0.5 1.5,0.8 2.5,0.8 1,0 2.2,-0.2 3.3,-0.7 1.1,-0.5 2.2,-1.2 2.9,-2 0.7,-0.9 1.4,-1.9 1.4,-2.9 V 0 Z M 28.9,8.3 12,11.1 V 8.9 L 28.9,6.1 Z"
             id="path134"
             inkscape:connector-curvature="0"
             style="clip-rule:evenodd;fill:#ffffff;fill-rule:evenodd" />
        </g>
      </g>
    </g>
  </g>
  <g
     id="g221">
    <g
       id="i13"
       class="top-level-node"
       transform="translate(536,72)">
      <g
         id="g54">
        <g
           id="g52">
          <circle
             cx="24"
             cy="24"
             r="24"
             id="circle50"
             style="fill:#cc291f" />
        </g>
      </g>
    </g>
    <g
       id="i30"
       class="top-level-node"
       transform="translate(544,80)">
      <g
         id="g145">
        <g
           id="g143">
          <path
             d="m 32,18.8 c 0,-0.2 0,-0.4 0,-0.7 0,0 0,-0.1 0,-0.1 H 31.7 L 26.9,5.6 c 0,0 0,-0.1 -0.1,-0.1 C 26.9,5.3 27,5.2 27,5 27,4.4 26.6,4 26,4 H 17.7 C 17.5,3.7 17.3,3.5 17,3.3 V 1 C 17,0.4 16.6,0 16,0 15.4,0 15,0.4 15,1 V 3.3 C 14.7,3.5 14.5,3.7 14.3,4 H 6 C 5.4,4 5,4.4 5,5 5,5.2 5.1,5.3 5.1,5.5 5.1,5.5 5,5.6 5,5.6 L 0.3,18 H 0 c 0,0 0,0.1 0,0.1 0,0.2 0,0.5 0,0.7 0,0.2 0,0.5 0.2,0.7 0.6,2.6 3,4.5 5.8,4.5 2.8,0 5.2,-1.9 5.8,-4.5 C 12,19.3 12,19 12,18.8 c 0,-0.2 0,-0.4 0,-0.7 0,0 0,-0.1 0,-0.1 H 11.7 L 7.1,6 h 7.2 c 0.2,0.3 0.4,0.5 0.7,0.7 v 20 c 0,1.8 -1.4,3.2 -3.2,3.2 H 11 c -0.6,0 -1,0.4 -1,1 0,0.6 0.4,1 1,1 h 10 c 0.6,0 1,-0.4 1,-1 0,-0.6 -0.4,-1 -1,-1 H 20.2 C 18.4,29.9 17,28.5 17,26.7 V 6.7 C 17.3,6.5 17.5,6.3 17.7,6 h 7.2 L 20.3,18 H 20 c 0,0 0,0.1 0,0.1 0,0.2 0,0.5 0,0.7 -0.1,0.3 0,0.5 0.1,0.8 0.7,2.6 3,4.5 5.8,4.5 2.8,0 5.2,-1.9 5.8,-4.5 C 32,19.3 32,19 32,18.8 Z M 2.4,18 6,8.8 9.6,18 Z m 20,0 3.6,-9.2 3.6,9.2 z"
             id="path141"
             inkscape:connector-curvature="0"
             style="fill:#ffffff" />
        </g>
      </g>
    </g>
  </g>
  <g
     id="g297">
    <g
       id="i14"
       class="top-level-node"
       transform="translate(184,144)">
      <g
         id="g61">
        <g
           id="g59">
          <circle
             cx="24"
             cy="24"
             r="24"
             id="circle57"
             style="fill:#cc291f" />
        </g>
      </g>
    </g>
    <g
       id="i31"
       class="top-level-node"
       transform="translate(192,152)">
      <g
         id="g152">
        <g
           id="g150">
          <path
             d="m 21.4,6.3 c 0,0 7.7,-8.2 10,-6 2.2,2.2 -6,10.2 -6,10.2 L 26.9,28.9 24.6,32 20.3,15.2 10.5,23.4 10.1,29.7 9.2,30.8 6.1,25.7 0.9,22.4 2,21.5 8.5,21.4 16.4,11.3 0.3,6.4 2.8,4.9 Z"
             id="path148"
             inkscape:connector-curvature="0"
             style="clip-rule:evenodd;fill:#ffffff;fill-rule:evenodd" />
        </g>
      </g>
    </g>
  </g>
  <g
     id="g287">
    <g
       id="i15"
       class="top-level-node"
       transform="translate(256,144)">
      <g
         id="g68">
        <g
           id="g66">
          <circle
             cx="24"
             cy="24"
             r="24"
             id="circle64"
             style="fill:#cc291f" />
        </g>
      </g>
    </g>
    <g
       id="i32"
       class="top-level-node"
       transform="translate(264,152)">
      <g
         id="g159">
        <g
           id="g157">
          <path
             d="m 25.4,2.5 v 0 C 23.8,0.9 21.6,0 19.4,0 H 12.5 C 10.2,0 8.1,0.9 6.5,2.5 4.9,4.1 4,6.3 4,8.5 V 27 c 0,0.5 0.4,1 1,1 h 1 v 2.7 C 6,31.4 6.6,32 7.3,32 H 9.7 C 10.4,32 11,31.4 11,30.7 V 28 h 10 v 2.7 c 0,0.7 0.6,1.3 1.3,1.3 h 2.4 C 25.4,32 26,31.4 26,30.7 V 28 h 1 c 0.5,0 1,-0.4 1,-1 V 8.6 C 28,6.3 27.1,4.1 25.4,2.5 Z M 11,2 H 21 V 4 H 11 Z M 7.5,25 C 6.7,25 6,24.3 6,23.5 6,22.7 6.7,22 7.5,22 8.3,22 9,22.7 9,23.5 9,24.3 8.3,25 7.5,25 Z M 20,25 h -8 v -1 h 8 z m 0,-2 h -8 v -1 h 8 z M 7,15 V 7 h 18 v 8 z M 24.5,25 C 23.7,25 23,24.3 23,23.5 23,22.7 23.7,22 24.5,22 c 0.8,0 1.5,0.7 1.5,1.5 0,0.8 -0.7,1.5 -1.5,1.5 z"
             id="path155"
             inkscape:connector-curvature="0"
             style="clip-rule:evenodd;fill:#ffffff;fill-rule:evenodd" />
        </g>
      </g>
    </g>
  </g>
  <g
     id="g277">
    <g
       id="i16"
       class="top-level-node"
       transform="translate(328,144)">
      <g
         id="g75">
        <g
           id="g73">
          <circle
             cx="24"
             cy="24"
             r="24"
             id="circle71"
             style="fill:#cc291f" />
        </g>
      </g>
    </g>
    <g
       id="i33"
       class="top-level-node"
       transform="translate(336,152)">
      <g
         id="g184">
        <g
           id="g182">
          <g
             id="g180">
            <path
               d="M 30.5,9.3 28.8,7.6 C 28.1,6.9 27,6.9 26.3,7.6 l -1.8,1.8 4.2,4.2 1.8,-1.8 c 0.7,-0.7 0.7,-1.8 0,-2.5 z"
               id="path162"
               inkscape:connector-curvature="0"
               style="fill:#ffffff" />
            <rect
               x="5"
               y="5"
               width="8"
               height="2"
               id="rect164"
               style="fill:#ffffff" />
            <polygon
               points="5,15 16.8,15 18.8,13 5,13 "
               id="polygon166"
               style="fill:#ffffff" />
            <polygon
               points="5,9 5,11 20.8,11 21,10.8 21,9 "
               id="polygon168"
               style="fill:#ffffff" />
            <polygon
               points="5,23 10.8,23 11.5,21 5,21 "
               id="polygon170"
               style="fill:#ffffff" />
            <polygon
               points="3,2 23,2 23,8.8 25,6.8 25,0 1,0 1,32 25,32 25,19.2 23,21.2 23,30 3,30 "
               id="polygon172"
               style="fill:#ffffff" />
            <polygon
               points="10,25.5 10,25 5,25 5,27 9.5,27 "
               id="polygon174"
               style="fill:#ffffff" />
            <polygon
               points="5,19 12.8,19 14.8,17 5,17 "
               id="polygon176"
               style="fill:#ffffff" />
            <polygon
               points="17.3,25 28,14.3 23.7,10 13,20.7 11,27 "
               id="polygon178"
               style="fill:#ffffff" />
          </g>
        </g>
      </g>
    </g>
  </g>
  <g
     id="g258">
    <g
       id="i17"
       class="top-level-node"
       transform="translate(400,144)">
      <g
         id="g82">
        <g
           id="g80">
          <circle
             cx="24"
             cy="24"
             r="24"
             id="circle78"
             style="fill:#cc291f" />
        </g>
      </g>
    </g>
    <g
       id="i34"
       class="top-level-node"
       transform="translate(408,152)">
      <g
         id="g199">
        <g
           id="g197">
          <g
             id="g195">
            <path
               d="M 4,0 V 32 H 28 V 0 Z M 26,30 H 6 V 2 h 20 z"
               id="path187"
               inkscape:connector-curvature="0"
               style="fill:#ffffff" />
            <polygon
               points="19,23 10,23 10,14 17,14 19,12 8,12 8,25 21,25 21,18 19,20 "
               id="polygon189"
               style="fill:#ffffff" />
            <path
               d="m 20.4,12.4 -4.9,4.9 -1.9,-1.9 c -0.6,-0.6 -1.5,-0.6 -2.1,0 -0.6,0.6 -0.6,1.5 0,2.1 l 4.1,4.1 7.1,-7.1 c 0.6,-0.6 0.6,-1.5 0,-2.1 -0.6,-0.6 -1.7,-0.5 -2.3,0 z"
               id="path191"
               inkscape:connector-curvature="0"
               style="fill:#ffffff" />
            <rect
               x="8"
               y="4"
               width="16"
               height="4"
               id="rect193"
               style="fill:#ffffff" />
          </g>
        </g>
      </g>
    </g>
  </g>
  <g
     id="g244">
    <g
       id="i18"
       class="top-level-node"
       transform="translate(472,144)">
      <g
         id="g89">
        <g
           id="g87">
          <circle
             cx="24"
             cy="24"
             r="24"
             id="circle85"
             style="fill:#cc291f" />
        </g>
      </g>
    </g>
    <g
       id="i35"
       class="top-level-node"
       transform="translate(480,152)">
      <g
         id="g206">
        <g
           id="g204">
          <path
             d="M 31.5,17 H 30.7 L 28.4,14.7 C 28.8,14.4 29,14 29,13.5 29,13.2 28.8,13 28.5,13 28.2,13 28,13.2 28,13.5 28,13.8 27.8,14 27.5,14 27.2,14 27,13.8 27,13.5 27,13.2 27.2,13 27.5,13 27.8,13 28,12.8 28,12.5 v -8 c 0,-0.1 0,-0.1 0,-0.2 0,0 0,0 0,0 0,0 0,0 0,0 0,-0.1 -0.1,-0.1 -0.1,-0.2 0,0 -0.1,0 -0.1,-0.1 0,0 -0.1,0 -0.2,0 0,0 0,0 -0.1,0 H 19.9 19.2 11.6 10.9 L 8.4,0.2 C 8.2,0 7.8,-0.1 7.6,0.2 L 5.2,4 H 4.5 0.5 C 0.2,4 0,4.2 0,4.5 v 1 c 0,0.1 0.1,0.3 0.1,0.4 l 3,3 C 3.2,8.9 3.4,9 3.5,9 H 4 v 2.5 C 4,11.8 4.2,12 4.5,12 H 5 V 31 H 4.5 C 4.2,31 4,31.2 4,31.5 4,31.8 4.2,32 4.5,32 h 7 C 11.8,32 12,31.8 12,31.5 12,31.2 11.8,31 11.5,31 H 11 V 12 h 0.5 C 11.8,12 12,11.8 12,11.5 V 9 h 3.1 v 0 h 0.7 v 0 h 7.6 c 0.1,0 0.3,-0.1 0.4,-0.1 L 27,5.7 v 6.4 c -0.6,0.2 -1,0.8 -1,1.4 0,0.5 0.2,0.9 0.6,1.2 L 24.3,17 H 23.5 C 23.2,17 23,17.2 23,17.5 v 2 c 0,0.3 0.2,0.5 0.5,0.5 h 8 c 0.3,0 0.5,-0.2 0.5,-0.5 v -2 C 32,17.2 31.8,17 31.5,17 Z M 4,8 H 3.7 L 1,5.3 V 5 H 4 Z M 8,1.4 9.6,4 H 6.4 Z M 6,12.7 9.8,16.5 6,20.3 Z M 6.7,12 H 10 v 3.3 z m 3.3,5.7 v 7.6 L 6.2,21.5 Z m -4,5 3.8,3.8 L 6,30.3 Z M 6.7,31 10,27.7 V 31 Z M 11,8.5 C 11,8.8 10.8,9 10.5,9 h -3 C 7.2,9 7,8.8 7,8.5 v -2 C 7,6.2 7.2,6 7.5,6 h 3 C 10.8,6 11,6.2 11,6.5 Z M 12,8 V 5.8 L 14.1,8 Z M 15.5,7.7 12.7,5 h 5.5 z M 16.9,8 19.5,5.3 22.2,8 Z M 23.5,7.7 20.8,5 h 5.5 z m 2.2,9.3 1.8,-1.8 1.8,1.8 z"
             id="path202"
             inkscape:connector-curvature="0"
             style="fill:#ffffff" />
        </g>
      </g>
    </g>
  </g>
  <g
     id="g234">
    <g
       id="i19"
       class="top-level-node"
       transform="translate(536,144)">
      <g
         id="g96">
        <g
           id="g94">
          <circle
             cx="24"
             cy="24"
             r="24"
             id="circle92"
             style="fill:#cc291f" />
        </g>
      </g>
    </g>
    <g
       id="i36"
       class="top-level-node"
       transform="translate(544,152)">
      <g
         id="g219">
        <g
           id="g217">
          <g
             id="g215">
            <path
               d="M 6.9,7 H 8 C 8.6,7 9,6.6 9,6.1 V 1.9 C 9,1.4 8.6,1 8.1,1 H 6.9 C 6.4,1 6,1.4 6,1.9 V 6 c 0,0.6 0.4,1 0.9,1 z"
               id="path209"
               inkscape:connector-curvature="0"
               style="clip-rule:evenodd;fill:#ffffff;fill-rule:evenodd" />
            <path
               d="M 31,6.9 C 30.9,5.3 29.6,4 27.9,4 H 27 V 6.1 C 27,7.1 26.2,8 25.1,8 H 23.9 C 22.9,8 22,7.2 22,6.1 V 4 H 10 V 6.1 C 10,7.2 9.2,8 8.1,8 H 6.9 C 5.8,8 5,7.2 5,6.1 V 4 H 4.1 C 2.4,4 1.1,5.3 1,6.9 1,6.9 1,7 1,7 V 7.1 10 30 c 0,0.6 0.4,1 1,1 h 28 c 0.6,0 1,-0.4 1,-1 V 10 7.1 6.9 c 0,0.1 0,0 0,0 z M 8,29 H 3 V 27 H 6 V 24 H 8 Z M 8,22 H 3 V 20 H 6 V 17 H 8 Z M 8,15 H 3 v -5 h 5 z m 7,14 h -5 v -2 h 3 v -3 h 2 z m 0,-7 h -5 v -2 h 3 v -3 h 2 z m 0,-7 h -5 v -5 h 5 z m 7,14 h -5 v -5 h 5 z m 0,-7 h -5 v -2 h 3 v -3 h 2 z m 0,-7 h -5 v -2 h 3 v -3 h 2 z m 7,14 h -5 v -5 h 5 z m 0,-7 h -5 v -2 h 3 v -3 h 2 z m 0,-7 h -5 v -2 h 3 v -3 h 2 z"
               id="path211"
               inkscape:connector-curvature="0"
               style="clip-rule:evenodd;fill:#ffffff;fill-rule:evenodd" />
            <path
               d="M 23.9,7 H 25 c 0.6,0 1,-0.4 1,-0.9 V 1.9 C 26,1.4 25.6,1 25.1,1 H 24 C 23.4,1 23,1.4 23,1.9 V 6 c 0,0.6 0.4,1 0.9,1 z"
               id="path213"
               inkscape:connector-curvature="0"
               style="clip-rule:evenodd;fill:#ffffff;fill-rule:evenodd" />
          </g>
        </g>
      </g>
    </g>
  </g>
  <g
     id="g307">
    <g
       id="i20"
       class="top-level-node"
       transform="translate(184,216)">
      <g
         id="g103">
        <g
           id="g101">
          <circle
             cx="24"
             cy="24"
             r="24"
             id="circle99"
             style="fill:#cc291f" />
        </g>
      </g>
    </g>
    <g
       id="i37"
       class="top-level-node"
       transform="translate(192,224)">
      <g
         id="g226">
        <g
           id="g224">
          <path
             d="M 30.5,11 C 30.8,11 31,10.8 31,10.5 V 10 h 1 V 9 L 16.7,1.1 c -0.5,-0.2 -1,-0.2 -1.5,0 L 0,9 v 1 h 1 v 0.5 C 1,10.8 1.2,11 1.5,11 H 2 V 27 H 1.5 C 1.2,27 1,27.2 1,27.5 V 29 H 0.5 C 0.2,29 0,29.2 0,29.5 v 1 C 0,30.8 0.2,31 0.5,31 h 31 c 0.3,0 0.5,-0.2 0.5,-0.5 v -1 C 32,29.2 31.8,29 31.5,29 H 31 V 27.5 C 31,27.2 30.8,27 30.5,27 H 30 V 11 Z M 17,10 v 0.5 c 0,0.3 0.2,0.5 0.5,0.5 H 18 V 27 H 14 V 11 h 0.5 C 14.8,11 15,10.8 15,10.5 V 10 Z M 6,11 H 6.5 C 6.8,11 7,10.8 7,10.5 V 10 h 2 v 0.5 C 9,10.8 9.2,11 9.5,11 H 10 V 27 H 6 Z M 22,27 V 11 h 0.5 C 22.8,11 23,10.8 23,10.5 V 10 h 2 v 0.5 c 0,0.3 0.2,0.5 0.5,0.5 H 26 v 16 z"
             id="path222"
             inkscape:connector-curvature="0"
             style="fill:#ffffff" />
        </g>
      </g>
    </g>
  </g>
  <g
     id="g321">
    <g
       id="i21"
       class="top-level-node"
       transform="translate(256,216)">
      <g
         id="g110">
        <g
           id="g108">
          <circle
             cx="24"
             cy="24"
             r="24"
             id="circle106"
             style="fill:#cc291f" />
        </g>
      </g>
    </g>
    <g
       id="i38"
       class="top-level-node"
       transform="translate(264,224)">
      <g
         id="g241">
        <g
           id="g239">
          <g
             id="g237">
            <path
               d="m 30.5,25.4 c 0.3,-0.5 0.5,-1 0.5,-1.6 V 8.2 C 31,7.6 30.8,7.1 30.5,6.6 L 21.1,16 Z"
               id="path229"
               inkscape:connector-curvature="0"
               style="fill:#ffffff" />
            <path
               d="M 16,18.9 29.4,5.5 C 28.9,5.2 28.4,5 27.8,5 H 4.2 C 3.6,5 3.1,5.2 2.6,5.5 Z"
               id="path231"
               inkscape:connector-curvature="0"
               style="fill:#ffffff" />
            <path
               d="M 1.5,6.6 C 1.2,7.1 1,7.6 1,8.2 v 15.6 c 0,0.6 0.2,1.1 0.5,1.6 L 10.9,16 Z"
               id="path233"
               inkscape:connector-curvature="0"
               style="fill:#ffffff" />
            <path
               d="m 20,17.1 -4,4 -4,-4 -9.4,9.4 c 0.5,0.3 1,0.5 1.6,0.5 h 23.6 c 0.6,0 1.1,-0.2 1.6,-0.5 z"
               id="path235"
               inkscape:connector-curvature="0"
               style="fill:#ffffff" />
          </g>
        </g>
      </g>
    </g>
  </g>
  <g
     id="g335">
    <g
       inkscape:export-ydpi="158.89999"
       inkscape:export-xdpi="158.89999"
       inkscape:export-filename="D:\7++\tilv1\graphics\parts\g548.png"
       id="g429">
      <g
         transform="translate(328,216)"
         class="top-level-node"
         id="i39">
        <g
           id="g248">
          <g
             id="g246">
            <circle
               style="fill:#cc291f"
               id="circle244"
               r="24"
               cy="24"
               cx="24" />
          </g>
        </g>
      </g>
      <g
         transform="translate(336,224)"
         class="top-level-node"
         id="i40">
        <g
           id="g261">
          <g
             id="g259">
            <g
               id="g257">
              <path
                 style="clip-rule:evenodd;fill:#ffffff;fill-rule:evenodd"
                 inkscape:connector-curvature="0"
                 id="path251"
                 d="M 30.8,13.2 26,18 V 14.6 C 26,13.7 25.3,13 24.4,13 H 20 6 1.6 C 0.7,13 0,13.7 0,14.6 V 27.4 C 0,28.3 0.7,29 1.6,29 H 24.4 C 25.3,29 26,28.3 26,27.4 V 24 c 1.6,1.6 3.5,3.5 4.8,4.8 0.5,0.5 1.2,0.1 1.2,-0.5 V 13.8 c 0,-0.7 -0.8,-1 -1.2,-0.6 z M 17,24 H 3 v -8 h 14 z m 4.5,-5 C 20.7,19 20,18.3 20,17.5 20,16.7 20.7,16 21.5,16 c 0.8,0 1.5,0.7 1.5,1.5 0,0.8 -0.7,1.5 -1.5,1.5 z" />
              <circle
                 style="clip-rule:evenodd;fill:#ffffff;fill-rule:evenodd"
                 id="circle253"
                 r="6"
                 cy="7"
                 cx="6" />
              <circle
                 style="clip-rule:evenodd;fill:#ffffff;fill-rule:evenodd"
                 id="circle255"
                 r="6"
                 cy="7"
                 cx="20" />
            </g>
          </g>
        </g>
      </g>
    </g>
  </g>
</svg>
