<svg enable-background="new 0 0 48 40" viewBox="0 0 48 40" xmlns="http://www.w3.org/2000/svg"><path d="m0 28 8 8 17 3 20-10 2-10-2-10-11-8-23 2-6.8 11.8z" fill="#999"/><path d="m11 3 13 5.2 21 .8-11-8z" fill="#fff" opacity=".15"/><path d="m25 39-2.3-17.2 13 2.5 11.3-5.3-2 10z" opacity=".25"/><path d="m8 36 17 3-2.3-17.2 1.3-13.6-14.2 14.1z" opacity=".15"/><path d="m22.7 21.8 13 2.5 11.3-5.3-2-10-21-.8z" opacity=".1"/><path d="m4.2 14.8 5.6 7.5 12.9-.5 13 2.5 11.3-5.3-2 10-20 10-17-3-8-8z" opacity=".1"/><path d="m45 9-9.3 15.3 1 8.7 8.3-4 2-10z" opacity=".15"/><path d="m8.4 33.5 14.8-7 13.5 6.5 10.3-14-2 10-20 10-17-3-8-8 2-6.3z" opacity=".15"/></svg>