<svg enable-background="new 0 0 64 64" viewBox="0 0 64 64" xmlns="http://www.w3.org/2000/svg"><path d="m0 16v32l32 16 32-16v-32z" fill="#825012"/><path d="m0 16v5l32 16 32-16v-5z" opacity=".2"/><path d="m0 16v2l32 16 32-16v-2z" opacity=".3"/><g opacity=".3"><path d="m46.4 51.6c-.3.2-.6.6-.6.9s.3.5.6.3.6-.6.6-.9-.3-.5-.6-.3z"/><path d="m41.2 53.4c.4-.2.7-.7.7-1.1s-.3-.6-.7-.4-.7.7-.7 1.1.3.6.7.4z"/><path d="m44.7 48.1c.3-.1.5-.5.5-.7 0-.3-.2-.4-.5-.2-.3.1-.5.5-.5.7s.2.3.5.2z"/><path d="m58 30.5c0-.4-.3-.6-.7-.4s-.7.7-.7 1.1.3.6.7.4c.4-.3.7-.7.7-1.1z"/><path d="m35.8 43.2c0-.7-.6-1-1.3-.7s-1.3 1.2-1.3 2c0 .7.6 1 1.3.7.7-.4 1.3-1.3 1.3-2z"/><path d="m40.9 46.9c0-.1-.1-.1-.1-.1-.1 0-.1.1-.1.2s.1.1.1.1.1-.1.1-.2z"/><path d="m34.9 60c0-.1-.1-.1-.1-.1-.1 0-.1.1-.1.2s.1.1.1.1c.1 0 .1-.1.1-.2z"/><path d="m58.9 33.5c-.2.1-.4.3-.4.5s.2.3.4.2.4-.3.4-.5-.2-.3-.4-.2z"/><path d="m57 45.5c-.2.1-.4.3-.4.5s.2.3.4.2.4-.3.4-.5c-.1-.2-.2-.3-.4-.2z"/><path d="m61.8 27.1c-.3.2-.6.6-.6.9s.3.5.6.3.6-.6.6-.9-.2-.4-.6-.3z"/><path d="m63 39.4c0 .1.1.1.1.1.1 0 .1-.1.1-.2s-.1-.1-.1-.1c0 .1-.1.2-.1.2z"/><path d="m58.6 40.3c.4-.2.7-.7.7-1.1s-.3-.6-.7-.4-.7.7-.7 1.1.3.6.7.4z"/><path d="m58.8 47.5c.4-.2.7-.7.7-1.1s-.3-.6-.7-.4-.7.7-.7 1.1c0 .5.3.6.7.4z"/><path d="m41.1 43.7c-.4.2-.7.7-.7 1.1s.3.6.7.4.7-.7.7-1.1-.3-.6-.7-.4z"/><path d="m37.8 37.8c-.4.2-.7.7-.7 1.1s.3.6.7.4.7-.7.7-1.1c0-.5-.3-.6-.7-.4z"/><path d="m48.1 47c0-.3-.3-.5-.6-.3s-.6.6-.6.9.3.5.6.3.6-.6.6-.9z"/><path d="m53.4 43.6c0-.3-.3-.5-.6-.3s-.6.6-.6.9.3.5.6.3.6-.6.6-.9z"/><path d="m36.6 48.7c0-.3-.3-.5-.6-.3s-.6.6-.6.9.3.5.6.3.6-.6.6-.9z"/><path d="m56.7 38c.4-.2.7-.7.7-1.1s-.3-.6-.7-.4-.7.7-.7 1.1.3.6.7.4z"/><path d="m43.6 57.2c.4-.2.7-.7.7-1.1s-.3-.6-.7-.4-.7.7-.7 1.1.3.6.7.4z"/><path d="m44.7 49.7c-.2.1-.4.3-.4.5s.2.3.4.2.4-.3.4-.5-.2-.3-.4-.2z"/><path d="m51.5 47.1c-.2.1-.4.3-.4.5s.2.3.4.2.4-.3.4-.5-.2-.3-.4-.2z"/><path d="m62.7 45.3c-.3.2-.6.6-.6.9s.3.5.6.3.6-.6.6-.9-.2-.4-.6-.3z"/><path d="m52.4 39.1c0 .3.3.5.6.3s.6-.6.6-.9-.3-.5-.6-.3-.6.6-.6.9z"/><path d="m48.6 42.1c0 .3.3.5.6.3s.6-.6.6-.9-.3-.5-.6-.3c-.3.1-.6.5-.6.9z"/><path d="m35.6 57.3c.3-.1.5-.5.5-.7 0-.3-.2-.4-.5-.2-.3.1-.5.5-.5.7.1.2.3.3.5.2z"/><path d="m62.9 41.2c0-.4-.3-.6-.7-.4s-.7.7-.7 1.1.3.6.7.4c.3-.2.7-.7.7-1.1z"/><path d="m58.2 25.8c-.1 0-.2.2-.2.2s.1.1.2.1.2-.2.2-.2c0-.1-.1-.2-.2-.1z"/><path d="m41.5 50.9c-.1 0-.2.2-.2.2 0 .1.1.1.2.1s.2-.2.2-.2c-.1-.1-.1-.2-.2-.1z"/><path d="m58.2 27.4c0-.1-.1-.2-.2-.1s-.2.2-.2.3.1.2.2.1c.1 0 .2-.2.2-.3z"/><path d="m40.1 41c0-.1-.1-.2-.2-.1s-.2.2-.2.3.1.2.2.1c.2-.1.2-.2.2-.3z"/><path d="m56.5 42.5c0-.1-.1-.2-.2-.1s-.2.2-.2.3.1.2.2.1.2-.2.2-.3z"/><path d="m62.7 34.5c0-.1-.1-.2-.2-.1s-.2.2-.2.3.1.2.2.1.2-.2.2-.3z"/><path d="m45.5 41.9c0-.1-.1-.2-.2-.1s-.2.2-.2.3.1.2.2.1c.1 0 .2-.2.2-.3z"/><path d="m52.4 50.4c-.3.1-.5.5-.5.7 0 .3.2.4.5.2.3-.1.5-.5.5-.7 0-.3-.2-.4-.5-.2z"/></g><path d="m26.2 37.8c.4.2.7 0 .7-.4s-.3-.9-.7-1.1-.7 0-.7.4.3.9.7 1.1zm-19.1-7.6c.4.2.7 0 .7-.4s-.3-.9-.7-1.1-.7 0-.7.4.3.9.7 1.1zm15.2 14.2c-.4-.2-.7 0-.7.4s.3.9.7 1.1.7 0 .7-.4-.3-.9-.7-1.1zm-.3-7.6c.4.2.7 0 .7-.4s-.3-.9-.7-1.1-.7 0-.7.4.3.9.7 1.1zm-3.9 17.4c-.4-.2-.7 0-.7.4s.3.9.7 1.1.7 0 .7-.4-.3-.8-.7-1.1zm3 2.2c-.1 0-.2 0-.2.1s.1.2.2.3c.1 0 .2 0 .2-.1s-.1-.3-.2-.3zm-6-8.2c-.1 0-.2 0-.2.1s.1.2.2.3c.1 0 .2 0 .2-.1-.1-.2-.1-.3-.2-.3zm1.1 1c-.3-.2-.6 0-.6.3s.3.8.6.9c.3.2.6 0 .6-.3s-.3-.7-.6-.9zm10.1-5.4c-.3-.2-.6 0-.6.3s.3.8.6.9c.3.2.6 0 .6-.3.1-.3-.2-.7-.6-.9zm-20.4-8.8c-.3-.2-.6 0-.6.3s.3.8.6.9c.3.2.6 0 .6-.3s-.3-.7-.6-.9zm13.1 5.5c-.3-.2-.6 0-.6.3s.3.8.6.9c.3.2.6 0 .6-.3s-.3-.7-.6-.9zm-10.7-.8c-.1 0-.1 0-.1.1s.1.2.1.2c.1 0 .1 0 .1-.1.1-.1 0-.2-.1-.2zm9.2 4.2c-.1 0-.1 0-.1.1s.1.2.1.2c.1 0 .1 0 .1-.1 0 0-.1-.1-.1-.2zm-5.3-4.5c-.4-.2-.7 0-.7.4s.3.9.7 1.1.7 0 .7-.4-.3-.9-.7-1.1zm-4.1-6.8c-.7-.4-1.4-.1-1.4.7 0 .7.6 1.7 1.4 2 .7.4 1.4.1 1.4-.7 0-.7-.6-1.6-1.4-2zm9.4-1.1c-.3-.2-.6 0-.6.3s.3.8.6.9c.3.2.6 0 .6-.3s-.3-.7-.6-.9zm-1.8 5.9c-.2-.1-.4 0-.4.2s.2.5.4.6.4 0 .4-.2-.2-.5-.4-.6zm-4.7-.4c-.1 0-.1 0-.1.1s.1.2.1.2c.1 0 .1 0 .1-.1 0 0 0-.1-.1-.2zm-8.5 1.8c-.3-.2-.6 0-.6.3s.3.8.6.9c.3.2.6 0 .6-.3s-.3-.7-.6-.9zm-1.1 6.2c-.1 0-.1 0-.1.1s.1.2.1.2c.1 0 .1 0 .1-.1s-.1-.2-.1-.2zm9.3 2.2c-.4-.2-.7 0-.7.4s.3.9.7 1.1.7 0 .7-.4-.3-.9-.7-1.1zm-1.9-4.5c-.2-.1-.4 0-.4.2s.2.5.4.6.4 0 .4-.2-.2-.5-.4-.6zm-4.8-.4c-.1 0-.1 0-.1.1s.1.2.1.2c.1 0 .1 0 .1-.1.1-.1 0-.1-.1-.2zm11.7-10c-.3-.2-.6 0-.6.3s.3.8.6.9c.3.2.6 0 .6-.3.1-.4-.2-.8-.6-.9zm8.2 6c0-.3-.2-.6-.5-.7s-.5 0-.5.2c0 .3.2.6.5.7.3.2.5.1.5-.2zm2.1 16.9c.2.1.4 0 .4-.2s-.2-.5-.4-.6-.4 0-.4.2c.1.2.2.5.4.6zm4.6 2.6c0-.4-.3-.9-.7-1.1s-.7 0-.7.4.3.9.7 1.1c.3.2.7 0 .7-.4zm-.5-19.1c-.3-.1-.5 0-.5.2s.2.6.5.7.5 0 .5-.2-.2-.6-.5-.7zm-27.9-11.3c-.3-.1-.5 0-.5.2s.2.6.5.7.5 0 .5-.2-.2-.6-.5-.7zm25.9 21.5c-.4-.2-.7 0-.7.4s.3.9.7 1.1.7 0 .7-.4-.3-.9-.7-1.1zm-6.7 4.5c-.2-.1-.4 0-.4.2s.2.5.4.6.4 0 .4-.2-.2-.5-.4-.6zm-7.4-9c-.2-.1-.4 0-.4.2s.2.5.4.6.4 0 .4-.2c-.1-.2-.2-.5-.4-.6zm5.1 2.9c-.7-.4-1.4-.1-1.4.7 0 .7.6 1.7 1.4 2 .7.4 1.4.1 1.4-.7-.1-.7-.7-1.6-1.4-2zm-16.9-14.8c-.1 0-.1 0-.1.1s.1.2.1.2c.1 0 .1 0 .1-.1.1 0 0-.1-.1-.2z" opacity=".3"/><path d="m0 16 32 16v32l-32-16z" opacity=".11"/><path d="m0 16 32 16 8-4-32-16z" fill="#9c3"/><path d="m32 0-8 4 32 16 8-4z" fill="#9c3"/><path d="m24 4 32 16-16 8-32-16z" fill="#39c"/><path d="m0 16 32 16 8-4-32-16z" fill="#9c3"/><path d="m32 0-8 4 32 16 8-4z" fill="#9c3"/><path d="m24 4-16 8 32 16v5.9c0 4.6 4.9 7.7 9 5.6 4.3-2.1 7-6.5 7-11.3v-8.2z" fill="#39c"/><path d="m24 4-4 2 32 16v8.2c0 3.9-1.8 7.5-4.7 9.9.6-.1 1.2-.3 1.8-.6 4.3-2.1 7-6.5 7-11.3v-8.2z" opacity=".15"/><path d="m64 16v32l-32 16v-32z" opacity=".29"/></svg>