<svg enable-background="new 0 0 64 64" viewBox="0 0 64 64" xmlns="http://www.w3.org/2000/svg"><path d="m32 32v32l32-16v-32z" fill="#825012"/><path d="m64 16v2l-2 1z" opacity=".3"/><path d="m64 16v5l-6 3z" opacity=".2"/><path d="m32 0-32 16v32l32 16 32-48z" fill="#39c"/><g opacity=".3"><path d="m46.1 52.5c-.3.2-.6.6-.6.9s.3.5.6.3.6-.6.6-.9-.2-.5-.6-.3z"/><path d="m62.7 46.9c.4-.2.7-.7.7-1.1s-.3-.6-.7-.4-.7.7-.7 1.1c0 .5.3.6.7.4z"/><path d="m60.5 43.9c.3-.1.5-.5.5-.7 0-.3-.2-.4-.5-.2-.3.1-.5.5-.5.7 0 .3.2.4.5.2z"/><path d="m62 37.9c0-.7-.6-1-1.3-.7s-1.3 1.2-1.3 2c0 .7.6 1 1.3.7.7-.4 1.3-1.3 1.3-2z"/><path d="m58.7 34.5c-.2.1-.4.3-.4.5s.2.3.4.2.4-.3.4-.5c0-.3-.2-.3-.4-.2z"/><path d="m56.7 46.4c-.2.1-.4.3-.4.5s.2.3.4.2.4-.3.4-.5-.2-.3-.4-.2z"/><path d="m61.6 28.1c-.3.1-.6.5-.6.9 0 .3.3.5.6.3s.6-.6.6-.9c0-.4-.3-.5-.6-.3z"/><path d="m47.9 47.9c0-.3-.3-.5-.6-.3s-.6.6-.6.9.3.5.6.3.6-.6.6-.9z"/><path d="m53.1 44.5c0-.3-.3-.5-.6-.3s-.6.6-.6.9.3.5.6.3c.4-.2.6-.6.6-.9z"/><path d="m56.5 38.9c.4-.2.7-.7.7-1.1s-.3-.6-.7-.4-.7.7-.7 1.1c-.1.4.3.6.7.4z"/><path d="m39.7 57.9c.4-.2.7-.7.7-1.1s-.3-.6-.7-.4-.7.7-.7 1.1c0 .5.3.6.7.4z"/><path d="m44.4 50.6c-.2.1-.4.3-.4.5s.2.3.4.2.4-.3.4-.5-.2-.3-.4-.2z"/><path d="m51.3 48.1c-.2.1-.4.3-.4.5s.2.3.4.2.4-.3.4-.5-.2-.3-.4-.2z"/><path d="m50.8 40.6c0 .3.3.5.6.3s.6-.6.6-.9-.3-.5-.6-.3-.6.6-.6.9z"/><path d="m57.2 30.6c-.1 0-.2.2-.2.2 0 .1.1.1.2.1s.2-.2.2-.2c-.1-.1-.1-.1-.2-.1z"/><path d="m41.2 51.8c-.1 0-.2.2-.2.2s.1.1.2.1.2-.2.2-.2c0-.1-.1-.2-.2-.1z"/><path d="m54.3 35.1c0-.1-.1-.2-.2-.1s-.2.2-.2.3.1.2.2.1c.1 0 .2-.2.2-.3z"/><path d="m56.3 43.4c0-.1-.1-.2-.2-.1s-.2.2-.2.3.1.2.2.1c.1 0 .2-.2.2-.3z"/><path d="m62.5 35.4c0-.1-.1-.2-.2-.1s-.2.2-.2.3.1.2.2.1.2-.2.2-.3z"/></g><path d="m0 16 32 16v32l-32-16z" opacity=".11"/><path d="m64 16-32 48 24-44z" fill="#fff" opacity=".2"/><path d="m64 16-16 24 14-23z" fill="#fff" opacity=".5"/><path d="m64 16v32l-32 16v-32z" opacity=".29"/></svg>