<svg enable-background="new 0 0 64 64" viewBox="0 0 64 64" xmlns="http://www.w3.org/2000/svg"><path d="m0 16v32l32 16 32-16v-32z" fill="#825012"/><path d="m0 24v16s.2.2 1.5.7c4.8 2.2 6.1 1.7 10.5 3.3s6.6 4.8 9.6 6.8c2.4 1.6 8.8 4.5 8.8 4.5l1.6.7 10.5-5.3c13.2-6.5 21.5-20 21.5-34.7 0 4.9-3.6 12.9-11 18s-21 6-21 6-.7-.1-3.3-1.2c-4-1.8-7.5-1.3-11-3.1-3.9-2-10.2-7.9-12.3-9-4-2-5.4-2.7-5.4-2.7z" fill="#39c"/><path d="m0 16v2l32 16 32-16v-2z" opacity=".3"/><g fill="#9c3"><path d="m32 0 32 16-32 16-32-16z"/><path d="m32 0 32 16-32 16-32-16z"/><path d="m32 0 32 16-32 16-32-16z"/><path d="m32 0 32 16-32 16-32-16z"/></g><g opacity=".3"><path d="m46.1 50.9c-.3.2-.6.6-.6.9s.3.5.6.3.6-.6.6-.9-.3-.5-.6-.3z"/><path d="m39.5 58.2c.4-.2.7-.7.7-1.1s-.3-.6-.7-.4-.7.7-.7 1.1.3.5.7.4z"/><path d="m55.3 28.9c0-.4-.3-.6-.7-.4s-.7.7-.7 1.1.3.6.7.4c.4-.3.7-.8.7-1.1z"/><path d="m48.5 28.7c0-.7-.6-1-1.3-.7-.7.4-1.3 1.2-1.3 2 0 .7.6 1 1.3.7.7-.4 1.3-1.3 1.3-2z"/><path d="m34.6 59.4c0-.1-.1-.1-.1-.1-.1 0-.1.1-.1.2s.1.1.1.1c.1-.1.1-.2.1-.2z"/><path d="m56.7 44.8c-.2.1-.4.3-.4.5s.2.3.4.2.4-.3.4-.5c-.1-.2-.2-.3-.4-.2z"/><path d="m61.1 21.8c-.3.2-.6.6-.6.9s.3.5.6.3.6-.6.6-.9c0-.4-.2-.5-.6-.3z"/><path d="m62.7 38.8c0 .1.1.1.1.1.1 0 .1-.1.1-.2s-.1-.1-.1-.1-.1.1-.1.2z"/><path d="m58.3 39.6c.4-.2.7-.7.7-1.1s-.3-.6-.7-.4-.7.7-.7 1.1c0 .5.3.6.7.4z"/><path d="m58.5 46.9c.4-.2.7-.7.7-1.1s-.3-.6-.7-.4-.7.7-.7 1.1.3.6.7.4z"/><path d="m43.2 34.7c-.4.2-.7.7-.7 1.1s.3.6.7.4.7-.7.7-1.1c0-.5-.3-.6-.7-.4z"/><path d="m35.7 35.1c-.4.2-.7.7-.7 1.1s.3.6.7.4.7-.7.7-1.1-.3-.6-.7-.4z"/><path d="m55.9 49.5c0-.3-.3-.5-.6-.3s-.6.6-.6.9.3.5.6.3c.4-.2.6-.6.6-.9z"/><path d="m43.3 56.5c.4-.2.7-.7.7-1.1s-.3-.6-.7-.4-.7.7-.7 1.1c0 .5.3.6.7.4z"/><path d="m51.2 46.5c-.2.1-.4.3-.4.5s.2.3.4.2.4-.3.4-.5c0-.3-.2-.3-.4-.2z"/><path d="m62.4 44.7c-.3.2-.6.6-.6.9s.3.5.6.3.6-.6.6-.9c0-.4-.2-.5-.6-.3z"/><path d="m50.3 30.3c0 .3.3.5.6.3s.6-.6.6-.9-.3-.5-.6-.3-.6.6-.6.9z"/><path d="m35.3 56.6c.3-.1.5-.5.5-.7 0-.3-.2-.4-.5-.2-.3.1-.5.5-.5.7.1.2.3.3.5.2z"/><path d="m62.6 40.6c0-.4-.3-.6-.7-.4s-.7.7-.7 1.1.3.6.7.4c.3-.3.7-.7.7-1.1z"/><path d="m55.5 24.1c-.1 0-.2.2-.2.2 0 .1.1.1.2.1s.2-.2.2-.2c0-.1-.1-.1-.2-.1z"/><path d="m55.5 25.8c0-.1-.1-.2-.2-.1s-.2.2-.2.3.1.2.2.1.2-.2.2-.3z"/><path d="m42.2 32c0-.1-.1-.2-.2-.1s-.2.2-.2.3.1.2.2.1.2-.2.2-.3z"/><path d="m56.2 41.8c0-.1-.1-.2-.2-.1s-.2.2-.2.3.1.2.2.1c.1 0 .2-.2.2-.3z"/><path d="m62.4 33.8c0-.1-.1-.2-.2-.1-.1 0-.2.2-.2.3s.1.2.2.1.2-.2.2-.3z"/><path d="m48.7 33.9c0-.1-.1-.2-.2-.1s-.2.2-.2.3.1.2.2.1.2-.2.2-.3z"/><path d="m52.1 49.7c-.3.1-.5.5-.5.7 0 .3.2.4.5.2.3-.1.5-.5.5-.7s-.2-.3-.5-.2z"/></g><path d="m25.9 37.1c.4.2.7 0 .7-.4s-.3-.9-.7-1.1-.7 0-.7.4.3.9.7 1.1zm-22.2-14.1c.4.2.7 0 .7-.4s-.3-.9-.7-1.1-.7 0-.7.4.3.9.7 1.1zm18 13.1c.4.2.7 0 .7-.4s-.3-.9-.7-1.1-.7 0-.7.4.3.9.7 1.1zm-3.9 17.5c-.4-.2-.7 0-.7.4s.3.9.7 1.1.7 0 .7-.4-.3-.9-.7-1.1zm3 2.1c-.1 0-.2 0-.2.1s.1.2.2.3c.1 0 .2 0 .2-.1s-.1-.3-.2-.3zm-6-8.2c-.1 0-.2 0-.2.1s.1.2.2.3c.1 0 .2 0 .2-.1-.1-.1-.1-.2-.2-.3zm1.1 1c-.3-.2-.6 0-.6.3s.3.8.6.9c.3.2.6 0 .6-.3s-.3-.7-.6-.9zm-11.1-4c-.1 0-.1 0-.1.1s.1.2.1.2c.1 0 .1 0 .1-.1s0-.2-.1-.2zm4-19.2c-.7-.4-1.4-.1-1.4.7s.6 1.7 1.4 2c.7.4 1.4.1 1.4-.7s-.6-1.7-1.4-2zm8.4 5.6c-.3-.2-.6 0-.6.3s.3.8.6.9c.3.2.6 0 .6-.3s-.3-.8-.6-.9zm-2.9-3.7c-.1 0-.1 0-.1.1s.1.2.1.2.1 0 .1-.1-.1-.2-.1-.2zm-13.2 17.1c-.1 0-.1 0-.1.1s.1.2.1.2c.1 0 .1 0 .1-.1s0-.2-.1-.2zm9.3 2.2c-.4-.2-.7 0-.7.4s.3.9.7 1.1.7 0 .7-.4-.3-.9-.7-1.1zm-5.1 1.1c-.2-.1-.4 0-.4.2s.2.5.4.6.4 0 .4-.2c-.1-.3-.2-.5-.4-.6zm10.1-16c-.3-.2-.6 0-.6.3s.3.8.6.9c.3.2.6 0 .6-.3.1-.3-.2-.7-.6-.9zm8.5.6c0-.3-.2-.6-.5-.7s-.5 0-.5.2.2.6.5.7c.3.2.5.1.5-.2zm2 24.3c.2.1.4 0 .4-.2s-.2-.5-.4-.6-.4 0-.4.2.2.5.4.6zm3.5 3.4c0-.4-.3-.9-.7-1.1s-.7 0-.7.4.3.9.7 1.1.7 0 .7-.4zm.4-25.1c-.3-.1-.5 0-.5.2s.2.6.5.7.5 0 .5-.2-.2-.6-.5-.7zm-8.6 18c-.2-.1-.4 0-.4.2s.2.5.4.6.4 0 .4-.2c-.1-.3-.2-.5-.4-.6zm-9.2-3c-.7-.4-1.4-.1-1.4.7 0 .7.6 1.7 1.4 2 .7.4 1.4.1 1.4-.7-.1-.7-.7-1.6-1.4-2z" opacity=".3"/><path d="m64 16v32l-32 16v-32z" opacity=".29"/><path d="m0 16 32 16v32l-32-16z" opacity=".11"/></svg>