<svg enable-background="new 0 0 64 64" viewBox="0 0 64 64" xmlns="http://www.w3.org/2000/svg"><path d="m32 0-32 16v32l32 16 32-16v-32z" fill="#825012"/><g opacity=".3"><path d="m46.4 51.6c-.3.2-.6.6-.6.9s.3.5.6.3.6-.6.6-.9-.3-.5-.6-.3z"/><path d="m41.2 53.4c.4-.2.7-.7.7-1.1s-.3-.6-.7-.4-.7.7-.7 1.1.3.6.7.4z"/><path d="m44.7 48.1c.3-.1.5-.5.5-.7 0-.3-.2-.4-.5-.2-.3.1-.5.5-.5.7s.2.3.5.2z"/><path d="m52.6 30.1c0-.4-.3-.6-.7-.4s-.7.7-.7 1.1.3.6.7.4.7-.7.7-1.1z"/><path d="m54.3 36.9c0-.7-.6-1-1.3-.7-.7.4-1.3 1.2-1.3 2 0 .7.6 1 1.3.7.7-.4 1.3-1.3 1.3-2z"/><path d="m61.9 45.3c0-.7-.6-1-1.3-.7-.7.4-1.3 1.2-1.3 2 0 .7.6 1 1.3.7.7-.4 1.3-1.2 1.3-2z"/><path d="m40.9 46.9c0-.1-.1-.1-.1-.1-.1 0-.1.1-.1.2s.1.1.1.1.1-.1.1-.2z"/><path d="m34.7 40.4c0-.1-.1-.1-.1-.1-.1 0-.1.1-.1.2s.1.1.1.1c0-.1.1-.2.1-.2z"/><path d="m36 57.2c0-.1-.1-.1-.1-.1-.1 0-.1.1-.1.2s.1.1.1.1c.1 0 .1-.1.1-.2z"/><path d="m58.9 33.5c-.2.1-.4.3-.4.5s.2.3.4.2.4-.3.4-.5-.2-.3-.4-.2z"/><path d="m57 45.5c-.2.1-.4.3-.4.5s.2.3.4.2.4-.3.4-.5c-.1-.2-.2-.3-.4-.2z"/><path d="m61.8 27.1c-.3.2-.6.6-.6.9s.3.5.6.3.6-.6.6-.9-.2-.4-.6-.3z"/><path d="m48.3 32.6c0 .1.1.1.1.1.1 0 .1-.1.1-.2s-.1-.1-.1-.1c-.1.1-.1.2-.1.2z"/><path d="m40.9 33.1c.4-.2.7-.7.7-1.1s-.3-.6-.7-.4-.7.7-.7 1.1c0 .5.3.6.7.4z"/><path d="m39.9 40c.4-.2.7-.7.7-1.1s-.3-.6-.7-.4-.7.7-.7 1.1c0 .5.4.6.7.4z"/><path d="m41.1 43.7c-.4.2-.7.7-.7 1.1s.3.6.7.4.7-.7.7-1.1-.3-.6-.7-.4z"/><path d="m33.8 34.9c-.4.2-.7.7-.7 1.1s.3.6.7.4.7-.7.7-1.1-.3-.6-.7-.4z"/><path d="m62.4 40.8c0-.3-.3-.5-.6-.3s-.6.6-.6.9.3.5.6.3c.4-.2.6-.6.6-.9z"/><path d="m53.4 43.6c0-.3-.3-.5-.6-.3s-.6.6-.6.9.3.5.6.3.6-.6.6-.9z"/><path d="m36.6 47.2c0-.3-.3-.5-.6-.3s-.6.6-.6.9.3.5.6.3.6-.6.6-.9z"/><path d="m56.7 38c.4-.2.7-.7.7-1.1s-.3-.6-.7-.4-.7.7-.7 1.1.3.6.7.4z"/><path d="m39.9 57c.4-.2.7-.7.7-1.1s-.3-.6-.7-.4-.7.7-.7 1.1c0 .5.4.6.7.4z"/><path d="m55.4 50c-.2.1-.4.3-.4.5s.2.3.4.2.4-.3.4-.5-.2-.3-.4-.2z"/><path d="m51.5 47.1c-.2.1-.4.3-.4.5s.2.3.4.2.4-.3.4-.5-.2-.3-.4-.2z"/><path d="m48 38.5c-.3.2-.6.6-.6.9s.3.5.6.3.6-.6.6-.9-.2-.5-.6-.3z"/><path d="m55.4 25.7c0 .3.3.5.6.3s.6-.6.6-.9-.3-.5-.6-.3-.6.6-.6.9z"/><path d="m48.6 42.1c0 .3.3.5.6.3s.6-.6.6-.9-.3-.5-.6-.3c-.3.1-.6.5-.6.9z"/><path d="m36.7 54.5c.3-.1.5-.5.5-.7 0-.3-.2-.4-.5-.2-.3.1-.5.5-.5.7s.2.3.5.2z"/><path d="m49.5 25.8c0-.4-.3-.6-.7-.4s-.7.7-.7 1.1.3.6.7.4c.3-.2.7-.7.7-1.1z"/><path d="m56.3 29.3c-.1 0-.2.2-.2.2 0 .1.1.1.2.1s.2-.2.2-.2c0-.1-.1-.2-.2-.1z"/><path d="m60.1 21.3c-.1 0-.2.2-.2.2s.1.1.2.1.2-.2.2-.2c0-.2-.1-.2-.2-.1z"/><path d="m41.5 50.9c-.1 0-.2.2-.2.2 0 .1.1.1.2.1s.2-.2.2-.2c-.1-.1-.1-.2-.2-.1z"/><path d="m33.8 44.4c-.1 0-.2.2-.2.2 0 .1.1.1.2.1s.2-.2.2-.2c0-.1-.1-.2-.2-.1z"/><path d="m54.5 34.2c0-.1-.1-.2-.2-.1s-.2.2-.2.3.1.2.2.1.2-.2.2-.3z"/><path d="m56.5 42.5c0-.1-.1-.2-.2-.1s-.2.2-.2.3.1.2.2.1.2-.2.2-.3z"/><path d="m62.7 34.5c0-.1-.1-.2-.2-.1s-.2.2-.2.3.1.2.2.1.2-.2.2-.3z"/><path d="m44.4 39.2c0-.1-.1-.2-.2-.1s-.2.2-.2.3.1.2.2.1c.1 0 .2-.2.2-.3z"/><path d="m44.7 32.4c-.3.1-.5.5-.5.7 0 .3.2.4.5.2.3-.1.5-.5.5-.7s-.3-.3-.5-.2z"/></g><path d="m26.2 37.8c.4.2.7 0 .7-.4s-.3-.9-.7-1.1-.7 0-.7.4.3.9.7 1.1zm-18.9-14.7c.4.2.7 0 .7-.4s-.3-.9-.7-1.1-.7 0-.7.4.3.9.7 1.1zm15 21.3c-.4-.2-.7 0-.7.4s.3.9.7 1.1.7 0 .7-.4-.3-.9-.7-1.1zm.3-11.7c.4.2.7 0 .7-.4s-.3-.9-.7-1.1-.7 0-.7.4.3.9.7 1.1zm-4.5 21.5c-.4-.2-.7 0-.7.4s.3.9.7 1.1.7 0 .7-.4-.3-.8-.7-1.1zm3 2.2c-.1 0-.2 0-.2.1s.1.2.2.3c.1 0 .2 0 .2-.1s-.1-.3-.2-.3zm7.2 2.8c-.1 0-.2 0-.2.1s.1.2.2.3c.1 0 .2 0 .2-.1s-.1-.2-.2-.3zm-13.2-11c-.1 0-.2 0-.2.1s.1.2.2.3c.1 0 .2 0 .2-.1-.1-.2-.1-.3-.2-.3zm1.1 1c-.3-.2-.6 0-.6.3s.3.8.6.9c.3.2.6 0 .6-.3s-.3-.7-.6-.9zm10.1-5.4c-.3-.2-.6 0-.6.3s.3.8.6.9c.3.2.6 0 .6-.3.1-.3-.2-.7-.6-.9zm-21.4-12c-.3-.2-.6 0-.6.3s.3.8.6.9c.3.2.6 0 .6-.3s-.2-.7-.6-.9zm14.1 8.7c-.3-.2-.6 0-.6.3s.3.8.6.9c.3.2.6 0 .6-.3s-.3-.7-.6-.9zm-11.5-5c-.1 0-.1 0-.1.1s.1.2.1.2c.1 0 .1 0 .1-.1.1-.1 0-.2-.1-.2zm10 8.4c-.1 0-.1 0-.1.1s.1.2.1.2c.1 0 .1 0 .1-.1 0 0-.1-.1-.1-.2zm-5.3-4.5c-.4-.2-.7 0-.7.4s.3.9.7 1.1.7 0 .7-.4-.3-.9-.7-1.1zm-5-9.9c-.7-.4-1.4-.1-1.4.7s.6 1.7 1.4 2c.7.4 1.4.1 1.4-.7 0-.7-.7-1.6-1.4-2zm9.9-1.7c-.3-.2-.6 0-.6.3s.3.8.6.9c.3.2.6 0 .6-.3s-.3-.7-.6-.9zm-1.4 9.6c-.2-.1-.4 0-.4.2s.2.5.4.6.4 0 .4-.2-.2-.5-.4-.6zm-4.7-.4c-.1 0-.1 0-.1.1s.1.2.1.2c.1 0 .1 0 .1-.1 0 0 0-.1-.1-.2zm.4-10c-.1 0-.1 0-.1.1s.1.2.1.2.1 0 .1-.1-.1-.2-.1-.2zm-8.9 11.8c-.3-.2-.6 0-.6.3s.3.8.6.9c.3.2.6 0 .6-.3s-.3-.7-.6-.9zm-1.1 6.2c-.1 0-.1 0-.1.1s.1.2.1.2c.1 0 .1 0 .1-.1s-.1-.2-.1-.2zm6.2 2.4c-.4-.2-.7 0-.7.4s.3.9.7 1.1.7 0 .7-.4-.3-.9-.7-1.1zm1.2-4.7c-.2-.1-.4 0-.4.2s.2.5.4.6.4 0 .4-.2-.2-.5-.4-.6zm-4.8-.4c-.1 0-.1 0-.1.1s.1.2.1.2c.1 0 .1 0 .1-.1.1-.1 0-.1-.1-.2zm11.7-10c-.3-.2-.6 0-.6.3s.3.8.6.9c.3.2.6 0 .6-.3.1-.4-.2-.8-.6-.9zm8.2 6c0-.3-.2-.6-.5-.7s-.5 0-.5.2c0 .3.2.6.5.7.3.2.5.1.5-.2zm2.1 16.9c.2.1.4 0 .4-.2s-.2-.5-.4-.6-.4 0-.4.2c.1.2.2.5.4.6zm4.6 2.6c0-.4-.3-.9-.7-1.1s-.7 0-.7.4.3.9.7 1.1c.3.2.7 0 .7-.4zm-.5-19.1c-.3-.1-.5 0-.5.2s.2.6.5.7.5 0 .5-.2-.2-.6-.5-.7zm-27.7-18.4c-.3-.1-.5 0-.5.2s.2.6.5.7.5 0 .5-.2-.2-.5-.5-.7zm25.7 28.6c-.4-.2-.7 0-.7.4s.3.9.7 1.1.7 0 .7-.4-.3-.9-.7-1.1zm-6.7 4.5c-.2-.1-.4 0-.4.2s.2.5.4.6.4 0 .4-.2-.2-.5-.4-.6zm-7.4-9c-.2-.1-.4 0-.4.2s.2.5.4.6.4 0 .4-.2c-.1-.2-.2-.5-.4-.6zm5.1 2.9c-.7-.4-1.4-.1-1.4.7 0 .7.6 1.7 1.4 2 .7.4 1.4.1 1.4-.7-.1-.7-.7-1.6-1.4-2zm-16.7-21.8c-.1 0-.1 0-.1.1s.1.2.1.2c.1 0 .1 0 .1-.1s0-.2-.1-.2z" opacity=".3"/><path d="m0 16 32 16v32l-32-16z" opacity=".11"/><g opacity=".3"><ellipse cx="26.2" cy="19.7" rx="2" ry="1"/><ellipse cx="42.2" cy="12.2" rx="1.3" ry=".7"/><ellipse cx="13.7" cy="16.4" rx="1.3" ry=".7"/><ellipse cx="39.4" cy="21.2" rx="1" ry=".5"/><ellipse cx="28.5" cy="26.1" rx=".6" ry=".3"/><ellipse cx="34.8" cy="19.2" rx=".2" ry=".1"/><ellipse cx="49.5" cy="11.7" rx=".2" ry=".1"/><ellipse cx="43.5" cy="16.5" rx=".2" ry=".1"/><ellipse cx="36" cy="27.7" rx=".2" ry=".1"/><ellipse cx="23.8" cy="9.4" rx=".2" ry=".1"/><ellipse cx="6.7" cy="16.5" rx=".2" ry=".1"/><ellipse cx="36" cy="13.6" rx=".6" ry=".3"/><ellipse cx="54.1" cy="16" rx=".6" ry=".3"/><ellipse cx="47" cy="20" rx=".6" ry=".3"/><ellipse cx="36.6" cy="5.9" rx=".6" ry=".3"/><ellipse cx="15.7" cy="10.8" rx=".6" ry=".3"/><ellipse cx="24.4" cy="13.9" rx=".6" ry=".3"/><ellipse cx="20.5" cy="16.7" rx=".6" ry=".3"/><ellipse cx="20.5" cy="22.5" rx=".6" ry=".3"/><ellipse cx="28.2" cy="8.6" rx="1" ry=".5"/></g><path d="m64 16v32l-32 16v-32z" opacity=".29"/></svg>