<svg enable-background="new 0 0 64 64" viewBox="0 0 64 64" xmlns="http://www.w3.org/2000/svg"><path d="m0 16v32l32 16 32-16v-32z" fill="#999"/><path d="m0 16v24l32 16 32-16v-24z" fill="#baa794"/><path d="m0 16v16l32 16 32-16v-16z" fill="#825012"/><path d="m0 16v8l32 16 32-16v-8z" fill="#762c07"/><path d="m0 16v2l32 16 32-16v-2z" opacity=".3"/><path d="m64 16v32l-32 16v-32z" opacity=".29"/><path d="m0 16 32 16v32l-32-16z" opacity=".11"/><g fill="#9c3"><path d="m32 0 32 16-32 16-32-16z"/><path d="m32 0 32 16-32 16-32-16z"/><path d="m32 0 32 16-32 16-32-16z"/><path d="m32 0 32 16-32 16-32-16z"/></g></svg>