<svg enable-background="new 0 0 224 208" viewBox="0 0 224 208" xmlns="http://www.w3.org/2000/svg"><path d="m7.7 152 2 12 18.3 3 7 15 25-7 2 7h17l9 18 15 2 27-16 9 4h33l20-11 21-8 4-4-10-21-8-8-5-29-11-3-24-53-14-6-12-22-20-20-15.2 15.3-9.8 15.7-9 6-8 21-21 20-5 21-21 28z" fill="#999"/><path d="m79 42 26 6 8 8 19-9-2 16 29-10-14-6-12-22-20-20-15.2 15.3-9.8 15.7z" fill="#fff" opacity=".8"/><path d="m139 190-9-4 4.4-39-4-21 6.6-29-4 31.4 6 23.6z" opacity=".25"/><path d="m183 106 11 3-23 13z" fill="#fff" opacity=".15"/><path d="m88 200-9-18 21.5-29.7-5.5-26.3 25-14.8-20 19.8 2.5 30.5z" opacity=".15"/><path d="m172 190-5-31 4-24-11 24-3 31z" opacity=".25"/><path d="m103 202 27-16-14-28 9-46-6-40 4 41-14 35-1 28z" opacity=".25"/><path d="m171 122 12-16-11.8-2.8-12.9-7.2-6.5-23.5 3.2 28.5z" opacity=".15"/><path d="m160 159-4-15-10 1 25-10z" fill="#fff" opacity=".15"/><path d="m146 145 10-1-4 15 1 14-4-15v-9z" opacity=".25"/><path d="m79 42 9-6 17 12z" fill="#fff" opacity=".15"/><path d="m60 175 2 7 13-14-4-20 1-30-6 29-1 18z" opacity=".25"/><path d="m145 47 14 6-29 10z" fill="#fff" opacity=".15"/><path d="m145 47-17.5-8.7-2.7-12.8-1.8 19.5 9 2-2 16z" opacity=".15"/><path d="m28 167 7 15 6-37 12-30-3-32-1 31-14 29v17z" opacity=".25"/><path d="m50 83 39-1-22-6 4-13z" fill="#fff" opacity=".15"/><path d="m120 111-25 15-11-15 11 4z" fill="#fff" opacity=".15"/><path d="m84 111 11 4 2-35 16-24-19 18-1 23z" opacity=".15"/><path d="m24 132 11 10h-10z" fill="#fff" opacity=".15"/><path d="m25 142-15.3 22-2-12 16.3-20z" opacity=".15"/><path d="m194 156 13-10-8-8-6 13-16 5z" fill="#fff" opacity=".15"/><path d="m213 171 4-4-10-21-13 10z" opacity=".25"/><path d="m192 179-20 11 8.9-20.1-3.9-13.9z" opacity=".15"/><path d="m193 151-3.7-32.7 4.7-9.3-23 13 14.5 7.5z" opacity=".15"/><path d="m155 101-18-4 17.3-2.7z" fill="#fff" opacity=".15"/><path d="m171 122-16-21-.7-6.7z" opacity=".15"/><path d="m71 63-4 13 22 6-13.7-21 3.7-19z" opacity=".15"/><path d="m88 36 17 12-.5-17.2 8-23.8-14.5 26.8z" opacity=".1"/><path d="m113 5-15.2 15.3.2 13.5 6.5-3 12.8 5.9 15.7-11.7z" fill="#fff" opacity=".6"/><path d="m113 5-15.2 15.3 11.1-2.4 2.4 11.1 4-6.5 9.5 3 8.2-.5z" fill="#fff" opacity=".6"/><path d="m24 132-16.3 20 2 12 18.3 3 7 15 25-7 2 7h17l9 18 15 2 27-16 9 4h33l20-11 21-8 4-4-10-21-8-8-5-29-11-3-10.8-23.9-20.4-9.6 2.5 21.8-17.3 2.7-18-25-22 8-4 17-5.7-15.3-37.3 1.3-5 21z" opacity=".1"/><path d="m7.7 152 2 12 18.3 3 7 15 25-7 2 7h17l9 18 15 2 27-16 9 4h33l20-11 21-8 4-4-10-21-8-8-5-29-23 13-38 6.4-2.6-2.4-5.4-14-2 1-3-2-25 15-24 22-5-1-13-32-4-1-4-10-21 28z" opacity=".1"/><path d="m9.7 164 18.3 3 7 15 25-7 2 7h17l9 18 15 2 27-16 9 4h33l20-11 21-8 4-4-10-21-13 10h-17l-10 3h-7l-4-15-10 1-7 7-4.6-5-18.4 11-8 18-5.5-14.5-2-9.2-25.5 15.7-10-3-24-20-6-3h-10l-1-10-16.3 20z" opacity=".1"/><path d="m113 56 10-11-2.5-10.7-3.5-3.4-1.7-8.4-1.5 10.3 3.5 3.9z" opacity=".1"/></svg>