<?xml version="1.0" encoding="UTF-8" standalone="no"?>
<!-- Created with Inkscape (http://www.inkscape.org/) -->

<svg
   xmlns:dc="http://purl.org/dc/elements/1.1/"
   xmlns:cc="http://creativecommons.org/ns#"
   xmlns:rdf="http://www.w3.org/1999/02/22-rdf-syntax-ns#"
   xmlns:svg="http://www.w3.org/2000/svg"
   xmlns="http://www.w3.org/2000/svg"
   xmlns:sodipodi="http://sodipodi.sourceforge.net/DTD/sodipodi-0.dtd"
   xmlns:inkscape="http://www.inkscape.org/namespaces/inkscape"
   width="18.541082mm"
   height="41.331226mm"
   viewBox="0 0 18.541083 41.331226"
   version="1.1"
   id="svg205606"
   inkscape:version="0.92.3 (2405546, 2018-03-11)"
   sodipodi:docname="street-objects-14.svg">
  <defs
     id="defs205600">
    <clipPath
       clipPathUnits="userSpaceOnUse"
       id="clipPath70727">
      <path
         d="m 457.002,2619.783 6.988,-3.963 c -0.005,1.482 1.044,3.27 2.335,3.998 v 0 l -6.989,3.961 c -1.292,-0.726 -2.339,-2.515 -2.334,-3.996"
         id="path70725"
         inkscape:connector-curvature="0" />
    </clipPath>
    <clipPath
       clipPathUnits="userSpaceOnUse"
       id="clipPath70703">
      <path
         d="M 0,3189 H 2006.732 V 0 H 0 Z"
         id="path70701"
         inkscape:connector-curvature="0" />
    </clipPath>
    <clipPath
       clipPathUnits="userSpaceOnUse"
       id="clipPath70691">
      <path
         d="m 467.144,2628.18 6.991,-3.965 c 0.643,0.363 1.228,0.396 1.654,0.154 v 0 l -6.988,3.963 c -0.18,0.102 -0.387,0.155 -0.616,0.155 v 0 c -0.314,0 -0.668,-0.099 -1.041,-0.307"
         id="path70689"
         inkscape:connector-curvature="0" />
    </clipPath>
    <clipPath
       clipPathUnits="userSpaceOnUse"
       id="clipPath70659">
      <path
         d="m 460.035,2492.34 h 28.146 v -14.16 h -28.146 z"
         id="path70657"
         inkscape:connector-curvature="0" />
    </clipPath>
    <clipPath
       clipPathUnits="userSpaceOnUse"
       id="clipPath70783">
      <path
         d="m 521.15,2491.13 h 28.145 v -14.17 H 521.15 Z"
         id="path70781"
         inkscape:connector-curvature="0" />
    </clipPath>
    <clipPath
       clipPathUnits="userSpaceOnUse"
       id="clipPath70995">
      <path
         d="m 613.925,2617.959 1.194,-0.692 c 1.427,0.821 2.723,0.9 3.661,0.355 v 0 c -0.4,0.233 -0.796,0.462 -1.196,0.693 v 0 c -0.392,0.229 -0.849,0.348 -1.353,0.348 v 0 c -0.694,0 -1.478,-0.226 -2.306,-0.704"
         id="path70993"
         inkscape:connector-curvature="0" />
    </clipPath>
    <clipPath
       clipPathUnits="userSpaceOnUse"
       id="clipPath70963">
      <path
         d="M 0,3189 H 2006.732 V 0 H 0 Z"
         id="path70961"
         inkscape:connector-curvature="0" />
    </clipPath>
    <clipPath
       clipPathUnits="userSpaceOnUse"
       id="clipPath70951">
      <path
         d="m 621.298,2594.897 c -1.297,-0.722 -3.355,-0.7 -4.596,0.047 v 0 c -0.607,0.364 -0.905,0.831 -0.909,1.298 v 0 l 0.043,-5.474 c 0.003,-0.468 0.3,-0.936 0.904,-1.298 v 0 c 1.246,-0.75 3.303,-0.772 4.599,-0.049 v 0 c 0.666,0.371 1.002,0.868 1,1.364 v 0 l -0.039,5.477 c 0,-0.496 -0.336,-0.993 -1.002,-1.365"
         id="path70949"
         inkscape:connector-curvature="0" />
    </clipPath>
    <clipPath
       clipPathUnits="userSpaceOnUse"
       id="clipPath70935">
      <path
         d="M 0,3189 H 2006.732 V 0 H 0 Z"
         id="path70933"
         inkscape:connector-curvature="0" />
    </clipPath>
    <clipPath
       clipPathUnits="userSpaceOnUse"
       id="clipPath70923">
      <path
         d="m 621.514,2528.221 c -1.378,-0.769 -3.57,-0.747 -4.89,0.048 v 0 c -0.64,0.385 -0.96,0.882 -0.963,1.382 v 0 l 0.044,-34.963 c 0,-0.497 0.321,-0.994 0.963,-1.382 v 0 c 1.322,-0.795 3.512,-0.817 4.889,-0.049 v 0 c 0.71,0.395 1.065,0.925 1.065,1.452 v 0 l -0.043,34.963 c 0,-0.532 -0.355,-1.057 -1.065,-1.451"
         id="path70921"
         inkscape:connector-curvature="0" />
    </clipPath>
    <clipPath
       clipPathUnits="userSpaceOnUse"
       id="clipPath70895">
      <path
         d="m 613.479,2502.16 h 28.146 V 2488 h -28.146 z"
         id="path70893"
         inkscape:connector-curvature="0" />
    </clipPath>
    <clipPath
       clipPathUnits="userSpaceOnUse"
       id="clipPath71403">
      <path
         d="m 660.563,2585.094 c -1.298,-0.722 -3.354,-0.701 -4.599,0.049 v 0 c -0.603,0.362 -0.904,0.83 -0.904,1.296 v 0 l 0.042,-5.475 c 0,-0.469 0.3,-0.935 0.903,-1.298 v 0 c 1.245,-0.75 3.303,-0.77 4.598,-0.048 v 0 c 0.668,0.374 1.004,0.866 1.002,1.366 v 0 l -0.044,5.475 c 0.003,-0.495 -0.33,-0.994 -0.998,-1.365"
         id="path71401"
         inkscape:connector-curvature="0" />
    </clipPath>
    <clipPath
       clipPathUnits="userSpaceOnUse"
       id="clipPath71387">
      <path
         d="M 0,3189 H 2006.732 V 0 H 0 Z"
         id="path71385"
         inkscape:connector-curvature="0" />
    </clipPath>
    <clipPath
       clipPathUnits="userSpaceOnUse"
       id="clipPath71347">
      <path
         d="M 652.694,2493.36 H 680.84 V 2479.2 H 652.694 Z"
         id="path71345"
         inkscape:connector-curvature="0" />
    </clipPath>
    <clipPath
       clipPathUnits="userSpaceOnUse"
       id="clipPath71315">
      <path
         d="m 771.718,2529.918 c -1.379,-0.769 -3.571,-0.747 -4.891,0.049 v 0 c -0.642,0.387 -0.962,0.884 -0.962,1.383 v 0 l -0.284,-34.963 c 0,-0.499 0.318,-0.996 0.961,-1.382 v 0 c 1.324,-0.797 3.513,-0.817 4.89,-0.049 v 0 c 0.708,0.394 1.068,0.923 1.066,1.448 v 0 l 0.283,34.965 c 0,-0.529 -0.357,-1.056 -1.063,-1.451"
         id="path71313"
         inkscape:connector-curvature="0" />
    </clipPath>
    <clipPath
       clipPathUnits="userSpaceOnUse"
       id="clipPath71279">
      <path
         d="m 764.006,2504.18 h 28.147 v -14.16 h -28.147 z"
         id="path71277"
         inkscape:connector-curvature="0" />
    </clipPath>
    <clipPath
       clipPathUnits="userSpaceOnUse"
       id="clipPath71235">
      <path
         d="m 838.289,2627.383 c -0.615,-0.361 -1.234,-0.717 -1.846,-1.074 v 0 c 5.155,2.995 12.292,2.581 20.15,-1.959 v 0 l 1.849,1.074 c -4.556,2.629 -8.867,3.874 -12.69,3.874 v 0 c -2.776,0 -5.295,-0.656 -7.463,-1.915"
         id="path71233"
         inkscape:connector-curvature="0" />
    </clipPath>
    <clipPath
       clipPathUnits="userSpaceOnUse"
       id="clipPath71223">
      <path
         d="m 838.415,2622.911 c -4.587,-2.666 -7.441,-8.328 -7.462,-16.371 v 0 l 1.845,1.071 c 0.024,8.044 2.874,13.706 7.462,16.373 v 0 c -0.615,-0.358 -1.229,-0.715 -1.845,-1.073"
         id="path71221"
         inkscape:connector-curvature="0" />
    </clipPath>
    <clipPath
       clipPathUnits="userSpaceOnUse"
       id="clipPath71167">
      <path
         d="m 824.903,2500.79 h 28.146 v -14.16 h -28.146 z"
         id="path71165"
         inkscape:connector-curvature="0" />
    </clipPath>
    <clipPath
       clipPathUnits="userSpaceOnUse"
       id="clipPath71123">
      <path
         d="m 931.281,2625.369 1.848,-1.073 c 7.861,4.539 14.996,4.954 20.151,1.958 v 0 c -0.616,0.357 -1.231,0.715 -1.846,1.074 v 0 c -2.169,1.259 -4.688,1.915 -7.465,1.915 v 0 c -3.823,0 -8.134,-1.244 -12.688,-3.874"
         id="path71121"
         inkscape:connector-curvature="0" />
    </clipPath>
    <clipPath
       clipPathUnits="userSpaceOnUse"
       id="clipPath71111">
      <path
         d="m 949.541,2623.886 c -0.026,0.016 -0.052,0.031 -0.078,0.046 v 0 c 0.026,-0.015 0.052,-0.03 0.078,-0.046 m 7.379,-16.33 1.847,-1.071 c -0.021,8.043 -2.871,13.706 -7.459,16.372 v 0 c -0.589,0.342 -1.181,0.685 -1.767,1.029 v 0 c 4.542,-2.686 7.357,-8.331 7.379,-16.33"
         id="path71109"
         inkscape:connector-curvature="0" />
    </clipPath>
    <clipPath
       clipPathUnits="userSpaceOnUse"
       id="clipPath71031">
      <path
         d="m 953.681,2500.84 h 28.146 v -14.16 h -28.146 z"
         id="path71029"
         inkscape:connector-curvature="0" />
    </clipPath>
    <clipPath
       clipPathUnits="userSpaceOnUse"
       id="clipPath71631">
      <path
         d="m 1041.748,2621.839 1.366,-0.794 c 1.634,0.945 3.121,1.03 4.193,0.407 v 0 c -0.458,0.264 -0.911,0.531 -1.368,0.793 v 0 c -0.451,0.263 -0.975,0.4 -1.554,0.4 v 0 c -0.794,0 -1.691,-0.259 -2.637,-0.806"
         id="path71629"
         inkscape:connector-curvature="0" />
    </clipPath>
    <clipPath
       clipPathUnits="userSpaceOnUse"
       id="clipPath71571">
      <path
         d="M 0,3189 H 2006.732 V 0 H 0 Z"
         id="path71569"
         inkscape:connector-curvature="0" />
    </clipPath>
    <clipPath
       clipPathUnits="userSpaceOnUse"
       id="clipPath71559">
      <path
         d="m 1051.691,2596.476 c -1.483,-0.828 -3.841,-0.801 -5.264,0.055 v 0 c -0.69,0.414 -1.035,0.952 -1.035,1.485 v 0 l 0.047,-6.267 c 0,-0.535 0.346,-1.073 1.038,-1.489 v 0 c 1.422,-0.856 3.779,-0.88 5.262,-0.052 v 0 c 0.763,0.425 1.148,0.994 1.146,1.563 v 0 l -0.045,6.27 c 0,-0.569 -0.384,-1.138 -1.149,-1.565"
         id="path71557"
         inkscape:connector-curvature="0" />
    </clipPath>
    <clipPath
       clipPathUnits="userSpaceOnUse"
       id="clipPath71543">
      <path
         d="M 0,3189 H 2006.732 V 0 H 0 Z"
         id="path71541"
         inkscape:connector-curvature="0" />
    </clipPath>
    <clipPath
       clipPathUnits="userSpaceOnUse"
       id="clipPath71531">
      <path
         d="m 1052.958,2522.024 c 0,0.011 10e-4,0.021 10e-4,0.031 v 0 z m -8.241,-40.393 c 0,-0.569 0.367,-1.14 1.101,-1.582 v 0 c 1.514,-0.911 4.02,-0.937 5.599,-0.057 v 0 c 0.815,0.454 1.218,1.057 1.218,1.661 v 0 l 0.323,40.371 c -0.011,-0.595 -0.417,-1.186 -1.216,-1.631 v 0 c -1.58,-0.88 -4.084,-0.854 -5.597,0.057 v 0 c -0.737,0.445 -1.102,1.012 -1.102,1.584 v 0 z"
         id="path71529"
         inkscape:connector-curvature="0" />
    </clipPath>
    <clipPath
       clipPathUnits="userSpaceOnUse"
       id="clipPath71499">
      <path
         d="m 1042.06,2490.83 h 32.22 v -16.21 h -32.22 z"
         id="path71497"
         inkscape:connector-curvature="0" />
    </clipPath>
    <clipPath
       clipPathUnits="userSpaceOnUse"
       id="clipPath71459">
      <path
         d="m 1134.87,2533.07 h 19.53 v -9.82 h -19.53 z"
         id="path71457"
         inkscape:connector-curvature="0" />
    </clipPath>
    <clipPath
       clipPathUnits="userSpaceOnUse"
       id="clipPath71951">
      <path
         d="m 1187.11,2640.9 h 2.83 v -2.82 h -2.83 z"
         id="path71949"
         inkscape:connector-curvature="0" />
    </clipPath>
    <clipPath
       clipPathUnits="userSpaceOnUse"
       id="clipPath71919">
      <path
         d="m 1173.2,2622.469 c -0.01,-2.304 1.511,-4.608 4.555,-6.364 v 0 c 6.056,-3.494 15.826,-3.494 21.846,0 v 0 c 2.981,1.737 4.476,4 4.48,6.273 v 0 l 0.01,1.527 c -0.01,-2.272 -1.498,-4.54 -4.483,-6.272 v 0 c -6.019,-3.501 -15.785,-3.501 -21.844,0 v 0 c -3.039,1.754 -4.559,4.059 -4.553,6.359 v 0 l -0.01,-1.523 z"
         id="path71917"
         inkscape:connector-curvature="0" />
    </clipPath>
    <clipPath
       clipPathUnits="userSpaceOnUse"
       id="clipPath71899">
      <path
         d="M 0,3189 H 2006.732 V 0 H 0 Z"
         id="path71897"
         inkscape:connector-curvature="0" />
    </clipPath>
    <clipPath
       clipPathUnits="userSpaceOnUse"
       id="clipPath71887">
      <path
         d="m 1177.626,2617.528 c 0,-1.642 1.081,-3.285 3.248,-4.538 v 0 c 4.323,-2.497 11.29,-2.497 15.584,0 v 0 c 2.131,1.238 3.195,2.854 3.199,4.475 v 0 1.089 c -0.01,-1.618 -1.069,-3.237 -3.2,-4.477 v 0 c -4.291,-2.494 -11.259,-2.494 -15.585,0 v 0 c -2.167,1.255 -3.252,2.895 -3.249,4.539 v 0 l -10e-4,-1.088 z"
         id="path71885"
         inkscape:connector-curvature="0" />
    </clipPath>
    <clipPath
       clipPathUnits="userSpaceOnUse"
       id="clipPath71871">
      <path
         d="M 0,3189 H 2006.732 V 0 H 0 Z"
         id="path71869"
         inkscape:connector-curvature="0" />
    </clipPath>
    <clipPath
       clipPathUnits="userSpaceOnUse"
       id="clipPath71859">
      <path
         d="m 1193.538,2588.494 c 0,0.041 0,0.082 0,0.124 v 0 c -10e-4,-0.036 0,-0.078 0,-0.124 m -7.681,-2.925 c 1.411,-0.864 3.477,-1.004 5.137,-0.343 v 0 c 0.539,0.213 1.301,0.622 1.861,1.372 v 0 c 0.585,0.776 0.665,1.504 0.683,1.896 v 0 c -0.051,-0.686 -0.54,-1.36 -1.463,-1.872 v 0 c -1.897,-1.059 -4.906,-1.028 -6.727,0.065 v 0 c -0.883,0.531 -1.322,1.218 -1.328,1.902 v 0 c 0.01,-0.71 0.248,-2.046 1.837,-3.02"
         id="path71857"
         inkscape:connector-curvature="0" />
    </clipPath>
    <clipPath
       clipPathUnits="userSpaceOnUse"
       id="clipPath71843">
      <path
         d="M 0,3189 H 2006.732 V 0 H 0 Z"
         id="path71841"
         inkscape:connector-curvature="0" />
    </clipPath>
    <clipPath
       clipPathUnits="userSpaceOnUse"
       id="clipPath71831">
      <path
         d="m 1192.537,2544.685 c -2.095,-1.165 -5.421,-1.133 -7.428,0.075 v 0 c -0.974,0.588 -1.459,1.344 -1.461,2.1 v 0 l 0.068,-23.266 c 0,-0.756 0.486,-1.512 1.457,-2.1 v 0 c 2.011,-1.208 5.336,-1.242 7.429,-0.075 v 0 c 1.076,0.602 1.619,1.403 1.617,2.205 v 0 l -0.068,23.266 c 0,-0.802 -0.538,-1.604 -1.614,-2.205"
         id="path71829"
         inkscape:connector-curvature="0" />
    </clipPath>
    <clipPath
       clipPathUnits="userSpaceOnUse"
       id="clipPath71803">
      <path
         d="m 1177.58,2507.07 h 33.66 v -19.5 h -33.66 z"
         id="path71801"
         inkscape:connector-curvature="0" />
    </clipPath>
    <clipPath
       clipPathUnits="userSpaceOnUse"
       id="clipPath72971">
      <path
         d="m 1333.336,2537.853 c 0.226,-0.128 0.57,-0.237 0.764,-0.244 v 0 l 0.666,1.847 c -0.198,0.01 -0.539,0.115 -0.765,0.245 v 0 z"
         id="path72969"
         inkscape:connector-curvature="0" />
    </clipPath>
    <clipPath
       clipPathUnits="userSpaceOnUse"
       id="clipPath72939">
      <path
         d="M 0,3189 H 2006.732 V 0 H 0 Z"
         id="path72937"
         inkscape:connector-curvature="0" />
    </clipPath>
    <clipPath
       clipPathUnits="userSpaceOnUse"
       id="clipPath72927">
      <path
         d="m 1337.811,2539.356 -0.663,-1.845 c 0.076,0 0.121,0.011 0.131,0.037 v 0 l 0.664,1.847 c -0.01,-0.025 -0.055,-0.039 -0.132,-0.039"
         id="path72925"
         inkscape:connector-curvature="0" />
    </clipPath>
    <clipPath
       clipPathUnits="userSpaceOnUse"
       id="clipPath72915">
      <path
         d="M 0,3189 H 2006.732 V 0 H 0 Z"
         id="path72913"
         inkscape:connector-curvature="0" />
    </clipPath>
    <clipPath
       clipPathUnits="userSpaceOnUse"
       id="clipPath72903">
      <path
         d="m 1327.639,2541.162 c -0.015,-0.039 0.047,-0.104 0.183,-0.183 v 0 l 0.665,1.85 c -0.137,0.074 -0.199,0.142 -0.184,0.179 v 0 z"
         id="path72901"
         inkscape:connector-curvature="0" />
    </clipPath>
    <clipPath
       clipPathUnits="userSpaceOnUse"
       id="clipPath71763">
      <path
         d="m 1276.547,2635.899 c 12.895,-7.445 23.349,-25.554 23.309,-40.369 v 0 l 2.855,1.658 c 0.042,14.82 -10.414,32.927 -23.31,40.373 v 0 z"
         id="path71761"
         inkscape:connector-curvature="0" />
    </clipPath>
    <clipPath
       clipPathUnits="userSpaceOnUse"
       id="clipPath71671">
      <path
         d="m 1294.47,2475.93 h 32.22 v -16.22 h -32.22 z"
         id="path71669"
         inkscape:connector-curvature="0" />
    </clipPath>
    <clipPath
       clipPathUnits="userSpaceOnUse"
       id="clipPath73155">
      <path
         d="m 1416.593,2489.377 c 0.227,-0.127 0.567,-0.232 0.762,-0.241 v 0 l 0.664,1.847 c -0.194,0.01 -0.535,0.113 -0.762,0.245 v 0 z"
         id="path73153"
         inkscape:connector-curvature="0" />
    </clipPath>
    <clipPath
       clipPathUnits="userSpaceOnUse"
       id="clipPath73123">
      <path
         d="M 0,3189 H 2006.732 V 0 H 0 Z"
         id="path73121"
         inkscape:connector-curvature="0" />
    </clipPath>
    <clipPath
       clipPathUnits="userSpaceOnUse"
       id="clipPath73111">
      <path
         d="m 1421.067,2490.885 -0.663,-1.847 c 0.078,0 0.124,0.011 0.132,0.037 v 0 l 0.663,1.848 c -0.01,-0.026 -0.053,-0.04 -0.132,-0.038"
         id="path73109"
         inkscape:connector-curvature="0" />
    </clipPath>
    <clipPath
       clipPathUnits="userSpaceOnUse"
       id="clipPath73099">
      <path
         d="M 0,3189 H 2006.732 V 0 H 0 Z"
         id="path73097"
         inkscape:connector-curvature="0" />
    </clipPath>
    <clipPath
       clipPathUnits="userSpaceOnUse"
       id="clipPath73087">
      <path
         d="m 1410.896,2492.688 c -0.016,-0.038 0.047,-0.103 0.183,-0.179 v 0 l 0.663,1.847 c -0.135,0.074 -0.198,0.142 -0.185,0.178 v 0 z"
         id="path73085"
         inkscape:connector-curvature="0" />
    </clipPath>
    <clipPath
       clipPathUnits="userSpaceOnUse"
       id="clipPath73075">
      <path
         d="M 0,3189 H 2006.732 V 0 H 0 Z"
         id="path73073"
         inkscape:connector-curvature="0" />
    </clipPath>
    <clipPath
       clipPathUnits="userSpaceOnUse"
       id="clipPath73063">
      <path
         d="m 1372.721,2514.85 c 0.226,-0.128 0.568,-0.236 0.764,-0.243 v 0 l 0.661,1.848 c -0.194,0.01 -0.535,0.112 -0.762,0.243 v 0 z"
         id="path73061"
         inkscape:connector-curvature="0" />
    </clipPath>
    <clipPath
       clipPathUnits="userSpaceOnUse"
       id="clipPath73031">
      <path
         d="M 0,3189 H 2006.732 V 0 H 0 Z"
         id="path73029"
         inkscape:connector-curvature="0" />
    </clipPath>
    <clipPath
       clipPathUnits="userSpaceOnUse"
       id="clipPath73019">
      <path
         d="m 1377.195,2516.356 -0.664,-1.847 c 0.078,0 0.123,0.011 0.133,0.037 v 0 l 0.662,1.847 c -0.01,-0.026 -0.052,-0.041 -0.131,-0.037"
         id="path73017"
         inkscape:connector-curvature="0" />
    </clipPath>
    <clipPath
       clipPathUnits="userSpaceOnUse"
       id="clipPath73007">
      <path
         d="M 0,3189 H 2006.732 V 0 H 0 Z"
         id="path73005"
         inkscape:connector-curvature="0" />
    </clipPath>
    <clipPath
       clipPathUnits="userSpaceOnUse"
       id="clipPath72995">
      <path
         d="m 1367.022,2518.16 c -0.013,-0.039 0.049,-0.104 0.186,-0.183 v 0 l 0.662,1.847 c -0.136,0.077 -0.198,0.145 -0.184,0.184 v 0 z"
         id="path72993"
         inkscape:connector-curvature="0" />
    </clipPath>
    <clipPath
       clipPathUnits="userSpaceOnUse"
       id="clipPath72983">
      <path
         d="M 0,3189 H 2006.732 V 0 H 0 Z"
         id="path72981"
         inkscape:connector-curvature="0" />
    </clipPath>
    <clipPath
       clipPathUnits="userSpaceOnUse"
       id="clipPath72767">
      <path
         d="m 1383.89,2498.5 h 2.68 v -17.4 h -2.68 z"
         id="path72765"
         inkscape:connector-curvature="0" />
    </clipPath>
    <clipPath
       clipPathUnits="userSpaceOnUse"
       id="clipPath72731">
      <path
         d="m 1386.08,2532.79 h 123.22 v -69.66 h -123.22 z"
         id="path72729"
         inkscape:connector-curvature="0" />
    </clipPath>
    <clipPath
       clipPathUnits="userSpaceOnUse"
       id="clipPath72487">
      <path
         d="m 1508.396,2571.276 c -1.262,-0.735 -1.891,-1.693 -1.895,-2.656 v 0 l -0.045,-14.95 c 0,0.963 0.634,1.924 1.896,2.656 v 0 c 2.542,1.475 6.685,1.475 9.241,0 v 0 c 1.285,-0.741 1.927,-1.719 1.925,-2.693 v 0 l 0.041,14.947 c 0.01,0.977 -0.639,1.952 -1.924,2.696 v 0 c -1.278,0.737 -2.953,1.106 -4.626,1.106 v 0 c -1.673,0 -3.344,-0.369 -4.613,-1.106"
         id="path72485"
         inkscape:connector-curvature="0" />
    </clipPath>
    <clipPath
       clipPathUnits="userSpaceOnUse"
       id="clipPath72459">
      <path
         d="M 0,3189 H 2006.732 V 0 H 0 Z"
         id="path72457"
         inkscape:connector-curvature="0" />
    </clipPath>
    <clipPath
       clipPathUnits="userSpaceOnUse"
       id="clipPath72447">
      <path
         d="m 1612.267,2568.964 1.487,-0.865 c 8.078,4.664 15.41,5.092 20.704,2.013 v 0 c -0.495,0.288 -0.991,0.578 -1.485,0.865 v 0 c -2.228,1.295 -4.816,1.97 -7.668,1.97 v 0 c -3.928,0 -8.358,-1.28 -13.038,-3.983"
         id="path72445"
         inkscape:connector-curvature="0" />
    </clipPath>
    <clipPath
       clipPathUnits="userSpaceOnUse"
       id="clipPath72251">
      <path
         d="M 0,3189 H 2006.732 V 0 H 0 Z"
         id="path72249"
         inkscape:connector-curvature="0" />
    </clipPath>
    <clipPath
       clipPathUnits="userSpaceOnUse"
       id="clipPath72271">
      <path
         d="M 1531.21,2627.09 H 1639.1 V 2475.75 H 1531.21 Z"
         id="path72269"
         inkscape:connector-curvature="0" />
    </clipPath>
    <clipPath
       clipPathUnits="userSpaceOnUse"
       id="clipPath72287">
      <path
         d="m 1472.92,2632.38 h 160.59 v -85.06 h -160.59 z"
         id="path72285"
         inkscape:connector-curvature="0" />
    </clipPath>
    <clipPath
       clipPathUnits="userSpaceOnUse"
       id="clipPath72303">
      <path
         d="m 1575.91,2571.87 h 66.18 v -96.12 h -66.18 z"
         id="path72301"
         inkscape:connector-curvature="0" />
    </clipPath>
    <clipPath
       clipPathUnits="userSpaceOnUse"
       id="clipPath72423">
      <path
         d="m 1614.22,2570.07 h 27.01 v -106.23 h -27.01 z"
         id="path72421"
         inkscape:connector-curvature="0" />
    </clipPath>
    <clipPath
       clipPathUnits="userSpaceOnUse"
       id="clipPath72239">
      <path
         d="m 1507.015,2629.47 1.488,-0.864 c 8.076,4.665 15.406,5.09 20.704,2.014 v 0 c -0.495,0.288 -0.993,0.575 -1.488,0.863 v 0 c -2.228,1.295 -4.814,1.97 -7.666,1.97 v 0 c -3.928,-10e-4 -8.358,-1.281 -13.038,-3.983"
         id="path72237"
         inkscape:connector-curvature="0" />
    </clipPath>
    <clipPath
       clipPathUnits="userSpaceOnUse"
       id="clipPath72227">
      <path
         d="m 1532.328,2610.58 1.487,-0.864 c -0.022,7.937 -2.832,13.527 -7.362,16.159 v 0 c -0.496,0.29 -0.994,0.577 -1.488,0.865 v 0 c 4.528,-2.634 7.341,-8.222 7.363,-16.16"
         id="path72225"
         inkscape:connector-curvature="0" />
    </clipPath>
    <clipPath
       clipPathUnits="userSpaceOnUse"
       id="clipPath72195">
      <path
         d="m 1509.25,2629.17 h 25.89 v -104.55 h -25.89 z"
         id="path72193"
         inkscape:connector-curvature="0" />
    </clipPath>
    <clipPath
       clipPathUnits="userSpaceOnUse"
       id="clipPath71967">
      <path
         d="m 1537.68,2555.25 h 147.82 v -95.16 h -147.82 z"
         id="path71965"
         inkscape:connector-curvature="0" />
    </clipPath>
    <clipPath
       clipPathUnits="userSpaceOnUse"
       id="clipPath73839">
      <path
         d="m 1739.424,2572.398 c 0.482,-0.185 1.125,-0.478 1.937,-0.946 v 0 c 1.005,-0.579 1.735,-1.27 2.201,-2.024 v 0 l 0.742,0.438 c -0.463,0.75 -1.196,1.436 -2.197,2.019 v 0 c -0.81,0.469 -1.454,0.759 -1.94,0.947 v 0 z"
         id="path73837"
         inkscape:connector-curvature="0" />
    </clipPath>
    <clipPath
       clipPathUnits="userSpaceOnUse"
       id="clipPath73827">
      <path
         d="M 0,3189 H 2006.732 V 0 H 0 Z"
         id="path73825"
         inkscape:connector-curvature="0" />
    </clipPath>
    <clipPath
       clipPathUnits="userSpaceOnUse"
       id="clipPath73815">
      <path
         d="m 1740.803,2571.188 c -0.126,-0.073 -0.248,-0.143 -0.371,-0.216 v 0 c 0.172,-0.046 0.508,-0.204 0.953,-0.457 v 0 l 0.746,0.431 c -0.445,0.255 -0.781,0.411 -0.953,0.458 v 0 c -0.124,-0.07 -0.25,-0.144 -0.375,-0.216"
         id="path73813"
         inkscape:connector-curvature="0" />
    </clipPath>
    <clipPath
       clipPathUnits="userSpaceOnUse"
       id="clipPath73803">
      <path
         d="m 1744.301,2565.965 c 0.012,0 0.024,0.011 0.033,0.016 v 0 c 0.012,0.01 0.025,0.018 0.043,0.029 v 0 z m -0.01,0 c -0.235,-0.138 -0.467,-0.274 -0.705,-0.412 v 0 c 0.017,0.01 0.029,0.013 0.044,0.024 v 0 l 0.669,0.391 c 0,0 -0.01,0 -0.01,0"
         id="path73801"
         inkscape:connector-curvature="0" />
    </clipPath>
    <clipPath
       clipPathUnits="userSpaceOnUse"
       id="clipPath73787">
      <path
         d="m 1743.562,2569.428 c 0.427,-0.673 0.684,-1.477 0.678,-2.279 v 0 c 0,-0.813 -0.215,-1.336 -0.608,-1.575 v 0 l 0.745,0.436 c 0.394,0.239 0.607,0.754 0.61,1.575 v 0 c 0,0.8 -0.252,1.601 -0.683,2.281 v 0 z"
         id="path73785"
         inkscape:connector-curvature="0" />
    </clipPath>
    <clipPath
       clipPathUnits="userSpaceOnUse"
       id="clipPath73767">
      <path
         d="m 1741.385,2570.515 c 0.33,-0.192 0.627,-0.414 0.877,-0.66 v 0 c 0.045,0.028 0.09,0.052 0.135,0.079 v 0 c -0.045,-0.027 -0.09,-0.051 -0.135,-0.079 v 0 c 0.607,-0.591 0.967,-1.338 0.967,-2.172 v 0 c 0,-0.562 -0.153,-0.919 -0.433,-1.083 v 0 l 0.748,0.434 c 0.278,0.158 0.429,0.523 0.429,1.078 v 0 c 0,0.839 -0.357,1.581 -0.964,2.179 v 0 c -0.256,0.244 -0.548,0.464 -0.878,0.655 v 0 z"
         id="path73765"
         inkscape:connector-curvature="0" />
    </clipPath>
    <clipPath
       clipPathUnits="userSpaceOnUse"
       id="clipPath73755">
      <path
         d="m 1740.42,2566.517 c 0.227,-0.203 0.51,-0.374 0.812,-0.547 v 0 c 0.959,-0.558 1.82,-0.731 2.356,-0.42 v 0 c 0.246,0.142 0.498,0.288 0.746,0.431 v 0 c -0.541,-0.313 -1.399,-0.137 -2.355,0.421 v 0 c -0.306,0.177 -0.583,0.348 -0.819,0.549 v 0 z"
         id="path73753"
         inkscape:connector-curvature="0" />
    </clipPath>
    <clipPath
       clipPathUnits="userSpaceOnUse"
       id="clipPath73743">
      <path
         d="M 0,3189 H 2006.732 V 0 H 0 Z"
         id="path73741"
         inkscape:connector-curvature="0" />
    </clipPath>
    <clipPath
       clipPathUnits="userSpaceOnUse"
       id="clipPath73731">
      <path
         d="m 1741.256,2566.893 c 0.673,-0.391 1.201,-0.489 1.54,-0.293 v 0 c 0.249,0.146 0.499,0.293 0.748,0.434 v 0 c -0.34,-0.196 -0.87,-0.098 -1.542,0.289 v 0 z"
         id="path73729"
         inkscape:connector-curvature="0" />
    </clipPath>
    <clipPath
       clipPathUnits="userSpaceOnUse"
       id="clipPath73719">
      <path
         d="M 0,3189 H 2006.732 V 0 H 0 Z"
         id="path73717"
         inkscape:connector-curvature="0" />
    </clipPath>
    <clipPath
       clipPathUnits="userSpaceOnUse"
       id="clipPath73707">
      <path
         d="m 1740.422,2567.469 c 0.217,-0.198 0.497,-0.386 0.834,-0.576 v 0 l 0.746,0.43 c -0.336,0.194 -0.615,0.384 -0.838,0.579 v 0 z"
         id="path73705"
         inkscape:connector-curvature="0" />
    </clipPath>
    <clipPath
       clipPathUnits="userSpaceOnUse"
       id="clipPath73683">
      <path
         d="M 0,3189 H 2006.732 V 0 H 0 Z"
         id="path73681"
         inkscape:connector-curvature="0" />
    </clipPath>
    <clipPath
       clipPathUnits="userSpaceOnUse"
       id="clipPath73663">
      <path
         d="m 1734.574,2575.452 c 2.14,-1.238 3.521,-3.923 3.512,-6.597 v 0 c 0,-1.591 -0.434,-2.549 -1.127,-2.947 v 0 l 0.747,0.431 c 0.688,0.402 1.124,1.357 1.13,2.949 v 0 c 0,2.672 -1.377,5.358 -3.52,6.596 v 0 z"
         id="path73661"
         inkscape:connector-curvature="0" />
    </clipPath>
    <clipPath
       clipPathUnits="userSpaceOnUse"
       id="clipPath73647">
      <path
         d="m 1735.631,2573.567 c 0.934,-1.152 1.386,-2.805 1.384,-4.148 v 0 c 0,-0.673 -0.098,-1.252 -0.29,-1.692 v 0 c -0.151,-0.351 -0.363,-0.615 -0.629,-0.765 v 0 l 0.748,0.426 c 0.262,0.156 0.476,0.417 0.625,0.77 v 0 c 0.192,0.44 0.292,1.021 0.294,1.695 v 0 c 0,1.344 -0.452,2.996 -1.389,4.148 v 0 c -0.25,-0.143 -0.496,-0.285 -0.743,-0.434 m 1.33,-5.703 c 0,0 0,0 0,0 m -0.181,-0.102 c 0,0 0,0 0.01,10e-4 v 0 c 0,0 -0.01,-0.01 -0.011,-0.01 v 0 c 0,0 0,0 0,0.01"
         id="path73645"
         inkscape:connector-curvature="0" />
    </clipPath>
    <clipPath
       clipPathUnits="userSpaceOnUse"
       id="clipPath73635">
      <path
         d="m 1732.818,2576.162 -0.742,-0.433 c 0.642,0.377 1.507,0.292 2.498,-0.277 v 0 l 0.742,0.432 c -0.585,0.339 -1.13,0.506 -1.612,0.506 v 0 c -0.327,0 -0.625,-0.077 -0.886,-0.228"
         id="path73633"
         inkscape:connector-curvature="0" />
    </clipPath>
    <clipPath
       clipPathUnits="userSpaceOnUse"
       id="clipPath73619">
      <path
         d="m 1734.53,2574.526 c 0.418,-0.242 0.786,-0.573 1.101,-0.959 v 0 c 0.247,0.149 0.493,0.291 0.743,0.434 v 0 c -0.316,0.388 -0.682,0.713 -1.102,0.957 v 0 c -0.222,-0.132 -0.523,-0.301 -0.742,-0.432"
         id="path73617"
         inkscape:connector-curvature="0" />
    </clipPath>
    <clipPath
       clipPathUnits="userSpaceOnUse"
       id="clipPath73607">
      <path
         d="m 1733.66,2575.136 c -0.212,-0.123 -0.495,-0.292 -0.713,-0.414 v 0 c 0.397,0.216 0.923,0.18 1.583,-0.196 v 0 l 0.742,0.432 c -0.391,0.225 -0.738,0.328 -1.039,0.328 v 0 c -0.214,0 -0.405,-0.053 -0.573,-0.15 m -0.739,-0.429 c 0.01,0.01 0.017,0.01 0.026,0.015 v 0 c -0.01,-0.01 -0.017,-0.01 -0.026,-0.015"
         id="path73605"
         inkscape:connector-curvature="0" />
    </clipPath>
    <clipPath
       clipPathUnits="userSpaceOnUse"
       id="clipPath73595">
      <path
         d="M 0,3189 H 2006.732 V 0 H 0 Z"
         id="path73593"
         inkscape:connector-curvature="0" />
    </clipPath>
    <clipPath
       clipPathUnits="userSpaceOnUse"
       id="clipPath73575">
      <path
         d="m 1732.921,2574.707 c -0.608,-0.355 -0.918,-1.294 -0.921,-2.484 v 0 c -0.01,-1.926 0.9,-4.174 2.494,-5.097 v 0 l 0.748,0.435 c -1.6,0.919 -2.5,3.166 -2.495,5.094 v 0 c 10e-4,1.188 0.306,2.128 0.913,2.481 v 0 c -0.248,-0.146 -0.494,-0.289 -0.739,-0.429"
         id="path73573"
         inkscape:connector-curvature="0" />
    </clipPath>
    <clipPath
       clipPathUnits="userSpaceOnUse"
       id="clipPath73563">
      <path
         d="m 1732.076,2575.729 c -0.716,-0.416 -1.153,-1.399 -1.158,-2.909 v 0 c 0,-0.633 0.076,-1.262 0.22,-1.874 v 0 c 0.018,0.012 0.035,0.023 0.055,0.033 v 0 c -0.02,-0.01 -0.037,-0.021 -0.055,-0.033 v 0 c 0.012,-0.048 0.024,-0.097 0.035,-0.141 v 0 c 0.25,0.141 0.498,0.287 0.743,0.429 v 0 c -0.012,0.057 -0.023,0.105 -0.038,0.157 v 0 c -0.142,0.606 -0.215,1.231 -0.212,1.86 v 0 c 10e-4,1.51 0.441,2.498 1.152,2.911 v 0 z"
         id="path73561"
         inkscape:connector-curvature="0" />
    </clipPath>
    <clipPath
       clipPathUnits="userSpaceOnUse"
       id="clipPath73543">
      <path
         d="M 0,3189 H 2006.732 V 0 H 0 Z"
         id="path73541"
         inkscape:connector-curvature="0" />
    </clipPath>
    <clipPath
       clipPathUnits="userSpaceOnUse"
       id="clipPath73531">
      <path
         d="m 1734.432,2566.209 c 0.979,-0.558 1.869,-0.688 2.527,-0.301 v 0 l 0.747,0.431 c -0.661,-0.384 -1.551,-0.257 -2.53,0.305 v 0 c -0.219,-0.131 -0.519,-0.305 -0.744,-0.435"
         id="path73529"
         inkscape:connector-curvature="0" />
    </clipPath>
    <clipPath
       clipPathUnits="userSpaceOnUse"
       id="clipPath73519">
      <path
         d="m 1734.494,2567.126 c 0.654,-0.376 1.194,-0.403 1.602,-0.164 v 0 l 0.748,0.426 c -0.409,-0.234 -0.949,-0.206 -1.602,0.173 v 0 z"
         id="path73517"
         inkscape:connector-curvature="0" />
    </clipPath>
    <clipPath
       clipPathUnits="userSpaceOnUse"
       id="clipPath73499">
      <path
         d="M 0,3189 H 2006.732 V 0 H 0 Z"
         id="path73497"
         inkscape:connector-curvature="0" />
    </clipPath>
    <clipPath
       clipPathUnits="userSpaceOnUse"
       id="clipPath73479">
      <path
         d="m 1731.173,2570.805 c 0.502,-1.959 1.705,-3.696 3.259,-4.596 v 0 l 0.744,0.435 c -1.552,0.898 -2.755,2.629 -3.26,4.59 v 0 c -0.245,-0.142 -0.493,-0.288 -0.743,-0.429"
         id="path73477"
         inkscape:connector-curvature="0" />
    </clipPath>
    <clipPath
       clipPathUnits="userSpaceOnUse"
       id="clipPath73463">
      <path
         d="M 0,3189 H 2006.732 V 0 H 0 Z"
         id="path73461"
         inkscape:connector-curvature="0" />
    </clipPath>
    <clipPath
       clipPathUnits="userSpaceOnUse"
       id="clipPath73447">
      <path
         d="m 1722.489,2582.43 c 0.805,-0.466 1.388,-1.017 1.735,-1.448 v 0 l 0.745,0.436 c -0.348,0.428 -0.927,0.977 -1.734,1.443 v 0 z"
         id="path73445"
         inkscape:connector-curvature="0" />
    </clipPath>
    <clipPath
       clipPathUnits="userSpaceOnUse"
       id="clipPath73431">
      <path
         d="m 1723.739,2580.426 c 0.083,-0.085 0.15,-0.166 0.203,-0.23 v 0 l 0.74,0.431 c -0.047,0.069 -0.118,0.145 -0.196,0.235 v 0 c -0.253,-0.144 -0.498,-0.29 -0.747,-0.436"
         id="path73429"
         inkscape:connector-curvature="0" />
    </clipPath>
    <clipPath
       clipPathUnits="userSpaceOnUse"
       id="clipPath73419">
      <path
         d="m 1722.036,2582.116 -0.745,-0.431 c 0.24,0.138 0.613,0.115 1.162,-0.203 v 0 c 0.557,-0.322 1.002,-0.742 1.286,-1.056 v 0 c 0.249,0.146 0.494,0.292 0.747,0.436 v 0 c -0.288,0.315 -0.732,0.734 -1.29,1.052 v 0 c -0.344,0.2 -0.619,0.284 -0.836,0.284 v 0 c -0.128,0 -0.236,-0.029 -0.324,-0.082"
         id="path73417"
         inkscape:connector-curvature="0" />
    </clipPath>
    <clipPath
       clipPathUnits="userSpaceOnUse"
       id="clipPath73407">
      <path
         d="m 1721.266,2583.16 -0.745,-0.429 c 0.449,0.261 1.133,0.181 1.968,-0.301 v 0 l 0.746,0.431 c -0.526,0.302 -0.993,0.446 -1.378,0.446 v 0 c -0.226,0 -0.425,-0.05 -0.591,-0.147"
         id="path73405"
         inkscape:connector-curvature="0" />
    </clipPath>
    <clipPath
       clipPathUnits="userSpaceOnUse"
       id="clipPath73391">
      <path
         d="M 0,3189 H 2006.732 V 0 H 0 Z"
         id="path73389"
         inkscape:connector-curvature="0" />
    </clipPath>
    <clipPath
       clipPathUnits="userSpaceOnUse"
       id="clipPath73363">
      <path
         d="m 1721.291,2581.685 c -0.222,-0.128 -0.314,-0.401 -0.317,-0.703 v 0 c 0,-0.84 0.473,-1.525 1.555,-2.634 v 0 c 1.32,-1.351 1.997,-2.482 1.993,-3.805 v 0 c 0,-0.653 -0.202,-1.15 -0.604,-1.383 v 0 c 0.249,0.144 0.497,0.29 0.745,0.431 v 0 c 0.399,0.235 0.6,0.735 0.604,1.386 v 0 c 0,1.323 -0.672,2.451 -1.996,3.802 v 0 c -1.081,1.109 -1.557,1.797 -1.552,2.639 v 0 c 0,0.3 0.097,0.573 0.317,0.698 v 0 z"
         id="path73361"
         inkscape:connector-curvature="0" />
    </clipPath>
    <clipPath
       clipPathUnits="userSpaceOnUse"
       id="clipPath73351">
      <path
         d="M 0,3189 H 2006.732 V 0 H 0 Z"
         id="path73349"
         inkscape:connector-curvature="0" />
    </clipPath>
    <clipPath
       clipPathUnits="userSpaceOnUse"
       id="clipPath73331">
      <path
         d="m 1720.521,2582.731 c -0.162,-0.094 -0.292,-0.233 -0.391,-0.416 v 0 c 0.2,0.118 0.394,0.23 0.596,0.344 v 0 c -0.202,-0.114 -0.396,-0.226 -0.596,-0.344 v 0 c -0.12,-0.23 -0.181,-0.518 -0.184,-0.872 v 0 c 0,-1.273 0.788,-2.49 2.067,-3.749 v 0 l 0.745,0.433 c -0.962,0.945 -1.642,1.868 -1.927,2.807 v 0 c -0.09,0.309 -0.138,0.625 -0.138,0.945 v 0 c 0,0.63 0.207,1.071 0.573,1.281 v 0 z m 0.205,-0.072 c 0,0 0,0 0,0 m 0.038,-1.64 -0.015,0.05 -0.011,0.047 -0.012,0.055 -0.01,0.052 -0.012,0.057 -0.01,0.052 -0.01,0.054 -0.01,0.052 v 0.057 0.055 l -0.01,0.057 v 0.049 0.053 0.048 0.048 -0.048 -0.048 -0.053 -0.049 l 0.01,-0.057 v -0.055 -0.057 l 0.01,-0.052 0.01,-0.054 0.01,-0.052 0.012,-0.057 0.01,-0.052 0.012,-0.055 0.011,-0.047 0.015,-0.05 0.016,-0.049 z m -0.125,0.756 c -0.018,0.01 -0.037,0.017 -0.067,0.017 v 0 c 0.03,0 0.049,-0.01 0.067,-0.017 m -0.127,0.01 c 0,0 0.01,0 0.01,0 v 0 c 0,0 -0.01,0 -0.01,0 v 0 c -0.079,-0.03 -0.141,-0.087 -0.215,-0.131 v 0 c 0.074,0.044 0.136,0.101 0.215,0.131 m 1.17,-2.623 -0.031,0.044 -0.035,0.045 -0.03,0.04 -0.035,0.046 -0.035,0.044 -0.035,0.049 -0.028,0.048 -0.033,0.046 -0.035,0.045 -0.028,0.046 -0.03,0.042 -0.032,0.047 -0.029,0.042 -0.024,0.043 -0.023,0.042 0.023,-0.042 0.024,-0.043 0.029,-0.042 0.032,-0.047 0.03,-0.042 0.028,-0.046 0.035,-0.045 0.033,-0.046 0.028,-0.048 0.035,-0.049 0.035,-0.044 0.035,-0.046 0.03,-0.04 0.035,-0.045 0.031,-0.044 0.032,-0.042 z m -0.566,-0.345 -0.034,0.044 -0.035,0.046 -0.031,0.046 -0.039,0.046 -0.032,0.048 -0.034,0.046 -0.036,0.047 -0.031,0.051 -0.034,0.045 -0.03,0.046 -0.031,0.05 -0.031,0.043 -0.025,0.044 -0.03,0.043 -0.024,0.042 0.024,-0.042 0.03,-0.043 0.025,-0.044 0.031,-0.043 0.031,-0.05 0.03,-0.046 0.034,-0.045 0.031,-0.051 0.036,-0.047 0.034,-0.046 0.032,-0.048 0.039,-0.046 0.031,-0.046 0.035,-0.046 0.034,-0.044 0.029,-0.04 z"
         id="path73329"
         inkscape:connector-curvature="0" />
    </clipPath>
    <clipPath
       clipPathUnits="userSpaceOnUse"
       id="clipPath73311">
      <path
         d="m 1722.013,2577.694 c 1.053,-1.079 1.474,-1.804 1.473,-2.646 v 0 c 0,-0.406 -0.123,-0.683 -0.356,-0.822 v 0 l 0.747,0.435 c 0.227,0.131 0.347,0.416 0.347,0.824 v 0 c 0.01,0.84 -0.41,1.564 -1.466,2.642 v 0 z"
         id="path73309"
         inkscape:connector-curvature="0" />
    </clipPath>
    <clipPath
       clipPathUnits="userSpaceOnUse"
       id="clipPath73299">
      <path
         d="m 1723.723,2573.481 c 0,0 -0.011,0 -0.03,-0.027 v 0 c -0.03,-0.022 -0.047,-0.041 -0.102,-0.05 v 0 c -0.025,0 -0.235,-0.039 -0.559,-0.046 v 0 c -0.457,-0.01 -0.885,0.055 -1.094,0.083 v 0 c 0.893,-0.482 1.551,-0.532 1.98,-0.281 v 0 l 0.745,0.431 c -0.241,-0.139 -0.553,-0.182 -0.94,-0.11"
         id="path73297"
         inkscape:connector-curvature="0" />
    </clipPath>
    <clipPath
       clipPathUnits="userSpaceOnUse"
       id="clipPath73283">
      <path
         d="m 1720.025,2576.095 c 0.455,-0.584 1.113,-1.233 1.814,-1.641 v 0 c 0.571,-0.329 1.011,-0.389 1.291,-0.228 v 0 l 0.747,0.435 c -0.283,-0.161 -0.725,-0.1 -1.294,0.229 v 0 c -0.697,0.405 -1.359,1.054 -1.81,1.632 v 0 z"
         id="path73281"
         inkscape:connector-curvature="0" />
    </clipPath>
    <clipPath
       clipPathUnits="userSpaceOnUse"
       id="clipPath73271">
      <path
         d="m 1721.768,2573.535 c 0.055,-0.035 0.111,-0.065 0.17,-0.094 v 0 c 0.209,-0.028 0.637,-0.092 1.094,-0.083 v 0 c 0.324,0.01 0.534,0.042 0.559,0.046 v 0 c 0.013,0 0.039,0.01 0.06,0.017 v 0 c 0.03,0.018 0.047,0.046 0.072,0.06 v 0 c -0.347,0.064 -0.746,0.219 -1.21,0.489 v 0 z"
         id="path73269"
         inkscape:connector-curvature="0" />
    </clipPath>
    <clipPath
       clipPathUnits="userSpaceOnUse"
       id="clipPath73255">
      <path
         d="m 1719.765,2575.264 c 0.421,-0.557 1.246,-1.291 2.003,-1.729 v 0 l 0.089,0.05 c 0.218,0.131 0.436,0.258 0.656,0.385 v 0 c -0.762,0.438 -1.582,1.168 -2.001,1.733 v 0 c -0.228,-0.133 -0.522,-0.304 -0.747,-0.439"
         id="path73253"
         inkscape:connector-curvature="0" />
    </clipPath>
    <clipPath
       clipPathUnits="userSpaceOnUse"
       id="clipPath73235">
      <path
         d="M 0,3189 H 2006.732 V 0 H 0 Z"
         id="path73233"
         inkscape:connector-curvature="0" />
    </clipPath>
    <clipPath
       clipPathUnits="userSpaceOnUse"
       id="clipPath73223">
      <path
         d="m 1730.642,2493.648 c 0,-0.259 0.172,-0.517 0.513,-0.713 v 0 c 0.673,-0.39 1.766,-0.39 2.437,0 v 0 c 0.335,0.196 0.502,0.447 0.502,0.702 v 0 l 0.026,70.787 c 0,-0.255 -0.171,-0.51 -0.5,-0.704 v 0 c -0.679,-0.39 -1.769,-0.39 -2.441,0 v 0 c -0.34,0.196 -0.511,0.453 -0.511,0.71 v 0 z"
         id="path73221"
         inkscape:connector-curvature="0" />
    </clipPath>
  </defs>
  <sodipodi:namedview
     id="base"
     pagecolor="#ffffff"
     bordercolor="#666666"
     borderopacity="1.0"
     inkscape:pageopacity="0.0"
     inkscape:pageshadow="2"
     inkscape:zoom="0.35"
     inkscape:cx="-864.01915"
     inkscape:cy="296.58039"
     inkscape:document-units="mm"
     inkscape:current-layer="layer1"
     showgrid="false"
     fit-margin-top="0"
     fit-margin-left="0"
     fit-margin-right="0"
     fit-margin-bottom="0"
     inkscape:window-width="1366"
     inkscape:window-height="716"
     inkscape:window-x="-8"
     inkscape:window-y="-8"
     inkscape:window-maximized="1" />
  <metadata
     id="metadata205603">
    <rdf:RDF>
      <cc:Work
         rdf:about="">
        <dc:format>image/svg+xml</dc:format>
        <dc:type
           rdf:resource="http://purl.org/dc/dcmitype/StillImage" />
        <dc:title></dc:title>
      </cc:Work>
    </rdf:RDF>
  </metadata>
  <g
     inkscape:label="Layer 1"
     inkscape:groupmode="layer"
     id="layer1"
     transform="translate(-151.11996,-185.97233)">
    <g
       id="g73201"
       transform="matrix(0.35277777,0,0,-0.35277777,169.66104,220.83425)">
      <path
         d="m 0,0 -0.011,-3.118 -26.187,-15.22 0.008,3.12 z"
         style="fill:#7b9f42;fill-opacity:1;fill-rule:nonzero;stroke:none"
         id="path73203"
         inkscape:connector-curvature="0" />
    </g>
    <g
       id="g73205"
       transform="matrix(0.35277777,0,0,-0.35277777,160.42165,226.20289)">
      <path
         d="m 0,0 -0.008,-3.12 -26.359,15.218 0.008,3.118 z"
         style="fill:#8aaf4a;fill-opacity:1;fill-rule:nonzero;stroke:none"
         id="path73207"
         inkscape:connector-curvature="0" />
    </g>
    <g
       id="g73209"
       transform="matrix(0.35277777,0,0,-0.35277777,169.66104,220.83425)">
      <path
         d="M 0,0 -26.19,-15.218 -52.55,-0.002 -26.359,15.22 Z"
         style="fill:#9fce55;fill-opacity:1;fill-rule:nonzero;stroke:none"
         id="path73211"
         inkscape:connector-curvature="0" />
    </g>
    <g
       id="g73213"
       transform="matrix(0.35277777,0,0,-0.35277777,161.00453,195.87092)">
      <path
         d="m 0,0 -0.026,-70.787 c 0,-0.255 -0.167,-0.505 -0.502,-0.701 -0.671,-0.39 -1.764,-0.39 -2.438,0 -0.34,0.196 -0.512,0.453 -0.512,0.712 l 0.026,70.782 c 0,-0.256 0.172,-0.513 0.511,-0.71 0.672,-0.39 1.762,-0.39 2.441,0 C -0.171,-0.51 0,-0.255 0,0"
         style="fill:#eeeeee;fill-opacity:1;fill-rule:nonzero;stroke:none"
         id="path73215"
         inkscape:connector-curvature="0" />
    </g>
    <g
       id="g73217"
       transform="matrix(0.35277777,0,0,-0.35277777,-450.7545,1100.5426)">
      <g
         id="g73219"
         clip-path="url(#clipPath73223)">
        <g
           id="g73225"
           transform="translate(1734.1201,2564.4238)">
          <path
             d="m 0,0 -0.026,-70.787 c 0,-0.255 -0.167,-0.505 -0.502,-0.701 -0.671,-0.39 -1.764,-0.39 -2.438,0 -0.34,0.196 -0.512,0.453 -0.512,0.712 l 0.026,70.782 c 0,-0.256 0.172,-0.513 0.511,-0.71 0.672,-0.39 1.762,-0.39 2.441,0 C -0.171,-0.51 0,-0.255 0,0"
             style="fill:#eeeeee;fill-opacity:1;fill-rule:nonzero;stroke:none"
             id="path73227"
             inkscape:connector-curvature="0" />
        </g>
      </g>
    </g>
    <g
       id="g73229"
       transform="matrix(0.35277777,0,0,-0.35277777,-450.7545,1100.5426)">
      <g
         id="g73231"
         clip-path="url(#clipPath73235)">
        <g
           id="g73237"
           transform="translate(1733.6074,2565.1294)">
          <path
             d="m 0,0 c 0.677,-0.387 0.677,-1.017 0.013,-1.409 -0.679,-0.39 -1.769,-0.39 -2.442,0 C -3.105,-1.017 -3.107,-0.387 -2.436,0 -1.77,0.392 -0.675,0.392 0,0"
             style="fill:#ffffff;fill-opacity:1;fill-rule:nonzero;stroke:none"
             id="path73239"
             inkscape:connector-curvature="0" />
        </g>
        <g
           id="g73241"
           transform="translate(1718.7451,2573.6157)">
          <path
             d="M 0,0 0.739,0.432 8.475,-12.965 7.736,-13.399 Z"
             style="fill:#ffffff;fill-opacity:1;fill-rule:nonzero;stroke:none"
             id="path73243"
             inkscape:connector-curvature="0" />
        </g>
        <g
           id="g73245"
           transform="translate(1720.0254,2576.0952)">
          <path
             d="M 0,0 0.748,0.426 0.486,-0.392 -0.261,-0.831 Z"
             style="fill:#982c2c;fill-opacity:1;fill-rule:nonzero;stroke:none"
             id="path73247"
             inkscape:connector-curvature="0" />
        </g>
      </g>
    </g>
    <g
       id="g73249"
       transform="matrix(0.35277777,0,0,-0.35277777,-450.7545,1100.5426)">
      <g
         id="g73251"
         clip-path="url(#clipPath73255)">
        <g
           id="g73257"
           transform="translate(1719.7646,2575.2646)">
          <path
             d="M 0,0 0.747,0.438 C 0.808,0.351 0.88,0.262 0.962,0.172 L 0.216,-0.259 C 0.139,-0.169 0.064,-0.083 0,0"
             style="fill:#fbb5b5;fill-opacity:1;fill-rule:nonzero;stroke:none"
             id="path73259"
             inkscape:connector-curvature="0" />
        </g>
        <g
           id="g73261"
           transform="translate(1719.9805,2575.0054)">
          <path
             d="m 0,0 0.746,0.432 c 0.45,-0.513 1.14,-1.096 1.786,-1.467 L 1.788,-1.471 C 1.141,-1.098 0.452,-0.516 0,0"
             style="fill:#f44747;fill-opacity:1;fill-rule:nonzero;stroke:none"
             id="path73263"
             inkscape:connector-curvature="0" />
        </g>
      </g>
    </g>
    <g
       id="g73265"
       transform="matrix(0.35277777,0,0,-0.35277777,-450.7545,1100.5426)">
      <g
         id="g73267"
         clip-path="url(#clipPath73271)">
        <g
           id="g73273"
           transform="translate(1721.7686,2573.5347)">
          <path
             d="M 0,0 0.744,0.436 C 1.726,-0.132 2.438,-0.207 2.895,0.057 L 2.149,-0.375 C 1.692,-0.636 0.979,-0.566 0,0"
             style="fill:#f44747;fill-opacity:1;fill-rule:nonzero;stroke:none"
             id="path73275"
             inkscape:connector-curvature="0" />
        </g>
      </g>
    </g>
    <g
       id="g73277"
       transform="matrix(0.35277777,0,0,-0.35277777,-450.7545,1100.5426)">
      <g
         id="g73279"
         clip-path="url(#clipPath73283)">
        <g
           id="g73285"
           transform="translate(1720.0254,2576.0952)">
          <path
             d="M 0,0 0.748,0.426 C 0.83,0.322 0.922,0.211 1.021,0.104 L 0.276,-0.33 C 0.174,-0.221 0.086,-0.109 0,0"
             style="fill:#ffffff;fill-opacity:1;fill-rule:nonzero;stroke:none"
             id="path73287"
             inkscape:connector-curvature="0" />
        </g>
        <g
           id="g73289"
           transform="translate(1720.3018,2575.7656)">
          <path
             d="M 0,0 0.745,0.434 C 1.168,-0.054 1.712,-0.547 2.281,-0.875 2.85,-1.205 3.293,-1.266 3.575,-1.104 L 2.828,-1.54 C 2.549,-1.701 2.108,-1.64 1.538,-1.311 0.965,-0.98 0.425,-0.488 0,0"
             style="fill:#ffffff;fill-opacity:1;fill-rule:nonzero;stroke:none"
             id="path73291"
             inkscape:connector-curvature="0" />
        </g>
      </g>
    </g>
    <g
       id="g73293"
       transform="matrix(0.35277777,0,0,-0.35277777,-450.7545,1100.5426)">
      <g
         id="g73295"
         clip-path="url(#clipPath73299)">
        <g
           id="g73301"
           transform="translate(1721.7686,2573.5347)">
          <path
             d="M 0,0 0.744,0.436 C 1.726,-0.132 2.438,-0.207 2.895,0.057 L 2.149,-0.375 C 1.692,-0.636 0.979,-0.566 0,0"
             style="fill:#f44747;fill-opacity:1;fill-rule:nonzero;stroke:none"
             id="path73303"
             inkscape:connector-curvature="0" />
        </g>
      </g>
    </g>
    <g
       id="g73305"
       transform="matrix(0.35277777,0,0,-0.35277777,-450.7545,1100.5426)">
      <g
         id="g73307"
         clip-path="url(#clipPath73311)">
        <g
           id="g73313"
           transform="translate(1722.0137,2577.6938)">
          <path
             d="M 0,0 0.745,0.434 C 0.91,0.261 1.064,0.101 1.203,-0.054 L 0.453,-0.492 C 0.32,-0.333 0.164,-0.174 0,0"
             style="fill:#f44747;fill-opacity:1;fill-rule:nonzero;stroke:none"
             id="path73315"
             inkscape:connector-curvature="0" />
        </g>
        <g
           id="g73317"
           transform="translate(1722.4668,2577.2017)">
          <path
             d="M 0,0 0.75,0.438 C 1.128,0 1.392,-0.385 1.555,-0.747 L 0.812,-1.181 C 0.646,-0.814 0.384,-0.434 0,0"
             style="fill:#fbb5b5;fill-opacity:1;fill-rule:nonzero;stroke:none"
             id="path73319"
             inkscape:connector-curvature="0" />
        </g>
        <g
           id="g73321"
           transform="translate(1723.2783,2576.0205)">
          <path
             d="m 0,0 0.743,0.434 c 0.146,-0.322 0.209,-0.634 0.202,-0.97 0,-0.407 -0.12,-0.693 -0.346,-0.823 l -0.747,-0.436 c 0.233,0.139 0.352,0.416 0.355,0.823 C 0.207,-0.638 0.143,-0.327 0,0"
             style="fill:#f44747;fill-opacity:1;fill-rule:nonzero;stroke:none"
             id="path73323"
             inkscape:connector-curvature="0" />
        </g>
      </g>
    </g>
    <g
       id="g73325"
       transform="matrix(0.35277777,0,0,-0.35277777,-450.7545,1100.5426)">
      <g
         id="g73327"
         clip-path="url(#clipPath73331)">
        <g
           id="g73333"
           transform="translate(1720.5215,2582.731)">
          <path
             d="M 0,0 0.745,0.429 C 0.379,0.22 0.173,-0.222 0.172,-0.852 c -0.004,-0.481 0.11,-0.95 0.31,-1.42 l -0.739,-0.434 c -0.207,0.473 -0.318,0.941 -0.318,1.418 C -0.573,-0.651 -0.367,-0.213 0,0"
             style="fill:#f44747;fill-opacity:1;fill-rule:nonzero;stroke:none"
             id="path73335"
             inkscape:connector-curvature="0" />
        </g>
        <g
           id="g73337"
           transform="translate(1720.2646,2580.0254)">
          <path
             d="M 0,0 0.739,0.433 C 0.988,-0.122 1.375,-0.68 1.863,-1.235 L 1.118,-1.669 C 0.629,-1.109 0.245,-0.558 0,0"
             style="fill:#fbb5b5;fill-opacity:1;fill-rule:nonzero;stroke:none"
             id="path73339"
             inkscape:connector-curvature="0" />
        </g>
        <g
           id="g73341"
           transform="translate(1721.3828,2578.3564)">
          <path
             d="M 0,0 0.745,0.434 C 0.94,0.213 1.149,-0.007 1.376,-0.229 L 0.631,-0.663 C 0.404,-0.442 0.192,-0.22 0,0"
             style="fill:#f44747;fill-opacity:1;fill-rule:nonzero;stroke:none"
             id="path73343"
             inkscape:connector-curvature="0" />
        </g>
      </g>
    </g>
    <g
       id="g73345"
       transform="matrix(0.35277777,0,0,-0.35277777,-450.7545,1100.5426)">
      <g
         id="g73347"
         clip-path="url(#clipPath73351)">
        <g
           id="g73353"
           transform="translate(1726.4814,2560.2168)">
          <path
             d="M 0,0 0.738,0.434 11.715,-5.904 10.969,-6.333 Z"
             style="fill:#bdbdbd;fill-opacity:1;fill-rule:nonzero;stroke:none"
             id="path73355"
             inkscape:connector-curvature="0" />
        </g>
      </g>
    </g>
    <g
       id="g73357"
       transform="matrix(0.35277777,0,0,-0.35277777,-450.7545,1100.5426)">
      <g
         id="g73359"
         clip-path="url(#clipPath73363)">
        <g
           id="g73365"
           transform="translate(1721.291,2581.6851)">
          <path
             d="M 0,0 0.745,0.432 C 0.525,0.306 0.428,0.033 0.428,-0.268 0.425,-0.568 0.486,-0.852 0.613,-1.137 l -0.746,-0.436 c -0.125,0.29 -0.186,0.571 -0.184,0.87 C -0.313,-0.4 -0.222,-0.128 0,0"
             style="fill:#ffffff;fill-opacity:1;fill-rule:nonzero;stroke:none"
             id="path73367"
             inkscape:connector-curvature="0" />
        </g>
        <g
           id="g73369"
           transform="translate(1721.1582,2580.1123)">
          <path
             d="M 0,0 0.746,0.436 C 0.904,0.078 1.169,-0.292 1.545,-0.721 L 0.802,-1.159 C 0.423,-0.728 0.157,-0.355 0,0"
             style="fill:#ffffff;fill-opacity:1;fill-rule:nonzero;stroke:none"
             id="path73371"
             inkscape:connector-curvature="0" />
        </g>
        <g
           id="g73373"
           transform="translate(1721.96,2578.9531)">
          <path
             d="M 0,0 0.743,0.438 C 0.908,0.247 1.1,0.042 1.312,-0.174 1.501,-0.364 1.673,-0.551 1.833,-0.734 L 1.09,-1.169 C 0.929,-0.982 0.753,-0.797 0.569,-0.605 0.357,-0.388 0.163,-0.187 0,0"
             style="fill:#ffffff;fill-opacity:1;fill-rule:nonzero;stroke:none"
             id="path73375"
             inkscape:connector-curvature="0" />
        </g>
        <g
           id="g73377"
           transform="translate(1723.0498,2577.7837)">
          <path
             d="M 0,0 0.743,0.436 C 1.256,-0.151 1.637,-0.7 1.882,-1.253 L 1.14,-1.688 C 0.893,-1.133 0.513,-0.582 0,0"
             style="fill:#ffffff;fill-opacity:1;fill-rule:nonzero;stroke:none"
             id="path73379"
             inkscape:connector-curvature="0" />
        </g>
        <g
           id="g73381"
           transform="translate(1724.1895,2576.0952)">
          <path
             d="M 0,0 0.742,0.436 C 0.967,-0.068 1.077,-0.575 1.077,-1.118 1.073,-1.77 0.872,-2.269 0.474,-2.503 l -0.745,-0.432 c 0.402,0.233 0.6,0.73 0.604,1.383 C 0.337,-1.009 0.224,-0.503 0,0"
             style="fill:#ffffff;fill-opacity:1;fill-rule:nonzero;stroke:none"
             id="path73383"
             inkscape:connector-curvature="0" />
        </g>
      </g>
    </g>
    <g
       id="g73385"
       transform="matrix(0.35277777,0,0,-0.35277777,-450.7545,1100.5426)">
      <g
         id="g73387"
         clip-path="url(#clipPath73391)">
        <g
           id="g73393"
           transform="translate(1718.7793,2586.2275)">
          <path
             d="M 0,0 0.74,0.432 0.705,-12.18 -0.034,-12.612 Z"
             style="fill:#a9a9a9;fill-opacity:1;fill-rule:nonzero;stroke:none"
             id="path73395"
             inkscape:connector-curvature="0" />
        </g>
        <g
           id="g73397"
           transform="translate(1727.3906,2570.4219)">
          <path
             d="M 0,0 0.744,0.431 1.771,-0.157 1.021,-0.591 Z"
             style="fill:#d23d3d;fill-opacity:1;fill-rule:nonzero;stroke:none"
             id="path73399"
             inkscape:connector-curvature="0" />
        </g>
      </g>
    </g>
    <g
       id="g73401"
       transform="matrix(0.35277777,0,0,-0.35277777,-450.7545,1100.5426)">
      <g
         id="g73403"
         clip-path="url(#clipPath73407)">
        <g
           id="g73409"
           transform="translate(1720.5215,2582.731)">
          <path
             d="M 0,0 0.745,0.429 C 1.192,0.69 1.877,0.61 2.714,0.131 L 1.968,-0.3 C 1.133,0.181 0.448,0.261 0,0"
             style="fill:#ffffff;fill-opacity:1;fill-rule:nonzero;stroke:none"
             id="path73411"
             inkscape:connector-curvature="0" />
        </g>
      </g>
    </g>
    <g
       id="g73413"
       transform="matrix(0.35277777,0,0,-0.35277777,-450.7545,1100.5426)">
      <g
         id="g73415"
         clip-path="url(#clipPath73419)">
        <g
           id="g73421"
           transform="translate(1721.291,2581.6851)">
          <path
             d="M 0,0 0.745,0.432 C 0.983,0.573 1.358,0.547 1.905,0.229 2.521,-0.122 2.99,-0.592 3.274,-0.915 L 2.531,-1.346 C 2.245,-1.021 1.773,-0.551 1.162,-0.203 0.613,0.116 0.24,0.138 0,0"
             style="fill:#f44747;fill-opacity:1;fill-rule:nonzero;stroke:none"
             id="path73423"
             inkscape:connector-curvature="0" />
        </g>
      </g>
    </g>
    <g
       id="g73425"
       transform="matrix(0.35277777,0,0,-0.35277777,-450.7545,1100.5426)">
      <g
         id="g73427"
         clip-path="url(#clipPath73431)">
        <g
           id="g73433"
           transform="translate(1721.291,2581.6851)">
          <path
             d="M 0,0 0.745,0.432 C 0.983,0.573 1.358,0.547 1.905,0.229 2.521,-0.122 2.99,-0.592 3.274,-0.915 L 2.531,-1.346 C 2.245,-1.021 1.773,-0.551 1.162,-0.203 0.613,0.116 0.24,0.138 0,0"
             style="fill:#f44747;fill-opacity:1;fill-rule:nonzero;stroke:none"
             id="path73435"
             inkscape:connector-curvature="0" />
        </g>
        <g
           id="g73437"
           transform="translate(1723.8223,2580.3389)">
          <path
             d="M 0,0 0.743,0.432 C 0.789,0.381 0.828,0.331 0.859,0.288 L 0.12,-0.144 C 0.085,-0.1 0.042,-0.05 0,0"
             style="fill:#fbb5b5;fill-opacity:1;fill-rule:nonzero;stroke:none"
             id="path73439"
             inkscape:connector-curvature="0" />
        </g>
      </g>
    </g>
    <g
       id="g73441"
       transform="matrix(0.35277777,0,0,-0.35277777,-450.7545,1100.5426)">
      <g
         id="g73443"
         clip-path="url(#clipPath73447)">
        <g
           id="g73449"
           transform="translate(1722.4893,2582.4307)">
          <path
             d="m 0,0 0.746,0.431 c 0.722,-0.416 1.259,-0.9 1.615,-1.305 L 1.618,-1.308 C 1.262,-0.902 0.722,-0.417 0,0"
             style="fill:#ffffff;fill-opacity:1;fill-rule:nonzero;stroke:none"
             id="path73451"
             inkscape:connector-curvature="0" />
        </g>
        <g
           id="g73453"
           transform="translate(1724.1074,2581.123)">
          <path
             d="M 0,0 0.743,0.434 C 0.785,0.386 0.824,0.338 0.861,0.294 L 0.116,-0.141 C 0.082,-0.091 0.041,-0.048 0,0"
             style="fill:#ffffff;fill-opacity:1;fill-rule:nonzero;stroke:none"
             id="path73455"
             inkscape:connector-curvature="0" />
        </g>
      </g>
    </g>
    <g
       id="g73457"
       transform="matrix(0.35277777,0,0,-0.35277777,-450.7545,1100.5426)">
      <g
         id="g73459"
         clip-path="url(#clipPath73463)">
        <g
           id="g73465"
           transform="translate(1724.2236,2580.9819)">
          <path
             d="M 0,0 0.745,0.436 0.458,-0.355 -0.281,-0.787 Z"
             style="fill:#9b9b9b;fill-opacity:1;fill-rule:nonzero;stroke:none"
             id="path73467"
             inkscape:connector-curvature="0" />
        </g>
        <g
           id="g73469"
           transform="translate(1725.0303,2580.814)">
          <path
             d="M 0,0 0.744,0.434 0.741,-0.556 -0.003,-0.989 Z"
             style="fill:#bc3737;fill-opacity:1;fill-rule:nonzero;stroke:none"
             id="path73471"
             inkscape:connector-curvature="0" />
        </g>
      </g>
    </g>
    <g
       id="g73473"
       transform="matrix(0.35277777,0,0,-0.35277777,-450.7545,1100.5426)">
      <g
         id="g73475"
         clip-path="url(#clipPath73479)">
        <g
           id="g73481"
           transform="translate(1732.0762,2575.7285)">
          <path
             d="M 0,0 0.741,0.434 C 0.03,0.02 -0.408,-0.967 -0.41,-2.477 -0.413,-3.629 -0.16,-4.775 0.295,-5.804 l -0.74,-0.431 c -0.457,1.031 -0.716,2.17 -0.713,3.327 C -1.153,-1.398 -0.717,-0.416 0,0"
             style="fill:#f44747;fill-opacity:1;fill-rule:nonzero;stroke:none"
             id="path73483"
             inkscape:connector-curvature="0" />
        </g>
        <g
           id="g73485"
           transform="translate(1731.6309,2569.4937)">
          <path
             d="M 0,0 0.74,0.431 C 1.068,-0.308 1.499,-0.985 2.01,-1.567 L 1.262,-2 C 0.752,-1.421 0.327,-0.743 0,0"
             style="fill:#fbb5b5;fill-opacity:1;fill-rule:nonzero;stroke:none"
             id="path73487"
             inkscape:connector-curvature="0" />
        </g>
        <g
           id="g73489"
           transform="translate(1732.8926,2567.4937)">
          <path
             d="M 0,0 0.748,0.433 C 1.201,-0.089 1.717,-0.523 2.283,-0.85 L 1.54,-1.284 C 0.975,-0.958 0.456,-0.521 0,0"
             style="fill:#f44747;fill-opacity:1;fill-rule:nonzero;stroke:none"
             id="path73491"
             inkscape:connector-curvature="0" />
        </g>
      </g>
    </g>
    <g
       id="g73493"
       transform="matrix(0.35277777,0,0,-0.35277777,-450.7545,1100.5426)">
      <g
         id="g73495"
         clip-path="url(#clipPath73499)">
        <g
           id="g73501"
           transform="translate(1727.4121,2578.4478)">
          <path
             d="M 0,0 0.747,0.427 0.723,-7.595 -0.021,-8.026 Z"
             style="fill:#bc3737;fill-opacity:1;fill-rule:nonzero;stroke:none"
             id="path73503"
             inkscape:connector-curvature="0" />
        </g>
        <g
           id="g73505"
           transform="translate(1725.0273,2579.8247)">
          <path
             d="M 0,0 0.744,0.433 3.132,-0.95 2.385,-1.377 Z"
             style="fill:#d23d3d;fill-opacity:1;fill-rule:nonzero;stroke:none"
             id="path73507"
             inkscape:connector-curvature="0" />
        </g>
        <g
           id="g73509"
           transform="translate(1728.4375,2577.8555)">
          <path
             d="M 0,0 0.743,0.434 0.724,-7.591 -0.025,-8.024 Z"
             style="fill:#c5c5c5;fill-opacity:1;fill-rule:nonzero;stroke:none"
             id="path73511"
             inkscape:connector-curvature="0" />
        </g>
      </g>
    </g>
    <g
       id="g73513"
       transform="matrix(0.35277777,0,0,-0.35277777,-450.7545,1100.5426)">
      <g
         id="g73515"
         clip-path="url(#clipPath73519)">
        <g
           id="g73521"
           transform="translate(1734.4941,2567.1255)">
          <path
             d="M 0,0 0.748,0.436 C 1.4,0.057 1.94,0.028 2.351,0.263 L 1.603,-0.164 C 1.193,-0.403 0.653,-0.375 0,0"
             style="fill:#ffffff;fill-opacity:1;fill-rule:nonzero;stroke:none"
             id="path73523"
             inkscape:connector-curvature="0" />
        </g>
      </g>
    </g>
    <g
       id="g73525"
       transform="matrix(0.35277777,0,0,-0.35277777,-450.7545,1100.5426)">
      <g
         id="g73527"
         clip-path="url(#clipPath73531)">
        <g
           id="g73533"
           transform="translate(1734.4326,2566.21)">
          <path
             d="m 0,0 0.743,0.434 c 0.98,-0.562 1.869,-0.689 2.53,-0.305 L 2.527,-0.302 C 1.868,-0.688 0.979,-0.564 0,0"
             style="fill:#f44747;fill-opacity:1;fill-rule:nonzero;stroke:none"
             id="path73535"
             inkscape:connector-curvature="0" />
        </g>
      </g>
    </g>
    <g
       id="g73537"
       transform="matrix(0.35277777,0,0,-0.35277777,-450.7545,1100.5426)">
      <g
         id="g73539"
         clip-path="url(#clipPath73543)">
        <g
           id="g73545"
           transform="translate(1728.4375,2577.8555)">
          <path
             d="M 0,0 0.743,0.434 3.143,-0.952 2.4,-1.384 Z"
             style="fill:#d23d3d;fill-opacity:1;fill-rule:nonzero;stroke:none"
             id="path73547"
             inkscape:connector-curvature="0" />
        </g>
        <g
           id="g73549"
           transform="translate(1725.0303,2580.814)">
          <path
             d="M 0,0 0.744,0.434 6.552,-2.921 5.81,-3.353 Z"
             style="fill:#ffffff;fill-opacity:1;fill-rule:nonzero;stroke:none"
             id="path73551"
             inkscape:connector-curvature="0" />
        </g>
        <g
           id="g73553"
           transform="translate(1730.8398,2577.4609)">
          <path
             d="M 0,0 0.742,0.432 0.74,-0.558 -0.002,-0.989 Z"
             style="fill:#c5c5c5;fill-opacity:1;fill-rule:nonzero;stroke:none"
             id="path73555"
             inkscape:connector-curvature="0" />
        </g>
      </g>
    </g>
    <g
       id="g73557"
       transform="matrix(0.35277777,0,0,-0.35277777,-450.7545,1100.5426)">
      <g
         id="g73559"
         clip-path="url(#clipPath73563)">
        <g
           id="g73565"
           transform="translate(1732.0762,2575.7285)">
          <path
             d="M 0,0 0.741,0.434 C 0.03,0.02 -0.408,-0.967 -0.41,-2.477 -0.413,-3.629 -0.16,-4.775 0.295,-5.804 l -0.74,-0.431 c -0.457,1.031 -0.716,2.17 -0.713,3.327 C -1.153,-1.398 -0.717,-0.416 0,0"
             style="fill:#f44747;fill-opacity:1;fill-rule:nonzero;stroke:none"
             id="path73567"
             inkscape:connector-curvature="0" />
        </g>
      </g>
    </g>
    <g
       id="g73569"
       transform="matrix(0.35277777,0,0,-0.35277777,-450.7545,1100.5426)">
      <g
         id="g73571"
         clip-path="url(#clipPath73575)">
        <g
           id="g73577"
           transform="translate(1732.9209,2574.707)">
          <path
             d="M 0,0 0.739,0.429 C 0.133,0.076 -0.173,-0.865 -0.174,-2.052 -0.178,-2.978 0.033,-3.98 0.423,-4.872 l -0.746,-0.433 c -0.39,0.891 -0.601,1.893 -0.598,2.822 C -0.918,-1.294 -0.608,-0.355 0,0"
             style="fill:#ffffff;fill-opacity:1;fill-rule:nonzero;stroke:none"
             id="path73579"
             inkscape:connector-curvature="0" />
        </g>
        <g
           id="g73581"
           transform="translate(1732.5977,2569.4019)">
          <path
             d="M 0,0 0.746,0.434 C 0.982,-0.104 1.29,-0.601 1.656,-1.021 L 0.911,-1.451 C 0.544,-1.032 0.242,-0.536 0,0"
             style="fill:#ffffff;fill-opacity:1;fill-rule:nonzero;stroke:none"
             id="path73583"
             inkscape:connector-curvature="0" />
        </g>
        <g
           id="g73585"
           transform="translate(1733.5088,2567.9512)">
          <path
             d="M 0,0 0.745,0.429 C 1.033,0.103 1.366,-0.179 1.733,-0.39 L 0.985,-0.826 C 0.618,-0.617 0.291,-0.333 0,0"
             style="fill:#ffffff;fill-opacity:1;fill-rule:nonzero;stroke:none"
             id="path73587"
             inkscape:connector-curvature="0" />
        </g>
      </g>
    </g>
    <g
       id="g73589"
       transform="matrix(0.35277777,0,0,-0.35277777,-450.7545,1100.5426)">
      <g
         id="g73591"
         clip-path="url(#clipPath73595)">
        <g
           id="g73597"
           transform="translate(1739.3955,2563.4893)">
          <path
             d="M 0,0 0.745,0.434 1.758,-0.15 1.017,-0.58 Z"
             style="fill:#d23d3d;fill-opacity:1;fill-rule:nonzero;stroke:none"
             id="path73599"
             inkscape:connector-curvature="0" />
        </g>
      </g>
    </g>
    <g
       id="g73601"
       transform="matrix(0.35277777,0,0,-0.35277777,-450.7545,1100.5426)">
      <g
         id="g73603"
         clip-path="url(#clipPath73607)">
        <g
           id="g73609"
           transform="translate(1732.9209,2574.707)">
          <path
             d="M 0,0 0.739,0.429 C 1.143,0.664 1.682,0.636 2.352,0.25 L 1.608,-0.181 C 0.935,0.203 0.4,0.233 0,0"
             style="fill:#f44747;fill-opacity:1;fill-rule:nonzero;stroke:none"
             id="path73611"
             inkscape:connector-curvature="0" />
        </g>
      </g>
    </g>
    <g
       id="g73613"
       transform="matrix(0.35277777,0,0,-0.35277777,-450.7545,1100.5426)">
      <g
         id="g73615"
         clip-path="url(#clipPath73619)">
        <g
           id="g73621"
           transform="translate(1734.5293,2574.5264)">
          <path
             d="M 0,0 0.743,0.431 C 1.112,0.218 1.444,-0.061 1.729,-0.395 L 0.988,-0.826 C 0.695,-0.497 0.371,-0.216 0,0"
             style="fill:#f44747;fill-opacity:1;fill-rule:nonzero;stroke:none"
             id="path73623"
             inkscape:connector-curvature="0" />
        </g>
        <g
           id="g73625"
           transform="translate(1735.5176,2573.7007)">
          <path
             d="M 0,0 0.741,0.431 C 1.109,0.019 1.405,-0.475 1.637,-0.996 L 0.892,-1.429 C 0.66,-0.906 0.361,-0.417 0,0"
             style="fill:#fbb5b5;fill-opacity:1;fill-rule:nonzero;stroke:none"
             id="path73627"
             inkscape:connector-curvature="0" />
        </g>
      </g>
    </g>
    <g
       id="g73629"
       transform="matrix(0.35277777,0,0,-0.35277777,-450.7545,1100.5426)">
      <g
         id="g73631"
         clip-path="url(#clipPath73635)">
        <g
           id="g73637"
           transform="translate(1732.0762,2575.7285)">
          <path
             d="M 0,0 0.741,0.434 C 1.388,0.807 2.257,0.726 3.24,0.155 L 2.498,-0.276 C 1.507,0.292 0.642,0.377 0,0"
             style="fill:#ffffff;fill-opacity:1;fill-rule:nonzero;stroke:none"
             id="path73639"
             inkscape:connector-curvature="0" />
        </g>
      </g>
    </g>
    <g
       id="g73641"
       transform="matrix(0.35277777,0,0,-0.35277777,-450.7545,1100.5426)">
      <g
         id="g73643"
         clip-path="url(#clipPath73647)">
        <g
           id="g73649"
           transform="translate(1735.5176,2573.7007)">
          <path
             d="M 0,0 0.741,0.431 C 1.109,0.019 1.405,-0.475 1.637,-0.996 L 0.892,-1.429 C 0.66,-0.906 0.361,-0.417 0,0"
             style="fill:#fbb5b5;fill-opacity:1;fill-rule:nonzero;stroke:none"
             id="path73651"
             inkscape:connector-curvature="0" />
        </g>
        <g
           id="g73653"
           transform="translate(1736.4092,2572.2715)">
          <path
             d="M 0,0 0.745,0.433 C 1.154,-0.495 1.354,-1.525 1.354,-2.418 1.353,-3.625 1.029,-4.534 0.436,-4.883 L -0.313,-5.31 c 0.595,0.343 0.917,1.249 0.919,2.458 C 0.608,-1.958 0.411,-0.931 0,0"
             style="fill:#f44747;fill-opacity:1;fill-rule:nonzero;stroke:none"
             id="path73655"
             inkscape:connector-curvature="0" />
        </g>
      </g>
    </g>
    <g
       id="g73657"
       transform="matrix(0.35277777,0,0,-0.35277777,-450.7545,1100.5426)">
      <g
         id="g73659"
         clip-path="url(#clipPath73663)">
        <g
           id="g73665"
           transform="translate(1734.5742,2575.4521)">
          <path
             d="M 0,0 0.742,0.432 C 1.325,0.096 1.848,-0.344 2.306,-0.865 L 1.563,-1.298 C 1.106,-0.782 0.58,-0.335 0,0"
             style="fill:#ffffff;fill-opacity:1;fill-rule:nonzero;stroke:none"
             id="path73667"
             inkscape:connector-curvature="0" />
        </g>
        <g
           id="g73669"
           transform="translate(1736.1367,2574.1538)">
          <path
             d="M 0,0 0.743,0.434 C 1.252,-0.139 1.671,-0.813 1.991,-1.538 L 1.248,-1.967 C 0.928,-1.244 0.507,-0.576 0,0"
             style="fill:#ffffff;fill-opacity:1;fill-rule:nonzero;stroke:none"
             id="path73671"
             inkscape:connector-curvature="0" />
        </g>
        <g
           id="g73673"
           transform="translate(1737.3848,2572.1865)">
          <path
             d="M 0,0 0.743,0.429 C 1.2,-0.604 1.451,-1.752 1.451,-2.898 1.445,-4.49 1.01,-5.445 0.321,-5.848 L -0.425,-6.279 C 0.267,-5.88 0.699,-4.922 0.701,-3.332 0.707,-2.186 0.456,-1.04 0,0"
             style="fill:#ffffff;fill-opacity:1;fill-rule:nonzero;stroke:none"
             id="path73675"
             inkscape:connector-curvature="0" />
        </g>
      </g>
    </g>
    <g
       id="g73677"
       transform="matrix(0.35277777,0,0,-0.35277777,-450.7545,1100.5426)">
      <g
         id="g73679"
         clip-path="url(#clipPath73683)">
        <g
           id="g73685"
           transform="translate(1734.4941,2567.1255)">
          <path
             d="M 0,0 C 1.604,-0.926 2.517,0.25 2.521,2.294 2.523,4.087 1.72,6.429 0.035,7.401 -1.641,8.368 -2.488,7.072 -2.494,5.098 -2.5,3.172 -1.595,0.924 0,0 M 0.08,8.327 C 2.22,7.089 3.602,4.403 3.592,1.729 3.587,-1.375 1.94,-2.074 -0.062,-0.916 c -2.067,1.195 -3.52,3.883 -3.514,6.611 0.01,2.861 1.564,3.839 3.656,2.632"
             style="fill:#ffffff;fill-opacity:1;fill-rule:nonzero;stroke:none"
             id="path73687"
             inkscape:connector-curvature="0" />
        </g>
        <g
           id="g73689"
           transform="translate(1740.4199,2566.5176)">
          <path
             d="M 0,0 0.74,0.434 0.733,-3.179 -0.008,-3.608 Z"
             style="fill:#c5c5c5;fill-opacity:1;fill-rule:nonzero;stroke:none"
             id="path73691"
             inkscape:connector-curvature="0" />
        </g>
        <g
           id="g73693"
           transform="translate(1737.4502,2553.8838)">
          <path
             d="M 0,0 0.746,0.429 8.529,4.863 7.79,4.434 Z"
             style="fill:#6f6f6f;fill-opacity:1;fill-rule:nonzero;stroke:none"
             id="path73695"
             inkscape:connector-curvature="0" />
        </g>
        <g
           id="g73697"
           transform="translate(1718.7793,2586.2275)">
          <path
             d="M 0,0 0.74,0.432 8.532,4.872 7.784,4.436 Z"
             style="fill:#7b2424;fill-opacity:1;fill-rule:nonzero;stroke:none"
             id="path73699"
             inkscape:connector-curvature="0" />
        </g>
      </g>
    </g>
    <g
       id="g73701"
       transform="matrix(0.35277777,0,0,-0.35277777,-450.7545,1100.5426)">
      <g
         id="g73703"
         clip-path="url(#clipPath73707)">
        <g
           id="g73709"
           transform="translate(1740.4219,2567.4697)">
          <path
             d="M 0,0 0.742,0.432 C 0.965,0.237 1.244,0.048 1.58,-0.146 L 0.834,-0.577 C 0.498,-0.386 0.217,-0.198 0,0"
             style="fill:#ffffff;fill-opacity:1;fill-rule:nonzero;stroke:none"
             id="path73711"
             inkscape:connector-curvature="0" />
        </g>
      </g>
    </g>
    <g
       id="g73713"
       transform="matrix(0.35277777,0,0,-0.35277777,-450.7545,1100.5426)">
      <g
         id="g73715"
         clip-path="url(#clipPath73719)">
        <g
           id="g73721"
           transform="translate(1739.4238,2572.3979)">
          <path
             d="M 0,0 0.743,0.434 0.717,-8.475 -0.028,-8.909 Z"
             style="fill:#bc3737;fill-opacity:1;fill-rule:nonzero;stroke:none"
             id="path73723"
             inkscape:connector-curvature="0" />
        </g>
      </g>
    </g>
    <g
       id="g73725"
       transform="matrix(0.35277777,0,0,-0.35277777,-450.7545,1100.5426)">
      <g
         id="g73727"
         clip-path="url(#clipPath73731)">
        <g
           id="g73733"
           transform="translate(1741.2559,2566.8926)">
          <path
             d="M 0,0 0.746,0.431 C 1.419,0.043 1.948,-0.055 2.288,0.141 L 1.54,-0.292 C 1.201,-0.488 0.674,-0.39 0,0"
             style="fill:#ffffff;fill-opacity:1;fill-rule:nonzero;stroke:none"
             id="path73735"
             inkscape:connector-curvature="0" />
        </g>
      </g>
    </g>
    <g
       id="g73737"
       transform="matrix(0.35277777,0,0,-0.35277777,-450.7545,1100.5426)">
      <g
         id="g73739"
         clip-path="url(#clipPath73743)">
        <g
           id="g73745"
           transform="translate(1740.4316,2570.9727)">
          <path
             d="M 0,0 0.746,0.432 0.732,-3.071 -0.01,-3.503 Z"
             style="fill:#c5c5c5;fill-opacity:1;fill-rule:nonzero;stroke:none"
             id="path73747"
             inkscape:connector-curvature="0" />
        </g>
      </g>
    </g>
    <g
       id="g73749"
       transform="matrix(0.35277777,0,0,-0.35277777,-450.7545,1100.5426)">
      <g
         id="g73751"
         clip-path="url(#clipPath73755)">
        <g
           id="g73757"
           transform="translate(1740.4199,2566.5176)">
          <path
             d="M 0,0 0.74,0.434 C 0.977,0.233 1.253,0.061 1.559,-0.115 2.52,-0.673 3.373,-0.85 3.914,-0.536 L 3.168,-0.967 C 2.632,-1.279 1.771,-1.105 0.812,-0.547 0.511,-0.375 0.227,-0.203 0,0"
             style="fill:#f44747;fill-opacity:1;fill-rule:nonzero;stroke:none"
             id="path73759"
             inkscape:connector-curvature="0" />
        </g>
      </g>
    </g>
    <g
       id="g73761"
       transform="matrix(0.35277777,0,0,-0.35277777,-450.7545,1100.5426)">
      <g
         id="g73763"
         clip-path="url(#clipPath73767)">
        <g
           id="g73769"
           transform="translate(1741.3848,2570.5151)">
          <path
             d="M 0,0 0.746,0.432 C 1.161,0.194 1.523,-0.1 1.816,-0.431 L 1.072,-0.865 C 0.782,-0.532 0.418,-0.241 0,0"
             style="fill:#f44747;fill-opacity:1;fill-rule:nonzero;stroke:none"
             id="path73771"
             inkscape:connector-curvature="0" />
        </g>
        <g
           id="g73773"
           transform="translate(1742.457,2569.6504)">
          <path
             d="M 0,0 0.744,0.434 C 0.962,0.183 1.148,-0.091 1.277,-0.386 L 0.529,-0.817 C 0.399,-0.522 0.224,-0.25 0,0"
             style="fill:#fbb5b5;fill-opacity:1;fill-rule:nonzero;stroke:none"
             id="path73775"
             inkscape:connector-curvature="0" />
        </g>
        <g
           id="g73777"
           transform="translate(1742.9863,2568.833)">
          <path
             d="M 0,0 0.748,0.432 C 0.904,0.075 0.989,-0.311 0.987,-0.721 0.987,-1.276 0.836,-1.64 0.558,-1.799 L -0.19,-2.233 C 0.09,-2.069 0.24,-1.712 0.242,-1.15 0.242,-0.742 0.157,-0.359 0,0"
             style="fill:#f44747;fill-opacity:1;fill-rule:nonzero;stroke:none"
             id="path73779"
             inkscape:connector-curvature="0" />
        </g>
      </g>
    </g>
    <g
       id="g73781"
       transform="matrix(0.35277777,0,0,-0.35277777,-450.7545,1100.5426)">
      <g
         id="g73783"
         clip-path="url(#clipPath73787)">
        <g
           id="g73789"
           transform="translate(1743.5615,2569.4282)">
          <path
             d="M 0,0 0.743,0.438 C 0.861,0.249 0.968,0.05 1.057,-0.155 L 0.31,-0.588 C 0.225,-0.384 0.119,-0.183 0,0"
             style="fill:#ffffff;fill-opacity:1;fill-rule:nonzero;stroke:none"
             id="path73791"
             inkscape:connector-curvature="0" />
        </g>
        <g
           id="g73793"
           transform="translate(1743.8711,2568.8403)">
          <path
             d="M 0,0 0.747,0.433 C 0.984,-0.098 1.118,-0.68 1.115,-1.255 1.113,-2.077 0.899,-2.591 0.506,-2.831 l -0.745,-0.435 c 0.393,0.239 0.607,0.763 0.607,1.575 C 0.375,-1.111 0.24,-0.534 0,0"
             style="fill:#ffffff;fill-opacity:1;fill-rule:nonzero;stroke:none"
             id="path73795"
             inkscape:connector-curvature="0" />
        </g>
      </g>
    </g>
    <g
       id="g73797"
       transform="matrix(0.35277777,0,0,-0.35277777,-450.7545,1100.5426)">
      <g
         id="g73799"
         clip-path="url(#clipPath73803)">
        <g
           id="g73805"
           transform="translate(1743.6318,2565.5742)">
          <path
             d="M 0,0 0.745,0.436 C 0.728,0.425 0.714,0.416 0.702,0.407 L -0.044,-0.024 C -0.026,-0.018 -0.015,-0.011 0,0"
             style="fill:#ffffff;fill-opacity:1;fill-rule:nonzero;stroke:none"
             id="path73807"
             inkscape:connector-curvature="0" />
        </g>
      </g>
    </g>
    <g
       id="g73809"
       transform="matrix(0.35277777,0,0,-0.35277777,-450.7545,1100.5426)">
      <g
         id="g73811"
         clip-path="url(#clipPath73815)">
        <g
           id="g73817"
           transform="translate(1740.4316,2570.9727)">
          <path
             d="M 0,0 0.746,0.432 C 0.918,0.384 1.255,0.229 1.699,-0.026 L 0.953,-0.458 C 0.509,-0.205 0.172,-0.047 0,0"
             style="fill:#f44747;fill-opacity:1;fill-rule:nonzero;stroke:none"
             id="path73819"
             inkscape:connector-curvature="0" />
        </g>
      </g>
    </g>
    <g
       id="g73821"
       transform="matrix(0.35277777,0,0,-0.35277777,-450.7545,1100.5426)">
      <g
         id="g73823"
         clip-path="url(#clipPath73827)">
        <g
           id="g73829"
           transform="translate(1741.3848,2570.5151)">
          <path
             d="m 0,0 c 1.117,-0.645 1.844,-1.645 1.844,-2.833 -0.006,-1.243 -0.746,-1.498 -1.973,-0.79 -0.336,0.192 -0.617,0.379 -0.834,0.578 l 0.01,3.503 C -0.781,0.41 -0.444,0.253 0,0"
             style="fill:#f44747;fill-opacity:1;fill-rule:nonzero;stroke:none"
             id="path73831"
             inkscape:connector-curvature="0" />
        </g>
      </g>
    </g>
    <g
       id="g73833"
       transform="matrix(0.35277777,0,0,-0.35277777,-450.7545,1100.5426)">
      <g
         id="g73835"
         clip-path="url(#clipPath73839)">
        <g
           id="g73841"
           transform="translate(1739.4238,2572.3979)">
          <path
             d="M 0,0 0.743,0.434 C 1.229,0.246 1.874,-0.044 2.683,-0.513 3.386,-0.919 3.96,-1.382 4.396,-1.88 L 3.649,-2.314 C 3.212,-1.815 2.64,-1.353 1.938,-0.946 1.125,-0.478 0.482,-0.185 0,0"
             style="fill:#ffffff;fill-opacity:1;fill-rule:nonzero;stroke:none"
             id="path73843"
             inkscape:connector-curvature="0" />
        </g>
        <g
           id="g73845"
           transform="translate(1743.0732,2570.084)">
          <path
             d="M 0,0 0.746,0.434 C 0.932,0.223 1.094,0.004 1.231,-0.218 L 0.488,-0.656 C 0.346,-0.429 0.188,-0.209 0,0"
             style="fill:#ffffff;fill-opacity:1;fill-rule:nonzero;stroke:none"
             id="path73847"
             inkscape:connector-curvature="0" />
        </g>
      </g>
    </g>
    <g
       id="g73857"
       transform="matrix(0.35277777,0,0,-0.35277777,164.93917,193.57667)">
      <path
         d="M 0,0 0.746,0.436 0.706,-12.181 -0.033,-12.61 Z"
         style="fill:#bc3737;fill-opacity:1;fill-rule:nonzero;stroke:none"
         id="path73859"
         inkscape:connector-curvature="0" />
    </g>
    <g
       id="g73861"
       transform="matrix(0.35277777,0,0,-0.35277777,163.52188,194.99998)">
      <path
         d="m 0,0 c 1.227,-0.708 1.967,-0.454 1.973,0.79 0,1.188 -0.727,2.188 -1.844,2.833 -0.444,0.252 -0.781,0.41 -0.953,0.457 L -0.834,0.577 C -0.617,0.379 -0.336,0.191 0,0 M 2.306,2.536 C 2.733,1.862 2.99,1.059 2.983,0.257 c 0,-0.813 -0.213,-1.336 -0.607,-1.575 -0.536,-0.347 -1.413,-0.175 -2.4,0.396 -0.301,0.172 -0.585,0.344 -0.812,0.547 l -0.008,-3.608 -1.016,0.58 0.028,8.908 C -1.35,5.32 -0.707,5.028 0.105,4.56 1.11,3.98 1.84,3.29 2.306,2.536"
         style="fill:#ffffff;fill-opacity:1;fill-rule:nonzero;stroke:none"
         id="path73863"
         inkscape:connector-curvature="0" />
    </g>
    <g
       id="g73865"
       transform="matrix(0.35277777,0,0,-0.35277777,162.20997,188.84842)">
      <path
         d="M 0,0 0.747,0.427 8.482,-12.967 7.736,-13.403 Z"
         style="fill:#f24646;fill-opacity:1;fill-rule:nonzero;stroke:none"
         id="path73867"
         inkscape:connector-curvature="0" />
    </g>
    <g
       id="g73869"
       transform="matrix(0.35277777,0,0,-0.35277777,158.33875,186.6141)">
      <path
         d="M 0,0 0.748,0.436 11.721,-5.906 10.974,-6.333 Z"
         style="fill:#d23d3d;fill-opacity:1;fill-rule:nonzero;stroke:none"
         id="path73871"
         inkscape:connector-curvature="0" />
    </g>
    <g
       id="g73873"
       transform="matrix(0.35277777,0,0,-0.35277777,164.92745,198.02512)">
      <path
         d="m 0,0 -7.79,-4.434 -10.969,6.333 -7.736,13.399 0.034,12.612 7.784,4.436 10.974,-6.333 7.736,-13.403 z m -7.284,26.919 -11.802,6.817 -8.375,-4.776 -0.039,-13.56 8.318,-14.414 11.808,-6.814 8.37,4.776 0.04,13.562 z"
         style="fill:#ffffff;fill-opacity:1;fill-rule:nonzero;stroke:none"
         id="path73875"
         inkscape:connector-curvature="0" />
    </g>
    <g
       id="g73877"
       transform="matrix(0.35277777,0,0,-0.35277777,161.14889,192.30695)">
      <path
         d="M 0,0 C 1.685,-0.972 2.488,-3.313 2.486,-5.107 2.481,-7.15 1.568,-8.327 -0.035,-7.401 -1.63,-6.477 -2.535,-4.229 -2.529,-2.303 -2.523,-0.329 -1.676,0.967 0,0"
         style="fill:#f44747;fill-opacity:1;fill-rule:nonzero;stroke:none"
         id="path73879"
         inkscape:connector-curvature="0" />
    </g>
    <g
       id="g73881"
       transform="matrix(0.35277777,0,0,-0.35277777,164.36005,195.46508)">
      <path
         d="m 0,0 c -0.288,-0.185 -0.665,-0.224 -1.108,-0.133 -0.052,0.013 -0.106,0.024 -0.158,0.039 -0.052,0.016 -0.11,0.029 -0.165,0.044 C -1.514,-0.022 -1.6,0.011 -1.685,0.043 -1.739,0.068 -1.8,0.091 -1.855,0.118 -2.034,0.194 -2.216,0.288 -2.4,0.396 -2.701,0.569 -2.985,0.74 -3.212,0.943 l -0.008,-3.608 -1.016,0.58 0.028,8.909 C -4.118,6.789 -4.024,6.75 -3.92,6.706 -3.862,6.682 -3.8,6.656 -3.738,6.627 -3.657,6.592 -3.571,6.555 -3.482,6.51 -3.44,6.49 -3.401,6.475 -3.364,6.457 -3.04,6.298 -2.674,6.111 -2.271,5.878 -1.586,5.483 -1.025,5.037 -0.596,4.554 -0.394,4.329 -0.219,4.094 -0.07,3.854 -0.023,3.778 0.028,3.699 0.071,3.616 0.075,3.605 0.086,3.597 0.087,3.588 0.175,3.431 0.245,3.272 0.31,3.104 0.327,3.072 0.338,3.037 0.351,2.996 0.52,2.542 0.614,2.059 0.607,1.575 0.607,0.763 0.394,0.239 0,0 m -9.199,0.636 c -2.068,1.194 -3.521,3.883 -3.515,6.61 0.01,2.861 1.565,3.839 3.656,2.632 2.14,-1.238 3.522,-3.924 3.512,-6.597 -0.005,-3.104 -1.651,-3.804 -3.653,-2.645 m -3.595,10.261 -2.4,1.384 -0.026,-8.024 -1.021,0.591 0.021,8.026 -2.384,1.376 0.002,0.99 5.81,-3.353 z M -21.863,7.96 c -0.757,0.438 -1.582,1.173 -2.004,1.73 l 0.261,0.831 c 0.455,-0.584 1.113,-1.233 1.814,-1.641 1.032,-0.593 1.643,-0.314 1.646,0.595 0.001,0.841 -0.419,1.567 -1.472,2.645 -1.279,1.259 -2.07,2.477 -2.068,3.749 0.004,1.405 1.021,1.865 2.543,0.987 0.805,-0.466 1.388,-1.017 1.735,-1.448 l -0.281,-0.787 c -0.254,0.311 -0.781,0.88 -1.49,1.287 -1.07,0.619 -1.475,0.12 -1.479,-0.5 -0.002,-0.84 0.473,-1.526 1.555,-2.635 1.321,-1.35 1.998,-2.481 1.994,-3.804 -0.007,-1.389 -0.907,-2.072 -2.754,-1.009 m 15.768,10.796 -10.973,6.333 -7.785,-4.436 -0.034,-12.611 7.737,-13.399 10.968,-6.333 7.79,4.433 0.034,12.61 z"
         style="fill:#f44747;fill-opacity:1;fill-rule:nonzero;stroke:none"
         id="path73883"
         inkscape:connector-curvature="0" />
    </g>
    <g
       id="g73885"
       transform="matrix(0.35277777,0,0,-0.35277777,156.90145,189.51849)">
      <path
         d="M 0,0 C 0.805,-0.466 1.388,-1.018 1.734,-1.449 L 1.453,-2.235 c -0.254,0.311 -0.78,0.88 -1.489,1.287 -1.07,0.619 -1.476,0.12 -1.48,-0.501 -0.002,-0.839 0.474,-1.525 1.556,-2.634 1.32,-1.351 1.997,-2.481 1.993,-3.804 -0.007,-1.39 -0.906,-2.072 -2.754,-1.009 -0.757,0.438 -1.582,1.172 -2.004,1.73 l 0.261,0.831 c 0.455,-0.585 1.113,-1.234 1.815,-1.641 1.032,-0.593 1.642,-0.314 1.645,0.594 0.002,0.841 -0.419,1.567 -1.472,2.645 -1.279,1.259 -2.07,2.477 -2.067,3.75 C -2.539,0.418 -1.522,0.877 0,0"
         style="fill:#ffffff;fill-opacity:1;fill-rule:nonzero;stroke:none"
         id="path73887"
         inkscape:connector-curvature="0" />
    </g>
    <g
       id="g73889"
       transform="matrix(0.35277777,0,0,-0.35277777,159.84732,191.27172)">
      <path
         d="m 0,0 -0.002,-0.989 -2.4,1.384 -0.026,-8.025 -1.021,0.591 0.021,8.026 -2.385,1.377 0.003,0.989 z"
         style="fill:#ffffff;fill-opacity:1;fill-rule:nonzero;stroke:none"
         id="path73891"
         inkscape:connector-curvature="0" />
    </g>
    <g
       id="g73893"
       transform="matrix(0.35277777,0,0,-0.35277777,155.23987,187.80854)">
      <path
         d="M 0,0 0.745,0.432 9.118,5.205 8.375,4.776 Z"
         style="fill:#6f6f6f;fill-opacity:1;fill-rule:nonzero;stroke:none"
         id="path73895"
         inkscape:connector-curvature="0" />
    </g>
    <g
       id="g73897"
       transform="matrix(0.35277777,0,0,-0.35277777,165.293,193.61198)">
      <path
         d="M 0,0 0.742,0.433 0.707,-13.128 -0.04,-13.562 Z"
         style="fill:#a9a9a9;fill-opacity:1;fill-rule:nonzero;stroke:none"
         id="path73899"
         inkscape:connector-curvature="0" />
    </g>
    <g
       id="g73901"
       transform="matrix(0.35277777,0,0,-0.35277777,162.35779,188.52873)">
      <path
         d="M 0,0 0.746,0.432 9.063,-13.976 8.32,-14.409 Z"
         style="fill:#c9c9c9;fill-opacity:1;fill-rule:nonzero;stroke:none"
         id="path73903"
         inkscape:connector-curvature="0" />
    </g>
    <g
       id="g73905"
       transform="matrix(0.35277777,0,0,-0.35277777,158.19436,186.12371)">
      <path
         d="M 0,0 0.743,0.429 12.548,-6.386 11.802,-6.817 Z"
         style="fill:#ffffff;fill-opacity:1;fill-rule:nonzero;stroke:none"
         id="path73907"
         inkscape:connector-curvature="0" />
    </g>
  </g>
</svg>
