<?xml version="1.0" encoding="UTF-8" standalone="no"?>
<!-- Created with Inkscape (http://www.inkscape.org/) -->

<svg
   xmlns:dc="http://purl.org/dc/elements/1.1/"
   xmlns:cc="http://creativecommons.org/ns#"
   xmlns:rdf="http://www.w3.org/1999/02/22-rdf-syntax-ns#"
   xmlns:svg="http://www.w3.org/2000/svg"
   xmlns="http://www.w3.org/2000/svg"
   xmlns:sodipodi="http://sodipodi.sourceforge.net/DTD/sodipodi-0.dtd"
   xmlns:inkscape="http://www.inkscape.org/namespaces/inkscape"
   width="1.7223493mm"
   height="6.2812276mm"
   viewBox="0 0 1.7223493 6.2812277"
   version="1.1"
   id="svg205606"
   inkscape:version="0.92.2 (5c3e80d, 2017-08-06)"
   sodipodi:docname="street-objects-9.svg">
  <defs
     id="defs205600">
    <clipPath
       clipPathUnits="userSpaceOnUse"
       id="clipPath70727">
      <path
         d="m 457.002,2619.783 6.988,-3.963 c -0.005,1.482 1.044,3.27 2.335,3.998 v 0 l -6.989,3.961 c -1.292,-0.726 -2.339,-2.515 -2.334,-3.996"
         id="path70725"
         inkscape:connector-curvature="0" />
    </clipPath>
    <clipPath
       clipPathUnits="userSpaceOnUse"
       id="clipPath70703">
      <path
         d="M 0,3189 H 2006.732 V 0 H 0 Z"
         id="path70701"
         inkscape:connector-curvature="0" />
    </clipPath>
    <clipPath
       clipPathUnits="userSpaceOnUse"
       id="clipPath70691">
      <path
         d="m 467.144,2628.18 6.991,-3.965 c 0.643,0.363 1.228,0.396 1.654,0.154 v 0 l -6.988,3.963 c -0.18,0.102 -0.387,0.155 -0.616,0.155 v 0 c -0.314,0 -0.668,-0.099 -1.041,-0.307"
         id="path70689"
         inkscape:connector-curvature="0" />
    </clipPath>
    <clipPath
       clipPathUnits="userSpaceOnUse"
       id="clipPath70659">
      <path
         d="m 460.035,2492.34 h 28.146 v -14.16 h -28.146 z"
         id="path70657"
         inkscape:connector-curvature="0" />
    </clipPath>
    <clipPath
       clipPathUnits="userSpaceOnUse"
       id="clipPath70783">
      <path
         d="m 521.15,2491.13 h 28.145 v -14.17 H 521.15 Z"
         id="path70781"
         inkscape:connector-curvature="0" />
    </clipPath>
    <clipPath
       clipPathUnits="userSpaceOnUse"
       id="clipPath70995">
      <path
         d="m 613.925,2617.959 1.194,-0.692 c 1.427,0.821 2.723,0.9 3.661,0.355 v 0 c -0.4,0.233 -0.796,0.462 -1.196,0.693 v 0 c -0.392,0.229 -0.849,0.348 -1.353,0.348 v 0 c -0.694,0 -1.478,-0.226 -2.306,-0.704"
         id="path70993"
         inkscape:connector-curvature="0" />
    </clipPath>
    <clipPath
       clipPathUnits="userSpaceOnUse"
       id="clipPath70963">
      <path
         d="M 0,3189 H 2006.732 V 0 H 0 Z"
         id="path70961"
         inkscape:connector-curvature="0" />
    </clipPath>
    <clipPath
       clipPathUnits="userSpaceOnUse"
       id="clipPath70951">
      <path
         d="m 621.298,2594.897 c -1.297,-0.722 -3.355,-0.7 -4.596,0.047 v 0 c -0.607,0.364 -0.905,0.831 -0.909,1.298 v 0 l 0.043,-5.474 c 0.003,-0.468 0.3,-0.936 0.904,-1.298 v 0 c 1.246,-0.75 3.303,-0.772 4.599,-0.049 v 0 c 0.666,0.371 1.002,0.868 1,1.364 v 0 l -0.039,5.477 c 0,-0.496 -0.336,-0.993 -1.002,-1.365"
         id="path70949"
         inkscape:connector-curvature="0" />
    </clipPath>
    <clipPath
       clipPathUnits="userSpaceOnUse"
       id="clipPath70935">
      <path
         d="M 0,3189 H 2006.732 V 0 H 0 Z"
         id="path70933"
         inkscape:connector-curvature="0" />
    </clipPath>
    <clipPath
       clipPathUnits="userSpaceOnUse"
       id="clipPath70923">
      <path
         d="m 621.514,2528.221 c -1.378,-0.769 -3.57,-0.747 -4.89,0.048 v 0 c -0.64,0.385 -0.96,0.882 -0.963,1.382 v 0 l 0.044,-34.963 c 0,-0.497 0.321,-0.994 0.963,-1.382 v 0 c 1.322,-0.795 3.512,-0.817 4.889,-0.049 v 0 c 0.71,0.395 1.065,0.925 1.065,1.452 v 0 l -0.043,34.963 c 0,-0.532 -0.355,-1.057 -1.065,-1.451"
         id="path70921"
         inkscape:connector-curvature="0" />
    </clipPath>
    <clipPath
       clipPathUnits="userSpaceOnUse"
       id="clipPath70895">
      <path
         d="m 613.479,2502.16 h 28.146 V 2488 h -28.146 z"
         id="path70893"
         inkscape:connector-curvature="0" />
    </clipPath>
    <clipPath
       clipPathUnits="userSpaceOnUse"
       id="clipPath71403">
      <path
         d="m 660.563,2585.094 c -1.298,-0.722 -3.354,-0.701 -4.599,0.049 v 0 c -0.603,0.362 -0.904,0.83 -0.904,1.296 v 0 l 0.042,-5.475 c 0,-0.469 0.3,-0.935 0.903,-1.298 v 0 c 1.245,-0.75 3.303,-0.77 4.598,-0.048 v 0 c 0.668,0.374 1.004,0.866 1.002,1.366 v 0 l -0.044,5.475 c 0.003,-0.495 -0.33,-0.994 -0.998,-1.365"
         id="path71401"
         inkscape:connector-curvature="0" />
    </clipPath>
    <clipPath
       clipPathUnits="userSpaceOnUse"
       id="clipPath71387">
      <path
         d="M 0,3189 H 2006.732 V 0 H 0 Z"
         id="path71385"
         inkscape:connector-curvature="0" />
    </clipPath>
    <clipPath
       clipPathUnits="userSpaceOnUse"
       id="clipPath71347">
      <path
         d="M 652.694,2493.36 H 680.84 V 2479.2 H 652.694 Z"
         id="path71345"
         inkscape:connector-curvature="0" />
    </clipPath>
    <clipPath
       clipPathUnits="userSpaceOnUse"
       id="clipPath71315">
      <path
         d="m 771.718,2529.918 c -1.379,-0.769 -3.571,-0.747 -4.891,0.049 v 0 c -0.642,0.387 -0.962,0.884 -0.962,1.383 v 0 l -0.284,-34.963 c 0,-0.499 0.318,-0.996 0.961,-1.382 v 0 c 1.324,-0.797 3.513,-0.817 4.89,-0.049 v 0 c 0.708,0.394 1.068,0.923 1.066,1.448 v 0 l 0.283,34.965 c 0,-0.529 -0.357,-1.056 -1.063,-1.451"
         id="path71313"
         inkscape:connector-curvature="0" />
    </clipPath>
    <clipPath
       clipPathUnits="userSpaceOnUse"
       id="clipPath71279">
      <path
         d="m 764.006,2504.18 h 28.147 v -14.16 h -28.147 z"
         id="path71277"
         inkscape:connector-curvature="0" />
    </clipPath>
    <clipPath
       clipPathUnits="userSpaceOnUse"
       id="clipPath71235">
      <path
         d="m 838.289,2627.383 c -0.615,-0.361 -1.234,-0.717 -1.846,-1.074 v 0 c 5.155,2.995 12.292,2.581 20.15,-1.959 v 0 l 1.849,1.074 c -4.556,2.629 -8.867,3.874 -12.69,3.874 v 0 c -2.776,0 -5.295,-0.656 -7.463,-1.915"
         id="path71233"
         inkscape:connector-curvature="0" />
    </clipPath>
    <clipPath
       clipPathUnits="userSpaceOnUse"
       id="clipPath71223">
      <path
         d="m 838.415,2622.911 c -4.587,-2.666 -7.441,-8.328 -7.462,-16.371 v 0 l 1.845,1.071 c 0.024,8.044 2.874,13.706 7.462,16.373 v 0 c -0.615,-0.358 -1.229,-0.715 -1.845,-1.073"
         id="path71221"
         inkscape:connector-curvature="0" />
    </clipPath>
    <clipPath
       clipPathUnits="userSpaceOnUse"
       id="clipPath71167">
      <path
         d="m 824.903,2500.79 h 28.146 v -14.16 h -28.146 z"
         id="path71165"
         inkscape:connector-curvature="0" />
    </clipPath>
    <clipPath
       clipPathUnits="userSpaceOnUse"
       id="clipPath71123">
      <path
         d="m 931.281,2625.369 1.848,-1.073 c 7.861,4.539 14.996,4.954 20.151,1.958 v 0 c -0.616,0.357 -1.231,0.715 -1.846,1.074 v 0 c -2.169,1.259 -4.688,1.915 -7.465,1.915 v 0 c -3.823,0 -8.134,-1.244 -12.688,-3.874"
         id="path71121"
         inkscape:connector-curvature="0" />
    </clipPath>
    <clipPath
       clipPathUnits="userSpaceOnUse"
       id="clipPath71111">
      <path
         d="m 949.541,2623.886 c -0.026,0.016 -0.052,0.031 -0.078,0.046 v 0 c 0.026,-0.015 0.052,-0.03 0.078,-0.046 m 7.379,-16.33 1.847,-1.071 c -0.021,8.043 -2.871,13.706 -7.459,16.372 v 0 c -0.589,0.342 -1.181,0.685 -1.767,1.029 v 0 c 4.542,-2.686 7.357,-8.331 7.379,-16.33"
         id="path71109"
         inkscape:connector-curvature="0" />
    </clipPath>
    <clipPath
       clipPathUnits="userSpaceOnUse"
       id="clipPath71031">
      <path
         d="m 953.681,2500.84 h 28.146 v -14.16 h -28.146 z"
         id="path71029"
         inkscape:connector-curvature="0" />
    </clipPath>
    <clipPath
       clipPathUnits="userSpaceOnUse"
       id="clipPath71631">
      <path
         d="m 1041.748,2621.839 1.366,-0.794 c 1.634,0.945 3.121,1.03 4.193,0.407 v 0 c -0.458,0.264 -0.911,0.531 -1.368,0.793 v 0 c -0.451,0.263 -0.975,0.4 -1.554,0.4 v 0 c -0.794,0 -1.691,-0.259 -2.637,-0.806"
         id="path71629"
         inkscape:connector-curvature="0" />
    </clipPath>
    <clipPath
       clipPathUnits="userSpaceOnUse"
       id="clipPath71571">
      <path
         d="M 0,3189 H 2006.732 V 0 H 0 Z"
         id="path71569"
         inkscape:connector-curvature="0" />
    </clipPath>
    <clipPath
       clipPathUnits="userSpaceOnUse"
       id="clipPath71559">
      <path
         d="m 1051.691,2596.476 c -1.483,-0.828 -3.841,-0.801 -5.264,0.055 v 0 c -0.69,0.414 -1.035,0.952 -1.035,1.485 v 0 l 0.047,-6.267 c 0,-0.535 0.346,-1.073 1.038,-1.489 v 0 c 1.422,-0.856 3.779,-0.88 5.262,-0.052 v 0 c 0.763,0.425 1.148,0.994 1.146,1.563 v 0 l -0.045,6.27 c 0,-0.569 -0.384,-1.138 -1.149,-1.565"
         id="path71557"
         inkscape:connector-curvature="0" />
    </clipPath>
    <clipPath
       clipPathUnits="userSpaceOnUse"
       id="clipPath71543">
      <path
         d="M 0,3189 H 2006.732 V 0 H 0 Z"
         id="path71541"
         inkscape:connector-curvature="0" />
    </clipPath>
    <clipPath
       clipPathUnits="userSpaceOnUse"
       id="clipPath71531">
      <path
         d="m 1052.958,2522.024 c 0,0.011 10e-4,0.021 10e-4,0.031 v 0 z m -8.241,-40.393 c 0,-0.569 0.367,-1.14 1.101,-1.582 v 0 c 1.514,-0.911 4.02,-0.937 5.599,-0.057 v 0 c 0.815,0.454 1.218,1.057 1.218,1.661 v 0 l 0.323,40.371 c -0.011,-0.595 -0.417,-1.186 -1.216,-1.631 v 0 c -1.58,-0.88 -4.084,-0.854 -5.597,0.057 v 0 c -0.737,0.445 -1.102,1.012 -1.102,1.584 v 0 z"
         id="path71529"
         inkscape:connector-curvature="0" />
    </clipPath>
    <clipPath
       clipPathUnits="userSpaceOnUse"
       id="clipPath71499">
      <path
         d="m 1042.06,2490.83 h 32.22 v -16.21 h -32.22 z"
         id="path71497"
         inkscape:connector-curvature="0" />
    </clipPath>
    <clipPath
       clipPathUnits="userSpaceOnUse"
       id="clipPath71459">
      <path
         d="m 1134.87,2533.07 h 19.53 v -9.82 h -19.53 z"
         id="path71457"
         inkscape:connector-curvature="0" />
    </clipPath>
  </defs>
  <sodipodi:namedview
     id="base"
     pagecolor="#ffffff"
     bordercolor="#666666"
     borderopacity="1.0"
     inkscape:pageopacity="0.0"
     inkscape:pageshadow="2"
     inkscape:zoom="7.9195959"
     inkscape:cx="3.6912925"
     inkscape:cy="16.766248"
     inkscape:document-units="mm"
     inkscape:current-layer="layer1"
     showgrid="false"
     fit-margin-top="0"
     fit-margin-left="0"
     fit-margin-right="0"
     fit-margin-bottom="0"
     inkscape:window-width="1360"
     inkscape:window-height="706"
     inkscape:window-x="-8"
     inkscape:window-y="-8"
     inkscape:window-maximized="1" />
  <metadata
     id="metadata205603">
    <rdf:RDF>
      <cc:Work
         rdf:about="">
        <dc:format>image/svg+xml</dc:format>
        <dc:type
           rdf:resource="http://purl.org/dc/dcmitype/StillImage" />
        <dc:title></dc:title>
      </cc:Work>
    </rdf:RDF>
  </metadata>
  <g
     inkscape:label="Layer 1"
     inkscape:groupmode="layer"
     id="layer1"
     transform="translate(31.052017,-173.58158)">
    <g
       id="g2020"
       transform="matrix(0.25,0,0,0.215,-22.643132,138.72692)">
      <g
         transform="matrix(0.35277777,0,0,-0.35277777,-433.99259,1081.4762)"
         id="g71453">
        <g
           id="g71455" />
        <g
           id="g71467">
          <g
             style="opacity:0.30999798"
             id="g71465"
             clip-path="url(#clipPath71459)">
            <g
               id="g71463"
               transform="translate(1154.3994,2528.1626)">
              <path
                 inkscape:connector-curvature="0"
                 id="path71461"
                 style="fill:#231f20;fill-opacity:1;fill-rule:nonzero;stroke:none"
                 d="m 0,0 c 0,-2.715 -4.37,-4.915 -9.765,-4.915 -5.391,0 -9.764,2.2 -9.764,4.915 0,2.712 4.373,4.91 9.764,4.91 C -4.37,4.91 0,2.712 0,0" />
            </g>
          </g>
        </g>
      </g>
      <g
         transform="matrix(0.35277777,0,0,-0.35277777,-29.987289,171.63816)"
         id="g71469">
        <path
           inkscape:connector-curvature="0"
           id="path71471"
           style="fill:#cccccc;fill-opacity:1;fill-rule:nonzero;stroke:none"
           d="m 0,0 -0.1,-51.013 c -0.002,-0.634 -0.418,-1.265 -1.251,-1.751 -1.674,-0.972 -4.4,-0.972 -6.084,0 -0.85,0.49 -1.275,1.133 -1.272,1.775 l 0.101,51.013 c -0.004,-0.642 0.421,-1.285 1.269,-1.775 1.686,-0.972 4.412,-0.972 6.087,0.002 C -0.418,-1.268 -0.002,-0.633 0,0" />
      </g>
      <g
         transform="matrix(0.35277777,0,0,-0.35277777,-30.435493,171.01237)"
         id="g71473">
        <path
           inkscape:connector-curvature="0"
           id="path71475"
           style="fill:#e2e2e2;fill-opacity:1;fill-rule:nonzero;stroke:none"
           d="m 0,0 c 1.688,-0.972 1.695,-2.551 0.021,-3.523 -1.675,-0.974 -4.402,-0.974 -6.087,-0.002 -1.687,0.974 -1.699,2.553 -0.02,3.527 C -4.411,0.974 -1.686,0.976 0,0" />
      </g>
      <g
         transform="matrix(0.35277777,0,0,-0.35277777,-29.800202,165.7431)"
         id="g71477">
        <path
           inkscape:connector-curvature="0"
           id="path71479"
           style="fill:#ebca53;fill-opacity:1;fill-rule:nonzero;stroke:none"
           d="m 0,0 -0.113,-19.196 c -0.002,-0.71 -0.472,-1.418 -1.401,-1.961 -1.881,-1.092 -4.933,-1.092 -6.824,0 -0.952,0.55 -1.427,1.27 -1.425,1.99 l 0.111,19.193 c 0,-0.721 0.475,-1.44 1.427,-1.988 1.889,-1.09 4.944,-1.09 6.822,0.002 C -0.471,-1.42 -0.004,-0.71 0,0" />
      </g>
      <g
         transform="matrix(0.35277777,0,0,-0.35277777,-30.302831,165.04132)"
         id="g71481">
        <path
           inkscape:connector-curvature="0"
           id="path71483"
           style="fill:#cca733;fill-opacity:1;fill-rule:nonzero;stroke:none"
           d="M 0,0 C 1.889,-1.092 1.897,-2.86 0.021,-3.95 -1.856,-5.042 -4.911,-5.042 -6.8,-3.952 -8.693,-2.86 -8.702,-1.092 -6.824,0 -4.945,1.091 -1.892,1.091 0,0" />
      </g>
      <g
         transform="matrix(0.35277777,0,0,-0.35277777,-29.987289,163.01546)"
         id="g71485">
        <path
           inkscape:connector-curvature="0"
           id="path71487"
           style="fill:#30515e;fill-opacity:1;fill-rule:nonzero;stroke:none"
           d="M 0,0 0.003,-7.113 C 0,-7.747 -0.414,-8.379 -1.245,-8.862 c -1.678,-0.974 -4.403,-0.974 -6.088,-0.003 -0.85,0.49 -1.273,1.135 -1.272,1.776 l -10e-4,7.113 c -0.004,-0.64 0.421,-1.285 1.269,-1.775 1.686,-0.974 4.412,-0.974 6.087,0.002 C -0.418,-1.268 -0.002,-0.634 0,0" />
      </g>
      <g
         transform="matrix(0.35277777,0,0,-0.35277777,-30.435493,162.37362)"
         id="g71489">
        <path
           inkscape:connector-curvature="0"
           id="path71491"
           style="fill:#e2e2e2;fill-opacity:1;fill-rule:nonzero;stroke:none"
           d="m 0,0 c 1.688,-0.972 1.695,-2.549 0.021,-3.523 -1.675,-0.974 -4.402,-0.974 -6.087,0 -1.687,0.974 -1.699,2.551 -0.02,3.527 C -4.411,0.978 -1.688,0.978 0,0" />
      </g>
    </g>
  </g>
</svg>
