<?xml version="1.0" encoding="UTF-8" standalone="no"?>
<!-- Created with Inkscape (http://www.inkscape.org/) -->

<svg
   xmlns:dc="http://purl.org/dc/elements/1.1/"
   xmlns:cc="http://creativecommons.org/ns#"
   xmlns:rdf="http://www.w3.org/1999/02/22-rdf-syntax-ns#"
   xmlns:svg="http://www.w3.org/2000/svg"
   xmlns="http://www.w3.org/2000/svg"
   xmlns:sodipodi="http://sodipodi.sourceforge.net/DTD/sodipodi-0.dtd"
   xmlns:inkscape="http://www.inkscape.org/namespaces/inkscape"
   width="3.3549209mm"
   height="11.692919mm"
   viewBox="0 0 3.354921 11.692919"
   version="1.1"
   id="svg205606"
   inkscape:version="0.92.2 (5c3e80d, 2017-08-06)"
   sodipodi:docname="street-objects-10.svg">
  <defs
     id="defs205600">
    <clipPath
       clipPathUnits="userSpaceOnUse"
       id="clipPath70727">
      <path
         d="m 457.002,2619.783 6.988,-3.963 c -0.005,1.482 1.044,3.27 2.335,3.998 v 0 l -6.989,3.961 c -1.292,-0.726 -2.339,-2.515 -2.334,-3.996"
         id="path70725"
         inkscape:connector-curvature="0" />
    </clipPath>
    <clipPath
       clipPathUnits="userSpaceOnUse"
       id="clipPath70703">
      <path
         d="M 0,3189 H 2006.732 V 0 H 0 Z"
         id="path70701"
         inkscape:connector-curvature="0" />
    </clipPath>
    <clipPath
       clipPathUnits="userSpaceOnUse"
       id="clipPath70691">
      <path
         d="m 467.144,2628.18 6.991,-3.965 c 0.643,0.363 1.228,0.396 1.654,0.154 v 0 l -6.988,3.963 c -0.18,0.102 -0.387,0.155 -0.616,0.155 v 0 c -0.314,0 -0.668,-0.099 -1.041,-0.307"
         id="path70689"
         inkscape:connector-curvature="0" />
    </clipPath>
    <clipPath
       clipPathUnits="userSpaceOnUse"
       id="clipPath70659">
      <path
         d="m 460.035,2492.34 h 28.146 v -14.16 h -28.146 z"
         id="path70657"
         inkscape:connector-curvature="0" />
    </clipPath>
    <clipPath
       clipPathUnits="userSpaceOnUse"
       id="clipPath70783">
      <path
         d="m 521.15,2491.13 h 28.145 v -14.17 H 521.15 Z"
         id="path70781"
         inkscape:connector-curvature="0" />
    </clipPath>
    <clipPath
       clipPathUnits="userSpaceOnUse"
       id="clipPath70995">
      <path
         d="m 613.925,2617.959 1.194,-0.692 c 1.427,0.821 2.723,0.9 3.661,0.355 v 0 c -0.4,0.233 -0.796,0.462 -1.196,0.693 v 0 c -0.392,0.229 -0.849,0.348 -1.353,0.348 v 0 c -0.694,0 -1.478,-0.226 -2.306,-0.704"
         id="path70993"
         inkscape:connector-curvature="0" />
    </clipPath>
    <clipPath
       clipPathUnits="userSpaceOnUse"
       id="clipPath70963">
      <path
         d="M 0,3189 H 2006.732 V 0 H 0 Z"
         id="path70961"
         inkscape:connector-curvature="0" />
    </clipPath>
    <clipPath
       clipPathUnits="userSpaceOnUse"
       id="clipPath70951">
      <path
         d="m 621.298,2594.897 c -1.297,-0.722 -3.355,-0.7 -4.596,0.047 v 0 c -0.607,0.364 -0.905,0.831 -0.909,1.298 v 0 l 0.043,-5.474 c 0.003,-0.468 0.3,-0.936 0.904,-1.298 v 0 c 1.246,-0.75 3.303,-0.772 4.599,-0.049 v 0 c 0.666,0.371 1.002,0.868 1,1.364 v 0 l -0.039,5.477 c 0,-0.496 -0.336,-0.993 -1.002,-1.365"
         id="path70949"
         inkscape:connector-curvature="0" />
    </clipPath>
    <clipPath
       clipPathUnits="userSpaceOnUse"
       id="clipPath70935">
      <path
         d="M 0,3189 H 2006.732 V 0 H 0 Z"
         id="path70933"
         inkscape:connector-curvature="0" />
    </clipPath>
    <clipPath
       clipPathUnits="userSpaceOnUse"
       id="clipPath70923">
      <path
         d="m 621.514,2528.221 c -1.378,-0.769 -3.57,-0.747 -4.89,0.048 v 0 c -0.64,0.385 -0.96,0.882 -0.963,1.382 v 0 l 0.044,-34.963 c 0,-0.497 0.321,-0.994 0.963,-1.382 v 0 c 1.322,-0.795 3.512,-0.817 4.889,-0.049 v 0 c 0.71,0.395 1.065,0.925 1.065,1.452 v 0 l -0.043,34.963 c 0,-0.532 -0.355,-1.057 -1.065,-1.451"
         id="path70921"
         inkscape:connector-curvature="0" />
    </clipPath>
    <clipPath
       clipPathUnits="userSpaceOnUse"
       id="clipPath70895">
      <path
         d="m 613.479,2502.16 h 28.146 V 2488 h -28.146 z"
         id="path70893"
         inkscape:connector-curvature="0" />
    </clipPath>
    <clipPath
       clipPathUnits="userSpaceOnUse"
       id="clipPath71403">
      <path
         d="m 660.563,2585.094 c -1.298,-0.722 -3.354,-0.701 -4.599,0.049 v 0 c -0.603,0.362 -0.904,0.83 -0.904,1.296 v 0 l 0.042,-5.475 c 0,-0.469 0.3,-0.935 0.903,-1.298 v 0 c 1.245,-0.75 3.303,-0.77 4.598,-0.048 v 0 c 0.668,0.374 1.004,0.866 1.002,1.366 v 0 l -0.044,5.475 c 0.003,-0.495 -0.33,-0.994 -0.998,-1.365"
         id="path71401"
         inkscape:connector-curvature="0" />
    </clipPath>
    <clipPath
       clipPathUnits="userSpaceOnUse"
       id="clipPath71387">
      <path
         d="M 0,3189 H 2006.732 V 0 H 0 Z"
         id="path71385"
         inkscape:connector-curvature="0" />
    </clipPath>
    <clipPath
       clipPathUnits="userSpaceOnUse"
       id="clipPath71347">
      <path
         d="M 652.694,2493.36 H 680.84 V 2479.2 H 652.694 Z"
         id="path71345"
         inkscape:connector-curvature="0" />
    </clipPath>
    <clipPath
       clipPathUnits="userSpaceOnUse"
       id="clipPath71315">
      <path
         d="m 771.718,2529.918 c -1.379,-0.769 -3.571,-0.747 -4.891,0.049 v 0 c -0.642,0.387 -0.962,0.884 -0.962,1.383 v 0 l -0.284,-34.963 c 0,-0.499 0.318,-0.996 0.961,-1.382 v 0 c 1.324,-0.797 3.513,-0.817 4.89,-0.049 v 0 c 0.708,0.394 1.068,0.923 1.066,1.448 v 0 l 0.283,34.965 c 0,-0.529 -0.357,-1.056 -1.063,-1.451"
         id="path71313"
         inkscape:connector-curvature="0" />
    </clipPath>
    <clipPath
       clipPathUnits="userSpaceOnUse"
       id="clipPath71279">
      <path
         d="m 764.006,2504.18 h 28.147 v -14.16 h -28.147 z"
         id="path71277"
         inkscape:connector-curvature="0" />
    </clipPath>
    <clipPath
       clipPathUnits="userSpaceOnUse"
       id="clipPath71235">
      <path
         d="m 838.289,2627.383 c -0.615,-0.361 -1.234,-0.717 -1.846,-1.074 v 0 c 5.155,2.995 12.292,2.581 20.15,-1.959 v 0 l 1.849,1.074 c -4.556,2.629 -8.867,3.874 -12.69,3.874 v 0 c -2.776,0 -5.295,-0.656 -7.463,-1.915"
         id="path71233"
         inkscape:connector-curvature="0" />
    </clipPath>
    <clipPath
       clipPathUnits="userSpaceOnUse"
       id="clipPath71223">
      <path
         d="m 838.415,2622.911 c -4.587,-2.666 -7.441,-8.328 -7.462,-16.371 v 0 l 1.845,1.071 c 0.024,8.044 2.874,13.706 7.462,16.373 v 0 c -0.615,-0.358 -1.229,-0.715 -1.845,-1.073"
         id="path71221"
         inkscape:connector-curvature="0" />
    </clipPath>
    <clipPath
       clipPathUnits="userSpaceOnUse"
       id="clipPath71167">
      <path
         d="m 824.903,2500.79 h 28.146 v -14.16 h -28.146 z"
         id="path71165"
         inkscape:connector-curvature="0" />
    </clipPath>
    <clipPath
       clipPathUnits="userSpaceOnUse"
       id="clipPath71123">
      <path
         d="m 931.281,2625.369 1.848,-1.073 c 7.861,4.539 14.996,4.954 20.151,1.958 v 0 c -0.616,0.357 -1.231,0.715 -1.846,1.074 v 0 c -2.169,1.259 -4.688,1.915 -7.465,1.915 v 0 c -3.823,0 -8.134,-1.244 -12.688,-3.874"
         id="path71121"
         inkscape:connector-curvature="0" />
    </clipPath>
    <clipPath
       clipPathUnits="userSpaceOnUse"
       id="clipPath71111">
      <path
         d="m 949.541,2623.886 c -0.026,0.016 -0.052,0.031 -0.078,0.046 v 0 c 0.026,-0.015 0.052,-0.03 0.078,-0.046 m 7.379,-16.33 1.847,-1.071 c -0.021,8.043 -2.871,13.706 -7.459,16.372 v 0 c -0.589,0.342 -1.181,0.685 -1.767,1.029 v 0 c 4.542,-2.686 7.357,-8.331 7.379,-16.33"
         id="path71109"
         inkscape:connector-curvature="0" />
    </clipPath>
    <clipPath
       clipPathUnits="userSpaceOnUse"
       id="clipPath71031">
      <path
         d="m 953.681,2500.84 h 28.146 v -14.16 h -28.146 z"
         id="path71029"
         inkscape:connector-curvature="0" />
    </clipPath>
    <clipPath
       clipPathUnits="userSpaceOnUse"
       id="clipPath71631">
      <path
         d="m 1041.748,2621.839 1.366,-0.794 c 1.634,0.945 3.121,1.03 4.193,0.407 v 0 c -0.458,0.264 -0.911,0.531 -1.368,0.793 v 0 c -0.451,0.263 -0.975,0.4 -1.554,0.4 v 0 c -0.794,0 -1.691,-0.259 -2.637,-0.806"
         id="path71629"
         inkscape:connector-curvature="0" />
    </clipPath>
    <clipPath
       clipPathUnits="userSpaceOnUse"
       id="clipPath71571">
      <path
         d="M 0,3189 H 2006.732 V 0 H 0 Z"
         id="path71569"
         inkscape:connector-curvature="0" />
    </clipPath>
    <clipPath
       clipPathUnits="userSpaceOnUse"
       id="clipPath71559">
      <path
         d="m 1051.691,2596.476 c -1.483,-0.828 -3.841,-0.801 -5.264,0.055 v 0 c -0.69,0.414 -1.035,0.952 -1.035,1.485 v 0 l 0.047,-6.267 c 0,-0.535 0.346,-1.073 1.038,-1.489 v 0 c 1.422,-0.856 3.779,-0.88 5.262,-0.052 v 0 c 0.763,0.425 1.148,0.994 1.146,1.563 v 0 l -0.045,6.27 c 0,-0.569 -0.384,-1.138 -1.149,-1.565"
         id="path71557"
         inkscape:connector-curvature="0" />
    </clipPath>
    <clipPath
       clipPathUnits="userSpaceOnUse"
       id="clipPath71543">
      <path
         d="M 0,3189 H 2006.732 V 0 H 0 Z"
         id="path71541"
         inkscape:connector-curvature="0" />
    </clipPath>
    <clipPath
       clipPathUnits="userSpaceOnUse"
       id="clipPath71531">
      <path
         d="m 1052.958,2522.024 c 0,0.011 10e-4,0.021 10e-4,0.031 v 0 z m -8.241,-40.393 c 0,-0.569 0.367,-1.14 1.101,-1.582 v 0 c 1.514,-0.911 4.02,-0.937 5.599,-0.057 v 0 c 0.815,0.454 1.218,1.057 1.218,1.661 v 0 l 0.323,40.371 c -0.011,-0.595 -0.417,-1.186 -1.216,-1.631 v 0 c -1.58,-0.88 -4.084,-0.854 -5.597,0.057 v 0 c -0.737,0.445 -1.102,1.012 -1.102,1.584 v 0 z"
         id="path71529"
         inkscape:connector-curvature="0" />
    </clipPath>
    <clipPath
       clipPathUnits="userSpaceOnUse"
       id="clipPath71499">
      <path
         d="m 1042.06,2490.83 h 32.22 v -16.21 h -32.22 z"
         id="path71497"
         inkscape:connector-curvature="0" />
    </clipPath>
    <clipPath
       clipPathUnits="userSpaceOnUse"
       id="clipPath71459">
      <path
         d="m 1134.87,2533.07 h 19.53 v -9.82 h -19.53 z"
         id="path71457"
         inkscape:connector-curvature="0" />
    </clipPath>
    <clipPath
       clipPathUnits="userSpaceOnUse"
       id="clipPath71951">
      <path
         d="m 1187.11,2640.9 h 2.83 v -2.82 h -2.83 z"
         id="path71949"
         inkscape:connector-curvature="0" />
    </clipPath>
    <clipPath
       clipPathUnits="userSpaceOnUse"
       id="clipPath71919">
      <path
         d="m 1173.2,2622.469 c -0.01,-2.304 1.511,-4.608 4.555,-6.364 v 0 c 6.056,-3.494 15.826,-3.494 21.846,0 v 0 c 2.981,1.737 4.476,4 4.48,6.273 v 0 l 0.01,1.527 c -0.01,-2.272 -1.498,-4.54 -4.483,-6.272 v 0 c -6.019,-3.501 -15.785,-3.501 -21.844,0 v 0 c -3.039,1.754 -4.559,4.059 -4.553,6.359 v 0 l -0.01,-1.523 z"
         id="path71917"
         inkscape:connector-curvature="0" />
    </clipPath>
    <clipPath
       clipPathUnits="userSpaceOnUse"
       id="clipPath71899">
      <path
         d="M 0,3189 H 2006.732 V 0 H 0 Z"
         id="path71897"
         inkscape:connector-curvature="0" />
    </clipPath>
    <clipPath
       clipPathUnits="userSpaceOnUse"
       id="clipPath71887">
      <path
         d="m 1177.626,2617.528 c 0,-1.642 1.081,-3.285 3.248,-4.538 v 0 c 4.323,-2.497 11.29,-2.497 15.584,0 v 0 c 2.131,1.238 3.195,2.854 3.199,4.475 v 0 1.089 c -0.01,-1.618 -1.069,-3.237 -3.2,-4.477 v 0 c -4.291,-2.494 -11.259,-2.494 -15.585,0 v 0 c -2.167,1.255 -3.252,2.895 -3.249,4.539 v 0 l -10e-4,-1.088 z"
         id="path71885"
         inkscape:connector-curvature="0" />
    </clipPath>
    <clipPath
       clipPathUnits="userSpaceOnUse"
       id="clipPath71871">
      <path
         d="M 0,3189 H 2006.732 V 0 H 0 Z"
         id="path71869"
         inkscape:connector-curvature="0" />
    </clipPath>
    <clipPath
       clipPathUnits="userSpaceOnUse"
       id="clipPath71859">
      <path
         d="m 1193.538,2588.494 c 0,0.041 0,0.082 0,0.124 v 0 c -10e-4,-0.036 0,-0.078 0,-0.124 m -7.681,-2.925 c 1.411,-0.864 3.477,-1.004 5.137,-0.343 v 0 c 0.539,0.213 1.301,0.622 1.861,1.372 v 0 c 0.585,0.776 0.665,1.504 0.683,1.896 v 0 c -0.051,-0.686 -0.54,-1.36 -1.463,-1.872 v 0 c -1.897,-1.059 -4.906,-1.028 -6.727,0.065 v 0 c -0.883,0.531 -1.322,1.218 -1.328,1.902 v 0 c 0.01,-0.71 0.248,-2.046 1.837,-3.02"
         id="path71857"
         inkscape:connector-curvature="0" />
    </clipPath>
    <clipPath
       clipPathUnits="userSpaceOnUse"
       id="clipPath71843">
      <path
         d="M 0,3189 H 2006.732 V 0 H 0 Z"
         id="path71841"
         inkscape:connector-curvature="0" />
    </clipPath>
    <clipPath
       clipPathUnits="userSpaceOnUse"
       id="clipPath71831">
      <path
         d="m 1192.537,2544.685 c -2.095,-1.165 -5.421,-1.133 -7.428,0.075 v 0 c -0.974,0.588 -1.459,1.344 -1.461,2.1 v 0 l 0.068,-23.266 c 0,-0.756 0.486,-1.512 1.457,-2.1 v 0 c 2.011,-1.208 5.336,-1.242 7.429,-0.075 v 0 c 1.076,0.602 1.619,1.403 1.617,2.205 v 0 l -0.068,23.266 c 0,-0.802 -0.538,-1.604 -1.614,-2.205"
         id="path71829"
         inkscape:connector-curvature="0" />
    </clipPath>
    <clipPath
       clipPathUnits="userSpaceOnUse"
       id="clipPath71803">
      <path
         d="m 1177.58,2507.07 h 33.66 v -19.5 h -33.66 z"
         id="path71801"
         inkscape:connector-curvature="0" />
    </clipPath>
  </defs>
  <sodipodi:namedview
     id="base"
     pagecolor="#ffffff"
     bordercolor="#666666"
     borderopacity="1.0"
     inkscape:pageopacity="0.0"
     inkscape:pageshadow="2"
     inkscape:zoom="0.35"
     inkscape:cx="6.340017"
     inkscape:cy="22.096849"
     inkscape:document-units="mm"
     inkscape:current-layer="layer1"
     showgrid="false"
     fit-margin-top="0"
     fit-margin-left="0"
     fit-margin-right="0"
     fit-margin-bottom="0"
     inkscape:window-width="1360"
     inkscape:window-height="706"
     inkscape:window-x="-8"
     inkscape:window-y="-8"
     inkscape:window-maximized="1" />
  <metadata
     id="metadata205603">
    <rdf:RDF>
      <cc:Work
         rdf:about="">
        <dc:format>image/svg+xml</dc:format>
        <dc:type
           rdf:resource="http://purl.org/dc/dcmitype/StillImage" />
        <dc:title></dc:title>
      </cc:Work>
    </rdf:RDF>
  </metadata>
  <g
     inkscape:label="Layer 1"
     inkscape:groupmode="layer"
     id="layer1"
     transform="translate(79.162576,-142.98688)">
    <g
       id="g2372"
       transform="matrix(0.25,0,0,0.215,-58.113837,116.83417)">
      <g
         transform="matrix(0.35277777,0,0,-0.35277777,-498.07382,1053.5866)"
         id="g71797">
        <g
           id="g71799" />
        <g
           id="g71811">
          <g
             style="opacity:0.30999798"
             id="g71809"
             clip-path="url(#clipPath71803)">
            <g
               id="g71807"
               transform="translate(1206.5566,2504.0928)">
              <path
                 inkscape:connector-curvature="0"
                 id="path71805"
                 style="fill:#231f20;fill-opacity:1;fill-rule:nonzero;stroke:none"
                 d="m 0,0 c -6.434,3.872 -17.087,3.98 -23.793,0.24 -6.708,-3.739 -6.929,-9.909 -0.492,-13.782 6.432,-3.875 17.088,-3.981 23.795,-0.243 C 6.213,-10.044 6.436,-3.872 0,0" />
            </g>
          </g>
        </g>
      </g>
      <g
         transform="matrix(0.35277777,0,0,-0.35277777,-75.125299,165.32713)"
         id="g71813">
        <path
           inkscape:connector-curvature="0"
           id="path71815"
           style="fill:#30515e;fill-opacity:1;fill-rule:nonzero;stroke:none"
           d="m 0,0 c -0.257,11.434 -16.381,13.307 -19.361,2.209 -0.366,-1.37 -0.262,-1.712 -0.209,-20.643 0.004,-1.411 0.913,-2.825 2.732,-3.919 3.751,-2.259 9.963,-2.32 13.873,-0.142 2.013,1.125 3.025,2.621 3.02,4.116 z" />
      </g>
      <g
         transform="matrix(0.35277777,0,0,-0.35277777,-77.294671,162.56865)"
         id="g71817">
        <path
           inkscape:connector-curvature="0"
           id="path71819"
           style="fill:#455f77;fill-opacity:1;fill-rule:nonzero;stroke:none"
           d="m 0,0 c 2.007,-1.207 1.937,-3.133 -0.158,-4.301 -2.093,-1.167 -5.418,-1.133 -7.429,0.074 -2.004,1.212 -1.936,3.135 0.157,4.303 C -5.336,1.244 -2.011,1.209 0,0" />
      </g>
      <g
         transform="matrix(0.35277777,0,0,-0.35277777,-79.521272,155.23094)"
         id="g71821">
        <path
           inkscape:connector-curvature="0"
           id="path71823"
           style="fill:#30515e;fill-opacity:1;fill-rule:nonzero;stroke:none"
           d="M 0,0 C -3.062,1.843 1.742,4.629 4.897,2.732 6.195,1.95 6.151,0.706 4.797,-0.048 3.446,-0.804 1.298,-0.78 0,0 M -2.8,0.339 C -2.798,-0.417 -2.313,-1.172 -1.339,-1.76 0.668,-2.968 3.993,-3 6.089,-1.834 7.165,-1.233 7.707,-0.432 7.703,0.37 7.595,5.013 -2.639,5.163 -2.8,0.339" />
      </g>
      <g
         transform="matrix(0.35277777,0,0,-0.35277777,-498.07382,1053.5866)"
         id="g71825">
        <g
           clip-path="url(#clipPath71831)"
           id="g71827">
          <g
             transform="translate(1183.7158,2523.5938)"
             id="g71833">
            <path
               inkscape:connector-curvature="0"
               id="path71835"
               style="fill:#4f6e8a;fill-opacity:1;fill-rule:nonzero;stroke:none"
               d="m 0,0 -0.067,23.266 c 0.002,-0.756 0.486,-1.512 1.461,-2.1 2.006,-1.208 5.332,-1.24 7.427,-0.074 1.076,0.601 1.618,1.403 1.615,2.204 L 10.503,0.03 C 10.505,-0.771 9.962,-1.573 8.886,-2.174 6.793,-3.342 3.468,-3.307 1.457,-2.1 0.486,-1.512 0,-0.756 0,0" />
          </g>
        </g>
      </g>
      <g
         transform="matrix(0.35277777,0,0,-0.35277777,-498.07382,1053.5866)"
         id="g71837">
        <g
           clip-path="url(#clipPath71843)"
           id="g71839">
          <g
             transform="translate(1192.1797,2586.814)"
             id="g71845">
            <path
               inkscape:connector-curvature="0"
               id="path71847"
               style="fill:#4f6e8a;fill-opacity:1;fill-rule:nonzero;stroke:none"
               d="m 0,0 c -0.002,0.49 -6.784,-0.505 -6.786,-0.02 l 0.109,-38.919 c 0.002,-0.486 0.316,-0.976 0.946,-1.355 1.297,-0.78 3.446,-0.804 4.796,-0.048 0.698,0.387 1.046,0.904 1.046,1.423 C 0.092,-32.985 0.012,-3.813 0,0" />
          </g>
          <g
             transform="translate(1185.418,2586.6548)"
             id="g71849">
            <path
               inkscape:connector-curvature="0"
               id="path71851"
               style="fill:#30515e;fill-opacity:1;fill-rule:nonzero;stroke:none"
               d="M 0,0 C 1.825,-1.057 4.783,-1.079 6.657,-0.033 6.692,-0.015 6.712,0.007 6.744,0.024 6.461,-2.349 0.365,-2.456 0,0 m 8.107,1.647 c 0,0.011 0,0.031 0.003,0.043 0.018,0.245 0.009,4.201 -0.003,4.43 L 8.1,6.22 C 8.095,6.255 8.089,6.301 8.084,6.335 7.944,7.107 7.503,7.645 6.847,8.089 6.818,8.111 6.795,8.129 6.767,8.146 L 6.756,8.218 C 6.742,8.268 6.723,8.333 6.71,8.386 L 6.668,8.493 C 6.663,8.501 6.659,8.505 6.657,8.512 6.655,8.521 6.65,8.525 6.648,8.534 L 6.646,8.536 C 6.437,9.031 5.64,9.701 4.657,9.898 4.398,10.028 3.199,10.157 2.183,9.928 2.176,9.928 2.163,9.926 2.156,9.924 L 2.148,9.919 C 2.073,9.904 2.001,9.887 1.93,9.867 L 1.923,9.863 C 0.603,9.501 0.015,8.728 -0.07,8.133 -0.104,8.113 -0.171,8.063 -0.192,8.05 -0.198,8.043 -0.205,8.037 -0.214,8.031 -0.378,7.915 -0.53,7.784 -0.652,7.663 c 0,0 -0.002,-0.003 -0.004,-0.003 C -0.77,7.54 -0.818,7.492 -0.924,7.355 -0.924,7.351 -0.941,7.329 -0.943,7.325 -1.129,7.083 -1.269,6.78 -1.339,6.507 L -1.364,6.408 C -1.383,6.312 -1.385,6.279 -1.397,6.192 -1.423,5.917 -1.401,4.318 -1.399,3.974 V 3.939 c 0,-0.281 0.002,-1.926 0.01,-2.207 0.006,-0.065 0.016,-0.152 0.023,-0.217 L -1.334,1.314 C -0.367,-3 7.27,-2.708 8.05,1.274 8.057,1.32 8.069,1.364 8.078,1.408 8.078,1.42 8.08,1.436 8.082,1.447 L 8.097,1.571 C 8.1,1.588 8.104,1.605 8.105,1.625 Z" />
          </g>
        </g>
      </g>
      <g
         transform="matrix(0.35277777,0,0,-0.35277777,-498.07382,1053.5866)"
         id="g71853">
        <g
           clip-path="url(#clipPath71859)"
           id="g71855">
          <g
             transform="translate(1185.8574,2585.5698)"
             id="g71861">
            <path
               inkscape:connector-curvature="0"
               id="path71863"
               style="fill:#30515e;fill-opacity:1;fill-rule:nonzero;stroke:none"
               d="M 0,0 C -1.171,0.717 -1.784,1.726 -1.837,3.004 -1.832,2.335 -1.393,1.649 -0.51,1.118 1.312,0.024 4.32,-0.006 6.218,1.052 7.196,1.595 7.687,2.32 7.685,3.048 7.579,-0.656 2.61,-1.599 0,0" />
          </g>
        </g>
      </g>
      <g
         transform="matrix(0.35277777,0,0,-0.35277777,-498.07382,1053.5866)"
         id="g71865">
        <g
           clip-path="url(#clipPath71871)"
           id="g71867">
          <g
             transform="translate(1191.3564,2596.3716)"
             id="g71873">
            <path
               inkscape:connector-curvature="0"
               id="path71875"
               style="fill:#ebca53;fill-opacity:1;fill-rule:nonzero;stroke:none"
               d="M 0,0 C 0,-0.002 -0.003,-0.002 -0.003,-0.002 V 0 Z m 7.261,13.765 c 0.009,0.074 0.015,0.144 0.021,0.22 0.017,0.224 0.028,0.466 0.035,0.725 0,0.018 0.003,0.037 0.003,0.055 0,0.006 -0.003,0.015 -0.003,0.019 0,0.018 0.003,0.031 0.003,0.046 0,0.194 -0.038,12.969 -0.038,12.806 0,7.536 -18.999,7.453 -19.74,0.309 -0.011,-0.099 -0.023,-0.202 -0.025,-0.304 0,-0.02 -0.004,-0.039 -0.004,-0.059 0.004,-1.288 0.032,-10.87 0.034,-12.811 0,-0.05 0.009,-0.098 0.009,-0.148 0,0.029 -0.007,0.057 -0.009,0.085 0,-0.028 0.009,-0.056 0.009,-0.085 0.006,-0.396 0.039,-0.771 0.084,-1.133 0.089,-0.725 0.234,-1.377 0.417,-1.954 0.12,-0.37 0.241,-0.688 0.363,-0.974 0.002,-0.002 0.002,-0.004 0.002,-0.007 0.564,-1.32 1.266,-2.311 2.127,-3.193 0.433,-0.447 0.867,-0.815 1.301,-1.127 0.049,-0.041 0.104,-0.078 0.159,-0.117 0.033,-0.022 0.065,-0.046 0.097,-0.07 0.038,-0.022 0.07,-0.048 0.103,-0.07 1.432,-0.976 2.113,-2.492 2.364,-4.102 0.002,-0.013 0.004,-0.02 0.007,-0.033 0.054,-0.362 0.091,-0.756 0.102,-1.175 0.002,-1.219 -0.172,-1.903 0.782,-2.479 1.067,-0.64 2.834,-0.662 3.945,-0.039 1.089,0.608 0.862,1.41 0.859,2.534 C 0.274,1.081 0.308,1.453 0.354,1.8 0.51,3.078 1.274,4.972 2.247,5.699 2.241,5.699 2.239,5.697 2.239,5.697 H 2.234 C 2.227,5.69 2.213,5.684 2.203,5.678 2.599,5.926 3.009,6.194 3.49,6.597 3.524,6.623 3.556,6.651 3.59,6.678 3.699,6.771 3.808,6.869 3.926,6.976 5.407,8.338 6.361,10 6.874,11.743 c 0.006,0.022 0.017,0.048 0.023,0.07 0.017,0.061 0.026,0.108 0.042,0.167 0.151,0.582 0.269,1.184 0.322,1.785" />
          </g>
          <g
             transform="translate(1199.6611,2618.5547)"
             id="g71877">
            <path
               inkscape:connector-curvature="0"
               id="path71879"
               style="fill:#30515e;fill-opacity:1;fill-rule:nonzero;stroke:none"
               d="m 0,0 -0.004,-1.089 c -0.004,-1.621 -1.067,-3.238 -3.199,-4.475 -4.294,-2.497 -11.261,-2.497 -15.584,0 -2.167,1.252 -3.252,2.895 -3.248,4.538 l 0.002,1.087 c -0.004,-1.643 1.081,-3.284 3.249,-4.539 4.325,-2.494 11.293,-2.494 15.584,0 2.131,1.24 3.194,2.859 3.2,4.478" />
          </g>
        </g>
      </g>
      <g
         transform="matrix(0.35277777,0,0,-0.35277777,-498.07382,1053.5866)"
         id="g71881">
        <g
           clip-path="url(#clipPath71887)"
           id="g71883">
          <g
             transform="translate(1199.6611,2618.5547)"
             id="g71889">
            <path
               inkscape:connector-curvature="0"
               id="path71891"
               style="fill:#3c5a70;fill-opacity:1;fill-rule:nonzero;stroke:none"
               d="m 0,0 -0.004,-1.089 c -0.004,-1.621 -1.067,-3.238 -3.199,-4.475 -4.294,-2.497 -11.261,-2.497 -15.584,0 -2.167,1.252 -3.252,2.895 -3.248,4.538 l 0.002,1.087 c -0.004,-1.643 1.081,-3.284 3.249,-4.539 4.325,-2.494 11.293,-2.494 15.584,0 2.131,1.24 3.194,2.859 3.2,4.478" />
          </g>
        </g>
      </g>
      <g
         transform="matrix(0.35277777,0,0,-0.35277777,-498.07382,1053.5866)"
         id="g71893">
        <g
           clip-path="url(#clipPath71899)"
           id="g71895">
          <g
             transform="translate(1196.4043,2623.1016)"
             id="g71901">
            <path
               inkscape:connector-curvature="0"
               id="path71903"
               style="fill:#4f6e8a;fill-opacity:1;fill-rule:nonzero;stroke:none"
               d="m 0,0 c 4.32,-2.495 4.345,-6.534 0.057,-9.024 -4.291,-2.495 -11.259,-2.495 -15.584,0 -4.315,2.49 -4.336,6.529 -0.041,9.024 C -11.281,2.49 -4.316,2.488 0,0" />
          </g>
          <g
             transform="translate(1201.9941,2621.1821)"
             id="g71905">
            <path
               inkscape:connector-curvature="0"
               id="path71907"
               style="fill:#30515e;fill-opacity:1;fill-rule:nonzero;stroke:none"
               d="m 0,0 -0.004,-1.318 c -0.004,-1.963 -1.294,-3.926 -3.874,-5.423 -5.204,-3.024 -13.651,-3.024 -18.886,0 -2.63,1.516 -3.943,3.51 -3.939,5.499 l 0.005,1.32 c -0.005,-1.991 1.308,-3.982 3.938,-5.501 5.238,-3.024 13.68,-3.024 18.884,0 2.58,1.499 3.87,3.46 3.876,5.423" />
          </g>
          <g
             transform="translate(1198.0508,2626.6943)"
             id="g71909">
            <path
               inkscape:connector-curvature="0"
               id="path71911"
               style="fill:#4f6e8a;fill-opacity:1;fill-rule:nonzero;stroke:none"
               d="m 0,0 c 5.233,-3.024 5.263,-7.917 0.067,-10.935 -5.204,-3.024 -13.646,-3.024 -18.883,0 C -24.045,-7.917 -24.074,-3.027 -18.868,0 -13.675,3.018 -5.23,3.018 0,0" />
          </g>
        </g>
      </g>
      <g
         transform="matrix(0.35277777,0,0,-0.35277777,-498.07382,1053.5866)"
         id="g71913">
        <g
           clip-path="url(#clipPath71919)"
           id="g71915">
          <g
             transform="translate(1204.0859,2623.9053)"
             id="g71921">
            <path
               inkscape:connector-curvature="0"
               id="path71923"
               style="fill:#587c87;fill-opacity:1;fill-rule:nonzero;stroke:none"
               d="m 0,0 -0.005,-1.527 c -0.004,-2.273 -1.499,-4.536 -4.48,-6.272 -6.02,-3.495 -15.789,-3.495 -21.846,0 -3.043,1.756 -4.56,4.058 -4.555,6.363 l 0.006,1.523 c -0.006,-2.3 1.515,-4.606 4.553,-6.359 6.058,-3.501 15.826,-3.501 21.844,0 2.985,1.732 4.476,4 4.483,6.272" />
          </g>
        </g>
      </g>
      <g
         transform="matrix(0.35277777,0,0,-0.35277777,-74.909293,125.68305)"
         id="g71933">
        <path
           inkscape:connector-curvature="0"
           id="path71935"
           style="fill:#4b737f;fill-opacity:1;fill-rule:nonzero;stroke:none"
           d="m 0,0 c 6.057,-3.497 6.09,-9.154 0.081,-12.645 -6.018,-3.501 -15.785,-3.501 -21.844,0 C -27.81,-9.157 -27.84,-3.497 -21.821,0 -15.816,3.495 -6.05,3.49 0,0" />
      </g>
      <g
         transform="matrix(0.35277777,0,0,-0.35277777,-74.400447,128.2131)"
         id="g71937">
        <path
           inkscape:connector-curvature="0"
           id="path71939"
           style="fill:#30515e;fill-opacity:1;fill-rule:nonzero;stroke:none"
           d="m 0,0 c 0.058,0.128 0.118,0.255 0.163,0.387 0.152,0.426 0.254,0.983 0.26,1.41 v 1.469 c -0.044,1.041 -0.09,1.797 -0.349,2.869 -0.196,0.703 -0.26,1.213 -0.83,2.384 -0.113,0.239 -0.237,0.483 -0.37,0.727 -0.623,1.103 -1.133,1.884 -2.333,3.007 -0.689,0.653 -1.194,1.008 -1.173,0.993 -0.015,0.011 -0.03,0.022 -0.045,0.03 -0.005,0.005 -0.011,0.011 -0.017,0.014 -0.812,0.575 -1.543,1.011 -2.545,1.431 -0.395,0.17 -0.828,0.324 -1.301,0.466 -0.089,0.026 -0.176,0.055 -0.267,0.079 -1.059,0.29 -2.254,0.436 -3.197,0.451 -1.087,0.017 -2.161,-0.112 -3.216,-0.382 -1.072,-0.27 -2.108,-0.679 -3.062,-1.213 -1.358,-0.743 -3.274,-2.135 -4.658,-4.521 -0.235,-0.398 -0.419,-0.751 -0.543,-1.013 -0.022,-0.048 -0.664,-1.704 -0.675,-1.741 -0.04,-0.148 -0.072,-0.283 -0.11,-0.413 -0.026,-0.099 -0.226,-0.957 -0.272,-1.282 -0.092,-0.569 -0.128,-1.124 -0.15,-1.96 0,-0.464 0.002,-0.926 0.002,-1.393 0,-0.398 0.113,-1 0.207,-1.283 0.274,-0.9 0.854,-1.712 1.505,-2.352 0.604,-0.593 1.174,-1.014 1.787,-1.38 4.799,-2.891 12.749,-2.969 17.753,-0.179 0.726,0.405 1.694,1.085 2.33,1.765 C -0.77,-1.271 -0.322,-0.682 0,0" />
      </g>
      <g
         transform="matrix(0.35277777,0,0,-0.35277777,-77.64916,122.68014)"
         id="g71941">
        <path
           inkscape:connector-curvature="0"
           id="path71943"
           style="fill:#4b737f;fill-opacity:1;fill-rule:nonzero;stroke:none"
           d="m 0,0 c 0,-1.627 -1.318,-2.948 -2.947,-2.948 -1.628,0 -2.946,1.321 -2.946,2.948 0,1.627 1.318,2.947 2.946,2.947 C -1.318,2.947 0,1.627 0,0" />
      </g>
      <g
         transform="matrix(0.35277777,0,0,-0.35277777,-498.07382,1053.5866)"
         id="g71945">
        <g
           id="g71947" />
        <g
           id="g71959">
          <g
             style="opacity:0.30000299"
             id="g71957"
             clip-path="url(#clipPath71951)">
            <g
               id="g71955"
               transform="translate(1189.9355,2639.4893)">
              <path
                 inkscape:connector-curvature="0"
                 id="path71953"
                 style="fill:#c9c9c9;fill-opacity:1;fill-rule:nonzero;stroke:none"
                 d="m 0,0 c 0,-0.78 -0.634,-1.414 -1.416,-1.414 -0.779,0 -1.414,0.634 -1.414,1.414 0,0.78 0.635,1.414 1.414,1.414 C -0.634,1.414 0,0.78 0,0" />
            </g>
          </g>
        </g>
      </g>
    </g>
  </g>
</svg>
