<?xml version="1.0" encoding="UTF-8" standalone="no"?>
<!-- Created with Inkscape (http://www.inkscape.org/) -->

<svg
   xmlns:dc="http://purl.org/dc/elements/1.1/"
   xmlns:cc="http://creativecommons.org/ns#"
   xmlns:rdf="http://www.w3.org/1999/02/22-rdf-syntax-ns#"
   xmlns:svg="http://www.w3.org/2000/svg"
   xmlns="http://www.w3.org/2000/svg"
   xmlns:sodipodi="http://sodipodi.sourceforge.net/DTD/sodipodi-0.dtd"
   xmlns:inkscape="http://www.inkscape.org/namespaces/inkscape"
   width="3.1016006mm"
   height="11.561404mm"
   viewBox="0 0 3.1016007 11.561404"
   version="1.1"
   id="svg205606"
   inkscape:version="0.92.2 (5c3e80d, 2017-08-06)"
   sodipodi:docname="street-objects-2.svg">
  <defs
     id="defs205600">
    <clipPath
       clipPathUnits="userSpaceOnUse"
       id="clipPath70727">
      <path
         d="m 457.002,2619.783 6.988,-3.963 c -0.005,1.482 1.044,3.27 2.335,3.998 v 0 l -6.989,3.961 c -1.292,-0.726 -2.339,-2.515 -2.334,-3.996"
         id="path70725"
         inkscape:connector-curvature="0" />
    </clipPath>
    <clipPath
       clipPathUnits="userSpaceOnUse"
       id="clipPath70703">
      <path
         d="M 0,3189 H 2006.732 V 0 H 0 Z"
         id="path70701"
         inkscape:connector-curvature="0" />
    </clipPath>
    <clipPath
       clipPathUnits="userSpaceOnUse"
       id="clipPath70691">
      <path
         d="m 467.144,2628.18 6.991,-3.965 c 0.643,0.363 1.228,0.396 1.654,0.154 v 0 l -6.988,3.963 c -0.18,0.102 -0.387,0.155 -0.616,0.155 v 0 c -0.314,0 -0.668,-0.099 -1.041,-0.307"
         id="path70689"
         inkscape:connector-curvature="0" />
    </clipPath>
    <clipPath
       clipPathUnits="userSpaceOnUse"
       id="clipPath70659">
      <path
         d="m 460.035,2492.34 h 28.146 v -14.16 h -28.146 z"
         id="path70657"
         inkscape:connector-curvature="0" />
    </clipPath>
    <clipPath
       clipPathUnits="userSpaceOnUse"
       id="clipPath70783">
      <path
         d="m 521.15,2491.13 h 28.145 v -14.17 H 521.15 Z"
         id="path70781"
         inkscape:connector-curvature="0" />
    </clipPath>
  </defs>
  <sodipodi:namedview
     id="base"
     pagecolor="#ffffff"
     bordercolor="#666666"
     borderopacity="1.0"
     inkscape:pageopacity="0.0"
     inkscape:pageshadow="2"
     inkscape:zoom="0.35"
     inkscape:cx="-129.83137"
     inkscape:cy="-95.632308"
     inkscape:document-units="mm"
     inkscape:current-layer="layer1"
     showgrid="false"
     fit-margin-top="0"
     fit-margin-left="0"
     fit-margin-right="0"
     fit-margin-bottom="0"
     inkscape:window-width="1360"
     inkscape:window-height="706"
     inkscape:window-x="-8"
     inkscape:window-y="-8"
     inkscape:window-maximized="1" />
  <metadata
     id="metadata205603">
    <rdf:RDF>
      <cc:Work
         rdf:about="">
        <dc:format>image/svg+xml</dc:format>
        <dc:type
           rdf:resource="http://purl.org/dc/dcmitype/StillImage" />
        <dc:title></dc:title>
      </cc:Work>
    </rdf:RDF>
  </metadata>
  <g
     inkscape:label="Layer 1"
     inkscape:groupmode="layer"
     id="layer1"
     transform="translate(43.133902,-111.96922)">
    <g
       id="g388"
       transform="matrix(0.25,0,0,0.215,-31.187326,92.433686)">
      <g
         transform="matrix(0.35277777,0,0,-0.35277777,-229.15893,1018.454)"
         id="g70777">
        <g
           id="g70779" />
        <g
           id="g70791">
          <g
             style="opacity:0.30999798"
             id="g70789"
             clip-path="url(#clipPath70783)">
            <g
               id="g70787"
               transform="translate(549.2949,2484.0469)">
              <path
                 inkscape:connector-curvature="0"
                 id="path70785"
                 style="fill:#231f20;fill-opacity:1;fill-rule:nonzero;stroke:none"
                 d="m 0,0 c 0,-3.913 -6.299,-7.085 -14.07,-7.085 -7.773,0 -14.075,3.172 -14.075,7.085 0,3.906 6.302,7.079 14.075,7.079 C -6.299,7.079 0,3.906 0,0" />
            </g>
          </g>
        </g>
      </g>
      <g
         transform="matrix(0.35277777,0,0,-0.35277777,-44.541785,106.77904)"
         id="g70793">
        <path
           inkscape:connector-curvature="0"
           id="path70795"
           style="fill:#cccccc;fill-opacity:1;fill-rule:nonzero;stroke:none"
           d="m 0,0 0.087,-101.392 c 0.001,-0.553 0.368,-1.107 1.092,-1.529 1.465,-0.85 3.845,-0.85 5.317,0 0.741,0.427 1.113,0.989 1.111,1.551 L 7.52,0.02 C 7.521,-0.54 7.15,-1.103 6.409,-1.531 4.937,-2.381 2.558,-2.381 1.093,-1.529 0.364,-1.109 0.002,-0.555 0,0" />
      </g>
      <g
         transform="matrix(0.35277777,0,0,-0.35277777,-44.510604,134.61765)"
         id="g70797">
        <path
           inkscape:connector-curvature="0"
           id="path70799"
           style="fill:#30515e;fill-opacity:1;fill-rule:nonzero;stroke:none"
           d="m 0,0 -0.002,-22.584 c 0.002,-0.551 0.366,-1.104 1.091,-1.527 1.465,-0.849 3.846,-0.849 5.316,0 0.743,0.427 1.114,0.989 1.114,1.551 L 7.521,0.022 C 7.521,-0.538 7.151,-1.1 6.41,-1.529 4.937,-2.379 2.557,-2.379 1.094,-1.527 0.367,-1.107 0.002,-0.551 0,0" />
      </g>
      <g
         transform="matrix(0.35277777,0,0,-0.35277777,-44.149744,106.23248)"
         id="g70801">
        <path
           inkscape:connector-curvature="0"
           id="path70803"
           style="fill:#e2e2e2;fill-opacity:1;fill-rule:nonzero;stroke:none"
           d="M 0,0 C -1.474,-0.852 -1.481,-2.229 -0.019,-3.078 1.446,-3.93 3.826,-3.93 5.297,-3.081 6.771,-2.229 6.78,-0.852 5.314,0 3.853,0.85 1.472,0.852 0,0" />
      </g>
      <g
         transform="matrix(0.35277777,0,0,-0.35277777,-42.605284,106.68051)"
         id="g70805">
        <path
           inkscape:connector-curvature="0"
           id="path70807"
           style="fill:#465b5e;fill-opacity:1;fill-rule:nonzero;stroke:none"
           d="m 0,0 c 1.269,-0.734 1.277,-1.922 0.016,-2.651 -1.26,-0.732 -3.309,-0.735 -4.578,0 -1.266,0.729 -1.274,1.917 -0.015,2.651 1.26,0.729 3.31,0.729 4.577,0" />
      </g>
      <g
         transform="matrix(0.35277777,0,0,-0.35277777,-40.048525,93.104244)"
         id="g70809">
        <path
           inkscape:connector-curvature="0"
           id="path70811"
           style="fill:#5e7077;fill-opacity:1;fill-rule:nonzero;stroke:none"
           d="m 0,0 c 1.336,0.751 2.423,0.13 2.428,-1.397 l 0.097,-33.618 c 0.003,-1.522 -1.076,-3.373 -2.412,-4.125 l -7.28,-4.226 c -1.331,-0.752 -2.42,-0.122 -2.425,1.398 l -0.097,33.619 c -0.005,1.527 1.076,3.374 2.409,4.124 z" />
      </g>
      <g
         transform="matrix(0.35277777,0,0,-0.35277777,-43.233685,90.919384)"
         id="g70813">
        <path
           inkscape:connector-curvature="0"
           id="path70815"
           style="fill:#919191;fill-opacity:1;fill-rule:nonzero;stroke:none"
           d="m 0,0 c -0.441,0.25 -1.044,0.214 -1.71,-0.157 l -7.28,-4.228 c -1.331,-0.75 -2.411,-2.595 -2.407,-4.125 l 0.097,-33.614 c 0.002,-0.767 0.281,-1.309 0.724,-1.558 L 0.16,-49.716 c -0.444,0.252 -0.721,0.793 -0.723,1.555 l -0.097,33.619 c -0.006,1.527 1.076,3.374 2.409,4.124 l 7.28,4.225 c 0.663,0.376 1.266,0.409 1.704,0.16 z" />
      </g>
      <g
         transform="matrix(0.35277777,0,0,-0.35277777,-39.345374,95.237104)"
         id="g70817">
        <path
           inkscape:connector-curvature="0"
           id="path70819"
           style="fill:#233133;fill-opacity:1;fill-rule:nonzero;stroke:none"
           d="M 0,0 C 0,0 1.365,-0.751 1.581,-1.157 2.118,-2.172 1.832,-3.542 0.214,-4.802 -0.52,-5.375 -2.048,-5.712 -2.048,-5.712 L -2.371,0.209 Z" />
      </g>
      <g
         transform="matrix(0.35277777,0,0,-0.35277777,-40.827284,95.204224)"
         id="g70821">
        <path
           inkscape:connector-curvature="0"
           id="path70823"
           style="fill:#c50000;fill-opacity:1;fill-rule:nonzero;stroke:none"
           d="M 0,0 C 2.245,1.266 4.067,0.253 4.073,-2.261 4.082,-4.778 2.27,-7.838 0.027,-9.1 -2.22,-10.366 -4.041,-9.351 -4.049,-6.836 -4.057,-4.322 -2.244,-1.261 0,0" />
      </g>
      <g
         transform="matrix(0.35277777,0,0,-0.35277777,-42.438205,97.734984)"
         id="g70825">
        <path
           inkscape:connector-curvature="0"
           id="path70827"
           style="fill:#4b6063;fill-opacity:1;fill-rule:nonzero;stroke:none"
           d="m 0,0 c 0,0 0.053,-0.88 1.438,0.139 1.33,0.985 0.864,2.526 3.019,4.068 1.05,0.749 4.993,2.418 5.961,1.645 0,0 -1.939,1.928 -3.303,2.348 C 5.642,8.653 2.443,7.85 0.971,5.958 0.487,5.337 0,3.86 0,2.908 Z" />
      </g>
      <g
         transform="matrix(0.35277777,0,0,-0.35277777,-39.345374,99.094764)"
         id="g70829">
        <path
           inkscape:connector-curvature="0"
           id="path70831"
           style="fill:#233133;fill-opacity:1;fill-rule:nonzero;stroke:none"
           d="M 0,0 C 0,0 1.365,-0.749 1.581,-1.157 2.118,-2.172 1.832,-3.54 0.214,-4.801 -0.52,-5.375 -2.048,-5.71 -2.048,-5.71 l -0.323,5.921 z" />
      </g>
      <g
         transform="matrix(0.35277777,0,0,-0.35277777,-40.816425,98.975564)"
         id="g70833">
        <path
           inkscape:connector-curvature="0"
           id="path70835"
           style="fill:#c59f00;fill-opacity:1;fill-rule:nonzero;stroke:none"
           d="M 0,0 C 2.244,1.262 4.068,0.249 4.078,-2.268 4.082,-4.782 2.27,-7.843 0.026,-9.107 -2.215,-10.371 -4.041,-9.357 -4.049,-6.841 -4.057,-4.327 -2.243,-1.266 0,0" />
      </g>
      <g
         transform="matrix(0.35277777,0,0,-0.35277777,-42.438205,101.59193)"
         id="g70837">
        <path
           inkscape:connector-curvature="0"
           id="path70839"
           style="fill:#4b6063;fill-opacity:1;fill-rule:nonzero;stroke:none"
           d="m 0,0 c 0,0 0.053,-0.882 1.438,0.14 1.33,0.983 0.864,2.523 3.019,4.065 1.05,0.752 4.993,2.419 5.961,1.647 0,0 -1.939,1.928 -3.303,2.347 C 5.642,8.652 2.443,7.85 0.971,5.957 0.487,5.336 0,3.861 0,2.907 Z" />
      </g>
      <g
         transform="matrix(0.35277777,0,0,-0.35277777,-39.330904,102.82683)"
         id="g70841">
        <path
           inkscape:connector-curvature="0"
           id="path70843"
           style="fill:#233133;fill-opacity:1;fill-rule:nonzero;stroke:none"
           d="M 0,0 C 0,0 1.363,-0.754 1.58,-1.155 2.118,-2.175 1.83,-3.543 0.215,-4.802 -0.521,-5.377 -2.05,-5.712 -2.05,-5.712 L -2.373,0.209 Z" />
      </g>
      <g
         transform="matrix(0.35277777,0,0,-0.35277777,-40.805733,102.64632)"
         id="g70845">
        <path
           inkscape:connector-curvature="0"
           id="path70847"
           style="fill:#0d9f18;fill-opacity:1;fill-rule:nonzero;stroke:none"
           d="M 0,0 C 2.245,1.261 4.067,0.246 4.075,-2.264 4.082,-4.78 2.271,-7.845 0.027,-9.109 -2.218,-10.372 -4.042,-9.355 -4.048,-6.841 -4.056,-4.331 -2.244,-1.266 0,0" />
      </g>
      <g
         transform="matrix(0.35277777,0,0,-0.35277777,-42.423925,105.32471)"
         id="g70849">
        <path
           inkscape:connector-curvature="0"
           id="path70851"
           style="fill:#4b6063;fill-opacity:1;fill-rule:nonzero;stroke:none"
           d="m 0,0 c 0,0 0.052,-0.88 1.438,0.142 1.33,0.98 0.862,2.522 3.018,4.065 1.049,0.749 4.992,2.418 5.962,1.645 0,0 -1.939,1.927 -3.307,2.346 C 5.639,8.653 2.443,7.852 0.97,5.958 0.486,5.337 0,3.86 0,2.911 Z" />
      </g>
      <g
         transform="matrix(0.35277777,0,0,-0.35277777,-47.126444,95.235554)"
         id="g70853">
        <path
           inkscape:connector-curvature="0"
           id="path70855"
           style="fill:#233133;fill-opacity:1;fill-rule:nonzero;stroke:none"
           d="M 0,0 C 0,0 -1.367,-0.752 -1.582,-1.157 -2.119,-2.17 -1.833,-3.541 -0.217,-4.802 0.517,-5.375 2.046,-5.715 2.046,-5.715 L 2.371,0.209 Z" />
      </g>
      <g
         transform="matrix(0.35277777,0,0,-0.35277777,-45.645063,95.201964)"
         id="g70857">
        <path
           inkscape:connector-curvature="0"
           id="path70859"
           style="fill:#c50000;fill-opacity:1;fill-rule:nonzero;stroke:none"
           d="M 0,0 C -2.242,1.264 -4.067,0.251 -4.074,-2.263 -4.083,-4.78 -2.271,-7.843 -0.026,-9.104 2.219,-10.368 4.041,-9.353 4.05,-6.84 4.057,-4.322 2.244,-1.263 0,0" />
      </g>
      <g
         transform="matrix(0.35277777,0,0,-0.35277777,-44.034145,97.733434)"
         id="g70861">
        <path
           inkscape:connector-curvature="0"
           id="path70863"
           style="fill:#475556;fill-opacity:1;fill-rule:nonzero;stroke:none"
           d="m 0,0 c 0,0 -0.053,-0.883 -1.439,0.142 -1.33,0.982 -0.862,2.52 -3.018,4.065 -1.048,0.75 -4.991,2.416 -5.961,1.644 0,0 1.939,1.929 3.305,2.349 C -5.641,8.654 -2.442,7.852 -0.97,5.958 -0.488,5.337 0,3.86 0,2.908 Z" />
      </g>
      <g
         transform="matrix(0.35277777,0,0,-0.35277777,-47.126444,99.093214)"
         id="g70865">
        <path
           inkscape:connector-curvature="0"
           id="path70867"
           style="fill:#233133;fill-opacity:1;fill-rule:nonzero;stroke:none"
           d="M 0,0 C 0,0 -1.367,-0.751 -1.582,-1.155 -2.119,-2.172 -1.833,-3.54 -0.217,-4.801 0.517,-5.375 2.046,-5.712 2.046,-5.712 L 2.371,0.209 Z" />
      </g>
      <g
         transform="matrix(0.35277777,0,0,-0.35277777,-45.655935,98.974014)"
         id="g70869">
        <path
           inkscape:connector-curvature="0"
           id="path70871"
           style="fill:#c59f00;fill-opacity:1;fill-rule:nonzero;stroke:none"
           d="m 0,0 c -2.245,1.262 -4.067,0.249 -4.075,-2.268 -0.006,-2.514 1.806,-5.575 4.048,-6.839 2.243,-1.261 4.07,-0.25 4.075,2.266 C 4.056,-4.327 2.243,-1.266 0,0" />
      </g>
      <g
         transform="matrix(0.35277777,0,0,-0.35277777,-44.034145,101.59038)"
         id="g70873">
        <path
           inkscape:connector-curvature="0"
           id="path70875"
           style="fill:#475556;fill-opacity:1;fill-rule:nonzero;stroke:none"
           d="m 0,0 c 0,0 -0.053,-0.882 -1.439,0.142 -1.33,0.979 -0.862,2.521 -3.018,4.063 -1.048,0.75 -4.991,2.419 -5.961,1.647 0,0 1.939,1.928 3.305,2.347 C -5.641,8.652 -2.442,7.852 -0.97,5.957 -0.488,5.336 0,3.861 0,2.909 Z" />
      </g>
      <g
         transform="matrix(0.35277777,0,0,-0.35277777,-47.140774,102.82613)"
         id="g70877">
        <path
           inkscape:connector-curvature="0"
           id="path70879"
           style="fill:#233133;fill-opacity:1;fill-rule:nonzero;stroke:none"
           d="M 0,0 C 0,0 -1.366,-0.751 -1.582,-1.155 -2.12,-2.17 -1.833,-3.538 -0.217,-4.8 0.519,-5.372 2.048,-5.71 2.048,-5.71 l 0.323,5.921 z" />
      </g>
      <g
         transform="matrix(0.35277777,0,0,-0.35277777,-45.666934,102.64476)"
         id="g70881">
        <path
           inkscape:connector-curvature="0"
           id="path70883"
           style="fill:#0d9f18;fill-opacity:1;fill-rule:nonzero;stroke:none"
           d="m 0,0 c -2.242,1.261 -4.066,0.246 -4.076,-2.266 -0.006,-2.514 1.805,-5.579 4.05,-6.843 2.244,-1.266 4.068,-0.244 4.075,2.268 C 4.058,-4.331 2.245,-1.266 0,0" />
      </g>
      <g
         transform="matrix(0.35277777,0,0,-0.35277777,-44.048784,105.3233)"
         id="g70885">
        <path
           inkscape:connector-curvature="0"
           id="path70887"
           style="fill:#475556;fill-opacity:1;fill-rule:nonzero;stroke:none"
           d="m 0,0 c 0,0 -0.052,-0.877 -1.438,0.142 -1.329,0.98 -0.86,2.521 -3.017,4.065 -1.047,0.75 -4.993,2.418 -5.962,1.647 0,0 1.939,1.926 3.306,2.344 1.473,0.454 4.669,-0.346 6.142,-2.241 C -0.485,5.338 0,3.86 0,2.911 Z" />
      </g>
    </g>
  </g>
</svg>
