<?xml version="1.0" encoding="UTF-8" standalone="no"?>
<!-- Created with Inkscape (http://www.inkscape.org/) -->

<svg
   xmlns:dc="http://purl.org/dc/elements/1.1/"
   xmlns:cc="http://creativecommons.org/ns#"
   xmlns:rdf="http://www.w3.org/1999/02/22-rdf-syntax-ns#"
   xmlns:svg="http://www.w3.org/2000/svg"
   xmlns="http://www.w3.org/2000/svg"
   xmlns:sodipodi="http://sodipodi.sourceforge.net/DTD/sodipodi-0.dtd"
   xmlns:inkscape="http://www.inkscape.org/namespaces/inkscape"
   width="3.9090312mm"
   height="11.24587mm"
   viewBox="0 0 3.9090312 11.24587"
   version="1.1"
   id="svg205606"
   inkscape:version="0.92.2 (5c3e80d, 2017-08-06)"
   sodipodi:docname="street-objects-4.svg">
  <defs
     id="defs205600">
    <clipPath
       clipPathUnits="userSpaceOnUse"
       id="clipPath70727">
      <path
         d="m 457.002,2619.783 6.988,-3.963 c -0.005,1.482 1.044,3.27 2.335,3.998 v 0 l -6.989,3.961 c -1.292,-0.726 -2.339,-2.515 -2.334,-3.996"
         id="path70725"
         inkscape:connector-curvature="0" />
    </clipPath>
    <clipPath
       clipPathUnits="userSpaceOnUse"
       id="clipPath70703">
      <path
         d="M 0,3189 H 2006.732 V 0 H 0 Z"
         id="path70701"
         inkscape:connector-curvature="0" />
    </clipPath>
    <clipPath
       clipPathUnits="userSpaceOnUse"
       id="clipPath70691">
      <path
         d="m 467.144,2628.18 6.991,-3.965 c 0.643,0.363 1.228,0.396 1.654,0.154 v 0 l -6.988,3.963 c -0.18,0.102 -0.387,0.155 -0.616,0.155 v 0 c -0.314,0 -0.668,-0.099 -1.041,-0.307"
         id="path70689"
         inkscape:connector-curvature="0" />
    </clipPath>
    <clipPath
       clipPathUnits="userSpaceOnUse"
       id="clipPath70659">
      <path
         d="m 460.035,2492.34 h 28.146 v -14.16 h -28.146 z"
         id="path70657"
         inkscape:connector-curvature="0" />
    </clipPath>
    <clipPath
       clipPathUnits="userSpaceOnUse"
       id="clipPath70783">
      <path
         d="m 521.15,2491.13 h 28.145 v -14.17 H 521.15 Z"
         id="path70781"
         inkscape:connector-curvature="0" />
    </clipPath>
    <clipPath
       clipPathUnits="userSpaceOnUse"
       id="clipPath70995">
      <path
         d="m 613.925,2617.959 1.194,-0.692 c 1.427,0.821 2.723,0.9 3.661,0.355 v 0 c -0.4,0.233 -0.796,0.462 -1.196,0.693 v 0 c -0.392,0.229 -0.849,0.348 -1.353,0.348 v 0 c -0.694,0 -1.478,-0.226 -2.306,-0.704"
         id="path70993"
         inkscape:connector-curvature="0" />
    </clipPath>
    <clipPath
       clipPathUnits="userSpaceOnUse"
       id="clipPath70963">
      <path
         d="M 0,3189 H 2006.732 V 0 H 0 Z"
         id="path70961"
         inkscape:connector-curvature="0" />
    </clipPath>
    <clipPath
       clipPathUnits="userSpaceOnUse"
       id="clipPath70951">
      <path
         d="m 621.298,2594.897 c -1.297,-0.722 -3.355,-0.7 -4.596,0.047 v 0 c -0.607,0.364 -0.905,0.831 -0.909,1.298 v 0 l 0.043,-5.474 c 0.003,-0.468 0.3,-0.936 0.904,-1.298 v 0 c 1.246,-0.75 3.303,-0.772 4.599,-0.049 v 0 c 0.666,0.371 1.002,0.868 1,1.364 v 0 l -0.039,5.477 c 0,-0.496 -0.336,-0.993 -1.002,-1.365"
         id="path70949"
         inkscape:connector-curvature="0" />
    </clipPath>
    <clipPath
       clipPathUnits="userSpaceOnUse"
       id="clipPath70935">
      <path
         d="M 0,3189 H 2006.732 V 0 H 0 Z"
         id="path70933"
         inkscape:connector-curvature="0" />
    </clipPath>
    <clipPath
       clipPathUnits="userSpaceOnUse"
       id="clipPath70923">
      <path
         d="m 621.514,2528.221 c -1.378,-0.769 -3.57,-0.747 -4.89,0.048 v 0 c -0.64,0.385 -0.96,0.882 -0.963,1.382 v 0 l 0.044,-34.963 c 0,-0.497 0.321,-0.994 0.963,-1.382 v 0 c 1.322,-0.795 3.512,-0.817 4.889,-0.049 v 0 c 0.71,0.395 1.065,0.925 1.065,1.452 v 0 l -0.043,34.963 c 0,-0.532 -0.355,-1.057 -1.065,-1.451"
         id="path70921"
         inkscape:connector-curvature="0" />
    </clipPath>
    <clipPath
       clipPathUnits="userSpaceOnUse"
       id="clipPath70895">
      <path
         d="m 613.479,2502.16 h 28.146 V 2488 h -28.146 z"
         id="path70893"
         inkscape:connector-curvature="0" />
    </clipPath>
    <clipPath
       clipPathUnits="userSpaceOnUse"
       id="clipPath71403">
      <path
         d="m 660.563,2585.094 c -1.298,-0.722 -3.354,-0.701 -4.599,0.049 v 0 c -0.603,0.362 -0.904,0.83 -0.904,1.296 v 0 l 0.042,-5.475 c 0,-0.469 0.3,-0.935 0.903,-1.298 v 0 c 1.245,-0.75 3.303,-0.77 4.598,-0.048 v 0 c 0.668,0.374 1.004,0.866 1.002,1.366 v 0 l -0.044,5.475 c 0.003,-0.495 -0.33,-0.994 -0.998,-1.365"
         id="path71401"
         inkscape:connector-curvature="0" />
    </clipPath>
    <clipPath
       clipPathUnits="userSpaceOnUse"
       id="clipPath71387">
      <path
         d="M 0,3189 H 2006.732 V 0 H 0 Z"
         id="path71385"
         inkscape:connector-curvature="0" />
    </clipPath>
    <clipPath
       clipPathUnits="userSpaceOnUse"
       id="clipPath71347">
      <path
         d="M 652.694,2493.36 H 680.84 V 2479.2 H 652.694 Z"
         id="path71345"
         inkscape:connector-curvature="0" />
    </clipPath>
  </defs>
  <sodipodi:namedview
     id="base"
     pagecolor="#ffffff"
     bordercolor="#666666"
     borderopacity="1.0"
     inkscape:pageopacity="0.0"
     inkscape:pageshadow="2"
     inkscape:zoom="1.979899"
     inkscape:cx="13.914787"
     inkscape:cy="-18.508106"
     inkscape:document-units="mm"
     inkscape:current-layer="layer1"
     showgrid="false"
     fit-margin-top="0"
     fit-margin-left="0"
     fit-margin-right="0"
     fit-margin-bottom="0"
     inkscape:window-width="1360"
     inkscape:window-height="706"
     inkscape:window-x="-8"
     inkscape:window-y="-8"
     inkscape:window-maximized="1" />
  <metadata
     id="metadata205603">
    <rdf:RDF>
      <cc:Work
         rdf:about="">
        <dc:format>image/svg+xml</dc:format>
        <dc:type
           rdf:resource="http://purl.org/dc/dcmitype/StillImage" />
        <dc:title></dc:title>
      </cc:Work>
    </rdf:RDF>
  </metadata>
  <g
     inkscape:label="Layer 1"
     inkscape:groupmode="layer"
     id="layer1"
     transform="translate(78.46252,-186.25183)">
    <g
       id="g810"
       transform="matrix(0.25,0,0,0.215,-57.381003,150.62169)">
      <g
         transform="matrix(0.35277777,0,0,-0.35277777,-314.582,1092.6346)"
         id="g71341">
        <g
           id="g71343" />
        <g
           id="g71355">
          <g
             style="opacity:0.30999798"
             id="g71353"
             clip-path="url(#clipPath71347)">
            <g
               id="g71351"
               transform="translate(680.8398,2486.2778)">
              <path
                 inkscape:connector-curvature="0"
                 id="path71349"
                 style="fill:#231f20;fill-opacity:1;fill-rule:nonzero;stroke:none"
                 d="m 0,0 c 0,-3.913 -6.3,-7.081 -14.071,-7.081 -7.772,0 -14.075,3.168 -14.075,7.081 0,3.909 6.303,7.081 14.075,7.081 C -6.3,7.081 0,3.909 0,0" />
            </g>
          </g>
        </g>
      </g>
      <g
         transform="matrix(0.35277777,0,0,-0.35277777,-76.771722,170.17414)"
         id="g71357">
        <path
           inkscape:connector-curvature="0"
           id="path71359"
           style="fill:#f7dda9;fill-opacity:1;fill-rule:nonzero;stroke:none"
           d="M 0,0 C 1.164,-0.961 3.889,-4.902 6.92,-4.041 10.939,-2.902 24.042,3.736 20.861,5.1 11.865,8.957 -1.161,0.959 0,0" />
      </g>
      <g
         transform="matrix(0.35277777,0,0,-0.35277777,-81.523042,215.46887)"
         id="g71361">
        <path
           inkscape:connector-curvature="0"
           id="path71363"
           style="fill:#587195;fill-opacity:1;fill-rule:nonzero;stroke:none"
           d="m 0,0 c 1.325,-0.795 1.279,-2.063 -0.1,-2.832 -1.379,-0.769 -3.567,-0.745 -4.891,0.05 -1.32,0.795 -1.275,2.063 0.102,2.833 C -3.509,0.819 -1.32,0.795 0,0" />
      </g>
      <g
         transform="matrix(0.35277777,0,0,-0.35277777,-82.872632,203.7087)"
         id="g71365">
        <path
           inkscape:connector-curvature="0"
           id="path71367"
           style="fill:#4c717c;fill-opacity:1;fill-rule:nonzero;stroke:none"
           d="M 0,0 C -2.015,1.216 1.148,3.05 3.225,1.799 4.078,1.286 4.053,0.468 3.159,-0.031 2.27,-0.527 0.856,-0.512 0,0 m -1.843,0.227 c 0.002,-0.499 0.32,-0.997 0.963,-1.384 1.322,-0.796 3.512,-0.817 4.891,-0.048 0.708,0.394 1.065,0.924 1.063,1.451 C 5.002,3.301 -1.736,3.4 -1.843,0.227" />
      </g>
      <g
         transform="matrix(0.35277777,0,0,-0.35277777,-83.622632,215.96307)"
         id="g71377">
        <path
           inkscape:connector-curvature="0"
           id="path71379"
           style="fill:#30515e;fill-opacity:1;fill-rule:nonzero;stroke:none"
           d="m 0,0 0.283,34.963 c 0.002,-0.499 0.32,-0.996 0.963,-1.383 1.322,-0.796 3.512,-0.817 4.891,-0.048 0.708,0.394 1.065,0.924 1.063,1.451 L 6.915,0.018 C 6.919,-0.507 6.562,-1.035 5.852,-1.431 4.473,-2.2 2.285,-2.176 0.96,-1.381 0.32,-0.996 0,-0.497 0,0" />
      </g>
      <g
         transform="matrix(0.35277777,0,0,-0.35277777,-314.582,1092.6346)"
         id="g71381">
        <g
           clip-path="url(#clipPath71387)"
           id="g71383">
          <g
             transform="translate(660.5874,2587.7139)"
             id="g71389">
            <path
               inkscape:connector-curvature="0"
               id="path71391"
               style="fill:#cccccc;fill-opacity:1;fill-rule:nonzero;stroke:none"
               d="m 0,0 c 0,0.322 -4.466,-0.333 -4.468,-0.014 l 0.074,-67.017 c 0.002,-0.32 0.209,-0.642 0.621,-0.893 0.856,-0.512 2.27,-0.527 3.159,-0.031 0.46,0.258 0.688,0.598 0.688,0.937 C 0.063,-63.109 0.009,-2.51 0,0" />
          </g>
          <g
             transform="translate(655.0601,2586.439)"
             id="g71393">
            <path
               inkscape:connector-curvature="0"
               id="path71395"
               style="fill:#efefef;fill-opacity:1;fill-rule:nonzero;stroke:none"
               d="m 0,0 c 0,-0.466 0.301,-0.935 0.904,-1.296 1.244,-0.749 3.301,-0.771 4.599,-0.048 0.667,0.37 1,0.869 0.998,1.364 C 6.436,2.896 0.098,2.987 0,0" />
          </g>
        </g>
      </g>
      <g
         transform="matrix(0.35277777,0,0,-0.35277777,-314.582,1092.6346)"
         id="g71397">
        <g
           clip-path="url(#clipPath71403)"
           id="g71399">
          <g
             transform="translate(655.1016,2580.9644)"
             id="g71405">
            <path
               inkscape:connector-curvature="0"
               id="path71407"
               style="fill:#e2e2e2;fill-opacity:1;fill-rule:nonzero;stroke:none"
               d="M 0,0 -0.042,5.475 C -0.042,5.008 0.26,4.54 0.863,4.178 2.107,3.429 4.164,3.407 5.462,4.13 6.129,4.501 6.462,5 6.46,5.494 L 6.503,0.02 C 6.505,-0.479 6.17,-0.972 5.501,-1.346 4.207,-2.068 2.148,-2.048 0.904,-1.299 0.301,-0.935 0,-0.469 0,0" />
          </g>
        </g>
      </g>
      <g
         transform="matrix(0.35277777,0,0,-0.35277777,-72.045562,165.87085)"
         id="g71417">
        <path
           inkscape:connector-curvature="0"
           id="path71419"
           style="fill:#4c717c;fill-opacity:1;fill-rule:nonzero;stroke:none"
           d="m 0,0 c -0.911,0.604 -2.214,0.564 -3.613,-0.137 l -8.875,-4.445 c -0.392,-0.198 -0.774,-0.486 -1.116,-0.832 -0.405,-0.412 -0.76,-0.904 -1.03,-1.425 l 6.383,-4.264 c 0.269,0.521 0.624,1.016 1.031,1.425 0.342,0.347 0.721,0.637 1.115,0.833 l 8.874,4.444 c 1.398,0.701 2.701,0.743 3.612,0.138 z" />
      </g>
      <g
         transform="matrix(0.35277777,0,0,-0.35277777,-74.956332,169.7876)"
         id="g71421">
        <path
           inkscape:connector-curvature="0"
           id="path71423"
           style="fill:#4c717c;fill-opacity:1;fill-rule:nonzero;stroke:none"
           d="m 0,0 -6.383,4.264 c -0.303,-0.59 -0.494,-1.214 -0.53,-1.8 l -0.176,-3.15 c -0.007,-0.128 0.032,-0.222 0.102,-0.266 l 6.382,-4.264 c -0.07,0.047 -0.109,0.14 -0.103,0.269 l 0.179,3.148 C -0.496,-1.213 -0.303,-0.588 0,0" />
      </g>
      <g
         transform="matrix(0.35277777,0,0,-0.35277777,-74.199272,168.99124)"
         id="g71425">
        <path
           inkscape:connector-curvature="0"
           id="path71427"
           style="fill:#30515e;fill-opacity:1;fill-rule:nonzero;stroke:none"
           d="m 0,0 c -1.392,-0.697 -2.588,-2.512 -2.675,-4.057 l -0.179,-3.148 c -0.013,-0.259 0.162,-0.373 0.393,-0.257 L 15.617,1.59 12.834,4.301 C 11.926,5.186 10.462,5.24 8.874,4.444 Z" />
      </g>
      <g
         transform="matrix(0.35277777,0,0,-0.35277777,-82.766542,180.11253)"
         id="g71429">
        <path
           inkscape:connector-curvature="0"
           id="path71431"
           style="fill:#cccccc;fill-opacity:1;fill-rule:nonzero;stroke:none"
           d="m 0,0 c 0,-0.189 0.106,-0.39 0.351,-0.541 0.505,-0.302 1.341,-0.311 1.867,-0.019 0.27,0.153 0.407,0.355 0.407,0.556 C 2.599,1.163 0.041,1.211 0,0" />
      </g>
      <g
         transform="matrix(0.35277777,0,0,-0.35277777,-76.926062,169.44393)"
         id="g71433">
        <path
           inkscape:connector-curvature="0"
           id="path71435"
           style="fill:#cccccc;fill-opacity:1;fill-rule:nonzero;stroke:none"
           d="m 0,0 1.124,-0.939 -11.741,-5.464 -1.666,0.656 z" />
      </g>
      <g
         transform="matrix(0.35277777,0,0,-0.35277777,-82.774092,175.07927)"
         id="g71437">
        <path
           inkscape:connector-curvature="0"
           id="path71439"
           style="fill:#cccccc;fill-opacity:1;fill-rule:nonzero;stroke:none"
           d="m 0,0 1.213,-0.63 v -14.293 l -1.187,0.655 z" />
      </g>
      <g
         transform="matrix(0.35277777,0,0,-0.35277777,-81.197112,171.44675)"
         id="g71441">
        <path
           inkscape:connector-curvature="0"
           id="path71443"
           style="fill:#cccccc;fill-opacity:1;fill-rule:nonzero;stroke:none"
           d="m 0,0 c -3.887,-1.71 -4.671,-5.145 -4.47,-10.44 l 1.146,-0.454 c -0.009,4.539 2.124,9.105 4.932,10.301 L 0.076,0.032 Z" />
      </g>
      <g
         transform="matrix(0.35277777,0,0,-0.35277777,-80.569762,171.61365)"
         id="g71445">
        <path
           inkscape:connector-curvature="0"
           id="path71447"
           style="fill:#cccccc;fill-opacity:1;fill-rule:nonzero;stroke:none"
           d="M 0,0 11.25,5.346 11.276,3.668 1.025,-1.237 C -2.813,-2.845 -3.419,-5.758 -3.621,-9.645 L -3.613,-24 -5.036,-24.73 -5.118,-10.388 C -5.214,-4.07 -3.746,-1.717 0,0" />
      </g>
      <g
         transform="matrix(0.35277777,0,0,-0.35277777,-76.478032,169.82824)"
         id="g71449">
        <path
           inkscape:connector-curvature="0"
           id="path71451"
           style="fill:#cccccc;fill-opacity:1;fill-rule:nonzero;stroke:none"
           d="m 0,0 c 0.137,-0.721 -0.02,-1.368 -0.499,-1.459 -0.479,-0.09 -1.1,0.409 -1.235,1.132 -0.138,0.721 0.139,1.38 0.618,1.469 C -0.636,1.235 -0.135,0.721 0,0" />
      </g>
    </g>
  </g>
</svg>
