<?xml version="1.0" encoding="utf-8"?>
<!-- Generator: Adobe Illustrator 18.1.0, SVG Export Plug-In . SVG Version: 6.00 Build 0)  -->
<svg version="1.1" id="Layer_1" xmlns="http://www.w3.org/2000/svg" xmlns:xlink="http://www.w3.org/1999/xlink" x="0px" y="0px"
	 viewBox="0 0 240 240" enable-background="new 0 0 240 240" xml:space="preserve">
<g>
	<g>
		<path opacity="0.2" d="M19.1,149.6l33.6,16.8c0.8,0.4,1.7,0.4,2.6,0l33.6-16.8c2.1-1.1,2.1-4,0-5.1l-33.6-16.8
			c-0.8-0.4-1.7-0.4-2.6,0l-33.6,16.8C17,145.5,17,148.5,19.1,149.6z"/>
		<path fill="#2D3134" d="M53.5,167c-0.7,0-1.4-0.2-2-0.5l-31.9-16c-1.5-0.8-2.5-2.3-2.5-4.1s1-3.3,2.5-4.1L49,127.8
			c1.6-0.8,3.3-1.2,5-1.2v-0.4l-36.9-18.4c-1-0.5-1.4-1.7-0.9-2.7c0.5-1,1.7-1.4,2.7-0.9l38,19c0.7,0.3,1.1,1,1.1,1.8v2.3
			c0.3,0.1,0.6,0.3,1,0.4l32.4,16.2c0.2,0.1,0.3,0,0.4,0c0.1-0.1,0.2-0.2,0.2-0.4v-35.3l-0.9-0.4c-1-0.5-1.4-1.7-0.9-2.7
			c0.5-1,1.7-1.4,2.7-0.9l2,1c0.7,0.3,1.1,1,1.1,1.8v36.5c0,1.6-0.8,3-2.1,3.8c-1.3,0.8-2.9,0.9-4.3,0.2L58,131.8v30.8
			c0,1.6-0.8,3-2.1,3.8C55.2,166.8,54.4,167,53.5,167z M54,130.6c-1.1,0-2.2,0.2-3.2,0.7L21.4,146c-0.2,0.1-0.3,0.3-0.3,0.5
			s0.1,0.4,0.3,0.5l31.9,16c0.2,0.1,0.3,0,0.4,0c0.1-0.1,0.2-0.2,0.2-0.4V130.6z"/>
		<path opacity="0.2" fill="#FFFFFF" d="M53,165c-0.5,0-0.9-0.1-1.3-0.3l-31.9-16c-1-0.5-1.7-1.6-1.7-2.7s0.6-2.2,1.7-2.7l29.4-14.7
			c0.2-0.1,0.5,0,0.7,0.2c0.1,0.2,0,0.5-0.2,0.7l-29.4,14.7c-0.7,0.4-1.1,1-1.1,1.8s0.4,1.5,1.1,1.8l31.9,16
			c0.6,0.3,1.3,0.3,1.9-0.1c0.6-0.4,0.9-1,0.9-1.7v-37.5c0-0.3,0.2-0.5,0.5-0.5s0.5,0.2,0.5,0.5V162c0,1-0.5,2-1.4,2.5
			C54.1,164.8,53.6,165,53,165z"/>
		<path opacity="0.2" fill="#FFFFFF" d="M91,146c-0.5,0-0.9-0.1-1.3-0.3l-30.5-15.2c-0.2-0.1-0.3-0.4-0.2-0.7s0.4-0.3,0.7-0.2
			l30.5,15.2c0.6,0.3,1.3,0.3,1.9-0.1c0.6-0.4,0.9-1,0.9-1.7v-36.5c0-0.3,0.2-0.5,0.5-0.5s0.5,0.2,0.5,0.5V143c0,1-0.5,2-1.4,2.5
			C92.1,145.8,91.6,146,91,146z"/>
		<g>
			<g>
				<polygon fill="#FF9900" points="16,102 16,106 56,126 96,106 96,102 56,82 				"/>
				<polygon opacity="0.11" points="56,126 16,106 16,102 56,122 				"/>
				<polygon opacity="0.29" points="56,126 96,106 96,102 56,122 				"/>
			</g>
		</g>
		<path fill="#FF9900" d="M55,32l-4-2L11,50l2.2,8.9c1.9,7.4,2.8,15,2.8,22.6V102l4,2l40-20V63.5c0-7.6-0.9-15.2-2.8-22.6L55,32z"/>
		<path opacity="0.11" d="M15,52l-4-2l2.2,8.9c1.9,7.4,2.8,15,2.8,22.6V102l4,2V83.5c0-7.6-0.9-15.2-2.8-22.6L15,52z"/>
		<path opacity="0.29" d="M55,32L15,52l2.2,8.9c1.9,7.4,2.8,15,2.8,22.6V104l40-20V63.5c0-7.6-0.9-15.2-2.8-22.6L55,32z"/>
	</g>
	<g>
		<path opacity="0.2" d="M116.3,172.8c-5,4.7-15,1.3-20.7,0.8c-5.7-0.5-7.7-1.8-6,1.5c1.7,3.3,7,14.8-3.3,13.8s-12.8-3-17.2-7.7
			c-4.3-4.7-9.3-13-6.2-18.3c5-8.4,29.3-1.1,36.5,0.4S119.5,169.8,116.3,172.8z"/>
		<path fill="none" d="M81.5,158.9c-0.2,1.3-1.2,7-0.2,8.3c1,1.3,3.2,1.6,5.7,1.9c2.5,0.3,6.8,0.2,9.7,1.5s7.7,2.7,12.3,3.2
			c4.5,0.5,6.6-1.7,6.7-4c0.1-2.3-1.4-4.4-4.3-5.1c-2.9-0.6-12.9-4.6-14.2-5.9C95.8,157.6,81.5,158.9,81.5,158.9z"/>
		<path fill="#2D3134" d="M80.1,164.3l-12.4-0.4c0,0-2.4,3.3-1.8,6c0.7,2.7,4.4,6.9,5.3,8.6c0.9,1.8,2.7,7.5,7.7,8.8
			c5.1,1.3,11.7,0.9,12.6-2.4c0.7-2.6-9.9-15-10.4-16.1C80.8,167.6,80.1,164.3,80.1,164.3z"/>
		<path opacity="0.4" d="M71.3,178.4c-0.9-1.8-4.6-6-5.3-8.6c-0.2-0.9-0.1-2,0.2-2.9c0.5,1.3,1.3,3.2,2.1,4.2
			c1.5,1.6,4.5,7.9,6.2,10.9c2.2,3.9,12.7,6.8,17.1,2.2c0.1,0.3,0.1,0.5,0,0.7c-0.9,3.3-7.5,3.8-12.6,2.4
			C73.9,185.9,72.2,180.2,71.3,178.4z"/>
		<path fill="#2D3134" d="M96.5,159c4.5,2.8,12.6,4.8,15.3,6.2c2.9,1.6,4.7,7.5-1.3,8s-15.9-3.9-19.4-3.9c-3.4,0-9.7-1.1-10.6-3
			c-0.9-1.9,0.4-6.9,0.4-6.9L96.5,159z"/>
		<path opacity="0.4" d="M80.6,166.3c-0.1-0.2-0.2-0.5-0.2-0.8c2.9,1.3,7.8,2.1,11.3,2.2c3,0.1,13.1,4.1,18,4.1
			c2.3,0,3.8-0.8,4.8-1.6c-0.2,1.5-1.3,2.8-4,3c-6,0.4-15.9-3.9-19.4-3.9S81.4,168.2,80.6,166.3z"/>
		<path fill="#656565" d="M62.4,82c0,0,20.6,13,26.2,16.5c5.6,3.4,8.4,6.9,8.6,12.3c0.2,5.4-1.3,33.1-0.6,38.3
			c0.6,5.2,2.4,11,2.4,11s-2.7,3.9-18.3,1.3c-1.3-0.2-2.4-34.2-2.4-37.6s0.3-8.1,0.3-8.1l-28.5-15.5l-0.6-19.4L62.4,82z"/>
		<path opacity="0.2" d="M62.4,82c0,0,20.6,13,26.2,16.5c5.6,3.4,8.4,6.9,8.6,12.3c0.2,5.4-1.3,33.1-0.6,38.3c0.6,5.2,2.4,11,2.4,11
			s-2.7,3.9-18.3,1.3c-1.3-0.2-2.4-34.2-2.4-37.6s0.3-8.1,0.3-8.1l-28.5-15.5l-0.6-19.4L62.4,82z"/>
		<path fill="#656565" d="M32.8,75.8c0,0-4.8,7.8-5.8,15.1c-1,7.4,0.4,12.7,6.2,17.4c3.6,3,29.2,16.8,30.5,19.6
			c1.3,2.8-0.3,35.9,1,37.8c1.3,1.9,6.5,3.3,10.7,3.2c4.3-0.1,6.7-2.4,6.5-3.2c-0.2-0.9,1.8-38.1,0.1-45.3
			c-1.4-6.2-25.2-24.1-25.2-24.1l3.7-14L32.8,75.8z"/>
	</g>
	<path fill="#656565" d="M56,24.5c-7.5,2.5-14.7,7.1-18.4,9.9c-4.1,3.1-11.1,6.5-11.9,20.8C24.9,72,26,93.8,26.4,99.1
		c0.8,9.6,5.5,16.9,5.5,16.9s4.7-5.2,8.6-8c5.3-3.8,12.1-6,15.7-7.2c3.6-1.1,5.4-0.9,5.7-5s6.9-4.7,6.9-4.7s0.6-23.1,1-30.3
		s5.4-25.3,3-32C70.5,22.1,63.3,22,56,24.5z"/>
	<g>
		<polygon opacity="0.2" points="20,206 80,236 220,166 160,136 		"/>
		<g>
			<g>
				<polygon fill="#825012" points="212,85 212,166 220,170 228,166 228,85 220,81 				"/>
				<polygon opacity="0.11" points="220,170 212,166 212,85 220,89 				"/>
				<polygon opacity="0.29" points="220,170 228,166 228,85 220,89 				"/>
			</g>
		</g>
		<g>
			<g>
				<polygon fill="#825012" points="152,55 152,136 160,140 168,136 168,55 160,51 				"/>
				<polygon opacity="0.11" points="160,140 152,136 152,55 160,59 				"/>
				<polygon opacity="0.29" points="160,140 168,136 168,55 160,59 				"/>
			</g>
		</g>
		<g>
			<g>
				<polygon fill="#825012" points="72,155 72,236 80,240 88,236 88,155 80,151 				"/>
				<polygon opacity="0.11" points="80,240 72,236 72,155 80,159 				"/>
				<polygon opacity="0.29" points="80,240 88,236 88,155 80,159 				"/>
			</g>
		</g>
		<g>
			<g>
				<polygon fill="#825012" points="12,125 12,206 20,210 28,206 28,125 20,121 				"/>
				<polygon opacity="0.11" points="20,210 12,206 12,125 20,129 				"/>
				<polygon opacity="0.29" points="20,210 28,206 28,125 20,129 				"/>
			</g>
		</g>
		<polygon fill="#825012" points="10,120 10,130 80,165 230,90 230,80 160,45 		"/>
		<polygon opacity="0.11" points="80,165 10,130 10,120 80,155 		"/>
		<polygon opacity="0.29" points="80,165 230,90 230,80 80,155 		"/>
	</g>
	<g>
		<g>
			<polygon fill="#2D3134" points="71,100 71,102 101,117 141,97 141,95 111,80 			"/>
			<polygon fill="#656565" points="87,105 118.9,89 133,96 101.1,112 			"/>
			<polygon fill="#656565" points="88,94 102,87 110,91 96,98 			"/>
			<polygon opacity="0.11" points="101,117 71,102 71,100 101,115 			"/>
			<polygon opacity="0.29" points="101,117 141,97 141,95 101,115 			"/>
		</g>
		<polygon opacity="0.3" fill="#FFFFFF" points="101,111 103,110 101,109 99,110 		"/>
		<polygon opacity="0.3" fill="#FFFFFF" points="105,109 107,108 105,107 103,108 		"/>
		<polygon opacity="0.3" fill="#FFFFFF" points="109,107 111,106 109,105 107,106 		"/>
		<polygon opacity="0.3" fill="#FFFFFF" points="113,105 115,104 113,103 111,104 		"/>
		<polygon opacity="0.3" fill="#FFFFFF" points="117,103 119,102 117,101 115,102 		"/>
		<polygon opacity="0.3" fill="#FFFFFF" points="121,101 123,100 121,99 119,100 		"/>
		<polygon opacity="0.3" fill="#FFFFFF" points="125,99 127,98 125,97 123,98 		"/>
		<polygon opacity="0.3" fill="#FFFFFF" points="129,97 131,96 129,95 127,96 		"/>
		<polygon opacity="0.3" fill="#FFFFFF" points="99,109 101,108 99,107 97,108 		"/>
		<polygon opacity="0.3" fill="#FFFFFF" points="103,107 105,106 103,105 101,106 		"/>
		<polygon opacity="0.3" fill="#FFFFFF" points="107,105 109,104 107,103 105,104 		"/>
		<polygon opacity="0.3" fill="#FFFFFF" points="111,103 113,102 111,101 109,102 		"/>
		<polygon opacity="0.3" fill="#FFFFFF" points="115,101 117,100 115,99 113,100 		"/>
		<polygon opacity="0.3" fill="#FFFFFF" points="119,99 121,98 119,97 117,98 		"/>
		<polygon opacity="0.3" fill="#FFFFFF" points="123,97 125,96 123,95 121,96 		"/>
		<polygon opacity="0.3" fill="#FFFFFF" points="127,95 129,94 127,93 125,94 		"/>
		<polygon opacity="0.3" fill="#FFFFFF" points="94,108 96,107 94,106 92,107 		"/>
		<polygon opacity="0.3" fill="#FFFFFF" points="98,106 100,105 98,104 96,105 		"/>
		<polygon opacity="0.3" fill="#FFFFFF" points="102,104 104,103 102,102 100,103 		"/>
		<polygon opacity="0.3" fill="#FFFFFF" points="106,102 108,101 106,100 104,101 		"/>
		<polygon opacity="0.3" fill="#FFFFFF" points="110,100 112,99 110,98 108,99 		"/>
		<polygon opacity="0.3" fill="#FFFFFF" points="114,98 116,97 114,96 112,97 		"/>
		<polygon opacity="0.3" fill="#FFFFFF" points="118,96 120,95 118,94 116,95 		"/>
		<polygon opacity="0.3" fill="#FFFFFF" points="122,94 124,93 122,92 120,93 		"/>
		<polygon opacity="0.3" fill="#FFFFFF" points="91,106 93,105 91,104 89,105 		"/>
		<polygon opacity="0.3" fill="#FFFFFF" points="95,104 97,103 95,102 93,103 		"/>
		<polygon opacity="0.3" fill="#FFFFFF" points="99,102 101,101 99,100 97,101 		"/>
		<polygon opacity="0.3" fill="#FFFFFF" points="103,100 105,99 103,98 101,99 		"/>
		<polygon opacity="0.3" fill="#FFFFFF" points="107,98 109,97 107,96 105,97 		"/>
		<polygon opacity="0.3" fill="#FFFFFF" points="111,96 113,95 111,94 109,95 		"/>
		<polygon opacity="0.3" fill="#FFFFFF" points="115,94 117,93 115,92 113,93 		"/>
		<polygon opacity="0.3" fill="#FFFFFF" points="119,92 121,91 119,90 117,91 		"/>
	</g>
	<g>
		<g>
			<polygon fill="#2D3134" points="110,89 101,115 103,116 143,96 152,70 150,69 			"/>
			<polygon opacity="0.11" points="103,116 101,115 110,89 112,90 			"/>
			<polygon opacity="0.29" points="103,116 143,96 152,70 112,90 			"/>
		</g>
	</g>
	<path fill="#FFFFFF" d="M55.2,25c-3.3,0.3-8.5,1.5-6,6.9s11.1,16.1,12.6,26.7c1.6,10.6,0.9,14.6,0.9,14.6s6-11,3.8-26
		C64.2,32.2,62.6,24.4,55.2,25z"/>
	<path fill="#CC291F" d="M62.1,61.1L61,43.6l-1-1.3l1-2.4l1.8-0.9l0.9,1.5L63,42.4c0,0,3.8,12.6,3.8,14.8
		c-0.1,8.6-4.1,16.2-4.1,16.2C62.8,67.9,62.5,65.1,62.1,61.1z"/>
	<polygon opacity="0.2" points="55.4,43 58.5,45.7 61,39.9 62.8,39 65.3,43.1 62.4,40.6 61.4,40.9 58.7,47.3 	"/>
	<g>
		<path fill="#656565" d="M67.8,25c2.7,0.3,5.7,2.2,6.9,9.8c1.2,7.6,4.4,21.7,4.4,21.7s5,3.5,11.7,8c6.8,4.6,10.8,6.6,11,8.7
			c0.1,2.1-5,8.5-7.8,7.8c-2.6-0.6-8.6-4.2-13.2-6.8c-4.5-2.6-8.3-4.1-10.5-6.1c-2.2-2-2.9-27.1-2.9-27.1L67.8,25z"/>
		<path fill="#FFFFFF" d="M94.4,76.2c0.6-2.9,3.5-4.6,5.1-4.2c1.6,0.4,2.9,1.2,1.1,4.5c-1,1.8-2.2,3.5-3.6,3.6
			c-0.4,0-1.4-0.4-1.7-0.6C94.7,79,94.1,77.9,94.4,76.2z"/>
		<path fill="#FBD7C7" d="M96.6,75.4c1.3-2.5,5.8-3.2,10.3-0.1c4.3,3,5.9,5.8,5.9,9c0,1.4-1.6,5.4-2.8,4.8c-1.4-0.7-0.6-4.9-1.8-5.6
			c-1.2-0.7-7-2.9-7-2.9s0.7,1-0.2,1.7C100.1,82.8,94.4,79.4,96.6,75.4z"/>
		<path opacity="0.2" d="M105.5,78.1c-2.9-1.5-4.9-0.8-5,0.1c-0.1,0.7,0.5,1.8,0.7,2.3c0.6,0.2,5.8,2.2,7,2.9
			c0.1,0.1,0.2,0.1,0.3,0.2C108.3,82.4,107.7,79.2,105.5,78.1z"/>
	</g>
	<g>
		<path fill="#656565" d="M34.3,39.4c-4.9-0.2-7.9,4.7-9.5,12.2c-1.6,7.5-4.8,36.6,1.3,39.6c4.7,2.3,23.2,4.1,27.2,4.3
			s10.1,0.8,11,0.2c0.9-0.5,1.7-1.7,2.3-5.4c0.6-3.7,0.4-5.5-1.2-6c-1.5-0.5-6.9-2.1-14.1-4.1c-6-1.6-11-3.3-11-3.3s1.9-9.3,3-15.2
			C44.5,55.7,47.4,40,34.3,39.4z"/>
		<path fill="#FFFFFF" d="M65.8,85.8c0,0-1.5,0.7-2,5.3c-0.2,1.9,0.2,3.2,0.2,3.2l2.4,0.2c0,0,1.6-3.2,1.7-5.6
			c0.1-2.5-0.4-2.9-0.4-2.9L65.8,85.8z"/>
		<path fill="#FBD7C7" d="M67.1,87c0,0-1.1,2-1.2,3.6s-0.1,2.9,0.3,3.2c0.4,0.3,7.5,2.4,9.4,3.1c1.8,0.7,5.1,2,6.4,2.7
			c2.1,1.2,3.1,1,4.2,0.6c0.9-0.3,4-3.4,2.5-6.1c-1.5-2.7-5.5-7-9.7-7.4C74.6,86.4,68.3,86.2,67.1,87z"/>
	</g>
	<path opacity="0.2" d="M45.9,29.5c0,0-0.7,5.4,0.1,9.3c1,5.3,2.8,8.4,2.8,8.4l4.5,1.1l-1.3,3.5c0,0,4,3.3,6.1,8.6
		c1.9,4.5,3.2,16.1,3.2,16.1s-1.8-10.6-4.2-15.9c-2.5-5.6-6.4-8.3-6.4-8.3l1.6-3.6L47.4,48c0,0-1.4-3.7-2.3-9.2
		C44.4,33.9,45.9,29.5,45.9,29.5z"/>
	<path fill="#FBD7C7" d="M52.1,6.4c4.5-2.5,15.1-0.7,16.8,7.8c1.7,8.5,1,19.3-1.3,20.8c-2.4,1.5-4.6,0.8-4.6,0.8s0.4,3.5-1.8,3.4
		c-2.2-0.1-7.8-4.7-9.7-7.8s-2.3-3.8-3.4-6.1C47.1,23,41.7,12.3,52.1,6.4z"/>
	<path fill="#762C07" d="M55,18.7c0,0,4.8,1.1,7.3,0.3c2.5-0.8,3.1-3,4.6-3.7c1.8-0.8,2.6-0.6,2.6-0.6C67.6,3.2,53.4,1.9,47.8,8.9
		c-5.5,7-0.2,15.7-0.2,15.7s0.4-2.5,1.9-2.7c1.5-0.2,2.9,4.5,2.9,4.5S55.6,22.9,55,18.7z"/>
</g>
</svg>
