<?xml version="1.0" encoding="utf-8"?>
<!-- Generator: Adobe Illustrator 18.1.0, SVG Export Plug-In . SVG Version: 6.00 Build 0)  -->
<svg version="1.1" id="Layer_1" xmlns="http://www.w3.org/2000/svg" xmlns:xlink="http://www.w3.org/1999/xlink" x="0px" y="0px"
	 viewBox="0 0 320 640" enable-background="new 0 0 320 640" xml:space="preserve">
<g>
	<polygon opacity="0.3" points="26,517 166,587 294,523 152,453 	"/>
	<polygon fill="#FF9900" points="36,474 140,422 140,442 36,494 	"/>
	<polygon opacity="0.29" points="36,474 140,422 140,442 36,494 	"/>
	<polygon fill="#FF9900" points="36,354 140,302 140,322 36,374 	"/>
	<polygon opacity="0.29" points="36,354 140,302 140,322 36,374 	"/>
	<polygon fill="#FF9900" points="36,234 140,182 140,202 36,254 	"/>
	<polygon opacity="0.29" points="36,234 140,182 140,202 36,254 	"/>
	<polygon fill="#FF9900" points="36,114 140,62 140,82 36,134 	"/>
	<g>
		<g>
			<polygon fill="#FF9900" points="166,587 294,523 294,514 286,510 158,574 158,583 			"/>
			<polygon opacity="0.29" points="294,514 294,523 166,587 166,578 			"/>
			<polygon opacity="0.11" points="158,574 158,583 166,587 166,578 			"/>
		</g>
		<g>
			<polygon fill="#FF9900" points="34,521 162,457 162,448 154,444 26,508 26,517 			"/>
			<polygon opacity="0.29" points="162,448 162,457 34,521 34,512 			"/>
			<polygon opacity="0.11" points="26,508 26,517 34,521 34,512 			"/>
		</g>
		<g>
			<polygon fill="#FF9900" points="276,523 136,453 136,444 144,440 284,510 284,519 			"/>
			<polygon opacity="0.11" points="136,444 136,453 276,523 276,514 			"/>
		</g>
		<g>
			<polygon fill="#FF9900" points="176,573 284,519 284,510 276,506 168,560 168,569 			"/>
			<polygon opacity="0.29" points="284,510 284,519 176,573 176,564 			"/>
			<polygon opacity="0.11" points="168,560 168,569 176,573 176,564 			"/>
		</g>
		<g>
			<polygon fill="#FF9900" points="44,507 152,453 152,444 144,440 36,494 36,503 			"/>
			<polygon opacity="0.29" points="152,444 152,453 44,507 44,498 			"/>
			<polygon opacity="0.11" points="36,494 36,503 44,507 44,498 			"/>
		</g>
		<g>
			<polygon fill="#FF9900" points="176,573 36,503 36,494 44,490 184,560 184,569 			"/>
			<polygon opacity="0.11" points="36,494 36,503 176,573 176,564 			"/>
			<polygon opacity="0.29" points="184,560 184,569 176,573 176,564 			"/>
		</g>
	</g>
	<g>
		<g>
			<polygon fill="#FF9900" points="280,272 140,322 140,302 144,300 284,250 284,270 			"/>
			<polygon opacity="0.11" points="140,302 140,322 280,272 280,252 			"/>
			<polygon opacity="0.29" points="284,250 284,270 280,272 280,252 			"/>
		</g>
		<g>
			<g>
				<polygon fill="#FF9900" points="280,392 140,442 140,422 144,420 284,370 284,390 				"/>
				<polygon opacity="0.11" points="140,422 140,442 280,392 280,372 				"/>
				<polygon opacity="0.29" points="284,370 284,390 280,392 280,372 				"/>
			</g>
			<g>
				<polygon fill="#FF9900" points="276,514 136,324 136,304 140,302 280,492 280,512 				"/>
				<polygon opacity="0.11" points="136,304 136,324 276,514 276,494 				"/>
				<polygon opacity="0.29" points="280,492 280,512 276,514 276,494 				"/>
			</g>
		</g>
		<g>
			<polygon fill="#FF9900" points="280,152 140,202 140,182 144,180 284,130 284,150 			"/>
			<polygon opacity="0.11" points="140,182 140,202 280,152 280,132 			"/>
			<polygon opacity="0.29" points="284,130 284,150 280,152 280,132 			"/>
		</g>
		<g>
			<polygon fill="#FF9900" points="276,394 136,204 136,184 140,182 280,372 280,392 			"/>
			<polygon opacity="0.11" points="136,184 136,204 276,394 276,374 			"/>
			<polygon opacity="0.29" points="280,372 280,392 276,394 276,374 			"/>
		</g>
		<g>
			<polygon fill="#FF9900" points="276,274 136,84 136,64 140,62 280,252 280,272 			"/>
			<polygon opacity="0.11" points="136,64 136,84 276,274 276,254 			"/>
			<polygon opacity="0.29" points="280,252 280,272 276,274 276,254 			"/>
		</g>
	</g>
	<g>
		<path fill="#656565" d="M252.5,395.8L114.6,208.6c-0.4-0.5-0.6-1.2-0.6-1.8v-2.1c0-1.2,0.7-2.2,1.7-2.7h0c1.3-0.7,3-0.3,3.8,0.9
			L257.4,390c0.4,0.5,0.6,1.2,0.6,1.8v2.1c0,1.2-0.7,2.2-1.7,2.7l0,0C255,397.3,253.4,397,252.5,395.8z"/>
	</g>
	<polygon fill="#FF9900" points="176,544 280,492 280,512 176,564 	"/>
	<polygon opacity="0.29" points="176,544 280,492 280,512 176,564 	"/>
	<polygon fill="#FF9900" points="176,304 280,252 280,272 176,324 	"/>
	<polygon opacity="0.29" points="176,304 280,252 280,272 176,324 	"/>
	<polygon fill="#FF9900" points="176,184 280,132 280,152 176,204 	"/>
	<polygon opacity="0.29" points="176,184 280,132 280,152 176,204 	"/>
	<g>
		<path fill="#656565" d="M194.5,421.9L56.6,234.8c-0.4-0.5-0.6-1.2-0.6-1.8v-2.1c0-1.2,0.7-2.2,1.7-2.7h0c1.3-0.7,3-0.3,3.8,0.9
			l137.9,187.1c0.4,0.5,0.6,1.2,0.6,1.8v2.1c0,1.2-0.7,2.2-1.7,2.7l0,0C197,423.5,195.4,423.1,194.5,421.9z"/>
	</g>
	<path fill="#FF9900" d="M199.3,415.1L148.9,347l0.1,1c0,1.8-2.1,3.7-3.6,4.5c-0.8,0.4-1.6,0.5-2.4,0.5l50.6,68.7
		c1,1.4,2.9,1.8,4.5,1.1c1.2-0.6,2-1.8,2-3.2v-2.4C200,416.4,199.8,415.7,199.3,415.1z"/>
	<path fill="#FF9900" d="M257.3,388.9l-50.4-68.1l0.1,1c0,1.8-2.1,3.7-3.6,4.5c-0.8,0.4-1.6,0.5-2.4,0.5l50.6,68.7
		c1,1.4,2.9,1.8,4.5,1.1c1.2-0.6,2-1.8,2-3.2V391C258,390.2,257.8,389.5,257.3,388.9z"/>
	<g>
		<g>
			<polygon fill="#FF9900" points="180,322 40,372 40,352 44,350 184,300 184,320 			"/>
			<polygon opacity="0.11" points="40,352 40,372 180,322 180,302 			"/>
			<polygon opacity="0.29" points="184,300 184,320 180,322 180,302 			"/>
		</g>
		<g>
			<g>
				<polygon fill="#FF9900" points="180,442 40,492 40,472 44,470 184,420 184,440 				"/>
				<polygon opacity="0.11" points="40,472 40,492 180,442 180,422 				"/>
				<polygon opacity="0.29" points="184,420 184,440 180,442 180,422 				"/>
			</g>
			<g>
				<polygon fill="#FF9900" points="176,564 36,374 36,354 40,352 180,542 180,562 				"/>
				<polygon opacity="0.11" points="36,354 36,374 176,564 176,544 				"/>
				<polygon opacity="0.29" points="180,542 180,562 176,564 176,544 				"/>
			</g>
		</g>
		<g>
			<polygon fill="#FF9900" points="180,202 40,252 40,232 44,230 184,180 184,200 			"/>
			<polygon opacity="0.11" points="40,232 40,252 180,202 180,182 			"/>
			<polygon opacity="0.29" points="184,180 184,200 180,202 180,182 			"/>
		</g>
		<g>
			<polygon fill="#FF9900" points="176,444 36,254 36,234 40,232 180,422 180,442 			"/>
			<polygon opacity="0.11" points="36,234 36,254 176,444 176,424 			"/>
			<polygon opacity="0.29" points="180,422 180,442 176,444 176,424 			"/>
		</g>
		<g>
			<polygon fill="#FF9900" points="176,324 36,134 36,114 40,112 180,302 180,322 			"/>
			<polygon opacity="0.11" points="36,114 36,134 176,324 176,304 			"/>
			<polygon opacity="0.29" points="180,302 180,322 176,324 176,304 			"/>
		</g>
	</g>
	<polygon fill="#FF9900" points="176,424 280,372 280,392 176,444 	"/>
	<polygon opacity="0.29" points="176,424 280,372 280,392 176,444 	"/>
	<g>
		<g>
			<polygon fill="#FF9900" points="176,190 36,120 36,111 144,57 284,127 284,136 			"/>
			<polygon opacity="0.11" points="36,111 36,120 176,190 176,181 			"/>
			<polygon opacity="0.29" points="284,127 284,136 176,190 176,181 			"/>
		</g>
	</g>
</g>
</svg>
