<?xml version="1.0" encoding="utf-8"?>
<!-- Generator: Adobe Illustrator 18.1.0, SVG Export Plug-In . SVG Version: 6.00 Build 0)  -->
<svg version="1.1" id="Layer_1" xmlns="http://www.w3.org/2000/svg" xmlns:xlink="http://www.w3.org/1999/xlink" x="0px" y="0px"
	 viewBox="0 0 64 64" enable-background="new 0 0 64 64" xml:space="preserve">
<g>
	<polygon fill="#E5E5E5" points="0,64 64,32 64,0 0,32 	"/>
	<polygon fill="#2D3134" points="11,57 9,58 9,36 27,27 27,49 25,50 25,33 11,40 	"/>
	<polygon fill="#2D3134" points="43,41 41,42 41,20 59,11 59,33 57,34 57,17 43,24 	"/>
	<g>
		<polygon fill="#656565" points="25,33 11,40 11,56 25,49 		"/>
		<polygon opacity="0.25" fill="#FFFFFF" points="11,55 25,48 25,47 11,54 		"/>
		<polygon opacity="0.25" fill="#FFFFFF" points="11,53 25,46 25,45 11,52 		"/>
		<polygon opacity="0.25" fill="#FFFFFF" points="11,51 25,44 25,43 11,50 		"/>
		<polygon opacity="0.25" fill="#FFFFFF" points="11,49 25,42 25,41 11,48 		"/>
		<polygon opacity="0.25" fill="#FFFFFF" points="11,47 25,40 25,39 11,46 		"/>
		<polygon opacity="0.25" fill="#FFFFFF" points="11,45 25,38 25,37 11,44 		"/>
		<polygon opacity="0.25" fill="#FFFFFF" points="11,43 25,36 25,35 11,42 		"/>
		<polygon opacity="0.25" fill="#FFFFFF" points="11,41 25,34 25,33 11,40 		"/>
	</g>
	<g>
		<polygon fill="#656565" points="57,17 43,24 43,40 57,33 		"/>
		<polygon opacity="0.25" fill="#FFFFFF" points="43,39 57,32 57,31 43,38 		"/>
		<polygon opacity="0.25" fill="#FFFFFF" points="43,37 57,30 57,29 43,36 		"/>
		<polygon opacity="0.25" fill="#FFFFFF" points="43,35 57,28 57,27 43,34 		"/>
		<polygon opacity="0.25" fill="#FFFFFF" points="43,33 57,26 57,25 43,32 		"/>
		<polygon opacity="0.25" fill="#FFFFFF" points="43,31 57,24 57,23 43,30 		"/>
		<polygon opacity="0.25" fill="#FFFFFF" points="43,29 57,22 57,21 43,28 		"/>
		<polygon opacity="0.25" fill="#FFFFFF" points="43,27 57,20 57,19 43,26 		"/>
		<polygon opacity="0.25" fill="#FFFFFF" points="43,25 57,18 57,17 43,24 		"/>
	</g>
	<polygon opacity="0.29" points="0,64 64,32 64,0 0,32 	"/>
</g>
</svg>
