<?xml version="1.0" encoding="utf-8"?>
<!-- Generator: Adobe Illustrator 18.1.0, SVG Export Plug-In . SVG Version: 6.00 Build 0)  -->
<svg version="1.1" id="Layer_1" xmlns="http://www.w3.org/2000/svg" xmlns:xlink="http://www.w3.org/1999/xlink" x="0px" y="0px"
	 viewBox="0 0 128 128" enable-background="new 0 0 128 128" xml:space="preserve">
<g>
	<polygon fill="#656565" points="64,64 128,96 64,128 	"/>
	<g>
		<polygon fill="#E5E5E5" points="128,96 64,64 64,32 128,32 		"/>
		<polygon opacity="0.11" points="128,96 64,64 64,32 128,32 		"/>
		<g>
			<polygon fill="#FFCC00" points="99,82 99,90 107,94 115,90 115,82 107,78 			"/>
			<polygon opacity="0.11" points="107,94 99,90 99,82 107,86 			"/>
			<polygon opacity="0.3" points="104,79.5 102,80.5 110,84.5 110,88.5 112,87.5 112,83.5 			"/>
			<polygon opacity="0.29" points="107,94 115,90 115,82 107,86 			"/>
		</g>
		<g>
			<polygon fill="#FFCC00" points="75,94 75,102 83,106 91,102 91,94 83,90 			"/>
			<polygon opacity="0.11" points="83,106 75,102 75,94 83,98 			"/>
			<polygon opacity="0.3" points="80,91.5 78,92.5 86,96.5 86,100.5 88,99.5 88,95.5 			"/>
			<polygon opacity="0.29" points="83,106 91,102 91,94 83,98 			"/>
		</g>
		<g>
			<polygon fill="#FFCC00" points="65,99 65,107 73,111 81,107 81,99 73,95 			"/>
			<polygon opacity="0.11" points="73,111 65,107 65,99 73,103 			"/>
			<polygon opacity="0.3" points="70,96.5 68,97.5 76,101.5 76,105.5 78,104.5 78,100.5 			"/>
			<polygon opacity="0.29" points="73,111 81,107 81,99 73,103 			"/>
		</g>
		<path fill="#E5E5E5" d="M0,32v64l64,32l64-32V32H0z M89,113l-14,7v-16l14-7V113z M121,97l-14,7V88l14-7V97z"/>
		<polygon opacity="0.11" points="64,128 0,96 0,32 64,64 		"/>
		<polygon fill="#2D3134" points="75,121 73,122 73,100 91,91 91,113 89,114 89,97 75,104 		"/>
		<polygon fill="#2D3134" points="107,105 105,106 105,84 123,75 123,97 121,98 121,81 107,88 		"/>
		<g>
			<g>
				<g>
					<polygon fill="#FFFFFF" points="91,67 73,76 73,68 91,59 					"/>
					<polygon fill="#3399CC" points="90,66.5 74,74.5 74,68.5 90,60.5 					"/>
					<polygon opacity="0.15" points="90,63.5 74,71.5 74,68.5 90,60.5 					"/>
					<polygon opacity="0.15" points="90,61.5 74,69.5 74,68.5 90,60.5 					"/>
					<polygon opacity="0.15" points="90,66.5 74,68.5 90,60.5 					"/>
				</g>
				<g>
					<polygon fill="#FFFFFF" points="123,51 105,60 105,52 123,43 					"/>
					<polygon fill="#3399CC" points="122,50.5 106,58.5 106,52.5 122,44.5 					"/>
					<polygon opacity="0.15" points="122,47.5 106,55.5 106,52.5 122,44.5 					"/>
					<polygon opacity="0.15" points="122,45.5 106,53.5 106,52.5 122,44.5 					"/>
					<polygon opacity="0.15" points="122,50.5 106,52.5 122,44.5 					"/>
				</g>
			</g>
		</g>
		<path opacity="0.29" d="M64,64v64l64-32V32L64,64z M89,113l-14,7v-16l14-7V113z M121,97l-14,7V88l14-7V97z"/>
	</g>
	<g>
		<g>
			<g>
				<polygon fill="#2D3134" points="64,0 128,32 64,64 0,32 				"/>
			</g>
			<g>
				<polygon fill="#2D3134" points="64,0 128,32 64,64 0,32 				"/>
			</g>
		</g>
	</g>
</g>
</svg>
