<?xml version="1.0" encoding="utf-8"?>
<!-- Generator: Adobe Illustrator 18.1.0, SVG Export Plug-In . SVG Version: 6.00 Build 0)  -->
<svg version="1.1" id="Layer_1" xmlns="http://www.w3.org/2000/svg" xmlns:xlink="http://www.w3.org/1999/xlink" x="0px" y="0px"
	 viewBox="0 0 240 240" enable-background="new 0 0 240 240" xml:space="preserve">
<g>
	<g>
		<path opacity="0.2" d="M31.1,151.5l33.6,16.8c0.8,0.4,1.7,0.4,2.6,0l33.6-16.8c2.1-1.1,2.1-4,0-5.1l-33.6-16.8
			c-0.8-0.4-1.7-0.4-2.6,0l-33.6,16.8C29,147.4,29,150.4,31.1,151.5z"/>
		<path fill="#2D3134" d="M65.5,168.9c-0.7,0-1.4-0.2-2-0.5l-31.9-16c-1.5-0.8-2.5-2.3-2.5-4.1s1-3.3,2.5-4.1L61,129.7
			c1.6-0.8,3.3-1.2,5-1.2v-0.4l-36.9-18.4c-1-0.5-1.4-1.7-0.9-2.7c0.5-1,1.7-1.4,2.7-0.9l38,19c0.7,0.3,1.1,1,1.1,1.8v2.3
			c0.3,0.1,0.6,0.3,1,0.4l32.4,16.2c0.2,0.1,0.3,0,0.4,0c0.1-0.1,0.2-0.2,0.2-0.4v-35.3l-0.9-0.4c-1-0.5-1.4-1.7-0.9-2.7
			c0.5-1,1.7-1.4,2.7-0.9l2,1c0.7,0.3,1.1,1,1.1,1.8v36.5c0,1.6-0.8,3-2.1,3.8c-1.3,0.8-2.9,0.9-4.3,0.2L70,133.7v30.8
			c0,1.6-0.8,3-2.1,3.8C67.2,168.7,66.4,168.9,65.5,168.9z M66,132.5c-1.1,0-2.2,0.2-3.2,0.7L33.4,148c-0.2,0.1-0.3,0.3-0.3,0.5
			s0.1,0.4,0.3,0.5l31.9,16c0.2,0.1,0.3,0,0.4,0c0.1-0.1,0.2-0.2,0.2-0.4V132.5z"/>
		<path opacity="0.2" fill="#FFFFFF" d="M65,166.9c-0.5,0-0.9-0.1-1.3-0.3l-31.9-16c-1-0.5-1.7-1.6-1.7-2.7s0.6-2.2,1.7-2.7
			l29.4-14.7c0.2-0.1,0.5,0,0.7,0.2c0.1,0.2,0,0.5-0.2,0.7l-29.4,14.7c-0.7,0.4-1.1,1-1.1,1.8s0.4,1.5,1.1,1.8l31.9,16
			c0.6,0.3,1.3,0.3,1.9-0.1c0.6-0.4,0.9-1,0.9-1.7v-37.5c0-0.3,0.2-0.5,0.5-0.5s0.5,0.2,0.5,0.5v37.5c0,1-0.5,2-1.4,2.5
			C66.1,166.8,65.6,166.9,65,166.9z"/>
		<path opacity="0.2" fill="#FFFFFF" d="M103,147.9c-0.5,0-0.9-0.1-1.3-0.3l-30.5-15.2c-0.2-0.1-0.3-0.4-0.2-0.7s0.4-0.3,0.7-0.2
			l30.5,15.2c0.6,0.3,1.3,0.3,1.9-0.1c0.6-0.4,0.9-1,0.9-1.7v-36.5c0-0.3,0.2-0.5,0.5-0.5s0.5,0.2,0.5,0.5v36.5c0,1-0.5,2-1.4,2.5
			C104.1,147.8,103.6,147.9,103,147.9z"/>
		<g>
			<g>
				<polygon fill="#FF9900" points="28,103.9 28,107.9 68,127.9 108,107.9 108,103.9 68,83.9 				"/>
				<polygon opacity="0.11" points="68,127.9 28,107.9 28,103.9 68,123.9 				"/>
				<polygon opacity="0.29" points="68,127.9 108,107.9 108,103.9 68,123.9 				"/>
			</g>
		</g>
		<path fill="#FF9900" d="M67,33.9l-4-2l-40,20l2.2,8.9c1.9,7.4,2.8,15,2.8,22.6v20.5l4,2l40-20V65.4c0-7.6-0.9-15.2-2.8-22.6
			L67,33.9z"/>
		<path opacity="0.11" d="M27,53.9l-4-2l2.2,8.9c1.9,7.4,2.8,15,2.8,22.6v20.5l4,2V85.4c0-7.6-0.9-15.2-2.8-22.6L27,53.9z"/>
		<path opacity="0.29" d="M67,33.9l-40,20l2.2,8.9c1.9,7.4,2.8,15,2.8,22.6v20.5l40-20V65.4c0-7.6-0.9-15.2-2.8-22.6L67,33.9z"/>
	</g>
	<path fill="#262626" d="M104.1,112.2c0,0,2.3,0.7,2.8,1.4c1.2,1.7,4.3,10.1-9.7,11.7s-20.4,0.1-20.4,0.1l4.1-12.9L104.1,112.2z"/>
	<path opacity="0.2" d="M106.3,167.7c11,7.1,11.6,13.5,0,19.7c-12.6,6.8-21,3.1-30.8-2.5c-9.8-5.6-11.1-12.5,3.4-18.3
		C90.6,161.8,98,162.3,106.3,167.7z"/>
	<path fill="#FBD7C7" d="M86.1,161.6c1.2-3.6,1.7-2.2,2-5.3c0.3-3.1,1.7-14.8,2.6-20.8c0.9-6.1,3-12.9,3.4-14
		c0.2-0.6-13.8-6.6-17.4-11.1l16.1-9.1c10.6,9,15.4,15.3,14.8,20.4c-0.5,4.1-6.4,16.6-8,21.5c-1.5,4.6-5.1,12.8-1.9,19.3
		c3.2,6.5,6.1,9.3,7.4,10.5s-0.2,5.2-3,4.5c-2.8-0.7-7.2-7.1-9.9-8.1S84.9,165.2,86.1,161.6z"/>
	<path fill="#656565" d="M103.3,171.1c0,0,4.9,1.7,5.9,3.9c0.8,1.8,0.5,3.9-1.2,5c-1.8,1-5.2,1.3-8.2-0.4c-2.9-1.7-6.8-8.4-7.5-8.7
		c-0.7-0.3-0.2,3.7-0.2,3.7l-2.1,1.1l-2.3-0.9c0,0,0.2-4.5-0.7-6c-0.9-1.6-2.6-3.9-2-6.9c0.7-3,2.6-3.3,2.6-3.3s0,3.5,4,7.3
		c3.8,3.6,5.9,9.6,9.2,9.3C105.3,174.5,103.3,171.1,103.3,171.1z"/>
	<path fill="#FBD7C7" d="M76.6,134.2c0.4-5.1,1.5-9.3,1.5-9.3s-13.9-4.9-21-8.8l20-11.6c10.1,7.1,16.3,16.3,16.3,20.4
		c0,2.9-5.4,19.2-6.1,26.1s-2.1,16.5,0.8,20.7c2.9,4.1,8,10.3,6,11.7c-2,1.4-8.3,2.7-9.8-0.9c-1.5-3.6-5.3-11.1-6.7-13.1
		c-1.4-2-1.9-3.1-1-5c0.9-1.9,1.8-5.4,1.2-11.1C77.1,148,75.9,142.2,76.6,134.2z"/>
	<path fill="#656565" d="M91.6,176.6c0,0,4.6,3.5,4.9,5.7c0.3,2.2,0.2,3.7-2.9,4.7c-3.1,1-7.1-0.2-9-1.8s-4.4-5.8-4.4-5.8l-2,1.1
		l-2.3-1.1c0,0,0.3-2.7-0.4-5.1s-1.4-4.4-1.4-7.4s2.8-3.3,2.8-3.3s-1.7,1.6,0.8,5.1c2.5,3.5,4.4,11.3,8.1,11.5
		C92.7,180.7,91.6,176.6,91.6,176.6z"/>
	<path fill="#2D3134" d="M74.8,79.3c0,0-6.3,0.5-11.1,0.5s-14.6-2-14.6-2s-8.9,7.4-9,17.5s4.6,16.3,12.4,20s24.4,10,24.4,10
		s2.6-7.9,10.6-9.3c6.1-1.1,13.6-2.7,16.8-3.4c1-0.2,2.5,0.7,2.5,0.7S91.7,98.7,88.2,95.6S74.4,83.1,74.8,79.3z"/>
	<g>
		<polygon opacity="0.2" points="20,206 80,236 220,166 160,136 		"/>
		<g>
			<g>
				<polygon fill="#825012" points="212,85 212,166 220,170 228,166 228,85 220,81 				"/>
				<polygon opacity="0.11" points="220,170 212,166 212,85 220,89 				"/>
				<polygon opacity="0.29" points="220,170 228,166 228,85 220,89 				"/>
			</g>
		</g>
		<g>
			<g>
				<polygon fill="#825012" points="152,55 152,136 160,140 168,136 168,55 160,51 				"/>
				<polygon opacity="0.11" points="160,140 152,136 152,55 160,59 				"/>
				<polygon opacity="0.29" points="160,140 168,136 168,55 160,59 				"/>
			</g>
		</g>
		<g>
			<g>
				<polygon fill="#825012" points="72,155 72,236 80,240 88,236 88,155 80,151 				"/>
				<polygon opacity="0.11" points="80,240 72,236 72,155 80,159 				"/>
				<polygon opacity="0.29" points="80,240 88,236 88,155 80,159 				"/>
			</g>
		</g>
		<g>
			<g>
				<polygon fill="#825012" points="12,125 12,206 20,210 28,206 28,125 20,121 				"/>
				<polygon opacity="0.11" points="20,210 12,206 12,125 20,129 				"/>
				<polygon opacity="0.29" points="20,210 28,206 28,125 20,129 				"/>
			</g>
		</g>
		<polygon fill="#825012" points="10,120 10,130 80,165 230,90 230,80 160,45 		"/>
		<polygon opacity="0.11" points="80,165 10,130 10,120 80,155 		"/>
		<polygon opacity="0.29" points="80,165 230,90 230,80 80,155 		"/>
	</g>
	<g>
		<g>
			<polygon fill="#2D3134" points="73,96 73,98 103,113 143,93 143,91 113,76 			"/>
			<polygon fill="#656565" points="89,101 120.9,85 135,92 103.1,108 			"/>
			<polygon fill="#656565" points="90,90 104,83 112,87 98,94 			"/>
			<polygon opacity="0.11" points="103,113 73,98 73,96 103,111 			"/>
			<polygon opacity="0.29" points="103,113 143,93 143,91 103,111 			"/>
		</g>
		<polygon opacity="0.3" fill="#FFFFFF" points="103,107 105,106 103,105 101,106 		"/>
		<polygon opacity="0.3" fill="#FFFFFF" points="107,105 109,104 107,103 105,104 		"/>
		<polygon opacity="0.3" fill="#FFFFFF" points="111,103 113,102 111,101 109,102 		"/>
		<polygon opacity="0.3" fill="#FFFFFF" points="115,101 117,100 115,99 113,100 		"/>
		<polygon opacity="0.3" fill="#FFFFFF" points="119,99 121,98 119,97 117,98 		"/>
		<polygon opacity="0.3" fill="#FFFFFF" points="123,97 125,96 123,95 121,96 		"/>
		<polygon opacity="0.3" fill="#FFFFFF" points="127,95 129,94 127,93 125,94 		"/>
		<polygon opacity="0.3" fill="#FFFFFF" points="131,93 133,92 131,91 129,92 		"/>
		<polygon opacity="0.3" fill="#FFFFFF" points="101,105 103,104 101,103 99,104 		"/>
		<polygon opacity="0.3" fill="#FFFFFF" points="105,103 107,102 105,101 103,102 		"/>
		<polygon opacity="0.3" fill="#FFFFFF" points="109,101 111,100 109,99 107,100 		"/>
		<polygon opacity="0.3" fill="#FFFFFF" points="113,99 115,98 113,97 111,98 		"/>
		<polygon opacity="0.3" fill="#FFFFFF" points="117,97 119,96 117,95 115,96 		"/>
		<polygon opacity="0.3" fill="#FFFFFF" points="121,95 123,94 121,93 119,94 		"/>
		<polygon opacity="0.3" fill="#FFFFFF" points="125,93 127,92 125,91 123,92 		"/>
		<polygon opacity="0.3" fill="#FFFFFF" points="129,91 131,90 129,89 127,90 		"/>
		<polygon opacity="0.3" fill="#FFFFFF" points="96,104 98,103 96,102 94,103 		"/>
		<polygon opacity="0.3" fill="#FFFFFF" points="100,102 102,101 100,100 98,101 		"/>
		<polygon opacity="0.3" fill="#FFFFFF" points="104,100 106,99 104,98 102,99 		"/>
		<polygon opacity="0.3" fill="#FFFFFF" points="108,98 110,97 108,96 106,97 		"/>
		<polygon opacity="0.3" fill="#FFFFFF" points="112,96 114,95 112,94 110,95 		"/>
		<polygon opacity="0.3" fill="#FFFFFF" points="116,94 118,93 116,92 114,93 		"/>
		<polygon opacity="0.3" fill="#FFFFFF" points="120,92 122,91 120,90 118,91 		"/>
		<polygon opacity="0.3" fill="#FFFFFF" points="124,90 126,89 124,88 122,89 		"/>
		<polygon opacity="0.3" fill="#FFFFFF" points="93,102 95,101 93,100 91,101 		"/>
		<polygon opacity="0.3" fill="#FFFFFF" points="97,100 99,99 97,98 95,99 		"/>
		<polygon opacity="0.3" fill="#FFFFFF" points="101,98 103,97 101,96 99,97 		"/>
		<polygon opacity="0.3" fill="#FFFFFF" points="105,96 107,95 105,94 103,95 		"/>
		<polygon opacity="0.3" fill="#FFFFFF" points="109,94 111,93 109,92 107,93 		"/>
		<polygon opacity="0.3" fill="#FFFFFF" points="113,92 115,91 113,90 111,91 		"/>
		<polygon opacity="0.3" fill="#FFFFFF" points="117,90 119,89 117,88 115,89 		"/>
		<polygon opacity="0.3" fill="#FFFFFF" points="121,88 123,87 121,86 119,87 		"/>
	</g>
	<g>
		<g>
			<polygon fill="#2D3134" points="112,85 103,111 105,112 145,92 154,66 152,65 			"/>
			<polygon opacity="0.11" points="105,112 103,111 112,85 114,86 			"/>
			<polygon opacity="0.29" points="105,112 145,92 154,66 114,86 			"/>
		</g>
	</g>
	<path fill="#3399CC" d="M76.6,31.6c1.8,1,4.8,3.8,5,8.3c0.2,4.5,1.8,14.9,2.8,15.8c0.9,0.8,18.4,9.8,20.7,10.9
		c2.3,1.1,0.5,8.7-2.3,10.2s-4.7,1.1-8.6-1c-3.9-2.2-17.3-9.7-19-12.5c-1.8-2.8-1.3-24.6-1.3-24.6L76.6,31.6z"/>
	<path fill="#3399CC" d="M41.4,44.3c2.1-3.8,12.5-10.1,17.1-11.5c4.6-1.4,14.2-2.8,17.9-1.3c2.1,0.8,2.4,4.5,1.8,9.8
		s1.1,13.8,0.5,17.2s-4.9,5.6-4.8,8s2.5,13.8,2.2,14.7s-9.5,4-15.7,4s-15.1-2.6-15.1-2.6L41.4,44.3z"/>
	<path opacity="0.15" d="M41.4,44.3c2.1-3.8,12.5-10.1,17.1-11.5c4.6-1.4,14.2-2.8,17.9-1.3c2.1,0.8,2.4,4.5,1.8,9.8
		s1.1,13.8,0.5,17.2s-4.9,5.6-4.8,8s2.5,13.8,2.2,14.7s-9.5,4-15.7,4s-15.1-2.6-15.1-2.6L41.4,44.3z"/>
	<path fill="#FFFFFF" d="M70.1,36.7c0,0,2.6,9.5,2.4,14.4s-1.9,12.6-1.9,12.6s-3.3-6.4-8.6-14.5s-7.5-11-7.3-13S67.2,29.6,70.1,36.7
		z"/>
	<path fill="#2D3134" d="M54.3,34.7c0,0,2.5,7,6.4,12.5s9.9,16.5,9.9,16.5l-0.5,1.1l-11-11.7l-1-6.4l-4-2.5l-3.8-7.9L54.3,34.7z"/>
	<path fill="#2D3134" d="M69.2,33.4c0,0,3.1,12.1,3,16.8S70.6,62.2,69.9,64c-0.6,1.7-1.6,6.6-1.6,10.2s0.2,9.8,0.2,9.8l1,0.1
		c0,0-0.7-10.2,0.2-14c1.6-6.5,6.8-18.9,7.4-21.6c-1.3-2.1-2.9-5.3-2.9-5.3l0.9-8.1l-2.9-3L69.2,33.4z"/>
	<path fill="#FBD7C7" d="M113.9,79.8c-2,0-2.3-4.4-3.6-4.6s-4.9,0.6-7.3-0.6S98.8,73,98.8,73s-0.3-2.2,1.1-3.7
		c0.9-0.9,1.9-1.2,1.9-1.2s2.9,1.7,4.3,1.8s5.7-0.6,8.4,0.8C118.5,72.7,117.2,79.8,113.9,79.8z"/>
	<path fill="#FBD7C7" d="M72.8,35.7c-1.7,1.6-3.6,0.8-3.6,0.8s0.9,9.1-3.3,9.6s-9.5-5.6-10.3-7.5c-1.5-3.5-0.9-3.9-0.9-3.9
		s1.1-2,0.8-3.8c-0.4-1.8-10.5-19.5-0.6-24s19.5,2.3,20.5,8.3S75.1,33.6,72.8,35.7z"/>
	<path fill="#762C07" d="M74.1,16.3c0,0,0.4,6.7-4.1,10.6c-0.1-3.2-0.7-4.6-0.7-4.6s-1.9,5.8-4.4,5.6c1.1-2.9,0.8-4.7,0.8-4.7
		s-1.1,1.7-2.1,1.4c0.3-1.8-0.4-2.9-0.4-2.9s-1.2,4.8-1.3,10.9c-4.8-2.3-6.6-9.6-6.6-9.6s-0.2,5.5,1.5,10.5
		c-2.8,0.2-10.8-7.2-9.8-18.3c0.8-8.6,9.4-11.4,9.4-11.4l-2.2-0.4c0,0,7.7-3.8,15.4,0.4c8.8,4.8,7.5,17.2,6.9,17.4
		C75.5,17.2,74.1,16.3,74.1,16.3z"/>
	<path fill="#3399CC" d="M46.3,42.1c-4.2-0.2-5.7,2.7-5.9,5.6c-0.3,2.9,0.1,22,0,26.1c-0.1,4.1,1,11.1,3.9,12.7
		c2.9,1.6,11.7,2.8,16.2,3.9c4.5,1.2,9,3,10.7,3.3c1.4,0.3,4.3-3.3,4.5-6.8c0.1-2.7-0.3-5.8-2.6-6.2c-2.3-0.3-20.9-3.9-20.9-3.9
		s1.4-17.5,1.8-22.1C54.2,50.1,53,42.4,46.3,42.1z"/>
	<path fill="#FBD7C7" d="M71.6,83.3c0,0-0.8,1-1.1,2.8s-0.2,3.8-0.2,3.8s5.7-0.3,7.4,0.1s4.6,0.8,7.4-0.1c2.3-0.7,4.1-1.6,5.6-1.1
		s0.8,4.4,4.6,3.1c2.2-0.8,3-5.5,1.8-7.6s-5.3-3.6-9.9-2.4s-5.8,2.3-7,2.3S71.6,83.3,71.6,83.3z"/>
</g>
</svg>
