<?xml version="1.0" encoding="utf-8"?>
<!-- Generator: Adobe Illustrator 18.1.0, SVG Export Plug-In . SVG Version: 6.00 Build 0)  -->
<svg version="1.0" id="Layer_1" xmlns="http://www.w3.org/2000/svg" xmlns:xlink="http://www.w3.org/1999/xlink" x="0px" y="0px"
	 viewBox="0 0 80 240" enable-background="new 0 0 80 240" xml:space="preserve">
<g>
	<path fill="#2D3134" d="M15.2,206.7c0,0-2,4.2,0.5,5c2.5,0.8,5.3,0,9.6-2.2s12.1-4.2,13.9-7.4c1.7-3.1-2.8-6.1-9.6-4.2
		s-5.5,1.5-5.5,1.5L15.2,206.7z"/>
	<path opacity="0.4" d="M39.3,199.6c0,0.4-0.1,0.8-0.4,1.2c-1.8,3.2-9.6,5.2-13.9,7.4s-7.2,3-9.6,2.2c-0.4-0.1-0.7-0.4-0.9-0.6
		c0,0.9,0.3,1.7,1.2,2.1c2.5,0.8,5.3,0,9.6-2.2c4.3-2.2,12.1-4.2,13.9-7.4C39.8,201.3,39.8,200.4,39.3,199.6z"/>
	<path fill="#2D3134" d="M52.7,221.5c0,0-3.2,7.1,1.4,8.1s8.6-3.3,10.9-4.7c2.4-1.5,8-5,9.5-6.9c1.1-1.3,0.8-6.6-5.8-5.8
		s-10.4,4.4-10.4,4.4L52.7,221.5z"/>
	<path opacity="0.4" d="M73.9,213.5c0.5,1.2,0.3,2.6-0.2,3.2c-1.5,1.9-7.1,5.4-9.5,6.9c-2.4,1.5-6.3,5.7-10.9,4.7
		c-0.6-0.1-1.1-0.4-1.4-0.7c0.3,1,1,1.7,2.3,2c4.6,1,8.6-3.3,10.9-4.7c2.4-1.5,8-5,9.5-6.9C75.2,217.2,75.3,214.9,73.9,213.5z"/>
	<path opacity="0.2" d="M71,225.9c15.9-10.7-0.4-14.4-14.7-20.3c-13.8-5.6-23.9-15-39.8-2.5c-12.8,10.1,10.5,17.6,17.4,21
		C44.3,229.3,56.2,235.9,71,225.9z"/>
	<path fill="#06547A" d="M31,98c0.5,0.3,21.2,3.8,21.2,3.8s-7.4,36.6-11.5,47s-9.1,27.7-10.3,33.8c-1.3,6.5-2.3,17.1-2.2,17.9
		c0.3,2-3.1,7.6-8.2,8.8s-6.5-0.4-6.4-1.4c0.3-5.7,1-23.7,3.3-34.3c1.6-7.4,5.1-15.7,5.4-19.8c0.3-4.1-0.7-27.5,2.7-39.9
		S31,98,31,98z"/>
	<path opacity="0.2" d="M31,98c0.5,0.3,21.2,3.8,21.2,3.8s-7.4,36.6-11.5,47s-9.1,27.7-10.3,33.8c-1.3,6.5-2.3,17.1-2.2,17.9
		c0.3,2-3.1,7.6-8.2,8.8s-6.5-0.4-6.4-1.4c0.3-5.7,1-23.7,3.3-34.3c1.6-7.4,5.1-15.7,5.4-19.8c0.3-4.1-0.7-27.5,2.7-39.9
		S31,98,31,98z"/>
	<path fill="#06547A" d="M37.7,100.7c0,0-2.7,11.2-1.8,17.5c0.9,6.2,2.5,13.4,5.2,23.5c2.8,10.4,7.2,20.7,6.4,30.3
		c-0.8,9.6-0.1,24.5,0.3,34.2c0.4,11.4,0.9,20.6,3.6,21.3c4.3,1.2,10.5-3.3,11.7-6.2c1.2-3,1.8-4.4,1.2-7.5
		c-0.3-1.6-1.5-18.1-1.1-27.1c0.4-9,1.8-22.3,3-32.8S67,133,65,121.9c-2-11.1-2.3-20-2.3-20L37.7,100.7z"/>
	<path fill="#3399CC" d="M22.7,51.5C20,52.9,13.3,60.7,8.9,66S0.9,76.5,1.4,79.5s16.3,14.8,21.3,17.6s8.3,4.5,8.3,4.5l2.1-7.3
		c0,0-8.9-6.1-11.2-8.5s-7.8-7.3-7.8-7.3s4.3-4,7.8-8c4.2-5,8.1-10.4,8.1-10.4L22.7,51.5z"/>
	<path fill="#FBD7C7" d="M31.9,51.1c0,0,4.3,4.8,7.7,5.8c3.9,1.1,11.1,0.1,11.1,0.1s2.3-8.3,2.9-9.5s2.8-1.1,3.2-3.8
		c0.4-2.7,1.8-15.7,0-17.9C55,23.5,45.5,18,39.9,24.5s-2,17.5-2.4,20.1C37.1,47.2,31.9,51.1,31.9,51.1z"/>
	<path fill="#762C07" d="M37.1,46.2c0,0,6.3,2.3,10.1,1.6c3.7-0.7,6-4.4,6-4.4s0.1-5,1.2-6.8c1.1-1.8,1.6-0.8,1.6-0.8s2.3-4,2.2-6.9
		c-0.2-3.8-3.9-9.7-13.8-7.2c-7.8,2-8.9,10.2-8.8,13.7C35.6,38.9,37.1,46.2,37.1,46.2z"/>
	<path fill="#99CC33" d="M33.6,49.6c0,0-11.3-2.2-13.8,3.2s2.3,23.7,3.2,30.5c0.9,6.8,2.5,12.4,1.2,23.1c-0.9,7.2-2.1,12-0.8,12.5
		c2.6,1.1,17.7,4.6,28.4,4.3c6.8-0.2,13.1-1.5,13.6-2.1c0.5-0.5-2.5-33.1-2.1-39.2s1.7-15.3-2.2-19c-3.9-3.7-10.2-6-10.2-6
		s-6.3,0.5-12.1-1.7S33.6,49.6,33.6,49.6z"/>
	<g>
		<path fill="#FFCC00" d="M57.2,34.3c2.9-1,6.7-5.5,5.7-8.6c-1-3-5.5-4.6-8.6-4.6C51.3,21.3,57.2,34.3,57.2,34.3z"/>
		<path opacity="0.2" d="M57.2,34.3c2.9-1,6.7-5.5,5.7-8.6c-1-3-5.5-4.6-8.6-4.6C51.3,21.3,57.2,34.3,57.2,34.3z"/>
		<path fill="#FFCC00" d="M33.6,36.9c2.1,2.4,11.7,4.6,18.9,0.8s9.4-9.1,7.4-13.8c-2.7-6.4-15.2-9.6-22-3.7S32.1,35.2,33.6,36.9z"/>
		<path fill="#FFCC00" d="M34.8,37.3c-1.5-1.7-2.5-10.7,4.3-16.6c4-3.4,9.9-3.8,14.7-2.2c-4.9-2.1-11.6-2-15.9,1.8
			c-6.8,5.9-5.8,15-4.3,16.6c0.6,0.7,1.8,1.3,3.3,1.8C35.9,38.3,35.2,37.8,34.8,37.3z"/>
		<path opacity="0.2" d="M54.5,19.3c-4.9-2.1-11.4-2.3-15.7,1.4c-3,2.6-4.6,6-5.2,8.9c0.4,0.2,0.8,0.3,1.2,0.4
			c0.6-2.9,2.3-6.4,5.2-8.9C44,17.7,49.8,17.7,54.5,19.3z"/>
		<path opacity="0.2" d="M40.9,21.6c-2.7,2.6-4,5.9-4.5,8.9c0.4,0.1,0.7,0.1,1.1,0.2c0.5-2.9,1.8-6.1,4.5-8.6
			c3.5-3.4,8.8-3.8,13.1-2.2C50.7,17.8,44.7,17.9,40.9,21.6z"/>
	</g>
	<path fill="#FBD7C7" d="M60.3,105.8c0,0,3.5-1,4.3-1.9c0.7-0.9,1.5-1.1,2-0.7c0.5,0.3,0.6,2.1,0.6,2.1s2.6,0.7,3.4,2.2
		c0.8,1.5,1.3,3,0.5,5.8c-0.8,2.8-4,4.9-5.2,4.5s0.2-1.1-1.8-1.8c-1.9-0.7-2.7-1.3-3.8-2c-1.2-0.6-2.1-3.3-2.1-3.3L60.3,105.8z"/>
	<path fill="#3399CC" d="M46.1,71.4C45,76.8,42.3,100.3,44,104c1.7,3.6,10.2,8.2,12.1,9.2c2.2,1.1,4.1,2.3,5.7,1.1
		c1.6-1.2,0.6-5.1-0.1-6.9c-0.7-1.9-2.1-2.3-3.3-3.4c-3.3-2.9-3.8-5-3.8-5s2.3-11.4,3.8-17c2.1-7.8,5.1-16,0.9-18.5
		C54,60.3,48.2,61.8,46.1,71.4z"/>
</g>
</svg>
