<?xml version="1.0" encoding="utf-8"?>
<!-- Generator: Adobe Illustrator 18.1.0, SVG Export Plug-In . SVG Version: 6.00 Build 0)  -->
<svg version="1.1" id="Layer_1" xmlns="http://www.w3.org/2000/svg" xmlns:xlink="http://www.w3.org/1999/xlink" x="0px" y="0px"
	 viewBox="0 0 80 240" enable-background="new 0 0 80 240" xml:space="preserve">
<g>
	<path opacity="0.2" d="M58.7,227c12.5-4.6,5.1-9.9-8.4-17.1c-13-6.9-19-17.4-35.9-6.7c-13.6,8.7,5.3,18.2,11.8,22.2
		C35.9,231.6,42.1,233.2,58.7,227z"/>
	<path fill="#FBD7C7" d="M22,52.5c0,0,4.2,4.8,7.6,5.7c3.8,1.1,11,0.1,11,0.1s2.2-8.2,2.8-9.4s2.8-1.1,3.2-3.8
		c0.4-2.7,1.8-15.5,0-17.7S35.5,19.8,30,26.2s-2,17.3-2.4,19.9C27.2,48.7,22,52.5,22,52.5z"/>
	<path fill="#762C07" d="M27.2,47.7c0,0,6.3,2.3,10,1.6s6-4.4,6-4.4s0.1-5,1.2-6.8c1.1-1.8,1.6-0.8,1.6-0.8s2.3-4,2.1-6.8
		c-0.2-3.7-3.8-9.6-13.7-7.1c-7.7,2-8.9,10.1-8.8,13.5C25.7,40.5,27.2,47.7,27.2,47.7z"/>
	<path fill="#FBD7C7" d="M63.9,100.6c0,0,2.9-2.6,5.1-2.6s7.5,0.1,8.6,1.1c1.1,1,2.3,4.5,0.7,6s-2.7,2-5.6,2.2
		c-2.9,0.2-8.4-0.6-8.4-0.6L63.9,100.6z"/>
	<path fill="#2D3134" d="M36.2,217.7c-0.3,2.7-1,10.3,1.2,11.1c3.4,1.3,9.7-0.8,12.8-1.8c3.1-1,11-3.2,11.3-5.8
		c0.3-2.5-1.9-4.6-6.3-3.8c-3.6,0.7-8,0.4-8.7-1c-0.6-1.4-0.6-1.4-0.6-1.4L36.2,217.7z"/>
	<path opacity="0.4" d="M61.2,219.4c0,0.2,0,0.3,0,0.5c-0.3,2.7-8.5,4.9-11.6,6c-3.1,1-9.6,3.2-13.1,1.9c0,0-0.1,0-0.1-0.1
		c0.2,0.6,0.5,1,1,1.2c3.4,1.3,9.7-0.8,12.8-1.8s11-3.2,11.3-5.8C61.5,220.5,61.4,219.9,61.2,219.4z"/>
	<path fill="#3399CC" d="M10.1,55.7c-2,4.6-9.6,29.2-9.6,31.9s2.2,4.6,6.9,5.6c4.7,1,18,2,18,2l-2.7-9.6l-10.8-2.5l6.8-9.8
		L10.1,55.7z"/>
	<path fill="#2D3134" d="M12.1,201.5c0,0-0.8,7.9,0.2,9.6c1.2,2.2,5.3,2.5,8.3,0.8s5.1-4.2,8.6-5.1c3.5-0.9,7.6-3.5,5.6-5.5
		c-2.4-2.4-5.1-1.9-10.7-0.7c-1.8,0.4-2.8-1.6-2.8-1.6L12.1,201.5z"/>
	<path opacity="0.4" d="M34.8,201.4C34.8,201.3,34.8,201.3,34.8,201.4c-0.2,1.6-3.4,3.4-6.2,4.2c-3.5,0.9-5.6,3.4-8.6,5.1
		c-2.8,1.6-6.5,1.5-8-0.3c0.1,0.3,0.2,0.6,0.3,0.8c1.2,2.2,5.3,2.5,8.3,0.8c3-1.7,5.1-4.2,8.6-5.1C32.7,205.9,36.8,203.3,34.8,201.4
		z"/>
	<path fill="#06547A" d="M38.9,103.4c-1-0.1-19.9-4.1-19.9-4.1s-7.7,12.9-8,22.7c-0.2,9.8,2,29.7,1.5,35.9c-0.4,5.2-2.3,16.6-2,24.6
		c0.3,8.9,0,24.3,1,25.1c2.7,2.5,7.9,0.1,10.6-2.2s3.5-3.8,3.8-5c0.3-1.3-0.6-3.4-0.4-11.1c0.1-7.8,1.8-23.3,2.5-27.7
		c0.7-4.4,5.3-20.2,7-28.2S38.9,103.4,38.9,103.4z"/>
	<path opacity="0.2" d="M38.9,103.4c-1-0.1-19.9-4.1-19.9-4.1s-7.7,12.9-8,22.7c-0.2,9.8,2,29.7,1.5,35.9c-0.4,5.2-2.3,16.6-2,24.6
		c0.3,8.9,0,24.3,1,25.1c2.7,2.5,7.9,0.1,10.6-2.2s3.5-3.8,3.8-5c0.3-1.3-0.6-3.4-0.4-11.1c0.1-7.8,1.8-23.3,2.5-27.7
		c0.7-4.4,5.3-20.2,7-28.2S38.9,103.4,38.9,103.4z"/>
	<path fill="#06547A" d="M51.7,104.4c0,0,1.4,14.8,1.8,23.5c0.5,12-1.4,30.2-2.5,41c-1.1,11.2-1.5,25.5-1.3,32.9
		c0.2,6.4,0.6,15.6,0.6,15.6s0.3,3.2-6.6,6c-3.6,1.5-7.7,2.2-8.5,0.9c-0.8-1.3-1.9-13.9-2-20.3c-0.1-6.4-1.1-19.2,0.3-30.3
		c1.4-11.1-0.8-18.2-2.5-26.1c-1.8-7.9-6.1-21.9-6.6-28.4c-0.5-6.5,2.8-16.4,2.8-16.4L51.7,104.4z"/>
	<path fill="#99CC33" d="M23.7,51.1c0,0-11.2-2.2-13.7,3.2s2.3,23.5,3.2,30.2c0.9,6.8,1.3,11,0,21.5c-0.9,7.2-3.3,11.9-2,12.4
		c2.6,1,18.7,5.9,29.3,5.6c6.8-0.2,13-1.5,13.5-2c0.5-0.5-1.2-32.8-0.8-38.9c0.4-6.1,1.7-15.2-2.2-18.9c-3.8-3.7-10.1-6-10.1-6
		s-6.2,0.5-12-1.7C23.1,54.4,23.7,51.1,23.7,51.1z"/>
	<path fill="#3399CC" d="M44.3,64.3c-4.2,2.3-5,9.7-4.6,14.2c0.4,4.5,5.9,27.8,6.5,29.1c0.9,1.9,5.1,1.9,8.2,1.3s11-1.3,11-1.3
		L64,100l-9.8-2.2c0,0-1.1-11.9-0.6-19.5S53.3,59.4,44.3,64.3z"/>
	<g>
		<path fill="#FFCC00" d="M47.1,35.9c2.9-1,6.6-5.5,5.7-8.5c-1-3-5.5-4.6-8.5-4.5S47.1,35.9,47.1,35.9z"/>
		<path opacity="0.2" d="M47.1,35.9c2.9-1,6.6-5.5,5.7-8.5c-1-3-5.5-4.6-8.5-4.5S47.1,35.9,47.1,35.9z"/>
		<path fill="#FFCC00" d="M23.7,38.5c2.1,2.4,11.6,4.5,18.7,0.8c7.1-3.7,9.3-9.1,7.3-13.7c-2.7-6.3-15-9.5-21.8-3.6
			S22.2,36.8,23.7,38.5z"/>
		<path fill="#FFCC00" d="M24.9,38.9c-1.5-1.6-2.5-10.6,4.2-16.5c3.9-3.4,9.8-3.8,14.6-2.2c-4.9-2.1-11.5-2-15.8,1.8
			c-6.7,5.8-5.7,14.8-4.2,16.5c0.6,0.7,1.7,1.3,3.2,1.8C26,39.9,25.3,39.4,24.9,38.9z"/>
		<path opacity="0.2" d="M44.5,21c-4.9-2.1-11.3-2.3-15.6,1.4c-2.9,2.5-4.6,6-5.2,8.9c0.4,0.2,0.8,0.3,1.2,0.4
			c0.6-2.9,2.2-6.3,5.2-8.8C34,19.5,39.7,19.5,44.5,21z"/>
		<path opacity="0.2" d="M31,23.4c-2.7,2.6-4,5.9-4.5,8.8c0.4,0.1,0.7,0.1,1.1,0.2c0.5-2.9,1.8-6,4.4-8.5c3.5-3.4,8.7-3.8,13-2.2
			C40.6,19.6,34.8,19.7,31,23.4z"/>
	</g>
</g>
</svg>
