<?xml version="1.0" encoding="utf-8"?>
<!-- Generator: Adobe Illustrator 18.1.0, SVG Export Plug-In . SVG Version: 6.00 Build 0)  -->
<svg version="1.1" id="Layer_1" xmlns="http://www.w3.org/2000/svg" xmlns:xlink="http://www.w3.org/1999/xlink" x="0px" y="0px"
	 viewBox="0 0 128 64" enable-background="new 0 0 128 64" xml:space="preserve">
<g>
	<g>
		<g>
			<polygon fill="#2D3134" points="64,0 0,32 64,64 128,32 			"/>
		</g>
		<g>
			<polygon fill="#2D3134" points="64,0 0,32 64,64 128,32 			"/>
		</g>
	</g>
</g>
<g>
	<polygon fill="#999999" points="66,16 90,28 90,30 78,36 54,24 54,22 	"/>
	<polygon opacity="0.11" points="54,24 78,36 78,34 54,22 	"/>
	<polygon opacity="0.29" points="90,30 78,36 78,34 90,28 	"/>
	<path fill="#656565" d="M62,22.5c0,1.4,2.2,2.5,5,2.5s5-1.1,5-2.5S69.8,20,67,20S62,21.1,62,22.5z M64,22.5c0-0.8,1.3-1.5,3-1.5
		s3,0.7,3,1.5S68.7,24,67,24S64,23.3,64,22.5z"/>
	<path fill="#656565" d="M72,27.5c0,1.4,2.2,2.5,5,2.5s5-1.1,5-2.5S79.8,25,77,25S72,26.1,72,27.5z M74,27.5c0-0.8,1.3-1.5,3-1.5
		s3,0.7,3,1.5S78.7,29,77,29S74,28.3,74,27.5z"/>
</g>
<g>
	<polygon fill="#999999" points="48,25 72,37 72,39 60,45 36,33 36,31 	"/>
	<polygon opacity="0.11" points="36,33 60,45 60,43 36,31 	"/>
	<polygon opacity="0.29" points="72,39 60,45 60,43 72,37 	"/>
	<path fill="#656565" d="M44,31.5c0,1.4,2.2,2.5,5,2.5s5-1.1,5-2.5S51.8,29,49,29S44,30.1,44,31.5z M46,31.5c0-0.8,1.3-1.5,3-1.5
		s3,0.7,3,1.5S50.7,33,49,33S46,32.3,46,31.5z"/>
	<path fill="#656565" d="M54,36.5c0,1.4,2.2,2.5,5,2.5s5-1.1,5-2.5S61.8,34,59,34S54,35.1,54,36.5z M56,36.5c0-0.8,1.3-1.5,3-1.5
		s3,0.7,3,1.5S60.7,38,59,38S56,37.3,56,36.5z"/>
</g>
</svg>
