<?xml version="1.0" encoding="utf-8"?>
<!-- Generator: Adobe Illustrator 18.1.0, SVG Export Plug-In . SVG Version: 6.00 Build 0)  -->
<svg version="1.1" id="Layer_1" xmlns="http://www.w3.org/2000/svg" xmlns:xlink="http://www.w3.org/1999/xlink" x="0px" y="0px"
	 viewBox="0 0 320 320" enable-background="new 0 0 320 320" xml:space="preserve">
<g>
	<polygon opacity="0.2" points="66,226 176,281 256,241 146,186 	"/>
	<path opacity="0.2" d="M96.2,217.9c-18.2,11.1-83.8-41.6-78-48.7C31,153.6,111,208.9,96.2,217.9z"/>
	<path fill="#2D3134" d="M69.9,199c-0.4,2-0.6,5.5,0.3,6.9c0.9,1.4,6,5.7,7.5,7.1c2,1.8,5.5,4.6,9.1,5.1c3.7,0.5,9.6-2,9.1-4.7
		c-0.3-1.5-6.2-6.1-8.9-8.3c-2.3-2-5.9-7.5-5.9-7.5L69.9,199z"/>
	<path opacity="0.4" d="M95.9,213.4c0-0.1-0.1-0.3-0.2-0.5c-0.9,2.3-5.8,4.2-9,3.7c-3.6-0.5-7.1-3.3-9.1-5.1
		c-1.5-1.4-6.6-5.7-7.5-7.1c-0.3-0.4-0.4-1-0.5-1.7c0,1.3,0.2,2.5,0.6,3.2c0.9,1.4,6,5.7,7.5,7.1c2,1.8,5.5,4.6,9.1,5.1
		C90.4,218.7,96.4,216.2,95.9,213.4z"/>
	<path fill="#2D3134" d="M25.4,163.6c-2.1,1.9-4.6,6.8-4.1,8.8c0.5,2.1,6.7,5,8.3,6.3s8,7,10.1,8.1c2.4,1.3,5.1,1.8,7.2-0.1
		c1.9-1.7-0.3-5.8-1.6-7.3c-1.4-1.6-4.7-4.2-6.2-6.7c-1.5-2.6-3-7.3-3-7.3L25.4,163.6z"/>
	<path opacity="0.4" d="M47.2,185.6c-2.1,1.9-4.8,1.4-7.2,0.1c-2.1-1.2-8.5-6.8-10.1-8.1c-1.6-1.3-7.8-4.3-8.3-6.3
		c-0.1-0.4-0.1-0.9,0-1.4c-0.4,1.1-0.5,2-0.3,2.7c0.5,2.1,6.7,5,8.3,6.3s8,7,10.1,8.1c2.4,1.3,5.1,1.8,7.2-0.1
		c0.5-0.4,0.7-1.1,0.7-1.8C47.5,185.2,47.3,185.4,47.2,185.6z"/>
	<path fill="#06547A" d="M58.5,86.2l22.9,3.7c0,0-1.6,11.2-7.9,21.6s-19.4,25.2-21.8,28c-2.4,2.8-10.3,20.7-11.1,22.7
		c-1.3,3.3-2.1,8.5-2.6,8.8c-6.6,4.2-16.2-2.2-16.1-4c0.1-1.3,7.9-24.5,14.7-35c3.7-5.7,11-17.9,13-26.8S58.5,86.2,58.5,86.2z"/>
	<path opacity="0.2" d="M58.5,86.2l22.9,3.7c0,0-1.6,11.2-7.9,21.6s-19.4,25.2-21.8,28c-2.4,2.8-10.3,20.7-11.1,22.7
		c-1.3,3.3-2.1,8.5-2.6,8.8c-6.6,4.2-16.2-2.2-16.1-4c0.1-1.3,7.9-24.5,14.7-35c3.7-5.7,11-17.9,13-26.8S58.5,86.2,58.5,86.2z"/>
	<path fill="#06547A" d="M50.5,83.7c0,0-3.3,5.3-3.8,9.5c-1.5,11.1,3.1,32.1,6,40.4c2.9,8.3,5.5,17.3,5.8,23.2
		c0.3,5.9,2.6,16.7,4.1,23.8c2.8,12.5,5.5,21.3,5.9,22.7s7.1,1.1,9.8,0.5c2.6-0.5,6-1.6,6.2-2.4c0.1-0.8-3.2-13.7-4.7-21
		c-1.4-7.2-4.2-25.6-4.2-31.8s0.7-24.8,0.3-34.8c-0.4-10-3.8-26-3.8-26L50.5,83.7z"/>
	<g>
		<path fill="#2D3134" d="M176.9,256.5c-2.7-1.4-5.1-1.5-7-0.7l0,0l-5.1,2.5l0,0c-1.9,0.9-3.2,2.9-3.2,5.8c0,5.6,4.5,12.4,10.1,15.2
			c2.8,1.4,5.3,1.5,7.1,0.6c0,0,5-2.5,5.5-2.8c1.6-1,2.6-2.9,2.6-5.5C187.1,266.1,182.5,259.3,176.9,256.5z"/>
		<path opacity="0.39" d="M179.1,279.9c0.7-0.4,5-2.5,5.3-2.7c1.6-1,2.6-2.9,2.6-5.5c0-2.3-0.7-4.7-2-7l-5.1,2.5c1.2,2.3,2,4.7,2,7
			C182,277,180.9,279,179.1,279.9z"/>
		<path fill="#A9ABB0" d="M179.5,272.9c0,4.2-3.4,5.9-7.6,3.8c-4.2-2.1-7.6-7.2-7.6-11.4c0-4.2,3.4-5.9,7.6-3.8
			C176.1,263.6,179.5,268.7,179.5,272.9z"/>
		<path fill="#808285" d="M172.5,276.4c-4.2-2.1-7.6-7.2-7.6-11.4c0-2.1,0.8-3.5,2.2-4.2c-1.7,0.5-2.8,2.1-2.8,4.5
			c0,4.2,3.4,9.3,7.6,11.4c2.1,1.1,4.1,1.1,5.4,0.4C176,277.5,174.3,277.3,172.5,276.4z"/>
		<path fill="#2D3134" d="M175.7,270.4c0,1.8-1.4,2.5-3.2,1.6c-1.7-0.9-3.2-3-3.2-4.8c0-1.8,1.4-2.5,3.2-1.6
			C174.3,266.5,175.7,268.7,175.7,270.4z"/>
		<path opacity="0.39" d="M175.7,270.4c0,1.8-1.4,2.5-3.2,1.6c-1.7-0.9-3.2-3-3.2-4.8c0-1.8,1.4-2.5,3.2-1.6
			C174.3,266.5,175.7,268.7,175.7,270.4z"/>
		<path fill="#2D3134" d="M175,270.7c0,1.8-1.4,2.5-3.2,1.6s-3.2-3-3.2-4.8c0-1.8,1.4-2.5,3.2-1.6S175,269,175,270.7z"/>
		<path opacity="0.06" d="M182,274.2c0,5.6-4.5,7.9-10.1,5.1s-10.1-9.6-10.1-15.2c0-5.6,4.5-7.9,10.1-5.1
			C177.5,261.8,182,268.6,182,274.2z"/>
	</g>
	<g>
		<path fill="#2D3134" d="M249.9,220.2c-2.7-1.4-5.1-1.5-7-0.7l0,0l-5.1,2.5l0,0c-1.9,0.9-3.2,2.9-3.2,5.8c0,5.6,4.5,12.4,10.1,15.2
			c2.8,1.4,5.3,1.5,7.1,0.6c0,0,5-2.5,5.5-2.8c1.6-1,2.6-2.9,2.6-5.5C260,229.8,255.5,223,249.9,220.2z"/>
		<path opacity="0.39" d="M252,243.6c0.7-0.4,5-2.5,5.3-2.7c1.6-1,2.6-2.9,2.6-5.5c0-2.3-0.7-4.7-2-7l-5.1,2.5c1.2,2.3,2,4.7,2,7
			C254.9,240.7,253.8,242.7,252,243.6z"/>
		<path fill="#A9ABB0" d="M252.4,236.6c0,4.2-3.4,5.9-7.6,3.8s-7.6-7.2-7.6-11.4c0-4.2,3.4-5.9,7.6-3.8S252.4,232.4,252.4,236.6z"/>
		<path fill="#808285" d="M245.4,240.1c-4.2-2.1-7.6-7.2-7.6-11.4c0-2.1,0.8-3.5,2.2-4.2c-1.7,0.5-2.8,2.1-2.8,4.5
			c0,4.2,3.4,9.3,7.6,11.4c2.1,1.1,4.1,1.1,5.4,0.4C248.9,241.2,247.3,241.1,245.4,240.1z"/>
		<path fill="#2D3134" d="M248.6,234.1c0,1.8-1.4,2.5-3.2,1.6c-1.7-0.9-3.2-3-3.2-4.8c0-1.8,1.4-2.5,3.2-1.6
			C247.2,230.3,248.6,232.4,248.6,234.1z"/>
		<path opacity="0.39" d="M248.6,234.1c0,1.8-1.4,2.5-3.2,1.6c-1.7-0.9-3.2-3-3.2-4.8c0-1.8,1.4-2.5,3.2-1.6
			C247.2,230.3,248.6,232.4,248.6,234.1z"/>
		<path fill="#2D3134" d="M248,234.4c0,1.8-1.4,2.5-3.2,1.6s-3.2-3-3.2-4.8s1.4-2.5,3.2-1.6S248,232.7,248,234.4z"/>
		<path opacity="0.06" d="M254.9,237.9c0,5.6-4.5,7.9-10.1,5.1s-10.1-9.6-10.1-15.2s4.5-7.9,10.1-5.1
			C250.4,225.5,254.9,232.3,254.9,237.9z"/>
	</g>
	<g>
		<path fill="#2D3134" d="M75.4,205.9c-2.7-1.4-5.1-1.5-7-0.7l0,0l-5.1,2.5l0,0c-1.9,0.9-3.2,2.9-3.2,5.8c0,5.6,4.5,12.4,10.1,15.2
			c2.8,1.4,5.3,1.5,7.1,0.6c0,0,5-2.5,5.5-2.8c1.6-1,2.6-2.9,2.6-5.5C85.6,215.6,81,208.7,75.4,205.9z"/>
		<path opacity="0.39" d="M77.6,229.3c0.7-0.4,5-2.5,5.3-2.7c1.6-1,2.6-2.9,2.6-5.5c0-2.3-0.7-4.7-2-7l-5.1,2.5c1.2,2.3,2,4.7,2,7
			C80.5,226.5,79.4,228.4,77.6,229.3z"/>
		<path fill="#A9ABB0" d="M78,222.4c0,4.2-3.4,5.9-7.6,3.8s-7.6-7.2-7.6-11.4c0-4.2,3.4-5.9,7.6-3.8S78,218.2,78,222.4z"/>
		<path fill="#808285" d="M71,225.9c-4.2-2.1-7.6-7.2-7.6-11.4c0-2.1,0.8-3.5,2.2-4.2c-1.7,0.5-2.8,2.1-2.8,4.5
			c0,4.2,3.4,9.3,7.6,11.4c2.1,1.1,4.1,1.1,5.4,0.4C74.5,227,72.8,226.8,71,225.9z"/>
		<path fill="#2D3134" d="M74.2,219.9c0,1.8-1.4,2.5-3.2,1.6c-1.7-0.9-3.2-3-3.2-4.8c0-1.8,1.4-2.5,3.2-1.6
			C72.8,216,74.2,218.1,74.2,219.9z"/>
		<path opacity="0.39" d="M74.2,219.9c0,1.8-1.4,2.5-3.2,1.6c-1.7-0.9-3.2-3-3.2-4.8c0-1.8,1.4-2.5,3.2-1.6
			C72.8,216,74.2,218.1,74.2,219.9z"/>
		<path fill="#2D3134" d="M73.5,220.2c0,1.8-1.4,2.5-3.2,1.6s-3.2-3-3.2-4.8s1.4-2.5,3.2-1.6S73.5,218.4,73.5,220.2z"/>
		<path opacity="0.06" d="M80.5,223.7c0,5.6-4.5,7.9-10.1,5.1s-10.1-9.6-10.1-15.2s4.5-7.9,10.1-5.1
			C76,211.3,80.5,218.1,80.5,223.7z"/>
	</g>
	<g>
		<g>
			<polygon fill="#2D3134" points="60,200 60,204 180,264 260,224 260,220 140,160 			"/>
			<polygon opacity="0.11" points="180,264 60,204 60,200 180,260 			"/>
			<polygon opacity="0.29" points="180,264 260,224 260,220 180,260 			"/>
		</g>
		<g>
			<polygon fill="#FF9900" points="60,190 60,200 180,260 260,220 260,210 140,150 			"/>
			<polygon opacity="0.11" points="180,260 60,200 60,190 180,250 			"/>
			<polygon opacity="0.29" points="180,260 260,220 260,210 180,250 			"/>
		</g>
	</g>
	<g>
		<path fill="#FF9900" d="M131.7,75.7c-1.2,0-2.5,0.3-3.7,0.9l-54.3,27.2C65.3,108,60,116.6,60,126v62.9c0,2,2,3.5,3.9,2.8h0
			c1.2-0.4,2.1-1.6,2.1-2.8V126c0-7.1,4-13.6,10.4-16.8L130.7,82c0.3-0.2,0.7-0.3,1-0.3c1.1,0,2.3,0.9,2.3,2.3v68.4
			c0,1.8,1.9,3.1,3.6,2.5v0c1.5-0.6,2.4-2,2.4-3.5V84C140,79.2,136.1,75.7,131.7,75.7z"/>
		<path opacity="0.29" d="M131.7,75.7c-1.2,0-2.5,0.3-3.7,0.9l-54.3,27.2C65.3,108,60,116.6,60,126v62.9c0,2,2,3.5,3.9,2.8l0,0
			c1.2-0.4,2.1-1.6,2.1-2.8V126c0-7.1,4-13.6,10.4-16.8L130.7,82c0.3-0.2,0.7-0.3,1-0.3c1.1,0,2.3,0.9,2.3,2.3v68.4
			c0,1.8,1.9,3.1,3.6,2.5c1.5-0.6,2.4-2,2.4-3.5V84C140,79.2,136.1,75.7,131.7,75.7z M137,152.4c0,0.7-0.8,1.2-1.4,0.9
			c-0.3-0.2-0.6-0.5-0.6-0.9V84.9c0-0.5-0.2-1-0.5-1.4c0.1,0,0.1,0,0.2,0c1.1,0,2.3,0.9,2.3,2.3V152.4z M134.7,77.5
			c-1.2,0-2.5,0.3-3.7,0.9l-54.3,27.2c-8.4,4.2-13.7,12.8-13.7,22.2v60.6c0,0.7-0.8,1.2-1.4,0.9c-0.3-0.2-0.6-0.5-0.6-0.9v-61.5
			c0-9.4,5.3-18,13.7-22.2L129,77.5c1.2-0.6,2.5-0.9,3.7-0.9c1.5,0,3,0.4,4.3,1.2C136.3,77.7,135.5,77.5,134.7,77.5z"/>
	</g>
	<path fill="#FBD7C7" d="M108.7,80.1c0,0,4.5-1.8,5.2-2.3s4.4,3.9,5.5,5.3c1.2,1.4,0.9,3.3,0.2,5.5c-0.9,2.7-8.5,5.5-8.3,3.7
		c0.1-1.1,2.4-4,2.1-5.4c-0.2-0.8-0.8-1.8-2.7-1.8c-1.2,0-2.1,0.7-2.5,1.3c-0.2,0.3-2.5,1.4-2.6,0.9c0-1.1,0-2.3,0.4-2.9
		C106.7,82.9,108.7,80.1,108.7,80.1z"/>
	<path fill="#3399CC" d="M92.2,34.9c0.8,2.4,4,24.7,4.6,26.4c0.7,1.7,18.4,16,18.7,17.1c0.3,1.2-7,4.5-8.8,3.4
		c-1.6-0.9-7.3-4.5-12.5-8.3c-1.6-1.2-7.3-7.1-7.7-8.1c-0.4-1-0.5-13.1-0.7-14.4S92.2,34.9,92.2,34.9z"/>
	<path fill="#3399CC" d="M71.1,96.6c0,0-11.5-67.8-8.9-69.1c2.6-1.3,11.4-3,15.3-3.2c4-0.2,10.6,4.1,10.6,4.1l-6.7,68.2H71.1z"/>
	<path fill="#99CC33" d="M62.2,27.5c0,0-6.9,4-9.6,8s-5.2,10.2-5.2,18.4s-0.5,29-0.7,33.3c-0.3,4.3,8.2,7.1,13.7,8.6s13.4,2,15.4,1
		s2.7-11.9,3.6-20.4c0.5-4.6,0.7-17.7-1.1-24.2C75.2,41.3,62.2,27.5,62.2,27.5z"/>
	<path fill="#99CC33" d="M83.4,26.4c0,0-1,18.7-2.6,26.8s-2.4,37.7-1.7,40.3c0.7,2.6,0.8,3.7,3.1,4.1s3.2-1.4,3.4-3
		c0.2-2,1-17.1,1-20.6c0-3.4,0.9-12.7,2.1-15.8c1.1-3.2,5.6-19.8,4.8-22.2S89.2,27.2,83.4,26.4z"/>
	<path fill="#FBD7C7" d="M81.6,86.6l-4.3,6c0,0,7.8,5.9,8.4,6s2.7,2,2.5,3.2c-0.3,1.3-1.7,2.1-1.3,2.4c1.6,1.2,7-0.6,8.3-2.9
		s0.5-5.7-0.3-6.9c-0.8-1.2-2-1.8-3.1-2.5C89.7,90.7,81.6,86.6,81.6,86.6z"/>
	<path fill="#3399CC" d="M51.4,39.2c-2.7,0.7-5,9.1-4.7,13.9c0.7,13.8,4.2,26.1,4.9,27.9c1.7,4.5,30.2,15.8,31.2,16.3
		c1,0.5,7.6-6.1,6.6-7.1c-2.1-2.1-13.2-9.3-16.5-11.5c-2.3-1.5-10.6-5.4-10.6-5.4s-0.1-5.6,0.2-11.3c0.4-6.7,0.8-9.9,0.8-12.5
		C63.2,44,58.1,37.5,51.4,39.2z"/>
	<path fill="#FBD7C7" d="M64.7,27c0,0,2.7-1.1,2.9-3.1s-5.9-9.7-0.8-16.8c5.1-7.1,17.8-5.8,20,1.3s2.4,20.7,0.7,22.1
		c-2.1,1.8-5.9,1.1-5.9,1.1s-1.3,3.3-1,5.1c0.4,2.7-2,2.9-3.3,2.8C75.4,39.4,66.5,36.1,64.7,27z"/>
	<path fill="#762C07" d="M66.8,22.2l1.6,1c0,0-4.2-5.6-1.4-6.8c2.8-1.2,4.1,2.3,4.1,2.3s2.1-3.6,5.3-3.9s12-2.3,11.7-5
		C88,8.6,84.5-0.8,74.1,1S63.4,11.4,64,14.8S66.8,22.2,66.8,22.2z"/>
</g>
</svg>
