<?xml version="1.0" encoding="utf-8"?>
<!-- Generator: Adobe Illustrator 18.1.0, SVG Export Plug-In . SVG Version: 6.00 Build 0)  -->
<svg version="1.0" id="Layer_1" xmlns="http://www.w3.org/2000/svg" xmlns:xlink="http://www.w3.org/1999/xlink" x="0px" y="0px"
	 viewBox="0 0 80 240" enable-background="new 0 0 80 240" xml:space="preserve">
<g>
	<path opacity="0.2" d="M62.2,223.6c12.3-8.2-0.2-17-17.1-21.3c-7.4-1.9-20.2-11.6-39.8-1.1c-15.8,8.5,7.5,12.3,16.4,16.8
		C32.4,223.4,40.7,237.9,62.2,223.6z"/>
	<path fill="#2D3134" d="M27.8,192.2l-10.4,1.2c0,0-0.2,1.8-2.1,3.8c-1.9,2-10.1,6.4-11.7,7.6c-2.8,2.1-0.9,5,1.5,5.3
		c2.6,0.4,6.1-0.4,10.5-2c3.4-1.2,7.4-2.3,11.3-3.6c3.3-1.1,2.5-5.9,2-8C28.3,194.4,27.8,192.2,27.8,192.2z"/>
	<path opacity="0.4" d="M5.2,208.6c2.7,0.4,6.5-0.5,11.2-2.2c3.7-1.3,7.9-2.5,12-3.9c0.3-0.1,0.5-0.2,0.7-0.3c-0.3,1-1,1.9-2.2,2.3
		c-3.8,1.3-7.8,2.4-11.3,3.6c-4.4,1.6-7.9,2.4-10.5,2c-1.8-0.3-3.2-1.9-2.8-3.5C2.8,207.6,3.9,208.4,5.2,208.6z"/>
	<path fill="#2D3134" d="M64,208c-0.2,0.1-10.6,2.2-10.6,2.2s-2.7,6-5.3,8.1c-2.1,1.8-8,5.7-7.7,7.9s6.3,4,11.9,1.1
		c2.6-1.3,12.9-6.6,13.4-10.1C66.3,213.2,64,208,64,208z"/>
	<path opacity="0.4" d="M52.3,225.5c2.6-1.3,12.9-6.6,13.4-10.1c0-0.2,0-0.3,0.1-0.5c0.1,0.8,0.1,1.6-0.1,2.3
		c-0.5,3.5-10.8,8.8-13.4,10.1c-5.6,2.9-11.6,1.1-11.9-1.1c0-0.3,0.1-0.7,0.3-1.2C41.9,226.9,47.3,228.1,52.3,225.5z"/>
	<path fill="#06547A" d="M17.6,93.2c0,0-6.1,23.2-5.7,34.4c0.4,11.2,2.4,23.6,2.9,33c0.5,9.4,0.4,30.7-0.1,34.9
		c-0.6,4.8,1.8,5.1,4.8,5.2c3.1,0.1,9.1-0.9,10.1-1.9c1-1,0.9-8.7,0.9-14.3s0.5-14,0.1-21.9c-0.3-6.8,2.2-16.2,3.6-21.4
		s7.4-22.6,7.8-27.4s0.1-15.2,0.1-15.2L17.6,93.2z"/>
	<path opacity="0.2" d="M17.6,93.2c0,0-6.1,23.2-5.7,34.4c0.4,11.2,2.4,23.6,2.9,33c0.5,9.4,0.4,30.7-0.1,34.9
		c-0.6,4.8,1.8,5.1,4.8,5.2c3.1,0.1,9.1-0.9,10.1-1.9c1-1,0.9-8.7,0.9-14.3s0.5-14,0.1-21.9c-0.3-6.8,2.2-16.2,3.6-21.4
		s7.4-22.6,7.8-27.4s0.1-15.2,0.1-15.2L17.6,93.2z"/>
	<path fill="#06547A" d="M24.9,98.6c0.3,6.5,5.2,33.2,8.9,45.3c3.7,12.1,6.5,19.8,8.3,26.8c1.8,7,5.9,23.7,7,32
		c0.4,3.2,1,12,1.7,12.9c3.3,4.1,11.3,2,12.9,0.6c1.7-1.6,2.6-2.4,2.2-5.5c-0.4-3.1-1.7-21.3-2.7-27.8c-1.7-10.7-5-15-6.1-20.1
		c-1.1-5.1,1.1-24.1-2.3-42c-3.4-17.9-7.5-21.7-7.5-21.7L24.9,98.6z"/>
	<polygon fill="#3399CC" points="44.6,46.1 34.2,43.2 27.2,44.9 24,106.8 	"/>
	<path fill="#99CC33" d="M44.6,46.1c0,0,9.6,5.5,13.4,9c6.1,5.7,0.7,17.8-3.1,29.4s1.7,33.4,1.3,34.3c-0.8,1.6-24.1,5.1-29.2,1.7
		c-2.4-1.6-2.7-21.1-1.7-29.8s4.6-17.1,6.7-22.2C33.9,64.1,44.6,46.1,44.6,46.1z"/>
	<path fill="#99CC33" d="M28.6,45.9c-0.6,0.4-9,2.2-10.8,4.8c-3.7,5.3-3,18.2-3,22.7c0,4.5-0.4,24.9-1.6,34.6
		c-0.5,3.9-1.9,9.2-1.2,9.9c1,1.1,8.5,3.6,10,0.5c1.2-2.5,5-27.2,5.2-33C27.3,79.7,28.6,45.9,28.6,45.9z"/>
	<path fill="#FBD7C7" d="M43.9,46c0,0-2.6-1.1-2.7-2.9c-0.2-1.9,5.6-9.2,0.8-16s-16.9-5.5-19,1.2s-2.3,19.6-0.7,21
		c2,1.7,5.6,1,5.6,1s1.2,3.1,0.9,4.9c-0.4,2.5,1.9,2.7,3.2,2.7C33.8,57.7,41.5,52.9,43.9,46z"/>
	<path fill="#762C07" d="M41.9,41.4l-1.5,0.9c0,0,3.9-5.4,1.3-6.5c-2.6-1.1-3.9,2.2-3.9,2.2s-1.9-3.4-5-3.7s-11.4-2.2-11.1-4.8
		c0.1-1,3.4-10,13.2-8.3s10.2,9.9,9.6,13.2S41.9,41.4,41.9,41.4z"/>
	<g>
		<path fill="#FFCC00" d="M18.2,32.2c0,0-2.8,1.2-2.8,2.1c0,0.9,8.3,4.5,14,3.9s16.1-3.5,16.7-5C46.8,31.7,45.4,17,33.5,17
			C19.4,17,18.2,32.2,18.2,32.2z"/>
		<path opacity="0.2" d="M15.4,34.3c0,0.9,8.3,4.5,14,3.9c4.6-0.5,12.1-2.4,15.2-4c-3.1,1.1-7.3,2.2-10.4,2.1
			c-5.4-0.2-14.2-2.8-16.1-4.1C18.2,32.2,15.4,33.4,15.4,34.3z"/>
		<path opacity="0.2" d="M19.7,30.5l1.2,0.4c0.6-3.6,3.3-13.3,13.8-13.3c0.6,0,1.2,0.1,1.8,0.1c-0.9-0.3-1.9-0.4-3-0.4
			C23.1,17.3,20.4,26.8,19.7,30.5z"/>
		<path opacity="0.2" d="M24.2,32c0.3-2.6,2-13.8,11.2-13.8c0.5,0,1,0.1,1.4,0.1c-0.7-0.3-1.5-0.4-2.4-0.4
			c-9.1,0-11.2,10.9-11.5,13.6L24.2,32z"/>
	</g>
	<path fill="#FBD7C7" d="M50.2,102.3c0,0-3.1-1.4-4.7-1.8c-1.6-0.5-6.2-2.8-7.4-1.6c-1.4,1.3,4,2.9,4,3.6s-2.1,1.7-4.3,2.4
		c-2.3,0.7-5.4,0.1-5.7,1.6c-0.2,1.5,3.8,6.7,8,6.9c4,0.3,5.8-0.6,7.6-1.5c1.8-0.9,5.9-4.2,5.9-4.2L50.2,102.3z"/>
	<path fill="#3399CC" d="M48.1,100.9c-0.4,1.4,2,8.2,4.5,8.4c2.4,0.3,9.6-6.1,14.7-9.8c5.1-3.7,12-8.3,12.6-11.9
		c0.6-3.6-4.3-10.2-7.5-14.8c-3.1-4.5-8.7-16.2-14.8-17.9c-4.8-1.3-9.7,1.3-8.8,7.9s4.7,8.4,7.8,11.6s9.6,10.7,9.6,10.7L48.1,100.9z
		"/>
	<path fill="#FBD7C7" d="M9.7,95.6c-2.3,2.1-3.4,6.8-2.9,8.4c0.5,1.7,6.4,6.7,7.1,4.8c0.8-2-1.8-3.4-1.9-4.5c-0.1-1,1.8-1.8,1.8-1.8
		l0.5-10.3C14.3,92.3,12.3,93.2,9.7,95.6z"/>
</g>
</svg>
