<?xml version="1.0" encoding="utf-8"?>
<!-- Generator: Adobe Illustrator 18.1.0, SVG Export Plug-In . SVG Version: 6.00 Build 0)  -->
<svg version="1.1" id="Layer_1" xmlns="http://www.w3.org/2000/svg" xmlns:xlink="http://www.w3.org/1999/xlink" x="0px" y="0px"
	 viewBox="0 0 240 240" enable-background="new 0 0 240 240" xml:space="preserve">
<g>
	<polygon opacity="0.2" points="20,206 80,236 220,166 160,136 	"/>
	<g>
		<g>
			<polygon fill="#825012" points="212,85 212,166 220,170 228,166 228,85 220,81 			"/>
			<polygon opacity="0.11" points="220,170 212,166 212,85 220,89 			"/>
			<polygon opacity="0.29" points="220,170 228,166 228,85 220,89 			"/>
		</g>
	</g>
	<g>
		<g>
			<polygon fill="#825012" points="152,55 152,136 160,140 168,136 168,55 160,51 			"/>
			<polygon opacity="0.11" points="160,140 152,136 152,55 160,59 			"/>
			<polygon opacity="0.29" points="160,140 168,136 168,55 160,59 			"/>
		</g>
	</g>
	<g>
		<g>
			<polygon fill="#825012" points="72,155 72,236 80,240 88,236 88,155 80,151 			"/>
			<polygon opacity="0.11" points="80,240 72,236 72,155 80,159 			"/>
			<polygon opacity="0.29" points="80,240 88,236 88,155 80,159 			"/>
		</g>
	</g>
	<g>
		<g>
			<polygon fill="#825012" points="12,125 12,206 20,210 28,206 28,125 20,121 			"/>
			<polygon opacity="0.11" points="20,210 12,206 12,125 20,129 			"/>
			<polygon opacity="0.29" points="20,210 28,206 28,125 20,129 			"/>
		</g>
	</g>
	<polygon fill="#825012" points="10,120 10,130 80,165 230,90 230,80 160,45 	"/>
	<polygon opacity="0.11" points="80,165 10,130 10,120 80,155 	"/>
	<polygon opacity="0.29" points="80,165 230,90 230,80 80,155 	"/>
</g>
<g>
	<g>
		<g>
			<polygon fill="#2D3134" points="85,109 85,111 115,126 155,106 155,104 125,89 			"/>
			<polygon fill="#656565" points="93,109 124.9,93 139,100 107.1,116 			"/>
			<polygon fill="#656565" points="117,113 131,106 139,110 125,117 			"/>
			<polygon opacity="0.11" points="115,126 85,111 85,109 115,124 			"/>
			<polygon opacity="0.29" points="115,126 155,106 155,104 115,124 			"/>
			<g>
				<polygon opacity="0.3" fill="#FFFFFF" points="107,115 109,114 107,113 105,114 				"/>
				<polygon opacity="0.3" fill="#FFFFFF" points="111,113 113,112 111,111 109,112 				"/>
				<polygon opacity="0.3" fill="#FFFFFF" points="115,111 117,110 115,109 113,110 				"/>
				<polygon opacity="0.3" fill="#FFFFFF" points="119,109 121,108 119,107 117,108 				"/>
				<polygon opacity="0.3" fill="#FFFFFF" points="123,107 125,106 123,105 121,106 				"/>
				<polygon opacity="0.3" fill="#FFFFFF" points="127,105 129,104 127,103 125,104 				"/>
				<polygon opacity="0.3" fill="#FFFFFF" points="131,103 133,102 131,101 129,102 				"/>
				<polygon opacity="0.3" fill="#FFFFFF" points="135,101 137,100 135,99 133,100 				"/>
				<polygon opacity="0.3" fill="#FFFFFF" points="105,113 107,112 105,111 103,112 				"/>
				<polygon opacity="0.3" fill="#FFFFFF" points="109,111 111,110 109,109 107,110 				"/>
				<polygon opacity="0.3" fill="#FFFFFF" points="113,109 115,108 113,107 111,108 				"/>
				<polygon opacity="0.3" fill="#FFFFFF" points="117,107 119,106 117,105 115,106 				"/>
				<polygon opacity="0.3" fill="#FFFFFF" points="121,105 123,104 121,103 119,104 				"/>
				<polygon opacity="0.3" fill="#FFFFFF" points="125,103 127,102 125,101 123,102 				"/>
				<polygon opacity="0.3" fill="#FFFFFF" points="133,99 129,101 127,100 131,98 				"/>
				<polygon opacity="0.3" fill="#FFFFFF" points="100,112 102,111 100,110 98,111 				"/>
				<polygon opacity="0.3" fill="#FFFFFF" points="104,110 106,109 104,108 102,109 				"/>
				<polygon opacity="0.3" fill="#FFFFFF" points="108,108 110,107 108,106 106,107 				"/>
				<polygon opacity="0.3" fill="#FFFFFF" points="112,106 114,105 112,104 110,105 				"/>
				<polygon opacity="0.3" fill="#FFFFFF" points="116,104 118,103 116,102 114,103 				"/>
				<polygon opacity="0.3" fill="#FFFFFF" points="120,102 122,101 120,100 118,101 				"/>
				<polygon opacity="0.3" fill="#FFFFFF" points="124,100 126,99 124,98 122,99 				"/>
				<polygon opacity="0.3" fill="#FFFFFF" points="128,98 130,97 128,96 126,97 				"/>
				<polygon opacity="0.3" fill="#FFFFFF" points="97,110 99,109 97,108 95,109 				"/>
				<polygon opacity="0.3" fill="#FFFFFF" points="101,108 103,107 101,106 99,107 				"/>
				<polygon opacity="0.3" fill="#FFFFFF" points="105,106 107,105 105,104 103,105 				"/>
				<polygon opacity="0.3" fill="#FFFFFF" points="109,104 111,103 109,102 107,103 				"/>
				<polygon opacity="0.3" fill="#FFFFFF" points="113,102 115,101 113,100 111,101 				"/>
				<polygon opacity="0.3" fill="#FFFFFF" points="117,100 119,99 117,98 115,99 				"/>
				<polygon opacity="0.3" fill="#FFFFFF" points="121,98 123,97 121,96 119,97 				"/>
				<polygon opacity="0.3" fill="#FFFFFF" points="125,96 127,95 125,94 123,95 				"/>
			</g>
		</g>
	</g>
	<g>
		<g>
			<polygon fill="#2D3134" points="76,76 83,108 85,109 125,89 118,57 116,56 			"/>
			<polygon opacity="0.11" points="85,109 83,108 76,76 78,77 			"/>
			<polygon fill="#3366CC" points="80.2,78.1 116.5,60 122.8,87.9 86.5,106 			"/>
			<polygon opacity="0.2" fill="#FFFFFF" points="80.2,78.1 116.5,60 120.9,79.6 			"/>
			<polygon opacity="0.29" points="85,109 125,89 118,57 78,77 			"/>
		</g>
	</g>
</g>
<g>
	<path opacity="0.2" d="M132.5,199.6c9.2,5.6,9.9,12.4-2,18.7c-13,7-20.7,5.5-30.8-0.4c-8.9-5.1-6.9-12.1,8.1-18.1
		C119.8,195,125.9,195.6,132.5,199.6z"/>
	<g>
		<path fill="#FBD7C7" d="M167.2,142.3c0.8,3.7-15.5,13.4-17.9,20.9c-3.1,9.9-8.2,15.6-10.1,20c-1.8,4.1-4.9,9.5-5.3,11.6
			c-0.4,2.6,2.6,3.9,0.4,5.6c-1.8,1.4-1-0.6-10.1,2.7c-12.1,4.5-9.6-1.8-3.6-2.9c2.1-0.4,3.7-5.2,5.3-8.9c2.3-5.2,4.5-12.8,6.3-21.2
			c2.7-13,4.1-19.3,5.6-25c1.7-6.3,6.6-5.7,11.6-5.9C155,139,166.4,138.6,167.2,142.3z"/>
		<path fill="#656565" d="M133.9,195.4c0,0,2.3,2.5,2.2,4.8c-0.1,2.3-1.8,5.6-1.8,6.9c0,1.3,0,3.2,0,3.2l-1.7,0.9l-1.6-0.8
			c0,0,0.7-5.3-0.5-6.1c-1.2-0.8-4.7,1.9-7.2,2.5s-8.2-0.1-10.3-0.9s-0.4-3.6,1.5-4.7c2.6-1.4,6.6-1.1,6.6-1.1s-1.3,0.4-2.8,1.9
			c-2.7,2.7,4.7,3.2,11.5-2.6C132.5,197.1,133.9,195.4,133.9,195.4z"/>
	</g>
	<path opacity="0.2" d="M141.6,213.2l29,14.5c3.7,1.9,8.1,1.9,11.8,0l29-14.5c2.1-1.1,2.1-4,0-5.1l-30.1-15c-3-1.5-6.6-1.5-9.7,0
		l-30.1,15C139.5,209.2,139.5,212.2,141.6,213.2z"/>
	<path fill="#2D3134" d="M176,229.9c-1.8,0-3.5-0.4-5.2-1.2l-29.7-14.4c-2.5-1.2-4.1-3.8-4.1-6.6V169c0-1.1,0.9-2,2-2s2,0.9,2,2
		v38.7c0,1.3,0.7,2.4,1.9,3l29.7,14.4c2.2,1.1,4.7,1.1,6.9,0l30.6-14.9c0,0,0.1,0,0.1-0.1c0-0.1,0-0.1-0.1-0.1l-30.7-13.7
		c-2.6-1.2-4.3-3.8-4.3-6.7V185c0-1.1,0.9-2,2-2s2,0.9,2,2v4.6c0,1.3,0.8,2.5,2,3l30.7,13.7c1.5,0.7,2.4,2.1,2.4,3.7
		c0,1.6-0.9,3.1-2.3,3.8l-30.6,14.9C179.6,229.5,177.8,229.9,176,229.9z"/>
	<path opacity="0.2" fill="#FFFFFF" d="M175.5,228c-1.6,0-3.1-0.4-4.5-1.1l-29.7-14.4c-2-1-3.3-3-3.3-5.2v-38.7
		c0-0.3,0.2-0.5,0.5-0.5s0.5,0.2,0.5,0.5v38.7c0,1.8,1.1,3.5,2.7,4.3l29.7,14.4c2.6,1.3,5.6,1.3,8.2,0l30.6-14.9
		c0.6-0.3,0.9-0.8,0.9-1.5c0-0.6-0.4-1.2-1-1.4l-30.7-13.7c-2.1-0.9-3.4-3-3.4-5.3v-4.6c0-0.3,0.2-0.5,0.5-0.5s0.5,0.2,0.5,0.5v4.6
		c0,1.9,1.1,3.6,2.8,4.4l30.7,13.7c0.9,0.4,1.5,1.3,1.5,2.3s-0.5,1.9-1.5,2.4L180,226.9C178.6,227.6,177,228,175.5,228z"/>
	<g>
		<g>
			<polygon fill="#FF9900" points="137,166 137,170 177,190 217,170 217,166 177,146 			"/>
			<polygon opacity="0.11" points="177,190 137,170 137,166 177,186 			"/>
		</g>
	</g>
	<path fill="#FBD7C7" d="M156.7,96.8c0,0-7.3-3-9.1-3.8s-7-0.9-9.6,0.8s-4.1,5.4-2.8,6.3s3.4-1,3.9-1.8s2.5-1.8,3.9-1
		s1.8,1.7,1.5,2.4s-4.3,2.3-3.6,3.6s2.5,0.6,3.6-0.3s3.6-1.7,5.8-1.9s5.5,1.3,5.5,1.3L156.7,96.8z"/>
	<path fill="#FBD7C7" d="M131.3,119.5c0,0-3.5-1.8-3.5-2.4s-0.5-2.5-0.6-5.1s-0.8-5.1-1.9-4.9s-0.8,1.6-0.7,2.6s0.3,2.4-0.4,2.4
		s-3.3-4.3-4.8-5c-1.4-0.6-4.1,0.6-4.4,2.5s-0.1,4.3,1.8,7.3c1.7,2.9,10.5,8,10.5,8L131.3,119.5z"/>
	<g>
		<path fill="#FBD7C7" d="M135,158.3c-1,9.3-4.6,16.4-9.3,29.5c-3.8,10.5-4.6,14-4.3,15.8c0.4,2,2.9,2.4,1.3,4.8
			c-2.2,3.2-8.3,3.6-11,4.9c-3.2,1.5-7.2,2-8.1,0.4c-0.9-1.5-0.2-3.9,3.4-3.7c3,0.1,5.2-5,6.1-7.2c0.9-2.2,2.6-15.5,4.4-28.7
			c2.1-15.7,3.5-23.5,4.6-26.9c1.5-4.6,6.7-5.7,18.7-3.6C151,145.2,135.6,151.8,135,158.3z"/>
		<path fill="#656565" d="M121.7,204.1c0,0,2.3,2,2.3,4.5c0,2.5-2.1,5.3-2.4,7.3c-0.3,2-0.2,3.4-0.2,3.4l-1.9,0.9l-1.9-0.8
			c0,0,1.6-5.6-0.1-6.1c-1.6-0.4-6.7,3.6-9.8,3.6s-7.2-3.9-7.2-5.3s3.4-3,5.4-2.9c2,0.1,2.8,0.6,2.8,0.6s-3,1.3-3.5,2.3
			c-0.4,1,0.6,1.7,1.8,2c2.6,0.5,5-1.8,9.2-5.1C120.1,205.7,121.7,204.1,121.7,204.1z"/>
	</g>
	<path fill="#2D3134" d="M189.5,128.5c0,0,7,11.6,8.3,17.8c1.9,8.9-0.6,18.6-9.6,21.9c-9.7,3.6-18.1,4.3-29.3,0.6
		c-11.2-3.7-23.1-10.7-25.5-11.8c-4.3-2-7.8-10.8-1.3-16c3-2.4,11.7-6.5,15.4-6.7c6-0.4,13.3,1,13.3,1l0.8-1.2L189.5,128.5z"/>
	<path fill="#3399CC" d="M180.5,80.5c3.5-1.3,9.8-2.7,12.5,2c2.7,4.7,1.8,20,0.8,27.2s-3.8,17-1.8,21.7c2,4.7,3.5,5.8,3.5,5.8
		s-4.4,3.3-11.7,4.3c-13.9,2.1-22.6,0.2-24.8-2.6c-0.8-1.1,1.1-9.4,1.1-9.4s-2.1,5.9-5.1,6.8s-8.2,0.2-11.9-1.3
		c-5.8-2.3-18-8-18.8-10s4.4-9.2,7.5-8.8c2.3,0.3,18.2,6.9,18.2,6.9s1.6-24.9,3.5-28.3s9.6-8.8,11.8-9.6L180.5,80.5z"/>
	<path fill="#FBD7C7" d="M162.5,52.4c-3.4,1.6-4.4,4.8-4.3,11.2c0.1,6.4,1.3,10.3,1.9,11.3c0.6,1,4.6,1.9,5.7,3.4s2.1,4.5,1.7,5.2
		c-0.9,1.4-2.3,2-2.3,2s7.8,1.6,12.6-0.8c3.1-1.5,2.7-3.5,2-4.1c-0.7-0.6-2.1-3.5-1.7-5.1c0.4-1.7,7-9,3.8-16.3
		C178.2,50.3,169.3,49,162.5,52.4z"/>
	<path fill="#762C07" d="M166.5,77.6c-2.8-1.2-6.2-9.9-6.2-9.9s-0.5,1.3-0.3,4.5c-1.9-1-4.9-13.6-0.5-18.5c8.3-9.2,16.7-7,19.7-4.3
		c-3-0.8-3.5-0.1-3.7-0.3c0,0,9,1.6,11.3,10.7c2,8.2-1.2,13-2.8,15c-0.1-1.2-0.8-3.4-0.8-3.4s0.6,8.5-5.8,11c-9-1.7-10.9-10-10.9-10
		S166,74.2,166.5,77.6z"/>
	<g>
		<path fill="#FF9900" d="M221,118l-4-2l-40,20l-1.6,6.4c-1.6,6.4-2.4,12.9-2.4,19.5V184l4,2l40-20v-22.1c0-6.6,0.8-13.1,2.4-19.5
			L221,118z"/>
		<path opacity="0.11" d="M181,138l-4-2l-1.6,6.4c-1.6,6.4-2.4,12.9-2.4,19.5V184l4,2v-22.1c0-6.6,0.8-13.1,2.4-19.5L181,138z"/>
		<path opacity="0.29" d="M181,138l-1.6,6.4c-1.6,6.4-2.4,12.9-2.4,19.5V186v4l40-20v-4v-22.1c0-6.6,0.8-13.1,2.4-19.5l1.6-6.4
			L181,138z"/>
	</g>
</g>
</svg>
