<?xml version="1.0" encoding="utf-8"?>
<!-- Generator: Adobe Illustrator 18.1.0, SVG Export Plug-In . SVG Version: 6.00 Build 0)  -->
<svg version="1.1" id="Layer_1" xmlns="http://www.w3.org/2000/svg" xmlns:xlink="http://www.w3.org/1999/xlink" x="0px" y="0px"
	 viewBox="0 0 32 48" enable-background="new 0 0 32 48" xml:space="preserve">
<g>
	<polygon fill="#E5E5E5" points="32,48 0,32 0,0 32,16 	"/>
	<g>
		<polygon fill="#FFFFFF" points="20,40 10,35 10,17 20,22 		"/>
		<polygon fill="#656565" points="11,18.5 19,22.5 19,39.5 11,35.5 		"/>
		<polygon opacity="0.25" fill="#FFFFFF" points="19,38.5 11,34.5 11,33.5 19,37.5 		"/>
		<polygon opacity="0.25" fill="#FFFFFF" points="19,36.5 11,32.5 11,31.5 19,35.5 		"/>
		<polygon opacity="0.25" fill="#FFFFFF" points="19,34.5 11,30.5 11,29.5 19,33.5 		"/>
		<polygon opacity="0.25" fill="#FFFFFF" points="19,32.5 11,28.5 11,27.5 19,31.5 		"/>
		<polygon opacity="0.25" fill="#FFFFFF" points="19,30.5 11,26.5 11,25.5 19,29.5 		"/>
		<polygon opacity="0.25" fill="#FFFFFF" points="19,28.5 11,24.5 11,23.5 19,27.5 		"/>
		<polygon opacity="0.25" fill="#FFFFFF" points="19,26.5 11,22.5 11,21.5 19,25.5 		"/>
		<polygon opacity="0.25" fill="#FFFFFF" points="19,24.5 11,20.5 11,19.5 19,23.5 		"/>
	</g>
	<polygon opacity="0.11" points="32,48 0,32 0,0 32,16 	"/>
	<g>
		<polygon fill="#999999" points="0,42 10,47 20,42 20,40 10,35 6,37 		"/>
		<polygon opacity="0.29" points="10,47 10,47 16,42 20,40 20,42 		"/>
		<polygon opacity="0.15" points="6,37 16,42 10,47 10,47 10,47 0,42 		"/>
	</g>
</g>
</svg>
