<?xml version="1.0" encoding="utf-8"?>
<!-- Generator: Adobe Illustrator 18.1.0, SVG Export Plug-In . SVG Version: 6.00 Build 0)  -->
<svg version="1.1" id="Layer_1" xmlns="http://www.w3.org/2000/svg" xmlns:xlink="http://www.w3.org/1999/xlink" x="0px" y="0px"
	 viewBox="0 0 592 360" enable-background="new 0 0 592 360" xml:space="preserve">
<g>
	<g>
		<polygon fill="#656565" points="400,224 464,256 272,352 208,320 		"/>
		<polygon fill="#656565" points="400,224 464,256 272,352 208,320 		"/>
		<polygon opacity="0.7" fill="#FFCC00" points="426,272.5 366,242.5 365,243 425,273 		"/>
		<g>
			<polygon opacity="0.7" fill="#FFCC00" points="406,282.5 346,252.5 345,253 405,283 			"/>
		</g>
		<polygon opacity="0.7" fill="#FFCC00" points="330,320.5 270,290.5 269,291 329,321 		"/>
		<g>
			<polygon opacity="0.7" fill="#FFCC00" points="310,330.5 250,300.5 249,301 309,331 			"/>
		</g>
		<polygon opacity="0.7" fill="#FFCC00" points="394,288.5 334,258.5 333,259 393,289 		"/>
		<polygon opacity="0.7" fill="#FFCC00" points="362,304.5 302,274.5 301,275 361,305 		"/>
		<g>
			<polygon opacity="0.7" fill="#FFCC00" points="342,314.5 282,284.5 281,285 341,315 			"/>
		</g>
		<g>
			<polygon opacity="0.7" fill="#FFCC00" points="374,298.5 314,268.5 313,269 373,299 			"/>
		</g>
	</g>
	<g>
		<polygon fill="#E5E5E5" points="400,160 400,224 464,256 592,192 592,128 		"/>
		<polygon opacity="0.11" points="464,256 400,224 400,160 464,192 		"/>
		<polygon opacity="0.29" points="464,256 592,192 592,128 464,192 		"/>
	</g>
	<g>
		<polygon fill="#E5E5E5" points="0,168 0,232 64,264 128,232 128,168 		"/>
		<polygon opacity="0.29" points="64,264 128,232 128,168 64,200 		"/>
		<g>
			<g>
				<polygon fill="#FFFFFF" points="37,203 55,212 55,204 37,195 				"/>
				<polygon fill="#3399CC" points="38,202.5 54,210.5 54,204.5 38,196.5 				"/>
				<polygon opacity="0.15" points="38,199.5 54,207.5 54,204.5 38,196.5 				"/>
				<polygon opacity="0.15" points="38,197.5 54,205.5 54,204.5 38,196.5 				"/>
				<polygon opacity="0.15" points="38,202.5 54,204.5 38,196.5 				"/>
			</g>
			<g>
				<polygon fill="#FFFFFF" points="5,187 23,196 23,188 5,179 				"/>
				<polygon fill="#3399CC" points="6,186.5 22,194.5 22,188.5 6,180.5 				"/>
				<polygon opacity="0.15" points="6,183.5 22,191.5 22,188.5 6,180.5 				"/>
				<polygon opacity="0.15" points="6,181.5 22,189.5 22,188.5 6,180.5 				"/>
				<polygon opacity="0.15" points="6,186.5 22,188.5 6,180.5 				"/>
			</g>
		</g>
		<g>
			<g>
				<polygon fill="#FFFFFF" points="37,235 55,244 55,236 37,227 				"/>
				<polygon fill="#3399CC" points="38,234.5 54,242.5 54,236.5 38,228.5 				"/>
				<polygon opacity="0.15" points="38,231.5 54,239.5 54,236.5 38,228.5 				"/>
				<polygon opacity="0.15" points="38,229.5 54,237.5 54,236.5 38,228.5 				"/>
				<polygon opacity="0.15" points="38,234.5 54,236.5 38,228.5 				"/>
			</g>
			<g>
				<polygon fill="#FFFFFF" points="5,219 23,228 23,220 5,211 				"/>
				<polygon fill="#3399CC" points="6,218.5 22,226.5 22,220.5 6,212.5 				"/>
				<polygon opacity="0.15" points="6,215.5 22,223.5 22,220.5 6,212.5 				"/>
				<polygon opacity="0.15" points="6,213.5 22,221.5 22,220.5 6,212.5 				"/>
				<polygon opacity="0.15" points="6,218.5 22,220.5 6,212.5 				"/>
			</g>
		</g>
		<polygon opacity="0.11" points="64,264 0,232 0,168 64,200 		"/>
	</g>
	<polygon fill="#E5E5E5" points="80,192 80,256 208,320 400,224 400,160 	"/>
	<g>
		<g>
			<polygon fill="#FFFFFF" points="363,195 345,204 345,196 363,187 			"/>
			<polygon fill="#3399CC" points="362,194.5 346,202.5 346,196.5 362,188.5 			"/>
			<polygon opacity="0.15" points="362,191.5 346,199.5 346,196.5 362,188.5 			"/>
			<polygon opacity="0.15" points="362,189.5 346,197.5 346,196.5 362,188.5 			"/>
			<polygon opacity="0.15" points="362,194.5 346,196.5 362,188.5 			"/>
		</g>
		<g>
			<polygon fill="#FFFFFF" points="395,179 377,188 377,180 395,171 			"/>
			<polygon fill="#3399CC" points="394,178.5 378,186.5 378,180.5 394,172.5 			"/>
			<polygon opacity="0.15" points="394,175.5 378,183.5 378,180.5 394,172.5 			"/>
			<polygon opacity="0.15" points="394,173.5 378,181.5 378,180.5 394,172.5 			"/>
			<polygon opacity="0.15" points="394,178.5 378,180.5 394,172.5 			"/>
		</g>
	</g>
	<g>
		<polygon fill="#FFFFFF" points="380,232 390,227 390,209 380,214 		"/>
		<polygon fill="#656565" points="389,210.5 381,214.5 381,231.5 389,227.5 		"/>
		<polygon opacity="0.25" fill="#FFFFFF" points="381,230.5 389,226.5 389,225.5 381,229.5 		"/>
		<polygon opacity="0.25" fill="#FFFFFF" points="381,228.5 389,224.5 389,223.5 381,227.5 		"/>
		<polygon opacity="0.25" fill="#FFFFFF" points="381,226.5 389,222.5 389,221.5 381,225.5 		"/>
		<polygon opacity="0.25" fill="#FFFFFF" points="381,224.5 389,220.5 389,219.5 381,223.5 		"/>
		<polygon opacity="0.25" fill="#FFFFFF" points="381,222.5 389,218.5 389,217.5 381,221.5 		"/>
		<polygon opacity="0.25" fill="#FFFFFF" points="381,220.5 389,216.5 389,215.5 381,219.5 		"/>
		<polygon opacity="0.25" fill="#FFFFFF" points="381,218.5 389,214.5 389,213.5 381,217.5 		"/>
		<polygon opacity="0.25" fill="#FFFFFF" points="381,216.5 389,212.5 389,211.5 381,215.5 		"/>
	</g>
	<polygon fill="#2D3134" points="336,0 0,168 64,200 80,192 208,256 400,160 464,192 592,128 	"/>
	<polygon fill="#2D3134" points="336,0 0,168 64,200 80,192 208,256 400,160 464,192 592,128 	"/>
	<g>
		<g>
			<g>
				<polygon fill="#2D3134" points="251,297 249,298 249,276 267,267 267,289 265,290 265,273 251,280 				"/>
				<g>
					<polygon fill="#656565" points="265,273 251,280 251,296 265,289 					"/>
					<polygon opacity="0.25" fill="#FFFFFF" points="251,295 265,288 265,287 251,294 					"/>
					<polygon opacity="0.25" fill="#FFFFFF" points="251,293 265,286 265,285 251,292 					"/>
					<polygon opacity="0.25" fill="#FFFFFF" points="251,291 265,284 265,283 251,290 					"/>
					<polygon opacity="0.25" fill="#FFFFFF" points="251,289 265,282 265,281 251,288 					"/>
					<polygon opacity="0.25" fill="#FFFFFF" points="251,287 265,280 265,279 251,286 					"/>
					<polygon opacity="0.25" fill="#FFFFFF" points="251,285 265,278 265,277 251,284 					"/>
					<polygon opacity="0.25" fill="#FFFFFF" points="251,283 265,276 265,275 251,282 					"/>
					<polygon opacity="0.25" fill="#FFFFFF" points="251,281 265,274 265,273 251,280 					"/>
				</g>
			</g>
			<g>
				<g>
					<polygon fill="#FFFFFF" points="267,243 249,252 249,244 267,235 					"/>
					<polygon fill="#3399CC" points="266,242.5 250,250.5 250,244.5 266,236.5 					"/>
					<polygon opacity="0.15" points="266,239.5 250,247.5 250,244.5 266,236.5 					"/>
					<polygon opacity="0.15" points="266,237.5 250,245.5 250,244.5 266,236.5 					"/>
					<polygon opacity="0.15" points="266,242.5 250,244.5 266,236.5 					"/>
				</g>
			</g>
		</g>
	</g>
	<g>
		<g>
			<g>
				<polygon fill="#2D3134" points="283,281 281,282 281,260 299,251 299,273 297,274 297,257 283,264 				"/>
				<g>
					<polygon fill="#656565" points="297,257 283,264 283,280 297,273 					"/>
					<polygon opacity="0.25" fill="#FFFFFF" points="283,279 297,272 297,271 283,278 					"/>
					<polygon opacity="0.25" fill="#FFFFFF" points="283,277 297,270 297,269 283,276 					"/>
					<polygon opacity="0.25" fill="#FFFFFF" points="283,275 297,268 297,267 283,274 					"/>
					<polygon opacity="0.25" fill="#FFFFFF" points="283,273 297,266 297,265 283,272 					"/>
					<polygon opacity="0.25" fill="#FFFFFF" points="283,271 297,264 297,263 283,270 					"/>
					<polygon opacity="0.25" fill="#FFFFFF" points="283,269 297,262 297,261 283,268 					"/>
					<polygon opacity="0.25" fill="#FFFFFF" points="283,267 297,260 297,259 283,266 					"/>
					<polygon opacity="0.25" fill="#FFFFFF" points="283,265 297,258 297,257 283,264 					"/>
				</g>
			</g>
			<g>
				<g>
					<polygon fill="#FFFFFF" points="299,227 281,236 281,228 299,219 					"/>
					<polygon fill="#3399CC" points="298,226.5 282,234.5 282,228.5 298,220.5 					"/>
					<polygon opacity="0.15" points="298,223.5 282,231.5 282,228.5 298,220.5 					"/>
					<polygon opacity="0.15" points="298,221.5 282,229.5 282,228.5 298,220.5 					"/>
					<polygon opacity="0.15" points="298,226.5 282,228.5 298,220.5 					"/>
				</g>
			</g>
		</g>
	</g>
	<g>
		<g>
			<g>
				<g>
					<polygon fill="#FFFFFF" points="235,259 217,268 217,260 235,251 					"/>
					<polygon fill="#3399CC" points="234,258.5 218,266.5 218,260.5 234,252.5 					"/>
					<polygon opacity="0.15" points="234,255.5 218,263.5 218,260.5 234,252.5 					"/>
					<polygon opacity="0.15" points="234,253.5 218,261.5 218,260.5 234,252.5 					"/>
					<polygon opacity="0.15" points="234,258.5 218,260.5 234,252.5 					"/>
				</g>
			</g>
		</g>
	</g>
	<g>
		<g>
			<g>
				<polygon fill="#2D3134" points="315,265 313,266 313,244 331,235 331,257 329,258 329,241 315,248 				"/>
				<g>
					<polygon fill="#656565" points="329,241 315,248 315,264 329,257 					"/>
					<polygon opacity="0.25" fill="#FFFFFF" points="315,263 329,256 329,255 315,262 					"/>
					<polygon opacity="0.25" fill="#FFFFFF" points="315,261 329,254 329,253 315,260 					"/>
					<polygon opacity="0.25" fill="#FFFFFF" points="315,259 329,252 329,251 315,258 					"/>
					<polygon opacity="0.25" fill="#FFFFFF" points="315,257 329,250 329,249 315,256 					"/>
					<polygon opacity="0.25" fill="#FFFFFF" points="315,255 329,248 329,247 315,254 					"/>
					<polygon opacity="0.25" fill="#FFFFFF" points="315,253 329,246 329,245 315,252 					"/>
					<polygon opacity="0.25" fill="#FFFFFF" points="315,251 329,244 329,243 315,250 					"/>
					<polygon opacity="0.25" fill="#FFFFFF" points="315,249 329,242 329,241 315,248 					"/>
				</g>
			</g>
			<g>
				<g>
					<polygon fill="#FFFFFF" points="331,211 313,220 313,212 331,203 					"/>
					<polygon fill="#3399CC" points="330,210.5 314,218.5 314,212.5 330,204.5 					"/>
					<polygon opacity="0.15" points="330,207.5 314,215.5 314,212.5 330,204.5 					"/>
					<polygon opacity="0.15" points="330,205.5 314,213.5 314,212.5 330,204.5 					"/>
					<polygon opacity="0.15" points="330,210.5 314,212.5 330,204.5 					"/>
				</g>
			</g>
		</g>
	</g>
	<g>
		<g>
			<g>
				<polygon fill="#2D3134" points="347,249 345,250 345,228 363,219 363,241 361,242 361,225 347,232 				"/>
				<g>
					<polygon fill="#656565" points="361,225 347,232 347,248 361,241 					"/>
					<polygon opacity="0.25" fill="#FFFFFF" points="347,247 361,240 361,239 347,246 					"/>
					<polygon opacity="0.25" fill="#FFFFFF" points="347,245 361,238 361,237 347,244 					"/>
					<polygon opacity="0.25" fill="#FFFFFF" points="347,243 361,236 361,235 347,242 					"/>
					<polygon opacity="0.25" fill="#FFFFFF" points="347,241 361,234 361,233 347,240 					"/>
					<polygon opacity="0.25" fill="#FFFFFF" points="347,239 361,232 361,231 347,238 					"/>
					<polygon opacity="0.25" fill="#FFFFFF" points="347,237 361,230 361,229 347,236 					"/>
					<polygon opacity="0.25" fill="#FFFFFF" points="347,235 361,228 361,227 347,234 					"/>
					<polygon opacity="0.25" fill="#FFFFFF" points="347,233 361,226 361,225 347,232 					"/>
				</g>
			</g>
			<g>
				<g>
					<polygon fill="#FFFFFF" points="363,195 345,204 345,196 363,187 					"/>
					<polygon fill="#3399CC" points="362,194.5 346,202.5 346,196.5 362,188.5 					"/>
					<polygon opacity="0.15" points="362,191.5 346,199.5 346,196.5 362,188.5 					"/>
					<polygon opacity="0.15" points="362,189.5 346,197.5 346,196.5 362,188.5 					"/>
					<polygon opacity="0.15" points="362,194.5 346,196.5 362,188.5 					"/>
				</g>
			</g>
		</g>
	</g>
	<g>
		<g>
			<g>
				<g>
					<polygon fill="#FFFFFF" points="181,259 199,268 199,260 181,251 					"/>
					<polygon fill="#3399CC" points="182,258.5 198,266.5 198,260.5 182,252.5 					"/>
					<polygon opacity="0.15" points="182,255.5 198,263.5 198,260.5 182,252.5 					"/>
					<polygon opacity="0.15" points="182,253.5 198,261.5 198,260.5 182,252.5 					"/>
					<polygon opacity="0.15" points="182,258.5 198,260.5 182,252.5 					"/>
				</g>
				<g>
					<polygon fill="#FFFFFF" points="149,243 167,252 167,244 149,235 					"/>
					<polygon fill="#3399CC" points="150,242.5 166,250.5 166,244.5 150,236.5 					"/>
					<polygon opacity="0.15" points="150,239.5 166,247.5 166,244.5 150,236.5 					"/>
					<polygon opacity="0.15" points="150,237.5 166,245.5 166,244.5 150,236.5 					"/>
					<polygon opacity="0.15" points="150,242.5 166,244.5 150,236.5 					"/>
				</g>
			</g>
		</g>
	</g>
	<g>
		<g>
			<g>
				<g>
					<polygon fill="#FFFFFF" points="117,227 135,236 135,228 117,219 					"/>
					<polygon fill="#3399CC" points="118,226.5 134,234.5 134,228.5 118,220.5 					"/>
					<polygon opacity="0.15" points="118,223.5 134,231.5 134,228.5 118,220.5 					"/>
					<polygon opacity="0.15" points="118,221.5 134,229.5 134,228.5 118,220.5 					"/>
					<polygon opacity="0.15" points="118,226.5 134,228.5 118,220.5 					"/>
				</g>
				<g>
					<polygon fill="#FFFFFF" points="85,211 103,220 103,212 85,203 					"/>
					<polygon fill="#3399CC" points="86,210.5 102,218.5 102,212.5 86,204.5 					"/>
					<polygon opacity="0.15" points="86,207.5 102,215.5 102,212.5 86,204.5 					"/>
					<polygon opacity="0.15" points="86,205.5 102,213.5 102,212.5 86,204.5 					"/>
					<polygon opacity="0.15" points="86,210.5 102,212.5 86,204.5 					"/>
				</g>
			</g>
		</g>
	</g>
	<polygon opacity="0.11" points="208,320 80,256 80,192 208,256 	"/>
	<g>
		<polygon fill="#FFFFFF" points="220,312 230,307 230,289 220,294 		"/>
		<polygon fill="#656565" points="229,290.5 221,294.5 221,311.5 229,307.5 		"/>
		<polygon opacity="0.25" fill="#FFFFFF" points="221,310.5 229,306.5 229,305.5 221,309.5 		"/>
		<polygon opacity="0.25" fill="#FFFFFF" points="221,308.5 229,304.5 229,303.5 221,307.5 		"/>
		<polygon opacity="0.25" fill="#FFFFFF" points="221,306.5 229,302.5 229,301.5 221,305.5 		"/>
		<polygon opacity="0.25" fill="#FFFFFF" points="221,304.5 229,300.5 229,299.5 221,303.5 		"/>
		<polygon opacity="0.25" fill="#FFFFFF" points="221,302.5 229,298.5 229,297.5 221,301.5 		"/>
		<polygon opacity="0.25" fill="#FFFFFF" points="221,300.5 229,296.5 229,295.5 221,299.5 		"/>
		<polygon opacity="0.25" fill="#FFFFFF" points="221,298.5 229,294.5 229,293.5 221,297.5 		"/>
		<polygon opacity="0.25" fill="#FFFFFF" points="221,296.5 229,292.5 229,291.5 221,295.5 		"/>
	</g>
	<polygon opacity="0.29" points="208,320 400,224 400,160 208,256 	"/>
	<g>
		<polygon fill="#999999" points="400,234 390,239 380,234 380,232 390,227 394,229 		"/>
		<polygon opacity="0.11" points="390,239 390,239 384,234 380,232 380,234 		"/>
		<polygon opacity="0.15" points="394,229 384,234 390,239 390,239 390,239 400,234 		"/>
	</g>
	<g>
		<polygon fill="#999999" points="240,314 230,319 220,314 220,312 230,307 234,309 		"/>
		<polygon opacity="0.11" points="230,319 230,319 224,314 220,312 220,314 		"/>
		<polygon opacity="0.15" points="234,309 224,314 230,319 230,319 230,319 240,314 		"/>
	</g>
	<g>
		<polygon fill="#E5E5E5" points="64,232 64,264 128,296 144,288 144,256 		"/>
		<g>
			<polygon fill="#3399CC" points="141,260.5 141,289.5 130,295 130,266 			"/>
			<polygon opacity="0.45" fill="#262626" points="140,289 140,260.9 141,260.5 141,289.5 130,295 130,294.1 			"/>
			<polygon opacity="0.5" fill="#E5E5E5" points="142,268 142,269 130,275 130,274 			"/>
			<polygon opacity="0.5" fill="#E5E5E5" points="142,277 142,278 130,284 130,283 			"/>
			<polygon fill="#E5E5E5" points="136,292 135,292.5 135,263.2 136,262.7 			"/>
		</g>
		<g>
			<polygon opacity="0.45" fill="#262626" points="120,291 68,265 68,238.5 67,238 67,265.5 120,292 			"/>
			<polygon fill="#3399CC" points="120,263.5 67,238 67,265.5 120,292 			"/>
			<g>
				<polygon opacity="0.5" fill="#E5E5E5" points="67,244 67,245 126,275 126,274 				"/>
				<polygon opacity="0.5" fill="#E5E5E5" points="67,253 67,254 126,284 126,283 				"/>
				<polygon fill="#E5E5E5" points="90,277 91,277.5 91,249.5 90,249 				"/>
				<polygon fill="#E5E5E5" points="84,274 85,274.5 85,246.9 84,246.4 				"/>
				<polygon fill="#E5E5E5" points="78,271 79,271.5 79,243.9 78,243.4 				"/>
				<polygon fill="#E5E5E5" points="72,268 73,268.5 73,240.9 72,240.4 				"/>
				<polygon fill="#E5E5E5" points="102,283 103,283.5 103,255.6 102,255.1 				"/>
				<polygon fill="#E5E5E5" points="96,280 97,280.5 97,252.6 96,252.1 				"/>
				<polygon fill="#E5E5E5" points="108,286 109,286.5 109,258.4 108,257.9 				"/>
				<polygon fill="#E5E5E5" points="114,289 115,289.5 115,261.2 114,260.7 				"/>
			</g>
			<polygon opacity="0.2" fill="#FFFFFF" points="120,264 100,279 120,270 			"/>
			<polygon opacity="0.1" fill="#FFFFFF" points="85,274.5 85.4,274.7 109,265 77,270.5 			"/>
			<polygon opacity="0.15" fill="#FFFFFF" points="88.1,248.5 75.4,257.6 92.6,250.6 			"/>
		</g>
		<polygon fill="#FF9900" points="126,295 122,293 122,261 126,263 		"/>
		<polygon opacity="0.29" points="144,288 128,296 128,264 144,256 		"/>
		<polygon opacity="0.11" points="64,264 128,296 128,264 64,232 		"/>
		<polygon fill="#2D3134" points="128,264 144,256 80,224 64,232 		"/>
		<polygon fill="#2D3134" points="128,264 144,256 80,224 64,232 		"/>
	</g>
	<g>
		<polygon fill="#999999" points="530,112 554,124 554,126 542,132 518,120 518,118 		"/>
		<polygon opacity="0.11" points="518,120 542,132 542,130 518,118 		"/>
		<polygon opacity="0.29" points="554,126 542,132 542,130 554,124 		"/>
		<path fill="#656565" d="M526,118.5c0,1.4,2.2,2.5,5,2.5s5-1.1,5-2.5s-2.2-2.5-5-2.5S526,117.1,526,118.5z M528,118.5
			c0-0.8,1.3-1.5,3-1.5s3,0.7,3,1.5s-1.3,1.5-3,1.5S528,119.3,528,118.5z"/>
		<path fill="#656565" d="M536,123.5c0,1.4,2.2,2.5,5,2.5s5-1.1,5-2.5s-2.2-2.5-5-2.5S536,122.1,536,123.5z M538,123.5
			c0-0.8,1.3-1.5,3-1.5s3,0.7,3,1.5s-1.3,1.5-3,1.5S538,124.3,538,123.5z"/>
	</g>
	<g>
		<polygon fill="#999999" points="512,121 536,133 536,135 524,141 500,129 500,127 		"/>
		<polygon opacity="0.11" points="500,129 524,141 524,139 500,127 		"/>
		<polygon opacity="0.29" points="536,135 524,141 524,139 536,133 		"/>
		<path fill="#656565" d="M508,127.5c0,1.4,2.2,2.5,5,2.5s5-1.1,5-2.5s-2.2-2.5-5-2.5S508,126.1,508,127.5z M510,127.5
			c0-0.8,1.3-1.5,3-1.5s3,0.7,3,1.5s-1.3,1.5-3,1.5S510,128.3,510,127.5z"/>
		<path fill="#656565" d="M518,132.5c0,1.4,2.2,2.5,5,2.5s5-1.1,5-2.5s-2.2-2.5-5-2.5S518,131.1,518,132.5z M520,132.5
			c0-0.8,1.3-1.5,3-1.5s3,0.7,3,1.5s-1.3,1.5-3,1.5S520,133.3,520,132.5z"/>
	</g>
	<g>
		<polygon fill="#999999" points="466,144 490,156 490,158 478,164 454,152 454,150 		"/>
		<polygon opacity="0.11" points="454,152 478,164 478,162 454,150 		"/>
		<polygon opacity="0.29" points="490,158 478,164 478,162 490,156 		"/>
		<path fill="#656565" d="M462,150.5c0,1.4,2.2,2.5,5,2.5s5-1.1,5-2.5s-2.2-2.5-5-2.5S462,149.1,462,150.5z M464,150.5
			c0-0.8,1.3-1.5,3-1.5s3,0.7,3,1.5s-1.3,1.5-3,1.5S464,151.3,464,150.5z"/>
		<path fill="#656565" d="M472,155.5c0,1.4,2.2,2.5,5,2.5s5-1.1,5-2.5s-2.2-2.5-5-2.5S472,154.1,472,155.5z M474,155.5
			c0-0.8,1.3-1.5,3-1.5s3,0.7,3,1.5s-1.3,1.5-3,1.5S474,156.3,474,155.5z"/>
	</g>
	<g>
		<polygon fill="#999999" points="448,153 472,165 472,167 460,173 436,161 436,159 		"/>
		<polygon opacity="0.11" points="436,161 460,173 460,171 436,159 		"/>
		<polygon opacity="0.29" points="472,167 460,173 460,171 472,165 		"/>
		<path fill="#656565" d="M444,159.5c0,1.4,2.2,2.5,5,2.5s5-1.1,5-2.5s-2.2-2.5-5-2.5S444,158.1,444,159.5z M446,159.5
			c0-0.8,1.3-1.5,3-1.5s3,0.7,3,1.5s-1.3,1.5-3,1.5S446,160.3,446,159.5z"/>
		<path fill="#656565" d="M454,164.5c0,1.4,2.2,2.5,5,2.5s5-1.1,5-2.5s-2.2-2.5-5-2.5S454,163.1,454,164.5z M456,164.5
			c0-0.8,1.3-1.5,3-1.5s3,0.7,3,1.5s-1.3,1.5-3,1.5S456,165.3,456,164.5z"/>
	</g>
</g>
</svg>
