<?xml version="1.0" encoding="utf-8"?>
<!-- Generator: Adobe Illustrator 18.1.0, SVG Export Plug-In . SVG Version: 6.00 Build 0)  -->
<svg version="1.1" id="Layer_1" xmlns="http://www.w3.org/2000/svg" xmlns:xlink="http://www.w3.org/1999/xlink" x="0px" y="0px"
	 viewBox="0 0 72 56" enable-background="new 0 0 72 56" xml:space="preserve">
<polygon fill="#2D3134" points="5,27 5,23.5 7,22.5 7,26 "/>
<polygon opacity="0.3" points="3,28.4 16.1,20.9 64,45 50,52 "/>
<g>
	<path fill="#2D3134" d="M45.5,42.9c-0.7-0.4-1.4-0.4-1.9-0.2l0,0l-1.4,0.7l0,0c-0.5,0.2-0.9,0.8-0.9,1.6c0,1.5,1.3,3.4,2.8,4.2
		c0.8,0.4,1.5,0.4,2,0.2c0,0,1.4-0.7,1.5-0.8c0.5-0.3,0.7-0.8,0.7-1.5C48.3,45.5,47,43.7,45.5,42.9z"/>
	<path opacity="0.39" d="M46,49.4c0.2-0.1,1.4-0.7,1.5-0.7c0.5-0.3,0.7-0.8,0.7-1.5c0-0.6-0.2-1.3-0.5-1.9l-1.4,0.7
		c0.3,0.6,0.5,1.3,0.5,1.9C46.8,48.6,46.5,49.1,46,49.4z"/>
	<path fill="#999999" d="M46.2,47.4c0,1.2-0.9,1.6-2.1,1s-2.1-2-2.1-3.2s0.9-1.6,2.1-1S46.2,46.3,46.2,47.4z"/>
	<path fill="#808285" d="M44.2,48.4c-1.2-0.6-2.1-2-2.1-3.2c0-0.6,0.2-1,0.6-1.2c-0.5,0.1-0.8,0.6-0.8,1.2c0,1.2,0.9,2.6,2.1,3.2
		c0.6,0.3,1.1,0.3,1.5,0.1C45.2,48.7,44.7,48.7,44.2,48.4z"/>
	<path fill="#2D3134" d="M45.1,46.7c0,0.5-0.4,0.7-0.9,0.4c-0.5-0.2-0.9-0.8-0.9-1.3c0-0.5,0.4-0.7,0.9-0.4
		C44.7,45.7,45.1,46.3,45.1,46.7z"/>
	<path opacity="0.39" d="M45.1,46.7c0,0.5-0.4,0.7-0.9,0.4c-0.5-0.2-0.9-0.8-0.9-1.3c0-0.5,0.4-0.7,0.9-0.4
		C44.7,45.7,45.1,46.3,45.1,46.7z"/>
	<path fill="#2D3134" d="M44.9,46.8c0,0.5-0.4,0.7-0.9,0.4c-0.5-0.2-0.9-0.8-0.9-1.3s0.4-0.7,0.9-0.4C44.5,45.8,44.9,46.3,44.9,46.8
		z"/>
	<path opacity="0.06" d="M46.8,47.8c0,1.5-1.3,2.2-2.8,1.4s-2.8-2.7-2.8-4.2s1.3-2.2,2.8-1.4S46.8,46.2,46.8,47.8z"/>
</g>
<g>
	<path fill="#2D3134" d="M8.9,24.6c-0.7-0.4-1.4-0.4-1.9-0.2l0,0l-1.4,0.7l0,0c-0.5,0.2-0.9,0.8-0.9,1.6c0,1.5,1.3,3.4,2.8,4.2
		c0.8,0.4,1.5,0.4,2,0.2c0,0,1.4-0.7,1.5-0.8c0.5-0.3,0.7-0.8,0.7-1.5C11.8,27.2,10.5,25.4,8.9,24.6z"/>
	<path opacity="0.39" d="M9.5,31c0.2-0.1,1.4-0.7,1.5-0.7c0.5-0.3,0.7-0.8,0.7-1.5c0-0.6-0.2-1.3-0.5-1.9l-1.4,0.7
		c0.3,0.6,0.5,1.3,0.5,1.9C10.4,30.2,10,30.8,9.5,31z"/>
	<path fill="#999999" d="M9.6,29.1c0,1.2-0.9,1.6-2.1,1s-2.1-2-2.1-3.2s0.9-1.6,2.1-1C8.7,26.5,9.6,28,9.6,29.1z"/>
	<path fill="#808285" d="M7.7,30.1c-1.2-0.6-2.1-2-2.1-3.2c0-0.6,0.2-1,0.6-1.2c-0.5,0.1-0.8,0.6-0.8,1.2c0,1.2,0.9,2.6,2.1,3.2
		c0.6,0.3,1.1,0.3,1.5,0.1C8.7,30.4,8.2,30.3,7.7,30.1z"/>
	<path fill="#2D3134" d="M8.6,28.4c0,0.5-0.4,0.7-0.9,0.4S6.8,28,6.8,27.6s0.4-0.7,0.9-0.4S8.6,27.9,8.6,28.4z"/>
	<path opacity="0.39" d="M8.6,28.4c0,0.5-0.4,0.7-0.9,0.4S6.8,28,6.8,27.6s0.4-0.7,0.9-0.4S8.6,27.9,8.6,28.4z"/>
	<path fill="#2D3134" d="M8.4,28.5c0,0.5-0.4,0.7-0.9,0.4s-0.9-0.8-0.9-1.3c0-0.5,0.4-0.7,0.9-0.4S8.4,28,8.4,28.5z"/>
	<path opacity="0.06" d="M10.4,29.5c0,1.5-1.3,2.2-2.8,1.4c-1.5-0.8-2.8-2.7-2.8-4.2c0-1.5,1.3-2.2,2.8-1.4
		C9.1,26.1,10.4,27.9,10.4,29.5z"/>
</g>
<path fill="#E5E5E5" d="M5,12L5,12L5,12l14-7l6,3v14.1l-13.9,6.7c-0.2-0.7-0.6-1.4-1.1-2.1c-1.5-1.8-3.6-2.5-4.8-1.5
	c-0.5,0.4-0.7,1-0.8,1.6L3,26v-8L5,12z"/>
<polygon opacity="0.39" points="25,8 25,22.1 11,28.8 11,15 "/>
<polygon fill="#2D3134" points="46.5,45.1 46.5,48.8 49,47.6 49,43.8 "/>
<polygon opacity="0.06" points="46.5,45.1 46.5,48.8 49,47.6 49,43.8 "/>
<polygon fill="#06547A" points="26,5 12,12 12,27.3 50,46.3 64,39.3 64,24.1 "/>
<polygon fill="#2D3134" points="64,38.1 64,40.1 50,47.1 50,45.1 "/>
<polygon fill="#2D3134" points="12,26 12,28 50,47.1 50,45.1 "/>
<polygon opacity="0.5" fill="#2D3134" points="8.5,19.8 8.5,20.3 9.5,20.8 9.5,20.3 "/>
<polygon opacity="0.5" fill="#FFFFFF" points="9.5,21 8.5,20.5 8.5,20.3 9.5,20.8 "/>
<path fill="#3399CC" d="M3.6,17.8L5.2,13c0.1-0.2,0.3-0.3,0.4-0.2l3.7,1.9c0.1,0.1,0.2,0.2,0.2,0.3v3.8c0,0.2-0.2,0.4-0.4,0.3
	l-1.6-0.8c-0.3-0.2-0.7-0.2-1-0.1l-1.9,0.4c-0.1,0-0.1,0-0.2,0l-0.7-0.3C3.6,18.1,3.6,17.9,3.6,17.8z"/>
<path opacity="0.15" d="M3.6,17.8L5.2,13c0.1-0.2,0.3-0.3,0.4-0.2l0,0l-1.5,4.6c0,0.1,0,0.3,0.1,0.4l0.7,0.3c0.1,0,0.1,0,0.2,0
	L7,17.8c0.4-0.1,0.7,0,1,0.1l1.5,0.8v0.1c0,0.2-0.2,0.4-0.4,0.3l-1.6-0.8c-0.3-0.2-0.7-0.2-1-0.1l-1.9,0.4c-0.1,0-0.1,0-0.2,0
	l-0.7-0.3C3.6,18.1,3.6,17.9,3.6,17.8z"/>
<polygon fill="#CC291F" points="63.5,38.8 63.5,39.8 62.5,40.3 62.5,39.3 "/>
<polygon fill="#CC291F" points="62,39.6 62,40.6 61,41.1 61,40.1 "/>
<polygon fill="#CC291F" points="53,44.1 53,45.1 52,45.6 52,44.6 "/>
<polygon fill="#CC291F" points="51.5,44.8 51.5,45.8 50.5,46.3 50.5,45.3 "/>
<polygon fill="#FFFFFF" points="59.5,40.3 59.5,41.6 54.5,44.1 54.5,42.8 "/>
<path opacity="0.06" d="M5,12l6,3v13.5c-0.2-0.6-0.6-1.3-1-1.9c-1.5-1.8-3.6-2.5-4.8-1.5c-0.5,0.4-0.7,1-0.8,1.6L3,26v-8
	L5,12z"/>
<polygon opacity="0.06" points="12,12 12,28 50,47.1 50,31.1 "/>
<polygon fill="#2D3134" points="51,44.1 63,38.1 51,32 "/>
<polygon opacity="0.06" points="63,38.1 63,26 51,32 "/>
<path opacity="0.29" d="M50,31v16l14-7V24L50,31z M63,38l-12,6V31.9l12-6V38z"/>
<polygon fill="#06547A" points="63,25.6 69,23.5 69,36 63,38.1 "/>
<polygon opacity="0.39" points="63,25.6 69,23.5 69,36 63,38.1 "/>
<g>
	<polygon fill="#06547A" points="45,35.5 51,31.6 51,44.1 45,48 	"/>
	<polygon opacity="0.39" points="45,35.5 51,31.6 51,44.1 45,48 	"/>
</g>
</svg>
