<?xml version="1.0" encoding="utf-8"?>
<!-- Generator: Adobe Illustrator 18.1.0, SVG Export Plug-In . SVG Version: 6.00 Build 0)  -->
<svg version="1.1" id="Layer_1" xmlns="http://www.w3.org/2000/svg" xmlns:xlink="http://www.w3.org/1999/xlink" x="0px" y="0px"
	 viewBox="0 0 96 120" enable-background="new 0 0 96 120" xml:space="preserve">
<g>
	<g>
		<polygon fill="#3366CC" points="22.8,8 22.8,72 24,72.6 25.2,72 25.2,8 24,7.4 		"/>
		<polygon opacity="0.11" points="24,72.6 22.8,72 22.8,8 24,8.6 		"/>
		<polygon opacity="0.29" points="24,72.6 25.2,72 25.2,8 24,8.6 		"/>
	</g>
	<g>
		<polygon fill="#3366CC" points="54.8,24 54.8,88 56,88.6 57.2,88 57.2,24 56,23.4 		"/>
		<polygon opacity="0.11" points="56,88.6 54.8,88 54.8,24 56,24.6 		"/>
		<polygon opacity="0.29" points="56,88.6 57.2,88 57.2,24 56,24.6 		"/>
	</g>
	<g>
		<polygon fill="#999999" points="16,75.6 16,76.2 48,92.2 56,88.2 56,87.6 24,71.6 		"/>
		<polygon opacity="0.11" points="48,92.2 16,76.2 16,75.6 48,91.6 		"/>
		<polygon opacity="0.29" points="48,92.2 56,88.2 56,87.6 48,91.6 		"/>
	</g>
	<g>
		<polygon fill="#999999" points="16,67.6 16,68.2 48,84.2 56,80.2 56,79.6 24,63.6 		"/>
		<polygon opacity="0.11" points="48,84.2 16,68.2 16,67.6 48,83.6 		"/>
		<polygon opacity="0.29" points="48,84.2 56,80.2 56,79.6 48,83.6 		"/>
	</g>
	<g>
		<polygon fill="#999999" points="16,59.6 16,60.2 48,76.2 56,72.2 56,71.6 24,55.6 		"/>
		<polygon opacity="0.11" points="48,76.2 16,60.2 16,59.6 48,75.6 		"/>
		<polygon opacity="0.29" points="48,76.2 56,72.2 56,71.6 48,75.6 		"/>
	</g>
	<g>
		<polygon fill="#999999" points="16,51.6 16,52.2 48,68.2 56,64.2 56,63.6 24,47.6 		"/>
		<polygon opacity="0.11" points="48,68.2 16,52.2 16,51.6 48,67.6 		"/>
		<polygon opacity="0.29" points="48,68.2 56,64.2 56,63.6 48,67.6 		"/>
	</g>
	<g>
		<polygon fill="#999999" points="16,43.6 16,44.2 48,60.2 56,56.2 56,55.6 24,39.6 		"/>
		<polygon opacity="0.11" points="48,60.2 16,44.2 16,43.6 48,59.6 		"/>
		<polygon opacity="0.29" points="48,60.2 56,56.2 56,55.6 48,59.6 		"/>
	</g>
	<g>
		<polygon fill="#999999" points="16,35.6 16,36.2 48,52.2 56,48.2 56,47.6 24,31.6 		"/>
		<polygon opacity="0.11" points="48,52.2 16,36.2 16,35.6 48,51.6 		"/>
		<polygon opacity="0.29" points="48,52.2 56,48.2 56,47.6 48,51.6 		"/>
	</g>
	<g>
		<polygon fill="#3366CC" points="17.1,18.9 24,9.6 24,9 23.4,8.7 17.1,17.4 		"/>
		<polygon opacity="0.29" points="17.1,18.9 24,9.6 24,9 17.1,18.3 		"/>
	</g>
	<g>
		<polygon fill="#999999" points="16,27.6 16,28.2 48,44.2 56,40.2 56,39.6 24,23.6 		"/>
		<polygon opacity="0.11" points="48,44.2 16,28.2 16,27.6 48,43.6 		"/>
		<polygon opacity="0.29" points="48,44.2 56,40.2 56,39.6 48,43.6 		"/>
	</g>
	<g>
		<polygon fill="#999999" points="16,19.6 16,20.2 48,36.2 56,32.2 56,31.6 24,15.6 		"/>
		<polygon opacity="0.11" points="48,36.2 16,20.2 16,19.6 48,35.6 		"/>
		<polygon opacity="0.29" points="48,36.2 56,32.2 56,31.6 48,35.6 		"/>
	</g>
	<g>
		<polygon fill="#3366CC" points="49.1,34.9 56,25.6 56,25 55.4,24.7 49.1,33.4 		"/>
		<polygon opacity="0.29" points="49.1,34.9 56,25.6 56,25 49.1,34.3 		"/>
	</g>
</g>
<g>
	<g>
		<polygon fill="#3366CC" points="14.8,12 14.8,76 16,76.6 17.2,76 17.2,12 16,11.4 		"/>
		<polygon opacity="0.11" points="16,76.6 14.8,76 14.8,12 16,12.6 		"/>
		<polygon opacity="0.29" points="16,76.6 17.2,76 17.2,12 16,12.6 		"/>
	</g>
	<g>
		<polygon fill="#3366CC" points="9.1,70.9 16,61.6 16,61 15.4,60.7 9.1,69.4 		"/>
		<polygon opacity="0.29" points="9.1,70.9 16,61.6 16,61 9.1,70.3 		"/>
	</g>
	<g>
		<polygon fill="#3366CC" points="9.1,78.9 16,69.6 16,69 15.4,68.7 9.1,77.4 		"/>
		<polygon opacity="0.29" points="9.1,78.9 16,69.6 16,69 9.1,78.3 		"/>
	</g>
	<g>
		<polygon fill="#3366CC" points="9.1,63 16,53.7 16,53.1 15.4,52.8 9.1,61.5 		"/>
		<polygon opacity="0.29" points="9.1,63 16,53.7 16,53.1 9.1,62.4 		"/>
	</g>
	<g>
		<polygon fill="#3366CC" points="46.8,28 46.8,92 48,92.6 49.2,92 49.2,28 48,27.4 		"/>
		<polygon opacity="0.11" points="48,92.6 46.8,92 46.8,28 48,28.6 		"/>
		<polygon opacity="0.29" points="48,92.6 49.2,92 49.2,28 48,28.6 		"/>
	</g>
	<g>
		<polygon fill="#3366CC" points="6.8,16 6.8,80 8,80.6 9.2,80 9.2,16 8,15.4 		"/>
		<polygon opacity="0.11" points="8,80.6 6.8,80 6.8,16 8,16.6 		"/>
		<polygon opacity="0.29" points="8,80.6 9.2,80 9.2,16 8,16.6 		"/>
	</g>
	<g>
		<polygon fill="#999999" points="8,79.6 8,80.2 40,96.2 48,92.2 48,91.6 16,75.6 		"/>
		<polygon opacity="0.11" points="40,96.2 8,80.2 8,79.6 40,95.6 		"/>
		<polygon opacity="0.29" points="40,96.2 48,92.2 48,91.6 40,95.6 		"/>
	</g>
	<g>
		<polygon fill="#999999" points="8,71.6 8,72.2 40,88.2 48,84.2 48,83.6 16,67.6 		"/>
		<polygon opacity="0.11" points="40,88.2 8,72.2 8,71.6 40,87.6 		"/>
		<polygon opacity="0.29" points="40,88.2 48,84.2 48,83.6 40,87.6 		"/>
	</g>
	<g>
		<polygon fill="#3366CC" points="41.1,86.9 48,77.6 48,77 47.4,76.7 41.1,85.4 		"/>
		<polygon opacity="0.29" points="41.1,86.9 48,77.6 48,77 41.1,86.3 		"/>
	</g>
	<g>
		<polygon fill="#3366CC" points="41.1,94.9 48,85.6 48,85 47.4,84.7 41.1,93.4 		"/>
		<polygon opacity="0.29" points="41.1,94.9 48,85.6 48,85 41.1,94.3 		"/>
	</g>
	<g>
		<polygon fill="#999999" points="8,63.6 8,64.2 40,80.2 48,76.2 48,75.6 16,59.6 		"/>
		<polygon opacity="0.11" points="40,80.2 8,64.2 8,63.6 40,79.6 		"/>
		<polygon opacity="0.29" points="40,80.2 48,76.2 48,75.6 40,79.6 		"/>
	</g>
	<g>
		<polygon fill="#3366CC" points="41.1,79 48,69.7 48,69.1 47.4,68.8 41.1,77.5 		"/>
		<polygon opacity="0.29" points="41.1,79 48,69.7 48,69.1 41.1,78.4 		"/>
	</g>
	<g>
		<polygon fill="#3366CC" points="9.1,46.9 16,37.6 16,37 15.4,36.7 9.1,45.4 		"/>
		<polygon opacity="0.29" points="9.1,46.9 16,37.6 16,37 9.1,46.3 		"/>
	</g>
	<g>
		<polygon fill="#3366CC" points="9.1,54.9 16,45.6 16,45 15.4,44.7 9.1,53.4 		"/>
		<polygon opacity="0.29" points="9.1,54.9 16,45.6 16,45 9.1,54.3 		"/>
	</g>
	<g>
		<polygon fill="#3366CC" points="9.1,39 16,29.7 16,29.1 15.4,28.8 9.1,37.5 		"/>
		<polygon opacity="0.29" points="9.1,39 16,29.7 16,29.1 9.1,38.4 		"/>
	</g>
	<g>
		<polygon fill="#999999" points="8,55.6 8,56.2 40,72.2 48,68.2 48,67.6 16,51.6 		"/>
		<polygon opacity="0.11" points="40,72.2 8,56.2 8,55.6 40,71.6 		"/>
		<polygon opacity="0.29" points="40,72.2 48,68.2 48,67.6 40,71.6 		"/>
	</g>
	<g>
		<polygon fill="#999999" points="8,47.6 8,48.2 40,64.2 48,60.2 48,59.6 16,43.6 		"/>
		<polygon opacity="0.11" points="40,64.2 8,48.2 8,47.6 40,63.6 		"/>
		<polygon opacity="0.29" points="40,64.2 48,60.2 48,59.6 40,63.6 		"/>
	</g>
	<g>
		<polygon fill="#3366CC" points="41.1,62.9 48,53.6 48,53 47.4,52.7 41.1,61.4 		"/>
		<polygon opacity="0.29" points="41.1,62.9 48,53.6 48,53 41.1,62.3 		"/>
	</g>
	<g>
		<polygon fill="#3366CC" points="41.1,70.9 48,61.6 48,61 47.4,60.7 41.1,69.4 		"/>
		<polygon opacity="0.29" points="41.1,70.9 48,61.6 48,61 41.1,70.3 		"/>
	</g>
	<g>
		<polygon fill="#999999" points="8,39.6 8,40.2 40,56.2 48,52.2 48,51.6 16,35.6 		"/>
		<polygon opacity="0.11" points="40,56.2 8,40.2 8,39.6 40,55.6 		"/>
		<polygon opacity="0.29" points="40,56.2 48,52.2 48,51.6 40,55.6 		"/>
	</g>
	<g>
		<polygon fill="#3366CC" points="41.1,55 48,45.7 48,45.1 47.4,44.8 41.1,53.5 		"/>
		<polygon opacity="0.29" points="41.1,55 48,45.7 48,45.1 41.1,54.4 		"/>
	</g>
	<g>
		<polygon fill="#3366CC" points="9.1,22.9 16,13.6 16,13 15.4,12.7 9.1,21.4 		"/>
		<polygon opacity="0.29" points="9.1,22.9 16,13.6 16,13 9.1,22.3 		"/>
	</g>
	<g>
		<polygon fill="#3366CC" points="9.1,30.9 16,21.6 16,21 15.4,20.7 9.1,29.4 		"/>
		<polygon opacity="0.29" points="9.1,30.9 16,21.6 16,21 9.1,30.3 		"/>
	</g>
	<g>
		<polygon fill="#999999" points="8,31.6 8,32.2 40,48.2 48,44.2 48,43.6 16,27.6 		"/>
		<polygon opacity="0.11" points="40,48.2 8,32.2 8,31.6 40,47.6 		"/>
		<polygon opacity="0.29" points="40,48.2 48,44.2 48,43.6 40,47.6 		"/>
	</g>
	<g>
		<polygon fill="#999999" points="8,23.6 8,24.2 40,40.2 48,36.2 48,35.6 16,19.6 		"/>
		<polygon opacity="0.11" points="40,40.2 8,24.2 8,23.6 40,39.6 		"/>
		<polygon opacity="0.29" points="40,40.2 48,36.2 48,35.6 40,39.6 		"/>
	</g>
	<g>
		<polygon fill="#3366CC" points="41.1,38.9 48,29.6 48,29 47.4,28.7 41.1,37.4 		"/>
		<polygon opacity="0.29" points="41.1,38.9 48,29.6 48,29 41.1,38.3 		"/>
	</g>
	<g>
		<polygon fill="#3366CC" points="41.1,46.9 48,37.6 48,37 47.4,36.7 41.1,45.4 		"/>
		<polygon opacity="0.29" points="41.1,46.9 48,37.6 48,37 41.1,46.3 		"/>
	</g>
	<g>
		<polygon fill="#3366CC" points="38.8,32 38.8,96 40,96.6 41.2,96 41.2,32 40,31.4 		"/>
		<polygon opacity="0.11" points="40,96.6 38.8,96 38.8,32 40,32.6 		"/>
		<polygon opacity="0.29" points="40,96.6 41.2,96 41.2,32 40,32.6 		"/>
	</g>
</g>
<g>
	<g>
		<polygon fill="#3366CC" points="86.8,40 86.8,104 88,104.6 89.2,104 89.2,40 88,39.4 		"/>
		<polygon opacity="0.11" points="88,104.6 86.8,104 86.8,40 88,40.6 		"/>
		<polygon opacity="0.29" points="88,104.6 89.2,104 89.2,40 88,40.6 		"/>
	</g>
	<g>
		<polygon fill="#999999" points="48,91.6 48,92.2 80,108.2 88,104.2 88,103.6 56,87.6 		"/>
		<polygon opacity="0.11" points="80,108.2 48,92.2 48,91.6 80,107.6 		"/>
		<polygon opacity="0.29" points="80,108.2 88,104.2 88,103.6 80,107.6 		"/>
	</g>
	<g>
		<polygon fill="#999999" points="48,83.6 48,84.2 80,100.2 88,96.2 88,95.6 56,79.6 		"/>
		<polygon opacity="0.11" points="80,100.2 48,84.2 48,83.6 80,99.6 		"/>
		<polygon opacity="0.29" points="80,100.2 88,96.2 88,95.6 80,99.6 		"/>
	</g>
	<g>
		<polygon fill="#3366CC" points="81.1,98.9 88,89.6 88,89 87.4,88.7 81.1,97.4 		"/>
		<polygon opacity="0.29" points="81.1,98.9 88,89.6 88,89 81.1,98.3 		"/>
	</g>
	<g>
		<polygon fill="#3366CC" points="81.1,106.9 88,97.6 88,97 87.4,96.7 81.1,105.4 		"/>
		<polygon opacity="0.29" points="81.1,106.9 88,97.6 88,97 81.1,106.3 		"/>
	</g>
	<g>
		<polygon fill="#999999" points="48,75.6 48,76.2 80,92.2 88,88.2 88,87.6 56,71.6 		"/>
		<polygon opacity="0.11" points="80,92.2 48,76.2 48,75.6 80,91.6 		"/>
		<polygon opacity="0.29" points="80,92.2 88,88.2 88,87.6 80,91.6 		"/>
	</g>
	<g>
		<polygon fill="#3366CC" points="81.1,91 88,81.7 88,81.1 87.4,80.8 81.1,89.5 		"/>
		<polygon opacity="0.29" points="81.1,91 88,81.7 88,81.1 81.1,90.4 		"/>
	</g>
	<g>
		<polygon fill="#999999" points="48,67.6 48,68.2 80,84.2 88,80.2 88,79.6 56,63.6 		"/>
		<polygon opacity="0.11" points="80,84.2 48,68.2 48,67.6 80,83.6 		"/>
		<polygon opacity="0.29" points="80,84.2 88,80.2 88,79.6 80,83.6 		"/>
	</g>
	<g>
		<polygon fill="#999999" points="48,59.6 48,60.2 80,76.2 88,72.2 88,71.6 56,55.6 		"/>
		<polygon opacity="0.11" points="80,76.2 48,60.2 48,59.6 80,75.6 		"/>
		<polygon opacity="0.29" points="80,76.2 88,72.2 88,71.6 80,75.6 		"/>
	</g>
	<g>
		<polygon fill="#3366CC" points="81.1,74.9 88,65.6 88,65 87.4,64.7 81.1,73.4 		"/>
		<polygon opacity="0.29" points="81.1,74.9 88,65.6 88,65 81.1,74.3 		"/>
	</g>
	<g>
		<polygon fill="#3366CC" points="81.1,82.9 88,73.6 88,73 87.4,72.7 81.1,81.4 		"/>
		<polygon opacity="0.29" points="81.1,82.9 88,73.6 88,73 81.1,82.3 		"/>
	</g>
	<g>
		<polygon fill="#999999" points="48,51.6 48,52.2 80,68.2 88,64.2 88,63.6 56,47.6 		"/>
		<polygon opacity="0.11" points="80,68.2 48,52.2 48,51.6 80,67.6 		"/>
		<polygon opacity="0.29" points="80,68.2 88,64.2 88,63.6 80,67.6 		"/>
	</g>
	<g>
		<polygon fill="#3366CC" points="81.1,67 88,57.7 88,57.1 87.4,56.8 81.1,65.5 		"/>
		<polygon opacity="0.29" points="81.1,67 88,57.7 88,57.1 81.1,66.4 		"/>
	</g>
	<g>
		<polygon fill="#999999" points="48,43.6 48,44.2 80,60.2 88,56.2 88,55.6 56,39.6 		"/>
		<polygon opacity="0.11" points="80,60.2 48,44.2 48,43.6 80,59.6 		"/>
		<polygon opacity="0.29" points="80,60.2 88,56.2 88,55.6 80,59.6 		"/>
	</g>
	<g>
		<polygon fill="#999999" points="48,35.6 48,36.2 80,52.2 88,48.2 88,47.6 56,31.6 		"/>
		<polygon opacity="0.11" points="80,52.2 48,36.2 48,35.6 80,51.6 		"/>
		<polygon opacity="0.29" points="80,52.2 88,48.2 88,47.6 80,51.6 		"/>
	</g>
	<g>
		<polygon fill="#3366CC" points="81.1,50.9 88,41.6 88,41 87.4,40.7 81.1,49.4 		"/>
		<polygon opacity="0.29" points="81.1,50.9 88,41.6 88,41 81.1,50.3 		"/>
	</g>
	<g>
		<polygon fill="#3366CC" points="81.1,58.9 88,49.6 88,49 87.4,48.7 81.1,57.4 		"/>
		<polygon opacity="0.29" points="81.1,58.9 88,49.6 88,49 81.1,58.3 		"/>
	</g>
</g>
<g>
	<g>
		<polygon fill="#3366CC" points="78.8,44 78.8,108 80,108.6 81.2,108 81.2,44 80,43.4 		"/>
		<polygon opacity="0.11" points="80,108.6 78.8,108 78.8,44 80,44.6 		"/>
		<polygon opacity="0.29" points="80,108.6 81.2,108 81.2,44 80,44.6 		"/>
	</g>
	<g>
		<polygon fill="#999999" points="40,95.6 40,96.2 72,112.2 80,108.2 80,107.6 48,91.6 		"/>
		<polygon opacity="0.11" points="72,112.2 40,96.2 40,95.6 72,111.6 		"/>
		<polygon opacity="0.29" points="72,112.2 80,108.2 80,107.6 72,111.6 		"/>
	</g>
	<g>
		<polygon fill="#999999" points="40,87.6 40,88.2 72,104.2 80,100.2 80,99.6 48,83.6 		"/>
		<polygon opacity="0.11" points="72,104.2 40,88.2 40,87.6 72,103.6 		"/>
		<polygon opacity="0.29" points="72,104.2 80,100.2 80,99.6 72,103.6 		"/>
	</g>
	<g>
		<polygon fill="#3366CC" points="73.1,102.9 80,93.6 80,93 79.4,92.7 73.1,101.4 		"/>
		<polygon opacity="0.29" points="73.1,102.9 80,93.6 80,93 73.1,102.3 		"/>
	</g>
	<g>
		<polygon fill="#3366CC" points="73.1,110.9 80,101.6 80,101 79.4,100.7 73.1,109.4 		"/>
		<polygon opacity="0.29" points="73.1,110.9 80,101.6 80,101 73.1,110.3 		"/>
	</g>
	<g>
		<polygon fill="#999999" points="40,79.6 40,80.2 72,96.2 80,92.2 80,91.6 48,75.6 		"/>
		<polygon opacity="0.11" points="72,96.2 40,80.2 40,79.6 72,95.6 		"/>
		<polygon opacity="0.29" points="72,96.2 80,92.2 80,91.6 72,95.6 		"/>
	</g>
	<g>
		<polygon fill="#3366CC" points="73.1,95 80,85.7 80,85.1 79.4,84.8 73.1,93.5 		"/>
		<polygon opacity="0.29" points="73.1,95 80,85.7 80,85.1 73.1,94.4 		"/>
	</g>
	<g>
		<polygon fill="#999999" points="40,71.6 40,72.2 72,88.2 80,84.2 80,83.6 48,67.6 		"/>
		<polygon opacity="0.11" points="72,88.2 40,72.2 40,71.6 72,87.6 		"/>
		<polygon opacity="0.29" points="72,88.2 80,84.2 80,83.6 72,87.6 		"/>
	</g>
	<g>
		<polygon fill="#999999" points="40,63.6 40,64.2 72,80.2 80,76.2 80,75.6 48,59.6 		"/>
		<polygon opacity="0.11" points="72,80.2 40,64.2 40,63.6 72,79.6 		"/>
		<polygon opacity="0.29" points="72,80.2 80,76.2 80,75.6 72,79.6 		"/>
	</g>
	<g>
		<polygon fill="#3366CC" points="73.1,78.9 80,69.6 80,69 79.4,68.7 73.1,77.4 		"/>
		<polygon opacity="0.29" points="73.1,78.9 80,69.6 80,69 73.1,78.3 		"/>
	</g>
	<g>
		<polygon fill="#3366CC" points="73.1,86.9 80,77.6 80,77 79.4,76.7 73.1,85.4 		"/>
		<polygon opacity="0.29" points="73.1,86.9 80,77.6 80,77 73.1,86.3 		"/>
	</g>
	<g>
		<polygon fill="#999999" points="40,55.6 40,56.2 72,72.2 80,68.2 80,67.6 48,51.6 		"/>
		<polygon opacity="0.11" points="72,72.2 40,56.2 40,55.6 72,71.6 		"/>
		<polygon opacity="0.29" points="72,72.2 80,68.2 80,67.6 72,71.6 		"/>
	</g>
	<g>
		<polygon fill="#3366CC" points="73.1,71 80,61.7 80,61.1 79.4,60.8 73.1,69.5 		"/>
		<polygon opacity="0.29" points="73.1,71 80,61.7 80,61.1 73.1,70.4 		"/>
	</g>
	<g>
		<polygon fill="#999999" points="40,47.6 40,48.2 72,64.2 80,60.2 80,59.6 48,43.6 		"/>
		<polygon opacity="0.11" points="72,64.2 40,48.2 40,47.6 72,63.6 		"/>
		<polygon opacity="0.29" points="72,64.2 80,60.2 80,59.6 72,63.6 		"/>
	</g>
	<g>
		<polygon fill="#999999" points="40,39.6 40,40.2 72,56.2 80,52.2 80,51.6 48,35.6 		"/>
		<polygon opacity="0.11" points="72,56.2 40,40.2 40,39.6 72,55.6 		"/>
		<polygon opacity="0.29" points="72,56.2 80,52.2 80,51.6 72,55.6 		"/>
	</g>
	<g>
		<polygon fill="#3366CC" points="73.1,54.9 80,45.6 80,45 79.4,44.7 73.1,53.4 		"/>
		<polygon opacity="0.29" points="73.1,54.9 80,45.6 80,45 73.1,54.3 		"/>
	</g>
	<g>
		<polygon fill="#3366CC" points="73.1,62.9 80,53.6 80,53 79.4,52.7 73.1,61.4 		"/>
		<polygon opacity="0.29" points="73.1,62.9 80,53.6 80,53 73.1,62.3 		"/>
	</g>
	<g>
		<polygon fill="#3366CC" points="70.8,48 70.8,112 72,112.6 73.2,112 73.2,48 72,47.4 		"/>
		<polygon opacity="0.11" points="72,112.6 70.8,112 70.8,48 72,48.6 		"/>
		<polygon opacity="0.29" points="72,112.6 73.2,112 73.2,48 72,48.6 		"/>
	</g>
</g>
</svg>
