<?xml version="1.0" encoding="utf-8"?>
<!-- Generator: Adobe Illustrator 18.1.0, SVG Export Plug-In . SVG Version: 6.00 Build 0)  -->
<svg version="1.1" id="Layer_1" xmlns="http://www.w3.org/2000/svg" xmlns:xlink="http://www.w3.org/1999/xlink" x="0px" y="0px"
	 viewBox="0 0 32 48" enable-background="new 0 0 32 48" xml:space="preserve">
<g>
	<polygon fill="#E5E5E5" points="0,48 32,32 32,0 0,16 	"/>
	<polygon fill="#2D3134" points="11,41 9,42 9,20 27,11 27,33 25,34 25,17 11,24 	"/>
	<g>
		<polygon fill="#656565" points="25,17 11,24 11,40 25,33 		"/>
		<polygon opacity="0.25" fill="#FFFFFF" points="11,39 25,32 25,31 11,38 		"/>
		<polygon opacity="0.25" fill="#FFFFFF" points="11,37 25,30 25,29 11,36 		"/>
		<polygon opacity="0.25" fill="#FFFFFF" points="11,35 25,28 25,27 11,34 		"/>
		<polygon opacity="0.25" fill="#FFFFFF" points="11,33 25,26 25,25 11,32 		"/>
		<polygon opacity="0.25" fill="#FFFFFF" points="11,31 25,24 25,23 11,30 		"/>
		<polygon opacity="0.25" fill="#FFFFFF" points="11,29 25,22 25,21 11,28 		"/>
		<polygon opacity="0.25" fill="#FFFFFF" points="11,27 25,20 25,19 11,26 		"/>
		<polygon opacity="0.25" fill="#FFFFFF" points="11,25 25,18 25,17 11,24 		"/>
	</g>
	<polygon opacity="0.29" points="0,48 32,32 32,0 0,16 	"/>
</g>
</svg>
