<?xml version="1.0" encoding="utf-8"?>
<!-- Generator: Adobe Illustrator 18.1.0, SVG Export Plug-In . SVG Version: 6.00 Build 0)  -->
<svg version="1.1" id="Layer_1" xmlns="http://www.w3.org/2000/svg" xmlns:xlink="http://www.w3.org/1999/xlink" x="0px" y="0px"
	 viewBox="0 0 128 128" enable-background="new 0 0 128 128" xml:space="preserve">
<g>
	<g>
		<polygon fill="#E5E5E5" points="0,32 0,96 64,128 128,96 128,32 		"/>
		<g>
			<g>
				<polygon fill="#FFFFFF" points="91,67 73,76 73,68 91,59 				"/>
				<polygon fill="#3399CC" points="90,66.5 74,74.5 74,68.5 90,60.5 				"/>
				<polygon opacity="0.15" points="90,63.5 74,71.5 74,68.5 90,60.5 				"/>
				<polygon opacity="0.15" points="90,61.5 74,69.5 74,68.5 90,60.5 				"/>
				<polygon opacity="0.15" points="90,66.5 74,68.5 90,60.5 				"/>
			</g>
			<g>
				<polygon fill="#FFFFFF" points="123,51 105,60 105,52 123,43 				"/>
				<polygon fill="#3399CC" points="122,50.5 106,58.5 106,52.5 122,44.5 				"/>
				<polygon opacity="0.15" points="122,47.5 106,55.5 106,52.5 122,44.5 				"/>
				<polygon opacity="0.15" points="122,45.5 106,53.5 106,52.5 122,44.5 				"/>
				<polygon opacity="0.15" points="122,50.5 106,52.5 122,44.5 				"/>
			</g>
		</g>
		<g>
			<g>
				<polygon fill="#FFFFFF" points="91,99 73,108 73,100 91,91 				"/>
				<polygon fill="#3399CC" points="90,98.5 74,106.5 74,100.5 90,92.5 				"/>
				<polygon opacity="0.15" points="90,95.5 74,103.5 74,100.5 90,92.5 				"/>
				<polygon opacity="0.15" points="90,93.5 74,101.5 74,100.5 90,92.5 				"/>
				<polygon opacity="0.15" points="90,98.5 74,100.5 90,92.5 				"/>
			</g>
			<g>
				<polygon fill="#FFFFFF" points="123,83 105,92 105,84 123,75 				"/>
				<polygon fill="#3399CC" points="122,82.5 106,90.5 106,84.5 122,76.5 				"/>
				<polygon opacity="0.15" points="122,79.5 106,87.5 106,84.5 122,76.5 				"/>
				<polygon opacity="0.15" points="122,77.5 106,85.5 106,84.5 122,76.5 				"/>
				<polygon opacity="0.15" points="122,82.5 106,84.5 122,76.5 				"/>
			</g>
		</g>
		<polygon opacity="0.29" points="64,128 128,96 128,32 64,64 		"/>
		<g>
			<g>
				<polygon fill="#FFFFFF" points="37,67 55,76 55,68 37,59 				"/>
				<polygon fill="#3399CC" points="38,66.5 54,74.5 54,68.5 38,60.5 				"/>
				<polygon opacity="0.15" points="38,63.5 54,71.5 54,68.5 38,60.5 				"/>
				<polygon opacity="0.15" points="38,61.5 54,69.5 54,68.5 38,60.5 				"/>
				<polygon opacity="0.15" points="38,66.5 54,68.5 38,60.5 				"/>
			</g>
			<g>
				<polygon fill="#FFFFFF" points="5,51 23,60 23,52 5,43 				"/>
				<polygon fill="#3399CC" points="6,50.5 22,58.5 22,52.5 6,44.5 				"/>
				<polygon opacity="0.15" points="6,47.5 22,55.5 22,52.5 6,44.5 				"/>
				<polygon opacity="0.15" points="6,45.5 22,53.5 22,52.5 6,44.5 				"/>
				<polygon opacity="0.15" points="6,50.5 22,52.5 6,44.5 				"/>
			</g>
		</g>
		<g>
			<g>
				<polygon fill="#FFFFFF" points="37,99 55,108 55,100 37,91 				"/>
				<polygon fill="#3399CC" points="38,98.5 54,106.5 54,100.5 38,92.5 				"/>
				<polygon opacity="0.15" points="38,95.5 54,103.5 54,100.5 38,92.5 				"/>
				<polygon opacity="0.15" points="38,93.5 54,101.5 54,100.5 38,92.5 				"/>
				<polygon opacity="0.15" points="38,98.5 54,100.5 38,92.5 				"/>
			</g>
			<g>
				<polygon fill="#FFFFFF" points="5,83 23,92 23,84 5,75 				"/>
				<polygon fill="#3399CC" points="6,82.5 22,90.5 22,84.5 6,76.5 				"/>
				<polygon opacity="0.15" points="6,79.5 22,87.5 22,84.5 6,76.5 				"/>
				<polygon opacity="0.15" points="6,77.5 22,85.5 22,84.5 6,76.5 				"/>
				<polygon opacity="0.15" points="6,82.5 22,84.5 6,76.5 				"/>
			</g>
		</g>
		<polygon opacity="0.11" points="64,128 0,96 0,32 64,64 		"/>
	</g>
	<g>
		<g>
			<g>
				<polygon fill="#2D3134" points="64,0 128,32 64,64 0,32 				"/>
			</g>
			<g>
				<polygon fill="#2D3134" points="64,0 128,32 64,64 0,32 				"/>
			</g>
		</g>
	</g>
</g>
</svg>
