<?xml version="1.0" encoding="utf-8"?>
<!-- Generator: Adobe Illustrator 18.1.0, SVG Export Plug-In . SVG Version: 6.00 Build 0)  -->
<svg version="1.1" id="Layer_1" xmlns="http://www.w3.org/2000/svg" xmlns:xlink="http://www.w3.org/1999/xlink" x="0px" y="0px"
	 viewBox="0 0 320 320" enable-background="new 0 0 320 320" xml:space="preserve">
<g>
	<polygon opacity="0.2" points="66,226 176,281 256,241 146,186 	"/>
	<g>
		<path fill="#2D3134" d="M176.9,256.5c-2.7-1.4-5.1-1.5-7-0.7l0,0l-5.1,2.5l0,0c-1.9,0.9-3.2,2.9-3.2,5.8c0,5.6,4.5,12.4,10.1,15.2
			c2.8,1.4,5.3,1.5,7.1,0.6c0,0,5-2.5,5.5-2.8c1.6-1,2.6-2.9,2.6-5.5C187.1,266.1,182.5,259.3,176.9,256.5z"/>
		<path opacity="0.39" d="M179.1,279.9c0.7-0.4,5-2.5,5.3-2.7c1.6-1,2.6-2.9,2.6-5.5c0-2.3-0.7-4.7-2-7l-5.1,2.5c1.2,2.3,2,4.7,2,7
			C182,277,180.9,279,179.1,279.9z"/>
		<path fill="#A9ABB0" d="M179.5,272.9c0,4.2-3.4,5.9-7.6,3.8c-4.2-2.1-7.6-7.2-7.6-11.4c0-4.2,3.4-5.9,7.6-3.8
			C176.1,263.6,179.5,268.7,179.5,272.9z"/>
		<path fill="#808285" d="M172.5,276.4c-4.2-2.1-7.6-7.2-7.6-11.4c0-2.1,0.8-3.5,2.2-4.2c-1.7,0.5-2.8,2.1-2.8,4.5
			c0,4.2,3.4,9.3,7.6,11.4c2.1,1.1,4.1,1.1,5.4,0.4C176,277.5,174.3,277.3,172.5,276.4z"/>
		<path fill="#2D3134" d="M175.7,270.4c0,1.8-1.4,2.5-3.2,1.6c-1.7-0.9-3.2-3-3.2-4.8c0-1.8,1.4-2.5,3.2-1.6
			C174.3,266.5,175.7,268.7,175.7,270.4z"/>
		<path opacity="0.39" d="M175.7,270.4c0,1.8-1.4,2.5-3.2,1.6c-1.7-0.9-3.2-3-3.2-4.8c0-1.8,1.4-2.5,3.2-1.6
			C174.3,266.5,175.7,268.7,175.7,270.4z"/>
		<path fill="#2D3134" d="M175,270.7c0,1.8-1.4,2.5-3.2,1.6s-3.2-3-3.2-4.8c0-1.8,1.4-2.5,3.2-1.6S175,269,175,270.7z"/>
		<path opacity="0.06" d="M182,274.2c0,5.6-4.5,7.9-10.1,5.1s-10.1-9.6-10.1-15.2c0-5.6,4.5-7.9,10.1-5.1
			C177.5,261.8,182,268.6,182,274.2z"/>
	</g>
	<g>
		<path fill="#2D3134" d="M249.9,220.2c-2.7-1.4-5.1-1.5-7-0.7l0,0l-5.1,2.5l0,0c-1.9,0.9-3.2,2.9-3.2,5.8c0,5.6,4.5,12.4,10.1,15.2
			c2.8,1.4,5.3,1.5,7.1,0.6c0,0,5-2.5,5.5-2.8c1.6-1,2.6-2.9,2.6-5.5C260,229.8,255.5,223,249.9,220.2z"/>
		<path opacity="0.39" d="M252,243.6c0.7-0.4,5-2.5,5.3-2.7c1.6-1,2.6-2.9,2.6-5.5c0-2.3-0.7-4.7-2-7l-5.1,2.5c1.2,2.3,2,4.7,2,7
			C254.9,240.7,253.8,242.7,252,243.6z"/>
		<path fill="#A9ABB0" d="M252.4,236.6c0,4.2-3.4,5.9-7.6,3.8s-7.6-7.2-7.6-11.4c0-4.2,3.4-5.9,7.6-3.8S252.4,232.4,252.4,236.6z"/>
		<path fill="#808285" d="M245.4,240.1c-4.2-2.1-7.6-7.2-7.6-11.4c0-2.1,0.8-3.5,2.2-4.2c-1.7,0.5-2.8,2.1-2.8,4.5
			c0,4.2,3.4,9.3,7.6,11.4c2.1,1.1,4.1,1.1,5.4,0.4C248.9,241.2,247.3,241.1,245.4,240.1z"/>
		<path fill="#2D3134" d="M248.6,234.1c0,1.8-1.4,2.5-3.2,1.6c-1.7-0.9-3.2-3-3.2-4.8c0-1.8,1.4-2.5,3.2-1.6
			C247.2,230.3,248.6,232.4,248.6,234.1z"/>
		<path opacity="0.39" d="M248.6,234.1c0,1.8-1.4,2.5-3.2,1.6c-1.7-0.9-3.2-3-3.2-4.8c0-1.8,1.4-2.5,3.2-1.6
			C247.2,230.3,248.6,232.4,248.6,234.1z"/>
		<path fill="#2D3134" d="M248,234.4c0,1.8-1.4,2.5-3.2,1.6s-3.2-3-3.2-4.8s1.4-2.5,3.2-1.6S248,232.7,248,234.4z"/>
		<path opacity="0.06" d="M254.9,237.9c0,5.6-4.5,7.9-10.1,5.1s-10.1-9.6-10.1-15.2s4.5-7.9,10.1-5.1
			C250.4,225.5,254.9,232.3,254.9,237.9z"/>
	</g>
	<g>
		<path fill="#2D3134" d="M75.4,205.9c-2.7-1.4-5.1-1.5-7-0.7l0,0l-5.1,2.5l0,0c-1.9,0.9-3.2,2.9-3.2,5.8c0,5.6,4.5,12.4,10.1,15.2
			c2.8,1.4,5.3,1.5,7.1,0.6c0,0,5-2.5,5.5-2.8c1.6-1,2.6-2.9,2.6-5.5C85.6,215.6,81,208.7,75.4,205.9z"/>
		<path opacity="0.39" d="M77.6,229.3c0.7-0.4,5-2.5,5.3-2.7c1.6-1,2.6-2.9,2.6-5.5c0-2.3-0.7-4.7-2-7l-5.1,2.5c1.2,2.3,2,4.7,2,7
			C80.5,226.5,79.4,228.4,77.6,229.3z"/>
		<path fill="#A9ABB0" d="M78,222.4c0,4.2-3.4,5.9-7.6,3.8s-7.6-7.2-7.6-11.4c0-4.2,3.4-5.9,7.6-3.8S78,218.2,78,222.4z"/>
		<path fill="#808285" d="M71,225.9c-4.2-2.1-7.6-7.2-7.6-11.4c0-2.1,0.8-3.5,2.2-4.2c-1.7,0.5-2.8,2.1-2.8,4.5
			c0,4.2,3.4,9.3,7.6,11.4c2.1,1.1,4.1,1.1,5.4,0.4C74.5,227,72.8,226.8,71,225.9z"/>
		<path fill="#2D3134" d="M74.2,219.9c0,1.8-1.4,2.5-3.2,1.6c-1.7-0.9-3.2-3-3.2-4.8c0-1.8,1.4-2.5,3.2-1.6
			C72.8,216,74.2,218.1,74.2,219.9z"/>
		<path opacity="0.39" d="M74.2,219.9c0,1.8-1.4,2.5-3.2,1.6c-1.7-0.9-3.2-3-3.2-4.8c0-1.8,1.4-2.5,3.2-1.6
			C72.8,216,74.2,218.1,74.2,219.9z"/>
		<path fill="#2D3134" d="M73.5,220.2c0,1.8-1.4,2.5-3.2,1.6s-3.2-3-3.2-4.8s1.4-2.5,3.2-1.6S73.5,218.4,73.5,220.2z"/>
		<path opacity="0.06" d="M80.5,223.7c0,5.6-4.5,7.9-10.1,5.1s-10.1-9.6-10.1-15.2s4.5-7.9,10.1-5.1
			C76,211.3,80.5,218.1,80.5,223.7z"/>
	</g>
	<g>
		<g>
			<polygon fill="#2D3134" points="60,200 60,204 180,264 260,224 260,220 140,160 			"/>
			<polygon opacity="0.11" points="180,264 60,204 60,200 180,260 			"/>
			<polygon opacity="0.29" points="180,264 260,224 260,220 180,260 			"/>
		</g>
		<g>
			<polygon fill="#FF9900" points="60,190 60,200 180,260 260,220 260,210 140,150 			"/>
			<polygon opacity="0.11" points="180,260 60,200 60,190 180,250 			"/>
			<polygon opacity="0.29" points="180,260 260,220 260,210 180,250 			"/>
		</g>
	</g>
	<g>
		<path fill="#FF9900" d="M131.7,75.7c-1.2,0-2.5,0.3-3.7,0.9l-54.3,27.2C65.3,108,60,116.6,60,126v62.9c0,2,2,3.5,3.9,2.8h0
			c1.2-0.4,2.1-1.6,2.1-2.8V126c0-7.1,4-13.6,10.4-16.8L130.7,82c0.3-0.2,0.7-0.3,1-0.3c1.1,0,2.3,0.9,2.3,2.3v68.4
			c0,1.8,1.9,3.1,3.6,2.5v0c1.5-0.6,2.4-2,2.4-3.5V84C140,79.2,136.1,75.7,131.7,75.7z"/>
		<path opacity="0.29" d="M131.7,75.7c-1.2,0-2.5,0.3-3.7,0.9l-54.3,27.2C65.3,108,60,116.6,60,126v62.9c0,2,2,3.5,3.9,2.8l0,0
			c1.2-0.4,2.1-1.6,2.1-2.8V126c0-7.1,4-13.6,10.4-16.8L130.7,82c0.3-0.2,0.7-0.3,1-0.3c1.1,0,2.3,0.9,2.3,2.3v68.4
			c0,1.8,1.9,3.1,3.6,2.5c1.5-0.6,2.4-2,2.4-3.5V84C140,79.2,136.1,75.7,131.7,75.7z M137,152.4c0,0.7-0.8,1.2-1.4,0.9
			c-0.3-0.2-0.6-0.5-0.6-0.9V84.9c0-0.5-0.2-1-0.5-1.4c0.1,0,0.1,0,0.2,0c1.1,0,2.3,0.9,2.3,2.3V152.4z M134.7,77.5
			c-1.2,0-2.5,0.3-3.7,0.9l-54.3,27.2c-8.4,4.2-13.7,12.8-13.7,22.2v60.6c0,0.7-0.8,1.2-1.4,0.9c-0.3-0.2-0.6-0.5-0.6-0.9v-61.5
			c0-9.4,5.3-18,13.7-22.2L129,77.5c1.2-0.6,2.5-0.9,3.7-0.9c1.5,0,3,0.4,4.3,1.2C136.3,77.7,135.5,77.5,134.7,77.5z"/>
	</g>
</g>
</svg>
