<?xml version="1.0" encoding="utf-8"?>
<!-- Generator: Adobe Illustrator 18.1.0, SVG Export Plug-In . SVG Version: 6.00 Build 0)  -->
<svg version="1.1" id="Layer_1" xmlns="http://www.w3.org/2000/svg" xmlns:xlink="http://www.w3.org/1999/xlink" x="0px" y="0px"
	 viewBox="0 0 240 240" enable-background="new 0 0 240 240" xml:space="preserve">
<g>
	<polygon opacity="0.2" points="20,206 80,236 220,166 160,136 	"/>
	<g>
		<g>
			<polygon fill="#825012" points="212,85 212,166 220,170 228,166 228,85 220,81 			"/>
			<polygon opacity="0.11" points="220,170 212,166 212,85 220,89 			"/>
			<polygon opacity="0.29" points="220,170 228,166 228,85 220,89 			"/>
		</g>
	</g>
	<g>
		<g>
			<polygon fill="#825012" points="152,55 152,136 160,140 168,136 168,55 160,51 			"/>
			<polygon opacity="0.11" points="160,140 152,136 152,55 160,59 			"/>
			<polygon opacity="0.29" points="160,140 168,136 168,55 160,59 			"/>
		</g>
	</g>
	<g>
		<g>
			<polygon fill="#825012" points="72,155 72,236 80,240 88,236 88,155 80,151 			"/>
			<polygon opacity="0.11" points="80,240 72,236 72,155 80,159 			"/>
			<polygon opacity="0.29" points="80,240 88,236 88,155 80,159 			"/>
		</g>
	</g>
	<g>
		<g>
			<polygon fill="#825012" points="12,125 12,206 20,210 28,206 28,125 20,121 			"/>
			<polygon opacity="0.11" points="20,210 12,206 12,125 20,129 			"/>
			<polygon opacity="0.29" points="20,210 28,206 28,125 20,129 			"/>
		</g>
	</g>
	<polygon fill="#825012" points="10,120 10,130 80,165 230,90 230,80 160,45 	"/>
	<polygon opacity="0.11" points="80,165 10,130 10,120 80,155 	"/>
	<polygon opacity="0.29" points="80,165 230,90 230,80 80,155 	"/>
</g>
<g>
	<g>
		<g>
			<polygon fill="#2D3134" points="85,109 85,111 115,126 155,106 155,104 125,89 			"/>
			<polygon fill="#656565" points="93,109 124.9,93 139,100 107.1,116 			"/>
			<polygon fill="#656565" points="117,113 131,106 139,110 125,117 			"/>
			<polygon opacity="0.11" points="115,126 85,111 85,109 115,124 			"/>
			<polygon opacity="0.29" points="115,126 155,106 155,104 115,124 			"/>
			<g>
				<polygon opacity="0.3" fill="#FFFFFF" points="107,115 109,114 107,113 105,114 				"/>
				<polygon opacity="0.3" fill="#FFFFFF" points="111,113 113,112 111,111 109,112 				"/>
				<polygon opacity="0.3" fill="#FFFFFF" points="115,111 117,110 115,109 113,110 				"/>
				<polygon opacity="0.3" fill="#FFFFFF" points="119,109 121,108 119,107 117,108 				"/>
				<polygon opacity="0.3" fill="#FFFFFF" points="123,107 125,106 123,105 121,106 				"/>
				<polygon opacity="0.3" fill="#FFFFFF" points="127,105 129,104 127,103 125,104 				"/>
				<polygon opacity="0.3" fill="#FFFFFF" points="131,103 133,102 131,101 129,102 				"/>
				<polygon opacity="0.3" fill="#FFFFFF" points="135,101 137,100 135,99 133,100 				"/>
				<polygon opacity="0.3" fill="#FFFFFF" points="105,113 107,112 105,111 103,112 				"/>
				<polygon opacity="0.3" fill="#FFFFFF" points="109,111 111,110 109,109 107,110 				"/>
				<polygon opacity="0.3" fill="#FFFFFF" points="113,109 115,108 113,107 111,108 				"/>
				<polygon opacity="0.3" fill="#FFFFFF" points="117,107 119,106 117,105 115,106 				"/>
				<polygon opacity="0.3" fill="#FFFFFF" points="121,105 123,104 121,103 119,104 				"/>
				<polygon opacity="0.3" fill="#FFFFFF" points="125,103 127,102 125,101 123,102 				"/>
				<polygon opacity="0.3" fill="#FFFFFF" points="133,99 129,101 127,100 131,98 				"/>
				<polygon opacity="0.3" fill="#FFFFFF" points="100,112 102,111 100,110 98,111 				"/>
				<polygon opacity="0.3" fill="#FFFFFF" points="104,110 106,109 104,108 102,109 				"/>
				<polygon opacity="0.3" fill="#FFFFFF" points="108,108 110,107 108,106 106,107 				"/>
				<polygon opacity="0.3" fill="#FFFFFF" points="112,106 114,105 112,104 110,105 				"/>
				<polygon opacity="0.3" fill="#FFFFFF" points="116,104 118,103 116,102 114,103 				"/>
				<polygon opacity="0.3" fill="#FFFFFF" points="120,102 122,101 120,100 118,101 				"/>
				<polygon opacity="0.3" fill="#FFFFFF" points="124,100 126,99 124,98 122,99 				"/>
				<polygon opacity="0.3" fill="#FFFFFF" points="128,98 130,97 128,96 126,97 				"/>
				<polygon opacity="0.3" fill="#FFFFFF" points="97,110 99,109 97,108 95,109 				"/>
				<polygon opacity="0.3" fill="#FFFFFF" points="101,108 103,107 101,106 99,107 				"/>
				<polygon opacity="0.3" fill="#FFFFFF" points="105,106 107,105 105,104 103,105 				"/>
				<polygon opacity="0.3" fill="#FFFFFF" points="109,104 111,103 109,102 107,103 				"/>
				<polygon opacity="0.3" fill="#FFFFFF" points="113,102 115,101 113,100 111,101 				"/>
				<polygon opacity="0.3" fill="#FFFFFF" points="117,100 119,99 117,98 115,99 				"/>
				<polygon opacity="0.3" fill="#FFFFFF" points="121,98 123,97 121,96 119,97 				"/>
				<polygon opacity="0.3" fill="#FFFFFF" points="125,96 127,95 125,94 123,95 				"/>
			</g>
		</g>
	</g>
	<g>
		<g>
			<polygon fill="#2D3134" points="76,76 83,108 85,109 125,89 118,57 116,56 			"/>
			<polygon opacity="0.11" points="85,109 83,108 76,76 78,77 			"/>
			<polygon fill="#3366CC" points="80.2,78.1 116.5,60 122.8,87.9 86.5,106 			"/>
			<polygon opacity="0.2" fill="#FFFFFF" points="80.2,78.1 116.5,60 120.9,79.6 			"/>
			<polygon opacity="0.29" points="85,109 125,89 118,57 78,77 			"/>
		</g>
	</g>
</g>
<g>
	<path opacity="0.2" d="M141.6,213.2l29,14.5c3.7,1.9,8.1,1.9,11.8,0l29-14.5c2.1-1.1,2.1-4,0-5.1l-30.1-15c-3-1.5-6.6-1.5-9.7,0
		l-30.1,15C139.5,209.2,139.5,212.2,141.6,213.2z"/>
	<g>
		<path opacity="0.2" d="M98.4,190.1c-3.8,2.6-2.3,9,10.5,10.7c12.8,1.7,16.6,2.1,21,1.5c4.1-0.5,7.4-1.9,10.7-1.3
			c10.1,1.8,18.5-8.7,8.7-12.3c-9.8-3.7-30.8-5.5-36.2-3.7C107.8,186.8,101.1,188.3,98.4,190.1z"/>
		<path fill="#2D3134" d="M135.3,180.6c-2.7-0.4-9.7-1.8-10.2,1.8c-0.6,3.6,2.8,6.7,5.3,7.6s7.4,5.9,10.2,7.1c2.8,1.2,7.9,1.2,8-1.3
			c0.1-2.6,0.4-6.9,0-7.6c-0.4-0.7-10.2-5.8-10.2-5.8L135.3,180.6z"/>
		<path fill="#656565" d="M133.1,182.4c0,0,3.4,5.6,6.7,7.4c3.9,2.1,8.2,2.9,11.1,0.4c1.3-1.1-0.1-12.4,0-19.6
			c0.1-5.3,1.3-11.6,1.3-11.6l12.8-17.3l-20.3-3.8c-5.5-1-10.6,3.1-10.8,8.7l-0.4,12.6c0,0,0.8,10.9,0.4,15.6
			C133.7,179.5,133.1,182.4,133.1,182.4z"/>
		<path opacity="0.2" d="M133.1,182.4c0,0,3.4,5.6,6.7,7.4c3.9,2.1,8.2,2.9,11.1,0.4c1.3-1.1-0.1-12.4,0-19.6
			c0.1-5.3,1.3-11.6,1.3-11.6l12.8-17.3l-20.3-3.8c-5.5-1-10.6,3.1-10.8,8.7l-0.4,12.6c0,0,0.8,10.9,0.4,15.6
			C133.7,179.5,133.1,182.4,133.1,182.4z"/>
		<path opacity="0.4" d="M142.4,196.3c-3-1.3-8.2-6.7-11-7.6c-2.5-0.9-5.8-3.8-5.8-7.3c-0.2,0.3-0.4,0.6-0.4,1.1
			c-0.6,3.6,2.8,6.7,5.3,7.6s7.4,5.9,10.2,7.1c2.2,1,5.7,1.2,7.3,0C146.1,197.3,143.9,197,142.4,196.3z"/>
	</g>
	<path fill="#2D3134" d="M176,229.9c-1.8,0-3.5-0.4-5.2-1.2l-29.7-14.4c-2.5-1.2-4.1-3.8-4.1-6.6V169c0-1.1,0.9-2,2-2s2,0.9,2,2
		v38.7c0,1.3,0.7,2.4,1.9,3l29.7,14.4c2.2,1.1,4.7,1.1,6.9,0l30.6-14.9c0,0,0.1,0,0.1-0.1c0-0.1,0-0.1-0.1-0.1l-30.7-13.7
		c-2.6-1.2-4.3-3.8-4.3-6.7V185c0-1.1,0.9-2,2-2s2,0.9,2,2v4.6c0,1.3,0.8,2.5,2,3l30.7,13.7c1.5,0.7,2.4,2.1,2.4,3.7
		c0,1.6-0.9,3.1-2.3,3.8l-30.6,14.9C179.6,229.5,177.8,229.9,176,229.9z"/>
	<path opacity="0.2" fill="#FFFFFF" d="M175.5,228c-1.6,0-3.1-0.4-4.5-1.1l-29.7-14.4c-2-1-3.3-3-3.3-5.2v-38.7
		c0-0.3,0.2-0.5,0.5-0.5s0.5,0.2,0.5,0.5v38.7c0,1.8,1.1,3.5,2.7,4.3l29.7,14.4c2.6,1.3,5.6,1.3,8.2,0l30.6-14.9
		c0.6-0.3,0.9-0.8,0.9-1.5c0-0.6-0.4-1.2-1-1.4l-30.7-13.7c-2.1-0.9-3.4-3-3.4-5.3v-4.6c0-0.3,0.2-0.5,0.5-0.5s0.5,0.2,0.5,0.5v4.6
		c0,1.9,1.1,3.6,2.8,4.4l30.7,13.7c0.9,0.4,1.5,1.3,1.5,2.3s-0.5,1.9-1.5,2.4L180,226.9C178.6,227.6,177,228,175.5,228z"/>
	<g>
		<g>
			<polygon fill="#FF9900" points="137,166 137,170 177,190 217,170 217,166 177,146 			"/>
			<polygon opacity="0.11" points="177,190 137,170 137,166 177,186 			"/>
		</g>
	</g>
	<g>
		<path fill="#2D3134" d="M116.2,189.4c-1.9,1.3-10.2,0.8-12.3,0.8c-2.1,0-5.3,1.6-5.1,5.1c0.2,3.6,7.7,4.1,10.3,4.7s12.3,1.5,15,2
			c2.6,0.5,4.5-2.3,4-5.9c-0.6-3.6-0.4-5.5-0.4-5.5L116.2,189.4z"/>
		<path opacity="0.4" d="M126,200.8c-3-0.5-13.6-1.4-16.4-2.2c-2.4-0.7-8.9-1.2-10.8-3.8c0,0.1,0,0.3,0,0.4
			c0.2,3.6,7.7,4.1,10.3,4.7s12.3,1.5,15,2c1.2,0.2,2.3-0.3,3-1.2C126.8,200.9,126.4,200.9,126,200.8z"/>
		<path fill="#656565" d="M160.4,140.8l29.4-8.6c0,0,10.3,15,8.7,24.1c-1.8,10.3-13.4,9.9-13.4,9.9s-8.4,7.6-19.4,5.9
			c-11-1.7-27.7-9.5-27.7-9.5s-4.3,13.2-5.5,18c-1.5,6.5-4,13.9-4,13.9s-5.2,0.7-9.1-0.4c-5.2-1.5-6.7-4.3-6.7-4.3s4-14.9,5.2-21
			c1.9-9.9,3.8-16,3.9-19.2c0.1-3.5,2.2-7,8.3-6.7c6,0.3,29.9,2.3,29.9,2.3L160.4,140.8z"/>
	</g>
	<g>
		<path fill="#FBD7C7" d="M141,111c-1.4-1.6,3.8-6.5,6.4-6.9c2.6-0.3,10.6-0.5,10.6-0.5l0.9,5c0,0-7,1.7-9.2,2.8
			S143.9,114.3,141,111z"/>
		<path fill="#FBD7C7" d="M126.9,129.1c0,0-1.4-1-3.4-1.4c-2.1-0.4-6.3-2.3-8.4-3.5c-2.2-1.2-5.3-3-5.8-5.5c-0.4-1.9,1.5-5.2,5.7-5
			s7.5,3.4,8.3,3.4s-0.2-1.9-1.2-2.8c-1-0.9-1.2-1.7-0.1-2s4.7,2.7,5.4,4.7s1.1,4.2,2.4,5.3c1.1,0.9,2.2,1.5,2.2,1.5L126.9,129.1z"
			/>
		<path fill="#FBD7C7" d="M166.6,88.8c0,0-1.5-8-2.9-9.3c-1.3-1.2-4.9-0.7-5.7-2.4c-0.8-1.7-3.2-12.7-0.8-20s18.4-7.7,21.6,2.4
			s-1.7,11.7-0.4,15.5c1.3,3.8,4.3,5.9,4.3,5.9s-5.1,3.3-8.7,4.6C170.5,86.8,166.6,88.8,166.6,88.8z"/>
		<path fill="#FFFFFF" d="M182.3,79.3c0,0-1.3-2-2.4-1.9c-1.1,0.1-2.4,2.3-5.9,3.2c-3.4,0.9-6.1,3.3-7.5,5.2
			c-1.4,1.9-1.9,6.3-1.9,6.3L182.3,79.3z"/>
		<path fill="#762C07" d="M156,60.7c0,3.1,2.3,7.4,3.7,7.8c1.3,0.3,1.5-2.6,3.7-0.8c2.1,1.7,0.9,6.5,2.9,7.3s5.8,2.9,9,1.6
			c3.2-1.2,5.1-6.9,5.1-11.6c0-4.8-2.1-13.1-12.4-13.7C157.5,50.7,156,57.1,156,60.7z"/>
		<path fill="#656565" d="M158.8,145.8c0,0,9.1,24.1,15.5,26.3c6.4,2.2,23.6-5.3,25.8-13.4s-1.5-25.9-1.6-27.9
			c-0.5-10.4,1.5-23.1,2.6-32.3s-1.5-17.6-5.5-18.8c-4-1.2-11.1-0.5-11.1-0.5s-1.5-2-3.1-0.7c-1.6,1.3-6.9,2.9-10.3,5.5
			c-3.3,2.6-8.3,7.4-9.8,9.5c-3.3,4.5-1.2,28.9-1.7,35.2L158.8,145.8z"/>
		<path fill="#656565" d="M170.2,93.8c-5.9-2.8-9.5-1-12.8,8.4c-1.7,5-7.2,23-7.2,23s-7.3-1.6-11.9-3c-3-0.9-8-3.1-9.3-2.4
			c-1.3,0.7-3.4,3.6-3.6,6.3c-0.2,2.7-0.3,4.3,1.7,5s7.7,3.9,12.8,5.9c3.3,1.3,15.3,5.9,17.3,4.2s12.9-23.6,15.3-30.1
			S176.2,96.7,170.2,93.8z"/>
		<path fill="#656565" d="M198.5,82.7c0,0,8.8,15.6,7.5,21.7c-1.3,6.1-11.7,6.7-12.9,6.7C191.8,111.1,198.5,82.7,198.5,82.7z"/>
	</g>
	<g>
		<path fill="#FF9900" d="M221,118l-4-2l-40,20l-1.6,6.4c-1.6,6.4-2.4,12.9-2.4,19.5V184l4,2l40-20v-22.1c0-6.6,0.8-13.1,2.4-19.5
			L221,118z"/>
		<path opacity="0.11" d="M181,138l-4-2l-1.6,6.4c-1.6,6.4-2.4,12.9-2.4,19.5V184l4,2v-22.1c0-6.6,0.8-13.1,2.4-19.5L181,138z"/>
		<path opacity="0.29" d="M181,138l-1.6,6.4c-1.6,6.4-2.4,12.9-2.4,19.5V186v4l40-20v-4v-22.1c0-6.6,0.8-13.1,2.4-19.5l1.6-6.4
			L181,138z"/>
	</g>
</g>
</svg>
