<?xml version="1.0" encoding="utf-8"?>
<!-- Generator: Adobe Illustrator 18.1.0, SVG Export Plug-In . SVG Version: 6.00 Build 0)  -->
<svg version="1.1" id="Layer_1" xmlns="http://www.w3.org/2000/svg" xmlns:xlink="http://www.w3.org/1999/xlink" x="0px" y="0px"
	 viewBox="0 0 400 400" enable-background="new 0 0 400 400" xml:space="preserve">
<g>
	<polygon opacity="0.3" points="13,274 143.9,199 380,318.2 240,388 	"/>
	<g>
		<polygon fill="#2D3134" points="117,178 153,160 141,180 105,198 		"/>
		<polygon opacity="0.29" points="117,178 153,160 141,180 105,198 		"/>
		<g>
			<g>
				<path fill="#2D3134" d="M171.4,170.6c-7.5-3.7-14.2-4.2-19.2-1.9l0,0l-14,7l0,0c-5.4,2.4-8.8,7.9-8.8,15.9
					c0,15.5,12.5,34.3,28,42c7.6,3.8,14.6,4.2,19.6,1.8c0,0,13.9-6.9,15.1-7.6c4.5-2.7,7.3-7.9,7.3-15.2
					C199.4,197.2,186.8,178.4,171.4,170.6z"/>
				<path opacity="0.29" d="M177.3,235.2c2-1,13.7-6.8,14.8-7.5c4.5-2.7,7.3-7.9,7.3-15.2c0-6.2-2.1-13-5.5-19.3l-14,7
					c3.4,6.4,5.5,13.1,5.5,19.3C185.4,227.3,182.3,232.7,177.3,235.2z"/>
				<path fill="#999999" d="M175.3,214.4c0,9.9-8,13.9-17.9,8.9c-9.9-4.9-17.9-17-17.9-26.8c0-9.9,8-13.9,17.9-8.9
					S175.3,204.5,175.3,214.4z"/>
				<path opacity="0.15" d="M158.9,222.7c-9.9-4.9-17.9-17-17.9-26.8c0-4.9,1.9-8.3,5.1-9.9c-4,1.3-6.6,5-6.6,10.6
					c0,9.9,8,21.9,17.9,26.8c5,2.5,9.6,2.7,12.8,1C167.1,225.3,163.2,224.8,158.9,222.7z"/>
				<path fill="#2D3134" d="M166.3,208.6c0,4.1-3.3,5.8-7.5,3.7c-4.1-2.1-7.5-7.1-7.5-11.2c0-4.1,3.3-5.8,7.5-3.7
					C163,199.4,166.3,204.4,166.3,208.6z"/>
				<path opacity="0.29" d="M166.3,208.6c0,4.1-3.3,5.8-7.5,3.7c-4.1-2.1-7.5-7.1-7.5-11.2c0-4.1,3.3-5.8,7.5-3.7
					C163,199.4,166.3,204.4,166.3,208.6z"/>
				<path fill="#2D3134" d="M164.8,209.3c0,4.1-3.3,5.8-7.5,3.7c-4.1-2.1-7.5-7.1-7.5-11.2c0-4.1,3.3-5.8,7.5-3.7
					S164.8,205.1,164.8,209.3z"/>
				<path opacity="0.11" d="M185.4,219.6c0,15.5-12.5,21.7-28,14s-28-26.5-28-42s12.5-21.7,28-14S185.4,204.2,185.4,219.6z"/>
			</g>
		</g>
		<g>
			<g>
				<path fill="#2D3134" d="M152,180.1c-7.5-3.7-14.2-4.2-19.2-1.9l0,0l-14,7l0,0c-5.4,2.4-8.8,7.9-8.8,15.9c0,15.5,12.5,34.3,28,42
					c7.6,3.8,14.6,4.2,19.6,1.8c0,0,13.9-6.9,15.1-7.6c4.5-2.7,7.3-7.9,7.3-15.2C180,206.6,167.5,187.8,152,180.1z"/>
				<path opacity="0.29" d="M157.9,244.7c2-1,13.7-6.8,14.8-7.5c4.5-2.7,7.3-7.9,7.3-15.2c0-6.2-2.1-13-5.5-19.3l-14,7
					c3.4,6.4,5.5,13.1,5.5,19.3C166,236.7,162.9,242.1,157.9,244.7z"/>
				<path fill="#999999" d="M155.9,223.8c0,9.9-8,13.9-17.9,8.9c-9.9-4.9-17.9-17-17.9-26.8c0-9.9,8-13.9,17.9-8.9
					S155.9,214,155.9,223.8z"/>
				<path opacity="0.15" d="M139.5,232.2c-9.9-4.9-17.9-17-17.9-26.8c0-4.9,1.9-8.3,5.1-9.9c-4,1.3-6.6,5-6.6,10.6
					c0,9.9,8,21.9,17.9,26.8c5,2.5,9.6,2.7,12.8,1C147.7,234.8,143.8,234.3,139.5,232.2z"/>
				<path fill="#2D3134" d="M146.9,218c0,4.1-3.3,5.8-7.5,3.7c-4.1-2.1-7.5-7.1-7.5-11.2s3.3-5.8,7.5-3.7
					C143.6,208.9,146.9,213.9,146.9,218z"/>
				<path opacity="0.29" d="M146.9,218c0,4.1-3.3,5.8-7.5,3.7c-4.1-2.1-7.5-7.1-7.5-11.2s3.3-5.8,7.5-3.7
					C143.6,208.9,146.9,213.9,146.9,218z"/>
				<path fill="#2D3134" d="M145.5,218.7c0,4.1-3.3,5.8-7.5,3.7s-7.5-7.1-7.5-11.2c0-4.1,3.3-5.8,7.5-3.7S145.5,214.6,145.5,218.7z"
					/>
				<path opacity="0.11" d="M166,229.1c0,15.5-12.5,21.7-28,14c-15.5-7.7-28-26.5-28-42s12.5-21.7,28-14
					C153.5,194.8,166,213.6,166,229.1z"/>
			</g>
		</g>
		<polygon fill="#2D3134" points="117,178 153,160 189,178 153,196 		"/>
		<polygon fill="#2D3134" points="167,221 203,203 189,178 153,196 		"/>
		<polygon opacity="0.29" points="167,221 203,203 189,178 153,196 		"/>
	</g>
	<g>
		<polygon fill="#06547A" points="102,177 98,179 98,210 226,274 230,272 230,241 		"/>
		<polygon opacity="0.11" points="98,179 98,210 226,274 226,243 		"/>
		<polygon opacity="0.29" points="230,241 230,272 226,274 226,243 		"/>
	</g>
	<g>
		<polygon fill="#06547A" points="200,232 164,250 164,281 188,293 224,275 224,244 		"/>
		<polygon opacity="0.11" points="164,250 164,281 188,293 188,262 		"/>
		<polygon opacity="0.29" points="224,244 224,275 188,293 188,262 		"/>
	</g>
	<g>
		<polygon fill="#06547A" points="98,181 62,199 62,230 86,242 122,224 122,193 		"/>
		<polygon opacity="0.11" points="62,199 62,230 86,242 86,211 		"/>
		<polygon opacity="0.29" points="122,193 122,224 86,242 86,211 		"/>
	</g>
	<g>
		<polygon fill="#06547A" points="58,199 54,201 54,232 182,296 186,294 186,263 		"/>
		<polygon opacity="0.11" points="54,201 54,232 182,296 182,265 		"/>
		<polygon opacity="0.29" points="186,263 186,294 182,296 182,265 		"/>
	</g>
	<g>
		<polygon fill="#2D3134" points="24,225 60,207 48,227 12,245 		"/>
		<polygon opacity="0.29" points="24,225 60,207 48,227 12,245 		"/>
		<g>
			<g>
				<path fill="#2D3134" d="M78.4,217.6c-7.5-3.7-14.2-4.2-19.2-1.9l0,0l-14,7l0,0c-5.4,2.4-8.8,7.9-8.8,15.9
					c0,15.5,12.5,34.3,28,42c7.6,3.8,14.6,4.2,19.6,1.8c0,0,13.9-6.9,15.1-7.6c4.5-2.7,7.3-7.9,7.3-15.2
					C106.4,244.2,93.8,225.4,78.4,217.6z"/>
				<path opacity="0.29" d="M84.3,282.2c2-1,13.7-6.8,14.8-7.5c4.5-2.7,7.3-7.9,7.3-15.2c0-6.2-2.1-13-5.5-19.3l-14,7
					c3.4,6.4,5.5,13.1,5.5,19.3C92.4,274.3,89.3,279.7,84.3,282.2z"/>
				<path fill="#999999" d="M82.3,261.4c0,9.9-8,13.9-17.9,8.9c-9.9-4.9-17.9-17-17.9-26.8c0-9.9,8-13.9,17.9-8.9
					S82.3,251.5,82.3,261.4z"/>
				<path opacity="0.15" d="M65.9,269.7c-9.9-4.9-17.9-17-17.9-26.8c0-4.9,1.9-8.3,5.1-9.9c-4,1.3-6.6,5-6.6,10.6
					c0,9.9,8,21.9,17.9,26.8c5,2.5,9.6,2.7,12.8,1C74.1,272.3,70.2,271.8,65.9,269.7z"/>
				<path fill="#2D3134" d="M73.3,255.6c0,4.1-3.3,5.8-7.5,3.7c-4.1-2.1-7.5-7.1-7.5-11.2c0-4.1,3.3-5.8,7.5-3.7
					S73.3,251.4,73.3,255.6z"/>
				<path opacity="0.29" d="M73.3,255.6c0,4.1-3.3,5.8-7.5,3.7c-4.1-2.1-7.5-7.1-7.5-11.2c0-4.1,3.3-5.8,7.5-3.7
					S73.3,251.4,73.3,255.6z"/>
				<path fill="#2D3134" d="M71.8,256.3c0,4.1-3.3,5.8-7.5,3.7c-4.1-2.1-7.5-7.1-7.5-11.2c0-4.1,3.3-5.8,7.5-3.7
					S71.8,252.1,71.8,256.3z"/>
				<path opacity="0.11" d="M92.4,266.6c0,15.5-12.5,21.7-28,14c-15.5-7.7-28-26.5-28-42s12.5-21.7,28-14S92.4,251.2,92.4,266.6z"/>
			</g>
		</g>
		<g>
			<g>
				<path fill="#2D3134" d="M59,227.1c-7.5-3.7-14.2-4.2-19.2-1.9l0,0l-14,7l0,0c-5.4,2.4-8.8,7.9-8.8,15.9c0,15.5,12.5,34.3,28,42
					c7.6,3.8,14.6,4.2,19.6,1.8c0,0,13.9-6.9,15.1-7.6c4.5-2.7,7.3-7.9,7.3-15.2C87,253.6,74.5,234.8,59,227.1z"/>
				<path opacity="0.29" d="M64.9,291.7c2-1,13.7-6.8,14.8-7.5c4.5-2.7,7.3-7.9,7.3-15.2c0-6.2-2.1-13-5.5-19.3l-14,7
					c3.4,6.4,5.5,13.1,5.5,19.3C73,283.7,69.9,289.1,64.9,291.7z"/>
				<path fill="#999999" d="M62.9,270.8c0,9.9-8,13.9-17.9,8.9c-9.9-4.9-17.9-17-17.9-26.8c0-9.9,8-13.9,17.9-8.9
					S62.9,261,62.9,270.8z"/>
				<path opacity="0.15" d="M46.5,279.2c-9.9-4.9-17.9-17-17.9-26.8c0-4.9,1.9-8.3,5.1-9.9c-4,1.3-6.6,5-6.6,10.6
					c0,9.9,8,21.9,17.9,26.8c5,2.5,9.6,2.7,12.8,1C54.7,281.8,50.8,281.3,46.5,279.2z"/>
				<path fill="#2D3134" d="M53.9,265c0,4.1-3.3,5.8-7.5,3.7c-4.1-2.1-7.5-7.1-7.5-11.2c0-4.1,3.3-5.8,7.5-3.7
					C50.6,255.9,53.9,260.9,53.9,265z"/>
				<path opacity="0.29" d="M53.9,265c0,4.1-3.3,5.8-7.5,3.7c-4.1-2.1-7.5-7.1-7.5-11.2c0-4.1,3.3-5.8,7.5-3.7
					C50.6,255.9,53.9,260.9,53.9,265z"/>
				<path fill="#2D3134" d="M52.5,265.7c0,4.1-3.3,5.8-7.5,3.7c-4.1-2.1-7.5-7.1-7.5-11.2c0-4.1,3.3-5.8,7.5-3.7
					C49.1,256.6,52.5,261.6,52.5,265.7z"/>
				<path opacity="0.11" d="M73,276.1c0,15.5-12.5,21.7-28,14c-15.5-7.7-28-26.5-28-42s12.5-21.7,28-14
					C60.5,241.8,73,260.6,73,276.1z"/>
			</g>
		</g>
		<polygon fill="#2D3134" points="24,225 60,207 96,225 60,243 		"/>
		<polygon fill="#2D3134" points="74,268 110,250 96,225 60,243 		"/>
		<polygon opacity="0.29" points="74,268 110,250 96,225 60,243 		"/>
	</g>
	<g>
		<polygon fill="#999999" points="118,242 98,252 98,279 150,305 170,295 170,268 		"/>
		<polygon fill="#2D3134" points="132,249 128,247 108,257 108,284 112,286 112,259 		"/>
		<polygon fill="#2D3134" points="160,263 156,261 136,271 136,298 140,300 140,273 		"/>
		<polygon opacity="0.29" points="170,268 170,295 150,305 150,278 		"/>
		<polygon opacity="0.11" points="98,252 98,279 150,305 150,278 		"/>
	</g>
	<g>
		<polygon fill="#06547A" points="83,253 73,258 73,289 135,320 145,315 145,284 		"/>
		<polygon opacity="0.11" points="73,258 73,289 135,320 135,289 		"/>
		<polygon opacity="0.29" points="145,284 145,315 135,320 135,289 		"/>
	</g>
	<g>
		<polygon fill="#06547A" points="275,219 135,289 135,320 159,332 299,262 299,231 		"/>
		<polygon opacity="0.11" points="135,289 135,320 159,332 159,301 		"/>
		<polygon opacity="0.29" points="299,231 299,262 159,332 159,301 		"/>
	</g>
	<g>
		<path fill="#2D3134" d="M163.7,208.8c-9.4-4.7-43.3-9.3-43.3-9.3v2.6l19.5,18.2l-36.4-9.7c-3.3,7.1,3.5,16.7,13.4,21.7
			c12.9,6.5,33.9,6.5,46.8,0S176.6,215.2,163.7,208.8z"/>
		<path opacity="0.2" d="M163.7,208.8c-9.4-4.7-43.3-9.3-43.3-9.3v2.6l19.5,18.2l-36.4-9.7c-3.3,7.1,3.5,16.7,13.4,21.7
			c12.9,6.5,33.9,6.5,46.8,0S176.6,215.2,163.7,208.8z"/>
		<path fill="#2D3134" d="M120.4,199.5l19.5,18.2l-36.4-9.7c-3.3,7.1,3.5,16.7,13.4,21.7c12.9,6.5,33.9,6.5,46.8,0
			c12.9-6.5,12.9-16.9,0-23.4C153.8,201.2,134.6,197.8,120.4,199.5z"/>
	</g>
	<g>
		<path fill="#2D3134" d="M375,184.4h-1v-30.7c0-1.1-0.6-2.1-1.5-2.7c-0.9-0.6-2.1-0.6-3-0.1l-2.3,1.1l-0.4-0.9l2.3-1.1
			c1.3-0.6,2.8-0.6,4,0.2c1.2,0.8,2,2.1,2,3.5V184.4z"/>
		<path fill="#2D3134" d="M368.7,160v20.9c0,1.9,2.1,3,3.6,1.9l0.5-0.4c2.5-1.8,4-4.7,4-7.7v-21c0-1.9-2.2-3-3.7-1.8l-0.8,0.6
			C370.1,154.3,368.7,157.1,368.7,160z"/>
		<g>
			<path fill="#2D3134" d="M202,298.7c-7.5-3.7-14.2-4.2-19.2-1.9l0,0l-14,7l0,0c-5.4,2.4-8.8,7.9-8.8,15.9c0,15.5,12.5,34.3,28,42
				c7.6,3.8,14.6,4.2,19.6,1.8c0,0,13.9-6.9,15.1-7.6c4.5-2.7,7.3-7.9,7.3-15.2C230,325.2,217.5,306.4,202,298.7z"/>
			<path opacity="0.29" d="M207.9,363.3c2-1,13.7-6.8,14.8-7.5c4.5-2.7,7.3-7.9,7.3-15.2c0-6.2-2.1-13-5.5-19.3l-14,7
				c3.4,6.4,5.5,13.1,5.5,19.3C216,355.4,212.9,360.7,207.9,363.3z"/>
			<path fill="#999999" d="M205.9,342.5c0,9.9-8,13.9-17.9,8.9s-17.9-17-17.9-26.8c0-9.9,8-13.9,17.9-8.9
				C197.9,320.6,205.9,332.6,205.9,342.5z"/>
			<path opacity="0.15" d="M189.5,350.8c-9.9-4.9-17.9-17-17.9-26.8c0-4.9,1.9-8.3,5.1-9.9c-4,1.3-6.6,5-6.6,10.6
				c0,9.9,8,21.9,17.9,26.8c5,2.5,9.6,2.7,12.8,1C197.7,353.4,193.8,352.9,189.5,350.8z"/>
			<path fill="#2D3134" d="M196.9,336.6c0,4.1-3.3,5.8-7.5,3.7c-4.1-2.1-7.5-7.1-7.5-11.2c0-4.1,3.3-5.8,7.5-3.7
				C193.6,327.5,196.9,332.5,196.9,336.6z"/>
			<path opacity="0.29" d="M196.9,336.6c0,4.1-3.3,5.8-7.5,3.7c-4.1-2.1-7.5-7.1-7.5-11.2c0-4.1,3.3-5.8,7.5-3.7
				C193.6,327.5,196.9,332.5,196.9,336.6z"/>
			<path fill="#2D3134" d="M195.5,337.3c0,4.1-3.3,5.8-7.5,3.7c-4.1-2.1-7.5-7.1-7.5-11.2s3.3-5.8,7.5-3.7
				C192.1,328.2,195.5,333.2,195.5,337.3z"/>
			<path opacity="0.11" d="M216,347.7c0,15.5-12.5,21.7-28,14s-28-26.5-28-42c0-15.5,12.5-21.7,28-14S216,332.2,216,347.7z"/>
		</g>
		<path fill="#06547A" d="M380,244l-88-44l-140,70v15l18,9c0,0,18.4,8.8,21,10c8.6,4.1,16.1,7.8,23.6,16.9
			c8.6,10.5,12.8,26.5,12.5,36.6L240,364l140-70V244z"/>
		<path opacity="0.15" d="M267.5,201.9l86-43c1.9-1,4.2,0,4.9,2l14.7,44.1L267.5,201.9z"/>
		<path fill="#06547A" d="M292,97.3l-140,70V268l88,44l140-70v-15c0-23.7-3.2-47.3-9.5-70.1l-6.5-23.6L292,97.3z"/>
		<g>
			<path fill="#656565" d="M245.6,264.3c-1.5,0-2.7-1.1-2.9-2.5c-1.6-12.2-4.1-24.4-7.3-36.2l-4.8-17.3c-0.4-1.3,0.3-2.8,1.5-3.4
				l125.6-62.8c0.4-0.2,0.8-0.3,1.3-0.3c1.3,0,2.5,0.9,2.8,2.1l3.9,14.3c3.6,13.2,6.2,26.8,7.7,40.4c0.1,1.2-0.5,2.4-1.6,2.9
				l-125,62.5C246.5,264.2,246,264.3,245.6,264.3z"/>
			<path fill="#2D3134" d="M358.9,142.8c0.9,0,1.6,0.6,1.9,1.4l3.9,14.3c3.6,13.1,6.2,26.7,7.7,40.2c0.1,0.8-0.3,1.6-1.1,1.9
				l-125,62.5c-0.3,0.1-0.6,0.2-0.9,0.2c-0.8,0-1.8-0.6-1.9-1.7c-1.6-12.3-4.1-24.5-7.4-36.3l-4.8-17.3c-0.2-0.9,0.2-1.8,1-2.2
				L358.1,143C358.3,142.8,358.6,142.8,358.9,142.8 M358.9,140.8c-0.6,0-1.2,0.1-1.7,0.4L231.6,204c-1.7,0.8-2.5,2.7-2,4.5l4.8,17.3
				c3.3,11.9,5.7,23.9,7.3,36.1c0.3,2,2,3.4,3.9,3.4c0.6,0,1.2-0.1,1.7-0.4l125-62.5c1.5-0.7,2.3-2.3,2.2-3.9
				c-1.5-13.7-4.1-27.2-7.8-40.5l-3.9-14.3C362.2,141.9,360.6,140.8,358.9,140.8L358.9,140.8z"/>
		</g>
		<g>
			<path fill="#2D3134" d="M374.4,198.5c-0.5-4.3-0.8-6.2-0.4-2.8c0.2,1.6-0.7,3.2-2.2,3.9l-125,62.5c-2.2,1.1-4.8-0.1-5.5-2.3
				c0.1,0.7,0.2,1.4,0.3,2.1c0.4,2.7,3.2,4.2,5.6,3l125-62.5C373.7,201.7,374.6,200.1,374.4,198.5z"/>
		</g>
		<g>
			<path fill="#656565" d="M230.3,263.5c-0.3,0-0.7-0.1-1-0.2l-20.2-10.1c-2.5-1.3-4.1-3.8-4.1-6.7c0-4.4-2.4-8.4-6.4-10.3
				l-13.2-6.6c-0.7-0.4-1.2-1.1-1.2-1.9v-35.1c0-1.3,1.1-2.2,2.2-2.2c0.3,0,0.7,0.1,1,0.2l27.9,14c2.8,1.4,4.9,4,5.8,7l4.6,16.6
				c3,10.7,5.2,21.8,6.8,32.8c0.1,0.6-0.1,1.3-0.5,1.7C231.6,263.2,231,263.5,230.3,263.5z"/>
			<path fill="#2D3134" d="M186.4,191.4c0.2,0,0.4,0,0.5,0.1l27.9,14c2.6,1.3,4.5,3.6,5.3,6.4l4.6,16.6c2.9,10.7,5.2,21.7,6.8,32.7
				c0.1,0.4-0.1,0.8-0.3,0.9c-0.2,0.3-0.6,0.4-0.9,0.4c-0.2,0-0.4,0-0.5-0.1l-20.2-10.1c-2.2-1.1-3.6-3.3-3.6-5.8
				c0-4.8-2.7-9.1-6.9-11.2l-13.2-6.6c-0.4-0.2-0.7-0.6-0.7-1.1v-35.1C185.2,191.8,185.9,191.4,186.4,191.4 M186.4,189.4
				c-1.7,0-3.2,1.3-3.2,3.2v35.1c0,1.2,0.7,2.3,1.8,2.8l13.2,6.6c3.6,1.8,5.8,5.4,5.8,9.4c0,3.2,1.8,6.1,4.7,7.5l20.2,10.1
				c0.5,0.2,1,0.3,1.4,0.3c1.8,0,3.4-1.6,3.2-3.6c-1.6-11.1-3.8-22.1-6.8-32.9l-4.6-16.6c-0.9-3.3-3.2-6.1-6.3-7.7l-27.9-14
				C187.4,189.5,186.9,189.4,186.4,189.4L186.4,189.4z"/>
		</g>
		<path opacity="0.2" d="M279.5,210c35,0,67.6-4.8,94.7-13.1c-1.5-13.1-4.1-26.1-7.6-38.9l-3.9-14.3c-0.7-2.4-3.3-3.6-5.5-2.5
			L231.6,204c-1.1,0.5-1.8,1.5-2.1,2.6C245.4,208.8,262.1,210,279.5,210z"/>
		<g>
			<path fill="#2D3134" d="M362.8,153.6c1-0.5,1.7-1.4,2-2.4l-2.1-7.6c-0.7-2.4-3.3-3.6-5.5-2.5L231.6,204c-1.7,0.8-2.5,2.7-2,4.5
				l2.3,8.4c1.1,0.7,2.6,0.9,3.9,0.2L362.8,153.6z"/>
		</g>
		<path opacity="0.11" d="M152,270v15l18,9c0,0,18.4,8.8,21,10c8.6,4.1,16.1,7.8,23.6,16.9c8.6,10.5,12.8,26.5,12.5,36.6L240,364
			v-50L152,270z"/>
		<polygon opacity="0.5" fill="#2D3134" points="183,238.5 183,243.5 193,248.5 193,243.5 		"/>
		<polygon opacity="0.5" fill="#FFFFFF" points="193,251 183,246 183,243.5 193,248.5 		"/>
		<path fill="#2D3134" d="M313,203.5c-0.8-0.7-1.9-0.6-2.6,0.2l-34.2,38.9c-0.7,0.8-0.6,1.9,0.2,2.6s1.9,0.6,2.6-0.2l9.2-10.5v9h2.3
			V232h-0.1l22.9-26C313.8,205.3,313.7,204.2,313,203.5z"/>
		<path fill="#2D3134" d="M345.9,185.5c-0.8-0.7-1.9-0.6-2.6,0.2l-34.2,38.9c-0.7,0.8-0.6,1.9,0.2,2.6c0.8,0.7,1.9,0.6,2.6-0.2
			l8.2-9.3v9.9h2.3V215l23.8-27C346.7,187.3,346.6,186.1,345.9,185.5z"/>
		<g>
			<polyline opacity="0.2" fill="none" stroke="#000000" stroke-width="0.8485" stroke-miterlimit="10" points="380,212 
				373.2,215.4 338,303.4 282,331.4 246.8,278.6 240,282 			"/>
			<polygon fill="#2D3134" points="355.1,249.5 365.1,224.4 254.9,279.5 264.9,294.6 			"/>
			<g>
				<polygon fill="#2D3134" points="279.4,316.3 285.1,324.9 334.9,300 340.6,285.7 				"/>
				<polygon fill="#2D3134" points="344.1,277 349.6,263.2 270.4,302.8 275.9,311.1 				"/>
			</g>
			<polygon fill="#2D3134" points="351.8,280.1 346.3,293.9 380,277 380,266 			"/>
			<polygon opacity="0.2" points="380,237 380,217 376.3,218.8 366.3,243.9 			"/>
			<polygon fill="#FFFFFF" points="380,259 380,248 360.8,257.6 355.3,271.4 			"/>
			<polygon opacity="0.2" points="253.7,300.2 243.7,285.1 240,287 240,307 			"/>
			<polygon fill="#2D3134" points="240,336 240,347 273.7,330.2 268.2,321.9 			"/>
			<polygon fill="#FFFFFF" points="264.7,316.7 259.2,308.4 240,318 240,329 			"/>
			<polygon fill="#FFFFFF" points="361,284.5 378,276 378,269 361,277.5 			"/>
			<polygon fill="#FFFFFF" points="294,334 330,316 330,309 294,327 			"/>
			<polygon fill="#FFFFFF" points="242,344 259,335.5 259,328.5 242,337 			"/>
			
				<ellipse transform="matrix(-0.6313 0.7756 -0.7756 -0.6313 675.672 347.5274)" opacity="0.3" fill="#2D3134" cx="255.2" cy="334.4" rx="2.6" ry="1.7"/>
			
				<ellipse transform="matrix(-0.6313 0.7756 -0.7756 -0.6313 671.7421 349.3958)" opacity="0.3" fill="#2D3134" cx="252.8" cy="334.4" rx="2.6" ry="1.7"/>
			
				<ellipse transform="matrix(-0.6313 0.7756 -0.7756 -0.6313 663.8812 317.477)" opacity="0.3" fill="#2D3134" cx="256.5" cy="316.6" rx="4.4" ry="2.9"/>
			
				<ellipse transform="matrix(-0.6313 0.7756 -0.7756 -0.6313 657.2333 320.6377)" opacity="0.3" fill="#2D3134" cx="252.4" cy="316.6" rx="4.4" ry="2.9"/>
			
				<ellipse transform="matrix(-0.6313 0.7756 -0.7756 -0.6313 796.5475 146.4034)" opacity="0.3" fill="#2D3134" cx="363.5" cy="262.6" rx="4.4" ry="2.9"/>
			
				<ellipse transform="matrix(-0.6313 0.7756 -0.7756 -0.6313 799.8476 136.8345)" opacity="0.3" fill="#2D3134" cx="367.4" cy="258.6" rx="4.4" ry="2.9"/>
			
				<ellipse transform="matrix(-0.6313 0.7756 -0.7756 -0.6313 665.724 360.257)" opacity="0.3" fill="#2D3134" cx="247.2" cy="338.4" rx="2.6" ry="1.7"/>
			
				<ellipse transform="matrix(-0.6313 0.7756 -0.7756 -0.6313 661.7941 362.1254)" opacity="0.3" fill="#2D3134" cx="244.8" cy="338.4" rx="2.6" ry="1.7"/>
			
				<ellipse transform="matrix(-0.6313 0.7756 -0.7756 -0.6313 824.8916 156.5838)" opacity="0.3" fill="#2D3134" cx="375.2" cy="274.4" rx="2.6" ry="1.7"/>
			
				<ellipse transform="matrix(-0.6313 0.7756 -0.7756 -0.6313 820.9617 158.4523)" opacity="0.3" fill="#2D3134" cx="372.8" cy="274.4" rx="2.6" ry="1.7"/>
			
				<ellipse transform="matrix(-0.6313 0.7756 -0.7756 -0.6313 814.9436 169.3134)" opacity="0.3" fill="#2D3134" cx="367.2" cy="278.4" rx="2.6" ry="1.7"/>
			
				<ellipse transform="matrix(-0.6313 0.7756 -0.7756 -0.6313 811.0137 171.1818)" opacity="0.3" fill="#2D3134" cx="364.8" cy="278.4" rx="2.6" ry="1.7"/>
			<polygon fill="#FF9900" points="241,327 247,324 247,319 241,322 			"/>
			<polygon fill="#FF9900" points="373,261 379,258 379,253 373,256 			"/>
		</g>
		<g>
			<path fill="#06547A" d="M292,61l-140,70v36l46,23l140-70v0c0-11.5-4.9-22.4-13.4-30L292,61z"/>
			<path opacity="0.11" d="M152,131v36l46,23v0c0-11.5-4.9-22.4-13.4-30L152,131z"/>
		</g>
		<path fill="#2D3134" d="M221,262c-1.1,0-2.2-0.3-3.1-0.9c-1.8-1.1-2.8-3-2.8-5.1v-32.3c0-2.3,1.3-4.3,3.3-5.3l3.7-1.8l0.4,0.9
			l-3.7,1.8c-1.7,0.8-2.7,2.5-2.7,4.4V256c0,1.7,0.9,3.3,2.4,4.2c1.5,0.9,3.3,1,4.8,0.2l0.6-0.3l0.4,0.9l-0.6,0.3
			C222.8,261.7,221.9,262,221,262z"/>
		<path fill="#2D3134" d="M215.3,222.9l0.7-0.3c2.4-0.8,4.9,1,4.9,3.5v21.4c0,3.1-1.9,6-4.9,7.1l-0.9,0.3c-2.4,0.9-5.1-0.9-5.1-3.5
			V230C210.2,226.8,212.2,223.9,215.3,222.9z"/>
		<polygon opacity="0.5" fill="#2D3134" points="170,277 172,278 172,177.3 170,176.3 		"/>
		<polygon opacity="0.5" fill="#FFFFFF" points="168,276 170,277 170,176.3 168,175.3 		"/>
		<polygon opacity="0.29" points="240,364 380,294 380,244 240,314 		"/>
		<path opacity="0.29" d="M364,133.3l-140,70l6.5,23.6c6.3,22.8,9.5,46.4,9.5,70.1v15l140-70v-15c0-23.7-3.2-47.3-9.5-70.1
			L364,133.3z"/>
		<path opacity="0.11" d="M224,203.3l-72-36V268l88,44v-15c0-23.7-3.2-47.3-9.5-70.1L224,203.3z"/>
	</g>
</g>
</svg>
