<?xml version="1.0" encoding="utf-8"?>
<!-- Generator: Adobe Illustrator 18.1.0, SVG Export Plug-In . SVG Version: 6.00 Build 0)  -->
<svg version="1.1" id="Layer_1" xmlns="http://www.w3.org/2000/svg" xmlns:xlink="http://www.w3.org/1999/xlink" x="0px" y="0px"
	 viewBox="0 0 96 120" enable-background="new 0 0 96 120" xml:space="preserve">
<g>
	<g>
		<polygon fill="#3366CC" points="22.8,8 22.8,72 24,72.6 25.2,72 25.2,8 24,7.4 		"/>
		<polygon opacity="0.11" points="24,72.6 22.8,72 22.8,8 24,8.6 		"/>
		<polygon opacity="0.29" points="24,72.6 25.2,72 25.2,8 24,8.6 		"/>
	</g>
	<g>
		<polygon fill="#3366CC" points="14.8,12 14.8,76 16,76.6 17.2,76 17.2,12 16,11.4 		"/>
		<polygon opacity="0.11" points="16,76.6 14.8,76 14.8,12 16,12.6 		"/>
		<polygon opacity="0.29" points="16,76.6 17.2,76 17.2,12 16,12.6 		"/>
	</g>
	<g>
		<polygon fill="#3366CC" points="17.1,18.9 24,9.6 24,9 23.4,8.7 17.1,17.4 		"/>
		<polygon opacity="0.29" points="17.1,18.9 24,9.6 24,9 17.1,18.3 		"/>
	</g>
	<g>
		<polygon fill="#999999" points="16,19.6 16,20.2 48,36.2 56,32.2 56,31.6 24,15.6 		"/>
		<polygon opacity="0.11" points="48,36.2 16,20.2 16,19.6 48,35.6 		"/>
		<polygon opacity="0.29" points="48,36.2 56,32.2 56,31.6 48,35.6 		"/>
	</g>
	<g>
		<polygon fill="#FFCC00" points="47.4,20.2 47.4,27.6 40,31.3 32.6,27.6 32.6,20.2 40,16.5 		"/>
		<polygon opacity="0.29" points="40,31.3 47.4,27.6 47.4,20.2 40,23.9 		"/>
		<polygon opacity="0.3" points="42.8,17.9 44.6,18.8 37.2,22.5 37.2,26.1 35.4,25.2 35.4,21.6 		"/>
		<polygon opacity="0.11" points="40,31.3 32.6,27.6 32.6,20.2 40,23.9 		"/>
	</g>
	<g>
		<polygon fill="#FFCC00" points="55.4,24.2 55.4,31.6 48,35.3 40.6,31.6 40.6,24.2 48,20.5 		"/>
		<polygon opacity="0.29" points="48,35.3 55.4,31.6 55.4,24.2 48,27.9 		"/>
		<polygon opacity="0.3" points="50.8,21.9 52.6,22.8 45.2,26.5 45.2,30.1 43.4,29.2 43.4,25.6 		"/>
		<polygon opacity="0.11" points="48,35.3 40.6,31.6 40.6,24.2 48,27.9 		"/>
	</g>
</g>
<g>
	<g>
		<polygon fill="#3366CC" points="14.8,12 14.8,76 16,76.6 17.2,76 17.2,12 16,11.4 		"/>
		<polygon opacity="0.11" points="16,76.6 14.8,76 14.8,12 16,12.6 		"/>
		<polygon opacity="0.29" points="16,76.6 17.2,76 17.2,12 16,12.6 		"/>
	</g>
	<g>
		<polygon fill="#3366CC" points="9.1,70.9 16,61.6 16,61 15.4,60.7 9.1,69.4 		"/>
		<polygon opacity="0.29" points="9.1,70.9 16,61.6 16,61 9.1,70.3 		"/>
	</g>
	<g>
		<polygon fill="#3366CC" points="9.1,78.9 16,69.6 16,69 15.4,68.7 9.1,77.4 		"/>
		<polygon opacity="0.29" points="9.1,78.9 16,69.6 16,69 9.1,78.3 		"/>
	</g>
	<g>
		<polygon fill="#3366CC" points="9.1,63 16,53.7 16,53.1 15.4,52.8 9.1,61.5 		"/>
		<polygon opacity="0.29" points="9.1,63 16,53.7 16,53.1 9.1,62.4 		"/>
	</g>
	<g>
		<polygon fill="#3366CC" points="46.8,28 46.8,92 48,92.6 49.2,92 49.2,28 48,27.4 		"/>
		<polygon opacity="0.11" points="48,92.6 46.8,92 46.8,28 48,28.6 		"/>
		<polygon opacity="0.29" points="48,92.6 49.2,92 49.2,28 48,28.6 		"/>
	</g>
	<g>
		<polygon fill="#3366CC" points="6.8,16 6.8,80 8,80.6 9.2,80 9.2,16 8,15.4 		"/>
		<polygon opacity="0.11" points="8,80.6 6.8,80 6.8,16 8,16.6 		"/>
		<polygon opacity="0.29" points="8,80.6 9.2,80 9.2,16 8,16.6 		"/>
	</g>
	<g>
		<polygon fill="#999999" points="8,79.6 8,80.2 40,96.2 48,92.2 48,91.6 16,75.6 		"/>
		<polygon opacity="0.11" points="40,96.2 8,80.2 8,79.6 40,95.6 		"/>
		<polygon opacity="0.29" points="40,96.2 48,92.2 48,91.6 40,95.6 		"/>
	</g>
	<g>
		<polygon fill="#FFCC00" points="31.4,76.2 31.4,83.6 24,87.3 16.6,83.6 16.6,76.2 24,72.5 		"/>
		<polygon opacity="0.29" points="24,87.3 31.4,83.6 31.4,76.2 24,79.9 		"/>
		<polygon opacity="0.3" points="26.8,73.9 28.6,74.8 21.2,78.5 21.2,82.1 19.4,81.2 19.4,77.6 		"/>
		<polygon opacity="0.11" points="24,87.3 16.6,83.6 16.6,76.2 24,79.9 		"/>
	</g>
	<g>
		<polygon fill="#FFCC00" points="39.4,80.2 39.4,87.6 32,91.3 24.6,87.6 24.6,80.2 32,76.5 		"/>
		<polygon opacity="0.29" points="32,91.3 39.4,87.6 39.4,80.2 32,83.9 		"/>
		<polygon opacity="0.3" points="34.8,77.9 36.6,78.8 29.2,82.5 29.2,86.1 27.4,85.2 27.4,81.6 		"/>
		<polygon opacity="0.11" points="32,91.3 24.6,87.6 24.6,80.2 32,83.9 		"/>
	</g>
	<g>
		<polygon fill="#FFCC00" points="47.4,84.2 47.4,91.6 40,95.3 32.6,91.6 32.6,84.2 40,80.5 		"/>
		<polygon opacity="0.29" points="40,95.3 47.4,91.6 47.4,84.2 40,87.9 		"/>
		<polygon opacity="0.3" points="42.8,81.9 44.6,82.8 37.2,86.5 37.2,90.1 35.4,89.2 35.4,85.6 		"/>
		<polygon opacity="0.11" points="40,95.3 32.6,91.6 32.6,84.2 40,87.9 		"/>
	</g>
	<g>
		<polygon fill="#999999" points="8,71.6 8,72.2 40,88.2 48,84.2 48,83.6 16,67.6 		"/>
		<polygon opacity="0.11" points="40,88.2 8,72.2 8,71.6 40,87.6 		"/>
		<polygon opacity="0.29" points="40,88.2 48,84.2 48,83.6 40,87.6 		"/>
	</g>
	<g>
		<polygon fill="#FFCC00" points="23.4,64.2 23.4,71.6 16,75.3 8.6,71.6 8.6,64.2 16,60.5 		"/>
		<polygon opacity="0.29" points="16,75.3 23.4,71.6 23.4,64.2 16,67.9 		"/>
		<polygon opacity="0.3" points="18.8,61.9 20.6,62.8 13.2,66.5 13.2,70.1 11.4,69.2 11.4,65.6 		"/>
		<polygon opacity="0.11" points="16,75.3 8.6,71.6 8.6,64.2 16,67.9 		"/>
	</g>
	<g>
		<polygon fill="#FFCC00" points="31.4,68.2 31.4,75.6 24,79.3 16.6,75.6 16.6,68.2 24,64.5 		"/>
		<polygon opacity="0.29" points="24,79.3 31.4,75.6 31.4,68.2 24,71.9 		"/>
		<polygon opacity="0.3" points="26.8,65.9 28.6,66.8 21.2,70.5 21.2,74.1 19.4,73.2 19.4,69.6 		"/>
		<polygon opacity="0.11" points="24,79.3 16.6,75.6 16.6,68.2 24,71.9 		"/>
	</g>
	<g>
		<polygon fill="#FFCC00" points="39.4,72.2 39.4,79.6 32,83.3 24.6,79.6 24.6,72.2 32,68.5 		"/>
		<polygon opacity="0.29" points="32,83.3 39.4,79.6 39.4,72.2 32,75.9 		"/>
		<polygon opacity="0.3" points="34.8,69.9 36.6,70.8 29.2,74.5 29.2,78.1 27.4,77.2 27.4,73.6 		"/>
		<polygon opacity="0.11" points="32,83.3 24.6,79.6 24.6,72.2 32,75.9 		"/>
	</g>
	<g>
		<polygon fill="#FFCC00" points="47.4,76.2 47.4,83.6 40,87.3 32.6,83.6 32.6,76.2 40,72.5 		"/>
		<polygon opacity="0.29" points="40,87.3 47.4,83.6 47.4,76.2 40,79.9 		"/>
		<polygon opacity="0.3" points="42.8,73.9 44.6,74.8 37.2,78.5 37.2,82.1 35.4,81.2 35.4,77.6 		"/>
		<polygon opacity="0.11" points="40,87.3 32.6,83.6 32.6,76.2 40,79.9 		"/>
	</g>
	<g>
		<polygon fill="#3366CC" points="41.1,86.9 48,77.6 48,77 47.4,76.7 41.1,85.4 		"/>
		<polygon opacity="0.29" points="41.1,86.9 48,77.6 48,77 41.1,86.3 		"/>
	</g>
	<g>
		<polygon fill="#3366CC" points="41.1,94.9 48,85.6 48,85 47.4,84.7 41.1,93.4 		"/>
		<polygon opacity="0.29" points="41.1,94.9 48,85.6 48,85 41.1,94.3 		"/>
	</g>
	<g>
		<polygon fill="#999999" points="8,63.6 8,64.2 40,80.2 48,76.2 48,75.6 16,59.6 		"/>
		<polygon opacity="0.11" points="40,80.2 8,64.2 8,63.6 40,79.6 		"/>
		<polygon opacity="0.29" points="40,80.2 48,76.2 48,75.6 40,79.6 		"/>
	</g>
	<g>
		<polygon fill="#FFCC00" points="23.4,56.2 23.4,63.6 16,67.3 8.6,63.6 8.6,56.2 16,52.5 		"/>
		<polygon opacity="0.29" points="16,67.3 23.4,63.6 23.4,56.2 16,59.9 		"/>
		<polygon opacity="0.3" points="18.8,53.9 20.6,54.8 13.2,58.5 13.2,62.1 11.4,61.2 11.4,57.6 		"/>
		<polygon opacity="0.11" points="16,67.3 8.6,63.6 8.6,56.2 16,59.9 		"/>
	</g>
	<g>
		<polygon fill="#FFCC00" points="47.4,68.2 47.4,75.6 40,79.3 32.6,75.6 32.6,68.2 40,64.5 		"/>
		<polygon opacity="0.29" points="40,79.3 47.4,75.6 47.4,68.2 40,71.9 		"/>
		<polygon opacity="0.3" points="42.8,65.9 44.6,66.8 37.2,70.5 37.2,74.1 35.4,73.2 35.4,69.6 		"/>
		<polygon opacity="0.11" points="40,79.3 32.6,75.6 32.6,68.2 40,71.9 		"/>
	</g>
	<g>
		<polygon fill="#3366CC" points="41.1,79 48,69.7 48,69.1 47.4,68.8 41.1,77.5 		"/>
		<polygon opacity="0.29" points="41.1,79 48,69.7 48,69.1 41.1,78.4 		"/>
	</g>
	<g>
		<polygon fill="#3366CC" points="9.1,46.9 16,37.6 16,37 15.4,36.7 9.1,45.4 		"/>
		<polygon opacity="0.29" points="9.1,46.9 16,37.6 16,37 9.1,46.3 		"/>
	</g>
	<g>
		<polygon fill="#3366CC" points="9.1,54.9 16,45.6 16,45 15.4,44.7 9.1,53.4 		"/>
		<polygon opacity="0.29" points="9.1,54.9 16,45.6 16,45 9.1,54.3 		"/>
	</g>
	<g>
		<polygon fill="#3366CC" points="9.1,39 16,29.7 16,29.1 15.4,28.8 9.1,37.5 		"/>
		<polygon opacity="0.29" points="9.1,39 16,29.7 16,29.1 9.1,38.4 		"/>
	</g>
	<g>
		<polygon fill="#999999" points="8,55.6 8,56.2 40,72.2 48,68.2 48,67.6 16,51.6 		"/>
		<polygon opacity="0.11" points="40,72.2 8,56.2 8,55.6 40,71.6 		"/>
		<polygon opacity="0.29" points="40,72.2 48,68.2 48,67.6 40,71.6 		"/>
	</g>
	<g>
		<polygon fill="#FFCC00" points="23.4,48.2 23.4,55.6 16,59.3 8.6,55.6 8.6,48.2 16,44.5 		"/>
		<polygon opacity="0.29" points="16,59.3 23.4,55.6 23.4,48.2 16,51.9 		"/>
		<polygon opacity="0.3" points="18.8,45.9 20.6,46.8 13.2,50.5 13.2,54.1 11.4,53.2 11.4,49.6 		"/>
		<polygon opacity="0.11" points="16,59.3 8.6,55.6 8.6,48.2 16,51.9 		"/>
	</g>
	<g>
		<polygon fill="#FFCC00" points="31.4,52.2 31.4,59.6 24,63.3 16.6,59.6 16.6,52.2 24,48.5 		"/>
		<polygon opacity="0.29" points="24,63.3 31.4,59.6 31.4,52.2 24,55.9 		"/>
		<polygon opacity="0.3" points="26.8,49.9 28.6,50.8 21.2,54.5 21.2,58.1 19.4,57.2 19.4,53.6 		"/>
		<polygon opacity="0.11" points="24,63.3 16.6,59.6 16.6,52.2 24,55.9 		"/>
	</g>
	<g>
		<polygon fill="#FFCC00" points="39.4,56.2 39.4,63.6 32,67.3 24.6,63.6 24.6,56.2 32,52.5 		"/>
		<polygon opacity="0.29" points="32,67.3 39.4,63.6 39.4,56.2 32,59.9 		"/>
		<polygon opacity="0.3" points="34.8,53.9 36.6,54.8 29.2,58.5 29.2,62.1 27.4,61.2 27.4,57.6 		"/>
		<polygon opacity="0.11" points="32,67.3 24.6,63.6 24.6,56.2 32,59.9 		"/>
	</g>
	<g>
		<polygon fill="#FFCC00" points="47.4,60.2 47.4,67.6 40,71.3 32.6,67.6 32.6,60.2 40,56.5 		"/>
		<polygon opacity="0.29" points="40,71.3 47.4,67.6 47.4,60.2 40,63.9 		"/>
		<polygon opacity="0.3" points="42.8,57.9 44.6,58.8 37.2,62.5 37.2,66.1 35.4,65.2 35.4,61.6 		"/>
		<polygon opacity="0.11" points="40,71.3 32.6,67.6 32.6,60.2 40,63.9 		"/>
	</g>
	<g>
		<polygon fill="#999999" points="8,47.6 8,48.2 40,64.2 48,60.2 48,59.6 16,43.6 		"/>
		<polygon opacity="0.11" points="40,64.2 8,48.2 8,47.6 40,63.6 		"/>
		<polygon opacity="0.29" points="40,64.2 48,60.2 48,59.6 40,63.6 		"/>
	</g>
	<g>
		<polygon fill="#FFCC00" points="39.4,48.2 39.4,55.6 32,59.3 24.6,55.6 24.6,48.2 32,44.5 		"/>
		<polygon opacity="0.29" points="32,59.3 39.4,55.6 39.4,48.2 32,51.9 		"/>
		<polygon opacity="0.3" points="34.8,45.9 36.6,46.8 29.2,50.5 29.2,54.1 27.4,53.2 27.4,49.6 		"/>
		<polygon opacity="0.11" points="32,59.3 24.6,55.6 24.6,48.2 32,51.9 		"/>
	</g>
	<g>
		<polygon fill="#FFCC00" points="47.4,52.2 47.4,59.6 40,63.3 32.6,59.6 32.6,52.2 40,48.5 		"/>
		<polygon opacity="0.29" points="40,63.3 47.4,59.6 47.4,52.2 40,55.9 		"/>
		<polygon opacity="0.3" points="42.8,49.9 44.6,50.8 37.2,54.5 37.2,58.1 35.4,57.2 35.4,53.6 		"/>
		<polygon opacity="0.11" points="40,63.3 32.6,59.6 32.6,52.2 40,55.9 		"/>
	</g>
	<g>
		<polygon fill="#3366CC" points="41.1,62.9 48,53.6 48,53 47.4,52.7 41.1,61.4 		"/>
		<polygon opacity="0.29" points="41.1,62.9 48,53.6 48,53 41.1,62.3 		"/>
	</g>
	<g>
		<polygon fill="#3366CC" points="41.1,70.9 48,61.6 48,61 47.4,60.7 41.1,69.4 		"/>
		<polygon opacity="0.29" points="41.1,70.9 48,61.6 48,61 41.1,70.3 		"/>
	</g>
	<g>
		<polygon fill="#999999" points="8,39.6 8,40.2 40,56.2 48,52.2 48,51.6 16,35.6 		"/>
		<polygon opacity="0.11" points="40,56.2 8,40.2 8,39.6 40,55.6 		"/>
		<polygon opacity="0.29" points="40,56.2 48,52.2 48,51.6 40,55.6 		"/>
	</g>
	<g>
		<polygon fill="#FFCC00" points="23.4,32.2 23.4,39.6 16,43.3 8.6,39.6 8.6,32.2 16,28.5 		"/>
		<polygon opacity="0.29" points="16,43.3 23.4,39.6 23.4,32.2 16,35.9 		"/>
		<polygon opacity="0.3" points="18.8,29.9 20.6,30.8 13.2,34.5 13.2,38.1 11.4,37.2 11.4,33.6 		"/>
		<polygon opacity="0.11" points="16,43.3 8.6,39.6 8.6,32.2 16,35.9 		"/>
	</g>
	<g>
		<polygon fill="#FFCC00" points="31.4,36.2 31.4,43.6 24,47.3 16.6,43.6 16.6,36.2 24,32.5 		"/>
		<polygon opacity="0.29" points="24,47.3 31.4,43.6 31.4,36.2 24,39.9 		"/>
		<polygon opacity="0.3" points="26.8,33.9 28.6,34.8 21.2,38.5 21.2,42.1 19.4,41.2 19.4,37.6 		"/>
		<polygon opacity="0.11" points="24,47.3 16.6,43.6 16.6,36.2 24,39.9 		"/>
	</g>
	<g>
		<polygon fill="#3366CC" points="41.1,55 48,45.7 48,45.1 47.4,44.8 41.1,53.5 		"/>
		<polygon opacity="0.29" points="41.1,55 48,45.7 48,45.1 41.1,54.4 		"/>
	</g>
	<g>
		<polygon fill="#3366CC" points="9.1,22.9 16,13.6 16,13 15.4,12.7 9.1,21.4 		"/>
		<polygon opacity="0.29" points="9.1,22.9 16,13.6 16,13 9.1,22.3 		"/>
	</g>
	<g>
		<polygon fill="#3366CC" points="9.1,30.9 16,21.6 16,21 15.4,20.7 9.1,29.4 		"/>
		<polygon opacity="0.29" points="9.1,30.9 16,21.6 16,21 9.1,30.3 		"/>
	</g>
	<g>
		<polygon fill="#999999" points="8,31.6 8,32.2 40,48.2 48,44.2 48,43.6 16,27.6 		"/>
		<polygon opacity="0.11" points="40,48.2 8,32.2 8,31.6 40,47.6 		"/>
		<polygon opacity="0.29" points="40,48.2 48,44.2 48,43.6 40,47.6 		"/>
	</g>
	<g>
		<polygon fill="#FFCC00" points="23.4,24.2 23.4,31.6 16,35.3 8.6,31.6 8.6,24.2 16,20.5 		"/>
		<polygon opacity="0.29" points="16,35.3 23.4,31.6 23.4,24.2 16,27.9 		"/>
		<polygon opacity="0.3" points="18.8,21.9 20.6,22.8 13.2,26.5 13.2,30.1 11.4,29.2 11.4,25.6 		"/>
		<polygon opacity="0.11" points="16,35.3 8.6,31.6 8.6,24.2 16,27.9 		"/>
	</g>
	<g>
		<polygon fill="#FFCC00" points="47.4,36.2 47.4,43.6 40,47.3 32.6,43.6 32.6,36.2 40,32.5 		"/>
		<polygon opacity="0.29" points="40,47.3 47.4,43.6 47.4,36.2 40,39.9 		"/>
		<polygon opacity="0.3" points="42.8,33.9 44.6,34.8 37.2,38.5 37.2,42.1 35.4,41.2 35.4,37.6 		"/>
		<polygon opacity="0.11" points="40,47.3 32.6,43.6 32.6,36.2 40,39.9 		"/>
	</g>
	<g>
		<polygon fill="#999999" points="8,23.6 8,24.2 40,40.2 48,36.2 48,35.6 16,19.6 		"/>
		<polygon opacity="0.11" points="40,40.2 8,24.2 8,23.6 40,39.6 		"/>
		<polygon opacity="0.29" points="40,40.2 48,36.2 48,35.6 40,39.6 		"/>
	</g>
	<g>
		<polygon fill="#FFCC00" points="23.4,16.2 23.4,23.6 16,27.3 8.6,23.6 8.6,16.2 16,12.5 		"/>
		<polygon opacity="0.29" points="16,27.3 23.4,23.6 23.4,16.2 16,19.9 		"/>
		<polygon opacity="0.3" points="18.8,13.9 20.6,14.8 13.2,18.5 13.2,22.1 11.4,21.2 11.4,17.6 		"/>
		<polygon opacity="0.11" points="16,27.3 8.6,23.6 8.6,16.2 16,19.9 		"/>
	</g>
	<g>
		<polygon fill="#FFCC00" points="31.4,20.2 31.4,27.6 24,31.3 16.6,27.6 16.6,20.2 24,16.5 		"/>
		<polygon opacity="0.29" points="24,31.3 31.4,27.6 31.4,20.2 24,23.9 		"/>
		<polygon opacity="0.3" points="26.8,17.9 28.6,18.8 21.2,22.5 21.2,26.1 19.4,25.2 19.4,21.6 		"/>
		<polygon opacity="0.11" points="24,31.3 16.6,27.6 16.6,20.2 24,23.9 		"/>
	</g>
	<g>
		<polygon fill="#3366CC" points="41.1,38.9 48,29.6 48,29 47.4,28.7 41.1,37.4 		"/>
		<polygon opacity="0.29" points="41.1,38.9 48,29.6 48,29 41.1,38.3 		"/>
	</g>
	<g>
		<polygon fill="#3366CC" points="41.1,46.9 48,37.6 48,37 47.4,36.7 41.1,45.4 		"/>
		<polygon opacity="0.29" points="41.1,46.9 48,37.6 48,37 41.1,46.3 		"/>
	</g>
	<g>
		<polygon fill="#3366CC" points="38.8,32 38.8,96 40,96.6 41.2,96 41.2,32 40,31.4 		"/>
		<polygon opacity="0.11" points="40,96.6 38.8,96 38.8,32 40,32.6 		"/>
		<polygon opacity="0.29" points="40,96.6 41.2,96 41.2,32 40,32.6 		"/>
	</g>
</g>
<g>
	<g>
		<polygon fill="#3366CC" points="54.8,24 54.8,88 56,88.6 57.2,88 57.2,24 56,23.4 		"/>
		<polygon opacity="0.11" points="56,88.6 54.8,88 54.8,24 56,24.6 		"/>
		<polygon opacity="0.29" points="56,88.6 57.2,88 57.2,24 56,24.6 		"/>
	</g>
	<g>
		<polygon fill="#3366CC" points="86.8,40 86.8,104 88,104.6 89.2,104 89.2,40 88,39.4 		"/>
		<polygon opacity="0.11" points="88,104.6 86.8,104 86.8,40 88,40.6 		"/>
		<polygon opacity="0.29" points="88,104.6 89.2,104 89.2,40 88,40.6 		"/>
	</g>
	<g>
		<polygon fill="#3366CC" points="46.8,28 46.8,92 48,92.6 49.2,92 49.2,28 48,27.4 		"/>
		<polygon opacity="0.11" points="48,92.6 46.8,92 46.8,28 48,28.6 		"/>
		<polygon opacity="0.29" points="48,92.6 49.2,92 49.2,28 48,28.6 		"/>
	</g>
	<g>
		<polygon fill="#999999" points="48,91.6 48,92.2 80,108.2 88,104.2 88,103.6 56,87.6 		"/>
		<polygon opacity="0.11" points="80,108.2 48,92.2 48,91.6 80,107.6 		"/>
		<polygon opacity="0.29" points="80,108.2 88,104.2 88,103.6 80,107.6 		"/>
	</g>
	<g>
		<polygon fill="#FFCC00" points="63.4,84.2 63.4,91.6 56,95.3 48.6,91.6 48.6,84.2 56,80.5 		"/>
		<polygon opacity="0.29" points="56,95.3 63.4,91.6 63.4,84.2 56,87.9 		"/>
		<polygon opacity="0.3" points="58.8,81.9 60.6,82.8 53.2,86.5 53.2,90.1 51.4,89.2 51.4,85.6 		"/>
		<polygon opacity="0.11" points="56,95.3 48.6,91.6 48.6,84.2 56,87.9 		"/>
	</g>
	<g>
		<polygon fill="#FFCC00" points="71.4,88.2 71.4,95.6 64,99.3 56.6,95.6 56.6,88.2 64,84.5 		"/>
		<polygon opacity="0.29" points="64,99.3 71.4,95.6 71.4,88.2 64,91.9 		"/>
		<polygon opacity="0.3" points="66.8,85.9 68.6,86.8 61.2,90.5 61.2,94.1 59.4,93.2 59.4,89.6 		"/>
		<polygon opacity="0.11" points="64,99.3 56.6,95.6 56.6,88.2 64,91.9 		"/>
	</g>
	<g>
		<polygon fill="#FFCC00" points="79.4,92.2 79.4,99.6 72,103.3 64.6,99.6 64.6,92.2 72,88.5 		"/>
		<polygon opacity="0.29" points="72,103.3 79.4,99.6 79.4,92.2 72,95.9 		"/>
		<polygon opacity="0.3" points="74.8,89.9 76.6,90.8 69.2,94.5 69.2,98.1 67.4,97.2 67.4,93.6 		"/>
		<polygon opacity="0.11" points="72,103.3 64.6,99.6 64.6,92.2 72,95.9 		"/>
	</g>
	<g>
		<polygon fill="#999999" points="48,83.6 48,84.2 80,100.2 88,96.2 88,95.6 56,79.6 		"/>
		<polygon opacity="0.11" points="80,100.2 48,84.2 48,83.6 80,99.6 		"/>
		<polygon opacity="0.29" points="80,100.2 88,96.2 88,95.6 80,99.6 		"/>
	</g>
	<g>
		<polygon fill="#FFCC00" points="63.4,76.2 63.4,83.6 56,87.3 48.6,83.6 48.6,76.2 56,72.5 		"/>
		<polygon opacity="0.29" points="56,87.3 63.4,83.6 63.4,76.2 56,79.9 		"/>
		<polygon opacity="0.3" points="58.8,73.9 60.6,74.8 53.2,78.5 53.2,82.1 51.4,81.2 51.4,77.6 		"/>
		<polygon opacity="0.11" points="56,87.3 48.6,83.6 48.6,76.2 56,79.9 		"/>
	</g>
	<g>
		<polygon fill="#FFCC00" points="71.4,80.2 71.4,87.6 64,91.3 56.6,87.6 56.6,80.2 64,76.5 		"/>
		<polygon opacity="0.29" points="64,91.3 71.4,87.6 71.4,80.2 64,83.9 		"/>
		<polygon opacity="0.3" points="66.8,77.9 68.6,78.8 61.2,82.5 61.2,86.1 59.4,85.2 59.4,81.6 		"/>
		<polygon opacity="0.11" points="64,91.3 56.6,87.6 56.6,80.2 64,83.9 		"/>
	</g>
	<g>
		<polygon fill="#FFCC00" points="87.4,88.2 87.4,95.6 80,99.3 72.6,95.6 72.6,88.2 80,84.5 		"/>
		<polygon opacity="0.29" points="80,99.3 87.4,95.6 87.4,88.2 80,91.9 		"/>
		<polygon opacity="0.3" points="82.8,85.9 84.6,86.8 77.2,90.5 77.2,94.1 75.4,93.2 75.4,89.6 		"/>
		<polygon opacity="0.11" points="80,99.3 72.6,95.6 72.6,88.2 80,91.9 		"/>
	</g>
	<g>
		<polygon fill="#3366CC" points="81.1,98.9 88,89.6 88,89 87.4,88.7 81.1,97.4 		"/>
		<polygon opacity="0.29" points="81.1,98.9 88,89.6 88,89 81.1,98.3 		"/>
	</g>
	<g>
		<polygon fill="#3366CC" points="81.1,106.9 88,97.6 88,97 87.4,96.7 81.1,105.4 		"/>
		<polygon opacity="0.29" points="81.1,106.9 88,97.6 88,97 81.1,106.3 		"/>
	</g>
	<g>
		<polygon fill="#999999" points="48,75.6 48,76.2 80,92.2 88,88.2 88,87.6 56,71.6 		"/>
		<polygon opacity="0.11" points="80,92.2 48,76.2 48,75.6 80,91.6 		"/>
		<polygon opacity="0.29" points="80,92.2 88,88.2 88,87.6 80,91.6 		"/>
	</g>
	<g>
		<polygon fill="#FFCC00" points="79.4,76.2 79.4,83.6 72,87.3 64.6,83.6 64.6,76.2 72,72.5 		"/>
		<polygon opacity="0.29" points="72,87.3 79.4,83.6 79.4,76.2 72,79.9 		"/>
		<polygon opacity="0.3" points="74.8,73.9 76.6,74.8 69.2,78.5 69.2,82.1 67.4,81.2 67.4,77.6 		"/>
		<polygon opacity="0.11" points="72,87.3 64.6,83.6 64.6,76.2 72,79.9 		"/>
	</g>
	<g>
		<polygon fill="#FFCC00" points="87.4,80.2 87.4,87.6 80,91.3 72.6,87.6 72.6,80.2 80,76.5 		"/>
		<polygon opacity="0.29" points="80,91.3 87.4,87.6 87.4,80.2 80,83.9 		"/>
		<polygon opacity="0.3" points="82.8,77.9 84.6,78.8 77.2,82.5 77.2,86.1 75.4,85.2 75.4,81.6 		"/>
		<polygon opacity="0.11" points="80,91.3 72.6,87.6 72.6,80.2 80,83.9 		"/>
	</g>
	<g>
		<polygon fill="#3366CC" points="81.1,91 88,81.7 88,81.1 87.4,80.8 81.1,89.5 		"/>
		<polygon opacity="0.29" points="81.1,91 88,81.7 88,81.1 81.1,90.4 		"/>
	</g>
	<g>
		<polygon fill="#999999" points="48,67.6 48,68.2 80,84.2 88,80.2 88,79.6 56,63.6 		"/>
		<polygon opacity="0.11" points="80,84.2 48,68.2 48,67.6 80,83.6 		"/>
		<polygon opacity="0.29" points="80,84.2 88,80.2 88,79.6 80,83.6 		"/>
	</g>
	<g>
		<polygon fill="#FFCC00" points="63.4,60.2 63.4,67.6 56,71.3 48.6,67.6 48.6,60.2 56,56.5 		"/>
		<polygon opacity="0.29" points="56,71.3 63.4,67.6 63.4,60.2 56,63.9 		"/>
		<polygon opacity="0.3" points="58.8,57.9 60.6,58.8 53.2,62.5 53.2,66.1 51.4,65.2 51.4,61.6 		"/>
		<polygon opacity="0.11" points="56,71.3 48.6,67.6 48.6,60.2 56,63.9 		"/>
	</g>
	<g>
		<polygon fill="#FFCC00" points="71.4,64.2 71.4,71.6 64,75.3 56.6,71.6 56.6,64.2 64,60.5 		"/>
		<polygon opacity="0.29" points="64,75.3 71.4,71.6 71.4,64.2 64,67.9 		"/>
		<polygon opacity="0.3" points="66.8,61.9 68.6,62.8 61.2,66.5 61.2,70.1 59.4,69.2 59.4,65.6 		"/>
		<polygon opacity="0.11" points="64,75.3 56.6,71.6 56.6,64.2 64,67.9 		"/>
	</g>
	<g>
		<polygon fill="#999999" points="48,59.6 48,60.2 80,76.2 88,72.2 88,71.6 56,55.6 		"/>
		<polygon opacity="0.11" points="80,76.2 48,60.2 48,59.6 80,75.6 		"/>
		<polygon opacity="0.29" points="80,76.2 88,72.2 88,71.6 80,75.6 		"/>
	</g>
	<g>
		<polygon fill="#FFCC00" points="63.4,52.2 63.4,59.6 56,63.3 48.6,59.6 48.6,52.2 56,48.5 		"/>
		<polygon opacity="0.29" points="56,63.3 63.4,59.6 63.4,52.2 56,55.9 		"/>
		<polygon opacity="0.3" points="58.8,49.9 60.6,50.8 53.2,54.5 53.2,58.1 51.4,57.2 51.4,53.6 		"/>
		<polygon opacity="0.11" points="56,63.3 48.6,59.6 48.6,52.2 56,55.9 		"/>
	</g>
	<g>
		<polygon fill="#FFCC00" points="87.4,64.2 87.4,71.6 80,75.3 72.6,71.6 72.6,64.2 80,60.5 		"/>
		<polygon opacity="0.29" points="80,75.3 87.4,71.6 87.4,64.2 80,67.9 		"/>
		<polygon opacity="0.3" points="82.8,61.9 84.6,62.8 77.2,66.5 77.2,70.1 75.4,69.2 75.4,65.6 		"/>
		<polygon opacity="0.11" points="80,75.3 72.6,71.6 72.6,64.2 80,67.9 		"/>
	</g>
	<g>
		<polygon fill="#3366CC" points="81.1,74.9 88,65.6 88,65 87.4,64.7 81.1,73.4 		"/>
		<polygon opacity="0.29" points="81.1,74.9 88,65.6 88,65 81.1,74.3 		"/>
	</g>
	<g>
		<polygon fill="#3366CC" points="81.1,82.9 88,73.6 88,73 87.4,72.7 81.1,81.4 		"/>
		<polygon opacity="0.29" points="81.1,82.9 88,73.6 88,73 81.1,82.3 		"/>
	</g>
	<g>
		<polygon fill="#999999" points="48,51.6 48,52.2 80,68.2 88,64.2 88,63.6 56,47.6 		"/>
		<polygon opacity="0.11" points="80,68.2 48,52.2 48,51.6 80,67.6 		"/>
		<polygon opacity="0.29" points="80,68.2 88,64.2 88,63.6 80,67.6 		"/>
	</g>
	<g>
		<polygon fill="#FFCC00" points="71.4,48.2 71.4,55.6 64,59.3 56.6,55.6 56.6,48.2 64,44.5 		"/>
		<polygon opacity="0.29" points="64,59.3 71.4,55.6 71.4,48.2 64,51.9 		"/>
		<polygon opacity="0.3" points="66.8,45.9 68.6,46.8 61.2,50.5 61.2,54.1 59.4,53.2 59.4,49.6 		"/>
		<polygon opacity="0.11" points="64,59.3 56.6,55.6 56.6,48.2 64,51.9 		"/>
	</g>
	<g>
		<polygon fill="#3366CC" points="81.3,67.2 87.8,57.5 87.8,56.9 87.2,56.7 81.3,65.7 		"/>
		<polygon opacity="0.29" points="81.3,67.2 87.8,57.5 87.8,56.9 81.3,66.6 		"/>
	</g>
	<g>
		<polygon fill="#3366CC" points="49.1,34.9 56,25.6 56,25 55.4,24.7 49.1,33.4 		"/>
		<polygon opacity="0.29" points="49.1,34.9 56,25.6 56,25 49.1,34.3 		"/>
	</g>
	<g>
		<polygon fill="#999999" points="48,43.6 48,44.2 80,60.2 88,56.2 88,55.6 56,39.6 		"/>
		<polygon opacity="0.11" points="80,60.2 48,44.2 48,43.6 80,59.6 		"/>
		<polygon opacity="0.29" points="80,60.2 88,56.2 88,55.6 80,59.6 		"/>
	</g>
	<g>
		<polygon fill="#FFCC00" points="87.4,48.2 87.4,55.6 80,59.3 72.6,55.6 72.6,48.2 80,44.5 		"/>
		<polygon opacity="0.29" points="80,59.3 87.4,55.6 87.4,48.2 80,51.9 		"/>
		<polygon opacity="0.3" points="82.8,45.9 84.6,46.8 77.2,50.5 77.2,54.1 75.4,53.2 75.4,49.6 		"/>
		<polygon opacity="0.11" points="80,59.3 72.6,55.6 72.6,48.2 80,51.9 		"/>
	</g>
	<g>
		<polygon fill="#999999" points="48,35.6 48,36.2 80,52.2 88,48.2 88,47.6 56,31.6 		"/>
		<polygon opacity="0.11" points="80,52.2 48,36.2 48,35.6 80,51.6 		"/>
		<polygon opacity="0.29" points="80,52.2 88,48.2 88,47.6 80,51.6 		"/>
	</g>
	<g>
		<polygon fill="#FFCC00" points="79.4,36.2 79.4,43.6 72,47.3 64.6,43.6 64.6,36.2 72,32.5 		"/>
		<polygon opacity="0.29" points="72,47.3 79.4,43.6 79.4,36.2 72,39.9 		"/>
		<polygon opacity="0.3" points="74.8,33.9 76.6,34.8 69.2,38.5 69.2,42.1 67.4,41.2 67.4,37.6 		"/>
		<polygon opacity="0.11" points="72,47.3 64.6,43.6 64.6,36.2 72,39.9 		"/>
	</g>
	<g>
		<polygon fill="#FFCC00" points="87.4,40.2 87.4,47.6 80,51.3 72.6,47.6 72.6,40.2 80,36.5 		"/>
		<polygon opacity="0.29" points="80,51.3 87.4,47.6 87.4,40.2 80,43.9 		"/>
		<polygon opacity="0.3" points="82.8,37.9 84.6,38.8 77.2,42.5 77.2,46.1 75.4,45.2 75.4,41.6 		"/>
		<polygon opacity="0.11" points="80,51.3 72.6,47.6 72.6,40.2 80,43.9 		"/>
	</g>
	<g>
		<polygon fill="#3366CC" points="81.1,50.9 88,41.6 88,41 87.4,40.7 81.1,49.4 		"/>
		<polygon opacity="0.29" points="81.1,50.9 88,41.6 88,41 81.1,50.3 		"/>
	</g>
	<g>
		<polygon fill="#3366CC" points="81.1,58.9 88,49.6 88,49 87.4,48.7 81.1,57.4 		"/>
		<polygon opacity="0.29" points="81.1,58.9 88,49.6 88,49 81.1,58.3 		"/>
	</g>
	<g>
		<polygon fill="#3366CC" points="78.8,44 78.8,108 80,108.6 81.2,108 81.2,44 80,43.4 		"/>
		<polygon opacity="0.11" points="80,108.6 78.8,108 78.8,44 80,44.6 		"/>
		<polygon opacity="0.29" points="80,108.6 81.2,108 81.2,44 80,44.6 		"/>
	</g>
</g>
<g>
	<g>
		<polygon fill="#3366CC" points="78.8,44 78.8,108 80,108.6 81.2,108 81.2,44 80,43.4 		"/>
		<polygon opacity="0.11" points="80,108.6 78.8,108 78.8,44 80,44.6 		"/>
		<polygon opacity="0.29" points="80,108.6 81.2,108 81.2,44 80,44.6 		"/>
	</g>
	<g>
		<polygon fill="#999999" points="40,95.6 40,96.2 72,112.2 80,108.2 80,107.6 48,91.6 		"/>
		<polygon opacity="0.11" points="72,112.2 40,96.2 40,95.6 72,111.6 		"/>
		<polygon opacity="0.29" points="72,112.2 80,108.2 80,107.6 72,111.6 		"/>
	</g>
	<g>
		<polygon fill="#FFCC00" points="55.4,88.2 55.4,95.6 48,99.3 40.6,95.6 40.6,88.2 48,84.5 		"/>
		<polygon opacity="0.29" points="48,99.3 55.4,95.6 55.4,88.2 48,91.9 		"/>
		<polygon opacity="0.3" points="50.8,85.9 52.6,86.8 45.2,90.5 45.2,94.1 43.4,93.2 43.4,89.6 		"/>
		<polygon opacity="0.11" points="48,99.3 40.6,95.6 40.6,88.2 48,91.9 		"/>
	</g>
	<g>
		<polygon fill="#FFCC00" points="63.4,92.2 63.4,99.6 56,103.3 48.6,99.6 48.6,92.2 56,88.5 		"/>
		<polygon opacity="0.29" points="56,103.3 63.4,99.6 63.4,92.2 56,95.9 		"/>
		<polygon opacity="0.3" points="58.8,89.9 60.6,90.8 53.2,94.5 53.2,98.1 51.4,97.2 51.4,93.6 		"/>
		<polygon opacity="0.11" points="56,103.3 48.6,99.6 48.6,92.2 56,95.9 		"/>
	</g>
	<g>
		<polygon fill="#FFCC00" points="71.4,96.2 71.4,103.6 64,107.3 56.6,103.6 56.6,96.2 64,92.5 		"/>
		<polygon opacity="0.29" points="64,107.3 71.4,103.6 71.4,96.2 64,99.9 		"/>
		<polygon opacity="0.3" points="66.8,93.9 68.6,94.8 61.2,98.5 61.2,102.1 59.4,101.2 59.4,97.6 		"/>
		<polygon opacity="0.11" points="64,107.3 56.6,103.6 56.6,96.2 64,99.9 		"/>
	</g>
	<g>
		<polygon fill="#FFCC00" points="79.4,100.2 79.4,107.6 72,111.3 64.6,107.6 64.6,100.2 72,96.5 		"/>
		<polygon opacity="0.29" points="72,111.3 79.4,107.6 79.4,100.2 72,103.9 		"/>
		<polygon opacity="0.3" points="74.8,97.9 76.6,98.8 69.2,102.5 69.2,106.1 67.4,105.2 67.4,101.6 		"/>
		<polygon opacity="0.11" points="72,111.3 64.6,107.6 64.6,100.2 72,103.9 		"/>
	</g>
	<g>
		<polygon fill="#999999" points="40,87.6 40,88.2 72,104.2 80,100.2 80,99.6 48,83.6 		"/>
		<polygon opacity="0.11" points="72,104.2 40,88.2 40,87.6 72,103.6 		"/>
		<polygon opacity="0.29" points="72,104.2 80,100.2 80,99.6 72,103.6 		"/>
	</g>
	<g>
		<polygon fill="#FFCC00" points="71.4,88.2 71.4,95.6 64,99.3 56.6,95.6 56.6,88.2 64,84.5 		"/>
		<polygon opacity="0.29" points="64,99.3 71.4,95.6 71.4,88.2 64,91.9 		"/>
		<polygon opacity="0.3" points="66.8,85.9 68.6,86.8 61.2,90.5 61.2,94.1 59.4,93.2 59.4,89.6 		"/>
		<polygon opacity="0.11" points="64,99.3 56.6,95.6 56.6,88.2 64,91.9 		"/>
	</g>
	<g>
		<polygon fill="#FFCC00" points="79.4,92.2 79.4,99.6 72,103.3 64.6,99.6 64.6,92.2 72,88.5 		"/>
		<polygon opacity="0.29" points="72,103.3 79.4,99.6 79.4,92.2 72,95.9 		"/>
		<polygon opacity="0.3" points="74.8,89.9 76.6,90.8 69.2,94.5 69.2,98.1 67.4,97.2 67.4,93.6 		"/>
		<polygon opacity="0.11" points="72,103.3 64.6,99.6 64.6,92.2 72,95.9 		"/>
	</g>
	<g>
		<polygon fill="#3366CC" points="73.1,102.9 80,93.6 80,93 79.4,92.7 73.1,101.4 		"/>
		<polygon opacity="0.29" points="73.1,102.9 80,93.6 80,93 73.1,102.3 		"/>
	</g>
	<g>
		<polygon fill="#3366CC" points="73.1,110.9 80,101.6 80,101 79.4,100.7 73.1,109.4 		"/>
		<polygon opacity="0.29" points="73.1,110.9 80,101.6 80,101 73.1,110.3 		"/>
	</g>
	<g>
		<polygon fill="#999999" points="40,79.6 40,80.2 72,96.2 80,92.2 80,91.6 48,75.6 		"/>
		<polygon opacity="0.11" points="72,96.2 40,80.2 40,79.6 72,95.6 		"/>
		<polygon opacity="0.29" points="72,96.2 80,92.2 80,91.6 72,95.6 		"/>
	</g>
	<g>
		<polygon fill="#FFCC00" points="55.4,72.2 55.4,79.6 48,83.3 40.6,79.6 40.6,72.2 48,68.5 		"/>
		<polygon opacity="0.29" points="48,83.3 55.4,79.6 55.4,72.2 48,75.9 		"/>
		<polygon opacity="0.3" points="50.8,69.9 52.6,70.8 45.2,74.5 45.2,78.1 43.4,77.2 43.4,73.6 		"/>
		<polygon opacity="0.11" points="48,83.3 40.6,79.6 40.6,72.2 48,75.9 		"/>
	</g>
	<g>
		<polygon fill="#FFCC00" points="79.4,84.2 79.4,91.6 72,95.3 64.6,91.6 64.6,84.2 72,80.5 		"/>
		<polygon opacity="0.29" points="72,95.3 79.4,91.6 79.4,84.2 72,87.9 		"/>
		<polygon opacity="0.3" points="74.8,81.9 76.6,82.8 69.2,86.5 69.2,90.1 67.4,89.2 67.4,85.6 		"/>
		<polygon opacity="0.11" points="72,95.3 64.6,91.6 64.6,84.2 72,87.9 		"/>
	</g>
	<g>
		<polygon fill="#3366CC" points="73.1,95 80,85.7 80,85.1 79.4,84.8 73.1,93.5 		"/>
		<polygon opacity="0.29" points="73.1,95 80,85.7 80,85.1 73.1,94.4 		"/>
	</g>
	<g>
		<polygon fill="#999999" points="40,71.6 40,72.2 72,88.2 80,84.2 80,83.6 48,67.6 		"/>
		<polygon opacity="0.11" points="72,88.2 40,72.2 40,71.6 72,87.6 		"/>
		<polygon opacity="0.29" points="72,88.2 80,84.2 80,83.6 72,87.6 		"/>
	</g>
	<g>
		<polygon fill="#FFCC00" points="55.4,64.2 55.4,71.6 48,75.3 40.6,71.6 40.6,64.2 48,60.5 		"/>
		<polygon opacity="0.29" points="48,75.3 55.4,71.6 55.4,64.2 48,67.9 		"/>
		<polygon opacity="0.3" points="50.8,61.9 52.6,62.8 45.2,66.5 45.2,70.1 43.4,69.2 43.4,65.6 		"/>
		<polygon opacity="0.11" points="48,75.3 40.6,71.6 40.6,64.2 48,67.9 		"/>
	</g>
	<g>
		<polygon fill="#FFCC00" points="63.4,68.2 63.4,75.6 56,79.3 48.6,75.6 48.6,68.2 56,64.5 		"/>
		<polygon opacity="0.29" points="56,79.3 63.4,75.6 63.4,68.2 56,71.9 		"/>
		<polygon opacity="0.3" points="58.8,65.9 60.6,66.8 53.2,70.5 53.2,74.1 51.4,73.2 51.4,69.6 		"/>
		<polygon opacity="0.11" points="56,79.3 48.6,75.6 48.6,68.2 56,71.9 		"/>
	</g>
	<g>
		<polygon fill="#999999" points="40,63.6 40,64.2 72,80.2 80,76.2 80,75.6 48,59.6 		"/>
		<polygon opacity="0.11" points="72,80.2 40,64.2 40,63.6 72,79.6 		"/>
		<polygon opacity="0.29" points="72,80.2 80,76.2 80,75.6 72,79.6 		"/>
	</g>
	<g>
		<polygon fill="#FFCC00" points="55.4,56.2 55.4,63.6 48,67.3 40.6,63.6 40.6,56.2 48,52.5 		"/>
		<polygon opacity="0.29" points="48,67.3 55.4,63.6 55.4,56.2 48,59.9 		"/>
		<polygon opacity="0.3" points="50.8,53.9 52.6,54.8 45.2,58.5 45.2,62.1 43.4,61.2 43.4,57.6 		"/>
		<polygon opacity="0.11" points="48,67.3 40.6,63.6 40.6,56.2 48,59.9 		"/>
	</g>
	<g>
		<polygon fill="#FFCC00" points="79.4,68.2 79.4,75.6 72,79.3 64.6,75.6 64.6,68.2 72,64.5 		"/>
		<polygon opacity="0.29" points="72,79.3 79.4,75.6 79.4,68.2 72,71.9 		"/>
		<polygon opacity="0.3" points="74.8,65.9 76.6,66.8 69.2,70.5 69.2,74.1 67.4,73.2 67.4,69.6 		"/>
		<polygon opacity="0.11" points="72,79.3 64.6,75.6 64.6,68.2 72,71.9 		"/>
	</g>
	<g>
		<polygon fill="#3366CC" points="73.1,78.9 80,69.6 80,69 79.4,68.7 73.1,77.4 		"/>
		<polygon opacity="0.29" points="73.1,78.9 80,69.6 80,69 73.1,78.3 		"/>
	</g>
	<g>
		<polygon fill="#3366CC" points="73.1,86.9 80,77.6 80,77 79.4,76.7 73.1,85.4 		"/>
		<polygon opacity="0.29" points="73.1,86.9 80,77.6 80,77 73.1,86.3 		"/>
	</g>
	<g>
		<polygon fill="#999999" points="40,55.6 40,56.2 72,72.2 80,68.2 80,67.6 48,51.6 		"/>
		<polygon opacity="0.11" points="72,72.2 40,56.2 40,55.6 72,71.6 		"/>
		<polygon opacity="0.29" points="72,72.2 80,68.2 80,67.6 72,71.6 		"/>
	</g>
	<g>
		<polygon fill="#FFCC00" points="71.4,56.2 71.4,63.6 64,67.3 56.6,63.6 56.6,56.2 64,52.5 		"/>
		<polygon opacity="0.29" points="64,67.3 71.4,63.6 71.4,56.2 64,59.9 		"/>
		<polygon opacity="0.3" points="66.8,53.9 68.6,54.8 61.2,58.5 61.2,62.1 59.4,61.2 59.4,57.6 		"/>
		<polygon opacity="0.11" points="64,67.3 56.6,63.6 56.6,56.2 64,59.9 		"/>
	</g>
	<g>
		<polygon fill="#FFCC00" points="79.4,60.2 79.4,67.6 72,71.3 64.6,67.6 64.6,60.2 72,56.5 		"/>
		<polygon opacity="0.29" points="72,71.3 79.4,67.6 79.4,60.2 72,63.9 		"/>
		<polygon opacity="0.3" points="74.8,57.9 76.6,58.8 69.2,62.5 69.2,66.1 67.4,65.2 67.4,61.6 		"/>
		<polygon opacity="0.11" points="72,71.3 64.6,67.6 64.6,60.2 72,63.9 		"/>
	</g>
	<g>
		<polygon fill="#3366CC" points="73.1,71 80,61.7 80,61.1 79.4,60.8 73.1,69.5 		"/>
		<polygon opacity="0.29" points="73.1,71 80,61.7 80,61.1 73.1,70.4 		"/>
	</g>
	<g>
		<polygon fill="#999999" points="40,47.6 40,48.2 72,64.2 80,60.2 80,59.6 48,43.6 		"/>
		<polygon opacity="0.11" points="72,64.2 40,48.2 40,47.6 72,63.6 		"/>
		<polygon opacity="0.29" points="72,64.2 80,60.2 80,59.6 72,63.6 		"/>
	</g>
	<g>
		<polygon fill="#FFCC00" points="55.4,40.2 55.4,47.6 48,51.3 40.6,47.6 40.6,40.2 48,36.5 		"/>
		<polygon opacity="0.29" points="48,51.3 55.4,47.6 55.4,40.2 48,43.9 		"/>
		<polygon opacity="0.3" points="50.8,37.9 52.6,38.8 45.2,42.5 45.2,46.1 43.4,45.2 43.4,41.6 		"/>
		<polygon opacity="0.11" points="48,51.3 40.6,47.6 40.6,40.2 48,43.9 		"/>
	</g>
	<g>
		<polygon fill="#FFCC00" points="63.4,44.2 63.4,51.6 56,55.3 48.6,51.6 48.6,44.2 56,40.5 		"/>
		<polygon opacity="0.29" points="56,55.3 63.4,51.6 63.4,44.2 56,47.9 		"/>
		<polygon opacity="0.3" points="58.8,41.9 60.6,42.8 53.2,46.5 53.2,50.1 51.4,49.2 51.4,45.6 		"/>
		<polygon opacity="0.11" points="56,55.3 48.6,51.6 48.6,44.2 56,47.9 		"/>
	</g>
	<g>
		<polygon fill="#FFCC00" points="79.4,52.2 79.4,59.6 72,63.3 64.6,59.6 64.6,52.2 72,48.5 		"/>
		<polygon opacity="0.29" points="72,63.3 79.4,59.6 79.4,52.2 72,55.9 		"/>
		<polygon opacity="0.3" points="74.8,49.9 76.6,50.8 69.2,54.5 69.2,58.1 67.4,57.2 67.4,53.6 		"/>
		<polygon opacity="0.11" points="72,63.3 64.6,59.6 64.6,52.2 72,55.9 		"/>
	</g>
	<g>
		<polygon fill="#999999" points="40,39.6 40,40.2 72,56.2 80,52.2 80,51.6 48,35.6 		"/>
		<polygon opacity="0.11" points="72,56.2 40,40.2 40,39.6 72,55.6 		"/>
		<polygon opacity="0.29" points="72,56.2 80,52.2 80,51.6 72,55.6 		"/>
	</g>
	<g>
		<polygon fill="#3366CC" points="73.1,54.9 80,45.6 80,45 79.4,44.7 73.1,53.4 		"/>
		<polygon opacity="0.29" points="73.1,54.9 80,45.6 80,45 73.1,54.3 		"/>
	</g>
	<g>
		<polygon fill="#3366CC" points="73.1,62.9 80,53.6 80,53 79.4,52.7 73.1,61.4 		"/>
		<polygon opacity="0.29" points="73.1,62.9 80,53.6 80,53 73.1,62.3 		"/>
	</g>
	<g>
		<polygon fill="#3366CC" points="70.8,48 70.8,112 72,112.6 73.2,112 73.2,48 72,47.4 		"/>
		<polygon opacity="0.11" points="72,112.6 70.8,112 70.8,48 72,48.6 		"/>
		<polygon opacity="0.29" points="72,112.6 73.2,112 73.2,48 72,48.6 		"/>
	</g>
</g>
</svg>
