<?xml version="1.0" encoding="utf-8"?>
<!-- Generator: Adobe Illustrator 18.1.0, SVG Export Plug-In . SVG Version: 6.00 Build 0)  -->
<svg version="1.1" id="Layer_1" xmlns="http://www.w3.org/2000/svg" xmlns:xlink="http://www.w3.org/1999/xlink" x="0px" y="0px"
	 viewBox="0 0 64 64" enable-background="new 0 0 64 64" xml:space="preserve">
<g>
	<path fill="#E5E5E5" d="M0,32v32l64-32V0L0,32z M25,49l-14,7V40l14-7V49z M57,33l-14,7V24l14-7V33z"/>
	<polygon fill="#2D3134" points="11,57 9,58 9,36 27,27 27,49 25,50 25,33 11,40 	"/>
	<polygon fill="#2D3134" points="43,41 41,42 41,20 59,11 59,33 57,34 57,17 43,24 	"/>
	<path opacity="0.29" d="M0,32v32l64-32V0L0,32z M25,49l-14,7V40l14-7V49z M57,33l-14,7V24l14-7V33z"/>
</g>
</svg>
