<?xml version="1.0" encoding="utf-8"?>
<!-- Generator: Adobe Illustrator 18.1.0, SVG Export Plug-In . SVG Version: 6.00 Build 0)  -->
<svg version="1.1" id="Layer_1" xmlns="http://www.w3.org/2000/svg" xmlns:xlink="http://www.w3.org/1999/xlink" x="0px" y="0px"
	 viewBox="0 0 32 48" enable-background="new 0 0 32 48" xml:space="preserve">
<g>
	<polygon fill="#E5E5E5" points="0,48 32,32 32,0 0,16 	"/>
	<g>
		<polygon fill="#FFFFFF" points="12,40 22,35 22,17 12,22 		"/>
		<polygon fill="#656565" points="21,18.5 13,22.5 13,39.5 21,35.5 		"/>
		<polygon opacity="0.25" fill="#FFFFFF" points="13,38.5 21,34.5 21,33.5 13,37.5 		"/>
		<polygon opacity="0.25" fill="#FFFFFF" points="13,36.5 21,32.5 21,31.5 13,35.5 		"/>
		<polygon opacity="0.25" fill="#FFFFFF" points="13,34.5 21,30.5 21,29.5 13,33.5 		"/>
		<polygon opacity="0.25" fill="#FFFFFF" points="13,32.5 21,28.5 21,27.5 13,31.5 		"/>
		<polygon opacity="0.25" fill="#FFFFFF" points="13,30.5 21,26.5 21,25.5 13,29.5 		"/>
		<polygon opacity="0.25" fill="#FFFFFF" points="13,28.5 21,24.5 21,23.5 13,27.5 		"/>
		<polygon opacity="0.25" fill="#FFFFFF" points="13,26.5 21,22.5 21,21.5 13,25.5 		"/>
		<polygon opacity="0.25" fill="#FFFFFF" points="13,24.5 21,20.5 21,19.5 13,23.5 		"/>
	</g>
	<polygon opacity="0.29" points="0,48 32,32 32,0 0,16 	"/>
	<g>
		<polygon fill="#999999" points="32,42 22,47 12,42 12,40 22,35 26,37 		"/>
		<polygon opacity="0.11" points="22,47 22,47 16,42 12,40 12,42 		"/>
		<polygon opacity="0.15" points="26,37 16,42 22,47 22,47 22,47 32,42 		"/>
	</g>
</g>
</svg>
