<?xml version="1.0" encoding="utf-8"?>
<!-- Generator: Adobe Illustrator 18.1.0, SVG Export Plug-In . SVG Version: 6.00 Build 0)  -->
<svg version="1.1" id="Layer_1" xmlns="http://www.w3.org/2000/svg" xmlns:xlink="http://www.w3.org/1999/xlink" x="0px" y="0px"
	 viewBox="0 0 64 96" enable-background="new 0 0 64 96" xml:space="preserve">
<g>
	<polygon fill="#E5E5E5" points="0,96 64,64 64,0 0,32 	"/>
	<polygon fill="#2D3134" points="11,89 9,90 9,68 27,59 27,81 25,82 25,65 11,72 	"/>
	<polygon fill="#2D3134" points="43,73 41,74 41,52 59,43 59,65 57,66 57,49 43,56 	"/>
	<g>
		<polygon fill="#656565" points="25,65 11,72 11,88 25,81 		"/>
		<polygon opacity="0.25" fill="#FFFFFF" points="11,87 25,80 25,79 11,86 		"/>
		<polygon opacity="0.25" fill="#FFFFFF" points="11,85 25,78 25,77 11,84 		"/>
		<polygon opacity="0.25" fill="#FFFFFF" points="11,83 25,76 25,75 11,82 		"/>
		<polygon opacity="0.25" fill="#FFFFFF" points="11,81 25,74 25,73 11,80 		"/>
		<polygon opacity="0.25" fill="#FFFFFF" points="11,79 25,72 25,71 11,78 		"/>
		<polygon opacity="0.25" fill="#FFFFFF" points="11,77 25,70 25,69 11,76 		"/>
		<polygon opacity="0.25" fill="#FFFFFF" points="11,75 25,68 25,67 11,74 		"/>
		<polygon opacity="0.25" fill="#FFFFFF" points="11,73 25,66 25,65 11,72 		"/>
	</g>
	<g>
		<polygon fill="#656565" points="57,49 43,56 43,72 57,65 		"/>
		<polygon opacity="0.25" fill="#FFFFFF" points="43,71 57,64 57,63 43,70 		"/>
		<polygon opacity="0.25" fill="#FFFFFF" points="43,69 57,62 57,61 43,68 		"/>
		<polygon opacity="0.25" fill="#FFFFFF" points="43,67 57,60 57,59 43,66 		"/>
		<polygon opacity="0.25" fill="#FFFFFF" points="43,65 57,58 57,57 43,64 		"/>
		<polygon opacity="0.25" fill="#FFFFFF" points="43,63 57,56 57,55 43,62 		"/>
		<polygon opacity="0.25" fill="#FFFFFF" points="43,61 57,54 57,53 43,60 		"/>
		<polygon opacity="0.25" fill="#FFFFFF" points="43,59 57,52 57,51 43,58 		"/>
		<polygon opacity="0.25" fill="#FFFFFF" points="43,57 57,50 57,49 43,56 		"/>
	</g>
	<g>
		<g>
			<polygon fill="#FFFFFF" points="27,36 9,45 9,37 27,28 			"/>
			<polygon fill="#3399CC" points="26,35.5 10,43.5 10,37.5 26,29.5 			"/>
			<polygon opacity="0.15" points="26,32.5 10,40.5 10,37.5 26,29.5 			"/>
			<polygon opacity="0.15" points="26,30.5 10,38.5 10,37.5 26,29.5 			"/>
			<polygon opacity="0.15" points="26,35.5 10,37.5 26,29.5 			"/>
		</g>
		<g>
			<polygon fill="#FFFFFF" points="59,20 41,29 41,21 59,12 			"/>
			<polygon fill="#3399CC" points="58,19.5 42,27.5 42,21.5 58,13.5 			"/>
			<polygon opacity="0.15" points="58,16.5 42,24.5 42,21.5 58,13.5 			"/>
			<polygon opacity="0.15" points="58,14.5 42,22.5 42,21.5 58,13.5 			"/>
			<polygon opacity="0.15" points="58,19.5 42,21.5 58,13.5 			"/>
		</g>
	</g>
	<polygon opacity="0.29" points="0,96 64,64 64,0 0,32 	"/>
</g>
</svg>
