<?xml version="1.0" encoding="utf-8"?>
<!-- Generator: Adobe Illustrator 18.1.0, SVG Export Plug-In . SVG Version: 6.00 Build 0)  -->
<svg version="1.1" id="Layer_1" xmlns="http://www.w3.org/2000/svg" xmlns:xlink="http://www.w3.org/1999/xlink" x="0px" y="0px"
	 viewBox="0 0 64 64" enable-background="new 0 0 64 64" xml:space="preserve">
<g>
	<polygon fill="#E5E5E5" points="64,64 0,32 0,0 64,32 	"/>
	<g>
		<polygon fill="#FFFFFF" points="37,35 55,44 55,36 37,27 		"/>
		<polygon fill="#3399CC" points="38,34.5 54,42.5 54,36.5 38,28.5 		"/>
		<polygon opacity="0.15" points="38,31.5 54,39.5 54,36.5 38,28.5 		"/>
		<polygon opacity="0.15" points="38,29.5 54,37.5 54,36.5 38,28.5 		"/>
		<polygon opacity="0.15" points="38,34.5 54,36.5 38,28.5 		"/>
	</g>
	<g>
		<polygon fill="#FFFFFF" points="5,19 23,28 23,20 5,11 		"/>
		<polygon fill="#3399CC" points="6,18.5 22,26.5 22,20.5 6,12.5 		"/>
		<polygon opacity="0.15" points="6,15.5 22,23.5 22,20.5 6,12.5 		"/>
		<polygon opacity="0.15" points="6,13.5 22,21.5 22,20.5 6,12.5 		"/>
		<polygon opacity="0.15" points="6,18.5 22,20.5 6,12.5 		"/>
	</g>
	<polygon opacity="0.11" points="64,64 0,32 0,0 64,32 	"/>
</g>
</svg>
