<?xml version="1.0" encoding="utf-8"?>
<!-- Generator: Adobe Illustrator 18.1.0, SVG Export Plug-In . SVG Version: 6.00 Build 0)  -->
<svg version="1.1" id="Layer_1" xmlns="http://www.w3.org/2000/svg" xmlns:xlink="http://www.w3.org/1999/xlink" x="0px" y="0px"
	 viewBox="0 0 160 240" enable-background="new 0 0 160 240" xml:space="preserve">
<g>
	<path opacity="0.2" d="M96.5,227c-17.7,10.8-81.7-40.5-76-47.4C32.9,164.3,110.9,218.3,96.5,227z"/>
	<path fill="#2D3134" d="M70.8,208.7c-0.4,1.9-0.6,5.3,0.3,6.7c0.9,1.3,5.8,5.5,7.3,6.9c1.9,1.8,5.3,4.5,8.9,5
		c3.6,0.5,9.4-1.9,8.9-4.6c-0.3-1.4-6.1-5.9-8.6-8.1c-2.3-1.9-5.8-7.3-5.8-7.3L70.8,208.7z"/>
	<path opacity="0.4" d="M96.2,222.7c0-0.1-0.1-0.3-0.2-0.4c-0.8,2.3-5.6,4.1-8.8,3.6c-3.5-0.5-7-3.2-8.9-5c-1.5-1.4-6.5-5.6-7.3-6.9
		c-0.3-0.4-0.4-1-0.5-1.7c0,1.3,0.2,2.4,0.6,3.1c0.9,1.3,5.8,5.5,7.3,6.9c1.9,1.8,5.3,4.5,8.9,5C90.9,227.8,96.7,225.4,96.2,222.7z"
		/>
	<path fill="#2D3134" d="M27.4,174.1c-2,1.8-4.5,6.6-4,8.6c0.5,2,6.6,4.9,8.1,6.2c1.5,1.3,7.8,6.8,9.8,7.9c2.3,1.3,4.9,1.8,7-0.1
		c1.8-1.7-0.3-5.7-1.5-7.1c-1.4-1.5-4.6-4-6-6.6s-2.9-7.1-2.9-7.1L27.4,174.1z"/>
	<path opacity="0.4" d="M48.7,195.5c-2.1,1.9-4.7,1.3-7,0.1c-2-1.1-8.3-6.7-9.8-7.9c-1.5-1.3-7.6-4.1-8.1-6.2
		c-0.1-0.4-0.1-0.9,0-1.4c-0.3,1-0.5,2-0.3,2.6c0.5,2,6.6,4.9,8.1,6.2c1.5,1.3,7.8,6.8,9.8,7.9c2.3,1.3,4.9,1.8,7-0.1
		c0.5-0.4,0.7-1,0.7-1.7C49,195.2,48.9,195.4,48.7,195.5z"/>
	<path fill="#06547A" d="M59.8,98.6l22.3,3.6c0,0-1.5,10.9-7.7,21.1s-19,24.6-21.3,27.3c-2.3,2.7-10,20.1-10.8,22.1
		c-1.3,3.2-2,8.3-2.6,8.6c-6.4,4.1-15.8-2.2-15.7-3.9c0.1-1.2,7.7-23.9,14.3-34.1c3.6-5.6,10.8-17.5,12.7-26.1
		C52.9,108.6,59.8,98.6,59.8,98.6z"/>
	<path opacity="0.2" d="M59.8,98.6l22.3,3.6c0,0-1.5,10.9-7.7,21.1s-19,24.6-21.3,27.3c-2.3,2.7-10,20.1-10.8,22.1
		c-1.3,3.2-2,8.3-2.6,8.6c-6.4,4.1-15.8-2.2-15.7-3.9c0.1-1.2,7.7-23.9,14.3-34.1c3.6-5.6,10.8-17.5,12.7-26.1
		C52.9,108.6,59.8,98.6,59.8,98.6z"/>
	<path fill="#06547A" d="M51.9,96.2c0,0-3.2,5.1-3.7,9.3c-1.4,10.8,3,31.3,5.9,39.4s5.4,16.8,5.7,22.6s2.5,16.3,4,23.2
		c2.7,12.2,5.4,20.8,5.8,22.2c0.4,1.4,7,1,9.5,0.5c2.6-0.5,5.9-1.5,6-2.3c0.1-0.8-3.1-13.4-4.6-20.5c-1.4-7-4.1-25-4.1-31
		c0-6,0.7-24.2,0.3-33.9c-0.4-9.8-3.8-25.3-3.8-25.3L51.9,96.2z"/>
	<path fill="#3399CC" d="M93.5,47c0.8,2.4,4,25.2,4.7,26.8c0.7,1.7,18.4,16,18.7,17.2s-7,4.5-8.8,3.4c-1.6-0.9-7.3-4.5-12.5-8.4
		C94,84.9,88.2,79,87.8,78c-0.4-1-0.5-13.5-0.7-14.8C86.9,61.9,93.5,47,93.5,47z"/>
	<path fill="#3399CC" d="M72.4,109.1c0,0-11.5-68.2-9-69.5c2.6-1.3,11.4-3,15.4-3.2c4-0.2,10.6,4.1,10.6,4.1l-6.7,68.6H72.4z"/>
	<path fill="#99CC33" d="M63.4,39.6c0,0-6.9,4-9.6,8c-2.8,4.1-5.2,10.6-5.2,18.8s-0.5,29.1-0.7,33.4c-0.3,4.3,8.2,7.1,13.7,8.6
		s13.4,2,15.4,1c2-1,2.7-11.9,3.6-20.4c0.5-4.6,0.7-17.7-1.1-24.3C76.5,53.8,63.4,39.6,63.4,39.6z"/>
	<path fill="#99CC33" d="M84.7,38.5c0,0-1,19.1-2.6,27.2c-1.7,8-2.4,37.7-1.7,40.4c0.7,2.6,0.8,3.7,3.1,4.1c2.3,0.4,3.2-1.4,3.4-3
		c0.2-2,1-17.2,1-20.6c0-3.4,0.9-12.7,2.1-15.8c1.1-3.2,5.6-20.2,4.8-22.6S90.5,39.3,84.7,38.5z"/>
	<path fill="#FBD7C7" d="M66,39.1c0,0,2.7-1.1,2.9-3.1c0.2-2-5.9-9.7-0.8-16.8c5.1-7.1,17.8-5.8,20,1.3c2.2,7.1,2.4,20.7,0.7,22.1
		c-2.1,1.8-5.9,1.1-5.9,1.1s-1.3,3.3-1,5.1c0.4,2.7-2,2.9-3.3,2.8C76.7,51.5,67.7,48.1,66,39.1z"/>
	<path fill="#762C07" d="M68.1,34.3l1.6,1c0,0-4.2-5.6-1.4-6.8c2.8-1.2,4.1,2.3,4.1,2.3s2.1-3.6,5.3-3.9s12-2.3,11.7-5.1
		c-0.1-1.1-3.6-10.5-14-8.7S64.7,23.5,65.3,26.9S68.1,34.3,68.1,34.3z"/>
	<g>
		<polygon fill="#FFCC00" points="70,60 70,100 110,120 150,100 150,60 110,40 		"/>
		<polygon opacity="0.11" points="110,120 70,100 70,60 110,80 		"/>
		<polygon opacity="0.3" points="94.9,47.6 85.1,52.4 125.1,72.4 125.1,91.9 134.9,87 134.9,67.6 		"/>
		<polygon opacity="0.29" points="110,120 150,100 150,60 110,80 		"/>
	</g>
	<path fill="#FBD7C7" d="M80.4,110.7c0,0,8.1,5.7,12.8,5.5c4.7-0.2,8.1-0.9,7.2-1.4s-3.8-1.8-6.6-2.9s-4.8-3.1-4.9-3.6
		c-0.1-0.5,6.6-0.5,6.7-1.8c0.1-1.3-4.4-1.5-5.5-1.8c-1.1-0.3-3.4-1-5.5-0.6c-2.5,0.5-4,0.9-5.5,0.6L80.4,110.7z"/>
	<path fill="#3399CC" d="M52.2,49.9c-2.7,0.7-4.4,16.3-4.8,21.1c-0.4,4.8-1.6,19.3-0.9,21.1c1.7,4.5,32,18.7,32.9,19.2
		c1,0.5,6.2-6.5,6-7.9c-0.2-1.4-16-10-18.3-11.6c-2.3-1.6-7.9-4.4-7.9-4.4s2.2-13,3.6-18.1c1.3-5.1,1.5-6.3,1.5-8.9
		C64.3,57.9,59,48.2,52.2,49.9z"/>
</g>
</svg>
