<?xml version="1.0" encoding="utf-8"?>
<!-- Generator: Adobe Illustrator 18.1.0, SVG Export Plug-In . SVG Version: 6.00 Build 0)  -->
<svg version="1.1" id="Layer_1" xmlns="http://www.w3.org/2000/svg" xmlns:xlink="http://www.w3.org/1999/xlink" x="0px" y="0px"
	 viewBox="0 0 128 64" enable-background="new 0 0 128 64" xml:space="preserve">
<g>
	<g>
		<g>
			<polygon fill="#2D3134" points="64,0 128,32 64,64 0,32 			"/>
		</g>
		<g>
			<polygon fill="#2D3134" points="64,0 128,32 64,64 0,32 			"/>
		</g>
	</g>
</g>
<g>
	<polygon fill="#FFFFFF" points="48,36 64,44 56,48 40,40 	"/>
	<polygon fill="#3399CC" points="42.2,40 48,37.1 61.8,44 56,46.9 	"/>
	<polygon opacity="0.15" points="42.2,40 48,37.1 50,38.1 44,40.9 	"/>
	<polygon opacity="0.15" points="42.2,40 48,37.1 60,43 	"/>
</g>
<g>
	<polygon fill="#FFFFFF" points="64,28 80,36 72,40 56,32 	"/>
	<polygon fill="#3399CC" points="58.2,32 64,29.1 77.8,36 72,38.9 	"/>
	<polygon opacity="0.15" points="58.2,32 64,29.1 66,30.1 60,32.9 	"/>
	<polygon opacity="0.15" points="58.2,32 64,29.1 76,35 	"/>
</g>
<g>
	<polygon fill="#FFFFFF" points="80,20 96,28 88,32 72,24 	"/>
	<polygon fill="#3399CC" points="74.2,24 80,21.1 93.8,28 88,30.9 	"/>
	<polygon opacity="0.15" points="74.2,24 80,21.1 82,22.1 76,24.9 	"/>
	<polygon opacity="0.15" points="74.2,24 80,21.1 92,27 	"/>
</g>
</svg>
