<?xml version="1.0" encoding="utf-8"?>
<!-- Generator: Adobe Illustrator 18.1.0, SVG Export Plug-In . SVG Version: 6.00 Build 0)  -->
<svg version="1.1" id="Layer_1" xmlns="http://www.w3.org/2000/svg" xmlns:xlink="http://www.w3.org/1999/xlink" x="0px" y="0px"
	 viewBox="0 0 64 96" enable-background="new 0 0 64 96" xml:space="preserve">
<g>
	<path fill="#E5E5E5" d="M0,0l0,64l64,32V32L0,0z M39,65l14,7v16l-14-7V65z M7,49l14,7v16L7,65V49z"/>
	<polygon fill="#2D3134" points="53,89 55,90 55,68 37,59 37,81 39,82 39,65 53,72 	"/>
	<polygon fill="#2D3134" points="21,73 23,74 23,52 5,43 5,65 7,66 7,49 21,56 	"/>
	<g>
		<g>
			<polygon fill="#FFFFFF" points="37,36 55,45 55,37 37,28 			"/>
			<polygon fill="#3399CC" points="38,35.5 54,43.5 54,37.5 38,29.5 			"/>
			<polygon opacity="0.15" points="38,32.5 54,40.5 54,37.5 38,29.5 			"/>
			<polygon opacity="0.15" points="38,30.5 54,38.5 54,37.5 38,29.5 			"/>
			<polygon opacity="0.15" points="38,35.5 54,37.5 38,29.5 			"/>
		</g>
		<g>
			<polygon fill="#FFFFFF" points="5,20 23,29 23,21 5,12 			"/>
			<polygon fill="#3399CC" points="6,19.5 22,27.5 22,21.5 6,13.5 			"/>
			<polygon opacity="0.15" points="6,16.5 22,24.5 22,21.5 6,13.5 			"/>
			<polygon opacity="0.15" points="6,14.5 22,22.5 22,21.5 6,13.5 			"/>
			<polygon opacity="0.15" points="6,19.5 22,21.5 6,13.5 			"/>
		</g>
	</g>
	<path opacity="0.11" d="M0,0l0,64l64,32V32L0,0z M39,65l14,7v16l-14-7V65z M7,49l14,7v16L7,65V49z"/>
</g>
</svg>
