<?xml version="1.0" encoding="utf-8"?>
<!-- Generator: Adobe Illustrator 18.1.0, SVG Export Plug-In . SVG Version: 6.00 Build 0)  -->
<svg version="1.1" id="Layer_1" xmlns="http://www.w3.org/2000/svg" xmlns:xlink="http://www.w3.org/1999/xlink" x="0px" y="0px"
	 viewBox="0 0 320 320" enable-background="new 0 0 320 320" xml:space="preserve">
<polygon opacity="0.3" points="159,254 179,244 215,262 255,242 219,224 243,212 161,171 77,213 "/>
<g>
	<g>
		<g>
			<polygon fill="#825012" points="78,208.1 78,212.1 88,217.1 168,177.1 168,173.1 158,168.1 			"/>
			<polygon opacity="0.11" points="88,217.1 78,212.1 78,208.1 88,213.1 			"/>
			<polygon opacity="0.29" points="88,217.1 168,177.1 168,173.1 88,213.1 			"/>
		</g>
		<g>
			<polygon fill="#825012" points="150,162.1 150,172.1 160,177.1 170,172.1 170,162.1 160,157.1 			"/>
			<polygon opacity="0.11" points="160,177.1 150,172.1 150,162.1 160,167.1 			"/>
			<polygon opacity="0.29" points="160,177.1 170,172.1 170,162.1 160,167.1 			"/>
		</g>
		<g>
			<polygon fill="#825012" points="150,244.1 150,248.1 160,253.1 242,212.1 242,208.1 232,203.1 			"/>
			<polygon opacity="0.11" points="160,253.1 150,248.1 150,244.1 160,249.1 			"/>
			<polygon opacity="0.29" points="160,253.1 242,212.1 242,208.1 160,249.1 			"/>
		</g>
		<g>
			<polygon fill="#825012" points="114,226.1 114,230.1 124,235.1 204,195.1 204,191.1 194,186.1 			"/>
			<polygon opacity="0.11" points="124,235.1 114,230.1 114,226.1 124,231.1 			"/>
			<polygon opacity="0.29" points="124,235.1 204,195.1 204,191.1 124,231.1 			"/>
		</g>
		<g>
			<polygon fill="#825012" points="222,198.1 222,208.1 232,213.1 242,208.1 242,198.1 232,193.1 			"/>
			<polygon opacity="0.11" points="232,213.1 222,208.1 222,198.1 232,203.1 			"/>
			<polygon opacity="0.29" points="232,213.1 242,208.1 242,198.1 232,203.1 			"/>
		</g>
		<g>
			<polygon fill="#FF9900" points="222,224 232.5,218.8 232.5,214.3 130,163.1 119.5,168.3 119.5,169.8 133,179.6 			"/>
			<polygon opacity="0.11" points="119.5,168.3 119.5,169.8 133,179.6 222,224 222,219.5 			"/>
		</g>
		<g>
			<polygon fill="#FF9900" points="188,241 198.5,235.8 198.5,231.3 96,180 85.5,185.3 85.5,186.8 99,196.5 			"/>
			<polygon opacity="0.11" points="85.5,185.3 85.5,186.8 99,196.5 188,241 188,236.5 			"/>
		</g>
		<g>
			<polygon fill="#825012" points="186,216.1 186,226.1 196,231.1 206,226.1 206,216.1 196,211.1 			"/>
			<polygon opacity="0.11" points="196,231.1 186,226.1 186,216.1 196,221.1 			"/>
			<polygon opacity="0.29" points="196,231.1 206,226.1 206,216.1 196,221.1 			"/>
		</g>
		<g>
			<polygon fill="#825012" points="242,194.1 242,198.1 232,203.1 152,163.1 152,159.1 162,154.1 			"/>
			<polygon opacity="0.29" points="232,203.1 242,198.1 242,194.1 232,199.1 			"/>
			<polygon opacity="0.11" points="232,203.1 152,163.1 152,159.1 232,199.1 			"/>
		</g>
		<g>
			<polygon fill="#825012" points="186,180.1 186,190.1 196,195.1 206,190.1 206,180.1 196,175.1 			"/>
			<polygon opacity="0.11" points="196,195.1 186,190.1 186,180.1 196,185.1 			"/>
			<polygon opacity="0.29" points="196,195.1 206,190.1 206,180.1 196,185.1 			"/>
		</g>
		<g>
			<polygon fill="#825012" points="114,216.1 114,226.1 124,231.1 134,226.1 134,216.1 124,211.1 			"/>
			<polygon opacity="0.11" points="124,231.1 114,226.1 114,216.1 124,221.1 			"/>
			<polygon opacity="0.29" points="124,231.1 134,226.1 134,216.1 124,221.1 			"/>
		</g>
		<g>
			<polygon fill="#825012" points="78,198.1 78,208.1 88,213.1 98,208.1 98,198.1 88,193.1 			"/>
			<polygon opacity="0.11" points="88,213.1 78,208.1 78,198.1 88,203.1 			"/>
			<polygon opacity="0.29" points="88,213.1 98,208.1 98,198.1 88,203.1 			"/>
		</g>
		<g>
			<polygon fill="#825012" points="150,234.1 150,244.1 160,249.1 170,244.1 170,234.1 160,229.1 			"/>
			<polygon opacity="0.11" points="160,249.1 150,244.1 150,234.1 160,239.1 			"/>
			<polygon opacity="0.29" points="160,249.1 170,244.1 170,234.1 160,239.1 			"/>
		</g>
		<g>
			<polygon fill="#825012" points="170,230.1 170,234.1 160,239.1 78,198.1 78,194.1 88,189.1 			"/>
			<polygon opacity="0.29" points="160,239.1 170,234.1 170,230.1 160,235.1 			"/>
			<polygon opacity="0.11" points="160,239.1 78,198.1 78,194.1 160,235.1 			"/>
		</g>
		<g>
			<polygon fill="#825012" points="114,180.1 114,190.1 124,195.1 134,190.1 134,180.1 124,175.1 			"/>
			<polygon opacity="0.11" points="124,195.1 114,190.1 114,180.1 124,185.1 			"/>
			<polygon opacity="0.29" points="124,195.1 134,190.1 134,180.1 124,185.1 			"/>
		</g>
		<g>
			<polygon fill="#825012" points="206,212.1 206,216.1 196,221.1 116,181.1 116,177.1 126,172.1 			"/>
			<polygon opacity="0.29" points="196,221.1 206,216.1 206,212.1 196,217.1 			"/>
			<polygon opacity="0.11" points="196,221.1 116,181.1 116,177.1 196,217.1 			"/>
		</g>
		<g>
			<polygon fill="#825012" points="150,226.1 150,230.1 160,235.1 242,194.1 242,190.1 232,185.1 			"/>
			<polygon opacity="0.11" points="160,235.1 150,230.1 150,226.1 160,231.1 			"/>
			<polygon opacity="0.29" points="160,235.1 242,194.1 242,190.1 160,231.1 			"/>
		</g>
		<g>
			<polygon fill="#825012" points="132,217.1 132,221.1 142,226.1 224,185.1 224,181.1 214,176.1 			"/>
			<polygon opacity="0.11" points="142,226.1 132,221.1 132,217.1 142,222.1 			"/>
			<polygon opacity="0.29" points="142,226.1 224,185.1 224,181.1 142,222.1 			"/>
		</g>
		<g>
			<polygon fill="#825012" points="114,208.1 114,212.1 124,217.1 206,176.1 206,172.1 196,167.1 			"/>
			<polygon opacity="0.11" points="124,217.1 114,212.1 114,208.1 124,213.1 			"/>
			<polygon opacity="0.29" points="124,217.1 206,176.1 206,172.1 124,213.1 			"/>
		</g>
		<g>
			<polygon fill="#825012" points="96,199.1 96,203.1 106,208.1 188,167.1 188,163.1 178,158.1 			"/>
			<polygon opacity="0.11" points="106,208.1 96,203.1 96,199.1 106,204.1 			"/>
			<polygon opacity="0.29" points="106,208.1 188,167.1 188,163.1 106,204.1 			"/>
		</g>
		<g>
			<polygon fill="#825012" points="78,190.1 78,194.1 88,199.1 170,158.1 170,154.1 160,149.1 			"/>
			<polygon opacity="0.11" points="88,199.1 78,194.1 78,190.1 88,195.1 			"/>
			<polygon opacity="0.29" points="88,199.1 170,158.1 170,154.1 88,195.1 			"/>
		</g>
		<g>
			<polygon fill="#FFCC00" points="80,110.1 80,190.1 160,230.1 240,190.1 240,110.1 160,70.1 			"/>
			<polygon opacity="0.11" points="160,230.1 80,190.1 80,110.1 160,150.1 			"/>
			<polygon opacity="0.3" points="130,85.1 110,95.1 190,135.1 190,175.1 210,165.1 210,125.1 			"/>
			<polygon opacity="0.29" points="160,230.1 240,190.1 240,110.1 160,150.1 			"/>
		</g>
	</g>
</g>
<g>
	<g>
		<polygon fill="#FF9900" points="202,185 218,177 226,181 240,209 240,223 196,245.1 188,241.1 188,227.1 		"/>
		<polygon opacity="0.11" points="188,241.1 196,245.1 196,231.1 210,189 202,185 188,227.1 		"/>
		<polygon opacity="0.29" points="240,223 196,245.1 196,231.1 210,189 226,181 240,209 		"/>
	</g>
</g>
<g>
	<path fill="#2D3134" d="M239.9,222.2c-2.7-1.4-5.1-1.5-7-0.7l0,0l-5.1,2.5l0,0c-1.9,0.9-3.2,2.9-3.2,5.8c0,5.6,4.5,12.4,10.1,15.2
		c2.8,1.4,5.3,1.5,7.1,0.6c0,0,5-2.5,5.5-2.8c1.6-1,2.6-2.9,2.6-5.5C250,231.8,245.5,225,239.9,222.2z"/>
	<path opacity="0.39" d="M242,245.6c0.7-0.4,5-2.5,5.3-2.7c1.6-1,2.6-2.9,2.6-5.5c0-2.3-0.7-4.7-2-7l-5.1,2.5c1.2,2.3,2,4.7,2,7
		C244.9,242.7,243.8,244.7,242,245.6z"/>
	<path fill="#A9ABB0" d="M242.4,238.6c0,4.2-3.4,5.9-7.6,3.8s-7.6-7.2-7.6-11.4c0-4.2,3.4-5.9,7.6-3.8S242.4,234.4,242.4,238.6z"/>
	<path fill="#808285" d="M235.4,242.1c-4.2-2.1-7.6-7.2-7.6-11.4c0-2.1,0.8-3.5,2.2-4.2c-1.7,0.5-2.8,2.1-2.8,4.5
		c0,4.2,3.4,9.3,7.6,11.4c2.1,1.1,4.1,1.1,5.4,0.4C238.9,243.2,237.3,243.1,235.4,242.1z"/>
	<path fill="#2D3134" d="M238.6,236.1c0,1.8-1.4,2.5-3.2,1.6c-1.7-0.9-3.2-3-3.2-4.8c0-1.8,1.4-2.5,3.2-1.6
		C237.2,232.3,238.6,234.4,238.6,236.1z"/>
	<path opacity="0.39" d="M238.6,236.1c0,1.8-1.4,2.5-3.2,1.6c-1.7-0.9-3.2-3-3.2-4.8c0-1.8,1.4-2.5,3.2-1.6
		C237.2,232.3,238.6,234.4,238.6,236.1z"/>
	<path fill="#2D3134" d="M238,236.4c0,1.8-1.4,2.5-3.2,1.6s-3.2-3-3.2-4.8s1.4-2.5,3.2-1.6S238,234.7,238,236.4z"/>
	<path opacity="0.06" d="M244.9,239.9c0,5.6-4.5,7.9-10.1,5.1s-10.1-9.6-10.1-15.2s4.5-7.9,10.1-5.1
		C240.4,227.5,244.9,234.3,244.9,239.9z"/>
</g>
<g>
	<polygon fill="#FF9900" points="209,220 209,243 225,251 241,243 241,227 225,212 	"/>
	<polygon opacity="0.11" points="225,251 209,243 209,220 225,235 	"/>
	<polygon opacity="0.29" points="225,251 241,243 241,227 225,235 	"/>
</g>
<g>
	<path fill="#2D3134" d="M215.5,235.3c-2.7-1.4-5.1-1.5-7-0.7l0,0l-5.1,2.5l0,0c-1.9,0.9-3.2,2.9-3.2,5.8c0,5.6,4.5,12.4,10.1,15.2
		c2.8,1.4,5.3,1.5,7.1,0.6c0,0,5-2.5,5.5-2.8c1.6-1,2.6-2.9,2.6-5.5C225.6,244.9,221.1,238.1,215.5,235.3z"/>
	<path opacity="0.39" d="M217.6,258.7c0.7-0.4,5-2.5,5.3-2.7c1.6-1,2.6-2.9,2.6-5.5c0-2.3-0.7-4.7-2-7l-5.1,2.5c1.2,2.3,2,4.7,2,7
		C220.5,255.8,219.4,257.7,217.6,258.7z"/>
	<path fill="#A9ABB0" d="M218,251.7c0,4.2-3.4,5.9-7.6,3.8c-4.2-2.1-7.6-7.2-7.6-11.4c0-4.2,3.4-5.9,7.6-3.8S218,247.5,218,251.7z"
		/>
	<path fill="#808285" d="M211,255.2c-4.2-2.1-7.6-7.2-7.6-11.4c0-2.1,0.8-3.5,2.2-4.2c-1.7,0.5-2.8,2.1-2.8,4.5
		c0,4.2,3.4,9.3,7.6,11.4c2.1,1.1,4.1,1.1,5.4,0.4C214.5,256.3,212.9,256.1,211,255.2z"/>
	<path fill="#2D3134" d="M214.2,249.2c0,1.8-1.4,2.5-3.2,1.6c-1.7-0.9-3.2-3-3.2-4.8s1.4-2.5,3.2-1.6
		C212.8,245.3,214.2,247.4,214.2,249.2z"/>
	<path opacity="0.39" d="M214.2,249.2c0,1.8-1.4,2.5-3.2,1.6c-1.7-0.9-3.2-3-3.2-4.8s1.4-2.5,3.2-1.6
		C212.8,245.3,214.2,247.4,214.2,249.2z"/>
	<path fill="#2D3134" d="M213.6,249.5c0,1.8-1.4,2.5-3.2,1.6s-3.2-3-3.2-4.8s1.4-2.5,3.2-1.6S213.6,247.7,213.6,249.5z"/>
	<path opacity="0.06" d="M220.5,253c0,5.6-4.5,7.9-10.1,5.1c-5.6-2.8-10.1-9.6-10.1-15.2c0-5.6,4.5-7.9,10.1-5.1
		C216,240.6,220.5,247.4,220.5,253z"/>
</g>
<g>
	<path fill="#FF9900" d="M220,132c-2.2,0-4,0.9-4,2v85c0,1.1,1.8,2,4,2s4-0.9,4-2v-85C224,132.9,222.2,132,220,132z"/>
	<path opacity="0.2" d="M220,136c-2.2,0-4-0.9-4-2v85c0,1.1,1.8,2,4,2s4-0.9,4-2v-85C224,135.1,222.2,136,220,136z"/>
	<path fill="#FF9900" d="M220,140c-0.6,0-1.2-0.2-1.8-0.5l-22.7-13.3c-1.1-0.7-1.8-1.9-1.7-3.1c0-1.3,0.8-2.4,1.9-3l41.7-20.7
		c1.4-0.7,3-0.4,4.1,0.7s1.3,2.8,0.5,4.1l-19,34c-0.5,0.8-1.2,1.4-2.1,1.7C220.6,140,220.3,140,220,140z M204.7,123.4l14,8.2
		l11.7-21L204.7,123.4z"/>
	<path opacity="0.2" d="M241.5,100.1c-1.1-1.1-2.7-1.4-4.1-0.7L195.8,120c-1.2,0.6-1.9,1.7-1.9,3c0,1.3,0.6,2.5,1.7,3.1l22.7,13.3
		c0.5,0.3,1.2,0.5,1.8,0.5c0.3,0,0.6,0,0.9-0.1c0.9-0.2,1.7-0.8,2.1-1.7l19-34C242.8,102.9,242.6,101.2,241.5,100.1z M218.7,131.7
		l-14-8.2l25.8-12.8L218.7,131.7z M238.3,103.8l-41.7,20.7c-0.2,0.1-0.4,0.2-0.7,0.2c-0.6,0-1.1-0.3-1.3-0.8c-0.4-0.7-0.1-1.6,0.7-2
		l41.7-20.7c0.7-0.4,1.6-0.1,2,0.7S239.1,103.5,238.3,103.8z"/>
</g>
<g>
	<path fill="#FBD7C7" d="M210.7,123.8c0,0-1.9-1.2-4.8-2.9c-2.3-1.3-4.9-2.7-4.3-6c0.3-1.4,5.8-5.4,8.8-4.3c1.9,0.8,2.8,2.2,3.7,3.8
		c1.3,2.2,2.2,3,2.2,3L210.7,123.8z"/>
	<path opacity="0.2" d="M305.7,295.7c-17.9,6.8-84.5-34.6-72.7-42.6C247.9,243.1,330.3,286.3,305.7,295.7z"/>
	<path fill="#2D3134" d="M306.6,278.7c0.7,3,1.6,10.5,0.2,13.8c-1.1,2.6-6.6,3.4-9.3,2.1c-2.8-1.3-5.5-2.9-8-3.6
		c-5.3-1.4-8.7-4.1-8.4-6.9c0.5-4.1,9.9-2.2,10.8-2.2s1.3-2.5,1.3-2.5L306.6,278.7z"/>
	<path opacity="0.4" d="M281.1,284.2c0.1-0.5,0.3-1,0.6-1.3c-0.1,2.7,3.3,5.3,8.4,6.7c2.5,0.7,5.2,2.2,8,3.6c2.6,1.2,7.5,0.6,9-1.6
		c-0.1,0.4-0.2,0.7-0.3,1c-1.1,2.6-6.6,3.4-9.3,2.1s-5.5-2.9-8-3.6C284.3,289.7,280.8,287,281.1,284.2z"/>
	<path fill="#2D3134" d="M259.9,257.7c0.2,1.4,0.4,7.6-0.7,9.2c-1.2,1.8-3.8,2.2-6.1,1.6c-2.3-0.6-11.7-5.5-14.2-6.5
		c-2.5-1-4.4-3.1-4.5-4.5c-0.2-3.1,3.1-5.8,6.9-4.9c3.9,0.9,5.5,2.3,6.5,2c1-0.3,1.2-1.2,1.2-1.2L259.9,257.7z"/>
	<path opacity="0.4" d="M235.8,254c-0.3,0.7-0.5,1.4-0.5,2.2c0.1,1.3,1.9,3.5,4.5,4.5c2.5,1,11.9,5.9,14.2,6.5
		c1.9,0.5,4,0.3,5.4-0.8c-0.1,0.2-0.2,0.4-0.3,0.6c-1.2,1.8-3.8,2.2-6.1,1.6c-2.3-0.6-11.7-5.5-14.2-6.5c-2.5-1-4.4-3.1-4.5-4.5
		C234.3,256.2,234.8,255,235.8,254z"/>
	<path fill="#06547A" d="M292.1,151.7c0,0-10,1.6-17.5,1.6s-20.7-2.4-20.7-2.4s-5.1,19.4-5.7,26.8c-1.4,16.4,1.4,36.3,1.2,40.8
		c-0.2,4.5-1,23.2-1.2,28.1c-0.2,4.9-2.5,8.9-1.5,10.7c1,1.8,9.8,8.5,14.9,6.1c1.7-0.8,3.7-27.4,3.7-37.1c0-9.8-0.2-11.8,2-20.3
		c2.2-8.5,4.5-23.9,4.5-23.9s5.3,24.1,8.5,34.5s4.5,22.4,6.3,32.3s4.4,29.8,4.7,32.7c0.2,2.1,4,4.7,7.9,6.1c3.7,1.3,8.3,0.7,9.2-0.3
		c0.9-1-1.8-23.7-2-27.4c-0.2-3.7-2.8-22-4.5-30.5s-0.9-30.5-3.7-48.1C295.8,165.9,292.1,151.7,292.1,151.7z"/>
	<path fill="#3399CC" d="M255.9,107c-1.2-1.2-4.3-0.7-6.7,3.8c-2.4,4.5-12.1,14.8-12.1,14.8s-19.8-8.9-21.3-9s-8.7,6.6-5.4,8.1
		c3.4,1.5,23.1,14.5,26.3,14.8c3.4,0.3,11.8-1.3,21-9.5c5.5-4.9,4-5,4-5L255.9,107z"/>
	<path fill="#FBD7C7" d="M234.3,112.5c0,0-2.2-0.5-5.5-1c-2.6-0.4-6.2-1.3-6.8-4.7c-0.3-1.4,4-5.8,7.3-5.7c2.1,0,3.5,0.3,5,1.5
		c2,1.6,3.1,2,3.1,2L234.3,112.5z"/>
	<path fill="#3399CC" d="M268.3,113.4c0,0-29-9.7-30.5-9.5c-1.5,0.1-7.4,8.1-3.8,9c3.6,0.9,37.8,14.9,40.7,13.8
		c2.9-1.1,21.5-19.5,21.5-19.5L268.3,113.4z"/>
	<path fill="#FBD7C7" d="M283.2,96c0,0-6.2,3.1-9.8,3.7s-10.6,0.4-10.6,0.4s-1-6.5-1.6-7.7c-0.6-1.2-2.8-2.9-3.3-5.7
		c-0.4-2.7-1.8-14,0-16.3c1.8-2.2,11.5-7.8,17.1-1.2s2,17.7,2.4,20.3S283.2,96,283.2,96z"/>
	<path fill="#762C07" d="M277.9,91.1c0,0-6.4,2.3-10.2,1.6c-3.8-0.7-6.1-4.5-6.1-4.5s-0.1-5.1-1.2-6.9c-1.1-1.8-1.6-0.8-1.6-0.8
		s-2.1-4.1-1.6-6.9c0.5-2.8,3.4-9.9,13.4-7.3c7.9,2,9,10.3,8.9,13.8S277.9,91.1,277.9,91.1z"/>
	<path fill="#99CC33" d="M283.2,96c0,0-4.1,1.2-8.5,2c-4.5,0.8-11.8,2-11.8,2s-5,3.2-6.5,4.1c-2,1.2-4.8,2.8-4,3.1
		c1.1,0.4,2.9,5.4,3.7,12.7s-4.9,16.5-4.9,16.5s0.1,11.5-0.4,15.5c-0.7,6.1-1.5,13.5-1.1,16c0.3,1.9,16.8,3.1,24.6,2.9
		s21.3-0.5,22.3-5.1c0.5-2.5-2.7-17-2.2-22.6c0.4-4.2,6.6-29,3.8-40C296.5,96.7,283.2,96,283.2,96z"/>
</g>
</svg>
