<?xml version="1.0" encoding="utf-8"?>
<!-- Generator: Adobe Illustrator 18.1.0, SVG Export Plug-In . SVG Version: 6.00 Build 0)  -->
<svg version="1.1" id="Layer_1" xmlns="http://www.w3.org/2000/svg" xmlns:xlink="http://www.w3.org/1999/xlink" x="0px" y="0px"
	 viewBox="0 0 320 400" enable-background="new 0 0 320 400" xml:space="preserve">
<g>
	<polygon opacity="0.3" points="26,276 166,346 294,282 152,212 	"/>
	<polygon fill="#FF9900" points="36,234 140,182 140,202 36,254 	"/>
	<polygon opacity="0.29" points="36,234 140,182 140,202 36,254 	"/>
	<polygon fill="#FF9900" points="36,156 140,104 140,124 36,176 	"/>
	<polygon opacity="0.29" points="36,156 140,104 140,124 36,176 	"/>
	<polygon fill="#FF9900" points="36,195 140,143 140,163 36,215 	"/>
	<polygon opacity="0.29" points="36,195 140,143 140,163 36,215 	"/>
	<g>
		<g>
			<polygon fill="#FF9900" points="166,347 294,283 294,274 286,270 158,334 158,343 			"/>
			<polygon opacity="0.29" points="294,274 294,283 166,347 166,338 			"/>
			<polygon opacity="0.11" points="158,334 158,343 166,347 166,338 			"/>
		</g>
		<g>
			<polygon fill="#FF9900" points="34,281 162,217 162,208 154,204 26,268 26,277 			"/>
			<polygon opacity="0.29" points="162,208 162,217 34,281 34,272 			"/>
			<polygon opacity="0.11" points="26,268 26,277 34,281 34,272 			"/>
		</g>
		<g>
			<polygon fill="#FF9900" points="276,283 136,213 136,204 144,200 284,270 284,279 			"/>
			<polygon opacity="0.11" points="136,204 136,213 276,283 276,274 			"/>
		</g>
		<g>
			<polygon fill="#FF9900" points="176,333 284,279 284,270 276,266 168,320 168,329 			"/>
			<polygon opacity="0.29" points="284,270 284,279 176,333 176,324 			"/>
			<polygon opacity="0.11" points="168,320 168,329 176,333 176,324 			"/>
		</g>
		<g>
			<polygon fill="#FF9900" points="44,267 152,213 152,204 144,200 36,254 36,263 			"/>
			<polygon opacity="0.29" points="152,204 152,213 44,267 44,258 			"/>
			<polygon opacity="0.11" points="36,254 36,263 44,267 44,258 			"/>
		</g>
		<g>
			<polygon fill="#FF9900" points="176,333 36,263 36,254 44,250 184,320 184,329 			"/>
			<polygon opacity="0.11" points="36,254 36,263 176,333 176,324 			"/>
			<polygon opacity="0.29" points="184,320 184,329 176,333 176,324 			"/>
		</g>
	</g>
	<polygon fill="#FF9900" points="176,304 280,252 280,272 176,324 	"/>
	<g>
		<g>
			<polygon fill="#FF9900" points="280,194 140,163 140,143 144,141 284,172 284,192 			"/>
			<polygon opacity="0.11" points="140,143 140,163 280,194 280,174 			"/>
			<polygon opacity="0.29" points="284,172 284,192 280,194 280,174 			"/>
		</g>
		<g>
			<g>
				<polygon fill="#FF9900" points="280,233 140,202 140,182 144,180 284,211 284,231 				"/>
				<polygon opacity="0.11" points="140,182 140,202 280,233 280,213 				"/>
				<polygon opacity="0.29" points="284,211 284,231 280,233 280,213 				"/>
			</g>
			<g>
				<polygon fill="#FF9900" points="276,274 136,165 136,145 140,143 280,252 280,272 				"/>
				<polygon opacity="0.11" points="136,145 136,165 276,274 276,254 				"/>
				<polygon opacity="0.29" points="280,252 280,272 276,274 276,254 				"/>
			</g>
		</g>
		<g>
			<polygon fill="#FF9900" points="280,155 140,124 140,104 144,102 284,133 284,153 			"/>
			<polygon opacity="0.11" points="140,104 140,124 280,155 280,135 			"/>
			<polygon opacity="0.29" points="284,133 284,153 280,155 280,135 			"/>
		</g>
		<g>
			<polygon fill="#FF9900" points="276,235 136,126 136,106 140,104 280,213 280,233 			"/>
			<polygon opacity="0.11" points="136,106 136,126 276,235 276,215 			"/>
			<polygon opacity="0.29" points="280,213 280,233 276,235 276,215 			"/>
		</g>
		<g>
			<polygon fill="#FF9900" points="276,196 136,87 136,67 140,65 280,174 280,194 			"/>
			<polygon opacity="0.11" points="136,67 136,87 276,196 276,176 			"/>
			<polygon opacity="0.29" points="280,174 280,194 276,196 276,176 			"/>
		</g>
	</g>
	<g>
		<g>
			<polygon fill="#FF9900" points="180,244 40,213 40,193 44,191 184,222 184,242 			"/>
			<polygon opacity="0.11" points="40,193 40,213 180,244 180,224 			"/>
			<polygon opacity="0.29" points="184,222 184,242 180,244 180,224 			"/>
		</g>
		<g>
			<g>
				<polygon fill="#FF9900" points="180,283 40,252 40,232 44,230 184,261 184,281 				"/>
				<polygon opacity="0.11" points="40,232 40,252 180,283 180,263 				"/>
				<polygon opacity="0.29" points="184,261 184,281 180,283 180,263 				"/>
			</g>
			<g>
				<polygon fill="#FF9900" points="176,324 36,215 36,195 40,193 180,302 180,322 				"/>
				<polygon opacity="0.11" points="36,195 36,215 176,324 176,304 				"/>
				<polygon opacity="0.29" points="180,302 180,322 176,324 176,304 				"/>
			</g>
		</g>
		<g>
			<polygon fill="#FF9900" points="180,205 40,174 40,154 44,152 184,183 184,203 			"/>
			<polygon opacity="0.11" points="40,154 40,174 180,205 180,185 			"/>
			<polygon opacity="0.29" points="184,183 184,203 180,205 180,185 			"/>
		</g>
		<g>
			<polygon fill="#FF9900" points="176,285 36,176 36,156 40,154 180,263 180,283 			"/>
			<polygon opacity="0.11" points="36,156 36,176 176,285 176,265 			"/>
			<polygon opacity="0.29" points="180,263 180,283 176,285 176,265 			"/>
		</g>
		<g>
			<polygon fill="#FF9900" points="176,246 36,137 36,117 40,115 180,224 180,244 			"/>
			<polygon opacity="0.11" points="36,117 36,137 176,246 176,226 			"/>
			<polygon opacity="0.29" points="180,224 180,244 176,246 176,226 			"/>
		</g>
	</g>
	<polygon fill="#FF9900" points="176,265 280,213 280,233 176,285 	"/>
	<polygon opacity="0.29" points="176,265 280,213 280,233 176,285 	"/>
	<polygon fill="#FF9900" points="176,304 280,252 280,272 176,324 	"/>
	<polygon opacity="0.29" points="176,304 280,252 280,272 176,324 	"/>
	<g>
		<g>
			<polygon fill="#FF9900" points="176,193 36,123 36,114 144,60 284,130 284,139 			"/>
			<polygon opacity="0.11" points="36,114 36,123 176,193 176,184 			"/>
			<polygon opacity="0.29" points="284,130 284,139 176,193 176,184 			"/>
		</g>
	</g>
	<polygon fill="#FF9900" points="176,187 280,135 280,155 176,207 	"/>
	<polygon opacity="0.29" points="176,187 280,135 280,155 176,207 	"/>
	<polygon fill="#FF9900" points="176,226 280,174 280,194 176,246 	"/>
	<polygon opacity="0.29" points="176,226 280,174 280,194 176,246 	"/>
</g>
</svg>
