<?xml version="1.0" encoding="utf-8"?>
<!-- Generator: Adobe Illustrator 18.1.0, SVG Export Plug-In . SVG Version: 6.00 Build 0)  -->
<svg version="1.1" id="Layer_1" xmlns="http://www.w3.org/2000/svg" xmlns:xlink="http://www.w3.org/1999/xlink" x="0px" y="0px"
	 viewBox="0 0 80 240" enable-background="new 0 0 80 240" xml:space="preserve">
<g>
	<path opacity="0.2" d="M16,226.9c-12.3-8.3-0.6-16.8,16.6-19.9c7.5-1.3,21-10.2,39.8,1.8c15.1,9.6-8,12.5-17.6,15.6
		C43.6,228,30.9,236.9,16,226.9z"/>
	<path fill="#FBD7C7" d="M63.1,95.6c0,0,6.6,2.7,8.4,4s5.1,3.8,4.7,6.3c-0.5,2.4-2.1,4.5-5,4.9c-2.9,0.4-3.7-1.1-3.6-1.9
		c0.1-0.7,0.6-2.1,0-2.6c-0.6-0.6-5.5-2.8-6.4-3.9c-0.9-1-2.2-3.1-2.2-3.1L63.1,95.6z"/>
	<polygon fill="#3399CC" points="28.2,46.3 38.6,43.4 45.6,45.1 48.8,107.1 	"/>
	<path fill="#3399CC" d="M53.9,76c0,0,5.9,12.4,7,14.5s2.9,5.1,2.9,5.1l-5,4.3l-2-2.2c0,0-6.5-7.8-7.5-8.5c-1.4-1-0.5-12.6-0.5-12.6
		L53.9,76z"/>
	<path fill="#2D3134" d="M48.7,200.6l10.5,1.2c0,0,0.2,1.8,2.1,3.8c1.9,2,10.1,6.4,11.7,7.6c2.8,2.1,0.9,5-1.5,5.4
		c-2.6,0.4-6.1-0.4-10.5-2c-3.4-1.2-7.5-2.3-11.3-3.6c-3.4-1.1-2.5-5.9-2-8C48.1,202.9,48.7,200.6,48.7,200.6z"/>
	<path opacity="0.4" d="M71.4,217c-2.7,0.4-6.5-0.5-11.2-2.2c-3.7-1.3-8-2.5-12-3.9c-0.3-0.1-0.5-0.2-0.7-0.3c0.3,1,1,1.9,2.2,2.3
		c3.8,1.3,7.9,2.4,11.3,3.6c4.4,1.6,7.9,2.4,10.5,2c1.8-0.3,3.2-1.9,2.8-3.5C73.7,216,72.6,216.8,71.4,217z"/>
	<path fill="#2D3134" d="M15.4,208.7c0.2,0.1,10.6,2.2,10.6,2.2s2.7,6,5.3,8.2c2.1,1.8,8,5.7,7.7,7.9s-6.3,4-11.9,1.1
		c-2.6-1.3-12.9-6.6-13.4-10.1C13.1,214,15.4,208.7,15.4,208.7z"/>
	<path opacity="0.4" d="M27.1,226.3c-2.6-1.3-12.9-6.6-13.4-10.1c0-0.2,0-0.3-0.1-0.5c-0.1,0.8-0.1,1.6,0.1,2.3
		c0.5,3.5,10.8,8.8,13.4,10.1c5.6,2.9,11.6,1.1,11.9-1.1c0-0.3-0.1-0.7-0.3-1.2C37.5,227.7,32.2,228.9,27.1,226.3z"/>
	<path fill="#06547A" d="M30.7,104.4l25.9-0.4c0,0,4.5,19.8,3.6,31.4c-0.9,11.6-1.6,23.2-1.8,33.1c-0.1,9.9,3.4,36.5,2.9,36.9
		c-1.8,1.7-9.1,1.6-11.3,1.7c-2.2,0.1-4-0.6-4-1.3s-0.7-14.9-1.3-19.1c-0.5-4-1.9-12.4-2.3-21.2c-0.4-9.7-1.8-18.1-2.9-22.7
		C38.4,138.3,30.7,104.4,30.7,104.4z"/>
	<path opacity="0.2" d="M30.7,104.4l25.9-0.4c0,0,4.5,19.8,3.6,31.4c-0.9,11.6-1.6,23.2-1.8,33.1c-0.1,9.9,3.4,36.5,2.9,36.9
		c-1.8,1.7-9.1,1.6-11.3,1.7c-2.2,0.1-4-0.6-4-1.3s-0.7-14.9-1.3-19.1c-0.5-4-1.9-12.4-2.3-21.2c-0.4-9.7-1.8-18.1-2.9-22.7
		C38.4,138.3,30.7,104.4,30.7,104.4z"/>
	<path fill="#06547A" d="M21.2,103.8l26,0.8c0,0-5.1,26.6-7.8,36.6s-7.3,23.5-8.2,28.4c-0.9,5-3.4,32.7-3.3,37.4
		c0.1,4.7,0.4,5.6,0.1,6.6c-0.3,1-14.2,2.6-15.8-0.5c-0.4-0.8,0-33.7,1.8-41.2s1.5-21.9,1.4-29.1C15.1,116.8,21.2,103.8,21.2,103.8z
		"/>
	<path fill="#99CC33" d="M28.2,46.3c0,0-9.6,5.5-13.4,9c-6.1,5.7-0.7,17.8,3.1,29.4s-1.7,33.4-1.3,34.4c0.8,1.6,26.5,3.6,29.2,1.7
		c2.4-1.7,2.7-21.2,1.7-29.8s-4.7-17.1-6.8-22.2C38.9,64.3,28.2,46.3,28.2,46.3z"/>
	<path fill="#99CC33" d="M44.2,46.1C44.8,46.5,53,48.4,55,51c2,2.5,0,20.8,0,25.2c0,4.5,1.9,23.2,3.1,33c0.5,3.9,1.9,8.3,1.2,9
		c-1,1.1-7.1,2.7-8.6-0.4c-1.2-2.5-4.9-32.4-5.1-38.1C45.6,73.9,44.2,46.1,44.2,46.1z"/>
	<path fill="#FBD7C7" d="M34.5,106.6c-0.3,0.2-4.5,6.9-4.5,6.9s0,0.7,1.5,3.7c1.5,3.1,3.3,3.9,4.7,4.7s5,2.1,7.2,1.8
		c3.6-0.4,5.9-3.5,5.9-4.8c-0.1-1.1-5.4-4.3-6-5.9c-0.7-1.6-2.5-3.6-4.9-4.7C36,107.3,34.5,106.6,34.5,106.6z"/>
	<path fill="#3399CC" d="M16.7,56.7c3.4-0.3,7.6,3.1,7.6,10.6s-5.2,16.3-7.3,20c-2,3.7-2.3,4.5-2.3,4.5s8,6,10.6,8.4
		c1.4,1.4,5.9,4.5,5.9,4.5l3.3,2l-4.7,7.3l-2.9-1.7c0,0-5.9-3.1-9.1-4.8c-5.2-2.8-15-7-15-11.6c0-4.6,4.1-17.3,5.6-23.8
		C9.9,65.1,10.2,57.3,16.7,56.7z"/>
	<path fill="#FBD7C7" d="M28.9,46.2c0,0,2.6-1.1,2.8-2.9s-5.6-9.2-0.8-16s16.9-5.6,19,1.2s2.3,19.6,0.7,21c-2,1.7-5.6,1-5.6,1
		s-1.2,3.1-0.9,4.9c0.4,2.5-1.9,2.8-3.2,2.7C39,57.9,31.3,53.2,28.9,46.2z"/>
	<path fill="#762C07" d="M30.9,41.6l1.5,0.9c0,0-4-5.4-1.3-6.5c2.6-1.1,3.9,2.2,3.9,2.2s2-3.4,5-3.7c3.1-0.3,11.4-2.2,11.2-4.8
		c-0.1-1-3.4-10-13.3-8.3c-9.9,1.7-10.2,9.9-9.6,13.2C28.8,37.9,30.9,41.6,30.9,41.6z"/>
	<g>
		<path fill="#FFCC00" d="M54.6,32.4c0,0,2.8,1.2,2.8,2.1s-8.3,4.5-14,3.9c-5.7-0.6-16.1-3.5-16.7-5c-0.6-1.5,0.7-16.2,12.7-16.2
			C53.4,17.1,54.6,32.4,54.6,32.4z"/>
		<path opacity="0.2" d="M57.4,34.5c0,0.9-8.3,4.5-14,3.9c-4.6-0.5-12.1-2.4-15.3-4c3.1,1.1,7.3,2.2,10.4,2.1
			c5.4-0.2,14.2-2.8,16.1-4.1C54.6,32.4,57.4,33.6,57.4,34.5z"/>
		<path opacity="0.2" d="M53.1,30.7l-1.2,0.4c-0.6-3.6-3.3-13.4-13.8-13.4c-0.6,0-1.2,0.1-1.8,0.1c0.9-0.3,1.9-0.4,3-0.4
			C49.7,17.5,52.4,26.9,53.1,30.7z"/>
		<path opacity="0.2" d="M48.6,32.2c-0.3-2.6-2-13.8-11.2-13.8c-0.5,0-1,0.1-1.4,0.1c0.7-0.3,1.5-0.4,2.4-0.4
			c9.1,0,11.2,10.9,11.5,13.7L48.6,32.2z"/>
	</g>
</g>
</svg>
