<?xml version="1.0" encoding="utf-8"?>
<!-- Generator: Adobe Illustrator 18.1.0, SVG Export Plug-In . SVG Version: 6.00 Build 0)  -->
<svg version="1.1" id="Layer_1" xmlns="http://www.w3.org/2000/svg" xmlns:xlink="http://www.w3.org/1999/xlink" x="0px" y="0px"
	 viewBox="0 0 240 320" enable-background="new 0 0 240 320" xml:space="preserve">
<polygon opacity="0.3" points="49,161 1,185 117,243 165,219 "/>
<g>
	<polygon fill="#FF9900" points="10,156.7 10,172.7 26,180.7 42,172.7 42,143.7 26,148.7 	"/>
	<polygon opacity="0.11" points="26,180.7 10,172.7 10,156.7 26,151.7 	"/>
	<polygon opacity="0.29" points="26,180.7 42,172.7 42,143.7 26,151.7 	"/>
</g>
<g>
	<path fill="#2D3134" d="M16.5,165c-2.7-1.4-5.1-1.5-7-0.7l0,0l-5.1,2.5l0,0c-1.9,0.9-3.2,2.9-3.2,5.8c0,5.6,4.5,12.4,10.1,15.2
		c2.8,1.4,5.3,1.5,7.1,0.6c0,0,5-2.5,5.5-2.8c1.6-1,2.6-2.9,2.6-5.5C26.6,174.6,22.1,167.8,16.5,165z"/>
	<path opacity="0.39" d="M18.6,188.4c0.7-0.4,5-2.5,5.3-2.7c1.6-1,2.6-2.9,2.6-5.5c0-2.3-0.7-4.7-2-7l-5.1,2.5c1.2,2.3,2,4.7,2,7
		C21.5,185.5,20.4,187.5,18.6,188.4z"/>
	<path fill="#A9ABB0" d="M19,181.4c0,4.2-3.4,5.9-7.6,3.8s-7.6-7.2-7.6-11.4c0-4.2,3.4-5.9,7.6-3.8S19,177.2,19,181.4z"/>
	<path fill="#808285" d="M12,184.9c-4.2-2.1-7.6-7.2-7.6-11.4c0-2.1,0.8-3.5,2.2-4.2c-1.7,0.5-2.8,2.1-2.8,4.5
		c0,4.2,3.4,9.3,7.6,11.4c2.1,1.1,4.1,1.1,5.4,0.4C15.5,186,13.9,185.8,12,184.9z"/>
	<path fill="#2D3134" d="M15.2,178.9c0,1.8-1.4,2.5-3.2,1.6s-3.2-3-3.2-4.8s1.4-2.5,3.2-1.6S15.2,177.2,15.2,178.9z"/>
	<path opacity="0.39" d="M15.2,178.9c0,1.8-1.4,2.5-3.2,1.6s-3.2-3-3.2-4.8s1.4-2.5,3.2-1.6S15.2,177.2,15.2,178.9z"/>
	<path fill="#2D3134" d="M14.6,179.2c0,1.8-1.4,2.5-3.2,1.6s-3.2-3-3.2-4.8s1.4-2.5,3.2-1.6S14.6,177.5,14.6,179.2z"/>
	<path opacity="0.06" d="M21.5,182.7c0,5.6-4.5,7.9-10.1,5.1s-10.1-9.6-10.1-15.2s4.5-7.9,10.1-5.1
		C17,170.3,21.5,177.1,21.5,182.7z"/>
</g>
<g>
	<path fill="#FF9900" d="M38,80c-2.2,0-4,0.9-4,2v69c0,1.1,1.8,2,4,2s4-0.9,4-2V82C42,80.9,40.2,80,38,80z"/>
	<path opacity="0.2" d="M38,84c-2.2,0-4-0.9-4-2v69c0,1.1,1.8,2,4,2s4-0.9,4-2V82C42,83.1,40.2,84,38,84z"/>
	<path fill="#FF9900" d="M38,88c-0.6,0-1.2-0.2-1.8-0.5L13.6,74.2c-1.1-0.7-1.8-1.9-1.7-3.1c0-1.3,0.8-2.4,1.9-3l41.7-20.7
		c1.4-0.7,3-0.4,4.1,0.7s1.3,2.8,0.5,4.1l-19,34c-0.5,0.8-1.2,1.4-2.1,1.7C38.6,88,38.3,88,38,88z M22.7,71.4l14,8.2l11.7-21
		L22.7,71.4z"/>
	<path opacity="0.2" d="M59.5,48.1c-1.1-1.1-2.7-1.4-4.1-0.7L13.8,68c-1.2,0.6-1.9,1.7-1.9,3c0,1.3,0.6,2.5,1.7,3.1l22.7,13.3
		c0.5,0.3,1.2,0.5,1.8,0.5c0.3,0,0.6,0,0.9-0.1c0.9-0.2,1.7-0.8,2.1-1.7l19-34C60.8,50.9,60.6,49.2,59.5,48.1z M36.7,79.7l-14-8.2
		l25.8-12.8L36.7,79.7z M56.3,51.8L14.7,72.5c-0.2,0.1-0.4,0.2-0.7,0.2c-0.6,0-1.1-0.3-1.3-0.8c-0.4-0.7-0.1-1.6,0.7-2L55,49.2
		c0.7-0.4,1.6-0.1,2,0.7S57.1,51.5,56.3,51.8z"/>
</g>
<g>
	<g>
		<g>
			<polygon fill="#FF9900" points="28,131 44,123 52,127 66,155 66,169 22,191.1 14,187.1 14,173.1 			"/>
			<polygon opacity="0.11" points="14,187.1 22,191.1 22,177.1 36,135 28,131 14,173.1 			"/>
			<polygon opacity="0.29" points="66,169 22,191.1 22,177.1 36,135 52,127 66,155 			"/>
		</g>
		<g>
			<polygon fill="#FF9900" points="124,239 134.5,233.8 134.5,232.3 32.5,181.3 22,186.5 22,191 97,228.5 			"/>
			<polygon opacity="0.29" points="134.5,232.3 134.5,233.8 124,239 124,237.5 			"/>
			<polygon opacity="0.11" points="22,186.5 22,191 97,228.5 124,239 124,237.5 			"/>
		</g>
		<g>
			<polygon fill="#FF9900" points="158,222 168.5,216.8 168.5,215.3 66.5,164.3 56,169.5 56,174 131,211.5 			"/>
			<polygon opacity="0.29" points="168.5,215.3 168.5,216.8 158,222 158,220.5 			"/>
			<polygon opacity="0.11" points="56,169.5 56,174 131,211.5 158,222 158,220.5 			"/>
		</g>
	</g>
</g>
</svg>
