<?xml version="1.0" encoding="utf-8"?>
<!-- Generator: Adobe Illustrator 18.1.0, SVG Export Plug-In . SVG Version: 6.00 Build 0)  -->
<svg version="1.1" id="Layer_1" xmlns="http://www.w3.org/2000/svg" xmlns:xlink="http://www.w3.org/1999/xlink" x="0px" y="0px"
	 viewBox="0 0 128 128" enable-background="new 0 0 128 128" xml:space="preserve">
<g>
	<g>
		<polygon fill="#E5E5E5" points="0,32 0,96 64,128 128,96 128,32 		"/>
		<g>
			<g>
				<polygon fill="#FFFFFF" points="91,67 73,76 73,68 91,59 				"/>
				<polygon fill="#3399CC" points="90,66.5 74,74.5 74,68.5 90,60.5 				"/>
				<polygon opacity="0.15" points="90,63.5 74,71.5 74,68.5 90,60.5 				"/>
				<polygon opacity="0.15" points="90,61.5 74,69.5 74,68.5 90,60.5 				"/>
				<polygon opacity="0.15" points="90,66.5 74,68.5 90,60.5 				"/>
			</g>
			<g>
				<polygon fill="#FFFFFF" points="123,51 105,60 105,52 123,43 				"/>
				<polygon fill="#3399CC" points="122,50.5 106,58.5 106,52.5 122,44.5 				"/>
				<polygon opacity="0.15" points="122,47.5 106,55.5 106,52.5 122,44.5 				"/>
				<polygon opacity="0.15" points="122,45.5 106,53.5 106,52.5 122,44.5 				"/>
				<polygon opacity="0.15" points="122,50.5 106,52.5 122,44.5 				"/>
			</g>
		</g>
		<g>
			<g>
				<polygon fill="#FFFFFF" points="37,67 55,76 55,68 37,59 				"/>
				<polygon fill="#3399CC" points="38,66.5 54,74.5 54,68.5 38,60.5 				"/>
				<polygon opacity="0.15" points="38,63.5 54,71.5 54,68.5 38,60.5 				"/>
				<polygon opacity="0.15" points="38,61.5 54,69.5 54,68.5 38,60.5 				"/>
				<polygon opacity="0.15" points="38,66.5 54,68.5 38,60.5 				"/>
			</g>
			<g>
				<polygon fill="#FFFFFF" points="5,51 23,60 23,52 5,43 				"/>
				<polygon fill="#3399CC" points="6,50.5 22,58.5 22,52.5 6,44.5 				"/>
				<polygon opacity="0.15" points="6,47.5 22,55.5 22,52.5 6,44.5 				"/>
				<polygon opacity="0.15" points="6,45.5 22,53.5 22,52.5 6,44.5 				"/>
				<polygon opacity="0.15" points="6,50.5 22,52.5 6,44.5 				"/>
			</g>
		</g>
		<g>
			<g>
				<polygon fill="#FFFFFF" points="37,99 55,108 55,100 37,91 				"/>
				<polygon fill="#3399CC" points="38,98.5 54,106.5 54,100.5 38,92.5 				"/>
				<polygon opacity="0.15" points="38,95.5 54,103.5 54,100.5 38,92.5 				"/>
				<polygon opacity="0.15" points="38,93.5 54,101.5 54,100.5 38,92.5 				"/>
				<polygon opacity="0.15" points="38,98.5 54,100.5 38,92.5 				"/>
			</g>
			<g>
				<polygon fill="#FFFFFF" points="5,83 23,92 23,84 5,75 				"/>
				<polygon fill="#3399CC" points="6,82.5 22,90.5 22,84.5 6,76.5 				"/>
				<polygon opacity="0.15" points="6,79.5 22,87.5 22,84.5 6,76.5 				"/>
				<polygon opacity="0.15" points="6,77.5 22,85.5 22,84.5 6,76.5 				"/>
				<polygon opacity="0.15" points="6,82.5 22,84.5 6,76.5 				"/>
			</g>
		</g>
		<polygon opacity="0.11" points="64,128 0,96 0,32 64,64 		"/>
		<g>
			<polygon fill="#FFFFFF" points="108,104 118,99 118,81 108,86 			"/>
			<polygon fill="#656565" points="117,82.5 109,86.5 109,103.5 117,99.5 			"/>
			<polygon opacity="0.25" fill="#FFFFFF" points="109,102.5 117,98.5 117,97.5 109,101.5 			"/>
			<polygon opacity="0.25" fill="#FFFFFF" points="109,100.5 117,96.5 117,95.5 109,99.5 			"/>
			<polygon opacity="0.25" fill="#FFFFFF" points="109,98.5 117,94.5 117,93.5 109,97.5 			"/>
			<polygon opacity="0.25" fill="#FFFFFF" points="109,96.5 117,92.5 117,91.5 109,95.5 			"/>
			<polygon opacity="0.25" fill="#FFFFFF" points="109,94.5 117,90.5 117,89.5 109,93.5 			"/>
			<polygon opacity="0.25" fill="#FFFFFF" points="109,92.5 117,88.5 117,87.5 109,91.5 			"/>
			<polygon opacity="0.25" fill="#FFFFFF" points="109,90.5 117,86.5 117,85.5 109,89.5 			"/>
			<polygon opacity="0.25" fill="#FFFFFF" points="109,88.5 117,84.5 117,83.5 109,87.5 			"/>
		</g>
		<g>
			<polygon fill="#FFFFFF" points="76,120 86,115 86,97 76,102 			"/>
			<polygon fill="#656565" points="85,98.5 77,102.5 77,119.5 85,115.5 			"/>
			<polygon opacity="0.25" fill="#FFFFFF" points="77,118.5 85,114.5 85,113.5 77,117.5 			"/>
			<polygon opacity="0.25" fill="#FFFFFF" points="77,116.5 85,112.5 85,111.5 77,115.5 			"/>
			<polygon opacity="0.25" fill="#FFFFFF" points="77,114.5 85,110.5 85,109.5 77,113.5 			"/>
			<polygon opacity="0.25" fill="#FFFFFF" points="77,112.5 85,108.5 85,107.5 77,111.5 			"/>
			<polygon opacity="0.25" fill="#FFFFFF" points="77,110.5 85,106.5 85,105.5 77,109.5 			"/>
			<polygon opacity="0.25" fill="#FFFFFF" points="77,108.5 85,104.5 85,103.5 77,107.5 			"/>
			<polygon opacity="0.25" fill="#FFFFFF" points="77,106.5 85,102.5 85,101.5 77,105.5 			"/>
			<polygon opacity="0.25" fill="#FFFFFF" points="77,104.5 85,100.5 85,99.5 77,103.5 			"/>
		</g>
		<polygon opacity="0.29" points="64,128 128,96 128,32 64,64 		"/>
		<g>
			<polygon fill="#999999" points="128,106 118,111 108,106 108,104 118,99 122,101 			"/>
			<polygon opacity="0.11" points="118,111 118,111 112,106 108,104 108,106 			"/>
			<polygon opacity="0.15" points="122,101 112,106 118,111 118,111 118,111 128,106 			"/>
		</g>
		<g>
			<polygon fill="#999999" points="96,122 86,127 76,122 76,120 86,115 90,117 			"/>
			<polygon opacity="0.11" points="86,127 86,127 80,122 76,120 76,122 			"/>
			<polygon opacity="0.15" points="90,117 80,122 86,127 86,127 86,127 96,122 			"/>
		</g>
	</g>
	<g>
		<g>
			<g>
				<polygon fill="#2D3134" points="64,0 128,32 64,64 0,32 				"/>
			</g>
			<g>
				<polygon fill="#2D3134" points="64,0 128,32 64,64 0,32 				"/>
			</g>
		</g>
	</g>
</g>
</svg>
