<?xml version="1.0" encoding="utf-8"?>
<!-- Generator: Adobe Illustrator 18.1.0, SVG Export Plug-In . SVG Version: 6.00 Build 0)  -->
<svg version="1.1" id="Layer_1" xmlns="http://www.w3.org/2000/svg" xmlns:xlink="http://www.w3.org/1999/xlink" x="0px" y="0px"
	 viewBox="0 0 56 48" enable-background="new 0 0 56 48" xml:space="preserve">
<g>
	<rect x="9" fill="#FFFFFF" width="42" height="30"/>
	<g>
		<rect x="9" fill="#2D3134" width="6" height="6"/>
	</g>
	<g>
		<rect x="9" y="12" fill="#2D3134" width="6" height="6"/>
	</g>
	<g>
		<rect x="9" y="24" fill="#2D3134" width="6" height="6"/>
	</g>
	<g>
		<rect x="15" y="6" fill="#2D3134" width="6" height="6"/>
	</g>
	<g>
		<rect x="15" y="18" fill="#2D3134" width="6" height="6"/>
	</g>
	<g>
		<rect x="21" fill="#2D3134" width="6" height="6"/>
	</g>
	<g>
		<rect x="21" y="12" fill="#2D3134" width="6" height="6"/>
	</g>
	<g>
		<rect x="21" y="24" fill="#2D3134" width="6" height="6"/>
	</g>
	<g>
		<rect x="27" y="6" fill="#2D3134" width="6" height="6"/>
	</g>
	<g>
		<rect x="27" y="18" fill="#2D3134" width="6" height="6"/>
	</g>
	<g>
		<rect x="33" fill="#2D3134" width="6" height="6"/>
	</g>
	<g>
		<rect x="33" y="12" fill="#2D3134" width="6" height="6"/>
	</g>
	<g>
		<rect x="33" y="24" fill="#2D3134" width="6" height="6"/>
	</g>
	<g>
		<rect x="45" fill="#2D3134" width="6" height="6"/>
	</g>
	<g>
		<rect x="45" y="12" fill="#2D3134" width="6" height="6"/>
	</g>
	<g>
		<rect x="45" y="24" fill="#2D3134" width="6" height="6"/>
	</g>
	<g>
		<rect x="39" y="6" fill="#2D3134" width="6" height="6"/>
	</g>
	<g>
		<rect x="39" y="18" fill="#2D3134" width="6" height="6"/>
	</g>
	<path fill="#825012" d="M8,48L8,48c-0.6,0-1-0.4-1-1V1c0-0.6,0.4-1,1-1h1v47C9,47.6,8.6,48,8,48z"/>
</g>
</svg>
