<?xml version="1.0" encoding="utf-8"?>
<!-- Generator: Adobe Illustrator 18.1.0, SVG Export Plug-In . SVG Version: 6.00 Build 0)  -->
<svg version="1.1" id="Layer_1" xmlns="http://www.w3.org/2000/svg" xmlns:xlink="http://www.w3.org/1999/xlink" x="0px" y="0px"
	 viewBox="0 0 32 32" enable-background="new 0 0 32 32" xml:space="preserve">
<g>
	<path fill="#2D3134" d="M16,1C7.7,1,1,7.7,1,16c0,8.3,6.7,15,15,15c8.3,0,15-6.7,15-15C31,7.7,24.3,1,16,1z M16,29.1
		C8.8,29.1,2.9,23.2,2.9,16C2.9,8.8,8.8,2.9,16,2.9c7.2,0,13.1,5.8,13.1,13.1C29.1,23.2,23.2,29.1,16,29.1z"/>
	<path fill="#2D3134" d="M16,25c-0.6,0-1,0.4-1,1v1c0,0.6,0.4,1,1,1s1-0.4,1-1v-1C17,25.4,16.6,25,16,25z"/>
	<path fill="#2D3134" d="M6,15H5c-0.6,0-1,0.4-1,1s0.4,1,1,1h1c0.6,0,1-0.4,1-1S6.6,15,6,15z"/>
	<path fill="#2D3134" d="M27,15h-1c-0.6,0-1,0.4-1,1s0.4,1,1,1h1c0.6,0,1-0.4,1-1S27.6,15,27,15z"/>
	<path fill="#2D3134" d="M22,15h-5V5c0-0.6-0.4-1-1-1s-1,0.4-1,1v11c0,0.6,0.4,1,1,1h6c0.6,0,1-0.4,1-1S22.6,15,22,15z"/>
</g>
</svg>
