<?xml version="1.0" encoding="utf-8"?>
<!-- Generator: Adobe Illustrator 18.1.0, SVG Export Plug-In . SVG Version: 6.00 Build 0)  -->
<svg version="1.1" id="Layer_1" xmlns="http://www.w3.org/2000/svg" xmlns:xlink="http://www.w3.org/1999/xlink" x="0px" y="0px"
	 viewBox="0 0 64 32" enable-background="new 0 0 64 32" xml:space="preserve">
<path fill-rule="evenodd" clip-rule="evenodd" fill="#2D3134" d="M44.1,17.8c1.9-1.9,7.8-2.8,7.8-2.8s-5-1.1-11.6,0.1
	c-3.4,0.7-5.3,1.4-5.3,1.4s2.5-2,5.5-3.5c3-1.5,9.2-3.2,9.2-3.2S40.1,8.6,32,10.4c-3.1,0.7-7.5,2-11,3.6c2.6-2.7,7.7-4.6,7.7-4.6
	s-9.9,0.4-15,6c-3.4,3.7,0.6,6.7,3.7,8.3c-0.7-0.6-1.7-1.6-2-3c-0.8-3.7,3.2-5.6,3.2-5.6s-1.3,1.3-0.3,3.2c1.1,1.9,2.5,2.5,2.5,2.5
	s-0.9-1.1,1.4-3.5c2.7-2.7,13.7-4.6,13.7-4.6s-3.5,1.5-6.3,3.4c-3,2-2.3,4.1-2.3,4.1s2-0.7,4.1-1.1c2-0.4,6.5-0.9,6.5-0.9
	s-3.2,0.9-5.1,2.6c-1,0.9-1.4,1.9-3.8,2.8c-4.3,1.8-7.5,1.5-9.2,1c0.1,0,0.1,0,0.2,0.1c0.2,0.1,0.3,0.1,0.3,0.1s0,0,0,0
	c3.5,1,10.9,2.6,16.6-0.3C40.9,22.5,41.9,20,44.1,17.8z"/>
</svg>
