<?xml version="1.0" encoding="utf-8"?>
<!-- Generator: Adobe Illustrator 18.1.0, SVG Export Plug-In . SVG Version: 6.00 Build 0)  -->
<svg version="1.1" id="Layer_1" xmlns="http://www.w3.org/2000/svg" xmlns:xlink="http://www.w3.org/1999/xlink" x="0px" y="0px"
	 viewBox="0 0 32 56" enable-background="new 0 0 32 56" xml:space="preserve">
<path fill="#2D3134" d="M32,28c-0.3-2.9-2.6-6.3-5.5-7.7c-2.9-1.4-5.2-0.4-5.5,2.3l0,0v2L32,30L32,28L32,28z"/>
<path fill="#2D3134" d="M21,25.5v1.6l1.2,1.2c0.1,0.1,0.3,0.3,0.4,0.5l4.5,6.7c0.3,0.4,0.4,0.9,0.4,1.3s-0.2,0.7-0.4,0.8l-0.5,0.3
	c-0.2,0.1-0.4,0.1-0.6,0.1V47l5.5,2.7c0.3,0.1,0.5,0,0.5-0.3V31L21,25.5z"/>
<path fill="#2D3134" d="M26.4,35.8l-4.5-6.7c0-0.1-0.1-0.1-0.1-0.2l-8-8c-0.1-0.1-0.3-0.2-0.4-0.2l-8,0c0,0-0.1,0-0.1,0L0.6,23
	c-0.1,0-0.1,0.1-0.1,0.3s0.1,0.3,0.1,0.4l0.5,0.8c0.1,0.1,0.2,0.3,0.4,0.3L2,25v9.5c0,0.3,0.2,0.6,0.5,0.7L25,46.5v-10l0.5,0.2
	c0.1,0.1,0.3,0.1,0.4,0l0.5-0.2c0.1,0,0.1-0.1,0.1-0.3S26.4,36,26.4,35.8z M11,24.5l5,2.5v2l-5-2.5V24.5z M17.4,32.7l-3.8,1.9
	l-3.8-5.7L17.4,32.7z M9,29.2l3.8,5.7L9,36.9V29.2z M9.8,37.9l3.8-1.9l3.8,5.6L9.8,37.9z M18,41.3l-3.8-5.6l3.8-1.9V41.3z"/>
</svg>
