<?xml version="1.0" encoding="utf-8"?>
<!-- Generator: Adobe Illustrator 18.1.0, SVG Export Plug-In . SVG Version: 6.00 Build 0)  -->
<svg version="1.1" id="Layer_1" xmlns="http://www.w3.org/2000/svg" xmlns:xlink="http://www.w3.org/1999/xlink" x="0px" y="0px"
	 viewBox="0 0 64 32" enable-background="new 0 0 64 32" xml:space="preserve">
<path fill="#2D3134" d="M56.2,20c2.5-1.5,2.4-3.8-0.5-5.2s-7.4-1.5-10.5-0.2l0,0l-2,1l11,5.5L56.2,20L56.2,20z"/>
<path fill="#2D3134" d="M42,16l-1.6,0.8l0.6,0.9c0.1,0.1,0.1,0.2,0.1,0.3v4.5c0,0.3-0.2,0.5-0.6,0.8s-0.9,0.3-1.5,0.3h-1
	c-0.3,0-0.6,0-0.9-0.1L28,28l5.5,2.8c0.3,0.1,0.7,0.1,1,0L53,21.5L42,16z"/>
<path fill="#2D3134" d="M39.7,22.5V18c0,0,0-0.1,0-0.1l-4-6c-0.1-0.1-0.2-0.2-0.4-0.2l-12-2c-0.1,0-0.1,0-0.2,0h-9
	c-0.2,0-0.4,0-0.5,0.1s-0.2,0.2-0.2,0.2l0,0.5c0,0.1,0.1,0.2,0.2,0.3L14,11l-9.5,4.8c-0.3,0.1-0.3,0.4,0,0.5L27,27.5l10-5l0.5,0.2
	c0.1,0.1,0.3,0.1,0.5,0.1l1,0c0.2,0,0.4,0,0.5-0.1S39.7,22.6,39.7,22.5z M28,13l5,2.5l-2,1L26,14L28,13z M29.4,18.7h-7.6v-3.8
	L29.4,18.7z M20.3,14.9l0,3.8h-7.6L20.3,14.9z M12.8,19.4h7.5v3.8L12.8,19.4z M21.7,23.1l0-3.8h7.5L21.7,23.1z"/>
</svg>
