<?xml version="1.0" encoding="utf-8"?>
<!-- Generator: Adobe Illustrator 18.1.0, SVG Export Plug-In . SVG Version: 6.00 Build 0)  -->
<svg version="1.1" id="Layer_1" xmlns="http://www.w3.org/2000/svg" xmlns:xlink="http://www.w3.org/1999/xlink" x="0px" y="0px"
	 viewBox="0 0 32 56" enable-background="new 0 0 32 56" xml:space="preserve">
<path fill="#2D3134" d="M29.1,39.5L32,33L13.3,13.7c0,0,0,0,0,0l0,0l0,0c-0.1-0.1-0.2-0.2-0.4-0.2L4,12.8C3.9,11.7,3,10.5,2,10
	c-1.1-0.6-2-0.1-2,1c0,0.7,0.4,1.6,1,2.2v23.3l2,1V14.2c0.5,0,0.8-0.3,0.9-0.7l4.5,10.2c0.1,0.1,0.2,0.3,0.3,0.4l0,0l0,0
	c0,0,0,0,0,0L29.1,39.5z M26.5,36.6l-2.9-2.2l2.7-6.1L29,31L26.5,36.6z M20.7,32.1l-2.9-2.2l3.2-7.2l2.7,2.8L20.7,32.1z M14.9,27.7
	l-2.9-2.2l3.7-8.3l2.7,2.8L14.9,27.7z M5,14l7.9,0.6l-3.8,8.6L5,14z"/>
</svg>
