<?xml version="1.0" encoding="utf-8"?>
<!-- Generator: Adobe Illustrator 18.1.0, SVG Export Plug-In . SVG Version: 6.00 Build 0)  -->
<svg version="1.1" id="Layer_1" xmlns="http://www.w3.org/2000/svg" xmlns:xlink="http://www.w3.org/1999/xlink" x="0px" y="0px"
	 viewBox="0 0 64 32" enable-background="new 0 0 64 32" xml:space="preserve">
<path fill="#2D3134" d="M32.5,17.7H54c0.6,0,1.1-0.2,1.3-0.4s0.1-0.6-0.3-0.8l-4.6-2.3H57c0.8,0,1.4-0.3,1.4-0.7s-0.6-0.7-1.4-0.7
	h-9.4L31,4.5c-0.4-0.2-1-0.3-1.5-0.2S28.6,4.7,28.6,5v10.8c0,0.6-0.5,1.2-1.3,1.6l-8.4,4.2c-1,0.5-2.7,0.5-3.7,0L13,20.5
	c0,0,0,0,0,0c-1.3-0.6-3.2,0.4-1.9,1l10,5c1.2,0.6,3.2-0.2,2.2-0.9c-0.1-0.1-0.2-0.1-0.3-0.2l-1.2-0.6c-1-0.5-1.9-1.8-0.9-2.3
	l8.4-4.2C30.1,17.9,31.3,17.7,32.5,17.7z M50.6,16.3h-8l-4.2-2.1h8L50.6,16.3z M43.6,12.8h-8l-4.2-2.1v-4L43.6,12.8z"/>
</svg>
