<?xml version="1.0" encoding="utf-8"?>
<!-- Generator: Adobe Illustrator 18.1.0, SVG Export Plug-In . SVG Version: 6.00 Build 0)  -->
<svg version="1.1" id="Layer_1" xmlns="http://www.w3.org/2000/svg" xmlns:xlink="http://www.w3.org/1999/xlink" x="0px" y="0px"
	 viewBox="0 0 64 32" enable-background="new 0 0 64 32" xml:space="preserve">
<g>
	<path fill-rule="evenodd" clip-rule="evenodd" fill="#2D3134" d="M21.7,22.1l11.8-5.9c0.4-0.2,0.4-0.6,0-0.8
		c-0.4-0.2-1.2-0.2-1.6,0l-11.8,5.9c0,0,0,0,0,0c0,0,0,0,0,0c-0.6,0.3-1.6,0.3-2.2,0c-0.6-0.3-0.6-0.8,0-1.1c0,0,0,0,0,0
		c0.4-0.2,0.4-0.6-0.1-0.8s-1.1-0.2-1.6,0c0,0,0,0,0,0c-1.5,0.7-1.5,2,0,2.7C17.7,22.9,20.1,22.9,21.7,22.1
		C21.6,22.1,21.7,22.1,21.7,22.1C21.7,22.1,21.7,22.1,21.7,22.1z"/>
	<path fill-rule="evenodd" clip-rule="evenodd" fill="#2D3134" d="M45.9,10.1L45.9,10.1c0.6-0.3,0.6-0.7,0-1s-1.4-0.3-2,0l0,0
		c-8-3.6-18.8-4.4-26-2c1.9,0.3,3.7,0.8,5.2,1.6c2.3,1.2,3.6,2.6,3.7,4c2.9,0.1,5.8,0.7,8.1,1.9c2.3,1.2,3.6,2.6,3.7,4
		c2.9,0.1,5.8,0.7,8.1,1.9c1.5,0.8,2.6,1.7,3.2,2.6C54.6,19.4,53.1,14,45.9,10.1z"/>
</g>
</svg>
