<?xml version="1.0" encoding="utf-8"?>
<!-- Generator: Adobe Illustrator 18.1.0, SVG Export Plug-In . SVG Version: 6.00 Build 0)  -->
<svg version="1.1" id="Layer_1" xmlns="http://www.w3.org/2000/svg" xmlns:xlink="http://www.w3.org/1999/xlink" x="0px" y="0px"
	 viewBox="0 0 32 56" enable-background="new 0 0 32 56" xml:space="preserve">
<path fill-rule="evenodd" clip-rule="evenodd" fill="#2D3134" d="M27.8,46.1L20,25.8V16l1,0.5c0.6,0.3,1,0.1,1-0.5s-0.4-1.2-1-1.5
	l-10-5c-0.6-0.3-1-0.1-1,0.5s0.4,1.2,1,1.5l1,0.5v9.8L4.2,34.3c-0.4,0.6-0.3,1.6,0.2,2.7c0.5,1,1.3,1.9,2.3,2.4l18.7,9.3
	c0.9,0.5,1.8,0.4,2.3-0.1C28.1,48,28.2,47.1,27.8,46.1z M13.9,23.4C14,23.3,14,23.1,14,23V13l4,2v10c0,0.1,0,0.3,0.1,0.5l3.6,9.4
	l-11.4-5.7L13.9,23.4z"/>
</svg>
