<?xml version="1.0" encoding="utf-8"?>
<!-- Generator: Adobe Illustrator 18.1.0, SVG Export Plug-In . SVG Version: 6.00 Build 0)  -->
<svg version="1.1" id="Layer_1" xmlns="http://www.w3.org/2000/svg" xmlns:xlink="http://www.w3.org/1999/xlink" x="0px" y="0px"
	 viewBox="0 0 32 32" enable-background="new 0 0 32 32" xml:space="preserve">
<g>
	<path fill="#2D3134" d="M5.9,19c-0.4-0.2-1.1-0.4-1.9-0.6c-0.9-0.2-1.4-0.4-1.6-0.6C2.1,17.7,2,17.5,2,17.3c0-0.2,0.1-0.4,0.3-0.5
		c0.3-0.2,0.7-0.3,1.2-0.3c0.5,0,0.9,0.1,1.1,0.3s0.4,0.5,0.5,1L7,17.6c0-0.8-0.3-1.4-0.9-1.9C5.5,15.2,4.7,15,3.6,15
		c-0.7,0-1.3,0.1-1.7,0.3c-0.5,0.2-0.9,0.5-1.1,0.9S0.3,17,0.3,17.4c0,0.7,0.3,1.3,0.8,1.8c0.4,0.3,1.1,0.6,2,0.9
		c0.7,0.2,1.2,0.3,1.4,0.4c0.3,0.1,0.5,0.2,0.6,0.4s0.2,0.3,0.2,0.5c0,0.3-0.1,0.6-0.4,0.8c-0.3,0.2-0.7,0.4-1.3,0.4
		c-0.5,0-1-0.1-1.3-0.4c-0.3-0.3-0.5-0.7-0.6-1.3L0,21c0.1,1,0.5,1.7,1.1,2.2C1.7,23.7,2.5,24,3.7,24c0.8,0,1.4-0.1,1.9-0.3
		c0.5-0.2,0.9-0.5,1.2-1c0.3-0.4,0.4-0.9,0.4-1.4c0-0.5-0.1-1-0.4-1.4C6.6,19.5,6.3,19.2,5.9,19z"/>
	<path fill="#2D3134" d="M11.3,15l-3.5,9h1.9l0.7-2H14l0.8,2h1.9l-3.6-9H11.3z M11,20.4l1.2-3.3l1.2,3.3H11z"/>
	<polygon fill="#2D3134" points="19.8,15.1 18,15.1 18,24 24,24 24,22.5 19.8,22.5 	"/>
	<polygon fill="#2D3134" points="27,22.5 27,20 31,20 31,18.5 27,18.5 27,16.5 31.8,16.5 31.8,15 25,15 25,24 32,24 32,22.5 	"/>
	<polygon fill="#2D3134" points="0.9,9.8 3.5,9.8 3.5,9 0.9,9 0.9,6.9 4.6,6.9 4.6,6.1 0,6.1 0,12.9 0.9,12.9 	"/>
	<path fill="#2D3134" d="M6.7,12.5C7.2,12.8,7.8,13,8.5,13c0.6,0,1.2-0.1,1.8-0.4c0.5-0.3,1-0.7,1.3-1.2S12,10.2,12,9.5
		c0-0.7-0.1-1.3-0.4-1.8c-0.3-0.5-0.7-0.9-1.2-1.2C9.8,6.1,9.2,6,8.5,6C7.5,6,6.6,6.3,6,7C5.3,7.6,5,8.5,5,9.6
		c0,0.6,0.1,1.2,0.4,1.7C5.7,11.8,6.1,12.2,6.7,12.5z M6.7,7.4C7.2,7,7.8,6.8,8.5,6.8c0.5,0,0.9,0.1,1.3,0.3c0.4,0.2,0.7,0.5,0.9,1
		C10.9,8.5,11,9,11,9.5c0,0.9-0.2,1.5-0.7,2s-1.1,0.7-1.8,0.7c-0.7,0-1.3-0.2-1.8-0.7C6.2,11.1,6,10.4,6,9.6C6,8.6,6.2,7.9,6.7,7.4z
		"/>
	<path fill="#2D3134" d="M17.9,11.2c-0.2-0.4-0.5-0.7-0.7-0.9c-0.1-0.1-0.3-0.2-0.5-0.3c0.6-0.1,1.1-0.3,1.4-0.6
		c0.3-0.3,0.5-0.7,0.5-1.2c0-0.4-0.1-0.7-0.3-1c-0.2-0.3-0.4-0.5-0.8-0.6s-0.8-0.2-1.4-0.2l-3-0.1v6.8H14v-3l1,0.1
		c0.2,0,0.4,0,0.5,0c0.1,0,0.3,0.1,0.4,0.2c0.1,0.1,0.3,0.2,0.5,0.5s0.4,0.5,0.6,0.9l0.9,1.4h1.1L17.9,11.2z M15.9,9.2L14,9.1V6.9
		L16.1,7c0.5,0,0.9,0.1,1.1,0.3c0.2,0.2,0.3,0.5,0.3,0.8c0,0.2-0.1,0.4-0.2,0.6S17.1,9,16.9,9.1S16.3,9.2,15.9,9.2z"/>
</g>
</svg>
