<?xml version="1.0" encoding="utf-8"?>
<!-- Generator: Adobe Illustrator 18.1.0, SVG Export Plug-In . SVG Version: 6.00 Build 0)  -->
<svg version="1.1" id="Layer_1" xmlns="http://www.w3.org/2000/svg" xmlns:xlink="http://www.w3.org/1999/xlink" x="0px" y="0px"
	 viewBox="0 0 64 32" enable-background="new 0 0 64 32" xml:space="preserve">
<g>
	<path fill-rule="evenodd" clip-rule="evenodd" fill="#2D3134" d="M43.5,10.8c1.4,0.7,3.6,0.7,5,0c1.4-0.7,1.4-1.8,0-2.5
		s-3.6-0.7-5,0C42.1,8.9,42.1,10.1,43.5,10.8z"/>
	<path fill-rule="evenodd" clip-rule="evenodd" fill="#2D3134" d="M39.6,20.9l6.5-6.5c0.5-0.5,0.3-1.1-0.5-1.5l-6.3-3.2
		c-0.8-0.4-2-0.5-3-0.2l-13.1,3.3c-0.7,0.2-1,0.6-0.8,0.9c0.3,0.5,1.3,0.7,2.2,0.5L35,11.5l1,0.5l-16,4l3,1.5l-8.9,4.4
		c-0.6,0.3-0.6,0.8,0,1.1l0.8,0.4c0.6,0.3,1.6,0.3,2.2,0L26,19l1,0.5l-8.9,4.4c-0.6,0.3-0.6,0.8,0,1.1l0.8,0.4
		c0.6,0.3,1.6,0.3,2.2,0L30,21l3,1.5l8-8l1,0.5l-5.2,5.2c-0.4,0.4,0,0.9,0.9,1.1C38.5,21.4,39.3,21.2,39.6,20.9z"/>
</g>
</svg>
