<?xml version="1.0" encoding="utf-8"?>
<!-- Generator: Adobe Illustrator 18.1.0, SVG Export Plug-In . SVG Version: 6.00 Build 0)  -->
<svg version="1.1" id="Layer_1" xmlns="http://www.w3.org/2000/svg" xmlns:xlink="http://www.w3.org/1999/xlink" x="0px" y="0px"
	 viewBox="0 0 32 56" enable-background="new 0 0 32 56" xml:space="preserve">
<path fill="#2D3134" d="M29,30.5c-0.1,0-0.2-0.1-0.2-0.1c-0.3-1.8-1-3.6-1.8-5.4c0.1,0,0.1,0,0.2-0.1c0.4-0.2,0.6-0.6,0.6-1.1
	c0-0.5-0.2-1.1-0.6-1.7l-0.7-1.1c-0.8-1.1-2.1-1.8-2.8-1.4c-0.1,0-0.1,0.1-0.2,0.1c-1.3-1.5-2.8-2.9-4.4-4.1c0-0.1,0-0.2,0-0.2
	c0-1.1-0.9-2.4-2-3L16,12c-1.1-0.6-2-0.1-2,1c0,0.1,0,0.2,0,0.3c-1.6-0.5-3.1-0.6-4.4-0.4c-0.1-0.1-0.1-0.2-0.2-0.3
	c-0.8-1.1-2.1-1.8-2.8-1.4l-0.7,0.4c-0.4,0.2-0.6,0.6-0.6,1.1c0,0.5,0.2,1.1,0.6,1.7C6,14.5,6,14.5,6.1,14.6
	c-0.9,0.9-1.5,2.1-1.8,3.5C4.2,18.1,4.1,18,4,18c-1.1-0.6-2-0.1-2,1v1c0,1.1,0.9,2.4,2,3c0.1,0,0.2,0.1,0.2,0.1
	c0.3,1.8,1,3.6,1.8,5.4c-0.1,0-0.1,0-0.2,0.1c-0.4,0.2-0.6,0.6-0.6,1.1c0,0.5,0.2,1.1,0.6,1.7l0.7,1.1C7,33,7.5,33.4,8,33.7
	c0.5,0.3,1,0.3,1.4,0.1c0.1,0,0.1-0.1,0.2-0.1c0.6,0.7,1.3,1.5,2,2.1L10.1,39L9,38.5c-0.6-0.3-1-0.1-1,0.5c0,0.6,0.4,1.2,1,1.5
	L23.9,48c0.6,0.3,1,0.1,1-0.5c0-0.6-0.4-1.2-1-1.5l-1-0.5l-1.6-4.8c0.7,0.1,1.4,0,2-0.1c0.1,0.1,0.1,0.2,0.2,0.3
	c0.4,0.6,0.9,1,1.4,1.3c0.5,0.3,1,0.3,1.4,0.1l0.7-0.4c0.4-0.2,0.6-0.6,0.6-1.1c0-0.5-0.2-1.1-0.6-1.7C27,39,27,38.9,26.9,38.9
	c0.9-0.9,1.5-2.1,1.8-3.5c0.1,0.1,0.2,0.1,0.2,0.1c1.1,0.6,2,0.1,2-1v-1C31,32.4,30.1,31,29,30.5z M17,16.5c0.7,0.3,1.2,0.3,1.6,0
	c1.6,1.1,3.1,2.5,4.4,4c-0.1,0.6,0.1,1.3,0.6,2l-5.7,2.8c-0.3-0.3-0.6-0.6-0.9-0.8V16.5z M17,30.1l3.1,9.3c-0.5-0.1-1-0.2-1.5-0.4
	c-0.4-0.7-0.9-1.3-1.6-1.6V30.1z M10,14c1.3-0.2,2.8-0.1,4.4,0.4c0.4,0.7,0.9,1.3,1.6,1.6V24c-0.3-0.1-0.6-0.1-0.9-0.1l-5.7-8.5
	C9.9,15.2,10.1,14.7,10,14z M7,15.5c0.1,0.1,0.2,0.1,0.3,0.2c0.5,0.3,1,0.3,1.4,0.1l5.7,8.5c-0.2,0.2-0.3,0.4-0.4,0.7L6,21
	c0-0.7-0.3-1.4-0.8-2C5.5,17.5,6.1,16.4,7,15.5z M8.7,29.9c-0.5-0.7-1.1-1.2-1.7-1.4c-0.9-1.8-1.5-3.6-1.8-5.3C5.7,23.1,6,22.7,6,22
	l8.1,4c0.1,0.4,0.2,0.7,0.4,1.1L8.7,29.9z M10,33c0.1-0.6-0.1-1.3-0.6-2l5.7-2.8c0.1,0.1,0.1,0.1,0.2,0.2L12,35.1
	C11.3,34.4,10.6,33.7,10,33z M16,29.6V37c-0.7-0.3-1.2-0.3-1.6,0c-0.5-0.3-1-0.7-1.5-1.1L16,29.6z M21.9,44.9l-10.7-5.4l1.4-2.9
	c0.5,0.4,1,0.8,1.5,1.1c0,0.1,0,0.1,0,0.2c0,1.1,0.9,2.4,2,3l1,0.5c1.1,0.6,2,0.1,2-1c0-0.1,0-0.2,0-0.3c0.5,0.1,1,0.3,1.5,0.3
	L21.9,44.9z M23,39.5c-0.6,0.1-1.3,0.2-2,0.1l-3.3-10.1c0.1,0,0.1,0,0.2,0l5.7,8.5C23.1,38.3,22.9,38.8,23,39.5z M26,38
	c-0.6-0.4-1.2-0.5-1.7-0.3l-5.7-8.5c0.2-0.2,0.3-0.4,0.4-0.7l8.1,4c0,0.7,0.3,1.4,0.8,2C27.5,36,26.9,37.1,26,38z M27,31.5l-8.1-4
	c-0.1-0.4-0.2-0.7-0.4-1.1l5.7-2.8c0.4,0.6,0.9,1,1.4,1.3c0.1,0,0.2,0.1,0.3,0.1c0.9,1.8,1.5,3.6,1.8,5.3C27.3,30.4,27,30.8,27,31.5
	z"/>
</svg>
