<?xml version="1.0" encoding="utf-8"?>
<!-- Generator: Adobe Illustrator 18.1.0, SVG Export Plug-In . SVG Version: 6.00 Build 0)  -->
<svg version="1.1" id="Layer_1" xmlns="http://www.w3.org/2000/svg" xmlns:xlink="http://www.w3.org/1999/xlink" x="0px" y="0px"
	 viewBox="0 0 64 32" enable-background="new 0 0 64 32" xml:space="preserve">
<g>
	<path fill="#2D3134" d="M62.5,16.7c0.7-0.1,1.1-0.6,0.8-0.9c-0.3-0.4-1.1-0.5-1.8-0.4l-10.6,2.1L41,12.5l-22,13l10,5L56,20l-3-1.5
		L62.5,16.7z M41.2,14.6L48,18l-7.2,1.4l-4.2-2.1L41.2,14.6z M51.7,19.9l-5.6,2.2L43,20.5l7.2-1.4L51.7,19.9z"/>
	<path fill="#2D3134" d="M2.9,15.5c-1.1,0.5-1.1,1.4,0,1.9L14.1,23c1.1,0.5,2.8,0.5,3.8,0l1.1-0.5L4,15L2.9,15.5z"/>
	<path fill="#2D3134" d="M25.1,19.5c1.1-0.5,1.1-1.4,0-1.9L13.9,12c-1.1-0.5-2.8-0.5-3.8,0L9,12.5L24,20L25.1,19.5z"/>
	<path fill="#2D3134" d="M22.5,20.2l-14-7c-0.8-0.4-2.2-0.4-3,0s-0.8,1.1,0,1.5l14,7c0.8,0.4,2.2,0.4,3,0S23.3,20.7,22.5,20.2z"/>
</g>
</svg>
