<?xml version="1.0" encoding="utf-8"?>
<!-- Generator: Adobe Illustrator 18.1.0, SVG Export Plug-In . SVG Version: 6.00 Build 0)  -->
<svg version="1.1" id="Layer_1" xmlns="http://www.w3.org/2000/svg" xmlns:xlink="http://www.w3.org/1999/xlink" x="0px" y="0px"
	 viewBox="0 0 32 56" enable-background="new 0 0 32 56" xml:space="preserve">
<g>
	<path fill-rule="evenodd" clip-rule="evenodd" fill="#2D3134" d="M30.5,31.2l-1-0.5c-0.8-0.4-1.5-0.1-1.5,0.8V40L4,28V15.5
		c0-0.8-0.7-1.8-1.5-2.2l-1-0.5C0.7,12.3,0,12.7,0,13.5V34l4,2v-4l24,12v4l4,2V33.5C32,32.7,31.3,31.7,30.5,31.2z"/>
	<path fill-rule="evenodd" clip-rule="evenodd" fill="#2D3134" d="M27,35.1c0-2-1.6-4.4-3.6-5.4L15,25.5v7l12,6V35.1z"/>
	<path fill-rule="evenodd" clip-rule="evenodd" fill="#2D3134" d="M14,26.5c0-0.8-0.7-1.8-1.5-2.2S11,24.2,11,25v2.5l-6-3v3l9,4.5
		V26.5z"/>
	<path fill-rule="evenodd" clip-rule="evenodd" fill="#2D3134" d="M7.5,24.7c1.4,0.7,2.5,0.1,2.5-1.3c0-1.4-1.1-3.1-2.5-3.7
		C6.1,19.1,5,19.6,5,21C5,22.4,6.1,24.1,7.5,24.7z"/>
</g>
</svg>
