<?xml version="1.0" encoding="utf-8"?>
<!-- Generator: Adobe Illustrator 18.1.0, SVG Export Plug-In . SVG Version: 6.00 Build 0)  -->
<svg version="1.1" id="Layer_1" xmlns="http://www.w3.org/2000/svg" xmlns:xlink="http://www.w3.org/1999/xlink" x="0px" y="0px"
	 viewBox="0 0 32 32" enable-background="new 0 0 32 32" xml:space="preserve">
<g>
	<path fill="#2D3134" d="M16.4,0.1c-0.2-0.2-0.5-0.2-0.7,0L9.8,6h12.4L16.4,0.1z"/>
	<path fill="#2D3134" d="M20,14h2v-2H10v2h2L9.1,30H8v2h6v-5c0-1.1,0.9-2,2-2s2,0.9,2,2v5h6v-2h-1.1L20,14z"/>
	<polygon fill="#2D3134" points="19,8 19,10 31,13 31,5 	"/>
	<polygon fill="#2D3134" points="13,8 1,5 1,13 13,10 	"/>
	<circle fill="#2D3134" cx="16" cy="9" r="2"/>
</g>
</svg>
