<?xml version="1.0" encoding="utf-8"?>
<!-- Generator: Adobe Illustrator 18.1.0, SVG Export Plug-In . SVG Version: 6.00 Build 0)  -->
<svg version="1.1" id="Layer_1" xmlns="http://www.w3.org/2000/svg" xmlns:xlink="http://www.w3.org/1999/xlink" x="0px" y="0px"
	 viewBox="0 0 64 32" enable-background="new 0 0 64 32" xml:space="preserve">
<path fill-rule="evenodd" clip-rule="evenodd" fill="#2D3134" d="M58,18.5l2-1c0.6-0.3,0.6-0.7,0-1s-1.4-0.3-2,0l-2,1l-2-1l2-1
	c0.6-0.3,0.6-0.7,0-1s-1.4-0.3-2,0l-2,1L51,15l-2,1c-1.9,0.9-2.1,2.3-0.9,3.4L35,26c-0.6,0.3-1.4,0.3-2,0s-0.6-0.7,0-1l4-2
	c1.7-0.8,1.7-2.2,0-3l-1-0.5l16.5-8.3c0.8-0.4,0.8-1.1,0-1.5l-14-7c-0.8-0.4-2.2-0.4-3,0L8,16.5l-0.5-0.3c-0.8-0.4-2.2-0.4-3,0
	s-0.8,1.1,0,1.5L5,18l17,8.5l0.4,0.2c0.8,0.4,2.2,0.4,3,0s0.8-1.1,0-1.5L25,25l9-4.5l1,0.5c0.6,0.3,0.6,0.7,0,1l-4,2
	c-1.7,0.8-1.7,2.2,0,3s4.3,0.8,6,0l13.1-6.6c2.2,0.6,5,0.5,6.9-0.4l2-1L58,18.5z M14,18.5l9-1.5l-4-2h16l-9,1.5l4,2H14z M39,15
	L28,9.5L37,5l11,5.5L39,15z"/>
</svg>
