<?xml version="1.0" encoding="utf-8"?>
<!-- Generator: Adobe Illustrator 18.1.0, SVG Export Plug-In . SVG Version: 6.00 Build 0)  -->
<svg version="1.1" id="Layer_1" xmlns="http://www.w3.org/2000/svg" xmlns:xlink="http://www.w3.org/1999/xlink" x="0px" y="0px"
	 viewBox="0 0 32 56" enable-background="new 0 0 32 56" xml:space="preserve">
<path fill-rule="evenodd" clip-rule="evenodd" fill="#2D3134" d="M21,27.5l-4-2v-3l1.1,0.5c1.1,0.5,1.9,0.1,1.9-1v-4.6l1,0l3.4,0
	l-0.6-1.6L4.5,15.9l0.6,1.6L18,17.5V21l-1.1-0.5c-1.1-0.5-1.9-0.1-1.9,1v3.1l-4-2L6,28l4,13l12,6l4-9L21,27.5z M8.3,29.2l3.7-4.1
	l7.8,3.9l3.7,7.9L8.3,29.2z"/>
</svg>
