<?xml version="1.0" encoding="utf-8"?>
<!-- Generator: Adobe Illustrator 18.1.0, SVG Export Plug-In . SVG Version: 6.00 Build 0)  -->
<svg version="1.1" id="Layer_1" xmlns="http://www.w3.org/2000/svg" xmlns:xlink="http://www.w3.org/1999/xlink" x="0px" y="0px"
	 viewBox="0 0 32 56" enable-background="new 0 0 32 56" xml:space="preserve">
<g>
	<path fill="#2D3134" d="M30,38l-3.4-1.7c-0.2-0.9-0.6-1.8-1-2.7c-1.6-3.2-4.3-5-7.2-6.4l-4.8-2.4c-2.9-1.4-5.6-2.3-7.2-0.7
		c-0.5,0.5-0.8,1-1,1.7L2,24.1c-0.6-0.3-1,0-1,0.5c0,0.5,0.3,1,0.8,1.4l2,1.6C3.3,28,3,28.6,3,29.5v2.8c0,1.2,1,2.6,2.2,3.2L6,36
		v1.7c0,0.7,0.6,1.6,1.3,1.9l2.4,1.2c0.7,0.4,1.3,0.1,1.3-0.6v-0.7l10,5v0.7c0,0.7,0.6,1.6,1.3,1.9l2.4,1.2c0.7,0.4,1.3,0.1,1.3-0.6
		V46l0.8,0.4C28,47,29,46.5,29,45.3v-2.8c0-0.9-0.3-1.8-0.8-2.7l2,0.4c0.4,0.1,0.8-0.2,0.8-0.6C31,39,30.5,38.3,30,38z M9,33.5
		l-0.3-0.2c-1.1-0.5-2.2-1.4-3.1-2.5l-0.4-0.5C4.8,30,5,29.5,5.4,29.7L9,31.5c0.6,0.3,1,0.9,1,1.5C10,33.5,9.5,33.8,9,33.5z M20,41
		l-8-4v-2l8,4V41z M7.2,27.6C7.4,27,7.7,26.4,8.1,26c1.2-1.2,3.3-0.3,5.5,0.8l4.8,2.4c2.2,1.1,4.3,2.2,5.5,4.7
		c0.4,0.8,0.7,1.7,0.9,2.5L7.2,27.6z M26.8,41.2l-0.4,0.1c-0.9,0.2-2-0.1-3.1-0.6L23,40.5c-0.6-0.3-1-0.9-1-1.5c0-0.6,0.4-0.8,1-0.5
		l3.5,1.8C27,40.5,27.2,41.1,26.8,41.2z"/>
	<path fill="#2D3134" d="M11,21c0,0.8,0.7,1.8,1.5,2.2s1.5,0.1,1.5-0.8s-0.7-1.8-1.5-2.2S11,20.2,11,21z"/>
	<path fill="#2D3134" d="M8.5,17.3c0.8,0.4,1.5,0.1,1.5-0.8c0-0.8-0.7-1.8-1.5-2.2C7.7,13.8,7,14.2,7,15S7.7,16.8,8.5,17.3z"/>
	<path fill="#2D3134" d="M6.5,20.3C7.3,20.7,8,20.3,8,19.5s-0.7-1.8-1.5-2.2S5,17.2,5,18S5.7,19.8,6.5,20.3z"/>
	<polygon fill="#2D3134" points="22,19 19,16.5 19,15.5 17,14.5 17,12.5 15,11.5 15,13.5 13,12.5 13,13.5 10,13 10,14 22,20 	"/>
	<path fill="#2D3134" d="M4.5,23.3C5.3,23.7,6,23.3,6,22.5s-0.7-1.8-1.5-2.2C3.7,19.8,3,20.2,3,21S3.7,22.8,4.5,23.3z"/>
	<path fill="#2D3134" d="M15,19c0-0.8-0.7-1.8-1.5-2.2c-0.8-0.4-1.5-0.1-1.5,0.8s0.7,1.8,1.5,2.2C14.3,20.2,15,19.8,15,19z"/>
	<path fill="#2D3134" d="M24,27.5c0,0.8,0.7,1.8,1.5,2.2S27,29.8,27,29s-0.7-1.8-1.5-2.2S24,26.7,24,27.5z"/>
	<path fill="#2D3134" d="M26,32.5c0,0.8,0.7,1.8,1.5,2.2S29,34.8,29,34s-0.7-1.8-1.5-2.2C26.7,31.3,26,31.7,26,32.5z"/>
	<path fill="#2D3134" d="M23.5,24.8c0.8,0.4,1.5,0.1,1.5-0.8s-0.7-1.8-1.5-2.2S22,21.7,22,22.5S22.7,24.3,23.5,24.8z"/>
	<path fill="#2D3134" d="M20,21.5c0-0.8-0.7-1.8-1.5-2.2C17.7,18.8,17,19.2,17,20s0.7,1.8,1.5,2.2C19.3,22.7,20,22.3,20,21.5z"/>
	<path fill="#2D3134" d="M19.5,26.8c0.8,0.4,1.5,0.1,1.5-0.8s-0.7-1.8-1.5-2.2S18,23.7,18,24.5S18.7,26.3,19.5,26.8z"/>
</g>
</svg>
