<?xml version="1.0" encoding="utf-8"?>
<!-- Generator: Adobe Illustrator 18.1.0, SVG Export Plug-In . SVG Version: 6.00 Build 0)  -->
<svg version="1.1" id="Layer_1" xmlns="http://www.w3.org/2000/svg" xmlns:xlink="http://www.w3.org/1999/xlink" x="0px" y="0px"
	 viewBox="0 0 32 56" enable-background="new 0 0 32 56" xml:space="preserve">
<path fill-rule="evenodd" clip-rule="evenodd" fill="#2D3134" d="M7,9.1c1.9,0.6,4.5,1.7,8.3,3.5c3.8,1.9,6.5,4,8.3,6.6
	c1.7,2.3,2.9,5.4,2.9,8.3c0,3-0.8,5-2.5,5.8c-2.1,1.1-5.2,0.5-8.8-1.3c-0.8-0.4-1.6-0.8-2.2-1.3v10.7l-6-3V9.1z M13,25.5
	c0.5,0.4,1.2,0.9,2.1,1.4c3.3,1.6,5.3,0.8,5.3-2.2c0-2.7-1.7-5.2-4.8-6.8c-1.2-0.6-2.2-1.1-2.6-1.2V25.5z"/>
</svg>
