<?xml version="1.0" encoding="utf-8"?>
<!-- Generator: Adobe Illustrator 18.1.0, SVG Export Plug-In . SVG Version: 6.00 Build 0)  -->
<svg version="1.1" id="Layer_1" xmlns="http://www.w3.org/2000/svg" xmlns:xlink="http://www.w3.org/1999/xlink" x="0px" y="0px"
	 viewBox="0 0 32 32" enable-background="new 0 0 32 32" xml:space="preserve">
<g>
	<path fill="#2D3134" d="M30,19l-3.4,0c-0.2-0.8-0.6-1.5-1-2.2C24,14.4,21.3,14,18.4,14h-4.8c-2.9,0-5.6,0.4-7.2,2.8
		c-0.5,0.7-0.8,1.4-1,2.2L2,19c-0.6,0-1,0.5-1,1c0,0.5,0.3,0.9,0.8,1l2,0.6C3.3,22.3,3,23.1,3,24v2.8C3,28,4,29,5.2,29H6v1.7
		C6,31.4,6.6,32,7.3,32h2.4c0.7,0,1.3-0.6,1.3-1.3V30h10v0.7c0,0.7,0.6,1.3,1.3,1.3h2.4c0.7,0,1.3-0.6,1.3-1.3V29h0.8
		c1.2,0,2.2-1,2.2-2.2V24c0-0.9-0.3-1.7-0.8-2.3l2-0.6c0.4-0.1,0.8-0.5,0.8-1C31,19.5,30.5,19.1,30,19z M9,25H8.7
		c-1.1,0-2.2-0.3-3.1-0.9l-0.4-0.3C4.8,23.6,5,23,5.4,23H9c0.6,0,1,0.4,1,1C10,24.6,9.5,25,9,25z M20,27h-8v-2h8V27z M7.2,20
		c0.2-0.7,0.5-1.4,0.9-2.1c1.2-1.8,3.3-1.9,5.5-1.9h4.8c2.2,0,4.3,0.1,5.5,1.9c0.4,0.6,0.7,1.3,0.9,2.1H7.2z M26.8,23.8l-0.4,0.3
		c-0.9,0.6-2,0.9-3.1,0.9H23c-0.6,0-1-0.4-1-1c0-0.6,0.4-1,1-1h3.5C27,23,27.2,23.6,26.8,23.8z"/>
	<circle fill="#2D3134" cx="12.5" cy="11.5" r="1.5"/>
	<circle fill="#2D3134" cx="8.5" cy="7.5" r="1.5"/>
	<circle fill="#2D3134" cx="6.5" cy="11.5" r="1.5"/>
	<polygon fill="#2D3134" points="22,4 19,3 19,2 17,2 17,0 15,0 15,2 13,2 13,3 10,4 10,5 22,5 	"/>
	<circle fill="#2D3134" cx="4.5" cy="15.5" r="1.5"/>
	<circle fill="#2D3134" cx="13.5" cy="7.5" r="1.5"/>
	<circle fill="#2D3134" cx="25.5" cy="11.5" r="1.5"/>
	<circle fill="#2D3134" cx="27.5" cy="15.5" r="1.5"/>
	<circle fill="#2D3134" cx="23.5" cy="7.5" r="1.5"/>
	<circle fill="#2D3134" cx="18.5" cy="7.5" r="1.5"/>
	<circle fill="#2D3134" cx="19.5" cy="11.5" r="1.5"/>
</g>
</svg>
