<?xml version="1.0" encoding="utf-8"?>
<!-- Generator: Adobe Illustrator 18.1.0, SVG Export Plug-In . SVG Version: 6.00 Build 0)  -->
<svg version="1.1" id="Layer_1" xmlns="http://www.w3.org/2000/svg" xmlns:xlink="http://www.w3.org/1999/xlink" x="0px" y="0px"
	 viewBox="0 0 32 56" enable-background="new 0 0 32 56" xml:space="preserve">
<path fill-rule="evenodd" clip-rule="evenodd" fill="#2D3134" d="M16,12C7.2,7.6,0,11.2,0,20s7.2,19.6,16,24s16,0.8,16-8
	S24.8,16.4,16,12z M30,35c0,3.5-1.3,6.1-3.4,7.4L6.8,12.8c2.5-0.9,5.7-0.6,9.2,1.2C23.7,17.9,30,27.3,30,35z M2,21
	c0-3.5,1.3-6.1,3.4-7.4l19.7,29.6c-2.5,0.9-5.7,0.6-9.2-1.2C8.3,38.1,2,28.7,2,21z"/>
</svg>
