<?xml version="1.0" encoding="utf-8"?>
<!-- Generator: Adobe Illustrator 18.1.0, SVG Export Plug-In . SVG Version: 6.00 Build 0)  -->
<svg version="1.1" id="Layer_1" xmlns="http://www.w3.org/2000/svg" xmlns:xlink="http://www.w3.org/1999/xlink" x="0px" y="0px"
	 viewBox="0 0 64 32" enable-background="new 0 0 64 32" xml:space="preserve">
<path fill-rule="evenodd" clip-rule="evenodd" fill="#2D3134" d="M42.2,26L53,16.5L50,15l5-2.5L50,10l-15.1,7.6
	c-0.5,0.2-0.5,0.6,0,0.9L36,19l-4,2c-0.7-0.1-1.6-0.2-2.1,0l-6.6,3.3c-0.7,0.4-0.7,0.9,0,1.3l9.4,4.7c0.7,0.4,1.9,0.4,2.6,0l6.6-3.3
	C42.5,26.8,42.6,26.3,42.2,26z M34,7l-3-1.5l-18.9,5.4c-0.7-0.2-1.6-0.2-2.2,0.1l-6.6,3.3c-0.7,0.4-0.7,0.9,0,1.3l9.4,4.7
	c0.7,0.4,1.9,0.4,2.6,0l6.6-3.3c0.5-0.3,0.4-0.7,0.1-1l4-2l1.1,0.6c0.5,0.2,1.3,0.2,1.8,0L44,7l-5-2.5L34,7z M43.1,11.6l-2.2-1.1
	c-0.5-0.2-1.3-0.2-1.8,0l-8.2,4.1c-0.5,0.2-0.5,0.6,0,0.9l2.2,1.1c0.5,0.2,1.3,0.2,1.8,0l8.2-4.1C43.6,12.2,43.6,11.8,43.1,11.6z"/>
</svg>
