<?xml version="1.0" encoding="utf-8"?>
<!-- Generator: Adobe Illustrator 18.1.0, SVG Export Plug-In . SVG Version: 6.00 Build 0)  -->
<svg version="1.1" id="Layer_1" xmlns="http://www.w3.org/2000/svg" xmlns:xlink="http://www.w3.org/1999/xlink" x="0px" y="0px"
	 viewBox="0 0 64 32" enable-background="new 0 0 64 32" xml:space="preserve">
<g>
	<path fill="#2D3134" d="M36,2L4,18l24,12l32-16L36,2z M28,28L8,18L36,4l20,10L28,28z"/>
	<polygon fill="#2D3134" points="35,19.5 31,19.5 28,21 19,16.5 28,12 35,15.5 39,15.5 28,10 15,16.5 28,23 	"/>
	<path fill="#2D3134" d="M40.1,16.9h-9.9v-1.9c0-0.6-0.9-1.1-2.1-1.1S26,14.4,26,14.9V19h14.1c1.2,0,2.1-0.5,2.1-1.1
		S41.3,16.9,40.1,16.9z"/>
	<polygon fill="#2D3134" points="52,14 36,6 32,8 48,16 	"/>
</g>
</svg>
