<?xml version="1.0" encoding="utf-8"?>
<!-- Generator: Adobe Illustrator 18.1.0, SVG Export Plug-In . SVG Version: 6.00 Build 0)  -->
<svg version="1.1" id="Layer_1" xmlns="http://www.w3.org/2000/svg" xmlns:xlink="http://www.w3.org/1999/xlink" x="0px" y="0px"
	 viewBox="0 0 32 32" enable-background="new 0 0 32 32" xml:space="preserve">
<path fill="#2D3134" d="M18,10.9l2.3-8.4c0.1-0.5,0.9-0.5,1,0L22,5.9l8.2,2.4c0.6,0.2,0.9,0.9,0.6,1.5l-2.4,4.2
	c-0.3,0.5-0.9,0.7-1.4,0.4L23,12.4v1.5L2.7,4.3C2.3,4.1,1.8,4.2,1.6,4.6l0,0C1.3,5,1.4,5.6,1.9,5.9L23,15.9v12c0,1.1-0.9,2-2,2h0
	c-1.1,0-2-0.9-2-2v-7h-7.5l4.2,6c0.6,0.9,0.4,2.1-0.5,2.7l0,0c-0.9,0.6-2.1,0.4-2.7-0.5L8,22.9v5c0,1.1-0.9,2-2,2h0
	c-1.1,0-2-0.9-2-2V15.4l-2.4-1.9c-0.6-0.4-0.8-1.3-0.4-1.9l0,0c0.4-0.7,1.4-0.9,2.1-0.4l2.2,1.7h11"/>
</svg>
