<?xml version="1.0" encoding="utf-8"?>
<!-- Generator: Adobe Illustrator 18.1.0, SVG Export Plug-In . SVG Version: 6.00 Build 0)  -->
<svg version="1.1" id="Layer_1" xmlns="http://www.w3.org/2000/svg" xmlns:xlink="http://www.w3.org/1999/xlink" x="0px" y="0px"
	 viewBox="0 0 32 32" enable-background="new 0 0 32 32" xml:space="preserve">
<path fill="#2D3134" d="M19,2V0h-6v2H3v30h26V2H19z M8,27H6v-4h2V27z M8,21H6v-4h2V21z M8,15H6v-4h2V15z M8,9H6V5h2V9z M12,27h-2v-4
	h2V27z M12,21h-2v-4h2V21z M12,15h-2v-4h2V15z M12,9h-2V5h2V9z M17,31h-2v-4h2V31z M17,25h-2V2h2V25z M22,27h-2v-4h2V27z M22,21h-2
	v-4h2V21z M22,15h-2v-4h2V15z M22,9h-2V5h2V9z M26,27h-2v-4h2V27z M26,21h-2v-4h2V21z M26,15h-2v-4h2V15z M26,9h-2V5h2V9z"/>
</svg>
