<?xml version="1.0" encoding="utf-8"?>
<!-- Generator: Adobe Illustrator 18.1.0, SVG Export Plug-In . SVG Version: 6.00 Build 0)  -->
<svg version="1.1" id="Layer_1" xmlns="http://www.w3.org/2000/svg" xmlns:xlink="http://www.w3.org/1999/xlink" x="0px" y="0px"
	 viewBox="0 0 32 32" enable-background="new 0 0 32 32" xml:space="preserve">
<g>
	<path fill="#2D3134" d="M30.5,9.3l-1.7-1.7c-0.7-0.7-1.8-0.7-2.5,0l-1.8,1.8l4.2,4.2l1.8-1.8C31.2,11.1,31.2,10,30.5,9.3z"/>
	<rect x="5" y="5" fill="#2D3134" width="8" height="2"/>
	<polygon fill="#2D3134" points="18.8,13 5,13 5,15 16.8,15 	"/>
	<polygon fill="#2D3134" points="21,10.8 21,9 5,9 5,11 20.8,11 	"/>
	<polygon fill="#2D3134" points="11.5,21 5,21 5,23 10.8,23 	"/>
	<polygon fill="#2D3134" points="23,30 3,30 3,2 23,2 23,8.8 25,6.8 25,0 1,0 1,32 25,32 25,19.2 23,21.2 	"/>
	<polygon fill="#2D3134" points="5,27 9.5,27 10,25.5 10,25 5,25 	"/>
	<polygon fill="#2D3134" points="14.8,17 5,17 5,19 12.8,19 	"/>
	<polygon fill="#2D3134" points="13,20.7 11,27 17.3,25 28,14.3 23.7,10 	"/>
</g>
</svg>
