<?xml version="1.0" encoding="utf-8"?>
<!-- Generator: Adobe Illustrator 18.1.0, SVG Export Plug-In . SVG Version: 6.00 Build 0)  -->
<svg version="1.1" id="Layer_1" xmlns="http://www.w3.org/2000/svg" xmlns:xlink="http://www.w3.org/1999/xlink" x="0px" y="0px"
	 viewBox="0 0 32 56" enable-background="new 0 0 32 56" xml:space="preserve">
<g>
	<path fill-rule="evenodd" clip-rule="evenodd" fill="#2D3134" d="M20.8,34.7c-0.1-0.9-0.4-1.8-0.7-2.7l1.6-0.6
		c-0.4-0.9-0.9-1.9-1.5-2.8l-1.8,0.2c-0.6-0.9-1.2-1.7-2-2.4l0.5-1.8c-0.8-0.7-1.5-1.4-2.4-2l-0.8,1.6c-0.4-0.3-0.8-0.5-1.2-0.7
		c-0.4-0.2-0.8-0.4-1.2-0.5l-0.8-2.4c-0.8-0.3-1.6-0.4-2.4-0.4l0.5,2.3c-0.7,0-1.4,0.2-2,0.4l-1.8-2c-0.6,0.3-1.1,0.8-1.5,1.3
		l1.6,2.2c-0.4,0.5-0.6,1.2-0.7,1.9L2,25.5C2,25.9,2,26.3,2,26.7C2,27.1,2,27.5,2,28l2.1,1.2c0.1,0.9,0.4,1.8,0.7,2.7l-1.6,0.6
		c0.4,0.9,0.9,1.9,1.5,2.8L6.6,35c0.6,0.9,1.2,1.7,2,2.4L8,39.2c0.8,0.7,1.5,1.4,2.4,2l0.8-1.6c0.4,0.3,0.8,0.5,1.2,0.7
		c0.4,0.2,0.8,0.4,1.2,0.5l0.8,2.4c0.8,0.3,1.6,0.4,2.4,0.4l-0.5-2.3c0.7,0,1.4-0.2,2-0.4l1.8,2c0.6-0.3,1.1-0.8,1.5-1.3L20,39.4
		c0.4-0.5,0.6-1.2,0.7-1.9l2.1,0.9c0-0.4,0.1-0.8,0.1-1.2c0-0.4,0-0.9-0.1-1.3L20.8,34.7z M12.5,35.1c-1.8-0.9-3.2-3-3.2-4.8
		c0-1.8,1.4-2.5,3.2-1.6c1.8,0.9,3.2,3,3.2,4.8C15.7,35.3,14.2,36,12.5,35.1z"/>
	<path fill-rule="evenodd" clip-rule="evenodd" fill="#2D3134" d="M28,26.5c0.1-0.3,0.1-0.5,0.1-0.8l1.9,0.4c0-0.8-0.2-1.6-0.4-2.4
		L27.7,23c-0.2-0.6-0.5-1.3-0.9-1.9l1-1.2c-0.5-0.8-1.2-1.5-1.8-2.2l-1.2,0.9c-0.3-0.2-0.5-0.5-0.8-0.7c-0.3-0.2-0.6-0.4-0.8-0.5
		l-0.5-2.1c-0.8-0.4-1.5-0.6-2.2-0.7l0.2,2c-0.5,0-1,0-1.4,0.2l-1.7-1.8c-0.5,0.3-0.9,0.7-1.3,1.2l1.5,2c-0.1,0.2-0.2,0.4-0.3,0.7
		c-0.1,0.3-0.1,0.5-0.1,0.8l-1.9-0.4c0,0.8,0.2,1.6,0.4,2.4l1.9,0.8c0.2,0.6,0.5,1.3,0.9,1.9l-1,1.2c0.5,0.8,1.2,1.5,1.8,2.2
		l1.2-0.9c0.3,0.2,0.5,0.5,0.8,0.7c0.3,0.2,0.6,0.4,0.8,0.5l0.5,2.1c0.8,0.4,1.5,0.6,2.2,0.7l-0.2-2c0.5,0,1,0,1.4-0.2l1.7,1.8
		c0.5-0.3,0.9-0.7,1.3-1.2l-1.5-2C27.9,27,28,26.8,28,26.5z M24.5,24c-0.2,0.9-1.3,1.1-2.3,0.3c-1-0.7-1.7-2.1-1.5-3
		c0.2-0.9,1.3-1.1,2.3-0.3C24.1,21.7,24.8,23.1,24.5,24z"/>
</g>
</svg>
