<?xml version="1.0" encoding="utf-8"?>
<!-- Generator: Adobe Illustrator 18.1.0, SVG Export Plug-In . SVG Version: 6.00 Build 0)  -->
<svg version="1.1" id="Layer_1" xmlns="http://www.w3.org/2000/svg" xmlns:xlink="http://www.w3.org/1999/xlink" x="0px" y="0px"
	 viewBox="0 0 32 32" enable-background="new 0 0 32 32" xml:space="preserve">
<path fill="#2D3134" d="M32,18.8c0-0.2,0-0.4,0-0.7c0,0,0-0.1,0-0.1h-0.3L26.9,5.6c0,0,0-0.1-0.1-0.1C26.9,5.3,27,5.2,27,5
	c0-0.6-0.4-1-1-1h-8.3c-0.2-0.3-0.4-0.5-0.7-0.7V1c0-0.6-0.4-1-1-1s-1,0.4-1,1v2.3c-0.3,0.2-0.5,0.4-0.7,0.7H6C5.4,4,5,4.4,5,5
	c0,0.2,0.1,0.3,0.1,0.5c0,0-0.1,0.1-0.1,0.1L0.3,18H0c0,0,0,0.1,0,0.1c0,0.2,0,0.5,0,0.7C0,19,0,19.3,0.2,19.5C0.8,22.1,3.2,24,6,24
	s5.2-1.9,5.8-4.5C12,19.3,12,19,12,18.8c0-0.2,0-0.4,0-0.7c0,0,0-0.1,0-0.1h-0.3L7.1,6h7.2c0.2,0.3,0.4,0.5,0.7,0.7v20
	c0,1.8-1.4,3.2-3.2,3.2H11c-0.6,0-1,0.4-1,1c0,0.6,0.4,1,1,1h10c0.6,0,1-0.4,1-1c0-0.6-0.4-1-1-1h-0.8c-1.8,0-3.2-1.4-3.2-3.2v-20
	c0.3-0.2,0.5-0.4,0.7-0.7h7.2l-4.6,12H20c0,0,0,0.1,0,0.1c0,0.2,0,0.5,0,0.7c-0.1,0.3,0,0.5,0.1,0.8c0.7,2.6,3,4.5,5.8,4.5
	s5.2-1.9,5.8-4.5C32,19.3,32,19,32,18.8z M2.4,18L6,8.8L9.6,18H2.4z M22.4,18L26,8.8l3.6,9.2H22.4z"/>
</svg>
