<?xml version="1.0" encoding="utf-8"?>
<!-- Generator: Adobe Illustrator 18.1.0, SVG Export Plug-In . SVG Version: 6.00 Build 0)  -->
<svg version="1.1" id="Layer_1" xmlns="http://www.w3.org/2000/svg" xmlns:xlink="http://www.w3.org/1999/xlink" x="0px" y="0px"
	 viewBox="0 0 64 32" enable-background="new 0 0 64 32" xml:space="preserve">
<g>
	<path fill-rule="evenodd" clip-rule="evenodd" fill="#2D3134" d="M43,22.5L40,21l5.7-2.9c1.3-0.6,1.3-1.6,0-2.3L32.3,9.1
		c-1.3-0.6-3.3-0.6-4.5,0L22,12l-3-1.5l-2-1l-0.4,0.2c-0.9,0.4-0.9,1.2,0,1.6l0.4,0.2L8,16c-0.5,0.3-0.5,0.7,0,1l1,0.5l-1.7,0.9
		c-0.7,0.4-0.7,0.9,0,1.3l2.4,1.2c0.7,0.4,1.9,0.4,2.6,0L14,20l10,5l-1.7,0.9c-0.7,0.4-0.7,0.9,0,1.3l2.4,1.2c0.7,0.4,1.9,0.4,2.6,0
		l1.7-0.9l1,0.5c0.5,0.3,1.4,0.3,2,0l9-4.5l0.4,0.2c0.9,0.4,2.3,0.4,3.2,0l0.4-0.2L43,22.5z M15.5,15.8c-0.8-0.4-0.8-1.1,0-1.5
		s2.2-0.4,3,0s0.8,1.1,0,1.5S16.3,16.2,15.5,15.8z M27,23.5l-10-5l3.3-1.6c0.9-0.5,2.5-0.5,3.4,0l6.6,3.3c0.9,0.5,0.9,1.2,0,1.7
		L27,23.5z M24,13l4.9-2.4c0.6-0.3,1.6-0.3,2.2,0l11.8,5.9c0.6,0.3,0.6,0.8,0,1.1L38,20L24,13z M32.5,24.3c-0.8-0.4-0.8-1.1,0-1.5
		s2.2-0.4,3,0s0.8,1.1,0,1.5S33.3,24.7,32.5,24.3z"/>
	<path fill-rule="evenodd" clip-rule="evenodd" fill="#2D3134" d="M27.2,8.4c1.5-0.8,4-0.8,5.5,0l14.5,7.2c1.5,0.8,1.5,2,0,2.8
		L42,21l2,1l14.8-7.4c0.7-0.3,0.7-0.9,0-1.2L37.2,2.6c-0.7-0.3-1.7-0.3-2.4,0L20,10l2,1L27.2,8.4z"/>
	<polygon fill-rule="evenodd" clip-rule="evenodd" fill="#2D3134" points="19,18.5 27,22.5 28,22 20,18 	"/>
	<polygon fill-rule="evenodd" clip-rule="evenodd" fill="#2D3134" points="29,20.5 23,17.5 22,18 28,21 	"/>
</g>
</svg>
