<?xml version="1.0" encoding="utf-8"?>
<!-- Generator: Adobe Illustrator 18.1.0, SVG Export Plug-In . SVG Version: 6.00 Build 0)  -->
<svg version="1.1" id="Layer_1" xmlns="http://www.w3.org/2000/svg" xmlns:xlink="http://www.w3.org/1999/xlink" x="0px" y="0px"
	 viewBox="0 0 64 32" enable-background="new 0 0 64 32" xml:space="preserve">
<path fill="#2D3134" d="M54.7,15.5c0-0.2-0.3-0.4-0.7-0.4L44,15l-5,2.5c-0.5,0.3-3.4-0.2-7-2s-4.5-3.2-4-3.5
	c0.2-0.1,0.3-0.3,0.1-0.4c0-0.3-0.2-0.6-0.6-0.8c-0.9-0.5-2.1-0.5-3,0L21,12.5l-4-2l3.5-1.8c0.8-0.4,0.8-1.1,0-1.5s-2.2-0.4-3,0
	l-15,7.5c-0.3,0.1-0.3,0.4,0,0.5l2,1c0.3,0.1,0.7,0.1,1,0L6,16l4,2l-0.5,0.3c-0.3,0.1-0.3,0.4,0,0.5l2,1c0.3,0.1,0.7,0.1,1,0
	l9.6-4.8c0.1,0.3,0.4,0.6,0.7,0.9c0,0,0.1,0.1,0.1,0.1c0.8,0.8,2.1,1.6,3.6,2.3c1.5,0.7,3.1,1.4,4.6,1.8c0.1,0,0.1,0,0.2,0.1
	c0.6,0.2,1.3,0.3,1.8,0.4l-9.6,4.8c-0.3,0.1-0.3,0.4,0,0.5l2,1c0.3,0.1,0.7,0.1,1,0L37,21.5l5,2.5l-10.5,5.3c-0.3,0.1-0.3,0.4,0,0.5
	l2,1c0.3,0.1,0.7,0.1,1,0L55,20.5L54.7,15.5z M11,17.5l-4-2L8,15l4,2L11,17.5z M13,16.5l-4-2l1-0.5l4,2L13,16.5z M15,15.5l-4-2
	l1-0.5l4,2L15,15.5z M17,14.5l-4-2l1-0.5l4,2L17,14.5z M19,13.5l-4-2l1-0.5l4,2L19,13.5z M27,13.5l-3.3,1.6
	c-0.4-0.5-0.4-0.8-0.2-0.9L24,14l2.6-1.3c0.1,0.2,0.3,0.5,0.6,0.7C27.1,13.5,27,13.5,27,13.5z M25.2,16.4c-0.3-0.2-0.6-0.4-0.8-0.6
	l3.5-1.7c0.2,0.2,0.5,0.4,0.8,0.6L25.2,16.4z M27,17.5c-0.3-0.2-0.7-0.4-0.9-0.5l3.5-1.7c0.3,0.2,0.6,0.4,0.9,0.5L27,17.5z
	 M29.1,18.5c-0.3-0.1-0.7-0.3-1.1-0.5l3.5-1.7c0.3,0.2,0.7,0.3,1.1,0.5L29.1,18.5z M31.4,19.3c-0.4-0.1-0.8-0.2-1.2-0.4l3.5-1.7
	c0.4,0.1,0.8,0.3,1.2,0.4L31.4,19.3z M34.5,19.8c-0.2,0.1-0.9,0.1-1.8-0.1L36,18c0,0,0.1-0.1,0.1-0.1c0.5,0.1,1,0.2,1.5,0.3
	L34.5,19.8z M42.5,21.3c-1.4-0.7-1.4-1.8,0-2.5c1.4-0.7,3.6-0.7,5,0s1.4,1.8,0,2.5C46.1,21.9,43.9,21.9,42.5,21.3z"/>
</svg>
