<?xml version="1.0" encoding="utf-8"?>
<!-- Generator: Adobe Illustrator 18.1.0, SVG Export Plug-In . SVG Version: 6.00 Build 0)  -->
<svg version="1.1" id="Layer_1" xmlns="http://www.w3.org/2000/svg" xmlns:xlink="http://www.w3.org/1999/xlink" x="0px" y="0px"
	 viewBox="0 0 32 32" enable-background="new 0 0 32 32" xml:space="preserve">
<g>
	<path fill-rule="evenodd" clip-rule="evenodd" fill="#2D3134" d="M6.9,7h1.1C8.6,7,9,6.6,9,6.1V1.9C9,1.4,8.6,1,8.1,1H6.9
		C6.4,1,6,1.4,6,1.9v4.1C6,6.6,6.4,7,6.9,7z"/>
	<path fill-rule="evenodd" clip-rule="evenodd" fill="#2D3134" d="M31,6.9C30.9,5.3,29.6,4,27.9,4H27v2.1c0,1-0.8,1.9-1.9,1.9h-1.2
		c-1,0-1.9-0.8-1.9-1.9V4H10v2.1C10,7.2,9.2,8,8.1,8H6.9C5.8,8,5,7.2,5,6.1V4H4.1C2.4,4,1.1,5.3,1,6.9C1,6.9,1,7,1,7v0.1V10v20
		c0,0.6,0.4,1,1,1h28c0.6,0,1-0.4,1-1V10V7.1L31,6.9C31,7,31,6.9,31,6.9z M8,29H3v-2h3v-3h2V29z M8,22H3v-2h3v-3h2V22z M8,15H3v-5h5
		V15z M15,29h-5v-2h3v-3h2V29z M15,22h-5v-2h3v-3h2V22z M15,15h-5v-5h5V15z M22,29h-5v-5h5V29z M22,22h-5v-2h3v-3h2V22z M22,15h-5
		v-2h3v-3h2V15z M29,29h-5v-5h5V29z M29,22h-5v-2h3v-3h2V22z M29,15h-5v-2h3v-3h2V15z"/>
	<path fill-rule="evenodd" clip-rule="evenodd" fill="#2D3134" d="M23.9,7h1.1C25.6,7,26,6.6,26,6.1V1.9C26,1.4,25.6,1,25.1,1h-1.1
		C23.4,1,23,1.4,23,1.9v4.1C23,6.6,23.4,7,23.9,7z"/>
</g>
</svg>
