<?xml version="1.0" encoding="utf-8"?>
<!-- Generator: Adobe Illustrator 18.1.0, SVG Export Plug-In . SVG Version: 6.00 Build 0)  -->
<svg version="1.1" id="Layer_1" xmlns="http://www.w3.org/2000/svg" xmlns:xlink="http://www.w3.org/1999/xlink" x="0px" y="0px"
	 viewBox="0 0 32 32" enable-background="new 0 0 32 32" xml:space="preserve">
<g>
	<path fill-rule="evenodd" clip-rule="evenodd" fill="#2D3134" d="M16.9,27.2V15.4c0-0.4-0.4-0.8-0.8-0.8c-0.4,0-0.8,0.4-0.8,0.8
		v11.8c0,0,0,0,0,0.1c0,0,0,0,0,0c0,0.6-0.5,1.1-1.1,1.1c-0.6,0-1.1-0.5-1.1-1.1c0,0,0,0,0,0c0-0.4-0.4-0.8-0.8-0.8
		s-0.8,0.3-0.8,0.8c0,0,0,0,0,0c0,1.5,1.2,2.7,2.7,2.7C15.7,30,16.9,28.8,16.9,27.2C16.9,27.3,16.9,27.3,16.9,27.2
		C16.9,27.2,16.9,27.2,16.9,27.2z"/>
	<path fill-rule="evenodd" clip-rule="evenodd" fill="#2D3134" d="M17,3.1L17,3.1c0-0.6-0.4-1-1-1s-1,0.4-1,1v0
		c-7.6,0.4-13.7,5-15,11c1.2-0.6,2.7-1,4.2-1c2.3,0,4.4,0.8,5.9,2.2c1.5-1.3,3.6-2.2,5.9-2.2c2.3,0,4.4,0.8,5.9,2.2
		c1.5-1.3,3.6-2.2,5.9-2.2c1.5,0,2.9,0.4,4.2,1C30.7,8.2,24.6,3.5,17,3.1z"/>
</g>
</svg>
