<?xml version="1.0" encoding="utf-8"?>
<!-- Generator: Adobe Illustrator 18.1.0, SVG Export Plug-In . SVG Version: 6.00 Build 0)  -->
<svg version="1.1" id="Layer_1" xmlns="http://www.w3.org/2000/svg" xmlns:xlink="http://www.w3.org/1999/xlink" x="0px" y="0px"
	 viewBox="0 0 64 32" enable-background="new 0 0 64 32" xml:space="preserve">
<g>
	<path fill="#2D3134" d="M40.3,21l-7.7-3.9c-3.1,0.9-5.9,1.2-8.4,1.1c-2.5-0.1-4.8-0.7-6.8-1.7c-2-1-3.1-2.2-3.2-3.5
		c-0.1-1.3,0.8-2.6,2.7-3.7l-1.8-0.9l2.7-1.3L19.6,8c2.2-0.9,4.4-1.3,6.7-1.3c2.3,0,4.5,0.3,6.6,1.1l-4.1,2.6
		c-1.7-0.6-3.5-0.7-5.2-0.4l7.2,3.6c3.8-1.1,6.8-1.6,9.1-1.5c2.3,0.1,4.5,0.7,6.5,1.6c2.2,1.1,3.4,2.4,3.6,3.8
		c0.2,1.4-0.8,2.8-2.8,4.2l2.4,1.2l-2.7,1.3l-2.4-1.2c-2.4,0.9-4.9,1.4-7.6,1.4c-2.7,0-5.4-0.5-8.2-1.5l4.3-2.7
		c1.2,0.4,2.4,0.6,3.7,0.7C38.2,21.3,39.4,21.2,40.3,21z M21,11.4c-0.5,0.5-0.6,1-0.5,1.5c0.2,0.5,0.6,0.9,1.3,1.3
		c0.7,0.3,1.5,0.5,2.4,0.6c1,0.1,2,0,3.1-0.2L21,11.4z M43.3,19.8c0.8-0.5,1.1-1.1,1-1.8c-0.1-0.6-0.6-1.2-1.5-1.6
		c-0.8-0.4-1.8-0.6-2.9-0.7c-1.1-0.1-2.3,0.1-3.8,0.5L43.3,19.8z"/>
</g>
</svg>
