<?xml version="1.0" encoding="utf-8"?>
<!-- Generator: Adobe Illustrator 18.1.0, SVG Export Plug-In . SVG Version: 6.00 Build 0)  -->
<svg version="1.1" id="Layer_1" xmlns="http://www.w3.org/2000/svg" xmlns:xlink="http://www.w3.org/1999/xlink" x="0px" y="0px"
	 viewBox="0 0 32 56" enable-background="new 0 0 32 56" xml:space="preserve">
<path fill-rule="evenodd" clip-rule="evenodd" fill="#2D3134" d="M31,33.5l-3.4-1.7c-0.2-0.9-0.6-1.8-1-2.7c-1.6-3.2-4.3-6-7.2-7.4
	l-6.8-3.4C9.7,16.9,7,17,5.4,18.6c-0.5,0.5-0.8,1-1,1.7L1,18.6c-0.6-0.3-1,0-1,0.5c0,0.5,0.3,1,0.8,1.4l2,1.6C2.3,22.5,2,23.1,2,24
	v5.8c0,1.2,1,2.6,2.2,3.2L5,33.5v1.7c0,0.7,0.6,1.6,1.3,1.9l2.4,1.2c0.7,0.4,1.3,0.1,1.3-0.6V36l12,6v1.7c0,0.7,0.6,1.6,1.3,1.9
	l2.4,1.2c0.7,0.4,1.3,0.1,1.3-0.6v-1.7l0.8,0.4C29,45.5,30,45,30,43.8V38c0-0.9-0.3-1.8-0.8-2.7l2,0.4c0.4,0.1,0.8-0.2,0.8-0.6
	C32,34.5,31.5,33.8,31,33.5z M7.1,20.5c1.2-1.2,3.3-1.3,5.5-0.2l6.8,3.4c2.2,1.1,4.3,3.2,5.5,5.7c0.4,0.8,0.7,1.7,0.9,2.5L6.2,22.1
	C6.4,21.5,6.7,20.9,7.1,20.5z M8,30l-0.3-0.2c-1.1-0.5-2.2-1.4-3.1-2.5l-0.4-0.5C3.8,26.5,4,26,4.4,26.2L8,28c0.6,0.3,1,0.9,1,1.5
	C9,30,8.5,30.3,8,30z M21,38.5l-10-5v-2l10,5V38.5z M27.8,38.7l-0.4,0.1c-0.9,0.2-2-0.1-3.1-0.6L24,38c-0.6-0.3-1-0.9-1-1.5
	c0-0.6,0.4-0.8,1-0.5l3.5,1.8C28,38,28.2,38.6,27.8,38.7z"/>
</svg>
