<?xml version="1.0" encoding="utf-8"?>
<!-- Generator: Adobe Illustrator 18.1.0, SVG Export Plug-In . SVG Version: 6.00 Build 0)  -->
<svg version="1.1" id="Layer_1" xmlns="http://www.w3.org/2000/svg" xmlns:xlink="http://www.w3.org/1999/xlink" x="0px" y="0px"
	 viewBox="0 0 32 56" enable-background="new 0 0 32 56" xml:space="preserve">
<path fill="#2D3134" d="M26.9,21.6c-0.2-0.3-0.5-0.5-0.7-0.4L21,23.5v5c0,0.5-1.9,0.5-5.5-1.2C11.9,25.5,10,23.5,10,23
	c0-0.2-0.2-0.5-0.4-0.7c-0.3-0.5-0.7-0.9-1.1-1.1C7.6,20.8,7,21.1,7,22v3.5l-4-2V20c0-0.8-0.7-1.8-1.5-2.2S0,17.7,0,18.5v15
	c0,0.3,0.2,0.6,0.5,0.7l2,1C2.8,35.4,3,35.3,3,35v-0.5l4,2V37c0,0.3,0.2,0.6,0.5,0.7l2,1c0.3,0.1,0.5,0,0.5-0.3v-9.6
	c0.4,0.4,0.8,0.8,1.3,1.2c0,0,0.1,0.1,0.1,0.1c1.2,0.9,2.6,1.8,4.1,2.6c1.5,0.7,2.9,1.3,4.1,1.5c0.1,0,0.1,0,0.1,0
	c0.5,0.1,0.9,0.1,1.3,0.1V44c0,0.3,0.2,0.6,0.5,0.7l2,1c0.3,0.1,0.5,0,0.5-0.3V35l5,2.5V48c0,0.3,0.2,0.6,0.5,0.7l2,1
	c0.3,0.1,0.5,0,0.5-0.3V29L26.9,21.6z M7,35.5l-4-2v-1l4,2V35.5z M7,33.5l-4-2v-1l4,2V33.5z M7,31.5l-4-2v-1l4,2V31.5z M7,29.5l-4-2
	v-1l4,2V29.5z M7,27.5l-4-2v-1l4,2V27.5z M11,25.5v3.3c-0.7-0.6-1-1.1-1-1.3V27v-2.6c0.3,0.3,0.6,0.6,1,1C11,25.4,11,25.4,11,25.5z
	 M13,30.3c-0.4-0.2-0.7-0.5-1-0.7v-3.5c0.3,0.2,0.7,0.5,1,0.7V30.3z M15,31.5c-0.4-0.2-0.7-0.4-1-0.6v-3.5c0.3,0.2,0.7,0.4,1,0.6
	V31.5z M17,32.4c-0.3-0.1-0.6-0.3-1-0.4v-3.5c0.3,0.2,0.7,0.3,1,0.4V32.4z M19,33.1c-0.3-0.1-0.6-0.2-1-0.3v-3.5
	c0.3,0.1,0.7,0.2,1,0.3V33.1z M21,33c0,0.2-0.3,0.3-1,0.3V30c0,0,0-0.1,0-0.2c0.4,0.1,0.7,0.1,1,0V33z M26.5,33.2
	c-1.4-0.7-2.5-2.4-2.5-3.7c0-1.4,1.1-1.9,2.5-1.3S29,30.6,29,32C29,33.4,27.9,33.9,26.5,33.2z"/>
</svg>
