<?xml version="1.0" encoding="utf-8"?>
<!-- Generator: Adobe Illustrator 18.1.0, SVG Export Plug-In . SVG Version: 6.00 Build 0)  -->
<svg version="1.1" id="Layer_1" xmlns="http://www.w3.org/2000/svg" xmlns:xlink="http://www.w3.org/1999/xlink" x="0px" y="0px"
	 viewBox="0 0 32 56" enable-background="new 0 0 32 56" xml:space="preserve">
<path fill-rule="evenodd" clip-rule="evenodd" fill="#2D3134" d="M31,25.5v-2c0-0.6-0.4-1.2-1-1.5s-1-0.1-1,0.5v2l-2-1v-2
	c0-0.6-0.4-1.2-1-1.5s-1-0.1-1,0.5v2L24,22v2c0,1.9,1.3,4.1,3,5.4v13.1c0,0.6-0.4,0.8-1,0.5c-0.6-0.3-1-0.9-1-1.5v-4
	c0-1.7-1.3-3.7-3-4.5l-1-0.5V16c0-0.8-0.7-1.8-1.5-2.2l-14-7C4.7,6.3,4,6.7,4,7.5V35l-0.5-0.2C2.7,34.3,2,34.7,2,35.5
	s0.7,1.8,1.5,2.2L4,38l17,8.5l0.4,0.2c0.8,0.4,1.5,0.1,1.5-0.8s-0.7-1.8-1.5-2.2L21,43.5v-9l1,0.5c0.6,0.3,1,0.9,1,1.5v4
	c0,1.7,1.3,3.7,3,4.5c1.7,0.8,3,0.2,3-1.5V30.4c1.7,0.4,3-0.5,3-2.4v-2L31,25.5z M9,36.5l3-4.5l-4-2l8-4l-3,4.5l4,2L9,36.5z M18,25
	L7,19.5v-9L18,16V25z"/>
</svg>
