<?xml version="1.0" encoding="utf-8"?>
<!-- Generator: Adobe Illustrator 18.1.0, SVG Export Plug-In . SVG Version: 6.00 Build 0)  -->
<svg version="1.1" id="Layer_1" xmlns="http://www.w3.org/2000/svg" xmlns:xlink="http://www.w3.org/1999/xlink" x="0px" y="0px"
	 viewBox="0 0 32 56" enable-background="new 0 0 32 56" xml:space="preserve">
<g>
	<path fill-rule="evenodd" clip-rule="evenodd" fill="#2D3134" d="M30.5,23.2l-3-1.5c-0.8-0.4-1.5-0.1-1.5,0.8V40L1.5,27.7
		C0.7,27.3,0,27.7,0,28.5s0.7,1.8,1.5,2.2l26,13c0.8,0.4,1.5,0.1,1.5-0.8V25.5l1.5,0.7c0.8,0.4,1.5,0.1,1.5-0.8S31.3,23.7,30.5,23.2
		z"/>
	<path fill-rule="evenodd" clip-rule="evenodd" fill="#2D3134" d="M4.5,33.2C3.1,32.6,2,33.1,2,34.5c0,1.4,1.1,3.1,2.5,3.7
		S7,38.4,7,37C7,35.6,5.9,33.9,4.5,33.2z"/>
	<path fill-rule="evenodd" clip-rule="evenodd" fill="#2D3134" d="M24.5,43.2c-1.4-0.7-2.5-0.1-2.5,1.3c0,1.4,1.1,3.1,2.5,3.7
		c1.4,0.7,2.5,0.1,2.5-1.3C27,45.6,25.9,43.9,24.5,43.2z"/>
	<path fill-rule="evenodd" clip-rule="evenodd" fill="#2D3134" d="M4.8,28.4L7,29.5v-13l-2.2-1.1c-1-0.5-1.8-0.1-1.8,0.9v9.4
		C3,26.7,3.8,27.9,4.8,28.4z"/>
	<path fill-rule="evenodd" clip-rule="evenodd" fill="#2D3134" d="M23,35.7v-9.4c0-1-0.8-2.2-1.8-2.7L19,22.5v13l2.2,1.1
		C22.2,37.1,23,36.7,23,35.7z"/>
	<path fill-rule="evenodd" clip-rule="evenodd" fill="#2D3134" d="M18,22l-2-1v-1.1c0-0.5-0.4-1.1-0.9-1.4l-4.2-2.1
		c-0.5-0.3-0.9,0-0.9,0.5V18l-2-1v13l10,5V22z M15,20.5l-4-2v-1l4,2V20.5z"/>
</g>
</svg>
