<?xml version="1.0" encoding="utf-8"?>
<!-- Generator: Adobe Illustrator 18.1.0, SVG Export Plug-In . SVG Version: 6.00 Build 0)  -->
<svg version="1.1" id="Layer_1" xmlns="http://www.w3.org/2000/svg" xmlns:xlink="http://www.w3.org/1999/xlink" x="0px" y="0px"
	 viewBox="0 0 32 56" enable-background="new 0 0 32 56" xml:space="preserve">
<path fill-rule="evenodd" clip-rule="evenodd" fill="#2D3134" d="M29,27.1l-4.3-6.5c-0.4-0.6-1-0.9-1.4-0.7c-0.4,0.2-0.4,0.8,0,1.4
	l2.7,4.1v1c0,0.4,0.2,0.9,0.4,1.3L28,30v13c0,0.6-0.4,0.8-1,0.5c-0.6-0.3-1-0.9-1-1.5v-4c0-1.7-1.3-3.7-3-4.5L22,33V16.5
	c0-0.8-0.7-1.8-1.5-2.2l-14-7C5.7,6.8,5,7.2,5,8v27.5l-0.5-0.2C3.7,34.8,3,35.2,3,36s0.7,1.8,1.5,2.2L5,38.5L22,47l0.4,0.2
	c0.8,0.4,1.5,0.1,1.5-0.8s-0.7-1.8-1.5-2.2L22,44v-9l1,0.5c0.6,0.3,1,0.9,1,1.5v4c0,1.7,1.3,3.7,3,4.5c1.7,0.8,3,0.2,3-1.5V29.9
	C30,29.1,29.7,28.1,29,27.1z M19,25.5L8,20v-9l11,5.5V25.5z"/>
</svg>
