<?xml version="1.0" encoding="utf-8"?>
<!-- Generator: Adobe Illustrator 18.1.0, SVG Export Plug-In . SVG Version: 6.00 Build 0)  -->
<svg version="1.1" id="Layer_1" xmlns="http://www.w3.org/2000/svg" xmlns:xlink="http://www.w3.org/1999/xlink" x="0px" y="0px"
	 viewBox="0 0 64 32" enable-background="new 0 0 64 32" xml:space="preserve">
<path fill="#2D3134" d="M42.9,25c0.3-0.3,0.1-0.6-0.4-0.7l-5.4-1.6l-1.2-2.2l8.3,1.6L41,17.9l4.4,0.6l3.1,2.7
	c0.3,0.3,0.9,0.3,1.4,0.2c0.5-0.1,0.7-0.5,0.4-0.7l-2.1-1.8l3.8,0.5c0.8,0.1,1.5-0.1,1.7-0.5c0.2-0.4-0.2-0.8-1-0.9L49,17.6l3.6-1
	c0.5-0.1,0.7-0.5,0.4-0.7c-0.3-0.3-0.9-0.3-1.4-0.2l-5.4,1.6l-4.5-0.6l7-2.8l-8.8-0.7l3.2-1.6l6.3,0c0.6,0,1.1-0.2,1.1-0.5
	c0-0.3-0.5-0.5-1.1-0.5l-4.2,0L48,9c0.6-0.3,0.6-0.7,0-1c-0.6-0.3-1.4-0.3-2,0l-2.8,1.4l0-2.1c0-0.3-0.5-0.5-1.1-0.5
	c-0.6,0-1.1,0.2-1.1,0.5l0,3.1l-3.3,1.6l-1.4-4.4l-5.6,3.5l-1.2-2.2l3.1-2.7c0.3-0.3,0.1-0.6-0.4-0.7c-0.5-0.1-1.2-0.1-1.4,0.2
	l-2.1,1.8l-1-1.9c-0.2-0.4-1-0.6-1.7-0.5c-0.8,0.1-1.2,0.5-1,0.9l1,1.9l-3.6-1c-0.5-0.1-1.2-0.1-1.4,0.2c-0.3,0.3-0.1,0.6,0.4,0.7
	l5.4,1.6l1.2,2.2l-8.3-1.6l3.2,4.2l-4.4-0.6l-3.1-2.7c-0.3-0.3-0.9-0.3-1.4-0.2c-0.5,0.1-0.7,0.5-0.4,0.7l2.1,1.8l-3.8-0.5
	c-0.8-0.1-1.5,0.1-1.7,0.5c-0.2,0.4,0.2,0.8,1,0.9l3.8,0.5l-3.6,1c-0.5,0.1-0.7,0.5-0.4,0.7c0.3,0.3,0.9,0.3,1.4,0.2l5.4-1.6
	l4.4,0.6l-7,2.8l8.8,0.7l-3.3,1.6l-6.3,0c-0.6,0-1.1,0.2-1.1,0.5c0,0.3,0.5,0.5,1.1,0.5l4.2,0L16,23c-0.6,0.3-0.6,0.7,0,1
	c0.6,0.3,1.4,0.3,2,0l2.8-1.4l0,2.1c0,0.3,0.5,0.5,1.1,0.5c0.6,0,1.1-0.2,1.1-0.5l0-3.1l3.2-1.6l1.4,4.4l5.6-3.5l1.2,2.2l-3.1,2.7
	c-0.3,0.3-0.1,0.6,0.4,0.7c0.5,0.1,1.2,0.1,1.4-0.2l2.1-1.8l1,1.9c0.2,0.4,1,0.6,1.7,0.5c0.8-0.1,1.2-0.5,1-0.9l-1-1.9l3.6,1
	C41.9,25.3,42.6,25.2,42.9,25z M41.2,20.6l-5.9-1.1L34,17l4.9,0.7L41.2,20.6z M44.6,14.3l-5,2l-4.9-0.7l3.6-1.8L44.6,14.3z
	 M35.4,9.7l1,3.1l-3.6,1.8l-1.3-2.5L35.4,9.7z M22.7,11.4l5.9,1.1L30,15l-5-0.7L22.7,11.4z M19.4,17.7l4.9-2l5,0.7l-3.6,1.8
	L19.4,17.7z M28.6,22.3l-1-3.1l3.6-1.8l1.3,2.5L28.6,22.3z"/>
</svg>
