<?xml version="1.0" encoding="utf-8"?>
<!-- Generator: Adobe Illustrator 18.1.0, SVG Export Plug-In . SVG Version: 6.00 Build 0)  -->
<svg version="1.1" id="Layer_1" xmlns="http://www.w3.org/2000/svg" xmlns:xlink="http://www.w3.org/1999/xlink" x="0px" y="0px"
	 viewBox="0 0 64 32" enable-background="new 0 0 64 32" xml:space="preserve">
<path fill="#2D3134" d="M46.7,16.6c0-0.1,0-0.2-0.2-0.3l-3.8-1.9l8.6-2c0.2,0,0.4-0.1,0.4-0.3s0-0.2-0.2-0.3L47,9.5L48,9l0.5,0.3
	c0.3,0.1,0.7,0.1,1,0c0.3-0.1,0.3-0.4,0-0.5l-3-1.5c-0.3-0.1-0.7-0.1-1,0c-0.3,0.1-0.3,0.4,0,0.5L46,8l-1,0.5l-4.5-2.3
	c-0.2-0.1-0.4-0.1-0.6-0.1s-0.4,0.1-0.5,0.2l-4.1,4.3l-3.8-1.9c-0.2-0.1-0.4-0.1-0.6-0.1s-0.4,0.1-0.5,0.2L26.5,13
	c-0.5,0.5-0.3,1.1,0.5,1.5l-14.5,7.3c-0.3,0.1-0.3,0.4,0,0.5l7,3.5c0.3,0.1,0.7,0.1,1,0L35,18.5l0,0c0.8,0.4,2,0.5,3.1,0.3l8.2-1.9
	C46.5,16.8,46.7,16.7,46.7,16.6z M40.7,8.6c0.2,0,0.5,0,0.6,0.1l5.3,2.7c0.2,0.1,0.2,0.2,0.2,0.3s-0.2,0.2-0.4,0.3l-4.1,1
	c-0.3,0.1-0.6,0-0.8-0.1l-3.2-1.6c-0.2-0.1-0.3-0.3-0.1-0.4l1.9-2C40.3,8.7,40.5,8.6,40.7,8.6z M29.4,13.7c-0.2-0.1-0.3-0.3-0.1-0.4
	l1.9-2c0.1-0.1,0.3-0.2,0.5-0.2s0.5,0,0.6,0.1L36,13l-4,2L29.4,13.7z M41.5,16.4l-4.1,1c-0.3,0.1-0.6,0-0.8-0.1L34,16l4-2l3.7,1.8
	c0.2,0.1,0.2,0.2,0.2,0.3S41.7,16.4,41.5,16.4z"/>
</svg>
