<?xml version="1.0" encoding="utf-8"?>
<!-- Generator: Adobe Illustrator 18.1.0, SVG Export Plug-In . SVG Version: 6.00 Build 0)  -->
<svg version="1.1" id="Layer_1" xmlns="http://www.w3.org/2000/svg" xmlns:xlink="http://www.w3.org/1999/xlink" x="0px" y="0px"
	 viewBox="0 0 32 32" enable-background="new 0 0 32 32" xml:space="preserve">
<path fill-rule="evenodd" clip-rule="evenodd" fill="#2D3134" d="M23.9,11.8C22.9,9,25,5.1,25,5.1s-3.7,1.4-5.7,6
	c-1,2.3-1.2,4.1-1.2,4.1s-0.8-3.3-0.8-6.3c0-3,1.4-7.8,1.4-7.8s-6,3.6-8.3,9.4c-0.9,2.2-1.7,5.8-1.9,9.1c-1.4-4-0.7-8.5-0.7-8.5
	s-4.5,5.4-1.5,13.5c2,5.4,7,6.4,10.1,6.4c-0.9-0.2-2.4-0.7-4-2c-4.1-3.3-4-7.2-4-7.2s0.7,2,3,3.3c2.4,1.3,3.8,1.3,3.8,1.3
	s-1.6-0.7-2.8-4.2c-1.4-4.1,2.2-11.5,2.2-11.5s-0.2,3.2,0.3,6.6c0.5,3.5,3,5.3,3,5.3s0.3-1.7,0.9-3.2c0.6-1.4,2.4-4.1,2.4-4.1
	s-0.7,2.5,0.1,5.2c0.4,1.4,1.1,2.6,0.9,4.8c-0.4,3.9-2.3,5.2-3.6,5.7c0.1,0,0.1,0,0.2,0c0.2,0,0.3,0,0.3,0s0,0,0,0
	c2.8-0.7,8-2.9,8-8.6C27,18.1,25,15.1,23.9,11.8z"/>
</svg>
