<?xml version="1.0" encoding="utf-8"?>
<!-- Generator: Adobe Illustrator 18.1.0, SVG Export Plug-In . SVG Version: 6.00 Build 0)  -->
<svg version="1.1" id="Layer_1" xmlns="http://www.w3.org/2000/svg" xmlns:xlink="http://www.w3.org/1999/xlink" x="0px" y="0px"
	 viewBox="0 0 32 56" enable-background="new 0 0 32 56" xml:space="preserve">
<path fill="#2D3134" d="M25.2,32.7l-7.3-9c-0.1-0.4-0.3-0.8-0.5-1.2L16.4,13c0-0.5-0.4-1-0.9-1.3c-0.5-0.2-0.8-0.1-0.9,0.4l-0.9,8.5
	c-0.3,0.1-0.4,0.4-0.5,0.7L5.8,23c-0.4,0.1-0.5,0.5-0.3,1.1c0.2,0.4,0.5,0.7,0.8,0.8C6.5,24.9,6.6,25,6.7,25l7.6,0.4l-1.6,14
	l-1.2-0.6c-0.3-0.1-0.5,0-0.5,0.3v2c0,0.3,0.2,0.6,0.5,0.7l8,4c0.3,0.1,0.5,0,0.5-0.3v-2c0-0.3-0.2-0.6-0.5-0.7l-1.2-0.6l-1.6-15.6
	l7.6,7.2c0.1,0.1,0.3,0.2,0.4,0.3c0.3,0.2,0.6,0.1,0.8-0.1C25.7,33.7,25.6,33.1,25.2,32.7z M15.5,24.8c-0.8-0.4-1.5-1.4-1.5-2.2
	s0.7-1.2,1.5-0.8c0.8,0.4,1.5,1.4,1.5,2.2S16.3,25.2,15.5,24.8z"/>
</svg>
