<?xml version="1.0" encoding="utf-8"?>
<!-- Generator: Adobe Illustrator 18.1.0, SVG Export Plug-In . SVG Version: 6.00 Build 0)  -->
<svg version="1.1" id="Layer_1" xmlns="http://www.w3.org/2000/svg" xmlns:xlink="http://www.w3.org/1999/xlink" x="0px" y="0px"
	 viewBox="0 0 32 56" enable-background="new 0 0 32 56" xml:space="preserve">
<g>
	<path fill-rule="evenodd" clip-rule="evenodd" fill="#2D3134" d="M14,19c1.1,0.6,2,0.1,2-1c0-1.1-0.9-2.4-2-3s-2-0.1-2,1
		C12,17.1,12.9,18.4,14,19z"/>
	<path fill-rule="evenodd" clip-rule="evenodd" fill="#2D3134" d="M11.8,27.9L12,28v10l4,2V30l0.3,0.1c0.4,0.2,0.8,0,0.8-0.4v-6.9
		c0-0.7-0.6-1.6-1.3-2l-3.3-1.7c-0.7-0.4-1.3-0.1-1.3,0.7v6.9C11,27.2,11.3,27.7,11.8,27.9z"/>
	<path fill-rule="evenodd" clip-rule="evenodd" fill="#2D3134" d="M20.4,15.2L7.6,8.8C6.7,8.4,6,8.7,6,9.6v26.8c0,0.9,0.7,2,1.6,2.4
		l12.8,6.4c0.9,0.4,1.6,0.1,1.6-0.8V17.6C22,16.7,21.3,15.6,20.4,15.2z M20,43L8,37V11l12,6V43z"/>
	<polygon fill-rule="evenodd" clip-rule="evenodd" fill="#2D3134" points="27,35.5 25,34.5 25,39.5 23,38.5 26,44 29,41.5 27,40.5 	
		"/>
	<polygon fill-rule="evenodd" clip-rule="evenodd" fill="#2D3134" points="25,30.5 27,31.5 27,26.5 29,27.5 26,22 23,24.5 25,25.5 	
		"/>
</g>
</svg>
