<?xml version="1.0" encoding="utf-8"?>
<!-- Generator: Adobe Illustrator 18.1.0, SVG Export Plug-In . SVG Version: 6.00 Build 0)  -->
<svg version="1.1" id="Layer_1" xmlns="http://www.w3.org/2000/svg" xmlns:xlink="http://www.w3.org/1999/xlink" x="0px" y="0px"
	 viewBox="0 0 64 32" enable-background="new 0 0 64 32" xml:space="preserve">
<path fill="#2D3134" d="M36,30l24-12l-2-1l1-0.5c0.6-0.3,0.6-0.7,0-1l-8.5-4.3c-1.7-0.9-4-1.2-6.2-1.1l-0.5-0.3
	c0.2-1.1-0.5-2.3-2.2-3.1L33,2.5c-0.6-0.3-1.4-0.3-2,0L30,3l-2-1L4,14l13.4,6.7c0,0,0,0,0,0c-0.1,0.6,0.5,1.2,1.6,1.8
	s2.5,0.8,3.6,0.8c0,0,0,0,0,0L36,30z M48.5,12.3L56,16L35,26.5l-3.5-1.8c-2-1-4.3-1.9-6.9-2.5c0-0.4-0.2-0.8-0.7-1.2l17.6-8.8
	C43.4,11.3,46.6,11.3,48.5,12.3z M32,4l7.5,3.8c1.9,1,1.9,2.5,0,3.5l-17.6,8.8c-0.8-0.2-1.6-0.4-2.3-0.4c-1.3-1.3-3-2.4-5-3.4
	L11,14.5L32,4z"/>
</svg>
