<?xml version="1.0" encoding="utf-8"?>
<!-- Generator: Adobe Illustrator 18.1.0, SVG Export Plug-In . SVG Version: 6.00 Build 0)  -->
<svg version="1.1" id="Layer_1" xmlns="http://www.w3.org/2000/svg" xmlns:xlink="http://www.w3.org/1999/xlink" x="0px" y="0px"
	 viewBox="0 0 32 32" enable-background="new 0 0 32 32" xml:space="preserve">
<g>
	<path fill="#2D3134" d="M3.4,23.8L0,9.3h2.9l2.1,10l2.6-10h3.4l2.5,10.1l2.2-10.1h2.9l-3.5,14.5h-3L9.3,12.9L6.5,23.8H3.4z"/>
	<path fill="#2D3134" d="M29.2,18.4l2.8,0.9c-0.4,1.6-1.1,2.8-2.1,3.5S27.6,24,26.1,24c-1.9,0-3.4-0.7-4.7-2
		c-1.2-1.3-1.8-3.1-1.8-5.4c0-2.4,0.6-4.3,1.8-5.6c1.2-1.3,2.8-2,4.8-2c1.7,0,3.2,0.5,4.2,1.6c0.6,0.6,1.1,1.5,1.5,2.7l-2.8,0.7
		c-0.2-0.8-0.5-1.3-1.1-1.8s-1.2-0.7-1.9-0.7c-1.1,0-1.9,0.4-2.6,1.2c-0.7,0.8-1,2-1,3.7c0,1.8,0.3,3.1,1,3.9
		c0.6,0.8,1.5,1.2,2.5,1.2c0.8,0,1.4-0.2,2-0.7S29,19.5,29.2,18.4z"/>
</g>
</svg>
