<?xml version="1.0" encoding="utf-8"?>
<!-- Generator: Adobe Illustrator 18.1.0, SVG Export Plug-In . SVG Version: 6.00 Build 0)  -->
<svg version="1.1" id="Layer_1" xmlns="http://www.w3.org/2000/svg" xmlns:xlink="http://www.w3.org/1999/xlink" x="0px" y="0px"
	 viewBox="0 0 32 56" enable-background="new 0 0 32 56" xml:space="preserve">
<g>
	<path fill-rule="evenodd" clip-rule="evenodd" fill="#2D3134" d="M20.7,20.4l-8.3-4.2C11,15.6,10,16.1,10,17.4V27
		c0,0.6,0.4,1.2,1,1.5c0.6,0.3,1,0.1,1-0.5v-8l1,0.5v21c0,0.6,0.4,1.2,1,1.5l1,0.5c0.6,0.3,1,0.1,1-0.5V31l1,0.5v12
		c0,0.6,0.4,1.2,1,1.5l1,0.5c0.6,0.3,1,0.1,1-0.5V24l1,0.5v8c0,0.6,0.4,1.2,1,1.5c0.6,0.3,1,0.1,1-0.5v-9.7C23,22.6,22,21,20.7,20.4
		z"/>
	<path fill-rule="evenodd" clip-rule="evenodd" fill="#2D3134" d="M16.5,17.3C17.9,18,19,17.4,19,16c0-1.4-1.1-3.1-2.5-3.7
		c-1.4-0.7-2.5-0.1-2.5,1.3C14,14.9,15.1,16.6,16.5,17.3z"/>
</g>
</svg>
