<?xml version="1.0" encoding="utf-8"?>
<!-- Generator: Adobe Illustrator 18.1.0, SVG Export Plug-In . SVG Version: 6.00 Build 0)  -->
<svg version="1.1" id="Layer_1" xmlns="http://www.w3.org/2000/svg" xmlns:xlink="http://www.w3.org/1999/xlink" x="0px" y="0px"
	 viewBox="0 0 64 32" enable-background="new 0 0 64 32" xml:space="preserve">
<path fill-rule="evenodd" clip-rule="evenodd" fill="#2D3134" d="M27.3,20.6l3.9-0.5l-10.5-1.4L13,22.5l3.9-0.5l1-0.1l1.4,2.6
	c0.1,0.2,0.4,0.5,0.7,0.6c0.3,0.2,0.7,0.3,1.2,0.3c0,0,4.6,0.6,8.4,1.1c-0.2-0.2-0.4-0.4-0.6-0.7l-2.7-5.1L27.3,20.6z M30.4,25.8
	c0.1,0.3,0.4,0.5,0.8,0.7c0.4,0.2,0.9,0.3,1.5,0.4c1.1,0.2,2.3,0,3.1-0.4c0,0,6.4-3.2,7.6-3.8c-1.1-0.5-5-2.5-6.1-3.1
	c-1.2,0.6-7.3,3.7-8,4C29.5,24.2,30.4,25.8,30.4,25.8z M30.8,3.8l-1.1,2l-0.3,0.5l-5.3-0.7c-0.5-0.1-1-0.1-1.4,0
	c-0.5,0.1-0.9,0.2-1.2,0.3c0,0-3.4,1.7-6.1,3.1c0.5,0,1,0,1.5,0.1l10.3,1.4L27,10.9l-1.1,2L33.6,9L30.8,3.8z M21.2,10.3
	c-0.9-0.1-4.2-0.6-4.2-0.6c-0.6-0.1-1.2-0.1-1.7,0c-0.5,0.1-1,0.2-1.4,0.4c-0.8,0.4-1.1,1-0.8,1.6c0,0,2.3,4.4,2.8,5.2
	c1.5-0.2,6.9-0.9,8.4-1.1C23.7,15,21.4,10.8,21.2,10.3z M44.5,16l-0.8-0.4l-2.9-1.4l2.8,5.3l10.5,1.4l-2.9-1.4l-0.8-0.4l3.9-1.9
	c0.4-0.2,0.6-0.4,0.7-0.6c0.1-0.2,0.1-0.5,0-0.7c0,0-1.2-2.3-2.2-4.2c-0.3,0.2-0.5,0.4-0.9,0.6L44.5,16z M49.7,9.1
	c0,0-8.8-1.2-10.4-1.4c-0.4,0.7-1.8,3.4-2.2,4.2c1.6,0.2,10,1.3,11,1.5c0.7-0.3,3.1-1.6,3.1-1.6c0.4-0.2,0.7-0.5,0.9-0.7
	c0.1-0.3,0.2-0.5,0-0.8C51.7,9.7,50.8,9.3,49.7,9.1z"/>
</svg>
