<?xml version="1.0" encoding="utf-8"?>
<!-- Generator: Adobe Illustrator 18.1.0, SVG Export Plug-In . SVG Version: 6.00 Build 0)  -->
<svg version="1.1" id="Layer_1" xmlns="http://www.w3.org/2000/svg" xmlns:xlink="http://www.w3.org/1999/xlink" x="0px" y="0px"
	 viewBox="0 0 64 32" enable-background="new 0 0 64 32" xml:space="preserve">
<path fill="#2D3134" d="M38.5,14.3h18L54,15.5l1,3.4c0.4,1.2-2.7,1.7-4,0.8l-2.5-1.9L34,20l-9.5,4.8c-0.8,0.4-2.2,0.4-3,0h0
	c-0.8-0.4-0.8-1.1,0-1.5L30,19l-6-3l-3,0.5l-2.6,4.3c-0.4,0.6-1.7,1-3,0.8h0c-1.2-0.2-1.9-0.9-1.5-1.5l3.1-4.5l3-1.5l-5.5-0.3l-6,3
	c-0.8,0.4-2.2,0.4-3,0h0c-0.8-0.4-0.8-1.1,0-1.5l6-3l5.5-0.8l6-3l-0.7-0.3c-0.7-0.4-1.9-0.4-2.7,0l-1.9,0.9
	c-1.2,0.6-2.7,0.9-4.4,0.9H12l6-3c1.7-0.8,4.4-0.8,6.1,0L38.5,14.3z"/>
</svg>
