<?xml version="1.0" encoding="utf-8"?>
<!-- Generator: Adobe Illustrator 18.1.0, SVG Export Plug-In . SVG Version: 6.00 Build 0)  -->
<svg version="1.1" id="Layer_1" xmlns="http://www.w3.org/2000/svg" xmlns:xlink="http://www.w3.org/1999/xlink" x="0px" y="0px"
	 viewBox="0 0 32 56" enable-background="new 0 0 32 56" xml:space="preserve">
<g>
	<path fill-rule="evenodd" clip-rule="evenodd" fill="#2D3134" d="M24,31c1.1-0.7,2.4-1.6,2.4-2.8c0-0.5-0.9-1.8-2.2-3.2V25
		c0-0.1,0-0.2,0-0.2c0-0.4,0-0.8,0-1.2c0-1.5-2.8-5.9-4.9-7c0,0-0.1,0-0.3-0.1v-1.9c0-0.6-0.4-1.3-1.3-1.7l-1.3-0.6
		C15.5,11.8,15,12,15,12.6v1.9c-0.2-0.1-0.4-0.2-0.4-0.2c-2-1-4.9,0.6-4.9,2.1c0,0.4,0,0.8,0,1.2c0,0.1,0,0.1,0,0.2v0.1
		c-1.3,0.1-2.2,0.4-2.2,0.9c0,1.1,1.4,3.4,2.5,5.2v10l-3-1.5c0,1.7,1.3,3.7,3,4.5s3,0.2,3-1.5c0,1.7,1.3,3.7,3,4.5s3,0.2,3-1.5
		c0,1.7,1.3,3.7,3,4.5s3,0.2,3-1.5L24,41V31z M10.9,17.8C10.9,17.8,10.9,17.8,10.9,17.8c-0.1-0.5-0.1-0.8-0.1-0.8
		c0-0.8,2.7-2.2,4.1-1.5l4,2c1.5,0.7,4,4.8,4,5.6c0,0,0,0.3,0,0.8c-0.2-0.2-0.4-0.4-0.6-0.6C18.7,19.8,14.5,17.8,10.9,17.8z"/>
	<path fill-rule="evenodd" clip-rule="evenodd" fill="#2D3134" d="M4,38c1.7,0.8,3,0.2,3-1.5l-6-3C1,35.2,2.3,37.2,4,38z"/>
	<path fill-rule="evenodd" clip-rule="evenodd" fill="#2D3134" d="M10,41c1.7,0.8,3,0.2,3-1.5l-6-3C7,38.2,8.3,40.2,10,41z"/>
	<path fill-rule="evenodd" clip-rule="evenodd" fill="#2D3134" d="M16,44c1.7,0.8,3,0.2,3-1.5l-6-3C13,41.2,14.3,43.2,16,44z"/>
	<path fill-rule="evenodd" clip-rule="evenodd" fill="#2D3134" d="M25,41.5c0,1.7,1.3,3.7,3,4.5s3,0.2,3-1.5L25,41.5z"/>
</g>
</svg>
