<?xml version="1.0" encoding="utf-8"?>
<!-- Generator: Adobe Illustrator 18.1.0, SVG Export Plug-In . SVG Version: 6.00 Build 0)  -->
<svg version="1.1" id="Layer_1" xmlns="http://www.w3.org/2000/svg" xmlns:xlink="http://www.w3.org/1999/xlink" x="0px" y="0px"
	 viewBox="0 0 32 56" enable-background="new 0 0 32 56" xml:space="preserve">
<g>
	<path fill="#2D3134" d="M5.3,22.6C6,22.3,6.5,22,6.8,21.8c0.4-0.3,0.7-0.7,0.9-1.1C7.9,20.3,8,19.9,8,19.3c0-0.9-0.3-1.9-1-2.9
		c-0.7-1-1.6-1.8-2.8-2.3c-1.1-0.5-2-0.7-2.7-0.5c-0.7,0.2-1.1,0.9-1.3,2.1L2.6,17c0-0.6,0.2-1,0.5-1.2c0.3-0.1,0.7-0.1,1.1,0.1
		c0.5,0.2,0.9,0.6,1.1,1c0.3,0.4,0.4,0.9,0.4,1.4c0,0.5-0.2,0.9-0.5,1.2c-0.2,0.2-0.9,0.6-1.9,1c-1.3,0.5-2.1,1.1-2.6,1.6
		C0.3,22.6,0.1,23.2,0,24l8,4v-2.1l-4.5-2.3c0.1-0.1,0.3-0.3,0.5-0.4C4.1,23.1,4.6,22.9,5.3,22.6z"/>
	<path fill="#2D3134" d="M17.7,28.4l-1.5-0.7v-7.6l-1.9-1l-5.2,5v2l4.9,2.4V31l2.2,1.1v-2.4l1.5,0.7V28.4z M14,26.6l-2.7-1.4
		l2.7-2.7V26.6z"/>
	<polygon fill="#2D3134" points="24,24 17.1,37.5 18.9,38.4 25.9,24.9 	"/>
	<path fill="#2D3134" d="M24,31v2.2l5.3,2.7c-1.1,0.8-2,2-2.6,3.4c-0.7,1.4-1,3-1,4.6l2.2,1.1c0-1.1,0.2-2.2,0.5-3.4
		c0.4-1.2,0.9-2.2,1.6-3.1c0.7-0.9,1.3-1.5,2-1.8V35L24,31z"/>
</g>
</svg>
