<?xml version="1.0" encoding="utf-8"?>
<!-- Generator: Adobe Illustrator 18.1.0, SVG Export Plug-In . SVG Version: 6.00 Build 0)  -->
<svg version="1.1" id="Layer_1" xmlns="http://www.w3.org/2000/svg" xmlns:xlink="http://www.w3.org/1999/xlink" x="0px" y="0px"
	 viewBox="0 0 32 56" enable-background="new 0 0 32 56" xml:space="preserve">
<g>
	<path fill="#2D3134" d="M8,23.9c0,4.4,3.6,9.8,8,12c4.4,2.2,8,0.4,8-4c0-4.4-3.6-9.8-8-12S8,19.5,8,23.9z"/>
	<path fill="#2D3134" d="M16,17.9c0.6,0.3,1,0.1,1-0.5v-4c0-0.6-0.4-1.2-1-1.5c-0.6-0.3-1-0.1-1,0.5v4C15,17,15.4,17.6,16,17.9z"/>
	<path fill="#2D3134" d="M16,37.9c-0.6-0.3-1-0.1-1,0.5v4c0,0.6,0.4,1.2,1,1.5s1,0.1,1-0.5v-4C17,38.9,16.6,38.2,16,37.9z"/>
	<path fill="#2D3134" d="M6,22.9c0-0.6-0.4-1.2-1-1.5l-4-2c-0.6-0.3-1-0.1-1,0.5s0.4,1.2,1,1.5l4,2C5.6,23.7,6,23.5,6,22.9z"/>
	<path fill="#2D3134" d="M31,34.4l-4-2c-0.6-0.3-1-0.1-1,0.5s0.4,1.2,1,1.5l4,2c0.6,0.3,1,0.1,1-0.5S31.6,34.7,31,34.4z"/>
	<path fill="#2D3134" d="M9.6,15.7c0.3,0.6,0.9,1.1,1.4,1c0.5,0,0.6-0.6,0.4-1.2l-2-4.5c-0.3-0.6-0.9-1.1-1.4-1
		c-0.5,0-0.6,0.6-0.4,1.2L9.6,15.7z"/>
	<path fill="#2D3134" d="M22.4,40.1c-0.3-0.6-0.9-1.1-1.4-1c-0.5,0-0.6,0.6-0.4,1.2l2,4.5c0.3,0.6,0.9,1.1,1.4,1
		c0.5,0,0.6-0.6,0.4-1.2L22.4,40.1z"/>
	<path fill="#2D3134" d="M6,27.5l-3.5,0.3c-0.5,0-0.6,0.6-0.4,1.2c0.3,0.6,0.9,1.1,1.4,1L7,29.8c0.5,0,0.6-0.6,0.4-1.2
		C7.1,28,6.5,27.5,6,27.5z"/>
	<path fill="#2D3134" d="M26,28.3l3.5-0.3c0.5,0,0.6-0.6,0.4-1.2c-0.3-0.6-0.9-1.1-1.4-1L25,26.1c-0.5,0-0.6,0.6-0.4,1.2
		C24.9,27.9,25.5,28.3,26,28.3z"/>
	<path fill="#2D3134" d="M7,17l-3.5-3.7C3,12.8,2.4,12.6,2.1,13c-0.3,0.3-0.1,1,0.4,1.5L6,18.3c0.5,0.5,1.1,0.7,1.4,0.3
		C7.6,18.2,7.5,17.6,7,17z"/>
	<path fill="#2D3134" d="M29.5,41.3L26,37.6c-0.5-0.5-1.1-0.7-1.4-0.3c-0.3,0.3-0.1,1,0.4,1.5l3.5,3.7c0.5,0.5,1.1,0.7,1.4,0.3
		C30.1,42.5,30,41.8,29.5,41.3z"/>
	<path fill="#2D3134" d="M11,34.1c-0.5-0.5-1.1-0.7-1.4-0.3l-2,2.5c-0.3,0.3-0.1,1,0.4,1.5c0.5,0.5,1.1,0.7,1.4,0.3l2-2.5
		C11.6,35.3,11.5,34.6,11,34.1z"/>
	<path fill="#2D3134" d="M24,18.1c-0.5-0.5-1.1-0.7-1.4-0.3l-2,2.5c-0.3,0.3-0.1,1,0.4,1.5c0.5,0.5,1.1,0.7,1.4,0.3l2-2.5
		C24.6,19.3,24.5,18.6,24,18.1z"/>
</g>
</svg>
