<?xml version="1.0" encoding="utf-8"?>
<!-- Generator: Adobe Illustrator 18.1.0, SVG Export Plug-In . SVG Version: 6.00 Build 0)  -->
<svg version="1.1" id="Layer_1" xmlns="http://www.w3.org/2000/svg" xmlns:xlink="http://www.w3.org/1999/xlink" x="0px" y="0px"
	 viewBox="0 0 32 32" enable-background="new 0 0 32 32" xml:space="preserve">
<g>
	<path fill-rule="evenodd" clip-rule="evenodd" fill="#2D3134" d="M30.5,12h-1c-0.8,0-1.5,0.7-1.5,1.5V22H4V9.5C4,8.7,3.3,8,2.5,8
		h-1C0.7,8,0,8.7,0,9.5V30h4v-4h24v4h4V13.5C32,12.7,31.3,12,30.5,12z"/>
	<path fill-rule="evenodd" clip-rule="evenodd" fill="#2D3134" d="M27,17.6c0-2-1.6-3.6-3.6-3.6H15v7h12V17.6z"/>
	<path fill-rule="evenodd" clip-rule="evenodd" fill="#2D3134" d="M14,15.5c0-0.8-0.7-1.5-1.5-1.5S11,14.7,11,15.5V18H5v3h9V15.5z"
		/>
	<circle fill-rule="evenodd" clip-rule="evenodd" fill="#2D3134" cx="7.5" cy="14.5" r="2.5"/>
</g>
</svg>
