<?xml version="1.0" encoding="utf-8"?>
<!-- Generator: Adobe Illustrator 18.1.0, SVG Export Plug-In . SVG Version: 6.00 Build 0)  -->
<svg version="1.1" id="Layer_1" xmlns="http://www.w3.org/2000/svg" xmlns:xlink="http://www.w3.org/1999/xlink" x="0px" y="0px"
	 viewBox="0 0 32 32" enable-background="new 0 0 32 32" xml:space="preserve">
<path fill="#2D3134" d="M23.2,10.4l-4-3.5c-0.6-0.5-1.6,0.1-1.3,0.9l0.7,2.5c-3.4,0.7-6.1,3.1-7.5,4.6C9.4,13.1,6,10,1.7,10
	c-0.2,0-0.5,0-0.7,0c2.4,0.4,4.1,6,4.1,6S3.4,21.5,1,22c0.2,0,0.5,0,0.7,0c4.3,0,7.7-3.1,9.3-4.8c1.4,1.5,4.1,3.9,7.5,4.6l-0.7,2.5
	c-0.2,0.8,0.7,1.4,1.3,0.9l4-3.5C27.8,20.3,31,16,31,16S27.8,11.7,23.2,10.4z M23.5,16c-0.8,0-1.5-0.7-1.5-1.5s0.7-1.5,1.5-1.5
	s1.5,0.7,1.5,1.5S24.3,16,23.5,16z"/>
</svg>
