<?xml version="1.0" encoding="utf-8"?>
<!-- Generator: Adobe Illustrator 18.1.0, SVG Export Plug-In . SVG Version: 6.00 Build 0)  -->
<svg version="1.1" id="Layer_1" xmlns="http://www.w3.org/2000/svg" xmlns:xlink="http://www.w3.org/1999/xlink" x="0px" y="0px"
	 viewBox="0 0 32 56" enable-background="new 0 0 32 56" xml:space="preserve">
<g>
	<path fill="#2D3134" d="M5.8,37.9c-0.2-0.2-0.6-0.2-0.9-0.3c0.8-0.5,1.3-1.1,1.7-1.7c0.4-0.6,0.6-1.3,0.6-2c0-0.5-0.1-0.9-0.4-1.2
		c-0.3-0.3-0.6-0.4-1-0.4c-0.4,0-1.1,0.3-2,0.8L0,35v9l1.8-0.9v-3.8l0.4-0.2C2.5,39,2.8,38.9,3,38.8c0.2,0,0.4,0,0.5,0.1
		s0.5,0.4,0.9,0.9l1.3,1.3l2.1-1.1l-1.1-1.2C6.4,38.4,6,38,5.8,37.9z M3.1,37.3l-1.3,0.7v-2.3L3.1,35c0.7-0.4,1.1-0.6,1.3-0.6
		c0.3-0.1,0.5-0.1,0.7,0c0.2,0.1,0.2,0.3,0.2,0.6c0,0.3-0.1,0.5-0.2,0.8C5,36,4.9,36.2,4.6,36.4S3.9,36.9,3.1,37.3z"/>
	<polygon fill="#2D3134" points="10.8,34.6 15.1,32.4 15.1,31 10.8,33.1 10.8,31.1 15.5,28.8 15.5,27.3 9,30.5 9,39.5 15.6,36.2 
		15.6,34.7 10.8,37.1 	"/>
	<polygon fill="#2D3134" points="22.4,29.8 18.8,25.6 17.1,26.5 17.1,35.5 18.7,34.6 18.7,28.8 22.2,32.9 24,32 24,23 22.4,23.8 	
		"/>
	<polygon fill="#2D3134" points="25.1,22.5 25.1,24 27.7,22.7 27.7,30.2 29.4,29.3 29.4,21.8 32,20.5 32,19 	"/>
	<polygon fill="#2D3134" points="0.9,29.4 3.5,28.1 3.5,27.3 0.9,28.6 0.9,26.5 4.6,24.7 4.6,23.9 0,26.1 0,32.9 0.9,32.5 	"/>
	<path fill="#2D3134" d="M11.6,25.6c0.3-0.7,0.4-1.4,0.4-2.1c0-0.7-0.1-1.2-0.4-1.6c-0.3-0.4-0.7-0.6-1.2-0.6
		c-0.5,0-1.2,0.1-1.8,0.5C7.5,22.3,6.6,23,6,24c-0.7,1-1,2-1,3.1c0,0.6,0.1,1.1,0.4,1.5c0.3,0.4,0.7,0.6,1.2,0.6
		c0.5,0,1.2-0.1,1.8-0.5c0.6-0.3,1.2-0.8,1.8-1.3C10.8,26.9,11.3,26.3,11.6,25.6z M8.5,28c-0.7,0.4-1.3,0.4-1.8,0.2
		C6.2,27.9,6,27.4,6,26.6c0-1,0.2-1.9,0.7-2.6c0.5-0.7,1.1-1.2,1.8-1.5c0.5-0.2,0.9-0.3,1.3-0.3c0.4,0,0.7,0.2,0.9,0.5
		C10.9,23,11,23.5,11,24c0,0.9-0.2,1.7-0.7,2.4S9.2,27.6,8.5,28z"/>
	<path fill="#2D3134" d="M19.1,23.5l-1.2-1.3c-0.2-0.2-0.5-0.4-0.7-0.5c-0.1,0-0.3-0.1-0.5-0.1c0.6-0.4,1.1-0.9,1.4-1.3
		c0.3-0.5,0.5-1,0.5-1.4c0-0.4-0.1-0.7-0.3-0.9c-0.2-0.2-0.4-0.3-0.8-0.3s-0.8,0.2-1.4,0.5l-3,1.4v6.8l0.9-0.4v-3l1-0.4
		c0.2-0.1,0.4-0.2,0.5-0.2c0.1,0,0.3,0,0.4,0c0.1,0,0.3,0.1,0.5,0.2s0.4,0.3,0.6,0.6l0.9,1L19.1,23.5z M15.9,21.3L14,22.1v-2.2
		l2.1-1c0.5-0.3,0.9-0.3,1.1-0.2c0.2,0.1,0.3,0.3,0.3,0.6c0,0.2-0.1,0.5-0.2,0.7s-0.3,0.5-0.5,0.7C16.6,20.9,16.3,21.1,15.9,21.3z"
		/>
</g>
</svg>
