<?xml version="1.0" encoding="utf-8"?>
<!-- Generator: Adobe Illustrator 18.1.0, SVG Export Plug-In . SVG Version: 6.00 Build 0)  -->
<svg version="1.1" id="Layer_1" xmlns="http://www.w3.org/2000/svg" xmlns:xlink="http://www.w3.org/1999/xlink" x="0px" y="0px"
	 viewBox="0 0 32 32" enable-background="new 0 0 32 32" xml:space="preserve">
<g>
	<path fill-rule="evenodd" clip-rule="evenodd" fill="#2D3134" d="M20,1C13.9,1,9,5.9,9,12c0,2.3,0.7,4.5,1.9,6.2l-9.4,9.4
		c-0.8,0.8-0.8,2,0,2.8c0.8,0.8,2,0.8,2.8,0l9.4-9.4c1.8,1.2,3.9,1.9,6.2,1.9c6.1,0,11-4.9,11-11S26.1,1,20,1z M20,21c-5,0-9-4-9-9
		s4-9,9-9s9,4,9,9S25,21,20,21z"/>
	<path fill-rule="evenodd" clip-rule="evenodd" fill="#2D3134" d="M20,5c-3.9,0-7,3.1-7,7c0,0.6,0.4,1,1,1s1-0.4,1-1
		c0-2.8,2.2-5,5-5c0.6,0,1-0.4,1-1S20.6,5,20,5z"/>
</g>
</svg>
