<?xml version="1.0" encoding="utf-8"?>
<!-- Generator: Adobe Illustrator 18.1.0, SVG Export Plug-In . SVG Version: 6.00 Build 0)  -->
<svg version="1.1" id="Layer_1" xmlns="http://www.w3.org/2000/svg" xmlns:xlink="http://www.w3.org/1999/xlink" x="0px" y="0px"
	 viewBox="0 0 64 32" enable-background="new 0 0 64 32" xml:space="preserve">
<path fill="#2D3134" d="M42.5,26.3L41,25.5l3-1.5l0.5,0.3c0.3,0.1,0.7,0.1,1,0l6-3c0.3-0.1,0.3-0.4,0-0.5l-29-14.5
	c-0.3-0.1-0.7-0.1-1,0l-6,3c-0.3,0.1-0.3,0.4,0,0.5L16,10l-3,1.5l-1.5-0.8c-0.3-0.1-0.7-0.1-1,0l-3,1.5c-0.3,0.1-0.3,0.4,0,0.5L8,13
	l-4.5,2.3c-0.3,0.1-0.3,0.4,0,0.5l2,1c0.3,0.1,0.7,0.1,1,0l4.5-2.3l24,12l-4.5,2.3c-0.3,0.1-0.3,0.4,0,0.5l2,1c0.3,0.1,0.7,0.1,1,0
	L38,28l0.5,0.3c0.3,0.1,0.7,0.1,1,0l3-1.5C42.8,26.6,42.8,26.4,42.5,26.3z M19,11.5l22,11L38,24L16,13L19,11.5z"/>
</svg>
