<?xml version="1.0" encoding="utf-8"?>
<!-- Generator: Adobe Illustrator 18.1.0, SVG Export Plug-In . SVG Version: 6.00 Build 0)  -->
<svg version="1.1" id="Layer_1" xmlns="http://www.w3.org/2000/svg" xmlns:xlink="http://www.w3.org/1999/xlink" x="0px" y="0px"
	 viewBox="0 0 64 32" enable-background="new 0 0 64 32" xml:space="preserve">
<g>
	<path fill-rule="evenodd" clip-rule="evenodd" fill="#2D3134" d="M41,19.5c2.4,0,5.2-0.2,6.3-0.8c0.5-0.3,0.3-1.1-0.2-2.1l0.1,0
		c0.1,0,0.1-0.1,0.2-0.1c0.4-0.2,0.8-0.4,1.2-0.6c1.5-0.7,1.7-3.7-0.3-4.7c0,0-0.1,0-0.3-0.1l1.9-1c0.6-0.3,0.8-0.7-0.2-1.2
		l-1.3-0.6c-0.9-0.5-2-0.5-2.6-0.2l-1.9,1c-0.2-0.1-0.4-0.2-0.4-0.2c-2-1-7.9-0.9-9.4-0.2C33.8,8.8,33.4,9,33,9.3
		c-0.1,0-0.1,0-0.2,0.1l-0.1,0C30.7,9.1,29,9,28.4,9.3c-1.1,0.6-1.4,2-1.4,3.2l-10,5L14,16c-1.7,0.8-1.7,2.2,0,3s4.3,0.8,6,0
		c-1.7,0.8-1.7,2.2,0,3s4.3,0.8,6,0c-1.7,0.8-1.7,2.2,0,3s4.3,0.8,6,0l-1-0.5L41,19.5z M34.6,9.6c0,0-0.1,0-0.1,0
		c0.5-0.2,0.8-0.4,0.8-0.4c0.8-0.4,6.2-0.5,7.7,0.3l4,2c1.5,0.7,1.2,3.4,0.4,3.8c0,0-0.3,0.2-0.8,0.4c-0.1-0.1-0.2-0.3-0.3-0.5
		C44.2,12.6,39.9,10.5,34.6,9.6z"/>
	<path fill-rule="evenodd" clip-rule="evenodd" fill="#2D3134" d="M4,18c1.7,0.8,4.3,0.8,6,0l-6-3C2.3,15.8,2.3,17.2,4,18z"/>
	<path fill-rule="evenodd" clip-rule="evenodd" fill="#2D3134" d="M10,21c1.7,0.8,4.3,0.8,6,0l-6-3C8.3,18.8,8.3,20.2,10,21z"/>
	<path fill-rule="evenodd" clip-rule="evenodd" fill="#2D3134" d="M16,24c1.7,0.8,4.3,0.8,6,0l-6-3C14.3,21.8,14.3,23.2,16,24z"/>
	<path fill-rule="evenodd" clip-rule="evenodd" fill="#2D3134" d="M32,25c-1.7,0.8-1.7,2.2,0,3s4.3,0.8,6,0L32,25z"/>
</g>
</svg>
