<?xml version="1.0" encoding="utf-8"?>
<!-- Generator: Adobe Illustrator 18.1.0, SVG Export Plug-In . SVG Version: 6.00 Build 0)  -->
<svg version="1.1" id="Layer_1" xmlns="http://www.w3.org/2000/svg" xmlns:xlink="http://www.w3.org/1999/xlink" x="0px" y="0px"
	 viewBox="0 0 32 32" enable-background="new 0 0 32 32" xml:space="preserve">
<g>
	<path fill="#2D3134" d="M21,13c-3.3,0-6,2.7-6,6c0,3.3,2.7,6,6,6c3.3,0,6-2.7,6-6C27,15.7,24.3,13,21,13z M21,17c-1.1,0-2,0.9-2,2
		c0,0.6-0.4,1-1,1s-1-0.4-1-1c0-2.2,1.8-4,4-4c0.6,0,1,0.4,1,1S21.6,17,21,17z"/>
	<path fill="#2D3134" d="M30.3,8.3h-1.3L25.6,5h-9.9l-3.2,3.3H7.1v-1c0-0.5-0.4-0.9-0.9-0.9H5.2c-0.5,0-0.9,0.4-0.9,0.9v1H1.7
		C0.7,8.3,0,9,0,10v17.3c0,0.9,0.7,1.7,1.7,1.7h28.7c0.9,0,1.7-0.7,1.7-1.7V10C32,9,31.3,8.3,30.3,8.3z M18,6h6v2h-6V6z M21,27
		c-4.4,0-8-3.6-8-8c0-4.4,3.6-8,8-8c4.4,0,8,3.6,8,8C29,23.4,25.4,27,21,27z"/>
</g>
</svg>
