<?xml version="1.0" encoding="utf-8"?>
<!-- Generator: Adobe Illustrator 18.1.0, SVG Export Plug-In . SVG Version: 6.00 Build 0)  -->
<svg version="1.1" id="Layer_1" xmlns="http://www.w3.org/2000/svg" xmlns:xlink="http://www.w3.org/1999/xlink" x="0px" y="0px"
	 viewBox="0 0 64 32" enable-background="new 0 0 64 32" xml:space="preserve">
<g>
	<path fill="#2D3134" d="M21.2,21.3c0.1-0.7,0.1-1.2,0-1.5c-0.1-0.5-0.3-0.9-0.6-1.2c-0.3-0.3-0.7-0.6-1.2-0.9
		c-0.9-0.5-2.1-0.7-3.4-0.7c-1.3,0-2.6,0.3-3.7,0.9c-1.1,0.5-1.7,1.1-1.9,1.8c-0.2,0.6,0.3,1.3,1.4,2l2.5-1c-0.6-0.4-0.9-0.7-0.9-1
		c0-0.3,0.2-0.5,0.7-0.8c0.5-0.2,1-0.4,1.5-0.4c0.5,0,1.1,0.1,1.6,0.4c0.5,0.2,0.8,0.5,0.9,0.9c0.1,0.3,0.1,0.9,0.1,1.9
		c-0.1,1.2,0,2.1,0.3,2.7c0.3,0.6,0.8,1.1,1.5,1.5l8-4l-2.1-1.1l-4.5,2.3c-0.1-0.2-0.1-0.3-0.2-0.6C21.2,22.4,21.2,22,21.2,21.3z"/>
	<path fill="#2D3134" d="M33.3,14.9l-1.5,0.7l-7.6-3.8l-1.9,1l2.4,6.4l2,1l4.9-2.4L34,19l2.2-1.1l-2.4-1.2l1.5-0.7L33.3,14.9z
		 M29.6,16.8l-2.7,1.4l-1.3-3.4L29.6,16.8z"/>
	<polygon fill="#2D3134" points="32,8 42.1,20 43.9,19.1 33.9,7.1 	"/>
	<path fill="#2D3134" d="M39,11.5l2.2,1.1l5.3-2.7c0.3,1.2,1,2.5,2.1,3.7c1.1,1.2,2.5,2.2,4.1,3.1l2.2-1.1c-1.1-0.5-2.1-1.2-3.1-2.1
		c-1-0.9-1.8-1.8-2.3-2.7c-0.5-0.9-0.8-1.7-0.8-2.4L47,7.5L39,11.5z"/>
</g>
</svg>
