<?xml version="1.0" encoding="utf-8"?>
<!-- Generator: Adobe Illustrator 18.1.0, SVG Export Plug-In . SVG Version: 6.00 Build 0)  -->
<svg version="1.1" id="Layer_1" xmlns="http://www.w3.org/2000/svg" xmlns:xlink="http://www.w3.org/1999/xlink" x="0px" y="0px"
	 viewBox="0 0 64 32" enable-background="new 0 0 64 32" xml:space="preserve">
<path fill="#2D3134" d="M36.1,29.4l9.9-18.9c0.6-1.1-0.8-1.8-3-1.5L5.1,14c-2.3,0.3-2.8,1.2-1.1,2l28,14
	C33.6,30.8,35.5,30.6,36.1,29.4z M37.9,14.5L28,19c-0.6,0.3-1.5,0.3-2,0h0c-0.6-0.3-0.6-0.7,0-1l9.1-4.9c0.8-0.4,2.1-0.4,2.9,0v0
	C38.8,13.4,38.8,14.1,37.9,14.5z M21,21.5c-1.2-0.6-1.2-1.4,0-2c1.2-0.6,2.8-0.6,4,0c1.2,0.6,1.2,1.4,0,2
	C23.8,22.1,22.2,22.1,21,21.5z"/>
</svg>
