<?xml version="1.0" encoding="utf-8"?>
<!-- Generator: Adobe Illustrator 18.1.0, SVG Export Plug-In . SVG Version: 6.00 Build 0)  -->
<svg version="1.1" id="Layer_1" xmlns="http://www.w3.org/2000/svg" xmlns:xlink="http://www.w3.org/1999/xlink" x="0px" y="0px"
	 viewBox="0 0 32 32" enable-background="new 0 0 32 32" xml:space="preserve">
<path fill-rule="evenodd" clip-rule="evenodd" fill="#2D3134" d="M27.8,28.2L20,11.8V2h1c0.6,0,1-0.4,1-1s-0.4-1-1-1H11
	c-0.6,0-1,0.4-1,1s0.4,1,1,1h1v9.8L4.2,28.2C3.8,29,3.9,30,4.4,30.8C4.9,31.5,5.7,32,6.7,32h18.7c0.9,0,1.8-0.5,2.3-1.2
	C28.1,30,28.2,29,27.8,28.2z M13.9,12.4C14,12.3,14,12.1,14,12V2h4v10c0,0.1,0,0.3,0.1,0.4l3.6,7.6H10.3L13.9,12.4z"/>
</svg>
