<?xml version="1.0" encoding="utf-8"?>
<!-- Generator: Adobe Illustrator 18.1.0, SVG Export Plug-In . SVG Version: 6.00 Build 0)  -->
<svg version="1.1" id="Layer_1" xmlns="http://www.w3.org/2000/svg" xmlns:xlink="http://www.w3.org/1999/xlink" x="0px" y="0px"
	 viewBox="0 0 64 32" enable-background="new 0 0 64 32" xml:space="preserve">
<g>
	<path fill="#2D3134" d="M47,8.5c-8.3-4.1-21.7-4.1-30,0c-8.3,4.1-8.3,10.9,0,15c8.3,4.1,21.7,4.1,30,0C55.3,19.4,55.3,12.6,47,8.5z
		 M18.9,22.5c-7.2-3.6-7.2-9.5,0-13.1c7.2-3.6,18.9-3.6,26.1,0c7.2,3.6,7.2,9.5,0,13.1C37.8,26.1,26.2,26.1,18.9,22.5z"/>
	<path fill="#2D3134" d="M23,20.5c-0.6-0.3-1.4-0.3-2,0L20,21c-0.6,0.3-0.6,0.7,0,1s1.4,0.3,2,0l1-0.5C23.6,21.2,23.6,20.8,23,20.5z
		"/>
	<path fill="#2D3134" d="M23,10.5L22,10c-0.6-0.3-1.4-0.3-2,0s-0.6,0.7,0,1l1,0.5c0.6,0.3,1.4,0.3,2,0S23.6,10.8,23,10.5z"/>
	<path fill="#2D3134" d="M44,21l-1-0.5c-0.6-0.3-1.4-0.3-2,0s-0.6,0.7,0,1l1,0.5c0.6,0.3,1.4,0.3,2,0S44.6,21.3,44,21z"/>
	<path fill="#2D3134" d="M39,18.5L34,16l10-5c0.6-0.3,0.6-0.7,0-1s-1.4-0.3-2,0l-11,5.5c-0.6,0.3-0.6,0.7,0,1l6,3
		c0.6,0.3,1.4,0.3,2,0S39.6,18.8,39,18.5z"/>
</g>
</svg>
