<?xml version="1.0" encoding="utf-8"?>
<!-- Generator: Adobe Illustrator 18.1.0, SVG Export Plug-In . SVG Version: 6.00 Build 0)  -->
<svg version="1.1" id="Layer_1" xmlns="http://www.w3.org/2000/svg" xmlns:xlink="http://www.w3.org/1999/xlink" x="0px" y="0px"
	 viewBox="0 0 32 32" enable-background="new 0 0 32 32" xml:space="preserve">
<path fill="#2D3134" d="M30.4,19.6c-0.1-0.4-0.5-0.6-0.9-0.5l-4.3,1.1l-2.8-1.6l5.8-2.5l-5.8-2.5l2.8-1.6l4.3,1.1
	c0.4,0.1,0.8-0.1,0.9-0.5c0.1-0.4-0.1-0.8-0.5-0.9l-2.8-0.8l2.4-1.4C30,9.1,30.1,8.5,29.9,8c-0.3-0.5-0.9-0.6-1.4-0.4L26.1,9
	l0.8-2.8c0.1-0.4-0.1-0.8-0.5-0.9c-0.4-0.1-0.8,0.1-0.9,0.5l-1.1,4.3l-2.8,1.6l0.7-6.3L17,9.2V5.9l3.1-3.1c0.3-0.3,0.3-0.8,0-1.1
	c-0.3-0.3-0.8-0.3-1.1,0L17,3.8V1c0-0.6-0.4-1-1-1c-0.6,0-1,0.4-1,1v2.8l-2.1-2.1c-0.3-0.3-0.8-0.3-1.1,0c-0.3,0.3-0.3,0.8,0,1.1
	L15,5.9v3.3L9.9,5.4l0.7,6.3l-2.8-1.6L6.6,5.8C6.5,5.4,6.1,5.2,5.7,5.3C5.3,5.4,5.1,5.8,5.2,6.2L5.9,9L3.5,7.6C3,7.4,2.4,7.5,2.1,8
	C1.9,8.5,2,9.1,2.5,9.4l2.4,1.4l-2.8,0.8c-0.4,0.1-0.6,0.5-0.5,0.9c0.1,0.4,0.5,0.6,0.9,0.5l4.3-1.1l2.8,1.6L3.8,16l5.8,2.6
	l-2.8,1.6L2.5,19c-0.4-0.1-0.8,0.1-0.9,0.5c-0.1,0.4,0.1,0.8,0.5,0.9l2.8,0.8l-2.4,1.4C2,22.9,1.9,23.5,2.1,24
	c0.3,0.5,0.9,0.6,1.4,0.4L5.9,23l-0.8,2.8c-0.1,0.4,0.1,0.8,0.5,0.9c0.4,0.1,0.8-0.1,0.9-0.5l1.1-4.3l2.8-1.6l-0.7,6.3l5.1-3.7v3.3
	l-3.1,3.1c-0.3,0.3-0.3,0.8,0,1.1c0.3,0.3,0.8,0.3,1.1,0l2.1-2.1V31c0,0.6,0.4,1,1,1c0.6,0,1-0.4,1-1v-2.8l2.1,2.1
	c0.3,0.3,0.8,0.3,1.1,0c0.3-0.3,0.3-0.8,0-1.1L17,26.1v-3.2l5.1,3.7l-0.7-6.3l2.8,1.6l1.1,4.3c0.1,0.4,0.5,0.6,0.9,0.5
	c0.4-0.1,0.6-0.5,0.5-0.9L26.1,23l2.4,1.4c0.5,0.3,1.1,0.1,1.4-0.4c0.3-0.5,0.1-1.1-0.4-1.4l-2.4-1.4l2.8-0.8
	C30.3,20.4,30.5,20,30.4,19.6z M25.2,16l-4.1,1.8L18,16l3.1-1.8L25.2,16z M20.6,8l-0.5,4.5L17,14.3v-3.6L20.6,8z M11.4,8l3.6,2.7
	v3.6l-3.1-1.8L11.4,8z M6.7,16l4.1-1.8L14,16l-3.1,1.8L6.7,16z M11.4,24l0.5-4.5l3.1-1.8v3.6L11.4,24z M20.6,24L17,21.4v-3.6
	l3.1,1.8L20.6,24z"/>
</svg>
