<?xml version="1.0" encoding="utf-8"?>
<!-- Generator: Adobe Illustrator 18.1.0, SVG Export Plug-In . SVG Version: 6.00 Build 0)  -->
<svg version="1.1" id="Layer_1" xmlns="http://www.w3.org/2000/svg" xmlns:xlink="http://www.w3.org/1999/xlink" x="0px" y="0px"
	 viewBox="0 0 32 32" enable-background="new 0 0 32 32" xml:space="preserve">
<g>
	<path fill="#2D3134" d="M16,6c0.6,0,1-0.4,1-1V1c0-0.6-0.4-1-1-1s-1,0.4-1,1v4C15,5.6,15.4,6,16,6z"/>
	<path fill="#2D3134" d="M6,16c0-0.6-0.4-1-1-1H1c-0.6,0-1,0.4-1,1s0.4,1,1,1h4C5.6,17,6,16.6,6,16z"/>
	<path fill="#2D3134" d="M11,7.3c0.5-0.3,0.6-0.9,0.4-1.4l-2-3.5C9.1,2,8.5,1.9,8,2.1S7.4,3,7.6,3.5l2,3.5C9.9,7.5,10.5,7.6,11,7.3z
		"/>
	<path fill="#2D3134" d="M6,20.6l-3.5,2C2,22.9,1.9,23.5,2.1,24c0.3,0.5,0.9,0.6,1.4,0.4l3.5-2c0.5-0.3,0.6-0.9,0.4-1.4
		C7.1,20.5,6.5,20.4,6,20.6z"/>
	<path fill="#2D3134" d="M26,11.4l3.5-2C30,9.1,30.1,8.5,29.9,8c-0.3-0.5-0.9-0.6-1.4-0.4l-3.5,2c-0.5,0.3-0.6,0.9-0.4,1.4
		C24.9,11.5,25.5,11.6,26,11.4z"/>
	<path fill="#2D3134" d="M7,9.6l-3.5-2C3,7.4,2.4,7.5,2.1,8C1.9,8.5,2,9.1,2.5,9.4l3.5,2c0.5,0.3,1.1,0.1,1.4-0.4
		C7.6,10.5,7.5,9.9,7,9.6z"/>
	<path fill="#2D3134" d="M21,7.3c0.5,0.3,1.1,0.1,1.4-0.4l2-3.5C24.6,3,24.5,2.4,24,2.1S22.9,2,22.6,2.5l-2,3.5
		C20.4,6.5,20.5,7.1,21,7.3z"/>
	<path fill="#2D3134" d="M13.3,16.7c1.4-2.8,4.3-4.7,7.6-4.7c0.8,0,1.5,0.1,2.2,0.3C21.8,9.8,19.1,8,16,8c-4.4,0-8,3.6-8,8
		c0,1.1,0.2,2.1,0.6,3C9.7,17.7,11.4,16.8,13.3,16.7z"/>
	<path fill="#2D3134" d="M26.6,17.2c-0.1,0-0.1,0-0.1,0c-1.1-1.9-3.2-3.2-5.6-3.2c-3,0-5.5,2-6.2,4.8c-0.3-0.1-0.6-0.1-1-0.1
		c-2.6,0-4.7,2.1-4.7,4.7c0,2.6,2.1,4.7,4.7,4.7H27v0c2.8-0.2,5-2.5,5-5.4C32,19.6,29.6,17.2,26.6,17.2z"/>
</g>
</svg>
