<?xml version="1.0" encoding="utf-8"?>
<!-- Generator: Adobe Illustrator 18.1.0, SVG Export Plug-In . SVG Version: 6.00 Build 0)  -->
<svg version="1.1" id="Layer_1" xmlns="http://www.w3.org/2000/svg" xmlns:xlink="http://www.w3.org/1999/xlink" x="0px" y="0px"
	 viewBox="0 0 32 32" enable-background="new 0 0 32 32" xml:space="preserve">
<g>
	<circle fill-rule="evenodd" clip-rule="evenodd" fill="#2D3134" cx="13.5" cy="5.5" r="2.5"/>
	<path fill-rule="evenodd" clip-rule="evenodd" fill="#2D3134" d="M32,11.2c0-0.7-0.6-1.2-1.2-1.2h-6.3c-1,0-1.9,0.4-2.6,1.1
		L8.6,24.4C8.2,24.8,7.7,25,7.2,25l-5.9,0c-0.7,0-1.2,0.6-1.2,1.2C0,27,0,28,0,28.8C0,29.4,0.6,30,1.2,30h6.3c1,0,1.9-0.4,2.6-1.1
		l13.3-13.3c0.4-0.4,0.9-0.6,1.4-0.6h5.9c0.7,0,1.2-0.6,1.2-1.2C32,13,32,12,32,11.2z"/>
	<path fill-rule="evenodd" clip-rule="evenodd" fill="#2D3134" d="M16,11.5c0-1.4-1.1-2.5-2.5-2.5S11,10.1,11,11.5V20l5-5V11.5z"/>
</g>
</svg>
