<?xml version="1.0" encoding="utf-8"?>
<!-- Generator: Adobe Illustrator 18.1.0, SVG Export Plug-In . SVG Version: 6.00 Build 0)  -->
<svg version="1.1" id="Layer_1" xmlns="http://www.w3.org/2000/svg" xmlns:xlink="http://www.w3.org/1999/xlink" x="0px" y="0px"
	 viewBox="0 0 32 32" enable-background="new 0 0 32 32" xml:space="preserve">
<path fill-rule="evenodd" clip-rule="evenodd" fill="#2D3134" d="M26.7,14.3l0.3-0.3l0.2-0.2L31.8,8c0.3-0.3,0.3-0.8,0-1.1
	c-0.3-0.3-0.4,0-0.7,0.3l-4.9,5.5c-0.2-0.1-0.4-0.2-0.6-0.4l-0.9-0.9l5.3-5.3c0.3-0.3,0.3-0.8,0-1.1c-0.3-0.3-0.8-0.3-1.1,0
	l-5.3,5.3l-0.9-0.9c-0.2-0.2-0.3-0.4-0.4-0.6L27.7,4C28,3.7,28.3,3.5,28,3.2c-0.3-0.3-0.8-0.3-1.1,0l-5.9,4.6L20.9,8l-0.3,0.3
	c-0.9,0.9-1.8,5.2-1.8,5.2l-2.8,2.8L3.7,3.8C2.9,3.1,1.8,3.1,1,3.8L0.4,4.4C-0.3,5.1-0.1,7,0.7,8.1c0,0,5.2,7.9,6.5,8.6
	c1.3,0.7,3.6-0.5,3.6-0.5l2.7,2.7L4.4,28c-0.7,0.7-0.7,1.9,0,2.6c0.7,0.7,1.9,0.7,2.6,0l9.2-9.1l9.1,9.2c0.7,0.7,1.9,0.7,2.6,0
	c0.7-0.7,0.7-1.9,0-2.6l-9.1-9.1l2.8-2.8C21.5,16.1,25.8,15.2,26.7,14.3z"/>
</svg>
