<?xml version="1.0" encoding="utf-8"?>
<!-- Generator: Adobe Illustrator 18.1.0, SVG Export Plug-In . SVG Version: 6.00 Build 0)  -->
<svg version="1.1" id="Layer_1" xmlns="http://www.w3.org/2000/svg" xmlns:xlink="http://www.w3.org/1999/xlink" x="0px" y="0px"
	 viewBox="0 0 32 56" enable-background="new 0 0 32 56" xml:space="preserve">
<path fill-rule="evenodd" clip-rule="evenodd" fill="#2D3134" d="M26.7,31.7l0.3-0.1l0.2-0.1l4.6-3.6c0.3-0.1,0.3-0.6,0-1.1
	c-0.3-0.4-0.4-0.2-0.7-0.1l-4.9,3.1c-0.2-0.2-0.4-0.5-0.6-0.7l-0.9-1.4l5.3-2.6c0.3-0.1,0.3-0.6,0-1.1c-0.3-0.4-0.8-0.7-1.1-0.5
	l-5.3,2.6l-0.9-1.4c-0.2-0.3-0.3-0.6-0.4-0.8l5.5-2.1c0.3-0.1,0.6-0.1,0.3-0.6c-0.3-0.4-0.8-0.7-1.1-0.5l-5.9,1.7l-0.2,0.1l-0.3,0.1
	c-0.9,0.4-1.8,4.3-1.8,4.3l-2.8,1.4L3.7,9.6C2.9,8.6,1.8,8,1,8.3L0.4,8.6C-0.3,9-0.1,11,0.7,12.4c0,0,5.2,10.5,6.5,11.8
	c1.3,1.4,3.6,1.3,3.6,1.3l2.7,4.1l-9.1,4.6c-0.7,0.4-0.7,1.5,0,2.6c0.7,1.1,1.9,1.7,2.6,1.3l9.2-4.6l9.1,13.7
	c0.7,1.1,1.9,1.7,2.6,1.3c0.7-0.4,0.7-1.5,0-2.6l-9.1-13.7l2.8-1.4C21.5,30.9,25.8,32.1,26.7,31.7z"/>
</svg>
