<?xml version="1.0" encoding="utf-8"?>
<!-- Generator: Adobe Illustrator 18.1.0, SVG Export Plug-In . SVG Version: 6.00 Build 0)  -->
<svg version="1.1" id="Layer_1" xmlns="http://www.w3.org/2000/svg" xmlns:xlink="http://www.w3.org/1999/xlink" x="0px" y="0px"
	 viewBox="0 0 32 32" enable-background="new 0 0 32 32" xml:space="preserve">
<g>
	<path fill="#2D3134" d="M24.2,0H7.8C6.3,0,5,1.3,5,2.8V7h22V2.8C27,1.3,25.7,0,24.2,0z M19.5,5C18.7,5,18,4.3,18,3.5
		C18,2.7,18.7,2,19.5,2C20.3,2,21,2.7,21,3.5C21,4.3,20.3,5,19.5,5z M23.5,5C22.7,5,22,4.3,22,3.5C22,2.7,22.7,2,23.5,2
		C24.3,2,25,2.7,25,3.5C25,4.3,24.3,5,23.5,5z"/>
	<path fill="#2D3134" d="M5,30.6C5,31.4,5.6,32,6.4,32h19.3c0.8,0,1.4-0.6,1.4-1.4V8H5V30.6z M16,12c4.4,0,8,3.6,8,8s-3.6,8-8,8
		s-8-3.6-8-8S11.6,12,16,12z"/>
	<path fill="#2D3134" d="M16,27c3.8,0,6.9-3,7-6.8c-0.3-0.1-0.6-0.2-1-0.2c-1.7,0-3,1.3-3,3c0-1.7-1.3-3-3-3s-3,1.3-3,3
		c0-1.7-1.3-3-3-3c-0.3,0-0.7,0.1-1,0.2C9.1,24,12.2,27,16,27z"/>
</g>
</svg>
