<?xml version="1.0" encoding="utf-8"?>
<!-- Generator: Adobe Illustrator 18.1.0, SVG Export Plug-In . SVG Version: 6.00 Build 0)  -->
<svg version="1.1" id="Layer_1" xmlns="http://www.w3.org/2000/svg" xmlns:xlink="http://www.w3.org/1999/xlink" x="0px" y="0px"
	 viewBox="0 0 64 32" enable-background="new 0 0 64 32" xml:space="preserve">
<g>
	<path fill-rule="evenodd" clip-rule="evenodd" fill="#2D3134" d="M50.5,21.3l-1-0.5c-0.8-0.4-2.2-0.4-3,0L38,25L14,13l12.5-6.3
		c0.8-0.4,0.8-1.1,0-1.5l-1-0.5c-0.8-0.4-2.2-0.4-3,0L2,15l4,2l4-2l24,12l-4,2l4,2l16.5-8.3C51.3,22.3,51.3,21.7,50.5,21.3z"/>
	<path fill-rule="evenodd" clip-rule="evenodd" fill="#2D3134" d="M41.4,22.3c2-1,2-2.6,0-3.6L33,14.5L26,18l12,6L41.4,22.3z"/>
	<path fill-rule="evenodd" clip-rule="evenodd" fill="#2D3134" d="M30.5,14.8c0.8-0.4,0.8-1.1,0-1.5s-2.2-0.4-3,0L25,14.5l-6-3
		L16,13l9,4.5L30.5,14.8z"/>
	<path fill-rule="evenodd" clip-rule="evenodd" fill="#2D3134" d="M22.5,12.3c1.4,0.7,3.6,0.7,5,0c1.4-0.7,1.4-1.8,0-2.5
		s-3.6-0.7-5,0C21.1,10.4,21.1,11.6,22.5,12.3z"/>
</g>
</svg>
