<?xml version="1.0" encoding="utf-8"?>
<!-- Generator: Adobe Illustrator 18.1.0, SVG Export Plug-In . SVG Version: 6.00 Build 0)  -->
<svg version="1.1" id="Layer_1" xmlns="http://www.w3.org/2000/svg" xmlns:xlink="http://www.w3.org/1999/xlink" x="0px" y="0px"
	 viewBox="0 0 32 32" enable-background="new 0 0 32 32" xml:space="preserve">
<g>
	<path fill-rule="evenodd" clip-rule="evenodd" fill="#2D3134" d="M30.5,4h-3C26.7,4,26,4.7,26,5.5V23H1.5C0.7,23,0,23.7,0,24.5
		S0.7,26,1.5,26h26c0.8,0,1.5-0.7,1.5-1.5V7h1.5C31.3,7,32,6.3,32,5.5S31.3,4,30.5,4z"/>
	<circle fill-rule="evenodd" clip-rule="evenodd" fill="#2D3134" cx="4.5" cy="29.5" r="2.5"/>
	<circle fill-rule="evenodd" clip-rule="evenodd" fill="#2D3134" cx="24.5" cy="29.5" r="2.5"/>
	<path fill-rule="evenodd" clip-rule="evenodd" fill="#2D3134" d="M4.8,22H7V9H4.8C3.8,9,3,9.8,3,10.8v9.4C3,21.2,3.8,22,4.8,22z"/>
	<path fill-rule="evenodd" clip-rule="evenodd" fill="#2D3134" d="M23,20.2v-9.4c0-1-0.8-1.8-1.8-1.8H19v13h2.2
		C22.2,22,23,21.2,23,20.2z"/>
	<path fill-rule="evenodd" clip-rule="evenodd" fill="#2D3134" d="M18,9h-2V7.9C16,7.4,15.6,7,15.1,7h-4.2C10.4,7,10,7.4,10,7.9V9H8
		v13h10V9z M15,9h-4V8h4V9z"/>
</g>
</svg>
