<?xml version="1.0" encoding="utf-8"?>
<!-- Generator: Adobe Illustrator 18.1.0, SVG Export Plug-In . SVG Version: 6.00 Build 0)  -->
<svg version="1.1" id="Layer_1" xmlns="http://www.w3.org/2000/svg" xmlns:xlink="http://www.w3.org/1999/xlink" x="0px" y="0px"
	 viewBox="0 0 32 32" enable-background="new 0 0 32 32" xml:space="preserve">
<g>
	<path fill="#2D3134" d="M27.2,16c0.3-0.3,0.6-0.7,0.9-1c2.2-2.7,2.8-5.2,1.8-7C29.3,7,28,5.9,25,5.9c-1,0-2.2,0.2-3.4,0.4
		C20.4,2.4,18.4,0,16,0s-4.4,2.4-5.6,6.3C9.2,6,8,5.9,7,5.9C4,5.9,2.7,7,2.1,8c-1,1.8-0.4,4.2,1.8,7c0.3,0.3,0.6,0.7,0.9,1
		c-0.3,0.3-0.6,0.7-0.9,1c-2.2,2.7-2.8,5.2-1.8,7C2.7,25,4,26.1,7,26.1c1,0,2.2-0.2,3.4-0.4c1.3,3.9,3.3,6.3,5.6,6.3
		s4.4-2.4,5.6-6.3c1.2,0.3,2.3,0.4,3.4,0.4c3,0,4.3-1.2,4.9-2.1c1-1.8,0.4-4.2-1.8-7C27.8,16.7,27.5,16.3,27.2,16z M25,7.9
		c1.6,0,2.7,0.4,3.1,1.1c0.6,1,0,2.8-1.6,4.8c-0.2,0.3-0.4,0.5-0.7,0.8c-0.9-0.9-1.9-1.7-3-2.5c-0.1-1.4-0.3-2.7-0.6-3.9
		C23.2,8,24.1,7.9,25,7.9z M18.5,20.3c-0.8,0.5-1.7,0.9-2.5,1.3c-0.8-0.4-1.7-0.8-2.5-1.3c-0.8-0.5-1.6-1-2.4-1.5
		C11,17.9,11,17,11,16s0-1.9,0.1-2.8c0.8-0.5,1.6-1,2.4-1.5c0.8-0.5,1.7-0.9,2.5-1.3c0.8,0.4,1.7,0.8,2.5,1.3c0.8,0.5,1.6,1,2.4,1.5
		C21,14.1,21,15,21,16s0,1.9-0.1,2.8C20.1,19.3,19.3,19.9,18.5,20.3z M20.6,21.4c-0.1,0.7-0.2,1.3-0.4,1.9c-0.6-0.2-1.2-0.4-1.8-0.6
		c0.4-0.2,0.7-0.4,1.1-0.6C19.9,21.8,20.2,21.6,20.6,21.4z M13.6,22.7c-0.6,0.2-1.2,0.4-1.8,0.6c-0.1-0.6-0.3-1.2-0.4-1.9
		c0.4,0.2,0.7,0.4,1.1,0.7C12.9,22.3,13.2,22.5,13.6,22.7z M9,17.3c-0.5-0.4-1-0.8-1.5-1.3C8,15.6,8.5,15.1,9,14.7
		c0,0.4,0,0.8,0,1.3S9,16.8,9,17.3z M11.4,10.6c0.1-0.7,0.2-1.3,0.4-1.9c0.6,0.2,1.2,0.4,1.8,0.6c-0.4,0.2-0.7,0.4-1.1,0.6
		C12.1,10.2,11.8,10.4,11.4,10.6z M18.4,9.3c0.6-0.2,1.2-0.4,1.8-0.6c0.1,0.6,0.3,1.2,0.4,1.9c-0.4-0.2-0.7-0.4-1.1-0.7
		C19.1,9.7,18.8,9.5,18.4,9.3z M23,14.7c0.5,0.4,1,0.8,1.5,1.3c-0.5,0.4-0.9,0.9-1.5,1.3c0-0.4,0-0.8,0-1.3S23,15.2,23,14.7z M16,2
		c1.3,0,2.7,1.8,3.7,4.8c-1.2,0.4-2.4,0.8-3.7,1.4c-1.3-0.6-2.5-1-3.7-1.4C13.3,3.8,14.7,2,16,2z M3.9,9C4.3,8.3,5.4,7.9,7,7.9
		c0.9,0,1.8,0.1,2.8,0.3c-0.3,1.2-0.5,2.5-0.6,3.9c-1.1,0.8-2.1,1.6-3,2.5c-0.2-0.3-0.5-0.5-0.7-0.8C3.9,11.8,3.3,10,3.9,9z M7,24.1
		c-1.6,0-2.7-0.4-3.1-1.1c-0.6-1,0-2.8,1.6-4.8c0.2-0.3,0.4-0.5,0.7-0.8c0.9,0.9,1.9,1.7,3,2.5c0.1,1.4,0.3,2.7,0.6,3.9
		C8.8,24,7.9,24.1,7,24.1z M16,30c-1.3,0-2.7-1.8-3.7-4.8c1.2-0.4,2.4-0.8,3.7-1.4c1.3,0.6,2.5,1,3.7,1.4C18.7,28.2,17.3,30,16,30z
		 M28.1,23c-0.4,0.7-1.5,1.1-3.1,1.1c-0.9,0-1.8-0.1-2.8-0.3c0.3-1.2,0.5-2.5,0.6-3.9c1.1-0.8,2.1-1.6,3-2.5
		c0.2,0.3,0.5,0.5,0.7,0.8C28.1,20.2,28.7,22,28.1,23z"/>
	<circle fill="#2D3134" cx="16" cy="16" r="2"/>
</g>
</svg>
