<?xml version="1.0" encoding="utf-8"?>
<!-- Generator: Adobe Illustrator 18.1.0, SVG Export Plug-In . SVG Version: 6.00 Build 0)  -->
<svg version="1.1" id="Layer_1" xmlns="http://www.w3.org/2000/svg" xmlns:xlink="http://www.w3.org/1999/xlink" x="0px" y="0px"
	 viewBox="0 0 64 32" enable-background="new 0 0 64 32" xml:space="preserve">
<g>
	<path fill="#2D3134" d="M11.6,13.6l11.1-8.9l2.9,1.5l-7.8,6.1l12.6-3.7l3.4,1.7l-7.6,6.3l12.3-4l2.9,1.4l-18,5.5l-3-1.5l8-6.8
		l-13.7,4L11.6,13.6z"/>
	<path fill="#2D3134" d="M42.8,23.8l1.9,1.8c-2,0.6-3.9,0.8-5.7,0.7c-1.8-0.1-3.4-0.5-4.9-1.3c-1.9-0.9-2.8-2-2.7-3.3
		c0.1-1.3,1.3-2.5,3.6-3.6c2.4-1.2,4.9-1.8,7.5-1.9c2.6-0.1,4.8,0.4,6.8,1.4c1.7,0.9,2.6,1.8,2.7,2.9c0,0.6-0.4,1.3-1.2,2.1
		l-3.5-1.1c0.6-0.5,0.8-0.9,0.7-1.4s-0.5-0.9-1.3-1.3c-1.1-0.5-2.3-0.8-3.7-0.7c-1.4,0.1-3,0.5-4.7,1.4c-1.8,0.9-2.8,1.7-2.9,2.4
		c-0.1,0.7,0.3,1.3,1.4,1.8c0.8,0.4,1.7,0.6,2.7,0.6S41.5,24.2,42.8,23.8z"/>
</g>
</svg>
