<?xml version="1.0" encoding="utf-8"?>
<!-- Generator: Adobe Illustrator 18.1.0, SVG Export Plug-In . SVG Version: 6.00 Build 0)  -->
<svg version="1.1" id="Layer_1" xmlns="http://www.w3.org/2000/svg" xmlns:xlink="http://www.w3.org/1999/xlink" x="0px" y="0px"
	 viewBox="0 0 32 32" enable-background="new 0 0 32 32" xml:space="preserve">
<g>
	<path fill-rule="evenodd" clip-rule="evenodd" fill="#2D3134" d="M24.9,23.1c0.6,0.4,1.3,0.6,2.1,0.6c2.3,0,4.2-1.9,4.2-4.2
		c0-2.3-1.9-4.2-4.2-4.2c-0.1,0-0.3,0-0.4,0v-1H3.8v2.3c0,4.7,2.9,10,6.9,11.9H2.6C3.1,29.9,5.3,31,7.9,31h14.5
		c2.6,0,4.8-1.1,5.4-2.5h-8.2C21.8,27.4,23.6,25.4,24.9,23.1z M26.5,16.9c0.1,0,0.3,0,0.4,0c1.4,0,2.6,1.2,2.6,2.6
		c0,1.4-1.2,2.6-2.6,2.6c-0.5,0-1-0.2-1.4-0.4C26.1,20.1,26.5,18.4,26.5,16.9z"/>
	<path fill-rule="evenodd" clip-rule="evenodd" fill="#2D3134" d="M14.6,13c0,0,4.1-1.6,3.7-4.3C17.9,5.9,15.8,6,15.4,4
		c-0.6-2.5,1.2-3.7,1.2-3.7s-3,0.9-3.5,3.6c-0.4,2.3,1.3,3,1.8,4.7C15.5,10.3,14.6,13,14.6,13z"/>
</g>
</svg>
