<?xml version="1.0" encoding="utf-8"?>
<!-- Generator: Adobe Illustrator 18.1.0, SVG Export Plug-In . SVG Version: 6.00 Build 0)  -->
<svg version="1.1" id="Layer_1" xmlns="http://www.w3.org/2000/svg" xmlns:xlink="http://www.w3.org/1999/xlink" x="0px" y="0px"
	 viewBox="0 0 64 32" enable-background="new 0 0 64 32" xml:space="preserve">
<path fill-rule="evenodd" clip-rule="evenodd" fill="#2D3134" d="M48.5,17.3L45,15.5l7.5-3.8c0.8-0.4,0.8-1.1,0-1.5s-2.2-0.4-3,0
	L42,14l-6-3l7.5-3.8c0.8-0.4,0.8-1.1,0-1.5s-2.2-0.4-3,0L33,9.5l-3.5-1.8c-0.8-0.4-2.2-0.4-3,0l-1,0.5c-0.8,0.4-0.8,1.1,0,1.5L26,10
	l-5,2.5c-4.3,2.1-4.9,5.4-1.8,7.9L14,23l4,2l5.2-2.6c4.9,1.5,11.5,1.3,15.8-0.9l5-2.5l0.5,0.3c0.8,0.4,2.2,0.4,3,0l1-0.5
	C49.3,18.3,49.3,17.7,48.5,17.3z M20,19l9-1.5l-4-2h16L32,17l4,2H20z"/>
</svg>
