<?xml version="1.0" encoding="utf-8"?>
<!-- Generator: Adobe Illustrator 18.1.0, SVG Export Plug-In . SVG Version: 6.00 Build 0)  -->
<svg version="1.1" id="Layer_1" xmlns="http://www.w3.org/2000/svg" xmlns:xlink="http://www.w3.org/1999/xlink" x="0px" y="0px"
	 viewBox="0 0 32 56" enable-background="new 0 0 32 56" xml:space="preserve">
<path fill="#2D3134" d="M24.5,26.2L23,25.5v-1c0.6-0.5,1-1.4,1-2.5c0-2.8-2.2-6.1-5-7.5c-0.6-0.3-1.1-0.5-1.6-0.5
	c-2.2-2.7-5.4-4.4-7.6-3.9C9.4,9.7,8.9,9.5,8.5,9.3C6.7,8.3,5.1,8.6,4.4,10C2.9,10.1,2,11.3,2,13c0,2,1.2,4.4,3,6.1v16.2
	c0,1.8,1.4,3.9,3.2,4.8l11.6,5.8c1.8,0.9,3.2,0.2,3.2-1.6v-3.8l1.5,0.7c3,1.5,5.5,0.3,5.5-2.8v-4C30,31.5,27.5,27.8,24.5,26.2z
	 M4,14c0-1.1,0.6-1.8,1.6-1.8l0.4,0l0.1-0.3c0.4-1.2,2-1.1,3.4,0.2l0.6,0.5l0.5-0.2c1.7-0.6,4.3,0.8,5.9,3.1l0.5,0.7l0.6,0
	c0.4,0,0.9,0.1,1.3,0.3c1.7,0.8,3,2.8,3,4.5s-1.3,2.3-3,1.5c-0.3-0.1-0.5-0.3-0.8-0.6l-0.7-0.5l-0.4,0.3c-0.9,0.7-2.2,0.7-3.6,0
	c-0.6-0.3-1.2-0.7-1.7-1.2l-1.6-1.4L11,27c0,0.8-0.7,1.1-1.5,0.7S8,26.4,8,25.5l0.6-5.2l0.1-1.2l-1.3-0.4c-0.1,0-0.3-0.1-0.4-0.2
	C5.3,17.7,4,15.7,4,14z M28,37.5c0,1.9-1.6,2.7-3.5,1.8L23,38.5v-11l1.5,0.7c1.9,1,3.5,3.3,3.5,5.3V37.5z"/>
</svg>
