<?xml version="1.0" encoding="utf-8"?>
<!-- Generator: Adobe Illustrator 18.1.0, SVG Export Plug-In . SVG Version: 6.00 Build 0)  -->
<svg version="1.1" id="Layer_1" xmlns="http://www.w3.org/2000/svg" xmlns:xlink="http://www.w3.org/1999/xlink" x="0px" y="0px"
	 viewBox="0 0 32 56" enable-background="new 0 0 32 56" xml:space="preserve">
<path fill="#2D3134" d="M30.4,38.7c-0.1-0.5-0.5-0.9-0.9-1l-4.3-1l-2.8-3l5.8,0.3l-5.8-5.4l2.8-0.2l4.3,3.3c0.4,0.3,0.8,0.3,0.9-0.1
	c0.1-0.3-0.1-0.9-0.5-1.2l-2.8-2.2l2.4-0.2c0.5,0,0.6-0.6,0.4-1.2c-0.3-0.6-0.9-1.1-1.4-1L26.1,26l0.8-2.5c0.1-0.3-0.1-0.9-0.5-1.2
	c-0.4-0.3-0.8-0.3-0.9,0.1l-1.1,3.7l-2.8,0.2l0.7-5.9L17,21.6v-3.2l3.1-1.6c0.3-0.1,0.3-0.6,0-1.1c-0.3-0.4-0.8-0.7-1.1-0.5l-2.1,1
	v-2.8c0-0.6-0.4-1.2-1-1.5c-0.6-0.3-1-0.1-1,0.5v2.8l-2.1-3.1c-0.3-0.4-0.8-0.7-1.1-0.5c-0.3,0.1-0.3,0.6,0,1.1l3.1,4.7v3.3
	l-5.1-6.3l0.7,6.6l-2.8-3L6.6,13c-0.1-0.5-0.5-0.9-0.9-1c-0.4-0.1-0.6,0.2-0.5,0.7l0.8,3.2l-2.4-2.6C3,12.8,2.4,12.6,2.1,13
	c-0.3,0.3-0.1,1,0.4,1.5l2.4,2.6l-2.8-0.7c-0.4-0.1-0.6,0.2-0.5,0.7c0.1,0.5,0.5,0.9,0.9,1l4.3,1l2.8,3l-5.8-0.3l5.8,5.4l-2.8,0.2
	l-4.3-3.3c-0.4-0.3-0.8-0.3-0.9,0.1c-0.1,0.3,0.1,0.9,0.5,1.2l2.8,2.2l-2.4,0.2c-0.5,0-0.6,0.6-0.4,1.2c0.3,0.6,0.9,1.1,1.4,1
	l2.4-0.2l-0.8,2.5c-0.1,0.3,0.1,0.9,0.5,1.2c0.4,0.3,0.8,0.3,0.9-0.1l1.1-3.7l2.8-0.2l-0.7,5.9l5.1-1.2v3.3l-3.1,1.6
	c-0.3,0.1-0.3,0.6,0,1.1c0.3,0.4,0.8,0.7,1.1,0.5l2.1-1v2.8c0,0.6,0.4,1.2,1,1.5c0.6,0.3,1,0.1,1-0.5v-2.8l2.1,3.1
	c0.3,0.4,0.8,0.7,1.1,0.5c0.3-0.1,0.3-0.6,0-1.1L17,38.5v-3.2l5.1,6.3l-0.7-6.6l2.8,3l1.1,4.9c0.1,0.5,0.5,0.9,0.9,1
	c0.4,0.1,0.6-0.2,0.5-0.7l-0.8-3.2l2.4,2.6c0.5,0.5,1.1,0.7,1.4,0.3c0.3-0.3,0.1-1-0.4-1.5l-2.4-2.6l2.8,0.7
	C30.3,39.4,30.5,39.1,30.4,38.7z M25.2,32.5l-4.1-0.2L18,28.9l3.1-0.2L25.2,32.5z M20.6,22.2l-0.5,4.2L17,26.7v-3.6L20.6,22.2z
	 M11.4,17.6l3.6,4.5v3.6l-3.1-3.4L11.4,17.6z M6.7,23.3l4.1,0.2l3.1,3.4l-3.1,0.2L6.7,23.3z M11.4,33.6l0.5-4.2l3.1-0.2v3.6
	L11.4,33.6z M20.6,38.2L17,33.8v-3.6l3.1,3.4L20.6,38.2z"/>
</svg>
