<?xml version="1.0" encoding="utf-8"?>
<!-- Generator: Adobe Illustrator 18.1.0, SVG Export Plug-In . SVG Version: 6.00 Build 0)  -->
<svg version="1.1" id="Layer_1" xmlns="http://www.w3.org/2000/svg" xmlns:xlink="http://www.w3.org/1999/xlink" x="0px" y="0px"
	 viewBox="0 0 32 56" enable-background="new 0 0 32 56" xml:space="preserve">
<path fill="#2D3134" d="M22.1,30l1.9,1v-7.4c0-0.4-0.1-0.8-0.4-1.2l-6.4-9.5c-0.4-0.6-1-0.9-1.4-0.7l-6.4,3.1
	C9.1,15.4,9,15.7,9,16.1v7.4l1.9,1L7.8,39.1c-0.1,0.3,0.2,0.8,0.6,1.1c0,0,0.1,0.1,0.1,0.1c0.3,0.2,0.6,0.1,0.7-0.2l0.2-0.7l7.2-3.6
	l7.2,10.7l0.2,0.9c0.1,0.4,0.4,0.7,0.7,0.9c0,0,0.1,0,0.1,0.1c0.4,0.1,0.6-0.1,0.6-0.5L22.1,30z M11,17.5L22,23v3l-11-5.5V17.5z
	 M20.6,29.3l0.4,2.2c0,0,0,0,0,0l-4.5,2.3L12,27c0,0,0,0,0,0l0.4-1.8L20.6,29.3z M9.8,37.1l1.9-8.6l3.8,5.8L9.8,37.1z M17.5,35.2
	l3.8-1.9l1.9,10.5L17.5,35.2z"/>
</svg>
