<?xml version="1.0" encoding="utf-8"?>
<!-- Generator: Adobe Illustrator 18.1.0, SVG Export Plug-In . SVG Version: 6.00 Build 0)  -->
<svg version="1.1" id="Layer_1" xmlns="http://www.w3.org/2000/svg" xmlns:xlink="http://www.w3.org/1999/xlink" x="0px" y="0px"
	 viewBox="0 0 64 32" enable-background="new 0 0 64 32" xml:space="preserve">
<g>
	<g>
		<path fill="#2D3134" d="M14.3,22.2c-0.1-0.1-0.3-0.2-0.4-0.3c-0.5-0.5-0.1-1.1,0.9-1.4c3.4-0.9,5.5-2.6,5.5-4.5
			c0-1.9-2.1-3.6-5.5-4.5c-1-0.3-1.4-0.9-0.9-1.4c0.5-0.5,1.7-0.7,2.7-0.4c4.8,1.2,7.7,3.7,7.7,6.3c0,2.7-3,5.1-7.7,6.3
			C15.9,22.5,14.9,22.5,14.3,22.2z"/>
		<path fill="#2D3134" d="M22.4,26.2c-0.1,0-0.1-0.1-0.2-0.1c-0.7-0.5-0.5-1.1,0.5-1.4c5.6-2,8.9-5.3,8.9-8.7c0-3.4-3.3-6.7-8.9-8.7
			c-0.9-0.3-1.1-1-0.5-1.4c0.7-0.5,1.9-0.6,2.8-0.2c6.6,2.4,10.6,6.3,10.6,10.3c0,4.1-3.9,7.9-10.6,10.3
			C24.2,26.6,23.1,26.6,22.4,26.2z"/>
		<path fill="#2D3134" d="M30.4,30.2c-0.1,0-0.1-0.1-0.1-0.1c-0.7-0.4-0.6-1.1,0.3-1.4c7.7-3.1,12.2-7.7,12.2-12.7
			c0-4.9-4.4-9.6-12.2-12.7c-0.9-0.3-1-1-0.3-1.4c0.7-0.4,2-0.5,2.9-0.2c8.7,3.5,13.7,8.7,13.7,14.3c0,5.6-5,10.8-13.7,14.3
			C32.3,30.6,31.1,30.6,30.4,30.2z"/>
	</g>
	<path fill="#2D3134" d="M6.5,14.8c1.4-0.7,3.6-0.7,5,0s1.4,1.8,0,2.5s-3.6,0.7-5,0S5.1,15.4,6.5,14.8z"/>
</g>
</svg>
