<?xml version="1.0" encoding="utf-8"?>
<!-- Generator: Adobe Illustrator 18.1.0, SVG Export Plug-In . SVG Version: 6.00 Build 0)  -->
<svg version="1.1" id="Layer_1" xmlns="http://www.w3.org/2000/svg" xmlns:xlink="http://www.w3.org/1999/xlink" x="0px" y="0px"
	 viewBox="0 0 32 56" enable-background="new 0 0 32 56" xml:space="preserve">
<g>
	<path fill="#2D3134" d="M5.9,26c-0.4-0.4-1.1-1-1.9-1.6c-0.9-0.6-1.4-1.1-1.6-1.4C2.1,22.7,2,22.5,2,22.3c0-0.2,0.1-0.4,0.3-0.4
		c0.3-0.1,0.7,0,1.2,0.3c0.5,0.3,0.9,0.5,1.1,0.9c0.3,0.3,0.4,0.7,0.5,1.2L7,25.1c0-0.8-0.3-1.6-0.9-2.4c-0.6-0.8-1.4-1.4-2.5-2
		c-0.7-0.3-1.3-0.5-1.7-0.6c-0.5,0-0.9,0.1-1.1,0.3s-0.4,0.6-0.4,1.1c0,0.7,0.3,1.4,0.8,2.2c0.4,0.5,1.1,1.2,2,1.9
		c0.7,0.6,1.2,0.9,1.4,1.1c0.3,0.3,0.5,0.5,0.6,0.7s0.2,0.4,0.2,0.6c0,0.3-0.1,0.5-0.4,0.6c-0.3,0.1-0.7,0-1.3-0.3
		c-0.5-0.3-1-0.6-1.3-1.1c-0.3-0.4-0.5-1-0.6-1.6L0,25c0.1,1,0.5,2,1.1,2.8c0.6,0.8,1.5,1.5,2.6,2.1c0.8,0.4,1.4,0.6,1.9,0.6
		c0.5,0,0.9-0.1,1.2-0.4c0.3-0.3,0.4-0.7,0.4-1.2c0-0.5-0.1-1.1-0.4-1.6C6.6,26.8,6.3,26.4,5.9,26z"/>
	<path fill="#2D3134" d="M11.3,24.6l-3.5,7.3l1.9,1l0.7-1.7L14,33l0.8,2.4l1.9,1l-3.6-10.8L11.3,24.6z M11,29.9l1.2-2.7l1.2,4
		L11,29.9z"/>
	<polygon fill="#2D3134" points="19.8,29 18,28.1 18,37 24,40 24,38.5 19.8,36.4 	"/>
	<polygon fill="#2D3134" points="27,40 27,37.5 31,39.5 31,38 27,36 27,34 31.8,36.4 31.8,34.9 25,31.5 25,40.5 32,44 32,42.5 	"/>
	<polygon fill="#2D3134" points="0.9,14.3 3.5,15.6 3.5,14.8 0.9,13.5 0.9,11.4 4.6,13.2 4.6,12.4 0,10.1 0,16.9 0.9,17.4 	"/>
	<path fill="#2D3134" d="M6.7,19.9c0.5,0.6,1.2,1,1.8,1.4c0.6,0.3,1.2,0.5,1.8,0.5c0.5,0,1-0.2,1.3-0.6c0.3-0.4,0.4-0.9,0.4-1.6
		c0-0.7-0.1-1.4-0.4-2c-0.3-0.7-0.7-1.3-1.2-1.9c-0.5-0.6-1.2-1-1.8-1.4c-1-0.5-1.9-0.6-2.5-0.3c-0.7,0.3-1,1-1,2.1
		c0,0.6,0.1,1.2,0.4,1.9C5.7,18.7,6.1,19.3,6.7,19.9z M6.7,14.8c0.5-0.2,1.1-0.1,1.8,0.2c0.5,0.2,0.9,0.6,1.3,1
		c0.4,0.4,0.7,0.9,0.9,1.4c0.2,0.5,0.3,1,0.3,1.6c0,0.9-0.2,1.4-0.7,1.7s-1.1,0.2-1.8-0.2c-0.7-0.4-1.3-0.9-1.8-1.6
		C6.2,18.2,6,17.4,6,16.6C6,15.6,6.2,15,6.7,14.8z"/>
	<path fill="#2D3134" d="M17.9,24.1c-0.2-0.5-0.5-0.9-0.7-1.3c-0.1-0.2-0.3-0.4-0.5-0.6c0.6,0.2,1.1,0.3,1.4,0.1
		c0.3-0.2,0.5-0.5,0.5-1c0-0.4-0.1-0.8-0.3-1.2c-0.2-0.4-0.4-0.7-0.8-1s-0.8-0.6-1.4-0.9l-3-1.6v6.8l0.9,0.4v-3l1,0.6
		c0.2,0.1,0.4,0.2,0.5,0.3c0.1,0.1,0.3,0.2,0.4,0.4c0.1,0.2,0.3,0.4,0.5,0.7c0.2,0.3,0.4,0.7,0.6,1.3l0.9,1.9l1.1,0.6L17.9,24.1z
		 M15.9,21.2L14,20.1v-2.2l2.1,1.2c0.5,0.3,0.9,0.5,1.1,0.9c0.2,0.3,0.3,0.6,0.3,1c0,0.2-0.1,0.4-0.2,0.5s-0.3,0.2-0.5,0.1
		C16.6,21.5,16.3,21.4,15.9,21.2z"/>
</g>
</svg>
