<?xml version="1.0" encoding="utf-8"?>
<!-- Generator: Adobe Illustrator 18.1.0, SVG Export Plug-In . SVG Version: 6.00 Build 0)  -->
<svg version="1.1" id="Layer_1" xmlns="http://www.w3.org/2000/svg" xmlns:xlink="http://www.w3.org/1999/xlink" x="0px" y="0px"
	 viewBox="0 0 32 32" enable-background="new 0 0 32 32" xml:space="preserve">
<path fill="#2D3134" d="M17.9,17.5L28.7,6.7C29,6.4,29.1,6,28.9,5.6S28.4,5,28,5h-4.6l3.3-3.3c0.4-0.4,0.4-1,0-1.4s-1-0.4-1.4,0
	L20.6,5H4C3.6,5,3.2,5.2,3.1,5.6S3,6.4,3.3,6.7l10.8,10.8c0.6,0.6,0.9,1.4,0.9,2.3v8.4c0,1-0.8,1.8-1.8,1.8H11c0,0,0,0,0,0
	c-1.3,0-1.2,2,0.1,2h10c1.2,0,1.4-1.8,0.2-2c-0.1,0-0.2,0-0.3,0h-1.2c-1,0-2.7-0.8-2.7-1.8v-8.4C17,18.9,17.3,18.1,17.9,17.5z
	 M25.6,7l-4,4h-4.2l4-4H25.6z M18.6,7l-4,4h-4.2l-4-4H18.6z"/>
</svg>
