<?xml version="1.0" encoding="utf-8"?>
<!-- Generator: Adobe Illustrator 18.1.0, SVG Export Plug-In . SVG Version: 6.00 Build 0)  -->
<svg version="1.1" id="Layer_1" xmlns="http://www.w3.org/2000/svg" xmlns:xlink="http://www.w3.org/1999/xlink" x="0px" y="0px"
	 viewBox="0 0 64 32" enable-background="new 0 0 64 32" xml:space="preserve">
<path fill="#2D3134" d="M49,10.5l2-1l-6-3l-2,1l-10-5l-30,15l26,13l30-15L49,10.5z M13,17.5l-2-1l4-2l2,1L13,17.5z M19,14.5l-2-1
	l4-2l2,1L19,14.5z M25,11.5l-2-1l4-2l2,1L25,11.5z M31,8.5l-2-1l4-2l2,1L31,8.5z M17,19.5l-2-1l4-2l2,1L17,19.5z M23,16.5l-2-1l4-2
	l2,1L23,16.5z M29,13.5l-2-1l4-2l2,1L29,13.5z M35,10.5l-2-1l4-2l2,1L35,10.5z M18,24l-2-1l4-2l2,1L18,24z M24,21l-2-1L45,8.5l2,1
	L24,21z M27,24.5l-2-1l4-2l2,1L27,24.5z M33,21.5l-2-1l4-2l2,1L33,21.5z M39,18.5l-2-1l4-2l2,1L39,18.5z M45,15.5l-2-1l4-2l2,1
	L45,15.5z M31,26.5l-2-1l4-2l2,1L31,26.5z M37,23.5l-2-1l4-2l2,1L37,23.5z M43,20.5l-2-1l4-2l2,1L43,20.5z M49,17.5l-2-1l4-2l2,1
	L49,17.5z"/>
</svg>
