<?xml version="1.0" encoding="utf-8"?>
<!-- Generator: Adobe Illustrator 18.1.0, SVG Export Plug-In . SVG Version: 6.00 Build 0)  -->
<svg version="1.1" id="Layer_1" xmlns="http://www.w3.org/2000/svg" xmlns:xlink="http://www.w3.org/1999/xlink" x="0px" y="0px"
	 viewBox="0 0 64 32" enable-background="new 0 0 64 32" xml:space="preserve">
<path fill="#2D3134" d="M39.1,14.5l10.7-3.1c0.7-0.2,1.4,0.2,1,0.5l-2.7,2l5.9,5.3c0.5,0.4,0,0.9-0.9,1.1l-6.6,0.9
	c-0.8,0.1-1.5-0.1-1.8-0.5l-2.1-3.1l-1.5,0.8l-10.6-15C30.2,3.2,29.6,3,29,3.1l0,0c-0.8,0.1-1.2,0.5-0.9,0.8l11,15.6l-12,6
	c-1.1,0.6-2.9,0.6-4,0l0,0c-1.1-0.6-1.1-1.4,0-2l7-3.5l-7.5-3.8l-1.8,5.1c-0.3,0.7-1.7,1.2-3.2,1.1h0c-1.5-0.1-2.5-0.8-2.3-1.6
	l1.8-5.3l-5,2.5c-1.1,0.6-2.9,0.6-4,0l0,0c-1.1-0.6-1.1-1.4,0-2l12.5-6.3L20,7.6c-0.1-0.5,0.5-1,1.5-1.1l0,0
	c1.2-0.1,2.4,0.2,2.5,0.8l0.5,1.9l11,5.5"/>
</svg>
