<?xml version="1.0" encoding="utf-8"?>
<!-- Generator: Adobe Illustrator 18.1.0, SVG Export Plug-In . SVG Version: 6.00 Build 0)  -->
<svg version="1.1" id="Layer_1" xmlns="http://www.w3.org/2000/svg" xmlns:xlink="http://www.w3.org/1999/xlink" x="0px" y="0px"
	 viewBox="0 0 64 32" enable-background="new 0 0 64 32" xml:space="preserve">
<path fill="#2D3134" d="M41.1,20.6l-2-6.3c0.2-0.2,0.4-0.5,0.4-0.8l8.1-5C48,8.4,48,8,47.5,7.8c-0.5-0.2-1.2-0.3-1.7,0l-9.9,4
	c-0.5,0-1,0.1-1.5,0.2l-12.6-1c-0.7-0.1-1.3,0.1-1.4,0.5c-0.1,0.2,0,0.5,0.3,0.6c0.1,0.1,0.3,0.1,0.5,0.1l11,2.1l-16.4,6.6l-1.2-0.6
	c-0.3-0.1-0.7-0.1-1,0l-2,1c-0.3,0.1-0.3,0.4,0,0.5l8,4c0.3,0.1,0.7,0.1,1,0l2-1c0.3-0.1,0.3-0.4,0-0.5l-1.2-0.6l13.1-8.2l4.2,5.5
	c0.1,0.1,0.2,0.2,0.3,0.2c0.3,0.2,0.8,0.2,1.2,0.2C40.8,21.3,41.2,21,41.1,20.6z M34.5,14.3c-0.8-0.4-0.8-1.1,0-1.5s2.2-0.4,3,0
	s0.8,1.1,0,1.5S35.3,14.7,34.5,14.3z"/>
</svg>
