<?xml version="1.0" encoding="utf-8"?>
<!-- Generator: Adobe Illustrator 18.1.0, SVG Export Plug-In . SVG Version: 6.00 Build 0)  -->
<svg version="1.1" id="Layer_1" xmlns="http://www.w3.org/2000/svg" xmlns:xlink="http://www.w3.org/1999/xlink" x="0px" y="0px"
	 viewBox="0 0 64 32" enable-background="new 0 0 64 32" xml:space="preserve">
<g>
	<path fill="#2D3134" d="M19.2,12.5l5,2.5c2.8-0.6,6.1-0.4,8.6,0.5c3.8-0.7,8.1-0.2,11,1.2c2,1,3.1,2.3,3.1,3.7
		c2.9-1.6,2.9-4-0.2-5.6c-0.4-0.2-0.7-0.3-1.1-0.5c2.8-2.2,2.3-5.1-1.5-6.9c-3.1-1.5-7.5-2-11.4-1.3c-3.6-1.8-9.4-1.8-13,0
		C16.1,7.9,16,10.7,19.2,12.5L19.2,12.5z"/>
	<path fill="#2D3134" d="M43.6,21.7c0.9-1.3,0.3-2.9-1.8-3.9c-2.6-1.3-6.6-1.5-9.6-0.5c-0.2-0.1-0.4-0.3-0.7-0.4
		c-2.2-1.1-5.7-1.1-7.8,0c-2.2,1.1-2.2,2.8,0,3.9l11.2,5.6l0,0c2.5,1.1,6.3,1.1,8.7-0.1C46,25,46.1,23,43.6,21.7z"/>
	<path fill="#2D3134" d="M12.9,14.2c-0.9,0.5-0.9,1.2,0,1.7c0.9,0.5,2.4,0.5,3.3,0c0.9-0.5,3.3-1.7,3.3-1.7S14.6,13.4,12.9,14.2z"/>
	<path fill="#2D3134" d="M26.4,27c-0.9,0.5-0.9,1.2,0,1.7c0.9,0.5,2.4,0.5,3.3,0S33,27,33,27S28.1,26.1,26.4,27z"/>
	<path fill="#2D3134" d="M18.9,23.2c-0.9,0.5-0.9,1.2,0,1.7c0.9,0.5,2.4,0.5,3.3,0s3.3-1.7,3.3-1.7S20.6,22.4,18.9,23.2z"/>
	<path fill="#2D3134" d="M11.4,19.5c-0.9,0.5-0.9,1.2,0,1.7c0.9,0.5,2.4,0.5,3.3,0c0.9-0.5,3.3-1.7,3.3-1.7S13.1,18.6,11.4,19.5z"/>
</g>
</svg>
