<?xml version="1.0" encoding="utf-8"?>
<!-- Generator: Adobe Illustrator 18.1.0, SVG Export Plug-In . SVG Version: 6.00 Build 0)  -->
<svg version="1.1" id="Layer_1" xmlns="http://www.w3.org/2000/svg" xmlns:xlink="http://www.w3.org/1999/xlink" x="0px" y="0px"
	 viewBox="0 0 64 32" enable-background="new 0 0 64 32" xml:space="preserve">
<path fill-rule="evenodd" clip-rule="evenodd" fill="#2D3134" d="M55.8,13.9c0.7-0.3,1.3-0.6,2-1L38.1,3.1c-0.7,0.3-1.3,0.7-2,1
	L30,1c-8.3,4.2-9.2,8.5-5.4,12.3c-0.7,1.6-0.4,3,0.7,4.1l-6.8,3.4c-1.4,0.7-3.7,0.7-5.1,0c-0.8-0.4-2.1-0.4-2.9,0L10,21l4,2l4,2l4,2
	l0.5-0.3c0.8-0.4,0.8-1.1,0-1.5c-1.4-0.7-1.4-1.8,0-2.5l6.8-3.4c2.2,0.6,4.9,0.7,8.1,0.4c7.5,1.9,16.2,1.5,24.6-2.7L55.8,13.9z
	 M30.1,3l4.2,2.1c-4,2.3-6.7,4.3-8.3,6.1C24.5,8.9,24.9,6.1,30.1,3z M31.6,11.8c-0.1,0-0.2-0.1-0.3-0.1c-0.4-0.2-0.5-0.6-0.2-0.8
	c1.5-1.3,3.5-2.7,6.1-4.2c0.5-0.3,1.4-0.3,2-0.1c0.6,0.3,0.6,0.7,0.1,1c-2.4,1.4-4.4,2.7-5.8,3.9C33.2,11.9,32.3,12,31.6,11.8z
	 M41.5,19c3.6-0.8,7.7-2.1,12.3-4.2l4.2,2.1C51.8,19.6,46.2,19.8,41.5,19z"/>
</svg>
