<?xml version="1.0" encoding="utf-8"?>
<!-- Generator: Adobe Illustrator 18.1.0, SVG Export Plug-In . SVG Version: 6.00 Build 0)  -->
<svg version="1.1" id="Layer_1" xmlns="http://www.w3.org/2000/svg" xmlns:xlink="http://www.w3.org/1999/xlink" x="0px" y="0px"
	 viewBox="0 0 32 32" enable-background="new 0 0 32 32" xml:space="preserve">
<g>
	<path fill="#2D3134" d="M16,1C7.7,1,1,7.7,1,16s6.7,15,15,15c8.3,0,15-6.7,15-15S24.3,1,16,1z M16,29C8.8,29,3,23.2,3,16
		S8.8,3,16,3c7.2,0,13,5.8,13,13S23.2,29,16,29z"/>
	<path fill="#2D3134" d="M13.5,13.5l-6,11l11-6l6-11L13.5,13.5z M10,22l4.2-7.8l3.5,3.5L10,22z"/>
	<path fill="#2D3134" d="M16,8c0.6,0,1-0.4,1-1V5c0-0.6-0.4-1-1-1c-0.6,0-1,0.4-1,1v2C15,7.6,15.4,8,16,8z"/>
	<path fill="#2D3134" d="M16,24c-0.6,0-1,0.4-1,1v2c0,0.6,0.4,1,1,1c0.6,0,1-0.4,1-1v-2C17,24.4,16.6,24,16,24z"/>
	<path fill="#2D3134" d="M8,16c0-0.6-0.4-1-1-1H5c-0.6,0-1,0.4-1,1s0.4,1,1,1h2C7.6,17,8,16.6,8,16z"/>
	<path fill="#2D3134" d="M27,15h-2c-0.6,0-1,0.4-1,1s0.4,1,1,1h2c0.6,0,1-0.4,1-1S27.6,15,27,15z"/>
</g>
</svg>
