<?xml version="1.0" encoding="utf-8"?>
<!-- Generator: Adobe Illustrator 18.1.0, SVG Export Plug-In . SVG Version: 6.00 Build 0)  -->
<svg version="1.1" id="Layer_1" xmlns="http://www.w3.org/2000/svg" xmlns:xlink="http://www.w3.org/1999/xlink" x="0px" y="0px"
	 viewBox="0 0 64 32" enable-background="new 0 0 64 32" xml:space="preserve">
<g>
	<path fill="#2D3134" d="M29.2,12.8c2.3-0.1,4.7-0.7,7.2-2c1.3-0.6,2.2-1.2,2.9-1.8s1.1-1.2,1.2-1.8c0.1-0.6,0-1.1-0.5-1.7
		c-0.4-0.5-1.2-1-2.1-1.5c-1.4-0.7-2.8-1.1-4.3-1.3s-3,0-4.5,0.3c-1.5,0.4-3.2,1-4.9,1.8c-1.6,0.8-2.7,1.6-3.3,2.4
		c-0.6,0.8-0.7,1.6-0.3,2.3c0.4,0.7,1.2,1.4,2.3,1.9C24.9,12.4,26.9,12.9,29.2,12.8z M25.5,8c0.6-0.4,1.5-0.9,2.7-1.5
		c1.1-0.6,2.1-1,3-1.3c0.9-0.3,1.7-0.4,2.4-0.5c0.7,0,1.4,0.1,2,0.5c0.9,0.5,1.1,1,0.7,1.5C35.8,7.3,34.8,8,33,8.9
		c-1.8,0.9-3.3,1.5-4.4,1.7c-1.2,0.2-2.2,0.1-3.2-0.3c-0.6-0.3-0.9-0.7-0.9-1C24.6,8.9,24.9,8.5,25.5,8z"/>
	<path fill="#2D3134" d="M41.3,25c0.7-0.6,1.1-1.2,1.2-1.8c0.1-0.6,0-1.1-0.5-1.7c-0.4-0.5-1.2-1-2.1-1.5c-1.4-0.7-2.8-1.1-4.3-1.3
		s-3,0-4.5,0.3c-1.5,0.4-3.2,1-4.9,1.8c-1.6,0.8-2.7,1.6-3.3,2.4c-0.6,0.8-0.7,1.6-0.3,2.3c0.4,0.7,1.2,1.4,2.3,1.9
		c1.9,0.9,3.9,1.4,6.2,1.3c2.3-0.1,4.7-0.7,7.2-2C39.7,26.2,40.6,25.5,41.3,25z M30.6,26.6c-1.2,0.2-2.2,0.1-3.2-0.3
		c-0.6-0.3-0.9-0.7-0.9-1c0-0.4,0.3-0.8,0.9-1.2c0.6-0.4,1.5-0.9,2.7-1.5c1.1-0.6,2.1-1,3-1.3c0.9-0.3,1.7-0.4,2.4-0.5
		c0.7,0,1.4,0.1,2,0.5c0.9,0.5,1.1,1,0.7,1.5c-0.4,0.6-1.5,1.3-3.2,2.1C33.3,25.8,31.8,26.4,30.6,26.6z"/>
	<path fill="#2D3134" d="M55.4,13.9c0.4-0.2,0.6-0.4,0.5-0.6c0-0.2-0.2-0.4-0.6-0.6c-0.4-0.2-0.8-0.3-1.3-0.3
		c-0.5,0-1.1,0.1-1.8,0.2l-42.5,5c-0.6,0.1-1.1,0.2-1.4,0.3c-0.4,0.2-0.5,0.4-0.4,0.7c0.1,0.3,0.3,0.5,0.6,0.6
		c0.5,0.3,1.3,0.3,2.5,0.2l42.2-4.9C54.3,14.2,55.1,14.1,55.4,13.9z"/>
</g>
</svg>
