<?xml version="1.0" encoding="utf-8"?>
<!-- Generator: Adobe Illustrator 18.1.0, SVG Export Plug-In . SVG Version: 6.00 Build 0)  -->
<svg version="1.1" id="Layer_1" xmlns="http://www.w3.org/2000/svg" xmlns:xlink="http://www.w3.org/1999/xlink" x="0px" y="0px"
	 viewBox="0 0 32 32" enable-background="new 0 0 32 32" xml:space="preserve">
<g>
	<path fill-rule="evenodd" clip-rule="evenodd" fill="#2D3134" d="M20.8,20.3c-0.1-0.8-0.4-1.6-0.7-2.3l1.6-1.4
		c-0.4-0.7-0.9-1.4-1.5-2l-1.8,1.1c-0.6-0.6-1.2-1-2-1.4l0.5-2.1c-0.8-0.3-1.5-0.6-2.4-0.8l-0.8,2c-0.4-0.1-0.8-0.1-1.2-0.1
		c-0.4,0-0.8,0-1.2,0.1l-0.8-2c-0.8,0.2-1.6,0.4-2.4,0.8l0.5,2.1c-0.7,0.4-1.4,0.9-2,1.4l-1.8-1.1c-0.6,0.6-1.1,1.3-1.5,2L4.9,18
		c-0.4,0.7-0.6,1.5-0.7,2.3L2,20.4C2,20.9,2,21.3,2,21.7C2,22.1,2,22.5,2,23l2.1,0.2c0.1,0.8,0.4,1.6,0.7,2.3l-1.6,1.4
		c0.4,0.7,0.9,1.4,1.5,2l1.8-1.1c0.6,0.6,1.2,1,2,1.4L8,31.2c0.8,0.3,1.5,0.6,2.4,0.8l0.8-2c0.4,0.1,0.8,0.1,1.2,0.1
		c0.4,0,0.8,0,1.2-0.1l0.8,2c0.8-0.2,1.6-0.4,2.4-0.8l-0.5-2.1c0.7-0.4,1.4-0.9,2-1.4l1.8,1.1c0.6-0.6,1.1-1.3,1.5-2L20,25.4
		c0.4-0.7,0.6-1.5,0.7-2.3l2.1-0.2c0-0.4,0.1-0.8,0.1-1.3c0-0.4,0-0.8-0.1-1.3L20.8,20.3z M12.5,24.9c-1.8,0-3.2-1.4-3.2-3.2
		c0-1.8,1.4-3.2,3.2-3.2c1.8,0,3.2,1.4,3.2,3.2C15.7,23.5,14.2,24.9,12.5,24.9z"/>
	<path fill-rule="evenodd" clip-rule="evenodd" fill="#2D3134" d="M28,8.5c0.1-0.3,0.1-0.6,0.1-0.8L30,7.1c0-0.8-0.2-1.5-0.4-2.2
		l-1.9,0.2c-0.2-0.5-0.5-1-0.9-1.4l1-1.7c-0.5-0.5-1.2-0.9-1.8-1.3l-1.2,1.5C24.4,2.1,24.1,2,23.8,2c-0.3-0.1-0.6-0.1-0.8-0.1
		L22.5,0c-0.8,0-1.5,0.2-2.2,0.4l0.2,1.9c-0.5,0.2-1,0.5-1.4,0.9l-1.7-1c-0.5,0.5-0.9,1.2-1.3,1.8l1.5,1.2c-0.1,0.3-0.2,0.5-0.3,0.8
		c-0.1,0.3-0.1,0.6-0.1,0.8l-1.9,0.5c0,0.8,0.2,1.5,0.4,2.2l1.9-0.2c0.2,0.5,0.5,1,0.9,1.4l-1,1.7c0.5,0.5,1.2,0.9,1.8,1.3l1.2-1.5
		c0.3,0.1,0.5,0.2,0.8,0.3c0.3,0.1,0.6,0.1,0.8,0.1l0.5,1.9c0.8,0,1.5-0.2,2.2-0.4l-0.2-1.9c0.5-0.2,1-0.5,1.4-0.9l1.7,1
		c0.5-0.5,0.9-1.2,1.3-1.8l-1.5-1.2C27.9,9.1,28,8.8,28,8.5z M24.5,7.8c-0.2,1-1.3,1.7-2.3,1.5c-1-0.2-1.7-1.3-1.5-2.3
		c0.2-1,1.3-1.7,2.3-1.5C24.1,5.7,24.8,6.7,24.5,7.8z"/>
</g>
</svg>
