<?xml version="1.0" encoding="utf-8"?>
<!-- Generator: Adobe Illustrator 18.1.0, SVG Export Plug-In . SVG Version: 6.00 Build 0)  -->
<svg version="1.1" id="Layer_1" xmlns="http://www.w3.org/2000/svg" xmlns:xlink="http://www.w3.org/1999/xlink" x="0px" y="0px"
	 viewBox="0 0 32 56" enable-background="new 0 0 32 56" xml:space="preserve">
<g>
	<path fill-rule="evenodd" clip-rule="evenodd" fill="#2D3134" d="M16.5,17.3C17.9,18,19,17.4,19,16c0-1.4-1.1-3.1-2.5-3.7
		c-1.4-0.7-2.5-0.1-2.5,1.3C14,14.9,15.1,16.6,16.5,17.3z"/>
	<path fill-rule="evenodd" clip-rule="evenodd" fill="#2D3134" d="M24.7,33.5L21.4,22c-0.3-0.9-1-1.8-1.8-2.2l-6.3-3.2
		c-0.8-0.4-1.5-0.2-1.8,0.4l-3.3,8.2c-0.2,0.4,0.1,1.1,0.6,1.6c0.6,0.6,1.3,0.7,1.5,0.1l2.6-6.5l1,0.5l-4,10l3,1.5v8.9
		c0,0.6,0.5,1.4,1.1,1.7l0.8,0.4c0.6,0.3,1.1,0.1,1.1-0.6V34l1,0.5v8.9c0,0.6,0.5,1.4,1.1,1.7l0.8,0.4c0.6,0.3,1.1,0.1,1.1-0.6V36
		l3,1.5l-4-14l1,0.5l2.6,9.1c0.2,0.7,0.9,1.4,1.5,1.4C24.6,34.5,24.9,34.1,24.7,33.5z"/>
</g>
</svg>
