<?xml version="1.0" encoding="utf-8"?>
<!-- Generator: Adobe Illustrator 18.1.0, SVG Export Plug-In . SVG Version: 6.00 Build 0)  -->
<svg version="1.1" id="Layer_1" xmlns="http://www.w3.org/2000/svg" xmlns:xlink="http://www.w3.org/1999/xlink" x="0px" y="0px"
	 viewBox="0 0 32 32" enable-background="new 0 0 32 32" xml:space="preserve">
<path fill-rule="evenodd" clip-rule="evenodd" fill="#2D3134" d="M29,8.6l-4.3-4.3c-0.4-0.4-1-0.4-1.4,0s-0.4,1,0,1.4L26,8.4v1
	c0,0.4,0.2,0.8,0.4,1.1L28,12v13c0,0.6-0.4,1-1,1s-1-0.4-1-1v-4c0-1.7-1.3-3-3-3h-1V1.5C22,0.7,21.3,0,20.5,0h-14C5.7,0,5,0.7,5,1.5
	V29H4.5C3.7,29,3,29.7,3,30.5S3.7,32,4.5,32H5h17h0.4c0.8,0,1.5-0.7,1.5-1.5S23.3,29,22.4,29H22v-9h1c0.6,0,1,0.4,1,1v4
	c0,1.7,1.3,3,3,3s3-1.3,3-3V10.9C30,10.1,29.7,9.2,29,8.6z M19,12H8V3h11V12z"/>
</svg>
