<?xml version="1.0" encoding="utf-8"?>
<!-- Generator: Adobe Illustrator 18.1.0, SVG Export Plug-In . SVG Version: 6.00 Build 0)  -->
<svg version="1.1" id="Layer_1" xmlns="http://www.w3.org/2000/svg" xmlns:xlink="http://www.w3.org/1999/xlink" x="0px" y="0px"
	 viewBox="0 0 32 32" enable-background="new 0 0 32 32" xml:space="preserve">
<g>
	<path fill="#2D3134" d="M11,16c0.6,0.6,1.4,0.6,2,0l3.3-3.3c1-1,2.5-1,3.5,0L25,18c0,0,7.2-7.2,7-7l-7-7l-1,1c-0.6,0.6-1.4,0.6-2,0
		l0,0c-0.6-0.6-1.4-0.6-2,0l-9,9C10.4,14.6,10.4,15.4,11,16z"/>
	<path fill="#2D3134" d="M19.7,14.7c-1-1-2.5-1-3.5,0L14,17c-1.1,1.1-2.9,1.1-4,0c-1.1-1.1-1.1-2.9,0-4l6-6l-2-2
		c-0.6-0.6-1.4-0.6-2,0s-1.4,0.6-2,0L8,3l-8,8l17.8,17.8c0.6,0.6,1.4,0.6,2,0s0.6-1.4,0-2c0.6,0.6,1.4,0.6,2,0s0.6-1.4,0-2
		c0.6,0.6,1.4,0.6,2,0c0.6-0.6,0.6-1.4,0-2c0.6,0.6,1.4,0.6,2,0c0.6-0.6,0.6-1.4,0-2L19.7,14.7z"/>
	<path fill="#2D3134" d="M4.4,21.6c-0.6,0.6-0.6,1.4,0,2c0.6,0.6,1.4,0.6,2,0c-0.6,0.6-0.6,1.4,0,2s1.4,0.6,2,0
		c-0.6,0.6-0.6,1.4,0,2s1.4,0.6,2,0c-0.6,0.6-0.6,1.4,0,2s1.4,0.6,2,0l2.2-2.2l-8-8L4.4,21.6z"/>
</g>
</svg>
