<?xml version="1.0" encoding="utf-8"?>
<!-- Generator: Adobe Illustrator 18.1.0, SVG Export Plug-In . SVG Version: 6.00 Build 0)  -->
<svg version="1.1" id="Layer_1" xmlns="http://www.w3.org/2000/svg" xmlns:xlink="http://www.w3.org/1999/xlink" x="0px" y="0px"
	 viewBox="0 0 32 32" enable-background="new 0 0 32 32" xml:space="preserve">
<g>
	<circle fill-rule="evenodd" clip-rule="evenodd" fill="#2D3134" cx="14" cy="3" r="3"/>
	<path fill-rule="evenodd" clip-rule="evenodd" fill="#2D3134" d="M30.2,26.4l-4.8-9.6c-0.3-0.5-0.8-0.8-1.3-0.8H17v-3h4.5
		c0.8,0,1.5-0.7,1.5-1.5S22.3,10,21.5,10H17V8.5C17,7.7,16.3,7,15.5,7H11v11.5c0,0.8,0.7,1.5,1.5,1.5H23l4,8c0.5,1,1.7,1.3,2.6,0.7
		C30.3,28.2,30.6,27.2,30.2,26.4z"/>
	<path fill-rule="evenodd" clip-rule="evenodd" fill="#2D3134" d="M14.5,30C9.8,30,6,26.2,6,21.5c0-3.1,1.6-5.7,4-7.2V12
		c-3.6,1.7-6,5.3-6,9.5C4,27.3,8.7,32,14.5,32c4.6,0,8.5-2.9,9.9-7L23,22.1C22.7,26.5,19,30,14.5,30z"/>
</g>
</svg>
