<?xml version="1.0" encoding="utf-8"?>
<!-- Generator: Adobe Illustrator 18.1.0, SVG Export Plug-In . SVG Version: 6.00 Build 0)  -->
<svg version="1.1" id="Layer_1" xmlns="http://www.w3.org/2000/svg" xmlns:xlink="http://www.w3.org/1999/xlink" x="0px" y="0px"
	 viewBox="0 0 32 56" enable-background="new 0 0 32 56" xml:space="preserve">
<g>
	<path fill-rule="evenodd" clip-rule="evenodd" fill="#2D3134" d="M7,36.5l18,9v-21l-4-2v-1.8c0-1.2-1-2.7-2.2-3.3l-5.6-2.8
		C12,14,11,14.5,11,15.7v1.8l-4-2V36.5z M13,16.5l6,3v2l-6-3V16.5z"/>
	<path fill-rule="evenodd" clip-rule="evenodd" fill="#2D3134" d="M28.8,26.4L26,25v21l2.8,1.4c1.8,0.9,3.2,0.2,3.2-1.6V31.2
		C32,29.4,30.6,27.3,28.8,26.4z"/>
	<path fill-rule="evenodd" clip-rule="evenodd" fill="#2D3134" d="M6,15l-2.8-1.4C1.4,12.7,0,13.4,0,15.2v14.6
		c0,1.8,1.4,3.9,3.2,4.8L6,36V15z"/>
</g>
</svg>
