<?xml version="1.0" encoding="utf-8"?>
<!-- Generator: Adobe Illustrator 18.1.0, SVG Export Plug-In . SVG Version: 6.00 Build 0)  -->
<svg version="1.1" id="Layer_1" xmlns="http://www.w3.org/2000/svg" xmlns:xlink="http://www.w3.org/1999/xlink" x="0px" y="0px"
	 viewBox="0 0 32 56" enable-background="new 0 0 32 56" xml:space="preserve">
<g>
	<polygon fill="#2D3134" points="2,38 2,42 6,40 6,36 	"/>
	<polygon fill="#2D3134" points="6,44 10,42 10,38 6,40 	"/>
	<polygon fill="#2D3134" points="10,34 10,38 14,36 14,32 	"/>
	<polygon fill="#2D3134" points="14,40 18,38 18,34 14,36 	"/>
	<polygon fill="#2D3134" points="18,30 18,34 22,32 22,28 	"/>
	<polygon fill="#2D3134" points="26,30 30,28 30,24 26,26 	"/>
	<polygon fill="#2D3134" points="22,36 26,34 26,30 22,32 	"/>
	<polygon fill="#2D3134" points="4,35 6,34 6,25.7 8.9,24.3 8.9,22.6 1.1,26.5 1.1,28.1 4,26.7 	"/>
	<path fill="#2D3134" d="M10.2,31.9l0.8-2.7l3.9-2l0.9,1.8l2.2-1.1L14,20l-2.1,1L8.1,33L10.2,31.9z M12.9,22.9l1.4,3l-2.7,1.3
		L12.9,22.9z"/>
	<polygon fill="#2D3134" points="20.3,26.8 22.5,22.3 24.7,24.7 27.1,23.5 23.7,20 26.8,13.6 24.5,14.8 22.5,18.9 20.6,16.7 
		18.3,17.9 21.3,21.1 17.9,28 	"/>
	<polygon fill="#2D3134" points="28,13 28,23 30,22 30,12 	"/>
</g>
</svg>
