<?xml version="1.0" encoding="utf-8"?>
<!-- Generator: Adobe Illustrator 18.1.0, SVG Export Plug-In . SVG Version: 6.00 Build 0)  -->
<svg version="1.1" id="Layer_1" xmlns="http://www.w3.org/2000/svg" xmlns:xlink="http://www.w3.org/1999/xlink" x="0px" y="0px"
	 viewBox="0 0 32 32" enable-background="new 0 0 32 32" xml:space="preserve">
<path fill="#2D3134" d="M17.5,11l9-9v2.5l3.9,2.9c1.3,1,0.4,3.1-1.2,2.8L26,9.5L21,19v9.5c0,0.8-0.7,1.5-1.5,1.5h0
	c-0.8,0-1.5-0.7-1.5-1.5V20h-6l-1,2l2.9,5.6c0.4,0.8,0.1,1.8-0.7,2.3h0c-0.8,0.4-1.8,0.1-2.2-0.7L8,23v-3l-3,2.5v6
	C5,29.3,4.3,30,3.5,30h0C2.7,30,2,29.3,2,28.5v-6L4,19v-6H3.3C2.6,13,2,13.6,2,14.3v1.9c0,1.2-0.5,2.3-1.3,3.1L0,20v-6
	c0-1.7,1.4-3,3-3H17.5z"/>
</svg>
