<?xml version="1.0" encoding="utf-8"?>
<!-- Generator: Adobe Illustrator 18.1.0, SVG Export Plug-In . SVG Version: 6.00 Build 0)  -->
<svg version="1.1" id="Layer_1" xmlns="http://www.w3.org/2000/svg" xmlns:xlink="http://www.w3.org/1999/xlink" x="0px" y="0px"
	 viewBox="0 0 32 32" enable-background="new 0 0 32 32" xml:space="preserve">
<path fill-rule="evenodd" clip-rule="evenodd" fill="#2D3134" d="M10.9,21.3c-0.9,0-1.7,0.2-2.4,0.9c-0.7-0.7-1.5-0.9-2.4-0.9
	c-3.4,0-4.5,2.4-3.9,5.3C2.8,29.6,4.5,32,6.6,32c0.9,0,1.2-0.4,1.8-1.1c0.7,0.7,0.7,1.1,1.6,1.1c2.2,0,3.8-2.3,4.7-5.3
	C15.6,23.8,14.1,21.3,10.9,21.3z M12,19.8c1.8-1.4,2.2-3.9,2.2-3.9s-2.5-0.3-4.4,1.1c-1.8,1.4-2.2,3.9-2.2,3.9S10.2,21.1,12,19.8z"
	/>
<path fill-rule="evenodd" clip-rule="evenodd" fill="#2D3134" d="M28.7,11.8l-3.6-9.6c0.3,0,0.5-0.3,0.5-0.6c0-0.2-0.1-0.4-0.3-0.5
	c0.2-0.1,0.3-0.3,0.3-0.5C25.6,0.3,25.3,0,25,0h-4c-0.3,0-0.6,0.3-0.6,0.6c0,0.2,0.1,0.4,0.3,0.5c-0.2,0.1-0.3,0.3-0.3,0.5
	c0,0.3,0.2,0.5,0.5,0.6l-3.6,9.6c-0.2,0.6-0.3,1.3-0.3,2v17c0,0.6,0.5,1.2,1.2,1.2h9.6c0.7,0,1.2-0.5,1.2-1.2v-17
	C29,13.1,28.9,12.4,28.7,11.8z M20.1,10L23,2.4l2.9,7.6H20.1z"/>
</svg>
