<?xml version="1.0" encoding="utf-8"?>
<!-- Generator: Adobe Illustrator 18.1.0, SVG Export Plug-In . SVG Version: 6.00 Build 0)  -->
<svg version="1.1" id="Layer_1" xmlns="http://www.w3.org/2000/svg" xmlns:xlink="http://www.w3.org/1999/xlink" x="0px" y="0px"
	 viewBox="0 0 32 32" enable-background="new 0 0 32 32" xml:space="preserve">
<g>
	<rect x="2" y="19" fill="#2D3134" width="4" height="4"/>
	<rect x="6" y="23" fill="#2D3134" width="4" height="4"/>
	<rect x="10" y="19" fill="#2D3134" width="4" height="4"/>
	<rect x="14" y="23" fill="#2D3134" width="4" height="4"/>
	<rect x="18" y="19" fill="#2D3134" width="4" height="4"/>
	<rect x="26" y="19" fill="#2D3134" width="4" height="4"/>
	<rect x="22" y="23" fill="#2D3134" width="4" height="4"/>
	<polygon fill="#2D3134" points="4,17 6,17 6,8.7 8.9,8.7 8.9,7 1.1,7 1.1,8.7 4,8.7 	"/>
	<path fill="#2D3134" d="M10.2,17l0.8-2.3h3.9l0.9,2.3h2.2L14,7h-2.1L8.1,17H10.2z M12.9,9.3l1.4,3.7h-2.7L12.9,9.3z"/>
	<polygon fill="#2D3134" points="20.3,17 22.5,13.5 24.7,17 27.1,17 23.7,11.9 26.8,7 24.5,7 22.5,10.2 20.6,7 18.3,7 21.3,11.8 
		17.9,17 	"/>
	<rect x="28" y="7" fill="#2D3134" width="2" height="10"/>
</g>
</svg>
