<?xml version="1.0" encoding="utf-8"?>
<!-- Generator: Adobe Illustrator 18.1.0, SVG Export Plug-In . SVG Version: 6.00 Build 0)  -->
<svg version="1.1" id="Layer_1" xmlns="http://www.w3.org/2000/svg" xmlns:xlink="http://www.w3.org/1999/xlink" x="0px" y="0px"
	 viewBox="0 0 32 32" enable-background="new 0 0 32 32" xml:space="preserve">
<path fill-rule="evenodd" clip-rule="evenodd" fill="#2D3134" d="M31,15c-0.6,0-1,0.4-1,1v3.8c-0.5-0.5-1.2-0.8-2-0.8
	c-1.7,0-3,1.3-3,3c0-1.7-1.3-3-3-3s-3,1.3-3,3c0-1.7-1.3-3-3-3s-3,1.3-3,3c0-1.7-1.3-3-3-3v-5.6c0-1.3-1.1-2.4-2.4-2.4H7v1h0.7
	C8.4,12,9,12.6,9,13.3V14H4v-0.6C4,12.1,2.9,11,1.6,11H1v1h0.7C2.4,12,3,12.6,3,13.3V14v1v1v1v1v1v0.2c-0.4,0.1-0.7,0.3-1,0.6V16
	c0-0.6-0.4-1-1-1s-1,0.4-1,1v10h32V16C32,15.4,31.6,15,31,15z M6.8,21h0.4C7.1,21.3,7,21.6,7,22C7,21.6,6.9,21.3,6.8,21z M4,15h5v1
	H4V15z M4,17h5v1H4V17z M9,19v0.2c-0.5,0.2-0.9,0.4-1.2,0.8H6.2c-0.5-0.6-1.3-1-2.2-1H9z"/>
</svg>
