<?xml version="1.0" encoding="utf-8"?>
<!-- Generator: Adobe Illustrator 18.1.0, SVG Export Plug-In . SVG Version: 6.00 Build 0)  -->
<svg version="1.1" id="Layer_1" xmlns="http://www.w3.org/2000/svg" xmlns:xlink="http://www.w3.org/1999/xlink" x="0px" y="0px"
	 viewBox="0 0 64 32" enable-background="new 0 0 64 32" xml:space="preserve">
<g>
	<path fill="#2D3134" d="M37.1,28c0.8-0.1,1.5-0.3,2.1-0.6l15.6-7.8c0.6-0.3,1-0.7,1.2-1l-18.8,0V28z"/>
	<path fill="#2D3134" d="M29.1,17.4l26.8,0c-0.2-0.4-0.6-0.7-1.2-1L31.2,4.6c-0.6-0.3-1.3-0.5-2.1-0.6L29.1,17.4z"/>
	<path fill="#2D3134" d="M26.9,4c-0.8,0.1-1.5,0.3-2.1,0.6L9.2,12.4c-0.6,0.3-1,0.7-1.2,1h18.8L26.9,4z"/>
	<path fill="#2D3134" d="M34.9,18.6l-8,0l0-4H8c0.2,0.4,0.6,0.7,1.2,1l23.6,11.8c0.6,0.3,1.3,0.5,2.1,0.6V18.6z"/>
</g>
</svg>
