<?xml version="1.0" encoding="utf-8"?>
<!-- Generator: Adobe Illustrator 18.1.0, SVG Export Plug-In . SVG Version: 6.00 Build 0)  -->
<svg version="1.1" id="Layer_1" xmlns="http://www.w3.org/2000/svg" xmlns:xlink="http://www.w3.org/1999/xlink" x="0px" y="0px"
	 viewBox="0 0 32 56" enable-background="new 0 0 32 56" xml:space="preserve">
<g>
	<path fill="#2D3134" d="M22,17c-0.1-0.1,1.6,2.5,3.6,5.4L17,26.7l-5-7.5L1.1,24.6c-0.5,0.3-0.5,1.1,0,1.8c0.3,0.4,0.6,0.7,0.9,0.8
		c0.3,0.2,0.7,0.2,0.9,0.1l9.1-4.5l5,7.5l10.4-5.2c1.9,2.9,3.6,5.4,3.6,5.4v-9L22,17z"/>
	<polygon fill="#2D3134" points="26,28.7 26,48 30,50 30,31.8 27.4,28 	"/>
	<polygon fill="#2D3134" points="2,36 6,38 6,28.7 2,30.7 	"/>
	<polygon fill="#2D3134" points="8,39 12,41 12,25.7 8,27.7 	"/>
	<polygon fill="#2D3134" points="20,45 24,47 24,29.7 20,31.7 	"/>
	<polygon fill="#2D3134" points="14,28.7 14,42 18,44 18,32.7 17,33.2 	"/>
</g>
</svg>
