<?xml version="1.0" encoding="utf-8"?>
<!-- Generator: Adobe Illustrator 18.1.0, SVG Export Plug-In . SVG Version: 6.00 Build 0)  -->
<svg version="1.1" id="Layer_1" xmlns="http://www.w3.org/2000/svg" xmlns:xlink="http://www.w3.org/1999/xlink" x="0px" y="0px"
	 viewBox="0 0 32 56" enable-background="new 0 0 32 56" xml:space="preserve">
<path fill-rule="evenodd" clip-rule="evenodd" fill="#2D3134" d="M9.1,26.8l2.5,2.7l-3.9-8.6L0,17l2.5,2.7l0.7,0.7l-1.9,2.4
	C1,23,0.9,23.3,0.9,23.6c0,0.3,0.1,0.7,0.3,1.1c0,0,1.7,3.8,3.1,6.8c0.1-0.3,0.2-0.5,0.4-0.8l3.8-4.6L9.1,26.8z M5.4,31.7
	c-0.2,0.2-0.3,0.6-0.3,1c0,0.4,0.1,0.8,0.3,1.3c0.4,0.9,1.2,1.7,2,2.1c0,0,6.4,3.2,7.6,3.8c0-1.1,0-5,0-6.1c-1.2-0.6-7.3-3.7-8-4
	C6.6,30.2,5.4,31.7,5.4,31.7z M27.6,21l-2.5,0.2l-0.7,0.1l-1.9-4.3c-0.2-0.4-0.4-0.8-0.7-1.1c-0.3-0.3-0.6-0.6-0.9-0.7
	c0,0-3.4-1.7-6.1-3.1c0.2,0.4,0.5,0.7,0.6,1.1l3.8,8.4l-0.6,0.1l-2.5,0.2l7.7,3.9L27.6,21z M16.3,17c-0.3-0.7-1.6-3.5-1.6-3.5
	c-0.2-0.5-0.5-0.9-0.8-1.3c-0.3-0.4-0.7-0.7-1.1-0.9c-0.8-0.4-1.6-0.3-2,0.2c0,0-3.2,3.9-3.8,4.7c1,1,4.4,4.7,5.3,5.7
	C12.9,21.3,15.9,17.5,16.3,17z M22.2,37.4v-0.8l0-2.9l-3.9,4.7l3.8,8.6v-2.9v-0.8l3.8,1.9c0.4,0.2,0.7,0.3,1,0.2
	c0.3,0,0.5-0.1,0.7-0.3c0,0,1.7-2.1,3.1-3.8c-0.3-0.1-0.7-0.2-1-0.4L22.2,37.4z M31.7,37.8c0,0-3.2-7.2-3.8-8.5
	c-0.9,0.1-4.4,0.3-5.3,0.4c0.6,1.3,3.7,8.2,4,9c0.7,0.3,3.1,1.6,3.1,1.6c0.4,0.2,0.8,0.3,1.2,0.3c0.3,0,0.6-0.2,0.8-0.4
	C32.1,39.6,32.1,38.7,31.7,37.8z"/>
</svg>
