<?xml version="1.0" encoding="utf-8"?>
<!-- Generator: Adobe Illustrator 18.1.0, SVG Export Plug-In . SVG Version: 6.00 Build 0)  -->
<svg version="1.1" id="Layer_1" xmlns="http://www.w3.org/2000/svg" xmlns:xlink="http://www.w3.org/1999/xlink" x="0px" y="0px"
	 viewBox="0 0 32 32" enable-background="new 0 0 32 32" xml:space="preserve">
<g>
	<path fill="#2D3134" d="M10,19c-2.5,0.2-4,1.1-4,2c0-2.8,1.5-5.4,4-5.9V7c0-1.1,0.9-2,2-2h9V4c0-0.6-0.4-1-1-1H2C1.4,3,1,3.4,1,4
		v12.9C1,22.5,5.5,27,11,27c0.5,0,1,0,1.5-0.1c-1.5-1.9-2.5-4.3-2.5-7V19z M7.5,9C8.3,9,9,9.7,9,10.5S8.3,12,7.5,12S6,11.3,6,10.5
		S6.7,9,7.5,9z"/>
	<path fill="#2D3134" d="M30,6H12c-0.6,0-1,0.4-1,1v12.9C11,25.5,15.5,30,21,30s10-4.5,10-10.1V7C31,6.4,30.6,6,30,6z M17.5,12
		c0.8,0,1.5,0.7,1.5,1.5S18.3,15,17.5,15S16,14.3,16,13.5S16.7,12,17.5,12z M21,24c-3.2,0-5-2.8-5-6c0,0.9,1.8,2,5,2s5-1.1,5-2
		C26,21.2,24.2,24,21,24z M24.5,15c-0.8,0-1.5-0.7-1.5-1.5s0.7-1.5,1.5-1.5s1.5,0.7,1.5,1.5S25.3,15,24.5,15z"/>
</g>
</svg>
