<?xml version="1.0" encoding="utf-8"?>
<!-- Generator: Adobe Illustrator 18.1.0, SVG Export Plug-In . SVG Version: 6.00 Build 0)  -->
<svg version="1.1" id="Layer_1" xmlns="http://www.w3.org/2000/svg" xmlns:xlink="http://www.w3.org/1999/xlink" x="0px" y="0px"
	 viewBox="0 0 32 32" enable-background="new 0 0 32 32" xml:space="preserve">
<g>
	<circle fill-rule="evenodd" clip-rule="evenodd" fill="#2D3134" cx="16.5" cy="4.5" r="2.5"/>
	<path fill-rule="evenodd" clip-rule="evenodd" fill="#2D3134" d="M27.9,0.9l-0.2-0.2c-0.4-0.4-1.1-0.4-1.5,0L18.8,8h-4.6L6.8,0.7
		c-0.4-0.4-1.1-0.4-1.5,0L5.1,0.9c-0.4,0.4-0.4,1.1,0,1.5l7.9,7.7V31c0,0.6,0.4,1,1,1h1c0.6,0,1-0.4,1-1V20h1v11c0,0.6,0.4,1,1,1h1
		c0.6,0,1-0.4,1-1V10.1l7.9-7.7C28.3,1.9,28.3,1.3,27.9,0.9z"/>
</g>
</svg>
