<?xml version="1.0" encoding="utf-8"?>
<!-- Generator: Adobe Illustrator 18.1.0, SVG Export Plug-In . SVG Version: 6.00 Build 0)  -->
<svg version="1.1" id="Layer_1" xmlns="http://www.w3.org/2000/svg" xmlns:xlink="http://www.w3.org/1999/xlink" x="0px" y="0px"
	 viewBox="0 0 64 32" enable-background="new 0 0 64 32" xml:space="preserve">
<g>
	<path fill="#2D3134" d="M53,12c0-0.1,0,1.6,0,3.6l-17.2,0v-5l-21.8,0c-1,0-1.8,0.4-1.8,0.9c0,0.3,0.2,0.5,0.5,0.6s0.8,0.3,1.3,0.3
		l18.2,0v5l20.8,0c0,1.9,0,3.6,0,3.6l9-4.5L53,12z"/>
	<polygon fill="#2D3134" points="47.3,18.8 28,28.5 32,30.5 50.2,21.4 50.2,18.8 	"/>
	<polygon fill="#2D3134" points="4,16.5 8,18.5 17.3,13.8 9.3,13.8 	"/>
	<polygon fill="#2D3134" points="10,19.5 14,21.5 29.3,13.8 21.3,13.8 	"/>
	<polygon fill="#2D3134" points="22,25.5 26,27.5 43.3,18.8 35.3,18.8 	"/>
	<polygon fill="#2D3134" points="29.3,15.8 16,22.5 20,24.5 31.3,18.8 29.3,18.8 	"/>
</g>
</svg>
