<?xml version="1.0" encoding="utf-8"?>
<!-- Generator: Adobe Illustrator 18.1.0, SVG Export Plug-In . SVG Version: 6.00 Build 0)  -->
<svg version="1.1" id="Layer_1" xmlns="http://www.w3.org/2000/svg" xmlns:xlink="http://www.w3.org/1999/xlink" x="0px" y="0px"
	 viewBox="0 0 32 32" enable-background="new 0 0 32 32" xml:space="preserve">
<path fill-rule="evenodd" clip-rule="evenodd" fill="#2D3134" d="M25.4,2.5L25.4,2.5c-1.6-1.6-3.8-2.5-6-2.5h-6.9
	c-2.3,0-4.4,0.9-6,2.5C4.9,4.1,4,6.3,4,8.5V27c0,0.5,0.4,1,1,1h1v2.7C6,31.4,6.6,32,7.3,32h2.4c0.7,0,1.3-0.6,1.3-1.3V28h10v2.7
	c0,0.7,0.6,1.3,1.3,1.3h2.4c0.7,0,1.3-0.6,1.3-1.3V28h1c0.5,0,1-0.4,1-1V8.6C28,6.3,27.1,4.1,25.4,2.5z M11,2h10v2H11V2z M7.5,25
	C6.7,25,6,24.3,6,23.5S6.7,22,7.5,22S9,22.7,9,23.5S8.3,25,7.5,25z M20,25h-8v-1h8V25z M20,23h-8v-1h8V23z M7,15V7h18v8H7z M24.5,25
	c-0.8,0-1.5-0.7-1.5-1.5s0.7-1.5,1.5-1.5s1.5,0.7,1.5,1.5S25.3,25,24.5,25z"/>
</svg>
