<?xml version="1.0" encoding="utf-8"?>
<!-- Generator: Adobe Illustrator 18.1.0, SVG Export Plug-In . SVG Version: 6.00 Build 0)  -->
<svg version="1.1" id="Layer_1" xmlns="http://www.w3.org/2000/svg" xmlns:xlink="http://www.w3.org/1999/xlink" x="0px" y="0px"
	 viewBox="0 0 64 32" enable-background="new 0 0 64 32" xml:space="preserve">
<path fill-rule="evenodd" clip-rule="evenodd" fill="#2D3134" d="M48.9,22.5l-3.3-1.7c0.5-0.5,0.9-1,1.1-1.6c0.8-2-0.5-4.1-3.3-5.5
	l-6.8-3.4c-2.9-1.4-7-2.1-11-1.7c-1.1,0.1-2.2,0.3-3.2,0.6L19,7.5c-0.6-0.3-1.5-0.3-2.1,0c-0.5,0.2-0.6,0.6-0.2,0.9l1.4,1.3
	c-1.1,0.1-2.2,0.3-3.1,0.8l-5.8,2.9C8,14,8,15,9.2,15.6L10,16l-1.7,0.9c-0.7,0.4-0.7,0.9,0,1.3l2.4,1.2c0.7,0.4,1.9,0.4,2.6,0
	l1.7-0.9l12,6l-1.7,0.9c-0.7,0.4-0.7,0.9,0,1.3l2.4,1.2c0.7,0.4,1.9,0.4,2.6,0L32,27l0.8,0.4c1.2,0.6,3.1,0.6,4.3,0l5.8-2.9
	c0.9-0.4,1.4-1,1.6-1.6l2.6,0.7c0.6,0.2,1.3,0.1,1.8-0.1C49.5,23.3,49.5,22.8,48.9,22.5z M26.2,10c3.1-0.3,6.2,0.2,8.4,1.3l6.8,3.4
	c2.2,1.1,3.2,2.7,2.6,4.2c-0.2,0.5-0.6,1-1.1,1.5l-19.6-9.8C24.1,10.3,25.1,10.1,26.2,10z M18,15l-0.3-0.2c-1.1-0.5-1.8-1.2-2.2-2
	l-0.1-0.3c-0.1-0.3,0.6-0.5,1.1-0.3L20,14c0.6,0.3,0.6,0.7,0,1C19.4,15.3,18.5,15.3,18,15z M29,22.5l-10-5l2-1l10,5L29,22.5z
	 M39,24.3l-0.6-0.1c-1.5-0.2-2.9-0.5-4-1.1L34,23c-0.6-0.3-0.6-0.7,0-1c0.6-0.3,1.4-0.3,2,0l3.5,1.8C40,24,39.6,24.4,39,24.3z"/>
</svg>
