<?xml version="1.0" encoding="utf-8"?>
<!-- Generator: Adobe Illustrator 18.1.0, SVG Export Plug-In . SVG Version: 6.00 Build 0)  -->
<svg version="1.1" id="Layer_1" xmlns="http://www.w3.org/2000/svg" xmlns:xlink="http://www.w3.org/1999/xlink" x="0px" y="0px"
	 viewBox="0 0 64 32" enable-background="new 0 0 64 32" xml:space="preserve">
<g>
	<path fill-rule="evenodd" clip-rule="evenodd" fill="#2D3134" d="M55.4,17.7L28.6,4.3c-0.9-0.4-2.3-0.4-3.2,0L7.6,13.2
		c-0.9,0.4-0.9,1.2,0,1.6l26.8,13.4c0.9,0.4,2.3,0.4,3.2,0l17.8-8.9C56.3,18.9,56.3,18.1,55.4,17.7z M53,18.5L50,20L24,7l3-1.5
		L53,18.5z M10,14l9-4.5l26,13L36,27L10,14z"/>
	<polygon fill-rule="evenodd" clip-rule="evenodd" fill="#2D3134" points="27,18.5 38,24 40,23 29,17.5 	"/>
</g>
</svg>
