<?xml version="1.0" encoding="utf-8"?>
<!-- Generator: Adobe Illustrator 18.1.0, SVG Export Plug-In . SVG Version: 6.00 Build 0)  -->
<svg version="1.1" id="Layer_1" xmlns="http://www.w3.org/2000/svg" xmlns:xlink="http://www.w3.org/1999/xlink" x="0px" y="0px"
	 viewBox="0 0 32 56" enable-background="new 0 0 32 56" xml:space="preserve">
<path fill="#2D3134" d="M22,19C22,19,22,19,22,19c-0.6-0.3-1.2-0.8-1.6-1.4l-0.7-1.1c-0.4-0.6-1-1.1-1.6-1.4L18,15l-6-3v-1
	c0-0.6-0.4-1.2-1-1.5s-1-0.1-1,0.5v30c0,0.6,0.4,1.2,1,1.5s1,0.1,1-0.5V24l6,3l0.1,0c0.6,0.3,1.2,0.8,1.6,1.4l0.7,1.1
	c0.4,0.6,1,1.1,1.6,1.4c0,0,0,0,0,0l7,3.5v-12L22,19z"/>
</svg>
