<?xml version="1.0" encoding="utf-8"?>
<!-- Generator: Adobe Illustrator 18.1.0, SVG Export Plug-In . SVG Version: 6.00 Build 0)  -->
<svg version="1.1" id="Layer_1" xmlns="http://www.w3.org/2000/svg" xmlns:xlink="http://www.w3.org/1999/xlink" x="0px" y="0px"
	 viewBox="0 0 32 56" enable-background="new 0 0 32 56" xml:space="preserve">
<path fill-rule="evenodd" clip-rule="evenodd" fill="#2D3134" d="M31,10.5v-2c0-0.6-0.4-0.8-1-0.5c-0.6,0.3-1,0.9-1,1.5v2l-2,1v-2
	c0-0.6-0.4-0.8-1-0.5c-0.6,0.3-1,0.9-1,1.5v2L24,14v2c0,1.9,1.3,2.8,3,2.4v13.1c0,0.6-0.4,1.2-1,1.5s-1,0.1-1-0.5v-4
	c0-1.7-1.3-2.3-3-1.5l-1,0.5V11c0-0.8-0.7-1.2-1.5-0.8l-14,7C4.7,17.7,4,18.7,4,19.5V47l-0.5,0.2C2.7,47.7,2,48.7,2,49.5
	s0.7,1.2,1.5,0.8L4,50l17-8.5l0.4-0.2c0.8-0.4,1.5-1.4,1.5-2.2s-0.7-1.2-1.5-0.8L21,38.5v-9l1-0.5c0.6-0.3,1-0.1,1,0.5v4
	c0,1.7,1.3,2.3,3,1.5c1.7-0.8,3-2.8,3-4.5V17.4c1.7-1.3,3-3.5,3-5.4v-2L31,10.5z M9,43.5l3-7.5l-4,2l8-12l-3,7.5l4-2L9,43.5z M18,23
	L7,28.5v-9L18,14V23z"/>
</svg>
