<?xml version="1.0" encoding="utf-8"?>
<!-- Generator: Adobe Illustrator 18.1.0, SVG Export Plug-In . SVG Version: 6.00 Build 0)  -->
<svg version="1.1" id="Layer_1" xmlns="http://www.w3.org/2000/svg" xmlns:xlink="http://www.w3.org/1999/xlink" x="0px" y="0px"
	 viewBox="0 0 32 32" enable-background="new 0 0 32 32" xml:space="preserve">
<g>
	<circle fill-rule="evenodd" clip-rule="evenodd" fill="#2D3134" cx="16.5" cy="2.5" r="2.5"/>
	<path fill-rule="evenodd" clip-rule="evenodd" fill="#2D3134" d="M24.7,17.1l-3.3-9.8c-0.3-0.8-1-1.3-1.8-1.3h-6.3
		c-0.8,0-1.5,0.5-1.8,1.3l-3.3,9.8c-0.2,0.5,0.1,1.1,0.6,1.3c0.6,0.3,1.3,0,1.5-0.6L13,10h1l-4,12h3v8.9c0,0.6,0.5,1.1,1.1,1.1h0.8
		c0.6,0,1.1-0.5,1.1-1.1V22h1v8.9c0,0.6,0.5,1.1,1.1,1.1h0.8c0.6,0,1.1-0.5,1.1-1.1V22h3l-4-12h1l2.6,7.8c0.2,0.6,0.9,0.9,1.5,0.6
		C24.6,18.2,24.9,17.6,24.7,17.1z"/>
</g>
</svg>
