<?xml version="1.0" encoding="utf-8"?>
<!-- Generator: Adobe Illustrator 18.1.0, SVG Export Plug-In . SVG Version: 6.00 Build 0)  -->
<svg version="1.1" id="Layer_1" xmlns="http://www.w3.org/2000/svg" xmlns:xlink="http://www.w3.org/1999/xlink" x="0px" y="0px"
	 viewBox="0 0 64 32" enable-background="new 0 0 64 32" xml:space="preserve">
<g>
	<path fill-rule="evenodd" clip-rule="evenodd" fill="#2D3134" d="M26,20L26,20c-2.8-1.4-2.8-3.6,0-5l4-2c2.8-1.4,7.2-1.4,10,0l0,0
		l8-4l0,0c-7.2-3.6-18.8-3.6-26,0l-4,2c-7.2,3.6-7.2,9.4,0,13l0,0L26,20z"/>
	<path fill-rule="evenodd" clip-rule="evenodd" fill="#2D3134" d="M19,24.5l4.5,2.3c0.8,0.4,2.1,0.4,2.9,0l5.1-2.5
		c0.8-0.4,0.8-1.1,0-1.5L27,20.5L19,24.5z"/>
	<path fill-rule="evenodd" clip-rule="evenodd" fill="#2D3134" d="M49,9.5l-8,4l4.5,2.3c0.8,0.4,2.1,0.4,2.9,0l5.1-2.5
		c0.8-0.4,0.8-1.1,0-1.5L49,9.5z"/>
</g>
</svg>
