<?xml version="1.0" encoding="utf-8"?>
<!-- Generator: Adobe Illustrator 18.1.0, SVG Export Plug-In . SVG Version: 6.00 Build 0)  -->
<svg version="1.1" id="Layer_1" xmlns="http://www.w3.org/2000/svg" xmlns:xlink="http://www.w3.org/1999/xlink" x="0px" y="0px"
	 viewBox="0 0 32 56" enable-background="new 0 0 32 56" xml:space="preserve">
<path fill-rule="evenodd" clip-rule="evenodd" fill="#2D3134" d="M23,25.5l-4-5v-1l-2-1v-2.7c0-0.7,0.6-1,1.3-0.7L30,21v-2l-11.9-6
	c-1.7-0.8-3.1-0.2-3.1,1.5v2.9l-2-1v1l-4,1v2l14,7V25.5z M25,32c0-0.8-0.7-1.8-1.5-2.2S22,29.7,22,30.5s0.7,1.8,1.5,2.2
	S25,32.8,25,32z M20,29.5c0-0.8-0.7-1.8-1.5-2.2C17.7,26.8,17,27.2,17,28s0.7,1.8,1.5,2.2C19.3,30.7,20,30.3,20,29.5z M13.5,24.8
	c-0.8-0.4-1.5-0.1-1.5,0.8s0.7,1.8,1.5,2.2c0.8,0.4,1.5,0.1,1.5-0.8S14.3,25.2,13.5,24.8z M10,24.5c0-0.8-0.7-1.8-1.5-2.2
	S7,22.2,7,23s0.7,1.8,1.5,2.2S10,25.3,10,24.5z M27,38c0-0.8-0.7-1.8-1.5-2.2S24,35.7,24,36.5s0.7,1.8,1.5,2.2S27,38.8,27,38z
	 M21,35c0-0.8-0.7-1.8-1.5-2.2S18,32.7,18,33.5s0.7,1.8,1.5,2.2S21,35.8,21,35z M12.5,29.3C11.7,28.8,11,29.2,11,30s0.7,1.8,1.5,2.2
	s1.5,0.1,1.5-0.8S13.3,29.7,12.5,29.3z M6.5,26.3C5.7,25.8,5,26.2,5,27s0.7,1.8,1.5,2.2S8,29.3,8,28.5S7.3,26.7,6.5,26.3z M29,44
	c0-0.8-0.7-1.8-1.5-2.2S26,41.7,26,42.5s0.7,1.8,1.5,2.2S29,44.8,29,44z M22,40.5c0-0.8-0.7-1.8-1.5-2.2S19,38.2,19,39
	s0.7,1.8,1.5,2.2S22,41.3,22,40.5z M11.5,33.8c-0.8-0.4-1.5-0.1-1.5,0.8s0.7,1.8,1.5,2.2S13,36.8,13,36S12.3,34.2,11.5,33.8z
	 M4.5,30.3C3.7,29.8,3,30.2,3,31s0.7,1.8,1.5,2.2S6,33.3,6,32.5S5.3,30.7,4.5,30.3z M29.5,47.7c-0.8-0.4-1.5-0.1-1.5,0.8
	s0.7,1.8,1.5,2.2S31,50.8,31,50S30.3,48.2,29.5,47.7z M21.5,43.7c-0.8-0.4-1.5-0.1-1.5,0.8s0.7,1.8,1.5,2.2S23,46.8,23,46
	S22.3,44.2,21.5,43.7z M10.5,38.3C9.7,37.8,9,38.2,9,39s0.7,1.8,1.5,2.2s1.5,0.1,1.5-0.8S11.3,38.7,10.5,38.3z M2.5,34.3
	C1.7,33.8,1,34.2,1,35s0.7,1.8,1.5,2.2S4,37.3,4,36.5S3.3,34.7,2.5,34.3z"/>
</svg>
