<?xml version="1.0" encoding="utf-8"?>
<!-- Generator: Adobe Illustrator 18.1.0, SVG Export Plug-In . SVG Version: 6.00 Build 0)  -->
<svg version="1.1" id="Layer_1" xmlns="http://www.w3.org/2000/svg" xmlns:xlink="http://www.w3.org/1999/xlink" x="0px" y="0px"
	 viewBox="0 0 32 56" enable-background="new 0 0 32 56" xml:space="preserve">
<g>
	<path fill="#2D3134" d="M6.1,25.9l5,2.5c0.8-1.6,2.6-2.2,4.8-1.3c1.2-1.9,3.8-2.4,6.7-0.9c2,1,3.9,2.7,5.2,4.8
		c-0.1-3.1-2.6-6.8-5.7-8.3c-0.4-0.2-0.7-0.3-1-0.4c-0.8-3.9-3.9-8.2-7.7-10c-3.1-1.5-5.7-1.1-7,0.9C2.9,11.3,0,12.7,0,16.3
		C0,19.8,2.7,24,6.1,25.9L6.1,25.9z"/>
	<path fill="#2D3134" d="M27.5,33.6c-0.9-2.2-2.7-4.4-4.9-5.4c-2.6-1.3-4.8-0.6-5.3,1.6c-0.2-0.2-0.5-0.3-0.7-0.4
		c-2.2-1.1-3.9-0.2-3.9,2c0,2.2,1.8,4.8,3.9,5.9l11.2,5.6v0c2.4,1,4.2,0,4.2-2.4C32,37.9,30,34.9,27.5,33.6z"/>
	<path fill="#2D3134" d="M4.7,30.1c0,0.9,0.7,2,1.7,2.5C7.3,33,8,32.6,8,31.7c0-0.9,0-3.3,0-3.3S4.7,28.3,4.7,30.1z"/>
	<path fill="#2D3134" d="M24.2,45.8c0,0.9,0.7,2,1.7,2.5c0.9,0.5,1.7,0.1,1.7-0.8c0-0.9,0-3.3,0-3.3S24.2,44.1,24.2,45.8z"/>
	<path fill="#2D3134" d="M16.7,42.1c0,0.9,0.7,2,1.7,2.5c0.9,0.5,1.7,0.1,1.7-0.8c0-0.9,0-3.3,0-3.3S16.7,40.3,16.7,42.1z"/>
	<path fill="#2D3134" d="M9.2,38.3c0,0.9,0.7,2,1.7,2.5c0.9,0.5,1.7,0.1,1.7-0.8s0-3.3,0-3.3S9.2,36.6,9.2,38.3z"/>
</g>
</svg>
