<?xml version="1.0" encoding="utf-8"?>
<!-- Generator: Adobe Illustrator 18.1.0, SVG Export Plug-In . SVG Version: 6.00 Build 0)  -->
<svg version="1.1" id="Layer_1" xmlns="http://www.w3.org/2000/svg" xmlns:xlink="http://www.w3.org/1999/xlink" x="0px" y="0px"
	 viewBox="0 0 32 56" enable-background="new 0 0 32 56" xml:space="preserve">
<path fill="#2D3134" d="M17.5,23.7l9-4.5v2.5l3.9,4.8c1.3,1.6,0.4,3.3-1.2,2.2L26,26.4l-5,7v9.5c0,0.8-0.7,1.2-1.5,0.8h0
	c-0.8-0.4-1.5-1.4-1.5-2.2v-8.5l-6-3l-1,1.5l2.9,7c0.4,1,0.1,1.9-0.7,1.9h0c-0.8,0-1.8-0.8-2.2-1.9l-3-7.6v-3l-3,1v6
	c0,0.8-0.7,1.2-1.5,0.8l0,0C2.7,35.3,2,34.2,2,33.4v-6l2-2.5v-6l-0.7-0.3C2.6,18.2,2,18.5,2,19.2v1.9c0,1.2-0.5,2-1.3,2.5L0,23.9v-6
	c0-1.7,1.4-2.4,3-1.5L17.5,23.7z"/>
</svg>
