<?xml version="1.0" encoding="utf-8"?>
<!-- Generator: Adobe Illustrator 18.1.0, SVG Export Plug-In . SVG Version: 6.00 Build 0)  -->
<svg version="1.1" id="Layer_1" xmlns="http://www.w3.org/2000/svg" xmlns:xlink="http://www.w3.org/1999/xlink" x="0px" y="0px"
	 viewBox="0 0 64 32" enable-background="new 0 0 64 32" xml:space="preserve">
<path fill="#2D3134" d="M51.5,20.8c0.3,0.1,0.7,0.1,1,0l0.5-0.3l1,0.5l1-0.5L47.6,8.9c-0.2-0.3-0.8-0.6-1.5-0.7L23,4.5L22,5l1,0.5
	l-0.5,0.3c-0.3,0.1-0.3,0.4,0,0.5L23,6.5l-16,8l-0.5-0.3c-0.3-0.1-0.7-0.1-1,0L4,15l-0.5-0.3c-0.3-0.1-0.7-0.1-1,0l-1,0.5
	c-0.3,0.1-0.3,0.4,0,0.5l31,15.5c0.3,0.1,0.7,0.1,1,0l1-0.5c0.3-0.1,0.3-0.4,0-0.5L34,30l1.5-0.8c0.3-0.1,0.3-0.4,0-0.5L35,28.5
	l16-8L51.5,20.8z M39,13.5l-0.5,0.3c-0.3,0.1-0.3,0.4,0,0.5l0.5,0.3l-16,8l-4-2l16-8l0.5,0.3c0.3,0.1,0.7,0.1,1,0l0.5-0.3L39,13.5z
	 M27,8.5l0.5,0.3c0.3,0.1,0.7,0.1,1,0L29,8.5l2,1l-0.5,0.3c-0.3,0.1-0.3,0.4,0,0.5l0.5,0.3l-16,8l-4-2L27,8.5z M27,24.5l16-8
	l0.5,0.3c0.3,0.1,0.7,0.1,1,0l0.5-0.3l2,1l-0.5,0.3c-0.3,0.1-0.3,0.4,0,0.5l0.5,0.3l-16,8L27,24.5z"/>
</svg>
