<?xml version="1.0" encoding="utf-8"?>
<!-- Generator: Adobe Illustrator 18.1.0, SVG Export Plug-In . SVG Version: 6.00 Build 0)  -->
<svg version="1.1" id="Layer_1" xmlns="http://www.w3.org/2000/svg" xmlns:xlink="http://www.w3.org/1999/xlink" x="0px" y="0px"
	 viewBox="0 0 32 32" enable-background="new 0 0 32 32" xml:space="preserve">
<path fill="#2D3134" d="M29,10.6c0,0,0-0.1,0-0.1c0-3-2.3-5.4-5.3-5.5c-1.5-1.9-3.8-3-6.2-3c-1.7,0-3.3,0.5-4.7,1.5
	c-0.1,0-0.2-0.1-0.3-0.1c0,0-0.1,0-0.1-0.1v0C11.8,3.1,11.2,3,10.5,3C8.8,3,7.3,3.8,6.3,5C2.8,5.2,0,8,0,11.5C0,12.8,0.4,14,1,15
	c0,0.2,0,0.3,0,0.5c0,3.3,2.4,6,5.6,6.4c0.9,1.9,2.8,3.1,4.9,3.1c2.1,0,4-1.2,4.9-3c0.3,0,0.5,0.1,0.8,0c0.2,0.9,0.5,1.7,1,2.5l0,0
	c0,0,0,0.1,0.1,0.1l4,5c0.2,0.2,0.5,0.4,0.8,0.4c0.2,0,0.4-0.1,0.6-0.2c0.4-0.3,0.5-1,0.2-1.4l-3.9-4.9c-0.5-0.9-0.7-1.5-0.8-2.7
	l-0.1-1.2l-1.2,0.3c-0.7,0.2-1.1,0.2-1.7,0l-1-0.3l-0.3,1C14.4,22,13,23,11.5,23c-1.5,0-2.8-0.9-3.3-2.3l0-0.1l0,0
	c-0.1-0.3-0.2-0.7-0.2-1c0-1.9,1.6-3.5,3.5-3.5c0.5,0,1,0.1,1.4,0.3l0.9,0.4l0.4-0.9c0.5-1.1,1.6-1.8,2.7-1.8c1.1,0,2.1,0.6,2.6,1.5
	c0.3,0.5,0.9,0.6,1.4,0.4c0.5-0.3,0.6-0.9,0.4-1.4C20.4,13,18.8,12,17,12c-1.7,0-3.2,0.8-4.1,2.2C12.4,14.1,12,14,11.5,14
	c-3,0-5.5,2.5-5.5,5.5c0,0.1,0,0.1,0,0.2c-1.8-0.6-3-2.3-3-4.2c0-1.3,0.6-2.6,1.6-3.5c0.4-0.4,0.5-1,0.1-1.4c-0.4-0.4-1-0.5-1.4-0.1
	c-0.5,0.4-1,0.9-1.3,1.5c0-0.2,0-0.3,0-0.5C2,9,4,7,6.6,7c0,0,0,0,0,0l0.2,0c0.4,0.2,0.8,0.5,1.1,0.8C8,8,8.3,8.2,8.5,8.2
	c0.2,0,0.4-0.1,0.5-0.2c0.4-0.3,0.4-0.8,0.1-1.2c-0.3-0.3-0.6-0.6-1-0.9C8.8,5.3,9.6,5,10.5,5c0.7,0,1.3,0.2,1.9,0.6l0.1,0.1
	C13.4,6.3,14,7.3,14,8.5c0,0.6,0.4,1,1,1s1-0.4,1-1c0-1.4-0.6-2.7-1.5-3.7c0.9-0.5,1.9-0.8,3-0.8c1.9,0,3.6,0.9,4.7,2.3
	c0.8,1,1.3,2.3,1.3,3.7c0,0.8-0.1,1.5-0.4,2.2c-0.2,0.5,0,1.1,0.6,1.3c0.1,0,0.2,0.1,0.4,0.1c0.4,0,0.8-0.2,0.9-0.6
	c0.4-0.9,0.6-1.9,0.6-3c0-0.9-0.2-1.8-0.4-2.6C26.2,8,27,9.2,27,10.5c0,0.2,0,0.4-0.1,0.6L26.8,12l0.8,0.3C29,12.7,30,14,30,15.5
	c0,1.5-0.9,2.8-2.3,3.3c-0.2-0.5-0.4-0.9-0.6-1.3c-0.3-0.5-0.9-0.6-1.4-0.3c-0.5,0.3-0.6,0.9-0.3,1.4c0.3,0.4,0.4,0.8,0.5,1.2
	l0.1,0.4c0,0.1,0,0.2,0,0.3c0,1-0.4,1.9-1.1,2.5c0,0-0.1,0-0.1,0c-0.5,0.1-0.9,0.6-0.8,1.2l1,5c0.1,0.5,0.5,0.8,1,0.8
	c0.1,0,0.1,0,0.2,0c0.5-0.1,0.9-0.6,0.8-1.2l-0.8-4.2c1.1-1,1.8-2.4,1.9-3.8c2.3-0.7,4-2.8,4-5.3C32,13.4,30.8,11.6,29,10.6z"/>
</svg>
