<?xml version="1.0" encoding="utf-8"?>
<!-- Generator: Adobe Illustrator 18.1.0, SVG Export Plug-In . SVG Version: 6.00 Build 0)  -->
<svg version="1.1" id="Layer_1" xmlns="http://www.w3.org/2000/svg" xmlns:xlink="http://www.w3.org/1999/xlink" x="0px" y="0px"
	 viewBox="0 0 64 32" enable-background="new 0 0 64 32" xml:space="preserve">
<g>
	<path fill-rule="evenodd" clip-rule="evenodd" fill="#2D3134" d="M39,12.5c2.2,1.1,5.8,1.1,8,0c2.2-1.1,2.2-2.9,0-4s-5.8-1.1-8,0
		C36.8,9.6,36.8,11.4,39,12.5z"/>
	<path fill-rule="evenodd" clip-rule="evenodd" fill="#2D3134" d="M42,21.3l0-5.9c0-0.3-0.2-0.5-0.6-0.7l-6.8-3.4
		c-0.4-0.2-0.9-0.3-1.4-0.3H21.4c-0.9,0-1.7,0.4-1.7,0.9c0,0.5,0.8,0.9,1.7,0.9h9.2L25,15.5l8,4l5.6-2.8v4.6c0,0.5,0.8,0.9,1.7,0.9
		C41.2,22.2,42,21.8,42,21.3z"/>
	<path fill-rule="evenodd" clip-rule="evenodd" fill="#2D3134" d="M31,20.5h-4.9l0,3.2l-5.4,0c-1,0-1.8,0.4-1.8,0.9
		c0,0.5,0.8,0.9,1.8,0.9l8.4,0c1,0,1.8-0.4,1.8-0.9V20.5z"/>
	<path fill-rule="evenodd" clip-rule="evenodd" fill="#2D3134" d="M23,16.5h-8.1c-1,0-1.8,0.4-1.8,0.9l0,4.2c0,0.5,0.8,0.9,1.8,0.9
		c1,0,1.8-0.4,1.8-0.9l0-2.7l6.3,0V16.5z"/>
</g>
</svg>
