<?xml version="1.0" encoding="utf-8"?>
<!-- Generator: Adobe Illustrator 18.1.0, SVG Export Plug-In . SVG Version: 6.00 Build 0)  -->
<svg version="1.1" id="Layer_1" xmlns="http://www.w3.org/2000/svg" xmlns:xlink="http://www.w3.org/1999/xlink" x="0px" y="0px"
	 viewBox="0 0 64 32" enable-background="new 0 0 64 32" xml:space="preserve">
<g>
	<path fill="#2D3134" d="M56.2,12.1L39.8,3.9c-1.6-0.8-4.1-0.8-5.6,0L30,6l22,11l4.2-2.1C57.7,14.1,57.7,12.9,56.2,12.1z M46.5,12.3
		c-0.8-0.4-0.8-1.1,0-1.5c0.8-0.4,2.2-0.4,3,0c0.8,0.4,0.8,1.1,0,1.5C48.7,12.7,47.3,12.7,46.5,12.3z M50.5,14.3
		c-0.8-0.4-0.8-1.1,0-1.5c0.8-0.4,2.2-0.4,3,0c0.8,0.4,0.8,1.1,0,1.5C52.7,14.7,51.3,14.7,50.5,14.3z"/>
	<path fill="#2D3134" d="M6.4,17.8c-0.8,0.4-0.8,1,0,1.4l19.3,9.6c0.8,0.4,2,0.4,2.8,0L51,17.5l-22-11L6.4,17.8z M36,14
		c4.4,2.2,4.4,5.8,0,8s-11.6,2.2-16,0s-4.4-5.8,0-8S31.6,11.8,36,14z"/>
	<path fill="#2D3134" d="M21,21.5c3.8,1.9,9.9,1.9,13.8,0.1c-0.2-0.2-0.5-0.4-0.8-0.6c-1.7-0.8-4.3-0.8-6,0c1.7-0.8,1.7-2.2,0-3
		s-4.3-0.8-6,0c1.7-0.8,1.7-2.2,0-3c-0.3-0.2-0.8-0.3-1.2-0.4C17.2,16.5,17.2,19.6,21,21.5z"/>
</g>
</svg>
