<?xml version="1.0" encoding="utf-8"?>
<!-- Generator: Adobe Illustrator 18.1.0, SVG Export Plug-In . SVG Version: 6.00 Build 0)  -->
<svg version="1.1" id="Layer_1" xmlns="http://www.w3.org/2000/svg" xmlns:xlink="http://www.w3.org/1999/xlink" x="0px" y="0px"
	 viewBox="0 0 64 32" enable-background="new 0 0 64 32" xml:space="preserve">
<path fill-rule="evenodd" clip-rule="evenodd" fill="#2D3134" d="M37.4,4.3c2.2,0.8,5.2,2,8.9,3.8c3.8,1.9,5.7,3.7,5.9,5.4
	c0.3,1.6-1.1,3.4-4,4.9c-3,1.5-6.3,2.3-9.5,2.3c-4.2,0-8.4-1-12-2.8c-0.8-0.4-1.5-0.8-2-1.2L14,22l-6-3L37.4,4.3z M30,14
	c0.4,0.3,0.9,0.8,1.8,1.2c3.3,1.6,7.1,1.7,10.1,0.2c2.7-1.4,2.7-3-0.4-4.6c-1.2-0.6-2.1-1.1-2.7-1.3L30,14z"/>
</svg>
