<?xml version="1.0" encoding="utf-8"?>
<!-- Generator: Adobe Illustrator 18.1.0, SVG Export Plug-In . SVG Version: 6.00 Build 0)  -->
<svg version="1.1" id="Layer_1" xmlns="http://www.w3.org/2000/svg" xmlns:xlink="http://www.w3.org/1999/xlink" x="0px" y="0px"
	 viewBox="0 0 32 56" enable-background="new 0 0 32 56" xml:space="preserve">
<path fill="#2D3134" d="M23.9,25.2c-0.1-0.2-0.2-0.3-0.4-0.4l-3.8-1.9l2.3-5.2c0.1-0.1,0-0.3-0.1-0.5c-0.1-0.2-0.2-0.3-0.4-0.4
	L17,14.5v-1l0.5,0.2c0.3,0.1,0.5,0,0.5-0.3c0-0.3-0.2-0.6-0.5-0.7l-3-1.5c-0.3-0.1-0.5,0-0.5,0.3c0,0.3,0.2,0.6,0.5,0.7l0.5,0.2v1
	l-4.5-2.2c-0.2-0.1-0.3-0.1-0.4,0S10,11.5,10,11.7l2.3,7.5l-3.8-1.9c-0.2-0.1-0.3-0.1-0.4,0C8,17.3,8,17.5,8,17.7l2.2,7.1
	c0.3,0.9,1,1.8,1.8,2.2v14.5c0,0.3,0.2,0.6,0.5,0.7l7,3.5c0.3,0.1,0.5,0,0.5-0.3V31l0,0c0.8,0.4,1.5,0.3,1.8-0.4l2.2-5
	C24,25.5,24,25.3,23.9,25.2z M12.9,14.7c0.1-0.1,0.2-0.1,0.4,0l5.3,2.7c0.2,0.1,0.3,0.2,0.4,0.4c0.1,0.2,0.1,0.4,0.1,0.5l-1.1,2.5
	c-0.1,0.2-0.3,0.2-0.5,0.1l-3.2-1.6c-0.2-0.1-0.4-0.3-0.5-0.6l-1.1-3.5C12.8,14.9,12.8,14.8,12.9,14.7z M12.4,25.2
	c-0.2-0.1-0.4-0.3-0.5-0.6l-1.1-3.5c-0.1-0.2,0-0.3,0.1-0.4c0.1-0.1,0.2-0.1,0.4,0l3.7,1.8v4L12.4,25.2z M21.1,26.2l-1.1,2.5
	c-0.1,0.2-0.3,0.2-0.5,0.1L17,27.5v-4l3.7,1.8c0.2,0.1,0.3,0.2,0.4,0.4C21.2,25.9,21.2,26.1,21.1,26.2z"/>
</svg>
