<?xml version="1.0" encoding="utf-8"?>
<!-- Generator: Adobe Illustrator 18.1.0, SVG Export Plug-In . SVG Version: 6.00 Build 0)  -->
<svg version="1.1" id="Layer_1" xmlns="http://www.w3.org/2000/svg" xmlns:xlink="http://www.w3.org/1999/xlink" x="0px" y="0px"
	 viewBox="0 0 32 56" enable-background="new 0 0 32 56" xml:space="preserve">
<g>
	<path fill="#2D3134" d="M4,6v32l24,12V18L4,6z M26,47L6,37V9l20,10V47z"/>
	<polygon fill="#2D3134" points="16,17 8,13 8,15 16,19 	"/>
	<polygon fill="#2D3134" points="24,25 8,17 8,19 24,27 	"/>
	<polygon fill="#2D3134" points="24,29 8,21 8,23 24,31 	"/>
	<polygon fill="#2D3134" points="24,33 8,25 8,27 24,35 	"/>
	<polygon fill="#2D3134" points="24,37 8,29 8,31 24,39 	"/>
	<polygon fill="#2D3134" points="24,41 8,33 8,35 24,43 	"/>
</g>
</svg>
