<?xml version="1.0" encoding="utf-8"?>
<!-- Generator: Adobe Illustrator 18.1.0, SVG Export Plug-In . SVG Version: 6.00 Build 0)  -->
<svg version="1.1" id="Layer_1" xmlns="http://www.w3.org/2000/svg" xmlns:xlink="http://www.w3.org/1999/xlink" x="0px" y="0px"
	 viewBox="0 0 32 56" enable-background="new 0 0 32 56" xml:space="preserve">
<g>
	<path fill-rule="evenodd" clip-rule="evenodd" fill="#2D3134" d="M14,17c1.7,0.8,3,0.2,3-1.5s-1.3-3.7-3-4.5c-1.7-0.8-3-0.2-3,1.5
		S12.3,16.2,14,17z"/>
	<path fill-rule="evenodd" clip-rule="evenodd" fill="#2D3134" d="M30.2,45.5l-4.8-12c-0.3-0.6-0.8-1.2-1.3-1.5L17,28.5v-3l4.5,2.2
		c0.8,0.4,1.5,0.1,1.5-0.8s-0.7-1.8-1.5-2.2L17,22.5V21c0-0.8-0.7-1.8-1.5-2.2L11,16.5V28c0,0.8,0.7,1.8,1.5,2.2L23,35.5l4,10
		c0.5,1.2,1.7,2.1,2.6,2C30.3,47.4,30.6,46.5,30.2,45.5z"/>
	<path fill-rule="evenodd" clip-rule="evenodd" fill="#2D3134" d="M14.5,41.2C9.8,38.9,6,33.2,6,28.5c0-3.1,1.6-4.9,4-5.2v-2.2
		c-3.6-0.1-6,2.3-6,6.5c0,5.8,4.7,12.8,10.5,15.7c4.6,2.3,8.5,1.3,9.9-2.1L23,37.6C22.7,41.8,19,43.5,14.5,41.2z"/>
</g>
</svg>
