<?xml version="1.0" encoding="utf-8"?>
<!-- Generator: Adobe Illustrator 18.1.0, SVG Export Plug-In . SVG Version: 6.00 Build 0)  -->
<svg version="1.1" id="Layer_1" xmlns="http://www.w3.org/2000/svg" xmlns:xlink="http://www.w3.org/1999/xlink" x="0px" y="0px"
	 viewBox="0 0 32 56" enable-background="new 0 0 32 56" xml:space="preserve">
<g>
	<path fill="#2D3134" d="M9,8.5l0,9l2,1v-7L28,20v13l-4.6-2.3l-2.5-5c0,0,0-0.1-0.1-0.1c-0.6-1.6-2.5-3-3.7-3.4
		c-1.3-0.5-10.1-3.5-10.1-3.5C6.5,18.4,6,18.7,6,19.3c0,0.6,0.5,1.4,1.1,1.7l8.1,2.9l-3.5,1.7c-0.3,0.1-0.5,0.4-0.6,0.6l-2.8,5.2
		l-6.5,0.3c-0.7,0-1,0.8-0.6,1.8c0.4,0.9,1.3,1.7,2.1,1.6l6.9-0.3c0.1,0,0.2,0,0.3-0.1c0.2-0.1,0.4-0.2,0.5-0.4l2.3-3.5l3.7,5.2
		l0,6.9c0,0.8,0.6,1.8,1.5,2.2c0.7,0.4,1.4-0.1,1.4-0.7v-7.6c0-0.4-0.2-0.9-0.5-1.3L16,30.4l4.3-2.2l1.6,3.3
		c0.2,0.3,0.4,0.6,0.7,0.8c0,0,0.1,0,0.1,0.1c0,0,0,0,0,0c0,0,0.1,0.1,0.1,0.1L28,35l0,15l2,1V19L9,8.5z"/>
	<path fill="#2D3134" d="M25.1,23.9c0-1.5-1.2-3.3-2.7-4.1c-1.5-0.8-2.7-0.1-2.7,1.4c0,1.5,1.2,3.3,2.7,4.1
		C23.8,26,25.1,25.4,25.1,23.9z"/>
</g>
</svg>
