<?xml version="1.0" encoding="utf-8"?>
<!-- Generator: Adobe Illustrator 18.1.0, SVG Export Plug-In . SVG Version: 6.00 Build 0)  -->
<svg version="1.1" id="Layer_1" xmlns="http://www.w3.org/2000/svg" xmlns:xlink="http://www.w3.org/1999/xlink" x="0px" y="0px"
	 viewBox="0 0 32 56" enable-background="new 0 0 32 56" xml:space="preserve">
<g>
	<path fill="#2D3134" d="M28.5,42.5l3.5,1.7c-1.1,1.7-2.7,2.6-5,2.7c-2.6,0.1-5.7-0.7-9.4-2.6c-3.6-1.8-6.7-3.9-9.3-6.4
		s-4.5-5.3-5.8-8.3S0.6,23.8,0.6,21c0-3,0.7-5.5,2.2-7.4s3.4-2.9,5.9-3s5.4,0.7,8.6,2.3c2.7,1.4,5.2,3.1,7.3,5.2s3.7,4.4,4.9,7
		s1.7,4.9,1.7,7.3c0,2.8-0.9,4.8-2.6,6.2c-2.1,1.8-4.9,1.8-8.2,0.1c-0.9-0.4-1.6-0.9-2-1.5s-0.8-1.2-0.9-1.8
		C16.2,36,14.7,35.9,13,35c-1.8-0.9-3.3-2.3-4.5-4.1c-1.2-1.8-1.8-3.8-1.8-5.8c0-2.5,0.7-4.5,2.1-5.9c1.7-1.7,4-1.9,6.7-0.5
		c1.9,1,3.4,2.4,4.3,4.3l0.4-1.6l4.3,2.1L22.1,34c-0.2,0.7-0.2,1.1-0.2,1.3c0,0.3,0.1,0.5,0.2,0.7s0.3,0.3,0.4,0.4
		c0.5,0.3,1.2,0.3,2,0.1c1.1-0.3,2-0.9,2.7-2c0.7-1,1-2.3,1-3.8c0-2.7-1-5.4-2.9-8.1s-4.6-5-8.1-6.7c-2.9-1.5-5.4-2.1-7.5-1.9
		c-2,0.2-3.6,1.1-4.6,2.7s-1.6,3.7-1.6,6c0,2.3,0.6,4.7,1.7,7.1s2.8,4.6,4.9,6.5c2.1,1.9,4.5,3.5,7.2,4.9c2.6,1.3,4.8,2,6.7,2.3
		C25.9,43.7,27.4,43.3,28.5,42.5z M11,27c0,1.4,0.3,2.5,0.8,3.5c0.6,0.9,1.2,1.6,2.1,2c0.6,0.3,1.2,0.4,1.7,0.4
		c0.4,0,0.8-0.1,1.2-0.4c0.6-0.4,1.1-1.1,1.5-2.2c0.4-1.1,0.6-2.1,0.6-3.2c0-1.2-0.3-2.3-0.9-3.2c-0.6-0.9-1.3-1.6-2.2-2.1
		c-0.9-0.5-1.8-0.5-2.6-0.2c-0.8,0.3-1.4,1.1-1.8,2.2C11.2,24.9,11,26,11,27z"/>
</g>
</svg>
