<?xml version="1.0" encoding="utf-8"?>
<!-- Generator: Adobe Illustrator 18.1.0, SVG Export Plug-In . SVG Version: 6.00 Build 0)  -->
<svg version="1.1" id="Layer_1" xmlns="http://www.w3.org/2000/svg" xmlns:xlink="http://www.w3.org/1999/xlink" x="0px" y="0px"
	 viewBox="0 0 64 32" enable-background="new 0 0 64 32" xml:space="preserve">
<g>
	<path fill="#2D3134" d="M50.9,22.5c0.1-0.1,0.1-0.2,0-0.3l-7.8-11.6c-0.1-0.1-0.2-0.2-0.4-0.2L29.6,8.2L31,7.5l0.5,0.3
		c0.3,0.1,0.7,0.1,1,0l2-1c0.3-0.1,0.3-0.4,0-0.5l-5-2.5c-0.3-0.1-0.7-0.1-1,0l-2,1c-0.3,0.1-0.3,0.4,0,0.5L27,5.5l-3.4,1.7
		l-4.1-0.7c-0.2,0-0.4,0-0.5,0c-0.2,0-0.3,0.1-0.4,0.2l-0.7,1.1l1.8,0.3L4.5,15.7c-0.3,0.1-0.3,0.4,0,0.5L31.9,30l0.1,0l15.6-7.8
		l0.6,0.9l2.3-0.4C50.7,22.7,50.8,22.6,50.9,22.5z M23,17.5l-0.5-0.2c-0.3-0.1-0.7-0.1-1,0c-0.3,0.1-0.3,0.4,0,0.5L22,18l-6,3l-6-3
		l13-6.5l6,3L23,17.5z M29,22.5L26,21l4-2l3,1.5L29,22.5z M34,20l-3-1.5l3-1.5l3,1.5L34,20z M33,24.5L30,23l4-2l3,1.5L33,24.5z
		 M38,22l-3-1.5l3-1.5l3,1.5L38,22z"/>
	<polygon fill="#2D3134" points="47.1,22.4 47.3,22.6 47.5,22.3 	"/>
	<polygon fill="#2D3134" points="47.3,22.6 47.3,22.6 47.3,22.6 	"/>
</g>
</svg>
