<?xml version="1.0" encoding="utf-8"?>
<!-- Generator: Adobe Illustrator 18.1.0, SVG Export Plug-In . SVG Version: 6.00 Build 0)  -->
<svg version="1.1" id="Layer_1" xmlns="http://www.w3.org/2000/svg" xmlns:xlink="http://www.w3.org/1999/xlink" x="0px" y="0px"
	 viewBox="0 0 32 56" enable-background="new 0 0 32 56" xml:space="preserve">
<path fill-rule="evenodd" clip-rule="evenodd" fill="#2D3134" d="M31,19.5L9.9,12.7l0,20.4c-0.7-0.9-1.4-1.6-2.4-2.1
	c-1-0.5-1.9-0.7-3-0.7c-1.1,0-1.9,0.3-2.6,0.9c-0.7,0.5-1,1.4-1,2.4c0.1,1,0.4,1.9,1.1,2.7c0.7,0.9,1.5,1.5,2.5,2
	c1,0.5,2.2,0.9,3.3,0.9c1.1,0.1,2.2-0.1,2.9-0.6c0.7-0.5,1.4-1.2,1.4-2.2V23.2l16.9,5.7v10.4c-0.7-0.9-1.4-1.6-2.4-2.1
	c-1-0.5-1.9-0.7-3-0.7c-1.1,0-1.9,0.3-2.6,0.9c-0.7,0.5-1,1.4-1,2.4c0.1,1,0.4,1.9,1.1,2.7c0.7,0.9,1.5,1.5,2.5,2
	c1,0.5,2.2,0.9,3.3,0.9c1.1,0.1,2.2-0.1,2.9-0.6c0.7-0.5,1.4-1.2,1.4-2.2V19.5z M28.9,26.7L12,21.1v-2.2l16.9,5.7V26.7z"/>
</svg>
