<?xml version="1.0" encoding="utf-8"?>
<!-- Generator: Adobe Illustrator 18.1.0, SVG Export Plug-In . SVG Version: 6.00 Build 0)  -->
<svg version="1.1" id="Layer_1" xmlns="http://www.w3.org/2000/svg" xmlns:xlink="http://www.w3.org/1999/xlink" x="0px" y="0px"
	 viewBox="0 0 32 32" enable-background="new 0 0 32 32" xml:space="preserve">
<path fill="#2D3134" d="M24.5,10H23V9c0.6-0.8,1-1.9,1-3c0-2.8-2.2-5-5-5c-0.6,0-1.1,0.1-1.6,0.3C15.2-0.3,12-0.4,9.8,1.2
	C9.4,1.1,8.9,1,8.5,1C6.7,1,5.1,2.1,4.4,3.8C2.9,4.7,2,6.3,2,8c0,2,1.2,3.8,3,4.6v16.2C5,30.6,6.4,32,8.2,32h11.6
	c1.8,0,3.2-1.4,3.2-3.2V25h1.5c3,0,5.5-2.5,5.5-5.5v-4C30,12.5,27.5,10,24.5,10z M4,8c0-1.1,0.6-2.1,1.6-2.7L6,5.2l0.1-0.4
	c0.4-1.4,2-2.2,3.4-1.5l0.6,0.3l0.5-0.4c1.7-1.4,4.3-1.4,5.9,0.1L17,3.6l0.6-0.3C18.1,3.1,18.5,3,19,3c1.7,0,3,1.3,3,3s-1.3,3-3,3
	c-0.3,0-0.5,0-0.8-0.1l-0.7-0.2l-0.4,0.5c-0.9,1.1-2.2,1.8-3.6,1.8c-0.6,0-1.2-0.1-1.7-0.3L10.2,10l0.8,7.5c0,0.8-0.7,1.5-1.5,1.5
	S8,18.4,8,17.5L8.6,12l0.1-1.3L7.4,11c-0.1,0-0.3,0-0.4,0C5.3,11,4,9.7,4,8z M28,19.5c0,1.9-1.6,3.5-3.5,3.5H23V12h1.5
	c1.9,0,3.5,1.6,3.5,3.5V19.5z"/>
</svg>
