<?xml version="1.0" encoding="utf-8"?>
<!-- Generator: Adobe Illustrator 18.1.0, SVG Export Plug-In . SVG Version: 6.00 Build 0)  -->
<svg version="1.1" id="Layer_1" xmlns="http://www.w3.org/2000/svg" xmlns:xlink="http://www.w3.org/1999/xlink" x="0px" y="0px"
	 viewBox="0 0 32 32" enable-background="new 0 0 32 32" xml:space="preserve">
<g>
	<path fill="#2D3134" d="M32,13.1c0-0.1-0.1-0.2-0.3-0.3L16.2,5.1c-0.1-0.1-0.3-0.1-0.4,0L7,9.4V8h0.5C7.8,8,8,7.8,8,7.5v-2
		C8,5.2,7.8,5,7.5,5h-5C2.2,5,2,5.2,2,5.5v2C2,7.8,2.2,8,2.5,8H3v3.4l-2.7,1.4C0.2,12.9,0.1,13,0,13.1c0,0.1,0,0.3,0,0.4L0.8,15
		L2,14.4v15.1C2,29.8,2.2,30,2.5,30h27.4H30V14.4l1.2,0.6l0.8-1.5C32,13.3,32,13.2,32,13.1z M13,22h-0.5c-0.3,0-0.5,0.2-0.5,0.5
		c0,0.3,0.2,0.5,0.5,0.5H13v6H7V16h6V22z M21,24h-3v-4h3V24z M21,19h-3v-3h3V19z M25,24h-3v-4h3V24z M25,19h-3v-3h3V19z"/>
	<polygon fill="#2D3134" points="30,14.9 30.3,15 30,14.5 	"/>
	<polygon fill="#2D3134" points="30.3,15 30.3,15 30.3,15 	"/>
</g>
</svg>
