<?xml version="1.0" encoding="utf-8"?>
<!-- Generator: Adobe Illustrator 18.1.0, SVG Export Plug-In . SVG Version: 6.00 Build 0)  -->
<svg version="1.1" id="Layer_1" xmlns="http://www.w3.org/2000/svg" xmlns:xlink="http://www.w3.org/1999/xlink" x="0px" y="0px"
	 viewBox="0 0 32 32" enable-background="new 0 0 32 32" xml:space="preserve">
<path fill-rule="evenodd" clip-rule="evenodd" fill="#2D3134" d="M7,1.6C8.9,1.3,11.5,1,15.3,1c3.8,0,6.5,0.8,8.3,2.4
	c1.7,1.5,2.9,3.9,2.9,6.8c0,3-0.8,5.4-2.5,7.1c-2.1,2.1-5.2,3.1-8.8,3.1c-0.8,0-1.6,0-2.2-0.2V31H7V1.6z M13,15
	c0.5,0.1,1.2,0.3,2.1,0.3c3.3,0,5.3-1.8,5.3-4.8c0-2.7-1.7-4.4-4.8-4.4c-1.2,0-2.2,0-2.6,0.1V15z"/>
</svg>
