<?xml version="1.0" encoding="utf-8"?>
<!-- Generator: Adobe Illustrator 18.1.0, SVG Export Plug-In . SVG Version: 6.00 Build 0)  -->
<svg version="1.1" id="Layer_1" xmlns="http://www.w3.org/2000/svg" xmlns:xlink="http://www.w3.org/1999/xlink" x="0px" y="0px"
	 viewBox="0 0 32 56" enable-background="new 0 0 32 56" xml:space="preserve">
<path fill="#2D3134" d="M1.5,10.3l-1,0.5c-0.3,0.2-0.5,0.5-0.5,1V18c0,0.7,0.4,1.6,1,2.2v15.3L30,50V34.7c0.6,0,1-0.5,1-1.2v-6.3
	c0-0.5-0.2-1-0.5-1.5l-1-1.5c-0.3-0.5-0.8-0.9-1.2-1.1L2.7,10.4C2.3,10.1,1.8,10.1,1.5,10.3z M22,23l2,1v6c0,0.6-0.4,0.8-1,0.5
	s-1-0.9-1-1.5V23z M10,17l2,1v6c0,0.6-0.4,0.8-1,0.5s-1-0.9-1-1.5V17z M4,14l2,1v6c0,0.6-0.4,0.8-1,0.5S4,20.6,4,20V14z M3,19.5
	c0,0.6-0.4,0.8-1,0.5s-1-0.9-1-1.5v-6l2,1V19.5z M8,34l-4-2v-5l4,2V34z M8,28l-4-2v-2l4,2V28z M8,23c-0.6-0.3-1-0.9-1-1.5v-6l2,1v6
	C9,23.1,8.6,23.3,8,23z M13,36.5l-4-2v-5l4,2V36.5z M13,30.5l-4-2v-2l4,2V30.5z M13,24.5v-6l2,1v6c0,0.6-0.4,0.8-1,0.5
	S13,25.1,13,24.5z M18,39l-4-2v-5l4,2V39z M18,33l-4-2v-2l4,2V33z M18,27c0,0.6-0.4,0.8-1,0.5c-0.6-0.3-1-0.9-1-1.5v-6l2,1V27z
	 M20,29c-0.6-0.3-1-0.9-1-1.5v-6l2,1v6C21,29,20.6,29.3,20,29z M27,47.5l-6-3v-6l0.5,0.2c0.3,0.1,0.5,0,0.5-0.3
	c0-0.3-0.2-0.6-0.5-0.7L21,37.5v-5l6,3V47.5z M27,31.5c0,0.6-0.4,0.8-1,0.5c-0.6-0.3-1-0.9-1-1.5v-6l2,1V31.5z M30,33
	c0,0.6-0.4,0.8-1,0.5s-1-0.9-1-1.5v-6l2,1V33z"/>
</svg>
