<?xml version="1.0" encoding="utf-8"?>
<!-- Generator: Adobe Illustrator 18.1.0, SVG Export Plug-In . SVG Version: 6.00 Build 0)  -->
<svg version="1.1" id="Layer_1" xmlns="http://www.w3.org/2000/svg" xmlns:xlink="http://www.w3.org/1999/xlink" x="0px" y="0px"
	 viewBox="0 0 32 56" enable-background="new 0 0 32 56" xml:space="preserve">
<path fill="#2D3134" d="M31.5,36.7l-0.8-0.4l-2.3-3.4c0.4-0.1,0.6-0.4,0.6-0.9c0-0.3-0.2-0.6-0.5-0.7c-0.3-0.1-0.5,0-0.5,0.3
	c0,0.3-0.2,0.4-0.5,0.3S27,31.3,27,31s0.2-0.4,0.5-0.3c0.3,0.1,0.5,0,0.5-0.3v-8c0-0.1,0-0.1,0-0.2c0,0,0,0,0,0c0,0,0,0,0,0
	c0-0.1-0.1-0.2-0.1-0.2c0,0-0.1-0.1-0.1-0.1c0,0-0.1-0.1-0.2-0.1c0,0,0,0-0.1-0.1l-7.6-3.8l-0.7-0.4l-7.6-3.8l-0.7-0.4L8.4,8.5
	C8.2,8.1,7.8,7.8,7.6,8l-2.3,2.6l-0.7-0.4l-4-2C0.2,8.1,0,8.2,0,8.5v1c0,0.1,0.1,0.3,0.1,0.4l3,4.5c0.1,0.1,0.2,0.3,0.4,0.3L4,15
	v2.5c0,0.3,0.2,0.6,0.5,0.7L5,18.5v19l-0.5-0.2c-0.3-0.1-0.5,0-0.5,0.3c0,0.3,0.2,0.6,0.5,0.7l7,3.5c0.3,0.1,0.5,0,0.5-0.3
	c0-0.3-0.2-0.6-0.5-0.7L11,40.5v-19l0.5,0.2c0.3,0.1,0.5,0,0.5-0.3V19l3.1,1.6l0,0.1l0.7,0.4l0,0l7.6,3.8c0.1,0.1,0.3,0.1,0.4,0
	l3.1-1.5v6.4c-0.6-0.1-1,0.3-1,0.9c0,0.5,0.2,1,0.6,1.5l-2.3,1.1l-0.8-0.4c-0.3-0.1-0.5,0-0.5,0.3v2c0,0.3,0.2,0.6,0.5,0.7l8,4
	c0.3,0.1,0.5,0,0.5-0.3v-2C32,37.2,31.8,36.9,31.5,36.7z M4,14l-0.3-0.1L1,9.8V9.5L4,11V14z M8,9.4l1.6,3.4l-3.2-1.6L8,9.4z M6,19.7
	l3.8,5.7L6,27.3V19.7z M6.7,19.4L10,21v3.3L6.7,19.4z M10,26.7v7.6l-3.8-5.7L10,26.7z M6,29.7l3.8,5.7L6,37.3V29.7z M6.7,38.4
	l3.3-1.6V40L6.7,38.4z M11,18c0,0.3-0.2,0.4-0.5,0.3l-3-1.5C7.2,16.6,7,16.3,7,16v-2c0-0.3,0.2-0.4,0.5-0.3l3,1.5
	c0.3,0.1,0.5,0.5,0.5,0.7V18z M12,18v-2.2l2.1,3.2L12,18z M15.5,19.5l-2.8-4.1l5.5,2.7L15.5,19.5z M16.9,20.4l2.6-1.4l2.7,4.1
	L16.9,20.4z M23.5,23.5l-2.7-4.1l5.5,2.7L23.5,23.5z M25.7,33.9l1.8-0.9l1.8,2.7L25.7,33.9z"/>
</svg>
