<?xml version="1.0" encoding="utf-8"?>
<!-- Generator: Adobe Illustrator 18.1.0, SVG Export Plug-In . SVG Version: 6.00 Build 0)  -->
<svg version="1.1" id="Layer_1" xmlns="http://www.w3.org/2000/svg" xmlns:xlink="http://www.w3.org/1999/xlink" x="0px" y="0px"
	 viewBox="0 0 32 32" enable-background="new 0 0 32 32" xml:space="preserve">
<path fill="#2D3134" d="M29.1,21l2.9-8L13.3,3c0,0,0,0,0,0l0,0l0,0c-0.1,0-0.2,0-0.4,0L4,6.8C3.9,5.8,3,5,2,5C0.9,5,0,5.9,0,7
	c0,0.7,0.4,1.4,1,1.7V32h2V8.7C3.5,8.5,3.8,8,3.9,7.5l4.5,8c0.1,0.1,0.2,0.2,0.3,0.2l0,0l0,0c0,0,0,0,0,0L29.1,21z M26.5,19.3
	l-2.9-0.8l2.7-7.4l2.7,1.4L26.5,19.3z M20.7,17.8L17.8,17L21,8.2l2.7,1.4L20.7,17.8z M14.9,16.3l-2.9-0.8l3.7-10.1l2.7,1.4
	L14.9,16.3z M5,7.4l7.9-3.3L9.1,14.6L5,7.4z"/>
</svg>
