<?xml version="1.0" encoding="utf-8"?>
<!-- Generator: Adobe Illustrator 18.1.0, SVG Export Plug-In . SVG Version: 6.00 Build 0)  -->
<svg version="1.1" id="Layer_1" xmlns="http://www.w3.org/2000/svg" xmlns:xlink="http://www.w3.org/1999/xlink" x="0px" y="0px"
	 viewBox="0 0 64 32" enable-background="new 0 0 64 32" xml:space="preserve">
<g>
	<path fill="#2D3134" d="M21.9,20.2l7.7-3.9c-1.7-1.5-2.4-3-2.2-4.2c0.3-1.3,1.4-2.4,3.4-3.4c2-1,4.3-1.5,7-1.6
		c2.6,0,5.1,0.4,7.5,1.4l1.8-0.9l2.7,1.3L48,9.8c1.7,1.1,2.6,2.2,2.7,3.3c0.1,1.1-0.7,2.2-2.2,3.3l-5.3-2c1.2-0.9,1.4-1.7,0.7-2.6
		l-7.2,3.6c2.2,1.9,3.1,3.4,2.9,4.6c-0.2,1.2-1.3,2.3-3.3,3.3c-2.2,1.1-4.8,1.7-7.6,1.8c-2.9,0.1-5.7-0.4-8.4-1.4l-2.4,1.2l-2.7-1.3
		l2.4-1.2c-1.9-1.2-2.8-2.5-2.8-3.8c0-1.3,1-2.7,3.1-4.1l5.3,2.1c-0.8,0.6-1.3,1.2-1.4,1.8C21.5,19.1,21.6,19.7,21.9,20.2z
		 M41.3,10.5c-1-0.2-2-0.3-3-0.2c-1,0.1-1.9,0.3-2.6,0.7c-0.7,0.3-1.1,0.7-1.2,1.2c-0.2,0.5,0,1,0.4,1.6L41.3,10.5z M24.3,21.6
		c1.1,0.4,2.3,0.5,3.5,0.5c1.3-0.1,2.4-0.3,3.3-0.8c0.8-0.4,1.3-0.9,1.4-1.4c0.1-0.5-0.2-1.2-1-1.9L24.3,21.6z"/>
</g>
</svg>
