<?xml version="1.0" encoding="utf-8"?>
<!-- Generator: Adobe Illustrator 18.1.0, SVG Export Plug-In . SVG Version: 6.00 Build 0)  -->
<svg version="1.1" id="Layer_1" xmlns="http://www.w3.org/2000/svg" xmlns:xlink="http://www.w3.org/1999/xlink" x="0px" y="0px"
	 viewBox="0 0 64 32" enable-background="new 0 0 64 32" xml:space="preserve">
<g>
	<path fill="#2D3134" d="M40.7,18.3c2,1,3.1,2.3,3.1,3.7c2.9-1.6,2.9-4-0.2-5.6c-0.4-0.2-0.7-0.3-1.1-0.5c2.8-2.2,2.3-5.1-1.5-6.9
		c-3.1-1.5-7.5-2-11.4-1.3c-3.6-1.8-9.4-1.8-13,0c-3.5,1.7-3.6,4.5-0.4,6.3l0,0l5,2.5c2.8-0.6,6.1-0.4,8.6,0.5
		C33.5,16.4,37.8,16.8,40.7,18.3z"/>
	<path fill="#2D3134" d="M40.6,23.2c0.9-1.3,0.3-2.9-1.8-3.9c-2.6-1.3-6.6-1.5-9.6-0.5c-0.2-0.1-0.4-0.3-0.7-0.4
		c-2.2-1.1-5.7-1.1-7.8,0c-2.2,1.1-2.2,2.8,0,3.9l11.2,5.6l0,0c2.5,1.1,6.3,1.1,8.7-0.1C43,26.5,43.1,24.5,40.6,23.2z"/>
</g>
</svg>
