<?xml version="1.0" encoding="utf-8"?>
<!-- Generator: Adobe Illustrator 18.1.0, SVG Export Plug-In . SVG Version: 6.00 Build 0)  -->
<svg version="1.1" id="Layer_1" xmlns="http://www.w3.org/2000/svg" xmlns:xlink="http://www.w3.org/1999/xlink" x="0px" y="0px"
	 viewBox="0 0 64 32" enable-background="new 0 0 64 32" xml:space="preserve">
<g>
	<path fill="#2D3134" d="M9,11.5l9,4.5l2-1l-7-3.5L30,3l13,6.5l-4.6,2.3l-6.2-0.7c0,0-0.1,0-0.1,0c-1.9-0.3-4.2,0.4-5.3,1.1
		C25.7,13,18.2,18,18.2,18c-0.6,0.3-0.6,0.8,0,1.1c0.6,0.3,1.7,0.3,2.3,0l6.9-4.7l0,3.5c0,0.3,0.1,0.5,0.3,0.8l3.8,4.7l-2.9,5
		c-0.3,0.6,0.3,1.2,1.5,1.3c1.1,0.2,2.3-0.2,2.7-0.7l3.1-5.3c0-0.1,0.1-0.2,0.1-0.2c0-0.2,0-0.4-0.1-0.5l-2.4-3.5l7.1-0.2l6.9,3.5
		c0.8,0.4,2.1,0.4,2.9,0c0.7-0.4,0.6-1.1,0-1.4l-7.6-3.8c-0.4-0.2-1-0.3-1.5-0.3l-6.9,0l0-4.3l4.1,0.4c0.4,0.1,0.9,0,1.2-0.1
		c0,0,0.1,0,0.1,0c0,0,0,0,0,0c0,0,0.1,0,0.1-0.1l5.1-2.5L60,18l2-1L30,1L9,11.5z"/>
	<path fill="#2D3134" d="M32.4,7.2c-1.5-0.8-3.9-0.7-5.4,0c-1.5,0.8-1.5,2,0,2.7c1.5,0.7,3.9,0.8,5.4,0C33.9,9.1,33.9,7.9,32.4,7.2z
		"/>
</g>
</svg>
