<?xml version="1.0" encoding="utf-8"?>
<!-- Generator: Adobe Illustrator 18.1.0, SVG Export Plug-In . SVG Version: 6.00 Build 0)  -->
<svg version="1.1" id="Layer_1" xmlns="http://www.w3.org/2000/svg" xmlns:xlink="http://www.w3.org/1999/xlink" x="0px" y="0px"
	 viewBox="0 0 64 32" enable-background="new 0 0 64 32" xml:space="preserve">
<g>
	<path fill-rule="evenodd" clip-rule="evenodd" fill="#2D3134" d="M10,18l18,9l21-10.5l-4-2l1.8-0.9c1.2-0.6,1.2-1.6,0-2.2l-5.6-2.8
		C40,8,38,8,36.8,8.6L35,9.5l-4-2L10,18z M39,9.5l6,3l-2,1l-6-3L39,9.5z"/>
	<path fill-rule="evenodd" clip-rule="evenodd" fill="#2D3134" d="M52.8,18.4L50,17L29,27.5l2.8,1.4c1.8,0.9,4.6,0.9,6.4,0l14.6-7.3
		C54.6,20.7,54.6,19.3,52.8,18.4z"/>
	<path fill-rule="evenodd" clip-rule="evenodd" fill="#2D3134" d="M30,7l-2.8-1.4c-1.8-0.9-4.6-0.9-6.4,0L6.2,12.9
		c-1.8,0.9-1.8,2.3,0,3.2L9,17.5L30,7z"/>
</g>
</svg>
