<?xml version="1.0" encoding="utf-8"?>
<!-- Generator: Adobe Illustrator 18.1.0, SVG Export Plug-In . SVG Version: 6.00 Build 0)  -->
<svg version="1.1" id="Layer_1" xmlns="http://www.w3.org/2000/svg" xmlns:xlink="http://www.w3.org/1999/xlink" x="0px" y="0px"
	 viewBox="0 0 32 56" enable-background="new 0 0 32 56" xml:space="preserve">
<path fill-rule="evenodd" clip-rule="evenodd" fill="#2D3134" d="M25.4,19.2L25.4,19.2c-1.6-2.4-3.8-4.4-6-5.5l-6.9-3.4
	c-2.3-1.1-4.4-1.3-6-0.5C4.9,10.6,4,12.3,4,14.5V33c0,0.5,0.4,1.2,1,1.5L6,35v2.7c0,0.7,0.6,1.6,1.3,1.9l2.4,1.2
	c0.7,0.4,1.3,0.1,1.3-0.6v-2.7l10,5v2.7c0,0.7,0.6,1.6,1.3,1.9l2.4,1.2c0.7,0.4,1.3,0.1,1.3-0.6V45l1,0.5c0.5,0.3,1,0.1,1-0.5V26.6
	C28,24.3,27.1,21.6,25.4,19.2z M11,11.5l10,5v2l-10-5V11.5z M7.5,32.8C6.7,32.3,6,31.3,6,30.5s0.7-1.2,1.5-0.8S9,31.2,9,32
	S8.3,33.2,7.5,32.8z M20,39l-8-4v-1l8,4V39z M20,37l-8-4v-1l8,4V37z M7,22.5v-8l18,9v8L7,22.5z M24.5,41.3C23.7,40.8,23,39.8,23,39
	s0.7-1.2,1.5-0.8c0.8,0.4,1.5,1.4,1.5,2.2S25.3,41.7,24.5,41.3z"/>
</svg>
