<?xml version="1.0" encoding="utf-8"?>
<!-- Generator: Adobe Illustrator 18.1.0, SVG Export Plug-In . SVG Version: 6.00 Build 0)  -->
<svg version="1.1" id="Layer_1" xmlns="http://www.w3.org/2000/svg" xmlns:xlink="http://www.w3.org/1999/xlink" x="0px" y="0px"
	 viewBox="0 0 32 32" enable-background="new 0 0 32 32" xml:space="preserve">
<path fill="#2D3134" d="M25.2,16.1l-7.3-5.3c-0.1-0.4-0.3-0.7-0.5-1l-0.9-9C16.3,0.4,16,0,15.5,0c-0.5,0-0.8,0.3-0.9,0.8l-0.9,9
	c-0.3,0.3-0.4,0.6-0.5,1l-7.3,5.3c-0.4,0.3-0.5,0.8-0.3,1.2c0.2,0.3,0.5,0.5,0.8,0.5c0.1,0,0.3,0,0.4-0.1l7.6-3.4L12.7,29h-1.2
	c-0.3,0-0.5,0.2-0.5,0.5v2c0,0.3,0.2,0.5,0.5,0.5h8c0.3,0,0.5-0.2,0.5-0.5v-2c0-0.3-0.2-0.5-0.5-0.5h-1.2l-1.6-14.8l7.6,3.4
	c0.1,0.1,0.3,0.1,0.4,0.1c0.3,0,0.6-0.2,0.8-0.5C25.7,16.8,25.6,16.3,25.2,16.1z M15.5,13c-0.8,0-1.5-0.7-1.5-1.5s0.7-1.5,1.5-1.5
	s1.5,0.7,1.5,1.5S16.3,13,15.5,13z"/>
</svg>
