<?xml version="1.0" encoding="utf-8"?>
<!-- Generator: Adobe Illustrator 18.1.0, SVG Export Plug-In . SVG Version: 6.00 Build 0)  -->
<svg version="1.1" id="Layer_1" xmlns="http://www.w3.org/2000/svg" xmlns:xlink="http://www.w3.org/1999/xlink" x="0px" y="0px"
	 viewBox="0 0 32 56" enable-background="new 0 0 32 56" xml:space="preserve">
<path fill-rule="evenodd" clip-rule="evenodd" fill="#2D3134" d="M7,18.1c1.9-1.3,4.5-2.9,8.3-4.8c3.8-1.9,6.5-2.5,8.3-1.7
	c1.7,0.6,2.9,2.5,2.9,5.4c0,3-0.8,5.9-2.5,8.3c-2.1,3.2-5.2,5.7-8.8,7.6c-0.8,0.4-1.6,0.8-2.2,0.9v10.7l-6,3V18.1z M13,28.5
	c0.5-0.1,1.2-0.3,2.1-0.7c3.3-1.6,5.3-4.4,5.3-7.4c0-2.7-1.7-3.5-4.8-2c-1.2,0.6-2.2,1-2.6,1.4V28.5z"/>
</svg>
