<?xml version="1.0" encoding="utf-8"?>
<!-- Generator: Adobe Illustrator 18.1.0, SVG Export Plug-In . SVG Version: 6.00 Build 0)  -->
<svg version="1.1" id="Layer_1" xmlns="http://www.w3.org/2000/svg" xmlns:xlink="http://www.w3.org/1999/xlink" x="0px" y="0px"
	 viewBox="0 0 64 32" enable-background="new 0 0 64 32" xml:space="preserve">
<g>
	<path fill="#2D3134" d="M48.2,8.3c0-0.2-0.3-0.4-0.7-0.4l-11.7,0l12.4,6.2L48.2,8.3z"/>
	<path fill="#2D3134" d="M38,17l2,1l2-1l-12-6l-2,1l2,1l-18.9,6.6L10,19l-2,1l6,3l5-2.5c1.1-0.6,2.9-0.6,4,0s1.1,1.4,0,2L18,25l6,3
		l2-1l-1.1-0.6L38,17z"/>
	<polygon fill="#2D3134" points="43,13.5 41,14.5 50,22 58,18 	"/>
	<polygon fill="#2D3134" points="37,10.5 28,3 20,7 35,11.5 	"/>
	<path fill="#2D3134" d="M37,11.5c-1.1,0.6-1.1,1.4,0,2s2.9,0.6,4,0c1.1-0.6,1.1-1.4,0-2S38.1,10.9,37,11.5z"/>
</g>
</svg>
