<?xml version="1.0" encoding="utf-8"?>
<!-- Generator: Adobe Illustrator 18.1.0, SVG Export Plug-In . SVG Version: 6.00 Build 0)  -->
<svg version="1.1" id="Layer_1" xmlns="http://www.w3.org/2000/svg" xmlns:xlink="http://www.w3.org/1999/xlink" x="0px" y="0px"
	 viewBox="0 0 64 32" enable-background="new 0 0 64 32" xml:space="preserve">
<path fill-rule="evenodd" clip-rule="evenodd" fill="#2D3134" d="M28.2,24.2l0,3.9l3.6,1.8l0-3.9L28.2,24.2z M22.3,21.3l0,3.9
	l3.6,1.8l0-3.9L22.3,21.3z M10.5,15.4l-7.7,0l3.6,1.8l7.7,0L10.5,15.4z M8.7,18.3l3.6,1.8l7.7,0l-3.6-1.8L8.7,18.3z M39.7,23.1
	c5.9,0,11.8-1.2,16.5-3.2l-5.4-4.5c-2.1,0.9-5.6,2.2-8.5,2.9L42,18c2.4-1.2,3.7-2.7,3.7-4.3c0-1.7-1.4-3.3-3.9-4.6
	C39,7.7,35.3,7,31.5,7.2c-3.7,0.2-7,1.1-9.2,2.7l-0.7-0.1c0.3-0.7,1.7-3.1,6.7-5.1l-3.6-0.9C19.8,5.8,16.6,9,16.4,12
	c-0.2,2.8,2,5.4,6.3,7.5l0,0C27.4,21.9,33.3,23.1,39.7,23.1z M26.4,16.8c-3.5-1.8-3.5-4.6,0-6.4c3.5-1.8,9.3-1.8,12.8,0
	c3.5,1.8,3.5,4.6,0,6.4C35.6,18.5,29.9,18.5,26.4,16.8z"/>
</svg>
