<?xml version="1.0" encoding="utf-8"?>
<!-- Generator: Adobe Illustrator 18.1.0, SVG Export Plug-In . SVG Version: 6.00 Build 0)  -->
<svg version="1.1" id="Layer_1" xmlns="http://www.w3.org/2000/svg" xmlns:xlink="http://www.w3.org/1999/xlink" x="0px" y="0px"
	 viewBox="0 0 32 32" enable-background="new 0 0 32 32" xml:space="preserve">
<path fill="#2D3134" d="M30.5,11c0.3,0,0.5-0.2,0.5-0.5V10h1V9L16.7,1.1c-0.5-0.2-1-0.2-1.5,0L0,9v1h1v0.5C1,10.8,1.2,11,1.5,11H2
	v16H1.5C1.2,27,1,27.2,1,27.5V29H0.5C0.2,29,0,29.2,0,29.5v1C0,30.8,0.2,31,0.5,31h31c0.3,0,0.5-0.2,0.5-0.5v-1
	c0-0.3-0.2-0.5-0.5-0.5H31v-1.5c0-0.3-0.2-0.5-0.5-0.5H30V11H30.5z M17,10v0.5c0,0.3,0.2,0.5,0.5,0.5H18v16h-4V11h0.5
	c0.3,0,0.5-0.2,0.5-0.5V10H17z M6,11h0.5C6.8,11,7,10.8,7,10.5V10h2v0.5C9,10.8,9.2,11,9.5,11H10v16H6V11z M22,27V11h0.5
	c0.3,0,0.5-0.2,0.5-0.5V10h2v0.5c0,0.3,0.2,0.5,0.5,0.5H26v16H22z"/>
</svg>
