<?xml version="1.0" encoding="utf-8"?>
<!-- Generator: Adobe Illustrator 18.1.0, SVG Export Plug-In . SVG Version: 6.00 Build 0)  -->
<svg version="1.1" id="Layer_1" xmlns="http://www.w3.org/2000/svg" xmlns:xlink="http://www.w3.org/1999/xlink" x="0px" y="0px"
	 viewBox="0 0 32 56" enable-background="new 0 0 32 56" xml:space="preserve">
<path fill-rule="evenodd" clip-rule="evenodd" fill="#2D3134" d="M9.1,33.8l2.5,0.2l-3.9-4.7L0,33.1l2.5,0.2l0.7,0.1l-1.9,4.3
	C1,38,0.9,38.4,0.9,38.7c0,0.3,0.1,0.6,0.3,0.8c0,0,1.7,2.1,3.1,3.8c0.1-0.4,0.2-0.8,0.4-1.2l3.8-8.4L9.1,33.8z M5.4,42.4
	C5.2,42.9,5,43.4,5,43.8c0,0.4,0.1,0.7,0.3,1c0.4,0.5,1.2,0.6,2,0.1c0,0,6.4-3.2,7.6-3.8c0-1.1,0-5,0-6.1c-1.2,0.6-7.3,3.7-8,4
	C6.6,39.7,5.4,42.4,5.4,42.4z M27.6,9.4l-2.5,2.7l-0.7,0.7l-1.9-2.4c-0.2-0.2-0.4-0.3-0.7-0.4c-0.3,0-0.6,0.1-0.9,0.2
	c0,0-3.4,1.7-6.1,3.1c0.2,0.1,0.5,0.3,0.6,0.5l3.8,4.6l-0.6,0.7l-2.5,2.7l7.7-3.9L27.6,9.4z M16.3,16.8c-0.3-0.4-1.6-1.9-1.6-1.9
	c-0.2-0.3-0.5-0.4-0.8-0.4c-0.3,0-0.7,0.1-1.1,0.3c-0.8,0.4-1.6,1.2-2,2.2c0,0-3.2,7.2-3.8,8.5c1,0.1,4.4,0.3,5.3,0.4
	C12.9,24.5,15.9,17.6,16.3,16.8z M22.2,31.3v-0.8l0-2.9l-3.9,8.6l3.8,4.8v-2.9v-0.8l3.8-1.9c0.4-0.2,0.7-0.4,1-0.7
	c0.3-0.3,0.5-0.7,0.7-1c0,0,1.7-3.8,3.1-6.8c-0.3,0.2-0.7,0.5-1,0.7L22.2,31.3z M31.7,22.2c0,0-3.2-4-3.8-4.7
	c-0.9,1-4.4,4.7-5.3,5.7c0.6,0.7,3.7,4.5,4,5c0.7-0.3,3.1-1.6,3.1-1.6c0.4-0.2,0.8-0.5,1.2-0.9c0.3-0.4,0.6-0.8,0.8-1.2
	C32.1,23.6,32.1,22.7,31.7,22.2z"/>
</svg>
