<?xml version="1.0" encoding="utf-8"?>
<!-- Generator: Adobe Illustrator 18.1.0, SVG Export Plug-In . SVG Version: 6.00 Build 0)  -->
<svg version="1.1" id="Layer_1" xmlns="http://www.w3.org/2000/svg" xmlns:xlink="http://www.w3.org/1999/xlink" x="0px" y="0px"
	 viewBox="0 0 32 32" enable-background="new 0 0 32 32" xml:space="preserve">
<path fill="#2D3134" d="M27.9,18.1l-3-3c0,0-0.1-0.1-0.2-0.1c-0.1,0-0.1,0-0.2,0h-3.9l-1.2-4.8c0-0.1,0.1-0.1,0.1-0.2h6
	c0.2,0,0.4-0.1,0.5-0.3c0.1-0.2,0-0.4-0.1-0.5l-3-3c0,0-0.1-0.1-0.2-0.1c-0.1,0-0.1,0-0.2,0h-4.1L17,0.4C16.9,0.2,16.7,0,16.5,0
	S16.1,0.2,16,0.4L14.6,6h-4.1c-0.1,0-0.1,0-0.2,0c-0.1,0-0.1,0.1-0.2,0.1l-3,3C7,9.3,7,9.5,7,9.7C7.1,9.9,7.3,10,7.5,10h6
	c0,0.1,0,0.1,0.1,0.2L12.4,15H8.5c-0.1,0-0.1,0-0.2,0c-0.1,0-0.1,0.1-0.2,0.1l-3,3C5,18.3,5,18.5,5,18.7C5.1,18.9,5.3,19,5.5,19h5.9
	L8.3,31.4c-0.1,0.2,0,0.4,0.2,0.6C8.6,32,8.7,32,8.8,32c0.1,0,0.3-0.1,0.4-0.1l7.5-7.5l7.3,7.5c0.2,0.2,0.4,0.2,0.6,0.1
	c0.2-0.1,0.3-0.3,0.2-0.6L21.6,19h5.9c0.2,0,0.4-0.1,0.5-0.3C28,18.5,28,18.3,27.9,18.1z M23.3,16l-1.9,1.9L20.9,16H23.3z M14.7,15
	l1.8-1.8l1.8,1.8H14.7z M18.3,16c-0.7,0.7-1.4,1.4-1.8,1.8L14.7,16H18.3z M17.2,12.5l1.4-1.4l0.9,3.8L17.2,12.5z M16.5,11.8L14.7,10
	h3.6L16.5,11.8z M14.9,9l0.5-2h2.2l0.5,2H14.9z M15.8,12.5l-2.4,2.4l0.9-3.8L15.8,12.5z M13.3,16l2,2h-2.7l0.5-2H13.3z M19.7,16h0.1
	l0.5,2h-2.6C18.2,17.6,18.8,16.9,19.7,16z M20.7,9l1.8-1.8L24.3,9H20.7z M21.3,7l-2,2h-0.2l-0.5-2H21.3z M16.5,2.6L17.4,6h-1.7
	L16.5,2.6z M13.9,9h-0.2l-2-2h2.7L13.9,9z M10.5,7.2L12.3,9H8.7L10.5,7.2z M11.6,17.9L9.7,16h2.4L11.6,17.9z M8.5,16.2l1.8,1.8H6.7
	L8.5,16.2z M9.7,29.9l2.5-10l3.7,3.8L9.7,29.9z M12.7,19h7.8l-4,4L12.7,19z M17.3,23.7l3.6-3.6l2.4,9.8L17.3,23.7z M22.7,18l1.8-1.8
	l1.8,1.8H22.7z"/>
<g>
	<path fill="#2D3134" d="M23.6,16l2,2H7.4l2-2H23.6 M24,15H9l-4,4h23L24,15L24,15z"/>
</g>
<g>
	<path fill="#2D3134" d="M21.6,7l2,2H9.4l2-2H21.6 M22,6H11l-4,4h19L22,6L22,6z"/>
</g>
<polyline fill="none" stroke="#2D3134" stroke-linejoin="round" stroke-miterlimit="10" points="24,16 8,32 16.1,0 17,0 25,32 9,16 
	"/>
</svg>
