<?xml version="1.0" encoding="utf-8"?>
<!-- Generator: Adobe Illustrator 18.1.0, SVG Export Plug-In . SVG Version: 6.00 Build 0)  -->
<svg version="1.1" id="Layer_1" xmlns="http://www.w3.org/2000/svg" xmlns:xlink="http://www.w3.org/1999/xlink" x="0px" y="0px"
	 viewBox="0 0 64 32" enable-background="new 0 0 64 32" xml:space="preserve">
<g>
	<polygon fill="#2D3134" points="37,12.5 24,6 14,11 27,17.5 	"/>
	<path fill="#2D3134" d="M33.5,29.8L32,29l18.8-9.4c1.2-0.6,1.2-1.6,0-2.2l-2.7-1.3c-1.1-0.6-3-0.6-4.2-0.1c-2.3-0.9-5.6-0.9-8,0
		l8.9,4.5c1.8-1.2,1.8-2.8,0-4c0.6-0.3,1.6-0.2,2.2,0.1l2.7,1.3c0.6,0.3,0.6,0.8,0,1.2L31,28.5l-4-2l1.3-0.6
		c2.2,0.5,4.8,0.4,6.7-0.4L26,21c-1.5,1-1.8,2.3-0.8,3.4L24,25l-4-2L46.8,9.6C48,9,48,8,46.8,7.4l-4.7-2.3C41,4.5,39.2,4.5,38,5
		c-3.1-1.3-7.5-1.5-10.8-0.4L25,5.5L38,12l1.8-1.1C41.9,9.2,41.6,7,39,5.5c0.6-0.3,1.6-0.2,2.2,0.1l4.7,2.3c0.6,0.3,0.6,0.8,0,1.2
		L19,22.5l-6-3l1.2-0.6c2.9,0.9,6.7,0.9,9.6,0L26,18l-13-6.5l-1.8,1.1c-1.8,1.5-1.8,3.3,0,4.8L10,18l-5.5-2.8c-0.8-0.4-2.2-0.4-3,0
		s-0.8,1.1,0,1.5l29,14.5c0.8,0.4,2.2,0.4,3,0S34.3,30.2,33.5,29.8z"/>
	<polygon fill="#2D3134" points="44,21 35,16.5 27,20.5 36,25 	"/>
</g>
</svg>
