<?xml version="1.0" encoding="utf-8"?>
<!-- Generator: Adobe Illustrator 18.1.0, SVG Export Plug-In . SVG Version: 6.00 Build 0)  -->
<svg version="1.1" id="Layer_1" xmlns="http://www.w3.org/2000/svg" xmlns:xlink="http://www.w3.org/1999/xlink" x="0px" y="0px"
	 viewBox="0 0 64 32" enable-background="new 0 0 64 32" xml:space="preserve">
<path fill-rule="evenodd" clip-rule="evenodd" fill="#2D3134" d="M27.5,27.8c-3.6-1.8-3.6-4.7,0-6.5c2.3-1.2,5.7-1.6,8.8-1.2
	l0.5-0.6l-13.5,0.6c-0.3,0-0.5,0-0.7-0.1c0,0,0,0,0,0l-2.4-1.2c-3.6,1.2-8.5,1-11.6-0.5c-3.6-1.8-3.6-4.7,0-6.5
	c3.6-1.8,9.4-1.8,12.9,0c0.5,0.2,0.9,0.5,1.2,0.8l5-1.2c0.1,0,0.3,0,0.4,0l1.6-2c0.1-0.1,0.3-0.2,0.6-0.3l0.5-0.6
	c-0.6-0.3-1.1-0.6-1.4-0.9c-0.6-0.5-0.6-0.9,0-1.2c1.2-0.6,2.1-0.5,2.6-0.2c0.3,0.2,0.7,0.5,1.2,0.8c0.4,0.4,0.8,0.6,1,0.7
	c0.3,0.1,0.7,0.3,1.2,0.5c0.6,0.2,0.9,0.4,1,0.4c0.2,0.1,0.6,0.4-0.2,0.7c-0.2,0.1-0.5,0.1-2-0.1c-1-0.1-1.7-0.3-2.3-0.5l-0.3,0.4
	c0.2,0.1,0.3,0.3,0.1,0.5L29.8,12l9.2,4.6l1.2-1.6c0-0.1,0.1-0.3,0.3-0.4l0.2-0.1c0.4-0.2,1-0.2,1.3,0l4.3,2.1
	c0.4,0.2,0.4,0.5,0,0.7l-0.2,0.1c-0.4,0.2-1,0.2-1.3,0L41.8,16l-3.5,4.5c0.8,0.2,1.5,0.5,2.1,0.8c3.6,1.8,3.6,4.7,0,6.5
	C36.9,29.6,31.1,29.6,27.5,27.8L27.5,27.8z M35.5,21.2c-2.3-0.3-4.7,0.1-6.4,0.9c-2.7,1.3-2.7,3.5,0,4.8c2.7,1.3,7,1.3,9.7,0
	c2.7-1.3,2.7-3.5,0-4.8c-0.4-0.2-0.8-0.4-1.3-0.5l-2.4,3.1c-0.2,0.2-0.8,0.3-1.2,0.2l-0.3-0.1c-0.1,0-0.2-0.1-0.3-0.1
	c-0.3-0.1-0.4-0.3-0.2-0.5L35.5,21.2L35.5,21.2z M19.8,12.6c-2.7-1.3-7-1.3-9.7,0c-2.7,1.3-2.7,3.5,0,4.8c2.2,1.1,5.7,1.3,8.3,0.5
	l-5.1-2.6c-0.4-0.2-0.4-0.5,0-0.7l0.2-0.1c0.2-0.1,0.4-0.1,0.6-0.1l6.4-1.5C20.3,12.9,20,12.7,19.8,12.6L19.8,12.6z M21.7,18.1
	l0.8,0.4l4.4-5.8l-3.4,0.8C24.7,15.1,24,16.8,21.7,18.1L21.7,18.1z M16,15.2l4,2c1.6-0.9,2.1-2.1,1.4-3.3L16,15.2L16,15.2z M29,13.1
	L24.5,19l13.2-0.6l0.5-0.6L29,13.1L29,13.1z"/>
</svg>
