<?xml version="1.0" encoding="utf-8"?>
<!-- Generator: Adobe Illustrator 18.1.0, SVG Export Plug-In . SVG Version: 6.00 Build 0)  -->
<svg version="1.1" id="Layer_1" xmlns="http://www.w3.org/2000/svg" xmlns:xlink="http://www.w3.org/1999/xlink" x="0px" y="0px"
	 viewBox="0 0 32 32" enable-background="new 0 0 32 32" xml:space="preserve">
<path fill-rule="evenodd" clip-rule="evenodd" fill="#2D3134" d="M25.8,2c0-0.7,0-1.3,0-2H6.1c0,0.7,0,1.3,0,2H0
	c0,8.3,3.9,13.1,9.6,15c1.2,2,2.8,3.2,4.4,3.7v6.8c0,1.4-1.1,2.5-2.5,2.5c-0.8,0-1.5,0.7-1.5,1.5V32h4h4h4v-0.5
	c0-0.8-0.7-1.5-1.5-1.5c-1.4,0-2.5-1.1-2.5-2.5v-6.8c1.7-0.5,3.2-1.7,4.4-3.7c5.6-1.9,9.6-6.7,9.6-15H25.8z M2.1,4h4.2
	c0.3,4.3,1,7.7,2,10.3C5.2,12.7,2.5,9.6,2.1,4z M11.6,12c-0.1,0-0.2,0-0.3,0c-0.4,0-0.8-0.3-1-0.7c-0.6-2-0.9-4.5-1.1-7.2
	c0-0.6,0.4-1,0.9-1.1c0.6,0,1,0.4,1.1,0.9c0.2,2.6,0.5,4.9,1.1,6.8C12.4,11.3,12.1,11.8,11.6,12z M23.8,14.3c1-2.6,1.7-6,2-10.3h4.2
	C29.5,9.6,26.8,12.7,23.8,14.3z"/>
</svg>
