<?xml version="1.0" encoding="utf-8"?>
<!-- Generator: Adobe Illustrator 18.1.0, SVG Export Plug-In . SVG Version: 6.00 Build 0)  -->
<svg version="1.1" id="Layer_1" xmlns="http://www.w3.org/2000/svg" xmlns:xlink="http://www.w3.org/1999/xlink" x="0px" y="0px"
	 viewBox="0 0 64 32" enable-background="new 0 0 64 32" xml:space="preserve">
<g>
	<path fill-rule="evenodd" clip-rule="evenodd" fill="#2D3134" d="M32,7l18,9c0.6,0.3,1.4,0.3,2,0l1-0.5c0.6-0.3,0.6-0.7,0-1l-18-9
		c-0.6-0.3-1.4-0.3-2,0L32,6C31.4,6.3,31.4,6.7,32,7z"/>
	<path fill-rule="evenodd" clip-rule="evenodd" fill="#2D3134" d="M47,23.5l-7.5-3.7l4.9-4.6c0.5-0.5,0.1-1.1-0.8-1.3l-0.3-0.1
		c-0.9-0.2-2.1-0.1-2.6,0.4l-4.3,4l-8.8-4.4l8-2.1c0.9-0.2,1.3-0.8,0.8-1.3l-0.2-0.2c-0.5-0.5-1.7-0.7-2.6-0.4l-9.2,2.4L17,8.5
		c-0.6-0.3-1.4-0.3-2,0L14,9c-0.6,0.3-0.6,0.7,0,1l6.6,3.3L8.9,16.4c-0.9,0.2-1.3,0.8-0.8,1.3l0.2,0.2c0.5,0.5,1.7,0.7,2.6,0.4
		l12.8-3.4l10.6,5.3l-6.8,6.4c-0.5,0.5-0.1,1.1,0.8,1.3l0.3,0.1c0.9,0.2,2.1,0.1,2.6-0.4l6.2-5.8L44,25c0.6,0.3,1.4,0.3,2,0l1-0.5
		C47.6,24.2,47.6,23.8,47,23.5z"/>
	<path fill-rule="evenodd" clip-rule="evenodd" fill="#2D3134" d="M19,7.5l5,2.5c0.6,0.3,1.4,0.3,2,0c0.6-0.3,0.6-0.7,0-1l-5-2.5
		c-0.6-0.3-1.4-0.3-2,0C18.4,6.8,18.4,7.2,19,7.5z"/>
	<path fill-rule="evenodd" clip-rule="evenodd" fill="#2D3134" d="M44,19c-0.6,0.3-0.6,0.7,0,1l5,2.5c0.6,0.3,1.4,0.3,2,0
		c0.6-0.3,0.6-0.7,0-1L46,19C45.4,18.7,44.6,18.7,44,19z"/>
</g>
</svg>
