<?xml version="1.0" encoding="utf-8"?>
<!-- Generator: Adobe Illustrator 18.1.0, SVG Export Plug-In . SVG Version: 6.00 Build 0)  -->
<svg version="1.1" id="Layer_1" xmlns="http://www.w3.org/2000/svg" xmlns:xlink="http://www.w3.org/1999/xlink" x="0px" y="0px"
	 viewBox="0 0 32 56" enable-background="new 0 0 32 56" xml:space="preserve">
<path fill-rule="evenodd" clip-rule="evenodd" fill="#2D3134" d="M11.8,16.3c-0.4-0.6-1.1-0.9-1.4-0.6c-0.7,0.7-1.2,1.8-1.2,3.2
	c0,1.4,0.4,2.9,1.2,4.4c0.3,0.6,1,1,1.4,0.8l0,0c0.3-0.2,0.4-0.6,0.1-1.1c-0.5-1-0.8-2.1-0.8-3.2c0-1,0.3-1.8,0.8-2.3
	C12.2,17.3,12.2,16.8,11.8,16.3L11.8,16.3z M26.2,17.8L26.2,17.8c-0.4,0.2-0.4,0.7-0.1,1.2c1.9,3.2,3,6.7,3,9.9c0,3.2-1.1,5.5-3,6.9
	c-0.3,0.2-0.3,0.8,0.1,1.3l0,0c0.4,0.6,1,0.9,1.4,0.6c2.1-1.5,3.4-4.2,3.4-7.8c0-3.6-1.3-7.6-3.4-11.3C27.2,18,26.6,17.6,26.2,17.8z
	 M5.8,7.6L5.8,7.6C5.4,7,4.8,6.7,4.4,7C2.3,8.5,1,11.2,1,14.8c0,3.6,1.3,7.6,3.4,11.3c0.4,0.6,1,1,1.4,0.8l0,0
	c0.4-0.2,0.4-0.7,0.1-1.2c-1.9-3.2-3-6.7-3-9.9c0-3.2,1.1-5.5,3-6.9C6.2,8.7,6.2,8.1,5.8,7.6z M8.7,11.8L8.7,11.8
	c-0.4-0.6-1.1-0.9-1.4-0.6c-1.5,1.1-2.3,3.1-2.3,5.6c0,2.6,0.9,5.4,2.3,8c0.3,0.6,1,1,1.4,0.8l0,0c0.3-0.2,0.4-0.7,0.1-1.2
	c-1.2-2.2-2-4.5-2-6.7c0-2.1,0.7-3.7,2-4.7C9.1,12.8,9,12.3,8.7,11.8z M20.2,20.5L20.2,20.5c-0.3,0.2-0.4,0.6-0.1,1.1
	c0.5,1,0.8,2.1,0.8,3.2c0,1-0.3,1.8-0.8,2.3c-0.3,0.3-0.2,0.8,0.1,1.3l0,0c0.4,0.6,1.1,0.9,1.4,0.6c0.7-0.7,1.2-1.8,1.2-3.2
	c0-1.4-0.4-2.9-1.2-4.4C21.3,20.7,20.6,20.3,20.2,20.5z M23.3,19.1L23.3,19.1c-0.3,0.2-0.4,0.7-0.1,1.2c1.2,2.2,2,4.5,2,6.7
	c0,2.1-0.7,3.7-2,4.7c-0.3,0.2-0.2,0.8,0.1,1.3l0,0c0.4,0.6,1.1,0.9,1.4,0.6c1.5-1.1,2.3-3.1,2.3-5.6c0-2.6-0.9-5.4-2.3-8
	C24.4,19.3,23.7,18.9,23.3,19.1z M16,24.9c1.4,0.7,2.6,0.1,2.6-1.3c0-1.4-1.2-3.2-2.6-3.9c-1.4-0.7-2.6-0.1-2.6,1.3
	C13.4,22.5,14.6,24.2,16,24.9z M15,25.5l2,1l1.9,18.9L13,42.5L15,25.5z"/>
</svg>
