<?xml version="1.0" encoding="utf-8"?>
<!-- Generator: Adobe Illustrator 18.1.0, SVG Export Plug-In . SVG Version: 6.00 Build 0)  -->
<svg version="1.1" id="Layer_1" xmlns="http://www.w3.org/2000/svg" xmlns:xlink="http://www.w3.org/1999/xlink" x="0px" y="0px"
	 viewBox="0 0 64 32" enable-background="new 0 0 64 32" xml:space="preserve">
<g>
	<path fill-rule="evenodd" clip-rule="evenodd" fill="#2D3134" d="M15.8,15.9L18,17l13-6.5l-2.2-1.1c-1-0.5-2.6-0.5-3.6,0l-9.4,4.7
		C14.8,14.6,14.8,15.4,15.8,15.9z"/>
	<path fill-rule="evenodd" clip-rule="evenodd" fill="#2D3134" d="M43,16.5L30,23l2.2,1.1c1,0.5,2.6,0.5,3.6,0l9.4-4.7
		c1-0.5,1-1.3,0-1.8L43,16.5z"/>
	<path fill-rule="evenodd" clip-rule="evenodd" fill="#2D3134" d="M41.1,13.5l-4.2-2.1c-0.5-0.3-1.3-0.3-1.8,0L34,12l-2-1l-13,6.5
		l10,5L42,16l-2-1l1.1-0.5C41.6,14.2,41.6,13.8,41.1,13.5z M36,12l4,2l-1,0.5l-4-2L36,12z"/>
</g>
<path fill-rule="evenodd" clip-rule="evenodd" fill="#2D3134" d="M25.3,3.4L4.8,13.6c-1,0.5-1,1.3,0,1.8l28.5,14.3
	c1,0.5,2.5,0.5,3.5,0l20.5-10.3c1-0.5,1-1.3,0-1.8L28.8,3.4C27.8,2.9,26.2,2.9,25.3,3.4z M35,28.5l-28-14l20-10l28,14L35,28.5z"/>
</svg>
