<?xml version="1.0" encoding="utf-8"?>
<!-- Generator: Adobe Illustrator 18.1.0, SVG Export Plug-In . SVG Version: 6.00 Build 0)  -->
<svg version="1.1" id="Layer_1" xmlns="http://www.w3.org/2000/svg" xmlns:xlink="http://www.w3.org/1999/xlink" x="0px" y="0px"
	 viewBox="0 0 64 32" enable-background="new 0 0 64 32" xml:space="preserve">
<g>
	<path fill="#2D3134" d="M36,2L4,18l24,12l32-16L36,2z M28,28L8,18L36,4l20,10L28,28z"/>
	<polygon fill="#2D3134" points="43,10.5 35,6.5 33,7.5 41,11.5 	"/>
	<polygon fill="#2D3134" points="47,16.5 31,8.5 29,9.5 45,17.5 	"/>
	<polygon fill="#2D3134" points="43,18.5 27,10.5 25,11.5 41,19.5 	"/>
	<polygon fill="#2D3134" points="39,20.5 23,12.5 21,13.5 37,21.5 	"/>
	<polygon fill="#2D3134" points="35,22.5 19,14.5 17,15.5 33,23.5 	"/>
	<polygon fill="#2D3134" points="31,24.5 15,16.5 13,17.5 29,25.5 	"/>
</g>
</svg>
