<?xml version="1.0" encoding="utf-8"?>
<!-- Generator: Adobe Illustrator 18.1.0, SVG Export Plug-In . SVG Version: 6.00 Build 0)  -->
<svg version="1.1" id="Layer_1" xmlns="http://www.w3.org/2000/svg" xmlns:xlink="http://www.w3.org/1999/xlink" x="0px" y="0px"
	 viewBox="0 0 32 32" enable-background="new 0 0 32 32" xml:space="preserve">
<path fill="#2D3134" d="M31.5,21H30v-3h0.5c0.3,0,0.5-0.2,0.5-0.5v-6c0-0.3-0.2-0.5-0.5-0.5h-29C1.2,11,1,11.2,1,11.5v6
	C1,17.8,1.2,18,1.5,18H2v3H0.5C0.2,21,0,21.2,0,21.5v3C0,24.8,0.2,25,0.5,25H1v4.5C1,29.8,1.2,30,1.5,30h2C3.8,30,4,29.8,4,29.5V25
	h24v4.5c0,0.3,0.2,0.5,0.5,0.5h2c0.3,0,0.5-0.2,0.5-0.5V25h0.5c0.3,0,0.5-0.2,0.5-0.5v-3C32,21.2,31.8,21,31.5,21z M5,18h22v3H5V18z
	"/>
</svg>
