<?xml version="1.0" encoding="utf-8"?>
<!-- Generator: Adobe Illustrator 18.1.0, SVG Export Plug-In . SVG Version: 6.00 Build 0)  -->
<svg version="1.1" id="Layer_1" xmlns="http://www.w3.org/2000/svg" xmlns:xlink="http://www.w3.org/1999/xlink" x="0px" y="0px"
	 viewBox="0 0 32 32" enable-background="new 0 0 32 32" xml:space="preserve">
<g>
	<path fill="#2D3134" d="M30.5,0h-4C25.7,0,25,0.7,25,1.5V5H0v3l4,12h21v3H10c-0.8,0-1.5,0.7-1.5,1.5S9.2,26,10,26h16.5
		c0.8,0,1.5-0.7,1.5-1.5V3h2.5C31.3,3,32,2.3,32,1.5S31.3,0,30.5,0z M25,9h-5V7h5V9z M25,15h-5v-2h5V15z M14,9V7h5v2H14z M19,10v2
		h-5v-2H19z M13,9H8V7h5V9z M13,10v2H8v-2H13z M7,12H3.4l-0.7-2H7V12z M3.8,13H7v2H4.4L3.8,13z M8,13h5v2H8V13z M13,16v2H8v-2H13z
		 M14,16h5v2h-5V16z M14,15v-2h5v2H14z M20,12v-2h5v2H20z M2,7h5v2H2.4L2,7.7V7z M4.8,16H7v2H5.4L4.8,16z M20,18v-2h5v2H20z"/>
	<circle fill="#2D3134" cx="13.5" cy="29.5" r="2.5"/>
	<circle fill="#2D3134" cx="23.5" cy="29.5" r="2.5"/>
</g>
</svg>
