<?xml version="1.0" encoding="utf-8"?>
<!-- Generator: Adobe Illustrator 18.1.0, SVG Export Plug-In . SVG Version: 6.00 Build 0)  -->
<svg version="1.1" id="Layer_1" xmlns="http://www.w3.org/2000/svg" xmlns:xlink="http://www.w3.org/1999/xlink" x="0px" y="0px"
	 viewBox="0 0 64 32" enable-background="new 0 0 64 32" xml:space="preserve">
<g>
	<path fill="#2D3134" d="M31.2,13c-0.8,0.4-0.8,1,0,1.4l4.6,2.3c1.4,0.7,1.4,1.8,0,2.5l-7.4,3.7c0,0,10.1,5.1,9.9,5l9.8-4.9
		l-1.4-0.7c-0.8-0.4-0.8-1,0-1.4l0,0c0.8-0.4,0.8-1,0-1.4L34,13C33.2,12.6,32,12.6,31.2,13z"/>
	<path fill="#2D3134" d="M32.7,19.3c1.4-0.7,1.4-1.8,0-2.5l-3.2-1.6c-1.6-0.8-1.6-2,0-2.8c1.6-0.8,4.1-0.8,5.7,0l8.5,4.2l2.8-1.4
		c0.8-0.4,0.8-1,0-1.4c-0.8-0.4-0.8-1,0-1.4l3.3-1.6L38.4,5.2L12.8,18c-0.8,0.4-0.8,1,0,1.4c0.8,0.4,2,0.4,2.8,0
		c-0.8,0.4-0.8,1,0,1.4c0.8,0.4,2,0.4,2.8,0c-0.8,0.4-0.8,1,0,1.4c0.8,0.4,2,0.4,2.8,0c-0.8,0.4-0.8,1,0,1.4c0.8,0.4,2,0.4,2.8,0
		L32.7,19.3z"/>
	<path fill="#2D3134" d="M22,8c-0.8-0.4-2-0.4-2.8,0c-0.8,0.4-0.8,1,0,1.4c-0.8-0.4-2-0.4-2.8,0c-0.8,0.4-0.8,1,0,1.4
		c-0.8-0.4-2-0.4-2.8,0c-0.8,0.4-0.8,1,0,1.4c-0.8-0.4-2-0.4-2.8,0c-0.8,0.4-0.8,1,0,1.4l4,2L26,10L22,8z"/>
</g>
</svg>
