<?xml version="1.0" encoding="utf-8"?>
<!-- Generator: Adobe Illustrator 18.1.0, SVG Export Plug-In . SVG Version: 6.00 Build 0)  -->
<svg version="1.1" id="Layer_1" xmlns="http://www.w3.org/2000/svg" xmlns:xlink="http://www.w3.org/1999/xlink" x="0px" y="0px"
	 viewBox="0 0 64 32" enable-background="new 0 0 64 32" xml:space="preserve">
<path fill-rule="evenodd" clip-rule="evenodd" fill="#2D3134" d="M8.6,13.3c1.5-1.1,3.9-2.6,7.7-4.4C20.1,7,23.6,6,27,5.9
	c3.2-0.1,6.8,0.5,9.7,2c3,1.5,4.6,3.1,4.6,4.8c0,2.1-2.1,4.2-5.7,6c-0.8,0.4-1.6,0.8-2.3,1L44,25l-6,3L8.6,13.3z M28,17
	c0.7-0.2,1.5-0.5,2.4-0.9c3.3-1.6,3.5-3.5,0.4-5c-2.7-1.4-6.1-1.3-9.2,0.2c-1.2,0.6-2.2,1.1-2.5,1.3L28,17z"/>
</svg>
