<?xml version="1.0" encoding="utf-8"?>
<!-- Generator: Adobe Illustrator 18.1.0, SVG Export Plug-In . SVG Version: 6.00 Build 0)  -->
<svg version="1.1" id="Layer_1" xmlns="http://www.w3.org/2000/svg" xmlns:xlink="http://www.w3.org/1999/xlink" x="0px" y="0px"
	 viewBox="0 0 32 56" enable-background="new 0 0 32 56" xml:space="preserve">
<g>
	<path fill-rule="evenodd" clip-rule="evenodd" fill="#2D3134" d="M16.5,19.3C17.9,20,19,19.4,19,18c0-1.4-1.1-3.1-2.5-3.7
		c-1.4-0.7-2.5-0.1-2.5,1.3C14,16.9,15.1,18.6,16.5,19.3z"/>
	<path fill-rule="evenodd" clip-rule="evenodd" fill="#2D3134" d="M27.9,18.8l-0.2-0.3c-0.4-0.6-1.1-1-1.5-0.8l-7.3,3.7l-4.6-2.3
		l-7.3-11c-0.4-0.6-1.1-1-1.5-0.8L5.1,7.5C4.7,7.7,4.7,8.3,5.1,9L13,20.6v20.9c0,0.6,0.4,1.2,1,1.5l1,0.5c0.6,0.3,1,0.1,1-0.5V32
		l1,0.5v11c0,0.6,0.4,1.2,1,1.5l1,0.5c0.6,0.3,1,0.1,1-0.5V24.1l7.9-3.8C28.3,20.1,28.3,19.4,27.9,18.8z"/>
</g>
</svg>
