<?xml version="1.0" encoding="utf-8"?>
<!-- Generator: Adobe Illustrator 18.1.0, SVG Export Plug-In . SVG Version: 6.00 Build 0)  -->
<svg version="1.1" id="Layer_1" xmlns="http://www.w3.org/2000/svg" xmlns:xlink="http://www.w3.org/1999/xlink" x="0px" y="0px"
	 viewBox="0 0 32 32" enable-background="new 0 0 32 32" xml:space="preserve">
<path fill="#2D3134" d="M23.9,9.2C23.8,9.1,23.7,9,23.5,9h-3.8L22,2.7c0.1-0.2,0-0.3-0.1-0.5S21.7,2,21.5,2H17V1h0.5
	C17.8,1,18,0.8,18,0.5C18,0.2,17.8,0,17.5,0h-3C14.2,0,14,0.2,14,0.5C14,0.8,14.2,1,14.5,1H15v1h-4.5c-0.2,0-0.3,0.1-0.4,0.2
	S10,2.5,10,2.7L12.3,9H8.5C8.3,9,8.2,9.1,8.1,9.2S8,9.5,8,9.7l2.2,6.1c0.3,0.8,1,1.3,1.8,1.3v14.5c0,0.3,0.2,0.5,0.5,0.5h7
	c0.3,0,0.5-0.2,0.5-0.5V17h0c0.8,0,1.5-0.5,1.8-1.3L24,9.7C24,9.5,24,9.3,23.9,9.2z M12.9,4.2C13,4.1,13.2,4,13.3,4h5.3
	c0.2,0,0.3,0.1,0.4,0.2s0.1,0.3,0.1,0.5l-1.1,3C18,7.9,17.8,8,17.6,8h-3.2c-0.2,0-0.4-0.1-0.5-0.3l-1.1-3
	C12.8,4.5,12.8,4.3,12.9,4.2z M12.4,15c-0.2,0-0.4-0.1-0.5-0.3l-1.1-3c-0.1-0.2,0-0.3,0.1-0.5s0.2-0.2,0.4-0.2H15v4H12.4z
	 M21.1,11.7l-1.1,3C20,14.9,19.8,15,19.6,15H17v-4h3.7c0.2,0,0.3,0.1,0.4,0.2S21.2,11.5,21.1,11.7z"/>
</svg>
