<?xml version="1.0" encoding="utf-8"?>
<!-- Generator: Adobe Illustrator 18.1.0, SVG Export Plug-In . SVG Version: 6.00 Build 0)  -->
<svg version="1.1" id="Layer_1" xmlns="http://www.w3.org/2000/svg" xmlns:xlink="http://www.w3.org/1999/xlink" x="0px" y="0px"
	 viewBox="0 0 32 56" enable-background="new 0 0 32 56" xml:space="preserve">
<g>
	<path fill-rule="evenodd" clip-rule="evenodd" fill="#2D3134" d="M6.9,14.5L8.1,15c0.5,0.3,0.9,0,0.9-0.5v-4.1C9,9.9,8.6,9.3,8.1,9
		L6.9,8.5C6.4,8.2,6,8.4,6,8.9v4.1C6,13.6,6.4,14.2,6.9,14.5z"/>
	<path fill-rule="evenodd" clip-rule="evenodd" fill="#2D3134" d="M31,26.4c-0.1-1.7-1.4-3.6-3.1-4.4L27,21.5v2.1
		c0,1-0.8,1.5-1.9,0.9l-1.2-0.6c-1-0.5-1.9-1.8-1.9-2.8V19l-12-6v2.1c0,1-0.8,1.5-1.9,0.9l-1.2-0.6c-1-0.5-1.9-1.8-1.9-2.8v-2.1
		L4.1,10c-1.6-0.8-3-0.2-3.1,1.4c0,0,0,0,0,0.1v0.1v2.9v20c0,0.6,0.4,1.2,1,1.5l28,14c0.6,0.3,1,0.1,1-0.5v-20v-2.9L31,26.4
		C31,26.5,31,26.4,31,26.4z M8,37l-5-2.5v-2L6,34v-3l2,1V37z M8,30l-5-2.5v-2L6,27v-3l2,1V30z M8,23l-5-2.5v-5L8,18V23z M15,40.5
		L10,38v-2l3,1.5v-3l2,1V40.5z M15,33.5L10,31v-2l3,1.5v-3l2,1V33.5z M15,26.5L10,24v-5l5,2.5V26.5z M22,44l-5-2.5v-5l5,2.5V44z
		 M22,37l-5-2.5v-2l3,1.5v-3l2,1V37z M22,30l-5-2.5v-2l3,1.5v-3l2,1V30z M29,47.5L24,45v-5l5,2.5V47.5z M29,40.5L24,38v-2l3,1.5v-3
		l2,1V40.5z M29,33.5L24,31v-2l3,1.5v-3l2,1V33.5z"/>
	<path fill-rule="evenodd" clip-rule="evenodd" fill="#2D3134" d="M23.9,23l1.1,0.6c0.5,0.3,0.9,0,0.9-0.5v-4.1
		c0-0.5-0.4-1.1-0.9-1.4L23.9,17c-0.5-0.3-0.9,0-0.9,0.5v4.1C23,22.1,23.4,22.7,23.9,23z"/>
</g>
</svg>
