<?xml version="1.0" encoding="utf-8"?>
<!-- Generator: Adobe Illustrator 18.1.0, SVG Export Plug-In . SVG Version: 6.00 Build 0)  -->
<svg version="1.1" id="Layer_1" xmlns="http://www.w3.org/2000/svg" xmlns:xlink="http://www.w3.org/1999/xlink" x="0px" y="0px"
	 viewBox="0 0 32 56" enable-background="new 0 0 32 56" xml:space="preserve">
<g>
	<path fill="#2D3134" d="M27.2,33.6c0.3-0.2,0.6-0.4,0.9-0.6c2.2-1.7,2.8-3.8,1.8-6.1c-0.6-1.2-1.9-3.1-4.9-4.6
		c-1-0.5-2.2-0.9-3.4-1.3c-1.3-4.5-3.3-7.9-5.6-9.1s-4.4,0.2-5.6,3.5C9.2,14.6,8,13.9,7,13.4c-3-1.5-4.3-1-4.9-0.3
		c-1,1.3-0.4,4.1,1.8,7.9c0.3,0.5,0.6,1,0.9,1.4c-0.3,0.2-0.6,0.4-0.9,0.6c-2.2,1.7-2.8,3.8-1.8,6.1C2.7,30.3,4,32.1,7,33.6
		c1,0.5,2.2,0.9,3.4,1.3c1.3,4.5,3.3,7.9,5.6,9.1s4.4-0.2,5.6-3.5c1.2,0.9,2.3,1.6,3.4,2.1c3,1.5,4.3,1,4.9,0.3
		c1-1.3,0.4-4.1-1.8-7.9C27.8,34.6,27.5,34.1,27.2,33.6z M25,24.4c1.6,0.8,2.7,1.8,3.1,2.7c0.6,1.3,0,2.7-1.6,4
		c-0.2,0.2-0.4,0.3-0.7,0.5c-0.9-1.3-1.9-2.7-3-4c-0.1-1.4-0.3-2.9-0.6-4.2C23.2,23.6,24.1,23.9,25,24.4z M18.5,33.6
		c-0.8,0.1-1.7,0.1-2.5,0.1c-0.8-0.8-1.7-1.7-2.5-2.6c-0.8-0.9-1.6-1.8-2.4-2.7C11,27.4,11,26.5,11,25.5s0-1.9,0.1-2.8
		c0.8-0.1,1.6-0.2,2.4-0.3c0.8-0.1,1.7-0.1,2.5-0.1c0.8,0.8,1.7,1.7,2.5,2.6c0.8,0.9,1.6,1.8,2.4,2.7c0.1,0.9,0.1,1.9,0.1,2.9
		s0,1.9-0.1,2.8C20.1,33.4,19.3,33.5,18.5,33.6z M20.6,35.7c-0.1,0.6-0.2,1.2-0.4,1.7c-0.6-0.5-1.2-1-1.8-1.5c0.4,0,0.7,0,1.1,0
		C19.9,35.8,20.2,35.7,20.6,35.7z M13.6,33.5c-0.6-0.1-1.2-0.2-1.8-0.3c-0.1-0.7-0.3-1.4-0.4-2.1c0.4,0.4,0.7,0.8,1.1,1.2
		C12.9,32.7,13.2,33.1,13.6,33.5z M9,25.8c-0.5-0.7-1-1.3-1.5-2C8,23.6,8.5,23.4,9,23.2c0,0.4,0,0.8,0,1.3S9,25.4,9,25.8z
		 M11.4,20.3c0.1-0.6,0.2-1.2,0.4-1.7c0.6,0.5,1.2,1,1.8,1.5c-0.4,0-0.7,0-1.1,0C12.1,20.2,11.8,20.3,11.4,20.3z M18.4,22.5
		c0.6,0.1,1.2,0.2,1.8,0.3c0.1,0.7,0.3,1.4,0.4,2.1c-0.4-0.4-0.7-0.8-1.1-1.2C19.1,23.3,18.8,22.9,18.4,22.5z M23,30.2
		c0.5,0.7,1,1.3,1.5,2c-0.5,0.2-0.9,0.4-1.5,0.5c0-0.4,0-0.8,0-1.3S23,30.6,23,30.2z M16,14c1.3,0.7,2.7,3.1,3.7,6.6
		c-1.2-0.2-2.4-0.4-3.7-0.5c-1.3-1.2-2.5-2.3-3.7-3.2C13.3,14.4,14.7,13.3,16,14z M3.9,14.9c0.4-0.5,1.5-0.4,3.1,0.4
		c0.9,0.4,1.8,1,2.8,1.7c-0.3,1.1-0.5,2.3-0.6,3.6c-1.1,0.3-2.1,0.6-3,1c-0.2-0.4-0.5-0.8-0.7-1.2C3.9,17.7,3.3,15.6,3.9,14.9z
		 M7,31.6c-1.6-0.8-2.7-1.8-3.1-2.7c-0.6-1.3,0-2.7,1.6-4c0.2-0.2,0.4-0.3,0.7-0.5c0.9,1.3,1.9,2.7,3,4c0.1,1.4,0.3,2.9,0.6,4.2
		C8.8,32.4,7.9,32.1,7,31.6z M16,42c-1.3-0.7-2.7-3.1-3.7-6.6c1.2,0.2,2.4,0.4,3.7,0.5c1.3,1.2,2.5,2.3,3.7,3.2
		C18.7,41.6,17.3,42.7,16,42z M28.1,41.1c-0.4,0.5-1.5,0.4-3.1-0.4c-0.9-0.4-1.8-1-2.8-1.7c0.3-1.1,0.5-2.3,0.6-3.6
		c1.1-0.3,2.1-0.6,3-1c0.2,0.4,0.5,0.8,0.7,1.2C28.1,38.3,28.7,40.4,28.1,41.1z"/>
	<path fill="#2D3134" d="M16,26c-1.1-0.6-2-0.1-2,1c0,1.1,0.9,2.4,2,3s2,0.1,2-1C18,27.9,17.1,26.6,16,26z"/>
</g>
</svg>
