<?xml version="1.0" encoding="utf-8"?>
<!-- Generator: Adobe Illustrator 18.1.0, SVG Export Plug-In . SVG Version: 6.00 Build 0)  -->
<svg version="1.1" id="Layer_1" xmlns="http://www.w3.org/2000/svg" xmlns:xlink="http://www.w3.org/1999/xlink" x="0px" y="0px"
	 viewBox="0 0 32 56" enable-background="new 0 0 32 56" xml:space="preserve">
<g>
	<path fill="#2D3134" d="M22.7,29.1c2,1,3.9,2.7,5.2,4.8c-0.1-3.1-2.6-6.8-5.7-8.3c-0.4-0.2-0.7-0.3-1-0.4c-0.8-3.9-3.9-8.2-7.7-10
		c-3.1-1.5-5.7-1.1-7,0.9C2.9,14.3,0,15.7,0,19.3c0,3.5,2.7,7.6,6.1,9.6v0l5,2.5c0.8-1.6,2.6-2.2,4.8-1.3
		C17.1,28.1,19.7,27.7,22.7,29.1z"/>
	<path fill="#2D3134" d="M27.5,36.6c-0.9-2.2-2.7-4.4-4.9-5.4c-2.6-1.3-4.8-0.6-5.3,1.6c-0.2-0.2-0.5-0.3-0.7-0.4
		c-2.2-1.1-3.9-0.2-3.9,2c0,2.2,1.8,4.8,3.9,5.9l11.2,5.6v0c2.4,1,4.2,0,4.2-2.4C32,40.9,30,37.9,27.5,36.6z"/>
</g>
</svg>
