<?xml version="1.0" encoding="utf-8"?>
<!-- Generator: Adobe Illustrator 18.1.0, SVG Export Plug-In . SVG Version: 6.00 Build 0)  -->
<svg version="1.1" id="Layer_1" xmlns="http://www.w3.org/2000/svg" xmlns:xlink="http://www.w3.org/1999/xlink" x="0px" y="0px"
	 viewBox="0 0 32 56" enable-background="new 0 0 32 56" xml:space="preserve">
<g>
	<path fill="#2D3134" d="M30.5,19.2l-4-2C25.7,16.8,25,17.2,25,18v3.5L0,9v3l4,14l21,10.5v3L10,32c-0.8-0.4-1.5-0.1-1.5,0.8
		c0,0.8,0.7,1.8,1.5,2.2l16.5,8.2c0.8,0.4,1.5,0.1,1.5-0.8V21l2.5,1.2c0.8,0.4,1.5,0.1,1.5-0.8S31.3,19.7,30.5,19.2z M25,25.5L20,23
		v-2l5,2.5V25.5z M25,31.5L20,29v-2l5,2.5V31.5z M14,20v-2l5,2.5v2L14,20z M19,23.5v2L14,23v-2L19,23.5z M13,19.5L8,17v-2l5,2.5
		V19.5z M13,20.5v2L8,20v-2L13,20.5z M7,19.5l-3.6-1.8l-0.7-2.3L7,17.5V19.5z M3.8,18.9L7,20.5v2l-2.6-1.3L3.8,18.9z M8,21l5,2.5v2
		L8,23V21z M13,26.5v2L8,26v-2L13,26.5z M14,27l5,2.5v2L14,29V27z M14,26v-2l5,2.5v2L14,26z M20,26v-2l5,2.5v2L20,26z M2,12l5,2.5v2
		l-4.6-2.3L2,12.7V12z M4.8,22.4L7,23.5v2l-1.6-0.8L4.8,22.4z M20,32v-2l5,2.5v2L20,32z"/>
	<path fill="#2D3134" d="M13.5,37.7C12.1,37.1,11,37.6,11,39c0,1.4,1.1,3.1,2.5,3.7s2.5,0.1,2.5-1.3C16,40.1,14.9,38.4,13.5,37.7z"
		/>
	<path fill="#2D3134" d="M23.5,42.7C22.1,42.1,21,42.6,21,44c0,1.4,1.1,3.1,2.5,3.7s2.5,0.1,2.5-1.3C26,45.1,24.9,43.4,23.5,42.7z"
		/>
</g>
</svg>
