<?xml version="1.0" encoding="utf-8"?>
<!-- Generator: Adobe Illustrator 18.1.0, SVG Export Plug-In . SVG Version: 6.00 Build 0)  -->
<svg version="1.1" id="Layer_1" xmlns="http://www.w3.org/2000/svg" xmlns:xlink="http://www.w3.org/1999/xlink" x="0px" y="0px"
	 viewBox="0 0 64 32" enable-background="new 0 0 64 32" xml:space="preserve">
<path fill="#2D3134" d="M48.6,8.3C48.4,8.1,48.2,8,48,8l-7,2l-3.5-1.7c-0.1,0-0.1-0.1-0.2-0.1h-6c-0.2,0-0.4,0.2-0.5,0.4
	c-0.1,0.2,0.1,0.5,0.3,0.6l4.7,2.4l-6.5,1.9l-3.5-1.8c-0.1,0-0.1-0.1-0.2-0.1h-6c-0.2,0-0.4,0.2-0.5,0.4c-0.1,0.2,0.1,0.5,0.3,0.6
	L24,15L8.9,19.3c-0.2,0.1-0.4,0.3-0.4,0.6c0,0.2,0.2,0.4,0.5,0.4h15.9V28c0,0.2,0.1,0.4,0.3,0.5c0.1,0,0.1,0,0.2,0
	c0.1,0,0.2,0,0.3-0.1l9.2-7.9l5.5,2.8c0.1,0,0.1,0.1,0.2,0.1c0.1,0,0.2,0,0.3-0.1c0.1-0.1,0.2-0.3,0.2-0.4v-3c0-0.2-0.1-0.4-0.3-0.4
	L38,17.9l3.8-3.3l5.5,2.7c0.1,0,0.1,0.1,0.2,0.1c0.1,0,0.2,0,0.3-0.1c0.1-0.1,0.2-0.3,0.2-0.4v-3c0-0.1,0-0.2-0.1-0.3v0h0
	c0,0-0.1-0.1-0.1-0.1L44.8,12l3.6-3.1C48.6,8.7,48.7,8.5,48.6,8.3z M39.5,10.5l-2.2,0.6V9.4L39.5,10.5z M32.4,18.1h3.8l0,0l-1.4,1.2
	L32.4,18.1z M36.4,13.6h-4l4-1.1V13.6z M37.4,12.4l2.4,1.2h-2.4V12.4z M30.4,17v-1.9l3.8,1.9L30.4,17L30.4,17z M31.4,14.6h5V17
	L31.4,14.6z M29.4,14.7v1.9l-2.7-1.3l2.4-0.7L29.4,14.7z M37.4,14.6h2.9l-2.9,2.5V14.6z M38.5,11.8l2.4-0.7l2.2,1.1l-1.4,1.2
	L38.5,11.8z M36.4,9.3v1.5l-3-1.5H36.4z M25.9,14.4v-1.5l1.8,0.9L25.9,14.4z M24.9,12.6v1.7l-3.4-1.7H24.9z M24.9,19.3H12.6
	l12.4-3.6V19.3z M25.9,26.9v-6.6h7.7L25.9,26.9z M25.9,19.3v-3.4l6.7,3.4H25.9z M36.9,20.3h3.3V22L36.9,20.3z M38.7,19.3h-2.3
	l0.9-0.7L38.7,19.3z M44,14.6h3v1.5L44,14.6z M45.7,13.6H43l1-0.9L45.7,13.6z M43.9,11.5l-1.6-0.8L46,9.6L43.9,11.5z"/>
</svg>
