<?xml version="1.0" encoding="utf-8"?>
<!-- Generator: Adobe Illustrator 18.1.0, SVG Export Plug-In . SVG Version: 6.00 Build 0)  -->
<svg version="1.1" id="Layer_1" xmlns="http://www.w3.org/2000/svg" xmlns:xlink="http://www.w3.org/1999/xlink" x="0px" y="0px"
	 viewBox="0 0 64 32" enable-background="new 0 0 64 32" xml:space="preserve">
<path fill="#2D3134" d="M49.1,21.7c0,0-0.8-1.1-1.4-1.4c-0.9-0.5-1.8-0.5-2.7-0.4l-3.5-1.8c-1.9-1-5.1-1-7,0l-2.9,1.5
	c-0.8,0.4-2.1,0.5-3,0.1c-0.9-0.4-0.9-1.1-0.1-1.5l6.9-3.4c1.9-1,2.1-2.5,0.3-3.5c-1.9-1-5.1-1-7.1-0.1l-3,1.5c-0.8,0.4-2.2,0.4-3,0
	L16,9.5c-0.6-0.3-1.4-0.3-2,0l0,0c-0.6,0.3-0.6,0.7,0,1l6.5,3.2c1.9,1,5.1,1,7,0l2.9-1.5c0.8-0.4,2.1-0.5,3-0.1
	c0.9,0.4,0.9,1.1,0.1,1.5l-6.9,3.4c-1.9,1-2.1,2.5-0.3,3.5c1.9,1,5.1,1,7.1,0.1l3-1.5c0.8-0.4,2.2-0.4,3,0L43,21
	c-0.2,0.5-0.1,0.9,0.7,1.4c0.5,0.3,2.7,0.7,2.7,0.7c0.8,0.2,1.7,0.1,2.3-0.2v0C49.3,22.6,49.5,22.1,49.1,21.7z"/>
</svg>
