<?xml version="1.0" encoding="utf-8"?>
<!-- Generator: Adobe Illustrator 18.1.0, SVG Export Plug-In . SVG Version: 6.00 Build 0)  -->
<svg version="1.1" id="Layer_1" xmlns="http://www.w3.org/2000/svg" xmlns:xlink="http://www.w3.org/1999/xlink" x="0px" y="0px"
	 viewBox="0 0 32 56" enable-background="new 0 0 32 56" xml:space="preserve">
<path fill-rule="evenodd" clip-rule="evenodd" fill="#2D3134" d="M29.2,30.6L20,26v-9.2c0-1-0.8-2.2-1.8-2.7l-4.4-2.2
	c-1-0.5-1.8-0.1-1.8,0.9V22l-9.2-4.6c-1-0.5-1.8-0.1-1.8,0.9v4.4c0,1,0.8,2.2,1.8,2.7L12,30v9.2c0,1,0.8,2.2,1.8,2.7l4.4,2.2
	c1,0.5,1.8,0.1,1.8-0.9V34l9.2,4.6c1,0.5,1.8,0.1,1.8-0.9v-4.4C31,32.3,30.2,31.1,29.2,30.6z"/>
</svg>
