<?xml version="1.0" encoding="utf-8"?>
<!-- Generator: Adobe Illustrator 18.1.0, SVG Export Plug-In . SVG Version: 6.00 Build 0)  -->
<svg version="1.1" id="Layer_1" xmlns="http://www.w3.org/2000/svg" xmlns:xlink="http://www.w3.org/1999/xlink" x="0px" y="0px"
	 viewBox="0 0 32 32" enable-background="new 0 0 32 32" xml:space="preserve">
<path fill="#2D3134" d="M31.5,17h-0.8l-2.3-2.3c0.4-0.3,0.6-0.7,0.6-1.2c0-0.3-0.2-0.5-0.5-0.5S28,13.2,28,13.5
	c0,0.3-0.2,0.5-0.5,0.5S27,13.8,27,13.5s0.2-0.5,0.5-0.5c0.3,0,0.5-0.2,0.5-0.5v-8c0-0.1,0-0.1,0-0.2c0,0,0,0,0,0c0,0,0,0,0,0
	c0-0.1-0.1-0.1-0.1-0.2c0,0-0.1,0-0.1-0.1c0,0-0.1,0-0.2,0c0,0,0,0-0.1,0h-7.6h-0.7h-7.6h-0.7L8.4,0.2C8.2,0,7.8-0.1,7.6,0.2L5.2,4
	H4.5h-4C0.2,4,0,4.2,0,4.5v1c0,0.1,0.1,0.3,0.1,0.4l3,3C3.2,8.9,3.4,9,3.5,9H4v2.5C4,11.8,4.2,12,4.5,12H5v19H4.5
	C4.2,31,4,31.2,4,31.5C4,31.8,4.2,32,4.5,32h7c0.3,0,0.5-0.2,0.5-0.5c0-0.3-0.2-0.5-0.5-0.5H11V12h0.5c0.3,0,0.5-0.2,0.5-0.5V9h3.1
	l0,0h0.7l0,0h7.6c0.1,0,0.3-0.1,0.4-0.1L27,5.7v6.4c-0.6,0.2-1,0.8-1,1.4c0,0.5,0.2,0.9,0.6,1.2L24.3,17h-0.8
	c-0.3,0-0.5,0.2-0.5,0.5v2c0,0.3,0.2,0.5,0.5,0.5h8c0.3,0,0.5-0.2,0.5-0.5v-2C32,17.2,31.8,17,31.5,17z M4,8H3.7L1,5.3V5h3V8z
	 M8,1.4L9.6,4H6.4L8,1.4z M6,12.7l3.8,3.8L6,20.3V12.7z M6.7,12H10v3.3L6.7,12z M10,17.7v7.6l-3.8-3.8L10,17.7z M6,22.7l3.8,3.8
	L6,30.3V22.7z M6.7,31l3.3-3.3V31H6.7z M11,8.5C11,8.8,10.8,9,10.5,9h-3C7.2,9,7,8.8,7,8.5v-2C7,6.2,7.2,6,7.5,6h3
	C10.8,6,11,6.2,11,6.5V8.5z M12,8V5.8L14.1,8H12z M15.5,7.7L12.7,5h5.5L15.5,7.7z M16.9,8l2.6-2.7L22.2,8H16.9z M23.5,7.7L20.8,5
	h5.5L23.5,7.7z M25.7,17l1.8-1.8l1.8,1.8H25.7z"/>
</svg>
