<?xml version="1.0" encoding="utf-8"?>
<!-- Generator: Adobe Illustrator 18.1.0, SVG Export Plug-In . SVG Version: 6.00 Build 0)  -->
<svg version="1.1" id="Layer_1" xmlns="http://www.w3.org/2000/svg" xmlns:xlink="http://www.w3.org/1999/xlink" x="0px" y="0px"
	 viewBox="0 0 64 32" enable-background="new 0 0 64 32" xml:space="preserve">
<path fill-rule="evenodd" clip-rule="evenodd" fill="#2D3134" d="M45,16.5L44,13l1-0.5l-2-1l2.7-1.3c0.7-0.4,1.9-0.4,2.7,0L60,16
	l2-1L50.1,9c-1.7-0.8-4.4-0.8-6.1,0L41,10.5l-2-1L38,10l-7-0.5l-2,1l14,7L45,16.5z M41.5,20.3c0.8-0.4,0.8-1.1,0-1.5s-2.2-0.4-3,0
	s-0.8,1.1,0,1.5S40.7,20.7,41.5,20.3z M36.5,17.8c0.8-0.4,0.8-1.1,0-1.5s-2.2-0.4-3,0s-0.8,1.1,0,1.5S35.7,18.2,36.5,17.8z
	 M31.5,13.8c-0.8-0.4-2.2-0.4-3,0s-0.8,1.1,0,1.5s2.2,0.4,3,0S32.3,14.2,31.5,13.8z M26.5,12.8c0.8-0.4,0.8-1.1,0-1.5s-2.2-0.4-3,0
	s-0.8,1.1,0,1.5S25.7,13.2,26.5,12.8z M38.5,23.8c0.8-0.4,0.8-1.1,0-1.5s-2.2-0.4-3,0s-0.8,1.1,0,1.5S37.7,24.2,38.5,23.8z
	 M32.5,20.8c0.8-0.4,0.8-1.1,0-1.5s-2.2-0.4-3,0s-0.8,1.1,0,1.5S31.7,21.2,32.5,20.8z M25.5,15.8c-0.8-0.4-2.2-0.4-3,0
	s-0.8,1.1,0,1.5s2.2,0.4,3,0S26.3,16.2,25.5,15.8z M19.5,12.8c-0.8-0.4-2.2-0.4-3,0s-0.8,1.1,0,1.5s2.2,0.4,3,0S20.3,13.2,19.5,12.8
	z M35.5,27.3c0.8-0.4,0.8-1.1,0-1.5s-2.2-0.4-3,0s-0.8,1.1,0,1.5S34.7,27.7,35.5,27.3z M28.5,23.8c0.8-0.4,0.8-1.1,0-1.5
	s-2.2-0.4-3,0s-0.8,1.1,0,1.5S27.7,24.2,28.5,23.8z M19.5,17.8c-0.8-0.4-2.2-0.4-3,0s-0.8,1.1,0,1.5s2.2,0.4,3,0
	S20.3,18.2,19.5,17.8z M12.5,14.3c-0.8-0.4-2.2-0.4-3,0s-0.8,1.1,0,1.5s2.2,0.4,3,0S13.3,14.7,12.5,14.3z M32.5,29.3
	c-0.8-0.4-2.2-0.4-3,0s-0.8,1.1,0,1.5s2.2,0.4,3,0S33.3,29.7,32.5,29.3z M24.5,25.3c-0.8-0.4-2.2-0.4-3,0s-0.8,1.1,0,1.5
	s2.2,0.4,3,0S25.3,25.7,24.5,25.3z M13.5,19.8c-0.8-0.4-2.2-0.4-3,0s-0.8,1.1,0,1.5s2.2,0.4,3,0S14.3,20.2,13.5,19.8z M5.5,15.8
	c-0.8-0.4-2.2-0.4-3,0s-0.8,1.1,0,1.5s2.2,0.4,3,0S6.3,16.2,5.5,15.8z"/>
</svg>
