<?xml version="1.0" encoding="utf-8"?>
<!-- Generator: Adobe Illustrator 18.1.0, SVG Export Plug-In . SVG Version: 6.00 Build 0)  -->
<svg version="1.1" id="Layer_1" xmlns="http://www.w3.org/2000/svg" xmlns:xlink="http://www.w3.org/1999/xlink" x="0px" y="0px"
	 viewBox="0 0 64 32" enable-background="new 0 0 64 32" xml:space="preserve">
<path fill-rule="evenodd" clip-rule="evenodd" fill="#2D3134" d="M21.7,7.2L16,10l13,6.5l6.9-3.5L24.2,7.2
	C23.5,6.8,22.4,6.8,21.7,7.2z M3.2,16.4c-0.7,0.3-0.7,0.9,0,1.2L15,23.5l11.9-5.9l-13-6.5L3.2,16.4z M17,24.5l11.7,5.9
	c0.7,0.3,1.8,0.3,2.5,0L41.9,25l-13-6.5L17,24.5z M49.7,19.9L37.9,14L31,17.5L44,24l5.7-2.8C50.3,20.8,50.3,20.2,49.7,19.9z
	 M41.9,13.7c1,1.2,4.5,2.7,6.5,3.7c1.5,0.8,4.2-0.1,5-1.1l2.1-2.7c0.8-1,0-2.5-2.2-2.5c-2.2,0-6.9-0.1-9.6,0.6
	c-0.1-0.1-0.2-0.2-0.4-0.3l-2.4-1.2c-0.2-0.1-0.4-0.2-0.6-0.2c1.3-1.4,1.1-3.8,1.1-4.8c-0.2-1.3-3-1.5-5-1.1l-5.4,1.1
	c-2,0.4-3.7,1.7-2.2,2.5c1.6,0.8,4.8,2.8,7.5,3.3c-0.4,0.4-0.3,1,0.4,1.3l2.4,1.2C40,13.8,41.1,13.9,41.9,13.7z"/>
</svg>
