<?xml version="1.0" encoding="utf-8"?>
<!-- Generator: Adobe Illustrator 18.1.0, SVG Export Plug-In . SVG Version: 6.00 Build 0)  -->
<svg version="1.1" id="Layer_1" xmlns="http://www.w3.org/2000/svg" xmlns:xlink="http://www.w3.org/1999/xlink" x="0px" y="0px"
	 viewBox="0 0 32 32" enable-background="new 0 0 32 32" xml:space="preserve">
<path fill="#2D3134" d="M32,28V4h-2V3c0-0.6-0.4-1-1-1h-8.5c-1.7,0-3.2,0.8-4.2,2h-0.5c-1-1.2-2.5-2-4.2-2H3C2.4,2,2,2.4,2,3v1H0v24
	h13.4c0,0,0,0,0,0c0.5,0.6,1.5,1,2.6,1s2.1-0.4,2.6-1c0,0,0,0,0,0H32z M20.5,4H28v21h-3.5c-2,0-4,0.3-6,0.9
	c-0.4-0.4-0.9-0.7-1.5-0.8V7.5C17,5.6,18.6,4,20.5,4z M4,4h7.5C13.4,4,15,5.6,15,7.5v17.6c-0.6,0.1-1.2,0.4-1.5,0.8
	c-1.9-0.6-3.9-0.9-6-0.9H4V4z"/>
</svg>
