<?xml version="1.0" encoding="utf-8"?>
<!-- Generator: Adobe Illustrator 18.1.0, SVG Export Plug-In . SVG Version: 6.00 Build 0)  -->
<svg version="1.1" id="Layer_1" xmlns="http://www.w3.org/2000/svg" xmlns:xlink="http://www.w3.org/1999/xlink" x="0px" y="0px"
	 viewBox="0 0 64 32" enable-background="new 0 0 64 32" xml:space="preserve">
<g>
	<path fill-rule="evenodd" clip-rule="evenodd" fill="#2D3134" d="M33.8,24c0.3,0.5,0.8,0.9,1.5,1.3c2.3,1.2,6.1,1.2,8.4,0
		c2.3-1.2,2.3-3,0-4.2c-0.1-0.1-0.3-0.1-0.4-0.2l1-0.5L21.6,9l-2.3,1.2c-4.7,2.4-7.1,6.5-5,9.4l-8.2-4.1c-0.9,1,0.2,2.6,2.8,4
		l14.5,7.2c2.6,1.3,5.9,1.9,7.9,1.4L23.2,24C26.3,24.6,30.2,24.5,33.8,24z M41.7,21.7c0.2,0.1,0.3,0.1,0.5,0.2
		c1.4,0.7,1.4,1.9,0,2.6c-1.4,0.7-3.8,0.7-5.2,0c-0.5-0.3-0.9-0.6-1-0.9C38.1,23.1,40,22.5,41.7,21.7z"/>
	<path fill-rule="evenodd" clip-rule="evenodd" fill="#2D3134" d="M33.6,13.8c0,0,5.7,1.2,8-0.3c2.4-1.6,0.2-2.5,1.8-3.8
		c1.9-1.5,4.9-1.2,4.9-1.2s-3.9-1.1-7,0.1c-2.7,1-1.7,2.2-2.8,3.3C37.3,12.9,33.6,13.8,33.6,13.8z"/>
</g>
</svg>
