<?xml version="1.0" encoding="utf-8"?>
<!-- Generator: Adobe Illustrator 18.1.0, SVG Export Plug-In . SVG Version: 6.00 Build 0)  -->
<svg version="1.1" id="Layer_1" xmlns="http://www.w3.org/2000/svg" xmlns:xlink="http://www.w3.org/1999/xlink" x="0px" y="0px"
	 viewBox="0 0 32 56" enable-background="new 0 0 32 56" xml:space="preserve">
<g>
	<path fill="#2D3134" d="M4,6v32l24,12V18L4,6z M26,47L6,37V9l20,10V47z"/>
	<polygon fill="#2D3134" points="21,32.5 19,33.5 19,36.5 10,32 10,23 17,26.5 19,25.5 8,20 8,33 21,39.5 	"/>
	<path fill="#2D3134" d="M20.4,26.7l-4.9,2.5l-1.9-2.9c-0.6-0.9-1.5-1.4-2.1-1.1s-0.6,1.2,0,2.1l4.1,6.1l7.1-3.5
		c0.6-0.3,0.6-1.2,0-2.1S21,26.4,20.4,26.7z"/>
	<polygon fill="#2D3134" points="24,20 8,12 8,16 24,24 	"/>
</g>
</svg>
