<?xml version="1.0" encoding="utf-8"?>
<!-- Generator: Adobe Illustrator 18.1.0, SVG Export Plug-In . SVG Version: 6.00 Build 0)  -->
<svg version="1.1" id="Layer_1" xmlns="http://www.w3.org/2000/svg" xmlns:xlink="http://www.w3.org/1999/xlink" x="0px" y="0px"
	 viewBox="0 0 32 56" enable-background="new 0 0 32 56" xml:space="preserve">
<path fill-rule="evenodd" clip-rule="evenodd" fill="#2D3134" d="M22,42v-1.1c1.7,0.4,3-0.5,3-2.4v-14c0-3-2.2-6.5-5-8.4v-0.6
	c0-0.8-0.7-1.8-1.5-2.2S17,13.2,17,14v0.5l-2-1V13c0-0.8-0.7-1.8-1.5-2.2c-0.8-0.4-1.5-0.1-1.5,0.8v0.6c-2.8-0.9-5,0.5-5,3.4v14
	c0,1.9,1.3,4.1,3,5.4V36l-5,2.5l4,2l2.4-2.8l9.2,4.6l2.4,5.2l4,2L22,42z M16,16c0.8,0.4,1.5,1.4,1.5,2.2S16.8,19.4,16,19
	s-1.5-1.4-1.5-2.2C14.5,15.9,15.2,15.6,16,16z M9,24.5v-7l14,7v7L9,24.5z M11.5,33.8c-0.8-0.4-1.5-1.4-1.5-2.2
	c0-0.8,0.7-1.2,1.5-0.8S13,32.2,13,33S12.3,34.2,11.5,33.8z M19,40.5l-6-3v-1l6,3V40.5z M20.5,38.3C19.7,37.8,19,36.8,19,36
	s0.7-1.2,1.5-0.8s1.5,1.4,1.5,2.2S21.3,38.7,20.5,38.3z"/>
</svg>
