<?xml version="1.0" encoding="utf-8"?>
<!-- Generator: Adobe Illustrator 18.1.0, SVG Export Plug-In . SVG Version: 6.00 Build 0)  -->
<svg version="1.1" id="Layer_1" xmlns="http://www.w3.org/2000/svg" xmlns:xlink="http://www.w3.org/1999/xlink" x="0px" y="0px"
	 viewBox="0 0 32 56" enable-background="new 0 0 32 56" xml:space="preserve">
<path fill-rule="evenodd" clip-rule="evenodd" fill="#2D3134" d="M30.4,21.2L1.6,6.8C0.7,6.4,0,6.7,0,7.6v18.8c0,0.9,0.7,2,1.6,2.4
	L14,35v3l-3-1.5c-1.1-0.5-2-0.1-2,1v1l14,7v-1c0-1.1-0.9-2.4-2-3L18,40v-3l12.4,6.2c0.9,0.4,1.6,0.1,1.6-0.8V23.6
	C32,22.7,31.3,21.6,30.4,21.2z M30,40L2,26V9l28,14V40z"/>
</svg>
