<?xml version="1.0" encoding="utf-8"?>
<!-- Generator: Adobe Illustrator 18.1.0, SVG Export Plug-In . SVG Version: 6.00 Build 0)  -->
<svg version="1.1" id="Layer_1" xmlns="http://www.w3.org/2000/svg" xmlns:xlink="http://www.w3.org/1999/xlink" x="0px" y="0px"
	 viewBox="0 0 32 56" enable-background="new 0 0 32 56" xml:space="preserve">
<g>
	<path fill="#2D3134" d="M16.4,12.3c-0.2-0.3-0.5-0.5-0.7-0.4l-5.9,2.9l12.4,6.2L16.4,12.3z"/>
	<path fill="#2D3134" d="M20,28l2,1v-2l-12-6v2l2,1L9.1,38.6L8,38v2l6,3v-5c0-1.1,0.9-1.6,2-1s2,1.9,2,3v5l6,3v-2l-1.1-0.6L20,28z"
		/>
	<polygon fill="#2D3134" points="19,21.5 19,23.5 31,32.5 31,24.5 	"/>
	<polygon fill="#2D3134" points="13,18.5 1,9.5 1,17.5 13,20.5 	"/>
	<path fill="#2D3134" d="M14,20c0,1.1,0.9,2.4,2,3c1.1,0.6,2,0.1,2-1c0-1.1-0.9-2.4-2-3C14.9,18.4,14,18.9,14,20z"/>
</g>
</svg>
