<?xml version="1.0" encoding="utf-8"?>
<!-- Generator: Adobe Illustrator 18.1.0, SVG Export Plug-In . SVG Version: 6.00 Build 0)  -->
<svg version="1.1" id="Layer_1" xmlns="http://www.w3.org/2000/svg" xmlns:xlink="http://www.w3.org/1999/xlink" x="0px" y="0px"
	 viewBox="0 0 32 32" enable-background="new 0 0 32 32" xml:space="preserve">
<g>
	<path fill-rule="evenodd" clip-rule="evenodd" fill="#2D3134" d="M4.6,20h22.8c0.9,0,1.6-0.7,1.6-1.6V4.6C29,3.7,28.3,3,27.4,3H4.6
		C3.7,3,3,3.7,3,4.6v13.8C3,19.3,3.7,20,4.6,20z M5,5h22v13H5V5z"/>
	<path fill-rule="evenodd" clip-rule="evenodd" fill="#2D3134" d="M31.8,26.6l-2.4-4.7C29.2,21.4,28.6,21,28,21H4
		c-0.6,0-1.2,0.4-1.5,0.9l-2.4,4.7C-0.4,27.7,0.4,29,1.7,29h28.7C31.6,29,32.4,27.7,31.8,26.6z M21.4,27H10.6
		c-0.3,0-0.4-0.3-0.3-0.5l0.6-1.3c0.1-0.1,0.2-0.2,0.3-0.2h9.6c0.1,0,0.3,0.1,0.3,0.2l0.6,1.3C21.9,26.7,21.7,27,21.4,27z"/>
</g>
</svg>
