<?xml version="1.0" encoding="utf-8"?>
<!-- Generator: Adobe Illustrator 18.1.0, SVG Export Plug-In . SVG Version: 6.00 Build 0)  -->
<svg version="1.1" id="Layer_1" xmlns="http://www.w3.org/2000/svg" xmlns:xlink="http://www.w3.org/1999/xlink" x="0px" y="0px"
	 viewBox="0 0 32 32" enable-background="new 0 0 32 32" xml:space="preserve">
<g>
	<path fill-rule="evenodd" clip-rule="evenodd" fill="#2D3134" d="M24,15c1.1-1.2,2.4-2.8,2.4-4c0-0.5-0.9-1.3-2.2-2V8.9
		c0-0.1,0-0.1,0-0.2c0-0.4,0-0.8,0-1.2c0-1.5-2.8-4.5-4.9-4.5c0,0-0.1,0-0.3,0V1.1C19,0.5,18.6,0,17.7,0h-1.3C15.5,0,15,0.5,15,1.1
		v1.9c-0.2,0-0.4,0-0.4,0c-2,0-4.9,3.1-4.9,4.5c0,0.4,0,0.8,0,1.2c0,0.1,0,0.1,0,0.2V9c-1.3,0.8-2.2,1.5-2.2,2c0,1.1,1.4,2.7,2.5,4
		v10H7c0,1.7,1.3,3,3,3s3-1.3,3-3c0,1.7,1.3,3,3,3s3-1.3,3-3c0,1.7,1.3,3,3,3s3-1.3,3-3h-1V15z M10.9,8.3
		C10.9,8.4,10.9,8.4,10.9,8.3c-0.1-0.5-0.1-0.8-0.1-0.8C10.9,6.8,13.5,4,15,4h4c1.5,0,4,2.8,4,3.6c0,0,0,0.3,0,0.8
		c-0.2-0.1-0.4-0.2-0.6-0.3C18.7,6.5,14.5,6.6,10.9,8.3z"/>
	<path fill-rule="evenodd" clip-rule="evenodd" fill="#2D3134" d="M4,32c1.7,0,3-1.3,3-3H1C1,30.7,2.3,32,4,32z"/>
	<path fill-rule="evenodd" clip-rule="evenodd" fill="#2D3134" d="M10,32c1.7,0,3-1.3,3-3H7C7,30.7,8.3,32,10,32z"/>
	<path fill-rule="evenodd" clip-rule="evenodd" fill="#2D3134" d="M16,32c1.7,0,3-1.3,3-3h-6C13,30.7,14.3,32,16,32z"/>
	<path fill-rule="evenodd" clip-rule="evenodd" fill="#2D3134" d="M25,25c0,1.7,1.3,3,3,3s3-1.3,3-3H25z"/>
</g>
</svg>
