<?xml version="1.0" encoding="utf-8"?>
<!-- Generator: Adobe Illustrator 18.1.0, SVG Export Plug-In . SVG Version: 6.00 Build 0)  -->
<svg version="1.1" id="Layer_1" xmlns="http://www.w3.org/2000/svg" xmlns:xlink="http://www.w3.org/1999/xlink" x="0px" y="0px"
	 viewBox="0 0 64 32" enable-background="new 0 0 64 32" xml:space="preserve">
<path fill-rule="evenodd" clip-rule="evenodd" fill="#2D3134" d="M49.2,20.6L40,16l9.2-4.6c1-0.5,1-1.3,0-1.8l-4.4-2.2
	c-1-0.5-2.6-0.5-3.6,0L32,12l-9.2-4.6c-1-0.5-2.6-0.5-3.6,0l-4.4,2.2c-1,0.5-1,1.3,0,1.8L24,16l-9.2,4.6c-1,0.5-1,1.3,0,1.8l4.4,2.2
	c1,0.5,2.6,0.5,3.6,0L32,20l9.2,4.6c1,0.5,2.6,0.5,3.6,0l4.4-2.2C50.2,21.9,50.2,21.1,49.2,20.6z"/>
</svg>
