<?xml version="1.0" encoding="utf-8"?>
<!-- Generator: Adobe Illustrator 18.1.0, SVG Export Plug-In . SVG Version: 6.00 Build 0)  -->
<svg version="1.1" id="Layer_1" xmlns="http://www.w3.org/2000/svg" xmlns:xlink="http://www.w3.org/1999/xlink" x="0px" y="0px"
	 viewBox="0 0 32 56" enable-background="new 0 0 32 56" xml:space="preserve">
<path fill="#2D3134" d="M24.4,18.3c-4.3-2.9-8.4-2.1-8.4,0c0-2-4.1-7-8.4-8.4c-4.9-1.6-7.5,2.2-3.9,11.6C7.2,30.9,16,42,16,42
	s8.8-2.4,12.3-8.2C31.9,28,29.3,21.6,24.4,18.3z M9,15.5c-1.1-0.6-2-0.1-2,1c0,0.6-0.4,0.8-1,0.5s-1-0.9-1-1.5c0-2.2,1.8-3.1,4-2
	c0.6,0.3,1,0.9,1,1.5S9.6,15.8,9,15.5z"/>
</svg>
