<?xml version="1.0" encoding="utf-8"?>
<!-- Generator: Adobe Illustrator 18.1.0, SVG Export Plug-In . SVG Version: 6.00 Build 0)  -->
<svg version="1.1" id="Layer_1" xmlns="http://www.w3.org/2000/svg" xmlns:xlink="http://www.w3.org/1999/xlink" x="0px" y="0px"
	 viewBox="0 0 64 32" enable-background="new 0 0 64 32" xml:space="preserve">
<path fill-rule="evenodd" clip-rule="evenodd" fill="#2D3134" d="M27,24.5l1.1-0.6c2.2,0.6,5,0.5,6.9-0.4l14-7
	c3-1.5,3.3-3.8,0.9-5.5l0.6-0.3c0.8-0.4,0.8-1.1,0-1.5s-2.2-0.4-3,0L47,9.5l-2-1l0.5-0.3c0.8-0.4,0.8-1.1,0-1.5s-2.2-0.4-3,0L41.9,7
	c-3.3-1.2-8-1-10.9,0.5l-14,7c-1.9,0.9-2.1,2.3-0.9,3.4L15,18.5H5l4,2l6.4-0.8l9.2,4.6L23,27.5l4,2V24.5z M44,10
	c0.8,0.4,0.8,1.1,0,1.5s-2.2,0.4-3,0s-0.8-1.1,0-1.5S43.2,9.6,44,10z M25,12.5L32,9l14,7l-7,3.5L25,12.5z M19.5,17.8
	c-0.8-0.4-0.8-1.1,0-1.5s2.2-0.4,3,0s0.8,1.1,0,1.5S20.3,18.2,19.5,17.8z M24,23l-6-3l1-0.5l6,3L24,23z M28.5,22.3
	c-0.8-0.4-0.8-1.1,0-1.5s2.2-0.4,3,0s0.8,1.1,0,1.5S29.3,22.7,28.5,22.3z"/>
</svg>
