<?xml version="1.0" encoding="utf-8"?>
<!-- Generator: Adobe Illustrator 18.1.0, SVG Export Plug-In . SVG Version: 6.00 Build 0)  -->
<svg version="1.1" id="Layer_1" xmlns="http://www.w3.org/2000/svg" xmlns:xlink="http://www.w3.org/1999/xlink" x="0px" y="0px"
	 viewBox="0 0 32 56" enable-background="new 0 0 32 56" xml:space="preserve">
<path fill-rule="evenodd" clip-rule="evenodd" fill="#2D3134" d="M10.9,30.8c-0.9-0.5-1.7-0.7-2.4-0.3c-0.7-1-1.5-1.6-2.4-2.1
	c-3.4-1.7-4.5,0.2-3.9,3.4c0.6,3.2,2.3,6.5,4.5,7.6c0.9,0.5,1.2,0.2,1.8-0.2c0.7,1,0.7,1.5,1.6,2c2.2,1.1,3.8-0.4,4.7-3
	C15.6,35.6,14.1,32.4,10.9,30.8z M12,29.8c1.8-0.5,2.2-2.8,2.2-2.8s-2.5-1.6-4.4-1.1c-1.8,0.5-2.2,2.8-2.2,2.8S10.2,30.2,12,29.8z"
	/>
<path fill-rule="evenodd" clip-rule="evenodd" fill="#2D3134" d="M28.7,30.1l-3.6-11.4c0.3,0.1,0.5,0,0.5-0.3c0-0.2-0.1-0.5-0.3-0.7
	c0.2,0,0.3-0.1,0.3-0.4c0-0.3-0.3-0.7-0.6-0.9l-4-2c-0.3-0.2-0.6,0-0.6,0.3c0,0.2,0.1,0.5,0.3,0.7c-0.2,0-0.3,0.1-0.3,0.4
	c0,0.3,0.2,0.6,0.5,0.8l-3.6,7.8C17.1,25,17,25.6,17,26.3v17c0,0.6,0.5,1.4,1.2,1.7l9.6,4.8c0.7,0.3,1.2,0.1,1.2-0.6v-17
	C29,31.6,28.9,30.9,28.7,30.1z M20.1,24.1l2.9-6.2l2.9,9.1L20.1,24.1z"/>
</svg>
