<?xml version="1.0" encoding="utf-8"?>
<!-- Generator: Adobe Illustrator 18.1.0, SVG Export Plug-In . SVG Version: 6.00 Build 0)  -->
<svg version="1.1" id="Layer_1" xmlns="http://www.w3.org/2000/svg" xmlns:xlink="http://www.w3.org/1999/xlink" x="0px" y="0px"
	 viewBox="0 0 32 32" enable-background="new 0 0 32 32" xml:space="preserve">
<g>
	<path fill="#2D3134" d="M22.7,13.9c2,0,3.9,0.8,5.2,2.2c-0.1-3-2.6-5.5-5.7-5.5c-0.4,0-0.7,0-1,0.1c-0.8-3.5-3.9-6.2-7.7-6.2
		c-3.1,0-5.7,1.8-7,4.4C2.9,8.9,0,11.8,0,15.4c0,3.5,2.7,6.3,6.1,6.5v0h5c0.8-2,2.6-3.5,4.8-3.8C17.1,15.6,19.7,13.9,22.7,13.9z"/>
	<path fill="#2D3134" d="M27.5,18.9c-0.9-1.8-2.7-3-4.9-3c-2.6,0-4.8,1.8-5.3,4.3c-0.2,0-0.5-0.1-0.7-0.1c-2.2,0-3.9,1.8-3.9,3.9
		c0,2.2,1.8,3.9,3.9,3.9h11.2v0c2.4-0.2,4.2-2.1,4.2-4.5C32,21,30,18.9,27.5,18.9z"/>
</g>
</svg>
