<?xml version="1.0" encoding="utf-8"?>
<!-- Generator: Adobe Illustrator 18.1.0, SVG Export Plug-In . SVG Version: 6.00 Build 0)  -->
<svg version="1.1" id="Layer_1" xmlns="http://www.w3.org/2000/svg" xmlns:xlink="http://www.w3.org/1999/xlink" x="0px" y="0px"
	 viewBox="0 0 32 56" enable-background="new 0 0 32 56" xml:space="preserve">
<g>
	<path fill="#2D3134" d="M30.5,44.7c0.3-0.3,0.5-0.8,0.5-1.4V27.7c0-0.6-0.2-1.2-0.5-1.8l-9.4,4.7L30.5,44.7z"/>
	<path fill="#2D3134" d="M16,30.9l13.4-6.7c-0.5-0.5-1-1-1.6-1.3L4.2,11.1c-0.6-0.3-1.1-0.4-1.6-0.4L16,30.9z"/>
	<path fill="#2D3134" d="M1.5,11.3C1.2,11.7,1,12.1,1,12.7v15.6c0,0.6,0.2,1.2,0.5,1.8l9.4-4.7L1.5,11.3z"/>
	<path fill="#2D3134" d="M20,31.1l-4,2l-4-6l-9.4,4.7c0.5,0.5,1,1,1.6,1.3l23.6,11.8c0.6,0.3,1.1,0.4,1.6,0.4L20,31.1z"/>
</g>
</svg>
