<?xml version="1.0" encoding="utf-8"?>
<!-- Generator: Adobe Illustrator 18.1.0, SVG Export Plug-In . SVG Version: 6.00 Build 0)  -->
<svg version="1.1" id="Layer_1" xmlns="http://www.w3.org/2000/svg" xmlns:xlink="http://www.w3.org/1999/xlink" x="0px" y="0px"
	 viewBox="0 0 32 32" enable-background="new 0 0 32 32" xml:space="preserve">
<g>
	<path fill-rule="evenodd" clip-rule="evenodd" fill="#2D3134" d="M30.8,13.2L26,18v-3.4c0-0.9-0.7-1.6-1.6-1.6H20H6H1.6
		C0.7,13,0,13.7,0,14.6v12.8C0,28.3,0.7,29,1.6,29h22.8c0.9,0,1.6-0.7,1.6-1.6V24c1.6,1.6,3.5,3.5,4.8,4.8c0.5,0.5,1.2,0.1,1.2-0.5
		V13.8C32,13.1,31.2,12.8,30.8,13.2z M17,24H3v-8h14V24z M21.5,19c-0.8,0-1.5-0.7-1.5-1.5s0.7-1.5,1.5-1.5s1.5,0.7,1.5,1.5
		S22.3,19,21.5,19z"/>
	<circle fill-rule="evenodd" clip-rule="evenodd" fill="#2D3134" cx="6" cy="7" r="6"/>
	<circle fill-rule="evenodd" clip-rule="evenodd" fill="#2D3134" cx="20" cy="7" r="6"/>
</g>
</svg>
