<?xml version="1.0" encoding="utf-8"?>
<!-- Generator: Adobe Illustrator 18.1.0, SVG Export Plug-In . SVG Version: 6.00 Build 0)  -->
<svg version="1.1" id="Layer_1" xmlns="http://www.w3.org/2000/svg" xmlns:xlink="http://www.w3.org/1999/xlink" x="0px" y="0px"
	 viewBox="0 0 32 56" enable-background="new 0 0 32 56" xml:space="preserve">
<g>
	<path fill="#2D3134" d="M16,17.9c0.6,0.3,1,0.1,1-0.5v-4c0-0.6-0.4-1.2-1-1.5c-0.6-0.3-1-0.1-1,0.5v4C15,17,15.4,17.6,16,17.9z"/>
	<path fill="#2D3134" d="M6,22.9c0-0.6-0.4-1.2-1-1.5l-4-2c-0.6-0.3-1-0.1-1,0.5s0.4,1.2,1,1.5l4,2C5.6,23.7,6,23.5,6,22.9z"/>
	<path fill="#2D3134" d="M11,16.8c0.5,0,0.6-0.6,0.4-1.2l-2-4.5c-0.3-0.6-0.9-1.1-1.4-1s-0.6,0.6-0.4,1.2l2,4.5
		C9.9,16.3,10.5,16.8,11,16.8z"/>
	<path fill="#2D3134" d="M6,27.5l-3.5,0.3c-0.5,0-0.6,0.6-0.4,1.2c0.3,0.6,0.9,1.1,1.4,1L7,29.8c0.5,0,0.6-0.6,0.4-1.2
		C7.1,28,6.5,27.5,6,27.5z"/>
	<path fill="#2D3134" d="M26,28.3l3.5-0.3c0.5,0,0.6-0.6,0.4-1.2c-0.3-0.6-0.9-1.1-1.4-1L25,26.1c-0.5,0-0.6,0.6-0.4,1.2
		C24.9,27.9,25.5,28.3,26,28.3z"/>
	<path fill="#2D3134" d="M7,17l-3.5-3.7C3,12.8,2.4,12.6,2.1,13c-0.3,0.3-0.1,1,0.4,1.5L6,18.3c0.5,0.5,1.1,0.7,1.4,0.3
		C7.6,18.2,7.5,17.6,7,17z"/>
	<path fill="#2D3134" d="M21,21.8c0.5,0.5,1.1,0.7,1.4,0.3l2-2.5c0.3-0.3,0.1-1-0.4-1.5c-0.5-0.5-1.1-0.7-1.4-0.3l-2,2.5
		C20.4,20.5,20.5,21.2,21,21.8z"/>
	<path fill="#2D3134" d="M13.3,27.2c1.4-2.1,4.3-2.5,7.6-0.9c0.8,0.4,1.5,0.9,2.2,1.4c-1.3-3.2-4-6.3-7.1-7.9c-4.4-2.2-8-0.4-8,4
		c0,1.1,0.2,2.2,0.6,3.3C9.7,26.5,11.4,26.4,13.3,27.2z"/>
	<path fill="#2D3134" d="M26.6,34.4c-0.1,0-0.1,0-0.1-0.1c-1.1-2.5-3.2-4.8-5.6-6c-3-1.5-5.5-0.7-6.2,1.6c-0.3-0.2-0.6-0.4-1-0.6
		C11.1,28.1,9,29.2,9,31.7c0,2.6,2.1,5.7,4.7,7L27,45.4v0c2.8,1.2,5,0,5-2.9C32,39.6,29.6,35.9,26.6,34.4z"/>
</g>
</svg>
