<?xml version="1.0" encoding="utf-8"?>
<!-- Generator: Adobe Illustrator 18.1.0, SVG Export Plug-In . SVG Version: 6.00 Build 0)  -->
<svg version="1.1" id="Layer_1" xmlns="http://www.w3.org/2000/svg" xmlns:xlink="http://www.w3.org/1999/xlink" x="0px" y="0px"
	 viewBox="0 0 32 32" enable-background="new 0 0 32 32" xml:space="preserve">
<g>
	<path fill-rule="evenodd" clip-rule="evenodd" fill="#2D3134" d="M16,6c0.6,0,1-0.4,1-1V1c0-0.6-0.4-1-1-1s-1,0.4-1,1v4
		C15,5.6,15.4,6,16,6z"/>
	<path fill-rule="evenodd" clip-rule="evenodd" fill="#2D3134" d="M6,16c0-0.6-0.4-1-1-1H1c-0.6,0-1,0.4-1,1s0.4,1,1,1h4
		C5.6,17,6,16.6,6,16z"/>
	<path fill-rule="evenodd" clip-rule="evenodd" fill="#2D3134" d="M31,15h-4c-0.6,0-1,0.4-1,1s0.4,1,1,1h4c0.6,0,1-0.4,1-1
		S31.6,15,31,15z"/>
	<path fill-rule="evenodd" clip-rule="evenodd" fill="#2D3134" d="M9.6,7c0.3,0.5,0.9,0.6,1.4,0.4s0.6-0.9,0.4-1.4l-2-3.5
		C9.1,2,8.5,1.9,8,2.2S7.4,3,7.6,3.5L9.6,7z"/>
	<path fill-rule="evenodd" clip-rule="evenodd" fill="#2D3134" d="M7.3,21c-0.3-0.5-0.9-0.6-1.4-0.4l-3.5,2C2,22.9,1.9,23.5,2.1,24
		s0.9,0.6,1.4,0.4l3.5-2C7.5,22.1,7.6,21.5,7.3,21z"/>
	<path fill-rule="evenodd" clip-rule="evenodd" fill="#2D3134" d="M26,11.4l3.5-2C30,9.1,30.1,8.5,29.9,8S29,7.4,28.5,7.6l-3.5,2
		c-0.5,0.3-0.6,0.9-0.4,1.4S25.5,11.7,26,11.4z"/>
	<path fill-rule="evenodd" clip-rule="evenodd" fill="#2D3134" d="M2.5,9.4l3.5,2c0.5,0.3,1.1,0.1,1.4-0.4S7.5,9.9,7,9.6l-3.5-2
		C3,7.4,2.4,7.5,2.1,8S2,9.1,2.5,9.4z"/>
	<path fill-rule="evenodd" clip-rule="evenodd" fill="#2D3134" d="M29.5,22.6l-3.5-2c-0.5-0.3-1.1-0.1-1.4,0.4s-0.1,1.1,0.4,1.4
		l3.5,2c0.5,0.3,1.1,0.1,1.4-0.4S30,22.9,29.5,22.6z"/>
	<path fill-rule="evenodd" clip-rule="evenodd" fill="#2D3134" d="M21,7.3c0.5,0.3,1.1,0.1,1.4-0.4l2-3.5C24.6,3,24.5,2.4,24,2.2
		S22.9,2,22.6,2.5l-2,3.5C20.4,6.5,20.5,7.1,21,7.3z"/>
	<path fill-rule="evenodd" clip-rule="evenodd" fill="#2D3134" d="M24.8,28H7.2C6.5,28,6,28.5,6,29.2v1.6C6,31.5,6.5,32,7.2,32h17.6
		c0.7,0,1.2-0.5,1.2-1.2v-1.6C26,28.5,25.5,28,24.8,28z"/>
	<path fill-rule="evenodd" clip-rule="evenodd" fill="#2D3134" d="M16,8c-4.4,0-8,3.6-8,8v11h16V16C24,11.6,20.4,8,16,8z M15.2,12.1
		c-1.6,0.3-2.8,1.5-3.1,3.1c-0.1,0.5-0.5,0.8-1,0.8c-0.1,0-0.1,0-0.2,0c-0.5-0.1-0.9-0.6-0.8-1.2c0.5-2.4,2.3-4.2,4.7-4.7
		c0.5-0.1,1.1,0.2,1.2,0.8C16.1,11.4,15.7,12,15.2,12.1z"/>
</g>
</svg>
