<?xml version="1.0" encoding="utf-8"?>
<!-- Generator: Adobe Illustrator 18.1.0, SVG Export Plug-In . SVG Version: 6.00 Build 0)  -->
<svg version="1.1" id="Layer_1" xmlns="http://www.w3.org/2000/svg" xmlns:xlink="http://www.w3.org/1999/xlink" x="0px" y="0px"
	 viewBox="0 0 32 32" enable-background="new 0 0 32 32" xml:space="preserve">
<g>
	<path fill="#2D3134" d="M30.5,25.4c0.3-0.5,0.5-1,0.5-1.6V8.2c0-0.6-0.2-1.1-0.5-1.6L21.1,16L30.5,25.4z"/>
	<path fill="#2D3134" d="M16,18.9L29.4,5.5c-0.5-0.3-1-0.5-1.6-0.5H4.2C3.6,5,3.1,5.2,2.6,5.5L16,18.9z"/>
	<path fill="#2D3134" d="M1.5,6.6C1.2,7.1,1,7.6,1,8.2v15.6c0,0.6,0.2,1.1,0.5,1.6l9.4-9.4L1.5,6.6z"/>
	<path fill="#2D3134" d="M20,17.1l-4,4l-4-4l-9.4,9.4c0.5,0.3,1,0.5,1.6,0.5h23.6c0.6,0,1.1-0.2,1.6-0.5L20,17.1z"/>
</g>
</svg>
