<?xml version="1.0" encoding="utf-8"?>
<!-- Generator: Adobe Illustrator 18.1.0, SVG Export Plug-In . SVG Version: 6.00 Build 0)  -->
<svg version="1.1" id="Layer_1" xmlns="http://www.w3.org/2000/svg" xmlns:xlink="http://www.w3.org/1999/xlink" x="0px" y="0px"
	 viewBox="0 0 32 32" enable-background="new 0 0 32 32" xml:space="preserve">
<g>
	<rect x="2" y="10" fill="#2D3134" width="13" height="10"/>
	<path fill="#2D3134" d="M30.5,29H29V10.2C29,9,28,8,26.8,8h-2.7C23,8,22.1,8.9,22,10c-2.1,0.2-3.8,1.9-4,4H27c-0.2-2.1-1.9-3.7-4-4
		c0.1-0.6,0.6-1,1.2-1h2.7c0.6,0,1.2,0.5,1.2,1.2V29h-4v-1.3c1.6-0.6,2.8-2,3-3.7H18c0.2,1.7,1.4,3.2,3,3.7V29h-4V2.2
		C17,1,16,0,14.8,0h-4.7C9,0,8.1,0.9,8,2C5.2,2.2,2.8,4.3,2.2,7L2,9h13l-0.2-2c-0.6-2.7-3-4.8-5.8-5c0.1-0.6,0.6-1,1.2-1h4.7
		C15.5,1,16,1.5,16,2.2V29h-6v-1.2c2.4-0.6,4.3-2.4,4.8-4.8l0.2-2H2l0.2,2c0.6,2.4,2.4,4.3,4.8,4.8V29H1.5C0.7,29,0,29.7,0,30.5
		S0.7,32,1.5,32h29c0.8,0,1.5-0.7,1.5-1.5S31.3,29,30.5,29z"/>
	<rect x="18" y="15" fill="#2D3134" width="9" height="8"/>
</g>
</svg>
