<?xml version="1.0" encoding="utf-8"?>
<!-- Generator: Adobe Illustrator 18.1.0, SVG Export Plug-In . SVG Version: 6.00 Build 0)  -->
<svg version="1.1" id="Layer_1" xmlns="http://www.w3.org/2000/svg" xmlns:xlink="http://www.w3.org/1999/xlink" x="0px" y="0px"
	 viewBox="0 0 64 32" enable-background="new 0 0 64 32" xml:space="preserve">
<g>
	<path fill-rule="evenodd" clip-rule="evenodd" fill="#2D3134" d="M41.5,11.8c1.4,0.7,3.6,0.7,5,0c1.4-0.7,1.4-1.8,0-2.5
		s-3.6-0.7-5,0C40.1,9.9,40.1,11.1,41.5,11.8z"/>
	<path fill-rule="evenodd" clip-rule="evenodd" fill="#2D3134" d="M59,14.4v-0.2c0-0.4-0.7-0.8-1.5-0.8H42.8l-4.6-2.3V3.8
		c0-0.4-0.7-0.8-1.5-0.8h-0.4c-0.8,0-1.5,0.3-1.5,0.8l0.2,7.8L14,22c-0.6,0.3-0.6,0.7,0,1l1,0.5c0.6,0.3,1.4,0.3,2,0L28,18l1,0.5
		L18,24c-0.6,0.3-0.6,0.7,0,1l1,0.5c0.6,0.3,1.4,0.3,2,0L41.9,15l15.6,0.1C58.3,15.1,59,14.8,59,14.4z"/>
</g>
</svg>
