<?xml version="1.0" encoding="utf-8"?>
<!-- Generator: Adobe Illustrator 18.1.0, SVG Export Plug-In . SVG Version: 6.00 Build 0)  -->
<svg version="1.1" id="Layer_1" xmlns="http://www.w3.org/2000/svg" xmlns:xlink="http://www.w3.org/1999/xlink" x="0px" y="0px"
	 viewBox="0 0 32 56" enable-background="new 0 0 32 56" xml:space="preserve">
<path fill="#2D3134" d="M19,34.3V16.5c0-1.7-1.3-3.7-3-4.5c-1.7-0.8-3-0.2-3,1.5v17.8c-1.8,0.1-3,1.5-3,3.7c0,3.3,2.7,7.3,6,9
	c3.3,1.7,6,0.3,6-3C22,38.8,20.8,36.2,19,34.3z M16,42c-2.2-1.1-4-3.8-4-6c0-0.6,0.4-0.8,1-0.5s1,0.9,1,1.5c0,1.1,0.9,2.4,2,3
	c0.6,0.3,1,0.9,1,1.5S16.6,42.3,16,42z M18,23l-4-2v-7c0-1.1,0.9-1.6,2-1c1.1,0.6,2,1.9,2,3V23z"/>
</svg>
