<?xml version="1.0" encoding="utf-8"?>
<!-- Generator: Adobe Illustrator 18.1.0, SVG Export Plug-In . SVG Version: 6.00 Build 0)  -->
<svg version="1.1" id="Layer_1" xmlns="http://www.w3.org/2000/svg" xmlns:xlink="http://www.w3.org/1999/xlink" x="0px" y="0px"
	 viewBox="0 0 32 32" enable-background="new 0 0 32 32" xml:space="preserve">
<path fill="#2D3134" d="M22,4C22,4,22,4,22,4c-0.6,0-1.2-0.2-1.6-0.6l-0.7-0.7c-0.4-0.4-1-0.6-1.6-0.6H18h-6V1c0-0.6-0.4-1-1-1
	s-1,0.4-1,1v30c0,0.6,0.4,1,1,1s1-0.4,1-1V14h6h0.1c0.6,0,1.2,0.2,1.6,0.6l0.7,0.7c0.4,0.4,1,0.6,1.6,0.6c0,0,0,0,0,0h7V4H22z"/>
</svg>
