<?xml version="1.0" encoding="utf-8"?>
<!-- Generator: Adobe Illustrator 18.1.0, SVG Export Plug-In . SVG Version: 6.00 Build 0)  -->
<svg version="1.1" id="Layer_1" xmlns="http://www.w3.org/2000/svg" xmlns:xlink="http://www.w3.org/1999/xlink" x="0px" y="0px"
	 viewBox="0 0 32 56" enable-background="new 0 0 32 56" xml:space="preserve">
<path fill="#2D3134" d="M17.9,30.4l10.8-5.4c0.3-0.1,0.4-0.5,0.2-1S28.4,23.2,28,23l-4.6-2.3l3.3-1.6c0.4-0.2,0.4-0.8,0-1.4
	c-0.4-0.6-1-0.9-1.4-0.7l-4.7,2.4L4,11c-0.4-0.2-0.8-0.1-0.9,0.2S3,11.9,3.3,12.4l10.8,16.1c0.6,0.9,0.9,1.9,0.9,2.7v8.4
	c0,1-0.8,1.4-1.8,0.9L11,39.5c0,0,0,0,0,0c-1.3-0.6-1.2,1.4,0.1,2l10,5c1.2,0.6,1.4-1.1,0.2-1.9c-0.1-0.1-0.2-0.1-0.3-0.2l-1.2-0.6
	c-1-0.5-2.7-2.2-2.7-3.2v-8.4C17,31.4,17.3,30.7,17.9,30.4z M25.6,23.8l-4,2l-4.2-2.1l4-2L25.6,23.8z M18.6,20.3l-4,2l-4.2-2.1l-4-6
	L18.6,20.3z"/>
</svg>
