<?xml version="1.0" encoding="utf-8"?>
<!-- Generator: Adobe Illustrator 18.1.0, SVG Export Plug-In . SVG Version: 6.00 Build 0)  -->
<svg version="1.1" id="Layer_1" xmlns="http://www.w3.org/2000/svg" xmlns:xlink="http://www.w3.org/1999/xlink" x="0px" y="0px"
	 viewBox="0 0 32 56" enable-background="new 0 0 32 56" xml:space="preserve">
<g>
	<path fill-rule="evenodd" clip-rule="evenodd" fill="#2D3134" d="M20,15c-6.1-3-11-0.6-11,5.5c0,2.3,0.7,4.8,1.9,7.2l-9.4,4.7
		c-0.8,0.4-0.8,1.7,0,2.8c0.8,1.2,2,1.8,2.8,1.4l9.4-4.7c1.8,2.1,3.9,3.9,6.2,5.1c6.1,3,11,0.6,11-5.5S26.1,18,20,15z M20,35
		c-5-2.5-9-8.5-9-13.5s4-7,9-4.5s9,8.5,9,13.5S25,37.5,20,35z"/>
	<path fill-rule="evenodd" clip-rule="evenodd" fill="#2D3134" d="M20,19c-3.9-1.9-7-0.4-7,3.5c0,0.6,0.4,1.2,1,1.5
		c0.6,0.3,1,0.1,1-0.5c0-2.8,2.2-3.9,5-2.5c0.6,0.3,1,0.1,1-0.5S20.6,19.3,20,19z"/>
</g>
</svg>
