<?xml version="1.0" encoding="utf-8"?>
<!-- Generator: Adobe Illustrator 18.1.0, SVG Export Plug-In . SVG Version: 6.00 Build 0)  -->
<svg version="1.1" id="Layer_1" xmlns="http://www.w3.org/2000/svg" xmlns:xlink="http://www.w3.org/1999/xlink" x="0px" y="0px"
	 viewBox="0 0 64 32" enable-background="new 0 0 64 32" xml:space="preserve">
<path fill-rule="evenodd" clip-rule="evenodd" fill="#2D3134" d="M37.4,9.1c0-0.4-0.8-0.7-1.6-0.6c-1.8,0.2-3.6,0.6-5,1.3
	c-1.4,0.7-2.3,1.6-2.6,2.5c-0.2,0.4,0.5,0.8,1.3,0.8l0,0c0.7,0,1.2-0.2,1.3-0.5c0.3-0.7,0.9-1.3,1.9-1.8c1-0.5,2.3-0.8,3.6-1
	C37,9.7,37.5,9.4,37.4,9.1L37.4,9.1z M57.5,13.4L57.5,13.4c-0.7,0-1.3,0.2-1.4,0.6c-0.4,2.1-2.2,4.1-5.4,5.7
	c-3.2,1.6-7.3,2.5-11.4,2.7c-0.7,0-1.2,0.3-1.2,0.7l0,0c0,0.4,0.7,0.7,1.5,0.6c4.7-0.2,9.4-1.3,13-3.1c3.6-1.8,5.7-4.1,6.1-6.5
	C58.9,13.8,58.3,13.4,57.5,13.4z M37.1,3.3L37.1,3.3c0-0.4-0.7-0.7-1.5-0.7c-4.7,0.2-9.4,1.3-13,3.1C19,7.5,17,9.8,16.5,12.2
	c-0.1,0.4,0.5,0.7,1.3,0.7l0,0c0.7,0,1.3-0.2,1.4-0.6c0.4-2.1,2.2-4.1,5.4-5.7C27.7,5,31.8,4.1,36,3.9C36.7,3.9,37.2,3.6,37.1,3.3z
	 M37.3,6.1L37.3,6.1c0-0.4-0.7-0.7-1.5-0.6c-3.3,0.2-6.6,1-9.2,2.2c-2.6,1.3-4.1,2.9-4.5,4.6C22,12.6,22.6,13,23.4,13l0,0
	c0.7,0,1.3-0.2,1.3-0.6c0.3-1.4,1.6-2.7,3.7-3.8c2.1-1.1,4.8-1.7,7.6-1.9C36.8,6.7,37.3,6.4,37.3,6.1z M45.8,13.3L45.8,13.3
	c-0.7,0-1.2,0.2-1.3,0.5c-0.3,0.7-0.9,1.3-1.9,1.8c-1,0.5-2.3,0.8-3.6,1c-0.6,0.1-1.1,0.3-1.1,0.7l0,0c0,0.4,0.8,0.7,1.6,0.6
	c1.8-0.2,3.6-0.6,5-1.3c1.4-0.7,2.3-1.6,2.6-2.5C47.2,13.7,46.6,13.3,45.8,13.3z M51.9,13.4L51.9,13.4c-0.7,0-1.3,0.2-1.3,0.6
	c-0.3,1.4-1.6,2.7-3.7,3.8c-2.1,1.1-4.8,1.7-7.6,1.9c-0.7,0-1.2,0.3-1.1,0.7l0,0c0,0.4,0.7,0.7,1.5,0.6c3.3-0.2,6.6-1,9.2-2.2
	c2.6-1.3,4.1-2.9,4.5-4.6C53.3,13.7,52.7,13.4,51.9,13.4z M35.1,14.5c1.4,0.7,3.7,0.7,5.2,0c1.4-0.7,1.4-1.9,0-2.6
	c-1.4-0.7-3.7-0.7-5.2,0C33.7,12.6,33.7,13.7,35.1,14.5z M33,14.5l2,1l-16.1,9.9L13,22.5L33,14.5z"/>
</svg>
