<?xml version="1.0" encoding="utf-8"?>
<!-- Generator: Adobe Illustrator 18.1.0, SVG Export Plug-In . SVG Version: 6.00 Build 0)  -->
<svg version="1.1" id="Layer_1" xmlns="http://www.w3.org/2000/svg" xmlns:xlink="http://www.w3.org/1999/xlink" x="0px" y="0px"
	 viewBox="0 0 32 56" enable-background="new 0 0 32 56" xml:space="preserve">
<g>
	<path fill="#2D3134" d="M21,27.5c-3.3-1.7-6-0.3-6,3c0,3.3,2.7,7.3,6,9c3.3,1.7,6,0.3,6-3C27,33.2,24.3,29.2,21,27.5z M21,31.5
		c-1.1-0.6-2-0.1-2,1c0,0.6-0.4,0.8-1,0.5s-1-0.9-1-1.5c0-2.2,1.8-3.1,4-2c0.6,0.3,1,0.9,1,1.5S21.6,31.8,21,31.5z"/>
	<path fill="#2D3134" d="M30.3,27.4l-1.3-0.6l-3.5-5l-9.9-4.9l-3.2,1.7l-5.4-2.7v-1c0-0.5-0.4-1.1-0.9-1.3L5.2,13
		c-0.5-0.2-0.9,0-0.9,0.4v1l-2.6-1.3C0.7,12.7,0,13,0,14v17.3c0,0.9,0.7,2,1.7,2.5l28.7,14.3c0.9,0.5,1.7,0.1,1.7-0.8V30
		C32,29,31.3,27.9,30.3,27.4z M18,19l6,3v2l-6-3V19z M21,41.5c-4.4-2.2-8-7.6-8-12c0-4.4,3.6-6.2,8-4c4.4,2.2,8,7.6,8,12
		C29,41.9,25.4,43.7,21,41.5z"/>
</g>
</svg>
