<?xml version="1.0" encoding="utf-8"?>
<!-- Generator: Adobe Illustrator 18.1.0, SVG Export Plug-In . SVG Version: 6.00 Build 0)  -->
<svg version="1.1" id="Layer_1" xmlns="http://www.w3.org/2000/svg" xmlns:xlink="http://www.w3.org/1999/xlink" x="0px" y="0px"
	 viewBox="0 0 32 32" enable-background="new 0 0 32 32" xml:space="preserve">
<path fill-rule="evenodd" clip-rule="evenodd" fill="#2D3134" d="M24,0H8C6.9,0,6,0.9,6,2V30c0,1.1,0.9,2,2,2H24c1.1,0,2-0.9,2-2V2
	C26,0.9,25.1,0,24,0z M14.5,1h3C17.8,1,18,1.2,18,1.5C18,1.8,17.8,2,17.5,2h-3C14.2,2,14,1.8,14,1.5C14,1.2,14.2,1,14.5,1z M16,31
	c-1.1,0-2-0.9-2-2c0-1.1,0.9-2,2-2s2,0.9,2,2C18,30.1,17.1,31,16,31z M24,26H8V3h16V26z"/>
</svg>
