<?xml version="1.0" encoding="utf-8"?>
<!-- Generator: Adobe Illustrator 18.1.0, SVG Export Plug-In . SVG Version: 6.00 Build 0)  -->
<svg version="1.1" id="Layer_1" xmlns="http://www.w3.org/2000/svg" xmlns:xlink="http://www.w3.org/1999/xlink" x="0px" y="0px"
	 viewBox="0 0 32 56" enable-background="new 0 0 32 56" xml:space="preserve">
<path fill-rule="evenodd" clip-rule="evenodd" fill="#2D3134" d="M25.5,46.8c-3.6-1.8-6.5-6.1-6.5-9.7c0-2.3,1.2-3.8,3.2-4l-0.4-1
	l-6.1,4.3c-0.1,0.1-0.3,0.1-0.5,0c0,0,0,0,0,0l-2.4-1.2c-0.6,2.8-3.2,3.6-6.3,2.1C2.9,35.5,0,31.1,0,27.5c0-3.6,2.9-5,6.5-3.2
	c0.5,0.2,0.9,0.5,1.4,0.8l1.3-3c0-0.1,0.1-0.1,0.2-0.2l-1.3-3.4C8,18.3,8,18.1,8.1,18l-0.4-1c-0.7-0.3-1.2-0.7-1.6-1
	C5.4,15.4,5,14.8,5,14.3C5,13,5.5,13.1,6,13.3c0.3,0.2,0.8,0.5,1.4,1c0.6,0.4,1,0.7,1.2,0.9c0.3,0.1,0.7,0.3,1.1,0.5
	c0.5,0.2,0.8,0.3,0.9,0.4c0.2,0.1,0.7,0.4,0.7,1.1c0,0.2-0.1,0.3-1.1,0.3c-0.6,0-1.2,0-1.6-0.1L9,18c0.2,0.1,0.5,0.4,0.6,0.7
	l1.4,3.9l9.2,4.6l-1-2.7c-0.1-0.2-0.2-0.4-0.2-0.6v-0.2c0-0.4,0.3-0.5,0.7-0.3l4.3,2.1c0.4,0.2,0.7,0.6,0.7,1v0.2
	c0,0.4-0.3,0.5-0.7,0.3l-2.9-1.5l2.8,7.7c0.6,0.1,1.2,0.3,1.8,0.7c3.6,1.8,6.5,6.1,6.5,9.7C32,47.1,29.1,48.5,25.5,46.8L25.5,46.8z
	 M23,34.9c-1.4,0.2-2.3,1.3-2.3,3c0,2.7,2.2,5.9,4.8,7.3c2.7,1.3,4.8,0.2,4.8-2.4c0-2.7-2.2-5.9-4.8-7.3c-0.4-0.2-0.8-0.3-1.2-0.4
	l1.9,5.2c0.1,0.4,0,0.7-0.4,0.7l-0.2,0c-0.1,0-0.2,0-0.2-0.1c-0.3-0.1-0.5-0.4-0.6-0.7L23,34.9L23,34.9z M6.5,25.9
	c-2.7-1.3-4.8-0.2-4.8,2.4c0,2.7,2.2,5.9,4.8,7.3c2.2,1.1,4.1,0.6,4.7-1.3L6,31.8c-0.4-0.2-0.7-0.6-0.7-1v-0.2
	c0-0.2,0.1-0.3,0.2-0.4l1.7-3.8C7,26.2,6.7,26.1,6.5,25.9L6.5,25.9z M12.9,33.7l0.8,0.4l-3.6-9.8l-0.9,2
	C11.4,28.5,12.8,31.2,12.9,33.7L12.9,33.7z M7.3,30.8l4,2c-0.1-1.7-1.1-3.7-2.6-5.3L7.3,30.8L7.3,30.8z M11.6,24.5l3.6,9.9l6-4.2
	l-0.4-1.1L11.6,24.5L11.6,24.5z"/>
</svg>
