<?xml version="1.0" encoding="utf-8"?>
<!-- Generator: Adobe Illustrator 18.1.0, SVG Export Plug-In . SVG Version: 6.00 Build 0)  -->
<svg version="1.1" id="Layer_1" xmlns="http://www.w3.org/2000/svg" xmlns:xlink="http://www.w3.org/1999/xlink" x="0px" y="0px"
	 viewBox="0 0 32 56" enable-background="new 0 0 32 56" xml:space="preserve">
<path fill-rule="evenodd" clip-rule="evenodd" fill="#2D3134" d="M31,40.4l-4-16.9L24,22v-5l-5-2.5v15.1c0,0.5,0.4,1.1,0.9,1.3
	l1.1,0.6v4c-0.5,0-1,0.1-1,0.6v6.6c0,0.7,0.6,1.6,1.3,1.9l9.4,4.7c0.7,0.4,1.3,0.1,1.3-0.6v-6.6C32,41.5,31.6,40.8,31,40.4z M8,14
	l-3-1.5L1,25.3c-0.5-0.1-1,0.2-1,0.8v6.6c0,0.7,0.6,1.6,1.3,1.9l9.4,4.7c0.7,0.4,1.3,0.1,1.3-0.6v-6.6c0-0.5-0.5-1.2-1-1.6v-4
	l1.1,0.6c0.5,0.2,0.9,0,0.9-0.4V11.5L8,9V14z M17.1,18.6l-2.2-1.1c-0.5-0.2-0.9,0-0.9,0.4v8.2c0,0.5,0.4,1.1,0.9,1.3l2.2,1.1
	c0.5,0.2,0.9,0,0.9-0.4v-8.2C18,19.4,17.6,18.8,17.1,18.6z"/>
</svg>
