<?xml version="1.0" encoding="utf-8"?>
<!-- Generator: Adobe Illustrator 18.1.0, SVG Export Plug-In . SVG Version: 6.00 Build 0)  -->
<svg version="1.1" id="Layer_1" xmlns="http://www.w3.org/2000/svg" xmlns:xlink="http://www.w3.org/1999/xlink" x="0px" y="0px"
	 viewBox="0 0 64 32" enable-background="new 0 0 64 32" xml:space="preserve">
<path fill="#2D3134" d="M45.2,25.4c0.2-0.1,0.5-0.2,0.7-0.3c0,0,0.1,0,0.1,0l-0.3-0.1l7.6-8.6c0,0,0-0.1,0.1-0.1
	c0.2,0,0.4-0.1,0.6-0.2c0.6-0.3,0.6-0.7,0-1l-8.3-4.1c0.1-0.2,0.1-0.5,0-0.7L48,9c0.6-0.3,0.6-0.7,0-1s-1.4-0.3-2,0l-2.3,1.1
	c-0.5-0.1-1-0.1-1.4,0L34,5c-0.6-0.3-1.4-0.3-2,0c-0.2,0.1-0.3,0.2-0.3,0.3c-0.1,0-0.1,0-0.2,0L14.3,9.2L14,9c0,0-0.1,0-0.1,0
	c-0.2,0.1-0.4,0.2-0.6,0.4c-0.3,0.1-0.5,0.3-0.6,0.5c-1.9,1.6-1.5,3.7,1.3,5.1s7.1,1.6,10.3,0.7c0.4,0,0.7-0.1,0.9-0.3
	c0.2-0.1,0.5-0.2,0.7-0.3c0,0,0.1,0,0.1,0l-0.3-0.1l7.4-8.3l7.2,3.6c-0.1,0.2-0.1,0.5,0,0.7l-20,10c-1.8,0.9-4.7,0.9-6.5,0L13,20.5
	c-0.6-0.3-1.4-0.3-2,0c-0.6,0.3-0.6,0.7,0,1l10,5c0.6,0.3,1.4,0.3,2,0c0.6-0.3,0.6-0.7,0-1l-0.8-0.4c-1.8-0.9-1.8-2.3,0-3.2l20-10
	c0.5,0.1,1,0.1,1.4,0l7.2,3.6l-16.6,3.7L34,19c0,0-0.1,0-0.1,0c-0.2,0.1-0.4,0.2-0.6,0.4c-0.3,0.1-0.5,0.3-0.6,0.5
	c-1.9,1.6-1.5,3.7,1.3,5.1s7.1,1.6,10.3,0.7C44.7,25.6,45,25.5,45.2,25.4z M16.4,10.2l12.8-2.8l-5.7,6.4L16.4,10.2z M36.4,20.2
	l12.8-2.8l-5.7,6.4L36.4,20.2z"/>
</svg>
