<?xml version="1.0" encoding="utf-8"?>
<!-- Generator: Adobe Illustrator 18.1.0, SVG Export Plug-In . SVG Version: 6.00 Build 0)  -->
<svg version="1.1" id="Layer_1" xmlns="http://www.w3.org/2000/svg" xmlns:xlink="http://www.w3.org/1999/xlink" x="0px" y="0px"
	 viewBox="0 0 64 32" enable-background="new 0 0 64 32" xml:space="preserve">
<path fill-rule="evenodd" clip-rule="evenodd" fill="#2D3134" d="M22.8,13.7l1,2l2.8-5.3L19,6.5l1,1.9L20.3,9l-5.3,0.7
	c-0.5,0.1-0.9,0.2-1.2,0.4c-0.3,0.2-0.6,0.4-0.7,0.6c0,0-1.2,2.3-2.2,4.2c0.4-0.1,0.9-0.2,1.4-0.3l10.3-1.4L22.8,13.7z M12.3,15.2
	c-0.6,0.1-1.1,0.2-1.5,0.4c-0.4,0.2-0.7,0.4-0.8,0.7c-0.3,0.6,0,1.2,0.9,1.6c0,0,6.4,3.2,7.6,3.8c1.1-0.5,5-2.5,6.1-3.1
	c-1.2-0.6-7.3-3.7-8-4C15.7,14.8,12.3,15.2,12.3,15.2z M56.5,15.4l-3.9-0.5l-1-0.1l1.4-2.6c0.1-0.2,0.1-0.5,0-0.7
	c-0.1-0.2-0.4-0.4-0.7-0.6c0,0-3.4-1.7-6.1-3.1c0,0.2-0.1,0.5-0.2,0.7l-2.8,5.1l-1-0.1l-3.9-0.5l7.7,3.9L56.5,15.4z M43.4,10.6
	c0.2-0.5,1.1-2.1,1.1-2.1c0.2-0.3,0.2-0.6,0-0.9c-0.1-0.3-0.4-0.5-0.8-0.7c-0.8-0.4-2-0.6-3.1-0.4c0,0-8.8,1.2-10.4,1.4
	c0.4,0.7,1.9,3.4,2.3,4.2C34,11.8,42.5,10.7,43.4,10.6z M31.9,22.2l0.8-0.4l2.9-1.4L25,21.8l-2.8,5.3l2.9-1.4l0.8-0.4l3.8,1.9
	c0.4,0.2,0.8,0.3,1.2,0.4c0.4,0.1,0.9,0.1,1.4,0c0,0,4.6-0.6,8.4-1.1c-0.4-0.1-0.8-0.3-1.2-0.4L31.9,22.2z M45.7,24.8
	c0,0,2.4-4.4,2.8-5.2c-1.5-0.2-6.9-0.9-8.4-1.1c-0.4,0.8-2.7,5-2.9,5.5c0.7,0.3,3.1,1.6,3.1,1.6c0.4,0.2,0.9,0.4,1.5,0.4
	c0.5,0.1,1.1,0.1,1.7,0C44.6,25.8,45.4,25.4,45.7,24.8z"/>
</svg>
