<?xml version="1.0" encoding="utf-8"?>
<!-- Generator: Adobe Illustrator 18.1.0, SVG Export Plug-In . SVG Version: 6.00 Build 0)  -->
<svg version="1.1" id="Layer_1" xmlns="http://www.w3.org/2000/svg" xmlns:xlink="http://www.w3.org/1999/xlink" x="0px" y="0px"
	 viewBox="0 0 32 56" enable-background="new 0 0 32 56" xml:space="preserve">
<path fill="#2D3134" d="M18,23.9l2.3-7.3c0.1-0.4,0.9-0.1,1,0.5l0.7,3.7l8.2,6.5c0.6,0.5,0.9,1.4,0.6,1.8l-2.4,3.1
	c-0.3,0.3-0.9,0.2-1.4-0.3L23,27.9v1.5L2.7,9.5C2.3,9.1,1.8,9,1.6,9.3l0,0c-0.3,0.3-0.1,1,0.4,1.5L23,31.4v12c0,1.1-0.9,1.6-2,1h0
	c-1.1-0.6-2-1.9-2-3v-7l-7.5-3.7l4.2,8.1c0.6,1.2,0.4,2.3-0.5,2.5h0c-0.9,0.2-2.1-0.6-2.7-1.8L8,30.9v5c0,1.1-0.9,1.6-2,1l0,0
	c-1.1-0.6-2-1.9-2-3V21.4l-2.4-3.1c-0.6-0.7-0.8-1.6-0.4-2.1l0,0c0.4-0.5,1.4-0.2,2.1,0.6l2.2,2.8l11,5.5"/>
</svg>
