<?xml version="1.0" encoding="utf-8"?>
<!-- Generator: Adobe Illustrator 18.1.0, SVG Export Plug-In . SVG Version: 6.00 Build 0)  -->
<svg version="1.1" id="Layer_1" xmlns="http://www.w3.org/2000/svg" xmlns:xlink="http://www.w3.org/1999/xlink" x="0px" y="0px"
	 viewBox="0 0 32 32" enable-background="new 0 0 32 32" xml:space="preserve">
<g>
	<path fill-rule="evenodd" clip-rule="evenodd" fill="#2D3134" d="M7,29h18V8h-4V6.2C21,5,20,4,18.8,4h-5.6C12,4,11,5,11,6.2V8H7V29
		z M13,6h6v2h-6V6z"/>
	<path fill-rule="evenodd" clip-rule="evenodd" fill="#2D3134" d="M28.8,8H26v21h2.8c1.8,0,3.2-1.4,3.2-3.2V11.2
		C32,9.4,30.6,8,28.8,8z"/>
	<path fill-rule="evenodd" clip-rule="evenodd" fill="#2D3134" d="M6,8H3.2C1.4,8,0,9.4,0,11.2v14.6C0,27.6,1.4,29,3.2,29H6V8z"/>
</g>
</svg>
