<?xml version="1.0" encoding="utf-8"?>
<!-- Generator: Adobe Illustrator 18.1.0, SVG Export Plug-In . SVG Version: 6.00 Build 0)  -->
<svg version="1.1" id="Layer_1" xmlns="http://www.w3.org/2000/svg" xmlns:xlink="http://www.w3.org/1999/xlink" x="0px" y="0px"
	 viewBox="0 0 32 32" enable-background="new 0 0 32 32" xml:space="preserve">
<g>
	<path fill="#2D3134" d="M28.5,24.2H32c-1.1,2.2-2.7,3.9-5,5.2c-2.6,1.4-5.7,2.1-9.4,2.1c-3.6,0-6.7-0.6-9.3-1.8
		c-2.6-1.2-4.5-3-5.8-5.3s-1.9-4.9-1.9-7.7c0-3,0.7-5.9,2.2-8.5s3.4-4.6,5.9-5.9s5.4-2,8.6-2c2.7,0,5.2,0.5,7.3,1.6s3.7,2.6,4.9,4.5
		s1.7,4.1,1.7,6.4c0,2.8-0.9,5.3-2.6,7.5c-2.1,2.8-4.9,4.2-8.2,4.2c-0.9,0-1.6-0.2-2-0.5s-0.8-0.8-0.9-1.4c-1.3,1.2-2.8,1.9-4.4,1.9
		c-1.8,0-3.3-0.6-4.5-1.9c-1.2-1.2-1.8-2.9-1.8-5c0-2.5,0.7-4.9,2.1-7c1.7-2.6,4-3.8,6.7-3.8c1.9,0,3.4,0.7,4.3,2.2l0.4-1.8h4.3
		L22.1,19c-0.2,0.7-0.2,1.2-0.2,1.4c0,0.3,0.1,0.5,0.2,0.6s0.3,0.2,0.4,0.2c0.5,0,1.2-0.3,2-0.9c1.1-0.8,2-1.9,2.7-3.3s1-2.8,1-4.3
		c0-2.7-1-4.9-2.9-6.7s-4.6-2.7-8.1-2.7c-2.9,0-5.4,0.6-7.5,1.8s-3.6,2.9-4.6,5.1s-1.6,4.4-1.6,6.8c0,2.3,0.6,4.4,1.7,6.2
		s2.8,3.2,4.9,4.1s4.5,1.3,7.2,1.3c2.6,0,4.8-0.4,6.7-1.1C25.9,26.7,27.4,25.7,28.5,24.2z M11,17.5c0,1.4,0.3,2.4,0.8,3
		c0.6,0.7,1.2,1,2.1,1c0.6,0,1.2-0.2,1.7-0.5c0.4-0.2,0.8-0.6,1.2-1c0.6-0.7,1.1-1.6,1.5-2.9c0.4-1.3,0.6-2.4,0.6-3.5
		c0-1.2-0.3-2.2-0.9-2.8c-0.6-0.7-1.3-1-2.2-1c-0.9,0-1.8,0.4-2.6,1.1c-0.8,0.7-1.4,1.7-1.8,3.1C11.2,15.3,11,16.5,11,17.5z"/>
</g>
</svg>
