<?xml version="1.0" encoding="utf-8"?>
<!-- Generator: Adobe Illustrator 18.1.0, SVG Export Plug-In . SVG Version: 6.00 Build 0)  -->
<svg version="1.1" id="Layer_1" xmlns="http://www.w3.org/2000/svg" xmlns:xlink="http://www.w3.org/1999/xlink" x="0px" y="0px"
	 viewBox="0 0 64 32" enable-background="new 0 0 64 32" xml:space="preserve">
<path fill-rule="evenodd" clip-rule="evenodd" fill="#2D3134" d="M55,14L55,14c0-1.6-1.3-3.1-3.5-4.3l-6.9-3.4
	c-2.3-1.1-5.3-1.8-8.5-1.8c-3.2,0-6.3,0.6-8.5,1.8L9,15.5c-0.5,0.3-0.5,0.7,0,1l1,0.5l-2.7,1.4c-0.7,0.4-0.7,0.9,0,1.3l2.4,1.2
	c0.7,0.4,1.9,0.4,2.6,0l2.7-1.4l10,5l-2.7,1.4c-0.7,0.4-0.7,0.9,0,1.3l2.4,1.2c0.7,0.4,1.9,0.4,2.6,0L30,27l1,0.5
	c0.5,0.3,1.4,0.3,2,0l18.4-9.2C53.7,17.1,55,15.6,55,14z M41,6.5l10,5l-2,1l-10-5L41,6.5z M14.5,16.3c-0.8-0.4-0.8-1.1,0-1.5
	s2.2-0.4,3,0s0.8,1.1,0,1.5S15.3,16.7,14.5,16.3z M27,22.5l-8-4l1-0.5l8,4L27,22.5z M29,21.5l-8-4l1-0.5l8,4L29,21.5z M24,11l8-4
	l18,9l-8,4L24,11z M31.5,24.8c-0.8-0.4-0.8-1.1,0-1.5s2.2-0.4,3,0s0.8,1.1,0,1.5S32.3,25.2,31.5,24.8z"/>
</svg>
