<?xml version="1.0" encoding="utf-8"?>
<!-- Generator: Adobe Illustrator 18.1.0, SVG Export Plug-In . SVG Version: 6.00 Build 0)  -->
<svg version="1.1" id="Layer_1" xmlns="http://www.w3.org/2000/svg" xmlns:xlink="http://www.w3.org/1999/xlink" x="0px" y="0px"
	 viewBox="0 0 32 56" enable-background="new 0 0 32 56" xml:space="preserve">
<g>
	<path fill="#2D3134" d="M10,28c-2.5-1.1-4-0.9-4,0c0-2.8,1.5-4.6,4-3.9V16c0-1.1,0.9-1.6,2-1l9,4.5v-1c0-0.6-0.4-1.2-1-1.5L2,8
		C1.4,7.7,1,7.9,1,8.5v12.9C1,27,5.5,33.7,11,36.5c0.5,0.2,1,0.4,1.5,0.6c-1.5-2.7-2.5-5.6-2.5-8.2V28z M7.5,16.8
		C8.3,17.2,9,18.2,9,19s-0.7,1.2-1.5,0.8S6,18.3,6,17.5S6.7,16.3,7.5,16.8z"/>
	<path fill="#2D3134" d="M30,25l-18-9c-0.6-0.3-1-0.1-1,0.5v12.9c0,5.6,4.5,12.3,10,15.1c5.5,2.8,10,0.5,10-5.1V26.5
		C31,25.9,30.6,25.3,30,25z M17.5,24.7c0.8,0.4,1.5,1.4,1.5,2.2s-0.7,1.2-1.5,0.8S16,26.3,16,25.5S16.7,24.3,17.5,24.7z M21,38.5
		c-3.2-1.6-5-5.3-5-8.5c0,0.9,1.8,2.9,5,4.5c3.2,1.6,5,1.4,5,0.5C26,38.2,24.2,40.1,21,38.5z M24.5,31.2C23.7,30.8,23,29.8,23,29
		s0.7-1.2,1.5-0.8s1.5,1.4,1.5,2.2S25.3,31.7,24.5,31.2z"/>
</g>
</svg>
