<?xml version="1.0" encoding="utf-8"?>
<!-- Generator: Adobe Illustrator 18.1.0, SVG Export Plug-In . SVG Version: 6.00 Build 0)  -->
<svg version="1.1" id="Layer_1" xmlns="http://www.w3.org/2000/svg" xmlns:xlink="http://www.w3.org/1999/xlink" x="0px" y="0px"
	 viewBox="0 0 32 32" enable-background="new 0 0 32 32" xml:space="preserve">
<path fill-rule="evenodd" clip-rule="evenodd" fill="#2D3134" d="M31,20.9L27,6h-3V1h-5v15.1c0,0.5,0.4,0.9,0.9,0.9H21v4
	c-0.5,0.2-1,0.6-1,1.1v6.6c0,0.7,0.6,1.3,1.3,1.3h9.4c0.7,0,1.3-0.6,1.3-1.3v-6.6C32,21.5,31.6,21,31,20.9z M8,6H5L1,20.9
	c-0.5,0.2-1,0.6-1,1.2v6.6C0,29.4,0.6,30,1.3,30h9.4c0.7,0,1.3-0.6,1.3-1.3v-6.6c0-0.5-0.5-0.9-1-1.1v-4h1.1c0.5,0,0.9-0.4,0.9-0.9
	V1H8V6z M17.1,6h-2.2C14.4,6,14,6.4,14,6.9v8.2c0,0.5,0.4,0.9,0.9,0.9h2.2c0.5,0,0.9-0.4,0.9-0.9V6.9C18,6.4,17.6,6,17.1,6z"/>
</svg>
