<?xml version="1.0" encoding="utf-8"?>
<!-- Generator: Adobe Illustrator 18.1.0, SVG Export Plug-In . SVG Version: 6.00 Build 0)  -->
<svg version="1.1" id="Layer_1" xmlns="http://www.w3.org/2000/svg" xmlns:xlink="http://www.w3.org/1999/xlink" x="0px" y="0px"
	 viewBox="0 0 32 56" enable-background="new 0 0 32 56" xml:space="preserve">
<g>
	<path fill="#2D3134" d="M9,15.5l0,9l2-1v-7L28,8v13l-4.6,2.3L21,20.8c0,0,0,0-0.1,0c-0.6-0.9-2.5-0.4-3.7,0.3
		c-1.3,0.8-10.1,6.5-10.1,6.5C6.5,27.9,6,28.7,6,29.3c0,0.6,0.5,0.9,1.1,0.6l8.1-5.3l-3.5,5.2c-0.3,0.4-0.5,0.8-0.6,1.2l-2.8,8.1
		l-6.5,6.8c-0.7,0.8-1,1.8-0.6,2.4c0.4,0.5,1.3,0.3,2.1-0.4l6.9-7.2c0.1-0.1,0.2-0.2,0.3-0.3c0.2-0.3,0.4-0.5,0.5-0.9l2.3-5.8
		l3.7,1.5l0,6.9c0,0.8,0.6,1.1,1.5,0.7c0.7-0.4,1.4-1.6,1.4-2.2V33c0-0.4-0.2-0.7-0.5-0.8L16,30.4l4.3-6.5l1.6,1.6
		c0.2,0.2,0.4,0.2,0.7,0.1c0,0,0.1,0,0.1,0c0,0,0,0,0,0c0,0,0.1,0,0.1-0.1L28,23l0,15l2-1V5L9,15.5z"/>
	<path fill="#2D3134" d="M25.1,14.8c0-1.5-1.2-2.1-2.7-1.4c-1.5,0.8-2.7,2.6-2.7,4.1c0,1.5,1.2,2.1,2.7,1.4
		C23.8,18.2,25.1,16.3,25.1,14.8z"/>
</g>
</svg>
