<?xml version="1.0" encoding="utf-8"?>
<!-- Generator: Adobe Illustrator 18.1.0, SVG Export Plug-In . SVG Version: 6.00 Build 0)  -->
<svg version="1.1" id="Layer_1" xmlns="http://www.w3.org/2000/svg" xmlns:xlink="http://www.w3.org/1999/xlink" x="0px" y="0px"
	 viewBox="0 0 64 32" enable-background="new 0 0 64 32" xml:space="preserve">
<path fill-rule="evenodd" clip-rule="evenodd" fill="#2D3134" d="M44.4,20.5l0.5,0l0.3,0l10.5-0.6c0.6,0,1.1-0.2,1.1-0.5
	c0-0.3-0.5-0.2-1.1-0.2l-10.4,0.3c-0.1-0.2-0.2-0.3-0.2-0.5l0-0.9l10.5,0c0.6,0,1.1-0.2,1.1-0.5c0-0.3-0.5-0.5-1.1-0.5l-10.5,0
	l0-0.9c0-0.2,0.1-0.4,0.2-0.5l10.4,0.3c0.6,0,1.1,0.1,1.1-0.2c0-0.3-0.5-0.5-1.1-0.5l-10.5-0.6l-0.3,0l-0.5,0c-1.7,0-7,1.7-7,1.7
	l-5.5,0l0-12.5c0-0.7-1.2-1.3-2.6-1.3l-1.2,0c-1.4,0-3.1,1.1-3.5,2c0,0-2.7,6.5-2.1,7.5c0.6,1,4.2,1.5,4.2,1.5l0,2.7H8.3
	c-1.4,0-2.6,0.6-2.6,1.3c0,0.7,1.2,1.3,2.6,1.3l18.3,0l0,9.1c0,0.7,1.2,1.3,2.6,1.3c1.4,0,2.6-0.6,2.6-1.3l0-9.1l5.5,0
	C37.4,18.8,42.6,20.5,44.4,20.5z"/>
</svg>
