<?xml version="1.0" encoding="utf-8"?>
<!-- Generator: Adobe Illustrator 18.1.0, SVG Export Plug-In . SVG Version: 6.00 Build 0)  -->
<svg version="1.1" id="Layer_1" xmlns="http://www.w3.org/2000/svg" xmlns:xlink="http://www.w3.org/1999/xlink" x="0px" y="0px"
	 viewBox="0 0 64 32" enable-background="new 0 0 64 32" xml:space="preserve">
<g>
	<path fill="#2D3134" d="M24,12c-4.4,2.2-4.4,5.8,0,8s11.6,2.2,16,0c4.4-2.2,4.4-5.8,0-8S28.4,9.8,24,12z"/>
	<path fill="#2D3134" d="M42,11c0.6,0.3,1.4,0.3,2,0l4-2c0.6-0.3,0.6-0.7,0-1s-1.4-0.3-2,0l-4,2C41.4,10.3,41.4,10.7,42,11z"/>
	<path fill="#2D3134" d="M22,21c-0.6-0.3-1.4-0.3-2,0l-4,2c-0.6,0.3-0.6,0.7,0,1s1.4,0.3,2,0l4-2C22.6,21.7,22.6,21.3,22,21z"/>
	<path fill="#2D3134" d="M22,11c0.6-0.3,0.6-0.7,0-1l-4-2c-0.6-0.3-1.4-0.3-2,0s-0.6,0.7,0,1l4,2C20.6,11.3,21.4,11.3,22,11z"/>
	<path fill="#2D3134" d="M48,23l-4-2c-0.6-0.3-1.4-0.3-2,0s-0.6,0.7,0,1l4,2c0.6,0.3,1.4,0.3,2,0S48.6,23.3,48,23z"/>
	<path fill="#2D3134" d="M34.7,8.3c-0.2,0.4,0.2,0.8,1,0.9c0.8,0.1,1.5-0.1,1.7-0.5l1.5-2.7c0.2-0.4-0.2-0.8-1-0.9s-1.5,0.1-1.7,0.5
		L34.7,8.3z"/>
	<path fill="#2D3134" d="M29.3,23.7c0.2-0.4-0.2-0.8-1-0.9c-0.8-0.1-1.5,0.1-1.7,0.5l-1.5,2.7c-0.2,0.4,0.2,0.8,1,0.9
		c0.8,0.1,1.5-0.1,1.7-0.5L29.3,23.7z"/>
	<path fill="#2D3134" d="M17.3,13.3l-5.5-0.7c-0.8-0.1-1.5,0.1-1.7,0.5c-0.2,0.4,0.2,0.8,1,0.9l5.5,0.7c0.8,0.1,1.5-0.1,1.7-0.5
		C18.5,13.8,18.1,13.4,17.3,13.3z"/>
	<path fill="#2D3134" d="M46.7,18.7l5.5,0.7c0.8,0.1,1.5-0.1,1.7-0.5c0.2-0.4-0.2-0.8-1-0.9l-5.5-0.7c-0.8-0.1-1.5,0.1-1.7,0.5
		C45.5,18.2,45.9,18.6,46.7,18.7z"/>
	<path fill="#2D3134" d="M29.3,8.3l-1.5-2.7c-0.2-0.4-1-0.6-1.7-0.5c-0.8,0.1-1.2,0.5-1,0.9l1.5,2.7c0.2,0.4,1,0.6,1.7,0.5
		C29.1,9.1,29.5,8.7,29.3,8.3z"/>
	<path fill="#2D3134" d="M38.9,26.1l-1.5-2.7c-0.2-0.4-1-0.6-1.7-0.5c-0.8,0.1-1.2,0.5-1,0.9l1.5,2.7c0.2,0.4,1,0.6,1.7,0.5
		C38.6,26.8,39.1,26.4,38.9,26.1z"/>
	<path fill="#2D3134" d="M18.3,17.8c-0.2-0.4-1-0.6-1.7-0.5l-5.5,0.7c-0.8,0.1-1.2,0.5-1,0.9c0.2,0.4,1,0.6,1.7,0.5l5.5-0.7
		C18.1,18.6,18.5,18.2,18.3,17.8z"/>
	<path fill="#2D3134" d="M53.9,13.1c-0.2-0.4-1-0.6-1.7-0.5l-5.5,0.7c-0.8,0.1-1.2,0.5-1,0.9c0.2,0.4,1,0.6,1.7,0.5l5.5-0.7
		C53.6,13.8,54.1,13.4,53.9,13.1z"/>
</g>
</svg>
