<?xml version="1.0" encoding="utf-8"?>
<!-- Generator: Adobe Illustrator 18.1.0, SVG Export Plug-In . SVG Version: 6.00 Build 0)  -->
<svg version="1.1" id="Layer_1" xmlns="http://www.w3.org/2000/svg" xmlns:xlink="http://www.w3.org/1999/xlink" x="0px" y="0px"
	 viewBox="0 0 64 32" enable-background="new 0 0 64 32" xml:space="preserve">
<g>
	<path fill="#2D3134" d="M40,17c-3.3-1.7-8.7-1.7-12,0c-3.3,1.7-3.3,4.3,0,6c3.3,1.7,8.7,1.7,12,0C43.3,21.3,43.3,18.7,40,17z
		 M36,19c-1.1-0.6-2.9-0.6-4,0c-0.6,0.3-1.4,0.3-2,0s-0.6-0.7,0-1c2.2-1.1,5.8-1.1,8,0c0.6,0.3,0.6,0.7,0,1S36.6,19.3,36,19z"/>
	<path fill="#2D3134" d="M54,19.3l-1.3-0.6l-0.2-3.4l-9.9-4.9l-6.4,0.1l-5.4-2.7l1-0.5c0.5-0.2,0.5-0.6,0-0.9l-1.1-0.5
		c-0.5-0.2-1.3-0.2-1.8,0l-1,0.5L25.4,5C24.5,4.5,23,4.5,22,5L4.8,13.6c-0.9,0.5-0.9,1.2,0,1.7l28.7,14.3c0.9,0.5,2.4,0.5,3.3,0
		L54,21C55,20.5,55,19.8,54,19.3z M44,12l6,3l-2,1l-6-3L44,12z M26,24c-4.4-2.2-4.4-5.8,0-8c4.4-2.2,11.6-2.2,16,0
		c4.4,2.2,4.4,5.8,0,8C37.6,26.2,30.4,26.2,26,24z"/>
</g>
</svg>
