<?xml version="1.0" encoding="utf-8"?>
<!-- Generator: Adobe Illustrator 18.1.0, SVG Export Plug-In . SVG Version: 6.00 Build 0)  -->
<svg version="1.1" id="Layer_1" xmlns="http://www.w3.org/2000/svg" xmlns:xlink="http://www.w3.org/1999/xlink" x="0px" y="0px"
	 viewBox="0 0 64 32" enable-background="new 0 0 64 32" xml:space="preserve">
<g>
	<path fill="#2D3134" d="M25.6,17.4c-0.1-1.1-1.5-2.3-4-3.6c-1.3-0.6-2.5-1.1-3.7-1.5s-2.4-0.5-3.5-0.6c-1.2-0.1-2.3,0-3.4,0.2
		c-1.1,0.2-2.1,0.6-3.1,1.1c-1.4,0.7-2.2,1.4-2.5,2.1s-0.1,1.5,0.7,2.3c0.7,0.8,2,1.6,3.7,2.4c1.6,0.8,3.2,1.3,4.8,1.6
		c1.6,0.3,3.1,0.3,4.6,0.1c1.4-0.2,2.7-0.6,3.9-1.2C24.9,19.6,25.7,18.5,25.6,17.4z M16.1,19.3c-0.9-0.3-1.9-0.7-3.1-1.3
		c-1.1-0.6-2-1.1-2.6-1.5c-0.6-0.4-0.9-0.8-0.9-1.2c0-0.4,0.3-0.7,0.9-1c0.9-0.5,1.9-0.6,3.1-0.4c1.1,0.2,2.6,0.7,4.3,1.6
		c1.8,0.9,2.9,1.6,3.4,2.2c0.5,0.6,0.3,1.1-0.7,1.6c-0.6,0.3-1.3,0.5-2,0.5C17.8,19.7,17,19.6,16.1,19.3z"/>
	<path fill="#2D3134" d="M49.9,11.3c-1.2-0.3-2.4-0.5-3.5-0.6c-1.2-0.1-2.3,0-3.4,0.2c-1.1,0.2-2.1,0.6-3.1,1.1
		c-1.4,0.7-2.2,1.4-2.5,2.1s-0.1,1.5,0.7,2.3c0.7,0.8,2,1.6,3.7,2.4c1.6,0.8,3.2,1.3,4.8,1.6c1.6,0.3,3.1,0.3,4.6,0.1
		c1.4-0.2,2.7-0.6,3.9-1.2c1.9-0.9,2.7-2,2.6-3.1c-0.1-1.1-1.5-2.3-4-3.6C52.3,12.2,51.1,11.7,49.9,11.3z M53.2,16.7
		c0.5,0.6,0.3,1.1-0.7,1.6c-0.6,0.3-1.3,0.5-2,0.5c-0.7,0-1.5-0.2-2.4-0.5c-0.9-0.3-1.9-0.7-3.1-1.3c-1.1-0.6-2-1.1-2.6-1.5
		c-0.6-0.4-0.9-0.8-0.9-1.2c0-0.4,0.3-0.7,0.9-1c0.9-0.5,1.9-0.6,3.1-0.4c1.1,0.2,2.6,0.7,4.3,1.6C51.6,15.4,52.7,16.1,53.2,16.7z"
		/>
	<path fill="#2D3134" d="M27.9,4.3C27.5,4.1,27.1,4,26.6,4c-0.5,0-0.9,0.1-1.3,0.3c-0.4,0.2-0.6,0.4-0.6,0.6c0,0.2,0.1,0.5,0.3,0.9
		l10,21.3c0.1,0.3,0.3,0.6,0.6,0.7c0.4,0.2,0.8,0.3,1.3,0.2c0.5,0,0.9-0.1,1.2-0.3c0.5-0.3,0.6-0.7,0.3-1.2L28.7,5.4
		C28.4,4.8,28.1,4.4,27.9,4.3z"/>
</g>
</svg>
