<?xml version="1.0" encoding="utf-8"?>
<!-- Generator: Adobe Illustrator 18.1.0, SVG Export Plug-In . SVG Version: 6.00 Build 0)  -->
<svg version="1.1" id="Layer_1" xmlns="http://www.w3.org/2000/svg" xmlns:xlink="http://www.w3.org/1999/xlink" x="0px" y="0px"
	 viewBox="0 0 64 32" enable-background="new 0 0 64 32" xml:space="preserve">
<path fill-rule="evenodd" clip-rule="evenodd" fill="#2D3134" d="M21.5,16.1c-0.9-0.5-1.9-0.8-3.3-0.8c0-0.7-0.6-1.2-1.5-1.6
	c-3.4-1.7-7-1-9.2,0.7c-2.3,1.8-3,3.8-0.9,4.9c0.9,0.5,1.6,0.4,3,0.4c0,0.7-0.4,0.9,0.5,1.4c2.2,1.1,6.1,0.7,10-0.3
	C23.8,19.7,24.8,17.7,21.5,16.1z M24.3,15.9c3.2,0.2,6.1-0.8,6.1-0.8s-2.2-1.4-5.4-1.7c-3.2-0.2-6.1,0.8-6.1,0.8
	S21.1,15.7,24.3,15.9z"/>
<path fill-rule="evenodd" clip-rule="evenodd" fill="#2D3134" d="M48.9,20.2l6-6.6c0.3,0.1,0.8,0.1,1.1,0c0.2-0.1,0.3-0.3,0.2-0.4
	c0.3,0,0.6,0,0.8-0.1c0.3-0.2,0.3-0.4,0-0.6l-4-2c-0.3-0.2-0.9-0.2-1.2,0c-0.2,0.1-0.3,0.3-0.2,0.4c-0.3,0-0.6,0-0.8,0.1
	c-0.3,0.1-0.3,0.4-0.1,0.5l-13.2,3c-0.8,0.2-1.7,0.5-2.3,0.8l-17,8.5c-0.6,0.3-0.6,0.8,0,1.2l9.6,4.8c0.7,0.3,1.7,0.3,2.3,0l17-8.5
	C47.9,21.1,48.5,20.7,48.9,20.2z M42.1,15.1l10.5-2.4l-4.8,5.2L42.1,15.1z"/>
</svg>
