<?xml version="1.0" encoding="utf-8"?>
<!-- Generator: Adobe Illustrator 18.1.0, SVG Export Plug-In . SVG Version: 6.00 Build 0)  -->
<svg version="1.1" id="Layer_1" xmlns="http://www.w3.org/2000/svg" xmlns:xlink="http://www.w3.org/1999/xlink" x="0px" y="0px"
	 viewBox="0 0 32 32" enable-background="new 0 0 32 32" xml:space="preserve">
<g>
	<path fill="#2D3134" d="M5.8,20.8c-0.2-0.3-0.6-0.5-0.9-0.8c0.8-0.1,1.3-0.4,1.7-0.8c0.4-0.4,0.6-1,0.6-1.7c0-0.5-0.1-1-0.4-1.4
		c-0.3-0.4-0.6-0.7-1-0.9c-0.4-0.2-1.1-0.2-2-0.2H0v9h1.8v-3.8h0.4c0.4,0,0.7,0,0.9,0.1c0.2,0.1,0.4,0.2,0.5,0.4S4,21.3,4.5,22
		l1.3,2h2.1l-1.1-1.8C6.4,21.5,6,21.1,5.8,20.8z M3.1,18.8H1.8v-2.3h1.4c0.7,0,1.1,0,1.3,0c0.3,0,0.5,0.2,0.7,0.4s0.2,0.4,0.2,0.7
		c0,0.3-0.1,0.5-0.2,0.7c-0.1,0.2-0.3,0.3-0.5,0.4S3.9,18.8,3.1,18.8z"/>
	<polygon fill="#2D3134" points="10.8,20 15.1,20 15.1,18.5 10.8,18.5 10.8,16.5 15.5,16.5 15.5,15 9,15 9,24 15.6,24 15.6,22.5 
		10.8,22.5 	"/>
	<polygon fill="#2D3134" points="22.4,21 18.8,15 17.1,15 17.1,24 18.7,24 18.7,18.1 22.2,24 24,24 24,15 22.4,15 	"/>
	<polygon fill="#2D3134" points="25.1,15 25.1,16.5 27.7,16.5 27.7,24 29.4,24 29.4,16.5 32,16.5 32,15 	"/>
	<polygon fill="#2D3134" points="0.9,9.8 3.5,9.8 3.5,9 0.9,9 0.9,6.9 4.6,6.9 4.6,6.1 0,6.1 0,12.9 0.9,12.9 	"/>
	<path fill="#2D3134" d="M11.6,11.4c0.3-0.5,0.4-1.2,0.4-1.8c0-0.7-0.1-1.3-0.4-1.8c-0.3-0.5-0.7-0.9-1.2-1.2C9.8,6.1,9.2,6,8.5,6
		C7.5,6,6.6,6.3,6,7C5.3,7.6,5,8.5,5,9.6c0,0.6,0.1,1.2,0.4,1.7c0.3,0.5,0.7,1,1.2,1.3C7.2,12.8,7.8,13,8.5,13
		c0.6,0,1.2-0.1,1.8-0.4C10.8,12.3,11.3,11.9,11.6,11.4z M8.5,12.2c-0.7,0-1.3-0.2-1.8-0.7C6.2,11.1,6,10.4,6,9.6
		c0-1,0.2-1.7,0.7-2.2C7.2,7,7.8,6.8,8.5,6.8c0.5,0,0.9,0.1,1.3,0.3c0.4,0.2,0.7,0.5,0.9,1C10.9,8.5,11,9,11,9.5
		c0,0.9-0.2,1.5-0.7,2S9.2,12.2,8.5,12.2z"/>
	<path fill="#2D3134" d="M19.1,13l-1.2-1.8c-0.2-0.4-0.5-0.7-0.7-0.9c-0.1-0.1-0.3-0.2-0.5-0.3c0.6-0.1,1.1-0.3,1.4-0.6
		c0.3-0.3,0.5-0.7,0.5-1.2c0-0.4-0.1-0.7-0.3-1c-0.2-0.3-0.4-0.5-0.8-0.6s-0.8-0.2-1.4-0.2l-3-0.1v6.8H14v-3l1,0.1
		c0.2,0,0.4,0,0.5,0c0.1,0,0.3,0.1,0.4,0.2c0.1,0.1,0.3,0.2,0.5,0.5s0.4,0.5,0.6,0.9l0.9,1.4H19.1z M15.9,9.2L14,9.1V6.9L16.1,7
		c0.5,0,0.9,0.1,1.1,0.3c0.2,0.2,0.3,0.5,0.3,0.8c0,0.2-0.1,0.4-0.2,0.6S17.1,9,16.9,9.1S16.3,9.2,15.9,9.2z"/>
</g>
</svg>
