<?xml version="1.0" encoding="utf-8"?>
<!-- Generator: Adobe Illustrator 18.1.0, SVG Export Plug-In . SVG Version: 6.00 Build 0)  -->
<svg version="1.1" id="Layer_1" xmlns="http://www.w3.org/2000/svg" xmlns:xlink="http://www.w3.org/1999/xlink" x="0px" y="0px"
	 viewBox="0 0 32 32" enable-background="new 0 0 32 32" xml:space="preserve">
<path fill-rule="evenodd" clip-rule="evenodd" fill="#2D3134" d="M31,24.8L28.6,19c-0.1-0.2-0.2-0.3-0.4-0.3c-0.2-0.1-0.5-0.2-0.7,0
	l-5.1,3.7c-0.3,0.2-0.3,0.6-0.1,0.9l0.3,0.4c0.2,0.3,0.6,0.3,0.9,0.1l2.9-2.1c-0.4,2-1.4,3.8-2.9,5.2c-1.4,1.3-3.3,2.3-5.4,2.7V11h3
	c0.6,0,1-0.4,1-1v0c0-0.6-0.4-1-1-1h-3V7.4c1.5-0.8,2.3-2.6,1.9-4.4c-0.3-1.4-1.5-2.6-2.9-2.9c-2.6-0.6-5,1.4-5,3.9
	c0,1.5,0.8,2.8,2,3.4V9h-3c-0.6,0-1,0.4-1,1v0c0,0.6,0.4,1,1,1h3v18.5c-2.1-0.4-4-1.3-5.4-2.7c-1.5-1.4-2.5-3.2-2.9-5.2l2.9,2.1
	c0.3,0.2,0.7,0.1,0.9-0.1l0.3-0.4c0.2-0.3,0.1-0.7-0.1-0.9l-5.1-3.7c-0.2-0.2-0.5-0.2-0.7,0c-0.2,0.1-0.3,0.2-0.4,0.3L1,24.8
	c-0.1,0.3,0,0.7,0.3,0.8l0.5,0.2c0.3,0.1,0.7,0,0.8-0.3l1-2.4c0.6,2.1,1.8,4,3.4,5.5c2.3,2.2,5.5,3.5,9,3.5c3.5,0,6.7-1.3,9-3.5
	c1.6-1.5,2.8-3.4,3.4-5.5l1,2.4c0.1,0.3,0.5,0.5,0.8,0.3l0.5-0.2C30.9,25.5,31.1,25.1,31,24.8z M16,2c1.1,0,2,0.9,2,2
	c0,1.1-0.9,2-2,2s-2-0.9-2-2C14,2.9,14.9,2,16,2z"/>
</svg>
