<?xml version="1.0" encoding="utf-8"?>
<!-- Generator: Adobe Illustrator 18.1.0, SVG Export Plug-In . SVG Version: 6.00 Build 0)  -->
<svg version="1.1" id="Layer_1" xmlns="http://www.w3.org/2000/svg" xmlns:xlink="http://www.w3.org/1999/xlink" x="0px" y="0px"
	 viewBox="0 0 64 32" enable-background="new 0 0 64 32" xml:space="preserve">
<path fill-rule="evenodd" clip-rule="evenodd" fill="#2D3134" d="M64,15.5L39.2,6.8L18.8,17c-0.1-0.7-0.5-1.1-1.6-1.7
	c-1-0.5-2.2-0.8-3.8-1.1c-1.6-0.3-3.1-0.3-4.7-0.2c-1.6,0.1-2.9,0.4-3.9,0.9c-0.9,0.5-1.2,1-1.1,1.6c0.2,0.6,0.7,1.1,1.7,1.6
	c1,0.5,2.5,1,4,1.3c1.6,0.3,3.4,0.5,4.9,0.4c1.6-0.1,3.2-0.2,4.3-0.8l13.1-6.6l19.7,7.1l-10.4,5.2c-0.1-0.7-0.5-1.1-1.6-1.7
	c-1-0.5-2.2-0.8-3.8-1.1c-1.6-0.3-3.1-0.3-4.7-0.2c-1.6,0.1-2.9,0.4-3.9,0.9c-0.9,0.5-1.2,1-1.1,1.6c0.2,0.6,0.7,1.1,1.7,1.6
	c1,0.5,2.5,1,4,1.3c1.6,0.3,3.4,0.5,4.9,0.4c1.6-0.1,3.2-0.2,4.3-0.8L64,15.5z M53.6,18.6l-19.7-7.1l2.2-1.1l19.7,7.1L53.6,18.6z"/>
</svg>
