<?xml version="1.0" encoding="utf-8"?>
<!-- Generator: Adobe Illustrator 18.1.0, SVG Export Plug-In . SVG Version: 6.00 Build 0)  -->
<svg version="1.1" id="Layer_1" xmlns="http://www.w3.org/2000/svg" xmlns:xlink="http://www.w3.org/1999/xlink" x="0px" y="0px"
	 viewBox="0 0 64 32" enable-background="new 0 0 64 32" xml:space="preserve">
<g>
	<path fill="#2D3134" d="M37,13.5c-3.3-1.7-8.7-1.7-12,0c-3.3,1.7-3.3,4.3,0,6c3.3,1.7,8.7,1.7,12,0C40.3,17.8,40.3,15.2,37,13.5z
		 M33,15.5c-1.1-0.6-2.9-0.6-4,0c-0.6,0.3-1.4,0.3-2,0s-0.6-0.7,0-1c2.2-1.1,5.8-1.1,8,0c0.6,0.3,0.6,0.7,0,1S33.6,15.8,33,15.5z"/>
	<path fill="#2D3134" d="M47.4,24.2c0.2-0.3,3.8-8.6-5.4-13.2S16.4,8.2,15.7,8.3l-0.9,0.1l-0.2,0.4C14.5,9.2,10.8,17.4,20,22
		s25.6,2.8,26.3,2.7l0.9-0.1L47.4,24.2z M22,21c-7-3.5-5.4-9.7-4.8-11.4C20.6,9.3,33,8.5,40,12s5.4,9.7,4.8,11.4
		C41.4,23.7,29,24.5,22,21z"/>
</g>
</svg>
