<?xml version="1.0" encoding="utf-8"?>
<!-- Generator: Adobe Illustrator 18.1.0, SVG Export Plug-In . SVG Version: 6.00 Build 0)  -->
<svg version="1.1" id="Layer_1" xmlns="http://www.w3.org/2000/svg" xmlns:xlink="http://www.w3.org/1999/xlink" x="0px" y="0px"
	 viewBox="0 0 64 32" enable-background="new 0 0 64 32" xml:space="preserve">
<g>
	<path fill="#2D3134" d="M36.3,26.4l3.5,1.7c-3.3,0.6-6.7,0.6-10.2,0.1c-4-0.6-7.8-1.8-11.5-3.6c-3.6-1.8-6.1-3.6-7.5-5.5
		s-1.5-3.8-0.5-5.6s3-3.4,5.8-4.8c3-1.5,6.6-2.6,10.7-3.2s8-0.6,11.8,0S45.8,7.2,49,8.8c2.7,1.4,4.6,2.8,5.7,4.4s1.2,3.2,0.3,4.7
		c-0.8,1.5-2.4,2.9-4.7,4c-2.8,1.4-6.1,2.2-10,2.5c-5,0.3-9.1-0.3-12.4-2c-0.9-0.4-1.4-0.9-1.6-1.3c-0.1-0.4,0-0.8,0.5-1.1
		c-2.5,0-4.6-0.4-6.3-1.3c-1.8-0.9-2.7-2-2.6-3.2s1.1-2.3,3.2-3.4c2.5-1.3,5.6-2.1,9.1-2.4c4.3-0.4,7.8,0.1,10.5,1.4
		c1.9,1,2.6,2,2.1,3.2l2.2-0.7l4.3,2.1l-14.1,4.6c-0.9,0.3-1.4,0.5-1.7,0.6c-0.3,0.1-0.4,0.3-0.4,0.4c0,0.1,0.1,0.2,0.2,0.3
		c0.5,0.3,1.5,0.4,3,0.5c1.9,0.1,3.9,0,6-0.3c2.1-0.4,3.8-0.9,5.3-1.6c2.7-1.3,3.9-2.9,3.8-4.8S49.4,12,46,10.2
		c-2.9-1.5-6-2.4-9.3-2.8C33.5,7,30.3,7.1,27,7.6s-6,1.4-8.3,2.6c-2.3,1.1-3.8,2.5-4.5,4s-0.5,3,0.8,4.5c1.2,1.5,3.2,2.9,5.9,4.2
		c2.6,1.3,5.2,2.2,7.8,2.8S33.7,26.5,36.3,26.4z M25.4,14.2c-1.4,0.7-2.1,1.3-2.2,1.9c-0.1,0.6,0.3,1.1,1.1,1.5
		c0.6,0.3,1.3,0.5,2.2,0.6c0.6,0.1,1.4,0.1,2.2,0.1c1.2,0,2.7-0.3,4.4-0.7c1.7-0.4,3.1-0.9,4.2-1.5c1.2-0.6,1.9-1.2,2-1.8
		s-0.3-1.1-1.2-1.6c-0.9-0.5-2.2-0.7-3.7-0.8s-3.1,0.2-4.9,0.6C27.8,13.2,26.5,13.7,25.4,14.2z"/>
</g>
</svg>
