<?xml version="1.0" encoding="utf-8"?>
<!-- Generator: Adobe Illustrator 18.1.0, SVG Export Plug-In . SVG Version: 6.00 Build 0)  -->
<svg version="1.1" id="Layer_1" xmlns="http://www.w3.org/2000/svg" xmlns:xlink="http://www.w3.org/1999/xlink" x="0px" y="0px"
	 viewBox="0 0 32 56" enable-background="new 0 0 32 56" xml:space="preserve">
<g>
	<path fill-rule="evenodd" clip-rule="evenodd" fill="#2D3134" d="M24.2,12.7c-0.8-0.8-1.9-1.2-3.3-1.2c-1.4,0-3.1,0.5-5,1.4
		c-2,1-3.8,2.3-5.3,3.9c-1.5,1.6-2.7,3.2-3.5,4.9C6.4,23.4,6,24.9,6,26.1c0,0.6,0.2,1,0.7,1.3c0.5,0.3,1.1,0.2,1.8-0.2
		c1.2-0.6,2.1-1.8,2.5-3.4c0.5-1.6,1-3,1.7-4c0.7-1.1,1.7-1.9,3.1-2.6c1.2-0.6,2.2-0.7,3-0.4c0.8,0.3,1.2,1,1.2,2
		c0,0.5-0.1,1.1-0.4,1.7c-0.3,0.6-0.6,1.1-0.9,1.7c-0.4,0.6-1,1.4-1.8,2.5c-0.9,1.3-1.7,2.4-2.3,3.3c-0.6,0.9-1,1.8-1.3,2.8
		c-0.3,1-0.5,2-0.5,3.1c0,0.9,0.2,1.4,0.7,1.6c0.5,0.2,1,0.1,1.7-0.2c1.3-0.6,2.1-1.7,2.3-3.2c0.1-0.7,0.2-1.2,0.3-1.5
		c0.1-0.3,0.2-0.6,0.3-0.9c0.1-0.3,0.3-0.7,0.6-1.1c0.3-0.4,0.6-1,1.1-1.6c1.6-2.2,2.7-3.8,3.3-4.7c0.6-0.9,1.1-1.9,1.6-2.9
		c0.4-1.1,0.7-2.1,0.7-3.2C25.4,14.6,25,13.5,24.2,12.7z"/>
	<path fill-rule="evenodd" clip-rule="evenodd" fill="#2D3134" d="M15,36.5c-1.7,0.8-3,2.8-3,4.5s1.3,2.3,3,1.5s3-2.8,3-4.5
		S16.7,35.7,15,36.5z"/>
</g>
</svg>
