<?xml version="1.0" encoding="utf-8"?>
<!-- Generator: Adobe Illustrator 18.1.0, SVG Export Plug-In . SVG Version: 6.00 Build 0)  -->
<svg version="1.1" id="Layer_1" xmlns="http://www.w3.org/2000/svg" xmlns:xlink="http://www.w3.org/1999/xlink" x="0px" y="0px"
	 viewBox="0 0 32 32" enable-background="new 0 0 32 32" xml:space="preserve">
<path fill="#2D3134" d="M26.9,4.1c-0.2-0.2-0.5-0.2-0.7,0L21,9v5c0,0.5-1.9,1.5-5.5,1.5S10,14.5,10,14c0-0.2-0.2-0.4-0.4-0.5
	C9.4,13.2,9,13,8.5,13C7.6,13,7,13.6,7,14.5V18H3v-3.5C3,13.7,2.3,13,1.5,13S0,13.7,0,14.5v15C0,29.8,0.2,30,0.5,30h2
	C2.8,30,3,29.8,3,29.5V29h4v0.5C7,29.8,7.2,30,7.5,30h2c0.3,0,0.5-0.2,0.5-0.5v-9.6c0.4,0.2,0.8,0.4,1.3,0.5c0,0,0.1,0,0.1,0
	c1.2,0.3,2.6,0.5,4.1,0.5c1.5,0,2.9-0.2,4.1-0.5c0.1,0,0.1,0,0.1,0c0.5-0.2,0.9-0.3,1.3-0.5v9.6c0,0.3,0.2,0.5,0.5,0.5h2
	c0.3,0,0.5-0.2,0.5-0.5V19h5v10.5c0,0.3,0.2,0.5,0.5,0.5h2c0.3,0,0.5-0.2,0.5-0.5V9L26.9,4.1z M7,28H3v-1h4V28z M7,26H3v-1h4V26z
	 M7,24H3v-1h4V24z M7,22H3v-1h4V22z M7,20H3v-1h4V20z M11,16v3.3c-0.7-0.3-1-0.6-1-0.8V18v-2.6c0.3,0.2,0.6,0.3,1,0.5
	C11,15.9,11,16,11,16z M13,19.8c-0.4-0.1-0.7-0.1-1-0.2v-3.5c0.3,0.1,0.7,0.1,1,0.2V19.8z M15,20c-0.4,0-0.7,0-1-0.1v-3.5
	c0.3,0,0.7,0,1,0.1V20z M17,19.9c-0.3,0-0.6,0-1,0.1v-3.5c0.3,0,0.7,0,1-0.1V19.9z M19,19.6c-0.3,0.1-0.6,0.1-1,0.2v-3.5
	c0.3-0.1,0.7-0.1,1-0.2V19.6z M21,18.5c0,0.2-0.3,0.5-1,0.8V16c0,0,0-0.1,0-0.1c0.4-0.1,0.7-0.3,1-0.5V18.5z M26.5,16
	c-1.4,0-2.5-1.1-2.5-2.5c0-1.4,1.1-2.5,2.5-2.5s2.5,1.1,2.5,2.5C29,14.9,27.9,16,26.5,16z"/>
</svg>
