<?xml version="1.0" encoding="utf-8"?>
<!-- Generator: Adobe Illustrator 18.1.0, SVG Export Plug-In . SVG Version: 6.00 Build 0)  -->
<svg version="1.1" id="Layer_1" xmlns="http://www.w3.org/2000/svg" xmlns:xlink="http://www.w3.org/1999/xlink" x="0px" y="0px"
	 viewBox="0 0 64 32" enable-background="new 0 0 64 32" xml:space="preserve">
<path fill-rule="evenodd" clip-rule="evenodd" fill="#2D3134" d="M58.8,16.6l0.7-0.3c0.8-0.4,0.5-1-0.4-1.2L22,5.8
	c-0.6-0.1-1.3-0.1-1.8,0.1l-0.7,0.3c-0.8,0.4-0.5,1,0.4,1.2l3.4,0.9L5,17.5l23.9,12c0.6,0.3,1.6,0.3,2.2,0l0.8-0.4
	c0.6-0.3,0.6-0.8,0-1.1L11,17.5l16.3-8.2L57,16.7C57.6,16.9,58.3,16.8,58.8,16.6z"/>
</svg>
