<?xml version="1.0" encoding="utf-8"?>
<!-- Generator: Adobe Illustrator 18.1.0, SVG Export Plug-In . SVG Version: 6.00 Build 0)  -->
<svg version="1.1" id="Layer_1" xmlns="http://www.w3.org/2000/svg" xmlns:xlink="http://www.w3.org/1999/xlink" x="0px" y="0px"
	 viewBox="0 0 64 32" enable-background="new 0 0 64 32" xml:space="preserve">
<path fill="#2D3134" d="M49,20.5c-0.1,0-0.2-0.1-0.3-0.1c1.3-1,2.1-2,2.6-3.1c0.1,0,0.2,0,0.4,0c0.8,0,1.5-0.1,2-0.4
	c0.5-0.3,0.8-0.6,0.8-1v-0.7c0-0.8-1.3-1.4-2.8-1.4c-0.1,0-0.2,0-0.4,0c-0.4-1.1-1.3-2.2-2.6-3.1c0.1,0,0.2-0.1,0.3-0.1
	c1.1-0.6,1.1-1.4,0-2L48,8c-1.1-0.6-2.9-0.6-4,0c-0.1,0-0.2,0.1-0.2,0.1c-1.9-0.6-4.1-1.1-6.3-1.3c0-0.1,0-0.1,0-0.2
	c0-0.8-1.3-1.4-2.8-1.4h-1.4c-0.8,0-1.5,0.1-2,0.4c-0.5,0.3-0.8,0.6-0.8,1c0,0.1,0,0.1,0,0.2c-2.2,0.2-4.3,0.7-6.3,1.3
	C24.2,8.1,24.1,8,24,8c-1.1-0.6-2.9-0.6-4,0l-1,0.5c-1.1,0.6-1.1,1.4,0,2c0.1,0,0.2,0.1,0.3,0.1c-1.3,1-2.1,2-2.6,3.1
	c-0.1,0-0.2,0-0.4,0c-0.8,0-1.5,0.1-2,0.4c-0.5,0.3-0.8,0.6-0.8,1v0.7c0,0.4,0.3,0.7,0.8,1s1.2,0.4,2,0.4c0.1,0,0.2,0,0.4,0
	c0.2,0.5,0.5,1.1,0.9,1.6L12.1,20L11,19.5c-0.6-0.3-1.4-0.3-2,0c-0.6,0.3-0.6,0.7,0,1L23.9,28c0.6,0.3,1.4,0.3,2,0
	c0.6-0.3,0.6-0.7,0-1l-1-0.5l2.4-2.8c1,0.2,2.1,0.4,3.1,0.5c0,0.1,0,0.1,0,0.2c0,0.4,0.3,0.7,0.8,1s1.2,0.4,2,0.4h1.4
	c0.8,0,1.5-0.1,2-0.4c0.5-0.3,0.8-0.6,0.8-1c0-0.1,0-0.1,0-0.2c2.2-0.2,4.3-0.7,6.3-1.3c0.1,0,0.1,0.1,0.2,0.1c1.1,0.6,2.9,0.6,4,0
	l1-0.5C50.1,21.9,50.1,21.1,49,20.5z M45,10.5c0.7,0.3,1.5,0.5,2.4,0.4c1.3,1,2.2,2,2.6,3.1c-0.7,0.3-1.1,0.7-1.1,1.1l-11.4,0
	c-0.1-0.2-0.3-0.4-0.5-0.6L45,10.5z M31.4,17.3l-4.7,5.4c-0.6-0.2-1.3-0.3-1.9-0.6c0.1-0.4-0.1-0.9-0.8-1.2L31.4,17.3z M37,7.5
	c2.2,0.2,4.3,0.6,6.3,1.3C43.1,9.2,43.3,9.7,44,10l-8.1,4c-0.4-0.1-0.8-0.2-1.2-0.3l0-5.7C35.6,8.1,36.4,7.9,37,7.5z M31,7.5
	c0.1,0.1,0.2,0.1,0.3,0.2c0.5,0.3,1.2,0.4,2,0.4l0,5.7c-0.4,0-0.9,0.1-1.2,0.3L24,10c0.7-0.3,0.9-0.8,0.8-1.2
	C26.7,8.1,28.8,7.7,31,7.5z M19.2,15.1c0-0.5-0.4-0.9-1.1-1.1c0.4-1.1,1.3-2.2,2.6-3.1c0.9,0.1,1.7-0.1,2.4-0.4l8.1,4
	c-0.3,0.2-0.4,0.4-0.5,0.6L19.2,15.1z M18,17c0.7-0.3,1.1-0.7,1.1-1.1l11.4,0c0,0,0.1,0.1,0.1,0.1l-11.7,2.5
	C18.5,18,18.2,17.5,18,17z M30.4,16.8L23,20.5c-0.7-0.3-1.5-0.5-2.4-0.4c-0.4-0.3-0.8-0.6-1.1-0.9L30.4,16.8z M23.9,25.9l-10.7-5.4
	l5.1-1.1c0.3,0.3,0.7,0.6,1.1,0.9c-0.1,0-0.2,0.1-0.3,0.1c-1.1,0.6-1.1,1.4,0,2l1,0.5c1.1,0.6,2.9,0.6,4,0c0.1,0,0.2-0.1,0.2-0.1
	c0.6,0.2,1.2,0.4,1.9,0.5L23.9,25.9z M31,23.5c-1.1-0.1-2.1-0.2-3.1-0.4l5.1-5.9c0.1,0,0.2,0,0.3,0l0,5.7
	C32.4,22.9,31.6,23.1,31,23.5z M37,23.5c-0.5-0.3-1.3-0.6-2.3-0.6l0-5.7c0.4,0,0.9-0.1,1.2-0.3l8.1,4c-0.7,0.3-0.9,0.8-0.8,1.2
	C41.3,22.9,39.2,23.3,37,23.5z M45,20.5l-8.1-4c0.3-0.2,0.4-0.4,0.5-0.6l11.4,0c0,0.4,0.3,0.7,0.8,1c0.1,0,0.2,0.1,0.3,0.1
	c-0.4,1.1-1.3,2.2-2.6,3.1C46.5,20,45.7,20.2,45,20.5z"/>
</svg>
