<?xml version="1.0" encoding="utf-8"?>
<!-- Generator: Adobe Illustrator 18.1.0, SVG Export Plug-In . SVG Version: 6.00 Build 0)  -->
<svg version="1.1" id="Layer_1" xmlns="http://www.w3.org/2000/svg" xmlns:xlink="http://www.w3.org/1999/xlink" x="0px" y="0px"
	 viewBox="0 0 32 56" enable-background="new 0 0 32 56" xml:space="preserve">
<g>
	<path fill-rule="evenodd" clip-rule="evenodd" fill="#2D3134" d="M24.9,39.5c0.6,0.7,1.3,1.2,2.1,1.6c2.3,1.2,4.2,0.2,4.2-2.1
		c0-2.3-1.9-5.1-4.2-6.3c-0.1-0.1-0.3-0.1-0.4-0.2v-1L3.8,20.1v2.3c0,4.7,2.9,11.5,6.9,15.4l-8.2-4.1c0.6,1.7,2.7,3.9,5.4,5.2
		l14.5,7.2c2.6,1.3,4.8,1.3,5.4,0.1l-8.2-4.1C21.8,42.3,23.6,41.3,24.9,39.5z M26.5,34.1c0.1,0,0.3,0.1,0.4,0.2
		c1.4,0.7,2.6,2.5,2.6,3.9c0,1.4-1.2,2-2.6,1.3c-0.5-0.3-1-0.7-1.4-1.1C26.1,37.1,26.5,35.7,26.5,34.1z"/>
	<path fill-rule="evenodd" clip-rule="evenodd" fill="#2D3134" d="M14.6,24.3c0,0,4.1,0.4,3.7-2.5c-0.4-2.9-2.5-3.9-2.9-6.1
		c-0.6-2.7,1.2-3.1,1.2-3.1s-3-0.6-3.5,1.9c-0.4,2.1,1.3,3.7,1.8,5.6C15.5,22,14.6,24.3,14.6,24.3z"/>
</g>
</svg>
