<?xml version="1.0" encoding="utf-8"?>
<!-- Generator: Adobe Illustrator 18.1.0, SVG Export Plug-In . SVG Version: 6.00 Build 0)  -->
<svg version="1.1" id="Layer_1" xmlns="http://www.w3.org/2000/svg" xmlns:xlink="http://www.w3.org/1999/xlink" x="0px" y="0px"
	 viewBox="0 0 64 32" enable-background="new 0 0 64 32" xml:space="preserve">
<g>
	<path fill-rule="evenodd" clip-rule="evenodd" fill="#2D3134" d="M51.4,14.5c0.4-1,0.2-2-0.5-3.1c-0.7-1.1-2.1-2.1-3.9-3
		c-2-1-4.2-1.7-6.5-2c-2.3-0.3-4.5-0.4-6.6-0.2c-2.1,0.2-3.7,0.7-4.9,1.3C28.3,7.9,28,8.3,28,8.8c0,0.5,0.3,0.9,1.1,1.3
		c1.2,0.6,2.8,0.7,4.7,0.2c1.9-0.5,3.5-0.7,4.9-0.7c1.4,0,2.8,0.3,4.2,1c1.2,0.6,1.9,1.3,1.9,2c0.1,0.7-0.4,1.4-1.5,1.9
		c-0.5,0.3-1.1,0.4-1.9,0.5c-0.7,0.1-1.4,0.2-2.2,0.2c-0.7,0-1.9,0-3.4-0.1C34.1,15,32.6,15,31.4,15c-1.2,0-2.3,0.1-3.4,0.4
		s-2.2,0.6-3.3,1.2c-0.9,0.4-1.3,0.9-1.3,1.3c0,0.4,0.4,0.8,1,1.2c1.3,0.6,2.7,0.7,4.3,0.1c0.8-0.2,1.3-0.4,1.7-0.5
		c0.3-0.1,0.7-0.2,1.1-0.2c0.4-0.1,0.9-0.1,1.4-0.1c0.6,0,1.3,0,2.1,0c3,0.1,5.1,0.1,6.3,0.1s2.5-0.1,3.7-0.3
		c1.3-0.2,2.5-0.6,3.6-1.1C50.1,16.4,51,15.5,51.4,14.5z"/>
	<path fill-rule="evenodd" clip-rule="evenodd" fill="#2D3134" d="M23,19.5c-1.7-0.8-4.3-0.8-6,0s-1.7,2.2,0,3s4.3,0.8,6,0
		S24.7,20.3,23,19.5z"/>
</g>
</svg>
