<?xml version="1.0" encoding="utf-8"?>
<!-- Generator: Adobe Illustrator 18.1.0, SVG Export Plug-In . SVG Version: 6.00 Build 0)  -->
<svg version="1.1" id="Layer_1" xmlns="http://www.w3.org/2000/svg" xmlns:xlink="http://www.w3.org/1999/xlink" x="0px" y="0px"
	 viewBox="0 0 64 32" enable-background="new 0 0 64 32" xml:space="preserve">
<g>
	<polygon fill="#2D3134" points="21,24.5 25,26.5 29,24.5 25,22.5 	"/>
	<polygon fill="#2D3134" points="33,26.5 37,24.5 33,22.5 29,24.5 	"/>
	<polygon fill="#2D3134" points="29,20.5 33,22.5 37,20.5 33,18.5 	"/>
	<polygon fill="#2D3134" points="41,22.5 45,20.5 41,18.5 37,20.5 	"/>
	<polygon fill="#2D3134" points="37,16.5 41,18.5 45,16.5 41,14.5 	"/>
	<polygon fill="#2D3134" points="49,14.5 53,12.5 49,10.5 45,12.5 	"/>
	<polygon fill="#2D3134" points="49,18.5 53,16.5 49,14.5 45,16.5 	"/>
	<polygon fill="#2D3134" points="21,22.5 23,21.5 14.7,17.4 17.6,15.9 15.9,15.1 8.1,19 9.8,19.8 12.7,18.3 	"/>
	<path fill="#2D3134" d="M27.2,19.4l-1.5-1.5l3.9-2l3.1,0.7l2.2-1.1l-13.9-3l-2.1,1l6.2,6.9L27.2,19.4z M22.2,14.2l5.1,1.2l-2.7,1.3
		L22.2,14.2z"/>
	<polygon fill="#2D3134" points="37.3,14.3 36,11.5 41.7,12.2 44.1,11 35.6,10.1 33.8,6.1 31.5,7.3 32.8,9.8 27.6,9.2 25.3,10.4 
		33.1,11.2 34.9,15.5 	"/>
	<polygon fill="#2D3134" points="35,5.5 45,10.5 47,9.5 37,4.5 	"/>
</g>
</svg>
