<?xml version="1.0" encoding="utf-8"?>
<!-- Generator: Adobe Illustrator 18.1.0, SVG Export Plug-In . SVG Version: 6.00 Build 0)  -->
<svg version="1.1" id="Layer_1" xmlns="http://www.w3.org/2000/svg" xmlns:xlink="http://www.w3.org/1999/xlink" x="0px" y="0px"
	 viewBox="0 0 64 32" enable-background="new 0 0 64 32" xml:space="preserve">
<path fill-rule="evenodd" clip-rule="evenodd" fill="#2D3134" d="M60.4,16.2L31.6,1.8c-0.9-0.4-2.3-0.4-3.2,0L9.6,11.2
	c-0.9,0.4-0.9,1.2,0,1.6L22,19l-3,1.5L16,19c-1.1-0.5-2.9-0.5-3.9,0l-1,0.5l14,7l1-0.5c1.1-0.5,1.1-1.4,0-2l-3-1.5l3-1.5l12.4,6.2
	c0.9,0.4,2.3,0.4,3.2,0l18.8-9.4C61.3,17.4,61.3,16.6,60.4,16.2z M41,25.5l-28-14L30,3l28,14L41,25.5z"/>
</svg>
