<?xml version="1.0" encoding="utf-8"?>
<!-- Generator: Adobe Illustrator 18.1.0, SVG Export Plug-In . SVG Version: 6.00 Build 0)  -->
<svg version="1.1" id="Layer_1" xmlns="http://www.w3.org/2000/svg" xmlns:xlink="http://www.w3.org/1999/xlink" x="0px" y="0px"
	 viewBox="0 0 64 32" enable-background="new 0 0 64 32" xml:space="preserve">
<g>
	<path fill="#2D3134" d="M62.5,15.3l-4-2c-0.8-0.4-2.2-0.4-3,0L52,15L27,2.5L24,4l-8,8l21,10.5L34,24l-15-7.5c-0.8-0.4-2.2-0.4-3,0
		s-0.8,1.1,0,1.5l16.5,8.3c0.8,0.4,2.2,0.4,3,0L57,15.5l2.5,1.3c0.8,0.4,2.2,0.4,3,0S63.3,15.7,62.5,15.3z M48,17l-5-2.5l2-1l5,2.5
		L48,17z M42,20l-5-2.5l2-1l5,2.5L42,20z M37,11.5l2-1l5,2.5l-2,1L37,11.5z M41,14.5l-2,1L34,13l2-1L41,14.5z M36,11l-5-2.5l2-1
		l5,2.5L36,11z M35,11.5l-2,1L28,10l2-1L35,11.5z M27,9.5l-3.6-1.8l1.3-1.3L29,8.5L27,9.5z M22.8,8.4L26,10l-2,1l-2.6-1.3L22.8,8.4z
		 M27,10.5l5,2.5l-2,1l-5-2.5L27,10.5z M29,14.5l-2,1L22,13l2-1L29,14.5z M30,15l5,2.5l-2,1L28,16L30,15z M31,14.5l2-1l5,2.5l-2,1
		L31,14.5z M40,16l2-1l5,2.5l-2,1L40,16z M27,4.5L32,7l-2,1l-4.6-2.3l0.9-0.9L27,4.5z M20.8,10.4l2.2,1.1l-2,1l-1.6-0.8L20.8,10.4z
		 M34,19l2-1l5,2.5l-2,1L34,19z"/>
	<path fill="#2D3134" d="M18.5,20.3c-1.4-0.7-3.6-0.7-5,0c-1.4,0.7-1.4,1.8,0,2.5s3.6,0.7,5,0C19.9,22.1,19.9,20.9,18.5,20.3z"/>
	<path fill="#2D3134" d="M28.5,25.3c-1.4-0.7-3.6-0.7-5,0c-1.4,0.7-1.4,1.8,0,2.5s3.6,0.7,5,0C29.9,27.1,29.9,25.9,28.5,25.3z"/>
</g>
</svg>
