<?xml version="1.0" encoding="utf-8"?>
<!-- Generator: Adobe Illustrator 18.1.0, SVG Export Plug-In . SVG Version: 6.00 Build 0)  -->
<svg version="1.1" id="Layer_1" xmlns="http://www.w3.org/2000/svg" xmlns:xlink="http://www.w3.org/1999/xlink" x="0px" y="0px"
	 viewBox="0 0 32 32" enable-background="new 0 0 32 32" xml:space="preserve">
<g>
	<path fill="#2D3134" d="M24.9,8.5c-0.5-2.1-2.2-3.8-4.4-4.2c-1.8-0.3-3.5,0.2-4.7,1.3c0.9,1.2,1.5,2.6,1.5,4.2
		c0,1.2-0.3,2.3-0.9,3.2H23c0.6,0,1.2-0.3,1.4-0.9C25,11.1,25.1,9.8,24.9,8.5z"/>
	<path fill="#2D3134" d="M15,4.7c1.2-1,2.7-1.7,4.4-1.7c0.2,0,0.4,0,0.6,0C19.1,1.3,17.2,0,15,0c-2.2,0-4.1,1.3-5,3.1
		c0.2,0,0.4,0,0.6,0C12.3,3.1,13.8,3.7,15,4.7z"/>
	<path fill="#2D3134" d="M22.8,14H7.2c-0.6,0-0.9,0.6-0.7,1.1l7.8,16.4c0.3,0.6,1.1,0.6,1.4,0l7.8-16.4C23.7,14.6,23.3,14,22.8,14z"
		/>
	<path fill="#2D3134" d="M15.1,13c0.7-0.9,1.1-2,1.1-3.2c0-3.5-3.2-6.2-6.8-5.5C7.3,4.7,5.6,6.4,5.1,8.5C4.9,9.8,5,11.1,5.5,12.1
		C5.8,12.7,6.4,13,7,13H15.1z M10.6,6.1c0.5,0,0.9,0.4,0.9,0.9c0,0.5-0.4,0.9-0.9,0.9C9.7,8,9.1,8.6,9.1,9.5c0,0.5-0.4,0.9-0.9,0.9
		S7.2,10,7.2,9.5C7.2,7.6,8.7,6.1,10.6,6.1z"/>
</g>
</svg>
