<?xml version="1.0" encoding="utf-8"?>
<!-- Generator: Adobe Illustrator 18.1.0, SVG Export Plug-In . SVG Version: 6.00 Build 0)  -->
<svg version="1.1" id="Layer_1" xmlns="http://www.w3.org/2000/svg" xmlns:xlink="http://www.w3.org/1999/xlink" x="0px" y="0px"
	 viewBox="0 0 32 32" enable-background="new 0 0 32 32" xml:space="preserve">
<g>
	<path fill="#2D3134" d="M5,31.5C5,31.8,5.2,32,5.5,32h21c0.3,0,0.5-0.2,0.5-0.5V24H5V31.5z"/>
	<path fill="#2D3134" d="M27.5,4h-1h-21h-1C4.2,4,4,4.2,4,4.5v18C4,22.8,4.2,23,4.5,23H5h22h0.5c0.3,0,0.5-0.2,0.5-0.5v-18
		C28,4.2,27.8,4,27.5,4z M21,7.5C21,7.2,21.2,7,21.5,7h1C22.8,7,23,7.2,23,7.5v1C23,8.8,22.8,9,22.5,9h-1C21.2,9,21,8.8,21,8.5V7.5z
		 M21,10.5c0-0.3,0.2-0.5,0.5-0.5h1c0.3,0,0.5,0.2,0.5,0.5v1c0,0.3-0.2,0.5-0.5,0.5h-1c-0.3,0-0.5-0.2-0.5-0.5V10.5z M21,13.5
		c0-0.3,0.2-0.5,0.5-0.5h1c0.3,0,0.5,0.2,0.5,0.5v1c0,0.3-0.2,0.5-0.5,0.5h-1c-0.3,0-0.5-0.2-0.5-0.5V13.5z M18,7.5
		C18,7.2,18.2,7,18.5,7h1C19.8,7,20,7.2,20,7.5v1C20,8.8,19.8,9,19.5,9h-1C18.2,9,18,8.8,18,8.5V7.5z M18,10.5
		c0-0.3,0.2-0.5,0.5-0.5h1c0.3,0,0.5,0.2,0.5,0.5v1c0,0.3-0.2,0.5-0.5,0.5h-1c-0.3,0-0.5-0.2-0.5-0.5V10.5z M16,20H7v-2h9V20z
		 M16,15H7V7h9V15z M18,14.5v-1c0-0.3,0.2-0.5,0.5-0.5h1c0.3,0,0.5,0.2,0.5,0.5v1c0,0.3-0.2,0.5-0.5,0.5h-1C18.2,15,18,14.8,18,14.5
		z M25,20h-6v-2h6V20z M26,14.5c0,0.3-0.2,0.5-0.5,0.5h-1c-0.3,0-0.5-0.2-0.5-0.5v-1c0-0.3,0.2-0.5,0.5-0.5h1c0.3,0,0.5,0.2,0.5,0.5
		V14.5z M26,11.5c0,0.3-0.2,0.5-0.5,0.5h-1c-0.3,0-0.5-0.2-0.5-0.5v-1c0-0.3,0.2-0.5,0.5-0.5h1c0.3,0,0.5,0.2,0.5,0.5V11.5z M26,8.5
		C26,8.8,25.8,9,25.5,9h-1C24.2,9,24,8.8,24,8.5v-1C24,7.2,24.2,7,24.5,7h1C25.8,7,26,7.2,26,7.5V8.5z"/>
	<path fill="#2D3134" d="M23.5,0h-15C6.7,0,5.3,1.3,5,3H27C26.7,1.3,25.3,0,23.5,0z"/>
</g>
</svg>
