<?xml version="1.0" encoding="utf-8"?>
<!-- Generator: Adobe Illustrator 18.1.0, SVG Export Plug-In . SVG Version: 6.00 Build 0)  -->
<svg version="1.1" id="Layer_1" xmlns="http://www.w3.org/2000/svg" xmlns:xlink="http://www.w3.org/1999/xlink" x="0px" y="0px"
	 viewBox="0 0 32 32" enable-background="new 0 0 32 32" xml:space="preserve">
<g>
	<g>
		<path fill="#2D3134" d="M13.3,31c-0.1,0-0.3,0-0.4-0.1c-0.8-0.2-1.2-1.1-0.9-1.8c0.8-2.6,0.1-5.4-1.8-7.3
			c-1.9-1.9-4.7-2.6-7.3-1.8c-0.8,0.2-1.6-0.2-1.8-0.9s0.2-1.6,0.9-1.8c3.6-1.1,7.5-0.2,10.2,2.5s3.6,6.6,2.5,10.2
			C14.5,30.6,13.9,31,13.3,31z"/>
		<path fill="#2D3134" d="M21.4,31c-0.1,0-0.2,0-0.2,0c-0.8-0.1-1.3-0.9-1.2-1.7c0.8-4.8-0.8-9.7-4.2-13.1c-3.4-3.4-8.3-5-13.1-4.2
			c-0.8,0.1-1.5-0.4-1.7-1.2C0.9,10,1.4,9.3,2.2,9.2c5.7-0.9,11.5,1,15.6,5c4.1,4.1,6,9.9,5,15.6C22.7,30.5,22.1,31,21.4,31z"/>
		<path fill="#2D3134" d="M29.4,31c-0.1,0-0.1,0-0.2,0c-0.8-0.1-1.4-0.8-1.3-1.6c0.8-7-1.7-13.8-6.6-18.8C16.4,5.7,9.6,3.3,2.6,4
			C1.8,4.1,1.1,3.5,1,2.7C0.9,1.9,1.5,1.2,2.3,1.2C10.1,0.3,17.8,3,23.4,8.6c5.6,5.6,8.3,13.3,7.4,21.1C30.8,30.5,30.1,31,29.4,31z"
			/>
	</g>
	<circle fill="#2D3134" cx="4.5" cy="27.5" r="2.5"/>
</g>
</svg>
