<?xml version="1.0" encoding="utf-8"?>
<!-- Generator: Adobe Illustrator 18.1.0, SVG Export Plug-In . SVG Version: 6.00 Build 0)  -->
<svg version="1.1" id="Layer_1" xmlns="http://www.w3.org/2000/svg" xmlns:xlink="http://www.w3.org/1999/xlink" x="0px" y="0px"
	 viewBox="0 0 32 56" enable-background="new 0 0 32 56" xml:space="preserve">
<g>
	<path fill-rule="evenodd" clip-rule="evenodd" fill="#2D3134" d="M30.8,32.6L26,35v-3.4c0-0.9-0.7-2-1.6-2.4L20,27L6,20l-4.4-2.2
		C0.7,17.4,0,17.7,0,18.6v12.8c0,0.9,0.7,2,1.6,2.4l22.8,11.4c0.9,0.4,1.6,0.1,1.6-0.8V41c1.6,2.4,3.5,5.3,4.8,7.1
		c0.5,0.7,1.2,0.8,1.2,0.1V33.8C32,33.1,31.2,32.4,30.8,32.6z M17,36.5l-14-7v-8l14,7V36.5z M21.5,33.8c-0.8-0.4-1.5-1.4-1.5-2.2
		c0-0.8,0.7-1.2,1.5-0.8S23,32.2,23,33S22.3,34.2,21.5,33.8z"/>
	<path fill-rule="evenodd" clip-rule="evenodd" fill="#2D3134" d="M12,17c0-3.3-2.7-7.3-6-9s-6-0.3-6,3s2.7,7.3,6,9
		C9.3,21.7,12,20.3,12,17z"/>
	<path fill-rule="evenodd" clip-rule="evenodd" fill="#2D3134" d="M26,24c0-3.3-2.7-7.3-6-9s-6-0.3-6,3s2.7,7.3,6,9
		C23.3,28.7,26,27.3,26,24z"/>
</g>
</svg>
