<?xml version="1.0" encoding="utf-8"?>
<!-- Generator: Adobe Illustrator 18.1.0, SVG Export Plug-In . SVG Version: 6.00 Build 0)  -->
<svg version="1.1" id="Layer_1" xmlns="http://www.w3.org/2000/svg" xmlns:xlink="http://www.w3.org/1999/xlink" x="0px" y="0px"
	 viewBox="0 0 56 80" enable-background="new 0 0 56 80" xml:space="preserve">
<g>
	<path fill="#CC291F" d="M0,43.8c0-13.3,10.7-29.4,24-36c4-2,7.7-2.9,11-2.8c7.7,0.1,20,6.7,20,16c0,5.7-7,11.9-10.3,17.6L32,76
		l-8-4.2L5.3,56.2C2,53.7,0,49.5,0,43.8z"/>
	<path opacity="9.000000e-002" d="M32,76l-8-4.2L5.3,56.2C2,53.7,0,49.5,0,43.8c0-1.7,0.2-3.5,0.5-5.2l37.7,19L32,76z"/>
	<path fill="#CC291F" d="M8,48c0-13.3,10.7-29.4,24-36s24-1.3,24,12c0,5.7-2,11.9-5.3,17.6L32,76L13.3,60.4C10,57.9,8,53.7,8,48z"/>
	<path opacity="0.19" d="M8,48c0-13.3,10.7-29.4,24-36s24-1.3,24,12c0,5.7-2,11.9-5.3,17.6L32,76L13.3,60.4C10,57.9,8,53.7,8,48z"/>
</g>
</svg>
