<?xml version="1.0" encoding="utf-8"?>
<!-- Generator: Adobe Illustrator 18.1.0, SVG Export Plug-In . SVG Version: 6.00 Build 0)  -->
<svg version="1.1" id="Layer_1" xmlns="http://www.w3.org/2000/svg" xmlns:xlink="http://www.w3.org/1999/xlink" x="0px" y="0px"
	 viewBox="0 0 48 56" enable-background="new 0 0 48 56" xml:space="preserve">
<path fill="#CC291F" d="M38.4,1.2c-1.2,3-4.1,5-7.4,5c-3,0-5.6-3.7-7-6.2c-1.4,2.6-4,6.2-7,6.2c-3.3,0-6.1-2.1-7.4-5
	C3.8,6,0,15.8,0,24c0,7,7,15,12.3,20c4.2,4,7.9,6.2,11.1,11.1l0.6,1l0.6-1c3.1-4.9,6.9-7.1,11.1-11.1C41,39,48,31,48,24
	C48,15.8,44.2,6,38.4,1.2z"/>
</svg>
