<?xml version="1.0" encoding="utf-8"?>
<!-- Generator: Adobe Illustrator 18.1.0, SVG Export Plug-In . SVG Version: 6.00 Build 0)  -->
<svg version="1.1" id="Layer_1" xmlns="http://www.w3.org/2000/svg" xmlns:xlink="http://www.w3.org/1999/xlink" x="0px" y="0px"
	 viewBox="0 0 48 48" enable-background="new 0 0 48 48" xml:space="preserve">
<path fill="#CC291F" d="M22.8,40.9l-10.9,5.8c-1.8,1-4-0.6-3.6-2.6l2.1-12.2c0.1-0.8-0.1-1.6-0.7-2.2l-8.9-8.6
	c-1.5-1.5-0.7-4,1.4-4.3l12.2-1.8c0.8-0.1,1.5-0.6,1.9-1.4l5.5-11.1c0.9-1.9,3.6-1.9,4.5,0l5.5,11.1c0.4,0.7,1.1,1.3,1.9,1.4
	l12.2,1.8c2.1,0.3,2.9,2.8,1.4,4.3l-8.9,8.6c-0.6,0.6-0.9,1.4-0.7,2.2L39.8,44c0.4,2.1-1.8,3.6-3.6,2.6l-10.9-5.8
	C24.4,40.5,23.6,40.5,22.8,40.9z"/>
</svg>
