<svg enable-background="new 0 0 256 160" viewBox="0 0 256 160" xmlns="http://www.w3.org/2000/svg"><path d="m5.9 61 52.1-26 8-2 3.9-4 52.1-26c33.2 16.6 62.5 39.9 86.2 68.2 10.4 12.4 18.7 26.5 24.8 41.5 3.2 8 9.2 14.5 16.9 18.3h.1l-52 26z" fill="#656565"/><path d="m70 29 64 44-76-38z" fill="#999"/><path d="m6 61 192 96-6 3-192-96z" fill="#999"/><path d="m128 0c33.2 16.6 62.5 39.9 86.2 68.2 10.4 12.4 18.7 26.5 24.8 41.5 3.2 8 9.2 14.5 16.9 18.3h.1l-6 3h-.1c-7.7-3.8-13.7-10.3-16.9-18.3-6.1-15-14.4-29-24.8-41.5-23.7-28.3-53-51.6-86.2-68.2z" fill="#999"/><path d="m5.9 61 52.1-26 8-2 3.9-4 52.1-26c33.2 16.6 62.5 39.9 86.2 68.2 10.4 12.4 18.7 26.5 24.8 41.5 3.2 8 9.2 14.5 16.9 18.3h.1l-52 26z" fill="#656565"/><path d="m128 0c33.2 16.6 62.5 39.9 86.2 68.2 10.4 12.4 18.7 26.5 24.8 41.5 3.2 8 9.2 14.5 16.9 18.3h.1l-6 3h-.1c-7.7-3.8-13.7-10.3-16.9-18.3-6.1-15-14.4-29-24.8-41.5-23.7-28.3-53-51.6-86.2-68.2z" fill="#999"/><path d="m103.5 20.3-8-4 1.1-.6 8 4z" fill="#e5e5e5"/><path d="m70 29 64 44-76-38z" fill="#999"/><path d="m70 29 64 44-63-44.5z" opacity=".15"/><path d="m58 35 76 38-77-37.5z" opacity=".15"/><path d="m39.5 52.3-8-4 1.1-.6 8 4z" fill="#e5e5e5"/><path d="m80.6 71.7 8 4-1.2.6-8-4z" fill="#e5e5e5"/><path d="m48.6 55.7 8 4-1.1.6-8-4z" fill="#e5e5e5"/><path d="m64.6 63.7 8 4-1.1.6-8-4z" fill="#e5e5e5"/><path d="m6 61 192 96-6 3-192-96z" fill="#999"/><path d="m7.1 60.5 191.9 96-1 .5-192-96z" opacity=".15"/><g fill="#e5e5e5"><path d="m167.5 116.3-8-4 1.1-.6 8 4z"/><path d="m208.6 135.7 8 4-1.2.6-8-4z"/><path d="m176.6 119.7 8 4-1.1.6-8-4z"/><path d="m191.5 128.3 1.1-.6 8 4-1.1.6"/><path d="m144.5 103.7 8 4-1.1.6-8-4z"/><path d="m103.4 84.3-8-4 1.2-.6 8 4z"/><path d="m135.4 100.3-8-4 1.1-.6 8 4z"/><path d="m119.4 92.3-8-4 1.1-.6 8 4z"/></g><path d="m122 3c33.2 16.6 62.5 39.9 86.2 68.2 10.4 12.4 18.7 26.5 24.8 41.5 3.2 8 9.2 14.5 16.9 18.3h.1l-1 .5c-7.7-3.8-13.7-10.3-16.9-18.3l-.1-.1c-6.1-15-14.4-28.9-24.7-41.3-23.7-28.4-53-51.6-86.3-68.2z" opacity=".15"/><path d="m191.1 96.6 1.4-.5c1.8 2.4 3.6 4.9 5.3 7.3l-1.4.5c-1.7-2.4-3.5-4.9-5.3-7.3zm-11.2-14 1.3-.7c1.9 2.3 3.9 4.6 5.7 7l-1.3.6c-1.8-2.3-3.7-4.7-5.7-6.9zm-12.1-13.3 1.2-.8c2.1 2.1 4.2 4.4 6.2 6.6l-1.3.8c-1.9-2.3-4-4.5-6.1-6.6zm-12.9-12.4 1.2-.8c2.2 2 4.4 4.1 6.6 6.1l-1.3.8c-2.1-2.1-4.3-4.1-6.5-6.1zm-13.8-11.5 1.4-.7c2.4 1.8 4.7 3.8 7 5.7l-1.4.7c-2.3-2-4.6-3.9-7-5.7zm-14.5-10.6 1.5-.7c2.5 1.7 5 3.4 7.4 5.2l-1.5.7c-2.4-1.8-4.9-3.5-7.4-5.2zm-15.1-9.6 1.4-.9c2.6 1.5 5.2 3.1 7.7 4.7l-1.4.8c-2.6-1.5-5.2-3.1-7.7-4.6z" fill="#e5e5e5"/></svg>