<svg enable-background="new 0 0 128 64" viewBox="0 0 128 64" xmlns="http://www.w3.org/2000/svg"><path d="m96 0-96 48 32 16 96-48z" opacity=".2"/><path d="m86 27 6 3v-6l-6-3z" fill="#999"/><path d="m86 27 6 3v-6l-6-3z" opacity=".06"/><path d="m94 29-2 1v-6l2-1z" fill="#999"/><path d="m94 29-2 1v-6l2-1z" opacity=".39"/><path d="m54 45 4 2v-5l-4-2z" fill="#999"/><path d="m54 45 4 2v-5l-4-2z" opacity=".06"/><path d="m60 46-2 1v-5l2-1z" fill="#999"/><path d="m60 46-2 1v-5l2-1z" opacity=".39"/><path d="m101.9 3-5.9-3-.2.1c-6.4 3.2-13.5 5.1-20.7 5.4h-.2c-7.2.3-14.3 2.2-20.7 5.4l-15.3 7.6c-4.6 2.3-8.8 5.3-12.5 8.8l-10.8 10.4c-3.7 3.5-7.9 6.5-12.5 8.8l-3.1 1.5 5.9 3 3.1-1.6c4.6-2.3 8.8-5.3 12.5-8.8l10.8-10.3c3.7-3.5 7.9-6.5 12.5-8.8l15.3-7.6c6.5-3.2 13.6-5.1 20.8-5.4 7.3-.3 14.5-2.2 21-5.5z" fill="#999"/><path d="m122.1 13-.2.1c-6.4 3.2-13.5 5.1-20.7 5.4h-.2c-7.2.3-14.3 2.2-20.7 5.4l-15.3 7.7c-4.6 2.3-8.8 5.2-12.5 8.7l-11 10.5c-3.6 3.5-7.8 6.4-12.2 8.6l-3.2 1.6 5.9 3 3.1-1.5c4.6-2.3 8.8-5.3 12.5-8.8l10.8-10.3c3.7-3.5 7.9-6.5 12.5-8.8l15.3-7.6c6.4-3.2 13.5-5.1 20.7-5.4h.2c7.2-.3 14.3-2.2 20.7-5.4l.2-.2z" fill="#999"/><path d="m101.9 3c-6.6 3.3-13.7 5.2-21 5.5-7.2.3-14.3 2.2-20.8 5.4l-15.3 7.6c-4.6 2.3-8.8 5.3-12.5 8.8l-10.8 10.3c-3.7 3.5-7.9 6.5-12.5 8.8l-3.1 1.6 20.2 10 3.2-1.6c4.5-2.3 8.6-5.2 12.2-8.6l11-10.5c3.7-3.5 7.9-6.5 12.5-8.7l15.4-7.7c6.4-3.2 13.4-5 20.6-5.4h.3c7.1-.3 14-2.1 20.4-5.3l.4-.2z" fill="#656565"/><path d="m101.9 3-5.9-3-.2.1c-6.4 3.2-13.5 5.1-20.7 5.4h-.2c-7.2.3-14.3 2.2-20.7 5.4l-15.3 7.6c-4.6 2.3-8.8 5.3-12.5 8.8l-10.8 10.4c-3.7 3.5-7.9 6.5-12.5 8.8l-3.1 1.5 5.9 3 3.1-1.6c4.6-2.3 8.8-5.3 12.5-8.8l10.8-10.3c3.7-3.5 7.9-6.5 12.5-8.8l15.3-7.6c6.5-3.2 13.6-5.1 20.8-5.4 7.3-.3 14.5-2.2 21-5.5z" fill="#999"/><path d="m122.1 13-.2.1c-6.4 3.2-13.5 5.1-20.7 5.4h-.2c-7.2.3-14.3 2.2-20.7 5.4l-15.3 7.7c-4.6 2.3-8.8 5.2-12.5 8.7l-11 10.5c-3.6 3.5-7.8 6.4-12.2 8.6l-3.2 1.6 5.9 3 3.1-1.5c4.6-2.3 8.8-5.3 12.5-8.8l10.8-10.3c3.7-3.5 7.9-6.5 12.5-8.8l15.3-7.6c6.4-3.2 13.5-5.1 20.7-5.4h.2c7.2-.3 14.3-2.2 20.7-5.4l.2-.2z" fill="#999"/><path d="m101.9 3c-6.6 3.3-13.7 5.2-21 5.5-7.2.3-14.3 2.2-20.8 5.4l-15.3 7.6c-4.6 2.3-8.8 5.3-12.5 8.8l-10.8 10.3c-3.7 3.5-7.9 6.5-12.5 8.8l-3.1 1.6 20.2 10 3.2-1.6c4.5-2.3 8.6-5.2 12.2-8.6l11-10.5c3.7-3.5 7.9-6.5 12.5-8.7l15.4-7.7c6.4-3.2 13.4-5 20.6-5.4h.3c7.1-.3 14-2.1 20.4-5.3l.4-.2z" fill="#656565"/><path d="m101.3 17.5h-.3c-7.2.3-14.2 2.2-20.6 5.4l-15.4 7.7c-4.6 2.3-8.8 5.2-12.5 8.7l-11 10.5c-3.6 3.5-7.8 6.4-12.2 8.6l-4.2 2.1 1 .5 3.2-1.6c4.5-2.3 8.6-5.2 12.2-8.6l11-10.5c3.7-3.5 7.9-6.5 12.5-8.7l15.4-7.7c6.4-3.2 13.4-5 20.6-5.4h.3c7.1-.3 14-2.1 20.4-5.3l.4-.2-1.1-.5c-6.2 3-12.9 4.7-19.7 5z" opacity=".15"/><path d="m9 50.5c4.6-2.3 8.8-5.3 12.5-8.8l10.8-10.3c3.7-3.5 7.9-6.5 12.5-8.8l15.3-7.6c6.5-3.2 13.6-5.1 20.8-5.4 7.3-.3 14.5-2.2 21-5.5l1.1-.5-1-.5c-6.5 3.3-13.7 5.2-21 5.5-7.2.3-14.3 2.2-20.8 5.4l-15.3 7.6c-4.6 2.3-8.8 5.3-12.5 8.8l-10.9 10.2c-3.7 3.5-7.9 6.5-12.5 8.8l-3.1 1.6 1 .5z" opacity=".15"/></svg>