<svg enable-background="new 0 0 256 160" viewBox="0 0 256 160" xmlns="http://www.w3.org/2000/svg"><path d="m250.1 61-52.1-26-8-2-3.9-4-52.1-26c-33.2 16.6-62.5 39.9-86.2 68.2-10.4 12.4-18.7 26.4-24.8 41.5-3.2 8-9.2 14.5-16.9 18.3h-.1l52 26z" fill="#656565"/><path d="m186 29-64 44 76-38z" fill="#999"/><path d="m250 61-192 96 6 3 192-96z" fill="#999"/><path d="m128 0c-33.2 16.6-62.5 39.9-86.2 68.2-10.4 12.4-18.7 26.4-24.8 41.5-3.2 8-9.2 14.5-16.9 18.3h-.1l6 3h.1c7.7-3.8 13.7-10.3 16.9-18.3 6.1-15 14.4-29 24.8-41.5 23.7-28.3 53-51.6 86.2-68.2z" fill="#999"/><path d="m250.1 61-52.1-26-8-2-3.9-4-52.1-26c-33.2 16.6-62.5 39.9-86.2 68.2-10.4 12.4-18.7 26.4-24.8 41.5-3.2 8-9.2 14.5-16.9 18.3h-.1l52 26z" fill="#656565"/><path d="m128 0c-33.2 16.6-62.5 39.9-86.2 68.2-10.4 12.4-18.7 26.4-24.8 41.5-3.2 8-9.2 14.5-16.9 18.3h-.1l6 3h.1c7.7-3.8 13.7-10.3 16.9-18.3 6.1-15 14.4-29 24.8-41.5 23.7-28.3 53-51.6 86.2-68.2z" fill="#999"/><path d="m152.5 20.3 8-4-1.1-.6-8 4z" fill="#e5e5e5"/><path d="m186 29-64 44 76-38z" fill="#999"/><path d="m186 29-64 44 63-44.5z" opacity=".15"/><path d="m198 35-76 38 77-37.5z" opacity=".15"/><path d="m216.5 52.3 8-4-1.1-.6-8 4z" fill="#e5e5e5"/><path d="m175.4 71.7-8 4 1.2.6 8-4z" fill="#e5e5e5"/><path d="m207.4 55.7-8 4 1.1.6 8-4z" fill="#e5e5e5"/><path d="m191.4 63.7-8 4 1.1.6 8-4z" fill="#e5e5e5"/><path d="m250 61-192 96 6 3 192-96z" fill="#999"/><path d="m248.9 60.5-191.9 96 1 .5 192-96z" opacity=".15"/><g fill="#e5e5e5"><path d="m88.5 116.3 8-4-1.1-.6-8 4z"/><path d="m47.4 135.7-8 4 1.2.6 8-4z"/><path d="m79.4 119.7-8 4 1.1.6 8-4z"/><path d="m64.5 128.3-1.1-.6-8 4 1.1.6"/><path d="m111.5 103.7-8 4 1.1.6 8-4z"/><path d="m152.6 84.3 8-4-1.2-.6-8 4z"/><path d="m120.6 100.3 8-4-1.1-.6-8 4z"/><path d="m136.6 92.3 8-4-1.1-.6-8 4z"/></g><path d="m134 3c-33.2 16.6-62.5 39.9-86.2 68.2-10.4 12.4-18.7 26.4-24.8 41.5-3.2 8-9.2 14.5-16.9 18.3h-.1l1 .5c7.7-3.8 13.7-10.3 16.9-18.3l.1-.1c6.1-15 14.4-28.9 24.7-41.3 23.7-28.4 53-51.6 86.3-68.2z" opacity=".15"/><path d="m59.6 103.9-1.4-.5c1.7-2.5 3.5-4.9 5.3-7.3l1.4.5c-1.8 2.4-3.6 4.9-5.3 7.3zm10.7-14.4-1.3-.6c1.9-2.3 3.8-4.7 5.7-7l1.3.7c-1.9 2.2-3.8 4.6-5.7 6.9zm11.7-13.7-1.3-.8c2-2.2 4.1-4.4 6.2-6.6l1.2.8c-2 2.2-4.1 4.4-6.1 6.6zm12.5-12.8-1.3-.8c2.2-2.1 4.4-4.1 6.6-6.1l1.2.8c-2.1 2-4.3 4-6.5 6.1zm13.4-12-1.4-.7c2.3-1.9 4.7-3.8 7-5.7l1.4.7c-2.4 1.9-4.7 3.8-7 5.7zm14.1-11-1.5-.7c2.4-1.8 4.9-3.5 7.4-5.2l1.5.7c-2.5 1.7-5 3.4-7.4 5.2zm14.9-10.1-1.4-.8c2.5-1.6 5.1-3.2 7.7-4.7l1.4.9c-2.6 1.4-5.2 3-7.7 4.6z" fill="#e5e5e5"/></svg>