<svg enable-background="new 0 0 160 80" viewBox="0 0 160 80" xmlns="http://www.w3.org/2000/svg"><path d="m5.9 67-5.9-3 32-16-32-16 6-3 37.9 19z" fill="#999"/><path d="m96 80-32-16-32 16-5.9-3 38-19 37.9 19z" fill="#999"/><path d="m102 77-37.9-19-38 19-20.2-10 38-19-37.9-19 52-26 96.1 48z" fill="#656565"/><path d="m5.9 67-5.9-3 32-16-32-16 6-3 37.9 19z" fill="#999"/><path d="m96 80-32-16-32 16-5.9-3 38-19 37.9 19z" fill="#999"/><path d="m102 77-37.9-19-38 19-20.2-10 38-19-37.9-19 52-26 96.1 48z" fill="#656565"/><path d="m154 51-96-48 6-3 96 48z" fill="#999"/><path d="m154 51-96-48 6-3 96 48z" fill="#999"/><path d="m152.9 51.5-95.9-48 1-.5 96 48z" opacity=".15"/><g fill="#e5e5e5"><path d="m80.5 39.7 8 4-1.1.6-8-4z"/><path d="m39.4 20.3-8-4 1.2-.6 8 4z"/><path d="m71.4 36.3-8-4 1.1-.6 8 4z"/><path d="m55.4 28.3-8-4 1.1-.6 8 4z"/><path d="m112.5 55.7 8 4-1.1.6-8-4z"/><path d="m103.4 52.3-8-4 1.1-.6 8 4z"/></g><path d="m102 77-37.9-19-38 19-1.2-.5 39.1-19.5 39 19.5z" opacity=".15"/><path d="m7.1 67.5-1.2-.5 38-19-37.9-19 1.1-.5 38.9 19.5z" opacity=".15"/></svg>