<svg enable-background="new 0 0 256 128" viewBox="0 0 256 128" xmlns="http://www.w3.org/2000/svg"><g fill="#999"><path d="m192 0-64 32-64-32-6 3 67.9 33.9c1.3.7 2.8.7 4.2 0l67.9-33.9z"/><path d="m73.9 63-67.9-34-6 3 64 32-64 32 6 3 67.9-34c.8-.4.8-1.6 0-2z"/><path d="m256 32-6-3-67.9 34c-.8.4-.8 1.6 0 2l67.9 34 6-3-64-32z"/><path d="m130.1 91.1c-1.3-.7-2.8-.7-4.2 0l-67.9 33.9 6 3 64-32 64 32 6-3z"/><path d="m192 0-64 32-64-32-6 3 67.9 33.9c1.3.7 2.8.7 4.2 0l67.9-33.9z"/><path d="m73.9 63-67.9-34-6 3 64 32-64 32 6 3 67.9-34c.8-.4.8-1.6 0-2z"/><path d="m256 32-6-3-67.9 34c-.8.4-.8 1.6 0 2l67.9 34 6-3-64-32z"/><path d="m130.1 91.1c-1.3-.7-2.8-.7-4.2 0l-67.9 33.9 6 3 64-32 64 32 6-3z"/></g><path d="m182.1 65c-.8-.4-.8-1.6 0-2l67.9-34-52-26-67.9 33.9c-1.3.7-2.8.7-4.2 0l-67.9-33.9-52.1 26 67.9 34c.8.4.8 1.6 0 2l-67.8 34 52 26 67.9-33.9c1.3-.7 2.8-.7 4.2 0l67.9 33.9 52-26z" fill="#656565"/><path d="m182.1 65c-.8-.4-.8-1.6 0-2l67.9-34-52-26-67.9 33.9c-1.3.7-2.8.7-4.2 0l-67.9-33.9-52.1 26 67.9 34c.8.4.8 1.6 0 2l-67.8 34 52 26 67.9-33.9c1.3-.7 2.8-.7 4.2 0l67.9 33.9 52-26z" fill="#656565"/><path d="m216.5 20.3 8-4-1.1-.6-8 4z" fill="#e5e5e5"/><path d="m175.4 39.7-8 4 1.2.6 8-4z" fill="#e5e5e5"/><path d="m207.4 23.7-8 4 1.1.6 8-4z" fill="#e5e5e5"/><path d="m191.4 31.7-8 4 1.1.6 8-4z" fill="#e5e5e5"/><path d="m88.5 84.3 8-4-1.1-.6-8 4z" fill="#e5e5e5"/><path d="m47.4 103.7-8 4 1.2.6 8-4z" fill="#e5e5e5"/><path d="m79.4 87.7-8 4 1.1.6 8-4z" fill="#e5e5e5"/><path d="m63.4 95.7-8 4 1.1.6 8-4z" fill="#e5e5e5"/><path d="m76.1 63-69-34.5-1.1.5 67.9 34c.8.4.8 1.6 0 2l-67.9 34 1.1.5 69-34.5c.8-.4.8-1.6 0-2z" opacity=".15"/><path d="m199 3.5-1-.5-67.9 33.9c-1.3.7-2.8.7-4.2 0l-67.9-33.9-1 .5 68.9 34.5c1.3.7 2.8.7 4.2 0z" opacity=".15"/><path d="m39.5 20.3-8-4 1.1-.6 8 4z" fill="#e5e5e5"/><path d="m80.6 39.7 8 4-1.2.6-8-4z" fill="#e5e5e5"/><path d="m48.6 23.7 8 4-1.1.6-8-4z" fill="#e5e5e5"/><path d="m64.6 31.7 8 4-1.1.6-8-4z" fill="#e5e5e5"/><path d="m130.1 90c-1.3-.7-2.8-.7-4.2 0l-68.9 34.5 1 .5 67.9-33.9c1.3-.7 2.8-.7 4.2 0l67.9 33.9 1-.5z" opacity=".15"/><path d="m182.1 65c-.8-.4-.8-1.6 0-2l67.9-34-1.1-.5-69 34.5c-.8.4-.8 1.6 0 2l69.1 34.5 1-.5z" opacity=".15"/><path d="m167.5 84.3-8-4 1.1-.6 8 4z" fill="#e5e5e5"/><path d="m208.6 103.7 8 4-1.2.6-8-4z" fill="#e5e5e5"/><path d="m176.6 87.7 8 4-1.1.6-8-4z" fill="#e5e5e5"/><path d="m192.6 95.7 8 4-1.1.6-8-4z" fill="#e5e5e5"/></svg>