<svg enable-background="new 0 0 64 32" viewBox="0 0 64 32" xmlns="http://www.w3.org/2000/svg"><path d="m26.1 29 4.2-2.1c1.1-.6 2.4-.6 3.6 0l4.2 2.1 20-10-3.9-2c-.8-.4-.8-1.6 0-2l3.9-2-20.2-10-32 16z" fill="#656565"/><g fill="#999"><path d="m30.2 26.9-4.1 2.1 5.9 3 5.9-3-4.2-2.1c-1-.5-2.4-.5-3.5 0z"/><path d="m5.9 19 32-16-5.9-3-32 16z"/><path d="m54.1 17 3.9 2 5.9-3-5.9-3-3.9 2c-.8.4-.8 1.6 0 2z"/></g><path d="m26.1 29 4.2-2.1c1.1-.6 2.4-.6 3.6 0l4.2 2.1 20-10-3.9-2c-.8-.4-.8-1.6 0-2l3.9-2-20.2-10-32 16z" fill="#656565"/><path d="m30.2 26.9-4.1 2.1 5.9 3 5.9-3-4.2-2.1c-1-.5-2.4-.5-3.5 0z" fill="#999"/><path d="m5.9 19 32-16-5.9-3-32 16z" fill="#999"/><path d="m54.1 17 3.9 2 5.9-3-5.9-3-3.9 2c-.8.4-.8 1.6 0 2z" fill="#999"/><path d="m56.9 19.5 1.1-.6-3.9-2c-.8-.4-.8-1.6 0-2l3.9-2-1.1-.6-5 2.7c-.8.4-.8 1.6 0 2z" opacity=".15"/><path d="m26.1 29 4.2-2.1c1.1-.6 2.4-.6 3.6 0l4.2 2.1 1.1-.6-5.3-2.6c-1.1-.6-2.4-.6-3.6 0l-5.3 2.6z" opacity=".15"/><path d="m7.1 19.5 32-16-1.2-.5-32 16z" opacity=".15"/></svg>