<svg enable-background="new 0 0 144 192" viewBox="0 0 144 192" xmlns="http://www.w3.org/2000/svg"><path d="m86 189c-102.7-51.4-102.7-134.6 0-186l52 26c-74 37-74 97 0 134z" fill="#656565"/><path d="m80 0c-106.2 53.1-106.2 138.9 0 192l6-3c-102.7-51.4-102.7-134.6 0-186z" fill="#999"/><path d="m138 163c-74-37-74-97 0-134l6 3c-70.7 35.3-70.7 92.6 0 128z" fill="#999"/><path d="m86 189c-102.7-51.4-102.7-134.6 0-186l52 26c-74 37-74 97 0 134z" fill="#656565"/><path d="m80 0c-106.2 53.1-106.2 138.9 0 192l6-3c-102.7-51.4-102.7-134.6 0-186z" fill="#999"/><path d="m86 189c-102.7-51.4-102.7-134.6 0-186l1 .5c-102.2 51.1-102.2 133.9 0 185" opacity=".15"/><path d="m136.9 28.5c-74.6 37.3-74.6 97.8 0 135.1l1.1-.5c-74-37-74-97 0-134z" opacity=".15"/><path d="m95.4 167.4 1.3-.9c2.5 1.5 5.1 3.1 7.8 4.6l-1.2 1c-2.7-1.6-5.4-3.1-7.9-4.7zm-14.8-10.3 1.2-.9c2.3 1.8 4.8 3.6 7.3 5.4l-1.1.9c-2.5-1.8-5-3.6-7.4-5.4zm-13.5-12.3 1.3-.7c2 2.1 4.2 4.2 6.5 6.3l-1.2.7c-2.4-2.1-4.6-4.2-6.6-6.3zm-11.2-14.2 1.3-.6c1.6 2.5 3.3 4.9 5.2 7.3l-1.2.8c-1.9-2.5-3.7-5-5.3-7.5zm-7.7-16.5 1.3-.4c.9 2.8 2 5.6 3.3 8.4l-1.3.6c-1.3-2.8-2.4-5.7-3.3-8.6zm-2.9-18.1h1.4c0 3 .2 6 .7 8.9l-1.4.2c-.5-2.9-.7-6-.7-9.1zm.7-9.1c.5-3 1.2-6 2.1-8.9l1.3.4c-.9 2.9-1.6 5.8-2.1 8.7zm5.6-17.5c1.3-2.7 2.8-5.4 4.5-8l1.2.8c-1.6 2.6-3.1 5.2-4.4 7.9zm9.5-15.3c1.8-2.3 3.9-4.7 6-6.9l1.2.7c-2.1 2.2-4.1 4.5-5.9 6.8zm12.2-13.1c2.2-2 4.6-4 7-5.9l1.4.7c-2.4 1.9-4.8 3.9-6.9 5.8zm14.4-11.3c2.4-1.7 5-3.4 7.6-5l1.3.8c-2.6 1.6-5.2 3.3-7.6 5zm15.6-9.7c2.6-1.4 5.3-2.9 8.1-4.2l1.6.8c-2.7 1.4-5.4 2.8-8 4.2z" fill="#e5e5e5"/><path d="m138 163c-74-37-74-97 0-134l6 3c-70.7 35.3-70.7 92.6 0 128z" fill="#999"/></svg>