<svg enable-background="new 0 0 128 64" viewBox="0 0 128 64" xmlns="http://www.w3.org/2000/svg"><path d="m60.9 7.5-55 27.5 52.2 26 2.8-1.4c2-1 4.3-1 6.3 0l2.8 1.4 52.1-26-55-27.5c-1.9-1-4.3-1-6.2 0z" fill="#656565"/><path d="m60.9 59.6-2.8 1.4 5.9 3 5.9-3-2.8-1.4c-1.9-1-4.3-1-6.2 0z" fill="#999"/><path d="m64 0-64 32 5.9 3 55-27.5c2-1 4.3-1 6.3 0l54.9 27.5 5.9-3z" fill="#999"/><path d="m60.9 7.5-55 27.5 52.2 26 2.8-1.4c2-1 4.3-1 6.3 0l2.8 1.4 52.1-26-55-27.5c-1.9-1-4.3-1-6.2 0z" fill="#656565"/><path d="m60.9 59.6-2.8 1.4 5.9 3 5.9-3-2.8-1.4c-1.9-1-4.3-1-6.2 0z" fill="#999"/><path d="m64 0-64 32 5.9 3 55-27.5c2-1 4.3-1 6.3 0l54.9 27.5 5.9-3z" fill="#999"/><path d="m67.1 7.5c-2-1-4.3-1-6.3 0l-54.9 27.5 1.1.6 53.9-27c2-1 4.3-1 6.3 0l53.8 26.9 1.1-.6z" opacity=".15"/><path d="m64 31.4-32.6 16.3 1.2.6 31.4-15.7 31.4 15.7 1.2-.6-32.4-16.1z" fill="#e5e5e5"/></svg>