<svg enable-background="new 0 0 128 64" viewBox="0 0 128 64" xmlns="http://www.w3.org/2000/svg"><g fill="#999"><path d="m58 3 6-3 64 32-6 3z"/><path d="m58 3 6-3 64 32-6 3z"/><path d="m0 32 6-3 3.9 2c.8.4.8 1.6 0 2l-3.9 2z"/><path d="m61.9 59.1c1.3-.7 2.8-.7 4.2 0l3.9 1.9-6 3-6-3z"/><path d="m0 32 6-3 3.9 2c.8.4.8 1.6 0 2l-3.9 2z"/><path d="m61.9 59.1c1.3-.7 2.8-.7 4.2 0l3.9 1.9-6 3-6-3z"/></g><path d="m9.9 33c.8-.4.8-1.6 0-2l-3.9-2 52-26 64 32-52 26-3.9-1.9c-1.3-.7-2.8-.7-4.2 0l-3.9 1.9-52-26z" fill="#656565"/><path d="m9.9 33c.8-.4.8-1.6 0-2l-3.9-2 52-26 64 32-52 26-3.9-1.9c-1.3-.7-2.8-.7-4.2 0l-3.9 1.9-52-26z" fill="#656565"/><path d="m71.1 60.5-1.2.5-3.9-1.9c-1.3-.7-2.8-.7-4.2 0l-3.7 1.9-1.1-.6 5-2.5c1.3-.7 2.8-.7 4.2 0z" opacity=".15"/><path d="m9.9 33c.8-.4.8-1.6 0-2l-3.9-2 1.1-.5 5.1 2.5c.8.4.8 1.6 0 2l-5.1 2.5-1.1-.5z" opacity=".15"/><path d="m57 3.5 1-.5 64 32-1.1.5z" opacity=".15"/></svg>