<svg enable-background="new 0 0 104 96" viewBox="0 0 104 96" xmlns="http://www.w3.org/2000/svg"><path d="m91 48c0 6.2 4.9 11.9 13 16l-6 3c-9.8-4.9-15-11.5-15-19s5.2-14.1 15-19l6 3c-8.1 4.1-13 9.8-13 16z" fill="#999"/><path d="m0 48c0-18.8 15.4-35.7 40-48l6 3c-23 11.5-38 27.5-38 45s15 33.5 38 45l-6 3c-24.6-12.3-40-29.2-40-48z" fill="#999"/><path d="m46 3 52 26c-9.8 4.9-15 11.5-15 19s5.2 14.1 15 19l-52 26c-23-11.5-38-27.5-38-45s15-33.5 38-45z" fill="#656565"/><path d="m91 48c0 6.2 4.9 11.9 13 16l-6 3c-9.8-4.9-15-11.5-15-19s5.2-14.1 15-19l6 3c-8.1 4.1-13 9.8-13 16z" fill="#999"/><path d="m0 48c0-18.8 15.4-35.7 40-48l6 3c-23 11.5-38 27.5-38 45s15 33.5 38 45l-6 3c-24.6-12.3-40-29.2-40-48z" fill="#999"/><path d="m46 3 52 26c-9.8 4.9-15 11.5-15 19s5.2 14.1 15 19l-52 26c-23-11.5-38-27.5-38-45s15-33.5 38-45z" fill="#656565"/><path d="m9.5 48c0 17.3 14.8 33.1 37.5 44.5l-1 .5c-23-11.5-38-27.5-38-45s15-33.5 38-45l1.1.5c-22.7 11.4-37.6 27.2-37.6 44.5z" opacity=".15"/><path d="m83 48c0 7.5 5.2 14.1 15 19l-1.1.5c-10-5-15.4-11.9-15.4-19.5s5.4-14.5 15.5-19.5l1 .5c-9.8 4.9-15 11.5-15 19z" opacity=".15"/><path d="m46 48c0 12.4 10.2 23.6 26.6 31.7l-1.1.5c-16.4-8.2-26.5-19.6-26.5-32.2s10.1-24 26.5-32.2l1.1.5c-16.4 8.1-26.6 19.3-26.6 31.7z" fill="#e5e5e5"/></svg>