<svg enable-background="new 0 0 128 64" viewBox="0 0 128 64" xmlns="http://www.w3.org/2000/svg"><path d="m32 0 96 48-5.9 3-96-48z" fill="#999"/><path d="m5.9 13 96 48-5.9 3-96-48z" fill="#999"/><path d="m122.1 51-20.2 10-96-48 20.2-10z" fill="#656565"/><path d="m32 0 96 48-5.9 3-96-48z" fill="#999"/><path d="m5.9 13 96 48-5.9 3-96-48z" fill="#999"/><path d="m122.1 51-20.2 10-96-48 20.2-10z" fill="#656565"/><path d="m26.1 3 96 48-1.2.5-96-48z" opacity=".15"/><path d="m7.1 12.5 96 48-1.2.5-96-48z" opacity=".15"/></svg>