<svg enable-background="new 0 0 352 176" viewBox="0 0 352 176" xmlns="http://www.w3.org/2000/svg"><path d="m232.3 144.9c-.5.1-1 .2-1.4.3-.8.2-1.5.4-2.3.5-16 3.6-33.8 5.7-52.5 5.7s-36.5-2-52.5-5.7c-.8-.2-1.5-.4-2.3-.5-.5-.1-1-.2-1.4-.3-1.2-.3-2.5-.6-3.7-.9l-58 29 6 3 53.3-26.7c17.8 4.3 37.7 6.7 58.7 6.7s40.9-2.4 58.7-6.7l53.1 26.7 6-3-58-29c-1.2.3-2.5.6-3.7.9z" fill="#999"/><path d="m312 88c0-10.5-4.8-20.5-13.3-29.3l53.3-26.7-6-3-58 29c.7.6 1.3 1.2 1.9 1.8.2.2.4.5.7.7.4.4.8.8 1.1 1.2 7.3 8 11.4 16.9 11.4 26.3s-4.1 18.3-11.4 26.3c-.4.4-.7.8-1.1 1.2-.2.2-.4.5-.7.7-.6.6-1.2 1.2-1.9 1.8l58 29 6-3-53.3-26.7c8.5-8.8 13.3-18.8 13.3-29.3z" fill="#999"/><path d="m234.7 26.7c-17.8-4.3-37.7-6.7-58.7-6.7s-40.9 2.4-58.7 6.7l-52.9-26.7-6 3 51 25.7 6.6 3.3c1.2-.3 2.4-.6 3.7-.9.5-.1.9-.2 1.4-.3l2.4-.6c16-3.6 33.8-5.7 52.5-5.7s36.5 2 52.5 5.7c.8.2 1.6.4 2.4.6.5.1.9.2 1.4.3 1.2.3 2.5.6 3.7.9l6.6-3.3 51.4-25.7-6-3z" fill="#999"/><path d="m60.4 114.3c-7.3-8-11.4-16.9-11.4-26.3s4.1-18.3 11.4-26.3c.4-.4.7-.8 1.1-1.2.2-.2.4-.5.7-.7.6-.6 1.2-1.2 1.9-1.8l-57.7-29-6 3 52.9 26.7c-8.5 8.8-13.3 18.8-13.3 29.3s4.8 20.5 13.3 29.3l-53.3 26.7 6 3 58-29c-.7-.6-1.3-1.2-1.9-1.8-.2-.2-.4-.5-.7-.7-.3-.4-.7-.8-1-1.2z" fill="#999"/><path d="m176 61c-29.8 0-54 12.1-54 27s24.2 27 54 27 54-12.1 54-27-24.2-27-54-27zm0 49.5c-24.9 0-45-10.1-45-22.5s20.1-22.5 45-22.5 45 10.1 45 22.5-20.1 22.5-45 22.5z" fill="#999"/><path d="m176 61c-29.8 0-54 12.1-54 27s24.2 27 54 27 54-12.1 54-27-24.2-27-54-27zm0 49.5c-24.9 0-45-10.1-45-22.5s20.1-22.5 45-22.5 45 10.1 45 22.5-20.1 22.5-45 22.5z" fill="#999"/><path d="m232.3 144.9c-.5.1-1 .2-1.4.3-.8.2-1.5.4-2.3.5-16 3.6-33.8 5.7-52.5 5.7s-36.5-2-52.5-5.7c-.8-.2-1.5-.4-2.3-.5-.5-.1-1-.2-1.4-.3-1.2-.3-2.5-.6-3.7-.9l-58 29 6 3 53.3-26.7c17.8 4.3 37.7 6.7 58.7 6.7s40.9-2.4 58.7-6.7l53.1 26.7 6-3-58-29c-1.2.3-2.5.6-3.7.9z" fill="#999"/><path d="m312 88c0-10.5-4.8-20.5-13.3-29.3l53.3-26.7-6-3-58 29c.7.6 1.3 1.2 1.9 1.8.2.2.4.5.7.7.4.4.8.8 1.1 1.2 7.3 8 11.4 16.9 11.4 26.3s-4.1 18.3-11.4 26.3c-.4.4-.7.8-1.1 1.2-.2.2-.4.5-.7.7-.6.6-1.2 1.2-1.9 1.8l58 29 6-3-53.3-26.7c8.5-8.8 13.3-18.8 13.3-29.3z" fill="#999"/><path d="m234.7 26.7c-17.8-4.3-37.7-6.7-58.7-6.7s-40.9 2.4-58.7 6.7l-52.9-26.7-6 3 51 25.7 6.6 3.3c1.2-.3 2.4-.6 3.7-.9.5-.1.9-.2 1.4-.3l2.4-.6c16-3.6 33.8-5.7 52.5-5.7s36.5 2 52.5 5.7c.8.2 1.6.4 2.4.6.5.1.9.2 1.4.3 1.2.3 2.5.6 3.7.9l6.6-3.3 51.4-25.7-6-3z" fill="#999"/><path d="m60.4 114.3c-7.3-8-11.4-16.9-11.4-26.3s4.1-18.3 11.4-26.3c.4-.4.7-.8 1.1-1.2.2-.2.4-.5.7-.7.6-.6 1.2-1.2 1.9-1.8l-57.7-29-6 3 52.9 26.7c-8.5 8.8-13.3 18.8-13.3 29.3s4.8 20.5 13.3 29.3l-53.3 26.7 6 3 58-29c-.7-.6-1.3-1.2-1.9-1.8-.2-.2-.4-.5-.7-.7-.3-.4-.7-.8-1-1.2z" fill="#999"/><path d="m303 88c0-10.8-5.4-21.1-15-30l58.1-29-52.1-26-58 29c-17.9-4.8-38.3-7.5-60-7.5s-42.1 2.7-60 7.5l-57.6-29-52 26 57.6 29c-9.6 8.9-15 19.1-15 30 0 10.8 5.4 21.1 15 30l-58 29 52 26 58.1-29c17.9 4.8 38.3 7.5 59.9 7.5s42.1-2.7 59.9-7.5l58.1 29 52-26-58-29c9.6-8.9 15-19.2 15-30zm-181 0c0-14.9 24.2-27 54-27s54 12.1 54 27-24.2 27-54 27-54-12.1-54-27z" fill="#656565"/><path d="m303 88c0-10.8-5.4-21.1-15-30l58.1-29-52.1-26-58 29c-17.9-4.8-38.3-7.5-60-7.5s-42.1 2.7-60 7.5l-57.6-29-52 26 57.6 29c-9.6 8.9-15 19.1-15 30 0 10.8 5.4 21.1 15 30l-58 29 52 26 58.1-29c17.9 4.8 38.3 7.5 59.9 7.5s42.1-2.7 59.9-7.5l58.1 29 52-26-58-29c9.6-8.9 15-19.2 15-30zm-181 0c0-14.9 24.2-27 54-27s54 12.1 54 27-24.2 27-54 27-54-12.1-54-27z" fill="#656565"/><g fill="#e5e5e5"><path d="m47.4 151.7-8 4 1.2.6 8-4z"/><path d="m79.4 135.7-8 4 1.1.6 8-4z"/><path d="m63.4 143.7-8 4 1.1.6 8-4z"/><path d="m312.5 20.3 8-4-1.1-.6-8 4z"/><path d="m303.4 23.7-8 4 1.1.6 8-4z"/><path d="m287.4 31.7-8 4 1.1.6 8-4z"/><path d="m39.9 20.3-8-4 1.1-.6 8 4z"/><path d="m49 23.7 8 4-1.1.6-8-4z"/><path d="m65 31.7 8 4-1.1.6-8-4z"/><path d="m304.6 151.7 8 4-1.2.6-8-4z"/><path d="m272.6 135.7 8 4-1.1.6-8-4z"/><path d="m288.6 143.7 8 4-1.1.6-8-4z"/></g><path d="m176 60.3c-30.7 0-55.5 12.4-55.5 27.8s24.8 27.8 55.5 27.8 55.5-12.4 55.5-27.8-24.8-27.8-55.5-27.8zm0 54.7c-29.8 0-54-12.1-54-27s24.2-27 54-27 54 12.1 54 27-24.2 27-54 27z" opacity=".15"/><path d="m176 133.8h-.4v-1h.4c3.2 0 6.4-.1 9.6-.3l.1 1c-3.2.2-6.5.3-9.7.3zm-10.4-.3c-3.3-.2-6.7-.5-10-.9l.1-1c3.3.4 6.6.7 9.9.8zm30.1-.8-.1-1c3.3-.4 6.7-.8 9.9-1.4l.2 1c-3.3.5-6.7 1-10 1.4zm-50-1.5c-3.3-.6-6.6-1.3-9.8-2.1l.2-1c3.2.8 6.4 1.5 9.8 2.1zm69.7-1.9-.2-1c3.3-.8 6.5-1.7 9.6-2.7l.3 1c-3.1.9-6.4 1.9-9.7 2.7zm-89.2-3c-3.3-1.1-6.4-2.3-9.4-3.5l.4-.9c2.9 1.3 6.1 2.4 9.3 3.5zm108.3-3.2-.4-.9c3.2-1.3 6.2-2.8 8.9-4.3l.5.9c-2.7 1.4-5.8 2.9-9 4.3zm-126.7-4.8c-3.1-1.7-5.9-3.6-8.4-5.6l.6-.8c2.5 1.9 5.2 3.8 8.3 5.5zm144.2-5.1-.6-.8c2.8-2.1 5.2-4.4 7.3-6.7l.8.7c-2.2 2.3-4.7 4.6-7.5 6.8zm-159.9-7.4c-2.3-2.8-4.1-5.7-5.3-8.6l.9-.4c1.2 2.8 2.9 5.7 5.1 8.3zm172.8-7.9-.9-.4c1.4-3.1 2-6.3 2-9.5h1c0 3.3-.7 6.7-2.1 9.9zm-178.9-10.6h-1c.1-3.3.9-6.6 2.4-9.8l.9.4c-1.4 3.1-2.2 6.2-2.3 9.4zm178.5-7.5c-1.1-2.9-2.7-5.7-4.9-8.4l.8-.6c2.3 2.8 4 5.7 5.1 8.7zm-170.7-10-.7-.7c2.1-2.3 4.6-4.6 7.5-6.7l.6.8c-2.8 2.1-5.3 4.3-7.4 6.6zm158.7-5.3c-2.4-2-5.2-3.8-8.2-5.6l.5-.9c3.1 1.8 5.9 3.7 8.3 5.7zm-142.9-6.7-.5-.9c2.8-1.5 5.9-3 9.1-4.3l.4.9c-3.2 1.4-6.3 2.8-9 4.3zm125.8-3.4c-2.9-1.3-6.1-2.5-9.3-3.6l.3-.9c3.3 1.1 6.4 2.3 9.4 3.6zm-107.5-4.2-.3-1c3.1-1 6.4-1.9 9.7-2.7l.2 1c-3.3.8-6.5 1.7-9.6 2.7zm88.7-2.1c-3.2-.8-6.4-1.5-9.7-2.1l.2-1c3.3.6 6.6 1.3 9.8 2.1zm-69.3-2.5-.2-1c3.3-.5 6.6-1 9.9-1.4l.1 1c-3.3.4-6.6.8-9.8 1.4zm49.7-1.1c-3.3-.4-6.6-.7-9.9-.9l.1-1c3.3.2 6.7.5 10 .9zm-29.9-1v-1c2.9-.1 6-.2 9-.2h1.1v1h-1.1c-3.1 0-6.1 0-9 .2z" fill="#e5e5e5"/><path d="m50.5 88c0-10.6 5.3-20.6 14.6-29.4l.9-.6-58.5-29.5-1.1.5 57.6 29c-9.6 8.9-15 19.1-15 30 0 10.8 5.4 21.1 15 30l-58 29 1.1.5 58.9-29.5-.9-.6c-9.3-8.7-14.6-18.8-14.6-29.4z" opacity=".15"/><path d="m294 3-58 29c-17.9-4.8-38.3-7.5-60-7.5s-42.1 2.7-60 7.5l-57.6-29-1 .5 58.6 29.5 1.1-.4c17.6-4.7 37.6-7.3 58.9-7.3s41.3 2.6 58.9 7.3l1.1.4 59-29.5z" opacity=".15"/><path d="m303 88c0-10.8-5.4-21.1-15-30l58-29-1.1-.5-58.9 29.5.9.6c9.3 8.8 14.6 18.8 14.6 29.4s-5.3 20.7-14.6 29.4l-.9.6 58.9 29.5 1.1-.5-58-29c9.6-8.9 15-19.2 15-30z" opacity=".15"/><path d="m236 143-1.2.4c-17.5 4.7-37.6 7.3-58.8 7.3s-41.3-2.6-58.8-7.3l-1.2-.4-59 29.5 1 .5 58-29c17.9 4.8 38.3 7.5 59.9 7.5s42.1-2.7 59.9-7.5l58.1 29 1-.5z" opacity=".15"/></svg>