<svg enable-background="new 0 0 256 128" viewBox="0 0 256 128" xmlns="http://www.w3.org/2000/svg"><path d="m58 125 6 3 192-96-6-3z" fill="#999"/><path d="m58 125 6 3 192-96-6-3z" fill="#999"/><path d="m0 96 6 3 67.9-34c.8-.4.8-1.6 0-2l-67.9-34-6 3 64 32z" fill="#999"/><path d="m125.9 36.9c1.3.7 2.8.7 4.2 0l67.9-33.9-6-3-64 32-64-32-6 3z" fill="#999"/><path d="m0 96 6 3 67.9-34c.8-.4.8-1.6 0-2l-67.9-34-6 3 64 32z" fill="#999"/><path d="m125.9 36.9c1.3.7 2.8.7 4.2 0l67.9-33.9-6-3-64 32-64-32-6 3z" fill="#999"/><path d="m73.9 63c.8.4.8 1.6 0 2l-68 34 52.1 26 192-96-52-26-67.9 33.9c-1.3.7-2.8.7-4.2 0l-67.9-33.9-52 26z" fill="#656565"/><path d="m73.9 63c.8.4.8 1.6 0 2l-68 34 52.1 26 192-96-52-26-67.9 33.9c-1.3.7-2.8.7-4.2 0l-67.9-33.9-52 26z" fill="#656565"/><path d="m198 3-67.9 33.9c-1.3.7-2.8.7-4.2 0l-67.9-33.9-1 .5 68.9 34.5c1.3.7 2.8.7 4.2 0l68.9-34.5z" opacity=".15"/><path d="m73.9 63c.8.4.8 1.6 0 2l-67.9 34 1.1.5 69-34.5c.8-.4.8-1.6 0-2l-69-34.5-1.1.5z" opacity=".15"/><path d="m80.5 39.7 8 4-1.1.6-8-4z" fill="#e5e5e5"/><path d="m39.4 20.3-8-4 1.2-.6 8 4z" fill="#e5e5e5"/><path d="m71.4 36.3-8-4 1.1-.6 8 4z" fill="#e5e5e5"/><path d="m55.4 28.3-8-4 1.1-.6 8 4z" fill="#e5e5e5"/><path d="m57 124.5 1 .5 192-96-1.1-.5z" opacity=".15"/><g fill="#e5e5e5"><path d="m47.5 103.7-8 4 1.1.6 8-4z"/><path d="m88.6 84.3 8-4-1.2-.6-8 4z"/><path d="m56.6 100.3 8-4-1.1-.6-8 4z"/><path d="m72.6 92.3 8-4-1.1-.6-8 4z"/><path d="m175.5 39.7-8 4 1.1.6 8-4z"/><path d="m216.6 20.3 8-4-1.2-.6-8 4z"/><path d="m184.6 36.3 8-4-1.1-.6-8 4z"/><path d="m200.6 28.3 8-4-1.1-.6-8 4z"/><path d="m111.5 71.7-8 4 1.1.6 8-4z"/><path d="m152.6 52.3 8-4-1.2-.6-8 4z"/><path d="m120.6 68.3 8-4-1.1-.6-8 4z"/><path d="m136.6 60.3 8-4-1.1-.6-8 4z"/></g></svg>