<svg enable-background="new 0 0 128 64" viewBox="0 0 128 64" xmlns="http://www.w3.org/2000/svg"><path d="m122.1 29-4.1 2.1c-.7.4-.7 1.4 0 1.8l4.1 2.1 5.9-3z" fill="#999"/><path d="m13.7 31.1 56.2-28.1-5.9-3-64 32 64 32 5.9-3-56.2-28.1c-.8-.4-.8-1.4 0-1.8z" fill="#999"/><path d="m122.1 29-52.2-26-56.2 28.1c-.7.4-.7 1.4 0 1.8l56.2 28.1 52.2-26-4.1-2.1c-.7-.4-.7-1.4 0-1.8z" fill="#656565"/><path d="m122.1 29-4.1 2.1c-.7.4-.7 1.4 0 1.8l4.1 2.1 5.9-3z" fill="#999"/><path d="m13.7 31.1 56.2-28.1-5.9-3-64 32 64 32 5.9-3-56.2-28.1c-.8-.4-.8-1.4 0-1.8z" fill="#999"/><path d="m122.1 29-52.2-26-56.2 28.1c-.7.4-.7 1.4 0 1.8l56.2 28.1 52.2-26-4.1-2.1c-.7-.4-.7-1.4 0-1.8z" fill="#656565"/><path d="m122.1 29-1.1-.6-5.3 2.6c-.7.4-.7 1.4 0 1.8l5.3 2.6 1.1-.6-4.1-2.1c-.7-.4-.7-1.4 0-1.8z" opacity=".15"/><path d="m15.9 32.9c-.7-.4-.7-1.4 0-1.8l55.2-27.6-1.2-.5-56.2 28.1c-.7.4-.7 1.4 0 1.8l56.2 28.1 1.1-.6z" opacity=".15"/><path d="m95.5 15.7-32.5 16.3 32.5 16.3 1.1-.6-31.5-15.7 31.5-15.7z" fill="#e5e5e5"/></svg>