<svg enable-background="new 0 0 128 64" viewBox="0 0 128 64" xmlns="http://www.w3.org/2000/svg"><path d="m64 0 64 32-6 3-64-32z" fill="#999"/><path d="m6 29 64 32-6 3-64-32z" fill="#999"/><path d="m58 3 64 32-52 26-64.1-32z" fill="#656565"/><path d="m64 0 64 32-6 3-64-32z" fill="#999"/><path d="m6 29 64 32-6 3-64-32z" fill="#999"/><path d="m58 3 64 32-52 26-64.1-32z" fill="#656565"/><path d="m7.1 28.5 63.9 32-1 .5-64-32z" opacity=".15"/><path d="m58 3 64 32-1.1.5-63.9-32z" opacity=".15"/><g fill="#e5e5e5"><path d="m80.6 39.7 8 4-1.2.6-8-4z"/><path d="m64.6 31.7 8 4-1.1.6-8-4z"/><path d="m58 7-2 1 24 12 2-1z"/><path d="m52 10-2 1 24 12 2-1z"/><path d="m46 13-2 1 24 12 2-1z"/><path d="m40 16-2 1 24 12 2-1z"/><path d="m34 19-2 1 24 12 2-1z"/><path d="m28 22-2 1 24 12 2-1z"/><path d="m22 25-2 1 24 12 2-1z"/><path d="m16 28-2 1 24 12 2-1z"/></g></svg>