<svg enable-background="new 0 0 256 160" viewBox="0 0 256 160" xmlns="http://www.w3.org/2000/svg"><path d="m5.9 99 52.1 26 8 2 3.9 4 52.1 26c33.2-16.6 62.5-39.9 86.2-68.2 10.4-12.4 18.7-26.5 24.8-41.5 3.2-8 9.2-14.5 16.9-18.3h.1l-52-26z" fill="#656565"/><path d="m70 131 64-44-76 38z" fill="#999"/><path d="m6 99 192-96-6-3-192 96z" fill="#999"/><path d="m128 160c33.2-16.6 62.5-39.9 86.2-68.2 10.4-12.4 18.7-26.5 24.8-41.5 3.2-8 9.2-14.5 16.9-18.3h.1l-6-3h-.1c-7.7 3.8-13.7 10.3-16.9 18.3-6.1 15-14.4 29-24.8 41.5-23.7 28.3-53 51.6-86.2 68.2z" fill="#999"/><path d="m5.9 99 52.1 26 8 2 3.9 4 52.1 26c33.2-16.6 62.5-39.9 86.2-68.2 10.4-12.4 18.7-26.5 24.8-41.5 3.2-8 9.2-14.5 16.9-18.3h.1l-52-26z" fill="#656565"/><path d="m128 160c33.2-16.6 62.5-39.9 86.2-68.2 10.4-12.4 18.7-26.5 24.8-41.5 3.2-8 9.2-14.5 16.9-18.3h.1l-6-3h-.1c-7.7 3.8-13.7 10.3-16.9 18.3-6.1 15-14.4 29-24.8 41.5-23.7 28.3-53 51.6-86.2 68.2z" fill="#999"/><path d="m70 131 64-44-76 38z" fill="#999"/><path d="m70 131 64-44-63 44.5z" opacity=".15"/><path d="m58 125 76-38-77 37.5z" opacity=".15"/><path d="m6 99 192-96-6-3-192 96z" fill="#999"/><path d="m7.1 99.5 191.9-96-1-.5-192 96z" opacity=".15"/><path d="m122 157c33.2-16.6 62.5-39.9 86.2-68.2 10.4-12.4 18.7-26.5 24.8-41.5 3.2-8 9.2-14.5 16.9-18.3h.1l-1-.5c-7.7 3.8-13.7 10.3-16.9 18.3l-.1.1c-6.1 15-14.4 28.9-24.7 41.3-23.7 28.4-53 51.6-86.3 68.2z" opacity=".15"/><g fill="#e5e5e5"><path d="m47.4 103.7-8 4 1.2.6 8-4z"/><path d="m88.5 84.3 8-4-1.1-.6-8 4z"/><path d="m56.5 100.3 8-4-1.1-.6-8 4z"/><path d="m72.5 92.3 8-4-1.1-.6-8 4z"/><path d="m175.4 39.7-8 4 1.2.6 8-4z"/><path d="m216.5 20.3 8-4-1.1-.6-8 4z"/><path d="m184.5 36.3 8-4-1.1-.6-8 4z"/><path d="m199.4 27.7 1.1.6 8-4-1.1-.6"/><path d="m152.5 52.3 8-4-1.1-.6-8 4z"/><path d="m111.4 71.7-8 4 1.1.6 8-4z"/><path d="m143.4 55.7-8 4 1.1.6 8-4z"/><path d="m127.4 63.7-8 4 1.1.6 8-4z"/><path d="m189 60.7 1.2.8c-1.7 2.5-3.5 4.9-5.3 7.3l-1.1-.8c1.7-2.4 3.5-4.8 5.2-7.3zm-10.7 14.4 1.1.9c-1.9 2.3-3.8 4.7-5.7 7l-1.1-.9c1.9-2.3 3.8-4.6 5.7-7zm-11.7 13.7 1 .9c-2 2.2-4.1 4.4-6.2 6.6l-1-1c2.1-2.1 4.2-4.3 6.2-6.5zm-12.5 12.8 1.3.7c-2.2 2.1-4.4 4.1-6.6 6.1l-1.2-.8c2.1-1.8 4.3-3.9 6.5-6zm-13.4 12 1.3.8c-2.3 1.9-4.7 3.8-7 5.7l-1.3-.8c2.4-1.9 4.7-3.8 7-5.7zm-14.1 11.1 1.3.8c-2.4 1.8-4.9 3.5-7.4 5.2l-1.3-.8c2.5-1.7 5-3.5 7.4-5.2zm-14.9 10.1 1.4.8c-2.5 1.6-5.1 3.2-7.7 4.7l-1.4-.8c2.6-1.6 5.2-3.1 7.7-4.7z"/></g></svg>