<svg enable-background="new 0 0 128 64" viewBox="0 0 128 64" xmlns="http://www.w3.org/2000/svg"><path d="m96 0-96 48 5.9 3 96-48z" fill="#999"/><path d="m122.1 13-96 48 5.9 3 96-48z" fill="#999"/><path d="m5.9 51 20.2 10 96-48-20.2-10z" fill="#656565"/><path d="m96 0-96 48 5.9 3 96-48z" fill="#999"/><path d="m122.1 13-96 48 5.9 3 96-48z" fill="#999"/><path d="m5.9 51 20.2 10 96-48-20.2-10z" fill="#656565"/><path d="m101.9 3-96 48 1.2.5 96-48z" opacity=".15"/><path d="m120.9 12.5-96 48 1.2.5 96-48z" opacity=".15"/></svg>