<svg enable-background="new 0 0 64 32" viewBox="0 0 64 32" xmlns="http://www.w3.org/2000/svg"><g fill="#999"><path d="m9.9 15-3.9-2-6 3 5.9 3 3.9-2c.9-.4.9-1.6.1-2z"/><path d="m58.1 13-3.9 2c-.8.4-.8 1.6 0 2l3.9 2 5.9-3z"/><path d="m34.1 4.9 3.8-1.9-5.9-3-5.9 3 3.9 1.9c1.2.7 2.8.7 4.1 0z"/><path d="m29.9 27.1-3.8 1.9 5.9 3 5.9-3-3.9-1.9c-1.2-.7-2.8-.7-4.1 0z"/></g><path d="m54.1 15 3.9-2-20.1-10-3.9 1.9c-1.3.7-2.8.7-4.2 0l-3.7-1.9-20.2 10 3.9 2c.8.4.8 1.6 0 2l-3.9 2 20.2 10 3.9-1.9c1.3-.7 2.8-.7 4.2 0l3.9 1.9 20-10-3.9-2c-.9-.4-.9-1.6-.1-2z" fill="#656565"/><path d="m9.9 15-3.9-2-6 3 5.9 3 3.9-2c.9-.4.9-1.6.1-2z" fill="#999"/><path d="m58.1 13-3.9 2c-.8.4-.8 1.6 0 2l3.9 2 5.9-3z" fill="#999"/><path d="m34.1 4.9 3.8-1.9-5.9-3-5.9 3 3.9 1.9c1.2.7 2.8.7 4.1 0z" fill="#999"/><path d="m29.9 27.1-3.8 1.9 5.9 3 5.9-3-3.9-1.9c-1.2-.7-2.8-.7-4.1 0z" fill="#999"/><path d="m54.1 15 3.9-2-20.1-10-3.9 1.9c-1.3.7-2.8.7-4.2 0l-3.7-1.9-20.2 10 3.9 2c.8.4.8 1.6 0 2l-3.9 2 20.2 10 3.9-1.9c1.3-.7 2.8-.7 4.2 0l3.9 1.9 20-10-3.9-2c-.9-.4-.9-1.6-.1-2z" fill="#656565"/><path d="m39.1 3.5-1.2-.5-3.9 1.9c-1.3.7-2.8.7-4.2 0l-3.7-1.9-1.1.6 5 2.5c1.3.7 2.8.7 4.2 0z" opacity=".15"/><path d="m7.1 12.5-1.2.5 3.9 2c.8.4.8 1.6 0 2l-3.9 2 1.1.6 5.1-2.5c.8-.4.8-1.6 0-2z" opacity=".15"/><path d="m24.9 28.5 1.1.6 3.9-1.9c1.3-.7 2.8-.7 4.2 0l3.9 1.9 1.1-.6-5-2.5c-1.3-.7-2.8-.7-4.2 0z" opacity=".15"/><path d="m58.1 13-1.1-.6-5.1 2.6c-.8.4-.8 1.6 0 2l5.1 2.5 1.1-.6-3.9-2c-.8-.4-.8-1.6 0-2z" opacity=".15"/></svg>