<svg enable-background="new 0 0 160 80" viewBox="0 0 160 80" xmlns="http://www.w3.org/2000/svg"><path d="m154.1 67 5.9-3-32-16 32-16-6-3-37.9 19z" fill="#999"/><path d="m64 80 32-16 32 16 5.9-3-38-19-37.9 19z" fill="#999"/><path d="m58 77 37.9-19 38 19 20.2-10-38-19 37.9-19-52-26-96.1 48z" fill="#656565"/><path d="m154.1 67 5.9-3-32-16 32-16-6-3-37.9 19z" fill="#999"/><path d="m64 80 32-16 32 16 5.9-3-38-19-37.9 19z" fill="#999"/><path d="m58 77 37.9-19 38 19 20.2-10-38-19 37.9-19-52-26-96.1 48z" fill="#656565"/><path d="m6 51 96-48-6-3-96 48z" fill="#999"/><path d="m6 51 96-48-6-3-96 48z" fill="#999"/><path d="m7.1 51.5 95.9-48-1-.5-96 48z" opacity=".15"/><g fill="#e5e5e5"><path d="m79.5 39.8-8 4 1.1.5 8-4z"/><path d="m120.6 20.3 8-4-1.1-.6-8 4z"/><path d="m88.6 36.3 8-4-1.1-.6-8 4z"/><path d="m104.6 28.3 8-4-1.1-.6-8 4z"/><path d="m47.5 55.8-8 4 1.1.5 8-4z"/><path d="m56.6 52.3 8-4-1.1-.6-8 4z"/></g><path d="m58 77 37.9-19 38 19 1.2-.5-39.1-19.5-39 19.5z" opacity=".15"/><path d="m152.9 67.5 1.2-.5-38-19 37.9-19-1.1-.5-38.9 19.5z" opacity=".15"/></svg>