<svg enable-background="new 0 0 64 32" viewBox="0 0 64 32" xmlns="http://www.w3.org/2000/svg"><path d="m32 32 5.9-3-24.3-12.1c-.7-.3-.7-1.3 0-1.6l18.1-9c.3-.1.6-.1.8 0l25.6 12.7 5.9-3-32-16-32 16z" fill="#999"/><path d="m13.6 15.2 18.1-9c.3-.1.6-.1.8 0l25.6 12.8-20.2 10-24.3-12.1c-.7-.4-.7-1.4 0-1.7z" fill="#656565"/><path d="m32 32 5.9-3-24.3-12.1c-.7-.3-.7-1.3 0-1.6l18.1-9c.3-.1.6-.1.8 0l25.6 12.7 5.9-3-32-16-32 16z" fill="#999"/><path d="m13.6 15.2 18.1-9c.3-.1.6-.1.8 0l25.6 12.8-20.2 10-24.3-12.1c-.7-.4-.7-1.4 0-1.7z" fill="#656565"/><path d="m32.5 6.2c-.3-.1-.6-.1-.8 0l-18.1 9c-.7.3-.7 1.3 0 1.6l24.3 12.2 1.1-.6-24.9-12.4 17.9-8.9 24.9 12.5 1.1-.6z" opacity=".15"/></svg>