<svg enable-background="new 0 0 256 128" viewBox="0 0 256 128" xmlns="http://www.w3.org/2000/svg"><path d="m192 0-192 96 6 3 192-96z" fill="#999"/><path d="m250 29-192 96 6 3 192-96z" fill="#999"/><path d="m198 3-192 96 52 26 192.1-96z" fill="#656565"/><path d="m192 0-192 96 6 3 192-96z" fill="#999"/><path d="m250 29-192 96 6 3 192-96z" fill="#999"/><path d="m198 3-192 96 52 26 192.1-96z" fill="#656565"/><path d="m248.9 28.5-191.9 96 1 .5 192-96z" opacity=".15"/><path d="m198 3-192 96 1.1.5 191.9-96z" opacity=".15"/><g fill="#e5e5e5"><path d="m88.5 84.3 8-4-1.1-.6-8 4z"/><path d="m47.4 103.7-8 4 1.2.6 8-4z"/><path d="m79.4 87.7-8 4 1.1.6 8-4z"/><path d="m63.4 95.7-8 4 1.1.6 8-4z"/><path d="m175.5 39.7-8 4 1.1.6 8-4z"/><path d="m216.6 20.3 8-4-1.2-.6-8 4z"/><path d="m184.6 36.3 8-4-1.1-.6-8 4z"/><path d="m200.6 28.3 8-4-1.1-.6-8 4z"/><path d="m111.5 71.7-8 4 1.1.6 8-4z"/><path d="m152.6 52.3 8-4-1.2-.6-8 4z"/><path d="m120.6 68.3 8-4-1.1-.6-8 4z"/><path d="m136.6 60.3 8-4-1.1-.6-8 4z"/></g></svg>