<svg enable-background="new 0 0 192 56" viewBox="0 0 192 56" xmlns="http://www.w3.org/2000/svg"><path d="m96 6.6c12.4 0 23.9-2.5 32-6.6l6 3c-9.8 4.9-23.1 8.1-38 8.1s-28.2-3.2-38-8.1l6-3c8.1 4.1 19.6 6.6 32 6.6z" fill="#999"/><path d="m96 47.6c35.1 0 67-7.1 90-18.6l6 3c-24.6 12.3-58.4 20.1-96 20.1s-71.4-7.8-96-20.1l6-3c23 11.5 54.9 18.6 90 18.6z" fill="#999"/><path d="m96 47.6c-35.1 0-67-7.1-90-18.6l52-26c9.8 4.9 23.1 8.1 38 8.1s28.2-3.2 38-8.1l52 26c-23 11.5-54.9 18.6-90 18.6z" fill="#656565"/><path d="m96 6.6c12.4 0 23.9-2.5 32-6.6l6 3c-9.8 4.9-23.1 8.1-38 8.1s-28.2-3.2-38-8.1l6-3c8.1 4.1 19.6 6.6 32 6.6z" fill="#999"/><path d="m96 47.6c35.1 0 67-7.1 90-18.6l6 3c-24.6 12.3-58.4 20.1-96 20.1s-71.4-7.8-96-20.1l6-3c23 11.5 54.9 18.6 90 18.6z" fill="#999"/><path d="m96 47.6c-35.1 0-67-7.1-90-18.6l52-26c9.8 4.9 23.1 8.1 38 8.1s28.2-3.2 38-8.1l52 26c-23 11.5-54.9 18.6-90 18.6z" fill="#656565"/><path d="m6 29 1-.5c22.7 11.4 54.3 18.4 89 18.4s66.2-7 88.9-18.4l1.1.5c-23 11.5-54.9 18.6-90 18.6s-67-7.1-90-18.6z" fill="#656565"/><path d="m6 29 1-.5c22.7 11.4 54.3 18.4 89 18.4s66.2-7 88.9-18.4l1.1.5c-23 11.5-54.9 18.6-90 18.6s-67-7.1-90-18.6z" opacity=".15"/><path d="m57 3.5 1-.5c9.8 4.9 23.1 8.1 38 8.1s28.2-3.2 38-8.1l1.1.5c-10 5-23.7 8.3-39 8.3s-29.1-3.3-39.1-8.3z" fill="#656565"/><path d="m57 3.5 1-.5c9.8 4.9 23.1 8.1 38 8.1s28.2-3.2 38-8.1l1.1.5c-10 5-23.7 8.3-39 8.3s-29.1-3.3-39.1-8.3z" opacity=".15"/><path d="m96 28.8c24.7 0 47.1-5 63.4-13l1.1.5c-16.5 8.4-39.3 13.5-64.5 13.5s-48-5.2-64.5-13.5l1.1-.5c16.3 8.1 38.7 13 63.4 13z" fill="#e5e5e5"/></svg>