<svg enable-background="new 0 0 128 64" viewBox="0 0 128 64" xmlns="http://www.w3.org/2000/svg"><g fill="#999"><path d="m64 0-6 3 3.9 1.9c1.3.7 2.8.7 4.2 0l3.9-1.9z"/><path d="m9.9 31-3.9-2-6 3 6 3 3.9-2c.8-.4.8-1.6 0-2z"/><path d="m128 32-6-3-3.9 2c-.8.4-.8 1.6 0 2l3.9 2z"/><path d="m66.1 59.1c-1.3-.7-2.8-.7-4.2 0l-3.9 1.9 6 3 6-3z"/><path d="m64 0-6 3 3.9 1.9c1.3.7 2.8.7 4.2 0l3.9-1.9z"/><path d="m9.9 31-3.9-2-6 3 6 3 3.9-2c.8-.4.8-1.6 0-2z"/><path d="m122 29-3.9 2c-.8.4-.8 1.6 0 2l3.9 2 6-3z"/><path d="m66.1 59.1c-1.3-.7-2.8-.7-4.2 0l-3.9 1.9 6 3 6-3z"/></g><path d="m118.1 33c-.8-.4-.8-1.6 0-2l3.9-2-52-26-3.9 1.9c-1.3.7-2.8.7-4.2 0l-3.9-1.9-52.1 26 3.9 2c.8.4.8 1.6 0 2l-3.8 2 52 26 3.9-1.9c1.3-.7 2.8-.7 4.2 0l3.9 1.9 52-26z" fill="#656565"/><path d="m118.1 33c-.8-.4-.8-1.6 0-2l3.9-2-52-26-3.9 1.9c-1.3.7-2.8.7-4.2 0l-3.9-1.9-52.1 26 3.9 2c.8.4.8 1.6 0 2l-3.8 2 52 26 3.9-1.9c1.3-.7 2.8-.7 4.2 0l3.9 1.9 52-26z" fill="#656565"/><path d="m66.1 58c-1.3-.7-2.8-.7-4.2 0l-4.9 2.5 1 .5 3.9-1.9c1.3-.7 2.8-.7 4.2 0l3.9 1.9 1.1-.6z" opacity=".15"/><path d="m12.1 31-5.1-2.5-1 .5 3.9 2c.8.4.8 1.6 0 2l-3.9 2 1.1.5 5.1-2.5c.7-.4.7-1.6-.1-2z" opacity=".15"/><path d="m71 3.5-1-.5-3.9 1.9c-1.3.7-2.8.7-4.2 0l-3.9-1.9-1 .5 4.9 2.5c1.3.7 2.8.7 4.2 0z" opacity=".15"/><path d="m118.1 33c-.8-.4-.8-1.6 0-2l3.9-2-1.1-.5-5.1 2.5c-.8.4-.8 1.6 0 2l5.1 2.5 1.1-.5z" opacity=".15"/></svg>