<svg enable-background="new 0 0 64 32" viewBox="0 0 64 32" xmlns="http://www.w3.org/2000/svg"><path d="m32 0-5.9 3 24.4 12.2c.7.3.7 1.3 0 1.6l-18.1 9c-.3.1-.6.1-.8 0l-25.7-12.8-5.9 3 32 16 32-16z" fill="#999"/><path d="m50.4 16.8-18.1 9c-.3.1-.6.1-.8 0l-25.6-12.8 20.2-10 24.4 12.2c.6.3.6 1.3-.1 1.6z" fill="#656565"/><path d="m32 0-5.9 3 24.4 12.2c.7.3.7 1.3 0 1.6l-18.1 9c-.3.1-.6.1-.8 0l-25.7-12.8-5.9 3 32 16 32-16z" fill="#999"/><path d="m50.4 16.8-18.1 9c-.3.1-.6.1-.8 0l-25.6-12.8 20.2-10 24.4 12.2c.6.3.6 1.3-.1 1.6z" fill="#656565"/><path d="m31.5 25.8c.3.1.6.1.8 0l18.1-9c.7-.3.7-1.3 0-1.6l-24.3-12.2-1.1.6 24.9 12.4-17.9 8.9-24.9-12.4-1.2.5z" opacity=".15"/></svg>