<svg enable-background="new 0 0 144 192" viewBox="0 0 144 192" xmlns="http://www.w3.org/2000/svg"><path d="m6 163c74-37 74-97 0-134l52-26c102.7 51.4 102.7 134.6 0 186z" fill="#656565"/><path d="m58 3c102.7 51.4 102.7 134.6 0 186l6 3c106.2-53.1 106.2-138.9 0-192z" fill="#999"/><path d="m0 160c70.7-35.4 70.7-92.7 0-128l6-3c74 37 74 97 0 134z" fill="#999"/><path d="m6 163c74-37 74-97 0-134l52-26c102.7 51.4 102.7 134.6 0 186z" fill="#656565"/><path d="m58 3c102.7 51.4 102.7 134.6 0 186l6 3c106.2-53.1 106.2-138.9 0-192z" fill="#999"/><path d="m57 188.5c102.2-51.1 102.2-133.9 0-185l1-.5c102.7 51.4 102.7 134.6 0 186" opacity=".15"/><path d="m6 29c74 37 74 97 0 134l1.1.5c74.6-37.3 74.6-97.8 0-135.1z" opacity=".15"/><path d="m40.7 172-1.2-1c2.7-1.5 5.3-3 7.8-4.6l1.3.9c-2.5 1.7-5.2 3.2-7.9 4.7zm15.3-9.5-1.1-.9c2.5-1.7 5-3.5 7.3-5.4l1.2.9c-2.4 1.8-4.9 3.6-7.4 5.4zm14.3-11.4-1.2-.7c2.3-2.1 4.5-4.2 6.5-6.3l1.3.7c-2 2.1-4.2 4.2-6.6 6.3zm12.4-13.1-1.2-.8c1.9-2.4 3.7-4.9 5.2-7.3l1.3.6c-1.5 2.6-3.3 5.1-5.3 7.5zm9.7-15.3-1.3-.6c1.3-2.7 2.4-5.6 3.3-8.4l1.3.4c-.8 2.9-1.9 5.8-3.3 8.6zm5.6-17.5-1.4-.2c.5-3 .7-6 .7-8.9h1.4c0 3-.2 6.1-.7 9.1zm-1.4-18.1c-.5-2.9-1.2-5.9-2.1-8.7l1.3-.4c.9 3 1.7 6 2.1 8.9zm-5.4-17.1c-1.3-2.6-2.7-5.3-4.4-7.9l1.2-.8c1.7 2.6 3.2 5.3 4.5 8zm-9.6-15.2c-1.8-2.3-3.8-4.6-5.9-6.8l1.2-.7c2.1 2.3 4.2 4.6 6 6.9zm-12.4-13.2c-2.2-2-4.5-3.9-6.9-5.8l1.4-.7c2.4 1.9 4.8 3.9 7 5.9zm-14.3-11.1c-2.4-1.7-5-3.3-7.6-5l1.3-.8c2.6 1.6 5.2 3.3 7.6 5zm-15.9-9.8c-2.6-1.4-5.3-2.8-8-4.2l1.6-.8c2.8 1.4 5.5 2.8 8.1 4.2z" fill="#e5e5e5"/><path d="m0 160c70.7-35.4 70.7-92.7 0-128l6-3c74 37 74 97 0 134z" fill="#999"/></svg>