<svg enable-background="new 0 0 128 64" viewBox="0 0 128 64" xmlns="http://www.w3.org/2000/svg"><path d="m64 0-64 32 6 3 64-32z" fill="#999"/><path d="m122 29-64 32 6 3 64-32z" fill="#999"/><path d="m70 3-64 32 52 26 64.1-32z" fill="#656565"/><path d="m64 0-64 32 6 3 64-32z" fill="#999"/><path d="m122 29-64 32 6 3 64-32z" fill="#999"/><path d="m70 3-64 32 52 26 64.1-32z" fill="#656565"/><path d="m120.9 28.5-63.9 32 1 .5 64-32z" opacity=".15"/><path d="m70 3-64 32 1.1.5 63.9-32z" opacity=".15"/><g fill="#e5e5e5"><path d="m47.4 39.7-8 4 1.2.6 8-4z"/><path d="m63.4 31.7-8 4 1.1.6 8-4z"/><path d="m70 7 2 1-24 12-2-1z"/><path d="m76 10 2 1-24 12-2-1z"/><path d="m82 13 2 1-24 12-2-1z"/><path d="m88 16 2 1-24 12-2-1z"/><path d="m94 19 2 1-24 12-2-1z"/><path d="m100 22 2 1-24 12-2-1z"/><path d="m106 25 2 1-24 12-2-1z"/><path d="m112 28 2 1-24 12-2-1z"/></g></svg>