<svg enable-background="new 0 0 160 80" viewBox="0 0 160 80" xmlns="http://www.w3.org/2000/svg"><g fill="#999"><path d="m154.1 13 5.9 3-32 16 32 16-6 3-37.9-19z"/><path d="m64 0 32 16 32-16 5.9 3-38 19-37.9-19z"/><path d="m154.1 13 5.9 3-32 16 32 16-6 3-37.9-19z"/><path d="m64 0 32 16 32-16 5.9 3-38 19-37.9-19z"/><path d="m5.9 67-5.9-3 32-16-32-16 6-3 37.9 19z"/><path d="m96 80-32-16-32 16-5.9-3 38-19 37.9 19z"/><path d="m5.9 67-5.9-3 32-16-32-16 6-3 37.9 19z"/><path d="m96 80-32-16-32 16-5.9-3 38-19 37.9 19z"/></g><path d="m5.9 29 52.1-26 38 19 37.9-19 20.2 10-38 19 38 19-52.1 26-38-19-37.9 19-20.2-10 38-19z" fill="#656565"/><path d="m5.9 29 52.1-26 38 19 37.9-19 20.2 10-38 19 38 19-52.1 26-38-19-37.9 19-20.2-10 38-19z" fill="#656565"/><path d="m71.5 36.3-8-4 1.1-.6 8 4z" fill="#e5e5e5"/><path d="m112.6 55.7 8 4-1.2.6-8-4z" fill="#e5e5e5"/><path d="m80.6 39.7 8 4-1.1.6-8-4z" fill="#e5e5e5"/><path d="m96.6 47.7 8 4-1.1.6-8-4z" fill="#e5e5e5"/><path d="m39.5 20.3-8-4 1.1-.6 8 4z" fill="#e5e5e5"/><path d="m48.6 23.7 8 4-1.1.6-8-4z" fill="#e5e5e5"/><path d="m58 3 37.9 19 38-19 1.2.5-39.1 19.5-39-19.5z" opacity=".15"/><path d="m152.9 12.5 1.2.5-38 19 37.9 19-1.1.5-38.9-19.5z" opacity=".15"/><path d="m102 77-37.9-19-38 19-1.2-.5 39.1-19.5 39 19.5z" opacity=".15"/><path d="m7.1 67.5-1.2-.5 38-19-37.9-19 1.1-.5 38.9 19.5z" opacity=".15"/></svg>