<svg enable-background="new 0 0 192 96" viewBox="0 0 192 96" xmlns="http://www.w3.org/2000/svg"><path d="m128 0-128 64 64 32 128-64z" opacity=".2"/><path d="m150 43 6 3v-6l-6-3z" fill="#999"/><path d="m150 43 6 3v-6l-6-3z" opacity=".06"/><path d="m158 45-2 1v-6l2-1z" fill="#999"/><path d="m158 45-2 1v-6l2-1z" opacity=".39"/><path d="m86 77 4 2v-5l-4-2z" fill="#999"/><path d="m86 77 4 2v-5l-4-2z" opacity=".06"/><path d="m92 78-2 1v-5l2-1z" fill="#999"/><path d="m92 78-2 1v-5l2-1z" opacity=".39"/><path d="m186.1 29-.2.1c-6.4 3.2-13.5 5.1-20.7 5.4h-.2c-7.2.3-14.3 2.2-20.7 5.4l-15.3 7.7c-4.6 2.3-40.8 21.2-44.5 24.7l-11 10.5c-3.6 3.5-7.8 6.4-12.2 8.6l-3.2 1.6 5.9 3 3.1-1.5c4.6-2.3 8.8-5.3 12.5-8.8l10.8-10.3c3.7-3.5 7.9-6.5 12.5-8.8l47.3-23.6c6.4-3.2 13.5-5.1 20.7-5.4h.2c7.2-.3 14.3-2.2 20.7-5.4l.2-.2z" fill="#999"/><path d="m186.1 29-.2.1c-6.4 3.2-13.5 5.1-20.7 5.4h-.2c-7.2.3-14.3 2.2-20.7 5.4l-15.3 7.7c-4.6 2.3-40.8 21.2-44.5 24.7l-11 10.5c-3.6 3.5-7.8 6.4-12.2 8.6l-3.2 1.6 5.9 3 3.1-1.5c4.6-2.3 8.8-5.3 12.5-8.8l10.8-10.3c3.7-3.5 7.9-6.5 12.5-8.8l47.3-23.6c6.4-3.2 13.5-5.1 20.7-5.4h.2c7.2-.3 14.3-2.2 20.7-5.4l.2-.2z" fill="#999"/><path d="m61.3 91.4c4.5-2.3 8.6-5.2 12.2-8.6l11-10.5c3.7-3.5 39.9-22.5 44.5-24.7l15.3-7.7c4-2 8.3-3.5 12.7-4.4-4.4.9-8.7 2.4-12.7 4.4 6.4-3.2 13.4-5 20.6-5.4h.3c2.2-.1 4.5-.4 6.7-.8.1 0 .2 0 .3-.1.6-.1 1.3-.3 1.9-.4.2 0 .3-.1.5-.1.6-.1 1.2-.3 1.8-.5.2 0 .3-.1.5-.1.6-.2 1.2-.4 1.9-.6h.1c1.4-.5 2.8-1 4.2-1.6.9-.4 1.8-.8 2.7-1.2l.2-.1-52.1-26c-6.5 3.3-13.7 5.2-21 5.5-7.2.3-14.3 2.2-20.8 5.4l-47.2 23.6c-4.6 2.3-8.8 5.3-12.5 8.8l-10.9 10.3c-3.7 3.5-7.9 6.5-12.5 8.8l-3.1 1.6 52.2 26z" fill="#656565"/><path d="m133.9 3-5.9-3-.2.1c-6.4 3.2-13.5 5.1-20.7 5.4h-.2c-7.2.3-14.3 2.2-20.7 5.4l-47.3 23.6c-4.6 2.3-8.8 5.3-12.5 8.8l-10.8 10.4c-3.7 3.5-7.9 6.5-12.5 8.8l-3.1 1.5 5.9 3 3.1-1.6c4.6-2.3 8.8-5.3 12.5-8.8l10.8-10.3c3.7-3.5 7.9-6.5 12.5-8.8l47.3-23.6c6.5-3.2 13.6-5.1 20.8-5.4 7.3-.3 14.5-2.2 21-5.5z" fill="#999"/><path d="m133.9 3-5.9-3-.2.1c-6.4 3.2-13.5 5.1-20.7 5.4h-.2c-7.2.3-14.3 2.2-20.7 5.4l-47.3 23.6c-4.6 2.3-8.8 5.3-12.5 8.8l-10.8 10.4c-3.7 3.5-7.9 6.5-12.5 8.8l-3.1 1.5 5.9 3 3.1-1.6c4.6-2.3 8.8-5.3 12.5-8.8l10.8-10.3c3.7-3.5 7.9-6.5 12.5-8.8l47.3-23.6c6.5-3.2 13.6-5.1 20.8-5.4 7.3-.3 14.5-2.2 21-5.5z" fill="#999"/><path d="m61.3 91.4c4.5-2.3 8.6-5.2 12.2-8.6l11-10.5c3.7-3.5 39.9-22.5 44.5-24.7l15.3-7.7c4-2 8.3-3.5 12.7-4.4-4.4.9-8.7 2.4-12.7 4.4 6.4-3.2 13.4-5 20.6-5.4h.3c2.2-.1 4.5-.4 6.7-.8.1 0 .2 0 .3-.1.6-.1 1.3-.3 1.9-.4.2 0 .3-.1.5-.1.6-.1 1.2-.3 1.8-.5.2 0 .3-.1.5-.1.6-.2 1.2-.4 1.9-.6h.1c1.4-.5 2.8-1 4.2-1.6.9-.4 1.8-.8 2.7-1.2l.2-.1-52.1-26c-6.5 3.3-13.7 5.2-21 5.5-7.2.3-14.3 2.2-20.8 5.4l-47.2 23.6c-4.6 2.3-8.8 5.3-12.5 8.8l-10.9 10.3c-3.7 3.5-7.9 6.5-12.5 8.8l-3.1 1.6 52.2 26z" fill="#656565"/><path d="m165.3 33.5h-.3c-7.2.3-14.2 2.2-20.6 5.4l-15.4 7.7c-4.6 2.3-40.8 21.2-44.5 24.7l-11 10.5c-3.6 3.5-7.8 6.4-12.2 8.6l-4.2 2.1 1 .5 3.2-1.6c4.5-2.3 8.6-5.2 12.2-8.6l11-10.5c3.7-3.5 39.9-22.5 44.5-24.7l15.4-7.7c6.4-3.2 13.4-5 20.6-5.4h.3c7.1-.3 14-2.1 20.4-5.3l.4-.2-1.1-.5c-6.2 3-12.9 4.7-19.7 5z" opacity=".15"/><path d="m159.5 15.7c-6.4 3.2-13.2 4.9-20.4 5.3h-.2c-7.3.3-14.3 2.2-20.9 5.4l-47.2 23.7c-4.6 2.3-8.9 5.3-12.7 8.9l-10.8 10.3c-3.7 3.5-7.9 6.5-12.4 8.7l-3.4 1.7 1.1.6 2.8-1.4c4.6-2.3 8.9-5.3 12.6-8.9l10.8-10.3c3.7-3.5 7.9-6.5 12.4-8.7l47.3-23.6c6.4-3.2 13.3-5 20.5-5.3h.2c7.3-.3 14.3-2.2 20.9-5.4l.5-.3z" fill="#e5e5e5"/><path d="m9 66.5c4.6-2.3 8.8-5.3 12.5-8.8l10.8-10.3c3.7-3.5 7.9-6.5 12.5-8.8l47.3-23.6c6.5-3.2 13.6-5.1 20.8-5.4 7.3-.3 14.5-2.2 21-5.5l1.1-.5-1-.5c-6.5 3.3-13.7 5.2-21 5.5-7.2.3-14.3 2.2-20.8 5.4l-47.3 23.5c-4.6 2.3-8.8 5.3-12.5 8.8l-10.9 10.3c-3.7 3.5-7.9 6.5-12.5 8.8l-3.1 1.6 1 .5z" opacity=".15"/></svg>