<svg enable-background="new 0 0 64 32" viewBox="0 0 64 32" xmlns="http://www.w3.org/2000/svg"><path d="m32 0-32 16 5.9 3 32-16z" fill="#999"/><path d="m58.1 13-32 16 5.9 3 32-16z" fill="#999"/><path d="m5.9 19 20.2 10 32-16-20.2-10z" fill="#656565"/><path d="m32 0-32 16 5.9 3 32-16z" fill="#999"/><path d="m58.1 13-32 16 5.9 3 32-16z" fill="#999"/><path d="m5.9 19 20.2 10 32-16-20.2-10z" fill="#656565"/><path d="m37.9 3-32 16 1.2.5 32-16z" opacity=".15"/><path d="m56.9 12.5-32 16 1.2.5 32-16z" opacity=".15"/></svg>