<svg enable-background="new 0 0 128 64" viewBox="0 0 128 64" xmlns="http://www.w3.org/2000/svg"><path d="m5.9 29 4.1 2.1c.7.4.7 1.4 0 1.8l-4.1 2.1-5.9-3z" fill="#999"/><path d="m114.3 31.1-56.2-28.1 5.9-3 64 32-64 32-5.9-3 56.3-28.1c.7-.4.7-1.4-.1-1.8z" fill="#999"/><path d="m5.9 29 52.2-26 56.3 28.1c.7.4.7 1.4 0 1.8l-56.3 28.1-52.2-26 4.1-2.1c.7-.4.7-1.4 0-1.8z" fill="#656565"/><path d="m5.9 29 4.1 2.1c.7.4.7 1.4 0 1.8l-4.1 2.1-5.9-3z" fill="#999"/><path d="m114.3 31.1-56.2-28.1 5.9-3 64 32-64 32-5.9-3 56.3-28.1c.7-.4.7-1.4-.1-1.8z" fill="#999"/><path d="m5.9 29 52.2-26 56.3 28.1c.7.4.7 1.4 0 1.8l-56.3 28.1-52.2-26 4.1-2.1c.7-.4.7-1.4 0-1.8z" fill="#656565"/><path d="m5.9 29 1.1-.6 5.3 2.6c.7.4.7 1.4 0 1.8l-5.3 2.6-1.1-.4 4.1-2.1c.7-.4.7-1.4 0-1.8z" opacity=".15"/><path d="m112.1 32.9c.7-.4.7-1.4 0-1.8l-55.2-27.6 1.2-.5 56.3 28.1c.7.4.7 1.4 0 1.8l-56.3 28.1-1.1-.6z" opacity=".15"/><path d="m32.5 15.7 32.5 16.3-32.5 16.3-1.1-.6 31.5-15.7-31.5-15.7z" fill="#e5e5e5"/></svg>