<svg enable-background="new 0 0 384 72" viewBox="0 0 384 72" xmlns="http://www.w3.org/2000/svg"><path d="m378 43c-102.7-51.4-269.3-51.4-372 0l52 26c74-37 194-37 268 0z" fill="#656565"/><path d="m384 40c-106.2-53.1-277.8-53.1-384 0l6 3c102.7-51.4 269.3-51.4 372 0z" fill="#999"/><path d="m326 69c-74-37-194-37-268 0l6 3c70.7-35.4 185.3-35.3 256 0z" fill="#999"/><path d="m378 43c-102.7-51.4-269.3-51.4-372 0l52 26c74-37 194-37 268 0z" fill="#656565"/><path d="m384 40c-106.2-53.1-277.8-53.1-384 0l6 3c102.7-51.4 269.3-51.4 372 0z" fill="#999"/><path d="m378 43c-102.7-51.3-269.3-51.4-372 0l1 .5c102.2-51.1 267.8-51.1 370 0z" opacity=".15"/><path d="m327.1 68.5c-74.6-37.3-195.5-37.3-270.1 0l1 .5c74-37 194-37 268 0z" opacity=".15"/><path d="m41.2 52.6-.6-1.3c2.7-1.2 5.5-2.4 8.3-3.6l.5 1.3c-2.7 1.2-5.5 2.4-8.2 3.6zm16.6-6.8-.5-1.3c2.8-1 5.6-2 8.5-3l.4 1.3c-2.8.9-5.6 2-8.4 3zm17-5.8-.4-1.3c2.9-.9 5.8-1.7 8.7-2.5l.4 1.4c-2.9.7-5.8 1.6-8.7 2.4zm17.4-4.7-.3-1.4c2.9-.7 5.9-1.4 8.8-2l.3 1.4c-3 .6-5.9 1.3-8.8 2zm17.5-3.9-.3-1.4c2.9-.6 5.9-1.1 8.9-1.6l.2 1.4c-2.9.5-5.9 1.1-8.8 1.6zm17.7-3-.2-1.4c3-.4 6-.9 8.9-1.2l.2 1.4c-2.9.3-5.9.8-8.9 1.2zm17.8-2.3-.1-1.4c3-.3 6-.6 9-.8l.1 1.4c-3 .2-6 .5-9 .8zm16.9-1.5-.1-1.4c3-.2 6-.4 9-.5l.1 1.4c-3 .2-6 .3-9 .5zm17-.8v-1.4c3-.1 6-.1 9-.1v1.4c-3 0-6 .1-9 .1z" fill="#e5e5e5"/><path d="m334.5 49 .5-1.3c2.8 1.1 5.6 2.3 8.3 3.6l-.6 1.3c-2.6-1.2-5.4-2.4-8.2-3.6zm-16.8-6.2.4-1.3c2.9 1 5.7 2 8.5 3l-.5 1.3c-2.7-1-5.5-2.1-8.4-3zm-17.2-5.2.4-1.4c2.9.8 5.8 1.6 8.7 2.5l-.4 1.3c-2.9-.8-5.8-1.7-8.7-2.4zm-17.4-4.3.3-1.4c2.9.6 5.9 1.3 8.8 2l-.3 1.4c-3-.7-5.9-1.4-8.8-2zm-17.6-3.5.2-1.4c3 .5 5.9 1.1 8.9 1.6l-.3 1.4c-2.9-.5-5.9-1.1-8.8-1.6zm-17.8-2.6.2-1.4c3 .4 6 .8 8.9 1.2l-.2 1.4c-3-.4-6-.9-8.9-1.2zm-17.9-1.9.1-1.4c3 .3 6 .5 9 .8l-.1 1.4c-3-.3-6-.6-9-.8zm-16.9-1.2.1-1.4c3 .1 6 .3 9 .5l-.1 1.4c-3-.2-6-.3-9-.5zm-17-.4v-1.4c3 0 6 .1 9 .1v1.4c-3 0-6-.1-9-.1z" fill="#e5e5e5"/><path d="m326 69c-74-37-194-37-268 0l6 3c70.7-35.4 185.3-35.3 256 0z" fill="#999"/></svg>