<svg enable-background="new 0 0 256 128" viewBox="0 0 256 128" xmlns="http://www.w3.org/2000/svg"><path d="m58 3 6-3 192 96-6 3z" fill="#999"/><path d="m58 3 6-3 192 96-6 3z" fill="#999"/><path d="m0 32 6-3 67.9 34c.8.4.8 1.6 0 2l-67.9 34-6-3 64-32z" fill="#999"/><path d="m125.9 91.1c1.3-.7 2.8-.7 4.2 0l67.9 33.9-6 3-64-32-64 32-6-3z" fill="#999"/><path d="m0 32 6-3 67.9 34c.8.4.8 1.6 0 2l-67.9 34-6-3 64-32z" fill="#999"/><path d="m125.9 91.1c1.3-.7 2.8-.7 4.2 0l67.9 33.9-6 3-64-32-64 32-6-3z" fill="#999"/><path d="m73.9 65c.8-.4.8-1.6 0-2l-68-34 52.1-26 192 96-52 26-67.9-33.9c-1.3-.7-2.8-.7-4.2 0l-67.9 33.9-52-26z" fill="#656565"/><path d="m73.9 65c.8-.4.8-1.6 0-2l-68-34 52.1-26 192 96-52 26-67.9-33.9c-1.3-.7-2.8-.7-4.2 0l-67.9 33.9-52-26z" fill="#656565"/><g fill="#e5e5e5"><path d="m39.5 20.3-8-4 1.1-.6 8 4z"/><path d="m80.6 39.7 8 4-1.2.6-8-4z"/><path d="m48.6 23.7 8 4-1.1.6-8-4z"/><path d="m64.6 31.7 8 4-1.1.6-8-4z"/><path d="m167.5 84.3-8-4 1.1-.6 8 4z"/><path d="m208.6 103.7 8 4-1.2.6-8-4z"/><path d="m176.6 87.7 8 4-1.1.6-8-4z"/><path d="m192.6 95.7 8 4-1.1.6-8-4z"/></g><path d="m125.9 90c1.3-.7 2.8-.7 4.2 0l68.9 34.5-1 .5-67.9-33.9c-1.3-.7-2.8-.7-4.2 0l-67.9 33.9-1-.5z" opacity=".15"/><path d="m73.9 65c.8-.4.8-1.6 0-2l-67.9-34 1.1-.5 69 34.5c.8.4.8 1.6 0 2l-69 34.5-1.1-.5z" opacity=".15"/><path d="m88.5 84.3 8-4-1.1-.6-8 4z" fill="#e5e5e5"/><path d="m47.4 103.7-8 4 1.2.6 8-4z" fill="#e5e5e5"/><path d="m79.4 87.7-8 4 1.1.6 8-4z" fill="#e5e5e5"/><path d="m63.4 95.7-8 4 1.1.6 8-4z" fill="#e5e5e5"/><path d="m57 3.5 1-.5 192 96-1.1.5z" opacity=".15"/><path d="m103.5 52.3-8-4 1.1-.6 8 4z" fill="#e5e5e5"/><path d="m144.6 71.7 8 4-1.2.6-8-4z" fill="#e5e5e5"/><path d="m112.6 55.7 8 4-1.1.6-8-4z" fill="#e5e5e5"/><path d="m128.6 63.7 8 4-1.1.6-8-4z" fill="#e5e5e5"/></svg>