<?xml version="1.0" encoding="UTF-8" standalone="no"?>
<svg
   xmlns:dc="http://purl.org/dc/elements/1.1/"
   xmlns:cc="http://creativecommons.org/ns#"
   xmlns:rdf="http://www.w3.org/1999/02/22-rdf-syntax-ns#"
   xmlns:svg="http://www.w3.org/2000/svg"
   xmlns="http://www.w3.org/2000/svg"
   xmlns:sodipodi="http://sodipodi.sourceforge.net/DTD/sodipodi-0.dtd"
   xmlns:inkscape="http://www.inkscape.org/namespaces/inkscape"
   enable-background="new 0 0 160 320"
   viewBox="0 0 15.886295 25.934959"
   version="1.1"
   id="svg1264"
   sodipodi:docname="city--people06.svg"
   width="15.886295"
   height="25.934959"
   inkscape:version="0.92.2 (5c3e80d, 2017-08-06)">
  <metadata
     id="metadata1270">
    <rdf:RDF>
      <cc:Work
         rdf:about="">
        <dc:format>image/svg+xml</dc:format>
        <dc:type
           rdf:resource="http://purl.org/dc/dcmitype/StillImage" />
        <dc:title></dc:title>
      </cc:Work>
    </rdf:RDF>
  </metadata>
  <defs
     id="defs1268" />
  <sodipodi:namedview
     pagecolor="#ffffff"
     bordercolor="#666666"
     borderopacity="1"
     objecttolerance="10"
     gridtolerance="10"
     guidetolerance="10"
     inkscape:pageopacity="0"
     inkscape:pageshadow="2"
     inkscape:window-width="880"
     inkscape:window-height="480"
     id="namedview1266"
     showgrid="false"
     fit-margin-top="0"
     fit-margin-left="0"
     fit-margin-right="0"
     fit-margin-bottom="0"
     inkscape:zoom="0.959375"
     inkscape:cx="12.823398"
     inkscape:cy="38.556223"
     inkscape:window-x="0"
     inkscape:window-y="0"
     inkscape:window-maximized="1"
     inkscape:current-layer="svg1264" />
  <g
     id="g1336"
     transform="matrix(0.1,0,0,0.1,-0.09,-5.5913945)">
    <path
       id="path1136"
       d="m 101.2,67.5 c -0.6,1.9 -0.5,9.7 -1.2,14 -0.8,5.2 -7.1,24 2.1,18.1 9.2,-5.9 7,-33.5 3.1,-33.7 -3,-0.3 -3.4,-0.3 -4,1.6 z"
       inkscape:connector-curvature="0"
       style="fill:#762c07" />
    <path
       id="path1138"
       d="m 92.3,238.8 c -11.8,7.6 -12.4,14.4 0,21 13.5,7.2 22.4,3.3 32.9,-2.7 10.5,-6 11.8,-13.4 -3.6,-19.6 -12.6,-4.9 -20.5,-4.4 -29.3,1.3 z"
       inkscape:connector-curvature="0"
       style="opacity:0.2" />
    <path
       id="path1140"
       d="m 96.3,114.8 c 0,0 -3.2,10.8 -5.9,19.1 -2.7,8.3 -4.4,13.8 -5.3,15.9 -0.9,2.1 -1.3,5.7 -0.8,7.3 0.5,1.6 2.3,5 3,5.7 1.7,1.6 4.4,1.2 4.8,0.8 0.4,-0.5 0.4,-2.2 -0.3,-2.9 -0.7,-0.7 -2.6,-3 -1.4,-6 1.2,-3 1,-4.2 1,-6 0,-1.5 -0.5,-1.7 0.7,-4.1 1.2,-2.4 6.9,-14.5 7.5,-16.2 0.5,-1.7 -3.3,-13.6 -3.3,-13.6 z"
       inkscape:connector-curvature="0"
       style="fill:#fbd7c7" />
    <path
       id="path1142"
       d="m 110.2,87.3 c 0,0 -9.1,-4 -12.3,0.3 -3.1,4.3 -1.7,11 -1.7,11 0,0 -5.4,6.1 -5.4,9.4 0,3.3 5.1,6.5 5.1,6.5 0,0 0.6,15.8 -0.3,22.3 -0.9,6.5 -3.8,23.3 -3.1,33.9 0.7,10.6 1.6,25 1.9,29.2 0.3,4.1 2.2,10 3,14.8 0.9,4.8 4.1,13.2 0.9,19.6 -3.2,6.5 -6.1,9.3 -7.4,10.5 -1.3,1.2 0.2,5.2 3,4.5 2.8,-0.7 7.2,-7.1 9.9,-8.1 2.7,-1.1 7.2,-4 6,-7.7 -1.2,-3.7 -1.7,-2.2 -2,-5.3 -0.3,-3.1 2.2,-16.7 1.3,-22.8 -0.9,-6.1 -3.2,-7.8 -3.6,-8.8 -0.4,-1.1 5.7,-29.5 5.7,-29.5 0,0 1.2,27.3 1.1,30.2 -0.1,2.9 2.1,17.7 2.7,24.6 0.6,6.9 1,18.8 -2,22.9 -2.9,4.1 -8,10.3 -6,11.7 2,1.4 8.3,2.7 9.8,-0.9 1.5,-3.6 5.3,-11.1 6.7,-13.1 1.4,-2 1.9,-3.1 1,-5 -0.9,-1.9 -1.5,-5 -0.5,-10.3 1,-5.3 4.1,-14.7 3.3,-19.7 -0.8,-5 -3.2,-8.1 -2.9,-11.7 0.3,-3.5 8.1,-24.8 6.6,-39.7 -1.6,-14.8 -9,-17.5 -10.3,-23.5 -1.3,-6 3,-13.9 5.2,-18.2 2.2,-4.2 5.3,-11.6 2.6,-14.2 -2.7,-2.7 -5.9,-4.4 -7.1,-6.4 -1.2,-2 -2.5,-8.2 -2.5,-8.2 z"
       inkscape:connector-curvature="0"
       style="fill:#fbd7c7" />
    <path
       id="path1144"
       d="m 92.9,242.9 c 0,0 -4.9,1.7 -5.9,3.9 -0.8,1.8 -0.5,3.9 1.2,5 1.7,1.1 5.2,1.3 8.2,-0.4 2.9,-1.7 6.8,-8.4 7.5,-8.7 0.7,-0.3 0.2,3.7 0.2,3.7 l 2.1,1.1 2.3,-0.9 c 0,0 -0.2,-4.5 0.7,-6 0.9,-1.6 2.6,-3.9 2,-6.9 -0.7,-3 -2.6,-3.3 -2.6,-3.3 0,0 0,3.5 -4,7.3 -3.8,3.6 -5.9,9.6 -9.2,9.3 -4.6,-0.7 -2.5,-4.1 -2.5,-4.1 z"
       inkscape:connector-curvature="0"
       style="fill:#cc291f" />
    <path
       id="path1146"
       d="m 109.7,249.7 c 0,0 -4.6,3.5 -4.9,5.7 -0.3,2.2 -0.2,3.7 2.9,4.7 3.1,1 7.1,-0.2 9,-1.8 1.8,-1.6 4.4,-5.8 4.4,-5.8 l 2,1.1 2.3,-1.1 c 0,0 -0.3,-2.7 0.4,-5.1 0.7,-2.4 1.4,-4.4 1.4,-7.4 0,-3 -2.8,-3.3 -2.8,-3.3 0,0 1.7,1.6 -0.8,5.1 -2.5,3.5 -4.4,11.3 -8.1,11.5 -7,0.5 -5.8,-3.6 -5.8,-3.6 z"
       inkscape:connector-curvature="0"
       style="fill:#cc291f" />
    <path
       id="path1148"
       d="m 128.2,143.4 c -2.3,-3.6 -4.4,-5.6 -5.1,-6.4 -4.4,-6.7 1.9,-20.2 3,-22.4 2.2,-4.2 5.3,-11.6 2.6,-14.2 -2.7,-2.7 -5.9,-4.4 -7.1,-6.4 -1.2,-2 -2.5,-8.2 -2.5,-8.2 l -8.9,1.6 c 0,0 -3.6,-1.6 -7,-1.7 -2.2,2.1 -4.9,9.8 -7.4,12.7 -2.5,2.8 -5.4,5.4 -5.4,9.6 0,3.3 4.3,6.6 4.8,7.5 0.3,0.6 2.4,6 2.3,12.3 0,2.9 -6.2,26.5 -7.1,30 -1.9,6.8 -6.1,18 -5.6,19 2.1,4.2 12.6,3.2 17.4,7.6 4.8,4.4 17.8,3.7 24,1.6 6.2,-2.1 9.4,-5.8 9.2,-6.5 -4.8,-18.8 -1.8,-27.7 -7.2,-36.1 z"
       inkscape:connector-curvature="0"
       style="fill:#262626" />
    <path
       id="path1150"
       d="m 105.4,86.5 c 0,0 -8.9,14.8 -2.4,16.5 6.3,1.7 16,-8.7 16,-8.7 l -7.8,-8.7 z"
       inkscape:connector-curvature="0"
       style="fill:#fbd7c7" />
    <path
       id="path1152"
       d="m 107.7,87.6 c 0,0 -4.3,0.7 -4.9,-0.9 -0.7,-1.7 -4.4,-15.5 2.4,-24.1 6.8,-8.5 20.5,-3.1 20.5,6 0,8.1 -3.2,10.5 -4.7,14.5 -0.9,2.5 -1.6,5.8 -0.1,8.4 1.5,2.6 2.7,4 2.7,4 0,0 -7.6,4.6 -13.3,3.2 -5.7,-1.4 -0.2,-4.2 -1,-6.6 -0.7,-2.2 -1.6,-4.5 -1.6,-4.5 z"
       inkscape:connector-curvature="0"
       style="fill:#fbd7c7" />
    <path
       id="path1154"
       d="m 90.5,108.7 c 3.1,5.9 12.5,10.5 26.6,7.4 -0.9,2.3 -21.1,7.5 -26.6,-7.4 z"
       inkscape:connector-curvature="0"
       style="opacity:0.15" />
    <path
       id="path1156"
       d="m 118.5,107.4 c -1.1,-2.9 -0.7,-10.2 5.3,-10.5 6,-0.3 6.7,5.7 7.2,13.6 0.5,7.9 3.5,20.7 3.7,23.3 0.2,2.6 -1.5,9.7 -5.6,16 -4.1,6.3 -6.9,11.4 -7.1,12.3 -0.2,1 -1.4,4.9 -3.1,6.1 -0.7,0.5 -1.5,1.2 -1.9,2.5 -0.4,1.3 0.5,2.4 0.7,2.7 0.3,0.7 -0.2,1.5 -1.4,2.2 -1.3,0.8 -3.2,-0.5 -4.2,-1.3 -0.7,-0.5 -2.5,-2.1 -2,-4.3 0.4,-1.6 1.7,-6.6 3.7,-7.8 2,-1.2 3.9,-2.7 4.6,-4.1 0.7,-1.4 2.2,-11.9 4.8,-17.2 1.4,-2.9 3.1,-4.8 3.1,-5.9 -0.1,-0.9 -6.7,-24.7 -7.8,-27.6 z"
       inkscape:connector-curvature="0"
       style="fill:#fbd7c7" />
    <path
       id="path1158"
       d="m 101.2,67.5 c 0,0 3.5,-11.5 16.4,-9.1 8.1,1.5 10.4,10.5 9.6,16.7 -0.7,6.2 -3.3,9.9 -2.1,12.9 2.3,5.6 1,9.4 -1.6,12.7 -4.3,5.5 -13.1,8.2 -12.1,-2.9 0.7,-8.6 -5.1,-12.4 -3.1,-21.5 1.2,-5.7 -1.1,-8.2 -3.6,-7.7 -0.8,-1.9 -1.8,-2.6 -3.5,-1.1 z"
       inkscape:connector-curvature="0"
       style="fill:#762c07" />
    <path
       id="path1160"
       d="m 19.4,262.3 c -17.2,-9.6 -4.2,-17 11.8,-24.6 17.8,-8.5 24.2,-10.6 40.5,-1.6 13.9,7.6 1.6,14.9 -14.6,22.5 -18.5,8.5 -25.6,10.5 -37.7,3.7 z"
       inkscape:connector-curvature="0"
       style="opacity:0.2" />
    <path
       id="path1162"
       d="m 60.1,233.9 c 3.4,2.5 6.8,4 9.8,5.6 3,1.6 4.5,3.1 4.1,4.5 -0.3,1.5 -3,3.2 -7.6,3 -4.6,-0.2 -12,-4.4 -13.4,-4.5 -1.4,-0.1 -1.1,0.8 -2.1,0.8 -1,0 -6.4,-1 -7,-1.7 -0.6,-0.7 0.1,-5.7 0.1,-5.7 z"
       inkscape:connector-curvature="0"
       style="fill:#262626" />
    <path
       id="path1164"
       d="m 43.9,241.6 c -0.3,-0.4 -0.3,-1.8 -0.2,-3.1 1.3,1.2 3.5,1.9 5.7,2 2.6,0.1 5.7,0.6 9.3,2.9 3.6,2.3 16,4.2 14.6,-1.4 0.6,0.7 0.9,1.4 0.7,2.1 -0.3,1.5 -3,3.2 -7.6,3 -4.6,-0.2 -12,-4.4 -13.4,-4.5 -1.4,-0.1 -1.1,0.8 -2.1,0.8 -1,0 -6.4,-1.1 -7,-1.8 z"
       inkscape:connector-curvature="0"
       style="opacity:0.5" />
    <path
       id="path1166"
       d="m 57.9,155.3 c 0.9,6.6 1.3,29.8 0.4,40.3 -0.8,10.6 -0.7,25.9 0.1,31.2 0.6,3.9 2.5,6 2,7.4 -0.5,1.4 -5,4.6 -10.2,5.2 -5.2,0.6 -7.2,-0.2 -7.9,-2.2 -0.6,-2 -2.8,-23.5 -3.5,-37 -0.6,-12 -1.7,-45.1 -1.7,-45.1 h 20.8 z"
       inkscape:connector-curvature="0"
       style="fill:#656565" />
    <path
       id="path1168"
       d="m 57.9,155.3 c 0.9,6.6 1.3,29.8 0.4,40.3 -0.8,10.6 -0.7,25.9 0.1,31.2 0.6,3.9 2.5,6 2,7.4 -0.5,1.4 -5,4.6 -10.2,5.2 -5.2,0.6 -7.2,-0.2 -7.9,-2.2 -0.6,-2 -2.8,-23.5 -3.5,-37 -0.6,-12 -1.7,-45.1 -1.7,-45.1 h 20.8 z"
       inkscape:connector-curvature="0"
       style="opacity:0.3" />
    <path
       id="path1170"
       d="m 29.1,246 c 0.8,2.3 4.3,8 5,9.4 0.8,1.4 2.3,3.3 1.3,4.7 -1,1.5 -5.7,3.3 -10.4,1 -4.7,-2.2 -5.5,-7.7 -5.5,-7.7 h -0.8 c 0,0 -1,-2.3 -1,-3.9 0,-1.6 0.3,-2.6 0.3,-2.6 z"
       inkscape:connector-curvature="0"
       style="fill:#262626" />
    <path
       id="path1172"
       d="m 19.5,253.4 h -0.8 c 0,0 -1,-2.3 -1,-3.9 0,-1.6 0.3,-2.6 0.3,-2.6 h 0.1 c 0.1,0.2 0.1,0.4 0.1,0.6 0.2,1.3 2.5,8.3 3.8,10 3.4,4.4 12.6,5.4 13.5,0.3 0.3,0.8 0.4,1.6 -0.1,2.2 -1,1.5 -5.7,3.3 -10.4,1 -4.7,-2.1 -5.5,-7.6 -5.5,-7.6 z"
       inkscape:connector-curvature="0"
       style="opacity:0.5" />
    <path
       id="path1174"
       d="m 46,156 c -0.1,4.3 -4.5,9.3 -5.8,15.4 -1.3,6.1 -5.3,36.3 -6.3,45.2 -1.5,12.9 -2.8,31.7 -3.2,31.9 -0.4,0.1 -3.7,-1.9 -6.9,-0.2 -3.2,1.7 -6.8,1 -7.9,0.2 -1,-0.8 -0.6,-9.4 -0.2,-14.6 0.3,-5.1 1.9,-43.6 1.8,-48.8 -0.1,-5.2 -1.8,-19.3 -1.4,-22.6 0.4,-3.4 2.3,-7.3 2.3,-7.3 z"
       inkscape:connector-curvature="0"
       style="fill:#656565" />
    <path
       id="path1176"
       d="m 46,156 c -0.1,4.3 -4.5,9.3 -5.8,15.4 -1.3,6.1 -5.3,36.3 -6.3,45.2 -1.5,12.9 -2.8,31.7 -3.2,31.9 -0.4,0.1 -3.7,-1.9 -6.9,-0.2 -3.2,1.7 -6.8,1 -7.9,0.2 -1,-0.8 -0.6,-9.4 -0.2,-14.6 0.3,-5.1 1.9,-43.6 1.8,-48.8 -0.1,-5.2 -1.8,-19.3 -1.4,-22.6 0.4,-3.4 2.3,-7.3 2.3,-7.3 z"
       inkscape:connector-curvature="0"
       style="opacity:0.15" />
    <path
       id="path1178"
       d="m 56.2,108.8 c 2.5,4 5.1,10.3 6.6,14.5 1.5,4.2 5.4,11.7 5.7,12.7 0.2,0.9 0.1,4.6 -3.4,5.7 -3.5,1 -5.2,1.8 -5.8,0.9 -0.5,-0.8 -4.2,-5 -4.2,-5 z"
       inkscape:connector-curvature="0"
       style="fill:#656565" />
    <path
       id="path1180"
       d="m 56.2,108.8 c 2.5,4 5.1,10.3 6.6,14.5 1.5,4.2 5.4,11.7 5.7,12.7 0.2,0.9 0.1,4.6 -3.4,5.7 -3.5,1 -5.2,1.8 -5.8,0.9 -0.5,-0.8 -4.2,-5 -4.2,-5 z"
       inkscape:connector-curvature="0"
       style="opacity:0.15" />
    <path
       id="path1182"
       d="m 43.4,81 c 2,1.6 10.2,13.3 10.6,27.7 0.4,14.4 -3.2,21.1 -3.2,21.1 0,0 -10.9,-29.1 -16.9,-35.5 -6,-6.4 -5.6,-11.5 -5.6,-11.5 0,0 3.8,-2.6 7.9,-2.9 4.1,-0.3 7.2,1.1 7.2,1.1 z"
       inkscape:connector-curvature="0"
       style="fill:#ffffff" />
    <path
       id="path1184"
       d="m 43.7,91 -2.3,6.4 -6.4,-4.3 6.8,6 2.1,-7.8 1,-0.2 3.8,4.3 v -3.8 c 0,0.3 -0.3,1.9 -0.3,1.9 l -3.5,-3.4 z"
       inkscape:connector-curvature="0"
       style="opacity:0.2" />
    <path
       id="path1186"
       d="m 46.6,95.7 0.1,-3.8 -1.5,-1.6 -1.5,0.7 -1,2.7 2.3,2.3 c 0,0 2.1,18.1 2.3,20.4 0.2,2.3 3.1,13 3.1,13 0,0 4.5,-12.5 4.3,-12.7 -0.2,-0.2 -8.1,-21 -8.1,-21 z"
       inkscape:connector-curvature="0"
       style="fill:#cc291f" />
    <path
       id="path1188"
       d="m 10.4,164.3 c 0.3,1 0.2,2 2,3.2 1.7,1.3 3.1,3.6 3.5,5.2 0.4,1.6 1.7,3.5 1.9,4.7 0.2,1.2 -0.8,2 -1.8,1.1 -1,-0.8 -2.9,-4.5 -3.9,-4.8 -1,-0.3 -1.3,2.9 -1.4,4 -0.1,1 1.5,3 2.2,4 0.8,1 0.1,1.9 -1,1.6 -1.1,-0.3 -5.9,-2.9 -7.1,-7.9 -1.2,-5 -0.7,-12 -0.7,-12 z"
       inkscape:connector-curvature="0"
       style="fill:#fbd7c7" />
    <path
       id="path1190"
       d="m 12.6,163.5 0.1,2 c 0,0 -3.8,0.9 -6.9,0.6 -3.1,-0.3 -3.8,-1 -3.8,-1 l 0.3,-3 z"
       inkscape:connector-curvature="0"
       style="fill:#ffffff" />
    <path
       id="path1192"
       d="m 39.8,80.2 c 2.1,0.3 9.2,-2 13.2,4.1 4.1,6 4.7,12.6 4.9,18.3 0.2,5.7 1.2,43 1.2,49.5 0,6.6 -0.1,9.5 -3,10.4 -3.4,1.1 -5.9,-1.9 -6,-3.8 -0.1,-2 0.3,-30.7 0.3,-30.7 0,0 5.1,-12 1.8,-25.8 C 48.9,88.4 43.7,83.8 43.7,83.8 l -4.1,-3.5 z"
       inkscape:connector-curvature="0"
       style="fill:#656565" />
    <path
       id="path1194"
       d="m 29.5,81.8 c 0,0 -4,3.3 -6.2,5.1 -2.2,1.8 -12,10.5 -13,11.7 -1,1.2 -2.2,2.4 -2.2,5.7 0,3.3 -0.4,8.4 -1.7,11.9 -4.1,10.6 -4.3,15.2 -4.6,19.8 -0.3,4.6 -0.9,26.6 -0.9,26.6 0,0 1.3,1.2 6.4,1.8 5.1,0.6 6.4,-0.1 6.4,-0.1 0,0 1.5,-14.2 2.3,-19.3 1.3,-7.8 5,-16.1 5,-16.1 0,0 0.6,3.5 0.3,5.6 -0.3,2.1 -4.1,19.3 -4.9,22.1 -0.8,2.7 -1.7,6.1 -1.7,6.1 0,0 4.2,6.6 15.6,6.1 11.4,-0.4 18.2,-4 19.6,-11 1.4,-7 1.7,-24.5 -0.1,-34.3 C 48,113.7 40.1,97.9 34.9,92.1 29.7,86.3 29.5,81.8 29.5,81.8 Z"
       inkscape:connector-curvature="0"
       style="fill:#656565" />
    <path
       id="path1196"
       d="m 49.5,128 c 0,0 -3.5,-8.9 -8.9,-16.5 -3.8,-5.2 -7.8,-8.6 -7.8,-8.6 l 0.3,-3.4 -4,-1.5 -2.5,-13.7 -0.5,0.5 1.7,14.1 4.6,1 -1,3.5 c 0,0 5.4,4.7 9,9.2 3.8,4.8 9.1,15.4 9.1,15.4 z"
       inkscape:connector-curvature="0"
       style="opacity:0.2" />
    <path
       id="path1198"
       d="m 45.3,60.1 c 3.8,2.8 4,10.3 3.9,15.4 -0.1,5.1 -0.7,9.3 -1.5,9.7 -0.8,0.4 -2.4,0.6 -2.4,0.6 0,0 0.1,4.9 -1.1,5.1 -1.2,0.3 -7.8,-2.8 -10.9,-6 -3.1,-3.1 -3.5,-3.8 -3.5,-3.8 0,0 -4.3,-7.9 -3.6,-14.1 0.7,-6.2 8.4,-14.6 19.1,-6.9 z"
       inkscape:connector-curvature="0"
       style="fill:#fbd7c7" />
    <path
       id="path1200"
       d="m 48.5,63.2 c 0.6,1 -1.5,0.8 -4.5,5.4 -3.1,4.6 -6.6,2.6 -7.6,2.6 -0.3,2.5 -2.4,2.1 -4.3,4.3 0,0 -0.7,-2.5 -2.1,-2.6 -1.4,-0.1 -0.9,4.2 -0.9,4.2 0,0 -0.2,1.7 -1.2,2 -1,0.3 -4.7,-8.8 -2.8,-14.7 C 28,55 41.6,51.8 48.5,63.2 Z"
       inkscape:connector-curvature="0"
       style="fill:#762c07" />
    <path
       id="path1202"
       d="m 67.6,136.4 c -0.5,-0.5 -3.6,-0.4 -5.3,1.3 -1.7,1.7 -2.2,3.6 -1.9,4.1 0.3,0.5 2.4,0.2 4.9,-1.5 2.4,-1.7 2.8,-3.3 2.3,-3.9 z"
       inkscape:connector-curvature="0"
       style="fill:#ffffff" />
    <path
       id="path1204"
       d="m 67,136.8 c -1.2,-0.4 -3.1,0.1 -4.3,1.3 -1.2,1.1 -1.7,2.2 -1.6,3 0,0.8 1,2.7 1.2,3.6 0.2,0.8 2.7,4.2 3.5,5.3 0.7,1.2 1.6,1.7 1.8,3.5 0.2,1.8 0.8,2.7 2.1,2.8 1.3,0.1 6.1,-2.9 5.2,-7.2 -0.9,-4.2 -2.6,-6.7 -3.6,-8.1 -0.5,-0.7 -2.6,-1.8 -3.3,-2.3 -0.8,-0.6 -0.5,-1.8 -1,-1.9 z"
       inkscape:connector-curvature="0"
       style="fill:#fbd7c7" />
    <path
       id="path1206"
       d="m 29.8,141.3 c 0,0 -6.9,8.5 -9.2,11.7 -2.1,2.9 -3.9,6 -4.4,7.9 -0.5,1.9 1.2,4.9 3.5,7.2 2.7,2.7 6.8,8.4 8.3,10.8 1.5,2.4 3.1,5.5 3.1,5.5 l 11.2,-6.3 c 0,0 -7.3,-6.6 -9.7,-10 -2.4,-3.4 -5,-6.7 -5,-6.7 l 6.8,-3.5 z"
       inkscape:connector-curvature="0"
       style="fill:#cc291f" />
    <path
       id="path1208"
       d="m 29.8,141.3 c 0,0 -6.9,8.5 -9.2,11.7 -2.1,2.9 -3.9,6 -4.4,7.9 -0.5,1.9 1.2,4.9 3.5,7.2 2.7,2.7 6.8,8.4 8.3,10.8 1.5,2.4 3.1,5.5 3.1,5.5 l 11.2,-6.3 c 0,0 -7.3,-6.6 -9.7,-10 -2.4,-3.4 -5,-6.7 -5,-6.7 l 6.8,-3.5 z"
       inkscape:connector-curvature="0"
       style="opacity:0.15" />
    <path
       id="path1210"
       d="m 53.8,145.1 c 2.9,1.3 12.3,6.7 13,10.6 0.7,3.9 -1.5,9.8 -2,13.8 -1.6,11.8 0.9,20.5 0.9,20.5 0,0 -3.6,2.1 -5.4,2.1 -1.8,0 -6.5,-47 -6.5,-47 z"
       inkscape:connector-curvature="0"
       style="fill:#cc291f" />
    <path
       id="path1212"
       d="m 33.9,291.9 c -9.2,5.6 -9.9,12.4 2,18.7 13,7 20.7,5.5 30.8,-0.4 8.9,-5.1 6.9,-12.1 -8.1,-18.1 -12.1,-4.8 -18.2,-4.2 -24.7,-0.2 z"
       inkscape:connector-curvature="0"
       style="opacity:0.2" />
    <path
       id="path1214"
       d="m 35.6,181.9 c -2.4,3.1 -11.4,14.1 -8.8,29.7 2.6,15.6 7,23.9 6.3,27.6 -0.8,3.7 -3.6,10.7 -2.9,18.5 0.8,9.6 3.6,19.5 3.8,22.7 0.2,3.2 1.3,6.2 0.4,8.7 -0.9,2.5 -3,4.3 -0.9,6 1.8,1.4 1,-0.6 10.1,2.7 12.1,4.5 9.6,-1.8 3.6,-2.9 -2.1,-0.4 -4.1,-4.7 -4.7,-7.6 -0.3,-1.2 -1.2,-15.7 -0.4,-22.3 0.8,-6.6 0.9,-16.9 0.8,-19.9 -0.1,-3 2.4,-14.3 3.3,-19.8 1.4,-8.4 4,-38.1 4,-38.1 z"
       inkscape:connector-curvature="0"
       style="fill:#fbd7c7" />
    <path
       id="path1216"
       d="m 33.8,290.2 c 0,0 -2.3,2.5 -2.2,4.8 0.1,2.3 1.8,5.6 1.8,6.9 0,1.3 0,3.2 0,3.2 l 1.7,0.9 1.6,-0.8 c 0,0 -0.7,-5.3 0.5,-6.1 1.2,-0.8 4.7,1.9 7.2,2.5 2.4,0.6 8.2,-0.1 10.3,-0.9 2.2,-0.9 0.4,-3.6 -1.5,-4.7 -2.6,-1.4 -6.6,-1.1 -6.6,-1.1 0,0 1.3,0.4 2.8,1.9 2.7,2.7 -4.7,3.2 -11.5,-2.6 -2.7,-2.4 -4.1,-4 -4.1,-4 z"
       inkscape:connector-curvature="0"
       style="fill:#656565" />
    <path
       id="path1218"
       d="m 44,186.2 c 0,0 -5.3,12.7 -5.3,18.9 0,6.2 4.1,8.4 4.8,10.4 0.8,2 1,8.4 2.9,16 1.9,7.6 4.2,12.4 2,17.9 -3.5,8.7 -2.9,16.3 -1.8,26.9 1,10.6 0.2,16.6 -0.1,18.4 -0.4,2 -3.5,3 -1.9,5.4 2.2,3.2 8.3,3.6 11,4.9 3.2,1.5 7.2,2 8.1,0.4 0.9,-1.5 0.2,-3.9 -3.4,-3.7 -3,0.1 -5.2,-5 -6.1,-7.2 -0.9,-2.2 1,-9.5 2.6,-21 1.6,-11.5 2.1,-24 2.9,-28.7 0.8,-4.7 3.1,-8.9 3.8,-30.2 0.7,-21.4 -1.6,-27.4 -1.6,-27.4 z"
       inkscape:connector-curvature="0"
       style="fill:#fbd7c7" />
    <path
       id="path1220"
       d="m 45.7,295.9 c 0,0 -2.3,2 -2.3,4.5 0,2.5 2.1,5.3 2.4,7.3 0.3,2 0.2,3.4 0.2,3.4 l 1.9,0.9 1.9,-0.8 c 0,0 -1.6,-5.6 0.1,-6.1 1.7,-0.5 6.7,3.6 9.8,3.6 3.1,0 7.2,-3.9 7.2,-5.3 0,-1.5 -3.4,-3 -5.4,-2.9 -2,0.1 -2.8,0.6 -2.8,0.6 0,0 3,1.3 3.5,2.3 0.4,1 -0.6,1.7 -1.8,2 -2.6,0.5 -5,-1.8 -9.2,-5.1 -3.9,-2.8 -5.5,-4.4 -5.5,-4.4 z"
       inkscape:connector-curvature="0"
       style="fill:#656565" />
    <path
       id="path1222"
       d="m 37.1,180.7 c 0,0 -9.2,9.7 -10.3,18.3 -2.2,17.6 -1.7,49.9 -1.7,49.9 0,0 7.8,7.7 20,7.3 9.7,-0.3 16.6,-3.3 16.6,-3.3 0,0 3,-35.7 2.9,-44.9 -0.1,-8.1 -2.5,-19.7 -2.5,-19.7 0,0 -13,-2 -17.8,-3.8 -4.8,-1.7 -7.2,-3.8 -7.2,-3.8 z"
       inkscape:connector-curvature="0"
       style="fill:#262626" />
    <path
       id="path1224"
       d="m 60.6,150.6 c 0,0 1.5,1.1 0.6,7.5 -0.9,6.4 -0.9,19.5 0.9,25.7 1.8,6.3 5.2,20 6.3,22.6 1.1,2.6 2.3,3.2 2.9,4.2 0.5,0.7 1.3,4.8 0.9,6.2 -0.5,1.4 -2.8,5 -4.7,5.6 -2,0.6 -4.3,0.6 -4.6,-0.3 -0.3,-0.9 1.7,-1.2 2,-2.6 0.3,-1.4 0.5,-6 0.5,-7.3 0,-1.3 -1.1,-4.6 -4.9,-10.7 -3.8,-6.2 -7,-11.3 -8.1,-18.1 -1,-6.8 -3.1,-26.4 -2.7,-30.1 0.6,-5.1 7.1,-7.7 10.9,-2.7 z"
       inkscape:connector-curvature="0"
       style="fill:#fbd7c7" />
    <path
       id="path1226"
       d="m 40.7,138.8 c -3.5,-0.2 -8.1,-0.7 -10.3,1.5 -2.2,2.2 -2.8,4.6 -1.6,9 1.2,4.4 8.1,21.8 7.5,25.4 -1.2,7.7 -5.9,13 -5.9,13 0,0 3.7,2.4 13.3,3.6 2.6,0.3 9.3,0.8 9.3,0.8 0,0 2.2,7.3 2.7,9.2 1.4,5.3 1.8,10.1 1.8,10.1 0,0 5.4,1.4 8.9,-0.9 2.2,-1.4 3.7,-3.2 3.4,-4 -0.3,-0.8 -3,-8.7 -4.3,-13.1 -1.3,-4.4 -4.8,-18.3 -4.7,-25 0.1,-6.7 3.5,-13.8 -0.1,-18.5 -3.6,-4.7 -12,-8.6 -12,-8.6 z"
       inkscape:connector-curvature="0"
       style="fill:#cc291f" />
    <path
       id="path1228"
       d="m 50.8,111.8 c 3.3,1.2 4.6,4 5.1,10 0.5,6 -0.2,9.7 -0.6,10.8 -0.5,1 -4.1,2.2 -5,3.8 -0.9,1.5 -1.6,4.7 -1.1,5.3 0.9,1.2 1.7,1.2 1.7,1.2 0,0 -8.3,2 -11.2,0.7 -2.9,-1.3 -2.8,-3 -2.3,-3.6 0.6,-0.7 1.6,-3.4 1.1,-5 -0.6,-1.5 -7.4,-7.7 -5.3,-14.9 2.7,-8.6 10.8,-10.7 17.6,-8.3 z"
       inkscape:connector-curvature="0"
       style="fill:#fbd7c7" />
    <path
       id="path1230"
       d="m 49.5,136.7 c 2.5,-1.4 4.8,-9.9 4.8,-9.9 0,0 0.6,1.1 0.7,4.2 1.6,-1.1 3.2,-13.2 -1.5,-17.3 -8.7,-7.7 -16.3,-4.9 -18.9,-2 2.7,-1 3.3,-0.5 3.4,-0.6 0,0 -8.3,2.4 -9.5,11.2 -1.1,7.9 2.4,12 4.1,13.7 0,-1.1 0.4,-3.3 0.4,-3.3 0,0 0.3,8 6.5,9.7 8.2,-2.5 9.2,-10.4 9.2,-10.4 0,0 1,1.4 0.8,4.7 z"
       inkscape:connector-curvature="0"
       style="fill:#825012" />
    <path
       id="path1232"
       d="m 104.4,193.7 c 0,0 0.5,4.7 2.1,7 1.6,2.3 3.4,3.5 3.4,3.5 l -0.1,-8.3 -1.1,-4.3 z"
       inkscape:connector-curvature="0"
       style="fill:#fbd7c7" />
    <path
       id="path1234"
       d="m 154.6,190.3 c 0,0 0.7,6.3 1.1,7.5 0.3,1.2 -0.7,3.3 -2.1,4 -3.1,1.6 -5.5,1.1 -6.3,0.8 -1.2,-0.4 2.6,-12.7 2.6,-12.7 z"
       inkscape:connector-curvature="0"
       style="fill:#fbd7c7" />
    <path
       id="path1236"
       d="m 148.8,127.9 c 0,0 7,1.1 9.7,5.3 2.7,4.2 0.2,14.2 0.4,20.6 0.2,6.4 0.2,17.5 -0.3,21.8 -0.5,4.3 -2.2,10.6 -2.2,12.4 0,1.8 0.4,3.3 -2.4,3.5 -2.8,0.2 -5.6,-0.6 -5.6,-0.6 0,0 -2.7,-23.8 -2.3,-28.9 0.5,-5 2.7,-34.1 2.7,-34.1 z"
       inkscape:connector-curvature="0"
       style="fill:#e5e5e5" />
    <path
       id="path1238"
       d="m 152.5,141.2 c 0,0 1.2,11.1 -0.1,16.2 -1.3,5 -2.5,9.9 -1.8,13.6 0.7,3.7 2,9.6 1.3,14.2 -0.7,4.6 -2.2,7 -2.2,7 l -5.9,-25.3 5.4,-16.4 z"
       inkscape:connector-curvature="0"
       style="opacity:0.2" />
    <g
       id="g1248"
       style="fill:#262626">
      <path
         id="path1240"
         d="m 144,291.5 c 3.1,3.1 9.5,10.6 2.8,14.2 -6.7,3.5 -13.8,3.5 -20.9,3.2 -7.1,-0.3 -25.2,-3.2 -28,-6.3 -2.8,-3.2 -3.9,-7.9 2.8,-9.1 6.7,-1.2 11,-5.9 20.1,-5.5 9.1,0.4 22.4,2.7 23.2,3.5 z"
         inkscape:connector-curvature="0"
         style="opacity:0.3" />
      <path
         id="path1242"
         d="m 144.6,295.5 c 0,0 -1.4,6.3 -5.7,6.3 -4.3,0 -18.7,-2.2 -18.7,-2.2 l 11.4,-8.7 z"
         inkscape:connector-curvature="0" />
      <path
         id="path1244"
         d="m 137.7,300.4 c 0,0 0.8,6.5 -2.4,6.9 -3.2,0.4 -14.4,-1 -17.6,-1 -3.2,0 -14.8,-2.4 -15.8,-5.1 -1,-2.7 0.4,-5.7 4.7,-5.7 4.3,0 12.2,0.2 13.6,-0.2 1.4,-0.4 17.5,5.1 17.5,5.1 z"
         inkscape:connector-curvature="0" />
      <path
         id="path1246"
         d="m 101.8,298.4 c 0,0.5 0.1,0.9 0.3,1.4 1,2.8 13,5.3 16.2,5.3 3.2,0 14.8,1.4 18.1,1 0.2,0 0.5,-0.1 0.7,-0.2 -0.4,0.7 -0.9,1.3 -1.8,1.4 -3.2,0.4 -14.4,-1 -17.6,-1 -3.2,0 -14.8,-2.4 -15.8,-5.1 -0.2,-1 -0.3,-1.9 -0.1,-2.8 z"
         inkscape:connector-curvature="0" />
    </g>
    <path
       id="path1250"
       d="m 149.7,189.5 c 0.8,2.6 -3.5,29.6 -3.5,32.7 0,3.1 -1.8,17 -1.4,21.5 0.4,4.5 1.4,27.2 1.8,34.5 0.4,7.3 -0.4,18.9 -2.4,20.1 -2,1.2 -8.7,1.2 -10.6,0.8 -2,-0.4 -3.9,-105.5 -3.9,-105.5 z"
       inkscape:connector-curvature="0"
       style="fill:#656565" />
    <path
       id="path1252"
       d="m 149.7,189.5 c 0.8,2.6 -3.5,29.6 -3.5,32.7 0,3.1 -1.8,17 -1.4,21.5 0.4,4.5 1.4,27.2 1.8,34.5 0.4,7.3 -0.4,18.9 -2.4,20.1 -2,1.2 -8.7,1.2 -10.6,0.8 -2,-0.4 -3.9,-105.5 -3.9,-105.5 z"
       inkscape:connector-curvature="0"
       style="opacity:0.2" />
    <path
       id="path1254"
       d="m 136.3,195.5 c 0,0 -1,11.8 -1,17.2 0,5.3 2.8,45 3.4,52.7 0.6,7.7 1.4,33.9 0.2,36.5 -1.2,2.6 -3.4,3.5 -7.4,2.6 -3.9,-1 -9.1,-2.4 -12.1,-6.1 -0.8,-1 -2.9,-2.7 -2.9,-2.7 0,0 3.2,-5 2.6,-10.5 -0.6,-5.5 -1.2,-15.4 -1,-19.7 0.2,-4.3 0.2,-10.6 -1.4,-16.4 -1.6,-5.8 -5.7,-17.9 -6.9,-35.9 -1.2,-17.9 -0.8,-21.5 -0.8,-21.5 z"
       inkscape:connector-curvature="0"
       style="fill:#656565" />
    <path
       id="path1256"
       d="m 141.5,126.4 c 0,0 -4.9,0.4 -4.9,-3.7 0,-4.1 0.1,-6.7 0.1,-6.7 0,0 2.6,-1.1 2.4,-4.7 -0.2,-3.6 -1.3,-2.8 -1.3,-2.8 l -19.4,1.8 c 0,0 -1.3,0.4 -0.3,3.9 0.4,1.3 1.4,3 1.4,3.5 0,0.5 1,3.5 1.7,3.9 0.7,0.4 1.9,4.8 1.9,6.3 0,1.5 -0.7,3.5 -0.7,3.5 0,0 8.1,0.1 12.8,-1 4.7,-1.1 6.3,-4 6.3,-4 z"
       inkscape:connector-curvature="0"
       style="fill:#fbd7c7" />
    <path
       id="path1258"
       d="m 136.3,120.4 c 0.4,-0.2 0.6,-4.3 0.9,-6.6 0.3,-2.3 2.8,-10 -1.2,-14.9 -3.9,-4.9 -15.2,-4.5 -17.3,2.4 -1.9,6.2 -0.7,10 1,13.5 1.7,3.5 3.5,5.2 4.1,6 0.6,0.7 6.2,1.5 7.5,1.4 1.2,0 3.6,-1.3 5,-1.8 z"
       inkscape:connector-curvature="0"
       style="fill:#825012" />
    <path
       id="path1260"
       d="m 122.6,129.4 c 0.6,-0.2 6,0.6 10.5,-0.7 4.4,-1.3 6.5,-3.3 6.5,-3.3 0,0 9.3,1.8 11.7,3 2.7,1.3 3.1,3.4 3.5,5.5 0.5,2.6 0.7,5.4 0.4,8.3 -0.9,9.1 -4.1,11.7 -5,14 -0.9,2.4 -2.9,10.9 -1.5,17.9 1.4,7 2,15.4 1.8,17.6 -0.2,2.2 -2.4,7.7 -14.7,8.3 -14.5,0.7 -26.8,-4.6 -26.8,-4.6 v -1.1 c 0,0 -0.7,1.3 -2.6,1.2 -1.9,-0.1 -4,-2.3 -4,-3 0,-0.7 -0.4,-7.8 -0.7,-9.4 -0.3,-1.6 -1.2,-2.5 0,-6.6 1.2,-4.1 3.8,-17.8 4.5,-24.4 0.7,-6.5 0.9,-8.8 4.1,-12.6 3.3,-3.7 12.3,-10.1 12.3,-10.1 z"
       inkscape:connector-curvature="0"
       style="fill:#e5e5e5" />
    <path
       id="path1262"
       d="m 109,194.4 c 0,0 2.1,-3.1 2.4,-5.1 0.3,-2 1,-9.3 1.6,-10.9 0.6,-1.7 0.8,-4.8 1.9,-7.1 1.1,-2.3 7.4,-16.2 7.4,-16.2 0,0 -0.9,6.4 -3,11.3 -0.8,1.9 -2.5,3.9 -2.5,9.6 0,5.6 -2.8,11.4 -3.4,12.7 -1.6,3.4 -1.5,7 -1.5,8 -1.8,-0.6 -2.9,-1.1 -2.9,-1.1 z"
       inkscape:connector-curvature="0"
       style="opacity:0.2" />
  </g>
</svg>
