<svg enable-background="new 0 0 160 240" viewBox="0 0 160 240" xmlns="http://www.w3.org/2000/svg"><path d="m127.6 220.9c17.2-9.6 4.2-17-11.8-24.6-17.8-8.5-24.2-10.6-40.5-1.6-13.9 7.6-1.6 14.9 14.6 22.5 18.5 8.6 25.6 10.6 37.7 3.7z" opacity=".2"/><path d="m86.9 192.6c-3.4 2.5-6.8 4-9.8 5.6s-4.5 3.1-4.1 4.5c.3 1.5 3 3.2 7.6 3s12-4.4 13.4-4.5 1.1.8 2.1.8 6.4-1 7-1.7-.1-5.7-.1-5.7z" fill="#262626"/><path d="m103.1 200.3c.3-.4.3-1.8.2-3.1-1.3 1.2-3.5 1.9-5.7 2-2.6.1-5.7.6-9.3 2.9s-16 4.2-14.6-1.4c-.6.7-.9 1.4-.7 2.1.3 1.5 3 3.2 7.6 3s12-4.4 13.4-4.5 1.1.8 2.1.8c1-.1 6.4-1.1 7-1.8z" opacity=".5"/><path d="m89.1 114c-.9 6.6-1.3 29.8-.4 40.3.8 10.6.7 25.9-.1 31.2-.6 3.9-2.5 6-2 7.4.5 1.5 5 4.6 10.2 5.2 5.1.6 7.2-.2 7.9-2.2.6-2 2.8-23.5 3.5-37 .6-12 1.7-45.1 1.7-45.1h-20.8z" fill="#656565"/><path d="m89.1 114c-.9 6.6-1.3 29.8-.4 40.3.8 10.6.7 25.9-.1 31.2-.6 3.9-2.5 6-2 7.4.5 1.5 5 4.6 10.2 5.2 5.1.6 7.2-.2 7.9-2.2.6-2 2.8-23.5 3.5-37 .6-12 1.7-45.1 1.7-45.1h-20.8z" opacity=".3"/><path d="m117.9 204.6c-.8 2.3-4.3 8-5 9.4-.8 1.4-2.3 3.3-1.3 4.7 1 1.5 5.7 3.3 10.4 1 4.7-2.2 5.5-7.7 5.5-7.7h.8s1-2.3 1-3.9-.3-2.6-.3-2.6z" fill="#262626"/><path d="m127.5 212.1h.8s1-2.3 1-3.9-.3-2.6-.3-2.6h-.1c-.1.2-.1.4-.1.6-.2 1.3-2.5 8.3-3.8 10-3.4 4.4-12.6 5.4-13.5.3-.3.8-.4 1.6.1 2.2 1 1.5 5.7 3.3 10.4 1 4.7-2.2 5.5-7.6 5.5-7.6z" opacity=".5"/><path d="m101 114.7c.1 4.3 4.5 9.3 5.8 15.4s5.3 36.3 6.3 45.2c1.5 12.9 2.8 31.7 3.2 31.9.4.1 3.7-1.9 6.9-.2s6.8 1 7.9.2c1-.8.6-9.4.2-14.6-.3-5.1-1.9-43.6-1.8-48.8s1.8-19.3 1.4-22.6c-.4-3.4-2.3-7.3-2.3-7.3z" fill="#656565"/><path d="m101 114.7c.1 4.3 4.5 9.3 5.8 15.4s5.3 36.3 6.3 45.2c1.5 12.9 2.8 31.7 3.2 31.9.4.1 3.7-1.9 6.9-.2s6.8 1 7.9.2c1-.8.6-9.4.2-14.6-.3-5.1-1.9-43.6-1.8-48.8s1.8-19.3 1.4-22.6c-.4-3.4-2.3-7.3-2.3-7.3z" opacity=".15"/><path d="m90.8 67.4c-2.5 4-5.1 10.3-6.6 14.5s-5.4 11.7-5.7 12.7c-.2.9-.1 4.6 3.4 5.7s5.2 1.8 5.8.9c.5-.8 4.2-5 4.2-5z" fill="#656565"/><path d="m90.8 67.4c-2.5 4-5.1 10.3-6.6 14.5s-5.4 11.7-5.7 12.7c-.2.9-.1 4.6 3.4 5.7s5.2 1.8 5.8.9c.5-.8 4.2-5 4.2-5z" opacity=".15"/><path d="m103.6 39.7c-2 1.6-10.2 13.3-10.6 27.7s3.2 21.1 3.2 21.1 10.9-29.1 16.9-35.5 5.6-11.5 5.6-11.5-3.8-2.6-7.9-2.9-7.2 1.1-7.2 1.1z" fill="#fff"/><path d="m103.3 49.7 2.3 6.4 6.4-4.3-6.8 6-2.2-7.8-1-.2-3.8 4.3v-3.8c0 .3.3 1.9.3 1.9l3.5-3.4z" opacity=".2"/><path d="m100.4 54.3-.1-3.8 1.5-1.6 1.5.7 1 2.7-2.3 2.3s-2.1 18.1-2.3 20.4-3.1 13-3.1 13-4.5-12.5-4.3-12.7c.1-.3 8.1-21 8.1-21z" fill="#28896d"/><path d="m136.6 122.9c-.3 1-.2 2-2 3.2-1.7 1.3-3.1 3.6-3.5 5.2s-1.7 3.5-1.9 4.7c-.1 1.2.8 2 1.8 1.1 1-.8 2.9-4.5 3.9-4.8s1.3 2.9 1.4 4c.1 1-1.5 3-2.2 4-.8 1-.1 1.9 1 1.6s5.9-2.9 7.1-7.9c1.3-5 .7-12 .7-12z" fill="#fbd7c7"/><path d="m134.4 122.2-.1 2s3.8.9 6.9.6 3.8-1 3.8-1l-.3-3z" fill="#fff"/><path d="m107.3 38.8c-2.1.3-9.2-2-13.2 4.1s-4.7 12.6-4.9 18.3-1.2 43-1.2 49.5c0 6.6.1 9.5 3 10.4 3.4 1.1 5.9-1.9 6-3.8.1-2-.3-30.7-.3-30.7s-5.1-12-1.8-25.8 8.5-18.4 8.5-18.4l4.1-3.5z" fill="#656565"/><path d="m117.5 40.4s4 3.3 6.2 5.1 11.9 10.5 12.9 11.7 2.2 2.4 2.2 5.7.4 8.4 1.7 11.9c4.1 10.6 4.3 15.2 4.6 19.8s.9 26.6.9 26.6-1.3 1.2-6.4 1.8c-5.2.6-6.4-.1-6.4-.1s-1.5-14.2-2.3-19.3c-1.3-7.8-5-16.1-5-16.1s-.6 3.5-.3 5.6 4.1 19.3 4.9 22.1c.8 2.7 1.7 6.1 1.7 6.1s-4.2 6.6-15.6 6.1-18.2-4-19.6-11-1.7-24.5.1-34.3 9.7-25.6 14.9-31.4 5.5-10.3 5.5-10.3z" fill="#656565"/><path d="m97.5 86.7s3.5-8.9 8.9-16.5c3.8-5.2 7.8-8.6 7.8-8.6l-.3-3.4 4.1-1.5 2.5-13.7.5.5-1.7 14.1-4.6 1 1 3.5s-5.4 4.7-9 9.2c-3.9 4.8-9.2 15.4-9.2 15.4z" opacity=".2"/><path d="m101.8 18.8c-3.8 2.8-4 10.3-3.9 15.4s.7 9.3 1.5 9.7 2.4.6 2.4.6-.1 4.9 1.1 5.1c1.2.3 7.8-2.8 10.9-6 3.1-3.1 3.5-3.8 3.5-3.8s4.3-7.9 3.6-14.1c-.9-6.2-8.5-14.6-19.1-6.9z" fill="#fbd7c7"/><path d="m98.5 21.9c-.6 1 1.5.8 4.5 5.4 3.1 4.6 6.6 2.6 7.6 2.6.3 2.5 2.4 2.1 4.3 4.3 0 0 .7-2.5 2.1-2.6s.9 4.2.9 4.2.2 1.7 1.2 2 4.7-8.8 2.8-14.7c-2.9-9.4-16.5-12.7-23.4-1.2z" fill="#762c07"/><path d="m79.4 95c.5-.5 3.6-.4 5.3 1.3s2.2 3.6 1.9 4.1c-.2.4-2.4.2-4.9-1.5-2.4-1.7-2.8-3.2-2.3-3.9z" fill="#fff"/><path d="m80 95.4c1.2-.4 3.1.1 4.3 1.3 1.2 1.1 1.7 2.2 1.6 3s-1 2.7-1.2 3.6c-.2.8-2.7 4.2-3.5 5.3-.7 1.2-1.6 1.7-1.8 3.5s-.8 2.7-2.1 2.8-6.1-2.9-5.2-7.2c.9-4.2 2.6-6.7 3.6-8.1.5-.7 2.6-1.8 3.3-2.3.8-.6.5-1.7 1-1.9z" fill="#fbd7c7"/><path d="m73.6 231c17.2-9.6 4.2-17-11.8-24.6-17.8-8.5-24.9-11.7-40.5-1.6-9.5 6.1-2.4 15.9 13.8 23.5 18.4 8.6 26.3 9.5 38.5 2.7z" opacity=".2"/><path d="m21.6 214.3c0 2.1-.1 5.9 3.8 5.9s5.9-2.9 6.2-3.8c.3-1-.1-3 1.3-3.8 1.3-.8 6.3-2.5 6.6-7.1.4-4.9-1.8-5-3.5-5s-5.9.3-5.9.3z" fill="#262626"/><path d="m38 200.8c1.2 1.5 1 3.9.1 5.7-1.9 3.6-6.4 3.1-6.8 5.2s-2.7 5.6-5.4 6c-2 .3-3.2-.3-4.2-1.2.2 1.8 1 3.6 3.8 3.6 4 0 5.9-2.9 6.2-3.8.3-1-.1-3 1.3-3.8 1.3-.8 6.3-2.5 6.6-7.1.2-3-.6-4.1-1.6-4.6z" opacity=".5"/><path d="m21 126.3c-.3 6 1.4 21.3 1.2 32.8s-2.8 43.8-2.5 47.6-.3 8.8 3.8 9.6c3.2.6 7.4-1.8 9-4.3s2.6-6.2 2.7-10.5 9.4-58.4 9.5-60.6-1-13.8-1-13.8z" fill="#06547a"/><path d="m21 126.3c-.3 6 1.4 21.3 1.2 32.8s-2.8 43.8-2.5 47.6-.3 8.8 3.8 9.6c3.2.6 7.4-1.8 9-4.3s2.6-6.2 2.7-10.5 9.4-58.4 9.5-60.6-1-13.8-1-13.8z" opacity=".3"/><path d="m49.9 28.4c2.5 1 4.3 3.8 4.7 10.3s0 11.6-1.5 12.3-2.5.4-2.5.4l1.1 7.1-16.8-4.7s.3-3.9-.6-6.4-3.5-11.2-.8-15.2c2.8-4 8.4-6.8 16.4-3.8z" fill="#fbd7c7"/><path d="m10.2 114.6s-.8 7-.5 8.7 3.5 9.6 5.3 10 3.6-1 3.4-2.3c-.2-1.2-2-3.3-2.1-5.4s-.1-5.3.8-5.7c.9-.5 2.9 2 3.8 3.1s2.5.7 2.5-.2c0-.8-1.9-2.6-2.3-4.1s-1.2-2.7-2.3-4c-1.1-1.4-1.5-2.3-1.5-2.3z" fill="#fbd7c7"/><path d="m9 112.5s-.6 3.1.5 3.8c.9.5 4.5 1.2 6.8.3 2-.8 3.1-1.5 3.2-2.2s-.8-2-.8-2z" fill="#fff"/><path d="m48.7 225v4.1c0 .8.1 2.9 4.3 2.6s6.4-1.2 6.6-1.5.7-1.1.7-1.1 7.2.6 12.4-1.6c5.4-2.3 8.6-7.3 4-9.4-2.8-1.3-4.4.3-8.6-.2-4.5-.5-7.1-2.7-7.1-2.7z" fill="#262626"/><path d="m72.8 227.4c5.4-2.3 8.6-7.3 4-9.4 4.8 4.5-4.5 8.7-8.6 9-2.7.2-8.6.5-12.4 1.3-3.1.6-6.2.4-7.1-.8v1.7c0 .8.1 2.9 4.3 2.6 4.3-.3 6.4-1.2 6.6-1.5s.7-1.1.7-1.1 7.3.3 12.5-1.8z" opacity=".5"/><path d="m38.1 129.4c-.4 6.2 2.3 19.4 3.4 26.8 1 7.4 2.9 38.7 3.7 46.5.6 6.3 2.7 23.4 3.9 24.3s9.6-.3 13.1-2.6c2.3-1.6 4.9-4.7 4.5-6.8s-3.1-4.1-3.5-14.9c-.3-10.8.9-30.2.6-44.9-.3-14.8-1-31.5-1-31.5z" fill="#06547a"/><path d="m38.1 129.4c-.4 6.2 2.3 19.4 3.4 26.8 1 7.4 2.9 38.7 3.7 46.5.6 6.3 2.7 23.4 3.9 24.3s9.6-.3 13.1-2.6c2.3-1.6 4.9-4.7 4.5-6.8s-3.1-4.1-3.5-14.9c-.3-10.8.9-30.2.6-44.9-.3-14.8-1-31.5-1-31.5z" opacity=".15"/><path d="m17.4 56.9c-1.2 1.4-2 5.5-2.3 7.6s-5.7 19.3-6.6 22.7-.8 9.1-.6 14.4c.1 5.4.1 11.7.2 12.7s4 2 6.9 1.6 4.6-1.2 4.9-3.6 1.8-13.9 3.8-18.1 4.9-11.7 4.9-11.7z" fill="#06547a"/><path d="m17.4 56.9c-1.2 1.4-2 5.5-2.3 7.6s-5.7 19.3-6.6 22.7-.8 9.1-.6 14.4c.1 5.4.1 11.7.2 12.7s4 2 6.9 1.6 4.6-1.2 4.9-3.6 1.8-13.9 3.8-18.1 4.9-11.7 4.9-11.7z" opacity=".15"/><path d="m70.5 104.3.1 8.8s4.1 1.1 7.1-.5 5.2-4.7 5.2-5.8-.3-2.4-1.3-2.4c-1.1 0-2 1.6-3.2.3-1.3-1.3-.4-2.2.6-2.9.9-.7 1.3-2.5-.8-2.3-1 .1-1.9.8-2.5 1.3-.9.8-1.8 1.8-3 2.8-1.4 1.1-2.2.7-2.2.7z" fill="#fbd7c7"/><path d="m35 50.3-3.6.8.1.9s-5.5-.7-9.4 1.4c-4 2.1-6.1 4-5.6 7.3.6 3.4 3.9 15.1 6.1 21.1s3.5 9.3 2.9 14.2-7.1 27.7-6.7 31.2 5.8 6.1 12.5 7.9c6.9 1.8 31.9 3.2 32.4-1.9s.5-18.9.5-18.9 7.1 1.3 8.4-.4 2.8-4.5 1.2-7.9c-1.5-3.4-2.1-3.5-3.1-3.8s-5.5-1-6.8-2.7c-1.3-1.6-.3-7.8-.3-15.7s.3-13.6-3.2-17.3-7.5-8.9-10.8-10.1c-4.4-1.4-15.3-1.1-14.6-6.1z" fill="#06547a"/><path d="m32.3 51s.1 5.2 7.4 6.1c6.9.9 19 8.5 19 8.5s-13-7.3-18.9-7.8c-8.8-.7-8.4-6.8-8.4-6.8z" opacity=".2"/><path d="m48.4 43.8c.1.8 1-1.3 1.7-3.1.7-1.9 2-4.3 2.7-7s1.3-1.7 1.4-2.9-5.7-8.9-16.3-5.2-8 16-7.1 19.4c1 3.4 4.1 7.3 7.1 7.3 3-.1 6.5-2.4 6.8-6.8s3.6-3.5 3.7-1.7z" fill="#825012"/></svg>