<?xml version="1.0" encoding="UTF-8" standalone="no"?>
<svg
   xmlns:dc="http://purl.org/dc/elements/1.1/"
   xmlns:cc="http://creativecommons.org/ns#"
   xmlns:rdf="http://www.w3.org/1999/02/22-rdf-syntax-ns#"
   xmlns:svg="http://www.w3.org/2000/svg"
   xmlns="http://www.w3.org/2000/svg"
   xmlns:sodipodi="http://sodipodi.sourceforge.net/DTD/sodipodi-0.dtd"
   xmlns:inkscape="http://www.inkscape.org/namespaces/inkscape"
   enable-background="new 0 0 160 240"
   viewBox="0 0 12.720883 21.04673"
   version="1.1"
   id="svg947"
   sodipodi:docname="city--people05.svg"
   width="12.720883"
   height="21.04673"
   inkscape:version="0.92.2 (5c3e80d, 2017-08-06)">
  <metadata
     id="metadata953">
    <rdf:RDF>
      <cc:Work
         rdf:about="">
        <dc:format>image/svg+xml</dc:format>
        <dc:type
           rdf:resource="http://purl.org/dc/dcmitype/StillImage" />
        <dc:title></dc:title>
      </cc:Work>
    </rdf:RDF>
  </metadata>
  <defs
     id="defs951" />
  <sodipodi:namedview
     pagecolor="#ffffff"
     bordercolor="#666666"
     borderopacity="1"
     objecttolerance="10"
     gridtolerance="10"
     guidetolerance="10"
     inkscape:pageopacity="0"
     inkscape:pageshadow="2"
     inkscape:window-width="880"
     inkscape:window-height="480"
     id="namedview949"
     showgrid="false"
     fit-margin-top="0"
     fit-margin-left="0"
     fit-margin-right="0"
     fit-margin-bottom="0"
     inkscape:zoom="1.2791667"
     inkscape:cx="14.26482"
     inkscape:cy="17.104153"
     inkscape:window-x="0"
     inkscape:window-y="0"
     inkscape:window-maximized="1"
     inkscape:current-layer="svg947" />
  <g
     id="g990"
     transform="matrix(0.1,0,0,0.1,-1.24,-2.1347139)">
    <path
       id="path877"
       d="m 105.4,33.5 c -0.6,1.9 -0.5,9.7 -1.2,14 -0.8,5.2 -7.1,24 2.1,18.1 9.2,-5.9 7,-33.5 3.1,-33.7 -3.1,-0.2 -3.4,-0.3 -4,1.6 z"
       inkscape:connector-curvature="0"
       style="fill:#762c07" />
    <path
       id="path879"
       d="m 96.4,204.8 c -11.8,7.6 -12.4,14.4 0,21 13.5,7.2 22.4,3.3 32.9,-2.7 10.5,-6 11.8,-13.4 -3.6,-19.6 -12.6,-4.9 -20.4,-4.4 -29.3,1.3 z"
       inkscape:connector-curvature="0"
       style="opacity:0.2" />
    <path
       id="path881"
       d="m 100.4,80.9 c 0,0 -3.2,10.8 -5.9,19.1 -2.7,8.3 -4,10.8 -6.2,10.6 -2.2,-0.2 -5.8,0.7 -7.1,1.7 -1.3,1 -4,3.9 -4.3,4.7 -0.9,2.2 0.3,4.6 0.9,4.8 0.6,0.2 2.2,-0.4 2.7,-1.2 0.5,-0.8 2,-3.5 5.1,-3.3 3.1,0.2 4.3,-0.4 6,-1.1 1.4,-0.5 3.5,-3.1 4.7,-5.6 1.2,-2.5 6.9,-14.5 7.5,-16.2 0.5,-1.6 -3.4,-13.5 -3.4,-13.5 z"
       inkscape:connector-curvature="0"
       style="fill:#fbd7c7" />
    <path
       id="path883"
       d="m 114.4,53.3 c 0,0 -9.1,-4 -12.3,0.3 -3.2,4.3 -1.7,11 -1.7,11 0,0 -5.4,6.1 -5.4,9.4 0,3.3 5.1,6.5 5.1,6.5 0,0 0.6,15.8 -0.3,22.3 -0.9,6.5 -3.8,23.3 -3.1,33.9 0.7,10.6 1.6,25 1.9,29.2 0.3,4.1 2.2,10 3,14.8 0.9,4.8 4.1,13.2 0.9,19.6 -3.2,6.4 -6.1,9.3 -7.4,10.5 -1.3,1.2 0.2,5.2 3,4.5 2.8,-0.7 7.2,-7.1 9.9,-8.1 2.7,-1 7.2,-4 6,-7.7 -1.2,-3.6 -1.7,-2.2 -2,-5.3 -0.3,-3.1 2.2,-16.7 1.3,-22.8 -0.9,-6.1 -3.2,-7.8 -3.6,-8.8 -0.4,-1.1 5.7,-29.5 5.7,-29.5 0,0 1.2,27.3 1.1,30.2 -0.1,2.9 2.1,17.7 2.7,24.6 0.7,7 1,18.8 -2,22.9 -2.9,4.1 -8,10.3 -6,11.7 2,1.4 8.3,2.7 9.8,-0.9 1.5,-3.6 5.3,-11.1 6.7,-13.1 1.4,-2 1.9,-3.1 1,-5 -0.9,-1.9 -1.5,-5 -0.5,-10.3 1,-5.3 4.1,-14.7 3.3,-19.7 -0.8,-5 -3.2,-8.1 -2.9,-11.7 0.3,-3.5 8.1,-24.8 6.6,-39.7 -1.5,-14.9 -9,-17.5 -10.3,-23.5 -1.3,-6 3,-13.9 5.2,-18.2 2.2,-4.2 5.3,-11.6 2.6,-14.2 -2.7,-2.7 -5.9,-4.4 -7.1,-6.4 -1.2,-2 -2.5,-8.2 -2.5,-8.2 z"
       inkscape:connector-curvature="0"
       style="fill:#fbd7c7" />
    <path
       id="path885"
       d="m 97,209 c 0,0 -4.9,1.7 -5.9,3.9 -0.8,1.8 -0.5,3.9 1.2,5 1.8,1 5.2,1.3 8.2,-0.4 2.9,-1.7 6.8,-8.4 7.5,-8.7 0.7,-0.3 0.2,3.7 0.2,3.7 l 2.1,1.1 2.3,-0.9 c 0,0 -0.2,-4.5 0.7,-6 0.9,-1.6 2.6,-3.9 2,-6.9 -0.7,-3 -2.6,-3.3 -2.6,-3.3 0,0 0,3.5 -4,7.3 -3.8,3.6 -5.9,9.6 -9.2,9.3 C 95,212.4 97,209 97,209 Z"
       inkscape:connector-curvature="0"
       style="fill:#cc291f" />
    <path
       id="path887"
       d="m 113.9,215.7 c 0,0 -4.6,3.5 -4.9,5.7 -0.3,2.2 -0.2,3.7 2.9,4.7 3.1,1 7.1,-0.2 9,-1.8 1.8,-1.6 4.4,-5.8 4.4,-5.8 l 2,1.1 2.3,-1.1 c 0,0 -0.3,-2.7 0.4,-5.1 0.7,-2.4 1.4,-4.4 1.4,-7.4 0,-3 -2.8,-3.3 -2.8,-3.3 0,0 1.7,1.6 -0.8,5.1 -2.5,3.5 -4.4,11.3 -8.1,11.5 -7,0.5 -5.8,-3.6 -5.8,-3.6 z"
       inkscape:connector-curvature="0"
       style="fill:#cc291f" />
    <path
       id="path889"
       d="m 132.4,109.4 c -2.3,-3.6 -4.4,-5.6 -5.1,-6.4 -4.4,-6.7 1.9,-20.2 3,-22.4 2.2,-4.2 5.3,-11.6 2.6,-14.2 -2.7,-2.6 -5.9,-4.4 -7.1,-6.4 -1.2,-2 -2.5,-8.2 -2.5,-8.2 l -8.9,1.6 c 0,0 -3.6,-1.6 -7,-1.7 -2.2,2.1 -4.9,9.8 -7.4,12.7 -2.5,2.8 -5.4,5.4 -5.4,9.6 0,3.3 4.3,6.6 4.8,7.5 0.3,0.6 2.4,6 2.3,12.3 0,2.9 -6.2,26.5 -7.1,30 -1.9,6.8 -6.1,18 -5.6,19 2.1,4.2 12.6,3.2 17.4,7.6 4.8,4.4 17.8,3.7 24,1.6 6.2,-2.1 9.4,-5.8 9.2,-6.5 -4.9,-18.8 -1.9,-27.7 -7.2,-36.1 z"
       inkscape:connector-curvature="0"
       style="fill:#262626" />
    <path
       id="path891"
       d="m 109.5,52.5 c 0,0 -8.9,14.8 -2.4,16.5 6.3,1.7 16,-8.7 16,-8.7 l -7.8,-8.7 z"
       inkscape:connector-curvature="0"
       style="fill:#fbd7c7" />
    <path
       id="path893"
       d="m 111.8,53.6 c 0,0 -4.3,0.7 -4.9,-0.9 -0.7,-1.7 -4.4,-15.5 2.4,-24.1 6.8,-8.5 20.5,-3.1 20.5,6 0,8.1 -3.2,10.5 -4.7,14.5 -0.9,2.5 -1.6,5.8 -0.1,8.4 1.5,2.7 2.7,4 2.7,4 0,0 -7.6,4.6 -13.3,3.2 -5.7,-1.4 -0.2,-4.2 -1,-6.6 -0.7,-2.1 -1.6,-4.5 -1.6,-4.5 z"
       inkscape:connector-curvature="0"
       style="fill:#fbd7c7" />
    <path
       id="path895"
       d="m 94.7,74.7 c 3.1,5.9 12.5,10.5 26.6,7.4 -0.9,2.3 -21.2,7.5 -26.6,-7.4 z"
       inkscape:connector-curvature="0"
       style="opacity:0.15" />
    <path
       id="path897"
       d="m 122.7,73.4 c -1.1,-2.9 -0.7,-10.2 5.3,-10.5 6,-0.3 6.7,5.7 7.2,13.6 0.5,7.9 3.5,20.7 3.7,23.3 0.2,2.6 -1.5,9.7 -5.6,16 -4.1,6.3 -6.9,11.4 -7.1,12.3 -0.2,1 -1.4,4.9 -3.1,6.1 -0.7,0.5 -1.5,1.2 -1.9,2.5 -0.4,1.3 0.5,2.4 0.7,2.7 0.3,0.7 -0.2,1.5 -1.4,2.2 -1.3,0.8 -3.2,-0.5 -4.2,-1.3 -0.7,-0.5 -2.5,-2.1 -2,-4.3 0.4,-1.6 1.7,-6.6 3.7,-7.8 2,-1.2 3.9,-2.7 4.6,-4.1 0.7,-1.4 2.2,-11.9 4.8,-17.2 1.4,-2.9 3.1,-4.8 3.1,-5.9 -0.2,-0.9 -6.8,-24.6 -7.8,-27.6 z"
       inkscape:connector-curvature="0"
       style="fill:#fbd7c7" />
    <path
       id="path899"
       d="m 105.4,33.5 c 0,0 3.5,-11.5 16.4,-9.1 8.1,1.5 10.4,10.5 9.6,16.7 -0.7,6.2 -3.3,9.9 -2.1,12.9 2.3,5.6 1,9.4 -1.6,12.7 -4.3,5.5 -13.1,8.2 -12.1,-2.9 0.7,-8.6 -5.1,-12.4 -3.1,-21.5 1.2,-5.7 -1.1,-8.2 -3.6,-7.7 C 108,32.7 107,32 105.4,33.5 Z"
       inkscape:connector-curvature="0"
       style="fill:#762c07" />
    <path
       id="path901"
       d="m 30.9,227.7 c -17.2,-9.6 -4.2,-17 11.8,-24.6 17.8,-8.5 24.2,-10.6 40.5,-1.6 13.9,7.6 1.6,14.9 -14.6,22.5 -18.5,8.6 -25.6,10.5 -37.7,3.7 z"
       inkscape:connector-curvature="0"
       style="opacity:0.2" />
    <path
       id="path903"
       d="m 71.6,199.3 c 3.4,2.5 6.8,4 9.8,5.6 3,1.6 4.5,3.1 4.1,4.5 -0.4,1.4 -3,3.2 -7.6,3 -4.6,-0.2 -12,-4.4 -13.4,-4.5 -1.4,-0.1 -1.1,0.8 -2.1,0.8 -1,0 -6.4,-1 -7,-1.7 -0.6,-0.7 0.1,-5.7 0.1,-5.7 z"
       inkscape:connector-curvature="0"
       style="fill:#656565" />
    <path
       id="path905"
       d="m 55.4,207 c -0.3,-0.4 -0.3,-1.8 -0.2,-3.1 1.3,1.2 3.5,1.9 5.7,2 2.6,0.1 5.7,0.6 9.3,2.9 3.6,2.3 16,4.2 14.6,-1.4 0.6,0.7 0.9,1.4 0.7,2.1 -0.3,1.5 -3,3.2 -7.6,3 -4.6,-0.2 -12,-4.4 -13.4,-4.5 -1.4,-0.1 -1.1,0.8 -2.1,0.8 -1,0 -6.4,-1.1 -7,-1.8 z"
       inkscape:connector-curvature="0"
       style="opacity:0.5" />
    <path
       id="path907"
       d="m 69.4,120.7 c 0.9,6.6 1.3,29.8 0.4,40.3 -0.8,10.6 -0.7,25.9 0.1,31.2 0.6,3.9 2.5,6 2,7.4 -0.5,1.5 -5,4.6 -10.2,5.2 -5.2,0.6 -7.2,-0.2 -7.9,-2.2 -0.6,-2 -2.8,-23.5 -3.5,-37 -0.6,-12 -1.7,-45.1 -1.7,-45.1 h 20.8 z"
       inkscape:connector-curvature="0"
       style="fill:#2d3134" />
    <path
       id="path909"
       d="m 69.4,120.7 c 0.9,6.6 1.3,29.8 0.4,40.3 -0.8,10.6 -0.7,25.9 0.1,31.2 0.6,3.9 2.5,6 2,7.4 -0.5,1.5 -5,4.6 -10.2,5.2 -5.2,0.6 -7.2,-0.2 -7.9,-2.2 -0.6,-2 -2.8,-23.5 -3.5,-37 -0.6,-12 -1.7,-45.1 -1.7,-45.1 h 20.8 z"
       inkscape:connector-curvature="0"
       style="opacity:0.3" />
    <path
       id="path911"
       d="m 40.6,211.4 c 0.8,2.3 4.3,8 5,9.4 0.8,1.4 2.3,3.3 1.3,4.7 -1,1.4 -5.7,3.3 -10.4,1 -4.7,-2.2 -5.5,-7.7 -5.5,-7.7 h -0.8 c 0,0 -1,-2.3 -1,-3.9 0,-1.6 0.3,-2.6 0.3,-2.6 z"
       inkscape:connector-curvature="0"
       style="fill:#656565" />
    <path
       id="path913"
       d="m 31,218.9 h -0.8 c 0,0 -1,-2.3 -1,-3.9 0,-1.6 0.3,-2.6 0.3,-2.6 h 0.1 c 0.1,0.2 0.1,0.4 0.1,0.6 0.2,1.3 2.5,8.3 3.8,10 3.4,4.4 12.6,5.4 13.5,0.3 0.3,0.8 0.4,1.6 -0.1,2.2 -1,1.5 -5.7,3.3 -10.4,1 -4.7,-2.2 -5.5,-7.6 -5.5,-7.6 z"
       inkscape:connector-curvature="0"
       style="opacity:0.5" />
    <path
       id="path915"
       d="m 57.5,121.5 c -0.1,4.3 -4.5,9.3 -5.8,15.4 -1.3,6.1 -5.3,36.3 -6.3,45.2 -1.5,12.9 -2.8,31.7 -3.2,31.9 -0.4,0.1 -3.7,-1.9 -6.9,-0.2 -3.2,1.7 -6.8,1 -7.9,0.2 -1,-0.8 -0.6,-9.4 -0.2,-14.6 0.3,-5.1 1.9,-43.6 1.8,-48.8 -0.1,-5.2 -1.8,-19.3 -1.4,-22.6 0.4,-3.4 2.3,-7.3 2.3,-7.3 z"
       inkscape:connector-curvature="0"
       style="fill:#2d3134" />
    <path
       id="path917"
       d="m 57.5,121.5 c -0.1,4.3 -4.5,9.3 -5.8,15.4 -1.3,6.1 -5.3,36.3 -6.3,45.2 -1.5,12.9 -2.8,31.7 -3.2,31.9 -0.4,0.1 -3.7,-1.9 -6.9,-0.2 -3.2,1.7 -6.8,1 -7.9,0.2 -1,-0.8 -0.6,-9.4 -0.2,-14.6 0.3,-5.1 1.9,-43.6 1.8,-48.8 -0.1,-5.2 -1.8,-19.3 -1.4,-22.6 0.4,-3.4 2.3,-7.3 2.3,-7.3 z"
       inkscape:connector-curvature="0"
       style="opacity:0.15" />
    <path
       id="path919"
       d="m 67.7,74.2 c 2.5,4 5.1,10.3 6.6,14.5 1.5,4.2 5.4,11.7 5.7,12.7 0.2,0.9 0.1,4.6 -3.4,5.7 -3.5,1 -5.2,1.8 -5.8,0.9 -0.5,-0.8 -4.2,-5 -4.2,-5 z"
       inkscape:connector-curvature="0"
       style="fill:#2d3134" />
    <path
       id="path921"
       d="m 67.7,74.2 c 2.5,4 5.1,10.3 6.6,14.5 1.5,4.2 5.4,11.7 5.7,12.7 0.2,0.9 0.1,4.6 -3.4,5.7 -3.5,1 -5.2,1.8 -5.8,0.9 -0.5,-0.8 -4.2,-5 -4.2,-5 z"
       inkscape:connector-curvature="0"
       style="opacity:0.15" />
    <path
       id="path923"
       d="m 54.9,46.4 c 2,1.6 10.2,13.3 10.6,27.7 0.4,14.4 -3.2,21.1 -3.2,21.1 0,0 -11,-29.2 -16.9,-35.6 -5.9,-6.4 -5.6,-11.5 -5.6,-11.5 0,0 3.8,-2.6 7.9,-2.9 4.1,-0.3 7.2,1.2 7.2,1.2 z"
       inkscape:connector-curvature="0"
       style="fill:#ffffff" />
    <path
       id="path925"
       d="m 55.2,56.4 -2.3,6.4 -6.4,-4.3 6.8,6 2.1,-7.8 1,-0.2 3.8,4.3 V 57 c 0,0.3 -0.3,1.9 -0.3,1.9 l -3.5,-3.4 z"
       inkscape:connector-curvature="0"
       style="opacity:0.2" />
    <path
       id="path927"
       d="m 58.1,61.1 0.1,-3.8 -1.5,-1.6 -1.5,0.7 -1,2.7 2.3,2.3 c 0,0 2.1,18.1 2.3,20.4 0.2,2.3 3.1,13 3.1,13 0,0 4.5,-12.5 4.3,-12.7 -0.2,-0.2 -8.1,-21 -8.1,-21 z"
       inkscape:connector-curvature="0"
       style="fill:#cc291f" />
    <path
       id="path929"
       d="m 21.9,129.7 c 0.3,1 0.2,2 2,3.2 1.8,1.2 3.1,3.6 3.5,5.2 0.4,1.6 1.7,3.5 1.9,4.7 0.2,1.2 -0.8,2 -1.8,1.1 -1,-0.9 -2.9,-4.5 -3.9,-4.8 -1,-0.3 -1.3,2.9 -1.4,4 -0.1,1 1.5,3 2.2,4 0.8,1 0.1,1.9 -1,1.6 -1.1,-0.3 -5.9,-2.9 -7.1,-7.9 -1.2,-5 -0.7,-12 -0.7,-12 z"
       inkscape:connector-curvature="0"
       style="fill:#fbd7c7" />
    <path
       id="path931"
       d="m 24.1,128.9 0.1,2 c 0,0 -3.8,0.9 -6.9,0.6 -3.1,-0.3 -3.8,-1 -3.8,-1 l 0.3,-3 z"
       inkscape:connector-curvature="0"
       style="fill:#ffffff" />
    <path
       id="path933"
       d="m 51.2,45.6 c 2.1,0.3 9.2,-2 13.2,4.1 4,6.1 4.7,12.6 4.9,18.3 0.2,5.7 1.2,43 1.2,49.5 0,6.5 -0.1,9.5 -3,10.4 -3.4,1.1 -5.9,-1.9 -6,-3.8 -0.1,-2 0.3,-30.7 0.3,-30.7 0,0 5.1,-12 1.8,-25.8 C 60.3,53.8 55.1,49.2 55.1,49.2 L 51,45.7 Z"
       inkscape:connector-curvature="0"
       style="fill:#2d3134" />
    <path
       id="path935"
       d="m 41,47.2 c 0,0 -4,3.3 -6.2,5.1 -2.3,1.8 -12,10.6 -13,11.7 -1,1.2 -2.2,2.4 -2.2,5.7 0,3.3 -0.4,8.4 -1.7,11.9 -4.1,10.6 -4.3,15.2 -4.6,19.8 -0.3,4.6 -0.9,26.6 -0.9,26.6 0,0 1.3,1.2 6.4,1.8 5.1,0.6 6.4,-0.1 6.4,-0.1 0,0 1.5,-14.2 2.3,-19.3 1.3,-7.8 5,-16.1 5,-16.1 0,0 0.6,3.5 0.3,5.6 -0.3,2.1 -4.1,19.3 -4.9,22.1 -0.8,2.8 -1.7,6.1 -1.7,6.1 0,0 4.2,6.6 15.6,6.1 11.4,-0.4 18.2,-4 19.6,-11 1.4,-7 1.7,-24.5 -0.1,-34.3 C 59.5,79.1 51.6,63.3 46.4,57.5 41.2,51.7 41,47.2 41,47.2 Z"
       inkscape:connector-curvature="0"
       style="fill:#2d3134" />
    <path
       id="path937"
       d="m 61,93.4 c 0,0 -3.5,-8.9 -8.9,-16.5 -3.8,-5.2 -7.8,-8.6 -7.8,-8.6 l 0.3,-3.4 -4.1,-1.5 -2.5,-13.7 -0.5,0.5 1.7,14.1 4.6,1 -1,3.5 c 0,0 5.4,4.7 9,9.2 3.9,4.9 9.2,15.4 9.2,15.4 z"
       inkscape:connector-curvature="0"
       style="opacity:0.2" />
    <path
       id="path939"
       d="m 56.7,25.5 c 3.8,2.8 4,10.3 3.9,15.4 -0.1,5.1 -0.7,9.3 -1.5,9.7 -0.8,0.4 -2.4,0.6 -2.4,0.6 0,0 0.1,4.9 -1.1,5.1 -1.2,0.3 -7.8,-2.8 -10.9,-6 -3.1,-3.1 -3.5,-3.8 -3.5,-3.8 0,0 -4.3,-7.9 -3.6,-14.1 0.7,-6.2 8.5,-14.6 19.1,-6.9 z"
       inkscape:connector-curvature="0"
       style="fill:#fbd7c7" />
    <path
       id="path941"
       d="m 60,28.6 c 0.6,1 -1.5,0.8 -4.5,5.4 -3.1,4.6 -6.6,2.6 -7.6,2.6 -0.3,2.5 -2.4,2.1 -4.3,4.3 0,0 -0.7,-2.5 -2.1,-2.6 -1.4,-0.1 -0.9,4.2 -0.9,4.2 0,0 -0.2,1.7 -1.2,2 -1,0.3 -4.7,-8.8 -2.8,-14.7 2.9,-9.3 16.5,-12.6 23.4,-1.2 z"
       inkscape:connector-curvature="0"
       style="fill:#762c07" />
    <path
       id="path943"
       d="m 79.1,101.8 c -0.5,-0.5 -3.6,-0.4 -5.3,1.3 -1.7,1.7 -2.2,3.6 -1.9,4.1 0.2,0.4 2.4,0.2 4.9,-1.5 2.5,-1.7 2.8,-3.3 2.3,-3.9 z"
       inkscape:connector-curvature="0"
       style="fill:#ffffff" />
    <path
       id="path945"
       d="m 78.5,102.2 c -1.2,-0.4 -3.1,0.1 -4.3,1.3 -1.2,1.1 -1.7,2.2 -1.6,3 0,0.8 1,2.7 1.2,3.6 0.2,0.8 2.7,4.2 3.5,5.3 0.7,1.2 1.6,1.7 1.8,3.5 0.2,1.8 0.8,2.7 2.1,2.8 1.3,0.1 6.1,-2.9 5.2,-7.2 -0.9,-4.2 -2.6,-6.7 -3.6,-8.1 -0.5,-0.7 -2.6,-1.8 -3.3,-2.3 -0.8,-0.6 -0.5,-1.7 -1,-1.9 z"
       inkscape:connector-curvature="0"
       style="fill:#fbd7c7" />
  </g>
</svg>
