<?xml version="1.0" encoding="UTF-8" standalone="no"?>
<svg
   xmlns:dc="http://purl.org/dc/elements/1.1/"
   xmlns:cc="http://creativecommons.org/ns#"
   xmlns:rdf="http://www.w3.org/1999/02/22-rdf-syntax-ns#"
   xmlns:svg="http://www.w3.org/2000/svg"
   xmlns="http://www.w3.org/2000/svg"
   xmlns:sodipodi="http://sodipodi.sourceforge.net/DTD/sodipodi-0.dtd"
   xmlns:inkscape="http://www.inkscape.org/namespaces/inkscape"
   enable-background="new 0 0 160 240"
   viewBox="0 0 14.267251 22.665302"
   version="1.1"
   id="svg389"
   sodipodi:docname="city--people02.svg"
   width="14.267251"
   height="22.665302"
   inkscape:version="0.92.2 (5c3e80d, 2017-08-06)">
  <metadata
     id="metadata395">
    <rdf:RDF>
      <cc:Work
         rdf:about="">
        <dc:format>image/svg+xml</dc:format>
        <dc:type
           rdf:resource="http://purl.org/dc/dcmitype/StillImage" />
        <dc:title></dc:title>
      </cc:Work>
    </rdf:RDF>
  </metadata>
  <defs
     id="defs393" />
  <sodipodi:namedview
     pagecolor="#ffffff"
     bordercolor="#666666"
     borderopacity="1"
     objecttolerance="10"
     gridtolerance="10"
     guidetolerance="10"
     inkscape:pageopacity="0"
     inkscape:pageshadow="2"
     inkscape:window-width="880"
     inkscape:window-height="480"
     id="namedview391"
     showgrid="false"
     fit-margin-top="0"
     fit-margin-left="0"
     fit-margin-right="0"
     fit-margin-bottom="0"
     inkscape:zoom="2.2208333"
     inkscape:cx="13.9282"
     inkscape:cy="13.751384"
     inkscape:window-x="0"
     inkscape:window-y="0"
     inkscape:window-maximized="1"
     inkscape:current-layer="svg389" />
  <g
     id="g432"
     transform="matrix(0.1,0,0,0.1,-0.41205771,-0.90922181)">
    <path
       id="path319"
       d="m 70.1,231.2 c 17.2,-9.6 4.2,-17 -11.8,-24.6 -17.8,-8.5 -24.9,-11.7 -40.5,-1.6 -9.5,6.1 -2.4,15.9 13.8,23.5 18.4,8.6 26.3,9.6 38.5,2.7 z"
       inkscape:connector-curvature="0"
       style="opacity:0.2" />
    <path
       id="path321"
       d="m 18.1,214.5 c 0,2.1 -0.1,5.9 3.8,5.9 3.9,0 5.9,-2.9 6.2,-3.8 0.3,-1 -0.1,-3 1.3,-3.8 1.3,-0.8 6.3,-2.5 6.6,-7.1 0.4,-4.9 -1.8,-5 -3.5,-5 -1.7,0 -5.9,0.3 -5.9,0.3 z"
       inkscape:connector-curvature="0"
       style="fill:#262626" />
    <path
       id="path323"
       d="m 34.5,201 c 1.2,1.5 1,3.9 0.1,5.7 -1.9,3.6 -6.4,3.1 -6.8,5.2 -0.4,2.1 -2.7,5.6 -5.4,6 -2,0.3 -3.2,-0.3 -4.2,-1.2 0.2,1.8 1,3.6 3.8,3.6 4,0 5.9,-2.9 6.2,-3.8 0.3,-1 -0.1,-3 1.3,-3.8 1.3,-0.8 6.3,-2.5 6.6,-7.1 0.2,-2.9 -0.6,-4.1 -1.6,-4.6 z"
       inkscape:connector-curvature="0"
       style="opacity:0.5" />
    <path
       id="path325"
       d="m 17.5,126.6 c -0.3,6 1.4,21.3 1.2,32.8 -0.2,11.5 -2.8,43.8 -2.5,47.6 0.3,3.8 -0.3,8.8 3.8,9.6 3.2,0.6 7.4,-1.8 9,-4.3 1.6,-2.5 2.6,-6.2 2.7,-10.5 0.1,-4.3 9.4,-58.4 9.5,-60.6 0.1,-2.2 -1,-13.8 -1,-13.8 z"
       inkscape:connector-curvature="0"
       style="fill:#656565" />
    <path
       id="path327"
       d="m 17.5,126.6 c -0.3,6 1.4,21.3 1.2,32.8 -0.2,11.5 -2.8,43.8 -2.5,47.6 0.3,3.8 -0.3,8.8 3.8,9.6 3.2,0.6 7.4,-1.8 9,-4.3 1.6,-2.5 2.6,-6.2 2.7,-10.5 0.1,-4.3 9.4,-58.4 9.5,-60.6 0.1,-2.2 -1,-13.8 -1,-13.8 z"
       inkscape:connector-curvature="0"
       style="opacity:0.3" />
    <path
       id="path329"
       d="m 46.4,28.7 c 2.5,1 4.3,3.8 4.7,10.3 0.4,6.5 0,11.6 -1.5,12.3 -1.5,0.7 -2.5,0.4 -2.5,0.4 L 48.2,58.8 31.4,54 c 0,0 0.3,-3.9 -0.6,-6.4 -0.9,-2.4 -3.5,-11.2 -0.8,-15.2 2.7,-4 8.3,-6.8 16.4,-3.7 z"
       inkscape:connector-curvature="0"
       style="fill:#fbd7c7" />
    <path
       id="path331"
       d="m 6.7,114.9 c 0,0 -0.8,7 -0.5,8.7 0.3,1.7 3.5,9.6 5.3,10 1.8,0.4 3.6,-1 3.4,-2.3 -0.2,-1.2 -2,-3.3 -2.1,-5.4 -0.2,-2.1 -0.1,-5.3 0.8,-5.7 0.9,-0.5 2.9,2 3.8,3.1 0.9,1.1 2.5,0.7 2.5,-0.2 0,-0.8 -1.9,-2.6 -2.3,-4.1 -0.4,-1.5 -1.2,-2.7 -2.3,-4 -1.1,-1.4 -1.5,-2.3 -1.5,-2.3 z"
       inkscape:connector-curvature="0"
       style="fill:#fbd7c7" />
    <path
       id="path333"
       d="m 5.4,112.8 c 0,0 -0.6,3.1 0.5,3.8 0.9,0.5 4.5,1.2 6.8,0.3 2,-0.8 3.1,-1.5 3.2,-2.2 0.1,-0.7 -0.8,-2 -0.8,-2 z"
       inkscape:connector-curvature="0"
       style="fill:#ffffff" />
    <path
       id="path335"
       d="m 45.2,225.2 v 4.1 c 0,0.8 0.1,2.9 4.3,2.6 4.2,-0.3 6.4,-1.2 6.6,-1.5 0.2,-0.3 0.7,-1.1 0.7,-1.1 0,0 7.2,0.6 12.4,-1.6 5.4,-2.3 8.6,-7.3 4,-9.4 -2.8,-1.3 -4.4,0.3 -8.6,-0.2 -4.5,-0.5 -7.1,-2.7 -7.1,-2.7 z"
       inkscape:connector-curvature="0"
       style="fill:#262626" />
    <path
       id="path337"
       d="m 69.2,227.6 c 5.4,-2.3 8.6,-7.3 4,-9.4 4.8,4.5 -4.5,8.7 -8.6,9 -2.7,0.2 -8.6,0.5 -12.4,1.3 -3.1,0.6 -6.2,0.4 -7.1,-0.8 v 1.7 c 0,0.8 0.1,2.9 4.3,2.6 4.3,-0.3 6.4,-1.2 6.6,-1.5 0.2,-0.3 0.7,-1.1 0.7,-1.1 0,0 7.3,0.4 12.5,-1.8 z"
       inkscape:connector-curvature="0"
       style="opacity:0.5" />
    <path
       id="path339"
       d="m 34.5,129.6 c -0.4,6.2 2.3,19.4 3.4,26.8 1.1,7.4 2.9,38.7 3.7,46.5 0.6,6.3 2.7,23.4 3.9,24.3 1.2,0.9 9.6,-0.3 13.1,-2.6 2.3,-1.6 4.9,-4.7 4.5,-6.8 -0.4,-2.1 -3.1,-4.1 -3.5,-14.9 -0.3,-10.8 0.9,-30.2 0.6,-44.9 -0.3,-14.8 -1,-31.5 -1,-31.5 z"
       inkscape:connector-curvature="0"
       style="fill:#656565" />
    <path
       id="path341"
       d="m 34.5,129.6 c -0.4,6.2 2.3,19.4 3.4,26.8 1.1,7.4 2.9,38.7 3.7,46.5 0.6,6.3 2.7,23.4 3.9,24.3 1.2,0.9 9.6,-0.3 13.1,-2.6 2.3,-1.6 4.9,-4.7 4.5,-6.8 -0.4,-2.1 -3.1,-4.1 -3.5,-14.9 -0.3,-10.8 0.9,-30.2 0.6,-44.9 -0.3,-14.8 -1,-31.5 -1,-31.5 z"
       inkscape:connector-curvature="0"
       style="opacity:0.15" />
    <path
       id="path343"
       d="m 13.8,57.2 c -1.2,1.4 -2,5.5 -2.3,7.6 C 11.2,66.9 5.8,84.1 4.9,87.5 4,90.8 4,96.6 4.3,101.9 c 0.2,5.3 0.2,11.7 0.3,12.6 0.1,1 4,2 6.9,1.6 2.9,-0.4 4.6,-1.2 4.9,-3.6 0.3,-2.4 1.8,-13.9 3.8,-18.1 2,-4.2 4.9,-11.7 4.9,-11.7 z"
       inkscape:connector-curvature="0"
       style="fill:#656565" />
    <path
       id="path345"
       d="m 13.8,57.2 c -1.2,1.4 -2,5.5 -2.3,7.6 C 11.2,66.9 5.8,84.1 4.9,87.5 4,90.8 4,96.6 4.3,101.9 c 0.2,5.3 0.2,11.7 0.3,12.6 0.1,1 4,2 6.9,1.6 2.9,-0.4 4.6,-1.2 4.9,-3.6 0.3,-2.4 1.8,-13.9 3.8,-18.1 2,-4.2 4.9,-11.7 4.9,-11.7 z"
       inkscape:connector-curvature="0"
       style="opacity:0.15" />
    <path
       id="path347"
       d="m 66.9,104.5 0.1,8.8 c 0,0 4.1,1.1 7.1,-0.5 3,-1.6 5.2,-4.7 5.2,-5.8 0,-1.1 -0.3,-2.4 -1.3,-2.4 -1.1,0 -2,1.6 -3.2,0.3 -1.2,-1.3 -0.4,-2.2 0.6,-2.9 0.9,-0.7 1.3,-2.5 -0.8,-2.3 -1,0.1 -1.9,0.8 -2.5,1.3 -0.9,0.8 -1.8,1.8 -3,2.8 -1.3,1.1 -2.2,0.7 -2.2,0.7 z"
       inkscape:connector-curvature="0"
       style="fill:#fbd7c7" />
    <path
       id="path349"
       d="m 31.4,50.5 -3.6,0.8 0.1,0.9 c 0,0 -5.5,-0.7 -9.4,1.4 -4,2.1 -6.1,4 -5.6,7.3 0.6,3.4 3.9,15.1 6.1,21.1 2.2,6 3.5,9.3 2.9,14.2 -0.6,4.9 -7.1,27.7 -6.7,31.2 0.4,3.5 5.8,6.1 12.5,7.9 6.9,1.8 31.9,3.2 32.4,-1.9 0.5,-5 0.5,-18.9 0.5,-18.9 0,0 7.1,1.3 8.4,-0.4 1.3,-1.7 2.8,-4.5 1.2,-7.9 -1.5,-3.4 -2.1,-3.5 -3.1,-3.8 -1,-0.3 -5.5,-1 -6.8,-2.7 C 59,98.1 60,91.9 60,84 60,76.1 60.3,70.4 56.8,66.7 53.3,63 49.3,57.8 46,56.6 41.6,55.2 30.7,55.5 31.4,50.5 Z"
       inkscape:connector-curvature="0"
       style="fill:#656565" />
    <path
       id="path351"
       d="m 28.7,51.2 c 0,0 0.1,5.2 7.4,6.1 6.9,0.9 19,8.5 19,8.5 0,0 -13,-7.3 -18.9,-7.8 -8.8,-0.7 -8.4,-6.8 -8.4,-6.8 z"
       inkscape:connector-curvature="0"
       style="opacity:0.2" />
    <path
       id="path353"
       d="m 44.9,44 c 0.1,0.8 1,-1.3 1.7,-3.1 0.7,-1.9 2,-4.3 2.7,-7 0.7,-2.7 1.3,-1.7 1.4,-2.9 0.1,-1.2 -5.7,-8.9 -16.3,-5.2 -10.6,3.7 -8,16 -7.1,19.4 1,3.4 4.1,7.3 7.1,7.3 3,-0.1 6.5,-2.4 6.8,-6.8 0.4,-4.3 3.6,-3.5 3.7,-1.7 z"
       inkscape:connector-curvature="0"
       style="fill:#762c07" />
    <path
       id="path355"
       d="m 98.1,68.9 c 0,0 -3.2,10.8 -5.9,19.1 -2.7,8.3 -4.4,13.8 -5.3,15.9 -0.9,2.1 -1.3,5.7 -0.8,7.3 0.5,1.6 2.3,5 3,5.7 1.7,1.6 4.4,1.2 4.8,0.8 0.4,-0.4 0.4,-2.2 -0.3,-2.9 -0.7,-0.7 -2.6,-3 -1.4,-6 1.2,-2.9 1,-4.2 1,-6 0,-1.5 -0.5,-1.7 0.7,-4.1 1.2,-2.4 6.9,-14.5 7.5,-16.2 0.5,-1.7 -3.3,-13.6 -3.3,-13.6 z"
       inkscape:connector-curvature="0"
       style="fill:#fbd7c7" />
    <path
       id="path357"
       d="m 96.3,78.1 c -1.5,-8.3 -1,-3.9 -2.1,-7.8 0,-0.1 -0.8,-0.3 -0.7,0 0.6,3.4 0.3,8 -1.5,12.7 -2.1,5.7 -6,16 -5.5,16.4 1.4,1.6 8.4,2 8.4,2 l 0.8,-2.5 1.4,-8.4 c 0,-0.2 0.7,-4.1 -0.8,-12.4 z"
       inkscape:connector-curvature="0"
       style="fill:#06547a" />
    <path
       id="path359"
       d="m 96.3,78.1 c -1.5,-8.3 -1,-3.9 -2.1,-7.8 0,-0.1 -0.8,-0.3 -0.7,0 0.6,3.4 0.3,8 -1.5,12.7 -2.1,5.7 -6,16 -5.5,16.4 1.4,1.6 8.4,2 8.4,2 l 0.8,-2.5 1.4,-8.4 c 0,-0.2 0.7,-4.1 -0.8,-12.4 z"
       inkscape:connector-curvature="0"
       style="opacity:0.15" />
    <path
       id="path361"
       d="m 94,192.9 c -11.8,7.6 -12.4,14.4 0,21 13.5,7.2 22.4,3.3 32.9,-2.7 10.5,-6 11.8,-13.4 -3.6,-19.6 -12.5,-5 -20.4,-4.4 -29.3,1.3 z"
       inkscape:connector-curvature="0"
       style="opacity:0.2" />
    <path
       id="path363"
       d="m 112,41.3 c 0,0 -9.1,-4 -12.3,0.3 -3.2,4.3 -1.7,11 -1.7,11 0,0 -5.4,6.1 -5.4,9.4 0,3.3 5.1,6.5 5.1,6.5 0,0 -0.1,17.5 -1,24 -0.9,6.5 -3,21.6 -2.4,32.2 0.7,10.6 1.6,25 1.9,29.2 0.3,4.1 2.2,10 3,14.8 0.9,4.8 4.1,13.2 0.9,19.6 -3.2,6.5 -6.1,9.3 -7.4,10.5 -1.3,1.2 0.2,5.2 3,4.5 2.8,-0.7 7.2,-7.1 9.9,-8.1 2.7,-1.1 7.2,-4 6,-7.7 -1.2,-3.7 -1.7,-2.2 -2,-5.3 -0.3,-3.1 2.2,-16.7 1.3,-22.8 -0.9,-6.1 -3.2,-7.8 -3.6,-8.8 -0.4,-1.1 5.7,-29.5 5.7,-29.5 0,0 1.2,27.3 1.1,30.2 -0.1,2.9 2.1,17.7 2.7,24.6 0.6,6.9 1,18.8 -2,22.9 -2.9,4.1 -8,10.3 -6,11.7 2,1.4 8.3,2.7 9.8,-0.9 1.5,-3.6 5.3,-11.1 6.7,-13.1 1.4,-2 1.9,-3.1 1,-5 -0.9,-1.9 -1.5,-5 -0.5,-10.3 1,-5.3 4.1,-14.7 3.3,-19.7 -0.8,-5 -3.2,-8.1 -2.9,-11.7 0.3,-3.5 8.1,-24.8 6.6,-39.7 -1.5,-14.9 -9,-17.5 -10.3,-23.5 -1.3,-6 3,-13.9 5.2,-18.2 2.2,-4.2 5.3,-11.6 2.6,-14.2 -2.7,-2.7 -5.9,-4.4 -7.1,-6.4 -1.2,-2 -2.5,-8.2 -2.5,-8.2 z"
       inkscape:connector-curvature="0"
       style="fill:#fbd7c7" />
    <path
       id="path365"
       d="m 94.7,197 c 0,0 -4.9,1.7 -5.9,3.9 -0.8,1.8 -0.5,3.9 1.2,5 1.8,1 5.2,1.3 8.2,-0.4 2.9,-1.7 6.8,-8.4 7.5,-8.7 0.7,-0.3 0.2,3.7 0.2,3.7 l 2.1,1.1 2.3,-0.9 c 0,0 -0.2,-4.5 0.7,-6 0.9,-1.6 2.6,-3.9 2,-6.9 -0.7,-3 -2.6,-3.3 -2.6,-3.3 0,0 0,3.5 -4,7.3 -3.8,3.6 -5.9,9.6 -9.2,9.3 -4.6,-0.7 -2.5,-4.1 -2.5,-4.1 z"
       inkscape:connector-curvature="0"
       style="fill:#06547a" />
    <path
       id="path367"
       d="m 111.5,203.8 c 0,0 -4.6,3.5 -4.9,5.7 -0.3,2.2 -0.2,3.7 2.9,4.7 3.1,1 7.1,-0.2 9,-1.8 1.8,-1.6 4.4,-5.8 4.4,-5.8 l 2,1.1 2.3,-1.1 c 0,0 -0.3,-2.7 0.4,-5.1 0.7,-2.4 1.4,-4.4 1.4,-7.4 0,-3 -2.8,-3.3 -2.8,-3.3 0,0 1.7,1.6 -0.8,5.1 -2.5,3.5 -4.4,11.3 -8.1,11.5 -7,0.4 -5.8,-3.6 -5.8,-3.6 z"
       inkscape:connector-curvature="0"
       style="fill:#06547a" />
    <path
       id="path369"
       d="m 95.6,96.6 c 0,0 -2.4,13.8 -2.4,23.7 0,9.9 1.9,34.9 1.9,34.9 0,0 13.3,3.6 21.5,2.8 9.8,-0.9 13.2,-2.2 13.2,-2.2 0,0 4.3,-23.1 4.7,-32.3 0.6,-13.3 -2.9,-26.8 -5.7,-30.3 -2.8,-3.6 -33.2,3.4 -33.2,3.4 z"
       inkscape:connector-curvature="0"
       style="fill:#262626" />
    <path
       id="path371"
       d="m 118.5,63.2 c 0,0 7,8.7 10.5,13.2 3.5,4.5 7.1,9.3 7.1,9.3 0,0 -5.9,3.2 -9.7,7.4 -3.8,4.2 -6.7,7.6 -7.7,7.8 -1,0.2 -5.3,-0.1 -8.8,1.8 -3,1.6 -4.1,2.9 -4.4,5 -0.3,2.1 0.4,3.8 1.7,4.8 1.3,1 3.1,0.6 3.7,0.3 1.5,-0.8 1.8,-2.5 3.2,-3.3 1.8,-1 4.5,-1.1 6.3,-2.3 1.7,-1.3 20.7,-13.4 23,-16 2.3,-2.6 3.4,-5.6 0.7,-9.4 -2.7,-3.9 -11.1,-17.6 -13.3,-22 -2.2,-4.3 -4.9,-8.8 -9.5,-8.8 -4.5,-0.2 -7.9,6.9 -2.8,12.2 z"
       inkscape:connector-curvature="0"
       style="fill:#fbd7c7" />
    <path
       id="path373"
       d="m 146.3,85.5 c -1.5,-3.6 -8.4,-18.7 -10,-22.1 -1.6,-3.4 -3.4,-8.4 -6.3,-11.2 -2.8,-2.7 -6.5,-5.4 -7.8,-6.5 -1.3,-1.1 -13.4,-5.3 -13.4,-5.3 -3.9,-1 -8.6,-2 -11,2.5 -2.4,4.5 -1,8.3 -1,8.3 0,0 -5.4,5.9 -5.5,9.9 -0.1,3.7 2.5,7.9 3.9,18.2 1.2,8.3 0.2,18.1 0.2,18.1 h 0.1 c 0.5,0.1 6.7,1.9 12.2,1.8 7.2,-0.2 10.1,-2.3 10.1,-2.3 0,0 -1.4,3.8 0.9,7.7 2.3,3.8 5.2,3.8 6,3.3 0.8,-0.5 14.5,-10.2 17.7,-13 3.3,-2.7 5.4,-5.8 3.9,-9.4 z m -16.2,2.8 c -2.6,1.6 -4.9,3 -4.9,3 0,0 -1.6,-5.5 -1.8,-9.4 C 123.2,78 126,73 126,73 c 0,0 3,3.8 4.1,5.4 1.7,2.4 4.3,7.3 4.3,7.3 0,0 -2.3,1.4 -4.3,2.6 z"
       inkscape:connector-curvature="0"
       style="fill:#06547a" />
    <path
       id="path375"
       d="m 107.2,40.5 c 0,0 -7.1,11.2 -2.1,13.7 5,2.6 15.6,-5.9 15.6,-5.9 l -7.8,-8.7 z"
       inkscape:connector-curvature="0"
       style="fill:#fbd7c7" />
    <path
       id="path377"
       d="m 104.4,45 c 0,0 -1,6.5 2.1,7.9 3,1.4 9.2,-0.4 9.2,-0.4 L 96.3,65.7 c 0,0 0.1,-9.1 1.9,-12.3 1.7,-3.1 6.2,-8.4 6.2,-8.4 z"
       inkscape:connector-curvature="0"
       style="fill:#ffffff" />
    <path
       id="path379"
       d="m 109.6,40.3 c 0,0 -8.2,8.6 -10.1,13.7 -1.9,5.1 -2,10.8 -1,21.1 0.9,8.6 1,23.3 1,23.3 l -1.4,-0.2 c 0,0 0.4,-20.3 -3,-33.6 -1.5,-6.1 -0.7,-12.7 -0.7,-12.7 l 4.3,-4.2 4.2,-8.4 z"
       inkscape:connector-curvature="0"
       style="fill:#262626" />
    <path
       id="path381"
       d="m 109.5,41.6 c 0,0 -4.3,0.7 -4.9,-0.9 -0.7,-1.7 -4.4,-15.5 2.4,-24.1 6.8,-8.5 20.5,-3.1 20.5,6 0,8.1 -3.2,10.5 -4.7,14.5 -0.9,2.5 -1.6,5.8 -0.1,8.4 1.5,2.7 2.7,4 2.7,4 0,0 -7.6,4.6 -13.3,3.2 -5.7,-1.4 -0.2,-4.2 -1,-6.6 -0.7,-2.1 -1.6,-4.5 -1.6,-4.5 z"
       inkscape:connector-curvature="0"
       style="fill:#fbd7c7" />
    <path
       id="path383"
       d="m 104.7,22.9 c 0,0 -0.6,6.7 3.7,10.7 0.2,-3.2 0.9,-4.6 0.9,-4.6 0,0 1.7,5.8 4.2,5.8 -1,-2.9 -0.7,-4.7 -0.7,-4.7 0,0 1,1.7 2.1,1.5 -0.2,-1.8 0.5,-2.8 0.5,-2.8 0,0 1,4.8 1,10.9 4.8,-2.2 6.9,-9.4 6.9,-9.4 0,0 0.1,5.5 -1.8,10.5 2.7,0.3 11,-6.8 10.4,-17.9 -0.5,-8.6 -9,-11.7 -9,-11.7 l 2.3,-0.3 c 0,0 -7.6,-4 -15.4,-0.1 -8.9,4.5 -8,17 -7.5,17.2 1,-4.4 2.4,-5.1 2.4,-5.1 z"
       inkscape:connector-curvature="0"
       style="fill:#825012" />
    <path
       id="path385"
       d="m 123.3,46.5 c 0,0 -10.3,6.3 -14.8,9.4 C 104,59 96,65.9 96,65.9 l 18.8,-7.9 2.9,-5 4,-0.6 6.1,-3.1 z"
       inkscape:connector-curvature="0"
       style="fill:#262626" />
    <path
       id="path387"
       d="m 126,72.9 c 0,0 -2.7,5 -2.6,8.9 0.2,3.9 1.8,9.4 1.8,9.4 0,0 2.3,-1.3 4.9,-3 2,-1.3 4.3,-2.7 4.3,-2.7 0,0 -2.6,-4.9 -4.3,-7.3 C 129,76.7 126,72.9 126,72.9 Z"
       inkscape:connector-curvature="0"
       style="fill:none" />
  </g>
</svg>
