<?xml version="1.0" encoding="UTF-8" standalone="no"?>
<svg
   xmlns:dc="http://purl.org/dc/elements/1.1/"
   xmlns:cc="http://creativecommons.org/ns#"
   xmlns:rdf="http://www.w3.org/1999/02/22-rdf-syntax-ns#"
   xmlns:svg="http://www.w3.org/2000/svg"
   xmlns="http://www.w3.org/2000/svg"
   xmlns:sodipodi="http://sodipodi.sourceforge.net/DTD/sodipodi-0.dtd"
   xmlns:inkscape="http://www.inkscape.org/namespaces/inkscape"
   enable-background="new 0 0 160 240"
   viewBox="0 0 11.540396 21.971632"
   version="1.1"
   id="svg570"
   sodipodi:docname="city--people03.svg"
   width="11.540396"
   height="21.971632"
   inkscape:version="0.92.2 (5c3e80d, 2017-08-06)">
  <metadata
     id="metadata576">
    <rdf:RDF>
      <cc:Work
         rdf:about="">
        <dc:format>image/svg+xml</dc:format>
        <dc:type
           rdf:resource="http://purl.org/dc/dcmitype/StillImage" />
        <dc:title></dc:title>
      </cc:Work>
    </rdf:RDF>
  </metadata>
  <defs
     id="defs574" />
  <sodipodi:namedview
     pagecolor="#ffffff"
     bordercolor="#666666"
     borderopacity="1"
     objecttolerance="10"
     gridtolerance="10"
     guidetolerance="10"
     inkscape:pageopacity="0"
     inkscape:pageshadow="2"
     inkscape:window-width="880"
     inkscape:window-height="480"
     id="namedview572"
     showgrid="false"
     fit-margin-top="0"
     fit-margin-left="0"
     fit-margin-right="0"
     fit-margin-bottom="0"
     inkscape:zoom="1.2791667"
     inkscape:cx="6.4404127"
     inkscape:cy="14.429238"
     inkscape:window-x="0"
     inkscape:window-y="0"
     inkscape:window-maximized="1"
     inkscape:current-layer="svg570" />
  <g
     id="g608"
     transform="matrix(0.1,0,0,0.1,-2.5536601,-1.3585261)">
    <path
       id="path510"
       d="m 29.8,72.7 c 0,0 -1.8,8.3 -2.4,12.2 -0.6,3.8 -2.2,7.5 -1.8,10.4 0.4,2.9 2.9,8 5.2,12 2.4,4.3 4.8,5.9 4.9,11.6 0.1,2.1 -1.3,4.8 0.6,5.6 1.9,0.8 4.5,0.6 5.9,0.1 1.4,-0.5 1.6,-7.9 1.6,-8.9 0,-1.1 -2.8,-1.2 -3.4,-3.4 -0.6,-2.2 -4.7,-13.7 -4.4,-15.8 0.3,-2.2 3.8,-12.9 3.8,-12.9 z"
       inkscape:connector-curvature="0"
       style="fill:#fbd7c7" />
    <path
       id="path512"
       d="m 88.6,230.4 c 20.1,-7.7 8.6,-18.7 -10.6,-22.1 -8.4,-1.5 -17.1,-18.6 -38.1,-5.2 -16.9,10.8 -1.6,17.2 7.1,21.2 11.9,5.5 22.9,13.3 41.6,6.1 z"
       inkscape:connector-curvature="0"
       style="opacity:0.2" />
    <path
       id="path514"
       d="m 39.8,62.5 c 1.3,0.1 6.4,-6.1 5.9,-8.8 -0.5,-2.8 -10.6,-20 7,-23.6 5.8,-1.2 13.3,3 14.1,10.2 0.7,6 0.4,14.9 -1.9,16 -2.3,1.1 -3.8,0.4 -5.4,2.3 -1.6,1.9 -1.7,4.4 -0.7,7.1 1,2.7 3.7,3.4 3.7,3.4 H 40.3 Z"
       inkscape:connector-curvature="0"
       style="fill:#fbd7c7" />
    <path
       id="path516"
       d="m 52.6,29.5 c -17.7,3 -6.9,24.9 -7,25.3 1.8,0.9 5.3,0.9 6.9,-0.3 1.8,-1.3 2.8,-5.9 4.8,-7.6 2,-1.7 3.1,-0.1 3.2,0.5 0.1,0.6 0.1,1.3 0.1,1.3 L 62,48.2 c 0,0 0.8,-2.5 0.9,-5.8 0.1,-3.4 -0.7,-6.8 -0.4,-7.5 0.2,-0.6 1.4,-0.1 2.1,-0.3 -2.6,-4.1 -7.9,-5.8 -12,-5.1 z"
       inkscape:connector-curvature="0"
       style="fill:#825012" />
    <path
       id="path518"
       d="m 38.3,214.3 c -0.2,2.6 2.6,5.1 6,4.2 3.5,-0.9 7,-3.8 10.9,-5.4 4.5,-1.9 8.3,-3.1 9.3,-6 1,-2.8 -0.5,-6.4 -7.3,-6.1 -6.8,0.3 -11.5,5.7 -11.5,5.7 z"
       inkscape:connector-curvature="0"
       style="fill:#262626" />
    <path
       id="path520"
       d="m 39.8,216.3 c 4.1,-0.7 9.7,-3.6 11.8,-4.8 2.2,-1.2 10.5,-3.6 11.7,-6.3 1.1,-2.7 -4.8,-5.2 -9.1,-3.7 -4.3,1.5 -8.6,2.7 -8.6,2.7 z"
       inkscape:connector-curvature="0"
       style="fill:#ffffff" />
    <path
       id="path522"
       d="m 62.7,225.9 c 0.3,1.9 -0.5,4.5 3.3,4.3 3.7,-0.2 10.9,-1.6 13.7,-1.8 2.7,-0.3 13.1,-1.5 15.2,-5.2 2,-3.7 0.1,-7.4 -3,-7.7 -3.1,-0.3 -7,2.2 -10.4,1.4 -3.4,-0.7 -8.3,-2.7 -8.3,-2.7 z"
       inkscape:connector-curvature="0"
       style="fill:#262626" />
    <path
       id="path524"
       d="m 65,226.2 c 2.6,0.3 8.1,0 12.8,-0.7 4.8,-0.7 14.3,-1.8 16.3,-5.6 1.5,-2.9 -0.6,-5 -4.6,-4.5 -4.1,0.6 -3.3,1.4 -6.9,1.4 -3.6,0.1 -8.6,-1.7 -8.6,-1.7 l -9.2,11 z"
       inkscape:connector-curvature="0"
       style="fill:#ffffff" />
    <path
       id="path526"
       d="m 38.6,113.4 c -2,3.1 -6.6,9.7 -3.6,24.1 3,14.4 5.8,25.2 3.9,30.4 -1.9,5.2 -3.7,13 -3.4,17.4 0.3,4.4 0,8.1 -0.3,10.8 -0.3,2.7 -1.4,14.6 0,17.8 1.4,3.1 3.8,4.7 7.8,3.7 4,-1 9.1,-4.8 9.7,-6.9 1.5,-4.8 -1,-14.7 0.3,-19.9 1,-3.8 2.1,-8 2.3,-11.5 0.2,-3.5 1.6,-12 3.8,-22.4 2.3,-10.4 6.8,-22.3 6.1,-30.2 -0.7,-7.9 -26.6,-13.3 -26.6,-13.3 z"
       inkscape:connector-curvature="0"
       style="fill:#28896d" />
    <path
       id="path528"
       d="m 38.6,113.4 c -2,3.1 -6.6,9.7 -3.6,24.1 3,14.4 5.8,25.2 3.9,30.4 -1.9,5.2 -3.7,13 -3.4,17.4 0.3,4.4 0,8.1 -0.3,10.8 -0.3,2.7 -1.4,14.6 0,17.8 1.4,3.1 3.8,4.7 7.8,3.7 4,-1 9.1,-4.8 9.7,-6.9 1.5,-4.8 -1,-14.7 0.3,-19.9 1,-3.8 2.1,-8 2.3,-11.5 0.2,-3.5 1.6,-12 3.8,-22.4 2.3,-10.4 6.8,-22.3 6.1,-30.2 -0.7,-7.9 -26.6,-13.3 -26.6,-13.3 z"
       inkscape:connector-curvature="0"
       style="opacity:0.2" />
    <path
       id="path530"
       d="m 46.1,118.7 c -2.2,5.7 -3.4,14.6 -0.7,19.1 2.7,4.5 7.2,10.3 8.5,14.3 1.3,4 5.9,12.4 5.8,15.7 -0.1,3.3 -2.2,18.1 -1.3,28.5 0.9,10.4 2.1,21.6 1.8,24.3 -0.3,2.7 0.7,9.4 4.3,9.5 3.6,0.1 13.1,-3.6 15.8,-8.1 2.1,-3.4 1.1,-4.9 0,-5.7 -1.1,-0.8 -2.8,-3.6 -3.4,-7.5 -0.6,-3.8 -0.1,-23.6 1.2,-29.1 1.3,-5.5 2,-7.9 1,-13.1 -1,-5.2 -4.4,-26.3 -5.3,-32.8 -0.9,-6.5 -1.6,-12 -1.6,-12 z"
       inkscape:connector-curvature="0"
       style="fill:#28896d" />
    <path
       id="path532"
       d="m 41,61.9 c 0,0 -6.6,-1.9 -10.4,1.9 -3.8,3.8 -2.4,7.9 -0.8,13 1.6,5.1 9.9,25.1 9.4,29.5 -0.5,4.3 -3.7,11.1 -3.5,12.8 0.2,1.6 8,8.4 18.6,9.9 10.6,1.4 17.2,-0.3 17.3,-1.4 0.1,-1.2 0.3,-14.8 -0.9,-20.9 -1.2,-6.2 -1.4,-11.9 0.4,-17.2 1.8,-5.2 3,-10.7 1.7,-13.9 -1.3,-3.2 -3.3,-4.7 -6.4,-6.2 -3.1,-1.5 -6.7,-2 -6.7,-2 0,0 -7.9,2.1 -14.3,0 C 37.5,64.6 41,61.9 41,61.9 Z"
       inkscape:connector-curvature="0"
       style="fill:#e5e5e5" />
    <path
       id="path534"
       d="m 57.9,85.3 c 0,0 5,1.3 8.6,0.7 3.6,-0.6 5,-1.4 5,-1.4 0,0 -1.2,4 -1.7,5.4 -0.9,3 -1.8,8.5 -1.9,10.9 -0.1,2.4 -0.3,5.1 -0.3,5.1 0,0 2.2,2.5 3.3,6.5 1.1,4 1.8,7.4 2.9,9.1 1.1,1.7 2.3,3.7 2.5,6.7 0.2,2.9 0.8,8.5 -1.2,10 -2,1.5 -5.9,3 -7.5,2.3 -1.6,-0.8 -2.3,-2.1 -2,-2.6 0.3,-0.5 1.5,1.3 2.8,-0.2 1.4,-1.5 1.2,-2.8 0.6,-5.4 -0.6,-2.6 0.7,-4.5 0.3,-5.4 -0.4,-0.9 -9.5,-12.5 -10.5,-17.9 -1,-5.4 -0.9,-23.8 -0.9,-23.8 z"
       inkscape:connector-curvature="0"
       style="fill:#fbd7c7" />
    <path
       id="path536"
       d="m 119.9,206.1 c 5.5,-0.2 6.9,-2.6 8.2,-7.3 1.4,-4.7 -0.4,-5.7 2.9,-8.1 3.3,-2.4 5.9,-4.8 5,-8.4 -1.7,-6.9 -9,-15.1 -15.9,-15.1 -6.9,0 -19.8,10.2 -20.2,11.2 -0.4,1 -3.4,2.3 -0.4,6.4 4.8,6.5 8.4,21.7 20.4,21.3 z"
       inkscape:connector-curvature="0"
       style="opacity:0.2" />
    <path
       id="path538"
       d="m 104.8,173.2 c 0,0 -2.4,2.3 -4.3,3.7 -1.8,1.4 -2,4.1 -1.9,5 0.1,0.9 2.1,3.3 5.5,2.7 3.4,-0.6 6,-4.3 8.3,-6.4 2.3,-2.2 2.3,-2 4,-2.3 1.7,-0.3 0,-4.2 -2.3,-4.3 -2.3,-0.1 -6.8,-2.3 -6.8,-2.3 0,0 -1.4,2.7 -2.5,3.9 z"
       inkscape:connector-curvature="0"
       style="fill:#ffffff" />
    <path
       id="path540"
       d="m 104.8,173.2 c 0,0 -2.4,2.3 -4.3,3.7 -1.8,1.4 -2,4.1 -1.9,5 0.1,0.9 2.1,3.3 5.5,2.7 3.4,-0.6 6,-4.3 8.3,-6.4 2.3,-2.2 2.3,-2 4,-2.3 1.7,-0.3 0,-4.2 -2.3,-4.3 -2.3,-0.1 -6.8,-2.3 -6.8,-2.3 0,0 -1.4,2.7 -2.5,3.9 z"
       inkscape:connector-curvature="0"
       style="fill:#ffffff" />
    <path
       id="path542"
       d="m 112.5,178.3 c 2.3,-2.2 2.3,-2 4,-2.3 0.2,0 0.4,-0.1 0.5,-0.3 l -6.6,-1.3 c 0,0 0.3,2.6 -1.8,4.9 -2,2.3 -3.2,3.6 -5.7,3.6 -1.8,0 -3.1,-0.4 -4.1,-1.6 v 0.7 c 0.1,1 2.1,3.3 5.5,2.7 3.3,-0.6 5.9,-4.3 8.2,-6.4 z"
       inkscape:connector-curvature="0"
       style="fill:#262626" />
    <path
       id="path544"
       d="m 102.5,88.2 c 0,0 -3.4,9.4 -3.1,20.4 0.3,11.5 1.6,18.7 2.4,21.7 1.1,4.5 3.4,5.9 3.9,15.7 0.5,9.8 0.6,19.8 -0.2,22.7 -0.8,2.9 -2.7,4 -2.4,4.7 0.3,0.7 3.8,-0.4 5.5,1.2 1.7,1.6 4.5,2.7 5.9,2.7 1.4,0.1 2,0 2,0 l -3.7,-78.2 z"
       inkscape:connector-curvature="0"
       style="fill:#2d3134" />
    <path
       id="path546"
       d="m 102.5,88.2 c 0,0 -3.4,9.4 -3.1,20.4 0.3,11.5 1.6,18.7 2.4,21.7 1.1,4.5 3.4,5.9 3.9,15.7 0.5,9.8 0.6,19.8 -0.2,22.7 -0.8,2.9 -2.7,4 -2.4,4.7 0.3,0.7 3.8,-0.4 5.5,1.2 1.7,1.6 4.5,2.7 5.9,2.7 1.4,0.1 2,0 2,0 l -3.7,-78.2 z"
       inkscape:connector-curvature="0"
       style="opacity:0.2" />
    <path
       id="path548"
       d="m 118.8,194.2 c 0,0 -1.7,4.5 -1.7,5.4 0,0.9 -0.2,3.9 0.4,4.6 0.5,0.6 3.2,1.5 5.3,1.2 2.2,-0.3 4.3,-2.4 4.5,-3.2 0.2,-0.9 -0.1,-6.3 -0.2,-7.1 -0.1,-0.8 -0.5,-2.6 -0.5,-2.6 z"
       inkscape:connector-curvature="0"
       style="fill:#ffffff" />
    <path
       id="path550"
       d="m 126.7,192.5 -1.4,0.3 c 0.4,1.9 0.9,6.3 0.3,8.1 -0.8,2.1 -3,2.7 -4.9,2.7 -1.1,0 -3,-0.6 -3.5,-2 0,1.1 0.1,2.3 0.4,2.7 0.5,0.6 3.2,1.5 5.3,1.2 2.2,-0.3 4.3,-2.4 4.5,-3.2 0.2,-0.9 -0.1,-6.3 -0.2,-7.1 -0.1,-0.9 -0.5,-2.7 -0.5,-2.7 z"
       inkscape:connector-curvature="0"
       style="fill:#262626" />
    <path
       id="path552"
       d="m 110.9,100 c 0,0 -3,7.1 -3.5,17.3 -0.5,10.2 0.7,17 0.9,19.3 0.1,2.3 0.5,9.4 1.8,12.1 1.3,2.7 3.7,7.9 4.6,14.4 0.9,6.6 1.3,18.4 1.4,21.4 0.1,4 -0.5,7.3 0.2,9.2 0.7,1.9 3,-0.4 5.5,0.3 2.5,0.7 6.4,1.4 7.1,1 0.7,-0.4 -0.5,-7.5 -0.4,-11.6 0.1,-4.1 -0.2,-19.8 -1.1,-26.4 -0.8,-6.6 -5.6,-12.8 -4.8,-19.5 0.8,-6.7 5.4,-20.8 6.5,-25 1.1,-4.2 1.4,-10.2 0.8,-15.7 -0.5,-5.6 -19,3.2 -19,3.2 z"
       inkscape:connector-curvature="0"
       style="fill:#2d3134" />
    <path
       id="path554"
       d="m 102.5,83.1 c 0,0 -4.3,3.1 -5.9,5.1 -1.6,2 -2.4,2.9 -2.4,4.7 0,1.8 0.8,2.9 1.6,2.7 0.8,-0.2 0,-2.7 0,-2.7 l 0.8,-1.6 c 0,0 -0.8,1.4 -0.4,2 0.4,0.5 2.2,2.4 2.7,2 0.6,-0.4 0.4,-1.2 0.4,-1.2 0,0 -1.5,-1 -1.2,-1.6 0.3,-0.5 0.8,-0.8 0.8,-0.8 0,0 -0.3,1.8 0,2.4 0.3,0.5 1.6,0.4 1.6,0.4 l 2.4,-5.5 z"
       inkscape:connector-curvature="0"
       style="fill:#fbd7c7" />
    <path
       id="path556"
       d="m 121.9,40 c -4.6,-0.9 -13.3,-1.6 -16.5,2.4 -3.2,4 -2.4,5.1 -2.4,7.1 0,2 -1.5,5.3 -2.4,7.5 -0.9,2.2 -2.3,5.9 -0.8,8.2 1.5,2.4 4.3,3.5 4.3,3.5 0,0 -0.8,9.3 -1.7,12.9 -0.9,3.5 -2,9.8 -2.4,11.8 -0.4,2 1.6,7.9 5.5,9.4 3.9,1.6 12.8,2.3 18.1,-1.6 5.3,-3.8 6.3,-6.3 6.3,-6.3 0,0 -1.9,-7.7 -1.6,-10.6 0.3,-2.9 5.2,-17.6 5.2,-17.6 l 3.6,-11.8 1.2,-0.8 c 0,0 0.3,-2.6 -1.2,-5.1 -1.5,-2.5 -4,-5.2 -7.5,-6.3 -3.5,-1.1 -3.7,-1.9 -7.7,-2.7 z"
       inkscape:connector-curvature="0"
       style="fill:#99cc33" />
    <path
       id="path558"
       d="m 111.3,42 c 0,0 -6.9,5.5 -2.4,10.2 4.5,4.7 13.3,-4.2 14.9,-7.9 1.7,-3.6 -7.1,-7.6 -12.5,-2.3 z"
       inkscape:connector-curvature="0"
       style="fill:#fbd7c7" />
    <path
       id="path560"
       d="m 99.4,61.6 c 0,0 -0.1,4.3 11,6.5 16.5,3.3 19.8,-2.9 19.8,-2.9 0,0 -3.1,8.6 -19.2,5.5 C 97,68.1 99.4,61.6 99.4,61.6 Z"
       inkscape:connector-curvature="0"
       style="opacity:0.2;fill:#262626" />
    <path
       id="path562"
       d="m 120,13.8 c -8.1,-0.5 -12,3 -13.5,8.6 -1.5,5.4 4,15.3 -1.8,17.9 0.1,2.2 5.1,4.5 7.3,2.1 2.2,-2.3 2.9,-2.4 2.9,-2.4 z"
       inkscape:connector-curvature="0"
       style="fill:#825012" />
    <path
       id="path564"
       d="m 109.4,23.9 c -1.5,3.1 -1.9,15.6 0.6,17.6 2.5,2 7.6,-1.3 12.5,-3.5 4.9,-2.2 5.5,-19 -1.9,-19.2 -7.4,-0.2 -9.6,1.8 -11.2,5.1 z"
       inkscape:connector-curvature="0"
       style="fill:#fbd7c7" />
    <path
       id="path566"
       d="m 118.5,14 c -3.3,0.8 -7.1,5.2 -6.4,10 1,6.2 13.2,18.3 4.6,22.2 1.4,4.6 9.5,4.3 14,2 4.3,-2.3 4.7,-4.5 4.6,-5.3 -0.1,-0.8 -3.8,-4.9 -3.8,-10.9 0,-6 -0.5,-21.1 -13,-18 z"
       inkscape:connector-curvature="0"
       style="fill:#825012" />
    <path
       id="path568"
       d="m 127.7,57.2 c 0,0 2.8,0 4.8,-0.3 2,-0.3 4.7,-2 4.7,-2 0,0 0.2,4.6 0.8,7.3 0.6,2.7 1.6,10.4 2,11.5 0.4,1.1 1.9,2 0,5.9 -1.9,3.9 -9.7,15.9 -11.1,19.1 -1.4,3.2 -1.3,6.2 -2,7.1 -0.6,0.9 -2.5,1.7 -2.7,1.6 -0.3,-0.1 -0.7,-0.1 -0.7,-0.1 0,0 -0.4,0.4 -1.1,0.4 -0.7,0 -0.9,-0.4 -0.9,-0.4 0,0 -0.5,0.8 -1.6,0.7 -1.1,-0.1 -1,-0.8 -1,-0.8 0,0 -1.6,0.8 -2.4,0.6 -0.8,-0.2 -1.2,-1 -0.7,-1.3 0.5,-0.3 1.6,-0.2 2.4,-0.9 0.8,-0.7 2.1,-2.8 2.1,-2.8 0,0 -0.3,-0.2 -0.2,-1.4 0.1,-1.2 -0.1,-3.1 1,-3.7 1.2,-0.6 2.6,-0.6 3.4,-1.6 2.5,-3 3.2,-8.2 5.4,-12.7 2.2,-4.5 3.6,-6.2 3.6,-6.6 0,-0.4 -2.8,-6.7 -3.8,-10.2 -1.1,-3.8 -2,-9.4 -2,-9.4 z"
       inkscape:connector-curvature="0"
       style="fill:#fbd7c7" />
  </g>
</svg>
