<?xml version="1.0" encoding="UTF-8" standalone="no"?>
<svg
   xmlns:dc="http://purl.org/dc/elements/1.1/"
   xmlns:cc="http://creativecommons.org/ns#"
   xmlns:rdf="http://www.w3.org/1999/02/22-rdf-syntax-ns#"
   xmlns:svg="http://www.w3.org/2000/svg"
   xmlns="http://www.w3.org/2000/svg"
   xmlns:sodipodi="http://sodipodi.sourceforge.net/DTD/sodipodi-0.dtd"
   xmlns:inkscape="http://www.inkscape.org/namespaces/inkscape"
   enable-background="new 0 0 240 240"
   viewBox="0 0 23.594486 19.849739"
   version="1.1"
   id="svg1745"
   sodipodi:docname="city--people08.svg"
   width="23.594486"
   height="19.849739"
   inkscape:version="0.92.2 (5c3e80d, 2017-08-06)">
  <metadata
     id="metadata1751">
    <rdf:RDF>
      <cc:Work
         rdf:about="">
        <dc:format>image/svg+xml</dc:format>
        <dc:type
           rdf:resource="http://purl.org/dc/dcmitype/StillImage" />
        <dc:title></dc:title>
      </cc:Work>
    </rdf:RDF>
  </metadata>
  <defs
     id="defs1749" />
  <sodipodi:namedview
     pagecolor="#ffffff"
     bordercolor="#666666"
     borderopacity="1"
     objecttolerance="10"
     gridtolerance="10"
     guidetolerance="10"
     inkscape:pageopacity="0"
     inkscape:pageshadow="2"
     inkscape:window-width="880"
     inkscape:window-height="480"
     id="namedview1747"
     showgrid="false"
     fit-margin-top="0"
     fit-margin-left="0"
     fit-margin-right="0"
     fit-margin-bottom="0"
     inkscape:zoom="0.98333333"
     inkscape:cx="17.442023"
     inkscape:cy="27.157247"
     inkscape:window-x="0"
     inkscape:window-y="0"
     inkscape:window-maximized="1"
     inkscape:current-layer="svg1745" />
  <g
     id="g1773"
     transform="matrix(0.1,0,0,0.1,-0.14675323,-3.7983676)">
    <path
       id="path1705"
       d="m 2.2,235.9 c 7.1,3.4 33.1,-9 46.8,-14.4 10.1,-4 23.8,-9.2 17.7,-12.4 -4.2,-2.2 -9.2,-0.6 -23.4,4.5 -14.7,5.3 -47.1,19.4 -41.1,22.3 z"
       inkscape:connector-curvature="0"
       style="opacity:0.2" />
    <path
       id="path1707"
       d="m 74.7,71.2 c -0.4,0.8 -1.2,7.1 0,8.7 0.6,0.8 2.5,2.6 5.6,2 3.1,-0.6 4.1,-2 5.7,-3 1.7,-1 6.6,-5.8 9.5,-7.6 2.9,-1.8 6.7,-3.9 6.7,-3.9 0,0 1.9,-6 4.8,-9 2.9,-3 5.2,-7.3 5.9,-9 0.7,-1.7 3.1,-6.6 6.1,-8.6 2.9,-1.9 5.6,3.1 3.5,5.3 -2.1,2.2 -4.6,3.3 -4.9,4.1 -0.3,0.8 -3.6,8.5 -5.5,12.5 -1.9,4 -3.2,7.5 -3.9,8.4 -0.6,0.9 -13.6,9.7 -16.2,13.4 -2.6,3.8 -6.4,7.7 -6.8,10.4 -0.5,2.7 -1.9,14.1 -3.8,18.8 -1.8,4.7 -4.5,14.2 -4.2,17.4 0.3,3.2 1.6,8.4 1.6,13.9 0,5.5 -0.1,17 -0.9,20.4 -0.8,3.4 -2.2,7 -2.7,8.7 -0.5,1.7 -7.3,15.8 -9.8,21.9 -2.5,6.1 -3.4,7.1 -3.4,7.1 l -0.6,7.6 c 0,0 -7.6,-8.7 -7.6,-9.3 0.1,-0.6 3.6,-2.4 4.5,-3.5 0.9,-1.1 2,-7 2.6,-11.2 0.6,-4.2 2.9,-12.3 4.4,-15.4 1.5,-3.1 2.1,-5.1 1.6,-8.1 -0.6,-3 -3.4,-21.6 -3.4,-21.6 0,0 -3.1,-2 -4.5,-3.7 -1.4,-1.7 -2.2,-2.9 -2.2,-2.9 0,0 -5.1,6.3 -8.4,9.4 -3.3,3.1 -7.3,9.4 -8.3,10.5 -1,1.1 -2,2.2 -3.3,2.5 -1.3,0.3 -3,2.7 -3.9,3.5 -0.8,0.8 -5.5,4.1 -7.2,5.2 -1.7,1 -2,2.9 -3.3,4.1 -1.3,1.2 -2.8,2 -3.4,2.5 -0.6,0.5 -1.6,1.9 -1.6,1.9 0,0 -0.5,-9.2 1.1,-10.3 1.6,-1.1 5.4,-8.8 7.6,-10.6 2.1,-1.7 5.7,-4.1 5.7,-4.1 0,0 7.4,-11.1 11,-18.1 3.6,-7 6.4,-15 9.6,-18 3.2,-2.9 5.8,-5.2 5.8,-5.2 0,0 -0.9,-6.3 -2.2,-9 -1.3,-2.8 -2.2,-5.9 -3.1,-7.9 -0.9,-2 -3.4,-5.1 -6.4,-7.3 -3,-2.2 -9.3,-6 -13,-7.4 C 29.8,75.3 28,74.4 25.1,70.3 22.2,66.2 15.3,55.2 14.7,55 14.1,54.8 10.3,53.5 8,53 5.7,52.5 2.4,51.2 2.4,50.8 c 0,-0.4 0.6,-1.7 2.4,-2 1.8,-0.3 7.2,0 7.6,-0.2 0.4,-0.2 1.8,-1.1 2.5,-2.1 0.7,-1 1,-2.3 1.9,-2.6 0.9,-0.3 1.5,0.2 1.3,0.5 -0.2,0.3 -1.2,1 -0.9,2.1 0.3,1.1 -0.4,3.9 0.5,5 0.9,1.1 6.4,6.6 9,9.3 2.6,2.7 5.8,7.2 7.1,7.9 1.3,0.7 9.8,3.8 14.4,6.6 4.7,2.8 11,4.6 12.6,3.7 1.6,-0.9 3.4,-2.4 3.6,-4.1 0.1,-1.7 -9.6,-4.5 -9.3,-11.8 0.3,-7.3 5.3,-10.4 9.6,-11.5 7.9,-2.1 12.8,7.7 13.5,13.1 0.7,5.5 -3.5,6.5 -3.5,6.5 z"
       inkscape:connector-curvature="0"
       style="fill:#fbd7c7" />
    <path
       id="path1709"
       d="m 59.4,51 c -3.6,1.6 -8.4,7.6 -7,14.6 1.2,6.1 4.8,9.6 8.7,11.2 4.2,1.7 10.7,0.7 15,-2.4 4.3,-3.1 6.1,-8.3 6.1,-8.3 0,0 -2.6,1.1 -3.2,-1.5 C 78.4,62 77.3,54.2 73.5,51.8 69,49 64.4,48.8 59.4,51 Z"
       inkscape:connector-curvature="0"
       style="fill:#825012" />
    <g
       id="g1717"
       style="fill:#3366cc">
      <path
         id="path1711"
         d="m 15.7,181.6 c 0,0 2,-4.6 2.9,-5.7 0.9,-1.1 1.2,-0.8 1.2,-1.8 0,-1 0.3,-2.9 0.6,-4.1 0.2,-1.2 -0.8,-3.7 -0.8,-3.7 z"
         inkscape:connector-curvature="0" />
      <path
         id="path1713"
         d="m 57.3,206 c 0,0 2.1,0.6 4.1,-1 0.7,-0.5 0.6,-1.7 0.6,-1.7 l 0.2,-0.3 c 0,0 0.8,1.5 0.3,3 -0.5,1.5 -0.5,6.6 -1.1,7.1 -0.7,0.5 -0.5,-1.8 -1.3,-3.2 -0.9,-1.4 -2.8,-3.9 -2.8,-3.9 z"
         inkscape:connector-curvature="0" />
      <path
         id="path1715"
         d="m 57.2,107.4 c 0,0 -7.2,5.8 -11.7,11.5 -4.6,5.9 -8.6,15.8 -7.5,18.2 1.1,2.4 14.1,2.6 16,5.3 1.8,2.8 8.1,12.7 19.5,7.4 11.4,-5.3 13.9,-8.8 13.9,-10.7 0,-1.9 -4.6,-16.4 -5.7,-21.2 -0.6,-2.6 2.2,-8.4 3.4,-13.9 0.9,-4.5 0.6,-9 0.6,-9 0,0 -2.9,-2.8 -3.7,-6.6 -0.8,-3.8 -0.5,-6.9 -0.5,-6.9 0,0 -3,0.6 -4.3,0 -3.8,2.1 -14.7,2.5 -16.2,-2.4 -1.6,0.1 -2.7,0 -2.7,0 0,0 -1.2,3.9 -3.3,7.5 -1.2,2 -3.4,3.4 -3.4,3.4 0,0 2.2,4.3 2.5,6.2 0.8,5.5 3.1,11.2 3.1,11.2 z"
         inkscape:connector-curvature="0" />
    </g>
    <path
       id="path1719"
       d="m 18.4,164.2 c 1.6,0.9 2.1,2 1.4,5.2 -0.7,3.1 -2,5.3 -2.5,8 -0.5,2.7 -1.7,6.1 -3.7,7.9 -1.9,1.6 -4.4,1.7 -6.4,0.6 -2.6,-1.4 -4,-5.7 -0.7,-10.3 3,-4.1 4.9,-7.1 6.1,-8.9 1.2,-1.8 3.9,-3.5 5.8,-2.5 z"
       inkscape:connector-curvature="0"
       style="fill:#262626" />
    <path
       id="path1721"
       d="m 53.9,201.6 c -0.6,-0.1 -1.9,0.3 -2.1,1.5 -0.2,1.3 0.5,2.8 1.3,3.9 0.8,1.1 1.4,2 2.6,3.5 1.3,1.5 3.2,3.3 4,3.4 1.2,0.2 1.7,-0.6 1.7,-0.9 0.1,-0.6 -0.3,-1.8 -0.9,-2.9 -0.6,-1 -1.6,-1.8 -2.2,-3.4 -0.3,-0.6 -0.8,-1.7 -2,-3.1 -1.2,-1.4 -1.9,-1.9 -2.4,-2 z"
       inkscape:connector-curvature="0"
       style="fill:#262626" />
    <path
       id="path1723"
       d="m 169.1,38 c -5.3,0.3 -7.7,2.8 -9.3,7.6 -1.7,4.8 -0.8,6 -1.6,7.2 -0.7,1.1 -1.9,1 -3.3,0.7 5,6.4 6.7,1 6.7,1 0,0 -1.4,-7.1 0.2,-9.1 1.3,-1.6 3.2,-2.1 5,-1.6 l 7.8,-4.3 c -1,-0.3 -2.5,-1.6 -5.5,-1.5 z"
       inkscape:connector-curvature="0"
       style="fill:#825012" />
    <path
       id="path1725"
       d="m 211.7,119.4 c 0,0 -0.3,-2.4 2,-2.9 1.7,-0.4 3,-0.1 6,3 3,3 5.8,5.6 6.2,9.4 0.3,3.1 -2,5 -4.1,4.9 -1.7,0 -4.1,-2.2 -5.7,-4.8 -1.7,-2.7 -4.4,-9.6 -4.4,-9.6 z"
       inkscape:connector-curvature="0"
       style="fill:#262626" />
    <path
       id="path1727"
       d="m 179,163.1 c 0.6,-0.3 2.7,-0.8 3.4,0.6 0.7,1.4 -0.1,5 0.1,6.9 0.2,1.9 0.5,6.6 -1.4,10.3 -1.4,2.9 -4.9,3.7 -6.4,2.5 -1.5,-1.3 -1.6,-4.6 -0.8,-6.2 0.9,-1.4 5.1,-14.1 5.1,-14.1 z"
       inkscape:connector-curvature="0"
       style="fill:#262626" />
    <path
       id="path1729"
       d="m 171.3,184.5 c 6.7,3.2 16.9,-2.4 29.8,-7.5 9.5,-3.7 39.7,-16.5 36,-19.4 -3.5,-2.8 -28,7.2 -41.3,12 -13.9,5 -30.1,12.3 -24.5,14.9 z"
       inkscape:connector-curvature="0"
       style="opacity:0.2" />
    <path
       id="path1731"
       d="m 162.3,62.2 c 0,0 0,2.9 -2.5,2.8 -2.5,-0.1 -9.2,-0.9 -12,-2.1 C 145,61.8 136.7,59 135.7,58 c -0.9,-0.9 -3.2,-4.1 -5.4,-6 -2.2,-1.9 -4.9,-3.8 -6.4,-5.8 -1.7,-2.2 -5.8,-6 -8.1,-6.1 -1.1,0 -2.7,1.5 -2.6,2.4 0.1,0.9 3.2,2.8 3.8,3.3 0.6,0.5 2.1,1.8 1.5,1.8 -0.6,0 -3.1,0.1 -3.5,0.3 -0.4,0.2 -0.1,1.4 1,1.4 1.1,0.1 3.4,0.5 3.8,0.1 0.5,-0.4 1.2,-0.6 1.2,-0.6 0,0 2.7,4.8 4.1,7 1.4,2.2 4.1,6.3 6.3,7.2 2.2,0.9 18.9,7.5 19.6,11.5 0.7,3.9 1.1,14.1 2.6,19.7 1.5,5.5 6.2,18.4 6,19.9 -0.2,1.5 -1.7,7.8 -1.5,16.3 0.1,8.5 -0.2,18.9 0.8,20 0.9,1.1 10.4,11.3 11.8,13.9 1.4,2.6 2.8,3.8 2.9,5.4 0.1,1.6 -0.2,9 2.8,9.2 3,0.2 5.2,-12.9 4.7,-14.9 -0.5,-1.9 -1.7,-1.9 -2.6,-1.9 -0.9,0 -2.1,0 -2.1,0 0,0 -1.8,-7.2 -3.2,-10.2 -1.5,-3.1 -4.5,-5.7 -4.5,-5.7 0,0 1.5,-13.6 2.5,-16 1.1,-2.5 2.3,-7 2.3,-7 h 2.7 c 0,0 3.8,4.3 7,7.5 3.2,3.2 13.7,15.1 16.9,14.9 3.2,-0.2 7.9,-7.1 9.9,-10.3 2,-3.2 4.4,-6.7 5.6,-6.8 1.2,-0.1 3.9,5.2 6.4,3.2 2.5,-2.1 -0.1,-7.2 -2.2,-9.4 -2.2,-2.2 -3.1,-4.4 -6,-4.4 -2.8,0.1 -2.7,2.9 -2.4,4.2 0.3,1.3 -0.3,2.8 -1.9,3.4 -1.7,0.5 -4.5,1.6 -7,3.2 -2,1.3 -3.1,3.4 -3.1,3.4 0,0 -7.6,-11.4 -9.5,-15.9 -1.9,-4.5 -3,-8.8 -4.9,-11.6 -1.9,-2.8 -7.3,-5.1 -7.4,-6.3 -0.1,-1.2 2.1,-15.1 4.8,-18.1 2.7,-3 10.7,-8.3 14.9,-9.7 4.2,-1.4 8,-1.7 9.9,-3.5 1.9,-1.8 11.9,-13.3 13.7,-14.1 1.8,-0.8 3.9,-2.1 5,-2.8 1.1,-0.6 4.8,-3.6 5.4,-4.6 0.5,-1 0.3,-4.2 -2.1,-4.5 -2.4,-0.3 -5.6,3.2 -7.2,2.9 -1.6,-0.4 -2.3,-1.3 -2.5,-2.4 -0.2,-1.1 -0.8,-2.1 -1.5,-2.2 -0.7,-0.2 -1.1,0.1 -0.6,1 0.5,0.9 0.5,2.4 0.4,3.2 -0.1,0.8 0.3,2.7 -0.1,3.8 -0.4,1.1 -0.9,2.8 -3.4,4.5 -2.1,1.5 -5.1,3.3 -8.2,6 -3.1,2.7 -3.1,3.6 -4.2,4.1 -1.2,0.5 -7.2,2.2 -13.1,4.8 -5.9,2.6 -11.3,3 -13.8,1.3 -2.5,-1.7 -3.9,-3.7 -2.7,-5.7 1.2,-2 8.7,-6.6 9.1,-12.9 0.4,-6.3 -7.3,-12.9 -15.1,-8.5 -7.8,4.4 -8.3,17 -7.7,18.9 0.5,2 3.7,2.4 3.7,2.4 z"
       inkscape:connector-curvature="0"
       style="fill:#fbd7c7" />
    <path
       id="path1733"
       d="m 170.7,47.6 c 1.6,4.1 1.8,6.9 2.5,7.2 0.6,0.4 2.3,-0.4 2.9,0.4 0.8,1 0,2.4 -1.8,3.5 -1.3,0.8 -3.4,1.9 -2.6,3.4 0.6,1 4.1,2.7 8.1,0 3.9,-2.7 5.8,-9.6 4,-15.2 -1.8,-5.6 -8,-7.1 -8.8,-7.2 -0.8,-0.2 -2.4,-1.9 -5.7,-1.7 -5.3,0.3 -7.7,2.8 -9.3,7.6 -1.6,4.8 -0.8,6 -1.6,7.2 -0.7,1.1 -1.9,1 -3.3,0.7 3.4,4.5 3.7,1 3.7,1 0,0 1.5,-7.1 3.1,-9.1 2.3,-3.1 7.2,-1.9 8.8,2.2 z"
       inkscape:connector-curvature="0"
       style="fill:#825012" />
    <path
       id="path1735"
       d="m 217.8,120.4 c 0,0 2.2,2.5 3.4,3.7 1.2,1.2 3.8,4.5 2.6,7.1 -1.1,2.3 -2.8,2.1 -4,1.5 -1.7,-0.9 -3.8,-3.8 -3.8,-3.8 0,0 1.8,-0.3 2.4,-2 0.6,-2.3 -0.6,-6.5 -0.6,-6.5 z"
       inkscape:connector-curvature="0"
       style="fill:#cc291f" />
    <path
       id="path1737"
       d="m 181.2,165.1 c 0,0 -0.1,4.1 -0.2,5.7 -0.1,1.6 0,7.5 -2,10.1 -1.8,2.3 -4.8,2.7 -5.2,0 -0.5,-3 -0.9,-10.4 -0.2,-11.1 4.1,2 7.6,-4.7 7.6,-4.7 z"
       inkscape:connector-curvature="0"
       style="fill:#cc291f" />
    <path
       id="path1739"
       d="m 155.7,104 c 0.8,2.9 -2.3,17.3 -2.9,21.2 -0.7,4.2 -0.4,5.7 1.5,6.5 2.6,1.1 4.8,-1.7 9.8,0.3 11.4,4.6 22.7,-1.1 28.3,-6 5.6,-4.9 4.7,-6 4.7,-6 0,0 -4.4,-11.6 -9.2,-15.3 -4.1,-3.2 -8.4,-5.3 -8.6,-6.8 C 178.5,93.2 182,82 182,82 c 0,0 -1.9,-2 -2.7,-5.6 -0.8,-3.6 -0.4,-7.3 -0.4,-7.3 0,0 -1.9,-0.1 -3.2,-0.6 -1.3,-0.6 -1.8,-1.1 -1.8,-1.1 0,0 -3.9,14.9 -10.5,13.4 -6.4,-1.4 -2.8,-16.4 -2.8,-16.4 0,0 -2.1,0.3 -3.2,0.1 -1.1,-0.2 -3.7,-0.8 -3.7,-0.8 0,0 1.3,2.6 0.3,5.6 -1,3 -3.2,7.1 -3.2,7.1 0,0 0.8,8.9 1.1,13.2 0.3,4.3 3,11.5 3.8,14.4 z"
       inkscape:connector-curvature="0"
       style="fill:#cc291f" />
    <path
       id="path1741"
       d="m 217,129.5 c 0,0 1.9,-0.6 2.4,-2 0.5,-1.4 0.2,-3.4 0.2,-3.4 0,0 2.8,3.6 1.4,5.8 -1.5,2.2 -4,-0.4 -4,-0.4 z"
       inkscape:connector-curvature="0"
       style="fill:#fbd7c7" />
    <path
       id="path1743"
       d="m 173.8,171.9 c 0,0 1,0.1 2.4,0 1.3,-0.2 2.8,-1.5 2.8,-1.5 0,0 0.4,7.3 -3,7.6 -2.7,0.1 -2.2,-6.1 -2.2,-6.1 z"
       inkscape:connector-curvature="0"
       style="fill:#fbd7c7" />
  </g>
</svg>
