<svg enable-background="new 0 0 128 64" viewBox="0 0 128 64" xmlns="http://www.w3.org/2000/svg"><path d="m73.1 37c-4.7-4-10.2-6.9-16.1-8.5l-5.3-1.4c-5.1-1.4-7.7-3-10.1-4.4-1.9-1.1-5.8-4.7-9.6-6.8 0 0-32 16-32 16l64 32 32-16c-4.1-1.9-11-3.7-14-5s-5-2.6-8.9-5.9z" fill="#39c"/><path d="m73.1 37c-4.7-4-10.2-6.9-16.1-8.5l-5.3-1.4c-5.1-1.4-7.7-3-10.1-4.4-1.9-1-9.6-6.7-9.6-6.7l-32 16 64 32 32-16c-4.1-1.9-11-3.7-14-5s-5-2.7-8.9-6z" fill="#39c"/><path d="m64 0-32 16c3.9 2.1 7.7 5.7 9.6 6.8 2.4 1.4 5 3 10.1 4.4l5.3 1.4c5.9 1.6 11.4 4.5 16.1 8.5 3.9 3.3 5.9 4.7 8.9 6s9.9 3.1 14 5l32-16z" fill="#fc0"/><path d="m64 0-32 16c3.9 2.1 7.7 5.7 9.6 6.8 2.4 1.4 5 3 10.1 4.4l5.3 1.4c5.9 1.6 11.4 4.5 16.1 8.5 3.9 3.3 5.9 4.7 8.9 6s9.9 3.1 14 5l32-16z" fill="#fc0"/><g fill="#fff"><path d="m86 41c-3-1.3-5-2.7-8.9-6-4.7-4-10.2-6.9-16.1-8.5l-5.3-1.4c-5.1-1.4-7.7-3-10.1-4.4-1.9-1.1-5.8-4.7-9.6-6.8 0 0-7.4 3.7-12 6 3.9 2.1 8.1 4.8 10 5.8 2.4 1.4 4.7 4.2 9.3 6.4s14.7 4.9 19.4 8.9c3.9 3.3 13.2 4.8 16.2 6.2s5 2.7 9.1 4.7l12-6c-4.1-1.8-11-3.6-14-4.9z" opacity=".2"/><path d="m84 42c-3-1.3-5-2.7-8.9-6-4.7-4-10.2-6.9-16.1-8.5l-5.3-1.4c-5.1-1.4-7.7-3-10.1-4.4-1.9-1.1-5.8-4.7-9.6-6.8 0 0-2.7 1.4-4 2 3.9 2.1 7.3 5.7 9 7 4.8 3.8 11.6 5.1 11.6 5.1 8.7 2.4 16 5.6 23.1 11.1 2.3 1.8 4.7 3.8 7.9 4.7 3.1.8 8.3 2.2 12.3 4.1l4-2c-4-1.8-10.9-3.6-13.9-4.9z" opacity=".5"/></g></svg>