<svg enable-background="new 0 0 128 64" viewBox="0 0 128 64" xmlns="http://www.w3.org/2000/svg"><path d="m64 0 32 16c-3.9 2.1-7.7 5.7-9.6 6.8-2.4 1.4-5 3-10.1 4.4l-5.3 1.3c-5.9 1.7-12.4 1.5-17.1 5.5-3.9 3.3-5.9 4.7-8.9 6s-8.9 6.1-13 8l-32-16z" fill="#fc0"/><path d="m53.9 34c4.7-4 11.2-3.8 17.1-5.5l5.3-1.4c5.1-1.4 7.7-3 10.1-4.4 1.9-1.1 5.8-4.7 9.6-6.8 0 0 32 16 32 16l-64 32.1-32-16c4.1-1.9 10-6.7 13-8s5-2.7 8.9-6z" fill="#39c"/><path d="m64 0 32 16c-3.9 2.1-7.7 5.7-9.6 6.8-2.4 1.4-5 3-10.1 4.4l-5.3 1.3c-5.9 1.7-12.4 1.5-17.1 5.5-3.9 3.3-5.9 4.7-8.9 6s-8.9 6.1-13 8l-32-16z" fill="#fc0"/><path d="m53.9 34c4.7-4 11.2-3.8 17.1-5.5l5.3-1.4c5.1-1.4 7.7-3 10.1-4.4 1.9-1.1 5.8-4.7 9.6-6.8 0 0 32 16 32 16l-64 32.1-32-16s10-6.7 13-8 5-2.7 8.9-6z" fill="#39c"/><g fill="#fff"><path d="m41 38c3-1.3 5-2.7 8.9-6 4.7-4 11.2-3.8 17.1-5.5l5.3-1.4c5.1-1.4 7.7-3 10.1-4.4 1.9-1.1 5.8-4.7 9.6-6.8 0 0 7.4 3.7 12 6-3.9 2.1-8.1 4.8-10 5.8-2.4 1.4-4.7 4.2-9.3 6.4-4.7 2.4-16 2.9-20.7 6.9-3.9 3.3-12 5.7-15 7s-4.9 4.1-9 6l-12-6c4.1-1.9 10-6.7 13-8z" opacity=".2"/><path d="m43 39c3-1.3 5-2.7 8.9-6 4.7-4 11.2-3.8 17.1-5.5l5.3-1.4c5.1-1.4 7.7-3 10.1-4.4 1.9-1.1 5.8-4.7 9.6-6.8 0 0 2.7 1.4 4 2-3.9 2.1-7.3 5.7-9 7-4.8 3.8-11.6 5.1-11.6 5.1-8.7 2.4-17 2.5-24.1 8.1-2.3 1.8-4.7 3.8-7.9 4.7-3.1.8-7.3 5.2-11.3 7.1l-4-2c4-1.8 9.9-6.6 12.9-7.9z" opacity=".5"/></g></svg>