<svg enable-background="new 0 0 64 32" viewBox="0 0 64 32" xmlns="http://www.w3.org/2000/svg"><path d="m52.2 13.9 3.8-1.9 8 4-8 4-3.8-1.9c-1.7-.9-1.7-3.3 0-4.2z" fill="#9c3"/><path d="m32 0 8 4-8 4c-6.6 3.3-6.6 12.7 0 16l8 4-8 4-32-16z" fill="#9c3"/><path d="m32 8 8-4 16 8-3.8 1.9c-1.7.9-1.7 3.3 0 4.2l3.8 1.9-16 8-8-4c-6.6-3.3-6.6-12.7 0-16z" fill="#39c"/><path d="m52.2 13.9 3.8-1.9 8 4-8 4-3.8-1.9c-1.7-.9-1.7-3.3 0-4.2z" fill="#9c3"/><path d="m32 0 8 4-8 4c-6.6 3.3-6.6 12.7 0 16l8 4-8 4-32-16z" fill="#9c3"/><path d="m32 8 8-4 16 8-3.8 1.9c-1.7.9-1.7 3.3 0 4.2l3.8 1.9-16 8-8-4c-6.6-3.3-6.6-12.7 0-16z" fill="#39c"/><path d="m40 4-8 4c-6.6 3.3-6.6 12.7 0 16l8 4-6-4.5c-4.6-3.5-4-10.6 1.2-13.1l8.8-4.4z" opacity=".15"/><path d="m56 12-3.8 1.9c-1.7.9-1.7 3.3 0 4.2l3.8 1.9-4 2-2.9-1.5c-3.1-1.6-2.6-6.1.8-7z" opacity=".15"/></svg>