<svg enable-background="new 0 0 128 64" viewBox="0 0 128 64" xmlns="http://www.w3.org/2000/svg"><path d="m81.4 39.4c-6.7-3.4-14.5-.7-21.8-.6-6.7.2-11.8-.2-16.6 2.2s-7.7 5.3-9 6-2 1-2 1l32 16 32-16s-.1 0-2-1c-1.1-.6-12.6-7.6-12.6-7.6z" fill="#39c"/><path d="m81.4 39.4c-6.7-3.4-14.5-.7-21.8-.6-6.7.2-11.8-.2-16.6 2.2s-7.7 5.3-9 6-2 1-2 1l32 16 32-16s-.1 0-2-1c-1.1-.6-12.6-7.6-12.6-7.6z" fill="#39c"/><path d="m32 48s.7-.3 2-1 4.2-3.6 9-6 9.9-2 16.6-2.2c7.3-.2 15.1-2.8 21.8.6 0 0 11.5 7 12.6 7.6 1.9 1 2 1 2 1l32-16-64-32-64 32z" fill="#fc0"/><path d="m32 48s.7-.3 2-1 4.2-3.6 9-6 9.9-2 16.6-2.2c7.3-.2 15.1-2.8 21.8.6 0 0 11.5 7 12.6 7.6 1.9 1 2 1 2 1l32-16-64-32-64 32z" fill="#fc0"/><g fill="#fff"><path d="m88 52 12-6s-.8-.3-2-1c-.7-.4-3.3-3.3-14-9-7.8-4.1-13.9-2.4-23-2-20.2.9-23.2 6.5-28 9-2.1 1.1-5 3-5 3l12 6s2-1.7 3-2 2.8-4.9 10-5 11.4 2.8 16 2 10.2-1 13 1 6 4 6 4z" opacity=".2"/><path d="m94 49 4-2s-3.3-2.2-4-3-12-6.2-16-6.8-5-1.6-10-1-11.2 1.3-16 .8-17.3 7-19 8-3 2-3 2l4 2s5.1-3.7 7-5 4.8-2.9 8-3 8.9-1.5 12-1 7.6-.1 12 0 13.7 4.4 16 6 5 3 5 3z" opacity=".5"/></g></svg>