<svg enable-background="new 0 0 128 64" viewBox="0 0 128 64" xmlns="http://www.w3.org/2000/svg"><path d="m46.6 24.6c6.7 3.4 14.5.7 21.8.6 6.7-.2 11.8.2 16.6-2.2s7.7-5.3 9-6 2-1 2-1l-32-16-32 16s.1 0 2 1c1.1.6 12.6 7.6 12.6 7.6z" fill="#39c"/><path d="m46.6 24.6c6.7 3.4 14.5.7 21.8.6 6.7-.2 11.8.2 16.6-2.2s7.7-5.3 9-6 2-1 2-1l-32-16-32 16s.1 0 2 1c1.1.6 12.6 7.6 12.6 7.6z" fill="#39c"/><path d="m96 16s-.7.3-2 1-4.2 3.6-9 6-9.9 2-16.6 2.2c-7.3.2-15.1 2.8-21.8-.6 0 0-11.5-7-12.6-7.6-1.9-1-2-1-2-1l-32 16 64 32 64-32z" fill="#fc0"/><path d="m96 16s-.7.3-2 1-4.2 3.6-9 6-9.9 2-16.6 2.2c-7.3.2-15.1 2.8-21.8-.6 0 0-11.5-7-12.6-7.6-1.9-1-2-1-2-1l-32 16 64 32 64-32z" fill="#fc0"/><g fill="#fff"><path d="m40 12-12 6s.8.3 2 1c.7.4 9.3 5.3 20 11 7.8 4.1 13.9-1.6 23-2 20.2-.9 17.2-4.5 22-7 2.1-1.1 5-3 5-3l-12-6s-5 1.6-6 2c-3.9 1.4-16.4 5.2-21 5.9s-13.2-.9-16-2.9-5-5-5-5z" opacity=".2"/><path d="m34 15-4 2s3.3 1.2 4 2 9 7.4 13 8 5 1.6 10 1 14.2-1.5 19-1 17.3-7 19-8 3-2 3-2l-4-2s-5.1 3.7-7 5-4.8 2.9-8 3-8.9 1.5-12 1-7.6.1-12 0-13.7-4.4-16-6-5-3-5-3z" opacity=".5"/></g></svg>