<svg enable-background="new 0 0 128 64" viewBox="0 0 128 64" xmlns="http://www.w3.org/2000/svg"><path d="m81.8 33c-11.7-3.6 2.3-11 7.9-13.9l6.3-3.1-32-16-64 32 64 32 32-16-2-1c-4.9-2.5-1.4-10.6-12.2-14z" fill="#39c"/><path d="m81.8 33c-11.7-3.6 2.3-11 7.9-13.9l6.3-3.1-32-16-64 32 64 32 32-16-2-1c-4.9-2.5-1.4-10.6-12.2-14z" fill="#39c"/><path d="m96 16-6.3 3.1c-5.6 2.9-19.6 10.3-7.9 13.9 10.8 3.4 7.3 11.5 12.2 14l2 1 32-16z" fill="#fc0"/><path d="m96 16-6.3 3.1c-5.6 2.9-19.6 10.3-7.9 13.9 10.8 3.4 7.3 11.5 12.2 14l2 1 32-16z" fill="#fc0"/><g fill="#fff"><path d="m100 18-12-6s-.8.4-4 2-20.5 8-17 16 15.9 6.5 19 10-3.6 7.6-2 9 4 3 4 3l12-6s-2.5-.5-4-2-5.9-6.7-8-10-6.5-3.6-4-6 16-10 16-10z" opacity=".2"/><path d="m98 17-4-2s-2.1 1.2-4 2c-1.6.7-11.2 4.5-13 8-2.6 4.8-1.7 6.7 6 10s7.3 10.9 9 12 2 2 2 2l4-2s-3.6-2.7-8-9-11.3-6.4-11-9 2.7-6 8-7 11-5 11-5z" opacity=".5"/></g></svg>