<svg enable-background="new 0 0 128 64" viewBox="0 0 128 64" xmlns="http://www.w3.org/2000/svg"><path d="m49 31c-10.8-3.4-10.1-11.5-15-14l-2-1-32 16 32 16 6.3-3.1c5.6-2.9 22.4-10.3 10.7-13.9z" fill="#39c"/><path d="m49 31c-10.8-3.4-10.1-11.5-15-14l-2-1-32 16 32 16 6.3-3.1c5.6-2.9 22.4-10.3 10.7-13.9z" fill="#39c"/><path d="m64 0-32 16 2 1c4.9 2.5 4.2 10.6 15 14 11.7 3.6-5.1 11-10.7 13.9l-6.3 3.1 32 16 64-32z" fill="#fc0"/><path d="m64 0-32 16 2 1c4.9 2.5 4.2 10.6 15 14 11.7 3.6-5.1 11-10.7 13.9l-6.3 3.1 32 16 64-32z" fill="#fc0"/><g fill="#fff"><path d="m24 44 12 6s.8-.4 4-2 17.5-7 14-15-2.8-7.5-7.2-9c-6-2-4.6-4.7-6.2-6.1s-4.6-3.9-4.6-3.9l-12 6s5.8 2.3 7.8 3c9.5 3.1 4.7 11.6 2.2 14s-10 7-10 7z" opacity=".2"/><path d="m30 47 4 2s2.1-1.2 4-2c1.6-.7 10.4-5 13-8 3.5-4.1 4.5-6.7-3.2-10s-10-10.9-11.8-12-2-2-2-2l-4 2s4.9-.5 8.8 7.8c3.2 7 10.5 7.6 10.2 10.2s-2.7 6-8 7-11 5-11 5z" opacity=".5"/></g></svg>