<svg enable-background="new 0 0 32 16" viewBox="0 0 32 16" xmlns="http://www.w3.org/2000/svg"><path d="m16 0 16 8-16 8-16-8z" fill="#9c3"/><path d="m16 0 16 8-16 8-16-8z" fill="#9c3"/><path d="m16 0 16 8-16 8-16-8z" fill="#9c3"/><path d="m16 0 16 8-16 8-16-8z" fill="#9c3"/><g fill="#539b00"><ellipse cx="10" cy="5" rx="2" ry="1"/><ellipse cx="7" cy="10" rx="2" ry="1"/><ellipse cx="16" cy="8" rx="2" ry="1"/><ellipse cx="18" cy="3" rx="2" ry="1"/><ellipse cx="24" cy="9" rx="2" ry="1"/><ellipse cx="16" cy="14" rx="2" ry="1"/></g><ellipse cx="8" cy="6.5" fill="#cc291f" rx="3" ry="1.5"/><ellipse cx="8" cy="6.5" fill="#fc0" rx="1" ry=".5"/><ellipse cx="16" cy="2.5" fill="#cc291f" rx="3" ry="1.5"/><ellipse cx="16" cy="2.5" fill="#fc0" rx="1" ry=".5"/><ellipse cx="19" cy="6.5" fill="#cc291f" rx="3" ry="1.5"/><ellipse cx="19" cy="6.5" fill="#fc0" rx="1" ry=".5"/><ellipse cx="26" cy="8.5" fill="#cc291f" rx="3" ry="1.5"/><ellipse cx="26" cy="8.5" fill="#fc0" rx="1" ry=".5"/><ellipse cx="18" cy="12.5" fill="#cc291f" rx="3" ry="1.5"/><ellipse cx="18" cy="12.5" fill="#fc0" rx="1" ry=".5"/><ellipse cx="10" cy="10.5" fill="#cc291f" rx="3" ry="1.5"/><ellipse cx="10" cy="10.5" fill="#fc0" rx="1" ry=".5"/></svg>