<svg enable-background="new 0 0 64 32" viewBox="0 0 64 32" xmlns="http://www.w3.org/2000/svg"><path d="m32 0 16 8-1.4.7c-6 3-6 11.6 0 14.6l1.4.7-16 8-32-16z" fill="#9c3"/><path d="m46.6 8.7 1.4-.7 16 8-16 8-1.4-.7c-6-3-6-11.6 0-14.6z" fill="#39c"/><path d="m32 0 16 8-1.4.7c-6 3-6 11.6 0 14.6l1.4.7-16 8-32-16z" fill="#9c3"/><path d="m46.6 8.7 1.4-.7 16 8-16 8-1.4-.7c-6-3-6-11.6 0-14.6z" fill="#39c"/><path d="m52 10-4-2-1.4.7c-6 3-6 11.6 0 14.6l1.4.7c-3.9-3.9-2.9-10.6 2.1-13.1z" opacity=".15"/></svg>