<svg enable-background="new 0 0 64 32" viewBox="0 0 64 32" xmlns="http://www.w3.org/2000/svg"><path d="m24.6 27.7-.6.3 8 4 8-4-.5-.3c-4.7-2.3-10.3-2.3-14.9 0z" fill="#9c3"/><path d="m32 0-32 16 8 4 8.8-4.4c9.6-4.8 20.9-4.8 30.5 0l8.7 4.4 8-4z" fill="#9c3"/><path d="m16.8 15.6-8.8 4.4 16 8 .6-.3c4.7-2.3 10.2-2.3 14.9 0l.5.3 16-8-8.8-4.4c-9.6-4.8-20.8-4.8-30.4 0z" fill="#39c"/><path d="m24.6 27.7-.6.3 8 4 8-4-.5-.3c-4.7-2.3-10.3-2.3-14.9 0z" fill="#9c3"/><path d="m32 0-32 16 8 4 8.8-4.4c9.6-4.8 20.9-4.8 30.5 0l8.7 4.4 8-4z" fill="#9c3"/><path d="m16.8 15.6-8.8 4.4 16 8 .6-.3c4.7-2.3 10.2-2.3 14.9 0l.5.3 16-8-8.8-4.4c-9.6-4.8-20.8-4.8-30.4 0z" fill="#39c"/><path d="m46.6 19.3 5.4 2.7 4-2-8.8-4.4c-9.6-4.8-20.9-4.8-30.5 0l-8.7 4.4 4 2 5.4-2.7c9.2-4.6 20-4.6 29.2 0z" opacity=".15"/></svg>