<svg enable-background="new 0 0 64 32" viewBox="0 0 64 32" xmlns="http://www.w3.org/2000/svg"><path d="m39.2 4.4.8-.4-8-4-8 4 .7.4c4.6 2.3 10 2.3 14.5 0z" fill="#9c3"/><path d="m56 12-8.8 4.4c-9.6 4.8-20.9 4.8-30.5 0l-8.7-4.4-8 4 32 16 32-16z" fill="#9c3"/><path d="m47.3 16.4 8.7-4.4-16-8-.8.4c-4.6 2.3-9.9 2.3-14.5 0l-.7-.4-16 8 8.8 4.4c9.6 4.8 20.8 4.8 30.5 0z" fill="#39c"/><path d="m39.2 4.4.8-.4-8-4-8 4 .7.4c4.6 2.3 10 2.3 14.5 0z" fill="#9c3"/><path d="m56 12-8.8 4.4c-9.6 4.8-20.9 4.8-30.5 0l-8.7-4.4-8 4 32 16 32-16z" fill="#9c3"/><path d="m47.3 16.4 8.7-4.4-16-8-.8.4c-4.6 2.3-9.9 2.3-14.5 0l-.7-.4-16 8 8.8 4.4c9.6 4.8 20.8 4.8 30.5 0z" fill="#39c"/><path d="m40 4 4 2-4.6 2.3c-4.7 2.3-10.1 2.3-14.8 0l-4.6-2.3 4-2 .7.4c4.6 2.3 9.9 2.3 14.5 0z" opacity=".15"/></svg>