<?xml version="1.0" encoding="UTF-8"?>
<!-- Created with Inkscape (http://www.inkscape.org/) -->
<svg width="43.482mm" height="25.186mm" version="1.1" viewBox="0 0 43.482 25.186" xmlns="http://www.w3.org/2000/svg" xmlns:cc="http://creativecommons.org/ns#" xmlns:dc="http://purl.org/dc/elements/1.1/" xmlns:rdf="http://www.w3.org/1999/02/22-rdf-syntax-ns#">
 <metadata>
  <rdf:RDF>
   <cc:Work rdf:about="">
    <dc:format>image/svg+xml</dc:format>
    <dc:type rdf:resource="http://purl.org/dc/dcmitype/StillImage"/>
    <dc:title/>
   </cc:Work>
  </rdf:RDF>
 </metadata>
 <g transform="translate(43.93 -124.35)">
  <g transform="matrix(.35278 0 0 -.35278 -11.593 131.2)">
   <path d="m0 0-0.021-7.324-2.035 1.178 0.021 7.32z" fill="#2a2c2e"/>
  </g>
  <g transform="matrix(.35278 0 0 -.35278 -12.311 130.79)">
   <path d="m0 0-0.021-7.32-7.338-4.265 0.022 7.323z" fill="#3d3f42"/>
  </g>
  <g transform="matrix(.35278 0 0 -.35278 -11.593 131.2)">
   <path d="m0 0-0.021-7.324-7.335-4.262 0.02 7.319z" fill="#c5c5c5"/>
  </g>
  <g transform="matrix(.35278 0 0 -.35278 -14.181 132.71)">
   <path d="m0 0-0.021-7.319-2.037 1.174 0.022 7.324z" fill="#898989"/>
  </g>
  <g transform="matrix(.35278 0 0 -.35278 -15.169 133.28)">
   <path d="m0 0-0.021-7.32-2.036 1.174 0.02 7.324z" fill="#2a2c2e"/>
  </g>
  <g transform="matrix(.35278 0 0 -.35278 -15.887 132.86)">
   <path d="m0 0-0.021-7.324-7.335-4.262 0.02 7.32z" fill="#3d3f42"/>
  </g>
  <g transform="matrix(.35278 0 0 -.35278 -17.757 134.78)">
   <path d="m0 0-0.021-7.321-2.035 1.175 0.02 7.32z" fill="#898989"/>
  </g>
  <g transform="matrix(.35278 0 0 -.35278 -15.169 133.28)">
   <path d="m0 0-0.021-7.32-7.337-4.263 0.021 7.321z" fill="#c5c5c5"/>
  </g>
  <g transform="matrix(.35278 0 0 -.35278 -15.169 133.28)">
   <path d="m0 0-7.337-4.262-2.036 1.174 7.336 4.266z" fill="#fff"/>
  </g>
  <g transform="matrix(.35278 0 0 -.35278 -18.746 135.36)">
   <path d="m0 0-0.021-7.323-2.034 1.174 0.019 7.324z" fill="#2a2c2e"/>
  </g>
  <g transform="matrix(.35278 0 0 -.35278 -19.464 134.94)">
   <path d="m0 0-0.02-7.324-7.337-4.262 0.02 7.32z" fill="#3d3f42"/>
  </g>
  <g transform="matrix(.35278 0 0 -.35278 -18.746 135.36)">
   <path d="m0 0-0.021-7.323-7.335-4.263 0.02 7.321z" fill="#c5c5c5"/>
  </g>
  <g transform="matrix(.35278 0 0 -.35278 -18.746 135.36)">
   <path d="m0 0-7.336-4.265-2.037 1.174 7.337 4.266z" fill="#fff"/>
  </g>
  <g transform="matrix(.35278 0 0 -.35278 -21.334 136.86)">
   <path d="m0 0-0.021-7.321-2.036 1.175 0.02 7.32z" fill="#898989"/>
  </g>
  <g transform="matrix(.35278 0 0 -.35278 -22.322 137.44)">
   <path d="m0 0-0.021-7.321-2.037 1.175 0.021 7.321z" fill="#2a2c2e"/>
  </g>
  <g transform="matrix(.35278 0 0 -.35278 -23.04 137.02)">
   <path d="m0 0-0.021-7.32-7.336-4.262 0.022 7.319z" fill="#3d3f42"/>
  </g>
  <g transform="matrix(.35278 0 0 -.35278 -24.91 138.94)">
   <path d="m0 0-0.019-7.323-2.037 1.178 0.022 7.32z" fill="#898989"/>
  </g>
  <g transform="matrix(.35278 0 0 -.35278 -22.322 137.44)">
   <path d="m0 0-0.021-7.321-7.335-4.265 0.019 7.323z" fill="#c5c5c5"/>
  </g>
  <g transform="matrix(.35278 0 0 -.35278 -22.322 137.44)">
   <path d="m0 0-7.337-4.263-2.035 1.175 7.335 4.263z" fill="#fff"/>
  </g>
  <g transform="matrix(.35278 0 0 -.35278 -25.898 139.51)">
   <path d="m0 0-0.021-7.324-2.037 1.176 0.022 7.322z" fill="#2a2c2e"/>
  </g>
  <g transform="matrix(.35278 0 0 -.35278 -26.616 139.1)">
   <path d="m0 0-0.022-7.322-7.337-4.263 0.022 7.319z" fill="#3d3f42"/>
  </g>
  <g transform="matrix(.35278 0 0 -.35278 -28.487 141.02)">
   <path d="m0 0-0.021-7.32-2.035 1.174 0.021 7.32z" fill="#898989"/>
  </g>
  <g transform="matrix(.35278 0 0 -.35278 -25.898 139.52)">
   <path d="m0 0-7.338-4.263-2.035 1.174 7.337 4.266z" fill="#fff"/>
  </g>
  <g transform="matrix(.35278 0 0 -.35278 -25.898 139.52)">
   <path d="m0 0-0.021-7.321-7.338-4.262 0.021 7.32z" fill="#c5c5c5"/>
  </g>
  <g transform="matrix(.35278 0 0 -.35278 -29.474 141.59)">
   <path d="m0 0-0.021-7.324-2.036 1.178 0.02 7.32z" fill="#2a2c2e"/>
  </g>
  <g transform="matrix(.35278 0 0 -.35278 -29.474 141.59)">
   <path d="m0 0-7.336-4.262-2.038 1.174 7.337 4.262z" fill="#fff"/>
  </g>
  <g transform="matrix(.35278 0 0 -.35278 -32.063 143.1)">
   <path d="m0 0 7.336 4.262-2.037 1.174-7.337-4.262zm50.688 29.452 7.336 4.267-2.034 1.174-7.337-4.262zm-10.137-5.888 7.337 4.262-2.036 1.178-7.336-4.266zm-10.138-5.892 7.336 4.265-2.036 1.174-7.337-4.265zm-10.139-5.891 7.338 4.263-2.037 1.175-7.335-4.263zm-10.138-5.892 7.339 4.265-2.036 1.174-7.337-4.265zm37.517 35.812 22.15-12.79-61.463-35.72-22.152 12.79z" fill="#44474a"/>
  </g>
  <g transform="matrix(.35278 0 0 -.35278 -11.593 131.2)">
   <path d="m0 0-7.336-4.267-2.036 1.179 7.337 4.262z" fill="#fff"/>
  </g>
  <g transform="matrix(.35278 0 0 -.35278 -43.93 136.95)">
   <path d="m0 0 61.427 35.699 16.593-9.58-61.427-35.695z" fill="#9fce55"/>
  </g>
  <g transform="matrix(.35278 0 0 -.35278 -6.2919 133.56)">
   <path d="m0 0-61.456-35.713-28.653 16.53 61.438 35.703 3.274-1.856-61.466-35.72 22.152-12.79 61.463 35.72z" fill="#fff"/>
  </g>
  <g transform="matrix(.35278 0 0 -.35278 -6.3018 133.56)">
   <path d="m0 0 16.593-9.579-61.426-35.699-16.595 9.582z" fill="#9fce55"/>
  </g>
 </g>
</svg>
