<?xml version="1.0" encoding="UTF-8" standalone="no"?>
<!-- Created with Inkscape (http://www.inkscape.org/) -->

<svg
   xmlns:dc="http://purl.org/dc/elements/1.1/"
   xmlns:cc="http://creativecommons.org/ns#"
   xmlns:rdf="http://www.w3.org/1999/02/22-rdf-syntax-ns#"
   xmlns:svg="http://www.w3.org/2000/svg"
   xmlns="http://www.w3.org/2000/svg"
   xmlns:sodipodi="http://sodipodi.sourceforge.net/DTD/sodipodi-0.dtd"
   xmlns:inkscape="http://www.inkscape.org/namespaces/inkscape"
   width="79.600075mm"
   height="106.79002mm"
   viewBox="0 0 79.600075 106.79002"
   version="1.1"
   id="svg105002"
   inkscape:version="0.92.3 (2405546, 2018-03-11)"
   sodipodi:docname="business-8.svg">
  <defs
     id="defs104996">
    <clipPath
       clipPathUnits="userSpaceOnUse"
       id="clipPath322147">
      <path
         d="m 1764.52,1286.03 h 11.18 v -15.21 h -11.18 z"
         id="path322145"
         inkscape:connector-curvature="0" />
    </clipPath>
    <clipPath
       clipPathUnits="userSpaceOnUse"
       id="clipPath322131">
      <path
         d="m 1773.51,1280.73 h 11.52 v -15.52 h -11.52 z"
         id="path322129"
         inkscape:connector-curvature="0" />
    </clipPath>
    <clipPath
       clipPathUnits="userSpaceOnUse"
       id="clipPath322107">
      <path
         d="m 1764.52,1301.48 h 11.18 v -15.2 h -11.18 z"
         id="path322105"
         inkscape:connector-curvature="0" />
    </clipPath>
    <clipPath
       clipPathUnits="userSpaceOnUse"
       id="clipPath322091">
      <path
         d="m 1773.51,1296.18 h 11.52 v -15.51 h -11.52 z"
         id="path322089"
         inkscape:connector-curvature="0" />
    </clipPath>
    <clipPath
       clipPathUnits="userSpaceOnUse"
       id="clipPath322047">
      <path
         d="m 1799.13,1337.36 h 26.31 v -39.1 h -26.31 z"
         id="path322045"
         inkscape:connector-curvature="0" />
    </clipPath>
    <clipPath
       clipPathUnits="userSpaceOnUse"
       id="clipPath322027">
      <path
         d="m 1796.19,1286.48 h 66.68 v -59.72 h -66.68 z"
         id="path322025"
         inkscape:connector-curvature="0" />
    </clipPath>
    <clipPath
       clipPathUnits="userSpaceOnUse"
       id="clipPath322011">
      <path
         d="m 1796.19,1311.08 h 72.57 v -158.72 h -72.57 z"
         id="path322009"
         inkscape:connector-curvature="0" />
    </clipPath>
    <clipPath
       clipPathUnits="userSpaceOnUse"
       id="clipPath321991">
      <path
         d="m 1796.19,1245.32 h 72.54 v -76.87 h -72.54 z"
         id="path321989"
         inkscape:connector-curvature="0" />
    </clipPath>
    <clipPath
       clipPathUnits="userSpaceOnUse"
       id="clipPath321887">
      <path
         d="m 1753.06,1208.07 h 33.89 v -59.11 h -33.89 z"
         id="path321885"
         inkscape:connector-curvature="0" />
    </clipPath>
    <clipPath
       clipPathUnits="userSpaceOnUse"
       id="clipPath321871">
      <path
         d="m 1712.55,1232.55 h 31.64 v -66.84 h -31.64 z"
         id="path321869"
         inkscape:connector-curvature="0" />
    </clipPath>
    <clipPath
       clipPathUnits="userSpaceOnUse"
       id="clipPath321855">
      <path
         d="m 1744.19,1238.23 h 42.76 v -87.3 h -42.76 z"
         id="path321853"
         inkscape:connector-curvature="0" />
    </clipPath>
  </defs>
  <sodipodi:namedview
     id="base"
     pagecolor="#ffffff"
     bordercolor="#666666"
     borderopacity="1.0"
     inkscape:pageopacity="0.0"
     inkscape:pageshadow="2"
     inkscape:zoom="0.35"
     inkscape:cx="-329.57468"
     inkscape:cy="824.66505"
     inkscape:document-units="mm"
     inkscape:current-layer="layer1"
     showgrid="false"
     fit-margin-top="0"
     fit-margin-left="0"
     fit-margin-right="0"
     fit-margin-bottom="0"
     inkscape:window-width="1366"
     inkscape:window-height="716"
     inkscape:window-x="-8"
     inkscape:window-y="-8"
     inkscape:window-maximized="1" />
  <metadata
     id="metadata104999">
    <rdf:RDF>
      <cc:Work
         rdf:about="">
        <dc:format>image/svg+xml</dc:format>
        <dc:type
           rdf:resource="http://purl.org/dc/dcmitype/StillImage" />
        <dc:title></dc:title>
      </cc:Work>
    </rdf:RDF>
  </metadata>
  <g
     inkscape:label="Layer 1"
     inkscape:groupmode="layer"
     id="layer1"
     transform="translate(-193.0333,-260.23595)">
    <g
       id="g321801"
       transform="matrix(0.35277777,0,0,-0.35277777,194.05318,345.49514)">
      <path
         d="m 0,0 95.396,-55.532 c 3.868,-2.252 10.165,-2.252 14.06,0 L 219.801,8.169 c 1.962,1.135 2.938,2.618 2.934,4.109 l 0.012,-3.815 c 0.005,-1.487 -0.976,-2.971 -2.934,-4.105 l -110.34,-63.702 c -3.901,-2.251 -10.197,-2.251 -14.073,0 L 0.009,-3.808 C -1.913,-2.69 -2.874,-1.23 -2.878,0.237 L -2.891,4.049 C -2.887,2.581 -1.924,1.122 0,0"
         style="fill:#7f7e74;fill-opacity:1;fill-rule:nonzero;stroke:none"
         id="path321803"
         inkscape:connector-curvature="0" />
    </g>
    <g
       id="g321805"
       transform="matrix(0.35277777,0,0,-0.35277777,194.07037,342.62023)">
      <path
         d="m 0,0 c -3.902,-2.252 -3.92,-5.895 -0.049,-8.149 l 95.397,-55.533 c 3.867,-2.252 10.164,-2.252 14.059,0 L 219.752,0.02 c 3.895,2.251 3.912,5.902 0.048,8.154 l -95.392,55.532 c -3.876,2.252 -10.17,2.252 -14.072,0 z"
         style="fill:#afa198;fill-opacity:1;fill-rule:nonzero;stroke:none"
         id="path321807"
         inkscape:connector-curvature="0" />
    </g>
    <g
       id="g321809"
       transform="matrix(0.35277777,0,0,-0.35277777,238.0219,361.9937)">
      <path
         d="m 0,0 -15.18,-8.765 c -3.895,-2.252 -10.192,-2.252 -14.059,0 l -95.397,55.533 c -3.871,2.254 -3.853,5.897 0.049,8.149 l 15.193,8.777 z"
         style="fill:#39b44a;fill-opacity:1;fill-rule:nonzero;stroke:none"
         id="path321811"
         inkscape:connector-curvature="0" />
    </g>
    <g
       id="g321813"
       transform="matrix(0.35277777,0,0,-0.35277777,253.46282,293.80082)">
      <path
         d="M 0,0 V 0.003 0.054 0.024 L -42.785,-24.543 V -147.815 L 0,-123.126 V -0.002 Z"
         style="fill:#83e8ff;fill-opacity:1;fill-rule:nonzero;stroke:none"
         id="path321815"
         inkscape:connector-curvature="0" />
    </g>
    <g
       id="g321817"
       transform="matrix(0.35277777,0,0,-0.35277777,261.45303,327.93448)">
      <path
         d="m 0,0 c -11.598,7.833 -29.809,10.499 -29.809,10.499 l -35.52,-20.421 c 0,-4.519 -0.146,-10.019 -0.146,-14.025 l 11.458,-6.633 c 4.213,-2.27 8.701,-3.902 13.395,-4.438 7.579,-0.867 16.058,-0.42 22.871,3.227 l 10.611,5.893 c 6.003,3.209 10.576,9.222 13.926,14.666 0,0 0.668,6.199 -6.786,11.232"
         style="fill:#dbdbdb;fill-opacity:1;fill-rule:nonzero;stroke:none"
         id="path321819"
         inkscape:connector-curvature="0" />
    </g>
    <g
       id="g321821"
       transform="matrix(0.35277777,0,0,-0.35277777,261.33931,332.8589)">
      <path
         d="M 0,0 C -11.954,7.282 -30.292,9.733 -30.292,9.733 L -65.04,-15.41 c 0,-4.518 -0.044,-10.117 -0.044,-14.119 l 9.472,-6.114 c 4.213,-2.265 8.935,-4.793 14.463,-5.324 10.616,-1.021 16.421,1.496 23.238,5.143 0,0 8.893,5.547 12.376,8.392 6.128,5.008 8.941,9.354 12.05,16.596 0,0 1.336,6.053 -6.515,10.836"
         style="fill:#dbdbdb;fill-opacity:1;fill-rule:nonzero;stroke:none"
         id="path321823"
         inkscape:connector-curvature="0" />
    </g>
    <g
       id="g321825"
       transform="matrix(0.35277777,0,0,-0.35277777,250.36879,314.64673)">
      <path
         d="m 0,0 -33.942,-19.514 v -20.399 l 11.421,-6.145 c 10.715,-5.77 23.938,-5.656 34.435,-0.038 l 9.832,5.261 c 7.885,4.221 13.792,10.957 16.638,18.797 C 38.013,-11.307 15.605,-4.998 0,0"
         style="fill:#dbdbdb;fill-opacity:1;fill-rule:nonzero;stroke:none"
         id="path321827"
         inkscape:connector-curvature="0" />
    </g>
    <g
       id="g321829"
       transform="matrix(0.35277777,0,0,-0.35277777,253.46282,293.78187)">
      <path
         d="m 0,0 -42.785,-24.597 -40.785,23.233 42.945,24.69 z"
         style="fill:#c4c4c4;fill-opacity:1;fill-rule:nonzero;stroke:none"
         id="path321831"
         inkscape:connector-curvature="0" />
    </g>
    <g
       id="g321833"
       transform="matrix(0.35277777,0,0,-0.35277777,223.98107,337.71234)">
      <path
         d="M 0,0 V 123.163 L 40.785,99.931 c 0.004,-25.406 0.066,-93.978 0,-123.273 z"
         style="fill:#a0a0a0;fill-opacity:1;fill-rule:nonzero;stroke:none"
         id="path321835"
         inkscape:connector-curvature="0" />
    </g>
    <g
       id="g321837"
       transform="matrix(0.35277777,0,0,-0.35277777,235.09598,312.95348)">
      <path
         d="M 0,0 V 0.002 0.055 0.023 l -42.788,-24.57 v -88.36 L 0,-88.222 v 88.219 z"
         style="fill:#a6f2ff;fill-opacity:1;fill-rule:nonzero;stroke:none"
         id="path321839"
         inkscape:connector-curvature="0" />
    </g>
    <g
       id="g321841"
       transform="matrix(0.35277777,0,0,-0.35277777,235.09598,312.93419)">
      <path
         d="m 0,0 -42.788,-24.602 -31.61,18.081 42.945,24.689 z"
         style="fill:#c4c4c4;fill-opacity:1;fill-rule:nonzero;stroke:none"
         id="path321843"
         inkscape:connector-curvature="0" />
    </g>
    <g
       id="g321845"
       transform="matrix(0.35277777,0,0,-0.35277777,208.84987,346.36985)">
      <path
         d="m 0,0 v 88.257 l 31.61,-18.08 c 0.005,-25.404 0.066,-59.068 0,-88.361 z"
         style="fill:#93dbe2;fill-opacity:1;fill-rule:nonzero;stroke:none"
         id="path321847"
         inkscape:connector-curvature="0" />
    </g>
    <g
       transform="matrix(0.35277777,0,0,-0.35277777,-395.2986,756.30107)"
       id="g321849">
      <g
         id="g321851" />
      <g
         id="g321863">
        <g
           clip-path="url(#clipPath321855)"
           id="g321861"
           style="opacity:0.39999396">
          <g
             transform="translate(1744.1875,1164)"
             id="g321859">
            <path
               d="M 0,0 42.758,74.229 V 61.413 L 0,-13.07 Z"
               style="fill:#ffffff;fill-opacity:1;fill-rule:nonzero;stroke:none"
               id="path321857"
               inkscape:connector-curvature="0" />
          </g>
        </g>
      </g>
    </g>
    <g
       transform="matrix(0.35277777,0,0,-0.35277777,-395.2986,756.30107)"
       id="g321865">
      <g
         id="g321867" />
      <g
         id="g321879">
        <g
           clip-path="url(#clipPath321871)"
           id="g321877"
           style="opacity:0.39999396">
          <g
             transform="translate(1712.5469,1178.8477)"
             id="g321875">
            <path
               d="M 0,0 30.973,53.703 31.61,53.339 31.641,41.979 0,-13.143 Z"
               style="fill:#ffffff;fill-opacity:1;fill-rule:nonzero;stroke:none"
               id="path321873"
               inkscape:connector-curvature="0" />
          </g>
        </g>
      </g>
    </g>
    <g
       transform="matrix(0.35277777,0,0,-0.35277777,-395.2986,756.30107)"
       id="g321881">
      <g
         id="g321883" />
      <g
         id="g321895">
        <g
           clip-path="url(#clipPath321887)"
           id="g321893"
           style="opacity:0.39999396">
          <g
             transform="translate(1753.0635,1148.9648)"
             id="g321891">
            <path
               d="M 0,0 33.882,59.101 V 41.977 L 14.63,8.441 Z"
               style="fill:#ffffff;fill-opacity:1;fill-rule:nonzero;stroke:none"
               id="path321889"
               inkscape:connector-curvature="0" />
          </g>
        </g>
      </g>
    </g>
    <g
       id="g321897"
       transform="matrix(0.35277777,0,0,-0.35277777,235.09598,316.24423)">
      <path
         d="M 0,0 V 0 0.051 0.022 l -42.788,-24.569 v -4.482 L 0,-4.342 v 4.335 z"
         style="fill:#c4c4c4;fill-opacity:1;fill-rule:nonzero;stroke:none"
         id="path321899"
         inkscape:connector-curvature="0" />
    </g>
    <g
       id="g321901"
       transform="matrix(0.35277777,0,0,-0.35277777,235.09598,320.62777)">
      <path
         d="m 0,0 v 0 0.052 -0.03 l -42.788,-24.568 v -4.483 L 0,-4.34 v 4.334 z"
         style="fill:#c4c4c4;fill-opacity:1;fill-rule:nonzero;stroke:none"
         id="path321903"
         inkscape:connector-curvature="0" />
    </g>
    <g
       id="g321905"
       transform="matrix(0.35277777,0,0,-0.35277777,235.09598,325.01096)">
      <path
         d="m 0,0 v 0 0.052 -0.03 l -42.788,-24.569 v -4.482 L 0,-4.341 v 4.335 z"
         style="fill:#c4c4c4;fill-opacity:1;fill-rule:nonzero;stroke:none"
         id="path321907"
         inkscape:connector-curvature="0" />
    </g>
    <g
       id="g321909"
       transform="matrix(0.35277777,0,0,-0.35277777,235.09598,329.3945)">
      <path
         d="M 0,0 V 0.003 0.052 0.024 l -42.788,-24.571 v -4.482 L 0,-4.34 v 4.335 z"
         style="fill:#c4c4c4;fill-opacity:1;fill-rule:nonzero;stroke:none"
         id="path321911"
         inkscape:connector-curvature="0" />
    </g>
    <g
       id="g321913"
       transform="matrix(0.35277777,0,0,-0.35277777,235.09598,333.77735)">
      <path
         d="M 0,0 V 0 0.051 0.02 l -42.788,-24.567 v -4.484 L 0,-4.342 v 4.335 z"
         style="fill:#c4c4c4;fill-opacity:1;fill-rule:nonzero;stroke:none"
         id="path321915"
         inkscape:connector-curvature="0" />
    </g>
    <g
       id="g321917"
       transform="matrix(0.35277777,0,0,-0.35277777,235.09598,338.16089)">
      <path
         d="m 0,0 v 0 0.051 -0.03 l -42.788,-24.568 v -4.484 L 0,-4.34 v 4.334 z"
         style="fill:#c4c4c4;fill-opacity:1;fill-rule:nonzero;stroke:none"
         id="path321919"
         inkscape:connector-curvature="0" />
    </g>
    <g
       id="g321921"
       transform="matrix(0.35277777,0,0,-0.35277777,235.09598,342.54445)">
      <path
         d="M 0,0 V 0 0.051 0.023 l -42.788,-24.568 v -4.482 L 0,-4.342 v 4.338 z"
         style="fill:#c4c4c4;fill-opacity:1;fill-rule:nonzero;stroke:none"
         id="path321923"
         inkscape:connector-curvature="0" />
    </g>
    <g
       id="g321925"
       transform="matrix(0.35277777,0,0,-0.35277777,208.84987,318.51145)">
      <path
         d="M 0,0 V 0.001 0.052 0.022 L 31.61,-18.12 v -4.483 L 0,-4.34 v 4.335 z"
         style="fill:#a0a0a0;fill-opacity:1;fill-rule:nonzero;stroke:none"
         id="path321927"
         inkscape:connector-curvature="0" />
    </g>
    <g
       id="g321929"
       transform="matrix(0.35277777,0,0,-0.35277777,208.84987,322.89501)">
      <path
         d="M 0,0 V 0.001 0.054 0.022 l 31.61,-18.141 v -4.484 L 0,-4.34 v 4.337 z"
         style="fill:#a0a0a0;fill-opacity:1;fill-rule:nonzero;stroke:none"
         id="path321931"
         inkscape:connector-curvature="0" />
    </g>
    <g
       id="g321933"
       transform="matrix(0.35277777,0,0,-0.35277777,208.84987,327.27749)">
      <path
         d="m 0,0 v 0 0.051 -0.03 l 31.61,-18.143 v -4.482 L 0,-4.342 v 4.336 z"
         style="fill:#a0a0a0;fill-opacity:1;fill-rule:nonzero;stroke:none"
         id="path321935"
         inkscape:connector-curvature="0" />
    </g>
    <g
       id="g321937"
       transform="matrix(0.35277777,0,0,-0.35277777,208.84987,331.66206)">
      <path
         d="M 0,0 V 0.002 0.053 0.024 l 31.61,-18.143 v -4.483 L 0,-4.338 v 4.336 z"
         style="fill:#a0a0a0;fill-opacity:1;fill-rule:nonzero;stroke:none"
         id="path321939"
         inkscape:connector-curvature="0" />
    </g>
    <g
       id="g321941"
       transform="matrix(0.35277777,0,0,-0.35277777,208.84987,336.04493)">
      <path
         d="M 0,0 V 0.004 0.051 0.025 l 31.61,-18.144 v -4.485 L 0,-4.34 v 4.336 z"
         style="fill:#a0a0a0;fill-opacity:1;fill-rule:nonzero;stroke:none"
         id="path321943"
         inkscape:connector-curvature="0" />
    </g>
    <g
       id="g321945"
       transform="matrix(0.35277777,0,0,-0.35277777,208.84987,340.42845)">
      <path
         d="M 0,0 V 0 0.055 0.023 l 31.61,-18.142 v -4.485 L 0,-4.34 v 4.336 z"
         style="fill:#a0a0a0;fill-opacity:1;fill-rule:nonzero;stroke:none"
         id="path321947"
         inkscape:connector-curvature="0" />
    </g>
    <g
       id="g321949"
       transform="matrix(0.35277777,0,0,-0.35277777,208.84987,344.81061)">
      <path
         d="m 0,0 v 0 0.051 -0.03 l 31.61,-18.142 v -4.483 L 0,-4.42 v 4.412 z"
         style="fill:#a0a0a0;fill-opacity:1;fill-rule:nonzero;stroke:none"
         id="path321951"
         inkscape:connector-curvature="0" />
    </g>
    <g
       id="g321953"
       transform="matrix(0.35277777,0,0,-0.35277777,255.64736,307.78238)">
      <path
         d="M 0,0 C -3.617,1.369 -14.464,3.811 -14.464,3.811 L -48.961,-16.02 v -19.884 l 11.024,-5.93 c 9.768,-5.258 21.766,-5.51 31.761,-0.771 0.5,0.234 0.999,0.47 1.489,0.734 l 9.491,5.079 c 8.219,4.4 14.273,11.64 16.725,20.3 0,0 0.624,8.101 -21.529,16.492"
         style="fill:#dbdbdb;fill-opacity:1;fill-rule:nonzero;stroke:none"
         id="path321955"
         inkscape:connector-curvature="0" />
    </g>
    <g
       id="g321957"
       transform="matrix(0.35277777,0,0,-0.35277777,249.18054,298.77001)">
      <path
         d="m 0,0 -30.621,-17.604 v -21.061 l 10.007,-5.386 c 9.317,-5.015 20.878,-5.025 30.208,-0.031 3.869,2.07 2.491,1.333 8.621,4.613 8.083,4.326 13.801,11.664 15.618,20.045 C 32.248,-15.457 30.076,-10.457 0,0"
         style="fill:#dbdbdb;fill-opacity:1;fill-rule:nonzero;stroke:none"
         id="path321959"
         inkscape:connector-curvature="0" />
    </g>
    <g
       id="g321961"
       transform="matrix(0.35277777,0,0,-0.35277777,258.74277,336.72565)">
      <path
         d="m 0,0 -10.196,-5.455 c -11.035,-5.908 -24.702,-5.893 -35.723,0.039 l -11.873,6.389 v -7.504 l 11.873,-6.391 c 11.021,-5.93 24.688,-5.945 35.723,-0.037 L 0,-7.504 c 5.867,3.143 12.05,9.766 14.234,14.691 0.117,2.541 0.137,3.702 0.235,6.501 C 11.115,8.174 6.06,3.246 0,0"
         style="fill:#a0a0a0;fill-opacity:1;fill-rule:nonzero;stroke:none"
         id="path321963"
         inkscape:connector-curvature="0" />
    </g>
    <g
       id="g321965"
       transform="matrix(0.35277777,0,0,-0.35277777,242.3934,333.48451)">
      <path
         d="m 0,0 c 10.62,-5.717 23.797,-5.732 34.436,-0.039 l 9.829,5.264 c 8.042,4.303 14.04,11.22 16.817,19.262 -0.01,2.36 -0.036,4.701 -0.085,7.014 C 58.189,23.554 52.234,16.724 44.265,12.457 L 34.436,7.197 C 23.797,1.502 10.62,1.515 0,7.235 l -11.448,6.159 V 6.16 Z"
         style="fill:#a0a0a0;fill-opacity:1;fill-rule:nonzero;stroke:none"
         id="path321967"
         inkscape:connector-curvature="0" />
    </g>
    <g
       id="g321969"
       transform="matrix(0.35277777,0,0,-0.35277777,242.25386,324.99752)">
      <path
         d="m 0,0 c 10.254,-5.52 22.978,-5.535 33.248,-0.035 l 9.491,5.078 c 9.18,4.915 15.6,13.355 17.38,22.946 -0.186,1.517 -0.393,2.959 -0.624,4.318 C 57.104,23.832 51.058,16.481 42.739,12.029 L 33.248,6.947 C 22.978,1.451 10.254,1.465 0,6.986 l -11.054,5.948 V 5.947 Z"
         style="fill:#a0a0a0;fill-opacity:1;fill-rule:nonzero;stroke:none"
         id="path321971"
         inkscape:connector-curvature="0" />
    </g>
    <g
       id="g321973"
       transform="matrix(0.35277777,0,0,-0.35277777,241.89524,316.59221)">
      <path
         d="m 0,0 c 9.318,-5.016 20.874,-5.025 30.206,-0.033 l 8.62,4.615 c 9.45,5.059 15.69,14.227 16.212,24.374 0.009,0.187 0.02,0.383 0.031,0.571 -0.19,0.547 -0.386,1.08 -0.581,1.616 C 52.711,22.691 46.965,15.281 38.826,10.926 L 30.206,6.311 C 20.874,1.316 9.318,1.328 0,6.346 l -10.045,5.4 V 5.402 Z"
         style="fill:#a0a0a0;fill-opacity:1;fill-rule:nonzero;stroke:none"
         id="path321975"
         inkscape:connector-curvature="0" />
    </g>
    <g
       id="g321977"
       transform="matrix(0.35277777,0,0,-0.35277777,241.60134,308.16306)">
      <path
         d="m 0,0 c 8.549,-4.602 19.151,-4.611 27.711,-0.032 l 7.908,4.236 c 6.766,3.619 11.726,9.391 13.81,16.239 -0.435,0.822 -0.871,1.642 -1.311,2.419 C 45.598,17.48 41.232,13.029 35.619,10.025 L 27.711,5.79 C 19.151,1.21 8.549,1.22 0,5.821 l -9.214,4.955 v -5.82 z"
         style="fill:#a0a0a0;fill-opacity:1;fill-rule:nonzero;stroke:none"
         id="path321979"
         inkscape:connector-curvature="0" />
    </g>
    <g
       id="g321981"
       transform="matrix(0.35277777,0,0,-0.35277777,253.45176,295.79895)">
      <path
         d="m 0,0 c 0,0 -36.559,-20.826 -42.702,-24.297 l 9.176,-4.939 c 8.547,-4.602 19.151,-4.612 27.711,-0.031 6.344,3.398 5.069,2.713 7.909,4.236 5.57,2.978 9.902,7.519 12.432,12.845 C 13.004,-9.629 10.012,-5.096 0,0"
         style="fill:#dbdbdb;fill-opacity:1;fill-rule:nonzero;stroke:none"
         id="path321983"
         inkscape:connector-curvature="0" />
    </g>
    <g
       transform="matrix(0.35277777,0,0,-0.35277777,-395.2986,756.30107)"
       id="g321985">
      <g
         id="g321987" />
      <g
         id="g321999">
        <g
           clip-path="url(#clipPath321991)"
           id="g321997"
           style="opacity:0.25">
          <g
             transform="translate(1796.252,1170.7793)"
             id="g321995">
            <path
               d="m 0,0 c 0,0 22.14,-6.6 36.205,2.42 16.858,10.812 36.269,53.254 36.269,53.254 0,0 -0.459,15.248 -0.812,18.862 0,0 -19.568,-29.191 -42.808,-49.848 C 20.158,16.957 8.748,18.959 -0.065,21.059 Z"
               style="fill:#ffffff;fill-opacity:1;fill-rule:nonzero;stroke:none"
               id="path321993"
               inkscape:connector-curvature="0" />
          </g>
        </g>
      </g>
    </g>
    <g
       id="g322001"
       transform="matrix(0.35277777,0,0,-0.35277777,257.76574,343.63998)">
      <path
         d="m 0,0 -9.746,-5.596 c -10.548,-6.056 -23.611,-6.041 -34.143,0.041 l -11.065,6.586 -0.028,-7.57 10.809,-6.391 c 10.272,-5.931 23.013,-5.945 33.3,-0.041 l 9.504,5.461 C 8.553,-1.813 15.939,8.354 16.674,20.049 13.517,11.863 7.701,4.422 0,0"
         style="fill:#a0a0a0;fill-opacity:1;fill-rule:nonzero;stroke:none"
         id="path322003"
         inkscape:connector-curvature="0" />
    </g>
    <g
       transform="matrix(0.35277777,0,0,-0.35277777,-395.2986,756.30107)"
       id="g322005">
      <g
         id="g322007" />
      <g
         id="g322019">
        <g
           clip-path="url(#clipPath322011)"
           id="g322017"
           style="opacity:0.58000201">
          <g
             transform="translate(1866.6055,1255.6211)"
             id="g322015">
            <path
               d="m 0,0 c -5.43,29.425 -18.074,48.132 -27.597,55.456 l -42.822,-24.594 0.037,-123.274 11.069,-6.391 c 10.272,-5.931 23.011,-5.945 33.298,-0.041 l 9.503,5.461 C -6.095,-87.4 0.781,-76.561 1.359,-64.559 2.29,-45.22 2.963,-16.083 0,0"
               style="fill:#83e8ff;fill-opacity:1;fill-rule:nonzero;stroke:none"
               id="path322013"
               inkscape:connector-curvature="0" />
          </g>
        </g>
      </g>
    </g>
    <g
       transform="matrix(0.35277777,0,0,-0.35277777,-395.2986,756.30107)"
       id="g322021">
      <g
         id="g322023" />
      <g
         id="g322035">
        <g
           clip-path="url(#clipPath322027)"
           id="g322033"
           style="opacity:0.25">
          <g
             transform="translate(1796.252,1227.0967)"
             id="g322031">
            <path
               d="m 0,0 c 0,0 20.762,-2.567 34.825,6.453 16.86,10.811 31.795,37.443 31.795,37.443 0,0 -0.905,3.133 -2.169,6.522 -1.177,3.165 -2.678,6.506 -3.757,8.967 0,0 -7.23,-13.724 -32.643,-31.63 -5.724,-4.03 -19.303,-8.792 -28.116,-6.696 z"
               style="fill:#ffffff;fill-opacity:1;fill-rule:nonzero;stroke:none"
               id="path322029"
               inkscape:connector-curvature="0" />
          </g>
        </g>
      </g>
    </g>
    <g
       id="g322037"
       transform="matrix(0.35277777,0,0,-0.35277777,237.82209,283.24712)">
      <path
         d="m 0,0 c -13.132,-1.954 -22.045,-11.822 -23.62,-22.754 -0.306,-2.136 -0.29,-2.769 -0.357,-4.356 -0.041,-13.903 29.04,-21.287 46.497,-11.495 5.513,3.095 8.29,7.212 8.3,11.341 C 30.522,-10.51 16.883,1.777 0,0"
         style="fill:#83e8ff;fill-opacity:1;fill-rule:nonzero;stroke:none"
         id="path322039"
         inkscape:connector-curvature="0" />
    </g>
    <g
       transform="matrix(0.35277777,0,0,-0.35277777,-395.2986,756.30107)"
       id="g322041">
      <g
         id="g322043" />
      <g
         id="g322055">
        <g
           clip-path="url(#clipPath322047)"
           id="g322053"
           style="opacity:0.25">
          <g
             transform="translate(1825.4414,1312.7842)"
             id="g322051">
            <path
               d="m 0,0 c -4.026,9.941 -11.174,20.713 -23.728,24.58 l -2.585,-1.83 c 0,0 9.857,-15.555 5.314,-37.274 4.524,0.606 8.916,1.924 12.75,4.075 C -3.132,-7.576 -0.378,-3.822 0,0"
               style="fill:#ffffff;fill-opacity:1;fill-rule:nonzero;stroke:none"
               id="path322049"
               inkscape:connector-curvature="0" />
          </g>
        </g>
      </g>
    </g>
    <g
       id="g322057"
       transform="matrix(0.35277777,0,0,-0.35277777,240.59436,283.90373)">
      <path
         d="m 0,0 c 2.467,-1.424 2.479,-3.732 0.03,-5.154 -2.449,-1.424 -6.434,-1.424 -8.9,0 -2.471,1.425 -2.483,3.732 -0.031,5.156 C -6.452,1.426 -2.469,1.426 0,0"
         style="fill:#71c8dc;fill-opacity:1;fill-rule:nonzero;stroke:none"
         id="path322059"
         inkscape:connector-curvature="0" />
    </g>
    <g
       id="g322061"
       transform="matrix(0.35277777,0,0,-0.35277777,239.50534,275.97867)">
      <path
         d="m 0,0 c -0.736,-0.43 -1.94,-0.43 -2.685,0 -0.376,0.217 -0.562,0.5 -0.56,0.785 l -0.009,-25.539 c -0.002,-0.283 0.185,-0.568 0.56,-0.783 0.744,-0.432 1.949,-0.432 2.688,0 0.368,0.213 0.553,0.492 0.553,0.771 C 0.55,-23.721 0.552,-0.271 0.555,0.773 0.552,0.494 0.371,0.213 0,0"
         style="fill:#a0a0a0;fill-opacity:1;fill-rule:nonzero;stroke:none"
         id="path322063"
         inkscape:connector-curvature="0" />
    </g>
    <g
       id="g322065"
       transform="matrix(0.35277777,0,0,-0.35277777,239.50396,275.4295)">
      <path
         d="m 0,0 c 0.745,-0.43 0.747,-1.127 0.004,-1.557 -0.736,-0.429 -1.941,-0.429 -2.685,0 C -3.426,-1.125 -3.429,-0.43 -2.69,0 -1.949,0.43 -0.746,0.43 0,0"
         style="fill:#e0e0e0;fill-opacity:1;fill-rule:nonzero;stroke:none"
         id="path322067"
         inkscape:connector-curvature="0" />
    </g>
    <g
       id="g322069"
       transform="matrix(0.35277777,0,0,-0.35277777,239.03303,275.70165)">
      <path
         d="m 0,0 c -0.136,0 -0.244,0.107 -0.244,0.242 v 40.839 c 0,0.135 0.108,0.243 0.244,0.243 0.132,0 0.239,-0.108 0.239,-0.243 V 0.242 C 0.239,0.107 0.132,0 0,0"
         style="fill:#727272;fill-opacity:1;fill-rule:nonzero;stroke:none"
         id="path322071"
         inkscape:connector-curvature="0" />
    </g>
    <g
       id="g322073"
       transform="matrix(0.35277777,0,0,-0.35277777,239.60524,260.8078)">
      <path
         d="m 0,0 c 0,-0.897 -0.727,-1.625 -1.622,-1.625 -0.896,0 -1.624,0.728 -1.624,1.625 0,0.895 0.728,1.621 1.624,1.621 C -0.727,1.621 0,0.895 0,0"
         style="fill:#ffcc66;fill-opacity:1;fill-rule:nonzero;stroke:none"
         id="path322075"
         inkscape:connector-curvature="0" />
    </g>
    <g
       id="g322077"
       transform="matrix(0.35277777,0,0,-0.35277777,226.11118,296.53346)">
      <path
         d="m 0,0 24.76,-14.603 c -0.003,-7.842 -0.02,8.074 0.017,-11.114 L 0,-10.818 Z"
         style="fill:#a6f2ff;fill-opacity:1;fill-rule:nonzero;stroke:none"
         id="path322079"
         inkscape:connector-curvature="0" />
    </g>
    <g
       id="g322081"
       transform="matrix(0.35277777,0,0,-0.35277777,226.70649,296.88351)">
      <path
         d="m 0,0 v -8.504 l 23.088,-13.857 c 0.002,-0.725 0.002,-1.51 0.002,-2.364 L -1.688,-9.826 V 0.992 Z"
         style="fill:#c4c4c4;fill-opacity:1;fill-rule:nonzero;stroke:none"
         id="path322083"
         inkscape:connector-curvature="0" />
    </g>
    <g
       transform="matrix(0.35277777,0,0,-0.35277777,-395.2986,756.30107)"
       id="g322085">
      <g
         id="g322087" />
      <g
         id="g322099">
        <g
           clip-path="url(#clipPath322091)"
           id="g322097"
           style="opacity:0.25">
          <g
             transform="translate(1785.0322,1280.6699)"
             id="g322095">
            <path
               d="M 0,0 -8.568,13.769 -11.526,15.515 -3.414,2.08 Z"
               style="fill:#ffffff;fill-opacity:1;fill-rule:nonzero;stroke:none"
               id="path322093"
               inkscape:connector-curvature="0" />
          </g>
        </g>
      </g>
    </g>
    <g
       transform="matrix(0.35277777,0,0,-0.35277777,-395.2986,756.30107)"
       id="g322101">
      <g
         id="g322103" />
      <g
         id="g322115">
        <g
           clip-path="url(#clipPath322107)"
           id="g322113"
           style="opacity:0.25">
          <g
             transform="translate(1775.6953,1286.2783)"
             id="g322111">
            <path
               d="M 0,0 -8.214,13.463 -11.171,15.206 -3.41,2.077 Z"
               style="fill:#ffffff;fill-opacity:1;fill-rule:nonzero;stroke:none"
               id="path322109"
               inkscape:connector-curvature="0" />
          </g>
        </g>
      </g>
    </g>
    <g
       id="g322117"
       transform="matrix(0.35277777,0,0,-0.35277777,226.11118,301.98499)">
      <path
         d="m 0,0 24.76,-14.605 c -0.003,-7.842 -0.02,8.076 0.017,-11.115 L 0,-10.818 Z"
         style="fill:#a6f2ff;fill-opacity:1;fill-rule:nonzero;stroke:none"
         id="path322119"
         inkscape:connector-curvature="0" />
    </g>
    <g
       id="g322121"
       transform="matrix(0.35277777,0,0,-0.35277777,226.70649,302.33567)">
      <path
         d="m 0,0 v -8.506 l 23.088,-13.855 c 0.002,-0.727 0.002,-1.51 0.002,-2.365 L -1.688,-9.824 V 0.994 Z"
         style="fill:#c4c4c4;fill-opacity:1;fill-rule:nonzero;stroke:none"
         id="path322123"
         inkscape:connector-curvature="0" />
    </g>
    <g
       transform="matrix(0.35277777,0,0,-0.35277777,-395.2986,756.30107)"
       id="g322125">
      <g
         id="g322127" />
      <g
         id="g322139">
        <g
           clip-path="url(#clipPath322131)"
           id="g322137"
           style="opacity:0.25">
          <g
             transform="translate(1785.0322,1265.2139)"
             id="g322135">
            <path
               d="m 0,0 -8.568,13.769 -2.958,1.745 8.112,-13.432 z"
               style="fill:#ffffff;fill-opacity:1;fill-rule:nonzero;stroke:none"
               id="path322133"
               inkscape:connector-curvature="0" />
          </g>
        </g>
      </g>
    </g>
    <g
       transform="matrix(0.35277777,0,0,-0.35277777,-395.2986,756.30107)"
       id="g322141">
      <g
         id="g322143" />
      <g
         id="g322155">
        <g
           clip-path="url(#clipPath322147)"
           id="g322153"
           style="opacity:0.25">
          <g
             transform="translate(1775.6953,1270.8213)"
             id="g322151">
            <path
               d="M 0,0 -8.214,13.467 -11.171,15.209 -3.41,2.08 Z"
               style="fill:#ffffff;fill-opacity:1;fill-rule:nonzero;stroke:none"
               id="path322149"
               inkscape:connector-curvature="0" />
          </g>
        </g>
      </g>
    </g>
  </g>
</svg>
