<?xml version="1.0" encoding="UTF-8" standalone="no"?>
<!-- Created with Inkscape (http://www.inkscape.org/) -->

<svg
   xmlns:dc="http://purl.org/dc/elements/1.1/"
   xmlns:cc="http://creativecommons.org/ns#"
   xmlns:rdf="http://www.w3.org/1999/02/22-rdf-syntax-ns#"
   xmlns:svg="http://www.w3.org/2000/svg"
   xmlns="http://www.w3.org/2000/svg"
   xmlns:sodipodi="http://sodipodi.sourceforge.net/DTD/sodipodi-0.dtd"
   xmlns:inkscape="http://www.inkscape.org/namespaces/inkscape"
   width="34.214558mm"
   height="100.01614mm"
   viewBox="0 0 34.214558 100.01614"
   version="1.1"
   id="svg92414"
   inkscape:version="0.92.3 (2405546, 2018-03-11)"
   sodipodi:docname="business-4.svg">
  <defs
     id="defs92408">
    <clipPath
       clipPathUnits="userSpaceOnUse"
       id="clipPath240317">
      <path
         d="m 899.927,1193.82 h 4.258 v -56.71 h -4.258 z"
         id="path240315"
         inkscape:connector-curvature="0" />
    </clipPath>
    <clipPath
       clipPathUnits="userSpaceOnUse"
       id="clipPath240241">
      <path
         d="M 899.927,1193.82 H 919 v -60.88 h -19.073 z"
         id="path240239"
         inkscape:connector-curvature="0" />
    </clipPath>
    <clipPath
       clipPathUnits="userSpaceOnUse"
       id="clipPath240197">
      <path
         d="m 908.681,1363.85 h 4.898 v -229.39 h -4.898 z"
         id="path240195"
         inkscape:connector-curvature="0" />
    </clipPath>
    <clipPath
       clipPathUnits="userSpaceOnUse"
       id="clipPath240181">
      <path
         d="m 925.052,1353.96 h 4.898 v -220.33 h -4.898 z"
         id="path240179"
         inkscape:connector-curvature="0" />
    </clipPath>
  </defs>
  <sodipodi:namedview
     id="base"
     pagecolor="#ffffff"
     bordercolor="#666666"
     borderopacity="1.0"
     inkscape:pageopacity="0.0"
     inkscape:pageshadow="2"
     inkscape:zoom="0.35"
     inkscape:cx="-72.485429"
     inkscape:cy="406.14974"
     inkscape:document-units="mm"
     inkscape:current-layer="layer1"
     showgrid="false"
     fit-margin-top="0"
     fit-margin-left="0"
     fit-margin-right="0"
     fit-margin-bottom="0"
     inkscape:window-width="1366"
     inkscape:window-height="716"
     inkscape:window-x="-8"
     inkscape:window-y="-8"
     inkscape:window-maximized="1" />
  <metadata
     id="metadata92411">
    <rdf:RDF>
      <cc:Work
         rdf:about="">
        <dc:format>image/svg+xml</dc:format>
        <dc:type
           rdf:resource="http://purl.org/dc/dcmitype/StillImage" />
        <dc:title></dc:title>
      </cc:Work>
    </rdf:RDF>
  </metadata>
  <g
     inkscape:label="Layer 1"
     inkscape:groupmode="layer"
     id="layer1"
     transform="translate(-125.01177,-156.27764)">
    <g
       id="g240151"
       transform="matrix(0.35277777,0,0,-0.35277777,158.909,246.34995)">
      <path
         d="m 0,0 c 1.194,-0.688 1.2,-1.809 0.014,-2.496 l -43.322,-25.176 c -1.185,-0.687 -3.115,-0.687 -4.31,0 l -47.57,27.465 c -1.193,0.689 -1.199,1.809 -0.013,2.498 l 43.322,25.176 c 1.186,0.687 3.115,0.687 4.31,0 z"
         style="fill:#8b9fa4;fill-opacity:1;fill-rule:nonzero;stroke:none"
         id="path240153"
         inkscape:connector-curvature="0" />
    </g>
    <g
       id="g240155"
       transform="matrix(0.35277777,0,0,-0.35277777,134.74301,164.34325)">
      <path
         d="M 0,0 0.638,-238.456 -3.5,-230.599 -4.136,7.859 Z"
         style="fill:#1e85b3;fill-opacity:1;fill-rule:nonzero;stroke:none"
         id="path240157"
         inkscape:connector-curvature="0" />
    </g>
    <g
       id="g240159"
       transform="matrix(0.35277777,0,0,-0.35277777,149.10203,169.29387)">
      <path
         d="m 0,0 0.004,-219.671 -8.328,-6.947 -0.638,238.456 z"
         style="fill:#46b8e9;fill-opacity:1;fill-rule:nonzero;stroke:none"
         id="path240161"
         inkscape:connector-curvature="0" />
    </g>
    <g
       id="g240163"
       transform="matrix(0.35277777,0,0,-0.35277777,139.98303,165.8119)">
      <path
         d="m 0,0 0.59,-238.445 -14.805,4.152 -0.639,238.456 z"
         style="fill:#25a2cd;fill-opacity:1;fill-rule:nonzero;stroke:none"
         id="path240165"
         inkscape:connector-curvature="0" />
    </g>
    <g
       id="g240167"
       transform="matrix(0.35277777,0,0,-0.35277777,145.94029,165.11774)">
      <path
         d="m 0,0 0.638,-238.456 -16.935,-1.957 -0.59,238.445 z"
         style="fill:#81d3f6;fill-opacity:1;fill-rule:nonzero;stroke:none"
         id="path240169"
         inkscape:connector-curvature="0" />
    </g>
    <g
       id="g240171"
       transform="matrix(0.35277777,0,0,-0.35277777,147.66283,166.60049)">
      <path
         d="M 0,0 2.779,-6.166 -4.883,4.203 -21.77,2.235 l -14.853,4.163 -4.136,7.86 9.013,6.947 16.894,1.973 z"
         style="fill:#216a93;fill-opacity:1;fill-rule:nonzero;stroke:none"
         id="path240173"
         inkscape:connector-curvature="0" />
    </g>
    <g
       transform="matrix(0.35277777,0,0,-0.35277777,-184.01167,649.60596)"
       id="g240175">
      <g
         id="g240177" />
      <g
         id="g240189">
        <g
           clip-path="url(#clipPath240181)"
           id="g240187"
           style="opacity:0.53999299">
          <g
             transform="translate(929.9497,1134.1992)"
             id="g240185">
            <path
               d="M 0,0 V 219.766 H -4.897 V -0.57 Z"
               style="fill:#3097d4;fill-opacity:1;fill-rule:nonzero;stroke:none"
               id="path240183"
               inkscape:connector-curvature="0" />
          </g>
        </g>
      </g>
    </g>
    <g
       transform="matrix(0.35277777,0,0,-0.35277777,-184.01167,649.60596)"
       id="g240191">
      <g
         id="g240193" />
      <g
         id="g240205">
        <g
           clip-path="url(#clipPath240197)"
           id="g240203"
           style="opacity:0.83999598">
          <g
             transform="translate(913.5786,1134.459)"
             id="g240201">
            <path
               d="M 0,0 V 229.396 H -4.898 V 1.375 Z"
               style="fill:#228fbe;fill-opacity:1;fill-rule:nonzero;stroke:none"
               id="path240199"
               inkscape:connector-curvature="0" />
          </g>
        </g>
      </g>
    </g>
    <g
       id="g240207"
       transform="matrix(0.35277777,0,0,-0.35277777,142.59183,156.33479)">
      <path
         d="M 0,0 14.684,-15.273 18.458,-36.701 9.564,-51.732 H -7.329 l -14.92,15.722 -4.112,21.126 9.362,15.046 z"
         style="fill:#d5d6d5;fill-opacity:1;fill-rule:nonzero;stroke:none"
         id="path240209"
         inkscape:connector-curvature="0" />
    </g>
    <g
       id="g240211"
       transform="matrix(0.35277777,0,0,-0.35277777,142.59183,156.33479)">
      <path
         d="M 0,0 14.684,-15.273 18.458,-36.701 9.564,-51.732 H -7.329 l -14.92,15.722 -4.112,21.126 9.362,15.046 z"
         style="fill:#d5d6d5;fill-opacity:1;fill-rule:nonzero;stroke:none"
         id="path240213"
         inkscape:connector-curvature="0" />
    </g>
    <g
       id="g240215"
       transform="matrix(0.35277777,0,0,-0.35277777,134.43126,167.43591)">
      <path
         d="m 0,0 0.413,-2.13 40.629,0.018 -0.223,1.267 -0.152,0.862 z"
         style="fill:#c0c0c0;fill-opacity:1;fill-rule:nonzero;stroke:none"
         id="path240217"
         inkscape:connector-curvature="0" />
    </g>
    <g
       id="g240219"
       transform="matrix(0.35277777,0,0,-0.35277777,134.50394,167.81178)">
      <path
         d="m 0,0 0.207,-1.064 40.628,0.017 -0.079,0.452 -0.108,0.613 z"
         style="fill:#e4e4e4;fill-opacity:1;fill-rule:nonzero;stroke:none"
         id="path240221"
         inkscape:connector-curvature="0" />
    </g>
    <g
       id="g240223"
       transform="matrix(0.35277777,0,0,-0.35277777,133.53792,162.84809)">
      <path
         d="m 0,0 0.415,-2.13 40.868,0.016 -0.188,1.065 -0.187,1.064 z"
         style="fill:#c0c0c0;fill-opacity:1;fill-rule:nonzero;stroke:none"
         id="path240225"
         inkscape:connector-curvature="0" />
    </g>
    <g
       id="g240227"
       transform="matrix(0.35277777,0,0,-0.35277777,133.61131,163.22396)">
      <path
         d="m 0,0 0.207,-1.064 40.868,0.015 -0.067,0.382 -0.12,0.683 z"
         style="fill:#e4e4e4;fill-opacity:1;fill-rule:nonzero;stroke:none"
         id="path240229"
         inkscape:connector-curvature="0" />
    </g>
    <g
       id="g240231"
       transform="matrix(0.35277777,0,0,-0.35277777,140.1911,243.98868)">
      <path
         d="m 0,0 -14.805,4.137 -4.138,7.857 -0.593,221.546 -0.044,0.086 0.637,-238.458 4.138,-7.857 14.805,-4.153 16.935,1.957 8.329,6.947 V 8.891 l -8.329,-6.95 z"
         style="fill:#d5d6d5;fill-opacity:1;fill-rule:nonzero;stroke:none"
         id="path240233"
         inkscape:connector-curvature="0" />
    </g>
    <g
       transform="matrix(0.35277777,0,0,-0.35277777,-184.01167,649.60596)"
       id="g240235">
      <g
         id="g240237" />
      <g
         id="g240249">
        <g
           clip-path="url(#clipPath240241)"
           id="g240247"
           style="opacity:0.22999597">
          <g
             transform="translate(919,1149.7813)"
             id="g240245">
            <path
               d="m 0,0 -14.805,4.137 -4.138,7.857 -0.085,32.047 h -0.045 l 0.13,-48.873 4.138,-7.857 L 0,-16.842 Z"
               style="fill:#1e2d33;fill-opacity:1;fill-rule:nonzero;stroke:none"
               id="path240243"
               inkscape:connector-curvature="0" />
          </g>
        </g>
      </g>
    </g>
    <g
       id="g240251"
       transform="matrix(0.35277777,0,0,-0.35277777,145.87586,247.49166)">
      <path
         d="M 0,0 -14.944,-2.049 V 6.639 L 0,8.607 Z"
         style="fill:#3097d4;fill-opacity:1;fill-rule:nonzero;stroke:none"
         id="path240253"
         inkscape:connector-curvature="0" />
    </g>
    <g
       id="g240255"
       transform="matrix(0.35277777,0,0,-0.35277777,142.39183,247.9664)">
      <path
         d="M 0,0 -2.314,-0.32 0.563,8.736 2.879,9.043 Z"
         style="fill:#46b8e9;fill-opacity:1;fill-rule:nonzero;stroke:none"
         id="path240257"
         inkscape:connector-curvature="0" />
    </g>
    <g
       id="g240259"
       transform="matrix(0.35277777,0,0,-0.35277777,143.17436,247.85893)">
      <path
         d="m 0,0 -1.061,-0.146 2.876,9.035 1.062,0.14 z"
         style="fill:#46b8e9;fill-opacity:1;fill-rule:nonzero;stroke:none"
         id="path240261"
         inkscape:connector-curvature="0" />
    </g>
    <g
       id="g240263"
       transform="matrix(0.35277777,0,0,-0.35277777,145.87586,244.63913)">
      <path
         d="m 0,0 -14.944,-1.975 v 0.528 L 0,0.521 Z"
         style="fill:#1e2d33;fill-opacity:1;fill-rule:nonzero;stroke:none"
         id="path240265"
         inkscape:connector-curvature="0" />
    </g>
    <g
       id="g240267"
       transform="matrix(0.35277777,0,0,-0.35277777,148.9754,245.16901)">
      <path
         d="M 0,0 -6.218,-5.113 V 2.783 L 0,8.049 Z"
         style="fill:#3097d4;fill-opacity:1;fill-rule:nonzero;stroke:none"
         id="path240269"
         inkscape:connector-curvature="0" />
    </g>
    <g
       id="g240271"
       transform="matrix(0.35277777,0,0,-0.35277777,147.52535,246.36168)">
      <path
         d="M 0,0 -0.964,-0.791 0.234,8.148 1.198,8.967 Z"
         style="fill:#46b8e9;fill-opacity:1;fill-rule:nonzero;stroke:none"
         id="path240273"
         inkscape:connector-curvature="0" />
    </g>
    <g
       id="g240275"
       transform="matrix(0.35277777,0,0,-0.35277777,147.85092,246.09363)">
      <path
         d="m 0,0 -0.441,-0.365 1.198,8.976 0.44,0.375 z"
         style="fill:#46b8e9;fill-opacity:1;fill-rule:nonzero;stroke:none"
         id="path240277"
         inkscape:connector-curvature="0" />
    </g>
    <g
       id="g240279"
       transform="matrix(0.35277777,0,0,-0.35277777,148.9754,242.50043)">
      <path
         d="m 0,0 -6.218,-5.258 v 0.477 L 0,0.484 Z"
         style="fill:#1e2d33;fill-opacity:1;fill-rule:nonzero;stroke:none"
         id="path240281"
         inkscape:connector-curvature="0" />
    </g>
    <g
       id="g240283"
       transform="matrix(0.35277777,0,0,-0.35277777,133.50453,244.02316)">
      <path
         d="M 0,0 3.097,-6.031 V 1.867 L -0.022,7.752 Z"
         style="fill:#1c80ad;fill-opacity:1;fill-rule:nonzero;stroke:none"
         id="path240285"
         inkscape:connector-curvature="0" />
    </g>
    <g
       id="g240287"
       transform="matrix(0.35277777,0,0,-0.35277777,133.49765,241.4531)">
      <path
         d="m 0,0 3.117,-5.896 v 0.478 l -3.119,5.885 z"
         style="fill:#1e2d33;fill-opacity:1;fill-rule:nonzero;stroke:none"
         id="path240289"
         inkscape:connector-curvature="0" />
    </g>
    <g
       id="g240291"
       transform="matrix(0.35277777,0,0,-0.35277777,138.43099,249.42989)">
      <path
         d="M 0,0 -5.455,1.539 V 13.512 L 0,12.232 Z"
         style="fill:#3097d4;fill-opacity:1;fill-rule:nonzero;stroke:none"
         id="path240293"
         inkscape:connector-curvature="0" />
    </g>
    <g
       id="g240295"
       transform="matrix(0.35277777,0,0,-0.35277777,138.43099,249.42989)">
      <path
         d="M 0,0 -5.455,1.539 V 13.512 L 0,12.232 Z"
         style="fill:#3097d4;fill-opacity:1;fill-rule:nonzero;stroke:none"
         id="path240297"
         inkscape:connector-curvature="0" />
    </g>
    <g
       id="g240299"
       transform="matrix(0.35277777,0,0,-0.35277777,138.43099,245.11456)">
      <path
         d="m 0,0 -0.698,0.164 -4.757,-8.57 v -2.287 l 0.88,-0.248 4.575,8.23 z"
         style="fill:#46b8e9;fill-opacity:1;fill-rule:nonzero;stroke:none"
         id="path240301"
         inkscape:connector-curvature="0" />
    </g>
    <g
       id="g240303"
       transform="matrix(0.35277777,0,0,-0.35277777,138.43099,246.80472)">
      <path
         d="M 0,0 -3.576,-6.434 -2.658,-6.689 0,-1.91 Z"
         style="fill:#46b8e9;fill-opacity:1;fill-rule:nonzero;stroke:none"
         id="path240305"
         inkscape:connector-curvature="0" />
    </g>
    <g
       id="g240307"
       transform="matrix(0.35277777,0,0,-0.35277777,138.43099,245.38396)">
      <path
         d="M 0,0 -5.455,1.301 V 2.043 L 0,0.764 Z"
         style="fill:#1e2d33;fill-opacity:1;fill-rule:nonzero;stroke:none"
         id="path240309"
         inkscape:connector-curvature="0" />
    </g>
    <g
       transform="matrix(0.35277777,0,0,-0.35277777,-184.01167,649.60596)"
       id="g240311">
      <g
         id="g240313" />
      <g
         id="g240325">
        <g
           clip-path="url(#clipPath240317)"
           id="g240323"
           style="opacity:0.22999597">
          <g
             transform="translate(904.1851,1137.1094)"
             id="g240321">
            <path
               d="m 0,0 -0.044,16.912 -4.084,7.754 -0.085,32.047 H -4.258 L -4.128,7.84 Z"
               style="fill:#1e2d33;fill-opacity:1;fill-rule:nonzero;stroke:none"
               id="path240319"
               inkscape:connector-curvature="0" />
          </g>
        </g>
      </g>
    </g>
  </g>
</svg>
