<?xml version="1.0" encoding="UTF-8" standalone="no"?>
<!-- Created with Inkscape (http://www.inkscape.org/) -->

<svg
   xmlns:dc="http://purl.org/dc/elements/1.1/"
   xmlns:cc="http://creativecommons.org/ns#"
   xmlns:rdf="http://www.w3.org/1999/02/22-rdf-syntax-ns#"
   xmlns:svg="http://www.w3.org/2000/svg"
   xmlns="http://www.w3.org/2000/svg"
   xmlns:sodipodi="http://sodipodi.sourceforge.net/DTD/sodipodi-0.dtd"
   xmlns:inkscape="http://www.inkscape.org/namespaces/inkscape"
   width="86.362785mm"
   height="67.285789mm"
   viewBox="0 0 86.362785 67.285789"
   version="1.1"
   id="svg114266"
   inkscape:version="0.92.3 (2405546, 2018-03-11)"
   sodipodi:docname="business-14.svg">
  <defs
     id="defs114260">
    <clipPath
       clipPathUnits="userSpaceOnUse"
       id="clipPath258403">
      <path
         d="m 2644.16,1287.75 h 9.96 v -8.58 h -9.96 z"
         id="path258401"
         inkscape:connector-curvature="0" />
    </clipPath>
    <clipPath
       clipPathUnits="userSpaceOnUse"
       id="clipPath258379">
      <path
         d="m 2643.62,1289.58 h 13.23 v -8.56 h -13.23 z"
         id="path258377"
         inkscape:connector-curvature="0" />
    </clipPath>
    <clipPath
       clipPathUnits="userSpaceOnUse"
       id="clipPath258363">
      <path
         d="m 2639.34,1279.91 h 2.7 v -0.31 h -2.7 z"
         id="path258361"
         inkscape:connector-curvature="0" />
    </clipPath>
    <clipPath
       clipPathUnits="userSpaceOnUse"
       id="clipPath258315">
      <path
         d="m 2634.78,1283.14 h 1 v -1.16 h -1 z"
         id="path258313"
         inkscape:connector-curvature="0" />
    </clipPath>
    <clipPath
       clipPathUnits="userSpaceOnUse"
       id="clipPath258295">
      <path
         d="m 2635.02,1280.95 h 5.89 v -3.01 h -5.89 z"
         id="path258293"
         inkscape:connector-curvature="0" />
    </clipPath>
    <clipPath
       clipPathUnits="userSpaceOnUse"
       id="clipPath258275">
      <path
         d="m 2635.53,1282.24 h 4.81 v -3.65 h -4.81 z"
         id="path258273"
         inkscape:connector-curvature="0" />
    </clipPath>
    <clipPath
       clipPathUnits="userSpaceOnUse"
       id="clipPath258251">
      <path
         d="m 2634.72,1288.59 h 22.86 v -11.7 h -22.86 z"
         id="path258249"
         inkscape:connector-curvature="0" />
    </clipPath>
    <clipPath
       clipPathUnits="userSpaceOnUse"
       id="clipPath258219">
      <path
         d="m 2634.33,1287.53 h 24.21 v -11.74 h -24.21 z"
         id="path258217"
         inkscape:connector-curvature="0" />
    </clipPath>
    <clipPath
       clipPathUnits="userSpaceOnUse"
       id="clipPath258131">
      <path
         d="m 2729.92,1282.25 h 8.14 v -4.72 h -8.14 z"
         id="path258129"
         inkscape:connector-curvature="0" />
    </clipPath>
    <clipPath
       clipPathUnits="userSpaceOnUse"
       id="clipPath258087">
      <path
         d="m 2717.82,1275.6 h 8.15 v -4.72 h -8.15 z"
         id="path258085"
         inkscape:connector-curvature="0" />
    </clipPath>
    <clipPath
       clipPathUnits="userSpaceOnUse"
       id="clipPath258043">
      <path
         d="m 2704.28,1268.03 h 8.14 v -4.72 h -8.14 z"
         id="path258041"
         inkscape:connector-curvature="0" />
    </clipPath>
    <clipPath
       clipPathUnits="userSpaceOnUse"
       id="clipPath257999">
      <path
         d="m 2709.493,1329.131 c 0,0.019 0,0.037 0,0.056 v 0 c 0,-0.019 0,-0.037 0,-0.056 m -5.014,0 c -10e-4,0.014 -10e-4,0.028 -10e-4,0.042 v 0 c 0,-0.014 0,-0.028 10e-4,-0.042 m 4.244,-1.024 c -1.58,-0.903 -4.185,-0.25 -4.244,1.024 v 0 c 0.031,-1.095 0.546,-2.017 1.444,-2.553 v 0 c 1.355,-0.774 3.492,0.188 3.57,2.553 v 0 c -0.022,-0.372 -0.279,-0.744 -0.77,-1.024"
         id="path257997"
         inkscape:connector-curvature="0" />
    </clipPath>
    <clipPath
       clipPathUnits="userSpaceOnUse"
       id="clipPath257987">
      <path
         d="m 2705.176,1328.777 c -0.467,0.288 -0.698,0.657 -0.7,1.029 v 0 c 0,-0.687 -0.102,-1.167 0.702,-1.663 v 0 c 1.568,-0.966 4.321,-0.288 4.316,1.044 v 0 0.633 c 0,-1.335 -2.752,-2.01 -4.317,-1.043"
         id="path257985"
         inkscape:connector-curvature="0" />
    </clipPath>
    <clipPath
       clipPathUnits="userSpaceOnUse"
       id="clipPath257975">
      <path
         d="m 2704.476,1329.806 c 0,-0.372 0.233,-0.741 0.7,-1.029 v 0 c 1.564,-0.967 4.32,-0.292 4.317,1.043 v 0 c -0.01,0.346 -0.17,0.636 -0.412,0.86 v 0 c -0.144,0.133 -0.233,0.182 -0.315,0.239 v 0 c -0.503,0.305 -1.141,0.448 -1.771,0.448 v 0 c -1.258,0 -2.482,-0.57 -2.519,-1.561 m 0.807,-0.837 c -0.899,0.553 -0.87,1.441 0.07,1.977 v 0 c 0.94,0.538 2.431,0.524 3.333,-0.033 v 0 c 0.901,-0.556 0.868,-1.443 -0.07,-1.981 v 0 c -0.458,-0.262 -1.048,-0.393 -1.637,-0.393 v 0 c -0.618,0 -1.234,0.144 -1.696,0.43 m 3.464,1.957 c 0,10e-4 -0.01,10e-4 -0.013,10e-4 v 0 c 0,0 0.01,0 0.013,-10e-4"
         id="path257973"
         inkscape:connector-curvature="0" />
    </clipPath>
    <clipPath
       clipPathUnits="userSpaceOnUse"
       id="clipPath257919">
      <path
         d="M 0,2270.272 H 3066.787 V 0 H 0 Z"
         id="path257917"
         inkscape:connector-curvature="0" />
    </clipPath>
    <clipPath
       clipPathUnits="userSpaceOnUse"
       id="clipPath257951">
      <path
         d="m 2704.28,1329.14 h 7.96 v -4.73 h -7.96 z"
         id="path257949"
         inkscape:connector-curvature="0" />
    </clipPath>
    <clipPath
       clipPathUnits="userSpaceOnUse"
       id="clipPath257907">
      <path
         d="m 2645.034,1339.735 c 0,0.019 0,0.038 0,0.057 v 0 c 0,-0.019 0,-0.038 0,-0.057 m -5.014,-10e-4 c 0,0.014 0,0.028 0,0.043 v 0 c 0,-0.015 0,-0.029 0,-0.043 m 4.244,-1.02 c -1.58,-0.906 -4.183,-0.253 -4.244,1.02 v 0 c 0.033,-1.095 0.544,-2.015 1.445,-2.552 v 0 c 1.353,-0.775 3.489,0.188 3.569,2.553 v 0 c -0.022,-0.373 -0.279,-0.744 -0.77,-1.021"
         id="path257905"
         inkscape:connector-curvature="0" />
    </clipPath>
    <clipPath
       clipPathUnits="userSpaceOnUse"
       id="clipPath257895">
      <path
         d="m 2640.716,1339.383 c -0.466,0.286 -0.697,0.657 -0.699,1.028 v 0 c 0,-0.689 -0.103,-1.166 0.7,-1.662 v 0 c 1.569,-0.967 4.322,-0.29 4.319,1.043 v 0 0.633 c 0,-1.334 -2.752,-2.01 -4.318,-1.042"
         id="path257893"
         inkscape:connector-curvature="0" />
    </clipPath>
    <clipPath
       clipPathUnits="userSpaceOnUse"
       id="clipPath257883">
      <path
         d="m 2640.017,1340.411 c 0,-0.371 0.233,-0.742 0.699,-1.028 v 0 c 1.564,-0.968 4.322,-0.292 4.318,1.042 v 0 c -0.01,0.346 -0.171,0.637 -0.412,0.858 v 0 c -0.146,0.132 -0.235,0.186 -0.317,0.241 v 0 c -0.502,0.305 -1.14,0.448 -1.771,0.448 v 0 c -1.258,0 -2.482,-0.57 -2.517,-1.561 m 0.808,-0.838 c -0.9,0.555 -0.871,1.44 0.068,1.979 v 0 c 0.94,0.537 2.432,0.521 3.332,-0.035 v 0 c 0.903,-0.555 0.869,-1.442 -0.068,-1.981 v 0 c -0.459,-0.261 -1.049,-0.392 -1.638,-0.392 v 0 c -0.617,0 -1.233,0.143 -1.694,0.429 m 3.455,1.958 c 0,10e-4 0,10e-4 -0.01,10e-4 v 0 c 0,0 0,0 0.01,-10e-4"
         id="path257881"
         inkscape:connector-curvature="0" />
    </clipPath>
    <clipPath
       clipPathUnits="userSpaceOnUse"
       id="clipPath257859">
      <path
         d="m 2639.82,1339.74 h 7.96 v -4.73 h -7.96 z"
         id="path257857"
         inkscape:connector-curvature="0" />
    </clipPath>
    <clipPath
       clipPathUnits="userSpaceOnUse"
       id="clipPath257799">
      <path
         d="m 2629.87,1362.96 h 57.34 v -57.57 h -57.34 z"
         id="path257797"
         inkscape:connector-curvature="0" />
    </clipPath>
    <clipPath
       clipPathUnits="userSpaceOnUse"
       id="clipPath257665">
      <path
         d="m 2674.99,1307.03 h 54.82 v -32.58 h -54.82 z"
         id="path257663"
         inkscape:connector-curvature="0" />
    </clipPath>
    <clipPath
       clipPathUnits="userSpaceOnUse"
       id="clipPath257649">
      <path
         d="m 2648.33,1305.72 h 11.75 v -6.83 h -11.75 z"
         id="path257647"
         inkscape:connector-curvature="0" />
    </clipPath>
    <clipPath
       clipPathUnits="userSpaceOnUse"
       id="clipPath257633">
      <path
         d="m 2716.08,1325.85 h 61.49 v -35.57 h -61.49 z"
         id="path257631"
         inkscape:connector-curvature="0" />
    </clipPath>
  </defs>
  <sodipodi:namedview
     id="base"
     pagecolor="#ffffff"
     bordercolor="#666666"
     borderopacity="1.0"
     inkscape:pageopacity="0.0"
     inkscape:pageshadow="2"
     inkscape:zoom="0.35"
     inkscape:cx="-111.08045"
     inkscape:cy="541.43995"
     inkscape:document-units="mm"
     inkscape:current-layer="layer1"
     showgrid="false"
     fit-margin-top="0"
     fit-margin-left="0"
     fit-margin-right="0"
     fit-margin-bottom="0"
     inkscape:window-width="1366"
     inkscape:window-height="716"
     inkscape:window-x="-8"
     inkscape:window-y="-8"
     inkscape:window-maximized="1" />
  <metadata
     id="metadata114263">
    <rdf:RDF>
      <cc:Work
         rdf:about="">
        <dc:format>image/svg+xml</dc:format>
        <dc:type
           rdf:resource="http://purl.org/dc/dcmitype/StillImage" />
        <dc:title></dc:title>
      </cc:Work>
    </rdf:RDF>
  </metadata>
  <g
     inkscape:label="Layer 1"
     inkscape:groupmode="layer"
     id="layer1"
     transform="translate(-135.22337,-224.80353)">
    <g
       id="g257523"
       transform="matrix(0.35277777,0,0,-0.35277777,146.38084,251.65528)">
      <path
         d="m 0,0 -0.021,-6.775 -7.676,-4.462 0.017,6.774 z"
         style="fill:#7a9f39;fill-opacity:1;fill-rule:nonzero;stroke:none"
         id="path257525"
         inkscape:connector-curvature="0" />
    </g>
    <g
       id="g257527"
       transform="matrix(0.35277777,0,0,-0.35277777,143.67161,253.22969)">
      <path
         d="m 0,0 -0.018,-6.774 -3.05,-1.773 0.019,6.775 z"
         style="fill:#7a9f39;fill-opacity:1;fill-rule:nonzero;stroke:none"
         id="path257529"
         inkscape:connector-curvature="0" />
    </g>
    <g
       id="g257531"
       transform="matrix(0.35277777,0,0,-0.35277777,180.14964,232.01515)">
      <path
         d="m 0,0 107.868,-62.277 -95.763,-55.653 -65.491,37.812 -23.082,13.325 -19.255,11.12 -7.679,-4.463 -3.049,-1.772 z"
         style="fill:#90ba2b;fill-opacity:1;fill-rule:nonzero;stroke:none"
         id="path257533"
         inkscape:connector-curvature="0" />
    </g>
    <g
       id="g257535"
       transform="matrix(0.35277777,0,0,-0.35277777,218.20315,253.9852)">
      <path
         d="m 0,0 -0.019,-6.774 -95.762,-55.651 0.018,6.773 z"
         style="fill:#83a31f;fill-opacity:1;fill-rule:nonzero;stroke:none"
         id="path257537"
         inkscape:connector-curvature="0" />
    </g>
    <g
       id="g257539"
       transform="matrix(0.35277777,0,0,-0.35277777,184.4202,273.61813)">
      <path
         d="m 0,0 -0.019,-6.774 -7.667,-4.466 0.019,6.772 z"
         style="fill:#7f7f7f;fill-opacity:1;fill-rule:nonzero;stroke:none"
         id="path257541"
         inkscape:connector-curvature="0" />
    </g>
    <g
       id="g257543"
       transform="matrix(0.35277777,0,0,-0.35277777,184.4202,273.61813)">
      <path
         d="m 0,0 -7.667,-4.468 -107.841,62.262 7.68,4.463 19.255,-11.12 23.082,-13.325 z"
         style="fill:#8e8e8e;fill-opacity:1;fill-rule:nonzero;stroke:none"
         id="path257545"
         inkscape:connector-curvature="0" />
    </g>
    <g
       id="g257547"
       transform="matrix(0.35277777,0,0,-0.35277777,181.71547,275.19423)">
      <path
         d="m 0,0 -0.019,-6.772 -107.839,62.259 0.017,6.775 z"
         style="fill:#595959;fill-opacity:1;fill-rule:nonzero;stroke:none"
         id="path257549"
         inkscape:connector-curvature="0" />
    </g>
    <g
       id="g257551"
       transform="matrix(0.35277777,0,0,-0.35277777,181.71169,275.19219)">
      <path
         d="m 0,0 -3.039,-1.778 -107.84,62.261 3.049,1.773 z"
         style="fill:#464646;fill-opacity:1;fill-rule:nonzero;stroke:none"
         id="path257553"
         inkscape:connector-curvature="0" />
    </g>
    <g
       id="g257555"
       transform="matrix(0.35277777,0,0,-0.35277777,181.71169,275.19219)">
      <path
         d="m 0,0 -0.02,-6.773 -3.038,-1.78 0.019,6.775 z"
         style="fill:#3e3e3e;fill-opacity:1;fill-rule:nonzero;stroke:none"
         id="path257557"
         inkscape:connector-curvature="0" />
    </g>
    <g
       id="g257559"
       transform="matrix(0.35277777,0,0,-0.35277777,180.63957,275.81953)">
      <path
         d="m 0,0 -0.019,-6.774 -107.84,62.261 0.019,6.775 z"
         style="fill:#2b2b2b;fill-opacity:1;fill-rule:nonzero;stroke:none"
         id="path257561"
         inkscape:connector-curvature="0" />
    </g>
    <g
       id="g257563"
       transform="matrix(0.35277777,0,0,-0.35277777,142.30115,254.01035)">
      <path
         d="m 0,0 -0.02,-6.774 -20.043,-11.693 0.018,6.773 z"
         style="fill:#7a9f39;fill-opacity:1;fill-rule:nonzero;stroke:none"
         id="path257565"
         inkscape:connector-curvature="0" />
    </g>
    <g
       id="g257567"
       transform="matrix(0.35277777,0,0,-0.35277777,180.63957,275.81953)">
      <path
         d="m 0,0 -0.019,-6.774 -0.79,-0.469 0.02,6.775 z"
         style="fill:#c5c5c5;fill-opacity:1;fill-rule:nonzero;stroke:none"
         id="path257569"
         inkscape:connector-curvature="0" />
    </g>
    <g
       id="g257571"
       transform="matrix(0.35277777,0,0,-0.35277777,180.63957,275.81953)">
      <path
         d="m 0,0 -0.789,-0.468 -107.849,62.265 0.74,0.498 z"
         style="fill:#dcdcdc;fill-opacity:1;fill-rule:nonzero;stroke:none"
         id="path257573"
         inkscape:connector-curvature="0" />
    </g>
    <g
       id="g257575"
       transform="matrix(0.35277777,0,0,-0.35277777,180.36118,275.98456)">
      <path
         d="m 0,0 -0.02,-6.775 -107.847,62.267 0.018,6.773 z"
         style="fill:#898989;fill-opacity:1;fill-rule:nonzero;stroke:none"
         id="path257577"
         inkscape:connector-curvature="0" />
    </g>
    <g
       id="g257579"
       transform="matrix(0.35277777,0,0,-0.35277777,173.2736,280.10042)">
      <path
         d="m 0,0 -0.019,-6.772 -107.839,62.259 0.017,6.775 z"
         style="fill:#2b2b2b;fill-opacity:1;fill-rule:nonzero;stroke:none"
         id="path257581"
         inkscape:connector-curvature="0" />
    </g>
    <g
       id="g257583"
       transform="matrix(0.35277777,0,0,-0.35277777,180.35811,275.9835)">
      <path
         d="m 0,0 -0.021,-6.772 -20.08,-11.67 0.019,6.772 z"
         style="fill:#3e3e3e;fill-opacity:1;fill-rule:nonzero;stroke:none"
         id="path257585"
         inkscape:connector-curvature="0" />
    </g>
    <g
       id="g257587"
       transform="matrix(0.35277777,0,0,-0.35277777,135.22977,258.13584)">
      <path
         d="m 0,0 20.083,11.67 107.84,-62.262 -20.082,-11.67 z"
         style="fill:#464646;fill-opacity:1;fill-rule:nonzero;stroke:none"
         id="path257589"
         inkscape:connector-curvature="0" />
    </g>
    <g
       id="g257591"
       transform="matrix(0.35277777,0,0,-0.35277777,197.0086,257.72073)">
      <path
         d="m 0,0 c -3.323,1.918 -8.693,1.918 -11.993,0 l -30.16,-17.527 c -1.64,-0.953 -2.459,-2.201 -2.464,-3.45 l -0.002,-0.851 c 0.004,1.25 0.825,2.497 2.464,3.45 l 30.16,17.526 c 3.301,1.919 8.67,1.919 11.992,0 1.671,-0.965 2.506,-2.232 2.502,-3.496 l 0.003,0.85 C 2.505,-2.232 1.672,-0.967 0,0"
         style="fill:#cecece;fill-opacity:1;fill-rule:nonzero;stroke:none"
         id="path257593"
         inkscape:connector-curvature="0" />
    </g>
    <g
       id="g257595"
       transform="matrix(0.35277777,0,0,-0.35277777,215.60865,253.92628)">
      <path
         d="m 0,0 -0.002,-0.85 -84.706,-49.175 0.003,0.849 z"
         style="fill:#cecece;fill-opacity:1;fill-rule:nonzero;stroke:none"
         id="path257597"
         inkscape:connector-curvature="0" />
    </g>
    <g
       id="g257599"
       transform="matrix(0.35277777,0,0,-0.35277777,186.38254,266.35412)">
      <path
         d="m 0,0 30.159,17.525 c 3.301,1.918 3.284,5.03 -0.038,6.948 -3.323,1.918 -8.693,1.918 -11.993,0 L -12.032,6.945 C -15.332,5.027 -15.315,1.917 -11.992,0 -8.67,-1.919 -3.301,-1.919 0,0 M -17.661,93.256 82.846,35.229 -1.859,-13.947 -102.367,44.082 Z"
         style="fill:#f4f4f4;fill-opacity:1;fill-rule:nonzero;stroke:none"
         id="path257601"
         inkscape:connector-curvature="0" />
    </g>
    <g
       id="g257603"
       transform="matrix(0.35277777,0,0,-0.35277777,209.10223,252.76942)">
      <path
         d="m 0,0 -19.439,-11.297 -37.405,21.854 19.442,11.297 z"
         style="fill:#a9fffd;fill-opacity:1;fill-rule:nonzero;stroke:none"
         id="path257605"
         inkscape:connector-curvature="0" />
    </g>
    <g
       id="g257607"
       transform="matrix(0.35277777,0,0,-0.35277777,195.03867,243.11594)">
      <path
         d="m 0,0 -0.021,-7.731 -17.094,-9.973 -4.337,5.236 z"
         style="fill:#d1d1d1;fill-opacity:1;fill-rule:nonzero;stroke:none"
         id="path257609"
         inkscape:connector-curvature="0" />
    </g>
    <g
       id="g257611"
       transform="matrix(0.35277777,0,0,-0.35277777,210.18332,251.85957)">
      <path
         d="m 0,0 -4.87,-4.944 -38.081,21.998 0.021,7.731 z"
         style="fill:#bababa;fill-opacity:1;fill-rule:nonzero;stroke:none"
         id="path257613"
         inkscape:connector-curvature="0" />
    </g>
    <g
       id="g257615"
       transform="matrix(0.35277777,0,0,-0.35277777,202.61856,256.80569)">
      <path
         d="m 0,0 -0.022,-1.635 -45.623,26.339 0.022,1.634 z"
         style="fill:#bababa;fill-opacity:1;fill-rule:nonzero;stroke:none"
         id="path257617"
         inkscape:connector-curvature="0" />
    </g>
    <g
       id="g257619"
       transform="matrix(0.35277777,0,0,-0.35277777,211.12933,251.85957)">
      <path
         d="m 0,0 -0.021,-1.634 -24.126,-14.021 0.022,1.634 z"
         style="fill:#d1d1d1;fill-opacity:1;fill-rule:nonzero;stroke:none"
         id="path257621"
         inkscape:connector-curvature="0" />
    </g>
    <g
       id="g257623"
       transform="matrix(0.35277777,0,0,-0.35277777,202.61515,256.25793)">
      <path
         d="M 0,0 21.453,12.468 -21.477,37.253 -42.929,24.785 Z M -21.486,38.807 24.135,12.468 0.01,-1.553 -45.613,24.785 Z"
         style="fill:#e2e2e2;fill-opacity:1;fill-rule:nonzero;stroke:none"
         id="path257625"
         inkscape:connector-curvature="0" />
    </g>
    <g
       id="g257627"
       transform="matrix(0.35277777,0,0,-0.35277777,-770.19196,711.44702)">
      <g
         id="g257629" />
      <g
         id="g257641">
        <g
           clip-path="url(#clipPath257633)"
           id="g257639"
           style="opacity:0.5">
          <g
             transform="translate(2736.0879,1325.8506)"
             id="g257637">
            <path
               d="m 0,0 -0.007,-0.006 -19.996,-11.621 41.479,-23.947 20.005,11.626 z"
               style="fill:#5ffffb;fill-opacity:1;fill-rule:nonzero;stroke:none"
               id="path257635"
               inkscape:connector-curvature="0" />
          </g>
        </g>
      </g>
    </g>
    <g
       id="g257643"
       transform="matrix(0.35277777,0,0,-0.35277777,-770.19196,711.44702)">
      <g
         id="g257645" />
      <g
         id="g257657">
        <g
           clip-path="url(#clipPath257649)"
           id="g257655"
           style="opacity:0.130005">
          <g
             transform="translate(2648.335,1300.2041)"
             id="g257653">
            <path
               d="M 0,0 11.744,-1.312 3.122,5.516 Z"
               style="fill:#161615;fill-opacity:1;fill-rule:nonzero;stroke:none"
               id="path257651"
               inkscape:connector-curvature="0" />
          </g>
        </g>
      </g>
    </g>
    <g
       id="g257659"
       transform="matrix(0.35277777,0,0,-0.35277777,-770.19196,711.44702)">
      <g
         id="g257661" />
      <g
         id="g257673">
        <g
           clip-path="url(#clipPath257665)"
           id="g257671"
           style="opacity:0.130005">
          <g
             transform="translate(2729.8125,1293.0479)"
             id="g257669">
            <path
               d="m 0,0 -28.932,-17.289 -9.809,-1.309 -16.077,10.194 37.325,22.384 z"
               style="fill:#060606;fill-opacity:1;fill-rule:nonzero;stroke:none"
               id="path257667"
               inkscape:connector-curvature="0" />
          </g>
        </g>
      </g>
    </g>
    <g
       id="g257675"
       transform="matrix(0.35277777,0,0,-0.35277777,172.83505,241.76925)">
      <path
         d="m 0,0 -24.792,-14.859 -0.012,-16.274 24.787,14.926 z"
         style="fill:#a3a3a3;fill-opacity:1;fill-rule:nonzero;stroke:none"
         id="path257677"
         inkscape:connector-curvature="0" />
    </g>
    <g
       id="g257679"
       transform="matrix(0.35277777,0,0,-0.35277777,174.21617,251.44823)">
      <path
         d="M 0,0 -24.183,14.494 -24.169,-0.991 0.012,-15.553 Z"
         style="fill:#4f4f4f;fill-opacity:1;fill-rule:nonzero;stroke:none"
         id="path257681"
         inkscape:connector-curvature="0" />
    </g>
    <g
       id="g257683"
       transform="matrix(0.35277777,0,0,-0.35277777,165.57761,246.14312)">
      <path
         d="m 0,0 0.016,-16.208 24.789,-14.926 -0.015,16.276 z m 0.607,-1.088 23.576,-14.129 0.01,-14.828 -23.569,14.193 z"
         style="fill:#878787;fill-opacity:1;fill-rule:nonzero;stroke:none"
         id="path257685"
         inkscape:connector-curvature="0" />
    </g>
    <g
       id="g257687"
       transform="matrix(0.35277777,0,0,-0.35277777,179.16439,247.95594)">
      <path
         d="M 0,0 24.538,14.533 -21.209,42.138 -45.748,27.603 Z"
         style="fill:#c9cdbb;fill-opacity:1;fill-rule:nonzero;stroke:none"
         id="path257689"
         inkscape:connector-curvature="0" />
    </g>
    <g
       id="g257691"
       transform="matrix(0.35277777,0,0,-0.35277777,163.02546,238.2184)">
      <path
         d="M 0,0 45.748,-27.603 70.286,-13.069 24.539,14.535 Z"
         style="fill:#c6c6c6;fill-opacity:1;fill-rule:nonzero;stroke:none"
         id="path257693"
         inkscape:connector-curvature="0" />
    </g>
    <g
       id="g257695"
       transform="matrix(0.35277777,0,0,-0.35277777,187.82089,242.07172)">
      <path
         d="m 0,0 -0.004,-2.295 -45.909,27.603 0.008,2.296 z"
         style="fill:#bababa;fill-opacity:1;fill-rule:nonzero;stroke:none"
         id="path257697"
         inkscape:connector-curvature="0" />
    </g>
    <g
       id="g257699"
       transform="matrix(0.35277777,0,0,-0.35277777,171.62651,232.33382)">
      <path
         d="m 0,0 -0.008,-2.296 -24.378,-14.534 0.005,2.296 z"
         style="fill:#d8d8d8;fill-opacity:1;fill-rule:nonzero;stroke:none"
         id="path257701"
         inkscape:connector-curvature="0" />
    </g>
    <g
       id="g257703"
       transform="matrix(0.35277777,0,0,-0.35277777,179.1561,249.10007)">
      <path
         d="M 0,0 33.88,19.923 33.967,-15.944 0.006,-36.14 Z"
         style="fill:#a3a3a3;fill-opacity:1;fill-rule:nonzero;stroke:none"
         id="path257705"
         inkscape:connector-curvature="0" />
    </g>
    <g
       id="g257707"
       transform="matrix(0.35277777,0,0,-0.35277777,179.2205,247.19871)">
      <path
         d="M 0,0 24.379,14.533 -21.526,42.137 -45.907,27.603 Z M -21.558,47.673 33.697,14.533 -0.183,-5.39 -55.226,27.602 Z"
         style="fill:#f1f2f2;fill-opacity:1;fill-rule:nonzero;stroke:none"
         id="path257709"
         inkscape:connector-curvature="0" />
    </g>
    <path
       d="m 169.45457,254.19447 h 0.2861 v -2.75132 h -0.2861 z"
       style="fill:#878787;fill-opacity:1;fill-rule:nonzero;stroke:none;stroke-width:0.35277778"
       id="path257711"
       inkscape:connector-curvature="0" />
    <g
       id="g257713"
       transform="matrix(0.35277777,0,0,-0.35277777,159.73817,237.46148)">
      <path
         d="m 0,0 55.043,-32.991 0.026,-36.134 -17.97,10.821 -0.013,12.076 -24.79,14.861 0.017,-12.01 -12.276,7.391 z"
         style="fill:#bfbfbf;fill-opacity:1;fill-rule:nonzero;stroke:none"
         id="path257715"
         inkscape:connector-curvature="0" />
    </g>
    <g
       id="g257717"
       transform="matrix(0.35277777,0,0,-0.35277777,190.02468,245.67252)">
      <path
         d="m 0,0 -4.321,-2.55 -0.008,-10.266 4.319,2.591 z"
         style="fill:#d8d8d8;fill-opacity:1;fill-rule:nonzero;stroke:none"
         id="path257719"
         inkscape:connector-curvature="0" />
    </g>
    <g
       id="g257721"
       transform="matrix(0.35277777,0,0,-0.35277777,188.4968,249.77839)">
      <path
         d="M 0,0 0.01,9.089 3.608,11.213 3.599,2.173 Z"
         style="fill:#4f4f4f;fill-opacity:1;fill-rule:nonzero;stroke:none"
         id="path257723"
         inkscape:connector-curvature="0" />
    </g>
    <g
       id="g257725"
       transform="matrix(0.35277777,0,0,-0.35277777,186.37738,249.63372)">
      <path
         d="m 0,0 -4.321,-2.551 -0.008,-10.266 4.318,2.594 z"
         style="fill:#d8d8d8;fill-opacity:1;fill-rule:nonzero;stroke:none"
         id="path257727"
         inkscape:connector-curvature="0" />
    </g>
    <g
       id="g257729"
       transform="matrix(0.35277777,0,0,-0.35277777,184.84946,253.73956)">
      <path
         d="M 0,0 0.01,9.088 3.609,11.213 3.6,2.172 Z"
         style="fill:#4f4f4f;fill-opacity:1;fill-rule:nonzero;stroke:none"
         id="path257731"
         inkscape:connector-curvature="0" />
    </g>
    <g
       id="g257733"
       transform="matrix(0.35277777,0,0,-0.35277777,182.73041,253.59453)">
      <path
         d="m 0,0 -4.322,-2.553 -0.007,-10.266 4.318,2.594 z"
         style="fill:#d8d8d8;fill-opacity:1;fill-rule:nonzero;stroke:none"
         id="path257735"
         inkscape:connector-curvature="0" />
    </g>
    <g
       id="g257737"
       transform="matrix(0.35277777,0,0,-0.35277777,181.20247,257.70108)">
      <path
         d="M 0,0 0.009,9.088 3.607,11.212 3.599,2.174 Z"
         style="fill:#4f4f4f;fill-opacity:1;fill-rule:nonzero;stroke:none"
         id="path257739"
         inkscape:connector-curvature="0" />
    </g>
    <g
       id="g257741"
       transform="matrix(0.35277777,0,0,-0.35277777,177.67573,254.89575)">
      <path
         d="m 0,0 -0.024,-28.393 -2.93,-1.746 0.023,28.392 z"
         style="fill:#787878;fill-opacity:1;fill-rule:nonzero;stroke:none"
         id="path257743"
         inkscape:connector-curvature="0" />
    </g>
    <g
       id="g257745"
       transform="matrix(0.35277777,0,0,-0.35277777,176.64187,255.51206)">
      <path
         d="m 0,0 -0.023,-28.392 -2.949,1.746 0.024,28.393 z"
         style="fill:#535353;fill-opacity:1;fill-rule:nonzero;stroke:none"
         id="path257747"
         inkscape:connector-curvature="0" />
    </g>
    <g
       id="g257749"
       transform="matrix(0.35277777,0,0,-0.35277777,177.67573,254.89575)">
      <path
         d="M 0,0 -2.931,-1.747 -5.879,0 -2.95,1.744 Z"
         style="fill:#868686;fill-opacity:1;fill-rule:nonzero;stroke:none"
         id="path257751"
         inkscape:connector-curvature="0" />
    </g>
    <g
       id="g257753"
       transform="matrix(0.35277777,0,0,-0.35277777,155.11897,241.3493)">
      <path
         d="m 0,0 -0.023,-29.307 -2.93,-1.746 0.024,29.306 z"
         style="fill:#787878;fill-opacity:1;fill-rule:nonzero;stroke:none"
         id="path257755"
         inkscape:connector-curvature="0" />
    </g>
    <g
       id="g257757"
       transform="matrix(0.35277777,0,0,-0.35277777,154.0858,241.9656)">
      <path
         d="m 0,0 -0.024,-29.306 -2.948,1.746 0.024,29.307 z"
         style="fill:#535353;fill-opacity:1;fill-rule:nonzero;stroke:none"
         id="path257759"
         inkscape:connector-curvature="0" />
    </g>
    <g
       id="g257761"
       transform="matrix(0.35277777,0,0,-0.35277777,155.11897,241.3493)">
      <path
         d="M 0,0 -2.929,-1.747 -5.877,0 l 2.93,1.746 z"
         style="fill:#868686;fill-opacity:1;fill-rule:nonzero;stroke:none"
         id="path257763"
         inkscape:connector-curvature="0" />
    </g>
    <g
       id="g257765"
       transform="matrix(0.35277777,0,0,-0.35277777,176.64669,251.06342)">
      <path
         d="M 0,0 40.026,23.676 -14.575,56.182 -54.605,32.506 Z"
         style="fill:#c9cdbb;fill-opacity:1;fill-rule:nonzero;stroke:none"
         id="path257767"
         inkscape:connector-curvature="0" />
    </g>
    <g
       id="g257769"
       transform="matrix(0.35277777,0,0,-0.35277777,156.32375,239.45001)">
      <path
         d="M 0,0 56.657,-34.52 99.256,-9.244 42.826,24.309 Z"
         style="fill:#7c7b75;fill-opacity:1;fill-rule:nonzero;stroke:none"
         id="path257771"
         inkscape:connector-curvature="0" />
    </g>
    <g
       id="g257773"
       transform="matrix(0.35277777,0,0,-0.35277777,192.31362,241.51052)">
      <path
         d="m 0,0 -0.006,-6.182 -59.203,35.084 0.01,6.182 z"
         style="fill:#d3ceb4;fill-opacity:1;fill-rule:nonzero;stroke:none"
         id="path257775"
         inkscape:connector-curvature="0" />
    </g>
    <g
       id="g257777"
       transform="matrix(0.35277777,0,0,-0.35277777,171.42945,229.20775)">
      <path
         d="m 0,0 -0.01,-5.972 -44.08,-26.257 0.008,5.974 z"
         style="fill:#b5b09a;fill-opacity:1;fill-rule:nonzero;stroke:none"
         id="path257779"
         inkscape:connector-curvature="0" />
    </g>
    <g
       id="g257781"
       transform="matrix(0.35277777,0,0,-0.35277777,153.00027,238.58768)">
      <path
         d="M 0,0 66.994,-39.688 67.007,-48.14 0.114,-7.984 Z"
         style="fill:#d3ceb4;fill-opacity:1;fill-rule:nonzero;stroke:none"
         id="path257783"
         inkscape:connector-curvature="0" />
    </g>
    <g
       id="g257785"
       transform="matrix(0.35277777,0,0,-0.35277777,176.63428,252.58855)">
      <path
         d="M 0,0 52.487,30.86 52.6,22.772 0.013,-8.452 Z"
         style="fill:#b5b09a;fill-opacity:1;fill-rule:nonzero;stroke:none"
         id="path257787"
         inkscape:connector-curvature="0" />
    </g>
    <g
       id="g257789"
       transform="matrix(0.35277777,0,0,-0.35277777,176.72524,250.93459)">
      <path
         d="m 0,0 44.002,26.172 -59.027,35.002 -44,-26.171 z M -15.056,66.059 52.229,26.172 -0.258,-4.688 -67.252,34.999 Z"
         style="fill:#ddd8c3;fill-opacity:1;fill-rule:nonzero;stroke:none"
         id="path257791"
         inkscape:connector-curvature="0" />
    </g>
    <g
       id="g257793"
       transform="matrix(0.35277777,0,0,-0.35277777,-770.19196,711.44702)">
      <g
         id="g257795" />
      <g
         id="g257807">
        <g
           clip-path="url(#clipPath257799)"
           id="g257805"
           style="opacity:0.11000097">
          <g
             transform="translate(2636.1152,1337.4619)"
             id="g257803">
            <path
               d="M 0,0 39.454,23.613 36.263,25.498 -6.247,0.14 48.06,-32.072 l 3.032,1.829 z"
               style="fill:#161615;fill-opacity:1;fill-rule:nonzero;stroke:none"
               id="path257801"
               inkscape:connector-curvature="0" />
          </g>
        </g>
      </g>
    </g>
    <g
       id="g257809"
       transform="matrix(0.35277777,0,0,-0.35277777,169.08955,231.70541)">
      <path
         d="M 0,0 24.926,-14.747 24.922,-34.655 0.002,-19.799 Z"
         style="fill:#d8d8d8;fill-opacity:1;fill-rule:nonzero;stroke:none"
         id="path257811"
         inkscape:connector-curvature="0" />
    </g>
    <g
       id="g257813"
       transform="matrix(0.35277777,0,0,-0.35277777,177.88282,236.90786)">
      <path
         d="M 0,0 33.01,19.455 33.072,-4.194 24.992,0.588 20.99,-1.89 20.986,-7.425 0.007,-19.894 Z"
         style="fill:#bababa;fill-opacity:1;fill-rule:nonzero;stroke:none"
         id="path257815"
         inkscape:connector-curvature="0" />
    </g>
    <g
       id="g257817"
       transform="matrix(0.35277777,0,0,-0.35277777,180.67849,224.80353)">
      <path
         d="m 0,0 25.085,-14.856 -33.01,-19.456 -24.926,14.748 z"
         style="fill:#f1f2f2;fill-opacity:1;fill-rule:nonzero;stroke:none"
         id="path257819"
         inkscape:connector-curvature="0" />
    </g>
    <g
       id="g257821"
       transform="matrix(0.35277777,0,0,-0.35277777,181.57318,235.85641)">
      <path
         d="m 0,0 -6.733,-3.996 -0.009,-10.267 6.732,4.037 z"
         style="fill:#d8d8d8;fill-opacity:1;fill-rule:nonzero;stroke:none"
         id="path257823"
         inkscape:connector-curvature="0" />
    </g>
    <g
       id="g257825"
       transform="matrix(0.35277777,0,0,-0.35277777,179.19434,240.47215)">
      <path
         d="M 0,0 0.01,9.088 6.02,12.657 6.012,3.618 Z"
         style="fill:#4f4f4f;fill-opacity:1;fill-rule:nonzero;stroke:none"
         id="path257827"
         inkscape:connector-curvature="0" />
    </g>
    <g
       id="g257829"
       transform="matrix(0.35277777,0,0,-0.35277777,174.86419,237.48494)">
      <path
         d="M 0,0 4.021,-2.386 4.025,-8.512 0.008,-6.103 Z"
         style="fill:#bababa;fill-opacity:1;fill-rule:nonzero;stroke:none"
         id="path257831"
         inkscape:connector-curvature="0" />
    </g>
    <g
       id="g257833"
       transform="matrix(0.35277777,0,0,-0.35277777,176.28498,240.2396)">
      <path
         d="m 0,0 -0.007,5.423 -3.588,2.13 0.006,-5.395 z"
         style="fill:#4f4f4f;fill-opacity:1;fill-rule:nonzero;stroke:none"
         id="path257835"
         inkscape:connector-curvature="0" />
    </g>
    <g
       id="g257837"
       transform="matrix(0.35277777,0,0,-0.35277777,170.46655,234.88112)">
      <path
         d="M 0,0 4.019,-2.385 4.024,-8.511 0.005,-6.102 Z"
         style="fill:#bababa;fill-opacity:1;fill-rule:nonzero;stroke:none"
         id="path257839"
         inkscape:connector-curvature="0" />
    </g>
    <g
       id="g257841"
       transform="matrix(0.35277777,0,0,-0.35277777,171.88625,237.63511)">
      <path
         d="M 0,0 -0.006,5.422 -3.592,7.553 -3.588,2.158 Z"
         style="fill:#4f4f4f;fill-opacity:1;fill-rule:nonzero;stroke:none"
         id="path257843"
         inkscape:connector-curvature="0" />
    </g>
    <g
       id="g257845"
       transform="matrix(0.35277777,0,0,-0.35277777,172.16806,235.8926)">
      <path
         d="M 0,0 6.734,-3.998 6.742,-17.176 0.01,-13.138 Z"
         style="fill:#d8d8d8;fill-opacity:1;fill-rule:nonzero;stroke:none"
         id="path257847"
         inkscape:connector-curvature="0" />
    </g>
    <g
       id="g257849"
       transform="matrix(0.35277777,0,0,-0.35277777,174.54727,241.53567)">
      <path
         d="m 0,0 -0.01,11.998 -6.011,3.57 0.009,-11.951 z"
         style="fill:#4f4f4f;fill-opacity:1;fill-rule:nonzero;stroke:none"
         id="path257851"
         inkscape:connector-curvature="0" />
    </g>
    <g
       id="g257853"
       transform="matrix(0.35277777,0,0,-0.35277777,-770.19196,711.44702)">
      <g
         id="g257855" />
      <g
         id="g257867">
        <g
           clip-path="url(#clipPath257859)"
           id="g257865"
           style="opacity:0.19000202">
          <g
             transform="translate(2646.6064,1339.0498)"
             id="g257863">
            <path
               d="M 0,0 C 1.56,-0.924 1.571,-2.424 0.02,-3.35 -1.53,-4.273 -4.053,-4.27 -5.609,-3.346 -7.17,-2.424 -7.184,-0.924 -5.633,0 -4.08,0.924 -1.558,0.922 0,0"
               style="fill:#181816;fill-opacity:1;fill-rule:nonzero;stroke:none"
               id="path257861"
               inkscape:connector-curvature="0" />
          </g>
        </g>
      </g>
    </g>
    <g
       id="g257869"
       transform="matrix(0.35277777,0,0,-0.35277777,162.35231,239.38902)">
      <path
         d="m 0,0 c 0.477,-0.294 0.46,-0.764 -0.036,-1.046 -0.497,-0.285 -1.285,-0.278 -1.763,0.018 -0.476,0.294 -0.46,0.763 0.037,1.047 C -1.266,0.302 -0.477,0.294 0,0"
         style="fill:#828282;fill-opacity:1;fill-rule:nonzero;stroke:none"
         id="path257871"
         inkscape:connector-curvature="0" />
    </g>
    <g
       id="g257873"
       transform="matrix(0.35277777,0,0,-0.35277777,162.63205,238.18979)">
      <path
         d="M 0,0 C 0.902,-0.555 0.869,-1.441 -0.068,-1.98 -1.008,-2.516 -2.5,-2.502 -3.4,-1.943 -4.301,-1.389 -4.271,-0.504 -3.332,0.035 -2.393,0.572 -0.9,0.557 0,0"
         style="fill:#38260e;fill-opacity:1;fill-rule:nonzero;stroke:none"
         id="path257875"
         inkscape:connector-curvature="0" />
    </g>
    <g
       transform="matrix(0.35277777,0,0,-0.35277777,-770.19196,711.44702)"
       id="g257877">
      <g
         id="g257879"
         clip-path="url(#clipPath257883)">
        <g
           id="g257885"
           transform="translate(2644.1572,1339.5361)">
          <path
             d="M 0,0 C -0.939,-0.535 -2.432,-0.521 -3.332,0.037 -4.168,0.551 -3.389,1.813 -3.266,2 -2.711,1.802 0.866,0.496 0,0 m -4.141,0.875 c 0.002,-0.371 0.234,-0.742 0.7,-1.028 1.566,-0.968 4.322,-0.292 4.318,1.042 -0.048,2.062 -4.941,2.039 -5.018,-0.014"
             style="fill:#f9f9f9;fill-opacity:1;fill-rule:nonzero;stroke:none"
             id="path257887"
             inkscape:connector-curvature="0" />
        </g>
      </g>
    </g>
    <g
       transform="matrix(0.35277777,0,0,-0.35277777,-770.19196,711.44702)"
       id="g257889">
      <g
         id="g257891"
         clip-path="url(#clipPath257895)">
        <g
           id="g257897"
           transform="translate(2640.0186,1339.7773)">
          <path
             d="M 0,0 -0.002,0.634 C 0,0.263 0.231,-0.108 0.697,-0.395 2.264,-1.362 5.02,-0.687 5.016,0.647 L 5.018,0.015 C 5.021,-1.318 2.268,-1.996 0.698,-1.028 0.233,-0.74 0.002,-0.371 0,0"
             style="fill:#ededed;fill-opacity:1;fill-rule:nonzero;stroke:none"
             id="path257899"
             inkscape:connector-curvature="0" />
        </g>
      </g>
    </g>
    <g
       transform="matrix(0.35277777,0,0,-0.35277777,-770.19196,711.44702)"
       id="g257901">
      <g
         id="g257903"
         clip-path="url(#clipPath257907)">
        <g
           id="g257909"
           transform="translate(2641.3896,1337.2246)">
          <path
             d="M 0,0 C -0.796,0.497 -1.352,1.415 -1.371,2.553 -1.369,2.182 -1.138,1.813 -0.673,1.524 0.895,0.557 3.649,1.232 3.646,2.567 3.616,1.03 2.732,0.274 2.208,-0.04 1.609,-0.384 0.668,-0.382 0.075,-0.042 0.053,-0.029 0.023,-0.011 0,0"
             style="fill:#bababa;fill-opacity:1;fill-rule:nonzero;stroke:none"
             id="path257911"
             inkscape:connector-curvature="0" />
        </g>
      </g>
    </g>
    <g
       transform="matrix(0.35277777,0,0,-0.35277777,-770.19196,711.44702)"
       id="g257913">
      <g
         id="g257915"
         clip-path="url(#clipPath257919)">
        <g
           id="g257921"
           transform="translate(2642.1074,1339.9883)">
          <path
             d="m 0,0 c 0.015,-0.419 0.692,-0.356 0.692,0.035 l 0.006,7.343 c 0,0.21 -0.154,0.383 -0.346,0.383 C 0.16,7.761 0.005,7.588 0.005,7.377 L -0.003,1.868 C -0.003,1.849 -0.002,1.835 0,1.817 Z"
             style="fill:#938548;fill-opacity:1;fill-rule:nonzero;stroke:none"
             id="path257923"
             inkscape:connector-curvature="0" />
        </g>
        <g
           id="g257925"
           transform="translate(2644.9512,1350.1895)">
          <path
             d="M 0,0 V 1.308 H -0.432 V 0 c 0,-0.53 0.047,-0.972 0.659,-1.381 l 0.698,-0.362 0.189,0.398 -0.681,0.352 C 0.048,-0.712 -0.017,-0.563 0,0"
             style="fill:#4c4114;fill-opacity:1;fill-rule:nonzero;stroke:none"
             id="path257927"
             inkscape:connector-curvature="0" />
        </g>
        <g
           id="g257929"
           transform="translate(2645.1963,1356.0361)">
          <path
             d="m 0,0 c 0,0 -0.208,0.306 -0.115,1.282 0.039,0.403 0.047,1.564 0.047,1.564 0,0.818 -0.396,1.449 -1.025,1.588 -0.268,0.058 -0.373,0.64 -0.418,1.059 -0.042,0.373 -0.139,1.254 -0.139,1.254 0,0.504 -0.271,1.018 -0.691,1.018 -0.419,0 -0.591,-0.237 -0.729,-0.656 0,0 -0.118,-1.004 -0.475,-1.103 -0.51,-0.146 -0.951,-0.511 -0.951,-1.139 0,0 -0.004,-0.98 0.006,-1.242 0.025,-1.031 -0.463,-0.892 -0.49,-0.894 -0.653,-0.028 -1,-0.752 -1,-1.7 l 0.179,-2.813 c 0,0 0.024,-0.39 -0.389,-0.419 -0.581,-0.044 -1.281,-0.56 -1.212,-3.403 l 0.069,-2.314 c 0,-2.314 1.206,-2.529 1.206,-2.529 l 0.122,-1.408 c 0,-0.729 0.194,-1.5 0.768,-1.5 0.442,0 0.466,-0.557 0.466,-0.557 0.023,-1.089 1.046,-1.617 1.909,-1.617 1.327,0 1.536,0.779 2.027,1.392 0.931,0.112 1.209,1.088 1.371,2.846 0,0 0.42,-0.028 0.584,1.476 0.118,1.087 0.349,5.968 0.349,5.968 C 1.655,-2.482 1.408,-0.126 0,0"
             style="fill:#5b871d;fill-opacity:1;fill-rule:nonzero;stroke:none"
             id="path257931"
             inkscape:connector-curvature="0" />
        </g>
        <g
           id="g257933"
           transform="translate(2644.4268,1354.9209)">
          <path
             d="m 0,0 c 0,0 -0.272,-0.947 -0.107,3.682 0.006,0.214 0.217,1.671 -0.676,1.466 -0.276,-0.064 -0.303,1.041 -0.303,1.041 0,0.39 -0.012,0.711 -0.337,0.711 -0.324,0 -0.457,-0.181 -0.564,-0.504 0,0 -0.089,-0.773 -0.366,-0.855 -0.394,-0.109 -0.734,-0.391 -0.734,-0.875 0,0 -0.002,-0.759 0.003,-0.961 C -3.063,2.91 -3.439,3.019 -3.461,3.019 -3.963,2.996 -4.232,2.437 -4.232,1.705 l 0.101,-1.092 c 0,0.485 0.288,1.875 1.005,1.701 0.279,-0.067 0.464,0.697 0.464,0.697 0.107,0.321 0.245,0.613 0.569,0.613 0.324,0 0.354,-0.558 0.354,-0.947 0,0 0.029,-1.106 0.302,-1.042 0.893,0.205 0.675,-1.25 0.675,-1.468 0,-4.21 0.544,-3.095 0.544,-3.095 0.681,0.976 1.251,-0.92 1.083,-2.644 0,0 -0.088,-1.821 -0.171,-3.211 0.283,0.687 0.487,1.525 0.552,2.118 0.091,0.837 0.271,4.606 0.271,4.606 C 1.686,-0.335 0.652,1.059 0,0"
             style="fill:#94c449;fill-opacity:1;fill-rule:nonzero;stroke:none"
             id="path257935"
             inkscape:connector-curvature="0" />
        </g>
        <g
           id="g257937"
           transform="translate(2642.0078,1351.2969)">
          <path
             d="M 0,0 C -0.079,0.646 -0.543,2.175 -1.956,1.672 -2.943,1.321 -2.971,0.656 -2.971,0.656 c 0,0 -1.051,0.048 -0.862,-1.716 0.082,-0.753 0.355,-1.228 0.355,-1.228 0.103,0.084 -0.13,0.229 0,1.617 0.108,1.172 1.464,1.52 2.01,1.34 0.761,-0.25 0.844,-1.283 0.844,-1.283 0.271,-2.427 1.549,0.447 1.757,-2.055 0,0 0.173,-2.148 0.222,-1.698 0.073,0.679 0.154,1.363 0.167,1.911 C 1.591,0.058 0.157,-1.274 0,0"
             style="fill:#94c449;fill-opacity:1;fill-rule:nonzero;stroke:none"
             id="path257939"
             inkscape:connector-curvature="0" />
        </g>
        <g
           id="g257941"
           transform="translate(2642.96,1346.3604)">
          <path
             d="m 0,0 c 0,0 0.488,0.613 1.06,-0.082 0.57,-0.697 0.517,-2.148 0.517,-2.148 0,0 0.273,2.064 -0.245,2.677 C 0.814,1.06 0.353,0.781 0.162,0.531 0.013,0.333 0,0 0,0"
             style="fill:#94c449;fill-opacity:1;fill-rule:nonzero;stroke:none"
             id="path257943"
             inkscape:connector-curvature="0" />
        </g>
        <g
           id="g257945">
          <g
             id="g257947" />
          <g
             id="g257959">
            <g
               clip-path="url(#clipPath257951)"
               id="g257957"
               style="opacity:0.19000202">
              <g
                 transform="translate(2711.0664,1328.4443)"
                 id="g257955">
                <path
                   d="M 0,0 C 1.56,-0.923 1.569,-2.422 0.019,-3.348 -1.53,-4.271 -4.054,-4.27 -5.61,-3.345 -7.171,-2.422 -7.184,-0.923 -5.633,0 -4.08,0.926 -1.557,0.922 0,0"
                   style="fill:#181816;fill-opacity:1;fill-rule:nonzero;stroke:none"
                   id="path257953"
                   inkscape:connector-curvature="0" />
              </g>
            </g>
          </g>
        </g>
        <g
           id="g257961"
           transform="translate(2707.8926,1327.5127)">
          <path
             d="m 0,0 c 0.476,-0.294 0.459,-0.762 -0.038,-1.047 -0.496,-0.285 -1.283,-0.275 -1.761,0.018 -0.478,0.293 -0.46,0.763 0.036,1.047 C -1.267,0.303 -0.477,0.293 0,0"
             style="fill:#828282;fill-opacity:1;fill-rule:nonzero;stroke:none"
             id="path257963"
             inkscape:connector-curvature="0" />
        </g>
        <g
           id="g257965"
           transform="translate(2708.6855,1330.9131)">
          <path
             d="m 0,0 c 0.901,-0.557 0.869,-1.443 -0.069,-1.981 -0.939,-0.537 -2.431,-0.522 -3.333,0.037 -0.9,0.553 -0.87,1.441 0.07,1.977 C -2.393,0.571 -0.901,0.557 0,0"
             style="fill:#38260e;fill-opacity:1;fill-rule:nonzero;stroke:none"
             id="path257967"
             inkscape:connector-curvature="0" />
        </g>
      </g>
    </g>
    <g
       transform="matrix(0.35277777,0,0,-0.35277777,-770.19196,711.44702)"
       id="g257969">
      <g
         id="g257971"
         clip-path="url(#clipPath257975)">
        <g
           id="g257977"
           transform="translate(2708.6162,1328.9316)">
          <path
             d="M 0,0 C -0.938,-0.536 -2.431,-0.521 -3.333,0.037 -4.167,0.551 -3.39,1.813 -3.266,2 -2.71,1.802 0.867,0.497 0,0 m -4.141,0.874 c 0.002,-0.371 0.234,-0.74 0.701,-1.028 1.565,-0.968 4.32,-0.292 4.317,1.043 -0.046,2.062 -4.941,2.036 -5.018,-0.015"
             style="fill:#f9f9f9;fill-opacity:1;fill-rule:nonzero;stroke:none"
             id="path257979"
             inkscape:connector-curvature="0" />
        </g>
      </g>
    </g>
    <g
       transform="matrix(0.35277777,0,0,-0.35277777,-770.19196,711.44702)"
       id="g257981">
      <g
         id="g257983"
         clip-path="url(#clipPath257987)">
        <g
           id="g257989"
           transform="translate(2704.4775,1329.1729)">
          <path
             d="M 0,0 -0.002,0.633 C 0,0.262 0.231,-0.107 0.698,-0.396 2.264,-1.363 5.019,-0.688 5.016,0.647 L 5.017,0.014 C 5.021,-1.318 2.269,-1.996 0.7,-1.029 0.233,-0.742 0.002,-0.371 0,0"
             style="fill:#ededed;fill-opacity:1;fill-rule:nonzero;stroke:none"
             id="path257991"
             inkscape:connector-curvature="0" />
        </g>
      </g>
    </g>
    <g
       transform="matrix(0.35277777,0,0,-0.35277777,-770.19196,711.44702)"
       id="g257993">
      <g
         id="g257995"
         clip-path="url(#clipPath257999)">
        <g
           id="g258001"
           transform="translate(2705.8486,1326.6221)">
          <path
             d="M 0,0 C -0.795,0.495 -1.352,1.412 -1.371,2.551 -1.369,2.18 -1.138,1.809 -0.671,1.521 0.895,0.557 3.65,1.232 3.646,2.564 3.616,1.027 2.733,0.271 2.21,-0.043 1.61,-0.385 0.667,-0.385 0.074,-0.045 0.054,-0.031 0.022,-0.014 0,0"
             style="fill:#bababa;fill-opacity:1;fill-rule:nonzero;stroke:none"
             id="path258003"
             inkscape:connector-curvature="0" />
        </g>
      </g>
    </g>
    <g
       id="g258013"
       transform="matrix(0.35277777,0,0,-0.35277777,184.62486,242.46997)">
      <path
         d="M 0,0 C 0.016,-0.419 0.692,-0.357 0.692,0.033 L 0.698,7.376 C 0.698,7.59 0.543,7.76 0.352,7.76 0.161,7.76 0.005,7.588 0.006,7.375 L -0.003,1.867 C -0.003,1.851 -0.001,1.834 0,1.818 Z"
         style="fill:#938548;fill-opacity:1;fill-rule:nonzero;stroke:none"
         id="path258015"
         inkscape:connector-curvature="0" />
    </g>
    <g
       id="g258017"
       transform="matrix(0.35277777,0,0,-0.35277777,185.62739,238.87121)">
      <path
         d="M 0,0 V 1.309 H -0.431 V 0 c 0,-0.531 0.048,-0.971 0.66,-1.381 l 0.696,-0.361 0.191,0.397 -0.681,0.351 C 0.049,-0.713 -0.016,-0.566 0,0"
         style="fill:#4c4114;fill-opacity:1;fill-rule:nonzero;stroke:none"
         id="path258019"
         inkscape:connector-curvature="0" />
    </g>
    <g
       id="g258021"
       transform="matrix(0.35277777,0,0,-0.35277777,185.71486,236.80866)">
      <path
         d="m 0,0 c 0,0 -0.209,0.307 -0.115,1.282 0.038,0.403 0.045,1.561 0.045,1.561 0,0.822 -0.396,1.451 -1.024,1.59 -0.268,0.06 -0.372,0.64 -0.418,1.059 -0.043,0.373 -0.14,1.255 -0.14,1.255 0,0.504 -0.27,1.016 -0.69,1.016 -0.419,0 -0.592,-0.236 -0.731,-0.653 0,0 -0.115,-1.005 -0.474,-1.105 -0.51,-0.145 -0.95,-0.51 -0.95,-1.139 0,0 -0.003,-0.98 0.004,-1.241 0.026,-1.032 -0.462,-0.893 -0.49,-0.893 -0.65,-0.028 -1,-0.754 -1,-1.702 l 0.18,-2.812 c 0,0 0.026,-0.391 -0.389,-0.42 -0.58,-0.044 -1.282,-0.559 -1.21,-3.402 l 0.068,-2.315 c 0,-2.314 1.205,-2.526 1.205,-2.526 l 0.121,-1.412 c 0,-0.73 0.195,-1.499 0.77,-1.499 0.442,0 0.466,-0.559 0.466,-0.559 0.024,-1.086 1.046,-1.615 1.909,-1.615 1.327,0 1.536,0.781 2.025,1.394 0.931,0.112 1.211,1.086 1.374,2.842 0,0 0.419,-0.025 0.583,1.479 0.117,1.086 0.348,5.968 0.348,5.968 C 1.653,-2.481 1.406,-0.127 0,0"
         style="fill:#5b871d;fill-opacity:1;fill-rule:nonzero;stroke:none"
         id="path258023"
         inkscape:connector-curvature="0" />
    </g>
    <g
       id="g258025"
       transform="matrix(0.35277777,0,0,-0.35277777,185.44271,237.20275)">
      <path
         d="M 0,0 C 0,0 -0.271,-0.947 -0.108,3.683 -0.101,3.897 0.11,5.355 -0.783,5.149 -1.059,5.087 -1.086,6.19 -1.086,6.19 c 0,0.39 -0.012,0.711 -0.336,0.711 -0.326,0 -0.457,-0.181 -0.564,-0.503 0,0 -0.09,-0.776 -0.366,-0.854 -0.394,-0.111 -0.734,-0.393 -0.734,-0.877 0,0 -0.002,-0.757 0.004,-0.961 C -3.062,2.911 -3.438,3.02 -3.459,3.02 -3.963,2.997 -4.232,2.437 -4.232,1.706 l 0.101,-1.091 c 0,0.486 0.289,1.874 1.007,1.701 0.278,-0.068 0.461,0.697 0.461,0.697 0.108,0.322 0.247,0.613 0.571,0.613 0.324,0 0.354,-0.559 0.354,-0.948 0,0 0.027,-1.105 0.302,-1.041 0.895,0.204 0.676,-1.251 0.676,-1.47 0,-4.208 0.543,-3.094 0.543,-3.094 0.681,0.977 1.25,-0.92 1.081,-2.644 0,0 -0.087,-1.82 -0.17,-3.209 0.283,0.685 0.488,1.521 0.553,2.119 0.091,0.836 0.269,4.603 0.269,4.603 C 1.688,-0.333 0.652,1.06 0,0"
         style="fill:#94c449;fill-opacity:1;fill-rule:nonzero;stroke:none"
         id="path258027"
         inkscape:connector-curvature="0" />
    </g>
    <g
       id="g258029"
       transform="matrix(0.35277777,0,0,-0.35277777,184.59006,238.4809)">
      <path
         d="M 0,0 C -0.082,0.649 -0.546,2.175 -1.958,1.673 -2.943,1.322 -2.971,0.655 -2.971,0.655 c 0,0 -1.053,0.049 -0.863,-1.715 0.082,-0.753 0.355,-1.228 0.355,-1.228 0.101,0.085 -0.13,0.23 0,1.62 0.107,1.17 1.464,1.517 2.01,1.337 0.762,-0.25 0.843,-1.281 0.843,-1.281 0.272,-2.426 1.55,0.445 1.759,-2.056 0,0 0.173,-2.146 0.221,-1.696 0.074,0.679 0.153,1.36 0.167,1.912 C 1.59,0.058 0.155,-1.272 0,0"
         style="fill:#94c449;fill-opacity:1;fill-rule:nonzero;stroke:none"
         id="path258031"
         inkscape:connector-curvature="0" />
    </g>
    <g
       id="g258033"
       transform="matrix(0.35277777,0,0,-0.35277777,184.92558,240.22239)">
      <path
         d="m 0,0 c 0,0 0.487,0.613 1.06,-0.082 0.57,-0.697 0.516,-2.147 0.516,-2.147 0,0 0.272,2.065 -0.245,2.676 C 0.813,1.061 0.353,0.783 0.163,0.531 0.013,0.335 0,0 0,0"
         style="fill:#94c449;fill-opacity:1;fill-rule:nonzero;stroke:none"
         id="path258035"
         inkscape:connector-curvature="0" />
    </g>
    <g
       id="g258037"
       transform="matrix(0.35277777,0,0,-0.35277777,-770.19196,711.44702)">
      <g
         id="g258039" />
      <g
         id="g258051">
        <g
           clip-path="url(#clipPath258043)"
           id="g258049"
           style="opacity:0.19000202">
          <g
             transform="translate(2711.2178,1267.3398)"
             id="g258047">
            <path
               d="M 0,0 C 1.596,-0.919 1.607,-2.415 0.021,-3.338 -1.563,-4.259 -4.143,-4.255 -5.737,-3.337 -7.33,-2.415 -7.342,-0.919 -5.758,0 -4.172,0.922 -1.593,0.921 0,0"
               style="fill:#181816;fill-opacity:1;fill-rule:nonzero;stroke:none"
               id="path258045"
               inkscape:connector-curvature="0" />
          </g>
        </g>
      </g>
    </g>
    <g
       id="g258053"
       transform="matrix(0.35277777,0,0,-0.35277777,184.97075,264.41969)">
      <path
         d="m 0,0 -0.735,0.745 c -0.218,0.221 -0.498,0.504 -0.474,1.317 v 3.311 h -0.124 v -3.45 c 0,-0.777 0.194,-1.041 0.531,-1.378 0.495,-0.493 0.622,-0.683 0.838,-0.899 v 0.265 z"
         style="fill:#775a20;fill-opacity:1;fill-rule:nonzero;stroke:none"
         id="path258055"
         inkscape:connector-curvature="0" />
    </g>
    <g
       id="g258057"
       transform="matrix(0.35277777,0,0,-0.35277777,184.90013,262.94279)">
      <path
         d="m 0,0 0.565,-0.017 0.32,-5.68 c 0,0 -0.064,-0.494 -0.628,-0.494 -0.578,0 -0.611,0.486 -0.611,0.486 z"
         style="fill:#775a20;fill-opacity:1;fill-rule:nonzero;stroke:none"
         id="path258059"
         inkscape:connector-curvature="0" />
    </g>
    <g
       id="g258061"
       transform="matrix(0.35277777,0,0,-0.35277777,185.15643,264.59404)">
      <path
         d="M 0,0 V 0 C 0.25,0.25 0.394,0.595 0.394,0.948 V 5.157 H 0.587 V 0.839 c 0,-0.556 -0.227,-1.096 -0.621,-1.49 z"
         style="fill:#775a20;fill-opacity:1;fill-rule:nonzero;stroke:none"
         id="path258063"
         inkscape:connector-curvature="0" />
    </g>
    <g
       id="g258065"
       transform="matrix(0.35277777,0,0,-0.35277777,185.3659,263.83161)">
      <path
         d="m 0,0 0.526,0.537 c 0.158,0.158 0.358,0.359 0.34,0.94 V 3.846 H 0.955 V 1.377 C 0.955,0.819 0.814,0.631 0.572,0.39 0.218,0.037 0.128,-0.097 -0.027,-0.253 v 0.19 z"
         style="fill:#c4b08d;fill-opacity:1;fill-rule:nonzero;stroke:none"
         id="path258067"
         inkscape:connector-curvature="0" />
    </g>
    <g
       id="g258069"
       transform="matrix(0.35277777,0,0,-0.35277777,187.28241,262.28133)">
      <path
         d="m 0,0 c 0,0.692 -0.503,1.268 -1.16,1.385 -0.056,1.265 -1.094,2.273 -2.369,2.273 -0.182,0 -0.356,-0.023 -0.528,-0.06 -0.189,0.695 -0.823,1.208 -1.581,1.208 -0.376,0 -0.723,-0.128 -1.001,-0.343 -0.379,0.432 -0.933,0.703 -1.552,0.703 -1.12,0 -2.03,-0.893 -2.065,-2.006 -0.027,0.002 -0.057,0.006 -0.087,0.006 -1.039,0 -1.882,-0.843 -1.882,-1.882 0,-0.044 0.004,-0.087 0.007,-0.13 -0.524,-0.261 -0.886,-0.8 -0.886,-1.422 0,-0.705 0.466,-1.306 1.102,-1.507 0,-0.036 -0.002,-0.071 -0.002,-0.107 0,-1.608 1.305,-2.915 2.916,-2.915 0.336,0 0.658,0.062 0.96,0.17 0.427,-0.537 1.075,-0.879 1.807,-0.879 0.926,0 1.723,0.555 2.095,1.354 0.246,-0.086 0.514,-0.137 0.79,-0.137 1.311,0 2.376,1.062 2.376,2.376 0,0.182 -0.024,0.358 -0.064,0.53 C -0.483,-1.248 0,-0.68 0,0"
         style="fill:#4b6d0f;fill-opacity:1;fill-rule:nonzero;stroke:none"
         id="path258071"
         inkscape:connector-curvature="0" />
    </g>
    <g
       id="g258073"
       transform="matrix(0.35277777,0,0,-0.35277777,184.00922,261.83415)">
      <path
         d="m 0,0 c -0.003,0.027 -0.003,0.055 -0.003,0.082 0,0.801 0.649,1.451 1.451,1.451 0.596,0 1.108,-0.356 1.331,-0.869 0.187,0.156 0.532,0.395 0.752,0.44 1.974,0.408 1.978,-1.858 2.039,-1.8 0.09,0.077 0.362,1.324 -0.505,2.02 C 3.812,2.326 2.917,1.643 2.715,1.572 2.491,2.086 1.87,2.547 1.274,2.547 c -0.803,0 -1.42,-0.522 -1.42,-1.324 0,-0.026 -0.054,-0.469 -0.052,-0.494 -0.439,-0.096 -1.259,-0.579 -1.259,-1.432 0,-0.283 0.065,-0.557 0.175,-0.801 C -1.159,-0.803 -0.661,-0.232 0,0"
         style="fill:#71991c;fill-opacity:1;fill-rule:nonzero;stroke:none"
         id="path258075"
         inkscape:connector-curvature="0" />
    </g>
    <g
       id="g258077"
       transform="matrix(0.35277777,0,0,-0.35277777,185.20051,262.13422)">
      <path
         d="m 0,0 c 0.554,-0.192 0.913,-0.692 0.954,-1.239 0.265,0.123 0.776,-0.055 0.984,-0.127 0.904,-0.315 1.192,-1.192 0.92,-2.119 0.165,0.167 0.296,0.369 0.377,0.603 0.299,0.848 -0.152,1.777 -0.998,2.072 -0.174,0.061 -0.355,0.09 -0.53,0.09 C 1.672,-0.261 1.372,0.158 0.908,0.319 0.477,0.472 0.017,0.358 -0.299,0.067 -0.199,0.058 -0.099,0.034 0,0"
         style="fill:#71991c;fill-opacity:1;fill-rule:nonzero;stroke:none"
         id="path258079"
         inkscape:connector-curvature="0" />
    </g>
    <g
       id="g258081"
       transform="matrix(0.35277777,0,0,-0.35277777,-770.19196,711.44702)">
      <g
         id="g258083" />
      <g
         id="g258095">
        <g
           clip-path="url(#clipPath258087)"
           id="g258093"
           style="opacity:0.19000202">
          <g
             transform="translate(2724.7627,1274.9072)"
             id="g258091">
            <path
               d="M 0,0 C 1.596,-0.919 1.606,-2.414 0.021,-3.338 -1.564,-4.258 -4.143,-4.256 -5.737,-3.336 -7.33,-2.414 -7.345,-0.919 -5.76,0 -4.173,0.925 -1.594,0.92 0,0"
               style="fill:#181816;fill-opacity:1;fill-rule:nonzero;stroke:none"
               id="path258089"
               inkscape:connector-curvature="0" />
          </g>
        </g>
      </g>
    </g>
    <g
       id="g258097"
       transform="matrix(0.35277777,0,0,-0.35277777,189.74909,261.75012)">
      <path
         d="m 0,0 -0.736,0.746 c -0.219,0.22 -0.498,0.503 -0.474,1.317 v 3.31 h -0.124 v -3.45 c 0,-0.777 0.195,-1.041 0.532,-1.378 0.495,-0.493 0.62,-0.683 0.838,-0.899 v 0.268 z"
         style="fill:#775a20;fill-opacity:1;fill-rule:nonzero;stroke:none"
         id="path258099"
         inkscape:connector-curvature="0" />
    </g>
    <g
       id="g258101"
       transform="matrix(0.35277777,0,0,-0.35277777,189.67811,260.27286)">
      <path
         d="m 0,0 0.566,-0.018 0.32,-5.681 c 0,0 -0.065,-0.493 -0.63,-0.493 -0.578,0 -0.61,0.487 -0.61,0.487 z"
         style="fill:#775a20;fill-opacity:1;fill-rule:nonzero;stroke:none"
         id="path258103"
         inkscape:connector-curvature="0" />
    </g>
    <g
       id="g258105"
       transform="matrix(0.35277777,0,0,-0.35277777,189.93475,261.92443)">
      <path
         d="M 0,0 V 0 C 0.25,0.25 0.393,0.596 0.393,0.948 V 5.156 H 0.585 V 0.84 c 0,-0.557 -0.225,-1.095 -0.619,-1.491 z"
         style="fill:#775a20;fill-opacity:1;fill-rule:nonzero;stroke:none"
         id="path258107"
         inkscape:connector-curvature="0" />
    </g>
    <g
       id="g258109"
       transform="matrix(0.35277777,0,0,-0.35277777,190.14354,261.16169)">
      <path
         d="m 0,0 0.526,0.536 c 0.159,0.157 0.359,0.36 0.341,0.941 v 2.37 H 0.956 V 1.377 C 0.956,0.818 0.815,0.63 0.574,0.389 0.22,0.037 0.127,-0.1 -0.026,-0.254 v 0.191 z"
         style="fill:#c4b08d;fill-opacity:1;fill-rule:nonzero;stroke:none"
         id="path258111"
         inkscape:connector-curvature="0" />
    </g>
    <g
       id="g258113"
       transform="matrix(0.35277777,0,0,-0.35277777,192.06007,259.6114)">
      <path
         d="m 0,0 c 0,0.691 -0.501,1.267 -1.16,1.385 -0.055,1.264 -1.092,2.272 -2.368,2.272 -0.181,0 -0.357,-0.021 -0.527,-0.059 -0.191,0.693 -0.824,1.207 -1.581,1.207 -0.379,0 -0.724,-0.128 -1.002,-0.343 -0.38,0.432 -0.932,0.704 -1.551,0.704 -1.12,0 -2.032,-0.894 -2.065,-2.006 -0.027,0.002 -0.057,0.006 -0.088,0.006 -1.041,0 -1.884,-0.844 -1.884,-1.883 0,-0.044 0.005,-0.088 0.009,-0.131 -0.523,-0.26 -0.886,-0.798 -0.886,-1.421 0,-0.705 0.464,-1.305 1.104,-1.507 0,-0.035 -0.004,-0.07 -0.004,-0.107 0,-1.609 1.304,-2.914 2.915,-2.914 0.338,0 0.661,0.061 0.962,0.167 0.427,-0.532 1.075,-0.876 1.806,-0.876 0.925,0 1.725,0.555 2.095,1.354 0.246,-0.086 0.514,-0.138 0.789,-0.138 1.311,0 2.375,1.063 2.375,2.376 0,0.182 -0.022,0.359 -0.062,0.531 C -0.483,-1.249 0,-0.682 0,0"
         style="fill:#4b6d0f;fill-opacity:1;fill-rule:nonzero;stroke:none"
         id="path258115"
         inkscape:connector-curvature="0" />
    </g>
    <g
       id="g258117"
       transform="matrix(0.35277777,0,0,-0.35277777,188.7872,259.16458)">
      <path
         d="m 0,0 c -0.004,0.027 -0.004,0.056 -0.004,0.083 0,0.801 0.65,1.45 1.452,1.45 0.597,0 1.107,-0.356 1.33,-0.868 0.189,0.156 0.533,0.395 0.753,0.439 1.975,0.407 1.978,-1.857 2.04,-1.8 C 5.66,-0.619 5.933,0.628 5.066,1.323 3.812,2.327 2.917,1.644 2.717,1.571 2.492,2.086 1.871,2.547 1.274,2.547 c -0.802,0 -1.42,-0.522 -1.42,-1.323 0,-0.027 -0.054,-0.469 -0.053,-0.496 -0.438,-0.094 -1.258,-0.577 -1.258,-1.431 0,-0.285 0.066,-0.557 0.176,-0.801 C -1.158,-0.803 -0.66,-0.231 0,0"
         style="fill:#71991c;fill-opacity:1;fill-rule:nonzero;stroke:none"
         id="path258119"
         inkscape:connector-curvature="0" />
    </g>
    <g
       id="g258121"
       transform="matrix(0.35277777,0,0,-0.35277777,189.97886,259.46461)">
      <path
         d="m 0,0 c 0.553,-0.192 0.911,-0.691 0.951,-1.239 0.267,0.123 0.778,-0.056 0.987,-0.127 0.903,-0.314 1.19,-1.192 0.918,-2.119 0.166,0.167 0.295,0.369 0.378,0.602 0.299,0.848 -0.151,1.778 -0.997,2.073 -0.175,0.062 -0.356,0.09 -0.53,0.09 C 1.673,-0.26 1.371,0.158 0.907,0.32 0.476,0.473 0.015,0.36 -0.299,0.068 -0.199,0.058 -0.1,0.035 0,0"
         style="fill:#71991c;fill-opacity:1;fill-rule:nonzero;stroke:none"
         id="path258123"
         inkscape:connector-curvature="0" />
    </g>
    <g
       id="g258125"
       transform="matrix(0.35277777,0,0,-0.35277777,-770.19196,711.44702)">
      <g
         id="g258127" />
      <g
         id="g258139">
        <g
           clip-path="url(#clipPath258131)"
           id="g258137"
           style="opacity:0.19000202">
          <g
             transform="translate(2736.8574,1281.5596)"
             id="g258135">
            <path
               d="M 0,0 C 1.595,-0.918 1.607,-2.416 0.021,-3.339 -1.564,-4.258 -4.143,-4.255 -5.737,-3.336 -7.331,-2.416 -7.344,-0.918 -5.76,0 -4.173,0.924 -1.593,0.92 0,0"
               style="fill:#181816;fill-opacity:1;fill-rule:nonzero;stroke:none"
               id="path258133"
               inkscape:connector-curvature="0" />
          </g>
        </g>
      </g>
    </g>
    <g
       id="g258141"
       transform="matrix(0.35277777,0,0,-0.35277777,194.01584,259.40365)">
      <path
         d="m 0,0 -0.735,0.747 c -0.22,0.221 -0.5,0.504 -0.476,1.316 V 5.374 H -1.333 V 1.923 c 0,-0.779 0.193,-1.041 0.53,-1.377 0.495,-0.492 0.622,-0.684 0.839,-0.9 v 0.267 z"
         style="fill:#775a20;fill-opacity:1;fill-rule:nonzero;stroke:none"
         id="path258143"
         inkscape:connector-curvature="0" />
    </g>
    <g
       id="g258145"
       transform="matrix(0.35277777,0,0,-0.35277777,193.9452,257.92675)">
      <path
         d="m 0,0 0.564,-0.014 0.321,-5.682 c 0,0 -0.064,-0.495 -0.63,-0.495 -0.577,0 -0.61,0.486 -0.61,0.486 z"
         style="fill:#775a20;fill-opacity:1;fill-rule:nonzero;stroke:none"
         id="path258147"
         inkscape:connector-curvature="0" />
    </g>
    <g
       id="g258149"
       transform="matrix(0.35277777,0,0,-0.35277777,194.20153,259.57796)">
      <path
         d="M 0,0 V 0 C 0.25,0.252 0.393,0.595 0.393,0.948 V 5.157 H 0.585 V 0.839 c 0,-0.556 -0.225,-1.094 -0.619,-1.488 z"
         style="fill:#775a20;fill-opacity:1;fill-rule:nonzero;stroke:none"
         id="path258151"
         inkscape:connector-curvature="0" />
    </g>
    <g
       id="g258153"
       transform="matrix(0.35277777,0,0,-0.35277777,194.41031,258.81557)">
      <path
         d="M 0,0 0.527,0.537 C 0.684,0.695 0.885,0.896 0.866,1.479 V 3.848 H 0.957 V 1.378 C 0.957,0.819 0.816,0.633 0.573,0.391 0.22,0.039 0.127,-0.097 -0.027,-0.253 v 0.19 z"
         style="fill:#c4b08d;fill-opacity:1;fill-rule:nonzero;stroke:none"
         id="path258155"
         inkscape:connector-curvature="0" />
    </g>
    <g
       id="g258157"
       transform="matrix(0.35277777,0,0,-0.35277777,196.32682,257.26529)">
      <path
         d="m 0,0 c 0,0.692 -0.501,1.268 -1.161,1.387 -0.055,1.263 -1.092,2.271 -2.367,2.271 -0.182,0 -0.356,-0.021 -0.527,-0.06 -0.19,0.696 -0.825,1.211 -1.581,1.211 -0.379,0 -0.724,-0.131 -1.001,-0.346 -0.38,0.432 -0.933,0.705 -1.552,0.705 -1.121,0 -2.031,-0.895 -2.065,-2.008 -0.028,0.002 -0.058,0.006 -0.089,0.006 -1.039,0 -1.882,-0.841 -1.882,-1.88 0,-0.046 0.005,-0.089 0.009,-0.132 -0.525,-0.261 -0.887,-0.8 -0.887,-1.422 0,-0.705 0.465,-1.304 1.103,-1.507 0,-0.036 -0.003,-0.069 -0.003,-0.107 0,-1.608 1.305,-2.914 2.916,-2.914 0.337,0 0.658,0.063 0.96,0.167 0.428,-0.533 1.076,-0.876 1.807,-0.876 0.926,0 1.724,0.554 2.096,1.355 0.245,-0.088 0.512,-0.139 0.789,-0.139 1.311,0 2.375,1.064 2.375,2.376 0,0.182 -0.022,0.36 -0.062,0.532 C -0.482,-1.246 0,-0.679 0,0"
         style="fill:#4b6d0f;fill-opacity:1;fill-rule:nonzero;stroke:none"
         id="path258159"
         inkscape:connector-curvature="0" />
    </g>
    <g
       id="g258161"
       transform="matrix(0.35277777,0,0,-0.35277777,193.05363,256.81811)">
      <path
         d="m 0,0 c -0.003,0.027 -0.003,0.055 -0.003,0.082 0,0.803 0.649,1.451 1.452,1.451 0.596,0 1.106,-0.355 1.33,-0.869 0.189,0.158 0.534,0.396 0.752,0.44 1.975,0.409 1.98,-1.856 2.041,-1.799 C 5.66,-0.619 5.934,0.628 5.066,1.324 3.813,2.326 2.918,1.642 2.716,1.574 2.492,2.086 1.871,2.547 1.274,2.547 c -0.801,0 -1.418,-0.52 -1.418,-1.322 0,-0.028 -0.055,-0.468 -0.053,-0.496 -0.438,-0.096 -1.259,-0.579 -1.259,-1.43 0,-0.285 0.065,-0.557 0.175,-0.803 C -1.158,-0.803 -0.66,-0.231 0,0"
         style="fill:#71991c;fill-opacity:1;fill-rule:nonzero;stroke:none"
         id="path258163"
         inkscape:connector-curvature="0" />
    </g>
    <g
       id="g258165"
       transform="matrix(0.35277777,0,0,-0.35277777,194.24564,257.11818)">
      <path
         d="m 0,0 c 0.554,-0.192 0.911,-0.69 0.952,-1.239 0.267,0.123 0.776,-0.055 0.986,-0.127 0.904,-0.315 1.191,-1.192 0.919,-2.119 0.165,0.168 0.295,0.369 0.378,0.604 0.298,0.847 -0.152,1.777 -0.998,2.071 -0.176,0.063 -0.356,0.09 -0.53,0.092 C 1.672,-0.259 1.37,0.16 0.906,0.319 0.475,0.472 0.015,0.36 -0.299,0.07 -0.199,0.06 -0.1,0.035 0,0"
         style="fill:#71991c;fill-opacity:1;fill-rule:nonzero;stroke:none"
         id="path258167"
         inkscape:connector-curvature="0" />
    </g>
    <g
       id="g258169"
       transform="matrix(0.35277777,0,0,-0.35277777,171.96825,258.26848)">
      <path
         d="m 0,0 -12.417,-7.18 v -0.853 l -7.563,-4.366 -21.322,12.958 20.084,11.597 z"
         style="fill:#8e8e8e;fill-opacity:1;fill-rule:nonzero;stroke:none"
         id="path258171"
         inkscape:connector-curvature="0" />
    </g>
    <g
       id="g258173"
       transform="matrix(0.35277777,0,0,-0.35277777,164.25678,253.814)">
      <path
         d="m 0,0 -0.012,-0.859 21.119,-12.202 0.763,0.434 z"
         style="fill:#e2e2e2;fill-opacity:1;fill-rule:nonzero;stroke:none"
         id="path258175"
         inkscape:connector-curvature="0" />
    </g>
    <g
       id="g258177"
       transform="matrix(0.35277777,0,0,-0.35277777,150.26966,250.80297)">
      <path
         d="m 0,0 -0.001,-0.853 27.214,-15.713 v 0.852 z"
         style="fill:#e2e2e2;fill-opacity:1;fill-rule:nonzero;stroke:none"
         id="path258179"
         inkscape:connector-curvature="0" />
    </g>
    <g
       id="g258181"
       transform="matrix(0.35277777,0,0,-0.35277777,164.25572,253.81604)">
      <path
         d="m 0,0 -0.009,-0.854 -12.424,-7.171 v 0.852 z"
         style="fill:#cecece;fill-opacity:1;fill-rule:nonzero;stroke:none"
         id="path258183"
         inkscape:connector-curvature="0" />
    </g>
    <g
       id="g258185"
       transform="matrix(0.35277777,0,0,-0.35277777,185.72658,271.27441)">
      <path
         d="M 0,0 -51.417,29.688 V 28.834 L -0.003,-0.85 Z"
         style="fill:#e2e2e2;fill-opacity:1;fill-rule:nonzero;stroke:none"
         id="path258187"
         inkscape:connector-curvature="0" />
    </g>
    <g
       id="g258189"
       transform="matrix(0.35277777,0,0,-0.35277777,184.89391,271.85664)">
      <path
         d="m 0,0 -0.013,-4.252 -1.348,-0.783 0.013,4.25 z"
         style="fill:#bfbfbf;fill-opacity:1;fill-rule:nonzero;stroke:none"
         id="path258191"
         inkscape:connector-curvature="0" />
    </g>
    <g
       id="g258193"
       transform="matrix(0.35277777,0,0,-0.35277777,184.41848,272.1336)">
      <path
         d="m 0,0 -0.014,-4.25 -54.515,31.483 0.012,4.251 z"
         style="fill:#d3d3d3;fill-opacity:1;fill-rule:nonzero;stroke:none"
         id="path258195"
         inkscape:connector-curvature="0" />
    </g>
    <g
       id="g258197"
       transform="matrix(0.35277777,0,0,-0.35277777,184.89391,271.85664)">
      <path
         d="m 0,0 -1.348,-0.785 -54.516,31.484 1.349,0.785 z"
         style="fill:#eaeaea;fill-opacity:1;fill-rule:nonzero;stroke:none"
         id="path258199"
         inkscape:connector-curvature="0" />
    </g>
    <g
       id="g258201"
       transform="matrix(0.35277777,0,0,-0.35277777,157.92297,256.27515)">
      <path
         d="m 0,0 -0.013,-4.252 -1.348,-0.783 0.011,4.251 z"
         style="fill:#bfbfbf;fill-opacity:1;fill-rule:nonzero;stroke:none"
         id="path258203"
         inkscape:connector-curvature="0" />
    </g>
    <g
       id="g258205"
       transform="matrix(0.35277777,0,0,-0.35277777,157.44683,256.5518)">
      <path
         d="m 0,0 -0.012,-4.251 -31.363,18.084 0.013,4.251 z"
         style="fill:#d3d3d3;fill-opacity:1;fill-rule:nonzero;stroke:none"
         id="path258207"
         inkscape:connector-curvature="0" />
    </g>
    <g
       id="g258209"
       transform="matrix(0.35277777,0,0,-0.35277777,157.92297,256.27515)">
      <path
         d="m 0,0 -1.35,-0.784 -31.362,18.084 1.348,0.784 z"
         style="fill:#eaeaea;fill-opacity:1;fill-rule:nonzero;stroke:none"
         id="path258211"
         inkscape:connector-curvature="0" />
    </g>
    <g
       id="g258213"
       transform="matrix(0.35277777,0,0,-0.35277777,-770.19196,711.44702)">
      <g
         id="g258215" />
      <g
         id="g258227">
        <g
           clip-path="url(#clipPath258219)"
           id="g258225"
           style="opacity:0.30999798">
          <g
             transform="translate(2657.5127,1287.5254)"
             id="g258223">
            <path
               d="m 0,0 c 0,0 0.765,-0.563 0.975,-1.168 0.164,-0.468 0.009,-1.258 -0.995,-2.02 -0.565,-0.429 -12.271,-7.093 -12.271,-7.093 0,0 -3.609,-2.415 -6.418,-1.018 -0.551,0.276 -3.67,1.64 -4.011,2.288 -0.341,0.649 -1.229,2.249 1.044,3.979 C -19.4,-3.302 0,0 0,0"
               style="fill:#231f20;fill-opacity:1;fill-rule:nonzero;stroke:none"
               id="path258221"
               inkscape:connector-curvature="0" />
          </g>
        </g>
      </g>
    </g>
    <g
       id="g258229"
       transform="matrix(0.35277777,0,0,-0.35277777,159.44808,258.57854)">
      <path
         d="m 0,0 c 0,0 1.291,0.984 1.422,1.108 0.006,0.005 1.93,2.12 2.816,2.86 2.335,1.944 5.274,2.956 5.962,3.1 0.052,0.012 0.077,0.025 0.077,0.025 0.826,0.196 1.388,0.202 2.241,0.202 0.046,0 1.101,0.512 1.955,0.711 0.915,0.211 2.445,0.496 3.652,0.076 0.853,-0.295 1.583,-0.549 2.734,-1.208 1.208,-0.688 1.522,-1.709 1.522,-2.119 0,-0.033 -0.019,-1.206 -0.019,-1.206 0,0 -0.208,-1.455 -1.958,-2.768 -0.991,-0.746 -9.167,-5.519 -9.167,-5.519 0,0 -2.841,-1.303 -3.909,-1.71 C 6.333,-6.825 5.162,-7.072 3.771,-6.469 3.016,-6.14 1.606,-5.373 0.42,-4.621 c -0.611,0.387 -0.855,0.899 -0.855,1.663 0,0.226 -0.039,1.522 -0.041,1.595 C -0.493,-0.592 -0.354,-0.258 0,0"
         style="fill:#ffffff;fill-opacity:1;fill-rule:nonzero;stroke:none"
         id="path258231"
         inkscape:connector-curvature="0" />
    </g>
    <g
       id="g258233"
       transform="matrix(0.35277777,0,0,-0.35277777,166.13056,257.02413)">
      <path
         d="M 0,0 C -0.228,0.031 -0.973,0.288 -1.758,0.361 -3.008,0.478 -3.91,0.263 -3.91,0.263 c 0,0 -1.204,0.899 -2.982,1.551 -2.143,0.79 -2.514,0.568 -2.514,0.568 0.705,0.233 1.701,0.494 3.377,0.37 C -5.082,2.684 -3.772,2.257 -3.762,2.258 -2.085,1.74 -0.624,0.697 -0.263,0.444 0.229,0.1 0,0 0,0"
         style="fill:#506972;fill-opacity:1;fill-rule:nonzero;stroke:none"
         id="path258235"
         inkscape:connector-curvature="0" />
    </g>
    <g
       id="g258237"
       transform="matrix(0.35277777,0,0,-0.35277777,162.93418,258.15722)">
      <path
         d="M 0,0 C 0,0 1.641,1.671 3.524,2.724 4.022,3.003 4.621,3.249 5.332,3.446 6.149,3.675 7.268,3.604 7.688,3.544 7.72,3.538 5.97,3.748 5.921,3.724 5.888,3.706 5.003,3.746 3.376,2.859 1.612,1.897 -0.245,0 -0.245,0 Z"
         style="fill:#506972;fill-opacity:1;fill-rule:nonzero;stroke:none"
         id="path258239"
         inkscape:connector-curvature="0" />
    </g>
    <g
       id="g258241"
       transform="matrix(0.35277777,0,0,-0.35277777,160.12402,258.09898)">
      <path
         d="m 0,0 c 0,0 -0.371,-0.354 -0.029,-0.678 0.294,-0.277 0.832,-0.718 1.983,-1.334 2.098,-1.125 3.179,-1.259 3.179,-1.259 0,0 0.352,-0.088 0.681,0.042 0.121,0.049 0.181,0.181 0.181,0.181 0.456,0.74 0.443,0.837 0.739,1.282 0.611,0.916 1.528,1.947 1.528,1.947 0,0 -1.626,0.467 -3.525,1.331 -1.313,0.596 -2.092,1.149 -2.092,1.149 0,0 -0.702,-0.602 -1.628,-1.569 C 0.197,0.235 0,0 0,0"
         style="fill:#506972;fill-opacity:1;fill-rule:nonzero;stroke:none"
         id="path258243"
         inkscape:connector-curvature="0" />
    </g>
    <g
       id="g258245"
       transform="matrix(0.35277777,0,0,-0.35277777,-770.19196,711.44702)">
      <g
         id="g258247" />
      <g
         id="g258259">
        <g
           clip-path="url(#clipPath258251)"
           id="g258257"
           style="opacity:0.14999402">
          <g
             transform="translate(2634.7246,1282.4111)"
             id="g258255">
            <path
               d="m 0,0 v 0.125 c 0,0.02 0,0.039 0.001,0.059 0,0.012 0.001,0.025 0.001,0.039 0.02,0.578 0.164,0.861 0.47,1.085 -0.04,-0.142 -0.068,-0.423 0.424,-0.824 0.137,-0.111 2.143,-1.6 4.755,-2.488 0.827,-0.28 1.676,-0.215 2.465,-0.099 1.227,0.18 2.249,0.871 2.249,0.871 0,0 8.575,4.517 9.117,4.863 0.132,0.084 0.251,0.559 1.003,1.099 0.814,0.584 1.762,0.651 1.762,0.651 l 0.518,0.697 c 0,0 0.031,0.039 0.082,0.106 0.006,-0.043 0.009,-0.083 0.009,-0.119 0,-0.033 -0.018,-1.206 -0.018,-1.206 0,0 -0.208,-1.455 -1.958,-2.767 -0.991,-0.746 -9.167,-5.52 -9.167,-5.52 0,0 -2.841,-1.302 -3.909,-1.71 -0.995,-0.377 -2.166,-0.624 -3.558,-0.02 -0.755,0.329 -2.164,1.095 -3.35,1.847 -0.612,0.387 -0.855,0.9 -0.855,1.663 v 0.013 C 0.041,-1.41 0.002,-0.071 0,0"
               style="fill:#231f20;fill-opacity:1;fill-rule:nonzero;stroke:none"
               id="path258253"
               inkscape:connector-curvature="0" />
          </g>
        </g>
      </g>
    </g>
    <g
       id="g258261"
       transform="matrix(0.35277777,0,0,-0.35277777,163.38516,259.41776)">
      <path
         d="M 0,0 C 0,-0.088 0.131,-0.033 0.199,0.009 L 0.48,0.182 C 0.591,0.259 0.632,0.351 0.645,0.404 0.672,0.54 0.52,0.447 0.451,0.405 L 0.18,0.234 C 0.111,0.192 0.005,0.109 0.002,0.039 Z"
         style="fill:#546472;fill-opacity:1;fill-rule:nonzero;stroke:none"
         id="path258263"
         inkscape:connector-curvature="0" />
    </g>
    <g
       id="g258265"
       transform="matrix(0.35277777,0,0,-0.35277777,165.00434,258.55237)">
      <path
         d="m 0,0 c -0.004,-0.088 0.129,-0.035 0.199,0.006 l 0.283,0.17 c 0.11,0.076 0.153,0.17 0.164,0.22 C 0.677,0.533 0.523,0.442 0.453,0.4 L 0.183,0.231 C 0.112,0.191 0.006,0.11 0,0.039 Z"
         style="fill:#546472;fill-opacity:1;fill-rule:nonzero;stroke:none"
         id="path258267"
         inkscape:connector-curvature="0" />
    </g>
    <g
       id="g258269"
       transform="matrix(0.35277777,0,0,-0.35277777,-770.19196,711.44702)">
      <g
         id="g258271" />
      <g
         id="g258283">
        <g
           clip-path="url(#clipPath258275)"
           id="g258281"
           style="opacity:0.30999798">
          <g
             transform="translate(2640.1787,1279.6436)"
             id="g258279">
            <path
               d="m 0,0 c 0,0 -0.063,0.037 -0.53,-0.604 -0.165,-0.228 -0.558,-0.376 -1.034,-0.183 -0.273,0.107 -2.444,1.293 -2.444,1.293 0,0 -0.442,0.232 -0.493,0.835 -0.042,0.487 -0.074,1.22 -0.074,1.22 l -0.072,0.031 c 0,0 0.064,-0.979 0.064,-1.189 0,-0.38 0.082,-0.778 0.673,-1.105 0.584,-0.321 2.357,-1.247 2.357,-1.247 0,0 0.696,-0.315 1.035,0.148 0.42,0.567 0.678,0.862 0.678,0.862 z"
               style="fill:#231f20;fill-opacity:1;fill-rule:nonzero;stroke:none"
               id="path258277"
               inkscape:connector-curvature="0" />
          </g>
        </g>
      </g>
    </g>
    <g
       id="g258285"
       transform="matrix(0.35277777,0,0,-0.35277777,159.31167,258.79077)">
      <path
         d="m 0,0 c 0.043,-0.019 0.081,-0.071 0.081,-0.071 0,0 0.395,-0.493 0.546,-0.647 0.152,-0.158 0.091,-0.45 0.105,-0.644 0.02,-0.269 0.05,-0.586 0.05,-0.586 0,0 0.004,-0.441 -0.407,-0.063 -0.207,0.191 -0.369,0.369 -0.447,0.641 -0.007,0.237 -0.012,0.409 -0.016,0.538 -0.001,0.013 -0.001,0.02 -0.001,0.023 C -0.094,-0.457 -0.068,-0.2 0,0"
         style="fill:#b20000;fill-opacity:1;fill-rule:nonzero;stroke:none"
         id="path258287"
         inkscape:connector-curvature="0" />
    </g>
    <g
       id="g258289"
       transform="matrix(0.35277777,0,0,-0.35277777,-770.19196,711.44702)">
      <g
         id="g258291" />
      <g
         id="g258303">
        <g
           clip-path="url(#clipPath258295)"
           id="g258301"
           style="opacity:0.30999798">
          <g
             transform="translate(2635.0264,1280.9512)"
             id="g258299">
            <path
               d="m 0,0 c 0,0 -0.136,-0.432 0.986,-1.135 1.148,-0.723 2.48,-1.339 2.48,-1.339 0,0 0.9,-0.511 1.763,-0.535 0.494,-0.015 0.657,0.102 0.657,0.102 0,0 -0.929,0.041 -1.52,0.291 -0.989,0.42 -2.852,1.428 -3.577,1.875 C 0.014,-0.263 0,0 0,0"
               style="fill:#231f20;fill-opacity:1;fill-rule:nonzero;stroke:none"
               id="path258297"
               inkscape:connector-curvature="0" />
          </g>
        </g>
      </g>
    </g>
    <g
       id="g258305"
       transform="matrix(0.35277777,0,0,-0.35277777,161.0218,260.31696)">
      <path
         d="m 0,0 c 0.057,0.215 0.126,0.307 0.308,0.602 0.131,0.214 0.295,0.353 0.653,0.358 0.936,0.013 1.381,0.087 1.381,0.087 0,0 0.246,-0.054 0.13,-0.285 C 2.419,0.658 2,-0.014 1.628,-0.186 1.397,-0.292 1.102,-0.369 0.615,-0.332 0.107,-0.296 -0.063,-0.235 0,0"
         style="fill:#b20000;fill-opacity:1;fill-rule:nonzero;stroke:none"
         id="path258307"
         inkscape:connector-curvature="0" />
    </g>
    <g
       id="g258309"
       transform="matrix(0.35277777,0,0,-0.35277777,-770.19196,711.44702)">
      <g
         id="g258311" />
      <g
         id="g258323">
        <g
           clip-path="url(#clipPath258315)"
           id="g258321"
           style="opacity:0.30999798">
          <g
             transform="translate(2634.7783,1282.9932)"
             id="g258319">
            <path
               d="m 0,0 c 0.012,0.051 0.023,0.1 0.041,0.144 0.102,0.026 0.25,-0.13 0.25,-0.13 l 0.715,-1.028 z"
               style="fill:#231f20;fill-opacity:1;fill-rule:nonzero;stroke:none"
               id="path258317"
               inkscape:connector-curvature="0" />
          </g>
        </g>
      </g>
    </g>
    <g
       id="g258325"
       transform="matrix(0.35277777,0,0,-0.35277777,162.18798,260.61425)">
      <path
         d="M 0,0 C 0.22,0.573 0.432,1.008 1.104,1.753 1.949,2.692 3.012,2.905 3.34,2.57 3.77,2.136 3.466,1.169 3.466,1.169 L 3.405,1.01 C 2.935,0.769 0.909,-0.229 -0.167,-0.556 -0.12,-0.379 -0.081,-0.208 0,0"
         style="fill:#231f20;fill-opacity:1;fill-rule:nonzero;stroke:none"
         id="path258327"
         inkscape:connector-curvature="0" />
    </g>
    <g
       id="g258329"
       transform="matrix(0.35277777,0,0,-0.35277777,162.96345,259.7075)">
      <path
         d="m 0,0 c 0,0 0.456,0.136 0.782,-0.325 0.359,-0.501 0.286,-1.19 -0.078,-1.897 -0.362,-0.709 -0.901,-1.179 -1.393,-1.405 -0.492,-0.227 -0.879,-0.12 -1.09,-0.021 -0.433,0.2 -0.586,0.522 -0.586,0.522 0,0 0.283,1.488 1.453,2.522 C -0.387,-0.14 0,0 0,0"
         style="fill:#546472;fill-opacity:1;fill-rule:nonzero;stroke:none"
         id="path258331"
         inkscape:connector-curvature="0" />
    </g>
    <g
       id="g258333"
       transform="matrix(0.35277777,0,0,-0.35277777,162.82221,259.9924)">
      <path
         d="m 0,0 c -0.482,-0.283 -0.975,-1.146 -1.088,-1.581 -0.116,-0.434 -0.101,-0.808 0.179,-0.982 0.281,-0.175 1.023,0.077 1.47,0.629 0.449,0.553 0.632,1.204 0.635,1.5 C 1.2,-0.138 0.942,0.555 0,0"
         style="fill:#cbcbcb;fill-opacity:1;fill-rule:nonzero;stroke:none"
         id="path258335"
         inkscape:connector-curvature="0" />
    </g>
    <g
       id="g258337"
       transform="matrix(0.35277777,0,0,-0.35277777,162.83806,260.39274)">
      <path
         d="M 0,0 C -0.053,-0.102 -0.043,-0.21 0.021,-0.242 0.085,-0.277 0.18,-0.223 0.233,-0.123 0.285,-0.022 0.276,0.088 0.212,0.121 0.148,0.154 0.054,0.099 0,0"
         style="fill:#546472;fill-opacity:1;fill-rule:nonzero;stroke:none"
         id="path258339"
         inkscape:connector-curvature="0" />
    </g>
    <g
       id="g258341"
       transform="matrix(0.35277777,0,0,-0.35277777,166.64626,258.30295)">
      <path
         d="m 0,0 c -0.223,-0.169 -0.807,-0.54 -1.58,-1.012 -0.018,0.32 0.007,0.758 0.04,0.908 0.122,0.559 0.132,0.86 0.649,1.639 0.286,0.428 0.582,0.725 0.872,0.901 C 0.353,2.659 0.707,2.683 1,2.523 1.501,2.25 1.309,1.375 1.309,1.375 L 1.306,1.366 C 1.066,0.973 0.669,0.502 0,0"
         style="fill:#231f20;fill-opacity:1;fill-rule:nonzero;stroke:none"
         id="path258343"
         inkscape:connector-curvature="0" />
    </g>
    <g
       id="g258345"
       transform="matrix(0.35277777,0,0,-0.35277777,166.64835,257.4427)">
      <path
         d="M 0,0 C 0,0 0.403,0.188 0.768,-0.194 1.164,-0.607 1.191,-1.252 0.953,-1.955 0.715,-2.657 0.281,-3.163 -0.14,-3.438 -0.563,-3.713 -0.838,-3.686 -1.054,-3.65 c -0.323,0.051 -0.53,0.2 -0.53,0.2 -0.006,0.062 -0.162,1.537 0.825,2.769 C -0.315,-0.13 0,0 0,0"
         style="fill:#546472;fill-opacity:1;fill-rule:nonzero;stroke:none"
         id="path258347"
         inkscape:connector-curvature="0" />
    </g>
    <g
       id="g258349"
       transform="matrix(0.35277777,0,0,-0.35277777,166.55736,257.72485)">
      <path
         d="m 0,0 c -0.405,-0.327 -0.742,-1.191 -0.789,-1.605 -0.046,-0.417 0.08,-0.699 0.362,-0.821 0.283,-0.124 0.869,0.151 1.207,0.719 0.337,0.57 0.351,1.144 0.342,1.422 C 1.111,0.021 0.792,0.641 0,0"
         style="fill:#cbcbcb;fill-opacity:1;fill-rule:nonzero;stroke:none"
         id="path258351"
         inkscape:connector-curvature="0" />
    </g>
    <g
       id="g258353"
       transform="matrix(0.35277777,0,0,-0.35277777,166.62631,258.09174)">
      <path
         d="m 0,0 c -0.033,-0.1 -0.011,-0.198 0.052,-0.222 0.065,-0.02 0.145,0.039 0.18,0.141 C 0.268,0.019 0.244,0.118 0.18,0.14 0.115,0.161 0.036,0.099 0,0"
         style="fill:#546472;fill-opacity:1;fill-rule:nonzero;stroke:none"
         id="path258355"
         inkscape:connector-curvature="0" />
    </g>
    <g
       id="g258357"
       transform="matrix(0.35277777,0,0,-0.35277777,-770.19196,711.44702)">
      <g
         id="g258359" />
      <g
         id="g258371">
        <g
           clip-path="url(#clipPath258363)"
           id="g258369"
           style="opacity:0.30999798">
          <g
             transform="translate(2642.043,1279.8037)"
             id="g258367">
            <path
               d="m 0,0 c 0.081,0.242 -2.698,-0.009 -2.698,-0.009 0,0 0.556,-0.233 0.786,-0.189 0.039,0.009 1.402,0.122 1.402,0.122 0,0 0.501,0.051 0.51,0.076"
               style="fill:#231f20;fill-opacity:1;fill-rule:nonzero;stroke:none"
               id="path258365"
               inkscape:connector-curvature="0" />
          </g>
        </g>
      </g>
    </g>
    <g
       id="g258373"
       transform="matrix(0.35277777,0,0,-0.35277777,-770.19196,711.44702)">
      <g
         id="g258375" />
      <g
         id="g258387">
        <g
           clip-path="url(#clipPath258379)"
           id="g258385"
           style="opacity:0.14999402">
          <g
             transform="translate(2646.8076,1286.124)"
             id="g258383">
            <path
               d="M 0,0 C 1.319,1.014 2.636,1.576 3.598,1.824 4.559,2.07 5.881,1.938 6.694,1.789 7.676,1.612 8.324,2.029 8.917,2.326 9.791,2.763 9.959,3.264 9.992,3.453 10.006,3.436 10.019,3.42 10.031,3.401 10.046,3.283 10.044,3.093 9.95,2.841 9.631,1.98 8.254,1.199 8.008,1.053 7.762,0.904 -0.189,-3.605 -0.781,-3.928 c -0.591,-0.319 -2.194,-1.345 -2.365,-1.149 -0.173,0.198 0.181,1.446 0.707,2.366 C -2.01,-1.959 -1.135,-0.87 0,0"
               style="fill:#231f20;fill-opacity:1;fill-rule:nonzero;stroke:none"
               id="path258381"
               inkscape:connector-curvature="0" />
          </g>
        </g>
      </g>
    </g>
    <g
       id="g258389"
       transform="matrix(0.35277777,0,0,-0.35277777,162.7285,259.21312)">
      <path
         d="m 0,0 c 0,0 -0.032,1.07 1.331,2.645 0,0 0.633,0.681 1.421,1.224 0.273,0.188 0.814,0.5 1.097,0.652 C 3.922,4.424 4.107,3.906 4.23,3.364 4.337,2.895 4.402,2.402 4.416,2.145 l -4.103,-2.38 c 0,0 -0.345,-0.111 -0.313,0.235"
         style="fill:#506972;fill-opacity:1;fill-rule:nonzero;stroke:none"
         id="path258391"
         inkscape:connector-curvature="0" />
    </g>
    <g
       id="g258393"
       transform="matrix(0.35277777,0,0,-0.35277777,164.40384,257.9488)">
      <path
         d="M 0,0 C -0.138,0.581 -0.333,1.023 -0.419,1.186 -0.07,1.43 0.518,1.647 0.849,1.739 1.257,1.85 2.105,2.047 2.87,1.923 3.579,1.81 4.03,1.643 4.205,1.455 4.435,1.209 4.105,0.996 4.105,0.996 L 0.208,-1.17 C 0.143,-0.774 0.091,-0.387 0,0"
         style="fill:#506972;fill-opacity:1;fill-rule:nonzero;stroke:none"
         id="path258395"
         inkscape:connector-curvature="0" />
    </g>
    <g
       id="g258397"
       transform="matrix(0.35277777,0,0,-0.35277777,-770.19196,711.44702)">
      <g
         id="g258399" />
      <g
         id="g258411">
        <g
           clip-path="url(#clipPath258403)"
           id="g258409"
           style="opacity:0.36000097">
          <g
             transform="translate(2645.1279,1284.0645)"
             id="g258407">
            <path
               d="M 0,0 C 0.996,1.364 2.37,2.208 2.886,2.526 2.92,2.546 2.949,2.565 2.975,2.581 2.99,2.593 4.517,3.636 6.263,3.636 8.21,3.636 8.75,2.673 8.754,2.664 8.757,2.661 8.98,2.271 8.934,1.849 L 8.913,1.677 C 8.872,1.307 8.869,1.285 8.768,0.651 8.683,0.109 8.625,-0.317 8.595,-0.544 8.436,-0.642 7.379,-1.29 6.768,-1.64 6.481,-1.806 5.481,-2.397 4.44,-3.013 4.575,-2.129 4.582,-0.775 4.475,-0.483 4.38,-0.218 4.186,0.088 4.16,0.13 4.151,0.187 4.084,0.677 3.908,1.338 3.677,2.218 3.367,2.806 3.365,2.81 L 3.321,2.787 C 3.324,2.781 3.631,2.199 3.861,1.327 4.045,0.628 4.109,0.122 4.111,0.119 L 4.116,0.108 C 4.117,0.104 4.328,-0.223 4.428,-0.499 4.524,-0.763 4.524,-2.147 4.384,-3.046 3.149,-3.778 1.877,-4.534 1.69,-4.645 1.696,-4.404 1.686,-4.106 1.629,-3.825 1.506,-3.21 1.166,-3.067 0.694,-3.042 0.424,-3.028 -0.113,-3.28 -0.354,-3.415 -0.428,-3.412 -0.84,-3.172 -0.909,-2.692 -0.98,-2.188 -0.746,-1.021 0,0 m -0.956,-2.7 c 0.071,-0.507 0.511,-0.762 0.604,-0.762 0.01,0 0.016,0.002 0.022,0.004 0.229,0.129 0.732,0.369 1,0.369 h 0.022 c 0.462,-0.027 0.773,-0.16 0.889,-0.746 0.079,-0.388 0.067,-0.809 0.048,-1.061 0.017,0.011 0.034,0.02 0.053,0.03 0.002,0.053 0.004,0.109 0.007,0.17 l 0.004,-0.006 c 0.042,0.026 4.442,2.642 5.1,3.019 0.658,0.379 1.836,1.102 1.848,1.11 L 8.639,-0.571 H 8.641 C 8.672,-0.337 8.729,0.084 8.816,0.644 8.919,1.277 8.921,1.3 8.961,1.671 l 0.02,0.173 C 9.032,2.282 8.807,2.671 8.799,2.688 8.792,2.697 8.242,3.687 6.263,3.687 4.5,3.687 2.962,2.633 2.947,2.622 2.922,2.607 2.893,2.589 2.859,2.568 2.341,2.249 0.962,1.4 -0.04,0.028 -0.795,-1.001 -1.031,-2.187 -0.956,-2.7"
               style="fill:#231f20;fill-opacity:1;fill-rule:nonzero;stroke:none"
               id="path258405"
               inkscape:connector-curvature="0" />
          </g>
        </g>
      </g>
    </g>
    <g
       id="g258413"
       transform="matrix(0.35277777,0,0,-0.35277777,165.64857,257.32039)">
      <path
         d="M 0,0 C 0,0 0.53,-0.104 0.874,-0.512 1.162,-0.85 0.775,-1.173 0.775,-1.173 c 0,0 -0.185,-0.011 -0.349,0.083 C 0.379,-1.063 0.169,-0.846 0.16,-0.826 0.137,-0.772 0.02,-0.385 -0.025,-0.245 -0.086,-0.057 -0.098,0 0,0"
         style="fill:#6e7f89;fill-opacity:1;fill-rule:nonzero;stroke:none"
         id="path258415"
         inkscape:connector-curvature="0" />
    </g>
    <g
       id="g258417"
       transform="matrix(0.35277777,0,0,-0.35277777,165.89455,257.60703)">
      <path
         d="m 0,0 -0.524,0.186 c 0,0 0.401,0.073 0.404,0.064 C -0.046,0.063 0,0 0,0"
         style="fill:#546472;fill-opacity:1;fill-rule:nonzero;stroke:none"
         id="path258419"
         inkscape:connector-curvature="0" />
    </g>
    <g
       id="g258421"
       transform="matrix(0.35277777,0,0,-0.35277777,165.97723,257.41617)">
      <path
         d="M 0,0 C 0.26,-0.145 0.532,-0.416 0.499,-0.926 0.482,-1.188 0.264,-1.594 0.023,-1.42 c -0.246,0.183 -0.327,0.304 -0.451,0.421 -0.106,0.099 -0.222,0.206 -0.222,0.386 0,0.187 -0.006,0.302 0,0.459 C -0.635,0.204 -0.154,0.086 0,0"
         style="fill:#041019;fill-opacity:1;fill-rule:nonzero;stroke:none"
         id="path258423"
         inkscape:connector-curvature="0" />
    </g>
    <g
       id="g258425"
       transform="matrix(0.35277777,0,0,-0.35277777,165.9118,257.4837)">
      <path
         d="M 0,0 C 0.325,-0.27 0.52,-0.547 0.475,-0.959 0.462,-1.063 0.451,-1.152 0.392,-1.256 0.335,-1.277 0.273,-1.273 0.209,-1.229 c -0.246,0.183 -0.322,0.276 -0.445,0.392 -0.107,0.1 -0.229,0.235 -0.233,0.499 -0.002,0.186 -0.002,0.219 0.004,0.375 0,0.017 0.004,0.031 0.008,0.045 C -0.415,0.252 -0.24,0.201 0,0"
         style="fill:#546472;fill-opacity:1;fill-rule:nonzero;stroke:none"
         id="path258427"
         inkscape:connector-curvature="0" />
    </g>
    <g
       id="g258429"
       transform="matrix(0.35277777,0,0,-0.35277777,165.85939,257.50229)">
      <path
         d="M 0,0 C 0,0 0.237,-0.172 0.374,-0.385 0.447,-0.501 0.49,-0.69 0.48,-0.847 0.472,-1.002 0.455,-1.049 0.441,-1.058 0.389,-1.098 0.308,-1.045 0.166,-0.92 c -0.119,0.108 -0.268,0.272 -0.268,0.272 0,0 -0.137,0.123 -0.147,0.347 C -0.254,-0.191 -0.25,0.014 -0.25,0.017 -0.252,0.171 -0.099,0.092 0,0"
         style="fill:#a6aeb2;fill-opacity:1;fill-rule:nonzero;stroke:none"
         id="path258431"
         inkscape:connector-curvature="0" />
    </g>
    <g
       id="g258433"
       transform="matrix(0.35277777,0,0,-0.35277777,161.06487,257.20084)">
      <path
         d="m 0,0 c 0,0 0.948,0.96 3.026,1.983 1.217,0.6 2.109,0.895 2.311,0.931 0.008,10e-4 -0.215,0.019 -0.215,0.019 0,0 -0.33,-0.083 -0.939,-0.329 C 2.909,2.095 1.722,1.463 0.706,0.706 0.366,0.453 -0.022,0.115 -0.022,0.115 Z"
         style="fill:#506972;fill-opacity:1;fill-rule:nonzero;stroke:none"
         id="path258435"
         inkscape:connector-curvature="0" />
    </g>
    <g
       id="g339745"
       transform="matrix(0.35277777,0,0,-0.35277777,220.5789,290.38678)">
      <path
         d="m 0,0 -0.008,-2.717 -0.369,17.997 0.005,2.717 z"
         style="fill:#626365;fill-opacity:1;fill-rule:nonzero;stroke:none"
         id="path339747"
         inkscape:connector-curvature="0" />
    </g>
    <g
       id="g339901"
       transform="matrix(0.35277777,0,0,-0.35277777,220.5789,286.40184)">
      <path
         d="m 0,0 -0.008,-2.717 -0.369,17.998 0.005,2.716 z"
         style="fill:#626365;fill-opacity:1;fill-rule:nonzero;stroke:none"
         id="path339903"
         inkscape:connector-curvature="0" />
    </g>
    <g
       id="g340057"
       transform="matrix(0.35277777,0,0,-0.35277777,220.5789,282.27979)">
      <path
         d="m 0,0 -0.008,-2.716 -0.369,17.995 0.005,2.716 z"
         style="fill:#626365;fill-opacity:1;fill-rule:nonzero;stroke:none"
         id="path340059"
         inkscape:connector-curvature="0" />
    </g>
    <g
       id="g340213"
       transform="matrix(0.35277777,0,0,-0.35277777,220.5789,278.28516)">
      <path
         d="m 0,0 -0.008,-2.717 -0.369,17.998 0.005,2.715 z"
         style="fill:#626365;fill-opacity:1;fill-rule:nonzero;stroke:none"
         id="path340215"
         inkscape:connector-curvature="0" />
    </g>
    <g
       id="g340369"
       transform="matrix(0.35277777,0,0,-0.35277777,220.5789,274.3571)">
      <path
         d="m 0,0 -0.008,-2.716 -0.369,17.997 0.005,2.716 z"
         style="fill:#626365;fill-opacity:1;fill-rule:nonzero;stroke:none"
         id="path340371"
         inkscape:connector-curvature="0" />
    </g>
    <g
       id="g342137"
       transform="matrix(0.35277777,0,0,-0.35277777,221.38366,292.08932)">
      <path
         d="M 0,0 0.002,0.93 0.574,0.602 Z"
         style="fill:#7c8fca;fill-opacity:1;fill-rule:nonzero;stroke:none"
         id="path342139"
         inkscape:connector-curvature="0" />
    </g>
    <g
       id="g342193"
       transform="matrix(0.35277777,0,0,-0.35277777,221.33333,289.57787)">
      <path
         d="m 0,0 -0.019,-5.945 c 0,-0.039 0.03,-0.092 0.064,-0.111 0,0 -2.363,1.399 -2.363,1.439 v 0.075 l 0.187,-0.106 2.114,-1.22 0.01,3.448 v 0.436 l 0.004,1.094 0.001,0.431 L 0,0 -1.201,0.693 -1.732,1 -2.3,1.328 Z"
         style="fill:#1d191b;fill-opacity:1;fill-rule:nonzero;stroke:none"
         id="path342195"
         inkscape:connector-curvature="0" />
    </g>
    <g
       id="g342197"
       transform="matrix(0.35277777,0,0,-0.35277777,221.33095,290.43155)">
      <path
         d="m 0,0 -0.01,-3.448 -2.114,1.219 z"
         style="fill:#7c8fca;fill-opacity:1;fill-rule:nonzero;stroke:none"
         id="path342199"
         inkscape:connector-curvature="0" />
    </g>
    <g
       id="g342201"
       transform="matrix(0.35277777,0,0,-0.35277777,221.33233,289.89169)">
      <path
         d="m 0,0 -0.004,-1.095 -2.311,-2.428 0.004,1.094 z"
         style="fill:#7c8fca;fill-opacity:1;fill-rule:nonzero;stroke:none"
         id="path342203"
         inkscape:connector-curvature="0" />
    </g>
    <g
       id="g342205"
       transform="matrix(0.35277777,0,0,-0.35277777,220.51723,290.74849)">
      <path
         d="M 0,0 0.001,0.433 2.312,2.859 2.311,2.429 Z"
         style="fill:#a7b5d1;fill-opacity:1;fill-rule:nonzero;stroke:none"
         id="path342207"
         inkscape:connector-curvature="0" />
    </g>
    <g
       id="g342225"
       transform="matrix(0.35277777,0,0,-0.35277777,220.51551,291.18019)">
      <path
         d="M 0,0 V 0.129 L 2.312,2.558 V 2.122 L 0.188,-0.106 Z"
         style="fill:#a7b5d1;fill-opacity:1;fill-rule:nonzero;stroke:none"
         id="path342227"
         inkscape:connector-curvature="0" />
    </g>
    <g
       id="g342229"
       transform="matrix(0.35277777,0,0,-0.35277777,220.52101,289.43764)">
      <path
         d="M 0,0 0.003,0.931 0.57,0.603 Z"
         style="fill:#7c8fca;fill-opacity:1;fill-rule:nonzero;stroke:none"
         id="path342231"
         inkscape:connector-curvature="0" />
    </g>
    <g
       id="g342233"
       transform="matrix(0.35277777,0,0,-0.35277777,220.52101,289.43764)">
      <path
         d="M 0,0 0.57,0.603 1.102,0.296 -0.002,-0.866 Z"
         style="fill:#a7b5d1;fill-opacity:1;fill-rule:nonzero;stroke:none"
         id="path342235"
         inkscape:connector-curvature="0" />
    </g>
    <g
       id="g342237"
       transform="matrix(0.35277777,0,0,-0.35277777,220.52032,289.74321)">
      <path
         d="M 0,0 1.104,1.162 2.305,0.469 2.303,0.01 -0.008,-2.417 Z"
         style="fill:#7c8fca;fill-opacity:1;fill-rule:nonzero;stroke:none"
         id="path342239"
         inkscape:connector-curvature="0" />
    </g>
    <g
       id="g342241"
       transform="matrix(0.35277777,0,0,-0.35277777,221.33889,287.45464)">
      <path
         d="M 0,0 -0.016,-5.869 -2.315,-4.541 -2.3,1.328 Z"
         style="fill:#7c8fca;fill-opacity:1;fill-rule:nonzero;stroke:none"
         id="path342243"
         inkscape:connector-curvature="0" />
    </g>
    <g
       id="g342245"
       transform="matrix(0.35277777,0,0,-0.35277777,221.33333,289.52516)">
      <path
         d="M 0,0 0.016,5.869 -2.284,7.197 -2.3,1.328 0,0 M 0.08,5.981 C 0.117,5.959 0.145,5.91 0.145,5.867 V 5.795 L 0.143,4.866 0.141,3.998 0.133,1.58 V 1.148 L 0.129,0.052 V -0.076 L 0.064,-0.037 C 0.028,-0.017 0,-0.032 0,-0.076 v -0.073 l -2.3,1.328 v 0.072 c 0,0.044 -0.029,0.092 -0.065,0.114 l -0.066,0.038 0.017,5.943 c 0,0.043 0.031,0.057 0.065,0.037 z"
         style="fill:#1d191b;fill-opacity:1;fill-rule:nonzero;stroke:none"
         id="path342247"
         inkscape:connector-curvature="0" />
    </g>
    <g
       id="g342301"
       transform="matrix(0.35277777,0,0,-0.35277777,221.38366,287.80847)">
      <path
         d="M 0,0 0.002,0.929 0.574,0.6 Z"
         style="fill:#7c8fca;fill-opacity:1;fill-rule:nonzero;stroke:none"
         id="path342303"
         inkscape:connector-curvature="0" />
    </g>
  </g>
</svg>
