<?xml version="1.0" encoding="UTF-8"?>
<!-- Created with Inkscape (http://www.inkscape.org/) -->
<svg width="15.243mm" height="8.8403mm" version="1.1" viewBox="0 0 15.243 8.8403" xmlns="http://www.w3.org/2000/svg" xmlns:cc="http://creativecommons.org/ns#" xmlns:dc="http://purl.org/dc/elements/1.1/" xmlns:rdf="http://www.w3.org/1999/02/22-rdf-syntax-ns#">
 <defs>
  <linearGradient id="linearGradient3374" x2="1" gradientTransform="matrix(46.115 0 0 -46.115 1903.9 3235.3)" gradientUnits="userSpaceOnUse">
   <stop stop-color="#e9e9ea" offset="0"/>
   <stop offset="1"/>
  </linearGradient>
  <clipPath id="clipPath3256-1">
   <path d="m1871.1 3285h170.18v-103.89h-170.18z"/>
  </clipPath>
  <clipPath id="clipPath3364-0">
   <path d="m1903.9 3253.8h46.12v-36.96h-46.12z"/>
  </clipPath>
  <clipPath id="clipPath3400-4">
   <path d="m1876.7 3270h30.34v-34.85h-30.34z"/>
  </clipPath>
  <clipPath id="clipPath3456-4">
   <path d="m1978.5 3227.8h19.07v-5.47h-19.07z"/>
  </clipPath>
  <clipPath id="clipPath3472-7">
   <path d="m2019.5 3255.7h18.56v-5.92h-18.56z"/>
  </clipPath>
  <clipPath id="clipPath3548-8">
   <path d="m1965.8 3279.4h36.68v-40.81h-36.68z"/>
  </clipPath>
  <clipPath id="clipPath3572-1">
   <path d="m1934 3265.4h35.96v-20.11h-35.96z"/>
  </clipPath>
  <clipPath id="clipPath3588-6">
   <path d="m1968.3 3281.9h18.96v-15.71h-18.96z"/>
  </clipPath>
  <clipPath id="clipPath3616-7">
   <path d="m1883.1 3257.9h13.66v-17.73h-13.66z"/>
  </clipPath>
  <clipPath id="clipPath3648-7">
   <path d="m1962.8 3215.1h13.66v-17.73h-13.66z"/>
  </clipPath>
 </defs>
 <metadata>
  <rdf:RDF>
   <cc:Work rdf:about="">
    <dc:format>image/svg+xml</dc:format>
    <dc:type rdf:resource="http://purl.org/dc/dcmitype/StillImage"/>
    <dc:title/>
   </cc:Work>
  </rdf:RDF>
 </metadata>
 <g transform="translate(-7.2729 -154.26)">
  <g transform="matrix(.088194 0 0 -.075847 -157.75 404.37)">
   <g clip-path="url(#clipPath3256-1)" opacity=".3">
    <g transform="translate(2034.7 3226.6)">
     <path d="m0 0c8.132-4.369 8.916-15.72 1.464-21.167l-25.207-18.415c-9.766-7.134-22.883-7.911-33.42-1.978l-94.553 51.568c-11.938 7.023-15.92 21.536-7.022 28.326l26.687 17.558c10.918 5.875 27.682 0.191 38.604-5.679z"/>
    </g>
   </g>
   <g transform="translate(2042.3 3247.9)">
    <path d="m0 0s-3.804 7.055-13.737 8.076c-9.617 0.988-17.611-1.198-31.109 2.833-6.685 1.996 2.269-3.439 7.517-4.735 7.891-1.95 28.605-2.738 32.69-11.001z" fill="#d73848"/>
   </g>
   <g transform="translate(2043 3245.2)">
    <path d="m0 0c0-2.243-1.3-4.062-2.899-4.062-1.604 0-2.9 1.819-2.9 4.062 0 2.242 1.296 4.061 2.9 4.061 1.599 0 2.899-1.819 2.899-4.061" fill="#2a2f34"/>
   </g>
   <g transform="translate(2042 3245.2)">
    <path d="m0 0c0-1.564-0.904-2.832-2.02-2.832-1.117 0-2.021 1.268-2.021 2.832s0.904 2.831 2.021 2.831c1.116 0 2.02-1.267 2.02-2.831" fill="#ca2a35"/>
   </g>
   <g transform="translate(2039.9 3248)">
    <path d="m0 0c-1.073-0.066-1.931-1.298-1.931-2.82 0-0.984 0.355-1.848 0.898-2.356 1.077 0.065 1.935 1.297 1.935 2.82 0 0.983-0.357 1.847-0.902 2.356" fill="#7c1826"/>
   </g>
   <g transform="translate(1874.5 3272.7)">
    <path d="m0 0c2.409 8.934 13.861 17.771 15.249 18.344 4.733 1.948 7.892 3.526 21.528 4.684 4.541 0.384 14.436 3.436 26.982 1.03 9.571-1.835 31.511-17.29 34.747-19.962 0.866-0.717 7.37-4.886 8.262-5.383 21.81-12.16 38.234-15.836 44.986-19.121 14.223-6.917 13.727-13.296 14.674-15.316 2.072-4.431 1.933-7.971 1.933-7.971s1.008-1.452 0.731-4.733c-0.324-3.891-0.877-4.37-2.644-7.25-1.019-1.666-10.873-10.5-12.721-11.747-8.452-5.708-15.332-12.271-23.196-13.87-7.867-1.598-11.922-1.559-17.978 0.504-2.821 0.96-3.253 3.495-3.253 3.495s-1.411 2.045-3.431 5.84c-2.493 4.69-6.544 9.405-12.24 11.573-6.647 2.526-7.429-3.351-7.761-5.152-0.296-1.586-1.392-1.254-1.392-1.254s-39.997 22.266-55.164 31.331c-0.346 0.403-0.695 1.037-0.868 2.018-0.532 3.056-3.745 12.336-8.652 15.78-6.782 4.761-8.856 0.756-9.353-0.39-0.813-1.88-0.808-3.131-0.738-3.956-1.186 1.346-7.596 4.386-8.269 6.421-2.186 6.626-1.795 13.721-1.432 15.085" fill="#ca2a35"/>
   </g>
   <g transform="translate(2021.6 3214.6)">
    <path d="m0 0c4.385 3.198 14.321 12.345 18.92 17.747 1.482 1.739 0.145 4.759 0.128 5.059 3.224-4.64 3.287-9.894 3.287-9.894s-0.361-5.754-1.353-7.345c-0.048 0.14-0.82-2.147-11.92-10.892-6.958-5.479-16.265-9.806-22.994-10.64-6.727-0.833-9.135-0.17-9.135-0.17l-12.853 11.229s13.917-11.138 35.92 4.906" fill="#ad2432"/>
   </g>
   <g transform="translate(1880.8 3260.5)">
    <path d="m0 0c0.156 2.376 1.401 2.932 2.286 3.278 2.321 0.901 6.98-1.363 14.473-5.412 2.662-1.435 58.148-31.212 60.068-32.661 1.921-1.45 5.003-2.643 7.085-2.33 3.713 0.557 9.651-0.768 13.57-0.883 18.749-0.557 21.533-2.692 25.337-5.848 3.799-3.15-0.626-11.593 0.447-14.154 1.075-2.558-3.528-3.552-1.604-3.713 1.917-0.16 4.558-0.703 12.947 2.033 10.091 3.291 23.523 16.429 26.035 19.573 2.078 2.605 2.025 4.414 2.192 6.112 0-3e-3 0.134-0.848 0.016-2.275-0.316-3.893-0.877-4.37-2.644-7.249-1.02-1.667-9.241-9.428-13.366-12.391-8.279-5.955-14.688-11.627-22.551-13.227-7.867-1.597-11.922-1.559-17.978 0.504-2.821 0.96-3.253 3.495-3.253 3.495s-1.412 2.045-3.431 5.84c-2.493 4.691-6.544 9.406-12.24 11.573-0.835 0.317-1.574 0.502-2.232 0.579-4.649 0.551-4.144-4.452-4.212-6.837-0.289-1.586-1.608-0.839-1.608-0.839s-40.191 22.306-55.357 31.37c-0.42 0.247-9e-3 0.794-0.194 1.059-0.524 0.744-1.019 1.282-1.253 2.281-0.707 3.02-3.936 11.449-8.84 14.893-1.566 1.22-3.072 2.052-4.24 2.284-4.037 1.057-6.104-2.703-5.992-6.413-1.184 1.346-2.063 2.991-2.732 5.028-0.51 1.537-0.655 3.078-0.729 4.33" fill="#ad2432"/>
   </g>
   <g transform="translate(1981.1 3243.1)">
    <path d="m0 0s-9.229-1.161-9.802-1.067c-36.41 5.928-50.365 18.671-50.365 18.671s-1.054-5.092 4.813-9.218c5.862-4.123 28.963-16.422 46.57-16.326 15.725 0.087 24.323 5.201 24.323 5.201z" fill="#921728"/>
   </g>
   <g transform="translate(1963.5 3279.5)">
    <path d="m0 0s-32.034 14.295-49.091 15.547c0 0 23.923 2.645 49.091-15.547" fill="#ad2432"/>
   </g>
   <g transform="translate(1910.7 3237.8)">
    <path d="m0 0-3.684-2.108c0.267-0.157 0.456-0.27 0.731-0.434l8.871-5.133 19.597-11.096 14.07-7.893c5.119-2.952 8.552-4.767 8.552-4.767s4.026-2.59 4.247-0.992c0.942 6.851 4.349 9.172 4.349 9.172l-13.644 0.209z" fill="#d73848"/>
   </g>
   <g transform="translate(1903.8 3294.9)">
    <path d="m0 0 50.866-12.762s-5.796-1.26-9.399-3.063c-0.461-0.233-44.805 15.315-44.805 15.315z" fill="#d83a4a"/>
   </g>
   <g transform="translate(1924.8 3266.9)">
    <path d="m 0,0 -36.884,22.813 c -0.559,-0.426 -1.207,-0.949 -1.912,-1.554 C -35.01,17.905 -3.042,-7.612 -3.342,-6.498 -4.148,-3.522 0,0 0,0" fill="#d83a4a"/>
   </g>
   <g transform="translate(1900.4 3294.4)">
    <path d="m0 0 45.084-15.455-1.949-0.974z" fill="#921728"/>
   </g>
   <g transform="translate(1922.8 3265.4)">
    <path d="m0 0c7.56 5.843 27.966 21.221 46.699 16.753 0 0 3.866-1.374 11.856-8.763 8.223-7.604 19.394-20.276 19.807-20.924 4.727-7.388-3.521-14.048-12.459-13.876 0 0-1.119-0.256-7.99 1.632-1.174 0.323-5.807 2.092-8.88 1.711-13.46-1.672-24.549 1.546-38.292 7.656-18.649 8.286-11.319 15.364-10.741 15.811" fill="#2a2f34"/>
   </g>
   <g transform="translate(1923.4 3258.6)">
    <path d="m0 0s8.598-12.767 36.366-15.292c10.212-0.928 10.385 1.667 9.099 4.455-1.936 4.184-11.769 9.272-15.779 9.93-13.553 2.228-32.09 3.828-29.686 0.907"/>
   </g>
   <g transform="translate(1921.5 3261.5)">
    <path d="m0 0s15.464-0.115 18.437 1.65c14.483 8.598 24.152 13.681 29.143 17.726 1.716 1.394-4.84 2.029-4.918 2.105-2.751 0.087-3.663 0.144-7.36-0.441-6.624-1.177-13.114-3.858-18.744-6.873-6.621-3.637-12.054-7.763-15.225-10.212-2.794-3.009-1.333-3.955-1.333-3.955"/>
   </g>
   <g transform="translate(1886 3288.2)">
    <path d="m0 0 34.93-27.464 0.094-1.963z" fill="#921728"/>
   </g>
   <g transform="translate(1943 3278.1)">
    <path d="m0 0s-15.569 6.193-18.563 5.498c-2.995-0.696-10.511-6.404-11.345-7.936-0.836-1.53 11.718-8.747 11.718-8.747s-8.936 6.242-6.985 7.981c0.837 0.748 8.657 5.96 9.745 6.614 2.086 1.253 15.43-3.41 15.43-3.41" fill="#ad2432"/>
   </g>
   <g transform="translate(1925.1 3282)">
    <path d="m0 0c-2.993-0.696-10.514-6.405-11.346-7.935-0.024-0.044-0.04-0.089-0.052-0.136 1.215-1.457 9.834-6.09 10.691-6.703-0.064 0.164-0.118 0.336-0.168 0.509-0.649 1.081-7.854 6.007-6.479 7.234 0.836 0.748 8.657 5.96 9.745 6.614 0.22 0.134 0.502 0.229 0.823 0.302-1.305 0.214-2.457 0.29-3.214 0.115" fill="#931c2e"/>
   </g>
   <g transform="translate(1910.7 3276.9)">
    <path d="m0 0c0.196 0.104 10.722 7.101 10.931 7.657 0.208 0.557-2.785 1.323-4.318 1.114-1.532-0.208-7.866-4.316-8.562-5.64-0.698-1.321 0.905-3.688 1.949-3.131" fill="#ad2432"/>
   </g>
   <g transform="translate(1917.3 3284.3)">
    <path d="m0 0c-1.532-0.21-7.868-4.317-8.563-5.639-6e-3 -7e-3 -6e-3 -0.014-9e-3 -0.02 0.33-1.078 1.296-2.053 2.005-1.674 0.16 0.085 7.416 4.904 10.012 6.869-0.956 0.343-2.489 0.593-3.445 0.464" fill="#931c2e"/>
   </g>
   <g transform="translate(1905.7 3280.4)">
    <path d="M 0,0 C 0.197,0.104 9.191,5.847 9.4,6.404 9.609,6.96 6.964,7.726 5.431,7.518 3.9,7.309 -0.833,4.593 -1.529,3.271 -2.224,1.949 -1.044,-0.558 0,0" fill="#ad2432"/>
   </g>
   <g transform="translate(1914.7 3286.4)">
    <path d="m0 0c-0.854 0.27-2.006 0.442-2.837 0.33-1.528-0.209-6.264-2.924-6.959-4.248-0.297-0.558-0.25-1.327-0.025-1.988 0.256-0.199 0.539-0.268 0.812-0.121 0.174 0.09 7.256 4.61 9.009 6.027" fill="#931c2e"/>
   </g>
   <g clip-path="url(#clipPath3364-0)" opacity=".34">
    <path d="m1950 3216.8s-6.829 9.655-6.056 16.614c0.04 0.344-3.292 1.859-11.757 6.492-8.135 4.451-23.116 12.238-26.299 13.602-5.552 2.38 2.299-12.977 1.383-13.89z" fill="url(#linearGradient3374)"/>
   </g>
   <g transform="translate(1907 3235.7)">
    <path d="m0 0s9.885 5.282 0.927 26.954c-5.926 14.338-13.273 19.027-25.898 20.004-4.477 0.347-6.725-4.729-7.658-7.055-3.063-7.657 0.141-19.352 5.135-21.515 0.417-0.18 0.903-0.65 1.569-1.115 4.977-3.452 17.361-11.631 23.021-15.36 0.673-0.445 0.269-1.626 0.671-1.998 1.116-1.032 2.233 0.085 2.233 0.085" fill="#ad2432"/>
   </g>
   <g clip-path="url(#clipPath3400-4)" opacity=".39">
    <g transform="translate(1888.9 3268.7)">
     <path d="m0 0c-5.583 2.922-10.224 0.774-11.685-4.038-1.032-4.038-0.677-7.392 1.485-9.794l1.975-1.589c0.141-0.096 0.283-0.196 0.431-0.301 4.977-3.452 17.36-11.631 23.021-15.36 0.672-0.445 0.269-1.626 0.67-1.998 1.009-0.931 2.016-0.113 2.202 0.056-0.085 7.705-2.083 24.647-18.099 33.024" fill="#41000b"/>
    </g>
   </g>
   <g transform="translate(1910.7 3237.8)">
    <path d="m0 0s0.903 17.333-8.331 26.847c0 0-3.574 2.783-1.253-1.347 0.366-0.648 4.407-3.851 6.404-18.678 0.561-4.169-0.504-8.93-0.504-8.93z" fill="#d73848"/>
   </g>
   <g transform="translate(1910.7 3237.8)">
    <path d="m0 0 43.089-23.042 9.744-0.14-10.298-1.531-43.836 24.225z" fill="#921728"/>
   </g>
   <g transform="translate(2001 3218.5)">
    <path d="m 0,0 c 0,0 3.786,-0.369 2.674,-11.784 0,0 8.773,0 17.122,7.239 8.355,7.239 18.589,15.349 20.261,19.109 1.67,3.758 -2.381,10.793 -3.632,11.49 C 35.174,26.75 0,0 0,0" fill="#2a2f34"/>
   </g>
   <g transform="translate(2036.5 3244.7)">
    <path d="m0 0c-24.367-17.375-33.67-22.877-36.097-24.897-0.418-0.349 0.454-1.416 0.454-1.416s5.707-1.114 10.024 0.557c4.312 1.673 24.644 18.238 26.312 19.771 1.67 1.531 0.909 7.13-0.693 5.985" fill="#7c1826"/>
   </g>
   <g transform="translate(2035.9 3245.9)">
    <path d="m0 0c-35.921-25.618-35.644-26.313-35.644-26.313s5.709-1.115 10.027 0.556c4.315 1.673 24.641 18.238 26.313 19.771 1.672 1.53 0.908 7.13-0.696 5.986" fill="#ad2432"/>
   </g>
   <g transform="translate(2002.6 3220.4)">
    <path d="m0 0s-3.804 7.055-13.736 8.077c-9.618 0.988-17.612-1.2-31.111 2.833-6.683 1.994 2.273-3.439 7.517-4.736 7.889-1.949 28.605-2.738 32.691-10.999z" fill="#d73848"/>
   </g>
   <g transform="translate(2003.3 3217.7)">
    <path d="m0 0c0-2.242-1.297-4.06-2.897-4.06-1.603 0-2.903 1.818-2.903 4.06s1.3 4.06 2.903 4.06c1.6 0 2.897-1.818 2.897-4.06" fill="#2a2f34"/>
   </g>
   <g transform="translate(2002.5 3217.8)">
    <path d="m0 0c0-1.564-0.904-2.831-2.021-2.831s-2.022 1.267-2.022 2.831 0.905 2.83 2.022 2.83 2.021-1.266 2.021-2.83" fill="#ca2a35"/>
   </g>
   <g transform="translate(1998.5 3217.8)">
    <path d="m0 0c0-0.853 0.273-1.607 0.698-2.126 0.13-0.035 0.262-0.057 0.395-0.057 1.121 0 2.022 1.269 2.022 2.832 0 0.853-0.274 1.607-0.698 2.127-0.129 0.036-0.263 0.054-0.396 0.054-1.116 0-2.021-1.266-2.021-2.83" fill="#7c1826"/>
   </g>
   <g transform="translate(2002.1 3224.8)">
    <path d="m0 0c-1.527-1.12-4.879-1.42-6.722-0.985-24.039 5.662-27.541 9.885-27.541 9.885s16.2-0.091 23.718 2.693 14.201 6.915 13.085 12.066c-1.113 5.152-6.495 10.488-6.495 10.488s13.663-4.596 30.657-10.941c1.427-0.531 1.317-2.651 0.09-3.552z" fill="#d73848"/>
   </g>
   <g clip-path="url(#clipPath3456-4)" opacity=".5">
    <g transform="translate(1978.5 3227.2)">
     <path d="m0 0s12.25 2.691 18.935-2.97c0 0 0.741-1.671-1.208-1.856-1.951-0.186-8.261 4.639-17.727 4.826" fill="#ef5972"/>
    </g>
   </g>
   <g clip-path="url(#clipPath3472-7)" opacity=".5">
    <g transform="translate(2019.5 3255.4)">
     <path d="m0 0s11.74 1.914 18.425-3.748c0 0 0.741-1.671-1.207-1.856-1.951-0.186-7.75 5.419-17.218 5.604" fill="#ef5972"/>
    </g>
   </g>
   <g transform="translate(2043.8 3226.6)">
    <path d="m0 0c0.185-5.625-2.322-8.63-2.322-8.63-4.175-7.611-24.781-21.118-24.781-21.118-8.077-6.263-17.543-6.263-17.543-6.263s-2.041 1.578 2.412 3.155c3.758 1.331 6.062-0.729 6.587 3.947 0.217 1.948 1.113 3.806 2.705 4.953l13.161 9.487c1.152 0.83 2.772 0.123 2.941-1.287l0.186-1.517c0.078-0.644 0.834-0.953 1.337-0.547 0.727 0.581 1.13 1.485 1.074 2.411l-0.1 1.677c-0.115 1.999 0.64 3.963 2.068 5.369l8.216 8.096c0.903 0.89 2.41 0.31 2.581-0.944 0.14-0.998 0.313-1.885 0.502-2.036 0.464-0.37 0.976 3.247 0.976 3.247" fill="#2a2f34"/>
   </g>
   <g transform="translate(2016.7 3196.8)">
    <path d="m0 0s4.421 2.899 9.579 6.766c0.034 1.661 0.034 5.811-0.855 6.182-1.114 0.465-13.271-7.796-14.201-9.838-0.678-1.49-1.156-5.15-1.364-7.024 2.229 0.911 4.591 2.167 6.841 3.914" fill="#111416"/>
   </g>
   <g transform="translate(2013.1 3193.5)">
    <path d="m0 0c0-0.206-0.169-0.372-0.372-0.372-0.207 0-0.371 0.166-0.371 0.372v8.723h0.743z" fill="#2a2f34"/>
   </g>
   <g transform="translate(2015.6 3195.3)">
    <path d="m0 0c0-0.204-0.162-0.371-0.37-0.371-0.205 0-0.37 0.167-0.37 0.371v8.726h0.74z" fill="#2a2f34"/>
   </g>
   <g transform="translate(2018 3196.9)">
    <path d="m0 0c0-0.204-0.169-0.371-0.374-0.371s-0.368 0.167-0.368 0.371v8.725h0.742z" fill="#2a2f34"/>
   </g>
   <g transform="translate(2020.2 3198.5)">
    <path d="m0 0c0-0.205-0.166-0.372-0.37-0.372-0.206 0-0.371 0.167-0.371 0.372v8.724h0.741z" fill="#2a2f34"/>
   </g>
   <g transform="translate(2022.4 3199.8)">
    <path d="m0 0c0-0.204-0.165-0.37-0.371-0.37-0.204 0-0.369 0.166-0.369 0.37v8.724h0.74z" fill="#2a2f34"/>
   </g>
   <g transform="translate(2024.7 3201.4)">
    <path d="m0 0c0-0.205-0.172-0.37-0.374-0.37-0.205 0-0.372 0.165-0.372 0.37v8.725h0.746z" fill="#2a2f34"/>
   </g>
   <g transform="translate(2041.5 3217.9)">
    <path d="m0 0s0.367 0.442 0.812 1.304c-0.298 2.309-0.841 6.126-1.506 5.704-1.02-0.651-8.919-7.584-9.515-9.747-0.386-1.399 0.176-5.257 0.364-7.426 1.469 1.207 2.903 2.437 4.207 3.651 0.24 0.285 0.492 0.576 0.769 0.869 0 0 0.41 0.325 1.526 1.383 1.462 1.526 2.641 2.979 3.343 4.262" fill="#111416"/>
   </g>
   <g transform="translate(2041.4 3216.7)">
    <path d="m0 0c0.022-0.203-0.126-0.387-0.331-0.406-0.203-0.022-0.385 0.127-0.406 0.331l-0.886 8.679 0.737 0.077z" fill="#2a2f34"/>
   </g>
   <g transform="translate(2039.7 3214.7)">
    <path d="m0 0c0.019-0.202-0.129-0.385-0.33-0.406-0.206-0.021-0.39 0.126-0.409 0.332l-0.888 8.679 0.739 0.076z" fill="#2a2f34"/>
   </g>
   <g transform="translate(2035.8 3210.8)">
    <path d="m0 0c0.021-0.204-0.126-0.386-0.334-0.406-0.201-0.022-0.383 0.127-0.403 0.331l-0.887 8.68 0.666 0.578z" fill="#2a2f34"/>
   </g>
   <g transform="translate(2033.8 3208.6)">
    <path d="m0 0c0.021-0.206-0.13-0.386-0.331-0.41-0.202-0.02-0.387 0.13-0.407 0.333l-0.887 8.68 0.742 0.451z" fill="#2a2f34"/>
   </g>
   <g transform="translate(2037.8 3213)">
    <path d="m0 0c0.018-0.204-0.131-0.386-0.334-0.408-0.205-0.019-0.387 0.129-0.409 0.333l-0.886 8.68 0.738 0.075z" fill="#2a2f34"/>
   </g>
   <g transform="translate(2021.5 3216.1)">
    <path d="m0 0s-0.171 3.109-0.171 4.87c0 1.766 9.528 8.502 11.139 9.468 1.392 0.836 2.676-2.922 2.304-2.643-0.37 0.277-1.837 2.366-3.325 1.158-1.286-1.047-8.631-6.312-9.003-7.518-0.37-1.206-0.944-5.335-0.944-5.335" fill="#111416"/>
   </g>
   <g clip-path="url(#clipPath3548-8)" opacity=".36">
    <g transform="translate(2001.1 3252.5)">
     <path d="m0 0c-0.357 0.558-16.818 19.595-27.044 26.925-6.637-7.344-12.475-19.713-4.129-37.648 0.61 0.057 1.223 0.112 1.844 0.19 3.073 0.381 7.706-1.388 8.88-1.711 6.871-1.888 7.99-1.632 7.99-1.632 8.938-0.172 17.186 6.488 12.459 13.876" fill="#111416"/>
    </g>
   </g>
   <g transform="translate(1891.5 3273.5)">
    <path d="m0 0c4.829-3.525 0.651 2.691-2.783 3.991-3.436 1.299-7.704 1.392-8.629 3.527-0.286 0.653-0.806 0.836-1.226 0.869-1.682-1.008-2.861-2.829-3.65-4.415-0.02-0.544 0.235-0.966 0.974-1.095 2.692-0.464 10.488 0.65 15.314-2.877" fill="#b4b4b4"/>
   </g>
   <g transform="translate(1943.9 3294.3)">
    <path d="m0 0c-1.307 0.753-4.338 1.812-7.319 2.695-3.8 0.593-7.333 0.701-10.521 0.561 0.722-0.359 2.123-0.891 4.683-1.099 8.632-0.694 13.576-4.244 15.386-4.383 1.81-0.14 0.557 0.626-2.229 2.226" fill="#b4b4b4"/>
   </g>
   <g clip-path="url(#clipPath3572-1)" opacity=".38">
    <g transform="translate(1969.5 3245.3)">
     <path d="m0 0-0.561 0.026 0.349 7.241c0.425 2.972-0.489 4.959-2.713 5.93l-12.615 5.507c-2.9 1.264-6.289 1.109-9.064-0.418-1.522-0.841-3.249-1.329-4.986-1.413l-5.902-0.291-0.027 0.555 5.9 0.291c1.655 0.081 3.296 0.546 4.746 1.345 2.926 1.611 6.496 1.777 9.555 0.44l12.617-5.506c2.445-1.066 3.498-3.313 3.045-6.494z"/>
    </g>
   </g>
   <g clip-path="url(#clipPath3588-6)" opacity=".38">
    <g transform="translate(1983.2 3266.2)">
     <path d="m0 0c-1.574 0-2.795 0.75-4.141 1.729l-8.977 6.52c-0.731 0.531-1.152 1.355-1.152 2.256-2e-3 0.903 0.411 1.728 1.142 2.264 0.248 0.181 0.384 0.459 0.375 0.764-7e-3 0.306-0.161 0.575-0.415 0.745l-1.737 0.946 0.264 0.488 1.758-0.957c0.426-0.277 0.675-0.724 0.69-1.207 9e-3 -0.483-0.215-0.944-0.605-1.23-0.586-0.427-0.92-1.089-0.918-1.812 3e-3 -0.722 0.341-1.381 0.925-1.808l8.98-6.519c2.198-1.597 3.913-2.488 7.592-0.367l0.276-0.486c-1.645-0.946-2.941-1.326-4.057-1.326"/>
    </g>
   </g>
   <g transform="translate(1886.5 3264.3)">
    <path d="m0 0s-3.657 1.278-5.41 0.058c-4.643-3.235-3.935-9.398-1.863-15.502 2.073-6.105 5.835-10.499 9.504-12.893 3.665-2.392 6.841-1.76 8.709-1.463 2.824 0.45 6.936 2.988 6.936 2.988s-1.024 11.026-9.173 20.696c-3.653 4.341-8.703 6.116-8.703 6.116" fill="#121413"/>
   </g>
   <g transform="translate(1889.8 3258.2)">
    <path d="m0 0c3.651-2.661 6.939-9.994 7.525-13.587 0.582-3.589-0.393-6.076-2.791-7.262-2.394-1.188-7.603 0.923-10.773 5.721-3.173 4.794-3.923 9.795-3.575 12.167 0.464 3.119 2.452 8.172 9.614 2.961" fill="#adb3b1"/>
   </g>
   <g transform="translate(1897.2 3244.9)">
    <path d="m0 0c-0.713 3.687-3.913 10.691-7.463 13.28-0.554 0.4-1.069 0.735-1.561 1.02-0.557 0-1.358 0.014-1.888-0.154-3.901-1.236-3.969-6.706-1.889-11.819 2.092-5.106 6.436-8.166 9.707-6.847 1.656 0.684 2.721 2.367 3.094 4.52" fill="#222d28"/>
   </g>
   <g clip-path="url(#clipPath3616-7)" opacity=".63">
    <g transform="translate(1894.5 3246.5)">
     <path d="m0 0c0.311 0.154 1.237 0.197 2.26 0.207-0.217 0.701-0.485 1.448-0.801 2.227-0.205 0.041-0.222 0.147-0.567 0.209-0.857 0.153-1.918 0.882-2.331 1.398-1.193 1.509-1.01 2.961-1.01 2.961l-0.219 2.69c-0.633 0.809-1.012 1.137-1.695 1.694-0.171-1.577-0.549-3.04-0.549-3.17 0-0.674-0.159-2.398-1.277-2.212-0.619 0.099-1.688 0.954-4.04 2.616-0.311 0.221-0.63 0.476-0.907 0.695-0.137-0.492-0.221-1.021-0.266-1.58l4.176-3.809s1.062-1.045 1.062-2.023c0-0.564-1.199-2.583-2.229-4.213 0.308-0.43 0.632-0.836 0.97-1.208 1.028 0.881 2.121 1.793 2.462 2.067 0.686 0.553 1.991-0.368 2.305-1.348 0.139-0.437 0.727-1.955 1.353-3.547 0.317 0.049 0.633 0.119 0.932 0.241 0.212 0.087 0.411 0.19 0.601 0.309l-0.977 3.467s-0.249 1.838 0.747 2.329" fill="#838e8a"/>
    </g>
   </g>
   <g transform="translate(1893.2 3246.5)">
    <path d="m0 0c0.474 0.126 2.124 0.212 3.544 0.204-0.129 0.421-0.273 0.858-0.444 1.313-0.792 0.15-1.999 0.442-2.671 0.753-1.121 0.519-2.735 1.558-2.735 4.306 0 0.366-0.145 2.29-0.218 4.252-0.42 0.434-0.476 0.488-0.909 0.804-0.097 0.069-0.485-4.328-0.506-4.475-0.156-0.955-0.64-2.002-1.762-1.82-0.616 0.101-2.011 1.217-4.088 2.667-0.095 0.065-0.172 0.121-0.257 0.18-0.065-0.502-0.088-1.035-0.072-1.587l2.893-2.674s1.06-1.041 1.06-2.023c0-0.45-0.773-1.84-1.609-3.214 0.3-0.516 0.626-1.001 0.968-1.45 0.836 0.812 1.611 1.562 1.885 1.781 0.688 0.553 1.718 0.642 2.288-0.674 0.204-0.477 1.103-2.698 1.946-4.804 0.509-3e-3 1.005 0.076 1.482 0.249l-1.233 3.801s-0.663 2.114 0.438 2.411" fill="#adb3b1"/>
   </g>
   <g transform="translate(1966.2 3221.5)">
    <path d="m0 0s-3.655 1.279-5.41 0.059c-4.644-3.235-3.934-9.4-1.863-15.502 2.074-6.103 5.837-10.499 9.503-12.894 3.664-2.389 6.841-1.759 8.709-1.462 2.823 0.449 6.937 2.987 6.937 2.987s-1.026 11.026-9.17 20.697c-3.656 4.339-8.706 6.115-8.706 6.115" fill="#121413"/>
   </g>
   <g transform="translate(1969.5 3215.4)">
    <path d="m0 0c3.653-2.662 6.941-9.994 7.527-13.588 0.581-3.587-0.391-6.076-2.791-7.26-2.395-1.188-7.601 0.921-10.77 5.719-3.175 4.794-3.925 9.794-3.574 12.168 0.461 3.121 2.45 8.172 9.608 2.961" fill="#adb3b1"/>
   </g>
   <g transform="translate(1976.9 3202.1)">
    <path d="m0 0c-0.712 3.687-3.909 10.691-7.465 13.28-0.552 0.4-1.067 0.735-1.559 1.02-0.557 0-1.354 0.014-1.886-0.155-3.903-1.236-3.97-6.706-1.89-11.817 2.094-5.108 6.436-8.168 9.707-6.847 1.658 0.683 2.721 2.364 3.093 4.519" fill="#222d28"/>
   </g>
   <g clip-path="url(#clipPath3648-7)" opacity=".63">
    <g transform="translate(1974.2 3203.7)">
     <path d="m0 0c0.311 0.151 1.238 0.195 2.26 0.205-0.217 0.701-0.487 1.451-0.8 2.229-0.21 0.039-0.224 0.147-0.569 0.208-0.854 0.153-1.918 0.882-2.329 1.398-1.197 1.509-1.011 2.962-1.011 2.962l-0.219 2.688c-0.635 0.811-1.014 1.137-1.695 1.695-0.173-1.576-0.55-3.039-0.55-3.169 0-0.675-0.158-2.397-1.277-2.213-0.619 0.1-1.685 0.955-4.037 2.616-0.314 0.22-0.633 0.478-0.908 0.696-0.138-0.493-0.226-1.021-0.266-1.582l4.174-3.808s1.063-1.044 1.063-2.023c0-0.564-1.198-2.582-2.23-4.213 0.309-0.432 0.631-0.835 0.97-1.208 1.028 0.881 2.124 1.792 2.463 2.067 0.684 0.552 1.993-0.367 2.305-1.348 0.14-0.437 0.725-1.956 1.355-3.547 0.316 0.048 0.629 0.119 0.93 0.242 0.211 0.086 0.41 0.189 0.601 0.307l-0.977 3.468s-0.248 1.84 0.747 2.33" fill="#838e8a"/>
    </g>
   </g>
   <g transform="translate(1972.9 3203.8)">
    <path d="m0 0c0.472 0.126 2.119 0.214 3.549 0.203-0.134 0.422-0.282 0.859-0.45 1.313-0.795 0.151-2 0.445-2.669 0.753-1.122 0.521-2.737 1.559-2.737 4.308 0 0.365-0.143 2.288-0.216 4.25-0.422 0.434-0.478 0.489-0.914 0.805-0.092 0.069-0.48-4.327-0.502-4.473-0.156-0.958-0.641-2.006-1.764-1.822-0.617 0.101-2.01 1.215-4.087 2.668-0.093 0.064-0.175 0.121-0.256 0.18-0.067-0.504-0.091-1.036-0.075-1.588l2.896-2.673s1.057-1.042 1.057-2.023c0-0.451-0.775-1.842-1.609-3.216 0.302-0.514 0.629-0.999 0.973-1.45 0.831 0.812 1.607 1.563 1.881 1.782 0.689 0.554 1.72 0.642 2.288-0.673 0.206-0.478 1.102-2.7 1.947-4.806 0.51-1e-3 1.008 0.077 1.479 0.249l-1.227 3.803s-0.664 2.112 0.436 2.41" fill="#adb3b1"/>
   </g>
   <g transform="translate(1982.2 3202.7)">
    <path d="m0 0s-6.851 15.265-16.345 18.832c0 0-4.64 1.761-7.819-3.567 0 0 3.775 9.901 12.282 7.452 0 0 15.755-5.001 11.882-22.717" fill="#ca2a35"/>
   </g>
   <g transform="translate(1962.9 3223.8)">
    <path d="m0 0s4.28 3.144 9.605 0c5.779-3.411 8.494-10.301 8.633-14.27 0.086-2.443-0.696 5.082-7.238 10.651-7.307 6.218-11.346 2.786-11 3.619" fill="#d73848"/>
   </g>
   <g transform="translate(1921.2 3261.7)">
    <path d="m0 0s-3.247-0.642-5.361-3.134c-1.762-2.078 0.617-4.056 0.617-4.056s1.128-0.069 2.14 0.504c0.286 0.164 2.875 3.429 2.928 3.552 0.151 0.332 1.081 0.982 0.88 2.02-0.234 1.208-0.598 1.114-1.204 1.114" fill="#2a2f34"/>
   </g>
   <g transform="translate(1916.6 3261.2)">
    <path d="m0 0c-1.593-0.895-3.272-2.557-3.069-5.68 0.101-1.609 1.459-4.094 2.921-3.023 1.511 1.109 2.008 1.852 2.769 2.571 0.644 0.605 1.361 1.258 1.361 2.366 0 1.143 0.039 1.858 0 2.821-0.089 2.191-3.037 1.472-3.982 0.945" fill="#ad2432"/>
   </g>
   <g transform="translate(1917.7 3260)">
    <path d="m0 0c-1.991-1.658-3.186-3.361-2.907-5.893 0.066-0.633 0.139-1.178 0.501-1.815 0.354-0.135 0.731-0.106 1.122 0.178 1.512 1.109 1.977 1.677 2.741 2.393 0.643 0.605 1.395 1.436 1.414 3.06 0.015 1.144 0.015 1.342-0.024 2.305 0 0.098-0.02 0.185-0.034 0.274-0.268 1.035-1.34 0.726-2.813-0.502" fill="#d83a4a"/>
   </g>
   <g transform="translate(1918.6 3259.7)">
    <path d="m0 0s-1.452-1.068-2.291-2.373c-0.454-0.705-0.708-1.862-0.656-2.82 0.05-0.957 0.162-1.241 0.246-1.305 0.322-0.245 0.827 0.084 1.679 0.851 0.736 0.661 1.646 1.662 1.646 1.662s0.847 0.756 0.905 2.135c0.028 0.671 6e-3 1.926 6e-3 1.945 0.014 0.946-0.931 0.461-1.535-0.095" fill="#b4b4b4"/>
   </g>
  </g>
 </g>
</svg>
