<?xml version="1.0" encoding="UTF-8" standalone="no"?>
<!-- Created with Inkscape (http://www.inkscape.org/) -->

<svg
   xmlns:dc="http://purl.org/dc/elements/1.1/"
   xmlns:cc="http://creativecommons.org/ns#"
   xmlns:rdf="http://www.w3.org/1999/02/22-rdf-syntax-ns#"
   xmlns:svg="http://www.w3.org/2000/svg"
   xmlns="http://www.w3.org/2000/svg"
   xmlns:sodipodi="http://sodipodi.sourceforge.net/DTD/sodipodi-0.dtd"
   xmlns:inkscape="http://www.inkscape.org/namespaces/inkscape"
   width="16.552538mm"
   height="9.1040583mm"
   viewBox="0 0 16.552538 9.1040583"
   version="1.1"
   id="svg300755"
   inkscape:version="0.92.2 (5c3e80d, 2017-08-06)"
   sodipodi:docname="7.svg">
  <defs
     id="defs300749">
    <clipPath
       clipPathUnits="userSpaceOnUse"
       id="clipPath3256">
      <path
         d="M 1871.12,3284.99 H 2041.3 V 3181.1 h -170.18 z"
         id="path3254"
         inkscape:connector-curvature="0" />
    </clipPath>
    <clipPath
       clipPathUnits="userSpaceOnUse"
       id="clipPath3364">
      <path
         d="m 1903.91,3253.78 h 46.12 v -36.96 h -46.12 z"
         id="path3362"
         inkscape:connector-curvature="0" />
    </clipPath>
    <linearGradient
       x1="0"
       y1="0"
       x2="1"
       y2="0"
       gradientUnits="userSpaceOnUse"
       gradientTransform="matrix(46.115234,0,0,-46.115234,1903.9141,3235.2964)"
       spreadMethod="pad"
       id="linearGradient3374">
      <stop
         style="stop-opacity:1;stop-color:#e9e9ea"
         offset="0"
         id="stop3370" />
      <stop
         style="stop-opacity:1;stop-color:#000000"
         offset="1"
         id="stop3372" />
    </linearGradient>
    <clipPath
       clipPathUnits="userSpaceOnUse"
       id="clipPath3400">
      <path
         d="M 1876.66,3270.04 H 1907 v -34.85 h -30.34 z"
         id="path3398"
         inkscape:connector-curvature="0" />
    </clipPath>
    <clipPath
       clipPathUnits="userSpaceOnUse"
       id="clipPath3456">
      <path
         d="m 1978.52,3227.8 h 19.07 v -5.47 h -19.07 z"
         id="path3454"
         inkscape:connector-curvature="0" />
    </clipPath>
    <clipPath
       clipPathUnits="userSpaceOnUse"
       id="clipPath3472">
      <path
         d="m 2019.5,3255.73 h 18.56 v -5.92 h -18.56 z"
         id="path3470"
         inkscape:connector-curvature="0" />
    </clipPath>
    <clipPath
       clipPathUnits="userSpaceOnUse"
       id="clipPath3548">
      <path
         d="m 1965.85,3279.43 h 36.68 v -40.81 h -36.68 z"
         id="path3546"
         inkscape:connector-curvature="0" />
    </clipPath>
    <clipPath
       clipPathUnits="userSpaceOnUse"
       id="clipPath3572">
      <path
         d="m 1934.03,3265.36 h 35.96 v -20.11 h -35.96 z"
         id="path3570"
         inkscape:connector-curvature="0" />
    </clipPath>
    <clipPath
       clipPathUnits="userSpaceOnUse"
       id="clipPath3588">
      <path
         d="m 1968.3,3281.89 h 18.96 v -15.71 h -18.96 z"
         id="path3586"
         inkscape:connector-curvature="0" />
    </clipPath>
    <clipPath
       clipPathUnits="userSpaceOnUse"
       id="clipPath3616">
      <path
         d="m 1883.1,3257.87 h 13.66 v -17.73 h -13.66 z"
         id="path3614"
         inkscape:connector-curvature="0" />
    </clipPath>
    <clipPath
       clipPathUnits="userSpaceOnUse"
       id="clipPath3648">
      <path
         d="m 1962.79,3215.09 h 13.66 v -17.73 h -13.66 z"
         id="path3646"
         inkscape:connector-curvature="0" />
    </clipPath>
    <clipPath
       clipPathUnits="userSpaceOnUse"
       id="clipPath4878">
      <path
         d="m 2061.6,3267.68 h 152.56 V 3181.1 H 2061.6 Z"
         id="path4876"
         inkscape:connector-curvature="0" />
    </clipPath>
    <clipPath
       clipPathUnits="userSpaceOnUse"
       id="clipPath4914">
      <path
         d="m 2082.5,3242.21 h 9.15 v -12.67 h -9.15 z"
         id="path4912"
         inkscape:connector-curvature="0" />
    </clipPath>
    <clipPath
       clipPathUnits="userSpaceOnUse"
       id="clipPath4966">
      <path
         d="m 2145.07,3236.4 h 66.94 v -37.97 h -66.94 z"
         id="path4964"
         inkscape:connector-curvature="0" />
    </clipPath>
    <clipPath
       clipPathUnits="userSpaceOnUse"
       id="clipPath4982">
      <path
         d="m 2162.29,3210.49 h 20.74 v -9.74 h -20.74 z"
         id="path4980"
         inkscape:connector-curvature="0" />
    </clipPath>
    <clipPath
       clipPathUnits="userSpaceOnUse"
       id="clipPath5030">
      <path
         d="m 2147.61,3204.98 h 9.51 v -12.33 h -9.51 z"
         id="path5028"
         inkscape:connector-curvature="0" />
    </clipPath>
    <clipPath
       clipPathUnits="userSpaceOnUse"
       id="clipPath5050">
      <path
         d="m 2206.61,3230.91 h 4.66 v -14.56 h -4.66 z"
         id="path5048"
         inkscape:connector-curvature="0" />
    </clipPath>
    <clipPath
       clipPathUnits="userSpaceOnUse"
       id="clipPath5090">
      <path
         d="m 2174.5,3206.23 h 3.34 v -3.87 h -3.34 z"
         id="path5088"
         inkscape:connector-curvature="0" />
    </clipPath>
    <clipPath
       clipPathUnits="userSpaceOnUse"
       id="clipPath5110">
      <path
         d="m 2095.48,3284.67 h 66.22 v -31.51 h -66.22 z"
         id="path5108"
         inkscape:connector-curvature="0" />
    </clipPath>
    <clipPath
       clipPathUnits="userSpaceOnUse"
       id="clipPath5126">
      <path
         d="m 2151.87,3244.72 h 52.47 v -30.78 h -52.47 z"
         id="path5124"
         inkscape:connector-curvature="0" />
    </clipPath>
    <clipPath
       clipPathUnits="userSpaceOnUse"
       id="clipPath5154">
      <path
         d="m 2107.59,3258.5 h 34.46 v -55.02 h -34.46 z"
         id="path5152"
         inkscape:connector-curvature="0" />
    </clipPath>
    <clipPath
       clipPathUnits="userSpaceOnUse"
       id="clipPath5186">
      <path
         d="m 2127.21,3230.54 h 9.83 v -4.24 h -9.83 z"
         id="path5184"
         inkscape:connector-curvature="0" />
    </clipPath>
    <clipPath
       clipPathUnits="userSpaceOnUse"
       id="clipPath5202">
      <path
         d="m 2072.49,3287.76 h 42.38 v -19.31 h -42.38 z"
         id="path5200"
         inkscape:connector-curvature="0" />
    </clipPath>
    <clipPath
       clipPathUnits="userSpaceOnUse"
       id="clipPath5846">
      <path
         d="m 441.461,3261.88 h 146.603 v -78.61 H 441.461 Z"
         id="path5844"
         inkscape:connector-curvature="0" />
    </clipPath>
    <clipPath
       clipPathUnits="userSpaceOnUse"
       id="clipPath5862">
      <path
         d="m 534.447,3228.29 h 53.047 v -31.76 h -53.047 z"
         id="path5860"
         inkscape:connector-curvature="0" />
    </clipPath>
    <clipPath
       clipPathUnits="userSpaceOnUse"
       id="clipPath5910">
      <path
         d="m 455.897,3259.95 h 58.405 v -62.97 h -58.405 z"
         id="path5908"
         inkscape:connector-curvature="0" />
    </clipPath>
    <clipPath
       clipPathUnits="userSpaceOnUse"
       id="clipPath5926">
      <path
         d="m 480.153,3255.43 h 5.279 v -42.72 h -5.279 z"
         id="path5924"
         inkscape:connector-curvature="0" />
    </clipPath>
    <clipPath
       clipPathUnits="userSpaceOnUse"
       id="clipPath5942">
      <path
         d="m 449.698,3262.12 h 114.897 v -58.11 H 449.698 Z"
         id="path5940"
         inkscape:connector-curvature="0" />
    </clipPath>
    <clipPath
       clipPathUnits="userSpaceOnUse"
       id="clipPath5958">
      <path
         d="m 569.722,3240.37 h 13.569 v -25.21 h -13.569 z"
         id="path5956"
         inkscape:connector-curvature="0" />
    </clipPath>
    <clipPath
       clipPathUnits="userSpaceOnUse"
       id="clipPath216">
      <path
         d="M 1347.02,3255.05 H 1482.6 V 3181.1 H 1347.02 Z"
         id="path214"
         inkscape:connector-curvature="0" />
    </clipPath>
    <clipPath
       clipPathUnits="userSpaceOnUse"
       id="clipPath368">
      <path
         d="m 1426.42,3253.06 h 52.99 v -34.62 h -52.99 z"
         id="path366"
         inkscape:connector-curvature="0" />
    </clipPath>
    <clipPath
       clipPathUnits="userSpaceOnUse"
       id="clipPath384">
      <path
         d="m 1418.31,3227.91 h 22.89 v -12.26 h -22.89 z"
         id="path382"
         inkscape:connector-curvature="0" />
    </clipPath>
    <clipPath
       clipPathUnits="userSpaceOnUse"
       id="clipPath408">
      <path
         d="m 1346.43,3269.04 h 2.26 v -7.33 h -2.26 z"
         id="path406"
         inkscape:connector-curvature="0" />
    </clipPath>
    <clipPath
       clipPathUnits="userSpaceOnUse"
       id="clipPath620">
      <path
         d="m 1356.73,3303.72 h 90.88 v -45.36 h -90.88 z"
         id="path618"
         inkscape:connector-curvature="0" />
    </clipPath>
    <clipPath
       clipPathUnits="userSpaceOnUse"
       id="clipPath636">
      <path
         d="m 1522.66,3261.56 h 147.27 v -80.46 h -147.27 z"
         id="path634"
         inkscape:connector-curvature="0" />
    </clipPath>
    <clipPath
       clipPathUnits="userSpaceOnUse"
       id="clipPath820">
      <path
         d="M 1557.54,3229.73 Z"
         id="path818"
         inkscape:connector-curvature="0" />
    </clipPath>
    <clipPath
       clipPathUnits="userSpaceOnUse"
       id="clipPath852">
      <path
         d="m 1566.63,3300.03 h 94.05 v -50.97 h -94.05 z"
         id="path850"
         inkscape:connector-curvature="0" />
    </clipPath>
    <clipPath
       clipPathUnits="userSpaceOnUse"
       id="clipPath896">
      <path
         d="m 1626.43,3225.22 h 4.82 v -15.59 h -4.82 z"
         id="path894"
         inkscape:connector-curvature="0" />
    </clipPath>
    <clipPath
       clipPathUnits="userSpaceOnUse"
       id="clipPath916">
      <path
         d="m 1668.97,3248.32 h 4.16 v -14.83 h -4.16 z"
         id="path914"
         inkscape:connector-curvature="0" />
    </clipPath>
    <clipPath
       clipPathUnits="userSpaceOnUse"
       id="clipPath932">
      <path
         d="m 1623.86,3209.27 h 5.41 v -13.89 h -5.41 z"
         id="path930"
         inkscape:connector-curvature="0" />
    </clipPath>
    <clipPath
       clipPathUnits="userSpaceOnUse"
       id="clipPath984">
      <path
         d="M 2241.54,3263.38 H 2392.1 V 3181.1 H 2241.54 Z"
         id="path982"
         inkscape:connector-curvature="0" />
    </clipPath>
    <clipPath
       clipPathUnits="userSpaceOnUse"
       id="clipPath1068">
      <path
         d="m 2250.46,3246.87 h 10.19 v -13.23 h -10.19 z"
         id="path1066"
         inkscape:connector-curvature="0" />
    </clipPath>
    <clipPath
       clipPathUnits="userSpaceOnUse"
       id="clipPath1096">
      <path
         d="m 2325.12,3205.39 h 10.19 v -13.23 h -10.19 z"
         id="path1094"
         inkscape:connector-curvature="0" />
    </clipPath>
    <clipPath
       clipPathUnits="userSpaceOnUse"
       id="clipPath1116">
      <path
         d="m 2341.56,3247.6 h 48.81 v -37.16 h -48.81 z"
         id="path1114"
         inkscape:connector-curvature="0" />
    </clipPath>
    <clipPath
       clipPathUnits="userSpaceOnUse"
       id="clipPath1152">
      <path
         d="m 2261.03,3256.13 h 5.5 v -8.41 h -5.5 z"
         id="path1150"
         inkscape:connector-curvature="0" />
    </clipPath>
    <clipPath
       clipPathUnits="userSpaceOnUse"
       id="clipPath1172">
      <path
         d="m 2346.72,3241.54 h 46.4 v -33.45 h -46.4 z"
         id="path1170"
         inkscape:connector-curvature="0" />
    </clipPath>
    <clipPath
       clipPathUnits="userSpaceOnUse"
       id="clipPath1192">
      <path
         d="m 2266.76,3261.85 h 43.66 v -45.63 h -43.66 z"
         id="path1190"
         inkscape:connector-curvature="0" />
    </clipPath>
    <clipPath
       clipPathUnits="userSpaceOnUse"
       id="clipPath1216">
      <path
         d="m 2243.45,3285.5 h 63.5 v -24.87 h -63.5 z"
         id="path1214"
         inkscape:connector-curvature="0" />
    </clipPath>
    <clipPath
       clipPathUnits="userSpaceOnUse"
       id="clipPath1236">
      <path
         d="m 2297.91,3280.49 h 66.9 v -34.76 h -66.9 z"
         id="path1234"
         inkscape:connector-curvature="0" />
    </clipPath>
    <clipPath
       clipPathUnits="userSpaceOnUse"
       id="clipPath1252">
      <path
         d="m 2364.67,3231.43 h 22.31 v -17.6 h -22.31 z"
         id="path1250"
         inkscape:connector-curvature="0" />
    </clipPath>
    <clipPath
       clipPathUnits="userSpaceOnUse"
       id="clipPath1280">
      <path
         d="m 2419.57,3263.23 h 158.01 v -82.13 h -158.01 z"
         id="path1278"
         inkscape:connector-curvature="0" />
    </clipPath>
    <clipPath
       clipPathUnits="userSpaceOnUse"
       id="clipPath1300">
      <path
         d="m 2526.61,3269.04 h 4.28 v -7.82 h -4.28 z"
         id="path1298"
         inkscape:connector-curvature="0" />
    </clipPath>
    <clipPath
       clipPathUnits="userSpaceOnUse"
       id="clipPath1400">
      <path
         d="m 2482.43,3253.79 h 83.72 v -49.2 h -83.72 z"
         id="path1398"
         inkscape:connector-curvature="0" />
    </clipPath>
    <clipPath
       clipPathUnits="userSpaceOnUse"
       id="clipPath1416">
      <path
         d="m 2423,3257.2 h 97.84 v -69.67 H 2423 Z"
         id="path1414"
         inkscape:connector-curvature="0" />
    </clipPath>
    <clipPath
       clipPathUnits="userSpaceOnUse"
       id="clipPath1432">
      <path
         d="m 2432.04,3283.95 h 141.05 v -93.24 h -141.05 z"
         id="path1430"
         inkscape:connector-curvature="0" />
    </clipPath>
    <clipPath
       clipPathUnits="userSpaceOnUse"
       id="clipPath1460">
      <path
         d="m 2568.33,3223.82 h 4.76 v -11.13 h -4.76 z"
         id="path1458"
         inkscape:connector-curvature="0" />
    </clipPath>
    <clipPath
       clipPathUnits="userSpaceOnUse"
       id="clipPath1488">
      <path
         d="m 2566.17,3235.24 h 4.5 v -6.52 h -4.5 z"
         id="path1486"
         inkscape:connector-curvature="0" />
    </clipPath>
    <clipPath
       clipPathUnits="userSpaceOnUse"
       id="clipPath1556">
      <path
         d="m 2507.78,3227.36 h 20.83 v -6.02 h -20.83 z"
         id="path1554"
         inkscape:connector-curvature="0" />
    </clipPath>
    <clipPath
       clipPathUnits="userSpaceOnUse"
       id="clipPath1576">
      <path
         d="m 2546.07,3247.24 h 10.1 v -10.8 h -10.1 z"
         id="path1574"
         inkscape:connector-curvature="0" />
    </clipPath>
    <clipPath
       clipPathUnits="userSpaceOnUse"
       id="clipPath1604">
      <path
         d="m 2428.93,3263.96 h 11.87 v -10.86 h -11.87 z"
         id="path1602"
         inkscape:connector-curvature="0" />
    </clipPath>
    <clipPath
       clipPathUnits="userSpaceOnUse"
       id="clipPath1636">
      <path
         d="m 2521.04,3197.55 h 16.61 v -7.84 h -16.61 z"
         id="path1634"
         inkscape:connector-curvature="0" />
    </clipPath>
    <clipPath
       clipPathUnits="userSpaceOnUse"
       id="clipPath1664">
      <path
         d="m 2459.87,3238.17 h 8.56 v -3.12 h -8.56 z"
         id="path1662"
         inkscape:connector-curvature="0" />
    </clipPath>
    <clipPath
       clipPathUnits="userSpaceOnUse"
       id="clipPath1712">
      <path
         d="m 2476.6,3269.18 h 53.16 v -34.71 h -53.16 z"
         id="path1710"
         inkscape:connector-curvature="0" />
    </clipPath>
    <clipPath
       clipPathUnits="userSpaceOnUse"
       id="clipPath1740">
      <path
         d="m 2477.14,3271.22 h 58.05 v -40.05 h -58.05 z"
         id="path1738"
         inkscape:connector-curvature="0" />
    </clipPath>
    <clipPath
       clipPathUnits="userSpaceOnUse"
       id="clipPath3256-1">
      <path
         d="M 1871.12,3284.99 H 2041.3 V 3181.1 h -170.18 z"
         id="path3254-5"
         inkscape:connector-curvature="0" />
    </clipPath>
    <clipPath
       clipPathUnits="userSpaceOnUse"
       id="clipPath3364-0">
      <path
         d="m 1903.91,3253.78 h 46.12 v -36.96 h -46.12 z"
         id="path3362-3"
         inkscape:connector-curvature="0" />
    </clipPath>
    <clipPath
       clipPathUnits="userSpaceOnUse"
       id="clipPath3400-4">
      <path
         d="M 1876.66,3270.04 H 1907 v -34.85 h -30.34 z"
         id="path3398-7"
         inkscape:connector-curvature="0" />
    </clipPath>
    <clipPath
       clipPathUnits="userSpaceOnUse"
       id="clipPath3456-4">
      <path
         d="m 1978.52,3227.8 h 19.07 v -5.47 h -19.07 z"
         id="path3454-4"
         inkscape:connector-curvature="0" />
    </clipPath>
    <clipPath
       clipPathUnits="userSpaceOnUse"
       id="clipPath3472-7">
      <path
         d="m 2019.5,3255.73 h 18.56 v -5.92 h -18.56 z"
         id="path3470-2"
         inkscape:connector-curvature="0" />
    </clipPath>
    <clipPath
       clipPathUnits="userSpaceOnUse"
       id="clipPath3548-8">
      <path
         d="m 1965.85,3279.43 h 36.68 v -40.81 h -36.68 z"
         id="path3546-9"
         inkscape:connector-curvature="0" />
    </clipPath>
    <clipPath
       clipPathUnits="userSpaceOnUse"
       id="clipPath3572-1">
      <path
         d="m 1934.03,3265.36 h 35.96 v -20.11 h -35.96 z"
         id="path3570-2"
         inkscape:connector-curvature="0" />
    </clipPath>
    <clipPath
       clipPathUnits="userSpaceOnUse"
       id="clipPath3588-6">
      <path
         d="m 1968.3,3281.89 h 18.96 v -15.71 h -18.96 z"
         id="path3586-4"
         inkscape:connector-curvature="0" />
    </clipPath>
    <clipPath
       clipPathUnits="userSpaceOnUse"
       id="clipPath3616-7">
      <path
         d="m 1883.1,3257.87 h 13.66 v -17.73 h -13.66 z"
         id="path3614-7"
         inkscape:connector-curvature="0" />
    </clipPath>
    <clipPath
       clipPathUnits="userSpaceOnUse"
       id="clipPath3648-7">
      <path
         d="m 1962.79,3215.09 h 13.66 v -17.73 h -13.66 z"
         id="path3646-5"
         inkscape:connector-curvature="0" />
    </clipPath>
    <clipPath
       clipPathUnits="userSpaceOnUse"
       id="clipPath216-1">
      <path
         d="M 1347.02,3255.05 H 1482.6 V 3181.1 H 1347.02 Z"
         id="path214-7"
         inkscape:connector-curvature="0" />
    </clipPath>
    <clipPath
       clipPathUnits="userSpaceOnUse"
       id="clipPath368-2">
      <path
         d="m 1426.42,3253.06 h 52.99 v -34.62 h -52.99 z"
         id="path366-5"
         inkscape:connector-curvature="0" />
    </clipPath>
    <clipPath
       clipPathUnits="userSpaceOnUse"
       id="clipPath384-7">
      <path
         d="m 1418.31,3227.91 h 22.89 v -12.26 h -22.89 z"
         id="path382-7"
         inkscape:connector-curvature="0" />
    </clipPath>
    <clipPath
       clipPathUnits="userSpaceOnUse"
       id="clipPath408-3">
      <path
         d="m 1346.43,3269.04 h 2.26 v -7.33 h -2.26 z"
         id="path406-5"
         inkscape:connector-curvature="0" />
    </clipPath>
    <clipPath
       clipPathUnits="userSpaceOnUse"
       id="clipPath620-8">
      <path
         d="m 1356.73,3303.72 h 90.88 v -45.36 h -90.88 z"
         id="path618-6"
         inkscape:connector-curvature="0" />
    </clipPath>
    <clipPath
       clipPathUnits="userSpaceOnUse"
       id="clipPath636-8">
      <path
         d="m 1522.66,3261.56 h 147.27 v -80.46 h -147.27 z"
         id="path634-1"
         inkscape:connector-curvature="0" />
    </clipPath>
    <clipPath
       clipPathUnits="userSpaceOnUse"
       id="clipPath820-4">
      <path
         d="M 1557.54,3229.73 Z"
         id="path818-8"
         inkscape:connector-curvature="0" />
    </clipPath>
    <clipPath
       clipPathUnits="userSpaceOnUse"
       id="clipPath852-6">
      <path
         d="m 1566.63,3300.03 h 94.05 v -50.97 h -94.05 z"
         id="path850-2"
         inkscape:connector-curvature="0" />
    </clipPath>
    <clipPath
       clipPathUnits="userSpaceOnUse"
       id="clipPath896-6">
      <path
         d="m 1626.43,3225.22 h 4.82 v -15.59 h -4.82 z"
         id="path894-3"
         inkscape:connector-curvature="0" />
    </clipPath>
    <clipPath
       clipPathUnits="userSpaceOnUse"
       id="clipPath916-1">
      <path
         d="m 1668.97,3248.32 h 4.16 v -14.83 h -4.16 z"
         id="path914-5"
         inkscape:connector-curvature="0" />
    </clipPath>
    <clipPath
       clipPathUnits="userSpaceOnUse"
       id="clipPath932-9">
      <path
         d="m 1623.86,3209.27 h 5.41 v -13.89 h -5.41 z"
         id="path930-1"
         inkscape:connector-curvature="0" />
    </clipPath>
    <clipPath
       clipPathUnits="userSpaceOnUse"
       id="clipPath984-1">
      <path
         d="M 2241.54,3263.38 H 2392.1 V 3181.1 H 2241.54 Z"
         id="path982-3"
         inkscape:connector-curvature="0" />
    </clipPath>
    <clipPath
       clipPathUnits="userSpaceOnUse"
       id="clipPath1068-6">
      <path
         d="m 2250.46,3246.87 h 10.19 v -13.23 h -10.19 z"
         id="path1066-3"
         inkscape:connector-curvature="0" />
    </clipPath>
    <clipPath
       clipPathUnits="userSpaceOnUse"
       id="clipPath1096-5">
      <path
         d="m 2325.12,3205.39 h 10.19 v -13.23 h -10.19 z"
         id="path1094-5"
         inkscape:connector-curvature="0" />
    </clipPath>
    <clipPath
       clipPathUnits="userSpaceOnUse"
       id="clipPath1116-3">
      <path
         d="m 2341.56,3247.6 h 48.81 v -37.16 h -48.81 z"
         id="path1114-3"
         inkscape:connector-curvature="0" />
    </clipPath>
    <clipPath
       clipPathUnits="userSpaceOnUse"
       id="clipPath1152-6">
      <path
         d="m 2261.03,3256.13 h 5.5 v -8.41 h -5.5 z"
         id="path1150-7"
         inkscape:connector-curvature="0" />
    </clipPath>
    <clipPath
       clipPathUnits="userSpaceOnUse"
       id="clipPath1172-3">
      <path
         d="m 2346.72,3241.54 h 46.4 v -33.45 h -46.4 z"
         id="path1170-5"
         inkscape:connector-curvature="0" />
    </clipPath>
    <clipPath
       clipPathUnits="userSpaceOnUse"
       id="clipPath1192-9">
      <path
         d="m 2266.76,3261.85 h 43.66 v -45.63 h -43.66 z"
         id="path1190-0"
         inkscape:connector-curvature="0" />
    </clipPath>
    <clipPath
       clipPathUnits="userSpaceOnUse"
       id="clipPath1216-4">
      <path
         d="m 2243.45,3285.5 h 63.5 v -24.87 h -63.5 z"
         id="path1214-4"
         inkscape:connector-curvature="0" />
    </clipPath>
    <clipPath
       clipPathUnits="userSpaceOnUse"
       id="clipPath1236-1">
      <path
         d="m 2297.91,3280.49 h 66.9 v -34.76 h -66.9 z"
         id="path1234-3"
         inkscape:connector-curvature="0" />
    </clipPath>
    <clipPath
       clipPathUnits="userSpaceOnUse"
       id="clipPath1252-6">
      <path
         d="m 2364.67,3231.43 h 22.31 v -17.6 h -22.31 z"
         id="path1250-0"
         inkscape:connector-curvature="0" />
    </clipPath>
    <clipPath
       clipPathUnits="userSpaceOnUse"
       id="clipPath1280-4">
      <path
         d="m 2419.57,3263.23 h 158.01 v -82.13 h -158.01 z"
         id="path1278-3"
         inkscape:connector-curvature="0" />
    </clipPath>
    <clipPath
       clipPathUnits="userSpaceOnUse"
       id="clipPath1300-6">
      <path
         d="m 2526.61,3269.04 h 4.28 v -7.82 h -4.28 z"
         id="path1298-9"
         inkscape:connector-curvature="0" />
    </clipPath>
    <clipPath
       clipPathUnits="userSpaceOnUse"
       id="clipPath1400-1">
      <path
         d="m 2482.43,3253.79 h 83.72 v -49.2 h -83.72 z"
         id="path1398-6"
         inkscape:connector-curvature="0" />
    </clipPath>
    <clipPath
       clipPathUnits="userSpaceOnUse"
       id="clipPath1416-4">
      <path
         d="m 2423,3257.2 h 97.84 v -69.67 H 2423 Z"
         id="path1414-7"
         inkscape:connector-curvature="0" />
    </clipPath>
    <clipPath
       clipPathUnits="userSpaceOnUse"
       id="clipPath1432-8">
      <path
         d="m 2432.04,3283.95 h 141.05 v -93.24 h -141.05 z"
         id="path1430-8"
         inkscape:connector-curvature="0" />
    </clipPath>
    <clipPath
       clipPathUnits="userSpaceOnUse"
       id="clipPath1460-6">
      <path
         d="m 2568.33,3223.82 h 4.76 v -11.13 h -4.76 z"
         id="path1458-5"
         inkscape:connector-curvature="0" />
    </clipPath>
    <clipPath
       clipPathUnits="userSpaceOnUse"
       id="clipPath1488-6">
      <path
         d="m 2566.17,3235.24 h 4.5 v -6.52 h -4.5 z"
         id="path1486-9"
         inkscape:connector-curvature="0" />
    </clipPath>
    <clipPath
       clipPathUnits="userSpaceOnUse"
       id="clipPath1556-5">
      <path
         d="m 2507.78,3227.36 h 20.83 v -6.02 h -20.83 z"
         id="path1554-0"
         inkscape:connector-curvature="0" />
    </clipPath>
    <clipPath
       clipPathUnits="userSpaceOnUse"
       id="clipPath1576-2">
      <path
         d="m 2546.07,3247.24 h 10.1 v -10.8 h -10.1 z"
         id="path1574-2"
         inkscape:connector-curvature="0" />
    </clipPath>
    <clipPath
       clipPathUnits="userSpaceOnUse"
       id="clipPath1604-4">
      <path
         d="m 2428.93,3263.96 h 11.87 v -10.86 h -11.87 z"
         id="path1602-2"
         inkscape:connector-curvature="0" />
    </clipPath>
    <clipPath
       clipPathUnits="userSpaceOnUse"
       id="clipPath1636-0">
      <path
         d="m 2521.04,3197.55 h 16.61 v -7.84 h -16.61 z"
         id="path1634-7"
         inkscape:connector-curvature="0" />
    </clipPath>
    <clipPath
       clipPathUnits="userSpaceOnUse"
       id="clipPath1664-3">
      <path
         d="m 2459.87,3238.17 h 8.56 v -3.12 h -8.56 z"
         id="path1662-9"
         inkscape:connector-curvature="0" />
    </clipPath>
    <clipPath
       clipPathUnits="userSpaceOnUse"
       id="clipPath1712-4">
      <path
         d="m 2476.6,3269.18 h 53.16 v -34.71 h -53.16 z"
         id="path1710-8"
         inkscape:connector-curvature="0" />
    </clipPath>
    <clipPath
       clipPathUnits="userSpaceOnUse"
       id="clipPath1740-0">
      <path
         d="m 2477.14,3271.22 h 58.05 v -40.05 h -58.05 z"
         id="path1738-1"
         inkscape:connector-curvature="0" />
    </clipPath>
    <clipPath
       clipPathUnits="userSpaceOnUse"
       id="clipPath1780">
      <path
         d="m 2603.15,3262.77 h 151.54 v -81.67 h -151.54 z"
         id="path1778"
         inkscape:connector-curvature="0" />
    </clipPath>
    <clipPath
       clipPathUnits="userSpaceOnUse"
       id="clipPath1920">
      <path
         d="m 2691.61,3236.74 h 61.6 v -37.99 h -61.6 z"
         id="path1918"
         inkscape:connector-curvature="0" />
    </clipPath>
    <clipPath
       clipPathUnits="userSpaceOnUse"
       id="clipPath2024">
      <path
         d="m 2631.44,3277.78 h 62.76 v -25.34 h -62.76 z"
         id="path2022"
         inkscape:connector-curvature="0" />
    </clipPath>
    <clipPath
       clipPathUnits="userSpaceOnUse"
       id="clipPath2040">
      <path
         d="m 2606.11,3260.62 h 91.56 v -50.17 h -91.56 z"
         id="path2038"
         inkscape:connector-curvature="0" />
    </clipPath>
    <clipPath
       clipPathUnits="userSpaceOnUse"
       id="clipPath2060">
      <path
         d="m 2682.36,3265.43 h 16.79 v -26.92 h -16.79 z"
         id="path2058"
         inkscape:connector-curvature="0" />
    </clipPath>
    <clipPath
       clipPathUnits="userSpaceOnUse"
       id="clipPath2088">
      <path
         d="m 2694.89,3237.28 h 8.07 v -6.36 h -8.07 z"
         id="path2086"
         inkscape:connector-curvature="0" />
    </clipPath>
    <clipPath
       clipPathUnits="userSpaceOnUse"
       id="clipPath2108">
      <path
         d="m 2709.28,3245.13 h 8.07 v -6.36 h -8.07 z"
         id="path2106"
         inkscape:connector-curvature="0" />
    </clipPath>
    <clipPath
       clipPathUnits="userSpaceOnUse"
       id="clipPath2144">
      <path
         d="m 2677.11,3239.95 h 6.03 v -4.89 h -6.03 z"
         id="path2142"
         inkscape:connector-curvature="0" />
    </clipPath>
    <clipPath
       clipPathUnits="userSpaceOnUse"
       id="clipPath2172">
      <path
         d="m 2668.85,3249.27 h 11.82 v -15.88 h -11.82 z"
         id="path2170"
         inkscape:connector-curvature="0" />
    </clipPath>
    <clipPath
       clipPathUnits="userSpaceOnUse"
       id="clipPath2196">
      <path
         d="m 2629.11,3251.48 h 4.51 v -26.61 h -4.51 z"
         id="path2194"
         inkscape:connector-curvature="0" />
    </clipPath>
    <clipPath
       clipPathUnits="userSpaceOnUse"
       id="clipPath2212">
      <path
         d="m 2631.44,3277.78 h 62.76 v -25.34 h -62.76 z"
         id="path2210"
         inkscape:connector-curvature="0" />
    </clipPath>
    <clipPath
       clipPathUnits="userSpaceOnUse"
       id="clipPath2228">
      <path
         d="m 2635.81,3272.11 h 39.68 v -12.17 h -39.68 z"
         id="path2226"
         inkscape:connector-curvature="0" />
    </clipPath>
    <clipPath
       clipPathUnits="userSpaceOnUse"
       id="clipPath2252">
      <path
         d="m 2612.45,3277.53 h 83.08 v -27.75 h -83.08 z"
         id="path2250"
         inkscape:connector-curvature="0" />
    </clipPath>
    <clipPath
       clipPathUnits="userSpaceOnUse"
       id="clipPath2284">
      <path
         d="m 2407.43,3163.05 h 187.69 v -102.93 h -187.69 z"
         id="path2282"
         inkscape:connector-curvature="0" />
    </clipPath>
    <clipPath
       clipPathUnits="userSpaceOnUse"
       id="clipPath2304">
      <path
         d="m 2555.19,3134.74 h 3.45 v -6.38 h -3.45 z"
         id="path2302"
         inkscape:connector-curvature="0" />
    </clipPath>
    <clipPath
       clipPathUnits="userSpaceOnUse"
       id="clipPath2404">
      <path
         d="m 2518.5,3121.17 h 67.41 v -40.15 h -67.41 z"
         id="path2402"
         inkscape:connector-curvature="0" />
    </clipPath>
    <clipPath
       clipPathUnits="userSpaceOnUse"
       id="clipPath2420">
      <path
         d="M 2434.93,3175.17 H 2591.5 V 3069.7 h -156.57 z"
         id="path2418"
         inkscape:connector-curvature="0" />
    </clipPath>
    <clipPath
       clipPathUnits="userSpaceOnUse"
       id="clipPath2436">
      <path
         d="m 2587.66,3096.71 h 3.84 v -9.08 h -3.84 z"
         id="path2434"
         inkscape:connector-curvature="0" />
    </clipPath>
    <clipPath
       clipPathUnits="userSpaceOnUse"
       id="clipPath2508">
      <path
         d="m 2538.91,3099.6 h 16.77 v -4.91 h -16.77 z"
         id="path2506"
         inkscape:connector-curvature="0" />
    </clipPath>
    <clipPath
       clipPathUnits="userSpaceOnUse"
       id="clipPath2528">
      <path
         d="m 2569.74,3115.82 h 8.13 v -8.81 h -8.13 z"
         id="path2526"
         inkscape:connector-curvature="0" />
    </clipPath>
    <clipPath
       clipPathUnits="userSpaceOnUse"
       id="clipPath2556">
      <path
         d="m 2412,3160.74 h 0.05 v -0.04 H 2412 Z"
         id="path2554"
         inkscape:connector-curvature="0" />
    </clipPath>
    <clipPath
       clipPathUnits="userSpaceOnUse"
       id="clipPath2572">
      <path
         d="m 2412.05,3160.9 h 146.94 v -82.93 h -146.94 z"
         id="path2570"
         inkscape:connector-curvature="0" />
    </clipPath>
    <clipPath
       clipPathUnits="userSpaceOnUse"
       id="clipPath2588">
      <path
         d="m 2549.59,3075.28 h 13.37 v -6.41 h -13.37 z"
         id="path2586"
         inkscape:connector-curvature="0" />
    </clipPath>
    <clipPath
       clipPathUnits="userSpaceOnUse"
       id="clipPath2636">
      <path
         d="m 2420.84,3179.04 h 45.23 v -23.71 h -45.23 z"
         id="path2634"
         inkscape:connector-curvature="0" />
    </clipPath>
    <clipPath
       clipPathUnits="userSpaceOnUse"
       id="clipPath2672">
      <path
         d="m 2506.04,3106.62 h 6.88 v -2.55 h -6.88 z"
         id="path2670"
         inkscape:connector-curvature="0" />
    </clipPath>
    <clipPath
       clipPathUnits="userSpaceOnUse"
       id="clipPath2688">
      <path
         d="m 2426.05,3147.51 h 101.09 v -64.47 h -101.09 z"
         id="path2686"
         inkscape:connector-curvature="0" />
    </clipPath>
  </defs>
  <sodipodi:namedview
     id="base"
     pagecolor="#ffffff"
     bordercolor="#666666"
     borderopacity="1.0"
     inkscape:pageopacity="0.0"
     inkscape:pageshadow="2"
     inkscape:zoom="0.35"
     inkscape:cx="-455.86243"
     inkscape:cy="17.204819"
     inkscape:document-units="mm"
     inkscape:current-layer="layer1"
     showgrid="false"
     inkscape:window-width="1360"
     inkscape:window-height="706"
     inkscape:window-x="-8"
     inkscape:window-y="-8"
     inkscape:window-maximized="1"
     fit-margin-top="0"
     fit-margin-left="0"
     fit-margin-right="0"
     fit-margin-bottom="0" />
  <metadata
     id="metadata300752">
    <rdf:RDF>
      <cc:Work
         rdf:about="">
        <dc:format>image/svg+xml</dc:format>
        <dc:type
           rdf:resource="http://purl.org/dc/dcmitype/StillImage" />
        <dc:title></dc:title>
      </cc:Work>
    </rdf:RDF>
  </metadata>
  <g
     inkscape:label="Layer 1"
     inkscape:groupmode="layer"
     id="layer1"
     transform="translate(85.761394,-144.28138)">
    <g
       id="g197611"
       transform="matrix(0.08819444,0,0,-0.07584722,-298.08355,385.48703)">
      <g
         id="g2278">
        <g
           id="g2280" />
        <g
           id="g2292">
          <g
             style="opacity:0.33999604"
             id="g2290"
             clip-path="url(#clipPath2284)">
            <g
               id="g2288"
               transform="translate(2588.3535,3090.7729)">
              <path
                 inkscape:connector-curvature="0"
                 id="path2286"
                 style="fill:#000000;fill-opacity:1;fill-rule:nonzero;stroke:none"
                 d="m 0,0 c 0,0 10.773,-5.944 5.122,-10.485 -3.388,-2.719 -14.96,-9.969 -29.167,-16.526 -13.616,-6.286 -25.412,-3.762 -36.932,2.398 -11.517,6.159 -109.963,64.035 -113.486,66.142 -3.517,2.107 -10.396,8.324 -3.517,12.213 6.878,3.891 36.209,18.536 42.608,18.536 C -128.973,72.278 0,0 0,0" />
            </g>
          </g>
        </g>
      </g>
      <g
         transform="translate(2554.2793,3129.3008)"
         id="g2294">
        <path
           inkscape:connector-curvature="0"
           id="path2296"
           style="fill:#fcfcfc;fill-opacity:1;fill-rule:nonzero;stroke:none"
           d="M 0,0 C 0,0 -0.108,1.945 0,3.295 0.104,4.647 0.854,5.133 1.335,5.351 1.813,5.569 2.987,5.458 3.732,4.54 4.48,3.62 4.587,2.864 3.895,1.89 3.199,0.917 1.015,-1.943 1.015,-1.943 Z" />
      </g>
      <g
         id="g2298">
        <g
           id="g2300" />
        <g
           id="g2312">
          <g
             style="opacity:0.28999299"
             id="g2310"
             clip-path="url(#clipPath2304)">
            <g
               id="g2308"
               transform="translate(2555.5596,3134.4341)">
              <path
                 inkscape:connector-curvature="0"
                 id="path2306"
                 style="fill:#d6d6d6;fill-opacity:1;fill-rule:nonzero;stroke:none"
                 d="M 0,0 C 0.104,0.068 0.243,0.178 0.408,0.301 0.976,0.358 1.851,0.144 2.452,-0.593 3.2,-1.514 3.307,-2.269 2.614,-3.244 2.184,-3.841 1.196,-5.152 0.495,-6.075 c -0.076,0.44 -0.176,1.124 -0.176,1.753 0,1.027 -0.426,2.324 -0.536,2.7 C -0.321,-1.242 -0.587,-0.376 0,0" />
            </g>
          </g>
        </g>
      </g>
      <g
         transform="translate(2544.3242,3077.4897)"
         id="g2314">
        <path
           inkscape:connector-curvature="0"
           id="path2316"
           style="fill:#10212d;fill-opacity:1;fill-rule:nonzero;stroke:none"
           d="m 0,0 c -0.698,2.951 -1.759,4.396 -4.67,8.515 -3.667,5.183 -14.258,8.882 -17.184,7.381 -2.816,-1.444 -2.751,-10.215 -2.751,-10.215 0,0 0.452,-3.819 4.059,-3.411 0.311,0.035 0.052,2.526 2.332,2.182 2.669,-0.407 12.23,-5.684 17.56,-8.049 C -0.768,-2.703 0.252,-1.079 0,0" />
      </g>
      <g
         transform="translate(2532.4297,3090.9521)"
         id="g2318">
        <path
           inkscape:connector-curvature="0"
           id="path2320"
           style="fill:#394b5b;fill-opacity:1;fill-rule:nonzero;stroke:none"
           d="m 0,0 c 0,0 -5.627,-2.125 -7.208,-3.807 -2.39,-2.547 -2.737,-6.339 -1.261,-10.591 1.484,-4.253 4.296,-7.373 6.905,-9.044 2.608,-1.67 4.612,-1.626 5.916,-1.312 5.983,1.45 10.466,7.821 10.466,7.821 0,0 -2.968,4.256 -8.769,10.999 C 3.449,-2.906 0,0 0,0" />
      </g>
      <g
         transform="translate(2531.543,3083.6826)"
         id="g2322">
        <path
           inkscape:connector-curvature="0"
           id="path2324"
           style="fill:#747a8c;fill-opacity:1;fill-rule:nonzero;stroke:none"
           d="m 0,0 c 2.497,-1.893 4.568,-6.891 4.861,-9.307 0.287,-2.414 -0.493,-4.038 -2.235,-4.752 -1.739,-0.711 -5.361,0.868 -7.442,4.171 -2.08,3.304 -2.436,6.661 -2.103,8.233 C -6.484,0.41 -4.896,3.712 0,0" />
      </g>
      <g
         transform="translate(2526.5342,3075.4023)"
         id="g2326">
        <path
           inkscape:connector-curvature="0"
           id="path2328"
           style="fill:#9aa8b7;fill-opacity:1;fill-rule:nonzero;stroke:none"
           d="m 0,0 c -0.799,1.576 -1.339,3.285 -1.427,5.044 -0.02,0.439 -0.016,0.881 0.047,1.325 0.064,0.452 0.185,0.871 0.348,1.288 0.166,0.417 0.379,0.82 0.659,1.183 C -0.098,9.205 0.269,9.523 0.7,9.73 0.93,9.839 1.177,9.908 1.427,9.948 1.658,9.931 1.905,9.888 2.169,9.817 2.14,9.817 2.115,9.821 2.084,9.821 1.64,9.828 1.192,9.733 0.816,9.526 0.05,9.108 -0.416,8.337 -0.7,7.548 -0.836,7.151 -0.955,6.729 -1.013,6.324 -1.07,5.909 -1.073,5.486 -1.049,5.063 -0.939,3.365 -0.448,1.689 0.315,0.139 0.704,-0.631 1.14,-1.385 1.681,-2.072 2.222,-2.754 2.847,-3.384 3.558,-3.919 4.271,-4.445 5.059,-4.906 5.92,-5.185 6.347,-5.323 6.798,-5.423 7.248,-5.448 7.702,-5.473 8.152,-5.404 8.552,-5.201 8.599,-5.18 8.644,-5.155 8.69,-5.133 8.564,-5.242 8.435,-5.342 8.288,-5.435 7.953,-5.538 7.591,-5.57 7.243,-5.555 6.775,-5.533 6.318,-5.439 5.878,-5.299 4.998,-5.016 4.18,-4.59 3.435,-4.068 2.689,-3.546 2.016,-2.932 1.445,-2.239 0.873,-1.545 0.405,-0.783 0,0" />
      </g>
      <g
         transform="translate(2536.3691,3074.584)"
         id="g2330">
        <path
           inkscape:connector-curvature="0"
           id="path2332"
           style="fill:#747a8c;fill-opacity:1;fill-rule:nonzero;stroke:none"
           d="m 0,0 c -0.375,2.48 -2.399,7.257 -4.826,9.099 -0.379,0.286 -0.733,0.526 -1.07,0.732 -0.514,0.199 -1.417,0.322 -1.862,0.192 -2.852,-0.842 -3.115,-4.749 -1.559,-8.265 1.508,-3.401 4.801,-5.875 7.171,-5.101 C -0.945,-2.942 0.162,-1.643 0,0" />
      </g>
      <g
         transform="translate(2531.543,3083.6826)"
         id="g2334">
        <path
           inkscape:connector-curvature="0"
           id="path2336"
           style="fill:#10212d;fill-opacity:1;fill-rule:nonzero;stroke:none"
           d="m 0,0 c 0.042,-0.034 0.089,-0.076 0.133,-0.114 -0.018,-0.572 -0.081,-1.541 -0.274,-2.86 -0.326,-2.244 -0.98,-1.184 -0.98,-1.184 0,0 -0.375,1.844 -0.656,3.733 C -1.891,0.343 -1.881,0.73 -1.828,0.922 -1.553,0.878 -1.281,0.813 -1.07,0.732 -0.732,0.526 -0.379,0.286 0,0" />
      </g>
      <g
         transform="translate(2526.1729,3081.4351)"
         id="g2338">
        <path
           inkscape:connector-curvature="0"
           id="path2340"
           style="fill:#10212d;fill-opacity:1;fill-rule:nonzero;stroke:none"
           d="M 0,0 C 0.206,1.451 1.083,2.617 1.973,3.01 2.253,1.822 3.141,-1.122 3.778,-2.224 4.937,-4.208 3.313,-2.75 3.313,-2.75 c 0,0 -1.216,0.66 -2.292,1.672 C 0.669,-0.748 0.297,-0.338 0,0" />
      </g>
      <g
         transform="translate(2526.1436,3079.7402)"
         id="g2342">
        <path
           inkscape:connector-curvature="0"
           id="path2344"
           style="fill:#10212d;fill-opacity:1;fill-rule:nonzero;stroke:none"
           d="m 0,0 c 1.099,-0.687 2.669,-1.569 4.059,-2 2.285,-0.711 0.126,-0.243 0.126,-0.243 0,0 -1.363,-0.468 -2.852,-0.327 -0.248,0.027 -0.52,0.06 -0.784,0.097 C 0.261,-1.638 0.073,-0.798 0,0" />
      </g>
      <g
         transform="translate(2527.2871,3075.8535)"
         id="g2346">
        <path
           inkscape:connector-curvature="0"
           id="path2348"
           style="fill:#10212d;fill-opacity:1;fill-rule:nonzero;stroke:none"
           d="M 0,0 C 1.679,0.421 2.8,0.709 2.946,0.789 3.244,0.941 2.963,0.37 2.963,0.37 c 0,0 -0.837,-1.16 -1.847,-2.129 C 0.697,-1.22 0.32,-0.63 0,0" />
      </g>
      <g
         transform="translate(2529.1738,3073.2329)"
         id="g2350">
        <path
           inkscape:connector-curvature="0"
           id="path2352"
           style="fill:#10212d;fill-opacity:1;fill-rule:nonzero;stroke:none"
           d="m 0,0 c 0.655,1.1 1.381,2.673 1.449,2.814 0.374,0.792 0.469,-0.043 0.469,-0.043 0,0 0.047,-1.891 0.516,-4.617 C 1.263,-1.362 0.605,-0.648 0,0" />
      </g>
      <g
         transform="translate(2531.3711,3076.0044)"
         id="g2354">
        <path
           inkscape:connector-curvature="0"
           id="path2356"
           style="fill:#10212d;fill-opacity:1;fill-rule:nonzero;stroke:none"
           d="m 0,0 c -0.066,0.646 0.279,0 0.279,0 0,0 3.769,-3.838 3.852,-3.932 C 3.762,-4.32 3.315,-4.61 2.853,-4.764 2.435,-4.9 1.984,-4.931 1.523,-4.879 0.545,-2.613 0.021,-0.198 0,0" />
      </g>
      <g
         transform="translate(2531.6074,3076.7505)"
         id="g2358">
        <path
           inkscape:connector-curvature="0"
           id="path2360"
           style="fill:#10212d;fill-opacity:1;fill-rule:nonzero;stroke:none"
           d="M 0,0 C 0,0 3.084,-0.704 4.487,-0.923 4.648,-1.47 4.696,-1.734 4.762,-2.167 4.794,-2.483 4.776,-2.784 4.724,-3.071 2.369,-1.91 0.783,-0.707 0.586,-0.627 -1.489,0.225 0,0 0,0" />
      </g>
      <g
         transform="translate(2535.6191,3077.2891)"
         id="g2362">
        <path
           inkscape:connector-curvature="0"
           id="path2364"
           style="fill:#10212d;fill-opacity:1;fill-rule:nonzero;stroke:none"
           d="m 0,0 c -1.966,-0.035 -3.367,0.126 -3.543,0.101 -2.242,-0.295 -0.937,0.24 -0.937,0.24 0,0 1.869,0.704 3.759,1.377 C -0.449,1.141 -0.207,0.563 0,0" />
      </g>
      <g
         transform="translate(2530.7734,3078.4868)"
         id="g2366">
        <path
           inkscape:connector-curvature="0"
           id="path2368"
           style="fill:#10212d;fill-opacity:1;fill-rule:nonzero;stroke:none"
           d="M 0,0 C 0,0 1.604,2.062 2.493,3.349 2.854,2.844 3.09,2.532 3.4,1.959 2.375,1.124 0.87,0.119 0.74,0.023 -1.057,-1.277 0,0 0,0" />
      </g>
      <g
         transform="translate(2531.2324,3075.668)"
         id="g2370">
        <path
           inkscape:connector-curvature="0"
           id="path2372"
           style="fill:#747a8c;fill-opacity:1;fill-rule:nonzero;stroke:none"
           d="m 0,0 c -0.729,0 -1.487,0.663 -1.847,1.611 -0.424,1.139 -0.126,2.238 0.685,2.505 0.11,0.039 0.227,0.056 0.351,0.056 0.731,0 1.487,-0.662 1.843,-1.607 C 1.46,1.425 1.158,0.326 0.353,0.055 0.238,0.021 0.122,0 0,0" />
      </g>
      <g
         transform="translate(2428.7285,3134.9731)"
         id="g2374">
        <path
           inkscape:connector-curvature="0"
           id="path2376"
           style="fill:#10212d;fill-opacity:1;fill-rule:nonzero;stroke:none"
           d="m 0,0 c -0.652,2.985 3.447,8.396 0.718,12.558 -3.435,5.233 -12.258,6.437 -15.001,4.919 -2.641,-1.458 -0.822,-7.758 -0.822,-7.758 0,0 0.221,0.518 1.015,0.648 0.282,0.048 1.212,-0.259 1.212,-0.259 C -10.77,8.586 -4.588,-0.364 0.409,-2.752 0.304,-1.851 0.236,-1.088 0,0" />
      </g>
      <g
         transform="translate(2422.7344,3151.9653)"
         id="g2378">
        <path
           inkscape:connector-curvature="0"
           id="path2380"
           style="fill:#394b5b;fill-opacity:1;fill-rule:nonzero;stroke:none"
           d="m 0,0 c 0,0 -5.538,-2.264 -6.886,-3.813 -2.05,-2.346 -2.344,-5.845 -1.079,-9.762 1.266,-3.922 3.674,-6.797 5.904,-8.337 2.229,-1.541 3.957,-1.538 5.056,-1.209 8.078,2.411 6.891,5.628 6.891,5.628 0,0 -1.294,6.338 -6.256,12.552 C 1.408,-2.149 0,0 0,0" />
      </g>
      <g
         transform="translate(2421.252,3144.9595)"
         id="g2382">
        <path
           inkscape:connector-curvature="0"
           id="path2384"
           style="fill:#747a8c;fill-opacity:1;fill-rule:nonzero;stroke:none"
           d="m 0,0 c 2.136,-1.747 3.905,-6.353 4.152,-8.579 0.25,-2.222 -0.417,-3.722 -1.905,-4.379 -1.493,-0.656 -4.588,0.799 -6.364,3.845 -1.779,3.044 -2.086,6.137 -1.802,7.587 C -5.549,0.377 -4.187,3.422 0,0" />
      </g>
      <g
         transform="translate(2416.9688,3137.3281)"
         id="g2386">
        <path
           inkscape:connector-curvature="0"
           id="path2388"
           style="fill:#9aa8b7;fill-opacity:1;fill-rule:nonzero;stroke:none"
           d="m 0,0 c -0.685,1.451 -1.145,3.025 -1.223,4.649 -0.016,0.405 -0.014,0.813 0.039,1.222 0.057,0.414 0.162,0.801 0.3,1.188 0.144,0.38 0.324,0.754 0.564,1.089 0.239,0.333 0.548,0.629 0.918,0.819 0.194,0.1 0.406,0.166 0.623,0.202 C 1.417,9.153 1.629,9.113 1.854,9.048 1.83,9.048 1.805,9.053 1.783,9.053 1.4,9.06 1.02,8.973 0.697,8.782 0.043,8.394 -0.355,7.685 -0.6,6.958 -0.717,6.592 -0.816,6.204 -0.864,5.829 -0.915,5.447 -0.918,5.056 -0.899,4.663 -0.805,3.103 -0.383,1.556 0.27,0.128 0.6,-0.583 0.975,-1.281 1.436,-1.91 1.899,-2.54 2.434,-3.121 3.042,-3.614 3.652,-4.1 4.326,-4.521 5.059,-4.781 5.429,-4.909 5.813,-5 6.197,-5.021 c 0.389,-0.023 0.777,0.041 1.116,0.226 0.04,0.019 0.082,0.044 0.119,0.063 C 7.325,-4.831 7.208,-4.926 7.089,-5.013 6.8,-5.107 6.488,-5.136 6.193,-5.122 5.795,-5.101 5.401,-5.014 5.027,-4.885 4.271,-4.625 3.572,-4.232 2.938,-3.751 2.301,-3.269 1.723,-2.701 1.234,-2.065 0.745,-1.426 0.348,-0.725 0,0" />
      </g>
      <g
         transform="translate(2425.3789,3136.5713)"
         id="g2390">
        <path
           inkscape:connector-curvature="0"
           id="path2392"
           style="fill:#747a8c;fill-opacity:1;fill-rule:nonzero;stroke:none"
           d="M 0,0 C -0.318,2.287 -2.051,6.69 -4.127,8.388 -4.45,8.651 -4.756,8.874 -5.043,9.063 -5.483,9.248 -6.253,9.361 -6.632,9.238 -9.076,8.465 -9.299,4.863 -7.966,1.622 -6.68,-1.513 -3.86,-3.794 -1.836,-3.08 -0.808,-2.709 0.137,-1.513 0,0" />
      </g>
      <g
         transform="translate(2431.0117,3131.7627)"
         id="g2394">
        <path
           inkscape:connector-curvature="0"
           id="path2396"
           style="fill:#e5e5e5;fill-opacity:1;fill-rule:nonzero;stroke:none"
           d="m 0,0 c 0,0 77.726,-44.719 83.485,-47.801 l 7.23,-3.918 c 0,0 0.729,-0.51 0.691,0.757 -0.039,1.467 -0.041,1.292 -0.132,4.478 -0.08,2.811 0.835,5.659 4.667,5.458 3.614,-0.19 9.807,-4.038 12.42,-11.606 2.188,-6.332 2.482,-7.489 2.482,-7.489 0,0 1.089,-2.363 2.621,-3.189 1.614,-0.864 7.455,-2.377 13.482,-1.352 6.29,1.075 15.089,3.851 23.144,9.243 5.904,3.953 9.545,8.916 10.107,11.429 0.557,2.514 0.13,7.266 0.13,8.242 0,0.97 -0.639,6.508 -2.878,10.32 -2.241,3.809 -5.702,6.136 -13.12,10.699 -8.958,5.511 -91.157,52.437 -101.635,58 -4.127,2.193 -9.567,4.948 -18.208,5.11 -7.982,0.149 -12.214,-1.866 -15.033,-2.744 -4.157,-1.298 -19.211,-8.6 -25.375,-12.953 -2.806,-1.984 -5.252,-5.774 -4.825,-9.232 0.395,-3.186 1.262,-6.233 1.706,-7.459 1.068,-2.917 1.758,-3.227 1.836,-3.227 0.297,0 0.146,0.043 0.033,1.823 -0.105,1.676 0.505,5.5 3.727,5.075 3.326,-0.441 6.198,-3.469 8.52,-9.7 1.566,-4.207 1.326,-6.439 1.326,-6.439 0,0 0.718,-1.824 3.599,-3.525" />
      </g>
      <g
         id="g2398">
        <g
           id="g2400" />
        <g
           id="g2412">
          <g
             style="opacity:0.46000701"
             id="g2410"
             clip-path="url(#clipPath2404)">
            <g
               id="g2408"
               transform="translate(2518.4961,3102.4434)">
              <path
                 inkscape:connector-curvature="0"
                 id="path2406"
                 style="fill:#7f7f7f;fill-opacity:1;fill-rule:nonzero;stroke:none"
                 d="m 0,0 c 2.176,-0.889 4.403,-1.657 6.63,-2.407 2.226,-0.748 4.468,-1.462 6.712,-2.158 4.493,-1.375 9.012,-2.67 13.544,-3.92 2.262,-0.635 4.542,-1.198 6.761,-1.925 2.22,-0.723 4.411,-1.572 6.422,-2.741 1.003,-0.585 1.954,-1.253 2.835,-2.011 0.883,-0.75 1.662,-1.619 2.425,-2.514 0.766,-0.894 1.493,-1.833 2.379,-2.675 0.45,-0.409 0.943,-0.83 1.625,-1.003 0.663,-0.119 1.268,-0.068 1.877,0.035 1.204,0.224 2.313,0.692 3.395,1.174 1.076,0.494 2.136,1.029 3.169,1.605 2.07,1.156 4.071,2.42 5.98,3.83 0.476,0.355 0.949,0.721 1.403,1.11 0.229,0.196 0.45,0.396 0.67,0.612 0.107,0.109 0.212,0.218 0.32,0.338 0.093,0.11 0.196,0.231 0.291,0.355 0.377,0.485 0.698,1.057 0.845,1.682 0.156,0.62 0.151,1.265 0.078,1.871 -0.158,1.226 -0.529,2.369 -0.886,3.505 -0.373,1.132 -0.782,2.254 -1.233,3.361 -1.792,4.418 -4.292,8.567 -7.525,12.047 -1.619,1.74 -3.406,3.306 -5.312,4.703 -0.954,0.698 -1.934,1.357 -2.925,1.991 l -3.004,1.859 c 1.962,-1.3 3.963,-2.551 5.826,-3.988 1.87,-1.429 3.615,-3.024 5.184,-4.778 3.16,-3.494 5.582,-7.629 7.301,-12.022 0.431,-1.099 0.82,-2.212 1.178,-3.342 0.348,-1.128 0.708,-2.259 0.845,-3.401 0.067,-0.568 0.067,-1.136 -0.069,-1.668 -0.13,-0.531 -0.402,-1.02 -0.749,-1.465 -0.089,-0.112 -0.176,-0.215 -0.273,-0.329 -0.091,-0.102 -0.19,-0.206 -0.291,-0.305 -0.203,-0.199 -0.419,-0.392 -0.641,-0.582 -0.439,-0.374 -0.903,-0.73 -1.374,-1.078 -1.889,-1.381 -3.886,-2.629 -5.929,-3.762 -1.025,-0.564 -2.071,-1.087 -3.134,-1.567 -1.061,-0.472 -2.145,-0.915 -3.251,-1.12 -0.279,-0.048 -0.554,-0.083 -0.83,-0.093 -0.136,-0.004 -0.279,-0.004 -0.41,0.002 -0.064,0.004 -0.136,0.008 -0.209,0.014 -0.06,0.007 -0.117,0.017 -0.175,0.03 -0.471,0.109 -0.931,0.466 -1.344,0.844 -0.83,0.782 -1.567,1.717 -2.342,2.614 -0.771,0.899 -1.579,1.794 -2.502,2.571 -0.909,0.778 -1.898,1.466 -2.928,2.062 -4.167,2.363 -8.827,3.464 -13.349,4.636 -4.54,1.191 -9.071,2.431 -13.581,3.74 C 8.918,-2.955 4.414,-1.61 0,0" />
            </g>
          </g>
        </g>
      </g>
      <g
         id="g2414">
        <g
           id="g2416" />
        <g
           id="g2428">
          <g
             style="opacity:0.46000701"
             id="g2426"
             clip-path="url(#clipPath2420)">
            <g
               id="g2424"
               transform="translate(2473.7061,3175.0342)">
              <path
                 inkscape:connector-curvature="0"
                 id="path2422"
                 style="fill:#b5b5b5;fill-opacity:1;fill-rule:nonzero;stroke:none"
                 d="m 0,0 c 10.407,-5.692 92.677,-52.489 101.635,-58 7.418,-4.564 10.879,-6.89 13.12,-10.7 2.239,-3.811 2.878,-9.349 2.878,-10.32 0,-0.975 0.427,-5.728 -0.13,-8.242 -0.563,-2.512 -4.229,-7.435 -10.107,-11.429 -3.936,-2.674 -8.71,-4.984 -13.278,-6.647 2.079,1.621 1.039,6.42 0.267,8.484 -1.441,3.837 -3.148,7.35 -4.907,10.321 -2.455,4.148 -6.623,6.66 -18.395,8.756 -23.996,4.265 -24.993,4.708 -24.993,4.708 -3.64,0.582 -46.158,26.855 -83.743,45.354 C -46.132,-23.542 -4.102,2.243 0,0" />
            </g>
          </g>
        </g>
      </g>
      <g
         id="g2430">
        <g
           id="g2432" />
        <g
           id="g2444">
          <g
             style="opacity:0.46000701"
             id="g2442"
             clip-path="url(#clipPath2436)">
            <g
               id="g2440"
               transform="translate(2591.2959,3096.7124)">
              <path
                 inkscape:connector-curvature="0"
                 id="path2438"
                 style="fill:#7f7f7f;fill-opacity:1;fill-rule:nonzero;stroke:none"
                 d="m 0,0 c 0.032,-0.317 0.043,-0.557 0.043,-0.698 0,-0.931 0.391,-5.32 -0.064,-7.9 -0.093,-0.044 -0.183,-0.087 -0.273,-0.127 -2.477,-1.131 -2.781,0.812 -2.781,0.812 -0.346,0.864 -0.907,4.026 -0.268,4.783 C -2.498,-2.136 -1.779,-1.444 0,0" />
            </g>
          </g>
        </g>
      </g>
      <g
         transform="translate(2591.3477,3095.7783)"
         id="g2446">
        <path
           inkscape:connector-curvature="0"
           id="path2448"
           style="fill:#394b5b;fill-opacity:1;fill-rule:nonzero;stroke:none"
           d="m 0,0 c 0.037,-1.189 0.31,-4.729 0.005,-7.154 -1.775,-0.697 -2.359,0.093 -2.359,0.093 -0.558,1.083 -0.96,4.082 -0.426,4.676 C -2.109,-1.638 -1.343,-0.942 0,0" />
      </g>
      <g
         transform="translate(2580.082,3099.5928)"
         id="g2450">
        <path
           inkscape:connector-curvature="0"
           id="path2452"
           style="fill:#394b5b;fill-opacity:1;fill-rule:nonzero;stroke:none"
           d="m 0,0 c 0,0 2.152,1.165 3.091,-0.957 0.792,-1.793 1.383,-4.882 1.383,-5.361 0,-0.476 0.42,-1.249 -0.775,-2.494 -4.581,-4.777 -13.254,-7.801 -14.137,-8.014 -0.884,-0.211 -2.099,0 -3.095,1.539 -0.992,1.54 -1.988,3.662 -1.988,3.662 0,0 -0.991,2.07 1.051,3.45 C -12.132,-6.596 0,0 0,0" />
      </g>
      <g
         transform="translate(2580.2441,3099.314)"
         id="g2454">
        <path
           inkscape:connector-curvature="0"
           id="path2456"
           style="fill:#f2f5f9;fill-opacity:1;fill-rule:nonzero;stroke:none"
           d="m 0,0 c -0.12,-0.065 -12.146,-6.606 -14.439,-8.157 -1.787,-1.205 -0.976,-2.984 -0.94,-3.058 0.009,-0.022 0.996,-2.121 1.967,-3.625 0.62,-0.953 1.387,-1.459 2.229,-1.459 0.167,0 0.335,0.021 0.501,0.06 0.983,0.237 9.486,3.244 13.975,7.921 0.868,0.908 0.786,1.482 0.721,1.941 -0.019,0.118 -0.036,0.228 -0.036,0.338 0,0.44 -0.59,3.513 -1.355,5.236 C 2.305,-0.076 1.813,0.28 1.125,0.28 0.529,0.28 0.004,0.002 0,0 m -13.975,-15.176 c -0.994,1.541 -1.967,3.612 -2.005,3.695 -0.011,0.023 -1.086,2.328 1.156,3.846 2.325,1.567 13.999,7.919 14.499,8.189 0.028,0.017 0.675,0.36 1.45,0.36 0.668,0 1.57,-0.25 2.109,-1.467 0.809,-1.828 1.407,-4.945 1.407,-5.486 0,-0.075 0.014,-0.157 0.03,-0.25 0.069,-0.498 0.188,-1.334 -0.89,-2.459 -4.595,-4.788 -13.295,-7.867 -14.3,-8.109 -0.217,-0.053 -0.438,-0.078 -0.664,-0.078 -0.755,0 -1.854,0.303 -2.792,1.759" />
      </g>
      <g
         transform="translate(2587.127,3087.1636)"
         id="g2458">
        <path
           inkscape:connector-curvature="0"
           id="path2460"
           style="fill:#394b5b;fill-opacity:1;fill-rule:nonzero;stroke:none"
           d="M 0,0 C 0,0 0.642,0.533 0.68,-0.729 0.722,-1.986 0.4,-3.081 0.4,-3.081 c 0,0 -1.578,-3.329 -10.199,-8.347 -3.758,-2.188 -7.346,-3.522 -8.68,-4.011 -1.318,-0.49 -2.584,-0.649 -2.584,-0.649 0,0 -1.602,-0.327 -2.176,0.566 -0.544,0.85 -1.478,2.148 0.321,2.595 2.228,0.55 8.157,2.253 14.321,5.834 C -3.719,-4.255 0,0 0,0" />
      </g>
      <g
         transform="translate(2584.6025,3088.8813)"
         id="g2462">
        <path
           inkscape:connector-curvature="0"
           id="path2464"
           style="fill:#ffffff;fill-opacity:1;fill-rule:nonzero;stroke:none"
           d="m 0,0 c 0,0 0.24,0.178 0.282,-0.095 0.086,-0.563 0.173,-2.008 0.178,-2.595 0,-0.317 -0.122,-0.426 -0.122,-0.426 0,0 -2.097,-2.239 -5.332,-4.278 0,0 -2.25,-1.484 -4.031,-2.37 -1.668,-0.828 -3.328,-1.565 -3.913,-1.716 -0.276,-0.07 -0.262,0.233 -0.262,0.233 l -0.043,2.801 c 0,0 -0.039,0.274 0.175,0.367 0.859,0.37 4.473,1.976 7.154,3.687 C -1.931,-1.85 0,0 0,0" />
      </g>
      <g
         transform="translate(2421.252,3144.9595)"
         id="g2466">
        <path
           inkscape:connector-curvature="0"
           id="path2468"
           style="fill:#10212d;fill-opacity:1;fill-rule:nonzero;stroke:none"
           d="m 0,0 c 0.04,-0.029 0.074,-0.069 0.114,-0.103 -0.016,-0.531 -0.069,-1.422 -0.235,-2.639 -0.28,-2.065 -0.84,-1.09 -0.84,-1.09 0,0 -0.32,1.698 -0.559,3.44 C -1.616,0.315 -1.609,0.675 -1.566,0.85 -1.33,0.811 -1.093,0.75 -0.916,0.675 -0.629,0.486 -0.323,0.263 0,0" />
      </g>
      <g
         transform="translate(2416.6592,3142.8882)"
         id="g2470">
        <path
           inkscape:connector-curvature="0"
           id="path2472"
           style="fill:#10212d;fill-opacity:1;fill-rule:nonzero;stroke:none"
           d="M 0,0 C 0.175,1.337 0.929,2.41 1.686,2.774 1.928,1.68 2.688,-1.035 3.231,-2.047 4.22,-3.878 2.835,-2.535 2.835,-2.535 c 0,0 -1.042,0.61 -1.961,1.542 C 0.571,-0.69 0.253,-0.313 0,0" />
      </g>
      <g
         transform="translate(2416.6309,3141.3247)"
         id="g2474">
        <path
           inkscape:connector-curvature="0"
           id="path2476"
           style="fill:#10212d;fill-opacity:1;fill-rule:nonzero;stroke:none"
           d="m 0,0 c 0.943,-0.63 2.283,-1.444 3.471,-1.842 1.959,-0.654 0.108,-0.222 0.108,-0.222 0,0 -1.16,-0.434 -2.434,-0.303 C 0.93,-2.346 0.701,-2.314 0.473,-2.279 0.225,-1.509 0.064,-0.737 0,0" />
      </g>
      <g
         transform="translate(2417.6123,3137.7446)"
         id="g2478">
        <path
           inkscape:connector-curvature="0"
           id="path2480"
           style="fill:#10212d;fill-opacity:1;fill-rule:nonzero;stroke:none"
           d="m 0,0 c 1.438,0.387 2.394,0.651 2.521,0.725 0.253,0.142 0.011,-0.386 0.011,-0.386 0,0 -0.716,-1.067 -1.578,-1.962 C 0.597,-1.125 0.274,-0.581 0,0" />
      </g>
      <g
         transform="translate(2419.2236,3135.3291)"
         id="g2482">
        <path
           inkscape:connector-curvature="0"
           id="path2484"
           style="fill:#10212d;fill-opacity:1;fill-rule:nonzero;stroke:none"
           d="m 0,0 c 0.565,1.012 1.183,2.464 1.239,2.592 0.324,0.731 0.403,-0.04 0.403,-0.04 0,0 0.039,-1.743 0.438,-4.256 C 1.081,-1.256 0.521,-0.597 0,0" />
      </g>
      <g
         transform="translate(2421.1074,3137.8809)"
         id="g2486">
        <path
           inkscape:connector-curvature="0"
           id="path2488"
           style="fill:#10212d;fill-opacity:1;fill-rule:nonzero;stroke:none"
           d="m 0,0 c -0.059,0.599 0.239,0 0.239,0 0,0 2.203,-2.522 2.754,-3.08 C 3.206,-3.29 3.459,-3.537 3.529,-3.623 3.214,-3.98 2.835,-4.249 2.436,-4.389 2.077,-4.516 1.695,-4.543 1.299,-4.495 0.465,-2.407 0.014,-0.182 0,0" />
      </g>
      <g
         transform="translate(2421.3037,3138.5698)"
         id="g2490">
        <path
           inkscape:connector-curvature="0"
           id="path2492"
           style="fill:#10212d;fill-opacity:1;fill-rule:nonzero;stroke:none"
           d="M 0,0 C 0,0 2.641,-0.649 3.843,-0.849 3.978,-1.356 4.02,-1.598 4.075,-1.999 4.101,-2.289 4.088,-2.566 4.044,-2.83 2.03,-1.762 0.673,-0.652 0.504,-0.579 -1.273,0.209 0,0 0,0" />
      </g>
      <g
         transform="translate(2424.7393,3139.0674)"
         id="g2494">
        <path
           inkscape:connector-curvature="0"
           id="path2496"
           style="fill:#10212d;fill-opacity:1;fill-rule:nonzero;stroke:none"
           d="m 0,0 c -1.685,-0.034 -2.882,0.114 -3.032,0.091 -1.918,-0.269 -0.803,0.222 -0.803,0.222 0,0 1.6,0.648 3.217,1.271 C -0.386,1.051 -0.178,0.518 0,0" />
      </g>
      <g
         transform="translate(2420.5928,3140.1729)"
         id="g2498">
        <path
           inkscape:connector-curvature="0"
           id="path2500"
           style="fill:#10212d;fill-opacity:1;fill-rule:nonzero;stroke:none"
           d="M 0,0 C 0,0 1.371,1.899 2.132,3.085 2.443,2.62 2.64,2.329 2.912,1.803 2.032,1.032 0.747,0.105 0.632,0.02 -0.906,-1.179 0,0 0,0" />
      </g>
      <g
         id="g2502">
        <g
           id="g2504" />
        <g
           id="g2516">
          <g
             style="opacity:0.46000701"
             id="g2514"
             clip-path="url(#clipPath2508)">
            <g
               id="g2512"
               transform="translate(2555.1572,3095.7695)">
              <path
                 inkscape:connector-curvature="0"
                 id="path2510"
                 style="fill:#7f7f7f;fill-opacity:1;fill-rule:nonzero;stroke:none"
                 d="M 0,0 C 0,0 -0.479,0.215 -4.662,1.648 -8.61,3 -10.157,3.403 -10.157,3.403 c 0,0 -2.108,0.544 -3.947,0.408 C -15.091,3.737 -16.635,3.54 -16.157,3 c 0.481,-0.542 3.92,-1.135 7.757,-2.378 3.84,-1.244 4.711,-1.331 5.602,-1.567 1.119,-0.297 2.319,-0.027 2.319,-0.027 0,0 1.893,0.297 0.479,0.972" />
            </g>
          </g>
        </g>
      </g>
      <g
         transform="translate(2553.959,3095.418)"
         id="g2518">
        <path
           inkscape:connector-curvature="0"
           id="path2520"
           style="fill:#394b5b;fill-opacity:1;fill-rule:nonzero;stroke:none"
           d="m 0,0 c 0,0 -2.586,0.862 -5.439,1.839 -2.69,0.919 -3.787,1.188 -3.787,1.188 0,0 -0.773,0.254 -2.026,0.161 -0.673,-0.051 -0.586,-0.378 -0.027,-0.486 0.478,-0.092 2.539,-0.699 5.174,-1.487 1.283,-0.384 2.261,-0.64 3.947,-1.188 0.749,-0.243 1.617,-0.387 1.617,-0.387 0,0 1.447,0.118 0.541,0.36" />
      </g>
      <g
         id="g2522">
        <g
           id="g2524" />
        <g
           id="g2536">
          <g
             style="opacity:0.46000701"
             id="g2534"
             clip-path="url(#clipPath2528)">
            <g
               id="g2532"
               transform="translate(2577.875,3107.7939)">
              <path
                 inkscape:connector-curvature="0"
                 id="path2530"
                 style="fill:#7f7f7f;fill-opacity:1;fill-rule:nonzero;stroke:none"
                 d="M 0,0 C 0,0 0,0.756 -0.641,1.595 -1.453,2.657 -5.387,6.539 -5.784,6.891 -6.188,7.239 -7.039,7.998 -7.412,8.025 -7.786,8.051 -8.104,7.753 -8.133,7.214 -8.157,6.673 -8.104,6.269 -7.014,5.187 -5.851,4.04 -1.6,-0.082 -1.6,-0.082 c 0,0 0.719,-0.731 1.148,-0.701 C -0.025,-0.758 -0.025,-0.164 0,0" />
            </g>
          </g>
        </g>
      </g>
      <g
         transform="translate(2577.0234,3108.4678)"
         id="g2538">
        <path
           inkscape:connector-curvature="0"
           id="path2540"
           style="fill:#394b5b;fill-opacity:1;fill-rule:nonzero;stroke:none"
           d="M 0,0 C 0,0 -5.069,5.433 -5.413,5.729 -5.76,6.025 -6.672,6.564 -6.694,6.107 -6.717,5.652 -6.41,5.372 -5.466,4.46 c 0.999,-0.97 4.851,-4.781 4.851,-4.781 0,0 0.477,-0.569 0.8,-0.544 C 0.555,-0.832 0.318,-0.404 0,0" />
      </g>
      <g
         transform="translate(2577.9121,3086.5825)"
         id="g2542">
        <path
           inkscape:connector-curvature="0"
           id="path2544"
           style="fill:#f2f5f9;fill-opacity:1;fill-rule:nonzero;stroke:none"
           d="M 0,0 0.298,0.112 C 0.283,0.164 -1.635,5.493 -2.669,7.504 L -3.708,9.53 -3.992,9.383 -2.951,7.357 C -1.928,5.363 -0.02,0.052 0,0" />
      </g>
      <g
         transform="translate(2566.2422,3085.4536)"
         id="g2546">
        <path
           inkscape:connector-curvature="0"
           id="path2548"
           style="fill:#f2f5f9;fill-opacity:1;fill-rule:nonzero;stroke:none"
           d="M 0,0 0.586,0.64 1.42,0.229 0.829,-0.416 Z M 0.979,-0.488 1.571,0.156 2.402,-0.252 1.807,-0.903 Z m 0.978,-0.49 0.595,0.649 0.837,-0.41 -0.601,-0.653 z m 0.98,-0.488 0.6,0.653 0.834,-0.408 -0.602,-0.66 z m 1.546,0.366 -0.832,0.412 0.633,0.685 0.831,-0.411 z m 0.151,-0.073 0.633,0.687 0.831,-0.412 -0.629,-0.685 z m 1.577,0.4 -0.832,0.411 0.631,0.686 0.833,-0.411 z M 6.957,0.037 6.124,0.449 6.756,1.133 7.588,0.724 Z M 7.107,-0.035 7.736,0.649 8.572,0.238 7.938,-0.446 Z M 8.683,0.364 7.853,0.773 8.486,1.461 9.317,1.05 Z M 9.431,1.175 8.6,1.583 9.229,2.27 10.063,1.861 Z m 0.15,-0.076 0.632,0.686 0.83,-0.41 -0.63,-0.687 z m 1.578,0.401 -0.835,0.41 0.632,0.689 0.832,-0.413 z m 0.745,0.81 -0.832,0.41 0.63,0.685 0.833,-0.408 z M 12.053,2.236 12.688,2.923 13.517,2.512 12.89,1.828 Z m 1.58,0.4 -0.832,0.411 0.629,0.686 0.836,-0.41 z m 0.744,0.811 -0.832,0.41 0.63,0.687 0.835,-0.409 z m 0.746,0.811 -0.832,0.41 0.631,0.687 0.831,-0.411 z m 0.744,0.811 -0.83,0.41 0.63,0.687 0.832,-0.413 z m 0.746,0.809 -0.835,0.41 0.637,0.686 0.83,-0.408 z m 0.747,0.81 -0.837,0.412 0.635,0.685 0.83,-0.41 z M 17.119,7.983 16.287,8.394 16.92,9.08 17.754,8.67 Z m -0.238,1.294 -0.832,0.412 0.633,0.686 0.829,-0.411 z m -0.236,1.296 -0.832,0.41 0.63,0.687 0.829,-0.411 z m -0.238,1.295 -0.835,0.411 0.631,0.686 0.834,-0.41 z m -0.353,1.171 -0.633,-0.684 -0.831,0.408 0.633,0.686 z m -0.983,0.485 -0.63,-0.688 -0.834,0.412 0.63,0.687 z m -1.579,-0.401 0.834,-0.41 -0.631,-0.687 -0.836,0.413 z m -0.744,-0.81 0.833,-0.409 -0.631,-0.686 -0.834,0.41 z m -0.15,0.076 -0.633,-0.687 -0.832,0.408 0.631,0.686 z m -1.58,-0.4 0.834,-0.411 -0.632,-0.688 -0.83,0.412 z m -0.745,-0.811 0.833,-0.41 -0.629,-0.687 -0.834,0.41 z M 9.529,10.366 10.362,9.956 9.731,9.27 8.896,9.681 Z m -0.15,0.075 -0.631,-0.688 -0.832,0.412 0.63,0.686 z M 7.801,10.04 8.633,9.63 8.004,8.944 7.171,9.354 Z M 7.058,9.229 7.891,8.821 7.258,8.135 6.426,8.543 Z M 6.905,9.303 6.275,8.617 5.441,9.028 6.074,9.713 Z M 5.328,8.903 6.159,8.492 5.529,7.808 4.697,8.219 Z M 4.583,8.095 5.415,7.684 4.785,6.997 3.951,7.408 Z M 3.836,7.284 4.671,6.874 4.039,6.187 3.207,6.597 Z M 3.688,7.358 3.055,6.67 2.225,7.082 2.856,7.766 Z M 2.111,6.958 2.941,6.548 2.311,5.861 1.479,6.271 Z M 1.365,6.144 2.196,5.734 1.565,5.05 0.73,5.46 Z M 0.619,5.336 1.451,4.926 0.822,4.239 -0.012,4.65 Z M 0.47,5.412 -0.16,4.723 -0.994,5.133 -0.363,5.821 Z M -1.109,5.007 -0.277,4.598 -0.904,3.913 -1.738,4.324 Z M -0.87,3.715 -0.039,3.304 -0.669,2.617 -1.498,3.03 Z M -0.632,2.419 0.198,2.01 -0.433,1.323 -1.265,1.733 Z M 1.535,0.354 0.703,0.765 1.331,1.451 2.165,1.041 Z M 2.518,-0.131 1.686,0.279 2.315,0.966 3.149,0.556 Z M 4.131,0.072 3.5,-0.615 2.668,-0.204 3.301,0.482 Z M 4.247,0.196 3.411,0.606 4.044,1.292 4.876,0.882 Z M 5.859,0.399 5.227,-0.289 4.396,0.12 5.028,0.809 Z M 6.604,1.208 5.977,0.523 5.141,0.931 5.772,1.619 Z M 6.722,1.333 5.887,1.742 6.517,2.428 7.352,2.02 Z M 8.334,1.533 7.705,0.847 6.869,1.257 7.502,1.946 Z M 9.078,2.344 8.447,1.66 7.613,2.068 8.243,2.754 Z M 9.193,2.469 8.36,2.879 8.993,3.565 9.824,3.155 Z m 1.614,0.203 -0.632,-0.689 -0.831,0.411 0.63,0.689 z m 0.746,0.809 -0.631,-0.685 -0.834,0.41 0.631,0.685 z m 0.115,0.124 -0.834,0.41 0.631,0.687 0.834,-0.41 z m 1.613,0.202 -0.635,-0.686 -0.833,0.41 0.635,0.689 z m 0.744,0.81 -0.629,-0.685 -0.833,0.41 0.628,0.687 z m 0.744,0.812 -0.63,-0.687 -0.83,0.41 0.629,0.687 z M 15.516,6.24 14.885,5.553 14.051,5.964 14.682,6.65 Z m 0.744,0.81 -0.632,-0.686 -0.831,0.408 0.631,0.689 z m -0.088,1.221 0.834,-0.41 -0.632,-0.686 -0.833,0.41 z M 15.936,9.566 16.769,9.156 16.138,8.47 15.304,8.878 Z m -0.238,1.293 0.834,-0.411 -0.633,-0.686 -0.833,0.411 z m -0.239,1.297 0.832,-0.41 -0.631,-0.689 -0.832,0.411 z m -1.616,-0.204 0.633,0.687 0.832,-0.411 -0.632,-0.686 z m -0.744,-0.811 0.63,0.687 0.834,-0.411 -0.631,-0.684 z m -0.113,-0.121 0.833,-0.411 -0.631,-0.686 -0.833,0.41 z M 11.373,10.815 12,11.504 12.834,11.093 12.203,10.407 Z m -0.745,-0.808 0.629,0.687 0.833,-0.411 -0.633,-0.686 z M 9.881,9.195 10.512,9.882 11.345,9.472 10.715,8.786 Z M 9.766,9.072 10.602,8.661 9.969,7.976 9.139,8.386 Z M 8.151,8.87 8.783,9.556 9.617,9.145 8.984,8.459 Z M 7.407,8.059 8.039,8.745 8.874,8.334 8.241,7.648 Z M 7.293,7.935 8.128,7.523 7.493,6.839 6.664,7.25 Z M 5.68,7.734 6.313,8.421 7.145,8.011 6.514,7.324 Z M 4.934,6.922 5.567,7.607 6.399,7.2 5.768,6.513 Z M 4.188,6.113 4.821,6.797 5.653,6.389 5.021,5.7 Z M 4.074,5.987 4.906,5.579 4.276,4.891 3.443,5.302 Z M 2.461,5.787 3.091,6.473 3.925,6.062 3.293,5.376 Z M 1.717,4.976 2.345,5.663 3.182,5.252 2.549,4.566 Z M 0.972,4.165 1.603,4.852 2.435,4.441 1.804,3.754 Z M 0.854,4.041 1.688,3.63 1.057,2.944 0.227,3.354 Z M 0.077,3.428 -0.758,3.839 -0.127,4.526 0.707,4.115 Z m 0.236,-1.294 -0.831,0.41 0.63,0.685 0.832,-0.41 z M 1.299,1.649 0.463,2.059 1.096,2.747 1.925,2.336 Z M 2.278,1.165 1.446,1.574 2.079,2.261 2.909,1.851 Z M 3.895,1.367 3.262,0.68 2.428,1.09 3.061,1.778 Z M 4.008,1.49 3.176,1.902 3.806,2.588 4.641,2.178 Z M 5.624,1.693 4.99,1.006 4.16,1.417 4.79,2.103 Z M 6.367,2.504 5.734,1.814 4.901,2.229 5.533,2.914 Z M 6.481,2.626 5.648,3.036 6.277,3.725 7.112,3.314 Z M 8.095,2.831 7.465,2.143 6.631,2.555 7.262,3.238 Z M 8.84,3.641 8.211,2.952 7.378,3.365 8.008,4.05 Z M 8.956,3.763 8.124,4.176 8.754,4.859 9.584,4.45 Z M 10.568,3.965 9.939,3.281 9.104,3.688 9.734,4.376 Z M 11.314,4.777 10.684,4.09 9.852,4.5 10.479,5.186 Z M 11.43,4.9 10.596,5.311 11.229,5.997 12.061,5.586 Z m 1.61,0.203 -0.63,-0.687 -0.831,0.411 0.632,0.686 z m 0.747,0.811 -0.63,-0.687 -0.834,0.41 0.635,0.686 z m 0.746,0.81 -0.633,-0.686 -0.831,0.409 0.634,0.687 z m 0.742,0.811 -0.628,-0.687 -0.833,0.408 0.631,0.689 z M 15.19,8.753 16.022,8.343 15.393,7.658 14.559,8.067 Z m -0.239,1.298 0.834,-0.413 -0.633,-0.684 -0.834,0.411 z m -0.869,0.606 0.63,0.686 0.833,-0.407 -0.629,-0.687 z m -0.744,-0.81 0.631,0.687 0.832,-0.409 -0.632,-0.688 z M 13.224,9.725 14.057,9.314 13.426,8.628 12.592,9.038 Z M 11.607,9.522 12.24,10.209 13.074,9.798 12.441,9.112 Z m -0.744,-0.81 0.635,0.686 0.831,-0.41 -0.633,-0.686 z M 10.121,7.9 10.749,8.588 11.582,8.177 10.955,7.49 Z M 10.005,7.779 10.838,7.366 10.208,6.681 9.374,7.089 Z M 8.393,7.574 9.021,8.261 9.856,7.852 9.227,7.164 Z M 7.648,6.764 8.275,7.45 9.109,7.039 8.479,6.354 Z M 7.534,6.642 8.364,6.231 7.733,5.542 6.899,5.953 Z M 5.918,6.439 6.551,7.124 7.381,6.715 6.752,6.029 Z M 5.173,5.627 5.805,6.313 6.635,5.902 6.006,5.218 Z M 4.426,4.815 5.059,5.504 5.893,5.091 5.26,4.408 Z M 4.313,4.694 5.146,4.283 4.517,3.597 3.681,4.007 Z M 2.696,4.491 3.327,5.178 4.161,4.767 3.532,4.081 Z M 1.955,3.681 2.584,4.367 3.418,3.957 2.788,3.27 Z M 2.043,2.459 1.212,2.87 1.842,3.557 2.673,3.146 Z M 3.654,2.661 3.025,1.975 2.191,2.386 2.821,3.07 Z M 3.769,2.786 2.937,3.196 3.569,3.883 4.403,3.473 Z M 5.386,2.988 4.754,2.301 3.921,2.712 4.551,3.398 Z M 6.129,3.798 5.5,3.112 4.666,3.523 5.296,4.209 Z M 6.241,3.922 5.411,4.331 6.041,5.02 6.872,4.609 Z M 7.857,4.125 7.225,3.438 6.395,3.847 7.025,4.534 Z M 6.986,4.732 6.156,5.143 6.786,5.829 7.618,5.42 Z M 8.601,4.936 7.972,4.247 7.14,4.658 7.769,5.344 Z M 8.718,5.06 7.884,5.469 8.514,6.157 9.348,5.746 Z M 10.332,5.261 9.699,4.574 8.866,4.984 9.498,5.671 Z M 9.461,5.869 8.629,6.281 9.26,6.968 10.093,6.558 Z m 1.615,0.203 -0.632,-0.685 -0.83,0.408 0.63,0.687 z m 0.113,0.123 -0.832,0.411 0.63,0.686 0.834,-0.408 z M 12.804,6.398 12.173,5.71 11.341,6.122 11.97,6.808 Z m 0.745,0.811 -0.63,-0.688 -0.832,0.412 0.63,0.686 z m -0.982,0.483 -0.63,-0.686 -0.835,0.411 0.632,0.687 z m -0.717,0.534 0.629,0.688 0.832,-0.411 -0.63,-0.689 z m 1.725,0.328 0.63,0.685 L 15.041,8.83 14.408,8.144 Z M 14.295,8.019 13.663,7.332 12.83,7.743 13.461,8.43 Z M -0.282,1.248 0.352,1.938 1.184,1.526 0.553,0.839 Z m -0.035,-1.356 c 0.028,-0.048 0.055,-0.096 0.079,-0.144 l 0.122,0.127 0.83,-0.415 -0.471,-0.509 C 0.268,-1.081 0.29,-1.114 0.307,-1.148 0.318,-1.161 0.326,-1.173 0.336,-1.188 L 0.863,-0.613 1.689,-1.028 0.896,-1.89 C 0.939,-1.929 0.976,-1.965 1.014,-2 L 1.842,-1.101 2.673,-1.516 1.757,-2.51 c 0.052,-0.026 0.105,-0.049 0.157,-0.07 l 0.907,0.99 0.83,-0.413 -0.683,-0.747 c 0.08,0.004 0.161,0.012 0.242,0.024 l 0.594,0.646 0.581,-0.291 c 0.068,0.024 0.136,0.05 0.212,0.076 l -0.683,0.34 0.607,0.658 0.832,-0.411 -0.427,-0.467 c 0.106,0.043 0.217,0.084 0.334,0.129 l 0.244,0.264 0.191,-0.094 c 0.069,0.025 0.134,0.052 0.203,0.08 L 5.619,-1.656 6.248,-0.97 7,-1.342 c 0.063,0.029 0.127,0.058 0.195,0.084 L 6.363,-0.849 6.991,-0.16 7.826,-0.571 7.195,-1.255 c 0.119,0.053 0.244,0.105 0.368,0.161 l 0.416,0.45 0.274,-0.14 c 0.063,0.031 0.124,0.059 0.189,0.089 L 8.091,-0.52 8.72,0.167 9.465,-0.202 c 0.064,0.031 0.125,0.06 0.186,0.09 l -0.814,0.4 0.628,0.688 0.834,-0.412 -0.6,-0.651 c 0.135,0.068 0.275,0.138 0.411,0.21 l 0.339,0.367 0.19,-0.091 c 0.056,0.031 0.117,0.061 0.177,0.094 l -0.252,0.121 0.63,0.687 0.572,-0.279 c 0.058,0.03 0.112,0.063 0.169,0.096 L 11.311,1.425 11.939,2.114 12.772,1.701 12.598,1.51 c 0.169,0.103 0.338,0.209 0.506,0.314 l 0.564,0.614 0.217,-0.107 c 0.053,0.036 0.103,0.07 0.153,0.106 l -0.257,0.125 0.633,0.687 0.454,-0.222 c 0.053,0.035 0.1,0.071 0.15,0.106 l -0.49,0.241 0.63,0.686 0.643,-0.318 c 0.047,0.039 0.088,0.075 0.136,0.113 l -0.664,0.326 0.63,0.69 0.773,-0.38 c 0.043,0.038 0.086,0.078 0.127,0.118 L 16.017,4.995 16.649,5.682 17.481,5.27 17.478,5.266 c 0.022,0.02 0.04,0.041 0.061,0.061 0.08,0.08 0.148,0.159 0.215,0.236 l -0.157,-0.169 -0.833,0.411 0.629,0.687 0.742,-0.365 c 0.028,0.049 0.053,0.096 0.07,0.144 l -0.696,0.346 0.631,0.684 0.241,-0.118 c -0.004,0.066 -0.011,0.128 -0.02,0.189 l -0.109,0.054 0.089,0.097 c -0.008,0.075 -0.02,0.144 -0.024,0.21 L 18.102,7.5 17.269,7.91 17.901,8.596 18.236,8.432 C 18.227,8.495 18.219,8.558 18.204,8.628 L 18.016,8.72 18.157,8.875 C 18.146,8.939 18.135,9.006 18.12,9.072 l -0.259,-0.278 -0.83,0.411 0.632,0.686 0.316,-0.156 C 17.967,9.8 17.949,9.867 17.934,9.938 l -0.156,0.077 0.109,0.122 c -0.014,0.063 -0.028,0.126 -0.046,0.188 l -0.216,-0.236 -0.829,0.411 0.63,0.687 0.221,-0.111 c -0.018,0.07 -0.04,0.139 -0.058,0.209 l -0.05,0.026 0.033,0.036 c -0.017,0.058 -0.034,0.119 -0.054,0.178 l -0.128,-0.141 -0.834,0.41 0.63,0.686 0.028,-0.012 c -0.028,0.076 -0.054,0.148 -0.083,0.222 l -0.813,0.4 0.422,0.457 c -0.032,0.048 -0.06,0.094 -0.094,0.136 l -0.48,-0.52 -0.832,0.411 0.639,0.694 c -0.051,0.025 -0.106,0.049 -0.154,0.067 l -0.632,-0.688 -0.835,0.41 0.33,0.36 c -0.1,-0.018 -0.192,-0.04 -0.278,-0.064 L 14.2,14.131 14.021,14.221 C 13.906,14.174 13.84,14.139 13.84,14.139 l -0.006,-0.005 0.252,-0.127 -0.631,-0.686 -0.582,0.289 C 12.812,13.578 12.76,13.549 12.699,13.515 l 0.643,-0.318 -0.631,-0.687 -0.833,0.411 0.269,0.293 c -0.184,-0.101 -0.376,-0.207 -0.581,-0.318 l 0.048,-0.026 -0.63,-0.683 -0.376,0.183 c -0.057,-0.032 -0.116,-0.062 -0.169,-0.095 l 0.429,-0.213 -0.633,-0.687 -0.756,0.372 C 9.424,11.717 9.365,11.686 9.309,11.654 l 0.814,-0.404 -0.631,-0.685 -0.832,0.411 0.6,0.65 C 9.114,11.546 8.966,11.466 8.818,11.382 L 8.511,11.049 8.355,11.125 C 8.299,11.093 8.24,11.063 8.182,11.03 L 8.399,10.924 7.766,10.238 7.227,10.502 C 7.173,10.472 7.113,10.438 7.058,10.407 L 7.653,10.114 7.019,9.427 6.188,9.839 6.347,10.011 C 6.193,9.927 6.046,9.843 5.896,9.76 L 5.292,9.104 4.986,9.25 C 4.932,9.218 4.873,9.188 4.819,9.156 L 5.177,8.977 4.546,8.292 3.875,8.624 C 3.819,8.592 3.761,8.558 3.703,8.526 L 4.432,8.168 3.801,7.48 2.97,7.89 3.389,8.347 C 3.231,8.257 3.08,8.171 2.927,8.084 L 2.819,7.966 2.766,7.992 C 2.707,7.959 2.652,7.927 2.597,7.896 L 2.705,7.842 2.074,7.156 1.662,7.358 C 1.606,7.324 1.555,7.29 1.496,7.258 L 1.961,7.031 1.328,6.344 0.576,6.715 C 0.519,6.681 0.463,6.648 0.41,6.617 L 1.213,6.221 0.584,5.535 -0.25,5.945 0.318,6.562 C 0.131,6.447 -0.034,6.344 -0.188,6.25 L -0.4,6.019 -0.486,6.061 C -0.534,6.029 -0.586,5.994 -0.63,5.964 -0.632,5.962 -0.635,5.959 -0.64,5.958 L -0.515,5.895 -1.147,5.208 -1.349,5.307 C -1.383,5.265 -1.42,5.22 -1.449,5.178 L -1.263,5.083 -1.791,4.507 C -1.827,4.393 -1.855,4.283 -1.873,4.176 l 0.018,0.023 0.835,-0.41 -0.634,-0.687 -0.228,0.11 c 0.014,-0.068 0.027,-0.135 0.04,-0.197 l 0.073,-0.037 -0.05,-0.055 c 0.02,-0.07 0.037,-0.131 0.05,-0.181 l 0.154,0.161 0.834,-0.409 -0.582,-0.631 c 0.053,-0.107 0.11,-0.22 0.175,-0.347 L -0.547,1.199 -0.851,0.865 c 0.027,-0.048 0.051,-0.098 0.08,-0.15 l 0.375,0.41 0.834,-0.41 -0.591,-0.639 -0.372,0.183 c 0.048,-0.082 0.092,-0.166 0.138,-0.251 l 0.119,-0.059 z" />
      </g>
      <g
         id="g2550">
        <g
           id="g2552" />
        <g
           id="g2564">
          <g
             style="opacity:0.39999396"
             id="g2562"
             clip-path="url(#clipPath2556)">
            <g
               id="g2560"
               transform="translate(2412.0391,3160.7402)">
              <path
                 inkscape:connector-curvature="0"
                 id="path2558"
                 style="fill:#f5f5f5;fill-opacity:1;fill-rule:nonzero;stroke:none"
                 d="M 0,0 H 0.009 C -0.009,-0.015 -0.023,-0.025 -0.041,-0.038 -0.026,-0.025 -0.016,-0.015 0,0" />
            </g>
          </g>
        </g>
      </g>
      <g
         id="g2566">
        <g
           id="g2568" />
        <g
           id="g2580">
          <g
             style="opacity:0.39999396"
             id="g2578"
             clip-path="url(#clipPath2572)">
            <g
               id="g2576"
               transform="translate(2412.0479,3160.7402)">
              <path
                 inkscape:connector-curvature="0"
                 id="path2574"
                 style="fill:#f5f5f5;fill-opacity:1;fill-rule:nonzero;stroke:none"
                 d="m 0,0 c 0.021,0.013 0.035,0.024 0.06,0.04 1.68,0.649 4.304,-1.392 7.358,-4.62 1.997,-2.188 4.101,-3.19 4.591,-3.022 0.957,0.651 2.445,-0.811 5.088,-1.701 1.998,-0.894 74.558,-41.209 87.724,-48.401 16.38,-8.945 44.203,-10.727 41.993,-15.925 0.243,-1.216 -6.875,-6.15 -7.596,-6.472 0,0 -0.895,-3.945 -3.055,-2.244 -4.242,3.728 -8.783,10.35 -22.939,17.886 -9.562,5.271 -85.409,47.639 -92.691,51.369 -2.797,1.376 -7.005,3.346 -7.596,3.159 -1.12,-0.324 -0.1,-1.997 -0.64,-1.54 C 9.325,-7.801 3.211,0.254 0,0" />
            </g>
          </g>
        </g>
      </g>
      <g
         id="g2582">
        <g
           id="g2584" />
        <g
           id="g2596">
          <g
             style="opacity:0.46000701"
             id="g2594"
             clip-path="url(#clipPath2588)">
            <g
               id="g2592"
               transform="translate(2562.667,3071.4375)">
              <path
                 inkscape:connector-curvature="0"
                 id="path2590"
                 style="fill:#7f7f7f;fill-opacity:1;fill-rule:nonzero;stroke:none"
                 d="m 0,0 c 0,0 1.296,-1.339 -1.547,-1.976 -3.107,-0.699 -6.441,-0.769 -7.682,-0.236 -1.241,0.535 -3.364,3.433 -3.769,4.648 -0.407,1.217 0.867,1.364 2.788,1.381 2.969,0.025 4.729,0.087 6.354,-0.234 C -2.343,3.286 -1.071,1.543 0,0" />
            </g>
          </g>
        </g>
      </g>
      <g
         transform="translate(2561.499,3071.5801)"
         id="g2598">
        <path
           inkscape:connector-curvature="0"
           id="path2600"
           style="fill:#394b5b;fill-opacity:1;fill-rule:nonzero;stroke:none"
           d="m 0,0 c 0,0 1.059,-1.095 -1.265,-1.615 -2.533,-0.569 -5.261,-0.63 -6.271,-0.194 -1.016,0.438 -2.749,2.806 -3.083,3.797 -0.327,0.992 0.71,1.115 2.281,1.129 2.422,0.019 3.859,0.07 5.19,-0.191 C -1.914,2.682 -0.873,1.258 0,0" />
      </g>
      <g
         transform="translate(2420.9844,3137.5723)"
         id="g2602">
        <path
           inkscape:connector-curvature="0"
           id="path2604"
           style="fill:#747a8c;fill-opacity:1;fill-rule:nonzero;stroke:none"
           d="m 0,0 c -0.624,0 -1.273,0.611 -1.579,1.484 -0.36,1.052 -0.104,2.064 0.585,2.31 0.096,0.037 0.198,0.053 0.301,0.053 0.625,0 1.273,-0.609 1.576,-1.484 C 1.249,1.314 0.992,0.3 0.302,0.051 0.204,0.019 0.104,0 0,0" />
      </g>
      <g
         transform="translate(2516.124,3103.4043)"
         id="g2606">
        <path
           inkscape:connector-curvature="0"
           id="path2608"
           style="fill:#394b5b;fill-opacity:1;fill-rule:nonzero;stroke:none"
           d="m 0,0 c -0.28,-0.338 -0.464,-0.751 -0.585,-1.172 -0.123,-0.423 -0.188,-0.862 -0.211,-1.304 -0.032,-0.873 0.001,-1.757 -0.127,-2.598 -0.037,-0.211 -0.094,-0.402 -0.184,-0.596 -0.091,-0.208 -0.14,-0.463 -0.134,-0.692 0.017,-0.459 0.091,-0.886 0.14,-1.319 0.091,-0.865 0.23,-1.746 0.412,-2.601 0.383,-1.71 0.847,-3.396 1.361,-5.068 0.258,-0.835 0.526,-1.664 0.807,-2.491 0.118,-0.407 0.209,-0.838 0.235,-1.27 0.021,-0.213 0.004,-0.619 -0.016,-0.798 -0.008,-0.147 0.01,-0.15 0.048,-0.192 -0.002,0.042 0.026,0.128 0.035,0.346 0.005,0.213 0.031,0.427 0.022,0.649 -0.003,0.442 -0.066,0.875 -0.17,1.315 -0.253,0.834 -0.493,1.672 -0.724,2.512 -0.467,1.681 -0.928,3.366 -1.283,5.067 -0.191,0.85 -0.334,1.696 -0.438,2.569 -0.052,0.43 -0.131,0.87 -0.148,1.287 -0.013,0.207 0.028,0.387 0.104,0.584 0.083,0.204 0.145,0.436 0.178,0.657 0.056,0.45 0.056,0.887 0.056,1.327 l -0.02,1.309 c 0,0.857 0.153,1.75 0.642,2.479" />
      </g>
      <g
         transform="translate(2491.8018,3116.6167)"
         id="g2610">
        <path
           inkscape:connector-curvature="0"
           id="path2612"
           style="fill:#394b5b;fill-opacity:1;fill-rule:nonzero;stroke:none"
           d="M 0,0 C -0.28,-0.336 -0.459,-0.749 -0.585,-1.168 -0.71,-1.593 -0.775,-2.032 -0.798,-2.474 -0.829,-3.346 -0.797,-4.232 -0.923,-5.072 -0.96,-5.283 -1.018,-5.475 -1.106,-5.668 -1.2,-5.876 -1.25,-6.13 -1.241,-6.361 c 0.019,-0.46 0.092,-0.885 0.138,-1.318 0.095,-0.866 0.23,-1.746 0.416,-2.601 0.379,-1.71 0.843,-3.399 1.357,-5.068 0.261,-0.834 0.525,-1.666 0.81,-2.494 0.119,-0.404 0.209,-0.838 0.234,-1.268 0.021,-0.214 0.015,-0.156 -0.004,-0.335 -0.01,-0.146 0.004,-0.149 0.048,-0.192 -0.009,0.043 0.023,0.129 0.031,0.345 0.008,0.214 0.02,-0.035 0.014,0.187 -0.004,0.444 -0.068,0.876 -0.171,1.316 -0.252,0.834 -0.492,1.671 -0.725,2.512 -0.465,1.681 -0.928,3.365 -1.282,5.065 -0.194,0.853 -0.335,1.698 -0.437,2.57 -0.052,0.43 -0.132,0.871 -0.15,1.286 -0.009,0.208 0.027,0.391 0.104,0.585 0.085,0.203 0.146,0.435 0.177,0.659 0.062,0.448 0.057,0.886 0.057,1.325 l -0.018,1.309 C -0.641,-1.621 -0.487,-0.725 0,0" />
      </g>
      <g
         transform="translate(2447.1025,3141.0938)"
         id="g2614">
        <path
           inkscape:connector-curvature="0"
           id="path2616"
           style="fill:#466372;fill-opacity:1;fill-rule:nonzero;stroke:none"
           d="m 0,0 c -0.277,-0.337 -0.455,-0.751 -0.581,-1.169 -0.124,-0.426 -0.191,-0.863 -0.212,-1.306 -0.034,-0.874 0,-1.757 -0.129,-2.599 -0.035,-0.21 -0.093,-0.402 -0.179,-0.595 -0.094,-0.208 -0.147,-0.463 -0.133,-0.696 0.015,-0.457 0.09,-0.882 0.137,-1.316 0.09,-0.865 0.227,-1.748 0.412,-2.6 0.38,-1.71 0.844,-3.399 1.359,-5.069 0.259,-0.834 0.528,-1.665 0.809,-2.494 0.12,-0.403 0.21,-0.837 0.235,-1.267 0.021,-0.215 0.015,-0.155 -0.006,-0.334 -0.008,-0.148 0.006,-0.153 0.045,-0.193 -0.005,0.04 0.025,0.129 0.038,0.345 0.005,0.213 0.018,-0.038 0.011,0.186 -0.003,0.445 -0.067,0.877 -0.171,1.316 -0.25,0.834 -0.491,1.671 -0.726,2.512 -0.464,1.681 -0.924,3.364 -1.281,5.065 -0.191,0.853 -0.33,1.697 -0.436,2.571 -0.054,0.43 -0.129,0.869 -0.153,1.284 -0.007,0.207 0.03,0.392 0.107,0.584 0.083,0.207 0.146,0.438 0.176,0.662 0.062,0.446 0.058,0.886 0.058,1.324 l -0.018,1.31 c 0,0.856 0.156,1.75 0.638,2.479" />
      </g>
      <g
         transform="translate(2430.8184,3151.0952)"
         id="g2618">
        <path
           inkscape:connector-curvature="0"
           id="path2620"
           style="fill:#466372;fill-opacity:1;fill-rule:nonzero;stroke:none"
           d="m 0,0 c -1.119,-0.703 -1.845,-1.69 -2.107,-2.615 -0.221,-0.938 -0.164,-1.901 -0.041,-2.836 0.272,-1.882 0.947,-3.665 1.7,-5.383 0.788,-1.711 1.673,-3.36 2.589,-4.997 0.461,-0.812 0.943,-1.618 1.383,-2.439 0.202,-0.412 0.449,-0.823 0.513,-1.273 C 4.112,-20 4.06,-20.12 4.126,-20.591 l 0.042,0.006 c -0.042,0.465 0.031,0.579 -0.022,1.054 -0.015,0.243 -0.097,0.473 -0.181,0.695 -0.086,0.222 -0.184,0.435 -0.291,0.646 -0.418,0.844 -0.874,1.66 -1.31,2.488 -0.881,1.644 -1.754,3.306 -2.522,5.001 -0.773,1.694 -1.429,3.455 -1.752,5.288 -0.149,0.909 -0.226,1.856 -0.047,2.76 C -1.755,-1.75 -0.959,-0.703 0,0" />
      </g>
      <g
         transform="translate(2436.3789,3129.8311)"
         id="g2622">
        <path
           inkscape:connector-curvature="0"
           id="path2624"
           style="fill:#394b5b;fill-opacity:1;fill-rule:nonzero;stroke:none"
           d="m 0,0 c 2.949,-1.746 66.349,-37.671 69.33,-39.354 l 8.913,-5.116 4.45,-2.571 2.434,-1.485 c 1.09,-0.787 -0.871,0.413 -0.867,0.411 l -1.642,0.937 -4.494,2.491 c -2.995,1.666 -5.973,3.357 -8.952,5.05 -2.969,1.71 -66.373,37.632 -69.296,39.425 -2.925,1.789 -5.832,3.603 -8.71,5.465 z" />
      </g>
      <g
         transform="translate(2446.0918,3157.4434)"
         id="g2626">
        <path
           inkscape:connector-curvature="0"
           id="path2628"
           style="fill:#e5e5e5;fill-opacity:1;fill-rule:nonzero;stroke:none"
           d="m 0,0 c 0,0 -4.669,2.84 -11.018,0.096 l -9.897,-4.352 -1.216,0.85 c 0,0 17.368,9.841 19.795,11.45 C 0.094,9.653 0,0 0,0" />
      </g>
      <g
         id="g2630">
        <g
           id="g2632" />
        <g
           id="g2644">
          <g
             style="opacity:0.46000701"
             id="g2642"
             clip-path="url(#clipPath2636)">
            <g
               id="g2640"
               transform="translate(2466.0732,3177.6621)">
              <path
                 inkscape:connector-curvature="0"
                 id="path2638"
                 style="fill:#9b9b9b;fill-opacity:1;fill-rule:nonzero;stroke:none"
                 d="m 0,0 c 0,0 -7.222,3.405 -18.303,-0.504 -11.079,-3.913 -23.902,-10.094 -26.143,-14.637 -2.242,-4.541 0.994,-7.191 0.994,-7.191 z" />
            </g>
          </g>
        </g>
      </g>
      <g
         transform="translate(2513.1602,3110.6978)"
         id="g2646">
        <path
           inkscape:connector-curvature="0"
           id="path2648"
           style="fill:#e5e5e5;fill-opacity:1;fill-rule:nonzero;stroke:none"
           d="m 0,0 c 1.87,-3.932 3.655,-7.686 3.655,-7.686 0,0 2.761,-0.731 4.025,-0.875 2.518,-0.283 5.181,-1.04 12.692,2.415 3.879,1.781 21.65,12.247 24.61,14.192 2.336,1.536 3.523,3.155 3.362,4.29 -0.162,1.134 -0.871,1.767 -0.871,1.767 0,0 -6.601,8.967 -9.528,11.608 -3.675,3.322 -5.148,2.097 -6.909,1.45 C 29.276,26.511 4.471,14.629 0.236,12.113 -2.085,10.735 -3.014,9.667 -3.014,8.425 -3.014,7.451 -2.168,4.562 0,0" />
      </g>
      <g
         transform="translate(2552.4121,3135.0181)"
         id="g2650">
        <path
           inkscape:connector-curvature="0"
           id="path2652"
           style="fill:#e5e5e5;fill-opacity:1;fill-rule:nonzero;stroke:none"
           d="m 0,0 c 0,0 -1.643,2.591 -6.971,5.932 -9.463,5.928 -63.249,36.209 -66.671,37.595 -9.648,3.91 -36.474,-10.565 -40.024,-15.015 -4.302,-5.388 40.306,-26.335 71.867,-44.124 C -40.164,-16.533 -7.716,8.958 0,0" />
      </g>
      <g
         transform="translate(2515.3721,3116.5371)"
         id="g2654">
        <path
           inkscape:connector-curvature="0"
           id="path2656"
           style="fill:#466372;fill-opacity:1;fill-rule:nonzero;stroke:none"
           d="m 0,0 c -0.977,1.662 -1.153,2.921 1.746,4.66 3.85,2.31 25.896,15.838 27.464,16.494 1.563,0.657 4.033,-1.033 7.119,-4.48 2.037,-2.281 6.979,-8.939 6.979,-8.939 0,0 1.573,-2.109 0.015,-3.487 C 42.775,3.763 42.513,3.651 40.097,2.211 37.29,0.54 27.878,-4.941 24.474,-6.793 21.069,-8.646 15.237,-11.857 11.947,-13.092 8.673,-14.319 7.11,-11.767 7.11,-11.767 4.806,-8.172 5.239,-8.597 3.935,-6.555 1.411,-2.601 0.46,-0.79 0,0" />
      </g>
      <g
         transform="translate(2516.8154,3103.0117)"
         id="g2658">
        <path
           inkscape:connector-curvature="0"
           id="path2660"
           style="fill:#466372;fill-opacity:1;fill-rule:nonzero;stroke:none"
           d="m 0,0 c 0,0 -3.368,12.958 -6.856,16.741 -3.487,3.787 -63.247,37.408 -66.856,39.3 -3.611,1.892 -17.927,-5.865 -17.927,-5.865 z" />
      </g>
      <g
         transform="translate(2516.9141,3103.0366)"
         id="g2662">
        <path
           inkscape:connector-curvature="0"
           id="path2664"
           style="fill:#fcfcfc;fill-opacity:1;fill-rule:nonzero;stroke:none"
           d="M 0,0 C 0,0 -2.269,3.208 -3.039,4.054 -4.04,5.146 -5.4,5.513 -6.48,5.229 -7.561,4.942 -9.354,4.26 -10.243,3.365 c -0.755,-0.77 -0.956,-2.11 0.042,-2.676 0.998,-0.566 2.36,-0.608 3.68,-0.527 1.324,0.081 2.481,0.284 2.92,0.447 0.301,0.109 0.802,0.162 1.242,-0.324 0.439,-0.489 1.078,-1.419 1.638,-1.419 0.56,0 1.2,0.283 0.721,1.134" />
      </g>
      <g
         id="g2666">
        <g
           id="g2668" />
        <g
           id="g2680">
          <g
             style="opacity:0.28999299"
             id="g2678"
             clip-path="url(#clipPath2672)">
            <g
               id="g2676"
               transform="translate(2506.4766,3106.1689)">
              <path
                 inkscape:connector-curvature="0"
                 id="path2674"
                 style="fill:#d6d6d6;fill-opacity:1;fill-rule:nonzero;stroke:none"
                 d="M 0,0 C 0.925,0.225 4.153,0.907 5.876,-0.011 6.714,-0.458 6.88,-1.058 4.596,-1.471 2.33,-1.881 0.557,-2.042 -0.165,-2.095 -0.618,-1.512 -0.479,-0.639 0,0" />
            </g>
          </g>
        </g>
      </g>
      <g
         id="g2682">
        <g
           id="g2684" />
        <g
           id="g2696">
          <g
             style="opacity:0.46000701"
             id="g2694"
             clip-path="url(#clipPath2688)">
            <g
               id="g2692"
               transform="translate(2430.7773,3133.8848)">
              <path
                 inkscape:connector-curvature="0"
                 id="path2690"
                 style="fill:#9b9b9b;fill-opacity:1;fill-rule:nonzero;stroke:none"
                 d="M 0,0 C -0.127,9.083 -4.73,13.624 -4.73,13.624 L 96.364,-41.509 c 0,0 -9.09,3.28 -7.345,-9.335 z" />
            </g>
          </g>
        </g>
      </g>
      <g
         transform="translate(2518.4785,3111.3608)"
         id="g2698">
        <path
           inkscape:connector-curvature="0"
           id="path2700"
           style="fill:#466372;fill-opacity:1;fill-rule:nonzero;stroke:none"
           d="m 0,0 c 0,0 -2.543,5.366 -8.332,10.852 -3.593,3.408 -64.865,39.427 -67.106,40.435 -2.24,1.009 -4.67,1.137 -4.67,1.137 0,0 1.805,0.947 5.045,-0.315 3.237,-1.262 64.987,-38.53 67.227,-40.499 C -1.733,6.248 0,0 0,0" />
      </g>
      <g
         transform="translate(2553.0381,3131.4863)"
         id="g2702">
        <path
           inkscape:connector-curvature="0"
           id="path2704"
           style="fill:#466372;fill-opacity:1;fill-rule:nonzero;stroke:none"
           d="m 0,0 c 0,0 -1.126,1.27 -7.035,6.623 -3.668,3.322 -64.028,36.963 -66.172,38.166 -4.173,2.333 -7.158,2.838 -7.158,2.838 0,0 1.403,0.367 4.667,-0.821 C -72.433,45.62 -8.645,9.306 -6.538,7.191 -0.871,1.515 0,0 0,0" />
      </g>
      <g
         transform="translate(2438.9326,3163.7852)"
         id="g2706">
        <path
           inkscape:connector-curvature="0"
           id="path2708"
           style="fill:#466372;fill-opacity:1;fill-rule:nonzero;stroke:none"
           d="m 0,0 c 18.734,13.309 33.74,15.328 33.74,15.328 0,0 -7.798,-0.26 -14.568,-2.585 C 9.341,9.361 -5.962,0.55 -15.115,-7.391 c -0.181,-0.154 0.009,-0.439 0.219,-0.328 z" />
      </g>
      <g
         transform="translate(2491.8457,3116.6323)"
         id="g2710">
        <path
           inkscape:connector-curvature="0"
           id="path2712"
           style="fill:#283c44;fill-opacity:1;fill-rule:nonzero;stroke:none"
           d="m 0,0 -44.589,24.491 c 1.231,6.932 3.876,11.026 5.331,12.647 C -28.434,31.046 -8.622,19.721 4.294,12.047 2.801,9.872 1.027,6.433 0,0" />
      </g>
      <g
         transform="translate(2494.2109,3128.9326)"
         id="g2714">
        <path
           inkscape:connector-curvature="0"
           id="path2716"
           style="fill:#9fa7aa;fill-opacity:1;fill-rule:nonzero;stroke:none"
           d="m 0,0 -0.871,0.41 c 0,0 -3.083,-5.175 -3.86,-10.598 l 0.715,-0.472 c 0,0 1.709,8.135 4.016,10.66" />
      </g>
      <g
         transform="translate(2492.4668,3129.8154)"
         id="g2718">
        <path
           inkscape:connector-curvature="0"
           id="path2720"
           style="fill:#9fa7aa;fill-opacity:1;fill-rule:nonzero;stroke:none"
           d="m 0,0 -0.904,0.504 c 0,0 -3.077,-5.173 -3.859,-10.596 l 0.782,-0.474 c 0,0 1.678,8.043 3.981,10.566" />
      </g>
      <g
         transform="translate(2490.6943,3130.8228)"
         id="g2722">
        <path
           inkscape:connector-curvature="0"
           id="path2724"
           style="fill:#9fa7aa;fill-opacity:1;fill-rule:nonzero;stroke:none"
           d="m 0,0 -0.903,0.505 c 0,0 -3.08,-5.172 -3.859,-10.596 l 0.779,-0.473 c 0,0 1.679,8.042 3.983,10.564" />
      </g>
      <g
         transform="translate(2457.7539,3149.3564)"
         id="g2726">
        <path
           inkscape:connector-curvature="0"
           id="path2728"
           style="fill:#9fa7aa;fill-opacity:1;fill-rule:nonzero;stroke:none"
           d="m 0,0 -0.855,0.442 c 0,0 -3.267,-5.056 -4.239,-10.449 l 0.698,-0.5 c 0,0 2.003,8.07 4.396,10.507" />
      </g>
      <g
         transform="translate(2456.042,3150.3042)"
         id="g2730">
        <path
           inkscape:connector-curvature="0"
           id="path2732"
           style="fill:#9fa7aa;fill-opacity:1;fill-rule:nonzero;stroke:none"
           d="m 0,0 -0.883,0.537 c 0,0 -3.265,-5.056 -4.237,-10.449 l 0.761,-0.502 c 0,0 1.967,7.975 4.359,10.414" />
      </g>
      <g
         transform="translate(2454.3047,3151.3774)"
         id="g2734">
        <path
           inkscape:connector-curvature="0"
           id="path2736"
           style="fill:#9fa7aa;fill-opacity:1;fill-rule:nonzero;stroke:none"
           d="m 0,0 -0.883,0.538 c 0,0 -3.265,-5.057 -4.234,-10.449 l 0.759,-0.501 c 0,0 1.967,7.974 4.358,10.412" />
      </g>
      <g
         transform="translate(2430.4141,3146.6924)"
         id="g2738">
        <path
           inkscape:connector-curvature="0"
           id="path2740"
           style="fill:#727272;fill-opacity:1;fill-rule:nonzero;stroke:none"
           d="m 0,0 c -0.245,0.144 -0.443,0.03 -0.447,-0.257 0,-0.282 0.196,-0.629 0.442,-0.77 l 1.963,-1.14 C 2.204,-2.31 2.4,-2.194 2.4,-1.91 c 0,0.283 -0.194,0.629 -0.44,0.773 z" />
      </g>
      <g
         transform="translate(2493.0273,3112.9409)"
         id="g2742">
        <path
           inkscape:connector-curvature="0"
           id="path2744"
           style="fill:#727272;fill-opacity:1;fill-rule:nonzero;stroke:none"
           d="m 0,0 c -0.244,0.143 -0.443,0.029 -0.443,-0.258 0,-0.282 0.194,-0.627 0.442,-0.772 l 1.963,-1.137 c 0.242,-0.144 0.44,-0.027 0.442,0.255 0,0.285 -0.195,0.631 -0.441,0.771 z" />
      </g>
      <g
         transform="translate(2540.0645,3108.7163)"
         id="g2746">
        <path
           inkscape:connector-curvature="0"
           id="path2748"
           style="fill:#c6c6c6;fill-opacity:1;fill-rule:nonzero;stroke:none"
           d="m 0,0 c -0.24,0.13 -0.245,0.469 -0.028,0.641 1.495,1.143 6.379,5.525 10.577,11.917 0,0 -1.846,-5.698 -9.605,-12.432 C 0.681,-0.103 0.306,-0.167 0,0" />
      </g>
      <g
         transform="translate(2543.7637,3113.6772)"
         id="g2750">
        <path
           inkscape:connector-curvature="0"
           id="path2752"
           style="fill:#3d3d3d;fill-opacity:1;fill-rule:nonzero;stroke:none"
           d="M 0,0 C 5.916,4.331 9.81,12.492 9.85,12.576 L 9.511,12.743 C 9.469,12.661 5.62,4.582 -0.221,0.311 Z" />
      </g>
      <g
         transform="translate(2543.7207,3113.7515)"
         id="g2754">
        <path
           inkscape:connector-curvature="0"
           id="path2756"
           style="fill:#e5e5e5;fill-opacity:1;fill-rule:nonzero;stroke:none"
           d="m 0,0 c 0.117,-0.164 0.341,-0.226 0.498,-0.102 5.091,3.865 8.695,10.553 9.498,12.123 0.093,0.187 0.014,0.413 -0.169,0.503 C 9.783,12.442 5.84,4.27 0,0" />
      </g>
      <g
         transform="translate(2530.0938,3103.7368)"
         id="g2758">
        <path
           inkscape:connector-curvature="0"
           id="path2760"
           style="fill:#c6c6c6;fill-opacity:1;fill-rule:nonzero;stroke:none"
           d="m 0,0 c -0.213,0.17 -0.166,0.507 0.076,0.637 1.66,0.883 7.176,4.405 12.34,10.025 0,0 -2.732,-5.32 -11.462,-10.689 C 0.655,-0.212 0.275,-0.215 0,0" />
      </g>
      <g
         transform="translate(2534.9424,3108.6431)"
         id="g2762">
        <path
           inkscape:connector-curvature="0"
           id="path2764"
           style="fill:#3d3d3d;fill-opacity:1;fill-rule:nonzero;stroke:none"
           d="m 0,0 c 6.545,3.272 11.726,10.662 11.78,10.736 l -0.309,0.222 C 11.419,10.883 6.292,3.569 -0.168,0.342 Z" />
      </g>
      <g
         transform="translate(2534.9121,3108.7231)"
         id="g2766">
        <path
           inkscape:connector-curvature="0"
           id="path2768"
           style="fill:#e5e5e5;fill-opacity:1;fill-rule:nonzero;stroke:none"
           d="m 0,0 c 0.087,-0.181 0.297,-0.278 0.473,-0.186 5.654,2.954 10.308,8.938 11.361,10.353 0.121,0.165 0.08,0.403 -0.087,0.523 C 11.696,10.615 6.461,3.226 0,0" />
      </g>
      <g
         transform="translate(2563.7559,3082.2334)"
         id="g2770">
        <path
           inkscape:connector-curvature="0"
           id="path2772"
           style="fill:#9aa8b7;fill-opacity:1;fill-rule:nonzero;stroke:none"
           d="m 0,0 c 0,0 -0.769,3.878 -2.544,4.6 -1.017,0.412 -2.369,-1.7 -8.465,-3.541 -1.489,-0.448 -5.11,0.8 -6.214,-1.438 -0.924,-1.872 1.067,-5.818 6.571,-4.738 C -6.667,-4.335 0.531,-2.299 0,0" />
      </g>
      <g
         transform="translate(2552.9834,3082.543)"
         id="g2774">
        <path
           inkscape:connector-curvature="0"
           id="path2776"
           style="fill:#c3cdd1;fill-opacity:1;fill-rule:nonzero;stroke:none"
           d="M 0,0 C 5.263,1.588 7.319,4.189 8.229,3.388 9.46,2.217 9.65,0.171 9.65,0.171 10.181,-2.128 3.019,-4.407 -1.003,-4.945 -2.056,-5.088 -3.03,-4.927 -3.906,-4.647 -5.483,-3.919 -6.184,-2.251 -5.622,-1.109 -4.655,0.85 -1.49,-0.448 0,0" />
      </g>
      <g
         transform="translate(2552.1309,3082.1597)"
         id="g2778">
        <path
           inkscape:connector-curvature="0"
           id="path2780"
           style="fill:#dae2e5;fill-opacity:1;fill-rule:nonzero;stroke:none"
           d="m 0,0 c 0,0 -3.755,0.609 -4.355,-0.522 -0.604,-1.132 -0.03,-3.309 2.721,-3.744 2.746,-0.436 3.9,0.712 4.182,1.015 C 2.976,-2.788 3.867,-0.813 0,0" />
      </g>
      <g
         transform="translate(2551.4238,3081.9897)"
         id="g2782">
        <path
           inkscape:connector-curvature="0"
           id="path2784"
           style="fill:#e8edef;fill-opacity:1;fill-rule:nonzero;stroke:none"
           d="M 0,0 C 0,0 -3.164,0.514 -3.67,-0.44 -4.179,-1.396 -3.696,-3.234 -1.377,-3.601 0.943,-3.97 1.917,-3 2.152,-2.744 2.516,-2.352 3.265,-0.687 0,0" />
      </g>
      <g
         transform="translate(2559.8887,3085.2837)"
         id="g2786">
        <path
           inkscape:connector-curvature="0"
           id="path2788"
           style="fill:#e8edef;fill-opacity:1;fill-rule:nonzero;stroke:none"
           d="M 0,0 C 0,0 1.381,0.709 2.104,-1.74 2.82,-4.187 0.022,-4.782 -0.353,-4.889 -3.464,-5.787 -5.326,-1.919 0,0" />
      </g>
      <g
         transform="translate(2585.3584,3100.207)"
         id="g2790">
        <path
           inkscape:connector-curvature="0"
           id="path2792"
           style="fill:#9aa8b7;fill-opacity:1;fill-rule:nonzero;stroke:none"
           d="m 0,0 c 0,0 -1.296,-0.767 1.304,-4.2 0.65,-0.859 4.521,1.071 4.393,2.627 C 5.578,-0.135 4.553,2.978 4.187,3.897 4.072,4.198 3.968,2.038 0,0" />
      </g>
      <g
         transform="translate(2585.9355,3099.937)"
         id="g2794">
        <path
           inkscape:connector-curvature="0"
           id="path2796"
           style="fill:#c3cdd1;fill-opacity:1;fill-rule:nonzero;stroke:none"
           d="M 0,0 C 0,0 -1.266,-0.61 1.099,-3.468 1.535,-3.992 5.261,-1.751 4.967,-0.221 4.682,1.27 4.314,2.295 3.952,3.218 3.834,3.519 3.729,1.799 0,0" />
      </g>
      <g
         transform="translate(2588.5859,3101.2266)"
         id="g2798">
        <path
           inkscape:connector-curvature="0"
           id="path2800"
           style="fill:#e8edef;fill-opacity:1;fill-rule:nonzero;stroke:none"
           d="M 0,0 C 0,0 1.184,0.93 1.599,-0.18 1.964,-1.165 2.457,-2.219 0.767,-3.45 -0.779,-4.576 -1.537,-4.638 -2.28,-3.058 -2.901,-1.74 -1.511,-1.082 0,0" />
      </g>
    </g>
  </g>
</svg>
