<svg enable-background="new 0 0 560 480" viewBox="0 0 560 480" xmlns="http://www.w3.org/2000/svg"><path d="m337.8 448.4 163.5-81.7-337.9-168.3-163.4 81.7z" opacity=".3"/><path d="m35.4 274.8 67.7-18.8-46.7-26.8-27.7 23.7z"/><path d="m256.9 387.1 67.7-18.8-46.7-26.9-27.7 23.8z"/><path d="m296.6 355.6c-7.8-3.9-14.8-4.3-20-2l-10.9 5.9c-5.6 2.5-9.1 8.2-9.1 16.6 0 16.1 13 35.6 29.1 43.7 8 4 15.2 4.4 20.4 1.8 0 0 10.9-5.8 12-6.5 4.7-2.8 7.6-8.2 7.6-15.8 0-16.1-13-35.7-29.1-43.7z" fill="#2d3134"/><path d="m306.4 421.3c2.1-1 10.6-5.7 11.7-6.3 4.7-2.8 7.6-8.2 7.6-15.8 0-6.5-2.1-13.5-5.7-20.1l-10.9 5.9c3.6 6.6 5.7 13.6 5.7 20.1 0 8-3.2 13.6-8.4 16.2z" opacity=".29"/><path d="m314.8 405.1c0 16.1-13 22.6-29.1 14.6s-29.1-27.6-29.1-43.7 13-22.6 29.1-14.6 29.1 27.7 29.1 43.7z" fill="#2d3134"/><path d="m308.4 402c0 12.6-10.2 17.7-22.7 11.4-12.6-6.3-22.7-21.6-22.7-34.1s10.2-17.7 22.7-11.4c12.5 6.2 22.7 21.5 22.7 34.1z" fill="#e5e5e5"/><g fill="#2d3134"><path d="m300.6 412c3.4-2 5.5-5.8 5.5-11.2 0-.4 0-.9 0-1.3l-12.7-2z"/><path d="m290.4 387 13.3 2.9c-2.8-6.6-7.8-13-13.8-17.3z"/><path d="m280.9 382.3.4-13.9c-6-1.7-11-.3-13.8 3.5z"/><path d="m265.2 379.1v1.3c0 5.4 2.1 11.4 5.5 16.7l7.3-7.2z"/><path d="m285.7 399.3-7.8 6.3c2.4 2.2 5 4.1 7.8 5.4s5.4 2.1 7.8 2.4z"/></g><path d="m314.8 405.1c0 16.1-13 22.6-29.1 14.6s-29.1-27.6-29.1-43.7 13-22.6 29.1-14.6c16 8.1 29.1 27.7 29.1 43.7z" opacity=".11"/><path d="m75.6 246.1c-7.8-3.9-14.8-4.3-20-2l-10.9 5.9c-5.6 2.5-9.1 8.2-9.1 16.6 0 16.1 13 35.6 29.1 43.7 8 4 15.2 4.4 20.4 1.8 0 0 10.9-5.8 12-6.5 4.7-2.8 7.6-8.2 7.6-15.8 0-16.1-13-35.7-29.1-43.7z" fill="#2d3134"/><path d="m85.4 311.9c2.1-1 10.6-5.7 11.7-6.3 4.7-2.8 7.6-8.2 7.6-15.8 0-6.5-2.1-13.5-5.7-20.1l-10.9 5.9c3.6 6.6 5.7 13.6 5.7 20.1 0 7.9-3.2 13.5-8.4 16.2z" opacity=".29"/><path d="m93.8 295.7c0 16.1-13 22.6-29.1 14.6s-29.1-27.6-29.1-43.7 13-22.6 29.1-14.6 29.1 27.6 29.1 43.7z" fill="#2d3134"/><path d="m87.5 292.5c0 12.6-10.2 17.7-22.7 11.4-12.7-6.3-22.8-21.6-22.8-34.1s10.2-17.7 22.7-11.4c12.6 6.3 22.8 21.5 22.8 34.1z" fill="#e5e5e5"/><path d="m79.7 302.6c3.4-2 5.5-5.8 5.5-11.2 0-.4 0-.9 0-1.3l-12.7-2z" fill="#2d3134"/><path d="m69.5 277.6 13.3 2.9c-2.8-6.6-7.8-13-13.8-17.3z" fill="#2d3134"/><path d="m60 272.8.4-13.9c-6-1.7-11-.3-13.8 3.5z" fill="#2d3134"/><path d="m44.3 269.6v1.3c0 5.4 2.1 11.4 5.5 16.7l7.3-7.2z" fill="#2d3134"/><path d="m64.7 289.8-7.8 6.3c2.4 2.2 5 4.1 7.8 5.4 2.8 1.4 5.4 2.1 7.8 2.4z" fill="#2d3134"/><path d="m93.8 295.7c0 16.1-13 22.6-29.1 14.6s-29.1-27.6-29.1-43.7 13-22.6 29.1-14.6 29.1 27.6 29.1 43.7z" opacity=".11"/><path d="m488 315.4c-1-3.7 1-8.1 0-24.3s-17.2-55.2-26.9-70.1c-9.8-14.8-166.4-89.3-191.3-98-24.9-8.8-55.9 2-73.1 5.1-17.2 3-65.3 8.1-93.3 15.8-23.7 6.6-52.5 26.3-58.3 33-5.7 6.7-10.1 19.9-14.1 26.6s-9.8 14.1-9.8 19.9c0 5.7-.3 24.3 0 34.7s13.5 16.2 13.5 16.2l.7.4c-.8-3.2-1.2-6.4-1.2-9.5 0-19.3 15.6-27.1 34.9-17.5s34.9 33.1 34.9 52.4c0 3.5-.5 6.6-1.5 9.3l154.5 77.7c-1.2-4.2-1.9-8.4-1.9-12.4 0-19.3 15.6-27.1 34.9-17.5s34.9 33.1 34.9 52.4c0 1-.1 2-.1 3 9.6 3.6 22.5 9 38.5 7.8 23.2-1.7 121.3-54.8 123.3-58.2s3.7-30.7 3.7-35.7-1.3-7.4-2.3-11.1z" fill="#fc0"/><path d="m165.1 265.2c0 4-3.2 5.6-7.2 3.6s-7.2-6.8-7.2-10.7c0-4 3.2-5.6 7.2-3.6 4 1.9 7.2 6.7 7.2 10.7z" opacity=".2"/><path d="m165.8 267.7 2.7-3.7s-23.8-12.5-25.5-9.5c-1.8 3 22.8 13.2 22.8 13.2z" fill="#fc0"/><path d="m197.4 278.4c0 4-3.2 5.6-7.2 3.6s-7.2-6.8-7.2-10.7c0-4 3.2-5.6 7.2-3.6 4 1.9 7.2 6.7 7.2 10.7z" opacity=".2"/><path d="m198.1 280.9 2.7-3.7s-23.8-12.5-25.5-9.5c-1.8 3 22.8 13.2 22.8 13.2z" fill="#fc0"/><path d="m189.6 195.7-14.1 48-96.7-38.3c-2.3-.9-2.4-4.1-.2-5.2 10.6-5.3 34.2-16.1 52.7-18 24.6-2.4 58.3 13.5 58.3 13.5z" fill="#2d3134"/><path d="m200.9 201.4 141.1 68.6c2.9 1.4 4.8 4.4 4.8 7.6v44c0 2.7-2.8 4.4-5.2 3.3-21.6-10-103.9-48.2-116.8-54.7-14.8-7.5-26.7-13.8-27.8-19.9-.9-4.7-1.2-33.1-1.3-45.6 0-2.7 2.8-4.5 5.2-3.3z" opacity=".3"/><path d="m343.1 323.2c-.2 0-.5-.1-.7-.2-24.2-11.2-104-48.2-116.7-54.7-12.1-6.2-25.8-13.1-26.8-18.5-.6-3.2-1.1-20.1-1.3-45.2 0-.6.2-.9.5-1.1.3-.3.7-.5 1.2-.5.2 0 .5.1.7.2l141.1 68.6c2.2 1.1 3.6 3.4 3.6 5.8v44c0 1-.8 1.6-1.6 1.6z" fill="#fc0"/><path d="m463.2 224.6c-4.1 4.1-16 14-45 27.3-38.8 17.7-64 23.4-64 23.4l7.6 55s20.2-1.1 64.9-24.3c39.8-20.6 52.1-30 56.1-36.6-5.2-15.7-13.3-34-19.6-44.8z" opacity=".3"/><path d="m356.4 276.7c6.5-1.6 29.8-8.1 62.6-23 25.5-11.6 37.9-20.7 43.7-25.9 6 10.8 13.1 27.2 17.9 41.3-5.1 7.3-21.6 17.9-54.8 35.1-36.4 18.8-56.4 22.9-62.2 23.8z" fill="#fc0"/><path d="m406 343.7v15.7l-31.2 10.8s-7 2-11 1.6-13-3.1-15-9.2-4.7-18-4-19.8 6.7 4.3 15.9 3.1c9.2-1.1 16.8-4.3 19-2.6s7 6.9 8.6 6.9 17.7-6.5 17.7-6.5z" fill="#cc291f"/><path d="m488 291.1c-.1-1.9-.5-4.2-1-6.6-.4 1.3-6.8 6.3-7.3 7.1s-5.6 15.5-6.9 16.7-16.3 10.4-16.3 10.4v15.3s21.2-14 25.6-17.5c2.2-1.8 4.3-4.2 5.8-6.2.3-4.3.7-10.4.1-19.2z" fill="#cc291f"/><path d="m473 308.2 15.3-11c0-1.9-.1-3.9-.3-6.1 0-.6-.1-1.1-.2-1.8l-10.3 7.9c-1.5 4.4-3.6 9.8-4.5 11z" fill="#f1f2f2"/><path d="m381.7 345c-4.8 1.5-17.1 5.4-21.6 5.8-2.5.2-8.8-2.1-8.8-2.1v6.9s3.5 2.6 8.8 1.9c5.2-.7 28.3-7.3 28.3-7.3-1.3 0-4.4-3-6.7-5.2z" fill="#f1f2f2"/><path d="m416.9 339.8v15.1l29.1-15.1v-14.7z" fill="#999"/><path d="m105.4 263.2-11.8 1.5 263.9 119.8-.2-9.8z" fill="#fff" opacity=".3"/><path d="m40 216.7 304.7 126.1 10.9 3.3-.8-15.5-140.9-66.1-163.1-64.3z" fill="#fff" opacity=".3"/><path d="m189.6 143.4c15.1-7.2 42.9-20.9 56.1-23.6-2.5.1-5 .2-7.6.5-19.6 3.7-56.4 11.2-72.7 15.8-9.6 2.7-18.2 4.4-27.4 7.3-10.9 3.4-22.8 8.7-33.4 15.4-10.6 6.6-24.9 21.4-31.2 28.2-.8.9.1 2.3 1.3 1.9 2.6-.9 5.8-2.1 8.5-2.9 5.4-1.6 37.3-12.6 58.6-13.5-.1.1 28.9-20.1 47.8-29.1z" fill="#2d3134"/><path d="m84.7 183.1c7.3-7.5 21.6-20.4 30.1-25.8 15.8-10 25.7-12.3 42.5-17.1 5.4-1.6 11.1-3.2 16.9-5 12.3-3.9 41.4-9.8 60.8-13.6-11.7 4.8-29.2 12.6-37.6 16.3-20.2 8.9-50.6 29-55.9 32.7-20.6 1.1-42.1 7.9-52.9 11.3-1.6.5-3.8 1.1-3.9 1.2z" fill="#656565"/><path d="m108.5 190.9c-9.9 3.6-22.2 9.2-27.6 11.8l18.6 7.4z" fill="#656565"/><path d="m136.6 185.3c-1.8 0-3.5.1-5.1.2-4.5.4-9.3 1.5-14.1 2.8l-3.7 27.3 59.6 23.6 12.3-41.7c-7.7-3.2-30.2-12.2-49-12.2z" fill="#656565"/><path d="m490.4 325.6c-.1-4.2-1.3-6.5-2.2-9.8l-13.6 10.4s0 10.8-5.6 18.7c-5.3 7.6-74.5 39.5-84.7 42 1.1 3.4 2.8 6.4 5.1 6.5 5.2.2 80.2-34.2 85.7-42.1 5.6-7.9 5.6-18.7 5.6-18.7l9.7-7.8c-.1.2-.1.5 0 .8z" fill="#fff" opacity=".3"/><path d="m357.5 384.5-.2-9.8 18-3.4 6.9 6.7s-13.9 7.2-18.7 8.4-6-1.9-6-1.9z" fill="#fff" opacity=".3"/><path d="m490.3 324.8-9.7 7.8s0 10.8-5.6 18.7-80.5 42.3-85.7 42.1-7.1-15.4-7.1-15.4-19.7 6.9-24.6 6.5v36h.6c1.5-.1 3.2 0 5.1-.2 23.2-1.7 121.3-54.8 123.3-58.2s3.7-30.7 3.7-35.7c.1-.5 0-1.1 0-1.6z" fill="#2d3134"/><path d="m490.3 324.8-9.7 7.8s0 10.8-5.6 18.7-80.5 42.3-85.7 42.1-7.1-15.4-7.1-15.4-19.7 6.9-24.6 6.5v36h.6c1.5-.1 3.2 0 5.1-.2 23.2-1.7 121.3-54.8 123.3-58.2s3.7-30.7 3.7-35.7c.1-.5 0-1.1 0-1.6z" opacity=".29"/><g opacity=".3"><path d="m170.5 336.3v-67.1l5.4-25.1-1-.2-5.4 25.2v66.8l-65.4-32.4-.5.9 151.6 75.1.4-.9-85.3-42.3z"/><path d="m269.1 291.4h1v61.6h-1z"/><path d="m93.1 236.4v.1 32.2h1v-32l8.6-21.2-1-.4z"/></g><path d="m21.1 258.1c.3 10.4 13.5 16.2 13.5 16.2l.7.4c-.8-3.2-1.2-6.4-1.2-9.5 0-12.1 6.2-19.7 15.5-21.3l-2.5-1.2s-22.9-8.7-26-20.6c-.1.5-.1.9-.1 1.4.1 5.7-.2 24.2.1 34.6z" fill="#2d3134"/><path d="m357.7 420.5v-34.7s0-.5-.1-1.3l-264-119.8-6.6-3.1c10.2 11.2 17.1 25.8 17.1 38.6 0 3.5-.5 6.6-1.5 9.3l154.5 77.7c-1.2-4.2-1.9-8.4-1.9-12.4 0-19.3 15.6-27.1 34.9-17.5s34.9 33.1 34.9 52.4c0 1-.1 2-.1 3 8 3 19.9 7.6 32.8 7.8z" fill="#2d3134"/><path d="m109.7 201c-4.5-1.7-15.7 10.6-13 16.3s5.2 6.9 7.1 5.9 8.9-6.2 8.9-8.3 1.1-12.3-3-13.9z" fill="#fc0"/><path d="m112.8 215c0-1.7.7-9.2-1.4-12.6-3 2-7.8 5.6-8.4 7.8-.8 3-1.6 10.7-.5 13.3.5 0 .9-.1 1.3-.3 1.9-.9 9-6.2 9-8.2z" fill="#656565"/><path d="m272.4 223.6c-48.9-22.9-92-47.5-124.3-46.6-32.3.8-55.2 13.1-72.8 14.1-14.2.8-26.8 2.5-38.4-.1-2.2 4.7-4.2 9.3-6.1 12.5-4 6.7-9.8 14.1-9.8 19.9 0 5.7-.3 24.3 0 34.7s13.5 16.2 13.5 16.2l.7.4c-.8-3.2-1.2-6.4-1.2-9.5 0-19.3 15.6-27.1 34.9-17.5s34.9 33.1 34.9 52.4c0 3.5-.5 6.6-1.5 9.3l154.5 77.7c-1.2-4.2-1.9-8.4-1.9-12.4 0-19.3 15.6-27.1 34.9-17.5s34.9 33.1 34.9 52.4c0 1-.1 2-.1 3 8.1 3.1 20 7.7 32.8 8v-34.7s-5.4-112.1-7.6-118.8c-1.9-6.7-22-17.5-77.4-43.5z" opacity=".11"/><path d="m47.2 174.8c-10.1 16.1 3.6 25.4 3.6 25.4l-10.8 16.5s-13.8-3-10.4-16.2 17.6-25.7 17.6-25.7z" fill="#fff"/><path d="m47.2 174.8c-18.5 21.4-7.2 41.9-7.2 41.9s-13.8-3-10.4-16.2 17.6-25.7 17.6-25.7z" opacity=".3"/></svg>