<svg enable-background="new 0 0 48 48" viewBox="0 0 48 48" xmlns="http://www.w3.org/2000/svg"><path d="m3 28.3 13.1-7.5 27.9 14-14 7z" opacity=".3"/><path d="m5.3 25v3.8l2.5-1.3v-3.7z" fill="#2d3134"/><path d="m5.3 25v3.8l2.5-1.3v-3.7z" opacity=".39"/><path d="m26.2 32.9c-.7-.4-1.4-.4-1.9-.2l-1.4.7c-.6.2-.9.8-.9 1.6 0 1.5 1.3 3.4 2.8 4.2.8.4 1.5.4 2 .2 0 0 1.4-.7 1.5-.8.5-.3.7-.8.7-1.5 0-1.6-1.3-3.5-2.8-4.2z" fill="#2d3134"/><path d="m26.8 39.3c.2-.1 1.4-.7 1.5-.7.5-.3.7-.8.7-1.5 0-.6-.2-1.3-.5-1.9l-1.4.7c.3.6.5 1.3.5 1.9 0 .7-.3 1.3-.8 1.5z" opacity=".39"/><path d="m26.9 37.4c0 1.2-.9 1.6-2.1 1s-2.1-2-2.1-3.2.9-1.6 2.1-1 2.1 2 2.1 3.2z" fill="#999"/><path d="m25 38.4c-1.2-.6-2.1-2-2.1-3.2 0-.6.2-1 .6-1.2-.5.1-.8.6-.8 1.2 0 1.2.9 2.6 2.1 3.2.6.3 1.1.3 1.5.1-.4.2-.8.1-1.3-.1z" opacity=".15"/><path d="m25.9 36.7c0 .5-.4.7-.9.4s-.9-.8-.9-1.3.4-.7.9-.4.9.8.9 1.3z" fill="#2d3134"/><path d="m25.9 36.7c0 .5-.4.7-.9.4s-.9-.8-.9-1.3.4-.7.9-.4.9.8.9 1.3z" opacity=".39"/><path d="m25.7 36.8c0 .5-.4.7-.9.4-.5-.2-.9-.8-.9-1.3s.4-.7.9-.4c.5.2.9.8.9 1.3z" fill="#2d3134"/><path d="m27.6 37.8c0 1.5-1.3 2.2-2.8 1.4s-2.8-2.7-2.8-4.2 1.3-2.2 2.8-1.4c1.5.7 2.8 2.6 2.8 4.2z" opacity=".06"/><path d="m9.7 24.6c-.7-.4-1.4-.4-1.9-.2l-1.4.7c-.5.2-.9.8-.9 1.6 0 1.5 1.3 3.4 2.8 4.2.8.4 1.5.4 2 .2 0 0 1.4-.7 1.5-.8.5-.3.7-.8.7-1.5 0-1.5-1.3-3.4-2.8-4.2z" fill="#2d3134"/><path d="m10.3 31.1c.2-.1 1.4-.7 1.5-.7.5-.3.7-.8.7-1.5 0-.6-.2-1.3-.5-1.9l-1.4.7c.3.6.5 1.3.5 1.9 0 .7-.3 1.2-.8 1.5z" opacity=".39"/><path d="m10.4 29.2c0 1.2-.9 1.6-2.1 1s-2.1-2-2.1-3.2.9-1.6 2.1-1 2.1 2 2.1 3.2z" fill="#999"/><path d="m8.5 30.1c-1.2-.6-2.1-2-2.1-3.2 0-.6.2-1 .6-1.2-.5.1-.8.6-.8 1.2 0 1.2.9 2.6 2.1 3.2.6.3 1.1.3 1.5.1-.4.2-.8.2-1.3-.1z" opacity=".15"/><path d="m9.4 28.5c0 .5-.4.7-.9.4-.5-.2-.9-.8-.9-1.3s.4-.7.9-.4c.5.2.9.8.9 1.3z" fill="#2d3134"/><path d="m9.4 28.5c0 .5-.4.7-.9.4-.5-.2-.9-.8-.9-1.3s.4-.7.9-.4c.5.2.9.8.9 1.3z" opacity=".39"/><path d="m9.2 28.5c0 .5-.4.7-.9.4s-.9-.8-.9-1.3.4-.7.9-.4.9.9.9 1.3z" fill="#2d3134"/><path d="m11.1 29.5c0 1.5-1.3 2.2-2.8 1.4s-2.8-2.7-2.8-4.2 1.3-2.2 2.8-1.4 2.8 2.7 2.8 4.2z" opacity=".06"/><path d="m17 1-14 7v15.3l18 9 14-7.3v-15z" fill="#f90"/><path d="m3 22v2l18 9v-2z" fill="#2d3134"/><path d="m35 24v2l-14 7v-2z" fill="#2d3134"/><path d="m3 8v16l18 9v-16z" opacity=".06"/><path d="m35 10v16l-14 7v-16z" opacity=".39"/><path d="m42 18-6-3-14 7v11.3c0 .3.4.5.7.3 1.2-1 3.3-.3 4.8 1.5.9 1.1 1.3 2.3 1.3 3.3l1.2.6 14-7v-8z" fill="#e5e5e5"/><path d="m30.4 30.5-1.7-5c-.1-.2 0-.3.2-.4l12.5-6.2c.2-.1.4 0 .5.2l1.6 4.7c.1.2 0 .3-.2.4l-12.4 6.5c-.2.1-.5 0-.5-.2z" fill="#39c"/><path d="m32.7 23.2 8.6-4.3c.2-.1.4 0 .5.2l1.5 4.4z" opacity=".15"/><path d="m43.4 23.8-.1-.3c0 .2 0 .3-.2.4l-12.4 6.5c-.2.1-.4 0-.5-.2l.1.3c.1.2.3.3.5.2l12.4-6.5c.2-.1.3-.2.2-.4z" fill="#2d3134"/><path d="m33.5 30 7-3.5v5.8l-7 3.5z" fill="#fff"/><path d="m34 35 6-3v-4.7l-6 3z" fill="#2d3134"/><path d="m44 32v-2l-14 7v2z" fill="#2d3134"/><path d="m28 38 2 1v-2l-2-1z" fill="#2d3134"/><path d="m34 35v1l6-3v-1z" fill="#fff"/><path d="m27.5 25.3-3.8-1.9c-.1-.1-.3 0-.3.2v3c0 .2.1.4.3.4l1.3.7c.1.1.2.1.3.2l1.3 1.6h.1l2.2 1.1c.1.1.3-.1.2-.2l-1.7-5c.2 0 .2-.1.1-.1z" fill="#39c"/><path d="m29.3 30.3-2-1s0 0-.1 0l-1.3-1.6c-.1-.1-.2-.2-.3-.2l-1.3-.7c-.2-.1-.3-.2-.3-.4v-2.9l-.2-.1c-.1-.1-.3 0-.3.2v3c0 .2.1.4.3.4l1.3.7c.1.1.2.1.3.2l1.3 1.6h.1l2.2 1.1c.2.1.3 0 .3-.3z" opacity=".15"/><path d="m30 35v2l-.5-.2v-2z" fill="#fc0"/><g fill="#e5e5e5"><path d="m34 31v.3l6-3v-.3z"/><path d="m34 32v.3l6-3v-.3z"/><path d="m34 33v.3l6-3v-.3z"/><path d="m34 34v.3l6-3v-.3z"/></g><path d="m23.5 28.3v.5l1 .5v-.5z" fill="#2d3134" opacity=".5"/><path d="m24.5 29.5-1-.5v-.2l1 .5z" fill="#fff" opacity=".5"/><path d="m37.5 23.9c-.1-.1-.2-.1-.3 0l-3.8 4.3c-.1.1-.1.2 0 .3s.2.1.3 0l1-1.2v1h.3v-1.3l2.5-2.9c.1 0 .1-.2 0-.2z" fill="#2d3134"/><path d="m41.1 21.9c-.1-.1-.2-.1-.3 0l-3.8 4.3c-.1.1-.1.2 0 .3s.2.1.3 0l.9-1v1.1h.3v-1.4l2.6-3c.1-.1.1-.2 0-.3z" fill="#2d3134"/><path d="m42 31 2-1v-2l-1 .5c-.6.3-1 .9-1 1.6z" fill="#fff"/><ellipse cx="42.7" cy="29.5" fill="#2d3134" opacity=".3" rx=".8" ry=".5" transform="matrix(-.6313 .7756 -.7756 -.6313 92.5986 15.0669)"/><ellipse cx="43.2" cy="29.5" fill="#2d3134" opacity=".3" rx=".8" ry=".5" transform="matrix(-.6313 .7756 -.7756 -.6313 93.4142 14.6791)"/><path d="m42 31 2-1v-2z" fill="#fff" opacity=".3"/><path d="m30 37 2-1v-.9c0-.5-.5-.8-1-.6l-1 .5z" fill="#fff"/><ellipse cx="31.2" cy="35.5" fill="#2d3134" opacity=".3" rx=".8" ry=".5" transform="matrix(-.6313 .7756 -.7756 -.6313 78.4923 33.7735)"/><ellipse cx="30.7" cy="35.5" fill="#2d3134" opacity=".3" rx=".8" ry=".5" transform="matrix(-.6313 .7756 -.7756 -.6313 77.6766 34.1613)"/><path d="m30 37 2-1-2-1z" fill="#fff" opacity=".3"/><path d="m28 25-6-3v11.3c0 .3.4.5.7.3 1.2-1 3.3-.3 4.8 1.5.3.3.5.6.6 1l-.1-.1v2l2 1v-2-6z" opacity=".06"/><path d="m42 18-14 7 2 6v8l14-7v-8z" opacity=".39"/></svg>