<svg enable-background="new 0 0 560 480" viewBox="0 0 560 480" xmlns="http://www.w3.org/2000/svg"><path d="m337.8 448.4 163.5-81.7-337.9-168.3-163.4 81.7z" opacity=".3"/><path d="m382.6 204.2s6.7-7 8.8-7.4c2-.4 7.7 8.7 5.8 13.7-1.8 5-3.6 6.7-3.6 6.7z" fill="#e5e5e5"/><path d="m43.3 272.8 67.7-18.8-46.7-26.8-23.5 22.8z"/><path d="m265.7 392.6 67.6-18.8-46.7-26.8-27.7 23.7z"/><path d="m306.7 360.8c-7.8-3.9-14.8-4.3-20-2l-10.9 5.9c-5.6 2.5-9.1 8.2-9.1 16.6 0 16.1 13 35.6 29.1 43.7 8 4 15.2 4.4 20.4 1.8 0 0 10.9-5.8 12-6.5 4.7-2.8 7.6-8.2 7.6-15.8 0-16.1-13-35.6-29.1-43.7z" fill="#2d3134"/><path d="m316.5 426.6c2.1-1 10.6-5.7 11.7-6.3 4.7-2.8 7.6-8.2 7.6-15.8 0-6.5-2.1-13.5-5.7-20.1l-10.9 5.9c3.6 6.6 5.7 13.6 5.7 20.1 0 7.9-3.2 13.6-8.4 16.2z" opacity=".29"/><path d="m324.9 410.4c0 16.1-13 22.6-29.1 14.6s-29.1-27.6-29.1-43.7 13-22.6 29.1-14.6 29.1 27.6 29.1 43.7z" fill="#2d3134"/><path d="m318.6 407.2c0 12.6-10.2 17.7-22.7 11.4s-22.7-21.6-22.7-34.1 10.2-17.7 22.7-11.4 22.7 21.6 22.7 34.1z" fill="#e5e5e5"/><g fill="#2d3134"><path d="m310.8 417.3c3.4-2 5.5-5.8 5.5-11.2 0-.4 0-.9 0-1.3l-12.7-2z"/><path d="m300.6 392.3 13.3 2.9c-2.8-6.6-7.8-13-13.8-17.3z"/><path d="m291.1 387.6.4-13.9c-6-1.7-11-.3-13.8 3.5z"/><path d="m275.4 384.4v1.3c0 5.4 2.1 11.4 5.5 16.7l7.3-7.2z"/><path d="m295.8 404.6-7.8 6.3c2.4 2.2 5 4.1 7.8 5.4s5.4 2.1 7.8 2.4z"/></g><path d="m324.9 410.4c0 16.1-13 22.6-29.1 14.6s-29.1-27.6-29.1-43.7 13-22.6 29.1-14.6c16.1 8.1 29.1 27.6 29.1 43.7z" opacity=".11"/><path d="m85.8 251.4c-7.8-3.9-14.8-4.3-20-2l-10.9 5.9c-5.6 2.5-9.1 8.2-9.1 16.6 0 16.1 13 35.6 29.1 43.7 8 4 15.2 4.4 20.4 1.8 0 0 10.9-5.8 12-6.5 4.7-2.8 7.6-8.2 7.6-15.8 0-16.1-13.1-35.7-29.1-43.7z" fill="#2d3134"/><path d="m95.6 317.2c2.1-1 10.6-5.7 11.7-6.3 4.7-2.8 7.6-8.2 7.6-15.8 0-6.5-2.1-13.5-5.7-20.1l-10.9 5.9c3.6 6.6 5.7 13.6 5.7 20.1 0 7.9-3.2 13.5-8.4 16.2z" opacity=".29"/><path d="m104 301c0 16.1-13 22.6-29.1 14.6s-29.1-27.6-29.1-43.7 13-22.6 29.1-14.6c16 8 29.1 27.6 29.1 43.7z" fill="#2d3134"/><path d="m97.6 297.8c0 12.6-10.2 17.7-22.7 11.4s-22.8-21.6-22.8-34.2 10.2-17.7 22.7-11.4 22.8 21.6 22.8 34.2z" fill="#e5e5e5"/><path d="m89.8 307.8c3.4-2 5.5-5.8 5.5-11.2 0-.4 0-.9 0-1.3l-12.7-2z" fill="#2d3134"/><path d="m79.6 282.9 13.3 2.9c-2.8-6.6-7.8-13-13.8-17.3z" fill="#2d3134"/><path d="m70.1 278.1.4-13.9c-6-1.7-11-.3-13.8 3.5z" fill="#2d3134"/><path d="m54.4 274.9v1.3c0 5.4 2.1 11.4 5.5 16.7l7.3-7.2z" fill="#2d3134"/><path d="m74.8 295.1-7.8 6.3c2.4 2.2 5 4.1 7.8 5.4s5.4 2.1 7.8 2.4z" fill="#2d3134"/><path d="m104 301c0 16.1-13 22.6-29.1 14.6s-29.1-27.6-29.1-43.7 13-22.6 29.1-14.6 29.1 27.6 29.1 43.7z" opacity=".11"/><path d="m472.6 321.4c-2.5-8.3-14.1-33.9-19.3-41.1s-75.5-84-96.6-104.2-71-44.9-124.4-72.8c-53.4-27.8-91.2-45.2-96.1-45.4-9.2-.2-89.2 39.7-96.8 47.4s-29.8 58-32.1 63.6c-2.2 5.6 0 31.7 0 31.7s-.2 1.8-2.2 5.6-1.3 29 0 35.4c1.1 5.1 27.5 23.8 38.5 31.3.2-19.1 15.7-26.8 34.9-17.2 19.3 9.6 34.9 33.1 34.9 52.4 0 2.8-.3 5.3-.9 7.5 43.5 21.9 113.3 57.1 153.3 76.9-.8-3.4-1.3-6.7-1.3-9.9 0-19.3 15.6-27.1 34.9-17.5s34.9 33.1 34.9 52.4c0 1.5-.1 3-.3 4.3 6.5 1.9 12.6 3.2 17.3 3.2 15.3 0 47.5-7.8 73.7-21.6 25.6-13.4 44.6-28.4 47.6-37.7 3.6-10.9 2.5-36 0-44.3z" fill="#e5e5e5"/><path d="m178.1 268.3c0 4-3.2 5.6-7.2 3.6s-7.2-6.8-7.2-10.7c0-4 3.2-5.6 7.2-3.6 4 1.9 7.2 6.7 7.2 10.7z" opacity=".2"/><path d="m159.5 256.1-3 3.5s22.5 14.6 24.6 11.8c1.9-2.9-21.6-15.3-21.6-15.3z" fill="#e5e5e5"/><path d="m208.6 285.8c0 4-3.2 5.6-7.2 3.6s-7.2-6.8-7.2-10.7c0-4 3.2-5.6 7.2-3.6s7.2 6.8 7.2 10.7z" opacity=".2"/><path d="m190 273.7-3 3.5s22.5 14.6 24.6 11.8c2-2.9-21.6-15.3-21.6-15.3z" fill="#e5e5e5"/><path d="m356.7 176.1c-1-.9-2-1.9-3.1-2.8-7.5 4.3-26.1 15.1-45.4 25.5-24.9 13.5-60.4 28.1-60.4 28.1s43.6 66.9 57.5 76.8 57.7-1.3 81.3-13.5c23.6-12.1 31.8-27.8 34-35.7 1.3-4.6-2.9-12.4-6.8-18.3-21.5-23.4-46-49.5-57.1-60.1z" fill="#2d3134"/><path d="m317.4 298.1c-6.7 0-11.8-1.1-14.8-3.2-10.4-7.4-36.3-46.1-49.8-66.6 9.8-4.1 36.9-15.8 57-26.7 17.7-9.6 35-19.5 43.4-24.3.4.4.8.8 1.2 1.1 11.3 10.8 32.1 32 52.2 53.8 5.4 8.3 6.7 13.3 6.2 15.2-1.3 4.7-7.6 20.9-32.3 33.6-16 8.4-43.5 17.1-63.1 17.1z" fill="#656565"/><path d="m193.3 198.6-3.4 53.7 96.7 59.1c.8.5 1.7-.3 1.3-1.2-4-8.2-16.6-33.5-31-54.4-17.8-25.6-41.2-46.4-63.6-57.2z" fill="#2d3134"/><path d="m43.3 122.5 138.1 70.1c2.6 1.3 3.8 4.5 2.7 7.2l-13.9 33.6c-1.1 2.7-4 4.3-7 3.8-10.5-2-20.6-5.6-29.9-10.8l-111.7-61.8c-2.7-1.5-3.7-4.8-2.3-7.5l16.4-32.1c1.5-2.8 4.9-3.9 7.6-2.5z" fill="#2d3134"/><path d="m102.5 156.3-60.7-30.8c-.3-.2-.7-.3-1-.3-.9 0-1.7.5-2 1.3l-16.5 32.1c-.6 1.1-.2 2.5.9 3.1l59.7 33z" fill="#656565"/><path d="m179.9 195.6-63.7-32.3-10 23.4-1.7 20 30.5 16.9c9 5 18.8 8.5 28.9 10.4.2 0 .4.1.5.1 1.2 0 2.2-.7 2.7-1.8l13.9-33.6c.4-1.3-.1-2.5-1.1-3.1z" fill="#656565"/><path d="m6.9 170.5 11.7 9.7-4.8 16.6h-8z" fill="#cc291f"/><path d="m317.3 333.8 3.9 24.9s9.5 6.2 22.5 8.5c14.2 2.5 40.4 0 40.4 0s-13.4-22.9-15.4-24.5-10.4-1.2-25.6-3c-15.3-1.8-25.8-5.9-25.8-5.9z" fill="#fff"/><path d="m317.3 333.8s15.7 15.1 27.7 20.4c16.3 7.2 39.1 13.1 39.1 13.1s-13.4-22.9-15.4-24.5-10.4-1.2-25.6-3c-15.3-1.9-25.8-6-25.8-6z" opacity=".3"/><path d="m448.4 299.6s2.7 10.3 3.6 16.8.9 15 .9 15 7-8.8 9.4-15.9c2.5-7.2 2.8-12.7 2.8-12.7s-6.3-16.2-8.4-19.4c-2-3.2-6.1-6.4-6.1-6.4s.9 5.5.2 11.3c-.6 5.9-2.4 11.3-2.4 11.3z" fill="#fff"/><path d="m448.4 299.6s2.7 10.3 3.6 16.8.9 15 .9 15 6-18.1 6-36.4c0-8.7-8.2-18-8.2-18s.9 5.5.2 11.3c-.7 5.9-2.5 11.3-2.5 11.3z" opacity=".3"/><path d="m472.6 321.4c-5.6 19.1-19.3 29.2-44.6 43.6s-60.3 19.3-80.1 18.8-45.4-17.4-45.4-17.4l.2.7c17.7 10.6 31.5 32.4 31.5 50.5 0 1.5-.1 3-.3 4.3 6.5 1.9 12.6 3.2 17.3 3.2 15.3 0 47.5-7.8 73.7-21.6 25.6-13.4 44.6-28.4 47.6-37.7 3.7-11 2.6-36.1.1-44.4z" opacity=".29"/><path d="m344.2 397.3s-2.5-8.1 0-9.2 26-1.6 28.5-1 6.3 5.7 6.1 6.8-11.2 2.9-19.8 3.4c-8.5.5-14.8 0-14.8 0z" fill="#fff" opacity=".3"/><path d="m374.3 344.2 6.1 3.9s27.7-5.6 41.2-12.5c9.9-5.1 25.8-20.5 25.8-20.5l1-8.4s-16.4 18.5-31.6 25.2c-16.5 7.3-42.5 12.3-42.5 12.3z" fill="#2d3134"/><path d="m378.8 352.6 5.4 4s27-5.4 39.1-11.9c13.9-7.4 25.2-20.2 25.2-20.2l1.1-6.5s-13.6 14.8-28.6 22.5c-13.2 6.8-42.2 12.1-42.2 12.1z" fill="#2d3134"/><path d="m384.1 360.5 4 3.4s26.2-4.4 38-11.4c15.9-9.5 22.2-18.7 22.2-18.7l1.1-6.8s-11.6 15.3-25.9 21.8-39.4 11.7-39.4 11.7z" fill="#2d3134"/><path d="m345.1 424.5c0-21.9-5-41.8-13.5-67.2-8.4-25.4-29.2-36.6-51.6-75.4-22.5-38.8-54.8-74.9-74.6-88.3-17-11.5-133.5-70.9-166.5-87.6-8.1 9.3-29.4 57.5-31.6 63-2.2 5.6 0 31.7 0 31.7s-.2 1.8-2.2 5.6-1.3 29 0 35.4c1.1 5.1 27.5 23.8 38.5 31.3.2-19.1 15.7-26.8 34.9-17.2 19.3 9.6 34.9 33.1 34.9 52.4 0 2.8-.3 5.3-.9 7.5 43.5 21.9 113.3 57.1 153.3 76.9-.8-3.4-1.3-6.7-1.3-9.9 0-19.3 15.6-27.1 34.9-17.5s34.9 33.1 34.9 52.4c0 1.5-.1 3-.3 4.3 3.9 1.2 7.7 2.1 11.1 2.6z" opacity=".11"/><path d="m315.9 333.8-162.6-96.4-141.9-77.8c-2.1 4.7-3.5 8.1-4 9.3-.2.4-.3 1-.4 1.6l11.7 9.6 300.3 176.6z" fill="#fff" opacity=".3"/><path d="m5.9 204.5c-.2.5-.5 1.1-.9 1.7-.5 1-.9 3.4-1.1 6.6l262.7 143.9-12.2-13.9z" fill="#fff" opacity=".3"/><path d="m320 301.6 4.1-.3 38.2-18.6 2.1-3.8 23.2-10.8-1-1.8-44.4 19.7 1.4 1.6 17.2-7.7-1 1.2-37.3 17.9z" fill="#2d3134"/><path d="m360.3 291.3h3.6l30.5-22.6 3.8-8.7 11.6-14.8-.8-1.1-21.9 25 .9 1.3 5.9-5.3-1.7 3-30.9 21.3z" fill="#2d3134"/><path d="m361 419.3s0-9.7 5.4-13c3.3-2.1 41.3-8.9 63.1-20.8 29-15.7 38.2-31.4 40-31.4s1.8 6.9.6 10.6c-.9 2.9-14.3 18.5-38.8 31-43.7 22.3-70.3 23.6-70.3 23.6z" fill="#2d3134"/><path d="m359.9 393.3c7.4-.4 10.1-2 10.1-3.4 0-.7-.4-2-.7-3-7.3-.2-23.1.3-25.1 1.2-1.3.6-1.2 3.2-.9 5.4 2.5.1 10.4.1 16.6-.2z" fill="#2d3134"/><path d="m473.5 327.4s-3.6 7.7-4.9 10.6c-1.5 3.5-3.5 12.8-3.5 12.8s3.8-3.8 6.5-9.9 2.4-9.4 2.4-9.4z" fill="#fff" opacity=".3"/><path d="m413.8 381.6v18l28.5-14.4v-17.3z" fill="#e5e5e5"/><path d="m317.3 217.3c34.8 0 66.7 6.9 91.3 18.4-.6-1.1-1.3-2.2-2.1-3.4-20.1-21.8-40.8-43-52.2-53.8-.4-.4-.8-.7-1.2-1.1-8.4 4.8-25.6 14.7-43.4 24.3-13.7 7.4-30.7 15.2-43.3 20.7 15.9-3.2 33-5.1 50.9-5.1z" opacity=".2"/><path d="m356.9 348c0 5.1-4.1 11.3-9.2 13.9s-9.2.5-9.2-4.6 4.1-11.3 9.2-13.9c5-2.5 9.2-.5 9.2 4.6z" opacity=".3"/><path d="m371.1 354.2c0 3.6-2.9 7.9-6.4 9.7s-6.4.3-6.4-3.2 2.9-7.9 6.4-9.7 6.4-.4 6.4 3.2z" opacity=".3"/><path d="m353 351.9c0 2.6-2.1 5.7-4.6 6.9-2.6 1.3-4.6.2-4.6-2.3s2.1-5.7 4.6-6.9c2.5-1.3 4.6-.3 4.6 2.3z" fill="#fff" opacity=".4"/><path d="m368.6 356.9c0 1.9-1.6 4.2-3.5 5.2s-3.5.2-3.5-1.7 1.6-4.2 3.5-5.2 3.5-.3 3.5 1.7z" fill="#fff" opacity=".4"/><path d="m462.3 298.3c1.5 3.7.4 9.4-2.5 12.8s-6.5 3.1-8.1-.5c-1.5-3.7-.4-9.4 2.5-12.8 3-3.4 6.6-3.2 8.1.5z" opacity=".3"/><path d="m460 303.9c.8 1.9.2 4.8-1.3 6.6-1.5 1.7-3.3 1.6-4.1-.3s-.2-4.8 1.3-6.6c1.5-1.7 3.4-1.6 4.1.3z" fill="#fff" opacity=".4"/><path d="m281 304c-4-7.9-10.1-19.5-17.2-31.2l2.2 22.1z" fill="#656565"/><path d="m254.5 258.3c-.1-.2-.3-.4-.4-.6-16.1-23.2-36.9-42.6-57.7-53.7l-2.9 46.5 61.1 37.3c-.1-9.2-.2-22.1-.1-29.5z" fill="#656565"/><path d="m247.8 271.8c2.5 0 10.4 11.1 8.5 15.5-1.8 4.4-16.4 5.6-19.1 4.5s-6.7-2.2-7.2-4.9c-.4-2.7.4-8.8 2.9-10.8 2.6-2.1 11.3-4.3 14.9-4.3z" fill="#e5e5e5"/><g opacity=".3"><path d="m262.7 297.6-4.3 24.2v60.4l-72.7-36.5v-68.6l4.6-24.2-.9-.2-4.7 24.2v.1 68.2l-71.1-35.7-.5.9 145.6 73.1.7.3v-61.9l4.3-24.2z"/><path d="m86.2 220.1v40.7h1v-40.5l5.6-15.6-.9-.4z"/></g></svg>