<svg enable-background="new 0 0 960 640" viewBox="0 0 960 640" xmlns="http://www.w3.org/2000/svg"><path d="m106.3 225.3s31.6 78.3 66.9 109.2 493.8 265.8 519.6 274.5c54.8 18.5 212.6-57.8 226.6-100.2 3.5-10.7 4.4-18.9-3.8-27.8s-610.4-305.6-610.4-305.6z" fill="#e5e5e5"/><g fill="#2d3134"><path d="m399.2 124.6h41.8v3.8h-41.8z" transform="matrix(.4533 .8914 -.8914 .4533 342.3922 -305.2758)"/><path d="m297.4 99h63.6v3.8h-63.6z" transform="matrix(.5661 .8243 -.8243 .5661 225.9856 -227.5383)"/><path d="m220.2 79.9h61.6v3.8h-61.6z" transform="matrix(.5175 .8557 -.8557 .5175 191.1069 -175.3164)"/><path d="m157.1 70.3h63v3.8h-63z" transform="matrix(.5708 .8211 -.8211 .5708 140.2492 -123.9391)"/><path d="m90.1 65.2h62.8v3.8h-62.8z" transform="matrix(.5935 .8048 -.8048 .5935 103.3839 -70.4495)"/></g><path d="m106.3 225.3s31.6 78.3 66.9 109.2 493.8 265.8 519.6 274.5c54.8 18.5 212.6-57.8 226.6-100.2 3.5-10.7 4.4-18.9-3.8-27.8s-610.4-305.6-610.4-305.6z" opacity=".11"/><path d="m106.3 225.3s31.6 78.3 66.9 109.2 493.8 265.8 519.6 274.5c54.8 18.5 212.6-57.8 226.6-100.2 3.5-10.7 4.4-18.9-3.8-27.8s-610.4-305.6-610.4-305.6z" opacity=".11"/><path d="m106.3 225.3s31.6 78.3 66.9 109.2 493.8 265.8 519.6 274.5c54.8 18.5 212.6-57.8 226.6-100.2 3.5-10.7 4.4-18.9-3.8-27.8s-610.4-305.6-610.4-305.6z" opacity=".1"/><path d="m110.4 239.2s36.9 58.7 77.7 87.1c40.7 28.4 479.9 258.4 520.5 263.3 67.2 8 201.5-60.6 209.6-97.1 7.3-33.2-175.2-146.3-293.6-196.5s-514.2-56.8-514.2-56.8z" fill="none"/><path d="m744.1 355.7-254.1 131c104.7 53.9 200.6 100.6 218.6 102.8 67.2 8 201.5-60.6 209.6-97.1 5-23-81.2-84.4-174.1-136.7z" fill="#762c07"/><path d="m817.7 395.2 53.1 82.6s15.2 3.8 23.4 0 4.6-16.9 4.6-16.9l-48.9-79.7z" fill="#e5e5e5"/><path d="m656.2 482.1 61.2 80s-1.5 13.4-23 13.1c-20.8-.3-34-4.3-34-4.3l-47.8-73.5z" fill="#e5e5e5"/><path d="m817.7 395.2 53.1 82.6s15.2 3.8 23.4 0 4.6-16.9 4.6-16.9l-48.9-79.7z" opacity=".29"/><path d="m656.2 482.1 61.2 80s-1.5 13.4-23 13.1c-20.8-.3-34-4.3-34-4.3l-47.8-73.5z" opacity=".29"/><path d="m565.9 455.1 126.9-66.3v-68.2l-231.1 8.2z" fill="#656565"/><path d="m565.9 455.1 126.9-66.3v-68.2l-231.1 8.2z" fill="#656565"/><path d="m565.9 455.1 126.9-66.3v-68.2l-231.1 8.2z" opacity=".29"/><path d="m634.8 419.1 58-30.3v-68.2l-231.1 8.2z" opacity=".2"/><path d="m847.3 378.5c-68.2-36.5-436.5-233-501.1-253-71.4-22.1-234.2-47.3-269-32.2-25.9 11.3 8.2 105.4 80.8 155.3 63.1 43.4 370.4 205 449.7 246.5 11.8 6.2 25.8 6.5 37.9 1l8.5-3.9c4.9-2.3 5.1-9.2.3-11.7l-96.1-46.3s-.5-.7-1.3-1.8l1.3-.6s-6.3-17.7-14.5-34.1c-5.4-10.9-19.8-32.3-28.8-45.5l123.8 41.1 82.3-41.9 87.9 40.7c11.1 5.5 24.2 5.3 35.2-.4l3.1-1.6c4.6-2.5 4.6-9.1 0-11.6z" fill="#e5e5e5"/><path d="m216.1 242.9s39.1-46.7 91.5-66.9c50.7-19.5 72.6-22.7 104.8-29s127.5-25.5 198.9 6.9c61.9 28.1 204.5 101.6 204.5 101.6l-4.4 30.9 31.9 18.9-187.9 93.4-159.6-53s28.4 40.4 36.6 56.8 14.5 34.1 14.5 34.1z" fill="#e5e5e5"/><path d="m414.5 152.4-.9.2c-3.1.6-6.1 1.2-9 1.7-15.1 2.9-28.4 5.5-44.8 10-36 17.2-66.5 42.2-86.5 60.9 24.1-4.1 52.1-7.6 77-7.6 5.5 0 10.7.2 15.6.5 10-12.6 37.2-36.8 67-55.7 9.7-6.2 19.8-11.2 29.5-15.4-18.6 2.4-38.4 3.5-47.9 5.4z" fill="#656565"/><path d="m381 159.1c-6.7 1.5-13.6 3.2-21.2 5.3-36 17.2-66.5 42.2-86.5 60.9 5-.8 10.1-1.6 15.3-2.4 23.2-20.8 55.2-45.6 92.4-63.8z" opacity=".5"/><path d="m450.7 150.2c-6.6 3.3-13 6.8-18.9 10.5-29.4 18.7-56.1 42.2-66.9 55.3-4.6-.3-9.6-.5-14.7-.5-19.8 0-43.7 2.2-71 6.6 19.3-17.6 47.9-40.2 81.2-56.2 16.2-4.5 29.3-7 44.5-10h.2c2.9-.6 5.8-1.1 8.8-1.7l.9-.2c5.2-1 13.4-1.8 23-2.7 4.1-.2 8.5-.6 12.9-1.1m11.6-3.2c-18.5 2.4-38.4 3.5-47.9 5.4l-.9.2c-3.1.6-6.1 1.2-9 1.7-15.1 2.9-28.4 5.5-44.8 10-36 17.2-66.5 42.2-86.5 60.9 24.1-4.1 52.1-7.6 77-7.6 5.5 0 10.7.2 15.6.5 10-12.6 37.2-36.8 67-55.7 9.8-6.2 19.9-11.3 29.5-15.4z" fill="#2d3134"/><path d="m269.5 248.6 202.7 89s-31.7-57.3-106.1-81c-43-13.6-96.6-8-96.6-8z" fill="#656565"/><path d="m277.7 248c-5.2.3-8.2.6-8.2.6l202.7 89s-1.2-2.2-3.7-5.9z" fill="#fff"/><path d="m414.5 152.4-.9.2c-3.1.6-6.1 1.2-9 1.7-14.9 2.9-28.1 5.4-44.1 9.9 11 10.6 18.9 22.8 22.8 36.1 13.1-11.9 30.8-25.9 49.7-37.9 9.7-6.2 19.8-11.2 29.5-15.4-18.7 2.4-38.5 3.5-48 5.4z" opacity=".2"/><path d="m312.1 278.9 166.7 73.4 19.7 39.5z" fill="#656565"/><path d="m362.3 259.2c60 19.1 92.2 60 102.4 75.2l7.4 3.3s-31.7-57.3-106.1-81c-43-13.7-96.6-8-96.6-8s60.1.1 92.9 10.5z" fill="#2d3134"/><path d="m475 354.8 16.2 32.6 7.3 4.4-19.7-39.5-166.7-73.4z" fill="#2d3134"/><path d="m651.3 385 1.7 6.1-324.3-160.2z" fill="#fff"/><path d="m613.2 128.8c-28.3-16.7-52.1-21.8-52.1-21.8s-56.3 1.4-101.8 20.8-71.5 65.8-71.5 65.8l19.4 33.6s26.5-40.7 68.2-60.6 99.9-29.8 99.9-29.8l107.5 53c0 .1-36-41.1-69.6-61z" fill="#656565"/><path d="m561.1 107.1 14.2 29.8 107.5 53s-36-41.2-69.6-61.1c-28.2-16.7-52.1-21.7-52.1-21.7z" opacity=".11"/><path d="m612.6 497.4c-1.6-.6-3.2-1.4-4.8-2.2-79.3-41.6-386.6-203.2-449.7-246.6-57-39.1-90.2-105.5-89.4-137.8-.1.4-.1.9-.2 1.4-1 20.2 27.2 91 37.9 117.1 2.9 7 6.4 13.6 10.7 19.8 12.4 18 31.7 47.3 73.3 75.7 34.3 23.4 345.4 189.5 469.9 246z" fill="#e5e5e5"/><ellipse cx="240.1" cy="321.2" fill="#2d3134" rx="16.6" ry="9.6" stroke="#999" stroke-miterlimit="10" stroke-width="1.8939" transform="matrix(.7637 .6456 -.6456 .7637 264.1241 -79.1106)"/><ellipse cx="144.9" cy="256.8" fill="#2d3134" rx="16.6" ry="7.9" stroke="#999" stroke-miterlimit="10" stroke-width="1.7202" transform="matrix(.6453 .7639 -.7639 .6453 247.5585 -19.6013)"/><ellipse cx="344.9" cy="379.3" fill="#2d3134" rx="16.6" ry="9.6" stroke="#999" stroke-miterlimit="10" stroke-width="1.8939" transform="matrix(.775 .6319 -.6319 .775 317.2962 -132.6315)"/><path d="m494 383.5c-22.2-14-60.8-33.7-105.5-56.4-31.1-15.8-65.4-33.3-99-51.3l-.3-.6-.4.2c-47-25.3-92.6-51.7-125.8-76.4-37.1-27.6-62.1-56.3-77.6-81.2-1.6-3.8-3.1-7.5-4.2-10.9l1 2.5 3.5-1.4-8.9-22.3c-.1-1.4-.1-2.7 0-3.9.3-4.9 1.7-8.3 3.9-9.6 15.6-8.7 89.9 1 168 12.8 82.1 12.4 182.8 58.1 183.8 58.6l3.5-2.6c-1-.5-104.1-47.2-186.8-59.7-91-13.8-154.8-21.2-170.4-12.4-2.7 1.5-4.5 4.5-5.3 8.7l-8.7-21.9h-.1c.8-3.9 2.3-6.7 4.7-8.1 17.2-10.6 108.2-2.9 194.9 16.7 94.1 21.1 191.7 64.2 192.7 64.7l4.9-2.1c-1-.4-102.3-45.1-196.7-66.3-79.4-17.9-177.7-28.7-197.8-16.2-4.2 2.6-6.6 8-6.9 15.5-.5 12.2 4.7 31.4 17.8 54l12.3 43.7 4.8 2.6-9-31.5c8.1 16 20.1 33.8 36.2 51.7l5.8 24.4 5 3.7-5.6-22.4c12.3 12.9 26.8 25.9 43.6 38.2.9.7 1.9 1.4 2.9 2.1l6.8 23.4 4.7 2.9-6.5-22.8c16.2 11.3 35.5 23.6 56.4 36.2l8.3 22.3 5.1 3.3-8.2-22.5c18 10.7 37.1 21.6 56.2 32.3l10.1 21.8 5 3-9.5-21.7c26.7 14.8 53.3 29 77.1 41.4l11.4 22.2 5.6 2.8-11.2-21.9c45.1 23.5 79.1 40.2 82.5 41.9l12 27 5.4 2.9-22.5-50.8c11.4 6.2 21.2 11.8 28.9 16.7 58.1 36.7 79.5 54.6 85.4 83.3 0 .1 4.3 2.4 4.3 2.4-5.2-32-26.5-50.3-87.6-89zm-421-296.9c.2 3.8.9 8 2 12.6-6.6-13.7-9.9-25.5-10.6-34.3zm27.3 58.9c5.6 6.9 12 13.9 19 21l1.5 6.2c-8-9.3-14.8-18.4-20.5-27.2zm25.8 33.2-1.7-7.2c10.6 10.2 22.6 20.5 36.3 30.7 2.7 2 5.5 4 8.4 6.1l3.5 12.2c-18.3-13.5-33.7-27.7-46.5-41.8zm51.5 45.4-3.6-12.4c16.2 11.3 34.6 22.8 54.2 34.3l5.4 14.4c-20.9-12.7-40.2-25-56-36.3zm61.2 39.4-5.4-14.5c17.1 9.9 35 19.8 53.1 29.6l7.9 17c-19-10.6-37.8-21.4-55.6-32.1zm61.3 35.3-8-17.2c25.1 13.4 50.5 26.5 74.6 38.7l10.2 19.9c-24-12.6-50.5-26.7-76.8-41.4zm165.7 86.8c-11.3-5.6-43.2-21.5-83.1-42.3l-10.3-20c4.8 2.5 9.6 4.9 14.3 7.3 26.5 13.5 50.8 25.8 70.8 36.6z" fill="#2d3134"/><path d="m612.6 497.4c-1.6-.6-3.2-1.4-4.8-2.2-79.3-41.6-386.6-203.2-449.7-246.6-57-39.1-90.2-105.5-89.4-137.8-.1.4-.1.9-.2 1.4-1 20.2 27.2 91 37.9 117.1 2.9 7 6.4 13.6 10.7 19.8 12.4 18 31.7 47.3 73.3 75.7 34.3 23.4 345.4 189.5 469.9 246z" opacity=".11"/><path d="m635 562.1c-128.2-58.2-412.7-212-446.2-234.9-31.4-21.4-50.1-43.2-62.9-60.5-.5-.7-7.3-13.1-7.3-13.1-4.4-6.4-14.9-30.7-14.9-30.7l1.2 1.8c2.8 6.7 10.4 16.8 14.5 22.8l1.5 2.2c12.6 18.2 31.5 45.8 71.1 72.8 33.4 22.8 337.5 185.7 465.5 243.8l2.9 4.5z" fill="#2d3134"/><path d="m692.8 337.6 124.9 57.6 53.1 82.6-178-89z" fill="#e5e5e5"/><ellipse cx="178.9" cy="137.8" fill="#2d3134" rx="33.5" ry="16.7" stroke="#999" stroke-miterlimit="10" stroke-width="3.7879"/><path d="m575.4 136.9s-51.6 6.6-99.9 29.8c-44.7 21.5-65 57.3-65 57.3l49.4 17 24.6 13.3 138.3-68.2v-26.5z" fill="#762c07"/><path d="m622.7 159.6v26.5l-138.3 68.2-24.6-13.2z" opacity=".29"/><path d="m509.1 275.1s-47.8-41-73.9-56.8c-18.4-11.2-47.3-24.6-47.3-24.6l19.4 33.6z" fill="#656565"/><path d="m509.1 275.1s-47.8-41-73.9-56.8c-18.4-11.2-47.3-24.6-47.3-24.6l19.4 33.6z" opacity=".11"/><path d="m613.2 281.1-37.8 18.7-60.7-30.1 39.8-17.3z" fill="#e5e5e5"/><path d="m613.2 281.1-37.8 18.7-60.7-30.1 39.8-17.3z" opacity=".11"/><path d="m613.2 281.1-62.5-30.6v-37.9l3.8-1.8 62.5 30.5v37.9z" fill="#e5e5e5"/><path d="m550.7 212.6v37.9l62.5 30.6v-37.9z" opacity=".11"/><path d="m617 241.3v37.9l-3.8 1.9v-37.9z" opacity=".29"/><path d="m575.4 299.8-3.8-1.9v-37.9l37.8-18.9 3.8 1.8v37.9z" fill="#e5e5e5"/><path d="m571.6 260v37.9l3.8 1.9v-37.9z" opacity=".11"/><path d="m613.2 242.9v37.9l-37.8 19v-37.9z" opacity=".29"/><path d="m571.6 301.7-60.6-30.3v-37.9l3.7-1.9 60.7 30.3v37.9z" fill="#e5e5e5"/><path d="m511 233.5v37.9l60.6 30.3v-37.9z" opacity=".11"/><path d="m575.4 261.9v37.9l-3.8 1.9v-37.9z" opacity=".29"/><path d="m673.8 184.2-49.2 24.7v26.5l41.4 20.7-92.5 45.6 49.2 24.6 166.7-83.4z" fill="#762c07"/><path d="m624.6 208.9v26.5l41.7 20.8 26.5-13.3z" opacity=".11"/><path d="m634.1 320.6-11.4-5.7v-18.9l136.4-68.2 11.3 5.7v18.9z" fill="#762c07"/><path d="m622.7 296v18.9l11.4 5.7v-18.9z" opacity=".11"/><path d="m770.4 233.5v18.9l-136.3 68.2v-18.9z" opacity=".29"/><path d="m915.6 481c-.1-.1-.3-.3-.6-.5 2.7 4.7 3.9 8.7 3.1 12-8 36.5-142.4 105.1-209.6 97.1-.4 0-.8-.1-1.3-.2v22.3c63.9 4.2 199.2-63.7 212.1-102.9 3.7-10.8 4.5-19-3.7-27.8z" opacity=".1"/><path d="m165.2 253.4c-2.6-1.7-5.1-3.3-7.2-4.8-57-39.1-90.2-105.5-89.4-137.8-.1.4-.1.9-.2 1.4-1 20.2 27.2 91 37.9 117.1 2.9 7 6.4 13.6 10.7 19.8 10.5 15.2 25.9 38.5 55.5 62.5z" opacity=".15"/><path d="m172.6 311.6c-29.7-24-45-47.3-55.5-62.5-.2-.2-.3-.5-.5-.7 12.1 25.6 33.6 65.9 56.6 86 .7.6 1.5 1.3 2.5 2z" opacity=".15"/><path d="m804.6 527.1c-3.6-2.7-9.9-3.6-13.8-1.3-3.3 1.9-5.2 5.1-5.2 8.8v18.3c0 1 .8 1.9 1.9 1.9 1 0 1.9-.8 1.9-1.9v-18.3c0-2.5 1.4-4.6 3.8-5.8 2.5-1.2 6.5-.5 8.8 1.1 4 2.8 6.4 7.3 6.4 12.2v4.6l-26.6 13.3v-2.7c0-5.9-2.8-11.5-7.5-14.9-3.6-2.7-9.9-3.6-13.8-1.3-3.3 1.9-5.2 5.1-5.2 8.8v18.3c0 1 .8 1.9 1.9 1.9s1.9-.8 1.9-1.9v-18.3c0-2.5 1.4-4.6 3.8-5.8 2.5-1.2 6.5-.5 8.8 1.1 4 2.8 6.4 7.3 6.4 12.2v74c0 1 .8 1.9 1.9 1.9s1.9-.8 1.9-1.9v-10.4l26.5-13.3v8.3c0 1 .8 1.9 1.9 1.9 1 0 1.9-.8 1.9-1.9v-74c-.1-5.9-2.9-11.4-7.6-14.9zm3.7 57.5-26.5 13.3v-14.7l26.5-13.3zm0-33.7v14.7l-26.5 13.3v-14.7zm-26.5 65.9v-14.7l26.5-13.3v14.7z" fill="#999"/><path d="m811.5 286.5-80.1 37.3 4.9 2.5-16.2 2.8-34.1 15.9-23.1 22.5-17.9-3.3 10.5 34.7 187.8-93.5z" opacity=".29"/><path d="m817.7 395.2-81.6-36.4-43.3 21.5v8.5l178 89z" opacity=".11"/><path d="m823.5 252.4-117.5 58.7 30.3 15.2v3.8l117.5-58.7v-3.8z" fill="#e5e5e5"/><path d="m853.8 271.4v-3.8l-117.5 58.7v3.8z" opacity=".29"/><path d="m736.3 326.3v3.8l-35.9 5.7-34.1 30.3-3.8 1.8 36-35z" fill="#e5e5e5"/><path d="m736.3 326.3v3.8l-35.9 5.7-34.1 30.3-3.8 1.8 36-35z" opacity=".29"/><path d="m532.4 402.7c-8.2-16.4-36.6-56.8-36.6-56.8l159.6 53-10.4-34.7 18 3.3 35.5-34.6 37.9-6.6-30.4-15.2s-76.2 17-85.2 17-53-23.7-83.8-38.8c-30.8-15.2-105.6-57.8-163.8-64.9s-157 18.5-157 18.5l330.8 193.8c-.1.1-6.4-17.6-14.6-34z" opacity=".11"/><path d="m515 352.2-19.2-6.4s28.4 40.4 36.6 56.8 14.5 34.1 14.5 34.1l11.4-4.9s-6.3-17.7-14.5-34.1c-5.5-10.8-19.8-32.3-28.8-45.5z" opacity=".29"/><path d="m773.5 340.2-118 58.7-134-44.5-4.9.3 70.1 89 102.3 39.8 94.7-49.3-9.5-58.7 32.2-18.9z" opacity=".15"/></svg>