<svg enable-background="new 0 0 240 240" viewBox="0 0 240 240" xmlns="http://www.w3.org/2000/svg"><path d="m134 103.2s-2.6 13-2.5 16.4-.2 6.4-.4 7-4.5 10.7-4.8 15.9-2.2 18.7-2.2 18.7l6.2 1.6s8.6-17.8 10.1-23.2c1.5-5.5 1.7-12.7 1.9-13.9s10-16.7 11.4-20.6 1.9-5.9 1.9-5.9z" fill="#fbd7c7"/><path d="m124.6 154.2 8.4 2.8-3.5 8.9-6-2.5z" fill="#fff"/><path d="m65.7 130.8-1.3-.6c5.9-10.8 14.6-27.7 15-29.9.2-.8-.1-1.1-.2-1.2-.5-.6-1.7-.8-2-.8l.1-2.3c.2 0 2.4.1 3.6 1.7.5.6.9 1.6.6 3.1-.5 3.2-14.3 27.2-15.8 30z" fill="#39c"/><path d="m172.9 186.2c-.2 0-.4 0-.5-.1l-45.5-22.1c-.6-.3-.9-1.1-.6-1.7s1.1-.9 1.7-.6l40.5 19.7-34.1-42.6c-.4-.5-.3-1.3.2-1.8.5-.4 1.3-.3 1.8.2l37.6 46.9c.4.5.4 1.1 0 1.6-.3.3-.7.5-1.1.5z" fill="#39c"/><ellipse cx="174.9" cy="184.4" fill="#656565" rx="4.5" ry="7.7" transform="matrix(.8945 -.4471 .4471 .8945 -63.9937 97.6567)"/><ellipse cx="174.9" cy="184.4" opacity=".2" rx="4.5" ry="7.7" transform="matrix(.8945 -.4471 .4471 .8945 -63.9937 97.6567)"/><path d="m130.4 173.7c-3.8 0-8.2-3.6-10.9-9-3.4-6.8-2.9-13.6 1.2-15.7.7-.4 1.5-.5 2.4-.5 3.8 0 8.2 3.6 10.9 9 3.4 6.8 2.9 13.6-1.2 15.7-.8.4-1.6.5-2.4.5zm-7.3-23.9c-.6 0-1.2.1-1.8.4-3.3 1.7-3.6 7.9-.6 13.9 2.4 4.9 6.4 8.3 9.7 8.3.6 0 1.2-.1 1.8-.4 3.3-1.7 3.6-7.9.6-13.9-2.4-4.9-6.4-8.3-9.7-8.3z" fill="#656565"/><path d="m130 171.7c-3 0-6.7-3.2-9-7.8-2.9-5.7-2.7-11.4.4-13 .5-.3 1.1-.4 1.7-.4 3 0 6.7 3.2 9 7.8 2.9 5.7 2.7 11.4-.4 13-.6.2-1.1.4-1.7.4zm-6.9-20.2c-.4 0-.8.1-1.2.3-2.5 1.3-2.5 6.6 0 11.6 2.1 4.2 5.5 7.3 8.1 7.3.4 0 .8-.1 1.2-.3 2.5-1.3 2.5-6.6 0-11.6-2.1-4.3-5.5-7.3-8.1-7.3z" fill="#656565"/><ellipse cx="126.4" cy="161.6" fill="#656565" rx="2.9" ry="4.6" transform="matrix(.8945 -.4471 .4471 .8945 -58.9102 73.562)"/><path d="m130.4 173.7c-3.8 0-8.2-3.6-10.9-9-3.4-6.8-2.9-13.6 1.2-15.7.7-.4 1.5-.5 2.4-.5 3.8 0 8.2 3.6 10.9 9 3.4 6.8 2.9 13.6-1.2 15.7-.8.4-1.6.5-2.4.5zm-7.3-23.9c-.6 0-1.2.1-1.8.4-3.3 1.7-3.6 7.9-.6 13.9 2.4 4.9 6.4 8.3 9.7 8.3.6 0 1.2-.1 1.8-.4 3.3-1.7 3.6-7.9.6-13.9-2.4-4.9-6.4-8.3-9.7-8.3z" opacity=".2"/><path d="m130 171.7c-3 0-6.7-3.2-9-7.8-2.9-5.7-2.7-11.4.4-13 .5-.3 1.1-.4 1.7-.4 3 0 6.7 3.2 9 7.8 2.9 5.7 2.7 11.4-.4 13-.6.2-1.1.4-1.7.4zm-6.9-20.2c-.4 0-.8.1-1.2.3-2.5 1.3-2.5 6.6 0 11.6 2.1 4.2 5.5 7.3 8.1 7.3.4 0 .8-.1 1.2-.3 2.5-1.3 2.5-6.6 0-11.6-2.1-4.3-5.5-7.3-8.1-7.3z" opacity=".2"/><ellipse cx="126.4" cy="161.6" opacity=".2" rx="2.9" ry="4.6" transform="matrix(.8945 -.4471 .4471 .8945 -58.9102 73.562)"/><path d="m178.9 182.4c-1.2-2.5-3.1-4-4.8-4.9l-46.9-27.7s0 0-.1 0l-1-.5c-1-.5-2.1-.7-3-.7s-1.6.2-2.4.5c-4.1 2-4.6 8.9-1.2 15.7 2.1 4.1 5.1 7.2 8.1 8.4l47.7 18c1.1.5 2.1.6 3 .1 2.2-1.1 2.5-5.1.6-8.9z" fill="none" stroke="#2d3134" stroke-miterlimit="10" stroke-width=".9757"/><path d="m39.6 161.5 6.7-3.6 141.4 71.3-6.7 3.6z" opacity=".2"/><path d="m149.7 196c-9.3-18.6-8.7-38.1.9-45.1-.9.2-1.8.6-2.6 1-11.5 5.7-12.8 26.5-2.8 46.3 9.9 19.8 27.2 31.2 38.7 25.5.7-.3 1.3-.7 1.9-1.2-11.4 3-26.9-8.2-36.1-26.5z" fill="#656565"/><path d="m149.7 196c-9.3-18.6-8.7-38.1.9-45.1-.9.2-1.8.6-2.6 1-11.5 5.7-12.8 26.5-2.8 46.3 9.9 19.8 27.2 31.2 38.7 25.5.7-.3 1.3-.7 1.9-1.2-11.4 3-26.9-8.2-36.1-26.5z" opacity=".2"/><path d="m171 221.8-.2-.1 3.3-37 1.9-25.7h.2l-1.8 25.7z" fill="#2d3134"/><path d="m189.7 221.5-15.6-36.7-14.3-35.2.2-.1 14.4 35.2 15.5 36.7z" fill="#2d3134"/><path d="m157 209.8-.2-.2 17.4-25 10.3-14.3.2.1-10.4 14.4z" fill="#2d3134"/><path d="m195.2 206.2-21-21.4-30.4-27.4.2-.1 30.3 27.3 21.1 21.5z" fill="#2d3134"/><path d="m194.6 193.6-20.4-8.8-33.2-13.7v-.2l33.3 13.7 20.4 8.7z" fill="#2d3134"/><path d="m174.3 184.8-30.7-.3v-.3l30.7.4h19.4v.2z" fill="#2d3134"/><path d="m148.9 198.4-.1-.2 25.4-13.6 13.6-7.5.1.2-13.6 7.5z" fill="#2d3134"/><ellipse cx="174.1" cy="184.6" fill="#999" rx="2.1" ry="3.6" transform="matrix(.8945 -.4471 .4471 .8945 -64.1708 97.3319)"/><path d="m163.8 187 8.5-4.3c1.2-.6 1.8.3 2.4 1.5.6 1.2.9 2.2-.3 2.8l-8.5 4.3z" fill="#999"/><path d="m174.9 184.7c-.1.2-.3.4-.7.6l-8.5 4.3-1.4-2.9-.5.3 2.1 4.3 8.5-4.3c1-.5.9-1.4.5-2.3z" opacity=".2"/><g fill="#2d3134"><path d="m164.2 217.3h-.2l.1-27.9 1.8-35.2h.3l-1.8 35.2z"/><path d="m176 223.2-11.8-33.8-9.3-39.1.2-.1 9.3 39.1 11.8 33.8z"/><path d="m152.5 206-.2-.2 11.9-16.5 14.8-23.6.1.2-14.7 23.5z"/><path d="m186.1 222.2-21.9-32.8-18.4-34.8.2-.2 18.4 34.9 21.9 32.8z"/><path d="m193 215.4-28.8-26-23.9-26.4.1-.1 23.9 26.4 28.8 25.9z"/><path d="m194.9 203.4-30.7-13.9-24.6-13.1.2-.2 24.5 13.1 30.7 13.9z"/><path d="m143.9 191.7v-.2l20.3-2.3 27.5-4 .1.2-27.5 4.1z"/><path d="m193.4 174c-11.1-22.2-31.3-34.7-45-27.8-13.8 6.9-15.9 30.5-4.8 52.7s31.3 34.7 45 27.8c13.7-6.8 15.9-30.4 4.8-52.7zm-9.5 49.6c-11.5 5.7-28.8-5.7-38.7-25.5s-8.6-40.5 2.8-46.3c11.5-5.7 28.8 5.7 38.7 25.5 9.9 19.9 8.7 40.6-2.8 46.3z"/></g><path d="m177.4 225.6c-5.4 0-11.6-2.7-17.4-7.5-6-4.9-11.2-11.8-15.2-19.8-10-20-8.6-41.1 3.1-46.9 2-1 4.3-1.5 6.7-1.5 5.4 0 11.6 2.7 17.4 7.5 6 4.9 11.2 11.8 15.2 19.8 10 20 8.6 41.1-3.1 46.9-2 1-4.3 1.5-6.7 1.5zm-22.9-74.7c-2.3 0-4.4.5-6.3 1.4-11.2 5.6-12.4 26.1-2.6 45.6 7.9 15.7 20.9 26.7 31.8 26.7 2.3 0 4.4-.5 6.3-1.4 11.2-5.6 12.4-26.1 2.6-45.6-7.9-15.8-20.9-26.7-31.8-26.7z" fill="#999"/><ellipse cx="164.3" cy="189.4" fill="#999" rx="2.1" ry="3.6" transform="matrix(.8945 -.4471 .4471 .8945 -67.3419 93.4707)"/><path d="m41.4 141.6c-9.3-18.6-8.7-38.1.9-45.1-.9.2-1.8.6-2.6 1-11.5 5.7-12.8 26.5-2.8 46.3 9.9 19.8 27.2 31.2 38.7 25.5.7-.3 1.3-.7 1.9-1.2-11.4 3.1-26.9-8.1-36.1-26.5z" fill="#656565"/><path d="m41.4 141.6c-9.3-18.6-8.7-38.1.9-45.1-.9.2-1.8.6-2.6 1-11.5 5.7-12.8 26.5-2.8 46.3 9.9 19.8 27.2 31.2 38.7 25.5.7-.3 1.3-.7 1.9-1.2-11.4 3.1-26.9-8.1-36.1-26.5z" opacity=".2"/><path d="m62.7 167.4h-.2l3.3-37 1.9-25.8.2.1-1.8 25.7z" fill="#2d3134"/><path d="m81.4 167.1-15.6-36.7-14.3-35.1.2-.1 14.3 35.2 15.6 36.7z" fill="#2d3134"/><path d="m48.7 155.5-.2-.2 17.4-25 10.3-14.3.2.1-10.4 14.4z" fill="#2d3134"/><path d="m86.9 151.9-21-21.4-30.4-27.4.2-.2 30.3 27.4 21.1 21.4z" fill="#2d3134"/><path d="m86.3 139.2-20.4-8.7-33.3-13.7.1-.2 33.3 13.7 20.4 8.7z" fill="#2d3134"/><path d="m65.9 130.5-30.6-.4v-.2l30.6.4 19.5-.1v.3z" fill="#2d3134"/><path d="m40.6 144.1-.2-.2 25.5-13.6 13.6-7.5.1.2-13.6 7.5z" fill="#2d3134"/><ellipse cx="65.8" cy="130.3" fill="#999" rx="2.1" ry="3.6" transform="matrix(.8945 -.4471 .4471 .8945 -51.3143 43.1727)"/><path d="m55.5 132.7 8.5-4.3c1.2-.6 1.8.3 2.4 1.5.6 1.2.9 2.2-.3 2.8l-8.5 4.3z" fill="#999"/><path d="m66.6 130.4c-.1.2-.3.4-.7.6l-8.5 4.3-1.4-2.9-.5.3 2.1 4.3 8.5-4.3c1-.5.9-1.4.5-2.3z" opacity=".2"/><path d="m55.9 163h-.2l.1-28 1.8-35.1h.3l-1.8 35.1z" fill="#2d3134"/><path d="m67.7 168.8-11.9-33.7-9.2-39.1.2-.1 9.3 39.1 11.8 33.8z" fill="#2d3134"/><path d="m44.2 151.6-.2-.1 11.9-16.5 14.7-23.6.2.1-14.7 23.6z" fill="#2d3134"/><path d="m77.8 167.9-21.9-32.8-18.4-34.9.2-.1 18.4 34.9 21.9 32.8z" fill="#2d3134"/><path d="m84.7 161.1-28.8-26-23.9-26.4.1-.1 23.9 26.4 28.8 25.9z" fill="#2d3134"/><path d="m86.6 149.1-30.7-14-24.6-13 .1-.2 24.6 13 30.7 14z" fill="#2d3134"/><path d="m35.6 137.4v-.3l20.3-2.2 27.5-4v.2l-27.4 4.1z" fill="#2d3134"/><path d="m85.1 119.7c-11.1-22.2-31.3-34.7-45.1-27.8s-15.9 30.5-4.8 52.7 31.3 34.7 45 27.8c13.8-6.9 16-30.5 4.9-52.7zm-9.5 49.6c-11.5 5.7-28.8-5.7-38.7-25.5s-8.6-40.5 2.8-46.3c11.5-5.7 28.8 5.7 38.7 25.5s8.7 40.6-2.8 46.3z" fill="#2d3134"/><path d="m69.1 171.3c-5.4 0-11.6-2.7-17.4-7.5-6-4.9-11.2-11.8-15.2-19.8-10-20-8.6-41.1 3.1-46.9 2-1 4.3-1.5 6.7-1.5 5.4 0 11.6 2.7 17.4 7.5 6 4.9 11.2 11.8 15.2 19.8 10 20 8.6 41.1-3.1 46.9-2 .9-4.3 1.5-6.7 1.5zm-22.9-74.8c-2.3 0-4.4.5-6.3 1.4-11.2 5.6-12.4 26.1-2.6 45.6 7.9 15.7 20.9 26.7 31.8 26.7 2.3 0 4.4-.5 6.3-1.4 11.2-5.6 12.4-26.1 2.6-45.6-7.9-15.7-20.9-26.7-31.8-26.7z" fill="#999"/><ellipse cx="56" cy="135.1" fill="#999" rx="2.1" ry="3.6" transform="matrix(.8945 -.4471 .4471 .8945 -54.4854 39.3115)"/><path d="m144.9 111.2c.4-.2.7-.2.9-.1l4.4 2.2c.3.1.4.4.4.8 0 .8-.6 1.7-1.4 2-.4.2-.7.2-1 .1 0 0-4.4-2.2-4.5-2.3-.2-.1-.4-.4-.4-.7.3-.7.9-1.6 1.6-2z" fill="#39c"/><path d="m148.4 116.3c-.1 0-4.4-2.2-4.5-2.3-.2-.1-.4-.4-.4-.7s.1-.6.3-.9l4.4 2.2c-.2.3-.3.6-.3.9.1.4.3.7.5.8z" opacity=".11"/><path d="m148 115.5c0 .8.6 1.1 1.4.7s1.4-1.3 1.4-2c0-.8-.6-1.1-1.4-.7s-1.4 1.3-1.4 2z" opacity=".11"/><path d="m126.2 159.1c-.7-.4-1.4-.4-1.9-.2l-6 3.1c-.5.2-.8.8-.8 1.5 0 1.5 1.2 3.3 2.7 4.1.7.4 1.4.4 1.9.2 0 0 6-3.1 6.2-3.2.4-.3.7-.8.7-1.5-.1-1.4-1.3-3.2-2.8-4z" fill="#39c"/><path d="m122.1 167.8c.2-.1 6-3.1 6.1-3.1.4-.3.7-.8.7-1.5 0-.6-.2-1.3-.5-1.9l-6 3.1c.3.6.5 1.3.5 1.9 0 .7-.3 1.2-.8 1.5z" opacity=".2"/><path d="m122.9 166.3c0 1.5-1.2 2.1-2.7 1.4s-2.7-2.6-2.7-4.1 1.2-2.1 2.7-1.4 2.7 2.6 2.7 4.1z" opacity=".1"/><path d="m98.9 65.6c-.5-.2-.9-.3-1.2-.1l-10.2 5c-.3.2-.6.5-.6 1 0 1 .8 2.2 1.8 2.6.5.2.9.3 1.2.1 0 0 10.2-5 10.3-5 .3-.2.5-.5.5-1 0-.9-.8-2.1-1.8-2.6z" fill="#762c07"/><path d="m90 74.2c.1-.1 10.2-5 10.2-5 .3-.2.5-.5.5-1 0-.4-.1-.8-.3-1.2l-10.2 5c.2.4.3.8.3 1.2 0 .5-.2.9-.5 1z" opacity=".2"/><path d="m90.5 73.3c0 1-.8 1.4-1.8.9s-1.7-1.7-1.7-2.7.8-1.4 1.8-.9 1.7 1.7 1.7 2.7z" opacity=".11"/><path d="m89.8 69.3c-.7-.3-1.3-.4-1.7-.2l-1.9.9c-.5.2-.8.7-.8 1.4 0 1.4 1.1 3 2.5 3.7.7.3 1.3.4 1.7.2 0 0 1.9-.9 2-1 .4-.2.6-.7.6-1.3 0-1.4-1.1-3-2.4-3.7z" fill="#762c07"/><path d="m89.7 75.3c.2-.1 1.8-.9 1.9-1 .4-.2.6-.7.6-1.3 0-.5-.2-1.1-.5-1.7l-1.9.9c.3.6.5 1.2.5 1.7.1.7-.2 1.2-.6 1.4z" opacity=".2"/><path d="m90.4 73.9c0 1.4-1.1 1.9-2.5 1.2s-2.5-2.3-2.5-3.7 1.1-1.9 2.5-1.2 2.5 2.4 2.5 3.7z" opacity=".1"/><path d="m64.2 86.5c-.6 0-1.2-.3-1.5-.9-.4-.8-.1-1.9.8-2.3l23.4-11.7c.8-.4 1.9-.1 2.3.8.4.8.1 1.9-.8 2.3l-23.5 11.6c-.2.2-.5.2-.7.2z" fill="#656565"/><path d="m89.1 72.3s-.1-.1-.1-.1c-.2.3-.4.6-.8.8l-23.4 11.7c-.2.1-.5.2-.8.2-.6 0-1.1-.3-1.4-.8-.2.5-.2 1 0 1.5.3.6.9.9 1.5.9.3 0 .5-.1.8-.2l23.4-11.7c.9-.4 1.2-1.4.8-2.3z" opacity=".2"/><path d="m70.9 78.8c-.7-.3-1.3-.4-1.7-.2l-1.9.9c-.5.2-.8.7-.8 1.4 0 1.4 1.1 3 2.5 3.7.7.3 1.3.4 1.7.2 0 0 1.9-.9 2-1 .4-.2.6-.7.6-1.3 0-1.4-1.1-3.1-2.4-3.7z" fill="#762c07"/><path d="m70.8 84.7c.2-.1 1.8-.9 1.9-1 .4-.2.6-.7.6-1.3 0-.5-.2-1.1-.5-1.7l-1.8 1c.3.6.5 1.2.5 1.7 0 .6-.3 1.1-.7 1.3z" opacity=".2"/><path d="m71.5 83.4c0 1.4-1.1 1.9-2.5 1.2s-2.5-2.3-2.5-3.7 1.1-1.9 2.5-1.2 2.5 2.3 2.5 3.7z" opacity=".1"/><path d="m68.8 80.5c-.5-.2-.9-.3-1.2-.1l-10.2 5c-.3.2-.6.5-.6 1 0 1 .8 2.2 1.8 2.6.5.2.9.3 1.2.1 0 0 10.2-5 10.3-5 .3-.2.5-.5.5-1-.1-1-.9-2.1-1.8-2.6z" fill="#762c07"/><path d="m59.8 89.1c.1-.1 10.2-5 10.2-5 .3-.2.5-.5.5-1 0-.4-.1-.8-.3-1.2l-10.2 5c.2.4.3.8.3 1.2 0 .5-.2.8-.5 1z" opacity=".2"/><path d="m60.3 88.1c0 1-.8 1.4-1.8.9s-1.8-1.7-1.8-2.6.8-1.4 1.8-.9 1.8 1.7 1.8 2.6z" opacity=".1"/><path d="m129.6 123.6h3.6v39.3h-3.6z" fill="#39c" transform="matrix(.938 .3467 -.3467 .938 57.8287 -36.6769)"/><path d="m56 135.2c-.4-.1-.6-.6-.4-1 1.9-4.7 12-29.8 13.4-32.1 2.8-4.8 7.9-6 8.1-6l.5 2.2-.3-1.1.3 1.1s-4.3 1.1-6.6 5c-1.1 1.9-10.3 22.7-14 31.5-.2.4-.6.6-1 .4z" fill="#39c"/><path d="m119.9 161.3-37.7-73.2c-.4-.9-.1-1.9.8-2.4.9-.4 1.9-.1 2.4.8l37.8 73.3z" fill="#39c"/><path d="m78.8 98.4-3.1-1.1 6.6-18.9 2.9 1.7z" fill="#39c"/><path d="m79.5 76.4c.4-.2.7-.2.9-.1l4.4 2.2c.3.1.4.4.4.8 0 .7-.6 1.7-1.3 2-.4.2-.7.2-.9.1 0 0-4.4-2.2-4.5-2.3-.2-.1-.4-.4-.4-.7.1-.7.7-1.6 1.4-2z" fill="#39c"/><path d="m132.1 137-50.3-49.5c-.7-.7-.7-1.8 0-2.5.7-.7 1.8-.7 2.5 0l50.3 49.4z" fill="#39c"/><ellipse cx="138.2" cy="124.8" fill="#39c" rx="1.8" ry=".7" transform="matrix(.9421 .3353 -.3353 .9421 49.8372 -39.1232)"/><path d="m138.2 125.3c-.7-.2-1.2-.6-1-1.2l5.1-13.9c.2-.7 1-1 1.7-.8s1 1 .8 1.7l-5.1 13.9c-.3.4-.9.5-1.5.3z" fill="#656565"/><path d="m138.2 125.3c-.7-.2-1.2-.6-1-1.2l5.1-13.9c.2-.7 1-1 1.7-.8s1 1 .8 1.7l-5.1 13.9c-.3.4-.9.5-1.5.3z" opacity=".2"/><path d="m130.8 99.6c.6-3.8 9.8.6 13 2.5s11 1.9 13.7 5.1c2.4 3-3.2 11.2-10.4 10.3s-8-7.8-9.2-9.5c-1.3-1.8-7.5-5.6-7.1-8.4z" fill="#762c07"/><path d="m147.1 115.3c-7.2-.9-8-7.8-9.2-9.5-1-1.4-5.6-4.3-6.8-6.8-.1.2-.2.4-.3.7-.5 2.8 5.8 6.6 7.1 8.3 1.2 1.7 2 8.6 9.2 9.5 6.6.8 12-6.1 10.8-9.5-.9 3.5-5.4 8-10.8 7.3z" opacity=".2"/><path d="m124.7 169.6c-.1 0-.2-.1-.3-.2-.1-.2-.1-.4.1-.5l.5-.3-6.8-.7c-.1 0-.2-.1-.3-.2s0-.2 0-.3l1.4-2.3c.1-.2.3-.2.5-.1s.2.3.1.5l-1.1 1.9 7.2.8c.1 0 .3.1.3.3 0 .1 0 .3-.1.4l-1.3.9c-.1-.2-.2-.2-.2-.2z" fill="#2d3134"/><path d="m118.2 177.1-5.2-2.6v-2l9.1-4.5 5.2 2.6v1.9z" fill="#2d3134"/><path d="m113 172.5v2l5.2 2.6v-2z" opacity=".11"/><path d="m127.3 170.6v1.9l-9.1 4.6v-2z" fill="#39c"/><path d="m127.3 170.6v1.9l-9.1 4.6v-2z" opacity=".29"/><path d="m93.8 68.4s1.5.5 1.3 1.5-2.1 2.9-1.9 3.4c.1.6 2.1.6 3.6-1s4.1-7.6 4.1-7.6z" fill="#fbd7c7"/><path d="m60.5 83.8s3.9-.9 4.4-.9 1.8.4 1.8 1.3c-.1.9-.9 2.3-.6 2.9.5.8 2.9-1.3 3.2-2.8.2-1.4-.1-2-.1-2s4.7-1.5 6.8-1.9c2.2-.3 8.2-.9 10.3-3.1s14.9-14.1 14.9-14.1l-8.8-10s-5 6.5-7.5 10.1c-1.6 2.4-3.5 7-3.9 7.3s-2.9.6-8 3.2-4.1 3.9-6.7 4.6c-2.6.8-4.9.1-7.2 1.4-1.4.8-2.1 3.5-1.3 4.4.5.7 2.7-.4 2.7-.4z" fill="#fbd7c7"/><path d="m117 93.4c-4.4.6-17.6 5.5-21.1 6.8s-10.3 5.6-11.7 8.8c-1.2 2.7 0 7.1 1.2 8.8 1.2 1.6 2.7 3.6 3.4 4.9s5.7 9 8.5 12.6c3.3 4.3 12.8 16.3 13.7 18.6.8 2.3 3.7 5.8 3.4 7.5-.4 1.6-2.2 6.1-2.2 6.1l11.7-9.3s-5-6.2-7.1-10c-2.1-3.9-6.3-17.1-7.8-21-1.5-4-6.1-9.7-6.1-9.7s10.7-4.2 17.3-5.3c6.4-1.3-3.2-18.8-3.2-18.8z" fill="#fbd7c7"/><path d="m110.6 153.5 6.9-4.1s2.3 2.8 3.9 4.6c1.5 1.8 2.9 4.9 2.9 4.9l-13.4 9.8s3.7-4.9 3-7.6c-.7-2.8-3.3-7.6-3.3-7.6z" fill="#fff"/><path d="m103.2 178.2c.5 1.5 6.2.3 12.8-3.5s13-6.3 12.1-8c-.8-1.7-5.2-10.4-5.2-10.4s-3.7 4.5-6.6 6.6c-2.8 2.1-7.5 5.1-7.5 5.1s-2.6 1.7-4.4 4.2c-1.2 1.6-2 3.7-1.2 6z" fill="#06547a"/><path d="m116.1 174.7c6.6-3.8 13-6.3 12.1-8-.1-.2-.3-.6-.5-1.1-2.8-.5-11.4 5.3-16.3 7.1-4 1.5-7.3 3.6-8.2 5.4v.1c.6 1.5 6.2.3 12.9-3.5z" opacity=".5"/><path d="m93.8 100.6s8-4.5 15.1-6.9c6.6-2.3 13-3.3 13-3.3l-4-11.7 23.6-7.7s13.2 11.1 16.1 20.3 1.2 14.8-7.6 14.9c-4.1 7.8-18.4 7.7-26.9 8.3s-18.5 2.2-18.5 2.2z" fill="#06547a"/><path d="m97.7 106.1 1.1 1.7s10.3-1.7 15-2.8c5.2-1.1 13.3-2.9 15.3-6.6 1.6-3 .2-8 .2-8l-5.6.9s2.4 3.9-.2 6.8-10.3 4.1-14 5c-3.8 1.1-11.8 3-11.8 3z" fill="#e5e5e5"/><path d="m87.8 59.1s2.2 4.5 4.7 6.6c1.7 1.4 4.4 2.5 4.4 2.5l6-3.8s5.4 7.8 7.7 11.3c2.8 4.2 8.1 16.3 9.7 16.2s10.9-.2 22-3.7c6.6-2.1 10.2-6 10.2-6.6s-4.5-10.9-7.3-19.7c-2.8-8.9-5.4-16.5-5.4-16.5s3.7-2.9 3.7-5.5-6.2-12.6-12.6-13.3-24.8 9.3-27.5 11.5c-2.6 2.3-9.5 6.7-11.3 9.4-1.9 2.7-4.3 11.6-4.3 11.6z" fill="#9c3"/><path d="m152.4 81.6c0-.6-4.5-10.9-7.3-19.7-2.8-8.9-5.4-16.5-5.4-16.5s-.5-1.8-5-9.6c-2.3-4-7.9-8.4-8.9-8.5-8.1 2.3-20.3 9-22.5 10.8-1.9 1.7-6 4.4-8.9 6.9 2 .4 4.7 1.5 6 3.3 3.3 4.6 2.4 16.2 2.4 16.2s5.4 7.8 7.7 11.3c2.8 4.2 8.1 16.3 9.7 16.2s10.9-.2 22-3.7c6.6-2.2 10.2-6.2 10.2-6.7z" opacity=".2"/><path d="m95.2 12.7c-1 4 .8 13.4 3 17.7 2.1 4.2 4.8 2.8 5.5 4 .7 1.1-.5 4.2-.5 4.2s10.5-.5 13.8-3.2c3.4-2.9 2.5-4.9 2.5-4.9s-2.4-1.7-3.3-4c-.8-2.3 4.7-16.8-5.2-20.1s-14.5 1.2-15.8 6.3z" fill="#fbd7c7"/><path d="m93.4 17.2s2.6-12.3 15.6-10.5c12.7 1.8 14.7 22.1 14.7 22.1s-10.9-.7-17.9-2.9c-6.9-2.2-12.4-8.7-12.4-8.7z" fill="#2d3134"/><path d="m93.2 15s3.4-13.3 17.6-10.7c13.7 2.6 15.2 24.8 15.2 24.8s-12.1-1.2-19.6-3.9c-7.6-2.8-13.2-10.2-13.2-10.2z" fill="#39c"/><path d="m103.4 34.5-.6-.3s1.5-2.4 2-4.1c.4-1.4 0-4.2-.1-5.2l1.5.2c0 .1.1 2.7-.2 4.7.2-.2.4-.5.5-.7 1.5-2 1.5-3.4 1.8-3.3l1.4.3c0 .1-.8 1.5-2.4 3.7s-3.8 4.6-3.9 4.7z" fill="#2d3134"/><path d="m94.5 13.4 1.2 1.3s3.9-6 8.3-7 7.5-.5 7.5-.5-2-2.2-7.5-1.4-9.5 7.6-9.5 7.6z" opacity=".2"/><path d="m96.9 16 1.6 1.5s1.8-3.3 5-5c3.1-1.7 5.2-1.5 5.2-1.5s-2.5-1.7-6.3.1c-3.7 1.7-5.5 4.9-5.5 4.9z" opacity=".2"/><path d="m100.7 19.2s2 1.6 5.1 3.2c1.6.8 4.8 1.5 4.8 1.5s-.2-5.1-3.6-6.7-6.3 2-6.3 2z" opacity=".2"/></svg>