<svg enable-background="new 0 0 240 240" viewBox="0 0 240 240" xmlns="http://www.w3.org/2000/svg"><path d="m121.3 164.2-5.2-2.6v-2l9.1-4.5 5.2 2.6v1.9z" fill="#2d3134"/><path d="m116.1 159.6v2l5.2 2.6v-2z" opacity=".11"/><path d="m130.4 157.7v1.9l-9.1 4.6v-2z" fill="#cc291f"/><path d="m130.4 157.7v1.9l-9.1 4.6v-2z" opacity=".29"/><path d="m65.7 130.8-1.3-.6c5.9-10.8 14.6-27.7 15-29.9.2-.8-.1-1.1-.2-1.2-.5-.6-1.7-.8-2-.8l.1-2.3c.2 0 2.4.1 3.6 1.7.5.6.9 1.6.6 3.1-.5 3.3-14.3 27.3-15.8 30z" fill="#cc291f"/><path d="m172.9 186.3c-.2 0-.4 0-.5-.1l-45.5-22.2c-.6-.3-.9-1.1-.6-1.7s1.1-.9 1.7-.6l40.5 19.7-34.1-42.6c-.4-.5-.3-1.3.2-1.8.5-.4 1.3-.3 1.8.2l37.6 46.9c.4.5.4 1.1 0 1.6-.3.4-.7.6-1.1.6z" fill="#cc291f"/><ellipse cx="174.9" cy="184.5" fill="#656565" rx="4.5" ry="7.7" transform="matrix(.8945 -.4471 .4471 .8945 -64.031 97.6655)"/><ellipse cx="174.9" cy="184.5" opacity=".2" rx="4.5" ry="7.7" transform="matrix(.8945 -.4471 .4471 .8945 -64.031 97.6655)"/><path d="m130.4 173.8c-3.8 0-8.2-3.6-10.9-9-3.4-6.8-2.9-13.6 1.2-15.7.7-.4 1.5-.5 2.4-.5 3.8 0 8.2 3.6 10.9 9 3.4 6.8 2.9 13.6-1.2 15.7-.8.3-1.6.5-2.4.5zm-7.3-23.9c-.6 0-1.2.1-1.8.4-3.3 1.7-3.6 7.9-.6 13.9 2.4 4.9 6.4 8.3 9.7 8.3.6 0 1.2-.1 1.8-.4 3.3-1.7 3.6-7.9.6-13.9-2.4-4.9-6.4-8.3-9.7-8.3z" fill="#656565"/><path d="m130 171.7c-3 0-6.7-3.2-9-7.8-2.9-5.7-2.7-11.4.4-13 .5-.3 1.1-.4 1.7-.4 3 0 6.7 3.2 9 7.8 2.9 5.7 2.7 11.4-.4 13-.6.3-1.1.4-1.7.4zm-6.9-20.1c-.4 0-.8.1-1.2.3-2.5 1.3-2.5 6.6 0 11.6 2.1 4.2 5.5 7.3 8.1 7.3.4 0 .8-.1 1.2-.3 2.5-1.3 2.5-6.6 0-11.6-2.1-4.3-5.5-7.3-8.1-7.3z" fill="#656565"/><ellipse cx="126.4" cy="161.7" fill="#656565" rx="2.9" ry="4.6" transform="matrix(.8945 -.4471 .4471 .8945 -58.9475 73.5708)"/><path d="m130.4 173.8c-3.8 0-8.2-3.6-10.9-9-3.4-6.8-2.9-13.6 1.2-15.7.7-.4 1.5-.5 2.4-.5 3.8 0 8.2 3.6 10.9 9 3.4 6.8 2.9 13.6-1.2 15.7-.8.3-1.6.5-2.4.5zm-7.3-23.9c-.6 0-1.2.1-1.8.4-3.3 1.7-3.6 7.9-.6 13.9 2.4 4.9 6.4 8.3 9.7 8.3.6 0 1.2-.1 1.8-.4 3.3-1.7 3.6-7.9.6-13.9-2.4-4.9-6.4-8.3-9.7-8.3z" opacity=".2"/><path d="m130 171.7c-3 0-6.7-3.2-9-7.8-2.9-5.7-2.7-11.4.4-13 .5-.3 1.1-.4 1.7-.4 3 0 6.7 3.2 9 7.8 2.9 5.7 2.7 11.4-.4 13-.6.3-1.1.4-1.7.4zm-6.9-20.1c-.4 0-.8.1-1.2.3-2.5 1.3-2.5 6.6 0 11.6 2.1 4.2 5.5 7.3 8.1 7.3.4 0 .8-.1 1.2-.3 2.5-1.3 2.5-6.6 0-11.6-2.1-4.3-5.5-7.3-8.1-7.3z" opacity=".2"/><ellipse cx="126.4" cy="161.7" opacity=".2" rx="2.9" ry="4.6" transform="matrix(.8945 -.4471 .4471 .8945 -58.9475 73.5708)"/><path d="m178.9 182.5c-1.2-2.5-3.1-4-4.8-4.9l-46.9-27.7s0 0-.1 0l-1-.5c-1-.5-2.1-.7-3-.7s-1.6.2-2.4.5c-4.1 2-4.6 8.9-1.2 15.7 2.1 4.1 5.1 7.2 8.1 8.4l47.7 18c1.1.5 2.1.6 3 .1 2.2-1.1 2.5-5.1.6-8.9z" fill="none" stroke="#2d3134" stroke-miterlimit="10" stroke-width=".9757"/><path d="m39.6 161.6 6.7-3.6 141.4 71.3-6.7 3.6z" opacity=".2"/><path d="m149.7 196c-9.3-18.6-8.7-38.1.9-45.1-.9.2-1.8.6-2.6 1-11.5 5.7-12.8 26.5-2.8 46.3 9.9 19.8 27.2 31.2 38.7 25.5.7-.3 1.3-.7 1.9-1.2-11.4 3.1-26.9-8.1-36.1-26.5z" fill="#656565"/><path d="m149.7 196c-9.3-18.6-8.7-38.1.9-45.1-.9.2-1.8.6-2.6 1-11.5 5.7-12.8 26.5-2.8 46.3 9.9 19.8 27.2 31.2 38.7 25.5.7-.3 1.3-.7 1.9-1.2-11.4 3.1-26.9-8.1-36.1-26.5z" opacity=".2"/><path d="m171 221.8h-.2l3.3-37 1.9-25.8.2.1-1.8 25.7z" fill="#2d3134"/><path d="m189.7 221.5-15.6-36.7-14.3-35.1.2-.1 14.4 35.2 15.5 36.7z" fill="#2d3134"/><path d="m157 209.9-.2-.2 17.4-25 10.3-14.3.2.1-10.4 14.4z" fill="#2d3134"/><path d="m195.2 206.3-21-21.4-30.4-27.4.2-.2 30.3 27.4 21.1 21.4z" fill="#2d3134"/><path d="m194.6 193.6-20.4-8.7-33.2-13.7v-.2l33.3 13.7 20.4 8.7z" fill="#2d3134"/><path d="m174.3 184.9-30.7-.4v-.2l30.7.4 19.4-.1v.3z" fill="#2d3134"/><path d="m148.9 198.5-.1-.2 25.4-13.6 13.6-7.5.1.2-13.6 7.5z" fill="#2d3134"/><ellipse cx="174.1" cy="184.7" fill="#999" rx="2.1" ry="3.6" transform="matrix(.8945 -.4471 .4471 .8945 -64.208 97.3407)"/><path d="m163.8 187.1 8.5-4.3c1.2-.6 1.8.3 2.4 1.5.6 1.2.9 2.2-.3 2.8l-8.5 4.3z" fill="#999"/><path d="m174.9 184.8c-.1.2-.3.4-.7.6l-8.5 4.3-1.4-2.9-.5.3 2.1 4.3 8.5-4.3c1-.5.9-1.4.5-2.3z" opacity=".2"/><g fill="#2d3134"><path d="m164.2 217.4h-.2l.1-28 1.8-35.2.3.1-1.8 35.1z"/><path d="m176 223.2-11.8-33.7-9.3-39.1.2-.1 9.3 39.1 11.8 33.8z"/><path d="m152.5 206-.2-.1 11.9-16.5 14.8-23.6.1.1-14.7 23.6z"/><path d="m186.1 222.3-21.9-32.8-18.4-34.9.2-.1 18.4 34.9 21.9 32.8z"/><path d="m193 215.5-28.8-26-23.9-26.4.1-.1 23.9 26.4 28.8 25.9z"/><path d="m194.9 203.5-30.7-14-24.6-13 .2-.2 24.5 13 30.7 14z"/><path d="m143.9 191.8v-.3l20.3-2.2 27.5-4 .1.2-27.5 4.1z"/><path d="m193.4 174.1c-11.1-22.2-31.3-34.7-45-27.8-13.8 6.9-15.9 30.5-4.8 52.7s31.3 34.7 45 27.8 15.9-30.5 4.8-52.7zm-9.5 49.6c-11.5 5.7-28.8-5.7-38.7-25.5s-8.6-40.5 2.8-46.3c11.5-5.7 28.8 5.7 38.7 25.5s8.7 40.6-2.8 46.3z"/></g><path d="m177.4 225.7c-5.4 0-11.6-2.7-17.4-7.5-6-4.9-11.2-11.8-15.2-19.8-10-20-8.6-41.1 3.1-46.9 2-1 4.3-1.5 6.7-1.5 5.4 0 11.6 2.7 17.4 7.5 6 4.9 11.2 11.8 15.2 19.8 10 20 8.6 41.1-3.1 46.9-2 .9-4.3 1.5-6.7 1.5zm-22.9-74.8c-2.3 0-4.4.5-6.3 1.4-11.2 5.6-12.4 26.1-2.6 45.6 7.9 15.7 20.9 26.7 31.8 26.7 2.3 0 4.4-.5 6.3-1.4 11.2-5.6 12.4-26.1 2.6-45.6-7.9-15.7-20.9-26.7-31.8-26.7z" fill="#999"/><ellipse cx="164.3" cy="189.5" fill="#999" rx="2.1" ry="3.6" transform="matrix(.8945 -.4471 .4471 .8945 -67.3791 93.4795)"/><path d="m41.4 141.7c-9.3-18.6-8.7-38.1.9-45.1-.9.2-1.8.6-2.6 1-11.5 5.7-12.8 26.5-2.8 46.3 9.9 19.8 27.2 31.2 38.7 25.5.7-.3 1.3-.7 1.9-1.2-11.4 3-26.9-8.1-36.1-26.5z" fill="#656565"/><path d="m41.4 141.7c-9.3-18.6-8.7-38.1.9-45.1-.9.2-1.8.6-2.6 1-11.5 5.7-12.8 26.5-2.8 46.3 9.9 19.8 27.2 31.2 38.7 25.5.7-.3 1.3-.7 1.9-1.2-11.4 3-26.9-8.1-36.1-26.5z" opacity=".2"/><path d="m62.7 167.5h-.2l3.3-37 1.9-25.8h.2l-1.8 25.8z" fill="#2d3134"/><path d="m81.4 167.2-15.6-36.7-14.3-35.1.2-.1 14.3 35.1 15.6 36.7z" fill="#2d3134"/><path d="m48.7 155.5-.2-.1 17.4-25 10.3-14.3.2.1-10.4 14.3z" fill="#2d3134"/><path d="m86.9 152-21-21.4-30.4-27.4.2-.2 30.3 27.4 21.1 21.4z" fill="#2d3134"/><path d="m86.3 139.3-20.4-8.7-33.3-13.7.1-.2 33.3 13.7 20.4 8.7z" fill="#2d3134"/><path d="m65.9 130.6-30.6-.4v-.2l30.6.4 19.5-.1v.2z" fill="#2d3134"/><path d="m40.6 144.2-.2-.2 25.5-13.6 13.6-7.5.1.2-13.6 7.5z" fill="#2d3134"/><ellipse cx="65.8" cy="130.4" fill="#999" rx="2.1" ry="3.6" transform="matrix(.8945 -.4471 .4471 .8945 -51.3516 43.1815)"/><path d="m55.5 132.8 8.5-4.3c1.2-.6 1.8.3 2.4 1.5.6 1.2.9 2.2-.3 2.8l-8.5 4.3z" fill="#999"/><path d="m66.6 130.5c-.1.2-.3.4-.7.6l-8.5 4.3-1.4-2.9-.5.3 2.1 4.3 8.5-4.3c1-.6.9-1.4.5-2.3z" opacity=".2"/><path d="m55.9 163h-.2l.1-27.9 1.8-35.2h.3l-1.8 35.2z" fill="#2d3134"/><path d="m67.7 168.9-11.9-33.7-9.2-39.1.2-.1 9.3 39.1 11.8 33.8z" fill="#2d3134"/><path d="m44.2 151.7-.2-.1 11.9-16.5 14.7-23.6.2.1-14.7 23.6z" fill="#2d3134"/><path d="m77.8 168-21.9-32.8-18.4-34.9.2-.1 18.4 34.9 21.9 32.8z" fill="#2d3134"/><path d="m84.7 161.2-28.8-26-23.9-26.4.1-.2 23.9 26.4 28.8 26z" fill="#2d3134"/><path d="m86.6 149.2-30.7-14-24.6-13 .1-.2 24.6 13 30.7 13.9z" fill="#2d3134"/><path d="m35.6 137.5v-.3l20.3-2.2 27.5-4v.2l-27.4 4z" fill="#2d3134"/><path d="m85.1 119.8c-11.1-22.2-31.3-34.7-45.1-27.8s-15.9 30.5-4.8 52.7 31.3 34.7 45 27.8c13.8-6.9 16-30.5 4.9-52.7zm-9.5 49.6c-11.5 5.7-28.8-5.7-38.7-25.5s-8.6-40.5 2.8-46.3c11.5-5.7 28.8 5.7 38.7 25.5s8.7 40.5-2.8 46.3z" fill="#2d3134"/><path d="m69.1 171.3c-5.4 0-11.6-2.7-17.4-7.5-6-4.9-11.2-11.8-15.2-19.8-10-20-8.6-41.1 3.1-46.9 2-1 4.3-1.5 6.7-1.5 5.4 0 11.6 2.7 17.4 7.5 6 4.9 11.2 11.8 15.2 19.8 10 20 8.6 41.1-3.1 46.9-2 1-4.3 1.5-6.7 1.5zm-22.9-74.7c-2.3 0-4.4.5-6.3 1.4-11.2 5.6-12.4 26.1-2.6 45.6 7.9 15.7 20.9 26.7 31.8 26.7 2.3 0 4.4-.5 6.3-1.4 11.2-5.6 12.4-26.1 2.6-45.6-7.9-15.7-20.9-26.7-31.8-26.7z" fill="#999"/><ellipse cx="56" cy="135.2" fill="#999" rx="2.1" ry="3.6" transform="matrix(.8945 -.4471 .4471 .8945 -54.5227 39.3203)"/><path d="m144.9 111.3c.4-.2.7-.2.9-.1l4.4 2.2c.3.1.4.4.4.8 0 .8-.6 1.7-1.4 2-.4.2-.7.2-1 .1 0 0-4.4-2.2-4.5-2.3-.2-.1-.4-.4-.4-.7.3-.7.9-1.6 1.6-2z" fill="#cc291f"/><path d="m148.4 116.4c-.1 0-4.4-2.2-4.5-2.3-.2-.1-.4-.4-.4-.7s.1-.6.3-.9l4.4 2.2c-.2.3-.3.6-.3.9.1.4.3.6.5.8z" opacity=".11"/><path d="m148 115.6c0 .8.6 1.1 1.4.7s1.4-1.3 1.4-2c0-.8-.6-1.1-1.4-.7-.8.3-1.4 1.3-1.4 2z" opacity=".11"/><path d="m126.2 159.2c-.7-.4-1.4-.4-1.9-.2l-6 3.1c-.5.2-.8.8-.8 1.5 0 1.5 1.2 3.3 2.7 4.1.7.4 1.4.4 1.9.2 0 0 6-3.1 6.2-3.2.4-.3.7-.8.7-1.5-.1-1.4-1.3-3.3-2.8-4z" fill="#cc291f"/><path d="m122.1 167.8c.2-.1 6-3.1 6.1-3.1.4-.3.7-.8.7-1.5 0-.6-.2-1.3-.5-1.9l-6 3.1c.3.6.5 1.3.5 1.9 0 .8-.3 1.3-.8 1.5z" opacity=".2"/><path d="m122.9 166.3c0 1.5-1.2 2.1-2.7 1.4s-2.7-2.6-2.7-4.1 1.2-2.1 2.7-1.4 2.7 2.7 2.7 4.1z" opacity=".1"/><path d="m98.9 65.7c-.5-.2-.9-.3-1.2-.1l-10.2 5c-.3.2-.6.5-.6 1 0 1 .8 2.2 1.8 2.6.5.2.9.3 1.2.1 0 0 10.2-5 10.3-5 .3-.2.5-.5.5-1 0-.9-.8-2.1-1.8-2.6z" fill="#762c07"/><path d="m90 74.3c.1-.1 10.2-5 10.2-5 .3-.2.5-.5.5-1 0-.4-.1-.8-.3-1.2l-10.2 5c.2.4.3.8.3 1.2 0 .5-.2.9-.5 1z" opacity=".2"/><path d="m90.5 73.3c0 1-.8 1.4-1.8.9s-1.7-1.6-1.7-2.6.8-1.4 1.8-.9 1.7 1.7 1.7 2.6z" opacity=".11"/><path d="m89.8 69.4c-.7-.3-1.3-.4-1.7-.2l-1.9.9c-.5.2-.8.7-.8 1.4 0 1.4 1.1 3 2.5 3.7.7.3 1.3.4 1.7.2 0 0 1.9-.9 2-1 .4-.2.6-.7.6-1.3 0-1.4-1.1-3-2.4-3.7z" fill="#762c07"/><path d="m89.7 75.4c.2-.1 1.8-.9 1.9-1 .4-.2.6-.7.6-1.3 0-.5-.2-1.1-.5-1.7l-1.9.9c.3.6.5 1.2.5 1.7.1.7-.2 1.2-.6 1.4z" opacity=".2"/><path d="m90.4 74c0 1.4-1.1 1.9-2.5 1.2s-2.5-2.3-2.5-3.7 1.1-1.9 2.5-1.2 2.5 2.3 2.5 3.7z" opacity=".1"/><path d="m64.2 86.6c-.6 0-1.2-.3-1.5-.9-.4-.8-.1-1.9.8-2.3l23.4-11.7c.8-.4 1.9-.1 2.3.8.4.8.1 1.9-.8 2.3l-23.5 11.6c-.2.1-.5.2-.7.2z" fill="#656565"/><path d="m89.1 72.4s-.1-.1-.1-.1c-.2.3-.4.6-.8.8l-23.4 11.7c-.2.1-.5.2-.8.2-.6 0-1.1-.3-1.4-.8-.2.5-.2 1 0 1.5.3.6.9.9 1.5.9.3 0 .5-.1.8-.2l23.4-11.7c.9-.4 1.2-1.4.8-2.3z" opacity=".2"/><path d="m70.9 78.8c-.7-.3-1.3-.4-1.7-.2l-1.9.9c-.5.2-.8.7-.8 1.4 0 1.4 1.1 3 2.5 3.7.7.3 1.3.4 1.7.2 0 0 1.9-.9 2-1 .4-.2.6-.7.6-1.3 0-1.3-1.1-3-2.4-3.7z" fill="#762c07"/><path d="m70.8 84.8c.2-.1 1.8-.9 1.9-1 .4-.2.6-.7.6-1.3 0-.5-.2-1.1-.5-1.7l-1.8 1c.3.6.5 1.2.5 1.7 0 .6-.3 1.1-.7 1.3z" opacity=".2"/><path d="m71.5 83.5c0 1.4-1.1 1.9-2.5 1.2s-2.5-2.3-2.5-3.7 1.1-1.9 2.5-1.2 2.5 2.3 2.5 3.7z" opacity=".1"/><path d="m68.8 80.6c-.5-.2-.9-.3-1.2-.1l-10.2 5c-.3.2-.6.5-.6 1 0 1 .8 2.2 1.8 2.6.5.2.9.3 1.2.1 0 0 10.2-5 10.3-5 .3-.2.5-.5.5-1-.1-1-.9-2.2-1.8-2.6z" fill="#762c07"/><path d="m59.8 89.2c.1-.1 10.2-5 10.2-5 .3-.2.5-.5.5-1 0-.4-.1-.8-.3-1.2l-10.2 5c.2.4.3.8.3 1.2 0 .5-.2.8-.5 1z" opacity=".2"/><path d="m60.3 88.2c0 1-.8 1.4-1.8.9s-1.8-1.7-1.8-2.6.8-1.4 1.8-.9 1.8 1.6 1.8 2.6z" opacity=".1"/><path d="m129.6 123.7h3.6v39.3h-3.6z" fill="#cc291f" transform="matrix(.938 .3467 -.3467 .938 57.8576 -36.6717)"/><path d="m56 135.3c-.4-.1-.6-.6-.4-1 1.9-4.7 12-29.8 13.4-32.1 2.8-4.8 7.9-6 8.1-6l.5 2.2-.3-1.1.3 1.1s-4.3 1.1-6.6 5c-1.1 1.9-10.3 22.7-14 31.5-.2.4-.6.6-1 .4z" fill="#cc291f"/><path d="m119.9 161.4-37.7-73.3c-.4-.9-.1-1.9.8-2.4.9-.4 1.9-.1 2.4.8l37.8 73.3z" fill="#cc291f"/><path d="m78.8 98.4-3.1-1 6.6-18.9 2.9 1.7z" fill="#cc291f"/><path d="m79.5 76.5c.4-.2.7-.2.9-.1l4.4 2.2c.3.1.4.4.4.8 0 .7-.6 1.7-1.3 2-.4.2-.7.2-.9.1 0 0-4.4-2.2-4.5-2.3-.2-.1-.4-.4-.4-.7.1-.7.7-1.6 1.4-2z" fill="#cc291f"/><path d="m132.1 137.1-50.3-49.5c-.7-.7-.7-1.8 0-2.5.7-.7 1.8-.7 2.5 0l50.3 49.4z" fill="#cc291f"/><path d="m164.1 191.1c-.2 0-.4-.1-.6-.2l-44.3-25c-.6-.4-.8-1.1-.5-1.8.4-.6 1.1-.8 1.8-.5l40.2 22.6-27.1-47.6c-.4-.6-.1-1.4.5-1.8s1.4-.1 1.8.5l29.5 51.7c.3.5.2 1.1-.2 1.5-.4.5-.8.6-1.1.6z" fill="#cc291f"/><ellipse cx="138.2" cy="124.9" fill="#cc291f" rx="1.8" ry=".7" transform="matrix(.9421 .3353 -.3353 .9421 49.8651 -39.1184)"/><path d="m138.2 125.3c-.7-.2-1.2-.6-1-1.2l5.1-13.9c.2-.7 1-1 1.7-.8s1 1 .8 1.7l-5.1 13.9c-.3.4-.9.5-1.5.3z" fill="#656565"/><path d="m138.2 125.3c-.7-.2-1.2-.6-1-1.2l5.1-13.9c.2-.7 1-1 1.7-.8s1 1 .8 1.7l-5.1 13.9c-.3.4-.9.5-1.5.3z" opacity=".2"/><path d="m130.8 99.7c.6-3.8 9.8.6 13 2.5s11 1.9 13.7 5.1c2.4 3-3.2 11.2-10.4 10.3s-8-7.8-9.2-9.5c-1.3-1.8-7.5-5.6-7.1-8.4z" fill="#762c07"/><path d="m147.1 115.3c-7.2-.9-8-7.8-9.2-9.5-1-1.4-5.6-4.3-6.8-6.8-.1.2-.2.4-.3.7-.5 2.8 5.8 6.6 7.1 8.3 1.2 1.7 2 8.6 9.2 9.5 6.6.8 12-6.1 10.8-9.5-.9 3.6-5.4 8-10.8 7.3z" opacity=".2"/><path d="m124.7 169.7c-.1 0-.2-.1-.3-.2-.1-.2-.1-.4.1-.5l.5-.3-6.8-.7c-.1 0-.2-.1-.3-.2s0-.2 0-.3l1.4-2.3c.1-.2.3-.2.5-.1s.2.3.1.5l-1.1 1.9 7.2.8c.1 0 .3.1.3.3 0 .1 0 .3-.1.4l-1.3.9c-.1-.2-.2-.2-.2-.2z" fill="#2d3134"/><path d="m118.2 177.2-5.2-2.6v-2l9.1-4.5 5.2 2.6v1.9z" fill="#2d3134"/><path d="m113 172.6v2l5.2 2.6v-2z" opacity=".11"/><path d="m127.3 170.7v1.9l-9.1 4.6v-2z" fill="#cc291f"/><path d="m127.3 170.7v1.9l-9.1 4.6v-2z" opacity=".29"/></svg>