<svg enable-background="new 0 0 480 400" viewBox="0 0 480 400" xmlns="http://www.w3.org/2000/svg"><path d="m150 355-140-70 320-160 140 70z" fill="#262626" opacity=".3"/><path d="m224.1 299.3-50.2-13.9 34.6-19.9 17.5 16.9z" fill="#2d3134"/><path d="m224.1 299.3-50.2-13.9 34.6-19.9 17.5 16.9z" opacity=".29"/><path d="m415.5 202-50.2-14 34.7-19.9 17.5 16.9z" fill="#2d3134"/><path d="m415.5 202-50.2-14 34.7-19.9 17.5 16.9z" opacity=".29"/><path d="m186.6 276.3c6.7-3.4 12.8-3.8 17.3-1.7l9.5 5.1c4.8 2.2 7.9 7.1 7.9 14.3 0 13.9-11.3 30.9-25.2 37.8-6.9 3.4-13.1 3.8-17.7 1.6 0 0-9.4-5-10.4-5.6-4.1-2.4-6.6-7.1-6.6-13.6 0-14 11.3-30.9 25.2-37.9z" fill="#2d3134"/><path d="m178.1 333.3c-1.8-.9-9.2-4.9-10.1-5.5-4.1-2.4-6.6-7.1-6.6-13.6 0-5.6 1.8-11.7 4.9-17.4l9.5 5.1c-3.1 5.7-4.9 11.8-4.9 17.4-.1 6.8 2.7 11.7 7.2 14z" opacity=".29"/><path d="m170.8 319.3c0 13.9 11.3 19.6 25.2 12.6s25.2-23.9 25.2-37.8-11.2-19.6-25.2-12.6c-13.9 6.9-25.2 23.9-25.2 37.8z" fill="#2d3134"/><path d="m176.3 316.5c0 10.9 8.8 15.3 19.7 9.9s19.7-18.7 19.7-29.6-8.8-15.3-19.7-9.9c-10.8 5.5-19.7 18.7-19.7 29.6z" fill="#e5e5e5"/><path d="m183.1 325.3c-3-1.7-4.8-5-4.8-9.7 0-.4 0-.8 0-1.1l11-1.7z" fill="#2d3134"/><path d="m191.9 303.6-11.5 2.5c2.4-5.7 6.7-11.3 11.9-14.9z" fill="#2d3134"/><path d="m200.1 299.5-.4-12c5.2-1.5 9.5-.3 11.9 3z" fill="#2d3134"/><path d="m213.7 296.7v1.1c0 4.7-1.8 9.8-4.8 14.5l-6.3-6.2z" fill="#2d3134"/><path d="m196 314.2 6.8 5.5c-2.1 1.9-4.4 3.5-6.8 4.7s-4.7 1.9-6.8 2z" fill="#2d3134"/><path d="m170.8 319.3c0 13.9 11.3 19.6 25.2 12.6s25.2-23.9 25.2-37.8-11.2-19.6-25.2-12.6c-13.9 6.9-25.2 23.9-25.2 37.8z" opacity=".11"/><path d="m378.7 179.6c6.7-3.4 12.8-3.8 17.3-1.7l9.5 5.1c4.8 2.2 7.9 7.1 7.9 14.3 0 13.9-11.3 30.9-25.2 37.8-6.9 3.4-13.1 3.8-17.7 1.6 0 0-9.4-5-10.4-5.6-4.1-2.4-6.6-7.1-6.6-13.6 0-14 11.3-30.9 25.2-37.9z" fill="#2d3134"/><path d="m370.2 236.6c-1.8-.9-9.2-4.9-10.1-5.5-4.1-2.4-6.6-7.1-6.6-13.6 0-5.6 1.8-11.7 4.9-17.4l9.5 5.1c-3.1 5.7-4.9 11.8-4.9 17.4 0 6.8 2.7 11.6 7.2 14z" opacity=".29"/><path d="m363 222.5c0 13.9 11.3 19.6 25.2 12.6s25.2-23.9 25.2-37.8-11.3-19.6-25.2-12.6c-14 7-25.2 23.9-25.2 37.8z" fill="#2d3134"/><path d="m368.5 219.8c0 10.9 8.8 15.3 19.7 9.9s19.7-18.7 19.7-29.6-8.8-15.3-19.7-9.9c-10.9 5.5-19.7 18.7-19.7 29.6z" fill="#e5e5e5"/><path d="m375.2 228.5c-3-1.7-4.8-5-4.8-9.7 0-.4 0-.8 0-1.1l11-1.7z" fill="#2d3134"/><path d="m384.1 206.8-11.5 2.5c2.4-5.7 6.7-11.3 11.9-14.9z" fill="#2d3134"/><path d="m392.3 202.7-.4-12c5.2-1.5 9.5-.3 11.9 3z" fill="#2d3134"/><path d="m405.9 199.9v1.1c0 4.7-1.8 9.8-4.8 14.5l-6.3-6.2z" fill="#2d3134"/><path d="m388.2 217.5 6.8 5.5c-2.1 1.9-4.4 3.5-6.8 4.7s-4.7 1.9-6.8 2z" fill="#2d3134"/><path d="m363 222.5c0 13.9 11.3 19.6 25.2 12.6s25.2-23.9 25.2-37.8-11.3-19.6-25.2-12.6c-14 7-25.2 23.9-25.2 37.8z" opacity=".11"/><path d="m32.9 214c4.5-4.7 57.2-46.1 66.7-53.4 9.5-7.2 80.5-55.4 114.2-57.4s40.5-.9 54.3-4.5 44.5-11.3 91.3 4.1 76.6 44.5 76.6 68.3c0 8-1.6 16.1-12.4 24.9-1.8 1.5-4.6 3.4-7.9 5.5.2-1.5.4-3 .4-4.5 0-10.6-6.2-17.4-15.8-17.4-3.8 0-7.9 1.1-12.1 3.2-14.5 7.2-26.2 24.9-26.2 39.4 0 3.2.6 6.1 1.7 8.6l-140.3 68.7c.4-2 .6-3.9.6-5.8 0-10.6-6.2-17.4-15.8-17.4-3.8 0-7.9 1.1-12.1 3.2-14.5 7.2-26.2 24.9-26.2 39.4 0 1.8.2 3.5.5 5.1-5.4 1.6-12.9 3.3-22 4.2-20.3 2-53.6-4.1-83.4-19.9-34-18-47.3-35.3-48.8-44.3-1.6-9.1 12.2-45.3 16.7-50z" fill="#339"/><path d="m353.2 172.4.7-.5c.1.1 6.8 9.8 7.5 26.7.7 17.3-4.9 29.1-7.2 30.7-1.2.9-31.6 15.9-60.5 29.8-52.4 25.2-60 27.5-61.5 27.5-.2 0-.3 0-.4-.1-3.7-1.6-36.5-45.5-37.9-47.4.1 0 159.4-66.6 159.3-66.7z" fill="#e5e5e5"/><path d="m283.9 215.1c0 2.9 2.4 4.1 5.3 2.7 2.9-1.5 5.3-5 5.3-8 0-2.9-2.4-4.1-5.3-2.7-2.9 1.5-5.3 5-5.3 8z" opacity=".2"/><path d="m283.9 217.6-2.3-2.6s16.7-10.9 18.2-8.7c1.6 2.1-15.9 11.3-15.9 11.3z" fill="#e5e5e5"/><path d="m209.7 246.6c0 2.9 2.4 4.1 5.3 2.7 2.9-1.5 5.3-5 5.3-8s-2.4-4.1-5.3-2.7c-2.9 1.5-5.3 5.1-5.3 8z" opacity=".2"/><path d="m209.7 249.2-2.3-2.6s16.7-10.9 18.2-8.7c1.5 2.1-15.9 11.3-15.9 11.3z" fill="#e5e5e5"/><path d="m353.6 172.1-169.8 70.8s16.5-60 71.2-82.1c58.8-23.7 98.6 11.3 98.6 11.3z" fill="#2d3134"/><path d="m335 176-60.7 25.3-21.1-35.7c1-.5 2.1-.9 3.2-1.3 13.1-5.3 26.3-8 39.3-8 13.1 0 24.3 2.8 33.2 6.2z" fill="#656565"/><path d="m261.9 206.4-66.9 27.9-1.8-5.8c2.2-4.9 5.2-10.6 8.9-16.6 8.4-13.5 22.3-30.9 43.4-42.5z" fill="#656565"/><path d="m217.5 105.4c-1.5-2.4 46.1-2.4 58.6-.8 12.5 1.7 33.3 6.2 52.2 16.6 16 8.8 40.4 30 27.6 32.6s-63-10.7-64.8-11.8-17.8-15.2-35.1-23.4-37.7-12-38.5-13.2z" fill="#2d3134"/><path d="m225.2 106c-.2-.1-.5-.1-.7-.2 4.6-.3 11.7-.5 20.9-.5 5.8 0 11.5.1 16.4.3 18.8 4.8 39.3 12.1 51.4 17.9 15.5 7.4 30.2 16.4 37.5 28.8-17.1-.4-56.4-10.8-58.8-11.9-.3-.2-1.4-1.1-2.6-2-5.6-4.5-18.7-14.9-32.7-21.4-11.2-5.3-23.8-8.9-31.4-11z" fill="#656565"/><path d="m106 162.8c-8.6.6-22.6 13.6-28 17.9-5.4 4.4-23.1 15.8-11.2 29.7s31.4 22.6 49.4 27.3 33.5 7.2 44.2-1.8 17.6-23.4 19.4-26.8 4.7-7.7-4.4-15.1c-10.5-8.6-48.9-32.6-69.4-31.2z" fill="#2d3134"/><path d="m106 164.5c-8.2.5-21.5 12.9-26.7 17.1s-22 15.1-10.6 28.3c11.3 13.2 29.8 21.5 47.1 26 17.2 4.4 31.9 6.9 42-1.7 10.2-8.6 16.8-22.2 18.5-25.5s4.5-7.3-4.2-14.3c-10-8.3-46.5-31.1-66.1-29.9z" fill="#656565"/><path d="m65 198.9c1.3-8.1 10.7-14.3 14.3-17.2 5.2-4.2 18.5-16.5 26.7-17.1 19.5-1.3 56.1 21.5 66.1 29.7 4.8 3.9 6.1 6.9 6 9.3-36.8-10.6-75.6-12.2-113.1-4.7z" opacity=".2"/><path d="m136.1 298.9s-5 2-8.7 1.1c-3.8-.9-19.6-6.3-19.6-6.3s6.6-23.2 13.9-29.2c7.2-6 15.5-5.1 17.2-4.1s-.7 35.6-2.8 38.5z" fill="#cc291f"/><path d="m33.2 256.1s-12.4-6.9-12.4-9.8 5.4-24.9 9.3-29.5 7.2-7.2 8.7-6.3c1.6.8-5.5 44.2-5.6 45.6z" fill="#cc291f"/><path d="m91.1 265.1c-1.5-2.9-36.5-20.2-38.6-19.4s-3 15.5-.5 18.8c2.6 3.3 27.7 17.3 32.6 16.4s7.8-13.2 6.5-15.8z" fill="#2d3134"/><path d="m84.9 263.5-2.7 13.7-25.8-13.3 2.7-13.5z" fill="#e5e5e5"/><path d="m107.8 293.6-2.9 5s-19.9-6.3-38.4-16c-18.5-9.6-33.9-21-33.9-21l.6-5.6s13.6 10.9 34.2 21.4c19.6 10.1 40.4 16.2 40.4 16.2z" fill="#2d3134"/><path d="m414.6 158.1-61 14-169.8 70.8-44.3 30.8s72.8-24.2 137.5-54.3 137.6-61.3 137.6-61.3z" fill="#fff" opacity=".3"/><path d="m194.7 238.6c9.5 12.7 34.7 45.9 37.6 47.1.8.1 6.9-1.6 44.4-19.4 1-1.5 3.1-14.4 1.7-30.5-1.4-17.5-9-28.2-9.1-28.3l.7-.5c.1.1 7.8 11 9.3 28.8 1.2 14.3-.3 26.2-1.5 30 4.8-2.3 10.1-4.8 16-7.6 29.9-14.4 58.9-28.8 59.9-29.5 1.9-1.3 7.5-12.8 6.8-29.9-.7-16.6-7.3-26.1-7.3-26.2l.7-.5c.1.1 6.8 9.8 7.5 26.7.7 17.3-4.9 29.1-7.2 30.7-1.2.9-31.6 15.9-60.5 29.8-52.4 25.2-60 27.5-61.5 27.5-.2 0-.3 0-.4-.1-3.7-1.6-36.5-45.5-37.9-47.4z" opacity=".2"/><path d="m181.5 204.9c9.2-21.2 67.9-69.4 112-62.3l.2-1.3c-26.7-4.3-55.5 11.2-70.2 20.8-20.1 13.1-38.2 30.8-43.2 42.3z" fill="#2d3134"/><path d="m100.9 165.7c39.5-27 92.3-59.3 119.3-59.9v-1.4c-27.3.6-80.4 33-120.1 60.1z" fill="#2d3134"/><path d="m339 179.4-2.9-11.5s5.1-2.6 6.9-1.2 5.7 12.8 2.7 16.3-3.9 3.6-3.9 3.6z" fill="#2d3134"/><path d="m16.2 263.9c-.4-2.3.2-6.2 1.3-10.9 9.3 10.1 25.8 24.2 52.3 36.3 28.3 12.9 46.6 18 56.6 20.1-.5 5-.3 13.4-.5 18.2-18.4-2.2-40.4-8.5-60.8-19.3-34-18.1-47.3-35.3-48.9-44.4z" opacity=".29"/><path d="m417.8 157.2s.5-8.8-1.8-12.4-.8-8.9 1.9-8.3c3.2.7 12.6 13.5 13.1 16.4.3 3-13.2 4.3-13.2 4.3z" fill="#e5e5e5"/><path d="m416.5 142.8c0 2.5 2 5.6 4.5 6.8 2.5 1.3 4.5.2 4.5-2.3s-2-5.6-4.5-6.8-4.5-.2-4.5 2.3z" opacity=".2"/><path d="m419.5 144.3c0 1.3 1.1 3 2.4 3.6 1.3.7 2.4.1 2.4-1.2s-1.1-3-2.4-3.6c-1.3-.7-2.4-.2-2.4 1.2z" fill="#fff" opacity=".4"/><path d="m419.2 150.6c0 1.3 1.1 3 2.4 3.6s2.4.1 2.4-1.2-1.1-3-2.4-3.6-2.4-.1-2.4 1.2z" fill="#fff" opacity=".4"/><path d="m135.5 279.2-1.1 6.3-5.1.6-15.1-5.1 2.5-5.9 13.2 4.9z" fill="#fff" opacity=".8"/><path d="m35 234.1-9.2-6.3-1.9 5.3 9.7 7.5z" fill="#fff" opacity=".8"/><path d="m218 161-58-30 22-11 59 29z" fill="#2d3134"/><path d="m220 130 15.5 7.8c2.7 1.4 4.5 4.2 4.5 7.2 0 3.1-1.7 5.9-4.5 7.2l-11.9 6c-2.3 1.1-5 1.1-7.2 0l-16.4-8.2v-10z" fill="#39c"/><path d="m164.5 117.8 11.9-6c2.3-1.1 5-1.1 7.2 0l16.4 8.2-20 10v10l-15.5-7.8c-2.7-1.4-4.5-4.2-4.5-7.2 0-3 1.7-5.8 4.5-7.2z" fill="#cc291f"/><path d="m200 120 20 10-20 10v10l-20-10v-10z" fill="#e5e5e5"/><path d="m200 140v10l-20-10v-10z" opacity=".29"/><path d="m180 130v10l-15.5-7.8c-2.7-1.4-4.5-4.2-4.5-7.2 0-1.6.5-3.1 1.3-4.4z" opacity=".29"/><path d="m220 150v9c-1.2 0-2.5-.3-3.6-.9l-16.4-8.1v-10z" opacity=".29"/><path d="m238.7 140.7c.8 1.3 1.3 2.8 1.3 4.4 0 3.1-1.7 5.9-4.5 7.2l-11.9 6c-1.1.6-2.4.9-3.6.9v-9z" opacity=".11"/><path d="m238 141-18 9-20-10 20 8z" fill="#fff" opacity=".8"/><path d="m180 130-17-9-1-1 17-9-15 9z" fill="#fff" opacity=".8"/><g fill="#2d3134"><path d="m243.6 263.9v-18.6l6-3.1c2.3-1.2 3.8-1.8 4.5-2 1.1-.3 2-.1 2.7.5s1.1 1.6 1.1 3.1c0 1.1-.2 2.2-.6 3.2s-.9 1.9-1.6 2.6c-.6.8-1.3 1.4-1.9 1.9-.9.6-2.2 1.4-3.9 2.3l-2.5 1.2v7zm3.7-17.4v5.3l2.1-1c1.5-.8 2.5-1.4 3-1.8s.9-1 1.2-1.5.4-1.1.4-1.7c0-.7-.2-1.1-.6-1.4-.4-.2-.9-.3-1.5-.1-.4.1-1.4.6-2.7 1.3z"/><path d="m260.1 246.2c0-1.9.3-3.6.9-5.2.4-1.2 1-2.3 1.7-3.4s1.5-2.1 2.4-2.9c1.2-1.1 2.5-2 4-2.8 2.7-1.4 4.9-1.7 6.6-.8 1.6.9 2.5 2.8 2.5 5.8s-.8 5.8-2.5 8.3c-1.6 2.5-3.8 4.5-6.6 5.9s-5 1.7-6.6.8c-1.5-.8-2.4-2.7-2.4-5.7zm3.9-2.1c0 2.1.5 3.5 1.5 4 1 .6 2.2.5 3.7-.3s2.7-1.9 3.7-3.5 1.4-3.4 1.4-5.6c0-2.1-.5-3.5-1.4-4.1s-2.2-.5-3.7.3-2.8 2-3.7 3.5c-1 1.7-1.5 3.6-1.5 5.7z"/><path d="m281.2 244.7v-18.5l3.8-1.9v15.3l9.3-4.8v3.1z"/><path d="m296.9 236.7v-18.6l3.8-1.9v18.6z"/><path d="m316.1 220 3.6-.7c-.6 2.3-1.5 4.3-2.8 5.9s-2.9 3-4.9 4c-2.5 1.3-4.5 1.4-6.1.6-1.6-.9-2.4-2.8-2.4-5.7 0-3.1.8-5.9 2.4-8.4s3.7-4.5 6.3-5.8c2.3-1.2 4.1-1.4 5.5-.8.8.4 1.5 1.2 1.9 2.5l-3.7 2.8c-.2-.9-.7-1.4-1.4-1.6s-1.5 0-2.5.5c-1.4.7-2.5 1.8-3.4 3.2s-1.3 3.3-1.3 5.5c0 2.4.4 3.8 1.3 4.4.8.6 1.9.5 3.3-.2 1-.5 1.9-1.3 2.6-2.3.8-1.1 1.3-2.3 1.6-3.9z"/><path d="m323 223.4v-18.6l13.8-7v3.1l-10 5.1v4.1l9.3-4.8v3.1l-9.3 4.8v5.1l10.4-5.3v3.1z"/></g><path d="m133.4 266.9c2.3-8.1 20.5-12.8 35.3-26.7 13.5-12.6 30.3-58.9 80.9-80.2 51.5-21.6 85.8-.3 112.6 2.7 18.3 2 46.3-6.3 66.9-12.8 4.5 7.2 6.9 14.4 6.9 21.1 0 8-1.6 16.1-12.4 24.9-1.8 1.5-4.6 3.4-7.9 5.5.2-1.5.4-3 .4-4.5 0-10.6-6.2-17.4-15.8-17.4-3.8 0-7.9 1.1-12.1 3.2-14.5 7.2-26.2 24.9-26.2 39.4 0 3.2.6 6.1 1.7 8.6l-140.3 68.7c.4-2 .6-3.9.6-5.8 0-10.6-6.2-17.4-15.8-17.4-3.8 0-7.9 1.1-12.1 3.2-14.5 7.2-26.2 24.9-26.2 39.4 0 1.8.2 3.5.5 5.1-5.4 1.6-12.9 3.3-22 4.2-6.4.6-14 .5-22.4-.5.8-39.8 5.7-54.9 7.4-60.7z" opacity=".11"/></svg>