<svg enable-background="new 0 0 304 144" viewBox="0 0 304 144" xmlns="http://www.w3.org/2000/svg"><path d="m144.6 38.9s-6.1-3.9-9.7-5.7-7.4-2.3-7.4-2.3c-1.3-.2-2.8-.5-4.5.4-3.5 1.8-6.4 6-6.4 9.6 0 1.9 1.2 2.9 2.2 3.5 0 0 2.2 1.4 6.6 3.4 4.4 2.1 10 4.6 10 4.6 1.2.7 2.8.7 4.7-.3 3.5-1.8 6.4-6 6.4-9.6-.1-1.8-.8-3-1.9-3.6z" fill="#e5e5e5"/><path d="m144.6 38.9s-6.1-3.9-9.7-5.7-7.4-2.3-7.4-2.3c-1.3-.2-2.8-.5-4.5.4-3.5 1.8-6.4 6-6.4 9.6 0 1.9 1.2 2.9 2.2 3.5 0 0 2.2 1.4 6.6 3.4 4.4 2.1 10 4.6 10 4.6 1.2.7 2.8.7 4.7-.3 3.5-1.8 6.4-6 6.4-9.6-.1-1.8-.8-3-1.9-3.6z" opacity=".1"/><path d="m139.1 51.9 9.4 3.3c.8.3 1.8.2 2.9-.3 2.4-1.2 4.1-3.6 4.1-6 0-1.4-.6-2.2-1.6-2.5l-8.1-4.5c-.9-.5-2.1-.5-3.5.2-2.6 1.3-4.8 4.5-4.8 7.1 0 1.4.6 2.3 1.6 2.7z" fill="#e5e5e5"/><path d="m139.1 51.9 9.4 3.3c.8.3 1.8.2 2.9-.3 2.4-1.2 4.1-3.6 4.1-6 0-1.4-.7-1.9-1.6-2.5l-8.1-4.5c-.9-.5-2.1-.5-3.5.2-2.6 1.3-4.8 4.5-4.8 7.1 0 1.4.6 2.3 1.6 2.7z" opacity=".15"/><path d="m118.3 35.8c-.7 1.1-1.1 2.2-1.4 3.3l17 8.5c.2-1.1.6-2.3 1.2-3.4z" fill="#fff" opacity=".2"/><path d="m147 41.5-18-8.7 24 3.6z" fill="#e5e5e5"/><path d="m152.2 37 .8-.6-24-3.6.7.4z" fill="#fff" opacity=".2"/><path d="m118.1 43s.2 0 .6-.1c9.7-1.9 117.1-22.1 121.2-21.7 3 .3 8.8 2.9 11.8 4.4.4.2.2 1.1.2 1.5 0 0-51.7 16.2-68.4 24.3-6.6 3.2-23.5 16.3-23.5 16.3" fill="#cc291f"/><path d="m178.6 53s6.6 6 5.7 7.1c-.8 1.2-13-4.6-13-4.6z" fill="#999"/><path d="m195.6 44.7s6.6 6 5.7 7.1c-.8 1.2-13-4.6-13-4.6z" fill="#999"/><path d="m209.4 39.1s6.6 6 5.7 7.1c-.8 1.2-13-4.6-13-4.6z" fill="#999"/><path d="m225.8 33s6.6 6 5.7 7.1-13-4.6-13-4.6z" fill="#999"/><path d="m178.6 53s6.6 6 5.7 7.1c-.8 1.2-13-4.6-13-4.6z" opacity=".2"/><path d="m195.6 44.7s6.6 6 5.7 7.1c-.8 1.2-13-4.6-13-4.6z" opacity=".2"/><path d="m209.4 39.1s6.6 6 5.7 7.1c-.8 1.2-13-4.6-13-4.6z" opacity=".2"/><path d="m225.8 33s6.6 6 5.7 7.1-13-4.6-13-4.6z" opacity=".2"/><path d="m163.4 51.4 2.6 2.1-10.9 7.3 6.8 3.8c4.3-3.2 13.7-10 19.2-13.3l.7-.5-7.9-5.9z" fill="#e5e5e5"/><path d="m238 28.8-7.8 2.5-2.2-2.9-50.2 15.9 2.5 4.5 1.5 2.1.5-.2c.5-.3.9-.5 1.3-.7 11.4-5.5 34.9-13.6 55.4-20.2z" fill="#e5e5e5"/><path d="m238 28.7-7.8 2.5-2.1-2.8v-.1l-50.5 15.9 2.6 4.6 1.5 2.1.2-.1-1.5-2.1-2.4-4.3 11-3.5 3.2 5.3.3-.1-3.3-5.3 10.5-3.3 3.1 4.9.2-.2-3.1-4.7 8.7-2.8 2.7 4.4.3-.2-2.8-4.3 19.2-6 2.2 2.9 7.8-2.5.9.8.1-.2z" opacity=".3"/><path d="m217 33.7h4.9v.3h-4.9z" opacity=".3" transform="matrix(-.5509 -.8346 .8346 -.5509 312.1805 235.5453)"/><path d="m173.8 44.8-10.5 6.5-.1.1 2.6 2.1-10.8 7.2-.2.1 7 3.9.2-.2-6.7-3.7 10.6-7.1 5.1 4.2.2-.2-5.1-4.2h.1l-2.6-2.1 10.2-6.3 7.9 5.8.2-.2z" opacity=".3"/><path d="m239 29.7c-20.5 6.7-44 14.7-55.4 20.2-6.6 3.3-23.6 16.1-23.6 16.1v1.5s17-12.8 23.6-16c11.6-5.6 35.5-13.8 55.4-20.3z" fill="#e5e5e5"/><path d="m183.6 50c-6.6 3.2-23.6 16-23.6 16v1.5s17-12.8 23.6-16c16.7-8.1 68.4-24.6 68.4-24.6 0-.1.2-1.3-.2-1.5-10.9 3.5-53.2 17.3-68.2 24.6z" opacity=".1"/><path d="m242 21.5c3 .9 6.6 2.6 8.8 3.7-10.9 3.5-53.1 17.2-68.1 24.5-6.6 3.2-23.6 16-23.6 16v1.3l.8.5v-1.5s17-12.8 23.6-16c15-7.3 57.3-21 68.1-24.5-2.3-1.2-6.5-3.1-9.6-4z" fill="#fff" opacity=".3"/><path d="m78 105.9s6.8 5.7 6 6.9-13.2-4.1-13.2-4.1z" fill="#999"/><path d="m78 105.9s6.8 5.7 6 6.9-13.2-4.1-13.2-4.1z" opacity=".2"/><path d="m106.2 88.4s6.8 5.7 6 6.9-13.2-4.1-13.2-4.1z" fill="#999"/><path d="m106.2 88.4s6.8 5.7 6 6.9-13.2-4.1-13.2-4.1z" opacity=".2"/><path d="m91.6 95.3s6.8 5.7 6 6.9-13.2-4.1-13.2-4.1z" fill="#999"/><path d="m91.6 95.3s6.8 5.7 6 6.9-13.2-4.1-13.2-4.1z" opacity=".2"/><path d="m62.5 118.9s6.8 5.7 6 6.9-13.2-4.1-13.2-4.1z" fill="#999"/><path d="m62.5 118.9s6.8 5.7 6 6.9-13.2-4.1-13.2-4.1z" opacity=".2"/><path d="m253.4 114.1 49.3-13.6c.1-.1-.1-1.2-.1-1.2-2.3-1.5-7.3-4.3-11-4.4-5.1-.2-70.1 7.8-70.1 7.8z" fill="#e5e5e5"/><path d="m253.4 112.8-29.4-10.5c-1.7.2-2.6.3-2.6.3l32 11.4 49.3-13.6c.1-.1-.1-1.2-.1-1.2z" opacity=".1"/><path d="m253.4 114.1 49.3-13.6z" fill="#e5e5e5"/><path d="m221.8 102.6c-.1 0-.1 0-.2 0z" fill="#e5e5e5"/><path d="m302.6 99.3c-2.3-1.5-7.3-4.3-11-4.4-4.8-.2-64.3 7.1-69.7 7.7.4-.1 1.2-.1 2.2-.3l29.4 10.5 49.1-13.5s.2 1.1.1 1.2c.1-.1-.1-1.2-.1-1.2z" fill="#e5e5e5"/><path d="m302.6 99.3c-2.3-1.5-7.3-4.3-11-4.4-4.8-.2-64.3 7.1-69.7 7.7.1 0 .3 0 .4-.1.1 0 .3 0 .5-.1h.2c.3 0 .7-.1 1.1-.1l29.4 10.5z" fill="#e5e5e5"/><path d="m302.6 99.3c-1.9-1.2-5.6-3.3-8.9-4.1 3.1.9 6.4 2.8 8.1 3.9l-49 13.5.7.2z" fill="#fff" opacity=".3"/><path d="m253.3 112.9-2.1-6.3h.1l31.8-7.6h18.7v.2h-18.6l-31.7 7.6 2 6z" opacity=".3"/><path d="m62.6 80s-6.1-3.9-9.7-5.7-7.4-2.3-7.4-2.3c-1.3-.2-2.8-.5-4.5.4-3.5 1.8-6.4 6-6.4 9.6 0 1.9 1.2 2.9 2.2 3.5 0 0 2.2 1.4 6.6 3.4s10 4.6 10 4.6c1.2.7 2.8.7 4.7-.3 3.5-1.8 6.4-6 6.4-9.6-.1-1.8-.8-3-1.9-3.6z" fill="#e5e5e5"/><path d="m62.6 80s-6.1-3.9-9.7-5.7-7.4-2.3-7.4-2.3c-1.3-.2-2.8-.5-4.5.4-3.5 1.8-6.4 6-6.4 9.6 0 1.9 1.2 2.9 2.2 3.5 0 0 2.2 1.4 6.6 3.4s10 4.6 10 4.6c1.2.7 2.8.7 4.7-.3 3.5-1.8 6.4-6 6.4-9.6-.1-1.8-.8-3-1.9-3.6z" opacity=".1"/><path d="m57.1 93 9.4 3.3c.8.3 1.8.2 2.9-.3 2.4-1.2 4.1-3.6 4.1-6 0-1.4-.6-2.2-1.6-2.5l-8.1-4.5c-.9-.5-2.1-.5-3.5.2-2.6 1.3-4.8 4.5-4.8 7.1 0 1.3.6 2.3 1.6 2.7z" fill="#e5e5e5"/><path d="m57.1 93 9.4 3.3c.8.3 1.8.2 2.9-.3 2.4-1.2 4.1-3.6 4.1-6 0-1.4-.7-1.9-1.6-2.5l-8.1-4.5c-.9-.5-2.1-.5-3.5.2-2.6 1.3-4.8 4.5-4.8 7.1 0 1.3.6 2.3 1.6 2.7z" opacity=".15"/><path d="m36.3 76.9c-.7 1.1-1.1 2.2-1.4 3.3l17 8.5c.2-1.1.6-2.3 1.2-3.4z" fill="#fff" opacity=".2"/><path d="m65 82.5-18-8.7 24 3.7z" fill="#e5e5e5"/><path d="m70.2 78.1.8-.6-24-3.7.7.5z" fill="#fff" opacity=".2"/><path d="m8.6 5.2c1.9-1 8.7-7.7 30.8 0s181.1 87.7 191.2 92.6c10.2 5 28.3 16.4 26.3 20.1s-49.1-4.6-62.5-6.6-47.2-13.2-64.4-22.4-97.8-47.9-104-52.1c-6.9-4.8-25.5-21.2-22.5-28.3 1.3-3.2 4.1-2.8 5.1-3.3z" fill="#e5e5e5"/><path d="m246 108.8 15.5-41s-9.2-7.5-15.5-6-22.2 19.1-31 21.9-19.8-.3-20.4.7c-.7 1 22.1 13.5 31 17.1s20.4 7.3 20.4 7.3z" fill="#cc291f"/><path d="m246 108.8 15.5-41s-9.2-7.5-15.5-6-22.2 19.1-31 21.9c-8.2 2.6-18 .1-20.1.5-.2 0-1.7.6-1.8.7-.7 1 23.5 12.9 32.5 16.6 7.3 3 19 7.8 19 7.8z" fill="#cc291f"/><path d="m7.4 5.5c.1 2.4 1.1 4.6 2.1 5.3.9.7 1.7 1.1 1.7 1.1l.9-3.2s-1.8-1.8-2.2-4.4c-.6.4-1 .7-1.3.9-.3.1-.7.2-1.2.3z" fill="#656565"/><path d="m11.2 11.5s-.8-.4-1.7-1.1-1.8-2.7-2-4.9c.1 2.4 1.1 4.6 2.1 5.3.9.7 1.7 1.1 1.7 1.1l.9-3.2s0 0-.1-.1z" opacity=".3"/><path d="m244.5 109.3 15.5-41s-9.2-7.5-15.5-6-22.2 19.1-31 21.9-19.8-.2-20.5.8 22.1 13.5 31 17.1 20.5 7.2 20.5 7.2z" fill="#cc291f"/><path d="m260 68.4-15.5 40.9 1.5-.5 15.4-41z" fill="#e5e5e5"/><path d="m260 68.4-15.5 40.9 1.5-.5 15.4-41z" opacity=".29"/><path d="m55.6 35c.1 0 .2 0 .3.1l2.1 1c.6.3 1 1 1 1.7v7.6c0 .4-.3.6-.6.6-.1 0-.2 0-.3-.1l-2.1-1c-.6-.3-1-1-1-1.7v-7.6c0-.4.3-.6.6-.6m0-1c-.8 0-1.6.7-1.6 1.6v7.6c0 1.1.6 2.1 1.6 2.6l2.1 1c.2.1.5.2.7.2.8 0 1.6-.7 1.6-1.6v-7.6c0-1.1-.6-2.1-1.6-2.6l-2.1-1c-.2-.2-.5-.2-.7-.2z" opacity=".3"/><path d="m23.6 19c.1 0 .2 0 .3.1l2.1 1c.6.3 1 1 1 1.7v7.6c0 .4-.3.6-.6.6-.1 0-.2 0-.3-.1l-2.1-1c-.6-.3-1-1-1-1.7v-7.6c0-.4.3-.6.6-.6m0-1c-.8 0-1.6.7-1.6 1.6v7.6c0 1.1.6 2.1 1.6 2.6l2.1 1c.2.1.5.2.7.2.8 0 1.6-.7 1.6-1.6v-7.6c0-1.1-.6-2.1-1.6-2.6l-2.1-1c-.2-.2-.5-.2-.7-.2z" opacity=".3"/><path d="m135.6 75c.1 0 .2 0 .3.1l2.1 1c.6.3 1 1 1 1.7v7.6c0 .4-.3.6-.6.6-.1 0-.2 0-.3-.1l-2.1-1c-.6-.3-1-1-1-1.7v-7.6c0-.4.3-.6.6-.6m0-1c-.8 0-1.6.7-1.6 1.6v7.6c0 1.1.6 2.1 1.6 2.6l2.1 1c.2.1.5.2.7.2.8 0 1.6-.7 1.6-1.6v-7.6c0-1.1-.6-2.1-1.6-2.6l-2.1-1c-.2-.2-.5-.2-.7-.2z" opacity=".3"/><g fill="#656565"><path d="m42 32v2.4c0 .4.2.7.6.9l.6.3c.4.2.9-.1.9-.5v-2.4c0-.4-.2-.7-.6-.9l-.6-.3c-.4-.3-.9 0-.9.5z"/><path d="m50 36v2.4c0 .4.2.7.6.9l.6.3c.4.2.9-.1.9-.5v-2.4c0-.4-.2-.7-.6-.9l-.6-.3c-.4-.3-.9 0-.9.5z"/><path d="m46 34v2.4c0 .4.2.7.6.9l.6.3c.4.2.9-.1.9-.5v-2.4c0-.4-.2-.7-.6-.9l-.6-.3c-.4-.3-.9 0-.9.5z"/><path d="m30 26v2.4c0 .4.2.7.6.9l.6.3c.4.2.9-.1.9-.5v-2.4c0-.4-.2-.7-.6-.9l-.6-.3c-.4-.3-.9 0-.9.5z"/><path d="m38 30v2.4c0 .4.2.7.6.9l.6.3c.4.2.9-.1.9-.5v-2.4c0-.4-.2-.7-.6-.9l-.6-.3c-.4-.3-.9 0-.9.5z"/><path d="m34 28v2.4c0 .4.2.7.6.9l.6.3c.4.2.9-.1.9-.5v-2.4c0-.4-.2-.7-.6-.9l-.6-.3c-.4-.3-.9 0-.9.5z"/><path d="m66 44v2.3c0 .4.2.8.6 1l.5.2c.4.2.9-.1.9-.6v-2.3c0-.4-.2-.8-.6-1l-.5-.2c-.4-.2-.9.2-.9.6z"/><path d="m62 42v2.3c0 .4.2.8.6 1l.5.2c.4.2.9-.1.9-.6v-2.3c0-.4-.2-.8-.6-1l-.5-.2c-.4-.2-.9.2-.9.6z"/><path d="m74 48v2.3c0 .4.2.8.6 1l.5.2c.4.2.9-.1.9-.6v-2.3c0-.4-.2-.8-.6-1l-.5-.2c-.4-.2-.9.2-.9.6z"/><path d="m70 46v2.3c0 .4.2.8.6 1l.5.2c.4.2.9-.1.9-.6v-2.3c0-.4-.2-.8-.6-1l-.5-.2c-.4-.2-.9.2-.9.6z"/><path d="m82 52v2.3c0 .4.2.8.6 1l.5.2c.4.2.9-.1.9-.6v-2.3c0-.4-.2-.8-.6-1l-.5-.2c-.4-.2-.9.2-.9.6z"/><path d="m78 50v2.3c0 .4.2.8.6 1l.5.2c.4.2.9-.1.9-.6v-2.3c0-.4-.2-.8-.6-1l-.5-.2c-.4-.2-.9.2-.9.6z"/><path d="m90 56v2.3c0 .4.2.8.6 1l.5.2c.4.2.9-.1.9-.6v-2.3c0-.4-.2-.8-.6-1l-.5-.2c-.4-.2-.9.2-.9.6z"/><path d="m86 54v2.3c0 .4.2.8.6 1l.5.2c.4.2.9-.1.9-.6v-2.3c0-.4-.2-.8-.6-1l-.5-.2c-.4-.2-.9.2-.9.6z"/><path d="m98 60v2.3c0 .4.2.8.6 1l.5.2c.4.2.9-.1.9-.6v-2.3c0-.4-.2-.8-.6-1l-.5-.2c-.4-.2-.9.2-.9.6z"/><path d="m94 58v2.3c0 .4.2.8.6 1l.5.2c.4.2.9-.1.9-.6v-2.3c0-.4-.2-.8-.6-1l-.5-.2c-.4-.2-.9.2-.9.6z"/><path d="m106 64v2.3c0 .4.2.8.6 1l.5.2c.4.2.9-.1.9-.6v-2.3c0-.4-.2-.8-.6-1l-.5-.2c-.4-.2-.9.2-.9.6z"/><path d="m102 62v2.3c0 .4.2.8.6 1l.5.2c.4.2.9-.1.9-.6v-2.3c0-.4-.2-.8-.6-1l-.5-.2c-.4-.2-.9.2-.9.6z"/><path d="m114 68v2.3c0 .4.2.8.6 1l.5.2c.4.2.9-.1.9-.6v-2.3c0-.4-.2-.8-.6-1l-.5-.2c-.4-.2-.9.2-.9.6z"/><path d="m110 66v2.3c0 .4.2.8.6 1l.5.2c.4.2.9-.1.9-.6v-2.3c0-.4-.2-.8-.6-1l-.5-.2c-.4-.2-.9.2-.9.6z"/><path d="m122 72v2.3c0 .4.2.8.6 1l.5.2c.4.2.9-.1.9-.6v-2.3c0-.4-.2-.8-.6-1l-.5-.2c-.4-.2-.9.2-.9.6z"/><path d="m118 70v2.3c0 .4.2.8.6 1l.5.2c.4.2.9-.1.9-.6v-2.3c0-.4-.2-.8-.6-1l-.5-.2c-.4-.2-.9.2-.9.6z"/><path d="m130 76v2.3c0 .4.2.8.6 1l.5.2c.4.2.9-.1.9-.6v-2.3c0-.4-.2-.8-.6-1l-.5-.2c-.4-.2-.9.2-.9.6z"/><path d="m126 74v2.3c0 .4.2.8.6 1l.5.2c.4.2.9-.1.9-.6v-2.3c0-.4-.2-.8-.6-1l-.5-.2c-.4-.2-.9.2-.9.6z"/></g><path d="m167.6 90c.1 0 .2 0 .3.1l2.1 1c.6.3 1 1 1 1.7v7.6c0 .4-.3.6-.6.6-.1 0-.2 0-.3-.1l-2.1-1c-.6-.3-1-1-1-1.7v-7.6c0-.4.3-.6.6-.6m0-1c-.8 0-1.6.7-1.6 1.6v7.6c0 1.1.6 2.1 1.6 2.6l2.1 1c.2.1.5.2.7.2.8 0 1.6-.7 1.6-1.6v-7.6c0-1.1-.6-2.1-1.6-2.6l-2.1-1c-.2-.2-.5-.2-.7-.2z" opacity=".3"/><path d="m146 84v2.4c0 .4.2.7.5.8l.6.3c.4.2.9-.1.9-.6v-2.4c0-.4-.2-.7-.5-.8l-.6-.3c-.4-.2-.9.2-.9.6z" fill="#656565"/><path d="m142 82v2.4c0 .4.2.7.5.8l.6.3c.4.2.9-.1.9-.6v-2.4c0-.4-.2-.7-.5-.8l-.6-.3c-.4-.2-.9.2-.9.6z" fill="#656565"/><path d="m154 88v2.4c0 .4.2.7.5.8l.6.3c.4.2.9-.1.9-.6v-2.4c0-.4-.2-.7-.5-.8l-.6-.3c-.4-.2-.9.2-.9.6z" fill="#656565"/><path d="m150 86v2.4c0 .4.2.7.5.8l.6.3c.4.2.9-.1.9-.6v-2.4c0-.4-.2-.7-.5-.8l-.6-.3c-.4-.2-.9.2-.9.6z" fill="#656565"/><path d="m162 92v2.4c0 .4.2.7.5.8l.6.3c.4.2.9-.1.9-.6v-2.4c0-.4-.2-.7-.5-.8l-.6-.3c-.4-.2-.9.2-.9.6z" fill="#656565"/><path d="m158 90v2.4c0 .4.2.7.5.8l.6.3c.4.2.9-.1.9-.6v-2.4c0-.4-.2-.7-.5-.8l-.6-.3c-.4-.2-.9.2-.9.6z" fill="#656565"/><path d="m174 98v2.4c0 .4.2.7.5.8l.6.3c.4.2.9-.1.9-.6v-2.4c0-.4-.2-.7-.5-.8l-.6-.3c-.4-.2-.9.2-.9.6z" fill="#656565"/><g opacity=".3"><path d="m79.5 53.2-.5-.3c-.4-.2-.6-.6-.6-1v-2.3c0-.1 0-.2.1-.2-.3.1-.5.3-.5.6v2.3c0 .4.2.8.6 1l.5.2c.3.2.7 0 .9-.3-.2 0-.3 0-.5 0z"/><path d="m75.5 51.2-.5-.3c-.4-.2-.6-.6-.6-1v-2.3c0-.1 0-.2.1-.2-.3.1-.5.3-.5.6v2.3c0 .4.2.8.6 1l.5.2c.3.2.7 0 .9-.3-.2 0-.3 0-.5 0z"/><path d="m71.5 49.2-.5-.3c-.4-.2-.6-.6-.6-1v-2.3c0-.1 0-.2.1-.2-.3.1-.5.3-.5.6v2.3c0 .4.2.8.6 1l.5.2c.3.2.7 0 .9-.3-.2 0-.3 0-.5 0z"/><path d="m83.5 55.2-.5-.3c-.4-.2-.6-.6-.6-1v-2.3c0-.1 0-.2.1-.2-.3.1-.5.3-.5.6v2.3c0 .4.2.8.6 1l.5.2c.3.2.7 0 .9-.3-.2 0-.3 0-.5 0z"/><path d="m99.5 63.2-.5-.3c-.4-.2-.6-.6-.6-1v-2.3c0-.1 0-.2.1-.2-.3.1-.5.3-.5.6v2.3c0 .4.2.8.6 1l.5.2c.3.2.7 0 .9-.3-.2 0-.3 0-.5 0z"/><path d="m87.5 57.2-.5-.3c-.4-.2-.6-.6-.6-1v-2.3c0-.1 0-.2.1-.2-.3.1-.5.3-.5.6v2.3c0 .4.2.8.6 1l.5.2c.3.2.7 0 .9-.3-.2 0-.3 0-.5 0z"/><path d="m91.5 59.2-.5-.3c-.4-.2-.6-.6-.6-1v-2.3c0-.1 0-.2.1-.2-.3.1-.5.3-.5.6v2.3c0 .4.2.8.6 1l.5.2c.3.2.7 0 .9-.3-.2 0-.3 0-.5 0z"/><path d="m95.5 61.2-.5-.3c-.4-.2-.6-.6-.6-1v-2.3c0-.1 0-.2.1-.2-.3.1-.5.3-.5.6v2.3c0 .4.2.8.6 1l.5.2c.3.2.7 0 .9-.3-.2 0-.3 0-.5 0z"/><path d="m63.5 45.2-.5-.3c-.4-.2-.6-.6-.6-1v-2.3c0-.1 0-.2.1-.2-.3.1-.5.3-.5.6v2.3c0 .4.2.8.6 1l.5.2c.3.2.7 0 .9-.3-.2 0-.3 0-.5 0z"/><path d="m35.6 31.2-.6-.3c-.3-.2-.6-.5-.6-.9v-2.4c0-.1 0-.1.1-.2-.3 0-.5.3-.5.6v2.4c0 .4.2.7.6.9l.6.3c.3.2.7 0 .8-.3-.2 0-.3 0-.4-.1z"/><path d="m31.6 29.2-.6-.3c-.3-.2-.6-.5-.6-.9v-2.4c0-.1 0-.1.1-.2-.3 0-.5.3-.5.6v2.4c0 .4.2.7.6.9l.6.3c.3.2.7 0 .8-.3-.2 0-.3 0-.4-.1z"/><path d="m39.6 33.2-.6-.3c-.3-.2-.6-.5-.6-.9v-2.4c0-.1 0-.1.1-.2-.3 0-.5.3-.5.6v2.4c0 .4.2.7.6.9l.6.3c.3.2.7 0 .8-.3-.2 0-.3 0-.4-.1z"/><path d="m51.6 39.2-.6-.3c-.3-.2-.6-.5-.6-.9v-2.4c0-.1 0-.1.1-.2-.3 0-.5.3-.5.6v2.4c0 .4.2.7.6.9l.6.3c.3.2.7 0 .8-.3-.2 0-.3 0-.4-.1z"/><path d="m47.6 37.2-.6-.3c-.3-.2-.6-.5-.6-.9v-2.4c0-.1 0-.1.1-.2-.3 0-.5.3-.5.6v2.4c0 .4.2.7.6.9l.6.3c.3.2.7 0 .8-.3-.2 0-.3 0-.4-.1z"/><path d="m43.6 35.2-.6-.3c-.3-.2-.6-.5-.6-.9v-2.4c0-.1 0-.1.1-.2-.3 0-.5.3-.5.6v2.4c0 .4.2.7.6.9l.6.3c.3.2.7 0 .8-.3-.2 0-.3 0-.4-.1z"/><path d="m67.5 47.2-.5-.3c-.4-.2-.6-.6-.6-1v-2.3c0-.1 0-.2.1-.2-.3.1-.5.3-.5.6v2.3c0 .4.2.8.6 1l.5.2c.3.2.7 0 .9-.3-.2 0-.3 0-.5 0z"/><path d="m155.5 91.2-.6-.3c-.3-.2-.5-.5-.5-.8v-2.4c0-.1 0-.2.1-.2-.3.1-.5.3-.5.6v2.4c0 .4.2.7.5.8l.6.3c.3.2.7 0 .9-.3-.2-.1-.3-.1-.5-.1z"/><path d="m151.5 89.2-.6-.3c-.3-.2-.5-.5-.5-.8v-2.4c0-.1 0-.2.1-.2-.3.1-.5.3-.5.6v2.4c0 .4.2.7.5.8l.6.3c.3.2.7 0 .9-.3-.2-.1-.3-.1-.5-.1z"/><path d="m103.5 65.2-.5-.2c-.4-.2-.6-.6-.6-1v-2.3c0-.1 0-.2.1-.2-.3.1-.5.3-.5.6v2.3c0 .4.2.8.6 1l.5.2c.3.2.7 0 .9-.3-.2-.1-.3-.1-.5-.1z"/><path d="m175.5 101.2-.6-.3c-.3-.2-.5-.5-.5-.8v-2.4c0-.1 0-.2.1-.2-.3.1-.5.3-.5.6v2.4c0 .4.2.7.5.8l.6.3c.3.2.7 0 .9-.3-.2-.1-.3-.1-.5-.1z"/><path d="m159.5 93.2-.6-.3c-.3-.2-.5-.5-.5-.8v-2.4c0-.1 0-.2.1-.2-.3.1-.5.3-.5.6v2.4c0 .4.2.7.5.8l.6.3c.3.2.7 0 .9-.3-.2-.1-.3-.1-.5-.1z"/><path d="m143.5 85.2-.6-.3c-.3-.2-.5-.5-.5-.8v-2.4c0-.1 0-.2.1-.2-.3.1-.5.3-.5.6v2.4c0 .4.2.7.5.8l.6.3c.3.2.7 0 .9-.3-.2-.1-.3-.1-.5-.1z"/><path d="m163.5 95.2-.6-.3c-.3-.2-.5-.5-.5-.8v-2.4c0-.1 0-.2.1-.2-.3.1-.5.3-.5.6v2.4c0 .4.2.7.5.8l.6.3c.3.2.7 0 .9-.3-.2-.1-.3-.1-.5-.1z"/><path d="m147.5 87.2-.6-.3c-.3-.2-.5-.5-.5-.8v-2.4c0-.1 0-.2.1-.2-.3.1-.5.3-.5.6v2.4c0 .4.2.7.5.8l.6.3c.3.2.7 0 .9-.3-.2-.1-.3-.1-.5-.1z"/><path d="m115.5 71.2-.5-.2c-.4-.2-.6-.6-.6-1v-2.3c0-.1 0-.2.1-.2-.3.1-.5.3-.5.6v2.3c0 .4.2.8.6 1l.5.2c.3.2.7 0 .9-.3-.2-.1-.3-.1-.5-.1z"/><path d="m111.5 69.2-.5-.2c-.4-.2-.6-.6-.6-1v-2.3c0-.1 0-.2.1-.2-.3.1-.5.3-.5.6v2.3c0 .4.2.8.6 1l.5.2c.3.2.7 0 .9-.3-.2-.1-.3-.1-.5-.1z"/><path d="m131.5 79.2-.5-.2c-.4-.2-.6-.6-.6-1v-2.3c0-.1 0-.2.1-.2-.3.1-.5.3-.5.6v2.3c0 .4.2.8.6 1l.5.2c.3.2.7 0 .9-.3-.2-.1-.3-.1-.5-.1z"/><path d="m107.5 67.2-.5-.2c-.4-.2-.6-.6-.6-1v-2.3c0-.1 0-.2.1-.2-.3.1-.5.3-.5.6v2.3c0 .4.2.8.6 1l.5.2c.3.2.7 0 .9-.3-.2-.1-.3-.1-.5-.1z"/><path d="m127.5 77.2-.5-.2c-.4-.2-.6-.6-.6-1v-2.3c0-.1 0-.2.1-.2-.3.1-.5.3-.5.6v2.3c0 .4.2.8.6 1l.5.2c.3.2.7 0 .9-.3-.2-.1-.3-.1-.5-.1z"/><path d="m119.5 73.2-.5-.2c-.4-.2-.6-.6-.6-1v-2.3c0-.1 0-.2.1-.2-.3.1-.5.3-.5.6v2.3c0 .4.2.8.6 1l.5.2c.3.2.7 0 .9-.3-.2-.1-.3-.1-.5-.1z"/><path d="m123.5 75.2-.5-.2c-.4-.2-.6-.6-.6-1v-2.3c0-.1 0-.2.1-.2-.3.1-.5.3-.5.6v2.3c0 .4.2.8.6 1l.5.2c.3.2.7 0 .9-.3-.2-.1-.3-.1-.5-.1z"/></g><path d="m178.7 92.4c-8-4.1-151.7-73.5-158.7-79.2-4.8-3.9-7.9-7.9-6.3-10.5-2.9.9-4.4 2.2-5.1 2.6-1 .5-3.8.1-5.1 3.3-3 7 15.6 23.4 22.5 28.2 6.2 4.3 86.9 43 104.1 52.2 17.1 9.2 51 20.5 64.4 22.5 12.8 1.9 56.1 9.5 61.9 7-17.5-2-70.2-22.3-77.7-26.1z" opacity=".1"/><path d="m202.3 111.6c-13.8-2-48.6-13.7-66.3-23.2s-100.8-49.2-107.1-53.6c-6.9-4.8-25.6-21.2-23.3-28.7-.8.4-1.6 1.1-2.1 2.4-3 7.1 15.6 23.5 22.5 28.3 6.2 4.3 86.9 43 104.1 52.2 17.1 9.2 51 20.5 64.4 22.5 11.4 1.7 47.1 7.9 58.8 7.5-16-1.6-41.6-6-51-7.4z" opacity=".1"/><path d="m22 4c-6 2.3 167 83 169.9 80s-162.1-82.9-169.9-80z" fill="#fff" opacity=".2"/><path d="m246.5 116.4-27.8 26.8s-10.9-3.4-10.7-7 9.6-27.4 11.3-28.3c1.8-.9 27.2 8.5 27.2 8.5z" fill="#e5e5e5"/><path d="m218.7 141.7s-9.4-2.9-10.6-6.2c-.1.3-.1.6-.1.8-.2 3.6 10.7 7 10.7 7l27.8-26.8s-.4-.2-1.2-.4z" opacity=".1"/><path d="m218.7 141.7s-9.4-2.9-10.6-6.2c2 2.3 10.3 5.1 10.3 5.1l26.2-24.6s1.3.3.6 0z" fill="#fff" opacity=".3"/><path d="m132.6 86.6-12.3-1.1s-24.4 9.7-28.8 12-45.7 39.1-45.7 39.1-12-3.1-12-6.4c.2-3.3 41.5-72.3 43.8-73.2s55 29.6 55 29.6z" fill="#cc291f"/><path d="m78.4 60.1c2.6 1.2 32.1 17.5 43.5 25.6l10.7.9s-52.8-30.5-55.1-29.6c-.2.1-1.3 1.5-2.2 2.9 1.1-.2 2.1-.3 3.1.2z" fill="#e5e5e5"/><path d="m95.4 87.3-2.5-2.3-8.4 4.1 8.1 6.4 14.9-6.3c6.7-2.7 12.8-5.2 12.8-5.2l-6.8-3.8z" fill="#e5e5e5"/><path d="m54.9 119.2 2.7 1.7-4.7 4.5 2.1 1.6 7.3-6.4c10.8-9.4 26.6-23.2 29.2-24.6.1 0 .2-.1.3-.1l-7.8-4.6z" fill="#e5e5e5"/><path d="m113.6 80.3-.1-.2-18 7.1-2.6-2.3-8.5 4.1-.2.1 8 6.4.1-.2-7.6-6.1 8.2-4 2.5 2.2 5.5 4.6.1-.2-5.3-4.5z" opacity=".3"/><path d="m84 91.1-29.2 28-.1.2 2.8 1.6-4.8 4.5 2.2 1.5.1-.2-1.9-1.3 4.8-4.5-2.8-1.7 11.5-11.1-.1.3 6.2 3.3.1-.2-6.2-3.4 5.9-5.7 6.5 3.6.2-.2-6.5-3.5 5.8-5.6-.1.2 7 3.8.2-.2-7.1-3.8 5.5-5.3 7.8 4.6.1-.2-7.8-4.6z" opacity=".3"/><path d="m60.1 115.6h6.6v.3h-6.6z" opacity=".3" transform="matrix(-.8792 -.4764 .4764 -.8792 63.9483 247.6928)"/><path d="m218.8 141.7-.2-.1 2.7-15.2h.1l11.1-11.7 12.8 1.2v.2l-12.8-1.1-10.9 11.6z" opacity=".3"/><path d="m249.6 74.8-14.3 31.5c5.1 1.8 9.2 3 9.2 3l15.5-41z" fill="#e5e5e5"/><path d="m249.7 74.9 10.4-6.4-.2-.2-10.3 6.4h-.1l-14.3 31.6v.2h.1v-.2l.2.1 7.5-16.6 7.5 3.7.1-.3-7.5-3.6 5.2-11.5 6.8 3.3.1-.2-6.8-3.4z" opacity=".3"/><path d="m129.6 84.8-9.2-.8s-24.4 9.7-28.8 12c-3.3 1.7-26 21.7-36.6 31v1.5c10.5-9.3 33.3-29.3 36.6-31 4.4-2.3 28.8-12 28.8-12l12.3 1.1c-.1 0-1.2-.6-3.1-1.8z" fill="#e5e5e5"/><path d="m244.5 109.3 15.5-41s-9.2-7.5-15.5-6-22.2 19.1-31 21.9-19.8-.2-20.5.8 22.1 13.5 31 17.1 20.5 7.2 20.5 7.2z" opacity=".11"/><path d="m120.4 84s-24.4 9.7-28.8 12-45.7 39.1-45.7 39.1-10.2-2.6-11.8-5.6c-.1.3-.2.6-.2.7-.1 3.3 12 6.4 12 6.4s41.3-36.8 45.7-39.1 28.8-12 28.8-12l12.3 1.1s-1.1-.7-3.1-1.8z" opacity=".1"/><path d="m120.4 84s-24.4 9.7-28.8 12-45.7 39.1-45.7 39.1-10.2-2.6-11.8-5.6c3.2 3.1 11.7 4.8 11.7 4.8s41.3-36.6 45.7-38.9 28.9-11.9 28.9-11.9l9.2 1.3z" fill="#fff" opacity=".3"/></svg>