<svg enable-background="new 0 0 48 48" viewBox="0 0 48 48" xmlns="http://www.w3.org/2000/svg"><path d="m5 26.9v-3.5l2-1v3.5z" fill="#2d3134"/><path d="m3 28.4 13.1-7.5 27.9 14.1-14 7z" opacity=".3"/><path d="m25.5 32.8c-.7-.4-1.4-.4-1.9-.2l-1.4.7c-.5.2-.9.8-.9 1.6 0 1.5 1.3 3.4 2.8 4.2.8.4 1.5.4 2 .2 0 0 1.4-.7 1.5-.8.5-.3.7-.8.7-1.5 0-1.6-1.3-3.5-2.8-4.2z" fill="#2d3134"/><path d="m26 39.2c.2-.1 1.4-.7 1.5-.7.5-.3.7-.8.7-1.5 0-.6-.2-1.3-.5-1.9l-1.4.7c.3.6.5 1.3.5 1.9.1.7-.3 1.3-.8 1.5z" opacity=".39"/><path d="m26.1 37.3c0 1.2-.9 1.6-2.1 1s-2.1-2-2.1-3.2.9-1.6 2.1-1 2.1 2 2.1 3.2z" fill="#999"/><path d="m24.2 38.3c-1.2-.6-2.1-2-2.1-3.2 0-.6.2-1 .6-1.2-.5.1-.8.6-.8 1.2 0 1.2.9 2.6 2.1 3.2.6.3 1.1.3 1.5.1-.3.2-.8.1-1.3-.1z" fill="#808285"/><path d="m25.1 36.6c0 .5-.4.7-.9.4s-.9-.8-.9-1.3.4-.7.9-.4.9.8.9 1.3z" fill="#2d3134"/><path d="m25.1 36.6c0 .5-.4.7-.9.4s-.9-.8-.9-1.3.4-.7.9-.4.9.8.9 1.3z" opacity=".39"/><path d="m24.9 36.7c0 .5-.4.7-.9.4-.5-.2-.9-.8-.9-1.3s.4-.7.9-.4c.5.2.9.8.9 1.3z" fill="#2d3134"/><path d="m26.9 37.7c0 1.5-1.3 2.2-2.8 1.4s-2.8-2.7-2.8-4.2 1.3-2.2 2.8-1.4c1.5.7 2.8 2.6 2.8 4.2z" opacity=".06"/><path d="m8.9 24.5c-.7-.4-1.4-.4-1.9-.2l-1.4.7c-.5.2-.9.8-.9 1.6 0 1.5 1.3 3.4 2.8 4.2.8.4 1.5.4 2 .2 0 0 1.4-.7 1.5-.8.5-.3.7-.8.7-1.5.1-1.5-1.2-3.4-2.8-4.2z" fill="#2d3134"/><path d="m9.5 31c.2-.1 1.4-.7 1.5-.7.5-.3.7-.8.7-1.5 0-.6-.2-1.3-.5-1.9l-1.4.7c.3.6.5 1.3.5 1.9.1.7-.3 1.2-.8 1.5z" opacity=".39"/><path d="m9.6 29.1c0 1.2-.9 1.6-2.1 1s-2.1-2-2.1-3.2.9-1.6 2.1-1 2.1 2 2.1 3.2z" fill="#999"/><path d="m7.7 30c-1.2-.6-2.1-2-2.1-3.2 0-.6.2-1 .6-1.2-.5.1-.8.6-.8 1.2 0 1.2.9 2.6 2.1 3.2.6.3 1.1.3 1.5.1-.3.2-.8.2-1.3-.1z" fill="#808285"/><path d="m8.6 28.4c0 .5-.4.7-.9.4s-.9-.8-.9-1.3.4-.7.9-.4.9.8.9 1.3z" fill="#2d3134"/><path d="m8.6 28.4c0 .5-.4.7-.9.4s-.9-.8-.9-1.3.4-.7.9-.4.9.8.9 1.3z" opacity=".39"/><path d="m8.4 28.4c0 .5-.4.7-.9.4s-.9-.8-.9-1.3.4-.7.9-.4.9.9.9 1.3z" fill="#2d3134"/><path d="m10.4 29.4c0 1.5-1.3 2.2-2.8 1.4-1.6-.8-2.8-2.6-2.8-4.2 0-1.5 1.3-2.2 2.8-1.4s2.8 2.7 2.8 4.2z" opacity=".06"/><path d="m5 11.9 14-7 6 3v13.8l-13.9 7c-.2-.7-.6-1.4-1.1-2.1-1.5-1.8-3.6-2.5-4.8-1.5-.5.4-.7 1-.8 1.6l-1.4-.8v-8z" fill="#e5e5e5"/><path d="m25 7.9v13.8l-14 7v-13.8z" opacity=".39"/><path d="m26.5 34.9v3.8l2.5-1.3v-3.7z" fill="#2d3134"/><path d="m26.5 34.9v3.8l2.5-1.3v-3.7z" opacity=".06"/><path d="m26 4.9-14 7v15.3l18 9 14-7v-15.3z" fill="#f90"/><path d="m44 27.9v2l-14 7v-2z" fill="#2d3134"/><path d="m12 25.9v2l18 9v-2z" fill="#2d3134"/><path d="m8.5 19.7v.5l1 .5v-.5z" fill="#2d3134" opacity=".5"/><path d="m9.5 20.9-1-.5v-.2l1 .5z" fill="#fff" opacity=".5"/><path d="m3.6 17.7 1.6-4.7c.1-.2.3-.3.4-.2l3.7 1.9c.1.1.2.2.2.3v3.8c0 .2-.2.4-.4.3l-1.6-.8c-.3-.3-.7-.3-1-.3l-1.9.4c-.1 0-.1 0-.2 0l-.7-.3c-.1-.1-.1-.3-.1-.4z" fill="#39c"/><path d="m3.6 17.7 1.6-4.7c.1-.2.3-.3.4-.2l-1.5 4.6c0 .1 0 .3.1.4l.7.3h.2l1.9-.4c.4-.1.7 0 1 .1l1.5.8v.1c0 .2-.2.4-.4.3l-1.6-.8c-.3-.2-.7-.2-1-.2l-1.9.4c-.1 0-.1 0-.2 0l-.7-.3c-.1-.1-.1-.3-.1-.4z" opacity=".15"/><path d="m3 25.9 2 1v-2l-2-1z" fill="#2d3134"/><path d="m3 23.9.5.3v-2l-.5-.3z" fill="#fc0"/><g fill="#cc291f"><path d="m43.5 28.7v1l-1 .5v-1z"/><path d="m42 29.4v1l-1 .5v-1z"/><path d="m33 33.9v1l-1 .5v-1z"/><path d="m31.5 34.7v1l-1 .5v-1z"/></g><path d="m31 21.6v12.9l12-6v-12.9zm11.5 6.5-5.3 2.6v-11.7l5.3-2.6zm-11-6.2 5.3-2.6v11.7l-5.3 2.6z" opacity=".15"/><path d="m39.5 30.2v1.2l-5 2.5v-1.2z" fill="#fff"/><path d="m43.3 26.9v.5l-1 .5v-.5z" fill="#2d3134"/><path d="m31.8 32.7v.5l-1 .5v-.5z" fill="#2d3134"/><path d="m36.5 28.7v.7l-1 .5v-.7z" fill="#2d3134" opacity=".5"/><path d="m36.5 29.7v-.3l-1 .5v.3z" fill="#fff" opacity=".3"/><path d="m43.3 16.4v.5l-1 .5v-.5z" fill="#2d3134"/><path d="m31.8 22.2v.5l-1 .5v-.5z" fill="#2d3134"/><path d="m5 11.9 6 3v13.5c-.2-.6-.6-1.3-1-1.9-1.5-1.8-3.6-2.5-4.8-1.5-.5.4-.7 1-.8 1.6l-1.4-.7v-8z" opacity=".06"/><path d="m12 11.9v16l18 9v-16z" opacity=".06"/><path d="m44 13.9v16l-14 7v-16z" opacity=".39"/></svg>