<?xml version="1.0" encoding="UTF-8" standalone="no"?>
<!-- Created with Inkscape (http://www.inkscape.org/) -->

<svg
   xmlns:dc="http://purl.org/dc/elements/1.1/"
   xmlns:cc="http://creativecommons.org/ns#"
   xmlns:rdf="http://www.w3.org/1999/02/22-rdf-syntax-ns#"
   xmlns:svg="http://www.w3.org/2000/svg"
   xmlns="http://www.w3.org/2000/svg"
   xmlns:sodipodi="http://sodipodi.sourceforge.net/DTD/sodipodi-0.dtd"
   xmlns:inkscape="http://www.inkscape.org/namespaces/inkscape"
   width="37.991982mm"
   height="45.039886mm"
   viewBox="0 0 37.991981 45.039886"
   version="1.1"
   id="svg581"
   inkscape:version="0.92.2 (5c3e80d, 2017-08-06)"
   sodipodi:docname="concrete-3.svg">
  <defs
     id="defs575" />
  <sodipodi:namedview
     id="base"
     pagecolor="#ffffff"
     bordercolor="#666666"
     borderopacity="1.0"
     inkscape:pageopacity="0.0"
     inkscape:pageshadow="2"
     inkscape:zoom="3.9597981"
     inkscape:cx="15.16278"
     inkscape:cy="-17.667473"
     inkscape:document-units="mm"
     inkscape:current-layer="svg581"
     showgrid="false"
     inkscape:window-width="1360"
     inkscape:window-height="706"
     inkscape:window-x="-8"
     inkscape:window-y="-8"
     inkscape:window-maximized="1"
     fit-margin-top="0"
     fit-margin-left="0"
     fit-margin-right="0"
     fit-margin-bottom="0" />
  <metadata
     id="metadata578">
    <rdf:RDF>
      <cc:Work
         rdf:about="">
        <dc:format>image/svg+xml</dc:format>
        <dc:type
           rdf:resource="http://purl.org/dc/dcmitype/StillImage" />
        <dc:title></dc:title>
      </cc:Work>
    </rdf:RDF>
  </metadata>
  <g
     inkscape:label="Layer 1"
     inkscape:groupmode="layer"
     id="layer1"
     transform="translate(-331.53306,54.525315)" />
  <g
     id="i380"
     class="top-level-node"
     transform="matrix(0.0417036,0,0,0.0417036,-0.4587396,-1.668144)">
    <g
       id="g5082">
      <g
         id="g5080">
        <path
           d="m 320,816.8 c -4.7,0 -8.5,1.9 -8.5,4.3 l -6.5,8.8 c 0,4.1 6.7,7.5 15,7.5 8.3,0 15,-3.4 15,-7.5 l -6.5,-8.8 c 0,-2.4 -3.8,-4.3 -8.5,-4.3 z"
           id="path4716"
           inkscape:connector-curvature="0"
           style="fill:#999999" />
        <path
           d="m 320,825.3 c -4.7,0 -8.5,-1.9 -8.5,-4.3 l -6.5,8.8 c 0,4.1 6.7,7.5 15,7.5 8.3,0 15,-3.4 15,-7.5 l -6.5,-8.8 c 0,2.3 -3.8,4.3 -8.5,4.3 z"
           id="path4718"
           inkscape:connector-curvature="0"
           style="opacity:0.3" />
        <path
           d="m 320,803 c -2.8,0 -5,1.1 -5,2.5 v 15 c 0,1.4 2.2,2.5 5,2.5 2.8,0 5,-1.1 5,-2.5 v -15 c 0,-1.4 -2.2,-2.5 -5,-2.5 z"
           id="path4720"
           inkscape:connector-curvature="0"
           style="fill:#999999" />
        <path
           d="m 320,808 c -2.8,0 -5,-1.1 -5,-2.5 v 15 c 0,1.4 2.2,2.5 5,2.5 2.8,0 5,-1.1 5,-2.5 v -15 c 0,1.4 -2.2,2.5 -5,2.5 z"
           id="path4722"
           inkscape:connector-curvature="0"
           style="opacity:0.3" />
        <path
           d="m 320,730 c -5.5,0 -10,2.2 -10,5 v 70 c 0,2.8 4.5,5 10,5 5.5,0 10,-2.2 10,-5 v -70 c 0,-2.8 -4.5,-5 -10,-5 z"
           id="path4724"
           inkscape:connector-curvature="0"
           style="fill:#ff9900" />
        <path
           d="m 320,740 c -5.5,0 -10,-2.2 -10,-5 v 70 c 0,2.8 4.5,5 10,5 5.5,0 10,-2.2 10,-5 v -70 c 0,2.8 -4.5,5 -10,5 z"
           id="path4726"
           inkscape:connector-curvature="0"
           style="opacity:0.3" />
        <path
           d="m 316,745 4,2 v 16 l -78,39 -4,-2 v -16 z"
           id="path4728"
           inkscape:connector-curvature="0"
           style="fill:#ff9900" />
        <path
           d="m 320,763 v -16 l -78,39 v 16 z"
           id="path4730"
           inkscape:connector-curvature="0"
           style="opacity:0.28999999" />
        <path
           d="m 334,828 -4,2 v 56 h 210 l 4,-2 v -56 z"
           id="path4732"
           inkscape:connector-curvature="0"
           style="fill:#ff9900" />
        <path
           d="m 330,830 h 210 v 56 H 330 Z"
           id="path4734"
           inkscape:connector-curvature="0"
           style="opacity:0.11000001" />
        <path
           d="m 544,884 v -56 l -4,2 v 56 z"
           id="path4736"
           inkscape:connector-curvature="0"
           style="opacity:0.28999999" />
        <path
           d="m 550,903.8 c -4.7,0 -8.5,1.9 -8.5,4.3 l -6.5,8.8 c 0,4.1 6.7,7.5 15,7.5 8.3,0 15,-3.4 15,-7.5 l -6.5,-8.8 c 0,-2.4 -3.8,-4.3 -8.5,-4.3 z"
           id="path4738"
           inkscape:connector-curvature="0"
           style="fill:#999999" />
        <path
           d="m 550,912.3 c -4.7,0 -8.5,-1.9 -8.5,-4.3 l -6.5,8.8 c 0,4.1 6.7,7.5 15,7.5 8.3,0 15,-3.4 15,-7.5 l -6.5,-8.8 c 0,2.3 -3.8,4.3 -8.5,4.3 z"
           id="path4740"
           inkscape:connector-curvature="0"
           style="opacity:0.3" />
        <path
           d="m 550,890 c -2.8,0 -5,1.1 -5,2.5 v 15 c 0,1.4 2.2,2.5 5,2.5 2.8,0 5,-1.1 5,-2.5 v -15 c 0,-1.4 -2.2,-2.5 -5,-2.5 z"
           id="path4742"
           inkscape:connector-curvature="0"
           style="fill:#999999" />
        <path
           d="m 550,895 c -2.8,0 -5,-1.1 -5,-2.5 v 15 c 0,1.4 2.2,2.5 5,2.5 2.8,0 5,-1.1 5,-2.5 v -15 c 0,1.4 -2.2,2.5 -5,2.5 z"
           id="path4744"
           inkscape:connector-curvature="0"
           style="opacity:0.3" />
        <path
           d="m 550,817 c -5.5,0 -10,2.2 -10,5 v 70 c 0,2.8 4.5,5 10,5 5.5,0 10,-2.2 10,-5 v -70 c 0,-2.8 -4.5,-5 -10,-5 z"
           id="path4746"
           inkscape:connector-curvature="0"
           style="fill:#ff9900" />
        <path
           d="m 550,827 c -5.5,0 -10,-2.2 -10,-5 v 70 c 0,2.8 4.5,5 10,5 5.5,0 10,-2.2 10,-5 v -70 c 0,2.8 -4.5,5 -10,5 z"
           id="path4748"
           inkscape:connector-curvature="0"
           style="opacity:0.3" />
        <path
           d="m 360,875 -4,2 v 16 l 208,104 4,-2 v -16 z"
           id="path4750"
           inkscape:connector-curvature="0"
           style="fill:#ff9900" />
        <path
           d="m 356,893 v -16 l 208,104 v 16 z"
           id="path4752"
           inkscape:connector-curvature="0"
           style="opacity:0.11000001" />
        <path
           d="m 568,995 v -16 l -4,2 v 16 z"
           id="path4754"
           inkscape:connector-curvature="0"
           style="opacity:0.28999999" />
        <path
           d="m 242,800 -4,2 v 38 l 88,44 4,-2 v -38 z"
           id="path4756"
           inkscape:connector-curvature="0"
           style="fill:#ff9900" />
        <path
           d="m 238,840 v -38 l 88,44 v 38 z"
           id="path4758"
           inkscape:connector-curvature="0"
           style="opacity:0.11000001" />
        <path
           d="m 330,882 v -38 l -4,2 v 38 z"
           id="path4760"
           inkscape:connector-curvature="0"
           style="opacity:0.28999999" />
        <path
           d="m 13,915 141,-70 409,205 -140,70 z"
           id="path4762"
           inkscape:connector-curvature="0"
           style="opacity:0.3" />
        <path
           d="m 82,880.3 c -7.5,-3.7 -14.2,-4.2 -19.2,-1.9 l -14,7 c -5.4,2.4 -8.8,7.9 -8.8,15.9 0,15.5 12.5,34.3 28,42 7.6,3.8 14.6,4.2 19.6,1.8 0,0 13.9,-6.9 15.1,-7.6 4.5,-2.7 7.3,-7.9 7.3,-15.2 0,-15.5 -12.5,-34.3 -28,-42 z"
           id="path4764"
           inkscape:connector-curvature="0"
           style="fill:#2d3134" />
        <path
           d="m 87.9,944.9 c 2,-1 13.7,-6.8 14.8,-7.5 4.5,-2.7 7.3,-7.9 7.3,-15.2 0,-6.2 -2.1,-13 -5.5,-19.3 l -14,7 c 3.4,6.4 5.5,13.1 5.5,19.3 0,7.8 -3.1,13.1 -8.1,15.7 z"
           id="path4766"
           inkscape:connector-curvature="0"
           style="opacity:0.28999999" />
        <path
           d="m 85.9,924.1 c 0,9.9 -8,13.9 -17.9,8.9 -9.9,-4.9 -17.9,-17 -17.9,-26.8 0,-9.8 8,-13.9 17.9,-8.9 9.9,5 17.9,16.9 17.9,26.8 z"
           id="path4768"
           inkscape:connector-curvature="0"
           style="fill:#999999" />
        <path
           d="m 69.5,932.4 c -9.9,-4.9 -17.9,-17 -17.9,-26.8 0,-4.9 1.9,-8.3 5.1,-9.9 -4,1.3 -6.6,5 -6.6,10.6 0,9.9 8,21.9 17.9,26.8 5,2.5 9.6,2.7 12.8,1 -3.1,0.9 -7,0.4 -11.3,-1.7 z"
           id="path4770"
           inkscape:connector-curvature="0"
           style="opacity:0.15" />
        <path
           d="m 76.9,918.2 c 0,4.1 -3.3,5.8 -7.5,3.7 -4.1,-2.1 -7.5,-7.1 -7.5,-11.2 0,-4.1 3.3,-5.8 7.5,-3.7 4.2,2.1 7.5,7.1 7.5,11.2 z"
           id="path4772"
           inkscape:connector-curvature="0"
           style="fill:#2d3134" />
        <path
           d="m 76.9,918.2 c 0,4.1 -3.3,5.8 -7.5,3.7 -4.1,-2.1 -7.5,-7.1 -7.5,-11.2 0,-4.1 3.3,-5.8 7.5,-3.7 4.2,2.1 7.5,7.1 7.5,11.2 z"
           id="path4774"
           inkscape:connector-curvature="0"
           style="opacity:0.28999999" />
        <path
           d="m 75.5,918.9 c 0,4.1 -3.3,5.8 -7.5,3.7 -4.1,-2.1 -7.5,-7.1 -7.5,-11.2 0,-4.1 3.3,-5.8 7.5,-3.7 4.1,2.1 7.5,7.1 7.5,11.2 z"
           id="path4776"
           inkscape:connector-curvature="0"
           style="fill:#2d3134" />
        <path
           d="m 96,929.3 c 0,15.5 -12.5,21.7 -28,14 -15.5,-7.7 -28,-26.5 -28,-42 0,-15.5 12.5,-21.7 28,-14 15.5,7.7 28,26.5 28,42 z"
           id="path4778"
           inkscape:connector-curvature="0"
           style="opacity:0.11000001" />
        <path
           d="m 149,889 -36,18 v 31 l 62,31 36,-18 v -31 z"
           id="path4780"
           inkscape:connector-curvature="0"
           style="fill:#2d3134" />
        <path
           d="m 113,907 v 31 l 62,31 v -31 z"
           id="path4782"
           inkscape:connector-curvature="0"
           style="opacity:0.11000001" />
        <path
           d="m 211,920 v 31 l -36,18 v -31 z"
           id="path4784"
           inkscape:connector-curvature="0"
           style="opacity:0.28999999" />
        <path
           d="m 220,941 -20,10 v 27 l 44,22 20,-10 v -27 z"
           id="path4786"
           inkscape:connector-curvature="0"
           style="fill:#999999" />
        <path
           d="m 234,948 -4,-2 -20,10 v 27 l 4,2 v -27 z"
           id="path4788"
           inkscape:connector-curvature="0"
           style="fill:#2d3134" />
        <path
           d="m 254,958 -4,-2 -20,10 v 27 l 4,2 v -27 z"
           id="path4790"
           inkscape:connector-curvature="0"
           style="fill:#2d3134" />
        <path
           d="m 264,963 v 27 l -20,10 v -27 z"
           id="path4792"
           inkscape:connector-curvature="0"
           style="opacity:0.28999999" />
        <path
           d="m 200,951 v 27 l 44,22 v -27 z"
           id="path4794"
           inkscape:connector-curvature="0"
           style="opacity:0.11000001" />
        <path
           d="m 260,984.6 36,-18 -12,20 -36,18 z"
           id="path4796"
           inkscape:connector-curvature="0"
           style="fill:#2d3134" />
        <path
           d="m 260,984.6 36,-18 -12,20 -36,18 z"
           id="path4798"
           inkscape:connector-curvature="0"
           style="opacity:0.28999999" />
        <path
           d="m 314.4,977.2 c -7.5,-3.7 -14.2,-4.2 -19.2,-1.9 l -14,7 c -5.4,2.4 -8.8,7.9 -8.8,15.9 0,15.5 12.5,34.3 28,42 7.6,3.8 14.6,4.2 19.6,1.8 0,0 13.9,-6.9 15.1,-7.6 4.5,-2.7 7.3,-7.9 7.3,-15.2 0,-15.4 -12.6,-34.2 -28,-42 z"
           id="path4800"
           inkscape:connector-curvature="0"
           style="fill:#2d3134" />
        <path
           d="m 320.3,1041.8 c 2,-1 13.7,-6.8 14.8,-7.5 4.5,-2.7 7.3,-7.9 7.3,-15.2 0,-6.2 -2.1,-13 -5.5,-19.3 l -14,7 c 3.4,6.4 5.5,13.1 5.5,19.3 0,7.8 -3.1,13.2 -8.1,15.7 z"
           id="path4802"
           inkscape:connector-curvature="0"
           style="opacity:0.28999999" />
        <path
           d="m 318.3,1021 c 0,9.9 -8,13.9 -17.9,8.9 -9.9,-4.9 -17.9,-17 -17.9,-26.8 0,-9.9 8,-13.9 17.9,-8.9 9.8,4.9 17.9,16.9 17.9,26.8 z"
           id="path4804"
           inkscape:connector-curvature="0"
           style="fill:#999999" />
        <path
           d="m 301.9,1029.3 c -9.9,-4.9 -17.9,-17 -17.9,-26.8 0,-4.9 1.9,-8.3 5.1,-9.9 -4,1.3 -6.6,5 -6.6,10.6 0,9.9 8,21.9 17.9,26.8 5,2.5 9.6,2.7 12.8,1 -3.1,0.9 -7,0.4 -11.3,-1.7 z"
           id="path4806"
           inkscape:connector-curvature="0"
           style="opacity:0.15" />
        <path
           d="m 309.3,1015.1 c 0,4.1 -3.3,5.8 -7.5,3.7 -4.1,-2.1 -7.5,-7.1 -7.5,-11.2 0,-4.1 3.3,-5.8 7.5,-3.7 4.2,2.1 7.5,7.1 7.5,11.2 z"
           id="path4808"
           inkscape:connector-curvature="0"
           style="fill:#2d3134" />
        <path
           d="m 309.3,1015.1 c 0,4.1 -3.3,5.8 -7.5,3.7 -4.1,-2.1 -7.5,-7.1 -7.5,-11.2 0,-4.1 3.3,-5.8 7.5,-3.7 4.2,2.1 7.5,7.1 7.5,11.2 z"
           id="path4810"
           inkscape:connector-curvature="0"
           style="opacity:0.28999999" />
        <path
           d="m 307.8,1015.8 c 0,4.1 -3.3,5.8 -7.5,3.7 -4.1,-2.1 -7.5,-7.1 -7.5,-11.2 0,-4.1 3.3,-5.8 7.5,-3.7 4.2,2.1 7.5,7.1 7.5,11.2 z"
           id="path4812"
           inkscape:connector-curvature="0"
           style="fill:#2d3134" />
        <path
           d="m 328.4,1026.2 c 0,15.5 -12.5,21.7 -28,14 -15.5,-7.7 -28,-26.5 -28,-42 0,-15.5 12.5,-21.7 28,-14 15.4,7.8 28,26.6 28,42 z"
           id="path4814"
           inkscape:connector-curvature="0"
           style="opacity:0.11000001" />
        <path
           d="m 295,986.7 c -7.5,-3.7 -14.2,-4.2 -19.2,-1.9 l -14,7 c -5.4,2.4 -8.8,7.9 -8.8,15.9 0,15.5 12.5,34.3 28,42 7.6,3.8 14.6,4.2 19.6,1.8 0,0 13.9,-6.9 15.1,-7.6 4.5,-2.7 7.3,-7.9 7.3,-15.2 0,-15.5 -12.5,-34.3 -28,-42 z"
           id="path4816"
           inkscape:connector-curvature="0"
           style="fill:#2d3134" />
        <path
           d="m 300.9,1051.3 c 2,-1 13.7,-6.8 14.8,-7.5 4.5,-2.7 7.3,-7.9 7.3,-15.2 0,-6.2 -2.1,-13 -5.5,-19.3 l -14,7 c 3.4,6.4 5.5,13.1 5.5,19.3 0,7.7 -3.1,13.1 -8.1,15.7 z"
           id="path4818"
           inkscape:connector-curvature="0"
           style="opacity:0.28999999" />
        <path
           d="m 298.9,1030.4 c 0,9.9 -8,13.9 -17.9,8.9 -9.9,-5 -17.9,-17 -17.9,-26.8 0,-9.8 8,-13.9 17.9,-8.9 9.9,5 17.9,17 17.9,26.8 z"
           id="path4820"
           inkscape:connector-curvature="0"
           style="fill:#999999" />
        <path
           d="m 282.5,1038.8 c -9.9,-4.9 -17.9,-17 -17.9,-26.8 0,-4.9 1.9,-8.3 5.1,-9.9 -4,1.3 -6.6,5 -6.6,10.6 0,9.9 8,21.9 17.9,26.8 5,2.5 9.6,2.7 12.8,1 -3.1,0.9 -7,0.4 -11.3,-1.7 z"
           id="path4822"
           inkscape:connector-curvature="0"
           style="opacity:0.15" />
        <path
           d="m 289.9,1024.6 c 0,4.1 -3.3,5.8 -7.5,3.7 -4.1,-2.1 -7.5,-7.1 -7.5,-11.2 0,-4.1 3.3,-5.8 7.5,-3.7 4.2,2.1 7.5,7.1 7.5,11.2 z"
           id="path4824"
           inkscape:connector-curvature="0"
           style="fill:#2d3134" />
        <path
           d="m 289.9,1024.6 c 0,4.1 -3.3,5.8 -7.5,3.7 -4.1,-2.1 -7.5,-7.1 -7.5,-11.2 0,-4.1 3.3,-5.8 7.5,-3.7 4.2,2.1 7.5,7.1 7.5,11.2 z"
           id="path4826"
           inkscape:connector-curvature="0"
           style="opacity:0.28999999" />
        <path
           d="m 288.5,1025.3 c 0,4.1 -3.3,5.8 -7.5,3.7 -4.1,-2.1 -7.5,-7.1 -7.5,-11.2 0,-4.1 3.3,-5.8 7.5,-3.7 4.1,2.1 7.5,7.1 7.5,11.2 z"
           id="path4828"
           inkscape:connector-curvature="0"
           style="fill:#2d3134" />
        <path
           d="m 309,1035.7 c 0,15.5 -12.5,21.7 -28,14 -15.5,-7.7 -28,-26.5 -28,-42 0,-15.5 12.5,-21.7 28,-14 15.5,7.7 28,26.5 28,42 z"
           id="path4830"
           inkscape:connector-curvature="0"
           style="opacity:0.11000001" />
        <path
           d="m 260,984.6 36,-18 36,18 -36,18 z"
           id="path4832"
           inkscape:connector-curvature="0"
           style="fill:#2d3134" />
        <path
           d="m 310,1027.6 36,-18 -14,-25 -36,18 z"
           id="path4834"
           inkscape:connector-curvature="0"
           style="fill:#2d3134" />
        <path
           d="m 310,1027.6 36,-18 -14,-25 -36,18 z"
           id="path4836"
           inkscape:connector-curvature="0"
           style="opacity:0.28999999" />
        <path
           d="m 318,1014.6 36,-18 -12,20 -36,18 z"
           id="path4838"
           inkscape:connector-curvature="0"
           style="fill:#2d3134" />
        <path
           d="m 318,1014.6 36,-18 -12,20 -36,18 z"
           id="path4840"
           inkscape:connector-curvature="0"
           style="opacity:0.28999999" />
        <path
           d="m 372.4,1007.2 c -7.5,-3.7 -14.2,-4.2 -19.2,-1.9 l -14,7 c -5.4,2.4 -8.8,7.9 -8.8,15.9 0,15.5 12.5,34.3 28,42 7.6,3.8 14.6,4.2 19.6,1.8 0,0 13.9,-6.9 15.1,-7.6 4.5,-2.7 7.3,-7.9 7.3,-15.2 0,-15.4 -12.6,-34.2 -28,-42 z"
           id="path4842"
           inkscape:connector-curvature="0"
           style="fill:#2d3134" />
        <path
           d="m 378.3,1071.8 c 2,-1 13.7,-6.8 14.8,-7.5 4.5,-2.7 7.3,-7.9 7.3,-15.2 0,-6.2 -2.1,-13 -5.5,-19.3 l -14,7 c 3.4,6.4 5.5,13.1 5.5,19.3 0,7.8 -3.1,13.2 -8.1,15.7 z"
           id="path4844"
           inkscape:connector-curvature="0"
           style="opacity:0.28999999" />
        <path
           d="m 376.3,1051 c 0,9.9 -8,13.9 -17.9,8.9 -9.9,-4.9 -17.9,-17 -17.9,-26.8 0,-9.9 8,-13.9 17.9,-8.9 9.8,4.9 17.9,16.9 17.9,26.8 z"
           id="path4846"
           inkscape:connector-curvature="0"
           style="fill:#999999" />
        <path
           d="m 359.9,1059.3 c -9.9,-4.9 -17.9,-17 -17.9,-26.8 0,-4.9 1.9,-8.3 5.1,-9.9 -4,1.3 -6.6,5 -6.6,10.6 0,9.9 8,21.9 17.9,26.8 5,2.5 9.6,2.7 12.8,1 -3.1,0.9 -7,0.4 -11.3,-1.7 z"
           id="path4848"
           inkscape:connector-curvature="0"
           style="opacity:0.15" />
        <path
           d="m 367.3,1045.1 c 0,4.1 -3.3,5.8 -7.5,3.7 -4.1,-2.1 -7.5,-7.1 -7.5,-11.2 0,-4.1 3.3,-5.8 7.5,-3.7 4.2,2.1 7.5,7.1 7.5,11.2 z"
           id="path4850"
           inkscape:connector-curvature="0"
           style="fill:#2d3134" />
        <path
           d="m 367.3,1045.1 c 0,4.1 -3.3,5.8 -7.5,3.7 -4.1,-2.1 -7.5,-7.1 -7.5,-11.2 0,-4.1 3.3,-5.8 7.5,-3.7 4.2,2.1 7.5,7.1 7.5,11.2 z"
           id="path4852"
           inkscape:connector-curvature="0"
           style="opacity:0.28999999" />
        <path
           d="m 365.8,1045.8 c 0,4.1 -3.3,5.8 -7.5,3.7 -4.1,-2.1 -7.5,-7.1 -7.5,-11.2 0,-4.1 3.3,-5.8 7.5,-3.7 4.2,2.1 7.5,7.1 7.5,11.2 z"
           id="path4854"
           inkscape:connector-curvature="0"
           style="fill:#2d3134" />
        <path
           d="m 386.4,1056.2 c 0,15.5 -12.5,21.7 -28,14 -15.5,-7.7 -28,-26.5 -28,-42 0,-15.5 12.5,-21.7 28,-14 15.4,7.8 28,26.6 28,42 z"
           id="path4856"
           inkscape:connector-curvature="0"
           style="opacity:0.11000001" />
        <path
           d="m 353,1016.7 c -7.5,-3.7 -14.2,-4.2 -19.2,-1.9 l -14,7 c -5.4,2.4 -8.8,7.9 -8.8,15.9 0,15.5 12.5,34.3 28,42 7.6,3.8 14.6,4.2 19.6,1.8 0,0 13.9,-6.9 15.1,-7.6 4.5,-2.7 7.3,-7.9 7.3,-15.2 0,-15.5 -12.5,-34.3 -28,-42 z"
           id="path4858"
           inkscape:connector-curvature="0"
           style="fill:#2d3134" />
        <path
           d="m 358.9,1081.3 c 2,-1 13.7,-6.8 14.8,-7.5 4.5,-2.7 7.3,-7.9 7.3,-15.2 0,-6.2 -2.1,-13 -5.5,-19.3 l -14,7 c 3.4,6.4 5.5,13.1 5.5,19.3 0,7.7 -3.1,13.1 -8.1,15.7 z"
           id="path4860"
           inkscape:connector-curvature="0"
           style="opacity:0.28999999" />
        <path
           d="m 356.9,1060.4 c 0,9.9 -8,13.9 -17.9,8.9 -9.9,-5 -17.9,-17 -17.9,-26.8 0,-9.9 8,-13.9 17.9,-8.9 9.9,5 17.9,17 17.9,26.8 z"
           id="path4862"
           inkscape:connector-curvature="0"
           style="fill:#999999" />
        <path
           d="m 340.5,1068.8 c -9.9,-4.9 -17.9,-17 -17.9,-26.8 0,-4.9 1.9,-8.3 5.1,-9.9 -4,1.3 -6.6,5 -6.6,10.6 0,9.9 8,21.9 17.9,26.8 5,2.5 9.6,2.7 12.8,1 -3.1,0.9 -7,0.4 -11.3,-1.7 z"
           id="path4864"
           inkscape:connector-curvature="0"
           style="opacity:0.15" />
        <path
           d="m 347.9,1054.6 c 0,4.1 -3.3,5.8 -7.5,3.7 -4.1,-2.1 -7.5,-7.1 -7.5,-11.2 0,-4.1 3.3,-5.8 7.5,-3.7 4.2,2.1 7.5,7.1 7.5,11.2 z"
           id="path4866"
           inkscape:connector-curvature="0"
           style="fill:#2d3134" />
        <path
           d="m 347.9,1054.6 c 0,4.1 -3.3,5.8 -7.5,3.7 -4.1,-2.1 -7.5,-7.1 -7.5,-11.2 0,-4.1 3.3,-5.8 7.5,-3.7 4.2,2.1 7.5,7.1 7.5,11.2 z"
           id="path4868"
           inkscape:connector-curvature="0"
           style="opacity:0.28999999" />
        <path
           d="m 346.5,1055.3 c 0,4.1 -3.3,5.8 -7.5,3.7 -4.1,-2.1 -7.5,-7.1 -7.5,-11.2 0,-4.1 3.3,-5.8 7.5,-3.7 4.1,2.1 7.5,7.1 7.5,11.2 z"
           id="path4870"
           inkscape:connector-curvature="0"
           style="fill:#2d3134" />
        <path
           d="m 367,1065.7 c 0,15.5 -12.5,21.7 -28,14 -15.5,-7.7 -28,-26.5 -28,-42 0,-15.5 12.5,-21.7 28,-14 15.5,7.7 28,26.5 28,42 z"
           id="path4872"
           inkscape:connector-curvature="0"
           style="opacity:0.11000001" />
        <path
           d="m 318,1014.6 36,-18 36,18 -36,18 z"
           id="path4874"
           inkscape:connector-curvature="0"
           style="fill:#2d3134" />
        <path
           d="m 368,1057.6 36,-18 -14,-25 -36,18 z"
           id="path4876"
           inkscape:connector-curvature="0"
           style="fill:#2d3134" />
        <path
           d="m 368,1057.6 36,-18 -14,-25 -36,18 z"
           id="path4878"
           inkscape:connector-curvature="0"
           style="opacity:0.28999999" />
        <path
           d="M 150.8,774.1 11,844 v 50 l 28.9,14.4 v -2.9 c 0.5,-9.6 4.7,-19.4 12.5,-21.2 7.5,-1.7 15,2.2 23.6,6.6 2.6,1.3 29,15 29,15 l 140,-70 v -15 z"
           id="path4880"
           inkscape:connector-curvature="0"
           style="fill:#ff9900" />
        <path
           d="M 167,679 27,749 20.5,766.4 C 14.2,783 11,803.3 11,827 v 15 l 94,47 140,-70 V 718 Z"
           id="path4882"
           inkscape:connector-curvature="0"
           style="fill:#ff9900" />
        <path
           d="M 105,906 245,836 V 821 L 105,891 Z"
           id="path4884"
           inkscape:connector-curvature="0"
           style="opacity:0.28999999" />
        <path
           d="M 105,889 245,819 V 718 l -140,70 z"
           id="path4886"
           inkscape:connector-curvature="0"
           style="opacity:0.28999999" />
        <path
           d="m 82.7,822.7 c -0.1,0 -0.2,0 -0.3,-0.1 L 47.4,805 c -1.2,-0.6 -2.2,-0.9 -3.2,-0.9 -2.6,0 -4.1,2 -4.1,5.4 0,1.7 -0.5,2.5 -1.5,2.5 -0.5,0 -1.1,-0.2 -1.7,-0.5 l -14.4,-7.1 c -2,-1 -4.3,-5.2 -4,-6.8 1.5,-9.5 3.8,-18.2 6.8,-25.9 l 4.6,-12.1 c 0.4,-1.1 1.1,-1.6 2.2,-1.6 0.8,0 1.7,0.3 2.7,0.8 l 43.9,22 c 1.8,0.9 4,4.6 4,6.5 v 35.1 c 0.1,0.2 0,0.3 0,0.3 z"
           id="path4888"
           inkscape:connector-curvature="0"
           style="fill:#656565" />
        <path
           d="m 32.1,759 c 0.4,0 1.2,0.1 2.3,0.7 l 43.9,22 c 1.4,0.7 3.5,4 3.5,5.6 v 33.8 l -33.9,-17 c -1.3,-0.6 -2.5,-1 -3.6,-1 -2.5,0 -5.1,1.7 -5.1,6.4 0,1 -0.3,1.4 -0.3,1.5 0,0 0,0 -0.2,0 -0.2,0 -0.6,-0.1 -1.3,-0.4 L 23,803.5 c -1.7,-0.9 -3.7,-4.6 -3.5,-5.8 1.5,-9.4 3.8,-18 6.7,-25.7 l 4.6,-12.1 c 0.3,-0.7 0.7,-0.9 1.3,-0.9 m 0,-2 c -1.5,0 -2.6,0.8 -3.1,2.2 l -4.6,12.1 c -3,7.8 -5.3,16.6 -6.8,26.1 -0.4,2.2 2.3,6.7 4.6,7.9 l 14.4,7.1 c 0.8,0.4 1.6,0.6 2.2,0.6 1.6,0 2.5,-1.2 2.5,-3.5 0,-2.8 1.1,-4.4 3.1,-4.4 0.8,0 1.7,0.3 2.7,0.8 l 35,17.6 c 0.3,0.2 0.6,0.2 0.8,0.2 0.6,0 0.9,-0.5 0.9,-1.3 v -35.1 c 0,-2.4 -2.5,-6.4 -4.6,-7.4 l -43.9,-22 C 34.1,757.3 33,757 32.1,757 Z"
           id="path4890"
           inkscape:connector-curvature="0"
           style="fill:#2d3134" />
        <path
           d="m 105,891 v 15 c 0,0 -26.4,-13.7 -29,-15 -8.6,-4.5 -16.1,-8.3 -23.6,-6.6 -8.6,2 -12.8,13.7 -12.5,24.1 L 11,894 v -50 z"
           id="path4892"
           inkscape:connector-curvature="0"
           style="opacity:0.11000001" />
        <path
           d="m 84,833.5 v 5 l -10,-5 v -5 z"
           id="path4894"
           inkscape:connector-curvature="0"
           style="opacity:0.3;fill:#2d3134" />
        <path
           d="m 74,836 10,5 v -2.5 l -10,-5 z"
           id="path4896"
           inkscape:connector-curvature="0"
           style="opacity:0.3;fill:#ffffff" />
        <path
           d="m 27,902 -2,-1 v -50 l 2,1 z"
           id="path4898"
           inkscape:connector-curvature="0"
           style="opacity:0.3;fill:#2d3134" />
        <path
           d="m 29,903 -2,-1 v -50 l 2,1 z"
           id="path4900"
           inkscape:connector-curvature="0"
           style="opacity:0.3;fill:#ffffff" />
        <path
           d="m 25.3,808.2 c -1.1,0 -2.2,-0.3 -3.1,-0.9 -1.8,-1.1 -2.8,-3 -2.8,-5.1 V 770 c 0,-2.3 1.3,-4.3 3.3,-5.3 l 3.7,-1.8 0.4,0.9 -3.7,1.8 c -1.7,0.8 -2.7,2.5 -2.7,4.4 v 32.3 c 0,1.7 0.9,3.3 2.4,4.2 1.5,0.9 3.3,1 4.8,0.2 l 0.6,-0.3 0.4,0.9 -0.6,0.3 c -0.8,0.4 -1.7,0.6 -2.7,0.6 z"
           id="path4902"
           inkscape:connector-curvature="0"
           style="fill:#2d3134" />
        <path
           d="m 19.6,769.1 0.7,-0.3 c 2.4,-0.8 4.9,1 4.9,3.5 v 21.4 c 0,3.1 -1.9,6 -4.9,7.1 l -0.9,0.3 c -2.4,0.9 -5.1,-0.9 -5.1,-3.5 v -21.5 c 0.2,-3 2.2,-5.9 5.3,-7 z"
           id="path4904"
           inkscape:connector-curvature="0"
           style="fill:#2d3134" />
        <path
           d="m 27,749 78,39 V 889 L 11,842 v -15 c 0,-23.7 3.2,-44.1 9.5,-60.6 z"
           id="path4906"
           inkscape:connector-curvature="0"
           style="opacity:0.11000001" />
        <path
           d="m 243,823 -136,68 v 10 l 318,159 136,-68 v -10 z"
           id="path4908"
           inkscape:connector-curvature="0"
           style="fill:#2d3134" />
        <path
           d="m 107,901 v -10 l 318,159 v 10 z"
           id="path4910"
           inkscape:connector-curvature="0"
           style="opacity:0.11000001" />
        <path
           d="m 561,992 v -10 l -136,68 v 10 z"
           id="path4912"
           inkscape:connector-curvature="0"
           style="opacity:0.28999999" />
        <path
           d="m 216.5,802.9 c -26.8,0 -48.5,10.8 -48.5,24.2 v 40.7 c 0,13.4 21.7,24.2 48.5,24.2 26.8,0 48.5,-10.8 48.5,-24.2 v -40.7 c 0,-13.4 -21.7,-24.2 -48.5,-24.2 z"
           id="path4914"
           inkscape:connector-curvature="0"
           style="fill:#ff9900" />
        <path
           d="m 216.5,851.3 c -26.8,0 -48.5,-10.8 -48.5,-24.2 v 40.7 c 0,13.4 21.7,24.2 48.5,24.2 26.8,0 48.5,-10.8 48.5,-24.2 v -40.7 c 0,13.4 -21.7,24.2 -48.5,24.2 z"
           id="path4916"
           inkscape:connector-curvature="0"
           style="opacity:0.3" />
        <path
           d="m 216.5,793.2 c -29,0 -52.5,11.8 -52.5,26.3 V 830 c 0,14.5 23.5,26.3 52.5,26.3 29,0 52.5,-11.8 52.5,-26.3 v -10.5 c 0,-14.6 -23.5,-26.3 -52.5,-26.3 z"
           id="path4918"
           inkscape:connector-curvature="0"
           style="fill:#ff9900" />
        <path
           d="m 216.5,845.7 c -29,0 -52.5,-11.8 -52.5,-26.3 v 10.5 c 0,14.5 23.5,26.3 52.5,26.3 29,0 52.5,-11.8 52.5,-26.3 v -10.5 c 0,14.5 -23.5,26.3 -52.5,26.3 z"
           id="path4920"
           inkscape:connector-curvature="0"
           style="opacity:0.2" />
        <path
           d="m 548,981 -108,54 v 50 l 40,20 108,-54 v -30 z"
           id="path4922"
           inkscape:connector-curvature="0"
           style="fill:#999999" />
        <path
           d="m 440,1085 v -50 l 40,40 v 30 z"
           id="path4924"
           inkscape:connector-curvature="0"
           style="opacity:0.11000001" />
        <path
           d="m 588,1051 v -30 l -108,54 v 30 z"
           id="path4926"
           inkscape:connector-curvature="0"
           style="opacity:0.28999999" />
        <path
           d="m 548,1024 v -39 l 35,35 -21,11 z"
           id="path4928"
           inkscape:connector-curvature="0"
           style="opacity:0.11000001" />
        <path
           d="m 548,1024 v -39 l -102,51 26,26 z"
           id="path4930"
           inkscape:connector-curvature="0"
           style="opacity:0.28999999" />
        <path
           d="m 216.5,739 c -13.4,0 -24.2,5.4 -24.2,12.1 L 168,815.8 c 0,13.4 21.7,24.2 48.5,24.2 26.8,0 48.5,-10.8 48.5,-24.2 L 240.8,751.1 C 240.7,744.4 229.9,739 216.5,739 Z"
           id="path4932"
           inkscape:connector-curvature="0"
           style="fill:#ff9900" />
        <path
           d="m 216.5,763.2 c -13.4,0 -24.2,-5.4 -24.2,-12.1 L 168,815.8 c 0,13.4 21.7,24.2 48.5,24.2 26.8,0 48.5,-10.8 48.5,-24.2 l -24.2,-64.7 c -0.1,6.7 -10.9,12.1 -24.3,12.1 z"
           id="path4934"
           inkscape:connector-curvature="0"
           style="opacity:0.3" />
        <path
           d="m 112,865 -4,2 v 38 l 88,44 4,-2 v -38 z"
           id="path4936"
           inkscape:connector-curvature="0"
           style="fill:#ff9900" />
        <path
           d="m 108,905 v -38 l 88,44 v 38 z"
           id="path4938"
           inkscape:connector-curvature="0"
           style="opacity:0.11000001" />
        <path
           d="m 200,947 v -38 l -4,2 v 38 z"
           id="path4940"
           inkscape:connector-curvature="0"
           style="opacity:0.28999999" />
        <path
           d="m 112,849 4,2 v 16 l -78,39 -4,-2 v -16 z"
           id="path4942"
           inkscape:connector-curvature="0"
           style="fill:#ff9900" />
        <path
           d="m 116,867 v -16 l -78,39 v 16 z"
           id="path4944"
           inkscape:connector-curvature="0"
           style="opacity:0.28999999" />
        <path
           d="m 30,963.8 c -4.7,0 -8.5,1.9 -8.5,4.3 l -6.5,8.8 c 0,4.1 6.7,7.5 15,7.5 8.3,0 15,-3.4 15,-7.5 l -6.5,-8.8 c 0,-2.4 -3.8,-4.3 -8.5,-4.3 z"
           id="path4946"
           inkscape:connector-curvature="0"
           style="fill:#999999" />
        <path
           d="m 30,972.3 c -4.7,0 -8.5,-1.9 -8.5,-4.3 l -6.5,8.8 c 0,4.1 6.7,7.5 15,7.5 8.3,0 15,-3.4 15,-7.5 L 38.5,968 c 0,2.3 -3.8,4.3 -8.5,4.3 z"
           id="path4948"
           inkscape:connector-curvature="0"
           style="opacity:0.3" />
        <path
           d="m 30,950 c -2.8,0 -5,1.1 -5,2.5 v 15 c 0,1.4 2.2,2.5 5,2.5 2.8,0 5,-1.1 5,-2.5 v -15 c 0,-1.4 -2.2,-2.5 -5,-2.5 z"
           id="path4950"
           inkscape:connector-curvature="0"
           style="fill:#999999" />
        <path
           d="m 30,955 c -2.8,0 -5,-1.1 -5,-2.5 v 15 c 0,1.4 2.2,2.5 5,2.5 2.8,0 5,-1.1 5,-2.5 v -15 c 0,1.4 -2.2,2.5 -5,2.5 z"
           id="path4952"
           inkscape:connector-curvature="0"
           style="opacity:0.3" />
        <path
           d="m 30,877 c -5.5,0 -10,2.2 -10,5 v 70 c 0,2.8 4.5,5 10,5 5.5,0 10,-2.2 10,-5 v -70 c 0,-2.8 -4.5,-5 -10,-5 z"
           id="path4954"
           inkscape:connector-curvature="0"
           style="fill:#ff9900" />
        <path
           d="m 30,887 c -5.5,0 -10,-2.2 -10,-5 v 70 c 0,2.8 4.5,5 10,5 5.5,0 10,-2.2 10,-5 v -70 c 0,2.8 -4.5,5 -10,5 z"
           id="path4956"
           inkscape:connector-curvature="0"
           style="opacity:0.3" />
        <path
           d="m 191,871.1 c 0,5.2 -4.3,7.4 -9.5,4.7 -5.2,-2.6 -9.5,-9 -9.5,-14.3 0,-5.3 4.3,-7.4 9.5,-4.7 5.2,2.7 9.5,9.1 9.5,14.3 z"
           id="path4958"
           inkscape:connector-curvature="0"
           style="fill:#2d3134" />
        <path
           d="m 856,164 -8,4 18,18 20,10 -10,-22 z"
           id="path4960"
           inkscape:connector-curvature="0"
           style="fill:#ff9900" />
        <path
           d="m 866,186 -18,-18 20,10 18,18 z"
           id="path4962"
           inkscape:connector-curvature="0"
           style="opacity:0.11000001" />
        <path
           d="m 886,196 -10,-22 -8,4 z"
           id="path4964"
           inkscape:connector-curvature="0"
           style="opacity:0.28999999" />
        <path
           d="m 358,344 -48,24 -110,382 20,10 20,-10 138,-396 z"
           id="path4966"
           inkscape:connector-curvature="0"
           style="fill:#ff9900" />
        <path
           d="M 200,750 310,368 330,378 220,760 Z"
           id="path4968"
           inkscape:connector-curvature="0"
           style="opacity:0.11000001" />
        <path
           d="M 240,750 378,354 330,378 220,760 Z"
           id="path4970"
           inkscape:connector-curvature="0"
           style="opacity:0.28999999" />
        <path
           d="m 407,306.4 c -2.6,-2 -5.5,-2.6 -6.6,-1.3 l -34,43.3 c -1,1.3 0.3,4 2.9,6 2.6,2 5.5,2.6 6.6,1.3 l 34,-43.3 c 1,-1.3 -0.3,-4 -2.9,-6 z"
           id="path4972"
           inkscape:connector-curvature="0"
           style="fill:#ff9900" />
        <path
           d="m 403.3,311.1 c -2.6,-2 -3.9,-4.7 -2.9,-6 l -34,43.3 c -1,1.3 0.3,4 2.9,6 2.6,2 5.5,2.6 6.6,1.3 l 34,-43.3 c -1.1,1.3 -4,0.7 -6.6,-1.3 z"
           id="path4974"
           inkscape:connector-curvature="0"
           style="opacity:0.2" />
        <path
           d="m 470.5,225.4 c -1.6,-1.2 -3.3,-1.6 -3.9,-0.8 l -64.3,81.8 c -0.6,0.8 0.2,2.4 1.7,3.6 1.6,1.2 3.3,1.6 3.9,0.8 L 472.2,229 c 0.7,-0.7 -0.1,-2.3 -1.7,-3.6 z"
           id="path4976"
           inkscape:connector-curvature="0"
           style="fill:#656565" />
        <path
           d="m 468.3,228.3 c -1.6,-1.2 -2.3,-2.8 -1.7,-3.6 l -64.3,81.8 c -0.6,0.8 0.2,2.4 1.7,3.6 1.6,1.2 3.3,1.6 3.9,0.8 l 64.3,-81.8 c -0.6,0.8 -2.3,0.4 -3.9,-0.8 z"
           id="path4978"
           inkscape:connector-curvature="0"
           style="opacity:0.2" />
        <path
           d="m 537.4,148.5 c 0.8,2.1 2.3,3.5 3.3,3.1 l 109.6,-42 c 1,-0.4 1.2,-2.4 0.4,-4.5 -0.8,-2.1 -2.3,-3.5 -3.3,-3.1 l -109.6,42 c -1,0.4 -1.2,2.5 -0.4,4.5 z"
           id="path4980"
           inkscape:connector-curvature="0"
           style="fill:#656565" />
        <path
           d="m 541.2,147.1 c 0.8,2.1 0.6,4.1 -0.4,4.5 l 109.6,-42 c 1,-0.4 1.2,-2.4 0.4,-4.5 -0.8,-2.1 -2.3,-3.5 -3.3,-3.1 l -109.6,42 c 1,-0.4 2.5,1 3.3,3.1 z"
           id="path4982"
           inkscape:connector-curvature="0"
           style="opacity:0.2" />
        <path
           d="m 522.8,154.5 c 1.3,3.5 3.8,5.8 5.6,5.1 l 58,-22.1 c 1.7,-0.7 2.1,-4 0.7,-7.5 -1.3,-3.5 -3.8,-5.8 -5.6,-5.1 l -58,22.1 c -1.7,0.6 -2,4 -0.7,7.5 z"
           id="path4984"
           inkscape:connector-curvature="0"
           style="fill:#ff9900" />
        <path
           d="m 529.1,152.1 c 1.3,3.5 1,6.8 -0.7,7.5 l 58,-22.1 c 1.7,-0.7 2.1,-4 0.7,-7.5 -1.3,-3.5 -3.8,-5.8 -5.6,-5.1 l -58,22.1 c 1.8,-0.7 4.3,1.6 5.6,5.1 z"
           id="path4986"
           inkscape:connector-curvature="0"
           style="opacity:0.2" />
        <path
           d="m 799.7,68.9 c -1.9,1.2 -2.9,2.9 -2.3,3.9 L 860,172 c 0.6,0.9 2.6,0.7 4.5,-0.4 1.9,-1.2 2.9,-2.9 2.3,-3.9 L 804.2,68.4 c -0.6,-0.9 -2.6,-0.7 -4.5,0.5 z"
           id="path4988"
           inkscape:connector-curvature="0"
           style="fill:#656565" />
        <path
           d="m 801.9,72.3 c -1.9,1.2 -3.9,1.4 -4.5,0.4 L 860,172 c 0.6,0.9 2.6,0.7 4.5,-0.4 1.9,-1.2 2.9,-2.9 2.3,-3.9 L 804.2,68.4 c 0.6,1 -0.4,2.7 -2.3,3.9 z"
           id="path4990"
           inkscape:connector-curvature="0"
           style="opacity:0.2" />
        <path
           d="m 791.1,55.7 c -3.2,2 -4.9,4.9 -3.9,6.4 l 33.1,52.5 c 1,1.6 4.4,1.2 7.5,-0.7 3.2,-2 4.9,-4.9 3.9,-6.4 L 798.6,55 c -1,-1.6 -4.4,-1.3 -7.5,0.7 z"
           id="path4992"
           inkscape:connector-curvature="0"
           style="fill:#ff9900" />
        <path
           d="m 794.7,61.4 c -3.2,2 -6.5,2.3 -7.5,0.7 l 33.1,52.5 c 1,1.6 4.4,1.2 7.5,-0.7 3.2,-2 4.9,-4.9 3.9,-6.4 L 798.6,55 c 1,1.6 -0.8,4.5 -3.9,6.4 z"
           id="path4994"
           inkscape:connector-curvature="0"
           style="opacity:0.2" />
        <path
           d="M 840,50 820,40 500,110 v 20 l 20,10 296.2,-64.8 77.8,172.8 20,10 8,-4 z"
           id="path4996"
           inkscape:connector-curvature="0"
           style="fill:#ff9900" />
        <path
           d="M 922,254 840,50 520,120 v 20 L 830.3,72.1 914,258 Z"
           id="path4998"
           inkscape:connector-curvature="0"
           style="opacity:0.28999999" />
        <path
           d="M 816.2,75.2 894,248 914,258 830.3,72.1 Z"
           id="path5000"
           inkscape:connector-curvature="0"
           style="opacity:0.11000001" />
        <path
           d="m 500,130 v -20 l 20,10 v 20 z"
           id="path5002"
           inkscape:connector-curvature="0"
           style="opacity:0.11000001" />
        <path
           d="m 520,120 -20,-10 -190,258 20,10 20,-10 183,-208 z"
           id="path5004"
           inkscape:connector-curvature="0"
           style="fill:#ff9900" />
        <path
           d="M 310,368 500,110 520,120 330,378 Z"
           id="path5006"
           inkscape:connector-curvature="0"
           style="opacity:0.11000001" />
        <path
           d="M 350,368 533,160 520,120 330,378 Z"
           id="path5008"
           inkscape:connector-curvature="0"
           style="opacity:0.28999999" />
        <path
           d="m 910,364 c -4.4,0 -8,-3.6 -8,-8 v -98 c 0,-4.4 3.6,-8 8,-8 4.4,0 8,3.6 8,8 v 98 c 0,4.4 -3.6,8 -8,8 z"
           id="path5010"
           inkscape:connector-curvature="0"
           style="fill:#656565" />
        <path
           d="m 225,748.1 c 0,5.2 4.3,7.4 9.5,4.7 5.2,-2.6 9.5,-9 9.5,-14.3 0,-5.3 -4.3,-7.4 -9.5,-4.7 -5.2,2.7 -9.5,9.1 -9.5,14.3 z"
           id="path5012"
           inkscape:connector-curvature="0"
           style="fill:#2d3134" />
        <path
           d="m 237,752 c -0.7,0 -1.5,-0.1 -2.2,-0.3 -4.3,-1.2 -6.7,-5.6 -5.5,-9.9 l 102,-361 c 0.3,-0.9 0.7,-1.8 1.2,-2.5 l 187,-256 c 1.1,-1.6 2.8,-2.7 4.7,-3.1 l 308,-69 c 3.9,-0.9 7.8,1.2 9.2,4.9 l 76,196 c 1.6,4.1 -0.4,8.8 -4.6,10.4 -4.1,1.6 -8.8,-0.4 -10.4,-4.6 L 829,67.3 530.7,134.1 346.3,386.6 244.7,746.2 c -1,3.5 -4.2,5.8 -7.7,5.8 z"
           id="path5014"
           inkscape:connector-curvature="0"
           style="fill:#cc291f" />
        <path
           d="m 238,745 c -0.3,0 -0.5,0 -0.8,-0.1 -1.6,-0.5 -2.5,-2.1 -2.1,-3.7 l 102,-361 c 0.1,-0.3 0.3,-0.7 0.5,-1 l 187,-256 c 0.4,-0.6 1.1,-1 1.8,-1.2 l 308,-69 c 1.5,-0.3 2.9,0.5 3.5,1.8 l 76,196 c 0.6,1.5 -0.2,3.3 -1.7,3.9 -1.5,0.6 -3.3,-0.2 -3.9,-1.7 L 833.1,59.5 528.7,127.7 342.7,382.4 240.9,742.8 c -0.4,1.3 -1.6,2.2 -2.9,2.2 z"
           id="path5016"
           inkscape:connector-curvature="0"
           style="opacity:0.2;fill:#ffffff" />
        <path
           d="m 380,960 -10,5 v 30 l 10,5 10,-5 v -30 z"
           id="path5018"
           inkscape:connector-curvature="0"
           style="fill:#999999" />
        <path
           d="m 370,995 v -30 l 10,5 v 30 z"
           id="path5020"
           inkscape:connector-curvature="0"
           style="opacity:0.11000001" />
        <path
           d="m 390,995 v -30 l -10,5 v 30 z"
           id="path5022"
           inkscape:connector-curvature="0"
           style="opacity:0.28999999" />
        <path
           d="m 320,930 -10,5 v 30 l 10,5 10,-5 v -30 z"
           id="path5024"
           inkscape:connector-curvature="0"
           style="fill:#999999" />
        <path
           d="m 310,965 v -30 l 10,5 v 30 z"
           id="path5026"
           inkscape:connector-curvature="0"
           style="opacity:0.11000001" />
        <path
           d="m 330,965 v -30 l -10,5 v 30 z"
           id="path5028"
           inkscape:connector-curvature="0"
           style="opacity:0.28999999" />
        <path
           d="m 260,900 -10,5 v 30 l 10,5 10,-5 v -30 z"
           id="path5030"
           inkscape:connector-curvature="0"
           style="fill:#999999" />
        <path
           d="m 250,935 v -30 l 10,5 v 30 z"
           id="path5032"
           inkscape:connector-curvature="0"
           style="opacity:0.11000001" />
        <path
           d="m 270,935 v -30 l -10,5 v 30 z"
           id="path5034"
           inkscape:connector-curvature="0"
           style="opacity:0.28999999" />
        <path
           d="m 480,1098 c -2.8,0 -5.4,-1.4 -6.9,-3.9 L 415.4,996 c -2.6,-4.5 -6.5,-8.1 -11.2,-10.4 L 179.4,873.2 c -4,-2 -5.6,-6.8 -3.6,-10.7 2,-4 6.8,-5.6 10.7,-3.6 l 224.7,112.4 c 7.4,3.7 13.6,9.5 17.8,16.6 l 54,91.7 33.3,-16.7 c 4,-2 8.8,-0.4 10.7,3.6 2,4 0.4,8.8 -3.6,10.7 l -40,20 c -1,0.5 -2.2,0.8 -3.4,0.8 z"
           id="path5036"
           inkscape:connector-curvature="0"
           style="fill:#ff9900" />
        <path
           d="m 236,946 -4,2 v 16 l 208,104 4,-2 v -16 z"
           id="path5038"
           inkscape:connector-curvature="0"
           style="fill:#ff9900" />
        <path
           d="m 232,964 v -16 l 208,104 v 16 z"
           id="path5040"
           inkscape:connector-curvature="0"
           style="opacity:0.11000001" />
        <path
           d="m 444,1066 v -16 l -4,2 v 16 z"
           id="path5042"
           inkscape:connector-curvature="0"
           style="opacity:0.28999999" />
        <path
           d="m 482,1091 c -1,0 -2,-0.5 -2.6,-1.5 l -57.8,-98.1 c -3.1,-5.3 -7.7,-9.6 -13.2,-12.4 L 183.7,866.7 c -1.5,-0.7 -2.1,-2.5 -1.3,-4 0.7,-1.5 2.5,-2.1 4,-1.3 l 224.7,112.4 c 6.6,3.3 12,8.4 15.7,14.7 l 56.3,95.7 37.5,-18.7 c 1.5,-0.7 3.3,-0.1 4,1.3 0.7,1.5 0.1,3.3 -1.3,4 l -40,20 c -0.4,0.1 -0.8,0.2 -1.3,0.2 z"
           id="path5044"
           inkscape:connector-curvature="0"
           style="opacity:0.2;fill:#ffffff" />
        <path
           d="m 346.8,391.3 -18.5,-7.5 c -2.6,-1 -3.8,-4 -2.7,-6.5 1,-2.6 4,-3.8 6.5,-2.7 l 18.5,7.5 c 2.6,1 3.8,4 2.7,6.5 -1.1,2.5 -4,3.8 -6.5,2.7 z"
           id="path5046"
           inkscape:connector-curvature="0"
           style="fill:#cc291f" />
        <path
           d="m 346.8,391.3 -18.5,-7.5 c -2.6,-1 -3.8,-4 -2.7,-6.5 1,-2.6 4,-3.8 6.5,-2.7 l 18.5,7.5 c 2.6,1 3.8,4 2.7,6.5 -1.1,2.5 -4,3.8 -6.5,2.7 z"
           id="path5048"
           inkscape:connector-curvature="0"
           style="opacity:0.2" />
        <path
           d="m 525.1,141 -12,-16 c -1.7,-2.2 -1.2,-5.3 1,-7 2.2,-1.7 5.3,-1.2 7,1 l 12,16 c 1.7,2.2 1.2,5.3 -1,7 -2.2,1.6 -5.4,1.2 -7,-1 z"
           id="path5050"
           inkscape:connector-curvature="0"
           style="fill:#cc291f" />
        <path
           d="m 525.1,141 -12,-16 c -1.7,-2.2 -1.2,-5.3 1,-7 2.2,-1.7 5.3,-1.2 7,1 l 12,16 c 1.7,2.2 1.2,5.3 -1,7 -2.2,1.6 -5.4,1.2 -7,-1 z"
           id="path5052"
           inkscape:connector-curvature="0"
           style="opacity:0.2" />
        <path
           d="m 825.2,69.7 5.4,-19.3 c 0.7,-2.7 3.5,-4.2 6.2,-3.5 2.7,0.7 4.2,3.5 3.5,6.2 l -5.4,19.3 c -0.7,2.7 -3.5,4.2 -6.2,3.5 -2.7,-0.8 -4.3,-3.6 -3.5,-6.2 z"
           id="path5054"
           inkscape:connector-curvature="0"
           style="fill:#cc291f" />
        <path
           d="m 825.2,69.7 5.4,-19.3 c 0.7,-2.7 3.5,-4.2 6.2,-3.5 2.7,0.7 4.2,3.5 3.5,6.2 l -5.4,19.3 c -0.7,2.7 -3.5,4.2 -6.2,3.5 -2.7,-0.8 -4.3,-3.6 -3.5,-6.2 z"
           id="path5056"
           inkscape:connector-curvature="0"
           style="opacity:0.2" />
        <path
           d="M 262.5,690 243,685.5 c -2.7,-0.6 -4.4,-3.3 -3.7,-6 0.6,-2.7 3.3,-4.4 6,-3.7 l 19.5,4.5 c 2.7,0.6 4.4,3.3 3.7,6 -0.6,2.6 -3.3,4.3 -6,3.7 z"
           id="path5058"
           inkscape:connector-curvature="0"
           style="fill:#cc291f" />
        <path
           d="M 262.5,690 243,685.5 c -2.7,-0.6 -4.4,-3.3 -3.7,-6 0.6,-2.7 3.3,-4.4 6,-3.7 l 19.5,4.5 c 2.7,0.6 4.4,3.3 3.7,6 -0.6,2.6 -3.3,4.3 -6,3.7 z"
           id="path5060"
           inkscape:connector-curvature="0"
           style="opacity:0.2" />
        <path
           d="m 204,893 -4,2 v 56 l 71,120 4,-2 v -56 z"
           id="path5062"
           inkscape:connector-curvature="0"
           style="fill:#ff9900" />
        <path
           d="m 200,951 v -56 l 71,120 v 56 z"
           id="path5064"
           inkscape:connector-curvature="0"
           style="opacity:0.11000001" />
        <path
           d="m 275,1069 v -56 l -4,2 v 56 z"
           id="path5066"
           inkscape:connector-curvature="0"
           style="opacity:0.28999999" />
        <path
           d="m 280,1084.5 c -4.7,0 -8.5,1.9 -8.5,4.3 l -6.5,8.8 c 0,4.1 6.7,7.5 15,7.5 8.3,0 15,-3.4 15,-7.5 l -6.5,-8.8 c 0,-2.4 -3.8,-4.3 -8.5,-4.3 z"
           id="path5068"
           inkscape:connector-curvature="0"
           style="fill:#999999" />
        <path
           d="m 280,1093 c -4.7,0 -8.5,-1.9 -8.5,-4.3 l -6.5,8.8 c 0,4.1 6.7,7.5 15,7.5 8.3,0 15,-3.4 15,-7.5 l -6.5,-8.8 c 0,2.4 -3.8,4.3 -8.5,4.3 z"
           id="path5070"
           inkscape:connector-curvature="0"
           style="opacity:0.3" />
        <path
           d="m 280,1070.8 c -2.8,0 -5,1.1 -5,2.5 v 15 c 0,1.4 2.2,2.5 5,2.5 2.8,0 5,-1.1 5,-2.5 v -15 c 0,-1.4 -2.2,-2.5 -5,-2.5 z"
           id="path5072"
           inkscape:connector-curvature="0"
           style="fill:#999999" />
        <path
           d="m 280,1075.8 c -2.8,0 -5,-1.1 -5,-2.5 v 15 c 0,1.4 2.2,2.5 5,2.5 2.8,0 5,-1.1 5,-2.5 v -15 c 0,1.3 -2.2,2.5 -5,2.5 z"
           id="path5074"
           inkscape:connector-curvature="0"
           style="opacity:0.3" />
        <path
           d="m 280,997.8 c -5.5,0 -10,2.2 -10,5 v 70 c 0,2.8 4.5,5 10,5 5.5,0 10,-2.2 10,-5 v -70 c 0,-2.8 -4.5,-5 -10,-5 z"
           id="path5076"
           inkscape:connector-curvature="0"
           style="fill:#ff9900" />
        <path
           d="m 280,1007.8 c -5.5,0 -10,-2.2 -10,-5 v 70 c 0,2.8 4.5,5 10,5 5.5,0 10,-2.2 10,-5 v -70 c 0,2.7 -4.5,5 -10,5 z"
           id="path5078"
           inkscape:connector-curvature="0"
           style="opacity:0.3" />
      </g>
    </g>
  </g>
  <g
     id="selection-layer"
     transform="matrix(0.65975396,0,0,0.65975396,-221.58856,153.74316)" />
</svg>
