<?xml version="1.0" encoding="UTF-8" standalone="no"?>
<!-- Created with Inkscape (http://www.inkscape.org/) -->

<svg
   xmlns:dc="http://purl.org/dc/elements/1.1/"
   xmlns:cc="http://creativecommons.org/ns#"
   xmlns:rdf="http://www.w3.org/1999/02/22-rdf-syntax-ns#"
   xmlns:svg="http://www.w3.org/2000/svg"
   xmlns="http://www.w3.org/2000/svg"
   xmlns:sodipodi="http://sodipodi.sourceforge.net/DTD/sodipodi-0.dtd"
   xmlns:inkscape="http://www.inkscape.org/namespaces/inkscape"
   width="23.49239mm"
   height="18.774784mm"
   viewBox="0 0 23.49239 18.774784"
   version="1.1"
   id="svg581"
   inkscape:version="0.92.2 (5c3e80d, 2017-08-06)"
   sodipodi:docname="concrete-6.svg">
  <defs
     id="defs575" />
  <sodipodi:namedview
     id="base"
     pagecolor="#ffffff"
     bordercolor="#666666"
     borderopacity="1.0"
     inkscape:pageopacity="0.0"
     inkscape:pageshadow="2"
     inkscape:zoom="2.3306806"
     inkscape:cx="-49.964077"
     inkscape:cy="-82.373477"
     inkscape:document-units="mm"
     inkscape:current-layer="svg581"
     showgrid="false"
     inkscape:window-width="1360"
     inkscape:window-height="706"
     inkscape:window-x="-8"
     inkscape:window-y="-8"
     inkscape:window-maximized="1"
     fit-margin-top="0"
     fit-margin-left="0"
     fit-margin-right="0"
     fit-margin-bottom="0" />
  <metadata
     id="metadata578">
    <rdf:RDF>
      <cc:Work
         rdf:about="">
        <dc:format>image/svg+xml</dc:format>
        <dc:type
           rdf:resource="http://purl.org/dc/dcmitype/StillImage" />
        <dc:title></dc:title>
      </cc:Work>
    </rdf:RDF>
  </metadata>
  <g
     inkscape:label="Layer 1"
     inkscape:groupmode="layer"
     id="layer1"
     transform="translate(-446.94088,97.302691)" />
  <g
     id="i377"
     class="top-level-node"
     transform="matrix(0.04063806,0,0,0.04063806,-1.9547457,-1.6255224)">
    <g
       id="g3987">
      <g
         id="g3985">
        <path
           d="m 200,126 c -5.5,0 -10,2.2 -10,5 v 70 c 0,2.8 4.5,5 10,5 5.5,0 10,-2.2 10,-5 v -70 c 0,-2.8 -4.5,-5 -10,-5 z"
           id="path3607"
           inkscape:connector-curvature="0"
           style="fill:#ff9900" />
        <path
           d="m 200,136 c -5.5,0 -10,-2.2 -10,-5 v 70 c 0,2.8 4.5,5 10,5 5.5,0 10,-2.2 10,-5 v -70 c 0,2.8 -4.5,5 -10,5 z"
           id="path3609"
           inkscape:connector-curvature="0"
           style="opacity:0.3" />
        <path
           d="m 207,136 -4,2 v 56 l 210,105 4,-2 v -56 z"
           id="path3611"
           inkscape:connector-curvature="0"
           style="fill:#ff9900" />
        <path
           d="m 203,194 v -56 l 210,105 v 56 z"
           id="path3613"
           inkscape:connector-curvature="0"
           style="opacity:0.11000001" />
        <path
           d="m 417,297 v -56 l -4,2 v 56 z"
           id="path3615"
           inkscape:connector-curvature="0"
           style="opacity:0.28999999" />
        <path
           d="m 420,239 c -5.5,0 -10,2.2 -10,5 v 70 c 0,2.8 4.5,5 10,5 5.5,0 10,-2.2 10,-5 v -70 c 0,-2.8 -4.5,-5 -10,-5 z"
           id="path3617"
           inkscape:connector-curvature="0"
           style="fill:#ff9900" />
        <path
           d="m 420,249 c -5.5,0 -10,-2.2 -10,-5 v 70 c 0,2.8 4.5,5 10,5 5.5,0 10,-2.2 10,-5 v -70 c 0,2.8 -4.5,5 -10,5 z"
           id="path3619"
           inkscape:connector-curvature="0"
           style="opacity:0.3" />
        <path
           d="m 431,266 -4,2 v 38 l 78,39 4,-2 v -38 z"
           id="path3621"
           inkscape:connector-curvature="0"
           style="fill:#ff9900" />
        <path
           d="m 427,306 v -38 l 78,39 v 38 z"
           id="path3623"
           inkscape:connector-curvature="0"
           style="opacity:0.11000001" />
        <path
           d="m 509,343 v -38 l -4,2 v 38 z"
           id="path3625"
           inkscape:connector-curvature="0"
           style="opacity:0.28999999" />
        <path
           d="m 431,248 -4,2 v 16 l 78,39 4,-2 v -16 z"
           id="path3627"
           inkscape:connector-curvature="0"
           style="fill:#ff9900" />
        <path
           d="m 427,266 v -16 l 78,39 v 16 z"
           id="path3629"
           inkscape:connector-curvature="0"
           style="opacity:0.11000001" />
        <path
           d="m 509,303 v -16 l -4,2 v 16 z"
           id="path3631"
           inkscape:connector-curvature="0"
           style="opacity:0.28999999" />
        <path
           d="M 160,163 60,213 v 34 l 40,20 100,-50 v -47 z"
           id="path3633"
           inkscape:connector-curvature="0"
           style="fill:#999999" />
        <path
           d="m 60,247 v -34 l 40,7 v 47 z"
           id="path3635"
           inkscape:connector-curvature="0"
           style="opacity:0.11000001" />
        <path
           d="m 200,217 v -47 l -100,50 v 47 z"
           id="path3637"
           inkscape:connector-curvature="0"
           style="opacity:0.28999999" />
        <path
           d="m 160,188 v -21 l -90,45 32,5 z"
           id="path3639"
           inkscape:connector-curvature="0"
           style="opacity:0.28999999" />
        <path
           d="M 128,332 269,262 608,432 468,502 Z"
           id="path3641"
           inkscape:connector-curvature="0"
           style="opacity:0.3" />
        <path
           d="m 139,283 36,-18 -12,20 -36,18 z"
           id="path3643"
           inkscape:connector-curvature="0"
           style="fill:#2d3134" />
        <path
           d="m 139,283 36,-18 -12,20 -36,18 z"
           id="path3645"
           inkscape:connector-curvature="0"
           style="opacity:0.28999999" />
        <path
           d="m 193.4,275.6 c -7.5,-3.7 -14.2,-4.2 -19.2,-1.9 l -14,7 c -5.4,2.4 -8.8,7.9 -8.8,15.9 0,15.5 12.5,34.3 28,42 7.6,3.8 14.6,4.2 19.6,1.8 0,0 13.9,-6.9 15.1,-7.6 4.5,-2.7 7.3,-7.9 7.3,-15.2 0,-15.4 -12.6,-34.2 -28,-42 z"
           id="path3647"
           inkscape:connector-curvature="0"
           style="fill:#2d3134" />
        <path
           d="m 199.3,340.2 c 2,-1 13.7,-6.8 14.8,-7.5 4.5,-2.7 7.3,-7.9 7.3,-15.2 0,-6.2 -2.1,-13 -5.5,-19.3 l -14,7 c 3.4,6.4 5.5,13.1 5.5,19.3 0,7.8 -3.1,13.2 -8.1,15.7 z"
           id="path3649"
           inkscape:connector-curvature="0"
           style="opacity:0.28999999" />
        <path
           d="m 197.3,319.4 c 0,9.9 -8,13.9 -17.9,8.9 -9.9,-4.9 -17.9,-17 -17.9,-26.8 0,-9.8 8,-13.9 17.9,-8.9 9.9,5 17.9,16.9 17.9,26.8 z"
           id="path3651"
           inkscape:connector-curvature="0"
           style="fill:#999999" />
        <path
           d="m 180.9,327.7 c -9.9,-4.9 -17.9,-17 -17.9,-26.8 0,-4.9 1.9,-8.3 5.1,-9.9 -4,1.3 -6.6,5 -6.6,10.6 0,9.9 8,21.9 17.9,26.8 5,2.5 9.6,2.7 12.8,1 -3.1,0.9 -7,0.4 -11.3,-1.7 z"
           id="path3653"
           inkscape:connector-curvature="0"
           style="opacity:0.15" />
        <path
           d="m 188.3,313.6 c 0,4.1 -3.3,5.8 -7.5,3.7 -4.1,-2.1 -7.5,-7.1 -7.5,-11.2 0,-4.1 3.3,-5.8 7.5,-3.7 4.2,2 7.5,7 7.5,11.2 z"
           id="path3655"
           inkscape:connector-curvature="0"
           style="fill:#2d3134" />
        <path
           d="m 188.3,313.6 c 0,4.1 -3.3,5.8 -7.5,3.7 -4.1,-2.1 -7.5,-7.1 -7.5,-11.2 0,-4.1 3.3,-5.8 7.5,-3.7 4.2,2 7.5,7 7.5,11.2 z"
           id="path3657"
           inkscape:connector-curvature="0"
           style="opacity:0.28999999" />
        <path
           d="m 186.8,314.3 c 0,4.1 -3.3,5.8 -7.5,3.7 -4.1,-2.1 -7.5,-7.1 -7.5,-11.2 0,-4.1 3.3,-5.8 7.5,-3.7 4.2,2 7.5,7 7.5,11.2 z"
           id="path3659"
           inkscape:connector-curvature="0"
           style="fill:#2d3134" />
        <path
           d="m 207.4,324.6 c 0,15.5 -12.5,21.7 -28,14 -15.5,-7.7 -28,-26.5 -28,-42 0,-15.5 12.5,-21.7 28,-14 15.4,7.8 28,26.6 28,42 z"
           id="path3661"
           inkscape:connector-curvature="0"
           style="opacity:0.11000001" />
        <path
           d="m 174,285.1 c -7.5,-3.7 -14.2,-4.2 -19.2,-1.9 l -14,7 c -5.4,2.4 -8.8,7.9 -8.8,15.9 0,15.5 12.5,34.3 28,42 7.6,3.8 14.6,4.2 19.6,1.8 0,0 13.9,-6.9 15.1,-7.6 4.5,-2.7 7.3,-7.9 7.3,-15.2 0,-15.5 -12.5,-34.3 -28,-42 z"
           id="path3663"
           inkscape:connector-curvature="0"
           style="fill:#2d3134" />
        <path
           d="m 179.9,349.7 c 2,-1 13.7,-6.8 14.8,-7.5 4.5,-2.7 7.3,-7.9 7.3,-15.2 0,-6.2 -2.1,-13 -5.5,-19.3 l -14,7 c 3.4,6.4 5.5,13.1 5.5,19.3 0,7.7 -3.1,13.1 -8.1,15.7 z"
           id="path3665"
           inkscape:connector-curvature="0"
           style="opacity:0.28999999" />
        <path
           d="m 177.9,328.8 c 0,9.9 -8,13.9 -17.9,8.9 -9.9,-4.9 -17.9,-17 -17.9,-26.8 0,-9.8 8,-13.9 17.9,-8.9 9.9,5 17.9,17 17.9,26.8 z"
           id="path3667"
           inkscape:connector-curvature="0"
           style="fill:#999999" />
        <path
           d="m 161.5,337.2 c -9.9,-4.9 -17.9,-17 -17.9,-26.8 0,-4.9 1.9,-8.3 5.1,-9.9 -4,1.3 -6.6,5 -6.6,10.6 0,9.9 8,21.9 17.9,26.8 5,2.5 9.6,2.7 12.8,1 -3.1,0.9 -7,0.4 -11.3,-1.7 z"
           id="path3669"
           inkscape:connector-curvature="0"
           style="opacity:0.15" />
        <path
           d="m 168.9,323 c 0,4.1 -3.3,5.8 -7.5,3.7 -4.1,-2.1 -7.5,-7.1 -7.5,-11.2 0,-4.1 3.3,-5.8 7.5,-3.7 4.2,2.1 7.5,7.1 7.5,11.2 z"
           id="path3671"
           inkscape:connector-curvature="0"
           style="fill:#2d3134" />
        <path
           d="m 168.9,323 c 0,4.1 -3.3,5.8 -7.5,3.7 -4.1,-2.1 -7.5,-7.1 -7.5,-11.2 0,-4.1 3.3,-5.8 7.5,-3.7 4.2,2.1 7.5,7.1 7.5,11.2 z"
           id="path3673"
           inkscape:connector-curvature="0"
           style="opacity:0.28999999" />
        <path
           d="m 167.5,323.7 c 0,4.1 -3.3,5.8 -7.5,3.7 -4.1,-2.1 -7.5,-7.1 -7.5,-11.2 0,-4.1 3.3,-5.8 7.5,-3.7 4.2,2.1 7.5,7.1 7.5,11.2 z"
           id="path3675"
           inkscape:connector-curvature="0"
           style="fill:#2d3134" />
        <path
           d="m 188,334.1 c 0,15.5 -12.5,21.7 -28,14 -15.5,-7.7 -28,-26.5 -28,-42 0,-15.5 12.5,-21.7 28,-14 15.5,7.7 28,26.5 28,42 z"
           id="path3677"
           inkscape:connector-curvature="0"
           style="opacity:0.11000001" />
        <path
           d="m 139,283 36,-18 36,18 -36,18 z"
           id="path3679"
           inkscape:connector-curvature="0"
           style="fill:#2d3134" />
        <path
           d="m 189,326 36,-18 -14,-25 -36,18 z"
           id="path3681"
           inkscape:connector-curvature="0"
           style="fill:#2d3134" />
        <path
           d="m 189,326 36,-18 -14,-25 -36,18 z"
           id="path3683"
           inkscape:connector-curvature="0"
           style="opacity:0.28999999" />
        <path
           d="m 197,312 36,-18 -12,20 -36,18 z"
           id="path3685"
           inkscape:connector-curvature="0"
           style="fill:#2d3134" />
        <path
           d="m 197,312 36,-18 -12,20 -36,18 z"
           id="path3687"
           inkscape:connector-curvature="0"
           style="opacity:0.28999999" />
        <path
           d="m 251.4,304.6 c -7.5,-3.7 -14.2,-4.2 -19.2,-1.9 l -14,7 c -5.4,2.4 -8.8,7.9 -8.8,15.9 0,15.5 12.5,34.3 28,42 7.6,3.8 14.6,4.2 19.6,1.8 0,0 13.9,-6.9 15.1,-7.6 4.5,-2.7 7.3,-7.9 7.3,-15.2 0,-15.4 -12.6,-34.2 -28,-42 z"
           id="path3689"
           inkscape:connector-curvature="0"
           style="fill:#2d3134" />
        <path
           d="m 257.3,369.2 c 2,-1 13.7,-6.8 14.8,-7.5 4.5,-2.7 7.3,-7.9 7.3,-15.2 0,-6.2 -2.1,-13 -5.5,-19.3 l -14,7 c 3.4,6.4 5.5,13.1 5.5,19.3 0,7.8 -3.1,13.2 -8.1,15.7 z"
           id="path3691"
           inkscape:connector-curvature="0"
           style="opacity:0.28999999" />
        <path
           d="m 255.3,348.4 c 0,9.9 -8,13.9 -17.9,8.9 -9.9,-4.9 -17.9,-17 -17.9,-26.8 0,-9.8 8,-13.9 17.9,-8.9 9.9,5 17.9,16.9 17.9,26.8 z"
           id="path3693"
           inkscape:connector-curvature="0"
           style="fill:#999999" />
        <path
           d="m 238.9,356.7 c -9.9,-4.9 -17.9,-17 -17.9,-26.8 0,-4.9 1.9,-8.3 5.1,-9.9 -4,1.3 -6.6,5 -6.6,10.6 0,9.9 8,21.9 17.9,26.8 5,2.5 9.6,2.7 12.8,1 -3.1,0.9 -7,0.4 -11.3,-1.7 z"
           id="path3695"
           inkscape:connector-curvature="0"
           style="opacity:0.15" />
        <path
           d="m 246.3,342.6 c 0,4.1 -3.3,5.8 -7.5,3.7 -4.1,-2.1 -7.5,-7.1 -7.5,-11.2 0,-4.1 3.3,-5.8 7.5,-3.7 4.2,2 7.5,7 7.5,11.2 z"
           id="path3697"
           inkscape:connector-curvature="0"
           style="fill:#2d3134" />
        <path
           d="m 246.3,342.6 c 0,4.1 -3.3,5.8 -7.5,3.7 -4.1,-2.1 -7.5,-7.1 -7.5,-11.2 0,-4.1 3.3,-5.8 7.5,-3.7 4.2,2 7.5,7 7.5,11.2 z"
           id="path3699"
           inkscape:connector-curvature="0"
           style="opacity:0.28999999" />
        <path
           d="m 244.8,343.3 c 0,4.1 -3.3,5.8 -7.5,3.7 -4.1,-2.1 -7.5,-7.1 -7.5,-11.2 0,-4.1 3.3,-5.8 7.5,-3.7 4.2,2 7.5,7 7.5,11.2 z"
           id="path3701"
           inkscape:connector-curvature="0"
           style="fill:#2d3134" />
        <path
           d="m 265.4,353.6 c 0,15.5 -12.5,21.7 -28,14 -15.5,-7.7 -28,-26.5 -28,-42 0,-15.5 12.5,-21.7 28,-14 15.4,7.8 28,26.6 28,42 z"
           id="path3703"
           inkscape:connector-curvature="0"
           style="opacity:0.11000001" />
        <path
           d="m 232,314.1 c -7.5,-3.7 -14.2,-4.2 -19.2,-1.9 l -14,7 c -5.4,2.4 -8.8,7.9 -8.8,15.9 0,15.5 12.5,34.3 28,42 7.6,3.8 14.6,4.2 19.6,1.8 0,0 13.9,-6.9 15.1,-7.6 4.5,-2.7 7.3,-7.9 7.3,-15.2 0,-15.5 -12.5,-34.3 -28,-42 z"
           id="path3705"
           inkscape:connector-curvature="0"
           style="fill:#2d3134" />
        <path
           d="m 237.9,378.7 c 2,-1 13.7,-6.8 14.8,-7.5 4.5,-2.7 7.3,-7.9 7.3,-15.2 0,-6.2 -2.1,-13 -5.5,-19.3 l -14,7 c 3.4,6.4 5.5,13.1 5.5,19.3 0,7.7 -3.1,13.1 -8.1,15.7 z"
           id="path3707"
           inkscape:connector-curvature="0"
           style="opacity:0.28999999" />
        <path
           d="m 235.9,357.8 c 0,9.9 -8,13.9 -17.9,8.9 -9.9,-4.9 -17.9,-17 -17.9,-26.8 0,-9.8 8,-13.9 17.9,-8.9 9.9,5 17.9,17 17.9,26.8 z"
           id="path3709"
           inkscape:connector-curvature="0"
           style="fill:#999999" />
        <path
           d="m 219.5,366.2 c -9.9,-4.9 -17.9,-17 -17.9,-26.8 0,-4.9 1.9,-8.3 5.1,-9.9 -4,1.3 -6.6,5 -6.6,10.6 0,9.9 8,21.9 17.9,26.8 5,2.5 9.6,2.7 12.8,1 -3.1,0.9 -7,0.4 -11.3,-1.7 z"
           id="path3711"
           inkscape:connector-curvature="0"
           style="opacity:0.15" />
        <path
           d="m 226.9,352 c 0,4.1 -3.3,5.8 -7.5,3.7 -4.1,-2.1 -7.5,-7.1 -7.5,-11.2 0,-4.1 3.3,-5.8 7.5,-3.7 4.2,2.1 7.5,7.1 7.5,11.2 z"
           id="path3713"
           inkscape:connector-curvature="0"
           style="fill:#2d3134" />
        <path
           d="m 226.9,352 c 0,4.1 -3.3,5.8 -7.5,3.7 -4.1,-2.1 -7.5,-7.1 -7.5,-11.2 0,-4.1 3.3,-5.8 7.5,-3.7 4.2,2.1 7.5,7.1 7.5,11.2 z"
           id="path3715"
           inkscape:connector-curvature="0"
           style="opacity:0.28999999" />
        <path
           d="m 225.5,352.7 c 0,4.1 -3.3,5.8 -7.5,3.7 -4.1,-2.1 -7.5,-7.1 -7.5,-11.2 0,-4.1 3.3,-5.8 7.5,-3.7 4.2,2.1 7.5,7.1 7.5,11.2 z"
           id="path3717"
           inkscape:connector-curvature="0"
           style="fill:#2d3134" />
        <path
           d="m 246,363.1 c 0,15.5 -12.5,21.7 -28,14 -15.5,-7.7 -28,-26.5 -28,-42 0,-15.5 12.5,-21.7 28,-14 15.5,7.7 28,26.5 28,42 z"
           id="path3719"
           inkscape:connector-curvature="0"
           style="opacity:0.11000001" />
        <path
           d="m 197,312 36,-18 36,18 -36,18 z"
           id="path3721"
           inkscape:connector-curvature="0"
           style="fill:#2d3134" />
        <path
           d="m 247,355 36,-18 -14,-25 -36,18 z"
           id="path3723"
           inkscape:connector-curvature="0"
           style="fill:#2d3134" />
        <path
           d="m 247,355 36,-18 -14,-25 -36,18 z"
           id="path3725"
           inkscape:connector-curvature="0"
           style="opacity:0.28999999" />
        <path
           d="m 272,323 -20,10 v 27 l 52,26 20,-10 v -27 z"
           id="path3727"
           inkscape:connector-curvature="0"
           style="fill:#999999" />
        <path
           d="m 286,330 -4,-2 -20,10 v 27 l 4,2 v -27 z"
           id="path3729"
           inkscape:connector-curvature="0"
           style="fill:#2d3134" />
        <path
           d="m 314,344 -4,-2 -20,10 v 27 l 4,2 v -27 z"
           id="path3731"
           inkscape:connector-curvature="0"
           style="fill:#2d3134" />
        <path
           d="m 324,349 v 27 l -20,10 v -27 z"
           id="path3733"
           inkscape:connector-curvature="0"
           style="opacity:0.28999999" />
        <path
           d="m 252,333 v 27 l 52,26 v -27 z"
           id="path3735"
           inkscape:connector-curvature="0"
           style="opacity:0.11000001" />
        <path
           d="m 377,311 -72,36 v 47 l 48,24 72,-36 v -47 z"
           id="path3737"
           inkscape:connector-curvature="0"
           style="fill:#2d3134" />
        <path
           d="m 305,347 v 47 l 48,24 v -47 z"
           id="path3739"
           inkscape:connector-curvature="0"
           style="opacity:0.11000001" />
        <path
           d="m 425,335 v 47 l -72,36 v -47 z"
           id="path3741"
           inkscape:connector-curvature="0"
           style="opacity:0.28999999" />
        <path
           d="M 206,166 70,234 v 10 l 318,159 136,-68 v -10 z"
           id="path3743"
           inkscape:connector-curvature="0"
           style="fill:#2d3134" />
        <path
           d="m 70,244 v -10 l 318,159 v 10 z"
           id="path3745"
           inkscape:connector-curvature="0"
           style="opacity:0.11000001" />
        <path
           d="m 524,335 v -10 l -136,68 v 10 z"
           id="path3747"
           inkscape:connector-curvature="0"
           style="opacity:0.28999999" />
        <path
           d="m 428.5,268.9 c -26.8,0 -48.5,10.8 -48.5,24.2 v 40.7 c 0,13.4 21.7,24.2 48.5,24.2 26.8,0 48.5,-10.8 48.5,-24.2 v -40.7 c 0,-13.4 -21.7,-24.2 -48.5,-24.2 z"
           id="path3749"
           inkscape:connector-curvature="0"
           style="fill:#ff9900" />
        <path
           d="m 428.5,317.3 c -26.8,0 -48.5,-10.8 -48.5,-24.2 v 40.7 c 0,13.4 21.7,24.2 48.5,24.2 26.8,0 48.5,-10.8 48.5,-24.2 v -40.7 c 0,13.4 -21.7,24.2 -48.5,24.2 z"
           id="path3751"
           inkscape:connector-curvature="0"
           style="opacity:0.3" />
        <path
           d="m 428.5,261 c -29,0 -52.5,11.8 -52.5,26.3 v 10.5 c 0,14.5 23.5,26.3 52.5,26.3 29,0 52.5,-11.8 52.5,-26.3 V 287.3 C 481,272.8 457.5,261 428.5,261 Z"
           id="path3753"
           inkscape:connector-curvature="0"
           style="fill:#ff9900" />
        <path
           d="m 428.5,313.5 c -29,0 -52.5,-11.8 -52.5,-26.3 v 10.5 c 0,14.5 23.5,26.3 52.5,26.3 29,0 52.5,-11.8 52.5,-26.3 v -10.5 c 0,14.5 -23.5,26.3 -52.5,26.3 z"
           id="path3755"
           inkscape:connector-curvature="0"
           style="opacity:0.2" />
        <path
           d="m 428.5,206.8 c -13.4,0 -24.2,5.4 -24.2,12.1 L 380,283.6 c 0,13.4 21.7,24.2 48.5,24.2 26.8,0 48.5,-10.8 48.5,-24.2 l -24.2,-64.7 c -0.1,-6.7 -10.9,-12.1 -24.3,-12.1 z"
           id="path3757"
           inkscape:connector-curvature="0"
           style="fill:#ff9900" />
        <path
           d="m 428.5,231 c -13.4,0 -24.2,-5.4 -24.2,-12.1 L 380,283.6 c 0,13.4 21.7,24.2 48.5,24.2 26.8,0 48.5,-10.8 48.5,-24.2 l -24.2,-64.7 c -0.1,6.7 -10.9,12.1 -24.3,12.1 z"
           id="path3759"
           inkscape:connector-curvature="0"
           style="opacity:0.3" />
        <path
           d="m 163,213 -10,5 v 30 l 10,5 10,-5 v -30 z"
           id="path3761"
           inkscape:connector-curvature="0"
           style="fill:#999999" />
        <path
           d="m 153,248 v -30 l 10,5 v 30 z"
           id="path3763"
           inkscape:connector-curvature="0"
           style="opacity:0.11000001" />
        <path
           d="m 173,248 v -30 l -10,5 v 30 z"
           id="path3765"
           inkscape:connector-curvature="0"
           style="opacity:0.28999999" />
        <path
           d="m 223,243 -10,5 v 30 l 10,5 10,-5 v -30 z"
           id="path3767"
           inkscape:connector-curvature="0"
           style="fill:#999999" />
        <path
           d="m 213,278 v -30 l 10,5 v 30 z"
           id="path3769"
           inkscape:connector-curvature="0"
           style="opacity:0.11000001" />
        <path
           d="m 233,278 v -30 l -10,5 v 30 z"
           id="path3771"
           inkscape:connector-curvature="0"
           style="opacity:0.28999999" />
        <path
           d="m 283,273 -10,5 v 30 l 10,5 10,-5 v -30 z"
           id="path3773"
           inkscape:connector-curvature="0"
           style="fill:#999999" />
        <path
           d="m 273,308 v -30 l 10,5 v 30 z"
           id="path3775"
           inkscape:connector-curvature="0"
           style="opacity:0.11000001" />
        <path
           d="m 293,308 v -30 l -10,5 v 30 z"
           id="path3777"
           inkscape:connector-curvature="0"
           style="opacity:0.28999999" />
        <path
           d="m 130,130 -20,10 v 20 l 242,121 20,-10 v -20 z"
           id="path3779"
           inkscape:connector-curvature="0"
           style="fill:#ff9900" />
        <path
           d="m 110,160 v -20 l 242,121 v 20 z"
           id="path3781"
           inkscape:connector-curvature="0"
           style="opacity:0.11000001" />
        <path
           d="m 372,271 v -20 l -20,10 v 20 z"
           id="path3783"
           inkscape:connector-curvature="0"
           style="opacity:0.28999999" />
        <path
           d="m 130,40 -20,10 v 20 l 242,211 20,-10 v -20 z"
           id="path3785"
           inkscape:connector-curvature="0"
           style="fill:#ff9900" />
        <path
           d="M 110,70 V 50 l 242,211 v 20 z"
           id="path3787"
           inkscape:connector-curvature="0"
           style="opacity:0.11000001" />
        <path
           d="m 372,271 v -20 l -20,10 v 20 z"
           id="path3789"
           inkscape:connector-curvature="0"
           style="opacity:0.28999999" />
        <path
           d="m 130,40 -20,10 v 20 l 320,160 20,-10 v -20 z"
           id="path3791"
           inkscape:connector-curvature="0"
           style="fill:#ff9900" />
        <path
           d="M 110,70 V 50 l 320,160 v 20 z"
           id="path3793"
           inkscape:connector-curvature="0"
           style="opacity:0.11000001" />
        <path
           d="m 450,220 v -20 l -20,10 v 20 z"
           id="path3795"
           inkscape:connector-curvature="0"
           style="opacity:0.28999999" />
        <path
           d="m 429,219.1 c 0,5.2 -4.3,7.4 -9.5,4.7 -5.2,-2.6 -9.5,-9 -9.5,-14.3 0,-5.3 4.3,-7.4 9.5,-4.7 5.2,2.7 9.5,9.1 9.5,14.3 z"
           id="path3797"
           inkscape:connector-curvature="0"
           style="fill:#2d3134" />
        <path
           d="m 394,342 c -1.2,0 -2.4,-0.3 -3.6,-0.8 L 124.2,208 c -1.5,-0.7 -3.2,-0.8 -4.7,-0.1 l -60.1,27.3 c -4,1.8 -8.8,0 -10.6,-4 -1.8,-4 0,-8.8 4,-10.6 l 60.1,-27.3 c 5.9,-2.7 12.7,-2.6 18.5,0.3 l 266.2,133.1 c 4,2 5.6,6.8 3.6,10.7 -1.4,3 -4.3,4.6 -7.2,4.6 z"
           id="path3799"
           inkscape:connector-curvature="0"
           style="fill:#ff9900" />
        <path
           d="m 394,335 c -0.5,0 -0.9,-0.1 -1.3,-0.3 L 126.4,201.6 c -2.8,-1.4 -6.1,-1.5 -9,-0.2 l -60.1,27.3 c -1.5,0.7 -3.3,0 -4,-1.5 -0.7,-1.5 0,-3.3 1.5,-4 l 60.1,-27.3 c 4.6,-2.1 9.7,-2 14.2,0.3 l 266.2,133.1 c 1.5,0.7 2.1,2.5 1.3,4 -0.4,1.1 -1.5,1.7 -2.6,1.7 z"
           id="path3801"
           inkscape:connector-curvature="0"
           style="opacity:0.2;fill:#ffffff" />
        <path
           d="m 80,256 c -4.7,0 -8.5,1.9 -8.5,4.3 L 65,269 c 0,4.1 6.7,7.5 15,7.5 8.3,0 15,-3.4 15,-7.5 l -6.5,-8.8 c 0,-2.3 -3.8,-4.2 -8.5,-4.2 z"
           id="path3803"
           inkscape:connector-curvature="0"
           style="fill:#999999" />
        <path
           d="m 80,264.5 c -4.7,0 -8.5,-1.9 -8.5,-4.3 L 65,269 c 0,4.1 6.7,7.5 15,7.5 8.3,0 15,-3.4 15,-7.5 l -6.5,-8.8 c 0,2.4 -3.8,4.3 -8.5,4.3 z"
           id="path3805"
           inkscape:connector-curvature="0"
           style="opacity:0.3" />
        <path
           d="m 80,186 c -5.5,0 -10,2.2 -10,5 v 70 c 0,2.8 4.5,5 10,5 5.5,0 10,-2.2 10,-5 v -70 c 0,-2.8 -4.5,-5 -10,-5 z"
           id="path3807"
           inkscape:connector-curvature="0"
           style="fill:#ff9900" />
        <path
           d="m 80,196 c -5.5,0 -10,-2.2 -10,-5 v 70 c 0,2.8 4.5,5 10,5 5.5,0 10,-2.2 10,-5 v -70 c 0,2.8 -4.5,5 -10,5 z"
           id="path3809"
           inkscape:connector-curvature="0"
           style="opacity:0.3" />
        <path
           d="m 87,196 -4,2 v 56 l 210,105 4,-2 v -56 z"
           id="path3811"
           inkscape:connector-curvature="0"
           style="fill:#ff9900" />
        <path
           d="m 83,254 v -56 l 210,105 v 56 z"
           id="path3813"
           inkscape:connector-curvature="0"
           style="opacity:0.11000001" />
        <path
           d="m 297,357 v -56 l -4,2 v 56 z"
           id="path3815"
           inkscape:connector-curvature="0"
           style="opacity:0.28999999" />
        <path
           d="m 300,369 c -4.7,0 -8.5,1.9 -8.5,4.3 L 285,382 c 0,4.1 6.7,7.5 15,7.5 8.3,0 15,-3.4 15,-7.5 l -6.5,-8.8 c 0,-2.3 -3.8,-4.2 -8.5,-4.2 z"
           id="path3817"
           inkscape:connector-curvature="0"
           style="fill:#999999" />
        <path
           d="m 300,377.5 c -4.7,0 -8.5,-1.9 -8.5,-4.3 L 285,382 c 0,4.1 6.7,7.5 15,7.5 8.3,0 15,-3.4 15,-7.5 l -6.5,-8.8 c 0,2.4 -3.8,4.3 -8.5,4.3 z"
           id="path3819"
           inkscape:connector-curvature="0"
           style="opacity:0.3" />
        <path
           d="m 300,299 c -5.5,0 -10,2.2 -10,5 v 70 c 0,2.8 4.5,5 10,5 5.5,0 10,-2.2 10,-5 v -70 c 0,-2.8 -4.5,-5 -10,-5 z"
           id="path3821"
           inkscape:connector-curvature="0"
           style="fill:#ff9900" />
        <path
           d="m 300,309 c -5.5,0 -10,-2.2 -10,-5 v 70 c 0,2.8 4.5,5 10,5 5.5,0 10,-2.2 10,-5 v -70 c 0,2.8 -4.5,5 -10,5 z"
           id="path3823"
           inkscape:connector-curvature="0"
           style="opacity:0.3" />
        <path
           d="m 311,326 -4,2 v 38 l 78,39 4,-2 v -38 z"
           id="path3825"
           inkscape:connector-curvature="0"
           style="fill:#ff9900" />
        <path
           d="m 307,366 v -38 l 78,39 v 38 z"
           id="path3827"
           inkscape:connector-curvature="0"
           style="opacity:0.11000001" />
        <path
           d="m 389,403 v -38 l -4,2 v 38 z"
           id="path3829"
           inkscape:connector-curvature="0"
           style="opacity:0.28999999" />
        <path
           d="m 311,308 -4,2 v 16 l 78,39 4,-2 v -16 z"
           id="path3831"
           inkscape:connector-curvature="0"
           style="fill:#ff9900" />
        <path
           d="m 307,326 v -16 l 78,39 v 16 z"
           id="path3833"
           inkscape:connector-curvature="0"
           style="opacity:0.11000001" />
        <path
           d="m 389,363 v -16 l -4,2 v 16 z"
           id="path3835"
           inkscape:connector-curvature="0"
           style="opacity:0.28999999" />
        <path
           d="m 621,313.4 h -1 v -30.7 c 0,-1.1 -0.6,-2.1 -1.5,-2.7 -0.9,-0.6 -2.1,-0.6 -3,-0.1 l -2.3,1.1 -0.4,-0.9 2.3,-1.1 c 1.3,-0.6 2.8,-0.6 4,0.2 1.2,0.8 2,2.1 2,3.5 v 30.7 z"
           id="path3837"
           inkscape:connector-curvature="0"
           style="fill:#2d3134" />
        <path
           d="m 614.7,289 v 20.9 c 0,1.9 2.1,3 3.6,1.9 l 0.5,-0.4 c 2.5,-1.8 4,-4.7 4,-7.7 v -21 c 0,-1.9 -2.2,-3 -3.7,-1.8 l -0.8,0.6 c -2.2,1.8 -3.6,4.6 -3.6,7.5 z"
           id="path3839"
           inkscape:connector-curvature="0"
           style="fill:#2d3134" />
        <path
           d="m 432,414.3 c -7.5,-3.7 -14.2,-4.2 -19.2,-1.9 l -14,7 c -5.4,2.4 -8.8,7.9 -8.8,15.9 0,15.5 12.5,34.3 28,42 7.6,3.8 14.6,4.2 19.6,1.8 0,0 13.9,-6.9 15.1,-7.6 4.5,-2.7 7.3,-7.9 7.3,-15.2 0,-15.5 -12.5,-34.3 -28,-42 z"
           id="path3841"
           inkscape:connector-curvature="0"
           style="fill:#2d3134" />
        <path
           d="m 437.9,478.9 c 2,-1 13.7,-6.8 14.8,-7.5 4.5,-2.7 7.3,-7.9 7.3,-15.2 0,-6.2 -2.1,-13 -5.5,-19.3 l -14,7 c 3.4,6.4 5.5,13.1 5.5,19.3 0,7.8 -3.1,13.1 -8.1,15.7 z"
           id="path3843"
           inkscape:connector-curvature="0"
           style="opacity:0.28999999" />
        <path
           d="m 435.9,458.1 c 0,9.9 -8,13.9 -17.9,8.9 -9.9,-4.9 -17.9,-17 -17.9,-26.8 0,-9.8 8,-13.9 17.9,-8.9 9.9,5 17.9,16.9 17.9,26.8 z"
           id="path3845"
           inkscape:connector-curvature="0"
           style="fill:#999999" />
        <path
           d="m 419.5,466.4 c -9.9,-4.9 -17.9,-17 -17.9,-26.8 0,-4.9 1.9,-8.3 5.1,-9.9 -4,1.3 -6.6,5 -6.6,10.6 0,9.9 8,21.9 17.9,26.8 5,2.5 9.6,2.7 12.8,1 -3.1,0.9 -7,0.4 -11.3,-1.7 z"
           id="path3847"
           inkscape:connector-curvature="0"
           style="opacity:0.15" />
        <path
           d="m 426.9,452.2 c 0,4.1 -3.3,5.8 -7.5,3.7 -4.1,-2.1 -7.5,-7.1 -7.5,-11.2 0,-4.1 3.3,-5.8 7.5,-3.7 4.2,2.1 7.5,7.1 7.5,11.2 z"
           id="path3849"
           inkscape:connector-curvature="0"
           style="fill:#2d3134" />
        <path
           d="m 426.9,452.2 c 0,4.1 -3.3,5.8 -7.5,3.7 -4.1,-2.1 -7.5,-7.1 -7.5,-11.2 0,-4.1 3.3,-5.8 7.5,-3.7 4.2,2.1 7.5,7.1 7.5,11.2 z"
           id="path3851"
           inkscape:connector-curvature="0"
           style="opacity:0.28999999" />
        <path
           d="m 425.5,452.9 c 0,4.1 -3.3,5.8 -7.5,3.7 -4.2,-2.1 -7.5,-7.1 -7.5,-11.2 0,-4.1 3.3,-5.8 7.5,-3.7 4.1,2.1 7.5,7.1 7.5,11.2 z"
           id="path3853"
           inkscape:connector-curvature="0"
           style="fill:#2d3134" />
        <path
           d="m 446,463.3 c 0,15.5 -12.5,21.7 -28,14 -15.5,-7.7 -28,-26.5 -28,-42 0,-15.5 12.5,-21.7 28,-14 15.5,7.7 28,26.5 28,42 z"
           id="path3855"
           inkscape:connector-curvature="0"
           style="opacity:0.11000001" />
        <path
           d="m 626,373 -98,-49 -140,70 v 15 l 18,9 c 0,0 10.4,4.8 13,6 8.6,4.1 16.1,7.8 23.6,16.9 8.6,10.5 12.8,26.5 12.5,36.6 L 486,493 626,423 Z"
           id="path3857"
           inkscape:connector-curvature="0"
           style="fill:#ff9900" />
        <path
           d="m 513.5,330.9 86,-43 c 1.9,-1 4.2,0 4.9,2 l 14.7,44.1 z"
           id="path3859"
           inkscape:connector-curvature="0"
           style="opacity:0.15" />
        <path
           d="m 528,221.3 -140,70 V 392 l 98,49 140,-70 v -15 c 0,-23.7 -3.2,-47.3 -9.5,-70.1 L 610,262.3 Z"
           id="path3861"
           inkscape:connector-curvature="0"
           style="fill:#ff9900" />
        <path
           d="m 491.6,393.3 c -1.5,0 -2.7,-1.1 -2.9,-2.5 -1.6,-12.2 -4.1,-24.4 -7.3,-36.2 l -4.8,-17.3 c -0.4,-1.3 0.3,-2.8 1.5,-3.4 l 125.6,-62.8 c 0.4,-0.2 0.8,-0.3 1.3,-0.3 1.3,0 2.5,0.9 2.8,2.1 l 3.9,14.3 c 3.6,13.2 6.2,26.8 7.7,40.4 0.1,1.2 -0.5,2.4 -1.6,2.9 l -125,62.5 c -0.3,0.2 -0.8,0.3 -1.2,0.3 z"
           id="path3863"
           inkscape:connector-curvature="0"
           style="fill:#656565" />
        <path
           d="m 604.9,271.8 c 0.9,0 1.6,0.6 1.9,1.4 l 3.9,14.3 c 3.6,13.1 6.2,26.7 7.7,40.2 0.1,0.8 -0.3,1.6 -1.1,1.9 l -125,62.5 c -0.3,0.1 -0.6,0.2 -0.9,0.2 -0.8,0 -1.8,-0.6 -1.9,-1.7 -1.6,-12.3 -4.1,-24.5 -7.4,-36.3 L 477.3,337 c -0.2,-0.9 0.2,-1.8 1,-2.2 L 604.1,272 c 0.2,-0.2 0.5,-0.2 0.8,-0.2 m 0,-2 c -0.6,0 -1.2,0.1 -1.7,0.4 L 477.6,333 c -1.7,0.8 -2.5,2.7 -2,4.5 l 4.8,17.3 c 3.3,11.9 5.7,23.9 7.3,36.1 0.3,2 2,3.4 3.9,3.4 0.6,0 1.2,-0.1 1.7,-0.4 l 125,-62.5 c 1.5,-0.7 2.3,-2.3 2.2,-3.9 -1.5,-13.7 -4.1,-27.2 -7.8,-40.5 l -3.9,-14.3 c -0.6,-1.8 -2.2,-2.9 -3.9,-2.9 z"
           id="path3865"
           inkscape:connector-curvature="0"
           style="fill:#2d3134" />
        <path
           d="m 620.4,327.5 c -0.5,-4.3 -0.8,-6.2 -0.4,-2.8 0.2,1.6 -0.7,3.2 -2.2,3.9 l -125,62.5 c -2.2,1.1 -4.8,-0.1 -5.5,-2.3 0.1,0.7 0.2,1.4 0.3,2.1 0.4,2.7 3.2,4.2 5.6,3 l 125,-62.5 c 1.5,-0.7 2.4,-2.3 2.2,-3.9 z"
           id="path3867"
           inkscape:connector-curvature="0"
           style="fill:#2d3134" />
        <path
           d="m 476.3,392.5 c -0.3,0 -0.7,-0.1 -1,-0.2 l -20.2,-10.1 c -2.5,-1.3 -4.1,-3.8 -4.1,-6.7 0,-4.4 -2.4,-8.4 -6.4,-10.3 l -31.2,-15.6 c -0.7,-0.4 -1.2,-1.1 -1.2,-1.9 v -35.1 c 0,-1.3 1.1,-2.2 2.2,-2.2 0.3,0 0.7,0.1 1,0.2 l 45.9,23 c 2.8,1.4 4.9,4 5.8,7 l 4.6,16.6 c 3,10.7 5.2,21.8 6.8,32.8 0.1,0.6 -0.1,1.3 -0.5,1.7 -0.4,0.5 -1,0.8 -1.7,0.8 z"
           id="path3869"
           inkscape:connector-curvature="0"
           style="fill:#656565" />
        <path
           d="m 414.4,311.4 c 0.2,0 0.4,0 0.5,0.1 l 45.9,23 c 2.6,1.3 4.5,3.6 5.3,6.4 l 4.6,16.6 c 2.9,10.7 5.2,21.7 6.8,32.7 0.1,0.4 -0.1,0.8 -0.3,0.9 -0.2,0.3 -0.6,0.4 -0.9,0.4 -0.2,0 -0.4,0 -0.5,-0.1 l -20.2,-10.1 c -2.2,-1.1 -3.6,-3.3 -3.6,-5.8 0,-4.8 -2.7,-9.1 -6.9,-11.2 l -31.2,-15.6 c -0.4,-0.2 -0.7,-0.6 -0.7,-1.1 v -35.1 c 0,-0.7 0.7,-1.1 1.2,-1.1 m 0,-2 c -1.7,0 -3.2,1.3 -3.2,3.2 v 35.1 c 0,1.2 0.7,2.3 1.8,2.8 l 31.2,15.6 c 3.6,1.8 5.8,5.4 5.8,9.4 0,3.2 1.8,6.1 4.7,7.5 l 20.2,10.1 c 0.5,0.2 1,0.3 1.4,0.3 1.8,0 3.4,-1.6 3.2,-3.6 -1.6,-11.1 -3.8,-22.1 -6.8,-32.9 l -4.6,-16.6 c -0.9,-3.3 -3.2,-6.1 -6.3,-7.7 l -45.9,-23 c -0.5,-0.1 -1,-0.2 -1.5,-0.2 z"
           id="path3871"
           inkscape:connector-curvature="0"
           style="fill:#2d3134" />
        <path
           d="m 525.5,339 c 35,0 67.6,-4.8 94.7,-13.1 -1.5,-13.1 -4.1,-26.1 -7.6,-38.9 l -3.9,-14.3 c -0.7,-2.4 -3.3,-3.6 -5.5,-2.5 L 477.6,333 c -1.1,0.5 -1.8,1.5 -2.1,2.6 15.9,2.2 32.6,3.4 50,3.4 z"
           id="path3873"
           inkscape:connector-curvature="0"
           style="opacity:0.2" />
        <path
           d="m 608.8,282.6 c 1,-0.5 1.7,-1.4 2,-2.4 l -2.1,-7.6 c -0.7,-2.4 -3.3,-3.6 -5.5,-2.5 L 477.6,333 c -1.7,0.8 -2.5,2.7 -2,4.5 l 2.3,8.4 c 1.1,0.7 2.6,0.9 3.9,0.2 z"
           id="path3875"
           inkscape:connector-curvature="0"
           style="fill:#2d3134" />
        <path
           d="m 388,394 v 15 l 18,9 c 0,0 10.4,4.8 13,6 8.6,4.1 16.1,7.8 23.6,16.9 8.6,10.5 12.8,26.5 12.5,36.6 L 486,493 v -50 z"
           id="path3877"
           inkscape:connector-curvature="0"
           style="opacity:0.11000001" />
        <path
           d="m 411,358.5 v 5 l 10,5 v -5 z"
           id="path3879"
           inkscape:connector-curvature="0"
           style="opacity:0.3;fill:#2d3134" />
        <path
           d="m 421,371 -10,-5 v -2.5 l 10,5 z"
           id="path3881"
           inkscape:connector-curvature="0"
           style="opacity:0.3;fill:#ffffff" />
        <path
           d="m 559,332.5 c -0.8,-0.7 -1.9,-0.6 -2.6,0.2 l -34.2,38.9 c -0.7,0.8 -0.6,1.9 0.2,2.6 0.8,0.7 1.9,0.6 2.6,-0.2 l 9.2,-10.5 v 9 h 2.3 V 361 h -0.1 l 22.9,-26 c 0.5,-0.7 0.4,-1.8 -0.3,-2.5 z"
           id="path3883"
           inkscape:connector-curvature="0"
           style="fill:#2d3134" />
        <path
           d="m 591.9,314.5 c -0.8,-0.7 -1.9,-0.6 -2.6,0.2 l -34.2,38.9 c -0.7,0.8 -0.6,1.9 0.2,2.6 0.8,0.7 1.9,0.6 2.6,-0.2 l 8.2,-9.3 v 9.9 h 2.3 V 344 l 23.8,-27 c 0.5,-0.7 0.4,-1.9 -0.3,-2.5 z"
           id="path3885"
           inkscape:connector-curvature="0"
           style="fill:#2d3134" />
        <path
           d="m 626,341 -6.8,3.4 -35.2,88 -56,28 -35.2,-52.8 -6.8,3.4"
           stroke-miterlimit="10"
           id="path3887"
           inkscape:connector-curvature="0"
           style="opacity:0.2;fill:none;stroke:#000000;stroke-width:0.84850001;stroke-miterlimit:10" />
        <path
           d="m 601.1,378.5 10,-25.1 -110.2,55.1 10,15.1 z"
           id="path3889"
           inkscape:connector-curvature="0"
           style="fill:#2d3134" />
        <path
           d="m 525.4,445.3 5.7,8.6 49.8,-24.9 5.7,-14.3 z"
           id="path3891"
           inkscape:connector-curvature="0"
           style="fill:#2d3134" />
        <path
           d="m 590.1,406 5.5,-13.8 -79.2,39.6 5.5,8.3 z"
           id="path3893"
           inkscape:connector-curvature="0"
           style="fill:#2d3134" />
        <path
           d="M 597.8,409.1 592.3,422.9 626,406 v -11 z"
           id="path3895"
           inkscape:connector-curvature="0"
           style="fill:#2d3134" />
        <path
           d="m 626,366 v -20 l -3.7,1.8 -10,25.1 z"
           id="path3897"
           inkscape:connector-curvature="0"
           style="opacity:0.2" />
        <path
           d="m 626,388 v -11 l -19.2,9.6 -5.5,13.8 z"
           id="path3899"
           inkscape:connector-curvature="0"
           style="fill:#ffffff" />
        <path
           d="m 499.7,429.2 -10,-15.1 -3.7,1.9 v 20 z"
           id="path3901"
           inkscape:connector-curvature="0"
           style="opacity:0.2" />
        <path
           d="m 486,465 v 11 l 33.7,-16.8 -5.5,-8.3 z"
           id="path3903"
           inkscape:connector-curvature="0"
           style="fill:#2d3134" />
        <path
           d="m 510.7,445.7 -5.5,-8.3 -19.2,9.6 v 11 z"
           id="path3905"
           inkscape:connector-curvature="0"
           style="fill:#ffffff" />
        <path
           d="m 607,413.5 17,-8.5 v -7 l -17,8.5 z"
           id="path3907"
           inkscape:connector-curvature="0"
           style="fill:#ffffff" />
        <path
           d="m 540,463 36,-18 v -7 l -36,18 z"
           id="path3909"
           inkscape:connector-curvature="0"
           style="fill:#ffffff" />
        <path
           d="m 488,473 17,-8.5 v -7 l -17,8.5 z"
           id="path3911"
           inkscape:connector-curvature="0"
           style="fill:#ffffff" />
        <g
           id="g3937"
           style="fill:#2d3134">
          <ellipse
             cx="501.20001"
             cy="463.39999"
             rx="2.5999999"
             ry="1.7"
             transform="matrix(-0.6313,0.7756,-0.7756,-0.6313,1177.0128,367.1746)"
             id="ellipse3913"
             style="opacity:0.3" />
          <ellipse
             cx="498.79999"
             cy="463.39999"
             rx="2.5999999"
             ry="1.7"
             transform="matrix(-0.6313,0.7756,-0.7756,-0.6313,1173.0829,369.043)"
             id="ellipse3915"
             style="opacity:0.3" />
          <ellipse
             cx="502.5"
             cy="445.60001"
             rx="4.4000001"
             ry="2.9000001"
             transform="matrix(-0.6313,0.7756,-0.7756,-0.6313,1165.222,337.1243)"
             id="ellipse3917"
             style="opacity:0.3" />
          <ellipse
             cx="498.39999"
             cy="445.60001"
             rx="4.4000001"
             ry="2.9000001"
             transform="matrix(-0.6313,0.7756,-0.7756,-0.6313,1158.5741,340.2849)"
             id="ellipse3919"
             style="opacity:0.3" />
          <ellipse
             cx="609.5"
             cy="391.60001"
             rx="4.4000001"
             ry="2.9000001"
             transform="matrix(-0.6313,0.7756,-0.7756,-0.6313,1297.8885,166.0506)"
             id="ellipse3921"
             style="opacity:0.3" />
          <ellipse
             cx="613.40002"
             cy="387.60001"
             rx="4.4000001"
             ry="2.9000001"
             transform="matrix(-0.6313,0.7756,-0.7756,-0.6313,1301.1885,156.4817)"
             id="ellipse3923"
             style="opacity:0.3" />
          <ellipse
             cx="493.20001"
             cy="467.39999"
             rx="2.5999999"
             ry="1.7"
             transform="matrix(-0.6313,0.7756,-0.7756,-0.6313,1167.0649,379.9042)"
             id="ellipse3925"
             style="opacity:0.3" />
          <ellipse
             cx="490.79999"
             cy="467.39999"
             rx="2.5999999"
             ry="1.7"
             transform="matrix(-0.6313,0.7756,-0.7756,-0.6313,1163.135,381.7726)"
             id="ellipse3927"
             style="opacity:0.3" />
          <ellipse
             cx="621.20001"
             cy="403.39999"
             rx="2.5999999"
             ry="1.7"
             transform="matrix(-0.6313,0.7756,-0.7756,-0.6313,1326.2324,176.2311)"
             id="ellipse3929"
             style="opacity:0.3" />
          <ellipse
             cx="618.79999"
             cy="403.39999"
             rx="2.5999999"
             ry="1.7"
             transform="matrix(-0.6313,0.7756,-0.7756,-0.6313,1322.3025,178.0995)"
             id="ellipse3931"
             style="opacity:0.3" />
          <ellipse
             cx="613.20001"
             cy="407.39999"
             rx="2.5999999"
             ry="1.7"
             transform="matrix(-0.6313,0.7756,-0.7756,-0.6313,1316.2844,188.9607)"
             id="ellipse3933"
             style="opacity:0.3" />
          <ellipse
             cx="610.79999"
             cy="407.39999"
             rx="2.5999999"
             ry="1.7"
             transform="matrix(-0.6313,0.7756,-0.7756,-0.6313,1312.3545,190.8291)"
             id="ellipse3935"
             style="opacity:0.3" />
        </g>
        <path
           d="m 487,456 6,-3 v -5 l -6,3 z"
           id="path3939"
           inkscape:connector-curvature="0"
           style="fill:#ffcc00" />
        <path
           d="m 619,390 6,-3 v -5 l -6,3 z"
           id="path3941"
           inkscape:connector-curvature="0"
           style="fill:#ffcc00" />
        <path
           d="m 467,391 c -1.1,0 -2.2,-0.3 -3.1,-0.9 -1.8,-1.1 -2.8,-3 -2.8,-5.1 v -32.3 c 0,-2.3 1.3,-4.3 3.3,-5.3 l 3.7,-1.8 0.4,0.9 -3.7,1.8 c -1.7,0.8 -2.7,2.5 -2.7,4.4 V 385 c 0,1.7 0.9,3.3 2.4,4.2 1.5,0.9 3.3,1 4.8,0.2 l 0.6,-0.3 0.4,0.9 -0.6,0.3 c -0.9,0.4 -1.8,0.7 -2.7,0.7 z"
           id="path3943"
           inkscape:connector-curvature="0"
           style="fill:#2d3134" />
        <path
           d="m 461.3,351.9 0.7,-0.3 c 2.4,-0.8 4.9,1 4.9,3.5 v 21.4 c 0,3.1 -1.9,6 -4.9,7.1 l -0.9,0.3 c -2.4,0.9 -5.1,-0.9 -5.1,-3.5 V 359 c 0.2,-3.2 2.2,-6.1 5.3,-7.1 z"
           id="path3945"
           inkscape:connector-curvature="0"
           style="fill:#2d3134" />
        <path
           d="M 486,493 626,423 V 373 L 486,443 Z"
           id="path3947"
           inkscape:connector-curvature="0"
           style="opacity:0.28999999" />
        <path
           d="m 610,262.3 -140,70 6.5,23.6 c 6.3,22.8 9.5,46.4 9.5,70.1 v 15 l 140,-70 v -15 c 0,-23.7 -3.2,-47.3 -9.5,-70.1 z"
           id="path3949"
           inkscape:connector-curvature="0"
           style="opacity:0.28999999" />
        <path
           d="m 470,332.3 -82,-41 V 392 l 98,49 v -15 c 0,-23.7 -3.2,-47.3 -9.5,-70.1 z"
           id="path3951"
           inkscape:connector-curvature="0"
           style="opacity:0.11000001" />
        <path
           d="m 468,484 -2,-1 v -50 l 2,1 z"
           id="path3953"
           inkscape:connector-curvature="0"
           style="opacity:0.3;fill:#2d3134" />
        <path
           d="m 470,485 -2,-1 v -50 l 2,1 z"
           id="path3955"
           inkscape:connector-curvature="0"
           style="opacity:0.3;fill:#ffffff" />
        <path
           d="m 341.8,186.2 c -0.9,-1.9 0,-4.2 1.9,-5.1 l 12.8,-5.8 c 1.9,-0.9 4.2,0 5.1,1.9 0.9,1.9 0,4.2 -1.9,5.1 l -12.8,5.8 c -1.9,0.9 -4.2,0 -5.1,-1.9 z"
           id="path3957"
           inkscape:connector-curvature="0"
           style="fill:#cc291f" />
        <path
           d="m 341.8,186.2 c -0.9,-1.9 0,-4.2 1.9,-5.1 l 12.8,-5.8 c 1.9,-0.9 4.2,0 5.1,1.9 0.9,1.9 0,4.2 -1.9,5.1 l -12.8,5.8 c -1.9,0.9 -4.2,0 -5.1,-1.9 z"
           id="path3959"
           inkscape:connector-curvature="0"
           style="opacity:0.2" />
        <path
           d="m 330.3,271.2 c -0.9,-1.9 0,-4.2 1.9,-5.1 l 12.8,-5.8 c 1.9,-0.9 4.2,0 5.1,1.9 0.9,1.9 0,4.2 -1.9,5.1 l -12.8,5.8 c -1.9,0.9 -4.2,0 -5.1,-1.9 z"
           id="path3961"
           inkscape:connector-curvature="0"
           style="fill:#cc291f" />
        <path
           d="m 330.3,271.2 c -0.9,-1.9 0,-4.2 1.9,-5.1 l 12.8,-5.8 c 1.9,-0.9 4.2,0 5.1,1.9 0.9,1.9 0,4.2 -1.9,5.1 l -12.8,5.8 c -1.9,0.9 -4.2,0 -5.1,-1.9 z"
           id="path3963"
           inkscape:connector-curvature="0"
           style="opacity:0.2" />
        <path
           d="m 104.3,161.2 c -0.9,-1.9 0,-4.2 1.9,-5.1 l 12.8,-5.8 c 1.9,-0.9 4.2,0 5.1,1.9 0.9,1.9 0,4.2 -1.9,5.1 l -12.8,5.8 c -1.9,0.9 -4.2,0 -5.1,-1.9 z"
           id="path3965"
           inkscape:connector-curvature="0"
           style="fill:#cc291f" />
        <path
           d="m 104.3,161.2 c -0.9,-1.9 0,-4.2 1.9,-5.1 l 12.8,-5.8 c 1.9,-0.9 4.2,0 5.1,1.9 0.9,1.9 0,4.2 -1.9,5.1 l -12.8,5.8 c -1.9,0.9 -4.2,0 -5.1,-1.9 z"
           id="path3967"
           inkscape:connector-curvature="0"
           style="opacity:0.2" />
        <path
           d="m 95.8,63.7 c -0.9,-1.9 0,-4.2 1.9,-5.1 l 12.8,-5.8 c 1.9,-0.9 4.2,0 5.1,1.9 0.9,1.9 0,4.2 -1.9,5.1 l -12.8,5.8 c -1.9,0.9 -4.2,0.1 -5.1,-1.9 z"
           id="path3969"
           inkscape:connector-curvature="0"
           style="fill:#cc291f" />
        <path
           d="m 95.8,63.7 c -0.9,-1.9 0,-4.2 1.9,-5.1 l 12.8,-5.8 c 1.9,-0.9 4.2,0 5.1,1.9 0.9,1.9 0,4.2 -1.9,5.1 l -12.8,5.8 c -1.9,0.9 -4.2,0.1 -5.1,-1.9 z"
           id="path3971"
           inkscape:connector-curvature="0"
           style="opacity:0.2" />
        <path
           d="m 342,284.5 c -1.2,0 -2.4,-0.3 -3.5,-0.8 L 93.5,161.1 c -3.9,-1.9 -5.4,-6.6 -3.5,-10.5 1.9,-3.9 6.6,-5.4 10.5,-3.5 l 245,122.6 c 3.9,1.9 5.4,6.6 3.5,10.5 -1.4,2.7 -4.1,4.3 -7,4.3 z"
           id="path3973"
           inkscape:connector-curvature="0"
           style="fill:#cc291f" />
        <path
           d="m 341,277.7 c -0.5,0 -0.9,-0.1 -1.3,-0.3 L 96.7,155.8 c -1.5,-0.7 -2.1,-2.5 -1.3,-4 0.7,-1.5 2.5,-2.1 4,-1.3 l 243,121.6 c 1.5,0.7 2.1,2.5 1.3,4 -0.5,1 -1.6,1.6 -2.7,1.6 z"
           id="path3975"
           inkscape:connector-curvature="0"
           style="opacity:0.2;fill:#ffffff" />
        <path
           d="m 346.7,286.9 c -1.9,0 -3.7,-0.7 -5.2,-2 L 100.1,68.9 c -3.2,-2.9 -3.5,-7.8 -0.6,-11 2.9,-3.2 7.8,-3.5 11,-0.6 l 241.4,216 c 3.2,2.9 3.5,7.8 0.6,11 -1.5,1.7 -3.6,2.6 -5.8,2.6 z"
           id="path3977"
           inkscape:connector-curvature="0"
           style="fill:#cc291f" />
        <path
           d="m 347.7,281.1 c -0.7,0 -1.4,-0.3 -2,-0.8 L 106,65.8 c -1.2,-1.1 -1.3,-3 -0.2,-4.2 1.1,-1.2 3,-1.3 4.2,-0.2 l 239.7,214.5 c 1.2,1.1 1.3,3 0.2,4.2 -0.5,0.7 -1.3,1 -2.2,1 z"
           id="path3979"
           inkscape:connector-curvature="0"
           style="opacity:0.2;fill:#ffffff" />
        <path
           d="m 415,224.8 c -1.2,0 -2.4,-0.3 -3.5,-0.8 L 99.5,68 C 95.6,66.1 94.1,61.4 96,57.5 c 1.9,-3.9 6.6,-5.4 10.5,-3.5 l 312,156 c 3.9,1.9 5.4,6.6 3.5,10.5 -1.4,2.7 -4.1,4.3 -7,4.3 z"
           id="path3981"
           inkscape:connector-curvature="0"
           style="fill:#cc291f" />
        <path
           d="m 416,219 c -0.5,0 -0.9,-0.1 -1.3,-0.3 l -312,-156 c -1.5,-0.7 -2.1,-2.5 -1.3,-4 0.7,-1.5 2.5,-2.1 4,-1.3 l 312,156 c 1.5,0.7 2.1,2.5 1.3,4 -0.5,1 -1.6,1.6 -2.7,1.6 z"
           id="path3983"
           inkscape:connector-curvature="0"
           style="opacity:0.2;fill:#ffffff" />
      </g>
    </g>
  </g>
</svg>
