<?xml version="1.0" encoding="UTF-8" standalone="no"?>
<!-- Created with Inkscape (http://www.inkscape.org/) -->

<svg
   xmlns:dc="http://purl.org/dc/elements/1.1/"
   xmlns:cc="http://creativecommons.org/ns#"
   xmlns:rdf="http://www.w3.org/1999/02/22-rdf-syntax-ns#"
   xmlns:svg="http://www.w3.org/2000/svg"
   xmlns="http://www.w3.org/2000/svg"
   xmlns:sodipodi="http://sodipodi.sourceforge.net/DTD/sodipodi-0.dtd"
   xmlns:inkscape="http://www.inkscape.org/namespaces/inkscape"
   width="4.9652071mm"
   height="12.582497mm"
   viewBox="0 0 4.9652072 12.582497"
   version="1.1"
   id="svg205606"
   inkscape:version="0.92.2 (5c3e80d, 2017-08-06)"
   sodipodi:docname="street-objects-6.svg">
  <defs
     id="defs205600">
    <clipPath
       clipPathUnits="userSpaceOnUse"
       id="clipPath70727">
      <path
         d="m 457.002,2619.783 6.988,-3.963 c -0.005,1.482 1.044,3.27 2.335,3.998 v 0 l -6.989,3.961 c -1.292,-0.726 -2.339,-2.515 -2.334,-3.996"
         id="path70725"
         inkscape:connector-curvature="0" />
    </clipPath>
    <clipPath
       clipPathUnits="userSpaceOnUse"
       id="clipPath70703">
      <path
         d="M 0,3189 H 2006.732 V 0 H 0 Z"
         id="path70701"
         inkscape:connector-curvature="0" />
    </clipPath>
    <clipPath
       clipPathUnits="userSpaceOnUse"
       id="clipPath70691">
      <path
         d="m 467.144,2628.18 6.991,-3.965 c 0.643,0.363 1.228,0.396 1.654,0.154 v 0 l -6.988,3.963 c -0.18,0.102 -0.387,0.155 -0.616,0.155 v 0 c -0.314,0 -0.668,-0.099 -1.041,-0.307"
         id="path70689"
         inkscape:connector-curvature="0" />
    </clipPath>
    <clipPath
       clipPathUnits="userSpaceOnUse"
       id="clipPath70659">
      <path
         d="m 460.035,2492.34 h 28.146 v -14.16 h -28.146 z"
         id="path70657"
         inkscape:connector-curvature="0" />
    </clipPath>
    <clipPath
       clipPathUnits="userSpaceOnUse"
       id="clipPath70783">
      <path
         d="m 521.15,2491.13 h 28.145 v -14.17 H 521.15 Z"
         id="path70781"
         inkscape:connector-curvature="0" />
    </clipPath>
    <clipPath
       clipPathUnits="userSpaceOnUse"
       id="clipPath70995">
      <path
         d="m 613.925,2617.959 1.194,-0.692 c 1.427,0.821 2.723,0.9 3.661,0.355 v 0 c -0.4,0.233 -0.796,0.462 -1.196,0.693 v 0 c -0.392,0.229 -0.849,0.348 -1.353,0.348 v 0 c -0.694,0 -1.478,-0.226 -2.306,-0.704"
         id="path70993"
         inkscape:connector-curvature="0" />
    </clipPath>
    <clipPath
       clipPathUnits="userSpaceOnUse"
       id="clipPath70963">
      <path
         d="M 0,3189 H 2006.732 V 0 H 0 Z"
         id="path70961"
         inkscape:connector-curvature="0" />
    </clipPath>
    <clipPath
       clipPathUnits="userSpaceOnUse"
       id="clipPath70951">
      <path
         d="m 621.298,2594.897 c -1.297,-0.722 -3.355,-0.7 -4.596,0.047 v 0 c -0.607,0.364 -0.905,0.831 -0.909,1.298 v 0 l 0.043,-5.474 c 0.003,-0.468 0.3,-0.936 0.904,-1.298 v 0 c 1.246,-0.75 3.303,-0.772 4.599,-0.049 v 0 c 0.666,0.371 1.002,0.868 1,1.364 v 0 l -0.039,5.477 c 0,-0.496 -0.336,-0.993 -1.002,-1.365"
         id="path70949"
         inkscape:connector-curvature="0" />
    </clipPath>
    <clipPath
       clipPathUnits="userSpaceOnUse"
       id="clipPath70935">
      <path
         d="M 0,3189 H 2006.732 V 0 H 0 Z"
         id="path70933"
         inkscape:connector-curvature="0" />
    </clipPath>
    <clipPath
       clipPathUnits="userSpaceOnUse"
       id="clipPath70923">
      <path
         d="m 621.514,2528.221 c -1.378,-0.769 -3.57,-0.747 -4.89,0.048 v 0 c -0.64,0.385 -0.96,0.882 -0.963,1.382 v 0 l 0.044,-34.963 c 0,-0.497 0.321,-0.994 0.963,-1.382 v 0 c 1.322,-0.795 3.512,-0.817 4.889,-0.049 v 0 c 0.71,0.395 1.065,0.925 1.065,1.452 v 0 l -0.043,34.963 c 0,-0.532 -0.355,-1.057 -1.065,-1.451"
         id="path70921"
         inkscape:connector-curvature="0" />
    </clipPath>
    <clipPath
       clipPathUnits="userSpaceOnUse"
       id="clipPath70895">
      <path
         d="m 613.479,2502.16 h 28.146 V 2488 h -28.146 z"
         id="path70893"
         inkscape:connector-curvature="0" />
    </clipPath>
    <clipPath
       clipPathUnits="userSpaceOnUse"
       id="clipPath71403">
      <path
         d="m 660.563,2585.094 c -1.298,-0.722 -3.354,-0.701 -4.599,0.049 v 0 c -0.603,0.362 -0.904,0.83 -0.904,1.296 v 0 l 0.042,-5.475 c 0,-0.469 0.3,-0.935 0.903,-1.298 v 0 c 1.245,-0.75 3.303,-0.77 4.598,-0.048 v 0 c 0.668,0.374 1.004,0.866 1.002,1.366 v 0 l -0.044,5.475 c 0.003,-0.495 -0.33,-0.994 -0.998,-1.365"
         id="path71401"
         inkscape:connector-curvature="0" />
    </clipPath>
    <clipPath
       clipPathUnits="userSpaceOnUse"
       id="clipPath71387">
      <path
         d="M 0,3189 H 2006.732 V 0 H 0 Z"
         id="path71385"
         inkscape:connector-curvature="0" />
    </clipPath>
    <clipPath
       clipPathUnits="userSpaceOnUse"
       id="clipPath71347">
      <path
         d="M 652.694,2493.36 H 680.84 V 2479.2 H 652.694 Z"
         id="path71345"
         inkscape:connector-curvature="0" />
    </clipPath>
    <clipPath
       clipPathUnits="userSpaceOnUse"
       id="clipPath71315">
      <path
         d="m 771.718,2529.918 c -1.379,-0.769 -3.571,-0.747 -4.891,0.049 v 0 c -0.642,0.387 -0.962,0.884 -0.962,1.383 v 0 l -0.284,-34.963 c 0,-0.499 0.318,-0.996 0.961,-1.382 v 0 c 1.324,-0.797 3.513,-0.817 4.89,-0.049 v 0 c 0.708,0.394 1.068,0.923 1.066,1.448 v 0 l 0.283,34.965 c 0,-0.529 -0.357,-1.056 -1.063,-1.451"
         id="path71313"
         inkscape:connector-curvature="0" />
    </clipPath>
    <clipPath
       clipPathUnits="userSpaceOnUse"
       id="clipPath71279">
      <path
         d="m 764.006,2504.18 h 28.147 v -14.16 h -28.147 z"
         id="path71277"
         inkscape:connector-curvature="0" />
    </clipPath>
    <clipPath
       clipPathUnits="userSpaceOnUse"
       id="clipPath71235">
      <path
         d="m 838.289,2627.383 c -0.615,-0.361 -1.234,-0.717 -1.846,-1.074 v 0 c 5.155,2.995 12.292,2.581 20.15,-1.959 v 0 l 1.849,1.074 c -4.556,2.629 -8.867,3.874 -12.69,3.874 v 0 c -2.776,0 -5.295,-0.656 -7.463,-1.915"
         id="path71233"
         inkscape:connector-curvature="0" />
    </clipPath>
    <clipPath
       clipPathUnits="userSpaceOnUse"
       id="clipPath71223">
      <path
         d="m 838.415,2622.911 c -4.587,-2.666 -7.441,-8.328 -7.462,-16.371 v 0 l 1.845,1.071 c 0.024,8.044 2.874,13.706 7.462,16.373 v 0 c -0.615,-0.358 -1.229,-0.715 -1.845,-1.073"
         id="path71221"
         inkscape:connector-curvature="0" />
    </clipPath>
    <clipPath
       clipPathUnits="userSpaceOnUse"
       id="clipPath71167">
      <path
         d="m 824.903,2500.79 h 28.146 v -14.16 h -28.146 z"
         id="path71165"
         inkscape:connector-curvature="0" />
    </clipPath>
  </defs>
  <sodipodi:namedview
     id="base"
     pagecolor="#ffffff"
     bordercolor="#666666"
     borderopacity="1.0"
     inkscape:pageopacity="0.0"
     inkscape:pageshadow="2"
     inkscape:zoom="0.35"
     inkscape:cx="-109.13996"
     inkscape:cy="210.17736"
     inkscape:document-units="mm"
     inkscape:current-layer="layer1"
     showgrid="false"
     fit-margin-top="0"
     fit-margin-left="0"
     fit-margin-right="0"
     fit-margin-bottom="0"
     inkscape:window-width="1360"
     inkscape:window-height="706"
     inkscape:window-x="-8"
     inkscape:window-y="-8"
     inkscape:window-maximized="1" />
  <metadata
     id="metadata205603">
    <rdf:RDF>
      <cc:Work
         rdf:about="">
        <dc:format>image/svg+xml</dc:format>
        <dc:type
           rdf:resource="http://purl.org/dc/dcmitype/StillImage" />
        <dc:title></dc:title>
      </cc:Work>
    </rdf:RDF>
  </metadata>
  <g
     inkscape:label="Layer 1"
     inkscape:groupmode="layer"
     id="layer1"
     transform="translate(48.608498,-191.86027)">
    <g
       id="g2474"
       transform="matrix(0.25,0,0,0.25,-34.594421,148.61364)">
      <g
         transform="matrix(0.35277777,0,0,-0.35277777,-347.06375,1100.5443)"
         id="g71161">
        <g
           id="g71163" />
        <g
           id="g71175">
          <g
             style="opacity:0.30999798"
             id="g71173"
             clip-path="url(#clipPath71167)">
            <g
               id="g71171"
               transform="translate(853.0488,2493.709)">
              <path
                 inkscape:connector-curvature="0"
                 id="path71169"
                 style="fill:#231f20;fill-opacity:1;fill-rule:nonzero;stroke:none"
                 d="m 0,0 c 0,-3.913 -6.301,-7.083 -14.074,-7.083 -7.769,0 -14.072,3.17 -14.072,7.083 0,3.909 6.303,7.079 14.072,7.079 C -6.301,7.079 0,3.909 0,0" />
            </g>
          </g>
        </g>
      </g>
      <g
         transform="matrix(0.35277777,0,0,-0.35277777,-37.358275,183.58152)"
         id="g71177">
        <path
           inkscape:connector-curvature="0"
           id="path71179"
           style="fill:#30515e;fill-opacity:1;fill-rule:nonzero;stroke:none"
           d="M 0,0 C 0,0 2.947,-1.309 3.274,-1.965 3.603,-2.619 0.164,-4.091 -0.654,-4.091 -1.473,-4.091 0,0 0,0" />
      </g>
      <g
         transform="matrix(0.35277777,0,0,-0.35277777,-37.358275,186.69965)"
         id="g71181">
        <path
           inkscape:connector-curvature="0"
           id="path71183"
           style="fill:#30515e;fill-opacity:1;fill-rule:nonzero;stroke:none"
           d="M 0,0 C 0,0 2.947,-1.309 3.274,-1.965 3.603,-2.621 0.164,-4.091 -0.654,-4.091 -1.473,-4.091 0,0 0,0" />
      </g>
      <g
         transform="matrix(0.35277777,0,0,-0.35277777,-37.358275,190.04914)"
         id="g71185">
        <path
           inkscape:connector-curvature="0"
           id="path71187"
           style="fill:#30515e;fill-opacity:1;fill-rule:nonzero;stroke:none"
           d="M 0,0 C 0,0 2.947,-1.311 3.274,-1.965 3.603,-2.619 0.164,-4.091 -0.654,-4.091 -1.473,-4.091 0,0 0,0" />
      </g>
      <g
         transform="matrix(0.35277777,0,0,-0.35277777,-39.751061,183.15413)"
         id="g71189">
        <path
           inkscape:connector-curvature="0"
           id="path71191"
           style="fill:#5e7077;fill-opacity:1;fill-rule:nonzero;stroke:none"
           d="m 0,0 c 1.083,-0.608 1.959,-2.104 1.955,-3.344 l -0.08,-27.26 c -0.003,-1.235 -0.888,-1.742 -1.966,-1.137 l -5.902,3.429 c -1.085,0.61 -1.961,2.112 -1.957,3.345 l 0.079,27.259 c 0.004,1.24 0.885,1.743 1.97,1.133 z" />
      </g>
      <g
         transform="matrix(0.35277777,0,0,-0.35277777,-40.319704,180.76374)"
         id="g71193">
        <path
           inkscape:connector-curvature="0"
           id="path71195"
           style="fill:#919191;fill-opacity:1;fill-rule:nonzero;stroke:none"
           d="M 0,0 C 0.355,0.202 0.845,0.174 1.386,-0.129 L 7.29,-3.556 C 8.368,-4.166 9.244,-5.66 9.242,-6.9 L 9.163,-34.159 C 9.161,-34.78 8.935,-35.221 8.575,-35.423 l -5.673,-3.22 c 0.359,0.205 0.581,0.643 0.584,1.264 l 0.08,27.259 c 0.005,1.24 -0.871,2.736 -1.954,3.344 l -5.902,3.425 c -0.538,0.308 -1.028,0.333 -1.383,0.131 z" />
      </g>
      <g
         transform="matrix(0.35277777,0,0,-0.35277777,-40.122113,178.41904)"
         id="g71197">
        <path
           inkscape:connector-curvature="0"
           id="path71199"
           style="fill:#30515e;fill-opacity:1;fill-rule:nonzero;stroke:none"
           d="m 0,0 c 0,0.009 -0.002,0.018 -0.002,0.024 l 0.028,-10.283 c 0,-0.839 2.211,-0.832 2.209,0.005 L 2.205,0.029 c 0,0 0.024,0.248 -0.321,0.449 C 1.179,0.889 -0.037,0.582 0,0" />
      </g>
      <g
         transform="matrix(0.35277777,0,0,-0.35277777,-55.492219,185.26614)"
         id="g71201">
        <path
           inkscape:connector-curvature="0"
           id="path71203"
           style="fill:#cccccc;fill-opacity:1;fill-rule:nonzero;stroke:none"
           d="m 0,0 0.085,-101.39 c 0.002,-0.553 0.366,-1.107 1.092,-1.53 1.466,-0.849 3.844,-0.849 5.318,0 0.74,0.427 1.11,0.99 1.109,1.55 L 7.519,0.022 c 0,-0.563 -0.369,-1.125 -1.112,-1.551 -1.47,-0.852 -3.851,-0.852 -5.318,0 C 0.364,-1.106 0,-0.553 0,0" />
      </g>
      <g
         transform="matrix(0.35277777,0,0,-0.35277777,-55.461562,213.10408)"
         id="g71205">
        <path
           inkscape:connector-curvature="0"
           id="path71207"
           style="fill:#30515e;fill-opacity:1;fill-rule:nonzero;stroke:none"
           d="m 0,0 -0.004,-22.584 c 0.002,-0.553 0.366,-1.105 1.091,-1.527 1.469,-0.852 3.846,-0.852 5.318,-0.002 0.743,0.429 1.112,0.991 1.112,1.551 L 7.519,0.021 C 7.521,-0.54 7.15,-1.103 6.41,-1.53 4.938,-2.381 2.558,-2.381 1.092,-1.53 0.366,-1.107 0.002,-0.554 0,0" />
      </g>
      <g
         transform="matrix(0.35277777,0,0,-0.35277777,-55.100882,184.71891)"
         id="g71209">
        <path
           inkscape:connector-curvature="0"
           id="path71211"
           style="fill:#e2e2e2;fill-opacity:1;fill-rule:nonzero;stroke:none"
           d="m 0,0 c -1.473,-0.852 -1.482,-2.231 -0.02,-3.081 1.466,-0.852 3.848,-0.852 5.318,0 C 6.773,-2.231 6.779,-0.852 5.315,0 3.852,0.847 1.475,0.85 0,0" />
      </g>
      <g
         transform="matrix(0.35277777,0,0,-0.35277777,-54.74828,184.8119)"
         id="g71213">
        <path
           inkscape:connector-curvature="0"
           id="path71215"
           style="fill:#cccccc;fill-opacity:1;fill-rule:nonzero;stroke:none"
           d="m 0,0 c -0.904,-0.525 -0.911,-1.371 -0.011,-1.895 0.902,-0.521 2.364,-0.521 3.268,0 C 4.166,-1.371 4.167,-0.525 3.268,0 2.371,0.523 0.907,0.523 0,0" />
      </g>
      <g
         transform="matrix(0.35277777,0,0,-0.35277777,-347.06375,1100.5443)"
         id="g71217">
        <g
           clip-path="url(#clipPath71223)"
           id="g71219">
          <g
             transform="translate(830.9531,2606.5396)"
             id="g71225">
            <path
               inkscape:connector-curvature="0"
               id="path71227"
               style="fill:#cccccc;fill-opacity:1;fill-rule:nonzero;stroke:none"
               d="M 0,0 1.845,1.072 C 1.869,9.115 4.719,14.777 9.307,17.444 L 7.461,16.372 C 2.874,13.706 0.021,8.043 0,0" />
          </g>
        </g>
      </g>
      <g
         transform="matrix(0.35277777,0,0,-0.35277777,-347.06375,1100.5443)"
         id="g71229">
        <g
           clip-path="url(#clipPath71235)"
           id="g71231">
          <g
             transform="translate(856.5933,2624.3496)"
             id="g71237">
            <path
               inkscape:connector-curvature="0"
               id="path71239"
               style="fill:#cccccc;fill-opacity:1;fill-rule:nonzero;stroke:none"
               d="M 0,0 1.848,1.074 C -6.015,5.612 -13.15,6.026 -18.305,3.033 L -20.15,1.959 C -14.995,4.955 -7.858,4.541 0,0" />
          </g>
        </g>
      </g>
      <g
         transform="matrix(0.35277777,0,0,-0.35277777,-38.288974,179.50785)"
         id="g71249">
        <path
           inkscape:connector-curvature="0"
           id="path71251"
           style="fill:#cccccc;fill-opacity:1;fill-rule:nonzero;stroke:none"
           d="M 0,0 1.845,1.074 1.856,4.276 0.008,3.205 Z" />
      </g>
      <g
         transform="matrix(0.35277777,0,0,-0.35277777,-38.286045,178.37734)"
         id="g71253">
        <path
           inkscape:connector-curvature="0"
           id="path71255"
           style="fill:#cccccc;fill-opacity:1;fill-rule:nonzero;stroke:none"
           d="m 0,0 1.848,1.072 -18.682,10.335 -1.848,-1.074 z" />
      </g>
      <g
         transform="matrix(0.35277777,0,0,-0.35277777,-44.876675,174.73209)"
         id="g71257">
        <path
           inkscape:connector-curvature="0"
           id="path71259"
           style="fill:#cccccc;fill-opacity:1;fill-rule:nonzero;stroke:none"
           d="m 0,0 c -15.623,9.022 -28.375,1.752 -28.427,-16.2 l 2.787,-1.61 c 0.048,16.189 11.544,22.741 25.634,14.607 l 18.68,-10.335 0.008,3.205 z" />
      </g>
      <g
         transform="matrix(0.35277777,0,0,-0.35277777,-53.910574,180.8845)"
         id="g71261">
        <path
           inkscape:connector-curvature="0"
           id="path71263"
           style="fill:#cccccc;fill-opacity:1;fill-rule:nonzero;stroke:none"
           d="m 0,0 -0.191,-13.395 -2.866,1.445 0.238,13.19 z" />
      </g>
      <g
         transform="matrix(0.35277777,0,0,-0.35277777,-53.271023,180.63699)"
         id="g71265">
        <path
           inkscape:connector-curvature="0"
           id="path71267"
           style="fill:#cccccc;fill-opacity:1;fill-rule:nonzero;stroke:none"
           d="m 0,0 -1.845,-1.072 -0.159,-13.024 1.747,1.283 z" />
      </g>
      <g
         transform="matrix(0.35277777,0,0,-0.35277777,-38.495843,178.49344)"
         id="g71269">
        <path
           inkscape:connector-curvature="0"
           id="path71271"
           style="fill:#e8e8e8;fill-opacity:1;fill-rule:nonzero;stroke:none"
           d="M 0,0 C -0.556,-1.162 -0.331,-2.427 0.503,-2.826 1.34,-3.229 2.468,-2.614 3.026,-1.453 3.584,-0.292 3.357,0.974 2.521,1.375 1.686,1.775 0.56,1.161 0,0" />
      </g>
    </g>
  </g>
</svg>
