<?xml version="1.0" encoding="UTF-8" standalone="no"?>
<!-- Created with Inkscape (http://www.inkscape.org/) -->

<svg
   xmlns:dc="http://purl.org/dc/elements/1.1/"
   xmlns:cc="http://creativecommons.org/ns#"
   xmlns:rdf="http://www.w3.org/1999/02/22-rdf-syntax-ns#"
   xmlns:svg="http://www.w3.org/2000/svg"
   xmlns="http://www.w3.org/2000/svg"
   xmlns:sodipodi="http://sodipodi.sourceforge.net/DTD/sodipodi-0.dtd"
   xmlns:inkscape="http://www.inkscape.org/namespaces/inkscape"
   width="2.7537091mm"
   height="9.0904493mm"
   viewBox="0 0 2.7537092 9.0904493"
   version="1.1"
   id="svg205606"
   inkscape:version="0.92.2 (5c3e80d, 2017-08-06)"
   sodipodi:docname="street-objects-15.svg">
  <defs
     id="defs205600">
    <clipPath
       clipPathUnits="userSpaceOnUse"
       id="clipPath70727">
      <path
         d="m 457.002,2619.783 6.988,-3.963 c -0.005,1.482 1.044,3.27 2.335,3.998 v 0 l -6.989,3.961 c -1.292,-0.726 -2.339,-2.515 -2.334,-3.996"
         id="path70725"
         inkscape:connector-curvature="0" />
    </clipPath>
    <clipPath
       clipPathUnits="userSpaceOnUse"
       id="clipPath70703">
      <path
         d="M 0,3189 H 2006.732 V 0 H 0 Z"
         id="path70701"
         inkscape:connector-curvature="0" />
    </clipPath>
    <clipPath
       clipPathUnits="userSpaceOnUse"
       id="clipPath70691">
      <path
         d="m 467.144,2628.18 6.991,-3.965 c 0.643,0.363 1.228,0.396 1.654,0.154 v 0 l -6.988,3.963 c -0.18,0.102 -0.387,0.155 -0.616,0.155 v 0 c -0.314,0 -0.668,-0.099 -1.041,-0.307"
         id="path70689"
         inkscape:connector-curvature="0" />
    </clipPath>
    <clipPath
       clipPathUnits="userSpaceOnUse"
       id="clipPath70659">
      <path
         d="m 460.035,2492.34 h 28.146 v -14.16 h -28.146 z"
         id="path70657"
         inkscape:connector-curvature="0" />
    </clipPath>
    <clipPath
       clipPathUnits="userSpaceOnUse"
       id="clipPath70783">
      <path
         d="m 521.15,2491.13 h 28.145 v -14.17 H 521.15 Z"
         id="path70781"
         inkscape:connector-curvature="0" />
    </clipPath>
    <clipPath
       clipPathUnits="userSpaceOnUse"
       id="clipPath70995">
      <path
         d="m 613.925,2617.959 1.194,-0.692 c 1.427,0.821 2.723,0.9 3.661,0.355 v 0 c -0.4,0.233 -0.796,0.462 -1.196,0.693 v 0 c -0.392,0.229 -0.849,0.348 -1.353,0.348 v 0 c -0.694,0 -1.478,-0.226 -2.306,-0.704"
         id="path70993"
         inkscape:connector-curvature="0" />
    </clipPath>
    <clipPath
       clipPathUnits="userSpaceOnUse"
       id="clipPath70963">
      <path
         d="M 0,3189 H 2006.732 V 0 H 0 Z"
         id="path70961"
         inkscape:connector-curvature="0" />
    </clipPath>
    <clipPath
       clipPathUnits="userSpaceOnUse"
       id="clipPath70951">
      <path
         d="m 621.298,2594.897 c -1.297,-0.722 -3.355,-0.7 -4.596,0.047 v 0 c -0.607,0.364 -0.905,0.831 -0.909,1.298 v 0 l 0.043,-5.474 c 0.003,-0.468 0.3,-0.936 0.904,-1.298 v 0 c 1.246,-0.75 3.303,-0.772 4.599,-0.049 v 0 c 0.666,0.371 1.002,0.868 1,1.364 v 0 l -0.039,5.477 c 0,-0.496 -0.336,-0.993 -1.002,-1.365"
         id="path70949"
         inkscape:connector-curvature="0" />
    </clipPath>
    <clipPath
       clipPathUnits="userSpaceOnUse"
       id="clipPath70935">
      <path
         d="M 0,3189 H 2006.732 V 0 H 0 Z"
         id="path70933"
         inkscape:connector-curvature="0" />
    </clipPath>
    <clipPath
       clipPathUnits="userSpaceOnUse"
       id="clipPath70923">
      <path
         d="m 621.514,2528.221 c -1.378,-0.769 -3.57,-0.747 -4.89,0.048 v 0 c -0.64,0.385 -0.96,0.882 -0.963,1.382 v 0 l 0.044,-34.963 c 0,-0.497 0.321,-0.994 0.963,-1.382 v 0 c 1.322,-0.795 3.512,-0.817 4.889,-0.049 v 0 c 0.71,0.395 1.065,0.925 1.065,1.452 v 0 l -0.043,34.963 c 0,-0.532 -0.355,-1.057 -1.065,-1.451"
         id="path70921"
         inkscape:connector-curvature="0" />
    </clipPath>
    <clipPath
       clipPathUnits="userSpaceOnUse"
       id="clipPath70895">
      <path
         d="m 613.479,2502.16 h 28.146 V 2488 h -28.146 z"
         id="path70893"
         inkscape:connector-curvature="0" />
    </clipPath>
    <clipPath
       clipPathUnits="userSpaceOnUse"
       id="clipPath71403">
      <path
         d="m 660.563,2585.094 c -1.298,-0.722 -3.354,-0.701 -4.599,0.049 v 0 c -0.603,0.362 -0.904,0.83 -0.904,1.296 v 0 l 0.042,-5.475 c 0,-0.469 0.3,-0.935 0.903,-1.298 v 0 c 1.245,-0.75 3.303,-0.77 4.598,-0.048 v 0 c 0.668,0.374 1.004,0.866 1.002,1.366 v 0 l -0.044,5.475 c 0.003,-0.495 -0.33,-0.994 -0.998,-1.365"
         id="path71401"
         inkscape:connector-curvature="0" />
    </clipPath>
    <clipPath
       clipPathUnits="userSpaceOnUse"
       id="clipPath71387">
      <path
         d="M 0,3189 H 2006.732 V 0 H 0 Z"
         id="path71385"
         inkscape:connector-curvature="0" />
    </clipPath>
    <clipPath
       clipPathUnits="userSpaceOnUse"
       id="clipPath71347">
      <path
         d="M 652.694,2493.36 H 680.84 V 2479.2 H 652.694 Z"
         id="path71345"
         inkscape:connector-curvature="0" />
    </clipPath>
    <clipPath
       clipPathUnits="userSpaceOnUse"
       id="clipPath71315">
      <path
         d="m 771.718,2529.918 c -1.379,-0.769 -3.571,-0.747 -4.891,0.049 v 0 c -0.642,0.387 -0.962,0.884 -0.962,1.383 v 0 l -0.284,-34.963 c 0,-0.499 0.318,-0.996 0.961,-1.382 v 0 c 1.324,-0.797 3.513,-0.817 4.89,-0.049 v 0 c 0.708,0.394 1.068,0.923 1.066,1.448 v 0 l 0.283,34.965 c 0,-0.529 -0.357,-1.056 -1.063,-1.451"
         id="path71313"
         inkscape:connector-curvature="0" />
    </clipPath>
    <clipPath
       clipPathUnits="userSpaceOnUse"
       id="clipPath71279">
      <path
         d="m 764.006,2504.18 h 28.147 v -14.16 h -28.147 z"
         id="path71277"
         inkscape:connector-curvature="0" />
    </clipPath>
    <clipPath
       clipPathUnits="userSpaceOnUse"
       id="clipPath71235">
      <path
         d="m 838.289,2627.383 c -0.615,-0.361 -1.234,-0.717 -1.846,-1.074 v 0 c 5.155,2.995 12.292,2.581 20.15,-1.959 v 0 l 1.849,1.074 c -4.556,2.629 -8.867,3.874 -12.69,3.874 v 0 c -2.776,0 -5.295,-0.656 -7.463,-1.915"
         id="path71233"
         inkscape:connector-curvature="0" />
    </clipPath>
    <clipPath
       clipPathUnits="userSpaceOnUse"
       id="clipPath71223">
      <path
         d="m 838.415,2622.911 c -4.587,-2.666 -7.441,-8.328 -7.462,-16.371 v 0 l 1.845,1.071 c 0.024,8.044 2.874,13.706 7.462,16.373 v 0 c -0.615,-0.358 -1.229,-0.715 -1.845,-1.073"
         id="path71221"
         inkscape:connector-curvature="0" />
    </clipPath>
    <clipPath
       clipPathUnits="userSpaceOnUse"
       id="clipPath71167">
      <path
         d="m 824.903,2500.79 h 28.146 v -14.16 h -28.146 z"
         id="path71165"
         inkscape:connector-curvature="0" />
    </clipPath>
    <clipPath
       clipPathUnits="userSpaceOnUse"
       id="clipPath71123">
      <path
         d="m 931.281,2625.369 1.848,-1.073 c 7.861,4.539 14.996,4.954 20.151,1.958 v 0 c -0.616,0.357 -1.231,0.715 -1.846,1.074 v 0 c -2.169,1.259 -4.688,1.915 -7.465,1.915 v 0 c -3.823,0 -8.134,-1.244 -12.688,-3.874"
         id="path71121"
         inkscape:connector-curvature="0" />
    </clipPath>
    <clipPath
       clipPathUnits="userSpaceOnUse"
       id="clipPath71111">
      <path
         d="m 949.541,2623.886 c -0.026,0.016 -0.052,0.031 -0.078,0.046 v 0 c 0.026,-0.015 0.052,-0.03 0.078,-0.046 m 7.379,-16.33 1.847,-1.071 c -0.021,8.043 -2.871,13.706 -7.459,16.372 v 0 c -0.589,0.342 -1.181,0.685 -1.767,1.029 v 0 c 4.542,-2.686 7.357,-8.331 7.379,-16.33"
         id="path71109"
         inkscape:connector-curvature="0" />
    </clipPath>
    <clipPath
       clipPathUnits="userSpaceOnUse"
       id="clipPath71031">
      <path
         d="m 953.681,2500.84 h 28.146 v -14.16 h -28.146 z"
         id="path71029"
         inkscape:connector-curvature="0" />
    </clipPath>
    <clipPath
       clipPathUnits="userSpaceOnUse"
       id="clipPath71631">
      <path
         d="m 1041.748,2621.839 1.366,-0.794 c 1.634,0.945 3.121,1.03 4.193,0.407 v 0 c -0.458,0.264 -0.911,0.531 -1.368,0.793 v 0 c -0.451,0.263 -0.975,0.4 -1.554,0.4 v 0 c -0.794,0 -1.691,-0.259 -2.637,-0.806"
         id="path71629"
         inkscape:connector-curvature="0" />
    </clipPath>
    <clipPath
       clipPathUnits="userSpaceOnUse"
       id="clipPath71571">
      <path
         d="M 0,3189 H 2006.732 V 0 H 0 Z"
         id="path71569"
         inkscape:connector-curvature="0" />
    </clipPath>
    <clipPath
       clipPathUnits="userSpaceOnUse"
       id="clipPath71559">
      <path
         d="m 1051.691,2596.476 c -1.483,-0.828 -3.841,-0.801 -5.264,0.055 v 0 c -0.69,0.414 -1.035,0.952 -1.035,1.485 v 0 l 0.047,-6.267 c 0,-0.535 0.346,-1.073 1.038,-1.489 v 0 c 1.422,-0.856 3.779,-0.88 5.262,-0.052 v 0 c 0.763,0.425 1.148,0.994 1.146,1.563 v 0 l -0.045,6.27 c 0,-0.569 -0.384,-1.138 -1.149,-1.565"
         id="path71557"
         inkscape:connector-curvature="0" />
    </clipPath>
    <clipPath
       clipPathUnits="userSpaceOnUse"
       id="clipPath71543">
      <path
         d="M 0,3189 H 2006.732 V 0 H 0 Z"
         id="path71541"
         inkscape:connector-curvature="0" />
    </clipPath>
    <clipPath
       clipPathUnits="userSpaceOnUse"
       id="clipPath71531">
      <path
         d="m 1052.958,2522.024 c 0,0.011 10e-4,0.021 10e-4,0.031 v 0 z m -8.241,-40.393 c 0,-0.569 0.367,-1.14 1.101,-1.582 v 0 c 1.514,-0.911 4.02,-0.937 5.599,-0.057 v 0 c 0.815,0.454 1.218,1.057 1.218,1.661 v 0 l 0.323,40.371 c -0.011,-0.595 -0.417,-1.186 -1.216,-1.631 v 0 c -1.58,-0.88 -4.084,-0.854 -5.597,0.057 v 0 c -0.737,0.445 -1.102,1.012 -1.102,1.584 v 0 z"
         id="path71529"
         inkscape:connector-curvature="0" />
    </clipPath>
    <clipPath
       clipPathUnits="userSpaceOnUse"
       id="clipPath71499">
      <path
         d="m 1042.06,2490.83 h 32.22 v -16.21 h -32.22 z"
         id="path71497"
         inkscape:connector-curvature="0" />
    </clipPath>
    <clipPath
       clipPathUnits="userSpaceOnUse"
       id="clipPath71459">
      <path
         d="m 1134.87,2533.07 h 19.53 v -9.82 h -19.53 z"
         id="path71457"
         inkscape:connector-curvature="0" />
    </clipPath>
    <clipPath
       clipPathUnits="userSpaceOnUse"
       id="clipPath71951">
      <path
         d="m 1187.11,2640.9 h 2.83 v -2.82 h -2.83 z"
         id="path71949"
         inkscape:connector-curvature="0" />
    </clipPath>
    <clipPath
       clipPathUnits="userSpaceOnUse"
       id="clipPath71919">
      <path
         d="m 1173.2,2622.469 c -0.01,-2.304 1.511,-4.608 4.555,-6.364 v 0 c 6.056,-3.494 15.826,-3.494 21.846,0 v 0 c 2.981,1.737 4.476,4 4.48,6.273 v 0 l 0.01,1.527 c -0.01,-2.272 -1.498,-4.54 -4.483,-6.272 v 0 c -6.019,-3.501 -15.785,-3.501 -21.844,0 v 0 c -3.039,1.754 -4.559,4.059 -4.553,6.359 v 0 l -0.01,-1.523 z"
         id="path71917"
         inkscape:connector-curvature="0" />
    </clipPath>
    <clipPath
       clipPathUnits="userSpaceOnUse"
       id="clipPath71899">
      <path
         d="M 0,3189 H 2006.732 V 0 H 0 Z"
         id="path71897"
         inkscape:connector-curvature="0" />
    </clipPath>
    <clipPath
       clipPathUnits="userSpaceOnUse"
       id="clipPath71887">
      <path
         d="m 1177.626,2617.528 c 0,-1.642 1.081,-3.285 3.248,-4.538 v 0 c 4.323,-2.497 11.29,-2.497 15.584,0 v 0 c 2.131,1.238 3.195,2.854 3.199,4.475 v 0 1.089 c -0.01,-1.618 -1.069,-3.237 -3.2,-4.477 v 0 c -4.291,-2.494 -11.259,-2.494 -15.585,0 v 0 c -2.167,1.255 -3.252,2.895 -3.249,4.539 v 0 l -10e-4,-1.088 z"
         id="path71885"
         inkscape:connector-curvature="0" />
    </clipPath>
    <clipPath
       clipPathUnits="userSpaceOnUse"
       id="clipPath71871">
      <path
         d="M 0,3189 H 2006.732 V 0 H 0 Z"
         id="path71869"
         inkscape:connector-curvature="0" />
    </clipPath>
    <clipPath
       clipPathUnits="userSpaceOnUse"
       id="clipPath71859">
      <path
         d="m 1193.538,2588.494 c 0,0.041 0,0.082 0,0.124 v 0 c -10e-4,-0.036 0,-0.078 0,-0.124 m -7.681,-2.925 c 1.411,-0.864 3.477,-1.004 5.137,-0.343 v 0 c 0.539,0.213 1.301,0.622 1.861,1.372 v 0 c 0.585,0.776 0.665,1.504 0.683,1.896 v 0 c -0.051,-0.686 -0.54,-1.36 -1.463,-1.872 v 0 c -1.897,-1.059 -4.906,-1.028 -6.727,0.065 v 0 c -0.883,0.531 -1.322,1.218 -1.328,1.902 v 0 c 0.01,-0.71 0.248,-2.046 1.837,-3.02"
         id="path71857"
         inkscape:connector-curvature="0" />
    </clipPath>
    <clipPath
       clipPathUnits="userSpaceOnUse"
       id="clipPath71843">
      <path
         d="M 0,3189 H 2006.732 V 0 H 0 Z"
         id="path71841"
         inkscape:connector-curvature="0" />
    </clipPath>
    <clipPath
       clipPathUnits="userSpaceOnUse"
       id="clipPath71831">
      <path
         d="m 1192.537,2544.685 c -2.095,-1.165 -5.421,-1.133 -7.428,0.075 v 0 c -0.974,0.588 -1.459,1.344 -1.461,2.1 v 0 l 0.068,-23.266 c 0,-0.756 0.486,-1.512 1.457,-2.1 v 0 c 2.011,-1.208 5.336,-1.242 7.429,-0.075 v 0 c 1.076,0.602 1.619,1.403 1.617,2.205 v 0 l -0.068,23.266 c 0,-0.802 -0.538,-1.604 -1.614,-2.205"
         id="path71829"
         inkscape:connector-curvature="0" />
    </clipPath>
    <clipPath
       clipPathUnits="userSpaceOnUse"
       id="clipPath71803">
      <path
         d="m 1177.58,2507.07 h 33.66 v -19.5 h -33.66 z"
         id="path71801"
         inkscape:connector-curvature="0" />
    </clipPath>
    <clipPath
       clipPathUnits="userSpaceOnUse"
       id="clipPath72971">
      <path
         d="m 1333.336,2537.853 c 0.226,-0.128 0.57,-0.237 0.764,-0.244 v 0 l 0.666,1.847 c -0.198,0.01 -0.539,0.115 -0.765,0.245 v 0 z"
         id="path72969"
         inkscape:connector-curvature="0" />
    </clipPath>
    <clipPath
       clipPathUnits="userSpaceOnUse"
       id="clipPath72939">
      <path
         d="M 0,3189 H 2006.732 V 0 H 0 Z"
         id="path72937"
         inkscape:connector-curvature="0" />
    </clipPath>
    <clipPath
       clipPathUnits="userSpaceOnUse"
       id="clipPath72927">
      <path
         d="m 1337.811,2539.356 -0.663,-1.845 c 0.076,0 0.121,0.011 0.131,0.037 v 0 l 0.664,1.847 c -0.01,-0.025 -0.055,-0.039 -0.132,-0.039"
         id="path72925"
         inkscape:connector-curvature="0" />
    </clipPath>
    <clipPath
       clipPathUnits="userSpaceOnUse"
       id="clipPath72915">
      <path
         d="M 0,3189 H 2006.732 V 0 H 0 Z"
         id="path72913"
         inkscape:connector-curvature="0" />
    </clipPath>
    <clipPath
       clipPathUnits="userSpaceOnUse"
       id="clipPath72903">
      <path
         d="m 1327.639,2541.162 c -0.015,-0.039 0.047,-0.104 0.183,-0.183 v 0 l 0.665,1.85 c -0.137,0.074 -0.199,0.142 -0.184,0.179 v 0 z"
         id="path72901"
         inkscape:connector-curvature="0" />
    </clipPath>
    <clipPath
       clipPathUnits="userSpaceOnUse"
       id="clipPath71763">
      <path
         d="m 1276.547,2635.899 c 12.895,-7.445 23.349,-25.554 23.309,-40.369 v 0 l 2.855,1.658 c 0.042,14.82 -10.414,32.927 -23.31,40.373 v 0 z"
         id="path71761"
         inkscape:connector-curvature="0" />
    </clipPath>
    <clipPath
       clipPathUnits="userSpaceOnUse"
       id="clipPath71671">
      <path
         d="m 1294.47,2475.93 h 32.22 v -16.22 h -32.22 z"
         id="path71669"
         inkscape:connector-curvature="0" />
    </clipPath>
    <clipPath
       clipPathUnits="userSpaceOnUse"
       id="clipPath73155">
      <path
         d="m 1416.593,2489.377 c 0.227,-0.127 0.567,-0.232 0.762,-0.241 v 0 l 0.664,1.847 c -0.194,0.01 -0.535,0.113 -0.762,0.245 v 0 z"
         id="path73153"
         inkscape:connector-curvature="0" />
    </clipPath>
    <clipPath
       clipPathUnits="userSpaceOnUse"
       id="clipPath73123">
      <path
         d="M 0,3189 H 2006.732 V 0 H 0 Z"
         id="path73121"
         inkscape:connector-curvature="0" />
    </clipPath>
    <clipPath
       clipPathUnits="userSpaceOnUse"
       id="clipPath73111">
      <path
         d="m 1421.067,2490.885 -0.663,-1.847 c 0.078,0 0.124,0.011 0.132,0.037 v 0 l 0.663,1.848 c -0.01,-0.026 -0.053,-0.04 -0.132,-0.038"
         id="path73109"
         inkscape:connector-curvature="0" />
    </clipPath>
    <clipPath
       clipPathUnits="userSpaceOnUse"
       id="clipPath73099">
      <path
         d="M 0,3189 H 2006.732 V 0 H 0 Z"
         id="path73097"
         inkscape:connector-curvature="0" />
    </clipPath>
    <clipPath
       clipPathUnits="userSpaceOnUse"
       id="clipPath73087">
      <path
         d="m 1410.896,2492.688 c -0.016,-0.038 0.047,-0.103 0.183,-0.179 v 0 l 0.663,1.847 c -0.135,0.074 -0.198,0.142 -0.185,0.178 v 0 z"
         id="path73085"
         inkscape:connector-curvature="0" />
    </clipPath>
    <clipPath
       clipPathUnits="userSpaceOnUse"
       id="clipPath73075">
      <path
         d="M 0,3189 H 2006.732 V 0 H 0 Z"
         id="path73073"
         inkscape:connector-curvature="0" />
    </clipPath>
    <clipPath
       clipPathUnits="userSpaceOnUse"
       id="clipPath73063">
      <path
         d="m 1372.721,2514.85 c 0.226,-0.128 0.568,-0.236 0.764,-0.243 v 0 l 0.661,1.848 c -0.194,0.01 -0.535,0.112 -0.762,0.243 v 0 z"
         id="path73061"
         inkscape:connector-curvature="0" />
    </clipPath>
    <clipPath
       clipPathUnits="userSpaceOnUse"
       id="clipPath73031">
      <path
         d="M 0,3189 H 2006.732 V 0 H 0 Z"
         id="path73029"
         inkscape:connector-curvature="0" />
    </clipPath>
    <clipPath
       clipPathUnits="userSpaceOnUse"
       id="clipPath73019">
      <path
         d="m 1377.195,2516.356 -0.664,-1.847 c 0.078,0 0.123,0.011 0.133,0.037 v 0 l 0.662,1.847 c -0.01,-0.026 -0.052,-0.041 -0.131,-0.037"
         id="path73017"
         inkscape:connector-curvature="0" />
    </clipPath>
    <clipPath
       clipPathUnits="userSpaceOnUse"
       id="clipPath73007">
      <path
         d="M 0,3189 H 2006.732 V 0 H 0 Z"
         id="path73005"
         inkscape:connector-curvature="0" />
    </clipPath>
    <clipPath
       clipPathUnits="userSpaceOnUse"
       id="clipPath72995">
      <path
         d="m 1367.022,2518.16 c -0.013,-0.039 0.049,-0.104 0.186,-0.183 v 0 l 0.662,1.847 c -0.136,0.077 -0.198,0.145 -0.184,0.184 v 0 z"
         id="path72993"
         inkscape:connector-curvature="0" />
    </clipPath>
    <clipPath
       clipPathUnits="userSpaceOnUse"
       id="clipPath72983">
      <path
         d="M 0,3189 H 2006.732 V 0 H 0 Z"
         id="path72981"
         inkscape:connector-curvature="0" />
    </clipPath>
    <clipPath
       clipPathUnits="userSpaceOnUse"
       id="clipPath72767">
      <path
         d="m 1383.89,2498.5 h 2.68 v -17.4 h -2.68 z"
         id="path72765"
         inkscape:connector-curvature="0" />
    </clipPath>
    <clipPath
       clipPathUnits="userSpaceOnUse"
       id="clipPath72731">
      <path
         d="m 1386.08,2532.79 h 123.22 v -69.66 h -123.22 z"
         id="path72729"
         inkscape:connector-curvature="0" />
    </clipPath>
    <clipPath
       clipPathUnits="userSpaceOnUse"
       id="clipPath72487">
      <path
         d="m 1508.396,2571.276 c -1.262,-0.735 -1.891,-1.693 -1.895,-2.656 v 0 l -0.045,-14.95 c 0,0.963 0.634,1.924 1.896,2.656 v 0 c 2.542,1.475 6.685,1.475 9.241,0 v 0 c 1.285,-0.741 1.927,-1.719 1.925,-2.693 v 0 l 0.041,14.947 c 0.01,0.977 -0.639,1.952 -1.924,2.696 v 0 c -1.278,0.737 -2.953,1.106 -4.626,1.106 v 0 c -1.673,0 -3.344,-0.369 -4.613,-1.106"
         id="path72485"
         inkscape:connector-curvature="0" />
    </clipPath>
    <clipPath
       clipPathUnits="userSpaceOnUse"
       id="clipPath72459">
      <path
         d="M 0,3189 H 2006.732 V 0 H 0 Z"
         id="path72457"
         inkscape:connector-curvature="0" />
    </clipPath>
    <clipPath
       clipPathUnits="userSpaceOnUse"
       id="clipPath72447">
      <path
         d="m 1612.267,2568.964 1.487,-0.865 c 8.078,4.664 15.41,5.092 20.704,2.013 v 0 c -0.495,0.288 -0.991,0.578 -1.485,0.865 v 0 c -2.228,1.295 -4.816,1.97 -7.668,1.97 v 0 c -3.928,0 -8.358,-1.28 -13.038,-3.983"
         id="path72445"
         inkscape:connector-curvature="0" />
    </clipPath>
    <clipPath
       clipPathUnits="userSpaceOnUse"
       id="clipPath72251">
      <path
         d="M 0,3189 H 2006.732 V 0 H 0 Z"
         id="path72249"
         inkscape:connector-curvature="0" />
    </clipPath>
    <clipPath
       clipPathUnits="userSpaceOnUse"
       id="clipPath72271">
      <path
         d="M 1531.21,2627.09 H 1639.1 V 2475.75 H 1531.21 Z"
         id="path72269"
         inkscape:connector-curvature="0" />
    </clipPath>
    <clipPath
       clipPathUnits="userSpaceOnUse"
       id="clipPath72287">
      <path
         d="m 1472.92,2632.38 h 160.59 v -85.06 h -160.59 z"
         id="path72285"
         inkscape:connector-curvature="0" />
    </clipPath>
    <clipPath
       clipPathUnits="userSpaceOnUse"
       id="clipPath72303">
      <path
         d="m 1575.91,2571.87 h 66.18 v -96.12 h -66.18 z"
         id="path72301"
         inkscape:connector-curvature="0" />
    </clipPath>
    <clipPath
       clipPathUnits="userSpaceOnUse"
       id="clipPath72423">
      <path
         d="m 1614.22,2570.07 h 27.01 v -106.23 h -27.01 z"
         id="path72421"
         inkscape:connector-curvature="0" />
    </clipPath>
    <clipPath
       clipPathUnits="userSpaceOnUse"
       id="clipPath72239">
      <path
         d="m 1507.015,2629.47 1.488,-0.864 c 8.076,4.665 15.406,5.09 20.704,2.014 v 0 c -0.495,0.288 -0.993,0.575 -1.488,0.863 v 0 c -2.228,1.295 -4.814,1.97 -7.666,1.97 v 0 c -3.928,-10e-4 -8.358,-1.281 -13.038,-3.983"
         id="path72237"
         inkscape:connector-curvature="0" />
    </clipPath>
    <clipPath
       clipPathUnits="userSpaceOnUse"
       id="clipPath72227">
      <path
         d="m 1532.328,2610.58 1.487,-0.864 c -0.022,7.937 -2.832,13.527 -7.362,16.159 v 0 c -0.496,0.29 -0.994,0.577 -1.488,0.865 v 0 c 4.528,-2.634 7.341,-8.222 7.363,-16.16"
         id="path72225"
         inkscape:connector-curvature="0" />
    </clipPath>
    <clipPath
       clipPathUnits="userSpaceOnUse"
       id="clipPath72195">
      <path
         d="m 1509.25,2629.17 h 25.89 v -104.55 h -25.89 z"
         id="path72193"
         inkscape:connector-curvature="0" />
    </clipPath>
    <clipPath
       clipPathUnits="userSpaceOnUse"
       id="clipPath71967">
      <path
         d="m 1537.68,2555.25 h 147.82 v -95.16 h -147.82 z"
         id="path71965"
         inkscape:connector-curvature="0" />
    </clipPath>
    <clipPath
       clipPathUnits="userSpaceOnUse"
       id="clipPath73839">
      <path
         d="m 1739.424,2572.398 c 0.482,-0.185 1.125,-0.478 1.937,-0.946 v 0 c 1.005,-0.579 1.735,-1.27 2.201,-2.024 v 0 l 0.742,0.438 c -0.463,0.75 -1.196,1.436 -2.197,2.019 v 0 c -0.81,0.469 -1.454,0.759 -1.94,0.947 v 0 z"
         id="path73837"
         inkscape:connector-curvature="0" />
    </clipPath>
    <clipPath
       clipPathUnits="userSpaceOnUse"
       id="clipPath73827">
      <path
         d="M 0,3189 H 2006.732 V 0 H 0 Z"
         id="path73825"
         inkscape:connector-curvature="0" />
    </clipPath>
    <clipPath
       clipPathUnits="userSpaceOnUse"
       id="clipPath73815">
      <path
         d="m 1740.803,2571.188 c -0.126,-0.073 -0.248,-0.143 -0.371,-0.216 v 0 c 0.172,-0.046 0.508,-0.204 0.953,-0.457 v 0 l 0.746,0.431 c -0.445,0.255 -0.781,0.411 -0.953,0.458 v 0 c -0.124,-0.07 -0.25,-0.144 -0.375,-0.216"
         id="path73813"
         inkscape:connector-curvature="0" />
    </clipPath>
    <clipPath
       clipPathUnits="userSpaceOnUse"
       id="clipPath73803">
      <path
         d="m 1744.301,2565.965 c 0.012,0 0.024,0.011 0.033,0.016 v 0 c 0.012,0.01 0.025,0.018 0.043,0.029 v 0 z m -0.01,0 c -0.235,-0.138 -0.467,-0.274 -0.705,-0.412 v 0 c 0.017,0.01 0.029,0.013 0.044,0.024 v 0 l 0.669,0.391 c 0,0 -0.01,0 -0.01,0"
         id="path73801"
         inkscape:connector-curvature="0" />
    </clipPath>
    <clipPath
       clipPathUnits="userSpaceOnUse"
       id="clipPath73787">
      <path
         d="m 1743.562,2569.428 c 0.427,-0.673 0.684,-1.477 0.678,-2.279 v 0 c 0,-0.813 -0.215,-1.336 -0.608,-1.575 v 0 l 0.745,0.436 c 0.394,0.239 0.607,0.754 0.61,1.575 v 0 c 0,0.8 -0.252,1.601 -0.683,2.281 v 0 z"
         id="path73785"
         inkscape:connector-curvature="0" />
    </clipPath>
    <clipPath
       clipPathUnits="userSpaceOnUse"
       id="clipPath73767">
      <path
         d="m 1741.385,2570.515 c 0.33,-0.192 0.627,-0.414 0.877,-0.66 v 0 c 0.045,0.028 0.09,0.052 0.135,0.079 v 0 c -0.045,-0.027 -0.09,-0.051 -0.135,-0.079 v 0 c 0.607,-0.591 0.967,-1.338 0.967,-2.172 v 0 c 0,-0.562 -0.153,-0.919 -0.433,-1.083 v 0 l 0.748,0.434 c 0.278,0.158 0.429,0.523 0.429,1.078 v 0 c 0,0.839 -0.357,1.581 -0.964,2.179 v 0 c -0.256,0.244 -0.548,0.464 -0.878,0.655 v 0 z"
         id="path73765"
         inkscape:connector-curvature="0" />
    </clipPath>
    <clipPath
       clipPathUnits="userSpaceOnUse"
       id="clipPath73755">
      <path
         d="m 1740.42,2566.517 c 0.227,-0.203 0.51,-0.374 0.812,-0.547 v 0 c 0.959,-0.558 1.82,-0.731 2.356,-0.42 v 0 c 0.246,0.142 0.498,0.288 0.746,0.431 v 0 c -0.541,-0.313 -1.399,-0.137 -2.355,0.421 v 0 c -0.306,0.177 -0.583,0.348 -0.819,0.549 v 0 z"
         id="path73753"
         inkscape:connector-curvature="0" />
    </clipPath>
    <clipPath
       clipPathUnits="userSpaceOnUse"
       id="clipPath73743">
      <path
         d="M 0,3189 H 2006.732 V 0 H 0 Z"
         id="path73741"
         inkscape:connector-curvature="0" />
    </clipPath>
    <clipPath
       clipPathUnits="userSpaceOnUse"
       id="clipPath73731">
      <path
         d="m 1741.256,2566.893 c 0.673,-0.391 1.201,-0.489 1.54,-0.293 v 0 c 0.249,0.146 0.499,0.293 0.748,0.434 v 0 c -0.34,-0.196 -0.87,-0.098 -1.542,0.289 v 0 z"
         id="path73729"
         inkscape:connector-curvature="0" />
    </clipPath>
    <clipPath
       clipPathUnits="userSpaceOnUse"
       id="clipPath73719">
      <path
         d="M 0,3189 H 2006.732 V 0 H 0 Z"
         id="path73717"
         inkscape:connector-curvature="0" />
    </clipPath>
    <clipPath
       clipPathUnits="userSpaceOnUse"
       id="clipPath73707">
      <path
         d="m 1740.422,2567.469 c 0.217,-0.198 0.497,-0.386 0.834,-0.576 v 0 l 0.746,0.43 c -0.336,0.194 -0.615,0.384 -0.838,0.579 v 0 z"
         id="path73705"
         inkscape:connector-curvature="0" />
    </clipPath>
    <clipPath
       clipPathUnits="userSpaceOnUse"
       id="clipPath73683">
      <path
         d="M 0,3189 H 2006.732 V 0 H 0 Z"
         id="path73681"
         inkscape:connector-curvature="0" />
    </clipPath>
    <clipPath
       clipPathUnits="userSpaceOnUse"
       id="clipPath73663">
      <path
         d="m 1734.574,2575.452 c 2.14,-1.238 3.521,-3.923 3.512,-6.597 v 0 c 0,-1.591 -0.434,-2.549 -1.127,-2.947 v 0 l 0.747,0.431 c 0.688,0.402 1.124,1.357 1.13,2.949 v 0 c 0,2.672 -1.377,5.358 -3.52,6.596 v 0 z"
         id="path73661"
         inkscape:connector-curvature="0" />
    </clipPath>
    <clipPath
       clipPathUnits="userSpaceOnUse"
       id="clipPath73647">
      <path
         d="m 1735.631,2573.567 c 0.934,-1.152 1.386,-2.805 1.384,-4.148 v 0 c 0,-0.673 -0.098,-1.252 -0.29,-1.692 v 0 c -0.151,-0.351 -0.363,-0.615 -0.629,-0.765 v 0 l 0.748,0.426 c 0.262,0.156 0.476,0.417 0.625,0.77 v 0 c 0.192,0.44 0.292,1.021 0.294,1.695 v 0 c 0,1.344 -0.452,2.996 -1.389,4.148 v 0 c -0.25,-0.143 -0.496,-0.285 -0.743,-0.434 m 1.33,-5.703 c 0,0 0,0 0,0 m -0.181,-0.102 c 0,0 0,0 0.01,10e-4 v 0 c 0,0 -0.01,-0.01 -0.011,-0.01 v 0 c 0,0 0,0 0,0.01"
         id="path73645"
         inkscape:connector-curvature="0" />
    </clipPath>
    <clipPath
       clipPathUnits="userSpaceOnUse"
       id="clipPath73635">
      <path
         d="m 1732.818,2576.162 -0.742,-0.433 c 0.642,0.377 1.507,0.292 2.498,-0.277 v 0 l 0.742,0.432 c -0.585,0.339 -1.13,0.506 -1.612,0.506 v 0 c -0.327,0 -0.625,-0.077 -0.886,-0.228"
         id="path73633"
         inkscape:connector-curvature="0" />
    </clipPath>
    <clipPath
       clipPathUnits="userSpaceOnUse"
       id="clipPath73619">
      <path
         d="m 1734.53,2574.526 c 0.418,-0.242 0.786,-0.573 1.101,-0.959 v 0 c 0.247,0.149 0.493,0.291 0.743,0.434 v 0 c -0.316,0.388 -0.682,0.713 -1.102,0.957 v 0 c -0.222,-0.132 -0.523,-0.301 -0.742,-0.432"
         id="path73617"
         inkscape:connector-curvature="0" />
    </clipPath>
    <clipPath
       clipPathUnits="userSpaceOnUse"
       id="clipPath73607">
      <path
         d="m 1733.66,2575.136 c -0.212,-0.123 -0.495,-0.292 -0.713,-0.414 v 0 c 0.397,0.216 0.923,0.18 1.583,-0.196 v 0 l 0.742,0.432 c -0.391,0.225 -0.738,0.328 -1.039,0.328 v 0 c -0.214,0 -0.405,-0.053 -0.573,-0.15 m -0.739,-0.429 c 0.01,0.01 0.017,0.01 0.026,0.015 v 0 c -0.01,-0.01 -0.017,-0.01 -0.026,-0.015"
         id="path73605"
         inkscape:connector-curvature="0" />
    </clipPath>
    <clipPath
       clipPathUnits="userSpaceOnUse"
       id="clipPath73595">
      <path
         d="M 0,3189 H 2006.732 V 0 H 0 Z"
         id="path73593"
         inkscape:connector-curvature="0" />
    </clipPath>
    <clipPath
       clipPathUnits="userSpaceOnUse"
       id="clipPath73575">
      <path
         d="m 1732.921,2574.707 c -0.608,-0.355 -0.918,-1.294 -0.921,-2.484 v 0 c -0.01,-1.926 0.9,-4.174 2.494,-5.097 v 0 l 0.748,0.435 c -1.6,0.919 -2.5,3.166 -2.495,5.094 v 0 c 10e-4,1.188 0.306,2.128 0.913,2.481 v 0 c -0.248,-0.146 -0.494,-0.289 -0.739,-0.429"
         id="path73573"
         inkscape:connector-curvature="0" />
    </clipPath>
    <clipPath
       clipPathUnits="userSpaceOnUse"
       id="clipPath73563">
      <path
         d="m 1732.076,2575.729 c -0.716,-0.416 -1.153,-1.399 -1.158,-2.909 v 0 c 0,-0.633 0.076,-1.262 0.22,-1.874 v 0 c 0.018,0.012 0.035,0.023 0.055,0.033 v 0 c -0.02,-0.01 -0.037,-0.021 -0.055,-0.033 v 0 c 0.012,-0.048 0.024,-0.097 0.035,-0.141 v 0 c 0.25,0.141 0.498,0.287 0.743,0.429 v 0 c -0.012,0.057 -0.023,0.105 -0.038,0.157 v 0 c -0.142,0.606 -0.215,1.231 -0.212,1.86 v 0 c 10e-4,1.51 0.441,2.498 1.152,2.911 v 0 z"
         id="path73561"
         inkscape:connector-curvature="0" />
    </clipPath>
    <clipPath
       clipPathUnits="userSpaceOnUse"
       id="clipPath73543">
      <path
         d="M 0,3189 H 2006.732 V 0 H 0 Z"
         id="path73541"
         inkscape:connector-curvature="0" />
    </clipPath>
    <clipPath
       clipPathUnits="userSpaceOnUse"
       id="clipPath73531">
      <path
         d="m 1734.432,2566.209 c 0.979,-0.558 1.869,-0.688 2.527,-0.301 v 0 l 0.747,0.431 c -0.661,-0.384 -1.551,-0.257 -2.53,0.305 v 0 c -0.219,-0.131 -0.519,-0.305 -0.744,-0.435"
         id="path73529"
         inkscape:connector-curvature="0" />
    </clipPath>
    <clipPath
       clipPathUnits="userSpaceOnUse"
       id="clipPath73519">
      <path
         d="m 1734.494,2567.126 c 0.654,-0.376 1.194,-0.403 1.602,-0.164 v 0 l 0.748,0.426 c -0.409,-0.234 -0.949,-0.206 -1.602,0.173 v 0 z"
         id="path73517"
         inkscape:connector-curvature="0" />
    </clipPath>
    <clipPath
       clipPathUnits="userSpaceOnUse"
       id="clipPath73499">
      <path
         d="M 0,3189 H 2006.732 V 0 H 0 Z"
         id="path73497"
         inkscape:connector-curvature="0" />
    </clipPath>
    <clipPath
       clipPathUnits="userSpaceOnUse"
       id="clipPath73479">
      <path
         d="m 1731.173,2570.805 c 0.502,-1.959 1.705,-3.696 3.259,-4.596 v 0 l 0.744,0.435 c -1.552,0.898 -2.755,2.629 -3.26,4.59 v 0 c -0.245,-0.142 -0.493,-0.288 -0.743,-0.429"
         id="path73477"
         inkscape:connector-curvature="0" />
    </clipPath>
    <clipPath
       clipPathUnits="userSpaceOnUse"
       id="clipPath73463">
      <path
         d="M 0,3189 H 2006.732 V 0 H 0 Z"
         id="path73461"
         inkscape:connector-curvature="0" />
    </clipPath>
    <clipPath
       clipPathUnits="userSpaceOnUse"
       id="clipPath73447">
      <path
         d="m 1722.489,2582.43 c 0.805,-0.466 1.388,-1.017 1.735,-1.448 v 0 l 0.745,0.436 c -0.348,0.428 -0.927,0.977 -1.734,1.443 v 0 z"
         id="path73445"
         inkscape:connector-curvature="0" />
    </clipPath>
    <clipPath
       clipPathUnits="userSpaceOnUse"
       id="clipPath73431">
      <path
         d="m 1723.739,2580.426 c 0.083,-0.085 0.15,-0.166 0.203,-0.23 v 0 l 0.74,0.431 c -0.047,0.069 -0.118,0.145 -0.196,0.235 v 0 c -0.253,-0.144 -0.498,-0.29 -0.747,-0.436"
         id="path73429"
         inkscape:connector-curvature="0" />
    </clipPath>
    <clipPath
       clipPathUnits="userSpaceOnUse"
       id="clipPath73419">
      <path
         d="m 1722.036,2582.116 -0.745,-0.431 c 0.24,0.138 0.613,0.115 1.162,-0.203 v 0 c 0.557,-0.322 1.002,-0.742 1.286,-1.056 v 0 c 0.249,0.146 0.494,0.292 0.747,0.436 v 0 c -0.288,0.315 -0.732,0.734 -1.29,1.052 v 0 c -0.344,0.2 -0.619,0.284 -0.836,0.284 v 0 c -0.128,0 -0.236,-0.029 -0.324,-0.082"
         id="path73417"
         inkscape:connector-curvature="0" />
    </clipPath>
    <clipPath
       clipPathUnits="userSpaceOnUse"
       id="clipPath73407">
      <path
         d="m 1721.266,2583.16 -0.745,-0.429 c 0.449,0.261 1.133,0.181 1.968,-0.301 v 0 l 0.746,0.431 c -0.526,0.302 -0.993,0.446 -1.378,0.446 v 0 c -0.226,0 -0.425,-0.05 -0.591,-0.147"
         id="path73405"
         inkscape:connector-curvature="0" />
    </clipPath>
    <clipPath
       clipPathUnits="userSpaceOnUse"
       id="clipPath73391">
      <path
         d="M 0,3189 H 2006.732 V 0 H 0 Z"
         id="path73389"
         inkscape:connector-curvature="0" />
    </clipPath>
    <clipPath
       clipPathUnits="userSpaceOnUse"
       id="clipPath73363">
      <path
         d="m 1721.291,2581.685 c -0.222,-0.128 -0.314,-0.401 -0.317,-0.703 v 0 c 0,-0.84 0.473,-1.525 1.555,-2.634 v 0 c 1.32,-1.351 1.997,-2.482 1.993,-3.805 v 0 c 0,-0.653 -0.202,-1.15 -0.604,-1.383 v 0 c 0.249,0.144 0.497,0.29 0.745,0.431 v 0 c 0.399,0.235 0.6,0.735 0.604,1.386 v 0 c 0,1.323 -0.672,2.451 -1.996,3.802 v 0 c -1.081,1.109 -1.557,1.797 -1.552,2.639 v 0 c 0,0.3 0.097,0.573 0.317,0.698 v 0 z"
         id="path73361"
         inkscape:connector-curvature="0" />
    </clipPath>
    <clipPath
       clipPathUnits="userSpaceOnUse"
       id="clipPath73351">
      <path
         d="M 0,3189 H 2006.732 V 0 H 0 Z"
         id="path73349"
         inkscape:connector-curvature="0" />
    </clipPath>
    <clipPath
       clipPathUnits="userSpaceOnUse"
       id="clipPath73331">
      <path
         d="m 1720.521,2582.731 c -0.162,-0.094 -0.292,-0.233 -0.391,-0.416 v 0 c 0.2,0.118 0.394,0.23 0.596,0.344 v 0 c -0.202,-0.114 -0.396,-0.226 -0.596,-0.344 v 0 c -0.12,-0.23 -0.181,-0.518 -0.184,-0.872 v 0 c 0,-1.273 0.788,-2.49 2.067,-3.749 v 0 l 0.745,0.433 c -0.962,0.945 -1.642,1.868 -1.927,2.807 v 0 c -0.09,0.309 -0.138,0.625 -0.138,0.945 v 0 c 0,0.63 0.207,1.071 0.573,1.281 v 0 z m 0.205,-0.072 c 0,0 0,0 0,0 m 0.038,-1.64 -0.015,0.05 -0.011,0.047 -0.012,0.055 -0.01,0.052 -0.012,0.057 -0.01,0.052 -0.01,0.054 -0.01,0.052 v 0.057 0.055 l -0.01,0.057 v 0.049 0.053 0.048 0.048 -0.048 -0.048 -0.053 -0.049 l 0.01,-0.057 v -0.055 -0.057 l 0.01,-0.052 0.01,-0.054 0.01,-0.052 0.012,-0.057 0.01,-0.052 0.012,-0.055 0.011,-0.047 0.015,-0.05 0.016,-0.049 z m -0.125,0.756 c -0.018,0.01 -0.037,0.017 -0.067,0.017 v 0 c 0.03,0 0.049,-0.01 0.067,-0.017 m -0.127,0.01 c 0,0 0.01,0 0.01,0 v 0 c 0,0 -0.01,0 -0.01,0 v 0 c -0.079,-0.03 -0.141,-0.087 -0.215,-0.131 v 0 c 0.074,0.044 0.136,0.101 0.215,0.131 m 1.17,-2.623 -0.031,0.044 -0.035,0.045 -0.03,0.04 -0.035,0.046 -0.035,0.044 -0.035,0.049 -0.028,0.048 -0.033,0.046 -0.035,0.045 -0.028,0.046 -0.03,0.042 -0.032,0.047 -0.029,0.042 -0.024,0.043 -0.023,0.042 0.023,-0.042 0.024,-0.043 0.029,-0.042 0.032,-0.047 0.03,-0.042 0.028,-0.046 0.035,-0.045 0.033,-0.046 0.028,-0.048 0.035,-0.049 0.035,-0.044 0.035,-0.046 0.03,-0.04 0.035,-0.045 0.031,-0.044 0.032,-0.042 z m -0.566,-0.345 -0.034,0.044 -0.035,0.046 -0.031,0.046 -0.039,0.046 -0.032,0.048 -0.034,0.046 -0.036,0.047 -0.031,0.051 -0.034,0.045 -0.03,0.046 -0.031,0.05 -0.031,0.043 -0.025,0.044 -0.03,0.043 -0.024,0.042 0.024,-0.042 0.03,-0.043 0.025,-0.044 0.031,-0.043 0.031,-0.05 0.03,-0.046 0.034,-0.045 0.031,-0.051 0.036,-0.047 0.034,-0.046 0.032,-0.048 0.039,-0.046 0.031,-0.046 0.035,-0.046 0.034,-0.044 0.029,-0.04 z"
         id="path73329"
         inkscape:connector-curvature="0" />
    </clipPath>
    <clipPath
       clipPathUnits="userSpaceOnUse"
       id="clipPath73311">
      <path
         d="m 1722.013,2577.694 c 1.053,-1.079 1.474,-1.804 1.473,-2.646 v 0 c 0,-0.406 -0.123,-0.683 -0.356,-0.822 v 0 l 0.747,0.435 c 0.227,0.131 0.347,0.416 0.347,0.824 v 0 c 0.01,0.84 -0.41,1.564 -1.466,2.642 v 0 z"
         id="path73309"
         inkscape:connector-curvature="0" />
    </clipPath>
    <clipPath
       clipPathUnits="userSpaceOnUse"
       id="clipPath73299">
      <path
         d="m 1723.723,2573.481 c 0,0 -0.011,0 -0.03,-0.027 v 0 c -0.03,-0.022 -0.047,-0.041 -0.102,-0.05 v 0 c -0.025,0 -0.235,-0.039 -0.559,-0.046 v 0 c -0.457,-0.01 -0.885,0.055 -1.094,0.083 v 0 c 0.893,-0.482 1.551,-0.532 1.98,-0.281 v 0 l 0.745,0.431 c -0.241,-0.139 -0.553,-0.182 -0.94,-0.11"
         id="path73297"
         inkscape:connector-curvature="0" />
    </clipPath>
    <clipPath
       clipPathUnits="userSpaceOnUse"
       id="clipPath73283">
      <path
         d="m 1720.025,2576.095 c 0.455,-0.584 1.113,-1.233 1.814,-1.641 v 0 c 0.571,-0.329 1.011,-0.389 1.291,-0.228 v 0 l 0.747,0.435 c -0.283,-0.161 -0.725,-0.1 -1.294,0.229 v 0 c -0.697,0.405 -1.359,1.054 -1.81,1.632 v 0 z"
         id="path73281"
         inkscape:connector-curvature="0" />
    </clipPath>
    <clipPath
       clipPathUnits="userSpaceOnUse"
       id="clipPath73271">
      <path
         d="m 1721.768,2573.535 c 0.055,-0.035 0.111,-0.065 0.17,-0.094 v 0 c 0.209,-0.028 0.637,-0.092 1.094,-0.083 v 0 c 0.324,0.01 0.534,0.042 0.559,0.046 v 0 c 0.013,0 0.039,0.01 0.06,0.017 v 0 c 0.03,0.018 0.047,0.046 0.072,0.06 v 0 c -0.347,0.064 -0.746,0.219 -1.21,0.489 v 0 z"
         id="path73269"
         inkscape:connector-curvature="0" />
    </clipPath>
    <clipPath
       clipPathUnits="userSpaceOnUse"
       id="clipPath73255">
      <path
         d="m 1719.765,2575.264 c 0.421,-0.557 1.246,-1.291 2.003,-1.729 v 0 l 0.089,0.05 c 0.218,0.131 0.436,0.258 0.656,0.385 v 0 c -0.762,0.438 -1.582,1.168 -2.001,1.733 v 0 c -0.228,-0.133 -0.522,-0.304 -0.747,-0.439"
         id="path73253"
         inkscape:connector-curvature="0" />
    </clipPath>
    <clipPath
       clipPathUnits="userSpaceOnUse"
       id="clipPath73235">
      <path
         d="M 0,3189 H 2006.732 V 0 H 0 Z"
         id="path73233"
         inkscape:connector-curvature="0" />
    </clipPath>
    <clipPath
       clipPathUnits="userSpaceOnUse"
       id="clipPath73223">
      <path
         d="m 1730.642,2493.648 c 0,-0.259 0.172,-0.517 0.513,-0.713 v 0 c 0.673,-0.39 1.766,-0.39 2.437,0 v 0 c 0.335,0.196 0.502,0.447 0.502,0.702 v 0 l 0.026,70.787 c 0,-0.255 -0.171,-0.51 -0.5,-0.704 v 0 c -0.679,-0.39 -1.769,-0.39 -2.441,0 v 0 c -0.34,0.196 -0.511,0.453 -0.511,0.71 v 0 z"
         id="path73221"
         inkscape:connector-curvature="0" />
    </clipPath>
    <clipPath
       clipPathUnits="userSpaceOnUse"
       id="clipPath75063">
      <path
         d="m 1781.716,2590.5 c -0.246,-0.148 -0.499,-0.287 -0.746,-0.436 v 0 c 2.376,1.38 5.667,1.19 9.298,-0.908 v 0 c 3.934,-2.272 7.46,-6.312 9.846,-10.854 v 0 l 0.745,0.429 c -2.389,4.551 -5.909,8.588 -9.846,10.858 v 0 c -2.105,1.216 -4.096,1.792 -5.862,1.792 v 0 c -1.278,0 -2.437,-0.302 -3.435,-0.881"
         id="path75061"
         inkscape:connector-curvature="0" />
    </clipPath>
    <clipPath
       clipPathUnits="userSpaceOnUse"
       id="clipPath75047">
      <path
         d="M 0,3189 H 2006.732 V 0 H 0 Z"
         id="path75045"
         inkscape:connector-curvature="0" />
    </clipPath>
    <clipPath
       clipPathUnits="userSpaceOnUse"
       id="clipPath75031">
      <path
         d="m 1800.876,2576.753 c 1.531,-3.353 2.426,-6.898 2.417,-10.157 v 0 c -0.01,-3.264 -0.922,-5.76 -2.47,-7.334 v 0 l 0.746,0.434 c 1.544,1.577 2.462,4.069 2.467,7.332 v 0 c 0.014,3.265 -0.886,6.808 -2.415,10.159 v 0 z"
         id="path75029"
         inkscape:connector-curvature="0" />
    </clipPath>
    <clipPath
       clipPathUnits="userSpaceOnUse"
       id="clipPath75003">
      <path
         d="M 0,3189 H 2006.732 V 0 H 0 Z"
         id="path75001"
         inkscape:connector-curvature="0" />
    </clipPath>
    <clipPath
       clipPathUnits="userSpaceOnUse"
       id="clipPath74991">
      <path
         d="m 1800.058,2558.598 c -0.182,-0.142 -0.379,-0.268 -0.577,-0.379 v 0 c 0.237,0.133 0.475,0.272 0.707,0.407 v 0 c 0.011,0.01 0.029,0.018 0.041,0.024 v 0 c 0.197,0.116 0.39,0.242 0.576,0.379 v 0 z"
         id="path74989"
         inkscape:connector-curvature="0" />
    </clipPath>
    <clipPath
       clipPathUnits="userSpaceOnUse"
       id="clipPath74967">
      <path
         d="M 0,3189 H 2006.732 V 0 H 0 Z"
         id="path74965"
         inkscape:connector-curvature="0" />
    </clipPath>
    <clipPath
       clipPathUnits="userSpaceOnUse"
       id="clipPath74951">
      <path
         d="m 1782.645,2566.681 c -0.103,-0.07 -0.182,-0.118 -0.215,-0.138 v 0 c 2.164,-3.097 4.849,-5.741 7.753,-7.418 v 0 c 3.631,-2.092 6.926,-2.287 9.298,-0.906 v 0 l 0.746,0.431 c -2.377,-1.383 -5.668,-1.188 -9.297,0.909 v 0 c -1.97,1.139 -3.836,2.714 -5.506,4.58 v 0 c -0.854,0.94 -1.541,1.801 -2.307,2.878 v 0 c -0.157,-0.114 -0.311,-0.227 -0.472,-0.336"
         id="path74949"
         inkscape:connector-curvature="0" />
    </clipPath>
    <clipPath
       clipPathUnits="userSpaceOnUse"
       id="clipPath74939">
      <path
         d="m 1781.674,2590.475 c 0.014,0.01 0.029,0.016 0.042,0.025 v 0 c -0.014,-0.01 -0.028,-0.017 -0.042,-0.025 m -0.704,-0.411 c -0.197,-0.115 -0.392,-0.239 -0.576,-0.377 v 0 l 0.746,0.432 c 0.171,0.128 0.35,0.246 0.534,0.356 v 0 c -0.233,-0.139 -0.471,-0.271 -0.704,-0.411"
         id="path74937"
         inkscape:connector-curvature="0" />
    </clipPath>
    <clipPath
       clipPathUnits="userSpaceOnUse"
       id="clipPath74903">
      <path
         d="M 0,3189 H 2006.732 V 0 H 0 Z"
         id="path74901"
         inkscape:connector-curvature="0" />
    </clipPath>
    <clipPath
       clipPathUnits="userSpaceOnUse"
       id="clipPath74887">
      <path
         d="m 1779.629,2589.016 c -1.545,-1.573 -2.46,-4.069 -2.47,-7.331 v 0 c -0.01,-3.263 0.885,-6.801 2.417,-10.155 v 0 l 0.746,0.434 c -1.53,3.349 -2.424,6.893 -2.417,10.15 v 0 c 0.01,3.266 0.924,5.765 2.472,7.335 v 0 z m -1.142,-14.267 -0.038,0.106 -0.039,0.112 -0.045,0.11 -0.041,0.12 -0.042,0.116 -0.04,0.117 -0.043,0.12 -0.038,0.118 -0.041,0.122 -0.04,0.117 -0.037,0.114 -0.035,0.113 -0.033,0.109 -0.034,0.109 -0.031,0.108 0.037,0.018 0.034,0.024 0.037,0.02 0.04,0.021 0.04,0.026 0.042,0.022 0.037,0.024 0.039,0.023 0.042,0.023 0.041,0.022 0.042,0.026 0.039,0.023 0.036,0.023 0.039,0.02 0.04,0.021 0.031,0.02 0.022,-0.107 0.024,-0.115 0.026,-0.116 0.03,-0.117 0.022,-0.127 0.031,-0.122 0.029,-0.124 0.029,-0.124 0.029,-0.124 0.034,-0.125 0.033,-0.124 0.031,-0.12 0.03,-0.122 0.031,-0.117 0.032,-0.113 0.031,-0.107 v 0 l -0.024,-0.012 -0.031,-0.019 -0.027,-0.015 -0.03,-0.02 -0.031,-0.015 -0.029,-0.017 -0.029,-0.016 -0.029,-0.019 -0.031,-0.017 -0.031,-0.018 -0.027,-0.02 -0.033,-0.015 -0.027,-0.018 -0.027,-0.015 -0.029,-0.015 -0.022,-0.013 -0.046,0.103 z"
         id="path74885"
         inkscape:connector-curvature="0" />
    </clipPath>
    <clipPath
       clipPathUnits="userSpaceOnUse"
       id="clipPath74875">
      <path
         d="M 0,3189 H 2006.732 V 0 H 0 Z"
         id="path74873"
         inkscape:connector-curvature="0" />
    </clipPath>
    <clipPath
       clipPathUnits="userSpaceOnUse"
       id="clipPath74863">
      <path
         d="m 1777.91,2576.46 c 0.197,-0.647 0.372,-1.171 0.623,-1.814 v 0 c 0.148,0.086 0.303,0.177 0.457,0.264 v 0 0 c -0.191,0.68 -0.323,1.231 -0.464,1.904 v 0 c -0.203,-0.118 -0.41,-0.24 -0.616,-0.356"
         id="path74861"
         inkscape:connector-curvature="0" />
    </clipPath>
    <clipPath
       clipPathUnits="userSpaceOnUse"
       id="clipPath74847">
      <path
         d="m 1780.34,2569.981 c 0.625,-1.188 1.323,-2.338 2.09,-3.438 v 0 c 0.074,0.042 0.121,0.072 0.259,0.166 v 0 c 0.144,0.103 0.285,0.207 0.428,0.308 v 0 c 0.766,-1.077 1.453,-1.938 2.307,-2.878 v 0 c -1.674,1.858 -3.146,4.002 -4.34,6.274 v 0 z"
         id="path74845"
         inkscape:connector-curvature="0" />
    </clipPath>
    <clipPath
       clipPathUnits="userSpaceOnUse"
       id="clipPath74823">
      <path
         d="M 0,3189 H 2006.732 V 0 H 0 Z"
         id="path74821"
         inkscape:connector-curvature="0" />
    </clipPath>
    <clipPath
       clipPathUnits="userSpaceOnUse"
       id="clipPath74811">
      <path
         d="m 1788.872,2492.094 c 0,-0.254 0.167,-0.511 0.508,-0.711 v 0 c 0.676,-0.386 1.766,-0.386 2.439,0 v 0 c 0.33,0.195 0.499,0.447 0.499,0.7 v 0 l 0.026,70.782 c -0.01,-0.253 -0.172,-0.505 -0.501,-0.698 v 0 c -0.672,-0.396 -1.763,-0.396 -2.441,0 v 0 c -0.342,0.195 -0.51,0.454 -0.51,0.707 v 0 l -0.02,-70.783 z"
         id="path74809"
         inkscape:connector-curvature="0" />
    </clipPath>
  </defs>
  <sodipodi:namedview
     id="base"
     pagecolor="#ffffff"
     bordercolor="#666666"
     borderopacity="1.0"
     inkscape:pageopacity="0.0"
     inkscape:pageshadow="2"
     inkscape:zoom="1.979899"
     inkscape:cx="-2.0879447"
     inkscape:cy="-26.562904"
     inkscape:document-units="mm"
     inkscape:current-layer="layer1"
     showgrid="false"
     fit-margin-top="0"
     fit-margin-left="0"
     fit-margin-right="0"
     fit-margin-bottom="0"
     inkscape:window-width="1360"
     inkscape:window-height="706"
     inkscape:window-x="-8"
     inkscape:window-y="-8"
     inkscape:window-maximized="1" />
  <metadata
     id="metadata205603">
    <rdf:RDF>
      <cc:Work
         rdf:about="">
        <dc:format>image/svg+xml</dc:format>
        <dc:type
           rdf:resource="http://purl.org/dc/dcmitype/StillImage" />
        <dc:title></dc:title>
      </cc:Work>
    </rdf:RDF>
  </metadata>
  <g
     inkscape:label="Layer 1"
     inkscape:groupmode="layer"
     id="layer1"
     transform="translate(78.862429,-141.20967)">
    <g
       id="g8320"
       transform="matrix(0.25,0,0,0.25,-58.114181,109.31617)">
      <g
         transform="matrix(0.35277777,0,0,-0.35277777,-76.872431,138.61537)"
         id="g74801">
        <path
           inkscape:connector-curvature="0"
           id="path74803"
           style="fill:#eeeeee;fill-opacity:1;fill-rule:nonzero;stroke:none"
           d="m 0,0 -0.025,-70.782 c 0,-0.253 -0.169,-0.506 -0.499,-0.699 -0.674,-0.39 -1.764,-0.39 -2.44,-0.005 -0.341,0.201 -0.508,0.458 -0.508,0.713 l 0.021,70.782 c 0,-0.253 0.168,-0.512 0.51,-0.706 0.677,-0.397 1.768,-0.397 2.441,0 0.328,0.192 0.495,0.444 0.5,0.697" />
      </g>
      <g
         transform="matrix(0.35277777,0,0,-0.35277777,-709.17147,1042.7384)"
         id="g74805">
        <g
           clip-path="url(#clipPath74811)"
           id="g74807">
          <g
             transform="translate(1792.3438,2562.8682)"
             id="g74813">
            <path
               inkscape:connector-curvature="0"
               id="path74815"
               style="fill:#eeeeee;fill-opacity:1;fill-rule:nonzero;stroke:none"
               d="m 0,0 -0.025,-70.782 c 0,-0.253 -0.169,-0.506 -0.499,-0.699 -0.674,-0.39 -1.764,-0.39 -2.44,-0.005 -0.341,0.201 -0.508,0.458 -0.508,0.713 l 0.021,70.782 c 0,-0.253 0.168,-0.512 0.51,-0.706 0.677,-0.397 1.768,-0.397 2.441,0 0.328,0.192 0.495,0.444 0.5,0.697" />
          </g>
        </g>
      </g>
      <g
         transform="matrix(0.35277777,0,0,-0.35277777,-709.17147,1042.7384)"
         id="g74817">
        <g
           clip-path="url(#clipPath74823)"
           id="g74819">
          <g
             transform="translate(1791.834,2563.5806)"
             id="g74825">
            <path
               inkscape:connector-curvature="0"
               id="path74827"
               style="fill:#ffffff;fill-opacity:1;fill-rule:nonzero;stroke:none"
               d="m 0,0 c 0.673,-0.392 0.677,-1.021 0.01,-1.41 -0.673,-0.396 -1.764,-0.396 -2.442,0 C -3.107,-1.021 -3.109,-0.392 -2.437,0 -1.77,0.39 -0.679,0.39 0,0" />
          </g>
          <g
             transform="translate(1778.6582,2571.2275)"
             id="g74829">
            <path
               inkscape:connector-curvature="0"
               id="path74831"
               style="fill:#ef4646;fill-opacity:1;fill-rule:nonzero;stroke:none"
               d="M 0,0 0.742,0.429 1.502,-1.115 0.757,-1.551 Z" />
          </g>
          <g
             transform="translate(1779.415,2569.6768)"
             id="g74833">
            <path
               inkscape:connector-curvature="0"
               id="path74835"
               style="fill:#822626;fill-opacity:1;fill-rule:nonzero;stroke:none"
               d="M 0,0 0.745,0.436 1.669,0.736 0.926,0.305 Z" />
          </g>
          <g
             transform="translate(1778.6582,2571.2275)"
             id="g74837">
            <path
               inkscape:connector-curvature="0"
               id="path74839"
               style="fill:#822626;fill-opacity:1;fill-rule:nonzero;stroke:none"
               d="M 0,0 0.742,0.429 1.664,0.737 0.918,0.303 Z" />
          </g>
        </g>
      </g>
      <g
         transform="matrix(0.35277777,0,0,-0.35277777,-709.17147,1042.7384)"
         id="g74841">
        <g
           clip-path="url(#clipPath74847)"
           id="g74843">
          <g
             transform="translate(1780.3408,2569.9814)"
             id="g74849">
            <path
               inkscape:connector-curvature="0"
               id="path74851"
               style="fill:#fbb5b5;fill-opacity:1;fill-rule:nonzero;stroke:none"
               d="m 0,0 0.743,0.431 c 1.141,-2.18 2.55,-4.24 4.135,-6.045 L 4.134,-6.048 C 2.548,-4.244 1.144,-2.178 0,0" />
          </g>
          <g
             transform="translate(1784.4746,2563.9336)"
             id="g74853">
            <path
               inkscape:connector-curvature="0"
               id="path74855"
               style="fill:#f44747;fill-opacity:1;fill-rule:nonzero;stroke:none"
               d="m 0,0 0.744,0.434 c 1.727,-1.965 3.66,-3.624 5.711,-4.809 3.63,-2.096 6.92,-2.292 9.299,-0.908 L 15.006,-5.714 C 12.635,-7.096 9.34,-6.9 5.708,-4.809 3.661,-3.623 1.725,-1.963 0,0" />
          </g>
        </g>
      </g>
      <g
         transform="matrix(0.35277777,0,0,-0.35277777,-709.17147,1042.7384)"
         id="g74857">
        <g
           clip-path="url(#clipPath74863)"
           id="g74859">
          <g
             transform="translate(1779.6289,2589.0166)"
             id="g74865">
            <path
               inkscape:connector-curvature="0"
               id="path74867"
               style="fill:#f44747;fill-opacity:1;fill-rule:nonzero;stroke:none"
               d="m 0,0 0.748,0.433 c -1.548,-1.571 -2.463,-4.069 -2.472,-7.335 -0.007,-3.141 0.824,-6.551 2.255,-9.795 l -0.745,-0.429 c -1.428,3.241 -2.265,6.647 -2.256,9.794 C -2.46,-4.07 -1.545,-1.573 0,0" />
          </g>
        </g>
      </g>
      <g
         transform="matrix(0.35277777,0,0,-0.35277777,-709.17147,1042.7384)"
         id="g74869">
        <g
           clip-path="url(#clipPath74875)"
           id="g74871">
          <g
             transform="translate(1778.7139,2590.3823)"
             id="g74877">
            <path
               inkscape:connector-curvature="0"
               id="path74879"
               style="fill:#f34747;fill-opacity:1;fill-rule:nonzero;stroke:none"
               d="M 0,0 0.745,0.434 1.663,-0.933 0.915,-1.366 Z" />
          </g>
        </g>
      </g>
      <g
         transform="matrix(0.35277777,0,0,-0.35277777,-709.17147,1042.7384)"
         id="g74881">
        <g
           clip-path="url(#clipPath74887)"
           id="g74883">
          <g
             transform="translate(1779.6289,2589.0166)"
             id="g74889">
            <path
               inkscape:connector-curvature="0"
               id="path74891"
               style="fill:#f44747;fill-opacity:1;fill-rule:nonzero;stroke:none"
               d="m 0,0 0.748,0.433 c -1.548,-1.571 -2.463,-4.069 -2.472,-7.335 -0.007,-3.141 0.824,-6.551 2.255,-9.795 l -0.745,-0.429 c -1.428,3.241 -2.265,6.647 -2.256,9.794 C -2.46,-4.07 -1.545,-1.573 0,0" />
          </g>
          <g
             transform="translate(1779.415,2571.8901)"
             id="g74893">
            <path
               inkscape:connector-curvature="0"
               id="path74895"
               style="fill:#fbb5b5;fill-opacity:1;fill-rule:nonzero;stroke:none"
               d="M 0,0 0.745,0.429 C 0.802,0.313 0.857,0.189 0.907,0.074 L 0.161,-0.359 C 0.109,-0.242 0.056,-0.122 0,0" />
          </g>
        </g>
      </g>
      <g
         transform="matrix(0.35277777,0,0,-0.35277777,-709.17147,1042.7384)"
         id="g74897">
        <g
           clip-path="url(#clipPath74903)"
           id="g74899">
          <g
             transform="translate(1779.4785,2591.0537)"
             id="g74905">
            <path
               inkscape:connector-curvature="0"
               id="path74907"
               style="fill:#7a2424;fill-opacity:1;fill-rule:nonzero;stroke:none"
               d="M 0,0 0.745,0.431 -0.02,-0.238 -0.765,-0.671 Z" />
          </g>
          <g
             transform="translate(1779.4785,2591.0537)"
             id="g74909">
            <path
               inkscape:connector-curvature="0"
               id="path74911"
               style="fill:#f34747;fill-opacity:1;fill-rule:nonzero;stroke:none"
               d="M 0,0 0.745,0.431 1.661,-0.935 0.916,-1.366 Z" />
          </g>
          <g
             transform="translate(1779.5762,2571.5308)"
             id="g74913">
            <path
               inkscape:connector-curvature="0"
               id="path74915"
               style="fill:#822626;fill-opacity:1;fill-rule:nonzero;stroke:none"
               d="M 0,0 0.746,0.434 10.402,3.616 9.662,3.183 Z" />
          </g>
          <g
             transform="translate(1779.6289,2589.0166)"
             id="g74917">
            <path
               inkscape:connector-curvature="0"
               id="path74919"
               style="fill:#84dbf6;fill-opacity:1;fill-rule:nonzero;stroke:none"
               d="M 0,0 0.748,0.433 10.35,-13.87 9.609,-14.303 Z" />
          </g>
          <g
             transform="translate(1779.6289,2589.0166)"
             id="g74921">
            <path
               inkscape:connector-curvature="0"
               id="path74923"
               style="fill:#84dcf7;fill-opacity:1;fill-rule:nonzero;stroke:none"
               d="m 0,0 9.609,-14.303 -9.662,-3.183 c -1.531,3.353 -2.426,6.891 -2.417,10.154 C -2.46,-4.07 -1.545,-1.573 0,0" />
          </g>
          <g
             transform="translate(1780.3408,2569.9814)"
             id="g74925">
            <path
               inkscape:connector-curvature="0"
               id="path74927"
               style="fill:#467583;fill-opacity:1;fill-rule:nonzero;stroke:none"
               d="M 0,0 0.743,0.431 10.628,3.693 9.884,3.257 Z" />
          </g>
          <g
             transform="translate(1789.2383,2574.7134)"
             id="g74929">
            <path
               inkscape:connector-curvature="0"
               id="path74931"
               style="fill:#f34747;fill-opacity:1;fill-rule:nonzero;stroke:none"
               d="M 0,0 0.74,0.434 1.73,-1.039 0.986,-1.475 Z" />
          </g>
        </g>
      </g>
      <g
         transform="matrix(0.35277777,0,0,-0.35277777,-709.17147,1042.7384)"
         id="g74933">
        <g
           clip-path="url(#clipPath74939)"
           id="g74935">
          <g
             transform="translate(1780.9707,2590.0645)"
             id="g74941">
            <path
               inkscape:connector-curvature="0"
               id="path74943"
               style="fill:#f44747;fill-opacity:1;fill-rule:nonzero;stroke:none"
               d="M 0,0 0.746,0.436 C 0.547,0.318 0.354,0.192 0.169,0.055 L -0.576,-0.377 C -0.393,-0.24 -0.197,-0.116 0,0" />
          </g>
        </g>
      </g>
      <g
         transform="matrix(0.35277777,0,0,-0.35277777,-709.17147,1042.7384)"
         id="g74945">
        <g
           clip-path="url(#clipPath74951)"
           id="g74947">
          <g
             transform="translate(1780.3408,2569.9814)"
             id="g74953">
            <path
               inkscape:connector-curvature="0"
               id="path74955"
               style="fill:#fbb5b5;fill-opacity:1;fill-rule:nonzero;stroke:none"
               d="m 0,0 0.743,0.431 c 1.141,-2.18 2.55,-4.24 4.135,-6.045 L 4.134,-6.048 C 2.548,-4.244 1.144,-2.178 0,0" />
          </g>
          <g
             transform="translate(1784.4746,2563.9336)"
             id="g74957">
            <path
               inkscape:connector-curvature="0"
               id="path74959"
               style="fill:#f44747;fill-opacity:1;fill-rule:nonzero;stroke:none"
               d="m 0,0 0.744,0.434 c 1.727,-1.965 3.66,-3.624 5.711,-4.809 3.63,-2.096 6.92,-2.292 9.299,-0.908 L 15.006,-5.714 C 12.635,-7.096 9.34,-6.9 5.708,-4.809 3.661,-3.623 1.725,-1.963 0,0" />
          </g>
        </g>
      </g>
      <g
         transform="matrix(0.35277777,0,0,-0.35277777,-709.17147,1042.7384)"
         id="g74961">
        <g
           clip-path="url(#clipPath74967)"
           id="g74963">
          <g
             transform="translate(1780.3945,2589.6875)"
             id="g74969">
            <path
               inkscape:connector-curvature="0"
               id="path74971"
               style="fill:#f34747;fill-opacity:1;fill-rule:nonzero;stroke:none"
               d="m 0,0 0.745,0.432 9.838,-14.646 -0.747,-0.431 z" />
          </g>
          <g
             transform="translate(1790.2305,2575.0425)"
             id="g74973">
            <path
               inkscape:connector-curvature="0"
               id="path74975"
               style="fill:#f34747;fill-opacity:1;fill-rule:nonzero;stroke:none"
               d="M 0,0 0.747,0.431 1.735,-1.043 0.988,-1.477 Z" />
          </g>
          <g
             transform="translate(1790.2246,2573.2388)"
             id="g74977">
            <path
               inkscape:connector-curvature="0"
               id="path74979"
               style="fill:#84dbf6;fill-opacity:1;fill-rule:nonzero;stroke:none"
               d="M 0,0 0.744,0.436 10.58,-14.209 9.834,-14.641 Z" />
          </g>
          <g
             transform="translate(1780.3408,2569.9814)"
             id="g74981">
            <path
               inkscape:connector-curvature="0"
               id="path74983"
               style="fill:#84dcf7;fill-opacity:1;fill-rule:nonzero;stroke:none"
               d="m 0,0 9.884,3.257 9.834,-14.64 c -2.404,-1.783 -5.942,-1.743 -9.876,0.527 C 5.908,-8.582 2.386,-4.544 0,0" />
          </g>
        </g>
      </g>
      <g
         transform="matrix(0.35277777,0,0,-0.35277777,-709.17147,1042.7384)"
         id="g74985">
        <g
           clip-path="url(#clipPath74991)"
           id="g74987">
          <g
             transform="translate(1800.0586,2558.5981)"
             id="g74993">
            <path
               inkscape:connector-curvature="0"
               id="path74995"
               style="fill:#84dcf7;fill-opacity:1;fill-rule:nonzero;stroke:none"
               d="M 0,0 0.746,0.432 C 0.561,0.294 0.367,0.167 0.17,0.052 L -0.578,-0.379 C -0.38,-0.268 -0.183,-0.142 0,0" />
          </g>
        </g>
      </g>
      <g
         transform="matrix(0.35277777,0,0,-0.35277777,-709.17147,1042.7384)"
         id="g74997">
        <g
           clip-path="url(#clipPath75003)"
           id="g74999">
          <g
             transform="translate(1800.0586,2558.5981)"
             id="g75005">
            <path
               inkscape:connector-curvature="0"
               id="path75007"
               style="fill:#f34747;fill-opacity:1;fill-rule:nonzero;stroke:none"
               d="M 0,0 0.746,0.432 1.661,-0.935 0.917,-1.366 Z" />
          </g>
          <g
             transform="translate(1791.2188,2573.5654)"
             id="g75009">
            <path
               inkscape:connector-curvature="0"
               id="path75011"
               style="fill:#f34747;fill-opacity:1;fill-rule:nonzero;stroke:none"
               d="M 0,0 0.747,0.434 10.35,-13.869 9.604,-14.303 Z" />
          </g>
          <g
             transform="translate(1800.8232,2559.2627)"
             id="g75013">
            <path
               inkscape:connector-curvature="0"
               id="path75015"
               style="fill:#f34747;fill-opacity:1;fill-rule:nonzero;stroke:none"
               d="M 0,0 0.745,0.434 1.664,-0.933 0.917,-1.364 Z" />
          </g>
          <g
             transform="translate(1801.7402,2557.8984)"
             id="g75017">
            <path
               inkscape:connector-curvature="0"
               id="path75019"
               style="fill:#7a2424;fill-opacity:1;fill-rule:nonzero;stroke:none"
               d="M 0,0 0.747,0.432 -0.021,-0.235 -0.765,-0.67 Z" />
          </g>
          <g
             transform="translate(1800.876,2576.7529)"
             id="g75021">
            <path
               inkscape:connector-curvature="0"
               id="path75023"
               style="fill:#84dcf7;fill-opacity:1;fill-rule:nonzero;stroke:none"
               d="m 0,0 c 1.53,-3.353 2.426,-6.897 2.417,-10.157 -0.006,-3.264 -0.922,-5.76 -2.47,-7.333 l -9.604,14.302 z" />
          </g>
        </g>
      </g>
      <g
         transform="matrix(0.35277777,0,0,-0.35277777,-709.17147,1042.7384)"
         id="g75025">
        <g
           clip-path="url(#clipPath75031)"
           id="g75027">
          <g
             transform="translate(1800.876,2576.7529)"
             id="g75033">
            <path
               inkscape:connector-curvature="0"
               id="path75035"
               style="fill:#cef1fc;fill-opacity:1;fill-rule:nonzero;stroke:none"
               d="M 0,0 0.745,0.434 C 0.796,0.312 0.853,0.191 0.903,0.072 L 0.16,-0.357 C 0.106,-0.24 0.056,-0.123 0,0" />
          </g>
          <g
             transform="translate(1801.0361,2576.3955)"
             id="g75037">
            <path
               inkscape:connector-curvature="0"
               id="path75039"
               style="fill:#84dcf7;fill-opacity:1;fill-rule:nonzero;stroke:none"
               d="M 0,0 0.743,0.429 C 2.177,-2.817 3.014,-6.22 3,-9.368 2.995,-12.63 2.077,-15.122 0.532,-16.699 l -0.745,-0.434 c 1.548,1.573 2.464,4.07 2.47,7.333 C 2.266,-6.653 1.433,-3.248 0,0" />
          </g>
        </g>
      </g>
      <g
         transform="matrix(0.35277777,0,0,-0.35277777,-709.17147,1042.7384)"
         id="g75041">
        <g
           clip-path="url(#clipPath75047)"
           id="g75043">
          <g
             transform="translate(1791.2188,2573.5654)"
             id="g75049">
            <path
               inkscape:connector-curvature="0"
               id="path75051"
               style="fill:#467583;fill-opacity:1;fill-rule:nonzero;stroke:none"
               d="M 0,0 0.747,0.434 10.402,3.621 9.657,3.188 Z" />
          </g>
          <g
             transform="translate(1790.2305,2575.0425)"
             id="g75053">
            <path
               inkscape:connector-curvature="0"
               id="path75055"
               style="fill:#822626;fill-opacity:1;fill-rule:nonzero;stroke:none"
               d="M 0,0 0.747,0.431 10.629,3.688 9.884,3.259 Z" />
          </g>
        </g>
      </g>
      <g
         transform="matrix(0.35277777,0,0,-0.35277777,-709.17147,1042.7384)"
         id="g75057">
        <g
           clip-path="url(#clipPath75063)"
           id="g75059">
          <g
             transform="translate(1780.9707,2590.0645)"
             id="g75065">
            <path
               inkscape:connector-curvature="0"
               id="path75067"
               style="fill:#84dcf7;fill-opacity:1;fill-rule:nonzero;stroke:none"
               d="m 0,0 0.746,0.436 c 2.375,1.379 5.669,1.185 9.296,-0.911 2.05,-1.185 3.986,-2.843 5.708,-4.808 L 15.002,-5.717 C 13.283,-3.751 11.348,-2.092 9.298,-0.909 5.666,1.189 2.376,1.379 0,0" />
          </g>
          <g
             transform="translate(1795.9727,2584.3477)"
             id="g75069">
            <path
               inkscape:connector-curvature="0"
               id="path75071"
               style="fill:#cef1fc;fill-opacity:1;fill-rule:nonzero;stroke:none"
               d="M 0,0 0.748,0.434 C 2.337,-1.373 3.744,-3.438 4.887,-5.617 L 4.142,-6.046 C 2.998,-3.867 1.588,-1.806 0,0" />
          </g>
        </g>
      </g>
      <g
         transform="matrix(0.35277777,0,0,-0.35277777,-74.131161,133.17074)"
         id="g75081">
        <path
           inkscape:connector-curvature="0"
           id="path75083"
           style="fill:#84dcf7;fill-opacity:1;fill-rule:nonzero;stroke:none"
           d="m 0,0 -9.884,-3.259 -9.836,14.645 c 2.405,1.78 5.94,1.738 9.874,-0.532 C -5.912,8.582 -2.386,4.542 0,0" />
      </g>
      <g
         transform="matrix(0.35277777,0,0,-0.35277777,-81.411011,128.67215)"
         id="g75085">
        <path
           inkscape:connector-curvature="0"
           id="path75087"
           style="fill:#f44747;fill-opacity:1;fill-rule:nonzero;stroke:none"
           d="m 0,0 0.916,-1.366 9.836,-14.645 0.988,-1.477 9.605,-14.303 0.917,-1.364 -0.765,-0.671 -0.917,1.37 -9.834,14.641 -0.986,1.475 -9.61,14.303 -0.915,1.366 z" />
      </g>
      <g
         transform="matrix(0.35277777,0,0,-0.35277777,-73.862451,133.718)"
         id="g75089">
        <path
           inkscape:connector-curvature="0"
           id="path75091"
           style="fill:#822626;fill-opacity:1;fill-rule:nonzero;stroke:none"
           d="M 0,0 0.745,0.436 1.666,0.739 0.919,0.305 Z" />
      </g>
      <g
         transform="matrix(0.35277777,0,0,-0.35277777,-73.805961,133.06328)"
         id="g75093">
        <path
           inkscape:connector-curvature="0"
           id="path75095"
           style="fill:#ef4646;fill-opacity:1;fill-rule:nonzero;stroke:none"
           d="M 0,0 0.743,0.429 1.506,-1.117 0.759,-1.551 Z" />
      </g>
      <g
         transform="matrix(0.35277777,0,0,-0.35277777,-74.131161,133.17074)"
         id="g75097">
        <path
           inkscape:connector-curvature="0"
           id="path75099"
           style="fill:#822626;fill-opacity:1;fill-rule:nonzero;stroke:none"
           d="M 0,0 0.745,0.429 1.665,0.734 0.922,0.305 Z" />
      </g>
      <g
         transform="matrix(0.35277777,0,0,-0.35277777,-73.805961,133.06328)"
         id="g75101">
        <path
           inkscape:connector-curvature="0"
           id="path75103"
           style="fill:#f44747;fill-opacity:1;fill-rule:nonzero;stroke:none"
           d="m 0,0 0.759,-1.551 -0.919,-0.305 -9.657,-3.185 -0.989,1.477 9.884,3.259 z" />
      </g>
      <g
         transform="matrix(0.35277777,0,0,-0.35277777,-77.617281,128.15816)"
         id="g75105">
        <path
           inkscape:connector-curvature="0"
           id="path75107"
           style="fill:#ff8888;fill-opacity:1;fill-rule:nonzero;stroke:none"
           d="m 0,0 c -2.092,1.081 -4.07,1.619 -5.861,1.654 -2.56,0.05 -3.957,-0.893 -4.934,-1.462 6.698,3.897 17.443,-3.543 22.887,-14.847 4.094,-8.497 4.669,-18.804 -1.308,-22.277 0.249,0.141 0.497,0.286 0.746,0.429 C 21.313,-30.819 13.871,-7.191 0,0" />
      </g>
      <g
         transform="matrix(0.35277777,0,0,-0.35277777,-73.881071,139.88731)"
         id="g75109">
        <path
           inkscape:connector-curvature="0"
           id="path75111"
           style="fill:#f44747;fill-opacity:1;fill-rule:nonzero;stroke:none"
           d="M 0,0 0.917,-1.364 0.152,-2.035 v 0.005 l -0.917,1.365 c -2.403,-1.782 -5.941,-1.743 -9.876,0.527 -3.933,2.275 -7.456,6.312 -9.841,10.857 l -0.926,-0.305 -0.757,1.551 0.918,0.303 c -1.531,3.353 -2.426,6.891 -2.417,10.154 0.01,3.262 0.925,5.759 2.47,7.332 l -0.915,1.366 0.764,0.671 0.916,-1.366 c 2.405,1.78 5.94,1.738 9.874,-0.532 3.934,-2.272 7.46,-6.311 9.846,-10.854 L 0.213,19.344 0.972,17.793 0.053,17.488 C 1.583,14.14 2.479,10.593 2.47,7.333 2.464,4.069 1.548,1.573 0,0 m -10.548,32.383 c -8.41,4.856 -15.255,0.957 -15.281,-8.71 -0.025,-9.669 6.767,-21.438 15.183,-26.298 8.412,-4.859 15.256,-0.959 15.279,8.71 0.03,9.664 -6.768,21.44 -15.181,26.298" />
      </g>
      <g
         transform="matrix(0.35277777,0,0,-0.35277777,-81.376561,135.5594)"
         id="g75113">
        <path
           inkscape:connector-curvature="0"
           id="path75115"
           style="fill:#f44747;fill-opacity:1;fill-rule:nonzero;stroke:none"
           d="M 0,0 9.662,3.183 10.648,1.708 0.765,-1.549 -0.161,-1.854 -0.918,-0.303 Z" />
      </g>
    </g>
  </g>
</svg>
