<?xml version="1.0" encoding="UTF-8" standalone="no"?>
<!-- Created with Inkscape (http://www.inkscape.org/) -->

<svg
   xmlns:dc="http://purl.org/dc/elements/1.1/"
   xmlns:cc="http://creativecommons.org/ns#"
   xmlns:rdf="http://www.w3.org/1999/02/22-rdf-syntax-ns#"
   xmlns:svg="http://www.w3.org/2000/svg"
   xmlns="http://www.w3.org/2000/svg"
   xmlns:sodipodi="http://sodipodi.sourceforge.net/DTD/sodipodi-0.dtd"
   xmlns:inkscape="http://www.inkscape.org/namespaces/inkscape"
   width="6.5909576mm"
   height="14.700378mm"
   viewBox="0 0 6.5909578 14.700379"
   version="1.1"
   id="svg205606"
   inkscape:version="0.92.2 (5c3e80d, 2017-08-06)"
   sodipodi:docname="street-objects-8.svg">
  <defs
     id="defs205600">
    <clipPath
       clipPathUnits="userSpaceOnUse"
       id="clipPath70727">
      <path
         d="m 457.002,2619.783 6.988,-3.963 c -0.005,1.482 1.044,3.27 2.335,3.998 v 0 l -6.989,3.961 c -1.292,-0.726 -2.339,-2.515 -2.334,-3.996"
         id="path70725"
         inkscape:connector-curvature="0" />
    </clipPath>
    <clipPath
       clipPathUnits="userSpaceOnUse"
       id="clipPath70703">
      <path
         d="M 0,3189 H 2006.732 V 0 H 0 Z"
         id="path70701"
         inkscape:connector-curvature="0" />
    </clipPath>
    <clipPath
       clipPathUnits="userSpaceOnUse"
       id="clipPath70691">
      <path
         d="m 467.144,2628.18 6.991,-3.965 c 0.643,0.363 1.228,0.396 1.654,0.154 v 0 l -6.988,3.963 c -0.18,0.102 -0.387,0.155 -0.616,0.155 v 0 c -0.314,0 -0.668,-0.099 -1.041,-0.307"
         id="path70689"
         inkscape:connector-curvature="0" />
    </clipPath>
    <clipPath
       clipPathUnits="userSpaceOnUse"
       id="clipPath70659">
      <path
         d="m 460.035,2492.34 h 28.146 v -14.16 h -28.146 z"
         id="path70657"
         inkscape:connector-curvature="0" />
    </clipPath>
    <clipPath
       clipPathUnits="userSpaceOnUse"
       id="clipPath70783">
      <path
         d="m 521.15,2491.13 h 28.145 v -14.17 H 521.15 Z"
         id="path70781"
         inkscape:connector-curvature="0" />
    </clipPath>
    <clipPath
       clipPathUnits="userSpaceOnUse"
       id="clipPath70995">
      <path
         d="m 613.925,2617.959 1.194,-0.692 c 1.427,0.821 2.723,0.9 3.661,0.355 v 0 c -0.4,0.233 -0.796,0.462 -1.196,0.693 v 0 c -0.392,0.229 -0.849,0.348 -1.353,0.348 v 0 c -0.694,0 -1.478,-0.226 -2.306,-0.704"
         id="path70993"
         inkscape:connector-curvature="0" />
    </clipPath>
    <clipPath
       clipPathUnits="userSpaceOnUse"
       id="clipPath70963">
      <path
         d="M 0,3189 H 2006.732 V 0 H 0 Z"
         id="path70961"
         inkscape:connector-curvature="0" />
    </clipPath>
    <clipPath
       clipPathUnits="userSpaceOnUse"
       id="clipPath70951">
      <path
         d="m 621.298,2594.897 c -1.297,-0.722 -3.355,-0.7 -4.596,0.047 v 0 c -0.607,0.364 -0.905,0.831 -0.909,1.298 v 0 l 0.043,-5.474 c 0.003,-0.468 0.3,-0.936 0.904,-1.298 v 0 c 1.246,-0.75 3.303,-0.772 4.599,-0.049 v 0 c 0.666,0.371 1.002,0.868 1,1.364 v 0 l -0.039,5.477 c 0,-0.496 -0.336,-0.993 -1.002,-1.365"
         id="path70949"
         inkscape:connector-curvature="0" />
    </clipPath>
    <clipPath
       clipPathUnits="userSpaceOnUse"
       id="clipPath70935">
      <path
         d="M 0,3189 H 2006.732 V 0 H 0 Z"
         id="path70933"
         inkscape:connector-curvature="0" />
    </clipPath>
    <clipPath
       clipPathUnits="userSpaceOnUse"
       id="clipPath70923">
      <path
         d="m 621.514,2528.221 c -1.378,-0.769 -3.57,-0.747 -4.89,0.048 v 0 c -0.64,0.385 -0.96,0.882 -0.963,1.382 v 0 l 0.044,-34.963 c 0,-0.497 0.321,-0.994 0.963,-1.382 v 0 c 1.322,-0.795 3.512,-0.817 4.889,-0.049 v 0 c 0.71,0.395 1.065,0.925 1.065,1.452 v 0 l -0.043,34.963 c 0,-0.532 -0.355,-1.057 -1.065,-1.451"
         id="path70921"
         inkscape:connector-curvature="0" />
    </clipPath>
    <clipPath
       clipPathUnits="userSpaceOnUse"
       id="clipPath70895">
      <path
         d="m 613.479,2502.16 h 28.146 V 2488 h -28.146 z"
         id="path70893"
         inkscape:connector-curvature="0" />
    </clipPath>
    <clipPath
       clipPathUnits="userSpaceOnUse"
       id="clipPath71403">
      <path
         d="m 660.563,2585.094 c -1.298,-0.722 -3.354,-0.701 -4.599,0.049 v 0 c -0.603,0.362 -0.904,0.83 -0.904,1.296 v 0 l 0.042,-5.475 c 0,-0.469 0.3,-0.935 0.903,-1.298 v 0 c 1.245,-0.75 3.303,-0.77 4.598,-0.048 v 0 c 0.668,0.374 1.004,0.866 1.002,1.366 v 0 l -0.044,5.475 c 0.003,-0.495 -0.33,-0.994 -0.998,-1.365"
         id="path71401"
         inkscape:connector-curvature="0" />
    </clipPath>
    <clipPath
       clipPathUnits="userSpaceOnUse"
       id="clipPath71387">
      <path
         d="M 0,3189 H 2006.732 V 0 H 0 Z"
         id="path71385"
         inkscape:connector-curvature="0" />
    </clipPath>
    <clipPath
       clipPathUnits="userSpaceOnUse"
       id="clipPath71347">
      <path
         d="M 652.694,2493.36 H 680.84 V 2479.2 H 652.694 Z"
         id="path71345"
         inkscape:connector-curvature="0" />
    </clipPath>
    <clipPath
       clipPathUnits="userSpaceOnUse"
       id="clipPath71315">
      <path
         d="m 771.718,2529.918 c -1.379,-0.769 -3.571,-0.747 -4.891,0.049 v 0 c -0.642,0.387 -0.962,0.884 -0.962,1.383 v 0 l -0.284,-34.963 c 0,-0.499 0.318,-0.996 0.961,-1.382 v 0 c 1.324,-0.797 3.513,-0.817 4.89,-0.049 v 0 c 0.708,0.394 1.068,0.923 1.066,1.448 v 0 l 0.283,34.965 c 0,-0.529 -0.357,-1.056 -1.063,-1.451"
         id="path71313"
         inkscape:connector-curvature="0" />
    </clipPath>
    <clipPath
       clipPathUnits="userSpaceOnUse"
       id="clipPath71279">
      <path
         d="m 764.006,2504.18 h 28.147 v -14.16 h -28.147 z"
         id="path71277"
         inkscape:connector-curvature="0" />
    </clipPath>
    <clipPath
       clipPathUnits="userSpaceOnUse"
       id="clipPath71235">
      <path
         d="m 838.289,2627.383 c -0.615,-0.361 -1.234,-0.717 -1.846,-1.074 v 0 c 5.155,2.995 12.292,2.581 20.15,-1.959 v 0 l 1.849,1.074 c -4.556,2.629 -8.867,3.874 -12.69,3.874 v 0 c -2.776,0 -5.295,-0.656 -7.463,-1.915"
         id="path71233"
         inkscape:connector-curvature="0" />
    </clipPath>
    <clipPath
       clipPathUnits="userSpaceOnUse"
       id="clipPath71223">
      <path
         d="m 838.415,2622.911 c -4.587,-2.666 -7.441,-8.328 -7.462,-16.371 v 0 l 1.845,1.071 c 0.024,8.044 2.874,13.706 7.462,16.373 v 0 c -0.615,-0.358 -1.229,-0.715 -1.845,-1.073"
         id="path71221"
         inkscape:connector-curvature="0" />
    </clipPath>
    <clipPath
       clipPathUnits="userSpaceOnUse"
       id="clipPath71167">
      <path
         d="m 824.903,2500.79 h 28.146 v -14.16 h -28.146 z"
         id="path71165"
         inkscape:connector-curvature="0" />
    </clipPath>
    <clipPath
       clipPathUnits="userSpaceOnUse"
       id="clipPath71123">
      <path
         d="m 931.281,2625.369 1.848,-1.073 c 7.861,4.539 14.996,4.954 20.151,1.958 v 0 c -0.616,0.357 -1.231,0.715 -1.846,1.074 v 0 c -2.169,1.259 -4.688,1.915 -7.465,1.915 v 0 c -3.823,0 -8.134,-1.244 -12.688,-3.874"
         id="path71121"
         inkscape:connector-curvature="0" />
    </clipPath>
    <clipPath
       clipPathUnits="userSpaceOnUse"
       id="clipPath71111">
      <path
         d="m 949.541,2623.886 c -0.026,0.016 -0.052,0.031 -0.078,0.046 v 0 c 0.026,-0.015 0.052,-0.03 0.078,-0.046 m 7.379,-16.33 1.847,-1.071 c -0.021,8.043 -2.871,13.706 -7.459,16.372 v 0 c -0.589,0.342 -1.181,0.685 -1.767,1.029 v 0 c 4.542,-2.686 7.357,-8.331 7.379,-16.33"
         id="path71109"
         inkscape:connector-curvature="0" />
    </clipPath>
    <clipPath
       clipPathUnits="userSpaceOnUse"
       id="clipPath71031">
      <path
         d="m 953.681,2500.84 h 28.146 v -14.16 h -28.146 z"
         id="path71029"
         inkscape:connector-curvature="0" />
    </clipPath>
    <clipPath
       clipPathUnits="userSpaceOnUse"
       id="clipPath71631">
      <path
         d="m 1041.748,2621.839 1.366,-0.794 c 1.634,0.945 3.121,1.03 4.193,0.407 v 0 c -0.458,0.264 -0.911,0.531 -1.368,0.793 v 0 c -0.451,0.263 -0.975,0.4 -1.554,0.4 v 0 c -0.794,0 -1.691,-0.259 -2.637,-0.806"
         id="path71629"
         inkscape:connector-curvature="0" />
    </clipPath>
    <clipPath
       clipPathUnits="userSpaceOnUse"
       id="clipPath71571">
      <path
         d="M 0,3189 H 2006.732 V 0 H 0 Z"
         id="path71569"
         inkscape:connector-curvature="0" />
    </clipPath>
    <clipPath
       clipPathUnits="userSpaceOnUse"
       id="clipPath71559">
      <path
         d="m 1051.691,2596.476 c -1.483,-0.828 -3.841,-0.801 -5.264,0.055 v 0 c -0.69,0.414 -1.035,0.952 -1.035,1.485 v 0 l 0.047,-6.267 c 0,-0.535 0.346,-1.073 1.038,-1.489 v 0 c 1.422,-0.856 3.779,-0.88 5.262,-0.052 v 0 c 0.763,0.425 1.148,0.994 1.146,1.563 v 0 l -0.045,6.27 c 0,-0.569 -0.384,-1.138 -1.149,-1.565"
         id="path71557"
         inkscape:connector-curvature="0" />
    </clipPath>
    <clipPath
       clipPathUnits="userSpaceOnUse"
       id="clipPath71543">
      <path
         d="M 0,3189 H 2006.732 V 0 H 0 Z"
         id="path71541"
         inkscape:connector-curvature="0" />
    </clipPath>
    <clipPath
       clipPathUnits="userSpaceOnUse"
       id="clipPath71531">
      <path
         d="m 1052.958,2522.024 c 0,0.011 10e-4,0.021 10e-4,0.031 v 0 z m -8.241,-40.393 c 0,-0.569 0.367,-1.14 1.101,-1.582 v 0 c 1.514,-0.911 4.02,-0.937 5.599,-0.057 v 0 c 0.815,0.454 1.218,1.057 1.218,1.661 v 0 l 0.323,40.371 c -0.011,-0.595 -0.417,-1.186 -1.216,-1.631 v 0 c -1.58,-0.88 -4.084,-0.854 -5.597,0.057 v 0 c -0.737,0.445 -1.102,1.012 -1.102,1.584 v 0 z"
         id="path71529"
         inkscape:connector-curvature="0" />
    </clipPath>
    <clipPath
       clipPathUnits="userSpaceOnUse"
       id="clipPath71499">
      <path
         d="m 1042.06,2490.83 h 32.22 v -16.21 h -32.22 z"
         id="path71497"
         inkscape:connector-curvature="0" />
    </clipPath>
  </defs>
  <sodipodi:namedview
     id="base"
     pagecolor="#ffffff"
     bordercolor="#666666"
     borderopacity="1.0"
     inkscape:pageopacity="0.0"
     inkscape:pageshadow="2"
     inkscape:zoom="0.35"
     inkscape:cx="12.455359"
     inkscape:cy="27.780201"
     inkscape:document-units="mm"
     inkscape:current-layer="layer1"
     showgrid="false"
     fit-margin-top="0"
     fit-margin-left="0"
     fit-margin-right="0"
     fit-margin-bottom="0"
     inkscape:window-width="1360"
     inkscape:window-height="706"
     inkscape:window-x="-8"
     inkscape:window-y="-8"
     inkscape:window-maximized="1" />
  <metadata
     id="metadata205603">
    <rdf:RDF>
      <cc:Work
         rdf:about="">
        <dc:format>image/svg+xml</dc:format>
        <dc:type
           rdf:resource="http://purl.org/dc/dcmitype/StillImage" />
        <dc:title></dc:title>
      </cc:Work>
    </rdf:RDF>
  </metadata>
  <g
     inkscape:label="Layer 1"
     inkscape:groupmode="layer"
     id="layer1"
     transform="translate(80.780593,-141.48314)">
    <g
       id="g3098"
       transform="matrix(0.25,0,0,0.25,-58.113836,111.625)">
      <g
         transform="matrix(0.35277777,0,0,-0.35277777,-447.26901,1051.2259)"
         id="g71493">
        <g
           id="g71495" />
        <g
           id="g71507">
          <g
             style="opacity:0.30999798"
             id="g71505"
             clip-path="url(#clipPath71499)">
            <g
               id="g71503"
               transform="translate(1074.2803,2482.7285)">
              <path
                 inkscape:connector-curvature="0"
                 id="path71501"
                 style="fill:#231f20;fill-opacity:1;fill-rule:nonzero;stroke:none"
                 d="m 0,0 c 0,-4.477 -7.212,-8.106 -16.111,-8.106 -8.896,0 -16.114,3.629 -16.114,8.106 0,4.478 7.218,8.105 16.114,8.105 C -7.212,8.105 0,4.478 0,0" />
            </g>
          </g>
        </g>
      </g>
      <g
         transform="matrix(0.35277777,0,0,-0.35277777,-73.555405,124.52989)"
         id="g71509">
        <path
           inkscape:connector-curvature="0"
           id="path71511"
           style="fill:#f7dda9;fill-opacity:1;fill-rule:nonzero;stroke:none"
           d="M 0,0 C 1.328,-1.1 4.451,-5.612 7.919,-4.627 12.521,-3.322 27.522,4.279 23.88,5.839 13.581,10.253 -1.332,1.096 0,0" />
      </g>
      <g
         transform="matrix(0.35277777,0,0,-0.35277777,-80.899315,130.45942)"
         id="g71513">
        <path
           inkscape:connector-curvature="0"
           id="path71515"
           style="fill:#f7dda9;fill-opacity:1;fill-rule:nonzero;stroke:none"
           d="M 0,0 C 0,0 0.808,-2.371 -0.985,-3.702 -2.775,-5.031 -21.144,-18.427 -22.552,-9.773 -23.948,-1.188 0,0 0,0" />
      </g>
      <g
         transform="matrix(0.35277777,0,0,-0.35277777,-76.311834,175.19605)"
         id="g71517">
        <path
           inkscape:connector-curvature="0"
           id="path71519"
           style="fill:#587195;fill-opacity:1;fill-rule:nonzero;stroke:none"
           d="m 0,0 c 1.515,-0.911 1.462,-2.364 -0.115,-3.242 -1.579,-0.88 -4.085,-0.854 -5.599,0.057 -1.513,0.913 -1.46,2.362 0.117,3.244 C -4.019,0.937 -1.514,0.911 0,0" />
      </g>
      <g
         transform="matrix(0.35277777,0,0,-0.35277777,-77.856255,161.59911)"
         id="g71521">
        <path
           inkscape:connector-curvature="0"
           id="path71523"
           style="fill:#4c717c;fill-opacity:1;fill-rule:nonzero;stroke:none"
           d="M 0,0 C -2.308,1.39 1.313,3.49 3.689,2.059 4.668,1.468 4.636,0.532 3.613,-0.037 2.596,-0.606 0.975,-0.588 0,0 m -2.111,0.257 c 0,-0.571 0.365,-1.139 1.101,-1.584 1.513,-0.91 4.018,-0.937 5.598,-0.056 0.812,0.452 1.219,1.056 1.217,1.662 -0.082,3.496 -7.797,3.612 -7.916,-0.022" />
      </g>
      <g
         transform="matrix(0.35277777,0,0,-0.35277777,-447.26901,1051.2259)"
         id="g71525">
        <g
           clip-path="url(#clipPath71531)"
           id="g71527">
          <g
             transform="translate(1044.7178,2481.6309)"
             id="g71533">
            <path
               inkscape:connector-curvature="0"
               id="path71535"
               style="fill:#30515e;fill-opacity:1;fill-rule:nonzero;stroke:none"
               d="m 0,0 0.325,40.403 c 0,-0.571 0.365,-1.139 1.102,-1.584 1.512,-0.91 4.017,-0.937 5.597,-0.056 0.813,0.452 1.219,1.056 1.217,1.662 L 7.917,0.022 C 7.917,-0.582 7.515,-1.185 6.699,-1.639 5.12,-2.519 2.614,-2.492 1.101,-1.582 0.366,-1.14 0,-0.569 0,0" />
          </g>
        </g>
      </g>
      <g
         transform="matrix(0.35277777,0,0,-0.35277777,-447.26901,1051.2259)"
         id="g71537">
        <g
           clip-path="url(#clipPath71543)"
           id="g71539">
          <g
             transform="translate(1051.4736,2599.5396)"
             id="g71545">
            <path
               inkscape:connector-curvature="0"
               id="path71547"
               style="fill:#cccccc;fill-opacity:1;fill-rule:nonzero;stroke:none"
               d="m 0,0 c -0.002,0.368 -5.115,-0.382 -5.115,-0.015 l 0.083,-76.726 c 0,-0.368 0.237,-0.737 0.713,-1.022 0.974,-0.588 2.595,-0.606 3.613,-0.037 0.525,0.294 0.789,0.682 0.789,1.072 C 0.069,-72.253 0.009,-2.876 0,0" />
          </g>
          <g
             transform="translate(1045.3926,2598.0166)"
             id="g71549">
            <path
               inkscape:connector-curvature="0"
               id="path71551"
               style="fill:#efefef;fill-opacity:1;fill-rule:nonzero;stroke:none"
               d="m 0,0 c 0,-0.534 0.345,-1.072 1.035,-1.486 1.423,-0.856 3.78,-0.882 5.264,-0.055 0.764,0.428 1.148,0.996 1.148,1.565 C 7.369,3.313 0.114,3.418 0,0" />
          </g>
        </g>
      </g>
      <g
         transform="matrix(0.35277777,0,0,-0.35277777,-447.26901,1051.2259)"
         id="g71553">
        <g
           clip-path="url(#clipPath71559)"
           id="g71555">
          <g
             transform="translate(1045.4395,2591.7485)"
             id="g71561">
            <path
               inkscape:connector-curvature="0"
               id="path71563"
               style="fill:#e2e2e2;fill-opacity:1;fill-rule:nonzero;stroke:none"
               d="M 0,0 -0.047,6.268 C -0.047,5.734 0.298,5.196 0.988,4.782 2.411,3.926 4.769,3.9 6.252,4.728 7.017,5.155 7.4,5.723 7.4,6.292 L 7.445,0.022 C 7.448,-0.547 7.063,-1.116 6.3,-1.541 4.816,-2.368 2.459,-2.344 1.037,-1.488 0.346,-1.072 0,-0.534 0,0" />
          </g>
        </g>
      </g>
      <g
         transform="matrix(0.35277777,0,0,-0.35277777,-447.26901,1051.2259)"
         id="g71565">
        <g
           clip-path="url(#clipPath71571)"
           id="g71567">
          <g
             transform="translate(1074.6807,2640.8184)"
             id="g71573">
            <path
               inkscape:connector-curvature="0"
               id="path71575"
               style="fill:#4c717c;fill-opacity:1;fill-rule:nonzero;stroke:none"
               d="m 0,0 c -1.046,0.695 -2.533,0.645 -4.135,-0.157 l -10.161,-5.087 c -0.451,-0.227 -0.885,-0.556 -1.277,-0.952 -0.466,-0.473 -0.871,-1.035 -1.181,-1.632 l 7.308,-4.88 c 0.306,0.597 0.715,1.161 1.178,1.631 0.392,0.395 0.826,0.726 1.279,0.953 L 3.17,-5.038 c 1.6,0.803 3.092,0.85 4.138,0.16 z" />
          </g>
          <g
             transform="translate(1065.2344,2628.1104)"
             id="g71577">
            <path
               inkscape:connector-curvature="0"
               id="path71579"
               style="fill:#4c717c;fill-opacity:1;fill-rule:nonzero;stroke:none"
               d="M 0,0 -7.308,4.88 C -7.651,4.207 -7.874,3.492 -7.91,2.819 l -0.205,-3.604 c -0.01,-0.148 0.037,-0.255 0.117,-0.306 l 7.305,-4.881 c -0.081,0.052 -0.124,0.159 -0.116,0.305 l 0.204,3.604 C -0.566,-1.39 -0.347,-0.673 0,0" />
          </g>
          <g
             transform="translate(1067.6914,2630.6943)"
             id="g71581">
            <path
               inkscape:connector-curvature="0"
               id="path71583"
               style="fill:#30515e;fill-opacity:1;fill-rule:nonzero;stroke:none"
               d="m 0,0 c -1.592,-0.8 -2.963,-2.878 -3.063,-4.647 l -0.203,-3.604 c -0.019,-0.296 0.184,-0.427 0.45,-0.292 L 17.881,1.819 14.693,4.923 c -1.039,1.014 -2.714,1.075 -4.534,0.163 z" />
          </g>
          <g
             transform="translate(1049.1348,2598.9814)"
             id="g71585">
            <path
               inkscape:connector-curvature="0"
               id="path71587"
               style="fill:#cccccc;fill-opacity:1;fill-rule:nonzero;stroke:none"
               d="m 0,0 c 0,-0.216 0.119,-0.446 0.402,-0.617 0.576,-0.348 1.534,-0.357 2.135,-0.019 0.312,0.172 0.467,0.403 0.464,0.632 C 2.971,1.331 0.045,1.39 0,0" />
          </g>
          <g
             transform="translate(1060.2324,2629.9185)"
             id="g71589">
            <path
               inkscape:connector-curvature="0"
               id="path71591"
               style="fill:#cccccc;fill-opacity:1;fill-rule:nonzero;stroke:none"
               d="m 0,0 1.326,-1.009 -5.625,-2.636 -1.908,0.754 z" />
          </g>
          <g
             transform="translate(1049.1094,2615.3193)"
             id="g71593">
            <path
               inkscape:connector-curvature="0"
               id="path71595"
               style="fill:#cccccc;fill-opacity:1;fill-rule:nonzero;stroke:none"
               d="m 0,0 1.389,-0.726 v -16.361 l -1.36,0.749 z" />
          </g>
          <g
             transform="translate(1054.2275,2627.1035)"
             id="g71597">
            <path
               inkscape:connector-curvature="0"
               id="path71599"
               style="fill:#cccccc;fill-opacity:1;fill-rule:nonzero;stroke:none"
               d="m 0,0 c -4.452,-1.956 -5.349,-5.889 -5.118,-11.95 l 1.312,-0.52 c -0.011,5.198 2.431,10.424 5.647,11.797 L 0.085,0.039 Z" />
          </g>
          <g
             transform="translate(1056.2617,2626.5654)"
             id="g71601">
            <path
               inkscape:connector-curvature="0"
               id="path71603"
               style="fill:#cccccc;fill-opacity:1;fill-rule:nonzero;stroke:none"
               d="M 0,0 5.367,2.344 5.064,0.541 1.176,-1.418 c -4.28,-1.791 -5.088,-5.177 -5.321,-9.627 l 0.01,-16.43 -1.629,-0.839 -0.095,16.421 C -5.969,-4.66 -4.291,-1.967 0,0" />
          </g>
          <g
             transform="translate(1046.0361,2597.2061)"
             id="g71605">
            <path
               inkscape:connector-curvature="0"
               id="path71607"
               style="fill:#cccccc;fill-opacity:1;fill-rule:nonzero;stroke:none"
               d="M 0,0 C 0,-0.218 0.14,-0.436 0.42,-0.604 0.998,-0.952 1.956,-0.959 2.558,-0.625 2.867,-0.454 3.024,-0.222 3.024,0.009 2.991,1.344 0.046,1.388 0,0" />
          </g>
          <g
             transform="translate(1047.4063,2596.542)"
             id="g71609">
            <path
               inkscape:connector-curvature="0"
               id="path71611"
               style="fill:#cccccc;fill-opacity:1;fill-rule:nonzero;stroke:none"
               d="m 0,0 -1.365,0.562 -0.033,20.416 1.365,-0.795 z" />
          </g>
          <g
             transform="translate(1044.7705,2620.2388)"
             id="g71613">
            <path
               inkscape:connector-curvature="0"
               id="path71615"
               style="fill:#cccccc;fill-opacity:1;fill-rule:nonzero;stroke:none"
               d="M 0,0 C 0.455,-0.268 0.911,-0.53 1.366,-0.795 2.128,-1.238 2.601,-2.179 2.603,-3.514 L 1.237,-2.719 C 1.235,-1.386 0.762,-0.444 0,0" />
          </g>
          <g
             transform="translate(1047.373,2616.7246)"
             id="g71617">
            <path
               inkscape:connector-curvature="0"
               id="path71619"
               style="fill:#cccccc;fill-opacity:1;fill-rule:nonzero;stroke:none"
               d="M 0,0 -1.365,0.795 C -1.367,2.128 -1.841,3.07 -2.603,3.514 L -1.236,2.719 C -0.475,2.276 -0.002,1.335 0,0" />
          </g>
          <g
             transform="translate(1045.9385,2622.2451)"
             id="g71621">
            <path
               inkscape:connector-curvature="0"
               id="path71623"
               style="fill:#cccccc;fill-opacity:1;fill-rule:nonzero;stroke:none"
               d="M 0,0 C 0.457,-0.262 0.91,-0.529 1.368,-0.793 0.296,-0.17 -1.19,-0.255 -2.824,-1.201 L -4.19,-0.405 C -2.556,0.539 -1.07,0.623 0,0" />
          </g>
        </g>
      </g>
      <g
         transform="matrix(0.35277777,0,0,-0.35277777,-447.26901,1051.2259)"
         id="g71625">
        <g
           clip-path="url(#clipPath71631)"
           id="g71627">
          <g
             transform="translate(1043.1143,2621.0444)"
             id="g71633">
            <path
               inkscape:connector-curvature="0"
               id="path71635"
               style="fill:#cccccc;fill-opacity:1;fill-rule:nonzero;stroke:none"
               d="m 0,0 -1.366,0.795 c 1.635,0.944 3.12,1.029 4.19,0.406 L 4.192,0.408 C 3.12,1.031 1.634,0.946 0,0" />
          </g>
        </g>
      </g>
      <g
         transform="matrix(0.35277777,0,0,-0.35277777,-85.060295,129.91614)"
         id="g71645">
        <path
           inkscape:connector-curvature="0"
           id="path71647"
           style="fill:#cccccc;fill-opacity:1;fill-rule:nonzero;stroke:none"
           d="m 0,0 -1.366,0.795 16.381,9.458 1.366,-0.795 z" />
      </g>
      <g
         transform="matrix(0.35277777,0,0,-0.35277777,-79.281475,126.57974)"
         id="g71649">
        <path
           inkscape:connector-curvature="0"
           id="path71651"
           style="fill:#cccccc;fill-opacity:1;fill-rule:nonzero;stroke:none"
           d="M 0,0 C 3.249,1.874 5.897,0.367 5.911,-3.366 L 5.941,-23.779 4.292,-24.502 4.259,-4.32 c -0.006,2.689 -1.914,3.776 -4.254,2.427 l -16.382,-9.46 -0.004,1.895 z" />
      </g>
      <g
         transform="matrix(0.35277777,0,0,-0.35277777,-83.691555,127.16384)"
         id="g71653">
        <path
           inkscape:connector-curvature="0"
           id="path71655"
           style="fill:#4c717c;fill-opacity:1;fill-rule:nonzero;stroke:none"
           d="m 0,0 c -0.508,0.297 -1.209,0.26 -1.987,-0.183 l -9.869,-5.634 c -1.332,-0.76 -3.259,-2.523 -4.544,-5.102 l -3.373,-6.758 8.128,-4.778 3.368,6.761 c 1.103,2.206 2.782,4.093 4.548,5.099 l 9.868,5.635 c 0.778,0.442 1.482,0.481 1.987,0.182 z" />
      </g>
      <g
         transform="matrix(0.35277777,0,0,-0.35277777,-81.525954,128.91379)"
         id="g71657">
        <path
           inkscape:connector-curvature="0"
           id="path71659"
           style="fill:#30515e;fill-opacity:1;fill-rule:nonzero;stroke:none"
           d="M 0,0 C 1.547,0.88 2.798,0.161 2.794,-1.608 L 2.785,-5.222 c 0,-0.297 -0.209,-0.653 -0.469,-0.799 l -20.099,-11.474 3.367,6.761 c 1.103,2.207 2.782,4.093 4.548,5.1 z" />
      </g>
      <g
         transform="matrix(0.35277777,0,0,-0.35277777,-72.721684,123.87895)"
         id="g71661">
        <path
           inkscape:connector-curvature="0"
           id="path71663"
           style="fill:#cccccc;fill-opacity:1;fill-rule:nonzero;stroke:none"
           d="m 0,0 c 0.154,-0.828 -0.023,-1.568 -0.57,-1.673 -0.55,-0.102 -1.26,0.468 -1.416,1.297 -0.158,0.825 0.16,1.581 0.709,1.684 C -0.729,1.412 -0.156,0.826 0,0" />
      </g>
    </g>
  </g>
</svg>
