<svg enable-background="new 0 0 96 136" viewBox="0 0 96 136" xmlns="http://www.w3.org/2000/svg"><path d="m48 133-48-24v-71l48 24z" fill="#762c07"/><g fill="#f8ebcb" opacity=".3"><path d="m4 108-3-1.5v2l3 1.5z"/><path d="m8 110-3-1.5v2l3 1.5z"/><path d="m12 112-3-1.5v2l3 1.5z"/><path d="m16 114-3-1.5v2l3 1.5z"/><path d="m20 116-3-1.5v2l3 1.5z"/><path d="m24 118-3-1.5v2l3 1.5z"/><path d="m28 120-3-1.5v2l3 1.5z"/><path d="m32 122-3-1.5v2l3 1.5z"/><path d="m36 124-3-1.5v2l3 1.5z"/><path d="m40 126-3-1.5v2l3 1.5z"/><path d="m44 128-3-1.5v2l3 1.5z"/><path d="m48 130-3-1.5v2l3 1.5z"/><path d="m2 104-2-1v2l2 1z"/><path d="m6 106-3-1.5v2l3 1.5z"/><path d="m10 108-3-1.5v2l3 1.5z"/><path d="m14 110-3-1.5v2l3 1.5z"/><path d="m18 112-3-1.5v2l3 1.5z"/><path d="m22 114-3-1.5v2l3 1.5z"/><path d="m26 116-3-1.5v2l3 1.5z"/><path d="m30 118-3-1.5v2l3 1.5z"/><path d="m34 120-3-1.5v2l3 1.5z"/><path d="m38 122-3-1.5v2l3 1.5z"/><path d="m42 124-3-1.5v2l3 1.5z"/><path d="m46 126-3-1.5v2l3 1.5z"/><path d="m48 127-1-.5v2l1 .5z"/><path d="m4 102-3-1.5v2l3 1.5z"/><path d="m8 104-3-1.5v2l3 1.5z"/><path d="m12 106-3-1.5v2l3 1.5z"/><path d="m16 108-3-1.5v2l3 1.5z"/><path d="m20 110-3-1.5v2l3 1.5z"/><path d="m24 112-3-1.5v2l3 1.5z"/><path d="m28 114-3-1.5v2l3 1.5z"/><path d="m32 116-3-1.5v2l3 1.5z"/><path d="m36 118-3-1.5v2l3 1.5z"/><path d="m40 120-3-1.5v2l3 1.5z"/><path d="m44 122-3-1.5v2l3 1.5z"/><path d="m48 124-3-1.5v2l3 1.5z"/><path d="m2 98-2-1v2l2 1z"/><path d="m6 100-3-1.5v2l3 1.5z"/><path d="m10 102-3-1.5v2l3 1.5z"/><path d="m14 104-3-1.5v2l3 1.5z"/><path d="m18 106-3-1.5v2l3 1.5z"/><path d="m22 108-3-1.5v2l3 1.5z"/><path d="m26 110-3-1.5v2l3 1.5z"/><path d="m30 112-3-1.5v2l3 1.5z"/><path d="m34 114-3-1.5v2l3 1.5z"/><path d="m38 116-3-1.5v2l3 1.5z"/><path d="m42 118-3-1.5v2l3 1.5z"/><path d="m46 120-3-1.5v2l3 1.5z"/><path d="m48 121-1-.5v2l1 .5z"/><path d="m4 96-3-1.5v2l3 1.5z"/><path d="m8 98-3-1.5v2l3 1.5z"/><path d="m12 100-3-1.5v2l3 1.5z"/><path d="m16 102-3-1.5v2l3 1.5z"/><path d="m20 104-3-1.5v2l3 1.5z"/><path d="m24 106-3-1.5v2l3 1.5z"/><path d="m28 108-3-1.5v2l3 1.5z"/><path d="m32 110-3-1.5v2l3 1.5z"/><path d="m36 112-3-1.5v2l3 1.5z"/><path d="m40 114-3-1.5v2l3 1.5z"/><path d="m44 116-3-1.5v2l3 1.5z"/><path d="m48 118-3-1.5v2l3 1.5z"/><path d="m2 92-2-1v2l2 1z"/><path d="m6 94-3-1.5v2l3 1.5z"/><path d="m10 96-3-1.5v2l3 1.5z"/><path d="m14 98-3-1.5v2l3 1.5z"/><path d="m18 100-3-1.5v2l3 1.5z"/><path d="m22 102-3-1.5v2l3 1.5z"/><path d="m26 104-3-1.5v2l3 1.5z"/><path d="m30 106-3-1.5v2l3 1.5z"/><path d="m34 108-3-1.5v2l3 1.5z"/><path d="m38 110-3-1.5v2l3 1.5z"/><path d="m42 112-3-1.5v2l3 1.5z"/><path d="m46 114-3-1.5v2l3 1.5z"/><path d="m48 115-1-.5v2l1 .5z"/><path d="m4 90-3-1.5v2l3 1.5z"/><path d="m8 92-3-1.5v2l3 1.5z"/><path d="m12 94-3-1.5v2l3 1.5z"/><path d="m16 96-3-1.5v2l3 1.5z"/><path d="m20 98-3-1.5v2l3 1.5z"/><path d="m24 100-3-1.5v2l3 1.5z"/><path d="m28 102-3-1.5v2l3 1.5z"/><path d="m32 104-3-1.5v2l3 1.5z"/><path d="m36 106-3-1.5v2l3 1.5z"/><path d="m40 108-3-1.5v2l3 1.5z"/><path d="m44 110-3-1.5v2l3 1.5z"/><path d="m48 112-3-1.5v2l3 1.5z"/><path d="m2 86-2-1v2l2 1z"/><path d="m6 88-3-1.5v2l3 1.5z"/><path d="m10 90-3-1.5v2l3 1.5z"/><path d="m14 92-3-1.5v2l3 1.5z"/><path d="m18 94-3-1.5v2l3 1.5z"/><path d="m22 96-3-1.5v2l3 1.5z"/><path d="m26 98-3-1.5v2l3 1.5z"/><path d="m30 100-3-1.5v2l3 1.5z"/><path d="m34 102-3-1.5v2l3 1.5z"/><path d="m38 104-3-1.5v2l3 1.5z"/><path d="m42 106-3-1.5v2l3 1.5z"/><path d="m46 108-3-1.5v2l3 1.5z"/><path d="m48 109-1-.5v2l1 .5z"/><path d="m4 84-3-1.5v2l3 1.5z"/><path d="m8 86-3-1.5v2l3 1.5z"/><path d="m12 88-3-1.5v2l3 1.5z"/><path d="m16 90-3-1.5v2l3 1.5z"/><path d="m20 92-3-1.5v2l3 1.5z"/><path d="m24 94-3-1.5v2l3 1.5z"/><path d="m28 96-3-1.5v2l3 1.5z"/><path d="m32 98-3-1.5v2l3 1.5z"/><path d="m36 100-3-1.5v2l3 1.5z"/><path d="m40 102-3-1.5v2l3 1.5z"/><path d="m44 104-3-1.5v2l3 1.5z"/><path d="m48 106-3-1.5v2l3 1.5z"/><path d="m2 80-2-1v2l2 1z"/><path d="m6 82-3-1.5v2l3 1.5z"/><path d="m10 84-3-1.5v2l3 1.5z"/><path d="m14 86-3-1.5v2l3 1.5z"/><path d="m18 88-3-1.5v2l3 1.5z"/><path d="m22 90-3-1.5v2l3 1.5z"/><path d="m26 92-3-1.5v2l3 1.5z"/><path d="m30 94-3-1.5v2l3 1.5z"/><path d="m34 96-3-1.5v2l3 1.5z"/><path d="m38 98-3-1.5v2l3 1.5z"/><path d="m42 100-3-1.5v2l3 1.5z"/><path d="m46 102-3-1.5v2l3 1.5z"/><path d="m48 103-1-.5v2l1 .5z"/><path d="m4 78-3-1.5v2l3 1.5z"/><path d="m8 80-3-1.5v2l3 1.5z"/><path d="m12 82-3-1.5v2l3 1.5z"/><path d="m16 84-3-1.5v2l3 1.5z"/><path d="m20 86-3-1.5v2l3 1.5z"/><path d="m24 88-3-1.5v2l3 1.5z"/><path d="m28 90-3-1.5v2l3 1.5z"/><path d="m32 92-3-1.5v2l3 1.5z"/><path d="m36 94-3-1.5v2l3 1.5z"/><path d="m40 96-3-1.5v2l3 1.5z"/><path d="m44 98-3-1.5v2l3 1.5z"/><path d="m48 100-3-1.5v2l3 1.5z"/><path d="m2 74-2-1v2l2 1z"/><path d="m6 76-3-1.5v2l3 1.5z"/><path d="m10 78-3-1.5v2l3 1.5z"/><path d="m14 80-3-1.5v2l3 1.5z"/><path d="m18 82-3-1.5v2l3 1.5z"/><path d="m22 84-3-1.5v2l3 1.5z"/><path d="m26 86-3-1.5v2l3 1.5z"/><path d="m30 88-3-1.5v2l3 1.5z"/><path d="m34 90-3-1.5v2l3 1.5z"/><path d="m38 92-3-1.5v2l3 1.5z"/><path d="m42 94-3-1.5v2l3 1.5z"/><path d="m46 96-3-1.5v2l3 1.5z"/><path d="m48 97-1-.5v2l1 .5z"/><path d="m4 72-3-1.5v2l3 1.5z"/><path d="m8 74-3-1.5v2l3 1.5z"/><path d="m12 76-3-1.5v2l3 1.5z"/><path d="m16 78-3-1.5v2l3 1.5z"/><path d="m20 80-3-1.5v2l3 1.5z"/><path d="m24 82-3-1.5v2l3 1.5z"/><path d="m28 84-3-1.5v2l3 1.5z"/><path d="m32 86-3-1.5v2l3 1.5z"/><path d="m36 88-3-1.5v2l3 1.5z"/><path d="m40 90-3-1.5v2l3 1.5z"/><path d="m44 92-3-1.5v2l3 1.5z"/><path d="m48 94-3-1.5v2l3 1.5z"/><path d="m2 68-2-1v2l2 1z"/><path d="m6 70-3-1.5v2l3 1.5z"/><path d="m10 72-3-1.5v2l3 1.5z"/><path d="m14 74-3-1.5v2l3 1.5z"/><path d="m18 76-3-1.5v2l3 1.5z"/><path d="m22 78-3-1.5v2l3 1.5z"/><path d="m26 80-3-1.5v2l3 1.5z"/><path d="m30 82-3-1.5v2l3 1.5z"/><path d="m34 84-3-1.5v2l3 1.5z"/><path d="m38 86-3-1.5v2l3 1.5z"/><path d="m42 88-3-1.5v2l3 1.5z"/><path d="m46 90-3-1.5v2l3 1.5z"/><path d="m48 91-1-.5v2l1 .5z"/><path d="m4 66-3-1.5v2l3 1.5z"/><path d="m8 68-3-1.5v2l3 1.5z"/><path d="m12 70-3-1.5v2l3 1.5z"/><path d="m16 72-3-1.5v2l3 1.5z"/><path d="m20 74-3-1.5v2l3 1.5z"/><path d="m24 76-3-1.5v2l3 1.5z"/><path d="m28 78-3-1.5v2l3 1.5z"/><path d="m32 80-3-1.5v2l3 1.5z"/><path d="m36 82-3-1.5v2l3 1.5z"/><path d="m40 84-3-1.5v2l3 1.5z"/><path d="m44 86-3-1.5v2l3 1.5z"/><path d="m48 88-3-1.5v2l3 1.5z"/><path d="m2 62-2-1v2l2 1z"/><path d="m6 64-3-1.5v2l3 1.5z"/><path d="m10 66-3-1.5v2l3 1.5z"/><path d="m14 68-3-1.5v2l3 1.5z"/><path d="m18 70-3-1.5v2l3 1.5z"/><path d="m22 72-3-1.5v2l3 1.5z"/><path d="m26 74-3-1.5v2l3 1.5z"/><path d="m30 76-3-1.5v2l3 1.5z"/><path d="m34 78-3-1.5v2l3 1.5z"/><path d="m38 80-3-1.5v2l3 1.5z"/><path d="m42 82-3-1.5v2l3 1.5z"/><path d="m46 84-3-1.5v2l3 1.5z"/><path d="m48 85-1-.5v2l1 .5z"/><path d="m4 60-3-1.5v2l3 1.5z"/><path d="m8 62-3-1.5v2l3 1.5z"/><path d="m12 64-3-1.5v2l3 1.5z"/><path d="m16 66-3-1.5v2l3 1.5z"/><path d="m20 68-3-1.5v2l3 1.5z"/><path d="m24 70-3-1.5v2l3 1.5z"/><path d="m28 72-3-1.5v2l3 1.5z"/><path d="m32 74-3-1.5v2l3 1.5z"/><path d="m36 76-3-1.5v2l3 1.5z"/><path d="m40 78-3-1.5v2l3 1.5z"/><path d="m44 80-3-1.5v2l3 1.5z"/><path d="m48 82-3-1.5v2l3 1.5z"/><path d="m2 56-2-1v2l2 1z"/><path d="m6 58-3-1.5v2l3 1.5z"/><path d="m10 60-3-1.5v2l3 1.5z"/><path d="m14 62-3-1.5v2l3 1.5z"/><path d="m18 64-3-1.5v2l3 1.5z"/><path d="m22 66-3-1.5v2l3 1.5z"/><path d="m26 68-3-1.5v2l3 1.5z"/><path d="m30 70-3-1.5v2l3 1.5z"/><path d="m34 72-3-1.5v2l3 1.5z"/><path d="m38 74-3-1.5v2l3 1.5z"/><path d="m42 76-3-1.5v2l3 1.5z"/><path d="m46 78-3-1.5v2l3 1.5z"/><path d="m48 79-1-.5v2l1 .5z"/><path d="m4 54-3-1.5v2l3 1.5z"/><path d="m8 56-3-1.5v2l3 1.5z"/><path d="m12 58-3-1.5v2l3 1.5z"/><path d="m16 60-3-1.5v2l3 1.5z"/><path d="m20 62-3-1.5v2l3 1.5z"/><path d="m24 64-3-1.5v2l3 1.5z"/><path d="m28 66-3-1.5v2l3 1.5z"/><path d="m32 68-3-1.5v2l3 1.5z"/><path d="m36 70-3-1.5v2l3 1.5z"/><path d="m40 72-3-1.5v2l3 1.5z"/><path d="m44 74-3-1.5v2l3 1.5z"/><path d="m48 76-3-1.5v2l3 1.5z"/><path d="m2 50-2-1v2l2 1z"/><path d="m6 52-3-1.5v2l3 1.5z"/><path d="m10 54-3-1.5v2l3 1.5z"/><path d="m14 56-3-1.5v2l3 1.5z"/><path d="m18 58-3-1.5v2l3 1.5z"/><path d="m22 60-3-1.5v2l3 1.5z"/><path d="m26 62-3-1.5v2l3 1.5z"/><path d="m30 64-3-1.5v2l3 1.5z"/><path d="m34 66-3-1.5v2l3 1.5z"/><path d="m38 68-3-1.5v2l3 1.5z"/><path d="m42 70-3-1.5v2l3 1.5z"/><path d="m46 72-3-1.5v2l3 1.5z"/><path d="m48 73-1-.5v2l1 .5z"/><path d="m4 48-3-1.5v2l3 1.5z"/><path d="m8 50-3-1.5v2l3 1.5z"/><path d="m12 52-3-1.5v2l3 1.5z"/><path d="m16 54-3-1.5v2l3 1.5z"/><path d="m20 56-3-1.5v2l3 1.5z"/><path d="m24 58-3-1.5v2l3 1.5z"/><path d="m28 60-3-1.5v2l3 1.5z"/><path d="m32 62-3-1.5v2l3 1.5z"/><path d="m36 64-3-1.5v2l3 1.5z"/><path d="m40 66-3-1.5v2l3 1.5z"/><path d="m44 68-3-1.5v2l3 1.5z"/><path d="m48 70-3-1.5v2l3 1.5z"/><path d="m2 44-2-1v2l2 1z"/><path d="m6 46-3-1.5v2l3 1.5z"/><path d="m10 48-3-1.5v2l3 1.5z"/><path d="m14 50-3-1.5v2l3 1.5z"/><path d="m18 52-3-1.5v2l3 1.5z"/><path d="m22 54-3-1.5v2l3 1.5z"/><path d="m26 56-3-1.5v2l3 1.5z"/><path d="m30 58-3-1.5v2l3 1.5z"/><path d="m34 60-3-1.5v2l3 1.5z"/><path d="m38 62-3-1.5v2l3 1.5z"/><path d="m42 64-3-1.5v2l3 1.5z"/><path d="m46 66-3-1.5v2l3 1.5z"/><path d="m48 67-1-.5v2l1 .5z"/><path d="m4 42-3-1.5v2l3 1.5z"/><path d="m8 44-3-1.5v2l3 1.5z"/><path d="m12 46-3-1.5v2l3 1.5z"/><path d="m16 48-3-1.5v2l3 1.5z"/><path d="m20 50-3-1.5v2l3 1.5z"/><path d="m24 52-3-1.5v2l3 1.5z"/><path d="m28 54-3-1.5v2l3 1.5z"/><path d="m32 56-3-1.5v2l3 1.5z"/><path d="m36 58-3-1.5v2l3 1.5z"/><path d="m40 60-3-1.5v2l3 1.5z"/><path d="m44 62-3-1.5v2l3 1.5z"/><path d="m48 64-3-1.5v2l3 1.5z"/></g><path d="m44 99-9-4.5v-13l9 4.5z" fill="#baa794"/><path d="m36 83v11l3 1.5v-11z" fill="#39c"/><path d="m36 88v6l3 1.5z" fill="#fff" opacity=".2"/><path d="m40 85v11l3 1.5v-11z" fill="#39c"/><path d="m39 85.5-3-1.5v-1l3 1.5z" opacity=".15"/><path d="m43 87.5-3-1.5v-1l3 1.5z" opacity=".15"/><path d="m43 94.5-3-8.5v-1l3 1.5z" opacity=".15"/><path d="m43 90.5-7-3.5v-1l7 3.5z" fill="#baa794"/><path d="m43 94.5-7-3.5v-1l7 3.5z" fill="#baa794"/><path d="m44 86-9-4.5v-2l9 4.5z" fill="#f8ebcb"/><path d="m44 100-9-4.5v-1l9 4.5z" fill="#f8ebcb"/><path d="m44 79-9-4.5v-13l9 4.5z" fill="#baa794"/><path d="m36 63v11l3 1.5v-11z" fill="#39c"/><path d="m36 68v6l3 1.5z" fill="#fff" opacity=".2"/><path d="m40 65v11l3 1.5v-11z" fill="#39c"/><path d="m39 65.5-3-1.5v-1l3 1.5z" opacity=".15"/><path d="m43 67.5-3-1.5v-1l3 1.5z" opacity=".15"/><path d="m43 74.5-3-8.5v-1l3 1.5z" opacity=".15"/><path d="m43 70.5-7-3.5v-1l7 3.5z" fill="#baa794"/><path d="m43 74.5-7-3.5v-1l7 3.5z" fill="#baa794"/><path d="m44 66-9-4.5v-1l9 4.5z" fill="#f8ebcb"/><path d="m44 80-9-4.5v-1l9 4.5z" fill="#f8ebcb"/><g fill="#f8ebcb" opacity=".3"><path d="m4 108-3-1.5v2l3 1.5z"/><path d="m48 130-3-1.5v2l3 1.5z"/><path d="m2 104-2-1v2l2 1z"/><path d="m48 127-1-.5v2l1 .5z"/><path d="m4 102-3-1.5v2l3 1.5z"/><path d="m48 124-3-1.5v2l3 1.5z"/><path d="m2 98-2-1v2l2 1z"/><path d="m48 121-1-.5v2l1 .5z"/><path d="m4 96-3-1.5v2l3 1.5z"/><path d="m48 118-3-1.5v2l3 1.5z"/><path d="m2 92-2-1v2l2 1z"/><path d="m48 115-1-.5v2l1 .5z"/><path d="m4 90-3-1.5v2l3 1.5z"/><path d="m48 112-3-1.5v2l3 1.5z"/><path d="m2 86-2-1v2l2 1z"/><path d="m48 109-1-.5v2l1 .5z"/><path d="m4 84-3-1.5v2l3 1.5z"/><path d="m48 106-3-1.5v2l3 1.5z"/><path d="m2 80-2-1v2l2 1z"/><path d="m48 103-1-.5v2l1 .5z"/><path d="m4 78-3-1.5v2l3 1.5z"/><path d="m48 100-3-1.5v2l3 1.5z"/><path d="m2 74-2-1v2l2 1z"/><path d="m48 97-1-.5v2l1 .5z"/><path d="m4 72-3-1.5v2l3 1.5z"/><path d="m48 94-3-1.5v2l3 1.5z"/><path d="m2 68-2-1v2l2 1z"/><path d="m48 91-1-.5v2l1 .5z"/><path d="m4 66-3-1.5v2l3 1.5z"/><path d="m48 88-3-1.5v2l3 1.5z"/><path d="m2 62-2-1v2l2 1z"/><path d="m48 85-1-.5v2l1 .5z"/><path d="m4 60-3-1.5v2l3 1.5z"/><path d="m48 82-3-1.5v2l3 1.5z"/><path d="m2 56-2-1v2l2 1z"/><path d="m48 79-1-.5v2l1 .5z"/><path d="m4 54-3-1.5v2l3 1.5z"/><path d="m48 76-3-1.5v2l3 1.5z"/><path d="m2 50-2-1v2l2 1z"/><path d="m48 73-1-.5v2l1 .5z"/><path d="m4 48-3-1.5v2l3 1.5z"/><path d="m48 70-3-1.5v2l3 1.5z"/><path d="m2 44-2-1v2l2 1z"/><path d="m48 67-1-.5v2l1 .5z"/><path d="m4 42-3-1.5v2l3 1.5z"/><path d="m48 64-3-1.5v2l3 1.5z"/></g><path d="m13 83.5-9-4.5v-13l9 4.5z" fill="#baa794"/><path d="m5 67.5v11l3 1.5v-11z" fill="#39c"/><path d="m5 72.5v6l3 1.5z" fill="#fff" opacity=".2"/><path d="m9 69.5v11l3 1.5v-11z" fill="#39c"/><path d="m8 70-3-1.5v-1l3 1.5z" opacity=".15"/><path d="m12 72-3-1.5v-1l3 1.5z" opacity=".15"/><path d="m12 79-3-8.5v-1l3 1.5z" opacity=".15"/><path d="m12 75-7-3.5v-1l7 3.5z" fill="#baa794"/><path d="m12 79-7-3.5v-1l7 3.5z" fill="#baa794"/><path d="m13 70.5-9-4.5v-2l9 4.5z" fill="#f8ebcb"/><path d="m13 84.5-9-4.5v-1l9 4.5z" fill="#f8ebcb"/><path d="m13 104.5-9-4.5v-13l9 4.5z" fill="#baa794"/><path d="m5 88.5v11l3 1.5v-11z" fill="#39c"/><path d="m5 93.5v6l3 1.5z" fill="#fff" opacity=".2"/><path d="m9 90.5v11l3 1.5v-11z" fill="#39c"/><path d="m8 91-3-1.5v-1l3 1.5z" opacity=".15"/><path d="m12 93-3-1.5v-1l3 1.5z" opacity=".15"/><path d="m12 100-3-8.5v-1l3 1.5z" opacity=".15"/><path d="m12 96-7-3.5v-1l7 3.5z" fill="#baa794"/><path d="m12 100-7-3.5v-1l7 3.5z" fill="#baa794"/><path d="m13 91.5-9-4.5v-1h4l1 .5 4 4z" fill="#f8ebcb"/><path d="m13 105.5-9-4.5v-1l9 4.5z" fill="#f8ebcb"/><path d="m26 90-9-4.5v-13l9 4.5z" fill="#baa794"/><path d="m18 74v11l3 1.5v-11z" fill="#39c"/><path d="m18 79v6l3 1.5z" fill="#fff" opacity=".2"/><path d="m22 76v11l3 1.5v-11z" fill="#39c"/><path d="m21 76.5-3-1.5v-1l3 1.5z" opacity=".15"/><path d="m25 78.5-3-1.5v-1l3 1.5z" opacity=".15"/><path d="m25 85.5-3-8.5v-1l3 1.5z" opacity=".15"/><path d="m25 81.5-7-3.5v-1l7 3.5z" fill="#baa794"/><path d="m25 85.5-7-3.5v-1l7 3.5z" fill="#baa794"/><path d="m26 77-9-4.5v-2l9 4.5z" fill="#f8ebcb"/><path d="m26 91-9-4.5v-1l9 4.5z" fill="#f8ebcb"/><path d="m13 63.5-9-4.5v-13l9 4.5z" fill="#baa794"/><path d="m5 47.5v11l3 1.5v-11z" fill="#39c"/><path d="m5 52.5v6l3 1.5z" fill="#fff" opacity=".2"/><path d="m9 49.5v11l3 1.5v-11z" fill="#39c"/><path d="m8 50-3-1.5v-1l3 1.5z" opacity=".15"/><path d="m12 52-3-1.5v-1l3 1.5z" opacity=".15"/><path d="m12 59-3-8.5v-1l3 1.5z" opacity=".15"/><path d="m12 55-7-3.5v-1l7 3.5z" fill="#baa794"/><path d="m12 59-7-3.5v-1l7 3.5z" fill="#baa794"/><path d="m13 50.5-9-4.5v-1l9 4.5z" fill="#f8ebcb"/><path d="m13 64.5-9-4.5v-1l9 4.5z" fill="#f8ebcb"/><path d="m26 70-9-4.5v-13l9 4.5z" fill="#baa794"/><path d="m18 54v11l3 1.5v-11z" fill="#39c"/><path d="m18 59v6l3 1.5z" fill="#fff" opacity=".2"/><path d="m22 56v11l3 1.5v-11z" fill="#39c"/><path d="m21 56.5-3-1.5v-1l3 1.5z" opacity=".15"/><path d="m25 58.5-3-1.5v-1l3 1.5z" opacity=".15"/><path d="m25 65.5-3-8.5v-1l3 1.5z" opacity=".15"/><path d="m25 61.5-7-3.5v-1l7 3.5z" fill="#baa794"/><path d="m25 65.5-7-3.5v-1l7 3.5z" fill="#baa794"/><path d="m26 57-9-4.5v-1l9 4.5z" fill="#f8ebcb"/><path d="m26 71-9-4.5v-1l9 4.5z" fill="#f8ebcb"/><path d="m26 111-9-4.5v-13l9 4.5z" fill="#baa794"/><path d="m18 95v11l3 1.5v-11z" fill="#39c"/><path d="m18 100v6l3 1.5z" fill="#fff" opacity=".2"/><path d="m22 97v11l3 1.5v-11z" fill="#39c"/><path d="m21 97.5-3-1.5v-1l3 1.5z" opacity=".15"/><path d="m25 99.5-3-1.5v-1l3 1.5z" opacity=".15"/><path d="m25 106.5-3-8.5v-1l3 1.5z" opacity=".15"/><path d="m25 102.5-7-3.5v-1l7 3.5z" fill="#baa794"/><path d="m25 106.5-7-3.5v-1l7 3.5z" fill="#baa794"/><g fill="#f8ebcb"><path d="m26 98-9-4.5v-1h4l1 .5 4 4z"/><path d="m26 112-9-4.5v-1l9 4.5z"/><path d="m48 136-48-24v-3l48 24z"/><path d="m48 63-48-24v-1l48 24z"/></g><path d="m48 136-48-24v-74l48 24z" opacity=".06"/><path d="m40 124-8 4v-29l8 4z" fill="#762c07"/><path d="m40 124-8 4v-3l8-4z" fill="#f8ebcb"/><path d="m40 121 6 3v-18l-6-3z" fill="#f8ebcb"/><g fill="#f8ebcb" opacity=".3"><path d="m32 104v2l2-1v-2z"/><path d="m32 110v2l2-1v-2z"/><path d="m33 106.5v2l3-1.5v-2z"/><path d="m33 100.5v2l3-1.5-2-1z"/><path d="m33 112.5v2l3-1.5v-2z"/><path d="m33 118.5v2l3-1.5v-2z"/><path d="m37 104.5v2l3-1.5v-2z"/><path d="m37 110.5v2l3-1.5v-2z"/><path d="m37 116.5v2l3-1.5v-2z"/><path d="m32 116v2l2-1v-2z"/><path d="m32 122v2l2-1v-2z"/><path d="m35 102.5v2l3-1.5v-1l-1-.5z"/><path d="m35 108.5v2l3-1.5v-2z"/><path d="m35 114.5v2l3-1.5v-2z"/><path d="m35 120.5v2l3-1.5v-2z"/><path d="m39 118.5v2l1-.5v-2z"/><path d="m39 112.5v2l1-.5v-2z"/><path d="m39 106.5v2l1-.5v-2z"/></g><path d="m40 124-8 4v-29l8 4z" opacity=".39"/><path d="m46 108v-1l-1-.5-1-.5-3-1.5v16l3 1.5 1 .5 1 .5v-1l-1-.5v-14zm-2 13-2-1v-14l2 1z" opacity=".15"/><path d="m42 106v7l2 1v-7z" fill="#39c"/><path d="m44 108-2-1v-1l2 1z" opacity=".15"/><path d="m43 106.5v7l1 .5v-7z" fill="#39c"/><path d="m44 108-1-.5v-1l1 .5z" opacity=".15"/><path d="m46 109-6-3v-3l6 3z" opacity=".15"/><path d="m46 107-6-3v-1l6 3z" opacity=".15"/><path d="m40 121 6 3v-18l-6-3z" opacity=".06"/><path d="m46 135-14-7v-1l2-1v-1l2-1v-1l4-2 6 3z" fill="#baa794"/><g opacity=".3"><path d="m46 128-10-5v1l10 5z" opacity=".3"/><path d="m46 131-12-6v1l12 6z" opacity=".3"/><path d="m46 134-14-7v1l14 7z" opacity=".3"/></g><path d="m46 128-10-5v1l10 5z" opacity=".06"/><path d="m46 131-12-6v1l12 6z" opacity=".06"/><path d="m46 134-14-7v1l14 7z" opacity=".06"/><path d="m42 122-2 1 6 3v-2z" fill="#2d3134"/><path d="m96 110-48 24v-72l24-36 24 12z" fill="#762c07"/><g fill="#f8ebcb" opacity=".3"><path d="m52 128-3 1.5v2l3-1.5z"/><path d="m56 126-3 1.5v2l3-1.5z"/><path d="m60 124-3 1.5v2l3-1.5z"/><path d="m64 122-3 1.5v2l3-1.5z"/><path d="m68 120-3 1.5v2l3-1.5z"/><path d="m72 118-3 1.5v2l3-1.5z"/><path d="m76 116-3 1.5v2l3-1.5z"/><path d="m80 114-3 1.5v2l3-1.5z"/><path d="m84 112-3 1.5v2l3-1.5z"/><path d="m88 110-3 1.5v2l3-1.5z"/><path d="m92 108-3 1.5v2l3-1.5z"/><path d="m96 106-3 1.5v2l3-1.5z"/><path d="m50 126-2 1v2l2-1z"/><path d="m54 124-3 1.5v2l3-1.5z"/><path d="m58 122-3 1.5v2l3-1.5z"/><path d="m62 120-3 1.5v2l3-1.5z"/><path d="m66 118-3 1.5v2l3-1.5z"/><path d="m70 116-3 1.5v2l3-1.5z"/><path d="m74 114-3 1.5v2l3-1.5z"/><path d="m78 112-3 1.5v2l3-1.5z"/><path d="m82 110-3 1.5v2l3-1.5z"/><path d="m86 108-3 1.5v2l3-1.5z"/><path d="m90 106-3 1.5v2l3-1.5z"/><path d="m94 104-3 1.5v2l3-1.5z"/><path d="m96 103-1 .5v2l1-.5z"/><path d="m52 122-3 1.5v2l3-1.5z"/><path d="m56 120-3 1.5v2l3-1.5z"/><path d="m60 118-3 1.5v2l3-1.5z"/><path d="m64 116-3 1.5v2l3-1.5z"/><path d="m68 114-3 1.5v2l3-1.5z"/><path d="m72 112-3 1.5v2l3-1.5z"/><path d="m76 110-3 1.5v2l3-1.5z"/><path d="m80 108-3 1.5v2l3-1.5z"/><path d="m84 106-3 1.5v2l3-1.5z"/><path d="m88 104-3 1.5v2l3-1.5z"/><path d="m92 102-3 1.5v2l3-1.5z"/><path d="m96 100-3 1.5v2l3-1.5z"/><path d="m50 120-2 1v2l2-1z"/><path d="m54 118-3 1.5v2l3-1.5z"/><path d="m58 116-3 1.5v2l3-1.5z"/><path d="m62 114-3 1.5v2l3-1.5z"/><path d="m66 112-3 1.5v2l3-1.5z"/><path d="m70 110-3 1.5v2l3-1.5z"/><path d="m74 108-3 1.5v2l3-1.5z"/><path d="m78 106-3 1.5v2l3-1.5z"/><path d="m82 104-3 1.5v2l3-1.5z"/><path d="m86 102-3 1.5v2l3-1.5z"/><path d="m90 100-3 1.5v2l3-1.5z"/><path d="m94 98-3 1.5v2l3-1.5z"/><path d="m96 97-1 .5v2l1-.5z"/><path d="m52 116-3 1.5v2l3-1.5z"/><path d="m56 114-3 1.5v2l3-1.5z"/><path d="m60 112-3 1.5v2l3-1.5z"/><path d="m64 110-3 1.5v2l3-1.5z"/><path d="m68 108-3 1.5v2l3-1.5z"/><path d="m72 106-3 1.5v2l3-1.5z"/><path d="m76 104-3 1.5v2l3-1.5z"/><path d="m80 102-3 1.5v2l3-1.5z"/><path d="m84 100-3 1.5v2l3-1.5z"/><path d="m88 98-3 1.5v2l3-1.5z"/><path d="m92 96-3 1.5v2l3-1.5z"/><path d="m96 94-3 1.5v2l3-1.5z"/><path d="m50 114-2 1v2l2-1z"/><path d="m54 112-3 1.5v2l3-1.5z"/><path d="m58 110-3 1.5v2l3-1.5z"/><path d="m62 108-3 1.5v2l3-1.5z"/><path d="m66 106-3 1.5v2l3-1.5z"/><path d="m70 104-3 1.5v2l3-1.5z"/><path d="m74 102-3 1.5v2l3-1.5z"/><path d="m78 100-3 1.5v2l3-1.5z"/><path d="m82 98-3 1.5v2l3-1.5z"/><path d="m86 96-3 1.5v2l3-1.5z"/><path d="m90 94-3 1.5v2l3-1.5z"/><path d="m94 92-3 1.5v2l3-1.5z"/><path d="m96 91-1 .5v2l1-.5z"/><path d="m52 110-3 1.5v2l3-1.5z"/><path d="m56 108-3 1.5v2l3-1.5z"/><path d="m60 106-3 1.5v2l3-1.5z"/><path d="m64 104-3 1.5v2l3-1.5z"/><path d="m68 102-3 1.5v2l3-1.5z"/><path d="m72 100-3 1.5v2l3-1.5z"/><path d="m76 98-3 1.5v2l3-1.5z"/><path d="m80 96-3 1.5v2l3-1.5z"/><path d="m84 94-3 1.5v2l3-1.5z"/><path d="m88 92-3 1.5v2l3-1.5z"/><path d="m92 90-3 1.5v2l3-1.5z"/><path d="m96 88-3 1.5v2l3-1.5z"/><path d="m50 108-2 1v2l2-1z"/><path d="m54 106-3 1.5v2l3-1.5z"/><path d="m58 104-3 1.5v2l3-1.5z"/><path d="m62 102-3 1.5v2l3-1.5z"/><path d="m66 100-3 1.5v2l3-1.5z"/><path d="m70 98-3 1.5v2l3-1.5z"/><path d="m74 96-3 1.5v2l3-1.5z"/><path d="m78 94-3 1.5v2l3-1.5z"/><path d="m82 92-3 1.5v2l3-1.5z"/><path d="m86 90-3 1.5v2l3-1.5z"/><path d="m90 88-3 1.5v2l3-1.5z"/><path d="m94 86-3 1.5v2l3-1.5z"/><path d="m96 85-1 .5v2l1-.5z"/><path d="m52 104-3 1.5v2l3-1.5z"/><path d="m56 102-3 1.5v2l3-1.5z"/><path d="m60 100-3 1.5v2l3-1.5z"/><path d="m64 98-3 1.5v2l3-1.5z"/><path d="m68 96-3 1.5v2l3-1.5z"/><path d="m72 94-3 1.5v2l3-1.5z"/><path d="m76 92-3 1.5v2l3-1.5z"/><path d="m80 90-3 1.5v2l3-1.5z"/><path d="m84 88-3 1.5v2l3-1.5z"/><path d="m88 86-3 1.5v2l3-1.5z"/><path d="m92 84-3 1.5v2l3-1.5z"/><path d="m96 82-3 1.5v2l3-1.5z"/><path d="m50 102-2 1v2l2-1z"/><path d="m54 100-3 1.5v2l3-1.5z"/><path d="m58 98-3 1.5v2l3-1.5z"/><path d="m62 96-3 1.5v2l3-1.5z"/><path d="m66 94-3 1.5v2l3-1.5z"/><path d="m70 92-3 1.5v2l3-1.5z"/><path d="m74 90-3 1.5v2l3-1.5z"/><path d="m78 88-3 1.5v2l3-1.5z"/><path d="m82 86-3 1.5v2l3-1.5z"/><path d="m86 84-3 1.5v2l3-1.5z"/><path d="m90 82-3 1.5v2l3-1.5z"/><path d="m94 80-3 1.5v2l3-1.5z"/><path d="m96 79-1 .5v2l1-.5z"/><path d="m52 98-3 1.5v2l3-1.5z"/><path d="m56 96-3 1.5v2l3-1.5z"/><path d="m60 94-3 1.5v2l3-1.5z"/><path d="m64 92-3 1.5v2l3-1.5z"/><path d="m68 90-3 1.5v2l3-1.5z"/><path d="m72 88-3 1.5v2l3-1.5z"/><path d="m76 86-3 1.5v2l3-1.5z"/><path d="m80 84-3 1.5v2l3-1.5z"/><path d="m84 82-3 1.5v2l3-1.5z"/><path d="m88 80-3 1.5v2l3-1.5z"/><path d="m92 78-3 1.5v2l3-1.5z"/><path d="m96 76-3 1.5v2l3-1.5z"/><path d="m50 96-2 1v2l2-1z"/><path d="m54 94-3 1.5v2l3-1.5z"/><path d="m58 92-3 1.5v2l3-1.5z"/><path d="m62 90-3 1.5v2l3-1.5z"/><path d="m66 88-3 1.5v2l3-1.5z"/><path d="m70 86-3 1.5v2l3-1.5z"/><path d="m74 84-3 1.5v2l3-1.5z"/><path d="m78 82-3 1.5v2l3-1.5z"/><path d="m82 80-3 1.5v2l3-1.5z"/><path d="m86 78-3 1.5v2l3-1.5z"/><path d="m90 76-3 1.5v2l3-1.5z"/><path d="m94 74-3 1.5v2l3-1.5z"/><path d="m96 73-1 .5v2l1-.5z"/><path d="m52 92-3 1.5v2l3-1.5z"/><path d="m56 90-3 1.5v2l3-1.5z"/><path d="m60 88-3 1.5v2l3-1.5z"/><path d="m64 86-3 1.5v2l3-1.5z"/><path d="m68 84-3 1.5v2l3-1.5z"/><path d="m72 82-3 1.5v2l3-1.5z"/><path d="m76 80-3 1.5v2l3-1.5z"/><path d="m80 78-3 1.5v2l3-1.5z"/><path d="m84 76-3 1.5v2l3-1.5z"/><path d="m88 74-3 1.5v2l3-1.5z"/><path d="m92 72-3 1.5v2l3-1.5z"/><path d="m96 70-3 1.5v2l3-1.5z"/><path d="m50 90-2 1v2l2-1z"/><path d="m54 88-3 1.5v2l3-1.5z"/><path d="m58 86-3 1.5v2l3-1.5z"/><path d="m62 84-3 1.5v2l3-1.5z"/><path d="m66 82-3 1.5v2l3-1.5z"/><path d="m70 80-3 1.5v2l3-1.5z"/><path d="m74 78-3 1.5v2l3-1.5z"/><path d="m78 76-3 1.5v2l3-1.5z"/><path d="m82 74-3 1.5v2l3-1.5z"/><path d="m86 72-3 1.5v2l3-1.5z"/><path d="m90 70-3 1.5v2l3-1.5z"/><path d="m94 68-3 1.5v2l3-1.5z"/><path d="m96 67-1 .5v2l1-.5z"/><path d="m52 86-3 1.5v2l3-1.5z"/><path d="m56 84-3 1.5v2l3-1.5z"/><path d="m60 82-3 1.5v2l3-1.5z"/><path d="m64 80-3 1.5v2l3-1.5z"/><path d="m68 78-3 1.5v2l3-1.5z"/><path d="m72 76-3 1.5v2l3-1.5z"/><path d="m76 74-3 1.5v2l3-1.5z"/><path d="m80 72-3 1.5v2l3-1.5z"/><path d="m84 70-3 1.5v2l3-1.5z"/><path d="m88 68-3 1.5v2l3-1.5z"/><path d="m92 66-3 1.5v2l3-1.5z"/><path d="m96 64-3 1.5v2l3-1.5z"/><path d="m50 84-2 1v2l2-1z"/><path d="m54 82-3 1.5v2l3-1.5z"/><path d="m58 80-3 1.5v2l3-1.5z"/><path d="m62 78-3 1.5v2l3-1.5z"/><path d="m66 76-3 1.5v2l3-1.5z"/><path d="m70 74-3 1.5v2l3-1.5z"/><path d="m74 72-3 1.5v2l3-1.5z"/><path d="m78 70-3 1.5v2l3-1.5z"/><path d="m82 68-3 1.5v2l3-1.5z"/><path d="m86 66-3 1.5v2l3-1.5z"/><path d="m90 64-3 1.5v2l3-1.5z"/><path d="m94 62-3 1.5v2l3-1.5z"/><path d="m96 61-1 .5v2l1-.5z"/><path d="m52 80-3 1.5v2l3-1.5z"/><path d="m56 78-3 1.5v2l3-1.5z"/><path d="m60 76-3 1.5v2l3-1.5z"/><path d="m64 74-3 1.5v2l3-1.5z"/><path d="m68 72-3 1.5v2l3-1.5z"/><path d="m72 70-3 1.5v2l3-1.5z"/><path d="m76 68-3 1.5v2l3-1.5z"/><path d="m80 66-3 1.5v2l3-1.5z"/><path d="m84 64-3 1.5v2l3-1.5z"/><path d="m88 62-3 1.5v2l3-1.5z"/><path d="m92 60-3 1.5v2l3-1.5z"/><path d="m96 58-3 1.5v2l3-1.5z"/><path d="m50 78-2 1v2l2-1z"/><path d="m54 76-3 1.5v2l3-1.5z"/><path d="m58 74-3 1.5v2l3-1.5z"/><path d="m62 72-3 1.5v2l3-1.5z"/><path d="m66 70-3 1.5v2l3-1.5z"/><path d="m70 68-3 1.5v2l3-1.5z"/><path d="m74 66-3 1.5v2l3-1.5z"/><path d="m78 64-3 1.5v2l3-1.5z"/><path d="m82 62-3 1.5v2l3-1.5z"/><path d="m86 60-3 1.5v2l3-1.5z"/><path d="m90 58-3 1.5v2l3-1.5z"/><path d="m94 56-3 1.5v2l3-1.5z"/><path d="m96 55-1 .5v2l1-.5z"/><path d="m52 74-3 1.5v2l3-1.5z"/><path d="m56 72-3 1.5v2l3-1.5z"/><path d="m60 70-3 1.5v2l3-1.5z"/><path d="m64 68-3 1.5v2l3-1.5z"/><path d="m68 66-3 1.5v2l3-1.5z"/><path d="m72 64-3 1.5v2l3-1.5z"/><path d="m76 62-3 1.5v2l3-1.5z"/><path d="m80 60-3 1.5v2l3-1.5z"/><path d="m84 58-3 1.5v2l3-1.5z"/><path d="m88 56-3 1.5v2l3-1.5z"/><path d="m92 54-3 1.5v2l3-1.5z"/><path d="m96 52-3 1.5v2l3-1.5z"/><path d="m50 72-2 1v2l2-1z"/><path d="m54 70-3 1.5v2l3-1.5z"/><path d="m58 68-3 1.5v2l3-1.5z"/><path d="m62 66-3 1.5v2l3-1.5z"/><path d="m66 64-3 1.5v2l3-1.5z"/><path d="m70 62-3 1.5v2l3-1.5z"/><path d="m74 60-3 1.5v2l3-1.5z"/><path d="m78 58-3 1.5v2l3-1.5z"/><path d="m82 56-3 1.5v2l3-1.5z"/><path d="m86 54-3 1.5v2l3-1.5z"/><path d="m90 52-3 1.5v2l3-1.5z"/><path d="m94 50-3 1.5v2l3-1.5z"/><path d="m96 49-1 .5v2l1-.5z"/><path d="m52 68-3 1.5v2l3-1.5z"/><path d="m56 66-3 1.5v2l3-1.5z"/><path d="m60 64-3 1.5v2l3-1.5z"/><path d="m64 62-3 1.5v2l3-1.5z"/><path d="m68 60-3 1.5v2l3-1.5z"/><path d="m72 58-3 1.5v2l3-1.5z"/><path d="m76 56-3 1.5v2l3-1.5z"/><path d="m80 54-3 1.5v2l3-1.5z"/><path d="m84 52-3 1.5v2l3-1.5z"/><path d="m88 50-3 1.5v2l3-1.5z"/><path d="m92 48-3 1.5v2l3-1.5z"/><path d="m96 46-3 1.5v2l3-1.5z"/><path d="m50 66-2 1v2l2-1z"/><path d="m54 64-3 1.5v2l3-1.5z"/><path d="m58 62-3 1.5v2l3-1.5z"/><path d="m62 60-3 1.5v2l3-1.5z"/><path d="m66 58-3 1.5v2l3-1.5z"/><path d="m70 56-3 1.5v2l3-1.5z"/><path d="m74 54-3 1.5v2l3-1.5z"/><path d="m78 52-3 1.5v2l3-1.5z"/><path d="m82 50-3 1.5v2l3-1.5z"/><path d="m86 48-3 1.5v2l3-1.5z"/><path d="m90 46-3 1.5v2l3-1.5z"/><path d="m94 44-3 1.5v2l3-1.5z"/><path d="m96 43-1 .5v2l1-.5z"/><path d="m52 62-3 1.5v2l3-1.5z"/><path d="m56 60-3 1.5v2l3-1.5z"/><path d="m60 58-3 1.5v2l3-1.5z"/><path d="m64 56-3 1.5v2l3-1.5z"/><path d="m68 54-3 1.5v2l3-1.5z"/><path d="m72 52-3 1.5v2l3-1.5z"/><path d="m76 50-3 1.5v2l3-1.5z"/><path d="m80 48-3 1.5v2l3-1.5z"/><path d="m84 46-3 1.5v2l3-1.5z"/><path d="m88 44-3 1.5v2l3-1.5z"/><path d="m92 42-3 1.5v2l3-1.5z"/><path d="m96 40-3 1.5v2l3-1.5z"/><path d="m54 58-3 1.5v2l3-1.5z"/><path d="m58 56-3 1.5v2l3-1.5z"/><path d="m62 54-3 1.5v2l3-1.5z"/><path d="m66 52-3 1.5v2l3-1.5z"/><path d="m70 50-3 1.5v2l3-1.5z"/><path d="m74 48-3 1.5v2l3-1.5z"/><path d="m78 46-3 1.5v2l3-1.5z"/><path d="m82 44-3 1.5v2l3-1.5z"/><path d="m86 42-3 1.5v2l3-1.5z"/><path d="m90 40-3 1.5v2l3-1.5z"/><path d="m94 38-3 1.5v2l3-1.5z"/><path d="m96 37-1 .5v2l1-.5z"/><path d="m56 54-3 1.5v2l3-1.5z"/><path d="m60 52-3 1.5v2l3-1.5z"/><path d="m64 50-3 1.5v2l3-1.5z"/><path d="m68 48-3 1.5v2l3-1.5z"/><path d="m72 46-3 1.5v2l3-1.5z"/><path d="m76 44-3 1.5v2l3-1.5z"/><path d="m80 42-3 1.5v2l3-1.5z"/><path d="m84 40-3 1.5v2l3-1.5z"/><path d="m88 38-3 1.5v2l3-1.5z"/><path d="m91 36.5-2 1v2l3-1.5z"/><path d="m58 50-2 1-1 2.5 3-1.5z"/><path d="m62 48-3 1.5v2l3-1.5z"/><path d="m66 46-3 1.5v2l3-1.5z"/><path d="m70 44-3 1.5v2l3-1.5z"/><path d="m74 42-3 1.5v2l3-1.5z"/><path d="m78 40-3 1.5v2l3-1.5z"/><path d="m82 38-3 1.5v2l3-1.5z"/><path d="m86 36-3 1.5v2l3-1.5z"/><path d="m88 35-1 .5v2l3-1.5z"/><path d="m60 46-1 .5-2 3 3-1.5z"/><path d="m64 44-3 1.5v2l3-1.5z"/><path d="m68 42-3 1.5v2l3-1.5z"/><path d="m72 40-3 1.5v2l3-1.5z"/><path d="m76 38-3 1.5v2l3-1.5z"/><path d="m80 36-3 1.5v2l3-1.5z"/><path d="m84 34-3 1.5v2l3-1.5z"/><path d="m66 40-3 1.5v2l3-1.5z"/><path d="m70 38-3 1.5v2l3-1.5z"/><path d="m74 36-3 1.5v2l3-1.5z"/><path d="m78 34-3 1.5v2l3-1.5z"/><path d="m82 32-3 1.5v2l3-1.5z"/><path d="m68 36-3 1.5v2l3-1.5z"/><path d="m72 34-3 1.5v2l3-1.5z"/><path d="m76 32-3 1.5v2l3-1.5z"/><path d="m80 30-3 1.5v2l3-1.5z"/><path d="m70 32-3 1.5v2l3-1.5z"/><path d="m74 30-3 1.5v2l3-1.5z"/><path d="m77 28.5-2 1v2l3-1.5z"/><path d="m72 28-1 .5-2 3 3-1.5z"/></g><g fill="#f8ebcb" opacity=".3"><path d="m52 128-3 1.5v2l3-1.5z"/><path d="m96 106-3 1.5v2l3-1.5z"/><path d="m50 126-2 1v2l2-1z"/><path d="m96 103-1 .5v2l1-.5z"/><path d="m52 122-3 1.5v2l3-1.5z"/><path d="m96 100-3 1.5v2l3-1.5z"/><path d="m50 120-2 1v2l2-1z"/><path d="m96 97-1 .5v2l1-.5z"/><path d="m52 116-3 1.5v2l3-1.5z"/><path d="m96 94-3 1.5v2l3-1.5z"/><path d="m50 114-2 1v2l2-1z"/><path d="m96 91-1 .5v2l1-.5z"/><path d="m52 110-3 1.5v2l3-1.5z"/><path d="m96 88-3 1.5v2l3-1.5z"/><path d="m50 108-2 1v2l2-1z"/><path d="m96 85-1 .5v2l1-.5z"/><path d="m52 104-3 1.5v2l3-1.5z"/><path d="m96 82-3 1.5v2l3-1.5z"/><path d="m50 102-2 1v2l2-1z"/><path d="m96 79-1 .5v2l1-.5z"/><path d="m52 98-3 1.5v2l3-1.5z"/><path d="m96 76-3 1.5v2l3-1.5z"/><path d="m50 96-2 1v2l2-1z"/><path d="m96 73-1 .5v2l1-.5z"/><path d="m52 92-3 1.5v2l3-1.5z"/><path d="m96 70-3 1.5v2l3-1.5z"/><path d="m50 90-2 1v2l2-1z"/><path d="m96 67-1 .5v2l1-.5z"/><path d="m52 86-3 1.5v2l3-1.5z"/><path d="m96 64-3 1.5v2l3-1.5z"/><path d="m50 84-2 1v2l2-1z"/><path d="m96 61-1 .5v2l1-.5z"/><path d="m52 80-3 1.5v2l3-1.5z"/><path d="m96 58-3 1.5v2l3-1.5z"/><path d="m50 78-2 1v2l2-1z"/><path d="m96 55-1 .5v2l1-.5z"/><path d="m52 74-3 1.5v2l3-1.5z"/><path d="m96 52-3 1.5v2l3-1.5z"/><path d="m50 72-2 1v2l2-1z"/><path d="m96 49-1 .5v2l1-.5z"/><path d="m52 68-3 1.5v2l3-1.5z"/><path d="m96 46-3 1.5v2l3-1.5z"/><path d="m50 66-2 1v2l2-1z"/><path d="m96 43-1 .5v2l1-.5z"/><path d="m52 62-3 1.5v2l3-1.5z"/><path d="m96 40-3 1.5v2l3-1.5z"/></g><path d="m68 91-9 4.5v-13l9-4.5z" fill="#baa794"/><path d="m60 83v11l3-1.5v-11z" fill="#39c"/><path d="m60 88v6l3-1.5z" fill="#fff" opacity=".2"/><path d="m64 81v11l3-1.5v-11z" fill="#39c"/><path d="m63 82.5-3 1.5v-1l3-1.5z" opacity=".15"/><path d="m67 80.5-3 1.5v-1l3-1.5z" opacity=".15"/><path d="m67 87.5-3-5.5v-1l3-1.5z" opacity=".15"/><path d="m67 83.5-7 3.5v-1l7-3.5z" fill="#baa794"/><path d="m67 87.5-7 3.5v-1l7-3.5z" fill="#baa794"/><path d="m68 78-9 4.5v-2l9-4.5z" fill="#f8ebcb"/><path d="m68 92-9 4.5v-1l9-4.5z" fill="#f8ebcb"/><path d="m85 82.5-9 4.5v-13l9-4.5z" fill="#baa794"/><path d="m77 74.5v11l3-1.5v-11z" fill="#39c"/><path d="m77 79.5v6l3-1.5z" fill="#fff" opacity=".2"/><path d="m81 72.5v11l3-1.5v-11z" fill="#39c"/><path d="m80 74-3 1.5v-1l3-1.5z" opacity=".15"/><path d="m84 72-3 1.5v-1l3-1.5z" opacity=".15"/><path d="m84 79-3-5.5v-1l3-1.5z" opacity=".15"/><path d="m84 75-7 3.5v-1l7-3.5z" fill="#baa794"/><path d="m84 79-7 3.5v-1l7-3.5z" fill="#baa794"/><path d="m85 69.5-9 4.5v-2l9-4.5z" fill="#f8ebcb"/><path d="m85 83.5-9 4.5v-1l9-4.5z" fill="#f8ebcb"/><path d="m68 71-9 4.5v-13l9-4.5z" fill="#baa794"/><path d="m60 63v11l3-1.5v-11z" fill="#39c"/><path d="m60 68v6l3-1.5z" fill="#fff" opacity=".2"/><path d="m64 61v11l3-1.5v-11z" fill="#39c"/><path d="m63 62.5-3 1.5v-1l3-1.5z" opacity=".15"/><path d="m67 60.5-3 1.5v-1l3-1.5z" opacity=".15"/><path d="m67 67.5-3-5.5v-1l3-1.5z" opacity=".15"/><path d="m67 63.5-7 3.5v-1l7-3.5z" fill="#baa794"/><path d="m67 67.5-7 3.5v-1l7-3.5z" fill="#baa794"/><path d="m68 58-9 4.5v-1l9-4.5z" fill="#f8ebcb"/><path d="m68 72-9 4.5v-1l9-4.5z" fill="#f8ebcb"/><path d="m85 62.5-9 4.5v-13l9-4.5z" fill="#baa794"/><path d="m77 54.5v11l3-1.5v-11z" fill="#39c"/><path d="m77 59.5v6l3-1.5z" fill="#fff" opacity=".2"/><path d="m81 52.5v11l3-1.5v-11z" fill="#39c"/><path d="m80 54-3 1.5v-1l3-1.5z" opacity=".15"/><path d="m84 52-3 1.5v-1l3-1.5z" opacity=".15"/><path d="m84 59-3-5.5v-1l3-1.5z" opacity=".15"/><path d="m84 55-7 3.5v-1l7-3.5z" fill="#baa794"/><path d="m84 59-7 3.5v-1l7-3.5z" fill="#baa794"/><path d="m85 49.5-9 4.5v-1l9-4.5z" fill="#f8ebcb"/><path d="m85 63.5-9 4.5v-1l9-4.5z" fill="#f8ebcb"/><path d="m76 46-8 4v-11l8-4z" fill="#baa794"/><path d="m69 39.5v9l6-3v-9z" fill="#39c"/><path d="m75 37.5-6 3v-1l6-3z" opacity=".15"/><path d="m75 44.5-6-4v-1l6-3z" opacity=".15"/><path d="m75 40.5-6 3v-1l6-3z" fill="#baa794"/><path d="m68 112-9 4.5v-13l9-4.5z" fill="#baa794"/><path d="m60 104v11l3-1.5v-11z" fill="#39c"/><path d="m60 109v6l3-1.5z" fill="#fff" opacity=".2"/><path d="m64 102v11l3-1.5v-11z" fill="#39c"/><path d="m63 103.5-3 1.5v-1l3-1.5z" opacity=".15"/><path d="m67 101.5-3 1.5v-1l3-1.5z" opacity=".15"/><path d="m67 108.5-3-5.5v-1l3-1.5z" opacity=".15"/><path d="m67 104.5-7 3.5v-1l7-3.5z" fill="#baa794"/><path d="m67 108.5-7 3.5v-1l7-3.5z" fill="#baa794"/><path d="m68 99-9 4.5v-1l4-4 1-.5h4z" fill="#f8ebcb"/><path d="m68 113-9 4.5v-1l9-4.5z" fill="#f8ebcb"/><path d="m85 103.5-9 4.5v-13l9-4.5z" fill="#baa794"/><path d="m77 95.5v11l3-1.5v-11z" fill="#39c"/><path d="m77 100.5v6l3-1.5z" fill="#fff" opacity=".2"/><path d="m81 93.5v11l3-1.5v-11z" fill="#39c"/><path d="m80 95-3 1.5v-1l3-1.5z" opacity=".15"/><path d="m84 93-3 1.5v-1l3-1.5z" opacity=".15"/><path d="m84 100-3-5.5v-1l3-1.5z" opacity=".15"/><path d="m84 96-7 3.5v-1l7-3.5z" fill="#baa794"/><path d="m84 100-7 3.5v-1l7-3.5z" fill="#baa794"/><path d="m85 90.5-9 4.5v-1l4-4 1-.5h4z" fill="#f8ebcb"/><path d="m85 104.5-9 4.5v-1l9-4.5z" fill="#f8ebcb"/><path d="m96 112-48 24v-3l48-24z" fill="#f8ebcb"/><path d="m72 26-24 36v1l24-36 24 12v-1z" fill="#f8ebcb"/><path d="m96 112-48 24v-74l24-36 24 12z" opacity=".39"/><path d="m0 38 48 24 24-36-48-24z" fill="#2d3134"/><path d="m48 14 48 24-24-12-48-24z" fill="#2d3134"/><path d="m15.8 37.3 6.9-10.3 7.2 3.6-6.9 10.3z" fill="#baa794"/><path d="m17.3 36.9 5.8-8.6 5.4 2.7-5.8 8.6z" fill="#39c"/><path d="m23 29.2 5 2.5.5-.7-5.4-2.7-5.8 8.6.4.2z" opacity=".15"/><path d="m26.9 33.9-6-3v1l6 3z" fill="#baa794"/><path d="m29.9 44.2 6.9-10.3 7.2 3.6-6.9 10.3z" fill="#baa794"/><path d="m31.4 43.9 5.7-8.7 5.4 2.7-5.7 8.7z" fill="#39c"/><path d="m37.1 36.1 5 2.5.4-.7-5.4-2.7-5.7 8.7.4.2z" opacity=".15"/><path d="m41 40.8-6-3v1l6 3z" fill="#baa794"/><path d="m0 38 48 24 24-36-48-24z" opacity=".06"/><path d="m22.8 3.7 48 24 1.2-1.7-48-24z" fill="#fff" opacity=".2"/></svg>