<svg enable-background="new 0 0 208 184" viewBox="0 0 208 184" xmlns="http://www.w3.org/2000/svg"><path d="m0 40 80-40 128 64v2l-80 40-128-64z" fill="#e5e5e5"/><path d="m8.9 40 71.1-35.5 119.1 59.5-71.1 35.5z" opacity=".3"/><path d="m80 7v-2.5l-71.1 35.5 2.6 1.3z" opacity=".39"/><path d="m80 7 116.5 58.3 2.6-1.3-119.1-59.5z" opacity=".06"/><path d="m128 184-128-64v-80l128 64z" fill="#e5e5e5"/><g fill="#fff"><path d="m23 71.5-13-6.5v-8l13 6.5z"/><path d="m23 91.5-13-6.5v-8l13 6.5z"/><path d="m23 111.5-13-6.5v-8l13 6.5z"/><path d="m39 79.5-13-6.5v-8l13 6.5z"/><path d="m39 99.5-13-6.5v-8l13 6.5z"/><path d="m39 119.5-13-6.5v-8l13 6.5z"/><path d="m55 87.5-13-6.5v-8l13 6.5z"/><path d="m55 107.5-13-6.5v-8l13 6.5z"/><path d="m55 127.5-13-6.5v-8l13 6.5z"/><path d="m71 95.5-13-6.5v-8l13 6.5z"/><path d="m71 115.5-13-6.5v-8l13 6.5z"/><path d="m71 135.5-13-6.5v-8l13 6.5z"/><path d="m87 103.5-13-6.5v-8l13 6.5z"/><path d="m87 123.5-13-6.5v-8l13 6.5z"/><path d="m87 143.5-13-6.5v-8l13 6.5z"/><path d="m103 111.5-13-6.5v-8l13 6.5z"/><path d="m103 131.5-13-6.5v-8l13 6.5z"/><path d="m103 151.5-13-6.5v-8l13 6.5z"/><path d="m119 119.5-13-6.5v-8l13 6.5z"/><path d="m119 139.5-13-6.5v-8l13 6.5z"/><path d="m119 159.5-13-6.5v-8l13 6.5z"/></g><path d="m118 118-5-2.5v-6l5 2.5z" fill="#39c"/><path d="m114 115v-5l-1-.5v6l5 2.5v-1z" opacity=".3"/><path d="m112 115-5-2.5v-6l5 2.5z" fill="#39c"/><path d="m108 112v-5l-1-.5v6l5 2.5v-1z" opacity=".3"/><path d="m102 110-5-2.5v-6l5 2.5z" fill="#39c"/><path d="m98 107v-5l-1-.5v6l5 2.5v-1z" opacity=".3"/><path d="m96 107-5-2.5v-6l5 2.5z" fill="#39c"/><path d="m92 104v-5l-1-.5v6l5 2.5v-1z" opacity=".3"/><path d="m86 102-5-2.5v-6l5 2.5z" fill="#39c"/><path d="m86 102-5-2.5v-6z" fill="#fff" opacity=".2"/><path d="m82 99v-5l-1-.5v6l5 2.5v-1z" opacity=".3"/><path d="m80 99-5-2.5v-6l5 2.5z" fill="#39c"/><path d="m76 96v-5l-1-.5v6l5 2.5v-1z" opacity=".3"/><path d="m70 94-5-2.5v-6l5 2.5z" fill="#39c"/><path d="m66 91v-5l-1-.5v6l5 2.5v-1z" opacity=".3"/><path d="m64 91-5-2.5v-6l5 2.5z" fill="#39c"/><path d="m60 88v-5l-1-.5v6l5 2.5v-1z" opacity=".3"/><path d="m54 86-5-2.5v-6l5 2.5z" fill="#39c"/><path d="m50 83v-5l-1-.5v6l5 2.5v-1z" opacity=".3"/><path d="m48 83-5-2.5v-6l5 2.5z" fill="#39c"/><path d="m44 80v-5l-1-.5v6l5 2.5v-1z" opacity=".3"/><path d="m38 78-5-2.5v-6l5 2.5z" fill="#39c"/><path d="m34 75v-5l-1-.5v6l5 2.5v-1z" opacity=".3"/><path d="m32 75-5-2.5v-6l5 2.5z" fill="#39c"/><path d="m28 72v-5l-1-.5v6l5 2.5v-1z" opacity=".3"/><path d="m22 70-5-2.5v-6l5 2.5z" fill="#39c"/><path d="m22 70-5-2.5v-6z" fill="#fff" opacity=".2"/><path d="m18 67v-5l-1-.5v6l5 2.5v-1z" opacity=".3"/><path d="m16 67-5-2.5v-6l5 2.5z" fill="#39c"/><path d="m12 64v-5l-1-.5v6l5 2.5v-1z" opacity=".3"/><path d="m118 138-5-2.5v-6l5 2.5z" fill="#39c"/><path d="m114 135v-5l-1-.5v6l5 2.5v-1z" opacity=".3"/><path d="m112 135-5-2.5v-6l5 2.5z" fill="#39c"/><path d="m108 132v-5l-1-.5v6l5 2.5v-1z" opacity=".3"/><path d="m102 130-5-2.5v-6l5 2.5z" fill="#39c"/><path d="m98 127v-5l-1-.5v6l5 2.5v-1z" opacity=".3"/><path d="m96 127-5-2.5v-6l5 2.5z" fill="#39c"/><path d="m92 124v-5l-1-.5v6l5 2.5v-1z" opacity=".3"/><path d="m86 122-5-2.5v-6l5 2.5z" fill="#39c"/><path d="m86 122-5-2.5v-6z" fill="#fff" opacity=".2"/><path d="m82 119v-5l-1-.5v6l5 2.5v-1z" opacity=".3"/><path d="m80 119-5-2.5v-6l5 2.5z" fill="#39c"/><path d="m76 116v-5l-1-.5v6l5 2.5v-1z" opacity=".3"/><path d="m70 114-5-2.5v-6l5 2.5z" fill="#39c"/><path d="m66 111v-5l-1-.5v6l5 2.5v-1z" opacity=".3"/><path d="m64 111-5-2.5v-6l5 2.5z" fill="#39c"/><path d="m60 108v-5l-1-.5v6l5 2.5v-1z" opacity=".3"/><path d="m54 106-5-2.5v-6l5 2.5z" fill="#39c"/><path d="m50 103v-5l-1-.5v6l5 2.5v-1z" opacity=".3"/><path d="m48 103-5-2.5v-6l5 2.5z" fill="#39c"/><path d="m44 100v-5l-1-.5v6l5 2.5v-1z" opacity=".3"/><path d="m38 98-5-2.5v-6l5 2.5z" fill="#39c"/><path d="m34 95v-5l-1-.5v6l5 2.5v-1z" opacity=".3"/><path d="m32 95-5-2.5v-6l5 2.5z" fill="#39c"/><path d="m28 92v-5l-1-.5v6l5 2.5v-1z" opacity=".3"/><path d="m22 90-5-2.5v-6l5 2.5z" fill="#39c"/><path d="m22 90-5-2.5v-6z" fill="#fff" opacity=".2"/><path d="m18 87v-5l-1-.5v6l5 2.5v-1z" opacity=".3"/><path d="m16 87-5-2.5v-6l5 2.5z" fill="#39c"/><path d="m12 84v-5l-1-.5v6l5 2.5v-1z" opacity=".3"/><path d="m118 158-5-2.5v-6l5 2.5z" fill="#39c"/><path d="m114 155v-5l-1-.5v6l5 2.5v-1z" opacity=".3"/><path d="m112 155-5-2.5v-6l5 2.5z" fill="#39c"/><path d="m108 152v-5l-1-.5v6l5 2.5v-1z" opacity=".3"/><path d="m102 150-5-2.5v-6l5 2.5z" fill="#39c"/><path d="m98 147v-5l-1-.5v6l5 2.5v-1z" opacity=".3"/><path d="m96 147-5-2.5v-6l5 2.5z" fill="#39c"/><path d="m92 144v-5l-1-.5v6l5 2.5v-1z" opacity=".3"/><path d="m86 142-5-2.5v-6l5 2.5z" fill="#39c"/><path d="m86 142-5-2.5v-6z" fill="#fff" opacity=".2"/><path d="m82 139v-5l-1-.5v6l5 2.5v-1z" opacity=".3"/><path d="m80 139-5-2.5v-6l5 2.5z" fill="#39c"/><path d="m76 136v-5l-1-.5v6l5 2.5v-1z" opacity=".3"/><path d="m70 134-5-2.5v-6l5 2.5z" fill="#39c"/><path d="m66 131v-5l-1-.5v6l5 2.5v-1z" opacity=".3"/><path d="m64 131-5-2.5v-6l5 2.5z" fill="#39c"/><path d="m60 128v-5l-1-.5v6l5 2.5v-1z" opacity=".3"/><path d="m54 126-5-2.5v-6l5 2.5z" fill="#39c"/><path d="m50 123v-5l-1-.5v6l5 2.5v-1z" opacity=".3"/><path d="m48 123-5-2.5v-6l5 2.5z" fill="#39c"/><path d="m44 120v-5l-1-.5v6l5 2.5v-1z" opacity=".3"/><path d="m38 118-5-2.5v-6l5 2.5z" fill="#39c"/><path d="m34 115v-5l-1-.5v6l5 2.5v-1z" opacity=".3"/><path d="m32 115-5-2.5v-6l5 2.5z" fill="#39c"/><path d="m28 112v-5l-1-.5v6l5 2.5v-1z" opacity=".3"/><path d="m22 110-5-2.5v-6l5 2.5z" fill="#39c"/><path d="m22 110-5-2.5v-6z" fill="#fff" opacity=".2"/><path d="m18 107v-5l-1-.5v6l5 2.5v-1z" opacity=".3"/><path d="m16 107-5-2.5v-6l5 2.5z" fill="#39c"/><path d="m12 104v-5l-1-.5v6l5 2.5v-1z" opacity=".3"/><path d="m128 184-128-64v-80l128 64z" opacity=".06"/><path d="m128 184 80-40v-80l-80 40z" fill="#e5e5e5"/><path d="m185 95.5 13-6.5v-8l-13 6.5z" fill="#fff"/><path d="m185 115.5 13-6.5v-8l-13 6.5z" fill="#fff"/><path d="m185 135.5 13-6.5v-8l-13 6.5z" fill="#fff"/><path d="m169 103.5 13-6.5v-8l-13 6.5z" fill="#fff"/><path d="m169 123.5 13-6.5v-8l-13 6.5z" fill="#fff"/><path d="m169 143.5 13-6.5v-8l-13 6.5z" fill="#fff"/><path d="m170 102 5-2.5v-6l-5 2.5z" fill="#39c"/><path d="m174 99v-5l1-.5v6l-5 2.5v-1z" opacity=".3"/><path d="m176 99 5-2.5v-6l-5 2.5z" fill="#39c"/><path d="m180 96v-5l1-.5v6l-5 2.5v-1z" opacity=".3"/><path d="m186 94 5-2.5v-6l-5 2.5z" fill="#39c"/><path d="m186 94 5-2.5v-6z" fill="#fff" opacity=".2"/><path d="m190 91v-5l1-.5v6l-5 2.5v-1z" opacity=".3"/><path d="m192 91 5-2.5v-6l-5 2.5z" fill="#39c"/><path d="m196 88v-5l1-.5v6l-5 2.5v-1z" opacity=".3"/><path d="m170 122 5-2.5v-6l-5 2.5z" fill="#39c"/><path d="m174 119v-5l1-.5v6l-5 2.5v-1z" opacity=".3"/><path d="m176 119 5-2.5v-6l-5 2.5z" fill="#39c"/><path d="m180 116v-5l1-.5v6l-5 2.5v-1z" opacity=".3"/><path d="m186 114 5-2.5v-6l-5 2.5z" fill="#39c"/><path d="m186 114 5-2.5v-6z" fill="#fff" opacity=".2"/><path d="m190 111v-5l1-.5v6l-5 2.5v-1z" opacity=".3"/><path d="m192 111 5-2.5v-6l-5 2.5z" fill="#39c"/><path d="m196 108v-5l1-.5v6l-5 2.5v-1z" opacity=".3"/><path d="m170 142 5-2.5v-6l-5 2.5z" fill="#39c"/><path d="m174 139v-5l1-.5v6l-5 2.5v-1z" opacity=".3"/><path d="m176 139 5-2.5v-6l-5 2.5z" fill="#39c"/><path d="m180 136v-5l1-.5v6l-5 2.5v-1z" opacity=".3"/><path d="m186 134 5-2.5v-6l-5 2.5z" fill="#39c"/><path d="m186 134 5-2.5v-6z" fill="#fff" opacity=".2"/><path d="m190 131v-5l1-.5v6l-5 2.5v-1z" opacity=".3"/><path d="m192 131 5-2.5v-6l-5 2.5z" fill="#39c"/><path d="m196 128v-5l1-.5v6l-5 2.5v-1z" opacity=".3"/><path d="m128 184 80-40v-80l-80 40z" opacity=".39"/><path d="m146 40-16 8v3l32 16 16-8v-3z" fill="#e5e5e5"/><path d="m178 64-16 8v-8l16-8z" fill="#e5e5e5"/><path d="m178 64-16 8v-8l16-8z" opacity=".39"/><path d="m162 72-32-16v-8l32 16z" fill="#e5e5e5"/><path d="m162 72-32-16v-8l32 16z" opacity=".06"/><path d="m145 0c-4.4 0-8 1.8-8 4v44c0 2.2 3.6 4 8 4s8-1.8 8-4v-44c0-2.2-3.6-4-8-4z" fill="#e5e5e5"/><path d="m145 8c-4.4 0-8-1.8-8-4v44c0 2.2 3.6 4 8 4s8-1.8 8-4v-44c0 2.2-3.6 4-8 4z" opacity=".2"/><ellipse cx="145" cy="4" opacity=".4" rx="6" ry="2.5"/><path d="m163 8c-4.4 0-8 1.8-8 4v44c0 2.2 3.6 4 8 4s8-1.8 8-4v-44c0-2.2-3.6-4-8-4z" fill="#e5e5e5"/><path d="m163 16c-4.4 0-8-1.8-8-4v44c0 2.2 3.6 4 8 4s8-1.8 8-4v-44c0 2.2-3.6 4-8 4z" opacity=".2"/><ellipse cx="163" cy="12" opacity=".4" rx="6" ry="2.5"/></svg>