<svg enable-background="new 0 0 128 120" viewBox="0 0 128 120" xmlns="http://www.w3.org/2000/svg"><path d="m48 120-48-24v-56l48 40z" fill="#e5e5e5"/><path d="m42 117-36-18v-32l36 18z" fill="#fff"/><path d="m7 68.5 34 17v31l-34-17z" fill="#656565"/><g fill="#fff"><path d="m41 115.5-34-17v-1l34 17z" opacity=".25"/><path d="m41 113.5-34-17v-1l34 17z" opacity=".25"/><path d="m41 111.5-34-17v-1l34 17z" opacity=".25"/><path d="m41 109.5-34-17v-1l34 17z" opacity=".25"/><path d="m41 107.5-34-17v-1l34 17z" opacity=".25"/><path d="m41 105.5-34-17v-1l34 17z" opacity=".25"/><path d="m41 103.5-34-17v-1l34 17z" opacity=".25"/><path d="m41 93.5-34-17v-1l34 17z" opacity=".25"/><path d="m41 95.5-34-17v-1l34 17z" opacity=".25"/><path d="m41 91.5-34-17v-1l34 17z" opacity=".25"/><path d="m41 89.5-34-17v-1l34 17z" opacity=".25"/><path d="m41 101.5-34-17v-1l34 17z" opacity=".25"/><path d="m41 99.5-34-17v-1l34 17z" opacity=".25"/><path d="m41 97.5-34-17v-1l34 17z" opacity=".25"/><path d="m41 87.5-34-17v-1l34 17z" opacity=".25"/></g><path d="m48 120-48-24v-56l48 40z" opacity=".06"/><path d="m128 80-80 40v-40l80-40z" fill="#e5e5e5"/><path d="m122 63-68 34v-8l68-34z" fill="#fff"/><path d="m121 62.5-66 33v-6l66-33z" fill="#39c"/><path d="m121 59.5-66 33v-3l66-33z" opacity=".15"/><path d="m121 57.5-66 33v-1l66-33z" opacity=".15"/><path d="m121 62.5-66 27 66-33z" opacity=".15"/><path d="m128 80-80 40v-40l80-40z" opacity=".39"/><path d="m80 0-80 40 48 40 80-40z" fill="#2d3134"/><path d="m80 0-80 40 48 40 80-40z" fill="#2d3134"/><path d="m81.1.9-1.1-.9-80 40 1.1.9z" fill="#fff" opacity=".2"/></svg>