<svg enable-background="new 0 0 128 192" viewBox="0 0 128 192" xmlns="http://www.w3.org/2000/svg"><path d="m64 0-64 32v128l64 32 64-32v-128z" fill="#e5e5e5"/><path d="m65 65h1v123h-1z" fill="#e5e5e5"/><path d="m126 153.5-60 30v-6l60-30z" fill="#2d3134"/><path d="m125 148v5l-59 29.5v1l60-30v-6z"/><path d="m126 139.5-60 30v-6l60-30z" fill="#2d3134"/><path d="m125 134v5l-59 29.5v1l60-30v-6z"/><path d="m126 125.5-60 30v-6l60-30z" fill="#2d3134"/><path d="m125 120v5l-59 29.5v1l60-30v-6z"/><path d="m126 111.5-60 30v-6l60-30z" fill="#2d3134"/><path d="m125 106v5l-59 29.5v1l60-30v-6z"/><path d="m126 97.5-60 30v-6l60-30z" fill="#2d3134"/><path d="m125 92v5l-59 29.5v1l60-30v-6z"/><path d="m126 83.5-60 30v-6l60-30z" fill="#2d3134"/><path d="m125 78v5l-59 29.5v1l60-30v-6z"/><path d="m126 69.5-60 30v-6l60-30z" fill="#2d3134"/><path d="m125 64v5l-59 29.5v1l60-30v-6z"/><path d="m126 55.5-60 30v-6l60-30z" fill="#2d3134"/><path d="m125 50v5l-59 29.5v1l60-30v-6z"/><path d="m126 41.5-60 30v-6l60-30z" fill="#2d3134"/><path d="m125 36v5l-59 29.5v1l60-30v-6z"/><g fill="#fff" opacity=".1"><path d="m76 94.5 4.8-2.4-3.6-4.2-5.2 2.6z"/><path d="m89.2 101.9-3.6-4.2-4.4 2.2 3.9 4z"/><path d="m66.8 85.1 5.6-2.8-3.6-4.2-2.8 1.4v4.8z"/><path d="m110.7 127.1-2 1 4 4.1 1.6-.9z"/><path d="m97.5 111.7-3.6-4.2-3.5 1.8 3.9 4z"/><path d="m119.1 136.9-1.2.6 3.9 4.1.9-.5z"/><path d="m105.9 121.5-3.6-4.2-2.7 1.4 3.9 4.1z"/></g><g fill="#fff" opacity=".15"><path d="m97 165-1.9-2-.6.3z"/><path d="m82.7 155.1 5.1 3.5 2.2-1.1-3.9-4.1z"/><path d="m71 147 5 3.5 5-2.5-3.8-4.1z"/><path d="m66 135.5v6l6.1-3-3.9-4.1z"/></g><g fill="#fff" opacity=".1"><path d="m124.2 98.4 1.8-.9v-6l-5.1 2.5z"/><path d="m113.3 83.9 3.3 4.3 8.1-4.1-4.6-3.7z"/><path d="m114 75.5-4.6-3.7-3.8 1.9 3.3 4.4z"/><path d="m103.3 66.9-4.6-3.7-.8.3 3.3 4.4z"/></g><g fill="#fff" opacity=".2"><path d="m124.4 120.3-2.9 1.5 3.2 4.4 1.3-.6v-3.3c-.5-.7-1-1.4-1.6-2z"/><path d="m102.9 95c-1.4-1.6-2.6-3-3.6-4.2l-.3.2 3.2 4.4z"/><path d="m111.4 104.8c-1.2-1.4-2.4-2.8-3.6-4.2l-1.3.6 3.2 4.4z"/><path d="m119.7 114.6c-1.2-1.4-2.4-2.8-3.6-4.2l-2.1 1.1 3.2 4.4z"/></g><g fill="#fff" opacity=".05"><path d="m87.2 124.9 4.5 3.7 2.6-1.3-4-4z"/><path d="m97.7 133.6 4.5 3.8 1.5-.7-4-4z"/><path d="m108.2 142.4 4.5 3.7.3-.1-4-4z"/><path d="m66 99.5.3-.2-.3-.3z"/><path d="m66.1 107.4 4.6 3.8 5-2.5-4-4z"/><path d="m76.7 116.2 4.5 3.7 3.8-1.9-4-4z"/></g><g fill="#fff" opacity=".2"><path d="m126 68.4v-4.9l-2.8 1.4z"/><path d="m109 47 1.7 2.1.7-.3z"/><path d="m115.2 54.9 3.5 4.3 4-2.1-4.8-3.5z"/></g><g fill="#e5e5e5"><path d="m75 59h1v123h-1z"/><path d="m85 54h1v123h-1z"/><path d="m95 48h1v123h-1z"/><path d="m105 44h1v123h-1z"/><path d="m115 39h1v123h-1z"/><path d="m125 34h1v123h-1z"/></g><path d="m2 153.5 60 30v-6l-60-30z" fill="#2d3134"/><path d="m3 148v5l59 29.5v1l-60-30v-6z"/><path d="m2 139.5 60 30v-6l-60-30z" fill="#2d3134"/><path d="m3 134v5l59 29.5v1l-60-30v-6z"/><path d="m2 125.5 60 30v-6l-60-30z" fill="#2d3134"/><path d="m3 120v5l59 29.5v1l-60-30v-6z"/><path d="m2 111.5 60 30v-6l-60-30z" fill="#2d3134"/><path d="m3 106v5l59 29.5v1l-60-30v-6z"/><path d="m2 97.5 60 30v-6l-60-30z" fill="#2d3134"/><path d="m3 92v5l59 29.5v1l-60-30v-6z"/><path d="m2 83.5 60 30v-6l-60-30z" fill="#2d3134"/><path d="m3 78v5l59 29.5v1l-60-30v-6z"/><path d="m2 69.5 60 30v-6l-60-30z" fill="#2d3134"/><path d="m3 64v5l59 29.5v1l-60-30v-6z"/><path d="m2 55.5 60 30v-6l-60-30z" fill="#2d3134"/><path d="m3 50v5l59 29.5v1l-60-30v-6z"/><path d="m2 41.5 60 30v-6l-60-30z" fill="#2d3134"/><path d="m3 36v5l59 29.5v1l-60-30v-6z"/><g fill="#fff" opacity=".2"><path d="m3.8 98.4-1.8-.9v-6l5.1 2.5z"/><path d="m14.7 83.9-3.3 4.3-8.1-4.1 4.6-3.7z"/><path d="m14 75.5 4.6-3.7 3.8 1.9-3.3 4.4z"/><path d="m24.7 66.9 4.6-3.7.8.3-3.3 4.4z"/></g><g fill="#fff" opacity=".05"><path d="m3.6 120.3 2.9 1.5-3.2 4.4-1.3-.7v-3.3c.5-.6 1-1.3 1.6-1.9z"/><path d="m25.1 95c1.4-1.6 2.6-3 3.6-4.2l.3.2-3.2 4.4z"/><path d="m16.6 104.8c1.2-1.4 2.4-2.8 3.6-4.2l1.3.6-3.2 4.4z"/><path d="m8.3 114.6c1.2-1.4 2.4-2.8 3.6-4.2l2.1 1.1-3.2 4.4z"/></g><g fill="#fff" opacity=".05"><path d="m2 68.4v-4.9l2.8 1.4z"/><path d="m19 47-1.7 2.1-.7-.3z"/><path d="m12.8 54.9-3.5 4.3-4-2.1 4.8-3.5z"/></g><g fill="#fff" opacity=".1"><path d="m41.4 97.2-2.9 4.5 5.6 2.8 4.8-3.5z"/><path d="m34.6 107.8-2.9 4.5 1.1.6 4.8-3.6z"/><path d="m48.2 86.6-2.9 4.5 10 5.1 4.9-3.6z"/><path d="m62 85.5v-6l-7-3.5-2.9 4.5z"/><path d="m62 71.5v-6l-.2-.1-2.9 4.5z"/></g><g fill="#fff" opacity=".2"><path d="m32.2 148.6-4 4 1.6.8 4.8-3.6z"/><path d="m41.4 139.2-4 4 3.6 1.8 4.8-3.6z"/><path d="m23 158-2 2 2.4-1.8z"/><path d="m62 127.5v-6l-2.2-1.1-4 4z"/><path d="m50.6 129.8-4 4 5.6 2.8 4.8-3.6z"/></g><path d="m52 59h1v123h-1z" fill="#e5e5e5"/><path d="m42 54h1v123h-1z" fill="#e5e5e5"/><path d="m32 48h1v123h-1z" fill="#e5e5e5"/><path d="m22 44h1v123h-1z" fill="#e5e5e5"/><path d="m12 39h1v123h-1z" fill="#e5e5e5"/><path d="m2 34h1v123h-1z" fill="#e5e5e5"/><path d="m0 160 64 32v-128l-64-32z" opacity=".06"/><path d="m128 160-64 32v-128l64-32z" opacity=".39"/><path d="m8.9 32 55.1-27.5 55.1 27.5-55.1 27.5z" fill="#202426" opacity=".25"/><path d="m64 6.5v-2l-55.1 27.5 2 1z" opacity=".39"/><path d="m64 6.5 53.1 26.5 2-1-55.1-27.5z" opacity=".06"/><path d="m64 11-33 17v2l12 6 33-17v-2z" fill="#e5e5e5"/><path d="m76 19-33 17v-2l33-17z" opacity=".39"/><path d="m31 30 12 6v-2l-12-6z" opacity=".06"/><path d="m63 15c-2.8 0-5 1.1-5 2.5s2.2 2.5 5 2.5 5-1.1 5-2.5-2.2-2.5-5-2.5zm0 4c-1.7 0-3-.7-3-1.5s1.3-1.5 3-1.5 3 .7 3 1.5-1.3 1.5-3 1.5z" fill="#656565"/><path d="m53 20c-2.8 0-5 1.1-5 2.5s2.2 2.5 5 2.5 5-1.1 5-2.5-2.2-2.5-5-2.5zm0 4c-1.7 0-3-.7-3-1.5s1.3-1.5 3-1.5 3 .7 3 1.5-1.3 1.5-3 1.5z" fill="#656565"/><path d="m43 25c-2.8 0-5 1.1-5 2.5s2.2 2.5 5 2.5 5-1.1 5-2.5-2.2-2.5-5-2.5zm0 4c-1.7 0-3-.7-3-1.5s1.3-1.5 3-1.5 3 .7 3 1.5-1.3 1.5-3 1.5z" fill="#656565"/><path d="m78 7-18 9v16l24 12 18-9v-16z" fill="#e5e5e5"/><path d="m60 32 24 12v-16l-24-12z" opacity=".06"/><path d="m96 29v9l-6 3v-9z" fill="#656565"/><path d="m95 38v-8.5l1-.5v9l-6 3v-.5z" fill="#262626" opacity=".45"/><path d="m102 35-18 9v-16l18-9z" opacity=".39"/></svg>