<svg enable-background="new 0 0 128 136" viewBox="0 0 128 136" xmlns="http://www.w3.org/2000/svg"><path d="m120 92 8 4v-9l-8-4z" fill="#cc291f"/><path d="m120 92 8 4v-9l-8-4z" opacity=".06"/><path d="m120 92-16 8v-16l16-8z" fill="#e5e5e5"/><path d="m116 94-8 4v-14l8-4z" fill="#fff"/><path d="m115 93.5-6 3v-12l6-3z" fill="#39c"/><path d="m115 84.5-6 3v-3l6-3z" opacity=".15"/><path d="m109 84.5 6-3v1l-6 3z" opacity=".15"/><path d="m120 92-16 8v-16l16-8z" opacity=".39"/><path d="m128 96-16 8v-9l16-8z" fill="#cc291f"/><path d="m120 85-8 4-8-4v-1l16-1z" opacity=".5"/><path d="m104 84 8 4v-16l-8-4z" fill="#e5e5e5"/><path d="m104 84 8 4v-16l-8-4z" opacity=".06"/><path d="m88 108 8 4v-16l-8-4z" fill="#e5e5e5"/><path d="m88 108 8 4v-16l-8-4z" opacity=".06"/><path d="m88 108-16 8v-16l16-8z" fill="#e5e5e5"/><path d="m84 110-8 4v-14l8-4z" fill="#fff"/><path d="m83 109.5-6 3v-12l6-3z" fill="#39c"/><path d="m83 100.5-6 3v-3l6-3z" opacity=".15"/><path d="m77 100.5 6-3v1l-6 3z" opacity=".15"/><path d="m88 108-16 8v-16l16-8z" opacity=".39"/><path d="m96 112-16 8v-9l16-8z" fill="#cc291f"/><path d="m88 101-8 4-8-4v-1l16-1z" opacity=".5"/><path d="m104 84-16 8v-16l16-8z" fill="#e5e5e5"/><path d="m100 86-8 4v-14l8-4z" fill="#fff"/><path d="m99 85.5-6 3v-12l6-3z" fill="#39c"/><path d="m99 76.5-6 3v-3l6-3z" opacity=".15"/><path d="m93 76.5 6-3v1l-6 3z" opacity=".15"/><path d="m104 84-16 8v-16l16-8z" opacity=".39"/><path d="m112 88-16 8v-9l16-8z" fill="#cc291f"/><path d="m104 77-8 4-8-4v-1l16-1z" opacity=".5"/><path d="m72 100 8 4v-16l-8-4z" fill="#e5e5e5"/><path d="m72 100 8 4v-16l-8-4z" opacity=".06"/><path d="m56 124 8 4v-16l-8-4z" fill="#e5e5e5"/><path d="m56 124 8 4v-16l-8-4z" opacity=".06"/><path d="m56 124-16 8v-16l16-8z" fill="#e5e5e5"/><path d="m52 126-8 4v-14l8-4z" fill="#fff"/><path d="m51 125.5-6 3v-12l6-3z" fill="#39c"/><path d="m51 116.5-6 3v-3l6-3z" opacity=".15"/><path d="m45 116.5 6-3v1l-6 3z" opacity=".15"/><path d="m56 124-16 8v-16l16-8z" opacity=".39"/><path d="m40 132 8 4v-9l-8-4z" fill="#cc291f"/><path d="m64 128-16 8v-9l16-8z" fill="#cc291f"/><path d="m56 117-8 4-8-4v-1l16-1z" opacity=".5"/><path d="m72 100-16 8v-16l16-8z" fill="#e5e5e5"/><path d="m68 102-8 4v-14l8-4z" fill="#fff"/><path d="m67 101.5-6 3v-12l6-3z" fill="#39c"/><path d="m67 92.5-6 3v-3l6-3z" opacity=".15"/><path d="m61 92.5 6-3v1l-6 3z" opacity=".15"/><path d="m72 100-16 8v-16l16-8z" opacity=".39"/><path d="m80 104-16 8v-9l16-8z" fill="#cc291f"/><path d="m72 93-8 4-8-4v-1l16-1z" opacity=".5"/><path d="m120 60 8 4v-9l-8-4z" fill="#cc291f"/><path d="m120 60 8 4v-9l-8-4z" opacity=".06"/><path d="m120 60-16 8v-16l16-8z" fill="#e5e5e5"/><path d="m116 62-8 4v-14l8-4z" fill="#fff"/><path d="m115 61.5-6 3v-12l6-3z" fill="#39c"/><path d="m115 52.5-6 3v-3l6-3z" opacity=".15"/><path d="m109 52.5 6-3v1l-6 3z" opacity=".15"/><path d="m120 60-16 8v-16l16-8z" opacity=".39"/><path d="m128 64-16 8v-9l16-8z" fill="#cc291f"/><path d="m120 53-8 4-8-4v-1l16-1z" opacity=".5"/><path d="m104 52 8 4v-16l-8-4z" fill="#e5e5e5"/><path d="m104 52 8 4v-16l-8-4z" opacity=".06"/><path d="m88 76 8 4v-16l-8-4z" fill="#e5e5e5"/><path d="m88 76 8 4v-16l-8-4z" opacity=".06"/><path d="m88 76-16 8v-16l16-8z" fill="#e5e5e5"/><path d="m84 78-8 4v-14l8-4z" fill="#fff"/><path d="m83 77.5-6 3v-12l6-3z" fill="#39c"/><path d="m83 68.5-6 3v-3l6-3z" opacity=".15"/><path d="m77 68.5 6-3v1l-6 3z" opacity=".15"/><path d="m88 76-16 8v-16l16-8z" opacity=".39"/><path d="m96 80-16 8v-9l16-8z" fill="#cc291f"/><path d="m88 69-8 4-8-4v-1l16-1z" opacity=".5"/><path d="m104 52-16 8v-16l16-8z" fill="#e5e5e5"/><path d="m100 54-8 4v-14l8-4z" fill="#fff"/><path d="m99 53.5-6 3v-12l6-3z" fill="#39c"/><path d="m99 44.5-6 3v-3l6-3z" opacity=".15"/><path d="m93 44.5 6-3v1l-6 3z" opacity=".15"/><path d="m104 52-16 8v-16l16-8z" opacity=".39"/><path d="m112 56-16 8v-9l16-8z" fill="#cc291f"/><path d="m104 45-8 4-8-4v-1l16-1z" opacity=".5"/><path d="m72 68 8 4v-16l-8-4z" fill="#e5e5e5"/><path d="m72 68 8 4v-16l-8-4z" opacity=".06"/><path d="m56 92 8 4v-16l-8-4z" fill="#e5e5e5"/><path d="m56 92 8 4v-16l-8-4z" opacity=".06"/><path d="m56 92-16 8v-16l16-8z" fill="#e5e5e5"/><path d="m52 94-8 4v-14l8-4z" fill="#fff"/><path d="m51 93.5-6 3v-12l6-3z" fill="#39c"/><path d="m51 84.5-6 3v-3l6-3z" opacity=".15"/><path d="m45 84.5 6-3v1l-6 3z" opacity=".15"/><path d="m56 92-16 8v-16l16-8z" opacity=".39"/><path d="m40 100 8 4v-9l-8-4z" fill="#cc291f"/><path d="m64 96-16 8v-9l16-8z" fill="#cc291f"/><path d="m56 85-8 4-8-4v-1l16-1z" opacity=".5"/><path d="m72 68-16 8v-16l16-8z" fill="#e5e5e5"/><path d="m68 70-8 4v-14l8-4z" fill="#fff"/><path d="m67 69.5-6 3v-12l6-3z" fill="#39c"/><path d="m67 60.5-6 3v-3l6-3z" opacity=".15"/><path d="m61 60.5 6-3v1l-6 3z" opacity=".15"/><path d="m72 68-16 8v-16l16-8z" opacity=".39"/><path d="m80 72-16 8v-9l16-8z" fill="#cc291f"/><path d="m72 61-8 4-8-4v-1l16-1z" opacity=".5"/><path d="m16 72-16 8v-9l16-8z" fill="#cc291f"/><path d="m16 72-16 8v-9l16-8z" opacity=".39"/><path d="m0 80 8 4v-9l-8-4z" fill="#cc291f"/><path d="m16 104-16 8v-9l16-8z" fill="#cc291f"/><path d="m16 104-16 8v-9l16-8z" opacity=".39"/><path d="m0 112 8 4v-9l-8-4z" fill="#cc291f"/><g fill="#e5e5e5"><path d="m64 112v-16l-16 8-8-4v16l8 4 16-8v16l16-8v-16z"/><path d="m0 96 8 4v-16l-8-4z"/><path d="m80 0-80 40v8 16l8 4v-16l32 16v16l8 4 16-8v16l16-8v16l16-8v16l16-8v-16l-16 8v-16l-16 8v-16l-16 8v-16l16-8v16l16-8v16l16-8v16l16-8v-16l-16 8v-16l-16 8v-16l16-8v16l16-8v-16-8z"/><path d="m80 14-12 6v4l12 6 12-6v-4z"/></g><path d="m92 24-12 6v-4l12-6z" opacity=".39"/><path d="m68 24 12 6v-4l-12-6z" opacity=".06"/><path d="m48 30-12 6v4l12 6 12-6v-4z" fill="#e5e5e5"/><path d="m60 40-12 6v-4l12-6z" opacity=".39"/><path d="m36 40 12 6v-4l-12-6z" opacity=".06"/><path d="m8 116 32 16v-64l-32-16z" fill="#cc291f"/><path d="m48 88v-24l-48-24v24l8 4v7l-8-4v25l8 4v7l-8-4v9l48 24v-9l-8-4v-7l8 4v-25l-8-4v-7z" opacity=".06"/><path d="m126 78-12 6v-10l12-6z" fill="#fff"/><path d="m125 77.5-10 5v-8l10-5z" fill="#39c"/><path d="m115 77.5h10l-10 5z" fill="#fff" opacity=".15"/><path d="m117 81.5 1-.5v-8l-1 .5z" fill="#fff" opacity=".5"/><path d="m122 79 1-.5v-8l-1 .5z" fill="#fff" opacity=".5"/><path d="m125 72.5-10 5v-3l10-5z" opacity=".15"/><path d="m115 74.5 10-5v1l-10 5z" opacity=".15"/><path d="m110 102-12 6v-10l12-6z" fill="#fff"/><path d="m109 101.5-10 5v-8l10-5z" fill="#39c"/><path d="m99 101.5h10l-10 5z" fill="#fff" opacity=".15"/><path d="m101 105.5 1-.5v-8l-1 .5z" fill="#fff" opacity=".5"/><path d="m106 103 1-.5v-8l-1 .5z" fill="#fff" opacity=".5"/><path d="m109 96.5-10 5v-3l10-5z" opacity=".15"/><path d="m99 98.5 10-5v1l-10 5z" opacity=".15"/><path d="m94 94-12 6v-10l12-6z" fill="#fff"/><path d="m93 93.5-10 5v-8l10-5z" fill="#39c"/><path d="m83 93.5h10l-10 5z" fill="#fff" opacity=".15"/><path d="m85 97.5 1-.5v-8l-1 .5z" fill="#fff" opacity=".5"/><path d="m90 95 1-.5v-8l-1 .5z" fill="#fff" opacity=".5"/><path d="m93 88.5-10 5v-3l10-5z" opacity=".15"/><path d="m83 90.5 10-5v1l-10 5z" opacity=".15"/><path d="m78 118-12 6v-10l12-6z" fill="#fff"/><path d="m77 117.5-10 5v-8l10-5z" fill="#39c"/><path d="m67 117.5h10l-10 5z" fill="#fff" opacity=".15"/><path d="m69 121.5 1-.5v-8l-1 .5z" fill="#fff" opacity=".5"/><path d="m74 119 1-.5v-8l-1 .5z" fill="#fff" opacity=".5"/><path d="m77 112.5-10 5v-3l10-5z" opacity=".15"/><path d="m67 114.5 10-5v1l-10 5z" opacity=".15"/><path d="m62 110-12 6v-10l12-6z" fill="#fff"/><path d="m61 109.5-10 5v-8l10-5z" fill="#39c"/><path d="m51 109.5h10l-10 5z" fill="#fff" opacity=".15"/><path d="m53 113.5 1-.5v-8l-1 .5z" fill="#fff" opacity=".5"/><path d="m58 111 1-.5v-8l-1 .5z" fill="#fff" opacity=".5"/><path d="m61 104.5-10 5v-3l10-5z" opacity=".15"/><path d="m51 106.5 10-5v1l-10 5z" opacity=".15"/><path d="m126 46-12 6v-10l12-6z" fill="#fff"/><path d="m125 45.5-10 5v-8l10-5z" fill="#39c"/><path d="m115 45.5h10l-10 5z" fill="#fff" opacity=".15"/><path d="m117 49.5 1-.5v-8l-1 .5z" fill="#fff" opacity=".5"/><path d="m122 47 1-.5v-8l-1 .5z" fill="#fff" opacity=".5"/><path d="m125 40.5-10 5v-3l10-5z" opacity=".15"/><path d="m115 42.5 10-5v1l-10 5z" opacity=".15"/><path d="m110 70-12 6v-10l12-6z" fill="#fff"/><path d="m109 69.5-10 5v-8l10-5z" fill="#39c"/><path d="m99 69.5h10l-10 5z" fill="#fff" opacity=".15"/><path d="m101 73.5 1-.5v-8l-1 .5z" fill="#fff" opacity=".5"/><path d="m106 71 1-.5v-8l-1 .5z" fill="#fff" opacity=".5"/><path d="m109 64.5-10 5v-3l10-5z" opacity=".15"/><path d="m99 66.5 10-5v1l-10 5z" opacity=".15"/><path d="m94 62-12 6v-10l12-6z" fill="#fff"/><path d="m93 61.5-10 5v-8l10-5z" fill="#39c"/><path d="m83 61.5h10l-10 5z" fill="#fff" opacity=".15"/><path d="m85 65.5 1-.5v-8l-1 .5z" fill="#fff" opacity=".5"/><path d="m90 63 1-.5v-8l-1 .5z" fill="#fff" opacity=".5"/><path d="m93 56.5-10 5v-3l10-5z" opacity=".15"/><path d="m83 58.5 10-5v1l-10 5z" opacity=".15"/><path d="m78 86-12 6v-10l12-6z" fill="#fff"/><path d="m77 85.5-10 5v-8l10-5z" fill="#39c"/><path d="m67 85.5h10l-10 5z" fill="#fff" opacity=".15"/><path d="m69 89.5 1-.5v-8l-1 .5z" fill="#fff" opacity=".5"/><path d="m74 87 1-.5v-8l-1 .5z" fill="#fff" opacity=".5"/><path d="m77 80.5-10 5v-3l10-5z" opacity=".15"/><path d="m67 82.5 10-5v1l-10 5z" opacity=".15"/><path d="m62 78-12 6v-10l12-6z" fill="#fff"/><path d="m61 77.5-10 5v-8l10-5z" fill="#39c"/><path d="m51 77.5h10l-10 5z" fill="#fff" opacity=".15"/><path d="m53 81.5 1-.5v-8l-1 .5z" fill="#fff" opacity=".5"/><path d="m58 79 1-.5v-8l-1 .5z" fill="#fff" opacity=".5"/><path d="m61 72.5-10 5v-3l10-5z" opacity=".15"/><path d="m51 74.5 10-5v1l-10 5z" opacity=".15"/><path d="m48 64v24l16-8v7l-16 8v25l16-8v7l-16 8v9l80-40v-9l-16 8v-7l16-8v-25l-16 8v-7l16-8v-24zm32-8v7l-16 8v-7zm0 16 16-8v7l-16 8zm-16 24 16-8v7l-16 8zm32 7-16 8v-7l16-8zm16-24-16 8v-7l16-8zm0-32-16 8v-7l16-8z" opacity=".39"/></svg>