<svg enable-background="new 0 0 128 192" viewBox="0 0 128 192" xmlns="http://www.w3.org/2000/svg"><path d="m64 0-64 32v128l64 32 64-32v-128z" fill="#e5e5e5"/><path d="m53 138.5 6 3v-8l-6-3z" fill="#39c"/><path d="m54 131v7l5 2.5v1l-6-3v-8z" fill="#262626" opacity=".45"/><path d="m41 132.5 6 3v-8l-6-3z" fill="#39c"/><path d="m47 133v-5.5l-6-3z" fill="#262626" opacity=".15"/><path d="m42 125v7l5 2.5v1l-6-3v-8z" fill="#262626" opacity=".45"/><path d="m29 126.5 6 3v-8l-6-3z" fill="#39c"/><path d="m30 119v7l5 2.5v1l-6-3v-8z" fill="#262626" opacity=".45"/><path d="m17 120.5 6 3v-8l-6-3z" fill="#39c"/><path d="m18 113v7l5 2.5v1l-6-3v-8z" fill="#262626" opacity=".45"/><path d="m5 114.5 6 3v-8l-6-3z" fill="#39c"/><path d="m5 114.5 6 3-6-11z" fill="#fff" opacity=".2"/><path d="m6 107v7l5 2.5v1l-6-3v-8z" fill="#262626" opacity=".45"/><path d="m53 152.5 6 3v-8l-6-3z" fill="#39c"/><path d="m54 145v7l5 2.5v1l-6-3v-8z" fill="#262626" opacity=".45"/><path d="m41 146.5 6 3v-8l-6-3z" fill="#39c"/><path d="m42 139v7l5 2.5v1l-6-3v-8z" fill="#262626" opacity=".45"/><path d="m29 140.5 6 3v-8l-6-3z" fill="#39c"/><path d="m30 133v7l5 2.5v1l-6-3v-8z" fill="#262626" opacity=".45"/><path d="m17 134.5 6 3v-8l-6-3z" fill="#39c"/><path d="m18 127v7l5 2.5v1l-6-3v-8z" fill="#262626" opacity=".45"/><path d="m5 128.5 6 3v-8l-6-3z" fill="#39c"/><path d="m6 121v7l5 2.5v1l-6-3v-8z" fill="#262626" opacity=".45"/><path d="m53 166.5 6 3v-8l-6-3z" fill="#39c"/><path d="m54 159v7l5 2.5v1l-6-3v-8z" fill="#262626" opacity=".45"/><path d="m41 160.5 6 3v-8l-6-3z" fill="#39c"/><path d="m47 161v-5.5l-6-3z" fill="#262626" opacity=".15"/><path d="m42 153v7l5 2.5v1l-6-3v-8z" fill="#262626" opacity=".45"/><path d="m29 154.5 6 3v-8l-6-3z" fill="#39c"/><path d="m30 147v7l5 2.5v1l-6-3v-8z" fill="#262626" opacity=".45"/><path d="m17 148.5 6 3v-8l-6-3z" fill="#39c"/><path d="m18 141v7l5 2.5v1l-6-3v-8z" fill="#262626" opacity=".45"/><path d="m5 142.5 6 3v-8l-6-3z" fill="#39c"/><path d="m6 135v7l5 2.5v1l-6-3v-8z" fill="#262626" opacity=".45"/><path d="m53 180.5 6 3v-8l-6-3z" fill="#39c"/><path d="m54 173v7l5 2.5v1l-6-3v-8z" fill="#262626" opacity=".45"/><path d="m41 174.5 6 3v-8l-6-3z" fill="#39c"/><path d="m42 167v7l5 2.5v1l-6-3v-8z" fill="#262626" opacity=".45"/><path d="m29 168.5 6 3v-8l-6-3z" fill="#39c"/><path d="m30 161v7l5 2.5v1l-6-3v-8z" fill="#262626" opacity=".45"/><path d="m17 162.5 6 3v-8l-6-3z" fill="#39c"/><path d="m17 162.5 6 3-6-11z" fill="#fff" opacity=".2"/><path d="m18 155v7l5 2.5v1l-6-3v-8z" fill="#262626" opacity=".45"/><path d="m5 156.5 6 3v-8l-6-3z" fill="#39c"/><path d="m6 149v7l5 2.5v1l-6-3v-8z" fill="#262626" opacity=".45"/><path d="m53 82.5 6 3v-8l-6-3z" fill="#39c"/><path d="m59 85.5v-8l-6-3z" fill="#262626" opacity=".15"/><path d="m54 75v7l5 2.5v1l-6-3v-8z" fill="#262626" opacity=".45"/><path d="m41 76.5 6 3v-8l-6-3z" fill="#39c"/><path d="m42 69v7l5 2.5v1l-6-3v-8z" fill="#262626" opacity=".45"/><path d="m29 70.5 6 3v-8l-6-3z" fill="#39c"/><path d="m30 63v7l5 2.5v1l-6-3v-8z" fill="#262626" opacity=".45"/><path d="m17 64.5 6 3v-8l-6-3z" fill="#39c"/><path d="m18 57v7l5 2.5v1l-6-3v-8z" fill="#262626" opacity=".45"/><path d="m5 58.5 6 3v-8l-6-3z" fill="#39c"/><path d="m6 51v7l5 2.5v1l-6-3v-8z" fill="#262626" opacity=".45"/><path d="m53 68.5 6 3v-8l-6-3z" fill="#39c"/><path d="m54 61v7l5 2.5v1l-6-3v-8z" fill="#262626" opacity=".45"/><path d="m41 62.5 6 3v-8l-6-3z" fill="#39c"/><path d="m42 55v7l5 2.5v1l-6-3v-8z" fill="#262626" opacity=".45"/><path d="m29 56.5 6 3v-8l-6-3z" fill="#39c"/><path d="m30 49v7l5 2.5v1l-6-3v-8z" fill="#262626" opacity=".45"/><path d="m17 50.5 6 3v-8l-6-3z" fill="#39c"/><path d="m23 51v-5.5l-6-3z" fill="#262626" opacity=".15"/><path d="m18 43v7l5 2.5v1l-6-3v-8z" fill="#262626" opacity=".45"/><path d="m5 44.5 6 3v-8l-6-3z" fill="#39c"/><path d="m6 37v7l5 2.5v1l-6-3v-8z" fill="#262626" opacity=".45"/><path d="m53 96.5 6 3v-8l-6-3z" fill="#39c"/><path d="m54 89v7l5 2.5v1l-6-3v-8z" fill="#262626" opacity=".45"/><path d="m41 90.5 6 3v-8l-6-3z" fill="#39c"/><path d="m42 83v7l5 2.5v1l-6-3v-8z" fill="#262626" opacity=".45"/><path d="m29 84.5 6 3v-8l-6-3z" fill="#39c"/><path d="m30 77v7l5 2.5v1l-6-3v-8z" fill="#262626" opacity=".45"/><path d="m17 78.5 6 3v-8l-6-3z" fill="#39c"/><path d="m23 81.5v-8l-6-3z" fill="#262626" opacity=".15"/><path d="m18 71v7l5 2.5v1l-6-3v-8z" fill="#262626" opacity=".45"/><path d="m5 72.5 6 3v-8l-6-3z" fill="#39c"/><path d="m6 65v7l5 2.5v1l-6-3v-8z" fill="#262626" opacity=".45"/><path d="m53 110.5 6 3v-8l-6-3z" fill="#39c"/><path d="m54 103v7l5 2.5v1l-6-3v-8z" fill="#262626" opacity=".45"/><path d="m41 104.5 6 3v-8l-6-3z" fill="#39c"/><path d="m42 97v7l5 2.5v1l-6-3v-8z" fill="#262626" opacity=".45"/><path d="m29 98.5 6 3v-8l-6-3z" fill="#39c"/><path d="m30 91v7l5 2.5v1l-6-3v-8z" fill="#262626" opacity=".45"/><path d="m17 92.5 6 3v-8l-6-3z" fill="#39c"/><path d="m18 85v7l5 2.5v1l-6-3v-8z" fill="#262626" opacity=".45"/><path d="m5 86.5 6 3v-8l-6-3z" fill="#39c"/><path d="m6 79v7l5 2.5v1l-6-3v-8z" fill="#262626" opacity=".45"/><path d="m53 124.5 6 3v-8l-6-3z" fill="#39c"/><path d="m54 117v7l5 2.5v1l-6-3v-8z" fill="#262626" opacity=".45"/><path d="m41 118.5 6 3v-8l-6-3z" fill="#39c"/><path d="m42 111v7l5 2.5v1l-6-3v-8z" fill="#262626" opacity=".45"/><path d="m29 112.5 6 3v-8l-6-3z" fill="#39c"/><path d="m29 112.5 6 3-6-8.5z" fill="#fff" opacity=".2"/><path d="m30 105v7l5 2.5v1l-6-3v-8z" fill="#262626" opacity=".45"/><path d="m17 106.5 6 3v-8l-6-3z" fill="#39c"/><path d="m18 99v7l5 2.5v1l-6-3v-8z" fill="#262626" opacity=".45"/><path d="m5 100.5 6 3v-8l-6-3z" fill="#39c"/><g fill="#262626"><path d="m6 93v7l5 2.5v1l-6-3v-8z" opacity=".45"/><path d="m49 184.5 2 1v-128l-2-1z" opacity=".25"/><path d="m61 190.5 3 1.5v-128l-3-1.5z" opacity=".25"/><path d="m37 178.5 2 1v-128l-2-1z" opacity=".25"/><path d="m25 172.5 2 1v-128l-2-1z" opacity=".25"/><path d="m13 166.5 2 1v-128l-2-1z" opacity=".25"/><path d="m0 160.1 3 1.4v-128l-3-1.4z" opacity=".25"/></g><path d="m75 138.5-6 3v-8l6-3z" fill="#39c"/><path d="m75 138.5-6 3v-5.5z" fill="#fff" opacity=".2"/><path d="m74 131v7l-5 2.5v1l6-3v-8z" fill="#262626" opacity=".45"/><path d="m87 132.5-6 3v-8l6-3z" fill="#39c"/><path d="m86 125v7l-5 2.5v1l6-3v-8z" fill="#262626" opacity=".45"/><path d="m99 126.5-6 3v-8l6-3z" fill="#39c"/><path d="m99 126.5-6-5 6-3z" fill="#262626" opacity=".15"/><path d="m98 119v7l-5 2.5v1l6-3v-8z" fill="#262626" opacity=".45"/><path d="m111 120.5-6 3v-8l6-3z" fill="#39c"/><path d="m110 113v7l-5 2.5v1l6-3v-8z" fill="#262626" opacity=".45"/><path d="m123 114.5-6 3v-8l6-3z" fill="#39c"/><path d="m122 107v7l-5 2.5v1l6-3v-8z" fill="#262626" opacity=".45"/><path d="m75 152.5-6 3v-8l6-3z" fill="#39c"/><path d="m74 145v7l-5 2.5v1l6-3v-8z" fill="#262626" opacity=".45"/><path d="m87 146.5-6 3v-8l6-3z" fill="#39c"/><path d="m86 139v7l-5 2.5v1l6-3v-8z" fill="#262626" opacity=".45"/><path d="m99 140.5-6 3v-8l6-3z" fill="#39c"/><path d="m98 133v7l-5 2.5v1l6-3v-8z" fill="#262626" opacity=".45"/><path d="m111 134.5-6 3v-8l6-3z" fill="#39c"/><path d="m110 127v7l-5 2.5v1l6-3v-8z" fill="#262626" opacity=".45"/><path d="m123 128.5-6 3v-8l6-3z" fill="#39c"/><path d="m122 121v7l-5 2.5v1l6-3v-8z" fill="#262626" opacity=".45"/><path d="m75 166.5-6 3v-8l6-3z" fill="#39c"/><path d="m74 159v7l-5 2.5v1l6-3v-8z" fill="#262626" opacity=".45"/><path d="m87 160.5-6 3v-8l6-3z" fill="#39c"/><path d="m86 153v7l-5 2.5v1l6-3v-8z" fill="#262626" opacity=".45"/><path d="m99 154.5-6 3v-8l6-3z" fill="#39c"/><path d="m98 147v7l-5 2.5v1l6-3v-8z" fill="#262626" opacity=".45"/><path d="m111 148.5-6 3v-8l6-3z" fill="#39c"/><path d="m110 141v7l-5 2.5v1l6-3v-8z" fill="#262626" opacity=".45"/><path d="m123 142.5-6 3v-8l6-3z" fill="#39c"/><path d="m123 142.5-6 3v-5.5z" fill="#fff" opacity=".2"/><path d="m122 135v7l-5 2.5v1l6-3v-8z" fill="#262626" opacity=".45"/><path d="m75 180.5-6 3v-8l6-3z" fill="#39c"/><path d="m74 173v7l-5 2.5v1l6-3v-8z" fill="#262626" opacity=".45"/><path d="m87 174.5-6 3v-8l6-3z" fill="#39c"/><path d="m86 167v7l-5 2.5v1l6-3v-8z" fill="#262626" opacity=".45"/><path d="m99 168.5-6 3v-8l6-3z" fill="#39c"/><path d="m99 168.5-6-5 6-3z" fill="#262626" opacity=".15"/><path d="m98 161v7l-5 2.5v1l6-3v-8z" fill="#262626" opacity=".45"/><path d="m111 162.5-6 3v-8l6-3z" fill="#39c"/><path d="m110 155v7l-5 2.5v1l6-3v-8z" fill="#262626" opacity=".45"/><path d="m123 156.5-6 3v-8l6-3z" fill="#39c"/><path d="m122 149v7l-5 2.5v1l6-3v-8z" fill="#262626" opacity=".45"/><path d="m75 82.5-6 3v-8l6-3z" fill="#39c"/><path d="m75 79-6-1.5 6-3z" fill="#262626" opacity=".15"/><path d="m74 75v7l-5 2.5v1l6-3v-8z" fill="#262626" opacity=".45"/><path d="m87 76.5-6 3v-8l6-3z" fill="#39c"/><path d="m86 69v7l-5 2.5v1l6-3v-8z" fill="#262626" opacity=".45"/><path d="m99 70.5-6 3v-8l6-3z" fill="#39c"/><path d="m98 63v7l-5 2.5v1l6-3v-8z" fill="#262626" opacity=".45"/><path d="m111 64.5-6 3v-8l6-3z" fill="#39c"/><path d="m110 57v7l-5 2.5v1l6-3v-8z" fill="#262626" opacity=".45"/><path d="m123 58.5-6 3v-8l6-3z" fill="#39c"/><path d="m122 51v7l-5 2.5v1l6-3v-8z" fill="#262626" opacity=".45"/><path d="m75 68.5-6 3v-8l6-3z" fill="#39c"/><path d="m74 61v7l-5 2.5v1l6-3v-8z" fill="#262626" opacity=".45"/><path d="m87 62.5-6 3v-8l6-3z" fill="#39c"/><path d="m87 62.5-6 3v-8z" fill="#fff" opacity=".2"/><path d="m86 55v7l-5 2.5v1l6-3v-8z" fill="#262626" opacity=".45"/><path d="m99 56.5-6 3v-8l6-3z" fill="#39c"/><path d="m98 49v7l-5 2.5v1l6-3v-8z" fill="#262626" opacity=".45"/><path d="m111 50.5-6 3v-8l6-3z" fill="#39c"/><path d="m110 43v7l-5 2.5v1l6-3v-8z" fill="#262626" opacity=".45"/><path d="m123 44.5-6 3v-8l6-3z" fill="#39c"/><path d="m122 37v7l-5 2.5v1l6-3v-8z" fill="#262626" opacity=".45"/><path d="m75 96.5-6 3v-8l6-3z" fill="#39c"/><path d="m74 89v7l-5 2.5v1l6-3v-8z" fill="#262626" opacity=".45"/><path d="m87 90.5-6 3v-8l6-3z" fill="#39c"/><path d="m86 83v7l-5 2.5v1l6-3v-8z" fill="#262626" opacity=".45"/><path d="m99 84.5-6 3v-8l6-3z" fill="#39c"/><path d="m98 77v7l-5 2.5v1l6-3v-8z" fill="#262626" opacity=".45"/><path d="m111 78.5-6 3v-8l6-3z" fill="#39c"/><path d="m110 71v7l-5 2.5v1l6-3v-8z" fill="#262626" opacity=".45"/><path d="m123 72.5-6 3v-8l6-3z" fill="#39c"/><path d="m122 65v7l-5 2.5v1l6-3v-8z" fill="#262626" opacity=".45"/><path d="m75 110.5-6 3v-8l6-3z" fill="#39c"/><path d="m74 103v7l-5 2.5v1l6-3v-8z" fill="#262626" opacity=".45"/><path d="m87 104.5-6 3v-8l6-3z" fill="#39c"/><path d="m86 97v7l-5 2.5v1l6-3v-8z" fill="#262626" opacity=".45"/><path d="m99 98.5-6 3v-8l6-3z" fill="#39c"/><path d="m98 91v7l-5 2.5v1l6-3v-8z" fill="#262626" opacity=".45"/><path d="m111 92.5-6 3v-8l6-3z" fill="#39c"/><path d="m111 92.5-6-5 6-3z" fill="#262626" opacity=".15"/><path d="m110 85v7l-5 2.5v1l6-3v-8z" fill="#262626" opacity=".45"/><path d="m123 86.5-6 3v-8l6-3z" fill="#39c"/><path d="m123 83-6-1.5 6-3z" fill="#262626" opacity=".15"/><path d="m122 79v7l-5 2.5v1l6-3v-8z" fill="#262626" opacity=".45"/><path d="m75 124.5-6 3v-8l6-3z" fill="#39c"/><path d="m74 117v7l-5 2.5v1l6-3v-8z" fill="#262626" opacity=".45"/><path d="m87 118.5-6 3v-8l6-3z" fill="#39c"/><path d="m86 111v7l-5 2.5v1l6-3v-8z" fill="#262626" opacity=".45"/><path d="m99 112.5-6 3v-8l6-3z" fill="#39c"/><path d="m98 105v7l-5 2.5v1l6-3v-8z" fill="#262626" opacity=".45"/><path d="m111 106.5-6 3v-8l6-3z" fill="#39c"/><path d="m110 99v7l-5 2.5v1l6-3v-8z" fill="#262626" opacity=".45"/><path d="m123 100.5-6 3v-8l6-3z" fill="#39c"/><path d="m122 93v7l-5 2.5v1l6-3v-8z" fill="#262626" opacity=".45"/><path d="m79 184.5-2 1v-128l2-1z" fill="#262626" opacity=".25"/><path d="m67 190.5-3 1.5v-128l3-1.5z" fill="#262626" opacity=".25"/><path d="m91 178.5-2 1v-128l2-1z" fill="#262626" opacity=".25"/><path d="m103 172.5-2 1v-128l2-1z" fill="#262626" opacity=".25"/><path d="m115 166.5-2 1v-128l2-1z" fill="#262626" opacity=".25"/><path d="m128 160.1-3 1.4v-128l3-1.4z" fill="#262626" opacity=".25"/><path d="m128 160-64 32v-128l64-31.9z" opacity=".39"/><path d="m0 160 64 32v-128l-64-32z" opacity=".06"/><path d="m16 32 48-24 48 24-48 24z" fill="#202426" opacity=".25"/><path d="m64 9.7v-1.7l-48 24 1.7.9z" opacity=".39"/><path d="m64 9.7 46.3 23.2 1.7-.9-48-24z" opacity=".06"/><path d="m64 12-24 12v2l12 6 24-12v-2z" fill="#e5e5e5"/><path d="m76 20-24 12v-2l24-12z" opacity=".39"/><path d="m40 26 12 6v-2l-12-6z" opacity=".06"/><path d="m63 16c-2.8 0-5 1.1-5 2.5s2.2 2.5 5 2.5 5-1.1 5-2.5-2.2-2.5-5-2.5zm0 4c-1.7 0-3-.7-3-1.5s1.3-1.5 3-1.5 3 .7 3 1.5-1.3 1.5-3 1.5z" fill="#656565"/><path d="m53 21c-2.8 0-5 1.1-5 2.5s2.2 2.5 5 2.5 5-1.1 5-2.5-2.2-2.5-5-2.5zm0 4c-1.7 0-3-.7-3-1.5s1.3-1.5 3-1.5 3 .7 3 1.5-1.3 1.5-3 1.5z" fill="#656565"/><path d="m80 10-16 8v16l20 10 16-8v-16z" fill="#e5e5e5"/><path d="m100 36-16 8v-16l16-8z" opacity=".39"/><path d="m64 34 20 10v-16l-20-10z" opacity=".06"/><path d="m70 28v9l6 3v-9z" fill="#656565"/><path d="m71 37v-8.5l-1-.5v9l6 3v-.5z" fill="#262626" opacity=".45"/></svg>