<svg enable-background="new 0 0 192 152" viewBox="0 0 192 152" xmlns="http://www.w3.org/2000/svg"><path d="m64 0-64 32v6l128 64 64-32v-6z" fill="#f8ebcb"/><path d="m13.4 32 50.6-25.3 114.6 57.3-50.6 25.3z" opacity=".1"/><path d="m64 10.7v-4l-50.6 25.3 4 2z" opacity=".39"/><path d="m64 10.7 110.6 55.3 4-2-114.6-57.3z" opacity=".06"/><path d="m192 120-64 32v-56l64-32z" fill="#f8ebcb"/><path d="m142 126-12 6v-13l12-6z" fill="#39c"/><path d="m142 118-4 2v-5l-1 .5v5l-3 1.5v-5l-1 .5v5l-3 1.5v1l3-1.5v7l1-.5v-7l3-1.5v7l1-.5v-7l4-2z" fill="#baa794"/><path d="m141 113.5v12l-11 5.5v1l12-6v-13z" fill="#baa794"/><path d="m142 115-12 6v-2l12-6z" opacity=".15"/><path d="m142 114-12 6v-1l12-6z" opacity=".15"/><path d="m158 118-12 6v-13l12-6z" fill="#39c"/><path d="m158 110-4 2v-5l-1 .5v5l-3 1.5v-5l-1 .5v5l-3 1.5v1l3-1.5v7l1-.5v-7l3-1.5v7l1-.5v-7l4-2z" fill="#baa794"/><path d="m157 105.5v12l-11 5.5v1l12-6v-13z" fill="#baa794"/><path d="m158 107-12 6v-2l12-6z" opacity=".15"/><path d="m158 106-12 6v-1l12-6z" opacity=".15"/><path d="m174 110-12 6v-13l12-6z" fill="#39c"/><path d="m174 106h-12v-3l12-6z" opacity=".15"/><path d="m174 102-4 2v-5l-1 .5v5l-3 1.5v-5l-1 .5v5l-3 1.5v1l3-1.5v7l1-.5v-7l3-1.5v7l1-.5v-7l4-2z" fill="#baa794"/><path d="m173 97.5v12l-11 5.5v1l12-6v-13z" fill="#baa794"/><path d="m174 99-12 6v-2l12-6z" opacity=".15"/><path d="m174 98-12 6v-1l12-6z" opacity=".15"/><path d="m190 102-12 6v-13l12-6z" fill="#39c"/><path d="m190 99h-12v-4l12-6z" opacity=".15"/><path d="m190 94-4 2v-5l-1 .5v5l-3 1.5v-5l-1 .5v5l-3 1.5v1l3-1.5v7l1-.5v-7l3-1.5v7l1-.5v-7l4-2z" fill="#baa794"/><path d="m189 89.5v12l-11 5.5v1l12-6v-13z" fill="#baa794"/><path d="m190 91-12 6v-2l12-6z" opacity=".15"/><path d="m190 90-12 6v-1l12-6z" opacity=".15"/><path d="m142 142-12 6v-13l12-6z" fill="#39c"/><path d="m142 134-4 2v-5l-1 .5v5l-3 1.5v-5l-1 .5v5l-3 1.5v1l3-1.5v7l1-.5v-7l3-1.5v7l1-.5v-7l4-2z" fill="#baa794"/><path d="m141 129.5v12l-11 5.5v1l12-6v-13z" fill="#baa794"/><path d="m142 131-12 6v-2l12-6z" opacity=".15"/><path d="m142 130-12 6v-1l12-6z" opacity=".15"/><path d="m158 134-12 6v-13l12-6z" fill="#39c"/><path d="m158 131h-12v-4l12-6z" opacity=".15"/><path d="m158 126-4 2v-5l-1 .5v5l-3 1.5v-5l-1 .5v5l-3 1.5v1l3-1.5v7l1-.5v-7l3-1.5v7l1-.5v-7l4-2z" fill="#baa794"/><path d="m157 121.5v12l-11 5.5v1l12-6v-13z" fill="#baa794"/><path d="m158 123-12 6v-2l12-6z" opacity=".15"/><path d="m158 122-12 6v-1l12-6z" opacity=".15"/><path d="m174 126-12 6v-13l12-6z" fill="#39c"/><path d="m174 122h-12v-3l12-6z" opacity=".15"/><path d="m174 118-4 2v-5l-1 .5v5l-3 1.5v-5l-1 .5v5l-3 1.5v1l3-1.5v7l1-.5v-7l3-1.5v7l1-.5v-7l4-2z" fill="#baa794"/><path d="m173 113.5v12l-11 5.5v1l12-6v-13z" fill="#baa794"/><path d="m174 115-12 6v-2l12-6z" opacity=".15"/><path d="m174 114-12 6v-1l12-6z" opacity=".15"/><path d="m190 118-12 6v-13l12-6z" fill="#39c"/><path d="m190 110-4 2v-5l-1 .5v5l-3 1.5v-5l-1 .5v5l-3 1.5v1l3-1.5v7l1-.5v-7l3-1.5v7l1-.5v-7l4-2z" fill="#baa794"/><path d="m189 105.5v12l-11 5.5v1l12-6v-13z" fill="#baa794"/><path d="m190 107-12 6v-2l12-6z" opacity=".15"/><path d="m190 106-12 6v-1l12-6z" opacity=".15"/><path d="m142 110-12 6v-13l12-6z" fill="#39c"/><path d="m142 102-4 2v-5l-1 .5v5l-3 1.5v-5l-1 .5v5l-3 1.5v1l3-1.5v7l1-.5v-7l3-1.5v7l1-.5v-7l4-2z" fill="#baa794"/><path d="m141 97.5v12l-11 5.5v1l12-6v-13z" fill="#baa794"/><path d="m142 99-12 6v-2l12-6z" opacity=".15"/><path d="m142 98-12 6v-1l12-6z" opacity=".15"/><path d="m158 102-12 6v-13l12-6z" fill="#39c"/><path d="m158 94-4 2v-5l-1 .5v5l-3 1.5v-5l-1 .5v5l-3 1.5v1l3-1.5v7l1-.5v-7l3-1.5v7l1-.5v-7l4-2z" fill="#baa794"/><path d="m157 89.5v12l-11 5.5v1l12-6v-13z" fill="#baa794"/><path d="m158 91-12 6v-2l12-6z" opacity=".15"/><path d="m158 90-12 6v-1l12-6z" opacity=".15"/><path d="m174 94-12 6v-13l12-6z" fill="#39c"/><path d="m174 86-4 2v-5l-1 .5v5l-3 1.5v-5l-1 .5v5l-3 1.5v1l3-1.5v7l1-.5v-7l3-1.5v7l1-.5v-7l4-2z" fill="#baa794"/><path d="m173 81.5v12l-11 5.5v1l12-6v-13z" fill="#baa794"/><path d="m174 83-12 6v-2l12-6z" opacity=".15"/><path d="m174 82-12 6v-1l12-6z" opacity=".15"/><path d="m190 86-12 6v-13l12-6z" fill="#39c"/><path d="m190 86h-12v-7l12-6z" opacity=".15"/><path d="m190 78-4 2v-5l-1 .5v5l-3 1.5v-5l-1 .5v5l-3 1.5v1l3-1.5v7l1-.5v-7l3-1.5v7l1-.5v-7l4-2z" fill="#baa794"/><path d="m189 73.5v12l-11 5.5v1l12-6v-13z" fill="#baa794"/><path d="m190 75-12 6v-2l12-6z" opacity=".15"/><path d="m190 74-12 6v-1l12-6z" opacity=".15"/><path d="m192 71-64 32v-2l64-32z" fill="#fff" opacity=".2"/><path d="m192 70-64 32v-1l64-32z" fill="#fff" opacity=".8"/><path d="m192 72-64 32v-1l64-32z" opacity=".15"/><path d="m192 87-64 32v-1l64-32z" fill="#fff" opacity=".8"/><path d="m192 88-64 32v-1l64-32z" opacity=".15"/><path d="m192 66-64 32v-1l64-32z" fill="#fff" opacity=".8"/><path d="m192 67-64 32v-1l64-32z" opacity=".15"/><path d="m192 103-64 32v-1l64-32z" fill="#fff" opacity=".8"/><path d="m192 104-64 32v-1l64-32z" opacity=".15"/><path d="m192 119-64 32v-1l64-32z" fill="#fff" opacity=".8"/><path d="m192 120-64 32v-1l64-32z" opacity=".15"/><path d="m192 120-64 32v-56l64-32z" opacity=".39"/><path d="m0 32v56l128 64v-56z" fill="#f8ebcb"/><path d="m78 108-12-6v-13l12 6z" fill="#39c"/><path d="m78 100-4-2v-5l-1-.5v5l-3-1.5v-5l-1-.5v5l-3-1.5v1l3 1.5v7l1 .5v-7l3 1.5v7l1 .5v-7l4 2z" fill="#baa794"/><path d="m77 94.5v12l-11-5.5v1l12 6v-13z" fill="#baa794"/><path d="m78 97-12-6v-2l12 6z" opacity=".15"/><path d="m78 96-12-6v-1l12 6z" opacity=".15"/><path d="m94 116-12-6v-13l12 6z" fill="#39c"/><path d="m94 108-4-2v-5l-1-.5v5l-3-1.5v-5l-1-.5v5l-3-1.5v1l3 1.5v7l1 .5v-7l3 1.5v7l1 .5v-7l4 2z" fill="#baa794"/><path d="m93 102.5v12l-11-5.5v1l12 6v-13z" fill="#baa794"/><path d="m94 105-12-6v-2l12 6z" opacity=".15"/><path d="m94 104-12-6v-1l12 6z" opacity=".15"/><path d="m111 124.5-12-6v-13l12 6z" fill="#39c"/><path d="m111 116.5-4-2v-5l-1-.5v5l-3-1.5v-5l-1-.5v5l-3-1.5v1l3 1.5v7l1 .5v-7l3 1.5v7l1 .5v-7l4 2z" fill="#baa794"/><path d="m110 111v12l-11-5.5v1l12 6v-13z" fill="#baa794"/><path d="m111 113.5-12-6v-2l12 6z" opacity=".15"/><path d="m111 112.5-12-6v-1l12 6z" opacity=".15"/><path d="m126 132-12-6v-13l12 6z" fill="#39c"/><path d="m126 127-12-12v-2l12 6z" opacity=".15"/><path d="m126 124-4-2v-5l-1-.5v5l-3-1.5v-5l-1-.5v5l-3-1.5v1l3 1.5v7l1 .5v-7l3 1.5v7l1 .5v-7l4 2z" fill="#baa794"/><path d="m125 118.5v12l-11-5.5v1l12 6v-13z" fill="#baa794"/><path d="m126 121-12-6v-2l12 6z" opacity=".15"/><path d="m126 120-12-6v-1l12 6z" opacity=".15"/><path d="m78 92-12-6v-13l12 6z" fill="#39c"/><path d="m78 84-4-2v-5l-1-.5v5l-3-1.5v-5l-1-.5v5l-3-1.5v1l3 1.5v7l1 .5v-7l3 1.5v7l1 .5v-7l4 2z" fill="#baa794"/><path d="m77 78.5v12l-11-5.5v1l12 6v-13z" fill="#baa794"/><path d="m78 81-12-6v-2l12 6z" opacity=".15"/><path d="m78 80-12-6v-1l12 6z" opacity=".15"/><path d="m94 100-12-6v-13l12 6z" fill="#39c"/><path d="m94 92-4-2v-5l-1-.5v5l-3-1.5v-5l-1-.5v5l-3-1.5v1l3 1.5v7l1 .5v-7l3 1.5v7l1 .5v-7l4 2z" fill="#baa794"/><path d="m93 86.5v12l-11-5.5v1l12 6v-13z" fill="#baa794"/><path d="m94 89-12-6v-2l12 6z" opacity=".15"/><path d="m94 88-12-6v-1l12 6z" opacity=".15"/><path d="m111 108.5-12-6v-13l12 6z" fill="#39c"/><path d="m111 102.5-12-11v-2l12 6z" opacity=".15"/><path d="m111 100.5-4-2v-5l-1-.5v5l-3-1.5v-5l-1-.5v5l-3-1.5v1l3 1.5v7l1 .5v-7l3 1.5v7l1 .5v-7l4 2z" fill="#baa794"/><path d="m110 95v12l-11-5.5v1l12 6v-13z" fill="#baa794"/><path d="m111 97.5-12-6v-2l12 6z" opacity=".15"/><path d="m111 96.5-12-6v-1l12 6z" opacity=".15"/><path d="m126 116-12-6v-13l12 6z" fill="#39c"/><path d="m126 112-12-12v-3l12 6z" opacity=".15"/><path d="m126 108-4-2v-5l-1-.5v5l-3-1.5v-5l-1-.5v5l-3-1.5v1l3 1.5v7l1 .5v-7l3 1.5v7l1 .5v-7l4 2z" fill="#baa794"/><path d="m125 102.5v12l-11-5.5v1l12 6v-13z" fill="#baa794"/><path d="m126 105-12-6v-2l12 6z" opacity=".15"/><path d="m126 104-12-6v-1l12 6z" opacity=".15"/><path d="m128 103-128-64v-2l128 64z" fill="#fff" opacity=".2"/><path d="m128 102-128-64v-1l128 64z" fill="#fff" opacity=".8"/><path d="m128 104-128-64v-1l128 64z" opacity=".15"/><path d="m128 119-128-64v-1l128 64z" fill="#fff" opacity=".8"/><path d="m128 120-128-64v-1l128 64z" opacity=".15"/><path d="m128 98-128-64v-1l128 64z" fill="#fff" opacity=".8"/><path d="m128 99-128-64v-1l128 64z" opacity=".15"/><path d="m128 135-128-64v-1l128 64z" fill="#fff" opacity=".8"/><path d="m128 136-128-64v-1l128 64z" opacity=".15"/><path d="m128 151-128-64v-1l128 64z" fill="#fff" opacity=".8"/><path d="m128 152-128-64v-1l128 64z" opacity=".15"/><path d="m14 76-12-6v-13l12 6z" fill="#39c"/><path d="m14 76-12-6v-9l12 12z" fill="#fff" opacity=".2"/><path d="m14 68-4-2v-5l-1-.5v5l-3-1.5v-5l-1-.5v5l-3-1.5v1l3 1.5v7l1 .5v-7l3 1.5v7l1 .5v-7l4 2z" fill="#baa794"/><path d="m13 62.5v12l-11-5.5v1l12 6v-13z" fill="#baa794"/><path d="m14 65-12-6v-2l12 6z" opacity=".15"/><path d="m14 64-12-6v-1l12 6z" opacity=".15"/><path d="m29 83.5-12-6v-13l12 6z" fill="#39c"/><path d="m29 83.5-12-6v-7l12 12z" fill="#fff" opacity=".2"/><path d="m29 75.5-4-2v-5l-1-.5v5l-3-1.5v-5l-1-.5v5l-3-1.5v1l3 1.5v7l1 .5v-7l3 1.5v7l1 .5v-7l4 2z" fill="#baa794"/><path d="m28 70v12l-11-5.5v1l12 6v-13z" fill="#baa794"/><path d="m29 72.5-12-6v-2l12 6z" opacity=".15"/><path d="m29 71.5-12-6v-1l12 6z" opacity=".15"/><path d="m46 92-12-6v-13l12 6z" fill="#39c"/><path d="m46 84-4-2v-5l-1-.5v5l-3-1.5v-5l-1-.5v5l-3-1.5v1l3 1.5v7l1 .5v-7l3 1.5v7l1 .5v-7l4 2z" fill="#baa794"/><path d="m45 78.5v12l-11-5.5v1l12 6v-13z" fill="#baa794"/><path d="m46 81-12-6v-2l12 6z" opacity=".15"/><path d="m46 80-12-6v-1l12 6z" opacity=".15"/><path d="m62 100-12-6v-13l12 6z" fill="#39c"/><path d="m62 92-4-2v-5l-1-.5v5l-3-1.5v-5l-1-.5v5l-3-1.5v1l3 1.5v7l1 .5v-7l3 1.5v7l1 .5v-7l4 2z" fill="#baa794"/><path d="m61 86.5v12l-11-5.5v1l12 6v-13z" fill="#baa794"/><path d="m62 89-12-6v-2l12 6z" opacity=".15"/><path d="m62 88-12-6v-1l12 6z" opacity=".15"/><path d="m14 60-12-6v-13l12 6z" fill="#39c"/><path d="m14 60-12-6v-13l12 12z" fill="#fff" opacity=".2"/><path d="m14 52-4-2v-5l-1-.5v5l-3-1.5v-5l-1-.5v5l-3-1.5v1l3 1.5v7l1 .5v-7l3 1.5v7l1 .5v-7l4 2z" fill="#baa794"/><path d="m13 46.5v12l-11-5.5v1l12 6v-13z" fill="#baa794"/><path d="m14 49-12-6v-2l12 6z" opacity=".15"/><path d="m14 48-12-6v-1l12 6z" opacity=".15"/><path d="m29 67.5-12-6v-13l12 6z" fill="#39c"/><path d="m29 59.5-4-2v-5l-1-.5v5l-3-1.5v-5l-1-.5v5l-3-1.5v1l3 1.5v7l1 .5v-7l3 1.5v7l1 .5v-7l4 2z" fill="#baa794"/><path d="m28 54v12l-11-5.5v1l12 6v-13z" fill="#baa794"/><path d="m29 56.5-12-6v-2l12 6z" opacity=".15"/><path d="m29 55.5-12-6v-1l12 6z" opacity=".15"/><path d="m46 76-12-6v-13l12 6z" fill="#39c"/><path d="m46 68-4-2v-5l-1-.5v5l-3-1.5v-5l-1-.5v5l-3-1.5v1l3 1.5v7l1 .5v-7l3 1.5v7l1 .5v-7l4 2z" fill="#baa794"/><path d="m45 62.5v12l-11-5.5v1l12 6v-13z" fill="#baa794"/><path d="m46 65-12-6v-2l12 6z" opacity=".15"/><path d="m46 64-12-6v-1l12 6z" opacity=".15"/><path d="m62 84-12-6v-13l12 6z" fill="#39c"/><path d="m62 76-4-2v-5l-1-.5v5l-3-1.5v-5l-1-.5v5l-3-1.5v1l3 1.5v7l1 .5v-7l3 1.5v7l1 .5v-7l4 2z" fill="#baa794"/><path d="m61 70.5v12l-11-5.5v1l12 6v-13z" fill="#baa794"/><path d="m62 73-12-6v-2l12 6z" opacity=".15"/><path d="m62 72-12-6v-1l12 6z" opacity=".15"/><path d="m33 85.5-3-1.5v-12l3 1.5z" opacity=".15"/><g fill="#fff"><path d="m32 75-1-.5v-1l1 .5z" opacity=".8"/><path d="m32 78-1-.5v-1l1 .5z" opacity=".8"/><path d="m32 81-1-.5v-1l1 .5z" opacity=".8"/><path d="m32 84-1-.5v-1l1 .5z" opacity=".8"/></g><path d="m33 101.5-3-1.5v-12l3 1.5z" opacity=".15"/><path d="m32 91-1-.5v-1l1 .5z" fill="#fff" opacity=".8"/><path d="m32 94-1-.5v-1l1 .5z" fill="#fff" opacity=".8"/><path d="m32 97-1-.5v-1l1 .5z" fill="#fff" opacity=".8"/><path d="m32 100-1-.5v-1l1 .5z" fill="#fff" opacity=".8"/><path d="m98 118-3-1.5v-12l3 1.5z" opacity=".15"/><path d="m97 107.5-1-.5v-1l1 .5z" fill="#fff" opacity=".8"/><path d="m97 110.5-1-.5v-1l1 .5z" fill="#fff" opacity=".8"/><path d="m97 113.5-1-.5v-1l1 .5z" fill="#fff" opacity=".8"/><path d="m97 116.5-1-.5v-1l1 .5z" fill="#fff" opacity=".8"/><path d="m78 124-12-6v-13l12 6z" fill="#39c"/><path d="m78 116-4-2v-5l-1-.5v5l-3-1.5v-5l-1-.5v5l-3-1.5v1l3 1.5v7l1 .5v-7l3 1.5v7l1 .5v-7l4 2z" fill="#baa794"/><path d="m77 110.5v12l-11-5.5v1l12 6v-13z" fill="#baa794"/><path d="m78 113-12-6v-2l12 6z" opacity=".15"/><path d="m78 112-12-6v-1l12 6z" opacity=".15"/><path d="m94 132-12-6v-13l12 6z" fill="#39c"/><path d="m94 124-4-2v-5l-1-.5v5l-3-1.5v-5l-1-.5v5l-3-1.5v1l3 1.5v7l1 .5v-7l3 1.5v7l1 .5v-7l4 2z" fill="#baa794"/><path d="m93 118.5v12l-11-5.5v1l12 6v-13z" fill="#baa794"/><path d="m94 121-12-6v-2l12 6z" opacity=".15"/><path d="m94 120-12-6v-1l12 6z" opacity=".15"/><path d="m111 140.5-12-6v-13l12 6z" fill="#39c"/><path d="m111 132.5-4-2v-5l-1-.5v5l-3-1.5v-5l-1-.5v5l-3-1.5v1l3 1.5v7l1 .5v-7l3 1.5v7l1 .5v-7l4 2z" fill="#baa794"/><path d="m110 127v12l-11-5.5v1l12 6v-13z" fill="#baa794"/><path d="m111 129.5-12-6v-2l12 6z" opacity=".15"/><path d="m111 128.5-12-6v-1l12 6z" opacity=".15"/><path d="m126 148-12-6v-13l12 6z" fill="#39c"/><path d="m126 143-12-12v-2l12 6z" opacity=".15"/><path d="m126 140-4-2v-5l-1-.5v5l-3-1.5v-5l-1-.5v5l-3-1.5v1l3 1.5v7l1 .5v-7l3 1.5v7l1 .5v-7l4 2z" fill="#baa794"/><path d="m125 134.5v12l-11-5.5v1l12 6v-13z" fill="#baa794"/><path d="m126 137-12-6v-2l12 6z" opacity=".15"/><path d="m126 136-12-6v-1l12 6z" opacity=".15"/><path d="m14 92-12-6v-13l12 6z" fill="#39c"/><path d="m14 92-12-6v-9l12 12z" fill="#fff" opacity=".2"/><path d="m14 84-4-2v-5l-1-.5v5l-3-1.5v-5l-1-.5v5l-3-1.5v1l3 1.5v7l1 .5v-7l3 1.5v7l1 .5v-7l4 2z" fill="#baa794"/><path d="m13 78.5v12l-11-5.5v1l12 6v-13z" fill="#baa794"/><path d="m14 81-12-6v-2l12 6z" opacity=".15"/><path d="m14 80-12-6v-1l12 6z" opacity=".15"/><path d="m29 99.5-12-6v-13l12 6z" fill="#39c"/><path d="m29 99.5-12-6v-4l12 9z" fill="#fff" opacity=".2"/><path d="m29 91.5-4-2v-5l-1-.5v5l-3-1.5v-5l-1-.5v5l-3-1.5v1l3 1.5v7l1 .5v-7l3 1.5v7l1 .5v-7l4 2z" fill="#baa794"/><path d="m28 86v12l-11-5.5v1l12 6v-13z" fill="#baa794"/><path d="m29 88.5-12-6v-2l12 6z" opacity=".15"/><path d="m29 87.5-12-6v-1l12 6z" opacity=".15"/><path d="m46 108-12-6v-13l12 6z" fill="#39c"/><path d="m46 100-4-2v-5l-1-.5v5l-3-1.5v-5l-1-.5v5l-3-1.5v1l3 1.5v7l1 .5v-7l3 1.5v7l1 .5v-7l4 2z" fill="#baa794"/><path d="m45 94.5v12l-11-5.5v1l12 6v-13z" fill="#baa794"/><path d="m46 97-12-6v-2l12 6z" opacity=".15"/><path d="m46 96-12-6v-1l12 6z" opacity=".15"/><path d="m62 116-12-6v-13l12 6z" fill="#39c"/><path d="m62 108-4-2v-5l-1-.5v5l-3-1.5v-5l-1-.5v5l-3-1.5v1l3 1.5v7l1 .5v-7l3 1.5v7l1 .5v-7l4 2z" fill="#baa794"/><path d="m61 102.5v12l-11-5.5v1l12 6v-13z" fill="#baa794"/><path d="m62 105-12-6v-2l12 6z" opacity=".15"/><path d="m62 104-12-6v-1l12 6z" opacity=".15"/><path d="m98 134-3-1.5v-12l3 1.5z" opacity=".15"/><path d="m97 123.5-1-.5v-1l1 .5z" fill="#fff" opacity=".8"/><path d="m97 126.5-1-.5v-1l1 .5z" fill="#fff" opacity=".8"/><path d="m97 129.5-1-.5v-1l1 .5z" fill="#fff" opacity=".8"/><path d="m97 132.5-1-.5v-1l1 .5z" fill="#fff" opacity=".8"/><path d="m33 69.5-3-1.5v-12l3 1.5z" opacity=".15"/><path d="m32 59-1-.5v-1l1 .5z" fill="#fff" opacity=".8"/><path d="m32 62-1-.5v-1l1 .5z" fill="#fff" opacity=".8"/><path d="m32 65-1-.5v-1l1 .5z" fill="#fff" opacity=".8"/><path d="m32 68-1-.5v-1l1 .5z" fill="#fff" opacity=".8"/><path d="m98 102-3-1.5v-12l3 1.5z" opacity=".15"/><path d="m97 91.5-1-.5v-1l1 .5z" fill="#fff" opacity=".8"/><path d="m97 94.5-1-.5v-1l1 .5z" fill="#fff" opacity=".8"/><path d="m97 97.5-1-.5v-1l1 .5z" fill="#fff" opacity=".8"/><path d="m97 100.5-1-.5v-1l1 .5z" fill="#fff" opacity=".8"/><path d="m0 32v56l128 64v-56z" opacity=".06"/></svg>