<svg enable-background="new 0 0 128 120" viewBox="0 0 128 120" xmlns="http://www.w3.org/2000/svg"><path d="m64 2-64 32v53l64 32 64-32v-53z" fill="#2d3134"/><path d="m128 86-64 32v-14l64-32z" fill="#39c"/><path d="m128 75-64 32v-3l64-32z" opacity=".15"/><path d="m128 73-64 32v-1l64-32z" opacity=".15"/><path d="m123 87.5-4 2v-13l4-2z" fill="#fff" opacity=".3"/><path d="m128 85-4 2v-13l4-2z" fill="#fff" opacity=".2"/><path d="m118 90-4 2v-13l4-2z" fill="#fff" opacity=".3"/><path d="m88 105-4 2v-13l4-2z" fill="#fff" opacity=".3"/><path d="m83 107.5-4 2v-13l4-2z" fill="#fff" opacity=".3"/><path d="m128 70-64 32v-14l64-32z" fill="#39c"/><path d="m128 59-64 32v-3l64-32z" opacity=".15"/><path d="m128 57-64 32v-1l64-32z" opacity=".15"/><path d="m88 89-4 2v-13l4-2z" fill="#fff" opacity=".3"/><path d="m93 86.5-4 2v-13l4-2z" fill="#fff" opacity=".2"/><path d="m83 91.5-4 2v-13l4-2z" fill="#fff" opacity=".3"/><path d="m78 94-4 2v-13l4-2z" fill="#fff" opacity=".2"/><path d="m73 96.5-4 2v-13l4-2z" fill="#fff" opacity=".2"/><path d="m128 54-64 32v-14l64-32z" fill="#39c"/><path d="m128 43-64 32v-3l64-32z" opacity=".15"/><path d="m128 41-64 32v-1l64-32z" opacity=".15"/><g fill="#fff"><path d="m118 58-4 2v-13l4-2z" opacity=".3"/><path d="m113 60.5-4 2v-13l4-2z" opacity=".2"/><path d="m108 63-4 2v-13l4-2z" opacity=".2"/><path d="m73 80.5-4 2v-13l4-2z" opacity=".3"/><path d="m78 78-4 2v-13l4-2z" opacity=".3"/><path d="m68 83-4 2v-13l4-2z" opacity=".3"/><path d="m69 116.5-1 .5v-48l1-.5z" opacity=".7"/><path d="m74 114-1 .5v-48l1-.5z" opacity=".7"/><path d="m79 111.5-1 .5v-48l1-.5z" opacity=".7"/><path d="m84 109-1 .5v-48l1-.5z" opacity=".7"/><path d="m89 106.5-1 .5v-48l1-.5z" opacity=".7"/><path d="m94 104-1 .5v-48l1-.5z" opacity=".7"/><path d="m99 101.5-1 .5v-48l1-.5z" opacity=".7"/><path d="m104 99-1 .5v-48l1-.5z" opacity=".7"/><path d="m109 96.5-1 .5v-48l1-.5z" opacity=".7"/><path d="m114 94-1 .5v-48l1-.5z" opacity=".7"/><path d="m119 91.5-1 .5v-48l1-.5z" opacity=".7"/><path d="m124 89-1 .5v-48l1-.5z" opacity=".7"/></g><path d="m128 88-64 32v-3l64-32z" fill="#e5e5e5"/><path d="m128 72-64 32v-3l64-32z" fill="#e5e5e5"/><path d="m128 56-64 32v-3l64-32z" fill="#e5e5e5"/><path d="m128 40-64 32v-6l64-32z" fill="#2d3134"/><path d="m64 66v54l64-32v-54z" opacity=".39"/><path d="m64 118-64-32v-14l64 32z" fill="#39c"/><path d="m64 107-64-32v-3l64 32z" opacity=".15"/><path d="m64 105-64-32v-1l64 32z" opacity=".15"/><path d="m59 114.5-4-2v-13l4 2z" fill="#fff" opacity=".3"/><path d="m64 117-4-2v-13l4 2z" fill="#fff" opacity=".2"/><path d="m54 112-4-2v-13l4 2z" fill="#fff" opacity=".3"/><path d="m49 109.5-4-2v-13l4 2z" fill="#fff" opacity=".3"/><path d="m64 102-64-32v-14l64 32z" fill="#39c"/><path d="m64 91-64-32v-3l64 32z" opacity=".15"/><path d="m64 89-64-32v-1l64 32z" opacity=".15"/><path d="m24 81-4-2v-13l4 2z" fill="#fff" opacity=".3"/><path d="m29 83.5-4-2v-13l4 2z" fill="#fff" opacity=".2"/><path d="m34 86-4-2v-13l4 2z" fill="#fff" opacity=".2"/><path d="m19 78.5-4-2v-13l4 2z" fill="#fff" opacity=".3"/><path d="m14 76-4-2v-13l4 2z" fill="#fff" opacity=".2"/><path d="m9 73.5-4-2v-13l4 2z" fill="#fff" opacity=".2"/><path d="m64 86-64-32v-14l64 32z" fill="#39c"/><path d="m64 75-64-32v-3l64 32z" opacity=".15"/><path d="m64 73-64-32v-1l64 32z" opacity=".15"/><path d="m64 85-4-2v-13l4 2z" fill="#fff" opacity=".3"/><path d="m59 82.5-4-2v-13l4 2z" fill="#fff" opacity=".2"/><path d="m19 62.5-4-2v-13l4 2z" fill="#fff" opacity=".2"/><path d="m9 57.5-4-2v-13l4 2z" fill="#fff" opacity=".3"/><path d="m14 60-4-2v-13l4 2z" fill="#fff" opacity=".3"/><path d="m4 55-4-2v-13l4 2z" fill="#fff" opacity=".3"/><path d="m5 89.5-1-.5v-48l1 .5z" fill="#fff" opacity=".7"/><path d="m10 92-1-.5v-48l1 .5z" fill="#fff" opacity=".7"/><path d="m15 94.5-1-.5v-48l1 .5z" fill="#fff" opacity=".7"/><path d="m20 97-1-.5v-48l1 .5z" fill="#fff" opacity=".7"/><path d="m25 99.5-1-.5v-48l1 .5z" fill="#fff" opacity=".7"/><path d="m30 102-1-.5v-48l1 .5z" fill="#fff" opacity=".7"/><path d="m35 104.5-1-.5v-48l1 .5z" fill="#fff" opacity=".7"/><path d="m40 107-1-.5v-48l1 .5z" fill="#fff" opacity=".7"/><path d="m45 109.5-1-.5v-48l1 .5z" fill="#fff" opacity=".7"/><path d="m50 112-1-.5v-48l1 .5z" fill="#fff" opacity=".7"/><path d="m55 114.5-1-.5v-48l1 .5z" fill="#fff" opacity=".7"/><path d="m60 117-1-.5v-48l1 .5z" fill="#fff" opacity=".7"/><path d="m64 120-64-32v-3l64 32z" fill="#e5e5e5"/><path d="m64 104-64-32v-3l64 32z" fill="#e5e5e5"/><path d="m64 88-64-32v-3l64 32z" fill="#e5e5e5"/><path d="m64 72-64-32v-6l64 32z" fill="#2d3134"/><path d="m0 34v54l64 32v-2-52z" opacity=".06"/><path d="m64 66 64-32-64-32-64 32z" fill="#2d3134"/><path d="m8.9 34 55.1-27.5 55.1 27.5-55.1 27.5z" opacity=".3"/><path d="m64 8.5 53.1 26.5 2-1-55.1-27.5-55.1 27.5 2 1z" opacity=".15"/><path d="m64 8.5v-2l-55.1 27.5 2 1z" opacity=".39"/><path d="m64 8.5 53.1 26.5 2-1-55.1-27.5z" opacity=".06"/><path d="m83 22-16 8v5l16 8 16-8v-5z" fill="#999"/><path d="m99 35-16 8v-5l16-8z" opacity=".39"/><path d="m67 35 16 8v-5l-16-8z" opacity=".06"/><path d="m75.5 29.8 7.5-3.8 7.5 3.8-7.5 3.7z" fill="#656565"/></svg>