<svg enable-background="new 0 0 96 104" viewBox="0 0 96 104" xmlns="http://www.w3.org/2000/svg"><path d="m48 48 48-24-48-24-48 24z" fill="#2d3134"/><path d="m0 80 48 24v-56l-48-24z" fill="#762c07"/><g fill="#baa794" opacity=".5"><path d="m4 79-3-1.5v2l3 1.5z"/><path d="m8 81-3-1.5v2l3 1.5z"/><path d="m12 83-3-1.5v2l3 1.5z"/><path d="m16 85-3-1.5v2l3 1.5z"/><path d="m20 87-3-1.5v2l3 1.5z"/><path d="m24 89-3-1.5v2l3 1.5z"/><path d="m28 91-3-1.5v2l3 1.5z"/><path d="m32 93-3-1.5v2l3 1.5z"/><path d="m36 95-3-1.5v2l3 1.5z"/><path d="m40 97-3-1.5v2l3 1.5z"/><path d="m44 99-3-1.5v2l3 1.5z"/><path d="m48 101-3-1.5v2l3 1.5z"/><path d="m2 75-2-1v2l2 1z"/><path d="m6 77-3-1.5v2l3 1.5z"/><path d="m10 79-3-1.5v2l3 1.5z"/><path d="m14 81-3-1.5v2l3 1.5z"/><path d="m18 83-3-1.5v2l3 1.5z"/><path d="m22 85-3-1.5v2l3 1.5z"/><path d="m26 87-3-1.5v2l3 1.5z"/><path d="m30 89-3-1.5v2l3 1.5z"/><path d="m34 91-3-1.5v2l3 1.5z"/><path d="m38 93-3-1.5v2l3 1.5z"/><path d="m42 95-3-1.5v2l3 1.5z"/><path d="m46 97-3-1.5v2l3 1.5z"/><path d="m48 98-1-.5v2l1 .5z"/><path d="m4 73-3-1.5v2l3 1.5z"/><path d="m8 75-3-1.5v2l3 1.5z"/><path d="m12 77-3-1.5v2l3 1.5z"/><path d="m16 79-3-1.5v2l3 1.5z"/><path d="m20 81-3-1.5v2l3 1.5z"/><path d="m24 83-3-1.5v2l3 1.5z"/><path d="m28 85-3-1.5v2l3 1.5z"/><path d="m32 87-3-1.5v2l3 1.5z"/><path d="m36 89-3-1.5v2l3 1.5z"/><path d="m40 91-3-1.5v2l3 1.5z"/><path d="m44 93-3-1.5v2l3 1.5z"/><path d="m48 95-3-1.5v2l3 1.5z"/><path d="m2 69-2-1v2l2 1z"/><path d="m6 71-3-1.5v2l3 1.5z"/><path d="m10 73-3-1.5v2l3 1.5z"/><path d="m14 75-3-1.5v2l3 1.5z"/><path d="m18 77-3-1.5v2l3 1.5z"/><path d="m22 79-3-1.5v2l3 1.5z"/><path d="m26 81-3-1.5v2l3 1.5z"/><path d="m30 83-3-1.5v2l3 1.5z"/><path d="m34 85-3-1.5v2l3 1.5z"/><path d="m38 87-3-1.5v2l3 1.5z"/><path d="m42 89-3-1.5v2l3 1.5z"/><path d="m46 91-3-1.5v2l3 1.5z"/><path d="m48 92-1-.5v2l1 .5z"/><path d="m4 67-3-1.5v2l3 1.5z"/><path d="m8 69-3-1.5v2l3 1.5z"/><path d="m12 71-3-1.5v2l3 1.5z"/><path d="m16 73-3-1.5v2l3 1.5z"/><path d="m20 75-3-1.5v2l3 1.5z"/><path d="m24 77-3-1.5v2l3 1.5z"/><path d="m28 79-3-1.5v2l3 1.5z"/><path d="m32 81-3-1.5v2l3 1.5z"/><path d="m36 83-3-1.5v2l3 1.5z"/><path d="m40 85-3-1.5v2l3 1.5z"/><path d="m44 87-3-1.5v2l3 1.5z"/><path d="m48 89-3-1.5v2l3 1.5z"/><path d="m2 63-2-1v2l2 1z"/><path d="m6 65-3-1.5v2l3 1.5z"/><path d="m10 67-3-1.5v2l3 1.5z"/><path d="m14 69-3-1.5v2l3 1.5z"/><path d="m18 71-3-1.5v2l3 1.5z"/><path d="m22 73-3-1.5v2l3 1.5z"/><path d="m26 75-3-1.5v2l3 1.5z"/><path d="m30 77-3-1.5v2l3 1.5z"/><path d="m34 79-3-1.5v2l3 1.5z"/><path d="m38 81-3-1.5v2l3 1.5z"/><path d="m42 83-3-1.5v2l3 1.5z"/><path d="m46 85-3-1.5v2l3 1.5z"/><path d="m48 86-1-.5v2l1 .5z"/><path d="m4 61-3-1.5v2l3 1.5z"/><path d="m8 63-3-1.5v2l3 1.5z"/><path d="m12 65-3-1.5v2l3 1.5z"/><path d="m16 67-3-1.5v2l3 1.5z"/><path d="m20 69-3-1.5v2l3 1.5z"/><path d="m24 71-3-1.5v2l3 1.5z"/><path d="m28 73-3-1.5v2l3 1.5z"/><path d="m32 75-3-1.5v2l3 1.5z"/><path d="m36 77-3-1.5v2l3 1.5z"/><path d="m40 79-3-1.5v2l3 1.5z"/><path d="m44 81-3-1.5v2l3 1.5z"/><path d="m48 83-3-1.5v2l3 1.5z"/><path d="m2 57-2-1v2l2 1z"/><path d="m6 59-3-1.5v2l3 1.5z"/><path d="m10 61-3-1.5v2l3 1.5z"/><path d="m14 63-3-1.5v2l3 1.5z"/><path d="m18 65-3-1.5v2l3 1.5z"/><path d="m22 67-3-1.5v2l3 1.5z"/><path d="m26 69-3-1.5v2l3 1.5z"/><path d="m30 71-3-1.5v2l3 1.5z"/><path d="m34 73-3-1.5v2l3 1.5z"/><path d="m38 75-3-1.5v2l3 1.5z"/><path d="m42 77-3-1.5v2l3 1.5z"/><path d="m46 79-3-1.5v2l3 1.5z"/><path d="m48 80-1-.5v2l1 .5z"/><path d="m4 55-3-1.5v2l3 1.5z"/><path d="m8 57-3-1.5v2l3 1.5z"/><path d="m12 59-3-1.5v2l3 1.5z"/><path d="m16 61-3-1.5v2l3 1.5z"/><path d="m20 63-3-1.5v2l3 1.5z"/><path d="m24 65-3-1.5v2l3 1.5z"/><path d="m28 67-3-1.5v2l3 1.5z"/><path d="m32 69-3-1.5v2l3 1.5z"/><path d="m36 71-3-1.5v2l3 1.5z"/><path d="m40 73-3-1.5v2l3 1.5z"/><path d="m44 75-3-1.5v2l3 1.5z"/><path d="m48 77-3-1.5v2l3 1.5z"/><path d="m2 51-2-1v2l2 1z"/><path d="m6 53-3-1.5v2l3 1.5z"/><path d="m10 55-3-1.5v2l3 1.5z"/><path d="m14 57-3-1.5v2l3 1.5z"/><path d="m18 59-3-1.5v2l3 1.5z"/><path d="m22 61-3-1.5v2l3 1.5z"/><path d="m26 63-3-1.5v2l3 1.5z"/><path d="m30 65-3-1.5v2l3 1.5z"/><path d="m34 67-3-1.5v2l3 1.5z"/><path d="m38 69-3-1.5v2l3 1.5z"/><path d="m42 71-3-1.5v2l3 1.5z"/><path d="m46 73-3-1.5v2l3 1.5z"/><path d="m48 74-1-.5v2l1 .5z"/><path d="m4 49-3-1.5v2l3 1.5z"/><path d="m8 51-3-1.5v2l3 1.5z"/><path d="m12 53-3-1.5v2l3 1.5z"/><path d="m16 55-3-1.5v2l3 1.5z"/><path d="m20 57-3-1.5v2l3 1.5z"/><path d="m24 59-3-1.5v2l3 1.5z"/><path d="m28 61-3-1.5v2l3 1.5z"/><path d="m32 63-3-1.5v2l3 1.5z"/><path d="m36 65-3-1.5v2l3 1.5z"/><path d="m40 67-3-1.5v2l3 1.5z"/><path d="m44 69-3-1.5v2l3 1.5z"/><path d="m48 71-3-1.5v2l3 1.5z"/><path d="m2 45-2-1v2l2 1z"/><path d="m6 47-3-1.5v2l3 1.5z"/><path d="m10 49-3-1.5v2l3 1.5z"/><path d="m14 51-3-1.5v2l3 1.5z"/><path d="m18 53-3-1.5v2l3 1.5z"/><path d="m22 55-3-1.5v2l3 1.5z"/><path d="m26 57-3-1.5v2l3 1.5z"/><path d="m30 59-3-1.5v2l3 1.5z"/><path d="m34 61-3-1.5v2l3 1.5z"/><path d="m38 63-3-1.5v2l3 1.5z"/><path d="m42 65-3-1.5v2l3 1.5z"/><path d="m46 67-3-1.5v2l3 1.5z"/><path d="m48 68-1-.5v2l1 .5z"/><path d="m4 43-3-1.5v2l3 1.5z"/><path d="m8 45-3-1.5v2l3 1.5z"/><path d="m12 47-3-1.5v2l3 1.5z"/><path d="m16 49-3-1.5v2l3 1.5z"/><path d="m20 51-3-1.5v2l3 1.5z"/><path d="m24 53-3-1.5v2l3 1.5z"/><path d="m28 55-3-1.5v2l3 1.5z"/><path d="m32 57-3-1.5v2l3 1.5z"/><path d="m36 59-3-1.5v2l3 1.5z"/><path d="m40 61-3-1.5v2l3 1.5z"/><path d="m44 63-3-1.5v2l3 1.5z"/><path d="m48 65-3-1.5v2l3 1.5z"/><path d="m2 39-2-1v2l2 1z"/><path d="m6 41-3-1.5v2l3 1.5z"/><path d="m10 43-3-1.5v2l3 1.5z"/><path d="m14 45-3-1.5v2l3 1.5z"/><path d="m18 47-3-1.5v2l3 1.5z"/><path d="m22 49-3-1.5v2l3 1.5z"/><path d="m26 51-3-1.5v2l3 1.5z"/><path d="m30 53-3-1.5v2l3 1.5z"/><path d="m34 55-3-1.5v2l3 1.5z"/><path d="m38 57-3-1.5v2l3 1.5z"/><path d="m42 59-3-1.5v2l3 1.5z"/><path d="m46 61-3-1.5v2l3 1.5z"/><path d="m48 62-1-.5v2l1 .5z"/><path d="m4 37-3-1.5v2l3 1.5z"/><path d="m8 39-3-1.5v2l3 1.5z"/><path d="m12 41-3-1.5v2l3 1.5z"/><path d="m16 43-3-1.5v2l3 1.5z"/><path d="m20 45-3-1.5v2l3 1.5z"/><path d="m24 47-3-1.5v2l3 1.5z"/><path d="m28 49-3-1.5v2l3 1.5z"/><path d="m32 51-3-1.5v2l3 1.5z"/><path d="m36 53-3-1.5v2l3 1.5z"/><path d="m40 55-3-1.5v2l3 1.5z"/><path d="m44 57-3-1.5v2l3 1.5z"/><path d="m48 59-3-1.5v2l3 1.5z"/><path d="m2 33-2-1v2l2 1z"/><path d="m6 35-3-1.5v2l3 1.5z"/><path d="m10 37-3-1.5v2l3 1.5z"/><path d="m14 39-3-1.5v2l3 1.5z"/><path d="m18 41-3-1.5v2l3 1.5z"/><path d="m22 43-3-1.5v2l3 1.5z"/><path d="m26 45-3-1.5v2l3 1.5z"/><path d="m30 47-3-1.5v2l3 1.5z"/><path d="m34 49-3-1.5v2l3 1.5z"/><path d="m38 51-3-1.5v2l3 1.5z"/><path d="m42 53-3-1.5v2l3 1.5z"/><path d="m46 55-3-1.5v2l3 1.5z"/><path d="m48 56-1-.5v2l1 .5z"/><path d="m4 31-3-1.5v2l3 1.5z"/><path d="m8 33-3-1.5v2l3 1.5z"/><path d="m12 35-3-1.5v2l3 1.5z"/><path d="m16 37-3-1.5v2l3 1.5z"/><path d="m20 39-3-1.5v2l3 1.5z"/><path d="m24 41-3-1.5v2l3 1.5z"/><path d="m28 43-3-1.5v2l3 1.5z"/><path d="m32 45-3-1.5v2l3 1.5z"/><path d="m36 47-3-1.5v2l3 1.5z"/><path d="m40 49-3-1.5v2l3 1.5z"/><path d="m44 51-3-1.5v2l3 1.5z"/><path d="m48 53-3-1.5v2l3 1.5z"/><path d="m2 27-2-1v2l2 1z"/><path d="m6 29-3-1.5v2l3 1.5z"/><path d="m10 31-3-1.5v2l3 1.5z"/><path d="m14 33-3-1.5v2l3 1.5z"/><path d="m18 35-3-1.5v2l3 1.5z"/><path d="m22 37-3-1.5v2l3 1.5z"/><path d="m26 39-3-1.5v2l3 1.5z"/><path d="m30 41-3-1.5v2l3 1.5z"/><path d="m34 43-3-1.5v2l3 1.5z"/><path d="m38 45-3-1.5v2l3 1.5z"/><path d="m42 47-3-1.5v2l3 1.5z"/><path d="m46 49-3-1.5v2l3 1.5z"/><path d="m48 50-1-.5v2l1 .5z"/></g><path d="m38.5 63.3.9.5c2.6 1.2 4.6 4.2 4.6 6.7v9.5l-10-5v-9.5c0-2.5 2-3.5 4.5-2.2z" fill="#baa794"/><path d="m39 64.5c2.2 1.1 4 3.8 4 6v8l-8-4v-8c0-2.2 1.8-3.1 4-2z" fill="#39c"/><path d="m43 78.5-8-4v-4z" fill="#fff" opacity=".2"/><path d="m39 64.5c-2.2-1.1-4-.2-4 2v1c0-2.2 1.8-3.1 4-2s4 3.8 4 6v-1c0-2.2-1.8-4.9-4-6z" opacity=".15"/><path d="m41 77.5-1-.5v-12l1 .5z" fill="#baa794"/><path d="m38 76-1-.5v-12l1 .5z" fill="#baa794"/><path d="m43 71.5-8-4v-1l8 4z" fill="#baa794"/><path d="m38.5 81.3.9.5c2.6 1.2 4.6 4.2 4.6 6.7v9.5l-10-5v-9.5c0-2.5 2-3.5 4.5-2.2z" fill="#baa794"/><path d="m39 82.5c2.2 1.1 4 3.8 4 6v8l-8-4v-8c0-2.2 1.8-3.1 4-2z" fill="#39c"/><path d="m43 96.5-8-4v-8z" fill="#fff" opacity=".2"/><path d="m39 82.5c-2.2-1.1-4-.2-4 2v1c0-2.2 1.8-3.1 4-2s4 3.8 4 6v-1c0-2.2-1.8-4.9-4-6z" opacity=".15"/><path d="m41 95.5-1-.5v-12l1 .5z" fill="#baa794"/><path d="m38 94-1-.5v-12l1 .5z" fill="#baa794"/><path d="m43 89.5-8-4v-1l8 4z" fill="#baa794"/><path d="m8.5 48.3.9.5c2.6 1.2 4.6 4.2 4.6 6.7v9.5l-10-5v-9.5c0-2.5 2-3.5 4.5-2.2z" fill="#baa794"/><path d="m9 49.5c2.2 1.1 4 3.8 4 6v8l-8-4v-8c0-2.2 1.8-3.1 4-2z" fill="#39c"/><path d="m13 63.5-8-4v-8z" fill="#fff" opacity=".2"/><path d="m9 49.5c-2.2-1.1-4-.2-4 2v1c0-2.2 1.8-3.1 4-2s4 3.8 4 6v-1c0-2.2-1.8-4.9-4-6z" opacity=".15"/><path d="m11 62.5-1-.5v-12l1 .5z" fill="#baa794"/><path d="m8 61-1-.5v-12l1 .5z" fill="#baa794"/><path d="m13 56.5-8-4v-1l8 4z" fill="#baa794"/><path d="m23.5 55.8.9.5c2.6 1.2 4.6 4.2 4.6 6.7v9.5l-10-5v-9.5c0-2.5 2-3.5 4.5-2.2z" fill="#baa794"/><path d="m24 57c2.2 1.1 4 3.8 4 6v8l-8-4v-8c0-2.2 1.8-3.1 4-2z" fill="#39c"/><path d="m24 57c-2.2-1.1-4-.2-4 2v1c0-2.2 1.8-3.1 4-2s4 3.8 4 6v-1c0-2.2-1.8-4.9-4-6z" opacity=".15"/><path d="m26 70-1-.5v-12l1 .5z" fill="#baa794"/><path d="m23 68.5-1-.5v-12l1 .5z" fill="#baa794"/><path d="m28 64-8-4v-1l8 4z" fill="#baa794"/><path d="m8.5 66.3.9.5c2.6 1.2 4.6 4.2 4.6 6.7v9.5l-10-5v-9.5c0-2.5 2-3.5 4.5-2.2z" fill="#baa794"/><path d="m9 67.5c2.2 1.1 4 3.8 4 6v8l-8-4v-8c0-2.2 1.8-3.1 4-2z" fill="#39c"/><path d="m9 67.5c-2.2-1.1-4-.2-4 2v1c0-2.2 1.8-3.1 4-2s4 3.8 4 6v-1c0-2.2-1.8-4.9-4-6z" opacity=".15"/><path d="m11 80.5-1-.5v-12l1 .5z" fill="#baa794"/><path d="m8 79-1-.5v-12l1 .5z" fill="#baa794"/><path d="m13 74.5-8-4v-1l8 4z" fill="#baa794"/><path d="m23.5 73.8.9.5c2.6 1.2 4.6 4.2 4.6 6.7v9.5l-10-5v-9.5c0-2.5 2-3.5 4.5-2.2z" fill="#baa794"/><path d="m24 75c2.2 1.1 4 3.8 4 6v8l-8-4v-8c0-2.2 1.8-3.1 4-2z" fill="#39c"/><path d="m24 75c-2.2-1.1-4-.2-4 2v1c0-2.2 1.8-3.1 4-2s4 3.8 4 6v-1c0-2.2-1.8-4.9-4-6z" opacity=".15"/><path d="m26 88-1-.5v-12l1 .5z" fill="#baa794"/><path d="m23 86.5-1-.5v-12l1 .5z" fill="#baa794"/><path d="m28 82-8-4v-1l8 4z" fill="#baa794"/><path d="m38.5 48.3.9.5c2.6 1.2 4.6 4.2 4.6 6.7v6.5l-10-5v-6.5c0-2.5 2-3.5 4.5-2.2z" fill="#baa794"/><path d="m39 49.5c2.2 1.1 4 3.8 4 6v5l-8-4v-5c0-2.2 1.8-3.1 4-2z" fill="#39c"/><path d="m39 49.5c-2.2-1.1-4-.2-4 2v1c0-2.2 1.8-3.1 4-2s4 3.8 4 6v-1c0-2.2-1.8-4.9-4-6z" opacity=".15"/><path d="m41 59.5-1-.5v-9l1 .5z" fill="#baa794"/><path d="m38 58-1-.5v-9l1 .5z" fill="#baa794"/><path d="m43 56.5-8-4v-1l8 4z" fill="#baa794"/><path d="m23.5 40.8.9.5c2.6 1.2 4.6 4.2 4.6 6.7v6.5l-10-5v-6.5c0-2.5 2-3.5 4.5-2.2z" fill="#baa794"/><path d="m24 42c2.2 1.1 4 3.8 4 6v5l-8-4v-5c0-2.2 1.8-3.1 4-2z" fill="#39c"/><path d="m28 53-8-4v-3z" fill="#fff" opacity=".2"/><path d="m24 42c-2.2-1.1-4-.2-4 2v1c0-2.2 1.8-3.1 4-2s4 3.8 4 6v-1c0-2.2-1.8-4.9-4-6z" opacity=".15"/><path d="m26 52-1-.5v-9l1 .5z" fill="#baa794"/><path d="m23 50.5-1-.5v-9l1 .5z" fill="#baa794"/><path d="m28 49-8-4v-1l8 4z" fill="#baa794"/><path d="m8.5 33.3.9.5c2.6 1.2 4.6 4.2 4.6 6.7v6.5l-10-5v-6.5c0-2.5 2-3.5 4.5-2.2z" fill="#baa794"/><path d="m9 34.5c2.2 1.1 4 3.8 4 6v5l-8-4v-5c0-2.2 1.8-3.1 4-2z" fill="#39c"/><path d="m9 34.5c-2.2-1.1-4-.2-4 2v1c0-2.2 1.8-3.1 4-2s4 3.8 4 6v-1c0-2.2-1.8-4.9-4-6z" opacity=".15"/><path d="m11 44.5-1-.5v-9l1 .5z" fill="#baa794"/><path d="m8 43-1-.5v-9l1 .5z" fill="#baa794"/><path d="m13 41.5-8-4v-1l8 4z" fill="#baa794"/><g fill="#f8ebcb"><path d="m14 83-10-5v-1l10 5z"/><path d="m29 90.5-10-5v-1l10 5z"/><path d="m44 98-10-5v-1l10 5z"/><path d="m14 65-10-5v-1l10 5z"/><path d="m29 72.5-10-5v-1l10 5z"/><path d="m44 80-10-5v-1l10 5z"/><path d="m14 47-10-5v-1l10 5z"/><path d="m29 54.5-10-5v-1l10 5z"/><path d="m44 62-10-5v-1l10 5z"/></g><path d="m0 80 48 24v-56l-48-24z" opacity=".06"/><path d="m48 104 48-24v-56l-48 24z" fill="#762c07"/><g fill="#baa794" opacity=".5"><path d="m52 99-3 1.5v2l3-1.5z"/><path d="m56 97-3 1.5v2l3-1.5z"/><path d="m60 95-3 1.5v2l3-1.5z"/><path d="m64 93-3 1.5v2l3-1.5z"/><path d="m68 91-3 1.5v2l3-1.5z"/><path d="m72 89-3 1.5v2l3-1.5z"/><path d="m76 87-3 1.5v2l3-1.5z"/><path d="m80 85-3 1.5v2l3-1.5z"/><path d="m84 83-3 1.5v2l3-1.5z"/><path d="m88 81-3 1.5v2l3-1.5z"/><path d="m92 79-3 1.5v2l3-1.5z"/><path d="m96 77-3 1.5v2l3-1.5z"/><path d="m50 97-2 1v2l2-1z"/><path d="m54 95-3 1.5v2l3-1.5z"/><path d="m58 93-3 1.5v2l3-1.5z"/><path d="m62 91-3 1.5v2l3-1.5z"/><path d="m66 89-3 1.5v2l3-1.5z"/><path d="m70 87-3 1.5v2l3-1.5z"/><path d="m74 85-3 1.5v2l3-1.5z"/><path d="m78 83-3 1.5v2l3-1.5z"/><path d="m82 81-3 1.5v2l3-1.5z"/><path d="m86 79-3 1.5v2l3-1.5z"/><path d="m90 77-3 1.5v2l3-1.5z"/><path d="m94 75-3 1.5v2l3-1.5z"/><path d="m96 74-1 .5v2l1-.5z"/><path d="m52 93-3 1.5v2l3-1.5z"/><path d="m56 91-3 1.5v2l3-1.5z"/><path d="m60 89-3 1.5v2l3-1.5z"/><path d="m64 87-3 1.5v2l3-1.5z"/><path d="m68 85-3 1.5v2l3-1.5z"/><path d="m72 83-3 1.5v2l3-1.5z"/><path d="m76 81-3 1.5v2l3-1.5z"/><path d="m80 79-3 1.5v2l3-1.5z"/><path d="m84 77-3 1.5v2l3-1.5z"/><path d="m88 75-3 1.5v2l3-1.5z"/><path d="m92 73-3 1.5v2l3-1.5z"/><path d="m96 71-3 1.5v2l3-1.5z"/><path d="m50 91-2 1v2l2-1z"/><path d="m54 89-3 1.5v2l3-1.5z"/><path d="m58 87-3 1.5v2l3-1.5z"/><path d="m62 85-3 1.5v2l3-1.5z"/><path d="m66 83-3 1.5v2l3-1.5z"/><path d="m70 81-3 1.5v2l3-1.5z"/><path d="m74 79-3 1.5v2l3-1.5z"/><path d="m78 77-3 1.5v2l3-1.5z"/><path d="m82 75-3 1.5v2l3-1.5z"/><path d="m86 73-3 1.5v2l3-1.5z"/><path d="m90 71-3 1.5v2l3-1.5z"/><path d="m94 69-3 1.5v2l3-1.5z"/><path d="m96 68-1 .5v2l1-.5z"/><path d="m52 87-3 1.5v2l3-1.5z"/><path d="m56 85-3 1.5v2l3-1.5z"/><path d="m60 83-3 1.5v2l3-1.5z"/><path d="m64 81-3 1.5v2l3-1.5z"/><path d="m68 79-3 1.5v2l3-1.5z"/><path d="m72 77-3 1.5v2l3-1.5z"/><path d="m76 75-3 1.5v2l3-1.5z"/><path d="m80 73-3 1.5v2l3-1.5z"/><path d="m84 71-3 1.5v2l3-1.5z"/><path d="m88 69-3 1.5v2l3-1.5z"/><path d="m92 67-3 1.5v2l3-1.5z"/><path d="m96 65-3 1.5v2l3-1.5z"/><path d="m50 85-2 1v2l2-1z"/><path d="m54 83-3 1.5v2l3-1.5z"/><path d="m58 81-3 1.5v2l3-1.5z"/><path d="m62 79-3 1.5v2l3-1.5z"/><path d="m66 77-3 1.5v2l3-1.5z"/><path d="m70 75-3 1.5v2l3-1.5z"/><path d="m74 73-3 1.5v2l3-1.5z"/><path d="m78 71-3 1.5v2l3-1.5z"/><path d="m82 69-3 1.5v2l3-1.5z"/><path d="m86 67-3 1.5v2l3-1.5z"/><path d="m90 65-3 1.5v2l3-1.5z"/><path d="m94 63-3 1.5v2l3-1.5z"/><path d="m96 62-1 .5v2l1-.5z"/><path d="m52 81-3 1.5v2l3-1.5z"/><path d="m56 79-3 1.5v2l3-1.5z"/><path d="m60 77-3 1.5v2l3-1.5z"/><path d="m64 75-3 1.5v2l3-1.5z"/><path d="m68 73-3 1.5v2l3-1.5z"/><path d="m72 71-3 1.5v2l3-1.5z"/><path d="m76 69-3 1.5v2l3-1.5z"/><path d="m80 67-3 1.5v2l3-1.5z"/><path d="m84 65-3 1.5v2l3-1.5z"/><path d="m88 63-3 1.5v2l3-1.5z"/><path d="m92 61-3 1.5v2l3-1.5z"/><path d="m96 59-3 1.5v2l3-1.5z"/><path d="m50 79-2 1v2l2-1z"/><path d="m54 77-3 1.5v2l3-1.5z"/><path d="m58 75-3 1.5v2l3-1.5z"/><path d="m62 73-3 1.5v2l3-1.5z"/><path d="m66 71-3 1.5v2l3-1.5z"/><path d="m70 69-3 1.5v2l3-1.5z"/><path d="m74 67-3 1.5v2l3-1.5z"/><path d="m78 65-3 1.5v2l3-1.5z"/><path d="m82 63-3 1.5v2l3-1.5z"/><path d="m86 61-3 1.5v2l3-1.5z"/><path d="m90 59-3 1.5v2l3-1.5z"/><path d="m94 57-3 1.5v2l3-1.5z"/><path d="m96 56-1 .5v2l1-.5z"/><path d="m52 75-3 1.5v2l3-1.5z"/><path d="m56 73-3 1.5v2l3-1.5z"/><path d="m60 71-3 1.5v2l3-1.5z"/><path d="m64 69-3 1.5v2l3-1.5z"/><path d="m68 67-3 1.5v2l3-1.5z"/><path d="m72 65-3 1.5v2l3-1.5z"/><path d="m76 63-3 1.5v2l3-1.5z"/><path d="m80 61-3 1.5v2l3-1.5z"/><path d="m84 59-3 1.5v2l3-1.5z"/><path d="m88 57-3 1.5v2l3-1.5z"/><path d="m92 55-3 1.5v2l3-1.5z"/><path d="m96 53-3 1.5v2l3-1.5z"/><path d="m50 73-2 1v2l2-1z"/><path d="m54 71-3 1.5v2l3-1.5z"/><path d="m58 69-3 1.5v2l3-1.5z"/><path d="m62 67-3 1.5v2l3-1.5z"/><path d="m66 65-3 1.5v2l3-1.5z"/><path d="m70 63-3 1.5v2l3-1.5z"/><path d="m74 61-3 1.5v2l3-1.5z"/><path d="m78 59-3 1.5v2l3-1.5z"/><path d="m82 57-3 1.5v2l3-1.5z"/><path d="m86 55-3 1.5v2l3-1.5z"/><path d="m90 53-3 1.5v2l3-1.5z"/><path d="m94 51-3 1.5v2l3-1.5z"/><path d="m96 50-1 .5v2l1-.5z"/><path d="m52 69-3 1.5v2l3-1.5z"/><path d="m56 67-3 1.5v2l3-1.5z"/><path d="m60 65-3 1.5v2l3-1.5z"/><path d="m64 63-3 1.5v2l3-1.5z"/><path d="m68 61-3 1.5v2l3-1.5z"/><path d="m72 59-3 1.5v2l3-1.5z"/><path d="m76 57-3 1.5v2l3-1.5z"/><path d="m80 55-3 1.5v2l3-1.5z"/><path d="m84 53-3 1.5v2l3-1.5z"/><path d="m88 51-3 1.5v2l3-1.5z"/><path d="m92 49-3 1.5v2l3-1.5z"/><path d="m96 47-3 1.5v2l3-1.5z"/><path d="m50 67-2 1v2l2-1z"/><path d="m54 65-3 1.5v2l3-1.5z"/><path d="m58 63-3 1.5v2l3-1.5z"/><path d="m62 61-3 1.5v2l3-1.5z"/><path d="m66 59-3 1.5v2l3-1.5z"/><path d="m70 57-3 1.5v2l3-1.5z"/><path d="m74 55-3 1.5v2l3-1.5z"/><path d="m78 53-3 1.5v2l3-1.5z"/><path d="m82 51-3 1.5v2l3-1.5z"/><path d="m86 49-3 1.5v2l3-1.5z"/><path d="m90 47-3 1.5v2l3-1.5z"/><path d="m94 45-3 1.5v2l3-1.5z"/><path d="m96 44-1 .5v2l1-.5z"/><path d="m52 63-3 1.5v2l3-1.5z"/><path d="m56 61-3 1.5v2l3-1.5z"/><path d="m60 59-3 1.5v2l3-1.5z"/><path d="m64 57-3 1.5v2l3-1.5z"/><path d="m68 55-3 1.5v2l3-1.5z"/><path d="m72 53-3 1.5v2l3-1.5z"/><path d="m76 51-3 1.5v2l3-1.5z"/><path d="m80 49-3 1.5v2l3-1.5z"/><path d="m84 47-3 1.5v2l3-1.5z"/><path d="m88 45-3 1.5v2l3-1.5z"/><path d="m92 43-3 1.5v2l3-1.5z"/><path d="m96 41-3 1.5v2l3-1.5z"/><path d="m50 61-2 1v2l2-1z"/><path d="m54 59-3 1.5v2l3-1.5z"/><path d="m58 57-3 1.5v2l3-1.5z"/><path d="m62 55-3 1.5v2l3-1.5z"/><path d="m66 53-3 1.5v2l3-1.5z"/><path d="m70 51-3 1.5v2l3-1.5z"/><path d="m74 49-3 1.5v2l3-1.5z"/><path d="m78 47-3 1.5v2l3-1.5z"/><path d="m82 45-3 1.5v2l3-1.5z"/><path d="m86 43-3 1.5v2l3-1.5z"/><path d="m90 41-3 1.5v2l3-1.5z"/><path d="m94 39-3 1.5v2l3-1.5z"/><path d="m96 38-1 .5v2l1-.5z"/><path d="m52 57-3 1.5v2l3-1.5z"/><path d="m56 55-3 1.5v2l3-1.5z"/><path d="m60 53-3 1.5v2l3-1.5z"/><path d="m64 51-3 1.5v2l3-1.5z"/><path d="m68 49-3 1.5v2l3-1.5z"/><path d="m72 47-3 1.5v2l3-1.5z"/><path d="m76 45-3 1.5v2l3-1.5z"/><path d="m80 43-3 1.5v2l3-1.5z"/><path d="m84 41-3 1.5v2l3-1.5z"/><path d="m88 39-3 1.5v2l3-1.5z"/><path d="m92 37-3 1.5v2l3-1.5z"/><path d="m96 35-3 1.5v2l3-1.5z"/><path d="m50 55-2 1v2l2-1z"/><path d="m54 53-3 1.5v2l3-1.5z"/><path d="m58 51-3 1.5v2l3-1.5z"/><path d="m62 49-3 1.5v2l3-1.5z"/><path d="m66 47-3 1.5v2l3-1.5z"/><path d="m70 45-3 1.5v2l3-1.5z"/><path d="m74 43-3 1.5v2l3-1.5z"/><path d="m78 41-3 1.5v2l3-1.5z"/><path d="m82 39-3 1.5v2l3-1.5z"/><path d="m86 37-3 1.5v2l3-1.5z"/><path d="m90 35-3 1.5v2l3-1.5z"/><path d="m94 33-3 1.5v2l3-1.5z"/><path d="m96 32-1 .5v2l1-.5z"/><path d="m52 51-3 1.5v2l3-1.5z"/><path d="m56 49-3 1.5v2l3-1.5z"/><path d="m60 47-3 1.5v2l3-1.5z"/><path d="m64 45-3 1.5v2l3-1.5z"/><path d="m68 43-3 1.5v2l3-1.5z"/><path d="m72 41-3 1.5v2l3-1.5z"/><path d="m76 39-3 1.5v2l3-1.5z"/><path d="m80 37-3 1.5v2l3-1.5z"/><path d="m84 35-3 1.5v2l3-1.5z"/><path d="m88 33-3 1.5v2l3-1.5z"/><path d="m92 31-3 1.5v2l3-1.5z"/><path d="m96 29-3 1.5v2l3-1.5z"/><path d="m50 49-2 1v2l2-1z"/><path d="m54 47-3 1.5v2l3-1.5z"/><path d="m58 45-3 1.5v2l3-1.5z"/><path d="m62 43-3 1.5v2l3-1.5z"/><path d="m66 41-3 1.5v2l3-1.5z"/><path d="m70 39-3 1.5v2l3-1.5z"/><path d="m74 37-3 1.5v2l3-1.5z"/><path d="m78 35-3 1.5v2l3-1.5z"/><path d="m82 33-3 1.5v2l3-1.5z"/><path d="m86 31-3 1.5v2l3-1.5z"/><path d="m90 29-3 1.5v2l3-1.5z"/><path d="m94 27-3 1.5v2l3-1.5z"/><path d="m96 26-1 .5v2l1-.5z"/></g><path d="m86.5 48.7.9-.5c2.6-1.2 4.6-.2 4.6 2.3v9.5l-10 5v-9.5c0-2.5 2-5.5 4.5-6.8z" fill="#baa794"/><path d="m87 49.5c2.2-1.1 4-.2 4 2v8l-8 4v-8c0-2.2 1.8-4.9 4-6z" fill="#39c"/><path d="m91 59.5-8 4v-4z" fill="#fff" opacity=".2"/><path d="m87 49.5c-2.2 1.1-4 3.8-4 6v1c0-2.2 1.8-4.9 4-6s4-.2 4 2v-1c0-2.2-1.8-3.1-4-2z" opacity=".15"/><path d="m89 60.5-1 .5v-12l1-.5z" fill="#baa794"/><path d="m86 62-1 .5v-12l1-.5z" fill="#baa794"/><path d="m91 52.5-8 4v-1l8-4z" fill="#baa794"/><path d="m86.5 66.7.9-.5c2.6-1.2 4.6-.2 4.6 2.3v9.5l-10 5v-9.5c0-2.5 2-5.5 4.5-6.8z" fill="#baa794"/><path d="m87 67.5c2.2-1.1 4-.2 4 2v8l-8 4v-8c0-2.2 1.8-4.9 4-6z" fill="#39c"/><path d="m91 77.5-8 4v-8z" fill="#fff" opacity=".2"/><path d="m87 67.5c-2.2 1.1-4 3.8-4 6v1c0-2.2 1.8-4.9 4-6s4-.2 4 2v-1c0-2.2-1.8-3.1-4-2z" opacity=".15"/><path d="m89 78.5-1 .5v-12l1-.5z" fill="#baa794"/><path d="m86 80-1 .5v-12l1-.5z" fill="#baa794"/><path d="m91 70.5-8 4v-1l8-4z" fill="#baa794"/><path d="m56.5 63.7.9-.5c2.6-1.2 4.6-.2 4.6 2.3v9.5l-10 5v-9.5c0-2.5 2-5.5 4.5-6.8z" fill="#baa794"/><path d="m57 64.5c2.2-1.1 4-.2 4 2v8l-8 4v-8c0-2.2 1.8-4.9 4-6z" fill="#39c"/><path d="m61 74.5-8 4v-8z" fill="#fff" opacity=".2"/><path d="m57 64.5c-2.2 1.1-4 3.8-4 6v1c0-2.2 1.8-4.9 4-6s4-.2 4 2v-1c0-2.2-1.8-3.1-4-2z" opacity=".15"/><path d="m59 75.5-1 .5v-12l1-.5z" fill="#baa794"/><path d="m56 77-1 .5v-12l1-.5z" fill="#baa794"/><path d="m61 67.5-8 4v-1l8-4z" fill="#baa794"/><path d="m71.5 56.2.9-.5c2.6-1.2 4.6-.2 4.6 2.3v9.5l-10 5v-9.5c0-2.5 2-5.5 4.5-6.8z" fill="#baa794"/><path d="m72 57c2.2-1.1 4-.2 4 2v8l-8 4v-8c0-2.2 1.8-4.9 4-6z" fill="#39c"/><path d="m72 57c-2.2 1.1-4 3.8-4 6v1c0-2.2 1.8-4.9 4-6s4-.2 4 2v-1c0-2.2-1.8-3.1-4-2z" opacity=".15"/><path d="m74 68-1 .5v-12l1-.5z" fill="#baa794"/><path d="m71 69.5-1 .5v-12l1-.5z" fill="#baa794"/><path d="m76 60-8 4v-1l8-4z" fill="#baa794"/><path d="m56.5 81.7.9-.5c2.6-1.2 4.6-.2 4.6 2.3v9.5l-10 5v-9.5c0-2.5 2-5.5 4.5-6.8z" fill="#baa794"/><path d="m57 82.5c2.2-1.1 4-.2 4 2v8l-8 4v-8c0-2.2 1.8-4.9 4-6z" fill="#39c"/><path d="m57 82.5c-2.2 1.1-4 3.8-4 6v1c0-2.2 1.8-4.9 4-6s4-.2 4 2v-1c0-2.2-1.8-3.1-4-2z" opacity=".15"/><path d="m59 93.5-1 .5v-12l1-.5z" fill="#baa794"/><path d="m56 95-1 .5v-12l1-.5z" fill="#baa794"/><path d="m61 85.5-8 4v-1l8-4z" fill="#baa794"/><path d="m71.5 74.2.9-.5c2.6-1.2 4.6-.2 4.6 2.3v9.5l-10 5v-9.5c0-2.5 2-5.5 4.5-6.8z" fill="#baa794"/><path d="m72 75c2.2-1.1 4-.2 4 2v8l-8 4v-8c0-2.2 1.8-4.9 4-6z" fill="#39c"/><path d="m72 75c-2.2 1.1-4 3.8-4 6v1c0-2.2 1.8-4.9 4-6s4-.2 4 2v-1c0-2.2-1.8-3.1-4-2z" opacity=".15"/><path d="m74 86-1 .5v-12l1-.5z" fill="#baa794"/><path d="m71 87.5-1 .5v-12l1-.5z" fill="#baa794"/><path d="m76 78-8 4v-1l8-4z" fill="#baa794"/><path d="m86.5 33.7.9-.5c2.6-1.2 4.6-.2 4.6 2.3v6.5l-10 5v-6.5c0-2.5 2-5.5 4.5-6.8z" fill="#baa794"/><path d="m87 34.5c2.2-1.1 4-.2 4 2v5l-8 4v-5c0-2.2 1.8-4.9 4-6z" fill="#39c"/><path d="m87 34.5c-2.2 1.1-4 3.8-4 6v1c0-2.2 1.8-4.9 4-6s4-.2 4 2v-1c0-2.2-1.8-3.1-4-2z" opacity=".15"/><path d="m89 42.5-1 .5v-9l1-.5z" fill="#baa794"/><path d="m86 44-1 .5v-9l1-.5z" fill="#baa794"/><path d="m91 37.5-8 4v-1l8-4z" fill="#baa794"/><path d="m71.5 41.2.9-.5c2.6-1.2 4.6-.2 4.6 2.3v6.5l-10 5v-6.5c0-2.5 2-5.5 4.5-6.8z" fill="#baa794"/><path d="m72 42c2.2-1.1 4-.2 4 2v5l-8 4v-5c0-2.2 1.8-4.9 4-6z" fill="#39c"/><path d="m76 49-8 4v-3z" fill="#fff" opacity=".2"/><path d="m72 42c-2.2 1.1-4 3.8-4 6v1c0-2.2 1.8-4.9 4-6s4-.2 4 2v-1c0-2.2-1.8-3.1-4-2z" opacity=".15"/><path d="m74 50-1 .5v-9l1-.5z" fill="#baa794"/><path d="m71 51.5-1 .5v-9l1-.5z" fill="#baa794"/><path d="m76 45-8 4v-1l8-4z" fill="#baa794"/><path d="m56.5 48.7.9-.5c2.6-1.2 4.6-.2 4.6 2.3v6.5l-10 5v-6.5c0-2.5 2-5.5 4.5-6.8z" fill="#baa794"/><path d="m57 49.5c2.2-1.1 4-.2 4 2v5l-8 4v-5c0-2.2 1.8-4.9 4-6z" fill="#39c"/><path d="m57 49.5c-2.2 1.1-4 3.8-4 6v1c0-2.2 1.8-4.9 4-6s4-.2 4 2v-1c0-2.2-1.8-3.1-4-2z" opacity=".15"/><path d="m59 57.5-1 .5v-9l1-.5z" fill="#baa794"/><path d="m56 59-1 .5v-9l1-.5z" fill="#baa794"/><path d="m61 52.5-8 4v-1l8-4z" fill="#baa794"/><path d="m62 93-10 5v-1l10-5z" fill="#f8ebcb"/><path d="m77 85.5-10 5v-1l10-5z" fill="#f8ebcb"/><path d="m92 78-10 5v-1l10-5z" fill="#f8ebcb"/><path d="m62 75-10 5v-1l10-5z" fill="#f8ebcb"/><path d="m77 67.5-10 5v-1l10-5z" fill="#f8ebcb"/><path d="m92 60-10 5v-1l10-5z" fill="#f8ebcb"/><path d="m62 57-10 5v-1l10-5z" fill="#f8ebcb"/><path d="m77 49.5-10 5v-1l10-5z" fill="#f8ebcb"/><path d="m92 42-10 5v-1l10-5z" fill="#f8ebcb"/><path d="m48 104 48-24v-56l-48 24z" opacity=".39"/><path d="m48 48 48-24-48-24-48 24z" fill="#2d3134"/></svg>