<svg enable-background="new 0 0 192 168" viewBox="0 0 192 168" xmlns="http://www.w3.org/2000/svg"><path d="m128 168 64-32-128-64-64 32z" fill="#999"/><path d="m64 0-64 32v72l64 32 64-32v-72z" fill="#825012"/><path d="m64 108 4 26 34 17-11-36z" opacity=".3"/><path d="m128 47v57l-64 32v-57z" opacity=".29"/><path d="m187.5 118-14.5-40v.1l-45-28.1-64 32v26l20 10 20 38h48l22-11z" fill="#e5e5e5"/><g opacity=".1"><path d="m172.1 141.1c-.6.3-1.1 1-1.1 1.6s.5.8 1.1.5 1.1-1 1.1-1.6-.5-.8-1.1-.5z"/><path d="m162.7 144.4c.7-.4 1.3-1.2 1.3-1.9s-.6-1-1.3-.6-1.3 1.2-1.3 1.9.6 1 1.3.6z"/><path d="m169 134.7c.5-.2.9-.8.9-1.3s-.4-.7-.9-.4c-.5.2-.9.8-.9 1.3s.4.7.9.4z"/><path d="m163.3 109.4c0-.7-.6-1-1.3-.6s-1.3 1.2-1.3 1.9.6 1 1.3.6 1.3-1.2 1.3-1.9z"/><path d="m166.4 121.8c0-1.3-1.1-1.8-2.4-1.2s-2.4 2.3-2.4 3.6 1.1 1.8 2.4 1.2c1.3-.7 2.4-2.3 2.4-3.6z"/><path d="m162.1 132.6c0-.1-.1-.2-.2-.1s-.2.2-.2.3.1.2.2.1c.1 0 .2-.1.2-.3z"/><path d="m153.2 151.4c0-.1-.1-.2-.2-.1s-.2.2-.2.3.1.2.2.1c.1 0 .2-.1.2-.3z"/><path d="m174.8 115.6c-.4.2-.6.6-.6 1s.3.5.6.3c.4-.2.6-.6.6-1 .1-.3-.2-.4-.6-.3z"/><path d="m180.7 125.1c-.6.3-1.1 1-1.1 1.6s.5.8 1.1.5 1.1-1 1.1-1.6-.5-.8-1.1-.5z"/><path d="m155.4 114c0 .1.1.2.2.1s.2-.2.2-.3-.1-.2-.2-.1c-.1 0-.2.1-.2.3z"/><path d="m147.3 115.5c.7-.4 1.3-1.2 1.3-1.9s-.6-1-1.3-.6-1.3 1.2-1.3 1.9.6 1 1.3.6z"/><path d="m147.8 128.7c.7-.4 1.3-1.2 1.3-1.9s-.6-1-1.3-.6-1.3 1.2-1.3 1.9.5 1 1.3.6z"/><path d="m142.3 134.2c-.7.4-1.3 1.2-1.3 1.9s.6 1 1.3.6 1.3-1.2 1.3-1.9-.6-1-1.3-.6z"/><path d="m136.2 123.4c-.7.4-1.3 1.2-1.3 1.9s.6 1 1.3.6 1.3-1.2 1.3-1.9-.6-1-1.3-.6z"/><path d="m175.3 132.7c0-.6-.5-.8-1.1-.5s-1.1 1-1.1 1.6.5.8 1.1.5c.6-.2 1.1-1 1.1-1.6z"/><path d="m154.3 135.9c0-.6-.5-.8-1.1-.5s-1.1 1-1.1 1.6.5.8 1.1.5 1.1-1 1.1-1.6z"/><path d="m170.7 123.8c.7-.4 1.3-1.2 1.3-1.9s-.6-1-1.3-.6-1.3 1.2-1.3 1.9c0 .6.6.9 1.3.6z"/><path d="m169 137.7c-.4.2-.6.6-.6 1s.3.5.6.3c.4-.2.6-.6.6-1s-.2-.5-.6-.3z"/><path d="m154.9 124.7c-.6.3-1.1 1-1.1 1.6s.5.8 1.1.5 1.1-1 1.1-1.6c0-.5-.5-.8-1.1-.5z"/><path d="m167.2 106.2c0 .6.5.8 1.1.5s1.1-1 1.1-1.6-.5-.8-1.1-.5-1.1 1-1.1 1.6z"/><path d="m154.5 146.4c.5-.2.9-.8.9-1.3s-.4-.7-.9-.4c-.5.2-.9.8-.9 1.3 0 .4.4.6.9.4z"/><path d="m155.1 117.3c0-.7-.6-1-1.3-.6s-1.3 1.2-1.3 1.9.6 1 1.3.6c.7-.3 1.3-1.2 1.3-1.9z"/><path d="m166.8 113.8c-.2.1-.3.3-.3.5s.1.2.3.2c.2-.1.3-.3.3-.5s-.1-.3-.3-.2z"/><path d="m163.2 139.8c-.2.1-.3.3-.3.5s.1.2.3.2c.2-.1.3-.3.3-.5s-.2-.3-.3-.2z"/><path d="m166.8 116.9c0-.2-.2-.3-.4-.2s-.4.3-.4.5.2.3.4.2.4-.3.4-.5z"/><path d="m181.7 117.3c0-.2-.2-.3-.4-.2s-.4.3-.4.5.2.3.4.2c.2 0 .4-.3.4-.5z"/><path d="m150.3 130.9c0-.2-.2-.3-.4-.2s-.4.3-.4.5.2.3.4.2c.3 0 .4-.3.4-.5z"/><path d="m145.6 119.4c-.5.2-.9.8-.9 1.3s.4.7.9.4.9-.8.9-1.3-.4-.6-.9-.4z"/></g><g opacity=".1"><path d="m148.3 113.5c0 .7-.6 1.6-1.3 1.9-.2.1-.4.2-.6.1.2.1.6.1.9-.1.7-.4 1.3-1.2 1.3-1.9 0-.5-.3-.8-.7-.8.3.2.4.5.4.8z"/><path d="m154.8 117.2c0 .7-.6 1.6-1.3 1.9-.2.1-.4.2-.6.1.2.1.6.1.9-.1.7-.4 1.3-1.2 1.3-1.9 0-.5-.3-.8-.7-.8.3.2.4.4.4.8z"/><path d="m150 130.7v.1c0 .2-.2.4-.4.5 0 .1.2.2.3.1.2-.1.4-.3.4-.5s-.1-.2-.3-.2z"/><path d="m148.4 126c.2.1.4.4.4.7 0 .7-.6 1.6-1.3 1.9-.2.1-.4.2-.6.1.2.1.6.1.9-.1.7-.4 1.3-1.2 1.3-1.9 0-.4-.3-.7-.7-.7z"/><path d="m145.9 119.3c.1.1.2.2.2.4 0 .5-.4 1.1-.9 1.3-.1.1-.2.1-.3.1.2.1.4.1.7 0 .5-.2.9-.8.9-1.3 0-.3-.3-.5-.6-.5z"/><path d="m142.9 134c.2.1.4.4.4.7 0 .7-.6 1.6-1.3 1.9-.2.1-.4.2-.6.1.2.1.6.1.9-.1.7-.4 1.3-1.2 1.3-1.9 0-.4-.3-.7-.7-.7z"/><path d="m136.8 123.2c.2.1.4.4.4.7 0 .7-.6 1.6-1.3 1.9-.2.1-.4.2-.6.1.2.1.6.1.9-.1.7-.4 1.3-1.2 1.3-1.9 0-.4-.3-.7-.7-.7z"/><path d="m153.6 135.3c.2.1.3.3.3.6 0 .6-.5 1.3-1.1 1.6-.2.1-.3.1-.5.1.2.1.5.1.8 0 .6-.3 1.1-1 1.1-1.6.1-.5-.2-.8-.6-.7z"/><path d="m181.3 117.3c0 .2-.2.4-.4.5 0 .1.2.2.3.1.2-.1.4-.3.4-.5s-.2-.3-.4-.2c.1 0 .1 0 .1.1z"/><path d="m161.8 132.5c-.1.1-.2.2-.2.3s.1.2.2.1.2-.2.2-.3 0-.1-.2-.1z"/><path d="m169.1 105.1c0 .6-.5 1.3-1.1 1.6-.2.1-.3.1-.5.1.2.1.5.1.8 0 .6-.3 1.1-1 1.1-1.6 0-.4-.3-.7-.6-.7.2.1.3.3.3.6z"/><path d="m163.5 140c0-.2-.1-.2-.3-.2 0 .2-.1.3-.3.4 0 .1.1.2.3.1.1.1.3-.1.3-.3z"/><path d="m155.4 114c0 .1.1.2.2.1s.2-.2.2-.3-.1-.2-.2-.1c-.1 0-.2.1-.2.3z"/><path d="m163 109.3c0 .7-.6 1.6-1.3 1.9-.2.1-.4.2-.6.1.2.1.6.1.9-.1.7-.4 1.3-1.2 1.3-1.9 0-.5-.3-.8-.7-.8.2.2.4.4.4.8z"/><path d="m166.4 116.7v.1c0 .2-.2.4-.4.5 0 .1.2.2.3.1.2-.1.4-.3.4-.5.1-.2-.1-.3-.3-.2z"/><path d="m174.6 132.1c.2.1.3.3.3.6 0 .6-.5 1.3-1.1 1.6-.2.1-.3.1-.5.1.2.1.5.1.8 0 .6-.3 1.1-1 1.1-1.6.1-.5-.2-.7-.6-.7z"/><path d="m172.5 141c.2.1.3.3.3.6 0 .6-.5 1.3-1.1 1.6-.2.1-.3.1-.5.1.2.1.5.1.8 0 .6-.3 1.1-1 1.1-1.6.1-.5-.2-.7-.6-.7z"/><path d="m172 121.8c0-.5-.3-.8-.7-.8.2.1.4.4.4.7 0 .7-.6 1.6-1.3 1.9-.2.1-.4.2-.6.1.2.1.6.1.9-.1.7-.2 1.3-1.1 1.3-1.8z"/><path d="m175 115.6c.1.1.1.2.1.3 0 .4-.3.8-.6 1-.1 0-.1 0-.2.1.1.1.3.1.5 0 .4-.2.6-.6.6-1 .1-.3-.1-.5-.4-.4z"/><path d="m153 151.3c-.1.1-.2.2-.2.3s.1.2.2.1.2-.2.2-.3-.1-.1-.2-.1z"/><path d="m169.3 132.9c.1.1.2.2.2.4 0 .5-.4 1.1-.9 1.3-.1.1-.2.1-.3.1.2.1.4.1.7 0 .5-.2.9-.8.9-1.3 0-.3-.3-.5-.6-.5z"/><path d="m181.1 124.9c.2.1.3.3.3.6 0 .6-.5 1.3-1.1 1.6-.2.1-.3.1-.5.1.2.1.5.1.8 0 .6-.3 1.1-1 1.1-1.6.1-.4-.2-.7-.6-.7z"/><path d="m155.4 124.6c.2.1.3.3.3.6 0 .6-.5 1.3-1.1 1.6-.2.1-.3.1-.5.1.2.1.5.1.8 0 .6-.3 1.1-1 1.1-1.6 0-.5-.3-.7-.6-.7z"/><path d="m163.3 141.7c.2.1.4.4.4.7 0 .7-.6 1.6-1.3 1.9-.2.1-.4.2-.6.1.2.1.6.1.9-.1.7-.4 1.3-1.2 1.3-1.9 0-.4-.3-.7-.7-.7z"/><path d="m169.2 137.6c.1.1.1.2.1.3 0 .4-.3.8-.6 1-.1 0-.1 0-.2.1.1.1.3.1.5 0 .4-.2.6-.6.6-1 0-.3-.1-.4-.4-.4z"/><path d="m154.8 144.6c.1.1.2.2.2.4 0 .5-.4 1.1-.9 1.3-.1.1-.2.1-.3.1.2.1.4.1.7 0 .5-.2.9-.8.9-1.3-.1-.4-.3-.6-.6-.5z"/><path d="m165.2 120.4c.5.2.8.7.8 1.4 0 1.3-1.1 2.9-2.4 3.6-.5.2-.9.3-1.2.3.4.2 1 .1 1.6-.2 1.3-.7 2.4-2.3 2.4-3.6 0-.9-.5-1.5-1.2-1.5z"/><path d="m166.8 113.8s0 .1 0 0c0 .1 0 .1 0 0 0 .2-.1.4-.3.5 0 .1.1.2.3.1s.3-.3.3-.5-.1-.2-.3-.1z"/></g><path d="m144 97.5c-.6 0-1 .3-1 .6s.4.6 1 .6 1-.3 1-.6-.5-.6-1-.6zm2-4.1c-.8 0-1.5.4-1.5.9s.7.9 1.5.9 1.5-.4 1.5-.9-.7-.9-1.5-.9zm12.9 9.7c-.8 0-1.5.4-1.5.9s.7.9 1.5.9 1.5-.4 1.5-.9-.7-.9-1.5-.9zm-13.2-23.3c.7 0 1.3-.4 1.3-.8s-.6-.8-1.3-.8-1.3.4-1.3.8.6.8 1.3.8zm-26 24c0-.3-.3-.5-.8-.5-.4 0-.8.2-.8.5s.3.5.8.5.8-.2.8-.5zm20.5 6.7c-.4 0-.8.2-.8.5s.3.5.8.5.8-.2.8-.5-.3-.5-.8-.5zm-1.4-29.5c-1.5 0-2.8.8-2.8 1.7s1.2 1.7 2.8 1.7 2.8-.8 2.8-1.7-1.3-1.7-2.8-1.7zm-8.8-5.6c.8 0 1.5-.4 1.5-.9s-.7-.9-1.5-.9-1.5.4-1.5.9c0 .4.6.9 1.5.9zm-10.5 6.6c.6 0 1-.3 1-.6s-.4-.6-1-.6-1 .3-1 .6.4.6 1 .6zm2.5 6.3c.8 0 1.5-.4 1.5-.9s-.7-.9-1.5-.9-1.5.4-1.5.9.6.9 1.5.9zm11.2 10.2c-.4 0-.8.2-.8.5s.3.5.8.5c.4 0 .8-.2.8-.5s-.4-.5-.8-.5zm0-6.7c-.7 0-1.3.4-1.3.8s.6.8 1.3.8 1.3-.4 1.3-.8-.6-.8-1.3-.8zm-1 16.3c-.8 0-1.5.4-1.5.9s.7.9 1.5.9 1.5-.4 1.5-.9-.6-.9-1.5-.9zm12.3-37.1c0-.5-.7-.9-1.5-.9s-1.5.4-1.5.9.7.9 1.5.9 1.5-.4 1.5-.9zm16.2 11c1.5 0 2.8-.8 2.8-1.7s-1.2-1.7-2.8-1.7c-1.5 0-2.8.8-2.8 1.7s1.3 1.7 2.8 1.7zm-2.5 4.8c.1 0 .3-.1.3-.2s-.1-.2-.3-.2-.3.1-.3.2c.1.1.2.2.3.2zm7.8-1.3c.8 0 1.5-.4 1.5-.9s-.7-.9-1.5-.9-1.5.4-1.5.9.7.9 1.5.9zm-6 12.2c-.7 0-1.3.4-1.3.8s.6.8 1.3.8 1.3-.4 1.3-.8-.6-.8-1.3-.8zm-21.8-1.1c.1 0 .3-.1.3-.2s-.1-.2-.3-.2c-.1 0-.3.1-.3.2s.2.2.3.2zm25.8-8.9c-.6 0-1 .3-1 .6s.4.6 1 .6 1-.3 1-.6-.5-.6-1-.6zm-10.8 1c-.4 0-.8.2-.8.5s.3.5.8.5.8-.2.8-.5-.3-.5-.8-.5zm-12.5 15.6c0-.5-.7-.9-1.5-.9s-1.5.4-1.5.9.7.9 1.5.9 1.5-.4 1.5-.9zm12.5-28.9c-.7 0-1.3.4-1.3.8s.6.8 1.3.8 1.3-.4 1.3-.8-.6-.8-1.3-.8zm-.7 25.1c-.7 0-1.3.4-1.3.8s.6.8 1.3.8 1.3-.4 1.3-.8-.6-.8-1.3-.8zm.7-18.5c-.7 0-1.3.4-1.3.8s.6.8 1.3.8 1.3-.4 1.3-.8-.6-.8-1.3-.8zm-50.1 3.2c.8 0 1.5-.4 1.5-.9s-.7-.9-1.5-.9-1.5.4-1.5.9.7.9 1.5.9zm-29.4-.6c-.7 0-1.3.4-1.3.8s.6.8 1.3.8 1.3-.4 1.3-.8-.6-.8-1.3-.8zm16.6-9.6c-.7 0-1.3.4-1.3.8s.6.8 1.3.8 1.3-.4 1.3-.8-.6-.8-1.3-.8zm-.2 18.8c-.4 0-.8.2-.8.5s.3.5.8.5.8-.2.8-.5c-.1-.3-.4-.5-.8-.5zm-8.7-3.8c-.7 0-1.3.4-1.3.8s.6.8 1.3.8 1.3-.4 1.3-.8-.6-.8-1.3-.8zm22.2 3.1c-.8 0-1.5.4-1.5.9s.7.9 1.5.9 1.5-.4 1.5-.9-.7-.9-1.5-.9zm62.9.3c-.8 0-1.5.4-1.5.9s.7.9 1.5.9 1.5-.4 1.5-.9-.7-.9-1.5-.9zm-5.3-20.6c.4 0 .8-.2.8-.5l-.6-.4h-.1c-.4 0-.8.2-.8.5 0 .2.3.4.7.4zm-31.5 29.6c-.6 0-1 .3-1 .6s.4.6 1 .6 1-.3 1-.6-.4-.6-1-.6zm.8-19.8c0-.5-.7-.9-1.5-.9s-1.5.4-1.5.9.7.9 1.5.9c.8.1 1.5-.3 1.5-.9zm-4.5-13.6c-.6 0-1 .3-1 .6s.4.6 1 .6 1-.3 1-.6-.5-.6-1-.6zm-14.4 13c.8 0 1.5-.4 1.5-.9s-.7-.9-1.5-.9-1.5.4-1.5.9.7.9 1.5.9zm.5 7.3c0-.5-.7-.9-1.5-.9s-1.5.4-1.5.9.7.9 1.5.9 1.5-.4 1.5-.9zm13.4 6c-.8 0-1.5.4-1.5.9s.7.9 1.5.9 1.5-.4 1.5-.9-.7-.9-1.5-.9zm29.3 8c-.1 0-.2 0-.2.1s.1.1.2.1.2 0 .2-.1c0 0-.1-.1-.2-.1zm1.3-8.1c-.1 0-.3.1-.3.2s.1.2.3.2c.1 0 .3-.1.3-.2s-.2-.2-.3-.2zm-12.2-5.9c0 .1.2.3.4.3s.4-.1.4-.3c0-.1-.2-.3-.4-.3-.2.1-.4.2-.4.3zm-2.9 1.3c-.1 0-.3.1-.3.2s.1.2.3.2.3-.1.3-.2-.2-.2-.3-.2zm-25.1 2.1c-.2 0-.4.1-.4.3 0 .1.2.3.4.3s.4-.1.4-.3-.2-.3-.4-.3zm-9.7 9.9c-.2 0-.4.1-.4.3s.2.3.4.3.4-.1.4-.3-.2-.3-.4-.3zm6.1-8.3c0 .1.1.2.3.2s.3-.1.3-.2-.1-.2-.3-.2-.3.1-.3.2zm38.7 12.1c-.1 0-.2.1-.2.1 0 .1.1.1.2.1s.2-.1.2-.1-.1-.1-.2-.1zm-4-2.8c-.2 0-.3.1-.3.2s.1.2.3.2.3-.1.3-.2-.1-.2-.3-.2zm-24.8 5.9c-1.5 0-2.8.8-2.8 1.7s1.2 1.7 2.8 1.7 2.8-.8 2.8-1.7-1.2-1.7-2.8-1.7zm-9.9-10.3c0-.4-.6-.8-1.3-.8s-1.3.4-1.3.8.6.8 1.3.8 1.3-.4 1.3-.8zm-14.4-17.5c1.5 0 2.8-.8 2.8-1.7s-1.2-1.7-2.8-1.7c-1.5 0-2.8.8-2.8 1.7s1.2 1.7 2.8 1.7zm13.8 26.4c-.8 0-1.5.4-1.5.9s.7.9 1.5.9 1.5-.4 1.5-.9-.7-.9-1.5-.9zm-16.4-22c-.1 0-.3.1-.3.2s.1.2.3.2.3-.1.3-.2-.1-.2-.3-.2zm1.8 11.2c-.7 0-1.3.4-1.3.8s.6.8 1.3.8 1.3-.4 1.3-.8-.6-.8-1.3-.8zm4-9.9c-.6 0-1 .3-1 .6s.4.6 1 .6 1-.3 1-.6-.4-.6-1-.6zm6.5-11.7c-.6 0-1 .3-1 .6s.4.6 1 .6 1-.3 1-.6-.4-.6-1-.6z" opacity=".1"/><path d="m111 98.4c-.7 0-1.3.4-1.3.8 0 .1 0 .1.1.2.1-.4.6-.6 1.2-.6s1.1.3 1.2.6c0-.1.1-.1.1-.2 0-.4-.6-.8-1.3-.8z" opacity=".1"/><path d="m110.6 88.7c.7 0 1.3.3 1.5.8 0-.1 0-.1 0-.2 0-.5-.7-.9-1.5-.9s-1.5.4-1.5.9v.2c.2-.5.8-.8 1.5-.8z" opacity=".1"/><path d="m103.1 83.6c.7 0 1.3.3 1.5.8 0-.1 0-.1 0-.2 0-.5-.7-.9-1.5-.9s-1.5.4-1.5.9v.2c.2-.5.8-.8 1.5-.8z" opacity=".1"/><path d="m112.6 94.2c-.1 0-.3.1-.3.2s.1.2.3.2 0 0 0 0c.1 0 .3-.1.3-.2-.1-.2-.2-.2-.3-.2z" opacity=".1"/><path d="m119 103.7c.3 0 .6.1.7.3 0-.1.1-.1.1-.2 0-.3-.3-.5-.8-.5-.4 0-.8.2-.8.5 0 .1 0 .1.1.2.1-.2.3-.3.7-.3z" opacity=".1"/><path d="m111.6 80.4c.7 0 1.3.3 1.5.8 0-.1 0-.1 0-.2 0-.5-.7-.9-1.5-.9s-1.5.4-1.5.9v.2c.2-.4.8-.8 1.5-.8z" opacity=".1"/><path d="m90.3 75c-.7 0-1.3.4-1.3.8 0 .1 0 .1.1.2.1-.4.6-.6 1.2-.6s1.1.3 1.2.6c0-.1.1-.1.1-.2 0-.4-.6-.8-1.3-.8z" opacity=".1"/><path d="m100.1 88c0 .1 0 .1.1.2.1-.3.5-.5.9-.5.5 0 .8.2.9.5 0-.1.1-.1.1-.2 0-.3-.4-.6-1-.6-.5 0-1 .3-1 .6z" opacity=".1"/><path d="m90.1 93.8c-.4 0-.8.2-.8.5 0 .1 0 .1.1.2.1-.2.4-.3.7-.3s.6.1.7.3c0-.1.1-.1.1-.2-.1-.3-.4-.5-.8-.5z" opacity=".1"/><ellipse cx="95.3" cy="86.3" opacity=".1" rx=".3" ry=".2"/><path d="m119.5 81.1c.5 0 .8.2.9.5 0-.1.1-.1.1-.2 0-.3-.4-.6-1-.6s-1 .3-1 .6c0 .1 0 .1.1.2 0-.3.4-.5.9-.5z" opacity=".1"/><path d="m81.4 90c-.7 0-1.3.4-1.3.8 0 .1 0 .1.1.2.1-.4.6-.6 1.2-.6s1.1.3 1.2.6c0-.1.1-.1.1-.2 0-.4-.6-.8-1.3-.8z" opacity=".1"/><path d="m97.1 97.3c-.7 0-1.3.4-1.3.8 0 .1 0 .1.1.2.1-.4.6-.6 1.2-.6s1.1.3 1.2.6c0-.1.1-.1.1-.2 0-.4-.6-.8-1.3-.8z" opacity=".1"/><path d="m73.7 84.6c-.7 0-1.3.4-1.3.8 0 .1 0 .1.1.2.1-.4.6-.6 1.2-.6s1.1.3 1.2.6c0-.1.1-.1.1-.2-.1-.4-.6-.8-1.3-.8z" opacity=".1"/><path d="m97.9 78.5c1.4 0 2.6.7 2.7 1.6 0-.1 0-.1 0-.2 0-1-1.2-1.7-2.8-1.7-1.5 0-2.8.8-2.8 1.7v.2c.3-.9 1.4-1.6 2.9-1.6z" opacity=".1"/><path d="m163 88.3c0 .1 0 .1.1.2.1-.3.5-.5.9-.5s.8.2.9.5c0-.1.1-.1.1-.2 0-.3-.4-.6-1-.6s-1 .3-1 .6z" opacity=".1"/><ellipse cx="158.2" cy="86.6" opacity=".1" rx=".3" ry=".2"/><path d="m160.7 78.9c1.4 0 2.6.7 2.7 1.6 0-.1 0-.1 0-.2 0-1-1.2-1.7-2.8-1.7-1.5 0-2.8.8-2.8 1.7v.2c.4-.9 1.5-1.6 2.9-1.6z" opacity=".1"/><path d="m161.2 72.2h.1l.5.4c.1-.1.1-.1.1-.2l-.6-.4h-.1c-.4 0-.8.2-.8.5 0 .1 0 .1.1.2.2-.3.4-.5.7-.5z" opacity=".1"/><path d="m166 83.9c.7 0 1.3.3 1.5.8 0-.1 0-.1 0-.2 0-.5-.7-.9-1.5-.9s-1.5.4-1.5.9v.2c.1-.4.8-.8 1.5-.8z" opacity=".1"/><path d="m165 94.3v.2c.1-.4.7-.8 1.5-.8.7 0 1.3.3 1.5.8 0-.1 0-.1 0-.2 0-.5-.7-.9-1.5-.9s-1.5.4-1.5.9z" opacity=".1"/><path d="m144.3 89.1c-.2 0-.4.1-.4.3 0 .1 0 .1.1.2.1-.1.2-.1.3-.1s.2 0 .3.1c.1 0 .1-.1.1-.2 0-.2-.1-.3-.4-.3z" opacity=".1"/><path d="m129.7 102.4c-.6 0-1 .3-1 .6 0 .1 0 .1.1.2.1-.3.5-.5.9-.5.5 0 .8.2.9.5 0-.1.1-.1.1-.2 0-.3-.4-.6-1-.6z" opacity=".1"/><path d="m130 73.8c.7 0 1.3.3 1.5.8 0-.1 0-.1 0-.2 0-.5-.7-.9-1.5-.9s-1.5.4-1.5.9v.2c.1-.5.7-.8 1.5-.8z" opacity=".1"/><path d="m129 82c.7 0 1.3.3 1.5.8 0-.1 0-.1 0-.2 0-.5-.7-.9-1.5-.9s-1.5.4-1.5.9v.2c.1-.4.7-.8 1.5-.8z" opacity=".1"/><path d="m143 70.4c.7 0 1.3.3 1.5.8 0-.1 0-.1 0-.2 0-.5-.7-.9-1.5-.9s-1.5.4-1.5.9v.2c.2-.5.8-.8 1.5-.8z" opacity=".1"/><path d="m144.5 79.2c.1-.4.6-.6 1.2-.6s1.1.3 1.2.6c0-.1.1-.1.1-.2 0-.4-.6-.8-1.3-.8s-1.3.4-1.3.8c.1.1.1.1.1.2z" opacity=".1"/><path d="m120.5 87.6c.1-.4.7-.8 1.5-.8s1.3.3 1.5.8c0-.1 0-.1 0-.2 0-.5-.7-.9-1.5-.9s-1.5.4-1.5.9z" opacity=".1"/><path d="m152.5 100.5c-.7 0-1.3.4-1.3.8 0 .1 0 .1.1.2.1-.4.6-.6 1.2-.6s1.1.3 1.2.6c0-.1.1-.1.1-.2-.1-.4-.6-.8-1.3-.8z" opacity=".1"/><path d="m146 93.4c-.8 0-1.5.4-1.5.9v.2c.1-.4.7-.8 1.5-.8s1.3.3 1.5.8c0-.1 0-.1 0-.2 0-.5-.7-.9-1.5-.9z" opacity=".1"/><path d="m147 103.6c-.2 0-.3.1-.3.2s.1.1.2.2h.1s.1 0 .1 0c.1 0 .2-.1.2-.2s-.1-.2-.3-.2z" opacity=".1"/><ellipse cx="151" cy="106.5" opacity=".1" rx=".2" ry=".1"/><path d="m138.8 81c-1.5 0-2.8.8-2.8 1.7v.2c.1-.9 1.3-1.6 2.7-1.6s2.6.7 2.7 1.6c0-.1 0-.1 0-.2.1-.9-1.1-1.7-2.6-1.7z" opacity=".1"/><path d="m103.6 93.1c-.8 0-1.5.4-1.5.9v.2c.1-.4.7-.8 1.5-.8s1.3.3 1.5.8c0-.1 0-.1 0-.2 0-.5-.7-.9-1.5-.9z" opacity=".1"/><path d="m144 97.5c-.6 0-1 .3-1 .6 0 .1 0 .1.1.2.1-.3.5-.5.9-.5s.8.2.9.5c0-.1.1-.1.1-.2 0-.3-.5-.6-1-.6z" opacity=".1"/><path d="m141 90.6c-.1 0-.3.1-.3.2s.1.2.3.2 0 0 0 0c.1 0 .3-.1.3-.2s-.2-.2-.3-.2z" opacity=".1"/><path d="m158.9 103.1c-.8 0-1.5.4-1.5.9v.2c.1-.4.7-.8 1.5-.8s1.3.3 1.5.8c0-.1 0-.1 0-.2 0-.4-.7-.9-1.5-.9z" opacity=".1"/><path d="m156.1 95.2c-.1 0-.3.1-.3.2s.1.2.3.2 0 0 0 0c.1 0 .3-.1.3-.2-.1-.2-.2-.2-.3-.2z" opacity=".1"/><path d="m160 97.7c-.7 0-1.3.4-1.3.8 0 .1 0 .1.1.2.1-.4.6-.6 1.2-.6s1.1.3 1.2.6c0-.1.1-.1.1-.2-.1-.5-.6-.8-1.3-.8z" opacity=".1"/><path d="m153.2 82c-.7 0-1.3.4-1.3.8 0 .1 0 .1.1.2.1-.4.6-.6 1.2-.6s1.1.3 1.2.6c0-.1.1-.1.1-.2 0-.4-.6-.8-1.3-.8z" opacity=".1"/><ellipse cx="154.8" cy="103.4" opacity=".1" rx=".2" ry=".1"/><path d="m153.2 75.4c-.7 0-1.3.4-1.3.8 0 .1 0 .1.1.2.1-.4.6-.6 1.2-.6s1.1.3 1.2.6c0-.1.1-.1.1-.2 0-.5-.6-.8-1.3-.8z" opacity=".1"/><path d="m153.2 88.7c-.4 0-.8.2-.8.5 0 .1 0 .1.1.2.1-.2.4-.3.7-.3s.6.1.7.3c0-.1.1-.1.1-.2 0-.3-.3-.5-.8-.5z" opacity=".1"/><path d="m111.7 108.1c-.8 0-1.5.4-1.5.9v.2c.1-.4.7-.8 1.5-.8.7 0 1.3.3 1.5.8 0-.1 0-.1 0-.2 0-.5-.7-.9-1.5-.9z" opacity=".1"/><path d="m115.9 92.7c-.2 0-.4.1-.4.3 0 .1 0 .1.1.2.1-.1.2-.1.3-.1s.2 0 .3.1c.1 0 .1-.1.1-.2 0-.2-.2-.3-.4-.3z" opacity=".1"/><path d="m122.2 109.5c-1.5 0-2.8.8-2.8 1.7v.2c.1-.9 1.3-1.6 2.7-1.6s2.6.7 2.7 1.6c0-.1 0-.1 0-.2.2-.9-1-1.7-2.6-1.7z" opacity=".1"/><path d="m140.2 110.5c-.4 0-.8.2-.8.5 0 .1 0 .1.1.2.1-.2.4-.3.7-.3s.6.1.7.3c0-.1.1-.1.1-.2 0-.3-.3-.5-.8-.5z" opacity=".1"/><path d="m106.2 102.6c-.2 0-.4.1-.4.3 0 .1 0 .1.1.2.1-.1.2-.1.3-.1s.2 0 .3.1c.1 0 .1-.1.1-.2 0-.2-.2-.3-.4-.3z" opacity=".1"/><path d="m125.5 95.3c-.8 0-1.5.4-1.5.9v.2c.1-.4.7-.8 1.5-.8.7 0 1.3.3 1.5.8 0-.1 0-.1 0-.2 0-.5-.7-.9-1.5-.9z" opacity=".1"/><path d="m107.6 75.7c-.6 0-1 .3-1 .6 0 .1 0 .1.1.2.1-.3.5-.5.9-.5s.8.2.9.5c0-.1.1-.1.1-.2 0-.3-.4-.6-1-.6z" opacity=".1"/><path d="m133.2 91.8c-.7 0-1.3.4-1.3.8 0 .1 0 .1.1.2.1-.4.6-.6 1.2-.6s1.1.3 1.2.6c0-.1.1-.1.1-.2 0-.4-.6-.8-1.3-.8z" opacity=".1"/><path d="m139.2 103.4c-.8 0-1.5.4-1.5.9v.2c.1-.4.7-.8 1.5-.8s1.3.3 1.5.8c0-.1 0-.1 0-.2 0-.5-.6-.9-1.5-.9z" opacity=".1"/><ellipse cx="138.2" cy="96.4" opacity=".1" rx=".3" ry=".2"/><path d="m132.2 108.1c-.8 0-1.5.4-1.5.9v.2c.1-.4.7-.8 1.5-.8.7 0 1.3.3 1.5.8 0-.1 0-.1 0-.2 0-.5-.6-.9-1.5-.9z" opacity=".1"/><path d="m133.2 98.5c-.4 0-.8.2-.8.5 0 .1 0 .1.1.2.1-.2.4-.3.7-.3s.6.1.7.3c0-.1.1-.1.1-.2 0-.3-.4-.5-.8-.5z" opacity=".1"/><path d="m126 69c-.6 0-1 .3-1 .6 0 .1 0 .1.1.2.1-.3.5-.5.9-.5.5 0 .8.2.9.5 0-.1.1-.1.1-.2 0-.3-.5-.6-1-.6z" opacity=".1"/><path d="m91 98 63.2-31.6-26.2-16.4-64 32z" opacity=".4"/><path d="m128 32-64 32v16l28 14 64-32v-16z" fill="#825012"/><path d="m99.1 106.7c.7.3 1.2.1 1.2-.6s-.5-1.5-1.2-1.8-1.2-.1-1.2.6.5 1.5 1.2 1.8zm-31.5-12.5c.7.3 1.2.1 1.2-.6s-.5-1.5-1.2-1.8-1.2-.1-1.2.6.5 1.5 1.2 1.8zm25 23.5c-.7-.3-1.2-.1-1.2.6s.5 1.5 1.2 1.8 1.2.1 1.2-.6-.5-1.5-1.2-1.8zm-.4-12.6c.7.3 1.2.1 1.2-.6s-.5-1.5-1.2-1.8-1.2-.1-1.2.6.5 1.4 1.2 1.8zm7 35.2c-.7-.3-1.2-.1-1.2.6s.5 1.5 1.2 1.8 1.2.1 1.2-.6-.5-1.5-1.2-1.8zm4.9 3.5c-.2-.1-.3 0-.3.1s.1.4.3.4c.2.1.3 0 .3-.1s-.1-.3-.3-.4zm9.3-21.6c-.2-.1-.3 0-.3.1 0 .2.1.4.3.4.2.1.3 0 .3-.1s-.2-.3-.3-.4zm-17.4 9.8c-.6-.3-1-.1-1 .5s.5 1.2 1 1.5c.6.3 1 .1 1-.5s-.4-1.3-1-1.5zm.3-12.4c-.6-.3-1-.1-1 .5s.5 1.2 1 1.5c.6.3 1 .1 1-.5s-.4-1.3-1-1.5zm-30.8-17.5c-.6-.3-1-.1-1 .5s.5 1.2 1 1.5 1 .1 1-.5-.4-1.2-1-1.5zm21.8 18.4c-.6-.3-1-.1-1 .5s.5 1.2 1 1.5c.6.3 1 .1 1-.5 0-.5-.4-1.2-1-1.5zm-17.7-10.6c-.1-.1-.2 0-.2.1s.1.2.2.3.2 0 .2-.1c0-.2-.1-.3-.2-.3zm6.3-.6c-.7-.3-1.2-.1-1.2.6s.5 1.5 1.2 1.8 1.2.1 1.2-.6-.5-1.4-1.2-1.8zm-6.7-11c-1.2-.7-2.2-.2-2.2 1.1s1 2.7 2.2 3.4c1.2.6 2.2.1 2.2-1.1.1-1.3-.9-2.8-2.2-3.4zm15.5-1.8c-.6-.3-1-.1-1 .5s.5 1.2 1 1.5c.6.3 1 .1 1-.5s-.4-1.3-1-1.5zm-2.9 9.7c-.3-.2-.6 0-.6.3s.3.7.6.9.6 0 .6-.3-.3-.7-.6-.9zm-7.8-.7c-.1-.1-.2 0-.2.1s.1.2.2.3.2 0 .2-.1-.1-.2-.2-.3zm7.8-7.9c-.6-.3-1-.1-1 .5s.5 1.2 1 1.5c.6.3 1 .1 1-.5 0-.5-.4-1.2-1-1.5zm13.5 10c0-.4-.4-1-.8-1.2s-.8 0-.8.4.4 1 .8 1.2.8 0 .8-.4zm8.8 19.4c.3.2.6 0 .6-.3s-.3-.7-.6-.9-.6 0-.6.3.2.7.6.9zm12.6 1.1c-.6-.3-1-.1-1 .5s.5 1.2 1 1.5c.6.3 1 .1 1-.5 0-.5-.5-1.2-1-1.5zm-3.5-14.7c-.7-.3-1.2-.1-1.2.6s.5 1.5 1.2 1.8 1.2.1 1.2-.6-.5-1.5-1.2-1.8zm-1.6 17.9c0-.7-.5-1.5-1.2-1.8s-1.2-.1-1.2.6.5 1.5 1.2 1.8c.6.3 1.2 0 1.2-.6zm-6.1-23c-.4-.2-.8 0-.8.4s.4 1 .8 1.2.8 0 .8-.4-.4-1-.8-1.2zm6.4 29.3c-.4-.2-.8 0-.8.4s.4 1 .8 1.2.8 0 .8-.4-.3-.9-.8-1.2zm-4.4-21c-.7-.3-1.2-.1-1.2.6s.5 1.5 1.2 1.8 1.2.1 1.2-.6-.5-1.5-1.2-1.8zm-2.8 22.4c-.3-.2-.6 0-.6.3s.3.7.6.9.6 0 .6-.3-.3-.7-.6-.9zm15.3-18.2c-1.2-.6-2.2-.1-2.2 1.1s1 2.7 2.2 3.4c1.2.6 2.2.1 2.2-1.1 0-1.3-1-2.8-2.2-3.4zm-17.1 27.1c-.1-.1-.2 0-.2.1s.1.2.2.3.2 0 .2-.1-.1-.2-.2-.3z" opacity=".1"/><path d="m92.2 105.1c.2.1.3.1.5.1-.7-.3-1.2-1.1-1.2-1.8 0-.5.3-.8.8-.7-.7-.3-1.2-.1-1.2.6s.4 1.4 1.1 1.8z" opacity=".1"/><path d="m75.2 110.1c0-.5.3-.8.8-.7-.7-.3-1.2-.1-1.2.6s.5 1.5 1.2 1.8c.2.1.3.1.5.1-.8-.3-1.3-1.1-1.3-1.8z" opacity=".1"/><path d="m74 105.5c-.1-.1-.2 0-.2.1s.1.2.2.3.2 0 .2-.1-.1-.2-.2-.3z" opacity=".1"/><path d="m81.7 106.7c0-.2.1-.3.3-.4-.1 0-.1-.1-.2-.1-.3-.2-.6 0-.6.3s.3.7.6.9c.1.1.2.1.3.1-.2-.2-.4-.6-.4-.8z" opacity=".1"/><path d="m86.8 121.2c0-.4.2-.6.6-.6 0 0 0 0-.1-.1-.6-.3-1-.1-1 .5s.5 1.2 1 1.5c.2.1.3.1.4.1-.5-.2-.9-.9-.9-1.4z" opacity=".1"/><path d="m69.6 109.9c-.1-.1-.2 0-.2.1s.1.2.2.3.2 0 .2-.1c0-.2-.1-.3-.2-.3z" opacity=".1"/><path d="m84.2 97.1c0-.4.2-.6.6-.6 0 0 0 0-.1-.1-.6-.3-1-.1-1 .5s.5 1.2 1 1.5c.2.1.3.1.4.1-.5-.2-.9-.8-.9-1.4z" opacity=".1"/><path d="m65 102.8c0-.4.2-.6.6-.6 0 0 0 0-.1-.1-.6-.3-1-.1-1 .5s.5 1.2 1 1.5c.2.1.3.1.4.1-.5-.2-.9-.9-.9-1.4z" opacity=".1"/><path d="m69.7 102.9c-1.2-.6-2.2-2.1-2.2-3.4 0-1 .7-1.5 1.6-1.3-1.2-.5-2.1 0-2.1 1.2s1 2.7 2.2 3.4c.2.1.4.2.6.2 0-.1 0-.1-.1-.1z" opacity=".1"/><path d="m104.1 127c.1.1.2.1.3.1-.3-.2-.4-.5-.4-.8 0-.2.1-.3.3-.4-.1 0-.1-.1-.2-.1-.3-.2-.6 0-.6.3s.2.7.6.9z" opacity=".1"/><path d="m113.2 115.8c.2.1.3.1.5.1-.7-.3-1.2-1.1-1.2-1.8 0-.5.3-.8.8-.7-.7-.3-1.2-.1-1.2.6s.4 1.5 1.1 1.8z" opacity=".1"/><path d="m104.5 139.5c0-.2.1-.3.3-.4-.1 0-.1-.1-.2-.1-.3-.2-.6 0-.6.3s.3.7.6.9c.1.1.2.1.3.1-.2-.2-.4-.6-.4-.8z" opacity=".1"/><path d="m95.3 120.1c0 .6.5 1.2 1 1.5.2.1.3.1.4.1-.5-.3-.9-.9-.9-1.5 0-.4.2-.6.6-.6 0 0 0 0-.1-.1-.5-.2-1 0-1 .6z" opacity=".1"/><path d="m67.6 94.2c.2.1.3.1.5.1-.7-.3-1.2-1.1-1.2-1.8 0-.5.3-.8.8-.7-.7-.3-1.2-.1-1.2.6s.4 1.5 1.1 1.8z" opacity=".1"/><path d="m81.8 99.7c.2.1.3.1.4.1-.5-.3-.9-.9-.9-1.5 0-.4.2-.6.6-.6 0 0 0 0-.1-.1-.6-.3-1-.1-1 .5s.4 1.3 1 1.6z" opacity=".1"/><path d="m109.6 130.2c0-.5.3-.8.8-.7-.7-.3-1.2-.1-1.2.6s.5 1.5 1.2 1.8c.2.1.3.1.5.1-.7-.3-1.3-1.1-1.3-1.8z" opacity=".1"/><path d="m106.8 117.4c0-.5.3-.8.8-.7-.7-.3-1.2-.1-1.2.6s.5 1.5 1.2 1.8c.2.1.3.1.5.1-.8-.4-1.3-1.2-1.3-1.8z" opacity=".1"/><path d="m111.6 138.2c0-.3.2-.5.4-.5 0 0-.1-.1-.1-.1-.4-.2-.8 0-.8.4s.4 1 .8 1.2c.1.1.3.1.4.1-.4-.2-.7-.7-.7-1.1z" opacity=".1"/><path d="m116.2 128.8c0-.4.2-.6.6-.6 0 0 0 0-.1-.1-.6-.3-1-.1-1 .5s.5 1.2 1 1.5c.2.1.3.1.4.1-.5-.3-.9-.9-.9-1.4z" opacity=".1"/><path d="m113.6 122.5c0-.2-.1-.3-.2-.3-.2-.1-.3 0-.3.1 0 .2.1.4.3.4.1.1.2 0 .3-.1-.1.1-.1 0-.1-.1z" opacity=".1"/><path d="m120.5 125.4c-1.2-.6-2.2-2.1-2.2-3.4 0-1 .7-1.5 1.6-1.3-1.2-.5-2.1 0-2.1 1.2s1 2.7 2.2 3.4c.2.1.4.2.6.2 0-.1-.1-.1-.1-.1z" opacity=".1"/><path d="m105.2 108.8c0-.3.2-.5.4-.5 0 0-.1-.1-.1-.1-.4-.2-.8 0-.8.4s.4 1 .8 1.2c.1.1.3.1.4.1-.4-.2-.7-.6-.7-1.1z" opacity=".1"/><path d="m98.5 141.1c0-.5.3-.8.8-.7-.7-.3-1.2-.1-1.2.6s.5 1.5 1.2 1.8c.2.1.3.1.5.1-.8-.4-1.3-1.2-1.3-1.8z" opacity=".1"/><path d="m95.5 132.6c0-.4.2-.6.6-.6 0 0 0 0-.1-.1-.6-.3-1-.1-1 .5s.5 1.2 1 1.5c.2.1.3.1.4.1-.5-.2-.9-.8-.9-1.4z" opacity=".1"/><path d="m94.2 106.9c0-.3.2-.5.4-.5 0 0-.1-.1-.1-.1-.4-.2-.8 0-.8.4s.4 1 .8 1.2c.1.1.3.1.4.1-.4-.2-.7-.7-.7-1.1z" opacity=".1"/><path d="m99.1 106.7c.2.1.3.1.5.1-.7-.3-1.2-1.1-1.2-1.8 0-.5.3-.8.8-.7-.7-.3-1.2-.1-1.2.6s.4 1.5 1.1 1.8z" opacity=".1"/><path d="m91.9 118.5c0-.5.3-.8.8-.7-.7-.3-1.2-.1-1.2.6s.5 1.5 1.2 1.8c.2.1.3.1.5.1-.8-.4-1.3-1.2-1.3-1.8z" opacity=".1"/><path d="m102.9 147.9c-.1-.1-.2 0-.2.1s.1.2.2.3.2 0 .2-.1-.1-.2-.2-.3z" opacity=".1"/><path d="m104.3 144.1c0-.2-.1-.3-.2-.3-.2-.1-.3 0-.3.1s.1.4.3.4c.1.1.2 0 .3-.1 0 0-.1-.1-.1-.1z" opacity=".1"/><g fill="#d8d8d8" opacity=".3"><path d="m109 69.5-1 .5v16l1-.5z"/><path d="m112 68-1 .5v16l1-.5z"/><path d="m118 65-1 .5v16l1-.5z"/><path d="m115 66.5-1 .5v16l1-.5z"/><path d="m106 71-1 .5v16l1-.5z"/><path d="m103 72.5-1 .5v16l1-.5z"/><path d="m97 75.5-1 .5v16l1-.5z"/><path d="m154 47-1 .5v16l1-.5z"/><path d="m93 93.5 1-.5v-16l-1 .5z"/><path d="m100 74-1 .5v16l1-.5z"/><path d="m121 63.5-1 .5v16l1-.5z"/><path d="m145 51.5-1 .5v16l1-.5z"/><path d="m139 54.5-1 .5v16l1-.5z"/><path d="m142 53-1 .5v16l1-.5z"/><path d="m148 50-1 .5v16l1-.5z"/><path d="m151 48.5-1 .5v16l1-.5z"/><path d="m130 59-1 .5v16l1-.5z"/><path d="m124 62-1 .5v16l1-.5z"/><path d="m136 56-1 .5v16l1-.5z"/><path d="m127 60.5-1 .5v16l1-.5z"/><path d="m133 57.5-1 .5v16l1-.5z"/></g><g fill="#d8d8d8" opacity=".3"><path d="m6 35-1-.5v72l1 .5z"/><path d="m90 77-1-.5v16l1 .5z"/><path d="m18 41-1-.5v72l1 .5z"/><path d="m15 39.5-1-.5v72l1 .5z"/><path d="m9 36.5-1-.5v72l1 .5z"/><path d="m87 75.5-1-.5v16l1 .5z"/><path d="m12 38-1-.5v72l1 .5z"/><path d="m2 105 1 .5v-72l-1-.5z"/><path d="m65 80.5 1 .5v-16l-1-.5z"/><path d="m69 66.5-1-.5v16l1 .5z"/><path d="m72 68-1-.5v16l1 .5z"/><path d="m75 69.5-1-.5v16l1 .5z"/><path d="m84 74-1-.5v16l1 .5z"/><path d="m81 72.5-1-.5v16l1 .5z"/><path d="m78 71-1-.5v16l1 .5z"/><path d="m57 60.5-1-.5v72l1 .5z"/><path d="m42 53-1-.5v72l1 .5z"/><path d="m48 56-1-.5v72l1 .5z"/><path d="m21 42.5-1-.5v72l1 .5z"/><path d="m51 57.5-1-.5v72l1 .5z"/><path d="m63 63.5-1-.5v72l1 .5z"/><path d="m54 59-1-.5v72l1 .5z"/><path d="m60 62-1-.5v72l1 .5z"/><path d="m45 54.5-1-.5v72l1 .5z"/><path d="m39 51.5-1-.5v72l1 .5z"/><path d="m30 47-1-.5v72l1 .5z"/><path d="m24 44-1-.5v72l1 .5z"/><path d="m27 45.5-1-.5v72l1 .5z"/><path d="m33 48.5-1-.5v72l1 .5z"/><path d="m36 50-1-.5v72l1 .5z"/></g><path d="m156 46v16l-64 32v-16z" opacity=".29"/><path d="m64 64-64-32v72l64 32v-56l28 14v-16z" opacity=".11"/><path d="m186.6 116.6-13.5-37.2-4.6 22.3z" fill="#39c"/><path d="m186.6 116.6-15.9-24.8-1.9 9.9z" opacity=".15"/><path d="m173.3 81.6 12.1 33.3-16.2-13.3zm-.3-3.6-5 24 19.5 16z" fill="#fff"/><path d="m105.4 155h45.2l-22.6-32z" fill="#39c"/><path d="m150.6 155-22.6-32-2.4 3.6z" opacity=".15"/><path d="m128 123.7 22.1 31.3h-44.1zm0-1.7-24 34h48z" fill="#fff"/><path d="m128 123.7-.7 1 20.8 29.6h-41.7l-.5.7h44.2z" opacity=".15"/><path d="m138.1 140-10.1 14.3-10.1-14.3zm1.9-1h-24l12 17z" fill="#fff"/><path d="m128 122-64-40v26l20 10 20 38z" opacity=".11"/><path d="m128 122 17.6 25 6.4 9 22-11 13.5-27-19.5-16z" opacity=".29"/><path d="m172.4 91.7 6.2 6.4-2 7.9zm-1.6-2.7 5.9 19.9 2.8-11z" fill="#fff"/><path d="m150 155-16-9-5.7-6.7-9.2-3.2 13.9 12.9z" fill="#fff" opacity=".2"/><path d="m113 146-3 4 28 5z" opacity=".15"/><path d="m187.5 118-14.5-40-5 24z" opacity=".25"/><path d="m104 156h48l-24-34z" opacity=".25"/></svg>