<svg enable-background="new 0 0 224 168" viewBox="0 0 224 168" xmlns="http://www.w3.org/2000/svg"><path d="m224 24-48-24-176 88v8l48 24 176-88z" fill="#2d3134"/><path d="m132 142 10-5-10-5z" fill="#999"/><path d="m147 135 10-5-10-5z" fill="#999"/><path d="m162 127 10-5-10-5z" fill="#999"/><path d="m132 142 10-5-10-5z" fill="#999"/><path d="m147 135 10-5-10-5z" fill="#999"/><path d="m162 127 10-5-10-5z" fill="#999"/><path d="m132 140 10-5-10-5z" opacity=".3"/><path d="m147 133 10-5-10-5z" opacity=".3"/><path d="m162 125 10-5-10-5z" opacity=".3"/><path d="m0 144 48 24v-56l-48-24z" fill="#762c07"/><g fill="#baa794" opacity=".5"><path d="m4 143-3-1.5v2l3 1.5z"/><path d="m8 145-3-1.5v2l3 1.5z"/><path d="m12 147-3-1.5v2l3 1.5z"/><path d="m16 149-3-1.5v2l3 1.5z"/><path d="m20 151-3-1.5v2l3 1.5z"/><path d="m24 153-3-1.5v2l3 1.5z"/><path d="m28 155-3-1.5v2l3 1.5z"/><path d="m32 157-3-1.5v2l3 1.5z"/><path d="m36 159-3-1.5v2l3 1.5z"/><path d="m40 161-3-1.5v2l3 1.5z"/><path d="m44 163-3-1.5v2l3 1.5z"/><path d="m48 165-3-1.5v2l3 1.5z"/><path d="m2 139-2-1v2l2 1z"/><path d="m6 141-3-1.5v2l3 1.5z"/><path d="m10 143-3-1.5v2l3 1.5z"/><path d="m14 145-3-1.5v2l3 1.5z"/><path d="m18 147-3-1.5v2l3 1.5z"/><path d="m22 149-3-1.5v2l3 1.5z"/><path d="m26 151-3-1.5v2l3 1.5z"/><path d="m30 153-3-1.5v2l3 1.5z"/><path d="m34 155-3-1.5v2l3 1.5z"/><path d="m38 157-3-1.5v2l3 1.5z"/><path d="m42 159-3-1.5v2l3 1.5z"/><path d="m46 161-3-1.5v2l3 1.5z"/><path d="m48 162-1-.5v2l1 .5z"/><path d="m4 137-3-1.5v2l3 1.5z"/><path d="m8 139-3-1.5v2l3 1.5z"/><path d="m12 141-3-1.5v2l3 1.5z"/><path d="m16 143-3-1.5v2l3 1.5z"/><path d="m20 145-3-1.5v2l3 1.5z"/><path d="m24 147-3-1.5v2l3 1.5z"/><path d="m28 149-3-1.5v2l3 1.5z"/><path d="m32 151-3-1.5v2l3 1.5z"/><path d="m36 153-3-1.5v2l3 1.5z"/><path d="m40 155-3-1.5v2l3 1.5z"/><path d="m44 157-3-1.5v2l3 1.5z"/><path d="m48 159-3-1.5v2l3 1.5z"/><path d="m2 133-2-1v2l2 1z"/><path d="m6 135-3-1.5v2l3 1.5z"/><path d="m10 137-3-1.5v2l3 1.5z"/><path d="m14 139-3-1.5v2l3 1.5z"/><path d="m18 141-3-1.5v2l3 1.5z"/><path d="m22 143-3-1.5v2l3 1.5z"/><path d="m26 145-3-1.5v2l3 1.5z"/><path d="m30 147-3-1.5v2l3 1.5z"/><path d="m34 149-3-1.5v2l3 1.5z"/><path d="m38 151-3-1.5v2l3 1.5z"/><path d="m42 153-3-1.5v2l3 1.5z"/><path d="m46 155-3-1.5v2l3 1.5z"/><path d="m48 156-1-.5v2l1 .5z"/><path d="m4 131-3-1.5v2l3 1.5z"/><path d="m8 133-3-1.5v2l3 1.5z"/><path d="m12 135-3-1.5v2l3 1.5z"/><path d="m16 137-3-1.5v2l3 1.5z"/><path d="m20 139-3-1.5v2l3 1.5z"/><path d="m24 141-3-1.5v2l3 1.5z"/><path d="m28 143-3-1.5v2l3 1.5z"/><path d="m32 145-3-1.5v2l3 1.5z"/><path d="m36 147-3-1.5v2l3 1.5z"/><path d="m40 149-3-1.5v2l3 1.5z"/><path d="m44 151-3-1.5v2l3 1.5z"/><path d="m48 153-3-1.5v2l3 1.5z"/><path d="m2 127-2-1v2l2 1z"/><path d="m6 129-3-1.5v2l3 1.5z"/><path d="m10 131-3-1.5v2l3 1.5z"/><path d="m14 133-3-1.5v2l3 1.5z"/><path d="m18 135-3-1.5v2l3 1.5z"/><path d="m22 137-3-1.5v2l3 1.5z"/><path d="m26 139-3-1.5v2l3 1.5z"/><path d="m30 141-3-1.5v2l3 1.5z"/><path d="m34 143-3-1.5v2l3 1.5z"/><path d="m38 145-3-1.5v2l3 1.5z"/><path d="m42 147-3-1.5v2l3 1.5z"/><path d="m46 149-3-1.5v2l3 1.5z"/><path d="m48 150-1-.5v2l1 .5z"/><path d="m4 125-3-1.5v2l3 1.5z"/><path d="m8 127-3-1.5v2l3 1.5z"/><path d="m12 129-3-1.5v2l3 1.5z"/><path d="m16 131-3-1.5v2l3 1.5z"/><path d="m20 133-3-1.5v2l3 1.5z"/><path d="m24 135-3-1.5v2l3 1.5z"/><path d="m28 137-3-1.5v2l3 1.5z"/><path d="m32 139-3-1.5v2l3 1.5z"/><path d="m36 141-3-1.5v2l3 1.5z"/><path d="m40 143-3-1.5v2l3 1.5z"/><path d="m44 145-3-1.5v2l3 1.5z"/><path d="m48 147-3-1.5v2l3 1.5z"/><path d="m2 121-2-1v2l2 1z"/><path d="m6 123-3-1.5v2l3 1.5z"/><path d="m10 125-3-1.5v2l3 1.5z"/><path d="m14 127-3-1.5v2l3 1.5z"/><path d="m18 129-3-1.5v2l3 1.5z"/><path d="m22 131-3-1.5v2l3 1.5z"/><path d="m26 133-3-1.5v2l3 1.5z"/><path d="m30 135-3-1.5v2l3 1.5z"/><path d="m34 137-3-1.5v2l3 1.5z"/><path d="m38 139-3-1.5v2l3 1.5z"/><path d="m42 141-3-1.5v2l3 1.5z"/><path d="m46 143-3-1.5v2l3 1.5z"/><path d="m48 144-1-.5v2l1 .5z"/><path d="m4 119-3-1.5v2l3 1.5z"/><path d="m8 121-3-1.5v2l3 1.5z"/><path d="m12 123-3-1.5v2l3 1.5z"/><path d="m16 125-3-1.5v2l3 1.5z"/><path d="m20 127-3-1.5v2l3 1.5z"/><path d="m24 129-3-1.5v2l3 1.5z"/><path d="m28 131-3-1.5v2l3 1.5z"/><path d="m32 133-3-1.5v2l3 1.5z"/><path d="m36 135-3-1.5v2l3 1.5z"/><path d="m40 137-3-1.5v2l3 1.5z"/><path d="m44 139-3-1.5v2l3 1.5z"/><path d="m48 141-3-1.5v2l3 1.5z"/><path d="m2 115-2-1v2l2 1z"/><path d="m6 117-3-1.5v2l3 1.5z"/><path d="m10 119-3-1.5v2l3 1.5z"/><path d="m14 121-3-1.5v2l3 1.5z"/><path d="m18 123-3-1.5v2l3 1.5z"/><path d="m22 125-3-1.5v2l3 1.5z"/><path d="m26 127-3-1.5v2l3 1.5z"/><path d="m30 129-3-1.5v2l3 1.5z"/><path d="m34 131-3-1.5v2l3 1.5z"/><path d="m38 133-3-1.5v2l3 1.5z"/><path d="m42 135-3-1.5v2l3 1.5z"/><path d="m46 137-3-1.5v2l3 1.5z"/><path d="m48 138-1-.5v2l1 .5z"/><path d="m4 113-3-1.5v2l3 1.5z"/><path d="m8 115-3-1.5v2l3 1.5z"/><path d="m12 117-3-1.5v2l3 1.5z"/><path d="m16 119-3-1.5v2l3 1.5z"/><path d="m20 121-3-1.5v2l3 1.5z"/><path d="m24 123-3-1.5v2l3 1.5z"/><path d="m28 125-3-1.5v2l3 1.5z"/><path d="m32 127-3-1.5v2l3 1.5z"/><path d="m36 129-3-1.5v2l3 1.5z"/><path d="m40 131-3-1.5v2l3 1.5z"/><path d="m44 133-3-1.5v2l3 1.5z"/><path d="m48 135-3-1.5v2l3 1.5z"/><path d="m2 109-2-1v2l2 1z"/><path d="m6 111-3-1.5v2l3 1.5z"/><path d="m10 113-3-1.5v2l3 1.5z"/><path d="m14 115-3-1.5v2l3 1.5z"/><path d="m18 117-3-1.5v2l3 1.5z"/><path d="m22 119-3-1.5v2l3 1.5z"/><path d="m26 121-3-1.5v2l3 1.5z"/><path d="m30 123-3-1.5v2l3 1.5z"/><path d="m34 125-3-1.5v2l3 1.5z"/><path d="m38 127-3-1.5v2l3 1.5z"/><path d="m42 129-3-1.5v2l3 1.5z"/><path d="m46 131-3-1.5v2l3 1.5z"/><path d="m48 132-1-.5v2l1 .5z"/><path d="m4 107-3-1.5v2l3 1.5z"/><path d="m8 109-3-1.5v2l3 1.5z"/><path d="m12 111-3-1.5v2l3 1.5z"/><path d="m16 113-3-1.5v2l3 1.5z"/><path d="m20 115-3-1.5v2l3 1.5z"/><path d="m24 117-3-1.5v2l3 1.5z"/><path d="m28 119-3-1.5v2l3 1.5z"/><path d="m32 121-3-1.5v2l3 1.5z"/><path d="m36 123-3-1.5v2l3 1.5z"/><path d="m40 125-3-1.5v2l3 1.5z"/><path d="m44 127-3-1.5v2l3 1.5z"/><path d="m48 129-3-1.5v2l3 1.5z"/><path d="m2 103-2-1v2l2 1z"/><path d="m6 105-3-1.5v2l3 1.5z"/><path d="m10 107-3-1.5v2l3 1.5z"/><path d="m14 109-3-1.5v2l3 1.5z"/><path d="m18 111-3-1.5v2l3 1.5z"/><path d="m22 113-3-1.5v2l3 1.5z"/><path d="m26 115-3-1.5v2l3 1.5z"/><path d="m30 117-3-1.5v2l3 1.5z"/><path d="m34 119-3-1.5v2l3 1.5z"/><path d="m38 121-3-1.5v2l3 1.5z"/><path d="m42 123-3-1.5v2l3 1.5z"/><path d="m46 125-3-1.5v2l3 1.5z"/><path d="m48 126-1-.5v2l1 .5z"/><path d="m4 101-3-1.5v2l3 1.5z"/><path d="m8 103-3-1.5v2l3 1.5z"/><path d="m12 105-3-1.5v2l3 1.5z"/><path d="m16 107-3-1.5v2l3 1.5z"/><path d="m20 109-3-1.5v2l3 1.5z"/><path d="m24 111-3-1.5v2l3 1.5z"/><path d="m28 113-3-1.5v2l3 1.5z"/><path d="m32 115-3-1.5v2l3 1.5z"/><path d="m36 117-3-1.5v2l3 1.5z"/><path d="m40 119-3-1.5v2l3 1.5z"/><path d="m44 121-3-1.5v2l3 1.5z"/><path d="m48 123-3-1.5v2l3 1.5z"/><path d="m2 97-2-1v2l2 1z"/><path d="m6 99-3-1.5v2l3 1.5z"/><path d="m10 101-3-1.5v2l3 1.5z"/><path d="m14 103-3-1.5v2l3 1.5z"/><path d="m18 105-3-1.5v2l3 1.5z"/><path d="m22 107-3-1.5v2l3 1.5z"/><path d="m26 109-3-1.5v2l3 1.5z"/><path d="m30 111-3-1.5v2l3 1.5z"/><path d="m34 113-3-1.5v2l3 1.5z"/><path d="m38 115-3-1.5v2l3 1.5z"/><path d="m42 117-3-1.5v2l3 1.5z"/><path d="m46 119-3-1.5v2l3 1.5z"/><path d="m48 120-1-.5v2l1 .5z"/><path d="m4 95-3-1.5v2l3 1.5z"/><path d="m8 97-3-1.5v2l3 1.5z"/><path d="m12 99-3-1.5v2l3 1.5z"/><path d="m16 101-3-1.5v2l3 1.5z"/><path d="m20 103-3-1.5v2l3 1.5z"/><path d="m24 105-3-1.5v2l3 1.5z"/><path d="m28 107-3-1.5v2l3 1.5z"/><path d="m32 109-3-1.5v2l3 1.5z"/><path d="m36 111-3-1.5v2l3 1.5z"/><path d="m40 113-3-1.5v2l3 1.5z"/><path d="m44 115-3-1.5v2l3 1.5z"/><path d="m48 117-3-1.5v2l3 1.5z"/><path d="m2 91-2-1v2l2 1z"/><path d="m6 93-3-1.5v2l3 1.5z"/><path d="m10 95-3-1.5v2l3 1.5z"/><path d="m14 97-3-1.5v2l3 1.5z"/><path d="m18 99-3-1.5v2l3 1.5z"/><path d="m22 101-3-1.5v2l3 1.5z"/><path d="m26 103-3-1.5v2l3 1.5z"/><path d="m30 105-3-1.5v2l3 1.5z"/><path d="m34 107-3-1.5v2l3 1.5z"/><path d="m38 109-3-1.5v2l3 1.5z"/><path d="m42 111-3-1.5v2l3 1.5z"/><path d="m46 113-3-1.5v2l3 1.5z"/><path d="m48 114-1-.5v2l1 .5z"/></g><path d="m38.5 127.3.9.5c2.6 1.2 4.6 4.2 4.6 6.7v9.5l-10-5v-9.5c0-2.5 2-3.5 4.5-2.2z" fill="#baa794"/><path d="m39 128.5c2.2 1.1 4 3.8 4 6v8l-8-4v-8c0-2.2 1.8-3.1 4-2z" fill="#39c"/><path d="m43 142.5-8-4v-4z" fill="#fff" opacity=".2"/><path d="m39 128.5c-2.2-1.1-4-.2-4 2v1c0-2.2 1.8-3.1 4-2s4 3.8 4 6v-1c0-2.2-1.8-4.9-4-6z" opacity=".15"/><path d="m41 141.5-1-.5v-12l1 .5z" fill="#baa794"/><path d="m38 140-1-.5v-12l1 .5z" fill="#baa794"/><path d="m43 135.5-8-4v-1l8 4z" fill="#baa794"/><path d="m38.5 145.3.9.5c2.6 1.2 4.6 4.2 4.6 6.7v9.5l-10-5v-9.5c0-2.5 2-3.5 4.5-2.2z" fill="#baa794"/><path d="m39 146.5c2.2 1.1 4 3.8 4 6v8l-8-4v-8c0-2.2 1.8-3.1 4-2z" fill="#39c"/><path d="m43 160.5-8-4v-8z" fill="#fff" opacity=".2"/><path d="m39 146.5c-2.2-1.1-4-.2-4 2v1c0-2.2 1.8-3.1 4-2s4 3.8 4 6v-1c0-2.2-1.8-4.9-4-6z" opacity=".15"/><path d="m41 159.5-1-.5v-12l1 .5z" fill="#baa794"/><path d="m38 158-1-.5v-12l1 .5z" fill="#baa794"/><path d="m43 153.5-8-4v-1l8 4z" fill="#baa794"/><path d="m8.5 112.3.9.5c2.6 1.2 4.6 4.2 4.6 6.7v9.5l-10-5v-9.5c0-2.5 2-3.5 4.5-2.2z" fill="#baa794"/><path d="m9 113.5c2.2 1.1 4 3.8 4 6v8l-8-4v-8c0-2.2 1.8-3.1 4-2z" fill="#39c"/><path d="m13 127.5-8-4v-8z" fill="#fff" opacity=".2"/><path d="m9 113.5c-2.2-1.1-4-.2-4 2v1c0-2.2 1.8-3.1 4-2s4 3.8 4 6v-1c0-2.2-1.8-4.9-4-6z" opacity=".15"/><path d="m11 126.5-1-.5v-12l1 .5z" fill="#baa794"/><path d="m8 125-1-.5v-12l1 .5z" fill="#baa794"/><path d="m13 120.5-8-4v-1l8 4z" fill="#baa794"/><path d="m23.5 119.8.9.5c2.5 1.3 4.5 4.3 4.5 6.8v9.5l-10-5v-9.6c.1-2.5 2.1-3.5 4.6-2.2z" fill="#baa794"/><path d="m24 121c2.2 1.1 4 3.8 4 6v8l-8-4v-8c0-2.2 1.8-3.1 4-2z" fill="#39c"/><path d="m24 121c-2.2-1.1-4-.2-4 2v1c0-2.2 1.8-3.1 4-2s4 3.8 4 6v-1c0-2.2-1.8-4.9-4-6z" opacity=".15"/><path d="m26 134-1-.5v-12l1 .5z" fill="#baa794"/><path d="m23 132.5-1-.5v-12l1 .5z" fill="#baa794"/><path d="m28 128-8-4v-1l8 4z" fill="#baa794"/><path d="m8.5 130.3.9.5c2.6 1.2 4.6 4.2 4.6 6.7v9.5l-10-5v-9.5c0-2.5 2-3.5 4.5-2.2z" fill="#baa794"/><path d="m9 131.5c2.2 1.1 4 3.8 4 6v8l-8-4v-8c0-2.2 1.8-3.1 4-2z" fill="#39c"/><path d="m9 131.5c-2.2-1.1-4-.2-4 2v1c0-2.2 1.8-3.1 4-2s4 3.8 4 6v-1c0-2.2-1.8-4.9-4-6z" opacity=".15"/><path d="m11 144.5-1-.5v-12l1 .5z" fill="#baa794"/><path d="m8 143-1-.5v-12l1 .5z" fill="#baa794"/><path d="m13 138.5-8-4v-1l8 4z" fill="#baa794"/><path d="m23.5 137.8.9.5c2.5 1.3 4.5 4.3 4.5 6.8v9.5l-10-5v-9.6c.1-2.5 2.1-3.5 4.6-2.2z" fill="#baa794"/><path d="m24 139c2.2 1.1 4 3.8 4 6v8l-8-4v-8c0-2.2 1.8-3.1 4-2z" fill="#39c"/><path d="m24 139c-2.2-1.1-4-.2-4 2v1c0-2.2 1.8-3.1 4-2s4 3.8 4 6v-1c0-2.2-1.8-4.9-4-6z" opacity=".15"/><path d="m26 152-1-.5v-12l1 .5z" fill="#baa794"/><path d="m23 150.5-1-.5v-12l1 .5z" fill="#baa794"/><path d="m28 146-8-4v-1l8 4z" fill="#baa794"/><path d="m38.5 112.3.9.5c2.6 1.2 4.6 4.2 4.6 6.7v6.5l-10-5v-6.5c0-2.5 2-3.5 4.5-2.2z" fill="#baa794"/><path d="m39 113.5c2.2 1.1 4 3.8 4 6v5l-8-4v-5c0-2.2 1.8-3.1 4-2z" fill="#39c"/><path d="m39 113.5c-2.2-1.1-4-.2-4 2v1c0-2.2 1.8-3.1 4-2s4 3.8 4 6v-1c0-2.2-1.8-4.9-4-6z" opacity=".15"/><path d="m41 123.5-1-.5v-9l1 .5z" fill="#baa794"/><path d="m38 122-1-.5v-9l1 .5z" fill="#baa794"/><path d="m43 120.5-8-4v-1l8 4z" fill="#baa794"/><path d="m23.5 104.8.9.5c2.5 1.3 4.5 4.3 4.5 6.8v6.5l-10-5v-6.6c.1-2.5 2.1-3.5 4.6-2.2z" fill="#baa794"/><path d="m24 106c2.2 1.1 4 3.8 4 6v5l-8-4v-5c0-2.2 1.8-3.1 4-2z" fill="#39c"/><path d="m28 117-8-4v-3z" fill="#fff" opacity=".2"/><path d="m24 106c-2.2-1.1-4-.2-4 2v1c0-2.2 1.8-3.1 4-2s4 3.8 4 6v-1c0-2.2-1.8-4.9-4-6z" opacity=".15"/><path d="m26 116-1-.5v-9l1 .5z" fill="#baa794"/><path d="m23 114.5-1-.5v-9l1 .5z" fill="#baa794"/><path d="m28 113-8-4v-1l8 4z" fill="#baa794"/><path d="m8.5 97.3.9.5c2.6 1.2 4.6 4.2 4.6 6.7v6.5l-10-5v-6.5c0-2.5 2-3.5 4.5-2.2z" fill="#baa794"/><path d="m9 98.5c2.2 1.1 4 3.8 4 6v5l-8-4v-5c0-2.2 1.8-3.1 4-2z" fill="#39c"/><path d="m9 98.5c-2.2-1.1-4-.2-4 2v1c0-2.2 1.8-3.1 4-2s4 3.8 4 6v-1c0-2.2-1.8-4.9-4-6z" opacity=".15"/><path d="m11 108.5-1-.5v-9l1 .5z" fill="#baa794"/><path d="m8 107-1-.5v-9l1 .5z" fill="#baa794"/><path d="m13 105.5-8-4v-1l8 4z" fill="#baa794"/><path d="m14 147-10-5v-1l10 5z" fill="#f8ebcb"/><path d="m29 154.5-10-5v-1l10 5z" fill="#f8ebcb"/><path d="m44 162-10-5v-1l10 5z" fill="#f8ebcb"/><path d="m14 129-10-5v-1l10 5z" fill="#f8ebcb"/><path d="m29 136.5-10-5v-1l10 5z" fill="#f8ebcb"/><path d="m44 144-10-5v-1l10 5z" fill="#f8ebcb"/><path d="m14 111-10-5v-1l10 5z" fill="#f8ebcb"/><path d="m29 118.5-10-5v-1l10 5z" fill="#f8ebcb"/><path d="m44 126-10-5v-1l10 5z" fill="#f8ebcb"/><path d="m0 144 48 24v-56l-48-24z" opacity=".06"/><path d="m48 168 64-32v-56l-64 32z" fill="#762c07"/><g fill="#baa794" opacity=".5"><path d="m52 163-3 1.5v2l3-1.5z"/><path d="m56 161-3 1.5v2l3-1.5z"/><path d="m60 159-3 1.5v2l3-1.5z"/><path d="m64 157-3 1.5v2l3-1.5z"/><path d="m68 155-3 1.5v2l3-1.5z"/><path d="m72 153-3 1.5v2l3-1.5z"/><path d="m76 151-3 1.5v2l3-1.5z"/><path d="m80 149-3 1.5v2l3-1.5z"/><path d="m84 147-3 1.5v2l3-1.5z"/><path d="m88 145-3 1.5v2l3-1.5z"/><path d="m92 143-3 1.5v2l3-1.5z"/><path d="m96 141-3 1.5v2l3-1.5z"/><path d="m100 139-3 1.5v2l3-1.5z"/><path d="m104 137-3 1.5v2l3-1.5z"/><path d="m108 135-3 1.5v2l3-1.5z"/><path d="m112 133-3 1.5v2l3-1.5z"/><path d="m50 161-2 1v2l2-1z"/><path d="m54 159-3 1.5v2l3-1.5z"/><path d="m58 157-3 1.5v2l3-1.5z"/><path d="m62 155-3 1.5v2l3-1.5z"/><path d="m66 153-3 1.5v2l3-1.5z"/><path d="m70 151-3 1.5v2l3-1.5z"/><path d="m74 149-3 1.5v2l3-1.5z"/><path d="m78 147-3 1.5v2l3-1.5z"/><path d="m82 145-3 1.5v2l3-1.5z"/><path d="m86 143-3 1.5v2l3-1.5z"/><path d="m90 141-3 1.5v2l3-1.5z"/><path d="m94 139-3 1.5v2l3-1.5z"/><path d="m98 137-3 1.5v2l3-1.5z"/><path d="m102 135-3 1.5v2l3-1.5z"/><path d="m106 133-3 1.5v2l3-1.5z"/><path d="m110 131-3 1.5v2l3-1.5z"/><path d="m112 130-1 .5v2l1-.5z"/><path d="m52 157-3 1.5v2l3-1.5z"/><path d="m56 155-3 1.5v2l3-1.5z"/><path d="m60 153-3 1.5v2l3-1.5z"/><path d="m64 151-3 1.5v2l3-1.5z"/><path d="m68 149-3 1.5v2l3-1.5z"/><path d="m72 147-3 1.5v2l3-1.5z"/><path d="m76 145-3 1.5v2l3-1.5z"/><path d="m80 143-3 1.5v2l3-1.5z"/><path d="m84 141-3 1.5v2l3-1.5z"/><path d="m88 139-3 1.5v2l3-1.5z"/><path d="m92 137-3 1.5v2l3-1.5z"/><path d="m96 135-3 1.5v2l3-1.5z"/><path d="m100 133-3 1.5v2l3-1.5z"/><path d="m104 131-3 1.5v2l3-1.5z"/><path d="m108 129-3 1.5v2l3-1.5z"/><path d="m112 127-3 1.5v2l3-1.5z"/><path d="m50 155-2 1v2l2-1z"/><path d="m54 153-3 1.5v2l3-1.5z"/><path d="m58 151-3 1.5v2l3-1.5z"/><path d="m62 149-3 1.5v2l3-1.5z"/><path d="m66 147-3 1.5v2l3-1.5z"/><path d="m70 145-3 1.5v2l3-1.5z"/><path d="m74 143-3 1.5v2l3-1.5z"/><path d="m78 141-3 1.5v2l3-1.5z"/><path d="m82 139-3 1.5v2l3-1.5z"/><path d="m86 137-3 1.5v2l3-1.5z"/><path d="m90 135-3 1.5v2l3-1.5z"/><path d="m94 133-3 1.5v2l3-1.5z"/><path d="m98 131-3 1.5v2l3-1.5z"/><path d="m102 129-3 1.5v2l3-1.5z"/><path d="m106 127-3 1.5v2l3-1.5z"/><path d="m110 125-3 1.5v2l3-1.5z"/><path d="m112 124-1 .5v2l1-.5z"/><path d="m52 151-3 1.5v2l3-1.5z"/><path d="m56 149-3 1.5v2l3-1.5z"/><path d="m60 147-3 1.5v2l3-1.5z"/><path d="m64 145-3 1.5v2l3-1.5z"/><path d="m68 143-3 1.5v2l3-1.5z"/><path d="m72 141-3 1.5v2l3-1.5z"/><path d="m76 139-3 1.5v2l3-1.5z"/><path d="m80 137-3 1.5v2l3-1.5z"/><path d="m84 135-3 1.5v2l3-1.5z"/><path d="m88 133-3 1.5v2l3-1.5z"/><path d="m92 131-3 1.5v2l3-1.5z"/><path d="m96 129-3 1.5v2l3-1.5z"/><path d="m100 127-3 1.5v2l3-1.5z"/><path d="m104 125-3 1.5v2l3-1.5z"/><path d="m108 123-3 1.5v2l3-1.5z"/><path d="m112 121-3 1.5v2l3-1.5z"/><path d="m50 149-2 1v2l2-1z"/><path d="m54 147-3 1.5v2l3-1.5z"/><path d="m58 145-3 1.5v2l3-1.5z"/><path d="m62 143-3 1.5v2l3-1.5z"/><path d="m66 141-3 1.5v2l3-1.5z"/><path d="m70 139-3 1.5v2l3-1.5z"/><path d="m74 137-3 1.5v2l3-1.5z"/><path d="m78 135-3 1.5v2l3-1.5z"/><path d="m82 133-3 1.5v2l3-1.5z"/><path d="m86 131-3 1.5v2l3-1.5z"/><path d="m90 129-3 1.5v2l3-1.5z"/><path d="m94 127-3 1.5v2l3-1.5z"/><path d="m98 125-3 1.5v2l3-1.5z"/><path d="m102 123-3 1.5v2l3-1.5z"/><path d="m106 121-3 1.5v2l3-1.5z"/><path d="m110 119-3 1.5v2l3-1.5z"/><path d="m112 118-1 .5v2l1-.5z"/><path d="m52 145-3 1.5v2l3-1.5z"/><path d="m56 143-3 1.5v2l3-1.5z"/><path d="m60 141-3 1.5v2l3-1.5z"/><path d="m64 139-3 1.5v2l3-1.5z"/><path d="m68 137-3 1.5v2l3-1.5z"/><path d="m72 135-3 1.5v2l3-1.5z"/><path d="m76 133-3 1.5v2l3-1.5z"/><path d="m80 131-3 1.5v2l3-1.5z"/><path d="m84 129-3 1.5v2l3-1.5z"/><path d="m88 127-3 1.5v2l3-1.5z"/><path d="m92 125-3 1.5v2l3-1.5z"/><path d="m96 123-3 1.5v2l3-1.5z"/><path d="m100 121-3 1.5v2l3-1.5z"/><path d="m104 119-3 1.5v2l3-1.5z"/><path d="m108 117-3 1.5v2l3-1.5z"/><path d="m112 115-3 1.5v2l3-1.5z"/><path d="m50 143-2 1v2l2-1z"/><path d="m54 141-3 1.5v2l3-1.5z"/><path d="m58 139-3 1.5v2l3-1.5z"/><path d="m62 137-3 1.5v2l3-1.5z"/><path d="m66 135-3 1.5v2l3-1.5z"/><path d="m70 133-3 1.5v2l3-1.5z"/><path d="m74 131-3 1.5v2l3-1.5z"/><path d="m78 129-3 1.5v2l3-1.5z"/><path d="m82 127-3 1.5v2l3-1.5z"/><path d="m86 125-3 1.5v2l3-1.5z"/><path d="m90 123-3 1.5v2l3-1.5z"/><path d="m94 121-3 1.5v2l3-1.5z"/><path d="m98 119-3 1.5v2l3-1.5z"/><path d="m102 117-3 1.5v2l3-1.5z"/><path d="m106 115-3 1.5v2l3-1.5z"/><path d="m110 113-3 1.5v2l3-1.5z"/><path d="m112 112-1 .5v2l1-.5z"/><path d="m52 139-3 1.5v2l3-1.5z"/><path d="m56 137-3 1.5v2l3-1.5z"/><path d="m60 135-3 1.5v2l3-1.5z"/><path d="m64 133-3 1.5v2l3-1.5z"/><path d="m68 131-3 1.5v2l3-1.5z"/><path d="m72 129-3 1.5v2l3-1.5z"/><path d="m76 127-3 1.5v2l3-1.5z"/><path d="m80 125-3 1.5v2l3-1.5z"/><path d="m84 123-3 1.5v2l3-1.5z"/><path d="m88 121-3 1.5v2l3-1.5z"/><path d="m92 119-3 1.5v2l3-1.5z"/><path d="m96 117-3 1.5v2l3-1.5z"/><path d="m100 115-3 1.5v2l3-1.5z"/><path d="m104 113-3 1.5v2l3-1.5z"/><path d="m108 111-3 1.5v2l3-1.5z"/><path d="m112 109-3 1.5v2l3-1.5z"/><path d="m50 137-2 1v2l2-1z"/><path d="m54 135-3 1.5v2l3-1.5z"/><path d="m58 133-3 1.5v2l3-1.5z"/><path d="m62 131-3 1.5v2l3-1.5z"/><path d="m66 129-3 1.5v2l3-1.5z"/><path d="m70 127-3 1.5v2l3-1.5z"/><path d="m74 125-3 1.5v2l3-1.5z"/><path d="m78 123-3 1.5v2l3-1.5z"/><path d="m82 121-3 1.5v2l3-1.5z"/><path d="m86 119-3 1.5v2l3-1.5z"/><path d="m90 117-3 1.5v2l3-1.5z"/><path d="m94 115-3 1.5v2l3-1.5z"/><path d="m98 113-3 1.5v2l3-1.5z"/><path d="m102 111-3 1.5v2l3-1.5z"/><path d="m106 109-3 1.5v2l3-1.5z"/><path d="m110 107-3 1.5v2l3-1.5z"/><path d="m112 106-1 .5v2l1-.5z"/><path d="m52 133-3 1.5v2l3-1.5z"/><path d="m56 131-3 1.5v2l3-1.5z"/><path d="m60 129-3 1.5v2l3-1.5z"/><path d="m64 127-3 1.5v2l3-1.5z"/><path d="m68 125-3 1.5v2l3-1.5z"/><path d="m72 123-3 1.5v2l3-1.5z"/><path d="m76 121-3 1.5v2l3-1.5z"/><path d="m80 119-3 1.5v2l3-1.5z"/><path d="m84 117-3 1.5v2l3-1.5z"/><path d="m88 115-3 1.5v2l3-1.5z"/><path d="m92 113-3 1.5v2l3-1.5z"/><path d="m96 111-3 1.5v2l3-1.5z"/><path d="m100 109-3 1.5v2l3-1.5z"/><path d="m104 107-3 1.5v2l3-1.5z"/><path d="m108 105-3 1.5v2l3-1.5z"/><path d="m112 103-3 1.5v2l3-1.5z"/><path d="m50 131-2 1v2l2-1z"/><path d="m54 129-3 1.5v2l3-1.5z"/><path d="m58 127-3 1.5v2l3-1.5z"/><path d="m62 125-3 1.5v2l3-1.5z"/><path d="m66 123-3 1.5v2l3-1.5z"/><path d="m70 121-3 1.5v2l3-1.5z"/><path d="m74 119-3 1.5v2l3-1.5z"/><path d="m78 117-3 1.5v2l3-1.5z"/><path d="m82 115-3 1.5v2l3-1.5z"/><path d="m86 113-3 1.5v2l3-1.5z"/><path d="m90 111-3 1.5v2l3-1.5z"/><path d="m94 109-3 1.5v2l3-1.5z"/><path d="m98 107-3 1.5v2l3-1.5z"/><path d="m102 105-3 1.5v2l3-1.5z"/><path d="m106 103-3 1.5v2l3-1.5z"/><path d="m110 101-3 1.5v2l3-1.5z"/><path d="m112 100-1 .5v2l1-.5z"/><path d="m52 127-3 1.5v2l3-1.5z"/><path d="m56 125-3 1.5v2l3-1.5z"/><path d="m60 123-3 1.5v2l3-1.5z"/><path d="m64 121-3 1.5v2l3-1.5z"/><path d="m68 119-3 1.5v2l3-1.5z"/><path d="m72 117-3 1.5v2l3-1.5z"/><path d="m76 115-3 1.5v2l3-1.5z"/><path d="m80 113-3 1.5v2l3-1.5z"/><path d="m84 111-3 1.5v2l3-1.5z"/><path d="m88 109-3 1.5v2l3-1.5z"/><path d="m92 107-3 1.5v2l3-1.5z"/><path d="m96 105-3 1.5v2l3-1.5z"/><path d="m100 103-3 1.5v2l3-1.5z"/><path d="m104 101-3 1.5v2l3-1.5z"/><path d="m108 99-3 1.5v2l3-1.5z"/><path d="m112 97-3 1.5v2l3-1.5z"/><path d="m50 125-2 1v2l2-1z"/><path d="m54 123-3 1.5v2l3-1.5z"/><path d="m58 121-3 1.5v2l3-1.5z"/><path d="m62 119-3 1.5v2l3-1.5z"/><path d="m66 117-3 1.5v2l3-1.5z"/><path d="m70 115-3 1.5v2l3-1.5z"/><path d="m74 113-3 1.5v2l3-1.5z"/><path d="m78 111-3 1.5v2l3-1.5z"/><path d="m82 109-3 1.5v2l3-1.5z"/><path d="m86 107-3 1.5v2l3-1.5z"/><path d="m90 105-3 1.5v2l3-1.5z"/><path d="m94 103-3 1.5v2l3-1.5z"/><path d="m98 101-3 1.5v2l3-1.5z"/><path d="m102 99-3 1.5v2l3-1.5z"/><path d="m106 97-3 1.5v2l3-1.5z"/><path d="m110 95-3 1.5v2l3-1.5z"/><path d="m112 94-1 .5v2l1-.5z"/><path d="m52 121-3 1.5v2l3-1.5z"/><path d="m56 119-3 1.5v2l3-1.5z"/><path d="m60 117-3 1.5v2l3-1.5z"/><path d="m64 115-3 1.5v2l3-1.5z"/><path d="m68 113-3 1.5v2l3-1.5z"/><path d="m72 111-3 1.5v2l3-1.5z"/><path d="m76 109-3 1.5v2l3-1.5z"/><path d="m80 107-3 1.5v2l3-1.5z"/><path d="m84 105-3 1.5v2l3-1.5z"/><path d="m88 103-3 1.5v2l3-1.5z"/><path d="m92 101-3 1.5v2l3-1.5z"/><path d="m96 99-3 1.5v2l3-1.5z"/><path d="m100 97-3 1.5v2l3-1.5z"/><path d="m104 95-3 1.5v2l3-1.5z"/><path d="m108 93-3 1.5v2l3-1.5z"/><path d="m112 91-3 1.5v2l3-1.5z"/><path d="m50 119-2 1v2l2-1z"/><path d="m54 117-3 1.5v2l3-1.5z"/><path d="m58 115-3 1.5v2l3-1.5z"/><path d="m62 113-3 1.5v2l3-1.5z"/><path d="m66 111-3 1.5v2l3-1.5z"/><path d="m70 109-3 1.5v2l3-1.5z"/><path d="m74 107-3 1.5v2l3-1.5z"/><path d="m78 105-3 1.5v2l3-1.5z"/><path d="m82 103-3 1.5v2l3-1.5z"/><path d="m86 101-3 1.5v2l3-1.5z"/><path d="m90 99-3 1.5v2l3-1.5z"/><path d="m94 97-3 1.5v2l3-1.5z"/><path d="m98 95-3 1.5v2l3-1.5z"/><path d="m102 93-3 1.5v2l3-1.5z"/><path d="m106 91-3 1.5v2l3-1.5z"/><path d="m110 89-3 1.5v2l3-1.5z"/><path d="m112 88-1 .5v2l1-.5z"/><path d="m52 115-3 1.5v2l3-1.5z"/><path d="m56 113-3 1.5v2l3-1.5z"/><path d="m60 111-3 1.5v2l3-1.5z"/><path d="m64 109-3 1.5v2l3-1.5z"/><path d="m68 107-3 1.5v2l3-1.5z"/><path d="m72 105-3 1.5v2l3-1.5z"/><path d="m76 103-3 1.5v2l3-1.5z"/><path d="m80 101-3 1.5v2l3-1.5z"/><path d="m84 99-3 1.5v2l3-1.5z"/><path d="m88 97-3 1.5v2l3-1.5z"/><path d="m92 95-3 1.5v2l3-1.5z"/><path d="m96 93-3 1.5v2l3-1.5z"/><path d="m100 91-3 1.5v2l3-1.5z"/><path d="m104 89-3 1.5v2l3-1.5z"/><path d="m108 87-3 1.5v2l3-1.5z"/><path d="m112 85-3 1.5v2l3-1.5z"/><path d="m50 113-2 1v2l2-1z"/><path d="m54 111-3 1.5v2l3-1.5z"/><path d="m58 109-3 1.5v2l3-1.5z"/><path d="m62 107-3 1.5v2l3-1.5z"/><path d="m66 105-3 1.5v2l3-1.5z"/><path d="m70 103-3 1.5v2l3-1.5z"/><path d="m74 101-3 1.5v2l3-1.5z"/><path d="m78 99-3 1.5v2l3-1.5z"/><path d="m82 97-3 1.5v2l3-1.5z"/><path d="m86 95-3 1.5v2l3-1.5z"/><path d="m90 93-3 1.5v2l3-1.5z"/><path d="m94 91-3 1.5v2l3-1.5z"/><path d="m98 89-3 1.5v2l3-1.5z"/><path d="m102 87-3 1.5v2l3-1.5z"/><path d="m106 85-3 1.5v2l3-1.5z"/><path d="m110 83-3 1.5v2l3-1.5z"/><path d="m112 82-1 .5v2l1-.5z"/></g><path d="m102.5 122.7.9-.5c2.5-1.3 4.5-.2 4.5 2.3v9.5l-10 5v-9.5c.1-2.5 2.1-5.5 4.6-6.8z" fill="#baa794"/><path d="m103 123.5c2.2-1.1 4-.2 4 2v8l-8 4v-8c0-2.2 1.8-4.9 4-6z" fill="#39c"/><path d="m107 133.5-8 4v-4z" fill="#fff" opacity=".2"/><path d="m103 123.5c-2.2 1.1-4 3.8-4 6v1c0-2.2 1.8-4.9 4-6s4-.2 4 2v-1c0-2.2-1.8-3.1-4-2z" opacity=".15"/><path d="m105 134.5-1 .5v-12l1-.5z" fill="#baa794"/><path d="m102 136-1 .5v-12l1-.5z" fill="#baa794"/><path d="m107 126.5-8 4v-1l8-4z" fill="#baa794"/><path d="m87.5 112.2.9-.5c2.5-1.3 4.5-.2 4.5 2.3v9.5l-10 5v-9.5c.1-2.5 2.1-5.5 4.6-6.8z" fill="#baa794"/><path d="m88 113c2.2-1.1 4-.2 4 2v8l-8 4v-8c0-2.2 1.8-4.9 4-6z" fill="#39c"/><path d="m92 123-8 4v-4z" fill="#fff" opacity=".2"/><path d="m88 113c-2.2 1.1-4 3.8-4 6v1c0-2.2 1.8-4.9 4-6s4-.2 4 2v-1c0-2.2-1.8-3.1-4-2z" opacity=".15"/><path d="m90 124-1 .5v-12l1-.5z" fill="#baa794"/><path d="m87 125.5-1 .5v-12l1-.5z" fill="#baa794"/><path d="m92 116-8 4v-1l8-4z" fill="#baa794"/><path d="m87.5 130.2.9-.5c2.5-1.3 4.5-.2 4.5 2.3v9.5l-10 5v-9.5c.1-2.5 2.1-5.5 4.6-6.8z" fill="#baa794"/><path d="m88 131c2.2-1.1 4-.2 4 2v8l-8 4v-8c0-2.2 1.8-4.9 4-6z" fill="#39c"/><path d="m92 141-8 4v-8z" fill="#fff" opacity=".2"/><path d="m88 131c-2.2 1.1-4 3.8-4 6v1c0-2.2 1.8-4.9 4-6s4-.2 4 2v-1c0-2.2-1.8-3.1-4-2z" opacity=".15"/><path d="m90 142-1 .5v-12l1-.5z" fill="#baa794"/><path d="m87 143.5-1 .5v-12l1-.5z" fill="#baa794"/><path d="m92 134-8 4v-1l8-4z" fill="#baa794"/><path d="m57.5 127.2.9-.5c2.5-1.3 4.5-.2 4.5 2.3v9.5l-10 5v-9.5c.1-2.5 2.1-5.5 4.6-6.8z" fill="#baa794"/><path d="m58 128c2.2-1.1 4-.2 4 2v8l-8 4v-8c0-2.2 1.8-4.9 4-6z" fill="#39c"/><path d="m62 138-8 4v-8z" fill="#fff" opacity=".2"/><path d="m58 128c-2.2 1.1-4 3.8-4 6v1c0-2.2 1.8-4.9 4-6s4-.2 4 2v-1c0-2.2-1.8-3.1-4-2z" opacity=".15"/><path d="m60 139-1 .5v-12l1-.5z" fill="#baa794"/><path d="m57 140.5-1 .5v-12l1-.5z" fill="#baa794"/><path d="m62 131-8 4v-1l8-4z" fill="#baa794"/><path d="m102.5 104.7.9-.5c2.5-1.3 4.5-.2 4.5 2.3v9.5l-10 5v-9.5c.1-2.5 2.1-5.5 4.6-6.8z" fill="#baa794"/><path d="m103 105.5c2.2-1.1 4-.2 4 2v8l-8 4v-8c0-2.2 1.8-4.9 4-6z" fill="#39c"/><path d="m103 105.5c-2.2 1.1-4 3.8-4 6v1c0-2.2 1.8-4.9 4-6s4-.2 4 2v-1c0-2.2-1.8-3.1-4-2z" opacity=".15"/><path d="m105 116.5-1 .5v-12l1-.5z" fill="#baa794"/><path d="m102 118-1 .5v-12l1-.5z" fill="#baa794"/><path d="m107 108.5-8 4v-1l8-4z" fill="#baa794"/><path d="m72.5 119.7.9-.5c2.6-1.2 4.6-.2 4.6 2.3v9.5l-10 5v-9.5c0-2.5 2-5.5 4.5-6.8z" fill="#baa794"/><path d="m73 120.5c2.2-1.1 4-.2 4 2v8l-8 4v-8c0-2.2 1.8-4.9 4-6z" fill="#39c"/><path d="m73 120.5c-2.2 1.1-4 3.8-4 6v1c0-2.2 1.8-4.9 4-6s4-.2 4 2v-1c0-2.2-1.8-3.1-4-2z" opacity=".15"/><path d="m75 131.5-1 .5v-12l1-.5z" fill="#baa794"/><path d="m72 133-1 .5v-12l1-.5z" fill="#baa794"/><path d="m77 123.5-8 4v-1l8-4z" fill="#baa794"/><path d="m57.5 145.2.9-.5c2.5-1.3 4.5-.2 4.5 2.3v9.5l-10 5v-9.5c.1-2.5 2.1-5.5 4.6-6.8z" fill="#baa794"/><path d="m58 146c2.2-1.1 4-.2 4 2v8l-8 4v-8c0-2.2 1.8-4.9 4-6z" fill="#39c"/><path d="m58 146c-2.2 1.1-4 3.8-4 6v1c0-2.2 1.8-4.9 4-6s4-.2 4 2v-1c0-2.2-1.8-3.1-4-2z" opacity=".15"/><path d="m60 157-1 .5v-12l1-.5z" fill="#baa794"/><path d="m57 158.5-1 .5v-12l1-.5z" fill="#baa794"/><path d="m62 149-8 4v-1l8-4z" fill="#baa794"/><path d="m72.5 137.7.9-.5c2.6-1.2 4.6-.2 4.6 2.3v9.5l-10 5v-9.5c0-2.5 2-5.5 4.5-6.8z" fill="#baa794"/><path d="m73 138.5c2.2-1.1 4-.2 4 2v8l-8 4v-8c0-2.2 1.8-4.9 4-6z" fill="#39c"/><path d="m73 138.5c-2.2 1.1-4 3.8-4 6v1c0-2.2 1.8-4.9 4-6s4-.2 4 2v-1c0-2.2-1.8-3.1-4-2z" opacity=".15"/><path d="m75 149.5-1 .5v-12l1-.5z" fill="#baa794"/><path d="m72 151-1 .5v-12l1-.5z" fill="#baa794"/><path d="m77 141.5-8 4v-1l8-4z" fill="#baa794"/><path d="m102.5 89.7.9-.5c2.6-1.2 4.6-.2 4.6 2.3v6.5l-10 5v-6.5c0-2.5 2-5.5 4.5-6.8z" fill="#baa794"/><path d="m103 90.5c2.2-1.1 4-.2 4 2v5l-8 4v-5c0-2.2 1.8-4.9 4-6z" fill="#39c"/><path d="m107 97.5-8 4v-5z" fill="#fff" opacity=".2"/><path d="m103 90.5c-2.2 1.1-4 3.8-4 6v1c0-2.2 1.8-4.9 4-6s4-.2 4 2v-1c0-2.2-1.8-3.1-4-2z" opacity=".15"/><path d="m105 98.5-1 .5v-9l1-.5z" fill="#baa794"/><path d="m102 100-1 .5v-9l1-.5z" fill="#baa794"/><path d="m107 93.5-8 4v-1l8-4z" fill="#baa794"/><path d="m87.5 97.2.9-.5c2.6-1.2 4.6-.2 4.6 2.3v6.5l-10 5v-6.5c0-2.5 2-5.5 4.5-6.8z" fill="#baa794"/><path d="m88 98c2.2-1.1 4-.2 4 2v5l-8 4v-5c0-2.2 1.8-4.9 4-6z" fill="#39c"/><path d="m88 98c-2.2 1.1-4 3.8-4 6v1c0-2.2 1.8-4.9 4-6s4-.2 4 2v-1c0-2.2-1.8-3.1-4-2z" opacity=".15"/><path d="m90 106-1 .5v-9l1-.5z" fill="#baa794"/><path d="m87 107.5-1 .5v-9l1-.5z" fill="#baa794"/><path d="m92 101-8 4v-1l8-4z" fill="#baa794"/><path d="m72.5 104.7.9-.5c2.6-1.2 4.6-.2 4.6 2.3v6.5l-10 5v-6.5c0-2.5 2-5.5 4.5-6.8z" fill="#baa794"/><path d="m73 105.5c2.2-1.1 4-.2 4 2v5l-8 4v-5c0-2.2 1.8-4.9 4-6z" fill="#39c"/><path d="m77 112.5-8 4v-3z" fill="#fff" opacity=".2"/><path d="m73 105.5c-2.2 1.1-4 3.8-4 6v1c0-2.2 1.8-4.9 4-6s4-.2 4 2v-1c0-2.2-1.8-3.1-4-2z" opacity=".15"/><path d="m75 113.5-1 .5v-9l1-.5z" fill="#baa794"/><path d="m72 115-1 .5v-9l1-.5z" fill="#baa794"/><path d="m77 108.5-8 4v-1l8-4z" fill="#baa794"/><path d="m57.5 112.2.9-.5c2.5-1.3 4.5-.2 4.5 2.3v6.5l-10 5v-6.5c.1-2.5 2.1-5.5 4.6-6.8z" fill="#baa794"/><path d="m58 113c2.2-1.1 4-.2 4 2v5l-8 4v-5c0-2.2 1.8-4.9 4-6z" fill="#39c"/><path d="m58 113c-2.2 1.1-4 3.8-4 6v1c0-2.2 1.8-4.9 4-6s4-.2 4 2v-1c0-2.2-1.8-3.1-4-2z" opacity=".15"/><path d="m60 121-1 .5v-9l1-.5z" fill="#baa794"/><path d="m57 122.5-1 .5v-9l1-.5z" fill="#baa794"/><path d="m62 116-8 4v-1l8-4z" fill="#baa794"/><g fill="#f8ebcb"><path d="m63 156.5-10 5v-1l10-5z"/><path d="m78 149-10 5v-1l10-5z"/><path d="m93 141.5-10 5v-1l10-5z"/><path d="m108 134-10 5v-1l10-5z"/><path d="m63 138.5-10 5v-1l10-5z"/><path d="m78 131-10 5v-1l10-5z"/><path d="m93 123.5-10 5v-1l10-5z"/><path d="m108 116-10 5v-1l10-5z"/><path d="m63 120.5-10 5v-1l10-5z"/><path d="m78 113-10 5v-1l10-5z"/><path d="m93 105.5-10 5v-1l10-5z"/><path d="m108 98-10 5v-1l10-5z"/></g><path d="m97 141c0 .8-.7 1.8-1.5 2.2s-1.5.1-1.5-.8.7-1.8 1.5-2.2 1.5 0 1.5.8z" fill="#539b00"/><path d="m95.5 142.2c-.7.3-1.2.2-1.4-.3-.1.2-.1.4-.1.5 0 .8.7 1.2 1.5.8s1.5-1.4 1.5-2.2c0-.2 0-.3-.1-.5-.2.7-.7 1.4-1.4 1.7z" fill="#183306" opacity=".3"/><path d="m99 139c0 .8-.7 1.8-1.5 2.2s-1.5.1-1.5-.8c0-.8.7-1.8 1.5-2.2s1.5 0 1.5.8z" fill="#539b00"/><path d="m97.5 140.2c-.7.3-1.2.2-1.4-.3-.1.2-.1.4-.1.5 0 .8.7 1.2 1.5.8s1.5-1.4 1.5-2.2c0-.2 0-.3-.1-.5-.2.7-.7 1.4-1.4 1.7z" fill="#183306" opacity=".3"/><path d="m101 140c0 .8-.7 1.8-1.5 2.2s-1.5.1-1.5-.8.7-1.8 1.5-2.2 1.5 0 1.5.8z" fill="#539b00"/><path d="m99.5 141.2c-.7.3-1.2.2-1.4-.3-.1.2-.1.4-.1.5 0 .8.7 1.2 1.5.8s1.5-1.4 1.5-2.2c0-.2 0-.3-.1-.5-.2.7-.7 1.4-1.4 1.7z" fill="#183306" opacity=".3"/><path d="m99 141c0 .8-.7 1.8-1.5 2.2s-1.5.1-1.5-.8c0-.8.7-1.8 1.5-2.2s1.5 0 1.5.8z" fill="#539b00"/><path d="m97.5 142.2c-.7.3-1.2.2-1.4-.3-.1.2-.1.4-.1.5 0 .8.7 1.2 1.5.8s1.5-1.4 1.5-2.2c0-.2 0-.3-.1-.5-.2.7-.7 1.4-1.4 1.7z" fill="#183306" opacity=".3"/><path d="m97 142c0 .8-.7 1.8-1.5 2.2s-1.5.1-1.5-.8.7-1.8 1.5-2.2 1.5 0 1.5.8z" fill="#539b00"/><path d="m95.5 143.2c-.7.3-1.2.2-1.4-.3-.1.2-.1.4-.1.5 0 .8.7 1.2 1.5.8s1.5-1.4 1.5-2.2c0-.2 0-.3-.1-.5-.2.7-.7 1.4-1.4 1.7z" fill="#183306" opacity=".3"/><path d="m95 143c0 .8-.7 1.8-1.5 2.2s-1.5.1-1.5-.8.7-1.8 1.5-2.2 1.5 0 1.5.8z" fill="#539b00"/><path d="m93.5 144.2c-.7.3-1.2.2-1.4-.3-.1.2-.1.4-.1.5 0 .8.7 1.2 1.5.8s1.5-1.4 1.5-2.2c0-.2 0-.3-.1-.5-.2.7-.7 1.4-1.4 1.7z" fill="#183306" opacity=".3"/><path d="m93 143c0 .8-.7 1.8-1.5 2.2s-1.5.1-1.5-.8c0-.8.7-1.8 1.5-2.2s1.5 0 1.5.8z" fill="#539b00"/><path d="m91.5 144.2c-.7.3-1.2.2-1.4-.3-.1.2-.1.4-.1.5 0 .8.7 1.2 1.5.8s1.5-1.4 1.5-2.2c0-.2 0-.3-.1-.5-.2.7-.7 1.4-1.4 1.7z" fill="#183306" opacity=".3"/><path d="m96 139.5c0 .8-.7 1.8-1.5 2.2s-1.5.1-1.5-.7.7-1.8 1.5-2.2 1.5-.1 1.5.7z" fill="#539b00"/><path d="m94.5 140.7c-.7.3-1.2.2-1.4-.3-.1.2-.1.4-.1.5 0 .8.7 1.2 1.5.8s1.5-1.4 1.5-2.2c0-.2 0-.3-.1-.5-.2.7-.7 1.4-1.4 1.7z" fill="#183306" opacity=".3"/><path d="m98 136.5c0 .8-.7 1.8-1.5 2.2s-1.5.1-1.5-.7.7-1.8 1.5-2.2 1.5-.1 1.5.7z" fill="#539b00"/><path d="m96.5 137.7c-.7.3-1.2.2-1.4-.3-.1.2-.1.4-.1.5 0 .8.7 1.2 1.5.8s1.5-1.4 1.5-2.2c0-.2 0-.3-.1-.5-.2.7-.7 1.4-1.4 1.7z" fill="#183306" opacity=".3"/><path d="m96 135.5c0 .8-.7 1.8-1.5 2.2s-1.5.1-1.5-.7.7-1.8 1.5-2.2 1.5-.1 1.5.7z" fill="#539b00"/><path d="m94.5 136.7c-.7.3-1.2.2-1.4-.3-.1.2-.1.4-.1.5 0 .8.7 1.2 1.5.8s1.5-1.4 1.5-2.2c0-.2 0-.3-.1-.5-.2.7-.7 1.4-1.4 1.7z" fill="#183306" opacity=".3"/><path d="m98 133.5c0 .8-.7 1.8-1.5 2.2s-1.5.1-1.5-.7.7-1.8 1.5-2.2 1.5-.1 1.5.7z" fill="#539b00"/><path d="m96.5 134.7c-.7.3-1.2.2-1.4-.3-.1.2-.1.4-.1.5 0 .8.7 1.2 1.5.8s1.5-1.4 1.5-2.2c0-.2 0-.3-.1-.5-.2.7-.7 1.4-1.4 1.7z" fill="#183306" opacity=".3"/><path d="m97 133c0 .8-.7 1.8-1.5 2.2s-1.5.1-1.5-.8.7-1.8 1.5-2.2 1.5 0 1.5.8z" fill="#539b00"/><path d="m95.5 134.2c-.7.3-1.2.2-1.4-.3-.1.2-.1.4-.1.5 0 .8.7 1.2 1.5.8s1.5-1.4 1.5-2.2c0-.2 0-.3-.1-.5-.2.7-.7 1.4-1.4 1.7z" fill="#183306" opacity=".3"/><path d="m98 129.5c0 .8-.7 1.8-1.5 2.2s-1.5.1-1.5-.7.7-1.8 1.5-2.2 1.5-.1 1.5.7z" fill="#539b00"/><path d="m96.5 130.7c-.7.3-1.2.2-1.4-.3-.1.2-.1.4-.1.5 0 .8.7 1.2 1.5.8s1.5-1.4 1.5-2.2c0-.2 0-.3-.1-.5-.2.7-.7 1.4-1.4 1.7z" fill="#183306" opacity=".3"/><path d="m96 129.5c0 .8-.7 1.8-1.5 2.2s-1.5.1-1.5-.7.7-1.8 1.5-2.2 1.5-.1 1.5.7z" fill="#539b00"/><path d="m94.5 130.7c-.7.3-1.2.2-1.4-.3-.1.2-.1.4-.1.5 0 .8.7 1.2 1.5.8s1.5-1.4 1.5-2.2c0-.2 0-.3-.1-.5-.2.7-.7 1.4-1.4 1.7z" fill="#183306" opacity=".3"/><path d="m97 126c0 .8-.7 1.8-1.5 2.2s-1.5.1-1.5-.8c0-.8.7-1.8 1.5-2.2s1.5 0 1.5.8z" fill="#539b00"/><path d="m95.5 127.2c-.7.3-1.2.2-1.4-.3-.1.2-.1.4-.1.5 0 .8.7 1.2 1.5.8s1.5-1.4 1.5-2.2c0-.2 0-.3-.1-.5-.2.7-.7 1.4-1.4 1.7z" fill="#183306" opacity=".3"/><path d="m68 155.5c0 .8-.7 1.8-1.5 2.2s-1.5.1-1.5-.7.7-1.8 1.5-2.2 1.5-.1 1.5.7z" fill="#539b00"/><path d="m66.5 156.7c-.7.3-1.2.2-1.4-.3-.1.2-.1.4-.1.5 0 .8.7 1.2 1.5.8s1.5-1.4 1.5-2.2c0-.2 0-.3-.1-.5-.2.7-.7 1.4-1.4 1.7z" fill="#183306" opacity=".3"/><path d="m70 153.5c0 .8-.7 1.8-1.5 2.2s-1.5.1-1.5-.7.7-1.8 1.5-2.2 1.5-.1 1.5.7z" fill="#539b00"/><path d="m68.5 154.7c-.7.3-1.2.2-1.4-.3-.1.2-.1.4-.1.5 0 .8.7 1.2 1.5.8s1.5-1.4 1.5-2.2c0-.2 0-.3-.1-.5-.2.7-.7 1.4-1.4 1.7z" fill="#183306" opacity=".3"/><path d="m72 154.5c0 .8-.7 1.8-1.5 2.2s-1.5.1-1.5-.8c0-.8.7-1.8 1.5-2.2s1.5 0 1.5.8z" fill="#539b00"/><path d="m70.5 155.7c-.7.3-1.2.2-1.4-.3-.1.2-.1.4-.1.5 0 .8.7 1.2 1.5.8s1.5-1.4 1.5-2.2c0-.2 0-.3-.1-.5-.2.7-.7 1.4-1.4 1.7z" fill="#183306" opacity=".3"/><path d="m70 155.5c0 .8-.7 1.8-1.5 2.2s-1.5.1-1.5-.7.7-1.8 1.5-2.2 1.5-.1 1.5.7z" fill="#539b00"/><path d="m68.5 156.7c-.7.3-1.2.2-1.4-.3-.1.2-.1.4-.1.5 0 .8.7 1.2 1.5.8s1.5-1.4 1.5-2.2c0-.2 0-.3-.1-.5-.2.7-.7 1.4-1.4 1.7z" fill="#183306" opacity=".3"/><path d="m69 156c0 .8-.7 1.8-1.5 2.2s-1.5.1-1.5-.8.7-1.8 1.5-2.2 1.5 0 1.5.8z" fill="#539b00"/><path d="m67.5 157.2c-.7.3-1.2.2-1.4-.3-.1.2-.1.4-.1.5 0 .8.7 1.2 1.5.8s1.5-1.4 1.5-2.2c0-.2 0-.3-.1-.5-.2.7-.7 1.4-1.4 1.7z" fill="#183306" opacity=".3"/><path d="m68 156.5c0 .8-.7 1.8-1.5 2.2s-1.5.1-1.5-.7.7-1.8 1.5-2.2 1.5-.1 1.5.7z" fill="#539b00"/><path d="m66.5 157.7c-.7.3-1.2.2-1.4-.3-.1.2-.1.4-.1.5 0 .8.7 1.2 1.5.8s1.5-1.4 1.5-2.2c0-.2 0-.3-.1-.5-.2.7-.7 1.4-1.4 1.7z" fill="#183306" opacity=".3"/><path d="m65 158c0 .8-.7 1.8-1.5 2.2s-1.5.1-1.5-.8.7-1.8 1.5-2.2 1.5 0 1.5.8z" fill="#539b00"/><path d="m63.5 159.2c-.7.3-1.2.2-1.4-.3-.1.2-.1.4-.1.5 0 .8.7 1.2 1.5.8s1.5-1.4 1.5-2.2c0-.2 0-.3-.1-.5-.2.7-.7 1.4-1.4 1.7z" fill="#183306" opacity=".3"/><path d="m66 157.5c0 .8-.7 1.8-1.5 2.2s-1.5.1-1.5-.8c0-.8.7-1.8 1.5-2.2s1.5 0 1.5.8z" fill="#539b00"/><path d="m64.5 158.7c-.7.3-1.2.2-1.4-.3-.1.2-.1.4-.1.5 0 .8.7 1.2 1.5.8s1.5-1.4 1.5-2.2c0-.2 0-.3-.1-.5-.2.7-.7 1.4-1.4 1.7z" fill="#183306" opacity=".3"/><path d="m64 157.5c0 .8-.7 1.8-1.5 2.2s-1.5.1-1.5-.7.7-1.8 1.5-2.2 1.5-.1 1.5.7z" fill="#539b00"/><path d="m62.5 158.7c-.7.3-1.2.2-1.4-.3-.1.2-.1.4-.1.5 0 .8.7 1.2 1.5.8s1.5-1.4 1.5-2.2c0-.2 0-.3-.1-.5-.2.7-.7 1.4-1.4 1.7z" fill="#183306" opacity=".3"/><path d="m67 154c0 .8-.7 1.8-1.5 2.2s-1.5.1-1.5-.8c0-.8.7-1.8 1.5-2.2s1.5 0 1.5.8z" fill="#539b00"/><path d="m65.5 155.2c-.7.3-1.2.2-1.4-.3-.1.2-.1.4-.1.5 0 .8.7 1.2 1.5.8s1.5-1.4 1.5-2.2c0-.2 0-.3-.1-.5-.2.7-.7 1.4-1.4 1.7z" fill="#183306" opacity=".3"/><path d="m69 151c0 .8-.7 1.8-1.5 2.2s-1.5.1-1.5-.8.7-1.8 1.5-2.2 1.5 0 1.5.8z" fill="#539b00"/><path d="m67.5 152.2c-.7.3-1.2.2-1.4-.3-.1.2-.1.4-.1.5 0 .8.7 1.2 1.5.8s1.5-1.4 1.5-2.2c0-.2 0-.3-.1-.5-.2.7-.7 1.4-1.4 1.7z" fill="#183306" opacity=".3"/><path d="m66 152.5c0 .8-.7 1.8-1.5 2.2s-1.5.1-1.5-.8c0-.8.7-1.8 1.5-2.2s1.5 0 1.5.8z" fill="#539b00"/><path d="m64.5 153.7c-.7.3-1.2.2-1.4-.3-.1.2-.1.4-.1.5 0 .8.7 1.2 1.5.8s1.5-1.4 1.5-2.2c0-.2 0-.3-.1-.5-.2.7-.7 1.4-1.4 1.7z" fill="#183306" opacity=".3"/><path d="m67 150c0 .8-.7 1.8-1.5 2.2s-1.5.1-1.5-.8c0-.8.7-1.8 1.5-2.2s1.5 0 1.5.8z" fill="#539b00"/><path d="m65.5 151.2c-.7.3-1.2.2-1.4-.3-.1.2-.1.4-.1.5 0 .8.7 1.2 1.5.8s1.5-1.4 1.5-2.2c0-.2 0-.3-.1-.5-.2.7-.7 1.4-1.4 1.7z" fill="#183306" opacity=".3"/><path d="m69 148c0 .8-.7 1.8-1.5 2.2s-1.5.1-1.5-.8.7-1.8 1.5-2.2 1.5 0 1.5.8z" fill="#539b00"/><path d="m67.5 149.2c-.7.3-1.2.2-1.4-.3-.1.2-.1.4-.1.5 0 .8.7 1.2 1.5.8s1.5-1.4 1.5-2.2c0-.2 0-.3-.1-.5-.2.7-.7 1.4-1.4 1.7z" fill="#183306" opacity=".3"/><path d="m68 147.5c0 .8-.7 1.8-1.5 2.2s-1.5.1-1.5-.7.7-1.8 1.5-2.2 1.5-.1 1.5.7z" fill="#539b00"/><path d="m66.5 148.7c-.7.3-1.2.2-1.4-.3-.1.2-.1.4-.1.5 0 .8.7 1.2 1.5.8s1.5-1.4 1.5-2.2c0-.2 0-.3-.1-.5-.2.7-.7 1.4-1.4 1.7z" fill="#183306" opacity=".3"/><path d="m66 146.5c0 .8-.7 1.8-1.5 2.2s-1.5.1-1.5-.8c0-.8.7-1.8 1.5-2.2s1.5 0 1.5.8z" fill="#539b00"/><path d="m64.5 147.7c-.7.3-1.2.2-1.4-.3-.1.2-.1.4-.1.5 0 .8.7 1.2 1.5.8s1.5-1.4 1.5-2.2c0-.2 0-.3-.1-.5-.2.7-.7 1.4-1.4 1.7z" fill="#183306" opacity=".3"/><path d="m69 144c0 .8-.7 1.8-1.5 2.2s-1.5.1-1.5-.8.7-1.8 1.5-2.2 1.5 0 1.5.8z" fill="#539b00"/><path d="m67.5 145.2c-.7.3-1.2.2-1.4-.3-.1.2-.1.4-.1.5 0 .8.7 1.2 1.5.8s1.5-1.4 1.5-2.2c0-.2 0-.3-.1-.5-.2.7-.7 1.4-1.4 1.7z" fill="#183306" opacity=".3"/><path d="m67 144c0 .8-.7 1.8-1.5 2.2s-1.5.1-1.5-.8c0-.8.7-1.8 1.5-2.2s1.5 0 1.5.8z" fill="#539b00"/><path d="m65.5 145.2c-.7.3-1.2.2-1.4-.3-.1.2-.1.4-.1.5 0 .8.7 1.2 1.5.8s1.5-1.4 1.5-2.2c0-.2 0-.3-.1-.5-.2.7-.7 1.4-1.4 1.7z" fill="#183306" opacity=".3"/><path d="m66 142.5c0 .8-.7 1.8-1.5 2.2s-1.5.1-1.5-.8c0-.8.7-1.8 1.5-2.2s1.5 0 1.5.8z" fill="#539b00"/><path d="m64.5 143.7c-.7.3-1.2.2-1.4-.3-.1.2-.1.4-.1.5 0 .8.7 1.2 1.5.8s1.5-1.4 1.5-2.2c0-.2 0-.3-.1-.5-.2.7-.7 1.4-1.4 1.7z" fill="#183306" opacity=".3"/><path d="m69 140c0 .8-.7 1.8-1.5 2.2s-1.5.1-1.5-.8.7-1.8 1.5-2.2 1.5 0 1.5.8z" fill="#539b00"/><path d="m67.5 141.2c-.7.3-1.2.2-1.4-.3-.1.2-.1.4-.1.5 0 .8.7 1.2 1.5.8s1.5-1.4 1.5-2.2c0-.2 0-.3-.1-.5-.2.7-.7 1.4-1.4 1.7z" fill="#183306" opacity=".3"/><path d="m70 137.5c0 .8-.7 1.8-1.5 2.2s-1.5.1-1.5-.7.7-1.8 1.5-2.2 1.5-.1 1.5.7z" fill="#539b00"/><path d="m68.5 138.7c-.7.3-1.2.2-1.4-.3-.1.2-.1.4-.1.5 0 .8.7 1.2 1.5.8s1.5-1.4 1.5-2.2c0-.2 0-.3-.1-.5-.2.7-.7 1.4-1.4 1.7z" fill="#183306" opacity=".3"/><path d="m72 135.5c0 .8-.7 1.8-1.5 2.2s-1.5.1-1.5-.8c0-.8.7-1.8 1.5-2.2s1.5 0 1.5.8z" fill="#539b00"/><path d="m70.5 136.7c-.7.3-1.2.2-1.4-.3-.1.2-.1.4-.1.5 0 .8.7 1.2 1.5.8s1.5-1.4 1.5-2.2c0-.2 0-.3-.1-.5-.2.7-.7 1.4-1.4 1.7z" fill="#183306" opacity=".3"/><path d="m69 135c0 .8-.7 1.8-1.5 2.2s-1.5.1-1.5-.8.7-1.8 1.5-2.2 1.5 0 1.5.8z" fill="#539b00"/><path d="m67.5 136.2c-.7.3-1.2.2-1.4-.3-.1.2-.1.4-.1.5 0 .8.7 1.2 1.5.8s1.5-1.4 1.5-2.2c0-.2 0-.3-.1-.5-.2.7-.7 1.4-1.4 1.7z" fill="#183306" opacity=".3"/><path d="m67 139c0 .8-.7 1.8-1.5 2.2s-1.5.1-1.5-.8c0-.8.7-1.8 1.5-2.2s1.5 0 1.5.8z" fill="#539b00"/><path d="m65.5 140.2c-.7.3-1.2.2-1.4-.3-.1.2-.1.4-.1.5 0 .8.7 1.2 1.5.8s1.5-1.4 1.5-2.2c0-.2 0-.3-.1-.5-.2.7-.7 1.4-1.4 1.7z" fill="#183306" opacity=".3"/><path d="m65 138c0 .8-.7 1.8-1.5 2.2s-1.5.1-1.5-.8.7-1.8 1.5-2.2 1.5 0 1.5.8z" fill="#539b00"/><path d="m63.5 139.2c-.7.3-1.2.2-1.4-.3-.1.2-.1.4-.1.5 0 .8.7 1.2 1.5.8s1.5-1.4 1.5-2.2c0-.2 0-.3-.1-.5-.2.7-.7 1.4-1.4 1.7z" fill="#183306" opacity=".3"/><path d="m67 133c0 .8-.7 1.8-1.5 2.2s-1.5.1-1.5-.8c0-.8.7-1.8 1.5-2.2s1.5 0 1.5.8z" fill="#539b00"/><path d="m65.5 134.2c-.7.3-1.2.2-1.4-.3-.1.2-.1.4-.1.5 0 .8.7 1.2 1.5.8s1.5-1.4 1.5-2.2c0-.2 0-.3-.1-.5-.2.7-.7 1.4-1.4 1.7z" fill="#183306" opacity=".3"/><path d="m68 130.5c0 .8-.7 1.8-1.5 2.2s-1.5.1-1.5-.7.7-1.8 1.5-2.2 1.5-.1 1.5.7z" fill="#539b00"/><path d="m66.5 131.7c-.7.3-1.2.2-1.4-.3-.1.2-.1.4-.1.5 0 .8.7 1.2 1.5.8s1.5-1.4 1.5-2.2c0-.2 0-.3-.1-.5-.2.7-.7 1.4-1.4 1.7z" fill="#183306" opacity=".3"/><path d="m48 168 64-32v-56l-64 32z" opacity=".39"/><path d="m160 112 64-32v-56l-64 32z" fill="#762c07"/><g fill="#baa794" opacity=".5"><path d="m164 107-3 1.5v2l3-1.5z"/><path d="m168 105-3 1.5v2l3-1.5z"/><path d="m172 103-3 1.5v2l3-1.5z"/><path d="m176 101-3 1.5v2l3-1.5z"/><path d="m180 99-3 1.5v2l3-1.5z"/><path d="m184 97-3 1.5v2l3-1.5z"/><path d="m188 95-3 1.5v2l3-1.5z"/><path d="m192 93-3 1.5v2l3-1.5z"/><path d="m196 91-3 1.5v2l3-1.5z"/><path d="m200 89-3 1.5v2l3-1.5z"/><path d="m204 87-3 1.5v2l3-1.5z"/><path d="m208 85-3 1.5v2l3-1.5z"/><path d="m212 83-3 1.5v2l3-1.5z"/><path d="m216 81-3 1.5v2l3-1.5z"/><path d="m220 79-3 1.5v2l3-1.5z"/><path d="m224 77-3 1.5v2l3-1.5z"/><path d="m162 105-2 1v2l2-1z"/><path d="m166 103-3 1.5v2l3-1.5z"/><path d="m170 101-3 1.5v2l3-1.5z"/><path d="m174 99-3 1.5v2l3-1.5z"/><path d="m178 97-3 1.5v2l3-1.5z"/><path d="m182 95-3 1.5v2l3-1.5z"/><path d="m186 93-3 1.5v2l3-1.5z"/><path d="m190 91-3 1.5v2l3-1.5z"/><path d="m194 89-3 1.5v2l3-1.5z"/><path d="m198 87-3 1.5v2l3-1.5z"/><path d="m202 85-3 1.5v2l3-1.5z"/><path d="m206 83-3 1.5v2l3-1.5z"/><path d="m210 81-3 1.5v2l3-1.5z"/><path d="m214 79-3 1.5v2l3-1.5z"/><path d="m218 77-3 1.5v2l3-1.5z"/><path d="m222 75-3 1.5v2l3-1.5z"/><path d="m224 74-1 .5v2l1-.5z"/><path d="m164 101-3 1.5v2l3-1.5z"/><path d="m168 99-3 1.5v2l3-1.5z"/><path d="m172 97-3 1.5v2l3-1.5z"/><path d="m176 95-3 1.5v2l3-1.5z"/><path d="m180 93-3 1.5v2l3-1.5z"/><path d="m184 91-3 1.5v2l3-1.5z"/><path d="m188 89-3 1.5v2l3-1.5z"/><path d="m192 87-3 1.5v2l3-1.5z"/><path d="m196 85-3 1.5v2l3-1.5z"/><path d="m200 83-3 1.5v2l3-1.5z"/><path d="m204 81-3 1.5v2l3-1.5z"/><path d="m208 79-3 1.5v2l3-1.5z"/><path d="m212 77-3 1.5v2l3-1.5z"/><path d="m216 75-3 1.5v2l3-1.5z"/><path d="m220 73-3 1.5v2l3-1.5z"/><path d="m224 71-3 1.5v2l3-1.5z"/><path d="m162 99-2 1v2l2-1z"/><path d="m166 97-3 1.5v2l3-1.5z"/><path d="m170 95-3 1.5v2l3-1.5z"/><path d="m174 93-3 1.5v2l3-1.5z"/><path d="m178 91-3 1.5v2l3-1.5z"/><path d="m182 89-3 1.5v2l3-1.5z"/><path d="m186 87-3 1.5v2l3-1.5z"/><path d="m190 85-3 1.5v2l3-1.5z"/><path d="m194 83-3 1.5v2l3-1.5z"/><path d="m198 81-3 1.5v2l3-1.5z"/><path d="m202 79-3 1.5v2l3-1.5z"/><path d="m206 77-3 1.5v2l3-1.5z"/><path d="m210 75-3 1.5v2l3-1.5z"/><path d="m214 73-3 1.5v2l3-1.5z"/><path d="m218 71-3 1.5v2l3-1.5z"/><path d="m222 69-3 1.5v2l3-1.5z"/><path d="m224 68-1 .5v2l1-.5z"/><path d="m164 95-3 1.5v2l3-1.5z"/><path d="m168 93-3 1.5v2l3-1.5z"/><path d="m172 91-3 1.5v2l3-1.5z"/><path d="m176 89-3 1.5v2l3-1.5z"/><path d="m180 87-3 1.5v2l3-1.5z"/><path d="m184 85-3 1.5v2l3-1.5z"/><path d="m188 83-3 1.5v2l3-1.5z"/><path d="m192 81-3 1.5v2l3-1.5z"/><path d="m196 79-3 1.5v2l3-1.5z"/><path d="m200 77-3 1.5v2l3-1.5z"/><path d="m204 75-3 1.5v2l3-1.5z"/><path d="m208 73-3 1.5v2l3-1.5z"/><path d="m212 71-3 1.5v2l3-1.5z"/><path d="m216 69-3 1.5v2l3-1.5z"/><path d="m220 67-3 1.5v2l3-1.5z"/><path d="m224 65-3 1.5v2l3-1.5z"/><path d="m162 93-2 1v2l2-1z"/><path d="m166 91-3 1.5v2l3-1.5z"/><path d="m170 89-3 1.5v2l3-1.5z"/><path d="m174 87-3 1.5v2l3-1.5z"/><path d="m178 85-3 1.5v2l3-1.5z"/><path d="m182 83-3 1.5v2l3-1.5z"/><path d="m186 81-3 1.5v2l3-1.5z"/><path d="m190 79-3 1.5v2l3-1.5z"/><path d="m194 77-3 1.5v2l3-1.5z"/><path d="m198 75-3 1.5v2l3-1.5z"/><path d="m202 73-3 1.5v2l3-1.5z"/><path d="m206 71-3 1.5v2l3-1.5z"/><path d="m210 69-3 1.5v2l3-1.5z"/><path d="m214 67-3 1.5v2l3-1.5z"/><path d="m218 65-3 1.5v2l3-1.5z"/><path d="m222 63-3 1.5v2l3-1.5z"/><path d="m224 62-1 .5v2l1-.5z"/><path d="m164 89-3 1.5v2l3-1.5z"/><path d="m168 87-3 1.5v2l3-1.5z"/><path d="m172 85-3 1.5v2l3-1.5z"/><path d="m176 83-3 1.5v2l3-1.5z"/><path d="m180 81-3 1.5v2l3-1.5z"/><path d="m184 79-3 1.5v2l3-1.5z"/><path d="m188 77-3 1.5v2l3-1.5z"/><path d="m192 75-3 1.5v2l3-1.5z"/><path d="m196 73-3 1.5v2l3-1.5z"/><path d="m200 71-3 1.5v2l3-1.5z"/><path d="m204 69-3 1.5v2l3-1.5z"/><path d="m208 67-3 1.5v2l3-1.5z"/><path d="m212 65-3 1.5v2l3-1.5z"/><path d="m216 63-3 1.5v2l3-1.5z"/><path d="m220 61-3 1.5v2l3-1.5z"/><path d="m224 59-3 1.5v2l3-1.5z"/><path d="m162 87-2 1v2l2-1z"/><path d="m166 85-3 1.5v2l3-1.5z"/><path d="m170 83-3 1.5v2l3-1.5z"/><path d="m174 81-3 1.5v2l3-1.5z"/><path d="m178 79-3 1.5v2l3-1.5z"/><path d="m182 77-3 1.5v2l3-1.5z"/><path d="m186 75-3 1.5v2l3-1.5z"/><path d="m190 73-3 1.5v2l3-1.5z"/><path d="m194 71-3 1.5v2l3-1.5z"/><path d="m198 69-3 1.5v2l3-1.5z"/><path d="m202 67-3 1.5v2l3-1.5z"/><path d="m206 65-3 1.5v2l3-1.5z"/><path d="m210 63-3 1.5v2l3-1.5z"/><path d="m214 61-3 1.5v2l3-1.5z"/><path d="m218 59-3 1.5v2l3-1.5z"/><path d="m222 57-3 1.5v2l3-1.5z"/><path d="m224 56-1 .5v2l1-.5z"/><path d="m164 83-3 1.5v2l3-1.5z"/><path d="m168 81-3 1.5v2l3-1.5z"/><path d="m172 79-3 1.5v2l3-1.5z"/><path d="m176 77-3 1.5v2l3-1.5z"/><path d="m180 75-3 1.5v2l3-1.5z"/><path d="m184 73-3 1.5v2l3-1.5z"/><path d="m188 71-3 1.5v2l3-1.5z"/><path d="m192 69-3 1.5v2l3-1.5z"/><path d="m196 67-3 1.5v2l3-1.5z"/><path d="m200 65-3 1.5v2l3-1.5z"/><path d="m204 63-3 1.5v2l3-1.5z"/><path d="m208 61-3 1.5v2l3-1.5z"/><path d="m212 59-3 1.5v2l3-1.5z"/><path d="m216 57-3 1.5v2l3-1.5z"/><path d="m220 55-3 1.5v2l3-1.5z"/><path d="m224 53-3 1.5v2l3-1.5z"/><path d="m162 81-2 1v2l2-1z"/><path d="m166 79-3 1.5v2l3-1.5z"/><path d="m170 77-3 1.5v2l3-1.5z"/><path d="m174 75-3 1.5v2l3-1.5z"/><path d="m178 73-3 1.5v2l3-1.5z"/><path d="m182 71-3 1.5v2l3-1.5z"/><path d="m186 69-3 1.5v2l3-1.5z"/><path d="m190 67-3 1.5v2l3-1.5z"/><path d="m194 65-3 1.5v2l3-1.5z"/><path d="m198 63-3 1.5v2l3-1.5z"/><path d="m202 61-3 1.5v2l3-1.5z"/><path d="m206 59-3 1.5v2l3-1.5z"/><path d="m210 57-3 1.5v2l3-1.5z"/><path d="m214 55-3 1.5v2l3-1.5z"/><path d="m218 53-3 1.5v2l3-1.5z"/><path d="m222 51-3 1.5v2l3-1.5z"/><path d="m224 50-1 .5v2l1-.5z"/><path d="m164 77-3 1.5v2l3-1.5z"/><path d="m168 75-3 1.5v2l3-1.5z"/><path d="m172 73-3 1.5v2l3-1.5z"/><path d="m176 71-3 1.5v2l3-1.5z"/><path d="m180 69-3 1.5v2l3-1.5z"/><path d="m184 67-3 1.5v2l3-1.5z"/><path d="m188 65-3 1.5v2l3-1.5z"/><path d="m192 63-3 1.5v2l3-1.5z"/><path d="m196 61-3 1.5v2l3-1.5z"/><path d="m200 59-3 1.5v2l3-1.5z"/><path d="m204 57-3 1.5v2l3-1.5z"/><path d="m208 55-3 1.5v2l3-1.5z"/><path d="m212 53-3 1.5v2l3-1.5z"/><path d="m216 51-3 1.5v2l3-1.5z"/><path d="m220 49-3 1.5v2l3-1.5z"/><path d="m224 47-3 1.5v2l3-1.5z"/><path d="m162 75-2 1v2l2-1z"/><path d="m166 73-3 1.5v2l3-1.5z"/><path d="m170 71-3 1.5v2l3-1.5z"/><path d="m174 69-3 1.5v2l3-1.5z"/><path d="m178 67-3 1.5v2l3-1.5z"/><path d="m182 65-3 1.5v2l3-1.5z"/><path d="m186 63-3 1.5v2l3-1.5z"/><path d="m190 61-3 1.5v2l3-1.5z"/><path d="m194 59-3 1.5v2l3-1.5z"/><path d="m198 57-3 1.5v2l3-1.5z"/><path d="m202 55-3 1.5v2l3-1.5z"/><path d="m206 53-3 1.5v2l3-1.5z"/><path d="m210 51-3 1.5v2l3-1.5z"/><path d="m214 49-3 1.5v2l3-1.5z"/><path d="m218 47-3 1.5v2l3-1.5z"/><path d="m222 45-3 1.5v2l3-1.5z"/><path d="m224 44-1 .5v2l1-.5z"/><path d="m164 71-3 1.5v2l3-1.5z"/><path d="m168 69-3 1.5v2l3-1.5z"/><path d="m172 67-3 1.5v2l3-1.5z"/><path d="m176 65-3 1.5v2l3-1.5z"/><path d="m180 63-3 1.5v2l3-1.5z"/><path d="m184 61-3 1.5v2l3-1.5z"/><path d="m188 59-3 1.5v2l3-1.5z"/><path d="m192 57-3 1.5v2l3-1.5z"/><path d="m196 55-3 1.5v2l3-1.5z"/><path d="m200 53-3 1.5v2l3-1.5z"/><path d="m204 51-3 1.5v2l3-1.5z"/><path d="m208 49-3 1.5v2l3-1.5z"/><path d="m212 47-3 1.5v2l3-1.5z"/><path d="m216 45-3 1.5v2l3-1.5z"/><path d="m220 43-3 1.5v2l3-1.5z"/><path d="m224 41-3 1.5v2l3-1.5z"/><path d="m162 69-2 1v2l2-1z"/><path d="m166 67-3 1.5v2l3-1.5z"/><path d="m170 65-3 1.5v2l3-1.5z"/><path d="m174 63-3 1.5v2l3-1.5z"/><path d="m178 61-3 1.5v2l3-1.5z"/><path d="m182 59-3 1.5v2l3-1.5z"/><path d="m186 57-3 1.5v2l3-1.5z"/><path d="m190 55-3 1.5v2l3-1.5z"/><path d="m194 53-3 1.5v2l3-1.5z"/><path d="m198 51-3 1.5v2l3-1.5z"/><path d="m202 49-3 1.5v2l3-1.5z"/><path d="m206 47-3 1.5v2l3-1.5z"/><path d="m210 45-3 1.5v2l3-1.5z"/><path d="m214 43-3 1.5v2l3-1.5z"/><path d="m218 41-3 1.5v2l3-1.5z"/><path d="m222 39-3 1.5v2l3-1.5z"/><path d="m224 38-1 .5v2l1-.5z"/><path d="m164 65-3 1.5v2l3-1.5z"/><path d="m168 63-3 1.5v2l3-1.5z"/><path d="m172 61-3 1.5v2l3-1.5z"/><path d="m176 59-3 1.5v2l3-1.5z"/><path d="m180 57-3 1.5v2l3-1.5z"/><path d="m184 55-3 1.5v2l3-1.5z"/><path d="m188 53-3 1.5v2l3-1.5z"/><path d="m192 51-3 1.5v2l3-1.5z"/><path d="m196 49-3 1.5v2l3-1.5z"/><path d="m200 47-3 1.5v2l3-1.5z"/><path d="m204 45-3 1.5v2l3-1.5z"/><path d="m208 43-3 1.5v2l3-1.5z"/><path d="m212 41-3 1.5v2l3-1.5z"/><path d="m216 39-3 1.5v2l3-1.5z"/><path d="m220 37-3 1.5v2l3-1.5z"/><path d="m224 35-3 1.5v2l3-1.5z"/><path d="m162 63-2 1v2l2-1z"/><path d="m166 61-3 1.5v2l3-1.5z"/><path d="m170 59-3 1.5v2l3-1.5z"/><path d="m174 57-3 1.5v2l3-1.5z"/><path d="m178 55-3 1.5v2l3-1.5z"/><path d="m182 53-3 1.5v2l3-1.5z"/><path d="m186 51-3 1.5v2l3-1.5z"/><path d="m190 49-3 1.5v2l3-1.5z"/><path d="m194 47-3 1.5v2l3-1.5z"/><path d="m198 45-3 1.5v2l3-1.5z"/><path d="m202 43-3 1.5v2l3-1.5z"/><path d="m206 41-3 1.5v2l3-1.5z"/><path d="m210 39-3 1.5v2l3-1.5z"/><path d="m214 37-3 1.5v2l3-1.5z"/><path d="m218 35-3 1.5v2l3-1.5z"/><path d="m222 33-3 1.5v2l3-1.5z"/><path d="m224 32-1 .5v2l1-.5z"/><path d="m164 59-3 1.5v2l3-1.5z"/><path d="m168 57-3 1.5v2l3-1.5z"/><path d="m172 55-3 1.5v2l3-1.5z"/><path d="m176 53-3 1.5v2l3-1.5z"/><path d="m180 51-3 1.5v2l3-1.5z"/><path d="m184 49-3 1.5v2l3-1.5z"/><path d="m188 47-3 1.5v2l3-1.5z"/><path d="m192 45-3 1.5v2l3-1.5z"/><path d="m196 43-3 1.5v2l3-1.5z"/><path d="m200 41-3 1.5v2l3-1.5z"/><path d="m204 39-3 1.5v2l3-1.5z"/><path d="m208 37-3 1.5v2l3-1.5z"/><path d="m212 35-3 1.5v2l3-1.5z"/><path d="m216 33-3 1.5v2l3-1.5z"/><path d="m220 31-3 1.5v2l3-1.5z"/><path d="m224 29-3 1.5v2l3-1.5z"/><path d="m162 57-2 1v2l2-1z"/><path d="m166 55-3 1.5v2l3-1.5z"/><path d="m170 53-3 1.5v2l3-1.5z"/><path d="m174 51-3 1.5v2l3-1.5z"/><path d="m178 49-3 1.5v2l3-1.5z"/><path d="m182 47-3 1.5v2l3-1.5z"/><path d="m186 45-3 1.5v2l3-1.5z"/><path d="m190 43-3 1.5v2l3-1.5z"/><path d="m194 41-3 1.5v2l3-1.5z"/><path d="m198 39-3 1.5v2l3-1.5z"/><path d="m202 37-3 1.5v2l3-1.5z"/><path d="m206 35-3 1.5v2l3-1.5z"/><path d="m210 33-3 1.5v2l3-1.5z"/><path d="m214 31-3 1.5v2l3-1.5z"/><path d="m218 29-3 1.5v2l3-1.5z"/><path d="m222 27-3 1.5v2l3-1.5z"/><path d="m224 26-1 .5v2l1-.5z"/></g><path d="m214.5 66.7.9-.5c2.6-1.2 4.6-.2 4.6 2.3v9.5l-10 5v-9.5c0-2.5 2-5.5 4.5-6.8z" fill="#baa794"/><path d="m215 67.5c2.2-1.1 4-.2 4 2v8l-8 4v-8c0-2.2 1.8-4.9 4-6z" fill="#39c"/><path d="m219 77.5-8 4v-4z" fill="#fff" opacity=".2"/><path d="m215 67.5c-2.2 1.1-4 3.8-4 6v1c0-2.2 1.8-4.9 4-6s4-.2 4 2v-1c0-2.2-1.8-3.1-4-2z" opacity=".15"/><path d="m217 78.5-1 .5v-12l1-.5z" fill="#baa794"/><path d="m214 80-1 .5v-12l1-.5z" fill="#baa794"/><path d="m219 70.5-8 4v-1l8-4z" fill="#baa794"/><path d="m199.5 56.2.9-.5c2.5-1.3 4.5-.2 4.5 2.3v9.5l-10 5v-9.5c.1-2.5 2.1-5.5 4.6-6.8z" fill="#baa794"/><path d="m200 57c2.2-1.1 4-.2 4 2v8l-8 4v-8c0-2.2 1.8-4.9 4-6z" fill="#39c"/><path d="m204 67-8 4v-4z" fill="#fff" opacity=".2"/><path d="m200 57c-2.2 1.1-4 3.8-4 6v1c0-2.2 1.8-4.9 4-6s4-.2 4 2v-1c0-2.2-1.8-3.1-4-2z" opacity=".15"/><path d="m202 68-1 .5v-12l1-.5z" fill="#baa794"/><path d="m199 69.5-1 .5v-12l1-.5z" fill="#baa794"/><path d="m204 60-8 4v-1l8-4z" fill="#baa794"/><path d="m199.5 74.2.9-.5c2.5-1.3 4.5-.2 4.5 2.3v9.5l-10 5v-9.5c.1-2.5 2.1-5.5 4.6-6.8z" fill="#baa794"/><path d="m200 75c2.2-1.1 4-.2 4 2v8l-8 4v-8c0-2.2 1.8-4.9 4-6z" fill="#39c"/><path d="m204 85-8 4v-8z" fill="#fff" opacity=".2"/><path d="m200 75c-2.2 1.1-4 3.8-4 6v1c0-2.2 1.8-4.9 4-6s4-.2 4 2v-1c0-2.2-1.8-3.1-4-2z" opacity=".15"/><path d="m202 86-1 .5v-12l1-.5z" fill="#baa794"/><path d="m199 87.5-1 .5v-12l1-.5z" fill="#baa794"/><path d="m204 78-8 4v-1l8-4z" fill="#baa794"/><path d="m169.5 71.2.9-.5c2.5-1.3 4.5-.2 4.5 2.3v9.5l-10 5v-9.5c.1-2.5 2.1-5.5 4.6-6.8z" fill="#baa794"/><path d="m170 72c2.2-1.1 4-.2 4 2v8l-8 4v-8c0-2.2 1.8-4.9 4-6z" fill="#39c"/><path d="m174 82-8 4v-8z" fill="#fff" opacity=".2"/><path d="m170 72c-2.2 1.1-4 3.8-4 6v1c0-2.2 1.8-4.9 4-6s4-.2 4 2v-1c0-2.2-1.8-3.1-4-2z" opacity=".15"/><path d="m172 83-1 .5v-12l1-.5z" fill="#baa794"/><path d="m169 84.5-1 .5v-12l1-.5z" fill="#baa794"/><path d="m174 75-8 4v-1l8-4z" fill="#baa794"/><path d="m214.5 48.7.9-.5c2.6-1.2 4.6-.2 4.6 2.3v9.5l-10 5v-9.5c0-2.5 2-5.5 4.5-6.8z" fill="#baa794"/><path d="m215 49.5c2.2-1.1 4-.2 4 2v8l-8 4v-8c0-2.2 1.8-4.9 4-6z" fill="#39c"/><path d="m215 49.5c-2.2 1.1-4 3.8-4 6v1c0-2.2 1.8-4.9 4-6s4-.2 4 2v-1c0-2.2-1.8-3.1-4-2z" opacity=".15"/><path d="m217 60.5-1 .5v-12l1-.5z" fill="#baa794"/><path d="m214 62-1 .5v-12l1-.5z" fill="#baa794"/><path d="m219 52.5-8 4v-1l8-4z" fill="#baa794"/><path d="m184.5 63.7.9-.5c2.6-1.2 4.6-.2 4.6 2.3v9.5l-10 5v-9.5c0-2.5 2-5.5 4.5-6.8z" fill="#baa794"/><path d="m185 64.5c2.2-1.1 4-.2 4 2v8l-8 4v-8c0-2.2 1.8-4.9 4-6z" fill="#39c"/><path d="m185 64.5c-2.2 1.1-4 3.8-4 6v1c0-2.2 1.8-4.9 4-6s4-.2 4 2v-1c0-2.2-1.8-3.1-4-2z" opacity=".15"/><path d="m187 75.5-1 .5v-12l1-.5z" fill="#baa794"/><path d="m184 77-1 .5v-12l1-.5z" fill="#baa794"/><path d="m189 67.5-8 4v-1l8-4z" fill="#baa794"/><path d="m169.5 89.2.9-.5c2.5-1.3 4.5-.2 4.5 2.3v9.5l-10 5v-9.5c.1-2.5 2.1-5.5 4.6-6.8z" fill="#baa794"/><path d="m170 90c2.2-1.1 4-.2 4 2v8l-8 4v-8c0-2.2 1.8-4.9 4-6z" fill="#39c"/><path d="m170 90c-2.2 1.1-4 3.8-4 6v1c0-2.2 1.8-4.9 4-6s4-.2 4 2v-1c0-2.2-1.8-3.1-4-2z" opacity=".15"/><path d="m172 101-1 .5v-12l1-.5z" fill="#baa794"/><path d="m169 102.5-1 .5v-12l1-.5z" fill="#baa794"/><path d="m174 93-8 4v-1l8-4z" fill="#baa794"/><path d="m184.5 81.7.9-.5c2.6-1.2 4.6-.2 4.6 2.3v9.5l-10 5v-9.5c0-2.5 2-5.5 4.5-6.8z" fill="#baa794"/><path d="m185 82.5c2.2-1.1 4-.2 4 2v8l-8 4v-8c0-2.2 1.8-4.9 4-6z" fill="#39c"/><path d="m185 82.5c-2.2 1.1-4 3.8-4 6v1c0-2.2 1.8-4.9 4-6s4-.2 4 2v-1c0-2.2-1.8-3.1-4-2z" opacity=".15"/><path d="m187 93.5-1 .5v-12l1-.5z" fill="#baa794"/><path d="m184 95-1 .5v-12l1-.5z" fill="#baa794"/><path d="m189 85.5-8 4v-1l8-4z" fill="#baa794"/><path d="m214.5 33.7.9-.5c2.6-1.2 4.6-.2 4.6 2.3v6.5l-10 5v-6.5c0-2.5 2-5.5 4.5-6.8z" fill="#baa794"/><path d="m215 34.5c2.2-1.1 4-.2 4 2v5l-8 4v-5c0-2.2 1.8-4.9 4-6z" fill="#39c"/><path d="m219 41.5-8 4v-5z" fill="#fff" opacity=".2"/><path d="m215 34.5c-2.2 1.1-4 3.8-4 6v1c0-2.2 1.8-4.9 4-6s4-.2 4 2v-1c0-2.2-1.8-3.1-4-2z" opacity=".15"/><path d="m217 42.5-1 .5v-9l1-.5z" fill="#baa794"/><path d="m214 44-1 .5v-9l1-.5z" fill="#baa794"/><path d="m219 37.5-8 4v-1l8-4z" fill="#baa794"/><path d="m199.5 41.2.9-.5c2.5-1.3 4.5-.2 4.5 2.3v6.5l-10 5v-6.5c.1-2.5 2.1-5.5 4.6-6.8z" fill="#baa794"/><path d="m200 42c2.2-1.1 4-.2 4 2v5l-8 4v-5c0-2.2 1.8-4.9 4-6z" fill="#39c"/><path d="m200 42c-2.2 1.1-4 3.8-4 6v1c0-2.2 1.8-4.9 4-6s4-.2 4 2v-1c0-2.2-1.8-3.1-4-2z" opacity=".15"/><path d="m202 50-1 .5v-9l1-.5z" fill="#baa794"/><path d="m199 51.5-1 .5v-9l1-.5z" fill="#baa794"/><path d="m204 45-8 4v-1l8-4z" fill="#baa794"/><path d="m184.5 48.7.9-.5c2.6-1.2 4.6-.2 4.6 2.3v6.5l-10 5v-6.5c0-2.5 2-5.5 4.5-6.8z" fill="#baa794"/><path d="m185 49.5c2.2-1.1 4-.2 4 2v5l-8 4v-5c0-2.2 1.8-4.9 4-6z" fill="#39c"/><path d="m189 56.5-8 4v-3z" fill="#fff" opacity=".2"/><path d="m185 49.5c-2.2 1.1-4 3.8-4 6v1c0-2.2 1.8-4.9 4-6s4-.2 4 2v-1c0-2.2-1.8-3.1-4-2z" opacity=".15"/><path d="m187 57.5-1 .5v-9l1-.5z" fill="#baa794"/><path d="m184 59-1 .5v-9l1-.5z" fill="#baa794"/><path d="m189 52.5-8 4v-1l8-4z" fill="#baa794"/><path d="m169.5 56.2.9-.5c2.5-1.3 4.5-.2 4.5 2.3v6.5l-10 5v-6.5c.1-2.5 2.1-5.5 4.6-6.8z" fill="#baa794"/><path d="m170 57c2.2-1.1 4-.2 4 2v5l-8 4v-5c0-2.2 1.8-4.9 4-6z" fill="#39c"/><path d="m170 57c-2.2 1.1-4 3.8-4 6v1c0-2.2 1.8-4.9 4-6s4-.2 4 2v-1c0-2.2-1.8-3.1-4-2z" opacity=".15"/><path d="m172 65-1 .5v-9l1-.5z" fill="#baa794"/><path d="m169 66.5-1 .5v-9l1-.5z" fill="#baa794"/><path d="m174 60-8 4v-1l8-4z" fill="#baa794"/><path d="m175 100.5-10 5v-1l10-5z" fill="#f8ebcb"/><path d="m190 93-10 5v-1l10-5z" fill="#f8ebcb"/><path d="m205 85.5-10 5v-1l10-5z" fill="#f8ebcb"/><path d="m220 78-10 5v-1l10-5z" fill="#f8ebcb"/><path d="m175 82.5-10 5v-1l10-5z" fill="#f8ebcb"/><path d="m190 75-10 5v-1l10-5z" fill="#f8ebcb"/><path d="m205 67.5-10 5v-1l10-5z" fill="#f8ebcb"/><path d="m220 60-10 5v-1l10-5z" fill="#f8ebcb"/><path d="m175 64.5-10 5v-1l10-5z" fill="#f8ebcb"/><path d="m190 57-10 5v-1l10-5z" fill="#f8ebcb"/><path d="m205 49.5-10 5v-1l10-5z" fill="#f8ebcb"/><path d="m220 42-10 5v-1l10-5z" fill="#f8ebcb"/><path d="m194 92.5c0 .8-.7 1.8-1.5 2.2s-1.5.1-1.5-.7.7-1.8 1.5-2.2 1.5-.1 1.5.7z" fill="#539b00"/><path d="m192.5 93.7c-.7.3-1.2.2-1.4-.3-.1.2-.1.4-.1.5 0 .8.7 1.2 1.5.8s1.5-1.4 1.5-2.2c0-.2 0-.3-.1-.5-.2.7-.7 1.4-1.4 1.7z" fill="#183306" opacity=".3"/><path d="m196 90.5c0 .8-.7 1.8-1.5 2.2s-1.5.1-1.5-.7.7-1.8 1.5-2.2 1.5-.1 1.5.7z" fill="#539b00"/><path d="m194.5 91.7c-.7.3-1.2.2-1.4-.3-.1.2-.1.4-.1.5 0 .8.7 1.2 1.5.8s1.5-1.4 1.5-2.2c0-.2 0-.3-.1-.5-.2.7-.7 1.4-1.4 1.7z" fill="#183306" opacity=".3"/><path d="m198 91.5c0 .8-.7 1.8-1.5 2.2s-1.5.1-1.5-.7.7-1.8 1.5-2.2 1.5-.1 1.5.7z" fill="#539b00"/><path d="m196.5 92.7c-.7.3-1.2.2-1.4-.3-.1.2-.1.4-.1.5 0 .8.7 1.2 1.5.8s1.5-1.4 1.5-2.2c0-.2 0-.3-.1-.5-.2.7-.7 1.4-1.4 1.7z" fill="#183306" opacity=".3"/><path d="m200 89.5c0 .8-.7 1.8-1.5 2.2s-1.5.1-1.5-.7.7-1.8 1.5-2.2 1.5-.1 1.5.7z" fill="#539b00"/><path d="m198.5 90.7c-.7.3-1.2.2-1.4-.3-.1.2-.1.4-.1.5 0 .8.7 1.2 1.5.8s1.5-1.4 1.5-2.2c0-.2 0-.3-.1-.5-.2.7-.7 1.4-1.4 1.7z" fill="#183306" opacity=".3"/><path d="m196 92.5c0 .8-.7 1.8-1.5 2.2s-1.5.1-1.5-.7.7-1.8 1.5-2.2 1.5-.1 1.5.7z" fill="#539b00"/><path d="m194.5 93.7c-.7.3-1.2.2-1.4-.3-.1.2-.1.4-.1.5 0 .8.7 1.2 1.5.8s1.5-1.4 1.5-2.2c0-.2 0-.3-.1-.5-.2.7-.7 1.4-1.4 1.7z" fill="#183306" opacity=".3"/><path d="m194 93.5c0 .8-.7 1.8-1.5 2.2s-1.5.1-1.5-.7.7-1.8 1.5-2.2 1.5-.1 1.5.7z" fill="#539b00"/><path d="m192.5 94.7c-.7.3-1.2.2-1.4-.3-.1.2-.1.4-.1.5 0 .8.7 1.2 1.5.8s1.5-1.4 1.5-2.2c0-.2 0-.3-.1-.5-.2.7-.7 1.4-1.4 1.7z" fill="#183306" opacity=".3"/><path d="m192 94.5c0 .8-.7 1.8-1.5 2.2s-1.5.1-1.5-.7.7-1.8 1.5-2.2 1.5-.1 1.5.7z" fill="#539b00"/><path d="m190.5 95.7c-.7.3-1.2.2-1.4-.3-.1.2-.1.4-.1.5 0 .8.7 1.2 1.5.8s1.5-1.4 1.5-2.2c0-.2 0-.3-.1-.5-.2.7-.7 1.4-1.4 1.7z" fill="#183306" opacity=".3"/><path d="m195 93c0 .8-.7 1.8-1.5 2.2s-1.5.1-1.5-.8c0-.8.7-1.8 1.5-2.2s1.5 0 1.5.8z" fill="#539b00"/><path d="m193.5 94.2c-.7.3-1.2.2-1.4-.3-.1.2-.1.4-.1.5 0 .8.7 1.2 1.5.8s1.5-1.4 1.5-2.2c0-.2 0-.3-.1-.5-.2.7-.7 1.4-1.4 1.7z" fill="#183306" opacity=".3"/><path d="m191 95c0 .8-.7 1.8-1.5 2.2s-1.5.1-1.5-.8.7-1.8 1.5-2.2 1.5 0 1.5.8z" fill="#539b00"/><path d="m189.5 96.2c-.7.3-1.2.2-1.4-.3-.1.2-.1.4-.1.5 0 .8.7 1.2 1.5.8s1.5-1.4 1.5-2.2c0-.2 0-.3-.1-.5-.2.7-.7 1.4-1.4 1.7z" fill="#183306" opacity=".3"/><path d="m190 94.5c0 .8-.7 1.8-1.5 2.2s-1.5.1-1.5-.7.7-1.8 1.5-2.2 1.5-.1 1.5.7z" fill="#539b00"/><path d="m188.5 95.7c-.7.3-1.2.2-1.4-.3-.1.2-.1.4-.1.5 0 .8.7 1.2 1.5.8s1.5-1.4 1.5-2.2c0-.2 0-.3-.1-.5-.2.7-.7 1.4-1.4 1.7z" fill="#183306" opacity=".3"/><path d="m188 96.5c0 .8-.7 1.8-1.5 2.2s-1.5.1-1.5-.8c0-.8.7-1.8 1.5-2.2s1.5 0 1.5.8z" fill="#539b00"/><path d="m186.5 97.7c-.7.3-1.2.2-1.4-.3-.1.2-.1.4-.1.5 0 .8.7 1.2 1.5.8s1.5-1.4 1.5-2.2c0-.2 0-.3-.1-.5-.2.7-.7 1.4-1.4 1.7z" fill="#183306" opacity=".3"/><path d="m193 91c0 .8-.7 1.8-1.5 2.2s-1.5.1-1.5-.8.7-1.8 1.5-2.2 1.5 0 1.5.8z" fill="#539b00"/><path d="m191.5 92.2c-.7.3-1.2.2-1.4-.3-.1.2-.1.4-.1.5 0 .8.7 1.2 1.5.8s1.5-1.4 1.5-2.2c0-.2 0-.3-.1-.5-.2.7-.7 1.4-1.4 1.7z" fill="#183306" opacity=".3"/><path d="m195 88c0 .8-.7 1.8-1.5 2.2s-1.5.1-1.5-.8c0-.8.7-1.8 1.5-2.2s1.5 0 1.5.8z" fill="#539b00"/><path d="m193.5 89.2c-.7.3-1.2.2-1.4-.3-.1.2-.1.4-.1.5 0 .8.7 1.2 1.5.8s1.5-1.4 1.5-2.2c0-.2 0-.3-.1-.5-.2.7-.7 1.4-1.4 1.7z" fill="#183306" opacity=".3"/><path d="m193 87c0 .8-.7 1.8-1.5 2.2s-1.5.1-1.5-.8.7-1.8 1.5-2.2 1.5 0 1.5.8z" fill="#539b00"/><path d="m191.5 88.2c-.7.3-1.2.2-1.4-.3-.1.2-.1.4-.1.5 0 .8.7 1.2 1.5.8s1.5-1.4 1.5-2.2c0-.2 0-.3-.1-.5-.2.7-.7 1.4-1.4 1.7z" fill="#183306" opacity=".3"/><path d="m195 85c0 .8-.7 1.8-1.5 2.2s-1.5.1-1.5-.8c0-.8.7-1.8 1.5-2.2s1.5 0 1.5.8z" fill="#539b00"/><path d="m193.5 86.2c-.7.3-1.2.2-1.4-.3-.1.2-.1.4-.1.5 0 .8.7 1.2 1.5.8s1.5-1.4 1.5-2.2c0-.2 0-.3-.1-.5-.2.7-.7 1.4-1.4 1.7z" fill="#183306" opacity=".3"/><path d="m194 84.5c0 .8-.7 1.8-1.5 2.2s-1.5.1-1.5-.7.7-1.8 1.5-2.2 1.5-.1 1.5.7z" fill="#539b00"/><path d="m192.5 85.7c-.7.3-1.2.2-1.4-.3-.1.2-.1.4-.1.5 0 .8.7 1.2 1.5.8s1.5-1.4 1.5-2.2c0-.2 0-.3-.1-.5-.2.7-.7 1.4-1.4 1.7z" fill="#183306" opacity=".3"/><path d="m192 83.5c0 .8-.7 1.8-1.5 2.2s-1.5.1-1.5-.7.7-1.8 1.5-2.2 1.5-.1 1.5.7z" fill="#539b00"/><path d="m190.5 84.7c-.7.3-1.2.2-1.4-.3-.1.2-.1.4-.1.5 0 .8.7 1.2 1.5.8s1.5-1.4 1.5-2.2c0-.2 0-.3-.1-.5-.2.7-.7 1.4-1.4 1.7z" fill="#183306" opacity=".3"/><path d="m195 81c0 .8-.7 1.8-1.5 2.2s-1.5.1-1.5-.8c0-.8.7-1.8 1.5-2.2s1.5 0 1.5.8z" fill="#539b00"/><path d="m193.5 82.2c-.7.3-1.2.2-1.4-.3-.1.2-.1.4-.1.5 0 .8.7 1.2 1.5.8s1.5-1.4 1.5-2.2c0-.2 0-.3-.1-.5-.2.7-.7 1.4-1.4 1.7z" fill="#183306" opacity=".3"/><path d="m196 78.5c0 .8-.7 1.8-1.5 2.2s-1.5.1-1.5-.7.7-1.8 1.5-2.2 1.5-.1 1.5.7z" fill="#539b00"/><path d="m194.5 79.7c-.7.3-1.2.2-1.4-.3-.1.2-.1.4-.1.5 0 .8.7 1.2 1.5.8s1.5-1.4 1.5-2.2c0-.2 0-.3-.1-.5-.2.7-.7 1.4-1.4 1.7z" fill="#183306" opacity=".3"/><path d="m193 81c0 .8-.7 1.8-1.5 2.2s-1.5.1-1.5-.8.7-1.8 1.5-2.2 1.5 0 1.5.8z" fill="#539b00"/><path d="m191.5 82.2c-.7.3-1.2.2-1.4-.3-.1.2-.1.4-.1.5 0 .8.7 1.2 1.5.8s1.5-1.4 1.5-2.2c0-.2 0-.3-.1-.5-.2.7-.7 1.4-1.4 1.7z" fill="#183306" opacity=".3"/><path d="m192 78.5c0 .8-.7 1.8-1.5 2.2s-1.5.1-1.5-.7.7-1.8 1.5-2.2 1.5-.1 1.5.7z" fill="#539b00"/><path d="m190.5 79.7c-.7.3-1.2.2-1.4-.3-.1.2-.1.4-.1.5 0 .8.7 1.2 1.5.8s1.5-1.4 1.5-2.2c0-.2 0-.3-.1-.5-.2.7-.7 1.4-1.4 1.7z" fill="#183306" opacity=".3"/><path d="m194 69.5c0 .8-.7 1.8-1.5 2.2s-1.5.1-1.5-.7.7-1.8 1.5-2.2 1.5-.1 1.5.7z" fill="#539b00"/><path d="m192.5 70.7c-.7.3-1.2.2-1.4-.3-.1.2-.1.4-.1.5 0 .8.7 1.2 1.5.8s1.5-1.4 1.5-2.2c0-.2 0-.3-.1-.5-.2.7-.7 1.4-1.4 1.7z" fill="#183306" opacity=".3"/><path d="m195 66c0 .8-.7 1.8-1.5 2.2s-1.5.1-1.5-.8c0-.8.7-1.8 1.5-2.2s1.5 0 1.5.8z" fill="#539b00"/><path d="m193.5 67.2c-.7.3-1.2.2-1.4-.3-.1.2-.1.4-.1.5 0 .8.7 1.2 1.5.8s1.5-1.4 1.5-2.2c0-.2 0-.3-.1-.5-.2.7-.7 1.4-1.4 1.7z" fill="#183306" opacity=".3"/><path d="m193 64c0 .8-.7 1.8-1.5 2.2s-1.5.1-1.5-.8.7-1.8 1.5-2.2 1.5 0 1.5.8z" fill="#539b00"/><path d="m191.5 65.2c-.7.3-1.2.2-1.4-.3-.1.2-.1.4-.1.5 0 .8.7 1.2 1.5.8s1.5-1.4 1.5-2.2c0-.2 0-.3-.1-.5-.2.7-.7 1.4-1.4 1.7z" fill="#183306" opacity=".3"/><path d="m195 77c0 .8-.7 1.8-1.5 2.2s-1.5.1-1.5-.8c0-.8.7-1.8 1.5-2.2s1.5 0 1.5.8z" fill="#539b00"/><path d="m193.5 78.2c-.7.3-1.2.2-1.4-.3-.1.2-.1.4-.1.5 0 .8.7 1.2 1.5.8s1.5-1.4 1.5-2.2c0-.2 0-.3-.1-.5-.2.7-.7 1.4-1.4 1.7z" fill="#183306" opacity=".3"/><path d="m198 74.5c0 .8-.7 1.8-1.5 2.2s-1.5.1-1.5-.7.7-1.8 1.5-2.2 1.5-.1 1.5.7z" fill="#539b00"/><path d="m196.5 75.7c-.7.3-1.2.2-1.4-.3-.1.2-.1.4-.1.5 0 .8.7 1.2 1.5.8s1.5-1.4 1.5-2.2c0-.2 0-.3-.1-.5-.2.7-.7 1.4-1.4 1.7z" fill="#183306" opacity=".3"/><path d="m200 71.5c0 .8-.7 1.8-1.5 2.2s-1.5.1-1.5-.7.7-1.8 1.5-2.2 1.5-.1 1.5.7z" fill="#539b00"/><path d="m198.5 72.7c-.7.3-1.2.2-1.4-.3-.1.2-.1.4-.1.5 0 .8.7 1.2 1.5.8s1.5-1.4 1.5-2.2c0-.2 0-.3-.1-.5-.2.7-.7 1.4-1.4 1.7z" fill="#183306" opacity=".3"/><path d="m201 73c0 .8-.7 1.8-1.5 2.2s-1.5.1-1.5-.8c0-.8.7-1.8 1.5-2.2s1.5 0 1.5.8z" fill="#539b00"/><path d="m199.5 74.2c-.7.3-1.2.2-1.4-.3-.1.2-.1.4-.1.5 0 .8.7 1.2 1.5.8s1.5-1.4 1.5-2.2c0-.2 0-.3-.1-.5-.2.7-.7 1.4-1.4 1.7z" fill="#183306" opacity=".3"/><path d="m203 71c0 .8-.7 1.8-1.5 2.2s-1.5.1-1.5-.8c0-.8.7-1.8 1.5-2.2s1.5 0 1.5.8z" fill="#539b00"/><path d="m201.5 72.2c-.7.3-1.2.2-1.4-.3-.1.2-.1.4-.1.5 0 .8.7 1.2 1.5.8s1.5-1.4 1.5-2.2c0-.2 0-.3-.1-.5-.2.7-.7 1.4-1.4 1.7z" fill="#183306" opacity=".3"/><path d="m206 70.5c0 .8-.7 1.8-1.5 2.2s-1.5.1-1.5-.8c0-.8.7-1.8 1.5-2.2s1.5 0 1.5.8z" fill="#539b00"/><path d="m204.5 71.7c-.7.3-1.2.2-1.4-.3-.1.2-.1.4-.1.5 0 .8.7 1.2 1.5.8s1.5-1.4 1.5-2.2c0-.2 0-.3-.1-.5-.2.7-.7 1.4-1.4 1.7z" fill="#183306" opacity=".3"/><path d="m196 73.5c0 .8-.7 1.8-1.5 2.2s-1.5.1-1.5-.7.7-1.8 1.5-2.2 1.5-.1 1.5.7z" fill="#539b00"/><path d="m194.5 74.7c-.7.3-1.2.2-1.4-.3-.1.2-.1.4-.1.5 0 .8.7 1.2 1.5.8s1.5-1.4 1.5-2.2c0-.2 0-.3-.1-.5-.2.7-.7 1.4-1.4 1.7z" fill="#183306" opacity=".3"/><path d="m195 72c0 .8-.7 1.8-1.5 2.2s-1.5.1-1.5-.8c0-.8.7-1.8 1.5-2.2s1.5 0 1.5.8z" fill="#539b00"/><path d="m193.5 73.2c-.7.3-1.2.2-1.4-.3-.1.2-.1.4-.1.5 0 .8.7 1.2 1.5.8s1.5-1.4 1.5-2.2c0-.2 0-.3-.1-.5-.2.7-.7 1.4-1.4 1.7z" fill="#183306" opacity=".3"/><path d="m193 76c0 .8-.7 1.8-1.5 2.2s-1.5.1-1.5-.8.7-1.8 1.5-2.2 1.5 0 1.5.8z" fill="#539b00"/><path d="m191.5 77.2c-.7.3-1.2.2-1.4-.3-.1.2-.1.4-.1.5 0 .8.7 1.2 1.5.8s1.5-1.4 1.5-2.2c0-.2 0-.3-.1-.5-.2.7-.7 1.4-1.4 1.7z" fill="#183306" opacity=".3"/><path d="m193 72c0 .8-.7 1.8-1.5 2.2s-1.5.1-1.5-.8.7-1.8 1.5-2.2 1.5 0 1.5.8z" fill="#539b00"/><path d="m191.5 73.2c-.7.3-1.2.2-1.4-.3-.1.2-.1.4-.1.5 0 .8.7 1.2 1.5.8s1.5-1.4 1.5-2.2c0-.2 0-.3-.1-.5-.2.7-.7 1.4-1.4 1.7z" fill="#183306" opacity=".3"/><path d="m190 77.5c0 .8-.7 1.8-1.5 2.2s-1.5.1-1.5-.7.7-1.8 1.5-2.2 1.5-.1 1.5.7z" fill="#539b00"/><path d="m188.5 78.7c-.7.3-1.2.2-1.4-.3-.1.2-.1.4-.1.5 0 .8.7 1.2 1.5.8s1.5-1.4 1.5-2.2c0-.2 0-.3-.1-.5-.2.7-.7 1.4-1.4 1.7z" fill="#183306" opacity=".3"/><path d="m160 112 64-32v-56l-64 32z" opacity=".39"/><path d="m176 120-4 2-10-5v10l-5 2.5-10-5v10l-5 2.5-10-5v10l-4 2v-56l24-24h24z" fill="#f8ebcb"/><path d="m132 142 1-.5v-8l8 4 1-.5v-18l-10 5z" fill="#baa794"/><path d="m133 133.5 8 4v-17l-8 4z" opacity=".06"/><path d="m147 134.5 1-.5v-8l8 4 1-.5v-18l-10 5z" fill="#baa794"/><path d="m148 126 8 4v-17l-8 4z" opacity=".06"/><path d="m162 127 1-.5v-8l8 4 1-.5v-18l-10 5z" fill="#baa794"/><path d="m163 118.5 8 4v-17l-8 4z" opacity=".06"/><path d="m147 98.5 10-5v14l-10 5z" fill="#baa794"/><path d="m148 99 8-4v12l-8 4z" fill="#39c"/><path d="m148 102 8 5-8 4z" fill="#fff" opacity=".2"/><path d="m148 99 8-4v1l-8 4z" opacity=".15"/><path d="m154 108-1 .5v-12l1-.5z" fill="#baa794"/><path d="m151 109.5-1 .5v-12l1-.5z" fill="#baa794"/><path d="m156 99-8 4v-1l8-4z" fill="#baa794"/><path d="m156 103-8 4v-1l8-4z" fill="#baa794"/><path d="m132 106 10-5v14l-10 5z" fill="#baa794"/><path d="m133 106.5 8-4v12l-8 4z" fill="#39c"/><path d="m133 115.5 8-1-8 4z" fill="#fff" opacity=".2"/><path d="m133 106.5 8-4v1l-8 4z" opacity=".15"/><path d="m133 106.5 8-4v8z" opacity=".15"/><path d="m139 115.5-1 .5v-12l1-.5z" fill="#baa794"/><path d="m136 117-1 .5v-12l1-.5z" fill="#baa794"/><path d="m141 106.5-8 4v-1l8-4z" fill="#baa794"/><path d="m141 110.5-8 4v-1l8-4z" fill="#baa794"/><path d="m162 91 10-5v14l-10 5z" fill="#baa794"/><path d="m163 91.5 8-4v12l-8 4z" fill="#39c"/><path d="m163 91.5 8-4v1l-8 4z" opacity=".15"/><path d="m163 91.5 8-4v10z" opacity=".15"/><path d="m169 100.5-1 .5v-12l1-.5z" fill="#baa794"/><path d="m166 102-1 .5v-12l1-.5z" fill="#baa794"/><path d="m171 91.5-8 4v-1l8-4z" fill="#baa794"/><path d="m171 95.5-8 4v-1l8-4z" fill="#baa794"/><path d="m162 76 10-5v11l-10 5z" fill="#baa794"/><path d="m163 76.5 8-4v9l-8 4z" fill="#39c"/><path d="m163 76.5 8-4v9z" opacity=".15"/><path d="m163 76.5 8-4v1l-8 4z" opacity=".15"/><path d="m169 82.5-1 .5v-9l1-.5z" fill="#baa794"/><path d="m166 84-1 .5v-9l1-.5z" fill="#baa794"/><path d="m171 76.5-8 4v-1l8-4z" fill="#baa794"/><path d="m147 83.5 10-5v11l-10 5z" fill="#baa794"/><path d="m148 84 8-4v9l-8 4z" fill="#39c"/><path d="m148 87v6l8-4z" fill="#fff" opacity=".2"/><path d="m148 84 8-4v1l-8 4z" opacity=".15"/><path d="m154 90-1 .5v-9l1-.5z" fill="#baa794"/><path d="m151 91.5-1 .5v-9l1-.5z" fill="#baa794"/><path d="m156 84-8 4v-1l8-4z" fill="#baa794"/><path d="m132 91 10-5v11l-10 5z" fill="#baa794"/><path d="m133 91.5 8-4v9l-8 4z" fill="#39c"/><path d="m133 91.5 8-4v5z" opacity=".15"/><path d="m133 91.5 8-4v1l-8 4z" opacity=".15"/><path d="m139 97.5-1 .5v-9l1-.5z" fill="#baa794"/><path d="m136 99-1 .5v-9l1-.5z" fill="#baa794"/><path d="m141 91.5-8 4v-1l8-4z" fill="#baa794"/><path d="m156 72c0 2.2-1.8 4.9-4 6s-4 .2-4-2 1.8-4.9 4-6 4-.2 4 2z" fill="#baa794"/><path d="m155 72.5c0 1.7-1.3 3.7-3 4.5s-3 .2-3-1.5 1.3-3.7 3-4.5 3-.2 3 1.5z" fill="#fff"/><path d="m152.2 73.6v-1.9l-.4.3v1.9.5l.4-.3 2-.9v-.5z" fill="#2d3134"/><path d="m176 120-48 24v-56l24-24h24z" opacity=".39"/><path d="m128 144v-56l-16-8v56z" fill="#f8ebcb"/><path d="m128 144v-56l-16-8v56z" opacity=".06"/><path d="m112 32h-24l-24 24 64 32 24-24h24z" fill="#2d3134"/><path d="m88 32-24 24 64 32 24-24z" opacity=".06"/><path d="m112 32 64 32h-24l-64-32z" opacity=".39"/></svg>