<svg enable-background="new 0 0 80 72" viewBox="0 0 80 72" xmlns="http://www.w3.org/2000/svg"><path d="m16 0-16 8v32l64 32 16-8v-32z" fill="#e5e5e5"/><path d="m77 36.5v29l-11 5.5v-29z" fill="#2d3134"/><path d="m76 65v-28.1l1-.4v29l-11 5.5v-.9z" fill="#262626" opacity=".45"/><path d="m78 44v1l-12 6v-1z" fill="#e5e5e5" opacity=".5"/><path d="m78 53v1l-12 6v-1z" fill="#e5e5e5" opacity=".5"/><path d="m72 68-1 .5v-29.3l1-.5z" fill="#e5e5e5"/><path d="m56 67-52-26v-26.5l-1-.5v27.5l53 26.5z" fill="#262626" opacity=".45"/><path d="m56 39.5-53-25.5v27.5l53 26.5z" fill="#2d3134"/><g fill="#e5e5e5"><path d="m3 20v1l59 30v-1z" opacity=".5"/><path d="m3 29v1l59 30v-1z" opacity=".5"/><path d="m26 53 1 .5v-28l-1-.5z"/><path d="m20 50 1 .5v-27.6l-1-.5z"/><path d="m14 47 1 .5v-27.6l-1-.5z"/><path d="m8 44 1 .5v-27.6l-1-.5z"/><path d="m38 59 1 .5v-27.9l-1-.5z"/><path d="m32 56 1 .5v-27.9l-1-.5z"/><path d="m44 62 1 .5v-28.1l-1-.5z"/><path d="m50 65 1 .5v-28.3l-1-.5z"/></g><path d="m56 40-20 15 20-9z" fill="#fff" opacity=".2"/><path d="m21 50.5.4.2 23.6-9.7-32 5.5z" fill="#fff" opacity=".1"/><path d="m24.1 24.5-12.7 9.1 17.2-7z" fill="#fff" opacity=".15"/><path d="m62 71-4-2v-32l4 2z" fill="#cc291f"/><path d="m80 64-16 8v-32l16-8z" opacity=".39"/><path d="m0 40 64 32v-32l-64-32z" opacity=".06"/></svg>