<svg enable-background="new 0 0 128 192" viewBox="0 0 128 192" xmlns="http://www.w3.org/2000/svg"><path d="m64 0-64 32v128l64 32 64-32v-128z" fill="#e5e5e5"/><path d="m128 94-64 32v-14l64-32z" fill="#39c"/><path d="m128 83-64 32v-3l64-32z" opacity=".15"/><path d="m128 81-64 32v-1l64-32z" opacity=".15"/><path d="m123 95.5-4 2v-13l4-2z" fill="#fff" opacity=".3"/><path d="m128 93-4 2v-13l4-2z" fill="#fff" opacity=".2"/><path d="m118 98-4 2v-13l4-2z" fill="#fff" opacity=".3"/><path d="m113 100.5-4 2v-13l4-2z" fill="#fff" opacity=".2"/><path d="m108 103-4 2v-13l4-2z" fill="#fff" opacity=".2"/><path d="m83 115.5-4 2v-13l4-2z" fill="#fff" opacity=".3"/><path d="m78 118-4 2v-13l4-2z" fill="#fff" opacity=".3"/><path d="m128 78-64 32v-14l64-32z" fill="#39c"/><path d="m128 67-64 32v-3l64-32z" opacity=".15"/><path d="m128 65-64 32v-1l64-32z" opacity=".15"/><path d="m103 89.5-4 2v-13l4-2z" fill="#fff" opacity=".3"/><path d="m108 87-4 2v-13l4-2z" fill="#fff" opacity=".2"/><path d="m98 92-4 2v-13l4-2z" fill="#fff" opacity=".3"/><path d="m93 94.5-4 2v-13l4-2z" fill="#fff" opacity=".2"/><path d="m88 97-4 2v-13l4-2z" fill="#fff" opacity=".2"/><path d="m128 62-64 32v-14l64-32z" fill="#39c"/><path d="m128 51-64 32v-3l64-32z" opacity=".15"/><path d="m128 49-64 32v-1l64-32z" opacity=".15"/><path d="m113 68.5-4 2v-13l4-2z" fill="#fff" opacity=".3"/><path d="m108 71-4 2v-13l4-2z" fill="#fff" opacity=".2"/><path d="m103 73.5-4 2v-13l4-2z" fill="#fff" opacity=".2"/><path d="m73 88.5-4 2v-13l4-2z" fill="#fff" opacity=".3"/><path d="m68 91-4 2v-13l4-2z" fill="#fff" opacity=".3"/><path d="m128 46-64 32v-14l64-32z" fill="#39c"/><path d="m128 35-64 32v-3l64-32z" opacity=".15"/><path d="m128 33-64 32v-1l64-32z" opacity=".15"/><path d="m118 50-4 2v-13l4-2z" fill="#fff" opacity=".3"/><path d="m123 47.5-4 2v-13l4-2z" fill="#fff" opacity=".2"/><path d="m93 62.5-4 2v-13l4-2z" fill="#fff" opacity=".3"/><path d="m88 65-4 2v-13l4-2z" fill="#fff" opacity=".2"/><path d="m83 67.5-4 2v-13l4-2z" fill="#fff" opacity=".2"/><path d="m69 124.5-1 .5v-63l1-.5z" fill="#fff" opacity=".7"/><path d="m74 122-1 .5v-63l1-.5z" fill="#fff" opacity=".7"/><path d="m79 119.5-1 .5v-63l1-.5z" fill="#fff" opacity=".7"/><path d="m84 117-1 .5v-63l1-.5z" fill="#fff" opacity=".7"/><path d="m89 114.5-1 .5v-63l1-.5z" fill="#fff" opacity=".7"/><path d="m94 112-1 .5v-63l1-.5z" fill="#fff" opacity=".7"/><path d="m99 109.5-1 .5v-63l1-.5z" fill="#fff" opacity=".7"/><path d="m104 107-1 .5v-63l1-.5z" fill="#fff" opacity=".7"/><path d="m109 104.5-1 .5v-63l1-.5z" fill="#fff" opacity=".7"/><path d="m114 102-1 .5v-63l1-.5z" fill="#fff" opacity=".7"/><path d="m119 99.5-1 .5v-63l1-.5z" fill="#fff" opacity=".7"/><path d="m124 97-1 .5v-63l1-.5z" fill="#fff" opacity=".7"/><path d="m128 96-64 32v-3l64-32z" fill="#e5e5e5"/><path d="m128 80-64 32v-3l64-32z" fill="#e5e5e5"/><path d="m128 64-64 32v-3l64-32z" fill="#e5e5e5"/><path d="m128 48-64 32v-3l64-32z" fill="#e5e5e5"/><path d="m64 126-64-32v-14l64 32z" fill="#39c"/><path d="m64 115-64-32v-3l64 32z" opacity=".15"/><path d="m64 113-64-32v-1l64 32z" opacity=".15"/><path d="m64 125-4-2v-13l4 2z" fill="#fff" opacity=".2"/><path d="m59 122.5-4-2v-13l4 2z" fill="#fff" opacity=".2"/><path d="m54 120-4-2v-13l4 2z" fill="#fff" opacity=".2"/><path d="m19 102.5-4-2v-13l4 2z" fill="#fff" opacity=".3"/><path d="m24 105-4-2v-13l4 2z" fill="#fff" opacity=".3"/><path d="m14 100-4-2v-13l4 2z" fill="#fff" opacity=".3"/><path d="m64 110-64-32v-14l64 32z" fill="#39c"/><path d="m64 99-64-32v-3l64 32z" opacity=".15"/><path d="m64 97-64-32v-1l64 32z" opacity=".15"/><path d="m39 96.5-4-2v-13l4 2z" fill="#fff" opacity=".3"/><path d="m44 99-4-2v-13l4 2z" fill="#fff" opacity=".2"/><path d="m34 94-4-2v-13l4 2z" fill="#fff" opacity=".3"/><path d="m14 84-4-2v-13l4 2z" fill="#fff" opacity=".2"/><path d="m9 81.5-4-2v-13l4 2z" fill="#fff" opacity=".2"/><path d="m64 94-64-32v-14l64 32z" fill="#39c"/><path d="m64 83-64-32v-3l64 32z" opacity=".15"/><path d="m64 81-64-32v-1l64 32z" opacity=".15"/><path d="m54 88-4-2v-13l4 2z" fill="#fff" opacity=".3"/><path d="m49 85.5-4-2v-13l4 2z" fill="#fff" opacity=".2"/><path d="m44 83-4-2v-13l4 2z" fill="#fff" opacity=".2"/><path d="m9 65.5-4-2v-13l4 2z" fill="#fff" opacity=".3"/><path d="m4 63-4-2v-13l4 2z" fill="#fff" opacity=".3"/><path d="m64 78-64-32v-14l64 32z" fill="#39c"/><path d="m64 67-64-32v-3l64 32z" opacity=".15"/><path d="m64 65-64-32v-1l64 32z" opacity=".15"/><g fill="#fff"><path d="m59 74.5-4-2v-13l4 2z" opacity=".3"/><path d="m64 77-4-2v-13l4 2z" opacity=".2"/><path d="m29 59.5-4-2v-13l4 2z" opacity=".3"/><path d="m34 62-4-2v-13l4 2z" opacity=".3"/><path d="m24 57-4-2v-13l4 2z" opacity=".2"/><path d="m19 54.5-4-2v-13l4 2z" opacity=".2"/><path d="m5 97.5-1-.5v-63l1 .5z" opacity=".7"/><path d="m10 100-1-.5v-63l1 .5z" opacity=".7"/><path d="m15 102.5-1-.5v-63l1 .5z" opacity=".7"/><path d="m20 105-1-.5v-63l1 .5z" opacity=".7"/><path d="m25 107.5-1-.5v-63l1 .5z" opacity=".7"/><path d="m30 110-1-.5v-63l1 .5z" opacity=".7"/><path d="m35 112.5-1-.5v-63l1 .5z" opacity=".7"/><path d="m40 115-1-.5v-63l1 .5z" opacity=".7"/><path d="m45 117.5-1-.5v-63l1 .5z" opacity=".7"/><path d="m50 120-1-.5v-63l1 .5z" opacity=".7"/><path d="m55 122.5-1-.5v-63l1 .5z" opacity=".7"/><path d="m60 125-1-.5v-63l1 .5z" opacity=".7"/></g><path d="m64 128-64-32v-3l64 32z" fill="#e5e5e5"/><path d="m64 112-64-32v-3l64 32z" fill="#e5e5e5"/><path d="m64 96-64-32v-3l64 32z" fill="#e5e5e5"/><path d="m64 80-64-32v-3l64 32z" fill="#e5e5e5"/><path d="m64 163.8-64-32.1v-.7l64 32z" opacity=".15"/><path d="m64 158-64-32v-15l64 32z" fill="#39c"/><path d="m64 147-64-32v-4l64 32z" opacity=".15"/><path d="m64 145-64-32v-2l64 32z" opacity=".15"/><path d="m64 142-64-32v-14l64 32z" fill="#39c"/><path d="m64 131-64-32v-3l64 32z" opacity=".15"/><path d="m64 129-64-32v-1l64 32z" opacity=".15"/><path d="m64 163-64-32v-6l64 32z" fill="#2d3134"/><path d="m15 167.5-11-5.5v-27l11 5.5z" fill="#39c"/><path d="m30 175-11-5.5v-27l11 5.5z" fill="#39c"/><path d="m45 182.5-11-5.5v-27l11 5.5z" fill="#39c"/><path d="m60 190-11-5.5v-27l11 5.5z" fill="#39c"/><path d="m15 144.5-11-5.5v-4l11 5.5z" opacity=".15"/><path d="m30 152-11-5.5v-4l11 5.5z" opacity=".15"/><path d="m45 159.5-11-5.5v-4l11 5.5z" opacity=".15"/><path d="m60 167-11-5.5v-4l11 5.5z" opacity=".15"/><path d="m15 142.5-11-5.5v-2l11 5.5z" opacity=".15"/><path d="m30 150-11-5.5v-2l11 5.5z" opacity=".15"/><path d="m45 157.5-11-5.5v-2l11 5.5z" opacity=".15"/><path d="m60 165-11-5.5v-2l11 5.5z" opacity=".15"/><path d="m15 141.5-11-5.5v-1l11 5.5z" opacity=".15"/><path d="m30 149-11-5.5v-1l11 5.5z" opacity=".15"/><path d="m45 156.5-11-5.5v-1l11 5.5z" opacity=".15"/><path d="m60 164-11-5.5v-1l11 5.5z" opacity=".15"/><path d="m5 127.5-1-.5v-29l1 .5z" fill="#fff" opacity=".7"/><path d="m10 130-1-.5v-29l1 .5z" fill="#fff" opacity=".7"/><path d="m15 132.5-1-.5v-29l1 .5z" fill="#fff" opacity=".7"/><path d="m20 135-1-.5v-29l1 .5z" fill="#fff" opacity=".7"/><path d="m25 137.5-1-.5v-29l1 .5z" fill="#fff" opacity=".7"/><path d="m30 140-1-.5v-29l1 .5z" fill="#fff" opacity=".7"/><path d="m35 142.5-1-.5v-29l1 .5z" fill="#fff" opacity=".7"/><path d="m40 145-1-.5v-29l1 .5z" fill="#fff" opacity=".7"/><path d="m45 147.5-1-.5v-29l1 .5z" fill="#fff" opacity=".7"/><path d="m50 150-1-.5v-29l1 .5z" fill="#fff" opacity=".7"/><path d="m55 152.5-1-.5v-29l1 .5z" fill="#fff" opacity=".7"/><path d="m60 155-1-.5v-29l1 .5z" fill="#fff" opacity=".7"/><path d="m15 152.5-3-1.5v-12l-1-.5v12l-3-1.5v-12l-1-.5v12l-3-1.5v1l3 1.5v14l1 .5v-14l3 1.5v14l1 .5v-14l3 1.5z" fill="#fff" opacity=".7"/><path d="m30 160-3-1.5v-12l-1-.5v12l-3-1.5v-12l-1-.5v12l-3-1.5v1l3 1.5v14l1 .5v-14l3 1.5v14l1 .5v-14l3 1.5z" fill="#fff" opacity=".7"/><path d="m45 167.5-3-1.5v-12l-1-.5v12l-3-1.5v-12l-1-.5v12l-3-1.5v1l3 1.5v14l1 .5v-14l3 1.5v14l1 .5v-14l3 1.5z" fill="#fff" opacity=".7"/><path d="m60 175-3-1.5v-12l-1-.5v12l-3-1.5v-12l-1-.5v12l-3-1.5v1l3 1.5v14l1 .5v-14l3 1.5v14l1 .5v-14l3 1.5z" fill="#fff" opacity=".7"/><path d="m64 144-64-32v-3l64 32z" fill="#e5e5e5"/><path d="m59 154.5-4-2v-13l4 2z" fill="#fff" opacity=".2"/><path d="m64 157-4-2v-13l4 2z" fill="#fff" opacity=".3"/><path d="m54 152-4-2v-13l4 2z" fill="#fff" opacity=".2"/><path d="m49 149.5-4-2v-13l4 2z" fill="#fff" opacity=".3"/><path d="m19 134.5-4-2v-13l4 2z" fill="#fff" opacity=".3"/><path d="m14 132-4-2v-13l4 2z" fill="#fff" opacity=".3"/><path d="m39 128.5-4-2v-13l4 2z" fill="#fff" opacity=".3"/><path d="m44 131-4-2v-13l4 2z" fill="#fff" opacity=".2"/><path d="m34 126-4-2v-13l4 2z" fill="#fff" opacity=".3"/><path d="m29 123.5-4-2v-13l4 2z" fill="#fff" opacity=".2"/><path d="m24 121-4-2v-13l4 2z" fill="#fff" opacity=".2"/><path d="m128 131.7-64 32.1v-.8l64-32z" opacity=".15"/><path d="m128 126-64 32v-15l64-32z" fill="#39c"/><path d="m128 115-64 32v-4l64-32z" opacity=".15"/><path d="m128 113-64 32v-2l64-32z" opacity=".15"/><path d="m128 110-64 32v-14l64-32z" fill="#39c"/><path d="m128 99-64 32v-3l64-32z" opacity=".15"/><path d="m128 97-64 32v-1l64-32z" opacity=".15"/><path d="m128 131-64 32v-6l64-32z" fill="#2d3134"/><path d="m79 184.5-11 5.5v-27l11-5.5z" fill="#39c"/><path d="m94 177-11 5.5v-27l11-5.5z" fill="#39c"/><path d="m109 169.5-11 5.5v-27l11-5.5z" fill="#39c"/><path d="m124 162-11 5.5v-27l11-5.5z" fill="#39c"/><path d="m79 161.5-11 5.5v-4l11-5.5z" opacity=".15"/><path d="m94 154-11 5.5v-4l11-5.5z" opacity=".15"/><path d="m109 146.5-11 5.5v-4l11-5.5z" opacity=".15"/><path d="m124 139-11 5.5v-4l11-5.5z" opacity=".15"/><path d="m79 159.5-11 5.5v-2l11-5.5z" opacity=".15"/><path d="m94 152-11 5.5v-2l11-5.5z" opacity=".15"/><path d="m109 144.5-11 5.5v-2l11-5.5z" opacity=".15"/><path d="m124 137-11 5.5v-2l11-5.5z" opacity=".15"/><path d="m79 158.5-11 5.5v-1l11-5.5z" opacity=".15"/><path d="m94 151-11 5.5v-1l11-5.5z" opacity=".15"/><path d="m109 143.5-11 5.5v-1l11-5.5z" opacity=".15"/><path d="m124 136-11 5.5v-1l11-5.5z" opacity=".15"/><path d="m69 154.5-1 .5v-29l1-.5z" fill="#fff" opacity=".7"/><path d="m74 152-1 .5v-29l1-.5z" fill="#fff" opacity=".7"/><path d="m79 149.5-1 .5v-29l1-.5z" fill="#fff" opacity=".7"/><path d="m84 147-1 .5v-29l1-.5z" fill="#fff" opacity=".7"/><path d="m89 144.5-1 .5v-29l1-.5z" fill="#fff" opacity=".7"/><path d="m94 142-1 .5v-29l1-.5z" fill="#fff" opacity=".7"/><path d="m99 139.5-1 .5v-29l1-.5z" fill="#fff" opacity=".7"/><path d="m104 137-1 .5v-29l1-.5z" fill="#fff" opacity=".7"/><path d="m109 134.5-1 .5v-29l1-.5z" fill="#fff" opacity=".7"/><path d="m114 132-1 .5v-29l1-.5z" fill="#fff" opacity=".7"/><path d="m119 129.5-1 .5v-29l1-.5z" fill="#fff" opacity=".7"/><path d="m124 127-1 .5v-29l1-.5z" fill="#fff" opacity=".7"/><path d="m79 169.5-3 1.5v-12l-1 .5v12l-3 1.5v-12l-1 .5v12l-3 1.5v1l3-1.5v14l1-.5v-14l3-1.5v14l1-.5v-14l3-1.5z" fill="#fff" opacity=".7"/><path d="m94 162-3 1.5v-12l-1 .5v12l-3 1.5v-12l-1 .5v12l-3 1.5v1l3-1.5v14l1-.5v-14l3-1.5v14l1-.5v-14l3-1.5z" fill="#fff" opacity=".7"/><path d="m109 154.5-3 1.5v-12l-1 .5v12l-3 1.5v-12l-1 .5v12l-3 1.5v1l3-1.5v14l1-.5v-14l3-1.5v14l1-.5v-14l3-1.5z" fill="#fff" opacity=".7"/><path d="m124 147-3 1.5v-12l-1 .5v12l-3 1.5v-12l-1 .5v12l-3 1.5v1l3-1.5v14l1-.5v-14l3-1.5v14l1-.5v-14l3-1.5z" fill="#fff" opacity=".7"/><path d="m128 112-64 32v-3l64-32z" fill="#e5e5e5"/><path d="m123 127.5-4 2v-13l4-2z" fill="#fff" opacity=".2"/><path d="m128 125-4 2v-13l4-2z" fill="#fff" opacity=".3"/><path d="m118 130-4 2v-13l4-2z" fill="#fff" opacity=".2"/><path d="m103 137.5-4 2v-13l4-2z" fill="#fff" opacity=".3"/><path d="m98 140-4 2v-13l4-2z" fill="#fff" opacity=".3"/><path d="m78 150-4 2v-13l4-2z" fill="#fff" opacity=".3"/><path d="m103 121.5-4 2v-13l4-2z" fill="#fff" opacity=".3"/><path d="m108 119-4 2v-13l4-2z" fill="#fff" opacity=".2"/><path d="m98 124-4 2v-13l4-2z" fill="#fff" opacity=".3"/><path d="m93 126.5-4 2v-13l4-2z" fill="#fff" opacity=".2"/><path d="m88 129-4 2v-13l4-2z" fill="#fff" opacity=".2"/><path d="m73 136.5-4 2v-13l4-2z" fill="#fff" opacity=".3"/><path d="m68 139-4 2v-13l4-2z" fill="#fff" opacity=".3"/><path d="m64 64v128l64-32v-128z" opacity=".39"/><path d="m0 32v128l64 32v-128z" opacity=".06"/><path d="m8.9 32 55.1-27.5 55.1 27.5-55.1 27.5z" opacity=".25"/><path d="m64 6.5v-2l-55.1 27.5 2 1z" opacity=".39"/><path d="m64 6.5 53.1 26.5 2-1-55.1-27.5z" opacity=".06"/><path d="m58 13-12 6v4l12 6 12-6v-4z" fill="#e5e5e5"/><path d="m70 23-12 6v-4l12-6z" opacity=".39"/><path d="m46 23 12 6v-4l-12-6z" opacity=".06"/><path d="m82 20-20 10v6l20 10 20-10v-6z" fill="#e5e5e5"/><path d="m102 36-20 10v-6l20-10z" opacity=".39"/><path d="m62 36 20 10v-6l-20-10z" opacity=".06"/><path d="m82 24 12 6-12 6-12-6z" opacity=".25"/></svg>