<svg enable-background="new 0 0 64 80" viewBox="0 0 64 80" xmlns="http://www.w3.org/2000/svg"><path d="m6 63-4 2 28 14 4-2z" fill="#999"/><path d="m16 4-16 24v36l2 1 32-16v-36l-16-8z" fill="#e5e5e5"/><path d="m2 29-2-1v36l2 1z" opacity=".06"/><path d="m34 49-32 16v-36l16-24 16 8z" opacity=".39"/><path d="m34 77-28-14v-34l28 14z" fill="#e5e5e5"/><path d="m17 53.5-8-4v15l8 4z" fill="#fff"/><path d="m10 51 6 3v14l-6-3z" fill="#656565"/><path d="m11 52.5 4 2v4l-4-2z" fill="#39c"/><path d="m11 52.5 4 2v1l-4-2z" opacity=".15"/><path d="m27 41.5-6-3v15l6 3z" fill="#fff"/><path d="m22 40 4 2v14l-4-2z" fill="#656565"/><path d="m23 41.5 2 1v12l-2-1z" fill="#39c"/><path d="m23 41.5 2 1v1l-2-1z" opacity=".15"/><path d="m32 44-6-3v15l6 3z" fill="#fff"/><path d="m27 42.5 4 2v14l-4-2z" fill="#656565"/><path d="m28 44 2 1v12l-2-1z" fill="#39c"/><path d="m28 44 2 1v1l-2-1z" opacity=".15"/><path d="m6 29 28 14v6l-28-14z" opacity=".1"/><path d="m6 46 28 14v6l-28-14z" opacity=".1"/><path d="m34 77-28-14v-34l28 14z" opacity=".06"/><path d="m16 55 4-2v-17l-4 2z" fill="#baa794"/><path d="m16 55 4-2v-17l-4 2z" opacity=".39"/><path d="m20 52 10 5v4l-14-7z" fill="#999"/><path d="m16 47 14 7v6l-14-7z" fill="#39c" opacity=".6"/><path d="m23 50.7 7 3.3v6l-3-1.4z" opacity=".15"/><path d="m16 47 3 1.4 5.3 8.6-8.3-4z" fill="#fff" opacity=".2"/><path d="m16 53 14 7v2l-14-7z" fill="#e5e5e5"/><path d="m16 55-14-7v-17l14 7z" fill="#baa794"/><path d="m30 79-14-7v-17l14 7z" fill="#baa794"/><path d="m13 38.5-8-4v11l8 4z" fill="#656565"/><path d="m6 36 6 3v9l-6-3z" fill="#fff"/><path d="m7 37.5 4 2v7l-4-2z" fill="#39c"/><path d="m7 37.5 4 2v1l-4-2z" opacity=".15"/><path d="m27 62.5-8-4v11l8 4z" fill="#656565"/><path d="m20 60 6 3v9l-6-3z" fill="#fff"/><path d="m21 61.5 4 2v7l-4-2z" fill="#39c"/><path d="m21 61.5 4 2v1l-4-2z" opacity=".15"/><path d="m30 62-14-7v-2l14 7z" fill="#e5e5e5"/><path d="m30 45-28-14v-2l28 14z" fill="#e5e5e5"/><path d="m2 29.2 16-23.5 30 15.1-16 23.5z" fill="#2d3134"/><path d="m2 29.2 16-23.5 30 15.1-16 23.5z" opacity=".06"/><path d="m18 5.7-.7 1.2 29.7 14.9 1-1z" fill="#fff" opacity=".2"/><path d="m46 19-16 24v36l2 1 32-16v-36l-16-8z" fill="#e5e5e5"/><path d="m32 44-2-1v36l2 1z" opacity=".06"/><g opacity=".1"><path d="m37.8 71.1c-.6.3-1.1 1-1.1 1.6s.5.8 1.1.5 1.1-1 1.1-1.6-.5-.8-1.1-.5z"/><path d="m60.3 60.8c.7-.4 1.3-1.2 1.3-1.9s-.6-1-1.3-.6-1.3 1.2-1.3 1.9.6 1 1.3.6z"/><path d="m34.7 64.7c.5-.2.9-.8.9-1.3s-.4-.7-.9-.4c-.5.2-.9.8-.9 1.3.1.4.5.6.9.4z"/><path d="m58.5 29.9c0-.7-.6-1-1.3-.6s-1.3 1.2-1.3 1.9.6 1 1.3.6c.8-.3 1.3-1.2 1.3-1.9z"/><path d="m57.3 53.2c0-.1-.1-.2-.2-.1s-.2.2-.2.3.1.2.2.1.2-.2.2-.3z"/><path d="m47.5 70c0-.1-.1-.2-.2-.1s-.2.2-.2.3.1.2.2.1.2-.2.2-.3z"/><path d="m57.4 45.1c-.4.2-.6.6-.6 1s.3.5.6.3c.4-.2.6-.6.6-1s-.3-.5-.6-.3z"/><path d="m50.6 34.5c0 .1.1.2.2.1s.2-.2.2-.3-.1-.2-.2-.1c-.1 0-.2.2-.2.3z"/><path d="m42.6 36.1c.7-.4 1.3-1.2 1.3-1.9s-.6-1-1.3-.6-1.3 1.2-1.3 1.9c0 .6.6.9 1.3.6z"/><path d="m36.3 45.2c-.7.4-1.3 1.2-1.3 1.9s.6 1 1.3.6 1.3-1.2 1.3-1.9-.6-1-1.3-.6z"/><path d="m41 62.7c0-.6-.5-.8-1.1-.5s-1.1 1-1.1 1.6.5.8 1.1.5 1.1-1 1.1-1.6z"/><path d="m49.5 56.4c0-.6-.5-.8-1.1-.5s-1.1 1-1.1 1.6.5.8 1.1.5c.6-.2 1.1-1 1.1-1.6z"/><path d="m34.7 67.6c-.4.2-.6.6-.6 1s.3.5.6.3c.4-.2.6-.6.6-1s-.2-.5-.6-.3z"/><path d="m50.2 45.2c-.6.3-1.1 1-1.1 1.6s.5.8 1.1.5 1.1-1 1.1-1.6c-.1-.5-.5-.8-1.1-.5z"/><path d="m50.8 26.8c0 .6.5.8 1.1.5s1.1-1 1.1-1.6-.5-.8-1.1-.5-1.1 1-1.1 1.6z"/><path d="m49.7 66.9c.5-.2.9-.8.9-1.3s-.4-.7-.9-.4c-.5.2-.9.8-.9 1.3.1.5.4.6.9.4z"/><path d="m59.4 37.1c-.2.1-.3.3-.3.5s.1.2.3.2c.2-.1.3-.3.3-.5 0-.3-.1-.3-.3-.2z"/><path d="m60.8 56.2c-.2.1-.3.3-.3.5s.1.2.3.2c.2-.1.3-.3.3-.5s-.2-.2-.3-.2z"/><path d="m59.3 40.1c0-.2-.2-.3-.4-.2s-.4.3-.4.5.2.3.4.2c.3-.1.4-.3.4-.5z"/><path d="m45.6 51.5c0-.2-.2-.3-.4-.2s-.4.3-.4.5.2.3.4.2.4-.3.4-.5z"/><path d="m40.8 40c-.5.2-.9.8-.9 1.3s.4.7.9.4.9-.8.9-1.3-.4-.7-.9-.4z"/></g><g opacity=".1"><path d="m43.5 34c0 .7-.6 1.6-1.3 1.9-.2.1-.4.2-.6.1.2.1.6.1.9-.1.7-.4 1.3-1.2 1.3-1.9 0-.5-.3-.8-.7-.8.3.2.4.5.4.8z"/><path d="m45.2 51.3v.1c0 .2-.2.4-.4.5 0 .1.2.2.3.1.2-.1.4-.3.4-.5.1-.2-.1-.3-.3-.2z"/><path d="m41.2 39.9c.1.1.2.2.2.4 0 .5-.4 1.1-.9 1.3-.1.1-.2.1-.3.1.2.1.4.1.7 0 .5-.2.9-.8.9-1.3-.1-.4-.3-.6-.6-.5z"/><path d="m36.9 45c.2.1.4.4.4.7 0 .7-.6 1.6-1.3 1.9-.2.1-.4.2-.6.1.2.1.6.1.9-.1.7-.4 1.3-1.2 1.3-1.9 0-.4-.3-.7-.7-.7z"/><path d="m48.9 55.8c.2.1.3.3.3.6 0 .6-.5 1.3-1.1 1.6-.2.1-.3.1-.5.1.2.1.5.1.8 0 .6-.3 1.1-1 1.1-1.6 0-.5-.3-.7-.6-.7z"/><path d="m57.1 53.1c-.1.1-.2.2-.2.3s.1.2.2.1.2-.2.2-.3-.1-.2-.2-.1z"/><path d="m52.7 25.6c0 .6-.5 1.3-1.1 1.6-.2.1-.3.1-.5.1.2.1.5.1.8 0 .6-.3 1.1-1 1.1-1.6 0-.4-.3-.7-.6-.7.2.1.3.3.3.6z"/><path d="m61.1 56.4c0-.2-.1-.2-.3-.2 0 .2-.1.3-.3.4 0 .1.1.2.3.1.1.1.3-.1.3-.3z"/><path d="m50.6 34.5c0 .1.1.2.2.1s.2-.2.2-.3-.1-.2-.2-.1c-.1 0-.2.2-.2.3z"/><path d="m58.2 29.8c0 .7-.6 1.6-1.3 1.9-.2.1-.4.2-.6.1.2.1.6.1.9-.1.7-.4 1.3-1.2 1.3-1.9 0-.5-.3-.8-.7-.8.3.2.4.5.4.8z"/><path d="m59 39.9v.1c0 .2-.2.4-.4.5 0 .1.2.2.3.1.2-.1.4-.3.4-.5s-.1-.3-.3-.2z"/><path d="m40.4 62c.2.1.3.3.3.6 0 .6-.5 1.3-1.1 1.6-.2.1-.3.1-.5.1.2.1.5.1.8 0 .6-.3 1.1-1 1.1-1.6 0-.5-.3-.7-.6-.7z"/><path d="m38.3 70.9c.2.1.3.3.3.6 0 .6-.5 1.3-1.1 1.6-.2.1-.3.1-.5.1.2.1.5.1.8 0 .6-.3 1.1-1 1.1-1.6 0-.4-.2-.7-.6-.7z"/><path d="m57.5 45c.1.1.1.2.1.3 0 .4-.3.8-.6 1-.1 0-.1 0-.2.1.1.1.3.1.5 0 .4-.2.6-.6.6-1 .1-.3-.1-.4-.4-.4z"/><path d="m47.2 69.9c-.1.1-.2.2-.2.3s.1.2.2.1.2-.2.2-.3 0-.2-.2-.1z"/><path d="m35.1 62.8c.1.1.2.2.2.4 0 .5-.4 1.1-.9 1.3-.1.1-.2.1-.3.1.2.1.4.1.7 0 .5-.2.9-.8.9-1.3-.1-.3-.3-.5-.6-.5z"/><path d="m50.6 45.1c.2.1.3.3.3.6 0 .6-.5 1.3-1.1 1.6-.2.1-.3.1-.5.1.2.1.5.1.8 0 .6-.3 1.1-1 1.1-1.6 0-.5-.2-.7-.6-.7z"/><path d="m60.9 58.1c.2.1.4.4.4.7 0 .7-.6 1.6-1.3 1.9-.2.1-.4.2-.6.1.2.1.6.1.9-.1.7-.4 1.3-1.2 1.3-1.9 0-.4-.3-.7-.7-.7z"/><path d="m34.9 67.6c.1.1.1.2.1.3 0 .4-.3.8-.6 1-.1 0-.1 0-.2.1.1.1.3.1.5 0 .4-.2.6-.6.6-1 .1-.3-.1-.5-.4-.4z"/><path d="m50 65.1c.1.1.2.2.2.4 0 .5-.4 1.1-.9 1.3-.1.1-.2.1-.3.1.2.1.4.1.7 0 .5-.2.9-.8.9-1.3 0-.4-.2-.6-.6-.5z"/><path d="m59.4 37.1c0 .2-.1.4-.3.5 0 .1.1.2.3.1s.3-.3.3-.5-.1-.2-.3-.1z"/></g><path d="m64 64-32 16v-36l16-24 16 8z" opacity=".39"/><path d="m30 45v-2l-28-14v2 17l14 7v17l14 7v-25l-14-7v-9z" opacity=".06"/><path d="m6 63-4 2 14 7v-4z" fill="#999"/><path d="m6 63-4 2 14 7v-4z" opacity=".1"/></svg>