<svg enable-background="new 0 0 48 56" viewBox="0 0 48 56" xmlns="http://www.w3.org/2000/svg"><path d="m16 0-16 8v32l32 16 16-8v-32z" fill="#e5e5e5"/><path d="m48 48-16 8v-32l16-8z" opacity=".39"/><path d="m2 14.5v26.5l28 14v-27.4z" fill="#39c"/><path d="m3 40.5v-25.5l-1-.5v26.5l28 14v-1z" fill="#262626" opacity=".45"/><g fill="#e5e5e5"><path d="m1 20.5v1l29 13.5v-1z" opacity=".5"/><path d="m1 27.5v1l29 13.5v-1z" opacity=".5"/><path d="m10 45 1 .5v-27.2l-1-.4z"/><path d="m6 43 1 .5v-28l-1-.5z"/><path d="m14 47 1 .5v-27.2l-1-.4z"/><path d="m22 51 1 .5v-27.5l-1-.5z"/><path d="m18 49 1 .5v-27.4l-1-.4z"/><path d="m26 53 1 .5v-27.5l-1-.5z"/></g><path d="m30 27-11 21 11-12.9z" fill="#fff" opacity=".2"/><path d="m2 40.8.4.2 23.6-15.7-24 5.5z" fill="#fff" opacity=".1"/><path d="m15.6 20.9-12.7 9.1 17.1-7z" fill="#fff" opacity=".15"/><path d="m0 40 32 16v-32l-32-16z" opacity=".06"/></svg>