<svg enable-background="new 0 0 64 64" viewBox="0 0 64 64" xmlns="http://www.w3.org/2000/svg"><path d="m32 44 16-24 16 8v20l-32 16z" fill="#f8ebcb"/><g fill="#fff"><path d="m32 64 2-1v-22l-2 3z"/><path d="m64 48-2 1v-22l2 1z"/><path d="m54 42-12 6v-7l12-6z"/></g><path d="m53 41.5-10 5v-5l10-5z" fill="#825012"/><path d="m44 45 8-4v-3l-8 4z" fill="#39c"/><path d="m52 39-8 4v-1l8-4z" opacity=".15"/><path d="m52 41v-4l1-.5v5l-10 5v-1z" opacity=".3"/><path d="m0 28 32 16v20l-32-16z" fill="#f8ebcb"/><path d="m0 48 2 1v-20l-2-1z" fill="#fff"/><path d="m30 63 2 1v-20l-2-1z" fill="#fff"/><path d="m30 63-28-14v-1l28 14z" opacity=".3"/><path d="m27 43.5-22-11v18l22 11z" fill="#fff"/><path d="m26 61-20-10v-17l20 10z" fill="#825012"/><path d="m26 60-20-10v-1l20 10z" opacity=".3"/><path d="m26 58-20-10v-1l20 10z" opacity=".3"/><path d="m26 56-20-10v-1l20 10z" opacity=".3"/><path d="m26 54-20-10v-1l20 10z" opacity=".3"/><path d="m26 52-20-10v-1l20 10z" opacity=".3"/><path d="m26 50-20-10v-1l20 10z" opacity=".3"/><path d="m26 48-20-10v-1l20 10z" opacity=".3"/><path d="m26 46-20-10v-1l20 10z" opacity=".3"/><path d="m0 28 32 16v20l-32-16z" opacity=".06"/><path d="m32 44-32-16 16-24 32 16z" fill="#762c07"/><path d="m32 44-32-16 16-24 32 16z" opacity=".06"/><path d="m14.9 5.6 32 16 1.1-1.6-32-16z" fill="#fff" opacity=".2"/><path d="m62 49-28 14v-1l28-14z" opacity=".3"/><path d="m32 44 16-24 16 8h-1l-15-7-15 23z" fill="#762c07"/><path d="m32 44 16-24 16 8v20l-32 16z" opacity=".39"/></svg>