<svg enable-background="new 0 0 32 48" viewBox="0 0 32 48" xmlns="http://www.w3.org/2000/svg"><path d="m16 0c-8.8 0-16 3.6-16 8v32c0 4.4 7.2 8 16 8s16-3.6 16-8v-32c0-4.4-7.2-8-16-8z" fill="#e5e5e5"/><path d="m16 32c-8.8 0-16-3.6-16-8v8c0 4.4 7.2 8 16 8s16-3.6 16-8v-8c0 4.4-7.2 8-16 8z" fill="#cc291f"/><path d="m16 16c-8.8 0-16-3.6-16-8v8c0 4.4 7.2 8 16 8s16-3.6 16-8v-8c0 4.4-7.2 8-16 8z" fill="#cc291f"/><path d="m16 16c-8.8 0-16-3.6-16-8v32c0 4.4 7.2 8 16 8s16-3.6 16-8v-32c0 4.4-7.2 8-16 8z" opacity=".2"/><ellipse cx="16" cy="8" opacity=".4" rx="12" ry="5"/></svg>