<svg enable-background="new 0 0 128 128" viewBox="0 0 128 128" xmlns="http://www.w3.org/2000/svg"><path d="m64 128 64-32-64-32-64 32z" fill="#999"/><path d="m64 128 64-32-64-32-64 32z" fill="#999"/><path d="m64 61 61-30.5-61-30.5-61 30.5z" fill="#f8ebcb"/><path d="m9 30.5 55-27.5 55 27.5-55 27.5z" fill="#202426" opacity=".2"/><path d="m64 5v-2l-55 27.5 2 1z" opacity=".39"/><path d="m64 5 53 26.5 2-1-55-27.5z" opacity=".06"/><path d="m66 10-24 12v2l12 6 24-12v-2z" fill="#f8ebcb"/><path d="m78 18-24 12v-2l24-12z" opacity=".39"/><path d="m42 24 12 6v-2l-12-6z" opacity=".06"/><path d="m65 14c-2.8 0-5 1.1-5 2.5s2.2 2.5 5 2.5 5-1.1 5-2.5-2.2-2.5-5-2.5zm0 4c-1.7 0-3-.7-3-1.5s1.3-1.5 3-1.5 3 .7 3 1.5-1.3 1.5-3 1.5z" fill="#656565"/><path d="m55 19c-2.8 0-5 1.1-5 2.5s2.2 2.5 5 2.5 5-1.1 5-2.5-2.2-2.5-5-2.5zm0 4c-1.7 0-3-.7-3-1.5s1.3-1.5 3-1.5 3 .7 3 1.5-1.3 1.5-3 1.5z" fill="#656565"/><path d="m84 19-24 12v2l12 6 24-12v-2z" fill="#f8ebcb"/><path d="m96 27-24 12v-2l24-12z" opacity=".39"/><path d="m60 33 12 6v-2l-12-6z" opacity=".06"/><path d="m83 23c-2.8 0-5 1.1-5 2.5s2.2 2.5 5 2.5 5-1.1 5-2.5-2.2-2.5-5-2.5zm0 4c-1.7 0-3-.7-3-1.5s1.3-1.5 3-1.5 3 .7 3 1.5-1.3 1.5-3 1.5z" fill="#656565"/><path d="m73 28c-2.8 0-5 1.1-5 2.5s2.2 2.5 5 2.5 5-1.1 5-2.5-2.2-2.5-5-2.5zm0 4c-1.7 0-3-.7-3-1.5s1.3-1.5 3-1.5 3 .7 3 1.5-1.3 1.5-3 1.5z" fill="#656565"/><path d="m125 94.5-2 1-1-.5-56 28v1l-2 1v-64l61-30.5z" fill="#f8ebcb"/><path d="m125 73.5-61 30.5v-1l61-30.5z" opacity=".15"/><path d="m125 72.5-61 30.5v-1l61-30.5z" fill="#fff" opacity=".5"/><path d="m125 32.5-61 30.5v-1l61-30.5z" opacity=".15"/><path d="m125 31.5-61 30.5v-1l61-30.5z" fill="#fff" opacity=".5"/><path d="m67 100.5-1 .5v-39l1-.5z" opacity=".15"/><path d="m123 72.5-1 .5v-39l1-.5z" opacity=".15"/><path d="m123 95.5-1-.5v-20l1-.5z" opacity=".1"/><path d="m75 95.5-7 3.5v-1l7-3.5z" fill="#fff" opacity=".5"/><path d="m71.5 85.3c-1.4.6-2.5 2.3-2.5 3.7v8.5l5-2.5v-8.5c0-1.4-1.1-1.9-2.5-1.2z" fill="#7fadb9"/><path d="m71.5 85.3c-1.4.6-2.5 2.3-2.5 3.7v8.5l5-2.5v-8.5c0-1.4-1.1-1.9-2.5-1.2zm-1.5 3.2c0-.7.4-1.4 1-1.9v2.9l-1 .5zm0 2.5 1-.5v2l-1 .5zm0 5v-2l1-.5v2zm3-1.5-1 .5v-2l1-.5zm0-3-1 .5v-2l1-.5zm0-3-1 .5v-2.9c.6-.1 1 .3 1 .9z" fill="#39c"/><path d="m72.7 85c.2.3.3.6.3 1v8.5l-4 2v1l5-2.5v-8.5c0-.9-.5-1.5-1.3-1.5z" opacity=".4"/><path d="m83 91.5-7 3.5v-1l7-3.5z" fill="#fff" opacity=".5"/><path d="m79.5 81.3c-1.4.6-2.5 2.3-2.5 3.7v8.5l5-2.5v-8.5c0-1.4-1.1-1.9-2.5-1.2z" fill="#7fadb9"/><path d="m79.5 81.3c-1.4.6-2.5 2.3-2.5 3.7v8.5l5-2.5v-8.5c0-1.4-1.1-1.9-2.5-1.2zm-1.5 3.2c0-.7.4-1.4 1-1.9v2.9l-1 .5zm0 2.5 1-.5v2l-1 .5zm0 5v-2l1-.5v2zm3-1.5-1 .5v-2l1-.5zm0-3-1 .5v-2l1-.5zm0-3-1 .5v-2.9c.6-.1 1 .3 1 .9z" fill="#39c"/><path d="m80.7 81c.2.3.3.6.3 1v8.5l-4 2v1l5-2.5v-8.5c0-.9-.5-1.5-1.3-1.5z" opacity=".4"/><path d="m113 76.5-7 3.5v-1l7-3.5z" fill="#fff" opacity=".5"/><path d="m109.5 66.3c-1.4.7-2.5 2.4-2.5 3.7v8.5l5-2.5v-8.5c0-1.4-1.1-1.9-2.5-1.2z" fill="#7fadb9"/><path d="m109.5 66.3c-1.4.7-2.5 2.4-2.5 3.7v8.5l5-2.5v-8.5c0-1.4-1.1-1.9-2.5-1.2zm-1.5 3.2c0-.7.4-1.4 1-1.9v2.9l-1 .5zm0 2.5 1-.5v2l-1 .5zm0 5v-2l1-.5v2zm3-1.5-1 .5v-2l1-.5zm0-3-1 .5v-2l1-.5zm0-3-1 .5v-2.9c.6-.1 1 .3 1 .9z" fill="#39c"/><path d="m110.7 66c.2.3.3.6.3 1v8.5l-4 2v1l5-2.5v-8.5c0-.9-.5-1.5-1.3-1.5z" opacity=".4"/><path d="m121 72.5-7 3.5v-1l7-3.5z" fill="#fff" opacity=".5"/><path d="m117.5 62.3c-1.4.7-2.5 2.4-2.5 3.7v8.5l5-2.5v-8.5c0-1.4-1.1-1.9-2.5-1.2z" fill="#7fadb9"/><path d="m117.5 62.3c-1.4.7-2.5 2.4-2.5 3.7v8.5l5-2.5v-8.5c0-1.4-1.1-1.9-2.5-1.2zm-1.5 3.2c0-.7.4-1.4 1-1.9v2.9l-1 .5zm0 2.5 1-.5v2l-1 .5zm0 5v-2l1-.5v2zm3-1.5-1 .5v-2l1-.5zm0-3-1 .5v-2l1-.5zm0-3-1 .5v-2.9c.6-.1 1 .3 1 .9z" fill="#39c"/><path d="m118.7 62c.2.3.3.6.3 1v8.5l-4 2v1l5-2.5v-8.5c0-.9-.5-1.5-1.3-1.5z" opacity=".4"/><path d="m94 86-7 3.5v-1l7-3.5z" fill="#fff" opacity=".5"/><path d="m90.5 75.8c-1.4.7-2.5 2.4-2.5 3.7v8.5l5-2.5v-8.5c0-1.4-1.1-1.9-2.5-1.2z" fill="#7fadb9"/><path d="m90.5 75.8c-1.4.7-2.5 2.4-2.5 3.7v8.5l5-2.5v-8.5c0-1.4-1.1-1.9-2.5-1.2zm-1.5 3.2c0-.7.4-1.4 1-1.9v2.9l-1 .5zm0 2.5 1-.5v2l-1 .5zm0 5v-2l1-.5v2zm3-1.5-1 .5v-2l1-.5zm0-3-1 .5v-2l1-.5zm0-3-1 .5v-2.9c.6-.1 1 .3 1 .9z" fill="#39c"/><path d="m91.7 75.5c.2.3.3.6.3 1v8.5l-4 2v1l5-2.5v-8.5c0-.9-.5-1.5-1.3-1.5z" opacity=".4"/><path d="m102 82-7 3.5v-1l7-3.5z" fill="#fff" opacity=".5"/><path d="m98.5 71.8c-1.4.7-2.5 2.4-2.5 3.7v8.5l5-2.5v-8.5c0-1.4-1.1-1.9-2.5-1.2z" fill="#7fadb9"/><path d="m98.5 71.8c-1.4.7-2.5 2.4-2.5 3.7v8.5l5-2.5v-8.5c0-1.4-1.1-1.9-2.5-1.2zm-1.5 3.2c0-.7.4-1.4 1-1.9v2.9l-1 .5zm0 2.5 1-.5v2l-1 .5zm0 5v-2l1-.5v2zm3-1.5-1 .5v-2l1-.5zm0-3-1 .5v-2l1-.5zm0-3-1 .5v-2.9c.6-.1 1 .3 1 .9z" fill="#39c"/><path d="m99.7 71.5c.2.3.3.6.3 1v8.5l-4 2v1l5-2.5v-8.5c0-.9-.5-1.5-1.3-1.5z" opacity=".4"/><path d="m122 95-56 28v-17l56-28z" fill="#39c"/><path d="m75 81.5-7 3.5v-1l7-3.5z" fill="#fff" opacity=".5"/><path d="m71.5 71.3c-1.4.6-2.5 2.3-2.5 3.7v8.5l5-2.5v-8.5c0-1.4-1.1-1.9-2.5-1.2z" fill="#7fadb9"/><path d="m71.5 71.3c-1.4.6-2.5 2.3-2.5 3.7v8.5l5-2.5v-8.5c0-1.4-1.1-1.9-2.5-1.2zm-1.5 3.2c0-.7.4-1.4 1-1.9v2.9l-1 .5zm0 2.5 1-.5v2l-1 .5zm0 5v-2l1-.5v2zm3-1.5-1 .5v-2l1-.5zm0-3-1 .5v-2l1-.5zm0-3-1 .5v-2.9c.6-.1 1 .3 1 .9z" fill="#39c"/><path d="m72.7 71c.2.3.3.6.3 1v8.5l-4 2v1l5-2.5v-8.5c0-.9-.5-1.5-1.3-1.5z" opacity=".4"/><path d="m83 77.5-7 3.5v-1l7-3.5z" fill="#fff" opacity=".5"/><path d="m79.5 67.3c-1.4.6-2.5 2.3-2.5 3.7v8.5l5-2.5v-8.5c0-1.4-1.1-1.9-2.5-1.2z" fill="#7fadb9"/><path d="m79.5 67.3c-1.4.6-2.5 2.3-2.5 3.7v8.5l5-2.5v-8.5c0-1.4-1.1-1.9-2.5-1.2zm-1.5 3.2c0-.7.4-1.4 1-1.9v2.9l-1 .5zm0 2.5 1-.5v2l-1 .5zm0 5v-2l1-.5v2zm3-1.5-1 .5v-2l1-.5zm0-3-1 .5v-2l1-.5zm0-3-1 .5v-2.9c.6-.1 1 .3 1 .9z" fill="#39c"/><path d="m80.7 67c.2.3.3.6.3 1v8.5l-4 2v1l5-2.5v-8.5c0-.9-.5-1.5-1.3-1.5z" opacity=".4"/><path d="m113 62.5-7 3.5v-1l7-3.5z" fill="#fff" opacity=".5"/><path d="m109.5 52.3c-1.4.7-2.5 2.4-2.5 3.7v8.5l5-2.5v-8.5c0-1.4-1.1-1.9-2.5-1.2z" fill="#7fadb9"/><path d="m109.5 52.3c-1.4.7-2.5 2.4-2.5 3.7v8.5l5-2.5v-8.5c0-1.4-1.1-1.9-2.5-1.2zm-1.5 3.2c0-.7.4-1.4 1-1.9v2.9l-1 .5zm0 2.5 1-.5v2l-1 .5zm0 5v-2l1-.5v2zm3-1.5-1 .5v-2l1-.5zm0-3-1 .5v-2l1-.5zm0-3-1 .5v-2.9c.6-.1 1 .3 1 .9z" fill="#39c"/><path d="m110.7 52c.2.3.3.6.3 1v8.5l-4 2v1l5-2.5v-8.5c0-.9-.5-1.5-1.3-1.5z" opacity=".4"/><path d="m121 58.5-7 3.5v-1l7-3.5z" fill="#fff" opacity=".5"/><path d="m117.5 48.3c-1.4.7-2.5 2.4-2.5 3.7v8.5l5-2.5v-8.5c0-1.4-1.1-1.9-2.5-1.2z" fill="#7fadb9"/><path d="m117.5 48.3c-1.4.7-2.5 2.4-2.5 3.7v8.5l5-2.5v-8.5c0-1.4-1.1-1.9-2.5-1.2zm-1.5 3.2c0-.7.4-1.4 1-1.9v2.9l-1 .5zm0 2.5 1-.5v2l-1 .5zm0 5v-2l1-.5v2zm3-1.5-1 .5v-2l1-.5zm0-3-1 .5v-2l1-.5zm0-3-1 .5v-2.9c.6-.1 1 .3 1 .9z" fill="#39c"/><path d="m118.7 48c.2.3.3.6.3 1v8.5l-4 2v1l5-2.5v-8.5c0-.9-.5-1.5-1.3-1.5z" opacity=".4"/><path d="m94 72-7 3.5v-1l7-3.5z" fill="#fff" opacity=".5"/><path d="m90.5 61.8c-1.4.7-2.5 2.4-2.5 3.7v8.5l5-2.5v-8.5c0-1.4-1.1-1.9-2.5-1.2z" fill="#7fadb9"/><path d="m90.5 61.8c-1.4.7-2.5 2.4-2.5 3.7v8.5l5-2.5v-8.5c0-1.4-1.1-1.9-2.5-1.2zm-1.5 3.2c0-.7.4-1.4 1-1.9v2.9l-1 .5zm0 2.5 1-.5v2l-1 .5zm0 5v-2l1-.5v2zm3-1.5-1 .5v-2l1-.5zm0-3-1 .5v-2l1-.5zm0-3-1 .5v-2.9c.6-.1 1 .3 1 .9z" fill="#39c"/><path d="m91.7 61.5c.2.3.3.6.3 1v8.5l-4 2v1l5-2.5v-8.5c0-.9-.5-1.5-1.3-1.5z" opacity=".4"/><path d="m102 68-7 3.5v-1l7-3.5z" fill="#fff" opacity=".5"/><path d="m98.5 57.8c-1.4.7-2.5 2.4-2.5 3.7v8.5l5-2.5v-8.5c0-1.4-1.1-1.9-2.5-1.2z" fill="#7fadb9"/><path d="m98.5 57.8c-1.4.7-2.5 2.4-2.5 3.7v8.5l5-2.5v-8.5c0-1.4-1.1-1.9-2.5-1.2zm-1.5 3.2c0-.7.4-1.4 1-1.9v2.9l-1 .5zm0 2.5 1-.5v2l-1 .5zm0 5v-2l1-.5v2zm3-1.5-1 .5v-2l1-.5zm0-3-1 .5v-2l1-.5zm0-3-1 .5v-2.9c.6-.1 1 .3 1 .9z" fill="#39c"/><path d="m99.7 57.5c.2.3.3.6.3 1v8.5l-4 2v1l5-2.5v-8.5c0-.9-.5-1.5-1.3-1.5z" opacity=".4"/><path d="m75 67.5-7 3.5v-1l7-3.5z" fill="#fff" opacity=".5"/><path d="m71.5 60.3c-1.4.6-2.5 2.3-2.5 3.7v5.5l5-2.5v-5.5c0-1.4-1.1-1.9-2.5-1.2z" fill="#7fadb9"/><path d="m71.5 60.3c-1.4.6-2.5 2.3-2.5 3.7v5.5l5-2.5v-5.5c0-1.4-1.1-1.9-2.5-1.2zm-.5 7.2-1 .5v-2l1-.5zm0-3-1 .5v-1.5c0-.7.4-1.4 1-1.9zm2 2-1 .5v-2l1-.5zm0-3-1 .5v-2.9c.6-.1 1 .3 1 .9z" fill="#39c"/><path d="m72.7 60c.2.3.3.6.3 1v5.5l-4 2v1l5-2.5v-5.5c0-.9-.5-1.5-1.3-1.5z" opacity=".4"/><path d="m83 63.5-7 3.5v-1l7-3.5z" fill="#fff" opacity=".5"/><path d="m79.5 56.3c-1.4.6-2.5 2.3-2.5 3.7v5.5l5-2.5v-5.5c0-1.4-1.1-1.9-2.5-1.2z" fill="#7fadb9"/><path d="m79.5 56.3c-1.4.6-2.5 2.3-2.5 3.7v5.5l5-2.5v-5.5c0-1.4-1.1-1.9-2.5-1.2zm-.5 7.2-1 .5v-2l1-.5zm0-3-1 .5v-1.5c0-.7.4-1.4 1-1.9zm2 2-1 .5v-2l1-.5zm0-3-1 .5v-2.9c.6-.1 1 .3 1 .9z" fill="#39c"/><path d="m80.7 56c.2.3.3.6.3 1v5.5l-4 2v1l5-2.5v-5.5c0-.9-.5-1.5-1.3-1.5z" opacity=".4"/><path d="m94 58-7 3.5v-1l7-3.5z" fill="#fff" opacity=".5"/><path d="m90.5 50.8c-1.4.7-2.5 2.4-2.5 3.7v5.5l5-2.5v-5.5c0-1.4-1.1-1.9-2.5-1.2z" fill="#7fadb9"/><path d="m90.5 50.8c-1.4.7-2.5 2.4-2.5 3.7v5.5l5-2.5v-5.5c0-1.4-1.1-1.9-2.5-1.2zm-.5 7.2-1 .5v-2l1-.5zm0-3-1 .5v-1.5c0-.7.4-1.4 1-1.9zm2 2-1 .5v-2l1-.5zm0-3-1 .5v-2.9c.6-.1 1 .3 1 .9z" fill="#39c"/><path d="m91.7 50.5c.2.3.3.6.3 1v5.5l-4 2v1l5-2.5v-5.5c0-.9-.5-1.5-1.3-1.5z" opacity=".4"/><path d="m102 54-7 3.5v-1l7-3.5z" fill="#fff" opacity=".5"/><path d="m98.5 46.8c-1.4.7-2.5 2.4-2.5 3.7v5.5l5-2.5v-5.5c0-1.4-1.1-1.9-2.5-1.2z" fill="#7fadb9"/><path d="m98.5 46.8c-1.4.7-2.5 2.4-2.5 3.7v5.5l5-2.5v-5.5c0-1.4-1.1-1.9-2.5-1.2zm-.5 7.2-1 .5v-2l1-.5zm0-3-1 .5v-1.5c0-.7.4-1.4 1-1.9zm2 2-1 .5v-2l1-.5zm0-3-1 .5v-2.9c.6-.1 1 .3 1 .9z" fill="#39c"/><path d="m99.7 46.5c.2.3.3.6.3 1v5.5l-4 2v1l5-2.5v-5.5c0-.9-.5-1.5-1.3-1.5z" opacity=".4"/><path d="m113 48.5-7 3.5v-1l7-3.5z" fill="#fff" opacity=".5"/><path d="m109.5 41.3c-1.4.7-2.5 2.4-2.5 3.7v5.5l5-2.5v-5.5c0-1.4-1.1-1.9-2.5-1.2z" fill="#7fadb9"/><path d="m109.5 41.3c-1.4.7-2.5 2.4-2.5 3.7v5.5l5-2.5v-5.5c0-1.4-1.1-1.9-2.5-1.2zm-.5 7.2-1 .5v-2l1-.5zm0-3-1 .5v-1.5c0-.7.4-1.4 1-1.9zm2 2-1 .5v-2l1-.5zm0-3-1 .5v-2.9c.6-.1 1 .3 1 .9z" fill="#39c"/><path d="m110.7 41c.2.3.3.6.3 1v5.5l-4 2v1l5-2.5v-5.5c0-.9-.5-1.5-1.3-1.5z" opacity=".4"/><path d="m121 44.5-7 3.5v-1l7-3.5z" fill="#fff" opacity=".5"/><path d="m117.5 37.3c-1.4.7-2.5 2.4-2.5 3.7v5.5l5-2.5v-5.5c0-1.4-1.1-1.9-2.5-1.2z" fill="#7fadb9"/><path d="m117.5 37.3c-1.4.7-2.5 2.4-2.5 3.7v5.5l5-2.5v-5.5c0-1.4-1.1-1.9-2.5-1.2zm-.5 7.2-1 .5v-2l1-.5zm0-3-1 .5v-1.5c0-.7.4-1.4 1-1.9zm2 2-1 .5v-2l1-.5zm0-3-1 .5v-2.9c.6-.1 1 .3 1 .9z" fill="#39c"/><path d="m118.7 37c.2.3.3.6.3 1v5.5l-4 2v1l5-2.5v-5.5c0-.9-.5-1.5-1.3-1.5z" opacity=".4"/><path d="m67 122.5-1 .5v-20l1-.5z" opacity=".15"/><path d="m87 112.5-21 10.5v-4l21-10.5z" opacity=".15"/><path d="m87 109.5-21 10.5v-1l21-10.5z" opacity=".15"/><path d="m122 95-20 10v-4l20-10z" opacity=".15"/><path d="m122 92-20 10v-1l20-10z" opacity=".15"/><path d="m87 99.5 1-.5v13l-1 .5z" fill="#fff" opacity=".5"/><path d="m86 100 1-.5v13l-1 .5z" opacity=".15"/><path d="m102 92 1-.5v13l-1 .5z" opacity=".15"/><path d="m121 82.5 1-.5v13l-1 .5z" opacity=".15"/><path d="m115 85.5 1-.5v9l-1 .5z" opacity=".15"/><path d="m108 89 1-.5v9l-1 .5z" opacity=".15"/><path d="m79 103.5 1-.5v9l-1 .5z" opacity=".15"/><path d="m72 107 1-.5v9l-1 .5z" opacity=".15"/><path d="m94 96 1-.5v13l-1 .5z" fill="#fff" opacity=".5"/><path d="m101 92.5 1-.5v13l-1 .5z" fill="#fff" opacity=".5"/><path d="m101 105.5v-12l-6 3v2z" opacity=".15"/><path d="m115 92.5v-6l-6 3v1z" opacity=".15"/><path d="m121 91.5v-8l-5 2.5v1.3z" opacity=".15"/><path d="m86 107v-6l-6 3v1z" opacity=".15"/><path d="m88 112 6-3-6-5z" fill="#fff" opacity=".2"/><path d="m125.5 84.3c-.8.4-1.5.1-1.5-.8v-1.5l3-1.5v1.5c0 .8-.7 1.8-1.5 2.3z" fill="#fff"/><path d="m122.5 85.8c-.8.4-1.5.1-1.5-.8v-1.5l3-1.5v1.5c0 .8-.7 1.8-1.5 2.3z" fill="#cc291f"/><path d="m120 78 3-1.5 4 4-3 1.5z" fill="#fff"/><path d="m117 79.5 3-1.5 4 4-3 1.5z" fill="#cc291f"/><path d="m119.5 87.3c-.8.4-1.5.1-1.5-.8v-1.5l3-1.5v1.5c0 .8-.7 1.8-1.5 2.3z" fill="#fff"/><path d="m116.5 88.8c-.8.4-1.5.1-1.5-.8v-1.5l3-1.5v1.5c0 .8-.7 1.8-1.5 2.3z" fill="#cc291f"/><path d="m114 81 3-1.5 4 4-3 1.5z" fill="#fff"/><path d="m111 82.5 3-1.5 4 4-3 1.5z" fill="#cc291f"/><path d="m113.5 90.3c-.8.4-1.5.1-1.5-.8v-1.5l3-1.5v1.5c0 .8-.7 1.8-1.5 2.3z" fill="#fff"/><path d="m110.5 91.8c-.8.4-1.5.1-1.5-.8v-1.5l3-1.5v1.5c0 .8-.7 1.8-1.5 2.3z" fill="#cc291f"/><path d="m108 84 3-1.5 4 4-3 1.5z" fill="#fff"/><path d="m105 85.5 3-1.5 4 4-3 1.5z" fill="#cc291f"/><path d="m107.5 93.3c-.8.4-1.5.1-1.5-.8v-1.5l3-1.5v1.5c0 .8-.7 1.8-1.5 2.3z" fill="#fff"/><path d="m104.5 94.8c-.8.4-1.5.1-1.5-.8v-1.5l3-1.5v1.5c0 .8-.7 1.8-1.5 2.3z" fill="#cc291f"/><path d="m102 87 3-1.5 4 4-3 1.5z" fill="#fff"/><path d="m99 88.5 3-1.5 4 4-3 1.5z" fill="#cc291f"/><path d="m101.5 96.3c-.8.4-1.5.1-1.5-.8v-1.5l3-1.5v1.5c0 .8-.7 1.8-1.5 2.3z" fill="#fff"/><path d="m98.5 97.8c-.8.4-1.5 0-1.5-.8v-1.5l3-1.5v1.5c0 .8-.7 1.8-1.5 2.3z" fill="#cc291f"/><path d="m96 90 3-1.5 4 4-3 1.5z" fill="#fff"/><path d="m93 91.5 3-1.5 4 4-3 1.5z" fill="#cc291f"/><path d="m95.5 99.3c-.8.4-1.5.1-1.5-.8v-1.5l3-1.5v1.5c0 .8-.7 1.8-1.5 2.3z" fill="#fff"/><path d="m92.5 100.8c-.8.4-1.5.1-1.5-.8v-1.5l3-1.5v1.5c0 .8-.7 1.8-1.5 2.3z" fill="#cc291f"/><path d="m90 93 3-1.5 4 4-3 1.5z" fill="#fff"/><path d="m87 94.5 3-1.5 4 4-3 1.5z" fill="#cc291f"/><path d="m89.5 102.3c-.8.4-1.5.1-1.5-.8v-1.5l3-1.5v1.5c0 .8-.7 1.8-1.5 2.3z" fill="#fff"/><path d="m86.5 103.8c-.8.4-1.5.1-1.5-.8v-1.5l3-1.5v1.5c0 .8-.7 1.8-1.5 2.3z" fill="#cc291f"/><path d="m84 96 3-1.5 4 4-3 1.5z" fill="#fff"/><path d="m81 97.5 3-1.5 4 4-3 1.5z" fill="#cc291f"/><path d="m83.5 105.3c-.8.4-1.5.1-1.5-.8v-1.5l3-1.5v1.5c0 .8-.7 1.8-1.5 2.3z" fill="#fff"/><path d="m80.5 106.8c-.8.4-1.5.1-1.5-.8v-1.5l3-1.5v1.5c0 .8-.7 1.8-1.5 2.3z" fill="#cc291f"/><path d="m78 99 3-1.5 4 4-3 1.5z" fill="#fff"/><path d="m75 100.5 3-1.5 4 4-3 1.5z" fill="#cc291f"/><path d="m77.5 108.3c-.8.4-1.5.1-1.5-.8v-1.5l3-1.5v1.5c0 .8-.7 1.8-1.5 2.3z" fill="#fff"/><path d="m74.5 109.8c-.8.4-1.5.1-1.5-.8v-1.5l3-1.5v1.5c0 .8-.7 1.8-1.5 2.3z" fill="#cc291f"/><path d="m72 102 3-1.5 4 4-3 1.5z" fill="#fff"/><path d="m69 103.5 3-1.5 4 4-3 1.5z" fill="#cc291f"/><path d="m71.5 111.3c-.8.4-1.5.1-1.5-.8v-1.5l3-1.5v1.5c0 .8-.7 1.8-1.5 2.3z" fill="#fff"/><path d="m68.5 112.8c-.8.4-1.5.1-1.5-.8v-1.5l3-1.5v1.5c0 .8-.7 1.8-1.5 2.3z" fill="#cc291f"/><path d="m66 105 3-1.5 4 4-3 1.5z" fill="#fff"/><path d="m66 105 4 4-3 1.5-1-.5z" fill="#cc291f"/><path d="m67 110.5-1-.5v-5l57-28.5 2 2v-48l-61 30.5v64l2-1v-1l56-28 1 .5 2-1v-10.1c.2 0 .3-.1.5-.2.8-.4 1.5-1.4 1.5-2.2v-1.5z" opacity=".39"/><path d="m67 110.5s-.9-5.6-1-5.5 0 5 0 5z" opacity=".06"/><path d="m3 94.5 2 1 1-.5 56 28v1l2 1v-64l-61-30.5z" fill="#f8ebcb"/><path d="m3 73.5 61 30.5v-1l-61-30.5z" opacity=".15"/><path d="m3 72.5 61 30.5v-1l-61-30.5z" fill="#fff" opacity=".5"/><path d="m3 32.5 61 30.5v-1l-61-30.5z" opacity=".15"/><path d="m3 31.5 61 30.5v-1l-61-30.5z" fill="#fff" opacity=".5"/><path d="m61 100.5 1 .5v-39l-1-.5z" opacity=".15"/><path d="m5 72.5 1 .5v-39l-1-.5z" opacity=".15"/><path d="m5 95.5 1-.5v-20l-1-.5z" opacity=".1"/><path d="m14 76-7-3.5v-1l7 3.5z" fill="#fff" opacity=".5"/><path d="m10.5 62.3c-1.4-.7-2.5-.2-2.5 1.2v8.5l5 2.5v-8.5c0-1.4-1.1-3.1-2.5-3.7z" fill="#7fadb9"/><path d="m10.5 62.3c-1.4-.7-2.5-.2-2.5 1.2v8.5l5 2.5v-8.5c0-1.4-1.1-3.1-2.5-3.7zm-1.5 1.7c0-.7.4-1 1-.9v2.9l-1-.5zm0 2.5 1 .5v2l-1-.5zm0 5v-2l1 .5v2zm3 1.5-1-.5v-2l1 .5zm0-3-1-.5v-2l1 .5zm0-3-1-.5v-2.9c.6.5 1 1.3 1 1.9z" fill="#39c"/><path d="m11.7 63.2c.2.5.3.9.3 1.3v8.5l-4-2v1l5 2.5v-8.5c0-.9-.5-2-1.3-2.8z" opacity=".4"/><path d="m22 80-7-3.5v-1l7 3.5z" fill="#fff" opacity=".5"/><path d="m18.5 66.3c-1.4-.7-2.5-.1-2.5 1.3v8.4l5 2.5v-8.5c0-1.4-1.1-3.1-2.5-3.7z" fill="#7fadb9"/><path d="m18.5 66.3c-1.4-.7-2.5-.1-2.5 1.3v8.4l5 2.5v-8.5c0-1.4-1.1-3.1-2.5-3.7zm-1.5 1.7c0-.7.4-1 1-.9v2.9l-1-.5zm0 2.5 1 .5v2l-1-.5zm0 5v-2l1 .5v2zm3 1.5-1-.5v-2l1 .5zm0-3-1-.5v-2l1 .5zm0-3-1-.5v-2.9c.6.5 1 1.3 1 1.9z" fill="#39c"/><path d="m19.7 67.2c.2.5.3.9.3 1.3v8.5l-4-2v1l5 2.5v-8.5c0-.9-.5-2-1.3-2.8z" opacity=".4"/><path d="m52 95-7-3.5v-1l7 3.5z" fill="#fff" opacity=".5"/><path d="m48.5 81.3c-1.4-.7-2.5-.1-2.5 1.3v8.4l5 2.5v-8.5c0-1.4-1.1-3.1-2.5-3.7z" fill="#7fadb9"/><path d="m48.5 81.3c-1.4-.7-2.5-.1-2.5 1.3v8.4l5 2.5v-8.5c0-1.4-1.1-3.1-2.5-3.7zm-1.5 1.7c0-.7.4-1 1-.9v2.9l-1-.5zm0 2.5 1 .5v2l-1-.5zm0 5v-2l1 .5v2zm3 1.5-1-.5v-2l1 .5zm0-3-1-.5v-2l1 .5zm0-3-1-.5v-2.9c.6.5 1 1.3 1 1.9z" fill="#39c"/><path d="m49.7 82.2c.2.5.3.9.3 1.3v8.5l-4-2v1l5 2.5v-8.5c0-.9-.5-2-1.3-2.8z" opacity=".4"/><path d="m60 99-7-3.5v-1l7 3.5z" fill="#fff" opacity=".5"/><path d="m56.5 85.3c-1.4-.7-2.5-.1-2.5 1.3v8.4l5 2.5v-8.5c0-1.4-1.1-3.1-2.5-3.7z" fill="#7fadb9"/><path d="m56.5 85.3c-1.4-.7-2.5-.1-2.5 1.3v8.4l5 2.5v-8.5c0-1.4-1.1-3.1-2.5-3.7zm-1.5 1.7c0-.7.4-1 1-.9v2.9l-1-.5zm0 2.5 1 .5v2l-1-.5zm0 5v-2l1 .5v2zm3 1.5-1-.5v-2l1 .5zm0-3-1-.5v-2l1 .5zm0-3-1-.5v-2.9c.6.5 1 1.3 1 1.9z" fill="#39c"/><path d="m57.7 86.2c.2.5.3.9.3 1.3v8.5l-4-2v1l5 2.5v-8.5c0-.9-.5-2-1.3-2.8z" opacity=".4"/><path d="m33 85.5-7-3.5v-1l7 3.5z" fill="#fff" opacity=".5"/><path d="m29.5 71.8c-1.4-.7-2.5-.2-2.5 1.2v8.5l5 2.5v-8.5c0-1.4-1.1-3.1-2.5-3.7z" fill="#7fadb9"/><path d="m29.5 71.8c-1.4-.7-2.5-.2-2.5 1.2v8.5l5 2.5v-8.5c0-1.4-1.1-3.1-2.5-3.7zm-1.5 1.7c0-.7.4-1 1-.9v2.9l-1-.5zm0 2.5 1 .5v2l-1-.5zm0 5v-2l1 .5v2zm3 1.5-1-.5v-2l1 .5zm0-3-1-.5v-2l1 .5zm0-3-1-.5v-2.9c.6.5 1 1.3 1 1.9z" fill="#39c"/><path d="m30.7 72.7c.2.5.3.9.3 1.3v8.5l-4-2v1l5 2.5v-8.5c0-.9-.5-2-1.3-2.8z" opacity=".4"/><path d="m41 89.5-7-3.5v-1l7 3.5z" fill="#fff" opacity=".5"/><path d="m37.5 75.8c-1.4-.7-2.5-.2-2.5 1.2v8.5l5 2.5v-8.5c0-1.4-1.1-3.1-2.5-3.7z" fill="#7fadb9"/><path d="m37.5 75.8c-1.4-.7-2.5-.2-2.5 1.2v8.5l5 2.5v-8.5c0-1.4-1.1-3.1-2.5-3.7zm-1.5 1.7c0-.7.4-1 1-.9v2.9l-1-.5zm0 2.5 1 .5v2l-1-.5zm0 5v-2l1 .5v2zm3 1.5-1-.5v-2l1 .5zm0-3-1-.5v-2l1 .5zm0-3-1-.5v-2.9c.6.5 1 1.3 1 1.9z" fill="#39c"/><path d="m38.7 76.7c.2.5.3.9.3 1.3v8.5l-4-2v1l5 2.5v-8.5c0-.9-.5-2-1.3-2.8z" opacity=".4"/><path d="m6 95 56 28v-17l-56-28z" fill="#39c"/><path d="m14 62-7-3.5v-1l7 3.5z" fill="#fff" opacity=".5"/><path d="m10.5 48.3c-1.4-.7-2.5-.2-2.5 1.2v8.5l5 2.5v-8.5c0-1.4-1.1-3.1-2.5-3.7z" fill="#7fadb9"/><path d="m10.5 48.3c-1.4-.7-2.5-.2-2.5 1.2v8.5l5 2.5v-8.5c0-1.4-1.1-3.1-2.5-3.7zm-1.5 1.7c0-.7.4-1 1-.9v2.9l-1-.5zm0 2.5 1 .5v2l-1-.5zm0 5v-2l1 .5v2zm3 1.5-1-.5v-2l1 .5zm0-3-1-.5v-2l1 .5zm0-3-1-.5v-2.9c.6.5 1 1.3 1 1.9z" fill="#39c"/><path d="m11.7 49.2c.2.5.3.9.3 1.3v8.5l-4-2v1l5 2.5v-8.5c0-.9-.5-2-1.3-2.8z" opacity=".4"/><path d="m22 66-7-3.5v-1l7 3.5z" fill="#fff" opacity=".5"/><path d="m18.5 52.3c-1.4-.7-2.5-.1-2.5 1.3v8.4l5 2.5v-8.5c0-1.4-1.1-3.1-2.5-3.7z" fill="#7fadb9"/><path d="m18.5 52.3c-1.4-.7-2.5-.1-2.5 1.3v8.4l5 2.5v-8.5c0-1.4-1.1-3.1-2.5-3.7zm-1.5 1.7c0-.7.4-1 1-.9v2.9l-1-.5zm0 2.5 1 .5v2l-1-.5zm0 5v-2l1 .5v2zm3 1.5-1-.5v-2l1 .5zm0-3-1-.5v-2l1 .5zm0-3-1-.5v-2.9c.6.5 1 1.3 1 1.9z" fill="#39c"/><path d="m19.7 53.2c.2.5.3.9.3 1.3v8.5l-4-2v1l5 2.5v-8.5c0-.9-.5-2-1.3-2.8z" opacity=".4"/><path d="m52 81-7-3.5v-1l7 3.5z" fill="#fff" opacity=".5"/><path d="m48.5 67.3c-1.4-.7-2.5-.1-2.5 1.3v8.4l5 2.5v-8.5c0-1.4-1.1-3.1-2.5-3.7z" fill="#7fadb9"/><path d="m48.5 67.3c-1.4-.7-2.5-.1-2.5 1.3v8.4l5 2.5v-8.5c0-1.4-1.1-3.1-2.5-3.7zm-1.5 1.7c0-.7.4-1 1-.9v2.9l-1-.5zm0 2.5 1 .5v2l-1-.5zm0 5v-2l1 .5v2zm3 1.5-1-.5v-2l1 .5zm0-3-1-.5v-2l1 .5zm0-3-1-.5v-2.9c.6.5 1 1.3 1 1.9z" fill="#39c"/><path d="m49.7 68.2c.2.5.3.9.3 1.3v8.5l-4-2v1l5 2.5v-8.5c0-.9-.5-2-1.3-2.8z" opacity=".4"/><path d="m60 85-7-3.5v-1l7 3.5z" fill="#fff" opacity=".5"/><path d="m56.5 71.3c-1.4-.7-2.5-.1-2.5 1.3v8.4l5 2.5v-8.5c0-1.4-1.1-3.1-2.5-3.7z" fill="#7fadb9"/><path d="m56.5 71.3c-1.4-.7-2.5-.1-2.5 1.3v8.4l5 2.5v-8.5c0-1.4-1.1-3.1-2.5-3.7zm-1.5 1.7c0-.7.4-1 1-.9v2.9l-1-.5zm0 2.5 1 .5v2l-1-.5zm0 5v-2l1 .5v2zm3 1.5-1-.5v-2l1 .5zm0-3-1-.5v-2l1 .5zm0-3-1-.5v-2.9c.6.5 1 1.3 1 1.9z" fill="#39c"/><path d="m57.7 72.2c.2.5.3.9.3 1.3v8.5l-4-2v1l5 2.5v-8.5c0-.9-.5-2-1.3-2.8z" opacity=".4"/><path d="m33 71.5-7-3.5v-1l7 3.5z" fill="#fff" opacity=".5"/><path d="m29.5 57.8c-1.4-.7-2.5-.2-2.5 1.2v8.5l5 2.5v-8.5c0-1.4-1.1-3.1-2.5-3.7z" fill="#7fadb9"/><path d="m29.5 57.8c-1.4-.7-2.5-.2-2.5 1.2v8.5l5 2.5v-8.5c0-1.4-1.1-3.1-2.5-3.7zm-1.5 1.7c0-.7.4-1 1-.9v2.9l-1-.5zm0 2.5 1 .5v2l-1-.5zm0 5v-2l1 .5v2zm3 1.5-1-.5v-2l1 .5zm0-3-1-.5v-2l1 .5zm0-3-1-.5v-2.9c.6.5 1 1.3 1 1.9z" fill="#39c"/><path d="m30.7 58.7c.2.5.3.9.3 1.3v8.5l-4-2v1l5 2.5v-8.5c0-.9-.5-2-1.3-2.8z" opacity=".4"/><path d="m41 75.5-7-3.5v-1l7 3.5z" fill="#fff" opacity=".5"/><path d="m37.5 61.8c-1.4-.7-2.5-.2-2.5 1.2v8.5l5 2.5v-8.5c0-1.4-1.1-3.1-2.5-3.7z" fill="#7fadb9"/><path d="m37.5 61.8c-1.4-.7-2.5-.2-2.5 1.2v8.5l5 2.5v-8.5c0-1.4-1.1-3.1-2.5-3.7zm-1.5 1.7c0-.7.4-1 1-.9v2.9l-1-.5zm0 2.5 1 .5v2l-1-.5zm0 5v-2l1 .5v2zm3 1.5-1-.5v-2l1 .5zm0-3-1-.5v-2l1 .5zm0-3-1-.5v-2.9c.6.5 1 1.3 1 1.9z" fill="#39c"/><path d="m38.7 62.7c.2.5.3.9.3 1.3v8.5l-4-2v1l5 2.5v-8.5c0-.9-.5-2-1.3-2.8z" opacity=".4"/><path d="m14 48-7-3.5v-1l7 3.5z" fill="#fff" opacity=".5"/><path d="m10.5 37.3c-1.4-.7-2.5-.2-2.5 1.2v5.5l5 2.5v-5.5c0-1.4-1.1-3.1-2.5-3.7z" fill="#7fadb9"/><path d="m10.5 37.3c-1.4-.7-2.5-.2-2.5 1.2v5.5l5 2.5v-5.5c0-1.4-1.1-3.1-2.5-3.7zm-.5 6.7-1-.5v-2l1 .5zm0-3-1-.5v-1.5c0-.7.4-1 1-.9zm2 4-1-.5v-2l1 .5zm0-3-1-.5v-2.9c.6.5 1 1.3 1 1.9z" fill="#39c"/><path d="m11.7 38.2c.2.5.3.9.3 1.3v5.5l-4-2v1l5 2.5v-5.5c0-.9-.5-2-1.3-2.8z" opacity=".4"/><path d="m22 52-7-3.5v-1l7 3.5z" fill="#fff" opacity=".5"/><path d="m18.5 41.3c-1.4-.7-2.5-.1-2.5 1.3v5.4l5 2.5v-5.5c0-1.4-1.1-3.1-2.5-3.7z" fill="#7fadb9"/><path d="m18.5 41.3c-1.4-.7-2.5-.1-2.5 1.3v5.4l5 2.5v-5.5c0-1.4-1.1-3.1-2.5-3.7zm-.5 6.7-1-.5v-2l1 .5zm0-3-1-.5v-1.5c0-.7.4-1 1-.9zm2 4-1-.5v-2l1 .5zm0-3-1-.5v-2.9c.6.5 1 1.3 1 1.9z" fill="#39c"/><path d="m19.7 42.2c.2.5.3.9.3 1.3v5.5l-4-2v1l5 2.5v-5.5c0-.9-.5-2-1.3-2.8z" opacity=".4"/><path d="m33 57.5-7-3.5v-1l7 3.5z" fill="#fff" opacity=".5"/><path d="m29.5 46.8c-1.4-.7-2.5-.2-2.5 1.2v5.5l5 2.5v-5.5c0-1.4-1.1-3.1-2.5-3.7z" fill="#7fadb9"/><path d="m29.5 46.8c-1.4-.7-2.5-.2-2.5 1.2v5.5l5 2.5v-5.5c0-1.4-1.1-3.1-2.5-3.7zm-.5 6.7-1-.5v-2l1 .5zm0-3-1-.5v-1.5c0-.7.4-1 1-.9zm2 4-1-.5v-2l1 .5zm0-3-1-.5v-2.9c.6.5 1 1.3 1 1.9z" fill="#39c"/><path d="m30.7 47.7c.2.5.3.9.3 1.3v5.5l-4-2v1l5 2.5v-5.5c0-.9-.5-2-1.3-2.8z" opacity=".4"/><path d="m41 61.5-7-3.5v-1l7 3.5z" fill="#fff" opacity=".5"/><path d="m37.5 50.8c-1.4-.7-2.5-.2-2.5 1.2v5.5l5 2.5v-5.5c0-1.4-1.1-3.1-2.5-3.7z" fill="#7fadb9"/><path d="m37.5 50.8c-1.4-.7-2.5-.2-2.5 1.2v5.5l5 2.5v-5.5c0-1.4-1.1-3.1-2.5-3.7zm-.5 6.7-1-.5v-2l1 .5zm0-3-1-.5v-1.5c0-.7.4-1 1-.9zm2 4-1-.5v-2l1 .5zm0-3-1-.5v-2.9c.6.5 1 1.3 1 1.9z" fill="#39c"/><path d="m38.7 51.7c.2.5.3.9.3 1.3v5.5l-4-2v1l5 2.5v-5.5c0-.9-.5-2-1.3-2.8z" opacity=".4"/><path d="m52 67-7-3.5v-1l7 3.5z" fill="#fff" opacity=".5"/><path d="m48.5 56.3c-1.4-.7-2.5-.1-2.5 1.3v5.4l5 2.5v-5.5c0-1.4-1.1-3.1-2.5-3.7z" fill="#7fadb9"/><path d="m48.5 56.3c-1.4-.7-2.5-.1-2.5 1.3v5.4l5 2.5v-5.5c0-1.4-1.1-3.1-2.5-3.7zm-.5 6.7-1-.5v-2l1 .5zm0-3-1-.5v-1.5c0-.7.4-1 1-.9zm2 4-1-.5v-2l1 .5zm0-3-1-.5v-2.9c.6.5 1 1.3 1 1.9z" fill="#39c"/><path d="m49.7 57.2c.2.5.3.9.3 1.3v5.5l-4-2v1l5 2.5v-5.5c0-.9-.5-2-1.3-2.8z" opacity=".4"/><path d="m60 71-7-3.5v-1l7 3.5z" fill="#fff" opacity=".5"/><path d="m56.5 60.3c-1.4-.7-2.5-.1-2.5 1.3v5.4l5 2.5v-5.5c0-1.4-1.1-3.1-2.5-3.7z" fill="#7fadb9"/><path d="m56.5 60.3c-1.4-.7-2.5-.1-2.5 1.3v5.4l5 2.5v-5.5c0-1.4-1.1-3.1-2.5-3.7zm-.5 6.7-1-.5v-2l1 .5zm0-3-1-.5v-1.5c0-.7.4-1 1-.9zm2 4-1-.5v-2l1 .5zm0-3-1-.5v-2.9c.6.5 1 1.3 1 1.9z" fill="#39c"/><path d="m57.7 61.2c.2.5.3.9.3 1.3v5.5l-4-2v1l5 2.5v-5.5c0-.9-.5-2-1.3-2.8z" opacity=".4"/><path d="m61 122.5 1 .5v-20l-1-.5z" opacity=".15"/><path d="m41 112.5 21 10.5v-4l-21-10.5z" opacity=".15"/><path d="m41 109.5 21 10.5v-1l-21-10.5z" opacity=".15"/><path d="m6 95 20 10v-4l-20-10z" opacity=".15"/><path d="m6 92 20 10v-1l-20-10z" opacity=".15"/><path d="m41 99.5-1-.5v13l1 .5z" fill="#fff" opacity=".5"/><path d="m42 100-1-.5v13l1 .5z" opacity=".15"/><path d="m26 92-1-.5v13l1 .5z" opacity=".15"/><path d="m7 82.5-1-.5v13l1 .5z" opacity=".15"/><path d="m13 85.5-1-.5v9l1 .5z" opacity=".15"/><path d="m20 89-1-.5v9l1 .5z" opacity=".15"/><path d="m49 103.5-1-.5v9l1 .5z" opacity=".15"/><path d="m56 107-1-.5v9l1 .5z" opacity=".15"/><path d="m34 96-1-.5v13l1 .5z" fill="#fff" opacity=".5"/><path d="m27 92.5-1-.5v13l1 .5z" fill="#fff" opacity=".5"/><path d="m40 112v-12l-6-3v2z" opacity=".15"/><path d="m55 113.5v-6l-6-3v1z" opacity=".15"/><path d="m61 118.5v-8l-5-2.5v1.3z" opacity=".15"/><path d="m25 98.5v-6l-5-2.5v1z" opacity=".15"/><path d="m27 105.5 6 3-6-11z" fill="#fff" opacity=".2"/><path d="m2.5 84.3c.8.4 1.5 0 1.5-.8v-1.5l-3-1.5v1.5c0 .8.7 1.8 1.5 2.3z" fill="#fff"/><path d="m5.5 85.8c.8.4 1.5 0 1.5-.8v-1.5l-3-1.5v1.5c0 .8.7 1.8 1.5 2.3z" fill="#cc291f"/><path d="m8 78-3-1.5-4 4 3 1.5z" fill="#fff"/><path d="m11 79.5-3-1.5-4 4 3 1.5z" fill="#cc291f"/><path d="m8.5 87.3c.8.4 1.5.1 1.5-.8v-1.5l-3-1.5v1.5c0 .8.7 1.8 1.5 2.3z" fill="#fff"/><path d="m11.5 88.8c.8.4 1.5.1 1.5-.8v-1.5l-3-1.5v1.5c0 .8.7 1.8 1.5 2.3z" fill="#cc291f"/><path d="m14 81-3-1.5-4 4 3 1.5z" fill="#fff"/><path d="m17 82.5-3-1.5-4 4 3 1.5z" fill="#cc291f"/><path d="m14.5 90.3c.8.4 1.5.1 1.5-.8v-1.5l-3-1.5v1.5c0 .8.7 1.8 1.5 2.3z" fill="#fff"/><path d="m17.5 91.8c.8.4 1.5.1 1.5-.8v-1.5l-3-1.5v1.5c0 .8.7 1.8 1.5 2.3z" fill="#cc291f"/><path d="m20 84-3-1.5-4 4 3 1.5z" fill="#fff"/><path d="m23 85.5-3-1.5-4 4 3 1.5z" fill="#cc291f"/><path d="m20.5 93.3c.8.4 1.5.1 1.5-.8v-1.5l-3-1.5v1.5c0 .8.7 1.8 1.5 2.3z" fill="#fff"/><path d="m23.5 94.8c.8.4 1.5.1 1.5-.8v-1.5l-3-1.5v1.5c0 .8.7 1.8 1.5 2.3z" fill="#cc291f"/><path d="m26 87-3-1.5-4 4 3 1.5z" fill="#fff"/><path d="m29 88.5-3-1.5-4 4 3 1.5z" fill="#cc291f"/><path d="m26.5 96.3c.8.4 1.5.1 1.5-.8v-1.5l-3-1.5v1.5c0 .8.7 1.8 1.5 2.3z" fill="#fff"/><path d="m29.5 97.8c.8.4 1.5.1 1.5-.8v-1.5l-3-1.5v1.5c0 .8.7 1.8 1.5 2.3z" fill="#cc291f"/><path d="m32 90-3-1.5-4 4 3 1.5z" fill="#fff"/><path d="m35 91.5-3-1.5-4 4 3 1.5z" fill="#cc291f"/><path d="m32.5 99.3c.8.4 1.5.1 1.5-.8v-1.5l-3-1.5v1.5c0 .8.7 1.8 1.5 2.3z" fill="#fff"/><path d="m35.5 100.8c.8.4 1.5.1 1.5-.8v-1.5l-3-1.5v1.5c0 .8.7 1.8 1.5 2.3z" fill="#cc291f"/><path d="m38 93-3-1.5-4 4 3 1.5z" fill="#fff"/><path d="m41 94.5-3-1.5-4 4 3 1.5z" fill="#cc291f"/><path d="m38.5 102.3c.8.4 1.5.1 1.5-.8v-1.5l-3-1.5v1.5c0 .8.7 1.8 1.5 2.3z" fill="#fff"/><path d="m41.5 103.8c.8.4 1.5.1 1.5-.8v-1.5l-3-1.5v1.5c0 .8.7 1.8 1.5 2.3z" fill="#cc291f"/><path d="m44 96-3-1.5-4 4 3 1.5z" fill="#fff"/><path d="m47 97.5-3-1.5-4 4 3 1.5z" fill="#cc291f"/><path d="m44.5 105.3c.8.4 1.5.1 1.5-.8v-1.5l-3-1.5v1.5c0 .8.7 1.8 1.5 2.3z" fill="#fff"/><path d="m47.5 106.8c.8.4 1.5.1 1.5-.8v-1.5l-3-1.5v1.5c0 .8.7 1.8 1.5 2.3z" fill="#cc291f"/><path d="m50 99-3-1.5-4 4 3 1.5z" fill="#fff"/><path d="m53 100.5-3-1.5-4 4 3 1.5z" fill="#cc291f"/><path d="m50.5 108.3c.8.4 1.5.1 1.5-.8v-1.5l-3-1.5v1.5c0 .8.7 1.8 1.5 2.3z" fill="#fff"/><path d="m53.5 109.8c.8.4 1.5.1 1.5-.8v-1.5l-3-1.5v1.5c0 .8.7 1.8 1.5 2.3z" fill="#cc291f"/><path d="m56 102-3-1.5-4 4 3 1.5z" fill="#fff"/><path d="m59 103.5-3-1.5-4 4 3 1.5z" fill="#cc291f"/><path d="m56.5 111.3c.8.4 1.5.1 1.5-.8v-1.5l-3-1.5v1.5c0 .8.7 1.8 1.5 2.3z" fill="#fff"/><path d="m59.5 112.8c.8.4 1.5.1 1.5-.8v-1.5l-3-1.5v1.5c0 .8.7 1.8 1.5 2.3z" fill="#cc291f"/><path d="m62 105-3-1.5-4 4 3 1.5z" fill="#fff"/><path d="m62 105-4 4 3 1.5 1-.5z" fill="#cc291f"/><path d="m61 110.5 1-.5v-5l-57-28.5-2 2v-48l61 30.5v64l-2-1v-1l-56-28-1 .5-2-1v-10.1c-.2 0-.3-.1-.5-.2-.8-.4-1.5-1.4-1.5-2.2v-1.5z" opacity=".06"/><path d="m61 110.5s.9-5.6 1-5.5 0 5 0 5z" opacity=".39"/></svg>