<svg enable-background="new 0 0 64 64" viewBox="0 0 64 64" xmlns="http://www.w3.org/2000/svg"><path d="m64 48-32 16v-32l32-16z" fill="#e5e5e5"/><path d="m61 31-26 13v-8l26-13z" fill="#fff"/><path d="m60 30.5-24 12v-6l24-12z" fill="#39c"/><path d="m60 27.5-24 12v-3l24-12z" opacity=".15"/><path d="m60 25.5-24 12v-1l24-12z" opacity=".15"/><path d="m60 30.5-24 6 24-12z" opacity=".15"/><path d="m64 48-32 16v-32l32-16z" opacity=".39"/><path d="m32 64-32-16v-32l32 16z" fill="#e5e5e5"/><path d="m29 44-26-13v-8l26 13z" fill="#fff"/><path d="m28 42.5-24-12v-6l24 12z" fill="#39c"/><path d="m28 39.5-24-12v-3l24 12z" opacity=".15"/><path d="m28 36.5v1l-24-12v-1" opacity=".15"/><path d="m28 42.5-24-18v6z" fill="#fff" opacity=".15"/><path d="m11 53.5-8-4v-14l8 4z" fill="#fff"/><path d="m4 37 6 3v13l-6-3z" fill="#656565"/><g fill="#fff"><path d="m10 52-6-3v-1l6 3z" opacity=".25"/><path d="m10 50-6-3v-1l6 3z" opacity=".25"/><path d="m10 48-6-3v-1l6 3z" opacity=".25"/><path d="m10 46-6-3v-1l6 3z" opacity=".25"/><path d="m10 44-6-3v-1l6 3z" opacity=".25"/><path d="m10 42-6-3v-1l6 3z" opacity=".25"/></g><path d="m32 64-32-16v-32l32 16z" opacity=".06"/><path d="m32 32 32-16-32-16-32 16z" fill="#2d3134"/></svg>