<svg enable-background="new 0 0 160 136" viewBox="0 0 160 136" xmlns="http://www.w3.org/2000/svg"><path d="m160 80-112 56v-48l112-56z" fill="#baa794"/><path d="m160 34-112 56v-2l112-56z" fill="#f8ebcb"/><g fill="#762c07" opacity=".4"><path d="m52 131-3 1.5v2l3-1.5z"/><path d="m56 129-3 1.5v2l3-1.5z"/><path d="m60 127-3 1.5v2l3-1.5z"/><path d="m64 125-3 1.5v2l3-1.5z"/><path d="m68 123-3 1.5v2l3-1.5z"/><path d="m72 121-3 1.5v2l3-1.5z"/><path d="m76 119-3 1.5v2l3-1.5z"/><path d="m80 117-3 1.5v2l3-1.5z"/><path d="m84 115-3 1.5v2l3-1.5z"/><path d="m88 113-3 1.5v2l3-1.5z"/><path d="m92 111-3 1.5v2l3-1.5z"/><path d="m96 109-3 1.5v2l3-1.5z"/><path d="m100 107-3 1.5v2l3-1.5z"/><path d="m104 105-3 1.5v2l3-1.5z"/><path d="m108 103-3 1.5v2l3-1.5z"/><path d="m50 129-2 1v2l2-1z"/><path d="m54 127-3 1.5v2l3-1.5z"/><path d="m58 125-3 1.5v2l3-1.5z"/><path d="m62 123-3 1.5v2l3-1.5z"/><path d="m66 121-3 1.5v2l3-1.5z"/><path d="m70 119-3 1.5v2l3-1.5z"/><path d="m74 117-3 1.5v2l3-1.5z"/><path d="m78 115-3 1.5v2l3-1.5z"/><path d="m82 113-3 1.5v2l3-1.5z"/><path d="m86 111-3 1.5v2l3-1.5z"/><path d="m90 109-3 1.5v2l3-1.5z"/><path d="m94 107-3 1.5v2l3-1.5z"/><path d="m98 105-3 1.5v2l3-1.5z"/><path d="m102 103-3 1.5v2l3-1.5z"/><path d="m106 101-3 1.5v2l3-1.5z"/><path d="m52 125-3 1.5v2l3-1.5z"/><path d="m56 123-3 1.5v2l3-1.5z"/><path d="m60 121-3 1.5v2l3-1.5z"/><path d="m64 119-3 1.5v2l3-1.5z"/><path d="m68 117-3 1.5v2l3-1.5z"/><path d="m72 115-3 1.5v2l3-1.5z"/><path d="m76 113-3 1.5v2l3-1.5z"/><path d="m80 111-3 1.5v2l3-1.5z"/><path d="m84 109-3 1.5v2l3-1.5z"/><path d="m88 107-3 1.5v2l3-1.5z"/><path d="m92 105-3 1.5v2l3-1.5z"/><path d="m96 103-3 1.5v2l3-1.5z"/><path d="m100 101-3 1.5v2l3-1.5z"/><path d="m104 99-3 1.5v2l3-1.5z"/><path d="m108 97-3 1.5v2l3-1.5z"/><path d="m50 123-2 1v2l2-1z"/><path d="m54 121-3 1.5v2l3-1.5z"/><path d="m58 119-3 1.5v2l3-1.5z"/><path d="m62 117-3 1.5v2l3-1.5z"/><path d="m66 115-3 1.5v2l3-1.5z"/><path d="m70 113-3 1.5v2l3-1.5z"/><path d="m74 111-3 1.5v2l3-1.5z"/><path d="m78 109-3 1.5v2l3-1.5z"/><path d="m82 107-3 1.5v2l3-1.5z"/><path d="m86 105-3 1.5v2l3-1.5z"/><path d="m90 103-3 1.5v2l3-1.5z"/><path d="m94 101-3 1.5v2l3-1.5z"/><path d="m98 99-3 1.5v2l3-1.5z"/><path d="m102 97-3 1.5v2l3-1.5z"/><path d="m106 95-3 1.5v2l3-1.5z"/><path d="m52 119-3 1.5v2l3-1.5z"/><path d="m56 117-3 1.5v2l3-1.5z"/><path d="m60 115-3 1.5v2l3-1.5z"/><path d="m64 113-3 1.5v2l3-1.5z"/><path d="m68 111-3 1.5v2l3-1.5z"/><path d="m72 109-3 1.5v2l3-1.5z"/><path d="m76 107-3 1.5v2l3-1.5z"/><path d="m80 105-3 1.5v2l3-1.5z"/><path d="m84 103-3 1.5v2l3-1.5z"/><path d="m88 101-3 1.5v2l3-1.5z"/><path d="m92 99-3 1.5v2l3-1.5z"/><path d="m96 97-3 1.5v2l3-1.5z"/><path d="m100 95-3 1.5v2l3-1.5z"/><path d="m104 93-3 1.5v2l3-1.5z"/><path d="m108 91-3 1.5v2l3-1.5z"/><path d="m50 117-2 1v2l2-1z"/><path d="m54 115-3 1.5v2l3-1.5z"/><path d="m58 113-3 1.5v2l3-1.5z"/><path d="m62 111-3 1.5v2l3-1.5z"/><path d="m66 109-3 1.5v2l3-1.5z"/><path d="m70 107-3 1.5v2l3-1.5z"/><path d="m74 105-3 1.5v2l3-1.5z"/><path d="m78 103-3 1.5v2l3-1.5z"/><path d="m82 101-3 1.5v2l3-1.5z"/><path d="m86 99-3 1.5v2l3-1.5z"/><path d="m90 97-3 1.5v2l3-1.5z"/><path d="m94 95-3 1.5v2l3-1.5z"/><path d="m98 93-3 1.5v2l3-1.5z"/><path d="m102 91-3 1.5v2l3-1.5z"/><path d="m106 89-3 1.5v2l3-1.5z"/><path d="m52 113-3 1.5v2l3-1.5z"/><path d="m56 111-3 1.5v2l3-1.5z"/><path d="m60 109-3 1.5v2l3-1.5z"/><path d="m64 107-3 1.5v2l3-1.5z"/><path d="m68 105-3 1.5v2l3-1.5z"/><path d="m72 103-3 1.5v2l3-1.5z"/><path d="m76 101-3 1.5v2l3-1.5z"/><path d="m80 99-3 1.5v2l3-1.5z"/><path d="m84 97-3 1.5v2l3-1.5z"/><path d="m88 95-3 1.5v2l3-1.5z"/><path d="m92 93-3 1.5v2l3-1.5z"/><path d="m96 91-3 1.5v2l3-1.5z"/><path d="m100 89-3 1.5v2l3-1.5z"/><path d="m104 87-3 1.5v2l3-1.5z"/><path d="m108 85-3 1.5v2l3-1.5z"/><path d="m50 111-2 1v2l2-1z"/><path d="m54 109-3 1.5v2l3-1.5z"/><path d="m58 107-3 1.5v2l3-1.5z"/><path d="m62 105-3 1.5v2l3-1.5z"/><path d="m66 103-3 1.5v2l3-1.5z"/><path d="m70 101-3 1.5v2l3-1.5z"/><path d="m74 99-3 1.5v2l3-1.5z"/><path d="m78 97-3 1.5v2l3-1.5z"/><path d="m82 95-3 1.5v2l3-1.5z"/><path d="m86 93-3 1.5v2l3-1.5z"/><path d="m90 91-3 1.5v2l3-1.5z"/><path d="m94 89-3 1.5v2l3-1.5z"/><path d="m98 87-3 1.5v2l3-1.5z"/><path d="m102 85-3 1.5v2l3-1.5z"/><path d="m106 83-3 1.5v2l3-1.5z"/><path d="m52 107-3 1.5v2l3-1.5z"/><path d="m56 105-3 1.5v2l3-1.5z"/><path d="m60 103-3 1.5v2l3-1.5z"/><path d="m64 101-3 1.5v2l3-1.5z"/><path d="m68 99-3 1.5v2l3-1.5z"/><path d="m72 97-3 1.5v2l3-1.5z"/><path d="m76 95-3 1.5v2l3-1.5z"/><path d="m80 93-3 1.5v2l3-1.5z"/><path d="m84 91-3 1.5v2l3-1.5z"/><path d="m88 89-3 1.5v2l3-1.5z"/><path d="m92 87-3 1.5v2l3-1.5z"/><path d="m96 85-3 1.5v2l3-1.5z"/><path d="m100 83-3 1.5v2l3-1.5z"/><path d="m104 81-3 1.5v2l3-1.5z"/><path d="m108 79-3 1.5v2l3-1.5z"/><path d="m50 105-2 1v2l2-1z"/><path d="m54 103-3 1.5v2l3-1.5z"/><path d="m58 101-3 1.5v2l3-1.5z"/><path d="m62 99-3 1.5v2l3-1.5z"/><path d="m66 97-3 1.5v2l3-1.5z"/><path d="m70 95-3 1.5v2l3-1.5z"/><path d="m74 93-3 1.5v2l3-1.5z"/><path d="m78 91-3 1.5v2l3-1.5z"/><path d="m82 89-3 1.5v2l3-1.5z"/><path d="m86 87-3 1.5v2l3-1.5z"/><path d="m90 85-3 1.5v2l3-1.5z"/><path d="m94 83-3 1.5v2l3-1.5z"/><path d="m98 81-3 1.5v2l3-1.5z"/><path d="m102 79-3 1.5v2l3-1.5z"/><path d="m106 77-3 1.5v2l3-1.5z"/><path d="m52 101-3 1.5v2l3-1.5z"/><path d="m56 99-3 1.5v2l3-1.5z"/><path d="m60 97-3 1.5v2l3-1.5z"/><path d="m64 95-3 1.5v2l3-1.5z"/><path d="m68 93-3 1.5v2l3-1.5z"/><path d="m72 91-3 1.5v2l3-1.5z"/><path d="m76 89-3 1.5v2l3-1.5z"/><path d="m80 87-3 1.5v2l3-1.5z"/><path d="m84 85-3 1.5v2l3-1.5z"/><path d="m88 83-3 1.5v2l3-1.5z"/><path d="m92 81-3 1.5v2l3-1.5z"/><path d="m96 79-3 1.5v2l3-1.5z"/><path d="m100 77-3 1.5v2l3-1.5z"/><path d="m104 75-3 1.5v2l3-1.5z"/><path d="m108 73-3 1.5v2l3-1.5z"/><path d="m50 99-2 1v2l2-1z"/><path d="m54 97-3 1.5v2l3-1.5z"/><path d="m58 95-3 1.5v2l3-1.5z"/><path d="m62 93-3 1.5v2l3-1.5z"/><path d="m66 91-3 1.5v2l3-1.5z"/><path d="m70 89-3 1.5v2l3-1.5z"/><path d="m74 87-3 1.5v2l3-1.5z"/><path d="m78 85-3 1.5v2l3-1.5z"/><path d="m82 83-3 1.5v2l3-1.5z"/><path d="m86 81-3 1.5v2l3-1.5z"/><path d="m90 79-3 1.5v2l3-1.5z"/><path d="m94 77-3 1.5v2l3-1.5z"/><path d="m98 75-3 1.5v2l3-1.5z"/><path d="m102 73-3 1.5v2l3-1.5z"/><path d="m106 71-3 1.5v2l3-1.5z"/><path d="m52 95-3 1.5v2l3-1.5z"/><path d="m56 93-3 1.5v2l3-1.5z"/><path d="m60 91-3 1.5v2l3-1.5z"/><path d="m64 89-3 1.5v2l3-1.5z"/><path d="m68 87-3 1.5v2l3-1.5z"/><path d="m72 85-3 1.5v2l3-1.5z"/><path d="m76 83-3 1.5v2l3-1.5z"/><path d="m80 81-3 1.5v2l3-1.5z"/><path d="m84 79-3 1.5v2l3-1.5z"/><path d="m88 77-3 1.5v2l3-1.5z"/><path d="m92 75-3 1.5v2l3-1.5z"/><path d="m96 73-3 1.5v2l3-1.5z"/><path d="m100 71-3 1.5v2l3-1.5z"/><path d="m104 69-3 1.5v2l3-1.5z"/><path d="m108 67-3 1.5v2l3-1.5z"/><path d="m50 93-2 1v2l2-1z"/><path d="m54 91-3 1.5v2l3-1.5z"/><path d="m58 89-3 1.5v2l3-1.5z"/><path d="m62 87-3 1.5v2l3-1.5z"/><path d="m66 85-3 1.5v2l3-1.5z"/><path d="m70 83-3 1.5v2l3-1.5z"/><path d="m74 81-3 1.5v2l3-1.5z"/><path d="m78 79-3 1.5v2l3-1.5z"/><path d="m82 77-3 1.5v2l3-1.5z"/><path d="m86 75-3 1.5v2l3-1.5z"/><path d="m90 73-3 1.5v2l3-1.5z"/><path d="m94 71-3 1.5v2l3-1.5z"/><path d="m98 69-3 1.5v2l3-1.5z"/><path d="m102 67-3 1.5v2l3-1.5z"/><path d="m106 65-3 1.5v2l3-1.5z"/><path d="m52 89-3 1.5v2l3-1.5z"/><path d="m56 87-3 1.5v2l3-1.5z"/><path d="m60 85-3 1.5v2l3-1.5z"/><path d="m64 83-3 1.5v2l3-1.5z"/><path d="m68 81-3 1.5v2l3-1.5z"/><path d="m72 79-3 1.5v2l3-1.5z"/><path d="m76 77-3 1.5v2l3-1.5z"/><path d="m80 75-3 1.5v2l3-1.5z"/><path d="m84 73-3 1.5v2l3-1.5z"/><path d="m88 71-3 1.5v2l3-1.5z"/><path d="m92 69-3 1.5v2l3-1.5z"/><path d="m96 67-3 1.5v2l3-1.5z"/><path d="m100 65-3 1.5v2l3-1.5z"/><path d="m104 63-3 1.5v2l3-1.5z"/><path d="m108 61-3 1.5v2l3-1.5z"/><path d="m112 101-3 1.5v2l3-1.5z"/><path d="m116 99-3 1.5v2l3-1.5z"/><path d="m120 97-3 1.5v2l3-1.5z"/><path d="m124 95-3 1.5v2l3-1.5z"/><path d="m128 93-3 1.5v2l3-1.5z"/><path d="m132 91-3 1.5v2l3-1.5z"/><path d="m136 89-3 1.5v2l3-1.5z"/><path d="m140 87-3 1.5v2l3-1.5z"/><path d="m144 85-3 1.5v2l3-1.5z"/><path d="m148 83-3 1.5v2l3-1.5z"/><path d="m152 81-3 1.5v2l3-1.5z"/><path d="m156 79-3 1.5v2l3-1.5z"/><path d="m160 77-3 1.5v2l3-1.5z"/><path d="m110 99-3 1.5v2l3-1.5z"/><path d="m114 97-3 1.5v2l3-1.5z"/><path d="m118 95-3 1.5v2l3-1.5z"/><path d="m122 93-3 1.5v2l3-1.5z"/><path d="m126 91-3 1.5v2l3-1.5z"/><path d="m130 89-3 1.5v2l3-1.5z"/><path d="m134 87-3 1.5v2l3-1.5z"/><path d="m138 85-3 1.5v2l3-1.5z"/><path d="m142 83-3 1.5v2l3-1.5z"/><path d="m146 81-3 1.5v2l3-1.5z"/><path d="m150 79-3 1.5v2l3-1.5z"/><path d="m154 77-3 1.5v2l3-1.5z"/><path d="m158 75-3 1.5v2l3-1.5z"/><path d="m112 95-3 1.5v2l3-1.5z"/><path d="m116 93-3 1.5v2l3-1.5z"/><path d="m120 91-3 1.5v2l3-1.5z"/><path d="m124 89-3 1.5v2l3-1.5z"/><path d="m128 87-3 1.5v2l3-1.5z"/><path d="m132 85-3 1.5v2l3-1.5z"/><path d="m136 83-3 1.5v2l3-1.5z"/><path d="m140 81-3 1.5v2l3-1.5z"/><path d="m144 79-3 1.5v2l3-1.5z"/><path d="m148 77-3 1.5v2l3-1.5z"/><path d="m152 75-3 1.5v2l3-1.5z"/><path d="m156 73-3 1.5v2l3-1.5z"/><path d="m160 71-3 1.5v2l3-1.5z"/><path d="m110 93-3 1.5v2l3-1.5z"/><path d="m114 91-3 1.5v2l3-1.5z"/><path d="m118 89-3 1.5v2l3-1.5z"/><path d="m122 87-3 1.5v2l3-1.5z"/><path d="m126 85-3 1.5v2l3-1.5z"/><path d="m130 83-3 1.5v2l3-1.5z"/><path d="m134 81-3 1.5v2l3-1.5z"/><path d="m138 79-3 1.5v2l3-1.5z"/><path d="m142 77-3 1.5v2l3-1.5z"/><path d="m146 75-3 1.5v2l3-1.5z"/><path d="m150 73-3 1.5v2l3-1.5z"/><path d="m154 71-3 1.5v2l3-1.5z"/><path d="m158 69-3 1.5v2l3-1.5z"/><path d="m112 89-3 1.5v2l3-1.5z"/><path d="m116 87-3 1.5v2l3-1.5z"/><path d="m120 85-3 1.5v2l3-1.5z"/><path d="m124 83-3 1.5v2l3-1.5z"/><path d="m128 81-3 1.5v2l3-1.5z"/><path d="m132 79-3 1.5v2l3-1.5z"/><path d="m136 77-3 1.5v2l3-1.5z"/><path d="m140 75-3 1.5v2l3-1.5z"/><path d="m144 73-3 1.5v2l3-1.5z"/><path d="m148 71-3 1.5v2l3-1.5z"/><path d="m152 69-3 1.5v2l3-1.5z"/><path d="m156 67-3 1.5v2l3-1.5z"/><path d="m160 65-3 1.5v2l3-1.5z"/><path d="m110 87-3 1.5v2l3-1.5z"/><path d="m114 85-3 1.5v2l3-1.5z"/><path d="m118 83-3 1.5v2l3-1.5z"/><path d="m122 81-3 1.5v2l3-1.5z"/><path d="m126 79-3 1.5v2l3-1.5z"/><path d="m130 77-3 1.5v2l3-1.5z"/><path d="m134 75-3 1.5v2l3-1.5z"/><path d="m138 73-3 1.5v2l3-1.5z"/><path d="m142 71-3 1.5v2l3-1.5z"/><path d="m146 69-3 1.5v2l3-1.5z"/><path d="m150 67-3 1.5v2l3-1.5z"/><path d="m154 65-3 1.5v2l3-1.5z"/><path d="m158 63-3 1.5v2l3-1.5z"/><path d="m112 83-3 1.5v2l3-1.5z"/><path d="m116 81-3 1.5v2l3-1.5z"/><path d="m120 79-3 1.5v2l3-1.5z"/><path d="m124 77-3 1.5v2l3-1.5z"/><path d="m128 75-3 1.5v2l3-1.5z"/><path d="m132 73-3 1.5v2l3-1.5z"/><path d="m136 71-3 1.5v2l3-1.5z"/><path d="m140 69-3 1.5v2l3-1.5z"/><path d="m144 67-3 1.5v2l3-1.5z"/><path d="m148 65-3 1.5v2l3-1.5z"/><path d="m152 63-3 1.5v2l3-1.5z"/><path d="m156 61-3 1.5v2l3-1.5z"/><path d="m160 59-3 1.5v2l3-1.5z"/><path d="m110 81-3 1.5v2l3-1.5z"/><path d="m114 79-3 1.5v2l3-1.5z"/><path d="m118 77-3 1.5v2l3-1.5z"/><path d="m122 75-3 1.5v2l3-1.5z"/><path d="m126 73-3 1.5v2l3-1.5z"/><path d="m130 71-3 1.5v2l3-1.5z"/><path d="m134 69-3 1.5v2l3-1.5z"/><path d="m138 67-3 1.5v2l3-1.5z"/><path d="m142 65-3 1.5v2l3-1.5z"/><path d="m146 63-3 1.5v2l3-1.5z"/><path d="m150 61-3 1.5v2l3-1.5z"/><path d="m154 59-3 1.5v2l3-1.5z"/><path d="m158 57-3 1.5v2l3-1.5z"/><path d="m112 77-3 1.5v2l3-1.5z"/><path d="m116 75-3 1.5v2l3-1.5z"/><path d="m120 73-3 1.5v2l3-1.5z"/><path d="m124 71-3 1.5v2l3-1.5z"/><path d="m128 69-3 1.5v2l3-1.5z"/><path d="m132 67-3 1.5v2l3-1.5z"/><path d="m136 65-3 1.5v2l3-1.5z"/><path d="m140 63-3 1.5v2l3-1.5z"/><path d="m144 61-3 1.5v2l3-1.5z"/><path d="m148 59-3 1.5v2l3-1.5z"/><path d="m152 57-3 1.5v2l3-1.5z"/><path d="m156 55-3 1.5v2l3-1.5z"/><path d="m160 53-3 1.5v2l3-1.5z"/><path d="m110 75-3 1.5v2l3-1.5z"/><path d="m114 73-3 1.5v2l3-1.5z"/><path d="m118 71-3 1.5v2l3-1.5z"/><path d="m122 69-3 1.5v2l3-1.5z"/><path d="m126 67-3 1.5v2l3-1.5z"/><path d="m130 65-3 1.5v2l3-1.5z"/><path d="m134 63-3 1.5v2l3-1.5z"/><path d="m138 61-3 1.5v2l3-1.5z"/><path d="m142 59-3 1.5v2l3-1.5z"/><path d="m146 57-3 1.5v2l3-1.5z"/><path d="m150 55-3 1.5v2l3-1.5z"/><path d="m154 53-3 1.5v2l3-1.5z"/><path d="m158 51-3 1.5v2l3-1.5z"/><path d="m112 71-3 1.5v2l3-1.5z"/><path d="m116 69-3 1.5v2l3-1.5z"/><path d="m120 67-3 1.5v2l3-1.5z"/><path d="m124 65-3 1.5v2l3-1.5z"/><path d="m128 63-3 1.5v2l3-1.5z"/><path d="m132 61-3 1.5v2l3-1.5z"/><path d="m136 59-3 1.5v2l3-1.5z"/><path d="m140 57-3 1.5v2l3-1.5z"/><path d="m144 55-3 1.5v2l3-1.5z"/><path d="m148 53-3 1.5v2l3-1.5z"/><path d="m152 51-3 1.5v2l3-1.5z"/><path d="m156 49-3 1.5v2l3-1.5z"/><path d="m160 47-3 1.5v2l3-1.5z"/><path d="m110 69-3 1.5v2l3-1.5z"/><path d="m114 67-3 1.5v2l3-1.5z"/><path d="m118 65-3 1.5v2l3-1.5z"/><path d="m122 63-3 1.5v2l3-1.5z"/><path d="m126 61-3 1.5v2l3-1.5z"/><path d="m130 59-3 1.5v2l3-1.5z"/><path d="m134 57-3 1.5v2l3-1.5z"/><path d="m138 55-3 1.5v2l3-1.5z"/><path d="m142 53-3 1.5v2l3-1.5z"/><path d="m146 51-3 1.5v2l3-1.5z"/><path d="m150 49-3 1.5v2l3-1.5z"/><path d="m154 47-3 1.5v2l3-1.5z"/><path d="m158 45-3 1.5v2l3-1.5z"/><path d="m112 65-3 1.5v2l3-1.5z"/><path d="m116 63-3 1.5v2l3-1.5z"/><path d="m120 61-3 1.5v2l3-1.5z"/><path d="m124 59-3 1.5v2l3-1.5z"/><path d="m128 57-3 1.5v2l3-1.5z"/><path d="m132 55-3 1.5v2l3-1.5z"/><path d="m136 53-3 1.5v2l3-1.5z"/><path d="m140 51-3 1.5v2l3-1.5z"/><path d="m144 49-3 1.5v2l3-1.5z"/><path d="m148 47-3 1.5v2l3-1.5z"/><path d="m152 45-3 1.5v2l3-1.5z"/><path d="m156 43-3 1.5v2l3-1.5z"/><path d="m160 41-3 1.5v2l3-1.5z"/><path d="m110 63-3 1.5v2l3-1.5z"/><path d="m114 61-3 1.5v2l3-1.5z"/><path d="m118 59-3 1.5v2l3-1.5z"/><path d="m122 57-3 1.5v2l3-1.5z"/><path d="m126 55-3 1.5v2l3-1.5z"/><path d="m130 53-3 1.5v2l3-1.5z"/><path d="m134 51-3 1.5v2l3-1.5z"/><path d="m138 49-3 1.5v2l3-1.5z"/><path d="m142 47-3 1.5v2l3-1.5z"/><path d="m146 45-3 1.5v2l3-1.5z"/><path d="m150 43-3 1.5v2l3-1.5z"/><path d="m154 41-3 1.5v2l3-1.5z"/><path d="m158 39-3 1.5v2l3-1.5z"/><path d="m112 59-3 1.5v2l3-1.5z"/><path d="m116 57-3 1.5v2l3-1.5z"/><path d="m120 55-3 1.5v2l3-1.5z"/><path d="m124 53-3 1.5v2l3-1.5z"/><path d="m128 51-3 1.5v2l3-1.5z"/><path d="m132 49-3 1.5v2l3-1.5z"/><path d="m136 47-3 1.5v2l3-1.5z"/><path d="m140 45-3 1.5v2l3-1.5z"/><path d="m144 43-3 1.5v2l3-1.5z"/><path d="m148 41-3 1.5v2l3-1.5z"/><path d="m152 39-3 1.5v2l3-1.5z"/><path d="m156 37-3 1.5v2l3-1.5z"/><path d="m160 35-3 1.5v2l3-1.5z"/><path d="m160 40-1 .5v-2l1-.5z"/><path d="m160 46-1 .5v-2l1-.5z"/><path d="m160 52-1 .5v-2l1-.5z"/><path d="m160 58-1 .5v-2l1-.5z"/><path d="m160 64-1 .5v-2l1-.5z"/><path d="m160 70-1 .5v-2l1-.5z"/><path d="m160 76-1 .5v-2l1-.5z"/></g><path d="m62 119-10 5v-13l10-5z" fill="#baa794"/><path d="m61 118.5-8 4v-11l8-4z" fill="#39c"/><path d="m61 114.5-8-3 8-4z" fill="#262626" opacity=".15"/><path d="m61 109.5-8 4v-2l8-4z" fill="#262626" opacity=".15"/><path d="m61 108.5-8 4v-1l8-4z" fill="#262626" opacity=".15"/><path d="m62 106-10 5v-1l10-5z" fill="#f8ebcb"/><path d="m62 120-10 5v-1l10-5z" fill="#f8ebcb"/><g fill="#baa794"><path d="m56 121-1 .5v-11l1-.5z"/><path d="m59 119.5-1 .5v-11l1-.5z"/><path d="m61 111.5-8 4v-1l8-4z"/><path d="m61 115.5-8 4v-1l8-4z"/><path d="m77 111.5-10 5v-13l10-5z"/></g><path d="m76 111-8 4v-11l8-4z" fill="#39c"/><path d="m76 110-8-6 8-4z" fill="#262626" opacity=".15"/><path d="m76 102-8 4v-2l8-4z" fill="#262626" opacity=".15"/><path d="m76 101-8 4v-1l8-4z" fill="#262626" opacity=".15"/><path d="m77 98.5-10 5v-1l10-5z" fill="#f8ebcb"/><path d="m77 112.5-10 5v-1l10-5z" fill="#f8ebcb"/><path d="m71 113.5-1 .5v-11l1-.5z" fill="#baa794"/><path d="m74 112-1 .5v-11l1-.5z" fill="#baa794"/><path d="m76 104-8 4v-1l8-4z" fill="#baa794"/><path d="m76 108-8 4v-1l8-4z" fill="#baa794"/><path d="m94 103-10 5v-13l10-5z" fill="#baa794"/><path d="m93 102.5-8 4v-11l8-4z" fill="#39c"/><path d="m93 96.5-8-1 8-4z" fill="#262626" opacity=".15"/><path d="m93 93.5-8 4v-2l8-4z" fill="#262626" opacity=".15"/><path d="m93 92.5-8 4v-1l8-4z" fill="#262626" opacity=".15"/><path d="m94 90-10 5v-1l10-5z" fill="#f8ebcb"/><path d="m94 104-10 5v-1l10-5z" fill="#f8ebcb"/><path d="m88 105-1 .5v-11l1-.5z" fill="#baa794"/><path d="m91 103.5-1 .5v-11l1-.5z" fill="#baa794"/><path d="m93 95.5-8 4v-1l8-4z" fill="#baa794"/><path d="m93 99.5-8 4v-1l8-4z" fill="#baa794"/><path d="m124 88-10 5v-13l10-5z" fill="#baa794"/><path d="m123 87.5-8 4v-11l8-4z" fill="#39c"/><path d="m123 83.5-8-3 8-4z" fill="#262626" opacity=".15"/><path d="m123 78.5-8 4v-2l8-4z" fill="#262626" opacity=".15"/><path d="m123 77.5-8 4v-1l8-4z" fill="#262626" opacity=".15"/><path d="m124 75-10 5v-1l10-5z" fill="#f8ebcb"/><path d="m124 89-10 5v-1l10-5z" fill="#f8ebcb"/><path d="m118 90-1 .5v-11l1-.5z" fill="#baa794"/><path d="m121 88.5-1 .5v-11l1-.5z" fill="#baa794"/><path d="m123 80.5-8 4v-1l8-4z" fill="#baa794"/><path d="m123 84.5-8 4v-1l8-4z" fill="#baa794"/><path d="m139 80.5-10 5v-13l10-5z" fill="#baa794"/><path d="m138 80-8 4v-11l8-4z" fill="#39c"/><path d="m138 79-8-6 8-4z" fill="#262626" opacity=".15"/><path d="m138 71-8 4v-2l8-4z" fill="#262626" opacity=".15"/><path d="m138 70-8 4v-1l8-4z" fill="#262626" opacity=".15"/><path d="m139 67.5-10 5v-1l10-5z" fill="#f8ebcb"/><path d="m139 81.5-10 5v-1l10-5z" fill="#f8ebcb"/><path d="m133 82.5-1 .5v-11l1-.5z" fill="#baa794"/><path d="m136 81-1 .5v-11l1-.5z" fill="#baa794"/><path d="m138 73-8 4v-1l8-4z" fill="#baa794"/><path d="m138 77-8 4v-1l8-4z" fill="#baa794"/><path d="m156 72-10 5v-13l10-5z" fill="#baa794"/><path d="m155 71.5-8 4v-11l8-4z" fill="#39c"/><path d="m155 65.5-8-1 8-4z" fill="#262626" opacity=".15"/><path d="m155 62.5-8 4v-2l8-4z" fill="#262626" opacity=".15"/><path d="m155 61.5-8 4v-1l8-4z" fill="#262626" opacity=".15"/><path d="m156 59-10 5v-1l10-5z" fill="#f8ebcb"/><path d="m156 73-10 5v-1l10-5z" fill="#f8ebcb"/><path d="m150 74-1 .5v-11l1-.5z" fill="#baa794"/><path d="m153 72.5-1 .5v-11l1-.5z" fill="#baa794"/><path d="m155 64.5-8 4v-1l8-4z" fill="#baa794"/><path d="m155 68.5-8 4v-1l8-4z" fill="#baa794"/><path d="m62 99-10 5v-13l10-5z" fill="#baa794"/><path d="m61 98.5-8 4v-11l8-4z" fill="#39c"/><path d="m61 98.5-8-7v11z" fill="#fff" opacity=".2"/><path d="m61 89.5-8 4v-2l8-4z" fill="#262626" opacity=".15"/><path d="m61 88.5-8 4v-1l8-4z" fill="#262626" opacity=".15"/><path d="m62 86-10 5v-1l10-5z" fill="#f8ebcb"/><path d="m62 100-10 5v-1l10-5z" fill="#f8ebcb"/><path d="m56 101-1 .5v-11l1-.5z" fill="#baa794"/><path d="m59 99.5-1 .5v-11l1-.5z" fill="#baa794"/><path d="m61 91.5-8 4v-1l8-4z" fill="#baa794"/><path d="m61 95.5-8 4v-1l8-4z" fill="#baa794"/><path d="m77 91.5-10 5v-13l10-5z" fill="#baa794"/><path d="m76 91-8 4v-11l8-4z" fill="#39c"/><path d="m76 91-8-3v7z" fill="#fff" opacity=".2"/><path d="m76 82-8 4v-2l8-4z" fill="#262626" opacity=".15"/><path d="m76 81-8 4v-1l8-4z" fill="#262626" opacity=".15"/><path d="m77 78.5-10 5v-1l10-5z" fill="#f8ebcb"/><path d="m77 92.5-10 5v-1l10-5z" fill="#f8ebcb"/><path d="m71 93.5-1 .5v-11l1-.5z" fill="#baa794"/><path d="m74 92-1 .5v-11l1-.5z" fill="#baa794"/><path d="m76 84-8 4v-1l8-4z" fill="#baa794"/><path d="m76 88-8 4v-1l8-4z" fill="#baa794"/><path d="m109 75.5-10 5v-13l10-5z" fill="#baa794"/><path d="m108 75-8 4v-11l8-4z" fill="#39c"/><path d="m108 75-8-3v7z" fill="#fff" opacity=".2"/><path d="m108 66-8 4v-2l8-4z" fill="#262626" opacity=".15"/><path d="m108 65-8 4v-1l8-4z" fill="#262626" opacity=".15"/><path d="m109 62.5-10 5v-1l10-5z" fill="#f8ebcb"/><path d="m109 76.5-10 5v-1l10-5z" fill="#f8ebcb"/><path d="m103 77.5-1 .5v-11l1-.5z" fill="#baa794"/><path d="m106 76-1 .5v-11l1-.5z" fill="#baa794"/><path d="m108 68-8 4v-1l8-4z" fill="#baa794"/><path d="m108 72-8 4v-1l8-4z" fill="#baa794"/><path d="m94 83-10 5v-13l10-5z" fill="#baa794"/><path d="m93 82.5-8 4v-11l8-4z" fill="#39c"/><path d="m85 81.5 8 1-8 4z" fill="#fff" opacity=".2"/><path d="m93 73.5-8 4v-2l8-4z" fill="#262626" opacity=".15"/><path d="m93 72.5-8 4v-1l8-4z" fill="#262626" opacity=".15"/><path d="m94 70-10 5v-1l10-5z" fill="#f8ebcb"/><path d="m94 84-10 5v-1l10-5z" fill="#f8ebcb"/><path d="m88 85-1 .5v-11l1-.5z" fill="#baa794"/><path d="m91 83.5-1 .5v-11l1-.5z" fill="#baa794"/><path d="m93 75.5-8 4v-1l8-4z" fill="#baa794"/><path d="m93 79.5-8 4v-1l8-4z" fill="#baa794"/><path d="m124 68-10 5v-13l10-5z" fill="#baa794"/><path d="m123 67.5-8 4v-11l8-4z" fill="#39c"/><path d="m123 67.5-8-7v11z" fill="#fff" opacity=".2"/><path d="m123 58.5-8 4v-2l8-4z" fill="#262626" opacity=".15"/><path d="m123 57.5-8 4v-1l8-4z" fill="#262626" opacity=".15"/><path d="m124 55-10 5v-1l10-5z" fill="#f8ebcb"/><path d="m124 69-10 5v-1l10-5z" fill="#f8ebcb"/><path d="m118 70-1 .5v-11l1-.5z" fill="#baa794"/><path d="m121 68.5-1 .5v-11l1-.5z" fill="#baa794"/><path d="m123 60.5-8 4v-1l8-4z" fill="#baa794"/><path d="m123 64.5-8 4v-1l8-4z" fill="#baa794"/><path d="m139 60.5-10 5v-13l10-5z" fill="#baa794"/><path d="m138 60-8 4v-11l8-4z" fill="#39c"/><path d="m138 60-8-3v7z" fill="#fff" opacity=".2"/><path d="m138 51-8 4v-2l8-4z" fill="#262626" opacity=".15"/><path d="m138 50-8 4v-1l8-4z" fill="#262626" opacity=".15"/><path d="m139 47.5-10 5v-1l10-5z" fill="#f8ebcb"/><path d="m139 61.5-10 5v-1l10-5z" fill="#f8ebcb"/><path d="m133 62.5-1 .5v-11l1-.5z" fill="#baa794"/><path d="m136 61-1 .5v-11l1-.5z" fill="#baa794"/><path d="m138 53-8 4v-1l8-4z" fill="#baa794"/><path d="m138 57-8 4v-1l8-4z" fill="#baa794"/><path d="m156 52-10 5v-13l10-5z" fill="#baa794"/><path d="m155 51.5-8 4v-11l8-4z" fill="#39c"/><path d="m147 50.5 8 1-8 4z" fill="#fff" opacity=".2"/><path d="m155 42.5-8 4v-2l8-4z" fill="#262626" opacity=".15"/><path d="m155 41.5-8 4v-1l8-4z" fill="#262626" opacity=".15"/><path d="m156 39-10 5v-1l10-5z" fill="#f8ebcb"/><path d="m156 53-10 5v-1l10-5z" fill="#f8ebcb"/><path d="m150 54-1 .5v-11l1-.5z" fill="#baa794"/><path d="m153 52.5-1 .5v-11l1-.5z" fill="#baa794"/><path d="m155 44.5-8 4v-1l8-4z" fill="#baa794"/><path d="m155 48.5-8 4v-1l8-4z" fill="#baa794"/><path d="m110 101-12 6v-21l12-6z" fill="#f8ebcb"/><path d="m109 101.5-10 5v-19l10-5z" fill="#baa794"/><path d="m103 97.5-3 1.5v-11l3-1.5z" fill="#39c"/><path d="m108 95-3 1.5v-11l3-1.5z" fill="#39c"/><path d="m108 86-3 1.5v-2l3-1.5z" fill="#262626" opacity=".15"/><path d="m108 85-3 1.5v-1l3-1.5z" fill="#262626" opacity=".15"/><path d="m103 88.5-3 1.5v-2l3-1.5z" fill="#262626" opacity=".15"/><path d="m103 87.5-3 1.5v-1l3-1.5z" fill="#262626" opacity=".15"/><path d="m102 98-1 .5v-11l1-.5z" fill="#baa794"/><path d="m107 95.5-1 .5v-11l1-.5z" fill="#baa794"/><path d="m108 88-8 4v-1l8-4z" fill="#baa794"/><path d="m108 92-8 4v-1l8-4z" fill="#baa794"/><path d="m160 80-112 56v-48l112-56z" opacity=".39"/><path d="m48 136-48-24v-48l48 24z" fill="#baa794"/><path d="m48 90-48-24v-2l48 24z" fill="#f8ebcb"/><g fill="#762c07" opacity=".4"><path d="m2 110-2-1v2l2 1z"/><path d="m6 112-3-1.5v2l3 1.5z"/><path d="m10 114-3-1.5v2l3 1.5z"/><path d="m14 116-3-1.5v2l3 1.5z"/><path d="m18 118-3-1.5v2l3 1.5z"/><path d="m22 120-3-1.5v2l3 1.5z"/><path d="m26 122-3-1.5v2l3 1.5z"/><path d="m30 124-3-1.5v2l3 1.5z"/><path d="m34 126-3-1.5v2l3 1.5z"/><path d="m38 128-3-1.5v2l3 1.5z"/><path d="m42 130-3-1.5v2l3 1.5z"/><path d="m46 132-3-1.5v2l3 1.5z"/><path d="m4 108-3-1.5v2l3 1.5z"/><path d="m8 110-3-1.5v2l3 1.5z"/><path d="m12 112-3-1.5v2l3 1.5z"/><path d="m16 114-3-1.5v2l3 1.5z"/><path d="m20 116-3-1.5v2l3 1.5z"/><path d="m24 118-3-1.5v2l3 1.5z"/><path d="m28 120-3-1.5v2l3 1.5z"/><path d="m32 122-3-1.5v2l3 1.5z"/><path d="m36 124-3-1.5v2l3 1.5z"/><path d="m40 126-3-1.5v2l3 1.5z"/><path d="m44 128-3-1.5v2l3 1.5z"/><path d="m48 130-3-1.5v2l3 1.5z"/><path d="m2 104-2-1v2l2 1z"/><path d="m6 106-3-1.5v2l3 1.5z"/><path d="m10 108-3-1.5v2l3 1.5z"/><path d="m14 110-3-1.5v2l3 1.5z"/><path d="m18 112-3-1.5v2l3 1.5z"/><path d="m22 114-3-1.5v2l3 1.5z"/><path d="m26 116-3-1.5v2l3 1.5z"/><path d="m30 118-3-1.5v2l3 1.5z"/><path d="m34 120-3-1.5v2l3 1.5z"/><path d="m38 122-3-1.5v2l3 1.5z"/><path d="m42 124-3-1.5v2l3 1.5z"/><path d="m46 126-3-1.5v2l3 1.5z"/><path d="m4 102-3-1.5v2l3 1.5z"/><path d="m8 104-3-1.5v2l3 1.5z"/><path d="m12 106-3-1.5v2l3 1.5z"/><path d="m16 108-3-1.5v2l3 1.5z"/><path d="m20 110-3-1.5v2l3 1.5z"/><path d="m24 112-3-1.5v2l3 1.5z"/><path d="m28 114-3-1.5v2l3 1.5z"/><path d="m32 116-3-1.5v2l3 1.5z"/><path d="m36 118-3-1.5v2l3 1.5z"/><path d="m40 120-3-1.5v2l3 1.5z"/><path d="m44 122-3-1.5v2l3 1.5z"/><path d="m48 124-3-1.5v2l3 1.5z"/><path d="m2 98-2-1v2l2 1z"/><path d="m6 100-3-1.5v2l3 1.5z"/><path d="m10 102-3-1.5v2l3 1.5z"/><path d="m14 104-3-1.5v2l3 1.5z"/><path d="m18 106-3-1.5v2l3 1.5z"/><path d="m22 108-3-1.5v2l3 1.5z"/><path d="m26 110-3-1.5v2l3 1.5z"/><path d="m30 112-3-1.5v2l3 1.5z"/><path d="m34 114-3-1.5v2l3 1.5z"/><path d="m38 116-3-1.5v2l3 1.5z"/><path d="m42 118-3-1.5v2l3 1.5z"/><path d="m46 120-3-1.5v2l3 1.5z"/><path d="m4 96-3-1.5v2l3 1.5z"/><path d="m8 98-3-1.5v2l3 1.5z"/><path d="m12 100-3-1.5v2l3 1.5z"/><path d="m16 102-3-1.5v2l3 1.5z"/><path d="m20 104-3-1.5v2l3 1.5z"/><path d="m24 106-3-1.5v2l3 1.5z"/><path d="m28 108-3-1.5v2l3 1.5z"/><path d="m32 110-3-1.5v2l3 1.5z"/><path d="m36 112-3-1.5v2l3 1.5z"/><path d="m40 114-3-1.5v2l3 1.5z"/><path d="m44 116-3-1.5v2l3 1.5z"/><path d="m48 118-3-1.5v2l3 1.5z"/><path d="m2 92-2-1v2l2 1z"/><path d="m6 94-3-1.5v2l3 1.5z"/><path d="m10 96-3-1.5v2l3 1.5z"/><path d="m14 98-3-1.5v2l3 1.5z"/><path d="m18 100-3-1.5v2l3 1.5z"/><path d="m22 102-3-1.5v2l3 1.5z"/><path d="m26 104-3-1.5v2l3 1.5z"/><path d="m30 106-3-1.5v2l3 1.5z"/><path d="m34 108-3-1.5v2l3 1.5z"/><path d="m38 110-3-1.5v2l3 1.5z"/><path d="m42 112-3-1.5v2l3 1.5z"/><path d="m46 114-3-1.5v2l3 1.5z"/><path d="m4 90-3-1.5v2l3 1.5z"/><path d="m8 92-3-1.5v2l3 1.5z"/><path d="m12 94-3-1.5v2l3 1.5z"/><path d="m16 96-3-1.5v2l3 1.5z"/><path d="m20 98-3-1.5v2l3 1.5z"/><path d="m24 100-3-1.5v2l3 1.5z"/><path d="m28 102-3-1.5v2l3 1.5z"/><path d="m32 104-3-1.5v2l3 1.5z"/><path d="m36 106-3-1.5v2l3 1.5z"/><path d="m40 108-3-1.5v2l3 1.5z"/><path d="m44 110-3-1.5v2l3 1.5z"/><path d="m48 112-3-1.5v2l3 1.5z"/><path d="m2 86-2-1v2l2 1z"/><path d="m6 88-3-1.5v2l3 1.5z"/><path d="m10 90-3-1.5v2l3 1.5z"/><path d="m14 92-3-1.5v2l3 1.5z"/><path d="m18 94-3-1.5v2l3 1.5z"/><path d="m22 96-3-1.5v2l3 1.5z"/><path d="m26 98-3-1.5v2l3 1.5z"/><path d="m30 100-3-1.5v2l3 1.5z"/><path d="m34 102-3-1.5v2l3 1.5z"/><path d="m38 104-3-1.5v2l3 1.5z"/><path d="m42 106-3-1.5v2l3 1.5z"/><path d="m46 108-3-1.5v2l3 1.5z"/><path d="m4 84-3-1.5v2l3 1.5z"/><path d="m8 86-3-1.5v2l3 1.5z"/><path d="m12 88-3-1.5v2l3 1.5z"/><path d="m16 90-3-1.5v2l3 1.5z"/><path d="m20 92-3-1.5v2l3 1.5z"/><path d="m24 94-3-1.5v2l3 1.5z"/><path d="m28 96-3-1.5v2l3 1.5z"/><path d="m32 98-3-1.5v2l3 1.5z"/><path d="m36 100-3-1.5v2l3 1.5z"/><path d="m40 102-3-1.5v2l3 1.5z"/><path d="m44 104-3-1.5v2l3 1.5z"/><path d="m48 106-3-1.5v2l3 1.5z"/><path d="m2 80-2-1v2l2 1z"/><path d="m6 82-3-1.5v2l3 1.5z"/><path d="m10 84-3-1.5v2l3 1.5z"/><path d="m14 86-3-1.5v2l3 1.5z"/><path d="m18 88-3-1.5v2l3 1.5z"/><path d="m22 90-3-1.5v2l3 1.5z"/><path d="m26 92-3-1.5v2l3 1.5z"/><path d="m30 94-3-1.5v2l3 1.5z"/><path d="m34 96-3-1.5v2l3 1.5z"/><path d="m38 98-3-1.5v2l3 1.5z"/><path d="m42 100-3-1.5v2l3 1.5z"/><path d="m46 102-3-1.5v2l3 1.5z"/><path d="m4 78-3-1.5v2l3 1.5z"/><path d="m8 80-3-1.5v2l3 1.5z"/><path d="m12 82-3-1.5v2l3 1.5z"/><path d="m16 84-3-1.5v2l3 1.5z"/><path d="m20 86-3-1.5v2l3 1.5z"/><path d="m24 88-3-1.5v2l3 1.5z"/><path d="m28 90-3-1.5v2l3 1.5z"/><path d="m32 92-3-1.5v2l3 1.5z"/><path d="m36 94-3-1.5v2l3 1.5z"/><path d="m40 96-3-1.5v2l3 1.5z"/><path d="m44 98-3-1.5v2l3 1.5z"/><path d="m48 100-3-1.5v2l3 1.5z"/><path d="m2 74-2-1v2l2 1z"/><path d="m6 76-3-1.5v2l3 1.5z"/><path d="m10 78-3-1.5v2l3 1.5z"/><path d="m14 80-3-1.5v2l3 1.5z"/><path d="m18 82-3-1.5v2l3 1.5z"/><path d="m22 84-3-1.5v2l3 1.5z"/><path d="m26 86-3-1.5v2l3 1.5z"/><path d="m30 88-3-1.5v2l3 1.5z"/><path d="m34 90-3-1.5v2l3 1.5z"/><path d="m38 92-3-1.5v2l3 1.5z"/><path d="m42 94-3-1.5v2l3 1.5z"/><path d="m46 96-3-1.5v2l3 1.5z"/><path d="m4 72-3-1.5v2l3 1.5z"/><path d="m8 74-3-1.5v2l3 1.5z"/><path d="m12 76-3-1.5v2l3 1.5z"/><path d="m16 78-3-1.5v2l3 1.5z"/><path d="m20 80-3-1.5v2l3 1.5z"/><path d="m24 82-3-1.5v2l3 1.5z"/><path d="m28 84-3-1.5v2l3 1.5z"/><path d="m32 86-3-1.5v2l3 1.5z"/><path d="m36 88-3-1.5v2l3 1.5z"/><path d="m40 90-3-1.5v2l3 1.5z"/><path d="m44 92-3-1.5v2l3 1.5z"/><path d="m48 94-3-1.5v2l3 1.5z"/><path d="m2 68-2-1v2l2 1z"/><path d="m6 70-3-1.5v2l3 1.5z"/><path d="m10 72-3-1.5v2l3 1.5z"/><path d="m14 74-3-1.5v2l3 1.5z"/><path d="m18 76-3-1.5v2l3 1.5z"/><path d="m22 78-3-1.5v2l3 1.5z"/><path d="m26 80-3-1.5v2l3 1.5z"/><path d="m30 82-3-1.5v2l3 1.5z"/><path d="m34 84-3-1.5v2l3 1.5z"/><path d="m38 86-3-1.5v2l3 1.5z"/><path d="m42 88-3-1.5v2l3 1.5z"/><path d="m46 90-3-1.5v2l3 1.5z"/><path d="m48 133-1-.5v2l1 .5z"/><path d="m48 127-1-.5v2l1 .5z"/><path d="m48 121-1-.5v2l1 .5z"/><path d="m48 115-1-.5v2l1 .5z"/><path d="m48 109-1-.5v2l1 .5z"/><path d="m48 103-1-.5v2l1 .5z"/><path d="m48 97-1-.5v2l1 .5z"/><path d="m48 91-1-.5v2l1 .5z"/></g><path d="m15 109.5-10-5v-13l10 5z" fill="#baa794"/><path d="m14 108-8-4v-11l8 4z" fill="#39c"/><path d="m14 104-8-11 8 4z" fill="#262626" opacity=".15"/><path d="m14 99-8-4v-2l8 4z" fill="#262626" opacity=".15"/><path d="m14 98-8-4v-1l8 4z" fill="#262626" opacity=".15"/><path d="m15 96.5-10-5v-1l10 5z" fill="#f8ebcb"/><path d="m15 110.5-10-5v-1l10 5z" fill="#f8ebcb"/><path d="m9 105.5-1-.5v-11l1 .5z" fill="#baa794"/><path d="m12 107-1-.5v-11l1 .5z" fill="#baa794"/><path d="m14 101-8-4v-1l8 4z" fill="#baa794"/><path d="m14 105-8-4v-1l8 4z" fill="#baa794"/><path d="m29 116.5-10-5v-13l10 5z" fill="#baa794"/><path d="m28 115-8-4v-11l8 4z" fill="#39c"/><path d="m28 114-8-14 8 4z" fill="#262626" opacity=".15"/><path d="m28 106-8-4v-2l8 4z" fill="#262626" opacity=".15"/><path d="m28 105-8-4v-1l8 4z" fill="#262626" opacity=".15"/><path d="m29 103.5-10-5v-1l10 5z" fill="#f8ebcb"/><path d="m29 117.5-10-5v-1l10 5z" fill="#f8ebcb"/><path d="m23 112.5-1-.5v-11l1 .5z" fill="#baa794"/><path d="m26 114-1-.5v-11l1 .5z" fill="#baa794"/><path d="m28 108-8-4v-1l8 4z" fill="#baa794"/><path d="m28 112-8-4v-1l8 4z" fill="#baa794"/><path d="m43 123.5-10-5v-13l10 5z" fill="#baa794"/><path d="m42 122-8-4v-11l8 4z" fill="#39c"/><path d="m42 116-8-9 8 4z" fill="#262626" opacity=".15"/><path d="m42 113-8-4v-2l8 4z" fill="#262626" opacity=".15"/><path d="m42 112-8-4v-1l8 4z" fill="#262626" opacity=".15"/><path d="m43 110.5-10-5v-1l10 5z" fill="#f8ebcb"/><path d="m43 124.5-10-5v-1l10 5z" fill="#f8ebcb"/><path d="m37 119.5-1-.5v-11l1 .5z" fill="#baa794"/><path d="m40 121-1-.5v-11l1 .5z" fill="#baa794"/><path d="m42 115-8-4v-1l8 4z" fill="#baa794"/><path d="m42 119-8-4v-1l8 4z" fill="#baa794"/><path d="m15 89.5-10-5v-13l10 5z" fill="#baa794"/><path d="m14 88-8-4v-11l8 4z" fill="#39c"/><path d="m14 88-8-15v11z" fill="#fff" opacity=".2"/><path d="m14 79-8-4v-2l8 4z" fill="#262626" opacity=".15"/><path d="m14 78-8-4v-1l8 4z" fill="#262626" opacity=".15"/><path d="m15 76.5-10-5v-1l10 5z" fill="#f8ebcb"/><path d="m15 90.5-10-5v-1l10 5z" fill="#f8ebcb"/><path d="m9 85.5-1-.5v-11l1 .5z" fill="#baa794"/><path d="m12 87-1-.5v-11l1 .5z" fill="#baa794"/><path d="m14 81-8-4v-1l8 4z" fill="#baa794"/><path d="m14 85-8-4v-1l8 4z" fill="#baa794"/><path d="m29 96.5-10-5v-13l10 5z" fill="#baa794"/><path d="m28 95-8-4v-11l8 4z" fill="#39c"/><path d="m28 95-8-11v7z" fill="#fff" opacity=".2"/><path d="m28 86-8-4v-2l8 4z" fill="#262626" opacity=".15"/><path d="m28 85-8-4v-1l8 4z" fill="#262626" opacity=".15"/><path d="m29 83.5-10-5v-1l10 5z" fill="#f8ebcb"/><path d="m29 97.5-10-5v-1l10 5z" fill="#f8ebcb"/><path d="m23 92.5-1-.5v-11l1 .5z" fill="#baa794"/><path d="m26 94-1-.5v-11l1 .5z" fill="#baa794"/><path d="m28 88-8-4v-1l8 4z" fill="#baa794"/><path d="m28 92-8-4v-1l8 4z" fill="#baa794"/><path d="m43 103.5-10-5v-13l10 5z" fill="#baa794"/><path d="m42 102-8-4v-11l8 4z" fill="#39c"/><path d="m34 93 8 9-8-4z" fill="#fff" opacity=".2"/><path d="m42 93-8-4v-2l8 4z" fill="#262626" opacity=".15"/><path d="m42 92-8-4v-1l8 4z" fill="#262626" opacity=".15"/><path d="m43 90.5-10-5v-1l10 5z" fill="#f8ebcb"/><path d="m43 104.5-10-5v-1l10 5z" fill="#f8ebcb"/><path d="m37 99.5-1-.5v-11l1 .5z" fill="#baa794"/><path d="m40 101-1-.5v-11l1 .5z" fill="#baa794"/><path d="m42 95-8-4v-1l8 4z" fill="#baa794"/><path d="m42 99-8-4v-1l8 4z" fill="#baa794"/><path d="m48 136-48-24v-48l48 24z" opacity=".06"/><path d="m128 92-6 3v4l16 8 6-3v-4z" fill="#f8ebcb"/><path d="m138 103v4l6-3v-4z" opacity=".39"/><path d="m138 103v3l-2-1v-1l-2-1v-1l-2-1v-1z" opacity=".06"/><path d="m102 125 36-18v-1l-2-1v-1l-2-1v-1l-2-1v-1l-10-5-36 18z" fill="#999"/><path d="m100 122v1l36-18v-1z" opacity=".39"/><path d="m98 120v1l36-18v-1z" opacity=".39"/><path d="m96 118v1l36-18v-1z" opacity=".39"/><path d="m102 124v1l36-18v-1z" opacity=".39"/><path d="m86 113-6 3v4l16 8 6-3v-4z" fill="#f8ebcb"/><path d="m96 124v4l6-3v-4z" opacity=".39"/><path d="m96 124v4l-16-8v-4z" opacity=".06"/><path d="m96 80v4l6-3v-4z" opacity=".39"/><path d="m85 70c-1.1 0-2 .4-2 1v44c0 .6.9 1 2 1s2-.4 2-1v-44c0-.5-.9-1-2-1z" fill="#f8ebcb"/><path d="m85 72c-1.1 0-2-.4-2-1v44c0 .6.9 1 2 1s2-.4 2-1v-44c0 .6-.9 1-2 1z" opacity=".2"/><path d="m127 49c-1.1 0-2 .4-2 1v44c0 .6.9 1 2 1s2-.4 2-1v-44c0-.5-.9-1-2-1z" fill="#f8ebcb"/><path d="m127 51c-1.1 0-2-.4-2-1v44c0 .6.9 1 2 1s2-.4 2-1v-44c0 .6-.9 1-2 1z" opacity=".2"/><path d="m97 76c-1.1 0-2 .4-2 1v44c0 .6.9 1 2 1s2-.4 2-1v-44c0-.5-.9-1-2-1z" fill="#f8ebcb"/><path d="m97 78c-1.1 0-2-.4-2-1v44c0 .6.9 1 2 1s2-.4 2-1v-44c0 .6-.9 1-2 1z" opacity=".2"/><path d="m139 55c-1.1 0-2 .4-2 1v44c0 .6.9 1 2 1s2-.4 2-1v-44c0-.5-.9-1-2-1z" fill="#f8ebcb"/><path d="m139 57c-1.1 0-2-.4-2-1v44c0 .6.9 1 2 1s2-.4 2-1v-44c0 .6-.9 1-2 1z" opacity=".2"/><path d="m113 56c-1.1 0-2 .4-2 1v44c0 .6.9 1 2 1s2-.4 2-1v-44c0-.5-.9-1-2-1z" fill="#f8ebcb"/><path d="m113 58c-1.1 0-2-.4-2-1v44c0 .6.9 1 2 1s2-.4 2-1v-44c0 .6-.9 1-2 1z" opacity=".2"/><path d="m99 63c-1.1 0-2 .4-2 1v44c0 .6.9 1 2 1s2-.4 2-1v-44c0-.5-.9-1-2-1z" fill="#f8ebcb"/><path d="m99 65c-1.1 0-2-.4-2-1v44c0 .6.9 1 2 1s2-.4 2-1v-44c0 .6-.9 1-2 1z" opacity=".2"/><path d="m96 80 48-24-16-8-48 24z" fill="#f8ebcb"/><path d="m96 80v4l-16-8v-4z" fill="#f8ebcb"/><path d="m96 80v4l-16-8v-4z" opacity=".06"/><path d="m96 80v4l48-24v-4h-24z" fill="#f8ebcb"/><path d="m134 1-22 7-112 56 48 24 112-56z" fill="#28896d"/><path d="m0 64 48 24-16-36z" opacity=".06"/><path d="m134 1-102 51 16 36 112-56z" opacity=".39"/><path d="m128 48-34-5-14 29 16 8 24-24h24z" fill="#28896d"/><path d="m94 43-14 29 16 8 24-24z" opacity=".06"/><path d="m128 48 16 8h-24l-26-13z" opacity=".39"/><path d="m121.7 60h13.4l-26.9 13.4z" fill="#202426" opacity=".3"/><path d="m121.7 60-1 1h11.1l-22.3 11.2-1.3 1.2 26.9-13.4z" opacity=".06"/><path d="m96 80v4l48-24v-4h-24z" opacity=".39"/></svg>