<svg enable-background="new 0 0 112 176" viewBox="0 0 112 176" xmlns="http://www.w3.org/2000/svg"><path d="m48 166-48-24v-70l48 24z" fill="#cc291f"/><g fill="#f8ebcb" opacity=".3"><path d="m4 131-3-1.5v2l3 1.5z"/><path d="m8 133-3-1.5v2l3 1.5z"/><path d="m12 135-3-1.5v2l3 1.5z"/><path d="m16 137-3-1.5v2l3 1.5z"/><path d="m20 139-3-1.5v2l3 1.5z"/><path d="m24 141-3-1.5v2l3 1.5z"/><path d="m28 143-3-1.5v2l3 1.5z"/><path d="m32 145-3-1.5v2l3 1.5z"/><path d="m36 147-3-1.5v2l3 1.5z"/><path d="m40 149-3-1.5v2l3 1.5z"/><path d="m44 151-3-1.5v2l3 1.5z"/><path d="m48 153-3-1.5v2l3 1.5z"/><path d="m2 127-2-1v2l2 1z"/><path d="m6 129-3-1.5v2l3 1.5z"/><path d="m10 131-3-1.5v2l3 1.5z"/><path d="m14 133-3-1.5v2l3 1.5z"/><path d="m18 135-3-1.5v2l3 1.5z"/><path d="m22 137-3-1.5v2l3 1.5z"/><path d="m26 139-3-1.5v2l3 1.5z"/><path d="m30 141-3-1.5v2l3 1.5z"/><path d="m34 143-3-1.5v2l3 1.5z"/><path d="m38 145-3-1.5v2l3 1.5z"/><path d="m42 147-3-1.5v2l3 1.5z"/><path d="m46 149-3-1.5v2l3 1.5z"/><path d="m48 150-1-.5v2l1 .5z"/><path d="m4 125-3-1.5v2l3 1.5z"/><path d="m8 127-3-1.5v2l3 1.5z"/><path d="m12 129-3-1.5v2l3 1.5z"/><path d="m16 131-3-1.5v2l3 1.5z"/><path d="m20 133-3-1.5v2l3 1.5z"/><path d="m24 135-3-1.5v2l3 1.5z"/><path d="m28 137-3-1.5v2l3 1.5z"/><path d="m32 139-3-1.5v2l3 1.5z"/><path d="m36 141-3-1.5v2l3 1.5z"/><path d="m40 143-3-1.5v2l3 1.5z"/><path d="m44 145-3-1.5v2l3 1.5z"/><path d="m48 147-3-1.5v2l3 1.5z"/><path d="m2 121-2-1v2l2 1z"/><path d="m6 123-3-1.5v2l3 1.5z"/><path d="m10 125-3-1.5v2l3 1.5z"/><path d="m14 127-3-1.5v2l3 1.5z"/><path d="m18 129-3-1.5v2l3 1.5z"/><path d="m22 131-3-1.5v2l3 1.5z"/><path d="m26 133-3-1.5v2l3 1.5z"/><path d="m30 135-3-1.5v2l3 1.5z"/><path d="m34 137-3-1.5v2l3 1.5z"/><path d="m38 139-3-1.5v2l3 1.5z"/><path d="m42 141-3-1.5v2l3 1.5z"/><path d="m46 143-3-1.5v2l3 1.5z"/><path d="m48 144-1-.5v2l1 .5z"/><path d="m4 119-3-1.5v2l3 1.5z"/><path d="m8 121-3-1.5v2l3 1.5z"/><path d="m12 123-3-1.5v2l3 1.5z"/><path d="m16 125-3-1.5v2l3 1.5z"/><path d="m20 127-3-1.5v2l3 1.5z"/><path d="m24 129-3-1.5v2l3 1.5z"/><path d="m28 131-3-1.5v2l3 1.5z"/><path d="m32 133-3-1.5v2l3 1.5z"/><path d="m36 135-3-1.5v2l3 1.5z"/><path d="m40 137-3-1.5v2l3 1.5z"/><path d="m44 139-3-1.5v2l3 1.5z"/><path d="m48 141-3-1.5v2l3 1.5z"/><path d="m2 115-2-1v2l2 1z"/><path d="m6 117-3-1.5v2l3 1.5z"/><path d="m10 119-3-1.5v2l3 1.5z"/><path d="m14 121-3-1.5v2l3 1.5z"/><path d="m18 123-3-1.5v2l3 1.5z"/><path d="m22 125-3-1.5v2l3 1.5z"/><path d="m26 127-3-1.5v2l3 1.5z"/><path d="m30 129-3-1.5v2l3 1.5z"/><path d="m34 131-3-1.5v2l3 1.5z"/><path d="m38 133-3-1.5v2l3 1.5z"/><path d="m42 135-3-1.5v2l3 1.5z"/><path d="m46 137-3-1.5v2l3 1.5z"/><path d="m48 138-1-.5v2l1 .5z"/><path d="m4 113-3-1.5v2l3 1.5z"/><path d="m8 115-3-1.5v2l3 1.5z"/><path d="m12 117-3-1.5v2l3 1.5z"/><path d="m16 119-3-1.5v2l3 1.5z"/><path d="m20 121-3-1.5v2l3 1.5z"/><path d="m24 123-3-1.5v2l3 1.5z"/><path d="m28 125-3-1.5v2l3 1.5z"/><path d="m32 127-3-1.5v2l3 1.5z"/><path d="m36 129-3-1.5v2l3 1.5z"/><path d="m40 131-3-1.5v2l3 1.5z"/><path d="m44 133-3-1.5v2l3 1.5z"/><path d="m48 135-3-1.5v2l3 1.5z"/><path d="m2 109-2-1v2l2 1z"/><path d="m6 111-3-1.5v2l3 1.5z"/><path d="m10 113-3-1.5v2l3 1.5z"/><path d="m14 115-3-1.5v2l3 1.5z"/><path d="m18 117-3-1.5v2l3 1.5z"/><path d="m22 119-3-1.5v2l3 1.5z"/><path d="m26 121-3-1.5v2l3 1.5z"/><path d="m30 123-3-1.5v2l3 1.5z"/><path d="m34 125-3-1.5v2l3 1.5z"/><path d="m38 127-3-1.5v2l3 1.5z"/><path d="m42 129-3-1.5v2l3 1.5z"/><path d="m46 131-3-1.5v2l3 1.5z"/><path d="m48 132-1-.5v2l1 .5z"/><path d="m4 107-3-1.5v2l3 1.5z"/><path d="m8 109-3-1.5v2l3 1.5z"/><path d="m12 111-3-1.5v2l3 1.5z"/><path d="m16 113-3-1.5v2l3 1.5z"/><path d="m20 115-3-1.5v2l3 1.5z"/><path d="m24 117-3-1.5v2l3 1.5z"/><path d="m28 119-3-1.5v2l3 1.5z"/><path d="m32 121-3-1.5v2l3 1.5z"/><path d="m36 123-3-1.5v2l3 1.5z"/><path d="m40 125-3-1.5v2l3 1.5z"/><path d="m44 127-3-1.5v2l3 1.5z"/><path d="m48 129-3-1.5v2l3 1.5z"/><path d="m2 103-2-1v2l2 1z"/><path d="m6 105-3-1.5v2l3 1.5z"/><path d="m10 107-3-1.5v2l3 1.5z"/><path d="m14 109-3-1.5v2l3 1.5z"/><path d="m18 111-3-1.5v2l3 1.5z"/><path d="m22 113-3-1.5v2l3 1.5z"/><path d="m26 115-3-1.5v2l3 1.5z"/><path d="m30 117-3-1.5v2l3 1.5z"/><path d="m34 119-3-1.5v2l3 1.5z"/><path d="m38 121-3-1.5v2l3 1.5z"/><path d="m42 123-3-1.5v2l3 1.5z"/><path d="m46 125-3-1.5v2l3 1.5z"/><path d="m48 126-1-.5v2l1 .5z"/><path d="m4 101-3-1.5v2l3 1.5z"/><path d="m8 103-3-1.5v2l3 1.5z"/><path d="m12 105-3-1.5v2l3 1.5z"/><path d="m16 107-3-1.5v2l3 1.5z"/><path d="m20 109-3-1.5v2l3 1.5z"/><path d="m24 111-3-1.5v2l3 1.5z"/><path d="m28 113-3-1.5v2l3 1.5z"/><path d="m32 115-3-1.5v2l3 1.5z"/><path d="m36 117-3-1.5v2l3 1.5z"/><path d="m40 119-3-1.5v2l3 1.5z"/><path d="m44 121-3-1.5v2l3 1.5z"/><path d="m48 123-3-1.5v2l3 1.5z"/><path d="m2 97-2-1v2l2 1z"/><path d="m6 99-3-1.5v2l3 1.5z"/><path d="m10 101-3-1.5v2l3 1.5z"/><path d="m14 103-3-1.5v2l3 1.5z"/><path d="m18 105-3-1.5v2l3 1.5z"/><path d="m22 107-3-1.5v2l3 1.5z"/><path d="m26 109-3-1.5v2l3 1.5z"/><path d="m30 111-3-1.5v2l3 1.5z"/><path d="m34 113-3-1.5v2l3 1.5z"/><path d="m38 115-3-1.5v2l3 1.5z"/><path d="m42 117-3-1.5v2l3 1.5z"/><path d="m46 119-3-1.5v2l3 1.5z"/><path d="m48 120-1-.5v2l1 .5z"/><path d="m4 95-3-1.5v2l3 1.5z"/><path d="m8 97-3-1.5v2l3 1.5z"/><path d="m12 99-3-1.5v2l3 1.5z"/><path d="m16 101-3-1.5v2l3 1.5z"/><path d="m20 103-3-1.5v2l3 1.5z"/><path d="m24 105-3-1.5v2l3 1.5z"/><path d="m28 107-3-1.5v2l3 1.5z"/><path d="m32 109-3-1.5v2l3 1.5z"/><path d="m36 111-3-1.5v2l3 1.5z"/><path d="m40 113-3-1.5v2l3 1.5z"/><path d="m44 115-3-1.5v2l3 1.5z"/><path d="m48 117-3-1.5v2l3 1.5z"/><path d="m2 91-2-1v2l2 1z"/><path d="m6 93-3-1.5v2l3 1.5z"/><path d="m10 95-3-1.5v2l3 1.5z"/><path d="m14 97-3-1.5v2l3 1.5z"/><path d="m18 99-3-1.5v2l3 1.5z"/><path d="m22 101-3-1.5v2l3 1.5z"/><path d="m26 103-3-1.5v2l3 1.5z"/><path d="m30 105-3-1.5v2l3 1.5z"/><path d="m34 107-3-1.5v2l3 1.5z"/><path d="m38 109-3-1.5v2l3 1.5z"/><path d="m42 111-3-1.5v2l3 1.5z"/><path d="m46 113-3-1.5v2l3 1.5z"/><path d="m48 114-1-.5v2l1 .5z"/><path d="m4 89-3-1.5v2l3 1.5z"/><path d="m8 91-3-1.5v2l3 1.5z"/><path d="m12 93-3-1.5v2l3 1.5z"/><path d="m16 95-3-1.5v2l3 1.5z"/><path d="m20 97-3-1.5v2l3 1.5z"/><path d="m24 99-3-1.5v2l3 1.5z"/><path d="m28 101-3-1.5v2l3 1.5z"/><path d="m32 103-3-1.5v2l3 1.5z"/><path d="m36 105-3-1.5v2l3 1.5z"/><path d="m40 107-3-1.5v2l3 1.5z"/><path d="m44 109-3-1.5v2l3 1.5z"/><path d="m48 111-3-1.5v2l3 1.5z"/><path d="m2 85-2-1v2l2 1z"/><path d="m6 87-3-1.5v2l3 1.5z"/><path d="m10 89-3-1.5v2l3 1.5z"/><path d="m14 91-3-1.5v2l3 1.5z"/><path d="m18 93-3-1.5v2l3 1.5z"/><path d="m22 95-3-1.5v2l3 1.5z"/><path d="m26 97-3-1.5v2l3 1.5z"/><path d="m30 99-3-1.5v2l3 1.5z"/><path d="m34 101-3-1.5v2l3 1.5z"/><path d="m38 103-3-1.5v2l3 1.5z"/><path d="m42 105-3-1.5v2l3 1.5z"/><path d="m46 107-3-1.5v2l3 1.5z"/><path d="m48 108-1-.5v2l1 .5z"/><path d="m4 83-3-1.5v2l3 1.5z"/><path d="m8 85-3-1.5v2l3 1.5z"/><path d="m12 87-3-1.5v2l3 1.5z"/><path d="m16 89-3-1.5v2l3 1.5z"/><path d="m20 91-3-1.5v2l3 1.5z"/><path d="m24 93-3-1.5v2l3 1.5z"/><path d="m28 95-3-1.5v2l3 1.5z"/><path d="m32 97-3-1.5v2l3 1.5z"/><path d="m36 99-3-1.5v2l3 1.5z"/><path d="m40 101-3-1.5v2l3 1.5z"/><path d="m44 103-3-1.5v2l3 1.5z"/><path d="m48 105-3-1.5v2l3 1.5z"/><path d="m2 79-2-1v2l2 1z"/><path d="m6 81-3-1.5v2l3 1.5z"/><path d="m10 83-3-1.5v2l3 1.5z"/><path d="m14 85-3-1.5v2l3 1.5z"/><path d="m18 87-3-1.5v2l3 1.5z"/><path d="m22 89-3-1.5v2l3 1.5z"/><path d="m26 91-3-1.5v2l3 1.5z"/><path d="m30 93-3-1.5v2l3 1.5z"/><path d="m34 95-3-1.5v2l3 1.5z"/><path d="m38 97-3-1.5v2l3 1.5z"/><path d="m42 99-3-1.5v2l3 1.5z"/><path d="m46 101-3-1.5v2l3 1.5z"/><path d="m48 102-1-.5v2l1 .5z"/><path d="m4 77-3-1.5v2l3 1.5z"/><path d="m8 79-3-1.5v2l3 1.5z"/><path d="m12 81-3-1.5v2l3 1.5z"/><path d="m16 83-3-1.5v2l3 1.5z"/><path d="m20 85-3-1.5v2l3 1.5z"/><path d="m24 87-3-1.5v2l3 1.5z"/><path d="m28 89-3-1.5v2l3 1.5z"/><path d="m32 91-3-1.5v2l3 1.5z"/><path d="m36 93-3-1.5v2l3 1.5z"/><path d="m40 95-3-1.5v2l3 1.5z"/><path d="m44 97-3-1.5v2l3 1.5z"/><path d="m48 99-3-1.5v2l3 1.5z"/><path d="m2 73-2-1v2l2 1z"/><path d="m6 75-3-1.5v2l3 1.5z"/><path d="m10 77-3-1.5v2l3 1.5z"/><path d="m14 79-3-1.5v2l3 1.5z"/><path d="m18 81-3-1.5v2l3 1.5z"/><path d="m22 83-3-1.5v2l3 1.5z"/><path d="m26 85-3-1.5v2l3 1.5z"/><path d="m30 87-3-1.5v2l3 1.5z"/><path d="m34 89-3-1.5v2l3 1.5z"/><path d="m38 91-3-1.5v2l3 1.5z"/><path d="m42 93-3-1.5v2l3 1.5z"/><path d="m46 95-3-1.5v2l3 1.5z"/><path d="m48 96-1-.5v2l1 .5z"/></g><path d="m48 176-48-24v-21l48 24z" fill="#f8ebcb"/><path d="m45 112.5-9-4.5v-13l9 4.5z" fill="#f8ebcb"/><path d="m37 96.5v11l3 1.5v-11z" fill="#39c"/><path d="m37 101.5v6l3 1.5z" fill="#fff" opacity=".2"/><path d="m41 98.5v11l3 1.5v-11z" fill="#39c"/><path d="m40 99-3-1.5v-1l3 1.5z" opacity=".15"/><path d="m44 101-3-1.5v-1l3 1.5z" opacity=".15"/><path d="m44 108-3-8.5v-1l3 1.5z" opacity=".15"/><path d="m44 104-7-3.5v-1l7 3.5z" fill="#f8ebcb"/><path d="m44 108-7-3.5v-1l7 3.5z" fill="#f8ebcb"/><path d="m34 107-9-4.5v-13l9 4.5z" fill="#f8ebcb"/><path d="m26 91v11l3 1.5v-11z" fill="#39c"/><path d="m26 96v6l3 1.5z" fill="#fff" opacity=".2"/><path d="m30 93v11l3 1.5v-11z" fill="#39c"/><path d="m29 93.5-3-1.5v-1l3 1.5z" opacity=".15"/><path d="m33 95.5-3-1.5v-1l3 1.5z" opacity=".15"/><path d="m33 102.5-3-8.5v-1l3 1.5z" opacity=".15"/><path d="m33 98.5-7-3.5v-1l7 3.5z" fill="#f8ebcb"/><path d="m33 102.5-7-3.5v-1l7 3.5z" fill="#f8ebcb"/><path d="m23 101.5-9-4.5v-13l9 4.5z" fill="#f8ebcb"/><path d="m15 85.5v11l3 1.5v-11z" fill="#39c"/><path d="m15 90.5v6l3 1.5z" fill="#fff" opacity=".2"/><path d="m19 87.5v11l3 1.5v-11z" fill="#39c"/><path d="m18 88-3-1.5v-1l3 1.5z" opacity=".15"/><path d="m22 90-3-1.5v-1l3 1.5z" opacity=".15"/><path d="m22 97-3-8.5v-1l3 1.5z" opacity=".15"/><path d="m22 93-7-3.5v-1l7 3.5z" fill="#f8ebcb"/><path d="m22 97-7-3.5v-1l7 3.5z" fill="#f8ebcb"/><path d="m12 96-9-4.5v-13l9 4.5z" fill="#f8ebcb"/><path d="m4 80v11l3 1.5v-11z" fill="#39c"/><path d="m4 85v6l3 1.5z" fill="#fff" opacity=".2"/><path d="m8 82v11l3 1.5v-11z" fill="#39c"/><path d="m7 82.5-3-1.5v-1l3 1.5z" opacity=".15"/><path d="m11 84.5-3-1.5v-1l3 1.5z" opacity=".15"/><path d="m11 91.5-3-8.5v-1l3 1.5z" opacity=".15"/><path d="m11 87.5-7-3.5v-1l7 3.5z" fill="#f8ebcb"/><path d="m11 91.5-7-3.5v-1l7 3.5z" fill="#f8ebcb"/><path d="m45 131.5-9-4.5v-13l9 4.5z" fill="#f8ebcb"/><path d="m37 115.5v11l3 1.5v-11z" fill="#39c"/><path d="m37 120.5v6l3 1.5z" fill="#fff" opacity=".2"/><path d="m41 117.5v11l3 1.5v-11z" fill="#39c"/><path d="m40 118-3-1.5v-1l3 1.5z" opacity=".15"/><path d="m44 120-3-1.5v-1l3 1.5z" opacity=".15"/><path d="m44 127-3-8.5v-1l3 1.5z" opacity=".15"/><path d="m44 123-7-3.5v-1l7 3.5z" fill="#f8ebcb"/><path d="m44 127-7-3.5v-1l7 3.5z" fill="#f8ebcb"/><path d="m34 126-9-4.5v-13l9 4.5z" fill="#f8ebcb"/><path d="m26 110v11l3 1.5v-11z" fill="#39c"/><path d="m26 115v6l3 1.5z" fill="#fff" opacity=".2"/><path d="m30 112v11l3 1.5v-11z" fill="#39c"/><path d="m29 112.5-3-1.5v-1l3 1.5z" opacity=".15"/><path d="m33 114.5-3-1.5v-1l3 1.5z" opacity=".15"/><path d="m33 121.5-3-8.5v-1l3 1.5z" opacity=".15"/><path d="m33 117.5-7-3.5v-1l7 3.5z" fill="#f8ebcb"/><path d="m33 121.5-7-3.5v-1l7 3.5z" fill="#f8ebcb"/><path d="m23 120.5-9-4.5v-13l9 4.5z" fill="#f8ebcb"/><path d="m15 104.5v11l3 1.5v-11z" fill="#39c"/><path d="m15 109.5v6l3 1.5z" fill="#fff" opacity=".2"/><path d="m19 106.5v11l3 1.5v-11z" fill="#39c"/><path d="m18 107-3-1.5v-1l3 1.5z" opacity=".15"/><path d="m22 109-3-1.5v-1l3 1.5z" opacity=".15"/><path d="m22 116-3-8.5v-1l3 1.5z" opacity=".15"/><path d="m22 112-7-3.5v-1l7 3.5z" fill="#f8ebcb"/><path d="m22 116-7-3.5v-1l7 3.5z" fill="#f8ebcb"/><path d="m12 115-9-4.5v-13l9 4.5z" fill="#f8ebcb"/><path d="m4 99v11l3 1.5v-11z" fill="#39c"/><path d="m4 104v6l3 1.5z" fill="#fff" opacity=".2"/><path d="m8 101v11l3 1.5v-11z" fill="#39c"/><path d="m7 101.5-3-1.5v-1l3 1.5z" opacity=".15"/><path d="m11 103.5-3-1.5v-1l3 1.5z" opacity=".15"/><path d="m11 110.5-3-8.5v-1l3 1.5z" opacity=".15"/><path d="m11 106.5-7-3.5v-1l7 3.5z" fill="#f8ebcb"/><path d="m11 110.5-7-3.5v-1l7 3.5z" fill="#f8ebcb"/><path d="m45 117.5-9-4.5v-1l9 4.5z" fill="#f8ebcb"/><path d="m34 112-9-4.5v-1l9 4.5z" fill="#f8ebcb"/><path d="m23 106.5-9-4.5v-1l9 4.5z" fill="#f8ebcb"/><path d="m12 101-9-4.5v-1l9 4.5z" fill="#f8ebcb"/><path d="m45 151.5-9-4.5v-13l9 4.5z" fill="#f8ebcb"/><path d="m37 135.5v11l3 1.5v-11z" fill="#39c"/><path d="m37 140.5v6l3 1.5z" fill="#fff" opacity=".2"/><path d="m41 137.5v11l3 1.5v-11z" fill="#39c"/><path d="m40 138-3-1.5v-1l3 1.5z" opacity=".15"/><path d="m44 140-3-1.5v-1l3 1.5z" opacity=".15"/><path d="m44 147-3-8.5v-1l3 1.5z" opacity=".15"/><path d="m44 143-7-3.5v-1l7 3.5z" fill="#f8ebcb"/><path d="m44 147-7-3.5v-1l7 3.5z" fill="#f8ebcb"/><path d="m34 146-9-4.5v-13l9 4.5z" fill="#f8ebcb"/><path d="m26 130v11l3 1.5v-11z" fill="#39c"/><path d="m26 135v6l3 1.5z" fill="#fff" opacity=".2"/><path d="m30 132v11l3 1.5v-11z" fill="#39c"/><path d="m29 132.5-3-1.5v-1l3 1.5z" opacity=".15"/><path d="m33 134.5-3-1.5v-1l3 1.5z" opacity=".15"/><path d="m33 141.5-3-8.5v-1l3 1.5z" opacity=".15"/><path d="m33 137.5-7-3.5v-1l7 3.5z" fill="#f8ebcb"/><path d="m33 141.5-7-3.5v-1l7 3.5z" fill="#f8ebcb"/><path d="m23 140.5-9-4.5v-13l9 4.5z" fill="#f8ebcb"/><path d="m15 124.5v11l3 1.5v-11z" fill="#39c"/><path d="m15 129.5v6l3 1.5z" fill="#fff" opacity=".2"/><path d="m19 126.5v11l3 1.5v-11z" fill="#39c"/><path d="m18 127-3-1.5v-1l3 1.5z" opacity=".15"/><path d="m22 129-3-1.5v-1l3 1.5z" opacity=".15"/><path d="m22 136-3-8.5v-1l3 1.5z" opacity=".15"/><path d="m22 132-7-3.5v-1l7 3.5z" fill="#f8ebcb"/><path d="m22 136-7-3.5v-1l7 3.5z" fill="#f8ebcb"/><path d="m12 135-9-4.5v-13l9 4.5z" fill="#f8ebcb"/><path d="m4 119v11l3 1.5v-11z" fill="#39c"/><path d="m4 124v6l3 1.5z" fill="#fff" opacity=".2"/><path d="m8 121v11l3 1.5v-11z" fill="#39c"/><path d="m7 121.5-3-1.5v-1l3 1.5z" opacity=".15"/><path d="m11 123.5-3-1.5v-1l3 1.5z" opacity=".15"/><path d="m11 130.5-3-8.5v-1l3 1.5z" opacity=".15"/><path d="m11 126.5-7-3.5v-1l7 3.5z" fill="#f8ebcb"/><path d="m11 130.5-7-3.5v-1l7 3.5z" fill="#f8ebcb"/><path d="m45 174.5-9-4.5v-17l9 4.5z" fill="#825012"/><g fill="#fff"><path d="m37 154.5v3l3 1.5v-3z" opacity=".12"/><path d="m40 157-3-1.5v-1l3 1.5z" opacity=".2"/><path d="m41 156.5v3l3 1.5v-3z" opacity=".12"/><path d="m44 159-3-1.5v-1l3 1.5z" opacity=".2"/><path d="m37 158.5v3l3 1.5v-3z" opacity=".12"/><path d="m40 161-3-1.5v-1l3 1.5z" opacity=".2"/><path d="m41 160.5v3l3 1.5v-3z" opacity=".12"/><path d="m44 163-3-1.5v-1l3 1.5z" opacity=".2"/><path d="m37 162.5v3l3 1.5v-3z" opacity=".12"/><path d="m40 165-3-1.5v-1l3 1.5z" opacity=".2"/><path d="m41 164.5v3l3 1.5v-3z" opacity=".12"/><path d="m44 167-3-1.5v-1l3 1.5z" opacity=".2"/><path d="m37 166.5v3l3 1.5v-3z" opacity=".12"/><path d="m40 169-3-1.5v-1l3 1.5z" opacity=".2"/><path d="m41 168.5v3l3 1.5v-3z" opacity=".12"/><path d="m44 171-3-1.5v-1l3 1.5z" opacity=".2"/></g><path d="m12 158-9-4.5v-17l9 4.5z" fill="#825012"/><path d="m4 138v15l3 1.5v-15z" fill="#39c"/><path d="m4 143v10l3 1.5z" fill="#fff" opacity=".2"/><path d="m8 140v15l3 1.5v-15z" fill="#39c"/><path d="m7 140.5-3-1.5v-1l3 1.5z" opacity=".15"/><path d="m11 142.5-3-1.5v-1l3 1.5z" opacity=".15"/><path d="m11 149.5-3-8.5v-1l3 1.5z" opacity=".15"/><path d="m34 165-20-10v-13l20 10z" fill="#825012"/><path d="m15 143.5v11l18 9v-11z" fill="#39c"/><path d="m15 145.5v5l16 12z" fill="#fff" opacity=".2"/><path d="m33 153.5-18-9v-1l18 9z" opacity=".15"/><path d="m33 157.5-17-13.5 17 8.5z" opacity=".15"/><path d="m45 137.5-9-4.5v-1h4l1 .5 4 4z" fill="#f8ebcb"/><path d="m34 132-9-4.5v-1h4l1 .5 4 4z" fill="#f8ebcb"/><path d="m23 126.5-9-4.5v-1h4l1 .5 4 4z" fill="#f8ebcb"/><path d="m12 121-9-4.5v-1h4l1 .5 4 4z" fill="#f8ebcb"/><path d="m34 151-31-15.5v-2l31 15.5z" fill="#2d3134"/><path d="m19 156.5-1-.5v-11l1 .5z" fill="#825012"/><path d="m30 162-1-.5v-11l1 .5z" fill="#825012"/><path d="m48 176-48-24v-80l48 24z" opacity=".06"/><path d="m112 134-64 32v-70l32-69 32 37z" fill="#cc291f"/><g fill="#f8ebcb" opacity=".2"><path d="m52 171-3 1.5v2l3-1.5z"/><path d="m56 169-3 1.5v2l3-1.5z"/><path d="m60 167-3 1.5v2l3-1.5z"/><path d="m64 165-3 1.5v2l3-1.5z"/><path d="m68 163-3 1.5v2l3-1.5z"/><path d="m72 161-3 1.5v2l3-1.5z"/><path d="m76 159-3 1.5v2l3-1.5z"/><path d="m80 157-3 1.5v2l3-1.5z"/><path d="m84 155-3 1.5v2l3-1.5z"/><path d="m88 153-3 1.5v2l3-1.5z"/><path d="m92 151-3 1.5v2l3-1.5z"/><path d="m96 149-3 1.5v2l3-1.5z"/><path d="m100 147-3 1.5v2l3-1.5z"/><path d="m104 145-3 1.5v2l3-1.5z"/><path d="m108 143-3 1.5v2l3-1.5z"/><path d="m50 169-2 1v2l2-1z"/><path d="m54 167-3 1.5v2l3-1.5z"/><path d="m58 165-3 1.5v2l3-1.5z"/><path d="m62 163-3 1.5v2l3-1.5z"/><path d="m66 161-3 1.5v2l3-1.5z"/><path d="m70 159-3 1.5v2l3-1.5z"/><path d="m74 157-3 1.5v2l3-1.5z"/><path d="m78 155-3 1.5v2l3-1.5z"/><path d="m82 153-3 1.5v2l3-1.5z"/><path d="m86 151-3 1.5v2l3-1.5z"/><path d="m90 149-3 1.5v2l3-1.5z"/><path d="m94 147-3 1.5v2l3-1.5z"/><path d="m98 145-3 1.5v2l3-1.5z"/><path d="m102 143-3 1.5v2l3-1.5z"/><path d="m106 141-3 1.5v2l3-1.5z"/><path d="m110 139-3 1.5v2l3-1.5z"/><path d="m52 165-3 1.5v2l3-1.5z"/><path d="m56 163-3 1.5v2l3-1.5z"/><path d="m60 161-3 1.5v2l3-1.5z"/><path d="m64 159-3 1.5v2l3-1.5z"/><path d="m68 157-3 1.5v2l3-1.5z"/><path d="m72 155-3 1.5v2l3-1.5z"/><path d="m76 153-3 1.5v2l3-1.5z"/><path d="m80 151-3 1.5v2l3-1.5z"/><path d="m84 149-3 1.5v2l3-1.5z"/><path d="m88 147-3 1.5v2l3-1.5z"/><path d="m92 145-3 1.5v2l3-1.5z"/><path d="m96 143-3 1.5v2l3-1.5z"/><path d="m100 141-3 1.5v2l3-1.5z"/><path d="m104 139-3 1.5v2l3-1.5z"/><path d="m108 137-3 1.5v2l3-1.5z"/><path d="m50 163-2 1v2l2-1z"/><path d="m54 161-3 1.5v2l3-1.5z"/><path d="m58 159-3 1.5v2l3-1.5z"/><path d="m62 157-3 1.5v2l3-1.5z"/><path d="m66 155-3 1.5v2l3-1.5z"/><path d="m70 153-3 1.5v2l3-1.5z"/><path d="m74 151-3 1.5v2l3-1.5z"/><path d="m78 149-3 1.5v2l3-1.5z"/><path d="m82 147-3 1.5v2l3-1.5z"/><path d="m86 145-3 1.5v2l3-1.5z"/><path d="m90 143-3 1.5v2l3-1.5z"/><path d="m94 141-3 1.5v2l3-1.5z"/><path d="m98 139-3 1.5v2l3-1.5z"/><path d="m102 137-3 1.5v2l3-1.5z"/><path d="m106 135-3 1.5v2l3-1.5z"/><path d="m110 133-3 1.5v2l3-1.5z"/><path d="m52 159-3 1.5v2l3-1.5z"/><path d="m56 157-3 1.5v2l3-1.5z"/><path d="m60 155-3 1.5v2l3-1.5z"/><path d="m64 153-3 1.5v2l3-1.5z"/><path d="m68 151-3 1.5v2l3-1.5z"/><path d="m72 149-3 1.5v2l3-1.5z"/><path d="m76 147-3 1.5v2l3-1.5z"/><path d="m80 145-3 1.5v2l3-1.5z"/><path d="m84 143-3 1.5v2l3-1.5z"/><path d="m88 141-3 1.5v2l3-1.5z"/><path d="m92 139-3 1.5v2l3-1.5z"/><path d="m96 137-3 1.5v2l3-1.5z"/><path d="m100 135-3 1.5v2l3-1.5z"/><path d="m104 133-3 1.5v2l3-1.5z"/><path d="m108 131-3 1.5v2l3-1.5z"/><path d="m50 157-2 1v2l2-1z"/><path d="m54 155-3 1.5v2l3-1.5z"/><path d="m58 153-3 1.5v2l3-1.5z"/><path d="m62 151-3 1.5v2l3-1.5z"/><path d="m66 149-3 1.5v2l3-1.5z"/><path d="m70 147-3 1.5v2l3-1.5z"/><path d="m74 145-3 1.5v2l3-1.5z"/><path d="m78 143-3 1.5v2l3-1.5z"/><path d="m82 141-3 1.5v2l3-1.5z"/><path d="m86 139-3 1.5v2l3-1.5z"/><path d="m90 137-3 1.5v2l3-1.5z"/><path d="m94 135-3 1.5v2l3-1.5z"/><path d="m98 133-3 1.5v2l3-1.5z"/><path d="m102 131-3 1.5v2l3-1.5z"/><path d="m106 129-3 1.5v2l3-1.5z"/><path d="m110 127-3 1.5v2l3-1.5z"/><path d="m52 153-3 1.5v2l3-1.5z"/><path d="m56 151-3 1.5v2l3-1.5z"/><path d="m60 149-3 1.5v2l3-1.5z"/><path d="m64 147-3 1.5v2l3-1.5z"/><path d="m68 145-3 1.5v2l3-1.5z"/><path d="m72 143-3 1.5v2l3-1.5z"/><path d="m76 141-3 1.5v2l3-1.5z"/><path d="m80 139-3 1.5v2l3-1.5z"/><path d="m84 137-3 1.5v2l3-1.5z"/><path d="m88 135-3 1.5v2l3-1.5z"/><path d="m92 133-3 1.5v2l3-1.5z"/><path d="m96 131-3 1.5v2l3-1.5z"/><path d="m100 129-3 1.5v2l3-1.5z"/><path d="m104 127-3 1.5v2l3-1.5z"/><path d="m108 125-3 1.5v2l3-1.5z"/><path d="m50 151-2 1v2l2-1z"/><path d="m54 149-3 1.5v2l3-1.5z"/><path d="m58 147-3 1.5v2l3-1.5z"/><path d="m62 145-3 1.5v2l3-1.5z"/><path d="m66 143-3 1.5v2l3-1.5z"/><path d="m70 141-3 1.5v2l3-1.5z"/><path d="m74 139-3 1.5v2l3-1.5z"/><path d="m78 137-3 1.5v2l3-1.5z"/><path d="m82 135-3 1.5v2l3-1.5z"/><path d="m86 133-3 1.5v2l3-1.5z"/><path d="m90 131-3 1.5v2l3-1.5z"/><path d="m94 129-3 1.5v2l3-1.5z"/><path d="m98 127-3 1.5v2l3-1.5z"/><path d="m102 125-3 1.5v2l3-1.5z"/><path d="m106 123-3 1.5v2l3-1.5z"/><path d="m110 121-3 1.5v2l3-1.5z"/><path d="m52 147-3 1.5v2l3-1.5z"/><path d="m56 145-3 1.5v2l3-1.5z"/><path d="m60 143-3 1.5v2l3-1.5z"/><path d="m64 141-3 1.5v2l3-1.5z"/><path d="m68 139-3 1.5v2l3-1.5z"/><path d="m72 137-3 1.5v2l3-1.5z"/><path d="m76 135-3 1.5v2l3-1.5z"/><path d="m80 133-3 1.5v2l3-1.5z"/><path d="m84 131-3 1.5v2l3-1.5z"/><path d="m88 129-3 1.5v2l3-1.5z"/><path d="m92 127-3 1.5v2l3-1.5z"/><path d="m96 125-3 1.5v2l3-1.5z"/><path d="m100 123-3 1.5v2l3-1.5z"/><path d="m104 121-3 1.5v2l3-1.5z"/><path d="m108 119-3 1.5v2l3-1.5z"/><path d="m50 145-2 1v2l2-1z"/><path d="m54 143-3 1.5v2l3-1.5z"/><path d="m58 141-3 1.5v2l3-1.5z"/><path d="m62 139-3 1.5v2l3-1.5z"/><path d="m66 137-3 1.5v2l3-1.5z"/><path d="m70 135-3 1.5v2l3-1.5z"/><path d="m74 133-3 1.5v2l3-1.5z"/><path d="m78 131-3 1.5v2l3-1.5z"/><path d="m82 129-3 1.5v2l3-1.5z"/><path d="m86 127-3 1.5v2l3-1.5z"/><path d="m90 125-3 1.5v2l3-1.5z"/><path d="m94 123-3 1.5v2l3-1.5z"/><path d="m98 121-3 1.5v2l3-1.5z"/><path d="m102 119-3 1.5v2l3-1.5z"/><path d="m106 117-3 1.5v2l3-1.5z"/><path d="m110 115-3 1.5v2l3-1.5z"/><path d="m52 141-3 1.5v2l3-1.5z"/><path d="m56 139-3 1.5v2l3-1.5z"/><path d="m60 137-3 1.5v2l3-1.5z"/><path d="m64 135-3 1.5v2l3-1.5z"/><path d="m68 133-3 1.5v2l3-1.5z"/><path d="m72 131-3 1.5v2l3-1.5z"/><path d="m76 129-3 1.5v2l3-1.5z"/><path d="m80 127-3 1.5v2l3-1.5z"/><path d="m84 125-3 1.5v2l3-1.5z"/><path d="m88 123-3 1.5v2l3-1.5z"/><path d="m92 121-3 1.5v2l3-1.5z"/><path d="m96 119-3 1.5v2l3-1.5z"/><path d="m100 117-3 1.5v2l3-1.5z"/><path d="m104 115-3 1.5v2l3-1.5z"/><path d="m108 113-3 1.5v2l3-1.5z"/><path d="m50 139-2 1v2l2-1z"/><path d="m54 137-3 1.5v2l3-1.5z"/><path d="m58 135-3 1.5v2l3-1.5z"/><path d="m62 133-3 1.5v2l3-1.5z"/><path d="m66 131-3 1.5v2l3-1.5z"/><path d="m70 129-3 1.5v2l3-1.5z"/><path d="m74 127-3 1.5v2l3-1.5z"/><path d="m78 125-3 1.5v2l3-1.5z"/><path d="m82 123-3 1.5v2l3-1.5z"/><path d="m86 121-3 1.5v2l3-1.5z"/><path d="m90 119-3 1.5v2l3-1.5z"/><path d="m94 117-3 1.5v2l3-1.5z"/><path d="m98 115-3 1.5v2l3-1.5z"/><path d="m102 113-3 1.5v2l3-1.5z"/><path d="m106 111-3 1.5v2l3-1.5z"/><path d="m110 109-3 1.5v2l3-1.5z"/><path d="m52 135-3 1.5v2l3-1.5z"/><path d="m56 133-3 1.5v2l3-1.5z"/><path d="m60 131-3 1.5v2l3-1.5z"/><path d="m64 129-3 1.5v2l3-1.5z"/><path d="m68 127-3 1.5v2l3-1.5z"/><path d="m72 125-3 1.5v2l3-1.5z"/><path d="m76 123-3 1.5v2l3-1.5z"/><path d="m80 121-3 1.5v2l3-1.5z"/><path d="m84 119-3 1.5v2l3-1.5z"/><path d="m88 117-3 1.5v2l3-1.5z"/><path d="m92 115-3 1.5v2l3-1.5z"/><path d="m96 113-3 1.5v2l3-1.5z"/><path d="m100 111-3 1.5v2l3-1.5z"/><path d="m104 109-3 1.5v2l3-1.5z"/><path d="m108 107-3 1.5v2l3-1.5z"/><path d="m50 133-2 1v2l2-1z"/><path d="m54 131-3 1.5v2l3-1.5z"/><path d="m58 129-3 1.5v2l3-1.5z"/><path d="m62 127-3 1.5v2l3-1.5z"/><path d="m66 125-3 1.5v2l3-1.5z"/><path d="m70 123-3 1.5v2l3-1.5z"/><path d="m74 121-3 1.5v2l3-1.5z"/><path d="m78 119-3 1.5v2l3-1.5z"/><path d="m82 117-3 1.5v2l3-1.5z"/><path d="m86 115-3 1.5v2l3-1.5z"/><path d="m90 113-3 1.5v2l3-1.5z"/><path d="m94 111-3 1.5v2l3-1.5z"/><path d="m98 109-3 1.5v2l3-1.5z"/><path d="m102 107-3 1.5v2l3-1.5z"/><path d="m106 105-3 1.5v2l3-1.5z"/><path d="m110 103-3 1.5v2l3-1.5z"/><path d="m112 141-3 1.5v2l3-1.5z"/><path d="m112 138-1 .5v2l1-.5z"/><path d="m112 135-3 1.5v2l3-1.5z"/><path d="m112 132-1 .5v2l1-.5z"/><path d="m112 129-3 1.5v2l3-1.5z"/><path d="m112 126-1 .5v2l1-.5z"/><path d="m112 123-3 1.5v2l3-1.5z"/><path d="m112 120-1 .5v2l1-.5z"/><path d="m112 117-3 1.5v2l3-1.5z"/><path d="m112 114-1 .5v2l1-.5z"/><path d="m112 111-3 1.5v2l3-1.5z"/><path d="m112 108-1 .5v2l1-.5z"/><path d="m112 105-3 1.5v2l3-1.5z"/><path d="m112 102-1 .5v2l1-.5z"/></g><g fill="#f8ebcb" opacity=".2"><path d="m52 129-3 1.5v2l3-1.5z"/><path d="m56 127-3 1.5v2l3-1.5z"/><path d="m60 125-3 1.5v2l3-1.5z"/><path d="m64 123-3 1.5v2l3-1.5z"/><path d="m68 121-3 1.5v2l3-1.5z"/><path d="m72 119-3 1.5v2l3-1.5z"/><path d="m76 117-3 1.5v2l3-1.5z"/><path d="m80 115-3 1.5v2l3-1.5z"/><path d="m84 113-3 1.5v2l3-1.5z"/><path d="m88 111-3 1.5v2l3-1.5z"/><path d="m92 109-3 1.5v2l3-1.5z"/><path d="m96 107-3 1.5v2l3-1.5z"/><path d="m100 105-3 1.5v2l3-1.5z"/><path d="m104 103-3 1.5v2l3-1.5z"/><path d="m108 101-3 1.5v2l3-1.5z"/><path d="m50 127-2 1v2l2-1z"/><path d="m54 125-3 1.5v2l3-1.5z"/><path d="m58 123-3 1.5v2l3-1.5z"/><path d="m62 121-3 1.5v2l3-1.5z"/><path d="m66 119-3 1.5v2l3-1.5z"/><path d="m70 117-3 1.5v2l3-1.5z"/><path d="m74 115-3 1.5v2l3-1.5z"/><path d="m78 113-3 1.5v2l3-1.5z"/><path d="m82 111-3 1.5v2l3-1.5z"/><path d="m86 109-3 1.5v2l3-1.5z"/><path d="m90 107-3 1.5v2l3-1.5z"/><path d="m94 105-3 1.5v2l3-1.5z"/><path d="m98 103-3 1.5v2l3-1.5z"/><path d="m102 101-3 1.5v2l3-1.5z"/><path d="m106 99-3 1.5v2l3-1.5z"/><path d="m110 97-3 1.5v2l3-1.5z"/><path d="m52 123-3 1.5v2l3-1.5z"/><path d="m56 121-3 1.5v2l3-1.5z"/><path d="m60 119-3 1.5v2l3-1.5z"/><path d="m64 117-3 1.5v2l3-1.5z"/><path d="m68 115-3 1.5v2l3-1.5z"/><path d="m72 113-3 1.5v2l3-1.5z"/><path d="m76 111-3 1.5v2l3-1.5z"/><path d="m80 109-3 1.5v2l3-1.5z"/><path d="m84 107-3 1.5v2l3-1.5z"/><path d="m88 105-3 1.5v2l3-1.5z"/><path d="m92 103-3 1.5v2l3-1.5z"/><path d="m96 101-3 1.5v2l3-1.5z"/><path d="m100 99-3 1.5v2l3-1.5z"/><path d="m104 97-3 1.5v2l3-1.5z"/><path d="m108 95-3 1.5v2l3-1.5z"/><path d="m50 121-2 1v2l2-1z"/><path d="m54 119-3 1.5v2l3-1.5z"/><path d="m58 117-3 1.5v2l3-1.5z"/><path d="m62 115-3 1.5v2l3-1.5z"/><path d="m66 113-3 1.5v2l3-1.5z"/><path d="m70 111-3 1.5v2l3-1.5z"/><path d="m74 109-3 1.5v2l3-1.5z"/><path d="m78 107-3 1.5v2l3-1.5z"/><path d="m82 105-3 1.5v2l3-1.5z"/><path d="m86 103-3 1.5v2l3-1.5z"/><path d="m90 101-3 1.5v2l3-1.5z"/><path d="m94 99-3 1.5v2l3-1.5z"/><path d="m98 97-3 1.5v2l3-1.5z"/><path d="m102 95-3 1.5v2l3-1.5z"/><path d="m106 93-3 1.5v2l3-1.5z"/><path d="m110 91-3 1.5v2l3-1.5z"/><path d="m52 117-3 1.5v2l3-1.5z"/><path d="m56 115-3 1.5v2l3-1.5z"/><path d="m60 113-3 1.5v2l3-1.5z"/><path d="m64 111-3 1.5v2l3-1.5z"/><path d="m68 109-3 1.5v2l3-1.5z"/><path d="m72 107-3 1.5v2l3-1.5z"/><path d="m76 105-3 1.5v2l3-1.5z"/><path d="m80 103-3 1.5v2l3-1.5z"/><path d="m84 101-3 1.5v2l3-1.5z"/><path d="m88 99-3 1.5v2l3-1.5z"/><path d="m92 97-3 1.5v2l3-1.5z"/><path d="m96 95-3 1.5v2l3-1.5z"/><path d="m100 93-3 1.5v2l3-1.5z"/><path d="m104 91-3 1.5v2l3-1.5z"/><path d="m108 89-3 1.5v2l3-1.5z"/><path d="m50 115-2 1v2l2-1z"/><path d="m54 113-3 1.5v2l3-1.5z"/><path d="m58 111-3 1.5v2l3-1.5z"/><path d="m62 109-3 1.5v2l3-1.5z"/><path d="m66 107-3 1.5v2l3-1.5z"/><path d="m70 105-3 1.5v2l3-1.5z"/><path d="m74 103-3 1.5v2l3-1.5z"/><path d="m78 101-3 1.5v2l3-1.5z"/><path d="m82 99-3 1.5v2l3-1.5z"/><path d="m86 97-3 1.5v2l3-1.5z"/><path d="m90 95-3 1.5v2l3-1.5z"/><path d="m94 93-3 1.5v2l3-1.5z"/><path d="m98 91-3 1.5v2l3-1.5z"/><path d="m102 89-3 1.5v2l3-1.5z"/><path d="m106 87-3 1.5v2l3-1.5z"/><path d="m110 85-3 1.5v2l3-1.5z"/><path d="m52 111-3 1.5v2l3-1.5z"/><path d="m56 109-3 1.5v2l3-1.5z"/><path d="m60 107-3 1.5v2l3-1.5z"/><path d="m64 105-3 1.5v2l3-1.5z"/><path d="m68 103-3 1.5v2l3-1.5z"/><path d="m72 101-3 1.5v2l3-1.5z"/><path d="m76 99-3 1.5v2l3-1.5z"/><path d="m80 97-3 1.5v2l3-1.5z"/><path d="m84 95-3 1.5v2l3-1.5z"/><path d="m88 93-3 1.5v2l3-1.5z"/><path d="m92 91-3 1.5v2l3-1.5z"/><path d="m96 89-3 1.5v2l3-1.5z"/><path d="m100 87-3 1.5v2l3-1.5z"/><path d="m104 85-3 1.5v2l3-1.5z"/><path d="m108 83-3 1.5v2l3-1.5z"/><path d="m50 109-2 1v2l2-1z"/><path d="m54 107-3 1.5v2l3-1.5z"/><path d="m58 105-3 1.5v2l3-1.5z"/><path d="m62 103-3 1.5v2l3-1.5z"/><path d="m66 101-3 1.5v2l3-1.5z"/><path d="m70 99-3 1.5v2l3-1.5z"/><path d="m74 97-3 1.5v2l3-1.5z"/><path d="m78 95-3 1.5v2l3-1.5z"/><path d="m82 93-3 1.5v2l3-1.5z"/><path d="m86 91-3 1.5v2l3-1.5z"/><path d="m90 89-3 1.5v2l3-1.5z"/><path d="m94 87-3 1.5v2l3-1.5z"/><path d="m98 85-3 1.5v2l3-1.5z"/><path d="m102 83-3 1.5v2l3-1.5z"/><path d="m106 81-3 1.5v2l3-1.5z"/><path d="m110 79-3 1.5v2l3-1.5z"/><path d="m52 105-3 1.5v2l3-1.5z"/><path d="m56 103-3 1.5v2l3-1.5z"/><path d="m60 101-3 1.5v2l3-1.5z"/><path d="m64 99-3 1.5v2l3-1.5z"/><path d="m68 97-3 1.5v2l3-1.5z"/><path d="m72 95-3 1.5v2l3-1.5z"/><path d="m76 93-3 1.5v2l3-1.5z"/><path d="m80 91-3 1.5v2l3-1.5z"/><path d="m84 89-3 1.5v2l3-1.5z"/><path d="m88 87-3 1.5v2l3-1.5z"/><path d="m92 85-3 1.5v2l3-1.5z"/><path d="m96 83-3 1.5v2l3-1.5z"/><path d="m100 81-3 1.5v2l3-1.5z"/><path d="m104 79-3 1.5v2l3-1.5z"/><path d="m108 77-3 1.5v2l3-1.5z"/><path d="m50 103-2 1v2l2-1z"/><path d="m54 101-3 1.5v2l3-1.5z"/><path d="m58 99-3 1.5v2l3-1.5z"/><path d="m62 97-3 1.5v2l3-1.5z"/><path d="m66 95-3 1.5v2l3-1.5z"/><path d="m70 93-3 1.5v2l3-1.5z"/><path d="m74 91-3 1.5v2l3-1.5z"/><path d="m78 89-3 1.5v2l3-1.5z"/><path d="m82 87-3 1.5v2l3-1.5z"/><path d="m86 85-3 1.5v2l3-1.5z"/><path d="m90 83-3 1.5v2l3-1.5z"/><path d="m94 81-3 1.5v2l3-1.5z"/><path d="m98 79-3 1.5v2l3-1.5z"/><path d="m102 77-3 1.5v2l3-1.5z"/><path d="m106 75-3 1.5v2l3-1.5z"/><path d="m110 73-3 1.5v2l3-1.5z"/><path d="m52 99-3 1.5v2l3-1.5z"/><path d="m56 97-3 1.5v2l3-1.5z"/><path d="m60 95-3 1.5v2l3-1.5z"/><path d="m64 93-3 1.5v2l3-1.5z"/><path d="m68 91-3 1.5v2l3-1.5z"/><path d="m72 89-3 1.5v2l3-1.5z"/><path d="m76 87-3 1.5v2l3-1.5z"/><path d="m80 85-3 1.5v2l3-1.5z"/><path d="m84 83-3 1.5v2l3-1.5z"/><path d="m88 81-3 1.5v2l3-1.5z"/><path d="m92 79-3 1.5v2l3-1.5z"/><path d="m96 77-3 1.5v2l3-1.5z"/><path d="m100 75-3 1.5v2l3-1.5z"/><path d="m104 73-3 1.5v2l3-1.5z"/><path d="m108 71-3 1.5v2l3-1.5z"/><path d="m50 97-2 1v2l2-1z"/><path d="m54 95-3 1.5v2l3-1.5z"/><path d="m58 93-3 1.5v2l3-1.5z"/><path d="m62 91-3 1.5v2l3-1.5z"/><path d="m66 89-3 1.5v2l3-1.5z"/><path d="m70 87-3 1.5v2l3-1.5z"/><path d="m74 85-3 1.5v2l3-1.5z"/><path d="m78 83-3 1.5v2l3-1.5z"/><path d="m82 81-3 1.5v2l3-1.5z"/><path d="m86 79-3 1.5v2l3-1.5z"/><path d="m90 77-3 1.5v2l3-1.5z"/><path d="m94 75-3 1.5v2l3-1.5z"/><path d="m98 73-3 1.5v2l3-1.5z"/><path d="m102 71-3 1.5v2l3-1.5z"/><path d="m106 69-3 1.5v2l3-1.5z"/><path d="m110 67-3 1.5v2l3-1.5z"/><path d="m52 93-3 1.5v2l3-1.5z"/><path d="m56 91-3 1.5v2l3-1.5z"/><path d="m60 89-3 1.5v2l3-1.5z"/><path d="m64 87-3 1.5v2l3-1.5z"/><path d="m68 85-3 1.5v2l3-1.5z"/><path d="m72 83-3 1.5v2l3-1.5z"/><path d="m76 81-3 1.5v2l3-1.5z"/><path d="m80 79-3 1.5v2l3-1.5z"/><path d="m84 77-3 1.5v2l3-1.5z"/><path d="m88 75-3 1.5v2l3-1.5z"/><path d="m92 73-3 1.5v2l3-1.5z"/><path d="m96 71-3 1.5v2l3-1.5z"/><path d="m100 69-3 1.5v2l3-1.5z"/><path d="m104 67-3 1.5v2l3-1.5z"/><path d="m108 65-3 1.5v2l3-1.5z"/><path d="m54 89-3 1.5v2l3-1.5z"/><path d="m58 87-3 1.5v2l3-1.5z"/><path d="m62 85-3 1.5v2l3-1.5z"/><path d="m66 83-3 1.5v2l3-1.5z"/><path d="m70 81-3 1.5v2l3-1.5z"/><path d="m74 79-3 1.5v2l3-1.5z"/><path d="m78 77-3 1.5v2l3-1.5z"/><path d="m82 75-3 1.5v2l3-1.5z"/><path d="m86 73-3 1.5v2l3-1.5z"/><path d="m90 71-3 1.5v2l3-1.5z"/><path d="m94 69-3 1.5v2l3-1.5z"/><path d="m98 67-3 1.5v2l3-1.5z"/><path d="m102 65-3 1.5v2l3-1.5z"/><path d="m106 63-3 1.5v2l3-1.5z"/><path d="m110 61-3 1.5v2l3-1.5z"/><path d="m112 99-3 1.5v2l3-1.5z"/><path d="m112 96-1 .5v2l1-.5z"/><path d="m112 93-3 1.5v2l3-1.5z"/><path d="m112 90-1 .5v2l1-.5z"/><path d="m112 87-3 1.5v2l3-1.5z"/><path d="m112 84-1 .5v2l1-.5z"/><path d="m112 81-3 1.5v2l3-1.5z"/><path d="m112 78-1 .5v2l1-.5z"/><path d="m112 75-3 1.5v2l3-1.5z"/><path d="m112 72-1 .5v2l1-.5z"/><path d="m112 69-3 1.5v2l3-1.5z"/><path d="m112 66-1 .5v2l1-.5z"/><path d="m112 63-3 1.5v2l3-1.5z"/></g><g fill="#f8ebcb" opacity=".2"><path d="m56 85-3 1.5v2l3-1.5z"/><path d="m60 83-3 1.5v2l3-1.5z"/><path d="m64 81-3 1.5v2l3-1.5z"/><path d="m68 79-3 1.5v2l3-1.5z"/><path d="m72 77-3 1.5v2l3-1.5z"/><path d="m76 75-3 1.5v2l3-1.5z"/><path d="m80 73-3 1.5v2l3-1.5z"/><path d="m84 71-3 1.5v2l3-1.5z"/><path d="m88 69-3 1.5v2l3-1.5z"/><path d="m92 67-3 1.5v2l3-1.5z"/><path d="m96 65-3 1.5v2l3-1.5z"/><path d="m100 63-3 1.5v2l3-1.5z"/><path d="m104 61-3 1.5v2l3-1.5z"/><path d="m108 59-3 1.5v2l3-1.5z"/><path d="m58 81-3 1.5v2l3-1.5z"/><path d="m62 79-3 1.5v2l3-1.5z"/><path d="m66 77-3 1.5v2l3-1.5z"/><path d="m70 75-3 1.5v2l3-1.5z"/><path d="m74 73-3 1.5v2l3-1.5z"/><path d="m78 71-3 1.5v2l3-1.5z"/><path d="m82 69-3 1.5v2l3-1.5z"/><path d="m86 67-3 1.5v2l3-1.5z"/><path d="m90 65-3 1.5v2l3-1.5z"/><path d="m94 63-3 1.5v2l3-1.5z"/><path d="m98 61-3 1.5v2l3-1.5z"/><path d="m102 59-3 1.5v2l3-1.5z"/><path d="m106 57-3 1.5v2l3-1.5z"/><path d="m60 77-3 1.5v2l3-1.5z"/><path d="m64 75-3 1.5v2l3-1.5z"/><path d="m68 73-3 1.5v2l3-1.5z"/><path d="m72 71-3 1.5v2l3-1.5z"/><path d="m76 69-3 1.5v2l3-1.5z"/><path d="m80 67-3 1.5v2l3-1.5z"/><path d="m84 65-3 1.5v2l3-1.5z"/><path d="m88 63-3 1.5v2l3-1.5z"/><path d="m92 61-3 1.5v2l3-1.5z"/><path d="m96 59-3 1.5v2l3-1.5z"/><path d="m100 57-3 1.5v2l3-1.5z"/><path d="m104 55-3 1.5v2l3-1.5z"/><path d="m62 73-3 1.5v2l3-1.5z"/><path d="m66 71-3 1.5v2l3-1.5z"/><path d="m70 69-3 1.5v2l3-1.5z"/><path d="m74 67-3 1.5v2l3-1.5z"/><path d="m78 65-3 1.5v2l3-1.5z"/><path d="m82 63-3 1.5v2l3-1.5z"/><path d="m86 61-3 1.5v2l3-1.5z"/><path d="m90 59-3 1.5v2l3-1.5z"/><path d="m94 57-3 1.5v2l3-1.5z"/><path d="m98 55-3 1.5v2l3-1.5z"/><path d="m102 53-3 1.5v2l3-1.5z"/><path d="m64 69-3 1.5v2l3-1.5z"/><path d="m68 67-3 1.5v2l3-1.5z"/><path d="m72 65-3 1.5v2l3-1.5z"/><path d="m76 63-3 1.5v2l3-1.5z"/><path d="m80 61-3 1.5v2l3-1.5z"/><path d="m84 59-3 1.5v2l3-1.5z"/><path d="m88 57-3 1.5v2l3-1.5z"/><path d="m92 55-3 1.5v2l3-1.5z"/><path d="m96 53-3 1.5v2l3-1.5z"/><path d="m100 51-3 1.5v2l3-1.5z"/><path d="m66 65-3 1.5v2l3-1.5z"/><path d="m70 63-3 1.5v2l3-1.5z"/><path d="m74 61-3 1.5v2l3-1.5z"/><path d="m78 59-3 1.5v2l3-1.5z"/><path d="m82 57-3 1.5v2l3-1.5z"/><path d="m86 55-3 1.5v2l3-1.5z"/><path d="m90 53-3 1.5v2l3-1.5z"/><path d="m94 51-3 1.5v2l3-1.5z"/><path d="m98 49-3 1.5v2l3-1.5z"/><path d="m68 61-3 1.5v2l3-1.5z"/><path d="m72 59-3 1.5v2l3-1.5z"/><path d="m76 57-3 1.5v2l3-1.5z"/><path d="m80 55-3 1.5v2l3-1.5z"/><path d="m84 53-3 1.5v2l3-1.5z"/><path d="m88 51-3 1.5v2l3-1.5z"/><path d="m92 49-3 1.5v2l3-1.5z"/><path d="m96 47-3 1.5v2l3-1.5z"/><path d="m70 57-3 1.5v2l3-1.5z"/><path d="m74 55-3 1.5v2l3-1.5z"/><path d="m78 53-3 1.5v2l3-1.5z"/><path d="m82 51-3 1.5v2l3-1.5z"/><path d="m86 49-3 1.5v2l3-1.5z"/><path d="m90 47-3 1.5v2l3-1.5z"/><path d="m94 45-3 1.5v2l3-1.5z"/><path d="m72 53-3 1.5v2l3-1.5z"/><path d="m76 51-3 1.5v2l3-1.5z"/><path d="m80 49-3 1.5v2l3-1.5z"/><path d="m84 47-3 1.5v2l3-1.5z"/><path d="m88 45-3 1.5v2l3-1.5z"/><path d="m92 43-3 1.5v2l3-1.5z"/><path d="m74 49-3 1.5v2l3-1.5z"/><path d="m78 47-3 1.5v2l3-1.5z"/><path d="m82 45-3 1.5v2l3-1.5z"/><path d="m86 43-3 1.5v2l3-1.5z"/><path d="m90 41-3 1.5v2l3-1.5z"/><path d="m72 47-1 .5-1 2.5 2-1z"/><path d="m76 45-3 1.5v2l3-1.5z"/><path d="m80 43-3 1.5v2l3-1.5z"/><path d="m84 41-3 1.5v2l3-1.5z"/><path d="m88 39-3 1.5v2l3-1.5z"/><path d="m74 43-1 .5-1 2.5 2-1z"/><path d="m78 41-3 1.5v2l3-1.5z"/><path d="m82 39-3 1.5v2l3-1.5z"/><path d="m86 37-3 1.5v2l3-1.5z"/><path d="m76 39-1 .5-1 2.5 2-1z"/><path d="m80 37-3 1.5v2l3-1.5z"/><path d="m84 35-3 1.5v2l3-1.5z"/><path d="m78 35-1 .5-1 2.5 2-1z"/><path d="m82 33-3 1.5v2l3-1.5z"/><path d="m80 31-2 1-1 2.5 3-1.5z"/></g><path d="m112 144-64 32v-21l64-32z" fill="#f8ebcb"/><path d="m64 106-9 4.5v-13l9-4.5z" fill="#f8ebcb"/><path d="m56 98v11l3-1.5v-11z" fill="#39c"/><path d="m56 103v6l3-1.5z" fill="#fff" opacity=".2"/><path d="m60 96v11l3-1.5v-11z" fill="#39c"/><path d="m59 97.5-3 1.5v-1l3-1.5z" opacity=".15"/><path d="m63 95.5-3 1.5v-1l3-1.5z" opacity=".15"/><path d="m63 102.5-3-5.5v-1l3-1.5z" opacity=".15"/><path d="m63 98.5-7 3.5v-1l7-3.5z" fill="#f8ebcb"/><path d="m63 102.5-7 3.5v-1l7-3.5z" fill="#f8ebcb"/><path d="m64 125-9 4.5v-13l9-4.5z" fill="#f8ebcb"/><path d="m56 117v11l3-1.5v-11z" fill="#39c"/><path d="m56 122v6l3-1.5z" fill="#fff" opacity=".2"/><path d="m60 115v11l3-1.5v-11z" fill="#39c"/><path d="m59 116.5-3 1.5v-1l3-1.5z" opacity=".15"/><path d="m63 114.5-3 1.5v-1l3-1.5z" opacity=".15"/><path d="m63 121.5-3-5.5v-1l3-1.5z" opacity=".15"/><path d="m63 117.5-7 3.5v-1l7-3.5z" fill="#f8ebcb"/><path d="m63 121.5-7 3.5v-1l7-3.5z" fill="#f8ebcb"/><path d="m64 111-9 4.5v-1l9-4.5z" fill="#f8ebcb"/><path d="m64 145-9 4.5v-13l9-4.5z" fill="#f8ebcb"/><path d="m56 137v11l3-1.5v-11z" fill="#39c"/><path d="m56 142v6l3-1.5z" fill="#fff" opacity=".2"/><path d="m60 135v11l3-1.5v-11z" fill="#39c"/><path d="m59 136.5-3 1.5v-1l3-1.5z" opacity=".15"/><path d="m63 134.5-3 1.5v-1l3-1.5z" opacity=".15"/><path d="m63 141.5-3-5.5v-1l3-1.5z" opacity=".15"/><path d="m63 137.5-7 3.5v-1l7-3.5z" fill="#f8ebcb"/><path d="m63 141.5-7 3.5v-1l7-3.5z" fill="#f8ebcb"/><path d="m64 131-9 4.5v-1l4-4 1-.5h4z" fill="#f8ebcb"/><path d="m78 99-9 4.5v-13l9-4.5z" fill="#f8ebcb"/><path d="m70 91v11l3-1.5v-11z" fill="#39c"/><path d="m70 96v6l3-1.5z" fill="#fff" opacity=".2"/><path d="m74 89v11l3-1.5v-11z" fill="#39c"/><path d="m73 90.5-3 1.5v-1l3-1.5z" opacity=".15"/><path d="m77 88.5-3 1.5v-1l3-1.5z" opacity=".15"/><path d="m77 95.5-3-5.5v-1l3-1.5z" opacity=".15"/><path d="m77 91.5-7 3.5v-1l7-3.5z" fill="#f8ebcb"/><path d="m77 95.5-7 3.5v-1l7-3.5z" fill="#f8ebcb"/><path d="m78 118-9 4.5v-13l9-4.5z" fill="#f8ebcb"/><path d="m70 110v11l3-1.5v-11z" fill="#39c"/><path d="m70 115v6l3-1.5z" fill="#fff" opacity=".2"/><path d="m74 108v11l3-1.5v-11z" fill="#39c"/><path d="m73 109.5-3 1.5v-1l3-1.5z" opacity=".15"/><path d="m77 107.5-3 1.5v-1l3-1.5z" opacity=".15"/><path d="m77 114.5-3-5.5v-1l3-1.5z" opacity=".15"/><path d="m77 110.5-7 3.5v-1l7-3.5z" fill="#f8ebcb"/><path d="m77 114.5-7 3.5v-1l7-3.5z" fill="#f8ebcb"/><path d="m78 104-9 4.5v-1l9-4.5z" fill="#f8ebcb"/><path d="m78 138-9 4.5v-13l9-4.5z" fill="#f8ebcb"/><path d="m70 130v11l3-1.5v-11z" fill="#39c"/><path d="m70 135v6l3-1.5z" fill="#fff" opacity=".2"/><path d="m74 128v11l3-1.5v-11z" fill="#39c"/><path d="m73 129.5-3 1.5v-1l3-1.5z" opacity=".15"/><path d="m77 127.5-3 1.5v-1l3-1.5z" opacity=".15"/><path d="m77 134.5-3-5.5v-1l3-1.5z" opacity=".15"/><path d="m77 130.5-7 3.5v-1l7-3.5z" fill="#f8ebcb"/><path d="m77 134.5-7 3.5v-1l7-3.5z" fill="#f8ebcb"/><path d="m78 124-9 4.5v-1l4-4 1-.5h4z" fill="#f8ebcb"/><path d="m91 92.5-9 4.5v-13l9-4.5z" fill="#f8ebcb"/><path d="m83 84.5v11l3-1.5v-11z" fill="#39c"/><path d="m83 89.5v6l3-1.5z" fill="#fff" opacity=".2"/><path d="m87 82.5v11l3-1.5v-11z" fill="#39c"/><path d="m86 84-3 1.5v-1l3-1.5z" opacity=".15"/><path d="m90 82-3 1.5v-1l3-1.5z" opacity=".15"/><path d="m90 89-3-5.5v-1l3-1.5z" opacity=".15"/><path d="m90 85-7 3.5v-1l7-3.5z" fill="#f8ebcb"/><path d="m90 89-7 3.5v-1l7-3.5z" fill="#f8ebcb"/><path d="m78 81-9 4.5v-13l9-4.5z" fill="#f8ebcb"/><path d="m70 73v11l3-1.5v-11z" fill="#39c"/><path d="m70 78v6l3-1.5z" fill="#fff" opacity=".2"/><path d="m74 71v11l3-1.5v-11z" fill="#39c"/><path d="m73 72.5-3 1.5v-1l3-1.5z" opacity=".15"/><path d="m77 70.5-3 1.5v-1l3-1.5z" opacity=".15"/><path d="m77 77.5-3-5.5v-1l3-1.5z" opacity=".15"/><path d="m77 73.5-7 3.5v-1l7-3.5z" fill="#f8ebcb"/><path d="m77 77.5-7 3.5v-1l7-3.5z" fill="#f8ebcb"/><path d="m91 74.5-9 4.5v-13l9-4.5z" fill="#f8ebcb"/><path d="m83 66.5v11l3-1.5v-11z" fill="#39c"/><path d="m83 71.5v6l3-1.5z" fill="#fff" opacity=".2"/><path d="m87 64.5v11l3-1.5v-11z" fill="#39c"/><path d="m86 66-3 1.5v-1l3-1.5z" opacity=".15"/><path d="m90 64-3 1.5v-1l3-1.5z" opacity=".15"/><path d="m90 71-3-5.5v-1l3-1.5z" opacity=".15"/><path d="m90 67-7 3.5v-1l7-3.5z" fill="#f8ebcb"/><path d="m90 71-7 3.5v-1l7-3.5z" fill="#f8ebcb"/><path d="m91 111.5-9 4.5v-13l9-4.5z" fill="#f8ebcb"/><path d="m83 103.5v11l3-1.5v-11z" fill="#39c"/><path d="m83 108.5v6l3-1.5z" fill="#fff" opacity=".2"/><path d="m87 101.5v11l3-1.5v-11z" fill="#39c"/><path d="m86 103-3 1.5v-1l3-1.5z" opacity=".15"/><path d="m90 101-3 1.5v-1l3-1.5z" opacity=".15"/><path d="m90 108-3-5.5v-1l3-1.5z" opacity=".15"/><path d="m90 104-7 3.5v-1l7-3.5z" fill="#f8ebcb"/><path d="m90 108-7 3.5v-1l7-3.5z" fill="#f8ebcb"/><path d="m91 97.5-9 4.5v-1l9-4.5z" fill="#f8ebcb"/><path d="m91 131.5-9 4.5v-13l9-4.5z" fill="#f8ebcb"/><path d="m83 123.5v11l3-1.5v-11z" fill="#39c"/><path d="m83 128.5v6l3-1.5z" fill="#fff" opacity=".2"/><path d="m87 121.5v11l3-1.5v-11z" fill="#39c"/><path d="m86 123-3 1.5v-1l3-1.5z" opacity=".15"/><path d="m90 121-3 1.5v-1l3-1.5z" opacity=".15"/><path d="m90 128-3-5.5v-1l3-1.5z" opacity=".15"/><path d="m90 124-7 3.5v-1l7-3.5z" fill="#f8ebcb"/><path d="m90 128-7 3.5v-1l7-3.5z" fill="#f8ebcb"/><path d="m91 117.5-9 4.5v-1l4-4 1-.5h4z" fill="#f8ebcb"/><path d="m105 85.5-9 4.5v-13l9-4.5z" fill="#f8ebcb"/><path d="m97 77.5v11l3-1.5v-11z" fill="#39c"/><path d="m97 82.5v6l3-1.5z" fill="#fff" opacity=".2"/><path d="m101 75.5v11l3-1.5v-11z" fill="#39c"/><path d="m100 77-3 1.5v-1l3-1.5z" opacity=".15"/><path d="m104 75-3 1.5v-1l3-1.5z" opacity=".15"/><path d="m104 82-3-5.5v-1l3-1.5z" opacity=".15"/><path d="m104 78-7 3.5v-1l7-3.5z" fill="#f8ebcb"/><path d="m104 82-7 3.5v-1l7-3.5z" fill="#f8ebcb"/><path d="m105 104.5-9 4.5v-13l9-4.5z" fill="#f8ebcb"/><path d="m97 96.5v11l3-1.5v-11z" fill="#39c"/><path d="m97 101.5v6l3-1.5z" fill="#fff" opacity=".2"/><path d="m101 94.5v11l3-1.5v-11z" fill="#39c"/><path d="m100 96-3 1.5v-1l3-1.5z" opacity=".15"/><path d="m104 94-3 1.5v-1l3-1.5z" opacity=".15"/><path d="m104 101-3-5.5v-1l3-1.5z" opacity=".15"/><path d="m104 97-7 3.5v-1l7-3.5z" fill="#f8ebcb"/><path d="m104 101-7 3.5v-1l7-3.5z" fill="#f8ebcb"/><path d="m105 90.5-9 4.5v-1l9-4.5z" fill="#f8ebcb"/><path d="m105 124.5-9 4.5v-13l9-4.5z" fill="#f8ebcb"/><path d="m97 116.5v11l3-1.5v-11z" fill="#39c"/><path d="m97 121.5v6l3-1.5z" fill="#fff" opacity=".2"/><path d="m101 114.5v11l3-1.5v-11z" fill="#39c"/><path d="m100 116-3 1.5v-1l3-1.5z" opacity=".15"/><path d="m104 114-3 1.5v-1l3-1.5z" opacity=".15"/><path d="m104 121-3-5.5v-1l3-1.5z" opacity=".15"/><path d="m104 117-7 3.5v-1l7-3.5z" fill="#f8ebcb"/><path d="m104 121-7 3.5v-1l7-3.5z" fill="#f8ebcb"/><path d="m105 110.5-9 4.5v-1l4-4 1-.5h4z" fill="#f8ebcb"/><path d="m80 27v.1-.1l-48-24-32 69 48 24h1l31-67 31 35h1z" fill="#2d3134"/><path d="m112 144-64 32v-80l32-69 32 37z" opacity=".39"/><path d="m80 27-48-24-32 69 48 24z" opacity=".06"/><path d="m31.1 5 48 24 .9-2-48-24z" fill="#fff" opacity=".2"/><path d="m34.6 64 22.5-11-8.8 18.7-8.2 4.2z" opacity=".39"/><path d="m29 84.1 11 5.5v-13.7l-5.5-11.9-5.5 6.4z" fill="#f8ebcb"/><path d="m39 88-9-4.5v-13l9 4.5z" fill="#825012"/><path d="m31 72v11l3 1.5v-11z" fill="#39c"/><path d="m31 77v6l3 1.5z" fill="#fff" opacity=".2"/><path d="m35 74v11l3 1.5v-11z" fill="#39c"/><path d="m34 74.5-3-1.5v-1l3 1.5z" opacity=".15"/><path d="m38 76.5-3-1.5v-1l3 1.5z" opacity=".15"/><path d="m38 83.5-3-8.5v-1l3 1.5z" opacity=".15"/><path d="m38 79.5-7-3.5v-1l7 3.5z" fill="#825012"/><path d="m38 83.5-7-3.5v-1l7 3.5z" fill="#825012"/><path d="m40 89.6.2-.2 8.2-17.7-8.4 4.2z" fill="#f8ebcb"/><path d="m40 89.6.2-.2 8.2-17.7-8.4 4.2z" opacity=".39"/><path d="m29 84.1 11 5.5v-13.7l-5.5-11.9-5.5 6.4z" opacity=".06"/><path d="m14.6 54 22.5-11-8.8 18.7-8.2 4.2z" opacity=".39"/><path d="m9 74.1 11 5.5v-13.7l-5.5-11.9-5.5 6.4z" fill="#f8ebcb"/><path d="m19 78-9-4.5v-13l9 4.5z" fill="#825012"/><path d="m11 62v11l3 1.5v-11z" fill="#39c"/><path d="m11 67v6l3 1.5z" fill="#fff" opacity=".2"/><path d="m15 64v11l3 1.5v-11z" fill="#39c"/><path d="m14 64.5-3-1.5v-1l3 1.5z" opacity=".15"/><path d="m18 66.5-3-1.5v-1l3 1.5z" opacity=".15"/><path d="m18 73.5-3-8.5v-1l3 1.5z" opacity=".15"/><path d="m18 69.5-7-3.5v-1l7 3.5z" fill="#825012"/><path d="m18 73.5-7-3.5v-1l7 3.5z" fill="#825012"/><path d="m20 79.6.2-.2 8.2-17.7-8.4 4.2z" fill="#f8ebcb"/><path d="m20 79.6.2-.2 8.2-17.7-8.4 4.2z" opacity=".39"/><path d="m9 74.1 11 5.5v-13.7l-5.5-11.9-5.5 6.4z" opacity=".06"/></svg>