<svg enable-background="new 0 0 224 160" viewBox="0 0 224 160" xmlns="http://www.w3.org/2000/svg"><path d="m128 80 32 16v-41l-32-16z" fill="#762c07"/><g fill="#d8d8d8" opacity=".2"><path d="m132 79-3-1.5v2l3 1.5z"/><path d="m136 81-3-1.5v2l3 1.5z"/><path d="m140 83-3-1.5v2l3 1.5z"/><path d="m144 85-3-1.5v2l3 1.5z"/><path d="m148 87-3-1.5v2l3 1.5z"/><path d="m152 89-3-1.5v2l3 1.5z"/><path d="m156 91-3-1.5v2l3 1.5z"/><path d="m160 93-3-1.5v2l3 1.5z"/><path d="m130 75-2-1v2l2 1z"/><path d="m134 77-3-1.5v2l3 1.5z"/><path d="m138 79-3-1.5v2l3 1.5z"/><path d="m142 81-3-1.5v2l3 1.5z"/><path d="m146 83-3-1.5v2l3 1.5z"/><path d="m150 85-3-1.5v2l3 1.5z"/><path d="m154 87-3-1.5v2l3 1.5z"/><path d="m158 89-3-1.5v2l3 1.5z"/><path d="m132 73-3-1.5v2l3 1.5z"/><path d="m136 75-3-1.5v2l3 1.5z"/><path d="m140 77-3-1.5v2l3 1.5z"/><path d="m144 79-3-1.5v2l3 1.5z"/><path d="m148 81-3-1.5v2l3 1.5z"/><path d="m152 83-3-1.5v2l3 1.5z"/><path d="m156 85-3-1.5v2l3 1.5z"/><path d="m160 87-3-1.5v2l3 1.5z"/><path d="m130 69-2-1v2l2 1z"/><path d="m134 71-3-1.5v2l3 1.5z"/><path d="m138 73-3-1.5v2l3 1.5z"/><path d="m142 75-3-1.5v2l3 1.5z"/><path d="m146 77-3-1.5v2l3 1.5z"/><path d="m150 79-3-1.5v2l3 1.5z"/><path d="m154 81-3-1.5v2l3 1.5z"/><path d="m158 83-3-1.5v2l3 1.5z"/><path d="m132 67-3-1.5v2l3 1.5z"/><path d="m136 69-3-1.5v2l3 1.5z"/><path d="m140 71-3-1.5v2l3 1.5z"/><path d="m144 73-3-1.5v2l3 1.5z"/><path d="m148 75-3-1.5v2l3 1.5z"/><path d="m152 77-3-1.5v2l3 1.5z"/><path d="m156 79-3-1.5v2l3 1.5z"/><path d="m160 81-3-1.5v2l3 1.5z"/><path d="m130 63-2-1v2l2 1z"/><path d="m134 65-3-1.5v2l3 1.5z"/><path d="m138 67-3-1.5v2l3 1.5z"/><path d="m142 69-3-1.5v2l3 1.5z"/><path d="m146 71-3-1.5v2l3 1.5z"/><path d="m150 73-3-1.5v2l3 1.5z"/><path d="m154 75-3-1.5v2l3 1.5z"/><path d="m158 77-3-1.5v2l3 1.5z"/><path d="m132 61-3-1.5v2l3 1.5z"/><path d="m136 63-3-1.5v2l3 1.5z"/><path d="m140 65-3-1.5v2l3 1.5z"/><path d="m144 67-3-1.5v2l3 1.5z"/><path d="m148 69-3-1.5v2l3 1.5z"/><path d="m152 71-3-1.5v2l3 1.5z"/><path d="m156 73-3-1.5v2l3 1.5z"/><path d="m160 75-3-1.5v2l3 1.5z"/><path d="m130 57-2-1v2l2 1z"/><path d="m134 59-3-1.5v2l3 1.5z"/><path d="m138 61-3-1.5v2l3 1.5z"/><path d="m142 63-3-1.5v2l3 1.5z"/><path d="m146 65-3-1.5v2l3 1.5z"/><path d="m150 67-3-1.5v2l3 1.5z"/><path d="m154 69-3-1.5v2l3 1.5z"/><path d="m158 71-3-1.5v2l3 1.5z"/><path d="m132 55-3-1.5v2l3 1.5z"/><path d="m136 57-3-1.5v2l3 1.5z"/><path d="m140 59-3-1.5v2l3 1.5z"/><path d="m144 61-3-1.5v2l3 1.5z"/><path d="m148 63-3-1.5v2l3 1.5z"/><path d="m152 65-3-1.5v2l3 1.5z"/><path d="m156 67-3-1.5v2l3 1.5z"/><path d="m160 69-3-1.5v2l3 1.5z"/><path d="m130 51-2-1v2l2 1z"/><path d="m134 53-3-1.5v2l3 1.5z"/><path d="m138 55-3-1.5v2l3 1.5z"/><path d="m142 57-3-1.5v2l3 1.5z"/><path d="m146 59-3-1.5v2l3 1.5z"/><path d="m150 61-3-1.5v2l3 1.5z"/><path d="m154 63-3-1.5v2l3 1.5z"/><path d="m158 65-3-1.5v2l3 1.5z"/><path d="m132 49-3-1.5v2l3 1.5z"/><path d="m136 51-3-1.5v2l3 1.5z"/><path d="m140 53-3-1.5v2l3 1.5z"/><path d="m144 55-3-1.5v2l3 1.5z"/><path d="m148 57-3-1.5v2l3 1.5z"/><path d="m152 59-3-1.5v2l3 1.5z"/><path d="m156 61-3-1.5v2l3 1.5z"/><path d="m160 63-3-1.5v2l3 1.5z"/><path d="m130 45-2-1v2l2 1z"/><path d="m134 47-3-1.5v2l3 1.5z"/><path d="m138 49-3-1.5v2l3 1.5z"/><path d="m142 51-3-1.5v2l3 1.5z"/><path d="m146 53-3-1.5v2l3 1.5z"/><path d="m150 55-3-1.5v2l3 1.5z"/><path d="m154 57-3-1.5v2l3 1.5z"/><path d="m158 59-3-1.5v2l3 1.5z"/><path d="m132 43-3-1.5v2l3 1.5z"/><path d="m136 45-3-1.5v2l3 1.5z"/><path d="m140 47-3-1.5v2l3 1.5z"/><path d="m144 49-3-1.5v2l3 1.5z"/><path d="m148 51-3-1.5v2l3 1.5z"/><path d="m152 53-3-1.5v2l3 1.5z"/><path d="m156 55-3-1.5v2l3 1.5z"/><path d="m160 57-3-1.5v2l3 1.5z"/><path d="m130 39-2-1v2l2 1z"/><path d="m134 41-3-1.5v2l3 1.5z"/><path d="m138 43-3-1.5v2l3 1.5z"/><path d="m142 45-3-1.5v2l3 1.5z"/><path d="m146 47-3-1.5v2l3 1.5z"/><path d="m150 49-3-1.5v2l3 1.5z"/><path d="m154 51-3-1.5v2l3 1.5z"/><path d="m158 53-3-1.5v2l3 1.5z"/><path d="m160 60-1-.5v2l1 .5z"/><path d="m160 66-1-.5v2l1 .5z"/><path d="m160 72-1-.5v2l1 .5z"/><path d="m160 78-1-.5v2l1 .5z"/><path d="m160 84-1-.5v2l1 .5z"/><path d="m160 90-1-.5v2l1 .5z"/></g><path d="m148 65-9-4.5v-11l9 4.5z" fill="#d8d8d8"/><path d="m140 51v9l3 1.5v-9z" fill="#39c"/><path d="m140 53v7l3 1.5z" fill="#fff" opacity=".2"/><path d="m144 53v9l3 1.5v-9z" fill="#39c"/><path d="m143 53.5-3-1.5v-1l3 1.5z" opacity=".15"/><path d="m147 55.5-3-1.5v-1l3 1.5z" opacity=".15"/><path d="m32 75 32 16v-20l-32-16z" fill="#762c07"/><g fill="#d8d8d8" opacity=".2"><path d="m34 73-2-1v2l2 1z"/><path d="m38 75-3-1.5v2l3 1.5z"/><path d="m42 77-3-1.5v2l3 1.5z"/><path d="m46 79-3-1.5v2l3 1.5z"/><path d="m50 81-3-1.5v2l3 1.5z"/><path d="m54 83-3-1.5v2l3 1.5z"/><path d="m58 85-3-1.5v2l3 1.5z"/><path d="m62 87-3-1.5v2l3 1.5z"/><path d="m36 71-3-1.5v2l3 1.5z"/><path d="m40 73-3-1.5v2l3 1.5z"/><path d="m44 75-3-1.5v2l3 1.5z"/><path d="m48 77-3-1.5v2l3 1.5z"/><path d="m52 79-3-1.5v2l3 1.5z"/><path d="m56 81-3-1.5v2l3 1.5z"/><path d="m60 83-3-1.5v2l3 1.5z"/><path d="m64 85-3-1.5v2l3 1.5z"/><path d="m34 67-2-1v2l2 1z"/><path d="m38 69-3-1.5v2l3 1.5z"/><path d="m42 71-3-1.5v2l3 1.5z"/><path d="m46 73-3-1.5v2l3 1.5z"/><path d="m50 75-3-1.5v2l3 1.5z"/><path d="m54 77-3-1.5v2l3 1.5z"/><path d="m58 79-3-1.5v2l3 1.5z"/><path d="m62 81-3-1.5v2l3 1.5z"/><path d="m36 65-3-1.5v2l3 1.5z"/><path d="m40 67-3-1.5v2l3 1.5z"/><path d="m44 69-3-1.5v2l3 1.5z"/><path d="m48 71-3-1.5v2l3 1.5z"/><path d="m52 73-3-1.5v2l3 1.5z"/><path d="m56 75-3-1.5v2l3 1.5z"/><path d="m60 77-3-1.5v2l3 1.5z"/><path d="m64 79-3-1.5v2l3 1.5z"/><path d="m34 61-2-1v2l2 1z"/><path d="m38 63-3-1.5v2l3 1.5z"/><path d="m42 65-3-1.5v2l3 1.5z"/><path d="m46 67-3-1.5v2l3 1.5z"/><path d="m50 69-3-1.5v2l3 1.5z"/><path d="m54 71-3-1.5v2l3 1.5z"/><path d="m58 73-3-1.5v2l3 1.5z"/><path d="m62 75-3-1.5v2l3 1.5z"/><path d="m36 59-3-1.5v2l3 1.5z"/><path d="m40 61-3-1.5v2l3 1.5z"/><path d="m44 63-3-1.5v2l3 1.5z"/><path d="m48 65-3-1.5v2l3 1.5z"/><path d="m52 67-3-1.5v2l3 1.5z"/><path d="m56 69-3-1.5v2l3 1.5z"/><path d="m60 71-3-1.5v2l3 1.5z"/><path d="m64 73-3-1.5v2l3 1.5z"/><path d="m34 55-2-1v2l2 1z"/><path d="m38 57-3-1.5v2l3 1.5z"/><path d="m42 59-3-1.5v2l3 1.5z"/><path d="m46 61-3-1.5v2l3 1.5z"/><path d="m50 63-3-1.5v2l3 1.5z"/><path d="m54 65-3-1.5v2l3 1.5z"/><path d="m58 67-3-1.5v2l3 1.5z"/><path d="m62 69-3-1.5v2l3 1.5z"/><path d="m64 76-1-.5v2l1 .5z"/><path d="m64 82-1-.5v2l1 .5z"/><path d="m64 88-1-.5v2l1 .5z"/></g><path d="m128 144 93-46.5v-41l-93 46.5z" fill="#762c07"/><g fill="#d8d8d8" opacity=".2"><path d="m132 139-3 1.5v2l3-1.5z"/><path d="m136 137-3 1.5v2l3-1.5z"/><path d="m140 135-3 1.5v2l3-1.5z"/><path d="m144 133-3 1.5v2l3-1.5z"/><path d="m148 131-3 1.5v2l3-1.5z"/><path d="m152 129-3 1.5v2l3-1.5z"/><path d="m156 127-3 1.5v2l3-1.5z"/><path d="m160 125-3 1.5v2l3-1.5z"/><path d="m164 123-3 1.5v2l3-1.5z"/><path d="m168 121-3 1.5v2l3-1.5z"/><path d="m172 119-3 1.5v2l3-1.5z"/><path d="m176 117-3 1.5v2l3-1.5z"/><path d="m180 115-3 1.5v2l3-1.5z"/><path d="m184 113-3 1.5v2l3-1.5z"/><path d="m188 111-3 1.5v2l3-1.5z"/><path d="m130 137-2 1v2l2-1z"/><path d="m134 135-3 1.5v2l3-1.5z"/><path d="m138 133-3 1.5v2l3-1.5z"/><path d="m142 131-3 1.5v2l3-1.5z"/><path d="m146 129-3 1.5v2l3-1.5z"/><path d="m150 127-3 1.5v2l3-1.5z"/><path d="m154 125-3 1.5v2l3-1.5z"/><path d="m158 123-3 1.5v2l3-1.5z"/><path d="m162 121-3 1.5v2l3-1.5z"/><path d="m166 119-3 1.5v2l3-1.5z"/><path d="m170 117-3 1.5v2l3-1.5z"/><path d="m174 115-3 1.5v2l3-1.5z"/><path d="m178 113-3 1.5v2l3-1.5z"/><path d="m182 111-3 1.5v2l3-1.5z"/><path d="m186 109-3 1.5v2l3-1.5z"/><path d="m190 107-3 1.5v2l3-1.5z"/><path d="m132 133-3 1.5v2l3-1.5z"/><path d="m136 131-3 1.5v2l3-1.5z"/><path d="m140 129-3 1.5v2l3-1.5z"/><path d="m144 127-3 1.5v2l3-1.5z"/><path d="m148 125-3 1.5v2l3-1.5z"/><path d="m152 123-3 1.5v2l3-1.5z"/><path d="m156 121-3 1.5v2l3-1.5z"/><path d="m160 119-3 1.5v2l3-1.5z"/><path d="m164 117-3 1.5v2l3-1.5z"/><path d="m168 115-3 1.5v2l3-1.5z"/><path d="m172 113-3 1.5v2l3-1.5z"/><path d="m176 111-3 1.5v2l3-1.5z"/><path d="m180 109-3 1.5v2l3-1.5z"/><path d="m184 107-3 1.5v2l3-1.5z"/><path d="m188 105-3 1.5v2l3-1.5z"/><path d="m130 131-2 1v2l2-1z"/><path d="m134 129-3 1.5v2l3-1.5z"/><path d="m138 127-3 1.5v2l3-1.5z"/><path d="m142 125-3 1.5v2l3-1.5z"/><path d="m146 123-3 1.5v2l3-1.5z"/><path d="m150 121-3 1.5v2l3-1.5z"/><path d="m154 119-3 1.5v2l3-1.5z"/><path d="m158 117-3 1.5v2l3-1.5z"/><path d="m162 115-3 1.5v2l3-1.5z"/><path d="m166 113-3 1.5v2l3-1.5z"/><path d="m170 111-3 1.5v2l3-1.5z"/><path d="m174 109-3 1.5v2l3-1.5z"/><path d="m178 107-3 1.5v2l3-1.5z"/><path d="m182 105-3 1.5v2l3-1.5z"/><path d="m186 103-3 1.5v2l3-1.5z"/><path d="m190 101-3 1.5v2l3-1.5z"/><path d="m132 127-3 1.5v2l3-1.5z"/><path d="m136 125-3 1.5v2l3-1.5z"/><path d="m140 123-3 1.5v2l3-1.5z"/><path d="m144 121-3 1.5v2l3-1.5z"/><path d="m148 119-3 1.5v2l3-1.5z"/><path d="m152 117-3 1.5v2l3-1.5z"/><path d="m156 115-3 1.5v2l3-1.5z"/><path d="m160 113-3 1.5v2l3-1.5z"/><path d="m164 111-3 1.5v2l3-1.5z"/><path d="m168 109-3 1.5v2l3-1.5z"/><path d="m172 107-3 1.5v2l3-1.5z"/><path d="m176 105-3 1.5v2l3-1.5z"/><path d="m180 103-3 1.5v2l3-1.5z"/><path d="m184 101-3 1.5v2l3-1.5z"/><path d="m188 99-3 1.5v2l3-1.5z"/><path d="m130 125-2 1v2l2-1z"/><path d="m134 123-3 1.5v2l3-1.5z"/><path d="m138 121-3 1.5v2l3-1.5z"/><path d="m142 119-3 1.5v2l3-1.5z"/><path d="m146 117-3 1.5v2l3-1.5z"/><path d="m150 115-3 1.5v2l3-1.5z"/><path d="m154 113-3 1.5v2l3-1.5z"/><path d="m158 111-3 1.5v2l3-1.5z"/><path d="m162 109-3 1.5v2l3-1.5z"/><path d="m166 107-3 1.5v2l3-1.5z"/><path d="m170 105-3 1.5v2l3-1.5z"/><path d="m174 103-3 1.5v2l3-1.5z"/><path d="m178 101-3 1.5v2l3-1.5z"/><path d="m182 99-3 1.5v2l3-1.5z"/><path d="m186 97-3 1.5v2l3-1.5z"/><path d="m190 95-3 1.5v2l3-1.5z"/><path d="m132 121-3 1.5v2l3-1.5z"/><path d="m136 119-3 1.5v2l3-1.5z"/><path d="m140 117-3 1.5v2l3-1.5z"/><path d="m144 115-3 1.5v2l3-1.5z"/><path d="m148 113-3 1.5v2l3-1.5z"/><path d="m152 111-3 1.5v2l3-1.5z"/><path d="m156 109-3 1.5v2l3-1.5z"/><path d="m160 107-3 1.5v2l3-1.5z"/><path d="m164 105-3 1.5v2l3-1.5z"/><path d="m168 103-3 1.5v2l3-1.5z"/><path d="m172 101-3 1.5v2l3-1.5z"/><path d="m176 99-3 1.5v2l3-1.5z"/><path d="m180 97-3 1.5v2l3-1.5z"/><path d="m184 95-3 1.5v2l3-1.5z"/><path d="m188 93-3 1.5v2l3-1.5z"/><path d="m130 119-2 1v2l2-1z"/><path d="m134 117-3 1.5v2l3-1.5z"/><path d="m138 115-3 1.5v2l3-1.5z"/><path d="m142 113-3 1.5v2l3-1.5z"/><path d="m146 111-3 1.5v2l3-1.5z"/><path d="m150 109-3 1.5v2l3-1.5z"/><path d="m154 107-3 1.5v2l3-1.5z"/><path d="m158 105-3 1.5v2l3-1.5z"/><path d="m162 103-3 1.5v2l3-1.5z"/><path d="m166 101-3 1.5v2l3-1.5z"/><path d="m170 99-3 1.5v2l3-1.5z"/><path d="m174 97-3 1.5v2l3-1.5z"/><path d="m178 95-3 1.5v2l3-1.5z"/><path d="m182 93-3 1.5v2l3-1.5z"/><path d="m186 91-3 1.5v2l3-1.5z"/><path d="m190 89-3 1.5v2l3-1.5z"/><path d="m132 115-3 1.5v2l3-1.5z"/><path d="m136 113-3 1.5v2l3-1.5z"/><path d="m140 111-3 1.5v2l3-1.5z"/><path d="m144 109-3 1.5v2l3-1.5z"/><path d="m148 107-3 1.5v2l3-1.5z"/><path d="m152 105-3 1.5v2l3-1.5z"/><path d="m156 103-3 1.5v2l3-1.5z"/><path d="m160 101-3 1.5v2l3-1.5z"/><path d="m164 99-3 1.5v2l3-1.5z"/><path d="m168 97-3 1.5v2l3-1.5z"/><path d="m172 95-3 1.5v2l3-1.5z"/><path d="m176 93-3 1.5v2l3-1.5z"/><path d="m180 91-3 1.5v2l3-1.5z"/><path d="m184 89-3 1.5v2l3-1.5z"/><path d="m188 87-3 1.5v2l3-1.5z"/><path d="m130 113-2 1v2l2-1z"/><path d="m134 111-3 1.5v2l3-1.5z"/><path d="m138 109-3 1.5v2l3-1.5z"/><path d="m142 107-3 1.5v2l3-1.5z"/><path d="m146 105-3 1.5v2l3-1.5z"/><path d="m150 103-3 1.5v2l3-1.5z"/><path d="m154 101-3 1.5v2l3-1.5z"/><path d="m158 99-3 1.5v2l3-1.5z"/><path d="m162 97-3 1.5v2l3-1.5z"/><path d="m166 95-3 1.5v2l3-1.5z"/><path d="m170 93-3 1.5v2l3-1.5z"/><path d="m174 91-3 1.5v2l3-1.5z"/><path d="m178 89-3 1.5v2l3-1.5z"/><path d="m182 87-3 1.5v2l3-1.5z"/><path d="m186 85-3 1.5v2l3-1.5z"/><path d="m190 83-3 1.5v2l3-1.5z"/><path d="m132 109-3 1.5v2l3-1.5z"/><path d="m136 107-3 1.5v2l3-1.5z"/><path d="m140 105-3 1.5v2l3-1.5z"/><path d="m144 103-3 1.5v2l3-1.5z"/><path d="m148 101-3 1.5v2l3-1.5z"/><path d="m152 99-3 1.5v2l3-1.5z"/><path d="m156 97-3 1.5v2l3-1.5z"/><path d="m160 95-3 1.5v2l3-1.5z"/><path d="m164 93-3 1.5v2l3-1.5z"/><path d="m168 91-3 1.5v2l3-1.5z"/><path d="m172 89-3 1.5v2l3-1.5z"/><path d="m176 87-3 1.5v2l3-1.5z"/><path d="m180 85-3 1.5v2l3-1.5z"/><path d="m184 83-3 1.5v2l3-1.5z"/><path d="m188 81-3 1.5v2l3-1.5z"/><path d="m130 107-2 1v2l2-1z"/><path d="m134 105-3 1.5v2l3-1.5z"/><path d="m138 103-3 1.5v2l3-1.5z"/><path d="m142 101-3 1.5v2l3-1.5z"/><path d="m146 99-3 1.5v2l3-1.5z"/><path d="m150 97-3 1.5v2l3-1.5z"/><path d="m154 95-3 1.5v2l3-1.5z"/><path d="m158 93-3 1.5v2l3-1.5z"/><path d="m162 91-3 1.5v2l3-1.5z"/><path d="m166 89-3 1.5v2l3-1.5z"/><path d="m170 87-3 1.5v2l3-1.5z"/><path d="m174 85-3 1.5v2l3-1.5z"/><path d="m178 83-3 1.5v2l3-1.5z"/><path d="m182 81-3 1.5v2l3-1.5z"/><path d="m186 79-3 1.5v2l3-1.5z"/><path d="m190 77-3 1.5v2l3-1.5z"/><path d="m132 103-3 1.5v2l3-1.5z"/><path d="m136 101-3 1.5v2l3-1.5z"/><path d="m140 99-3 1.5v2l3-1.5z"/><path d="m144 97-3 1.5v2l3-1.5z"/><path d="m148 95-3 1.5v2l3-1.5z"/><path d="m152 93-3 1.5v2l3-1.5z"/><path d="m156 91-3 1.5v2l3-1.5z"/><path d="m160 89-3 1.5v2l3-1.5z"/><path d="m164 87-3 1.5v2l3-1.5z"/><path d="m168 85-3 1.5v2l3-1.5z"/><path d="m172 83-3 1.5v2l3-1.5z"/><path d="m176 81-3 1.5v2l3-1.5z"/><path d="m180 79-3 1.5v2l3-1.5z"/><path d="m184 77-3 1.5v2l3-1.5z"/><path d="m188 75-3 1.5v2l3-1.5z"/><path d="m130 101-2 1v2l2-1z"/><path d="m134 99-3 1.5v2l3-1.5z"/><path d="m138 97-3 1.5v2l3-1.5z"/><path d="m142 95-3 1.5v2l3-1.5z"/><path d="m146 93-3 1.5v2l3-1.5z"/><path d="m150 91-3 1.5v2l3-1.5z"/><path d="m154 89-3 1.5v2l3-1.5z"/><path d="m158 87-3 1.5v2l3-1.5z"/><path d="m162 85-3 1.5v2l3-1.5z"/><path d="m166 83-3 1.5v2l3-1.5z"/><path d="m170 81-3 1.5v2l3-1.5z"/><path d="m174 79-3 1.5v2l3-1.5z"/><path d="m178 77-3 1.5v2l3-1.5z"/><path d="m182 75-3 1.5v2l3-1.5z"/><path d="m186 73-3 1.5v2l3-1.5z"/><path d="m190 71-3 1.5v2l3-1.5z"/><path d="m192 109-3 1.5v2l3-1.5z"/><path d="m196 107-3 1.5v2l3-1.5z"/><path d="m200 105-3 1.5v2l3-1.5z"/><path d="m204 103-3 1.5v2l3-1.5z"/><path d="m208 101-3 1.5v2l3-1.5z"/><path d="m212 99-3 1.5v2l3-1.5z"/><path d="m216 97-3 1.5v2l3-1.5z"/><path d="m220 95-3 1.5v2l3-1.5z"/><path d="m194 105-3 1.5v2l3-1.5z"/><path d="m198 103-3 1.5v2l3-1.5z"/><path d="m202 101-3 1.5v2l3-1.5z"/><path d="m206 99-3 1.5v2l3-1.5z"/><path d="m210 97-3 1.5v2l3-1.5z"/><path d="m214 95-3 1.5v2l3-1.5z"/><path d="m218 93-3 1.5v2l3-1.5z"/><path d="m222 91-3 1.5v2l3-1.5z"/><path d="m192 103-3 1.5v2l3-1.5z"/><path d="m196 101-3 1.5v2l3-1.5z"/><path d="m200 99-3 1.5v2l3-1.5z"/><path d="m204 97-3 1.5v2l3-1.5z"/><path d="m208 95-3 1.5v2l3-1.5z"/><path d="m212 93-3 1.5v2l3-1.5z"/><path d="m216 91-3 1.5v2l3-1.5z"/><path d="m220 89-3 1.5v2l3-1.5z"/><path d="m194 99-3 1.5v2l3-1.5z"/><path d="m198 97-3 1.5v2l3-1.5z"/><path d="m202 95-3 1.5v2l3-1.5z"/><path d="m206 93-3 1.5v2l3-1.5z"/><path d="m210 91-3 1.5v2l3-1.5z"/><path d="m214 89-3 1.5v2l3-1.5z"/><path d="m218 87-3 1.5v2l3-1.5z"/><path d="m222 85-3 1.5v2l3-1.5z"/><path d="m192 97-3 1.5v2l3-1.5z"/><path d="m196 95-3 1.5v2l3-1.5z"/><path d="m200 93-3 1.5v2l3-1.5z"/><path d="m204 91-3 1.5v2l3-1.5z"/><path d="m208 89-3 1.5v2l3-1.5z"/><path d="m212 87-3 1.5v2l3-1.5z"/><path d="m216 85-3 1.5v2l3-1.5z"/><path d="m220 83-3 1.5v2l3-1.5z"/><path d="m194 93-3 1.5v2l3-1.5z"/><path d="m198 91-3 1.5v2l3-1.5z"/><path d="m202 89-3 1.5v2l3-1.5z"/><path d="m206 87-3 1.5v2l3-1.5z"/><path d="m210 85-3 1.5v2l3-1.5z"/><path d="m214 83-3 1.5v2l3-1.5z"/><path d="m218 81-3 1.5v2l3-1.5z"/><path d="m222 79-3 1.5v2l3-1.5z"/><path d="m192 91-3 1.5v2l3-1.5z"/><path d="m196 89-3 1.5v2l3-1.5z"/><path d="m200 87-3 1.5v2l3-1.5z"/><path d="m204 85-3 1.5v2l3-1.5z"/><path d="m208 83-3 1.5v2l3-1.5z"/><path d="m212 81-3 1.5v2l3-1.5z"/><path d="m216 79-3 1.5v2l3-1.5z"/><path d="m220 77-3 1.5v2l3-1.5z"/><path d="m194 87-3 1.5v2l3-1.5z"/><path d="m198 85-3 1.5v2l3-1.5z"/><path d="m202 83-3 1.5v2l3-1.5z"/><path d="m206 81-3 1.5v2l3-1.5z"/><path d="m210 79-3 1.5v2l3-1.5z"/><path d="m214 77-3 1.5v2l3-1.5z"/><path d="m218 75-3 1.5v2l3-1.5z"/><path d="m222 73-3 1.5v2l3-1.5z"/><path d="m192 85-3 1.5v2l3-1.5z"/><path d="m196 83-3 1.5v2l3-1.5z"/><path d="m200 81-3 1.5v2l3-1.5z"/><path d="m204 79-3 1.5v2l3-1.5z"/><path d="m208 77-3 1.5v2l3-1.5z"/><path d="m212 75-3 1.5v2l3-1.5z"/><path d="m216 73-3 1.5v2l3-1.5z"/><path d="m220 71-3 1.5v2l3-1.5z"/><path d="m194 81-3 1.5v2l3-1.5z"/><path d="m198 79-3 1.5v2l3-1.5z"/><path d="m202 77-3 1.5v2l3-1.5z"/><path d="m206 75-3 1.5v2l3-1.5z"/><path d="m210 73-3 1.5v2l3-1.5z"/><path d="m214 71-3 1.5v2l3-1.5z"/><path d="m218 69-3 1.5v2l3-1.5z"/><path d="m222 67-3 1.5v2l3-1.5z"/><path d="m192 79-3 1.5v2l3-1.5z"/><path d="m196 77-3 1.5v2l3-1.5z"/><path d="m200 75-3 1.5v2l3-1.5z"/><path d="m204 73-3 1.5v2l3-1.5z"/><path d="m208 71-3 1.5v2l3-1.5z"/><path d="m212 69-3 1.5v2l3-1.5z"/><path d="m216 67-3 1.5v2l3-1.5z"/><path d="m220 65-3 1.5v2l3-1.5z"/><path d="m194 75-3 1.5v2l3-1.5z"/><path d="m198 73-3 1.5v2l3-1.5z"/><path d="m202 71-3 1.5v2l3-1.5z"/><path d="m206 69-3 1.5v2l3-1.5z"/><path d="m210 67-3 1.5v2l3-1.5z"/><path d="m214 65-3 1.5v2l3-1.5z"/><path d="m218 63-3 1.5v2l3-1.5z"/><path d="m222 61-3 1.5v2l3-1.5z"/><path d="m192 73-3 1.5v2l3-1.5z"/><path d="m196 71-3 1.5v2l3-1.5z"/><path d="m200 69-3 1.5v2l3-1.5z"/><path d="m204 67-3 1.5v2l3-1.5z"/><path d="m208 65-3 1.5v2l3-1.5z"/><path d="m212 63-3 1.5v2l3-1.5z"/><path d="m216 61-3 1.5v2l3-1.5z"/><path d="m220 59-3 1.5v2l3-1.5z"/><path d="m194 69-3 1.5v2l3-1.5z"/><path d="m198 67-3 1.5v2l3-1.5z"/><path d="m202 65-3 1.5v2l3-1.5z"/><path d="m206 63-3 1.5v2l3-1.5z"/><path d="m210 61-3 1.5v2l3-1.5z"/><path d="m214 59-3 1.5v2l3-1.5z"/><path d="m218 57-3 1.5v2l3-1.5z"/><path d="m222 55-3 1.5v2l3-1.5z"/></g><path d="m143 132.5-9 4.5v-14l9-4.5z" fill="#d8d8d8"/><path d="m135 123.5v12l3-1.5v-12z" fill="#39c"/><path d="m135 132.5v3l3-1.5z" fill="#fff" opacity=".2"/><path d="m139 121.5v12l3-1.5v-12z" fill="#39c"/><path d="m138 123-3 1.5v-1l3-1.5z" opacity=".15"/><path d="m142 121-3 1.5v-1l3-1.5z" opacity=".15"/><path d="m142 131-3-8.5v-1l3-1.5z" opacity=".15"/><path d="m143 111.5-9 4.5v-11l9-4.5z" fill="#d8d8d8"/><path d="m135 105.5v9l3-1.5v-9z" fill="#39c"/><path d="m135 110.5v4l3-1.5z" fill="#fff" opacity=".2"/><path d="m139 103.5v9l3-1.5v-9z" fill="#39c"/><path d="m138 105-3 1.5v-1l3-1.5z" opacity=".15"/><path d="m142 103-3 1.5v-1l3-1.5z" opacity=".15"/><path d="m142 110-3-5.5v-1l3-1.5z" opacity=".15"/><path d="m157 125.5-9 4.5v-14l9-4.5z" fill="#d8d8d8"/><path d="m149 116.5v12l3-1.5v-12z" fill="#39c"/><path d="m149 118.5v10l3-1.5z" fill="#fff" opacity=".2"/><path d="m153 114.5v12l3-1.5v-12z" fill="#39c"/><path d="m152 116-3 1.5v-1l3-1.5z" opacity=".15"/><path d="m156 114-3 1.5v-1l3-1.5z" opacity=".15"/><path d="m156 121-3-5.5v-1l3-1.5z" opacity=".15"/><path d="m157 104.5-9 4.5v-11l9-4.5z" fill="#d8d8d8"/><path d="m149 98.5v9l3-1.5v-9z" fill="#39c"/><path d="m153 96.5v9l3-1.5v-9z" fill="#39c"/><path d="m152 98-3 1.5v-1l3-1.5z" opacity=".15"/><path d="m156 96-3 1.5v-1l3-1.5z" opacity=".15"/><path d="m156 104-3-6.5v-1l3-1.5z" opacity=".15"/><path d="m171 118.5-9 4.5v-14l9-4.5z" fill="#d8d8d8"/><path d="m163 109.5v12l3-1.5v-12z" fill="#39c"/><path d="m163 114.5v7l3-1.5z" fill="#fff" opacity=".2"/><path d="m167 107.5v12l3-1.5v-12z" fill="#39c"/><path d="m166 109-3 1.5v-1l3-1.5z" opacity=".15"/><path d="m170 107-3 1.5v-1l3-1.5z" opacity=".15"/><path d="m170 114-3-5.5v-1l3-1.5z" opacity=".15"/><path d="m171 97.5-9 4.5v-11l9-4.5z" fill="#d8d8d8"/><path d="m163 91.5v9l3-1.5v-9z" fill="#39c"/><path d="m163 96.5v4l3-1.5z" fill="#fff" opacity=".2"/><path d="m167 89.5v9l3-1.5v-9z" fill="#39c"/><path d="m166 91-3 1.5v-1l3-1.5z" opacity=".15"/><path d="m170 89-3 1.5v-1l3-1.5z" opacity=".15"/><path d="m170 96-3-5.5v-1l3-1.5z" opacity=".15"/><path d="m185 111.5-9 4.5v-14l9-4.5z" fill="#d8d8d8"/><path d="m177 102.5v12l3-1.5v-12z" fill="#39c"/><path d="m177 107.5v7l3-1.5z" fill="#fff" opacity=".2"/><path d="m181 100.5v12l3-1.5v-12z" fill="#39c"/><path d="m180 102-3 1.5v-1l3-1.5z" opacity=".15"/><path d="m184 100-3 1.5v-1l3-1.5z" opacity=".15"/><path d="m185 90.5-9 4.5v-11l9-4.5z" fill="#d8d8d8"/><path d="m177 84.5v9l3-1.5v-9z" fill="#39c"/><path d="m177 89.5v4l3-1.5z" fill="#fff" opacity=".2"/><path d="m181 82.5v9l3-1.5v-9z" fill="#39c"/><path d="m180 84-3 1.5v-1l3-1.5z" opacity=".15"/><path d="m184 82-3 1.5v-1l3-1.5z" opacity=".15"/><path d="m184 89-3-5.5v-1l3-1.5z" opacity=".15"/><path d="m199 104.5-9 4.5v-14l9-4.5z" fill="#d8d8d8"/><path d="m191 95.5v12l3-1.5v-12z" fill="#39c"/><path d="m195 93.5v12l3-1.5v-12z" fill="#39c"/><path d="m194 95-3 1.5v-1l3-1.5z" opacity=".15"/><path d="m198 93-3 1.5v-1l3-1.5z" opacity=".15"/><path d="m198 103-3-8.5v-1l3-1.5z" opacity=".15"/><path d="m199 83.5-9 4.5v-11l9-4.5z" fill="#d8d8d8"/><path d="m191 77.5v9l3-1.5v-9z" fill="#39c"/><path d="m191 79.5v7l3-1.5z" fill="#fff" opacity=".2"/><path d="m195 75.5v9l3-1.5v-9z" fill="#39c"/><path d="m194 77-3 1.5v-1l3-1.5z" opacity=".15"/><path d="m198 75-3 1.5v-1l3-1.5z" opacity=".15"/><path d="m213 97.5-9 4.5v-14l9-4.5z" fill="#d8d8d8"/><path d="m205 88.5v12l3-1.5v-12z" fill="#39c"/><path d="m205 89.5v11l3-1.5z" fill="#fff" opacity=".2"/><path d="m209 86.5v12l3-1.5v-12z" fill="#39c"/><path d="m208 88-3 1.5v-1l3-1.5z" opacity=".15"/><path d="m212 86-3 1.5v-1l3-1.5z" opacity=".15"/><path d="m212 93-3-5.5v-1l3-1.5z" opacity=".15"/><path d="m213 76.5-9 4.5v-11l9-4.5z" fill="#d8d8d8"/><path d="m205 70.5v9l3-1.5v-9z" fill="#39c"/><path d="m205 75.5v4l3-1.5z" fill="#fff" opacity=".2"/><path d="m209 68.5v9l3-1.5v-9z" fill="#39c"/><path d="m208 70-3 1.5v-1l3-1.5z" opacity=".15"/><path d="m212 68-3 1.5v-1l3-1.5z" opacity=".15"/><path d="m212 76-3-6.5v-1l3-1.5z" opacity=".15"/><path d="m64 112 64-32v-41l-64 32z" fill="#762c07"/><g fill="#d8d8d8" opacity=".2"><path d="m68 107-3 1.5v2l3-1.5z"/><path d="m72 105-3 1.5v2l3-1.5z"/><path d="m76 103-3 1.5v2l3-1.5z"/><path d="m80 101-3 1.5v2l3-1.5z"/><path d="m84 99-3 1.5v2l3-1.5z"/><path d="m88 97-3 1.5v2l3-1.5z"/><path d="m92 95-3 1.5v2l3-1.5z"/><path d="m96 93-3 1.5v2l3-1.5z"/><path d="m100 91-3 1.5v2l3-1.5z"/><path d="m104 89-3 1.5v2l3-1.5z"/><path d="m108 87-3 1.5v2l3-1.5z"/><path d="m112 85-3 1.5v2l3-1.5z"/><path d="m116 83-3 1.5v2l3-1.5z"/><path d="m120 81-3 1.5v2l3-1.5z"/><path d="m124 79-3 1.5v2l3-1.5z"/><path d="m66 105-2 1v2l2-1z"/><path d="m70 103-3 1.5v2l3-1.5z"/><path d="m74 101-3 1.5v2l3-1.5z"/><path d="m78 99-3 1.5v2l3-1.5z"/><path d="m82 97-3 1.5v2l3-1.5z"/><path d="m86 95-3 1.5v2l3-1.5z"/><path d="m90 93-3 1.5v2l3-1.5z"/><path d="m94 91-3 1.5v2l3-1.5z"/><path d="m98 89-3 1.5v2l3-1.5z"/><path d="m102 87-3 1.5v2l3-1.5z"/><path d="m106 85-3 1.5v2l3-1.5z"/><path d="m110 83-3 1.5v2l3-1.5z"/><path d="m114 81-3 1.5v2l3-1.5z"/><path d="m118 79-3 1.5v2l3-1.5z"/><path d="m122 77-3 1.5v2l3-1.5z"/><path d="m126 75-3 1.5v2l3-1.5z"/><path d="m68 101-3 1.5v2l3-1.5z"/><path d="m72 99-3 1.5v2l3-1.5z"/><path d="m76 97-3 1.5v2l3-1.5z"/><path d="m80 95-3 1.5v2l3-1.5z"/><path d="m84 93-3 1.5v2l3-1.5z"/><path d="m88 91-3 1.5v2l3-1.5z"/><path d="m92 89-3 1.5v2l3-1.5z"/><path d="m96 87-3 1.5v2l3-1.5z"/><path d="m100 85-3 1.5v2l3-1.5z"/><path d="m104 83-3 1.5v2l3-1.5z"/><path d="m108 81-3 1.5v2l3-1.5z"/><path d="m112 79-3 1.5v2l3-1.5z"/><path d="m116 77-3 1.5v2l3-1.5z"/><path d="m120 75-3 1.5v2l3-1.5z"/><path d="m124 73-3 1.5v2l3-1.5z"/><path d="m66 99-2 1v2l2-1z"/><path d="m70 97-3 1.5v2l3-1.5z"/><path d="m74 95-3 1.5v2l3-1.5z"/><path d="m78 93-3 1.5v2l3-1.5z"/><path d="m82 91-3 1.5v2l3-1.5z"/><path d="m86 89-3 1.5v2l3-1.5z"/><path d="m90 87-3 1.5v2l3-1.5z"/><path d="m94 85-3 1.5v2l3-1.5z"/><path d="m98 83-3 1.5v2l3-1.5z"/><path d="m102 81-3 1.5v2l3-1.5z"/><path d="m106 79-3 1.5v2l3-1.5z"/><path d="m110 77-3 1.5v2l3-1.5z"/><path d="m114 75-3 1.5v2l3-1.5z"/><path d="m118 73-3 1.5v2l3-1.5z"/><path d="m122 71-3 1.5v2l3-1.5z"/><path d="m126 69-3 1.5v2l3-1.5z"/><path d="m68 95-3 1.5v2l3-1.5z"/><path d="m72 93-3 1.5v2l3-1.5z"/><path d="m76 91-3 1.5v2l3-1.5z"/><path d="m80 89-3 1.5v2l3-1.5z"/><path d="m84 87-3 1.5v2l3-1.5z"/><path d="m88 85-3 1.5v2l3-1.5z"/><path d="m92 83-3 1.5v2l3-1.5z"/><path d="m96 81-3 1.5v2l3-1.5z"/><path d="m100 79-3 1.5v2l3-1.5z"/><path d="m104 77-3 1.5v2l3-1.5z"/><path d="m108 75-3 1.5v2l3-1.5z"/><path d="m112 73-3 1.5v2l3-1.5z"/><path d="m116 71-3 1.5v2l3-1.5z"/><path d="m120 69-3 1.5v2l3-1.5z"/><path d="m124 67-3 1.5v2l3-1.5z"/><path d="m66 93-2 1v2l2-1z"/><path d="m70 91-3 1.5v2l3-1.5z"/><path d="m74 89-3 1.5v2l3-1.5z"/><path d="m78 87-3 1.5v2l3-1.5z"/><path d="m82 85-3 1.5v2l3-1.5z"/><path d="m86 83-3 1.5v2l3-1.5z"/><path d="m90 81-3 1.5v2l3-1.5z"/><path d="m94 79-3 1.5v2l3-1.5z"/><path d="m98 77-3 1.5v2l3-1.5z"/><path d="m102 75-3 1.5v2l3-1.5z"/><path d="m106 73-3 1.5v2l3-1.5z"/><path d="m110 71-3 1.5v2l3-1.5z"/><path d="m114 69-3 1.5v2l3-1.5z"/><path d="m118 67-3 1.5v2l3-1.5z"/><path d="m122 65-3 1.5v2l3-1.5z"/><path d="m126 63-3 1.5v2l3-1.5z"/><path d="m68 89-3 1.5v2l3-1.5z"/><path d="m72 87-3 1.5v2l3-1.5z"/><path d="m76 85-3 1.5v2l3-1.5z"/><path d="m80 83-3 1.5v2l3-1.5z"/><path d="m84 81-3 1.5v2l3-1.5z"/><path d="m88 79-3 1.5v2l3-1.5z"/><path d="m92 77-3 1.5v2l3-1.5z"/><path d="m96 75-3 1.5v2l3-1.5z"/><path d="m100 73-3 1.5v2l3-1.5z"/><path d="m104 71-3 1.5v2l3-1.5z"/><path d="m108 69-3 1.5v2l3-1.5z"/><path d="m112 67-3 1.5v2l3-1.5z"/><path d="m116 65-3 1.5v2l3-1.5z"/><path d="m120 63-3 1.5v2l3-1.5z"/><path d="m124 61-3 1.5v2l3-1.5z"/><path d="m66 87-2 1v2l2-1z"/><path d="m70 85-3 1.5v2l3-1.5z"/><path d="m74 83-3 1.5v2l3-1.5z"/><path d="m78 81-3 1.5v2l3-1.5z"/><path d="m82 79-3 1.5v2l3-1.5z"/><path d="m86 77-3 1.5v2l3-1.5z"/><path d="m90 75-3 1.5v2l3-1.5z"/><path d="m94 73-3 1.5v2l3-1.5z"/><path d="m98 71-3 1.5v2l3-1.5z"/><path d="m102 69-3 1.5v2l3-1.5z"/><path d="m106 67-3 1.5v2l3-1.5z"/><path d="m110 65-3 1.5v2l3-1.5z"/><path d="m114 63-3 1.5v2l3-1.5z"/><path d="m118 61-3 1.5v2l3-1.5z"/><path d="m122 59-3 1.5v2l3-1.5z"/><path d="m126 57-3 1.5v2l3-1.5z"/><path d="m68 83-3 1.5v2l3-1.5z"/><path d="m72 81-3 1.5v2l3-1.5z"/><path d="m76 79-3 1.5v2l3-1.5z"/><path d="m80 77-3 1.5v2l3-1.5z"/><path d="m84 75-3 1.5v2l3-1.5z"/><path d="m88 73-3 1.5v2l3-1.5z"/><path d="m92 71-3 1.5v2l3-1.5z"/><path d="m96 69-3 1.5v2l3-1.5z"/><path d="m100 67-3 1.5v2l3-1.5z"/><path d="m104 65-3 1.5v2l3-1.5z"/><path d="m108 63-3 1.5v2l3-1.5z"/><path d="m112 61-3 1.5v2l3-1.5z"/><path d="m116 59-3 1.5v2l3-1.5z"/><path d="m120 57-3 1.5v2l3-1.5z"/><path d="m124 55-3 1.5v2l3-1.5z"/><path d="m66 81-2 1v2l2-1z"/><path d="m70 79-3 1.5v2l3-1.5z"/><path d="m74 77-3 1.5v2l3-1.5z"/><path d="m78 75-3 1.5v2l3-1.5z"/><path d="m82 73-3 1.5v2l3-1.5z"/><path d="m86 71-3 1.5v2l3-1.5z"/><path d="m90 69-3 1.5v2l3-1.5z"/><path d="m94 67-3 1.5v2l3-1.5z"/><path d="m98 65-3 1.5v2l3-1.5z"/><path d="m102 63-3 1.5v2l3-1.5z"/><path d="m106 61-3 1.5v2l3-1.5z"/><path d="m110 59-3 1.5v2l3-1.5z"/><path d="m114 57-3 1.5v2l3-1.5z"/><path d="m118 55-3 1.5v2l3-1.5z"/><path d="m122 53-3 1.5v2l3-1.5z"/><path d="m126 51-3 1.5v2l3-1.5z"/><path d="m68 77-3 1.5v2l3-1.5z"/><path d="m72 75-3 1.5v2l3-1.5z"/><path d="m76 73-3 1.5v2l3-1.5z"/><path d="m80 71-3 1.5v2l3-1.5z"/><path d="m84 69-3 1.5v2l3-1.5z"/><path d="m88 67-3 1.5v2l3-1.5z"/><path d="m92 65-3 1.5v2l3-1.5z"/><path d="m96 63-3 1.5v2l3-1.5z"/><path d="m100 61-3 1.5v2l3-1.5z"/><path d="m104 59-3 1.5v2l3-1.5z"/><path d="m108 57-3 1.5v2l3-1.5z"/><path d="m112 55-3 1.5v2l3-1.5z"/><path d="m116 53-3 1.5v2l3-1.5z"/><path d="m120 51-3 1.5v2l3-1.5z"/><path d="m124 49-3 1.5v2l3-1.5z"/><path d="m66 75-2 1v2l2-1z"/><path d="m70 73-3 1.5v2l3-1.5z"/><path d="m74 71-3 1.5v2l3-1.5z"/><path d="m78 69-3 1.5v2l3-1.5z"/><path d="m82 67-3 1.5v2l3-1.5z"/><path d="m86 65-3 1.5v2l3-1.5z"/><path d="m90 63-3 1.5v2l3-1.5z"/><path d="m94 61-3 1.5v2l3-1.5z"/><path d="m98 59-3 1.5v2l3-1.5z"/><path d="m102 57-3 1.5v2l3-1.5z"/><path d="m106 55-3 1.5v2l3-1.5z"/><path d="m110 53-3 1.5v2l3-1.5z"/><path d="m114 51-3 1.5v2l3-1.5z"/><path d="m118 49-3 1.5v2l3-1.5z"/><path d="m122 47-3 1.5v2l3-1.5z"/><path d="m126 45-3 1.5v2l3-1.5z"/><path d="m68 71-3 1.5v2l3-1.5z"/><path d="m72 69-3 1.5v2l3-1.5z"/><path d="m76 67-3 1.5v2l3-1.5z"/><path d="m80 65-3 1.5v2l3-1.5z"/><path d="m84 63-3 1.5v2l3-1.5z"/><path d="m88 61-3 1.5v2l3-1.5z"/><path d="m92 59-3 1.5v2l3-1.5z"/><path d="m96 57-3 1.5v2l3-1.5z"/><path d="m100 55-3 1.5v2l3-1.5z"/><path d="m104 53-3 1.5v2l3-1.5z"/><path d="m108 51-3 1.5v2l3-1.5z"/><path d="m112 49-3 1.5v2l3-1.5z"/><path d="m116 47-3 1.5v2l3-1.5z"/><path d="m120 45-3 1.5v2l3-1.5z"/><path d="m124 43-3 1.5v2l3-1.5z"/><path d="m66 69-2 1v2l2-1z"/><path d="m70 67-3 1.5v2l3-1.5z"/><path d="m74 65-3 1.5v2l3-1.5z"/><path d="m78 63-3 1.5v2l3-1.5z"/><path d="m82 61-3 1.5v2l3-1.5z"/><path d="m86 59-3 1.5v2l3-1.5z"/><path d="m90 57-3 1.5v2l3-1.5z"/><path d="m94 55-3 1.5v2l3-1.5z"/><path d="m98 53-3 1.5v2l3-1.5z"/><path d="m102 51-3 1.5v2l3-1.5z"/><path d="m106 49-3 1.5v2l3-1.5z"/><path d="m110 47-3 1.5v2l3-1.5z"/><path d="m114 45-3 1.5v2l3-1.5z"/><path d="m118 43-3 1.5v2l3-1.5z"/><path d="m122 41-3 1.5v2l3-1.5z"/><path d="m126 39-3 1.5v2l3-1.5z"/><path d="m128 77-3 1.5v2l3-1.5z"/><path d="m128 71-3 1.5v2l3-1.5z"/><path d="m128 65-3 1.5v2l3-1.5z"/><path d="m128 59-3 1.5v2l3-1.5z"/><path d="m128 53-3 1.5v2l3-1.5z"/><path d="m128 47-3 1.5v2l3-1.5z"/><path d="m128 44-1 .5v2l1-.5z"/><path d="m128 50-1 .5v2l1-.5z"/><path d="m128 56-1 .5v2l1-.5z"/><path d="m128 62-1 .5v2l1-.5z"/><path d="m128 68-1 .5v2l1-.5z"/><path d="m128 74-1 .5v2l1-.5z"/><path d="m128 41-3 1.5v2l3-1.5z"/></g><path d="m80 79-9 4.5v-11l9-4.5z" fill="#d8d8d8"/><path d="m72 73v9l3-1.5v-9z" fill="#39c"/><path d="m72 78v4l3-1.5z" fill="#fff" opacity=".2"/><path d="m76 71v9l3-1.5v-9z" fill="#39c"/><path d="m75 72.5-3 1.5v-1l3-1.5z" opacity=".15"/><path d="m79 70.5-3 1.5v-1l3-1.5z" opacity=".15"/><path d="m79 77.5-3-5.5v-1l3-1.5z" opacity=".15"/><path d="m94 72-9 4.5v-11l9-4.5z" fill="#d8d8d8"/><path d="m86 66v9l3-1.5v-9z" fill="#39c"/><path d="m90 64v9l3-1.5v-9z" fill="#39c"/><path d="m89 65.5-3 1.5v-1l3-1.5z" opacity=".15"/><path d="m93 63.5-3 1.5v-1l3-1.5z" opacity=".15"/><path d="m93 71.5-3-6.5v-1l3-1.5z" opacity=".15"/><path d="m108 65-9 4.5v-11l9-4.5z" fill="#d8d8d8"/><path d="m100 59v9l3-1.5v-9z" fill="#39c"/><path d="m100 64v4l3-1.5z" fill="#fff" opacity=".2"/><path d="m104 57v9l3-1.5v-9z" fill="#39c"/><path d="m103 58.5-3 1.5v-1l3-1.5z" opacity=".15"/><path d="m107 56.5-3 1.5v-1l3-1.5z" opacity=".15"/><path d="m107 63.5-3-5.5v-1l3-1.5z" opacity=".15"/><path d="m122 58-9 4.5v-11l9-4.5z" fill="#d8d8d8"/><path d="m114 52v9l3-1.5v-9z" fill="#39c"/><path d="m114 57v4l3-1.5z" fill="#fff" opacity=".2"/><path d="m118 50v9l3-1.5v-9z" fill="#39c"/><path d="m117 51.5-3 1.5v-1l3-1.5z" opacity=".15"/><path d="m121 49.5-3 1.5v-1l3-1.5z" opacity=".15"/><path d="m121 56.5-3-5.5v-1l3-1.5z" opacity=".15"/><path d="m128 96v8l92-46v40l4-2v-48l-.6.3.6-.3-96-48-96 48v8l32 16 64-32 24 12-56 28z" fill="#e5e5e5"/><path d="m160 65-32 5v-38l32 16z" opacity=".06"/><path d="m64 96-32-16v-32l32 16z" opacity=".06"/><path d="m64 144-64-32v-25l64 32z" fill="#762c07"/><g fill="#d8d8d8" opacity=".2"><path d="m60 139 3 1.5v2l-3-1.5z"/><path d="m56 137 3 1.5v2l-3-1.5z"/><path d="m52 135 3 1.5v2l-3-1.5z"/><path d="m48 133 3 1.5v2l-3-1.5z"/><path d="m44 131 3 1.5v2l-3-1.5z"/><path d="m40 129 3 1.5v2l-3-1.5z"/><path d="m36 127 3 1.5v2l-3-1.5z"/><path d="m32 125 3 1.5v2l-3-1.5z"/><path d="m28 123 3 1.5v2l-3-1.5z"/><path d="m24 121 3 1.5v2l-3-1.5z"/><path d="m20 119 3 1.5v2l-3-1.5z"/><path d="m16 117 3 1.5v2l-3-1.5z"/><path d="m12 115 3 1.5v2l-3-1.5z"/><path d="m8 113 3 1.5v2l-3-1.5z"/><path d="m4 111 3 1.5v2l-3-1.5z"/><path d="m62 137 2 1v2l-2-1z"/><path d="m58 135 3 1.5v2l-3-1.5z"/><path d="m54 133 3 1.5v2l-3-1.5z"/><path d="m50 131 3 1.5v2l-3-1.5z"/><path d="m46 129 3 1.5v2l-3-1.5z"/><path d="m42 127 3 1.5v2l-3-1.5z"/><path d="m38 125 3 1.5v2l-3-1.5z"/><path d="m34 123 3 1.5v2l-3-1.5z"/><path d="m30 121 3 1.5v2l-3-1.5z"/><path d="m26 119 3 1.5v2l-3-1.5z"/><path d="m22 117 3 1.5v2l-3-1.5z"/><path d="m18 115 3 1.5v2l-3-1.5z"/><path d="m14 113 3 1.5v2l-3-1.5z"/><path d="m10 111 3 1.5v2l-3-1.5z"/><path d="m6 109 3 1.5v2l-3-1.5z"/><path d="m2 107 3 1.5v2l-3-1.5z"/><path d="m60 133 3 1.5v2l-3-1.5z"/><path d="m56 131 3 1.5v2l-3-1.5z"/><path d="m52 129 3 1.5v2l-3-1.5z"/><path d="m48 127 3 1.5v2l-3-1.5z"/><path d="m44 125 3 1.5v2l-3-1.5z"/><path d="m40 123 3 1.5v2l-3-1.5z"/><path d="m36 121 3 1.5v2l-3-1.5z"/><path d="m32 119 3 1.5v2l-3-1.5z"/><path d="m28 117 3 1.5v2l-3-1.5z"/><path d="m24 115 3 1.5v2l-3-1.5z"/><path d="m20 113 3 1.5v2l-3-1.5z"/><path d="m16 111 3 1.5v2l-3-1.5z"/><path d="m12 109 3 1.5v2l-3-1.5z"/><path d="m8 107 3 1.5v2l-3-1.5z"/><path d="m4 105 3 1.5v2l-3-1.5z"/><path d="m62 131 2 1v2l-2-1z"/><path d="m58 129 3 1.5v2l-3-1.5z"/><path d="m54 127 3 1.5v2l-3-1.5z"/><path d="m50 125 3 1.5v2l-3-1.5z"/><path d="m46 123 3 1.5v2l-3-1.5z"/><path d="m42 121 3 1.5v2l-3-1.5z"/><path d="m38 119 3 1.5v2l-3-1.5z"/><path d="m34 117 3 1.5v2l-3-1.5z"/><path d="m30 115 3 1.5v2l-3-1.5z"/><path d="m26 113 3 1.5v2l-3-1.5z"/><path d="m22 111 3 1.5v2l-3-1.5z"/><path d="m18 109 3 1.5v2l-3-1.5z"/><path d="m14 107 3 1.5v2l-3-1.5z"/><path d="m10 105 3 1.5v2l-3-1.5z"/><path d="m6 103 3 1.5v2l-3-1.5z"/><path d="m2 101 3 1.5v2l-3-1.5z"/><path d="m60 127 3 1.5v2l-3-1.5z"/><path d="m56 125 3 1.5v2l-3-1.5z"/><path d="m52 123 3 1.5v2l-3-1.5z"/><path d="m48 121 3 1.5v2l-3-1.5z"/><path d="m44 119 3 1.5v2l-3-1.5z"/><path d="m40 117 3 1.5v2l-3-1.5z"/><path d="m36 115 3 1.5v2l-3-1.5z"/><path d="m32 113 3 1.5v2l-3-1.5z"/><path d="m28 111 3 1.5v2l-3-1.5z"/><path d="m24 109 3 1.5v2l-3-1.5z"/><path d="m20 107 3 1.5v2l-3-1.5z"/><path d="m16 105 3 1.5v2l-3-1.5z"/><path d="m12 103 3 1.5v2l-3-1.5z"/><path d="m8 101 3 1.5v2l-3-1.5z"/><path d="m4 99 3 1.5v2l-3-1.5z"/><path d="m62 125 2 1v2l-2-1z"/><path d="m58 123 3 1.5v2l-3-1.5z"/><path d="m54 121 3 1.5v2l-3-1.5z"/><path d="m50 119 3 1.5v2l-3-1.5z"/><path d="m46 117 3 1.5v2l-3-1.5z"/><path d="m42 115 3 1.5v2l-3-1.5z"/><path d="m38 113 3 1.5v2l-3-1.5z"/><path d="m34 111 3 1.5v2l-3-1.5z"/><path d="m30 109 3 1.5v2l-3-1.5z"/><path d="m26 107 3 1.5v2l-3-1.5z"/><path d="m22 105 3 1.5v2l-3-1.5z"/><path d="m18 103 3 1.5v2l-3-1.5z"/><path d="m14 101 3 1.5v2l-3-1.5z"/><path d="m10 99 3 1.5v2l-3-1.5z"/><path d="m6 97 3 1.5v2l-3-1.5z"/><path d="m2 95 3 1.5v2l-3-1.5z"/><path d="m60 121 3 1.5v2l-3-1.5z"/><path d="m56 119 3 1.5v2l-3-1.5z"/><path d="m52 117 3 1.5v2l-3-1.5z"/><path d="m48 115 3 1.5v2l-3-1.5z"/><path d="m44 113 3 1.5v2l-3-1.5z"/><path d="m40 111 3 1.5v2l-3-1.5z"/><path d="m36 109 3 1.5v2l-3-1.5z"/><path d="m32 107 3 1.5v2l-3-1.5z"/><path d="m28 105 3 1.5v2l-3-1.5z"/><path d="m24 103 3 1.5v2l-3-1.5z"/><path d="m20 101 3 1.5v2l-3-1.5z"/><path d="m16 99 3 1.5v2l-3-1.5z"/><path d="m12 97 3 1.5v2l-3-1.5z"/><path d="m8 95 3 1.5v2l-3-1.5z"/><path d="m4 93 3 1.5v2l-3-1.5z"/><path d="m62 119 2 1v2l-2-1z"/><path d="m58 117 3 1.5v2l-3-1.5z"/><path d="m54 115 3 1.5v2l-3-1.5z"/><path d="m50 113 3 1.5v2l-3-1.5z"/><path d="m46 111 3 1.5v2l-3-1.5z"/><path d="m42 109 3 1.5v2l-3-1.5z"/><path d="m38 107 3 1.5v2l-3-1.5z"/><path d="m34 105 3 1.5v2l-3-1.5z"/><path d="m30 103 3 1.5v2l-3-1.5z"/><path d="m26 101 3 1.5v2l-3-1.5z"/><path d="m22 99 3 1.5v2l-3-1.5z"/><path d="m18 97 3 1.5v2l-3-1.5z"/><path d="m14 95 3 1.5v2l-3-1.5z"/><path d="m10 93 3 1.5v2l-3-1.5z"/><path d="m6 91 3 1.5v2l-3-1.5z"/><path d="m2 89 3 1.5v2l-3-1.5z"/><path d="m0 109 3 1.5v2l-3-1.5z"/><path d="m0 106 1 .5v2l-1-.5z"/><path d="m0 103 3 1.5v2l-3-1.5z"/><path d="m0 100 1 .5v2l-1-.5z"/><path d="m0 97 3 1.5v2l-3-1.5z"/><path d="m0 94 1 .5v2l-1-.5z"/><path d="m0 91 3 1.5v2l-3-1.5z"/><path d="m0 88 1 .5v2l-1-.5z"/><path d="m60 115 3 1.5v2l-3-1.5z"/><path d="m56 113 3 1.5v2l-3-1.5z"/><path d="m52 111 3 1.5v2l-3-1.5z"/><path d="m48 109 3 1.5v2l-3-1.5z"/><path d="m44 107 3 1.5v2l-3-1.5z"/><path d="m40 105 3 1.5v2l-3-1.5z"/><path d="m36 103 3 1.5v2l-3-1.5z"/><path d="m32 101 3 1.5v2l-3-1.5z"/><path d="m28 99 3 1.5v2l-3-1.5z"/><path d="m24 97 3 1.5v2l-3-1.5z"/><path d="m20 95 3 1.5v2l-3-1.5z"/><path d="m16 93 3 1.5v2l-3-1.5z"/><path d="m12 91 3 1.5v2l-3-1.5z"/><path d="m8 89 3 1.5v2l-3-1.5z"/><path d="m4 87 3 1.5v2l-3-1.5z"/></g><path d="m96 96-64-32-32 16v8l64 32v-8z" fill="#e5e5e5"/><path d="m58 141-22-11v-18l22 11z" fill="#fff"/><path d="m37 113.5 20 10v17l-20-10z" fill="#d8d8d8"/><path d="m57 139.5-20-10v-1l20 10z" fill="#fff" opacity=".25"/><path d="m57 137.5-20-10v-1l20 10z" fill="#fff" opacity=".25"/><path d="m57 135.5-20-10v-1l20 10z" fill="#fff" opacity=".25"/><path d="m57 133.5-20-10v-1l20 10z" fill="#fff" opacity=".25"/><path d="m57 131.5-20-10v-1l20 10z" fill="#fff" opacity=".25"/><path d="m57 129.5-20-10v-1l20 10z" fill="#fff" opacity=".25"/><path d="m57 127.5-20-10v-1l20 10z" fill="#fff" opacity=".25"/><path d="m57 125.5-20-10v-1l20 10z" fill="#fff" opacity=".25"/><path d="m26 125-22-11v-18l22 11z" fill="#fff"/><path d="m5 97.5 20 10v17l-20-10z" fill="#d8d8d8"/><path d="m25 123.5-20-10v-1l20 10z" fill="#fff" opacity=".25"/><path d="m25 121.5-20-10v-1l20 10z" fill="#fff" opacity=".25"/><path d="m25 119.5-20-10v-1l20 10z" fill="#fff" opacity=".25"/><path d="m25 117.5-20-10v-1l20 10z" fill="#fff" opacity=".25"/><path d="m25 115.5-20-10v-1l20 10z" fill="#fff" opacity=".25"/><path d="m25 113.5-20-10v-1l20 10z" fill="#fff" opacity=".25"/><path d="m25 111.5-20-10v-1l20 10z" fill="#fff" opacity=".25"/><path d="m25 109.5-20-10v-1l20 10z" fill="#fff" opacity=".25"/><path d="m64 97 64-32v-33l-64 32z" opacity=".39"/><path d="m128 144 96-48v-48l-96 48z" opacity=".39"/><path d="m128 0-96 48 32 16 64-32 32 16-64 32 32 16 96-48z" fill="#e5e5e5"/><path d="m104.9 80 64-32-40.9-20.5-64 32-23.1-11.5 87.1-43.6 87.1 43.6-87.1 43.5z" fill="#202426" opacity=".3"/><path d="m128 6.9 84.5 42.3 2.6-1.2-87.1-43.6z" opacity=".06"/><path d="m128 6.9v-2.5l-87.1 43.6 2.6 1.2z" opacity=".39"/><path d="m168.9 48-64 32 2.6 1.2 61.4-30.7z" opacity=".39"/><path d="m32 70.9 52.5 26.3 2.6-1.2-55.1-27.6z" opacity=".06"/><path d="m8.9 80 23.1-11.6 55.1 27.6-23.1 11.5z" fill="#202426" opacity=".3"/><path d="m32 70.9v-2.5l-23.1 11.6 2.6 1.2z" opacity=".39"/><path d="m96 64-32 16v32l32 16 32-16v-32z" fill="#e5e5e5"/><path d="m72.1 80 23.9-12 23.9 12-23.9 11.9z" fill="#202426" opacity=".3"/><path d="m72.1 80 2 1 21.9-11v-2z" opacity=".39"/><path d="m119.9 80-23.9-12v2l21.9 11z" opacity=".06"/><path d="m96 102 29-14.5v58l-29 14.5z" fill="#39c"/><path d="m125 89.5-29 14.5v-1l29-14.5z" opacity=".15"/><path d="m125 91.5-29 14.5v-3l29-14.5z" opacity=".15"/><path d="m120 133-19 9.5v-1l19-9.5z" opacity=".15"/><path d="m120 135-19 9.5v-3l19-9.5z" opacity=".15"/><path d="m120 140-19 1.5 19-9.5z" opacity=".15"/><path d="m126 98-30 15v-1l30-15z" fill="#fff" opacity=".3"/><path d="m126 108-30 15v-1l30-15z" fill="#fff" opacity=".3"/><path d="m126 118-30 15v-1l30-15z" fill="#fff" opacity=".3"/><path d="m126 128-30 15v-1l30-15z" fill="#fff" opacity=".3"/><path d="m101 157.5-1 .5v-59l1-.5z" fill="#fff" opacity=".7"/><path d="m106 155-1 .5v-59l1-.5z" fill="#fff" opacity=".7"/><path d="m111 152.5-1 .5v-59l1-.5z" fill="#fff" opacity=".7"/><path d="m116 150-1 .5v-59l1-.5z" fill="#fff" opacity=".7"/><path d="m121 147.5-1 .5v-59l1-.5z" fill="#fff" opacity=".7"/><path d="m96 96 32-16v64l-3 1.5v-57l-29 14.5z" fill="#e5e5e5"/><path d="m115 132.5-4 2v-9l4-2z" fill="#fff" opacity=".2"/><path d="m120 120-4 2v-9l4-2z" fill="#fff" opacity=".2"/><path d="m125 107.5-4 2v-9l4-2z" fill="#fff" opacity=".2"/><path d="m125 97.5-4 2v-9l4-2z" fill="#fff" opacity=".1"/><path d="m120 110-4 2v-9l4-2z" fill="#fff" opacity=".1"/><path d="m115 122.5-4 2v-9l4-2z" fill="#fff" opacity=".1"/><path d="m110 135-4 2v-9l4-2z" fill="#fff" opacity=".1"/><path d="m114 151-13 6.5v-12z" fill="#fff" opacity=".2"/><path d="m105 117.5-4 2v-9l4-2z" fill="#fff" opacity=".1"/><path d="m110 106-4 2v-9l4-2z" fill="#fff" opacity=".1"/><path d="m100 130-4 2v-9l4-2z" fill="#fff" opacity=".1"/><path d="m122 147v-19l-23 11.5v19l2-1v-16l19-9.5v16z" fill="#d8d8d8"/><path d="m96 96 32-16v64l-32 16z" opacity=".39"/><path d="m96 102-29-14.5v58l29 14.5z" fill="#39c"/><path d="m67 89.5 29 14.5v-1l-29-14.5z" opacity=".15"/><path d="m67 91.5 29 14.5v-3l-29-14.5z" opacity=".15"/><g fill="#fff"><path d="m66 98 30 15v-1l-30-15z" opacity=".3"/><path d="m66 108 30 15v-1l-30-15z" opacity=".3"/><path d="m66 118 30 15v-1l-30-15z" opacity=".3"/><path d="m66 128 30 15v-1l-30-15z" opacity=".3"/><path d="m91 157.5 1 .5v-59l-1-.5z" opacity=".7"/><path d="m86 155 1 .5v-59l-1-.5z" opacity=".7"/><path d="m81 152.5 1 .5v-59l-1-.5z" opacity=".7"/><path d="m76 150 1 .5v-59l-1-.5z" opacity=".7"/><path d="m71 147.5 1 .5v-59l-1-.5z" opacity=".7"/><path d="m86 137-4-2v-9l4 2z" opacity=".2"/><path d="m91 129.5-4-2v-9l4 2z" opacity=".2"/><path d="m96 122-4-2v-9l4 2z" opacity=".2"/><path d="m96 112-4-2v-9l4 2z" opacity=".1"/><path d="m91 119.5-4-2v-9l4 2z" opacity=".1"/><path d="m86 127-4-2v-9l4 2z" opacity=".1"/><path d="m81 134.5-4-2v-9l4 2z" opacity=".1"/><path d="m76 112-4-2v-9l4 2z" opacity=".1"/><path d="m81 105.5-4-2v-9l4 2z" opacity=".1"/><path d="m71 119.5-4-2v-9l4 2z" opacity=".1"/></g><path d="m96 96-32-16v64l3 1.5v-57l29 14.5z" fill="#e5e5e5"/><path d="m96 96-32-16v64l32 16z" opacity=".06"/><path d="m64 144-64-32v-32l64 32z" opacity=".06"/><path d="m84 81 14-7 2 1-14 7z" fill="#e5e5e5"/><path d="m92 85 14-7 2 1-14 7z" fill="#e5e5e5"/><path d="m94 77 8 4-2 1-8-4z" fill="#e5e5e5"/><path d="m34 73-12 6v4l12 6 12-6v-4z" fill="#e5e5e5"/><path d="m46 83-12 6v-4l12-6z" opacity=".39"/><path d="m22 83 12 6v-4l-12-6z" opacity=".06"/><path d="m48 80-12 6v4l12 6 12-6v-4z" fill="#e5e5e5"/><path d="m60 90-12 6v-4l12-6z" opacity=".39"/><path d="m36 90 12 6v-4l-12-6z" opacity=".06"/></svg>