<svg enable-background="new 0 0 144 152" viewBox="0 0 144 152" xmlns="http://www.w3.org/2000/svg"><path d="m144 128-48 24v-55l24-48 24 24z" fill="#baa794"/><g fill="#762c07" opacity=".4"><path d="m132 131 3-1.5v2l-3 1.5z"/><path d="m128 133 3-1.5v2l-3 1.5z"/><path d="m124 135 3-1.5v2l-3 1.5z"/><path d="m120 137 3-1.5v2l-3 1.5z"/><path d="m116 139 3-1.5v2l-3 1.5z"/><path d="m112 141 3-1.5v2l-3 1.5z"/><path d="m108 143 3-1.5v2l-3 1.5z"/><path d="m130 129 3-1.5v2l-3 1.5z"/><path d="m126 131 3-1.5v2l-3 1.5z"/><path d="m122 133 3-1.5v2l-3 1.5z"/><path d="m118 135 3-1.5v2l-3 1.5z"/><path d="m114 137 3-1.5v2l-3 1.5z"/><path d="m110 139 3-1.5v2l-3 1.5z"/><path d="m106 141 3-1.5v2l-3 1.5z"/><path d="m132 125 3-1.5v2l-3 1.5z"/><path d="m128 127 3-1.5v2l-3 1.5z"/><path d="m124 129 3-1.5v2l-3 1.5z"/><path d="m120 131 3-1.5v2l-3 1.5z"/><path d="m116 133 3-1.5v2l-3 1.5z"/><path d="m112 135 3-1.5v2l-3 1.5z"/><path d="m108 137 3-1.5v2l-3 1.5z"/><path d="m130 123 3-1.5v2l-3 1.5z"/><path d="m126 125 3-1.5v2l-3 1.5z"/><path d="m122 127 3-1.5v2l-3 1.5z"/><path d="m118 129 3-1.5v2l-3 1.5z"/><path d="m114 131 3-1.5v2l-3 1.5z"/><path d="m110 133 3-1.5v2l-3 1.5z"/><path d="m106 135 3-1.5v2l-3 1.5z"/><path d="m132 119 3-1.5v2l-3 1.5z"/><path d="m128 121 3-1.5v2l-3 1.5z"/><path d="m124 123 3-1.5v2l-3 1.5z"/><path d="m120 125 3-1.5v2l-3 1.5z"/><path d="m116 127 3-1.5v2l-3 1.5z"/><path d="m112 129 3-1.5v2l-3 1.5z"/><path d="m108 131 3-1.5v2l-3 1.5z"/><path d="m130 117 3-1.5v2l-3 1.5z"/><path d="m126 119 3-1.5v2l-3 1.5z"/><path d="m122 121 3-1.5v2l-3 1.5z"/><path d="m118 123 3-1.5v2l-3 1.5z"/><path d="m114 125 3-1.5v2l-3 1.5z"/><path d="m110 127 3-1.5v2l-3 1.5z"/><path d="m106 129 3-1.5v2l-3 1.5z"/><path d="m132 113 3-1.5v2l-3 1.5z"/><path d="m128 115 3-1.5v2l-3 1.5z"/><path d="m124 117 3-1.5v2l-3 1.5z"/><path d="m120 119 3-1.5v2l-3 1.5z"/><path d="m116 121 3-1.5v2l-3 1.5z"/><path d="m112 123 3-1.5v2l-3 1.5z"/><path d="m108 125 3-1.5v2l-3 1.5z"/><path d="m130 111 3-1.5v2l-3 1.5z"/><path d="m126 113 3-1.5v2l-3 1.5z"/><path d="m122 115 3-1.5v2l-3 1.5z"/><path d="m118 117 3-1.5v2l-3 1.5z"/><path d="m114 119 3-1.5v2l-3 1.5z"/><path d="m110 121 3-1.5v2l-3 1.5z"/><path d="m106 123 3-1.5v2l-3 1.5z"/><path d="m132 107 3-1.5v2l-3 1.5z"/><path d="m128 109 3-1.5v2l-3 1.5z"/><path d="m124 111 3-1.5v2l-3 1.5z"/><path d="m120 113 3-1.5v2l-3 1.5z"/><path d="m116 115 3-1.5v2l-3 1.5z"/><path d="m112 117 3-1.5v2l-3 1.5z"/><path d="m108 119 3-1.5v2l-3 1.5z"/><path d="m130 105 3-1.5v2l-3 1.5z"/><path d="m126 107 3-1.5v2l-3 1.5z"/><path d="m122 109 3-1.5v2l-3 1.5z"/><path d="m118 111 3-1.5v2l-3 1.5z"/><path d="m114 113 3-1.5v2l-3 1.5z"/><path d="m110 115 3-1.5v2l-3 1.5z"/><path d="m106 117 3-1.5v2l-3 1.5z"/><path d="m132 101 3-1.5v2l-3 1.5z"/><path d="m128 103 3-1.5v2l-3 1.5z"/><path d="m124 105 3-1.5v2l-3 1.5z"/><path d="m120 107 3-1.5v2l-3 1.5z"/><path d="m116 109 3-1.5v2l-3 1.5z"/><path d="m112 111 3-1.5v2l-3 1.5z"/><path d="m108 113 3-1.5v2l-3 1.5z"/><path d="m130 99 3-1.5v2l-3 1.5z"/><path d="m126 101 3-1.5v2l-3 1.5z"/><path d="m122 103 3-1.5v2l-3 1.5z"/><path d="m118 105 3-1.5v2l-3 1.5z"/><path d="m114 107 3-1.5v2l-3 1.5z"/><path d="m110 109 3-1.5v2l-3 1.5z"/><path d="m106 111 3-1.5v2l-3 1.5z"/><path d="m132 95 3-1.5v2l-3 1.5z"/><path d="m128 97 3-1.5v2l-3 1.5z"/><path d="m124 99 3-1.5v2l-3 1.5z"/><path d="m120 101 3-1.5v2l-3 1.5z"/><path d="m116 103 3-1.5v2l-3 1.5z"/><path d="m112 105 3-1.5v2l-3 1.5z"/><path d="m108 107 3-1.5v2l-3 1.5z"/><path d="m130 93 3-1.5v2l-3 1.5z"/><path d="m126 95 3-1.5v2l-3 1.5z"/><path d="m122 97 3-1.5v2l-3 1.5z"/><path d="m118 99 3-1.5v2l-3 1.5z"/><path d="m114 101 3-1.5v2l-3 1.5z"/><path d="m110 103 3-1.5v2l-3 1.5z"/><path d="m106 105 3-1.5v2l-3 1.5z"/><path d="m132 89 3-1.5v2l-3 1.5z"/><path d="m128 91 3-1.5v2l-3 1.5z"/><path d="m124 93 3-1.5v2l-3 1.5z"/><path d="m120 95 3-1.5v2l-3 1.5z"/><path d="m116 97 3-1.5v2l-3 1.5z"/><path d="m112 99 3-1.5v2l-3 1.5z"/><path d="m108 101 3-1.5v2l-3 1.5z"/><path d="m130 87 3-1.5v2l-3 1.5z"/><path d="m126 89 3-1.5v2l-3 1.5z"/><path d="m122 91 3-1.5v2l-3 1.5z"/><path d="m118 93 3-1.5v2l-3 1.5z"/><path d="m114 95 3-1.5v2l-3 1.5z"/><path d="m110 97 3-1.5v2l-3 1.5z"/><path d="m106 99 3-1.5v2l-3 1.5z"/><path d="m132 83 3-1.5v2l-3 1.5z"/><path d="m128 85 3-1.5v2l-3 1.5z"/><path d="m124 87 3-1.5v2l-3 1.5z"/><path d="m120 89 3-1.5v2l-3 1.5z"/><path d="m116 91 3-1.5v2l-3 1.5z"/><path d="m112 93 3-1.5v2l-3 1.5z"/><path d="m108 95 3-1.5v2l-3 1.5z"/><path d="m130 81 3-1.5v2l-3 1.5z"/><path d="m126 83 3-1.5v2l-3 1.5z"/><path d="m122 85 3-1.5v2l-3 1.5z"/><path d="m118 87 3-1.5v2l-3 1.5z"/><path d="m114 89 3-1.5v2l-3 1.5z"/><path d="m110 91 3-1.5v2l-3 1.5z"/><path d="m106 93 3-1.5v2l-3 1.5z"/><path d="m104 145 3-1.5v2l-3 1.5z"/><path d="m104 139 3-1.5v2l-3 1.5z"/><path d="m104 133 3-1.5v2l-3 1.5z"/><path d="m104 127 3-1.5v2l-3 1.5z"/><path d="m104 121 3-1.5v2l-3 1.5z"/><path d="m104 115 3-1.5v2l-3 1.5z"/><path d="m104 109 3-1.5v2l-3 1.5z"/><path d="m104 103 3-1.5v2l-3 1.5z"/><path d="m104 97 3-1.5v2l-3 1.5z"/><path d="m100 147 3-1.5v2l-3 1.5z"/><path d="m102 143 3-1.5v2l-3 1.5z"/><path d="m98 145 3-1.5v2l-3 1.5z"/><path d="m100 141 3-1.5v2l-3 1.5z"/><path d="m102 137 3-1.5v2l-3 1.5z"/><path d="m98 139 3-1.5v2l-3 1.5z"/><path d="m100 135 3-1.5v2l-3 1.5z"/><path d="m102 131 3-1.5v2l-3 1.5z"/><path d="m98 133 3-1.5v2l-3 1.5z"/><path d="m100 129 3-1.5v2l-3 1.5z"/><path d="m102 125 3-1.5v2l-3 1.5z"/><path d="m98 127 3-1.5v2l-3 1.5z"/><path d="m100 123 3-1.5v2l-3 1.5z"/><path d="m102 119 3-1.5v2l-3 1.5z"/><path d="m98 121 3-1.5v2l-3 1.5z"/><path d="m100 117 3-1.5v2l-3 1.5z"/><path d="m102 113 3-1.5v2l-3 1.5z"/><path d="m98 115 3-1.5v2l-3 1.5z"/><path d="m100 111 3-1.5v2l-3 1.5z"/><path d="m102 107 3-1.5v2l-3 1.5z"/><path d="m98 109 3-1.5v2l-3 1.5z"/><path d="m100 105 3-1.5v2l-3 1.5z"/><path d="m102 101 3-1.5v2l-3 1.5z"/><path d="m98 103 3-1.5v2l-3 1.5z"/><path d="m100 99 3-1.5v2l-3 1.5z"/><path d="m102 95 3-1.5v2l-3 1.5z"/><path d="m98 97 3-1.5v2l-3 1.5z"/><path d="m96 98 1-.5v2l-1 .5z"/><path d="m96 104 1-.5v2l-1 .5z"/><path d="m96 146 1-.5v2l-1 .5z"/><path d="m96 140 1-.5v2l-1 .5z"/><path d="m96 134 1-.5v2l-1 .5z"/><path d="m96 128 1-.5v2l-1 .5z"/><path d="m96 122 1-.5v2l-1 .5z"/><path d="m96 116 1-.5v2l-1 .5z"/><path d="m96 110 1-.5v2l-1 .5z"/><path d="m96 101 3-1.5v2l-3 1.5z"/><path d="m96 149 3-1.5v2l-3 1.5z"/><path d="m96 143 3-1.5v2l-3 1.5z"/><path d="m96 137 3-1.5v2l-3 1.5z"/><path d="m96 131 3-1.5v2l-3 1.5z"/><path d="m96 125 3-1.5v2l-3 1.5z"/><path d="m96 119 3-1.5v2l-3 1.5z"/><path d="m96 113 3-1.5v2l-3 1.5z"/><path d="m96 107 3-1.5v2l-3 1.5z"/><path d="m132 77 3-1.5v2l-3 1.5z"/><path d="m128 79 3-1.5v2l-3 1.5z"/><path d="m140 127 3-1.5v2l-3 1.5z"/><path d="m134 127 3-1.5v2l-3 1.5z"/><path d="m140 121 3-1.5v2l-3 1.5z"/><path d="m134 121 3-1.5v2l-3 1.5z"/><path d="m140 115 3-1.5v2l-3 1.5z"/><path d="m134 115 3-1.5v2l-3 1.5z"/><path d="m140 109 3-1.5v2l-3 1.5z"/><path d="m134 109 3-1.5v2l-3 1.5z"/><path d="m140 103 3-1.5v2l-3 1.5z"/><path d="m134 103 3-1.5v2l-3 1.5z"/><path d="m140 97 3-1.5v2l-3 1.5z"/><path d="m134 97 3-1.5v2l-3 1.5z"/><path d="m140 91 3-1.5v2l-3 1.5z"/><path d="m134 91 3-1.5v2l-3 1.5z"/><path d="m140 85 3-1.5v2l-3 1.5z"/><path d="m134 85 3-1.5v2l-3 1.5z"/><path d="m140 79 3-1.5v2l-3 1.5z"/><path d="m142 123 2-1v2l-2 1z"/><path d="m142 117 2-1v2l-2 1z"/><path d="m142 111 2-1v2l-2 1z"/><path d="m142 105 2-1v2l-2 1z"/><path d="m142 99 2-1v2l-2 1z"/><path d="m142 93 2-1v2l-2 1z"/><path d="m142 87 2-1v2l-2 1z"/><path d="m142 81 2-1v2l-2 1z"/><path d="m142 75 2-1v2l-2 1z"/><path d="m134 79 3-1.5v2l-3 1.5z"/><path d="m136 129 3-1.5v2l-3 1.5z"/><path d="m138 125 3-1.5v2l-3 1.5z"/><path d="m136 123 3-1.5v2l-3 1.5z"/><path d="m138 119 3-1.5v2l-3 1.5z"/><path d="m136 117 3-1.5v2l-3 1.5z"/><path d="m138 113 3-1.5v2l-3 1.5z"/><path d="m136 111 3-1.5v2l-3 1.5z"/><path d="m138 107 3-1.5v2l-3 1.5z"/><path d="m136 105 3-1.5v2l-3 1.5z"/><path d="m138 101 3-1.5v2l-3 1.5z"/><path d="m136 99 3-1.5v2l-3 1.5z"/><path d="m138 95 3-1.5v2l-3 1.5z"/><path d="m136 93 3-1.5v2l-3 1.5z"/><path d="m138 89 3-1.5v2l-3 1.5z"/><path d="m136 87 3-1.5v2l-3 1.5z"/><path d="m138 83 3-1.5v2l-3 1.5z"/><path d="m136 81 3-1.5v2l-3 1.5z"/><path d="m138 77 3-1.5v2l-3 1.5z"/><path d="m136 75 3-1.5v2l-3 1.5z"/><path d="m140 73 3-1.5v2l-3 1.5z"/><path d="m124 81 3-1.5v2l-3 1.5z"/><path d="m120 83 3-1.5v2l-3 1.5z"/><path d="m116 85 3-1.5v2l-3 1.5z"/><path d="m112 87 3-1.5v2l-3 1.5z"/><path d="m108 89 3-1.5v2l-3 1.5z"/><path d="m100 93 3-1.5v2l-3 1.5z"/><path d="m104 91 3-1.5v2l-3 1.5z"/><path d="m97 94.5 2-1v2l-3 1.5z"/><path d="m130 75 3-1.5v2l-3 1.5z"/><path d="m134 73 3-1.5v2l-3 1.5z"/><path d="m138 71 1-.5 2 1-3 1.5z"/><path d="m126 77 3-1.5v2l-3 1.5z"/><path d="m122 79 3-1.5v2l-3 1.5z"/><path d="m118 81 3-1.5v2l-3 1.5z"/><path d="m114 83 3-1.5v2l-3 1.5z"/><path d="m110 85 3-1.5v2l-3 1.5z"/><path d="m128 73 3-1.5v2l-3 1.5z"/><path d="m132 71 3-1.5v2l-3 1.5z"/><path d="m136 69 3-1.5v2l-3 1.5z"/><path d="m124 75 3-1.5v2l-3 1.5z"/><path d="m120 77 3-1.5v2l-3 1.5z"/><path d="m116 79 3-1.5v2l-3 1.5z"/><path d="m112 81 3-1.5v2l-3 1.5z"/><path d="m100 90 1-.5v2l-3 1.5z"/><path d="m103 85.5v2l-2 1z"/><path d="m126 71 3-1.5v2l-3 1.5z"/><path d="m130 69 3-1.5v2l-3 1.5z"/><path d="m134 67 2-1 1 1.5-3 1.5z"/><path d="m122 73 3-1.5v2l-3 1.5z"/><path d="m118 75 3-1.5v2l-3 1.5z"/><path d="m114 77 3-1.5v2l-3 1.5z"/><path d="m103 82.5 2-1v2l-3 1.5z"/><path d="m124 69 3-1.5v2l-3 1.5z"/><path d="m132 65 2-1 1 1.5-3 1.5z"/><path d="m120 71 3-1.5v2l-3 1.5z"/><path d="m116 73 3-1.5v2l-3 1.5z"/><path d="m105 78.5 2-1v2l-3 1.5z"/><path d="m122 67 3-1.5v2l-3 1.5z"/><path d="m128 67 3-1.5v2l-3 1.5z"/><path d="m126 65 3-1.5v2l-3 1.5z"/><path d="m130 63 2-1 1 1.5-3 1.5z"/><path d="m118 69 3-1.5v2l-3 1.5z"/><path d="m109 73.5v2l-2 1z"/><path d="m120 65 3-1.5v2l-3 1.5z"/><path d="m124 63 3-1.5v2l-3 1.5z"/><path d="m106 87 3-1.5v2l-3 1.5z"/><path d="m108 83 3-1.5v2l-3 1.5z"/><path d="m102 89 3-1.5v2l-3 1.5z"/><path d="m104 85 3-1.5v2l-3 1.5z"/><path d="m110 79 3-1.5v2l-3 1.5z"/><path d="m106 81 3-1.5v2l-3 1.5z"/><path d="m112 75 3-1.5v2l-3 1.5z"/><path d="m108 77 3-1.5v2l-3 1.5z"/><path d="m114 71 3-1.5v2l-3 1.5z"/><path d="m110 73 3-1.5v2l-3 1.5z"/><path d="m116 67 3-1.5v2l-3 1.5z"/><path d="m112 69 3-1.5v2l-3 1.5z"/><path d="m109 70.5 2-1v2l-3 1.5z"/><path d="m122 61 3-1.5v2l-3 1.5z"/><path d="m126 59 2-1 1 1.5-3 1.5z"/><path d="m118 63 3-1.5v2l-3 1.5z"/><path d="m114 65 3-1.5v2l-3 1.5z"/><path d="m111 66.5 2-1v2l-3 1.5z"/><path d="m124 57 3-1.5v2l-3 1.5z"/><path d="m120 59 3-1.5v2l-3 1.5z"/><path d="m116 61 3-1.5v2l-3 1.5z"/><path d="m113 62.5 2-1v2l-3 1.5z"/><path d="m122 55 3-1.5v2l-3 1.5z"/><path d="m118 57 3-1.5v2l-3 1.5z"/><path d="m115 58.5 2-1v2l-3 1.5z"/><path d="m120 53 3-1.5v2l-3 1.5z"/><path d="m119 50.5 2-1v2l-3 1.5z"/><path d="m117 54.5 2-1v2l-3 1.5z"/><path d="m128 61 2-1 1 1.5-3 1.5z"/><path d="m119 62.5 2-1v2l-3 1.5z"/></g><g fill="#762c07" opacity=".6"><path d="m96 143 3-1.5v2l-3 1.5z"/><path d="m96 149 3-1.5v2l-3 1.5z"/><path d="m96 140 1-.5v2l-1 .5z"/><path d="m96 137 3-1.5v2l-3 1.5z"/><path d="m96 134 1-.5v2l-1 .5z"/><path d="m96 131 3-1.5v2l-3 1.5z"/><path d="m96 128 1-.5v2l-1 .5z"/><path d="m96 125 3-1.5v2l-3 1.5z"/><path d="m96 122 1-.5v2l-1 .5z"/><path d="m118 117 3-1.5v2l-3 1.5z"/><path d="m100 123 3-1.5v2l-3 1.5z"/><path d="m142 117 2-1v2l-2 1z"/><path d="m142 123 2-1v2l-2 1z"/><path d="m142 105 2-1v2l-2 1z"/><path d="m142 111 2-1v2l-2 1z"/><path d="m142 93 2-1v2l-2 1z"/><path d="m142 99 2-1v2l-2 1z"/><path d="m142 75 2-1v2l-2 1z"/><path d="m142 81 2-1v2l-2 1z"/><path d="m96 119 3-1.5v2l-3 1.5z"/><path d="m140 97 3-1.5v2l-3 1.5z"/><path d="m140 91 3-1.5v2l-3 1.5z"/><path d="m140 85 3-1.5v2l-3 1.5z"/><path d="m140 79 3-1.5v2l-3 1.5z"/><path d="m140 109 3-1.5v2l-3 1.5z"/><path d="m110 127 3-1.5v2l-3 1.5z"/><path d="m134 115 3-1.5v2l-3 1.5z"/><path d="m140 103 3-1.5v2l-3 1.5z"/><path d="m140 121 3-1.5v2l-3 1.5z"/><path d="m140 127 3-1.5v2l-3 1.5z"/><path d="m140 115 3-1.5v2l-3 1.5z"/><path d="m96 116 1-.5v2l-1 .5z"/><path d="m96 113 3-1.5v2l-3 1.5z"/><path d="m122 103 3-1.5v2l-3 1.5z"/><path d="m124 63 3-1.5v2l-3 1.5z"/><path d="m106 111 3-1.5v2l-3 1.5z"/><path d="m134 103 3-1.5v2l-3 1.5z"/><path d="m122 127 3-1.5v2l-3 1.5z"/><path d="m132 125 3-1.5v2l-3 1.5z"/><path d="m96 110 1-.5v2l-1 .5z"/><path d="m96 107 3-1.5v2l-3 1.5z"/><path d="m142 87 2-1v2l-2 1z"/><path d="m114 101 3-1.5v2l-3 1.5z"/><path d="m130 93 3-1.5v2l-3 1.5z"/><path d="m112 111 3-1.5v2l-3 1.5z"/><path d="m96 104 1-.5v2l-1 .5z"/><path d="m96 101 3-1.5v2l-3 1.5z"/><path d="m126 89 3-1.5v2l-3 1.5z"/><path d="m112 69 3-1.5v2l-3 1.5z"/><path d="m108 95 3-1.5v2l-3 1.5z"/><path d="m102 95 3-1.5v2l-3 1.5z"/><path d="m104 103 3-1.5v2l-3 1.5z"/><path d="m96 98 1-.5v2l-1 .5z"/><path d="m118 87 3-1.5v2l-3 1.5z"/><path d="m132 77 3-1.5v2l-3 1.5z"/><path d="m124 75 3-1.5v2l-3 1.5z"/><path d="m120 71 3-1.5v2l-3 1.5z"/><path d="m112 81 3-1.5v2l-3 1.5z"/><path d="m102 89 3-1.5v2l-3 1.5z"/><path d="m118 135 3-1.5v2l-3 1.5z"/><path d="m104 139 3-1.5v2l-3 1.5z"/><path d="m96 146 1-.5v2l-1 .5z"/></g><g fill="#762c07" opacity=".3"><path d="m108 137 3-1.5v2l-3 1.5z"/><path d="m112 123 3-1.5v2l-3 1.5z"/><path d="m112 117 3-1.5v2l-3 1.5z"/><path d="m126 107 3-1.5v2l-3 1.5z"/><path d="m124 99 3-1.5v2l-3 1.5z"/><path d="m126 89 3-1.5v2l-3 1.5z"/><path d="m114 77 3-1.5v2l-3 1.5z"/><path d="m122 121 3-1.5v2l-3 1.5z"/><path d="m126 113 3-1.5v2l-3 1.5z"/><path d="m124 135 3-1.5v2l-3 1.5z"/><path d="m112 129 3-1.5v2l-3 1.5z"/><path d="m126 125 3-1.5v2l-3 1.5z"/><path d="m116 109 3-1.5v2l-3 1.5z"/><path d="m116 133 3-1.5v2l-3 1.5z"/><path d="m108 107 3-1.5v2l-3 1.5z"/><path d="m120 95 3-1.5v2l-3 1.5z"/><path d="m112 93 3-1.5v2l-3 1.5z"/><path d="m108 89 3-1.5v2l-3 1.5z"/><path d="m124 81 3-1.5v2l-3 1.5z"/><path d="m116 79 3-1.5v2l-3 1.5z"/><path d="m118 69 3-1.5v2l-3 1.5z"/><path d="m112 141 3-1.5v2l-3 1.5z"/></g><path d="m144 128-48 24v-55l24-48 24 24z" opacity=".39"/><path d="m0 104 96 48v-55l-96-48z" fill="#baa794"/><g fill="#762c07" opacity=".4"><path d="m4 105-3-1.5v-2l3 1.5z"/><path d="m8 107-3-1.5v-2l3 1.5z"/><path d="m12 109-3-1.5v-2l3 1.5z"/><path d="m16 111-3-1.5v-2l3 1.5z"/><path d="m20 113-3-1.5v-2l3 1.5z"/><path d="m24 115-3-1.5v-2l3 1.5z"/><path d="m28 117-3-1.5v-2l3 1.5z"/><path d="m32 119-3-1.5v-2l3 1.5z"/><path d="m36 121-3-1.5v-2l3 1.5z"/><path d="m40 123-3-1.5v-2l3 1.5z"/><path d="m44 125-3-1.5v-2l3 1.5z"/><path d="m48 127-3-1.5v-2l3 1.5z"/><path d="m52 129-3-1.5v-2l3 1.5z"/><path d="m56 131-3-1.5v-2l3 1.5z"/><path d="m60 133-3-1.5v-2l3 1.5z"/><path d="m64 135-3-1.5v-2l3 1.5z"/><path d="m68 137-3-1.5v-2l3 1.5z"/><path d="m72 139-3-1.5v-2l3 1.5z"/><path d="m76 141-3-1.5v-2l3 1.5z"/><path d="m80 143-3-1.5v-2l3 1.5z"/><path d="m84 145-3-1.5v-2l3 1.5z"/><path d="m88 147-3-1.5v-2l3 1.5z"/><path d="m92 149-3-1.5v-2l3 1.5z"/><path d="m96 151-3-1.5v-2l3 1.5z"/><path d="m2 101-2-1v-2l2 1z"/><path d="m3 99.5 3 1.5v2l-3-1.5z"/><path d="m7 101.5 3 1.5v2l-3-1.5z"/><path d="m11 103.5 3 1.5v2l-3-1.5z"/><path d="m15 105.5 3 1.5v2l-3-1.5z"/><path d="m19 107.5 3 1.5v2l-3-1.5z"/><path d="m23 109.5 3 1.5v2l-3-1.5z"/><path d="m27 111.5 3 1.5v2l-3-1.5z"/><path d="m31 113.5 3 1.5v2l-3-1.5z"/><path d="m35 115.5 3 1.5v2l-3-1.5z"/><path d="m39 117.5 3 1.5v2l-3-1.5z"/><path d="m43 119.5 3 1.5v2l-3-1.5z"/><path d="m47 121.5 3 1.5v2l-3-1.5z"/><path d="m51 123.5 3 1.5v2l-3-1.5z"/><path d="m55 125.5 3 1.5v2l-3-1.5z"/><path d="m59 127.5 3 1.5v2l-3-1.5z"/><path d="m63 129.5 3 1.5v2l-3-1.5z"/><path d="m67 131.5 3 1.5v2l-3-1.5z"/><path d="m71 133.5 3 1.5v2l-3-1.5z"/><path d="m75 135.5 3 1.5v2l-3-1.5z"/><path d="m79 137.5 3 1.5v2l-3-1.5z"/><path d="m83 139.5 3 1.5v2l-3-1.5z"/><path d="m87 141.5 3 1.5v2l-3-1.5z"/><path d="m94 147-3-1.5v-2l3 1.5z"/><path d="m95 145.5 1 .5v2l-1-.5z"/><path d="m1 95.5 3 1.5v2l-3-1.5z"/><path d="m5 97.5 3 1.5v2l-3-1.5z"/><path d="m9 99.5 3 1.5v2l-3-1.5z"/><path d="m13 101.5 3 1.5v2l-3-1.5z"/><path d="m17 103.5 3 1.5v2l-3-1.5z"/><path d="m21 105.5 3 1.5v2l-3-1.5z"/><path d="m25 107.5 3 1.5v2l-3-1.5z"/><path d="m29 109.5 3 1.5v2l-3-1.5z"/><path d="m33 111.5 3 1.5v2l-3-1.5z"/><path d="m37 113.5 3 1.5v2l-3-1.5z"/><path d="m41 115.5 3 1.5v2l-3-1.5z"/><path d="m45 117.5 3 1.5v2l-3-1.5z"/><path d="m49 119.5 3 1.5v2l-3-1.5z"/><path d="m53 121.5 3 1.5v2l-3-1.5z"/><path d="m57 123.5 3 1.5v2l-3-1.5z"/><path d="m61 125.5 3 1.5v2l-3-1.5z"/><path d="m65 127.5 3 1.5v2l-3-1.5z"/><path d="m69 129.5 3 1.5v2l-3-1.5z"/><path d="m73 131.5 3 1.5v2l-3-1.5z"/><path d="m77 133.5 3 1.5v2l-3-1.5z"/><path d="m81 135.5 3 1.5v2l-3-1.5z"/><path d="m85 137.5 3 1.5v2l-3-1.5z"/><path d="m89 139.5 3 1.5v2l-3-1.5z"/><path d="m93 141.5 3 1.5v2l-3-1.5z"/><path d="m2 95-2-1v-2l2 1z"/><path d="m6 97-3-1.5v-2l3 1.5z"/><path d="m7 95.5 3 1.5v2l-3-1.5z"/><path d="m11 97.5 3 1.5v2l-3-1.5z"/><path d="m15 99.5 3 1.5v2l-3-1.5z"/><path d="m19 101.5 3 1.5v2l-3-1.5z"/><path d="m23 103.5 3 1.5v2l-3-1.5z"/><path d="m27 105.5 3 1.5v2l-3-1.5z"/><path d="m31 107.5 3 1.5v2l-3-1.5z"/><path d="m35 109.5 3 1.5v2l-3-1.5z"/><path d="m39 111.5 3 1.5v2l-3-1.5z"/><path d="m43 113.5 3 1.5v2l-3-1.5z"/><path d="m47 115.5 3 1.5v2l-3-1.5z"/><path d="m51 117.5 3 1.5v2l-3-1.5z"/><path d="m55 119.5 3 1.5v2l-3-1.5z"/><path d="m59 121.5 3 1.5v2l-3-1.5z"/><path d="m63 123.5 3 1.5v2l-3-1.5z"/><path d="m67 125.5 3 1.5v2l-3-1.5z"/><path d="m71 127.5 3 1.5v2l-3-1.5z"/><path d="m75 129.5 3 1.5v2l-3-1.5z"/><path d="m79 131.5 3 1.5v2l-3-1.5z"/><path d="m83 133.5 3 1.5v2l-3-1.5z"/><path d="m90 139-3-1.5v-2l3 1.5z"/><path d="m94 141-3-1.5v-2l3 1.5z"/><path d="m95 139.5 1 .5v2l-1-.5z"/><path d="m1 89.5 3 1.5v2l-3-1.5z"/><path d="m5 91.5 3 1.5v2l-3-1.5z"/><path d="m9 93.5 3 1.5v2l-3-1.5z"/><path d="m13 95.5 3 1.5v2l-3-1.5z"/><path d="m17 97.5 3 1.5v2l-3-1.5z"/><path d="m21 99.5 3 1.5v2l-3-1.5z"/><path d="m25 101.5 3 1.5v2l-3-1.5z"/><path d="m29 103.5 3 1.5v2l-3-1.5z"/><path d="m33 105.5 3 1.5v2l-3-1.5z"/><path d="m37 107.5 3 1.5v2l-3-1.5z"/><path d="m41 109.5 3 1.5v2l-3-1.5z"/><path d="m45 111.5 3 1.5v2l-3-1.5z"/><path d="m49 113.5 3 1.5v2l-3-1.5z"/><path d="m53 115.5 3 1.5v2l-3-1.5z"/><path d="m57 117.5 3 1.5v2l-3-1.5z"/><path d="m61 119.5 3 1.5v2l-3-1.5z"/><path d="m65 121.5 3 1.5v2l-3-1.5z"/><path d="m69 123.5 3 1.5v2l-3-1.5z"/><path d="m73 125.5 3 1.5v2l-3-1.5z"/><path d="m77 127.5 3 1.5v2l-3-1.5z"/><path d="m81 129.5 3 1.5v2l-3-1.5z"/><path d="m85 131.5 3 1.5v2l-3-1.5z"/><path d="m89 133.5 3 1.5v2l-3-1.5z"/><path d="m93 135.5 3 1.5v2l-3-1.5z"/><path d="m2 89-2-1v-2l2 1z"/><path d="m6 91-3-1.5v-2l3 1.5z"/><path d="m10 93-3-1.5v-2l3 1.5z"/><path d="m11 91.5 3 1.5v2l-3-1.5z"/><path d="m15 93.5 3 1.5v2l-3-1.5z"/><path d="m19 95.5 3 1.5v2l-3-1.5z"/><path d="m23 97.5 3 1.5v2l-3-1.5z"/><path d="m27 99.5 3 1.5v2l-3-1.5z"/><path d="m31 101.5 3 1.5v2l-3-1.5z"/><path d="m35 103.5 3 1.5v2l-3-1.5z"/><path d="m39 105.5 3 1.5v2l-3-1.5z"/><path d="m43 107.5 3 1.5v2l-3-1.5z"/><path d="m47 109.5 3 1.5v2l-3-1.5z"/><path d="m51 111.5 3 1.5v2l-3-1.5z"/><path d="m55 113.5 3 1.5v2l-3-1.5z"/><path d="m59 115.5 3 1.5v2l-3-1.5z"/><path d="m63 117.5 3 1.5v2l-3-1.5z"/><path d="m67 119.5 3 1.5v2l-3-1.5z"/><path d="m71 121.5 3 1.5v2l-3-1.5z"/><path d="m75 123.5 3 1.5v2l-3-1.5z"/><path d="m79 125.5 3 1.5v2l-3-1.5z"/><path d="m86 131-3-1.5v-2l3 1.5z"/><path d="m90 133-3-1.5v-2l3 1.5z"/><path d="m94 135-3-1.5v-2l3 1.5z"/><path d="m95 133.5 1 .5v2l-1-.5z"/><path d="m1 83.5 3 1.5v2l-3-1.5z"/><path d="m5 85.5 3 1.5v2l-3-1.5z"/><path d="m9 87.5 3 1.5v2l-3-1.5z"/><path d="m13 89.5 3 1.5v2l-3-1.5z"/><path d="m17 91.5 3 1.5v2l-3-1.5z"/><path d="m21 93.5 3 1.5v2l-3-1.5z"/><path d="m25 95.5 3 1.5v2l-3-1.5z"/><path d="m29 97.5 3 1.5v2l-3-1.5z"/><path d="m33 99.5 3 1.5v2l-3-1.5z"/><path d="m37 101.5 3 1.5v2l-3-1.5z"/><path d="m41 103.5 3 1.5v2l-3-1.5z"/><path d="m45 105.5 3 1.5v2l-3-1.5z"/><path d="m49 107.5 3 1.5v2l-3-1.5z"/><path d="m53 109.5 3 1.5v2l-3-1.5z"/><path d="m57 111.5 3 1.5v2l-3-1.5z"/><path d="m61 113.5 3 1.5v2l-3-1.5z"/><path d="m65 115.5 3 1.5v2l-3-1.5z"/><path d="m69 117.5 3 1.5v2l-3-1.5z"/><path d="m73 119.5 3 1.5v2l-3-1.5z"/><path d="m77 121.5 3 1.5v2l-3-1.5z"/><path d="m81 123.5 3 1.5v2l-3-1.5z"/><path d="m85 125.5 3 1.5v2l-3-1.5z"/><path d="m89 127.5 3 1.5v2l-3-1.5z"/><path d="m93 129.5 3 1.5v2l-3-1.5z"/><path d="m2 83-2-1v-2l2 1z"/><path d="m6 85-3-1.5v-2l3 1.5z"/><path d="m10 87-3-1.5v-2l3 1.5z"/><path d="m14 89-3-1.5v-2l3 1.5z"/><path d="m15 87.5 3 1.5v2l-3-1.5z"/><path d="m19 89.5 3 1.5v2l-3-1.5z"/><path d="m23 91.5 3 1.5v2l-3-1.5z"/><path d="m27 93.5 3 1.5v2l-3-1.5z"/><path d="m31 95.5 3 1.5v2l-3-1.5z"/><path d="m35 97.5 3 1.5v2l-3-1.5z"/><path d="m39 99.5 3 1.5v2l-3-1.5z"/><path d="m43 101.5 3 1.5v2l-3-1.5z"/><path d="m47 103.5 3 1.5v2l-3-1.5z"/><path d="m51 105.5 3 1.5v2l-3-1.5z"/><path d="m55 107.5 3 1.5v2l-3-1.5z"/><path d="m59 109.5 3 1.5v2l-3-1.5z"/><path d="m63 111.5 3 1.5v2l-3-1.5z"/><path d="m67 113.5 3 1.5v2l-3-1.5z"/><path d="m71 115.5 3 1.5v2l-3-1.5z"/><path d="m75 117.5 3 1.5v2l-3-1.5z"/><path d="m82 123-3-1.5v-2l3 1.5z"/><path d="m86 125-3-1.5v-2l3 1.5z"/><path d="m90 127-3-1.5v-2l3 1.5z"/><path d="m94 129-3-1.5v-2l3 1.5z"/><path d="m95 127.5 1 .5v2l-1-.5z"/><path d="m1 77.5 3 1.5v2l-3-1.5z"/><path d="m5 79.5 3 1.5v2l-3-1.5z"/><path d="m9 81.5 3 1.5v2l-3-1.5z"/><path d="m13 83.5 3 1.5v2l-3-1.5z"/><path d="m17 85.5 3 1.5v2l-3-1.5z"/><path d="m21 87.5 3 1.5v2l-3-1.5z"/><path d="m25 89.5 3 1.5v2l-3-1.5z"/><path d="m29 91.5 3 1.5v2l-3-1.5z"/><path d="m33 93.5 3 1.5v2l-3-1.5z"/><path d="m37 95.5 3 1.5v2l-3-1.5z"/><path d="m41 97.5 3 1.5v2l-3-1.5z"/><path d="m45 99.5 3 1.5v2l-3-1.5z"/><path d="m49 101.5 3 1.5v2l-3-1.5z"/><path d="m53 103.5 3 1.5v2l-3-1.5z"/><path d="m57 105.5 3 1.5v2l-3-1.5z"/><path d="m61 107.5 3 1.5v2l-3-1.5z"/><path d="m65 109.5 3 1.5v2l-3-1.5z"/><path d="m69 111.5 3 1.5v2l-3-1.5z"/><path d="m73 113.5 3 1.5v2l-3-1.5z"/><path d="m77 115.5 3 1.5v2l-3-1.5z"/><path d="m81 117.5 3 1.5v2l-3-1.5z"/><path d="m85 119.5 3 1.5v2l-3-1.5z"/><path d="m89 121.5 3 1.5v2l-3-1.5z"/><path d="m93 123.5 3 1.5v2l-3-1.5z"/><path d="m2 77-2-1v-2l2 1z"/><path d="m6 79-3-1.5v-2l3 1.5z"/><path d="m10 81-3-1.5v-2l3 1.5z"/><path d="m14 83-3-1.5v-2l3 1.5z"/><path d="m18 85-3-1.5v-2l3 1.5z"/><path d="m22 87-3-1.5v-2l3 1.5z"/><path d="m26 89-3-1.5v-2l3 1.5z"/><path d="m30 91-3-1.5v-2l3 1.5z"/><path d="m34 93-3-1.5v-2l3 1.5z"/><path d="m38 95-3-1.5v-2l3 1.5z"/><path d="m42 97-3-1.5v-2l3 1.5z"/><path d="m46 99-3-1.5v-2l3 1.5z"/><path d="m50 101-3-1.5v-2l3 1.5z"/><path d="m54 103-3-1.5v-2l3 1.5z"/><path d="m58 105-3-1.5v-2l3 1.5z"/><path d="m62 107-3-1.5v-2l3 1.5z"/><path d="m66 109-3-1.5v-2l3 1.5z"/><path d="m70 111-3-1.5v-2l3 1.5z"/><path d="m74 113-3-1.5v-2l3 1.5z"/><path d="m78 115-3-1.5v-2l3 1.5z"/><path d="m82 117-3-1.5v-2l3 1.5z"/><path d="m86 119-3-1.5v-2l3 1.5z"/><path d="m90 121-3-1.5v-2l3 1.5z"/><path d="m94 123-3-1.5v-2l3 1.5z"/><path d="m95 121.5 1 .5v2l-1-.5z"/><path d="m1 71.5 3 1.5v2l-3-1.5z"/><path d="m5 73.5 3 1.5v2l-3-1.5z"/><path d="m9 75.5 3 1.5v2l-3-1.5z"/><path d="m13 77.5 3 1.5v2l-3-1.5z"/><path d="m17 79.5 3 1.5v2l-3-1.5z"/><path d="m24 85-3-1.5v-2l3 1.5z"/><path d="m28 87-3-1.5v-2l3 1.5z"/><path d="m32 89-3-1.5v-2l3 1.5z"/><path d="m36 91-3-1.5v-2l3 1.5z"/><path d="m40 93-3-1.5v-2l3 1.5z"/><path d="m44 95-3-1.5v-2l3 1.5z"/><path d="m48 97-3-1.5v-2l3 1.5z"/><path d="m52 99-3-1.5v-2l3 1.5z"/><path d="m56 101-3-1.5v-2l3 1.5z"/><path d="m60 103-3-1.5v-2l3 1.5z"/><path d="m64 105-3-1.5v-2l3 1.5z"/><path d="m68 107-3-1.5v-2l3 1.5z"/><path d="m72 109-3-1.5v-2l3 1.5z"/><path d="m76 111-3-1.5v-2l3 1.5z"/><path d="m80 113-3-1.5v-2l3 1.5z"/><path d="m81 111.5 3 1.5v2l-3-1.5z"/><path d="m85 113.5 3 1.5v2l-3-1.5z"/><path d="m89 115.5 3 1.5v2l-3-1.5z"/><path d="m93 117.5 3 1.5v2l-3-1.5z"/><path d="m2 71-2-1v-2l2 1z"/><path d="m6 73-3-1.5v-2l3 1.5z"/><path d="m10 75-3-1.5v-2l3 1.5z"/><path d="m14 77-3-1.5v-2l3 1.5z"/><path d="m18 79-3-1.5v-2l3 1.5z"/><path d="m22 81-3-1.5v-2l3 1.5z"/><path d="m26 83-3-1.5v-2l3 1.5z"/><path d="m30 85-3-1.5v-2l3 1.5z"/><path d="m34 87-3-1.5v-2l3 1.5z"/><path d="m38 89-3-1.5v-2l3 1.5z"/><path d="m42 91-3-1.5v-2l3 1.5z"/><path d="m46 93-3-1.5v-2l3 1.5z"/><path d="m50 95-3-1.5v-2l3 1.5z"/><path d="m54 97-3-1.5v-2l3 1.5z"/><path d="m58 99-3-1.5v-2l3 1.5z"/><path d="m62 101-3-1.5v-2l3 1.5z"/><path d="m66 103-3-1.5v-2l3 1.5z"/><path d="m70 105-3-1.5v-2l3 1.5z"/><path d="m74 107-3-1.5v-2l3 1.5z"/><path d="m78 109-3-1.5v-2l3 1.5z"/><path d="m82 111-3-1.5v-2l3 1.5z"/><path d="m86 113-3-1.5v-2l3 1.5z"/><path d="m90 115-3-1.5v-2l3 1.5z"/><path d="m94 117-3-1.5v-2l3 1.5z"/><path d="m95 115.5 1 .5v2l-1-.5z"/><path d="m1 65.5 3 1.5v2l-3-1.5z"/><path d="m5 67.5 3 1.5v2l-3-1.5z"/><path d="m9 69.5 3 1.5v2l-3-1.5z"/><path d="m13 71.5 3 1.5v2l-3-1.5z"/><path d="m20 77-3-1.5v-2l3 1.5z"/><path d="m24 79-3-1.5v-2l3 1.5z"/><path d="m28 81-3-1.5v-2l3 1.5z"/><path d="m32 83-3-1.5v-2l3 1.5z"/><path d="m36 85-3-1.5v-2l3 1.5z"/><path d="m40 87-3-1.5v-2l3 1.5z"/><path d="m44 89-3-1.5v-2l3 1.5z"/><path d="m48 91-3-1.5v-2l3 1.5z"/><path d="m52 93-3-1.5v-2l3 1.5z"/><path d="m56 95-3-1.5v-2l3 1.5z"/><path d="m60 97-3-1.5v-2l3 1.5z"/><path d="m64 99-3-1.5v-2l3 1.5z"/><path d="m68 101-3-1.5v-2l3 1.5z"/><path d="m72 103-3-1.5v-2l3 1.5z"/><path d="m76 105-3-1.5v-2l3 1.5z"/><path d="m80 107-3-1.5v-2l3 1.5z"/><path d="m84 109-3-1.5v-2l3 1.5z"/><path d="m85 107.5 3 1.5v2l-3-1.5z"/><path d="m89 109.5 3 1.5v2l-3-1.5z"/><path d="m93 111.5 3 1.5v2l-3-1.5z"/><path d="m2 65-2-1v-2l2 1z"/><path d="m6 67-3-1.5v-2l3 1.5z"/><path d="m10 69-3-1.5v-2l3 1.5z"/><path d="m14 71-3-1.5v-2l3 1.5z"/><path d="m18 73-3-1.5v-2l3 1.5z"/><path d="m22 75-3-1.5v-2l3 1.5z"/><path d="m26 77-3-1.5v-2l3 1.5z"/><path d="m30 79-3-1.5v-2l3 1.5z"/><path d="m34 81-3-1.5v-2l3 1.5z"/><path d="m38 83-3-1.5v-2l3 1.5z"/><path d="m42 85-3-1.5v-2l3 1.5z"/><path d="m46 87-3-1.5v-2l3 1.5z"/><path d="m50 89-3-1.5v-2l3 1.5z"/><path d="m54 91-3-1.5v-2l3 1.5z"/><path d="m58 93-3-1.5v-2l3 1.5z"/><path d="m62 95-3-1.5v-2l3 1.5z"/><path d="m66 97-3-1.5v-2l3 1.5z"/><path d="m70 99-3-1.5v-2l3 1.5z"/><path d="m74 101-3-1.5v-2l3 1.5z"/><path d="m78 103-3-1.5v-2l3 1.5z"/><path d="m82 105-3-1.5v-2l3 1.5z"/><path d="m86 107-3-1.5v-2l3 1.5z"/><path d="m90 109-3-1.5v-2l3 1.5z"/><path d="m94 111-3-1.5v-2l3 1.5z"/><path d="m95 109.5 1 .5v2l-1-.5z"/><path d="m1 59.5 3 1.5v2l-3-1.5z"/><path d="m5 61.5 3 1.5v2l-3-1.5z"/><path d="m9 63.5 3 1.5v2l-3-1.5z"/><path d="m16 69-3-1.5v-2l3 1.5z"/><path d="m20 71-3-1.5v-2l3 1.5z"/><path d="m24 73-3-1.5v-2l3 1.5z"/><path d="m28 75-3-1.5v-2l3 1.5z"/><path d="m32 77-3-1.5v-2l3 1.5z"/><path d="m36 79-3-1.5v-2l3 1.5z"/><path d="m40 81-3-1.5v-2l3 1.5z"/><path d="m44 83-3-1.5v-2l3 1.5z"/><path d="m48 85-3-1.5v-2l3 1.5z"/><path d="m52 87-3-1.5v-2l3 1.5z"/><path d="m56 89-3-1.5v-2l3 1.5z"/><path d="m60 91-3-1.5v-2l3 1.5z"/><path d="m64 93-3-1.5v-2l3 1.5z"/><path d="m68 95-3-1.5v-2l3 1.5z"/><path d="m72 97-3-1.5v-2l3 1.5z"/><path d="m76 99-3-1.5v-2l3 1.5z"/><path d="m80 101-3-1.5v-2l3 1.5z"/><path d="m84 103-3-1.5v-2l3 1.5z"/><path d="m88 105-3-1.5v-2l3 1.5z"/><path d="m89 103.5 3 1.5v2l-3-1.5z"/><path d="m93 105.5 3 1.5v2l-3-1.5z"/><path d="m2 59-2-1v-2l2 1z"/><path d="m6 61-3-1.5v-2l3 1.5z"/><path d="m10 63-3-1.5v-2l3 1.5z"/><path d="m14 65-3-1.5v-2l3 1.5z"/><path d="m18 67-3-1.5v-2l3 1.5z"/><path d="m22 69-3-1.5v-2l3 1.5z"/><path d="m26 71-3-1.5v-2l3 1.5z"/><path d="m30 73-3-1.5v-2l3 1.5z"/><path d="m34 75-3-1.5v-2l3 1.5z"/><path d="m38 77-3-1.5v-2l3 1.5z"/><path d="m42 79-3-1.5v-2l3 1.5z"/><path d="m46 81-3-1.5v-2l3 1.5z"/><path d="m50 83-3-1.5v-2l3 1.5z"/><path d="m54 85-3-1.5v-2l3 1.5z"/><path d="m58 87-3-1.5v-2l3 1.5z"/><path d="m62 89-3-1.5v-2l3 1.5z"/><path d="m66 91-3-1.5v-2l3 1.5z"/><path d="m70 93-3-1.5v-2l3 1.5z"/><path d="m74 95-3-1.5v-2l3 1.5z"/><path d="m78 97-3-1.5v-2l3 1.5z"/><path d="m82 99-3-1.5v-2l3 1.5z"/><path d="m86 101-3-1.5v-2l3 1.5z"/><path d="m90 103-3-1.5v-2l3 1.5z"/><path d="m94 105-3-1.5v-2l3 1.5z"/><path d="m95 103.5 1 .5v2l-1-.5z"/><path d="m1 53.5 3 1.5v2l-3-1.5z"/><path d="m5 55.5 3 1.5v2l-3-1.5z"/><path d="m12 61-3-1.5v-2l3 1.5z"/><path d="m16 63-3-1.5v-2l3 1.5z"/><path d="m20 65-3-1.5v-2l3 1.5z"/><path d="m24 67-3-1.5v-2l3 1.5z"/><path d="m28 69-3-1.5v-2l3 1.5z"/><path d="m32 71-3-1.5v-2l3 1.5z"/><path d="m36 73-3-1.5v-2l3 1.5z"/><path d="m40 75-3-1.5v-2l3 1.5z"/><path d="m44 77-3-1.5v-2l3 1.5z"/><path d="m48 79-3-1.5v-2l3 1.5z"/><path d="m52 81-3-1.5v-2l3 1.5z"/><path d="m56 83-3-1.5v-2l3 1.5z"/><path d="m60 85-3-1.5v-2l3 1.5z"/><path d="m64 87-3-1.5v-2l3 1.5z"/><path d="m68 89-3-1.5v-2l3 1.5z"/><path d="m72 91-3-1.5v-2l3 1.5z"/><path d="m76 93-3-1.5v-2l3 1.5z"/><path d="m80 95-3-1.5v-2l3 1.5z"/><path d="m84 97-3-1.5v-2l3 1.5z"/><path d="m88 99-3-1.5v-2l3 1.5z"/><path d="m92 101-3-1.5v-2l3 1.5z"/><path d="m93 99.5 3 1.5v2l-3-1.5z"/><path d="m2 51v2l-2-1v-2z"/><path d="m3 51.5 3 1.5v2l-3-1.5z"/><path d="m7 53.5 3 1.5v2l-3-1.5z"/><path d="m11 55.5 3 1.5v2l-3-1.5z"/><path d="m15 57.5 3 1.5v2l-3-1.5z"/><path d="m19 59.5 3 1.5v2l-3-1.5z"/><path d="m23 61.5 3 1.5v2l-3-1.5z"/><path d="m27 63.5 3 1.5v2l-3-1.5z"/><path d="m31 65.5 3 1.5v2l-3-1.5z"/><path d="m35 67.5 3 1.5v2l-3-1.5z"/><path d="m39 69.5 3 1.5v2l-3-1.5z"/><path d="m43 71.5 3 1.5v2l-3-1.5z"/><path d="m47 73.5 3 1.5v2l-3-1.5z"/><path d="m51 75.5 3 1.5v2l-3-1.5z"/><path d="m55 77.5 3 1.5v2l-3-1.5z"/><path d="m59 79.5 3 1.5v2l-3-1.5z"/><path d="m63 81.5 3 1.5v2l-3-1.5z"/><path d="m67 83.5 3 1.5v2l-3-1.5z"/><path d="m71 85.5 3 1.5v2l-3-1.5z"/><path d="m75 87.5 3 1.5v2l-3-1.5z"/><path d="m79 89.5 3 1.5v2l-3-1.5z"/><path d="m83 91.5 3 1.5v2l-3-1.5z"/><path d="m87 93.5 3 1.5v2l-3-1.5z"/><path d="m91 95.5 3 1.5v2l-3-1.5z"/><path d="m95 97.5 1 .5v2l-1-.5z"/></g><g fill="#762c07" opacity=".6"><path d="m4 105-3-1.5v-2l3 1.5z"/><path d="m96 151-3-1.5v-2l3 1.5z"/><path d="m2 101-2-1v-2l2 1z"/><path d="m95 145.5 1 .5v2l-1-.5z"/><path d="m1 95.5 3 1.5v2l-3-1.5z"/><path d="m96 145-3-1.5v-2l3 1.5z"/><path d="m2 95-2-1v-2l2 1z"/><path d="m95 139.5 1 .5v2l-1-.5z"/><path d="m1 89.5 3 1.5v2l-3-1.5z"/><path d="m96 139-3-1.5v-2l3 1.5z"/><path d="m2 89-2-1v-2l2 1z"/><path d="m95 133.5 1 .5v2l-1-.5z"/><path d="m1 83.5 3 1.5v2l-3-1.5z"/><path d="m96 133-3-1.5v-2l3 1.5z"/><path d="m2 83-2-1v-2l2 1z"/><path d="m28 93-3-1.5v-2l3 1.5z"/><path d="m95 127.5 1 .5v2l-1-.5z"/><path d="m1 77.5 3 1.5v2l-3-1.5z"/><path d="m52 105-3-1.5v-2l3 1.5z"/><path d="m66 133-3-1.5v-2l3 1.5z"/><path d="m64 123-3-1.5v-2l3 1.5z"/><path d="m34 111-3-1.5v-2l3 1.5z"/><path d="m80 119-3-1.5v-2l3 1.5z"/><path d="m96 127-3-1.5v-2l3 1.5z"/><path d="m2 77-2-1v-2l2 1z"/><path d="m38 95-3-1.5v-2l3 1.5z"/><path d="m62 107-3-1.5v-2l3 1.5z"/><path d="m90 121-3-1.5v-2l3 1.5z"/><path d="m95 121.5 1 .5v2l-1-.5z"/><path d="m1 71.5 3 1.5v2l-3-1.5z"/><path d="m16 81-3-1.5v-2l3 1.5z"/><path d="m76 111-3-1.5v-2l3 1.5z"/><path d="m96 121-3-1.5v-2l3 1.5z"/><path d="m2 71-2-1v-2l2 1z"/><path d="m26 83-3-1.5v-2l3 1.5z"/><path d="m46 93-3-1.5v-2l3 1.5z"/><path d="m86 113-3-1.5v-2l3 1.5z"/><path d="m95 115.5 1 .5v2l-1-.5z"/><path d="m1 65.5 3 1.5v2l-3-1.5z"/><path d="m12 73-3-1.5v-2l3 1.5z"/><path d="m65 97.5 3 1.5v2l-3-1.5z"/><path d="m96 115-3-1.5v-2l3 1.5z"/><path d="m2 65-2-1v-2l2 1z"/><path d="m34 81-3-1.5v-2l3 1.5z"/><path d="m51 87.5 3 1.5v2l-3-1.5z"/><path d="m74 101-3-1.5v-2l3 1.5z"/><path d="m95 109.5 1 .5v2l-1-.5z"/><path d="m1 59.5 3 1.5v2l-3-1.5z"/><path d="m24 73-3-1.5v-2l3 1.5z"/><path d="m85 101.5 3 1.5v2l-3-1.5z"/><path d="m96 109-3-1.5v-2l3 1.5z"/><path d="m2 59-2-1v-2l2 1z"/><path d="m42 79-3-1.5v-2l3 1.5z"/><path d="m62 89-3-1.5v-2l3 1.5z"/><path d="m95 103.5 1 .5v2l-1-.5z"/><path d="m1 53.5 3 1.5v2l-3-1.5z"/><path d="m16 63-3-1.5v-2l3 1.5z"/><path d="m72 91-3-1.5v-2l3 1.5z"/><path d="m96 103-3-1.5v-2l3 1.5z"/><path d="m2 51v2l-2-1v-2z"/><path d="m27 63.5 3 1.5v2l-3-1.5z"/><path d="m50 77-3-1.5v-2l3 1.5z"/><path d="m86 95-3-1.5v-2l3 1.5z"/><path d="m95 97.5 1 .5v2l-1-.5z"/></g><g fill="#762c07" opacity=".3"><path d="m29 79.5 3 1.5v2l-3-1.5z"/><path d="m20 89-3-1.5v-2l3 1.5z"/><path d="m44 101-3-1.5v-2l3 1.5z"/><path d="m58 129-3-1.5v-2l3 1.5z"/><path d="m56 119-3-1.5v-2l3 1.5z"/><path d="m26 107-3-1.5v-2l3 1.5z"/><path d="m72 115-3-1.5v-2l3 1.5z"/><path d="m30 91-3-1.5v-2l3 1.5z"/><path d="m54 103-3-1.5v-2l3 1.5z"/><path d="m82 117-3-1.5v-2l3 1.5z"/><path d="m8 77-3-1.5v-2l3 1.5z"/><path d="m68 107-3-1.5v-2l3 1.5z"/><path d="m18 79-3-1.5v-2l3 1.5z"/><path d="m38 89-3-1.5v-2l3 1.5z"/><path d="m78 109-3-1.5v-2l3 1.5z"/><path d="m63 81.5 3 1.5v2l-3-1.5z"/><path d="m4 69-3-1.5v-2l3 1.5z"/><path d="m57 93.5 3 1.5v2l-3-1.5z"/><path d="m26 77-3-1.5v-2l3 1.5z"/><path d="m43 83.5 3 1.5v2l-3-1.5z"/><path d="m66 97-3-1.5v-2l3 1.5z"/><path d="m89 103.5 3 1.5v2l-3-1.5z"/><path d="m16 69-3-1.5v-2l3 1.5z"/><path d="m77 97.5 3 1.5v2l-3-1.5z"/><path d="m34 75-3-1.5v-2l3 1.5z"/><path d="m54 85-3-1.5v-2l3 1.5z"/><path d="m33 69.5 3 1.5v2l-3-1.5z"/><path d="m8 59-3-1.5v-2l3 1.5z"/><path d="m64 87-3-1.5v-2l3 1.5z"/><path d="m19 59.5 3 1.5v2l-3-1.5z"/><path d="m42 73-3-1.5v-2l3 1.5z"/><path d="m78 91-3-1.5v-2l3 1.5z"/></g><path d="m65 136.5 28 14v-24l-28-14z" fill="#fff"/><path d="m92 127-26-13v23l26 13z" fill="#cc291f"/><g fill="#fff"><path d="m66 136 26 13v-1l-26-13z" opacity=".25"/><path d="m66 134 26 13v-1l-26-13z" opacity=".25"/><path d="m66 132 26 13v-1l-26-13z" opacity=".25"/><path d="m66 130 26 13v-1l-26-13z" opacity=".25"/><path d="m66 128 26 13v-1l-26-13z" opacity=".25"/><path d="m66 126 26 13v-1l-26-13z" opacity=".25"/><path d="m66 124 26 13v-1l-26-13z" opacity=".25"/><path d="m66 122 26 13v-1l-26-13z" opacity=".25"/><path d="m66 120 26 13v-1l-26-13z" opacity=".25"/><path d="m66 118 26 13v-1l-26-13z" opacity=".25"/><path d="m66 116 26 13v-1l-26-13z" opacity=".25"/></g><path d="m86 130 4 2v-4l-4-2z" fill="#656565"/><path d="m80 127 4 2v-4l-4-2z" fill="#656565"/><path d="m74 124 4 2v-4l-4-2z" fill="#656565"/><path d="m68 121 4 2v-4l-4-2z" fill="#656565"/><path d="m86 136 4 2v-4l-4-2z" fill="#656565"/><path d="m80 133 4 2v-4l-4-2z" fill="#656565"/><path d="m74 130 4 2v-4l-4-2z" fill="#656565"/><path d="m68 127 4 2v-4l-4-2z" fill="#656565"/><path d="m86 127 4 2v-1l-4-2z" opacity=".5"/><path d="m80 124 4 2v-1l-4-2z" opacity=".5"/><path d="m74 121 4 2v-1l-4-2z" opacity=".5"/><path d="m68 118 4 2v-1l-4-2z" opacity=".5"/><path d="m86 133 4 2v-1l-4-2z" opacity=".5"/><path d="m80 130 4 2v-1l-4-2z" opacity=".5"/><path d="m74 127 4 2v-1l-4-2z" opacity=".5"/><path d="m68 124 4 2v-1l-4-2z" opacity=".5"/><path d="m34 121 28 14v-24l-28-14z" fill="#fff"/><path d="m61 111.5-26-13v23l26 13z" fill="#cc291f"/><path d="m35 120.5 26 13v-1l-26-13z" fill="#fff" opacity=".25"/><path d="m35 118.5 26 13v-1l-26-13z" fill="#fff" opacity=".25"/><path d="m35 116.5 26 13v-1l-26-13z" fill="#fff" opacity=".25"/><path d="m35 114.5 26 13v-1l-26-13z" fill="#fff" opacity=".25"/><path d="m35 112.5 26 13v-1l-26-13z" fill="#fff" opacity=".25"/><path d="m35 110.5 26 13v-1l-26-13z" fill="#fff" opacity=".25"/><path d="m35 108.5 26 13v-1l-26-13z" fill="#fff" opacity=".25"/><path d="m35 106.5 26 13v-1l-26-13z" fill="#fff" opacity=".25"/><path d="m35 104.5 26 13v-1l-26-13z" fill="#fff" opacity=".25"/><path d="m35 102.5 26 13v-1l-26-13z" fill="#fff" opacity=".25"/><path d="m35 100.5 26 13v-1l-26-13z" fill="#fff" opacity=".25"/><path d="m55 114.5 4 2v-4l-4-2z" fill="#656565"/><path d="m49 111.5 4 2v-4l-4-2z" fill="#656565"/><path d="m43 108.5 4 2v-4l-4-2z" fill="#656565"/><path d="m37 105.5 4 2v-4l-4-2z" fill="#656565"/><path d="m55 120.5 4 2v-4l-4-2z" fill="#656565"/><path d="m49 117.5 4 2v-4l-4-2z" fill="#656565"/><path d="m43 114.5 4 2v-4l-4-2z" fill="#656565"/><path d="m37 111.5 4 2v-4l-4-2z" fill="#656565"/><path d="m55 111.5 4 2v-1l-4-2z" opacity=".5"/><path d="m49 108.5 4 2v-1l-4-2z" opacity=".5"/><path d="m43 105.5 4 2v-1l-4-2z" opacity=".5"/><path d="m37 102.5 4 2v-1l-4-2z" opacity=".5"/><path d="m55 117.5 4 2v-1l-4-2z" opacity=".5"/><path d="m49 114.5 4 2v-1l-4-2z" opacity=".5"/><path d="m43 111.5 4 2v-1l-4-2z" opacity=".5"/><path d="m37 108.5 4 2v-1l-4-2z" opacity=".5"/><path d="m3 105.5 28 14v-24l-28-14z" fill="#fff"/><path d="m30 96-26-13v23l26 13z" fill="#cc291f"/><path d="m4 105 26 13v-1l-26-13z" fill="#fff" opacity=".25"/><path d="m4 103 26 13v-1l-26-13z" fill="#fff" opacity=".25"/><path d="m4 101 26 13v-1l-26-13z" fill="#fff" opacity=".25"/><path d="m4 99 26 13v-1l-26-13z" fill="#fff" opacity=".25"/><path d="m4 97 26 13v-1l-26-13z" fill="#fff" opacity=".25"/><path d="m4 95 26 13v-1l-26-13z" fill="#fff" opacity=".25"/><path d="m4 93 26 13v-1l-26-13z" fill="#fff" opacity=".25"/><path d="m4 91 26 13v-1l-26-13z" fill="#fff" opacity=".25"/><path d="m4 89 26 13v-1l-26-13z" fill="#fff" opacity=".25"/><path d="m4 87 26 13v-1l-26-13z" fill="#fff" opacity=".25"/><path d="m4 85 26 13v-1l-26-13z" fill="#fff" opacity=".25"/><path d="m24 99 4 2v-4l-4-2z" fill="#656565"/><path d="m18 96 4 2v-4l-4-2z" fill="#656565"/><path d="m12 93 4 2v-4l-4-2z" fill="#656565"/><path d="m6 90 4 2v-4l-4-2z" fill="#656565"/><path d="m24 105 4 2v-4l-4-2z" fill="#656565"/><path d="m18 102 4 2v-4l-4-2z" fill="#656565"/><path d="m12 99 4 2v-4l-4-2z" fill="#656565"/><path d="m6 96 4 2v-4l-4-2z" fill="#656565"/><path d="m24 96 4 2v-1l-4-2z" opacity=".5"/><path d="m18 93 4 2v-1l-4-2z" opacity=".5"/><path d="m12 90 4 2v-1l-4-2z" opacity=".5"/><path d="m6 87 4 2v-1l-4-2z" opacity=".5"/><path d="m24 102 4 2v-1l-4-2z" opacity=".5"/><path d="m18 99 4 2v-1l-4-2z" opacity=".5"/><path d="m12 96 4 2v-1l-4-2z" opacity=".5"/><path d="m6 93 4 2v-1l-4-2z" opacity=".5"/><path d="m87.1 96.5-.2-.1c-1.6-.8-2.9-.2-2.9 1.4v11.2l6 3v-11.1c0-1.6-1.3-3.6-2.9-4.4z" fill="#cc291f"/><path d="m85 100.5v-2c0-1.1.9-1.6 2-1s2 1.9 2 3v2z" fill="#656565"/><path d="m87 97.5c1.1.6 2 1.9 2 3v1c0-1.1-.9-2.4-2-3s-2-.1-2 1v-1c0-1.1.9-1.6 2-1z" opacity=".5"/><path d="m89 103.5v7l-4-2v-7z" fill="#656565"/><path d="m85 102.5 4 2v-1l-4-2z" opacity=".5"/><path d="m85 101.5 4 2v-1l-4-2z" fill="#cc291f"/><path d="m79.1 92.6-.2-.1c-1.6-.8-2.9-.2-2.9 1.4v11.1l6 3v-11.1c0-1.6-1.3-3.6-2.9-4.3z" fill="#cc291f"/><path d="m77 96.5v-2c0-1.1.9-1.6 2-1s2 1.9 2 3v2z" fill="#656565"/><path d="m79 93.5c1.1.6 2 1.9 2 3v1c0-1.1-.9-2.4-2-3s-2-.1-2 1v-1c0-1.1.9-1.6 2-1z" opacity=".5"/><path d="m81 99.5v7l-4-2v-7z" fill="#656565"/><path d="m77 98.5 4 2v-1l-4-2z" opacity=".5"/><path d="m77 97.5 4 2v-1l-4-2z" fill="#cc291f"/><path d="m71.1 88.6-.2-.1c-1.6-.8-2.9-.2-2.9 1.4v11.1l6 3v-11.1c0-1.6-1.3-3.5-2.9-4.3z" fill="#cc291f"/><path d="m69 92.5v-2c0-1.1.9-1.6 2-1s2 1.9 2 3v2z" fill="#656565"/><path d="m71 89.5c1.1.6 2 1.9 2 3v1c0-1.1-.9-2.4-2-3s-2-.1-2 1v-1c0-1.1.9-1.6 2-1z" opacity=".5"/><path d="m73 95.5v7l-4-2v-7z" fill="#656565"/><path d="m69 94.5 4 2v-1l-4-2z" opacity=".5"/><path d="m69 93.5 4 2v-1l-4-2z" fill="#cc291f"/><path d="m56.1 81.1-.2-.1c-1.6-.8-2.9-.2-2.9 1.4v11.1l6 3v-11.1c0-1.6-1.3-3.5-2.9-4.3z" fill="#cc291f"/><path d="m54 85v-2c0-1.1.9-1.6 2-1s2 1.9 2 3v2z" fill="#656565"/><path d="m56 82c1.1.6 2 1.9 2 3v1c0-1.1-.9-2.4-2-3s-2-.1-2 1v-1c0-1.1.9-1.6 2-1z" opacity=".5"/><path d="m58 88v7l-4-2v-7z" fill="#656565"/><path d="m54 87 4 2v-1l-4-2z" opacity=".5"/><path d="m54 86 4 2v-1l-4-2z" fill="#cc291f"/><path d="m48.1 77.1-.2-.1c-1.6-.8-2.9-.2-2.9 1.4v11.1l6 3v-11.1c0-1.6-1.3-3.5-2.9-4.3z" fill="#cc291f"/><path d="m46 81v-2c0-1.1.9-1.6 2-1s2 1.9 2 3v2z" fill="#656565"/><path d="m48 78c1.1.6 2 1.9 2 3v1c0-1.1-.9-2.4-2-3s-2-.1-2 1v-1c0-1.1.9-1.6 2-1z" opacity=".5"/><path d="m50 84v7l-4-2v-7z" fill="#656565"/><path d="m46 83 4 2v-1l-4-2z" opacity=".5"/><path d="m46 82 4 2v-1l-4-2z" fill="#cc291f"/><path d="m40.1 73.1-.2-.1c-1.6-.8-2.9-.2-2.9 1.4v11.1l6 3v-11.1c0-1.6-1.3-3.5-2.9-4.3z" fill="#cc291f"/><path d="m38 77v-2c0-1.1.9-1.6 2-1s2 1.9 2 3v2z" fill="#656565"/><path d="m40 74c1.1.6 2 1.9 2 3v1c0-1.1-.9-2.4-2-3s-2-.1-2 1v-1c0-1.1.9-1.5 2-1z" opacity=".5"/><path d="m42 80v7l-4-2v-7z" fill="#656565"/><path d="m38 79 4 2v-1l-4-2z" opacity=".5"/><path d="m38 78 4 2v-1l-4-2z" fill="#cc291f"/><path d="m25.1 65.6-.2-.1c-1.6-.8-2.9-.2-2.9 1.4v11.1l6 3v-11.1c0-1.6-1.3-3.5-2.9-4.3z" fill="#cc291f"/><path d="m23 69.5v-2c0-1.1.9-1.6 2-1s2 1.9 2 3v2z" fill="#656565"/><path d="m25 66.5c1.1.6 2 1.9 2 3v1c0-1.1-.9-2.4-2-3s-2-.1-2 1v-1c0-1.1.9-1.5 2-1z" opacity=".5"/><path d="m27 72.5v7l-4-2v-7z" fill="#656565"/><path d="m23 71.5 4 2v-1l-4-2z" opacity=".5"/><path d="m23 70.5 4 2v-1l-4-2z" fill="#cc291f"/><path d="m17.1 61.6-.2-.1c-1.6-.8-2.9-.2-2.9 1.4v11.1l6 3v-11.1c0-1.6-1.3-3.5-2.9-4.3z" fill="#cc291f"/><path d="m15 65.5v-2c0-1.1.9-1.6 2-1s2 1.9 2 3v2z" fill="#656565"/><path d="m17 62.5c1.1.6 2 1.9 2 3v1c0-1.1-.9-2.4-2-3s-2-.1-2 1v-1c0-1.1.9-1.5 2-1z" opacity=".5"/><path d="m19 68.5v7l-4-2v-7z" fill="#656565"/><path d="m15 67.5 4 2v-1l-4-2z" opacity=".5"/><path d="m15 66.5 4 2v-1l-4-2z" fill="#cc291f"/><path d="m9.1 57.6-.2-.1c-1.6-.8-2.9-.2-2.9 1.4v11.1l6 3v-11.1c0-1.6-1.3-3.5-2.9-4.3z" fill="#cc291f"/><path d="m7 61.5v-2c0-1.1.9-1.6 2-1s2 1.9 2 3v2z" fill="#656565"/><path d="m9 58.5c1.1.6 2 1.9 2 3v1c0-1.1-.9-2.4-2-3s-2-.1-2 1v-1c0-1.1.9-1.5 2-1z" opacity=".5"/><path d="m11 64.5v7l-4-2v-7z" fill="#656565"/><path d="m7 63.5 4 2v-1l-4-2z" opacity=".5"/><path d="m7 62.5 4 2v-1l-4-2z" fill="#cc291f"/><path d="m93 115.5-90-45v9l90 45z" fill="#762c07"/><text fill="#fff" font-family="'ArialNarrow'" font-size="8" transform="matrix(1 .4999 0 1 26.1895 90.067)">FIRE STATION</text><path d="m6.3 22.2h107.3v53.7h-107.3z" fill="#2d3134" transform="matrix(-.8944 -.4472 .4472 -.8944 91.7525 119.6622)"/><path d="m6.3 22.2h107.3v53.7h-107.3z" opacity=".06" transform="matrix(-.8944 -.4472 .4472 -.8944 91.7525 119.6622)"/><path d="m23.4 2.3.6-1.3 96 48-.6 1.3z" fill="#fff" opacity=".2"/><path d="m144 144-16 8v-96l16-8z" fill="#baa794"/><g fill="#762c07" opacity=".4"><path d="m140 143 3-1.5v2l-3 1.5z"/><path d="m136 145 3-1.5v2l-3 1.5z"/><path d="m132 147 3-1.5v2l-3 1.5z"/><path d="m128 149 3-1.5v2l-3 1.5z"/><path d="m142 139 2-1v2l-2 1z"/><path d="m138 141 3-1.5v2l-3 1.5z"/><path d="m134 143 3-1.5v2l-3 1.5z"/><path d="m130 145 3-1.5v2l-3 1.5z"/><path d="m128 146 1-.5v2l-1 .5z"/><path d="m140 137 3-1.5v2l-3 1.5z"/><path d="m136 139 3-1.5v2l-3 1.5z"/><path d="m132 141 3-1.5v2l-3 1.5z"/><path d="m128 143 3-1.5v2l-3 1.5z"/><path d="m142 133 2-1v2l-2 1z"/><path d="m138 135 3-1.5v2l-3 1.5z"/><path d="m134 137 3-1.5v2l-3 1.5z"/><path d="m130 139 3-1.5v2l-3 1.5z"/><path d="m128 140 1-.5v2l-1 .5z"/><path d="m140 131 3-1.5v2l-3 1.5z"/><path d="m136 133 3-1.5v2l-3 1.5z"/><path d="m132 135 3-1.5v2l-3 1.5z"/><path d="m128 137 3-1.5v2l-3 1.5z"/><path d="m142 127 2-1v2l-2 1z"/><path d="m138 129 3-1.5v2l-3 1.5z"/><path d="m134 131 3-1.5v2l-3 1.5z"/><path d="m130 133 3-1.5v2l-3 1.5z"/><path d="m128 134 1-.5v2l-1 .5z"/><path d="m140 125 3-1.5v2l-3 1.5z"/><path d="m136 127 3-1.5v2l-3 1.5z"/><path d="m132 129 3-1.5v2l-3 1.5z"/><path d="m128 131 3-1.5v2l-3 1.5z"/><path d="m142 121 2-1v2l-2 1z"/><path d="m138 123 3-1.5v2l-3 1.5z"/><path d="m134 125 3-1.5v2l-3 1.5z"/><path d="m130 127 3-1.5v2l-3 1.5z"/><path d="m128 128 1-.5v2l-1 .5z"/><path d="m140 119 3-1.5v2l-3 1.5z"/><path d="m136 121 3-1.5v2l-3 1.5z"/><path d="m132 123 3-1.5v2l-3 1.5z"/><path d="m128 125 3-1.5v2l-3 1.5z"/><path d="m142 115 2-1v2l-2 1z"/><path d="m138 117 3-1.5v2l-3 1.5z"/><path d="m134 119 3-1.5v2l-3 1.5z"/><path d="m130 121 3-1.5v2l-3 1.5z"/><path d="m128 122 1-.5v2l-1 .5z"/><path d="m140 113 3-1.5v2l-3 1.5z"/><path d="m136 115 3-1.5v2l-3 1.5z"/><path d="m132 117 3-1.5v2l-3 1.5z"/><path d="m128 119 3-1.5v2l-3 1.5z"/><path d="m142 109 2-1v2l-2 1z"/><path d="m138 111 3-1.5v2l-3 1.5z"/><path d="m134 113 3-1.5v2l-3 1.5z"/><path d="m130 115 3-1.5v2l-3 1.5z"/><path d="m128 116 1-.5v2l-1 .5z"/><path d="m140 107 3-1.5v2l-3 1.5z"/><path d="m136 109 3-1.5v2l-3 1.5z"/><path d="m132 111 3-1.5v2l-3 1.5z"/><path d="m128 113 3-1.5v2l-3 1.5z"/><path d="m142 103 2-1v2l-2 1z"/><path d="m138 105 3-1.5v2l-3 1.5z"/><path d="m134 107 3-1.5v2l-3 1.5z"/><path d="m130 109 3-1.5v2l-3 1.5z"/><path d="m128 110 1-.5v2l-1 .5z"/><path d="m140 101 3-1.5v2l-3 1.5z"/><path d="m136 103 3-1.5v2l-3 1.5z"/><path d="m132 105 3-1.5v2l-3 1.5z"/><path d="m128 107 3-1.5v2l-3 1.5z"/><path d="m142 97 2-1v2l-2 1z"/><path d="m138 99 3-1.5v2l-3 1.5z"/><path d="m134 101 3-1.5v2l-3 1.5z"/><path d="m130 103 3-1.5v2l-3 1.5z"/><path d="m128 104 1-.5v2l-1 .5z"/><path d="m140 95 3-1.5v2l-3 1.5z"/><path d="m136 97 3-1.5v2l-3 1.5z"/><path d="m132 99 3-1.5v2l-3 1.5z"/><path d="m128 101 3-1.5v2l-3 1.5z"/><path d="m142 91 2-1v2l-2 1z"/><path d="m138 93 3-1.5v2l-3 1.5z"/><path d="m134 95 3-1.5v2l-3 1.5z"/><path d="m130 97 3-1.5v2l-3 1.5z"/><path d="m128 98 1-.5v2l-1 .5z"/><path d="m140 89 3-1.5v2l-3 1.5z"/><path d="m136 91 3-1.5v2l-3 1.5z"/><path d="m132 93 3-1.5v2l-3 1.5z"/><path d="m128 95 3-1.5v2l-3 1.5z"/><path d="m142 85 2-1v2l-2 1z"/><path d="m138 87 3-1.5v2l-3 1.5z"/><path d="m134 89 3-1.5v2l-3 1.5z"/><path d="m130 91 3-1.5v2l-3 1.5z"/><path d="m128 92 1-.5v2l-1 .5z"/><path d="m140 83 3-1.5v2l-3 1.5z"/><path d="m136 85 3-1.5v2l-3 1.5z"/><path d="m132 87 3-1.5v2l-3 1.5z"/><path d="m128 89 3-1.5v2l-3 1.5z"/><path d="m142 79 2-1v2l-2 1z"/><path d="m138 81 3-1.5v2l-3 1.5z"/><path d="m134 83 3-1.5v2l-3 1.5z"/><path d="m130 85 3-1.5v2l-3 1.5z"/><path d="m128 86 1-.5v2l-1 .5z"/><path d="m140 77 3-1.5v2l-3 1.5z"/><path d="m136 79 3-1.5v2l-3 1.5z"/><path d="m132 81 3-1.5v2l-3 1.5z"/><path d="m128 83 3-1.5v2l-3 1.5z"/><path d="m142 73 2-1v2l-2 1z"/><path d="m138 75 3-1.5v2l-3 1.5z"/><path d="m134 77 3-1.5v2l-3 1.5z"/><path d="m130 79 3-1.5v2l-3 1.5z"/><path d="m128 80 1-.5v2l-1 .5z"/><path d="m140 71 3-1.5v2l-3 1.5z"/><path d="m136 73 3-1.5v2l-3 1.5z"/><path d="m132 75 3-1.5v2l-3 1.5z"/><path d="m128 77 3-1.5v2l-3 1.5z"/><path d="m142 67 2-1v2l-2 1z"/><path d="m138 69 3-1.5v2l-3 1.5z"/><path d="m134 71 3-1.5v2l-3 1.5z"/><path d="m130 73 3-1.5v2l-3 1.5z"/><path d="m128 74 1-.5v2l-1 .5z"/><path d="m140 65 3-1.5v2l-3 1.5z"/><path d="m136 67 3-1.5v2l-3 1.5z"/><path d="m132 69 3-1.5v2l-3 1.5z"/><path d="m128 71 3-1.5v2l-3 1.5z"/><path d="m142 61 2-1v2l-2 1z"/><path d="m138 63 3-1.5v2l-3 1.5z"/><path d="m134 65 3-1.5v2l-3 1.5z"/><path d="m130 67 3-1.5v2l-3 1.5z"/><path d="m128 68 1-.5v2l-1 .5z"/><path d="m140 59 3-1.5v2l-3 1.5z"/><path d="m136 61 3-1.5v2l-3 1.5z"/><path d="m132 63 3-1.5v2l-3 1.5z"/><path d="m128 65 3-1.5v2l-3 1.5z"/><path d="m142 55 2-1v2l-2 1z"/><path d="m138 57 3-1.5v2l-3 1.5z"/><path d="m134 59 3-1.5v2l-3 1.5z"/><path d="m130 61 3-1.5v2l-3 1.5z"/><path d="m128 62 1-.5v2l-1 .5z"/><path d="m140 53 3-1.5v2l-3 1.5z"/><path d="m136 55 3-1.5v2l-3 1.5z"/><path d="m132 57 3-1.5v2l-3 1.5z"/><path d="m128 59 3-1.5v2l-3 1.5z"/><path d="m142 49 2-1v2l-2 1z"/><path d="m138 51 3-1.5v2l-3 1.5z"/><path d="m134 53 3-1.5v2l-3 1.5z"/><path d="m130 55 3-1.5v2l-3 1.5z"/><path d="m128 56 1-.5v2l-1 .5z"/></g><g fill="#762c07" opacity=".6"><path d="m128 149 3-1.5v2l-3 1.5z"/><path d="m128 146 1-.5v2l-1 .5z"/><path d="m128 143 3-1.5v2l-3 1.5z"/><path d="m128 140 1-.5v2l-1 .5z"/><path d="m128 137 3-1.5v2l-3 1.5z"/><path d="m128 134 1-.5v2l-1 .5z"/><path d="m128 131 3-1.5v2l-3 1.5z"/><path d="m128 128 1-.5v2l-1 .5z"/><path d="m142 133 2-1v2l-2 1z"/><path d="m142 139 2-1v2l-2 1z"/><path d="m142 121 2-1v2l-2 1z"/><path d="m142 127 2-1v2l-2 1z"/><path d="m142 109 2-1v2l-2 1z"/><path d="m142 115 2-1v2l-2 1z"/><path d="m142 91 2-1v2l-2 1z"/><path d="m142 97 2-1v2l-2 1z"/><path d="m128 125 3-1.5v2l-3 1.5z"/><path d="m140 113 3-1.5v2l-3 1.5z"/><path d="m140 107 3-1.5v2l-3 1.5z"/><path d="m140 101 3-1.5v2l-3 1.5z"/><path d="m140 95 3-1.5v2l-3 1.5z"/><path d="m140 125 3-1.5v2l-3 1.5z"/><path d="m140 119 3-1.5v2l-3 1.5z"/><path d="m140 137 3-1.5v2l-3 1.5z"/><path d="m140 143 3-1.5v2l-3 1.5z"/><path d="m140 131 3-1.5v2l-3 1.5z"/><path d="m128 122 1-.5v2l-1 .5z"/><path d="m128 119 3-1.5v2l-3 1.5z"/><path d="m134 113 3-1.5v2l-3 1.5z"/><path d="m134 137 3-1.5v2l-3 1.5z"/><path d="m128 116 1-.5v2l-1 .5z"/><path d="m128 113 3-1.5v2l-3 1.5z"/><path d="m142 103 2-1v2l-2 1z"/><path d="m128 110 1-.5v2l-1 .5z"/><path d="m128 107 3-1.5v2l-3 1.5z"/><path d="m134 101 3-1.5v2l-3 1.5z"/><path d="m128 104 1-.5v2l-1 .5z"/><path d="m128 101 3-1.5v2l-3 1.5z"/><path d="m128 98 1-.5v2l-1 .5z"/></g><g fill="#762c07" opacity=".6"><path d="m128 95 3-1.5v2l-3 1.5z"/><path d="m128 92 1-.5v2l-1 .5z"/><path d="m128 89 3-1.5v2l-3 1.5z"/><path d="m128 86 1-.5v2l-1 .5z"/><path d="m128 83 3-1.5v2l-3 1.5z"/><path d="m128 80 1-.5v2l-1 .5z"/><path d="m128 77 3-1.5v2l-3 1.5z"/><path d="m128 74 1-.5v2l-1 .5z"/><path d="m142 79 2-1v2l-2 1z"/><path d="m142 85 2-1v2l-2 1z"/><path d="m142 67 2-1v2l-2 1z"/><path d="m142 73 2-1v2l-2 1z"/><path d="m142 55 2-1v2l-2 1z"/><path d="m142 61 2-1v2l-2 1z"/><path d="m128 71 3-1.5v2l-3 1.5z"/><path d="m140 59 3-1.5v2l-3 1.5z"/><path d="m140 53 3-1.5v2l-3 1.5z"/><path d="m140 71 3-1.5v2l-3 1.5z"/><path d="m140 65 3-1.5v2l-3 1.5z"/><path d="m140 83 3-1.5v2l-3 1.5z"/><path d="m140 89 3-1.5v2l-3 1.5z"/><path d="m140 77 3-1.5v2l-3 1.5z"/><path d="m128 68 1-.5v2l-1 .5z"/><path d="m128 65 3-1.5v2l-3 1.5z"/><path d="m134 71 3-1.5v2l-3 1.5z"/><path d="m134 89 3-1.5v2l-3 1.5z"/><path d="m128 62 1-.5v2l-1 .5z"/><path d="m128 59 3-1.5v2l-3 1.5z"/><path d="m142 49 2-1v2l-2 1z"/><path d="m128 56 1-.5v2l-1 .5z"/><path d="m130 61 3-1.5v2l-3 1.5z"/></g><g fill="#762c07" opacity=".3"><path d="m134 119 3-1.5v2l-3 1.5z"/><path d="m132 111 3-1.5v2l-3 1.5z"/><path d="m134 101 3-1.5v2l-3 1.5z"/><path d="m130 133 3-1.5v2l-3 1.5z"/><path d="m134 125 3-1.5v2l-3 1.5z"/><path d="m134 77 3-1.5v2l-3 1.5z"/><path d="m134 59 3-1.5v2l-3 1.5z"/><path d="m132 69 3-1.5v2l-3 1.5z"/><path d="m130 91 3-1.5v2l-3 1.5z"/><path d="m134 83 3-1.5v2l-3 1.5z"/><path d="m132 147 3-1.5v2l-3 1.5z"/><path d="m134 137 3-1.5v2l-3 1.5z"/><path d="m128 107 3-1.5v2l-3 1.5z"/></g><path d="m136.1 57.9-.2.1c-1.6.8-2.9 2.7-2.9 4.3v11.1l6-3v-11c0-1.6-1.3-2.3-2.9-1.5z" fill="#cc291f"/><path d="m134 64v-2c0-1.1.9-2.4 2-3s2-.1 2 1v2z" fill="#656565"/><path d="m136 59c1.1-.6 2-.1 2 1v1c0-1.1-.9-1.6-2-1s-2 1.9-2 3v-1c0-1.1.9-2.4 2-3z" opacity=".5"/><path d="m138 63v7l-4 2v-7z" fill="#656565"/><path d="m134 66 4-2v-1l-4 2z" opacity=".5"/><path d="m134 65 4-2v-1l-4 2z" fill="#cc291f"/><path d="m144 144-16 8v-96l16-8z" opacity=".39"/><path d="m112 144 16 8v-96l-16-8z" fill="#baa794"/><g fill="#762c07" opacity=".4"><path d="m116 143-3-1.5v2l3 1.5z"/><path d="m120 145-3-1.5v2l3 1.5z"/><path d="m124 147-3-1.5v2l3 1.5z"/><path d="m128 149-3-1.5v2l3 1.5z"/><path d="m114 139-2-1v2l2 1z"/><path d="m118 141-3-1.5v2l3 1.5z"/><path d="m122 143-3-1.5v2l3 1.5z"/><path d="m126 145-3-1.5v2l3 1.5z"/><path d="m128 146-1-.5v2l1 .5z"/><path d="m116 137-3-1.5v2l3 1.5z"/><path d="m120 139-3-1.5v2l3 1.5z"/><path d="m124 141-3-1.5v2l3 1.5z"/><path d="m128 143-3-1.5v2l3 1.5z"/><path d="m114 133-2-1v2l2 1z"/><path d="m118 135-3-1.5v2l3 1.5z"/><path d="m122 137-3-1.5v2l3 1.5z"/><path d="m126 139-3-1.5v2l3 1.5z"/><path d="m128 140-1-.5v2l1 .5z"/><path d="m116 131-3-1.5v2l3 1.5z"/><path d="m120 133-3-1.5v2l3 1.5z"/><path d="m124 135-3-1.5v2l3 1.5z"/><path d="m128 137-3-1.5v2l3 1.5z"/><path d="m114 127-2-1v2l2 1z"/><path d="m118 129-3-1.5v2l3 1.5z"/><path d="m122 131-3-1.5v2l3 1.5z"/><path d="m126 133-3-1.5v2l3 1.5z"/><path d="m128 134-1-.5v2l1 .5z"/><path d="m116 125-3-1.5v2l3 1.5z"/><path d="m120 127-3-1.5v2l3 1.5z"/><path d="m124 129-3-1.5v2l3 1.5z"/><path d="m128 131-3-1.5v2l3 1.5z"/><path d="m114 121-2-1v2l2 1z"/><path d="m118 123-3-1.5v2l3 1.5z"/><path d="m122 125-3-1.5v2l3 1.5z"/><path d="m126 127-3-1.5v2l3 1.5z"/><path d="m128 128-1-.5v2l1 .5z"/><path d="m116 119-3-1.5v2l3 1.5z"/><path d="m120 121-3-1.5v2l3 1.5z"/><path d="m124 123-3-1.5v2l3 1.5z"/><path d="m128 125-3-1.5v2l3 1.5z"/><path d="m114 115-2-1v2l2 1z"/><path d="m118 117-3-1.5v2l3 1.5z"/><path d="m122 119-3-1.5v2l3 1.5z"/><path d="m126 121-3-1.5v2l3 1.5z"/><path d="m128 122-1-.5v2l1 .5z"/><path d="m116 113-3-1.5v2l3 1.5z"/><path d="m120 115-3-1.5v2l3 1.5z"/><path d="m124 117-3-1.5v2l3 1.5z"/><path d="m128 119-3-1.5v2l3 1.5z"/><path d="m114 109-2-1v2l2 1z"/><path d="m118 111-3-1.5v2l3 1.5z"/><path d="m122 113-3-1.5v2l3 1.5z"/><path d="m126 115-3-1.5v2l3 1.5z"/><path d="m128 116-1-.5v2l1 .5z"/><path d="m116 107-3-1.5v2l3 1.5z"/><path d="m120 109-3-1.5v2l3 1.5z"/><path d="m124 111-3-1.5v2l3 1.5z"/><path d="m128 113-3-1.5v2l3 1.5z"/><path d="m114 103-2-1v2l2 1z"/><path d="m118 105-3-1.5v2l3 1.5z"/><path d="m122 107-3-1.5v2l3 1.5z"/><path d="m126 109-3-1.5v2l3 1.5z"/><path d="m128 110-1-.5v2l1 .5z"/><path d="m116 101-3-1.5v2l3 1.5z"/><path d="m120 103-3-1.5v2l3 1.5z"/><path d="m124 105-3-1.5v2l3 1.5z"/><path d="m128 107-3-1.5v2l3 1.5z"/><path d="m114 97-2-1v2l2 1z"/><path d="m118 99-3-1.5v2l3 1.5z"/><path d="m122 101-3-1.5v2l3 1.5z"/><path d="m126 103-3-1.5v2l3 1.5z"/><path d="m128 104-1-.5v2l1 .5z"/><path d="m116 95-3-1.5v2l3 1.5z"/><path d="m120 97-3-1.5v2l3 1.5z"/><path d="m124 99-3-1.5v2l3 1.5z"/><path d="m128 101-3-1.5v2l3 1.5z"/><path d="m114 91-2-1v2l2 1z"/><path d="m118 93-3-1.5v2l3 1.5z"/><path d="m122 95-3-1.5v2l3 1.5z"/><path d="m126 97-3-1.5v2l3 1.5z"/><path d="m128 98-1-.5v2l1 .5z"/><path d="m116 89-3-1.5v2l3 1.5z"/><path d="m120 91-3-1.5v2l3 1.5z"/><path d="m124 93-3-1.5v2l3 1.5z"/><path d="m128 95-3-1.5v2l3 1.5z"/><path d="m114 85-2-1v2l2 1z"/><path d="m118 87-3-1.5v2l3 1.5z"/><path d="m122 89-3-1.5v2l3 1.5z"/><path d="m126 91-3-1.5v2l3 1.5z"/><path d="m128 92-1-.5v2l1 .5z"/><path d="m116 83-3-1.5v2l3 1.5z"/><path d="m120 85-3-1.5v2l3 1.5z"/><path d="m124 87-3-1.5v2l3 1.5z"/><path d="m128 89-3-1.5v2l3 1.5z"/><path d="m114 79-2-1v2l2 1z"/><path d="m118 81-3-1.5v2l3 1.5z"/><path d="m122 83-3-1.5v2l3 1.5z"/><path d="m126 85-3-1.5v2l3 1.5z"/><path d="m128 86-1-.5v2l1 .5z"/><path d="m116 77-3-1.5v2l3 1.5z"/><path d="m120 79-3-1.5v2l3 1.5z"/><path d="m124 81-3-1.5v2l3 1.5z"/><path d="m128 83-3-1.5v2l3 1.5z"/><path d="m114 73-2-1v2l2 1z"/><path d="m118 75-3-1.5v2l3 1.5z"/><path d="m122 77-3-1.5v2l3 1.5z"/><path d="m126 79-3-1.5v2l3 1.5z"/><path d="m128 80-1-.5v2l1 .5z"/><path d="m116 71-3-1.5v2l3 1.5z"/><path d="m120 73-3-1.5v2l3 1.5z"/><path d="m124 75-3-1.5v2l3 1.5z"/><path d="m128 77-3-1.5v2l3 1.5z"/><path d="m114 67-2-1v2l2 1z"/><path d="m118 69-3-1.5v2l3 1.5z"/><path d="m122 71-3-1.5v2l3 1.5z"/><path d="m126 73-3-1.5v2l3 1.5z"/><path d="m128 74-1-.5v2l1 .5z"/><path d="m116 65-3-1.5v2l3 1.5z"/><path d="m120 67-3-1.5v2l3 1.5z"/><path d="m124 69-3-1.5v2l3 1.5z"/><path d="m128 71-3-1.5v2l3 1.5z"/><path d="m114 61-2-1v2l2 1z"/><path d="m118 63-3-1.5v2l3 1.5z"/><path d="m122 65-3-1.5v2l3 1.5z"/><path d="m126 67-3-1.5v2l3 1.5z"/><path d="m128 68-1-.5v2l1 .5z"/><path d="m116 59-3-1.5v2l3 1.5z"/><path d="m120 61-3-1.5v2l3 1.5z"/><path d="m124 63-3-1.5v2l3 1.5z"/><path d="m128 65-3-1.5v2l3 1.5z"/><path d="m114 55-2-1v2l2 1z"/><path d="m118 57-3-1.5v2l3 1.5z"/><path d="m122 59-3-1.5v2l3 1.5z"/><path d="m126 61-3-1.5v2l3 1.5z"/><path d="m128 62-1-.5v2l1 .5z"/><path d="m116 53-3-1.5v2l3 1.5z"/><path d="m120 55-3-1.5v2l3 1.5z"/><path d="m124 57-3-1.5v2l3 1.5z"/><path d="m128 59-3-1.5v2l3 1.5z"/><path d="m114 49-2-1v2l2 1z"/><path d="m118 51-3-1.5v2l3 1.5z"/><path d="m122 53-3-1.5v2l3 1.5z"/><path d="m126 55-3-1.5v2l3 1.5z"/><path d="m128 56-1-.5v2l1 .5z"/></g><g fill="#762c07" opacity=".6"><path d="m128 149-3-1.5v2l3 1.5z"/><path d="m128 146-1-.5v2l1 .5z"/><path d="m128 143-3-1.5v2l3 1.5z"/><path d="m128 140-1-.5v2l1 .5z"/><path d="m128 137-3-1.5v2l3 1.5z"/><path d="m128 134-1-.5v2l1 .5z"/><path d="m128 131-3-1.5v2l3 1.5z"/><path d="m128 128-1-.5v2l1 .5z"/><path d="m114 133-2-1v2l2 1z"/><path d="m114 139-2-1v2l2 1z"/><path d="m114 121-2-1v2l2 1z"/><path d="m114 127-2-1v2l2 1z"/><path d="m114 109-2-1v2l2 1z"/><path d="m114 115-2-1v2l2 1z"/><path d="m114 91-2-1v2l2 1z"/><path d="m114 97-2-1v2l2 1z"/><path d="m128 125-3-1.5v2l3 1.5z"/><path d="m116 113-3-1.5v2l3 1.5z"/><path d="m116 107-3-1.5v2l3 1.5z"/><path d="m116 101-3-1.5v2l3 1.5z"/><path d="m116 95-3-1.5v2l3 1.5z"/><path d="m116 125-3-1.5v2l3 1.5z"/><path d="m116 119-3-1.5v2l3 1.5z"/><path d="m116 137-3-1.5v2l3 1.5z"/><path d="m116 143-3-1.5v2l3 1.5z"/><path d="m116 131-3-1.5v2l3 1.5z"/><path d="m128 122-1-.5v2l1 .5z"/><path d="m128 119-3-1.5v2l3 1.5z"/><path d="m122 113-3-1.5v2l3 1.5z"/><path d="m122 137-3-1.5v2l3 1.5z"/><path d="m128 116-1-.5v2l1 .5z"/><path d="m128 113-3-1.5v2l3 1.5z"/><path d="m114 103-2-1v2l2 1z"/><path d="m128 110-1-.5v2l1 .5z"/><path d="m128 107-3-1.5v2l3 1.5z"/><path d="m122 101-3-1.5v2l3 1.5z"/><path d="m128 104-1-.5v2l1 .5z"/><path d="m128 101-3-1.5v2l3 1.5z"/><path d="m128 98-1-.5v2l1 .5z"/></g><g fill="#762c07" opacity=".6"><path d="m128 95-3-1.5v2l3 1.5z"/><path d="m128 92-1-.5v2l1 .5z"/><path d="m128 89-3-1.5v2l3 1.5z"/><path d="m128 86-1-.5v2l1 .5z"/><path d="m128 83-3-1.5v2l3 1.5z"/><path d="m128 80-1-.5v2l1 .5z"/><path d="m128 77-3-1.5v2l3 1.5z"/><path d="m128 74-1-.5v2l1 .5z"/><path d="m114 79-2-1v2l2 1z"/><path d="m114 85-2-1v2l2 1z"/><path d="m114 67-2-1v2l2 1z"/><path d="m114 73-2-1v2l2 1z"/><path d="m114 55-2-1v2l2 1z"/><path d="m114 61-2-1v2l2 1z"/><path d="m128 71-3-1.5v2l3 1.5z"/><path d="m116 59-3-1.5v2l3 1.5z"/><path d="m116 53-3-1.5v2l3 1.5z"/><path d="m116 71-3-1.5v2l3 1.5z"/><path d="m116 65-3-1.5v2l3 1.5z"/><path d="m116 83-3-1.5v2l3 1.5z"/><path d="m116 89-3-1.5v2l3 1.5z"/><path d="m116 77-3-1.5v2l3 1.5z"/><path d="m128 68-1-.5v2l1 .5z"/><path d="m128 65-3-1.5v2l3 1.5z"/><path d="m122 71-3-1.5v2l3 1.5z"/><path d="m122 89-3-1.5v2l3 1.5z"/><path d="m128 62-1-.5v2l1 .5z"/><path d="m128 59-3-1.5v2l3 1.5z"/><path d="m114 49-2-1v2l2 1z"/><path d="m128 56-1-.5v2l1 .5z"/><path d="m126 61-3-1.5v2l3 1.5z"/></g><g fill="#762c07" opacity=".3"><path d="m122 119-3-1.5v2l3 1.5z"/><path d="m124 111-3-1.5v2l3 1.5z"/><path d="m122 101-3-1.5v2l3 1.5z"/><path d="m126 133-3-1.5v2l3 1.5z"/><path d="m122 125-3-1.5v2l3 1.5z"/><path d="m122 77-3-1.5v2l3 1.5z"/><path d="m122 59-3-1.5v2l3 1.5z"/><path d="m124 69-3-1.5v2l3 1.5z"/><path d="m126 91-3-1.5v2l3 1.5z"/><path d="m122 83-3-1.5v2l3 1.5z"/><path d="m124 147-3-1.5v2l3 1.5z"/><path d="m122 137-3-1.5v2l3 1.5z"/><path d="m128 107-3-1.5v2l3 1.5z"/></g><path d="m115 129.5 10 5v16l-10-5z" fill="#fff"/><path d="m116 131 8 4v15l-8-4z" fill="#cc291f"/><path d="m117 132.5v5l6 3v-5z" fill="#656565"/><path d="m123 136.5-6-3v-1l6 3z" opacity=".5"/><path d="m123 148.5-6-3v-1l6 3z" fill="#fff" opacity=".25"/><path d="m123 146.5-6-3v-1l6 3z" fill="#fff" opacity=".25"/><path d="m123 144.5-6-3v-1l6 3z" fill="#fff" opacity=".25"/><path d="m123 142.5-6-3v-1l6 3z" fill="#fff" opacity=".25"/><path d="m119.9 96.9.2.1c1.6.8 2.9 2.7 2.9 4.3v11.1l-6-3v-11c0-1.6 1.3-2.3 2.9-1.5z" fill="#cc291f"/><path d="m122 103v-2c0-1.1-.9-2.4-2-3s-2-.1-2 1v2z" fill="#656565"/><path d="m120 98c-1.1-.6-2-.1-2 1v1c0-1.1.9-1.6 2-1s2 1.9 2 3v-1c0-1.1-.9-2.4-2-3z" opacity=".5"/><path d="m118 102v7l4 2v-7z" fill="#656565"/><path d="m122 105-4-2v-1l4 2z" opacity=".5"/><path d="m122 104-4-2v-1l4 2z" fill="#cc291f"/><path d="m119.9 57.9.2.1c1.6.8 2.9 2.7 2.9 4.3v11.1l-6-3v-11c0-1.6 1.3-2.3 2.9-1.5z" fill="#cc291f"/><path d="m122 64v-2c0-1.1-.9-2.4-2-3s-2-.1-2 1v2z" fill="#656565"/><path d="m120 59c-1.1-.6-2-.1-2 1v1c0-1.1.9-1.6 2-1s2 1.9 2 3v-1c0-1.1-.9-2.4-2-3z" opacity=".5"/><path d="m118 63v7l4 2v-7z" fill="#656565"/><path d="m122 66-4-2v-1l4 2z" opacity=".5"/><path d="m122 65-4-2v-1l4 2z" fill="#cc291f"/><path d="m112 144 16 8v-96l-16-8z" opacity=".06"/><path d="m128 16 16 32-16 8-16-8z" fill="#2d3134"/><path d="m112 48 16 8v-40z" opacity=".06"/><path d="m144 48-16 8v-40z" opacity=".39"/><path d="m0 104 96 48v-55l-96-48z" opacity=".06"/></svg>