<svg enable-background="new 0 0 208 224" viewBox="0 0 208 224" xmlns="http://www.w3.org/2000/svg"><path d="m176 192 32-16-8-4-24 12z" fill="#999"/><path d="m176 192 32-16-8-4-24 12z" fill="#999"/><path d="m72 4-72 36v64l128 64 72-36v-64z" fill="#e5e5e5"/><path d="m128 216-128-64v-112l128 64z" fill="#e5e5e5"/><path d="m128 151-5-2.5v-8l5 2.5z" fill="#39c"/><path d="m124 148v-7l-1-.5v8l5 2.5v-1z" opacity=".45"/><path d="m120 147-5-2.5v-8l5 2.5z" fill="#39c"/><path d="m116 144v-7l-1-.5v8l5 2.5v-1z" opacity=".45"/><path d="m112 143-5-2.5v-8l5 2.5z" fill="#39c"/><path d="m108 140v-7l-1-.5v8l5 2.5v-1z" opacity=".45"/><path d="m104 139-5-2.5v-8l5 2.5z" fill="#39c"/><path d="m100 136v-7l-1-.5v8l5 2.5v-1z" opacity=".45"/><path d="m96 135-5-2.5v-8l5 2.5z" fill="#39c"/><path d="m96 135-5-2.5v-8z" fill="#fff" opacity=".2"/><path d="m92 132v-7l-1-.5v8l5 2.5v-1z" opacity=".45"/><path d="m88 131-5-2.5v-8l5 2.5z" fill="#39c"/><path d="m88 131-5-2.5v-8z" fill="#fff" opacity=".2"/><path d="m84 128v-7l-1-.5v8l5 2.5v-1z" opacity=".45"/><path d="m80 127-5-2.5v-8l5 2.5z" fill="#39c"/><path d="m76 124v-7l-1-.5v8l5 2.5v-1z" opacity=".45"/><path d="m72 123-5-2.5v-8l5 2.5z" fill="#39c"/><path d="m68 120v-7l-1-.5v8l5 2.5v-1z" opacity=".45"/><path d="m128 135-5-2.5v-8l5 2.5z" fill="#39c"/><path d="m124 132v-7l-1-.5v8l5 2.5v-1z" opacity=".45"/><path d="m120 131-5-2.5v-8l5 2.5z" fill="#39c"/><path d="m116 128v-7l-1-.5v8l5 2.5v-1z" opacity=".45"/><path d="m112 127-5-2.5v-8l5 2.5z" fill="#39c"/><path d="m108 124v-7l-1-.5v8l5 2.5v-1z" opacity=".45"/><path d="m104 123-5-2.5v-8l5 2.5z" fill="#39c"/><path d="m100 120v-7l-1-.5v8l5 2.5v-1z" opacity=".45"/><path d="m96 119-5-2.5v-8l5 2.5z" fill="#39c"/><path d="m92 116v-7l-1-.5v8l5 2.5v-1z" opacity=".45"/><path d="m88 115-5-2.5v-8l5 2.5z" fill="#39c"/><path d="m84 112v-7l-1-.5v8l5 2.5v-1z" opacity=".45"/><path d="m80 111-5-2.5v-8l5 2.5z" fill="#39c"/><path d="m80 111-5-2.5v-8z" fill="#fff" opacity=".2"/><path d="m76 108v-7l-1-.5v8l5 2.5v-1z" opacity=".45"/><path d="m72 107-5-2.5v-8l5 2.5z" fill="#39c"/><path d="m68 104v-7l-1-.5v8l5 2.5v-1z" opacity=".45"/><path d="m128 119-5-2.5v-8l5 2.5z" fill="#39c"/><path d="m124 116v-7l-1-.5v8l5 2.5v-1z" opacity=".45"/><path d="m120 115-5-2.5v-8l5 2.5z" fill="#39c"/><path d="m116 112v-7l-1-.5v8l5 2.5v-1z" opacity=".45"/><path d="m112 111-5-2.5v-8l5 2.5z" fill="#39c"/><path d="m112 111-5-10.5 5 2.5z" opacity=".15"/><path d="m108 108v-7l-1-.5v8l5 2.5v-1z" opacity=".45"/><path d="m104 107-5-2.5v-8l5 2.5z" fill="#39c"/><path d="m100 104v-7l-1-.5v8l5 2.5v-1z" opacity=".45"/><path d="m96 103-5-2.5v-8l5 2.5z" fill="#39c"/><path d="m92 100v-7l-1-.5v8l5 2.5v-1z" opacity=".45"/><path d="m88 99-5-2.5v-8l5 2.5z" fill="#39c"/><path d="m84 96v-7l-1-.5v8l5 2.5v-1z" opacity=".45"/><path d="m80 95-5-2.5v-8l5 2.5z" fill="#39c"/><path d="m76 92v-7l-1-.5v8l5 2.5v-1z" opacity=".45"/><path d="m72 91-5-2.5v-8l5 2.5z" fill="#39c"/><path d="m68 88v-7l-1-.5v8l5 2.5v-1z" opacity=".45"/><path d="m128 199-5-2.5v-8l5 2.5z" fill="#39c"/><path d="m124 196v-7l-1-.5v8l5 2.5v-1z" opacity=".45"/><path d="m120 195-5-2.5v-8l5 2.5z" fill="#39c"/><path d="m116 192v-7l-1-.5v8l5 2.5v-1z" opacity=".45"/><path d="m112 191-5-2.5v-8l5 2.5z" fill="#39c"/><path d="m108 188v-7l-1-.5v8l5 2.5v-1z" opacity=".45"/><path d="m104 187-5-2.5v-8l5 2.5z" fill="#39c"/><path d="m100 184v-7l-1-.5v8l5 2.5v-1z" opacity=".45"/><path d="m96 183-5-2.5v-8l5 2.5z" fill="#39c"/><path d="m92 180v-7l-1-.5v8l5 2.5v-1z" opacity=".45"/><path d="m88 179-5-2.5v-8l5 2.5z" fill="#39c"/><path d="m84 176v-7l-1-.5v8l5 2.5v-1z" opacity=".45"/><path d="m80 175-5-2.5v-8l5 2.5z" fill="#39c"/><path d="m80 175-5-2.5v-8z" fill="#fff" opacity=".2"/><path d="m76 172v-7l-1-.5v8l5 2.5v-1z" opacity=".45"/><path d="m72 171-5-2.5v-8l5 2.5z" fill="#39c"/><path d="m68 168v-7l-1-.5v8l5 2.5v-1z" opacity=".45"/><path d="m128 183-5-2.5v-8l5 2.5z" fill="#39c"/><path d="m124 180v-7l-1-.5v8l5 2.5v-1z" opacity=".45"/><path d="m120 179-5-2.5v-8l5 2.5z" fill="#39c"/><path d="m116 176v-7l-1-.5v8l5 2.5v-1z" opacity=".45"/><path d="m112 175-5-2.5v-8l5 2.5z" fill="#39c"/><path d="m112 175-5-10.5 5 2.5z" opacity=".15"/><path d="m108 172v-7l-1-.5v8l5 2.5v-1z" opacity=".45"/><path d="m104 171-5-2.5v-8l5 2.5z" fill="#39c"/><path d="m100 168v-7l-1-.5v8l5 2.5v-1z" opacity=".45"/><path d="m96 167-5-2.5v-8l5 2.5z" fill="#39c"/><path d="m92 164v-7l-1-.5v8l5 2.5v-1z" opacity=".45"/><path d="m88 163-5-2.5v-8l5 2.5z" fill="#39c"/><path d="m84 160v-7l-1-.5v8l5 2.5v-1z" opacity=".45"/><path d="m80 159-5-2.5v-8l5 2.5z" fill="#39c"/><path d="m76 156v-7l-1-.5v8l5 2.5v-1z" opacity=".45"/><path d="m72 155-5-2.5v-8l5 2.5z" fill="#39c"/><path d="m68 152v-7l-1-.5v8l5 2.5v-1z" opacity=".45"/><path d="m128 167-5-2.5v-8l5 2.5z" fill="#39c"/><path d="m124 164v-7l-1-.5v8l5 2.5v-1z" opacity=".45"/><path d="m120 163-5-2.5v-8l5 2.5z" fill="#39c"/><path d="m116 160v-7l-1-.5v8l5 2.5v-1z" opacity=".45"/><path d="m112 159-5-2.5v-8l5 2.5z" fill="#39c"/><path d="m108 156v-7l-1-.5v8l5 2.5v-1z" opacity=".45"/><path d="m104 155-5-2.5v-8l5 2.5z" fill="#39c"/><path d="m104 155-5-10.5 5 2.5z" opacity=".15"/><path d="m100 152v-7l-1-.5v8l5 2.5v-1z" opacity=".45"/><path d="m96 151-5-2.5v-8l5 2.5z" fill="#39c"/><path d="m92 148v-7l-1-.5v8l5 2.5v-1z" opacity=".45"/><path d="m88 147-5-2.5v-8l5 2.5z" fill="#39c"/><path d="m88 147-5-10.5 5 2.5z" opacity=".15"/><path d="m84 144v-7l-1-.5v8l5 2.5v-1z" opacity=".45"/><path d="m80 143-5-2.5v-8l5 2.5z" fill="#39c"/><path d="m76 140v-7l-1-.5v8l5 2.5v-1z" opacity=".45"/><path d="m72 139-5-2.5v-8l5 2.5z" fill="#39c"/><path d="m68 136v-7l-1-.5v8l5 2.5v-1z" opacity=".45"/><path d="m64 119-5-2.5v-8l5 2.5z" fill="#39c"/><path d="m60 116v-7l-1-.5v8l5 2.5v-1z" opacity=".45"/><path d="m56 115-5-2.5v-8l5 2.5z" fill="#39c"/><path d="m52 112v-7l-1-.5v8l5 2.5v-1z" opacity=".45"/><path d="m48 111-5-2.5v-8l5 2.5z" fill="#39c"/><path d="m44 108v-7l-1-.5v8l5 2.5v-1z" opacity=".45"/><path d="m40 107-5-2.5v-8l5 2.5z" fill="#39c"/><path d="m36 104v-7l-1-.5v8l5 2.5v-1z" opacity=".45"/><path d="m32 103-5-2.5v-8l5 2.5z" fill="#39c"/><path d="m28 100v-7l-1-.5v8l5 2.5v-1z" opacity=".45"/><path d="m24 99-5-2.5v-8l5 2.5z" fill="#39c"/><path d="m24 99-5-2.5v-8z" fill="#fff" opacity=".2"/><path d="m20 96v-7l-1-.5v8l5 2.5v-1z" opacity=".45"/><path d="m16 95-5-2.5v-8l5 2.5z" fill="#39c"/><path d="m12 92v-7l-1-.5v8l5 2.5v-1z" opacity=".45"/><path d="m8 91-5-2.5v-8l5 2.5z" fill="#39c"/><path d="m4 88v-7l-1-.5v8l5 2.5v-1z" opacity=".45"/><path d="m64 103-5-2.5v-8l5 2.5z" fill="#39c"/><path d="m60 100v-7l-1-.5v8l5 2.5v-1z" opacity=".45"/><path d="m56 99-5-2.5v-8l5 2.5z" fill="#39c"/><path d="m52 96v-7l-1-.5v8l5 2.5v-1z" opacity=".45"/><path d="m48 95-5-2.5v-8l5 2.5z" fill="#39c"/><path d="m44 92v-7l-1-.5v8l5 2.5v-1z" opacity=".45"/><path d="m40 91-5-2.5v-8l5 2.5z" fill="#39c"/><path d="m36 88v-7l-1-.5v8l5 2.5v-1z" opacity=".45"/><path d="m32 87-5-2.5v-8l5 2.5z" fill="#39c"/><path d="m28 84v-7l-1-.5v8l5 2.5v-1z" opacity=".45"/><path d="m24 83-5-2.5v-8l5 2.5z" fill="#39c"/><path d="m20 80v-7l-1-.5v8l5 2.5v-1z" opacity=".45"/><path d="m16 79-5-2.5v-8l5 2.5z" fill="#39c"/><path d="m16 79-5-2.5v-8z" fill="#fff" opacity=".2"/><path d="m12 76v-7l-1-.5v8l5 2.5v-1z" opacity=".45"/><path d="m8 75-5-2.5v-8l5 2.5z" fill="#39c"/><path d="m4 72v-7l-1-.5v8l5 2.5v-1z" opacity=".45"/><path d="m64 87-5-2.5v-8l5 2.5z" fill="#39c"/><path d="m60 84v-7l-1-.5v8l5 2.5v-1z" opacity=".45"/><path d="m56 83-5-2.5v-8l5 2.5z" fill="#39c"/><path d="m52 80v-7l-1-.5v8l5 2.5v-1z" opacity=".45"/><path d="m48 79-5-2.5v-8l5 2.5z" fill="#39c"/><path d="m48 79-5-10.5 5 2.5z" opacity=".15"/><path d="m44 76v-7l-1-.5v8l5 2.5v-1z" opacity=".45"/><path d="m40 75-5-2.5v-8l5 2.5z" fill="#39c"/><path d="m36 72v-7l-1-.5v8l5 2.5v-1z" opacity=".45"/><path d="m32 71-5-2.5v-8l5 2.5z" fill="#39c"/><path d="m28 68v-7l-1-.5v8l5 2.5v-1z" opacity=".45"/><path d="m24 67-5-2.5v-8l5 2.5z" fill="#39c"/><path d="m20 64v-7l-1-.5v8l5 2.5v-1z" opacity=".45"/><path d="m16 63-5-2.5v-8l5 2.5z" fill="#39c"/><path d="m12 60v-7l-1-.5v8l5 2.5v-1z" opacity=".45"/><path d="m8 59-5-2.5v-8l5 2.5z" fill="#39c"/><path d="m4 56v-7l-1-.5v8l5 2.5v-1z" opacity=".45"/><path d="m64 167-5-2.5v-8l5 2.5z" fill="#39c"/><path d="m60 164v-7l-1-.5v8l5 2.5v-1z" opacity=".45"/><path d="m56 163-5-2.5v-8l5 2.5z" fill="#39c"/><path d="m52 160v-7l-1-.5v8l5 2.5v-1z" opacity=".45"/><path d="m48 159-5-2.5v-8l5 2.5z" fill="#39c"/><path d="m44 156v-7l-1-.5v8l5 2.5v-1z" opacity=".45"/><path d="m40 155-5-2.5v-8l5 2.5z" fill="#39c"/><path d="m36 152v-7l-1-.5v8l5 2.5v-1z" opacity=".45"/><path d="m32 151-5-2.5v-8l5 2.5z" fill="#39c"/><path d="m28 148v-7l-1-.5v8l5 2.5v-1z" opacity=".45"/><path d="m24 147-5-2.5v-8l5 2.5z" fill="#39c"/><path d="m20 144v-7l-1-.5v8l5 2.5v-1z" opacity=".45"/><path d="m16 143-5-2.5v-8l5 2.5z" fill="#39c"/><path d="m16 143-5-2.5v-8z" fill="#fff" opacity=".2"/><path d="m12 140v-7l-1-.5v8l5 2.5v-1z" opacity=".45"/><path d="m8 139-5-2.5v-8l5 2.5z" fill="#39c"/><path d="m4 136v-7l-1-.5v8l5 2.5v-1z" opacity=".45"/><path d="m128 211-5-2.5v-4l5 2.5z" fill="#39c"/><path d="m124 208v-3l-1-.5v4l5 2.5v-1z" opacity=".45"/><path d="m120 207-5-2.5v-4l5 2.5z" fill="#39c"/><path d="m116 204v-3l-1-.5v4l5 2.5v-1z" opacity=".45"/><path d="m112 203-5-2.5v-4l5 2.5z" fill="#39c"/><path d="m108 200v-3l-1-.5v4l5 2.5v-1z" opacity=".45"/><path d="m104 199-5-2.5v-4l5 2.5z" fill="#39c"/><path d="m100 196v-3l-1-.5v4l5 2.5v-1z" opacity=".45"/><path d="m96 195-5-2.5v-4l5 2.5z" fill="#39c"/><path d="m92 192v-3l-1-.5v4l5 2.5v-1z" opacity=".45"/><path d="m88 191-5-2.5v-4l5 2.5z" fill="#39c"/><path d="m84 188v-3l-1-.5v4l5 2.5v-1z" opacity=".45"/><path d="m80 187-5-2.5v-4l5 2.5z" fill="#39c"/><path d="m80 187-5-2.5v-4z" fill="#fff" opacity=".2"/><path d="m76 184v-3l-1-.5v4l5 2.5v-1z" opacity=".45"/><path d="m72 183-5-2.5v-4l5 2.5z" fill="#39c"/><path d="m68 180v-3l-1-.5v4l5 2.5v-1z" opacity=".45"/><path d="m64 179-5-2.5v-4l5 2.5z" fill="#39c"/><path d="m60 176v-3l-1-.5v4l5 2.5v-1z" opacity=".45"/><path d="m56 175-5-2.5v-4l5 2.5z" fill="#39c"/><path d="m52 172v-3l-1-.5v4l5 2.5v-1z" opacity=".45"/><path d="m48 171-5-2.5v-4l5 2.5z" fill="#39c"/><path d="m44 168v-3l-1-.5v4l5 2.5v-1z" opacity=".45"/><path d="m40 167-5-2.5v-4l5 2.5z" fill="#39c"/><path d="m36 164v-3l-1-.5v4l5 2.5v-1z" opacity=".45"/><path d="m32 163-5-2.5v-4l5 2.5z" fill="#39c"/><path d="m28 160v-3l-1-.5v4l5 2.5v-1z" opacity=".45"/><path d="m24 159-5-2.5v-4l5 2.5z" fill="#39c"/><path d="m20 156v-3l-1-.5v4l5 2.5v-1z" opacity=".45"/><path d="m16 155-5-2.5v-4l5 2.5z" fill="#39c"/><path d="m16 155-5-2.5v-4z" fill="#fff" opacity=".2"/><path d="m12 152v-3l-1-.5v4l5 2.5v-1z" opacity=".45"/><path d="m8 151-5-2.5v-4l5 2.5z" fill="#39c"/><path d="m4 148v-3l-1-.5v4l5 2.5v-1z" opacity=".45"/><path d="m64 151-5-2.5v-8l5 2.5z" fill="#39c"/><path d="m60 148v-7l-1-.5v8l5 2.5v-1z" opacity=".45"/><path d="m56 147-5-2.5v-8l5 2.5z" fill="#39c"/><path d="m52 144v-7l-1-.5v8l5 2.5v-1z" opacity=".45"/><path d="m48 143-5-2.5v-8l5 2.5z" fill="#39c"/><path d="m48 143-5-10.5 5 2.5z" opacity=".15"/><path d="m44 140v-7l-1-.5v8l5 2.5v-1z" opacity=".45"/><path d="m40 139-5-2.5v-8l5 2.5z" fill="#39c"/><path d="m36 136v-7l-1-.5v8l5 2.5v-1z" opacity=".45"/><path d="m32 135-5-2.5v-8l5 2.5z" fill="#39c"/><path d="m28 132v-7l-1-.5v8l5 2.5v-1z" opacity=".45"/><path d="m24 131-5-2.5v-8l5 2.5z" fill="#39c"/><path d="m20 128v-7l-1-.5v8l5 2.5v-1z" opacity=".45"/><path d="m16 127-5-2.5v-8l5 2.5z" fill="#39c"/><path d="m16 127-5-2.5v-8z" fill="#fff" opacity=".2"/><path d="m12 124v-7l-1-.5v8l5 2.5v-1z" opacity=".45"/><path d="m8 123-5-2.5v-8l5 2.5z" fill="#39c"/><path d="m4 120v-7l-1-.5v8l5 2.5v-1z" opacity=".45"/><path d="m64 135-5-2.5v-8l5 2.5z" fill="#39c"/><path d="m60 132v-7l-1-.5v8l5 2.5v-1z" opacity=".45"/><path d="m56 131-5-2.5v-8l5 2.5z" fill="#39c"/><path d="m52 128v-7l-1-.5v8l5 2.5v-1z" opacity=".45"/><path d="m48 127-5-2.5v-8l5 2.5z" fill="#39c"/><path d="m44 124v-7l-1-.5v8l5 2.5v-1z" opacity=".45"/><path d="m40 123-5-2.5v-8l5 2.5z" fill="#39c"/><path d="m40 123-5-10.5 5 2.5z" opacity=".15"/><path d="m36 120v-7l-1-.5v8l5 2.5v-1z" opacity=".45"/><path d="m32 119-5-2.5v-8l5 2.5z" fill="#39c"/><path d="m28 116v-7l-1-.5v8l5 2.5v-1z" opacity=".45"/><path d="m24 115-5-2.5v-8l5 2.5z" fill="#39c"/><path d="m24 115-5-10.5 5 2.5z" opacity=".15"/><path d="m20 112v-7l-1-.5v8l5 2.5v-1z" opacity=".45"/><path d="m16 111-5-2.5v-8l5 2.5z" fill="#39c"/><path d="m12 108v-7l-1-.5v8l5 2.5v-1z" opacity=".45"/><path d="m8 107-5-2.5v-8l5 2.5z" fill="#39c"/><path d="m4 104v-7l-1-.5v8l5 2.5v-1z" opacity=".45"/><path d="m128 216-128-64v-112l128 64z" opacity=".06"/><path d="m200 172-72 36v-104l72-36z" fill="#e5e5e5"/><path d="m196 85-68 34v-8l68-34z" fill="#39c"/><path d="m195 77.5v7l-67 33.5v1l68-34v-8z" opacity=".45"/><path d="m188 89-22 11-25 4.5z" fill="#fff" opacity=".2"/><path d="m196 117-68 34v-8l68-34z" fill="#39c"/><path d="m196 101-68 34v-8l68-34z" fill="#39c"/><path d="m164 117-16 8-20 2z" fill="#fff" opacity=".2"/><path d="m196 149-68 34v-8l68-34z" fill="#39c"/><path d="m188 153-22 11-25 4.5z" fill="#fff" opacity=".2"/><path d="m196 133-68 34v-8l68-34z" fill="#39c"/><path d="m196 133-43 13.5 22-11z" opacity=".15"/><path d="m196 165-68 34v-8l68-34z" fill="#39c"/><path d="m164 181-16 8-20 2z" fill="#fff" opacity=".2"/><path d="m195 109.5v7l-67 33.5v1l68-34v-8z" opacity=".45"/><path d="m195 93.5v7l-67 33.5v1l68-34v-8z" opacity=".45"/><path d="m195 141.5v7l-67 33.5v1l68-34v-8z" opacity=".45"/><path d="m195 157.5v7l-67 33.5v1l68-34v-8z" opacity=".45"/><path d="m195 125.5v7l-67 33.5v1l68-34v-8z" opacity=".45"/><path d="m200 172-72 36v-104l72-36z" opacity=".39"/><path d="m72 4-72 36 128 64 72-36z" fill="#e5e5e5"/><path d="m192 62-120-60-64 32v6l120 60 64-32z" fill="#e5e5e5"/><path d="m192 62-64 32v6l64-32z" opacity=".39"/><path d="m128 94-120-60v6l120 60z" opacity=".06"/><path d="m192 62-120-60-64 32 120 60z" fill="#e5e5e5"/><path d="m16.9 34 55.1-27.5 111.1 55.5-55.1 27.5z" opacity=".3"/><path d="m72 9v-2.5l-55.1 27.5 2.6 1.3z" opacity=".39"/><path d="m72 9 108.5 54.3 2.6-1.3-111.1-55.5z" opacity=".06"/><path d="m128 152-32-16-32 16v34l48 24 64-32v-34l-16-8z" fill="#e5e5e5"/><path d="m114 197 36-18v18l-36 18z" fill="#39c"/><g fill="#e5e5e5"><path d="m120 212-1 .5v-18l1-.5z"/><path d="m125 209.5-1 .5v-18l1-.5z"/><path d="m130 207-1 .5v-18l1-.5z"/><path d="m135 204.5-1 .5v-18l1-.5z"/><path d="m140 202-1 .5v-18l1-.5z"/><path d="m145 199.5-1 .5v-18l1-.5z"/></g><path d="m118 195 32-16v18z" opacity=".15"/><path d="m132 188 18-9v18z" opacity=".15"/><path d="m150 186-36 18v-1l36-18z" fill="#e5e5e5" opacity=".3"/><path d="m114 197 36-18v18l-36 18z" opacity=".39"/><path d="m98 217 8-4v-18l-8-4z" fill="#e5e5e5"/><path d="m98 217 8-4v-18l-8-4z" opacity=".39"/><path d="m98 217 14 7 46-23-8-4-38 19-6-3z" fill="#999"/><path d="m112 216-6-3-4 2 10 5 42-21-4-2z" opacity=".3"/><path d="m106 195 4 2v18l-4-2z" fill="#39c"/><path d="m106 195 4 20-4-2z" fill="#fff" opacity=".2"/><path d="m110 204-4-2v-1l4 2z" fill="#e5e5e5" opacity=".39"/><path d="m106 195 4 2v18l-4-2z" opacity=".06"/><path d="m112 191-14-7v5l14 7 30-15v-5z" opacity=".2"/><path d="m158 201-8-4v-17l8-13z" fill="#e5e5e5"/><path d="m158 201-8-4v-17l8-13z" opacity=".06"/><path d="m64 152v48l34 17v-25l12 6v25l2 1v-48z" fill="#e5e5e5"/><path d="m88 190-5-2.5v-8l5 2.5z" fill="#39c"/><path d="m84 187v-7l-1-.5v8l5 2.5v-1z" opacity=".45"/><path d="m80 186-5-2.5v-8l5 2.5z" fill="#39c"/><path d="m80 186-5-2.5v-8z" fill="#fff" opacity=".2"/><path d="m76 183v-7l-1-.5v8l5 2.5v-1z" opacity=".45"/><path d="m72 182-5-2.5v-8l5 2.5z" fill="#39c"/><path d="m68 179v-7l-1-.5v8l5 2.5v-1z" opacity=".45"/><path d="m88 177-5-2.5v-8l5 2.5z" fill="#39c"/><path d="m84 174v-7l-1-.5v8l5 2.5v-1z" opacity=".45"/><path d="m80 173-5-2.5v-8l5 2.5z" fill="#39c"/><path d="m76 170v-7l-1-.5v8l5 2.5v-1z" opacity=".45"/><path d="m72 169-5-2.5v-8l5 2.5z" fill="#39c"/><path d="m68 166v-7l-1-.5v8l5 2.5v-1z" opacity=".45"/><path d="m96 194-5-2.5v-8l5 2.5z" fill="#39c"/><path d="m92 191v-7l-1-.5v8l5 2.5v-1z" opacity=".45"/><path d="m88 203-5-2.5v-8l5 2.5z" fill="#39c"/><path d="m84 200v-7l-1-.5v8l5 2.5v-1z" opacity=".45"/><path d="m80 199-5-2.5v-8l5 2.5z" fill="#39c"/><path d="m80 199-5-2.5v-8z" fill="#fff" opacity=".2"/><path d="m76 196v-7l-1-.5v8l5 2.5v-1z" opacity=".45"/><path d="m72 195-5-2.5v-8l5 2.5z" fill="#39c"/><path d="m68 192v-7l-1-.5v8l5 2.5v-1z" opacity=".45"/><path d="m96 207-5-2.5v-8l5 2.5z" fill="#39c"/><path d="m92 204v-7l-1-.5v8l5 2.5v-1z" opacity=".45"/><path d="m96 181-5-2.5v-8l5 2.5z" fill="#39c"/><path d="m92 178v-7l-1-.5v8l5 2.5v-1z" opacity=".45"/><path d="m103 179.5 2 1v10l-2-1z" fill="#cc291f"/><path d="m99 183.5v-2l10 5v2z" fill="#cc291f"/><path d="m64 152v48l34 17v-25l12 6v25l2 1v-48z" opacity=".06"/><path d="m112 176v48l2-1v-25l44-22v25l18-9v-48z" fill="#e5e5e5"/><path d="m158 166-44 22v-8l44-22z" fill="#39c"/><path d="m158 166-16 8-25 4.5z" fill="#fff" opacity=".2"/><path d="m112 176v48l2-1v-25l44-22v25l18-9v-48z" opacity=".39"/><path d="m157 158.5v7l-43 21.5v1l44-22v-8z" opacity=".45"/></svg>