<svg enable-background="new 0 0 64 64" viewBox="0 0 64 64" xmlns="http://www.w3.org/2000/svg"><path d="m32 10-32 16v22l32 16 32-16v-22z" fill="#e5e5e5"/><path d="m34 63v-22l-2 1v22z" fill="#262626" opacity=".25"/><path d="m44 58v-22l-1 .5v22z" fill="#262626" opacity=".25"/><path d="m54 53v-22l-1 .5v22z" fill="#262626" opacity=".25"/><path d="m64 48v-22l-1 .5v22z" fill="#262626" opacity=".25"/><path d="m36 44v14l5-2.5v-14z" fill="#39c"/><path d="m40 42v13l-4 2v1l5-2.5v-14z" fill="#262626" opacity=".45"/><path d="m46 39v14l5-2.5v-14z" fill="#39c"/><path d="m46 39 5 11.5v-14z" fill="#262626" opacity=".15"/><path d="m50 37v13l-4 2v1l5-2.5v-14z" fill="#262626" opacity=".45"/><path d="m56 34v14l5-2.5v-14z" fill="#39c"/><g fill="#262626"><path d="m56 34 5 11.5v-14z" opacity=".25"/><path d="m60 32v13l-4 2v1l5-2.5v-14z" opacity=".45"/><path d="m30 63v-22l2 1v22z" opacity=".25"/><path d="m20 58v-22l1 .5v22z" opacity=".25"/><path d="m10 53v-22l1 .5v22z" opacity=".25"/><path d="m0 48v-22l1 .5v22z" opacity=".25"/></g><path d="m28 44v14l-5-2.5v-14z" fill="#39c"/><path d="m24 42v13l4 2v1l-5-2.5v-14z" fill="#262626" opacity=".45"/><path d="m18 39v14l-5-2.5v-14z" fill="#39c"/><path d="m18 53-5-2.5v-14z" fill="#fff" opacity=".15"/><path d="m14 37v13l4 2v1l-5-2.5v-14z" fill="#262626" opacity=".45"/><path d="m8 34v14l-5-2.5v-14z" fill="#39c"/><path d="m8 48-5-2.5v-14z" fill="#fff" opacity=".25"/><path d="m4 32v13l4 2v1l-5-2.5v-14z" fill="#262626" opacity=".45"/><path d="m64 48v-22l-32 16v22z" opacity=".39"/><path d="m0 48v-22l32 16v22z" opacity=".06"/><path d="m32 2-18 9v14l18 9 18-9v-14z" fill="#e5e5e5"/><path d="m34 33v-14l-2 1v14z" fill="#262626" opacity=".25"/><path d="m50 25v-14l-2 1v14z" fill="#262626" opacity=".25"/><path d="m30 33v-14l2 1v14z" fill="#262626" opacity=".25"/><path d="m14 25v-14l2 1v14z" fill="#262626" opacity=".25"/><path d="m36 24v5l10-5v-5z" fill="#39c"/><path d="m36 24h10v-5z" fill="#262626" opacity=".15"/><path d="m45 19.5v4l-9 4.5v1l10-5v-5z" fill="#262626" opacity=".45"/><path d="m28 24v5l-10-5v-5z" fill="#39c"/><path d="m19 19.5v4l9 4.5v1l-10-5v-5z" fill="#262626" opacity=".45"/><path d="m50 25v-14l-18 9v14z" opacity=".39"/><path d="m14 25v-14l18 9v14z" opacity=".06"/><path d="m32 4-8 4v3l8 4 8-4v-3z" fill="#e5e5e5"/><path d="m40 11v-3l-8 4v3z" opacity=".39"/><path d="m24 11v-3l8 4v3z" opacity=".06"/><path d="m36 8-4 2v-10z" fill="#999"/><path d="m36 8-4 2v-10z" opacity=".39"/><path d="m28 8 4 2v-10z" fill="#999"/><path d="m28 8 4 2v-10z" opacity=".06"/></svg>