<?xml version="1.0" encoding="UTF-8" standalone="no"?>
<!-- Created with Inkscape (http://www.inkscape.org/) -->

<svg
   xmlns:dc="http://purl.org/dc/elements/1.1/"
   xmlns:cc="http://creativecommons.org/ns#"
   xmlns:rdf="http://www.w3.org/1999/02/22-rdf-syntax-ns#"
   xmlns:svg="http://www.w3.org/2000/svg"
   xmlns="http://www.w3.org/2000/svg"
   xmlns:sodipodi="http://sodipodi.sourceforge.net/DTD/sodipodi-0.dtd"
   xmlns:inkscape="http://www.inkscape.org/namespaces/inkscape"
   width="20.659744mm"
   height="66.826256mm"
   viewBox="0 0 20.659745 66.826255"
   version="1.1"
   id="svg113590"
   inkscape:version="0.92.3 (2405546, 2018-03-11)"
   sodipodi:docname="people-dancing-18.svg">
  <defs
     id="defs113584">
    <clipPath
       id="clipPath6938"
       clipPathUnits="userSpaceOnUse">
      <path
         inkscape:connector-curvature="0"
         id="path6936"
         d="m 332.31,670.939 h 80.557 V 627.742 H 332.31 Z" />
    </clipPath>
    <clipPath
       id="clipPath19962"
       clipPathUnits="userSpaceOnUse">
      <path
         inkscape:connector-curvature="0"
         id="path19960"
         d="m 509.182,647.722 h 56.485 v -19.98 h -56.485 z" />
    </clipPath>
    <clipPath
       id="clipPath19818"
       clipPathUnits="userSpaceOnUse">
      <path
         inkscape:connector-curvature="0"
         id="path19816"
         d="m 671.425,650.716 h 65.619 v -22.975 h -65.619 z" />
    </clipPath>
    <clipPath
       id="clipPath14734"
       clipPathUnits="userSpaceOnUse">
      <path
         inkscape:connector-curvature="0"
         id="path14732"
         d="m 800.948,651.727 h 68.678 v -23.986 h -68.678 z" />
    </clipPath>
    <clipPath
       id="clipPath14822"
       clipPathUnits="userSpaceOnUse">
      <path
         inkscape:connector-curvature="0"
         id="path14820"
         d="m 957.738,645.951 h 63.252 v -18.209 h -63.252 z" />
    </clipPath>
    <clipPath
       id="clipPath20130"
       clipPathUnits="userSpaceOnUse">
      <path
         inkscape:connector-curvature="0"
         id="path20128"
         d="m 1084.85,651.425 h 64.51 v -23.683 h -64.51 z" />
    </clipPath>
    <clipPath
       id="clipPath20722"
       clipPathUnits="userSpaceOnUse">
      <path
         inkscape:connector-curvature="0"
         id="path20720"
         d="m 1222.08,654.393 h 75.95 v -26.652 h -75.95 z" />
    </clipPath>
    <clipPath
       id="clipPath20266"
       clipPathUnits="userSpaceOnUse">
      <path
         inkscape:connector-curvature="0"
         id="path20264"
         d="m 1383.9,646.412 h 44.62 v -18.67 h -44.62 z" />
    </clipPath>
    <clipPath
       id="clipPath20442"
       clipPathUnits="userSpaceOnUse">
      <path
         inkscape:connector-curvature="0"
         id="path20440"
         d="m 1493.26,654.136 h 75.09 v -26.394 h -75.09 z" />
    </clipPath>
    <clipPath
       id="clipPath20366"
       clipPathUnits="userSpaceOnUse">
      <path
         inkscape:connector-curvature="0"
         id="path20364"
         d="m 1632.21,651.13 h 77.31 v -23.389 h -77.31 z" />
    </clipPath>
    <clipPath
       id="clipPath20538"
       clipPathUnits="userSpaceOnUse">
      <path
         inkscape:connector-curvature="0"
         id="path20536"
         d="m 1778.62,646.625 h 45.13 v -18.883 h -45.13 z" />
    </clipPath>
    <clipPath
       id="clipPath20590"
       clipPathUnits="userSpaceOnUse">
      <path
         inkscape:connector-curvature="0"
         id="path20588"
         d="m 1895.15,652.288 h 61.65 v -24.547 h -61.65 z" />
    </clipPath>
    <clipPath
       id="clipPath20798"
       clipPathUnits="userSpaceOnUse">
      <path
         inkscape:connector-curvature="0"
         id="path20796"
         d="m 2032.21,650.712 h 54.29 v -22.97 h -54.29 z" />
    </clipPath>
    <clipPath
       id="clipPath20218"
       clipPathUnits="userSpaceOnUse">
      <path
         inkscape:connector-curvature="0"
         id="path20216"
         d="m 2154,646.547 h 46.37 V 627.742 H 2154 Z" />
    </clipPath>
    <clipPath
       id="clipPath20882"
       clipPathUnits="userSpaceOnUse">
      <path
         inkscape:connector-curvature="0"
         id="path20880"
         d="m 2287.35,649.844 h 48.35 v -22.102 h -48.35 z" />
    </clipPath>
    <clipPath
       id="clipPath21206"
       clipPathUnits="userSpaceOnUse">
      <path
         inkscape:connector-curvature="0"
         id="path21204"
         d="m 2432.86,646.93 h 8.25 v -13.96 h -8.25 z" />
    </clipPath>
    <clipPath
       id="clipPath21150"
       clipPathUnits="userSpaceOnUse">
      <path
         inkscape:connector-curvature="0"
         id="path21148"
         d="m 2406.52,649.765 h 54.69 v -22.024 h -54.69 z" />
    </clipPath>
    <clipPath
       id="clipPath21098"
       clipPathUnits="userSpaceOnUse">
      <path
         inkscape:connector-curvature="0"
         id="path21096"
         d="m 2526.96,654.315 h 61.23 v -26.573 h -61.23 z" />
    </clipPath>
    <clipPath
       id="clipPath20954"
       clipPathUnits="userSpaceOnUse">
      <path
         inkscape:connector-curvature="0"
         id="path20952"
         d="m 2663.33,652.114 h 56.93 v -24.373 h -56.93 z" />
    </clipPath>
  </defs>
  <sodipodi:namedview
     id="base"
     pagecolor="#ffffff"
     bordercolor="#666666"
     borderopacity="1.0"
     inkscape:pageopacity="0.0"
     inkscape:pageshadow="2"
     inkscape:zoom="0.35"
     inkscape:cx="39.041988"
     inkscape:cy="126.28583"
     inkscape:document-units="mm"
     inkscape:current-layer="layer1"
     showgrid="false"
     inkscape:window-width="1366"
     inkscape:window-height="716"
     inkscape:window-x="-8"
     inkscape:window-y="-8"
     inkscape:window-maximized="1"
     fit-margin-top="0"
     fit-margin-left="0"
     fit-margin-right="0"
     fit-margin-bottom="0" />
  <metadata
     id="metadata113587">
    <rdf:RDF>
      <cc:Work
         rdf:about="">
        <dc:format>image/svg+xml</dc:format>
        <dc:type
           rdf:resource="http://purl.org/dc/dcmitype/StillImage" />
        <dc:title></dc:title>
      </cc:Work>
    </rdf:RDF>
  </metadata>
  <g
     inkscape:label="Layer 1"
     inkscape:groupmode="layer"
     id="layer1"
     transform="translate(87.814982,-115.42021)">
    <g
       id="g20940"
       transform="matrix(0.35277777,0,0,-0.35277777,-78.26309,122.92474)">
      <path
         d="m 0,0 -2.9,12.959 c 0,0 -0.039,-0.467 -1.413,6.437 -0.447,2.239 -1.419,2.229 -1.828,1.245 -0.246,-0.592 0.319,-3.282 0.866,-6.219 0.115,-0.623 -0.381,-2.516 -1.469,-0.943 -1.658,2.392 -4.258,6.177 -5.057,6.212 -1.16,0.051 -0.762,-0.871 0.528,-3.07 1.048,-1.793 3.107,-4.666 2.918,-4.957 -2.124,-3.256 -1.436,-5.029 -1.436,-5.029 0,0 3.924,-8.067 5.217,-9.158 C -1.449,-5.16 0,0 0,0"
         style="fill:#eabea0;fill-opacity:1;fill-rule:nonzero;stroke:none"
         id="path20942"
         inkscape:connector-curvature="0" />
    </g>
    <g
       id="g20944"
       transform="matrix(0.35277777,0,0,-0.35277777,-68.886918,137.25431)">
      <path
         d="m 0,0 c 0,0 -1.209,-7.271 -9.631,-3.184 -5.277,2.561 -13.848,16.807 -15.678,20.516 -3.918,7.939 -7.623,22.652 -7.623,22.652 0,0 3.817,5.309 7.098,2.662 0.236,-0.191 5.182,-14.517 7.932,-18.964 C -12.898,15.598 2.221,4.703 0,0"
         style="fill:#5b31ad;fill-opacity:1;fill-rule:nonzero;stroke:none"
         id="path20946"
         inkscape:connector-curvature="0" />
    </g>
    <g
       id="g20948"
       transform="matrix(0.35277777,0,0,-0.35277777,-1027.3786,403.69968)">
      <g
         id="g20950" />
      <g
         id="g20962">
        <g
           clip-path="url(#clipPath20954)"
           id="g20960"
           style="opacity:0.27000403">
          <g
             transform="translate(2674.3574,648.5967)"
             id="g20958">
            <path
               d="M 0,0 C 2.875,1.273 13.48,4.15 21.865,3.393 33.143,2.373 51.4,-1.355 44.309,-9.912 39.684,-15.494 24.756,-22.855 6.172,-20.352 -7.072,-18.568 -21.596,-9.578 0,0"
               style="fill:#231f20;fill-opacity:1;fill-rule:nonzero;stroke:none"
               id="path20956"
               inkscape:connector-curvature="0" />
          </g>
        </g>
      </g>
    </g>
    <g
       id="g20964"
       transform="matrix(0.35277777,0,0,-0.35277777,-69.715804,173.19629)">
      <path
         d="M 0,0 C 0,0 1.822,-0.824 1.68,-4.008 1.539,-7.186 1.221,-9.475 0.428,-10.09 c -0.791,-0.617 -2.949,-1.783 -4.864,-1.568 -1.914,0.213 -4.3,0.97 -5.457,1.291 -1.16,0.312 -2.066,0.213 -6.203,1.402 -5.83,1.672 -9.222,5.578 -9.738,7.108 -0.52,1.55 0.463,3.941 0.463,3.941 4.863,-0.813 14.326,-3.008 16.115,-1.008 C -7.461,3.082 0,0 0,0"
         style="fill:#fafcfc;fill-opacity:1;fill-rule:nonzero;stroke:none"
         id="path20966"
         inkscape:connector-curvature="0" />
    </g>
    <g
       id="g20968"
       transform="matrix(0.35277777,0,0,-0.35277777,-69.547715,172.58375)">
      <path
         d="m 0,0 c 0,0 1.369,-1.822 1.225,-5.002 -0.143,-3.182 -0.582,-4.408 -1.373,-5.023 -0.793,-0.616 -2.373,-1.844 -4.29,-1.629 -1.912,0.211 -4.298,0.966 -5.458,1.287 -1.157,0.318 -2.758,-0.235 -6.901,0.951 -4.283,1.227 -8.15,4.123 -9.016,6.574 -0.474,1.342 -1.388,5.096 3.477,4.285 4.861,-0.812 11.291,-2.367 13.08,-0.365 C -7.459,3.082 0,0 0,0"
         style="fill:#a2bcdb;fill-opacity:1;fill-rule:nonzero;stroke:none"
         id="path20970"
         inkscape:connector-curvature="0" />
    </g>
    <g
       id="g20972"
       transform="matrix(0.35277777,0,0,-0.35277777,-74.497619,174.19469)">
      <path
         d="m 0,0 c 0.176,-0.24 0.508,-0.02 0.529,0.273 0,0 0.012,0.831 0.231,1.78 0.304,1.342 1.035,2.232 1.595,2.465 0.231,0.095 0.62,0 0.573,0.248 C 2.889,4.998 2.66,5.145 2.438,5.068 1.738,4.824 0.357,4.115 -0.068,2.246 -0.324,1.139 -0.301,0.402 0,0"
         style="fill:#325a7f;fill-opacity:1;fill-rule:nonzero;stroke:none"
         id="path20974"
         inkscape:connector-curvature="0" />
    </g>
    <g
       id="g20976"
       transform="matrix(0.35277777,0,0,-0.35277777,-75.098408,174.14921)">
      <path
         d="m 0,0 c 0.178,-0.236 0.51,-0.02 0.527,0.273 0,0 0.018,0.825 0.231,1.786 C 1.064,3.398 1.775,4.178 2.336,4.41 2.568,4.504 2.973,4.521 2.93,4.764 2.885,4.996 2.656,5.148 2.438,5.072 1.736,4.826 0.355,4.119 -0.07,2.244 -0.322,1.141 -0.299,0.408 0,0"
         style="fill:#325a7f;fill-opacity:1;fill-rule:nonzero;stroke:none"
         id="path20978"
         inkscape:connector-curvature="0" />
    </g>
    <g
       id="g20980"
       transform="matrix(0.35277777,0,0,-0.35277777,-75.666892,174.04446)">
      <path
         d="m 0,0 c 0.188,-0.225 0.512,-0.023 0.527,0.27 0,0 0.014,0.83 0.231,1.785 C 1.063,3.396 1.551,4.02 2.119,4.25 2.352,4.344 2.729,4.234 2.689,4.48 2.646,4.709 2.242,4.9 2.008,4.877 1.438,4.822 0.756,4.48 0.299,3.061 -0.068,1.904 -0.324,0.385 0,0"
         style="fill:#325a7f;fill-opacity:1;fill-rule:nonzero;stroke:none"
         id="path20982"
         inkscape:connector-curvature="0" />
    </g>
    <g
       id="g20984"
       transform="matrix(0.35277777,0,0,-0.35277777,-73.468231,147.71842)">
      <path
         d="m 0,0 c -5.105,-11.309 -8.301,-40.65 -6.184,-48.484 3.436,-12.719 5.485,-23.252 5.485,-23.252 7.844,-7.846 12.617,-1.364 12.713,1.138 0,0 -2.205,10.928 -4.006,18.133 -1.024,4.094 -2.438,10.635 -2.549,11.815 -0.422,4.445 2.617,19.837 7.457,32.511 C 14.115,-5.012 6.76,14.975 0,0"
         style="fill:#6a80a0;fill-opacity:1;fill-rule:nonzero;stroke:none"
         id="path20986"
         inkscape:connector-curvature="0" />
    </g>
    <g
       id="g20988"
       transform="matrix(0.35277777,0,0,-0.35277777,-75.97283,176.92733)">
      <path
         d="m 0,0 c 0,0 1.824,-0.824 1.678,-4.004 -0.139,-3.176 -0.459,-5.469 -1.25,-6.084 -0.787,-0.617 -2.949,-1.781 -4.862,-1.566 -1.914,0.215 -4.304,0.968 -5.461,1.291 -1.16,0.31 -2.064,0.217 -6.203,1.4 -5.828,1.672 -9.22,5.578 -9.738,7.108 -0.516,1.55 0.465,3.947 0.465,3.947 C -20.51,1.271 -11.043,-0.922 -9.254,1.08 -7.459,3.082 0,0 0,0"
         style="fill:#fafcfc;fill-opacity:1;fill-rule:nonzero;stroke:none"
         id="path20990"
         inkscape:connector-curvature="0" />
    </g>
    <g
       id="g20992"
       transform="matrix(0.35277777,0,0,-0.35277777,-75.804687,176.31339)">
      <path
         d="M 0,0 C 0,0 1.621,-2.32 1.145,-7.307 1.02,-8.625 0.643,-9.412 -0.15,-10.025 c -0.791,-0.618 -2.371,-1.846 -4.284,-1.631 -1.916,0.211 -4.304,0.967 -5.462,1.289 -1.159,0.316 -2.762,-0.237 -6.901,0.949 -4.285,1.229 -8.152,4.127 -9.016,6.57 -0.474,1.346 -1.388,5.1 3.477,4.287 C -17.475,0.631 -11.047,-0.922 -9.254,1.08 -7.463,3.08 0,0 0,0"
         style="fill:#b5cae8;fill-opacity:1;fill-rule:nonzero;stroke:none"
         id="path20994"
         inkscape:connector-curvature="0" />
    </g>
    <g
       id="g20996"
       transform="matrix(0.35277777,0,0,-0.35277777,-80.755279,177.92431)">
      <path
         d="m 0,0 c 0.18,-0.238 0.51,-0.02 0.529,0.273 0,0 0.014,0.825 0.233,1.778 0.304,1.344 1.037,2.236 1.595,2.467 0.233,0.093 0.618,0 0.575,0.244 C 2.893,4.996 2.662,5.146 2.439,5.066 1.738,4.82 0.355,4.115 -0.066,2.244 -0.32,1.135 -0.295,0.402 0,0"
         style="fill:#325a7f;fill-opacity:1;fill-rule:nonzero;stroke:none"
         id="path20998"
         inkscape:connector-curvature="0" />
    </g>
    <g
       id="g21000"
       transform="matrix(0.35277777,0,0,-0.35277777,-81.355434,177.87885)">
      <path
         d="m 0,0 c 0.178,-0.238 0.508,-0.021 0.527,0.273 0,0 0.014,0.829 0.235,1.782 C 1.064,3.396 1.775,4.178 2.336,4.41 2.568,4.504 2.971,4.521 2.93,4.766 2.889,4.996 2.656,5.148 2.436,5.07 1.736,4.822 0.355,4.113 -0.068,2.242 -0.322,1.137 -0.295,0.404 0,0"
         style="fill:#325a7f;fill-opacity:1;fill-rule:nonzero;stroke:none"
         id="path21002"
         inkscape:connector-curvature="0" />
    </g>
    <g
       id="g21004"
       transform="matrix(0.35277777,0,0,-0.35277777,-81.923865,177.77482)">
      <path
         d="m 0,0 c 0.189,-0.223 0.512,-0.021 0.527,0.273 0,0 0.014,0.823 0.231,1.782 C 1.063,3.398 1.553,4.02 2.117,4.25 2.354,4.344 2.729,4.234 2.688,4.48 2.646,4.711 2.24,4.9 2.006,4.879 1.436,4.82 0.756,4.48 0.301,3.059 -0.07,1.906 -0.326,0.387 0,0"
         style="fill:#325a7f;fill-opacity:1;fill-rule:nonzero;stroke:none"
         id="path21006"
         inkscape:connector-curvature="0" />
    </g>
    <g
       id="g21008"
       transform="matrix(0.35277777,0,0,-0.35277777,-77.381128,151.11805)">
      <path
         d="m 0,0 c -7.283,-11.254 -14.285,-39.742 -12.242,-45.197 4.74,-12.635 6.939,-30.207 6.939,-30.207 7.85,-6.139 11.158,1.375 11.043,2.504 0,0 -1.207,16.529 -3.797,23.679 -1.711,4.735 -1.336,7.451 -1.269,8.68 0.34,6.478 5.806,18.664 12.967,31.332 C 15.41,-6.078 9.639,14.904 0,0"
         style="fill:#8597b5;fill-opacity:1;fill-rule:nonzero;stroke:none"
         id="path21010"
         inkscape:connector-curvature="0" />
    </g>
    <g
       id="g21012"
       transform="matrix(0.35277777,0,0,-0.35277777,-68.957191,136.89048)">
      <path
         d="m 0,0 c 0,0 -1.844,7.107 -2.57,18.367 -0.096,1.528 -8.032,-0.74 -8.032,-0.74 0,0 -0.117,-10.522 -0.757,-13.857 C -11.887,1.029 0,0 0,0"
         style="fill:#f7cbad;fill-opacity:1;fill-rule:nonzero;stroke:none"
         id="path21014"
         inkscape:connector-curvature="0" />
    </g>
    <g
       id="g21016"
       transform="matrix(0.35277777,0,0,-0.35277777,-71.581699,125.94818)">
      <path
         d="m 0,0 -8.27,1.924 -1.121,-16.551 c -0.365,-4.545 1.979,-5.918 3.35,-6.256 2.848,-0.705 5.99,0.145 7.797,0.707 3.492,1.086 4.986,6.367 5.105,6.795 l 3.34,10.276 z"
         style="fill:#f7cbad;fill-opacity:1;fill-rule:nonzero;stroke:none"
         id="path21018"
         inkscape:connector-curvature="0" />
    </g>
    <g
       id="g21020"
       transform="matrix(0.35277777,0,0,-0.35277777,-69.581476,131.84067)">
      <path
         d="m 0,0 c 0,0 2.266,3.561 5.018,8.58 2.752,5.025 1.974,7.889 0.697,10.055 -0.834,1.416 -1.242,2.297 -1.695,3.195 -0.991,1.967 -0.866,2.596 -0.866,2.596 0,0 -1.945,0.215 -1.83,-1.664 0.059,-1.026 -0.697,-0.864 -0.697,-0.864 0,0 -1.574,0.786 -1.133,2.387 0.447,1.604 0.959,1.885 0.959,1.885 0,0 -2.508,-0.43 -3.398,-1.889 -0.455,-0.75 -0.848,0.408 -1.041,1.1 -0.19,0.695 0.023,1.789 0.023,1.789 l -4.201,-2.432 c 0,0 -0.578,0.217 -0.768,0.908 -0.191,0.696 0.551,1.483 0.551,1.483 0,0 -3.75,-1.154 -5.51,-5.744 -0.599,-1.569 -0.451,-4.36 0.561,-6.311 0.951,-1.828 2.059,-7.181 2.059,-7.181 0,0 -0.147,-4.27 1.341,-0.84 0.766,1.773 2.825,-1.93 4.186,-4.989 C -4.318,-1.145 -2.279,-2.971 0,0"
         style="fill:#ffde73;fill-opacity:1;fill-rule:nonzero;stroke:none"
         id="path21022"
         inkscape:connector-curvature="0" />
    </g>
    <g
       id="g21024"
       transform="matrix(0.35277777,0,0,-0.35277777,-72.80881,128.80621)">
      <path
         d="M 0,0 C 0,0 1.217,-0.566 1.244,-2.145 1.26,-3.262 0.668,-4.014 0.395,-4.213 c -0.717,-0.523 -1.323,-0.502 -1.323,-0.502 0,0 0.69,2.463 0.789,2.928 C -0.039,-1.328 0,0 0,0"
         style="fill:#e5b7a3;fill-opacity:1;fill-rule:nonzero;stroke:none"
         id="path21026"
         inkscape:connector-curvature="0" />
    </g>
    <g
       id="g21028"
       transform="matrix(0.35277777,0,0,-0.35277777,-72.970047,128.55682)">
      <path
         d="m 0,0 c 0,0 -0.717,0.244 -0.484,-0.941 0.236,-1.18 0.189,-1.84 0.05,-2.432 -0.13,-0.543 -0.691,-2.096 -0.691,-2.096 0,0 0.273,-0.793 0.979,0.053 0.337,0.406 0.716,1.246 1,2.391 C 0.969,-2.557 0.852,0.006 0,0"
         style="fill:#f7ddcb;fill-opacity:1;fill-rule:nonzero;stroke:none"
         id="path21030"
         inkscape:connector-curvature="0" />
    </g>
    <g
       id="g21032"
       transform="matrix(0.35277777,0,0,-0.35277777,-69.749565,156.57024)">
      <path
         d="m 0,0 c 0,0 1.477,8.314 3.018,17.174 1.697,9.738 2.593,14.476 3.652,27.812 0,0 -0.352,12.627 -5.506,17.784 -1.48,1.482 -12.949,-3.571 -16.963,-7.709 -2.418,-2.493 -5.873,-9.321 -6.642,-21.506 C -23.818,11.75 -27.973,3.426 -27.717,3.248 -9.734,-9.34 0,0 0,0"
         style="fill:#7650d6;fill-opacity:1;fill-rule:nonzero;stroke:none"
         id="path21034"
         inkscape:connector-curvature="0" />
    </g>
    <g
       id="g21036"
       transform="matrix(0.35277777,0,0,-0.35277777,-75.652419,154.29993)">
      <path
         d="m 0,0 c 0,0 2.393,-2.299 0.912,-2.469 -1.049,-0.131 -5.357,-7.162 -4.621,-8.558 1.641,-3.106 0.346,-2.858 0.346,-2.858 0,0 -3.698,-0.105 -4.965,3.908 -1.27,4.016 -1.129,4.561 0.428,7.145 1.554,2.588 4.976,7.406 4.976,7.406 z"
         style="fill:#e5b28c;fill-opacity:1;fill-rule:nonzero;stroke:none"
         id="path21038"
         inkscape:connector-curvature="0" />
    </g>
    <g
       id="g21040"
       transform="matrix(0.35277777,0,0,-0.35277777,-74.82766,137.37625)">
      <path
         d="m 0,0 c 0,0 6.24,4.803 8.361,-4.34 1.694,-7.305 3.19,-20.767 2.01,-24.769 C 8.002,-37.16 -0.641,-51.84 -0.641,-51.84 c 0,0 -7.302,2.297 -6.134,6.643 0.078,0.291 7.347,18.562 6.88,21.275 C -1.535,-14.434 -4.418,-2.254 0,0"
         style="fill:#8463ea;fill-opacity:1;fill-rule:nonzero;stroke:none"
         id="path21042"
         inkscape:connector-curvature="0" />
    </g>
  </g>
</svg>
