<?xml version="1.0" encoding="UTF-8" standalone="no"?>
<!-- Created with Inkscape (http://www.inkscape.org/) -->

<svg
   xmlns:dc="http://purl.org/dc/elements/1.1/"
   xmlns:cc="http://creativecommons.org/ns#"
   xmlns:rdf="http://www.w3.org/1999/02/22-rdf-syntax-ns#"
   xmlns:svg="http://www.w3.org/2000/svg"
   xmlns="http://www.w3.org/2000/svg"
   xmlns:sodipodi="http://sodipodi.sourceforge.net/DTD/sodipodi-0.dtd"
   xmlns:inkscape="http://www.inkscape.org/namespaces/inkscape"
   width="13.850091mm"
   height="61.5107mm"
   viewBox="0 0 13.850091 61.5107"
   version="1.1"
   id="svg164967"
   inkscape:version="0.92.3 (2405546, 2018-03-11)"
   sodipodi:docname="people-business-13.svg">
  <defs
     id="defs164961" />
  <sodipodi:namedview
     id="base"
     pagecolor="#ffffff"
     bordercolor="#666666"
     borderopacity="1.0"
     inkscape:pageopacity="0.0"
     inkscape:pageshadow="2"
     inkscape:zoom="0.35"
     inkscape:cx="-546.68374"
     inkscape:cy="539.09784"
     inkscape:document-units="mm"
     inkscape:current-layer="layer1"
     showgrid="false"
     fit-margin-top="0"
     fit-margin-left="0"
     fit-margin-right="0"
     fit-margin-bottom="0"
     inkscape:window-width="1366"
     inkscape:window-height="716"
     inkscape:window-x="-8"
     inkscape:window-y="-8"
     inkscape:window-maximized="1" />
  <metadata
     id="metadata164964">
    <rdf:RDF>
      <cc:Work
         rdf:about="">
        <dc:format>image/svg+xml</dc:format>
        <dc:type
           rdf:resource="http://purl.org/dc/dcmitype/StillImage" />
        <dc:title></dc:title>
      </cc:Work>
    </rdf:RDF>
  </metadata>
  <g
     inkscape:label="Layer 1"
     inkscape:groupmode="layer"
     id="layer1"
     transform="translate(-67.158288,-229.95894)">
    <g
       id="g2310"
       transform="matrix(0.35277777,0,0,-0.35277777,78.126704,260.36819)">
      <path
         d="M 0,0 C -0.374,-1.542 1.391,-3.045 2.749,-3.375 3.223,-3.491 2.801,-6.454 3.233,-7.704 3.688,-9.016 4.983,-8.611 5.25,-8.319 5.46,-8.09 5.241,-3.563 5.226,-2.419 5.181,1.391 3.815,1.863 2.457,2.191 1.101,2.522 0.379,1.542 0,0"
         style="fill:#e8caba;fill-opacity:1;fill-rule:nonzero;stroke:none"
         id="path2312"
         inkscape:connector-curvature="0" />
    </g>
    <g
       id="g2314"
       transform="matrix(0.35277777,0,0,-0.35277777,77.482814,259.47764)">
      <path
         d="m 0,0 3.999,0.496 2.064,-4.735 0.09,-0.805 0.113,-6.489 c 0,0 0.295,-3.115 -2.894,-3.512 -2.081,-0.258 -0.226,-0.029 -0.226,-0.029 -2.854,-0.355 -3.728,3.612 -3.728,3.612 L -1.776,-4.64 C -2.031,-2.892 -1.835,-0.23 0,0"
         style="fill:#e8caba;fill-opacity:1;fill-rule:nonzero;stroke:none"
         id="path2316"
         inkscape:connector-curvature="0" />
    </g>
    <g
       id="g2318"
       transform="matrix(0.35277777,0,0,-0.35277777,79.542993,259.60044)">
      <path
         d="m 0,0 c 0,0 -1.657,-1.586 -3.874,-1.694 -0.714,-0.035 -2.812,-0.479 -2.812,-0.479 l -5.248,24.162 -1.734,16.439 c -0.817,4.362 -1.192,11.531 3.536,12.009 6.16,0.623 6.646,-8.375 6.646,-8.375 L -3.308,22.88 Z"
         style="fill:#01797f;fill-opacity:1;fill-rule:nonzero;stroke:none"
         id="path2320"
         inkscape:connector-curvature="0" />
    </g>
    <g
       id="g2322"
       transform="matrix(0.35277777,0,0,-0.35277777,79.509232,286.17487)">
      <path
         d="m 0,0 c -0.056,0.056 -6.227,4.445 -6.298,4.496 -2.676,1.94 -2.163,6.971 -2.163,6.971 0,0 5.137,38.654 7.002,51.518 1.06,7.318 -0.103,12.633 -0.103,12.633 L -21.08,72.944 c 0.071,-1.608 -1.629,-1.791 -1.316,-2.641 0.44,-1.194 0.048,-4.774 0.077,-7.85 l 3.562,-54.078 0.069,-1.454 0.138,-3.391 c 0,-1.166 1.099,-3.265 2.631,-3.669 1.315,-0.345 2.491,-0.692 2.491,-0.692 0,0 12.598,-2.816 13.755,-2.329 C 2.907,-2.077 0.277,-0.278 0,0"
         style="fill:#e8c5ac;fill-opacity:1;fill-rule:nonzero;stroke:none"
         id="path2324"
         inkscape:connector-curvature="0" />
    </g>
    <g
       id="g2326"
       transform="matrix(0.35277777,0,0,-0.35277777,72.072641,260.44174)">
      <path
         d="m 0,0 c 0.071,-1.608 -1.629,-1.791 -1.315,-2.641 0.439,-1.194 0.047,-4.774 0.076,-7.851 l 3.562,-54.077 0.07,-1.454 c 0,0 2.288,-2.86 5.045,-2.426 3.647,0.576 5.73,2.288 5.73,2.288 0,0 4.588,43.338 6.453,56.202 1.06,7.318 -0.102,12.632 -0.102,12.632 z"
         style="fill:#423b3b;fill-opacity:1;fill-rule:nonzero;stroke:none"
         id="path2328"
         inkscape:connector-curvature="0" />
    </g>
    <g
       id="g2330"
       transform="matrix(0.35277777,0,0,-0.35277777,74.345015,287.59995)">
      <path
         d="M 0,0 2.734,1.974 0.155,3.926 -1.54,3.564 Z"
         style="fill:#5b5454;fill-opacity:1;fill-rule:nonzero;stroke:none"
         id="path2332"
         inkscape:connector-curvature="0" />
    </g>
    <g
       id="g2334"
       transform="matrix(0.35277777,0,0,-0.35277777,73.103404,286.34127)">
      <path
         d="m 0,0 1.257,-2.851 c 0,0 0.186,-0.521 1.471,-0.671 0.335,-0.041 0.792,-0.046 0.792,-0.046 l -0.451,3.443 z"
         style="fill:#7c7676;fill-opacity:1;fill-rule:nonzero;stroke:none"
         id="path2336"
         inkscape:connector-curvature="0" />
    </g>
    <g
       id="g2338"
       transform="matrix(0.35277777,0,0,-0.35277777,80.870037,287.82044)">
      <path
         d="M 0,0 C 0.711,0.719 0.324,1.941 -0.13,2.161 -1.978,3.056 -2.957,3.488 -2.957,3.488 -2.035,2.697 -3.894,2.5 -5.44,2.123 c -1.884,-0.46 -3.985,-0.566 -6.412,0.191 -1.716,0.537 -4.81,2.019 -6.071,2.6 -4.22,1.942 -5.104,4.246 -5.104,4.246 0,0 -0.044,-1.006 0.285,-2.55 0.48,-2.262 1.513,-2.463 1.513,-2.463 0,0 -0.23,-0.193 2.006,-0.659 2.518,-0.525 7.494,-3.988 10.826,-4.854 C -5.633,-2.082 -1.722,-1.738 0,0"
         style="fill:#7c7676;fill-opacity:1;fill-rule:nonzero;stroke:none"
         id="path2340"
         inkscape:connector-curvature="0" />
    </g>
    <g
       id="g2342"
       transform="matrix(0.35277777,0,0,-0.35277777,80.779761,287.57205)">
      <path
         d="M 0,0 C 0.991,1.052 0.063,1.632 -0.789,2.187 -0.912,2.267 -3.602,3.96 -3.602,3.96 -2.68,3.168 -2.511,2.372 -5.037,1.835 -6.935,1.431 -9.353,1.725 -11.63,2.853 c -2.116,1.048 -5.265,3.133 -6.108,3.646 -3.97,2.414 -5.106,4.245 -5.106,4.245 0,0 -0.635,-2.744 -0.306,-4.29 0.48,-2.263 1.646,-3.321 1.646,-3.321 l 3.367,-0.142 C -15.68,2.406 -12.26,-0.375 -8.288,-1.287 -4.215,-2.224 -1.209,-1.285 0,0"
         style="fill:#070707;fill-opacity:1;fill-rule:nonzero;stroke:none"
         id="path2344"
         inkscape:connector-curvature="0" />
    </g>
    <g
       id="g2346"
       transform="matrix(0.35277777,0,0,-0.35277777,76.45549,288.96435)">
      <path
         d="m 0,0 c -0.061,0.053 -2.982,3.897 -3.803,5 -3.183,4.292 -2.253,9.748 -2.253,9.748 l 0.077,0.634 5.425,59.703 c 0,0 -0.036,0.919 0.113,2.794 0.056,0.695 2.661,1.811 2.671,2.337 H -22.201 L -22.289,79.8 c -0.995,-5.022 0.292,-13.72 0.659,-16.867 0.212,-1.838 4.823,-45.84 5.3,-50.527 l 0.125,-4.793 c 0,-1.166 0.247,-1.595 1.052,-2.959 0.899,-1.523 6.921,-6.368 6.921,-6.368 0,0 3.843,-3.392 7.609,-1.885 1.951,0.78 1.826,2.354 0.827,3.403 C 0.141,-0.127 0.072,-0.063 0,0"
         style="fill:#ffe1cc;fill-opacity:1;fill-rule:nonzero;stroke:none"
         id="path2348"
         inkscape:connector-curvature="0" />
    </g>
    <g
       id="g2350"
       transform="matrix(0.35277777,0,0,-0.35277777,71.622346,289.49578)">
      <path
         d="M 0,0 3.087,1.359 0.969,3.807 h -1.733 z"
         style="fill:#5b5454;fill-opacity:1;fill-rule:nonzero;stroke:none"
         id="path2352"
         inkscape:connector-curvature="0" />
    </g>
    <g
       id="g2354"
       transform="matrix(0.35277777,0,0,-0.35277777,70.670137,288.00628)">
      <path
         d="m 0,0 0.636,-3.05 c 0,0 0.073,-0.549 1.3,-0.965 0.32,-0.108 0.763,-0.207 0.763,-0.207 l 0.277,3.461 z"
         style="fill:#7c7676;fill-opacity:1;fill-rule:nonzero;stroke:none"
         id="path2356"
         inkscape:connector-curvature="0" />
    </g>
    <g
       id="g2358"
       transform="matrix(0.35277777,0,0,-0.35277777,77.200292,291.19765)">
      <path
         d="M 0,0 C 1.44,0.872 0.846,2.652 0.746,2.848 -0.084,4.51 -1.419,4.254 -1.419,4.254 -0.684,3.288 -3.351,2.24 -4.944,2.193 c -1.939,-0.055 -3.951,1.292 -6.165,2.538 -1.569,0.882 -3.154,2.861 -4.149,3.831 -3.045,2.976 -3.21,5.554 -3.21,5.554 0,0 -0.251,-0.975 -0.251,-2.554 0,-2.314 0.969,-2.723 0.969,-2.723 0,0 0.126,-0.808 2.215,-1.731 2.353,-1.038 3.959,-5.156 7.039,-6.696 C -5.943,-0.863 -2.094,-1.266 0,0"
         style="fill:#7c7676;fill-opacity:1;fill-rule:nonzero;stroke:none"
         id="path2360"
         inkscape:connector-curvature="0" />
    </g>
    <g
       id="g2362"
       transform="matrix(0.35277777,0,0,-0.35277777,77.16378,290.93617)">
      <path
         d="m 0,0 c 1.592,0.969 1.332,2.302 -1.194,4.828 -0.104,0.104 -0.679,0.637 -0.679,0.637 0.735,-0.966 0.551,-2.41 -1.999,-2.836 -2.076,-0.346 -4.291,0.208 -6.506,1.938 -1.417,1.109 -3.53,2.423 -5.538,4.846 -2.963,3.577 -2.353,6.298 -2.353,6.298 0,0 -1.592,-1.176 -1.176,-4.084 0.328,-2.291 1.215,-3.724 1.215,-3.724 l 3.421,-1.605 c 2.283,-1.084 2.742,-4.111 6.434,-5.83 C -4.586,-1.298 -1.508,-0.917 0,0"
         style="fill:#070707;fill-opacity:1;fill-rule:nonzero;stroke:none"
         id="path2364"
         inkscape:connector-curvature="0" />
    </g>
    <g
       id="g2366"
       transform="matrix(0.35277777,0,0,-0.35277777,68.592365,260.81258)">
      <path
         d="m 0,0 c -0.995,-5.022 -0.215,-12.062 0.207,-16.4 0.18,-1.842 3.331,-46.926 3.81,-51.613 0,0 -0.278,-1.825 1.665,-2.859 7.575,-4.03 11.198,-0.772 11.198,-0.772 0.009,1.118 5.801,61.759 5.801,61.759 0,0 1.267,9.918 1.276,10.443 L 0.088,0.416 Z"
         style="fill:#5b5353;fill-opacity:1;fill-rule:nonzero;stroke:none"
         id="path2368"
         inkscape:connector-curvature="0" />
    </g>
    <g
       id="g2370"
       transform="matrix(0.35277777,0,0,-0.35277777,68.545533,260.48136)">
      <path
         d="m 0,0 c -0.093,-0.937 -0.173,-1.869 -0.229,-2.779 2.607,-1.015 8.778,-2.862 16.911,-1.621 5.704,0.87 9.382,3.87 10.153,4.43 1.23,0.894 2.085,1.83 2.682,2.756 -0.3,2.487 -0.759,4.494 -1.19,6.027 -0.237,0.418 -0.456,0.753 -0.618,0.995 L 2.499,4.059 0.439,3.536 C 0.288,2.567 0.169,1.595 0.063,0.627 0.041,0.417 0.02,0.209 0,0"
         style="fill:#3a3535;fill-opacity:1;fill-rule:nonzero;stroke:none"
         id="path2372"
         inkscape:connector-curvature="0" />
    </g>
    <g
       id="g2374"
       transform="matrix(0.35277777,0,0,-0.35277777,76.676999,241.90503)">
      <path
         d="m 0,0 5.537,-17.096 c 0,0 1.177,-3.392 1.017,-5.354 -0.228,-2.764 -2.069,-5.24 -2.194,-5.444 -1.315,-2.146 -1.529,-4.794 -1.114,-7.009 l 2.775,-12.095 c 0,0 -0.852,-2.215 -6.852,-5.445 -9.523,-5.127 -21.477,-0.067 -21.477,-0.067 -0.486,0.437 0.515,5.628 0.621,6.158 l 1.567,8.447 c 0.278,1.317 0.374,2.67 0.278,4.012 l -3.322,11.259 c 0,0 -3.046,10.337 -0.093,13.66 2.563,2.881 7.476,6.921 9.967,8.49 0.627,0.393 2.031,1.014 3.692,1.477 0,0 6.068,1.291 9.598,-0.993"
         style="fill:#0592a0;fill-opacity:1;fill-rule:nonzero;stroke:none"
         id="path2376"
         inkscape:connector-curvature="0" />
    </g>
    <g
       id="g2378"
       transform="matrix(0.35277777,0,0,-0.35277777,75.836735,249.51353)">
      <path
         d="M 0,0 C 0,0.091 0.145,0.397 0.5,7.142 L -3.577,4.326 C -1.65,1.847 0,-0.182 0,0"
         style="fill:#c8fafc;fill-opacity:1;fill-rule:nonzero;stroke:none"
         id="path2380"
         inkscape:connector-curvature="0" />
    </g>
    <g
       id="g2382"
       transform="matrix(0.35277777,0,0,-0.35277777,70.740411,265.64779)">
      <path
         d="M 0,0 C 0.086,-1.584 2.208,-2.514 3.604,-2.44 4.09,-2.415 4.542,-5.374 5.316,-6.444 6.128,-7.571 7.252,-6.81 7.423,-6.453 7.558,-6.174 6.043,-1.902 5.701,-0.81 4.56,2.826 3.116,2.882 1.722,2.807 0.326,2.733 -0.083,1.585 0,0"
         style="fill:#ffe8d9;fill-opacity:1;fill-rule:nonzero;stroke:none"
         id="path2384"
         inkscape:connector-curvature="0" />
    </g>
    <g
       id="g2386"
       transform="matrix(0.35277777,0,0,-0.35277777,70.072417,264.74154)">
      <path
         d="m 0,0 4.021,0.261 1.783,-4.849 0.044,-0.809 -0.271,-6.484 c 0,0 0.112,-3.126 -3.096,-3.336 -2.093,-0.136 -0.227,-0.015 -0.227,-0.015 -2.87,-0.187 -3.51,3.825 -3.51,3.825 l -0.79,6.88 C -2.197,-2.767 -1.845,-0.121 0,0"
         style="fill:#ffe8d9;fill-opacity:1;fill-rule:nonzero;stroke:none"
         id="path2388"
         inkscape:connector-curvature="0" />
    </g>
    <g
       id="g2390"
       transform="matrix(0.35277777,0,0,-0.35277777,71.962045,264.81562)">
      <path
         d="m 0,0 c 0,0 -1.696,-1.901 -4.465,-1.901 -2.491,0 -2.329,0.632 -2.329,0.632 l -4.915,30.141 -0.764,16.511 c -0.326,4.263 0.31,11.398 5.151,11.709 5.793,0.372 5.378,-7.522 5.378,-7.522 L -3.046,29.255 Z"
         style="fill:#14aab2;fill-opacity:1;fill-rule:nonzero;stroke:none"
         id="path2392"
         inkscape:connector-curvature="0" />
    </g>
    <g
       id="g2394"
       transform="matrix(0.35277777,0,0,-0.35277777,73.505809,230.0844)">
      <path
         d="m 0,0 c 0,0 5.322,0.071 9.408,-3.726 4.707,-4.375 4.093,-10.221 2.644,-16.557 -1.017,-4.445 -1.476,-7.936 -0.368,-9.967 0.843,-1.547 2.675,-1.384 2.675,-1.384 0,0 -1.245,-2.715 -3.598,-3.414 -2.354,-0.7 -7.677,0.779 -7.677,0.779 0,0 -2.524,13.37 -2.5,14.278 C 0.609,-19.082 0,0 0,0"
         style="fill:#684005;fill-opacity:1;fill-rule:nonzero;stroke:none"
         id="path2396"
         inkscape:connector-curvature="0" />
    </g>
    <g
       id="g2398"
       transform="matrix(0.35277777,0,0,-0.35277777,75.348209,242.93701)">
      <path
         d="m 0,0 c -0.246,0.328 2.395,-1.016 2.031,-8.583 -0.463,-9.598 -0.646,-9.958 -0.646,-10.059 0,-0.396 -7.782,9.644 -9.323,12.089 -3.136,4.984 -2.399,6.091 -2.214,7.384 L -9.246,13.723 0.79,12.616 Z"
         style="fill:#e8c5ac;fill-opacity:1;fill-rule:nonzero;stroke:none"
         id="path2400"
         inkscape:connector-curvature="0" />
    </g>
    <g
       id="g2402"
       transform="matrix(0.35277777,0,0,-0.35277777,74.62579,233.28544)">
      <path
         d="m 0,0 c 6.645,-0.554 6.316,-6.092 6.185,-9.783 -0.094,-2.583 -0.831,-7.383 -0.831,-7.383 -1.028,-4.722 -2.867,-7.366 -5.445,-8.029 -3.231,-0.83 -7.371,1.612 -10.685,6.061 -2.935,3.941 -3.193,6.409 -3.223,6.995 L -15.254,2.333 C -15.254,2.333 -3.532,0.294 0,0"
         style="fill:#ffe1cc;fill-opacity:1;fill-rule:nonzero;stroke:none"
         id="path2404"
         inkscape:connector-curvature="0" />
    </g>
    <g
       id="g2406"
       transform="matrix(0.35277777,0,0,-0.35277777,72.851574,229.96005)">
      <path
         d="m 0,0 c 0,0 -14.979,0.592 -16.068,-14.451 -0.299,-4.122 0.384,-5.226 1.476,-9.649 1.227,-4.958 2.843,-9.178 1.182,-11.393 -1.27,-1.693 -2.4,-1.292 -2.4,-1.292 l 5.998,-3.599 c 0,0 4.045,1.013 4.43,4.244 0,0 0.738,-2.029 -1.847,-5.559 0,0 6.328,0.367 4.291,11.697 -1.245,6.94 -0.413,11.028 1.526,13.797 1.65,2.36 4.235,3.443 5.628,4.615 1.754,1.474 4.041,4.886 0.669,9.136 C 2.929,0.011 0,0 0,0"
         style="fill:#684005;fill-opacity:1;fill-rule:nonzero;stroke:none"
         id="path2408"
         inkscape:connector-curvature="0" />
    </g>
    <g
       id="g2410"
       transform="matrix(0.35277777,0,0,-0.35277777,72.873984,232.9745)">
      <path
         d="m 0,0 -4.521,-10.798 c 0,0 3.783,0.462 5.721,1.199 0,0 1.912,2.778 2.676,5.077 0.093,0.277 -0.37,-2.677 -1.385,-4.707 -0.116,-0.233 4.8,1.2 4.8,1.2 0,0 1.015,1.569 0.831,4.43 -0.044,0.67 1.198,-1.286 1.198,-3.692 0,-0.186 2.756,0.853 2.771,1.846 0.091,6.091 -5.724,8.214 -5.724,8.214 z"
         style="fill:#684005;fill-opacity:1;fill-rule:nonzero;stroke:none"
         id="path2412"
         inkscape:connector-curvature="0" />
    </g>
  </g>
</svg>
