<?xml version="1.0" encoding="UTF-8" standalone="no"?>
<!-- Created with Inkscape (http://www.inkscape.org/) -->

<svg
   xmlns:dc="http://purl.org/dc/elements/1.1/"
   xmlns:cc="http://creativecommons.org/ns#"
   xmlns:rdf="http://www.w3.org/1999/02/22-rdf-syntax-ns#"
   xmlns:svg="http://www.w3.org/2000/svg"
   xmlns="http://www.w3.org/2000/svg"
   xmlns:sodipodi="http://sodipodi.sourceforge.net/DTD/sodipodi-0.dtd"
   xmlns:inkscape="http://www.inkscape.org/namespaces/inkscape"
   width="26.933418mm"
   height="55.169247mm"
   viewBox="0 0 26.933414 55.169246"
   version="1.1"
   id="svg45331"
   inkscape:version="0.92.3 (2405546, 2018-03-11)"
   sodipodi:docname="people-casual-21.svg">
  <defs
     id="defs45325">
    <clipPath
       id="clipPath2864"
       clipPathUnits="userSpaceOnUse">
      <path
         inkscape:connector-curvature="0"
         id="path2862"
         d="m 1713.778,1928.833 c -0.536,-0.312 -0.927,-0.874 -1.106,-1.65 v 0 l 1.125,0.653 c 0.179,0.778 0.57,1.34 1.107,1.651 v 0 z" />
    </clipPath>
    <clipPath
       id="clipPath2848"
       clipPathUnits="userSpaceOnUse">
      <path
         inkscape:connector-curvature="0"
         id="path2846"
         d="M 0,2119.953 H 3253.108 V 0 H 0 Z" />
    </clipPath>
    <clipPath
       id="clipPath2836"
       clipPathUnits="userSpaceOnUse">
      <path
         inkscape:connector-curvature="0"
         id="path2834"
         d="m 1711.152,1926.674 v -0.651 c 0.308,-0.179 0.813,-0.18 1.126,0 v 0 0.651 c -0.315,-0.183 -0.82,-0.178 -1.129,0" />
    </clipPath>
    <clipPath
       id="clipPath2820"
       clipPathUnits="userSpaceOnUse">
      <path
         inkscape:connector-curvature="0"
         id="path2818"
         d="M 0,2119.953 H 3253.108 V 0 H 0 Z" />
    </clipPath>
    <clipPath
       id="clipPath2808"
       clipPathUnits="userSpaceOnUse">
      <path
         inkscape:connector-curvature="0"
         id="path2806"
         d="m 1710.148,1926.8 c 0,-0.121 0.077,-0.238 0.231,-0.325 v 0 0.65 c -0.156,0.087 -0.233,0.207 -0.233,0.324 v 0 -0.649 z" />
    </clipPath>
    <clipPath
       id="clipPath2796"
       clipPathUnits="userSpaceOnUse">
      <path
         inkscape:connector-curvature="0"
         id="path2794"
         d="m 1714.756,1928.103 v -0.65 c 0.158,0.09 0.237,0.211 0.237,0.331 v 0 0.65 c 0,-0.119 -0.078,-0.24 -0.236,-0.331" />
    </clipPath>
    <clipPath
       id="clipPath2784"
       clipPathUnits="userSpaceOnUse">
      <path
         inkscape:connector-curvature="0"
         id="path2782"
         d="M 0,2119.953 H 3253.108 V 0 H 0 Z" />
    </clipPath>
    <clipPath
       id="clipPath2772"
       clipPathUnits="userSpaceOnUse">
      <path
         inkscape:connector-curvature="0"
         id="path2770"
         d="m 1720.53,1921.188 10e-4,-0.65 c 0.309,-0.181 0.814,-0.181 1.128,0 v 0 0.65 c -0.316,-0.182 -0.821,-0.181 -1.129,0" />
    </clipPath>
    <clipPath
       id="clipPath2756"
       clipPathUnits="userSpaceOnUse">
      <path
         inkscape:connector-curvature="0"
         id="path2754"
         d="M 0,2119.953 H 3253.108 V 0 H 0 Z" />
    </clipPath>
    <clipPath
       id="clipPath2744"
       clipPathUnits="userSpaceOnUse">
      <path
         inkscape:connector-curvature="0"
         id="path2742"
         d="m 1719.524,1921.312 c 0,-0.119 0.08,-0.235 0.234,-0.324 v 0 0.65 c -0.154,0.089 -0.233,0.207 -0.233,0.324 v 0 -0.65 z" />
    </clipPath>
    <clipPath
       id="clipPath2732"
       clipPathUnits="userSpaceOnUse">
      <path
         inkscape:connector-curvature="0"
         id="path2730"
         d="m 1724.133,1922.619 v -0.654 c 0.158,0.094 0.238,0.212 0.238,0.331 v 0 0.65 c 0,-0.117 -0.08,-0.238 -0.238,-0.327" />
    </clipPath>
    <clipPath
       id="clipPath2536"
       clipPathUnits="userSpaceOnUse">
      <path
         inkscape:connector-curvature="0"
         id="path2534"
         d="m 1708.77,1889.11 h 53.56 v -38.31 h -53.56 z" />
    </clipPath>
    <clipPath
       id="clipPath3428"
       clipPathUnits="userSpaceOnUse">
      <path
         inkscape:connector-curvature="0"
         id="path3426"
         d="m 1819.231,1919.634 0.051,-0.722 c 0.167,0.114 0.248,0.253 0.238,0.383 v 0 l -0.048,0.721 c 0.01,-0.131 -0.071,-0.272 -0.241,-0.382" />
    </clipPath>
    <clipPath
       id="clipPath3440"
       clipPathUnits="userSpaceOnUse">
      <path
         inkscape:connector-curvature="0"
         id="path3438"
         d="m 1814.225,1917.859 c 0.01,-0.132 0.103,-0.255 0.282,-0.343 v 0 l -0.049,0.721 c -0.177,0.085 -0.273,0.212 -0.281,0.34 v 0 z" />
    </clipPath>
    <clipPath
       id="clipPath3452"
       clipPathUnits="userSpaceOnUse">
      <path
         inkscape:connector-curvature="0"
         id="path3450"
         d="M 0,2119.953 H 3253.108 V 0 H 0 Z" />
    </clipPath>
    <clipPath
       id="clipPath3468"
       clipPathUnits="userSpaceOnUse">
      <path
         inkscape:connector-curvature="0"
         id="path3466"
         d="m 1815.349,1917.792 0.046,-0.72 c 0.354,-0.177 0.915,-0.14 1.248,0.082 v 0 l -0.048,0.721 c -0.335,-0.223 -0.893,-0.259 -1.246,-0.083" />
    </clipPath>
    <clipPath
       id="clipPath3480"
       clipPathUnits="userSpaceOnUse">
      <path
         inkscape:connector-curvature="0"
         id="path3478"
         d="M 0,2119.953 H 3253.108 V 0 H 0 Z" />
    </clipPath>
    <clipPath
       id="clipPath3492"
       clipPathUnits="userSpaceOnUse">
      <path
         inkscape:connector-curvature="0"
         id="path3490"
         d="m 1808.461,1925.033 0.049,-0.719 c 0.167,0.112 0.245,0.25 0.238,0.383 v 0 l -0.049,0.719 c 0.01,-0.131 -0.07,-0.268 -0.238,-0.383" />
    </clipPath>
    <clipPath
       id="clipPath3504"
       clipPathUnits="userSpaceOnUse">
      <path
         inkscape:connector-curvature="0"
         id="path3502"
         d="m 1803.454,1923.259 c 0.01,-0.132 0.102,-0.258 0.279,-0.342 v 0 l -0.048,0.72 c -0.177,0.086 -0.273,0.214 -0.28,0.342 v 0 z" />
    </clipPath>
    <clipPath
       id="clipPath3516"
       clipPathUnits="userSpaceOnUse">
      <path
         inkscape:connector-curvature="0"
         id="path3514"
         d="M 0,2119.953 H 3253.108 V 0 H 0 Z" />
    </clipPath>
    <clipPath
       id="clipPath3532"
       clipPathUnits="userSpaceOnUse">
      <path
         inkscape:connector-curvature="0"
         id="path3530"
         d="m 1804.576,1923.193 0.047,-0.721 c 0.353,-0.175 0.915,-0.14 1.248,0.081 v 0 l -0.049,0.722 c -0.333,-0.223 -0.894,-0.258 -1.246,-0.082" />
    </clipPath>
    <clipPath
       id="clipPath3544"
       clipPathUnits="userSpaceOnUse">
      <path
         inkscape:connector-curvature="0"
         id="path3542"
         d="M 0,2119.953 H 3253.108 V 0 H 0 Z" />
    </clipPath>
    <clipPath
       id="clipPath3560"
       clipPathUnits="userSpaceOnUse">
      <path
         inkscape:connector-curvature="0"
         id="path3558"
         d="m 1807.327,1925.772 c -0.572,-0.383 -0.964,-1.034 -1.106,-1.907 v 0 l 1.197,0.803 c 0.144,0.873 0.537,1.525 1.109,1.907 v 0 z" />
    </clipPath>
    <clipPath
       id="clipPath3240"
       clipPathUnits="userSpaceOnUse">
      <path
         inkscape:connector-curvature="0"
         id="path3238"
         d="m 1804.45,1875.26 h 66.26 v -26.97 h -66.26 z" />
    </clipPath>
    <clipPath
       id="clipPath3596"
       clipPathUnits="userSpaceOnUse">
      <path
         inkscape:connector-curvature="0"
         id="path3594"
         d="m 1887.55,1874.88 h 68.5 v -28.2 h -68.5 z" />
    </clipPath>
    <clipPath
       id="clipPath3760"
       clipPathUnits="userSpaceOnUse">
      <path
         inkscape:connector-curvature="0"
         id="path3758"
         d="m 1940.709,1921.043 c -0.01,-0.134 0.073,-0.277 0.243,-0.394 v 0 l 0.052,0.743 c -0.176,0.111 -0.256,0.256 -0.246,0.388 v 0 z" />
    </clipPath>
    <clipPath
       id="clipPath3772"
       clipPathUnits="userSpaceOnUse">
      <path
         inkscape:connector-curvature="0"
         id="path3770"
         d="m 1945.896,1919.955 -0.048,-0.737 c 0.182,0.088 0.281,0.215 0.289,0.351 v 0 l 0.048,0.737 c -0.01,-0.134 -0.106,-0.261 -0.289,-0.351" />
    </clipPath>
    <clipPath
       id="clipPath3784"
       clipPathUnits="userSpaceOnUse">
      <path
         inkscape:connector-curvature="0"
         id="path3782"
         d="M 0,2119.953 H 3253.108 V 0 H 0 Z" />
    </clipPath>
    <clipPath
       id="clipPath3800"
       clipPathUnits="userSpaceOnUse">
      <path
         inkscape:connector-curvature="0"
         id="path3798"
         d="m 1943.658,1918.845 c 0.343,-0.226 0.914,-0.264 1.28,-0.084 v 0 l 0.047,0.741 c -0.361,-0.182 -0.936,-0.146 -1.28,0.084 v 0 z" />
    </clipPath>
    <clipPath
       id="clipPath3812"
       clipPathUnits="userSpaceOnUse">
      <path
         inkscape:connector-curvature="0"
         id="path3810"
         d="M 0,2119.953 H 3253.108 V 0 H 0 Z" />
    </clipPath>
    <clipPath
       id="clipPath3824"
       clipPathUnits="userSpaceOnUse">
      <path
         inkscape:connector-curvature="0"
         id="path3822"
         d="m 1951.754,1926.58 c -0.01,-0.136 0.071,-0.278 0.241,-0.392 v 0 l 0.052,0.737 c -0.174,0.117 -0.253,0.258 -0.245,0.391 v 0 z" />
    </clipPath>
    <clipPath
       id="clipPath3836"
       clipPathUnits="userSpaceOnUse">
      <path
         inkscape:connector-curvature="0"
         id="path3834"
         d="m 1956.943,1925.491 -0.049,-0.737 c 0.18,0.088 0.277,0.215 0.287,0.352 v 0 l 0.049,0.737 c -0.01,-0.132 -0.104,-0.262 -0.287,-0.352" />
    </clipPath>
    <clipPath
       id="clipPath3848"
       clipPathUnits="userSpaceOnUse">
      <path
         inkscape:connector-curvature="0"
         id="path3846"
         d="M 0,2119.953 H 3253.108 V 0 H 0 Z" />
    </clipPath>
    <clipPath
       id="clipPath3864"
       clipPathUnits="userSpaceOnUse">
      <path
         inkscape:connector-curvature="0"
         id="path3862"
         d="m 1954.703,1924.383 c 0.34,-0.229 0.916,-0.262 1.279,-0.086 v 0 l 0.049,0.743 c -0.361,-0.183 -0.938,-0.15 -1.279,0.081 v 0 z" />
    </clipPath>
    <clipPath
       id="clipPath3876"
       clipPathUnits="userSpaceOnUse">
      <path
         inkscape:connector-curvature="0"
         id="path3874"
         d="M 0,2119.953 H 3253.108 V 0 H 0 Z" />
    </clipPath>
    <clipPath
       id="clipPath3892"
       clipPathUnits="userSpaceOnUse">
      <path
         inkscape:connector-curvature="0"
         id="path3890"
         d="m 1953.117,1926.55 1.227,-0.822 c -0.145,0.891 -0.551,1.561 -1.133,1.955 v 0 l -1.232,0.823 c 0.588,-0.393 0.989,-1.061 1.138,-1.956" />
    </clipPath>
    <clipPath
       id="clipPath3948"
       clipPathUnits="userSpaceOnUse">
      <path
         inkscape:connector-curvature="0"
         id="path3946"
         d="m 2018.76,1870.93 h 70.11 v -23.75 h -70.11 z" />
    </clipPath>
    <clipPath
       id="clipPath4212"
       clipPathUnits="userSpaceOnUse">
      <path
         inkscape:connector-curvature="0"
         id="path4210"
         d="m 2154.433,1916.311 c 0,-0.141 0.087,-0.289 0.273,-0.405 v 0 l 0.028,0.784 c -0.187,0.117 -0.276,0.264 -0.271,0.407 v 0 z" />
    </clipPath>
    <clipPath
       id="clipPath4224"
       clipPathUnits="userSpaceOnUse">
      <path
         inkscape:connector-curvature="0"
         id="path4222"
         d="m 2159.973,1915.328 -0.03,-0.782 c 0.192,0.1 0.289,0.239 0.295,0.381 v 0 l 0.027,0.785 c 0,-0.142 -0.103,-0.28 -0.292,-0.384" />
    </clipPath>
    <clipPath
       id="clipPath4236"
       clipPathUnits="userSpaceOnUse">
      <path
         inkscape:connector-curvature="0"
         id="path4234"
         d="M 0,2119.953 H 3253.108 V 0 H 0 Z" />
    </clipPath>
    <clipPath
       id="clipPath4252"
       clipPathUnits="userSpaceOnUse">
      <path
         inkscape:connector-curvature="0"
         id="path4250"
         d="m 2157.634,1914.081 c 0.368,-0.23 0.978,-0.251 1.357,-0.046 v 0 l 0.029,0.783 c -0.377,-0.203 -0.988,-0.185 -1.36,0.049 v 0 z" />
    </clipPath>
    <clipPath
       id="clipPath4264"
       clipPathUnits="userSpaceOnUse">
      <path
         inkscape:connector-curvature="0"
         id="path4262"
         d="M 0,2119.953 H 3253.108 V 0 H 0 Z" />
    </clipPath>
    <clipPath
       id="clipPath4276"
       clipPathUnits="userSpaceOnUse">
      <path
         inkscape:connector-curvature="0"
         id="path4274"
         d="m 2165.961,1922.544 c 0,-0.146 0.086,-0.293 0.271,-0.409 v 0 l 0.032,0.784 c -0.188,0.117 -0.279,0.265 -0.274,0.408 v 0 z" />
    </clipPath>
    <clipPath
       id="clipPath4288"
       clipPathUnits="userSpaceOnUse">
      <path
         inkscape:connector-curvature="0"
         id="path4286"
         d="m 2171.5,1921.561 -0.028,-0.785 c 0.189,0.101 0.287,0.239 0.293,0.379 v 0 l 0.028,0.787 c 0,-0.142 -0.102,-0.281 -0.293,-0.381" />
    </clipPath>
    <clipPath
       id="clipPath4300"
       clipPathUnits="userSpaceOnUse">
      <path
         inkscape:connector-curvature="0"
         id="path4298"
         d="M 0,2119.953 H 3253.108 V 0 H 0 Z" />
    </clipPath>
    <clipPath
       id="clipPath4316"
       clipPathUnits="userSpaceOnUse">
      <path
         inkscape:connector-curvature="0"
         id="path4314"
         d="m 2169.16,1920.31 c 0.37,-0.229 0.979,-0.249 1.359,-0.045 v 0 l 0.03,0.784 c -0.379,-0.201 -0.99,-0.186 -1.36,0.046 v 0 z" />
    </clipPath>
    <clipPath
       id="clipPath4328"
       clipPathUnits="userSpaceOnUse">
      <path
         inkscape:connector-curvature="0"
         id="path4326"
         d="M 0,2119.953 H 3253.108 V 0 H 0 Z" />
    </clipPath>
    <clipPath
       id="clipPath4344"
       clipPathUnits="userSpaceOnUse">
      <path
         inkscape:connector-curvature="0"
         id="path4342"
         d="m 2167.406,1922.556 1.331,-0.832 c -0.186,0.942 -0.633,1.637 -1.266,2.036 v 0 l -1.332,0.833 c 0.636,-0.396 1.084,-1.091 1.267,-2.037" />
    </clipPath>
    <clipPath
       id="clipPath4598"
       clipPathUnits="userSpaceOnUse">
      <path
         inkscape:connector-curvature="0"
         id="path4596"
         d="m 2331.633,1939.514 c 0,-0.142 0.1,-0.287 0.296,-0.396 v 0 0.783 c -0.196,0.107 -0.292,0.246 -0.292,0.387 v 0 -0.774 z" />
    </clipPath>
    <clipPath
       id="clipPath4610"
       clipPathUnits="userSpaceOnUse">
      <path
         inkscape:connector-curvature="0"
         id="path4608"
         d="m 2337.17,1938.719 v -0.771 c 0.189,0.099 0.285,0.249 0.285,0.379 v 0 0.787 c 0,-0.14 -0.091,-0.287 -0.283,-0.395" />
    </clipPath>
    <clipPath
       id="clipPath4622"
       clipPathUnits="userSpaceOnUse">
      <path
         inkscape:connector-curvature="0"
         id="path4620"
         d="M 0,2119.953 H 3253.108 V 0 H 0 Z" />
    </clipPath>
    <clipPath
       id="clipPath4638"
       clipPathUnits="userSpaceOnUse">
      <path
         inkscape:connector-curvature="0"
         id="path4636"
         d="m 2334.888,1938.187 v -0.785 c 0.382,-0.217 0.981,-0.217 1.349,0 v 0 0.785 c -0.368,-0.217 -0.963,-0.217 -1.349,0" />
    </clipPath>
    <clipPath
       id="clipPath4650"
       clipPathUnits="userSpaceOnUse">
      <path
         inkscape:connector-curvature="0"
         id="path4648"
         d="M 0,2119.953 H 3253.108 V 0 H 0 Z" />
    </clipPath>
    <clipPath
       id="clipPath4662"
       clipPathUnits="userSpaceOnUse">
      <path
         inkscape:connector-curvature="0"
         id="path4660"
         d="m 2342.868,1946.09 c 0,-0.141 0.101,-0.294 0.291,-0.401 v 0 l 0.01,0.777 c -0.195,0.113 -0.291,0.255 -0.291,0.401 v 0 z" />
    </clipPath>
    <clipPath
       id="clipPath4674"
       clipPathUnits="userSpaceOnUse">
      <path
         inkscape:connector-curvature="0"
         id="path4672"
         d="m 2348.401,1945.298 v -0.782 c 0.182,0.104 0.277,0.25 0.277,0.39 v 0 l 0.01,0.781 c 0,-0.143 -0.095,-0.282 -0.282,-0.389" />
    </clipPath>
    <clipPath
       id="clipPath4686"
       clipPathUnits="userSpaceOnUse">
      <path
         inkscape:connector-curvature="0"
         id="path4684"
         d="M 0,2119.953 H 3253.108 V 0 H 0 Z" />
    </clipPath>
    <clipPath
       id="clipPath4702"
       clipPathUnits="userSpaceOnUse">
      <path
         inkscape:connector-curvature="0"
         id="path4700"
         d="m 2346.127,1944.756 v -0.778 c 0.376,-0.212 0.982,-0.212 1.348,0 v 0 0.778 c -0.366,-0.213 -0.972,-0.213 -1.348,0" />
    </clipPath>
    <clipPath
       id="clipPath4714"
       clipPathUnits="userSpaceOnUse">
      <path
         inkscape:connector-curvature="0"
         id="path4712"
         d="M 0,2119.953 H 3253.108 V 0 H 0 Z" />
    </clipPath>
    <clipPath
       id="clipPath4730"
       clipPathUnits="userSpaceOnUse">
      <path
         inkscape:connector-curvature="0"
         id="path4728"
         d="m 2343.05,1948.089 c -0.023,0.013 -0.045,0.026 -0.068,0.038 v 0 z m 1.257,-1.939 1.349,-0.782 c -0.21,0.926 -0.683,1.603 -1.326,1.976 v 0 l -1.28,0.745 c 0.612,-0.371 1.048,-1.041 1.257,-1.939" />
    </clipPath>
    <clipPath
       id="clipPath4742"
       clipPathUnits="userSpaceOnUse">
      <path
         inkscape:connector-curvature="0"
         id="path4740"
         d="M 0,2119.953 H 3253.108 V 0 H 0 Z" />
    </clipPath>
    <clipPath
       id="clipPath4918"
       clipPathUnits="userSpaceOnUse">
      <path
         inkscape:connector-curvature="0"
         id="path4916"
         d="m 2276.169,1866.541 c 0,-0.151 0.1,-0.291 0.285,-0.401 v 0 0.785 c -0.19,0.105 -0.286,0.259 -0.286,0.394 v 0 -0.778 z" />
    </clipPath>
    <clipPath
       id="clipPath4930"
       clipPathUnits="userSpaceOnUse">
      <path
         inkscape:connector-curvature="0"
         id="path4928"
         d="m 2281.734,1865.741 -0.01,-0.776 c 0.185,0.103 0.278,0.244 0.278,0.385 v 0 0.786 c 0,-0.141 -0.096,-0.281 -0.276,-0.395" />
    </clipPath>
    <clipPath
       id="clipPath4942"
       clipPathUnits="userSpaceOnUse">
      <path
         inkscape:connector-curvature="0"
         id="path4940"
         d="M 0,2119.953 H 3253.108 V 0 H 0 Z" />
    </clipPath>
    <clipPath
       id="clipPath4958"
       clipPathUnits="userSpaceOnUse">
      <path
         inkscape:connector-curvature="0"
         id="path4956"
         d="m 2279.442,1865.203 v -0.782 c 0.372,-0.219 0.983,-0.219 1.351,0 v 0 0.782 c -0.372,-0.221 -0.983,-0.221 -1.355,0" />
    </clipPath>
    <clipPath
       id="clipPath4970"
       clipPathUnits="userSpaceOnUse">
      <path
         inkscape:connector-curvature="0"
         id="path4968"
         d="M 0,2119.953 H 3253.108 V 0 H 0 Z" />
    </clipPath>
    <clipPath
       id="clipPath4982"
       clipPathUnits="userSpaceOnUse">
      <path
         inkscape:connector-curvature="0"
         id="path4980"
         d="m 2287.467,1873.148 c 0,-0.144 0.095,-0.29 0.287,-0.404 v 0 0.786 c -0.191,0.114 -0.29,0.258 -0.29,0.404 v 0 -0.786 z" />
    </clipPath>
    <clipPath
       id="clipPath4994"
       clipPathUnits="userSpaceOnUse">
      <path
         inkscape:connector-curvature="0"
         id="path4992"
         d="m 2293.032,1872.36 v -0.782 c 0.191,0.096 0.282,0.241 0.282,0.378 v 0 0.788 c 0,-0.14 -0.094,-0.281 -0.281,-0.384" />
    </clipPath>
    <clipPath
       id="clipPath5006"
       clipPathUnits="userSpaceOnUse">
      <path
         inkscape:connector-curvature="0"
         id="path5004"
         d="M 0,2119.953 H 3253.108 V 0 H 0 Z" />
    </clipPath>
    <clipPath
       id="clipPath5022"
       clipPathUnits="userSpaceOnUse">
      <path
         inkscape:connector-curvature="0"
         id="path5020"
         d="m 2290.745,1871.81 -0.01,-0.78 c 0.377,-0.22 0.986,-0.214 1.353,0 v 0 0.78 c -0.371,-0.212 -0.98,-0.212 -1.351,0" />
    </clipPath>
    <clipPath
       id="clipPath5034"
       clipPathUnits="userSpaceOnUse">
      <path
         inkscape:connector-curvature="0"
         id="path5032"
         d="M 0,2119.953 H 3253.108 V 0 H 0 Z" />
    </clipPath>
    <clipPath
       id="clipPath5050"
       clipPathUnits="userSpaceOnUse">
      <path
         inkscape:connector-curvature="0"
         id="path5048"
         d="m 2288.91,1873.212 1.359,-0.784 c -0.216,0.934 -0.691,1.61 -1.337,1.987 v 0 l -1.356,0.791 c 0.652,-0.377 1.121,-1.054 1.334,-1.994" />
    </clipPath>
    <clipPath
       id="clipPath4408"
       clipPathUnits="userSpaceOnUse">
      <path
         inkscape:connector-curvature="0"
         id="path4406"
         d="m 2301.08,1906.05 h 45.97 v -31.57 h -45.97 z" />
    </clipPath>
    <clipPath
       id="clipPath4392"
       clipPathUnits="userSpaceOnUse">
      <path
         inkscape:connector-curvature="0"
         id="path4390"
         d="m 2227.58,1871.71 h 52.38 v -32.03 h -52.38 z" />
    </clipPath>
    <clipPath
       id="clipPath5114"
       clipPathUnits="userSpaceOnUse">
      <path
         inkscape:connector-curvature="0"
         id="path5112"
         d="m 2417.33,1884.9 h 51.88 v -27.05 h -51.88 z" />
    </clipPath>
    <clipPath
       id="clipPath5554"
       clipPathUnits="userSpaceOnUse">
      <path
         inkscape:connector-curvature="0"
         id="path5552"
         d="m 2532.68,1877.97 h 61.16 v -27.88 h -61.16 z" />
    </clipPath>
    <clipPath
       id="clipPath5662"
       clipPathUnits="userSpaceOnUse">
      <path
         inkscape:connector-curvature="0"
         id="path5660"
         d="m 2652.02,1878.72 h 75.96 v -28.55 h -75.96 z" />
    </clipPath>
    <clipPath
       id="clipPath5782"
       clipPathUnits="userSpaceOnUse">
      <path
         inkscape:connector-curvature="0"
         id="path5780"
         d="m 2686.34,2040.48 h 6.76 v -5.02 h -6.76 z" />
    </clipPath>
    <clipPath
       id="clipPath5454"
       clipPathUnits="userSpaceOnUse">
      <path
         inkscape:connector-curvature="0"
         id="path5452"
         d="m 2763.78,1887.52 h 61.17 v -27.89 h -61.17 z" />
    </clipPath>
    <clipPath
       id="clipPath5226"
       clipPathUnits="userSpaceOnUse">
      <path
         inkscape:connector-curvature="0"
         id="path5224"
         d="m 2874.06,1879.83 h 115.04 v -37.41 h -115.04 z" />
    </clipPath>
    <clipPath
       id="clipPath5266"
       clipPathUnits="userSpaceOnUse">
      <path
         inkscape:connector-curvature="0"
         id="path5264"
         d="m 2898.47,1905.023 c -0.019,-0.014 -0.036,-0.025 -0.058,-0.038 v 0 c -0.579,-0.382 -0.588,-1.091 -0.535,-1.501 v 0 l 39.797,23.128 c -0.051,0.406 -0.042,1.119 0.537,1.502 v 0 c 0.018,0.012 0.037,0.024 0.058,0.036 v 0 c -13.266,-7.711 -26.531,-15.418 -39.799,-23.127" />
    </clipPath>
    <clipPath
       id="clipPath3000"
       clipPathUnits="userSpaceOnUse">
      <path
         inkscape:connector-curvature="0"
         id="path2998"
         d="m 3070.44,1903.77 h 111.77 v -40.19 h -111.77 z" />
    </clipPath>
    <clipPath
       id="clipPath6042"
       clipPathUnits="userSpaceOnUse">
      <path
         inkscape:connector-curvature="0"
         id="path6040"
         d="m 409.323,1548.74 h 49.951 v -25.11 h -49.951 z" />
    </clipPath>
    <clipPath
       id="clipPath5930"
       clipPathUnits="userSpaceOnUse">
      <path
         inkscape:connector-curvature="0"
         id="path5928"
         d="m 516.004,1548.66 h 54.751 v -25.03 h -54.751 z" />
    </clipPath>
    <clipPath
       id="clipPath6142"
       clipPathUnits="userSpaceOnUse">
      <path
         inkscape:connector-curvature="0"
         id="path6140"
         d="m 636.118,1542.78 h 45.362 v -19.15 h -45.362 z" />
    </clipPath>
    <clipPath
       id="clipPath6318"
       clipPathUnits="userSpaceOnUse">
      <path
         inkscape:connector-curvature="0"
         id="path6316"
         d="m 763.75,1602.23 h 22.211 v -7.49 H 763.75 Z" />
    </clipPath>
    <clipPath
       id="clipPath6242"
       clipPathUnits="userSpaceOnUse">
      <path
         inkscape:connector-curvature="0"
         id="path6240"
         d="m 749.178,1542.78 h 45.362 v -19.15 h -45.362 z" />
    </clipPath>
    <clipPath
       id="clipPath6358"
       clipPathUnits="userSpaceOnUse">
      <path
         inkscape:connector-curvature="0"
         id="path6356"
         d="m 859.142,1541.98 h 55.33 v -18.35 h -55.33 z" />
    </clipPath>
    <clipPath
       id="clipPath6562"
       clipPathUnits="userSpaceOnUse">
      <path
         inkscape:connector-curvature="0"
         id="path6560"
         d="m 972.921,1548.99 h 50.329 v -25.36 h -50.329 z" />
    </clipPath>
    <clipPath
       id="clipPath6898"
       clipPathUnits="userSpaceOnUse">
      <path
         inkscape:connector-curvature="0"
         id="path6896"
         d="m 1113.757,1660.871 0.977,-0.369 c -0.337,0.508 -0.215,1.396 0.271,1.968 v 0 l -0.978,0.368 c -0.484,-0.573 -0.605,-1.457 -0.27,-1.967" />
    </clipPath>
    <clipPath
       id="clipPath6882"
       clipPathUnits="userSpaceOnUse">
      <path
         inkscape:connector-curvature="0"
         id="path6880"
         d="M 0,2119.953 H 3253.108 V 0 H 0 Z" />
    </clipPath>
    <clipPath
       id="clipPath6870"
       clipPathUnits="userSpaceOnUse">
      <path
         inkscape:connector-curvature="0"
         id="path6868"
         d="m 1120.652,1670.681 0.975,-0.367 c 0.342,0.405 0.774,0.55 1.118,0.419 v 0 l -0.98,0.369 c -0.082,0.031 -0.168,0.047 -0.258,0.047 v 0 c -0.283,0 -0.596,-0.157 -0.855,-0.468" />
    </clipPath>
    <clipPath
       id="clipPath6858"
       clipPathUnits="userSpaceOnUse">
      <path
         inkscape:connector-curvature="0"
         id="path6856"
         d="m 1116.5,1656.939 0.98,-0.367 c -0.144,0.053 -0.271,0.155 -0.374,0.304 v 0 l -0.973,0.368 c 0.098,-0.15 0.226,-0.25 0.367,-0.305" />
    </clipPath>
    <clipPath
       id="clipPath6798"
       clipPathUnits="userSpaceOnUse">
      <path
         inkscape:connector-curvature="0"
         id="path6796"
         d="m 1085.74,1549.12 h 50.59 v -25.49 h -50.59 z" />
    </clipPath>
    <clipPath
       id="clipPath6450"
       clipPathUnits="userSpaceOnUse">
      <path
         inkscape:connector-curvature="0"
         id="path6448"
         d="m 1192.19,1544.97 h 58.91 v -21.34 h -58.91 z" />
    </clipPath>
    <clipPath
       id="clipPath7190"
       clipPathUnits="userSpaceOnUse">
      <path
         inkscape:connector-curvature="0"
         id="path7188"
         d="m 1415.1,1546.39 h 59.78 v -22.76 h -59.78 z" />
    </clipPath>
    <clipPath
       id="clipPath7322"
       clipPathUnits="userSpaceOnUse">
      <path
         inkscape:connector-curvature="0"
         id="path7320"
         d="m 1529.94,1551.96 h 66.67 v -28.33 h -66.67 z" />
    </clipPath>
    <clipPath
       id="clipPath7582"
       clipPathUnits="userSpaceOnUse">
      <path
         inkscape:connector-curvature="0"
         id="path7580"
         d="m 1678.67,1677.25 h 3.75 v -4.02 h -3.75 z" />
    </clipPath>
    <clipPath
       id="clipPath7566"
       clipPathUnits="userSpaceOnUse">
      <path
         inkscape:connector-curvature="0"
         id="path7564"
         d="m 1671.46,1674.81 h 5.24 v -3.89 h -5.24 z" />
    </clipPath>
    <clipPath
       id="clipPath7462"
       clipPathUnits="userSpaceOnUse">
      <path
         inkscape:connector-curvature="0"
         id="path7460"
         d="m 1648.93,1550.63 h 57.38 v -27 h -57.38 z" />
    </clipPath>
    <clipPath
       id="clipPath8174"
       clipPathUnits="userSpaceOnUse">
      <path
         inkscape:connector-curvature="0"
         id="path8172"
         d="m 1758.53,1552.63 h 42.25 v -29 h -42.25 z" />
    </clipPath>
    <clipPath
       id="clipPath8038"
       clipPathUnits="userSpaceOnUse">
      <path
         inkscape:connector-curvature="0"
         id="path8036"
         d="m 1882.656,1601.848 c 0,-0.062 0.041,-0.123 0.122,-0.172 v 0 l 10e-4,0.539 c -0.081,0.047 -0.122,0.108 -0.122,0.168 v 0 z" />
    </clipPath>
    <clipPath
       id="clipPath8006"
       clipPathUnits="userSpaceOnUse">
      <path
         inkscape:connector-curvature="0"
         id="path8004"
         d="M 0,2119.953 H 3253.108 V 0 H 0 Z" />
    </clipPath>
    <clipPath
       id="clipPath7994"
       clipPathUnits="userSpaceOnUse">
      <path
         inkscape:connector-curvature="0"
         id="path7992"
         d="m 1882.336,1603.443 c 0,-0.061 0.041,-0.12 0.121,-0.166 v 0 0.539 c -0.08,0.043 -0.12,0.104 -0.12,0.165 v 0 z" />
    </clipPath>
    <clipPath
       id="clipPath7946"
       clipPathUnits="userSpaceOnUse">
      <path
         inkscape:connector-curvature="0"
         id="path7944"
         d="M 0,2119.953 H 3253.108 V 0 H 0 Z" />
    </clipPath>
    <clipPath
       id="clipPath7934"
       clipPathUnits="userSpaceOnUse">
      <path
         inkscape:connector-curvature="0"
         id="path7932"
         d="m 1881.995,1605.067 c 0,-0.065 0.04,-0.124 0.119,-0.17 v 0 0.536 c -0.082,0.052 -0.122,0.11 -0.122,0.169 v 0 -0.535 z" />
    </clipPath>
    <clipPath
       id="clipPath7894"
       clipPathUnits="userSpaceOnUse">
      <path
         inkscape:connector-curvature="0"
         id="path7892"
         d="M 0,2119.953 H 3253.108 V 0 H 0 Z" />
    </clipPath>
    <clipPath
       id="clipPath7882"
       clipPathUnits="userSpaceOnUse">
      <path
         inkscape:connector-curvature="0"
         id="path7880"
         d="m 1883.262,1605.788 c 0,-0.061 0.041,-0.121 0.122,-0.168 v 0 0.538 c -0.081,0.046 -0.121,0.109 -0.121,0.169 v 0 z" />
    </clipPath>
    <clipPath
       id="clipPath7870"
       clipPathUnits="userSpaceOnUse">
      <path
         inkscape:connector-curvature="0"
         id="path7868"
         d="M 0,2119.953 H 3253.108 V 0 H 0 Z" />
    </clipPath>
    <clipPath
       id="clipPath7858"
       clipPathUnits="userSpaceOnUse">
      <path
         inkscape:connector-curvature="0"
         id="path7856"
         d="m 1882.565,1606.09 c 0.159,-0.087 0.418,-0.09 0.574,0 v 0 l 0.01,0.54 c -0.16,-0.092 -0.42,-0.089 -0.579,10e-4 v 0 -0.541 z" />
    </clipPath>
    <clipPath
       id="clipPath7842"
       clipPathUnits="userSpaceOnUse">
      <path
         inkscape:connector-curvature="0"
         id="path7840"
         d="M 0,2119.953 H 3253.108 V 0 H 0 Z" />
    </clipPath>
    <clipPath
       id="clipPath7830"
       clipPathUnits="userSpaceOnUse">
      <path
         inkscape:connector-curvature="0"
         id="path7828"
         d="m 1881.72,1606.68 c 0,-0.062 0.038,-0.122 0.12,-0.169 v 0 0.54 c -0.083,0.046 -0.122,0.106 -0.122,0.167 v 0 c 0,-0.18 -10e-4,-0.359 -10e-4,-0.538" />
    </clipPath>
    <clipPath
       id="clipPath7794"
       clipPathUnits="userSpaceOnUse">
      <path
         inkscape:connector-curvature="0"
         id="path7792"
         d="M 0,2119.953 H 3253.108 V 0 H 0 Z" />
    </clipPath>
    <clipPath
       id="clipPath7782"
       clipPathUnits="userSpaceOnUse">
      <path
         inkscape:connector-curvature="0"
         id="path7780"
         d="m 1879.92,1609.156 c 0,-0.06 0.042,-0.118 0.121,-0.166 v 0 0.538 c -0.081,0.045 -0.123,0.106 -0.123,0.165 v 0 -0.537 z" />
    </clipPath>
    <clipPath
       id="clipPath7622"
       clipPathUnits="userSpaceOnUse">
      <path
         inkscape:connector-curvature="0"
         id="path7620"
         d="m 1866.46,1541.36 h 41.73 v -17.73 h -41.73 z" />
    </clipPath>
    <clipPath
       id="clipPath1856"
       clipPathUnits="userSpaceOnUse">
      <path
         inkscape:connector-curvature="0"
         id="path1854"
         d="m 1978.82,1549.83 h 38.47 v -19.92 h -38.47 z" />
    </clipPath>
    <clipPath
       id="clipPath8394"
       clipPathUnits="userSpaceOnUse">
      <path
         inkscape:connector-curvature="0"
         id="path8392"
         d="m 2093.14,1546.97 h 47.55 v -23.34 h -47.55 z" />
    </clipPath>
    <clipPath
       id="clipPath8518"
       clipPathUnits="userSpaceOnUse">
      <path
         inkscape:connector-curvature="0"
         id="path8516"
         d="m 2183.37,1545.67 h 41.84 v -22.04 h -41.84 z" />
    </clipPath>
    <clipPath
       id="clipPath10650"
       clipPathUnits="userSpaceOnUse">
      <path
         inkscape:connector-curvature="0"
         id="path10648"
         d="m 2358.269,1682.219 1.196,-0.067 c 0.312,-0.02 0.65,0.162 0.933,0.544 v 0 l -1.194,0.068 c -0.286,-0.382 -0.621,-0.561 -0.935,-0.545" />
    </clipPath>
    <clipPath
       id="clipPath10638"
       clipPathUnits="userSpaceOnUse">
      <path
         inkscape:connector-curvature="0"
         id="path10636"
         d="m 2359.874,1693.927 1.199,-0.068 c 0.546,0.734 1.19,1.079 1.794,1.044 v 0 l -1.193,0.07 c -0.028,10e-4 -0.057,0 -0.085,0 v 0 c -0.579,0 -1.191,-0.349 -1.715,-1.048" />
    </clipPath>
    <clipPath
       id="clipPath10622"
       clipPathUnits="userSpaceOnUse">
      <path
         inkscape:connector-curvature="0"
         id="path10620"
         d="M 0,2119.953 H 3253.108 V 0 H 0 Z" />
    </clipPath>
    <clipPath
       id="clipPath10610"
       clipPathUnits="userSpaceOnUse">
      <path
         inkscape:connector-curvature="0"
         id="path10608"
         d="m 2361.354,1684.888 c 0.01,-10e-4 0.018,0 0.025,-10e-4 v 0 l 1.148,-0.067 c -0.655,0.059 -1.221,0.53 -1.604,1.361 v 0 l -1.197,0.069 c 0.389,-0.84 0.961,-1.312 1.628,-1.362 m 1.195,-0.07 c 0.01,-10e-4 0.019,-10e-4 0.025,-10e-4 v 0 h -0.047 c 0.01,-10e-4 0.014,0 0.022,0" />
    </clipPath>
    <clipPath
       id="clipPath10594"
       clipPathUnits="userSpaceOnUse">
      <path
         inkscape:connector-curvature="0"
         id="path10592"
         d="M 0,2119.953 H 3253.108 V 0 H 0 Z" />
    </clipPath>
    <clipPath
       id="clipPath10582"
       clipPathUnits="userSpaceOnUse">
      <path
         inkscape:connector-curvature="0"
         id="path10580"
         d="m 2362.654,1687.391 c -0.311,-0.417 -0.683,-0.634 -1.052,-0.613 v 0 l 1.196,-0.068 c 0.368,-0.022 0.741,0.196 1.052,0.613 v 0 c 0.652,0.877 0.83,2.365 0.398,3.321 v 0 l -1.194,0.068 c 0.43,-0.954 0.252,-2.444 -0.4,-3.321" />
    </clipPath>
    <clipPath
       id="clipPath10562"
       clipPathUnits="userSpaceOnUse">
      <path
         inkscape:connector-curvature="0"
         id="path10560"
         d="M 0,2119.953 H 3253.108 V 0 H 0 Z" />
    </clipPath>
    <clipPath
       id="clipPath10550"
       clipPathUnits="userSpaceOnUse">
      <path
         inkscape:connector-curvature="0"
         id="path10548"
         d="m 2345.228,1688.061 5.462,-0.312 c 0.094,1.046 0.253,2.098 0.476,3.121 v 0 l -5.463,0.317 c -0.222,-1.028 -0.38,-2.077 -0.475,-3.126" />
    </clipPath>
    <clipPath
       id="clipPath10534"
       clipPathUnits="userSpaceOnUse">
      <path
         inkscape:connector-curvature="0"
         id="path10532"
         d="M 0,2119.953 H 3253.108 V 0 H 0 Z" />
    </clipPath>
    <clipPath
       id="clipPath10522"
       clipPathUnits="userSpaceOnUse">
      <path
         inkscape:connector-curvature="0"
         id="path10520"
         d="m 2345.469,1681.934 5.462,-0.314 c -0.175,0.967 -0.28,1.965 -0.322,2.982 v 0 l -5.463,0.314 c 0.043,-1.017 0.151,-2.015 0.323,-2.982" />
    </clipPath>
    <clipPath
       id="clipPath10506"
       clipPathUnits="userSpaceOnUse">
      <path
         inkscape:connector-curvature="0"
         id="path10504"
         d="M 0,2119.953 H 3253.108 V 0 H 0 Z" />
    </clipPath>
    <clipPath
       id="clipPath10494"
       clipPathUnits="userSpaceOnUse">
      <path
         inkscape:connector-curvature="0"
         id="path10492"
         d="m 2346.555,1694.2 5.465,-0.316 c 0.338,0.949 0.733,1.868 1.186,2.732 v 0 l -5.465,0.314 c -0.452,-0.865 -0.844,-1.779 -1.186,-2.73" />
    </clipPath>
    <clipPath
       id="clipPath10474"
       clipPathUnits="userSpaceOnUse">
      <path
         inkscape:connector-curvature="0"
         id="path10472"
         d="M 0,2119.953 H 3253.108 V 0 H 0 Z" />
    </clipPath>
    <clipPath
       id="clipPath10462"
       clipPathUnits="userSpaceOnUse">
      <path
         inkscape:connector-curvature="0"
         id="path10460"
         d="m 2346.693,1677.938 c 0.173,-0.375 0.359,-0.728 0.553,-1.059 v 0 l 5.459,-0.313 c -0.192,0.328 -0.377,0.682 -0.55,1.058 v 0 c -0.189,0.408 -0.358,0.828 -0.51,1.262 v 0 l -5.464,0.313 c 0.154,-0.433 0.322,-0.855 0.512,-1.261" />
    </clipPath>
    <clipPath
       id="clipPath10450"
       clipPathUnits="userSpaceOnUse">
      <path
         inkscape:connector-curvature="0"
         id="path10448"
         d="M 0,2119.953 H 3253.108 V 0 H 0 Z" />
    </clipPath>
    <clipPath
       id="clipPath10438"
       clipPathUnits="userSpaceOnUse">
      <path
         inkscape:connector-curvature="0"
         id="path10436"
         d="m 2349.219,1699.291 5.464,-0.314 c 0.543,0.722 1.11,1.345 1.691,1.869 v 0 l -5.46,0.313 c -0.584,-0.523 -1.154,-1.144 -1.695,-1.868" />
    </clipPath>
    <clipPath
       id="clipPath10414"
       clipPathUnits="userSpaceOnUse">
      <path
         inkscape:connector-curvature="0"
         id="path10412"
         d="M 0,2119.953 H 3253.108 V 0 H 0 Z" />
    </clipPath>
    <clipPath
       id="clipPath10402"
       clipPathUnits="userSpaceOnUse">
      <path
         inkscape:connector-curvature="0"
         id="path10400"
         d="m 2350.259,1673.785 5.461,-0.313 c -0.569,0.31 -1.114,0.726 -1.625,1.247 v 0 l -5.461,0.315 c 0.508,-0.522 1.054,-0.938 1.625,-1.249" />
    </clipPath>
    <clipPath
       id="clipPath10390"
       clipPathUnits="userSpaceOnUse">
      <path
         inkscape:connector-curvature="0"
         id="path10388"
         d="M 0,2119.953 H 3253.108 V 0 H 0 Z" />
    </clipPath>
    <clipPath
       id="clipPath10378"
       clipPathUnits="userSpaceOnUse">
      <path
         inkscape:connector-curvature="0"
         id="path10376"
         d="m 2352.757,1702.473 5.461,-0.314 c 0.632,0.335 1.272,0.565 1.909,0.689 v 0 l -5.464,0.315 c -0.633,-0.125 -1.277,-0.355 -1.906,-0.69" />
    </clipPath>
    <clipPath
       id="clipPath10362"
       clipPathUnits="userSpaceOnUse">
      <path
         inkscape:connector-curvature="0"
         id="path10360"
         d="M 0,2119.953 H 3253.108 V 0 H 0 Z" />
    </clipPath>
    <clipPath
       id="clipPath10350"
       clipPathUnits="userSpaceOnUse">
      <path
         inkscape:connector-curvature="0"
         id="path10348"
         d="m 2352.587,1673.103 c 1.822,-0.104 3.643,-0.209 5.462,-0.314 v 0 c -0.171,0.01 -0.336,0.027 -0.505,0.052 v 0 l -5.462,0.315 c 0.168,-0.025 0.336,-0.042 0.505,-0.053" />
    </clipPath>
    <clipPath
       id="clipPath10918"
       clipPathUnits="userSpaceOnUse">
      <path
         inkscape:connector-curvature="0"
         id="path10916"
         d="m 2448.707,1664.164 1.237,-0.221 c -0.508,0.533 -0.559,1.613 -0.114,2.403 v 0 l -1.235,0.223 c -0.447,-0.791 -0.395,-1.872 0.112,-2.405" />
    </clipPath>
    <clipPath
       id="clipPath10902"
       clipPathUnits="userSpaceOnUse">
      <path
         inkscape:connector-curvature="0"
         id="path10900"
         d="M 0,2119.953 H 3253.108 V 0 H 0 Z" />
    </clipPath>
    <clipPath
       id="clipPath10890"
       clipPathUnits="userSpaceOnUse">
      <path
         inkscape:connector-curvature="0"
         id="path10888"
         d="m 2454.686,1677.384 1.238,-0.219 c 0.313,0.564 0.792,0.831 1.224,0.75 v 0 l -1.234,0.223 c -0.05,0.01 -0.101,0.014 -0.152,0.014 v 0 c -0.389,0 -0.796,-0.268 -1.076,-0.768" />
    </clipPath>
    <clipPath
       id="clipPath10878"
       clipPathUnits="userSpaceOnUse">
      <path
         inkscape:connector-curvature="0"
         id="path10876"
         d="m 2452.824,1660.092 1.235,-0.219 c -0.179,0.031 -0.351,0.125 -0.502,0.281 v 0 l -1.238,0.225 c 0.15,-0.16 0.324,-0.252 0.505,-0.287" />
    </clipPath>
    <clipPath
       id="clipPath10762"
       clipPathUnits="userSpaceOnUse">
      <path
         inkscape:connector-curvature="0"
         id="path10760"
         d="m 2419.74,1547.43 h 59.52 v -23.8 h -59.52 z" />
    </clipPath>
    <clipPath
       id="clipPath12810"
       clipPathUnits="userSpaceOnUse">
      <path
         inkscape:connector-curvature="0"
         id="path12808"
         d="m 2531.16,1567.57 h 72.57 v -43.94 h -72.57 z" />
    </clipPath>
    <clipPath
       id="clipPath11038"
       clipPathUnits="userSpaceOnUse">
      <path
         inkscape:connector-curvature="0"
         id="path11036"
         d="m 2634.7,1565.62 h 89.61 v -32.86 h -89.61 z" />
    </clipPath>
    <clipPath
       id="clipPath12306"
       clipPathUnits="userSpaceOnUse">
      <path
         inkscape:connector-curvature="0"
         id="path12304"
         d="m 2830.43,1594.309 0.541,-0.143 c -0.05,0.013 -0.089,0.049 -0.11,0.117 v 0 l -0.535,0.155 c 0.017,-0.07 0.062,-0.111 0.104,-0.129" />
    </clipPath>
    <clipPath
       id="clipPath12238"
       clipPathUnits="userSpaceOnUse">
      <path
         inkscape:connector-curvature="0"
         id="path12236"
         d="M 0,2119.953 H 3253.108 V 0 H 0 Z" />
    </clipPath>
    <clipPath
       id="clipPath12226"
       clipPathUnits="userSpaceOnUse">
      <path
         inkscape:connector-curvature="0"
         id="path12224"
         d="m 2824.504,1600.167 0.307,-0.465 c 0.464,0.907 1.661,0.682 1.269,1.263 v 0 l -0.309,0.464 c 0.387,-0.582 -0.804,-0.358 -1.267,-1.262" />
    </clipPath>
    <clipPath
       id="clipPath12214"
       clipPathUnits="userSpaceOnUse">
      <path
         inkscape:connector-curvature="0"
         id="path12212"
         d="M 0,2119.953 H 3253.108 V 0 H 0 Z" />
    </clipPath>
    <clipPath
       id="clipPath12202"
       clipPathUnits="userSpaceOnUse">
      <path
         inkscape:connector-curvature="0"
         id="path12200"
         d="m 2823.201,1597.161 0.315,-0.463 c -0.027,0.037 -0.027,0.099 0,0.161 v 0 l -0.315,0.463 c -0.033,-0.061 -0.024,-0.121 0,-0.161" />
    </clipPath>
    <clipPath
       id="clipPath12110"
       clipPathUnits="userSpaceOnUse">
      <path
         inkscape:connector-curvature="0"
         id="path12108"
         d="M 0,2119.953 H 3253.108 V 0 H 0 Z" />
    </clipPath>
    <clipPath
       id="clipPath12098"
       clipPathUnits="userSpaceOnUse">
      <path
         inkscape:connector-curvature="0"
         id="path12096"
         d="m 2788.318,1602.512 0.536,-0.124 c -0.044,0.013 -0.082,0.049 -0.098,0.124 v 0 l -0.539,0.123 c 0.017,-0.066 0.059,-0.108 0.101,-0.123" />
    </clipPath>
    <clipPath
       id="clipPath12030"
       clipPathUnits="userSpaceOnUse">
      <path
         inkscape:connector-curvature="0"
         id="path12028"
         d="M 0,2119.953 H 3253.108 V 0 H 0 Z" />
    </clipPath>
    <clipPath
       id="clipPath12018"
       clipPathUnits="userSpaceOnUse">
      <path
         inkscape:connector-curvature="0"
         id="path12016"
         d="m 2782.487,1608.393 0.388,-0.391 c 0.272,0.956 0.114,1.733 -0.372,2.225 v 0 l -0.387,0.388 c 0.485,-0.483 0.651,-1.262 0.371,-2.222" />
    </clipPath>
    <clipPath
       id="clipPath12006"
       clipPathUnits="userSpaceOnUse">
      <path
         inkscape:connector-curvature="0"
         id="path12004"
         d="M 0,2119.953 H 3253.108 V 0 H 0 Z" />
    </clipPath>
    <clipPath
       id="clipPath11994"
       clipPathUnits="userSpaceOnUse">
      <path
         inkscape:connector-curvature="0"
         id="path11992"
         d="m 2781.082,1603.332 0.377,-0.371 c -0.029,0.034 -0.034,0.085 -0.019,0.143 v 0 l -0.385,0.393 c -0.017,-0.076 0,-0.133 0.027,-0.165 m 0.389,-0.383 -0.012,0.012 c 0,0 0.01,-0.01 0.012,-0.012" />
    </clipPath>
    <clipPath
       id="clipPath11970"
       clipPathUnits="userSpaceOnUse">
      <path
         inkscape:connector-curvature="0"
         id="path11968"
         d="M 0,2119.953 H 3253.108 V 0 H 0 Z" />
    </clipPath>
    <clipPath
       id="clipPath11958"
       clipPathUnits="userSpaceOnUse">
      <path
         inkscape:connector-curvature="0"
         id="path11956"
         d="m 2786.762,1598.821 0.568,-0.273 c -0.047,0.021 -0.082,0.077 -0.086,0.156 v 0 l -0.566,0.274 c 0.01,-0.085 0.032,-0.138 0.084,-0.157" />
    </clipPath>
    <clipPath
       id="clipPath11890"
       clipPathUnits="userSpaceOnUse">
      <path
         inkscape:connector-curvature="0"
         id="path11888"
         d="M 0,2119.953 H 3253.108 V 0 H 0 Z" />
    </clipPath>
    <clipPath
       id="clipPath11878"
       clipPathUnits="userSpaceOnUse">
      <path
         inkscape:connector-curvature="0"
         id="path11876"
         d="m 2780.113,1601.778 0.247,-0.539 c -0.022,0.054 -0.011,0.109 0.024,0.177 v 0 l -0.244,0.535 c -0.043,-0.066 -0.048,-0.124 -0.027,-0.173" />
    </clipPath>
    <clipPath
       id="clipPath11858"
       clipPathUnits="userSpaceOnUse">
      <path
         inkscape:connector-curvature="0"
         id="path11856"
         d="m 2771.04,1562.96 h 53.11 v -27.76 h -53.11 z" />
    </clipPath>
  </defs>
  <sodipodi:namedview
     id="base"
     pagecolor="#ffffff"
     bordercolor="#666666"
     borderopacity="1.0"
     inkscape:pageopacity="0.0"
     inkscape:pageshadow="2"
     inkscape:zoom="0.35"
     inkscape:cx="-625.46926"
     inkscape:cy="-183.98073"
     inkscape:document-units="mm"
     inkscape:current-layer="layer1"
     showgrid="false"
     fit-margin-top="0"
     fit-margin-left="0"
     fit-margin-right="0"
     fit-margin-bottom="0"
     inkscape:window-width="1366"
     inkscape:window-height="716"
     inkscape:window-x="-8"
     inkscape:window-y="-8"
     inkscape:window-maximized="1" />
  <metadata
     id="metadata45328">
    <rdf:RDF>
      <cc:Work
         rdf:about="">
        <dc:format>image/svg+xml</dc:format>
        <dc:type
           rdf:resource="http://purl.org/dc/dcmitype/StillImage" />
        <dc:title></dc:title>
      </cc:Work>
    </rdf:RDF>
  </metadata>
  <g
     inkscape:label="Layer 1"
     inkscape:groupmode="layer"
     id="layer1"
     transform="translate(-88.003616,-317.12872)">
    <g
       id="g11852"
       transform="matrix(0.35277777,0,0,-0.35277777,-885.53363,913.8824)">
      <g
         id="g11854" />
      <g
         id="g11866">
        <g
           clip-path="url(#clipPath11858)"
           id="g11864"
           style="opacity:0.25">
          <g
             transform="translate(2790.5635,1555.9365)"
             id="g11862">
            <path
               d="m 0,0 c -11.464,-4.363 -24.78,-13.182 -17.397,-18.982 7.379,-5.8 24.452,4.482 27.007,6.015 3.259,1.956 8.223,3.36 14.334,6.029 C 35.511,-1.889 45.121,17.169 0,0"
               style="fill:#231f20;fill-opacity:1;fill-rule:nonzero;stroke:none"
               id="path11860"
               inkscape:connector-curvature="0" />
          </g>
        </g>
      </g>
    </g>
    <g
       id="g11868"
       transform="matrix(0.35277777,0,0,-0.35277777,96.475303,344.17453)">
      <path
         d="m 0,0 -2.891,0.024 -1.311,-1.635 c 0,0 -1.264,-2.921 -0.33,-4.429 0.43,-0.689 1.186,-0.89 2.256,-0.932 1.504,-0.057 3.183,0.932 3.183,0.932 l 0.75,4.14 C 1.741,-1.015 1.329,-0.009 0,0"
         style="fill:#e5cbbd;fill-opacity:1;fill-rule:nonzero;stroke:none"
         id="path11870"
         inkscape:connector-curvature="0" />
    </g>
    <g
       id="g11872"
       transform="matrix(0.35277777,0,0,-0.35277777,-885.53363,913.8824)">
      <g
         id="g11874"
         clip-path="url(#clipPath11878)">
        <g
           id="g11880"
           transform="translate(2780.3604,1601.2383)">
          <path
             d="m 0,0 -0.248,0.539 c -0.021,0.05 -0.015,0.107 0.027,0.174 L 0.024,0.177 C -0.011,0.11 -0.021,0.054 0,0"
             style="fill:#ffe05f;fill-opacity:1;fill-rule:nonzero;stroke:none"
             id="path11882"
             inkscape:connector-curvature="0" />
        </g>
      </g>
    </g>
    <g
       id="g11884"
       transform="matrix(0.35277777,0,0,-0.35277777,-885.53363,913.8824)">
      <g
         id="g11886"
         clip-path="url(#clipPath11890)">
        <g
           id="g11892"
           transform="translate(2780.3848,1601.4155)">
          <path
             d="m 0,0 -0.245,0.536 3.13,4.72 0.242,-0.538 z"
             style="fill:#ffe05f;fill-opacity:1;fill-rule:nonzero;stroke:none"
             id="path11894"
             inkscape:connector-curvature="0" />
        </g>
        <g
           id="g11896"
           transform="translate(2783.416,1608.7646)">
          <path
             d="M 0,0 C 0.266,0.869 -0.684,1.758 -1.932,1.993 -4.355,2.459 -7.331,0.833 -8.739,-1.29 l -3.118,-4.717 c -0.043,-0.061 -0.046,-0.122 -0.03,-0.168 l 0.25,-0.548 c -0.027,0.054 -0.017,0.111 0.03,0.177 l 3.123,4.72 c 1.4,2.118 4.202,3.646 6.724,3.404 1.268,-0.116 1.234,-1.508 1.597,-2.286 z"
             style="fill:#ffe05f;fill-opacity:1;fill-rule:nonzero;stroke:none"
             id="path11898"
             inkscape:connector-curvature="0" />
        </g>
        <g
           id="g11900"
           transform="translate(2781.3984,1610.375)">
          <path
             d="m 0,0 c 2.52,-0.235 2.259,-2.266 0.858,-4.387 l -2.114,-3.282 c -0.087,-0.137 -0.276,-0.227 -0.441,-0.211 -0.164,0.012 -0.22,0.141 -0.132,0.267 l 2.135,3.304 c 1.229,1.854 1.751,3.617 -0.454,3.823 -2.207,0.211 -4.52,-1.155 -5.743,-3.011 L -9.02,-8.213 c -0.083,-0.124 -0.279,-0.224 -0.441,-0.207 -0.154,0.012 -0.22,0.132 -0.129,0.264 l 3.123,4.72 C -5.066,-1.319 -2.533,0.24 0,0"
             style="fill:#c5ad49;fill-opacity:1;fill-rule:nonzero;stroke:none"
             id="path11902"
             inkscape:connector-curvature="0" />
        </g>
        <g
           id="g11904"
           transform="translate(2780.666,1604.1782)">
          <path
             d="M 0,0 C 0.429,-0.415 0.708,-0.539 0.438,-1.119 0.358,-1.289 0.23,-1.454 0.252,-1.424 L 0.239,-1.437 C 0.14,-1.568 -0.01,-1.704 -0.142,-1.79 -0.208,-1.844 -0.379,-1.934 -0.511,-1.975 -0.965,-2.107 -1.097,-1.839 -1.451,-1.493 -0.883,-2.045 0.566,-0.558 0,0"
             style="fill:#068951;fill-opacity:1;fill-rule:nonzero;stroke:none"
             id="path11906"
             inkscape:connector-curvature="0" />
        </g>
        <g
           id="g11908"
           transform="translate(2770.5469,1599.981)">
          <path
             d="m 0,0 c 0.069,0.023 0.127,0.042 0.18,0.07 0.022,0.01 0.045,0.022 0.06,0.039 0.041,0.02 0.074,0.044 0.124,0.074 0.017,0.003 0.033,0.02 0.052,0.032 0.049,0.037 0.092,0.074 0.136,0.117 0.027,0.015 0.04,0.028 0.061,0.044 0.053,0.054 0.098,0.104 0.143,0.162 0.003,0.007 0.003,0.015 0.013,0.02 0.005,0.008 0.015,0.008 0.015,0.015 0.029,0.046 0.062,0.084 0.091,0.141 0,0.013 0.016,0.024 0.025,0.037 C 0.922,0.788 0.942,0.82 0.957,0.866 0.966,0.883 0.969,0.895 0.973,0.907 0.999,0.961 1.018,1.014 1.028,1.06 1.084,1.286 1.05,1.471 0.933,1.583 1.072,1.448 1.215,1.312 1.351,1.181 1.465,1.068 1.504,0.883 1.447,0.657 1.435,0.604 1.414,0.545 1.393,0.504 1.387,0.482 1.382,0.471 1.378,0.45 1.351,0.421 1.337,0.376 1.314,0.352 1.307,0.327 1.293,0.306 1.287,0.297 1.262,0.257 1.236,0.215 1.205,0.174 1.197,0.158 1.188,0.153 1.188,0.153 V 0.15 C 1.186,0.146 1.186,0.146 1.181,0.137 1.131,0.08 1.08,0.023 1.03,-0.032 1.008,-0.039 0.995,-0.06 0.979,-0.075 0.933,-0.114 0.883,-0.156 0.839,-0.188 0.816,-0.202 0.809,-0.212 0.803,-0.226 c -0.008,0 -0.019,0 -0.019,-0.007 C 0.744,-0.258 0.703,-0.276 0.66,-0.309 0.645,-0.311 0.623,-0.32 0.604,-0.328 0.541,-0.365 0.479,-0.39 0.416,-0.403 0.192,-0.477 0.011,-0.436 -0.1,-0.32 l -0.422,0.4 C -0.412,-0.032 -0.229,-0.06 0,0"
             style="fill:#e84c3d;fill-opacity:1;fill-rule:nonzero;stroke:none"
             id="path11910"
             inkscape:connector-curvature="0" />
        </g>
        <g
           id="g11912"
           transform="translate(2770.9629,1599.5776)">
          <path
             d="M 0,0 C 0.455,0.127 0.921,0.606 1.031,1.06 1.146,1.521 0.869,1.785 0.412,1.657 -0.039,1.521 -0.5,1.043 -0.612,0.589 -0.724,0.132 -0.448,-0.136 0,0 m 9.192,2.626 c 0.443,0.122 0.91,0.6 1.027,1.057 C 10.323,4.135 10.048,4.404 9.597,4.272 9.141,4.144 8.681,3.671 8.57,3.211 8.459,2.757 8.73,2.493 9.192,2.626 m 0.979,-18.294 -21.085,-6.011 5.812,23.48 21.09,6.022 z"
             style="fill:#7f1a06;fill-opacity:1;fill-rule:nonzero;stroke:none"
             id="path11914"
             inkscape:connector-curvature="0" />
        </g>
        <g
           id="g11916"
           transform="translate(2786.5322,1607.8125)">
          <path
             d="m 0,0 0.419,-0.412 -21.09,-6.022 -5.814,-23.496 -0.414,0.412 5.817,23.491 z"
             style="fill:#b72908;fill-opacity:1;fill-rule:nonzero;stroke:none"
             id="path11918"
             inkscape:connector-curvature="0" />
        </g>
        <g
           id="g11920"
           transform="translate(2784.5957,1605.0034)">
          <path
             d="M 0,0 -3.093,-12.366 8.379,-2.241 Z"
             style="fill:#026639;fill-opacity:1;fill-rule:nonzero;stroke:none"
             id="path11922"
             inkscape:connector-curvature="0" />
        </g>
        <g
           id="g11924"
           transform="translate(2787.6289,1599.3193)">
          <path
             d="M 0,0 C 0.431,-0.421 0.673,-0.526 0.461,-1.079 0.387,-1.265 0.22,-1.482 0.254,-1.425 L 0.236,-1.451 C -0.06,-1.816 -0.71,-2.233 -1.04,-1.908 L -1.459,-1.5 C -0.885,-2.053 0.566,-0.556 0,0"
             style="fill:#024425;fill-opacity:1;fill-rule:nonzero;stroke:none"
             id="path11926"
             inkscape:connector-curvature="0" />
        </g>
        <g
           id="g11928"
           transform="translate(2777.5117,1595.1182)">
          <path
             d="M 0,0 C 0.064,0.02 0.123,0.041 0.18,0.069 0.199,0.082 0.219,0.094 0.236,0.098 0.279,0.126 0.32,0.147 0.36,0.176 0.377,0.189 0.394,0.205 0.418,0.212 0.459,0.255 0.51,0.286 0.557,0.333 c 0.009,0.012 0.035,0.033 0.052,0.045 0.048,0.049 0.102,0.108 0.145,0.164 0,0 0.011,0.01 0.014,0.014 0.005,0.007 0.013,0.007 0.013,0.02 0.024,0.041 0.066,0.079 0.09,0.123 C 0.881,0.72 0.884,0.733 0.896,0.754 0.912,0.791 0.938,0.82 0.955,0.858 0.959,0.876 0.966,0.89 0.97,0.914 0.994,0.964 1.018,1.016 1.027,1.063 1.087,1.283 1.039,1.472 0.938,1.577 1.069,1.441 1.209,1.301 1.35,1.169 1.46,1.058 1.506,0.88 1.447,0.655 1.429,0.604 1.419,0.556 1.391,0.498 1.382,0.486 1.382,0.478 1.374,0.453 1.35,0.412 1.333,0.378 1.314,0.345 1.303,0.32 1.297,0.312 1.293,0.292 1.258,0.255 1.235,0.205 1.207,0.172 1.193,0.164 1.193,0.155 1.186,0.144 1.186,0.139 1.177,0.144 1.177,0.139 1.125,0.082 1.079,0.024 1.021,-0.029 1.014,-0.046 0.994,-0.065 0.97,-0.08 0.925,-0.116 0.881,-0.157 0.829,-0.19 0.823,-0.207 0.814,-0.215 0.795,-0.219 0.787,-0.227 0.787,-0.227 0.781,-0.231 0.735,-0.256 0.697,-0.29 0.657,-0.301 0.636,-0.313 0.617,-0.33 0.6,-0.33 0.543,-0.36 0.481,-0.389 0.418,-0.414 0.192,-0.467 0.007,-0.437 -0.105,-0.33 L -0.521,0.082 C -0.409,-0.024 -0.224,-0.062 0,0"
             style="fill:#024425;fill-opacity:1;fill-rule:nonzero;stroke:none"
             id="path11930"
             inkscape:connector-curvature="0" />
        </g>
        <g
           id="g11932"
           transform="translate(2777.9297,1594.7046)">
          <path
             d="M 0,0 C 0.453,0.132 0.915,0.614 1.029,1.069 1.138,1.52 0.864,1.788 0.411,1.665 -0.041,1.539 -0.502,1.056 -0.613,0.594 -0.729,0.145 -0.452,-0.123 0,0 M 9.188,2.632 C 9.64,2.757 10.094,3.23 10.208,3.684 10.324,4.146 10.042,4.417 9.59,4.281 9.142,4.154 8.684,3.68 8.564,3.213 8.453,2.768 8.725,2.501 9.188,2.632 m 0.982,-18.294 -20.318,-5.393 3.384,27.103 22.748,1.784 z"
             style="fill:#f95326;fill-opacity:1;fill-rule:nonzero;stroke:none"
             id="path11934"
             inkscape:connector-curvature="0" />
        </g>
        <g
           id="g11936"
           transform="translate(2765.4502,1601.7852)">
          <path
             d="m 0,0 7.522,-0.482 -0.15,-4.786 -0.428,0.347 0.143,4.048 -6.676,0.467 z"
             style="fill:#b72908;fill-opacity:1;fill-rule:nonzero;stroke:none"
             id="path11938"
             inkscape:connector-curvature="0" />
        </g>
        <g
           id="g11940"
           transform="translate(2770.5342,1601.2383)">
          <path
             d="M 0,0 -4.417,-23.612 -2.753,-27.588 0.459,-1.7 Z"
             style="fill:#b72908;fill-opacity:1;fill-rule:nonzero;stroke:none"
             id="path11942"
             inkscape:connector-curvature="0" />
        </g>
        <g
           id="g11944"
           transform="translate(2770.4746,1601.0288)">
          <path
             d="m 0,0 -4.613,0.35 -5.815,-23.496 6.071,-0.256 z"
             style="fill:#f95326;fill-opacity:1;fill-rule:nonzero;stroke:none"
             id="path11946"
             inkscape:connector-curvature="0" />
        </g>
        <g
           id="g11948"
           transform="translate(2793.4941,1602.9434)">
          <path
             d="M 0,0 -8.255,2.262 -6.553,4.481 -6.883,4.759 -8.895,2.06 0.07,-0.361 Z"
             style="fill:#026639;fill-opacity:1;fill-rule:nonzero;stroke:none"
             id="path11950"
             inkscape:connector-curvature="0" />
        </g>
      </g>
    </g>
    <g
       id="g11952"
       transform="matrix(0.35277777,0,0,-0.35277777,-885.53363,913.8824)">
      <g
         id="g11954"
         clip-path="url(#clipPath11958)">
        <g
           id="g11960"
           transform="translate(2786.6777,1598.978)">
          <path
             d="M 0,0 0.566,-0.273 C 0.57,-0.353 0.605,-0.409 0.652,-0.429 0.652,-0.429 0.005,-0.084 0,0"
             style="fill:#ffe05f;fill-opacity:1;fill-rule:nonzero;stroke:none"
             id="path11962"
             inkscape:connector-curvature="0" />
        </g>
      </g>
    </g>
    <g
       id="g11964"
       transform="matrix(0.35277777,0,0,-0.35277777,-885.53363,913.8824)">
      <g
         id="g11966"
         clip-path="url(#clipPath11970)">
        <g
           id="g11972"
           transform="translate(2787.459,1598.0781)">
          <path
             d="m 0,0 c 0,0 -0.211,-0.074 -0.49,0.112 -0.23,0.152 -0.319,0.469 -0.319,0.469 l -1.668,8.671 c 0,0 -0.312,0.961 -0.406,1.1 -0.855,1.305 -2.311,1.149 -2.311,1.149 0,0 1.433,0.594 2.579,-0.337 C -0.814,9.715 0,0 0,0"
             style="fill:#ffe05f;fill-opacity:1;fill-rule:nonzero;stroke:none"
             id="path11974"
             inkscape:connector-curvature="0" />
        </g>
        <g
           id="g11976"
           transform="translate(2783.9121,1610.1191)">
          <path
             d="m 0,0 c -0.815,0.404 -1.716,0.552 -2.958,-0.136 -2.411,-1.322 -3.263,-3.983 -3.28,-7.479 l -0.171,-6.617 c -0.043,-0.28 0.114,-0.576 0.263,-0.671 l 0.385,-0.163 c -0.04,0.019 -0.081,0.077 -0.081,0.159 l 0.139,7.505 c 0.221,4.062 0.966,5.549 3.311,6.991 0.917,0.575 2.29,0.411 3.108,0.024 z"
             style="fill:#ffe05f;fill-opacity:1;fill-rule:nonzero;stroke:none"
             id="path11978"
             inkscape:connector-curvature="0" />
        </g>
        <g
           id="g11980"
           transform="translate(2781.5205,1609.708)">
          <path
             d="m 0,0 c 2.017,1.042 4.393,-0.09 4.509,-2.1 l 1.732,-9.039 C 6.25,-11.295 6.14,-11.504 5.992,-11.596 5.841,-11.691 5.74,-11.547 5.63,-11.143 L 3.972,-2.435 C 3.313,1.004 0.044,-0.577 0.034,-0.589 -2.017,-1.845 -2.627,-4.095 -2.741,-7.312 l -0.181,-6.856 c 0.013,-0.159 -0.099,-0.374 -0.248,-0.464 -0.147,-0.081 -0.272,-0.023 -0.28,0.136 l 0.138,7.267 C -3.145,-3.106 -2.346,-1.442 0,0"
             style="fill:#c5ad49;fill-opacity:1;fill-rule:nonzero;stroke:none"
             id="path11982"
             inkscape:connector-curvature="0" />
        </g>
        <g
           id="g11984"
           transform="translate(2780.5303,1613.7661)">
          <path
             d="m 0,0 3.89,-1.05 c 0,0 7.004,11.541 9.03,19.26 0.923,3.498 3.082,15.628 3.082,15.628 1.444,3.576 4.869,8.602 0.817,9.34 -6.227,1.128 -7.707,-4.659 -7.707,-4.659 0,0 -1.941,-13.585 -3.135,-17.825 C 4.609,15.847 0,0 0,0"
             style="fill:#e8caba;fill-opacity:1;fill-rule:nonzero;stroke:none"
             id="path11986"
             inkscape:connector-curvature="0" />
        </g>
      </g>
    </g>
    <g
       id="g11988"
       transform="matrix(0.35277777,0,0,-0.35277777,-885.53363,913.8824)">
      <g
         id="g11990"
         clip-path="url(#clipPath11994)">
        <g
           id="g11996"
           transform="translate(2781.4717,1602.9487)">
          <path
             d="M 0,0 -0.39,0.383 C -0.421,0.416 -0.434,0.472 -0.417,0.548 L -0.031,0.155 C -0.049,0.09 -0.04,0.033 0,0"
             style="fill:#ffe05f;fill-opacity:1;fill-rule:nonzero;stroke:none"
             id="path11998"
             inkscape:connector-curvature="0" />
        </g>
      </g>
    </g>
    <g
       id="g12000"
       transform="matrix(0.35277777,0,0,-0.35277777,-885.53363,913.8824)">
      <g
         id="g12002"
         clip-path="url(#clipPath12006)">
        <g
           id="g12008"
           transform="translate(2781.4404,1603.104)">
          <path
             d="M 0,0 -0.386,0.393 1.047,5.289 1.435,4.898 Z"
             style="fill:#ffe05f;fill-opacity:1;fill-rule:nonzero;stroke:none"
             id="path12010"
             inkscape:connector-curvature="0" />
        </g>
      </g>
    </g>
    <g
       id="g12012"
       transform="matrix(0.35277777,0,0,-0.35277777,-885.53363,913.8824)">
      <g
         id="g12014"
         clip-path="url(#clipPath12018)">
        <g
           id="g12020"
           transform="translate(2782.875,1608.0024)">
          <path
             d="m 0,0 -0.388,0.391 c 0.28,0.96 0.115,1.739 -0.371,2.222 L -0.372,2.225 C 0.114,1.732 0.272,0.956 0,0"
             style="fill:#ffe05f;fill-opacity:1;fill-rule:nonzero;stroke:none"
             id="path12022"
             inkscape:connector-curvature="0" />
        </g>
      </g>
    </g>
    <g
       id="g12024"
       transform="matrix(0.35277777,0,0,-0.35277777,-885.53363,913.8824)">
      <g
         id="g12026"
         clip-path="url(#clipPath12030)">
        <g
           id="g12032"
           transform="translate(2782.2646,1610.5928)">
          <path
             d="M 0,0 C -0.566,0.573 -0.05,0.713 -1.261,0.564 -3.591,0.285 -5.45,-1.281 -6.459,-3.353 l -2.764,-5.482 c -0.02,-0.058 -0.003,-0.111 0.018,-0.154 l 0.394,-0.39 c -0.034,0.046 -0.047,0.099 -0.03,0.165 l 2.958,5.717 c 0.893,1.785 2.547,3.255 4.904,3.76 1.187,0.252 0.871,-0.283 1.423,-0.846 z"
             style="fill:#ffe05f;fill-opacity:1;fill-rule:nonzero;stroke:none"
             id="path12034"
             inkscape:connector-curvature="0" />
        </g>
        <g
           id="g12036"
           transform="translate(2781.0469,1610.812)">
          <path
             d="M 0,0 C 2.354,0.507 2.593,-1.03 1.952,-3.234 L 0.938,-7.596 C 0.895,-7.728 0.747,-7.869 0.598,-7.901 0.441,-7.938 0.359,-7.844 0.394,-7.708 L 1.43,-3.32 c 0.56,1.932 0.644,3.307 -1.422,2.862 -2.066,-0.439 -3.634,-2.163 -4.327,-3.484 l -2.769,-5.375 c -0.031,-0.132 -0.187,-0.282 -0.336,-0.31 -0.151,-0.028 -0.238,0.053 -0.199,0.194 l 2.844,5.602 C -3.626,-1.702 -2.367,-0.511 0,0"
             style="fill:#c5ad49;fill-opacity:1;fill-rule:nonzero;stroke:none"
             id="path12038"
             inkscape:connector-curvature="0" />
        </g>
        <g
           id="g12040"
           transform="translate(2781.6299,1606.1938)">
          <path
             d="M 0,0 C 0.479,-0.251 0.75,-0.288 0.666,-0.862 0.643,-1.026 0.575,-1.202 0.589,-1.169 L 0.585,-1.185 C 0.526,-1.318 0.431,-1.471 0.345,-1.581 0.305,-1.647 0.173,-1.771 0.068,-1.848 -0.285,-2.066 -0.46,-1.874 -0.869,-1.669 -0.231,-2.002 0.635,-0.341 0,0"
             style="fill:#726fdd;fill-opacity:1;fill-rule:nonzero;stroke:none"
             id="path12042"
             inkscape:connector-curvature="0" />
        </g>
        <g
           id="g12044"
           transform="translate(2774.0059,1599.9785)">
          <path
             d="M 0,0 C 0.045,0.025 0.094,0.066 0.137,0.102 0.15,0.119 0.169,0.132 0.178,0.139 0.205,0.177 0.232,0.201 0.269,0.237 0.273,0.25 0.291,0.271 0.301,0.288 0.33,0.329 0.367,0.379 0.395,0.42 c 0.009,0.019 0.019,0.041 0.032,0.054 0.03,0.056 0.059,0.115 0.087,0.18 0,0.005 0.004,0.013 0.004,0.025 l 0.009,0.003 c 0.019,0.051 0.029,0.096 0.04,0.145 0,0.013 0.004,0.024 0.011,0.046 C 0.59,0.907 0.6,0.946 0.6,0.98 0.602,0.997 0.602,1.009 0.604,1.029 0.608,1.079 0.608,1.128 0.608,1.174 0.602,1.384 0.523,1.524 0.4,1.59 0.556,1.507 0.709,1.43 0.86,1.354 0.982,1.285 1.067,1.137 1.074,0.931 V 0.785 C 1.067,0.767 1.062,0.753 1.067,0.733 1.058,0.701 1.056,0.663 1.044,0.631 1.044,0.614 1.036,0.597 1.033,0.575 1.021,0.54 1.006,0.495 0.992,0.449 0.982,0.444 0.982,0.433 0.982,0.424 0.982,0.424 0.98,0.42 0.977,0.411 0.949,0.354 0.923,0.292 0.883,0.23 0.875,0.209 0.869,0.199 0.86,0.181 0.827,0.128 0.795,0.083 0.766,0.041 0.752,0.029 0.752,0.017 0.744,0.012 0.737,0.002 0.731,0.002 0.729,-0.004 0.703,-0.035 0.671,-0.069 0.644,-0.095 0.631,-0.111 0.621,-0.124 0.602,-0.14 0.556,-0.183 0.514,-0.214 0.461,-0.249 0.283,-0.362 0.118,-0.375 -0.004,-0.313 l -0.464,0.244 C -0.349,-0.136 -0.184,-0.119 0,0"
             style="fill:#e84c3d;fill-opacity:1;fill-rule:nonzero;stroke:none"
             id="path12046"
             inkscape:connector-curvature="0" />
        </g>
        <g
           id="g12048"
           transform="translate(2774.4668,1599.73)">
          <path
             d="M 0,0 C 0.358,0.224 0.629,0.758 0.613,1.179 0.597,1.599 0.283,1.756 -0.072,1.534 -0.425,1.306 -0.695,0.776 -0.679,0.35 -0.666,-0.069 -0.355,-0.226 0,0 M 7.231,4.616 C 7.592,4.852 7.865,5.381 7.838,5.802 7.82,6.222 7.518,6.378 7.159,6.151 6.799,5.925 6.527,5.393 6.553,4.972 6.571,4.55 6.874,4.393 7.231,4.616 m 5.54,-15.478 -16.31,-17.169 -1.311,28.275 16.596,10.603 z"
             style="fill:#3e3e96;fill-opacity:1;fill-rule:nonzero;stroke:none"
             id="path12050"
             inkscape:connector-curvature="0" />
        </g>
        <g
           id="g12052"
           transform="translate(2785.749,1610.8281)">
          <path
             d="m 0,0 0.464,-0.251 -16.596,-10.603 1.32,-28.275 -0.47,0.243 -1.315,28.274 z"
             style="fill:#5252bf;fill-opacity:1;fill-rule:nonzero;stroke:none"
             id="path12054"
             inkscape:connector-curvature="0" />
        </g>
        <g
           id="g12056"
           transform="translate(2784.8096,1607.9009)">
          <path
             d="M 0,0 0.511,-11.429 7.776,0.232 Z"
             style="fill:#5252bf;fill-opacity:1;fill-rule:nonzero;stroke:none"
             id="path12058"
             inkscape:connector-curvature="0" />
        </g>
        <g
           id="g12060"
           transform="translate(2788.8701,1603.7925)">
          <path
             d="M 0,0 C 0.479,-0.249 0.724,-0.281 0.678,-0.807 0.658,-0.989 0.574,-1.21 0.585,-1.153 c 0,0 -0.005,-0.023 -0.005,-0.02 -0.162,-0.396 -0.616,-0.928 -0.982,-0.729 L -0.867,-1.66 C -0.237,-1.986 0.626,-0.325 0,0"
             style="fill:#3e3e96;fill-opacity:1;fill-rule:nonzero;stroke:none"
             id="path12062"
             inkscape:connector-curvature="0" />
        </g>
        <g
           id="g12064"
           transform="translate(2781.248,1597.5811)">
          <path
             d="m 0,0 c 0.042,0.033 0.093,0.07 0.137,0.107 0.013,0.01 0.03,0.032 0.047,0.041 0.025,0.028 0.048,0.066 0.079,0.09 0.009,0.018 0.028,0.033 0.036,0.053 0.033,0.041 0.064,0.083 0.092,0.138 0.005,0.016 0.025,0.027 0.031,0.053 0.034,0.056 0.063,0.115 0.082,0.178 0.01,0 0.01,0.015 0.01,0.015 0.007,0.009 0.007,0.012 0.007,0.016 0.019,0.046 0.028,0.087 0.049,0.132 0,0.026 0.006,0.032 0.009,0.057 0.01,0.029 0.01,0.071 0.017,0.108 C 0.604,0.997 0.602,1.017 0.604,1.025 0.607,1.082 0.613,1.128 0.607,1.176 0.596,1.384 0.521,1.532 0.396,1.589 0.549,1.512 0.707,1.434 0.86,1.351 0.979,1.288 1.066,1.144 1.075,0.931 V 0.791 C 1.066,0.768 1.066,0.761 1.066,0.737 1.054,0.712 1.048,0.671 1.039,0.63 1.039,0.618 1.032,0.597 1.028,0.584 1.017,0.538 1.009,0.497 0.986,0.454 0.982,0.445 0.982,0.436 0.979,0.432 V 0.429 L 0.973,0.423 C 0.948,0.354 0.916,0.296 0.885,0.238 0.877,0.223 0.868,0.201 0.851,0.182 0.825,0.135 0.795,0.086 0.759,0.044 0.754,0.041 0.748,0.024 0.744,0.013 0.736,0.007 0.736,0.003 0.727,0 0.703,-0.034 0.671,-0.062 0.636,-0.094 0.627,-0.104 0.613,-0.123 0.602,-0.135 0.555,-0.173 0.514,-0.214 0.463,-0.247 0.282,-0.359 0.117,-0.372 -0.006,-0.314 l -0.465,0.252 C -0.352,-0.135 -0.188,-0.113 0,0"
             style="fill:#5252bf;fill-opacity:1;fill-rule:nonzero;stroke:none"
             id="path12066"
             inkscape:connector-curvature="0" />
        </g>
        <g
           id="g12068"
           transform="translate(2792.9883,1608.4302)">
          <path
             d="m 0,0 0.468,-0.247 -16.603,-10.607 1.316,-28.274 -0.461,0.246 -1.321,28.271 z"
             style="fill:#5252bf;fill-opacity:1;fill-rule:nonzero;stroke:none"
             id="path12070"
             inkscape:connector-curvature="0" />
        </g>
        <g
           id="g12072"
           transform="translate(2781.7109,1597.334)">
          <path
             d="M 0,0 C 0.35,0.231 0.625,0.758 0.612,1.178 0.591,1.601 0.281,1.755 -0.072,1.532 -0.433,1.306 -0.703,0.774 -0.683,0.354 -0.66,-0.067 -0.354,-0.222 0,0 M 7.226,4.617 C 7.58,4.848 7.862,5.374 7.837,5.799 7.817,6.22 7.514,6.379 7.156,6.15 6.797,5.926 6.523,5.398 6.543,4.976 6.564,4.551 6.871,4.396 7.226,4.617 M 13.056,-17.42 -3.542,-28.032 -4.857,0.243 11.745,10.849 Z"
             style="fill:#726fdd;fill-opacity:1;fill-rule:nonzero;stroke:none"
             id="path12074"
             inkscape:connector-curvature="0" />
        </g>
        <g
           id="g12076"
           transform="translate(2769.1523,1600.2158)">
          <path
             d="M 0,0 6.578,1.632 7.701,-2.639 7.235,-2.45 6.304,1.186 0.465,-0.242 Z"
             style="fill:#5252bf;fill-opacity:1;fill-rule:nonzero;stroke:none"
             id="path12078"
             inkscape:connector-curvature="0" />
        </g>
        <g
           id="g12080"
           transform="translate(2775.4561,1601.4019)">
          <path
             d="m 0,0 1.318,-28.277 0.934,-3.63 -1.268,28.143 z"
             style="fill:#5252bf;fill-opacity:1;fill-rule:nonzero;stroke:none"
             id="path12082"
             inkscape:connector-curvature="0" />
        </g>
        <g
           id="g12084"
           transform="translate(2775.4561,1601.4019)">
          <path
             d="m 0,0 -5.839,-1.428 1.32,-28.275 5.837,1.426 z"
             style="fill:#726fdd;fill-opacity:1;fill-rule:nonzero;stroke:none"
             id="path12086"
             inkscape:connector-curvature="0" />
        </g>
        <g
           id="g12088"
           transform="translate(2792.9883,1608.4302)">
          <path
             d="m 0,0 -7.684,-0.181 0.9,2.349 -0.358,0.159 -1.037,-2.847 8.334,0.223 z"
             style="fill:#726fdd;fill-opacity:1;fill-rule:nonzero;stroke:none"
             id="path12090"
             inkscape:connector-curvature="0" />
        </g>
      </g>
    </g>
    <g
       id="g12092"
       transform="matrix(0.35277777,0,0,-0.35277777,-885.53363,913.8824)">
      <g
         id="g12094"
         clip-path="url(#clipPath12098)">
        <g
           id="g12100"
           transform="translate(2788.2168,1602.6357)">
          <path
             d="m 0,0 0.539,-0.124 c 0.017,-0.075 0.055,-0.111 0.099,-0.124 0,0 -0.62,0.181 -0.638,0.248"
             style="fill:#ffe05f;fill-opacity:1;fill-rule:nonzero;stroke:none"
             id="path12102"
             inkscape:connector-curvature="0" />
        </g>
      </g>
    </g>
    <g
       id="g12104"
       transform="matrix(0.35277777,0,0,-0.35277777,-885.53363,913.8824)">
      <g
         id="g12106"
         clip-path="url(#clipPath12110)">
        <g
           id="g12112"
           transform="translate(2788.7559,1602.5117)">
          <path
             d="M 0,0 -0.539,0.124 -3.6,6.949 c 0,0 -0.448,0.766 -0.56,0.873 -0.981,0.952 -2.196,0.54 -2.196,0.54 0,0 1.108,0.788 2.27,0.211 C -2.258,7.661 0,0 0,0"
             style="fill:#ffe05f;fill-opacity:1;fill-rule:nonzero;stroke:none"
             id="path12114"
             inkscape:connector-curvature="0" />
        </g>
        <g
           id="g12116"
           transform="translate(2783.7031,1611.6616)">
          <path
             d="m 0,0 c -0.77,0.175 -1.57,0.139 -2.503,-0.69 -1.82,-1.606 -2.036,-4.051 -1.383,-7.049 l 1.207,-6.054 c 0.023,-0.064 0.052,-0.103 0.102,-0.111 l 0.538,-0.123 c -0.053,0.004 -0.092,0.053 -0.109,0.11 l -1.318,6.447 c -0.594,3.547 -0.23,4.964 1.496,6.649 0.679,0.666 1.882,0.799 2.656,0.614 z"
             style="fill:#ffe05f;fill-opacity:1;fill-rule:nonzero;stroke:none"
             id="path12118"
             inkscape:connector-curvature="0" />
        </g>
        <g
           id="g12120"
           transform="translate(2781.7334,1610.8408)">
          <path
             d="M 0,0 C 1.527,1.281 3.78,0.762 4.271,-0.943 L 7.41,-7.946 C 7.447,-8.086 7.4,-8.276 7.282,-8.389 7.173,-8.498 7.055,-8.469 7.022,-8.329 L 3.869,-1.331 C 2.652,1.49 0.15,-0.49 0.138,-0.499 -1.373,-1.978 -1.464,-4.021 -0.952,-6.794 l 1.17,-5.911 c 0.041,-0.138 -0.017,-0.337 -0.124,-0.438 -0.105,-0.11 -0.232,-0.084 -0.273,0.047 l -1.267,6.265 C -2.099,-3.263 -1.727,-1.685 0,0"
             style="fill:#c5ad49;fill-opacity:1;fill-rule:nonzero;stroke:none"
             id="path12122"
             inkscape:connector-curvature="0" />
        </g>
        <g
           id="g12124"
           transform="translate(2783.3096,1611.7017)">
          <path
             d="m 0,0 c -2.569,-0.677 -2.117,-2.356 -2.117,-2.356 0,0 -0.641,-1.18 -0.46,-1.215 2.468,-0.516 4.16,1 4.111,2.2 C 1.516,-0.874 1.463,0.378 0,0"
             style="fill:#e5cbbd;fill-opacity:1;fill-rule:nonzero;stroke:none"
             id="path12126"
             inkscape:connector-curvature="0" />
        </g>
        <g
           id="g12128"
           transform="translate(2782.9805,1613.2417)">
          <path
             d="m 0,0 c -0.1,-1.107 -1.663,-1.449 -2.189,-2.309 -0.431,-0.71 1.317,-1.657 1.259,-2.489 -0.066,-0.978 -1.22,-0.701 -1.424,-0.246 -0.088,0.195 -2.181,2.511 -2.024,3.289 0.729,3.634 2.212,3.841 3.212,3.746 C -0.165,1.9 0.101,1.095 0,0"
             style="fill:#f4d9cb;fill-opacity:1;fill-rule:nonzero;stroke:none"
             id="path12130"
             inkscape:connector-curvature="0" />
        </g>
        <g
           id="g12132"
           transform="translate(2799.1855,1589.2104)">
          <path
             d="m 0,0 c 0,0 -7.101,13.395 -9.083,21.405 -0.614,2.449 -0.017,4.949 0.077,4.932 L 9.705,27.435 C 9.939,26.063 9.52,23.735 9.409,22.953 9.252,21.861 11.831,12.662 12.375,10.052 l 6.091,-32.227 c 0.154,-0.307 1.241,-9.887 0.679,-10.347 -0.228,-0.185 -4.512,-5.163 -6.433,-6.314 -2.116,-1.275 -4.979,-1.936 -7.003,-1.299 -0.748,0.235 -2.538,1.299 -2.01,2.258 1.583,1.345 3.27,2.536 3.27,2.536 2.811,2.998 2.562,6.16 2.579,6.206 0.722,2.067 -0.382,5.334 -1.292,8.356 -0.199,0.651 0.285,0.913 0.285,0.913 z"
             style="fill:#1a4051;fill-opacity:1;fill-rule:nonzero;stroke:none"
             id="path12134"
             inkscape:connector-curvature="0" />
        </g>
        <g
           id="g12136"
           transform="translate(2774.1426,1541.0444)">
          <path
             d="m 0,0 c 0.146,0.527 0.971,1.062 2.609,2.006 0.108,0.061 0.715,0.377 0.715,0.377 0,0 -0.007,0 -0.007,-0.003 0.052,0.025 0.099,0.053 0.151,0.078 0.055,0.034 5.946,2.888 8.97,13.406 0.059,0.195 0.715,0.576 0.715,0.576 l 3.453,19.789 c 0,0 3.562,33.209 3.849,34.812 0.115,0.593 0.272,1.251 0.383,1.693 H 38.99 c 0,0 0.636,-0.751 0.694,-3.571 C 39.781,64.318 35.565,55.589 34.543,53.035 34.241,52.277 28.255,37.061 27.89,34.679 26.765,27.467 22.165,17.502 21.441,15.624 l 0.493,-1.348 C 21.914,14.299 20.25,6.134 19.413,4.193 18.825,2.812 18.082,1.903 17.744,1.532 L 13.076,-0.075 C 11.4,-1.125 9.613,-2.892 7.462,-3.333 5.032,-3.819 1.725,-3.288 0.252,-1.747 -0.562,-0.898 -0.229,-0.283 0,0"
             style="fill:#265a77;fill-opacity:1;fill-rule:nonzero;stroke:none"
             id="path12138"
             inkscape:connector-curvature="0" />
        </g>
        <g
           id="g12140"
           transform="translate(2791.4912,1627.8267)">
          <path
             d="m 0,0 -6.298,2.527 -0.096,0.051 c 0.623,1.625 1.128,3.054 1.41,4.055 1.194,4.24 2.281,15.991 2.281,15.991 0,0 -0.364,9.187 8.071,7.716 4.061,-0.708 1.117,-6.986 -0.327,-10.562 0,0 -1.835,-12.235 -3.082,-15.629 C 1.574,3.092 0.868,1.638 0,0"
             style="fill:#d82e9f;fill-opacity:1;fill-rule:nonzero;stroke:none"
             id="path12142"
             inkscape:connector-curvature="0" />
        </g>
        <g
           id="g12144"
           transform="translate(2823.5547,1675.8833)">
          <path
             d="m 0,0 c -3.3,13.384 -7.817,15.226 -10.841,15.647 -3.024,0.43 -5.844,-1.712 -6.247,-4.707 l -0.446,-3.076 c 1.114,-0.141 6.693,1.195 7.652,-10.52 0.676,-8.248 1.148,-10.955 1.916,-26.512 0.96,-0.578 2.306,-1.348 5.949,-0.765 3.014,0.473 6.902,4.797 6.713,11.137 z"
             style="fill:#6d3c07;fill-opacity:1;fill-rule:nonzero;stroke:none"
             id="path12146"
             inkscape:connector-curvature="0" />
        </g>
        <g
           id="g12148"
           transform="translate(2809.0723,1682.5518)">
          <path
             d="m 0,0 c -0.202,-1.438 -1.527,-2.438 -2.962,-2.237 -1.433,0.203 -2.429,1.533 -2.226,2.966 0.197,1.438 1.522,2.432 2.956,2.233 C -0.799,2.764 0.201,1.434 0,0"
             style="fill:#ea4949;fill-opacity:1;fill-rule:nonzero;stroke:none"
             id="path12150"
             inkscape:connector-curvature="0" />
        </g>
        <g
           id="g12152"
           transform="translate(2801.8496,1684.2861)">
          <path
             d="m 0,0 c -4.18,0.589 -9.443,-1.801 -11.453,-5.119 -3.095,-5.137 -1.081,-8.301 -1.152,-8.465 -0.513,-1.191 4.134,4.107 5.5,3.344 1.517,-0.84 1.441,-0.066 0.933,-3.707 -0.203,-1.425 0.182,-2.076 1.26,-2.228 1.219,-0.169 2.136,-0.281 2.136,-0.281 0,0 2.001,2.308 1.81,1.385 -1.772,-8.709 0.355,-9.548 0.355,-9.548 2.157,-0.426 8.83,4.992 9.767,11.669 C 10.105,-6.19 6.754,-0.947 0,0"
             style="fill:#8c4f06;fill-opacity:1;fill-rule:nonzero;stroke:none"
             id="path12154"
             inkscape:connector-curvature="0" />
        </g>
        <g
           id="g12156"
           transform="translate(2823.5596,1606.1079)">
          <path
             d="m 0,0 c 0.598,-1.248 -1.89,-2.297 -1.567,-3.33 0.128,-0.404 1.64,-1.304 1.501,-2.445 -0.145,-1.2 -0.97,-1 -1.251,-0.799 -0.218,0.156 -2.221,1.952 -2.419,2.928 -0.651,3.245 0.165,4.523 1.251,5.059 C -1.396,1.938 -0.606,1.234 0,0"
             style="fill:#ffe8d9;fill-opacity:1;fill-rule:nonzero;stroke:none"
             id="path12158"
             inkscape:connector-curvature="0" />
        </g>
        <g
           id="g12160"
           transform="translate(2789.4063,1630.7109)">
          <path
             d="m 0,0 c 3.094,-0.44 3.691,0.947 3.647,0.685 0,0 0.545,-0.495 0.243,-1.257 -0.1,-0.24 -1.13,-2.983 -2.005,-3.324 0,0 -0.237,-1.356 -4.061,-0.391 -2.965,0.75 -2.788,3.053 -2.788,3.325 l 0.814,2.707 c 0.002,0.254 0.553,0.641 0.826,0.591 0,0 -0.127,-1.854 3.324,-2.336"
             style="fill:#f763c6;fill-opacity:1;fill-rule:nonzero;stroke:none"
             id="path12162"
             inkscape:connector-curvature="0" />
        </g>
        <g
           id="g12164"
           transform="translate(2790.8311,1654.3823)">
          <path
             d="m 0,0 -3.344,-9.82 c 0,0 -1.02,-2.947 -0.876,-4.652 0.194,-2.402 1.791,-4.552 1.897,-4.729 1.141,-1.863 2.867,-5.693 2.407,-11.106 l -1.381,-12.72 c 0,0 -0.084,-2.224 4.665,-3.511 11.685,-3.166 20.029,4.78 20.029,4.78 0,0.23 -3.642,11.976 -3.642,11.976 -1.076,3.277 -0.904,4.888 -0.575,6.725 l 2.354,8.429 c 0,0 3.356,8.171 0.794,11.055 C 20.105,-1.069 15.14,3.24 12.981,4.609 12.441,4.942 10.679,4.151 9.237,4.55 9.237,4.55 1.833,6.614 0,0"
             style="fill:#f445b1;fill-opacity:1;fill-rule:nonzero;stroke:none"
             id="path12166"
             inkscape:connector-curvature="0" />
        </g>
        <g
           id="g12168"
           transform="translate(2795.6299,1653.792)">
          <path
             d="M 0,0 C 3.844,-3.546 5.9,0.409 8.197,3.354 L 8.063,13.166 -0.358,13.28 Z"
             style="fill:#e8c5ac;fill-opacity:1;fill-rule:nonzero;stroke:none"
             id="path12170"
             inkscape:connector-curvature="0" />
        </g>
        <g
           id="g12172"
           transform="translate(2803.7676,1661.1528)">
          <path
             d="m 0,0 c 0,0 0.006,-1.782 0,-2.093 -0.096,-4.268 -5.813,-6.051 -5.813,-6.051 -0.646,-0.336 -0.602,-1.1 -0.502,-2.102 l 0.381,-2.945 c 0.088,-0.963 0.594,-0.864 0.981,-0.464 0,0 3.84,3.365 4.918,4.494 2.533,2.648 2.284,4.008 1.285,7.328 C 0.649,0.174 0,0 0,0"
             style="fill:#fcd4f1;fill-opacity:1;fill-rule:nonzero;stroke:none"
             id="path12174"
             inkscape:connector-curvature="0" />
        </g>
        <g
           id="g12176"
           transform="translate(2797.168,1653.6523)">
          <path
             d="m 0,0 c 0.42,-0.537 0.484,-0.845 0.206,-1.244 l -2.474,-1.958 c -1.061,-0.864 -1.45,-0.321 -1.342,0.491 l 0.653,4.972 c 0.317,3.547 1.258,3.72 1.258,3.72 0,0 -0.004,-0.267 0.022,-1.005 C -1.639,3.74 -1.267,1.606 0,0"
             style="fill:#ffc5ec;fill-opacity:1;fill-rule:nonzero;stroke:none"
             id="path12178"
             inkscape:connector-curvature="0" />
        </g>
        <g
           id="g12180"
           transform="translate(2820.6777,1607.0713)">
          <path
             d="m 0,0 4.406,1.224 c 0,0 -1.148,13.251 -4.015,21.956 -1.124,3.409 -4.433,13.651 -4.433,13.651 -1.038,3.562 -3.74,9.169 -7.758,7.937 -4.816,-1.476 -2.062,-7.765 -2.062,-7.765 l 8.159,-16.84 z"
             style="fill:#ffe8d9;fill-opacity:1;fill-rule:nonzero;stroke:none"
             id="path12182"
             inkscape:connector-curvature="0" />
        </g>
        <g
           id="g12184"
           transform="translate(2815.8828,1625.3936)">
          <path
             d="M 0,0 5.266,2.208 5.186,4.857 0.753,18.508 c -1.038,3.563 -3.74,9.169 -7.758,7.938 -4.816,-1.476 -2.062,-7.765 -2.062,-7.765 l 8.159,-16.84 z"
             style="fill:#f763c6;fill-opacity:1;fill-rule:nonzero;stroke:none"
             id="path12186"
             inkscape:connector-curvature="0" />
        </g>
        <g
           id="g12188"
           transform="translate(2817.7822,1628.9849)">
          <path
             d="m 0,0 c 2.978,1.252 2.713,2.962 2.823,2.678 0,0 0.762,-0.197 0.925,-1.12 0.056,-0.296 0.7,-3.6 0.126,-4.412 0,0 -0.356,-1.133 -4.276,-2.261 -3.036,-0.864 -2.812,1.561 -2.962,1.833 l -1.289,2.768 c -0.145,0.246 0.441,1.231 0.715,1.338 0,0 0.613,-2.219 3.938,-0.824"
             style="fill:#ffc5ec;fill-opacity:1;fill-rule:nonzero;stroke:none"
             id="path12190"
             inkscape:connector-curvature="0" />
        </g>
        <g
           id="g12192"
           transform="translate(2794.8789,1675.8833)">
          <path
             d="m 0,0 c -5.635,0.317 -5.877,-1.244 -5.795,-4.375 0.068,-2.585 1.427,-8.292 1.427,-8.292 0.806,-3.452 2.041,-5.768 3.628,-6.731 2.416,-1.466 5.367,-0.318 8.404,3.279 2.475,2.938 -0.15,5.152 -0.059,5.644 0,0 -0.398,2.187 -0.917,3.393 C 5.921,-5.305 2.996,-0.173 0,0"
             style="fill:#ffe1cc;fill-opacity:1;fill-rule:nonzero;stroke:none"
             id="path12194"
             inkscape:connector-curvature="0" />
        </g>
      </g>
    </g>
    <g
       id="g12196"
       transform="matrix(0.35277777,0,0,-0.35277777,-885.53363,913.8824)">
      <g
         id="g12198"
         clip-path="url(#clipPath12202)">
        <g
           id="g12204"
           transform="translate(2823.5156,1596.6982)">
          <path
             d="m 0,0 -0.314,0.463 c -0.025,0.04 -0.033,0.099 0,0.161 L 0,0.161 C -0.026,0.099 -0.026,0.037 0,0"
             style="fill:#ffe05f;fill-opacity:1;fill-rule:nonzero;stroke:none"
             id="path12206"
             inkscape:connector-curvature="0" />
        </g>
      </g>
    </g>
    <g
       id="g12208"
       transform="matrix(0.35277777,0,0,-0.35277777,-885.53363,913.8824)">
      <g
         id="g12210"
         clip-path="url(#clipPath12214)">
        <g
           id="g12216"
           transform="translate(2823.5156,1596.8589)">
          <path
             d="M 0,0 -0.314,0.463 0.988,3.308 1.296,2.843 Z"
             style="fill:#ffe05f;fill-opacity:1;fill-rule:nonzero;stroke:none"
             id="path12218"
             inkscape:connector-curvature="0" />
        </g>
      </g>
    </g>
    <g
       id="g12220"
       transform="matrix(0.35277777,0,0,-0.35277777,-885.53363,913.8824)">
      <g
         id="g12222"
         clip-path="url(#clipPath12226)">
        <g
           id="g12228"
           transform="translate(2824.8115,1599.7021)">
          <path
             d="M 0,0 -0.308,0.465 C 0.155,1.369 1.347,1.145 0.96,1.727 L 1.269,1.263 C 1.661,0.681 0.464,0.907 0,0"
             style="fill:#ffe05f;fill-opacity:1;fill-rule:nonzero;stroke:none"
             id="path12230"
             inkscape:connector-curvature="0" />
        </g>
      </g>
    </g>
    <g
       id="g12232"
       transform="matrix(0.35277777,0,0,-0.35277777,-885.53363,913.8824)">
      <g
         id="g12234"
         clip-path="url(#clipPath12238)">
        <g
           id="g12240"
           transform="translate(2825.9043,1601.3691)">
          <path
             d="M 0,0 C -0.452,0.685 -1.221,1.213 -2.457,1.291 -4.854,1.452 -7.49,-0.353 -8.553,-2.438 l -2.369,-4.638 c -0.027,-0.061 -0.027,-0.114 0,-0.16 l 0.318,-0.461 c -0.031,0.045 -0.034,0.098 0,0.156 l 2.368,4.643 c 1.06,2.083 3.538,3.781 6.002,3.834 1.231,0.029 2.118,-0.926 2.58,-1.598 z"
             style="fill:#ffe05f;fill-opacity:1;fill-rule:nonzero;stroke:none"
             id="path12242"
             inkscape:connector-curvature="0" />
        </g>
        <g
           id="g12244"
           transform="translate(2823.4121,1602.3096)">
          <path
             d="M 0,0 C 2.453,0.055 2.5,-0.973 1.443,-3.053 L 0.665,-5.437 C 0.604,-5.574 0.421,-5.672 0.274,-5.676 0.115,-5.684 0.044,-5.582 0.104,-5.451 l 0.8,2.411 c 0.932,1.826 1.176,2.628 -0.976,2.578 -2.156,-0.048 -4.183,-1.544 -5.11,-3.369 L -7.551,-8.46 c -0.061,-0.13 -0.247,-0.244 -0.396,-0.244 -0.158,-0.004 -0.231,0.099 -0.164,0.223 l 2.367,4.643 C -4.684,-1.756 -2.459,-0.061 0,0"
             style="fill:#c5ad49;fill-opacity:1;fill-rule:nonzero;stroke:none"
             id="path12246"
             inkscape:connector-curvature="0" />
        </g>
        <g
           id="g12248"
           transform="translate(2823.7832,1598.3545)">
          <path
             d="m 0,0 c 0.479,-0.276 0.744,-0.317 0.639,-0.893 -0.03,-0.165 -0.111,-0.342 -0.097,-0.313 0,0 -0.009,-0.018 -0.009,-0.013 C 0.479,-1.36 0.374,-1.512 0.282,-1.619 0.227,-1.679 0.098,-1.804 -0.016,-1.868 -0.382,-2.083 -0.566,-1.873 -0.963,-1.647 -0.327,-2.013 0.625,-0.366 0,0"
             style="fill:#726fdd;fill-opacity:1;fill-rule:nonzero;stroke:none"
             id="path12250"
             inkscape:connector-curvature="0" />
        </g>
        <g
           id="g12252"
           transform="translate(2815.7295,1592.3745)">
          <path
             d="m 0,0 c 0.056,0.033 0.102,0.065 0.149,0.103 0.013,0.015 0.032,0.029 0.044,0.041 0.027,0.033 0.061,0.061 0.087,0.099 0.017,0 0.032,0.024 0.045,0.036 0.035,0.04 0.061,0.087 0.1,0.138 0.012,0.01 0.022,0.036 0.035,0.052 0.032,0.057 0.066,0.116 0.094,0.173 0.006,0.013 0.006,0.015 0.008,0.025 0,0.008 0.005,0.008 0.005,0.016 0.022,0.045 0.038,0.088 0.051,0.142 0.004,0.012 0.006,0.028 0.016,0.039 0.017,0.037 0.017,0.074 0.024,0.115 0.006,0.017 0.006,0.029 0.006,0.047 0.012,0.047 0.014,0.101 0.014,0.148 0,0.209 -0.073,0.367 -0.191,0.436 C 0.634,1.522 0.788,1.43 0.943,1.345 1.066,1.272 1.14,1.121 1.14,0.901 1.14,0.856 1.136,0.802 1.128,0.756 1.128,0.742 1.118,0.724 1.118,0.699 1.108,0.675 1.106,0.637 1.096,0.596 1.088,0.585 1.088,0.563 1.079,0.548 1.066,0.51 1.054,0.461 1.03,0.42 V 0.399 H 1.021 C 1.021,0.386 1.019,0.386 1.019,0.379 0.988,0.319 0.954,0.253 0.923,0.202 0.906,0.184 0.896,0.165 0.885,0.148 0.851,0.099 0.819,0.052 0.788,0.012 0.776,0 0.77,-0.014 0.76,-0.025 c 0,0 -0.011,-0.004 -0.011,-0.007 C 0.718,-0.066 0.688,-0.091 0.652,-0.124 0.64,-0.137 0.624,-0.149 0.61,-0.165 0.562,-0.206 0.518,-0.24 0.47,-0.272 0.28,-0.379 0.105,-0.388 -0.017,-0.313 l -0.465,0.262 C -0.354,-0.119 -0.183,-0.112 0,0"
             style="fill:#e84c3d;fill-opacity:1;fill-rule:nonzero;stroke:none"
             id="path12254"
             inkscape:connector-curvature="0" />
        </g>
        <g
           id="g12256"
           transform="translate(2816.1992,1592.1021)">
          <path
             d="M 0,0 C 0.368,0.218 0.67,0.75 0.67,1.174 0.67,1.611 0.363,1.779 -0.01,1.565 -0.386,1.346 -0.685,0.821 -0.685,0.39 -0.681,-0.038 -0.38,-0.214 0,0 m 7.568,4.385 c 0.379,0.22 0.673,0.74 0.673,1.168 0,0.428 -0.307,0.605 -0.679,0.387 C 7.191,5.727 6.886,5.202 6.886,4.771 6.886,4.342 7.191,4.169 7.568,4.385 M 12.502,-11.643 -4.88,-21.688 -4.938,0.465 12.448,10.524 Z"
             style="fill:#3e3e96;fill-opacity:1;fill-rule:nonzero;stroke:none"
             id="path12258"
             inkscape:connector-curvature="0" />
        </g>
        <g
           id="g12260"
           transform="translate(2828.1855,1602.9028)">
          <path
             d="m 0,0 0.462,-0.277 -17.386,-10.059 0.058,-22.164 -0.454,0.266 -0.065,22.171 z"
             style="fill:#c9b924;fill-opacity:1;fill-rule:nonzero;stroke:none"
             id="path12262"
             inkscape:connector-curvature="0" />
        </g>
        <g
           id="g12264"
           transform="translate(2827.0967,1599.9653)">
          <path
             d="M 0,0 V -11.67 L 7.934,-0.115 Z"
             style="fill:#726fdd;fill-opacity:1;fill-rule:nonzero;stroke:none"
             id="path12266"
             inkscape:connector-curvature="0" />
        </g>
        <g
           id="g12268"
           transform="translate(2831.0488,1595.6001)">
          <path
             d="M 0,0 C 0.472,-0.281 0.72,-0.327 0.646,-0.853 0.62,-1.044 0.523,-1.273 0.546,-1.213 L 0.53,-1.232 C 0.35,-1.635 -0.132,-2.143 -0.503,-1.928 L -0.957,-1.66 C -0.334,-2.019 0.628,-0.363 0,0"
             style="fill:#a39216;fill-opacity:1;fill-rule:nonzero;stroke:none"
             id="path12270"
             inkscape:connector-curvature="0" />
        </g>
        <g
           id="g12272"
           transform="translate(2823.002,1589.6064)">
          <path
             d="m 0,0 c 0.047,0.024 0.093,0.066 0.141,0.106 0.015,0.009 0.034,0.025 0.047,0.038 0.027,0.031 0.061,0.061 0.086,0.096 0.017,0.015 0.03,0.027 0.04,0.042 0.037,0.046 0.075,0.093 0.104,0.136 0.011,0.019 0.027,0.034 0.036,0.056 0.033,0.057 0.067,0.115 0.091,0.175 0.008,0.006 0.008,0.018 0.008,0.018 0.008,0.004 0.008,0.009 0.008,0.02 0.022,0.042 0.043,0.086 0.048,0.127 0.01,0.025 0.01,0.037 0.018,0.054 0.007,0.037 0.021,0.07 0.027,0.109 0.007,0.019 0.011,0.028 0.011,0.048 0.003,0.053 0.01,0.102 0.01,0.148 0,0.211 -0.079,0.367 -0.203,0.431 C 0.627,1.52 0.781,1.429 0.939,1.338 1.06,1.267 1.131,1.119 1.131,0.905 1.131,0.86 1.131,0.806 1.121,0.757 1.121,0.741 1.117,0.729 1.113,0.712 1.105,0.671 1.105,0.634 1.092,0.605 1.088,0.576 1.075,0.567 1.075,0.552 1.063,0.507 1.048,0.457 1.025,0.418 1.022,0.412 1.022,0.412 1.022,0.395 1.022,0.388 1.015,0.388 1.015,0.388 0.982,0.324 0.955,0.263 0.912,0.202 0.908,0.18 0.895,0.164 0.879,0.144 0.851,0.103 0.816,0.057 0.781,0.011 0.77,0 0.766,-0.004 0.759,-0.018 0.75,-0.021 0.745,-0.03 0.739,-0.033 0.711,-0.063 0.685,-0.096 0.654,-0.125 0.634,-0.139 0.619,-0.153 0.609,-0.166 0.561,-0.202 0.504,-0.234 0.459,-0.272 0.274,-0.375 0.1,-0.383 -0.021,-0.318 l -0.464,0.274 C -0.359,-0.121 -0.189,-0.107 0,0"
             style="fill:#a39216;fill-opacity:1;fill-rule:nonzero;stroke:none"
             id="path12274"
             inkscape:connector-curvature="0" />
        </g>
        <g
           id="g12276"
           transform="translate(2835.4521,1600.1265)">
          <path
             d="m 0,0 0.461,-0.267 -17.388,-10.056 0.064,-22.161 -0.464,0.268 -0.06,22.161 z"
             style="fill:#d8c32b;fill-opacity:1;fill-rule:nonzero;stroke:none"
             id="path12278"
             inkscape:connector-curvature="0" />
        </g>
        <g
           id="g12280"
           transform="translate(2823.4609,1589.334)">
          <path
             d="m 0,0 c 0.372,0.221 0.68,0.75 0.672,1.177 0,0.429 -0.3,0.603 -0.677,0.392 C -0.381,1.351 -0.681,0.824 -0.672,0.392 -0.672,-0.037 -0.376,-0.214 0,0 M 7.572,4.386 C 7.947,4.602 8.251,5.121 8.251,5.558 8.251,5.985 7.944,6.162 7.568,5.939 7.197,5.727 6.894,5.206 6.894,4.77 6.894,4.341 7.197,4.176 7.572,4.386 M 12.519,-11.641 -4.872,-21.692 -4.936,0.469 12.452,10.525 Z"
             style="fill:#fff543;fill-opacity:1;fill-rule:nonzero;stroke:none"
             id="path12282"
             inkscape:connector-curvature="0" />
        </g>
        <g
           id="g12284"
           transform="translate(2810.8008,1592.8398)">
          <path
             d="m 0,0 6.777,1.363 0.948,-4.4 -0.46,0.215 -0.788,3.74 -6.016,-1.191 z"
             style="fill:#c9b924;fill-opacity:1;fill-rule:nonzero;stroke:none"
             id="path12286"
             inkscape:connector-curvature="0" />
        </g>
        <g
           id="g12288"
           transform="translate(2817.2773,1593.7578)">
          <path
             d="M 0,0 0.059,-22.158 0.848,-25.902 0.834,-3.875 Z"
             style="fill:#c9b924;fill-opacity:1;fill-rule:nonzero;stroke:none"
             id="path12290"
             inkscape:connector-curvature="0" />
        </g>
        <g
           id="g12292"
           transform="translate(2817.2773,1593.7578)">
          <path
             d="m 0,0 -6.016,-1.191 0.066,-22.162 6.009,1.195 z"
             style="fill:#fff543;fill-opacity:1;fill-rule:nonzero;stroke:none"
             id="path12294"
             inkscape:connector-curvature="0" />
        </g>
        <g
           id="g12296"
           transform="translate(2835.4521,1600.1265)">
          <path
             d="m 0,0 -7.837,0.165 1.023,2.356 -0.362,0.169 -1.179,-2.846 8.5,-0.153 z"
             style="fill:#fff543;fill-opacity:1;fill-rule:nonzero;stroke:none"
             id="path12298"
             inkscape:connector-curvature="0" />
        </g>
      </g>
    </g>
    <g
       id="g12300"
       transform="matrix(0.35277777,0,0,-0.35277777,-885.53363,913.8824)">
      <g
         id="g12302"
         clip-path="url(#clipPath12306)">
        <g
           id="g12308"
           transform="translate(2830.3262,1594.438)">
          <path
             d="m 0,0 0.535,-0.154 c 0.021,-0.069 0.06,-0.105 0.11,-0.118 0,0 -0.628,0.202 -0.645,0.272"
             style="fill:#ffe05f;fill-opacity:1;fill-rule:nonzero;stroke:none"
             id="path12310"
             inkscape:connector-curvature="0" />
        </g>
      </g>
    </g>
    <g
       id="g12320"
       transform="matrix(0.35277777,0,0,-0.35277777,113.1313,351.45452)">
      <path
         d="M 0,0 -0.535,0.154 -3.336,7.25 c 0,0 -0.429,0.801 -0.537,0.917 -0.958,1.012 -2.215,0.642 -2.215,0.642 0,0 1.172,0.753 2.323,0.111 C -1.94,7.92 0,0 0,0"
         style="fill:#ffe05f;fill-opacity:1;fill-rule:nonzero;stroke:none"
         id="path12322"
         inkscape:connector-curvature="0" />
    </g>
    <g
       id="g12324"
       transform="matrix(0.35277777,0,0,-0.35277777,111.4649,348.08677)">
      <path
         d="M 0,0 C -0.781,0.226 -1.589,0.222 -2.583,-0.581 -4.499,-2.13 -4.834,-4.613 -4.302,-7.69 l 0.953,-6.222 c 0.018,-0.072 0.051,-0.115 0.09,-0.132 l 0.543,-0.148 c -0.041,0.018 -0.082,0.059 -0.096,0.132 l -1.051,6.629 c -0.439,3.632 -0.013,5.053 1.819,6.694 0.722,0.65 1.955,0.728 2.741,0.506 z"
         style="fill:#ffe05f;fill-opacity:1;fill-rule:nonzero;stroke:none"
         id="path12326"
         inkscape:connector-curvature="0" />
    </g>
    <g
       id="g12328"
       transform="matrix(0.35277777,0,0,-0.35277777,110.74386,348.34687)">
      <path
         d="M 0,0 C 1.614,1.239 3.89,0.604 4.306,-1.151 L 7.191,-8.427 C 7.222,-8.569 7.166,-8.766 7.045,-8.877 6.936,-8.977 6.813,-8.951 6.768,-8.809 L 3.89,-1.524 C 2.776,1.403 0.136,-0.503 0.123,-0.515 -1.482,-1.949 -1.668,-4.029 -1.273,-6.879 l 0.92,-6.068 c 0.031,-0.152 -0.028,-0.347 -0.143,-0.449 -0.124,-0.1 -0.239,-0.075 -0.272,0.074 l -1.011,6.435 C -2.281,-3.23 -1.832,-1.641 0,0"
         style="fill:#c5ad49;fill-opacity:1;fill-rule:nonzero;stroke:none"
         id="path12330"
         inkscape:connector-curvature="0" />
    </g>
    <g
       id="g12332"
       transform="matrix(0.35277777,0,0,-0.35277777,100.67316,321.83361)">
      <path
         d="m 0,0 -2.961,1.42 c 0,0 -0.694,-2.937 -0.346,-5.168 1.439,-9.266 10.125,-8.231 10.125,-8.231 C -0.604,-10.71 0,0 0,0"
         style="fill:#8c4f06;fill-opacity:1;fill-rule:nonzero;stroke:none"
         id="path12334"
         inkscape:connector-curvature="0" />
    </g>
    <g
       id="g12336"
       transform="matrix(0.35277777,0,0,-0.35277777,103.86054,325.13984)">
      <path
         d="m 0,0 c -1.896,0.343 -2.557,-2.316 -2.557,-2.316 0,0 0.433,-2.545 0.351,-3.941 -0.059,-0.845 1.743,-0.152 2.353,0.944 0.037,0.066 0.83,1.353 0.877,1.453 C 1.705,-2.476 1.789,-0.325 0,0"
         style="fill:#ffe1cc;fill-opacity:1;fill-rule:nonzero;stroke:none"
         id="path12338"
         inkscape:connector-curvature="0" />
    </g>
    <g
       id="g12340"
       transform="matrix(0.35277777,0,0,-0.35277777,110.95605,346.47828)">
      <path
         d="m 0,0 -3.088,-0.98 0.089,-3.345 c 0,0 0.663,-0.243 0.843,-0.392 1.551,-1.308 1.668,-3.481 1.668,-3.481 0,0 -0.63,-1.614 0.255,-1.659 0.698,-0.042 1.606,1.384 1.606,1.384 2.201,0.704 2.001,2.117 1.854,3.221 C 3.131,-4.523 2.592,-3.353 2.592,-3.353 1.881,-1.737 0.268,0.134 0,0"
         style="fill:#ffe8d9;fill-opacity:1;fill-rule:nonzero;stroke:none"
         id="path12342"
         inkscape:connector-curvature="0" />
    </g>
    <g
       id="g12344"
       transform="matrix(0.35277777,0,0,-0.35277777,93.211059,370.85247)">
      <path
         d="m 0,0 c -0.813,0.849 -0.48,1.464 -0.252,1.747 0.147,0.527 0.971,1.062 2.609,2.006 0.108,0.061 0.715,0.377 0.715,0.377 0,0 -0.007,0 -0.007,-0.003 0.052,0.025 0.099,0.053 0.151,0.078 0.055,0.034 5.8,2.604 8.824,13.124 0.045,0.159 0.49,1.166 0.856,0.942 0,-0.3 0.888,-0.872 1.637,-1.048 1.563,-0.362 4.877,-0.905 6.676,0.212 0,0 0.87,-0.545 0.792,-1.583 C 21.943,15.089 19.998,7.881 19.161,5.94 18.573,4.559 17.83,3.65 17.492,3.279 L 12.824,1.672 C 11.148,0.622 9.361,-1.145 7.21,-1.586 4.78,-2.072 1.473,-1.541 0,0"
         style="fill:#647377;fill-opacity:1;fill-rule:nonzero;stroke:none"
         id="path12346"
         inkscape:connector-curvature="0" />
    </g>
    <g
       id="g12348"
       transform="matrix(0.35277777,0,0,-0.35277777,103.26181,366.6064)">
      <path
         d="m 0,0 c 1.583,1.345 2.538,2.452 2.538,2.452 2.184,2.327 3.294,6.244 3.311,6.29 0.721,2.067 -0.382,5.334 -1.292,8.356 -0.116,0.379 0,0.618 0.118,0.759 0.248,-0.802 2.384,-1.729 6.496,0.394 0.89,0.459 1.608,0.99 2.415,1.688 l 0.564,0.176 c 0.156,-0.312 1.09,-6.117 1.54,-8.792 0.732,-4.377 0.26,-4.88 0.26,-4.88 0,0 -0.263,-1.273 -1.302,-2.134 C 14.416,4.124 10.934,0.192 9.013,-0.959 6.896,-2.234 3.094,-3.061 1.162,-2.188 -0.34,-1.51 -0.528,-0.959 0,0"
         style="fill:#44595e;fill-opacity:1;fill-rule:nonzero;stroke:none"
         id="path12350"
         inkscape:connector-curvature="0" />
    </g>
  </g>
</svg>
