<?xml version="1.0" encoding="UTF-8" standalone="no"?>
<!-- Created with Inkscape (http://www.inkscape.org/) -->

<svg
   xmlns:dc="http://purl.org/dc/elements/1.1/"
   xmlns:cc="http://creativecommons.org/ns#"
   xmlns:rdf="http://www.w3.org/1999/02/22-rdf-syntax-ns#"
   xmlns:svg="http://www.w3.org/2000/svg"
   xmlns="http://www.w3.org/2000/svg"
   xmlns:sodipodi="http://sodipodi.sourceforge.net/DTD/sodipodi-0.dtd"
   xmlns:inkscape="http://www.inkscape.org/namespaces/inkscape"
   width="18.044634mm"
   height="63.152401mm"
   viewBox="0 0 18.044634 63.152401"
   version="1.1"
   id="svg162263"
   inkscape:version="0.92.3 (2405546, 2018-03-11)"
   sodipodi:docname="people-business-01.svg">
  <defs
     id="defs162257">
    <clipPath
       id="clipPath1008"
       clipPathUnits="userSpaceOnUse">
      <path
         inkscape:connector-curvature="0"
         id="path1006"
         d="m 386.895,1917.503 c -0.63,-0.368 -1.091,-1.029 -1.303,-1.942 v 0 l 1.324,0.768 c 0.21,0.915 0.671,1.576 1.303,1.942 v 0 z" />
    </clipPath>
    <clipPath
       id="clipPath992"
       clipPathUnits="userSpaceOnUse">
      <path
         inkscape:connector-curvature="0"
         id="path990"
         d="M 0,2119.953 H 3253.108 V 0 H 0 Z" />
    </clipPath>
    <clipPath
       id="clipPath980"
       clipPathUnits="userSpaceOnUse">
      <path
         inkscape:connector-curvature="0"
         id="path978"
         d="m 383.806,1914.964 0.002,-0.767 c 0.363,-0.208 0.958,-0.211 1.325,0 v 0 l -10e-4,0.767 c -0.369,-0.215 -0.963,-0.21 -1.326,0" />
    </clipPath>
    <clipPath
       id="clipPath964"
       clipPathUnits="userSpaceOnUse">
      <path
         inkscape:connector-curvature="0"
         id="path962"
         d="M 0,2119.953 H 3253.108 V 0 H 0 Z" />
    </clipPath>
    <clipPath
       id="clipPath952"
       clipPathUnits="userSpaceOnUse">
      <path
         inkscape:connector-curvature="0"
         id="path950"
         d="m 382.624,1915.108 c 0,-0.138 0.091,-0.276 0.273,-0.38 v 0 l -0.002,0.765 c -0.182,0.105 -0.273,0.242 -0.273,0.381 v 0 z" />
    </clipPath>
    <clipPath
       id="clipPath940"
       clipPathUnits="userSpaceOnUse">
      <path
         inkscape:connector-curvature="0"
         id="path938"
         d="m 388.043,1916.645 0.002,-0.766 c 0.186,0.108 0.279,0.248 0.279,0.389 v 0 l -0.002,0.763 c 0,-0.138 -0.093,-0.279 -0.279,-0.386" />
    </clipPath>
    <clipPath
       id="clipPath928"
       clipPathUnits="userSpaceOnUse">
      <path
         inkscape:connector-curvature="0"
         id="path926"
         d="M 0,2119.953 H 3253.108 V 0 H 0 Z" />
    </clipPath>
    <clipPath
       id="clipPath916"
       clipPathUnits="userSpaceOnUse">
      <path
         inkscape:connector-curvature="0"
         id="path914"
         d="m 394.831,1908.514 0.002,-0.766 c 0.362,-0.212 0.958,-0.212 1.325,0 v 0 l -0.001,0.766 c -0.369,-0.214 -0.963,-0.212 -1.326,0" />
    </clipPath>
    <clipPath
       id="clipPath900"
       clipPathUnits="userSpaceOnUse">
      <path
         inkscape:connector-curvature="0"
         id="path898"
         d="M 0,2119.953 H 3253.108 V 0 H 0 Z" />
    </clipPath>
    <clipPath
       id="clipPath888"
       clipPathUnits="userSpaceOnUse">
      <path
         inkscape:connector-curvature="0"
         id="path886"
         d="m 393.649,1908.659 c 0,-0.139 0.091,-0.277 0.273,-0.381 v 0 l -0.002,0.763 c -0.182,0.106 -0.273,0.244 -0.273,0.384 v 0 z" />
    </clipPath>
    <clipPath
       id="clipPath876"
       clipPathUnits="userSpaceOnUse">
      <path
         inkscape:connector-curvature="0"
         id="path874"
         d="m 399.068,1910.194 0.002,-0.766 c 0.186,0.108 0.279,0.25 0.279,0.388 v 0 l -0.002,0.765 c 0,-0.138 -0.093,-0.281 -0.279,-0.387" />
    </clipPath>
    <clipPath
       id="clipPath696"
       clipPathUnits="userSpaceOnUse">
      <path
         inkscape:connector-curvature="0"
         id="path694"
         d="m 368.179,1881.26 h 46.684 v -30.38 h -46.684 z" />
    </clipPath>
  </defs>
  <sodipodi:namedview
     id="base"
     pagecolor="#ffffff"
     bordercolor="#666666"
     borderopacity="1.0"
     inkscape:pageopacity="0.0"
     inkscape:pageshadow="2"
     inkscape:zoom="0.35"
     inkscape:cx="34.100087"
     inkscape:cy="119.34311"
     inkscape:document-units="mm"
     inkscape:current-layer="layer1"
     showgrid="false"
     inkscape:window-width="1366"
     inkscape:window-height="716"
     inkscape:window-x="-8"
     inkscape:window-y="-8"
     inkscape:window-maximized="1"
     fit-margin-top="0"
     fit-margin-left="0"
     fit-margin-right="0"
     fit-margin-bottom="0" />
  <metadata
     id="metadata162260">
    <rdf:RDF>
      <cc:Work
         rdf:about="">
        <dc:format>image/svg+xml</dc:format>
        <dc:type
           rdf:resource="http://purl.org/dc/dcmitype/StillImage" />
        <dc:title></dc:title>
      </cc:Work>
    </rdf:RDF>
  </metadata>
  <g
     inkscape:label="Layer 1"
     inkscape:groupmode="layer"
     id="layer1"
     transform="translate(86.507434,-117.25713)">
    <g
       id="g690"
       transform="matrix(0.35277777,0,0,-0.35277777,-216.39281,833.35885)">
      <g
         id="g692" />
      <g
         id="g704">
        <g
           clip-path="url(#clipPath696)"
           id="g702"
           style="opacity:0.28999299">
          <g
             transform="translate(413.7969,1865.5786)"
             id="g700">
            <path
               d="m 0,0 c -1.037,-2.411 -8.305,-10.152 -11.813,-12.182 -12.478,-7.221 -34.7,2.769 -33.777,8.675 0.923,5.907 11.639,13.458 15.689,16.243 C -21.042,18.827 6.829,15.874 0,0"
               style="fill:#231f20;fill-opacity:1;fill-rule:nonzero;stroke:none"
               id="path698"
               inkscape:connector-curvature="0" />
          </g>
        </g>
      </g>
    </g>
    <g
       id="g706"
       transform="matrix(0.35277777,0,0,-0.35277777,-79.2985,173.69114)">
      <path
         d="m 0,0 c 0,0 -0.993,-1.588 -3.439,-2.097 -1.51,-0.314 -6.487,-0.933 -6.487,-0.933 -2.47,-0.304 -5.466,-1.091 -5.937,-3.518 0,0 -0.171,-1.221 -0.082,-1.614 0.309,-1.358 1.628,-1.893 3.233,-2.464 0,0 2.916,-1.037 5.414,-1.498 3.228,-0.595 5.012,-0.501 7.34,-0.145 0,0 2.937,0.501 4.122,0.505 1.313,0.007 1.092,-0.951 1.244,-2.183 l 4.179,-1.093 c 4.179,-0.534 6.945,3.229 6.83,4.176 l -1.128,9.19 z"
         style="fill:#545454;fill-opacity:1;fill-rule:nonzero;stroke:none"
         id="path708"
         inkscape:connector-curvature="0" />
    </g>
    <g
       id="g710"
       transform="matrix(0.35277777,0,0,-0.35277777,-78.346109,177.77323)">
      <path
         d="m 0,0 c -1.125,-0.114 -4.378,-0.7 -7.703,-0.316 -3.142,0.36 -8.195,2.201 -8.195,2.201 -1.421,0.505 -2.633,1.375 -2.734,2.19 -0.022,-0.312 -0.033,-0.632 0.007,-0.803 0.304,-1.358 1.626,-1.893 3.229,-2.464 0,0 2.917,-1.037 5.414,-1.498 3.229,-0.595 5.014,-0.498 7.341,-0.144 0,0 3.372,0.48 3.495,0.497 0.777,0.118 1.545,-0.089 1.56,-0.227 C 2.386,-0.499 2.074,0.211 0,0"
         style="fill:#383736;fill-opacity:1;fill-rule:nonzero;stroke:none"
         id="path712"
         inkscape:connector-curvature="0" />
    </g>
    <g
       id="g714"
       transform="matrix(0.35277777,0,0,-0.35277777,-75.991209,178.4221)">
      <path
         d="m 0,0 -4.143,1.081 c 0.046,-0.406 0.145,-1.362 0.193,-1.756 L 0.229,-1.767 C 4.408,-2.299 7.172,1.462 7.058,2.409 L 6.831,4.173 C 6.947,3.225 4.181,-0.534 0,0"
         style="fill:#383736;fill-opacity:1;fill-rule:nonzero;stroke:none"
         id="path716"
         inkscape:connector-curvature="0" />
    </g>
    <g
       id="g718"
       transform="matrix(0.35277777,0,0,-0.35277777,-76.17829,170.46911)">
      <path
         d="m 0,0 c 0,0 -0.337,-2.428 -2.688,-2.632 -1.45,-0.127 -3.543,-0.185 -3.543,-0.185 -2.481,0.462 -5.588,0.417 -6.161,-1.431 0,0 -0.261,-0.722 -0.223,-1.116 0.13,-1.361 -0.352,-0.222 1.508,-1.883 0,0 3.534,-2.664 5.717,-3.691 2.747,-1.293 4.163,-1.339 5.051,-1.246 0,0 1.776,0.35 2.885,0.214 1.231,-0.151 0.915,-1.704 0.915,-2.925 l 3.788,-1.563 c 3.854,-1.021 6.876,2.316 6.876,3.253 v 9.743 z"
         style="fill:#545454;fill-opacity:1;fill-rule:nonzero;stroke:none"
         id="path720"
         inkscape:connector-curvature="0" />
    </g>
    <g
       id="g722"
       transform="matrix(0.35277777,0,0,-0.35277777,-75.756259,174.56412)">
      <path
         d="m 0,0 c -1.064,0.023 -2.297,0.202 -5.479,1.085 -2.658,0.737 -6.558,3.461 -6.558,3.461 -0.93,0.692 -1.688,1.54 -1.685,2.346 -0.059,-0.302 -0.078,-0.614 -0.089,-0.785 -0.086,-1.239 0.999,-1.919 1.895,-2.542 0,0 3.043,-2.287 5.33,-3.034 2.954,-0.968 3.411,-0.877 4.741,-0.924 0,0 1.687,-0.077 2.803,-0.127 C 1.46,-0.543 2.156,-0.837 2.156,-0.974 2.133,-0.906 1.968,-0.041 0,0"
         style="fill:#383736;fill-opacity:1;fill-rule:nonzero;stroke:none"
         id="path724"
         inkscape:connector-curvature="0" />
    </g>
    <g
       id="g726"
       transform="matrix(0.35277777,0,0,-0.35277777,-73.62118,175.89152)">
      <path
         d="M 0,0 -3.755,1.55 C -3.759,1.15 -3.788,0.729 -3.788,0.34 L 0,-1.224 C 3.854,-2.244 6.876,1.093 6.876,2.03 V 3.253 C 6.876,2.317 3.854,-1.02 0,0"
         style="fill:#383736;fill-opacity:1;fill-rule:nonzero;stroke:none"
         id="path728"
         inkscape:connector-curvature="0" />
    </g>
    <g
       id="g730"
       transform="matrix(0.35277777,0,0,-0.35277777,-71.682279,152.74735)">
      <path
         d="m 0,0 c -0.084,-1.693 -2.425,-2.694 -3.967,-2.615 -0.538,0.025 -1.019,-3.136 -1.866,-4.284 -0.894,-1.205 -2.142,-0.393 -2.333,-0.013 -0.149,0.298 1.499,4.868 1.872,6.033 1.239,3.887 2.831,3.951 4.376,3.874 C -0.378,2.919 0.082,1.695 0,0"
         style="fill:#ffe8d9;fill-opacity:1;fill-rule:nonzero;stroke:none"
         id="path732"
         inkscape:connector-curvature="0" />
    </g>
    <g
       id="g734"
       transform="matrix(0.35277777,0,0,-0.35277777,-71.77682,151.52039)">
      <path
         d="m 0,0 c 1.739,-0.016 5.1,3.302 5.1,3.302 0,0 0.074,0.428 0.199,1.177 0.71,4.229 3.913,18.662 4.082,23.989 0.183,5.847 -1.616,21.672 -1.616,21.672 0,0 -0.921,14.12 -10.428,12.382 -5.271,-0.963 -2.578,-7.907 -2.63,-12.597 -0.041,-3.691 1.854,-22.436 1.854,-22.436 L -4.621,4.463 c 0,0 1.229,-4.431 4.621,-4.463"
         style="fill:#282827;fill-opacity:1;fill-rule:nonzero;stroke:none"
         id="path736"
         inkscape:connector-curvature="0" />
    </g>
    <g
       id="g738"
       transform="matrix(0.35277777,0,0,-0.35277777,-70.948989,151.77792)">
      <path
         d="m 0,0 -4.447,0.27 -1.943,-5.184 -0.041,-0.865 0.338,-6.927 c 0,0 -0.102,-3.341 3.443,-3.557 2.317,-0.141 0.251,-0.016 0.251,-0.016 3.175,-0.192 3.629,3.206 3.629,3.206 l 1.262,8.857 C 2.647,-2.332 2.04,-0.123 0,0"
         style="fill:#ffe8d9;fill-opacity:1;fill-rule:nonzero;stroke:none"
         id="path740"
         inkscape:connector-curvature="0" />
    </g>
    <g
       id="g742"
       transform="matrix(0.35277777,0,0,-0.35277777,-73.727259,151.73813)">
      <path
         d="m 0,0 c -0.013,-0.777 1.689,-2.317 3.969,-2.55 2.963,-0.301 4.365,0.246 4.365,0.246 1.375,0.465 2.128,0.999 2.248,1.967 0,0 0.454,3.57 0.543,4.7 0.056,0.729 -0.297,0.733 -0.297,0.733 0,0 -0.065,-0.574 -0.188,-0.78 C 10.186,3.56 8.912,2.548 6,2.481 1.419,2.375 0.908,5.081 0.908,5.081 0.24,5.087 0.02,4.791 0.043,4.021 Z"
         style="fill:#e4eff4;fill-opacity:1;fill-rule:nonzero;stroke:none"
         id="path744"
         inkscape:connector-curvature="0" />
    </g>
    <g
       id="g746"
       transform="matrix(0.35277777,0,0,-0.35277777,-70.46823,151.81443)">
      <path
         d="m 0,0 c 0,0 2.079,9.759 -10.008,9.759 -9.576,0 -9.576,-10.164 -9.576,-10.164 l 4.843,-58.534 h 11.955 z"
         style="fill:#e8c5ac;fill-opacity:1;fill-rule:nonzero;stroke:none"
         id="path748"
         inkscape:connector-curvature="0" />
    </g>
    <g
       id="g750"
       transform="matrix(0.35277777,0,0,-0.35277777,-78.85513,119.52391)">
      <path
         d="m 0,0 -8.215,-1.004 3.437,-21.129 c 0.867,-6.073 3.515,-6.786 5.364,-6.65 3.844,0.281 7.668,1.451 9.71,2.898 3.956,2.801 3.543,11.272 3.53,11.851 l 0.169,14.318 z"
         style="fill:#ffe1cc;fill-opacity:1;fill-rule:nonzero;stroke:none"
         id="path752"
         inkscape:connector-curvature="0" />
    </g>
    <g
       id="g754"
       transform="matrix(0.35277777,0,0,-0.35277777,-73.127499,133.59833)">
      <path
         d="m 0,0 -0.035,11.426 -1.568,12.829 -11.998,-2.754 1.384,-12.365 c 0,-1.763 -1.243,-2.243 -2.176,-3.738 l -5.076,-8.109 c -1.218,-1.956 -3.762,-5.063 -3.762,-10.536 v -30.102 l 24.555,-3.415 v 39.96 C 1.324,-4.472 0.874,-2.16 0,0"
         style="fill:#ffe1cc;fill-opacity:1;fill-rule:nonzero;stroke:none"
         id="path756"
         inkscape:connector-curvature="0" />
    </g>
    <g
       id="g758"
       transform="matrix(0.35277777,0,0,-0.35277777,-78.48806,146.39598)">
      <path
         d="m 0,0 v -5.6 c 0,-4.162 0.993,-11.217 0.993,-11.217 l 19.134,-0.727 c 2.41,0.482 3.322,3.773 3.322,7.088 V 0 Z"
         style="fill:#14546d;fill-opacity:1;fill-rule:nonzero;stroke:none"
         id="path760"
         inkscape:connector-curvature="0" />
    </g>
    <g
       id="g762"
       transform="matrix(0.35277777,0,0,-0.35277777,-70.46823,151.81443)">
      <path
         d="m 0,0 c 0,0 -0.794,6.783 -9.23,6.783 -1.124,0 0,0.012 -3.322,0.002 -8.064,-0.024 -9.189,-8.243 -9.189,-8.243 l 5.025,-57.243 12.801,-0.238 z"
         style="fill:#ffe1cc;fill-opacity:1;fill-rule:nonzero;stroke:none"
         id="path764"
         inkscape:connector-curvature="0" />
    </g>
    <g
       id="g766"
       transform="matrix(0.35277777,0,0,-0.35277777,-81.164911,118.81765)">
      <path
         d="m 0,0 c -3.368,-1.678 -2.26,-6.845 -2.26,-6.845 0,0.138 3.413,-3.599 3.413,-3.784 0,-0.092 2.215,-7.23 2.215,-7.23 0.032,-0.817 1.214,-1.927 1.709,-0.692 0.553,1.384 -0.498,2.321 0.045,3.046 0.549,0.737 2.215,1.108 4.153,-3.322 l 1.107,-3.461 c 1.8,-3.876 5.122,-3.876 7.476,-3.184 0,0 3.139,1.046 4.246,2.292 0.543,0.61 2.042,7.456 2.676,9.505 C 27.133,-6.061 23.811,8.198 8.167,3.491 3.954,2.223 0,0 0,0"
         style="fill:#bf9243;fill-opacity:1;fill-rule:nonzero;stroke:none"
         id="path768"
         inkscape:connector-curvature="0" />
    </g>
    <g
       id="g770"
       transform="matrix(0.35277777,0,0,-0.35277777,-78.108759,150.10134)">
      <path
         d="m 0,0 0.519,-66.92 c 0,0 4.371,-4.061 11.628,-4.061 4.061,0 8.027,2.619 8.135,3.748 l 2.412,68.41 z"
         style="fill:#282827;fill-opacity:1;fill-rule:nonzero;stroke:none"
         id="path772"
         inkscape:connector-curvature="0" />
    </g>
    <g
       id="g774"
       transform="matrix(0.35277777,0,0,-0.35277777,-80.04163,152.51466)">
      <path
         d="m 0,0 1.177,-59.318 c -0.033,0.032 -0.139,-1.454 -0.762,-1.8 -0.616,-0.343 -0.588,-1.591 -0.277,-2.423 0.416,-1.107 4.292,-7.267 12.459,-6.852 2.488,0.126 5.417,1.076 5.538,2.146 l 4.077,68.225 z"
         style="fill:#383736;fill-opacity:1;fill-rule:nonzero;stroke:none"
         id="path776"
         inkscape:connector-curvature="0" />
    </g>
    <g
       id="g778"
       transform="matrix(0.35277777,0,0,-0.35277777,-73.774641,128.29234)">
      <path
         d="M 0,0 C 1.437,0.341 1.8,0.093 2.077,-0.784 2.349,-1.648 2.343,-1.702 2.678,-2.537 2.955,-3.229 2.63,-3.276 2.63,-3.276 c 0,0 -7.198,-1.983 -12.549,-5.629 -3.805,-2.591 -4.097,-2.839 -4.097,-2.839 l 0.889,2.92 c 0.692,2.492 3.575,4.949 7.867,6.841 0,0 3.508,1.568 5.26,1.983"
         style="fill:#e4eff4;fill-opacity:1;fill-rule:nonzero;stroke:none"
         id="path780"
         inkscape:connector-curvature="0" />
    </g>
    <g
       id="g782"
       transform="matrix(0.35277777,0,0,-0.35277777,-79.409451,124.0287)">
      <path
         d="m 0,0 c 0,0 1.967,-0.208 2.618,-2.188 0.461,-1.397 0.009,-2.593 -0.253,-2.949 -0.696,-0.952 -1.46,-1.178 -1.46,-1.178 0,0 -0.099,3.387 -0.155,4.008 C 0.691,-1.684 0,0 0,0"
         style="fill:#efcfbd;fill-opacity:1;fill-rule:nonzero;stroke:none"
         id="path784"
         inkscape:connector-curvature="0" />
    </g>
    <g
       id="g786"
       transform="matrix(0.35277777,0,0,-0.35277777,-79.629579,123.94291)">
      <path
         d="m 0,0 c 0,0 -0.995,0.013 -0.24,-1.382 0.755,-1.393 0.954,-2.243 1.01,-3.043 0.05,-0.731 -0.045,-2.931 -0.045,-2.931 0,0 0.653,-0.88 1.209,0.478 C 2.2,-6.231 2.34,-5.011 2.25,-3.454 2.213,-2.821 1.064,0.359 0,0"
         style="fill:#ffe8d9;fill-opacity:1;fill-rule:nonzero;stroke:none"
         id="path788"
         inkscape:connector-curvature="0" />
    </g>
    <g
       id="g790"
       transform="matrix(0.35277777,0,0,-0.35277777,-83.295331,163.5596)">
      <path
         d="M 0,0 C 0,-0.288 0.121,-0.614 0.309,-0.88 Z"
         style="fill:#6d320a;fill-opacity:1;fill-rule:nonzero;stroke:none"
         id="path792"
         inkscape:connector-curvature="0" />
    </g>
    <g
       id="g794"
       transform="matrix(0.35277777,0,0,-0.35277777,-83.29156,162.35247)">
      <path
         d="m 0,0 c -6.284,8.367 -7.248,17.189 -7.298,17.655 l -0.004,-1.599 0.192,-0.982 c 0.5,-2.824 2.172,-9.9 7.106,-16.424 z"
         style="fill:#6d320a;fill-opacity:1;fill-rule:nonzero;stroke:none"
         id="path796"
         inkscape:connector-curvature="0" />
    </g>
    <g
       id="g798"
       transform="matrix(0.35277777,0,0,-0.35277777,-77.678441,166.80181)">
      <path
         d="M 0,0 C -0.002,-0.288 0.119,-0.614 0.307,-0.88 Z"
         style="fill:#6d320a;fill-opacity:1;fill-rule:nonzero;stroke:none"
         id="path800"
         inkscape:connector-curvature="0" />
    </g>
    <g
       id="g802"
       transform="matrix(0.35277777,0,0,-0.35277777,-74.14174,171.82233)">
      <path
         d="M 0,0 8.267,4.802 C 8.609,5 8.819,5.422 8.821,6.02 L 0.554,1.215 C 0.552,0.619 0.342,0.197 0,0"
         style="fill:#723919;fill-opacity:1;fill-rule:nonzero;stroke:none"
         id="path804"
         inkscape:connector-curvature="0" />
    </g>
    <g
       id="g806"
       transform="matrix(0.35277777,0,0,-0.35277777,-73.92263,163.0201)">
      <path
         d="m 0,0 -0.004,-1.596 -0.173,-0.772 c -1.041,-4.309 -3.656,-7.002 -7.19,-7.707 0,0 -7.365,1.06 -9.634,2.37 -2.393,1.383 -6.12,4.77 -6.537,5.015 l -3.024,3.233 c -4.934,6.524 -6.606,13.599 -7.105,16.424 l -0.193,0.982 -0.063,-22.138 c -0.004,-1.201 0.842,-2.667 1.891,-3.273 l 30.066,-17.36 c 1.047,-0.603 1.897,-0.114 1.899,1.086 z"
         style="fill:#8c532c;fill-opacity:1;fill-rule:nonzero;stroke:none"
         id="path808"
         inkscape:connector-curvature="0" />
    </g>
    <g
       id="g810"
       transform="matrix(0.35277777,0,0,-0.35277777,-73.92263,163.11246)">
      <path
         d="M 0,0 8.267,4.804 V 5.066 L 0,0.262 Z"
         style="fill:#5c361d;fill-opacity:1;fill-rule:nonzero;stroke:none"
         id="path812"
         inkscape:connector-curvature="0" />
    </g>
    <g
       id="g814"
       transform="matrix(0.35277777,0,0,-0.35277777,-73.92263,163.11246)">
      <path
         d="m 0,0 c -0.9,-4.778 -3.617,-7.763 -7.372,-8.507 0.007,-0.048 0.009,-0.093 0.009,-0.139 l -0.004,-1.167 c 3.534,0.705 6.149,3.397 7.19,7.707 l 0.173,0.772 z"
         style="fill:#6d320a;fill-opacity:1;fill-rule:nonzero;stroke:none"
         id="path816"
         inkscape:connector-curvature="0" />
    </g>
    <g
       id="g818"
       transform="matrix(0.35277777,0,0,-0.35277777,-85.866059,156.12425)">
      <path
         d="m 0,0 c 0.05,-0.465 1.014,-9.288 7.298,-17.655 v 0.281 c 0.002,0.481 0.344,0.673 0.761,0.433 l 1.761,-1.017 c 0.42,-0.242 0.757,-0.828 0.755,-1.306 l -0.007,-2.131 c 1.77,-1.734 3.827,-3.348 6.219,-4.728 2.269,-1.311 4.439,-2.061 6.426,-2.295 l 0.005,1.854 c 0.002,0.476 0.342,0.675 0.757,0.435 l 1.763,-1.019 c 0.378,-0.219 0.692,-0.72 0.746,-1.168 3.755,0.744 6.472,3.729 7.371,8.507 v 0.262 l -10.585,6.11 -1.545,0.894 -9.528,5.5 -1.547,0.894 z"
         style="fill:#a5683d;fill-opacity:1;fill-rule:nonzero;stroke:none"
         id="path820"
         inkscape:connector-curvature="0" />
    </g>
    <g
       id="g822"
       transform="matrix(0.35277777,0,0,-0.35277777,-82.950489,154.42943)">
      <path
         d="m 0,0 -8.265,-4.804 33.856,-19.548 -0.005,-1.596 -0.062,-22.139 c -0.003,-0.597 -0.212,-1.019 -0.554,-1.216 l 8.267,4.802 c 0.342,0.199 0.552,0.621 0.554,1.218 l 0.067,23.736 z"
         style="fill:#6d3b18;fill-opacity:1;fill-rule:nonzero;stroke:none"
         id="path824"
         inkscape:connector-curvature="0" />
    </g>
    <g
       id="g826"
       transform="matrix(0.35277777,0,0,-0.35277777,-77.69449,166.11657)">
      <path
         d="m 0,0 c -1.988,0.236 -4.155,0.984 -6.426,2.295 -2.392,1.382 -4.449,2.994 -6.217,4.728 l -0.792,-0.203 0.178,-0.586 c 1.767,-1.724 4.434,-3.865 6.828,-5.248 2.269,-1.311 4.437,-2.059 6.427,-2.295 z"
         style="fill:#6d320a;fill-opacity:1;fill-rule:nonzero;stroke:none"
         id="path828"
         inkscape:connector-curvature="0" />
    </g>
    <g
       id="g830"
       transform="matrix(0.35277777,0,0,-0.35277777,-76.761181,166.84763)">
      <path
         d="m 0,0 -0.004,-1.787 c -0.003,-0.21 -0.076,-0.359 -0.197,-0.428 l 0.331,0.193 c 0.121,0.069 0.194,0.218 0.194,0.428 l 0.007,1.786 z"
         style="fill:#75460d;fill-opacity:1;fill-rule:nonzero;stroke:none"
         id="path832"
         inkscape:connector-curvature="0" />
    </g>
    <g
       id="g834"
       transform="matrix(0.35277777,0,0,-0.35277777,-76.761181,166.84763)">
      <path
         d="M 0,0 0.331,0.192 -2.36,1.746 -2.689,1.553 Z"
         style="fill:#eb921a;fill-opacity:1;fill-rule:nonzero;stroke:none"
         id="path836"
         inkscape:connector-curvature="0" />
    </g>
    <g
       id="g838"
       transform="matrix(0.35277777,0,0,-0.35277777,-77.709799,166.29966)">
      <path
         d="m 0,0 -0.006,-1.787 c 0,-0.424 0.294,-0.939 0.664,-1.151 l 1.358,-0.785 c 0.366,-0.212 0.666,-0.039 0.669,0.383 l 0.004,1.787 z"
         style="fill:#d87a13;fill-opacity:1;fill-rule:nonzero;stroke:none"
         id="path840"
         inkscape:connector-curvature="0" />
    </g>
    <g
       id="g842"
       transform="matrix(0.35277777,0,0,-0.35277777,-76.707809,165.65958)">
      <path
         d="m 0,0 -1.759,1.015 c -0.212,0.121 -0.402,0.131 -0.54,0.054 L -2.961,0.682 c 0.138,0.082 0.329,0.069 0.541,-0.052 l 1.758,-1.015 c 0.383,-0.22 0.755,-0.803 0.755,-1.308 l -0.007,-2.165 0.662,0.384 0.007,2.165 C 0.755,-0.811 0.389,-0.227 0,0"
         style="fill:#89550f;fill-opacity:1;fill-rule:nonzero;stroke:none"
         id="path844"
         inkscape:connector-curvature="0" />
    </g>
    <g
       id="g846"
       transform="matrix(0.35277777,0,0,-0.35277777,-77.56167,165.43737)">
      <path
         d="m 0,0 c -0.42,0.242 -0.759,0.049 -0.761,-0.433 l -0.007,-2.165 3.275,-1.89 0.006,2.165 c 0.003,0.482 -0.335,1.066 -0.755,1.308 z"
         style="fill:#f99b1c;fill-opacity:1;fill-rule:nonzero;stroke:none"
         id="path848"
         inkscape:connector-curvature="0" />
    </g>
    <g
       id="g850"
       transform="matrix(0.35277777,0,0,-0.35277777,-82.443729,163.64127)">
      <path
         d="m 0,0 -0.004,-1.784 c 0,-0.212 -0.076,-0.362 -0.195,-0.431 l 0.328,0.193 c 0.121,0.069 0.198,0.218 0.198,0.428 l 0.004,1.787 z"
         style="fill:#75460d;fill-opacity:1;fill-rule:nonzero;stroke:none"
         id="path852"
         inkscape:connector-curvature="0" />
    </g>
    <g
       id="g854"
       transform="matrix(0.35277777,0,0,-0.35277777,-82.443729,163.64127)">
      <path
         d="M 0,0 0.331,0.193 -2.36,1.746 -2.689,1.553 Z"
         style="fill:#eb921a;fill-opacity:1;fill-rule:nonzero;stroke:none"
         id="path856"
         inkscape:connector-curvature="0" />
    </g>
    <g
       id="g858"
       transform="matrix(0.35277777,0,0,-0.35277777,-83.392308,163.09334)">
      <path
         d="m 0,0 -0.006,-1.787 c 0,-0.421 0.294,-0.939 0.664,-1.151 l 1.358,-0.785 c 0.366,-0.209 0.666,-0.041 0.669,0.386 l 0.004,1.784 z"
         style="fill:#d87a13;fill-opacity:1;fill-rule:nonzero;stroke:none"
         id="path860"
         inkscape:connector-curvature="0" />
    </g>
    <g
       id="g862"
       transform="matrix(0.35277777,0,0,-0.35277777,-82.390321,162.45393)">
      <path
         d="M 0,0 -1.759,1.017 C -1.971,1.14 -2.161,1.151 -2.299,1.069 L -2.961,0.686 c 0.138,0.08 0.329,0.069 0.541,-0.052 l 1.758,-1.017 c 0.08,-0.047 0.156,-0.108 0.229,-0.177 0.013,-0.013 0.028,-0.024 0.041,-0.039 0.273,-0.279 0.487,-0.71 0.485,-1.092 l -0.007,-2.165 0.662,0.384 0.007,2.166 C 0.755,-0.813 0.394,-0.225 0,0"
         style="fill:#89550f;fill-opacity:1;fill-rule:nonzero;stroke:none"
         id="path864"
         inkscape:connector-curvature="0" />
    </g>
    <g
       id="g866"
       transform="matrix(0.35277777,0,0,-0.35277777,-83.244179,162.23034)">
      <path
         d="M 0,0 C -0.42,0.24 -0.759,0.048 -0.759,-0.435 L -0.766,-2.6 2.507,-4.49 2.513,-2.325 c 0.003,0.482 -0.335,1.066 -0.755,1.308 z"
         style="fill:#f99b1c;fill-opacity:1;fill-rule:nonzero;stroke:none"
         id="path868"
         inkscape:connector-curvature="0" />
    </g>
    <g
       id="g870"
       transform="matrix(0.35277777,0,0,-0.35277777,-216.39281,833.35885)">
      <g
         id="g872"
         clip-path="url(#clipPath876)">
        <g
           id="g878"
           transform="translate(399.0679,1910.1943)">
          <path
             d="m 0,0 0.002,-0.766 c 0.186,0.108 0.279,0.249 0.279,0.388 L 0.279,0.387 C 0.279,0.249 0.186,0.106 0,0"
             style="fill:#f99b1c;fill-opacity:1;fill-rule:nonzero;stroke:none"
             id="path880"
             inkscape:connector-curvature="0" />
        </g>
      </g>
    </g>
    <g
       id="g882"
       transform="matrix(0.35277777,0,0,-0.35277777,-216.39281,833.35885)">
      <g
         id="g884"
         clip-path="url(#clipPath888)">
        <g
           id="g890"
           transform="translate(393.6475,1909.4243)">
          <path
             d="m 0,0 0.002,-0.766 c 0,-0.138 0.091,-0.276 0.272,-0.38 L 0.272,-0.383 C 0.091,-0.277 0,-0.139 0,0"
             style="fill:#ea921a;fill-opacity:1;fill-rule:nonzero;stroke:none"
             id="path892"
             inkscape:connector-curvature="0" />
        </g>
      </g>
    </g>
    <g
       id="g894"
       transform="matrix(0.35277777,0,0,-0.35277777,-216.39281,833.35885)">
      <g
         id="g896"
         clip-path="url(#clipPath900)">
        <g
           id="g902"
           transform="translate(393.9199,1909.0415)">
          <path
             d="M 0,0 0.002,-0.764 0.913,-1.293 0.911,-0.528 Z"
             style="fill:#ea921a;fill-opacity:1;fill-rule:nonzero;stroke:none"
             id="path904"
             inkscape:connector-curvature="0" />
        </g>
        <g
           id="g906"
           transform="translate(396.1563,1908.5137)">
          <path
             d="M 0,0 0.002,-0.766 2.914,0.915 2.912,1.681 Z"
             style="fill:#ffc585;fill-opacity:1;fill-rule:nonzero;stroke:none"
             id="path908"
             inkscape:connector-curvature="0" />
        </g>
      </g>
    </g>
    <g
       id="g910"
       transform="matrix(0.35277777,0,0,-0.35277777,-216.39281,833.35885)">
      <g
         id="g912"
         clip-path="url(#clipPath916)">
        <g
           id="g918"
           transform="translate(394.8306,1908.5137)">
          <path
             d="m 0,0 0.002,-0.766 c 0.363,-0.212 0.958,-0.212 1.326,0 L 1.326,0 C 0.958,-0.214 0.363,-0.212 0,0"
             style="fill:#f99b1c;fill-opacity:1;fill-rule:nonzero;stroke:none"
             id="path920"
             inkscape:connector-curvature="0" />
        </g>
      </g>
    </g>
    <g
       id="g922"
       transform="matrix(0.35277777,0,0,-0.35277777,-216.39281,833.35885)">
      <g
         id="g924"
         clip-path="url(#clipPath928)">
        <g
           id="g930"
           transform="translate(393.9243,1909.8091)">
          <path
             d="m 0,0 c -0.368,-0.212 -0.37,-0.554 -0.004,-0.768 l 0.91,-0.527 c 0.364,-0.212 0.958,-0.215 1.326,0 l 2.912,1.68 c 0.367,0.212 0.37,0.558 0.008,0.768 l -0.91,0.53 C 3.874,1.895 3.281,1.893 2.914,1.681 Z"
             style="fill:#ffb255;fill-opacity:1;fill-rule:nonzero;stroke:none"
             id="path932"
             inkscape:connector-curvature="0" />
        </g>
      </g>
    </g>
    <g
       id="g934"
       transform="matrix(0.35277777,0,0,-0.35277777,-216.39281,833.35885)">
      <g
         id="g936"
         clip-path="url(#clipPath940)">
        <g
           id="g942"
           transform="translate(388.043,1916.6445)">
          <path
             d="m 0,0 0.002,-0.766 c 0.186,0.108 0.279,0.249 0.279,0.39 L 0.279,0.387 C 0.279,0.249 0.186,0.108 0,0"
             style="fill:#f99b1c;fill-opacity:1;fill-rule:nonzero;stroke:none"
             id="path944"
             inkscape:connector-curvature="0" />
        </g>
      </g>
    </g>
    <g
       id="g946"
       transform="matrix(0.35277777,0,0,-0.35277777,-216.39281,833.35885)">
      <g
         id="g948"
         clip-path="url(#clipPath952)">
        <g
           id="g954"
           transform="translate(382.6226,1915.8745)">
          <path
             d="m 0,0 0.002,-0.766 c 0,-0.138 0.091,-0.277 0.272,-0.38 L 0.272,-0.381 C 0.091,-0.277 0,-0.139 0,0"
             style="fill:#ea921a;fill-opacity:1;fill-rule:nonzero;stroke:none"
             id="path956"
             inkscape:connector-curvature="0" />
        </g>
      </g>
    </g>
    <g
       id="g958"
       transform="matrix(0.35277777,0,0,-0.35277777,-216.39281,833.35885)">
      <g
         id="g960"
         clip-path="url(#clipPath964)">
        <g
           id="g966"
           transform="translate(382.895,1915.4937)">
          <path
             d="M 0,0 0.002,-0.766 0.913,-1.296 0.911,-0.53 Z"
             style="fill:#ea921a;fill-opacity:1;fill-rule:nonzero;stroke:none"
             id="path968"
             inkscape:connector-curvature="0" />
        </g>
        <g
           id="g970"
           transform="translate(385.1313,1914.9639)">
          <path
             d="M 0,0 0.002,-0.766 2.914,0.915 2.912,1.681 Z"
             style="fill:#ffc585;fill-opacity:1;fill-rule:nonzero;stroke:none"
             id="path972"
             inkscape:connector-curvature="0" />
        </g>
      </g>
    </g>
    <g
       id="g974"
       transform="matrix(0.35277777,0,0,-0.35277777,-216.39281,833.35885)">
      <g
         id="g976"
         clip-path="url(#clipPath980)">
        <g
           id="g982"
           transform="translate(383.8057,1914.9639)">
          <path
             d="m 0,0 0.002,-0.766 c 0.364,-0.21 0.958,-0.212 1.326,0 L 1.326,0 C 0.958,-0.214 0.363,-0.21 0,0"
             style="fill:#f99b1c;fill-opacity:1;fill-rule:nonzero;stroke:none"
             id="path984"
             inkscape:connector-curvature="0" />
        </g>
      </g>
    </g>
    <g
       id="g986"
       transform="matrix(0.35277777,0,0,-0.35277777,-216.39281,833.35885)">
      <g
         id="g988"
         clip-path="url(#clipPath992)">
        <g
           id="g994"
           transform="translate(382.8994,1916.2612)">
          <path
             d="m 0,0 c -0.368,-0.214 -0.37,-0.556 -0.004,-0.768 l 0.91,-0.529 c 0.364,-0.21 0.958,-0.215 1.326,0 l 2.912,1.68 c 0.367,0.214 0.369,0.558 0.008,0.768 l -0.913,0.53 c -0.365,0.212 -0.958,0.212 -1.328,0 z"
             style="fill:#ffb255;fill-opacity:1;fill-rule:nonzero;stroke:none"
             id="path996"
             inkscape:connector-curvature="0" />
        </g>
        <g
           id="g998"
           transform="translate(388.2183,1918.271)">
          <path
             d="m 0,0 -1.324,-0.768 c -0.629,-0.368 -1.09,-1.029 -1.302,-1.942 l 1.324,0.768 C -1.092,-1.027 -0.632,-0.366 0,0"
             style="fill:#8c532c;fill-opacity:1;fill-rule:nonzero;stroke:none"
             id="path1000"
             inkscape:connector-curvature="0" />
        </g>
      </g>
    </g>
    <g
       id="g1002"
       transform="matrix(0.35277777,0,0,-0.35277777,-216.39281,833.35885)">
      <g
         id="g1004"
         clip-path="url(#clipPath1008)">
        <g
           id="g1010"
           transform="translate(385.5923,1915.5605)">
          <path
             d="m 0,0 1.324,0.768 c 0.21,0.915 0.67,1.577 1.302,1.942 L 1.302,1.942 C 0.673,1.575 0.212,0.913 0,0"
             style="fill:#8c532c;fill-opacity:1;fill-rule:nonzero;stroke:none"
             id="path1012"
             inkscape:connector-curvature="0" />
        </g>
      </g>
    </g>
    <g
       id="g1022"
       transform="matrix(0.35277777,0,0,-0.35277777,-79.815779,155.98317)">
      <path
         d="M 0,0 C 3.679,2.139 9.965,-3.831 10.841,-10.183 L 9.52,-10.953 C 8.644,-4.611 2.362,1.374 -1.324,-0.77 Z"
         style="fill:#8c532c;fill-opacity:1;fill-rule:nonzero;stroke:none"
         id="path1024"
         inkscape:connector-curvature="0" />
    </g>
    <g
       id="g1026"
       transform="matrix(0.35277777,0,0,-0.35277777,-78.678029,156.41035)">
      <path
         d="m 0,0 c -3.156,1.823 -5.788,0.699 -6.325,-2.455 l 1.545,-0.894 c 0.51,2.203 2.457,2.944 4.776,1.605 2.317,-1.339 4.256,-4.323 4.752,-7.105 L 6.294,-9.742 C 5.777,-5.979 3.158,-1.824 0,0"
         style="fill:#a5683d;fill-opacity:1;fill-rule:nonzero;stroke:none"
         id="path1028"
         inkscape:connector-curvature="0" />
    </g>
    <g
       id="g1030"
       transform="matrix(0.35277777,0,0,-0.35277777,-78.325609,154.57982)">
      <path
         d="m 0,0 c 0.455,-1.633 -1.456,-3.32 -2.943,-3.731 -0.52,-0.145 1.544,-2.622 -0.63,-3.074 0,0 -0.969,-0.831 -2.122,0.784 -0.091,0.127 -1.722,2.115 -0.969,3.461 1.001,1.793 2.077,4.015 3.045,4.706 C -2.362,3.044 -0.456,1.633 0,0"
         style="fill:#d8bbab;fill-opacity:1;fill-rule:nonzero;stroke:none"
         id="path1032"
         inkscape:connector-curvature="0" />
    </g>
    <g
       id="g1034"
       transform="matrix(0.35277777,0,0,-0.35277777,-77.792839,155.02767)">
      <path
         d="m 0,0 c 0,0 2.208,-2.482 8.022,-0.433 5.814,2.049 11.812,7.086 11.812,7.086 l -0.737,3.5 c 0,0 -15.044,-6.831 -17.812,-5.891 C -1.484,5.202 0,0 0,0"
         style="fill:#282827;fill-opacity:1;fill-rule:nonzero;stroke:none"
         id="path1036"
         inkscape:connector-curvature="0" />
    </g>
    <g
       id="g1038"
       transform="matrix(0.35277777,0,0,-0.35277777,-80.269839,133.7344)">
      <path
         d="m 0,0 c -3.322,-2.585 -4.319,-4.956 -4.319,-13.532 l 0.813,-39.057 c 0,-1.491 -0.087,-5.467 7.566,-6.645 2.401,-0.369 5.845,-1.438 11.261,0.37 2.215,0.737 13.843,6.091 13.843,9.228 l 0.37,42.714 c -0.173,5.05 -0.485,11.265 -1.294,13.935 -1.844,6.091 -7.198,5.353 -7.198,5.353 0,0 -8.983,-3.021 -13.75,-6.645 C 4.984,3.968 4.713,3.774 0,0"
         style="fill:#383736;fill-opacity:1;fill-rule:nonzero;stroke:none"
         id="path1040"
         inkscape:connector-curvature="0" />
    </g>
    <g
       id="g1042"
       transform="matrix(0.35277777,0,0,-0.35277777,-79.129699,153.85497)">
      <path
         d="m 0,0 3.79,-1.932 2.115,0.64 c 0,0 1.062,-2.769 -0.046,-5.953 -0.655,-1.883 -0.75,-2.38 -0.969,-3.184 -0.277,-1.015 -0.46,-1.661 -0.46,-1.661 0,0 -0.048,-0.646 -1.201,-0.462 -1.326,0.213 -3.783,1.754 -3.783,1.754 -0.463,0.091 -0.937,-0.061 -1.523,0.139 -2.169,0.737 -1.615,3.968 -1.615,3.968 l 1.2,5.537 C -2.401,-0.462 -2.042,-0.02 0,0"
         style="fill:#ffe8d9;fill-opacity:1;fill-rule:nonzero;stroke:none"
         id="path1044"
         inkscape:connector-curvature="0" />
    </g>
    <g
       id="g1046"
       transform="matrix(0.35277777,0,0,-0.35277777,-78.349919,155.51034)">
      <path
         d="m 0,0 c 1.724,-0.205 2.907,0.325 2.907,0.325 0,0 1.592,0.589 1.798,1.977 0.611,4.161 1.838,22.47 1.719,27.692 -0.126,5.734 -2.79,20.712 -2.79,20.712 0,0 -1.015,10.882 -7.441,10.625 -5.351,-0.214 -6.059,-5.09 -5.858,-9.686 0.156,-3.613 3.829,-23.326 3.829,-23.326 L -5.557,2.732 c 0,0 1.542,-2.253 5.557,-2.732"
         style="fill:#424241;fill-opacity:1;fill-rule:nonzero;stroke:none"
         id="path1048"
         inkscape:connector-curvature="0" />
    </g>
  </g>
</svg>
