<?xml version="1.0" encoding="UTF-8" standalone="no"?>
<!-- Created with Inkscape (http://www.inkscape.org/) -->

<svg
   xmlns:dc="http://purl.org/dc/elements/1.1/"
   xmlns:cc="http://creativecommons.org/ns#"
   xmlns:rdf="http://www.w3.org/1999/02/22-rdf-syntax-ns#"
   xmlns:svg="http://www.w3.org/2000/svg"
   xmlns="http://www.w3.org/2000/svg"
   xmlns:sodipodi="http://sodipodi.sourceforge.net/DTD/sodipodi-0.dtd"
   xmlns:inkscape="http://www.inkscape.org/namespaces/inkscape"
   width="22.475885mm"
   height="50.280113mm"
   viewBox="0 0 22.475883 50.280112"
   version="1.1"
   id="svg45331"
   inkscape:version="0.92.3 (2405546, 2018-03-11)"
   sodipodi:docname="people-casual-39.svg">
  <defs
     id="defs45325">
    <clipPath
       id="clipPath2864"
       clipPathUnits="userSpaceOnUse">
      <path
         inkscape:connector-curvature="0"
         id="path2862"
         d="m 1713.778,1928.833 c -0.536,-0.312 -0.927,-0.874 -1.106,-1.65 v 0 l 1.125,0.653 c 0.179,0.778 0.57,1.34 1.107,1.651 v 0 z" />
    </clipPath>
    <clipPath
       id="clipPath2848"
       clipPathUnits="userSpaceOnUse">
      <path
         inkscape:connector-curvature="0"
         id="path2846"
         d="M 0,2119.953 H 3253.108 V 0 H 0 Z" />
    </clipPath>
    <clipPath
       id="clipPath2836"
       clipPathUnits="userSpaceOnUse">
      <path
         inkscape:connector-curvature="0"
         id="path2834"
         d="m 1711.152,1926.674 v -0.651 c 0.308,-0.179 0.813,-0.18 1.126,0 v 0 0.651 c -0.315,-0.183 -0.82,-0.178 -1.129,0" />
    </clipPath>
    <clipPath
       id="clipPath2820"
       clipPathUnits="userSpaceOnUse">
      <path
         inkscape:connector-curvature="0"
         id="path2818"
         d="M 0,2119.953 H 3253.108 V 0 H 0 Z" />
    </clipPath>
    <clipPath
       id="clipPath2808"
       clipPathUnits="userSpaceOnUse">
      <path
         inkscape:connector-curvature="0"
         id="path2806"
         d="m 1710.148,1926.8 c 0,-0.121 0.077,-0.238 0.231,-0.325 v 0 0.65 c -0.156,0.087 -0.233,0.207 -0.233,0.324 v 0 -0.649 z" />
    </clipPath>
    <clipPath
       id="clipPath2796"
       clipPathUnits="userSpaceOnUse">
      <path
         inkscape:connector-curvature="0"
         id="path2794"
         d="m 1714.756,1928.103 v -0.65 c 0.158,0.09 0.237,0.211 0.237,0.331 v 0 0.65 c 0,-0.119 -0.078,-0.24 -0.236,-0.331" />
    </clipPath>
    <clipPath
       id="clipPath2784"
       clipPathUnits="userSpaceOnUse">
      <path
         inkscape:connector-curvature="0"
         id="path2782"
         d="M 0,2119.953 H 3253.108 V 0 H 0 Z" />
    </clipPath>
    <clipPath
       id="clipPath2772"
       clipPathUnits="userSpaceOnUse">
      <path
         inkscape:connector-curvature="0"
         id="path2770"
         d="m 1720.53,1921.188 10e-4,-0.65 c 0.309,-0.181 0.814,-0.181 1.128,0 v 0 0.65 c -0.316,-0.182 -0.821,-0.181 -1.129,0" />
    </clipPath>
    <clipPath
       id="clipPath2756"
       clipPathUnits="userSpaceOnUse">
      <path
         inkscape:connector-curvature="0"
         id="path2754"
         d="M 0,2119.953 H 3253.108 V 0 H 0 Z" />
    </clipPath>
    <clipPath
       id="clipPath2744"
       clipPathUnits="userSpaceOnUse">
      <path
         inkscape:connector-curvature="0"
         id="path2742"
         d="m 1719.524,1921.312 c 0,-0.119 0.08,-0.235 0.234,-0.324 v 0 0.65 c -0.154,0.089 -0.233,0.207 -0.233,0.324 v 0 -0.65 z" />
    </clipPath>
    <clipPath
       id="clipPath2732"
       clipPathUnits="userSpaceOnUse">
      <path
         inkscape:connector-curvature="0"
         id="path2730"
         d="m 1724.133,1922.619 v -0.654 c 0.158,0.094 0.238,0.212 0.238,0.331 v 0 0.65 c 0,-0.117 -0.08,-0.238 -0.238,-0.327" />
    </clipPath>
    <clipPath
       id="clipPath2536"
       clipPathUnits="userSpaceOnUse">
      <path
         inkscape:connector-curvature="0"
         id="path2534"
         d="m 1708.77,1889.11 h 53.56 v -38.31 h -53.56 z" />
    </clipPath>
    <clipPath
       id="clipPath3428"
       clipPathUnits="userSpaceOnUse">
      <path
         inkscape:connector-curvature="0"
         id="path3426"
         d="m 1819.231,1919.634 0.051,-0.722 c 0.167,0.114 0.248,0.253 0.238,0.383 v 0 l -0.048,0.721 c 0.01,-0.131 -0.071,-0.272 -0.241,-0.382" />
    </clipPath>
    <clipPath
       id="clipPath3440"
       clipPathUnits="userSpaceOnUse">
      <path
         inkscape:connector-curvature="0"
         id="path3438"
         d="m 1814.225,1917.859 c 0.01,-0.132 0.103,-0.255 0.282,-0.343 v 0 l -0.049,0.721 c -0.177,0.085 -0.273,0.212 -0.281,0.34 v 0 z" />
    </clipPath>
    <clipPath
       id="clipPath3452"
       clipPathUnits="userSpaceOnUse">
      <path
         inkscape:connector-curvature="0"
         id="path3450"
         d="M 0,2119.953 H 3253.108 V 0 H 0 Z" />
    </clipPath>
    <clipPath
       id="clipPath3468"
       clipPathUnits="userSpaceOnUse">
      <path
         inkscape:connector-curvature="0"
         id="path3466"
         d="m 1815.349,1917.792 0.046,-0.72 c 0.354,-0.177 0.915,-0.14 1.248,0.082 v 0 l -0.048,0.721 c -0.335,-0.223 -0.893,-0.259 -1.246,-0.083" />
    </clipPath>
    <clipPath
       id="clipPath3480"
       clipPathUnits="userSpaceOnUse">
      <path
         inkscape:connector-curvature="0"
         id="path3478"
         d="M 0,2119.953 H 3253.108 V 0 H 0 Z" />
    </clipPath>
    <clipPath
       id="clipPath3492"
       clipPathUnits="userSpaceOnUse">
      <path
         inkscape:connector-curvature="0"
         id="path3490"
         d="m 1808.461,1925.033 0.049,-0.719 c 0.167,0.112 0.245,0.25 0.238,0.383 v 0 l -0.049,0.719 c 0.01,-0.131 -0.07,-0.268 -0.238,-0.383" />
    </clipPath>
    <clipPath
       id="clipPath3504"
       clipPathUnits="userSpaceOnUse">
      <path
         inkscape:connector-curvature="0"
         id="path3502"
         d="m 1803.454,1923.259 c 0.01,-0.132 0.102,-0.258 0.279,-0.342 v 0 l -0.048,0.72 c -0.177,0.086 -0.273,0.214 -0.28,0.342 v 0 z" />
    </clipPath>
    <clipPath
       id="clipPath3516"
       clipPathUnits="userSpaceOnUse">
      <path
         inkscape:connector-curvature="0"
         id="path3514"
         d="M 0,2119.953 H 3253.108 V 0 H 0 Z" />
    </clipPath>
    <clipPath
       id="clipPath3532"
       clipPathUnits="userSpaceOnUse">
      <path
         inkscape:connector-curvature="0"
         id="path3530"
         d="m 1804.576,1923.193 0.047,-0.721 c 0.353,-0.175 0.915,-0.14 1.248,0.081 v 0 l -0.049,0.722 c -0.333,-0.223 -0.894,-0.258 -1.246,-0.082" />
    </clipPath>
    <clipPath
       id="clipPath3544"
       clipPathUnits="userSpaceOnUse">
      <path
         inkscape:connector-curvature="0"
         id="path3542"
         d="M 0,2119.953 H 3253.108 V 0 H 0 Z" />
    </clipPath>
    <clipPath
       id="clipPath3560"
       clipPathUnits="userSpaceOnUse">
      <path
         inkscape:connector-curvature="0"
         id="path3558"
         d="m 1807.327,1925.772 c -0.572,-0.383 -0.964,-1.034 -1.106,-1.907 v 0 l 1.197,0.803 c 0.144,0.873 0.537,1.525 1.109,1.907 v 0 z" />
    </clipPath>
    <clipPath
       id="clipPath3240"
       clipPathUnits="userSpaceOnUse">
      <path
         inkscape:connector-curvature="0"
         id="path3238"
         d="m 1804.45,1875.26 h 66.26 v -26.97 h -66.26 z" />
    </clipPath>
    <clipPath
       id="clipPath3596"
       clipPathUnits="userSpaceOnUse">
      <path
         inkscape:connector-curvature="0"
         id="path3594"
         d="m 1887.55,1874.88 h 68.5 v -28.2 h -68.5 z" />
    </clipPath>
    <clipPath
       id="clipPath3760"
       clipPathUnits="userSpaceOnUse">
      <path
         inkscape:connector-curvature="0"
         id="path3758"
         d="m 1940.709,1921.043 c -0.01,-0.134 0.073,-0.277 0.243,-0.394 v 0 l 0.052,0.743 c -0.176,0.111 -0.256,0.256 -0.246,0.388 v 0 z" />
    </clipPath>
    <clipPath
       id="clipPath3772"
       clipPathUnits="userSpaceOnUse">
      <path
         inkscape:connector-curvature="0"
         id="path3770"
         d="m 1945.896,1919.955 -0.048,-0.737 c 0.182,0.088 0.281,0.215 0.289,0.351 v 0 l 0.048,0.737 c -0.01,-0.134 -0.106,-0.261 -0.289,-0.351" />
    </clipPath>
    <clipPath
       id="clipPath3784"
       clipPathUnits="userSpaceOnUse">
      <path
         inkscape:connector-curvature="0"
         id="path3782"
         d="M 0,2119.953 H 3253.108 V 0 H 0 Z" />
    </clipPath>
    <clipPath
       id="clipPath3800"
       clipPathUnits="userSpaceOnUse">
      <path
         inkscape:connector-curvature="0"
         id="path3798"
         d="m 1943.658,1918.845 c 0.343,-0.226 0.914,-0.264 1.28,-0.084 v 0 l 0.047,0.741 c -0.361,-0.182 -0.936,-0.146 -1.28,0.084 v 0 z" />
    </clipPath>
    <clipPath
       id="clipPath3812"
       clipPathUnits="userSpaceOnUse">
      <path
         inkscape:connector-curvature="0"
         id="path3810"
         d="M 0,2119.953 H 3253.108 V 0 H 0 Z" />
    </clipPath>
    <clipPath
       id="clipPath3824"
       clipPathUnits="userSpaceOnUse">
      <path
         inkscape:connector-curvature="0"
         id="path3822"
         d="m 1951.754,1926.58 c -0.01,-0.136 0.071,-0.278 0.241,-0.392 v 0 l 0.052,0.737 c -0.174,0.117 -0.253,0.258 -0.245,0.391 v 0 z" />
    </clipPath>
    <clipPath
       id="clipPath3836"
       clipPathUnits="userSpaceOnUse">
      <path
         inkscape:connector-curvature="0"
         id="path3834"
         d="m 1956.943,1925.491 -0.049,-0.737 c 0.18,0.088 0.277,0.215 0.287,0.352 v 0 l 0.049,0.737 c -0.01,-0.132 -0.104,-0.262 -0.287,-0.352" />
    </clipPath>
    <clipPath
       id="clipPath3848"
       clipPathUnits="userSpaceOnUse">
      <path
         inkscape:connector-curvature="0"
         id="path3846"
         d="M 0,2119.953 H 3253.108 V 0 H 0 Z" />
    </clipPath>
    <clipPath
       id="clipPath3864"
       clipPathUnits="userSpaceOnUse">
      <path
         inkscape:connector-curvature="0"
         id="path3862"
         d="m 1954.703,1924.383 c 0.34,-0.229 0.916,-0.262 1.279,-0.086 v 0 l 0.049,0.743 c -0.361,-0.183 -0.938,-0.15 -1.279,0.081 v 0 z" />
    </clipPath>
    <clipPath
       id="clipPath3876"
       clipPathUnits="userSpaceOnUse">
      <path
         inkscape:connector-curvature="0"
         id="path3874"
         d="M 0,2119.953 H 3253.108 V 0 H 0 Z" />
    </clipPath>
    <clipPath
       id="clipPath3892"
       clipPathUnits="userSpaceOnUse">
      <path
         inkscape:connector-curvature="0"
         id="path3890"
         d="m 1953.117,1926.55 1.227,-0.822 c -0.145,0.891 -0.551,1.561 -1.133,1.955 v 0 l -1.232,0.823 c 0.588,-0.393 0.989,-1.061 1.138,-1.956" />
    </clipPath>
    <clipPath
       id="clipPath3948"
       clipPathUnits="userSpaceOnUse">
      <path
         inkscape:connector-curvature="0"
         id="path3946"
         d="m 2018.76,1870.93 h 70.11 v -23.75 h -70.11 z" />
    </clipPath>
    <clipPath
       id="clipPath4212"
       clipPathUnits="userSpaceOnUse">
      <path
         inkscape:connector-curvature="0"
         id="path4210"
         d="m 2154.433,1916.311 c 0,-0.141 0.087,-0.289 0.273,-0.405 v 0 l 0.028,0.784 c -0.187,0.117 -0.276,0.264 -0.271,0.407 v 0 z" />
    </clipPath>
    <clipPath
       id="clipPath4224"
       clipPathUnits="userSpaceOnUse">
      <path
         inkscape:connector-curvature="0"
         id="path4222"
         d="m 2159.973,1915.328 -0.03,-0.782 c 0.192,0.1 0.289,0.239 0.295,0.381 v 0 l 0.027,0.785 c 0,-0.142 -0.103,-0.28 -0.292,-0.384" />
    </clipPath>
    <clipPath
       id="clipPath4236"
       clipPathUnits="userSpaceOnUse">
      <path
         inkscape:connector-curvature="0"
         id="path4234"
         d="M 0,2119.953 H 3253.108 V 0 H 0 Z" />
    </clipPath>
    <clipPath
       id="clipPath4252"
       clipPathUnits="userSpaceOnUse">
      <path
         inkscape:connector-curvature="0"
         id="path4250"
         d="m 2157.634,1914.081 c 0.368,-0.23 0.978,-0.251 1.357,-0.046 v 0 l 0.029,0.783 c -0.377,-0.203 -0.988,-0.185 -1.36,0.049 v 0 z" />
    </clipPath>
    <clipPath
       id="clipPath4264"
       clipPathUnits="userSpaceOnUse">
      <path
         inkscape:connector-curvature="0"
         id="path4262"
         d="M 0,2119.953 H 3253.108 V 0 H 0 Z" />
    </clipPath>
    <clipPath
       id="clipPath4276"
       clipPathUnits="userSpaceOnUse">
      <path
         inkscape:connector-curvature="0"
         id="path4274"
         d="m 2165.961,1922.544 c 0,-0.146 0.086,-0.293 0.271,-0.409 v 0 l 0.032,0.784 c -0.188,0.117 -0.279,0.265 -0.274,0.408 v 0 z" />
    </clipPath>
    <clipPath
       id="clipPath4288"
       clipPathUnits="userSpaceOnUse">
      <path
         inkscape:connector-curvature="0"
         id="path4286"
         d="m 2171.5,1921.561 -0.028,-0.785 c 0.189,0.101 0.287,0.239 0.293,0.379 v 0 l 0.028,0.787 c 0,-0.142 -0.102,-0.281 -0.293,-0.381" />
    </clipPath>
    <clipPath
       id="clipPath4300"
       clipPathUnits="userSpaceOnUse">
      <path
         inkscape:connector-curvature="0"
         id="path4298"
         d="M 0,2119.953 H 3253.108 V 0 H 0 Z" />
    </clipPath>
    <clipPath
       id="clipPath4316"
       clipPathUnits="userSpaceOnUse">
      <path
         inkscape:connector-curvature="0"
         id="path4314"
         d="m 2169.16,1920.31 c 0.37,-0.229 0.979,-0.249 1.359,-0.045 v 0 l 0.03,0.784 c -0.379,-0.201 -0.99,-0.186 -1.36,0.046 v 0 z" />
    </clipPath>
    <clipPath
       id="clipPath4328"
       clipPathUnits="userSpaceOnUse">
      <path
         inkscape:connector-curvature="0"
         id="path4326"
         d="M 0,2119.953 H 3253.108 V 0 H 0 Z" />
    </clipPath>
    <clipPath
       id="clipPath4344"
       clipPathUnits="userSpaceOnUse">
      <path
         inkscape:connector-curvature="0"
         id="path4342"
         d="m 2167.406,1922.556 1.331,-0.832 c -0.186,0.942 -0.633,1.637 -1.266,2.036 v 0 l -1.332,0.833 c 0.636,-0.396 1.084,-1.091 1.267,-2.037" />
    </clipPath>
    <clipPath
       id="clipPath4598"
       clipPathUnits="userSpaceOnUse">
      <path
         inkscape:connector-curvature="0"
         id="path4596"
         d="m 2331.633,1939.514 c 0,-0.142 0.1,-0.287 0.296,-0.396 v 0 0.783 c -0.196,0.107 -0.292,0.246 -0.292,0.387 v 0 -0.774 z" />
    </clipPath>
    <clipPath
       id="clipPath4610"
       clipPathUnits="userSpaceOnUse">
      <path
         inkscape:connector-curvature="0"
         id="path4608"
         d="m 2337.17,1938.719 v -0.771 c 0.189,0.099 0.285,0.249 0.285,0.379 v 0 0.787 c 0,-0.14 -0.091,-0.287 -0.283,-0.395" />
    </clipPath>
    <clipPath
       id="clipPath4622"
       clipPathUnits="userSpaceOnUse">
      <path
         inkscape:connector-curvature="0"
         id="path4620"
         d="M 0,2119.953 H 3253.108 V 0 H 0 Z" />
    </clipPath>
    <clipPath
       id="clipPath4638"
       clipPathUnits="userSpaceOnUse">
      <path
         inkscape:connector-curvature="0"
         id="path4636"
         d="m 2334.888,1938.187 v -0.785 c 0.382,-0.217 0.981,-0.217 1.349,0 v 0 0.785 c -0.368,-0.217 -0.963,-0.217 -1.349,0" />
    </clipPath>
    <clipPath
       id="clipPath4650"
       clipPathUnits="userSpaceOnUse">
      <path
         inkscape:connector-curvature="0"
         id="path4648"
         d="M 0,2119.953 H 3253.108 V 0 H 0 Z" />
    </clipPath>
    <clipPath
       id="clipPath4662"
       clipPathUnits="userSpaceOnUse">
      <path
         inkscape:connector-curvature="0"
         id="path4660"
         d="m 2342.868,1946.09 c 0,-0.141 0.101,-0.294 0.291,-0.401 v 0 l 0.01,0.777 c -0.195,0.113 -0.291,0.255 -0.291,0.401 v 0 z" />
    </clipPath>
    <clipPath
       id="clipPath4674"
       clipPathUnits="userSpaceOnUse">
      <path
         inkscape:connector-curvature="0"
         id="path4672"
         d="m 2348.401,1945.298 v -0.782 c 0.182,0.104 0.277,0.25 0.277,0.39 v 0 l 0.01,0.781 c 0,-0.143 -0.095,-0.282 -0.282,-0.389" />
    </clipPath>
    <clipPath
       id="clipPath4686"
       clipPathUnits="userSpaceOnUse">
      <path
         inkscape:connector-curvature="0"
         id="path4684"
         d="M 0,2119.953 H 3253.108 V 0 H 0 Z" />
    </clipPath>
    <clipPath
       id="clipPath4702"
       clipPathUnits="userSpaceOnUse">
      <path
         inkscape:connector-curvature="0"
         id="path4700"
         d="m 2346.127,1944.756 v -0.778 c 0.376,-0.212 0.982,-0.212 1.348,0 v 0 0.778 c -0.366,-0.213 -0.972,-0.213 -1.348,0" />
    </clipPath>
    <clipPath
       id="clipPath4714"
       clipPathUnits="userSpaceOnUse">
      <path
         inkscape:connector-curvature="0"
         id="path4712"
         d="M 0,2119.953 H 3253.108 V 0 H 0 Z" />
    </clipPath>
    <clipPath
       id="clipPath4730"
       clipPathUnits="userSpaceOnUse">
      <path
         inkscape:connector-curvature="0"
         id="path4728"
         d="m 2343.05,1948.089 c -0.023,0.013 -0.045,0.026 -0.068,0.038 v 0 z m 1.257,-1.939 1.349,-0.782 c -0.21,0.926 -0.683,1.603 -1.326,1.976 v 0 l -1.28,0.745 c 0.612,-0.371 1.048,-1.041 1.257,-1.939" />
    </clipPath>
    <clipPath
       id="clipPath4742"
       clipPathUnits="userSpaceOnUse">
      <path
         inkscape:connector-curvature="0"
         id="path4740"
         d="M 0,2119.953 H 3253.108 V 0 H 0 Z" />
    </clipPath>
    <clipPath
       id="clipPath4918"
       clipPathUnits="userSpaceOnUse">
      <path
         inkscape:connector-curvature="0"
         id="path4916"
         d="m 2276.169,1866.541 c 0,-0.151 0.1,-0.291 0.285,-0.401 v 0 0.785 c -0.19,0.105 -0.286,0.259 -0.286,0.394 v 0 -0.778 z" />
    </clipPath>
    <clipPath
       id="clipPath4930"
       clipPathUnits="userSpaceOnUse">
      <path
         inkscape:connector-curvature="0"
         id="path4928"
         d="m 2281.734,1865.741 -0.01,-0.776 c 0.185,0.103 0.278,0.244 0.278,0.385 v 0 0.786 c 0,-0.141 -0.096,-0.281 -0.276,-0.395" />
    </clipPath>
    <clipPath
       id="clipPath4942"
       clipPathUnits="userSpaceOnUse">
      <path
         inkscape:connector-curvature="0"
         id="path4940"
         d="M 0,2119.953 H 3253.108 V 0 H 0 Z" />
    </clipPath>
    <clipPath
       id="clipPath4958"
       clipPathUnits="userSpaceOnUse">
      <path
         inkscape:connector-curvature="0"
         id="path4956"
         d="m 2279.442,1865.203 v -0.782 c 0.372,-0.219 0.983,-0.219 1.351,0 v 0 0.782 c -0.372,-0.221 -0.983,-0.221 -1.355,0" />
    </clipPath>
    <clipPath
       id="clipPath4970"
       clipPathUnits="userSpaceOnUse">
      <path
         inkscape:connector-curvature="0"
         id="path4968"
         d="M 0,2119.953 H 3253.108 V 0 H 0 Z" />
    </clipPath>
    <clipPath
       id="clipPath4982"
       clipPathUnits="userSpaceOnUse">
      <path
         inkscape:connector-curvature="0"
         id="path4980"
         d="m 2287.467,1873.148 c 0,-0.144 0.095,-0.29 0.287,-0.404 v 0 0.786 c -0.191,0.114 -0.29,0.258 -0.29,0.404 v 0 -0.786 z" />
    </clipPath>
    <clipPath
       id="clipPath4994"
       clipPathUnits="userSpaceOnUse">
      <path
         inkscape:connector-curvature="0"
         id="path4992"
         d="m 2293.032,1872.36 v -0.782 c 0.191,0.096 0.282,0.241 0.282,0.378 v 0 0.788 c 0,-0.14 -0.094,-0.281 -0.281,-0.384" />
    </clipPath>
    <clipPath
       id="clipPath5006"
       clipPathUnits="userSpaceOnUse">
      <path
         inkscape:connector-curvature="0"
         id="path5004"
         d="M 0,2119.953 H 3253.108 V 0 H 0 Z" />
    </clipPath>
    <clipPath
       id="clipPath5022"
       clipPathUnits="userSpaceOnUse">
      <path
         inkscape:connector-curvature="0"
         id="path5020"
         d="m 2290.745,1871.81 -0.01,-0.78 c 0.377,-0.22 0.986,-0.214 1.353,0 v 0 0.78 c -0.371,-0.212 -0.98,-0.212 -1.351,0" />
    </clipPath>
    <clipPath
       id="clipPath5034"
       clipPathUnits="userSpaceOnUse">
      <path
         inkscape:connector-curvature="0"
         id="path5032"
         d="M 0,2119.953 H 3253.108 V 0 H 0 Z" />
    </clipPath>
    <clipPath
       id="clipPath5050"
       clipPathUnits="userSpaceOnUse">
      <path
         inkscape:connector-curvature="0"
         id="path5048"
         d="m 2288.91,1873.212 1.359,-0.784 c -0.216,0.934 -0.691,1.61 -1.337,1.987 v 0 l -1.356,0.791 c 0.652,-0.377 1.121,-1.054 1.334,-1.994" />
    </clipPath>
    <clipPath
       id="clipPath4408"
       clipPathUnits="userSpaceOnUse">
      <path
         inkscape:connector-curvature="0"
         id="path4406"
         d="m 2301.08,1906.05 h 45.97 v -31.57 h -45.97 z" />
    </clipPath>
    <clipPath
       id="clipPath4392"
       clipPathUnits="userSpaceOnUse">
      <path
         inkscape:connector-curvature="0"
         id="path4390"
         d="m 2227.58,1871.71 h 52.38 v -32.03 h -52.38 z" />
    </clipPath>
    <clipPath
       id="clipPath5114"
       clipPathUnits="userSpaceOnUse">
      <path
         inkscape:connector-curvature="0"
         id="path5112"
         d="m 2417.33,1884.9 h 51.88 v -27.05 h -51.88 z" />
    </clipPath>
    <clipPath
       id="clipPath5554"
       clipPathUnits="userSpaceOnUse">
      <path
         inkscape:connector-curvature="0"
         id="path5552"
         d="m 2532.68,1877.97 h 61.16 v -27.88 h -61.16 z" />
    </clipPath>
    <clipPath
       id="clipPath5662"
       clipPathUnits="userSpaceOnUse">
      <path
         inkscape:connector-curvature="0"
         id="path5660"
         d="m 2652.02,1878.72 h 75.96 v -28.55 h -75.96 z" />
    </clipPath>
    <clipPath
       id="clipPath5782"
       clipPathUnits="userSpaceOnUse">
      <path
         inkscape:connector-curvature="0"
         id="path5780"
         d="m 2686.34,2040.48 h 6.76 v -5.02 h -6.76 z" />
    </clipPath>
    <clipPath
       id="clipPath5454"
       clipPathUnits="userSpaceOnUse">
      <path
         inkscape:connector-curvature="0"
         id="path5452"
         d="m 2763.78,1887.52 h 61.17 v -27.89 h -61.17 z" />
    </clipPath>
    <clipPath
       id="clipPath5226"
       clipPathUnits="userSpaceOnUse">
      <path
         inkscape:connector-curvature="0"
         id="path5224"
         d="m 2874.06,1879.83 h 115.04 v -37.41 h -115.04 z" />
    </clipPath>
    <clipPath
       id="clipPath5266"
       clipPathUnits="userSpaceOnUse">
      <path
         inkscape:connector-curvature="0"
         id="path5264"
         d="m 2898.47,1905.023 c -0.019,-0.014 -0.036,-0.025 -0.058,-0.038 v 0 c -0.579,-0.382 -0.588,-1.091 -0.535,-1.501 v 0 l 39.797,23.128 c -0.051,0.406 -0.042,1.119 0.537,1.502 v 0 c 0.018,0.012 0.037,0.024 0.058,0.036 v 0 c -13.266,-7.711 -26.531,-15.418 -39.799,-23.127" />
    </clipPath>
    <clipPath
       id="clipPath3000"
       clipPathUnits="userSpaceOnUse">
      <path
         inkscape:connector-curvature="0"
         id="path2998"
         d="m 3070.44,1903.77 h 111.77 v -40.19 h -111.77 z" />
    </clipPath>
    <clipPath
       id="clipPath6042"
       clipPathUnits="userSpaceOnUse">
      <path
         inkscape:connector-curvature="0"
         id="path6040"
         d="m 409.323,1548.74 h 49.951 v -25.11 h -49.951 z" />
    </clipPath>
    <clipPath
       id="clipPath5930"
       clipPathUnits="userSpaceOnUse">
      <path
         inkscape:connector-curvature="0"
         id="path5928"
         d="m 516.004,1548.66 h 54.751 v -25.03 h -54.751 z" />
    </clipPath>
    <clipPath
       id="clipPath6142"
       clipPathUnits="userSpaceOnUse">
      <path
         inkscape:connector-curvature="0"
         id="path6140"
         d="m 636.118,1542.78 h 45.362 v -19.15 h -45.362 z" />
    </clipPath>
    <clipPath
       id="clipPath6318"
       clipPathUnits="userSpaceOnUse">
      <path
         inkscape:connector-curvature="0"
         id="path6316"
         d="m 763.75,1602.23 h 22.211 v -7.49 H 763.75 Z" />
    </clipPath>
    <clipPath
       id="clipPath6242"
       clipPathUnits="userSpaceOnUse">
      <path
         inkscape:connector-curvature="0"
         id="path6240"
         d="m 749.178,1542.78 h 45.362 v -19.15 h -45.362 z" />
    </clipPath>
    <clipPath
       id="clipPath6358"
       clipPathUnits="userSpaceOnUse">
      <path
         inkscape:connector-curvature="0"
         id="path6356"
         d="m 859.142,1541.98 h 55.33 v -18.35 h -55.33 z" />
    </clipPath>
    <clipPath
       id="clipPath6562"
       clipPathUnits="userSpaceOnUse">
      <path
         inkscape:connector-curvature="0"
         id="path6560"
         d="m 972.921,1548.99 h 50.329 v -25.36 h -50.329 z" />
    </clipPath>
    <clipPath
       id="clipPath6898"
       clipPathUnits="userSpaceOnUse">
      <path
         inkscape:connector-curvature="0"
         id="path6896"
         d="m 1113.757,1660.871 0.977,-0.369 c -0.337,0.508 -0.215,1.396 0.271,1.968 v 0 l -0.978,0.368 c -0.484,-0.573 -0.605,-1.457 -0.27,-1.967" />
    </clipPath>
    <clipPath
       id="clipPath6882"
       clipPathUnits="userSpaceOnUse">
      <path
         inkscape:connector-curvature="0"
         id="path6880"
         d="M 0,2119.953 H 3253.108 V 0 H 0 Z" />
    </clipPath>
    <clipPath
       id="clipPath6870"
       clipPathUnits="userSpaceOnUse">
      <path
         inkscape:connector-curvature="0"
         id="path6868"
         d="m 1120.652,1670.681 0.975,-0.367 c 0.342,0.405 0.774,0.55 1.118,0.419 v 0 l -0.98,0.369 c -0.082,0.031 -0.168,0.047 -0.258,0.047 v 0 c -0.283,0 -0.596,-0.157 -0.855,-0.468" />
    </clipPath>
    <clipPath
       id="clipPath6858"
       clipPathUnits="userSpaceOnUse">
      <path
         inkscape:connector-curvature="0"
         id="path6856"
         d="m 1116.5,1656.939 0.98,-0.367 c -0.144,0.053 -0.271,0.155 -0.374,0.304 v 0 l -0.973,0.368 c 0.098,-0.15 0.226,-0.25 0.367,-0.305" />
    </clipPath>
    <clipPath
       id="clipPath6798"
       clipPathUnits="userSpaceOnUse">
      <path
         inkscape:connector-curvature="0"
         id="path6796"
         d="m 1085.74,1549.12 h 50.59 v -25.49 h -50.59 z" />
    </clipPath>
    <clipPath
       id="clipPath6450"
       clipPathUnits="userSpaceOnUse">
      <path
         inkscape:connector-curvature="0"
         id="path6448"
         d="m 1192.19,1544.97 h 58.91 v -21.34 h -58.91 z" />
    </clipPath>
    <clipPath
       id="clipPath7190"
       clipPathUnits="userSpaceOnUse">
      <path
         inkscape:connector-curvature="0"
         id="path7188"
         d="m 1415.1,1546.39 h 59.78 v -22.76 h -59.78 z" />
    </clipPath>
    <clipPath
       id="clipPath7322"
       clipPathUnits="userSpaceOnUse">
      <path
         inkscape:connector-curvature="0"
         id="path7320"
         d="m 1529.94,1551.96 h 66.67 v -28.33 h -66.67 z" />
    </clipPath>
    <clipPath
       id="clipPath7582"
       clipPathUnits="userSpaceOnUse">
      <path
         inkscape:connector-curvature="0"
         id="path7580"
         d="m 1678.67,1677.25 h 3.75 v -4.02 h -3.75 z" />
    </clipPath>
    <clipPath
       id="clipPath7566"
       clipPathUnits="userSpaceOnUse">
      <path
         inkscape:connector-curvature="0"
         id="path7564"
         d="m 1671.46,1674.81 h 5.24 v -3.89 h -5.24 z" />
    </clipPath>
    <clipPath
       id="clipPath7462"
       clipPathUnits="userSpaceOnUse">
      <path
         inkscape:connector-curvature="0"
         id="path7460"
         d="m 1648.93,1550.63 h 57.38 v -27 h -57.38 z" />
    </clipPath>
    <clipPath
       id="clipPath8174"
       clipPathUnits="userSpaceOnUse">
      <path
         inkscape:connector-curvature="0"
         id="path8172"
         d="m 1758.53,1552.63 h 42.25 v -29 h -42.25 z" />
    </clipPath>
    <clipPath
       id="clipPath8038"
       clipPathUnits="userSpaceOnUse">
      <path
         inkscape:connector-curvature="0"
         id="path8036"
         d="m 1882.656,1601.848 c 0,-0.062 0.041,-0.123 0.122,-0.172 v 0 l 10e-4,0.539 c -0.081,0.047 -0.122,0.108 -0.122,0.168 v 0 z" />
    </clipPath>
    <clipPath
       id="clipPath8006"
       clipPathUnits="userSpaceOnUse">
      <path
         inkscape:connector-curvature="0"
         id="path8004"
         d="M 0,2119.953 H 3253.108 V 0 H 0 Z" />
    </clipPath>
    <clipPath
       id="clipPath7994"
       clipPathUnits="userSpaceOnUse">
      <path
         inkscape:connector-curvature="0"
         id="path7992"
         d="m 1882.336,1603.443 c 0,-0.061 0.041,-0.12 0.121,-0.166 v 0 0.539 c -0.08,0.043 -0.12,0.104 -0.12,0.165 v 0 z" />
    </clipPath>
    <clipPath
       id="clipPath7946"
       clipPathUnits="userSpaceOnUse">
      <path
         inkscape:connector-curvature="0"
         id="path7944"
         d="M 0,2119.953 H 3253.108 V 0 H 0 Z" />
    </clipPath>
    <clipPath
       id="clipPath7934"
       clipPathUnits="userSpaceOnUse">
      <path
         inkscape:connector-curvature="0"
         id="path7932"
         d="m 1881.995,1605.067 c 0,-0.065 0.04,-0.124 0.119,-0.17 v 0 0.536 c -0.082,0.052 -0.122,0.11 -0.122,0.169 v 0 -0.535 z" />
    </clipPath>
    <clipPath
       id="clipPath7894"
       clipPathUnits="userSpaceOnUse">
      <path
         inkscape:connector-curvature="0"
         id="path7892"
         d="M 0,2119.953 H 3253.108 V 0 H 0 Z" />
    </clipPath>
    <clipPath
       id="clipPath7882"
       clipPathUnits="userSpaceOnUse">
      <path
         inkscape:connector-curvature="0"
         id="path7880"
         d="m 1883.262,1605.788 c 0,-0.061 0.041,-0.121 0.122,-0.168 v 0 0.538 c -0.081,0.046 -0.121,0.109 -0.121,0.169 v 0 z" />
    </clipPath>
    <clipPath
       id="clipPath7870"
       clipPathUnits="userSpaceOnUse">
      <path
         inkscape:connector-curvature="0"
         id="path7868"
         d="M 0,2119.953 H 3253.108 V 0 H 0 Z" />
    </clipPath>
    <clipPath
       id="clipPath7858"
       clipPathUnits="userSpaceOnUse">
      <path
         inkscape:connector-curvature="0"
         id="path7856"
         d="m 1882.565,1606.09 c 0.159,-0.087 0.418,-0.09 0.574,0 v 0 l 0.01,0.54 c -0.16,-0.092 -0.42,-0.089 -0.579,10e-4 v 0 -0.541 z" />
    </clipPath>
    <clipPath
       id="clipPath7842"
       clipPathUnits="userSpaceOnUse">
      <path
         inkscape:connector-curvature="0"
         id="path7840"
         d="M 0,2119.953 H 3253.108 V 0 H 0 Z" />
    </clipPath>
    <clipPath
       id="clipPath7830"
       clipPathUnits="userSpaceOnUse">
      <path
         inkscape:connector-curvature="0"
         id="path7828"
         d="m 1881.72,1606.68 c 0,-0.062 0.038,-0.122 0.12,-0.169 v 0 0.54 c -0.083,0.046 -0.122,0.106 -0.122,0.167 v 0 c 0,-0.18 -10e-4,-0.359 -10e-4,-0.538" />
    </clipPath>
    <clipPath
       id="clipPath7794"
       clipPathUnits="userSpaceOnUse">
      <path
         inkscape:connector-curvature="0"
         id="path7792"
         d="M 0,2119.953 H 3253.108 V 0 H 0 Z" />
    </clipPath>
    <clipPath
       id="clipPath7782"
       clipPathUnits="userSpaceOnUse">
      <path
         inkscape:connector-curvature="0"
         id="path7780"
         d="m 1879.92,1609.156 c 0,-0.06 0.042,-0.118 0.121,-0.166 v 0 0.538 c -0.081,0.045 -0.123,0.106 -0.123,0.165 v 0 -0.537 z" />
    </clipPath>
    <clipPath
       id="clipPath7622"
       clipPathUnits="userSpaceOnUse">
      <path
         inkscape:connector-curvature="0"
         id="path7620"
         d="m 1866.46,1541.36 h 41.73 v -17.73 h -41.73 z" />
    </clipPath>
    <clipPath
       id="clipPath1856"
       clipPathUnits="userSpaceOnUse">
      <path
         inkscape:connector-curvature="0"
         id="path1854"
         d="m 1978.82,1549.83 h 38.47 v -19.92 h -38.47 z" />
    </clipPath>
    <clipPath
       id="clipPath8394"
       clipPathUnits="userSpaceOnUse">
      <path
         inkscape:connector-curvature="0"
         id="path8392"
         d="m 2093.14,1546.97 h 47.55 v -23.34 h -47.55 z" />
    </clipPath>
    <clipPath
       id="clipPath8518"
       clipPathUnits="userSpaceOnUse">
      <path
         inkscape:connector-curvature="0"
         id="path8516"
         d="m 2183.37,1545.67 h 41.84 v -22.04 h -41.84 z" />
    </clipPath>
    <clipPath
       id="clipPath10650"
       clipPathUnits="userSpaceOnUse">
      <path
         inkscape:connector-curvature="0"
         id="path10648"
         d="m 2358.269,1682.219 1.196,-0.067 c 0.312,-0.02 0.65,0.162 0.933,0.544 v 0 l -1.194,0.068 c -0.286,-0.382 -0.621,-0.561 -0.935,-0.545" />
    </clipPath>
    <clipPath
       id="clipPath10638"
       clipPathUnits="userSpaceOnUse">
      <path
         inkscape:connector-curvature="0"
         id="path10636"
         d="m 2359.874,1693.927 1.199,-0.068 c 0.546,0.734 1.19,1.079 1.794,1.044 v 0 l -1.193,0.07 c -0.028,10e-4 -0.057,0 -0.085,0 v 0 c -0.579,0 -1.191,-0.349 -1.715,-1.048" />
    </clipPath>
    <clipPath
       id="clipPath10622"
       clipPathUnits="userSpaceOnUse">
      <path
         inkscape:connector-curvature="0"
         id="path10620"
         d="M 0,2119.953 H 3253.108 V 0 H 0 Z" />
    </clipPath>
    <clipPath
       id="clipPath10610"
       clipPathUnits="userSpaceOnUse">
      <path
         inkscape:connector-curvature="0"
         id="path10608"
         d="m 2361.354,1684.888 c 0.01,-10e-4 0.018,0 0.025,-10e-4 v 0 l 1.148,-0.067 c -0.655,0.059 -1.221,0.53 -1.604,1.361 v 0 l -1.197,0.069 c 0.389,-0.84 0.961,-1.312 1.628,-1.362 m 1.195,-0.07 c 0.01,-10e-4 0.019,-10e-4 0.025,-10e-4 v 0 h -0.047 c 0.01,-10e-4 0.014,0 0.022,0" />
    </clipPath>
    <clipPath
       id="clipPath10594"
       clipPathUnits="userSpaceOnUse">
      <path
         inkscape:connector-curvature="0"
         id="path10592"
         d="M 0,2119.953 H 3253.108 V 0 H 0 Z" />
    </clipPath>
    <clipPath
       id="clipPath10582"
       clipPathUnits="userSpaceOnUse">
      <path
         inkscape:connector-curvature="0"
         id="path10580"
         d="m 2362.654,1687.391 c -0.311,-0.417 -0.683,-0.634 -1.052,-0.613 v 0 l 1.196,-0.068 c 0.368,-0.022 0.741,0.196 1.052,0.613 v 0 c 0.652,0.877 0.83,2.365 0.398,3.321 v 0 l -1.194,0.068 c 0.43,-0.954 0.252,-2.444 -0.4,-3.321" />
    </clipPath>
    <clipPath
       id="clipPath10562"
       clipPathUnits="userSpaceOnUse">
      <path
         inkscape:connector-curvature="0"
         id="path10560"
         d="M 0,2119.953 H 3253.108 V 0 H 0 Z" />
    </clipPath>
    <clipPath
       id="clipPath10550"
       clipPathUnits="userSpaceOnUse">
      <path
         inkscape:connector-curvature="0"
         id="path10548"
         d="m 2345.228,1688.061 5.462,-0.312 c 0.094,1.046 0.253,2.098 0.476,3.121 v 0 l -5.463,0.317 c -0.222,-1.028 -0.38,-2.077 -0.475,-3.126" />
    </clipPath>
    <clipPath
       id="clipPath10534"
       clipPathUnits="userSpaceOnUse">
      <path
         inkscape:connector-curvature="0"
         id="path10532"
         d="M 0,2119.953 H 3253.108 V 0 H 0 Z" />
    </clipPath>
    <clipPath
       id="clipPath10522"
       clipPathUnits="userSpaceOnUse">
      <path
         inkscape:connector-curvature="0"
         id="path10520"
         d="m 2345.469,1681.934 5.462,-0.314 c -0.175,0.967 -0.28,1.965 -0.322,2.982 v 0 l -5.463,0.314 c 0.043,-1.017 0.151,-2.015 0.323,-2.982" />
    </clipPath>
    <clipPath
       id="clipPath10506"
       clipPathUnits="userSpaceOnUse">
      <path
         inkscape:connector-curvature="0"
         id="path10504"
         d="M 0,2119.953 H 3253.108 V 0 H 0 Z" />
    </clipPath>
    <clipPath
       id="clipPath10494"
       clipPathUnits="userSpaceOnUse">
      <path
         inkscape:connector-curvature="0"
         id="path10492"
         d="m 2346.555,1694.2 5.465,-0.316 c 0.338,0.949 0.733,1.868 1.186,2.732 v 0 l -5.465,0.314 c -0.452,-0.865 -0.844,-1.779 -1.186,-2.73" />
    </clipPath>
    <clipPath
       id="clipPath10474"
       clipPathUnits="userSpaceOnUse">
      <path
         inkscape:connector-curvature="0"
         id="path10472"
         d="M 0,2119.953 H 3253.108 V 0 H 0 Z" />
    </clipPath>
    <clipPath
       id="clipPath10462"
       clipPathUnits="userSpaceOnUse">
      <path
         inkscape:connector-curvature="0"
         id="path10460"
         d="m 2346.693,1677.938 c 0.173,-0.375 0.359,-0.728 0.553,-1.059 v 0 l 5.459,-0.313 c -0.192,0.328 -0.377,0.682 -0.55,1.058 v 0 c -0.189,0.408 -0.358,0.828 -0.51,1.262 v 0 l -5.464,0.313 c 0.154,-0.433 0.322,-0.855 0.512,-1.261" />
    </clipPath>
    <clipPath
       id="clipPath10450"
       clipPathUnits="userSpaceOnUse">
      <path
         inkscape:connector-curvature="0"
         id="path10448"
         d="M 0,2119.953 H 3253.108 V 0 H 0 Z" />
    </clipPath>
    <clipPath
       id="clipPath10438"
       clipPathUnits="userSpaceOnUse">
      <path
         inkscape:connector-curvature="0"
         id="path10436"
         d="m 2349.219,1699.291 5.464,-0.314 c 0.543,0.722 1.11,1.345 1.691,1.869 v 0 l -5.46,0.313 c -0.584,-0.523 -1.154,-1.144 -1.695,-1.868" />
    </clipPath>
    <clipPath
       id="clipPath10414"
       clipPathUnits="userSpaceOnUse">
      <path
         inkscape:connector-curvature="0"
         id="path10412"
         d="M 0,2119.953 H 3253.108 V 0 H 0 Z" />
    </clipPath>
    <clipPath
       id="clipPath10402"
       clipPathUnits="userSpaceOnUse">
      <path
         inkscape:connector-curvature="0"
         id="path10400"
         d="m 2350.259,1673.785 5.461,-0.313 c -0.569,0.31 -1.114,0.726 -1.625,1.247 v 0 l -5.461,0.315 c 0.508,-0.522 1.054,-0.938 1.625,-1.249" />
    </clipPath>
    <clipPath
       id="clipPath10390"
       clipPathUnits="userSpaceOnUse">
      <path
         inkscape:connector-curvature="0"
         id="path10388"
         d="M 0,2119.953 H 3253.108 V 0 H 0 Z" />
    </clipPath>
    <clipPath
       id="clipPath10378"
       clipPathUnits="userSpaceOnUse">
      <path
         inkscape:connector-curvature="0"
         id="path10376"
         d="m 2352.757,1702.473 5.461,-0.314 c 0.632,0.335 1.272,0.565 1.909,0.689 v 0 l -5.464,0.315 c -0.633,-0.125 -1.277,-0.355 -1.906,-0.69" />
    </clipPath>
    <clipPath
       id="clipPath10362"
       clipPathUnits="userSpaceOnUse">
      <path
         inkscape:connector-curvature="0"
         id="path10360"
         d="M 0,2119.953 H 3253.108 V 0 H 0 Z" />
    </clipPath>
    <clipPath
       id="clipPath10350"
       clipPathUnits="userSpaceOnUse">
      <path
         inkscape:connector-curvature="0"
         id="path10348"
         d="m 2352.587,1673.103 c 1.822,-0.104 3.643,-0.209 5.462,-0.314 v 0 c -0.171,0.01 -0.336,0.027 -0.505,0.052 v 0 l -5.462,0.315 c 0.168,-0.025 0.336,-0.042 0.505,-0.053" />
    </clipPath>
    <clipPath
       id="clipPath10918"
       clipPathUnits="userSpaceOnUse">
      <path
         inkscape:connector-curvature="0"
         id="path10916"
         d="m 2448.707,1664.164 1.237,-0.221 c -0.508,0.533 -0.559,1.613 -0.114,2.403 v 0 l -1.235,0.223 c -0.447,-0.791 -0.395,-1.872 0.112,-2.405" />
    </clipPath>
    <clipPath
       id="clipPath10902"
       clipPathUnits="userSpaceOnUse">
      <path
         inkscape:connector-curvature="0"
         id="path10900"
         d="M 0,2119.953 H 3253.108 V 0 H 0 Z" />
    </clipPath>
    <clipPath
       id="clipPath10890"
       clipPathUnits="userSpaceOnUse">
      <path
         inkscape:connector-curvature="0"
         id="path10888"
         d="m 2454.686,1677.384 1.238,-0.219 c 0.313,0.564 0.792,0.831 1.224,0.75 v 0 l -1.234,0.223 c -0.05,0.01 -0.101,0.014 -0.152,0.014 v 0 c -0.389,0 -0.796,-0.268 -1.076,-0.768" />
    </clipPath>
    <clipPath
       id="clipPath10878"
       clipPathUnits="userSpaceOnUse">
      <path
         inkscape:connector-curvature="0"
         id="path10876"
         d="m 2452.824,1660.092 1.235,-0.219 c -0.179,0.031 -0.351,0.125 -0.502,0.281 v 0 l -1.238,0.225 c 0.15,-0.16 0.324,-0.252 0.505,-0.287" />
    </clipPath>
    <clipPath
       id="clipPath10762"
       clipPathUnits="userSpaceOnUse">
      <path
         inkscape:connector-curvature="0"
         id="path10760"
         d="m 2419.74,1547.43 h 59.52 v -23.8 h -59.52 z" />
    </clipPath>
    <clipPath
       id="clipPath12810"
       clipPathUnits="userSpaceOnUse">
      <path
         inkscape:connector-curvature="0"
         id="path12808"
         d="m 2531.16,1567.57 h 72.57 v -43.94 h -72.57 z" />
    </clipPath>
    <clipPath
       id="clipPath11038"
       clipPathUnits="userSpaceOnUse">
      <path
         inkscape:connector-curvature="0"
         id="path11036"
         d="m 2634.7,1565.62 h 89.61 v -32.86 h -89.61 z" />
    </clipPath>
    <clipPath
       id="clipPath12306"
       clipPathUnits="userSpaceOnUse">
      <path
         inkscape:connector-curvature="0"
         id="path12304"
         d="m 2830.43,1594.309 0.541,-0.143 c -0.05,0.013 -0.089,0.049 -0.11,0.117 v 0 l -0.535,0.155 c 0.017,-0.07 0.062,-0.111 0.104,-0.129" />
    </clipPath>
    <clipPath
       id="clipPath12238"
       clipPathUnits="userSpaceOnUse">
      <path
         inkscape:connector-curvature="0"
         id="path12236"
         d="M 0,2119.953 H 3253.108 V 0 H 0 Z" />
    </clipPath>
    <clipPath
       id="clipPath12226"
       clipPathUnits="userSpaceOnUse">
      <path
         inkscape:connector-curvature="0"
         id="path12224"
         d="m 2824.504,1600.167 0.307,-0.465 c 0.464,0.907 1.661,0.682 1.269,1.263 v 0 l -0.309,0.464 c 0.387,-0.582 -0.804,-0.358 -1.267,-1.262" />
    </clipPath>
    <clipPath
       id="clipPath12214"
       clipPathUnits="userSpaceOnUse">
      <path
         inkscape:connector-curvature="0"
         id="path12212"
         d="M 0,2119.953 H 3253.108 V 0 H 0 Z" />
    </clipPath>
    <clipPath
       id="clipPath12202"
       clipPathUnits="userSpaceOnUse">
      <path
         inkscape:connector-curvature="0"
         id="path12200"
         d="m 2823.201,1597.161 0.315,-0.463 c -0.027,0.037 -0.027,0.099 0,0.161 v 0 l -0.315,0.463 c -0.033,-0.061 -0.024,-0.121 0,-0.161" />
    </clipPath>
    <clipPath
       id="clipPath12110"
       clipPathUnits="userSpaceOnUse">
      <path
         inkscape:connector-curvature="0"
         id="path12108"
         d="M 0,2119.953 H 3253.108 V 0 H 0 Z" />
    </clipPath>
    <clipPath
       id="clipPath12098"
       clipPathUnits="userSpaceOnUse">
      <path
         inkscape:connector-curvature="0"
         id="path12096"
         d="m 2788.318,1602.512 0.536,-0.124 c -0.044,0.013 -0.082,0.049 -0.098,0.124 v 0 l -0.539,0.123 c 0.017,-0.066 0.059,-0.108 0.101,-0.123" />
    </clipPath>
    <clipPath
       id="clipPath12030"
       clipPathUnits="userSpaceOnUse">
      <path
         inkscape:connector-curvature="0"
         id="path12028"
         d="M 0,2119.953 H 3253.108 V 0 H 0 Z" />
    </clipPath>
    <clipPath
       id="clipPath12018"
       clipPathUnits="userSpaceOnUse">
      <path
         inkscape:connector-curvature="0"
         id="path12016"
         d="m 2782.487,1608.393 0.388,-0.391 c 0.272,0.956 0.114,1.733 -0.372,2.225 v 0 l -0.387,0.388 c 0.485,-0.483 0.651,-1.262 0.371,-2.222" />
    </clipPath>
    <clipPath
       id="clipPath12006"
       clipPathUnits="userSpaceOnUse">
      <path
         inkscape:connector-curvature="0"
         id="path12004"
         d="M 0,2119.953 H 3253.108 V 0 H 0 Z" />
    </clipPath>
    <clipPath
       id="clipPath11994"
       clipPathUnits="userSpaceOnUse">
      <path
         inkscape:connector-curvature="0"
         id="path11992"
         d="m 2781.082,1603.332 0.377,-0.371 c -0.029,0.034 -0.034,0.085 -0.019,0.143 v 0 l -0.385,0.393 c -0.017,-0.076 0,-0.133 0.027,-0.165 m 0.389,-0.383 -0.012,0.012 c 0,0 0.01,-0.01 0.012,-0.012" />
    </clipPath>
    <clipPath
       id="clipPath11970"
       clipPathUnits="userSpaceOnUse">
      <path
         inkscape:connector-curvature="0"
         id="path11968"
         d="M 0,2119.953 H 3253.108 V 0 H 0 Z" />
    </clipPath>
    <clipPath
       id="clipPath11958"
       clipPathUnits="userSpaceOnUse">
      <path
         inkscape:connector-curvature="0"
         id="path11956"
         d="m 2786.762,1598.821 0.568,-0.273 c -0.047,0.021 -0.082,0.077 -0.086,0.156 v 0 l -0.566,0.274 c 0.01,-0.085 0.032,-0.138 0.084,-0.157" />
    </clipPath>
    <clipPath
       id="clipPath11890"
       clipPathUnits="userSpaceOnUse">
      <path
         inkscape:connector-curvature="0"
         id="path11888"
         d="M 0,2119.953 H 3253.108 V 0 H 0 Z" />
    </clipPath>
    <clipPath
       id="clipPath11878"
       clipPathUnits="userSpaceOnUse">
      <path
         inkscape:connector-curvature="0"
         id="path11876"
         d="m 2780.113,1601.778 0.247,-0.539 c -0.022,0.054 -0.011,0.109 0.024,0.177 v 0 l -0.244,0.535 c -0.043,-0.066 -0.048,-0.124 -0.027,-0.173" />
    </clipPath>
    <clipPath
       id="clipPath11858"
       clipPathUnits="userSpaceOnUse">
      <path
         inkscape:connector-curvature="0"
         id="path11856"
         d="m 2771.04,1562.96 h 53.11 v -27.76 h -53.11 z" />
    </clipPath>
    <clipPath
       id="clipPath1168"
       clipPathUnits="userSpaceOnUse">
      <path
         inkscape:connector-curvature="0"
         id="path1166"
         d="m 2893,1556.62 h 43.15 v -23.93 H 2893 Z" />
    </clipPath>
    <clipPath
       id="clipPath1296"
       clipPathUnits="userSpaceOnUse">
      <path
         inkscape:connector-curvature="0"
         id="path1294"
         d="m 2955.87,1553.6 h 43.44 v -20.91 h -43.44 z" />
    </clipPath>
    <clipPath
       id="clipPath12470"
       clipPathUnits="userSpaceOnUse">
      <path
         inkscape:connector-curvature="0"
         id="path12468"
         d="m 399.784,1353.67 h 48.707 v -24 h -48.707 z" />
    </clipPath>
    <clipPath
       id="clipPath12358"
       clipPathUnits="userSpaceOnUse">
      <path
         inkscape:connector-curvature="0"
         id="path12356"
         d="m 465.87,1361.27 h 49.965 v -31.6 H 465.87 Z" />
    </clipPath>
    <clipPath
       id="clipPath13046"
       clipPathUnits="userSpaceOnUse">
      <path
         inkscape:connector-curvature="0"
         id="path13044"
         d="m 586.984,1359.47 h 61.119 v -29.81 h -61.119 z" />
    </clipPath>
    <clipPath
       id="clipPath13402"
       clipPathUnits="userSpaceOnUse">
      <path
         inkscape:connector-curvature="0"
         id="path13400"
         d="m 703.693,1478.64 h 4.478 v -4.82 h -4.478 z" />
    </clipPath>
    <clipPath
       id="clipPath13374"
       clipPathUnits="userSpaceOnUse">
      <path
         inkscape:connector-curvature="0"
         id="path13372"
         d="m 704.131,1478.36 h 3.644 v -4.04 h -3.644 z" />
    </clipPath>
    <clipPath
       id="clipPath13358"
       clipPathUnits="userSpaceOnUse">
      <path
         inkscape:connector-curvature="0"
         id="path13356"
         d="m 709.703,1475.53 h 4.923 v -4.01 h -4.923 z" />
    </clipPath>
    <clipPath
       id="clipPath13250"
       clipPathUnits="userSpaceOnUse">
      <path
         inkscape:connector-curvature="0"
         id="path13248"
         d="m 673.784,1359.47 h 61.119 v -29.81 h -61.119 z" />
    </clipPath>
    <clipPath
       id="clipPath13402-9"
       clipPathUnits="userSpaceOnUse">
      <path
         inkscape:connector-curvature="0"
         id="path13400-1"
         d="m 703.693,1478.64 h 4.478 v -4.82 h -4.478 z" />
    </clipPath>
    <clipPath
       id="clipPath13374-0"
       clipPathUnits="userSpaceOnUse">
      <path
         inkscape:connector-curvature="0"
         id="path13372-1"
         d="m 704.131,1478.36 h 3.644 v -4.04 h -3.644 z" />
    </clipPath>
    <clipPath
       id="clipPath13358-5"
       clipPathUnits="userSpaceOnUse">
      <path
         inkscape:connector-curvature="0"
         id="path13356-3"
         d="m 709.703,1475.53 h 4.923 v -4.01 h -4.923 z" />
    </clipPath>
    <clipPath
       id="clipPath13250-5"
       clipPathUnits="userSpaceOnUse">
      <path
         inkscape:connector-curvature="0"
         id="path13248-1"
         d="m 673.784,1359.47 h 61.119 v -29.81 h -61.119 z" />
    </clipPath>
    <clipPath
       id="clipPath13162"
       clipPathUnits="userSpaceOnUse">
      <path
         inkscape:connector-curvature="0"
         id="path13160"
         d="m 784.63,1346.63 h 48.166 v -16.97 H 784.63 Z" />
    </clipPath>
    <clipPath
       id="clipPath13442"
       clipPathUnits="userSpaceOnUse">
      <path
         inkscape:connector-curvature="0"
         id="path13440"
         d="m 880.049,1355.55 h 51.368 v -25.89 h -51.368 z" />
    </clipPath>
    <clipPath
       id="clipPath13626"
       clipPathUnits="userSpaceOnUse">
      <path
         inkscape:connector-curvature="0"
         id="path13624"
         d="m 976.015,1352.34 h 46.115 v -22.68 h -46.115 z" />
    </clipPath>
    <clipPath
       id="clipPath13866"
       clipPathUnits="userSpaceOnUse">
      <path
         inkscape:connector-curvature="0"
         id="path13864"
         d="m 1089.03,1352.13 h 50.36 v -22.47 h -50.36 z" />
    </clipPath>
    <clipPath
       id="clipPath13742"
       clipPathUnits="userSpaceOnUse">
      <path
         inkscape:connector-curvature="0"
         id="path13740"
         d="m 1190.25,1350.43 h 56.04 v -20.77 h -56.04 z" />
    </clipPath>
    <clipPath
       id="clipPath19770"
       clipPathUnits="userSpaceOnUse">
      <path
         inkscape:connector-curvature="0"
         id="path19768"
         d="m 1397.88,1426.94 h 9.81 v -10.72 h -9.81 z" />
    </clipPath>
    <clipPath
       id="clipPath19750"
       clipPathUnits="userSpaceOnUse">
      <path
         inkscape:connector-curvature="0"
         id="path19748"
         d="m 1398.41,1421.61 h 8.79 v -4.87 h -8.79 z" />
    </clipPath>
    <clipPath
       id="clipPath19734"
       clipPathUnits="userSpaceOnUse">
      <path
         inkscape:connector-curvature="0"
         id="path19732"
         d="m 1399.38,1428.93 h 6.61 v -3.83 h -6.61 z" />
    </clipPath>
    <clipPath
       id="clipPath19710"
       clipPathUnits="userSpaceOnUse">
      <path
         inkscape:connector-curvature="0"
         id="path19708"
         d="m 1397.88,1426.94 h 9.81 v -10.72 h -9.81 z" />
    </clipPath>
    <clipPath
       id="clipPath19678"
       clipPathUnits="userSpaceOnUse">
      <path
         inkscape:connector-curvature="0"
         id="path19676"
         d="m 1402.318,1409.985 c -0.132,-0.077 -0.203,-0.177 -0.203,-0.275 v 0 c 0,-0.025 0,-0.076 -0.029,-0.114 v 0 c 0,0 0,0 0,0 v 0 c 0.063,0.063 0.273,0.184 0.639,0.194 v 0 c 0.261,0.01 0.534,-0.05 0.695,-0.143 v 0 c 0.037,-0.025 0.051,-0.039 0.065,-0.053 v 0 c -0.014,0.027 -0.014,0.028 -0.019,0.055 v 0 c -0.01,0.02 -0.01,0.039 -0.01,0.055 v 0 c 0,0.103 -0.063,0.199 -0.19,0.274 v 0 c -0.131,0.079 -0.305,0.119 -0.48,0.119 v 0 c -0.168,0 -0.336,-0.037 -0.467,-0.109" />
    </clipPath>
    <clipPath
       id="clipPath19666"
       clipPathUnits="userSpaceOnUse">
      <path
         inkscape:connector-curvature="0"
         id="path19664"
         d="m 1401.322,1409.758 c -0.42,-0.237 -0.632,-0.553 -0.632,-0.865 v 0 -0.302 c 0,0.316 0.214,0.629 0.636,0.865 v 0 c 0.829,0.466 2.155,0.457 2.963,-0.028 v 0 c 0.396,-0.237 0.594,-0.542 0.594,-0.848 v 0 0.304 c 0,0.302 -0.198,0.609 -0.59,0.843 v 0 c -0.414,0.247 -0.964,0.372 -1.515,0.372 v 0 c -0.523,0 -1.047,-0.113 -1.452,-0.341" />
    </clipPath>
    <clipPath
       id="clipPath19654"
       clipPathUnits="userSpaceOnUse">
      <path
         inkscape:connector-curvature="0"
         id="path19652"
         d="m 1402.209,1410.169 c -0.102,-0.018 -0.105,-0.018 -0.285,-0.066 v 0 c -0.044,-0.01 -0.1,-0.027 -0.138,-0.04 v 0 c -0.086,-0.023 -0.149,-0.054 -0.269,-0.108 v 0 c 0,0 -0.113,-0.05 -0.242,-0.131 v 0 c -0.086,-0.059 -0.106,-0.075 -0.204,-0.158 v 0 c 0,0 -0.085,-0.073 -0.167,-0.177 v 0 c -0.063,-0.083 -0.096,-0.143 -0.122,-0.194 v 0 c -0.089,-0.182 -0.092,-0.341 -0.092,-0.402 v 0 c 0,0.312 0.212,0.628 0.632,0.865 v 0 c 0.832,0.467 2.16,0.451 2.967,-0.031 v 0 c 0.347,-0.207 0.542,-0.472 0.582,-0.739 v 0 c 0,0.022 -0.01,0.043 -0.01,0.07 v 0 c -0.013,0.062 -0.031,0.123 -0.055,0.178 v 0 c -0.072,0.177 -0.179,0.29 -0.212,0.331 v 0 c -0.093,0.099 -0.182,0.163 -0.231,0.201 v 0 c -0.086,0.061 -0.166,0.105 -0.247,0.152 v 0 c -0.067,0.035 -0.256,0.129 -0.557,0.204 v 0 c -0.246,0.061 -0.517,0.093 -0.79,0.093 v 0 c -0.189,0 -0.378,-0.016 -0.56,-0.048 m 2.67,-1.285 c 0,0.035 0,0.069 -0.01,0.104 v 0 c 0,-0.031 0.01,-0.061 0.01,-0.104" />
    </clipPath>
    <clipPath
       id="clipPath19642"
       clipPathUnits="userSpaceOnUse">
      <path
         inkscape:connector-curvature="0"
         id="path19640"
         d="m 1401.322,1409.456 c -0.422,-0.236 -0.632,-0.549 -0.636,-0.865 v 0 c 0,0.062 0.01,0.1 0.027,0.175 v 0 c 0.018,0.07 0.053,0.135 0.066,0.157 v 0 c 0.054,0.097 0.152,0.21 0.251,0.292 v 0 c 0.04,0.03 0.087,0.073 0.129,0.097 v 0 c 0.107,0.067 0.163,0.103 0.25,0.142 v 0 c 0.135,0.062 0.163,0.077 0.285,0.117 v 0 c 0.155,0.052 0.297,0.085 0.303,0.085 v 0 c 0.107,0.024 0.333,0.071 0.65,0.081 v 0 c 0.079,0 0.207,0 0.329,0 v 0 c 0.122,-0.01 0.122,-0.01 0.326,-0.032 v 0 c 0,0 0.144,-0.018 0.315,-0.061 v 0 c 0.11,-0.026 0.117,-0.028 0.292,-0.087 v 0 c 0.116,-0.037 0.294,-0.121 0.401,-0.19 v 0 c 0.135,-0.08 0.175,-0.116 0.262,-0.186 v 0 c 0.038,-0.034 0.112,-0.114 0.142,-0.153 v 0 c 0.02,-0.033 0.051,-0.074 0.073,-0.11 v 0 c 0.014,-0.025 0.033,-0.062 0.043,-0.089 v 0 c 0.031,-0.085 0.046,-0.145 0.049,-0.245 v 0 c 0,0.306 -0.198,0.611 -0.594,0.848 v 0 c -0.412,0.247 -0.958,0.371 -1.505,0.371 v 0 c -0.526,0 -1.052,-0.115 -1.458,-0.343" />
    </clipPath>
    <clipPath
       id="clipPath19434"
       clipPathUnits="userSpaceOnUse">
      <path
         inkscape:connector-curvature="0"
         id="path19432"
         d="M 0,2119.953 H 3253.108 V 0 H 0 Z" />
    </clipPath>
    <clipPath
       id="clipPath19454"
       clipPathUnits="userSpaceOnUse">
      <path
         inkscape:connector-curvature="0"
         id="path19452"
         d="m 1363.45,1444.95 h 9.78 v -10.84 h -9.78 z" />
    </clipPath>
    <clipPath
       id="clipPath19478"
       clipPathUnits="userSpaceOnUse">
      <path
         inkscape:connector-curvature="0"
         id="path19476"
         d="m 1365.28,1446.82 h 6.6 v -3.84 h -6.6 z" />
    </clipPath>
    <clipPath
       id="clipPath19494"
       clipPathUnits="userSpaceOnUse">
      <path
         inkscape:connector-curvature="0"
         id="path19492"
         d="m 1363.95,1439.75 h 8.76 v -5.13 h -8.76 z" />
    </clipPath>
    <clipPath
       id="clipPath19514"
       clipPathUnits="userSpaceOnUse">
      <path
         inkscape:connector-curvature="0"
         id="path19512"
         d="m 1363.45,1445.05 h 9.78 v -10.94 h -9.78 z" />
    </clipPath>
    <clipPath
       id="clipPath19422"
       clipPathUnits="userSpaceOnUse">
      <path
         inkscape:connector-curvature="0"
         id="path19420"
         d="m 1367.222,1427.917 c -0.139,-0.068 -0.216,-0.166 -0.221,-0.265 v 0 c 0,-0.022 -0.01,-0.074 -0.034,-0.108 v 0 c 0,0 0,0 0,0 v 0 c 0.066,0.058 0.281,0.161 0.646,0.153 v 0 c 0.265,0 0.531,-0.081 0.681,-0.181 v 0 c 0.042,-0.032 0.055,-0.041 0.068,-0.059 v 0 c -0.01,0.027 -0.013,0.03 -0.02,0.059 v 0 c 0,0.017 0,0.039 0,0.057 v 0 c 0.01,0.097 -0.048,0.199 -0.171,0.28 v 0 c -0.142,0.097 -0.345,0.148 -0.544,0.148 v 0 c -0.144,0 -0.286,-0.027 -0.401,-0.082" />
    </clipPath>
    <clipPath
       id="clipPath19410"
       clipPathUnits="userSpaceOnUse">
      <path
         inkscape:connector-curvature="0"
         id="path19408"
         d="m 1366.214,1427.751 c -0.433,-0.212 -0.667,-0.517 -0.685,-0.831 v 0 l -0.018,-0.299 c 0.018,0.315 0.252,0.613 0.685,0.825 v 0 c 0.854,0.419 2.178,0.329 2.959,-0.199 v 0 c 0.362,-0.251 0.543,-0.553 0.542,-0.848 v 0 c 0,0.089 0.011,0.175 0.016,0.266 v 0 c 0.018,0.303 -0.161,0.618 -0.542,0.879 v 0 c -0.449,0.308 -1.081,0.468 -1.7,0.468 v 0 c -0.451,0 -0.896,-0.085 -1.257,-0.261 m 3.483,-1.389 c 0,0.013 0,0.025 0,0.037 v 0 c 0,-0.012 0,-0.024 0,-0.037" />
    </clipPath>
    <clipPath
       id="clipPath19398"
       clipPathUnits="userSpaceOnUse">
      <path
         inkscape:connector-curvature="0"
         id="path19396"
         d="m 1367.126,1428.106 c -0.103,-0.01 -0.108,-0.012 -0.292,-0.046 v 0 c -0.043,-0.01 -0.097,-0.026 -0.141,-0.034 v 0 c -0.083,-0.021 -0.152,-0.044 -0.273,-0.091 v 0 c 0,0 -0.115,-0.042 -0.249,-0.118 v 0 c -0.088,-0.051 -0.108,-0.066 -0.212,-0.143 v 0 c 0,0 -0.092,-0.07 -0.177,-0.168 v 0 c -0.072,-0.08 -0.103,-0.137 -0.136,-0.192 v 0 c -0.066,-0.115 -0.093,-0.223 -0.105,-0.301 v 0 c 0.055,0.281 0.282,0.547 0.673,0.738 v 0 c 0.857,0.418 2.181,0.325 2.957,-0.207 v 0 c 0.337,-0.231 0.516,-0.505 0.54,-0.775 v 0 c -10e-4,0.023 0,0.046 -0.01,0.075 v 0 c -0.01,0.06 -0.022,0.124 -0.043,0.178 v 0 c -0.061,0.183 -0.163,0.303 -0.195,0.344 v 0 c -0.085,0.107 -0.169,0.176 -0.215,0.216 v 0 c -0.084,0.065 -0.161,0.114 -0.238,0.164 v 0 c -0.067,0.039 -0.249,0.147 -0.543,0.236 v 0 c -0.301,0.094 -0.646,0.144 -0.984,0.144 v 0 c -0.122,0 -0.243,-0.01 -0.36,-0.02 m -1.597,-1.186 c 0,0.021 0.01,0.054 0.012,0.093 v 0 c -0.01,-0.031 -0.011,-0.062 -0.012,-0.093 m 4.184,-0.255 c 0,0.034 10e-4,0.069 0,0.104 v 0 c 0,-0.029 0,-0.059 0,-0.104" />
    </clipPath>
    <clipPath
       id="clipPath19386"
       clipPathUnits="userSpaceOnUse">
      <path
         inkscape:connector-curvature="0"
         id="path19384"
         d="m 1366.196,1427.446 c -0.433,-0.212 -0.667,-0.51 -0.685,-0.825 v 0 c 0.01,0.061 0.012,0.095 0.036,0.171 v 0 c 0.024,0.071 0.062,0.132 0.076,0.154 v 0 c 0.059,0.094 0.164,0.201 0.266,0.276 v 0 c 0.041,0.031 0.094,0.065 0.137,0.092 v 0 c 0.11,0.061 0.169,0.094 0.259,0.125 v 0 c 0.133,0.053 0.166,0.067 0.287,0.103 v 0 c 0.162,0.042 0.305,0.065 0.31,0.068 v 0 c 0.11,0.013 0.335,0.049 0.654,0.042 v 0 c 0.076,-0.01 0.205,-0.011 0.324,-0.024 v 0 c 0.127,-0.014 0.127,-0.014 0.328,-0.055 v 0 c 0,0 0.138,-0.022 0.309,-0.073 v 0 c 0.109,-0.036 0.118,-0.04 0.287,-0.106 v 0 c 0.116,-0.046 0.289,-0.141 0.39,-0.213 v 0 c 0.128,-0.089 0.17,-0.128 0.246,-0.202 v 0 c 0.041,-0.035 0.111,-0.12 0.135,-0.162 v 0 c 0.022,-0.032 0.05,-0.074 0.065,-0.114 v 0 c 0.016,-0.027 0.034,-0.063 0.041,-0.091 v 0 c 0.023,-0.088 0.037,-0.147 0.036,-0.25 v 0 c 0.016,0.306 -0.165,0.624 -0.542,0.885 v 0 c -0.45,0.304 -1.079,0.463 -1.696,0.463 v 0 c -0.454,0 -0.901,-0.086 -1.263,-0.264" />
    </clipPath>
    <clipPath
       id="clipPath19350"
       clipPathUnits="userSpaceOnUse">
      <path
         inkscape:connector-curvature="0"
         id="path19348"
         d="m 1391.24,1464.99 h 5.77 v -4.68 h -5.77 z" />
    </clipPath>
    <clipPath
       id="clipPath19334"
       clipPathUnits="userSpaceOnUse">
      <path
         inkscape:connector-curvature="0"
         id="path19332"
         d="m 1383.2,1464.02 h 7.41 v -4.83 h -7.41 z" />
    </clipPath>
    <clipPath
       id="clipPath19162"
       clipPathUnits="userSpaceOnUse">
      <path
         inkscape:connector-curvature="0"
         id="path19160"
         d="m 1303.92,1414.47 h 100.87 v -89.2 h -100.87 z" />
    </clipPath>
    <clipPath
       id="clipPath18990"
       clipPathUnits="userSpaceOnUse">
      <path
         inkscape:connector-curvature="0"
         id="path18988"
         d="m 1582.176,1404.441 c -0.02,-0.02 -0.025,-0.055 -0.013,-0.095 v 0 c 0.025,-0.082 0.14,-0.186 0.242,-0.136 v 0 l 5.873,6.457 c -0.086,0.018 -0.166,0.096 -0.193,0.177 v 0 c -0.012,0.04 -0.012,0.08 0.01,0.099 v 0 l -5.916,-6.502 z" />
    </clipPath>
    <clipPath
       id="clipPath18710"
       clipPathUnits="userSpaceOnUse">
      <path
         inkscape:connector-curvature="0"
         id="path18708"
         d="M 0,2119.953 H 3253.108 V 0 H 0 Z" />
    </clipPath>
    <clipPath
       id="clipPath18726"
       clipPathUnits="userSpaceOnUse">
      <path
         inkscape:connector-curvature="0"
         id="path18724"
         d="m 1496.94,1414.7 h 72.95 v -53.48 h -72.95 z" />
    </clipPath>
    <clipPath
       id="clipPath18742"
       clipPathUnits="userSpaceOnUse">
      <path
         inkscape:connector-curvature="0"
         id="path18740"
         d="m 1548.22,1440.94 h 50.74 v -32.16 h -50.74 z" />
    </clipPath>
    <clipPath
       id="clipPath18826"
       clipPathUnits="userSpaceOnUse">
      <path
         inkscape:connector-curvature="0"
         id="path18824"
         d="m 1564.7,1458.07 h 6.31 v -4.9 h -6.31 z" />
    </clipPath>
    <clipPath
       id="clipPath18850"
       clipPathUnits="userSpaceOnUse">
      <path
         inkscape:connector-curvature="0"
         id="path18848"
         d="m 1558.31,1458.15 h 5.26 v -4.68 h -5.26 z" />
    </clipPath>
    <clipPath
       id="clipPath18698"
       clipPathUnits="userSpaceOnUse">
      <path
         inkscape:connector-curvature="0"
         id="path18696"
         d="m 1574.628,1386.601 c -0.095,-0.052 -0.183,-0.104 -0.278,-0.157 v 0 l 4.038,-1.885 c 0.092,0.053 0.183,0.104 0.277,0.159 v 0 c 10.773,6.115 18.061,4.962 22.646,2.298 v 0 c -1.343,0.781 -2.69,1.562 -4.036,2.346 v 0 c -2.012,1.169 -4.546,1.959 -7.667,1.959 v 0 c -3.988,-10e-4 -8.935,-1.289 -14.98,-4.72" />
    </clipPath>
    <clipPath
       id="clipPath18686"
       clipPathUnits="userSpaceOnUse">
      <path
         inkscape:connector-curvature="0"
         id="path18684"
         d="m 1597.63,1385.664 c 4.455,-3.521 5.91,-10.73 5.925,-10.78 v 0 l 4.038,-2.343 c -0.016,0.048 -1.475,7.255 -5.926,10.773 v 0 c -0.608,0.484 -1.235,0.911 -1.88,1.286 v 0 c -1.347,0.783 -2.692,1.565 -4.038,2.348 v 0 c 0.648,-0.376 1.273,-0.806 1.881,-1.284" />
    </clipPath>
    <clipPath
       id="clipPath18658"
       clipPathUnits="userSpaceOnUse">
      <path
         inkscape:connector-curvature="0"
         id="path18656"
         d="M 0,2119.953 H 3253.108 V 0 H 0 Z" />
    </clipPath>
    <clipPath
       id="clipPath18646"
       clipPathUnits="userSpaceOnUse">
      <path
         inkscape:connector-curvature="0"
         id="path18644"
         d="m 1521.722,1414.865 c -0.095,-0.055 -0.184,-0.105 -0.278,-0.159 v 0 l 4.037,-1.882 c 0.093,0.054 0.184,0.103 0.279,0.157 v 0 c 10.77,6.114 18.061,4.961 22.647,2.299 v 0 c -1.347,0.781 -2.693,1.562 -4.038,2.345 v 0 c -2.013,1.17 -4.547,1.959 -7.667,1.959 v 0 c -3.988,0 -8.936,-1.289 -14.98,-4.719" />
    </clipPath>
    <clipPath
       id="clipPath18634"
       clipPathUnits="userSpaceOnUse">
      <path
         inkscape:connector-curvature="0"
         id="path18632"
         d="m 1544.723,1413.927 c 4.453,-3.522 5.909,-10.727 5.926,-10.779 v 0 l 4.035,-2.345 c -0.013,0.049 -1.47,7.258 -5.924,10.776 v 0 c -0.606,0.482 -1.233,0.91 -1.881,1.286 v 0 c -1.345,0.781 -2.691,1.563 -4.037,2.344 v 0 c 0.647,-0.374 1.274,-0.803 1.881,-1.282" />
    </clipPath>
    <clipPath
       id="clipPath18618"
       clipPathUnits="userSpaceOnUse">
      <path
         inkscape:connector-curvature="0"
         id="path18616"
         d="m 1472.07,1422.22 h 167.06 v -103.65 h -167.06 z" />
    </clipPath>
    <clipPath
       id="clipPath14986"
       clipPathUnits="userSpaceOnUse">
      <path
         inkscape:connector-curvature="0"
         id="path14984"
         d="m 1678.763,1339.279 -0.02,-9.722 c 0.884,-0.495 2.269,-0.495 3.149,0 v 0 l 0.017,9.722 c -0.876,-0.498 -2.27,-0.498 -3.146,0" />
    </clipPath>
    <clipPath
       id="clipPath14970"
       clipPathUnits="userSpaceOnUse">
      <path
         inkscape:connector-curvature="0"
         id="path14968"
         d="M 0,2119.953 H 3253.108 V 0 H 0 Z" />
    </clipPath>
    <clipPath
       id="clipPath14958"
       clipPathUnits="userSpaceOnUse">
      <path
         inkscape:connector-curvature="0"
         id="path14956"
         d="m 1668.463,1336.05 c 0,-0.338 0.202,-0.67 0.648,-0.912 v 0 l 0.032,9.704 c -0.435,0.245 -0.656,0.574 -0.656,0.91 v 0 z" />
    </clipPath>
    <clipPath
       id="clipPath14946"
       clipPathUnits="userSpaceOnUse">
      <path
         inkscape:connector-curvature="0"
         id="path14944"
         d="m 1691.463,1344.842 -0.024,-9.704 c 0.427,0.242 0.643,0.563 0.643,0.901 v 0 l 0.03,9.695 c 0,-0.323 -0.216,-0.647 -0.649,-0.892" />
    </clipPath>
    <clipPath
       id="clipPath14922"
       clipPathUnits="userSpaceOnUse">
      <path
         inkscape:connector-curvature="0"
         id="path14920"
         d="m 1667.22,1367.23 h 114.21 v -38.83 h -114.21 z" />
    </clipPath>
    <clipPath
       id="clipPath15154"
       clipPathUnits="userSpaceOnUse">
      <path
         inkscape:connector-curvature="0"
         id="path15152"
         d="m 1860.688,1461.658 -0.024,-7.936 c 0.916,-0.529 2.394,-0.529 3.304,0 v 0 l 0.022,7.936 c -0.91,-0.527 -2.389,-0.527 -3.302,0" />
    </clipPath>
    <clipPath
       id="clipPath15138"
       clipPathUnits="userSpaceOnUse">
      <path
         inkscape:connector-curvature="0"
         id="path15136"
         d="M 0,2119.953 H 3253.108 V 0 H 0 Z" />
    </clipPath>
    <clipPath
       id="clipPath15126"
       clipPathUnits="userSpaceOnUse">
      <path
         inkscape:connector-curvature="0"
         id="path15124"
         d="m 1849.269,1460.869 c 0,-0.347 0.227,-0.698 0.69,-0.965 v 0 l 0.02,7.937 c -0.459,0.266 -0.688,0.615 -0.688,0.963 v 0 c -0.01,-2.646 -0.017,-5.29 -0.022,-7.935" />
    </clipPath>
    <clipPath
       id="clipPath15114"
       clipPathUnits="userSpaceOnUse">
      <path
         inkscape:connector-curvature="0"
         id="path15112"
         d="m 1874.625,1467.841 -0.02,-7.937 c 0.452,0.263 0.678,0.607 0.678,0.952 v 0 c 0.01,2.645 0.015,5.29 0.021,7.936 v 0 c 0,-0.343 -0.224,-0.687 -0.679,-0.951" />
    </clipPath>
    <clipPath
       id="clipPath16170"
       clipPathUnits="userSpaceOnUse">
      <path
         inkscape:connector-curvature="0"
         id="path16168"
         d="m 1931.67,1465.06 h 5.48 v -3.53 h -5.48 z" />
    </clipPath>
    <clipPath
       id="clipPath16154"
       clipPathUnits="userSpaceOnUse">
      <path
         inkscape:connector-curvature="0"
         id="path16152"
         d="m 1938.54,1467.47 h 6.59 v -4.62 h -6.59 z" />
    </clipPath>
    <clipPath
       id="clipPath15350"
       clipPathUnits="userSpaceOnUse">
      <path
         inkscape:connector-curvature="0"
         id="path15348"
         d="m 2075.187,1401.833 c -0.286,-0.34 -0.868,-0.555 -1.303,-0.477 v 0 c -0.214,0.037 -0.351,0.139 -0.4,0.275 v 0 l 0.037,-0.102 c 0.049,-0.134 0.188,-0.236 0.402,-0.274 v 0 c 0.435,-0.079 1.015,0.136 1.3,0.476 v 0 c 0.141,0.171 0.183,0.343 0.132,0.477 v 0 l -0.036,0.104 c 0.05,-0.137 0.01,-0.308 -0.132,-0.479" />
    </clipPath>
    <clipPath
       id="clipPath15298"
       clipPathUnits="userSpaceOnUse">
      <path
         inkscape:connector-curvature="0"
         id="path15296"
         d="m 2043.91,1454.04 h 6.13 v -3.82 h -6.13 z" />
    </clipPath>
    <clipPath
       id="clipPath15274"
       clipPathUnits="userSpaceOnUse">
      <path
         inkscape:connector-curvature="0"
         id="path15272"
         d="m 2035.45,1453.74 h 6.42 v -4 h -6.42 z" />
    </clipPath>
  </defs>
  <sodipodi:namedview
     id="base"
     pagecolor="#ffffff"
     bordercolor="#666666"
     borderopacity="1.0"
     inkscape:pageopacity="0.0"
     inkscape:pageshadow="2"
     inkscape:zoom="0.35"
     inkscape:cx="481.65308"
     inkscape:cy="247.32634"
     inkscape:document-units="mm"
     inkscape:current-layer="layer1"
     showgrid="false"
     fit-margin-top="0"
     fit-margin-left="0"
     fit-margin-right="0"
     fit-margin-bottom="0"
     inkscape:window-width="1366"
     inkscape:window-height="716"
     inkscape:window-x="-8"
     inkscape:window-y="-8"
     inkscape:window-maximized="1" />
  <metadata
     id="metadata45328">
    <rdf:RDF>
      <cc:Work
         rdf:about="">
        <dc:format>image/svg+xml</dc:format>
        <dc:type
           rdf:resource="http://purl.org/dc/dcmitype/StillImage" />
        <dc:title></dc:title>
      </cc:Work>
    </rdf:RDF>
  </metadata>
  <g
     inkscape:label="Layer 1"
     inkscape:groupmode="layer"
     id="layer1"
     transform="translate(204.92249,-436.13451)">
    <g
       id="g15208"
       transform="matrix(0.35277777,0,0,-0.35277777,-193.49465,439.60084)">
      <path
         d="m 0,0 c 0,0 0.252,-7.474 2.003,-11.386 1.037,-2.318 3.403,-3.364 3.403,-3.364 0,0 -1.317,-1.063 -2.099,-0.676 -3.836,1.897 -9.411,16.181 -9.411,16.181 z"
         style="fill:#33150a;fill-opacity:1;fill-rule:nonzero;stroke:none"
         id="path15210"
         inkscape:connector-curvature="0" />
    </g>
    <g
       id="g15212"
       transform="matrix(0.35277777,0,0,-0.35277777,-193.76821,439.47631)">
      <path
         d="m 0,0 c 0,0 0.39,-6.655 0.765,-11.317 0.303,-3.761 2.852,-6.1 2.852,-6.1 0,0 -4.519,-1.713 -6.751,-2.354 -6.856,-1.977 -19.337,2.983 -19.337,2.983 l 19.857,14.925 z"
         style="fill:#33150a;fill-opacity:1;fill-rule:nonzero;stroke:none"
         id="path15214"
         inkscape:connector-curvature="0" />
    </g>
    <g
       id="g15216"
       transform="matrix(0.35277777,0,0,-0.35277777,-191.24054,468.54428)">
      <path
         d="m 0,0 c 0,0 -5.193,-6.118 -6.592,-7.251 -1.397,-1.127 -6.506,-2.227 -7.824,-2.455 -1.442,-0.244 -2.833,-0.819 -3.64,0.968 -1.08,2.413 5.139,17.85 5.139,17.85 L 0,8.343 Z"
         style="fill:#352f2f;fill-opacity:1;fill-rule:nonzero;stroke:none"
         id="path15218"
         inkscape:connector-curvature="0" />
    </g>
    <g
       id="g15220"
       transform="matrix(0.35277777,0,0,-0.35277777,-193.00065,484.34985)">
      <path
         d="m 0,0 c -0.032,0.062 -0.953,5.792 -1.12,7 -0.479,3.496 2.581,8.072 2.581,8.072 l 12.308,18.011 c 0.887,0.991 3.025,4.795 3.6,6.3 1.997,5.218 -2.031,9.091 -2.947,9.856 l -6.32,5.403 -22.341,6.563 C -19.91,59.071 -2.737,52.898 -4.092,50.428 -4.163,50.297 1.764,38.058 3.179,35.005 3.354,34.617 3.484,33.061 3.238,32.721 1.729,30.658 -4.538,20.338 -7.265,16.284 l -2.12,-3.404 c -0.498,-0.908 -0.488,-1.347 -0.445,-2.762 0.051,-1.571 2.672,-7.932 2.672,-7.932 0,0 1.543,-4.295 5.127,-4.727 1.857,-0.23 2.433,1.054 2.104,2.298 C 0.051,-0.165 0.027,-0.084 0,0"
         style="fill:#cca283;fill-opacity:1;fill-rule:nonzero;stroke:none"
         id="path15222"
         inkscape:connector-curvature="0" />
    </g>
    <g
       id="g15224"
       transform="matrix(0.35277777,0,0,-0.35277777,-193.37855,486.4135)">
      <path
         d="M 0,0 C 1.501,0.066 1.798,1.713 1.805,1.904 1.873,3.56 0.72,3.93 0.72,3.93 0.878,2.857 -5.569,4.685 -2.915,3.831 c 1.641,-0.527 -2.531,2.699 -3.72,4.621 -0.844,1.36 -1.236,3.588 -1.595,4.767 -1.104,3.624 -0.121,5.712 -0.121,5.712 0,0 -0.619,-0.655 -1.297,-1.892 -0.99,-1.802 -0.406,-2.535 -0.406,-2.535 0,0 -1.005,-0.281 -0.226,-2.157 C -9.425,10.283 -8.188,6.488 -6.449,3.97 -5.007,1.873 -2.171,-0.093 0,0"
         style="fill:#d4dbdd;fill-opacity:1;fill-rule:nonzero;stroke:none"
         id="path15226"
         inkscape:connector-curvature="0" />
    </g>
    <g
       id="g15228"
       transform="matrix(0.35277777,0,0,-0.35277777,-193.29381,486.1916)">
      <path
         d="M 0,0 C 1.655,0.072 2.026,1.225 1.136,4.275 1.098,4.402 0.88,5.063 0.88,5.063 1.04,3.99 0.278,2.945 -1.899,3.705 c -1.762,0.622 -3.044,2.198 -4.33,4.621 -0.748,1.413 -1.667,3.075 -2.155,5.833 -0.62,3.483 1.049,5.82 1.049,5.82 0,0 -1.934,-0.139 -2.855,-2.582 -0.725,-1.923 -0.643,-3.42 -0.643,-3.42 l 1.017,-2.432 C -9.096,9.724 -8.202,6.821 -6.063,3.894 -3.862,0.904 -1.565,-0.068 0,0"
         style="fill:#4f10b2;fill-opacity:1;fill-rule:nonzero;stroke:none"
         id="path15230"
         inkscape:connector-curvature="0" />
    </g>
    <g
       id="g15232"
       transform="matrix(0.35277777,0,0,-0.35277777,-188.88511,483.88652)">
      <path
         d="m 0,0 c -0.058,0.047 -5.891,5.733 -6.781,6.571 -1.801,1.686 -1.127,8.437 -1.127,8.437 l 2.025,19.797 c 0.248,1.733 1.238,5.287 -2.587,9.789 l -14.063,13.61 c 0,0 -10.583,3.968 -13.794,-1.011 -3.284,-5.088 -6.695,-5.162 -3.641,-8.663 0.092,-0.113 19.329,-10.284 21.73,-12.647 1.668,-1.64 0.677,-5.404 0.621,-5.822 -1,-7.146 2.6,-20.937 2.613,-21.791 l 0.006,-0.357 0.039,-2.415 c 0.092,-1.041 0.348,-1.396 1.163,-2.544 0.915,-1.286 6.631,-5.113 6.631,-5.113 0,0 3.674,-2.715 6.895,-1.078 1.666,0.84 1.436,2.225 0.463,3.078 C 0.136,-0.105 0.073,-0.057 0,0"
         style="fill:#e8c5ac;fill-opacity:1;fill-rule:nonzero;stroke:none"
         id="path15234"
         inkscape:connector-curvature="0" />
    </g>
    <g
       id="g15236"
       transform="matrix(0.35277777,0,0,-0.35277777,-188.05143,485.80989)">
      <path
         d="M 0,0 C 1.208,0.885 0.544,2.418 0.442,2.585 -0.424,3.994 -1.589,3.66 -1.589,3.66 -0.859,2.867 -7.233,0.797 -4.552,1.563 c 1.656,0.472 -3.608,0.84 -5.665,1.779 -1.457,0.654 -3.017,2.285 -3.971,3.069 -2.936,2.403 -3.284,4.678 -3.284,4.678 0,0 -1.036,0.23 -0.915,-1.166 0.18,-2.051 0.619,-2.974 0.619,-2.974 0,0 0.576,-1.764 1.549,-2.353 2.355,-1.426 5.804,-3.762 8.651,-4.887 C -5.203,-1.221 -1.76,-1.287 0,0"
         style="fill:#d4dbdd;fill-opacity:1;fill-rule:nonzero;stroke:none"
         id="path15238"
         inkscape:connector-curvature="0" />
    </g>
    <g
       id="g15240"
       transform="matrix(0.35277777,0,0,-0.35277777,-188.1048,485.57907)">
      <path
         d="m 0,0 c 1.334,0.98 1.002,2.138 -1.431,4.181 -0.101,0.09 -0.652,0.521 -0.652,0.521 0.729,-0.806 0.675,-2.097 -1.551,-2.677 -1.812,-0.464 -3.82,-0.148 -5.922,1.215 -1.339,0.871 -3.397,1.806 -5.282,3.866 -2.667,2.929 -2.372,5.605 -2.372,5.605 0,0 -1.536,-1.375 -0.936,-3.911 0.653,-2.753 3.875,-4.922 3.875,-4.922 1.735,-1.487 4.336,-3.22 6.813,-4.118 C -3.967,-1.51 -1.265,-0.932 0,0"
         style="fill:#4f10b2;fill-opacity:1;fill-rule:nonzero;stroke:none"
         id="path15242"
         inkscape:connector-curvature="0" />
    </g>
    <g
       id="g15244"
       transform="matrix(0.35277777,0,0,-0.35277777,-194.78212,461.73902)">
      <path
         d="m 0,0 c 1.909,-1.606 11.202,-8.042 11.396,-8.177 4.836,-3.374 5.174,-4.161 5.174,-4.161 0,0.093 -1.78,0.545 -4.95,-0.116 -4.211,-0.871 -7.704,-2.125 -10.574,-3.485 -6.573,-3.121 -8.689,-12.728 -8.689,-12.728 -0.051,0.052 -1.886,3.108 -3.332,4.064 -1.753,1.159 -15.745,5.766 -16.62,15.483 -0.252,2.713 0.079,6.075 0.896,11.338 0,0 4.488,-6.389 15.257,-3.912 8.134,1.878 8.501,5.493 8.501,5.493 C -2.954,3.376 -2.078,1.738 0,0"
         style="fill:#5b5353;fill-opacity:1;fill-rule:nonzero;stroke:none"
         id="path15246"
         inkscape:connector-curvature="0" />
    </g>
    <g
       id="g15248"
       transform="matrix(0.35277777,0,0,-0.35277777,-188.12446,459.44233)">
      <path
         d="m 0,0 -5.23,-3.272 c -9.453,3.542 -10.315,3.788 -13.646,5.884 -1.495,0.936 -2.987,3.107 -3.414,4.829 l -4.554,19.805 c -2.149,3.317 -3.028,11.764 1.165,12.322 6.424,0.865 7.553,-9.33 7.956,-12.65 0.48,-4.001 1.288,-13.438 1.505,-16.015 0.036,-0.426 0.281,-0.802 0.644,-1.032 z"
         style="fill:#cea58e;fill-opacity:1;fill-rule:nonzero;stroke:none"
         id="path15250"
         inkscape:connector-curvature="0" />
    </g>
    <g
       id="g15252"
       transform="matrix(0.35277777,0,0,-0.35277777,-196.11088,445.70054)">
      <path
         d="m 0,0 3.628,-15.574 c 0,0 0.789,-3.099 0.493,-4.828 -0.404,-2.431 -2.224,-4.488 -2.347,-4.666 -1.332,-1.802 -2.091,-4.144 -1.673,-7.972 l 0.781,-9.347 c 0,0 0.511,-2.533 -6.215,-5.064 -14.811,-5.591 -18.173,0.299 -18.173,0.299 -0.15,0.248 -0.339,1.293 -0.186,2.036 0.435,2.097 0.782,3.482 1.229,5.049 l 1.77,7.956 c 0.347,1.153 0.536,2.344 0.549,3.542 l -2.099,10.234 c 0,0 -2.924,7.083 -0.44,10.165 2.384,2.96 8.535,7.535 10.86,8.735 0.587,0.305 1.88,0.751 3.385,1.038 0,0 5.477,0.688 8.438,-1.603"
         style="fill:#c91dd6;fill-opacity:1;fill-rule:nonzero;stroke:none"
         id="path15254"
         inkscape:connector-curvature="0" />
    </g>
    <g
       id="g15256"
       transform="matrix(0.35277777,0,0,-0.35277777,-197.32148,447.36453)">
      <path
         d="m 0,0 c -4.231,-3.289 -5.961,0.877 -8.059,4.082 l 0.762,11.19 8.817,-1.735 z"
         style="fill:#cea58e;fill-opacity:1;fill-rule:nonzero;stroke:none"
         id="path15258"
         inkscape:connector-curvature="0" />
    </g>
    <g
       id="g15260"
       transform="matrix(0.35277777,0,0,-0.35277777,-195.42254,439.38275)">
      <path
         d="m 0,0 c 4.355,0.169 5.119,-2.677 4.773,-5.874 -0.283,-2.638 -2.801,-9.538 -2.801,-9.538 -1.114,-3.464 -3.831,-5.055 -6.058,-4.908 -1.455,0.094 -2.635,0.431 -4.298,1.955 -1.09,0.998 -2.368,1.961 -3.109,3.339 -0.027,0.048 -0.603,5.609 -0.435,7.38 C -11.603,-4.289 -7.2,-0.28 0,0"
         style="fill:#f2c8a5;fill-opacity:1;fill-rule:nonzero;stroke:none"
         id="path15262"
         inkscape:connector-curvature="0" />
    </g>
    <g
       id="g15264"
       transform="matrix(0.35277777,0,0,-0.35277777,-201.58135,442.30195)">
      <path
         d="M 0,0 C -0.078,0.03 -0.029,0.269 0.059,0.324 L 3.085,2.232 C 3.476,2.481 4.113,2.331 4.463,2.182 L 8.989,-0.096 C 9.015,-0.107 9.02,-0.146 9.006,-0.177 L 8.682,-0.693 C 8.669,-0.724 8.643,-0.74 8.619,-0.734 L 4.115,1.629 C 3.942,1.709 3.735,1.683 3.544,1.563 L 0.869,-0.132 C 0.719,-0.225 0.555,-0.242 0.424,-0.189 Z"
         style="fill:#6d1ad8;fill-opacity:1;fill-rule:nonzero;stroke:none"
         id="path15266"
         inkscape:connector-curvature="0" />
    </g>
    <g
       id="g15268"
       transform="matrix(0.35277777,0,0,-0.35277777,-916.70013,955.04431)">
      <g
         id="g15270" />
      <g
         id="g15282">
        <g
           clip-path="url(#clipPath15274)"
           id="g15280"
           style="opacity:0.25999499">
          <g
             transform="translate(2037.125,1453.4336)"
             id="g15278">
            <path
               d="M 0,0 C -0.465,-0.064 -1.494,0.207 -1.67,-0.417 -1.747,-0.695 -1.263,-2.362 -1.08,-2.592 -0.712,-3.078 0,-3.348 0.009,-3.348 0.082,-3.355 0.228,-3.796 1.494,-3.67 l 0.995,0.36 c 1.315,0.173 1.716,1.599 1.729,1.611 0.002,0.004 0.215,0.273 0.432,0.968 0.124,0.403 0.126,0.708 -0.003,0.858 C 4.5,0.303 4.161,0.313 4.057,0.307 l -4.05,-0.309 c 0,0 -0.003,0 -0.007,0.002"
               style="fill:#859393;fill-opacity:1;fill-rule:nonzero;stroke:none"
               id="path15276"
               inkscape:connector-curvature="0" />
          </g>
        </g>
      </g>
    </g>
    <g
       id="g15284"
       transform="matrix(0.35277777,0,0,-0.35277777,-195.65027,442.6687)">
      <path
         d="m 0,0 c 0,0 0.035,-0.297 -0.221,-0.269 -0.135,0.016 -0.248,0.296 -0.627,0.26 -0.715,-0.074 -0.86,-0.405 -1.077,-0.463 -0.221,-0.061 -0.155,0.326 -0.155,0.326 0,0 0.153,0.722 1.186,0.767 C 0.093,0.664 0,0 0,0"
         style="fill:#6d1ad8;fill-opacity:1;fill-rule:nonzero;stroke:none"
         id="path15286"
         inkscape:connector-curvature="0" />
    </g>
    <g
       id="g15288"
       transform="matrix(0.35277777,0,0,-0.35277777,-198.00122,442.33091)">
      <path
         d="m 0,0 c -0.427,-0.061 -1.395,-0.328 -1.415,-0.997 -0.011,-0.277 0.061,-1.057 0.441,-1.681 0.583,-0.949 2.122,-0.77 3.238,-0.465 1.011,0.276 1.543,1.153 1.55,1.162 0.007,0.008 0.376,0.544 0.576,1.222 0.118,0.384 0.118,0.677 0.007,0.819 C 4.267,0.226 3.96,0.235 3.859,0.226 3.859,0.226 0.003,0.002 0,0 M 1.945,-3.771 1.864,-3.781 C 0.599,-3.936 0.22,-3.86 0.151,-3.845 c -0.023,-0.008 -1.02,0.07 -1.539,0.786 -0.443,0.612 -0.816,1.939 -0.8,2.316 0.051,0.959 0.005,1.135 0.555,1.215 l 1.775,0.167 3.246,0.245 c 0.06,0.009 1.08,0.09 1.47,-0.412 C 5.131,0.121 5.265,-0.326 5.054,-0.972 4.832,-1.649 4.202,-2.43 4.171,-2.463 4.134,-2.517 3.421,-3.553 1.945,-3.771"
         style="fill:#6d1ad8;fill-opacity:1;fill-rule:nonzero;stroke:none"
         id="path15290"
         inkscape:connector-curvature="0" />
    </g>
    <g
       id="g15292"
       transform="matrix(0.35277777,0,0,-0.35277777,-916.70013,955.04431)">
      <g
         id="g15294" />
      <g
         id="g15306">
        <g
           clip-path="url(#clipPath15298)"
           id="g15304"
           style="opacity:0.25999499">
          <g
             transform="translate(2045.5127,1453.7495)"
             id="g15302">
            <path
               d="M 0,0 C -0.443,-0.059 -1.427,0.198 -1.596,-0.399 -1.669,-0.665 -1.207,-2.257 -1.033,-2.478 -0.681,-2.941 0,-3.195 0.009,-3.196 0.077,-3.204 0.217,-3.628 1.425,-3.505 l 0.953,0.342 c 1.254,0.164 1.641,1.528 1.652,1.541 0.002,0 0.201,0.26 0.412,0.923 0.117,0.386 0.119,0.678 -0.004,0.82 C 4.299,0.287 3.975,0.298 3.872,0.292 L 0.009,-0.003 C 0.009,-0.003 0.006,0 0,0"
               style="fill:#859393;fill-opacity:1;fill-rule:nonzero;stroke:none"
               id="path15300"
               inkscape:connector-curvature="0" />
          </g>
        </g>
      </g>
    </g>
    <g
       id="g15308"
       transform="matrix(0.35277777,0,0,-0.35277777,-195.04395,442.21894)">
      <path
         d="m 0,0 c -0.407,-0.059 -1.334,-0.313 -1.354,-0.95 -0.012,-0.27 0.058,-1.011 0.422,-1.609 0.558,-0.907 2.031,-0.734 3.093,-0.441 0.968,0.264 1.473,1.102 1.48,1.109 0.008,0.005 0.36,0.518 0.549,1.167 0.115,0.367 0.116,0.647 0.009,0.783 C 4.072,0.217 3.779,0.227 3.683,0.217 Z M 1.857,-3.6 1.778,-3.61 C 0.573,-3.758 0.208,-3.687 0.145,-3.671 0.12,-3.68 -0.83,-3.606 -1.326,-2.92 c -0.422,0.581 -0.753,1.568 -0.735,1.927 0.045,0.92 0.577,1.351 1.102,1.43 L 0.135,0.611 3.237,0.845 C 3.292,0.852 4.267,0.93 4.641,0.451 4.899,0.116 5.027,-0.313 4.826,-0.927 4.614,-1.574 4.012,-2.321 3.981,-2.352 3.947,-2.405 3.266,-3.393 1.857,-3.6"
         style="fill:#6d1ad8;fill-opacity:1;fill-rule:nonzero;stroke:none"
         id="path15310"
         inkscape:connector-curvature="0" />
    </g>
    <g
       id="g15312"
       transform="matrix(0.35277777,0,0,-0.35277777,-201.56653,439.30972)">
      <path
         d="m 0,0 c 0,0 -1.677,-8.682 -3.063,-10.167 -1.658,-1.774 -2.471,-1.822 -2.471,-1.822 0,0 0.643,-0.631 2.534,-0.173 2.228,0.539 5.633,5.696 5.633,5.696 z"
         style="fill:#33150a;fill-opacity:1;fill-rule:nonzero;stroke:none"
         id="path15314"
         inkscape:connector-curvature="0" />
    </g>
    <g
       id="g15316"
       transform="matrix(0.35277777,0,0,-0.35277777,-200.35009,444.86597)">
      <path
         d="m 0,0 c 0,0 -0.808,-3.813 -2.34,-4.744 -0.267,-0.162 -0.934,-0.005 -1.615,0.711 -2.361,2.179 -3.338,4.987 -3.16,5.133 4.877,4.038 2.735,8.674 2.969,10.842 0.86,7.945 4.688,12.381 11.68,12.794 4.334,0.249 9.515,-2.718 11.099,-6.378 1.744,-4.027 0.418,-7.296 0.364,-6.938 -0.029,0.188 -2.379,4.171 -5.231,2.103 C 8.549,9.744 4.724,8.626 4.396,7.116 2.013,-3.871 0.182,-5.21 -0.302,-5.4 0.474,-3.59 0,0 0,0"
         style="fill:#33150a;fill-opacity:1;fill-rule:nonzero;stroke:none"
         id="path15318"
         inkscape:connector-curvature="0" />
    </g>
    <g
       id="g15320"
       transform="matrix(0.35277777,0,0,-0.35277777,-183.5273,458.4028)">
      <path
         d="m 0,0 c -0.176,-0.102 -21.437,4.188 -21.437,4.188 l -9.34,-11.631 1.795,-0.365 8.251,10.167 19.634,-4.282 z"
         style="fill:#7a7a7a;fill-opacity:1;fill-rule:nonzero;stroke:none"
         id="path15322"
         inkscape:connector-curvature="0" />
    </g>
    <g
       id="g15324"
       transform="matrix(0.35277777,0,0,-0.35277777,-193.0723,459.06116)">
      <path
         d="M 0,0 C 0.094,-0.253 0.377,-0.383 0.629,-0.291 0.881,-0.2 1.013,0.083 0.917,0.335 0.827,0.589 0.544,0.72 0.292,0.625 0.037,0.533 -0.092,0.251 0,0"
         style="fill:#868787;fill-opacity:1;fill-rule:nonzero;stroke:none"
         id="path15326"
         inkscape:connector-curvature="0" />
    </g>
    <g
       id="g15328"
       transform="matrix(0.35277777,0,0,-0.35277777,-193.03026,459.05064)">
      <path
         d="M 0,0 C -0.124,-0.151 -0.071,-0.299 0.119,-0.333 0.311,-0.367 0.572,-0.274 0.698,-0.121 0.821,0.027 0.766,0.177 0.574,0.21 0.383,0.244 0.127,0.151 0,0"
         style="fill:#6d6d6d;fill-opacity:1;fill-rule:nonzero;stroke:none"
         id="path15330"
         inkscape:connector-curvature="0" />
    </g>
    <g
       id="g15332"
       transform="matrix(0.35277777,0,0,-0.35277777,-194.06861,461.09305)">
      <path
         d="M 0,0 20.694,-3.653 29.61,7.029 8.915,10.684 Z"
         style="fill:#dfeaea;fill-opacity:1;fill-rule:nonzero;stroke:none"
         id="path15334"
         inkscape:connector-curvature="0" />
    </g>
    <g
       id="g15336"
       transform="matrix(0.35277777,0,0,-0.35277777,-193.03579,459.00464)">
      <path
         d="m 0,0 c -0.127,-0.151 -0.073,-0.301 0.117,-0.337 0.192,-0.034 0.454,0.063 0.576,0.212 0.127,0.15 0.073,0.3 -0.119,0.334 C 0.381,0.243 0.125,0.15 0,0 m 23.779,-4.245 c 0.248,0.296 0.143,0.59 -0.235,0.657 -0.377,0.064 -0.881,-0.12 -1.129,-0.417 -0.244,-0.293 -0.138,-0.585 0.239,-0.653 0.377,-0.064 0.879,0.119 1.125,0.413 M 17.665,-9.292 26.58,1.391 5.887,5.043 -3.03,-5.64 Z M 4.342,6.204 C 4.728,6.667 5.521,6.959 6.11,6.853 L 28.836,2.842 c 0.591,-0.106 0.757,-0.564 0.371,-1.027 l -10.21,-12.233 c -0.388,-0.461 -1.178,-0.752 -1.768,-0.648 l -22.725,4.012 c -0.592,0.106 -0.761,0.564 -0.375,1.027 z"
         style="fill:#a7a9aa;fill-opacity:1;fill-rule:nonzero;stroke:none"
         id="path15338"
         inkscape:connector-curvature="0" />
    </g>
    <g
       id="g15340"
       transform="matrix(0.35277777,0,0,-0.35277777,-182.66846,458.13423)">
      <path
         d="m 0,0 c 0.069,-0.188 0.013,-0.419 -0.181,-0.652 l -10.21,-12.233 c -0.387,-0.462 -1.177,-0.752 -1.768,-0.649 l -22.725,4.013 c -0.295,0.053 -0.486,0.19 -0.552,0.375 0.2,-0.539 0.401,-1.081 0.601,-1.622 0.066,-0.185 0.256,-0.323 0.551,-0.376 l 22.724,-4.012 c 0.592,-0.103 1.385,0.187 1.77,0.649 L 0.421,-2.276 c 0.193,0.233 0.248,0.466 0.18,0.652 z"
         style="fill:#bfc1c1;fill-opacity:1;fill-rule:nonzero;stroke:none"
         id="path15342"
         inkscape:connector-curvature="0" />
    </g>
    <g
       id="g15344"
       transform="matrix(0.35277777,0,0,-0.35277777,-916.70013,955.04431)">
      <g
         id="g15346"
         clip-path="url(#clipPath15350)">
        <g
           id="g15352"
           transform="translate(2073.4844,1401.6313)">
          <path
             d="m 0,0 0.036,-0.102 c 0.05,-0.135 0.189,-0.237 0.402,-0.274 0.435,-0.079 1.016,0.135 1.3,0.476 0.142,0.171 0.184,0.342 0.133,0.477 L 1.835,0.681 C 1.885,0.543 1.844,0.372 1.702,0.201 1.417,-0.139 0.835,-0.353 0.4,-0.276 0.186,-0.239 0.049,-0.136 0,0"
             style="fill:#d1d1d1;fill-opacity:1;fill-rule:nonzero;stroke:none"
             id="path15354"
             inkscape:connector-curvature="0" />
        </g>
      </g>
    </g>
    <g
       id="g15364"
       transform="matrix(0.35277777,0,0,-0.35277777,-185.17509,460.41078)">
      <path
         d="M 0,0 C -0.281,-0.34 -0.162,-0.679 0.271,-0.755 0.705,-0.833 1.287,-0.619 1.572,-0.278 1.855,0.061 1.735,0.401 1.3,0.476 0.865,0.554 0.283,0.339 0,0"
         style="fill:#c1c7c8;fill-opacity:1;fill-rule:nonzero;stroke:none"
         id="path15366"
         inkscape:connector-curvature="0" />
    </g>
    <g
       id="g15368"
       transform="matrix(0.35277777,0,0,-0.35277777,-183.90213,460.38354)">
      <path
         d="M 0,0 -0.256,0.581 -2.407,-2 -2.168,-2.585 Z"
         style="fill:#4f4f4f;fill-opacity:1;fill-rule:nonzero;stroke:none"
         id="path15370"
         inkscape:connector-curvature="0" />
    </g>
    <g
       id="g15372"
       transform="matrix(0.35277777,0,0,-0.35277777,-183.90213,460.38354)">
      <path
         d="M 0,0 -0.588,0.172 -2.407,-2 -2.168,-2.585 Z"
         style="fill:#5b5b5b;fill-opacity:1;fill-rule:nonzero;stroke:none"
         id="path15374"
         inkscape:connector-curvature="0" />
    </g>
    <g
       id="g15376"
       transform="matrix(0.35277777,0,0,-0.35277777,-193.98593,461.75158)">
      <path
         d="M 0,0 0.767,-0.14 C 0.789,-0.146 0.809,-0.162 0.812,-0.184 L 1.139,-1.15 C 1.143,-1.168 1.129,-1.184 1.112,-1.18 l -0.723,0.109 z"
         style="fill:#505151;fill-opacity:1;fill-rule:nonzero;stroke:none"
         id="path15378"
         inkscape:connector-curvature="0" />
    </g>
    <g
       id="g15380"
       transform="matrix(0.35277777,0,0,-0.35277777,-193.69965,461.81635)">
      <path
         d="m 0,0 c -0.003,0.021 -0.022,0.038 -0.045,0.043 l -0.706,0.13 0.373,-1.025 0.702,-0.109 z"
         style="fill:#5e6060;fill-opacity:1;fill-rule:nonzero;stroke:none"
         id="path15382"
         inkscape:connector-curvature="0" />
    </g>
    <g
       id="g15384"
       transform="matrix(0.35277777,0,0,-0.35277777,-193.94458,461.7647)">
      <path
         d="m 0,0 c -0.034,0.005 -0.057,-0.002 -0.07,-0.018 l -0.189,-0.23 c 0.012,0.016 0.036,0.023 0.067,0.018 0.061,-0.011 0.129,-0.068 0.148,-0.125 L 0.264,-1.198 C 0.274,-1.227 0.271,-1.25 0.258,-1.266 l 0.19,0.228 c 0.015,0.018 0.018,0.041 0.006,0.071 L 0.146,-0.125 C 0.127,-0.068 0.06,-0.011 0,0"
         style="fill:#a7a9aa;fill-opacity:1;fill-rule:nonzero;stroke:none"
         id="path15386"
         inkscape:connector-curvature="0" />
    </g>
    <g
       id="g15388"
       transform="matrix(0.35277777,0,0,-0.35277777,-194.01247,461.84598)">
      <path
         d="M 0,0 C 0.062,-0.011 0.129,-0.067 0.148,-0.125 L 0.456,-0.968 C 0.479,-1.025 0.443,-1.062 0.384,-1.053 0.323,-1.042 0.255,-0.985 0.233,-0.927 l -0.306,0.842 C -0.094,-0.028 -0.063,0.011 0,0"
         style="fill:#e5e5e5;fill-opacity:1;fill-rule:nonzero;stroke:none"
         id="path15390"
         inkscape:connector-curvature="0" />
    </g>
    <g
       id="g15392"
       transform="matrix(0.35277777,0,0,-0.35277777,-193.82231,461.78294)">
      <path
         d="m 0,0 0.354,-1.006 0.318,-0.05 -0.324,0.961 c -0.003,0.022 -0.023,0.038 -0.045,0.044 z"
         style="fill:#d64355;fill-opacity:1;fill-rule:nonzero;stroke:none"
         id="path15394"
         inkscape:connector-curvature="0" />
    </g>
    <g
       id="g15396"
       transform="matrix(0.35277777,0,0,-0.35277777,-193.26214,459.10698)">
      <path
         d="m 0,0 c 0,0 4.234,1.278 5.735,1.272 1.499,-0.006 7.697,-2.158 7.697,-2.158 0,0 0.611,-0.836 -0.341,-0.96 -0.954,-0.122 -4.123,0.161 -4.123,0.161 0,0 -0.387,-1.644 -0.784,-2.357 -0.401,-0.716 -0.691,-1.456 -2.083,-1.476 -1.391,-0.02 -1.924,1.146 -1.924,1.146 0,0 -3.232,-0.264 -4.74,0.209 C -2.07,-3.694 -1.538,-1.142 0,0"
         style="fill:#f2c8a5;fill-opacity:1;fill-rule:nonzero;stroke:none"
         id="path15398"
         inkscape:connector-curvature="0" />
    </g>
    <path
       inkscape:connector-curvature="0"
       id="path15402"
       style="fill:#f2c8a5;fill-opacity:1;fill-rule:nonzero;stroke:none;stroke-width:0.35277778"
       d="m -192.74639,458.94848 c 0,0 -0.52917,0.3309 -0.63466,0.75424 -0.11925,0.4766 0.15875,0.87277 0.15875,0.87277 0,0 -5.87303,1.07174 -8.8886,-0.079 -1.19697,-0.45685 -1.34972,-1.34938 -1.34972,-1.34938 l -1.4284,-7.89657 c -0.23881,-2.42077 0.83328,-3.11997 2.16784,-2.91183 1.36347,0.21343 1.68097,3.26884 1.76106,4.61786 0.0483,0.83538 0.42156,3.14501 0.63463,4.20652 0.15912,0.79375 0.34785,0.79022 0.83328,0.87313 z" />
  </g>
</svg>
