<?xml version="1.0" encoding="UTF-8" standalone="no"?>
<!-- Created with Inkscape (http://www.inkscape.org/) -->

<svg
   xmlns:dc="http://purl.org/dc/elements/1.1/"
   xmlns:cc="http://creativecommons.org/ns#"
   xmlns:rdf="http://www.w3.org/1999/02/22-rdf-syntax-ns#"
   xmlns:svg="http://www.w3.org/2000/svg"
   xmlns="http://www.w3.org/2000/svg"
   xmlns:sodipodi="http://sodipodi.sourceforge.net/DTD/sodipodi-0.dtd"
   xmlns:inkscape="http://www.inkscape.org/namespaces/inkscape"
   width="21.778275mm"
   height="55.579166mm"
   viewBox="0 0 21.778272 55.579166"
   version="1.1"
   id="svg45331"
   inkscape:version="0.92.3 (2405546, 2018-03-11)"
   sodipodi:docname="people-casual-12.svg">
  <defs
     id="defs45325">
    <clipPath
       id="clipPath2864"
       clipPathUnits="userSpaceOnUse">
      <path
         inkscape:connector-curvature="0"
         id="path2862"
         d="m 1713.778,1928.833 c -0.536,-0.312 -0.927,-0.874 -1.106,-1.65 v 0 l 1.125,0.653 c 0.179,0.778 0.57,1.34 1.107,1.651 v 0 z" />
    </clipPath>
    <clipPath
       id="clipPath2848"
       clipPathUnits="userSpaceOnUse">
      <path
         inkscape:connector-curvature="0"
         id="path2846"
         d="M 0,2119.953 H 3253.108 V 0 H 0 Z" />
    </clipPath>
    <clipPath
       id="clipPath2836"
       clipPathUnits="userSpaceOnUse">
      <path
         inkscape:connector-curvature="0"
         id="path2834"
         d="m 1711.152,1926.674 v -0.651 c 0.308,-0.179 0.813,-0.18 1.126,0 v 0 0.651 c -0.315,-0.183 -0.82,-0.178 -1.129,0" />
    </clipPath>
    <clipPath
       id="clipPath2820"
       clipPathUnits="userSpaceOnUse">
      <path
         inkscape:connector-curvature="0"
         id="path2818"
         d="M 0,2119.953 H 3253.108 V 0 H 0 Z" />
    </clipPath>
    <clipPath
       id="clipPath2808"
       clipPathUnits="userSpaceOnUse">
      <path
         inkscape:connector-curvature="0"
         id="path2806"
         d="m 1710.148,1926.8 c 0,-0.121 0.077,-0.238 0.231,-0.325 v 0 0.65 c -0.156,0.087 -0.233,0.207 -0.233,0.324 v 0 -0.649 z" />
    </clipPath>
    <clipPath
       id="clipPath2796"
       clipPathUnits="userSpaceOnUse">
      <path
         inkscape:connector-curvature="0"
         id="path2794"
         d="m 1714.756,1928.103 v -0.65 c 0.158,0.09 0.237,0.211 0.237,0.331 v 0 0.65 c 0,-0.119 -0.078,-0.24 -0.236,-0.331" />
    </clipPath>
    <clipPath
       id="clipPath2784"
       clipPathUnits="userSpaceOnUse">
      <path
         inkscape:connector-curvature="0"
         id="path2782"
         d="M 0,2119.953 H 3253.108 V 0 H 0 Z" />
    </clipPath>
    <clipPath
       id="clipPath2772"
       clipPathUnits="userSpaceOnUse">
      <path
         inkscape:connector-curvature="0"
         id="path2770"
         d="m 1720.53,1921.188 10e-4,-0.65 c 0.309,-0.181 0.814,-0.181 1.128,0 v 0 0.65 c -0.316,-0.182 -0.821,-0.181 -1.129,0" />
    </clipPath>
    <clipPath
       id="clipPath2756"
       clipPathUnits="userSpaceOnUse">
      <path
         inkscape:connector-curvature="0"
         id="path2754"
         d="M 0,2119.953 H 3253.108 V 0 H 0 Z" />
    </clipPath>
    <clipPath
       id="clipPath2744"
       clipPathUnits="userSpaceOnUse">
      <path
         inkscape:connector-curvature="0"
         id="path2742"
         d="m 1719.524,1921.312 c 0,-0.119 0.08,-0.235 0.234,-0.324 v 0 0.65 c -0.154,0.089 -0.233,0.207 -0.233,0.324 v 0 -0.65 z" />
    </clipPath>
    <clipPath
       id="clipPath2732"
       clipPathUnits="userSpaceOnUse">
      <path
         inkscape:connector-curvature="0"
         id="path2730"
         d="m 1724.133,1922.619 v -0.654 c 0.158,0.094 0.238,0.212 0.238,0.331 v 0 0.65 c 0,-0.117 -0.08,-0.238 -0.238,-0.327" />
    </clipPath>
    <clipPath
       id="clipPath2536"
       clipPathUnits="userSpaceOnUse">
      <path
         inkscape:connector-curvature="0"
         id="path2534"
         d="m 1708.77,1889.11 h 53.56 v -38.31 h -53.56 z" />
    </clipPath>
    <clipPath
       id="clipPath3428"
       clipPathUnits="userSpaceOnUse">
      <path
         inkscape:connector-curvature="0"
         id="path3426"
         d="m 1819.231,1919.634 0.051,-0.722 c 0.167,0.114 0.248,0.253 0.238,0.383 v 0 l -0.048,0.721 c 0.01,-0.131 -0.071,-0.272 -0.241,-0.382" />
    </clipPath>
    <clipPath
       id="clipPath3440"
       clipPathUnits="userSpaceOnUse">
      <path
         inkscape:connector-curvature="0"
         id="path3438"
         d="m 1814.225,1917.859 c 0.01,-0.132 0.103,-0.255 0.282,-0.343 v 0 l -0.049,0.721 c -0.177,0.085 -0.273,0.212 -0.281,0.34 v 0 z" />
    </clipPath>
    <clipPath
       id="clipPath3452"
       clipPathUnits="userSpaceOnUse">
      <path
         inkscape:connector-curvature="0"
         id="path3450"
         d="M 0,2119.953 H 3253.108 V 0 H 0 Z" />
    </clipPath>
    <clipPath
       id="clipPath3468"
       clipPathUnits="userSpaceOnUse">
      <path
         inkscape:connector-curvature="0"
         id="path3466"
         d="m 1815.349,1917.792 0.046,-0.72 c 0.354,-0.177 0.915,-0.14 1.248,0.082 v 0 l -0.048,0.721 c -0.335,-0.223 -0.893,-0.259 -1.246,-0.083" />
    </clipPath>
    <clipPath
       id="clipPath3480"
       clipPathUnits="userSpaceOnUse">
      <path
         inkscape:connector-curvature="0"
         id="path3478"
         d="M 0,2119.953 H 3253.108 V 0 H 0 Z" />
    </clipPath>
    <clipPath
       id="clipPath3492"
       clipPathUnits="userSpaceOnUse">
      <path
         inkscape:connector-curvature="0"
         id="path3490"
         d="m 1808.461,1925.033 0.049,-0.719 c 0.167,0.112 0.245,0.25 0.238,0.383 v 0 l -0.049,0.719 c 0.01,-0.131 -0.07,-0.268 -0.238,-0.383" />
    </clipPath>
    <clipPath
       id="clipPath3504"
       clipPathUnits="userSpaceOnUse">
      <path
         inkscape:connector-curvature="0"
         id="path3502"
         d="m 1803.454,1923.259 c 0.01,-0.132 0.102,-0.258 0.279,-0.342 v 0 l -0.048,0.72 c -0.177,0.086 -0.273,0.214 -0.28,0.342 v 0 z" />
    </clipPath>
    <clipPath
       id="clipPath3516"
       clipPathUnits="userSpaceOnUse">
      <path
         inkscape:connector-curvature="0"
         id="path3514"
         d="M 0,2119.953 H 3253.108 V 0 H 0 Z" />
    </clipPath>
    <clipPath
       id="clipPath3532"
       clipPathUnits="userSpaceOnUse">
      <path
         inkscape:connector-curvature="0"
         id="path3530"
         d="m 1804.576,1923.193 0.047,-0.721 c 0.353,-0.175 0.915,-0.14 1.248,0.081 v 0 l -0.049,0.722 c -0.333,-0.223 -0.894,-0.258 -1.246,-0.082" />
    </clipPath>
    <clipPath
       id="clipPath3544"
       clipPathUnits="userSpaceOnUse">
      <path
         inkscape:connector-curvature="0"
         id="path3542"
         d="M 0,2119.953 H 3253.108 V 0 H 0 Z" />
    </clipPath>
    <clipPath
       id="clipPath3560"
       clipPathUnits="userSpaceOnUse">
      <path
         inkscape:connector-curvature="0"
         id="path3558"
         d="m 1807.327,1925.772 c -0.572,-0.383 -0.964,-1.034 -1.106,-1.907 v 0 l 1.197,0.803 c 0.144,0.873 0.537,1.525 1.109,1.907 v 0 z" />
    </clipPath>
    <clipPath
       id="clipPath3240"
       clipPathUnits="userSpaceOnUse">
      <path
         inkscape:connector-curvature="0"
         id="path3238"
         d="m 1804.45,1875.26 h 66.26 v -26.97 h -66.26 z" />
    </clipPath>
    <clipPath
       id="clipPath3596"
       clipPathUnits="userSpaceOnUse">
      <path
         inkscape:connector-curvature="0"
         id="path3594"
         d="m 1887.55,1874.88 h 68.5 v -28.2 h -68.5 z" />
    </clipPath>
    <clipPath
       id="clipPath3760"
       clipPathUnits="userSpaceOnUse">
      <path
         inkscape:connector-curvature="0"
         id="path3758"
         d="m 1940.709,1921.043 c -0.01,-0.134 0.073,-0.277 0.243,-0.394 v 0 l 0.052,0.743 c -0.176,0.111 -0.256,0.256 -0.246,0.388 v 0 z" />
    </clipPath>
    <clipPath
       id="clipPath3772"
       clipPathUnits="userSpaceOnUse">
      <path
         inkscape:connector-curvature="0"
         id="path3770"
         d="m 1945.896,1919.955 -0.048,-0.737 c 0.182,0.088 0.281,0.215 0.289,0.351 v 0 l 0.048,0.737 c -0.01,-0.134 -0.106,-0.261 -0.289,-0.351" />
    </clipPath>
    <clipPath
       id="clipPath3784"
       clipPathUnits="userSpaceOnUse">
      <path
         inkscape:connector-curvature="0"
         id="path3782"
         d="M 0,2119.953 H 3253.108 V 0 H 0 Z" />
    </clipPath>
    <clipPath
       id="clipPath3800"
       clipPathUnits="userSpaceOnUse">
      <path
         inkscape:connector-curvature="0"
         id="path3798"
         d="m 1943.658,1918.845 c 0.343,-0.226 0.914,-0.264 1.28,-0.084 v 0 l 0.047,0.741 c -0.361,-0.182 -0.936,-0.146 -1.28,0.084 v 0 z" />
    </clipPath>
    <clipPath
       id="clipPath3812"
       clipPathUnits="userSpaceOnUse">
      <path
         inkscape:connector-curvature="0"
         id="path3810"
         d="M 0,2119.953 H 3253.108 V 0 H 0 Z" />
    </clipPath>
    <clipPath
       id="clipPath3824"
       clipPathUnits="userSpaceOnUse">
      <path
         inkscape:connector-curvature="0"
         id="path3822"
         d="m 1951.754,1926.58 c -0.01,-0.136 0.071,-0.278 0.241,-0.392 v 0 l 0.052,0.737 c -0.174,0.117 -0.253,0.258 -0.245,0.391 v 0 z" />
    </clipPath>
    <clipPath
       id="clipPath3836"
       clipPathUnits="userSpaceOnUse">
      <path
         inkscape:connector-curvature="0"
         id="path3834"
         d="m 1956.943,1925.491 -0.049,-0.737 c 0.18,0.088 0.277,0.215 0.287,0.352 v 0 l 0.049,0.737 c -0.01,-0.132 -0.104,-0.262 -0.287,-0.352" />
    </clipPath>
    <clipPath
       id="clipPath3848"
       clipPathUnits="userSpaceOnUse">
      <path
         inkscape:connector-curvature="0"
         id="path3846"
         d="M 0,2119.953 H 3253.108 V 0 H 0 Z" />
    </clipPath>
    <clipPath
       id="clipPath3864"
       clipPathUnits="userSpaceOnUse">
      <path
         inkscape:connector-curvature="0"
         id="path3862"
         d="m 1954.703,1924.383 c 0.34,-0.229 0.916,-0.262 1.279,-0.086 v 0 l 0.049,0.743 c -0.361,-0.183 -0.938,-0.15 -1.279,0.081 v 0 z" />
    </clipPath>
    <clipPath
       id="clipPath3876"
       clipPathUnits="userSpaceOnUse">
      <path
         inkscape:connector-curvature="0"
         id="path3874"
         d="M 0,2119.953 H 3253.108 V 0 H 0 Z" />
    </clipPath>
    <clipPath
       id="clipPath3892"
       clipPathUnits="userSpaceOnUse">
      <path
         inkscape:connector-curvature="0"
         id="path3890"
         d="m 1953.117,1926.55 1.227,-0.822 c -0.145,0.891 -0.551,1.561 -1.133,1.955 v 0 l -1.232,0.823 c 0.588,-0.393 0.989,-1.061 1.138,-1.956" />
    </clipPath>
    <clipPath
       id="clipPath3948"
       clipPathUnits="userSpaceOnUse">
      <path
         inkscape:connector-curvature="0"
         id="path3946"
         d="m 2018.76,1870.93 h 70.11 v -23.75 h -70.11 z" />
    </clipPath>
    <clipPath
       id="clipPath4212"
       clipPathUnits="userSpaceOnUse">
      <path
         inkscape:connector-curvature="0"
         id="path4210"
         d="m 2154.433,1916.311 c 0,-0.141 0.087,-0.289 0.273,-0.405 v 0 l 0.028,0.784 c -0.187,0.117 -0.276,0.264 -0.271,0.407 v 0 z" />
    </clipPath>
    <clipPath
       id="clipPath4224"
       clipPathUnits="userSpaceOnUse">
      <path
         inkscape:connector-curvature="0"
         id="path4222"
         d="m 2159.973,1915.328 -0.03,-0.782 c 0.192,0.1 0.289,0.239 0.295,0.381 v 0 l 0.027,0.785 c 0,-0.142 -0.103,-0.28 -0.292,-0.384" />
    </clipPath>
    <clipPath
       id="clipPath4236"
       clipPathUnits="userSpaceOnUse">
      <path
         inkscape:connector-curvature="0"
         id="path4234"
         d="M 0,2119.953 H 3253.108 V 0 H 0 Z" />
    </clipPath>
    <clipPath
       id="clipPath4252"
       clipPathUnits="userSpaceOnUse">
      <path
         inkscape:connector-curvature="0"
         id="path4250"
         d="m 2157.634,1914.081 c 0.368,-0.23 0.978,-0.251 1.357,-0.046 v 0 l 0.029,0.783 c -0.377,-0.203 -0.988,-0.185 -1.36,0.049 v 0 z" />
    </clipPath>
    <clipPath
       id="clipPath4264"
       clipPathUnits="userSpaceOnUse">
      <path
         inkscape:connector-curvature="0"
         id="path4262"
         d="M 0,2119.953 H 3253.108 V 0 H 0 Z" />
    </clipPath>
    <clipPath
       id="clipPath4276"
       clipPathUnits="userSpaceOnUse">
      <path
         inkscape:connector-curvature="0"
         id="path4274"
         d="m 2165.961,1922.544 c 0,-0.146 0.086,-0.293 0.271,-0.409 v 0 l 0.032,0.784 c -0.188,0.117 -0.279,0.265 -0.274,0.408 v 0 z" />
    </clipPath>
    <clipPath
       id="clipPath4288"
       clipPathUnits="userSpaceOnUse">
      <path
         inkscape:connector-curvature="0"
         id="path4286"
         d="m 2171.5,1921.561 -0.028,-0.785 c 0.189,0.101 0.287,0.239 0.293,0.379 v 0 l 0.028,0.787 c 0,-0.142 -0.102,-0.281 -0.293,-0.381" />
    </clipPath>
    <clipPath
       id="clipPath4300"
       clipPathUnits="userSpaceOnUse">
      <path
         inkscape:connector-curvature="0"
         id="path4298"
         d="M 0,2119.953 H 3253.108 V 0 H 0 Z" />
    </clipPath>
    <clipPath
       id="clipPath4316"
       clipPathUnits="userSpaceOnUse">
      <path
         inkscape:connector-curvature="0"
         id="path4314"
         d="m 2169.16,1920.31 c 0.37,-0.229 0.979,-0.249 1.359,-0.045 v 0 l 0.03,0.784 c -0.379,-0.201 -0.99,-0.186 -1.36,0.046 v 0 z" />
    </clipPath>
    <clipPath
       id="clipPath4328"
       clipPathUnits="userSpaceOnUse">
      <path
         inkscape:connector-curvature="0"
         id="path4326"
         d="M 0,2119.953 H 3253.108 V 0 H 0 Z" />
    </clipPath>
    <clipPath
       id="clipPath4344"
       clipPathUnits="userSpaceOnUse">
      <path
         inkscape:connector-curvature="0"
         id="path4342"
         d="m 2167.406,1922.556 1.331,-0.832 c -0.186,0.942 -0.633,1.637 -1.266,2.036 v 0 l -1.332,0.833 c 0.636,-0.396 1.084,-1.091 1.267,-2.037" />
    </clipPath>
    <clipPath
       id="clipPath4598"
       clipPathUnits="userSpaceOnUse">
      <path
         inkscape:connector-curvature="0"
         id="path4596"
         d="m 2331.633,1939.514 c 0,-0.142 0.1,-0.287 0.296,-0.396 v 0 0.783 c -0.196,0.107 -0.292,0.246 -0.292,0.387 v 0 -0.774 z" />
    </clipPath>
    <clipPath
       id="clipPath4610"
       clipPathUnits="userSpaceOnUse">
      <path
         inkscape:connector-curvature="0"
         id="path4608"
         d="m 2337.17,1938.719 v -0.771 c 0.189,0.099 0.285,0.249 0.285,0.379 v 0 0.787 c 0,-0.14 -0.091,-0.287 -0.283,-0.395" />
    </clipPath>
    <clipPath
       id="clipPath4622"
       clipPathUnits="userSpaceOnUse">
      <path
         inkscape:connector-curvature="0"
         id="path4620"
         d="M 0,2119.953 H 3253.108 V 0 H 0 Z" />
    </clipPath>
    <clipPath
       id="clipPath4638"
       clipPathUnits="userSpaceOnUse">
      <path
         inkscape:connector-curvature="0"
         id="path4636"
         d="m 2334.888,1938.187 v -0.785 c 0.382,-0.217 0.981,-0.217 1.349,0 v 0 0.785 c -0.368,-0.217 -0.963,-0.217 -1.349,0" />
    </clipPath>
    <clipPath
       id="clipPath4650"
       clipPathUnits="userSpaceOnUse">
      <path
         inkscape:connector-curvature="0"
         id="path4648"
         d="M 0,2119.953 H 3253.108 V 0 H 0 Z" />
    </clipPath>
    <clipPath
       id="clipPath4662"
       clipPathUnits="userSpaceOnUse">
      <path
         inkscape:connector-curvature="0"
         id="path4660"
         d="m 2342.868,1946.09 c 0,-0.141 0.101,-0.294 0.291,-0.401 v 0 l 0.01,0.777 c -0.195,0.113 -0.291,0.255 -0.291,0.401 v 0 z" />
    </clipPath>
    <clipPath
       id="clipPath4674"
       clipPathUnits="userSpaceOnUse">
      <path
         inkscape:connector-curvature="0"
         id="path4672"
         d="m 2348.401,1945.298 v -0.782 c 0.182,0.104 0.277,0.25 0.277,0.39 v 0 l 0.01,0.781 c 0,-0.143 -0.095,-0.282 -0.282,-0.389" />
    </clipPath>
    <clipPath
       id="clipPath4686"
       clipPathUnits="userSpaceOnUse">
      <path
         inkscape:connector-curvature="0"
         id="path4684"
         d="M 0,2119.953 H 3253.108 V 0 H 0 Z" />
    </clipPath>
    <clipPath
       id="clipPath4702"
       clipPathUnits="userSpaceOnUse">
      <path
         inkscape:connector-curvature="0"
         id="path4700"
         d="m 2346.127,1944.756 v -0.778 c 0.376,-0.212 0.982,-0.212 1.348,0 v 0 0.778 c -0.366,-0.213 -0.972,-0.213 -1.348,0" />
    </clipPath>
    <clipPath
       id="clipPath4714"
       clipPathUnits="userSpaceOnUse">
      <path
         inkscape:connector-curvature="0"
         id="path4712"
         d="M 0,2119.953 H 3253.108 V 0 H 0 Z" />
    </clipPath>
    <clipPath
       id="clipPath4730"
       clipPathUnits="userSpaceOnUse">
      <path
         inkscape:connector-curvature="0"
         id="path4728"
         d="m 2343.05,1948.089 c -0.023,0.013 -0.045,0.026 -0.068,0.038 v 0 z m 1.257,-1.939 1.349,-0.782 c -0.21,0.926 -0.683,1.603 -1.326,1.976 v 0 l -1.28,0.745 c 0.612,-0.371 1.048,-1.041 1.257,-1.939" />
    </clipPath>
    <clipPath
       id="clipPath4742"
       clipPathUnits="userSpaceOnUse">
      <path
         inkscape:connector-curvature="0"
         id="path4740"
         d="M 0,2119.953 H 3253.108 V 0 H 0 Z" />
    </clipPath>
    <clipPath
       id="clipPath4918"
       clipPathUnits="userSpaceOnUse">
      <path
         inkscape:connector-curvature="0"
         id="path4916"
         d="m 2276.169,1866.541 c 0,-0.151 0.1,-0.291 0.285,-0.401 v 0 0.785 c -0.19,0.105 -0.286,0.259 -0.286,0.394 v 0 -0.778 z" />
    </clipPath>
    <clipPath
       id="clipPath4930"
       clipPathUnits="userSpaceOnUse">
      <path
         inkscape:connector-curvature="0"
         id="path4928"
         d="m 2281.734,1865.741 -0.01,-0.776 c 0.185,0.103 0.278,0.244 0.278,0.385 v 0 0.786 c 0,-0.141 -0.096,-0.281 -0.276,-0.395" />
    </clipPath>
    <clipPath
       id="clipPath4942"
       clipPathUnits="userSpaceOnUse">
      <path
         inkscape:connector-curvature="0"
         id="path4940"
         d="M 0,2119.953 H 3253.108 V 0 H 0 Z" />
    </clipPath>
    <clipPath
       id="clipPath4958"
       clipPathUnits="userSpaceOnUse">
      <path
         inkscape:connector-curvature="0"
         id="path4956"
         d="m 2279.442,1865.203 v -0.782 c 0.372,-0.219 0.983,-0.219 1.351,0 v 0 0.782 c -0.372,-0.221 -0.983,-0.221 -1.355,0" />
    </clipPath>
    <clipPath
       id="clipPath4970"
       clipPathUnits="userSpaceOnUse">
      <path
         inkscape:connector-curvature="0"
         id="path4968"
         d="M 0,2119.953 H 3253.108 V 0 H 0 Z" />
    </clipPath>
    <clipPath
       id="clipPath4982"
       clipPathUnits="userSpaceOnUse">
      <path
         inkscape:connector-curvature="0"
         id="path4980"
         d="m 2287.467,1873.148 c 0,-0.144 0.095,-0.29 0.287,-0.404 v 0 0.786 c -0.191,0.114 -0.29,0.258 -0.29,0.404 v 0 -0.786 z" />
    </clipPath>
    <clipPath
       id="clipPath4994"
       clipPathUnits="userSpaceOnUse">
      <path
         inkscape:connector-curvature="0"
         id="path4992"
         d="m 2293.032,1872.36 v -0.782 c 0.191,0.096 0.282,0.241 0.282,0.378 v 0 0.788 c 0,-0.14 -0.094,-0.281 -0.281,-0.384" />
    </clipPath>
    <clipPath
       id="clipPath5006"
       clipPathUnits="userSpaceOnUse">
      <path
         inkscape:connector-curvature="0"
         id="path5004"
         d="M 0,2119.953 H 3253.108 V 0 H 0 Z" />
    </clipPath>
    <clipPath
       id="clipPath5022"
       clipPathUnits="userSpaceOnUse">
      <path
         inkscape:connector-curvature="0"
         id="path5020"
         d="m 2290.745,1871.81 -0.01,-0.78 c 0.377,-0.22 0.986,-0.214 1.353,0 v 0 0.78 c -0.371,-0.212 -0.98,-0.212 -1.351,0" />
    </clipPath>
    <clipPath
       id="clipPath5034"
       clipPathUnits="userSpaceOnUse">
      <path
         inkscape:connector-curvature="0"
         id="path5032"
         d="M 0,2119.953 H 3253.108 V 0 H 0 Z" />
    </clipPath>
    <clipPath
       id="clipPath5050"
       clipPathUnits="userSpaceOnUse">
      <path
         inkscape:connector-curvature="0"
         id="path5048"
         d="m 2288.91,1873.212 1.359,-0.784 c -0.216,0.934 -0.691,1.61 -1.337,1.987 v 0 l -1.356,0.791 c 0.652,-0.377 1.121,-1.054 1.334,-1.994" />
    </clipPath>
    <clipPath
       id="clipPath4408"
       clipPathUnits="userSpaceOnUse">
      <path
         inkscape:connector-curvature="0"
         id="path4406"
         d="m 2301.08,1906.05 h 45.97 v -31.57 h -45.97 z" />
    </clipPath>
    <clipPath
       id="clipPath4392"
       clipPathUnits="userSpaceOnUse">
      <path
         inkscape:connector-curvature="0"
         id="path4390"
         d="m 2227.58,1871.71 h 52.38 v -32.03 h -52.38 z" />
    </clipPath>
    <clipPath
       id="clipPath5114"
       clipPathUnits="userSpaceOnUse">
      <path
         inkscape:connector-curvature="0"
         id="path5112"
         d="m 2417.33,1884.9 h 51.88 v -27.05 h -51.88 z" />
    </clipPath>
    <clipPath
       id="clipPath5554"
       clipPathUnits="userSpaceOnUse">
      <path
         inkscape:connector-curvature="0"
         id="path5552"
         d="m 2532.68,1877.97 h 61.16 v -27.88 h -61.16 z" />
    </clipPath>
    <clipPath
       id="clipPath5662"
       clipPathUnits="userSpaceOnUse">
      <path
         inkscape:connector-curvature="0"
         id="path5660"
         d="m 2652.02,1878.72 h 75.96 v -28.55 h -75.96 z" />
    </clipPath>
    <clipPath
       id="clipPath5782"
       clipPathUnits="userSpaceOnUse">
      <path
         inkscape:connector-curvature="0"
         id="path5780"
         d="m 2686.34,2040.48 h 6.76 v -5.02 h -6.76 z" />
    </clipPath>
    <clipPath
       id="clipPath5454"
       clipPathUnits="userSpaceOnUse">
      <path
         inkscape:connector-curvature="0"
         id="path5452"
         d="m 2763.78,1887.52 h 61.17 v -27.89 h -61.17 z" />
    </clipPath>
    <clipPath
       id="clipPath5226"
       clipPathUnits="userSpaceOnUse">
      <path
         inkscape:connector-curvature="0"
         id="path5224"
         d="m 2874.06,1879.83 h 115.04 v -37.41 h -115.04 z" />
    </clipPath>
    <clipPath
       id="clipPath5266"
       clipPathUnits="userSpaceOnUse">
      <path
         inkscape:connector-curvature="0"
         id="path5264"
         d="m 2898.47,1905.023 c -0.019,-0.014 -0.036,-0.025 -0.058,-0.038 v 0 c -0.579,-0.382 -0.588,-1.091 -0.535,-1.501 v 0 l 39.797,23.128 c -0.051,0.406 -0.042,1.119 0.537,1.502 v 0 c 0.018,0.012 0.037,0.024 0.058,0.036 v 0 c -13.266,-7.711 -26.531,-15.418 -39.799,-23.127" />
    </clipPath>
    <clipPath
       id="clipPath3000"
       clipPathUnits="userSpaceOnUse">
      <path
         inkscape:connector-curvature="0"
         id="path2998"
         d="m 3070.44,1903.77 h 111.77 v -40.19 h -111.77 z" />
    </clipPath>
    <clipPath
       id="clipPath6042"
       clipPathUnits="userSpaceOnUse">
      <path
         inkscape:connector-curvature="0"
         id="path6040"
         d="m 409.323,1548.74 h 49.951 v -25.11 h -49.951 z" />
    </clipPath>
    <clipPath
       id="clipPath5930"
       clipPathUnits="userSpaceOnUse">
      <path
         inkscape:connector-curvature="0"
         id="path5928"
         d="m 516.004,1548.66 h 54.751 v -25.03 h -54.751 z" />
    </clipPath>
    <clipPath
       id="clipPath6142"
       clipPathUnits="userSpaceOnUse">
      <path
         inkscape:connector-curvature="0"
         id="path6140"
         d="m 636.118,1542.78 h 45.362 v -19.15 h -45.362 z" />
    </clipPath>
    <clipPath
       id="clipPath6318"
       clipPathUnits="userSpaceOnUse">
      <path
         inkscape:connector-curvature="0"
         id="path6316"
         d="m 763.75,1602.23 h 22.211 v -7.49 H 763.75 Z" />
    </clipPath>
    <clipPath
       id="clipPath6242"
       clipPathUnits="userSpaceOnUse">
      <path
         inkscape:connector-curvature="0"
         id="path6240"
         d="m 749.178,1542.78 h 45.362 v -19.15 h -45.362 z" />
    </clipPath>
    <clipPath
       id="clipPath6358"
       clipPathUnits="userSpaceOnUse">
      <path
         inkscape:connector-curvature="0"
         id="path6356"
         d="m 859.142,1541.98 h 55.33 v -18.35 h -55.33 z" />
    </clipPath>
    <clipPath
       id="clipPath6562"
       clipPathUnits="userSpaceOnUse">
      <path
         inkscape:connector-curvature="0"
         id="path6560"
         d="m 972.921,1548.99 h 50.329 v -25.36 h -50.329 z" />
    </clipPath>
    <clipPath
       id="clipPath6898"
       clipPathUnits="userSpaceOnUse">
      <path
         inkscape:connector-curvature="0"
         id="path6896"
         d="m 1113.757,1660.871 0.977,-0.369 c -0.337,0.508 -0.215,1.396 0.271,1.968 v 0 l -0.978,0.368 c -0.484,-0.573 -0.605,-1.457 -0.27,-1.967" />
    </clipPath>
    <clipPath
       id="clipPath6882"
       clipPathUnits="userSpaceOnUse">
      <path
         inkscape:connector-curvature="0"
         id="path6880"
         d="M 0,2119.953 H 3253.108 V 0 H 0 Z" />
    </clipPath>
    <clipPath
       id="clipPath6870"
       clipPathUnits="userSpaceOnUse">
      <path
         inkscape:connector-curvature="0"
         id="path6868"
         d="m 1120.652,1670.681 0.975,-0.367 c 0.342,0.405 0.774,0.55 1.118,0.419 v 0 l -0.98,0.369 c -0.082,0.031 -0.168,0.047 -0.258,0.047 v 0 c -0.283,0 -0.596,-0.157 -0.855,-0.468" />
    </clipPath>
    <clipPath
       id="clipPath6858"
       clipPathUnits="userSpaceOnUse">
      <path
         inkscape:connector-curvature="0"
         id="path6856"
         d="m 1116.5,1656.939 0.98,-0.367 c -0.144,0.053 -0.271,0.155 -0.374,0.304 v 0 l -0.973,0.368 c 0.098,-0.15 0.226,-0.25 0.367,-0.305" />
    </clipPath>
    <clipPath
       id="clipPath6798"
       clipPathUnits="userSpaceOnUse">
      <path
         inkscape:connector-curvature="0"
         id="path6796"
         d="m 1085.74,1549.12 h 50.59 v -25.49 h -50.59 z" />
    </clipPath>
    <clipPath
       id="clipPath6450"
       clipPathUnits="userSpaceOnUse">
      <path
         inkscape:connector-curvature="0"
         id="path6448"
         d="m 1192.19,1544.97 h 58.91 v -21.34 h -58.91 z" />
    </clipPath>
    <clipPath
       id="clipPath7190"
       clipPathUnits="userSpaceOnUse">
      <path
         inkscape:connector-curvature="0"
         id="path7188"
         d="m 1415.1,1546.39 h 59.78 v -22.76 h -59.78 z" />
    </clipPath>
    <clipPath
       id="clipPath7322"
       clipPathUnits="userSpaceOnUse">
      <path
         inkscape:connector-curvature="0"
         id="path7320"
         d="m 1529.94,1551.96 h 66.67 v -28.33 h -66.67 z" />
    </clipPath>
    <clipPath
       id="clipPath7582"
       clipPathUnits="userSpaceOnUse">
      <path
         inkscape:connector-curvature="0"
         id="path7580"
         d="m 1678.67,1677.25 h 3.75 v -4.02 h -3.75 z" />
    </clipPath>
    <clipPath
       id="clipPath7566"
       clipPathUnits="userSpaceOnUse">
      <path
         inkscape:connector-curvature="0"
         id="path7564"
         d="m 1671.46,1674.81 h 5.24 v -3.89 h -5.24 z" />
    </clipPath>
    <clipPath
       id="clipPath7462"
       clipPathUnits="userSpaceOnUse">
      <path
         inkscape:connector-curvature="0"
         id="path7460"
         d="m 1648.93,1550.63 h 57.38 v -27 h -57.38 z" />
    </clipPath>
    <clipPath
       id="clipPath8174"
       clipPathUnits="userSpaceOnUse">
      <path
         inkscape:connector-curvature="0"
         id="path8172"
         d="m 1758.53,1552.63 h 42.25 v -29 h -42.25 z" />
    </clipPath>
  </defs>
  <sodipodi:namedview
     id="base"
     pagecolor="#ffffff"
     bordercolor="#666666"
     borderopacity="1.0"
     inkscape:pageopacity="0.0"
     inkscape:pageshadow="2"
     inkscape:zoom="0.35"
     inkscape:cx="-34.203662"
     inkscape:cy="-158.25796"
     inkscape:document-units="mm"
     inkscape:current-layer="layer1"
     showgrid="false"
     fit-margin-top="0"
     fit-margin-left="0"
     fit-margin-right="0"
     fit-margin-bottom="0"
     inkscape:window-width="1366"
     inkscape:window-height="716"
     inkscape:window-x="-8"
     inkscape:window-y="-8"
     inkscape:window-maximized="1" />
  <metadata
     id="metadata45328">
    <rdf:RDF>
      <cc:Work
         rdf:about="">
        <dc:format>image/svg+xml</dc:format>
        <dc:type
           rdf:resource="http://purl.org/dc/dcmitype/StillImage" />
        <dc:title></dc:title>
      </cc:Work>
    </rdf:RDF>
  </metadata>
  <g
     inkscape:label="Layer 1"
     inkscape:groupmode="layer"
     id="layer1"
     transform="translate(68.435408,-323.52462)">
    <g
       id="g8168"
       transform="matrix(0.35277777,0,0,-0.35277777,-688.8057,916.60658)">
      <g
         id="g8170" />
      <g
         id="g8182">
        <g
           clip-path="url(#clipPath8174)"
           id="g8180"
           style="opacity:0.27000403">
          <g
             transform="translate(1789.2109,1550.1313)"
             id="g8178">
            <path
               d="M 0,0 C -2.396,1.781 -7.205,3.018 -15.06,2.282 -25.622,1.294 -33.084,-3.854 -29.969,-14.147 -28.022,-20.572 -23.262,-30.51 0,-24.795 16.226,-20.809 11.773,-12.807 8.062,-9.127 6.825,-7.893 5.933,-4.411 0,0"
               style="fill:#231f20;fill-opacity:1;fill-rule:nonzero;stroke:none"
               id="path8176"
               inkscape:connector-curvature="0" />
          </g>
        </g>
      </g>
    </g>
    <g
       id="g8184"
       transform="matrix(0.35277777,0,0,-0.35277777,-66.329345,370.34691)">
      <path
         d="m 0,0 c 0,0 -1.259,-1.77 -1.045,-4.791 0.215,-3.022 0.665,-4.18 1.432,-4.744 0.766,-0.567 1.726,-0.698 3.54,-0.45 1.815,0.248 4.727,2.015 5.822,2.345 1.097,0.329 0.783,0.335 4.694,1.565 5.503,1.729 6.446,3.2 6.898,4.666 0.46,1.492 0.677,2.768 0,3.191 C 17.361,4.271 10.535,-0.604 8.778,1.257 7.026,3.114 0,0 0,0"
         style="fill:#fafcfc;fill-opacity:1;fill-rule:nonzero;stroke:none"
         id="path8186"
         inkscape:connector-curvature="0" />
    </g>
    <g
       id="g8188"
       transform="matrix(0.35277777,0,0,-0.35277777,-66.505025,369.7669)">
      <path
         d="m 0,0 c 0,0 -1.257,-1.773 -1.042,-4.791 0.214,-3.022 0.662,-4.179 1.431,-4.747 0.766,-0.564 2.197,-0.857 4.002,-0.538 1.436,0.257 2.63,0.769 3.672,1.24 1.738,0.781 2.775,1.03 5.844,1.816 4.758,1.218 7.706,4.573 8.075,6.064 0.328,1.317 -1.147,3.325 -4.795,2.8 C 11.94,1.098 10.102,0.919 8.78,1.251 6.303,1.879 0,0 0,0"
         style="fill:#fb6e5d;fill-opacity:1;fill-rule:nonzero;stroke:none"
         id="path8190"
         inkscape:connector-curvature="0" />
    </g>
    <g
       id="g8192"
       transform="matrix(0.35277777,0,0,-0.35277777,-65.206585,371.97314)">
      <path
         d="m 0,0 c -1.069,2.563 -4.34,4.164 -4.34,4.164 l -0.163,0.071 c -0.179,-0.746 -0.296,-1.672 -0.22,-2.772 0.214,-3.022 0.662,-4.179 1.431,-4.747 0.767,-0.564 1.817,-0.864 3.633,-0.622 0.215,0.029 0.543,0.1 0.685,0.157 C 0.92,-2.689 0.72,-1.726 0,0"
         style="fill:#325a7f;fill-opacity:1;fill-rule:nonzero;stroke:none"
         id="path8194"
         inkscape:connector-curvature="0" />
    </g>
    <g
       id="g8196"
       transform="matrix(0.35277777,0,0,-0.35277777,-63.749655,374.26052)">
      <path
         d="m 0,0 c 0,0 -1.434,-1.701 -1.467,-4.808 -0.036,-3.104 0.328,-4.323 1.065,-4.963 0.734,-0.645 2.209,-1.926 4.083,-1.824 1.878,0.103 4.243,0.711 5.391,0.956 1.145,0.243 2.02,0.099 6.115,1.029 5.769,1.31 9.287,4.927 9.871,6.39 0.591,1.482 -0.236,3.867 -0.236,3.867 C 20.041,0.117 10.707,-1.503 9.072,0.545 7.434,2.592 0,0 0,0"
         style="fill:#fafcfc;fill-opacity:1;fill-rule:nonzero;stroke:none"
         id="path8198"
         inkscape:connector-curvature="0" />
    </g>
    <g
       id="g8200"
       transform="matrix(0.35277777,0,0,-0.35277777,-63.879535,373.65452)">
      <path
         d="m 0,0 c 0,0 -1.434,-1.702 -1.465,-4.805 -0.036,-3.105 0.325,-4.326 1.061,-4.967 0.736,-0.642 2.211,-1.926 4.086,-1.822 1.876,0.102 4.244,0.709 5.389,0.958 1.144,0.244 2.685,-0.427 6.771,0.548 4.087,0.979 8.637,4.415 9.139,5.908 0.443,1.317 1.631,4.89 -3.151,4.364 C 17.051,-0.341 10.705,-1.502 9.071,0.545 7.434,2.593 0,0 0,0"
         style="fill:#fb6e5d;fill-opacity:1;fill-rule:nonzero;stroke:none"
         id="path8202"
         inkscape:connector-curvature="0" />
    </g>
    <g
       id="g8204"
       transform="matrix(0.35277777,0,0,-0.35277777,-62.738865,376.01665)">
      <path
         d="M 0,0 C -0.881,2.708 -4.085,4.617 -4.085,4.617 L -4.241,4.704 C -4.488,3.958 -4.689,3.019 -4.698,1.891 c -0.036,-3.105 0.325,-4.326 1.06,-4.967 0.737,-0.642 2.211,-1.926 4.086,-1.822 0.096,0.004 0.192,0.015 0.286,0.023 C 0.716,-3.781 0.59,-1.82 0,0"
         style="fill:#325a7f;fill-opacity:1;fill-rule:nonzero;stroke:none"
         id="path8206"
         inkscape:connector-curvature="0" />
    </g>
    <g
       id="g8208"
       transform="matrix(0.35277777,0,0,-0.35277777,-58.920295,375.64372)">
      <path
         d="m 0,0 c -0.184,-0.221 -0.498,0.008 -0.502,0.296 0,0 0.035,0.806 -0.125,1.746 -0.223,1.323 -0.887,2.231 -1.422,2.486 -0.22,0.107 -0.598,0.035 -0.543,0.273 0.051,0.223 0.281,0.354 0.494,0.268 C -1.428,4.792 -0.123,4.027 0.188,2.183 0.373,1.087 0.313,0.376 0,0"
         style="fill:#325a7f;fill-opacity:1;fill-rule:nonzero;stroke:none"
         id="path8210"
         inkscape:connector-curvature="0" />
    </g>
    <g
       id="g8212"
       transform="matrix(0.35277777,0,0,-0.35277777,-58.246455,375.49972)">
      <path
         d="m 0,0 c -0.185,-0.22 -0.496,0.009 -0.5,0.296 0,0 0.031,0.806 -0.131,1.747 -0.223,1.322 -0.872,2.121 -1.406,2.379 -0.219,0.105 -0.61,0.143 -0.557,0.38 0.053,0.22 0.286,0.356 0.494,0.269 C -1.43,4.794 -0.124,4.027 0.188,2.181 0.373,1.089 0.31,0.376 0,0"
         style="fill:#325a7f;fill-opacity:1;fill-rule:nonzero;stroke:none"
         id="path8214"
         inkscape:connector-curvature="0" />
    </g>
    <g
       id="g8216"
       transform="matrix(0.35277777,0,0,-0.35277777,-57.666985,375.41068)">
      <path
         d="m 0,0 c -0.184,-0.22 -0.498,0.007 -0.5,0.295 0,0 0.033,0.805 -0.128,1.747 -0.222,1.324 -0.881,2.107 -1.419,2.366 -0.221,0.104 -0.6,0.155 -0.545,0.392 0.052,0.221 0.283,0.357 0.494,0.27 C -1.426,4.793 -0.122,4.027 0.192,2.182 0.376,1.09 0.313,0.375 0,0"
         style="fill:#325a7f;fill-opacity:1;fill-rule:nonzero;stroke:none"
         id="path8218"
         inkscape:connector-curvature="0" />
    </g>
    <g
       id="g8220"
       transform="matrix(0.35277777,0,0,-0.35277777,-60.170185,376.30416)">
      <path
         d="m 0,0 c -0.902,-0.26 -1.811,-0.483 -2.495,-0.562 0.013,-0.05 0.022,-0.091 0.022,-0.091 l 6.139,-2.256 c 0.505,0.08 1.052,0.186 1.661,0.332 0.287,0.07 0.582,0.156 0.88,0.259 C 5.002,-1.855 2.236,-0.798 0,0"
         style="fill:#f5f5f5;fill-opacity:1;fill-rule:nonzero;stroke:none"
         id="path8222"
         inkscape:connector-curvature="0" />
    </g>
    <g
       id="g8224"
       transform="matrix(0.35277777,0,0,-0.35277777,-59.073625,375.97565)">
      <path
         d="m 0,0 c -0.902,-0.257 -1.813,-0.482 -2.496,-0.561 0.012,-0.053 0.021,-0.088 0.021,-0.088 l 6.138,-2.258 c 0.246,0.038 0.5,0.085 0.768,0.136 0.453,0.19 0.896,0.399 1.336,0.624 C 4.414,-1.631 1.998,-0.711 0,0"
         style="fill:#f5f5f5;fill-opacity:1;fill-rule:nonzero;stroke:none"
         id="path8226"
         inkscape:connector-curvature="0" />
    </g>
    <g
       id="g8228"
       transform="matrix(0.35277777,0,0,-0.35277777,-62.016765,346.81448)">
      <path
         d="m 0,0 -1.333,-67.066 c -0.063,-1.458 -0.69,-1.571 -3.13,-1.911 -3.011,-0.421 -5.168,0.264 -5.168,0.264 -1.953,0.632 -4.036,2.1 -4.18,3.948 l -2.146,63.107 z"
         style="fill:#104859;fill-opacity:1;fill-rule:nonzero;stroke:none"
         id="path8230"
         inkscape:connector-curvature="0" />
    </g>
    <g
       id="g8232"
       transform="matrix(0.35277777,0,0,-0.35277777,-59.209005,350.25752)">
      <path
         d="m 0,0 -2.339,-68.596 c -0.063,-1.456 -0.69,-1.569 -3.135,-1.91 -3.007,-0.42 -5.164,0.265 -5.164,0.265 -1.953,0.63 -4.035,2.098 -4.181,3.949 l 0.187,65.124 z"
         style="fill:#14546d;fill-opacity:1;fill-rule:nonzero;stroke:none"
         id="path8234"
         inkscape:connector-curvature="0" />
    </g>
    <g
       id="g8236"
       transform="matrix(0.35277777,0,0,-0.35277777,-56.655145,344.13714)">
      <path
         d="m 0,0 c 0,0 7.141,1.793 8.469,2.06 2.635,0.523 7.586,-1.653 7.586,-1.653 l 3.12,-2.74 c 0,0 0.418,-0.622 -0.669,-0.882 -1.088,-0.257 -2.777,1.656 -2.777,1.656 l -3.216,0.842 c 0,0 -2.054,0.015 -2.106,-0.978 -0.039,-0.745 1.746,-1.09 2.505,-1.2 0.529,-0.074 1.706,-0.402 1.927,-0.934 0.328,-0.792 -0.379,-1.157 -0.379,-1.157 0,0 -0.436,-0.097 -2.881,0.272 -1.967,0.296 -3.428,0.336 -4.562,0.516 -1.561,0.25 -2.51,1.377 -2.51,1.377 L 0.963,-3.833 Z"
         style="fill:#e5b28c;fill-opacity:1;fill-rule:nonzero;stroke:none"
         id="path8238"
         inkscape:connector-curvature="0" />
    </g>
    <g
       id="g8240"
       transform="matrix(0.35277777,0,0,-0.35277777,-64.090355,334.32188)">
      <path
         d="m 0,0 c 0,0 -11.513,5.514 -9.267,-16.201 0.156,-1.494 -1.005,-12.165 1.123,-15.699 0,0 4.089,-6.14 10.049,-5.067 4.441,0.798 21.129,3.459 21.129,3.459 0,0 1.854,1.483 1.12,3.235 -0.767,1.839 -2.176,2.726 -2.176,2.726 l -19.184,3.183 z"
         style="fill:#06843f;fill-opacity:1;fill-rule:nonzero;stroke:none"
         id="path8242"
         inkscape:connector-curvature="0" />
    </g>
    <g
       id="g8244"
       transform="matrix(0.35277777,0,0,-0.35277777,-62.109795,339.84969)">
      <path
         d="M 0,0 3.428,2.061 6.153,0.575 2.805,-1.484 Z"
         style="fill:#995710;fill-opacity:1;fill-rule:nonzero;stroke:none"
         id="path8246"
         inkscape:connector-curvature="0" />
    </g>
    <g
       id="g8248"
       transform="matrix(0.35277777,0,0,-0.35277777,-58.113475,326.11669)">
      <path
         d="m 0,0 6.291,-2.237 -6.425,-16.025 c -1.751,-4.626 -3.961,-4.723 -5.392,-4.291 -2.975,0.899 -5.749,3.592 -7.101,5.094 -2.62,2.901 -0.839,8.39 -0.725,8.847 l 2.386,11.297 z"
         style="fill:#f7cbad;fill-opacity:1;fill-rule:nonzero;stroke:none"
         id="path8250"
         inkscape:connector-curvature="0" />
    </g>
    <g
       id="g8252"
       transform="matrix(0.35277777,0,0,-0.35277777,-64.872415,333.70176)">
      <path
         d="m 0,0 c 0,0 2.632,2.696 4.383,6.728 0.763,1.758 0.234,4.597 0.234,4.597 l 8.481,-2.584 c 0,0 -1.253,-5.649 -1.873,-7.516 -0.387,-1.162 -2.162,-4.611 -2.162,-4.611 -0.095,-1.417 6.721,-11.766 6.425,-16.171 l -15.929,6.328 C -0.315,-11.354 0,0 0,0"
         style="fill:#f7cbad;fill-opacity:1;fill-rule:nonzero;stroke:none"
         id="path8254"
         inkscape:connector-curvature="0" />
    </g>
    <g
       id="g8256"
       transform="matrix(0.35277777,0,0,-0.35277777,-55.598905,326.40452)">
      <path
         d="m 0,0 c 3.042,-3.65 -2.776,-9.736 -3.201,-10.021 -0.09,-0.061 1.831,4.139 0.584,4.41 -1.485,0.323 -5.217,-3.893 -5.992,-5.664 0,0 -0.529,-0.122 -0.404,0.74 0.041,0.288 1.07,1.829 0.995,1.995 -0.303,0.68 -2.333,-0.367 -4.98,-2.866 0,0 -1.733,-1.68 -3.932,-2.548 -3.967,-1.567 -5.05,-0.241 -5.052,-0.232 -0.033,0.12 -0.806,2.654 -1.349,6.745 -1.034,7.847 0.853,11.648 3.653,13.723 0.839,0.623 5.089,3.723 12.457,0.294 C -4.666,5.39 0,0 0,0"
         style="fill:#b25f04;fill-opacity:1;fill-rule:nonzero;stroke:none"
         id="path8258"
         inkscape:connector-curvature="0" />
    </g>
    <g
       id="g8260"
       transform="matrix(0.35277777,0,0,-0.35277777,-58.563745,329.46342)">
      <path
         d="m 0,0 c 0,0 -1.218,0.152 -1.938,-0.808 -0.711,-0.95 -0.464,-2.041 -0.319,-2.368 0.378,-0.874 0.941,-1.186 0.941,-1.186 0,0 0.672,2.647 0.829,3.13 C -0.334,-0.753 0,0 0,0"
         style="fill:#efccaf;fill-opacity:1;fill-rule:nonzero;stroke:none"
         id="path8262"
         inkscape:connector-curvature="0" />
    </g>
    <g
       id="g8264"
       transform="matrix(0.35277777,0,0,-0.35277777,-58.166865,329.14716)">
      <path
         d="M 0,0 C 0,0 0.782,-0.164 -0.056,-1.13 -0.896,-2.094 -1.2,-2.727 -1.387,-3.349 -1.555,-3.918 -1.864,-5.66 -1.864,-5.66 c 0,0 -0.673,-0.581 -0.871,0.585 -0.094,0.556 0.009,1.54 0.357,2.752 C -2.239,-1.831 -0.774,0.467 0,0"
         style="fill:#f7ddcb;fill-opacity:1;fill-rule:nonzero;stroke:none"
         id="path8266"
         inkscape:connector-curvature="0" />
    </g>
    <g
       id="g8268"
       transform="matrix(0.35277777,0,0,-0.35277777,-59.379185,337.16615)">
      <path
         d="m 0,0 c 1.824,-2.154 1.708,-8.739 1.233,-15.856 l -0.059,-16.97 c -0.054,-0.815 0.054,-15.227 -0.422,-20.137 -0.183,-1.886 -0.922,-2.176 -3.319,-3.085 -1.983,-0.75 -7.047,-1.105 -12.387,-0.513 -5.253,0.58 -9.196,3.696 -9.025,6.3 l 0.687,48.151 c 0.578,9.961 9.251,13.752 9.251,13.752 l 7.104,-5.047 z"
         style="fill:#0aa553;fill-opacity:1;fill-rule:nonzero;stroke:none"
         id="path8270"
         inkscape:connector-curvature="0" />
    </g>
    <g
       id="g8272"
       transform="matrix(0.35277777,0,0,-0.35277777,-50.241085,343.77022)">
      <path
         d="m 0,0 0.03,-1.297 -0.314,-0.195 -0.029,1.297 z"
         style="fill:#587c99;fill-opacity:1;fill-rule:nonzero;stroke:none"
         id="path8274"
         inkscape:connector-curvature="0" />
    </g>
    <g
       id="g8276"
       transform="matrix(0.35277777,0,0,-0.35277777,-48.156465,344.90401)">
      <path
         d="m 0,0 0.029,-1.298 -5.908,3.215 -0.03,1.297 z"
         style="fill:#587c99;fill-opacity:1;fill-rule:nonzero;stroke:none"
         id="path8278"
         inkscape:connector-curvature="0" />
    </g>
    <g
       id="g8280"
       transform="matrix(0.35277777,0,0,-0.35277777,-48.156465,344.90401)">
      <path
         d="m 0,0 0.029,-1.298 -0.313,-0.194 -0.029,1.298 z"
         style="fill:#081627;fill-opacity:1;fill-rule:nonzero;stroke:none"
         id="path8282"
         inkscape:connector-curvature="0" />
    </g>
    <g
       id="g8284"
       transform="matrix(0.35277777,0,0,-0.35277777,-48.267035,344.97256)">
      <path
         d="M 0,0 0.029,-1.298 -5.88,1.916 -5.908,3.213 Z"
         style="fill:#091a2e;fill-opacity:1;fill-rule:nonzero;stroke:none"
         id="path8286"
         inkscape:connector-curvature="0" />
    </g>
    <g
       id="g8288"
       transform="matrix(0.35277777,0,0,-0.35277777,-51.313895,343.50616)">
      <path
         d="m 0,0 -16.749,-10.311 0.029,-1.297 16.752,10.31 10.571,-5.751 -0.029,1.298 z"
         style="fill:#587c99;fill-opacity:1;fill-rule:nonzero;stroke:none"
         id="path8290"
         inkscape:connector-curvature="0" />
    </g>
    <g
       id="g8292"
       transform="matrix(0.35277777,0,0,-0.35277777,-53.493265,349.1723)">
      <path
         d="m 0,0 0.03,-1.298 -10.572,5.751 -0.029,1.298 z"
         style="fill:#98a0a7;fill-opacity:1;fill-rule:nonzero;stroke:none"
         id="path8294"
         inkscape:connector-curvature="0" />
    </g>
    <g
       id="g8296"
       transform="matrix(0.35277777,0,0,-0.35277777,-47.583535,345.53513)">
      <path
         d="m 0,0 0.028,-1.298 -16.75,-10.31 -0.03,1.298 z"
         style="fill:#80868c;fill-opacity:1;fill-rule:nonzero;stroke:none"
         id="path8298"
         inkscape:connector-curvature="0" />
    </g>
    <g
       id="g8300"
       transform="matrix(0.35277777,0,0,-0.35277777,-48.155085,344.94225)">
      <path
         d="m 0,0 -0.314,-0.193 -5.91,3.213 0.316,0.194 z"
         style="fill:#426277;fill-opacity:1;fill-rule:nonzero;stroke:none"
         id="path8302"
         inkscape:connector-curvature="0" />
    </g>
    <g
       id="g8304"
       transform="matrix(0.35277777,0,0,-0.35277777,-47.574215,345.6869)">
      <path
         d="m 0,0 -16.75,-10.308 -10.572,5.75 16.75,10.313 z"
         style="fill:#dfe9f4;fill-opacity:1;fill-rule:nonzero;stroke:none"
         id="path8306"
         inkscape:connector-curvature="0" />
    </g>
    <g
       id="g8308"
       transform="matrix(0.35277777,0,0,-0.35277777,-47.054715,345.55048)">
      <path
         d="m 0,0 -19.373,-11.926 c -0.311,-0.189 -0.818,-0.203 -1.143,-0.03 l -11.091,6.036 c -0.16,0.085 -0.242,0.205 -0.244,0.327 0.01,-0.434 0.016,-0.867 0.029,-1.301 0.002,-0.119 0.086,-0.239 0.246,-0.324 l 11.093,-6.036 c 0.318,-0.175 0.83,-0.161 1.137,0.03 L 0.029,-1.297 c 0.152,0.094 0.229,0.213 0.227,0.335 C 0.245,-0.532 0.232,-0.099 0.225,0.334 0.229,0.214 0.152,0.094 0,0"
         style="fill:#98bdea;fill-opacity:1;fill-rule:nonzero;stroke:none"
         id="path8310"
         inkscape:connector-curvature="0" />
    </g>
    <g
       id="g8312"
       transform="matrix(0.35277777,0,0,-0.35277777,-50.241085,343.77022)">
      <path
         d="m 0,0 -0.313,-0.195 5.909,-3.213 0.313,0.194 z m -18.034,-12.42 0.975,0.602 -2.793,1.516 -0.973,-0.597 z m 6.683,-3.689 0.976,0.6 -2.793,1.52 -0.976,-0.6 z m 2.132,0.796 L 7.533,-5.003 -3.041,0.749 -19.79,-9.562 Z m 18.23,10.926 c 0.322,-0.175 0.328,-0.471 0.021,-0.659 l -19.373,-11.927 c -0.31,-0.189 -0.818,-0.203 -1.142,-0.029 l -11.092,6.035 c -0.318,0.173 -0.328,0.472 -0.019,0.66 L -3.22,1.618 c 0.309,0.192 0.82,0.202 1.139,0.028 z"
         style="fill:#6e97d3;fill-opacity:1;fill-rule:nonzero;stroke:none"
         id="path8314"
         inkscape:connector-curvature="0" />
    </g>
    <g
       id="g8316"
       transform="matrix(0.35277777,0,0,-0.35277777,-56.606935,348.06144)">
      <path
         d="M 0,0 -2.793,1.522 -2.787,1.262 0.006,-0.259 0.982,0.343 0.975,0.602 Z"
         style="fill:#98bdea;fill-opacity:1;fill-rule:nonzero;stroke:none"
         id="path8318"
         inkscape:connector-curvature="0" />
    </g>
    <g
       id="g8320"
       transform="matrix(0.35277777,0,0,-0.35277777,-56.263115,347.84903)">
      <path
         d="m 0,0 -0.975,-0.602 -2.793,1.522 0.977,0.6 z"
         style="fill:#bddcf9;fill-opacity:1;fill-rule:nonzero;stroke:none"
         id="path8322"
         inkscape:connector-curvature="0" />
    </g>
    <g
       id="g8324"
       transform="matrix(0.35277777,0,0,-0.35277777,-54.244605,349.36781)">
      <path
         d="M 0,0 -2.793,1.52 -2.787,1.26 0.006,-0.257 0.984,0.342 0.979,0.604 Z"
         style="fill:#bddcf9;fill-opacity:1;fill-rule:nonzero;stroke:none"
         id="path8326"
         inkscape:connector-curvature="0" />
    </g>
    <g
       id="g8328"
       transform="matrix(0.35277777,0,0,-0.35277777,-53.899425,349.15491)">
      <path
         d="m 0,0 -0.979,-0.604 -2.792,1.521 0.976,0.6 z"
         style="fill:#84afd3;fill-opacity:1;fill-rule:nonzero;stroke:none"
         id="path8330"
         inkscape:connector-curvature="0" />
    </g>
    <g
       id="g8332"
       transform="matrix(0.35277777,0,0,-0.35277777,-54.350065,349.03966)">
      <path
         d="m 0,0 c 0.114,-0.061 0.114,-0.167 0.005,-0.233 l -0.119,-0.074 -0.031,-0.002 -0.262,0.145 10e-4,0.018 0.066,0.043 c 0.024,0.017 0.024,0.041 0,0.052 L -0.822,0.21 C -0.848,0.227 -0.889,0.227 -0.914,0.208 L -0.98,0.167 h -0.033 l -0.269,0.144 0.002,0.018 0.117,0.072 c 0.109,0.069 0.291,0.075 0.403,0.015 z"
         style="fill:#bf3c32;fill-opacity:1;fill-rule:nonzero;stroke:none"
         id="path8334"
         inkscape:connector-curvature="0" />
    </g>
    <g
       id="g8336"
       transform="matrix(0.35277777,0,0,-0.35277777,-56.718215,347.71745)">
      <path
         d="m 0,0 c 0.112,-0.064 0.114,-0.167 0.004,-0.234 l -0.117,-0.073 -0.03,-0.001 -0.265,0.143 v 0.017 l 0.066,0.043 c 0.029,0.019 0.028,0.041 0,0.055 L -0.819,0.209 C -0.849,0.225 -0.887,0.224 -0.914,0.207 L -0.98,0.167 -1.016,0.166 -1.282,0.31 l 0.004,0.019 0.115,0.074 c 0.11,0.066 0.29,0.071 0.404,0.01 z"
         style="fill:#9ce237;fill-opacity:1;fill-rule:nonzero;stroke:none"
         id="path8338"
         inkscape:connector-curvature="0" />
    </g>
    <g
       id="g8340"
       transform="matrix(0.35277777,0,0,-0.35277777,-57.548485,348.15479)">
      <path
         d="M 0,0 C 0.109,-0.06 0.203,-0.212 0.207,-0.337 0.208,-0.462 0.12,-0.516 0.01,-0.458 -0.1,-0.397 -0.195,-0.245 -0.195,-0.12 -0.198,0.005 -0.111,0.061 0,0"
         style="fill:#6e97d3;fill-opacity:1;fill-rule:nonzero;stroke:none"
         id="path8342"
         inkscape:connector-curvature="0" />
    </g>
    <g
       id="g8344"
       transform="matrix(0.35277777,0,0,-0.35277777,-57.548485,348.15479)">
      <path
         d="m 0,0 c -0.053,0.029 -0.096,0.03 -0.13,0.012 -0.008,-0.02 -0.014,-0.041 -0.014,-0.07 0.004,-0.125 0.094,-0.277 0.207,-0.336 0.049,-0.028 0.097,-0.028 0.131,-0.015 0.007,0.022 0.014,0.044 0.013,0.072 C 0.203,-0.212 0.109,-0.06 0,0"
         style="fill:#1f3c5e;fill-opacity:1;fill-rule:nonzero;stroke:none"
         id="path8346"
         inkscape:connector-curvature="0" />
    </g>
    <g
       id="g8348"
       transform="matrix(0.35277777,0,0,-0.35277777,-47.823325,346.28256)">
      <path
         d="M 0,0 C -0.135,0.074 -0.321,0.058 -0.521,-0.064 L -2.69,-1.393 c -0.203,-0.121 -0.416,-0.354 -0.563,-0.675 -0.002,-0.009 -0.008,-0.015 -0.014,-0.025 l 0.002,-0.003 c -0.084,-0.192 -0.132,-0.395 -0.127,-0.582 l 0.168,-0.089 c 0.012,0.18 0.071,0.375 0.161,0.564 l 0.007,-0.005 c 0.142,0.322 0.373,0.577 0.576,0.7 l 2.17,1.326 c 0.202,0.124 0.386,0.14 0.522,0.068 z"
         style="fill:#6e97d3;fill-opacity:1;fill-rule:nonzero;stroke:none"
         id="path8350"
         inkscape:connector-curvature="0" />
    </g>
    <g
       id="g8352"
       transform="matrix(0.35277777,0,0,-0.35277777,-47.946995,346.33735)">
      <path
         d="m 0,0 c 0.399,0.243 0.734,0.063 0.749,-0.4 l -3.62,-2.214 c -0.012,0.464 0.301,1.037 0.7,1.285 z"
         style="fill:#98bdea;fill-opacity:1;fill-rule:nonzero;stroke:none"
         id="path8354"
         inkscape:connector-curvature="0" />
    </g>
    <g
       id="g8356"
       transform="matrix(0.35277777,0,0,-0.35277777,-49.526555,347.27475)">
      <path
         d="m 0,0 c -0.056,0.027 -0.125,0.019 -0.198,-0.029 l -0.58,-0.353 C -0.976,-0.513 -1.142,-0.96 -0.94,-1.063 l 0.234,-0.119 c -0.057,0.029 -0.09,0.088 -0.095,0.178 -0.01,0.176 0.113,0.411 0.253,0.504 l 0.577,0.351 c 0.077,0.052 0.15,0.058 0.202,0.032 z"
         style="fill:#d7dddc;fill-opacity:1;fill-rule:nonzero;stroke:none"
         id="path8358"
         inkscape:connector-curvature="0" />
    </g>
    <g
       id="g8360"
       transform="matrix(0.35277777,0,0,-0.35277777,-49.516235,347.32728)">
      <path
         d="m 0,0 c 0.152,0.101 0.282,0.036 0.295,-0.144 0.01,-0.18 -0.103,-0.405 -0.254,-0.505 l -0.578,-0.349 c -0.152,-0.103 -0.282,-0.039 -0.293,0.143 -0.01,0.179 0.102,0.405 0.253,0.504 z"
         style="fill:#8e9a99;fill-opacity:1;fill-rule:nonzero;stroke:none"
         id="path8362"
         inkscape:connector-curvature="0" />
    </g>
    <g
       id="g8364"
       transform="matrix(0.35277777,0,0,-0.35277777,-51.601235,348.58888)">
      <path
         d="m 0,0 c -0.054,0.026 -0.126,0.02 -0.2,-0.03 l -0.578,-0.352 c -0.144,-0.096 -0.265,-0.327 -0.253,-0.505 0.005,-0.091 0.039,-0.151 0.091,-0.174 l 0.234,-0.119 c -0.057,0.028 -0.09,0.088 -0.093,0.177 -0.011,0.183 0.116,0.415 0.251,0.502 l 0.577,0.353 c 0.079,0.051 0.149,0.056 0.202,0.034 z"
         style="fill:#d7dddc;fill-opacity:1;fill-rule:nonzero;stroke:none"
         id="path8366"
         inkscape:connector-curvature="0" />
    </g>
    <g
       id="g8368"
       transform="matrix(0.35277777,0,0,-0.35277777,-51.590885,348.64106)">
      <path
         d="M 0,0 C 0.152,0.096 0.283,0.035 0.292,-0.144 0.305,-0.324 0.19,-0.549 0.04,-0.648 L -0.537,-1 c -0.151,-0.099 -0.28,-0.034 -0.291,0.145 -0.011,0.181 0.099,0.404 0.251,0.502 z"
         style="fill:#8e9a99;fill-opacity:1;fill-rule:nonzero;stroke:none"
         id="path8370"
         inkscape:connector-curvature="0" />
    </g>
    <g
       id="g8372"
       transform="matrix(0.35277777,0,0,-0.35277777,-50.177695,347.70866)">
      <path
         d="M 0,0 C -0.053,0.028 -0.125,0.019 -0.2,-0.032 L -2.939,-1.743 C -3.133,-1.869 -3.301,-2.32 -3.101,-2.422 l 0.233,-0.118 c -0.051,0.027 -0.087,0.089 -0.092,0.178 -0.01,0.175 0.113,0.41 0.256,0.501 l 2.734,1.713 c 0.076,0.048 0.147,0.056 0.201,0.032 z"
         style="fill:#d7dddc;fill-opacity:1;fill-rule:nonzero;stroke:none"
         id="path8374"
         inkscape:connector-curvature="0" />
    </g>
    <g
       id="g8376"
       transform="matrix(0.35277777,0,0,-0.35277777,-50.167005,347.76084)">
      <path
         d="M 0,0 C 0.152,0.098 0.284,0.033 0.294,-0.147 0.305,-0.325 0.192,-0.549 0.041,-0.65 l -2.737,-1.709 c -0.153,-0.099 -0.284,-0.037 -0.294,0.145 -0.01,0.18 0.103,0.403 0.256,0.501 z"
         style="fill:#8e9a99;fill-opacity:1;fill-rule:nonzero;stroke:none"
         id="path8378"
         inkscape:connector-curvature="0" />
    </g>
    <g
       id="g8380"
       transform="matrix(0.35277777,0,0,-0.35277777,-52.019805,348.0704)">
      <path
         d="m 0,0 c 0,0 0.446,2.74 2.558,4.017 1.668,1.011 4.677,3.184 4.677,3.184 0,0 1.453,-0.044 0.757,-1.273 C 7.512,5.082 5.717,3.373 5.717,3.373 c 0,0 -0.524,-1.468 1.082,-1.265 1.609,0.203 5.657,2.725 5.657,2.725 l 1.874,1.348 c 0,0 0.964,-0.047 0.864,-1.199 C 15.071,3.528 13.378,0.339 12.028,-0.582 11.439,-0.983 10.675,-1.18 9.234,-1.7 7.796,-2.221 1.706,-3.667 1.706,-3.667 c 0,0 -0.828,0.091 -1.372,1.616 C -0.106,-0.824 0,0 0,0"
         style="fill:#e5b28c;fill-opacity:1;fill-rule:nonzero;stroke:none"
         id="path8382"
         inkscape:connector-curvature="0" />
    </g>
    <g
       id="g8384"
       transform="matrix(0.35277777,0,0,-0.35277777,-50.759245,348.40766)">
      <path
         d="m 0,0 c -0.063,-2.648 -1.28,-3.662 -1.28,-3.662 0,0 -10.886,-2.449 -17.557,-3.516 -4.846,-0.777 -7.691,0.617 -8.597,1.319 -3.841,2.987 -4.948,17.675 -5.447,23.977 -0.357,4.507 -0.081,6.369 1.376,9.901 1.696,4.123 4.862,5.628 7.651,2.896 2.156,-2.111 2.574,-21.86 2.713,-24.194 0.1,-1.659 1.408,-4.775 3.072,-4.683 L -2.891,3.14 c 0,0 0.58,0.298 1.911,-0.869 C -0.388,1.749 0.022,0.992 0,0"
         style="fill:#16c465;fill-opacity:1;fill-rule:nonzero;stroke:none"
         id="path8386"
         inkscape:connector-curvature="0" />
    </g>
  </g>
</svg>
