<?xml version="1.0" encoding="UTF-8" standalone="no"?>
<!-- Created with Inkscape (http://www.inkscape.org/) -->

<svg
   xmlns:dc="http://purl.org/dc/elements/1.1/"
   xmlns:cc="http://creativecommons.org/ns#"
   xmlns:rdf="http://www.w3.org/1999/02/22-rdf-syntax-ns#"
   xmlns:svg="http://www.w3.org/2000/svg"
   xmlns="http://www.w3.org/2000/svg"
   xmlns:sodipodi="http://sodipodi.sourceforge.net/DTD/sodipodi-0.dtd"
   xmlns:inkscape="http://www.inkscape.org/namespaces/inkscape"
   width="22.512522mm"
   height="56.198994mm"
   viewBox="0 0 22.51252 56.198993"
   version="1.1"
   id="svg45331"
   inkscape:version="0.92.3 (2405546, 2018-03-11)"
   sodipodi:docname="people-casual-8.svg">
  <defs
     id="defs45325">
    <clipPath
       id="clipPath2864"
       clipPathUnits="userSpaceOnUse">
      <path
         inkscape:connector-curvature="0"
         id="path2862"
         d="m 1713.778,1928.833 c -0.536,-0.312 -0.927,-0.874 -1.106,-1.65 v 0 l 1.125,0.653 c 0.179,0.778 0.57,1.34 1.107,1.651 v 0 z" />
    </clipPath>
    <clipPath
       id="clipPath2848"
       clipPathUnits="userSpaceOnUse">
      <path
         inkscape:connector-curvature="0"
         id="path2846"
         d="M 0,2119.953 H 3253.108 V 0 H 0 Z" />
    </clipPath>
    <clipPath
       id="clipPath2836"
       clipPathUnits="userSpaceOnUse">
      <path
         inkscape:connector-curvature="0"
         id="path2834"
         d="m 1711.152,1926.674 v -0.651 c 0.308,-0.179 0.813,-0.18 1.126,0 v 0 0.651 c -0.315,-0.183 -0.82,-0.178 -1.129,0" />
    </clipPath>
    <clipPath
       id="clipPath2820"
       clipPathUnits="userSpaceOnUse">
      <path
         inkscape:connector-curvature="0"
         id="path2818"
         d="M 0,2119.953 H 3253.108 V 0 H 0 Z" />
    </clipPath>
    <clipPath
       id="clipPath2808"
       clipPathUnits="userSpaceOnUse">
      <path
         inkscape:connector-curvature="0"
         id="path2806"
         d="m 1710.148,1926.8 c 0,-0.121 0.077,-0.238 0.231,-0.325 v 0 0.65 c -0.156,0.087 -0.233,0.207 -0.233,0.324 v 0 -0.649 z" />
    </clipPath>
    <clipPath
       id="clipPath2796"
       clipPathUnits="userSpaceOnUse">
      <path
         inkscape:connector-curvature="0"
         id="path2794"
         d="m 1714.756,1928.103 v -0.65 c 0.158,0.09 0.237,0.211 0.237,0.331 v 0 0.65 c 0,-0.119 -0.078,-0.24 -0.236,-0.331" />
    </clipPath>
    <clipPath
       id="clipPath2784"
       clipPathUnits="userSpaceOnUse">
      <path
         inkscape:connector-curvature="0"
         id="path2782"
         d="M 0,2119.953 H 3253.108 V 0 H 0 Z" />
    </clipPath>
    <clipPath
       id="clipPath2772"
       clipPathUnits="userSpaceOnUse">
      <path
         inkscape:connector-curvature="0"
         id="path2770"
         d="m 1720.53,1921.188 10e-4,-0.65 c 0.309,-0.181 0.814,-0.181 1.128,0 v 0 0.65 c -0.316,-0.182 -0.821,-0.181 -1.129,0" />
    </clipPath>
    <clipPath
       id="clipPath2756"
       clipPathUnits="userSpaceOnUse">
      <path
         inkscape:connector-curvature="0"
         id="path2754"
         d="M 0,2119.953 H 3253.108 V 0 H 0 Z" />
    </clipPath>
    <clipPath
       id="clipPath2744"
       clipPathUnits="userSpaceOnUse">
      <path
         inkscape:connector-curvature="0"
         id="path2742"
         d="m 1719.524,1921.312 c 0,-0.119 0.08,-0.235 0.234,-0.324 v 0 0.65 c -0.154,0.089 -0.233,0.207 -0.233,0.324 v 0 -0.65 z" />
    </clipPath>
    <clipPath
       id="clipPath2732"
       clipPathUnits="userSpaceOnUse">
      <path
         inkscape:connector-curvature="0"
         id="path2730"
         d="m 1724.133,1922.619 v -0.654 c 0.158,0.094 0.238,0.212 0.238,0.331 v 0 0.65 c 0,-0.117 -0.08,-0.238 -0.238,-0.327" />
    </clipPath>
    <clipPath
       id="clipPath2536"
       clipPathUnits="userSpaceOnUse">
      <path
         inkscape:connector-curvature="0"
         id="path2534"
         d="m 1708.77,1889.11 h 53.56 v -38.31 h -53.56 z" />
    </clipPath>
    <clipPath
       id="clipPath3428"
       clipPathUnits="userSpaceOnUse">
      <path
         inkscape:connector-curvature="0"
         id="path3426"
         d="m 1819.231,1919.634 0.051,-0.722 c 0.167,0.114 0.248,0.253 0.238,0.383 v 0 l -0.048,0.721 c 0.01,-0.131 -0.071,-0.272 -0.241,-0.382" />
    </clipPath>
    <clipPath
       id="clipPath3440"
       clipPathUnits="userSpaceOnUse">
      <path
         inkscape:connector-curvature="0"
         id="path3438"
         d="m 1814.225,1917.859 c 0.01,-0.132 0.103,-0.255 0.282,-0.343 v 0 l -0.049,0.721 c -0.177,0.085 -0.273,0.212 -0.281,0.34 v 0 z" />
    </clipPath>
    <clipPath
       id="clipPath3452"
       clipPathUnits="userSpaceOnUse">
      <path
         inkscape:connector-curvature="0"
         id="path3450"
         d="M 0,2119.953 H 3253.108 V 0 H 0 Z" />
    </clipPath>
    <clipPath
       id="clipPath3468"
       clipPathUnits="userSpaceOnUse">
      <path
         inkscape:connector-curvature="0"
         id="path3466"
         d="m 1815.349,1917.792 0.046,-0.72 c 0.354,-0.177 0.915,-0.14 1.248,0.082 v 0 l -0.048,0.721 c -0.335,-0.223 -0.893,-0.259 -1.246,-0.083" />
    </clipPath>
    <clipPath
       id="clipPath3480"
       clipPathUnits="userSpaceOnUse">
      <path
         inkscape:connector-curvature="0"
         id="path3478"
         d="M 0,2119.953 H 3253.108 V 0 H 0 Z" />
    </clipPath>
    <clipPath
       id="clipPath3492"
       clipPathUnits="userSpaceOnUse">
      <path
         inkscape:connector-curvature="0"
         id="path3490"
         d="m 1808.461,1925.033 0.049,-0.719 c 0.167,0.112 0.245,0.25 0.238,0.383 v 0 l -0.049,0.719 c 0.01,-0.131 -0.07,-0.268 -0.238,-0.383" />
    </clipPath>
    <clipPath
       id="clipPath3504"
       clipPathUnits="userSpaceOnUse">
      <path
         inkscape:connector-curvature="0"
         id="path3502"
         d="m 1803.454,1923.259 c 0.01,-0.132 0.102,-0.258 0.279,-0.342 v 0 l -0.048,0.72 c -0.177,0.086 -0.273,0.214 -0.28,0.342 v 0 z" />
    </clipPath>
    <clipPath
       id="clipPath3516"
       clipPathUnits="userSpaceOnUse">
      <path
         inkscape:connector-curvature="0"
         id="path3514"
         d="M 0,2119.953 H 3253.108 V 0 H 0 Z" />
    </clipPath>
    <clipPath
       id="clipPath3532"
       clipPathUnits="userSpaceOnUse">
      <path
         inkscape:connector-curvature="0"
         id="path3530"
         d="m 1804.576,1923.193 0.047,-0.721 c 0.353,-0.175 0.915,-0.14 1.248,0.081 v 0 l -0.049,0.722 c -0.333,-0.223 -0.894,-0.258 -1.246,-0.082" />
    </clipPath>
    <clipPath
       id="clipPath3544"
       clipPathUnits="userSpaceOnUse">
      <path
         inkscape:connector-curvature="0"
         id="path3542"
         d="M 0,2119.953 H 3253.108 V 0 H 0 Z" />
    </clipPath>
    <clipPath
       id="clipPath3560"
       clipPathUnits="userSpaceOnUse">
      <path
         inkscape:connector-curvature="0"
         id="path3558"
         d="m 1807.327,1925.772 c -0.572,-0.383 -0.964,-1.034 -1.106,-1.907 v 0 l 1.197,0.803 c 0.144,0.873 0.537,1.525 1.109,1.907 v 0 z" />
    </clipPath>
    <clipPath
       id="clipPath3240"
       clipPathUnits="userSpaceOnUse">
      <path
         inkscape:connector-curvature="0"
         id="path3238"
         d="m 1804.45,1875.26 h 66.26 v -26.97 h -66.26 z" />
    </clipPath>
    <clipPath
       id="clipPath3596"
       clipPathUnits="userSpaceOnUse">
      <path
         inkscape:connector-curvature="0"
         id="path3594"
         d="m 1887.55,1874.88 h 68.5 v -28.2 h -68.5 z" />
    </clipPath>
    <clipPath
       id="clipPath3760"
       clipPathUnits="userSpaceOnUse">
      <path
         inkscape:connector-curvature="0"
         id="path3758"
         d="m 1940.709,1921.043 c -0.01,-0.134 0.073,-0.277 0.243,-0.394 v 0 l 0.052,0.743 c -0.176,0.111 -0.256,0.256 -0.246,0.388 v 0 z" />
    </clipPath>
    <clipPath
       id="clipPath3772"
       clipPathUnits="userSpaceOnUse">
      <path
         inkscape:connector-curvature="0"
         id="path3770"
         d="m 1945.896,1919.955 -0.048,-0.737 c 0.182,0.088 0.281,0.215 0.289,0.351 v 0 l 0.048,0.737 c -0.01,-0.134 -0.106,-0.261 -0.289,-0.351" />
    </clipPath>
    <clipPath
       id="clipPath3784"
       clipPathUnits="userSpaceOnUse">
      <path
         inkscape:connector-curvature="0"
         id="path3782"
         d="M 0,2119.953 H 3253.108 V 0 H 0 Z" />
    </clipPath>
    <clipPath
       id="clipPath3800"
       clipPathUnits="userSpaceOnUse">
      <path
         inkscape:connector-curvature="0"
         id="path3798"
         d="m 1943.658,1918.845 c 0.343,-0.226 0.914,-0.264 1.28,-0.084 v 0 l 0.047,0.741 c -0.361,-0.182 -0.936,-0.146 -1.28,0.084 v 0 z" />
    </clipPath>
    <clipPath
       id="clipPath3812"
       clipPathUnits="userSpaceOnUse">
      <path
         inkscape:connector-curvature="0"
         id="path3810"
         d="M 0,2119.953 H 3253.108 V 0 H 0 Z" />
    </clipPath>
    <clipPath
       id="clipPath3824"
       clipPathUnits="userSpaceOnUse">
      <path
         inkscape:connector-curvature="0"
         id="path3822"
         d="m 1951.754,1926.58 c -0.01,-0.136 0.071,-0.278 0.241,-0.392 v 0 l 0.052,0.737 c -0.174,0.117 -0.253,0.258 -0.245,0.391 v 0 z" />
    </clipPath>
    <clipPath
       id="clipPath3836"
       clipPathUnits="userSpaceOnUse">
      <path
         inkscape:connector-curvature="0"
         id="path3834"
         d="m 1956.943,1925.491 -0.049,-0.737 c 0.18,0.088 0.277,0.215 0.287,0.352 v 0 l 0.049,0.737 c -0.01,-0.132 -0.104,-0.262 -0.287,-0.352" />
    </clipPath>
    <clipPath
       id="clipPath3848"
       clipPathUnits="userSpaceOnUse">
      <path
         inkscape:connector-curvature="0"
         id="path3846"
         d="M 0,2119.953 H 3253.108 V 0 H 0 Z" />
    </clipPath>
    <clipPath
       id="clipPath3864"
       clipPathUnits="userSpaceOnUse">
      <path
         inkscape:connector-curvature="0"
         id="path3862"
         d="m 1954.703,1924.383 c 0.34,-0.229 0.916,-0.262 1.279,-0.086 v 0 l 0.049,0.743 c -0.361,-0.183 -0.938,-0.15 -1.279,0.081 v 0 z" />
    </clipPath>
    <clipPath
       id="clipPath3876"
       clipPathUnits="userSpaceOnUse">
      <path
         inkscape:connector-curvature="0"
         id="path3874"
         d="M 0,2119.953 H 3253.108 V 0 H 0 Z" />
    </clipPath>
    <clipPath
       id="clipPath3892"
       clipPathUnits="userSpaceOnUse">
      <path
         inkscape:connector-curvature="0"
         id="path3890"
         d="m 1953.117,1926.55 1.227,-0.822 c -0.145,0.891 -0.551,1.561 -1.133,1.955 v 0 l -1.232,0.823 c 0.588,-0.393 0.989,-1.061 1.138,-1.956" />
    </clipPath>
    <clipPath
       id="clipPath3948"
       clipPathUnits="userSpaceOnUse">
      <path
         inkscape:connector-curvature="0"
         id="path3946"
         d="m 2018.76,1870.93 h 70.11 v -23.75 h -70.11 z" />
    </clipPath>
    <clipPath
       id="clipPath4212"
       clipPathUnits="userSpaceOnUse">
      <path
         inkscape:connector-curvature="0"
         id="path4210"
         d="m 2154.433,1916.311 c 0,-0.141 0.087,-0.289 0.273,-0.405 v 0 l 0.028,0.784 c -0.187,0.117 -0.276,0.264 -0.271,0.407 v 0 z" />
    </clipPath>
    <clipPath
       id="clipPath4224"
       clipPathUnits="userSpaceOnUse">
      <path
         inkscape:connector-curvature="0"
         id="path4222"
         d="m 2159.973,1915.328 -0.03,-0.782 c 0.192,0.1 0.289,0.239 0.295,0.381 v 0 l 0.027,0.785 c 0,-0.142 -0.103,-0.28 -0.292,-0.384" />
    </clipPath>
    <clipPath
       id="clipPath4236"
       clipPathUnits="userSpaceOnUse">
      <path
         inkscape:connector-curvature="0"
         id="path4234"
         d="M 0,2119.953 H 3253.108 V 0 H 0 Z" />
    </clipPath>
    <clipPath
       id="clipPath4252"
       clipPathUnits="userSpaceOnUse">
      <path
         inkscape:connector-curvature="0"
         id="path4250"
         d="m 2157.634,1914.081 c 0.368,-0.23 0.978,-0.251 1.357,-0.046 v 0 l 0.029,0.783 c -0.377,-0.203 -0.988,-0.185 -1.36,0.049 v 0 z" />
    </clipPath>
    <clipPath
       id="clipPath4264"
       clipPathUnits="userSpaceOnUse">
      <path
         inkscape:connector-curvature="0"
         id="path4262"
         d="M 0,2119.953 H 3253.108 V 0 H 0 Z" />
    </clipPath>
    <clipPath
       id="clipPath4276"
       clipPathUnits="userSpaceOnUse">
      <path
         inkscape:connector-curvature="0"
         id="path4274"
         d="m 2165.961,1922.544 c 0,-0.146 0.086,-0.293 0.271,-0.409 v 0 l 0.032,0.784 c -0.188,0.117 -0.279,0.265 -0.274,0.408 v 0 z" />
    </clipPath>
    <clipPath
       id="clipPath4288"
       clipPathUnits="userSpaceOnUse">
      <path
         inkscape:connector-curvature="0"
         id="path4286"
         d="m 2171.5,1921.561 -0.028,-0.785 c 0.189,0.101 0.287,0.239 0.293,0.379 v 0 l 0.028,0.787 c 0,-0.142 -0.102,-0.281 -0.293,-0.381" />
    </clipPath>
    <clipPath
       id="clipPath4300"
       clipPathUnits="userSpaceOnUse">
      <path
         inkscape:connector-curvature="0"
         id="path4298"
         d="M 0,2119.953 H 3253.108 V 0 H 0 Z" />
    </clipPath>
    <clipPath
       id="clipPath4316"
       clipPathUnits="userSpaceOnUse">
      <path
         inkscape:connector-curvature="0"
         id="path4314"
         d="m 2169.16,1920.31 c 0.37,-0.229 0.979,-0.249 1.359,-0.045 v 0 l 0.03,0.784 c -0.379,-0.201 -0.99,-0.186 -1.36,0.046 v 0 z" />
    </clipPath>
    <clipPath
       id="clipPath4328"
       clipPathUnits="userSpaceOnUse">
      <path
         inkscape:connector-curvature="0"
         id="path4326"
         d="M 0,2119.953 H 3253.108 V 0 H 0 Z" />
    </clipPath>
    <clipPath
       id="clipPath4344"
       clipPathUnits="userSpaceOnUse">
      <path
         inkscape:connector-curvature="0"
         id="path4342"
         d="m 2167.406,1922.556 1.331,-0.832 c -0.186,0.942 -0.633,1.637 -1.266,2.036 v 0 l -1.332,0.833 c 0.636,-0.396 1.084,-1.091 1.267,-2.037" />
    </clipPath>
    <clipPath
       id="clipPath4598"
       clipPathUnits="userSpaceOnUse">
      <path
         inkscape:connector-curvature="0"
         id="path4596"
         d="m 2331.633,1939.514 c 0,-0.142 0.1,-0.287 0.296,-0.396 v 0 0.783 c -0.196,0.107 -0.292,0.246 -0.292,0.387 v 0 -0.774 z" />
    </clipPath>
    <clipPath
       id="clipPath4610"
       clipPathUnits="userSpaceOnUse">
      <path
         inkscape:connector-curvature="0"
         id="path4608"
         d="m 2337.17,1938.719 v -0.771 c 0.189,0.099 0.285,0.249 0.285,0.379 v 0 0.787 c 0,-0.14 -0.091,-0.287 -0.283,-0.395" />
    </clipPath>
    <clipPath
       id="clipPath4622"
       clipPathUnits="userSpaceOnUse">
      <path
         inkscape:connector-curvature="0"
         id="path4620"
         d="M 0,2119.953 H 3253.108 V 0 H 0 Z" />
    </clipPath>
    <clipPath
       id="clipPath4638"
       clipPathUnits="userSpaceOnUse">
      <path
         inkscape:connector-curvature="0"
         id="path4636"
         d="m 2334.888,1938.187 v -0.785 c 0.382,-0.217 0.981,-0.217 1.349,0 v 0 0.785 c -0.368,-0.217 -0.963,-0.217 -1.349,0" />
    </clipPath>
    <clipPath
       id="clipPath4650"
       clipPathUnits="userSpaceOnUse">
      <path
         inkscape:connector-curvature="0"
         id="path4648"
         d="M 0,2119.953 H 3253.108 V 0 H 0 Z" />
    </clipPath>
    <clipPath
       id="clipPath4662"
       clipPathUnits="userSpaceOnUse">
      <path
         inkscape:connector-curvature="0"
         id="path4660"
         d="m 2342.868,1946.09 c 0,-0.141 0.101,-0.294 0.291,-0.401 v 0 l 0.01,0.777 c -0.195,0.113 -0.291,0.255 -0.291,0.401 v 0 z" />
    </clipPath>
    <clipPath
       id="clipPath4674"
       clipPathUnits="userSpaceOnUse">
      <path
         inkscape:connector-curvature="0"
         id="path4672"
         d="m 2348.401,1945.298 v -0.782 c 0.182,0.104 0.277,0.25 0.277,0.39 v 0 l 0.01,0.781 c 0,-0.143 -0.095,-0.282 -0.282,-0.389" />
    </clipPath>
    <clipPath
       id="clipPath4686"
       clipPathUnits="userSpaceOnUse">
      <path
         inkscape:connector-curvature="0"
         id="path4684"
         d="M 0,2119.953 H 3253.108 V 0 H 0 Z" />
    </clipPath>
    <clipPath
       id="clipPath4702"
       clipPathUnits="userSpaceOnUse">
      <path
         inkscape:connector-curvature="0"
         id="path4700"
         d="m 2346.127,1944.756 v -0.778 c 0.376,-0.212 0.982,-0.212 1.348,0 v 0 0.778 c -0.366,-0.213 -0.972,-0.213 -1.348,0" />
    </clipPath>
    <clipPath
       id="clipPath4714"
       clipPathUnits="userSpaceOnUse">
      <path
         inkscape:connector-curvature="0"
         id="path4712"
         d="M 0,2119.953 H 3253.108 V 0 H 0 Z" />
    </clipPath>
    <clipPath
       id="clipPath4730"
       clipPathUnits="userSpaceOnUse">
      <path
         inkscape:connector-curvature="0"
         id="path4728"
         d="m 2343.05,1948.089 c -0.023,0.013 -0.045,0.026 -0.068,0.038 v 0 z m 1.257,-1.939 1.349,-0.782 c -0.21,0.926 -0.683,1.603 -1.326,1.976 v 0 l -1.28,0.745 c 0.612,-0.371 1.048,-1.041 1.257,-1.939" />
    </clipPath>
    <clipPath
       id="clipPath4742"
       clipPathUnits="userSpaceOnUse">
      <path
         inkscape:connector-curvature="0"
         id="path4740"
         d="M 0,2119.953 H 3253.108 V 0 H 0 Z" />
    </clipPath>
    <clipPath
       id="clipPath4918"
       clipPathUnits="userSpaceOnUse">
      <path
         inkscape:connector-curvature="0"
         id="path4916"
         d="m 2276.169,1866.541 c 0,-0.151 0.1,-0.291 0.285,-0.401 v 0 0.785 c -0.19,0.105 -0.286,0.259 -0.286,0.394 v 0 -0.778 z" />
    </clipPath>
    <clipPath
       id="clipPath4930"
       clipPathUnits="userSpaceOnUse">
      <path
         inkscape:connector-curvature="0"
         id="path4928"
         d="m 2281.734,1865.741 -0.01,-0.776 c 0.185,0.103 0.278,0.244 0.278,0.385 v 0 0.786 c 0,-0.141 -0.096,-0.281 -0.276,-0.395" />
    </clipPath>
    <clipPath
       id="clipPath4942"
       clipPathUnits="userSpaceOnUse">
      <path
         inkscape:connector-curvature="0"
         id="path4940"
         d="M 0,2119.953 H 3253.108 V 0 H 0 Z" />
    </clipPath>
    <clipPath
       id="clipPath4958"
       clipPathUnits="userSpaceOnUse">
      <path
         inkscape:connector-curvature="0"
         id="path4956"
         d="m 2279.442,1865.203 v -0.782 c 0.372,-0.219 0.983,-0.219 1.351,0 v 0 0.782 c -0.372,-0.221 -0.983,-0.221 -1.355,0" />
    </clipPath>
    <clipPath
       id="clipPath4970"
       clipPathUnits="userSpaceOnUse">
      <path
         inkscape:connector-curvature="0"
         id="path4968"
         d="M 0,2119.953 H 3253.108 V 0 H 0 Z" />
    </clipPath>
    <clipPath
       id="clipPath4982"
       clipPathUnits="userSpaceOnUse">
      <path
         inkscape:connector-curvature="0"
         id="path4980"
         d="m 2287.467,1873.148 c 0,-0.144 0.095,-0.29 0.287,-0.404 v 0 0.786 c -0.191,0.114 -0.29,0.258 -0.29,0.404 v 0 -0.786 z" />
    </clipPath>
    <clipPath
       id="clipPath4994"
       clipPathUnits="userSpaceOnUse">
      <path
         inkscape:connector-curvature="0"
         id="path4992"
         d="m 2293.032,1872.36 v -0.782 c 0.191,0.096 0.282,0.241 0.282,0.378 v 0 0.788 c 0,-0.14 -0.094,-0.281 -0.281,-0.384" />
    </clipPath>
    <clipPath
       id="clipPath5006"
       clipPathUnits="userSpaceOnUse">
      <path
         inkscape:connector-curvature="0"
         id="path5004"
         d="M 0,2119.953 H 3253.108 V 0 H 0 Z" />
    </clipPath>
    <clipPath
       id="clipPath5022"
       clipPathUnits="userSpaceOnUse">
      <path
         inkscape:connector-curvature="0"
         id="path5020"
         d="m 2290.745,1871.81 -0.01,-0.78 c 0.377,-0.22 0.986,-0.214 1.353,0 v 0 0.78 c -0.371,-0.212 -0.98,-0.212 -1.351,0" />
    </clipPath>
    <clipPath
       id="clipPath5034"
       clipPathUnits="userSpaceOnUse">
      <path
         inkscape:connector-curvature="0"
         id="path5032"
         d="M 0,2119.953 H 3253.108 V 0 H 0 Z" />
    </clipPath>
    <clipPath
       id="clipPath5050"
       clipPathUnits="userSpaceOnUse">
      <path
         inkscape:connector-curvature="0"
         id="path5048"
         d="m 2288.91,1873.212 1.359,-0.784 c -0.216,0.934 -0.691,1.61 -1.337,1.987 v 0 l -1.356,0.791 c 0.652,-0.377 1.121,-1.054 1.334,-1.994" />
    </clipPath>
    <clipPath
       id="clipPath4408"
       clipPathUnits="userSpaceOnUse">
      <path
         inkscape:connector-curvature="0"
         id="path4406"
         d="m 2301.08,1906.05 h 45.97 v -31.57 h -45.97 z" />
    </clipPath>
    <clipPath
       id="clipPath4392"
       clipPathUnits="userSpaceOnUse">
      <path
         inkscape:connector-curvature="0"
         id="path4390"
         d="m 2227.58,1871.71 h 52.38 v -32.03 h -52.38 z" />
    </clipPath>
    <clipPath
       id="clipPath5114"
       clipPathUnits="userSpaceOnUse">
      <path
         inkscape:connector-curvature="0"
         id="path5112"
         d="m 2417.33,1884.9 h 51.88 v -27.05 h -51.88 z" />
    </clipPath>
    <clipPath
       id="clipPath5554"
       clipPathUnits="userSpaceOnUse">
      <path
         inkscape:connector-curvature="0"
         id="path5552"
         d="m 2532.68,1877.97 h 61.16 v -27.88 h -61.16 z" />
    </clipPath>
    <clipPath
       id="clipPath5662"
       clipPathUnits="userSpaceOnUse">
      <path
         inkscape:connector-curvature="0"
         id="path5660"
         d="m 2652.02,1878.72 h 75.96 v -28.55 h -75.96 z" />
    </clipPath>
    <clipPath
       id="clipPath5782"
       clipPathUnits="userSpaceOnUse">
      <path
         inkscape:connector-curvature="0"
         id="path5780"
         d="m 2686.34,2040.48 h 6.76 v -5.02 h -6.76 z" />
    </clipPath>
    <clipPath
       id="clipPath5454"
       clipPathUnits="userSpaceOnUse">
      <path
         inkscape:connector-curvature="0"
         id="path5452"
         d="m 2763.78,1887.52 h 61.17 v -27.89 h -61.17 z" />
    </clipPath>
    <clipPath
       id="clipPath5226"
       clipPathUnits="userSpaceOnUse">
      <path
         inkscape:connector-curvature="0"
         id="path5224"
         d="m 2874.06,1879.83 h 115.04 v -37.41 h -115.04 z" />
    </clipPath>
    <clipPath
       id="clipPath5266"
       clipPathUnits="userSpaceOnUse">
      <path
         inkscape:connector-curvature="0"
         id="path5264"
         d="m 2898.47,1905.023 c -0.019,-0.014 -0.036,-0.025 -0.058,-0.038 v 0 c -0.579,-0.382 -0.588,-1.091 -0.535,-1.501 v 0 l 39.797,23.128 c -0.051,0.406 -0.042,1.119 0.537,1.502 v 0 c 0.018,0.012 0.037,0.024 0.058,0.036 v 0 c -13.266,-7.711 -26.531,-15.418 -39.799,-23.127" />
    </clipPath>
    <clipPath
       id="clipPath3000"
       clipPathUnits="userSpaceOnUse">
      <path
         inkscape:connector-curvature="0"
         id="path2998"
         d="m 3070.44,1903.77 h 111.77 v -40.19 h -111.77 z" />
    </clipPath>
    <clipPath
       id="clipPath6042"
       clipPathUnits="userSpaceOnUse">
      <path
         inkscape:connector-curvature="0"
         id="path6040"
         d="m 409.323,1548.74 h 49.951 v -25.11 h -49.951 z" />
    </clipPath>
    <clipPath
       id="clipPath5930"
       clipPathUnits="userSpaceOnUse">
      <path
         inkscape:connector-curvature="0"
         id="path5928"
         d="m 516.004,1548.66 h 54.751 v -25.03 h -54.751 z" />
    </clipPath>
    <clipPath
       id="clipPath6142"
       clipPathUnits="userSpaceOnUse">
      <path
         inkscape:connector-curvature="0"
         id="path6140"
         d="m 636.118,1542.78 h 45.362 v -19.15 h -45.362 z" />
    </clipPath>
    <clipPath
       id="clipPath6318"
       clipPathUnits="userSpaceOnUse">
      <path
         inkscape:connector-curvature="0"
         id="path6316"
         d="m 763.75,1602.23 h 22.211 v -7.49 H 763.75 Z" />
    </clipPath>
    <clipPath
       id="clipPath6242"
       clipPathUnits="userSpaceOnUse">
      <path
         inkscape:connector-curvature="0"
         id="path6240"
         d="m 749.178,1542.78 h 45.362 v -19.15 h -45.362 z" />
    </clipPath>
    <clipPath
       id="clipPath6358"
       clipPathUnits="userSpaceOnUse">
      <path
         inkscape:connector-curvature="0"
         id="path6356"
         d="m 859.142,1541.98 h 55.33 v -18.35 h -55.33 z" />
    </clipPath>
    <clipPath
       id="clipPath6562"
       clipPathUnits="userSpaceOnUse">
      <path
         inkscape:connector-curvature="0"
         id="path6560"
         d="m 972.921,1548.99 h 50.329 v -25.36 h -50.329 z" />
    </clipPath>
    <clipPath
       id="clipPath6898"
       clipPathUnits="userSpaceOnUse">
      <path
         inkscape:connector-curvature="0"
         id="path6896"
         d="m 1113.757,1660.871 0.977,-0.369 c -0.337,0.508 -0.215,1.396 0.271,1.968 v 0 l -0.978,0.368 c -0.484,-0.573 -0.605,-1.457 -0.27,-1.967" />
    </clipPath>
    <clipPath
       id="clipPath6882"
       clipPathUnits="userSpaceOnUse">
      <path
         inkscape:connector-curvature="0"
         id="path6880"
         d="M 0,2119.953 H 3253.108 V 0 H 0 Z" />
    </clipPath>
    <clipPath
       id="clipPath6870"
       clipPathUnits="userSpaceOnUse">
      <path
         inkscape:connector-curvature="0"
         id="path6868"
         d="m 1120.652,1670.681 0.975,-0.367 c 0.342,0.405 0.774,0.55 1.118,0.419 v 0 l -0.98,0.369 c -0.082,0.031 -0.168,0.047 -0.258,0.047 v 0 c -0.283,0 -0.596,-0.157 -0.855,-0.468" />
    </clipPath>
    <clipPath
       id="clipPath6858"
       clipPathUnits="userSpaceOnUse">
      <path
         inkscape:connector-curvature="0"
         id="path6856"
         d="m 1116.5,1656.939 0.98,-0.367 c -0.144,0.053 -0.271,0.155 -0.374,0.304 v 0 l -0.973,0.368 c 0.098,-0.15 0.226,-0.25 0.367,-0.305" />
    </clipPath>
    <clipPath
       id="clipPath6798"
       clipPathUnits="userSpaceOnUse">
      <path
         inkscape:connector-curvature="0"
         id="path6796"
         d="m 1085.74,1549.12 h 50.59 v -25.49 h -50.59 z" />
    </clipPath>
    <clipPath
       id="clipPath6450"
       clipPathUnits="userSpaceOnUse">
      <path
         inkscape:connector-curvature="0"
         id="path6448"
         d="m 1192.19,1544.97 h 58.91 v -21.34 h -58.91 z" />
    </clipPath>
  </defs>
  <sodipodi:namedview
     id="base"
     pagecolor="#ffffff"
     bordercolor="#666666"
     borderopacity="1.0"
     inkscape:pageopacity="0.0"
     inkscape:pageshadow="2"
     inkscape:zoom="0.35"
     inkscape:cx="-380.87404"
     inkscape:cy="-76.95026"
     inkscape:document-units="mm"
     inkscape:current-layer="layer1"
     showgrid="false"
     fit-margin-top="0"
     fit-margin-left="0"
     fit-margin-right="0"
     fit-margin-bottom="0"
     inkscape:window-width="1366"
     inkscape:window-height="716"
     inkscape:window-x="-8"
     inkscape:window-y="-8"
     inkscape:window-maximized="1" />
  <metadata
     id="metadata45328">
    <rdf:RDF>
      <cc:Work
         rdf:about="">
        <dc:format>image/svg+xml</dc:format>
        <dc:type
           rdf:resource="http://purl.org/dc/dcmitype/StillImage" />
        <dc:title></dc:title>
      </cc:Work>
    </rdf:RDF>
  </metadata>
  <g
     inkscape:label="Layer 1"
     inkscape:groupmode="layer"
     id="layer1"
     transform="translate(-23.287799,-344.41745)">
    <g
       id="g6424"
       transform="matrix(0.35277777,0,0,-0.35277777,41.158167,374.6317)">
      <path
         d="M 0,0 -3.389,14.482 -1.036,15.086 3.081,0.799 Z"
         style="fill:#231f20;fill-opacity:1;fill-rule:nonzero;stroke:none"
         id="path6426"
         inkscape:connector-curvature="0" />
    </g>
    <g
       id="g6428"
       transform="matrix(0.35277777,0,0,-0.35277777,30.392773,370.61437)">
      <path
         d="m 0,0 c 0,0 -3.948,-3.341 -4.253,-7.442 -0.143,-1.913 1.264,-5.543 1.264,-5.543 0,0 0.419,-1.292 1.218,-1.474 0.477,-0.109 1.115,0.046 1.556,0.228 1.772,0.736 2.066,2.656 2.066,2.656 0,0 -0.44,3.243 0.442,5.013 0.886,1.77 1.178,3.836 1.178,3.836 z"
         style="fill:#d8b39a;fill-opacity:1;fill-rule:nonzero;stroke:none"
         id="path6430"
         inkscape:connector-curvature="0" />
    </g>
    <g
       id="g6432"
       transform="matrix(0.35277777,0,0,-0.35277777,30.526071,371.99208)">
      <path
         d="m 0,0 c 1.211,-0.212 3.391,0.441 3.391,0.441 0,0 2.923,10.556 3.096,11.06 0.977,2.87 3.324,12.964 4.047,16.659 0.799,4.054 1.718,11.419 1.718,11.419 0,0 2.837,8.93 -1.342,10.715 C 8.524,51.316 2.801,48.524 2.211,39.677 2.038,37.074 0.44,21.973 0.44,21.973 L -2.05,2.387 C -2.05,2.387 -2.364,0.406 0,0"
         style="fill:#f2d3bd;fill-opacity:1;fill-rule:nonzero;stroke:none"
         id="path6434"
         inkscape:connector-curvature="0" />
    </g>
    <g
       id="g6436"
       transform="matrix(0.35277777,0,0,-0.35277777,34.374964,354.24947)">
      <path
         d="m 0,0 c -2.386,1.022 -8.109,-1.77 -8.699,-10.617 -0.095,-1.43 -0.621,-6.633 -1.075,-11.031 3.783,-0.844 8.013,-0.904 9.316,-0.899 0.027,0.139 0.057,0.289 0.082,0.413 0.798,4.054 1.718,11.419 1.718,11.419 0,0 2.837,8.93 -1.342,10.715"
         style="fill:#2060bc;fill-opacity:1;fill-rule:nonzero;stroke:none"
         id="path6438"
         inkscape:connector-curvature="0" />
    </g>
    <g
       id="g6440"
       transform="matrix(0.35277777,0,0,-0.35277777,30.178329,370.56082)">
      <path
         d="m 0,0 c 0,0 -2.998,-4.057 -2.998,-5.68 0,-1.623 2.066,-6.196 2.066,-6.196 0,0 0.736,-0.591 1.03,0.74 0.295,1.324 -0.441,3.39 -0.441,3.39 0,0 0,0.146 1.177,1.473 1.185,1.33 0.739,3.834 0.739,3.834 z"
         style="fill:#f2d3bd;fill-opacity:1;fill-rule:nonzero;stroke:none"
         id="path6442"
         inkscape:connector-curvature="0" />
    </g>
    <g
       id="g6444"
       transform="matrix(0.35277777,0,0,-0.35277777,-397.29034,938.11927)">
      <g
         id="g6446" />
      <g
         id="g6458">
        <g
           clip-path="url(#clipPath6450)"
           id="g6456"
           style="opacity:0.28999299">
          <g
             transform="translate(1198.4473,1534.0371)"
             id="g6454">
            <path
               d="m 0,0 c 6.481,-1.4 11.354,-1.699 12.566,-2.997 1.597,-1.711 -0.685,-7.41 14.542,-7.41 16.275,0 25.541,7.087 25.541,12.835 0,5.743 -10.51,7.758 -26.777,8.364 C -12.117,12.21 -10.056,2.171 0,0"
               style="fill:#231f20;fill-opacity:1;fill-rule:nonzero;stroke:none"
               id="path6452"
               inkscape:connector-curvature="0" />
          </g>
        </g>
      </g>
    </g>
    <g
       id="g6460"
       transform="matrix(0.35277777,0,0,-0.35277777,32.143045,391.502)">
      <path
         d="m 0,0 -3.217,-1.455 c 0,0 -6.484,-2.325 -7.809,-3.081 -0.731,-0.422 -1.248,-1.303 -1.205,-1.9 0.022,-0.296 0.079,-1.551 0.132,-1.729 0.285,-0.927 1.801,-1.675 2.934,-1.888 2.184,-0.414 6.792,0.461 6.792,0.461 0.596,0.279 9.921,3.226 9.921,3.226 0,0 0.346,1.126 0.44,1.814 l 0.565,4.568 z"
         style="fill:#1156ba;fill-opacity:1;fill-rule:nonzero;stroke:none"
         id="path6462"
         inkscape:connector-curvature="0" />
    </g>
    <g
       id="g6464"
       transform="matrix(0.35277777,0,0,-0.35277777,31.919816,393.35168)">
      <path
         d="M 0,0 C 0.064,-0.093 0.188,-0.124 0.274,-0.064 0.352,-0.018 0.424,0.073 0.369,0.141 0.095,0.537 -0.954,1.943 -2.1,2.631 -3.096,3.23 -3.999,3.243 -4.41,3.208 -4.528,3.201 -4.628,3.107 -4.601,2.986 -4.58,2.886 -4.48,2.816 -4.369,2.825 -4.007,2.857 -3.196,2.841 -2.292,2.3 -1.296,1.704 -0.328,0.458 0,0"
         style="fill:#d5dfef;fill-opacity:1;fill-rule:nonzero;stroke:none"
         id="path6466"
         inkscape:connector-curvature="0" />
    </g>
    <g
       id="g6468"
       transform="matrix(0.35277777,0,0,-0.35277777,31.512411,393.47568)">
      <path
         d="m 0,0 c 0.062,-0.092 0.18,-0.132 0.28,-0.06 0.072,0.053 0.137,0.128 0.083,0.208 -0.276,0.387 -1.322,1.791 -2.46,2.479 -1,0.609 -1.9,0.62 -2.321,0.582 C -4.53,3.2 -4.626,3.109 -4.6,2.994 -4.582,2.881 -4.48,2.822 -4.371,2.829 -4.019,2.858 -3.197,2.84 -2.3,2.303 -1.296,1.705 -0.33,0.455 0,0"
         style="fill:#d5dfef;fill-opacity:1;fill-rule:nonzero;stroke:none"
         id="path6470"
         inkscape:connector-curvature="0" />
    </g>
    <g
       id="g6472"
       transform="matrix(0.35277777,0,0,-0.35277777,31.124849,393.67669)">
      <path
         d="m 0,0 c 0.061,-0.093 0.184,-0.125 0.274,-0.064 0.074,0.051 0.14,0.133 0.097,0.208 -0.28,0.389 -1.33,1.799 -2.469,2.485 -1,0.599 -1.904,0.614 -2.319,0.581 C -4.531,3.205 -4.626,3.114 -4.603,2.991 -4.578,2.889 -4.48,2.811 -4.375,2.82 -4.016,2.852 -3.196,2.841 -2.294,2.303 -1.298,1.697 -0.333,0.449 0,0"
         style="fill:#d5dfef;fill-opacity:1;fill-rule:nonzero;stroke:none"
         id="path6474"
         inkscape:connector-curvature="0" />
    </g>
    <g
       id="g6476"
       transform="matrix(0.35277777,0,0,-0.35277777,27.824437,393.74474)">
      <path
         d="m 0,0 c 0.056,-0.9 0.868,-2.068 2.899,-2.286 3.921,-0.42 15.238,2.381 15.775,2.575 1.251,0.437 1.444,0.864 1.444,0.864 0,0 -0.073,-2.109 -0.119,-2.08 0,0 -0.191,-0.38 -0.762,-0.531 -0.611,-0.164 -9.679,-1.993 -11.163,-2.182 0,0 -3.052,-0.527 -5.441,-0.112 -1.123,0.193 -2.428,0.795 -2.64,2.026 C -0.027,-1.612 -0.016,0.128 0,0"
         style="fill:#d5dfef;fill-opacity:1;fill-rule:nonzero;stroke:none"
         id="path6478"
         inkscape:connector-curvature="0" />
    </g>
    <g
       id="g6480"
       transform="matrix(0.35277777,0,0,-0.35277777,31.324318,371.07532)">
      <path
         d="m 0,0 0.975,-55.02 c 0,0 0.012,-2.218 -0.482,-2.979 -0.238,-0.366 -0.912,-1.141 -0.912,-1.141 0.403,-1.9 4.505,-3.385 6.209,-3.385 2.815,0 5.116,-0.756 5.116,1.893 l 2.952,62.855 z"
         style="fill:#093c4c;fill-opacity:1;fill-rule:nonzero;stroke:none"
         id="path6482"
         inkscape:connector-curvature="0" />
    </g>
    <g
       id="g6484"
       transform="matrix(0.35277777,0,0,-0.35277777,38.131307,394.37607)">
      <path
         d="m 0,0 -5.619,-3.772 c 0,0 -2.594,-1.73 -3.817,-2.66 -0.673,-0.504 -0.936,-1.43 -0.969,-2.029 -0.02,-0.372 0.094,-1.422 0.351,-1.707 0.661,-0.694 2.021,-1.245 3.143,-1.505 3.317,-0.752 6.676,1.306 6.676,1.306 0.558,0.35 9.454,4.437 9.454,4.437 0,0 0.172,0.357 0.172,1.055 l 0.035,5.393 z"
         style="fill:#1156ba;fill-opacity:1;fill-rule:nonzero;stroke:none"
         id="path6486"
         inkscape:connector-curvature="0" />
    </g>
    <g
       id="g6488"
       transform="matrix(0.35277777,0,0,-0.35277777,34.775094,368.43657)">
      <path
         d="m 0,0 8.207,-69.959 c 0.681,-3.456 -2.582,-5.454 -1.419,-5.99 7.068,-3.267 10.86,-1.018 10.86,-1.018 0.546,0.342 1.399,1.851 1.423,2.346 l -3.337,69.309 z"
         style="fill:#14546d;fill-opacity:1;fill-rule:nonzero;stroke:none"
         id="path6490"
         inkscape:connector-curvature="0" />
    </g>
    <g
       id="g6492"
       transform="matrix(0.35277777,0,0,-0.35277777,33.38828,354.69528)">
      <path
         d="m 0,0 c -3.783,-4.118 -5.569,-13.154 -5.608,-24.548 -0.022,-9.175 -0.396,-33.029 -0.396,-33.029 -0.077,-1.08 0.989,-2.281 4.232,-2.663 11.486,-1.351 22.81,2.998 23.601,3.39 l 4.02,44.826 c 0.28,2.501 -9.034,8.969 -9.034,8.969 L 6.148,1.298 C 6.148,1.298 2.098,2.282 0,0"
         style="fill:#3476e0;fill-opacity:1;fill-rule:nonzero;stroke:none"
         id="path6494"
         inkscape:connector-curvature="0" />
    </g>
    <g
       id="g6496"
       transform="matrix(0.35277777,0,0,-0.35277777,35.221922,354.45274)">
      <path
         d="m 0,0 0.968,6.372 8.427,2.643 c 0,0 -0.896,-5.132 -0.654,-7.217 0.305,-2.615 1.969,-4.671 2.877,-5.541 0.059,-0.139 -2.07,-0.84 -4.576,-2.022 C 3.694,-7.34 -1.217,-9.118 -2.688,-6.625 -3.665,-4.952 -2.385,-2.312 0,0"
         style="fill:#d8b39a;fill-opacity:1;fill-rule:nonzero;stroke:none"
         id="path6498"
         inkscape:connector-curvature="0" />
    </g>
    <g
       id="g6500"
       transform="matrix(0.35277777,0,0,-0.35277777,38.396075,396.34648)">
      <path
         d="M 0,0 C 0.081,-0.085 0.21,-0.11 0.298,-0.037 0.365,0.006 0.435,0.109 0.387,0.177 0.07,0.576 -1.118,1.986 -2.365,2.629 -3.449,3.204 -4.403,3.167 -4.833,3.098 -4.95,3.085 -5.049,2.979 -5.017,2.861 -4.984,2.752 -4.877,2.685 -4.758,2.703 -4.389,2.76 -3.533,2.786 -2.56,2.276 -1.46,1.715 -0.379,0.464 0,0"
         style="fill:#d5dfef;fill-opacity:1;fill-rule:nonzero;stroke:none"
         id="path6502"
         inkscape:connector-curvature="0" />
    </g>
    <g
       id="g6504"
       transform="matrix(0.35277777,0,0,-0.35277777,37.936494,396.61519)">
      <path
         d="M 0,0 C 0.078,-0.099 0.208,-0.124 0.301,-0.051 0.371,0.006 0.437,0.107 0.374,0.171 0.055,0.562 -1.153,1.956 -2.401,2.589 -3.491,3.15 -4.448,3.092 -4.869,3.028 -4.994,2.997 -5.092,2.902 -5.058,2.778 -5.027,2.671 -4.908,2.608 -4.799,2.623 -4.427,2.68 -3.561,2.729 -2.574,2.23 -1.484,1.676 -0.378,0.449 0,0"
         style="fill:#d5dfef;fill-opacity:1;fill-rule:nonzero;stroke:none"
         id="path6506"
         inkscape:connector-curvature="0" />
    </g>
    <g
       id="g6508"
       transform="matrix(0.35277777,0,0,-0.35277777,37.548588,396.85342)">
      <path
         d="M 0,0 C 0.085,-0.076 0.217,-0.102 0.299,-0.023 0.368,0.034 0.433,0.13 0.368,0.202 0.028,0.577 -1.252,1.901 -2.534,2.475 -3.659,2.971 -4.6,2.861 -5.022,2.778 -5.139,2.754 -5.235,2.635 -5.194,2.517 -5.154,2.412 -5.046,2.359 -4.932,2.392 -4.559,2.465 -3.694,2.549 -2.691,2.105 -1.566,1.605 -0.402,0.438 0,0"
         style="fill:#d5dfef;fill-opacity:1;fill-rule:nonzero;stroke:none"
         id="path6510"
         inkscape:connector-curvature="0" />
    </g>
    <g
       id="g6512"
       transform="matrix(0.35277777,0,0,-0.35277777,34.44111,397.33955)">
      <path
         d="m 0,0 c 0.182,-0.886 2.515,-1.896 3.624,-2.182 5.524,-1.445 14.844,4.568 15.334,4.851 0.646,0.371 0.894,0.843 0.894,0.843 0,0 0.014,-1.854 0.014,-1.711 0,0 0.128,-0.613 -0.436,-0.919 -0.57,-0.306 -6.534,-3.173 -7.668,-3.572 0,0 -4.821,-2.112 -8.464,-1.005 C 2.196,-3.36 0.711,-2.927 0.051,-1.861 -0.148,-1.526 -0.016,0.126 0,0"
         style="fill:#d5dfef;fill-opacity:1;fill-rule:nonzero;stroke:none"
         id="path6514"
         inkscape:connector-curvature="0" />
    </g>
    <g
       id="g6516"
       transform="matrix(0.35277777,0,0,-0.35277777,39.929971,373.1324)">
      <path
         d="m 0,0 c 1.025,0 1.72,0.813 2.416,1.608 2.395,2.738 14.63,17.17 14.214,21.079 -0.456,4.292 -7.149,16.021 -7.149,16.021 0,0 -3.714,6.414 -7.356,5.034 C -2.278,42.069 -1.728,35.957 0,32.958 3.518,26.847 7.742,22.747 7.247,21.535 5.879,18.194 -2.808,1.396 -2.808,1.396 -2.808,1.396 -4.259,0 0,0"
         style="fill:#f2ceb6;fill-opacity:1;fill-rule:nonzero;stroke:none"
         id="path6518"
         inkscape:connector-curvature="0" />
    </g>
    <g
       id="g6520"
       transform="matrix(0.35277777,0,0,-0.35277777,39.534339,371.78708)">
      <path
         d="m 0,0 c 0,0 -4.563,-1.104 -6.369,-3.767 -1.125,-1.658 -2.339,-2.699 -2.339,-2.699 0,0 0.329,-0.972 1.217,-0.76 0.349,0.082 0.688,0.166 1.37,0.873 1.9,1.98 3.46,0.914 3.46,0.914 z"
         style="fill:#d8b39a;fill-opacity:1;fill-rule:nonzero;stroke:none"
         id="path6522"
         inkscape:connector-curvature="0" />
    </g>
    <g
       id="g6524"
       transform="matrix(0.35277777,0,0,-0.35277777,42.180173,374.15058)">
      <path
         d="m 0,0 -15.948,-1.822 c 0,0 -0.907,-1.485 -0.603,-4.371 0.303,-2.886 0.146,-9.906 3.338,-9.601 4.048,0.385 9.94,2.009 13.548,2.793 3.499,0.761 2.624,3.69 2.624,3.69 z"
         style="fill:#231f20;fill-opacity:1;fill-rule:nonzero;stroke:none"
         id="path6526"
         inkscape:connector-curvature="0" />
    </g>
    <g
       id="g6528"
       transform="matrix(0.35277777,0,0,-0.35277777,37.817485,373.66569)">
      <path
         d="M 0,0 5.4,7.074 6.594,5.309 c 0,0 2.432,-1.671 1.369,-4.862 C 7.81,-0.01 7.534,-0.561 6.692,-1.939 6.077,-2.948 4.724,-4.779 4.906,-5.477 c 0.722,-2.774 -1.332,-3.08 -1.332,-3.08 0,0 -2.358,-0.531 -3.346,0.99 -0.458,0.706 -1.48,2.25 -1.18,4.525 C -0.823,-2.079 -0.599,-0.931 0,0"
         style="fill:#f2ceb6;fill-opacity:1;fill-rule:nonzero;stroke:none"
         id="path6530"
         inkscape:connector-curvature="0" />
    </g>
    <g
       id="g6532"
       transform="matrix(0.35277777,0,0,-0.35277777,36.294225,375.62837)">
      <path
         d="m 0,0 c -0.059,0.301 -5.948,30.254 -8.501,42.499 -3.432,16.479 1.044,19.115 1.977,19.479 l 0.426,-1.177 0.497,-1.142 C -5.638,59.639 -9.141,57.507 -6.125,43.025 -3.57,30.767 2.325,0.801 2.384,0.499 Z"
         style="fill:#231f20;fill-opacity:1;fill-rule:nonzero;stroke:none"
         id="path6534"
         inkscape:connector-curvature="0" />
    </g>
    <g
       id="g6536"
       transform="matrix(0.35277777,0,0,-0.35277777,36.215644,350.09816)">
      <path
         d="m 0,0 c -1.985,-0.517 -1.717,-2.467 -1.717,-2.467 l 1.041,-4.002 c 0,0 0.318,-0.839 1.102,-0.802 1.191,0.063 1.43,1.172 1.655,2.394 0.01,0.065 0.238,1.845 0.254,1.944 C 2.536,-1.421 1.877,0.49 0,0"
         style="fill:#ffe8d9;fill-opacity:1;fill-rule:nonzero;stroke:none"
         id="path6538"
         inkscape:connector-curvature="0" />
    </g>
    <g
       id="g6540"
       transform="matrix(0.35277777,0,0,-0.35277777,35.67428,347.32088)">
      <path
         d="m 0,0 v 0 l 7.555,-0.826 -1.287,-13.65 c -0.198,-0.923 -0.25,-1.781 -0.483,-2.551 -0.266,-0.85 -0.738,-1.613 -1.881,-2.306 0,0 -1.472,-0.918 -3.302,-1.507 -1.014,-0.327 -2.085,-1.014 -4.526,-0.66 -2.364,0.346 -2.982,2.521 -3.176,3.823 -0.387,2.54 -1.478,15.431 -1.478,15.431 l 0.939,4.391 z"
         style="fill:#e8c5ac;fill-opacity:1;fill-rule:nonzero;stroke:none"
         id="path6542"
         inkscape:connector-curvature="0" />
    </g>
    <g
       id="g6544"
       transform="matrix(0.35277777,0,0,-0.35277777,32.648082,348.11325)">
      <path
         d="m 0,0 c 1.937,-2.858 9.678,-7.969 9.678,-7.969 l 0.559,3.269 3.128,-4.85 c 0,0 3.081,4.629 2.857,3.214 -0.955,-6.025 -0.233,-9.532 -0.233,-9.532 0,0 1.863,3.631 5.302,12.074 3.973,9.756 -4.303,14.359 -9.604,14.269 C 6.298,10.382 0.631,7.547 -0.535,4.359 -1.662,1.271 0,0 0,0"
         style="fill:#281504;fill-opacity:1;fill-rule:nonzero;stroke:none"
         id="path6546"
         inkscape:connector-curvature="0" />
    </g>
    <g
       id="g6548"
       transform="matrix(0.35277777,0,0,-0.35277777,38.644466,350.14843)">
      <path
         d="m 0,0 c -1.957,0.196 -2.419,-2.235 -2.419,-2.235 l -0.352,-3.361 c 0,0 0.012,-0.855 0.739,-1.083 1.084,-0.342 1.669,0.581 2.275,1.593 0.035,0.066 0.825,1.583 0.88,1.669 C 1.804,-2.137 1.856,-0.204 0,0"
         style="fill:#e8c5ac;fill-opacity:1;fill-rule:nonzero;stroke:none"
         id="path6550"
         inkscape:connector-curvature="0" />
    </g>
    <g
       id="g6552"
       transform="matrix(0.35277777,0,0,-0.35277777,40.675011,357.67322)">
      <path
         d="m 0,0 c -4.404,-1.671 -3.944,-7.792 -2.624,-10.992 0.477,-1.154 2.915,-7.075 4.222,-9.05 2.429,-0.606 7.831,2.496 10.592,5.563 -2.092,4.578 -4.82,9.365 -4.82,9.365 0,0 -3.729,6.494 -7.37,5.114"
         style="fill:#5b97ef;fill-opacity:1;fill-rule:nonzero;stroke:none"
         id="path6554"
         inkscape:connector-curvature="0" />
    </g>
  </g>
</svg>
