<?xml version="1.0" encoding="UTF-8" standalone="no"?>
<!-- Created with Inkscape (http://www.inkscape.org/) -->

<svg
   xmlns:dc="http://purl.org/dc/elements/1.1/"
   xmlns:cc="http://creativecommons.org/ns#"
   xmlns:rdf="http://www.w3.org/1999/02/22-rdf-syntax-ns#"
   xmlns:svg="http://www.w3.org/2000/svg"
   xmlns="http://www.w3.org/2000/svg"
   xmlns:sodipodi="http://sodipodi.sourceforge.net/DTD/sodipodi-0.dtd"
   xmlns:inkscape="http://www.inkscape.org/namespaces/inkscape"
   width="34.333549mm"
   height="70.35865mm"
   viewBox="0 0 34.333549 70.35865"
   version="1.1"
   id="svg45331"
   inkscape:version="0.92.3 (2405546, 2018-03-11)"
   sodipodi:docname="people-business-18.svg">
  <defs
     id="defs45325">
    <clipPath
       id="clipPath2864"
       clipPathUnits="userSpaceOnUse">
      <path
         inkscape:connector-curvature="0"
         id="path2862"
         d="m 1713.778,1928.833 c -0.536,-0.312 -0.927,-0.874 -1.106,-1.65 v 0 l 1.125,0.653 c 0.179,0.778 0.57,1.34 1.107,1.651 v 0 z" />
    </clipPath>
    <clipPath
       id="clipPath2848"
       clipPathUnits="userSpaceOnUse">
      <path
         inkscape:connector-curvature="0"
         id="path2846"
         d="M 0,2119.953 H 3253.108 V 0 H 0 Z" />
    </clipPath>
    <clipPath
       id="clipPath2836"
       clipPathUnits="userSpaceOnUse">
      <path
         inkscape:connector-curvature="0"
         id="path2834"
         d="m 1711.152,1926.674 v -0.651 c 0.308,-0.179 0.813,-0.18 1.126,0 v 0 0.651 c -0.315,-0.183 -0.82,-0.178 -1.129,0" />
    </clipPath>
    <clipPath
       id="clipPath2820"
       clipPathUnits="userSpaceOnUse">
      <path
         inkscape:connector-curvature="0"
         id="path2818"
         d="M 0,2119.953 H 3253.108 V 0 H 0 Z" />
    </clipPath>
    <clipPath
       id="clipPath2808"
       clipPathUnits="userSpaceOnUse">
      <path
         inkscape:connector-curvature="0"
         id="path2806"
         d="m 1710.148,1926.8 c 0,-0.121 0.077,-0.238 0.231,-0.325 v 0 0.65 c -0.156,0.087 -0.233,0.207 -0.233,0.324 v 0 -0.649 z" />
    </clipPath>
    <clipPath
       id="clipPath2796"
       clipPathUnits="userSpaceOnUse">
      <path
         inkscape:connector-curvature="0"
         id="path2794"
         d="m 1714.756,1928.103 v -0.65 c 0.158,0.09 0.237,0.211 0.237,0.331 v 0 0.65 c 0,-0.119 -0.078,-0.24 -0.236,-0.331" />
    </clipPath>
    <clipPath
       id="clipPath2784"
       clipPathUnits="userSpaceOnUse">
      <path
         inkscape:connector-curvature="0"
         id="path2782"
         d="M 0,2119.953 H 3253.108 V 0 H 0 Z" />
    </clipPath>
    <clipPath
       id="clipPath2772"
       clipPathUnits="userSpaceOnUse">
      <path
         inkscape:connector-curvature="0"
         id="path2770"
         d="m 1720.53,1921.188 10e-4,-0.65 c 0.309,-0.181 0.814,-0.181 1.128,0 v 0 0.65 c -0.316,-0.182 -0.821,-0.181 -1.129,0" />
    </clipPath>
    <clipPath
       id="clipPath2756"
       clipPathUnits="userSpaceOnUse">
      <path
         inkscape:connector-curvature="0"
         id="path2754"
         d="M 0,2119.953 H 3253.108 V 0 H 0 Z" />
    </clipPath>
    <clipPath
       id="clipPath2744"
       clipPathUnits="userSpaceOnUse">
      <path
         inkscape:connector-curvature="0"
         id="path2742"
         d="m 1719.524,1921.312 c 0,-0.119 0.08,-0.235 0.234,-0.324 v 0 0.65 c -0.154,0.089 -0.233,0.207 -0.233,0.324 v 0 -0.65 z" />
    </clipPath>
    <clipPath
       id="clipPath2732"
       clipPathUnits="userSpaceOnUse">
      <path
         inkscape:connector-curvature="0"
         id="path2730"
         d="m 1724.133,1922.619 v -0.654 c 0.158,0.094 0.238,0.212 0.238,0.331 v 0 0.65 c 0,-0.117 -0.08,-0.238 -0.238,-0.327" />
    </clipPath>
    <clipPath
       id="clipPath2536"
       clipPathUnits="userSpaceOnUse">
      <path
         inkscape:connector-curvature="0"
         id="path2534"
         d="m 1708.77,1889.11 h 53.56 v -38.31 h -53.56 z" />
    </clipPath>
    <clipPath
       id="clipPath3428"
       clipPathUnits="userSpaceOnUse">
      <path
         inkscape:connector-curvature="0"
         id="path3426"
         d="m 1819.231,1919.634 0.051,-0.722 c 0.167,0.114 0.248,0.253 0.238,0.383 v 0 l -0.048,0.721 c 0.01,-0.131 -0.071,-0.272 -0.241,-0.382" />
    </clipPath>
    <clipPath
       id="clipPath3440"
       clipPathUnits="userSpaceOnUse">
      <path
         inkscape:connector-curvature="0"
         id="path3438"
         d="m 1814.225,1917.859 c 0.01,-0.132 0.103,-0.255 0.282,-0.343 v 0 l -0.049,0.721 c -0.177,0.085 -0.273,0.212 -0.281,0.34 v 0 z" />
    </clipPath>
    <clipPath
       id="clipPath3452"
       clipPathUnits="userSpaceOnUse">
      <path
         inkscape:connector-curvature="0"
         id="path3450"
         d="M 0,2119.953 H 3253.108 V 0 H 0 Z" />
    </clipPath>
    <clipPath
       id="clipPath3468"
       clipPathUnits="userSpaceOnUse">
      <path
         inkscape:connector-curvature="0"
         id="path3466"
         d="m 1815.349,1917.792 0.046,-0.72 c 0.354,-0.177 0.915,-0.14 1.248,0.082 v 0 l -0.048,0.721 c -0.335,-0.223 -0.893,-0.259 -1.246,-0.083" />
    </clipPath>
    <clipPath
       id="clipPath3480"
       clipPathUnits="userSpaceOnUse">
      <path
         inkscape:connector-curvature="0"
         id="path3478"
         d="M 0,2119.953 H 3253.108 V 0 H 0 Z" />
    </clipPath>
    <clipPath
       id="clipPath3492"
       clipPathUnits="userSpaceOnUse">
      <path
         inkscape:connector-curvature="0"
         id="path3490"
         d="m 1808.461,1925.033 0.049,-0.719 c 0.167,0.112 0.245,0.25 0.238,0.383 v 0 l -0.049,0.719 c 0.01,-0.131 -0.07,-0.268 -0.238,-0.383" />
    </clipPath>
    <clipPath
       id="clipPath3504"
       clipPathUnits="userSpaceOnUse">
      <path
         inkscape:connector-curvature="0"
         id="path3502"
         d="m 1803.454,1923.259 c 0.01,-0.132 0.102,-0.258 0.279,-0.342 v 0 l -0.048,0.72 c -0.177,0.086 -0.273,0.214 -0.28,0.342 v 0 z" />
    </clipPath>
    <clipPath
       id="clipPath3516"
       clipPathUnits="userSpaceOnUse">
      <path
         inkscape:connector-curvature="0"
         id="path3514"
         d="M 0,2119.953 H 3253.108 V 0 H 0 Z" />
    </clipPath>
    <clipPath
       id="clipPath3532"
       clipPathUnits="userSpaceOnUse">
      <path
         inkscape:connector-curvature="0"
         id="path3530"
         d="m 1804.576,1923.193 0.047,-0.721 c 0.353,-0.175 0.915,-0.14 1.248,0.081 v 0 l -0.049,0.722 c -0.333,-0.223 -0.894,-0.258 -1.246,-0.082" />
    </clipPath>
    <clipPath
       id="clipPath3544"
       clipPathUnits="userSpaceOnUse">
      <path
         inkscape:connector-curvature="0"
         id="path3542"
         d="M 0,2119.953 H 3253.108 V 0 H 0 Z" />
    </clipPath>
    <clipPath
       id="clipPath3560"
       clipPathUnits="userSpaceOnUse">
      <path
         inkscape:connector-curvature="0"
         id="path3558"
         d="m 1807.327,1925.772 c -0.572,-0.383 -0.964,-1.034 -1.106,-1.907 v 0 l 1.197,0.803 c 0.144,0.873 0.537,1.525 1.109,1.907 v 0 z" />
    </clipPath>
    <clipPath
       id="clipPath3240"
       clipPathUnits="userSpaceOnUse">
      <path
         inkscape:connector-curvature="0"
         id="path3238"
         d="m 1804.45,1875.26 h 66.26 v -26.97 h -66.26 z" />
    </clipPath>
    <clipPath
       id="clipPath3596"
       clipPathUnits="userSpaceOnUse">
      <path
         inkscape:connector-curvature="0"
         id="path3594"
         d="m 1887.55,1874.88 h 68.5 v -28.2 h -68.5 z" />
    </clipPath>
    <clipPath
       id="clipPath3760"
       clipPathUnits="userSpaceOnUse">
      <path
         inkscape:connector-curvature="0"
         id="path3758"
         d="m 1940.709,1921.043 c -0.01,-0.134 0.073,-0.277 0.243,-0.394 v 0 l 0.052,0.743 c -0.176,0.111 -0.256,0.256 -0.246,0.388 v 0 z" />
    </clipPath>
    <clipPath
       id="clipPath3772"
       clipPathUnits="userSpaceOnUse">
      <path
         inkscape:connector-curvature="0"
         id="path3770"
         d="m 1945.896,1919.955 -0.048,-0.737 c 0.182,0.088 0.281,0.215 0.289,0.351 v 0 l 0.048,0.737 c -0.01,-0.134 -0.106,-0.261 -0.289,-0.351" />
    </clipPath>
    <clipPath
       id="clipPath3784"
       clipPathUnits="userSpaceOnUse">
      <path
         inkscape:connector-curvature="0"
         id="path3782"
         d="M 0,2119.953 H 3253.108 V 0 H 0 Z" />
    </clipPath>
    <clipPath
       id="clipPath3800"
       clipPathUnits="userSpaceOnUse">
      <path
         inkscape:connector-curvature="0"
         id="path3798"
         d="m 1943.658,1918.845 c 0.343,-0.226 0.914,-0.264 1.28,-0.084 v 0 l 0.047,0.741 c -0.361,-0.182 -0.936,-0.146 -1.28,0.084 v 0 z" />
    </clipPath>
    <clipPath
       id="clipPath3812"
       clipPathUnits="userSpaceOnUse">
      <path
         inkscape:connector-curvature="0"
         id="path3810"
         d="M 0,2119.953 H 3253.108 V 0 H 0 Z" />
    </clipPath>
    <clipPath
       id="clipPath3824"
       clipPathUnits="userSpaceOnUse">
      <path
         inkscape:connector-curvature="0"
         id="path3822"
         d="m 1951.754,1926.58 c -0.01,-0.136 0.071,-0.278 0.241,-0.392 v 0 l 0.052,0.737 c -0.174,0.117 -0.253,0.258 -0.245,0.391 v 0 z" />
    </clipPath>
    <clipPath
       id="clipPath3836"
       clipPathUnits="userSpaceOnUse">
      <path
         inkscape:connector-curvature="0"
         id="path3834"
         d="m 1956.943,1925.491 -0.049,-0.737 c 0.18,0.088 0.277,0.215 0.287,0.352 v 0 l 0.049,0.737 c -0.01,-0.132 -0.104,-0.262 -0.287,-0.352" />
    </clipPath>
    <clipPath
       id="clipPath3848"
       clipPathUnits="userSpaceOnUse">
      <path
         inkscape:connector-curvature="0"
         id="path3846"
         d="M 0,2119.953 H 3253.108 V 0 H 0 Z" />
    </clipPath>
    <clipPath
       id="clipPath3864"
       clipPathUnits="userSpaceOnUse">
      <path
         inkscape:connector-curvature="0"
         id="path3862"
         d="m 1954.703,1924.383 c 0.34,-0.229 0.916,-0.262 1.279,-0.086 v 0 l 0.049,0.743 c -0.361,-0.183 -0.938,-0.15 -1.279,0.081 v 0 z" />
    </clipPath>
    <clipPath
       id="clipPath3876"
       clipPathUnits="userSpaceOnUse">
      <path
         inkscape:connector-curvature="0"
         id="path3874"
         d="M 0,2119.953 H 3253.108 V 0 H 0 Z" />
    </clipPath>
    <clipPath
       id="clipPath3892"
       clipPathUnits="userSpaceOnUse">
      <path
         inkscape:connector-curvature="0"
         id="path3890"
         d="m 1953.117,1926.55 1.227,-0.822 c -0.145,0.891 -0.551,1.561 -1.133,1.955 v 0 l -1.232,0.823 c 0.588,-0.393 0.989,-1.061 1.138,-1.956" />
    </clipPath>
  </defs>
  <sodipodi:namedview
     id="base"
     pagecolor="#ffffff"
     bordercolor="#666666"
     borderopacity="1.0"
     inkscape:pageopacity="0.0"
     inkscape:pageshadow="2"
     inkscape:zoom="0.35"
     inkscape:cx="-153.03761"
     inkscape:cy="36.576687"
     inkscape:document-units="mm"
     inkscape:current-layer="layer1"
     showgrid="false"
     fit-margin-top="0"
     fit-margin-left="0"
     fit-margin-right="0"
     fit-margin-bottom="0"
     inkscape:window-width="1366"
     inkscape:window-height="716"
     inkscape:window-x="-8"
     inkscape:window-y="-8"
     inkscape:window-maximized="1" />
  <metadata
     id="metadata45328">
    <rdf:RDF>
      <cc:Work
         rdf:about="">
        <dc:format>image/svg+xml</dc:format>
        <dc:type
           rdf:resource="http://purl.org/dc/dcmitype/StillImage" />
        <dc:title></dc:title>
      </cc:Work>
    </rdf:RDF>
  </metadata>
  <g
     inkscape:label="Layer 1"
     inkscape:groupmode="layer"
     id="layer1"
     transform="translate(36.993921,-360.29513)">
    <g
       transform="translate(121.32614,132.14176)"
       id="g43075">
      <g
         transform="matrix(0.35277777,0,0,-0.35277777,-150.22619,249.015)"
         id="g3226">
        <path
           inkscape:connector-curvature="0"
           id="path3228"
           style="fill:#f2c8a5;fill-opacity:1;fill-rule:nonzero;stroke:none"
           d="m 0,0 c 0,0 -3.502,2.757 -4.354,3.146 -2.158,0.988 -5.268,0.328 -7.535,1.499 -1.021,0.526 -1.939,1.319 -1.939,1.319 0,0 -1.94,-1.281 -0.512,-2.818 1.951,-2.106 4.168,-1.867 4.168,-1.867 0,0 -5.413,-2.487 -8.597,-2.924 -2.653,-0.368 -2.774,0.292 -3.476,-0.147 -0.696,-0.439 -1.06,-2.197 -0.181,-3.293 1.673,-2.093 5.011,-3.514 8.743,-2.964 3.733,0.549 8.451,2.635 8.451,2.635 l 5.16,-0.548 z" />
      </g>
      <g
         transform="matrix(0.35277777,0,0,-0.35277777,-818.8386,949.9808)"
         id="g3590">
        <g
           id="g3592" />
        <g
           id="g3604">
          <g
             style="opacity:0.28999299"
             id="g3602"
             clip-path="url(#clipPath3596)">
            <g
               id="g3600"
               transform="translate(1897.9004,1863.3052)">
              <path
                 inkscape:connector-curvature="0"
                 id="path3598"
                 style="fill:#231f20;fill-opacity:1;fill-rule:nonzero;stroke:none"
                 d="m 0,0 c 17.121,-1.991 11.148,-3.913 11.148,-7.568 0,-5.175 10.009,-9.054 20.821,-9.054 19.279,0 26.18,9.055 26.18,15.709 0,6.656 -14.954,12.488 -34.236,12.488 -20.318,0 -30.677,-1.228 -33.87,-5.604 C -12.324,2.729 -3.243,0.373 0,0" />
            </g>
          </g>
        </g>
      </g>
      <g
         transform="matrix(0.35277777,0,0,-0.35277777,-144.2803,285.36815)"
         id="g3606">
        <path
           inkscape:connector-curvature="0"
           id="path3608"
           style="fill:#231f20;fill-opacity:1;fill-rule:nonzero;stroke:none"
           d="m 0,0 -1.245,-2.854 c 0,0 -11.791,-4.885 -12.514,-5.277 -0.826,-0.444 -2.65,-1.23 -2.369,-2.808 0.066,-0.374 0.062,-0.617 0.31,-0.952 0.891,-1.183 2.622,-1.669 4.218,-1.901 3.485,-0.517 10.713,0.752 10.713,0.752 2.109,0.316 5.59,1.471 5.966,1.8 0,0 1.807,0.591 2.153,-0.047 0.128,-0.226 -0.016,-1.297 -0.034,-1.51 l 4.457,1.975 c 0.222,0.125 0.56,2.349 0.626,3.337 l -0.348,6.482 z" />
      </g>
      <g
         transform="matrix(0.35277777,0,0,-0.35277777,-149.07864,289.85693)"
         id="g3610">
        <path
           inkscape:connector-curvature="0"
           id="path3612"
           style="fill:#282827;fill-opacity:1;fill-rule:nonzero;stroke:none"
           d="m 0,0 c 0.92,-0.418 2.201,-0.607 3.469,-0.718 5.069,-0.437 12.626,1.511 12.626,1.511 0.754,0.197 3.591,0.988 3.591,0.988 0,0 1.168,0.122 1.148,-0.343 C 20.83,1.578 20.819,1.452 20.882,1.433 20.997,1.398 20.8,-0.073 20.8,-0.073 l -1.245,0.741 c 0,0 -3.466,-0.87 -4.074,-1.087 0,0 -7.278,-1.854 -12.377,-1.475 -1.611,0.121 -4.36,0.991 -5.374,2.458 C -2.451,0.829 -2.709,1.713 -2.538,2.171 -2.512,2.089 -1.246,0.564 0,0" />
      </g>
      <g
         transform="matrix(0.35277777,0,0,-0.35277777,-141.72887,289.34982)"
         id="g3614">
        <path
           inkscape:connector-curvature="0"
           id="path3616"
           style="fill:#282827;fill-opacity:1;fill-rule:nonzero;stroke:none"
           d="m 0,0 4.863,2.371 c 0,0 -0.327,-1.942 -0.395,-1.911 L 0.017,-1.519 C 0.024,-1.364 0.004,-0.404 0,0" />
      </g>
      <g
         transform="matrix(0.35277777,0,0,-0.35277777,-143.2485,259.28567)"
         id="g3618">
        <path
           inkscape:connector-curvature="0"
           id="path3620"
           style="fill:#141413;fill-opacity:1;fill-rule:nonzero;stroke:none"
           d="m 0,0 -4.474,-73.699 c -0.359,-2.516 -1.818,-3.33 -1.119,-4.217 2.615,-3.299 14.247,-6.635 15.971,-1.334 l 6.378,75.283 z" />
      </g>
      <g
         transform="matrix(0.35277777,0,0,-0.35277777,-130.36385,289.90706)"
         id="g3622">
        <path
           inkscape:connector-curvature="0"
           id="path3624"
           style="fill:#383736;fill-opacity:1;fill-rule:nonzero;stroke:none"
           d="m 0,0 c 0,0 0.23,-7.211 0.246,-7.381 0.252,-3.202 -3.189,-11.493 -8.215,-11.91 -1.636,-0.136 -2.173,-0.136 -3.37,0.182 -1.738,0.461 -3.438,2.554 -2.866,6.78 0.342,2.516 2.731,12.562 2.731,12.562 z" />
      </g>
      <g
         transform="matrix(0.35277777,0,0,-0.35277777,-130.1947,289.27298)"
         id="g3626">
        <path
           inkscape:connector-curvature="0"
           id="path3628"
           style="fill:#231f20;fill-opacity:1;fill-rule:nonzero;stroke:none"
           d="m 0,0 c 0,0 -0.392,-4.139 -0.716,-9.526 -0.195,-3.205 -3.428,-9.074 -7.719,-10.182 -1.258,-0.325 -2.334,-0.179 -2.41,-0.177 -1.907,0.105 -4.705,1.006 -3.65,7.626 0.373,2.365 1.927,11.473 2.058,11.479 z" />
      </g>
      <g
         transform="matrix(0.35277777,0,0,-0.35277777,-138.50321,261.13155)"
         id="g3630">
        <path
           inkscape:connector-curvature="0"
           id="path3632"
           style="fill:#383736;fill-opacity:1;fill-rule:nonzero;stroke:none"
           d="m 0,0 c 0.884,-13.043 9.015,-84.49 9.015,-84.49 0.136,-1.833 5.434,-3.945 5.434,-3.945 6.477,0.251 9.514,4.303 9.537,4.947 L 22.92,-1.742 Z" />
      </g>
      <g
         transform="matrix(0.35277777,0,0,-0.35277777,-134.18892,243.48165)"
         id="g3634">
        <path
           inkscape:connector-curvature="0"
           id="path3636"
           style="fill:#d7dfe2;fill-opacity:1;fill-rule:nonzero;stroke:none"
           d="m 0,0 c 0,0 -3.36,5.934 -6.436,7.119 -3.076,1.182 -12.967,0.641 -12.967,0.641 0,0 -5.276,-11.484 -5.326,-12.266 -0.051,-0.786 2.453,-21.445 2.453,-21.445 l 13.193,10.481 z" />
      </g>
      <g
         transform="matrix(0.35277777,0,0,-0.35277777,-142.01928,240.81927)"
         id="g3638">
        <path
           inkscape:connector-curvature="0"
           id="path3640"
           style="fill:#3d4244;fill-opacity:1;fill-rule:nonzero;stroke:none"
           d="M 0,0 C 1.521,2.454 4.738,2.587 6.885,2.36 4.255,0.484 0.789,-5.621 0.229,-14.303 c -0.292,-4.53 0.743,-16.13 0.892,-15.872 0.14,0.243 8.772,17.191 12.163,20.278 0.482,0.439 5.089,9.384 5.089,9.384 0,0 12.227,-10.063 13.395,-12.171 l -3.9,-60.235 c -0.18,-1.369 0.066,-1.844 -1.356,-2.491 0,0 -7.138,-2.069 -15.502,-1.806 -6.617,0.214 -17.215,4.485 -17.215,4.485 -0.182,0.136 -0.502,0.251 -0.465,0.816 l 2.45,22.208 C -4.577,-26.168 -3.521,-5.683 0,0" />
      </g>
      <g
         transform="matrix(0.35277777,0,0,-0.35277777,-142.22325,267.17925)"
         id="g3642">
        <path
           inkscape:connector-curvature="0"
           id="path3644"
           style="fill:#383736;fill-opacity:1;fill-rule:nonzero;stroke:none"
           d="M 0,0 1.648,26.059 1.227,44.084 c 0,0 0.718,1.593 1.002,2.094 L 2.301,26.202 0.752,-0.27 C 0.735,-0.236 0.033,-0.019 0,0" />
      </g>
      <g
         transform="matrix(0.35277777,0,0,-0.35277777,-140.48417,242.38352)"
         id="g3646">
        <path
           inkscape:connector-curvature="0"
           id="path3648"
           style="fill:#e8c5ac;fill-opacity:1;fill-rule:nonzero;stroke:none"
           d="M 0,0 C 4.738,-4.97 9.496,1.015 12.762,4.673 L 11.404,22.161 0.844,14.107 Z" />
      </g>
      <g
         transform="matrix(0.35277777,0,0,-0.35277777,-140.70843,245.37783)"
         id="g3650">
        <path
           inkscape:connector-curvature="0"
           id="path3652"
           style="fill:#160b01;fill-opacity:1;fill-rule:nonzero;stroke:none"
           d="M 0,0 C 0.126,0.481 0.449,0.979 0.351,1.554 L 0.009,3.3 2.415,6.856 3.665,6.615 4.366,2.586 2.658,1.218 C 2.271,0.864 1.762,0.148 1.782,-0.355 l -1.241,-11.419 -3.054,-4.814 c 0,0 -1.098,3.505 -1.05,4.797 C -3.403,-7.238 0,0 0,0" />
      </g>
      <g
         transform="matrix(0.35277777,0,0,-0.35277777,-140.41111,240.78449)"
         id="g3654">
        <path
           inkscape:connector-curvature="0"
           id="path3656"
           style="fill:#7a797a;fill-opacity:1;fill-rule:nonzero;stroke:none"
           d="m 0,0 -0.756,1.971 c 0,0 -0.961,-0.516 -1.178,-0.663 -1.21,-0.819 -1.872,-2.075 -2.348,-2.869 -0.951,-1.592 -3.342,-6.617 -3.342,-6.617 -0.47,-1.151 -0.225,-1.955 0.416,-2.735 l 1.853,-2.35 -1.907,-1.505 c -1.242,-0.841 -0.853,-2.596 -0.479,-3.829 1.325,-4.344 4.386,-11.011 4.386,-11.011 0,0 -0.761,7.812 -0.61,12.433 C -3.625,-6.741 0,0 0,0" />
      </g>
      <g
         transform="matrix(0.35277777,0,0,-0.35277777,-139.74654,242.7151)"
         id="g3658">
        <path
           inkscape:connector-curvature="0"
           id="path3660"
           style="fill:#ffffff;fill-opacity:1;fill-rule:nonzero;stroke:none"
           d="m 0,0 c 0.656,-0.597 0.089,-1.32 -0.315,-1.822 l -2.52,-3.115 c -0.796,-0.924 -1.068,0.187 -1.027,1.213 l 0.138,7.414 c 0.369,3.883 2.057,4.175 2.057,4.175 0,0 -0.095,-0.938 -0.066,-2.137 C -1.689,4.129 -1.882,1.708 0,0" />
      </g>
      <g
         transform="matrix(0.35277777,0,0,-0.35277777,-136.0834,239.23057)"
         id="g3662">
        <path
           inkscape:connector-curvature="0"
           id="path3664"
           style="fill:#ffffff;fill-opacity:1;fill-rule:nonzero;stroke:none"
           d="m 0,0 c 0,0 0.059,-2.643 -0.409,-3.744 -2.306,-5.405 -9.031,-6.361 -9.031,-6.361 -0.788,-0.243 -0.778,-0.626 -0.734,-1.949 l 0.484,-4.845 c 0.049,-1.267 0.711,-1.179 1.247,-0.687 0,0 5.324,4.074 6.832,5.457 3.549,3.259 3.8,5.659 3.062,10.147 C 1.125,0 0,0 0,0" />
      </g>
      <g
         transform="matrix(0.35277777,0,0,-0.35277777,-135.59177,239.8388)"
         id="g3666">
        <path
           inkscape:connector-curvature="0"
           id="path3668"
           style="fill:#7a797a;fill-opacity:1;fill-rule:nonzero;stroke:none"
           d="m 0,0 2.574,-5.101 c 0,0 0.467,-0.645 0.309,-1.979 C 2.772,-8.022 2.302,-9.328 2.302,-9.328 l -3.226,-6.689 c -0.549,-1.592 -1.171,-2.095 -2.403,-2.113 l -4.356,-0.261 1.34,-3.131 c 0.46,-1.001 0.088,-1.541 -0.771,-2.115 -8.897,-5.955 -10.416,-9.881 -10.416,-9.881 0,0 -0.025,4.303 7.544,16.266 1.928,3.054 5.235,7.379 7.579,10.878 C 0.646,-1.818 0,0 0,0" />
      </g>
      <g
         transform="matrix(0.35277777,0,0,-0.35277777,-129.92493,268.1835)"
         id="g3670">
        <path
           inkscape:connector-curvature="0"
           id="path3672"
           style="fill:#e8c5ac;fill-opacity:1;fill-rule:nonzero;stroke:none"
           d="m 0,0 c 0.1,-1.839 -2.318,-3.184 -3.991,-3.27 -0.585,-0.034 -1.271,-4.558 -3.68,-4.531 0,0 -0.059,1.201 -0.091,3.309 -0.003,0.166 -0.365,1.944 0.662,3.266 2.721,3.501 3.018,4.153 4.693,4.247 C -0.733,3.106 -0.101,1.836 0,0" />
      </g>
      <g
         transform="matrix(0.35277777,0,0,-0.35277777,-126.93355,276.57041)"
         id="g3674">
        <path
           inkscape:connector-curvature="0"
           id="path3676"
           style="fill:#6d320a;fill-opacity:1;fill-rule:nonzero;stroke:none"
           d="M 0,0 C -0.019,-0.28 -0.155,-0.586 -0.353,-0.832 Z" />
      </g>
      <g
         transform="matrix(0.35277777,0,0,-0.35277777,-126.86088,275.40529)"
         id="g3678">
        <path
           inkscape:connector-curvature="0"
           id="path3680"
           style="fill:#6d320a;fill-opacity:1;fill-rule:nonzero;stroke:none"
           d="M 0,0 C 6.587,7.683 8.068,16.14 8.147,16.583 L 8.05,15.04 7.803,14.106 C 7.145,11.41 5.088,4.685 -0.082,-1.303 Z" />
      </g>
      <g
         transform="matrix(0.35277777,0,0,-0.35277777,-132.557,279.34973)"
         id="g3682">
        <path
           inkscape:connector-curvature="0"
           id="path3684"
           style="fill:#6d320a;fill-opacity:1;fill-rule:nonzero;stroke:none"
           d="M 0,0 C -0.019,-0.277 -0.155,-0.584 -0.352,-0.829 Z" />
      </g>
      <g
         transform="matrix(0.35277777,0,0,-0.35277777,-136.28491,283.97408)"
         id="g3686">
        <path
           inkscape:connector-curvature="0"
           id="path3688"
           style="fill:#723919;fill-opacity:1;fill-rule:nonzero;stroke:none"
           d="m 0,0 -7.681,5.152 c -0.316,0.214 -0.492,0.632 -0.457,1.21 L -0.458,1.21 C -0.495,0.632 -0.317,0.212 0,0" />
      </g>
      <g
         transform="matrix(0.35277777,0,0,-0.35277777,-135.94663,275.46455)"
         id="g3690">
        <path
           inkscape:connector-curvature="0"
           id="path3692"
           style="fill:#8c532c;fill-opacity:1;fill-rule:nonzero;stroke:none"
           d="m 0,0 -0.098,-1.539 0.121,-0.756 c 0.736,-4.223 3.091,-6.99 6.458,-7.89 0,0 7.176,0.563 9.447,1.687 2.395,1.184 6.204,4.22 6.624,4.431 l 3.121,2.932 c 5.17,5.988 7.226,12.713 7.885,15.409 l 0.247,0.934 -1.323,-21.371 c -0.073,-1.161 -0.98,-2.523 -2.029,-3.042 L 0.347,-24.081 c -1.048,-0.518 -1.836,0.008 -1.764,1.169 z" />
      </g>
      <g
         transform="matrix(0.35277777,0,0,-0.35277777,-135.95249,275.55377)"
         id="g3694">
        <path
           inkscape:connector-curvature="0"
           id="path3696"
           style="fill:#5c361d;fill-opacity:1;fill-rule:nonzero;stroke:none"
           d="m 0,0 -7.677,5.155 0.014,0.252 7.68,-5.154 z" />
      </g>
      <g
         transform="matrix(0.35277777,0,0,-0.35277777,-135.95249,275.55377)"
         id="g3698">
        <path
           inkscape:connector-curvature="0"
           id="path3700"
           style="fill:#6d320a;fill-opacity:1;fill-rule:nonzero;stroke:none"
           d="M 0,0 C 0.57,-4.668 3.008,-7.717 6.586,-8.67 6.576,-8.716 6.57,-8.76 6.567,-8.806 L 6.498,-9.932 c -3.367,0.9 -5.723,3.667 -6.458,7.89 l -0.121,0.756 z" />
      </g>
      <g
         transform="matrix(0.35277777,0,0,-0.35277777,-123.98662,269.555)"
         id="g3702">
        <path
           inkscape:connector-curvature="0"
           id="path3704"
           style="fill:#a5683d;fill-opacity:1;fill-rule:nonzero;stroke:none"
           d="m 0,0 c -0.079,-0.443 -1.561,-8.9 -8.147,-16.583 l 0.016,0.269 c 0.027,0.465 -0.291,0.672 -0.71,0.467 l -1.762,-0.872 c -0.419,-0.206 -0.783,-0.751 -0.811,-1.215 l -0.126,-2.055 c -1.815,-1.567 -3.902,-2.991 -6.298,-4.174 -2.27,-1.125 -4.413,-1.714 -6.347,-1.813 l 0.113,1.788 c 0.026,0.46 -0.289,0.671 -0.706,0.466 l -1.762,-0.872 c -0.382,-0.186 -0.714,-0.651 -0.793,-1.08 -3.578,0.952 -6.016,4.001 -6.586,8.67 l 0.017,0.253 10.6,5.236 1.546,0.765 9.54,4.715 1.549,0.766 z" />
      </g>
      <g
         transform="matrix(0.35277777,0,0,-0.35277777,-126.69549,267.73667)"
         id="g3706">
        <path
           inkscape:connector-curvature="0"
           id="path3708"
           style="fill:#6d3b18;fill-opacity:1;fill-rule:nonzero;stroke:none"
           d="m 0,0 7.679,-5.154 -33.903,-16.752 -0.097,-1.539 -1.32,-21.372 c -0.037,-0.578 0.141,-0.998 0.458,-1.21 l -7.68,5.152 c -0.317,0.214 -0.492,0.632 -0.457,1.209 l 1.417,22.915 z" />
      </g>
      <g
         transform="matrix(0.35277777,0,0,-0.35277777,-132.49911,278.68827)"
         id="g3710">
        <path
           inkscape:connector-curvature="0"
           id="path3712"
           style="fill:#6d320a;fill-opacity:1;fill-rule:nonzero;stroke:none"
           d="m 0,0 c 1.934,0.103 4.07,0.687 6.344,1.811 2.399,1.186 4.484,2.612 6.299,4.177 L 13.392,5.742 13.185,5.188 C 11.373,3.633 8.663,1.733 6.266,0.55 3.994,-0.575 1.854,-1.162 -0.082,-1.265 Z" />
      </g>
      <g
         transform="matrix(0.35277777,0,0,-0.35277777,-133.44583,279.33615)"
         id="g3714">
        <path
           inkscape:connector-curvature="0"
           id="path3716"
           style="fill:#75460d;fill-opacity:1;fill-rule:nonzero;stroke:none"
           d="m 0,0 -0.107,-1.723 c -0.012,-0.204 0.05,-0.354 0.164,-0.426 l -0.307,0.204 c -0.115,0.075 -0.177,0.224 -0.162,0.425 l 0.103,1.726 z" />
      </g>
      <g
         transform="matrix(0.35277777,0,0,-0.35277777,-133.44583,279.33615)"
         id="g3718">
        <path
           inkscape:connector-curvature="0"
           id="path3720"
           style="fill:#eb921a;fill-opacity:1;fill-rule:nonzero;stroke:none"
           d="M 0,0 -0.309,0.206 2.385,1.538 2.693,1.333 Z" />
      </g>
      <g
         transform="matrix(0.35277777,0,0,-0.35277777,-132.49565,278.86604)"
         id="g3722">
        <path
           inkscape:connector-curvature="0"
           id="path3724"
           style="fill:#d87a13;fill-opacity:1;fill-rule:nonzero;stroke:none"
           d="m 0,0 -0.107,-1.725 c -0.026,-0.41 -0.344,-0.89 -0.712,-1.069 L -2.18,-3.47 c -0.367,-0.179 -0.644,0.005 -0.621,0.414 l 0.108,1.723 z" />
      </g>
      <g
         transform="matrix(0.35277777,0,0,-0.35277777,-133.42343,278.18634)"
         id="g3726">
        <path
           inkscape:connector-curvature="0"
           id="path3728"
           style="fill:#89550f;fill-opacity:1;fill-rule:nonzero;stroke:none"
           d="M 0,0 1.762,0.869 C 1.975,0.973 2.159,0.972 2.286,0.89 L 2.901,0.473 C 2.774,0.562 2.59,0.562 2.378,0.458 L 0.615,-0.412 C 0.232,-0.6 -0.161,-1.141 -0.193,-1.627 l -0.13,-2.089 -0.616,0.412 0.13,2.089 C -0.778,-0.736 -0.389,-0.192 0,0" />
      </g>
      <g
         transform="matrix(0.35277777,0,0,-0.35277777,-132.58455,278.02459)"
         id="g3730">
        <path
           inkscape:connector-curvature="0"
           id="path3732"
           style="fill:#f99b1c;fill-opacity:1;fill-rule:nonzero;stroke:none"
           d="m 0,0 c 0.419,0.205 0.734,0 0.705,-0.466 l -0.129,-2.091 -3.277,-1.618 0.13,2.09 c 0.025,0.465 0.389,1.007 0.808,1.214 z" />
      </g>
      <g
         transform="matrix(0.35277777,0,0,-0.35277777,-127.76074,276.59626)"
         id="g3734">
        <path
           inkscape:connector-curvature="0"
           id="path3736"
           style="fill:#75460d;fill-opacity:1;fill-rule:nonzero;stroke:none"
           d="m 0,0 -0.108,-1.722 c -0.013,-0.207 0.051,-0.354 0.165,-0.427 l -0.309,0.203 c -0.111,0.075 -0.176,0.226 -0.161,0.426 l 0.105,1.725 z" />
      </g>
      <g
         transform="matrix(0.35277777,0,0,-0.35277777,-127.76074,276.59626)"
         id="g3738">
        <path
           inkscape:connector-curvature="0"
           id="path3740"
           style="fill:#eb921a;fill-opacity:1;fill-rule:nonzero;stroke:none"
           d="M 0,0 -0.308,0.205 2.387,1.536 2.695,1.332 Z" />
      </g>
      <g
         transform="matrix(0.35277777,0,0,-0.35277777,-126.80986,276.12651)"
         id="g3742">
        <path
           inkscape:connector-curvature="0"
           id="path3744"
           style="fill:#d87a13;fill-opacity:1;fill-rule:nonzero;stroke:none"
           d="M 0,0 -0.107,-1.727 C -0.135,-2.134 -0.45,-2.614 -0.821,-2.794 l -1.361,-0.674 c -0.367,-0.178 -0.645,0.002 -0.622,0.415 l 0.109,1.721 z" />
      </g>
      <g
         transform="matrix(0.35277777,0,0,-0.35277777,-127.73799,275.44663)"
         id="g3746">
        <path
           inkscape:connector-curvature="0"
           id="path3748"
           style="fill:#89550f;fill-opacity:1;fill-rule:nonzero;stroke:none"
           d="M 0,0 1.762,0.869 C 1.973,0.976 2.158,0.973 2.287,0.887 L 2.9,0.476 C 2.773,0.561 2.588,0.563 2.377,0.459 L 0.614,-0.411 C 0.536,-0.452 0.459,-0.508 0.383,-0.572 0.371,-0.58 0.354,-0.59 0.342,-0.605 0.061,-0.857 -0.173,-1.258 -0.194,-1.629 l -0.13,-2.09 -0.615,0.415 0.129,2.088 C -0.777,-0.739 -0.391,-0.193 0,0" />
      </g>
      <g
         transform="matrix(0.35277777,0,0,-0.35277777,-126.89947,275.28471)"
         id="g3750">
        <path
           inkscape:connector-curvature="0"
           id="path3752"
           style="fill:#f99b1c;fill-opacity:1;fill-rule:nonzero;stroke:none"
           d="m 0,0 c 0.42,0.206 0.735,0 0.705,-0.467 l -0.127,-2.089 -3.279,-1.622 0.13,2.09 c 0.027,0.465 0.389,1.009 0.808,1.218 z" />
      </g>
      <g
         id="g42297">
        <g
           id="g3218"
           transform="matrix(0.35277777,0,0,-0.35277777,-151.45852,252.6096)">
          <path
             d="m 0,0 c 0.587,-0.397 6.675,-4.553 17.321,-6.42 2.004,-0.351 6.733,2.744 8.049,6.146 0.17,0.44 4.217,13.987 4.794,15.292 1.744,3.952 -1.93,7.046 -1.93,7.046 0,0 5.746,11.939 0.942,13.258 -4.39,1.209 -7.39,-5.596 -7.83,-7.791 C 20.639,23.99 16.188,7.011 14.47,7.557 10.34,8.867 2.25,11.764 2.25,11.764 c 0,0 -2.995,-0.508 -3.97,-3.716 C -2.333,6.036 -2.525,1.7 0,0"
             style="fill:#3a3e3f;fill-opacity:1;fill-rule:nonzero;stroke:none"
             id="path3220"
             inkscape:connector-curvature="0" />
        </g>
        <g
           id="g3222"
           transform="matrix(0.35277777,0,0,-0.35277777,-150.39362,248.74404)">
          <path
             d="m 0,0 c 0,0 -1.392,1.095 -2.451,-0.915 -1.063,-2.012 -1.713,-5.014 -1.355,-7.207 0.274,-1.685 0.787,-2.34 1.921,-2.304 1.171,0.037 2.947,3.218 3.017,5.378 C 1.207,-2.89 1.021,-0.331 0,0"
             style="fill:#d6eae9;fill-opacity:1;fill-rule:nonzero;stroke:none"
             id="path3224"
             inkscape:connector-curvature="0" />
        </g>
        <g
           id="g3230"
           transform="matrix(0.35277777,0,0,-0.35277777,-150.65199,248.62829)">
          <path
             d="m 0,0 c 0,0 1.279,-0.438 0.879,-4.353 -0.236,-2.293 -0.681,-4.574 -1.044,-5.232 -0.659,-1.188 -1.509,-1.106 -1.483,-1.133 0.056,-0.055 1.757,-0.183 1.757,-0.183 0,0 2.838,1.211 2.632,6.67 -0.115,3.043 -0.987,3.645 -0.987,3.645 z"
             style="fill:#ffffff;fill-opacity:1;fill-rule:nonzero;stroke:none"
             id="path3232"
             inkscape:connector-curvature="0" />
        </g>
        <g
           id="g3754"
           transform="matrix(0.35277777,0,0,-0.35277777,-818.8386,949.9808)">
          <g
             id="g3756"
             clip-path="url(#clipPath3760)">
            <g
               id="g3762"
               transform="translate(1941.0039,1921.3916)">
              <path
                 d="m 0,0 -0.052,-0.743 c -0.171,0.118 -0.253,0.26 -0.243,0.394 l 0.049,0.738 C -0.256,0.256 -0.176,0.111 0,0"
                 style="fill:#f99b1c;fill-opacity:1;fill-rule:nonzero;stroke:none"
                 id="path3764"
                 inkscape:connector-curvature="0" />
            </g>
          </g>
        </g>
        <g
           id="g3766"
           transform="matrix(0.35277777,0,0,-0.35277777,-818.8386,949.9808)">
          <g
             id="g3768"
             clip-path="url(#clipPath3772)">
            <g
               id="g3774"
               transform="translate(1946.1855,1920.3057)">
              <path
                 d="M 0,0 -0.049,-0.736 C -0.057,-0.873 -0.155,-1 -0.338,-1.088 l 0.049,0.737 C -0.106,-0.261 -0.009,-0.133 0,0"
                 style="fill:#ea921a;fill-opacity:1;fill-rule:nonzero;stroke:none"
                 id="path3776"
                 inkscape:connector-curvature="0" />
            </g>
          </g>
        </g>
        <g
           id="g3778"
           transform="matrix(0.35277777,0,0,-0.35277777,-818.8386,949.9808)">
          <g
             id="g3780"
             clip-path="url(#clipPath3784)">
            <g
               id="g3786"
               transform="translate(1945.8965,1919.9546)">
              <path
                 d="m 0,0 -0.049,-0.737 -0.91,-0.456 0.048,0.741 z"
                 style="fill:#ea921a;fill-opacity:1;fill-rule:nonzero;stroke:none"
                 id="path3788"
                 inkscape:connector-curvature="0" />
            </g>
            <g
               id="g3790"
               transform="translate(1943.7051,1919.5859)">
              <path
                 d="m 0,0 -0.047,-0.741 -2.706,1.804 0.052,0.743 z"
                 style="fill:#ffc585;fill-opacity:1;fill-rule:nonzero;stroke:none"
                 id="path3792"
                 inkscape:connector-curvature="0" />
            </g>
          </g>
        </g>
        <g
           id="g3794"
           transform="matrix(0.35277777,0,0,-0.35277777,-818.8386,949.9808)">
          <g
             id="g3796"
             clip-path="url(#clipPath3800)">
            <g
               id="g3802"
               transform="translate(1944.9854,1919.5024)">
              <path
                 d="m 0,0 -0.048,-0.741 c -0.366,-0.18 -0.936,-0.142 -1.279,0.084 l 0.047,0.74 C -0.937,-0.146 -0.361,-0.182 0,0"
                 style="fill:#f99b1c;fill-opacity:1;fill-rule:nonzero;stroke:none"
                 id="path3804"
                 inkscape:connector-curvature="0" />
            </g>
          </g>
        </g>
        <g
           id="g3806"
           transform="matrix(0.35277777,0,0,-0.35277777,-818.8386,949.9808)">
          <g
             id="g3808"
             clip-path="url(#clipPath3812)">
            <g
               id="g3814"
               transform="translate(1945.9414,1920.6948)">
              <path
                 d="m 0,0 c 0.343,-0.228 0.323,-0.556 -0.045,-0.74 l -0.911,-0.452 c -0.361,-0.183 -0.937,-0.147 -1.28,0.083 l -2.702,1.806 c -0.344,0.224 -0.327,0.561 0.039,0.739 l 0.913,0.455 c 0.365,0.183 0.938,0.141 1.279,-0.087 z"
                 style="fill:#ffb255;fill-opacity:1;fill-rule:nonzero;stroke:none"
                 id="path3816"
                 inkscape:connector-curvature="0" />
            </g>
          </g>
        </g>
        <g
           id="g3818"
           transform="matrix(0.35277777,0,0,-0.35277777,-818.8386,949.9808)">
          <g
             id="g3820"
             clip-path="url(#clipPath3824)">
            <g
               id="g3826"
               transform="translate(1952.0469,1926.9248)">
              <path
                 d="m 0,0 -0.052,-0.736 c -0.171,0.113 -0.251,0.255 -0.241,0.391 l 0.048,0.736 C -0.253,0.258 -0.174,0.117 0,0"
                 style="fill:#f99b1c;fill-opacity:1;fill-rule:nonzero;stroke:none"
                 id="path3828"
                 inkscape:connector-curvature="0" />
            </g>
          </g>
        </g>
        <g
           id="g3830"
           transform="matrix(0.35277777,0,0,-0.35277777,-818.8386,949.9808)">
          <g
             id="g3832"
             clip-path="url(#clipPath3836)">
            <g
               id="g3838"
               transform="translate(1957.2305,1925.8433)">
              <path
                 d="m 0,0 -0.05,-0.737 c -0.01,-0.137 -0.106,-0.264 -0.286,-0.351 l 0.049,0.736 C -0.104,-0.263 -0.009,-0.132 0,0"
                 style="fill:#ea921a;fill-opacity:1;fill-rule:nonzero;stroke:none"
                 id="path3840"
                 inkscape:connector-curvature="0" />
            </g>
          </g>
        </g>
        <g
           id="g3842"
           transform="matrix(0.35277777,0,0,-0.35277777,-818.8386,949.9808)">
          <g
             id="g3844"
             clip-path="url(#clipPath3848)">
            <g
               id="g3850"
               transform="translate(1956.9434,1925.4912)">
              <path
                 d="m 0,0 -0.049,-0.736 -0.913,-0.458 0.05,0.742 z"
                 style="fill:#ea921a;fill-opacity:1;fill-rule:nonzero;stroke:none"
                 id="path3852"
                 inkscape:connector-curvature="0" />
            </g>
            <g
               id="g3854"
               transform="translate(1954.752,1925.1211)">
              <path
                 d="m 0,0 -0.049,-0.739 -2.708,1.806 0.052,0.737 z"
                 style="fill:#ffc585;fill-opacity:1;fill-rule:nonzero;stroke:none"
                 id="path3856"
                 inkscape:connector-curvature="0" />
            </g>
          </g>
        </g>
        <g
           id="g3858"
           transform="matrix(0.35277777,0,0,-0.35277777,-818.8386,949.9808)">
          <g
             id="g3860"
             clip-path="url(#clipPath3864)">
            <g
               id="g3866"
               transform="translate(1956.0313,1925.0396)">
              <path
                 d="m 0,0 -0.05,-0.742 c -0.362,-0.177 -0.938,-0.143 -1.278,0.085 l 0.049,0.739 C -0.938,-0.149 -0.361,-0.182 0,0"
                 style="fill:#f99b1c;fill-opacity:1;fill-rule:nonzero;stroke:none"
                 id="path3868"
                 inkscape:connector-curvature="0" />
            </g>
          </g>
        </g>
        <g
           id="g3870"
           transform="matrix(0.35277777,0,0,-0.35277777,-818.8386,949.9808)">
          <g
             id="g3872"
             clip-path="url(#clipPath3876)">
            <g
               id="g3878"
               transform="translate(1956.9863,1926.2344)">
              <path
                 d="m 0,0 c 0.343,-0.23 0.323,-0.56 -0.043,-0.743 l -0.912,-0.452 c -0.361,-0.182 -0.939,-0.149 -1.279,0.082 L -4.939,0.69 C -5.281,0.92 -5.262,1.254 -4.9,1.432 l 0.915,0.456 c 0.365,0.181 0.939,0.144 1.28,-0.083 z"
                 style="fill:#ffb255;fill-opacity:1;fill-rule:nonzero;stroke:none"
                 id="path3880"
                 inkscape:connector-curvature="0" />
            </g>
            <g
               id="g3882"
               transform="translate(1951.9795,1928.5059)">
              <path
                 d="M 0,0 1.231,-0.823 C 1.813,-1.217 2.22,-1.887 2.364,-2.778 L 1.138,-1.956 C 0.988,-1.06 0.588,-0.393 0,0"
                 style="fill:#8c532c;fill-opacity:1;fill-rule:nonzero;stroke:none"
                 id="path3884"
                 inkscape:connector-curvature="0" />
            </g>
          </g>
        </g>
        <g
           id="g3886"
           transform="matrix(0.35277777,0,0,-0.35277777,-818.8386,949.9808)">
          <g
             id="g3888"
             clip-path="url(#clipPath3892)">
            <g
               id="g3894"
               transform="translate(1954.3438,1925.728)">
              <path
                 d="M 0,0 -1.227,0.822 C -1.376,1.718 -1.776,2.385 -2.364,2.778 L -1.133,1.955 C -0.551,1.561 -0.145,0.891 0,0"
                 style="fill:#8c532c;fill-opacity:1;fill-rule:nonzero;stroke:none"
                 id="path3896"
                 inkscape:connector-curvature="0" />
            </g>
          </g>
        </g>
        <g
           id="g3906"
           transform="matrix(0.35277777,0,0,-0.35277777,-129.81849,269.04114)">
          <path
             d="m 0,0 c -3.419,2.298 -9.856,-3.072 -11.101,-9.151 l 1.229,-0.823 c 1.241,6.065 7.679,11.451 11.103,9.15 z"
             style="fill:#8c532c;fill-opacity:1;fill-rule:nonzero;stroke:none"
             id="path3908"
             inkscape:connector-curvature="0" />
        </g>
        <g
           id="g3910"
           transform="matrix(0.35277777,0,0,-0.35277777,-130.94296,269.38136)">
          <path
             d="M 0,0 C 3.157,1.561 5.629,0.312 5.95,-2.767 L 4.403,-3.53 c -0.355,2.156 -2.186,2.995 -4.509,1.845 -2.32,-1.145 -4.377,-3.904 -5.032,-6.56 L -6.685,-9.01 C -5.95,-5.411 -3.162,-1.563 0,0"
             style="fill:#a5683d;fill-opacity:1;fill-rule:nonzero;stroke:none"
             id="path3912"
             inkscape:connector-curvature="0" />
        </g>
        <g
           id="g3914"
           transform="matrix(0.35277777,0,0,-0.35277777,-129.16115,267.26659)">
          <path
             d="m 0,0 -4.838,-0.208 -1.813,-0.599 0.347,-6.151 c 0,0 -0.062,-0.837 -0.908,-2.005 -0.331,-0.465 -1.205,-1.696 -1.205,-1.696 0,0 -0.645,-3.02 2.188,-2.5 0.916,0.164 2.226,0.497 2.226,0.497 1.226,0.078 3.274,0.441 4.637,0.609 3.14,0.383 2.65,4.118 2.65,4.118 L 3.16,-4.274 C 3.116,-2.226 2.211,0.094 0,0"
             style="fill:#ffe1cc;fill-opacity:1;fill-rule:nonzero;stroke:none"
             id="path3916"
             inkscape:connector-curvature="0" />
        </g>
        <g
           id="g3918"
           transform="matrix(0.35277777,0,0,-0.35277777,-129.62037,268.52647)">
          <path
             d="m 0,0 c 1.886,-0.133 3.141,0.522 3.141,0.522 0,0 1.691,0.739 1.838,2.29 0.435,4.631 0.759,24.959 0.345,30.73 -0.453,6.336 -4.164,22.76 -4.164,22.76 0.012,-0.097 -1.745,11.98 -8.652,11.341 -5.791,-0.535 -6.29,-5.968 -5.821,-11.039 0.368,-3.993 5.434,-25.596 5.434,-25.596 L -6.173,2.712 c 0,0 1.794,-2.406 6.173,-2.712"
             style="fill:#585e60;fill-opacity:1;fill-rule:nonzero;stroke:none"
             id="path3920"
             inkscape:connector-curvature="0" />
        </g>
        <g
           id="g3922"
           transform="matrix(0.35277777,0,0,-0.35277777,-141.23658,230.76562)">
          <path
             d="m 0,0 0.002,-0.005 9.664,1.057 2.135,-17.415 c 0,-1.213 0.173,-2.285 0.09,-3.319 -0.09,-1.134 0.06,-2.712 -1.179,-3.891 0,0 -1.435,-1.06 -3.311,-2.663 -1.169,-1.004 -2.645,-2.057 -4.394,-2.813 -1.153,-0.488 -4.032,0.436 -4.032,0.436 -1.872,0.525 -1.583,0.541 -3.504,5.614 0,0 -3.145,9.285 -4.128,12.096 -2.792,7.985 0.141,10.172 0.141,10.172 z"
             style="fill:#edc3a4;fill-opacity:1;fill-rule:nonzero;stroke:none"
             id="path3924"
             inkscape:connector-curvature="0" />
        </g>
        <g
           id="g3926"
           transform="matrix(0.35277777,0,0,-0.35277777,-144.98758,232.48006)">
          <path
             d="m 0,0 c 0.079,-0.261 1.237,-4.472 1.617,-4.947 0,0 -2.265,6.908 1.497,6.156 0.072,-0.015 2.812,-1.443 4.503,-2.308 0.951,-0.485 2.834,-1.023 2.96,-0.795 0.152,0.276 -0.877,2.162 1.128,2.413 2.505,0.314 4.536,-2.505 5.215,-6.028 0.52,-2.703 0.929,-4.938 0.947,-4.965 0.19,-0.305 3.125,3.658 3.32,3.813 0.338,0.27 1.422,-1.286 1.422,-1.286 -0.064,0 1.995,-4.437 2.006,-4.375 0.187,1.124 2.24,7.258 2.406,7.994 C 29.716,7.647 18.932,20.311 1.315,5.702 -0.102,4.528 -1.256,4.009 0,0"
             style="fill:#49260a;fill-opacity:1;fill-rule:nonzero;stroke:none"
             id="path3928"
             inkscape:connector-curvature="0" />
        </g>
        <g
           id="g3930"
           transform="matrix(0.35277777,0,0,-0.35277777,-137.33739,233.64402)">
          <path
             d="m 0,0 c -2.76,0.429 -2.672,-3.82 -2.672,-3.82 l 0.367,-4.737 c 0,0 0.35,-1.727 1.478,-1.721 1.31,0.007 2.13,0.989 2.686,2.606 0.036,0.089 0.868,2.38 0.907,2.525 C 3.344,-3.14 2.749,-0.432 0,0"
             style="fill:#edc3a4;fill-opacity:1;fill-rule:nonzero;stroke:none"
             id="path3932"
             inkscape:connector-curvature="0" />
        </g>
        <g
           id="g3934"
           transform="matrix(0.35277777,0,0,-0.35277777,-142.71002,239.22763)">
          <path
             d="M 0,0 C 0,0 0.796,3.081 1.38,3.45 1.976,3.829 2.131,3.7 3.259,3.7 4.39,3.7 5.753,3.396 6.144,3.2 7.965,2.277 11.286,-2.507 11.286,-2.507 L 8.839,-4.324 c 0,0 -2.946,5.203 -3.823,5.892 C 4.374,2.073 2.425,2.29 1.941,1.632 1.256,0.691 0.626,-1.692 0.626,-1.692 Z"
             style="fill:#49260a;fill-opacity:1;fill-rule:nonzero;stroke:none"
             id="path3936"
             inkscape:connector-curvature="0" />
        </g>
        <g
           id="g3938"
           transform="matrix(0.35277777,0,0,-0.35277777,-137.04836,236.70532)">
          <path
             d="m 0,0 c 0,0 0.817,-3.45 0.817,-4.892 0,-1.44 -1.007,-2.328 -2.947,-4.137 -2.207,-2.066 -4.355,-3.832 -5.581,-4.2 -2.061,-0.626 -6.001,0.223 -6.833,1.377 -0.387,0.532 -1.041,3.482 -1.041,3.482 0,0 1.121,-2.184 1.848,-2.003 0.475,0.12 0.651,0.809 0.651,0.809 0,0 0.155,0.977 1.036,-0.033 0.69,-0.786 1.122,-1.243 1.366,-1.284 1.91,-0.337 3.736,0.703 5.544,2.06 2.118,1.585 4.399,4.252 4.526,5.104 C -0.42,-2.467 0,0 0,0"
             style="fill:#49260a;fill-opacity:1;fill-rule:nonzero;stroke:none"
             id="path3940"
             inkscape:connector-curvature="0" />
        </g>
      </g>
    </g>
  </g>
</svg>
