<?xml version="1.0" encoding="UTF-8" standalone="no"?>
<!-- Created with Inkscape (http://www.inkscape.org/) -->

<svg
   xmlns:dc="http://purl.org/dc/elements/1.1/"
   xmlns:cc="http://creativecommons.org/ns#"
   xmlns:rdf="http://www.w3.org/1999/02/22-rdf-syntax-ns#"
   xmlns:svg="http://www.w3.org/2000/svg"
   xmlns="http://www.w3.org/2000/svg"
   xmlns:sodipodi="http://sodipodi.sourceforge.net/DTD/sodipodi-0.dtd"
   xmlns:inkscape="http://www.inkscape.org/namespaces/inkscape"
   width="21.874132mm"
   height="56.53698mm"
   viewBox="0 0 21.87413 56.536979"
   version="1.1"
   id="svg45331"
   inkscape:version="0.92.3 (2405546, 2018-03-11)"
   sodipodi:docname="people-casual-13.svg">
  <defs
     id="defs45325">
    <clipPath
       id="clipPath2864"
       clipPathUnits="userSpaceOnUse">
      <path
         inkscape:connector-curvature="0"
         id="path2862"
         d="m 1713.778,1928.833 c -0.536,-0.312 -0.927,-0.874 -1.106,-1.65 v 0 l 1.125,0.653 c 0.179,0.778 0.57,1.34 1.107,1.651 v 0 z" />
    </clipPath>
    <clipPath
       id="clipPath2848"
       clipPathUnits="userSpaceOnUse">
      <path
         inkscape:connector-curvature="0"
         id="path2846"
         d="M 0,2119.953 H 3253.108 V 0 H 0 Z" />
    </clipPath>
    <clipPath
       id="clipPath2836"
       clipPathUnits="userSpaceOnUse">
      <path
         inkscape:connector-curvature="0"
         id="path2834"
         d="m 1711.152,1926.674 v -0.651 c 0.308,-0.179 0.813,-0.18 1.126,0 v 0 0.651 c -0.315,-0.183 -0.82,-0.178 -1.129,0" />
    </clipPath>
    <clipPath
       id="clipPath2820"
       clipPathUnits="userSpaceOnUse">
      <path
         inkscape:connector-curvature="0"
         id="path2818"
         d="M 0,2119.953 H 3253.108 V 0 H 0 Z" />
    </clipPath>
    <clipPath
       id="clipPath2808"
       clipPathUnits="userSpaceOnUse">
      <path
         inkscape:connector-curvature="0"
         id="path2806"
         d="m 1710.148,1926.8 c 0,-0.121 0.077,-0.238 0.231,-0.325 v 0 0.65 c -0.156,0.087 -0.233,0.207 -0.233,0.324 v 0 -0.649 z" />
    </clipPath>
    <clipPath
       id="clipPath2796"
       clipPathUnits="userSpaceOnUse">
      <path
         inkscape:connector-curvature="0"
         id="path2794"
         d="m 1714.756,1928.103 v -0.65 c 0.158,0.09 0.237,0.211 0.237,0.331 v 0 0.65 c 0,-0.119 -0.078,-0.24 -0.236,-0.331" />
    </clipPath>
    <clipPath
       id="clipPath2784"
       clipPathUnits="userSpaceOnUse">
      <path
         inkscape:connector-curvature="0"
         id="path2782"
         d="M 0,2119.953 H 3253.108 V 0 H 0 Z" />
    </clipPath>
    <clipPath
       id="clipPath2772"
       clipPathUnits="userSpaceOnUse">
      <path
         inkscape:connector-curvature="0"
         id="path2770"
         d="m 1720.53,1921.188 10e-4,-0.65 c 0.309,-0.181 0.814,-0.181 1.128,0 v 0 0.65 c -0.316,-0.182 -0.821,-0.181 -1.129,0" />
    </clipPath>
    <clipPath
       id="clipPath2756"
       clipPathUnits="userSpaceOnUse">
      <path
         inkscape:connector-curvature="0"
         id="path2754"
         d="M 0,2119.953 H 3253.108 V 0 H 0 Z" />
    </clipPath>
    <clipPath
       id="clipPath2744"
       clipPathUnits="userSpaceOnUse">
      <path
         inkscape:connector-curvature="0"
         id="path2742"
         d="m 1719.524,1921.312 c 0,-0.119 0.08,-0.235 0.234,-0.324 v 0 0.65 c -0.154,0.089 -0.233,0.207 -0.233,0.324 v 0 -0.65 z" />
    </clipPath>
    <clipPath
       id="clipPath2732"
       clipPathUnits="userSpaceOnUse">
      <path
         inkscape:connector-curvature="0"
         id="path2730"
         d="m 1724.133,1922.619 v -0.654 c 0.158,0.094 0.238,0.212 0.238,0.331 v 0 0.65 c 0,-0.117 -0.08,-0.238 -0.238,-0.327" />
    </clipPath>
    <clipPath
       id="clipPath2536"
       clipPathUnits="userSpaceOnUse">
      <path
         inkscape:connector-curvature="0"
         id="path2534"
         d="m 1708.77,1889.11 h 53.56 v -38.31 h -53.56 z" />
    </clipPath>
    <clipPath
       id="clipPath3428"
       clipPathUnits="userSpaceOnUse">
      <path
         inkscape:connector-curvature="0"
         id="path3426"
         d="m 1819.231,1919.634 0.051,-0.722 c 0.167,0.114 0.248,0.253 0.238,0.383 v 0 l -0.048,0.721 c 0.01,-0.131 -0.071,-0.272 -0.241,-0.382" />
    </clipPath>
    <clipPath
       id="clipPath3440"
       clipPathUnits="userSpaceOnUse">
      <path
         inkscape:connector-curvature="0"
         id="path3438"
         d="m 1814.225,1917.859 c 0.01,-0.132 0.103,-0.255 0.282,-0.343 v 0 l -0.049,0.721 c -0.177,0.085 -0.273,0.212 -0.281,0.34 v 0 z" />
    </clipPath>
    <clipPath
       id="clipPath3452"
       clipPathUnits="userSpaceOnUse">
      <path
         inkscape:connector-curvature="0"
         id="path3450"
         d="M 0,2119.953 H 3253.108 V 0 H 0 Z" />
    </clipPath>
    <clipPath
       id="clipPath3468"
       clipPathUnits="userSpaceOnUse">
      <path
         inkscape:connector-curvature="0"
         id="path3466"
         d="m 1815.349,1917.792 0.046,-0.72 c 0.354,-0.177 0.915,-0.14 1.248,0.082 v 0 l -0.048,0.721 c -0.335,-0.223 -0.893,-0.259 -1.246,-0.083" />
    </clipPath>
    <clipPath
       id="clipPath3480"
       clipPathUnits="userSpaceOnUse">
      <path
         inkscape:connector-curvature="0"
         id="path3478"
         d="M 0,2119.953 H 3253.108 V 0 H 0 Z" />
    </clipPath>
    <clipPath
       id="clipPath3492"
       clipPathUnits="userSpaceOnUse">
      <path
         inkscape:connector-curvature="0"
         id="path3490"
         d="m 1808.461,1925.033 0.049,-0.719 c 0.167,0.112 0.245,0.25 0.238,0.383 v 0 l -0.049,0.719 c 0.01,-0.131 -0.07,-0.268 -0.238,-0.383" />
    </clipPath>
    <clipPath
       id="clipPath3504"
       clipPathUnits="userSpaceOnUse">
      <path
         inkscape:connector-curvature="0"
         id="path3502"
         d="m 1803.454,1923.259 c 0.01,-0.132 0.102,-0.258 0.279,-0.342 v 0 l -0.048,0.72 c -0.177,0.086 -0.273,0.214 -0.28,0.342 v 0 z" />
    </clipPath>
    <clipPath
       id="clipPath3516"
       clipPathUnits="userSpaceOnUse">
      <path
         inkscape:connector-curvature="0"
         id="path3514"
         d="M 0,2119.953 H 3253.108 V 0 H 0 Z" />
    </clipPath>
    <clipPath
       id="clipPath3532"
       clipPathUnits="userSpaceOnUse">
      <path
         inkscape:connector-curvature="0"
         id="path3530"
         d="m 1804.576,1923.193 0.047,-0.721 c 0.353,-0.175 0.915,-0.14 1.248,0.081 v 0 l -0.049,0.722 c -0.333,-0.223 -0.894,-0.258 -1.246,-0.082" />
    </clipPath>
    <clipPath
       id="clipPath3544"
       clipPathUnits="userSpaceOnUse">
      <path
         inkscape:connector-curvature="0"
         id="path3542"
         d="M 0,2119.953 H 3253.108 V 0 H 0 Z" />
    </clipPath>
    <clipPath
       id="clipPath3560"
       clipPathUnits="userSpaceOnUse">
      <path
         inkscape:connector-curvature="0"
         id="path3558"
         d="m 1807.327,1925.772 c -0.572,-0.383 -0.964,-1.034 -1.106,-1.907 v 0 l 1.197,0.803 c 0.144,0.873 0.537,1.525 1.109,1.907 v 0 z" />
    </clipPath>
    <clipPath
       id="clipPath3240"
       clipPathUnits="userSpaceOnUse">
      <path
         inkscape:connector-curvature="0"
         id="path3238"
         d="m 1804.45,1875.26 h 66.26 v -26.97 h -66.26 z" />
    </clipPath>
    <clipPath
       id="clipPath3596"
       clipPathUnits="userSpaceOnUse">
      <path
         inkscape:connector-curvature="0"
         id="path3594"
         d="m 1887.55,1874.88 h 68.5 v -28.2 h -68.5 z" />
    </clipPath>
    <clipPath
       id="clipPath3760"
       clipPathUnits="userSpaceOnUse">
      <path
         inkscape:connector-curvature="0"
         id="path3758"
         d="m 1940.709,1921.043 c -0.01,-0.134 0.073,-0.277 0.243,-0.394 v 0 l 0.052,0.743 c -0.176,0.111 -0.256,0.256 -0.246,0.388 v 0 z" />
    </clipPath>
    <clipPath
       id="clipPath3772"
       clipPathUnits="userSpaceOnUse">
      <path
         inkscape:connector-curvature="0"
         id="path3770"
         d="m 1945.896,1919.955 -0.048,-0.737 c 0.182,0.088 0.281,0.215 0.289,0.351 v 0 l 0.048,0.737 c -0.01,-0.134 -0.106,-0.261 -0.289,-0.351" />
    </clipPath>
    <clipPath
       id="clipPath3784"
       clipPathUnits="userSpaceOnUse">
      <path
         inkscape:connector-curvature="0"
         id="path3782"
         d="M 0,2119.953 H 3253.108 V 0 H 0 Z" />
    </clipPath>
    <clipPath
       id="clipPath3800"
       clipPathUnits="userSpaceOnUse">
      <path
         inkscape:connector-curvature="0"
         id="path3798"
         d="m 1943.658,1918.845 c 0.343,-0.226 0.914,-0.264 1.28,-0.084 v 0 l 0.047,0.741 c -0.361,-0.182 -0.936,-0.146 -1.28,0.084 v 0 z" />
    </clipPath>
    <clipPath
       id="clipPath3812"
       clipPathUnits="userSpaceOnUse">
      <path
         inkscape:connector-curvature="0"
         id="path3810"
         d="M 0,2119.953 H 3253.108 V 0 H 0 Z" />
    </clipPath>
    <clipPath
       id="clipPath3824"
       clipPathUnits="userSpaceOnUse">
      <path
         inkscape:connector-curvature="0"
         id="path3822"
         d="m 1951.754,1926.58 c -0.01,-0.136 0.071,-0.278 0.241,-0.392 v 0 l 0.052,0.737 c -0.174,0.117 -0.253,0.258 -0.245,0.391 v 0 z" />
    </clipPath>
    <clipPath
       id="clipPath3836"
       clipPathUnits="userSpaceOnUse">
      <path
         inkscape:connector-curvature="0"
         id="path3834"
         d="m 1956.943,1925.491 -0.049,-0.737 c 0.18,0.088 0.277,0.215 0.287,0.352 v 0 l 0.049,0.737 c -0.01,-0.132 -0.104,-0.262 -0.287,-0.352" />
    </clipPath>
    <clipPath
       id="clipPath3848"
       clipPathUnits="userSpaceOnUse">
      <path
         inkscape:connector-curvature="0"
         id="path3846"
         d="M 0,2119.953 H 3253.108 V 0 H 0 Z" />
    </clipPath>
    <clipPath
       id="clipPath3864"
       clipPathUnits="userSpaceOnUse">
      <path
         inkscape:connector-curvature="0"
         id="path3862"
         d="m 1954.703,1924.383 c 0.34,-0.229 0.916,-0.262 1.279,-0.086 v 0 l 0.049,0.743 c -0.361,-0.183 -0.938,-0.15 -1.279,0.081 v 0 z" />
    </clipPath>
    <clipPath
       id="clipPath3876"
       clipPathUnits="userSpaceOnUse">
      <path
         inkscape:connector-curvature="0"
         id="path3874"
         d="M 0,2119.953 H 3253.108 V 0 H 0 Z" />
    </clipPath>
    <clipPath
       id="clipPath3892"
       clipPathUnits="userSpaceOnUse">
      <path
         inkscape:connector-curvature="0"
         id="path3890"
         d="m 1953.117,1926.55 1.227,-0.822 c -0.145,0.891 -0.551,1.561 -1.133,1.955 v 0 l -1.232,0.823 c 0.588,-0.393 0.989,-1.061 1.138,-1.956" />
    </clipPath>
    <clipPath
       id="clipPath3948"
       clipPathUnits="userSpaceOnUse">
      <path
         inkscape:connector-curvature="0"
         id="path3946"
         d="m 2018.76,1870.93 h 70.11 v -23.75 h -70.11 z" />
    </clipPath>
    <clipPath
       id="clipPath4212"
       clipPathUnits="userSpaceOnUse">
      <path
         inkscape:connector-curvature="0"
         id="path4210"
         d="m 2154.433,1916.311 c 0,-0.141 0.087,-0.289 0.273,-0.405 v 0 l 0.028,0.784 c -0.187,0.117 -0.276,0.264 -0.271,0.407 v 0 z" />
    </clipPath>
    <clipPath
       id="clipPath4224"
       clipPathUnits="userSpaceOnUse">
      <path
         inkscape:connector-curvature="0"
         id="path4222"
         d="m 2159.973,1915.328 -0.03,-0.782 c 0.192,0.1 0.289,0.239 0.295,0.381 v 0 l 0.027,0.785 c 0,-0.142 -0.103,-0.28 -0.292,-0.384" />
    </clipPath>
    <clipPath
       id="clipPath4236"
       clipPathUnits="userSpaceOnUse">
      <path
         inkscape:connector-curvature="0"
         id="path4234"
         d="M 0,2119.953 H 3253.108 V 0 H 0 Z" />
    </clipPath>
    <clipPath
       id="clipPath4252"
       clipPathUnits="userSpaceOnUse">
      <path
         inkscape:connector-curvature="0"
         id="path4250"
         d="m 2157.634,1914.081 c 0.368,-0.23 0.978,-0.251 1.357,-0.046 v 0 l 0.029,0.783 c -0.377,-0.203 -0.988,-0.185 -1.36,0.049 v 0 z" />
    </clipPath>
    <clipPath
       id="clipPath4264"
       clipPathUnits="userSpaceOnUse">
      <path
         inkscape:connector-curvature="0"
         id="path4262"
         d="M 0,2119.953 H 3253.108 V 0 H 0 Z" />
    </clipPath>
    <clipPath
       id="clipPath4276"
       clipPathUnits="userSpaceOnUse">
      <path
         inkscape:connector-curvature="0"
         id="path4274"
         d="m 2165.961,1922.544 c 0,-0.146 0.086,-0.293 0.271,-0.409 v 0 l 0.032,0.784 c -0.188,0.117 -0.279,0.265 -0.274,0.408 v 0 z" />
    </clipPath>
    <clipPath
       id="clipPath4288"
       clipPathUnits="userSpaceOnUse">
      <path
         inkscape:connector-curvature="0"
         id="path4286"
         d="m 2171.5,1921.561 -0.028,-0.785 c 0.189,0.101 0.287,0.239 0.293,0.379 v 0 l 0.028,0.787 c 0,-0.142 -0.102,-0.281 -0.293,-0.381" />
    </clipPath>
    <clipPath
       id="clipPath4300"
       clipPathUnits="userSpaceOnUse">
      <path
         inkscape:connector-curvature="0"
         id="path4298"
         d="M 0,2119.953 H 3253.108 V 0 H 0 Z" />
    </clipPath>
    <clipPath
       id="clipPath4316"
       clipPathUnits="userSpaceOnUse">
      <path
         inkscape:connector-curvature="0"
         id="path4314"
         d="m 2169.16,1920.31 c 0.37,-0.229 0.979,-0.249 1.359,-0.045 v 0 l 0.03,0.784 c -0.379,-0.201 -0.99,-0.186 -1.36,0.046 v 0 z" />
    </clipPath>
    <clipPath
       id="clipPath4328"
       clipPathUnits="userSpaceOnUse">
      <path
         inkscape:connector-curvature="0"
         id="path4326"
         d="M 0,2119.953 H 3253.108 V 0 H 0 Z" />
    </clipPath>
    <clipPath
       id="clipPath4344"
       clipPathUnits="userSpaceOnUse">
      <path
         inkscape:connector-curvature="0"
         id="path4342"
         d="m 2167.406,1922.556 1.331,-0.832 c -0.186,0.942 -0.633,1.637 -1.266,2.036 v 0 l -1.332,0.833 c 0.636,-0.396 1.084,-1.091 1.267,-2.037" />
    </clipPath>
    <clipPath
       id="clipPath4598"
       clipPathUnits="userSpaceOnUse">
      <path
         inkscape:connector-curvature="0"
         id="path4596"
         d="m 2331.633,1939.514 c 0,-0.142 0.1,-0.287 0.296,-0.396 v 0 0.783 c -0.196,0.107 -0.292,0.246 -0.292,0.387 v 0 -0.774 z" />
    </clipPath>
    <clipPath
       id="clipPath4610"
       clipPathUnits="userSpaceOnUse">
      <path
         inkscape:connector-curvature="0"
         id="path4608"
         d="m 2337.17,1938.719 v -0.771 c 0.189,0.099 0.285,0.249 0.285,0.379 v 0 0.787 c 0,-0.14 -0.091,-0.287 -0.283,-0.395" />
    </clipPath>
    <clipPath
       id="clipPath4622"
       clipPathUnits="userSpaceOnUse">
      <path
         inkscape:connector-curvature="0"
         id="path4620"
         d="M 0,2119.953 H 3253.108 V 0 H 0 Z" />
    </clipPath>
    <clipPath
       id="clipPath4638"
       clipPathUnits="userSpaceOnUse">
      <path
         inkscape:connector-curvature="0"
         id="path4636"
         d="m 2334.888,1938.187 v -0.785 c 0.382,-0.217 0.981,-0.217 1.349,0 v 0 0.785 c -0.368,-0.217 -0.963,-0.217 -1.349,0" />
    </clipPath>
    <clipPath
       id="clipPath4650"
       clipPathUnits="userSpaceOnUse">
      <path
         inkscape:connector-curvature="0"
         id="path4648"
         d="M 0,2119.953 H 3253.108 V 0 H 0 Z" />
    </clipPath>
    <clipPath
       id="clipPath4662"
       clipPathUnits="userSpaceOnUse">
      <path
         inkscape:connector-curvature="0"
         id="path4660"
         d="m 2342.868,1946.09 c 0,-0.141 0.101,-0.294 0.291,-0.401 v 0 l 0.01,0.777 c -0.195,0.113 -0.291,0.255 -0.291,0.401 v 0 z" />
    </clipPath>
    <clipPath
       id="clipPath4674"
       clipPathUnits="userSpaceOnUse">
      <path
         inkscape:connector-curvature="0"
         id="path4672"
         d="m 2348.401,1945.298 v -0.782 c 0.182,0.104 0.277,0.25 0.277,0.39 v 0 l 0.01,0.781 c 0,-0.143 -0.095,-0.282 -0.282,-0.389" />
    </clipPath>
    <clipPath
       id="clipPath4686"
       clipPathUnits="userSpaceOnUse">
      <path
         inkscape:connector-curvature="0"
         id="path4684"
         d="M 0,2119.953 H 3253.108 V 0 H 0 Z" />
    </clipPath>
    <clipPath
       id="clipPath4702"
       clipPathUnits="userSpaceOnUse">
      <path
         inkscape:connector-curvature="0"
         id="path4700"
         d="m 2346.127,1944.756 v -0.778 c 0.376,-0.212 0.982,-0.212 1.348,0 v 0 0.778 c -0.366,-0.213 -0.972,-0.213 -1.348,0" />
    </clipPath>
    <clipPath
       id="clipPath4714"
       clipPathUnits="userSpaceOnUse">
      <path
         inkscape:connector-curvature="0"
         id="path4712"
         d="M 0,2119.953 H 3253.108 V 0 H 0 Z" />
    </clipPath>
    <clipPath
       id="clipPath4730"
       clipPathUnits="userSpaceOnUse">
      <path
         inkscape:connector-curvature="0"
         id="path4728"
         d="m 2343.05,1948.089 c -0.023,0.013 -0.045,0.026 -0.068,0.038 v 0 z m 1.257,-1.939 1.349,-0.782 c -0.21,0.926 -0.683,1.603 -1.326,1.976 v 0 l -1.28,0.745 c 0.612,-0.371 1.048,-1.041 1.257,-1.939" />
    </clipPath>
    <clipPath
       id="clipPath4742"
       clipPathUnits="userSpaceOnUse">
      <path
         inkscape:connector-curvature="0"
         id="path4740"
         d="M 0,2119.953 H 3253.108 V 0 H 0 Z" />
    </clipPath>
    <clipPath
       id="clipPath4918"
       clipPathUnits="userSpaceOnUse">
      <path
         inkscape:connector-curvature="0"
         id="path4916"
         d="m 2276.169,1866.541 c 0,-0.151 0.1,-0.291 0.285,-0.401 v 0 0.785 c -0.19,0.105 -0.286,0.259 -0.286,0.394 v 0 -0.778 z" />
    </clipPath>
    <clipPath
       id="clipPath4930"
       clipPathUnits="userSpaceOnUse">
      <path
         inkscape:connector-curvature="0"
         id="path4928"
         d="m 2281.734,1865.741 -0.01,-0.776 c 0.185,0.103 0.278,0.244 0.278,0.385 v 0 0.786 c 0,-0.141 -0.096,-0.281 -0.276,-0.395" />
    </clipPath>
    <clipPath
       id="clipPath4942"
       clipPathUnits="userSpaceOnUse">
      <path
         inkscape:connector-curvature="0"
         id="path4940"
         d="M 0,2119.953 H 3253.108 V 0 H 0 Z" />
    </clipPath>
    <clipPath
       id="clipPath4958"
       clipPathUnits="userSpaceOnUse">
      <path
         inkscape:connector-curvature="0"
         id="path4956"
         d="m 2279.442,1865.203 v -0.782 c 0.372,-0.219 0.983,-0.219 1.351,0 v 0 0.782 c -0.372,-0.221 -0.983,-0.221 -1.355,0" />
    </clipPath>
    <clipPath
       id="clipPath4970"
       clipPathUnits="userSpaceOnUse">
      <path
         inkscape:connector-curvature="0"
         id="path4968"
         d="M 0,2119.953 H 3253.108 V 0 H 0 Z" />
    </clipPath>
    <clipPath
       id="clipPath4982"
       clipPathUnits="userSpaceOnUse">
      <path
         inkscape:connector-curvature="0"
         id="path4980"
         d="m 2287.467,1873.148 c 0,-0.144 0.095,-0.29 0.287,-0.404 v 0 0.786 c -0.191,0.114 -0.29,0.258 -0.29,0.404 v 0 -0.786 z" />
    </clipPath>
    <clipPath
       id="clipPath4994"
       clipPathUnits="userSpaceOnUse">
      <path
         inkscape:connector-curvature="0"
         id="path4992"
         d="m 2293.032,1872.36 v -0.782 c 0.191,0.096 0.282,0.241 0.282,0.378 v 0 0.788 c 0,-0.14 -0.094,-0.281 -0.281,-0.384" />
    </clipPath>
    <clipPath
       id="clipPath5006"
       clipPathUnits="userSpaceOnUse">
      <path
         inkscape:connector-curvature="0"
         id="path5004"
         d="M 0,2119.953 H 3253.108 V 0 H 0 Z" />
    </clipPath>
    <clipPath
       id="clipPath5022"
       clipPathUnits="userSpaceOnUse">
      <path
         inkscape:connector-curvature="0"
         id="path5020"
         d="m 2290.745,1871.81 -0.01,-0.78 c 0.377,-0.22 0.986,-0.214 1.353,0 v 0 0.78 c -0.371,-0.212 -0.98,-0.212 -1.351,0" />
    </clipPath>
    <clipPath
       id="clipPath5034"
       clipPathUnits="userSpaceOnUse">
      <path
         inkscape:connector-curvature="0"
         id="path5032"
         d="M 0,2119.953 H 3253.108 V 0 H 0 Z" />
    </clipPath>
    <clipPath
       id="clipPath5050"
       clipPathUnits="userSpaceOnUse">
      <path
         inkscape:connector-curvature="0"
         id="path5048"
         d="m 2288.91,1873.212 1.359,-0.784 c -0.216,0.934 -0.691,1.61 -1.337,1.987 v 0 l -1.356,0.791 c 0.652,-0.377 1.121,-1.054 1.334,-1.994" />
    </clipPath>
    <clipPath
       id="clipPath4408"
       clipPathUnits="userSpaceOnUse">
      <path
         inkscape:connector-curvature="0"
         id="path4406"
         d="m 2301.08,1906.05 h 45.97 v -31.57 h -45.97 z" />
    </clipPath>
    <clipPath
       id="clipPath4392"
       clipPathUnits="userSpaceOnUse">
      <path
         inkscape:connector-curvature="0"
         id="path4390"
         d="m 2227.58,1871.71 h 52.38 v -32.03 h -52.38 z" />
    </clipPath>
    <clipPath
       id="clipPath5114"
       clipPathUnits="userSpaceOnUse">
      <path
         inkscape:connector-curvature="0"
         id="path5112"
         d="m 2417.33,1884.9 h 51.88 v -27.05 h -51.88 z" />
    </clipPath>
    <clipPath
       id="clipPath5554"
       clipPathUnits="userSpaceOnUse">
      <path
         inkscape:connector-curvature="0"
         id="path5552"
         d="m 2532.68,1877.97 h 61.16 v -27.88 h -61.16 z" />
    </clipPath>
    <clipPath
       id="clipPath5662"
       clipPathUnits="userSpaceOnUse">
      <path
         inkscape:connector-curvature="0"
         id="path5660"
         d="m 2652.02,1878.72 h 75.96 v -28.55 h -75.96 z" />
    </clipPath>
    <clipPath
       id="clipPath5782"
       clipPathUnits="userSpaceOnUse">
      <path
         inkscape:connector-curvature="0"
         id="path5780"
         d="m 2686.34,2040.48 h 6.76 v -5.02 h -6.76 z" />
    </clipPath>
    <clipPath
       id="clipPath5454"
       clipPathUnits="userSpaceOnUse">
      <path
         inkscape:connector-curvature="0"
         id="path5452"
         d="m 2763.78,1887.52 h 61.17 v -27.89 h -61.17 z" />
    </clipPath>
    <clipPath
       id="clipPath5226"
       clipPathUnits="userSpaceOnUse">
      <path
         inkscape:connector-curvature="0"
         id="path5224"
         d="m 2874.06,1879.83 h 115.04 v -37.41 h -115.04 z" />
    </clipPath>
    <clipPath
       id="clipPath5266"
       clipPathUnits="userSpaceOnUse">
      <path
         inkscape:connector-curvature="0"
         id="path5264"
         d="m 2898.47,1905.023 c -0.019,-0.014 -0.036,-0.025 -0.058,-0.038 v 0 c -0.579,-0.382 -0.588,-1.091 -0.535,-1.501 v 0 l 39.797,23.128 c -0.051,0.406 -0.042,1.119 0.537,1.502 v 0 c 0.018,0.012 0.037,0.024 0.058,0.036 v 0 c -13.266,-7.711 -26.531,-15.418 -39.799,-23.127" />
    </clipPath>
    <clipPath
       id="clipPath3000"
       clipPathUnits="userSpaceOnUse">
      <path
         inkscape:connector-curvature="0"
         id="path2998"
         d="m 3070.44,1903.77 h 111.77 v -40.19 h -111.77 z" />
    </clipPath>
    <clipPath
       id="clipPath6042"
       clipPathUnits="userSpaceOnUse">
      <path
         inkscape:connector-curvature="0"
         id="path6040"
         d="m 409.323,1548.74 h 49.951 v -25.11 h -49.951 z" />
    </clipPath>
    <clipPath
       id="clipPath5930"
       clipPathUnits="userSpaceOnUse">
      <path
         inkscape:connector-curvature="0"
         id="path5928"
         d="m 516.004,1548.66 h 54.751 v -25.03 h -54.751 z" />
    </clipPath>
    <clipPath
       id="clipPath6142"
       clipPathUnits="userSpaceOnUse">
      <path
         inkscape:connector-curvature="0"
         id="path6140"
         d="m 636.118,1542.78 h 45.362 v -19.15 h -45.362 z" />
    </clipPath>
    <clipPath
       id="clipPath6318"
       clipPathUnits="userSpaceOnUse">
      <path
         inkscape:connector-curvature="0"
         id="path6316"
         d="m 763.75,1602.23 h 22.211 v -7.49 H 763.75 Z" />
    </clipPath>
    <clipPath
       id="clipPath6242"
       clipPathUnits="userSpaceOnUse">
      <path
         inkscape:connector-curvature="0"
         id="path6240"
         d="m 749.178,1542.78 h 45.362 v -19.15 h -45.362 z" />
    </clipPath>
    <clipPath
       id="clipPath6358"
       clipPathUnits="userSpaceOnUse">
      <path
         inkscape:connector-curvature="0"
         id="path6356"
         d="m 859.142,1541.98 h 55.33 v -18.35 h -55.33 z" />
    </clipPath>
    <clipPath
       id="clipPath6562"
       clipPathUnits="userSpaceOnUse">
      <path
         inkscape:connector-curvature="0"
         id="path6560"
         d="m 972.921,1548.99 h 50.329 v -25.36 h -50.329 z" />
    </clipPath>
    <clipPath
       id="clipPath6898"
       clipPathUnits="userSpaceOnUse">
      <path
         inkscape:connector-curvature="0"
         id="path6896"
         d="m 1113.757,1660.871 0.977,-0.369 c -0.337,0.508 -0.215,1.396 0.271,1.968 v 0 l -0.978,0.368 c -0.484,-0.573 -0.605,-1.457 -0.27,-1.967" />
    </clipPath>
    <clipPath
       id="clipPath6882"
       clipPathUnits="userSpaceOnUse">
      <path
         inkscape:connector-curvature="0"
         id="path6880"
         d="M 0,2119.953 H 3253.108 V 0 H 0 Z" />
    </clipPath>
    <clipPath
       id="clipPath6870"
       clipPathUnits="userSpaceOnUse">
      <path
         inkscape:connector-curvature="0"
         id="path6868"
         d="m 1120.652,1670.681 0.975,-0.367 c 0.342,0.405 0.774,0.55 1.118,0.419 v 0 l -0.98,0.369 c -0.082,0.031 -0.168,0.047 -0.258,0.047 v 0 c -0.283,0 -0.596,-0.157 -0.855,-0.468" />
    </clipPath>
    <clipPath
       id="clipPath6858"
       clipPathUnits="userSpaceOnUse">
      <path
         inkscape:connector-curvature="0"
         id="path6856"
         d="m 1116.5,1656.939 0.98,-0.367 c -0.144,0.053 -0.271,0.155 -0.374,0.304 v 0 l -0.973,0.368 c 0.098,-0.15 0.226,-0.25 0.367,-0.305" />
    </clipPath>
    <clipPath
       id="clipPath6798"
       clipPathUnits="userSpaceOnUse">
      <path
         inkscape:connector-curvature="0"
         id="path6796"
         d="m 1085.74,1549.12 h 50.59 v -25.49 h -50.59 z" />
    </clipPath>
    <clipPath
       id="clipPath6450"
       clipPathUnits="userSpaceOnUse">
      <path
         inkscape:connector-curvature="0"
         id="path6448"
         d="m 1192.19,1544.97 h 58.91 v -21.34 h -58.91 z" />
    </clipPath>
    <clipPath
       id="clipPath7190"
       clipPathUnits="userSpaceOnUse">
      <path
         inkscape:connector-curvature="0"
         id="path7188"
         d="m 1415.1,1546.39 h 59.78 v -22.76 h -59.78 z" />
    </clipPath>
    <clipPath
       id="clipPath7322"
       clipPathUnits="userSpaceOnUse">
      <path
         inkscape:connector-curvature="0"
         id="path7320"
         d="m 1529.94,1551.96 h 66.67 v -28.33 h -66.67 z" />
    </clipPath>
    <clipPath
       id="clipPath7582"
       clipPathUnits="userSpaceOnUse">
      <path
         inkscape:connector-curvature="0"
         id="path7580"
         d="m 1678.67,1677.25 h 3.75 v -4.02 h -3.75 z" />
    </clipPath>
    <clipPath
       id="clipPath7566"
       clipPathUnits="userSpaceOnUse">
      <path
         inkscape:connector-curvature="0"
         id="path7564"
         d="m 1671.46,1674.81 h 5.24 v -3.89 h -5.24 z" />
    </clipPath>
    <clipPath
       id="clipPath7462"
       clipPathUnits="userSpaceOnUse">
      <path
         inkscape:connector-curvature="0"
         id="path7460"
         d="m 1648.93,1550.63 h 57.38 v -27 h -57.38 z" />
    </clipPath>
    <clipPath
       id="clipPath8174"
       clipPathUnits="userSpaceOnUse">
      <path
         inkscape:connector-curvature="0"
         id="path8172"
         d="m 1758.53,1552.63 h 42.25 v -29 h -42.25 z" />
    </clipPath>
    <clipPath
       id="clipPath8038"
       clipPathUnits="userSpaceOnUse">
      <path
         inkscape:connector-curvature="0"
         id="path8036"
         d="m 1882.656,1601.848 c 0,-0.062 0.041,-0.123 0.122,-0.172 v 0 l 10e-4,0.539 c -0.081,0.047 -0.122,0.108 -0.122,0.168 v 0 z" />
    </clipPath>
    <clipPath
       id="clipPath8006"
       clipPathUnits="userSpaceOnUse">
      <path
         inkscape:connector-curvature="0"
         id="path8004"
         d="M 0,2119.953 H 3253.108 V 0 H 0 Z" />
    </clipPath>
    <clipPath
       id="clipPath7994"
       clipPathUnits="userSpaceOnUse">
      <path
         inkscape:connector-curvature="0"
         id="path7992"
         d="m 1882.336,1603.443 c 0,-0.061 0.041,-0.12 0.121,-0.166 v 0 0.539 c -0.08,0.043 -0.12,0.104 -0.12,0.165 v 0 z" />
    </clipPath>
    <clipPath
       id="clipPath7946"
       clipPathUnits="userSpaceOnUse">
      <path
         inkscape:connector-curvature="0"
         id="path7944"
         d="M 0,2119.953 H 3253.108 V 0 H 0 Z" />
    </clipPath>
    <clipPath
       id="clipPath7934"
       clipPathUnits="userSpaceOnUse">
      <path
         inkscape:connector-curvature="0"
         id="path7932"
         d="m 1881.995,1605.067 c 0,-0.065 0.04,-0.124 0.119,-0.17 v 0 0.536 c -0.082,0.052 -0.122,0.11 -0.122,0.169 v 0 -0.535 z" />
    </clipPath>
    <clipPath
       id="clipPath7894"
       clipPathUnits="userSpaceOnUse">
      <path
         inkscape:connector-curvature="0"
         id="path7892"
         d="M 0,2119.953 H 3253.108 V 0 H 0 Z" />
    </clipPath>
    <clipPath
       id="clipPath7882"
       clipPathUnits="userSpaceOnUse">
      <path
         inkscape:connector-curvature="0"
         id="path7880"
         d="m 1883.262,1605.788 c 0,-0.061 0.041,-0.121 0.122,-0.168 v 0 0.538 c -0.081,0.046 -0.121,0.109 -0.121,0.169 v 0 z" />
    </clipPath>
    <clipPath
       id="clipPath7870"
       clipPathUnits="userSpaceOnUse">
      <path
         inkscape:connector-curvature="0"
         id="path7868"
         d="M 0,2119.953 H 3253.108 V 0 H 0 Z" />
    </clipPath>
    <clipPath
       id="clipPath7858"
       clipPathUnits="userSpaceOnUse">
      <path
         inkscape:connector-curvature="0"
         id="path7856"
         d="m 1882.565,1606.09 c 0.159,-0.087 0.418,-0.09 0.574,0 v 0 l 0.01,0.54 c -0.16,-0.092 -0.42,-0.089 -0.579,10e-4 v 0 -0.541 z" />
    </clipPath>
    <clipPath
       id="clipPath7842"
       clipPathUnits="userSpaceOnUse">
      <path
         inkscape:connector-curvature="0"
         id="path7840"
         d="M 0,2119.953 H 3253.108 V 0 H 0 Z" />
    </clipPath>
    <clipPath
       id="clipPath7830"
       clipPathUnits="userSpaceOnUse">
      <path
         inkscape:connector-curvature="0"
         id="path7828"
         d="m 1881.72,1606.68 c 0,-0.062 0.038,-0.122 0.12,-0.169 v 0 0.54 c -0.083,0.046 -0.122,0.106 -0.122,0.167 v 0 c 0,-0.18 -10e-4,-0.359 -10e-4,-0.538" />
    </clipPath>
    <clipPath
       id="clipPath7794"
       clipPathUnits="userSpaceOnUse">
      <path
         inkscape:connector-curvature="0"
         id="path7792"
         d="M 0,2119.953 H 3253.108 V 0 H 0 Z" />
    </clipPath>
    <clipPath
       id="clipPath7782"
       clipPathUnits="userSpaceOnUse">
      <path
         inkscape:connector-curvature="0"
         id="path7780"
         d="m 1879.92,1609.156 c 0,-0.06 0.042,-0.118 0.121,-0.166 v 0 0.538 c -0.081,0.045 -0.123,0.106 -0.123,0.165 v 0 -0.537 z" />
    </clipPath>
    <clipPath
       id="clipPath7622"
       clipPathUnits="userSpaceOnUse">
      <path
         inkscape:connector-curvature="0"
         id="path7620"
         d="m 1866.46,1541.36 h 41.73 v -17.73 h -41.73 z" />
    </clipPath>
  </defs>
  <sodipodi:namedview
     id="base"
     pagecolor="#ffffff"
     bordercolor="#666666"
     borderopacity="1.0"
     inkscape:pageopacity="0.0"
     inkscape:pageshadow="2"
     inkscape:zoom="0.35"
     inkscape:cx="-167.15243"
     inkscape:cy="-171.41642"
     inkscape:document-units="mm"
     inkscape:current-layer="layer1"
     showgrid="false"
     fit-margin-top="0"
     fit-margin-left="0"
     fit-margin-right="0"
     fit-margin-bottom="0"
     inkscape:window-width="1366"
     inkscape:window-height="716"
     inkscape:window-x="-8"
     inkscape:window-y="-8"
     inkscape:window-maximized="1" />
  <metadata
     id="metadata45328">
    <rdf:RDF>
      <cc:Work
         rdf:about="">
        <dc:format>image/svg+xml</dc:format>
        <dc:type
           rdf:resource="http://purl.org/dc/dcmitype/StillImage" />
        <dc:title></dc:title>
      </cc:Work>
    </rdf:RDF>
  </metadata>
  <g
     inkscape:label="Layer 1"
     inkscape:groupmode="layer"
     id="layer1"
     transform="translate(33.259379,-319.0853)">
    <g
       id="g7616"
       transform="matrix(0.35277777,0,0,-0.35277777,-687.02659,913.12507)">
      <g
         id="g7618" />
      <g
         id="g7630">
        <g
           clip-path="url(#clipPath7622)"
           id="g7628"
           style="opacity:0.28999299">
          <g
             transform="translate(1870.8643,1531.0078)"
             id="g7626">
            <path
               d="m 0,0 c 16.385,-3.536 -1.313,-7.378 19.222,-7.378 11.536,0 18.105,5.024 18.105,9.099 0,4.074 -7.349,8.132 -18.881,8.563 C -8.486,11.29 -7.129,1.539 0,0"
               style="fill:#231f20;fill-opacity:1;fill-rule:nonzero;stroke:none"
               id="path7624"
               inkscape:connector-curvature="0" />
          </g>
        </g>
      </g>
    </g>
    <g
       id="g7632"
       transform="matrix(0.35277777,0,0,-0.35277777,-23.506397,367.84328)">
      <path
         d="m 0,0 -3.198,-1.447 c 0,0 -6.45,-2.313 -7.77,-3.063 -0.726,-0.422 -1.093,-1.304 -1.197,-1.89 -0.072,-0.373 -0.088,-1.418 0.13,-1.721 0.566,-0.784 1.79,-1.67 2.92,-1.877 2.171,-0.413 6.758,0.457 6.758,0.457 0.589,0.278 9.866,3.209 9.866,3.209 0,0 0.344,1.121 0.439,1.805 L 8.51,0.016 Z"
         style="fill:#085c60;fill-opacity:1;fill-rule:nonzero;stroke:none"
         id="path7634"
         inkscape:connector-curvature="0" />
    </g>
    <g
       id="g7636"
       transform="matrix(0.35277777,0,0,-0.35277777,-23.727562,369.68316)">
      <path
         d="M 0,0 C 0.062,-0.093 0.185,-0.122 0.272,-0.064 0.349,-0.017 0.421,0.072 0.366,0.139 0.093,0.533 -0.952,1.933 -2.089,2.618 -3.083,3.214 -3.979,3.226 -4.388,3.192 -4.506,3.185 -4.605,3.093 -4.577,2.97 -4.558,2.872 -4.456,2.802 -4.349,2.811 -3.986,2.843 -3.181,2.827 -2.283,2.288 -1.291,1.695 -0.327,0.456 0,0"
         style="fill:#d5dfef;fill-opacity:1;fill-rule:nonzero;stroke:none"
         id="path7638"
         inkscape:connector-curvature="0" />
    </g>
    <g
       id="g7640"
       transform="matrix(0.35277777,0,0,-0.35277777,-24.13375,369.80543)">
      <path
         d="M 0,0 C 0.062,-0.095 0.18,-0.133 0.278,-0.062 0.353,-0.009 0.416,0.063 0.364,0.145 0.087,0.529 -0.953,1.927 -2.086,2.61 -3.08,3.215 -3.976,3.227 -4.393,3.189 -4.505,3.179 -4.602,3.091 -4.576,2.976 -4.558,2.864 -4.455,2.803 -4.347,2.813 -3.996,2.84 -3.179,2.823 -2.287,2.286 -1.289,1.691 -0.327,0.449 0,0"
         style="fill:#d5dfef;fill-opacity:1;fill-rule:nonzero;stroke:none"
         id="path7642"
         inkscape:connector-curvature="0" />
    </g>
    <g
       id="g7644"
       transform="matrix(0.35277777,0,0,-0.35277777,-24.518904,370.00648)">
      <path
         d="M 0,0 C 0.06,-0.091 0.184,-0.124 0.274,-0.065 0.346,-0.014 0.412,0.068 0.369,0.145 0.09,0.529 -0.954,1.934 -2.087,2.613 -3.08,3.212 -3.982,3.225 -4.394,3.194 -4.509,3.19 -4.603,3.097 -4.578,2.977 -4.554,2.873 -4.456,2.796 -4.354,2.805 -3.995,2.838 -3.179,2.826 -2.282,2.292 -1.291,1.688 -0.332,0.448 0,0"
         style="fill:#d5dfef;fill-opacity:1;fill-rule:nonzero;stroke:none"
         id="path7646"
         inkscape:connector-curvature="0" />
    </g>
    <g
       id="g7648"
       transform="matrix(0.35277777,0,0,-0.35277777,-27.375557,369.43441)">
      <path
         d="m 0,0 c 0.195,0.1 0.149,0.098 0.515,0.264 0.517,-0.097 1.363,-0.319 2.607,-1.147 2.411,-1.636 2.795,-4.113 2.795,-4.113 0,0 -0.977,-0.478 -5.624,0.236 -0.057,0 -0.1,0.008 -0.151,0.014 -0.497,0.348 -0.931,0.749 -1.209,1.135 -0.218,0.303 -0.184,1.226 -0.16,1.696 0.043,0.856 0.5,1.493 1.227,1.915"
         style="fill:#f5f5f5;fill-opacity:1;fill-rule:nonzero;stroke:none"
         id="path7650"
         inkscape:connector-curvature="0" />
    </g>
    <g
       id="g7652"
       transform="matrix(0.35277777,0,0,-0.35277777,-27.808283,370.13496)">
      <path
         d="m 0,0 c 0.229,-1.227 1.813,-1.769 2.902,-2.101 3.752,-1.144 15.158,2.367 15.694,2.561 1.244,0.434 1.435,0.859 1.435,0.859 0,0 -0.262,-1.293 -0.304,-1.263 0,0 -0.248,-1.273 -0.971,-1.589 -0.579,-0.246 -5.096,-1.162 -6.262,-1.433 0,0 -6.695,-1.451 -9.858,-0.596 -1.093,0.298 -2.451,0.767 -2.664,1.836 C -0.057,-1.588 -0.026,0.133 0,0"
         style="fill:#d5dfef;fill-opacity:1;fill-rule:nonzero;stroke:none"
         id="path7654"
         inkscape:connector-curvature="0" />
    </g>
    <g
       id="g7656"
       transform="matrix(0.35277777,0,0,-0.35277777,-24.852385,346.72089)">
      <path
         d="m 0,0 2.555,-58.255 -1.318,-3.016 c 0.402,-1.887 4.335,-3.201 6.031,-3.201 2.801,0 5.089,-0.754 5.089,1.881 l 2.936,60.106 z"
         style="fill:#093c4c;fill-opacity:1;fill-rule:nonzero;stroke:none"
         id="path7658"
         inkscape:connector-curvature="0" />
    </g>
    <g
       id="g7660"
       transform="matrix(0.35277777,0,0,-0.35277777,-17.549144,370.70205)">
      <path
         d="m 0,0 -5.591,-3.755 c 0,0 -2.579,-1.719 -3.795,-2.643 -0.67,-0.503 -0.932,-1.422 -0.965,-2.019 -0.018,-0.371 0.094,-1.416 0.347,-1.699 0.659,-0.691 2.015,-1.238 3.128,-1.496 3.304,-0.748 6.644,1.299 6.644,1.299 0.553,0.347 9.401,4.415 9.401,4.415 0,0 0.208,1.158 0.208,1.846 v 4.569 z"
         style="fill:#085c60;fill-opacity:1;fill-rule:nonzero;stroke:none"
         id="path7662"
         inkscape:connector-curvature="0" />
    </g>
    <g
       id="g7664"
       transform="matrix(0.35277777,0,0,-0.35277777,-20.887762,345.75318)">
      <path
         d="m 0,0 8.165,-67.17 c 0.677,-3.438 -2.152,-4.895 -0.995,-5.429 7.031,-3.25 8.104,-2.842 10.387,-1.544 0.556,0.318 1.554,0.898 1.414,2.335 l -3.32,66.523 z"
         style="fill:#14546d;fill-opacity:1;fill-rule:nonzero;stroke:none"
         id="path7666"
         inkscape:connector-curvature="0" />
    </g>
    <g
       id="g7668"
       transform="matrix(0.35277777,0,0,-0.35277777,-17.285249,372.66212)">
      <path
         d="M 0,0 C 0.078,-0.084 0.21,-0.111 0.294,-0.039 0.363,0.004 0.431,0.107 0.384,0.174 0.067,0.572 -1.114,1.975 -2.355,2.615 -3.434,3.186 -4.382,3.151 -4.808,3.083 -4.925,3.068 -5.023,2.963 -4.989,2.845 -4.959,2.738 -4.853,2.669 -4.734,2.689 -4.368,2.744 -3.516,2.772 -2.545,2.263 -1.452,1.707 -0.38,0.46 0,0"
         style="fill:#d5dfef;fill-opacity:1;fill-rule:nonzero;stroke:none"
         id="path7670"
         inkscape:connector-curvature="0" />
    </g>
    <g
       id="g7672"
       transform="matrix(0.35277777,0,0,-0.35277777,-17.74311,372.92945)">
      <path
         d="M 0,0 C 0.078,-0.098 0.21,-0.124 0.3,-0.051 0.368,0.005 0.434,0.106 0.373,0.171 0.055,0.56 -1.148,1.947 -2.389,2.576 -3.474,3.134 -4.423,3.075 -4.842,3.01 -4.968,2.98 -5.063,2.888 -5.029,2.764 -5,2.657 -4.882,2.595 -4.772,2.608 -4.402,2.664 -3.541,2.715 -2.562,2.219 -1.476,1.667 -0.375,0.447 0,0"
         style="fill:#d5dfef;fill-opacity:1;fill-rule:nonzero;stroke:none"
         id="path7674"
         inkscape:connector-curvature="0" />
    </g>
    <g
       id="g7676"
       transform="matrix(0.35277777,0,0,-0.35277777,-18.128582,373.16631)">
      <path
         d="M 0,0 C 0.083,-0.076 0.215,-0.103 0.299,-0.024 0.365,0.031 0.43,0.13 0.365,0.2 0.029,0.573 -1.246,1.889 -2.521,2.462 -3.641,2.952 -4.575,2.845 -4.995,2.761 -5.112,2.739 -5.208,2.62 -5.168,2.502 -5.127,2.4 -5.019,2.345 -4.906,2.378 -4.537,2.452 -3.676,2.535 -2.679,2.093 -1.558,1.594 -0.4,0.436 0,0"
         style="fill:#d5dfef;fill-opacity:1;fill-rule:nonzero;stroke:none"
         id="path7678"
         inkscape:connector-curvature="0" />
    </g>
    <g
       id="g7680"
       transform="matrix(0.35277777,0,0,-0.35277777,-20.860219,372.95908)">
      <path
         d="m 0,0 c 0.189,0.15 0.423,0.313 0.671,0.495 0.43,0.066 1.338,0 3.094,-0.89 2.592,-1.326 3.795,-3.638 3.795,-3.638 0,0 -1.735,-0.806 -6.434,-0.675 -0.075,0 -0.131,0.014 -0.208,0.016 -0.617,0.27 -1.181,0.599 -1.536,0.974 -0.253,0.283 -0.333,1.328 -0.347,1.699 C -0.984,-1.394 -0.67,-0.503 0,0"
         style="fill:#f5f5f5;fill-opacity:1;fill-rule:nonzero;stroke:none"
         id="path7682"
         inkscape:connector-curvature="0" />
    </g>
    <g
       id="g7684"
       transform="matrix(0.35277777,0,0,-0.35277777,-21.202669,373.65688)">
      <path
         d="m 0,0 c 0.182,-0.881 2.48,-1.854 3.582,-2.137 5.497,-1.438 14.301,4.51 14.807,4.764 1.178,0.594 1.316,1.034 1.316,1.034 0,0 -0.089,-1.304 -0.142,-1.29 0,0 -0.089,-1.29 -0.762,-1.688 -0.551,-0.33 -5.993,-2.928 -7.121,-3.325 0,0 -4.797,-2.102 -8.419,-1.002 -1.097,0.334 -2.603,0.689 -3.19,1.79 C -0.043,-1.64 0,0 0,0"
         style="fill:#d5dfef;fill-opacity:1;fill-rule:nonzero;stroke:none"
         id="path7686"
         inkscape:connector-curvature="0" />
    </g>
    <g
       id="g7688"
       transform="matrix(0.35277777,0,0,-0.35277777,-15.651923,341.85351)">
      <path
         d="m 0,0 -2.385,1.386 0.002,-1.678 c 0.002,-0.759 -0.532,-1.685 -1.191,-2.069 l -1.461,-0.841 2.385,-1.384 1.456,0.842 c 0.663,0.384 1.2,1.311 1.196,2.066 z"
         style="fill:#323232;fill-opacity:1;fill-rule:nonzero;stroke:none"
         id="path7690"
         inkscape:connector-curvature="0" />
    </g>
    <g
       id="g7692"
       transform="matrix(0.35277777,0,0,-0.35277777,-15.003217,341.47868)">
      <path
         d="m 0,0 0.007,-2.413 c 0.005,-1.522 -1.065,-3.376 -2.395,-4.143 l -2.095,-1.215 -0.006,2.123 1.456,0.841 c 0.663,0.384 1.2,1.311 1.196,2.067 l -0.002,1.677 z"
         style="fill:#232323;fill-opacity:1;fill-rule:nonzero;stroke:none"
         id="path7694"
         inkscape:connector-curvature="0" />
    </g>
    <g
       id="g7696"
       transform="matrix(0.35277777,0,0,-0.35277777,-21.516836,338.04389)">
      <path
         d="M 0,0 1.703,0.992 9.726,-3.677 8.022,-4.67 Z"
         style="fill:#313131;fill-opacity:1;fill-rule:nonzero;stroke:none"
         id="path7698"
         inkscape:connector-curvature="0" />
    </g>
    <g
       id="g7700"
       transform="matrix(0.35277777,0,0,-0.35277777,-18.085851,340.13318)">
      <path
         d="m 0,0 -1.703,-0.986 v 2.26 L 0,2.267 Z"
         style="fill:#464646;fill-opacity:1;fill-rule:nonzero;stroke:none"
         id="path7702"
         inkscape:connector-curvature="0" />
    </g>
    <g
       id="g7704"
       transform="matrix(0.35277777,0,0,-0.35277777,-25.90831,334.49788)">
      <path
         d="M 0,0 2.036,-1.183 11.196,4.11 9.159,5.295 Z"
         style="fill:#363636;fill-opacity:1;fill-rule:nonzero;stroke:none"
         id="path7706"
         inkscape:connector-curvature="0" />
    </g>
    <g
       id="g7708"
       transform="matrix(0.35277777,0,0,-0.35277777,-21.51927,338.04202)">
      <path
         d="m 0,0 -2.561,11.412 -1.509,-0.871 2.688,-11.997 9.403,-5.43 0.008,2.233 z"
         style="fill:#464646;fill-opacity:1;fill-rule:nonzero;stroke:none"
         id="path7710"
         inkscape:connector-curvature="0" />
    </g>
    <g
       id="g7712"
       transform="matrix(0.35277777,0,0,-0.35277777,-27.18093,339.6352)">
      <path
         d="m 0,0 c 0.638,-0.074 1.7,0.049 1.7,0.049 0,0 2.754,-0.986 2.49,-0.447 -1.662,3.412 -2.003,6.37 -1.467,7.161 0.239,0.353 0.875,1.271 1.789,2.187 1.187,1.189 8.253,8.949 8.253,8.949 0,0 2.25,14.001 -2.246,14.417 C 6.946,32.648 4.042,27.017 1.626,22.274 0.846,20.74 -4.457,11.658 -5.299,10.257 -7.693,6.265 -5.793,5.295 -5.793,5.295 l 1.084,-1.713 c 0,0 1.637,-3.221 4.709,-3.582"
         style="fill:#02373a;fill-opacity:1;fill-rule:nonzero;stroke:none"
         id="path7714"
         inkscape:connector-curvature="0" />
    </g>
    <g
       id="g7716"
       transform="matrix(0.35277777,0,0,-0.35277777,-14.610126,343.42308)">
      <path
         d="m 0,0 c 0,0 4.124,23.969 3.081,31.794 -0.332,2.475 -4.192,5.197 -4.192,5.197 -1.433,1.101 -10.057,6.525 -10.057,6.525 0,0 -0.906,0.936 -0.878,0.915 l -5.977,0.719 c 0,0 -6.226,0.732 -7.634,-2.35 -2.072,-4.533 -2.781,-7.601 -2.978,-19.135 l -1.393,-29.83 c 0.077,-1.184 -0.928,-10.227 0.397,-11.136 0,0 12.852,-3.11 17.5,-2.983 7.36,0.199 9.744,3.579 9.744,3.579 C 0.399,-14.874 0.027,0.412 0,0"
         style="fill:#96b1b2;fill-opacity:1;fill-rule:nonzero;stroke:none"
         id="path7718"
         inkscape:connector-curvature="0" />
    </g>
    <g
       id="g7720"
       transform="matrix(0.35277777,0,0,-0.35277777,-21.390047,330.16344)">
      <path
         d="M 0,0 C 3.197,-4.109 9.471,2.507 8.101,5.896 6.156,10.691 6.616,16.124 6.616,16.124 l -8.027,-3.213 z"
         style="fill:#ddad8a;fill-opacity:1;fill-rule:nonzero;stroke:none"
         id="path7722"
         inkscape:connector-curvature="0" />
    </g>
    <g
       id="g7724"
       transform="matrix(0.35277777,0,0,-0.35277777,-20.154655,322.55268)">
      <path
         d="m 0,0 c -2.046,-0.125 -2.153,-2.102 -2.153,-2.102 l 0.254,-4.105 c 0,0 0.155,-0.886 0.933,-0.999 1.179,-0.164 1.62,0.883 2.071,2.037 0.03,0.063 0.588,1.755 0.622,1.856 C 2.209,-1.878 1.934,0.122 0,0"
         style="fill:#ffe8d9;fill-opacity:1;fill-rule:nonzero;stroke:none"
         id="path7726"
         inkscape:connector-curvature="0" />
    </g>
    <g
       id="g7728"
       transform="matrix(0.35277777,0,0,-0.35277777,-22.560035,321.3557)">
      <path
         d="m 0,0 0.002,-0.002 7.665,0.837 1.689,-13.812 c 10e-4,-0.962 0.139,-1.812 0.073,-2.63 -0.072,-0.898 0.049,-2.151 -0.934,-3.086 0,0 -1.141,-0.84 -2.626,-2.112 -0.928,-0.792 -2.097,-1.63 -3.488,-2.229 -0.911,-0.389 -3.194,0.345 -3.194,0.345 -1.486,0.418 -1.256,0.431 -2.778,4.452 0,0 -2.409,7.394 -3.275,9.591 -1.139,2.892 0.113,8.067 0.113,8.067 z"
         style="fill:#f2c8a5;fill-opacity:1;fill-rule:nonzero;stroke:none"
         id="path7730"
         inkscape:connector-curvature="0" />
    </g>
    <g
       id="g7732"
       transform="matrix(0.35277777,0,0,-0.35277777,-25.652697,322.567)">
      <path
         d="m 0,0 c 0.01,-0.216 0.304,-2.892 1.597,-2.664 0.187,0.034 1.09,0.857 3.806,1.372 0.139,0.026 5.203,1.151 7.345,-2.208 0.98,-1.541 2.529,-4.984 2.543,-5.007 0.151,-0.243 2.864,0.99 2.853,0.792 -0.101,-1.729 1.62,-6.706 1.62,-6.706 0.497,0.167 0.799,0.342 1.179,0.799 0.44,0.527 0.759,1.102 1.113,2.827 0.262,1.286 0.994,4.971 1.291,7.855 C 24.294,6.207 13.32,15.037 3.119,6.243 2.014,5.292 0.531,3.198 -0.079,2.169 -0.701,1.116 -0.079,1.522 0,0"
         style="fill:#d67b03;fill-opacity:1;fill-rule:nonzero;stroke:none"
         id="path7734"
         inkscape:connector-curvature="0" />
    </g>
    <g
       id="g7736"
       transform="matrix(0.35277777,0,0,-0.35277777,-19.593818,323.9428)">
      <path
         d="m 0,0 c -1.879,0.295 -1.83,-2.702 -1.83,-2.702 l 0.236,-3.342 c 0,0 0.234,-1.218 1,-1.207 0.889,0.006 1.451,0.7 1.834,1.845 0.025,0.063 0.596,1.68 0.623,1.783 C 2.262,-2.205 1.865,-0.298 0,0"
         style="fill:#f2c8a5;fill-opacity:1;fill-rule:nonzero;stroke:none"
         id="path7738"
         inkscape:connector-curvature="0" />
    </g>
    <g
       id="g7740"
       transform="matrix(0.35277777,0,0,-0.35277777,-25.873491,339.63623)">
      <path
         d="m 0,0 c 0,0 -0.785,6.466 -1.679,7.56 -1.495,1.827 -5.854,5.003 -7.24,2.866 -2.311,-3.557 -1.798,-6.393 -1.251,-7.824 0.876,-2.271 3.304,-4.963 4.246,-5.994 z"
         style="fill:#024249;fill-opacity:1;fill-rule:nonzero;stroke:none"
         id="path7742"
         inkscape:connector-curvature="0" />
    </g>
    <g
       id="g7744"
       transform="matrix(0.35277777,0,0,-0.35277777,-25.707439,321.89503)">
      <path
         d="m 0,0 c 0,0 4.951,2.358 7.993,0.228 3.044,-2.133 4.349,-2.057 5.252,-4.302 2.13,-5.29 2.377,-6.357 2.377,-6.357 0,0 -1.142,-0.647 -1.964,1.609 -0.744,2.039 -2.387,6.263 -3.578,4.573 -0.374,-0.529 0.298,-5.867 0.298,-5.867 0.178,-0.143 -3.102,0.663 -5.968,2.487 C 1.901,-6.031 1.258,-5.633 0.459,-4.646 -0.593,-3.346 -0.884,-1.304 0,0"
         style="fill:#d67b03;fill-opacity:1;fill-rule:nonzero;stroke:none"
         id="path7746"
         inkscape:connector-curvature="0" />
    </g>
    <g
       id="g7748"
       transform="matrix(0.35277777,0,0,-0.35277777,-17.553589,349.21411)">
      <path
         d="m 0,0 c 8.055,6.065 15.999,17.111 15.999,17.111 0,0 2.288,3.779 1.186,9.142 -1.168,5.675 -3.063,15.639 -4.466,20.787 -1.607,5.893 -8.26,3.966 -8.973,-2.43 C 3.338,40.941 6.953,29.043 7.35,23.276 7.516,20.87 -5.079,4.383 -5.079,4.383 -5.079,4.383 -0.052,-0.04 0,0"
         style="fill:#085c60;fill-opacity:1;fill-rule:nonzero;stroke:none"
         id="path7750"
         inkscape:connector-curvature="0" />
    </g>
    <g
       id="g7752"
       transform="matrix(0.35277777,0,0,-0.35277777,-16.986534,348.1725)">
      <path
         d="m 0,0 c 0.652,-0.848 -2.904,-4.338 -2.904,-4.338 0,0 -3.68,-3.301 -5.645,-3.841 -1.308,-0.357 -4.447,-0.38 -5.44,-0.024 -1.569,0.558 -0.727,1.555 -0.727,1.555 0.305,2.621 2.285,3.537 2.285,3.537 l 7.082,5.935 C -2.945,3.094 -1.096,1.42 0,0"
         style="fill:#ddad8a;fill-opacity:1;fill-rule:nonzero;stroke:none"
         id="path7754"
         inkscape:connector-curvature="0" />
    </g>
    <g
       id="g7756"
       transform="matrix(0.35277777,0,0,-0.35277777,-15.863801,346.44734)">
      <path
         d="M 0,0 C 0.599,-0.349 0.599,-0.906 0.006,-1.249 L -19.42,-12.537 c -0.591,-0.346 -1.55,-0.346 -2.149,0 L -48.642,3.092 c -0.597,0.346 -0.6,0.907 -0.01,1.247 l 19.427,11.289 c 0.589,0.345 1.555,0.347 2.153,0 z"
         style="fill:#706d6a;fill-opacity:1;fill-rule:nonzero;stroke:none"
         id="path7758"
         inkscape:connector-curvature="0" />
    </g>
    <g
       id="g7760"
       transform="matrix(0.35277777,0,0,-0.35277777,-15.863801,347.07779)">
      <path
         d="m 0,0 c 0.599,-0.346 0.599,-0.905 0.006,-1.246 l -19.426,-11.29 c -0.591,-0.344 -1.55,-0.344 -2.149,0 L -48.642,3.096 c -0.597,0.343 -0.6,0.903 -0.01,1.247 l 19.427,11.285 c 0.589,0.346 1.555,0.346 2.153,0 z"
         style="fill:#706d6a;fill-opacity:1;fill-rule:nonzero;stroke:none"
         id="path7762"
         inkscape:connector-curvature="0" />
    </g>
    <g
       id="g7764"
       transform="matrix(0.35277777,0,0,-0.35277777,-22.901109,350.94304)">
      <path
         d="m 0,0 -28.784,16.688 c -0.256,0.148 -0.573,-0.033 -0.575,-0.329 l -0.003,-0.907 c 0,-0.466 -0.011,-0.899 0.423,-1.189 l 0.305,-0.174 0.198,0.127 1.23,-0.715 v -0.247 l 0.228,-0.145 0.216,0.168 1.246,-0.71 -0.002,-0.285 0.226,-0.128 0.207,0.16 1.22,-0.717 v -0.255 l 0.225,-0.121 0.204,0.149 1.243,-0.716 v -0.27 L -1.449,-1.628 c 0.302,-0.165 0.817,-0.243 1.172,-0.201 0.262,-0.005 0.632,0.137 0.632,0.137 L 1.188,-1.24 20.036,9.732 c 0.473,0.28 0.366,0.72 0.361,0.961 v 1.411 z"
         style="fill:#4c4b49;fill-opacity:1;fill-rule:nonzero;stroke:none"
         id="path7766"
         inkscape:connector-curvature="0" />
    </g>
    <g
       id="g7768"
       transform="matrix(0.35277777,0,0,-0.35277777,-31.421513,344.55582)">
      <path
         d="m 0,0 9.576,5.54 c 0.373,0.215 1.108,0.144 1.631,-0.16 L 35.124,-8.491 c 0.528,-0.308 0.649,-0.73 0.274,-0.945 l -9.004,-5.213 c -0.353,-0.201 -0.791,-0.201 -1.146,0 z"
         style="fill:#393836;fill-opacity:1;fill-rule:nonzero;stroke:none"
         id="path7770"
         inkscape:connector-curvature="0" />
    </g>
    <g
       id="g7772"
       transform="matrix(0.35277777,0,0,-0.35277777,-20.50192,344.33999)">
      <path
         d="m 0,0 c 0.602,-0.337 0.611,-0.895 0.023,-1.247 l -2.657,-1.592 c -0.59,-0.355 -1.552,-0.368 -2.151,-0.032 l -4.249,2.379 c -0.601,0.335 -0.612,0.894 -0.025,1.247 l 2.661,1.59 c 0.586,0.351 1.547,0.366 2.15,0.029 z"
         style="fill:#222222;fill-opacity:1;fill-rule:nonzero;stroke:none"
         id="path7774"
         inkscape:connector-curvature="0" />
    </g>
    <g
       id="g7776"
       transform="matrix(0.35277777,0,0,-0.35277777,-687.02659,913.12507)">
      <g
         id="g7778"
         clip-path="url(#clipPath7782)">
        <g
           id="g7784"
           transform="translate(1880.043,1609.5278)">
          <path
             d="m 0,0 -0.002,-0.538 c -0.079,0.048 -0.121,0.107 -0.121,0.166 V 0.166 C -0.123,0.106 -0.081,0.046 0,0"
             style="fill:#afafaf;fill-opacity:1;fill-rule:nonzero;stroke:none"
             id="path7786"
             inkscape:connector-curvature="0" />
        </g>
      </g>
    </g>
    <g
       id="g7788"
       transform="matrix(0.35277777,0,0,-0.35277777,-687.02659,913.12507)">
      <g
         id="g7790"
         clip-path="url(#clipPath7794)">
        <g
           id="g7796"
           transform="translate(1887.9199,1605.814)">
          <path
             d="m 0,0 -0.438,-0.253 c -0.154,-0.091 -0.413,-0.091 -0.567,0 l -6.872,3.967 -0.002,-0.322 6.871,-3.967 c 0.155,-0.094 0.414,-0.094 0.57,0 L 0,-0.321 c 0.079,0.044 0.115,0.104 0.115,0.163 L 0.119,0.166 C 0.119,0.106 0.08,0.047 0,0"
             style="fill:#afafaf;fill-opacity:1;fill-rule:nonzero;stroke:none"
             id="path7798"
             inkscape:connector-curvature="0" />
        </g>
        <g
           id="g7800"
           transform="translate(1887.9199,1606.1465)">
          <path
             d="m 0,0 c 0.159,-0.093 0.159,-0.239 0,-0.333 l -0.438,-0.253 c -0.154,-0.091 -0.413,-0.091 -0.567,0 l -6.872,3.967 c -0.16,0.093 -0.16,0.24 -0.003,0.33 l 0.439,0.255 c 0.156,0.092 0.412,0.092 0.569,0 z"
             style="fill:#979797;fill-opacity:1;fill-rule:nonzero;stroke:none"
             id="path7802"
             inkscape:connector-curvature="0" />
        </g>
        <g
           id="g7804"
           transform="translate(1889.4277,1604.9468)">
          <path
             d="m 0,0 -0.438,-0.253 c -0.157,-0.094 -0.416,-0.091 -0.575,0 l -0.724,0.419 c -0.081,0.047 -0.121,0.108 -0.118,0.167 l -0.007,-0.359 c 0,-0.063 0.044,-0.122 0.125,-0.17 l 0.723,-0.421 c 0.16,-0.089 0.417,-0.089 0.576,-0.001 l 0.437,0.255 c 0.075,0.044 0.116,0.106 0.116,0.165 V 0.164 C 0.115,0.102 0.077,0.045 0,0"
             style="fill:#afafaf;fill-opacity:1;fill-rule:nonzero;stroke:none"
             id="path7806"
             inkscape:connector-curvature="0" />
        </g>
        <g
           id="g7808"
           transform="translate(1889.4229,1605.2793)">
          <path
             d="m 0,0 c 0.159,-0.091 0.161,-0.242 0.005,-0.333 l -0.438,-0.253 c -0.157,-0.093 -0.417,-0.09 -0.575,0 l -0.724,0.419 c -0.162,0.092 -0.162,0.241 -0.005,0.331 l 0.439,0.255 c 0.156,0.091 0.412,0.091 0.572,-0.002 z"
             style="fill:#979797;fill-opacity:1;fill-rule:nonzero;stroke:none"
             id="path7810"
             inkscape:connector-curvature="0" />
        </g>
        <g
           id="g7812"
           transform="translate(1890.9766,1604.0503)">
          <path
             d="m 0,0 -0.439,-0.253 c -0.156,-0.094 -0.413,-0.094 -0.571,0 l -0.724,0.42 c -0.083,0.047 -0.12,0.107 -0.12,0.166 l 0.01,-0.327 c 0,-0.06 0.038,-0.121 0.12,-0.169 L -1,-0.58 c 0.16,-0.092 0.415,-0.092 0.572,0 l 0.44,0.255 c 0.076,0.044 0.115,0.102 0.115,0.162 0.002,0.18 -0.011,0.148 -0.011,0.33 C 0.116,0.106 0.078,0.047 0,0"
             style="fill:#afafaf;fill-opacity:1;fill-rule:nonzero;stroke:none"
             id="path7814"
             inkscape:connector-curvature="0" />
        </g>
        <g
           id="g7816"
           transform="translate(1890.9736,1604.3818)">
          <path
             d="m 0,0 c 0.16,-0.09 0.16,-0.239 0.003,-0.332 l -0.44,-0.253 c -0.155,-0.093 -0.412,-0.093 -0.57,0 l -0.724,0.42 c -0.16,0.091 -0.16,0.241 -0.004,0.33 l 0.439,0.256 c 0.156,0.091 0.411,0.091 0.573,0 z"
             style="fill:#979797;fill-opacity:1;fill-rule:nonzero;stroke:none"
             id="path7818"
             inkscape:connector-curvature="0" />
        </g>
        <g
           id="g7820"
           transform="translate(1892.7969,1603.2422)">
          <path
             d="m 0,0 c 0.157,-0.091 0.161,-0.241 0.005,-0.331 l -0.44,-0.256 C -0.59,-0.678 -0.848,-0.678 -1.009,-0.586 L -2.09,0.042 c -0.16,0.089 -0.16,0.239 -0.004,0.33 l 0.438,0.255 c 0.158,0.092 0.413,0.092 0.57,0 z"
             style="fill:#979797;fill-opacity:1;fill-rule:nonzero;stroke:none"
             id="path7822"
             inkscape:connector-curvature="0" />
        </g>
      </g>
    </g>
    <g
       id="g7824"
       transform="matrix(0.35277777,0,0,-0.35277777,-687.02659,913.12507)">
      <g
         id="g7826"
         clip-path="url(#clipPath7830)">
        <g
           id="g7832"
           transform="translate(1881.8438,1607.0508)">
          <path
             d="m 0,0 -0.004,-0.54 c -0.082,0.048 -0.12,0.107 -0.12,0.169 l 0.001,0.538 C -0.123,0.106 -0.083,0.046 0,0"
             style="fill:#afafaf;fill-opacity:1;fill-rule:nonzero;stroke:none"
             id="path7834"
             inkscape:connector-curvature="0" />
        </g>
      </g>
    </g>
    <g
       id="g7836"
       transform="matrix(0.35277777,0,0,-0.35277777,-687.02659,913.12507)">
      <g
         id="g7838"
         clip-path="url(#clipPath7842)">
        <g
           id="g7844"
           transform="translate(1883.5801,1606.8843)">
          <path
             d="m 0,0 -0.437,-0.253 -0.003,-0.541 0.436,0.255 c 0.08,0.045 0.118,0.104 0.118,0.166 L 0.117,0.164 C 0.117,0.104 0.076,0.045 0,0"
             style="fill:#afafaf;fill-opacity:1;fill-rule:nonzero;stroke:none"
             id="path7846"
             inkscape:connector-curvature="0" />
        </g>
        <g
           id="g7848"
           transform="translate(1882.5654,1606.6318)">
          <path
             d="m 0,0 v -0.542 l -0.726,0.421 0.004,0.54 z"
             style="fill:#5e5e5e;fill-opacity:1;fill-rule:nonzero;stroke:none"
             id="path7850"
             inkscape:connector-curvature="0" />
        </g>
      </g>
    </g>
    <g
       id="g7852"
       transform="matrix(0.35277777,0,0,-0.35277777,-687.02659,913.12507)">
      <g
         id="g7854"
         clip-path="url(#clipPath7858)">
        <g
           id="g7860"
           transform="translate(1883.1436,1606.6309)">
          <path
             d="m 0,0 -0.004,-0.541 c -0.157,-0.09 -0.415,-0.087 -0.574,0 V 0.001 C -0.419,-0.09 -0.159,-0.093 0,0"
             style="fill:#afafaf;fill-opacity:1;fill-rule:nonzero;stroke:none"
             id="path7862"
             inkscape:connector-curvature="0" />
        </g>
      </g>
    </g>
    <g
       id="g7864"
       transform="matrix(0.35277777,0,0,-0.35277777,-687.02659,913.12507)">
      <g
         id="g7866"
         clip-path="url(#clipPath7870)">
        <g
           id="g7872"
           transform="translate(1883.5762,1607.2168)">
          <path
             d="m 0,0 c 0.157,-0.093 0.163,-0.24 0.004,-0.333 l -0.437,-0.253 c -0.159,-0.093 -0.419,-0.09 -0.578,0.001 l -0.721,0.419 c -0.164,0.092 -0.164,0.239 -0.008,0.332 l 0.439,0.257 c 0.159,0.091 0.416,0.09 0.574,-0.005 z"
             style="fill:#979797;fill-opacity:1;fill-rule:nonzero;stroke:none"
             id="path7874"
             inkscape:connector-curvature="0" />
        </g>
      </g>
    </g>
    <g
       id="g7876"
       transform="matrix(0.35277777,0,0,-0.35277777,-687.02659,913.12507)">
      <g
         id="g7878"
         clip-path="url(#clipPath7882)">
        <g
           id="g7884"
           transform="translate(1883.3838,1606.1582)">
          <path
             d="m 0,0 v -0.539 c -0.081,0.048 -0.122,0.108 -0.122,0.169 L -0.12,0.169 C -0.12,0.109 -0.081,0.045 0,0"
             style="fill:#afafaf;fill-opacity:1;fill-rule:nonzero;stroke:none"
             id="path7886"
             inkscape:connector-curvature="0" />
        </g>
      </g>
    </g>
    <g
       id="g7888"
       transform="matrix(0.35277777,0,0,-0.35277777,-687.02659,913.12507)">
      <g
         id="g7890"
         clip-path="url(#clipPath7894)">
        <g
           id="g7896"
           transform="translate(1885.1221,1605.9946)">
          <path
             d="M 0,0 -0.438,-0.256 C -0.595,-0.349 -0.85,-0.349 -1.011,-0.255 L -1.738,0.164 V -0.181 L -1.014,-0.6 c 0.161,-0.091 0.416,-0.091 0.576,0 l 0.434,0.255 c 0.079,0.045 0.119,0.104 0.119,0.162 L 0.119,0.164 C 0.119,0.102 0.079,0.042 0,0"
             style="fill:#afafaf;fill-opacity:1;fill-rule:nonzero;stroke:none"
             id="path7898"
             inkscape:connector-curvature="0" />
        </g>
        <g
           id="g7900"
           transform="translate(1885.1182,1606.3276)">
          <path
             d="m 0,0 c 0.158,-0.096 0.162,-0.241 0.004,-0.333 l -0.439,-0.256 c -0.156,-0.093 -0.411,-0.093 -0.572,0.001 l -0.727,0.419 c -0.158,0.09 -0.162,0.241 -0.002,0.332 l 0.437,0.253 c 0.159,0.095 0.417,0.093 0.571,0 z"
             style="fill:#979797;fill-opacity:1;fill-rule:nonzero;stroke:none"
             id="path7902"
             inkscape:connector-curvature="0" />
        </g>
        <g
           id="g7904"
           transform="translate(1886.6445,1605.1138)">
          <path
             d="m 0,0 -0.438,-0.253 c -0.156,-0.094 -0.414,-0.094 -0.572,0 l -0.725,0.419 c -0.081,0.046 -0.121,0.105 -0.12,0.167 l -0.001,-0.358 c 0,-0.059 0.04,-0.121 0.12,-0.168 l 0.726,-0.421 c 0.156,-0.091 0.414,-0.091 0.57,0 l 0.436,0.256 c 0.082,0.047 0.118,0.105 0.119,0.165 V 0.166 C 0.115,0.107 0.079,0.046 0,0"
             style="fill:#afafaf;fill-opacity:1;fill-rule:nonzero;stroke:none"
             id="path7906"
             inkscape:connector-curvature="0" />
        </g>
        <g
           id="g7908"
           transform="translate(1886.6406,1605.4453)">
          <path
             d="m 0,0 c 0.158,-0.092 0.162,-0.239 0.004,-0.332 l -0.439,-0.252 c -0.155,-0.094 -0.413,-0.094 -0.571,0 l -0.725,0.418 c -0.161,0.092 -0.161,0.239 -0.002,0.333 l 0.438,0.253 c 0.157,0.092 0.412,0.092 0.573,-0.002 z"
             style="fill:#979797;fill-opacity:1;fill-rule:nonzero;stroke:none"
             id="path7910"
             inkscape:connector-curvature="0" />
        </g>
        <g
           id="g7912"
           transform="translate(1888.1943,1604.2202)">
          <path
             d="M 0,0 -0.436,-0.254 C -0.594,-0.347 -0.85,-0.347 -1.009,-0.256 L -1.735,0.163 C -1.813,0.209 -1.854,0.27 -1.854,0.329 l -0.003,-0.35 c 0,-0.059 0.043,-0.119 0.118,-0.166 l 0.73,-0.419 c 0.155,-0.091 0.414,-0.091 0.571,0 l 0.436,0.255 c 0.081,0.045 0.118,0.105 0.118,0.164 L 0.12,0.162 C 0.12,0.104 0.08,0.044 0,0"
             style="fill:#afafaf;fill-opacity:1;fill-rule:nonzero;stroke:none"
             id="path7914"
             inkscape:connector-curvature="0" />
        </g>
        <g
           id="g7916"
           transform="translate(1888.1924,1604.5493)">
          <path
             d="m 0,0 c 0.157,-0.092 0.163,-0.239 0.002,-0.329 l -0.436,-0.254 c -0.158,-0.093 -0.414,-0.093 -0.573,-0.002 l -0.726,0.419 c -0.158,0.09 -0.161,0.241 -0.004,0.331 l 0.438,0.257 c 0.16,0.091 0.414,0.089 0.574,0 z"
             style="fill:#979797;fill-opacity:1;fill-rule:nonzero;stroke:none"
             id="path7918"
             inkscape:connector-curvature="0" />
        </g>
        <g
           id="g7920"
           transform="translate(1889.7344,1603.3286)">
          <path
             d="m 0,0 -0.438,-0.252 c -0.156,-0.093 -0.414,-0.093 -0.57,0 l -0.726,0.417 c -0.084,0.048 -0.121,0.108 -0.121,0.17 L -1.857,0.002 c 0,-0.062 0.039,-0.12 0.122,-0.169 l 0.723,-0.417 c 0.16,-0.093 0.418,-0.093 0.573,0 l 0.437,0.251 c 0.081,0.049 0.118,0.107 0.119,0.166 L 0.119,0.165 C 0.119,0.104 0.079,0.046 0,0"
             style="fill:#afafaf;fill-opacity:1;fill-rule:nonzero;stroke:none"
             id="path7922"
             inkscape:connector-curvature="0" />
        </g>
        <g
           id="g7924"
           transform="translate(1889.7324,1603.6567)">
          <path
             d="M 0,0 C 0.158,-0.088 0.16,-0.236 0.002,-0.328 L -0.437,-0.58 c -0.155,-0.093 -0.413,-0.093 -0.569,0 l -0.726,0.416 C -1.894,-0.07 -1.894,0.079 -1.733,0.167 L -1.3,0.424 c 0.16,0.093 0.415,0.092 0.573,-0.002 z"
             style="fill:#979797;fill-opacity:1;fill-rule:nonzero;stroke:none"
             id="path7926"
             inkscape:connector-curvature="0" />
        </g>
      </g>
    </g>
    <g
       id="g7928"
       transform="matrix(0.35277777,0,0,-0.35277777,-687.02659,913.12507)">
      <g
         id="g7930"
         clip-path="url(#clipPath7934)">
        <g
           id="g7936"
           transform="translate(1882.1172,1605.4336)">
          <path
             d="m 0,0 -0.003,-0.536 c -0.079,0.046 -0.12,0.105 -0.12,0.17 l 0.001,0.534 C -0.122,0.11 -0.082,0.051 0,0"
             style="fill:#afafaf;fill-opacity:1;fill-rule:nonzero;stroke:none"
             id="path7938"
             inkscape:connector-curvature="0" />
        </g>
      </g>
    </g>
    <g
       id="g7940"
       transform="matrix(0.35277777,0,0,-0.35277777,-687.02659,913.12507)">
      <g
         id="g7942"
         clip-path="url(#clipPath7946)">
        <g
           id="g7948"
           transform="translate(1882.8398,1605.019)">
          <path
             d="m 0,0 v -0.541 l -0.726,0.419 0.003,0.537 z"
             style="fill:#5e5e5e;fill-opacity:1;fill-rule:nonzero;stroke:none"
             id="path7950"
             inkscape:connector-curvature="0" />
        </g>
        <g
           id="g7952"
           transform="translate(1883.8525,1605.2715)">
          <path
             d="m 0,0 -0.438,-0.256 c -0.157,-0.091 -0.413,-0.091 -0.575,0.004 v -0.541 c 0.16,-0.092 0.417,-0.092 0.573,0 l 0.439,0.252 c 0.078,0.046 0.117,0.104 0.117,0.167 V 0.162 C 0.116,0.102 0.077,0.044 0,0"
             style="fill:#afafaf;fill-opacity:1;fill-rule:nonzero;stroke:none"
             id="path7954"
             inkscape:connector-curvature="0" />
        </g>
        <g
           id="g7956"
           transform="translate(1883.8477,1605.6021)">
          <path
             d="m 0,0 c 0.163,-0.094 0.163,-0.241 0.005,-0.331 l -0.439,-0.256 c -0.156,-0.091 -0.412,-0.091 -0.574,0.004 l -0.722,0.415 c -0.161,0.092 -0.164,0.244 -0.004,0.331 l 0.435,0.259 c 0.158,0.091 0.415,0.088 0.573,-0.003 z"
             style="fill:#979797;fill-opacity:1;fill-rule:nonzero;stroke:none"
             id="path7958"
             inkscape:connector-curvature="0" />
        </g>
        <g
           id="g7960"
           transform="translate(1885.3779,1604.3892)">
          <path
             d="m 0,0 -0.438,-0.251 c -0.159,-0.094 -0.416,-0.094 -0.575,0 l -0.726,0.419 c -0.079,0.046 -0.119,0.105 -0.119,0.169 l -0.003,-0.358 c 0,-0.061 0.043,-0.122 0.122,-0.169 l 0.725,-0.419 c 0.158,-0.092 0.417,-0.092 0.575,-0.001 l 0.437,0.254 c 0.078,0.044 0.114,0.106 0.114,0.164 L 0.114,0.165 C 0.114,0.106 0.076,0.045 0,0"
             style="fill:#afafaf;fill-opacity:1;fill-rule:nonzero;stroke:none"
             id="path7962"
             inkscape:connector-curvature="0" />
        </g>
        <g
           id="g7964"
           transform="translate(1885.3711,1604.7222)">
          <path
             d="m 0,0 c 0.164,-0.093 0.164,-0.239 0.007,-0.333 l -0.438,-0.251 c -0.159,-0.094 -0.417,-0.094 -0.575,0 l -0.726,0.419 c -0.158,0.09 -0.162,0.241 -0.002,0.331 l 0.436,0.255 c 0.158,0.09 0.415,0.09 0.574,-0.001 z"
             style="fill:#979797;fill-opacity:1;fill-rule:nonzero;stroke:none"
             id="path7966"
             inkscape:connector-curvature="0" />
        </g>
        <g
           id="g7968"
           transform="translate(1886.9287,1603.4932)">
          <path
             d="m 0,0 -0.44,-0.253 c -0.156,-0.091 -0.414,-0.089 -0.57,0 l -0.729,0.417 c -0.079,0.049 -0.117,0.109 -0.117,0.17 L -1.86,-0.019 c 0,-0.064 0.04,-0.123 0.121,-0.171 l 0.725,-0.416 c 0.16,-0.094 0.418,-0.094 0.574,0 l 0.439,0.252 c 0.076,0.045 0.113,0.105 0.113,0.164 L 0.115,0.164 C 0.115,0.106 0.077,0.045 0,0"
             style="fill:#afafaf;fill-opacity:1;fill-rule:nonzero;stroke:none"
             id="path7970"
             inkscape:connector-curvature="0" />
        </g>
        <g
           id="g7972"
           transform="translate(1886.9238,1603.8232)">
          <path
             d="m 0,0 c 0.159,-0.087 0.161,-0.238 0.005,-0.33 l -0.441,-0.253 c -0.155,-0.091 -0.414,-0.089 -0.569,0 l -0.729,0.416 c -0.159,0.096 -0.162,0.244 -0.003,0.336 l 0.441,0.254 c 0.155,0.09 0.414,0.09 0.571,-0.002 z"
             style="fill:#979797;fill-opacity:1;fill-rule:nonzero;stroke:none"
             id="path7974"
             inkscape:connector-curvature="0" />
        </g>
        <g
           id="g7976"
           transform="translate(1888.4688,1602.6074)">
          <path
             d="m 0,0 -0.438,-0.253 c -0.158,-0.094 -0.414,-0.094 -0.575,0 L -1.739,0.166 C -1.818,0.21 -1.858,0.272 -1.858,0.333 L -1.86,0.019 c 0,-0.062 0.042,-0.122 0.121,-0.168 l 0.723,-0.419 c 0.161,-0.094 0.419,-0.094 0.576,-0.003 l 0.437,0.255 c 0.075,0.045 0.116,0.104 0.116,0.164 L 0.116,0.16 C 0.116,0.103 0.075,0.044 0,0"
             style="fill:#afafaf;fill-opacity:1;fill-rule:nonzero;stroke:none"
             id="path7978"
             inkscape:connector-curvature="0" />
        </g>
        <g
           id="g7980"
           transform="translate(1888.4619,1602.9365)">
          <path
             d="m 0,0 c 0.162,-0.091 0.162,-0.238 0.007,-0.329 l -0.438,-0.253 c -0.158,-0.094 -0.414,-0.094 -0.575,0 l -0.726,0.418 c -0.16,0.092 -0.161,0.239 -0.002,0.331 l 0.437,0.253 c 0.159,0.093 0.413,0.093 0.573,0 z"
             style="fill:#979797;fill-opacity:1;fill-rule:nonzero;stroke:none"
             id="path7982"
             inkscape:connector-curvature="0" />
        </g>
        <g
           id="g7984"
           transform="translate(1884.1934,1603.981)">
          <path
             d="m 0,0 c 0.157,-0.094 0.159,-0.241 0,-0.333 l -0.439,-0.253 c -0.155,-0.093 -0.412,-0.093 -0.572,0 l -0.725,0.421 c -0.16,0.09 -0.16,0.238 0,0.331 l 0.432,0.253 c 0.16,0.09 0.413,0.09 0.575,0 z"
             style="fill:#979797;fill-opacity:1;fill-rule:nonzero;stroke:none"
             id="path7986"
             inkscape:connector-curvature="0" />
        </g>
      </g>
    </g>
    <g
       id="g7988"
       transform="matrix(0.35277777,0,0,-0.35277777,-687.02659,913.12507)">
      <g
         id="g7990"
         clip-path="url(#clipPath7994)">
        <g
           id="g7996"
           transform="translate(1882.457,1603.8159)">
          <path
             d="m 0,0 v -0.539 c -0.08,0.046 -0.121,0.106 -0.121,0.166 l 0.002,0.538 C -0.119,0.104 -0.08,0.044 0,0"
             style="fill:#afafaf;fill-opacity:1;fill-rule:nonzero;stroke:none"
             id="path7998"
             inkscape:connector-curvature="0" />
        </g>
      </g>
    </g>
    <g
       id="g8000"
       transform="matrix(0.35277777,0,0,-0.35277777,-687.02659,913.12507)">
      <g
         id="g8002"
         clip-path="url(#clipPath8006)">
        <g
           id="g8008"
           transform="translate(1883.1826,1603.395)">
          <path
             d="m 0,0 v -0.541 l -0.726,0.423 v 0.539 z"
             style="fill:#5e5e5e;fill-opacity:1;fill-rule:nonzero;stroke:none"
             id="path8010"
             inkscape:connector-curvature="0" />
        </g>
        <g
           id="g8012"
           transform="translate(1884.1934,1603.6479)">
          <path
             d="m 0,0 -0.439,-0.253 c -0.155,-0.093 -0.412,-0.093 -0.572,0 v -0.364 c 0.158,-0.093 0.415,-0.093 0.571,0 l 0.438,0.253 c 0.078,0.044 0.116,0.104 0.117,0.166 V 0.166 C 0.115,0.104 0.079,0.046 0,0"
             style="fill:#afafaf;fill-opacity:1;fill-rule:nonzero;stroke:none"
             id="path8014"
             inkscape:connector-curvature="0" />
        </g>
        <g
           id="g8016"
           transform="translate(1885.7412,1603.084)">
          <path
             d="m 0,0 c 0.16,-0.089 0.161,-0.24 0,-0.332 l -0.434,-0.252 c -0.157,-0.093 -0.414,-0.093 -0.571,0 l -0.725,0.419 c -0.16,0.09 -0.162,0.239 -0.004,0.332 L -1.3,0.42 c 0.158,0.094 0.419,0.094 0.575,0.001 z"
             style="fill:#979797;fill-opacity:1;fill-rule:nonzero;stroke:none"
             id="path8018"
             inkscape:connector-curvature="0" />
        </g>
        <g
           id="g8020"
           transform="translate(1885.7412,1602.752)">
          <path
             d="m 0,0 -0.434,-0.252 c -0.157,-0.093 -0.414,-0.093 -0.571,0 L -1.73,0.167 C -1.812,0.21 -1.852,0.272 -1.852,0.334 l -10e-4,-0.336 c 0,-0.06 0.04,-0.121 0.119,-0.165 l 0.727,-0.422 c 0.157,-0.09 0.414,-0.09 0.573,0 L 0,-0.336 c 0.081,0.046 0.12,0.108 0.12,0.166 L 0.122,0.165 C 0.122,0.106 0.081,0.045 0,0"
             style="fill:#afafaf;fill-opacity:1;fill-rule:nonzero;stroke:none"
             id="path8022"
             inkscape:connector-curvature="0" />
        </g>
        <g
           id="g8024"
           transform="translate(1887.2832,1601.8633)">
          <path
             d="m 0,0 -0.438,-0.252 c -0.155,-0.092 -0.414,-0.092 -0.571,0 l -0.725,0.419 c -0.08,0.046 -0.12,0.104 -0.12,0.168 L -1.858,0.028 c 0,-0.062 0.04,-0.122 0.12,-0.166 l 0.725,-0.42 c 0.161,-0.092 0.417,-0.092 0.575,0 l 0.434,0.251 c 0.08,0.045 0.119,0.109 0.119,0.169 L 0.119,0.166 C 0.119,0.105 0.079,0.046 0,0"
             style="fill:#afafaf;fill-opacity:1;fill-rule:nonzero;stroke:none"
             id="path8026"
             inkscape:connector-curvature="0" />
        </g>
        <g
           id="g8028"
           transform="translate(1887.2832,1602.1929)">
          <path
             d="m 0,0 c 0.158,-0.091 0.159,-0.239 0,-0.33 l -0.438,-0.252 c -0.155,-0.092 -0.414,-0.092 -0.571,0 l -0.725,0.419 c -0.159,0.093 -0.161,0.24 -0.001,0.331 l 0.432,0.256 c 0.161,0.09 0.416,0.09 0.574,0 z"
             style="fill:#979797;fill-opacity:1;fill-rule:nonzero;stroke:none"
             id="path8030"
             inkscape:connector-curvature="0" />
        </g>
      </g>
    </g>
    <g
       id="g8032"
       transform="matrix(0.35277777,0,0,-0.35277777,-687.02659,913.12507)">
      <g
         id="g8034"
         clip-path="url(#clipPath8038)">
        <g
           id="g8040"
           transform="translate(1882.7793,1602.2153)">
          <path
             d="m 0,0 -0.001,-0.54 c -0.082,0.05 -0.122,0.111 -0.122,0.172 l 0.001,0.536 C -0.122,0.107 -0.081,0.046 0,0"
             style="fill:#afafaf;fill-opacity:1;fill-rule:nonzero;stroke:none"
             id="path8042"
             inkscape:connector-curvature="0" />
        </g>
      </g>
    </g>
    <g
       id="g8052"
       transform="matrix(0.35277777,0,0,-0.35277777,-22.212055,347.95698)">
      <path
         d="M 0,0 -0.436,-0.252 C -0.596,-0.347 -0.85,-0.347 -1.01,-0.254 l -0.724,0.418 0.006,-0.352 0.722,-0.416 c 0.158,-0.093 0.416,-0.093 0.575,0 l 0.435,0.253 c 0.08,0.048 0.118,0.106 0.118,0.164 L 0.118,0.167 C 0.118,0.106 0.079,0.047 0,0"
         style="fill:#afafaf;fill-opacity:1;fill-rule:nonzero;stroke:none"
         id="path8054"
         inkscape:connector-curvature="0" />
    </g>
    <g
       id="g8056"
       transform="matrix(0.35277777,0,0,-0.35277777,-22.212055,347.83986)">
      <path
         d="M 0,0 C 0.158,-0.091 0.16,-0.24 0,-0.332 L -0.436,-0.584 C -0.596,-0.679 -0.85,-0.679 -1.01,-0.586 l -0.724,0.418 c -0.162,0.093 -0.162,0.243 -0.001,0.335 l 0.434,0.254 c 0.159,0.089 0.415,0.089 0.577,0 z"
         style="fill:#979797;fill-opacity:1;fill-rule:nonzero;stroke:none"
         id="path8058"
         inkscape:connector-curvature="0" />
    </g>
    <g
       id="g8060"
       transform="matrix(0.35277777,0,0,-0.35277777,-21.668442,348.27187)">
      <path
         d="m 0,0 -0.435,-0.248 c -0.159,-0.096 -0.419,-0.096 -0.577,0 l -0.724,0.417 c -0.082,0.047 -0.12,0.106 -0.12,0.167 L -1.859,0.028 c 0,-0.058 0.041,-0.119 0.12,-0.169 l 0.725,-0.417 c 0.158,-0.091 0.418,-0.091 0.576,0 l 0.436,0.253 c 0.081,0.048 0.118,0.105 0.118,0.164 v 0.31 C 0.116,0.108 0.079,0.047 0,0"
         style="fill:#afafaf;fill-opacity:1;fill-rule:nonzero;stroke:none"
         id="path8062"
         inkscape:connector-curvature="0" />
    </g>
    <g
       id="g8064"
       transform="matrix(0.35277777,0,0,-0.35277777,-21.66913,348.15337)">
      <path
         d="m 0,0 c 0.159,-0.091 0.163,-0.239 0.002,-0.336 l -0.435,-0.248 c -0.159,-0.096 -0.419,-0.096 -0.577,0 l -0.724,0.417 c -0.16,0.091 -0.162,0.239 -0.003,0.333 l 0.439,0.253 c 0.156,0.095 0.413,0.095 0.572,0 z"
         style="fill:#979797;fill-opacity:1;fill-rule:nonzero;stroke:none"
         id="path8066"
         inkscape:connector-curvature="0" />
    </g>
    <g
       id="g8068"
       transform="matrix(0.35277777,0,0,-0.35277777,-19.288912,347.65366)">
      <path
         d="m 0,0 -0.438,-0.255 c -0.158,-0.092 -0.415,-0.092 -0.574,0 l -1.083,0.628 c -0.081,0.044 -0.122,0.104 -0.122,0.166 l 0.011,-0.265 c 0,-0.059 0.037,-0.118 0.116,-0.165 l 1.082,-0.626 c 0.161,-0.094 0.42,-0.094 0.578,0 l 0.438,0.252 c 0.078,0.049 0.115,0.107 0.118,0.168 L 0.118,0.166 C 0.118,0.106 0.079,0.046 0,0"
         style="fill:#afafaf;fill-opacity:1;fill-rule:nonzero;stroke:none"
         id="path8070"
         inkscape:connector-curvature="0" />
    </g>
    <g
       id="g8072"
       transform="matrix(0.35277777,0,0,-0.35277777,-22.6093,348.80672)">
      <path
         d="m 0,0 -0.436,-0.255 -0.001,-0.536 0.436,0.253 c 0.081,0.044 0.117,0.105 0.119,0.164 L 0.12,0.166 C 0.12,0.106 0.08,0.045 0,0"
         style="fill:#afafaf;fill-opacity:1;fill-rule:nonzero;stroke:none"
         id="path8074"
         inkscape:connector-curvature="0" />
    </g>
    <g
       id="g8076"
       transform="matrix(0.35277777,0,0,-0.35277777,-22.965165,348.89664)">
      <path
         d="M 0,0 -1.084,0.625 C -1.164,0.67 -1.203,0.731 -1.203,0.792 L -1.206,0.255 c 0,-0.061 0.042,-0.121 0.122,-0.167 l 1.082,-0.627 C 0.156,-0.63 0.411,-0.63 0.572,-0.536 L 0.573,0 C 0.414,-0.092 0.158,-0.092 0,0"
         style="fill:#afafaf;fill-opacity:1;fill-rule:nonzero;stroke:none"
         id="path8078"
         inkscape:connector-curvature="0" />
    </g>
    <g
       id="g8080"
       transform="matrix(0.35277777,0,0,-0.35277777,-22.608612,348.68942)">
      <path
         d="m 0,0 c 0.158,-0.092 0.158,-0.241 -0.002,-0.333 l -0.436,-0.254 c -0.159,-0.092 -0.415,-0.092 -0.573,0 l -1.084,0.625 c -0.158,0.092 -0.16,0.244 0,0.332 l 0.436,0.255 c 0.158,0.092 0.416,0.092 0.575,0 z"
         style="fill:#979797;fill-opacity:1;fill-rule:nonzero;stroke:none"
         id="path8082"
         inkscape:connector-curvature="0" />
    </g>
    <g
       id="g8084"
       transform="matrix(0.35277777,0,0,-0.35277777,-21.936809,349.19619)">
      <path
         d="m 0,0 -0.434,-0.251 c -0.161,-0.091 -0.419,-0.091 -0.577,0 l -1.085,0.625 c -0.077,0.047 -0.118,0.108 -0.118,0.168 l 0.006,-0.266 c 0,-0.061 0.04,-0.122 0.121,-0.169 l 1.084,-0.622 c 0.161,-0.093 0.413,-0.093 0.573,0 l 0.437,0.253 c 0.079,0.046 0.117,0.105 0.12,0.166 L 0.12,0.169 C 0.12,0.107 0.077,0.05 0,0"
         style="fill:#afafaf;fill-opacity:1;fill-rule:nonzero;stroke:none"
         id="path8086"
         inkscape:connector-curvature="0" />
    </g>
    <g
       id="g8088"
       transform="matrix(0.35277777,0,0,-0.35277777,-21.937497,349.07698)">
      <path
         d="m 0,0 c 0.159,-0.093 0.162,-0.243 0.002,-0.338 l -0.434,-0.251 c -0.161,-0.091 -0.419,-0.091 -0.577,0 l -1.085,0.625 c -0.157,0.094 -0.157,0.242 0,0.332 l 0.437,0.257 c 0.158,0.09 0.416,0.09 0.572,0 z"
         style="fill:#979797;fill-opacity:1;fill-rule:nonzero;stroke:none"
         id="path8090"
         inkscape:connector-curvature="0" />
    </g>
    <g
       id="g8092"
       transform="matrix(0.35277777,0,0,-0.35277777,-27.241228,342.98659)">
      <path
         d="m 0,0 c -0.003,0.014 -0.006,0.028 -0.013,0.046 -0.015,0.071 -0.039,0.139 -0.069,0.209 -0.002,0.003 -0.004,0.007 -0.004,0.008 -0.025,0.059 -0.057,0.115 -0.09,0.17 -0.012,0.015 -0.022,0.033 -0.031,0.048 -0.03,0.045 -0.061,0.082 -0.092,0.123 -0.01,0.006 -0.014,0.018 -0.02,0.029 C -0.327,0.638 -0.331,0.64 -0.334,0.646 -0.36,0.675 -0.388,0.699 -0.417,0.726 -0.431,0.739 -0.444,0.752 -0.46,0.766 -0.5,0.801 -0.547,0.833 -0.591,0.86 L -7.352,4.761 C -7.524,4.864 -7.678,4.872 -7.794,4.808 L -8.257,4.537 c 0.111,0.063 0.269,0.056 0.439,-0.046 l 6.759,-3.902 c 0.046,-0.026 0.09,-0.058 0.135,-0.092 0.015,-0.016 0.028,-0.027 0.042,-0.042 0.029,-0.025 0.056,-0.051 0.08,-0.08 0.015,-0.014 0.025,-0.028 0.036,-0.042 0.034,-0.04 0.066,-0.082 0.094,-0.124 0.012,-0.014 0.021,-0.03 0.029,-0.046 0.035,-0.055 0.063,-0.111 0.09,-0.164 0.001,-0.007 0.006,-0.011 0.006,-0.016 0.031,-0.067 0.052,-0.136 0.07,-0.207 0.005,-0.016 0.008,-0.033 0.013,-0.048 0.012,-0.068 0.024,-0.14 0.024,-0.205 0,-0.196 -0.071,-0.334 -0.178,-0.399 l 0.464,0.271 c 0.108,0.065 0.179,0.204 0.179,0.399 C 0.025,-0.14 0.016,-0.07 0,0"
         style="fill:#827f7b;fill-opacity:1;fill-rule:nonzero;stroke:none"
         id="path8094"
         inkscape:connector-curvature="0" />
    </g>
    <g
       id="g8096"
       transform="matrix(0.35277777,0,0,-0.35277777,-19.714044,347.78627)">
      <path
         d="m 0,0 c 0.16,-0.094 0.162,-0.243 0.004,-0.333 l -0.438,-0.256 c -0.156,-0.089 -0.412,-0.089 -0.573,0 L -2.09,0.039 c -0.158,0.091 -0.161,0.24 -0.005,0.334 l 0.44,0.252 c 0.159,0.09 0.415,0.09 0.571,0 z"
         style="fill:#979797;fill-opacity:1;fill-rule:nonzero;stroke:none"
         id="path8098"
         inkscape:connector-curvature="0" />
    </g>
    <g
       id="g8100"
       transform="matrix(0.35277777,0,0,-0.35277777,-19.714044,347.90361)">
      <path
         d="m 0,0 -0.437,-0.257 c -0.158,-0.089 -0.413,-0.089 -0.575,0 l -1.084,0.629 c -0.08,0.045 -0.119,0.106 -0.119,0.165 l 0.007,-0.263 c 0,-0.061 0.041,-0.119 0.12,-0.162 l 1.084,-0.63 c 0.159,-0.093 0.416,-0.093 0.574,0 l 0.438,0.255 c 0.077,0.045 0.12,0.105 0.12,0.162 L 0.119,0.166 C 0.119,0.106 0.078,0.044 0,0"
         style="fill:#afafaf;fill-opacity:1;fill-rule:nonzero;stroke:none"
         id="path8102"
         inkscape:connector-curvature="0" />
    </g>
    <g
       id="g8104"
       transform="matrix(0.35277777,0,0,-0.35277777,-20.14296,348.03519)">
      <path
         d="m 0,0 c 0.16,-0.091 0.162,-0.239 0.006,-0.331 l -0.438,-0.253 c -0.157,-0.092 -0.415,-0.092 -0.575,0 L -2.09,0.041 c -0.16,0.091 -0.16,0.241 -0.002,0.332 l 0.438,0.256 c 0.157,0.092 0.412,0.092 0.57,0 z"
         style="fill:#979797;fill-opacity:1;fill-rule:nonzero;stroke:none"
         id="path8106"
         inkscape:connector-curvature="0" />
    </g>
    <g
       id="g8108"
       transform="matrix(0.35277777,0,0,-0.35277777,-20.577036,348.28598)">
      <path
         d="m 0,0 c 0.162,-0.094 0.162,-0.243 0.003,-0.336 l -0.434,-0.252 c -0.159,-0.093 -0.415,-0.093 -0.573,0 L -2.09,0.039 c -0.158,0.09 -0.158,0.238 0,0.332 l 0.434,0.253 c 0.159,0.094 0.416,0.094 0.575,0.001 z"
         style="fill:#979797;fill-opacity:1;fill-rule:nonzero;stroke:none"
         id="path8110"
         inkscape:connector-curvature="0" />
    </g>
    <g
       id="g8112"
       transform="matrix(0.35277777,0,0,-0.35277777,-21.005581,348.65358)">
      <path
         d="m 0,0 -0.434,-0.255 c -0.16,-0.093 -0.417,-0.093 -0.576,0 l -1.083,0.628 c -0.081,0.046 -0.119,0.104 -0.119,0.166 l 0.006,-0.264 c 0,-0.06 0.04,-0.122 0.12,-0.165 l 1.084,-0.626 c 0.16,-0.093 0.415,-0.093 0.577,0 l 0.432,0.25 c 0.079,0.05 0.121,0.108 0.121,0.168 L 0.12,0.164 C 0.12,0.105 0.08,0.047 0,0"
         style="fill:#afafaf;fill-opacity:1;fill-rule:nonzero;stroke:none"
         id="path8114"
         inkscape:connector-curvature="0" />
    </g>
    <g
       id="g8116"
       transform="matrix(0.35277777,0,0,-0.35277777,-20.57566,348.40349)">
      <path
         d="m 0,0 -0.435,-0.255 c -0.159,-0.093 -0.415,-0.093 -0.577,0 l -1.082,0.627 c -0.082,0.047 -0.121,0.105 -0.121,0.164 l 0.01,-0.262 c 0,-0.06 0.038,-0.119 0.119,-0.166 l 1.083,-0.626 c 0.161,-0.093 0.417,-0.092 0.573,0 l 0.437,0.253 c 0.081,0.044 0.118,0.106 0.122,0.167 L 0.122,0.166 C 0.122,0.105 0.079,0.044 0,0"
         style="fill:#afafaf;fill-opacity:1;fill-rule:nonzero;stroke:none"
         id="path8118"
         inkscape:connector-curvature="0" />
    </g>
    <g
       id="g8120"
       transform="matrix(0.35277777,0,0,-0.35277777,-20.14431,348.15182)">
      <path
         d="m 0,0 -0.434,-0.251 c -0.158,-0.094 -0.415,-0.094 -0.574,0 L -2.094,0.375 C -2.171,0.419 -2.211,0.479 -2.211,0.54 l 0.006,-0.263 c 0,-0.061 0.041,-0.12 0.119,-0.167 L -1,-0.517 c 0.157,-0.091 0.415,-0.091 0.573,0 l 0.437,0.254 c 0.078,0.049 0.119,0.106 0.119,0.165 L 0.122,0.168 C 0.122,0.108 0.082,0.046 0,0"
         style="fill:#afafaf;fill-opacity:1;fill-rule:nonzero;stroke:none"
         id="path8122"
         inkscape:connector-curvature="0" />
    </g>
    <g
       id="g8124"
       transform="matrix(0.35277777,0,0,-0.35277777,-21.006296,348.5361)">
      <path
         d="m 0,0 c 0.161,-0.092 0.162,-0.243 0.002,-0.333 l -0.434,-0.255 c -0.16,-0.093 -0.417,-0.093 -0.576,0 L -2.091,0.04 c -0.16,0.092 -0.16,0.24 0,0.331 l 0.434,0.254 c 0.159,0.094 0.416,0.094 0.574,0.001 z"
         style="fill:#979797;fill-opacity:1;fill-rule:nonzero;stroke:none"
         id="path8126"
         inkscape:connector-curvature="0" />
    </g>
    <g
       id="g8128"
       transform="matrix(0.35277777,0,0,-0.35277777,-23.252158,350.94872)">
      <path
         d="M 0,0 0.011,-1.269 C 0.009,-1.616 -0.232,-1.75 -0.533,-1.574 l -2.95,1.719 v 1.719 z"
         style="fill:#1a1a1a;fill-opacity:1;fill-rule:nonzero;stroke:none"
         id="path8130"
         inkscape:connector-curvature="0" />
    </g>
    <g
       id="g8132"
       transform="matrix(0.35277777,0,0,-0.35277777,-23.622496,350.84673)">
      <path
         d="M 0,0 C 0.148,-0.253 0.152,-0.659 0.01,-0.906 -0.134,-1.161 -0.37,-1.161 -0.519,-0.907 -0.666,-0.659 -0.666,-0.253 -0.522,0 -0.38,0.252 -0.145,0.251 0,0"
         style="fill:#111010;fill-opacity:1;fill-rule:nonzero;stroke:none"
         id="path8134"
         inkscape:connector-curvature="0" />
    </g>
    <g
       id="g8136"
       transform="matrix(0.35277777,0,0,-0.35277777,-23.622496,350.84673)">
      <path
         d="M 0,0 C -0.051,0.09 -0.117,0.148 -0.185,0.172 -0.252,0.148 -0.315,0.09 -0.365,0 c -0.145,-0.253 -0.145,-0.659 0,-0.907 0.055,-0.094 0.121,-0.152 0.187,-0.177 0.068,0.027 0.133,0.083 0.188,0.178 C 0.152,-0.659 0.148,-0.253 0,0"
         style="fill:#000000;fill-opacity:1;fill-rule:nonzero;stroke:none"
         id="path8138"
         inkscape:connector-curvature="0" />
    </g>
    <g
       id="g8140"
       transform="matrix(0.35277777,0,0,-0.35277777,-24.08205,350.60694)">
      <path
         d="m 0,0 c 0.127,-0.221 0.128,-0.576 0.002,-0.796 -0.127,-0.22 -0.333,-0.22 -0.461,-0.002 -0.13,0.221 -0.133,0.58 -0.005,0.802 C -0.337,0.224 -0.13,0.22 0,0"
         style="fill:#111010;fill-opacity:1;fill-rule:nonzero;stroke:none"
         id="path8142"
         inkscape:connector-curvature="0" />
    </g>
    <g
       id="g8144"
       transform="matrix(0.35277777,0,0,-0.35277777,-24.08205,350.60694)">
      <path
         d="M 0,0 C -0.047,0.082 -0.104,0.127 -0.161,0.151 -0.219,0.127 -0.277,0.082 -0.32,0.004 c -0.126,-0.222 -0.123,-0.581 0.004,-0.802 0.046,-0.077 0.103,-0.125 0.161,-0.147 0.054,0.022 0.114,0.07 0.157,0.149 C 0.128,-0.576 0.127,-0.221 0,0"
         style="fill:#000000;fill-opacity:1;fill-rule:nonzero;stroke:none"
         id="path8146"
         inkscape:connector-curvature="0" />
    </g>
    <g
       id="g8148"
       transform="matrix(0.35277777,0,0,-0.35277777,-26.52807,340.00555)">
      <path
         d="m 0,0 c 0.523,-1.242 0.43,-1.39 1.558,-0.907 0.396,0.164 1.935,0 1.681,-1.377 -0.217,-1.172 1.122,-2.498 1.58,-0.765 0.066,0.253 0.497,1.927 0.05,2.649 C 2.729,3.068 0.749,3.442 -0.377,2.963 -1.507,2.484 -0.526,1.24 0,0"
         style="fill:#f2c8a5;fill-opacity:1;fill-rule:nonzero;stroke:none"
         id="path8150"
         inkscape:connector-curvature="0" />
    </g>
    <g
       id="g8152"
       transform="matrix(0.35277777,0,0,-0.35277777,-27.477554,339.51685)">
      <path
         d="m 0,0 c 0.547,0.621 1.91,1.732 2.822,1.732 2.09,0 2.913,-1.724 2.913,-1.724 l 0.268,-0.632 0.893,-4.371 c 0,0 1.024,-3.116 0.872,-4.431 C 7.71,-9.913 7.204,-9.937 6.746,-9.58 6.354,-9.276 5.773,-6.897 5.32,-6.981 2.822,-7.439 1.043,-6.748 1.043,-6.748 l -1.962,3.419 C -1.545,-1.963 -1.345,-1.525 0,0"
         style="fill:#f2c8a5;fill-opacity:1;fill-rule:nonzero;stroke:none"
         id="path8154"
         inkscape:connector-curvature="0" />
    </g>
    <g
       id="g8156"
       transform="matrix(0.35277777,0,0,-0.35277777,-22.620333,343.43116)">
      <path
         d="m 0,0 c -0.003,0.013 -0.007,0.029 -0.011,0.044 -0.015,0.062 -0.035,0.123 -0.057,0.179 0,0 0,0.001 -0.006,0.001 -0.001,0.005 -0.002,0.012 -0.004,0.015 -0.022,0.048 -0.046,0.092 -0.076,0.137 -0.009,0.018 -0.02,0.033 -0.027,0.049 -0.026,0.034 -0.053,0.068 -0.078,0.1 C -0.268,0.536 -0.272,0.547 -0.281,0.551 -0.284,0.562 -0.289,0.564 -0.293,0.567 -0.315,0.591 -0.339,0.612 -0.361,0.633 -0.374,0.646 -0.39,0.659 -0.4,0.67 -0.437,0.7 -0.478,0.728 -0.517,0.753 l -27.867,16.088 c -0.151,0.087 -0.287,0.095 -0.385,0.037 l -1.164,-0.674 c 0.097,0.054 0.236,0.048 0.385,-0.04 L -1.681,0.077 c 0.04,-0.025 0.079,-0.051 0.116,-0.083 0.014,-0.01 0.027,-0.026 0.041,-0.037 0.021,-0.02 0.045,-0.04 0.068,-0.065 0.011,-0.014 0.022,-0.031 0.033,-0.046 0.027,-0.03 0.054,-0.063 0.076,-0.098 0.009,-0.015 0.02,-0.03 0.028,-0.047 0.029,-0.044 0.052,-0.087 0.074,-0.134 0.006,-0.007 0.007,-0.013 0.01,-0.021 0.027,-0.059 0.044,-0.117 0.058,-0.177 0.007,-0.017 0.01,-0.03 0.013,-0.045 0.014,-0.061 0.021,-0.119 0.021,-0.18 l -0.025,-20.325 c 0.282,-0.018 0.441,0.098 0.58,0.164 0.136,0.064 0.408,0.246 0.408,0.246 0.086,0.054 0.143,0.147 0.143,0.248 L 0.021,-0.179 C 0.021,-0.122 0.013,-0.06 0,0"
         style="fill:#2e2e2e;fill-opacity:1;fill-rule:nonzero;stroke:none"
         id="path8158"
         inkscape:connector-curvature="0" />
    </g>
    <g
       id="g8160"
       transform="matrix(0.35277777,0,0,-0.35277777,-23.213212,343.40396)">
      <path
         d="M 0,0 C 0.3,-0.174 0.539,-0.591 0.538,-0.933 L 0.513,-21.258 c 0,0 -0.247,-0.018 -0.572,0.128 -0.415,0.191 -23.725,13.49 -27.818,15.819 -0.361,0.204 -0.596,0.585 -0.596,0.997 v 20.135 c 0.004,0.343 0.244,0.483 0.545,0.308 z"
         style="fill:#202020;fill-opacity:1;fill-rule:nonzero;stroke:none"
         id="path8162"
         inkscape:connector-curvature="0" />
    </g>
    <g
       id="g8164"
       transform="matrix(0.35277777,0,0,-0.35277777,-27.614661,342.77884)">
      <path
         d="m 0,0 c 0.343,-0.196 0.62,-0.673 0.618,-1.066 0,-0.396 -0.281,-0.554 -0.62,-0.354 l -6.762,3.9 c -0.342,0.198 -0.617,0.679 -0.614,1.07 0,0.394 0.276,0.553 0.618,0.352 z"
         style="fill:#464442;fill-opacity:1;fill-rule:nonzero;stroke:none"
         id="path8166"
         inkscape:connector-curvature="0" />
    </g>
  </g>
</svg>
