<?xml version="1.0" encoding="UTF-8" standalone="no"?>
<!-- Created with Inkscape (http://www.inkscape.org/) -->

<svg
   xmlns:dc="http://purl.org/dc/elements/1.1/"
   xmlns:cc="http://creativecommons.org/ns#"
   xmlns:rdf="http://www.w3.org/1999/02/22-rdf-syntax-ns#"
   xmlns:svg="http://www.w3.org/2000/svg"
   xmlns="http://www.w3.org/2000/svg"
   xmlns:sodipodi="http://sodipodi.sourceforge.net/DTD/sodipodi-0.dtd"
   xmlns:inkscape="http://www.inkscape.org/namespaces/inkscape"
   width="24.774965mm"
   height="57.432713mm"
   viewBox="0 0 24.774963 57.432712"
   version="1.1"
   id="svg45331"
   inkscape:version="0.92.3 (2405546, 2018-03-11)"
   sodipodi:docname="people-casual-9.svg">
  <defs
     id="defs45325">
    <clipPath
       id="clipPath2864"
       clipPathUnits="userSpaceOnUse">
      <path
         inkscape:connector-curvature="0"
         id="path2862"
         d="m 1713.778,1928.833 c -0.536,-0.312 -0.927,-0.874 -1.106,-1.65 v 0 l 1.125,0.653 c 0.179,0.778 0.57,1.34 1.107,1.651 v 0 z" />
    </clipPath>
    <clipPath
       id="clipPath2848"
       clipPathUnits="userSpaceOnUse">
      <path
         inkscape:connector-curvature="0"
         id="path2846"
         d="M 0,2119.953 H 3253.108 V 0 H 0 Z" />
    </clipPath>
    <clipPath
       id="clipPath2836"
       clipPathUnits="userSpaceOnUse">
      <path
         inkscape:connector-curvature="0"
         id="path2834"
         d="m 1711.152,1926.674 v -0.651 c 0.308,-0.179 0.813,-0.18 1.126,0 v 0 0.651 c -0.315,-0.183 -0.82,-0.178 -1.129,0" />
    </clipPath>
    <clipPath
       id="clipPath2820"
       clipPathUnits="userSpaceOnUse">
      <path
         inkscape:connector-curvature="0"
         id="path2818"
         d="M 0,2119.953 H 3253.108 V 0 H 0 Z" />
    </clipPath>
    <clipPath
       id="clipPath2808"
       clipPathUnits="userSpaceOnUse">
      <path
         inkscape:connector-curvature="0"
         id="path2806"
         d="m 1710.148,1926.8 c 0,-0.121 0.077,-0.238 0.231,-0.325 v 0 0.65 c -0.156,0.087 -0.233,0.207 -0.233,0.324 v 0 -0.649 z" />
    </clipPath>
    <clipPath
       id="clipPath2796"
       clipPathUnits="userSpaceOnUse">
      <path
         inkscape:connector-curvature="0"
         id="path2794"
         d="m 1714.756,1928.103 v -0.65 c 0.158,0.09 0.237,0.211 0.237,0.331 v 0 0.65 c 0,-0.119 -0.078,-0.24 -0.236,-0.331" />
    </clipPath>
    <clipPath
       id="clipPath2784"
       clipPathUnits="userSpaceOnUse">
      <path
         inkscape:connector-curvature="0"
         id="path2782"
         d="M 0,2119.953 H 3253.108 V 0 H 0 Z" />
    </clipPath>
    <clipPath
       id="clipPath2772"
       clipPathUnits="userSpaceOnUse">
      <path
         inkscape:connector-curvature="0"
         id="path2770"
         d="m 1720.53,1921.188 10e-4,-0.65 c 0.309,-0.181 0.814,-0.181 1.128,0 v 0 0.65 c -0.316,-0.182 -0.821,-0.181 -1.129,0" />
    </clipPath>
    <clipPath
       id="clipPath2756"
       clipPathUnits="userSpaceOnUse">
      <path
         inkscape:connector-curvature="0"
         id="path2754"
         d="M 0,2119.953 H 3253.108 V 0 H 0 Z" />
    </clipPath>
    <clipPath
       id="clipPath2744"
       clipPathUnits="userSpaceOnUse">
      <path
         inkscape:connector-curvature="0"
         id="path2742"
         d="m 1719.524,1921.312 c 0,-0.119 0.08,-0.235 0.234,-0.324 v 0 0.65 c -0.154,0.089 -0.233,0.207 -0.233,0.324 v 0 -0.65 z" />
    </clipPath>
    <clipPath
       id="clipPath2732"
       clipPathUnits="userSpaceOnUse">
      <path
         inkscape:connector-curvature="0"
         id="path2730"
         d="m 1724.133,1922.619 v -0.654 c 0.158,0.094 0.238,0.212 0.238,0.331 v 0 0.65 c 0,-0.117 -0.08,-0.238 -0.238,-0.327" />
    </clipPath>
    <clipPath
       id="clipPath2536"
       clipPathUnits="userSpaceOnUse">
      <path
         inkscape:connector-curvature="0"
         id="path2534"
         d="m 1708.77,1889.11 h 53.56 v -38.31 h -53.56 z" />
    </clipPath>
    <clipPath
       id="clipPath3428"
       clipPathUnits="userSpaceOnUse">
      <path
         inkscape:connector-curvature="0"
         id="path3426"
         d="m 1819.231,1919.634 0.051,-0.722 c 0.167,0.114 0.248,0.253 0.238,0.383 v 0 l -0.048,0.721 c 0.01,-0.131 -0.071,-0.272 -0.241,-0.382" />
    </clipPath>
    <clipPath
       id="clipPath3440"
       clipPathUnits="userSpaceOnUse">
      <path
         inkscape:connector-curvature="0"
         id="path3438"
         d="m 1814.225,1917.859 c 0.01,-0.132 0.103,-0.255 0.282,-0.343 v 0 l -0.049,0.721 c -0.177,0.085 -0.273,0.212 -0.281,0.34 v 0 z" />
    </clipPath>
    <clipPath
       id="clipPath3452"
       clipPathUnits="userSpaceOnUse">
      <path
         inkscape:connector-curvature="0"
         id="path3450"
         d="M 0,2119.953 H 3253.108 V 0 H 0 Z" />
    </clipPath>
    <clipPath
       id="clipPath3468"
       clipPathUnits="userSpaceOnUse">
      <path
         inkscape:connector-curvature="0"
         id="path3466"
         d="m 1815.349,1917.792 0.046,-0.72 c 0.354,-0.177 0.915,-0.14 1.248,0.082 v 0 l -0.048,0.721 c -0.335,-0.223 -0.893,-0.259 -1.246,-0.083" />
    </clipPath>
    <clipPath
       id="clipPath3480"
       clipPathUnits="userSpaceOnUse">
      <path
         inkscape:connector-curvature="0"
         id="path3478"
         d="M 0,2119.953 H 3253.108 V 0 H 0 Z" />
    </clipPath>
    <clipPath
       id="clipPath3492"
       clipPathUnits="userSpaceOnUse">
      <path
         inkscape:connector-curvature="0"
         id="path3490"
         d="m 1808.461,1925.033 0.049,-0.719 c 0.167,0.112 0.245,0.25 0.238,0.383 v 0 l -0.049,0.719 c 0.01,-0.131 -0.07,-0.268 -0.238,-0.383" />
    </clipPath>
    <clipPath
       id="clipPath3504"
       clipPathUnits="userSpaceOnUse">
      <path
         inkscape:connector-curvature="0"
         id="path3502"
         d="m 1803.454,1923.259 c 0.01,-0.132 0.102,-0.258 0.279,-0.342 v 0 l -0.048,0.72 c -0.177,0.086 -0.273,0.214 -0.28,0.342 v 0 z" />
    </clipPath>
    <clipPath
       id="clipPath3516"
       clipPathUnits="userSpaceOnUse">
      <path
         inkscape:connector-curvature="0"
         id="path3514"
         d="M 0,2119.953 H 3253.108 V 0 H 0 Z" />
    </clipPath>
    <clipPath
       id="clipPath3532"
       clipPathUnits="userSpaceOnUse">
      <path
         inkscape:connector-curvature="0"
         id="path3530"
         d="m 1804.576,1923.193 0.047,-0.721 c 0.353,-0.175 0.915,-0.14 1.248,0.081 v 0 l -0.049,0.722 c -0.333,-0.223 -0.894,-0.258 -1.246,-0.082" />
    </clipPath>
    <clipPath
       id="clipPath3544"
       clipPathUnits="userSpaceOnUse">
      <path
         inkscape:connector-curvature="0"
         id="path3542"
         d="M 0,2119.953 H 3253.108 V 0 H 0 Z" />
    </clipPath>
    <clipPath
       id="clipPath3560"
       clipPathUnits="userSpaceOnUse">
      <path
         inkscape:connector-curvature="0"
         id="path3558"
         d="m 1807.327,1925.772 c -0.572,-0.383 -0.964,-1.034 -1.106,-1.907 v 0 l 1.197,0.803 c 0.144,0.873 0.537,1.525 1.109,1.907 v 0 z" />
    </clipPath>
    <clipPath
       id="clipPath3240"
       clipPathUnits="userSpaceOnUse">
      <path
         inkscape:connector-curvature="0"
         id="path3238"
         d="m 1804.45,1875.26 h 66.26 v -26.97 h -66.26 z" />
    </clipPath>
    <clipPath
       id="clipPath3596"
       clipPathUnits="userSpaceOnUse">
      <path
         inkscape:connector-curvature="0"
         id="path3594"
         d="m 1887.55,1874.88 h 68.5 v -28.2 h -68.5 z" />
    </clipPath>
    <clipPath
       id="clipPath3760"
       clipPathUnits="userSpaceOnUse">
      <path
         inkscape:connector-curvature="0"
         id="path3758"
         d="m 1940.709,1921.043 c -0.01,-0.134 0.073,-0.277 0.243,-0.394 v 0 l 0.052,0.743 c -0.176,0.111 -0.256,0.256 -0.246,0.388 v 0 z" />
    </clipPath>
    <clipPath
       id="clipPath3772"
       clipPathUnits="userSpaceOnUse">
      <path
         inkscape:connector-curvature="0"
         id="path3770"
         d="m 1945.896,1919.955 -0.048,-0.737 c 0.182,0.088 0.281,0.215 0.289,0.351 v 0 l 0.048,0.737 c -0.01,-0.134 -0.106,-0.261 -0.289,-0.351" />
    </clipPath>
    <clipPath
       id="clipPath3784"
       clipPathUnits="userSpaceOnUse">
      <path
         inkscape:connector-curvature="0"
         id="path3782"
         d="M 0,2119.953 H 3253.108 V 0 H 0 Z" />
    </clipPath>
    <clipPath
       id="clipPath3800"
       clipPathUnits="userSpaceOnUse">
      <path
         inkscape:connector-curvature="0"
         id="path3798"
         d="m 1943.658,1918.845 c 0.343,-0.226 0.914,-0.264 1.28,-0.084 v 0 l 0.047,0.741 c -0.361,-0.182 -0.936,-0.146 -1.28,0.084 v 0 z" />
    </clipPath>
    <clipPath
       id="clipPath3812"
       clipPathUnits="userSpaceOnUse">
      <path
         inkscape:connector-curvature="0"
         id="path3810"
         d="M 0,2119.953 H 3253.108 V 0 H 0 Z" />
    </clipPath>
    <clipPath
       id="clipPath3824"
       clipPathUnits="userSpaceOnUse">
      <path
         inkscape:connector-curvature="0"
         id="path3822"
         d="m 1951.754,1926.58 c -0.01,-0.136 0.071,-0.278 0.241,-0.392 v 0 l 0.052,0.737 c -0.174,0.117 -0.253,0.258 -0.245,0.391 v 0 z" />
    </clipPath>
    <clipPath
       id="clipPath3836"
       clipPathUnits="userSpaceOnUse">
      <path
         inkscape:connector-curvature="0"
         id="path3834"
         d="m 1956.943,1925.491 -0.049,-0.737 c 0.18,0.088 0.277,0.215 0.287,0.352 v 0 l 0.049,0.737 c -0.01,-0.132 -0.104,-0.262 -0.287,-0.352" />
    </clipPath>
    <clipPath
       id="clipPath3848"
       clipPathUnits="userSpaceOnUse">
      <path
         inkscape:connector-curvature="0"
         id="path3846"
         d="M 0,2119.953 H 3253.108 V 0 H 0 Z" />
    </clipPath>
    <clipPath
       id="clipPath3864"
       clipPathUnits="userSpaceOnUse">
      <path
         inkscape:connector-curvature="0"
         id="path3862"
         d="m 1954.703,1924.383 c 0.34,-0.229 0.916,-0.262 1.279,-0.086 v 0 l 0.049,0.743 c -0.361,-0.183 -0.938,-0.15 -1.279,0.081 v 0 z" />
    </clipPath>
    <clipPath
       id="clipPath3876"
       clipPathUnits="userSpaceOnUse">
      <path
         inkscape:connector-curvature="0"
         id="path3874"
         d="M 0,2119.953 H 3253.108 V 0 H 0 Z" />
    </clipPath>
    <clipPath
       id="clipPath3892"
       clipPathUnits="userSpaceOnUse">
      <path
         inkscape:connector-curvature="0"
         id="path3890"
         d="m 1953.117,1926.55 1.227,-0.822 c -0.145,0.891 -0.551,1.561 -1.133,1.955 v 0 l -1.232,0.823 c 0.588,-0.393 0.989,-1.061 1.138,-1.956" />
    </clipPath>
    <clipPath
       id="clipPath3948"
       clipPathUnits="userSpaceOnUse">
      <path
         inkscape:connector-curvature="0"
         id="path3946"
         d="m 2018.76,1870.93 h 70.11 v -23.75 h -70.11 z" />
    </clipPath>
    <clipPath
       id="clipPath4212"
       clipPathUnits="userSpaceOnUse">
      <path
         inkscape:connector-curvature="0"
         id="path4210"
         d="m 2154.433,1916.311 c 0,-0.141 0.087,-0.289 0.273,-0.405 v 0 l 0.028,0.784 c -0.187,0.117 -0.276,0.264 -0.271,0.407 v 0 z" />
    </clipPath>
    <clipPath
       id="clipPath4224"
       clipPathUnits="userSpaceOnUse">
      <path
         inkscape:connector-curvature="0"
         id="path4222"
         d="m 2159.973,1915.328 -0.03,-0.782 c 0.192,0.1 0.289,0.239 0.295,0.381 v 0 l 0.027,0.785 c 0,-0.142 -0.103,-0.28 -0.292,-0.384" />
    </clipPath>
    <clipPath
       id="clipPath4236"
       clipPathUnits="userSpaceOnUse">
      <path
         inkscape:connector-curvature="0"
         id="path4234"
         d="M 0,2119.953 H 3253.108 V 0 H 0 Z" />
    </clipPath>
    <clipPath
       id="clipPath4252"
       clipPathUnits="userSpaceOnUse">
      <path
         inkscape:connector-curvature="0"
         id="path4250"
         d="m 2157.634,1914.081 c 0.368,-0.23 0.978,-0.251 1.357,-0.046 v 0 l 0.029,0.783 c -0.377,-0.203 -0.988,-0.185 -1.36,0.049 v 0 z" />
    </clipPath>
    <clipPath
       id="clipPath4264"
       clipPathUnits="userSpaceOnUse">
      <path
         inkscape:connector-curvature="0"
         id="path4262"
         d="M 0,2119.953 H 3253.108 V 0 H 0 Z" />
    </clipPath>
    <clipPath
       id="clipPath4276"
       clipPathUnits="userSpaceOnUse">
      <path
         inkscape:connector-curvature="0"
         id="path4274"
         d="m 2165.961,1922.544 c 0,-0.146 0.086,-0.293 0.271,-0.409 v 0 l 0.032,0.784 c -0.188,0.117 -0.279,0.265 -0.274,0.408 v 0 z" />
    </clipPath>
    <clipPath
       id="clipPath4288"
       clipPathUnits="userSpaceOnUse">
      <path
         inkscape:connector-curvature="0"
         id="path4286"
         d="m 2171.5,1921.561 -0.028,-0.785 c 0.189,0.101 0.287,0.239 0.293,0.379 v 0 l 0.028,0.787 c 0,-0.142 -0.102,-0.281 -0.293,-0.381" />
    </clipPath>
    <clipPath
       id="clipPath4300"
       clipPathUnits="userSpaceOnUse">
      <path
         inkscape:connector-curvature="0"
         id="path4298"
         d="M 0,2119.953 H 3253.108 V 0 H 0 Z" />
    </clipPath>
    <clipPath
       id="clipPath4316"
       clipPathUnits="userSpaceOnUse">
      <path
         inkscape:connector-curvature="0"
         id="path4314"
         d="m 2169.16,1920.31 c 0.37,-0.229 0.979,-0.249 1.359,-0.045 v 0 l 0.03,0.784 c -0.379,-0.201 -0.99,-0.186 -1.36,0.046 v 0 z" />
    </clipPath>
    <clipPath
       id="clipPath4328"
       clipPathUnits="userSpaceOnUse">
      <path
         inkscape:connector-curvature="0"
         id="path4326"
         d="M 0,2119.953 H 3253.108 V 0 H 0 Z" />
    </clipPath>
    <clipPath
       id="clipPath4344"
       clipPathUnits="userSpaceOnUse">
      <path
         inkscape:connector-curvature="0"
         id="path4342"
         d="m 2167.406,1922.556 1.331,-0.832 c -0.186,0.942 -0.633,1.637 -1.266,2.036 v 0 l -1.332,0.833 c 0.636,-0.396 1.084,-1.091 1.267,-2.037" />
    </clipPath>
    <clipPath
       id="clipPath4598"
       clipPathUnits="userSpaceOnUse">
      <path
         inkscape:connector-curvature="0"
         id="path4596"
         d="m 2331.633,1939.514 c 0,-0.142 0.1,-0.287 0.296,-0.396 v 0 0.783 c -0.196,0.107 -0.292,0.246 -0.292,0.387 v 0 -0.774 z" />
    </clipPath>
    <clipPath
       id="clipPath4610"
       clipPathUnits="userSpaceOnUse">
      <path
         inkscape:connector-curvature="0"
         id="path4608"
         d="m 2337.17,1938.719 v -0.771 c 0.189,0.099 0.285,0.249 0.285,0.379 v 0 0.787 c 0,-0.14 -0.091,-0.287 -0.283,-0.395" />
    </clipPath>
    <clipPath
       id="clipPath4622"
       clipPathUnits="userSpaceOnUse">
      <path
         inkscape:connector-curvature="0"
         id="path4620"
         d="M 0,2119.953 H 3253.108 V 0 H 0 Z" />
    </clipPath>
    <clipPath
       id="clipPath4638"
       clipPathUnits="userSpaceOnUse">
      <path
         inkscape:connector-curvature="0"
         id="path4636"
         d="m 2334.888,1938.187 v -0.785 c 0.382,-0.217 0.981,-0.217 1.349,0 v 0 0.785 c -0.368,-0.217 -0.963,-0.217 -1.349,0" />
    </clipPath>
    <clipPath
       id="clipPath4650"
       clipPathUnits="userSpaceOnUse">
      <path
         inkscape:connector-curvature="0"
         id="path4648"
         d="M 0,2119.953 H 3253.108 V 0 H 0 Z" />
    </clipPath>
    <clipPath
       id="clipPath4662"
       clipPathUnits="userSpaceOnUse">
      <path
         inkscape:connector-curvature="0"
         id="path4660"
         d="m 2342.868,1946.09 c 0,-0.141 0.101,-0.294 0.291,-0.401 v 0 l 0.01,0.777 c -0.195,0.113 -0.291,0.255 -0.291,0.401 v 0 z" />
    </clipPath>
    <clipPath
       id="clipPath4674"
       clipPathUnits="userSpaceOnUse">
      <path
         inkscape:connector-curvature="0"
         id="path4672"
         d="m 2348.401,1945.298 v -0.782 c 0.182,0.104 0.277,0.25 0.277,0.39 v 0 l 0.01,0.781 c 0,-0.143 -0.095,-0.282 -0.282,-0.389" />
    </clipPath>
    <clipPath
       id="clipPath4686"
       clipPathUnits="userSpaceOnUse">
      <path
         inkscape:connector-curvature="0"
         id="path4684"
         d="M 0,2119.953 H 3253.108 V 0 H 0 Z" />
    </clipPath>
    <clipPath
       id="clipPath4702"
       clipPathUnits="userSpaceOnUse">
      <path
         inkscape:connector-curvature="0"
         id="path4700"
         d="m 2346.127,1944.756 v -0.778 c 0.376,-0.212 0.982,-0.212 1.348,0 v 0 0.778 c -0.366,-0.213 -0.972,-0.213 -1.348,0" />
    </clipPath>
    <clipPath
       id="clipPath4714"
       clipPathUnits="userSpaceOnUse">
      <path
         inkscape:connector-curvature="0"
         id="path4712"
         d="M 0,2119.953 H 3253.108 V 0 H 0 Z" />
    </clipPath>
    <clipPath
       id="clipPath4730"
       clipPathUnits="userSpaceOnUse">
      <path
         inkscape:connector-curvature="0"
         id="path4728"
         d="m 2343.05,1948.089 c -0.023,0.013 -0.045,0.026 -0.068,0.038 v 0 z m 1.257,-1.939 1.349,-0.782 c -0.21,0.926 -0.683,1.603 -1.326,1.976 v 0 l -1.28,0.745 c 0.612,-0.371 1.048,-1.041 1.257,-1.939" />
    </clipPath>
    <clipPath
       id="clipPath4742"
       clipPathUnits="userSpaceOnUse">
      <path
         inkscape:connector-curvature="0"
         id="path4740"
         d="M 0,2119.953 H 3253.108 V 0 H 0 Z" />
    </clipPath>
    <clipPath
       id="clipPath4918"
       clipPathUnits="userSpaceOnUse">
      <path
         inkscape:connector-curvature="0"
         id="path4916"
         d="m 2276.169,1866.541 c 0,-0.151 0.1,-0.291 0.285,-0.401 v 0 0.785 c -0.19,0.105 -0.286,0.259 -0.286,0.394 v 0 -0.778 z" />
    </clipPath>
    <clipPath
       id="clipPath4930"
       clipPathUnits="userSpaceOnUse">
      <path
         inkscape:connector-curvature="0"
         id="path4928"
         d="m 2281.734,1865.741 -0.01,-0.776 c 0.185,0.103 0.278,0.244 0.278,0.385 v 0 0.786 c 0,-0.141 -0.096,-0.281 -0.276,-0.395" />
    </clipPath>
    <clipPath
       id="clipPath4942"
       clipPathUnits="userSpaceOnUse">
      <path
         inkscape:connector-curvature="0"
         id="path4940"
         d="M 0,2119.953 H 3253.108 V 0 H 0 Z" />
    </clipPath>
    <clipPath
       id="clipPath4958"
       clipPathUnits="userSpaceOnUse">
      <path
         inkscape:connector-curvature="0"
         id="path4956"
         d="m 2279.442,1865.203 v -0.782 c 0.372,-0.219 0.983,-0.219 1.351,0 v 0 0.782 c -0.372,-0.221 -0.983,-0.221 -1.355,0" />
    </clipPath>
    <clipPath
       id="clipPath4970"
       clipPathUnits="userSpaceOnUse">
      <path
         inkscape:connector-curvature="0"
         id="path4968"
         d="M 0,2119.953 H 3253.108 V 0 H 0 Z" />
    </clipPath>
    <clipPath
       id="clipPath4982"
       clipPathUnits="userSpaceOnUse">
      <path
         inkscape:connector-curvature="0"
         id="path4980"
         d="m 2287.467,1873.148 c 0,-0.144 0.095,-0.29 0.287,-0.404 v 0 0.786 c -0.191,0.114 -0.29,0.258 -0.29,0.404 v 0 -0.786 z" />
    </clipPath>
    <clipPath
       id="clipPath4994"
       clipPathUnits="userSpaceOnUse">
      <path
         inkscape:connector-curvature="0"
         id="path4992"
         d="m 2293.032,1872.36 v -0.782 c 0.191,0.096 0.282,0.241 0.282,0.378 v 0 0.788 c 0,-0.14 -0.094,-0.281 -0.281,-0.384" />
    </clipPath>
    <clipPath
       id="clipPath5006"
       clipPathUnits="userSpaceOnUse">
      <path
         inkscape:connector-curvature="0"
         id="path5004"
         d="M 0,2119.953 H 3253.108 V 0 H 0 Z" />
    </clipPath>
    <clipPath
       id="clipPath5022"
       clipPathUnits="userSpaceOnUse">
      <path
         inkscape:connector-curvature="0"
         id="path5020"
         d="m 2290.745,1871.81 -0.01,-0.78 c 0.377,-0.22 0.986,-0.214 1.353,0 v 0 0.78 c -0.371,-0.212 -0.98,-0.212 -1.351,0" />
    </clipPath>
    <clipPath
       id="clipPath5034"
       clipPathUnits="userSpaceOnUse">
      <path
         inkscape:connector-curvature="0"
         id="path5032"
         d="M 0,2119.953 H 3253.108 V 0 H 0 Z" />
    </clipPath>
    <clipPath
       id="clipPath5050"
       clipPathUnits="userSpaceOnUse">
      <path
         inkscape:connector-curvature="0"
         id="path5048"
         d="m 2288.91,1873.212 1.359,-0.784 c -0.216,0.934 -0.691,1.61 -1.337,1.987 v 0 l -1.356,0.791 c 0.652,-0.377 1.121,-1.054 1.334,-1.994" />
    </clipPath>
    <clipPath
       id="clipPath4408"
       clipPathUnits="userSpaceOnUse">
      <path
         inkscape:connector-curvature="0"
         id="path4406"
         d="m 2301.08,1906.05 h 45.97 v -31.57 h -45.97 z" />
    </clipPath>
    <clipPath
       id="clipPath4392"
       clipPathUnits="userSpaceOnUse">
      <path
         inkscape:connector-curvature="0"
         id="path4390"
         d="m 2227.58,1871.71 h 52.38 v -32.03 h -52.38 z" />
    </clipPath>
    <clipPath
       id="clipPath5114"
       clipPathUnits="userSpaceOnUse">
      <path
         inkscape:connector-curvature="0"
         id="path5112"
         d="m 2417.33,1884.9 h 51.88 v -27.05 h -51.88 z" />
    </clipPath>
    <clipPath
       id="clipPath5554"
       clipPathUnits="userSpaceOnUse">
      <path
         inkscape:connector-curvature="0"
         id="path5552"
         d="m 2532.68,1877.97 h 61.16 v -27.88 h -61.16 z" />
    </clipPath>
    <clipPath
       id="clipPath5662"
       clipPathUnits="userSpaceOnUse">
      <path
         inkscape:connector-curvature="0"
         id="path5660"
         d="m 2652.02,1878.72 h 75.96 v -28.55 h -75.96 z" />
    </clipPath>
    <clipPath
       id="clipPath5782"
       clipPathUnits="userSpaceOnUse">
      <path
         inkscape:connector-curvature="0"
         id="path5780"
         d="m 2686.34,2040.48 h 6.76 v -5.02 h -6.76 z" />
    </clipPath>
    <clipPath
       id="clipPath5454"
       clipPathUnits="userSpaceOnUse">
      <path
         inkscape:connector-curvature="0"
         id="path5452"
         d="m 2763.78,1887.52 h 61.17 v -27.89 h -61.17 z" />
    </clipPath>
    <clipPath
       id="clipPath5226"
       clipPathUnits="userSpaceOnUse">
      <path
         inkscape:connector-curvature="0"
         id="path5224"
         d="m 2874.06,1879.83 h 115.04 v -37.41 h -115.04 z" />
    </clipPath>
    <clipPath
       id="clipPath5266"
       clipPathUnits="userSpaceOnUse">
      <path
         inkscape:connector-curvature="0"
         id="path5264"
         d="m 2898.47,1905.023 c -0.019,-0.014 -0.036,-0.025 -0.058,-0.038 v 0 c -0.579,-0.382 -0.588,-1.091 -0.535,-1.501 v 0 l 39.797,23.128 c -0.051,0.406 -0.042,1.119 0.537,1.502 v 0 c 0.018,0.012 0.037,0.024 0.058,0.036 v 0 c -13.266,-7.711 -26.531,-15.418 -39.799,-23.127" />
    </clipPath>
    <clipPath
       id="clipPath3000"
       clipPathUnits="userSpaceOnUse">
      <path
         inkscape:connector-curvature="0"
         id="path2998"
         d="m 3070.44,1903.77 h 111.77 v -40.19 h -111.77 z" />
    </clipPath>
    <clipPath
       id="clipPath6042"
       clipPathUnits="userSpaceOnUse">
      <path
         inkscape:connector-curvature="0"
         id="path6040"
         d="m 409.323,1548.74 h 49.951 v -25.11 h -49.951 z" />
    </clipPath>
    <clipPath
       id="clipPath5930"
       clipPathUnits="userSpaceOnUse">
      <path
         inkscape:connector-curvature="0"
         id="path5928"
         d="m 516.004,1548.66 h 54.751 v -25.03 h -54.751 z" />
    </clipPath>
    <clipPath
       id="clipPath6142"
       clipPathUnits="userSpaceOnUse">
      <path
         inkscape:connector-curvature="0"
         id="path6140"
         d="m 636.118,1542.78 h 45.362 v -19.15 h -45.362 z" />
    </clipPath>
    <clipPath
       id="clipPath6318"
       clipPathUnits="userSpaceOnUse">
      <path
         inkscape:connector-curvature="0"
         id="path6316"
         d="m 763.75,1602.23 h 22.211 v -7.49 H 763.75 Z" />
    </clipPath>
    <clipPath
       id="clipPath6242"
       clipPathUnits="userSpaceOnUse">
      <path
         inkscape:connector-curvature="0"
         id="path6240"
         d="m 749.178,1542.78 h 45.362 v -19.15 h -45.362 z" />
    </clipPath>
    <clipPath
       id="clipPath6358"
       clipPathUnits="userSpaceOnUse">
      <path
         inkscape:connector-curvature="0"
         id="path6356"
         d="m 859.142,1541.98 h 55.33 v -18.35 h -55.33 z" />
    </clipPath>
    <clipPath
       id="clipPath6562"
       clipPathUnits="userSpaceOnUse">
      <path
         inkscape:connector-curvature="0"
         id="path6560"
         d="m 972.921,1548.99 h 50.329 v -25.36 h -50.329 z" />
    </clipPath>
    <clipPath
       id="clipPath6898"
       clipPathUnits="userSpaceOnUse">
      <path
         inkscape:connector-curvature="0"
         id="path6896"
         d="m 1113.757,1660.871 0.977,-0.369 c -0.337,0.508 -0.215,1.396 0.271,1.968 v 0 l -0.978,0.368 c -0.484,-0.573 -0.605,-1.457 -0.27,-1.967" />
    </clipPath>
    <clipPath
       id="clipPath6882"
       clipPathUnits="userSpaceOnUse">
      <path
         inkscape:connector-curvature="0"
         id="path6880"
         d="M 0,2119.953 H 3253.108 V 0 H 0 Z" />
    </clipPath>
    <clipPath
       id="clipPath6870"
       clipPathUnits="userSpaceOnUse">
      <path
         inkscape:connector-curvature="0"
         id="path6868"
         d="m 1120.652,1670.681 0.975,-0.367 c 0.342,0.405 0.774,0.55 1.118,0.419 v 0 l -0.98,0.369 c -0.082,0.031 -0.168,0.047 -0.258,0.047 v 0 c -0.283,0 -0.596,-0.157 -0.855,-0.468" />
    </clipPath>
    <clipPath
       id="clipPath6858"
       clipPathUnits="userSpaceOnUse">
      <path
         inkscape:connector-curvature="0"
         id="path6856"
         d="m 1116.5,1656.939 0.98,-0.367 c -0.144,0.053 -0.271,0.155 -0.374,0.304 v 0 l -0.973,0.368 c 0.098,-0.15 0.226,-0.25 0.367,-0.305" />
    </clipPath>
    <clipPath
       id="clipPath6798"
       clipPathUnits="userSpaceOnUse">
      <path
         inkscape:connector-curvature="0"
         id="path6796"
         d="m 1085.74,1549.12 h 50.59 v -25.49 h -50.59 z" />
    </clipPath>
    <clipPath
       id="clipPath6450"
       clipPathUnits="userSpaceOnUse">
      <path
         inkscape:connector-curvature="0"
         id="path6448"
         d="m 1192.19,1544.97 h 58.91 v -21.34 h -58.91 z" />
    </clipPath>
    <clipPath
       id="clipPath7190"
       clipPathUnits="userSpaceOnUse">
      <path
         inkscape:connector-curvature="0"
         id="path7188"
         d="m 1415.1,1546.39 h 59.78 v -22.76 h -59.78 z" />
    </clipPath>
  </defs>
  <sodipodi:namedview
     id="base"
     pagecolor="#ffffff"
     bordercolor="#666666"
     borderopacity="1.0"
     inkscape:pageopacity="0.0"
     inkscape:pageshadow="2"
     inkscape:zoom="0.35"
     inkscape:cx="-611.19806"
     inkscape:cy="-136.98744"
     inkscape:document-units="mm"
     inkscape:current-layer="layer1"
     showgrid="false"
     fit-margin-top="0"
     fit-margin-left="0"
     fit-margin-right="0"
     fit-margin-bottom="0"
     inkscape:window-width="1366"
     inkscape:window-height="716"
     inkscape:window-x="-8"
     inkscape:window-y="-8"
     inkscape:window-maximized="1" />
  <metadata
     id="metadata45328">
    <rdf:RDF>
      <cc:Work
         rdf:about="">
        <dc:format>image/svg+xml</dc:format>
        <dc:type
           rdf:resource="http://purl.org/dc/dcmitype/StillImage" />
        <dc:title></dc:title>
      </cc:Work>
    </rdf:RDF>
  </metadata>
  <g
     inkscape:label="Layer 1"
     inkscape:groupmode="layer"
     id="layer1"
     transform="translate(-84.227696,-327.2989)">
    <g
       id="g7184"
       transform="matrix(0.35277777,0,0,-0.35277777,-414.98899,922.2344)">
      <g
         id="g7186" />
      <g
         id="g7198">
        <g
           clip-path="url(#clipPath7190)"
           id="g7196"
           style="opacity:0.28999299">
          <g
             transform="translate(1421.3306,1533.3418)"
             id="g7194">
            <path
               d="m 0,0 c 23.505,-4.657 -1.884,-9.712 27.573,-9.712 16.551,0 25.973,6.614 25.973,11.979 0,5.36 -10.229,10.112 -26.774,10.681 C -11.862,14.275 -10.23,2.026 0,0"
               style="fill:#231f20;fill-opacity:1;fill-rule:nonzero;stroke:none"
               id="path7192"
               inkscape:connector-curvature="0" />
          </g>
        </g>
      </g>
    </g>
    <g
       id="g7200"
       transform="matrix(0.35277777,0,0,-0.35277777,101.3612,338.62212)">
      <path
         d="m 0,0 c 0,0 13.166,-3.215 13.625,-3.368 0.462,-0.154 2.757,-0.307 3.982,-3.829 1.224,-3.52 3.032,-11.779 3.032,-11.779 0,0 0.38,-2.168 -0.456,-2.32 -1.507,-0.275 -9.16,3.994 -9.16,3.994 l -21.128,8.422 1.836,10.716 z"
         style="fill:#586813;fill-opacity:1;fill-rule:nonzero;stroke:none"
         id="path7202"
         inkscape:connector-curvature="0" />
    </g>
    <g
       id="g7204"
       transform="matrix(0.35277777,0,0,-0.35277777,105.52013,342.78123)">
      <path
         d="M 0,0 C 0,0 -0.46,5.664 1.685,6.277 3.75,6.868 4.746,4.287 5.512,1.99 6.276,-0.306 8.42,-9.493 8.42,-9.493 l -3.674,-0.612 z"
         style="fill:#454f0b;fill-opacity:1;fill-rule:nonzero;stroke:none"
         id="path7206"
         inkscape:connector-curvature="0" />
    </g>
    <g
       id="g7208"
       transform="matrix(0.35277777,0,0,-0.35277777,104.8723,342.67303)">
      <path
         d="m 0,0 5.969,1.377 c 0,0 5.053,-19.139 5.512,-20.669 0.46,-1.532 0.613,-5.665 -3.522,-8.574 -3.507,-2.468 -13.014,-2.603 -13.318,-2.143 -0.307,0.458 -3.675,28.937 -3.675,28.937 z"
         style="fill:#586813;fill-opacity:1;fill-rule:nonzero;stroke:none"
         id="path7210"
         inkscape:connector-curvature="0" />
    </g>
    <g
       id="g7212"
       transform="matrix(0.35277777,0,0,-0.35277777,91.206279,354.33985)">
      <path
         d="m 0,0 c 0,0 -2.296,-4.9 -2.296,-6.89 0,-1.99 1.482,-5.943 1.482,-5.943 0,0 0.899,-1.902 2.652,-1.866 1.989,0.041 2.292,1.866 2.292,1.866 0,0 -0.606,4.258 0.312,6.097 0.917,1.836 1.224,3.979 1.224,3.979 z"
         style="fill:#d8b39a;fill-opacity:1;fill-rule:nonzero;stroke:none"
         id="path7214"
         inkscape:connector-curvature="0" />
    </g>
    <g
       id="g7216"
       transform="matrix(0.35277777,0,0,-0.35277777,91.09825,354.98858)">
      <path
         d="m 0,0 c 0,0 -1.377,-2.143 -1.377,-3.826 0,-1.685 1.82,-6.104 1.82,-6.104 0,0 0.989,-0.684 1.397,0.439 0.48,1.325 -0.461,3.521 -0.461,3.521 0,0 0,0.154 1.224,1.531 1.227,1.377 0.766,3.98 0.766,3.98 z"
         style="fill:#f2d3bd;fill-opacity:1;fill-rule:nonzero;stroke:none"
         id="path7218"
         inkscape:connector-curvature="0" />
    </g>
    <g
       id="g7220"
       transform="matrix(0.35277777,0,0,-0.35277777,92.07099,355.74444)">
      <path
         d="m 0,0 c 1.256,-0.217 3.521,0.46 3.521,0.46 0,0 3.036,10.957 3.215,11.482 1.014,2.978 3.449,13.454 4.2,17.29 0.828,4.21 1.785,11.855 1.785,11.855 0,0 2.946,9.269 -1.392,11.124 C 8.849,53.27 2.908,50.372 2.295,41.187 2.115,38.485 0.459,22.813 0.459,22.813 L -3.378,2.451 c 0,0 0.924,-2.028 3.378,-2.451"
         style="fill:#c65a10;fill-opacity:1;fill-rule:nonzero;stroke:none"
         id="path7222"
         inkscape:connector-curvature="0" />
    </g>
    <g
       id="g7224"
       transform="matrix(0.35277777,0,0,-0.35277777,93.749639,375.55891)">
      <path
         d="m 0,0 -3.338,-1.514 c 0,0 -6.729,-2.412 -8.107,-3.195 -0.759,-0.44 -1.14,-1.361 -1.25,-1.973 -0.073,-0.388 -0.089,-1.479 0.137,-1.795 0.59,-0.813 1.868,-1.745 3.045,-1.961 2.264,-0.428 7.05,0.48 7.05,0.48 0.619,0.291 10.299,3.348 10.299,3.348 0,0 0.361,1.171 0.459,1.881 l 0.585,4.74 z"
         style="fill:#90af0e;fill-opacity:1;fill-rule:nonzero;stroke:none"
         id="path7226"
         inkscape:connector-curvature="0" />
    </g>
    <g
       id="g7228"
       transform="matrix(0.35277777,0,0,-0.35277777,93.518102,377.48091)">
      <path
         d="M 0,0 C 0.068,-0.093 0.196,-0.126 0.285,-0.065 0.363,-0.014 0.44,0.081 0.385,0.151 0.1,0.557 -0.991,2.021 -2.182,2.735 -3.215,3.356 -4.151,3.369 -4.576,3.334 -4.7,3.328 -4.805,3.23 -4.777,3.103 -4.753,3.002 -4.648,2.931 -4.536,2.938 -4.159,2.969 -3.318,2.952 -2.379,2.39 -1.345,1.772 -0.34,0.479 0,0"
         style="fill:#d5dfef;fill-opacity:1;fill-rule:nonzero;stroke:none"
         id="path7230"
         inkscape:connector-curvature="0" />
    </g>
    <g
       id="g7232"
       transform="matrix(0.35277777,0,0,-0.35277777,93.09469,377.60837)">
      <path
         d="M 0,0 C 0.066,-0.095 0.19,-0.136 0.292,-0.063 0.368,-0.009 0.434,0.07 0.381,0.153 0.092,0.554 -0.994,2.012 -2.175,2.727 -3.213,3.358 -4.149,3.371 -4.584,3.33 -4.7,3.319 -4.802,3.224 -4.773,3.104 -4.754,2.993 -4.648,2.927 -4.535,2.938 -4.171,2.967 -3.317,2.951 -2.385,2.387 -1.345,1.771 -0.342,0.469 0,0"
         style="fill:#d5dfef;fill-opacity:1;fill-rule:nonzero;stroke:none"
         id="path7234"
         inkscape:connector-curvature="0" />
    </g>
    <g
       id="g7236"
       transform="matrix(0.35277777,0,0,-0.35277777,92.692999,377.81767)">
      <path
         d="M 0,0 C 0.063,-0.096 0.192,-0.128 0.286,-0.066 0.362,-0.012 0.429,0.075 0.385,0.151 0.094,0.554 -0.997,2.019 -2.179,2.731 -3.214,3.354 -4.155,3.369 -4.584,3.336 -4.702,3.326 -4.803,3.234 -4.777,3.107 -4.753,3.002 -4.652,2.92 -4.541,2.928 -4.171,2.962 -3.315,2.95 -2.381,2.389 -1.348,1.764 -0.347,0.47 0,0"
         style="fill:#d5dfef;fill-opacity:1;fill-rule:nonzero;stroke:none"
         id="path7238"
         inkscape:connector-curvature="0" />
    </g>
    <g
       id="g7240"
       transform="matrix(0.35277777,0,0,-0.35277777,89.712124,377.2201)">
      <path
         d="m 0,0 c 0.201,0.105 0.154,0.101 0.537,0.273 0.539,-0.098 1.423,-0.33 2.719,-1.195 2.519,-1.704 2.919,-4.29 2.919,-4.29 0,0 -1.019,-0.5 -5.87,0.243 -0.057,0 -0.107,0.011 -0.157,0.016 -0.519,0.365 -0.971,0.784 -1.261,1.185 -0.226,0.316 -0.21,1.407 -0.137,1.795 C -1.14,-1.361 -0.759,-0.44 0,0"
         style="fill:#f5f5f5;fill-opacity:1;fill-rule:nonzero;stroke:none"
         id="path7242"
         inkscape:connector-curvature="0" />
    </g>
    <g
       id="g7244"
       transform="matrix(0.35277777,0,0,-0.35277777,89.257226,378.03213)">
      <path
         d="m 0,0 c 0,-0.114 0.429,-1.027 3.038,-1.961 3.855,-1.38 15.816,2.469 16.374,2.669 1.301,0.456 1.499,0.897 1.499,0.897 0,0 -0.273,-1.347 -0.319,-1.319 0,0 -0.255,-1.329 -1.01,-1.655 -0.605,-0.258 -5.319,-1.214 -6.537,-1.498 0,0 -6.988,-1.512 -10.283,-0.618 -1.141,0.308 -2.767,0.968 -2.767,2.268 C -0.005,-0.855 0,0.133 0,0"
         style="fill:#d5dfef;fill-opacity:1;fill-rule:nonzero;stroke:none"
         id="path7246"
         inkscape:connector-curvature="0" />
    </g>
    <g
       id="g7248"
       transform="matrix(0.35277777,0,0,-0.35277777,92.927632,355.25179)">
      <path
         d="m 0,0 0.734,-58.223 c -0.513,-1.521 2.815,-3.24 3.688,-3.404 4.07,-0.76 6.656,0.571 6.846,1.788 l 3.04,63.446 z"
         style="fill:#093c4c;fill-opacity:1;fill-rule:nonzero;stroke:none"
         id="path7250"
         inkscape:connector-curvature="0" />
    </g>
    <g
       id="g7252"
       transform="matrix(0.35277777,0,0,-0.35277777,99.966474,378.5427)">
      <path
         d="m 0,0 -5.836,-3.918 c 0,0 -2.69,-1.797 -3.959,-2.759 -0.698,-0.524 -0.973,-1.484 -1.005,-2.108 -0.021,-0.387 0.095,-1.478 0.362,-1.772 0.686,-0.723 2.099,-1.293 3.264,-1.563 3.443,-0.777 6.929,1.359 6.929,1.359 0.579,0.359 9.812,4.603 9.812,4.603 0,0 0.213,0.627 0.156,1.178 l 0.06,5.518 z"
         style="fill:#90af0e;fill-opacity:1;fill-rule:nonzero;stroke:none"
         id="path7254"
         inkscape:connector-curvature="0" />
    </g>
    <g
       id="g7256"
       transform="matrix(0.35277777,0,0,-0.35277777,96.481938,352.05385)">
      <path
         d="m 0,0 8.609,-72.936 c 0.097,-1.449 -1.624,-3.982 -1.312,-3.898 2.871,0.78 7.63,-2.965 10.173,-2.682 1.712,0.191 2.32,1.978 2.324,3.295 l -3.461,70.709 z"
         style="fill:#14546d;fill-opacity:1;fill-rule:nonzero;stroke:none"
         id="path7258"
         inkscape:connector-curvature="0" />
    </g>
    <g
       id="g7260"
       transform="matrix(0.35277777,0,0,-0.35277777,95.042578,337.78858)">
      <path
         d="m 0,0 c -2.521,-3.996 -5.782,-13.655 -5.821,-25.481 -0.022,-9.527 -0.314,-33.28 -0.314,-33.28 -0.082,-1.118 0.307,-2.312 4.031,-3.423 9.451,-2.819 20.039,0.612 23.654,2.016 0.786,0.304 0.951,1.254 1.065,1.75 l 3.157,46.929 c 0.289,2.596 -8.709,7.91 -8.709,7.91 L 6.383,1.349 C 6.383,1.349 1.718,2.722 0,0"
         style="fill:#dd6819;fill-opacity:1;fill-rule:nonzero;stroke:none"
         id="path7262"
         inkscape:connector-curvature="0" />
    </g>
    <g
       id="g7264"
       transform="matrix(0.35277777,0,0,-0.35277777,96.946335,337.53606)">
      <path
         d="m 0,0 1.005,6.61 10.854,0.907 c 0,0 -1.264,-4.743 -1.234,-6.922 0.022,-1.306 0.104,-3.981 1.042,-4.889 C 11.729,-4.438 9.911,-4.763 7.309,-5.988 3.833,-7.624 -1.267,-9.47 -2.791,-6.881 -3.805,-5.14 -2.477,-2.399 0,0"
         style="fill:#d8b39a;fill-opacity:1;fill-rule:nonzero;stroke:none"
         id="path7266"
         inkscape:connector-curvature="0" />
    </g>
    <g
       id="g7268"
       transform="matrix(0.35277777,0,0,-0.35277777,97.977787,333.01592)">
      <path
         d="m 0,0 c -2.062,-0.536 -1.78,-2.565 -1.78,-2.565 l 1.078,-4.151 c 0,0 0.328,-0.871 1.145,-0.835 1.236,0.07 1.482,1.22 1.716,2.487 0.011,0.068 0.246,1.913 0.267,2.018 C 2.633,-1.48 1.946,0.507 0,0"
         style="fill:#ffe8d9;fill-opacity:1;fill-rule:nonzero;stroke:none"
         id="path7270"
         inkscape:connector-curvature="0" />
    </g>
    <g
       id="g7272"
       transform="matrix(0.35277777,0,0,-0.35277777,98.613924,329.97321)">
      <path
         d="m 0,0 v -0.002 l 7.701,-1.7 -2.871,-13.942 c -0.308,-0.929 -0.458,-1.809 -0.787,-2.578 -0.368,-0.846 -0.942,-1.583 -2.2,-2.167 0,0 -1.623,-0.778 -3.576,-1.183 -1.085,-0.222 -2.268,-0.813 -4.746,-0.166 -2.401,0.625 -2.794,2.936 -2.85,4.302 -0.107,2.665 0.225,16.089 0.225,16.089 l 1.468,4.429 z"
         style="fill:#e8c5ac;fill-opacity:1;fill-rule:nonzero;stroke:none"
         id="path7274"
         inkscape:connector-curvature="0" />
    </g>
    <g
       id="g7276"
       transform="matrix(0.35277777,0,0,-0.35277777,96.495511,328.28855)">
      <path
         d="m 0,0 c -1.753,-0.964 -3.75,-2.655 -3.712,-4.082 0.028,-1.295 0.407,-6.225 0.498,-6.238 0,0 -0.017,4.993 2.564,4.811 2.858,-0.206 3.817,-3.958 4.003,-3.942 0,0 0.73,2.348 0.644,2.48 C 3.916,-6.855 5.21,-9.8 5.21,-9.8 c 0.101,-0.106 0.85,0.918 1.075,0.816 2.298,-1.091 3.375,-1.426 3.476,-4.387 0,0 -0.091,-3.432 0.612,-3.571 0.669,-0.131 0.669,0.195 1.007,0.832 0,0 0.699,2.456 2.567,1.107 1.241,-0.9 0.248,-4 -1.023,-3.879 l -0.512,-2.766 c 0.161,-0.081 0.505,0.3 1.369,1.294 1.75,2.01 2.513,3.561 3.08,4.373 2.868,4.117 2.774,8.839 0.577,12.301 -0.677,1.077 -3.903,4.118 -3.781,4.688 C 13.674,1.081 12.803,0.719 11.849,0.955 8.802,1.688 10.442,2.753 10.442,2.753 9.693,3.063 7.352,1.898 7.181,1.808 5.887,1.165 6.138,2.592 6.138,2.592 5.001,2.322 0,0 0,0"
         style="fill:#281504;fill-opacity:1;fill-rule:nonzero;stroke:none"
         id="path7278"
         inkscape:connector-curvature="0" />
    </g>
    <g
       id="g7280"
       transform="matrix(0.35277777,0,0,-0.35277777,101.35948,333.22505)">
      <path
         d="M 0,0 C -1.997,0.421 -2.752,-2.038 -2.752,-2.038 L -3.49,-5.465 c 0,0 -0.089,-0.882 0.637,-1.2 1.079,-0.476 1.785,0.409 2.527,1.388 0.044,0.064 1.034,1.536 1.097,1.621 C 1.618,-2.415 1.893,-0.419 0,0"
         style="fill:#e8c5ac;fill-opacity:1;fill-rule:nonzero;stroke:none"
         id="path7282"
         inkscape:connector-curvature="0" />
    </g>
    <g
       id="g7284"
       transform="matrix(0.35277777,0,0,-0.35277777,100.24103,380.58874)">
      <path
         d="M 0,0 C 0.083,-0.087 0.22,-0.115 0.308,-0.041 0.381,0.006 0.453,0.114 0.4,0.183 0.071,0.596 -1.16,2.063 -2.455,2.731 -3.581,3.327 -4.571,3.291 -5.015,3.219 -5.138,3.202 -5.241,3.092 -5.208,2.97 -5.175,2.86 -5.063,2.788 -4.941,2.805 -4.556,2.865 -3.669,2.895 -2.657,2.363 -1.516,1.781 -0.395,0.482 0,0"
         style="fill:#d5dfef;fill-opacity:1;fill-rule:nonzero;stroke:none"
         id="path7286"
         inkscape:connector-curvature="0" />
    </g>
    <g
       id="g7288"
       transform="matrix(0.35277777,0,0,-0.35277777,99.763909,380.86677)">
      <path
         d="M 0,0 C 0.081,-0.104 0.216,-0.129 0.315,-0.055 0.383,0.003 0.452,0.109 0.391,0.176 0.057,0.584 -1.197,2.027 -2.493,2.686 -3.625,3.268 -4.615,3.208 -5.055,3.14 -5.183,3.109 -5.284,3.012 -5.25,2.882 -5.217,2.771 -5.096,2.707 -4.983,2.722 -4.596,2.78 -3.697,2.833 -2.674,2.314 -1.54,1.738 -0.391,0.464 0,0"
         style="fill:#d5dfef;fill-opacity:1;fill-rule:nonzero;stroke:none"
         id="path7290"
         inkscape:connector-curvature="0" />
    </g>
    <g
       id="g7292"
       transform="matrix(0.35277777,0,0,-0.35277777,99.36169,381.11392)">
      <path
         d="M 0,0 C 0.086,-0.081 0.225,-0.109 0.31,-0.026 0.381,0.035 0.447,0.135 0.381,0.207 0.027,0.597 -1.301,1.971 -2.632,2.565 -3.8,3.08 -4.773,2.968 -5.214,2.879 -5.337,2.856 -5.434,2.734 -5.394,2.609 -5.351,2.502 -5.235,2.444 -5.12,2.48 -4.733,2.555 -3.835,2.646 -2.797,2.183 -1.627,1.664 -0.417,0.454 0,0"
         style="fill:#d5dfef;fill-opacity:1;fill-rule:nonzero;stroke:none"
         id="path7294"
         inkscape:connector-curvature="0" />
    </g>
    <g
       id="g7296"
       transform="matrix(0.35277777,0,0,-0.35277777,96.510857,380.89809)">
      <path
         d="m 0,0 c 0.198,0.155 0.441,0.328 0.7,0.515 0.45,0.07 1.397,0 3.23,-0.928 2.704,-1.38 3.96,-3.796 3.96,-3.796 0,0 -1.811,-0.841 -6.716,-0.704 -0.078,0.001 -0.136,0.013 -0.217,0.016 -0.643,0.282 -1.231,0.625 -1.6,1.017 -0.266,0.294 -0.382,1.384 -0.362,1.772 C -0.972,-1.484 -0.698,-0.524 0,0"
         style="fill:#f5f5f5;fill-opacity:1;fill-rule:nonzero;stroke:none"
         id="path7298"
         inkscape:connector-curvature="0" />
    </g>
    <g
       id="g7300"
       transform="matrix(0.35277777,0,0,-0.35277777,96.145362,381.61363)">
      <path
         d="m 0,0 c 0.189,-0.922 2.611,-1.968 3.763,-2.268 5.736,-1.498 14.933,4.466 15.422,4.795 1.16,0.78 1.401,1.256 1.401,1.256 0,0 -0.165,-2.263 -0.146,-1.96 0,0 -0.095,-0.733 -0.798,-1.148 -0.576,-0.345 -6.253,-3.054 -7.431,-3.467 0,0 -5.004,-2.193 -8.785,-1.048 C 2.282,-3.491 0.739,-3.039 0.057,-1.933 -0.151,-1.588 -0.014,0.129 0,0"
         style="fill:#d5dfef;fill-opacity:1;fill-rule:nonzero;stroke:none"
         id="path7302"
         inkscape:connector-curvature="0" />
    </g>
    <g
       id="g7304"
       transform="matrix(0.35277777,0,0,-0.35277777,101.81837,339.54026)">
      <path
         d="m 0,0 c 0,0 -9.665,-3.523 -10.347,-11.79 -0.682,-8.269 2.908,-14.557 6.131,-18.577 2.128,-2.655 9.026,-7.655 9.026,-7.655 l 0.158,5.029 c 0,0 -5.586,3.719 -8.077,7.116 -2.469,3.368 -4.658,10.202 -3.746,14.189 1.703,7.451 9.154,8.984 10.175,9.085 C 4.342,-2.502 2.043,-0.307 0,0"
         style="fill:#738c25;fill-opacity:1;fill-rule:nonzero;stroke:none"
         id="path7306"
         inkscape:connector-curvature="0" />
    </g>
    <g
       id="g7308"
       transform="matrix(0.35277777,0,0,-0.35277777,98.984606,345.91418)">
      <path
         d="m 0,0 c 0.306,-1.071 7.042,-14.085 15.157,-15.617 1.534,-0.289 6.125,-0.459 5.667,4.287 -0.331,3.395 -3.369,18.373 -3.369,18.373 0,0 -2.028,7.431 -6.279,7.502 C 7.484,14.604 5.818,10.258 6.737,5.207 7.39,1.615 8.579,-0.83 8.114,-0.458 1.99,4.441 0.306,5.666 0.306,5.666 0.306,5.666 -0.157,0.548 0,0"
         style="fill:#ef7929;fill-opacity:1;fill-rule:nonzero;stroke:none"
         id="path7310"
         inkscape:connector-curvature="0" />
    </g>
    <g
       id="g7312"
       transform="matrix(0.35277777,0,0,-0.35277777,100.8205,345.24944)">
      <path
         d="M 0,0 C -0.634,2.316 -1.595,5.6 -2.891,8.062 -3.327,8.89 -6.904,8.977 -7.758,8.595 -8.31,8.35 -9.089,7.947 -9.28,5.59 -9.432,3.721 -9.465,2.43 -9.465,2.43 c 0,0 -0.366,-1.323 0.993,-2.171 1.359,-0.849 2.247,-0.818 2.247,-0.818 0,0 1.274,-2.306 2.041,-2.959 0.41,-0.348 1.514,-0.509 1.514,-0.509 0,0 3.773,-0.004 2.67,4.027"
         style="fill:#f2d3bd;fill-opacity:1;fill-rule:nonzero;stroke:none"
         id="path7314"
         inkscape:connector-curvature="0" />
    </g>
  </g>
</svg>
