<?xml version="1.0" encoding="UTF-8" standalone="no"?>
<!-- Created with Inkscape (http://www.inkscape.org/) -->

<svg
   xmlns:dc="http://purl.org/dc/elements/1.1/"
   xmlns:cc="http://creativecommons.org/ns#"
   xmlns:rdf="http://www.w3.org/1999/02/22-rdf-syntax-ns#"
   xmlns:svg="http://www.w3.org/2000/svg"
   xmlns="http://www.w3.org/2000/svg"
   xmlns:sodipodi="http://sodipodi.sourceforge.net/DTD/sodipodi-0.dtd"
   xmlns:inkscape="http://www.inkscape.org/namespaces/inkscape"
   width="20.979578mm"
   height="56.09285mm"
   viewBox="0 0 20.979577 56.092849"
   version="1.1"
   id="svg45331"
   inkscape:version="0.92.3 (2405546, 2018-03-11)"
   sodipodi:docname="people-casual-2.svg">
  <defs
     id="defs45325">
    <clipPath
       id="clipPath2864"
       clipPathUnits="userSpaceOnUse">
      <path
         inkscape:connector-curvature="0"
         id="path2862"
         d="m 1713.778,1928.833 c -0.536,-0.312 -0.927,-0.874 -1.106,-1.65 v 0 l 1.125,0.653 c 0.179,0.778 0.57,1.34 1.107,1.651 v 0 z" />
    </clipPath>
    <clipPath
       id="clipPath2848"
       clipPathUnits="userSpaceOnUse">
      <path
         inkscape:connector-curvature="0"
         id="path2846"
         d="M 0,2119.953 H 3253.108 V 0 H 0 Z" />
    </clipPath>
    <clipPath
       id="clipPath2836"
       clipPathUnits="userSpaceOnUse">
      <path
         inkscape:connector-curvature="0"
         id="path2834"
         d="m 1711.152,1926.674 v -0.651 c 0.308,-0.179 0.813,-0.18 1.126,0 v 0 0.651 c -0.315,-0.183 -0.82,-0.178 -1.129,0" />
    </clipPath>
    <clipPath
       id="clipPath2820"
       clipPathUnits="userSpaceOnUse">
      <path
         inkscape:connector-curvature="0"
         id="path2818"
         d="M 0,2119.953 H 3253.108 V 0 H 0 Z" />
    </clipPath>
    <clipPath
       id="clipPath2808"
       clipPathUnits="userSpaceOnUse">
      <path
         inkscape:connector-curvature="0"
         id="path2806"
         d="m 1710.148,1926.8 c 0,-0.121 0.077,-0.238 0.231,-0.325 v 0 0.65 c -0.156,0.087 -0.233,0.207 -0.233,0.324 v 0 -0.649 z" />
    </clipPath>
    <clipPath
       id="clipPath2796"
       clipPathUnits="userSpaceOnUse">
      <path
         inkscape:connector-curvature="0"
         id="path2794"
         d="m 1714.756,1928.103 v -0.65 c 0.158,0.09 0.237,0.211 0.237,0.331 v 0 0.65 c 0,-0.119 -0.078,-0.24 -0.236,-0.331" />
    </clipPath>
    <clipPath
       id="clipPath2784"
       clipPathUnits="userSpaceOnUse">
      <path
         inkscape:connector-curvature="0"
         id="path2782"
         d="M 0,2119.953 H 3253.108 V 0 H 0 Z" />
    </clipPath>
    <clipPath
       id="clipPath2772"
       clipPathUnits="userSpaceOnUse">
      <path
         inkscape:connector-curvature="0"
         id="path2770"
         d="m 1720.53,1921.188 10e-4,-0.65 c 0.309,-0.181 0.814,-0.181 1.128,0 v 0 0.65 c -0.316,-0.182 -0.821,-0.181 -1.129,0" />
    </clipPath>
    <clipPath
       id="clipPath2756"
       clipPathUnits="userSpaceOnUse">
      <path
         inkscape:connector-curvature="0"
         id="path2754"
         d="M 0,2119.953 H 3253.108 V 0 H 0 Z" />
    </clipPath>
    <clipPath
       id="clipPath2744"
       clipPathUnits="userSpaceOnUse">
      <path
         inkscape:connector-curvature="0"
         id="path2742"
         d="m 1719.524,1921.312 c 0,-0.119 0.08,-0.235 0.234,-0.324 v 0 0.65 c -0.154,0.089 -0.233,0.207 -0.233,0.324 v 0 -0.65 z" />
    </clipPath>
    <clipPath
       id="clipPath2732"
       clipPathUnits="userSpaceOnUse">
      <path
         inkscape:connector-curvature="0"
         id="path2730"
         d="m 1724.133,1922.619 v -0.654 c 0.158,0.094 0.238,0.212 0.238,0.331 v 0 0.65 c 0,-0.117 -0.08,-0.238 -0.238,-0.327" />
    </clipPath>
    <clipPath
       id="clipPath2536"
       clipPathUnits="userSpaceOnUse">
      <path
         inkscape:connector-curvature="0"
         id="path2534"
         d="m 1708.77,1889.11 h 53.56 v -38.31 h -53.56 z" />
    </clipPath>
    <clipPath
       id="clipPath3428"
       clipPathUnits="userSpaceOnUse">
      <path
         inkscape:connector-curvature="0"
         id="path3426"
         d="m 1819.231,1919.634 0.051,-0.722 c 0.167,0.114 0.248,0.253 0.238,0.383 v 0 l -0.048,0.721 c 0.01,-0.131 -0.071,-0.272 -0.241,-0.382" />
    </clipPath>
    <clipPath
       id="clipPath3440"
       clipPathUnits="userSpaceOnUse">
      <path
         inkscape:connector-curvature="0"
         id="path3438"
         d="m 1814.225,1917.859 c 0.01,-0.132 0.103,-0.255 0.282,-0.343 v 0 l -0.049,0.721 c -0.177,0.085 -0.273,0.212 -0.281,0.34 v 0 z" />
    </clipPath>
    <clipPath
       id="clipPath3452"
       clipPathUnits="userSpaceOnUse">
      <path
         inkscape:connector-curvature="0"
         id="path3450"
         d="M 0,2119.953 H 3253.108 V 0 H 0 Z" />
    </clipPath>
    <clipPath
       id="clipPath3468"
       clipPathUnits="userSpaceOnUse">
      <path
         inkscape:connector-curvature="0"
         id="path3466"
         d="m 1815.349,1917.792 0.046,-0.72 c 0.354,-0.177 0.915,-0.14 1.248,0.082 v 0 l -0.048,0.721 c -0.335,-0.223 -0.893,-0.259 -1.246,-0.083" />
    </clipPath>
    <clipPath
       id="clipPath3480"
       clipPathUnits="userSpaceOnUse">
      <path
         inkscape:connector-curvature="0"
         id="path3478"
         d="M 0,2119.953 H 3253.108 V 0 H 0 Z" />
    </clipPath>
    <clipPath
       id="clipPath3492"
       clipPathUnits="userSpaceOnUse">
      <path
         inkscape:connector-curvature="0"
         id="path3490"
         d="m 1808.461,1925.033 0.049,-0.719 c 0.167,0.112 0.245,0.25 0.238,0.383 v 0 l -0.049,0.719 c 0.01,-0.131 -0.07,-0.268 -0.238,-0.383" />
    </clipPath>
    <clipPath
       id="clipPath3504"
       clipPathUnits="userSpaceOnUse">
      <path
         inkscape:connector-curvature="0"
         id="path3502"
         d="m 1803.454,1923.259 c 0.01,-0.132 0.102,-0.258 0.279,-0.342 v 0 l -0.048,0.72 c -0.177,0.086 -0.273,0.214 -0.28,0.342 v 0 z" />
    </clipPath>
    <clipPath
       id="clipPath3516"
       clipPathUnits="userSpaceOnUse">
      <path
         inkscape:connector-curvature="0"
         id="path3514"
         d="M 0,2119.953 H 3253.108 V 0 H 0 Z" />
    </clipPath>
    <clipPath
       id="clipPath3532"
       clipPathUnits="userSpaceOnUse">
      <path
         inkscape:connector-curvature="0"
         id="path3530"
         d="m 1804.576,1923.193 0.047,-0.721 c 0.353,-0.175 0.915,-0.14 1.248,0.081 v 0 l -0.049,0.722 c -0.333,-0.223 -0.894,-0.258 -1.246,-0.082" />
    </clipPath>
    <clipPath
       id="clipPath3544"
       clipPathUnits="userSpaceOnUse">
      <path
         inkscape:connector-curvature="0"
         id="path3542"
         d="M 0,2119.953 H 3253.108 V 0 H 0 Z" />
    </clipPath>
    <clipPath
       id="clipPath3560"
       clipPathUnits="userSpaceOnUse">
      <path
         inkscape:connector-curvature="0"
         id="path3558"
         d="m 1807.327,1925.772 c -0.572,-0.383 -0.964,-1.034 -1.106,-1.907 v 0 l 1.197,0.803 c 0.144,0.873 0.537,1.525 1.109,1.907 v 0 z" />
    </clipPath>
    <clipPath
       id="clipPath3240"
       clipPathUnits="userSpaceOnUse">
      <path
         inkscape:connector-curvature="0"
         id="path3238"
         d="m 1804.45,1875.26 h 66.26 v -26.97 h -66.26 z" />
    </clipPath>
    <clipPath
       id="clipPath3596"
       clipPathUnits="userSpaceOnUse">
      <path
         inkscape:connector-curvature="0"
         id="path3594"
         d="m 1887.55,1874.88 h 68.5 v -28.2 h -68.5 z" />
    </clipPath>
    <clipPath
       id="clipPath3760"
       clipPathUnits="userSpaceOnUse">
      <path
         inkscape:connector-curvature="0"
         id="path3758"
         d="m 1940.709,1921.043 c -0.01,-0.134 0.073,-0.277 0.243,-0.394 v 0 l 0.052,0.743 c -0.176,0.111 -0.256,0.256 -0.246,0.388 v 0 z" />
    </clipPath>
    <clipPath
       id="clipPath3772"
       clipPathUnits="userSpaceOnUse">
      <path
         inkscape:connector-curvature="0"
         id="path3770"
         d="m 1945.896,1919.955 -0.048,-0.737 c 0.182,0.088 0.281,0.215 0.289,0.351 v 0 l 0.048,0.737 c -0.01,-0.134 -0.106,-0.261 -0.289,-0.351" />
    </clipPath>
    <clipPath
       id="clipPath3784"
       clipPathUnits="userSpaceOnUse">
      <path
         inkscape:connector-curvature="0"
         id="path3782"
         d="M 0,2119.953 H 3253.108 V 0 H 0 Z" />
    </clipPath>
    <clipPath
       id="clipPath3800"
       clipPathUnits="userSpaceOnUse">
      <path
         inkscape:connector-curvature="0"
         id="path3798"
         d="m 1943.658,1918.845 c 0.343,-0.226 0.914,-0.264 1.28,-0.084 v 0 l 0.047,0.741 c -0.361,-0.182 -0.936,-0.146 -1.28,0.084 v 0 z" />
    </clipPath>
    <clipPath
       id="clipPath3812"
       clipPathUnits="userSpaceOnUse">
      <path
         inkscape:connector-curvature="0"
         id="path3810"
         d="M 0,2119.953 H 3253.108 V 0 H 0 Z" />
    </clipPath>
    <clipPath
       id="clipPath3824"
       clipPathUnits="userSpaceOnUse">
      <path
         inkscape:connector-curvature="0"
         id="path3822"
         d="m 1951.754,1926.58 c -0.01,-0.136 0.071,-0.278 0.241,-0.392 v 0 l 0.052,0.737 c -0.174,0.117 -0.253,0.258 -0.245,0.391 v 0 z" />
    </clipPath>
    <clipPath
       id="clipPath3836"
       clipPathUnits="userSpaceOnUse">
      <path
         inkscape:connector-curvature="0"
         id="path3834"
         d="m 1956.943,1925.491 -0.049,-0.737 c 0.18,0.088 0.277,0.215 0.287,0.352 v 0 l 0.049,0.737 c -0.01,-0.132 -0.104,-0.262 -0.287,-0.352" />
    </clipPath>
    <clipPath
       id="clipPath3848"
       clipPathUnits="userSpaceOnUse">
      <path
         inkscape:connector-curvature="0"
         id="path3846"
         d="M 0,2119.953 H 3253.108 V 0 H 0 Z" />
    </clipPath>
    <clipPath
       id="clipPath3864"
       clipPathUnits="userSpaceOnUse">
      <path
         inkscape:connector-curvature="0"
         id="path3862"
         d="m 1954.703,1924.383 c 0.34,-0.229 0.916,-0.262 1.279,-0.086 v 0 l 0.049,0.743 c -0.361,-0.183 -0.938,-0.15 -1.279,0.081 v 0 z" />
    </clipPath>
    <clipPath
       id="clipPath3876"
       clipPathUnits="userSpaceOnUse">
      <path
         inkscape:connector-curvature="0"
         id="path3874"
         d="M 0,2119.953 H 3253.108 V 0 H 0 Z" />
    </clipPath>
    <clipPath
       id="clipPath3892"
       clipPathUnits="userSpaceOnUse">
      <path
         inkscape:connector-curvature="0"
         id="path3890"
         d="m 1953.117,1926.55 1.227,-0.822 c -0.145,0.891 -0.551,1.561 -1.133,1.955 v 0 l -1.232,0.823 c 0.588,-0.393 0.989,-1.061 1.138,-1.956" />
    </clipPath>
    <clipPath
       id="clipPath3948"
       clipPathUnits="userSpaceOnUse">
      <path
         inkscape:connector-curvature="0"
         id="path3946"
         d="m 2018.76,1870.93 h 70.11 v -23.75 h -70.11 z" />
    </clipPath>
    <clipPath
       id="clipPath4212"
       clipPathUnits="userSpaceOnUse">
      <path
         inkscape:connector-curvature="0"
         id="path4210"
         d="m 2154.433,1916.311 c 0,-0.141 0.087,-0.289 0.273,-0.405 v 0 l 0.028,0.784 c -0.187,0.117 -0.276,0.264 -0.271,0.407 v 0 z" />
    </clipPath>
    <clipPath
       id="clipPath4224"
       clipPathUnits="userSpaceOnUse">
      <path
         inkscape:connector-curvature="0"
         id="path4222"
         d="m 2159.973,1915.328 -0.03,-0.782 c 0.192,0.1 0.289,0.239 0.295,0.381 v 0 l 0.027,0.785 c 0,-0.142 -0.103,-0.28 -0.292,-0.384" />
    </clipPath>
    <clipPath
       id="clipPath4236"
       clipPathUnits="userSpaceOnUse">
      <path
         inkscape:connector-curvature="0"
         id="path4234"
         d="M 0,2119.953 H 3253.108 V 0 H 0 Z" />
    </clipPath>
    <clipPath
       id="clipPath4252"
       clipPathUnits="userSpaceOnUse">
      <path
         inkscape:connector-curvature="0"
         id="path4250"
         d="m 2157.634,1914.081 c 0.368,-0.23 0.978,-0.251 1.357,-0.046 v 0 l 0.029,0.783 c -0.377,-0.203 -0.988,-0.185 -1.36,0.049 v 0 z" />
    </clipPath>
    <clipPath
       id="clipPath4264"
       clipPathUnits="userSpaceOnUse">
      <path
         inkscape:connector-curvature="0"
         id="path4262"
         d="M 0,2119.953 H 3253.108 V 0 H 0 Z" />
    </clipPath>
    <clipPath
       id="clipPath4276"
       clipPathUnits="userSpaceOnUse">
      <path
         inkscape:connector-curvature="0"
         id="path4274"
         d="m 2165.961,1922.544 c 0,-0.146 0.086,-0.293 0.271,-0.409 v 0 l 0.032,0.784 c -0.188,0.117 -0.279,0.265 -0.274,0.408 v 0 z" />
    </clipPath>
    <clipPath
       id="clipPath4288"
       clipPathUnits="userSpaceOnUse">
      <path
         inkscape:connector-curvature="0"
         id="path4286"
         d="m 2171.5,1921.561 -0.028,-0.785 c 0.189,0.101 0.287,0.239 0.293,0.379 v 0 l 0.028,0.787 c 0,-0.142 -0.102,-0.281 -0.293,-0.381" />
    </clipPath>
    <clipPath
       id="clipPath4300"
       clipPathUnits="userSpaceOnUse">
      <path
         inkscape:connector-curvature="0"
         id="path4298"
         d="M 0,2119.953 H 3253.108 V 0 H 0 Z" />
    </clipPath>
    <clipPath
       id="clipPath4316"
       clipPathUnits="userSpaceOnUse">
      <path
         inkscape:connector-curvature="0"
         id="path4314"
         d="m 2169.16,1920.31 c 0.37,-0.229 0.979,-0.249 1.359,-0.045 v 0 l 0.03,0.784 c -0.379,-0.201 -0.99,-0.186 -1.36,0.046 v 0 z" />
    </clipPath>
    <clipPath
       id="clipPath4328"
       clipPathUnits="userSpaceOnUse">
      <path
         inkscape:connector-curvature="0"
         id="path4326"
         d="M 0,2119.953 H 3253.108 V 0 H 0 Z" />
    </clipPath>
    <clipPath
       id="clipPath4344"
       clipPathUnits="userSpaceOnUse">
      <path
         inkscape:connector-curvature="0"
         id="path4342"
         d="m 2167.406,1922.556 1.331,-0.832 c -0.186,0.942 -0.633,1.637 -1.266,2.036 v 0 l -1.332,0.833 c 0.636,-0.396 1.084,-1.091 1.267,-2.037" />
    </clipPath>
    <clipPath
       id="clipPath4598"
       clipPathUnits="userSpaceOnUse">
      <path
         inkscape:connector-curvature="0"
         id="path4596"
         d="m 2331.633,1939.514 c 0,-0.142 0.1,-0.287 0.296,-0.396 v 0 0.783 c -0.196,0.107 -0.292,0.246 -0.292,0.387 v 0 -0.774 z" />
    </clipPath>
    <clipPath
       id="clipPath4610"
       clipPathUnits="userSpaceOnUse">
      <path
         inkscape:connector-curvature="0"
         id="path4608"
         d="m 2337.17,1938.719 v -0.771 c 0.189,0.099 0.285,0.249 0.285,0.379 v 0 0.787 c 0,-0.14 -0.091,-0.287 -0.283,-0.395" />
    </clipPath>
    <clipPath
       id="clipPath4622"
       clipPathUnits="userSpaceOnUse">
      <path
         inkscape:connector-curvature="0"
         id="path4620"
         d="M 0,2119.953 H 3253.108 V 0 H 0 Z" />
    </clipPath>
    <clipPath
       id="clipPath4638"
       clipPathUnits="userSpaceOnUse">
      <path
         inkscape:connector-curvature="0"
         id="path4636"
         d="m 2334.888,1938.187 v -0.785 c 0.382,-0.217 0.981,-0.217 1.349,0 v 0 0.785 c -0.368,-0.217 -0.963,-0.217 -1.349,0" />
    </clipPath>
    <clipPath
       id="clipPath4650"
       clipPathUnits="userSpaceOnUse">
      <path
         inkscape:connector-curvature="0"
         id="path4648"
         d="M 0,2119.953 H 3253.108 V 0 H 0 Z" />
    </clipPath>
    <clipPath
       id="clipPath4662"
       clipPathUnits="userSpaceOnUse">
      <path
         inkscape:connector-curvature="0"
         id="path4660"
         d="m 2342.868,1946.09 c 0,-0.141 0.101,-0.294 0.291,-0.401 v 0 l 0.01,0.777 c -0.195,0.113 -0.291,0.255 -0.291,0.401 v 0 z" />
    </clipPath>
    <clipPath
       id="clipPath4674"
       clipPathUnits="userSpaceOnUse">
      <path
         inkscape:connector-curvature="0"
         id="path4672"
         d="m 2348.401,1945.298 v -0.782 c 0.182,0.104 0.277,0.25 0.277,0.39 v 0 l 0.01,0.781 c 0,-0.143 -0.095,-0.282 -0.282,-0.389" />
    </clipPath>
    <clipPath
       id="clipPath4686"
       clipPathUnits="userSpaceOnUse">
      <path
         inkscape:connector-curvature="0"
         id="path4684"
         d="M 0,2119.953 H 3253.108 V 0 H 0 Z" />
    </clipPath>
    <clipPath
       id="clipPath4702"
       clipPathUnits="userSpaceOnUse">
      <path
         inkscape:connector-curvature="0"
         id="path4700"
         d="m 2346.127,1944.756 v -0.778 c 0.376,-0.212 0.982,-0.212 1.348,0 v 0 0.778 c -0.366,-0.213 -0.972,-0.213 -1.348,0" />
    </clipPath>
    <clipPath
       id="clipPath4714"
       clipPathUnits="userSpaceOnUse">
      <path
         inkscape:connector-curvature="0"
         id="path4712"
         d="M 0,2119.953 H 3253.108 V 0 H 0 Z" />
    </clipPath>
    <clipPath
       id="clipPath4730"
       clipPathUnits="userSpaceOnUse">
      <path
         inkscape:connector-curvature="0"
         id="path4728"
         d="m 2343.05,1948.089 c -0.023,0.013 -0.045,0.026 -0.068,0.038 v 0 z m 1.257,-1.939 1.349,-0.782 c -0.21,0.926 -0.683,1.603 -1.326,1.976 v 0 l -1.28,0.745 c 0.612,-0.371 1.048,-1.041 1.257,-1.939" />
    </clipPath>
    <clipPath
       id="clipPath4742"
       clipPathUnits="userSpaceOnUse">
      <path
         inkscape:connector-curvature="0"
         id="path4740"
         d="M 0,2119.953 H 3253.108 V 0 H 0 Z" />
    </clipPath>
    <clipPath
       id="clipPath4918"
       clipPathUnits="userSpaceOnUse">
      <path
         inkscape:connector-curvature="0"
         id="path4916"
         d="m 2276.169,1866.541 c 0,-0.151 0.1,-0.291 0.285,-0.401 v 0 0.785 c -0.19,0.105 -0.286,0.259 -0.286,0.394 v 0 -0.778 z" />
    </clipPath>
    <clipPath
       id="clipPath4930"
       clipPathUnits="userSpaceOnUse">
      <path
         inkscape:connector-curvature="0"
         id="path4928"
         d="m 2281.734,1865.741 -0.01,-0.776 c 0.185,0.103 0.278,0.244 0.278,0.385 v 0 0.786 c 0,-0.141 -0.096,-0.281 -0.276,-0.395" />
    </clipPath>
    <clipPath
       id="clipPath4942"
       clipPathUnits="userSpaceOnUse">
      <path
         inkscape:connector-curvature="0"
         id="path4940"
         d="M 0,2119.953 H 3253.108 V 0 H 0 Z" />
    </clipPath>
    <clipPath
       id="clipPath4958"
       clipPathUnits="userSpaceOnUse">
      <path
         inkscape:connector-curvature="0"
         id="path4956"
         d="m 2279.442,1865.203 v -0.782 c 0.372,-0.219 0.983,-0.219 1.351,0 v 0 0.782 c -0.372,-0.221 -0.983,-0.221 -1.355,0" />
    </clipPath>
    <clipPath
       id="clipPath4970"
       clipPathUnits="userSpaceOnUse">
      <path
         inkscape:connector-curvature="0"
         id="path4968"
         d="M 0,2119.953 H 3253.108 V 0 H 0 Z" />
    </clipPath>
    <clipPath
       id="clipPath4982"
       clipPathUnits="userSpaceOnUse">
      <path
         inkscape:connector-curvature="0"
         id="path4980"
         d="m 2287.467,1873.148 c 0,-0.144 0.095,-0.29 0.287,-0.404 v 0 0.786 c -0.191,0.114 -0.29,0.258 -0.29,0.404 v 0 -0.786 z" />
    </clipPath>
    <clipPath
       id="clipPath4994"
       clipPathUnits="userSpaceOnUse">
      <path
         inkscape:connector-curvature="0"
         id="path4992"
         d="m 2293.032,1872.36 v -0.782 c 0.191,0.096 0.282,0.241 0.282,0.378 v 0 0.788 c 0,-0.14 -0.094,-0.281 -0.281,-0.384" />
    </clipPath>
    <clipPath
       id="clipPath5006"
       clipPathUnits="userSpaceOnUse">
      <path
         inkscape:connector-curvature="0"
         id="path5004"
         d="M 0,2119.953 H 3253.108 V 0 H 0 Z" />
    </clipPath>
    <clipPath
       id="clipPath5022"
       clipPathUnits="userSpaceOnUse">
      <path
         inkscape:connector-curvature="0"
         id="path5020"
         d="m 2290.745,1871.81 -0.01,-0.78 c 0.377,-0.22 0.986,-0.214 1.353,0 v 0 0.78 c -0.371,-0.212 -0.98,-0.212 -1.351,0" />
    </clipPath>
    <clipPath
       id="clipPath5034"
       clipPathUnits="userSpaceOnUse">
      <path
         inkscape:connector-curvature="0"
         id="path5032"
         d="M 0,2119.953 H 3253.108 V 0 H 0 Z" />
    </clipPath>
    <clipPath
       id="clipPath5050"
       clipPathUnits="userSpaceOnUse">
      <path
         inkscape:connector-curvature="0"
         id="path5048"
         d="m 2288.91,1873.212 1.359,-0.784 c -0.216,0.934 -0.691,1.61 -1.337,1.987 v 0 l -1.356,0.791 c 0.652,-0.377 1.121,-1.054 1.334,-1.994" />
    </clipPath>
    <clipPath
       id="clipPath4408"
       clipPathUnits="userSpaceOnUse">
      <path
         inkscape:connector-curvature="0"
         id="path4406"
         d="m 2301.08,1906.05 h 45.97 v -31.57 h -45.97 z" />
    </clipPath>
    <clipPath
       id="clipPath4392"
       clipPathUnits="userSpaceOnUse">
      <path
         inkscape:connector-curvature="0"
         id="path4390"
         d="m 2227.58,1871.71 h 52.38 v -32.03 h -52.38 z" />
    </clipPath>
    <clipPath
       id="clipPath5114"
       clipPathUnits="userSpaceOnUse">
      <path
         inkscape:connector-curvature="0"
         id="path5112"
         d="m 2417.33,1884.9 h 51.88 v -27.05 h -51.88 z" />
    </clipPath>
    <clipPath
       id="clipPath5554"
       clipPathUnits="userSpaceOnUse">
      <path
         inkscape:connector-curvature="0"
         id="path5552"
         d="m 2532.68,1877.97 h 61.16 v -27.88 h -61.16 z" />
    </clipPath>
    <clipPath
       id="clipPath5662"
       clipPathUnits="userSpaceOnUse">
      <path
         inkscape:connector-curvature="0"
         id="path5660"
         d="m 2652.02,1878.72 h 75.96 v -28.55 h -75.96 z" />
    </clipPath>
    <clipPath
       id="clipPath5782"
       clipPathUnits="userSpaceOnUse">
      <path
         inkscape:connector-curvature="0"
         id="path5780"
         d="m 2686.34,2040.48 h 6.76 v -5.02 h -6.76 z" />
    </clipPath>
    <clipPath
       id="clipPath5454"
       clipPathUnits="userSpaceOnUse">
      <path
         inkscape:connector-curvature="0"
         id="path5452"
         d="m 2763.78,1887.52 h 61.17 v -27.89 h -61.17 z" />
    </clipPath>
    <clipPath
       id="clipPath5226"
       clipPathUnits="userSpaceOnUse">
      <path
         inkscape:connector-curvature="0"
         id="path5224"
         d="m 2874.06,1879.83 h 115.04 v -37.41 h -115.04 z" />
    </clipPath>
    <clipPath
       id="clipPath5266"
       clipPathUnits="userSpaceOnUse">
      <path
         inkscape:connector-curvature="0"
         id="path5264"
         d="m 2898.47,1905.023 c -0.019,-0.014 -0.036,-0.025 -0.058,-0.038 v 0 c -0.579,-0.382 -0.588,-1.091 -0.535,-1.501 v 0 l 39.797,23.128 c -0.051,0.406 -0.042,1.119 0.537,1.502 v 0 c 0.018,0.012 0.037,0.024 0.058,0.036 v 0 c -13.266,-7.711 -26.531,-15.418 -39.799,-23.127" />
    </clipPath>
    <clipPath
       id="clipPath3000"
       clipPathUnits="userSpaceOnUse">
      <path
         inkscape:connector-curvature="0"
         id="path2998"
         d="m 3070.44,1903.77 h 111.77 v -40.19 h -111.77 z" />
    </clipPath>
    <clipPath
       id="clipPath6042"
       clipPathUnits="userSpaceOnUse">
      <path
         inkscape:connector-curvature="0"
         id="path6040"
         d="m 409.323,1548.74 h 49.951 v -25.11 h -49.951 z" />
    </clipPath>
    <clipPath
       id="clipPath5930"
       clipPathUnits="userSpaceOnUse">
      <path
         inkscape:connector-curvature="0"
         id="path5928"
         d="m 516.004,1548.66 h 54.751 v -25.03 h -54.751 z" />
    </clipPath>
  </defs>
  <sodipodi:namedview
     id="base"
     pagecolor="#ffffff"
     bordercolor="#666666"
     borderopacity="1.0"
     inkscape:pageopacity="0.0"
     inkscape:pageshadow="2"
     inkscape:zoom="0.35"
     inkscape:cx="440.18925"
     inkscape:cy="-108.62962"
     inkscape:document-units="mm"
     inkscape:current-layer="layer1"
     showgrid="false"
     fit-margin-top="0"
     fit-margin-left="0"
     fit-margin-right="0"
     fit-margin-bottom="0"
     inkscape:window-width="1366"
     inkscape:window-height="716"
     inkscape:window-x="-8"
     inkscape:window-y="-8"
     inkscape:window-maximized="1" />
  <metadata
     id="metadata45328">
    <rdf:RDF>
      <cc:Work
         rdf:about="">
        <dc:format>image/svg+xml</dc:format>
        <dc:type
           rdf:resource="http://purl.org/dc/dcmitype/StillImage" />
        <dc:title></dc:title>
      </cc:Work>
    </rdf:RDF>
  </metadata>
  <g
     inkscape:label="Layer 1"
     inkscape:groupmode="layer"
     id="layer1"
     transform="translate(193.95186,-336.14176)">
    <g
       id="g5924"
       transform="matrix(0.35277777,0,0,-0.35277777,-375.98673,929.7374)">
      <g
         id="g5926" />
      <g
         id="g5938">
        <g
           clip-path="url(#clipPath5930)"
           id="g5936"
           style="opacity:0.28999299">
          <g
             transform="translate(518.7539,1534.3579)"
             id="g5934">
            <path
               d="m 0,0 c 16.686,-3.575 10.701,-10.728 26.777,-10.728 16.073,0 25.224,7.309 25.224,13.232 0,5.922 -9.926,11.802 -26,11.802 C -3.494,14.306 -6.262,1.344 0,0"
               style="fill:#231f20;fill-opacity:1;fill-rule:nonzero;stroke:none"
               id="path5932"
               inkscape:connector-curvature="0" />
          </g>
        </g>
      </g>
    </g>
    <g
       id="g5940"
       transform="matrix(0.35277777,0,0,-0.35277777,-187.41201,382.25241)">
      <path
         d="m 0,0 -3.399,-1.54 c 0,0 -6.852,-2.459 -8.253,-3.255 -0.774,-0.448 -1.162,-1.385 -1.275,-2.007 -0.073,-0.398 -0.091,-1.509 0.14,-1.829 0.6,-0.829 1.903,-1.776 3.102,-1.998 2.305,-0.436 7.178,0.491 7.178,0.491 0.63,0.293 10.486,3.407 10.486,3.407 0,0 0.366,1.192 0.466,1.917 l 0.596,4.825 z"
         style="fill:#ed635d;fill-opacity:1;fill-rule:nonzero;stroke:none"
         id="path5942"
         inkscape:connector-curvature="0" />
    </g>
    <g
       id="g5944"
       transform="matrix(0.35277777,0,0,-0.35277777,-187.64802,384.20959)">
      <path
         d="m 0,0 c 0.07,-0.094 0.2,-0.128 0.292,-0.067 0.08,0.053 0.156,0.149 0.101,0.221 -0.292,0.413 -1.4,1.904 -2.612,2.631 -1.053,0.632 -2.006,0.646 -2.439,0.61 C -4.784,3.39 -4.89,3.288 -4.863,3.161 -4.841,3.057 -4.731,2.984 -4.618,2.992 -4.234,3.023 -3.377,3.006 -2.422,2.434 -1.369,1.804 -0.345,0.487 0,0"
         style="fill:#d5dfef;fill-opacity:1;fill-rule:nonzero;stroke:none"
         id="path5946"
         inkscape:connector-curvature="0" />
    </g>
    <g
       id="g5948"
       transform="matrix(0.35277777,0,0,-0.35277777,-188.07897,384.33913)">
      <path
         d="M 0,0 C 0.067,-0.098 0.193,-0.139 0.298,-0.066 0.375,-0.01 0.442,0.07 0.389,0.154 0.095,0.563 -1.012,2.048 -2.215,2.778 -3.271,3.42 -4.225,3.432 -4.668,3.391 -4.786,3.38 -4.888,3.284 -4.859,3.161 c 0.019,-0.115 0.127,-0.18 0.242,-0.17 0.37,0.03 1.24,0.011 2.19,-0.561 C -1.37,1.802 -0.347,0.477 0,0"
         style="fill:#d5dfef;fill-opacity:1;fill-rule:nonzero;stroke:none"
         id="path5950"
         inkscape:connector-curvature="0" />
    </g>
    <g
       id="g5952"
       transform="matrix(0.35277777,0,0,-0.35277777,-188.48756,384.55221)">
      <path
         d="m 0,0 c 0.063,-0.098 0.194,-0.132 0.29,-0.067 0.078,0.055 0.146,0.142 0.1,0.22 C 0.094,0.565 -1.014,2.056 -2.219,2.781 -3.275,3.414 -4.231,3.43 -4.669,3.394 -4.789,3.386 -4.891,3.292 -4.865,3.162 -4.84,3.055 -4.737,2.973 -4.625,2.981 -4.247,3.016 -3.377,3.002 -2.426,2.433 -1.374,1.795 -0.353,0.478 0,0"
         style="fill:#d5dfef;fill-opacity:1;fill-rule:nonzero;stroke:none"
         id="path5954"
         inkscape:connector-curvature="0" />
    </g>
    <g
       id="g5956"
       transform="matrix(0.35277777,0,0,-0.35277777,-191.52272,383.94412)">
      <path
         d="m 0,0 c 0.205,0.107 0.156,0.104 0.546,0.28 0.549,-0.101 1.449,-0.339 2.769,-1.218 2.563,-1.736 2.972,-4.369 2.972,-4.369 0,0 -1.037,-0.51 -5.977,0.248 -0.059,0 -0.109,0.009 -0.16,0.017 -0.529,0.37 -0.988,0.798 -1.285,1.206 -0.231,0.321 -0.212,1.432 -0.139,1.829 C -1.162,-1.385 -0.773,-0.447 0,0"
         style="fill:#497384;fill-opacity:1;fill-rule:nonzero;stroke:none"
         id="path5958"
         inkscape:connector-curvature="0" />
    </g>
    <g
       id="g5960"
       transform="matrix(0.35277777,0,0,-0.35277777,-191.9778,384.62386)">
      <path
         d="M 0,0 C 0.063,-0.949 1.912,-2.061 3.07,-2.414 7.057,-3.63 19.173,0.1 19.743,0.305 c 1.323,0.463 1.524,0.912 1.524,0.912 0,0 -0.275,-1.37 -0.325,-1.342 0,0 -0.259,-1.353 -1.028,-1.686 -0.615,-0.262 -5.417,-1.236 -6.656,-1.522 0,0 -7.113,-1.541 -10.47,-0.632 -1.162,0.314 -2.433,0.799 -2.981,2.002 C -0.356,-1.588 -0.012,0.136 0,0"
         style="fill:#d5dfef;fill-opacity:1;fill-rule:nonzero;stroke:none"
         id="path5962"
         inkscape:connector-curvature="0" />
    </g>
    <g
       id="g5964"
       transform="matrix(0.35277777,0,0,-0.35277777,-182.91462,363.4272)">
      <path
         d="m 0,0 c -1.562,2.558 -6.684,19.833 -4.956,23.552 1.883,4.09 7.728,11.51 7.728,11.51 0,0 3.963,8.603 0.011,11.572 -2.249,1.696 -6.853,1.25 -9.167,-5.761 -0.725,-2.202 -4.557,-15.176 -4.524,-19.323 0.037,-5.675 6.945,-17.57 6.945,-17.57 0,0 4.259,-4.47 3.963,-3.98"
         style="fill:#e8c5ac;fill-opacity:1;fill-rule:nonzero;stroke:none"
         id="path5966"
         inkscape:connector-curvature="0" />
    </g>
    <g
       id="g5968"
       transform="matrix(0.35277777,0,0,-0.35277777,-182.46709,346.76053)">
      <path
         d="m 0,0 c -3.984,1.66 -6.58,-2.246 -7.539,-4.309 -1.051,-2.283 -3.226,-10.559 -3.864,-12.366 0,0 1.561,-1.706 4.818,-2.836 3.621,-1.264 6.23,0 6.23,0 1.159,2.599 1.582,10.482 1.974,11.451 C 2.963,-4.721 3.47,-1.449 0,0"
         style="fill:#217501;fill-opacity:1;fill-rule:nonzero;stroke:none"
         id="path5970"
         inkscape:connector-curvature="0" />
    </g>
    <g
       id="g5972"
       transform="matrix(0.35277777,0,0,-0.35277777,-184.41495,361.52224)">
      <path
         d="m 0,0 -10.196,-59.449 c 0,-2.053 2.242,-3.312 3.115,-3.548 3.118,-0.857 7.419,-1.191 8.221,3.254 L 15.013,0.559 Z"
         style="fill:#093c4c;fill-opacity:1;fill-rule:nonzero;stroke:none"
         id="path5974"
         inkscape:connector-curvature="0" />
    </g>
    <g
       id="g5976"
       transform="matrix(0.35277777,0,0,-0.35277777,-181.08201,385.29064)">
      <path
         d="m 0,0 -5.942,-3.989 c 0,0 -2.739,-1.829 -4.032,-2.81 -0.712,-0.533 -0.99,-1.51 -1.023,-2.144 -0.021,-0.396 0.099,-1.507 0.367,-1.806 0.701,-0.736 2.139,-1.316 3.324,-1.59 3.506,-0.794 7.057,1.383 7.057,1.383 0.588,0.365 9.991,4.686 9.991,4.686 0,0 0.218,1.232 0.218,1.967 v 4.851 z"
         style="fill:#ed635d;fill-opacity:1;fill-rule:nonzero;stroke:none"
         id="path5978"
         inkscape:connector-curvature="0" />
    </g>
    <g
       id="g5980"
       transform="matrix(0.35277777,0,0,-0.35277777,-182.01684,358.62011)">
      <path
         d="m 0,0 2.689,-71.79 c 0.02,-1.476 -3.034,-5.606 -1.836,-6.239 7.277,-3.847 11.404,-1.689 11.404,-1.689 0.593,0.334 1.58,1.876 1.631,2.398 l 2.547,67.674 z"
         style="fill:#14546d;fill-opacity:1;fill-rule:nonzero;stroke:none"
         id="path5982"
         inkscape:connector-curvature="0" />
    </g>
    <g
       id="g5984"
       transform="matrix(0.35277777,0,0,-0.35277777,-184.03875,347.1717)">
      <path
         d="m 0,0 c -2.257,-4.25 -3.366,-13.558 -2.516,-25.569 0.695,-9.673 -1.081,-19.313 -1.081,-19.313 0,-1.143 -1.031,-8.247 4.638,-7.732 3.28,0.3 6.532,1.72 10.501,7.961 1.544,2.421 6.373,4.394 6.373,4.394 1.806,0.321 2.741,0.114 2.689,-0.286 l 3.407,31.639 c 0.098,2.657 -6.417,6.554 -6.417,6.554 L 6.38,1.848 C 6.38,1.848 1.54,2.892 0,0"
         style="fill:#2fb204;fill-opacity:1;fill-rule:nonzero;stroke:none"
         id="path5986"
         inkscape:connector-curvature="0" />
    </g>
    <g
       id="g5988"
       transform="matrix(0.35277777,0,0,-0.35277777,-177.96832,364.07695)">
      <path
         d="m 0,0 c 1.416,1.562 7.715,6.309 10.875,10.495 1.938,2.55 3.287,4.973 3.287,6.539 0.005,3.472 -5.662,16.878 -5.662,16.878 0,0 -1.455,7.615 -5.775,7.369 -3.753,-0.217 -5.092,-5.463 -3.72,-8.79 1.421,-3.435 6.522,-14.051 6.522,-14.051 0,0 0.761,-1.273 0,-2.412 C 3.935,13.645 -3.398,4.265 -3.398,4.265 -3.398,4.265 -0.392,-0.426 0,0"
         style="fill:#f2d3bd;fill-opacity:1;fill-rule:nonzero;stroke:none"
         id="path5990"
         inkscape:connector-curvature="0" />
    </g>
    <g
       id="g5992"
       transform="matrix(0.35277777,0,0,-0.35277777,-182.12447,346.77242)">
      <path
         d="m 0,0 0.525,6.788 10.951,1.735 c 0,0 -2.806,-5.625 -2.611,-7.837 0.12,-1.324 1.425,-2.904 3.303,-4.169 0.025,0.007 -1.655,-0.241 -4.689,-3.134 C 4.643,-9.311 -0.574,-9.71 -2.318,-7.198 -3.477,-5.507 -2.334,-2.625 0,0"
         style="fill:#d8b39a;fill-opacity:1;fill-rule:nonzero;stroke:none"
         id="path5994"
         inkscape:connector-curvature="0" />
    </g>
    <g
       id="g5996"
       transform="matrix(0.35277777,0,0,-0.35277777,-181.41669,342.10619)">
      <path
         d="m 0,0 c -2.054,-0.697 -1.616,-2.734 -1.616,-2.734 l 1.405,-4.136 c 0,0 0.402,-0.859 1.229,-0.761 1.248,0.162 1.412,1.349 1.554,2.652 0.007,0.072 0.105,1.962 0.119,2.072 C 2.784,-1.302 1.938,0.663 0,0"
         style="fill:#ffe8d9;fill-opacity:1;fill-rule:nonzero;stroke:none"
         id="path5998"
         inkscape:connector-curvature="0" />
    </g>
    <g
       id="g6000"
       transform="matrix(0.35277777,0,0,-0.35277777,-180.9995,338.96806)">
      <path
         d="m 0,0 v -0.002 l 7.947,-1.147 -1.87,-14.374 c -0.241,-0.965 -0.326,-1.869 -0.601,-2.676 -0.31,-0.888 -0.838,-1.679 -2.075,-2.366 0,0 -1.641,-0.747 -3.541,-1.469 -0.78,-0.294 -3.236,-1.351 -4.806,-0.527 -0.589,0.31 -2.108,1.044 -2.517,2.374 -1.103,3.541 -0.796,17.968 -0.796,17.968 l 0.272,4.773 z"
         style="fill:#e8c5ac;fill-opacity:1;fill-rule:nonzero;stroke:none"
         id="path6002"
         inkscape:connector-curvature="0" />
    </g>
    <g
       id="g6004"
       transform="matrix(0.35277777,0,0,-0.35277777,-183.27809,337.41707)">
      <path
         d="m 0,0 c -1.708,-1.109 -2.184,-2.937 -2.04,-4.382 0.127,-1.314 0.149,-2.226 0.24,-2.233 0,0 1.667,2.607 3.364,0.593 1.639,-1.947 2.366,-3.352 2.553,-3.321 0,0 0.566,2.439 0.466,2.565 -0.09,0.112 1.446,-2.781 1.446,-2.781 0.11,-0.1 0.793,0.996 1.032,0.909 2.413,-0.934 2.367,-4.044 2.118,-5.28 l -0.171,-1.262 c -0.096,-0.649 -0.3,-1.382 0.339,-1.396 0.694,-0.025 0.667,0.25 0.961,0.921 0,0 0.982,2.837 2.98,1.609 1.328,-0.822 -0.139,-3.858 -0.258,-4.025 l -0.134,-4.306 c 0.342,0.286 0.707,0.519 1.597,1.521 2.213,2.496 3.448,4.984 3.917,5.876 2.359,4.489 2.065,9.218 -0.426,12.567 -0.768,1.043 -4.272,3.886 -4.189,4.477 C 13.804,2.126 12.948,1.695 11.959,1.859 8.812,2.378 10.398,3.583 10.398,3.583 9.612,3.839 7.324,2.481 7.157,2.378 5.892,1.628 6.038,3.097 6.038,3.097 4.905,2.734 0,0 0,0"
         style="fill:#281504;fill-opacity:1;fill-rule:nonzero;stroke:none"
         id="path6006"
         inkscape:connector-curvature="0" />
    </g>
    <g
       id="g6008"
       transform="matrix(0.35277777,0,0,-0.35277777,-178.62012,342.18543)">
      <path
         d="m 0,0 c -2.06,0.278 -2.641,-2.274 -2.641,-2.274 l -0.491,-3.539 c 0,0 -0.024,-0.901 0.735,-1.169 1.133,-0.402 1.782,0.549 2.463,1.598 0.04,0.07 0.933,1.639 0.992,1.728 C 1.825,-2.328 1.951,-0.285 0,0"
         style="fill:#e8c5ac;fill-opacity:1;fill-rule:nonzero;stroke:none"
         id="path6010"
         inkscape:connector-curvature="0" />
    </g>
    <g
       id="g6012"
       transform="matrix(0.35277777,0,0,-0.35277777,-177.00697,349.51386)">
      <path
         d="m 0,0 c 4.32,0.246 7.05,-6.945 7.05,-6.945 0,0 2.691,-6.245 2.691,-6.389 0,0 -1.278,-2.685 -5.387,-3.688 -3.718,-0.901 -5.802,0 -5.802,0 -0.712,1.848 -2.652,8.9 -2.832,9.931 C -4.848,-3.972 -3.753,-0.217 0,0"
         style="fill:#49d316;fill-opacity:1;fill-rule:nonzero;stroke:none"
         id="path6014"
         inkscape:connector-curvature="0" />
    </g>
    <g
       id="g6016"
       transform="matrix(0.35277777,0,0,-0.35277777,-180.80261,387.37408)">
      <path
         d="M 0,0 C 0.083,-0.089 0.225,-0.116 0.313,-0.041 0.387,0.007 0.462,0.116 0.407,0.187 0.072,0.608 -1.182,2.102 -2.5,2.781 -3.646,3.389 -4.655,3.352 -5.106,3.278 -5.232,3.26 -5.335,3.148 -5.301,3.023 -5.27,2.913 -5.155,2.84 -5.031,2.856 -4.64,2.918 -3.735,2.949 -2.705,2.407 -1.542,1.815 -0.401,0.49 0,0"
         style="fill:#d5dfef;fill-opacity:1;fill-rule:nonzero;stroke:none"
         id="path6018"
         inkscape:connector-curvature="0" />
    </g>
    <g
       id="g6020"
       transform="matrix(0.35277777,0,0,-0.35277777,-181.28853,387.6569)">
      <path
         d="M 0,0 C 0.083,-0.106 0.221,-0.132 0.321,-0.056 0.39,0.005 0.461,0.112 0.398,0.18 0.059,0.593 -1.219,2.066 -2.538,2.734 -3.69,3.328 -4.698,3.264 -5.146,3.198 -5.277,3.166 -5.38,3.066 -5.345,2.936 -5.311,2.82 -5.188,2.757 -5.073,2.772 -4.679,2.83 -3.763,2.884 -2.721,2.356 -1.567,1.77 -0.398,0.472 0,0"
         style="fill:#d5dfef;fill-opacity:1;fill-rule:nonzero;stroke:none"
         id="path6022"
         inkscape:connector-curvature="0" />
    </g>
    <g
       id="g6024"
       transform="matrix(0.35277777,0,0,-0.35277777,-181.69764,387.90857)">
      <path
         d="M 0,0 C 0.087,-0.082 0.227,-0.111 0.315,-0.027 0.388,0.034 0.454,0.137 0.388,0.21 0.027,0.607 -1.324,2.005 -2.68,2.614 -3.869,3.134 -4.862,3.021 -5.31,2.933 -5.434,2.908 -5.533,2.785 -5.492,2.657 -5.449,2.547 -5.332,2.489 -5.213,2.526 -4.819,2.601 -3.906,2.694 -2.848,2.223 -1.657,1.694 -0.426,0.459 0,0"
         style="fill:#d5dfef;fill-opacity:1;fill-rule:nonzero;stroke:none"
         id="path6026"
         inkscape:connector-curvature="0" />
    </g>
    <g
       id="g6028"
       transform="matrix(0.35277777,0,0,-0.35277777,-184.60048,387.68914)">
      <path
         d="m 0,0 c 0.2,0.159 0.449,0.335 0.712,0.524 0.458,0.074 1.422,0 3.288,-0.942 2.755,-1.408 4.033,-3.868 4.033,-3.868 0,0 -1.845,-0.855 -6.838,-0.714 -0.079,0 -0.138,0.012 -0.22,0.016 -0.655,0.287 -1.255,0.634 -1.631,1.034 -0.268,0.299 -0.388,1.41 -0.367,1.805 C -0.99,-1.51 -0.712,-0.533 0,0"
         style="fill:#497384;fill-opacity:1;fill-rule:nonzero;stroke:none"
         id="path6030"
         inkscape:connector-curvature="0" />
    </g>
    <g
       id="g6032"
       transform="matrix(0.35277777,0,0,-0.35277777,-184.9729,388.41742)">
      <path
         d="m 0,0 c 0.193,-0.938 2.66,-2.005 3.832,-2.311 5.84,-1.523 15.193,4.796 15.729,5.063 1.253,0.633 1.4,1.101 1.4,1.101 0,0 -0.094,-1.384 -0.152,-1.371 0,0 -0.093,-1.373 -0.809,-1.794 -0.587,-0.353 -6.368,-3.11 -7.565,-3.531 0,0 -5.097,-2.232 -8.946,-1.066 C 2.324,-3.555 0.753,-3.095 0.057,-1.966 -0.154,-1.617 -0.014,0.13 0,0"
         style="fill:#d5dfef;fill-opacity:1;fill-rule:nonzero;stroke:none"
         id="path6034"
         inkscape:connector-curvature="0" />
    </g>
  </g>
</svg>
