<?xml version="1.0" encoding="UTF-8" standalone="no"?>
<!-- Created with Inkscape (http://www.inkscape.org/) -->

<svg
   xmlns:dc="http://purl.org/dc/elements/1.1/"
   xmlns:cc="http://creativecommons.org/ns#"
   xmlns:rdf="http://www.w3.org/1999/02/22-rdf-syntax-ns#"
   xmlns:svg="http://www.w3.org/2000/svg"
   xmlns="http://www.w3.org/2000/svg"
   xmlns:sodipodi="http://sodipodi.sourceforge.net/DTD/sodipodi-0.dtd"
   xmlns:inkscape="http://www.inkscape.org/namespaces/inkscape"
   width="22.217596mm"
   height="63.775707mm"
   viewBox="0 0 22.217596 63.775707"
   version="1.1"
   id="svg45331"
   inkscape:version="0.92.3 (2405546, 2018-03-11)"
   sodipodi:docname="people-business-16.svg">
  <defs
     id="defs45325">
    <clipPath
       id="clipPath2864"
       clipPathUnits="userSpaceOnUse">
      <path
         inkscape:connector-curvature="0"
         id="path2862"
         d="m 1713.778,1928.833 c -0.536,-0.312 -0.927,-0.874 -1.106,-1.65 v 0 l 1.125,0.653 c 0.179,0.778 0.57,1.34 1.107,1.651 v 0 z" />
    </clipPath>
    <clipPath
       id="clipPath2848"
       clipPathUnits="userSpaceOnUse">
      <path
         inkscape:connector-curvature="0"
         id="path2846"
         d="M 0,2119.953 H 3253.108 V 0 H 0 Z" />
    </clipPath>
    <clipPath
       id="clipPath2836"
       clipPathUnits="userSpaceOnUse">
      <path
         inkscape:connector-curvature="0"
         id="path2834"
         d="m 1711.152,1926.674 v -0.651 c 0.308,-0.179 0.813,-0.18 1.126,0 v 0 0.651 c -0.315,-0.183 -0.82,-0.178 -1.129,0" />
    </clipPath>
    <clipPath
       id="clipPath2820"
       clipPathUnits="userSpaceOnUse">
      <path
         inkscape:connector-curvature="0"
         id="path2818"
         d="M 0,2119.953 H 3253.108 V 0 H 0 Z" />
    </clipPath>
    <clipPath
       id="clipPath2808"
       clipPathUnits="userSpaceOnUse">
      <path
         inkscape:connector-curvature="0"
         id="path2806"
         d="m 1710.148,1926.8 c 0,-0.121 0.077,-0.238 0.231,-0.325 v 0 0.65 c -0.156,0.087 -0.233,0.207 -0.233,0.324 v 0 -0.649 z" />
    </clipPath>
    <clipPath
       id="clipPath2796"
       clipPathUnits="userSpaceOnUse">
      <path
         inkscape:connector-curvature="0"
         id="path2794"
         d="m 1714.756,1928.103 v -0.65 c 0.158,0.09 0.237,0.211 0.237,0.331 v 0 0.65 c 0,-0.119 -0.078,-0.24 -0.236,-0.331" />
    </clipPath>
    <clipPath
       id="clipPath2784"
       clipPathUnits="userSpaceOnUse">
      <path
         inkscape:connector-curvature="0"
         id="path2782"
         d="M 0,2119.953 H 3253.108 V 0 H 0 Z" />
    </clipPath>
    <clipPath
       id="clipPath2772"
       clipPathUnits="userSpaceOnUse">
      <path
         inkscape:connector-curvature="0"
         id="path2770"
         d="m 1720.53,1921.188 10e-4,-0.65 c 0.309,-0.181 0.814,-0.181 1.128,0 v 0 0.65 c -0.316,-0.182 -0.821,-0.181 -1.129,0" />
    </clipPath>
    <clipPath
       id="clipPath2756"
       clipPathUnits="userSpaceOnUse">
      <path
         inkscape:connector-curvature="0"
         id="path2754"
         d="M 0,2119.953 H 3253.108 V 0 H 0 Z" />
    </clipPath>
    <clipPath
       id="clipPath2744"
       clipPathUnits="userSpaceOnUse">
      <path
         inkscape:connector-curvature="0"
         id="path2742"
         d="m 1719.524,1921.312 c 0,-0.119 0.08,-0.235 0.234,-0.324 v 0 0.65 c -0.154,0.089 -0.233,0.207 -0.233,0.324 v 0 -0.65 z" />
    </clipPath>
    <clipPath
       id="clipPath2732"
       clipPathUnits="userSpaceOnUse">
      <path
         inkscape:connector-curvature="0"
         id="path2730"
         d="m 1724.133,1922.619 v -0.654 c 0.158,0.094 0.238,0.212 0.238,0.331 v 0 0.65 c 0,-0.117 -0.08,-0.238 -0.238,-0.327" />
    </clipPath>
    <clipPath
       id="clipPath2536"
       clipPathUnits="userSpaceOnUse">
      <path
         inkscape:connector-curvature="0"
         id="path2534"
         d="m 1708.77,1889.11 h 53.56 v -38.31 h -53.56 z" />
    </clipPath>
  </defs>
  <sodipodi:namedview
     id="base"
     pagecolor="#ffffff"
     bordercolor="#666666"
     borderopacity="1.0"
     inkscape:pageopacity="0.0"
     inkscape:pageshadow="2"
     inkscape:zoom="0.35"
     inkscape:cx="-548.01399"
     inkscape:cy="57.663874"
     inkscape:document-units="mm"
     inkscape:current-layer="layer1"
     showgrid="false"
     fit-margin-top="0"
     fit-margin-left="0"
     fit-margin-right="0"
     fit-margin-bottom="0"
     inkscape:window-width="1366"
     inkscape:window-height="716"
     inkscape:window-x="-8"
     inkscape:window-y="-8"
     inkscape:window-maximized="1" />
  <metadata
     id="metadata45328">
    <rdf:RDF>
      <cc:Work
         rdf:about="">
        <dc:format>image/svg+xml</dc:format>
        <dc:type
           rdf:resource="http://purl.org/dc/dcmitype/StillImage" />
        <dc:title></dc:title>
      </cc:Work>
    </rdf:RDF>
  </metadata>
  <g
     inkscape:label="Layer 1"
     inkscape:groupmode="layer"
     id="layer1"
     transform="translate(-67.51025,-100.31453)">
    <g
       style="display:inline"
       id="g2530"
       transform="matrix(0.35277777,0,0,-0.35277777,-531.98235,817.01133)">
      <g
         id="g2532" />
      <g
         id="g2544">
        <g
           clip-path="url(#clipPath2536)"
           id="g2542"
           style="opacity:0.28999299">
          <g
             transform="translate(1709.1855,1883.2607)"
             id="g2540">
            <path
               d="m 0,0 c 0,0 3.252,9.757 14.23,4.066 10.979,-5.693 10.826,1.816 14.91,-4.202 1.735,-2.557 11.384,-7.59 19.516,-15.722 2.962,-2.96 9.309,-14.096 -1.898,-16.264 -12.604,-2.439 -34.42,8.817 -32.12,13.418 0.813,1.627 -0.735,5.394 -4.066,7.726 C 6.505,-8.133 -2.439,-5.693 0,0"
               style="fill:#160b01;fill-opacity:1;fill-rule:nonzero;stroke:none"
               id="path2538"
               inkscape:connector-curvature="0" />
          </g>
        </g>
      </g>
    </g>
    <g
       style="display:inline"
       id="g2546"
       transform="matrix(0.35277777,0,0,-0.35277777,85.96891,130.43185)">
      <path
         d="m 0,0 4.813,1.511 c 0,0 1.526,-1.017 3.583,-5.878 0.966,-2.28 0.968,-4.686 0.968,-4.686 0,0 -0.119,-3.771 -3.419,-4.418 C 5.536,-13.552 4.188,-13.524 3.548,-12.84 2.72,-11.959 2.28,-10.553 1.865,-9.358 1.45,-8.168 -0.63,-4.649 -0.63,-4.649 -1.511,-2.866 -0.825,-0.569 0,0"
         style="fill:#e8c5ac;fill-opacity:1;fill-rule:nonzero;stroke:none"
         id="path2548"
         inkscape:connector-curvature="0" />
    </g>
    <g
       style="display:inline"
       id="g2550"
       transform="matrix(0.35277777,0,0,-0.35277777,86.58933,131.34069)">
      <path
         d="m 0,0 c 0.226,-1.571 1.971,-3.068 3.408,-3.247 0.498,-0.065 0.425,-3.059 1.02,-4.259 0.627,-1.257 1.911,-0.712 2.149,-0.392 0.188,0.25 -0.586,4.735 -0.739,5.87 C 5.329,1.763 3.921,2.365 2.486,2.548 1.051,2.728 -0.24,1.669 0,0"
         style="fill:#ffe1cc;fill-opacity:1;fill-rule:nonzero;stroke:none"
         id="path2552"
         inkscape:connector-curvature="0" />
    </g>
    <g
       style="display:inline"
       id="g2554"
       transform="matrix(0.35277777,0,0,-0.35277777,87.05719,131.83556)">
      <path
         d="m 0,0 c -4.372,-1.735 -5.465,-1.134 -5.465,-1.134 0,0 -5.657,15.43 -7.168,22.984 -1.072,5.378 -3.14,20.77 -3.14,20.77 0,0 -2.866,13.45 2.562,16.059 1.755,0.844 5.486,1.088 7.601,-0.587 1.378,-1.093 2.866,-5.891 3.118,-9.237 C -2.232,45.409 -1.073,26.5 -0.847,24.79 0.374,15.641 4.033,2.833 4.033,2.833 4.033,2.833 1.65,0.657 0,0"
         style="fill:#2c3133;fill-opacity:1;fill-rule:nonzero;stroke:none"
         id="path2556"
         inkscape:connector-curvature="0" />
    </g>
    <g
       style="display:inline"
       id="g2558"
       transform="matrix(0.35277777,0,0,-0.35277777,82.35946,160.34978)">
      <path
         d="M 0,0 -3.207,-2.46 -3.789,0.686 Z"
         style="fill:#050500;fill-opacity:1;fill-rule:nonzero;stroke:none"
         id="path2560"
         inkscape:connector-curvature="0" />
    </g>
    <g
       style="display:inline"
       id="g2562"
       transform="matrix(0.35277777,0,0,-0.35277777,83.28066,157.09262)">
      <path
         d="m 0,0 8.275,-4.692 c 0,0 4.158,-2.23 5.631,-2.761 0.668,-0.239 1.229,-0.937 1.414,-1.683 0.118,-0.478 0.08,-0.978 -0.185,-1.386 -0.674,-1.049 -2.27,-2.064 -3.631,-2.651 -4.033,-1.734 -8.788,0.09 -8.788,0.09 -0.786,0.313 -6.103,2.5 -6.506,2.721 -1.135,0.614 -2.093,0.758 -2.351,0.159 0,0 0.287,-1.3 0.323,-1.49 l -4.495,2.002 c 0,0 -0.533,1.436 -0.693,2.314 l -1.078,5.826 z"
         style="fill:#231f20;fill-opacity:1;fill-rule:nonzero;stroke:none"
         id="path2564"
         inkscape:connector-curvature="0" />
    </g>
    <g
       style="display:inline"
       id="g2566"
       transform="matrix(0.35277777,0,0,-0.35277777,88.69914,160.38301)">
      <path
         d="m 0,0 c -0.617,-1.486 -2.666,-2.58 -4.007,-3.214 -4.708,-2.234 -8.878,0.039 -8.878,0.039 -1.516,0.588 -5.767,2.31 -6.187,2.45 0,0 -2.51,1.24 -2.391,-0.069 0.02,-0.219 -0.007,-0.271 0.045,-0.522 -0.012,0.13 0.049,0.24 0.057,0.298 0.115,0.897 2.631,-0.319 2.631,-0.319 0.378,-0.26 5.25,-2.399 6.033,-2.714 0,0 4.611,-2.358 9.051,-0.086 1.318,0.675 2.984,1.554 3.601,3.04 C 0.123,-0.695 0.027,0.068 0,0"
         style="fill:#282827;fill-opacity:1;fill-rule:nonzero;stroke:none"
         id="path2568"
         inkscape:connector-curvature="0" />
    </g>
    <g
       style="display:inline"
       id="g2570"
       transform="matrix(0.35277777,0,0,-0.35277777,81.12748,160.66311)">
      <path
         d="m 0,0 c 0,0 -2.084,0.694 -2.787,0.902 -1.647,0.479 -1.929,1.002 -1.929,1.002 0,0 0.429,-1.641 0.487,-1.607 0,0 0.133,-0.457 1.088,-0.807 0.868,-0.317 3.432,-1.062 3.432,-1.062 z"
         style="fill:#282827;fill-opacity:1;fill-rule:nonzero;stroke:none"
         id="path2572"
         inkscape:connector-curvature="0" />
    </g>
    <g
       style="display:inline"
       id="g2574"
       transform="matrix(0.35277777,0,0,-0.35277777,77.36267,149.1403)">
      <path
         d="m 0,0 1.313,-2.86 c 0,0 2.043,-4.111 7.226,-7.465 0.422,-0.271 0.906,-1.696 0.524,-2.474 -0.151,-0.303 -0.26,-0.492 -0.584,-0.681 -1.153,-0.674 -3.505,-0.845 -4.94,-0.472 -3.127,0.811 -7.189,3.205 -7.189,3.205 -0.539,0.65 -4.301,3.269 -4.512,3.676 0,0 -1.706,0.318 -1.752,0.222 -0.1,-0.212 -0.432,-1.078 -0.49,-1.264 0,0 -2.657,1.928 -3.081,3.63 -0.02,0.085 0.292,1.765 0.562,2.611 l 1.806,5.643 z"
         style="fill:#231f20;fill-opacity:1;fill-rule:nonzero;stroke:none"
         id="path2576"
         inkscape:connector-curvature="0" />
    </g>
    <g
       style="display:inline"
       id="g2578"
       transform="matrix(0.35277777,0,0,-0.35277777,80.43226,153.74673)">
      <path
         d="m 0,0 c -1.432,-0.716 -3.703,-0.891 -5.143,-0.547 -4.703,1.136 -8.181,4.393 -8.181,4.393 -1.41,1.18 -3.151,2.282 -3.739,2.427 -0.378,0.093 -1.605,-0.065 -1.566,-0.038 0.179,0.131 -0.105,-0.023 -0.178,-0.264 0.051,0.12 0.178,0.305 0.151,0.251 -0.209,-0.474 -0.449,-1.277 -0.449,-1.277 0.022,0.034 0.232,0.07 0.825,0.168 0.81,0.136 1.755,0.361 1.775,0.34 0,0 5.681,-5.139 10.134,-6.642 1.402,-0.474 4.754,-0.342 6.109,0.524 0.237,0.149 0.643,0.608 0.649,1.056 C 0.342,0.333 0.068,0.032 0,0"
         style="fill:#282827;fill-opacity:1;fill-rule:nonzero;stroke:none"
         id="path2580"
         inkscape:connector-curvature="0" />
    </g>
    <g
       style="display:inline"
       id="g2582"
       transform="matrix(0.35277777,0,0,-0.35277777,73.85766,151.54546)">
      <path
         d="m 0,0 c -0.211,0.151 -1.335,0.979 -1.734,1.357 -1.08,1.031 -1.617,2.101 -1.617,2.101 0,0 -0.198,-1.045 -0.199,-1.113 -0.019,-1.166 3.081,-3.64 3.081,-3.64 C -0.428,-1.162 -0.137,-0.341 0,0"
         style="fill:#282827;fill-opacity:1;fill-rule:nonzero;stroke:none"
         id="path2584"
         inkscape:connector-curvature="0" />
    </g>
    <g
       style="display:inline"
       id="g2586"
       transform="matrix(0.35277777,0,0,-0.35277777,85.10623,129.0266)">
      <path
         d="m 0,0 c 0,0 -2.12,-25.578 -6.214,-34.337 -2.567,-5.494 -14.238,-26.577 -14.238,-26.577 -0.429,-2.521 -4.506,-2.626 -5.64,-2.648 -4.057,-0.085 -9.098,4.357 -8.33,6.707 6.232,19.033 9.464,24.714 10.579,28.802 1.454,5.336 1.454,32.494 1.454,32.494 z"
         style="fill:#3d4244;fill-opacity:1;fill-rule:nonzero;stroke:none"
         id="path2588"
         inkscape:connector-curvature="0" />
    </g>
    <g
       style="display:inline"
       id="g2590"
       transform="matrix(0.35277777,0,0,-0.35277777,80.93563,131.52671)">
      <path
         d="m 0,0 c 0,0 4.595,-39.872 5.323,-47.387 1.354,-14.009 4.365,-26.675 4.365,-26.675 0.416,-1.792 -0.843,-3.484 -4.642,-4.406 -6.283,-1.523 -8.725,0.04 -8.725,0.04 -1.32,0.72 -1.503,1.035 -1.72,1.641 0,0 -4.438,23.642 -5.491,32.065 -0.242,1.939 -4.877,20.298 -4.996,27.029 -0.191,10.734 -0.733,17.953 -0.733,17.953 z"
         style="fill:#585e60;fill-opacity:1;fill-rule:nonzero;stroke:none"
         id="path2592"
         inkscape:connector-curvature="0" />
    </g>
    <g
       style="display:inline"
       id="g2594"
       transform="matrix(0.35277777,0,0,-0.35277777,77.96457,113.59568)">
      <path
         d="m 0,0 c 0,0 3.288,5.013 6.054,5.881 2.765,0.863 11.414,-0.175 11.414,-0.175 0,0 3.977,-10.378 3.977,-11.067 0,-0.693 -3.371,-18.679 -3.371,-18.679 l -10.983,9.946 z"
         style="fill:#d7dfe2;fill-opacity:1;fill-rule:nonzero;stroke:none"
         id="path2596"
         inkscape:connector-curvature="0" />
    </g>
    <g
       style="display:inline"
       id="g2598"
       transform="matrix(0.35277777,0,0,-0.35277777,84.98738,111.70501)">
      <path
         d="m 0,0 c -1.195,2.24 -4.012,2.54 -5.908,2.462 2.201,-1.796 4.894,-7.349 4.894,-14.999 0,-3.993 -1.568,-14.114 -1.684,-13.879 -0.111,0.22 -6.72,15.583 -9.523,18.486 -0.394,0.411 -3.929,8.524 -3.929,8.524 0,0 -11.303,-8.136 -12.448,-9.92 v -53.077 c 0.078,-1.212 -0.163,-1.616 1.047,-2.263 0,0 6.146,-2.223 13.501,-2.466 5.818,-0.191 15.361,2.956 15.361,2.956 0.166,0.11 0.455,0.191 0.455,0.689 L 0.877,-43.858 C 2.529,-23.223 2.765,-5.188 0,0"
         style="fill:#3d4244;fill-opacity:1;fill-rule:nonzero;stroke:none"
         id="path2600"
         inkscape:connector-curvature="0" />
    </g>
    <g
       style="display:inline"
       id="g2602"
       transform="matrix(0.35277777,0,0,-0.35277777,83.63589,134.79748)">
      <path
         d="M 0,0 0.127,22.818 1.52,38.61 c 0,0 -0.54,1.439 -0.761,1.897 L -0.438,22.979 -0.677,-0.191 C -0.477,-0.154 -0.097,-0.055 0,0"
         style="fill:#383736;fill-opacity:1;fill-rule:nonzero;stroke:none"
         id="path2604"
         inkscape:connector-curvature="0" />
    </g>
    <g
       style="display:inline"
       id="g2606"
       transform="matrix(0.35277777,0,0,-0.35277777,83.55146,112.99073)">
      <path
         d="m 0,0 c -4.439,-4.091 -8.275,1.431 -10.934,4.828 l 0.721,10.994 10.274,-3.395 z"
         style="fill:#e8c5ac;fill-opacity:1;fill-rule:nonzero;stroke:none"
         id="path2608"
         inkscape:connector-curvature="0" />
    </g>
    <g
       style="display:inline"
       id="g2610"
       transform="matrix(0.35277777,0,0,-0.35277777,83.57763,115.63072)">
      <path
         d="m 0,0 c -0.082,0.429 -0.338,0.884 -0.22,1.382 l 0.4,1.514 -1.909,3.257 -1.112,-0.141 -0.841,-3.493 1.42,-1.301 c 0.317,-0.331 0.727,-0.988 0.678,-1.429 l 0.441,-10.09 2.405,-4.399 c 0,0 1.164,3.013 1.197,4.151 C 2.576,-6.546 0,0 0,0"
         style="fill:#160b01;fill-opacity:1;fill-rule:nonzero;stroke:none"
         id="path2612"
         inkscape:connector-curvature="0" />
    </g>
    <g
       style="display:inline"
       id="g2614"
       transform="matrix(0.35277777,0,0,-0.35277777,83.57763,111.58272)">
      <path
         d="m 0,0 0.778,1.685 c 0,0 0.814,-0.506 0.995,-0.647 C 2.788,0.248 3.297,-0.89 3.67,-1.615 4.414,-3.064 6.227,-7.61 6.227,-7.61 6.572,-8.648 6.313,-9.34 5.707,-9.987 l -1.76,-1.956 1.587,-1.43 c 1.042,-0.81 0.603,-2.329 0.202,-3.389 -1.41,-3.736 -4.466,-9.648 -4.466,-9.648 0,0 1.105,7.048 1.234,11.111 C 2.801,-6.122 0,0 0,0"
         style="fill:#7a797a;fill-opacity:1;fill-rule:nonzero;stroke:none"
         id="path2616"
         inkscape:connector-curvature="0" />
    </g>
    <g
       style="display:inline"
       id="g2618"
       transform="matrix(0.35277777,0,0,-0.35277777,82.88516,113.23947)">
      <path
         d="m 0,0 c -0.611,-0.487 -0.151,-1.153 0.174,-1.616 l 2.031,-2.876 c 0.649,-0.859 0.95,0.104 0.973,1.007 l 0.3,6.512 c -0.104,3.428 -1.57,3.778 -1.57,3.778 0,0 0.031,-0.827 -0.062,-1.878 C 1.716,3.528 1.748,1.393 0,0"
         style="fill:#ffffff;fill-opacity:1;fill-rule:nonzero;stroke:none"
         id="path2620"
         inkscape:connector-curvature="0" />
    </g>
    <g
       style="display:inline"
       id="g2622"
       transform="matrix(0.35277777,0,0,-0.35277777,79.76877,110.01554)">
      <path
         d="m 0,0 c 0,0 0.08,-2.195 0.43,-3.189 1.715,-4.874 7.562,-6.097 7.562,-6.097 0.679,-0.259 0.649,-0.593 0.533,-1.751 l -0.699,-4.222 c -0.115,-1.112 -0.691,-0.996 -1.133,-0.533 0,0 -4.441,3.877 -5.685,5.179 -2.93,3.059 -3.211,5.229 -2.112,9.074 C -0.721,-0.2 0,0 0,0"
         style="fill:#ffffff;fill-opacity:1;fill-rule:nonzero;stroke:none"
         id="path2624"
         inkscape:connector-curvature="0" />
    </g>
    <g
       style="display:inline"
       id="g2626"
       transform="matrix(0.35277777,0,0,-0.35277777,79.40256,110.47942)">
      <path
         d="m 0,0 -2.548,-4.33 c 0,0 -0.447,-0.541 -0.384,-1.72 0.044,-0.831 0.384,-2.005 0.384,-2.005 l 2.449,-6.053 c 0.39,-1.427 0.91,-1.903 1.989,-1.991 l 3.806,-0.475 -1.352,-2.672 c -0.461,-0.853 -0.165,-1.348 0.556,-1.9 7.468,-5.731 8.579,-9.263 8.579,-9.263 0,0 0.264,3.774 -5.695,14.703 C 6.266,-12.917 3.608,-8.934 1.751,-5.73 -0.671,-1.559 0,0 0,0"
         style="fill:#7a797a;fill-opacity:1;fill-rule:nonzero;stroke:none"
         id="path2628"
         inkscape:connector-curvature="0" />
    </g>
    <g
       style="display:inline"
       id="g2630"
       transform="matrix(0.35277777,0,0,-0.35277777,83.23489,102.86249)">
      <path
         d="m 0,0 v -0.003 l -8.892,-0.036 -0.142,-16.042 c 0.121,-1.1 0.078,-2.094 0.258,-3.025 0.197,-1.024 0.662,-1.974 1.909,-2.917 0,0 1.706,-0.987 3.58,-2.242 1.108,-0.742 4.474,-1.894 6.114,-1.02 0.927,0.495 2.389,0.268 3.86,3.86 0.087,0.216 0.768,3.49 0.853,4.421 l 1.022,10.012 0.41,6.138 z"
         style="fill:#ffe1cc;fill-opacity:1;fill-rule:nonzero;stroke:none"
         id="path2632"
         inkscape:connector-curvature="0" />
    </g>
    <g
       style="display:inline"
       id="g2634"
       transform="matrix(0.35277777,0,0,-0.35277777,86.13462,102.21102)">
      <path
         d="m 0,0 c 1.994,-1.7 0.424,-6.073 0.424,-6.039 -0.055,1.887 -2.026,3.099 -2.945,2.718 -1.792,-0.741 -7.459,-3.176 -8.094,-3.551 -1.811,-1.07 -2.123,-3.614 -2.041,-5.014 v -1.402 c 0,-0.727 0.121,-1.56 -0.594,-1.482 -0.757,0.086 -0.693,0.374 -0.905,1.154 0,0 -1.031,2.512 -3.032,2.225 -1.711,-0.248 -0.431,-4.243 -0.33,-4.448 L -17.9,-20.33 c -0.197,0.053 -0.444,0.747 -1.282,2.564 -1.543,3.351 -1.988,4.223 -2.427,5.242 -5.066,11.737 4.386,20.549 15.504,17.171 C -4.025,4.017 0,0 0,0"
         style="fill:#a89678;fill-opacity:1;fill-rule:nonzero;stroke:none"
         id="path2636"
         inkscape:connector-curvature="0" />
    </g>
    <g
       style="display:inline"
       id="g2638"
       transform="matrix(0.35277777,0,0,-0.35277777,80.18975,106.17217)">
      <path
         d="m 0,0 c 2.302,0 2.561,-2.209 2.561,-2.209 v -4.622 c 0,0 -0.112,-1.006 -0.979,-1.182 -1.309,-0.266 -1.878,0.875 -2.465,2.137 -0.033,0.072 -0.781,1.927 -0.824,2.039 C -2.348,-2.262 -2.176,0 0,0"
         style="fill:#ffe1cc;fill-opacity:1;fill-rule:nonzero;stroke:none"
         id="path2640"
         inkscape:connector-curvature="0" />
    </g>
    <g
       style="display:inline"
       id="g2642"
       transform="matrix(0.35277777,0,0,-0.35277777,72.8193,135.03038)">
      <path
         d="m 0,0 c -0.193,-1.608 1.853,-2.925 3.316,-3.096 0.51,-0.062 0.856,-4.071 2.969,-4.184 0,0 0.123,1.051 0.27,2.897 0.012,0.146 0.431,1.687 -0.396,2.904 C 3.97,1.748 3.747,2.339 2.283,2.513 0.818,2.686 0.191,1.605 0,0"
         style="fill:#e8c5ac;fill-opacity:1;fill-rule:nonzero;stroke:none"
         id="path2644"
         inkscape:connector-curvature="0" />
    </g>
    <g
       style="display:inline"
       id="g2646"
       transform="matrix(0.35277777,0,0,-0.35277777,69.71735,142.22045)">
      <path
         d="M 0,0 C 0,-0.243 0.102,-0.521 0.262,-0.749 Z"
         style="fill:#6d320a;fill-opacity:1;fill-rule:nonzero;stroke:none"
         id="path2648"
         inkscape:connector-curvature="0" />
    </g>
    <g
       style="display:inline"
       id="g2650"
       transform="matrix(0.35277777,0,0,-0.35277777,69.72011,141.19331)">
      <path
         d="M 0,0 C -5.344,7.115 -6.164,14.62 -6.207,15.015 L -6.21,13.656 -6.047,12.82 c 0.426,-2.402 1.848,-8.42 6.043,-13.969 z"
         style="fill:#6d320a;fill-opacity:1;fill-rule:nonzero;stroke:none"
         id="path2652"
         inkscape:connector-curvature="0" />
    </g>
    <g
       style="display:inline"
       id="g2654"
       transform="matrix(0.35277777,0,0,-0.35277777,74.49467,144.97809)">
      <path
         d="M 0,0 C -0.003,-0.246 0.101,-0.522 0.261,-0.748 Z"
         style="fill:#6d320a;fill-opacity:1;fill-rule:nonzero;stroke:none"
         id="path2656"
         inkscape:connector-curvature="0" />
    </g>
    <g
       style="display:inline"
       id="g2658"
       transform="matrix(0.35277777,0,0,-0.35277777,77.50256,149.24811)">
      <path
         d="M 0,0 7.033,4.086 C 7.322,4.253 7.5,4.611 7.504,5.122 L 0.472,1.035 C 0.471,0.526 0.291,0.167 0,0"
         style="fill:#723919;fill-opacity:1;fill-rule:nonzero;stroke:none"
         id="path2660"
         inkscape:connector-curvature="0" />
    </g>
    <g
       style="display:inline"
       id="g2662"
       transform="matrix(0.35277777,0,0,-0.35277777,77.6893,141.76174)">
      <path
         d="M 0,0 -0.003,-1.356 -0.15,-2.012 c -0.887,-3.665 -3.11,-5.957 -6.116,-6.556 0,0 -6.263,0.901 -8.195,2.016 -2.034,1.174 -5.205,4.057 -5.56,4.264 l -2.573,2.75 c -4.195,5.55 -5.617,11.567 -6.043,13.97 l -0.163,0.835 -0.054,-18.83 c -0.001,-1.02 0.717,-2.269 1.608,-2.783 l 25.572,-14.765 c 0.891,-0.514 1.614,-0.097 1.616,0.925 z"
         style="fill:#8c532c;fill-opacity:1;fill-rule:nonzero;stroke:none"
         id="path2664"
         inkscape:connector-curvature="0" />
    </g>
    <g
       style="display:inline"
       id="g2666"
       transform="matrix(0.35277777,0,0,-0.35277777,77.6893,141.83994)">
      <path
         d="M 0,0 7.031,4.086 V 4.307 L 0,0.222 Z"
         style="fill:#5c361d;fill-opacity:1;fill-rule:nonzero;stroke:none"
         id="path2668"
         inkscape:connector-curvature="0" />
    </g>
    <g
       style="display:inline"
       id="g2670"
       transform="matrix(0.35277777,0,0,-0.35277777,77.6893,141.83994)">
      <path
         d="m 0,0 c -0.767,-4.064 -3.076,-6.603 -6.271,-7.235 0.005,-0.039 0.008,-0.08 0.008,-0.119 l -0.003,-0.993 c 3.006,0.599 5.229,2.891 6.116,6.556 l 0.147,0.656 z"
         style="fill:#6d320a;fill-opacity:1;fill-rule:nonzero;stroke:none"
         id="path2672"
         inkscape:connector-curvature="0" />
    </g>
    <g
       style="display:inline"
       id="g2674"
       transform="matrix(0.35277777,0,0,-0.35277777,67.53041,135.89632)">
      <path
         d="m 0,0 c 0.043,-0.396 0.863,-7.9 6.207,-15.015 v 0.239 c 0.004,0.407 0.293,0.571 0.647,0.368 l 1.5,-0.865 c 0.356,-0.205 0.642,-0.705 0.641,-1.111 L 8.99,-18.196 c 1.504,-1.477 3.254,-2.848 5.287,-4.022 1.932,-1.115 3.776,-1.754 5.469,-1.952 l 0.003,1.576 c 0.001,0.406 0.29,0.574 0.644,0.371 l 1.498,-0.866 c 0.324,-0.187 0.589,-0.613 0.635,-0.994 3.195,0.632 5.504,3.17 6.271,7.235 v 0.222 l -9.004,5.197 -1.314,0.761 -8.104,4.678 -1.314,0.76 z"
         style="fill:#a5683d;fill-opacity:1;fill-rule:nonzero;stroke:none"
         id="path2676"
         inkscape:connector-curvature="0" />
    </g>
    <g
       style="display:inline"
       id="g2678"
       transform="matrix(0.35277777,0,0,-0.35277777,70.01088,134.45455)">
      <path
         d="m 0,0 -7.031,-4.087 28.797,-16.626 -0.003,-1.357 -0.055,-18.829 c -10e-4,-0.51 -0.181,-0.868 -0.472,-1.036 l 7.034,4.086 c 0.289,0.168 0.466,0.525 0.47,1.036 l 0.057,20.185 z"
         style="fill:#6d3b18;fill-opacity:1;fill-rule:nonzero;stroke:none"
         id="path2680"
         inkscape:connector-curvature="0" />
    </g>
    <g
       style="display:inline"
       id="g2682"
       transform="matrix(0.35277777,0,0,-0.35277777,74.48123,144.39484)">
      <path
         d="m 0,0 c -1.691,0.2 -3.535,0.837 -5.466,1.95 -2.036,1.176 -3.785,2.548 -5.288,4.023 l -0.672,-0.173 0.15,-0.497 c 1.503,-1.468 3.77,-3.289 5.807,-4.465 1.93,-1.115 3.776,-1.752 5.466,-1.953 z"
         style="fill:#6d320a;fill-opacity:1;fill-rule:nonzero;stroke:none"
         id="path2684"
         inkscape:connector-curvature="0" />
    </g>
    <g
       style="display:inline"
       id="g2686"
       transform="matrix(0.35277777,0,0,-0.35277777,75.27498,145.01703)">
      <path
         d="m 0,0 -0.006,-1.519 c 0,-0.178 -0.062,-0.305 -0.166,-0.363 l 0.281,0.162 c 0.104,0.06 0.167,0.187 0.167,0.364 l 0.005,1.521 z"
         style="fill:#75460d;fill-opacity:1;fill-rule:nonzero;stroke:none"
         id="path2688"
         inkscape:connector-curvature="0" />
    </g>
    <g
       style="display:inline"
       id="g2690"
       transform="matrix(0.35277777,0,0,-0.35277777,75.27498,145.01703)">
      <path
         d="M 0,0 0.281,0.165 -2.008,1.484 -2.287,1.321 Z"
         style="fill:#eb921a;fill-opacity:1;fill-rule:nonzero;stroke:none"
         id="path2692"
         inkscape:connector-curvature="0" />
    </g>
    <g
       style="display:inline"
       id="g2694"
       transform="matrix(0.35277777,0,0,-0.35277777,74.46813,144.55108)">
      <path
         d="m 0,0 -0.006,-1.518 c 0,-0.362 0.252,-0.799 0.565,-0.978 l 1.155,-0.671 c 0.312,-0.178 0.567,-0.031 0.567,0.327 l 0.006,1.519 z"
         style="fill:#d87a13;fill-opacity:1;fill-rule:nonzero;stroke:none"
         id="path2696"
         inkscape:connector-curvature="0" />
    </g>
    <g
       style="display:inline"
       id="g2698"
       transform="matrix(0.35277777,0,0,-0.35277777,75.32046,144.00674)">
      <path
         d="M 0,0 -1.496,0.863 C -1.677,0.967 -1.84,0.977 -1.957,0.911 L -2.519,0.581 C -2.402,0.65 -2.24,0.638 -2.06,0.538 l 1.496,-0.864 c 0.327,-0.188 0.641,-0.683 0.641,-1.112 L 0.073,-3.28 0.637,-2.954 0.641,-1.112 C 0.641,-0.688 0.33,-0.19 0,0"
         style="fill:#89550f;fill-opacity:1;fill-rule:nonzero;stroke:none"
         id="path2700"
         inkscape:connector-curvature="0" />
    </g>
    <g
       style="display:inline"
       id="g2702"
       transform="matrix(0.35277777,0,0,-0.35277777,74.59386,143.8171)">
      <path
         d="m 0,0 c -0.356,0.205 -0.646,0.041 -0.647,-0.369 l -0.004,-1.843 2.784,-1.605 0.004,1.841 c 0.003,0.409 -0.283,0.907 -0.642,1.112 z"
         style="fill:#f99b1c;fill-opacity:1;fill-rule:nonzero;stroke:none"
         id="path2704"
         inkscape:connector-curvature="0" />
    </g>
    <g
       style="display:inline"
       id="g2706"
       transform="matrix(0.35277777,0,0,-0.35277777,70.44149,142.2897)">
      <path
         d="m 0,0 -0.003,-1.517 c 0,-0.181 -0.065,-0.307 -0.167,-0.364 l 0.28,0.161 c 0.103,0.059 0.167,0.187 0.167,0.363 l 0.004,1.521 z"
         style="fill:#75460d;fill-opacity:1;fill-rule:nonzero;stroke:none"
         id="path2708"
         inkscape:connector-curvature="0" />
    </g>
    <g
       style="display:inline"
       id="g2710"
       transform="matrix(0.35277777,0,0,-0.35277777,70.44149,142.2897)">
      <path
         d="M 0,0 0.281,0.164 -2.006,1.484 -2.288,1.322 Z"
         style="fill:#eb921a;fill-opacity:1;fill-rule:nonzero;stroke:none"
         id="path2712"
         inkscape:connector-curvature="0" />
    </g>
    <g
       style="display:inline"
       id="g2714"
       transform="matrix(0.35277777,0,0,-0.35277777,69.6343,141.82327)">
      <path
         d="m 0,0 -0.004,-1.521 c 0,-0.358 0.251,-0.8 0.565,-0.977 l 1.155,-0.67 c 0.311,-0.177 0.567,-0.034 0.569,0.329 l 0.003,1.517 z"
         style="fill:#d87a13;fill-opacity:1;fill-rule:nonzero;stroke:none"
         id="path2716"
         inkscape:connector-curvature="0" />
    </g>
    <g
       style="display:inline"
       id="g2718"
       transform="matrix(0.35277777,0,0,-0.35277777,70.48663,141.27996)">
      <path
         d="M 0,0 -1.495,0.865 C -1.675,0.97 -1.837,0.979 -1.953,0.909 L -2.517,0.584 c 0.117,0.069 0.28,0.059 0.459,-0.044 l 1.496,-0.865 c 0.069,-0.04 0.131,-0.092 0.196,-0.152 0.009,-0.01 0.023,-0.02 0.035,-0.032 0.23,-0.237 0.412,-0.603 0.412,-0.929 L 0.075,-3.281 0.638,-2.952 0.642,-1.11 C 0.642,-0.691 0.335,-0.19 0,0"
         style="fill:#89550f;fill-opacity:1;fill-rule:nonzero;stroke:none"
         id="path2720"
         inkscape:connector-curvature="0" />
    </g>
    <g
       style="display:inline"
       id="g2722"
       transform="matrix(0.35277777,0,0,-0.35277777,69.76075,141.08946)">
      <path
         d="m 0,0 c -0.358,0.205 -0.646,0.041 -0.646,-0.372 l -0.006,-1.839 2.785,-1.61 0.006,1.842 c 0,0.411 -0.287,0.907 -0.643,1.114 z"
         style="fill:#f99b1c;fill-opacity:1;fill-rule:nonzero;stroke:none"
         id="path2724"
         inkscape:connector-curvature="0" />
    </g>
    <g
       style="display:inline"
       id="g2726"
       transform="matrix(0.35277777,0,0,-0.35277777,-531.98235,817.01133)">
      <g
         id="g2728"
         clip-path="url(#clipPath2732)">
        <g
           id="g2734"
           transform="translate(1724.1328,1922.6187)">
          <path
             d="M 0,0 0.003,-0.653 C 0.16,-0.56 0.24,-0.442 0.24,-0.323 L 0.238,0.328 C 0.238,0.211 0.158,0.089 0,0"
             style="fill:#f99b1c;fill-opacity:1;fill-rule:nonzero;stroke:none"
             id="path2736"
             inkscape:connector-curvature="0" />
        </g>
      </g>
    </g>
    <g
       style="display:inline"
       id="g2738"
       transform="matrix(0.35277777,0,0,-0.35277777,-531.98235,817.01133)">
      <g
         id="g2740"
         clip-path="url(#clipPath2744)">
        <g
           id="g2746"
           transform="translate(1719.5215,1921.9619)">
          <path
             d="m 0,0 0.002,-0.65 c 0,-0.119 0.08,-0.235 0.234,-0.324 l -0.004,0.65 C 0.079,-0.235 0,-0.117 0,0"
             style="fill:#ea921a;fill-opacity:1;fill-rule:nonzero;stroke:none"
             id="path2748"
             inkscape:connector-curvature="0" />
        </g>
      </g>
    </g>
    <g
       style="display:inline"
       id="g2750"
       transform="matrix(0.35277777,0,0,-0.35277777,-531.98235,817.01133)">
      <g
         id="g2752"
         clip-path="url(#clipPath2756)">
        <g
           id="g2758"
           transform="translate(1719.7539,1921.6377)">
          <path
             d="M 0,0 0.004,-0.65 0.777,-1.1 0.776,-0.45 Z"
             style="fill:#ea921a;fill-opacity:1;fill-rule:nonzero;stroke:none"
             id="path2760"
             inkscape:connector-curvature="0" />
        </g>
        <g
           id="g2762"
           transform="translate(1721.6582,1921.188)">
          <path
             d="M 0,0 V -0.65 L 2.478,0.777 2.475,1.431 Z"
             style="fill:#ffc585;fill-opacity:1;fill-rule:nonzero;stroke:none"
             id="path2764"
             inkscape:connector-curvature="0" />
        </g>
      </g>
    </g>
    <g
       style="display:inline"
       id="g2766"
       transform="matrix(0.35277777,0,0,-0.35277777,-531.98235,817.01133)">
      <g
         id="g2768"
         clip-path="url(#clipPath2772)">
        <g
           id="g2774"
           transform="translate(1720.5303,1921.188)">
          <path
             d="m 0,0 0.001,-0.65 c 0.309,-0.181 0.814,-0.181 1.127,0 V 0 C 0.813,-0.182 0.308,-0.181 0,0"
             style="fill:#f99b1c;fill-opacity:1;fill-rule:nonzero;stroke:none"
             id="path2776"
             inkscape:connector-curvature="0" />
        </g>
      </g>
    </g>
    <g
       style="display:inline"
       id="g2778"
       transform="matrix(0.35277777,0,0,-0.35277777,-531.98235,817.01133)">
      <g
         id="g2780"
         clip-path="url(#clipPath2784)">
        <g
           id="g2786"
           transform="translate(1719.7588,1922.2896)">
          <path
             d="m 0,0 c -0.313,-0.18 -0.315,-0.469 -0.005,-0.652 l 0.776,-0.45 c 0.308,-0.181 0.813,-0.182 1.128,0 L 4.374,0.329 C 4.688,0.508 4.689,0.803 4.382,0.981 L 3.606,1.433 C 3.296,1.613 2.79,1.609 2.478,1.43 Z"
             style="fill:#ffb255;fill-opacity:1;fill-rule:nonzero;stroke:none"
             id="path2788"
             inkscape:connector-curvature="0" />
        </g>
      </g>
    </g>
    <g
       style="display:inline"
       id="g2790"
       transform="matrix(0.35277777,0,0,-0.35277777,-531.98235,817.01133)">
      <g
         id="g2792"
         clip-path="url(#clipPath2796)">
        <g
           id="g2798"
           transform="translate(1714.7559,1928.1035)">
          <path
             d="M 0,0 0.003,-0.651 C 0.16,-0.56 0.239,-0.439 0.239,-0.32 L 0.236,0.331 C 0.236,0.211 0.158,0.091 0,0"
             style="fill:#f99b1c;fill-opacity:1;fill-rule:nonzero;stroke:none"
             id="path2800"
             inkscape:connector-curvature="0" />
        </g>
      </g>
    </g>
    <g
       style="display:inline"
       id="g2802"
       transform="matrix(0.35277777,0,0,-0.35277777,-531.98235,817.01133)">
      <g
         id="g2804"
         clip-path="url(#clipPath2808)">
        <g
           id="g2810"
           transform="translate(1710.1455,1927.4492)">
          <path
             d="m 0,0 0.003,-0.649 c 0,-0.122 0.076,-0.238 0.23,-0.325 v 0.65 C 0.078,-0.237 0,-0.117 0,0"
             style="fill:#ea921a;fill-opacity:1;fill-rule:nonzero;stroke:none"
             id="path2812"
             inkscape:connector-curvature="0" />
        </g>
      </g>
    </g>
    <g
       style="display:inline"
       id="g2814"
       transform="matrix(0.35277777,0,0,-0.35277777,-531.98235,817.01133)">
      <g
         id="g2816"
         clip-path="url(#clipPath2820)">
        <g
           id="g2822"
           transform="translate(1710.3789,1927.1255)">
          <path
             d="M 0,0 V -0.65 L 0.775,-1.102 0.773,-0.451 Z"
             style="fill:#ea921a;fill-opacity:1;fill-rule:nonzero;stroke:none"
             id="path2824"
             inkscape:connector-curvature="0" />
        </g>
        <g
           id="g2826"
           transform="translate(1712.2803,1926.6743)">
          <path
             d="M 0,0 0.001,-0.651 2.479,0.778 2.476,1.429 Z"
             style="fill:#ffc585;fill-opacity:1;fill-rule:nonzero;stroke:none"
             id="path2828"
             inkscape:connector-curvature="0" />
        </g>
      </g>
    </g>
    <g
       style="display:inline"
       id="g2830"
       transform="matrix(0.35277777,0,0,-0.35277777,-531.98235,817.01133)">
      <g
         id="g2832"
         clip-path="url(#clipPath2836)">
        <g
           id="g2838"
           transform="translate(1711.1523,1926.6743)">
          <path
             d="m 0,0 0.002,-0.651 c 0.309,-0.179 0.814,-0.181 1.127,0 L 1.128,0 C 0.814,-0.183 0.309,-0.179 0,0"
             style="fill:#f99b1c;fill-opacity:1;fill-rule:nonzero;stroke:none"
             id="path2840"
             inkscape:connector-curvature="0" />
        </g>
      </g>
    </g>
    <g
       style="display:inline"
       id="g2842"
       transform="matrix(0.35277777,0,0,-0.35277777,-531.98235,817.01133)">
      <g
         id="g2844"
         clip-path="url(#clipPath2848)">
        <g
           id="g2850"
           transform="translate(1710.3828,1927.7783)">
          <path
             d="M 0,0 C -0.314,-0.182 -0.316,-0.472 -0.004,-0.653 L 0.77,-1.104 c 0.308,-0.179 0.814,-0.183 1.127,0 L 4.373,0.325 C 4.688,0.507 4.689,0.799 4.38,0.98 L 3.605,1.429 c -0.31,0.181 -0.817,0.181 -1.129,0 z"
             style="fill:#ffb255;fill-opacity:1;fill-rule:nonzero;stroke:none"
             id="path2852"
             inkscape:connector-curvature="0" />
        </g>
        <g
           id="g2854"
           transform="translate(1714.9043,1929.4878)">
          <path
             d="m 0,0 -1.126,-0.654 c -0.536,-0.313 -0.927,-0.874 -1.106,-1.651 l 1.125,0.653 C -0.928,-0.875 -0.537,-0.312 0,0"
             style="fill:#8c532c;fill-opacity:1;fill-rule:nonzero;stroke:none"
             id="path2856"
             inkscape:connector-curvature="0" />
        </g>
      </g>
    </g>
    <g
       style="display:inline"
       id="g2858"
       transform="matrix(0.35277777,0,0,-0.35277777,-531.98235,817.01133)">
      <g
         id="g2860"
         clip-path="url(#clipPath2864)">
        <g
           id="g2866"
           transform="translate(1712.6719,1927.1831)">
          <path
             d="m 0,0 1.125,0.653 c 0.18,0.777 0.57,1.34 1.107,1.652 L 1.106,1.65 C 0.57,1.338 0.18,0.776 0,0"
             style="fill:#8c532c;fill-opacity:1;fill-rule:nonzero;stroke:none"
             id="path2868"
             inkscape:connector-curvature="0" />
        </g>
      </g>
    </g>
    <g
       style="display:inline"
       id="g2878"
       transform="matrix(0.35277777,0,0,-0.35277777,72.67667,135.77641)">
      <path
         d="M 0,0 C 3.131,1.82 8.475,-3.257 9.222,-8.66 L 8.096,-9.314 C 7.353,-3.92 2.01,1.169 -1.127,-0.654 Z"
         style="fill:#8c532c;fill-opacity:1;fill-rule:nonzero;stroke:none"
         id="path2880"
         inkscape:connector-curvature="0" />
    </g>
    <g
       style="display:inline"
       id="g2882"
       transform="matrix(0.35277777,0,0,-0.35277777,73.64441,136.13969)">
      <path
         d="m 0,0 c -2.683,1.552 -4.923,0.594 -5.379,-2.089 l 1.314,-0.758 c 0.433,1.873 2.089,2.504 4.061,1.365 1.972,-1.139 3.62,-3.677 4.044,-6.045 L 5.353,-8.284 C 4.915,-5.084 2.686,-1.55 0,0"
         style="fill:#a5683d;fill-opacity:1;fill-rule:nonzero;stroke:none"
         id="path2884"
         inkscape:connector-curvature="0" />
    </g>
    <g
       style="display:inline"
       id="g2886"
       transform="matrix(0.35277777,0,0,-0.35277777,72.20126,134.18202)">
      <path
         d="M 0,0 4.232,-0.458 5.789,-1.087 5.135,-6.465 c 0,0 -0.153,-0.872 0.521,-1.943 0.266,-0.426 0.733,-1.153 0.733,-1.153 0,0 0.226,-3.22 -2.229,-2.601 -0.795,0.197 -1.369,0.823 -1.369,0.823 -1.07,0.137 -2.848,0.575 -4.032,0.797 -2.736,0.516 -2.093,3.767 -2.093,3.767 l 0.316,3.203 C -2.859,-1.775 -1.938,0.207 0,0"
         style="fill:#ffe1cc;fill-opacity:1;fill-rule:nonzero;stroke:none"
         id="path2888"
         inkscape:connector-curvature="0" />
    </g>
    <g
       style="display:inline"
       id="g2890"
       transform="matrix(0.35277777,0,0,-0.35277777,72.53199,135.31391)">
      <path
         d="m 0,0 c -1.66,-0.01 -2.725,0.636 -2.725,0.636 0,0 -1.443,0.745 -1.482,2.113 -0.119,4.092 0.751,21.947 1.441,26.987 0.758,5.535 4.95,19.736 4.95,19.736 -0.018,-0.086 2.211,10.412 8.236,9.459 5.051,-0.795 5.181,-5.594 4.48,-10.017 C 14.352,45.434 8.677,26.763 8.677,26.763 L 5.572,2.029 C 5.572,2.029 3.861,0.019 0,0"
         style="fill:#585e60;fill-opacity:1;fill-rule:nonzero;stroke:none"
         id="path2892"
         inkscape:connector-curvature="0" />
    </g>
  </g>
</svg>
