<?xml version="1.0" encoding="UTF-8" standalone="no"?>
<!-- Created with Inkscape (http://www.inkscape.org/) -->

<svg
   xmlns:dc="http://purl.org/dc/elements/1.1/"
   xmlns:cc="http://creativecommons.org/ns#"
   xmlns:rdf="http://www.w3.org/1999/02/22-rdf-syntax-ns#"
   xmlns:svg="http://www.w3.org/2000/svg"
   xmlns="http://www.w3.org/2000/svg"
   xmlns:sodipodi="http://sodipodi.sourceforge.net/DTD/sodipodi-0.dtd"
   xmlns:inkscape="http://www.inkscape.org/namespaces/inkscape"
   width="21.423372mm"
   height="61.022167mm"
   viewBox="0 0 21.42337 61.022166"
   version="1.1"
   id="svg45331"
   inkscape:version="0.92.3 (2405546, 2018-03-11)"
   sodipodi:docname="people-casual-15.svg">
  <defs
     id="defs45325">
    <clipPath
       id="clipPath2864"
       clipPathUnits="userSpaceOnUse">
      <path
         inkscape:connector-curvature="0"
         id="path2862"
         d="m 1713.778,1928.833 c -0.536,-0.312 -0.927,-0.874 -1.106,-1.65 v 0 l 1.125,0.653 c 0.179,0.778 0.57,1.34 1.107,1.651 v 0 z" />
    </clipPath>
    <clipPath
       id="clipPath2848"
       clipPathUnits="userSpaceOnUse">
      <path
         inkscape:connector-curvature="0"
         id="path2846"
         d="M 0,2119.953 H 3253.108 V 0 H 0 Z" />
    </clipPath>
    <clipPath
       id="clipPath2836"
       clipPathUnits="userSpaceOnUse">
      <path
         inkscape:connector-curvature="0"
         id="path2834"
         d="m 1711.152,1926.674 v -0.651 c 0.308,-0.179 0.813,-0.18 1.126,0 v 0 0.651 c -0.315,-0.183 -0.82,-0.178 -1.129,0" />
    </clipPath>
    <clipPath
       id="clipPath2820"
       clipPathUnits="userSpaceOnUse">
      <path
         inkscape:connector-curvature="0"
         id="path2818"
         d="M 0,2119.953 H 3253.108 V 0 H 0 Z" />
    </clipPath>
    <clipPath
       id="clipPath2808"
       clipPathUnits="userSpaceOnUse">
      <path
         inkscape:connector-curvature="0"
         id="path2806"
         d="m 1710.148,1926.8 c 0,-0.121 0.077,-0.238 0.231,-0.325 v 0 0.65 c -0.156,0.087 -0.233,0.207 -0.233,0.324 v 0 -0.649 z" />
    </clipPath>
    <clipPath
       id="clipPath2796"
       clipPathUnits="userSpaceOnUse">
      <path
         inkscape:connector-curvature="0"
         id="path2794"
         d="m 1714.756,1928.103 v -0.65 c 0.158,0.09 0.237,0.211 0.237,0.331 v 0 0.65 c 0,-0.119 -0.078,-0.24 -0.236,-0.331" />
    </clipPath>
    <clipPath
       id="clipPath2784"
       clipPathUnits="userSpaceOnUse">
      <path
         inkscape:connector-curvature="0"
         id="path2782"
         d="M 0,2119.953 H 3253.108 V 0 H 0 Z" />
    </clipPath>
    <clipPath
       id="clipPath2772"
       clipPathUnits="userSpaceOnUse">
      <path
         inkscape:connector-curvature="0"
         id="path2770"
         d="m 1720.53,1921.188 10e-4,-0.65 c 0.309,-0.181 0.814,-0.181 1.128,0 v 0 0.65 c -0.316,-0.182 -0.821,-0.181 -1.129,0" />
    </clipPath>
    <clipPath
       id="clipPath2756"
       clipPathUnits="userSpaceOnUse">
      <path
         inkscape:connector-curvature="0"
         id="path2754"
         d="M 0,2119.953 H 3253.108 V 0 H 0 Z" />
    </clipPath>
    <clipPath
       id="clipPath2744"
       clipPathUnits="userSpaceOnUse">
      <path
         inkscape:connector-curvature="0"
         id="path2742"
         d="m 1719.524,1921.312 c 0,-0.119 0.08,-0.235 0.234,-0.324 v 0 0.65 c -0.154,0.089 -0.233,0.207 -0.233,0.324 v 0 -0.65 z" />
    </clipPath>
    <clipPath
       id="clipPath2732"
       clipPathUnits="userSpaceOnUse">
      <path
         inkscape:connector-curvature="0"
         id="path2730"
         d="m 1724.133,1922.619 v -0.654 c 0.158,0.094 0.238,0.212 0.238,0.331 v 0 0.65 c 0,-0.117 -0.08,-0.238 -0.238,-0.327" />
    </clipPath>
    <clipPath
       id="clipPath2536"
       clipPathUnits="userSpaceOnUse">
      <path
         inkscape:connector-curvature="0"
         id="path2534"
         d="m 1708.77,1889.11 h 53.56 v -38.31 h -53.56 z" />
    </clipPath>
    <clipPath
       id="clipPath3428"
       clipPathUnits="userSpaceOnUse">
      <path
         inkscape:connector-curvature="0"
         id="path3426"
         d="m 1819.231,1919.634 0.051,-0.722 c 0.167,0.114 0.248,0.253 0.238,0.383 v 0 l -0.048,0.721 c 0.01,-0.131 -0.071,-0.272 -0.241,-0.382" />
    </clipPath>
    <clipPath
       id="clipPath3440"
       clipPathUnits="userSpaceOnUse">
      <path
         inkscape:connector-curvature="0"
         id="path3438"
         d="m 1814.225,1917.859 c 0.01,-0.132 0.103,-0.255 0.282,-0.343 v 0 l -0.049,0.721 c -0.177,0.085 -0.273,0.212 -0.281,0.34 v 0 z" />
    </clipPath>
    <clipPath
       id="clipPath3452"
       clipPathUnits="userSpaceOnUse">
      <path
         inkscape:connector-curvature="0"
         id="path3450"
         d="M 0,2119.953 H 3253.108 V 0 H 0 Z" />
    </clipPath>
    <clipPath
       id="clipPath3468"
       clipPathUnits="userSpaceOnUse">
      <path
         inkscape:connector-curvature="0"
         id="path3466"
         d="m 1815.349,1917.792 0.046,-0.72 c 0.354,-0.177 0.915,-0.14 1.248,0.082 v 0 l -0.048,0.721 c -0.335,-0.223 -0.893,-0.259 -1.246,-0.083" />
    </clipPath>
    <clipPath
       id="clipPath3480"
       clipPathUnits="userSpaceOnUse">
      <path
         inkscape:connector-curvature="0"
         id="path3478"
         d="M 0,2119.953 H 3253.108 V 0 H 0 Z" />
    </clipPath>
    <clipPath
       id="clipPath3492"
       clipPathUnits="userSpaceOnUse">
      <path
         inkscape:connector-curvature="0"
         id="path3490"
         d="m 1808.461,1925.033 0.049,-0.719 c 0.167,0.112 0.245,0.25 0.238,0.383 v 0 l -0.049,0.719 c 0.01,-0.131 -0.07,-0.268 -0.238,-0.383" />
    </clipPath>
    <clipPath
       id="clipPath3504"
       clipPathUnits="userSpaceOnUse">
      <path
         inkscape:connector-curvature="0"
         id="path3502"
         d="m 1803.454,1923.259 c 0.01,-0.132 0.102,-0.258 0.279,-0.342 v 0 l -0.048,0.72 c -0.177,0.086 -0.273,0.214 -0.28,0.342 v 0 z" />
    </clipPath>
    <clipPath
       id="clipPath3516"
       clipPathUnits="userSpaceOnUse">
      <path
         inkscape:connector-curvature="0"
         id="path3514"
         d="M 0,2119.953 H 3253.108 V 0 H 0 Z" />
    </clipPath>
    <clipPath
       id="clipPath3532"
       clipPathUnits="userSpaceOnUse">
      <path
         inkscape:connector-curvature="0"
         id="path3530"
         d="m 1804.576,1923.193 0.047,-0.721 c 0.353,-0.175 0.915,-0.14 1.248,0.081 v 0 l -0.049,0.722 c -0.333,-0.223 -0.894,-0.258 -1.246,-0.082" />
    </clipPath>
    <clipPath
       id="clipPath3544"
       clipPathUnits="userSpaceOnUse">
      <path
         inkscape:connector-curvature="0"
         id="path3542"
         d="M 0,2119.953 H 3253.108 V 0 H 0 Z" />
    </clipPath>
    <clipPath
       id="clipPath3560"
       clipPathUnits="userSpaceOnUse">
      <path
         inkscape:connector-curvature="0"
         id="path3558"
         d="m 1807.327,1925.772 c -0.572,-0.383 -0.964,-1.034 -1.106,-1.907 v 0 l 1.197,0.803 c 0.144,0.873 0.537,1.525 1.109,1.907 v 0 z" />
    </clipPath>
    <clipPath
       id="clipPath3240"
       clipPathUnits="userSpaceOnUse">
      <path
         inkscape:connector-curvature="0"
         id="path3238"
         d="m 1804.45,1875.26 h 66.26 v -26.97 h -66.26 z" />
    </clipPath>
    <clipPath
       id="clipPath3596"
       clipPathUnits="userSpaceOnUse">
      <path
         inkscape:connector-curvature="0"
         id="path3594"
         d="m 1887.55,1874.88 h 68.5 v -28.2 h -68.5 z" />
    </clipPath>
    <clipPath
       id="clipPath3760"
       clipPathUnits="userSpaceOnUse">
      <path
         inkscape:connector-curvature="0"
         id="path3758"
         d="m 1940.709,1921.043 c -0.01,-0.134 0.073,-0.277 0.243,-0.394 v 0 l 0.052,0.743 c -0.176,0.111 -0.256,0.256 -0.246,0.388 v 0 z" />
    </clipPath>
    <clipPath
       id="clipPath3772"
       clipPathUnits="userSpaceOnUse">
      <path
         inkscape:connector-curvature="0"
         id="path3770"
         d="m 1945.896,1919.955 -0.048,-0.737 c 0.182,0.088 0.281,0.215 0.289,0.351 v 0 l 0.048,0.737 c -0.01,-0.134 -0.106,-0.261 -0.289,-0.351" />
    </clipPath>
    <clipPath
       id="clipPath3784"
       clipPathUnits="userSpaceOnUse">
      <path
         inkscape:connector-curvature="0"
         id="path3782"
         d="M 0,2119.953 H 3253.108 V 0 H 0 Z" />
    </clipPath>
    <clipPath
       id="clipPath3800"
       clipPathUnits="userSpaceOnUse">
      <path
         inkscape:connector-curvature="0"
         id="path3798"
         d="m 1943.658,1918.845 c 0.343,-0.226 0.914,-0.264 1.28,-0.084 v 0 l 0.047,0.741 c -0.361,-0.182 -0.936,-0.146 -1.28,0.084 v 0 z" />
    </clipPath>
    <clipPath
       id="clipPath3812"
       clipPathUnits="userSpaceOnUse">
      <path
         inkscape:connector-curvature="0"
         id="path3810"
         d="M 0,2119.953 H 3253.108 V 0 H 0 Z" />
    </clipPath>
    <clipPath
       id="clipPath3824"
       clipPathUnits="userSpaceOnUse">
      <path
         inkscape:connector-curvature="0"
         id="path3822"
         d="m 1951.754,1926.58 c -0.01,-0.136 0.071,-0.278 0.241,-0.392 v 0 l 0.052,0.737 c -0.174,0.117 -0.253,0.258 -0.245,0.391 v 0 z" />
    </clipPath>
    <clipPath
       id="clipPath3836"
       clipPathUnits="userSpaceOnUse">
      <path
         inkscape:connector-curvature="0"
         id="path3834"
         d="m 1956.943,1925.491 -0.049,-0.737 c 0.18,0.088 0.277,0.215 0.287,0.352 v 0 l 0.049,0.737 c -0.01,-0.132 -0.104,-0.262 -0.287,-0.352" />
    </clipPath>
    <clipPath
       id="clipPath3848"
       clipPathUnits="userSpaceOnUse">
      <path
         inkscape:connector-curvature="0"
         id="path3846"
         d="M 0,2119.953 H 3253.108 V 0 H 0 Z" />
    </clipPath>
    <clipPath
       id="clipPath3864"
       clipPathUnits="userSpaceOnUse">
      <path
         inkscape:connector-curvature="0"
         id="path3862"
         d="m 1954.703,1924.383 c 0.34,-0.229 0.916,-0.262 1.279,-0.086 v 0 l 0.049,0.743 c -0.361,-0.183 -0.938,-0.15 -1.279,0.081 v 0 z" />
    </clipPath>
    <clipPath
       id="clipPath3876"
       clipPathUnits="userSpaceOnUse">
      <path
         inkscape:connector-curvature="0"
         id="path3874"
         d="M 0,2119.953 H 3253.108 V 0 H 0 Z" />
    </clipPath>
    <clipPath
       id="clipPath3892"
       clipPathUnits="userSpaceOnUse">
      <path
         inkscape:connector-curvature="0"
         id="path3890"
         d="m 1953.117,1926.55 1.227,-0.822 c -0.145,0.891 -0.551,1.561 -1.133,1.955 v 0 l -1.232,0.823 c 0.588,-0.393 0.989,-1.061 1.138,-1.956" />
    </clipPath>
    <clipPath
       id="clipPath3948"
       clipPathUnits="userSpaceOnUse">
      <path
         inkscape:connector-curvature="0"
         id="path3946"
         d="m 2018.76,1870.93 h 70.11 v -23.75 h -70.11 z" />
    </clipPath>
    <clipPath
       id="clipPath4212"
       clipPathUnits="userSpaceOnUse">
      <path
         inkscape:connector-curvature="0"
         id="path4210"
         d="m 2154.433,1916.311 c 0,-0.141 0.087,-0.289 0.273,-0.405 v 0 l 0.028,0.784 c -0.187,0.117 -0.276,0.264 -0.271,0.407 v 0 z" />
    </clipPath>
    <clipPath
       id="clipPath4224"
       clipPathUnits="userSpaceOnUse">
      <path
         inkscape:connector-curvature="0"
         id="path4222"
         d="m 2159.973,1915.328 -0.03,-0.782 c 0.192,0.1 0.289,0.239 0.295,0.381 v 0 l 0.027,0.785 c 0,-0.142 -0.103,-0.28 -0.292,-0.384" />
    </clipPath>
    <clipPath
       id="clipPath4236"
       clipPathUnits="userSpaceOnUse">
      <path
         inkscape:connector-curvature="0"
         id="path4234"
         d="M 0,2119.953 H 3253.108 V 0 H 0 Z" />
    </clipPath>
    <clipPath
       id="clipPath4252"
       clipPathUnits="userSpaceOnUse">
      <path
         inkscape:connector-curvature="0"
         id="path4250"
         d="m 2157.634,1914.081 c 0.368,-0.23 0.978,-0.251 1.357,-0.046 v 0 l 0.029,0.783 c -0.377,-0.203 -0.988,-0.185 -1.36,0.049 v 0 z" />
    </clipPath>
    <clipPath
       id="clipPath4264"
       clipPathUnits="userSpaceOnUse">
      <path
         inkscape:connector-curvature="0"
         id="path4262"
         d="M 0,2119.953 H 3253.108 V 0 H 0 Z" />
    </clipPath>
    <clipPath
       id="clipPath4276"
       clipPathUnits="userSpaceOnUse">
      <path
         inkscape:connector-curvature="0"
         id="path4274"
         d="m 2165.961,1922.544 c 0,-0.146 0.086,-0.293 0.271,-0.409 v 0 l 0.032,0.784 c -0.188,0.117 -0.279,0.265 -0.274,0.408 v 0 z" />
    </clipPath>
    <clipPath
       id="clipPath4288"
       clipPathUnits="userSpaceOnUse">
      <path
         inkscape:connector-curvature="0"
         id="path4286"
         d="m 2171.5,1921.561 -0.028,-0.785 c 0.189,0.101 0.287,0.239 0.293,0.379 v 0 l 0.028,0.787 c 0,-0.142 -0.102,-0.281 -0.293,-0.381" />
    </clipPath>
    <clipPath
       id="clipPath4300"
       clipPathUnits="userSpaceOnUse">
      <path
         inkscape:connector-curvature="0"
         id="path4298"
         d="M 0,2119.953 H 3253.108 V 0 H 0 Z" />
    </clipPath>
    <clipPath
       id="clipPath4316"
       clipPathUnits="userSpaceOnUse">
      <path
         inkscape:connector-curvature="0"
         id="path4314"
         d="m 2169.16,1920.31 c 0.37,-0.229 0.979,-0.249 1.359,-0.045 v 0 l 0.03,0.784 c -0.379,-0.201 -0.99,-0.186 -1.36,0.046 v 0 z" />
    </clipPath>
    <clipPath
       id="clipPath4328"
       clipPathUnits="userSpaceOnUse">
      <path
         inkscape:connector-curvature="0"
         id="path4326"
         d="M 0,2119.953 H 3253.108 V 0 H 0 Z" />
    </clipPath>
    <clipPath
       id="clipPath4344"
       clipPathUnits="userSpaceOnUse">
      <path
         inkscape:connector-curvature="0"
         id="path4342"
         d="m 2167.406,1922.556 1.331,-0.832 c -0.186,0.942 -0.633,1.637 -1.266,2.036 v 0 l -1.332,0.833 c 0.636,-0.396 1.084,-1.091 1.267,-2.037" />
    </clipPath>
    <clipPath
       id="clipPath4598"
       clipPathUnits="userSpaceOnUse">
      <path
         inkscape:connector-curvature="0"
         id="path4596"
         d="m 2331.633,1939.514 c 0,-0.142 0.1,-0.287 0.296,-0.396 v 0 0.783 c -0.196,0.107 -0.292,0.246 -0.292,0.387 v 0 -0.774 z" />
    </clipPath>
    <clipPath
       id="clipPath4610"
       clipPathUnits="userSpaceOnUse">
      <path
         inkscape:connector-curvature="0"
         id="path4608"
         d="m 2337.17,1938.719 v -0.771 c 0.189,0.099 0.285,0.249 0.285,0.379 v 0 0.787 c 0,-0.14 -0.091,-0.287 -0.283,-0.395" />
    </clipPath>
    <clipPath
       id="clipPath4622"
       clipPathUnits="userSpaceOnUse">
      <path
         inkscape:connector-curvature="0"
         id="path4620"
         d="M 0,2119.953 H 3253.108 V 0 H 0 Z" />
    </clipPath>
    <clipPath
       id="clipPath4638"
       clipPathUnits="userSpaceOnUse">
      <path
         inkscape:connector-curvature="0"
         id="path4636"
         d="m 2334.888,1938.187 v -0.785 c 0.382,-0.217 0.981,-0.217 1.349,0 v 0 0.785 c -0.368,-0.217 -0.963,-0.217 -1.349,0" />
    </clipPath>
    <clipPath
       id="clipPath4650"
       clipPathUnits="userSpaceOnUse">
      <path
         inkscape:connector-curvature="0"
         id="path4648"
         d="M 0,2119.953 H 3253.108 V 0 H 0 Z" />
    </clipPath>
    <clipPath
       id="clipPath4662"
       clipPathUnits="userSpaceOnUse">
      <path
         inkscape:connector-curvature="0"
         id="path4660"
         d="m 2342.868,1946.09 c 0,-0.141 0.101,-0.294 0.291,-0.401 v 0 l 0.01,0.777 c -0.195,0.113 -0.291,0.255 -0.291,0.401 v 0 z" />
    </clipPath>
    <clipPath
       id="clipPath4674"
       clipPathUnits="userSpaceOnUse">
      <path
         inkscape:connector-curvature="0"
         id="path4672"
         d="m 2348.401,1945.298 v -0.782 c 0.182,0.104 0.277,0.25 0.277,0.39 v 0 l 0.01,0.781 c 0,-0.143 -0.095,-0.282 -0.282,-0.389" />
    </clipPath>
    <clipPath
       id="clipPath4686"
       clipPathUnits="userSpaceOnUse">
      <path
         inkscape:connector-curvature="0"
         id="path4684"
         d="M 0,2119.953 H 3253.108 V 0 H 0 Z" />
    </clipPath>
    <clipPath
       id="clipPath4702"
       clipPathUnits="userSpaceOnUse">
      <path
         inkscape:connector-curvature="0"
         id="path4700"
         d="m 2346.127,1944.756 v -0.778 c 0.376,-0.212 0.982,-0.212 1.348,0 v 0 0.778 c -0.366,-0.213 -0.972,-0.213 -1.348,0" />
    </clipPath>
    <clipPath
       id="clipPath4714"
       clipPathUnits="userSpaceOnUse">
      <path
         inkscape:connector-curvature="0"
         id="path4712"
         d="M 0,2119.953 H 3253.108 V 0 H 0 Z" />
    </clipPath>
    <clipPath
       id="clipPath4730"
       clipPathUnits="userSpaceOnUse">
      <path
         inkscape:connector-curvature="0"
         id="path4728"
         d="m 2343.05,1948.089 c -0.023,0.013 -0.045,0.026 -0.068,0.038 v 0 z m 1.257,-1.939 1.349,-0.782 c -0.21,0.926 -0.683,1.603 -1.326,1.976 v 0 l -1.28,0.745 c 0.612,-0.371 1.048,-1.041 1.257,-1.939" />
    </clipPath>
    <clipPath
       id="clipPath4742"
       clipPathUnits="userSpaceOnUse">
      <path
         inkscape:connector-curvature="0"
         id="path4740"
         d="M 0,2119.953 H 3253.108 V 0 H 0 Z" />
    </clipPath>
    <clipPath
       id="clipPath4918"
       clipPathUnits="userSpaceOnUse">
      <path
         inkscape:connector-curvature="0"
         id="path4916"
         d="m 2276.169,1866.541 c 0,-0.151 0.1,-0.291 0.285,-0.401 v 0 0.785 c -0.19,0.105 -0.286,0.259 -0.286,0.394 v 0 -0.778 z" />
    </clipPath>
    <clipPath
       id="clipPath4930"
       clipPathUnits="userSpaceOnUse">
      <path
         inkscape:connector-curvature="0"
         id="path4928"
         d="m 2281.734,1865.741 -0.01,-0.776 c 0.185,0.103 0.278,0.244 0.278,0.385 v 0 0.786 c 0,-0.141 -0.096,-0.281 -0.276,-0.395" />
    </clipPath>
    <clipPath
       id="clipPath4942"
       clipPathUnits="userSpaceOnUse">
      <path
         inkscape:connector-curvature="0"
         id="path4940"
         d="M 0,2119.953 H 3253.108 V 0 H 0 Z" />
    </clipPath>
    <clipPath
       id="clipPath4958"
       clipPathUnits="userSpaceOnUse">
      <path
         inkscape:connector-curvature="0"
         id="path4956"
         d="m 2279.442,1865.203 v -0.782 c 0.372,-0.219 0.983,-0.219 1.351,0 v 0 0.782 c -0.372,-0.221 -0.983,-0.221 -1.355,0" />
    </clipPath>
    <clipPath
       id="clipPath4970"
       clipPathUnits="userSpaceOnUse">
      <path
         inkscape:connector-curvature="0"
         id="path4968"
         d="M 0,2119.953 H 3253.108 V 0 H 0 Z" />
    </clipPath>
    <clipPath
       id="clipPath4982"
       clipPathUnits="userSpaceOnUse">
      <path
         inkscape:connector-curvature="0"
         id="path4980"
         d="m 2287.467,1873.148 c 0,-0.144 0.095,-0.29 0.287,-0.404 v 0 0.786 c -0.191,0.114 -0.29,0.258 -0.29,0.404 v 0 -0.786 z" />
    </clipPath>
    <clipPath
       id="clipPath4994"
       clipPathUnits="userSpaceOnUse">
      <path
         inkscape:connector-curvature="0"
         id="path4992"
         d="m 2293.032,1872.36 v -0.782 c 0.191,0.096 0.282,0.241 0.282,0.378 v 0 0.788 c 0,-0.14 -0.094,-0.281 -0.281,-0.384" />
    </clipPath>
    <clipPath
       id="clipPath5006"
       clipPathUnits="userSpaceOnUse">
      <path
         inkscape:connector-curvature="0"
         id="path5004"
         d="M 0,2119.953 H 3253.108 V 0 H 0 Z" />
    </clipPath>
    <clipPath
       id="clipPath5022"
       clipPathUnits="userSpaceOnUse">
      <path
         inkscape:connector-curvature="0"
         id="path5020"
         d="m 2290.745,1871.81 -0.01,-0.78 c 0.377,-0.22 0.986,-0.214 1.353,0 v 0 0.78 c -0.371,-0.212 -0.98,-0.212 -1.351,0" />
    </clipPath>
    <clipPath
       id="clipPath5034"
       clipPathUnits="userSpaceOnUse">
      <path
         inkscape:connector-curvature="0"
         id="path5032"
         d="M 0,2119.953 H 3253.108 V 0 H 0 Z" />
    </clipPath>
    <clipPath
       id="clipPath5050"
       clipPathUnits="userSpaceOnUse">
      <path
         inkscape:connector-curvature="0"
         id="path5048"
         d="m 2288.91,1873.212 1.359,-0.784 c -0.216,0.934 -0.691,1.61 -1.337,1.987 v 0 l -1.356,0.791 c 0.652,-0.377 1.121,-1.054 1.334,-1.994" />
    </clipPath>
    <clipPath
       id="clipPath4408"
       clipPathUnits="userSpaceOnUse">
      <path
         inkscape:connector-curvature="0"
         id="path4406"
         d="m 2301.08,1906.05 h 45.97 v -31.57 h -45.97 z" />
    </clipPath>
    <clipPath
       id="clipPath4392"
       clipPathUnits="userSpaceOnUse">
      <path
         inkscape:connector-curvature="0"
         id="path4390"
         d="m 2227.58,1871.71 h 52.38 v -32.03 h -52.38 z" />
    </clipPath>
    <clipPath
       id="clipPath5114"
       clipPathUnits="userSpaceOnUse">
      <path
         inkscape:connector-curvature="0"
         id="path5112"
         d="m 2417.33,1884.9 h 51.88 v -27.05 h -51.88 z" />
    </clipPath>
    <clipPath
       id="clipPath5554"
       clipPathUnits="userSpaceOnUse">
      <path
         inkscape:connector-curvature="0"
         id="path5552"
         d="m 2532.68,1877.97 h 61.16 v -27.88 h -61.16 z" />
    </clipPath>
    <clipPath
       id="clipPath5662"
       clipPathUnits="userSpaceOnUse">
      <path
         inkscape:connector-curvature="0"
         id="path5660"
         d="m 2652.02,1878.72 h 75.96 v -28.55 h -75.96 z" />
    </clipPath>
    <clipPath
       id="clipPath5782"
       clipPathUnits="userSpaceOnUse">
      <path
         inkscape:connector-curvature="0"
         id="path5780"
         d="m 2686.34,2040.48 h 6.76 v -5.02 h -6.76 z" />
    </clipPath>
    <clipPath
       id="clipPath5454"
       clipPathUnits="userSpaceOnUse">
      <path
         inkscape:connector-curvature="0"
         id="path5452"
         d="m 2763.78,1887.52 h 61.17 v -27.89 h -61.17 z" />
    </clipPath>
    <clipPath
       id="clipPath5226"
       clipPathUnits="userSpaceOnUse">
      <path
         inkscape:connector-curvature="0"
         id="path5224"
         d="m 2874.06,1879.83 h 115.04 v -37.41 h -115.04 z" />
    </clipPath>
    <clipPath
       id="clipPath5266"
       clipPathUnits="userSpaceOnUse">
      <path
         inkscape:connector-curvature="0"
         id="path5264"
         d="m 2898.47,1905.023 c -0.019,-0.014 -0.036,-0.025 -0.058,-0.038 v 0 c -0.579,-0.382 -0.588,-1.091 -0.535,-1.501 v 0 l 39.797,23.128 c -0.051,0.406 -0.042,1.119 0.537,1.502 v 0 c 0.018,0.012 0.037,0.024 0.058,0.036 v 0 c -13.266,-7.711 -26.531,-15.418 -39.799,-23.127" />
    </clipPath>
    <clipPath
       id="clipPath3000"
       clipPathUnits="userSpaceOnUse">
      <path
         inkscape:connector-curvature="0"
         id="path2998"
         d="m 3070.44,1903.77 h 111.77 v -40.19 h -111.77 z" />
    </clipPath>
    <clipPath
       id="clipPath6042"
       clipPathUnits="userSpaceOnUse">
      <path
         inkscape:connector-curvature="0"
         id="path6040"
         d="m 409.323,1548.74 h 49.951 v -25.11 h -49.951 z" />
    </clipPath>
    <clipPath
       id="clipPath5930"
       clipPathUnits="userSpaceOnUse">
      <path
         inkscape:connector-curvature="0"
         id="path5928"
         d="m 516.004,1548.66 h 54.751 v -25.03 h -54.751 z" />
    </clipPath>
    <clipPath
       id="clipPath6142"
       clipPathUnits="userSpaceOnUse">
      <path
         inkscape:connector-curvature="0"
         id="path6140"
         d="m 636.118,1542.78 h 45.362 v -19.15 h -45.362 z" />
    </clipPath>
    <clipPath
       id="clipPath6318"
       clipPathUnits="userSpaceOnUse">
      <path
         inkscape:connector-curvature="0"
         id="path6316"
         d="m 763.75,1602.23 h 22.211 v -7.49 H 763.75 Z" />
    </clipPath>
    <clipPath
       id="clipPath6242"
       clipPathUnits="userSpaceOnUse">
      <path
         inkscape:connector-curvature="0"
         id="path6240"
         d="m 749.178,1542.78 h 45.362 v -19.15 h -45.362 z" />
    </clipPath>
    <clipPath
       id="clipPath6358"
       clipPathUnits="userSpaceOnUse">
      <path
         inkscape:connector-curvature="0"
         id="path6356"
         d="m 859.142,1541.98 h 55.33 v -18.35 h -55.33 z" />
    </clipPath>
    <clipPath
       id="clipPath6562"
       clipPathUnits="userSpaceOnUse">
      <path
         inkscape:connector-curvature="0"
         id="path6560"
         d="m 972.921,1548.99 h 50.329 v -25.36 h -50.329 z" />
    </clipPath>
    <clipPath
       id="clipPath6898"
       clipPathUnits="userSpaceOnUse">
      <path
         inkscape:connector-curvature="0"
         id="path6896"
         d="m 1113.757,1660.871 0.977,-0.369 c -0.337,0.508 -0.215,1.396 0.271,1.968 v 0 l -0.978,0.368 c -0.484,-0.573 -0.605,-1.457 -0.27,-1.967" />
    </clipPath>
    <clipPath
       id="clipPath6882"
       clipPathUnits="userSpaceOnUse">
      <path
         inkscape:connector-curvature="0"
         id="path6880"
         d="M 0,2119.953 H 3253.108 V 0 H 0 Z" />
    </clipPath>
    <clipPath
       id="clipPath6870"
       clipPathUnits="userSpaceOnUse">
      <path
         inkscape:connector-curvature="0"
         id="path6868"
         d="m 1120.652,1670.681 0.975,-0.367 c 0.342,0.405 0.774,0.55 1.118,0.419 v 0 l -0.98,0.369 c -0.082,0.031 -0.168,0.047 -0.258,0.047 v 0 c -0.283,0 -0.596,-0.157 -0.855,-0.468" />
    </clipPath>
    <clipPath
       id="clipPath6858"
       clipPathUnits="userSpaceOnUse">
      <path
         inkscape:connector-curvature="0"
         id="path6856"
         d="m 1116.5,1656.939 0.98,-0.367 c -0.144,0.053 -0.271,0.155 -0.374,0.304 v 0 l -0.973,0.368 c 0.098,-0.15 0.226,-0.25 0.367,-0.305" />
    </clipPath>
    <clipPath
       id="clipPath6798"
       clipPathUnits="userSpaceOnUse">
      <path
         inkscape:connector-curvature="0"
         id="path6796"
         d="m 1085.74,1549.12 h 50.59 v -25.49 h -50.59 z" />
    </clipPath>
    <clipPath
       id="clipPath6450"
       clipPathUnits="userSpaceOnUse">
      <path
         inkscape:connector-curvature="0"
         id="path6448"
         d="m 1192.19,1544.97 h 58.91 v -21.34 h -58.91 z" />
    </clipPath>
    <clipPath
       id="clipPath7190"
       clipPathUnits="userSpaceOnUse">
      <path
         inkscape:connector-curvature="0"
         id="path7188"
         d="m 1415.1,1546.39 h 59.78 v -22.76 h -59.78 z" />
    </clipPath>
    <clipPath
       id="clipPath7322"
       clipPathUnits="userSpaceOnUse">
      <path
         inkscape:connector-curvature="0"
         id="path7320"
         d="m 1529.94,1551.96 h 66.67 v -28.33 h -66.67 z" />
    </clipPath>
    <clipPath
       id="clipPath7582"
       clipPathUnits="userSpaceOnUse">
      <path
         inkscape:connector-curvature="0"
         id="path7580"
         d="m 1678.67,1677.25 h 3.75 v -4.02 h -3.75 z" />
    </clipPath>
    <clipPath
       id="clipPath7566"
       clipPathUnits="userSpaceOnUse">
      <path
         inkscape:connector-curvature="0"
         id="path7564"
         d="m 1671.46,1674.81 h 5.24 v -3.89 h -5.24 z" />
    </clipPath>
    <clipPath
       id="clipPath7462"
       clipPathUnits="userSpaceOnUse">
      <path
         inkscape:connector-curvature="0"
         id="path7460"
         d="m 1648.93,1550.63 h 57.38 v -27 h -57.38 z" />
    </clipPath>
    <clipPath
       id="clipPath8174"
       clipPathUnits="userSpaceOnUse">
      <path
         inkscape:connector-curvature="0"
         id="path8172"
         d="m 1758.53,1552.63 h 42.25 v -29 h -42.25 z" />
    </clipPath>
    <clipPath
       id="clipPath8038"
       clipPathUnits="userSpaceOnUse">
      <path
         inkscape:connector-curvature="0"
         id="path8036"
         d="m 1882.656,1601.848 c 0,-0.062 0.041,-0.123 0.122,-0.172 v 0 l 10e-4,0.539 c -0.081,0.047 -0.122,0.108 -0.122,0.168 v 0 z" />
    </clipPath>
    <clipPath
       id="clipPath8006"
       clipPathUnits="userSpaceOnUse">
      <path
         inkscape:connector-curvature="0"
         id="path8004"
         d="M 0,2119.953 H 3253.108 V 0 H 0 Z" />
    </clipPath>
    <clipPath
       id="clipPath7994"
       clipPathUnits="userSpaceOnUse">
      <path
         inkscape:connector-curvature="0"
         id="path7992"
         d="m 1882.336,1603.443 c 0,-0.061 0.041,-0.12 0.121,-0.166 v 0 0.539 c -0.08,0.043 -0.12,0.104 -0.12,0.165 v 0 z" />
    </clipPath>
    <clipPath
       id="clipPath7946"
       clipPathUnits="userSpaceOnUse">
      <path
         inkscape:connector-curvature="0"
         id="path7944"
         d="M 0,2119.953 H 3253.108 V 0 H 0 Z" />
    </clipPath>
    <clipPath
       id="clipPath7934"
       clipPathUnits="userSpaceOnUse">
      <path
         inkscape:connector-curvature="0"
         id="path7932"
         d="m 1881.995,1605.067 c 0,-0.065 0.04,-0.124 0.119,-0.17 v 0 0.536 c -0.082,0.052 -0.122,0.11 -0.122,0.169 v 0 -0.535 z" />
    </clipPath>
    <clipPath
       id="clipPath7894"
       clipPathUnits="userSpaceOnUse">
      <path
         inkscape:connector-curvature="0"
         id="path7892"
         d="M 0,2119.953 H 3253.108 V 0 H 0 Z" />
    </clipPath>
    <clipPath
       id="clipPath7882"
       clipPathUnits="userSpaceOnUse">
      <path
         inkscape:connector-curvature="0"
         id="path7880"
         d="m 1883.262,1605.788 c 0,-0.061 0.041,-0.121 0.122,-0.168 v 0 0.538 c -0.081,0.046 -0.121,0.109 -0.121,0.169 v 0 z" />
    </clipPath>
    <clipPath
       id="clipPath7870"
       clipPathUnits="userSpaceOnUse">
      <path
         inkscape:connector-curvature="0"
         id="path7868"
         d="M 0,2119.953 H 3253.108 V 0 H 0 Z" />
    </clipPath>
    <clipPath
       id="clipPath7858"
       clipPathUnits="userSpaceOnUse">
      <path
         inkscape:connector-curvature="0"
         id="path7856"
         d="m 1882.565,1606.09 c 0.159,-0.087 0.418,-0.09 0.574,0 v 0 l 0.01,0.54 c -0.16,-0.092 -0.42,-0.089 -0.579,10e-4 v 0 -0.541 z" />
    </clipPath>
    <clipPath
       id="clipPath7842"
       clipPathUnits="userSpaceOnUse">
      <path
         inkscape:connector-curvature="0"
         id="path7840"
         d="M 0,2119.953 H 3253.108 V 0 H 0 Z" />
    </clipPath>
    <clipPath
       id="clipPath7830"
       clipPathUnits="userSpaceOnUse">
      <path
         inkscape:connector-curvature="0"
         id="path7828"
         d="m 1881.72,1606.68 c 0,-0.062 0.038,-0.122 0.12,-0.169 v 0 0.54 c -0.083,0.046 -0.122,0.106 -0.122,0.167 v 0 c 0,-0.18 -10e-4,-0.359 -10e-4,-0.538" />
    </clipPath>
    <clipPath
       id="clipPath7794"
       clipPathUnits="userSpaceOnUse">
      <path
         inkscape:connector-curvature="0"
         id="path7792"
         d="M 0,2119.953 H 3253.108 V 0 H 0 Z" />
    </clipPath>
    <clipPath
       id="clipPath7782"
       clipPathUnits="userSpaceOnUse">
      <path
         inkscape:connector-curvature="0"
         id="path7780"
         d="m 1879.92,1609.156 c 0,-0.06 0.042,-0.118 0.121,-0.166 v 0 0.538 c -0.081,0.045 -0.123,0.106 -0.123,0.165 v 0 -0.537 z" />
    </clipPath>
    <clipPath
       id="clipPath7622"
       clipPathUnits="userSpaceOnUse">
      <path
         inkscape:connector-curvature="0"
         id="path7620"
         d="m 1866.46,1541.36 h 41.73 v -17.73 h -41.73 z" />
    </clipPath>
    <clipPath
       id="clipPath1856"
       clipPathUnits="userSpaceOnUse">
      <path
         inkscape:connector-curvature="0"
         id="path1854"
         d="m 1978.82,1549.83 h 38.47 v -19.92 h -38.47 z" />
    </clipPath>
    <clipPath
       id="clipPath8394"
       clipPathUnits="userSpaceOnUse">
      <path
         inkscape:connector-curvature="0"
         id="path8392"
         d="m 2093.14,1546.97 h 47.55 v -23.34 h -47.55 z" />
    </clipPath>
  </defs>
  <sodipodi:namedview
     id="base"
     pagecolor="#ffffff"
     bordercolor="#666666"
     borderopacity="1.0"
     inkscape:pageopacity="0.0"
     inkscape:pageshadow="2"
     inkscape:zoom="0.35"
     inkscape:cx="-601.98229"
     inkscape:cy="101.64042"
     inkscape:document-units="mm"
     inkscape:current-layer="layer1"
     showgrid="false"
     fit-margin-top="0"
     fit-margin-left="0"
     fit-margin-right="0"
     fit-margin-bottom="0"
     inkscape:window-width="1366"
     inkscape:window-height="716"
     inkscape:window-x="-8"
     inkscape:window-y="-8"
     inkscape:window-maximized="1" />
  <metadata
     id="metadata45328">
    <rdf:RDF>
      <cc:Work
         rdf:about="">
        <dc:format>image/svg+xml</dc:format>
        <dc:type
           rdf:resource="http://purl.org/dc/dcmitype/StillImage" />
        <dc:title></dc:title>
      </cc:Work>
    </rdf:RDF>
  </metadata>
  <g
     inkscape:label="Layer 1"
     inkscape:groupmode="layer"
     id="layer1"
     transform="translate(-81.789355,-386.8464)">
    <g
       id="g8388"
       transform="matrix(0.35277777,0,0,-0.35277777,-651.97336,985.37136)">
      <g
         id="g8390" />
      <g
         id="g8402">
        <g
           clip-path="url(#clipPath8394)"
           id="g8400"
           style="opacity:0.21000701">
          <g
             transform="translate(2134.9492,1545.7183)"
             id="g8398">
            <path
               d="m 0,0 c 3.651,-1.14 8.328,-5.134 3.993,-8.785 -4.335,-3.651 -27.04,-16.999 -36.394,-12.321 -4.552,2.275 -8.328,5.248 -9.013,6.161 C -45.389,-9.647 -18.28,5.713 0,0"
               style="fill:#231f20;fill-opacity:1;fill-rule:nonzero;stroke:none"
               id="path8396"
               inkscape:connector-curvature="0" />
          </g>
        </g>
      </g>
    </g>
    <g
       id="g8404"
       transform="matrix(0.35277777,0,0,-0.35277777,93.551487,400.05083)">
      <path
         d="M 0,0 C 0,0 0.457,0.616 2.405,-0.279 4.351,-1.173 7.065,-3.54 7.355,-4.132 7.646,-4.722 8.056,-6.693 7.23,-7.53 6.432,-8.337 2.025,-11.694 -0.95,-8.222 -1.984,-7.015 -4.198,-2.237 0,0"
         style="fill:#af2917;fill-opacity:1;fill-rule:nonzero;stroke:none"
         id="path8406"
         inkscape:connector-curvature="0" />
    </g>
    <g
       id="g8408"
       transform="matrix(0.35277777,0,0,-0.35277777,97.0982,391.60346)">
      <path
         d="m 0,0 -6.426,-20.077 -12.667,-14.71 c 0,0 0.487,-6.314 3.737,-5.755 3.248,0.559 11.572,10.033 14.478,15.195 3.063,5.438 4.61,24.754 4.61,24.754 L 1.646,0.18 Z"
         style="fill:#e2c2ac;fill-opacity:1;fill-rule:nonzero;stroke:none"
         id="path8410"
         inkscape:connector-curvature="0" />
    </g>
    <g
       id="g8412"
       transform="matrix(0.35277777,0,0,-0.35277777,97.716267,439.11356)">
      <path
         d="m 0,0 3.562,-1.617 c 0,0 7.177,-2.573 8.642,-3.409 0.811,-0.468 1.219,-1.453 1.338,-2.099 0.079,-0.414 0.098,-1.584 -0.144,-1.92 -0.63,-0.869 -1.996,-1.858 -3.251,-2.093 -2.413,-0.456 -7.519,0.517 -7.519,0.517 -0.66,0.307 -10.989,3.569 -10.989,3.569 0,0 -0.38,1.252 -0.483,2.003 l -0.624,5.058 z"
         style="fill:#58e81c;fill-opacity:1;fill-rule:nonzero;stroke:none"
         id="path8414"
         inkscape:connector-curvature="0" />
    </g>
    <g
       id="g8416"
       transform="matrix(0.35277777,0,0,-0.35277777,97.963282,441.16479)">
      <path
         d="m 0,0 c -0.074,-0.098 -0.207,-0.137 -0.307,-0.065 -0.082,0.051 -0.16,0.152 -0.099,0.229 0.302,0.429 1.464,1.993 2.73,2.752 C 3.429,3.582 4.427,3.594 4.885,3.558 5.015,3.548 5.127,3.444 5.098,3.309 5.071,3.206 4.959,3.124 4.84,3.136 4.438,3.164 3.537,3.148 2.536,2.552 1.435,1.891 0.367,0.51 0,0"
         style="fill:#d5dfef;fill-opacity:1;fill-rule:nonzero;stroke:none"
         id="path8418"
         inkscape:connector-curvature="0" />
    </g>
    <g
       id="g8420"
       transform="matrix(0.35277777,0,0,-0.35277777,98.415613,441.30054)">
      <path
         d="M 0,0 C -0.071,-0.1 -0.204,-0.139 -0.311,-0.07 -0.395,-0.015 -0.466,0.075 -0.409,0.161 -0.103,0.591 1.06,2.147 2.324,2.912 3.429,3.584 4.425,3.598 4.886,3.549 5.015,3.539 5.122,3.439 5.09,3.312 5.069,3.189 4.958,3.121 4.839,3.133 4.449,3.167 3.537,3.145 2.543,2.547 1.435,1.888 0.363,0.502 0,0"
         style="fill:#d5dfef;fill-opacity:1;fill-rule:nonzero;stroke:none"
         id="path8422"
         inkscape:connector-curvature="0" />
    </g>
    <g
       id="g8424"
       transform="matrix(0.35277777,0,0,-0.35277777,98.843498,441.5236)">
      <path
         d="M 0,0 C -0.065,-0.1 -0.204,-0.14 -0.304,-0.076 -0.384,-0.012 -0.457,0.08 -0.407,0.161 -0.098,0.59 1.065,2.154 2.324,2.914 3.432,3.572 4.436,3.591 4.89,3.557 5.019,3.551 5.124,3.445 5.099,3.314 5.069,3.198 4.962,3.115 4.846,3.123 4.447,3.162 3.538,3.144 2.538,2.548 1.438,1.881 0.37,0.498 0,0"
         style="fill:#d5dfef;fill-opacity:1;fill-rule:nonzero;stroke:none"
         id="path8426"
         inkscape:connector-curvature="0" />
    </g>
    <g
       id="g8428"
       transform="matrix(0.35277777,0,0,-0.35277777,102.49842,441.59938)">
      <path
         d="m 0,0 c -0.065,-0.991 -1.997,-2.156 -3.211,-2.527 -4.18,-1.267 -16.869,2.638 -17.467,2.851 -1.383,0.488 -1.597,0.951 -1.597,0.951 0,0 0.288,-1.432 0.337,-1.403 0,0 0.275,-1.418 1.081,-1.766 0.645,-0.278 5.673,-1.297 6.969,-1.592 0,0 7.451,-1.617 10.968,-0.667 1.223,0.328 2.551,0.841 3.123,2.102 C 0.382,-1.663 0.016,0.139 0,0"
         style="fill:#d5dfef;fill-opacity:1;fill-rule:nonzero;stroke:none"
         id="path8430"
         inkscape:connector-curvature="0" />
    </g>
    <g
       id="g8432"
       transform="matrix(0.35277777,0,0,-0.35277777,96.752337,417.83461)">
      <path
         d="m 0,0 c 0,0 0.4,-43.946 3.259,-58.249 0.388,-1.941 1.593,-2.333 2.01,-3.17 0.956,-1.932 -2.515,-3.57 -3.434,-3.82 -3.262,-0.898 -7.633,-0.517 -8.477,2.524 l -9.085,63.307 z"
         style="fill:#093c4c;fill-opacity:1;fill-rule:nonzero;stroke:none"
         id="path8434"
         inkscape:connector-curvature="0" />
    </g>
    <g
       id="g8436"
       transform="matrix(0.35277777,0,0,-0.35277777,91.085147,442.2965)">
      <path
         d="m 0,0 6.225,-4.185 c 0,0 2.87,-1.913 4.226,-2.937 0.743,-0.553 1.034,-1.586 1.07,-2.246 0.022,-0.416 -0.105,-1.581 -0.389,-1.893 -0.729,-0.772 -2.236,-1.379 -3.479,-1.664 -3.674,-0.833 -7.394,1.442 -7.394,1.442 -0.615,0.389 -10.463,4.915 -10.463,4.915 0,0 -0.229,1.292 -0.229,2.055 v 5.087 z"
         style="fill:#58e81c;fill-opacity:1;fill-rule:nonzero;stroke:none"
         id="path8438"
         inkscape:connector-curvature="0" />
    </g>
    <g
       id="g8440"
       transform="matrix(0.35277777,0,0,-0.35277777,94.239113,414.7931)">
      <path
         d="m 0,0 -8.32,-75.349 c 0.26,-2.654 2.99,-3.963 1.619,-4.337 -1.423,-0.388 -2.847,-1.034 -4.465,-2.46 -4.023,-3.539 -7.842,-0.132 -7.842,-0.132 -0.615,0.354 -0.716,1.981 -0.766,2.528 l 2.562,69.646 z"
         style="fill:#14546d;fill-opacity:1;fill-rule:nonzero;stroke:none"
         id="path8442"
         inkscape:connector-curvature="0" />
    </g>
    <g
       id="g8444"
       transform="matrix(0.35277777,0,0,-0.35277777,90.792994,444.47896)">
      <path
         d="m 0,0 c -0.088,-0.091 -0.231,-0.121 -0.331,-0.045 -0.076,0.05 -0.155,0.169 -0.094,0.243 0.349,0.44 1.664,2.003 3.043,2.716 C 3.819,3.552 4.876,3.51 5.347,3.429 5.48,3.411 5.589,3.295 5.552,3.169 5.519,3.047 5.398,2.972 5.271,2.996 4.86,3.052 3.91,3.087 2.829,2.519 1.619,1.894 0.42,0.509 0,0"
         style="fill:#d5dfef;fill-opacity:1;fill-rule:nonzero;stroke:none"
         id="path8446"
         inkscape:connector-curvature="0" />
    </g>
    <g
       id="g8448"
       transform="matrix(0.35277777,0,0,-0.35277777,91.300465,444.77748)">
      <path
         d="m 0,0 c -0.085,-0.104 -0.229,-0.134 -0.33,-0.053 -0.076,0.065 -0.147,0.175 -0.084,0.25 0.358,0.429 1.691,1.969 3.077,2.671 1.209,0.623 2.263,0.556 2.73,0.488 C 5.531,3.326 5.642,3.216 5.604,3.076 5.566,2.961 5.442,2.89 5.316,2.908 4.904,2.972 3.947,3.024 2.858,2.474 1.646,1.86 0.422,0.5 0,0"
         style="fill:#d5dfef;fill-opacity:1;fill-rule:nonzero;stroke:none"
         id="path8450"
         inkscape:connector-curvature="0" />
    </g>
    <g
       id="g8452"
       transform="matrix(0.35277777,0,0,-0.35277777,91.730413,445.03914)">
      <path
         d="M 0,0 C -0.09,-0.085 -0.24,-0.116 -0.332,-0.028 -0.41,0.035 -0.476,0.145 -0.406,0.222 -0.028,0.638 1.387,2.104 2.809,2.735 4.052,3.28 5.093,3.164 5.564,3.07 5.694,3.043 5.795,2.915 5.752,2.781 5.709,2.671 5.583,2.606 5.465,2.641 5.053,2.723 4.093,2.823 2.988,2.33 1.738,1.771 0.443,0.486 0,0"
         style="fill:#d5dfef;fill-opacity:1;fill-rule:nonzero;stroke:none"
         id="path8454"
         inkscape:connector-curvature="0" />
    </g>
    <g
       id="g8456"
       transform="matrix(0.35277777,0,0,-0.35277777,95.159651,445.57211)">
      <path
         d="m 0,0 c -0.198,-0.98 -2.781,-2.104 -4.006,-2.424 -6.125,-1.592 -15.92,5.03 -16.484,5.309 -1.307,0.659 -1.464,1.153 -1.464,1.153 0,0 0.1,-1.456 0.161,-1.439 0,0 0.096,-1.436 0.85,-1.882 0.611,-0.365 6.67,-3.255 7.922,-3.696 0,0 5.339,-2.339 9.37,-1.118 1.223,0.372 2.869,0.85 3.596,2.04 C 0.164,-1.693 0.022,0.136 0,0"
         style="fill:#d5dfef;fill-opacity:1;fill-rule:nonzero;stroke:none"
         id="path8458"
         inkscape:connector-curvature="0" />
    </g>
    <g
       id="g8460"
       transform="matrix(0.35277777,0,0,-0.35277777,90.826067,405.8033)">
      <path
         d="m 0,0 c -3.389,2.997 -0.393,6.493 1.089,8.359 1.646,2.058 5.183,6.839 6.58,8.281 0,0 -4.232,-4.132 0.884,-7.544 C 12.55,6.432 15.027,8.849 15.027,8.849 13.14,6.54 11.322,4.077 9.049,2.673 5.839,0.689 1.323,-1.171 0,0"
         style="fill:#e55d33;fill-opacity:1;fill-rule:nonzero;stroke:none"
         id="path8462"
         inkscape:connector-curvature="0" />
    </g>
    <g
       id="g8464"
       transform="matrix(0.35277777,0,0,-0.35277777,93.858113,405.46791)">
      <path
         d="m 0,0 c 2.591,-4.32 5.344,-9.869 7.401,-20.764 1.882,-9.984 2.818,-23.367 1.849,-24.668 0,0 -13.314,-6.732 -20.97,-5.55 -5.344,0.818 -6.785,0.616 -6.785,0.616 -1.913,-0.173 1.233,12.95 -0.821,23.64 -2.336,12.148 -2.878,12.748 -2.878,12.748 -0.618,3.494 -3.001,7.603 -2.752,10.33 0.31,3.393 4.395,7.349 4.395,7.349 l 8.933,5.978 c 0,0 7.31,-2.481 11.628,-9.679"
         style="fill:#f77941;fill-opacity:1;fill-rule:nonzero;stroke:none"
         id="path8466"
         inkscape:connector-curvature="0" />
    </g>
    <g
       id="g8468"
       transform="matrix(0.35277777,0,0,-0.35277777,90.163921,402.21661)">
      <path
         d="M 0,0 -2.38,6.723 -13.929,5.498 c 0,0 4.368,-4.926 4.771,-7.218 0.242,-1.368 -0.65,-3.324 -2.205,-5.118 -0.034,-0.166 1.743,0.205 5.598,-1.893 3.608,-1.952 8.991,-0.936 10.067,2.08 C 5.019,-4.624 3.073,-2.021 0,0"
         style="fill:#dbb8a1;fill-opacity:1;fill-rule:nonzero;stroke:none"
         id="path8470"
         inkscape:connector-curvature="0" />
    </g>
    <g
       id="g8472"
       transform="matrix(0.35277777,0,0,-0.35277777,85.830337,395.12023)">
      <path
         d="m 0,0 0.004,-0.007 -6.66,-4.454 7.86,-12.14 c 0.638,-0.764 1.104,-1.543 1.699,-2.152 0.659,-0.665 1.478,-1.154 2.886,-1.238 0,0 1.799,0.038 3.82,0.201 0.83,0.075 3.492,0.179 4.557,1.593 0.394,0.535 1.447,1.85 1.248,3.223 -0.528,3.663 -7.018,16.525 -7.018,16.525 l -2.3,4.186 z"
         style="fill:#e8c5ac;fill-opacity:1;fill-rule:nonzero;stroke:none"
         id="path8474"
         inkscape:connector-curvature="0" />
    </g>
    <g
       id="g8476"
       transform="matrix(0.35277777,0,0,-0.35277777,87.215272,392.74484)">
      <path
         d="m 0,0 c 2.018,-0.261 3.23,-1.705 3.725,-3.066 0.449,-1.238 0.822,-2.068 0.746,-2.116 0,0 -2.627,1.634 -3.289,-0.91 -0.637,-2.462 -0.686,-4.039 -0.866,-4.093 0,0 -1.561,1.958 -1.526,2.107 0.03,0.145 -0.106,-3.124 -0.106,-3.124 -0.057,-0.136 -1.139,0.559 -1.319,0.378 -1.773,-1.882 -0.39,-4.666 0.366,-5.668 l 0.695,-1.062 c 0.364,-0.544 0.869,-1.12 0.297,-1.406 -0.618,-0.319 -0.711,-0.063 -1.262,0.418 0,0 -2.106,2.132 -3.38,0.164 -0.841,-1.313 1.79,-3.417 1.966,-3.515 l 2.12,-4.229 c -0.166,0.046 -2.483,0.87 -3.653,1.519 -2.009,1.118 -4.158,2.282 -4.994,2.842 -4.235,2.84 -5.477,7.754 -4.668,11.838 0.239,1.272 2.17,5.343 1.843,5.84 -0.039,0.062 0.915,0.041 1.732,0.614 2.615,1.821 0.666,2.226 0.666,2.226 0.596,0.567 3.248,0.332 3.434,0.305 1.465,-0.125 0.705,1.133 0.705,1.133 C -5.592,0.353 0,0 0,0"
         style="fill:#281504;fill-opacity:1;fill-rule:nonzero;stroke:none"
         id="path8478"
         inkscape:connector-curvature="0" />
    </g>
    <g
       id="g8480"
       transform="matrix(0.35277777,0,0,-0.35277777,85.072438,399.04334)">
      <path
         d="m 0,0 c 1.73,1.136 3.358,-0.914 3.358,-0.914 l 1.964,-2.972 c 0,0 0.408,-0.804 -0.154,-1.37 C 4.316,-6.105 3.321,-5.527 2.258,-4.877 2.187,-4.831 0.71,-3.804 0.622,-3.75 -0.639,-2.88 -1.634,-1.096 0,0"
         style="fill:#e8c5ac;fill-opacity:1;fill-rule:nonzero;stroke:none"
         id="path8482"
         inkscape:connector-curvature="0" />
    </g>
    <g
       id="g8484"
       transform="matrix(0.35277777,0,0,-0.35277777,92.444259,391.97639)">
      <path
         d="m 0,0 c 0,0 -0.699,2.608 -1.157,3.801 -0.46,1.192 -1.089,2.762 -0.814,4.046 0.274,1.284 0.274,2.567 0.274,2.567 0,0 1.377,0.825 1.468,-0.366 0.091,-1.192 0.184,-3.21 0.642,-3.76 C 0.871,5.737 1.789,4.911 1.881,3.993 1.972,3.079 0.446,-1.326 0,0"
         style="fill:#f2d3bd;fill-opacity:1;fill-rule:nonzero;stroke:none"
         id="path8486"
         inkscape:connector-curvature="0" />
    </g>
    <g
       id="g8488"
       transform="matrix(0.35277777,0,0,-0.35277777,99.603143,388.37576)">
      <path
         d="m 0,0 c -1.141,-0.573 -3.489,-3.314 -2.673,-2.222 0.483,0.647 0.927,1.84 1.715,2.543 0.91,1.225 -0.642,1.277 -0.642,1.277 0,0 -1.405,-0.46 -3.228,-2.892 -3.221,-4.29 -2.301,-10.348 -2.301,-10.348 3.168,-2.765 5.631,1.142 5.915,1.816 0.452,1.056 1.124,3.031 1.521,3.714 0.589,1.021 0.733,0.988 1.578,2.679 0.863,1.737 0.886,2.712 -0.133,3.5 C 0.566,0.979 0.197,0.097 0,0"
         style="fill:#e2c2ac;fill-opacity:1;fill-rule:nonzero;stroke:none"
         id="path8490"
         inkscape:connector-curvature="0" />
    </g>
    <g
       id="g8492"
       transform="matrix(0.35277777,0,0,-0.35277777,98.348806,392.39774)">
      <path
         d="M 0,0 C 0,0 -1.653,-0.881 -3.224,0.416 -5.208,2.045 -5.462,4.92 -4.8,7.075 c 0.393,1.281 0.753,2.863 0.753,2.863 0,0 2.212,0.292 1.54,-2.02 -0.465,-1.593 -0.048,-2.69 -0.048,-2.69 0,0 2.415,-0.557 2.881,-2.262 C 0.79,1.266 0,0 0,0"
         style="fill:#e5cab7;fill-opacity:1;fill-rule:nonzero;stroke:none"
         id="path8494"
         inkscape:connector-curvature="0" />
    </g>
    <g
       id="g8496"
       transform="matrix(0.35277777,0,0,-0.35277777,94.788943,388.98176)">
      <path
         d="M 0,0 C 0,0 0.921,1.285 2.479,3.026 3.66,4.347 1.668,5.551 1.011,5.227 0.843,5.368 -0.169,4.689 -0.548,4.311 -1.563,3.296 -2.475,2.384 -2.475,2.384 c 0,0 0.543,1.269 1.377,2.661 0.55,0.916 -0.611,1.02 -0.734,1.007 C -2.748,5.961 -3.757,4.311 -5.133,1.834 -6.947,-1.434 -6.784,-8.895 -6.784,-8.895 c 0,0 2.583,-1.195 4.22,-0.644 1.637,0.551 3.025,3.669 3.485,6.696 0.185,1.234 1.026,2.076 2.292,3.943 0.551,0.813 0.377,1.477 -0.367,1.376 z"
         style="fill:#f2d3bd;fill-opacity:1;fill-rule:nonzero;stroke:none"
         id="path8498"
         inkscape:connector-curvature="0" />
    </g>
    <g
       id="g8500"
       transform="matrix(0.35277777,0,0,-0.35277777,88.824124,402.68566)">
      <path
         d="M 0,0 C 0,0 1.143,0.638 3.128,-0.132 5.109,-0.905 7.506,-2.792 8.404,-4.554 9.059,-5.847 9.629,-7.185 8.416,-8.507 6.941,-10.115 1.805,-10.271 -0.067,-7.185 -1.938,-4.1 -1.334,-1.334 0,0"
         style="fill:#d64327;fill-opacity:1;fill-rule:nonzero;stroke:none"
         id="path8502"
         inkscape:connector-curvature="0" />
    </g>
    <g
       id="g8504"
       transform="matrix(0.35277777,0,0,-0.35277777,92.587901,391.03468)">
      <path
         d="m 0,0 c 0,0 -3.709,-22.156 -5.088,-25.21 -1.078,-2.39 -14.955,-19.967 -14.955,-19.967 0,0 1.82,-5.453 5.011,-4.628 3.19,0.832 13.552,15.01 16.48,21.006 3.488,7.134 3.149,26.175 3.149,26.175 l -3.338,0.156 z"
         style="fill:#f2d3bd;fill-opacity:1;fill-rule:nonzero;stroke:none"
         id="path8506"
         inkscape:connector-curvature="0" />
    </g>
    <g
       id="g8508"
       transform="matrix(0.35277777,0,0,-0.35277777,86.074944,408.4896)">
      <path
         d="m 0,0 c 4.107,-1.926 8.315,0.896 10.616,2.355 1.916,1.212 5.396,5.239 5.456,5.385 0,0 -3.527,-1.791 -7.384,2.642 -2.625,3.024 -0.895,6.07 -0.895,6.07 C 6.381,14.932 1.238,10.079 -0.66,8.551 -3.25,6.47 -3.563,1.676 0,0"
         style="fill:#ff8c5f;fill-opacity:1;fill-rule:nonzero;stroke:none"
         id="path8510"
         inkscape:connector-curvature="0" />
    </g>
  </g>
</svg>
