<?xml version="1.0" encoding="UTF-8" standalone="no"?>
<!-- Created with Inkscape (http://www.inkscape.org/) -->

<svg
   xmlns:dc="http://purl.org/dc/elements/1.1/"
   xmlns:cc="http://creativecommons.org/ns#"
   xmlns:rdf="http://www.w3.org/1999/02/22-rdf-syntax-ns#"
   xmlns:svg="http://www.w3.org/2000/svg"
   xmlns="http://www.w3.org/2000/svg"
   xmlns:sodipodi="http://sodipodi.sourceforge.net/DTD/sodipodi-0.dtd"
   xmlns:inkscape="http://www.inkscape.org/namespaces/inkscape"
   width="25.606525mm"
   height="66.078415mm"
   viewBox="0 0 25.606525 66.078414"
   version="1.1"
   id="svg45331"
   inkscape:version="0.92.3 (2405546, 2018-03-11)"
   sodipodi:docname="people-business-20.svg">
  <defs
     id="defs45325">
    <clipPath
       id="clipPath2864"
       clipPathUnits="userSpaceOnUse">
      <path
         inkscape:connector-curvature="0"
         id="path2862"
         d="m 1713.778,1928.833 c -0.536,-0.312 -0.927,-0.874 -1.106,-1.65 v 0 l 1.125,0.653 c 0.179,0.778 0.57,1.34 1.107,1.651 v 0 z" />
    </clipPath>
    <clipPath
       id="clipPath2848"
       clipPathUnits="userSpaceOnUse">
      <path
         inkscape:connector-curvature="0"
         id="path2846"
         d="M 0,2119.953 H 3253.108 V 0 H 0 Z" />
    </clipPath>
    <clipPath
       id="clipPath2836"
       clipPathUnits="userSpaceOnUse">
      <path
         inkscape:connector-curvature="0"
         id="path2834"
         d="m 1711.152,1926.674 v -0.651 c 0.308,-0.179 0.813,-0.18 1.126,0 v 0 0.651 c -0.315,-0.183 -0.82,-0.178 -1.129,0" />
    </clipPath>
    <clipPath
       id="clipPath2820"
       clipPathUnits="userSpaceOnUse">
      <path
         inkscape:connector-curvature="0"
         id="path2818"
         d="M 0,2119.953 H 3253.108 V 0 H 0 Z" />
    </clipPath>
    <clipPath
       id="clipPath2808"
       clipPathUnits="userSpaceOnUse">
      <path
         inkscape:connector-curvature="0"
         id="path2806"
         d="m 1710.148,1926.8 c 0,-0.121 0.077,-0.238 0.231,-0.325 v 0 0.65 c -0.156,0.087 -0.233,0.207 -0.233,0.324 v 0 -0.649 z" />
    </clipPath>
    <clipPath
       id="clipPath2796"
       clipPathUnits="userSpaceOnUse">
      <path
         inkscape:connector-curvature="0"
         id="path2794"
         d="m 1714.756,1928.103 v -0.65 c 0.158,0.09 0.237,0.211 0.237,0.331 v 0 0.65 c 0,-0.119 -0.078,-0.24 -0.236,-0.331" />
    </clipPath>
    <clipPath
       id="clipPath2784"
       clipPathUnits="userSpaceOnUse">
      <path
         inkscape:connector-curvature="0"
         id="path2782"
         d="M 0,2119.953 H 3253.108 V 0 H 0 Z" />
    </clipPath>
    <clipPath
       id="clipPath2772"
       clipPathUnits="userSpaceOnUse">
      <path
         inkscape:connector-curvature="0"
         id="path2770"
         d="m 1720.53,1921.188 10e-4,-0.65 c 0.309,-0.181 0.814,-0.181 1.128,0 v 0 0.65 c -0.316,-0.182 -0.821,-0.181 -1.129,0" />
    </clipPath>
    <clipPath
       id="clipPath2756"
       clipPathUnits="userSpaceOnUse">
      <path
         inkscape:connector-curvature="0"
         id="path2754"
         d="M 0,2119.953 H 3253.108 V 0 H 0 Z" />
    </clipPath>
    <clipPath
       id="clipPath2744"
       clipPathUnits="userSpaceOnUse">
      <path
         inkscape:connector-curvature="0"
         id="path2742"
         d="m 1719.524,1921.312 c 0,-0.119 0.08,-0.235 0.234,-0.324 v 0 0.65 c -0.154,0.089 -0.233,0.207 -0.233,0.324 v 0 -0.65 z" />
    </clipPath>
    <clipPath
       id="clipPath2732"
       clipPathUnits="userSpaceOnUse">
      <path
         inkscape:connector-curvature="0"
         id="path2730"
         d="m 1724.133,1922.619 v -0.654 c 0.158,0.094 0.238,0.212 0.238,0.331 v 0 0.65 c 0,-0.117 -0.08,-0.238 -0.238,-0.327" />
    </clipPath>
    <clipPath
       id="clipPath2536"
       clipPathUnits="userSpaceOnUse">
      <path
         inkscape:connector-curvature="0"
         id="path2534"
         d="m 1708.77,1889.11 h 53.56 v -38.31 h -53.56 z" />
    </clipPath>
    <clipPath
       id="clipPath3428"
       clipPathUnits="userSpaceOnUse">
      <path
         inkscape:connector-curvature="0"
         id="path3426"
         d="m 1819.231,1919.634 0.051,-0.722 c 0.167,0.114 0.248,0.253 0.238,0.383 v 0 l -0.048,0.721 c 0.01,-0.131 -0.071,-0.272 -0.241,-0.382" />
    </clipPath>
    <clipPath
       id="clipPath3440"
       clipPathUnits="userSpaceOnUse">
      <path
         inkscape:connector-curvature="0"
         id="path3438"
         d="m 1814.225,1917.859 c 0.01,-0.132 0.103,-0.255 0.282,-0.343 v 0 l -0.049,0.721 c -0.177,0.085 -0.273,0.212 -0.281,0.34 v 0 z" />
    </clipPath>
    <clipPath
       id="clipPath3452"
       clipPathUnits="userSpaceOnUse">
      <path
         inkscape:connector-curvature="0"
         id="path3450"
         d="M 0,2119.953 H 3253.108 V 0 H 0 Z" />
    </clipPath>
    <clipPath
       id="clipPath3468"
       clipPathUnits="userSpaceOnUse">
      <path
         inkscape:connector-curvature="0"
         id="path3466"
         d="m 1815.349,1917.792 0.046,-0.72 c 0.354,-0.177 0.915,-0.14 1.248,0.082 v 0 l -0.048,0.721 c -0.335,-0.223 -0.893,-0.259 -1.246,-0.083" />
    </clipPath>
    <clipPath
       id="clipPath3480"
       clipPathUnits="userSpaceOnUse">
      <path
         inkscape:connector-curvature="0"
         id="path3478"
         d="M 0,2119.953 H 3253.108 V 0 H 0 Z" />
    </clipPath>
    <clipPath
       id="clipPath3492"
       clipPathUnits="userSpaceOnUse">
      <path
         inkscape:connector-curvature="0"
         id="path3490"
         d="m 1808.461,1925.033 0.049,-0.719 c 0.167,0.112 0.245,0.25 0.238,0.383 v 0 l -0.049,0.719 c 0.01,-0.131 -0.07,-0.268 -0.238,-0.383" />
    </clipPath>
    <clipPath
       id="clipPath3504"
       clipPathUnits="userSpaceOnUse">
      <path
         inkscape:connector-curvature="0"
         id="path3502"
         d="m 1803.454,1923.259 c 0.01,-0.132 0.102,-0.258 0.279,-0.342 v 0 l -0.048,0.72 c -0.177,0.086 -0.273,0.214 -0.28,0.342 v 0 z" />
    </clipPath>
    <clipPath
       id="clipPath3516"
       clipPathUnits="userSpaceOnUse">
      <path
         inkscape:connector-curvature="0"
         id="path3514"
         d="M 0,2119.953 H 3253.108 V 0 H 0 Z" />
    </clipPath>
    <clipPath
       id="clipPath3532"
       clipPathUnits="userSpaceOnUse">
      <path
         inkscape:connector-curvature="0"
         id="path3530"
         d="m 1804.576,1923.193 0.047,-0.721 c 0.353,-0.175 0.915,-0.14 1.248,0.081 v 0 l -0.049,0.722 c -0.333,-0.223 -0.894,-0.258 -1.246,-0.082" />
    </clipPath>
    <clipPath
       id="clipPath3544"
       clipPathUnits="userSpaceOnUse">
      <path
         inkscape:connector-curvature="0"
         id="path3542"
         d="M 0,2119.953 H 3253.108 V 0 H 0 Z" />
    </clipPath>
    <clipPath
       id="clipPath3560"
       clipPathUnits="userSpaceOnUse">
      <path
         inkscape:connector-curvature="0"
         id="path3558"
         d="m 1807.327,1925.772 c -0.572,-0.383 -0.964,-1.034 -1.106,-1.907 v 0 l 1.197,0.803 c 0.144,0.873 0.537,1.525 1.109,1.907 v 0 z" />
    </clipPath>
    <clipPath
       id="clipPath3240"
       clipPathUnits="userSpaceOnUse">
      <path
         inkscape:connector-curvature="0"
         id="path3238"
         d="m 1804.45,1875.26 h 66.26 v -26.97 h -66.26 z" />
    </clipPath>
    <clipPath
       id="clipPath3596"
       clipPathUnits="userSpaceOnUse">
      <path
         inkscape:connector-curvature="0"
         id="path3594"
         d="m 1887.55,1874.88 h 68.5 v -28.2 h -68.5 z" />
    </clipPath>
    <clipPath
       id="clipPath3760"
       clipPathUnits="userSpaceOnUse">
      <path
         inkscape:connector-curvature="0"
         id="path3758"
         d="m 1940.709,1921.043 c -0.01,-0.134 0.073,-0.277 0.243,-0.394 v 0 l 0.052,0.743 c -0.176,0.111 -0.256,0.256 -0.246,0.388 v 0 z" />
    </clipPath>
    <clipPath
       id="clipPath3772"
       clipPathUnits="userSpaceOnUse">
      <path
         inkscape:connector-curvature="0"
         id="path3770"
         d="m 1945.896,1919.955 -0.048,-0.737 c 0.182,0.088 0.281,0.215 0.289,0.351 v 0 l 0.048,0.737 c -0.01,-0.134 -0.106,-0.261 -0.289,-0.351" />
    </clipPath>
    <clipPath
       id="clipPath3784"
       clipPathUnits="userSpaceOnUse">
      <path
         inkscape:connector-curvature="0"
         id="path3782"
         d="M 0,2119.953 H 3253.108 V 0 H 0 Z" />
    </clipPath>
    <clipPath
       id="clipPath3800"
       clipPathUnits="userSpaceOnUse">
      <path
         inkscape:connector-curvature="0"
         id="path3798"
         d="m 1943.658,1918.845 c 0.343,-0.226 0.914,-0.264 1.28,-0.084 v 0 l 0.047,0.741 c -0.361,-0.182 -0.936,-0.146 -1.28,0.084 v 0 z" />
    </clipPath>
    <clipPath
       id="clipPath3812"
       clipPathUnits="userSpaceOnUse">
      <path
         inkscape:connector-curvature="0"
         id="path3810"
         d="M 0,2119.953 H 3253.108 V 0 H 0 Z" />
    </clipPath>
    <clipPath
       id="clipPath3824"
       clipPathUnits="userSpaceOnUse">
      <path
         inkscape:connector-curvature="0"
         id="path3822"
         d="m 1951.754,1926.58 c -0.01,-0.136 0.071,-0.278 0.241,-0.392 v 0 l 0.052,0.737 c -0.174,0.117 -0.253,0.258 -0.245,0.391 v 0 z" />
    </clipPath>
    <clipPath
       id="clipPath3836"
       clipPathUnits="userSpaceOnUse">
      <path
         inkscape:connector-curvature="0"
         id="path3834"
         d="m 1956.943,1925.491 -0.049,-0.737 c 0.18,0.088 0.277,0.215 0.287,0.352 v 0 l 0.049,0.737 c -0.01,-0.132 -0.104,-0.262 -0.287,-0.352" />
    </clipPath>
    <clipPath
       id="clipPath3848"
       clipPathUnits="userSpaceOnUse">
      <path
         inkscape:connector-curvature="0"
         id="path3846"
         d="M 0,2119.953 H 3253.108 V 0 H 0 Z" />
    </clipPath>
    <clipPath
       id="clipPath3864"
       clipPathUnits="userSpaceOnUse">
      <path
         inkscape:connector-curvature="0"
         id="path3862"
         d="m 1954.703,1924.383 c 0.34,-0.229 0.916,-0.262 1.279,-0.086 v 0 l 0.049,0.743 c -0.361,-0.183 -0.938,-0.15 -1.279,0.081 v 0 z" />
    </clipPath>
    <clipPath
       id="clipPath3876"
       clipPathUnits="userSpaceOnUse">
      <path
         inkscape:connector-curvature="0"
         id="path3874"
         d="M 0,2119.953 H 3253.108 V 0 H 0 Z" />
    </clipPath>
    <clipPath
       id="clipPath3892"
       clipPathUnits="userSpaceOnUse">
      <path
         inkscape:connector-curvature="0"
         id="path3890"
         d="m 1953.117,1926.55 1.227,-0.822 c -0.145,0.891 -0.551,1.561 -1.133,1.955 v 0 l -1.232,0.823 c 0.588,-0.393 0.989,-1.061 1.138,-1.956" />
    </clipPath>
    <clipPath
       id="clipPath3948"
       clipPathUnits="userSpaceOnUse">
      <path
         inkscape:connector-curvature="0"
         id="path3946"
         d="m 2018.76,1870.93 h 70.11 v -23.75 h -70.11 z" />
    </clipPath>
    <clipPath
       id="clipPath4212"
       clipPathUnits="userSpaceOnUse">
      <path
         inkscape:connector-curvature="0"
         id="path4210"
         d="m 2154.433,1916.311 c 0,-0.141 0.087,-0.289 0.273,-0.405 v 0 l 0.028,0.784 c -0.187,0.117 -0.276,0.264 -0.271,0.407 v 0 z" />
    </clipPath>
    <clipPath
       id="clipPath4224"
       clipPathUnits="userSpaceOnUse">
      <path
         inkscape:connector-curvature="0"
         id="path4222"
         d="m 2159.973,1915.328 -0.03,-0.782 c 0.192,0.1 0.289,0.239 0.295,0.381 v 0 l 0.027,0.785 c 0,-0.142 -0.103,-0.28 -0.292,-0.384" />
    </clipPath>
    <clipPath
       id="clipPath4236"
       clipPathUnits="userSpaceOnUse">
      <path
         inkscape:connector-curvature="0"
         id="path4234"
         d="M 0,2119.953 H 3253.108 V 0 H 0 Z" />
    </clipPath>
    <clipPath
       id="clipPath4252"
       clipPathUnits="userSpaceOnUse">
      <path
         inkscape:connector-curvature="0"
         id="path4250"
         d="m 2157.634,1914.081 c 0.368,-0.23 0.978,-0.251 1.357,-0.046 v 0 l 0.029,0.783 c -0.377,-0.203 -0.988,-0.185 -1.36,0.049 v 0 z" />
    </clipPath>
    <clipPath
       id="clipPath4264"
       clipPathUnits="userSpaceOnUse">
      <path
         inkscape:connector-curvature="0"
         id="path4262"
         d="M 0,2119.953 H 3253.108 V 0 H 0 Z" />
    </clipPath>
    <clipPath
       id="clipPath4276"
       clipPathUnits="userSpaceOnUse">
      <path
         inkscape:connector-curvature="0"
         id="path4274"
         d="m 2165.961,1922.544 c 0,-0.146 0.086,-0.293 0.271,-0.409 v 0 l 0.032,0.784 c -0.188,0.117 -0.279,0.265 -0.274,0.408 v 0 z" />
    </clipPath>
    <clipPath
       id="clipPath4288"
       clipPathUnits="userSpaceOnUse">
      <path
         inkscape:connector-curvature="0"
         id="path4286"
         d="m 2171.5,1921.561 -0.028,-0.785 c 0.189,0.101 0.287,0.239 0.293,0.379 v 0 l 0.028,0.787 c 0,-0.142 -0.102,-0.281 -0.293,-0.381" />
    </clipPath>
    <clipPath
       id="clipPath4300"
       clipPathUnits="userSpaceOnUse">
      <path
         inkscape:connector-curvature="0"
         id="path4298"
         d="M 0,2119.953 H 3253.108 V 0 H 0 Z" />
    </clipPath>
    <clipPath
       id="clipPath4316"
       clipPathUnits="userSpaceOnUse">
      <path
         inkscape:connector-curvature="0"
         id="path4314"
         d="m 2169.16,1920.31 c 0.37,-0.229 0.979,-0.249 1.359,-0.045 v 0 l 0.03,0.784 c -0.379,-0.201 -0.99,-0.186 -1.36,0.046 v 0 z" />
    </clipPath>
    <clipPath
       id="clipPath4328"
       clipPathUnits="userSpaceOnUse">
      <path
         inkscape:connector-curvature="0"
         id="path4326"
         d="M 0,2119.953 H 3253.108 V 0 H 0 Z" />
    </clipPath>
    <clipPath
       id="clipPath4344"
       clipPathUnits="userSpaceOnUse">
      <path
         inkscape:connector-curvature="0"
         id="path4342"
         d="m 2167.406,1922.556 1.331,-0.832 c -0.186,0.942 -0.633,1.637 -1.266,2.036 v 0 l -1.332,0.833 c 0.636,-0.396 1.084,-1.091 1.267,-2.037" />
    </clipPath>
  </defs>
  <sodipodi:namedview
     id="base"
     pagecolor="#ffffff"
     bordercolor="#666666"
     borderopacity="1.0"
     inkscape:pageopacity="0.0"
     inkscape:pageshadow="2"
     inkscape:zoom="0.35"
     inkscape:cx="445.48956"
     inkscape:cy="465.38279"
     inkscape:document-units="mm"
     inkscape:current-layer="layer1"
     showgrid="false"
     fit-margin-top="0"
     fit-margin-left="0"
     fit-margin-right="0"
     fit-margin-bottom="0"
     inkscape:window-width="1366"
     inkscape:window-height="716"
     inkscape:window-x="-8"
     inkscape:window-y="-8"
     inkscape:window-maximized="1" />
  <metadata
     id="metadata45328">
    <rdf:RDF>
      <cc:Work
         rdf:about="">
        <dc:format>image/svg+xml</dc:format>
        <dc:type
           rdf:resource="http://purl.org/dc/dcmitype/StillImage" />
        <dc:title></dc:title>
      </cc:Work>
    </rdf:RDF>
  </metadata>
  <g
     inkscape:label="Layer 1"
     inkscape:groupmode="layer"
     id="layer1"
     transform="translate(195.35423,-478.03032)">
    <g
       transform="translate(-121.68355,245.77131)"
       id="g43259">
      <g
         transform="matrix(0.35277777,0,0,-0.35277777,-66.958938,264.6688)"
         id="g4042">
        <path
           inkscape:connector-curvature="0"
           id="path4044"
           style="fill:#c19a80;fill-opacity:1;fill-rule:nonzero;stroke:none"
           d="m 0,0 -4.521,0.761 -2.483,-5.405 -0.121,-0.932 -0.105,-6.285 c 0,0 -0.239,-4.821 2.973,-5.387 2.352,-0.414 0.256,-0.047 0.256,-0.047 3.224,-0.542 3.992,3.013 3.992,3.013 l 2.144,9.454 C 2.474,-2.807 2.066,-0.351 0,0" />
      </g>
      <g
         transform="matrix(0.35277777,0,0,-0.35277777,-67.646218,265.94984)"
         id="g4046">
        <path
           inkscape:connector-curvature="0"
           id="path4048"
           style="fill:#e8c5ac;fill-opacity:1;fill-rule:nonzero;stroke:none"
           d="m 0,0 c 0.777,-1.652 -0.815,-3.844 -2.235,-4.585 -0.493,-0.259 0.666,-3.516 0.483,-5.055 -0.192,-1.618 -1.716,-1.509 -2.077,-1.251 -0.284,0.207 -1.107,5.419 -1.36,6.724 -0.844,4.348 0.55,5.251 1.966,5.997 C -1.808,2.573 -0.779,1.653 0,0" />
      </g>
      <g
         transform="matrix(0.35277777,0,0,-0.35277777,-69.307428,265.83343)"
         id="g4050">
        <path
           inkscape:connector-curvature="0"
           id="path4052"
           style="fill:#141413;fill-opacity:1;fill-rule:nonzero;stroke:none"
           d="m 0,0 c 4.647,-4.929 8.118,-0.917 8.118,-0.917 0,0 0.935,4.701 1.137,5.495 1.144,4.5 5.367,19.92 6.07,25.662 0.77,6.307 1.411,17.711 1.411,17.711 0,0 1.594,13.299 -4.625,15.644 C 8.556,64.938 1.888,63.178 1.595,47.611 1.52,43.598 1.827,32.759 1.307,27.57 0.342,17.935 -1.168,2.055 -1.168,2.055 -1.168,2.055 -1.376,1.458 0,0" />
      </g>
      <g
         transform="matrix(0.35277777,0,0,-0.35277777,-67.888418,287.2092)"
         id="g4054">
        <path
           inkscape:connector-curvature="0"
           id="path4056"
           style="fill:#231f20;fill-opacity:1;fill-rule:nonzero;stroke:none"
           d="m 0,0 -1.406,-2.617 c 0,0 -11.718,-3.932 -12.445,-4.259 -0.827,-0.372 -2.643,-1.009 -2.483,-2.51 0.035,-0.358 0.014,-0.585 0.23,-0.911 0.775,-1.17 2.407,-1.724 3.93,-2.036 3.32,-0.686 10.379,0.103 10.379,0.103 2.055,0.175 5.552,0.867 5.94,1.155 0,0 1.842,0.42 2.014,0.032 0.099,-0.226 -0.113,-1.223 -0.141,-1.428 l 4.437,1.611 c 0.223,0.105 0.703,2.182 0.844,3.107 l 0.132,6.127 z" />
      </g>
      <g
         transform="matrix(0.35277777,0,0,-0.35277777,-72.836948,291.16503)"
         id="g4058">
        <path
           inkscape:connector-curvature="0"
           id="path4060"
           style="fill:#282827;fill-opacity:1;fill-rule:nonzero;stroke:none"
           d="m 0,0 c 0.856,-0.443 2.078,-0.697 3.293,-0.873 4.853,-0.698 12.281,0.703 12.281,0.703 0.735,0.144 2.534,0.554 3.395,0.624 0.31,0.025 1.262,-0.023 1.218,-0.284 0.006,0.13 -0.015,0.014 0.044,-0.008 0.106,-0.04 -0.186,-1.419 -0.186,-1.419 l -1.147,0.775 c 0,0 -3.403,-0.626 -4.007,-0.795 0,0 -7.149,-1.329 -12.037,-0.683 -1.54,0.205 -4.129,1.181 -5.003,2.625 C -2.302,0.918 -2.472,1.535 -2.273,1.96 -2.255,1.884 -1.162,0.602 0,0" />
      </g>
      <g
         transform="matrix(0.35277777,0,0,-0.35277777,-65.715608,291.10509)"
         id="g4062">
        <path
           inkscape:connector-curvature="0"
           id="path4064"
           style="fill:#282827;fill-opacity:1;fill-rule:nonzero;stroke:none"
           d="m 0,0 4.857,1.957 c 0,0 -0.454,-1.814 -0.517,-1.779 l -4.435,-1.61 C -0.076,-1.29 -0.026,-0.385 0,0" />
      </g>
      <g
         transform="matrix(0.35277777,0,0,-0.35277777,-67.185628,264.67311)"
         id="g4066">
        <path
           inkscape:connector-curvature="0"
           id="path4068"
           style="fill:#141413;fill-opacity:1;fill-rule:nonzero;stroke:none"
           d="M 0,0 -4.592,-63.703 C -5,-66.295 -6.564,-67.151 -5.828,-68.05 -3.08,-71.413 9.264,-74.714 11.16,-69.248 l 8.615,64.133 z" />
      </g>
      <g
         transform="matrix(0.35277777,0,0,-0.35277777,-54.014668,291.84752)"
         id="g4070">
        <path
           inkscape:connector-curvature="0"
           id="path4072"
           style="fill:#383736;fill-opacity:1;fill-rule:nonzero;stroke:none"
           d="m 0,0 c 0,0 0.204,-6.855 0.217,-7.019 0.247,-3.044 -3.326,-10.861 -8.472,-11.363 -0.764,-0.075 -3.453,0.164 -3.453,0.164 0,0 -3.514,0.1 -2.822,6.29 0.27,2.403 2.773,12.098 2.773,12.098 z" />
      </g>
      <g
         transform="matrix(0.35277777,0,0,-0.35277777,-53.838618,291.24409)"
         id="g4074">
        <path
           inkscape:connector-curvature="0"
           id="path4076"
           style="fill:#231f20;fill-opacity:1;fill-rule:nonzero;stroke:none"
           d="m 0,0 c 0,0 -0.419,-3.935 -0.775,-9.061 -0.214,-3.049 -3.919,-9.521 -8.451,-9.791 -1.17,-0.069 -2.098,0.034 -2.176,0.037 -1.952,0.089 -4.619,0.793 -3.51,7.094 0.398,2.251 2.029,10.916 2.163,10.923 z" />
      </g>
      <g
         transform="matrix(0.35277777,0,0,-0.35277777,-62.715258,265.19419)"
         id="g4078">
        <path
           inkscape:connector-curvature="0"
           id="path4080"
           style="fill:#383736;fill-opacity:1;fill-rule:nonzero;stroke:none"
           d="m 0,0 c 0.91,-13.373 10.26,-78.679 10.26,-78.679 0.138,-1.876 2.047,-4.535 5.203,-4.889 3.899,-0.435 6.639,1.522 6.639,1.522 2.495,0.878 3.482,3.735 3.505,4.394 L 20.188,3.221 Z" />
      </g>
      <g
         transform="matrix(0.35277777,0,0,-0.35277777,-57.158668,247.07764)"
         id="g4082">
        <path
           inkscape:connector-curvature="0"
           id="path4084"
           style="fill:#ededed;fill-opacity:1;fill-rule:nonzero;stroke:none"
           d="m 0,0 c 0,0 -6.365,7.32 -9.36,8.369 -2.994,1.047 -12.496,0.234 -12.496,0.234 0,0 -4.739,-11.208 -4.764,-11.963 -0.027,-0.757 2.997,-20.564 2.997,-20.564 l 15.34,8.768 z" />
      </g>
      <g
         transform="matrix(0.35277777,0,0,-0.35277777,-66.501418,243.88248)"
         id="g4086">
        <path
           inkscape:connector-curvature="0"
           id="path4088"
           style="fill:#282827;fill-opacity:1;fill-rule:nonzero;stroke:none"
           d="M 0,0 C 1.926,2.004 6.429,1.887 8.502,1.73 6.025,-0.15 2.872,-6.125 2.588,-14.5 c -0.149,-4.369 1.263,-14.793 1.401,-14.541 0.127,0.236 8.747,16.33 11.976,19.345 4.096,3.826 4.599,7.09 4.506,7.094 -0.723,0.592 -1.123,0.92 -1.336,1.096 l 0.024,-0.01 c 0,0 16.029,-10.675 15.558,-13.312 l -2.389,-50.644 c 0.089,0.527 0.067,-3.92 -2.39,-5.342 0,0 -6.353,-3.702 -14.209,-4.339 -11.547,-0.937 -20.315,7.862 -20.315,7.862 -0.601,0.645 -0.941,1.087 -0.892,2.618 l 4.511,15.396 -2.366,26.927 C -3.986,-10.911 -5.167,-5.374 0,0" />
      </g>
      <g
         transform="matrix(0.35277777,0,0,-0.35277777,-63.819418,245.65877)"
         id="g4090">
        <path
           inkscape:connector-curvature="0"
           id="path4092"
           style="fill:#e8c5ac;fill-opacity:1;fill-rule:nonzero;stroke:none"
           d="M 0,0 C 4.705,-4.644 8.253,0.503 11.29,4.119 L 11.872,17.103 0.251,13.66 Z" />
      </g>
      <g
         transform="matrix(0.35277777,0,0,-0.35277777,-61.125348,237.12339)"
         id="g4094">
        <path
           inkscape:connector-curvature="0"
           id="path4096"
           style="fill:#ffe8d9;fill-opacity:1;fill-rule:nonzero;stroke:none"
           d="m 0,0 c -2.647,0.09 -3.027,-2.438 -3.027,-2.438 l -0.178,-5.309 c 0,0 0.087,-1.158 1.075,-1.396 1.493,-0.358 2.191,0.936 2.914,2.358 0.042,0.082 0.972,2.186 1.027,2.311 C 2.608,-2.689 2.503,-0.083 0,0" />
      </g>
      <g
         transform="matrix(0.35277777,0,0,-0.35277777,-65.289788,269.54225)"
         id="g4098">
        <path
           inkscape:connector-curvature="0"
           id="path4100"
           style="fill:#383736;fill-opacity:1;fill-rule:nonzero;stroke:none"
           d="M 0,0 C 0,0 1.46,16.309 1.057,21.567 -0.06,36.067 0.042,42.53 0.042,42.53 c 0,0 0.609,0.78 0.868,1.273 0,0 -0.096,-11.584 0.948,-22.264 0.518,-5.29 -1.153,-21.83 -1.153,-21.83 -0.269,0.144 0,0 -0.705,0.291" />
      </g>
      <g
         transform="matrix(0.35277777,0,0,-0.35277777,-64.091228,248.44654)"
         id="g4102">
        <path
           inkscape:connector-curvature="0"
           id="path4104"
           style="fill:#f44927;fill-opacity:1;fill-rule:nonzero;stroke:none"
           d="M 0,0 C 0.141,0.457 0.151,0.811 0.082,1.363 L -0.181,3.061 2.32,6.634 3.484,6.364 3.982,2.209 2.369,0.701 C 1.985,0.375 1.6,-0.493 1.604,-0.979 l -1.539,-11.765 -2.862,-3.361 -1.399,4.784 z" />
      </g>
      <g
         transform="matrix(0.35277777,0,0,-0.35277777,-64.268648,244.06299)"
         id="g4106">
        <path
           inkscape:connector-curvature="0"
           id="path4108"
           style="fill:#7a797a;fill-opacity:1;fill-rule:nonzero;stroke:none"
           d="m 0,0 0.646,1.883 c 0,0 -3.17,-1.699 -5.286,-4.842 -0.731,-1.085 -2.455,-5.137 -2.455,-5.137 -0.416,-1.123 -0.16,-1.889 0.479,-2.622 l 1.859,-2.478 -1.804,-1.951 c -0.737,-1.079 -0.668,-1.439 -0.181,-2.404 l 4.52,-11.294 c 0,0 -0.51,7.389 -0.582,11.841 C -2.966,-6.529 0,0 0,0" />
      </g>
      <g
         transform="matrix(0.35277777,0,0,-0.35277777,-63.234078,245.91267)"
         id="g4110">
        <path
           inkscape:connector-curvature="0"
           id="path4112"
           style="fill:#ffffff;fill-opacity:1;fill-rule:nonzero;stroke:none"
           d="m 0,0 c 0.652,-0.549 0.122,-1.269 -0.251,-1.763 l -2.331,-3.07 c -0.741,-0.916 -1.035,0.148 -1.025,1.135 l 0.243,7.159 c 0.555,4.464 2.018,3.859 2.018,3.859 0,0 0.205,-0.407 0.097,-1.328 C -1.43,4.461 -2.228,1.868 0,0" />
      </g>
      <g
         transform="matrix(0.35277777,0,0,-0.35277777,-59.783488,243.00588)"
         id="g4114">
        <path
           inkscape:connector-curvature="0"
           id="path4116"
           style="fill:#ffffff;fill-opacity:1;fill-rule:nonzero;stroke:none"
           d="M 0,0 C 0,0 0.083,-0.861 -0.626,-1.89 -3.281,-5.747 -8.865,-8.432 -8.865,-8.432 -9.62,-8.691 -9.6,-9.06 -9.515,-10.328 l 0.607,-4.647 c 0.086,-1.219 0.722,-1.115 1.22,-0.626 0,0 5.002,4.077 6.415,5.454 3.316,3.241 3.39,3.04 2.277,7.277 C 0.331,-0.315 0,0 0,0" />
      </g>
      <g
         transform="matrix(0.35277777,0,0,-0.35277777,-59.404498,244.01925)"
         id="g4118">
        <path
           inkscape:connector-curvature="0"
           id="path4120"
           style="fill:#7a797a;fill-opacity:1;fill-rule:nonzero;stroke:none"
           d="m 0,0 1.771,-2.262 c 0,0 0.527,-0.696 0.629,-0.946 0.351,-0.841 -2.492,-4.112 -3.538,-9.376 -0.315,-1.588 -1.064,-2.047 -2.25,-2.102 l -4.181,-0.378 1.215,-2.188 c 0.775,-0.829 0.059,-1.827 -0.687,-2.488 -4.142,-3.675 -9.558,-10.177 -9.558,-10.177 0,0 1.307,7.136 7.355,16.278 C -7.038,-10.307 0,0 0,0" />
      </g>
      <g
         transform="matrix(0.35277777,0,0,-0.35277777,-54.129398,269.70054)"
         id="g4122">
        <path
           inkscape:connector-curvature="0"
           id="path4124"
           style="fill:#e8c5ac;fill-opacity:1;fill-rule:nonzero;stroke:none"
           d="m 0,0 c -0.054,-1.738 -2.435,-2.808 -4.02,-2.758 -0.55,0.015 -1.555,-4.189 -3.822,-3.971 0,0 0.039,1.135 0.178,3.119 0.01,0.16 -0.19,1.862 0.883,3.026 2.84,3.076 3.172,3.67 4.755,3.622 C -0.443,2.986 0.05,1.74 0,0" />
      </g>
      <g
         transform="matrix(0.35277777,0,0,-0.35277777,-50.959578,278.26007)"
         id="g4126">
        <path
           inkscape:connector-curvature="0"
           id="path4128"
           style="fill:#6d320a;fill-opacity:1;fill-rule:nonzero;stroke:none"
           d="M 0,0 C -0.008,-0.295 -0.143,-0.625 -0.347,-0.891 Z" />
      </g>
      <g
         transform="matrix(0.35277777,0,0,-0.35277777,-50.919948,277.02206)"
         id="g4130">
        <path
           inkscape:connector-curvature="0"
           id="path4132"
           style="fill:#6d320a;fill-opacity:1;fill-rule:nonzero;stroke:none"
           d="M 0,0 C 6.731,8.359 8.024,17.371 8.095,17.847 L 8.041,16.207 7.812,15.206 C 7.2,12.328 5.241,5.133 -0.045,-1.385 Z" />
      </g>
      <g
         transform="matrix(0.35277777,0,0,-0.35277777,-56.829998,281.38853)"
         id="g4134">
        <path
           inkscape:connector-curvature="0"
           id="path4136"
           style="fill:#6d320a;fill-opacity:1;fill-rule:nonzero;stroke:none"
           d="M 0,0 C -0.008,-0.295 -0.145,-0.627 -0.347,-0.893 Z" />
      </g>
      <g
         transform="matrix(0.35277777,0,0,-0.35277777,-60.630978,286.41305)"
         id="g4138">
        <path
           inkscape:connector-curvature="0"
           id="path4140"
           style="fill:#723919;fill-opacity:1;fill-rule:nonzero;stroke:none"
           d="M 0,0 -8.308,5.211 C -8.652,5.428 -8.854,5.864 -8.834,6.479 L -0.525,1.268 C -0.545,0.652 -0.342,0.213 0,0" />
      </g>
      <g
         transform="matrix(0.35277777,0,0,-0.35277777,-60.549668,277.38087)"
         id="g4142">
        <path
           inkscape:connector-curvature="0"
           id="path4144"
           style="fill:#8c532c;fill-opacity:1;fill-rule:nonzero;stroke:none"
           d="m 0,0 -0.051,-1.637 0.152,-0.799 c 0.917,-4.452 3.503,-7.305 7.102,-8.15 0,0 7.588,0.831 9.959,2.095 2.502,1.333 6.441,4.678 6.877,4.912 l 3.213,3.211 c 5.286,6.518 7.245,13.713 7.856,16.591 l 0.23,1.001 -0.703,-22.7 C 34.596,-6.707 33.678,-8.182 32.582,-8.765 L 1.154,-25.517 c -1.095,-0.583 -1.949,-0.052 -1.91,1.182 z" />
      </g>
      <g
         transform="matrix(0.35277777,0,0,-0.35277777,-60.552418,277.47509)"
         id="g4146">
        <path
           inkscape:connector-curvature="0"
           id="path4148"
           style="fill:#5c361d;fill-opacity:1;fill-rule:nonzero;stroke:none"
           d="M 0,0 -8.309,5.211 -8.299,5.48 0.008,0.267 Z" />
      </g>
      <g
         transform="matrix(0.35277777,0,0,-0.35277777,-60.552418,277.47509)"
         id="g4150">
        <path
           inkscape:connector-curvature="0"
           id="path4152"
           style="fill:#6d320a;fill-opacity:1;fill-rule:nonzero;stroke:none"
           d="M 0,0 C 0.755,-4.93 3.438,-8.086 7.262,-8.98 7.253,-9.029 7.25,-9.075 7.247,-9.122 l -0.036,-1.197 c -3.6,0.845 -6.186,3.698 -7.103,8.151 l -0.151,0.798 z" />
      </g>
      <g
         transform="matrix(0.35277777,0,0,-0.35277777,-48.064298,270.72615)"
         id="g4154">
        <path
           inkscape:connector-curvature="0"
           id="path4156"
           style="fill:#a5683d;fill-opacity:1;fill-rule:nonzero;stroke:none"
           d="m 0,0 c -0.07,-0.476 -1.363,-9.487 -8.095,-17.847 l 0.009,0.289 c 0.013,0.491 -0.331,0.702 -0.766,0.47 l -1.841,-0.982 c -0.44,-0.233 -0.805,-0.823 -0.82,-1.313 l -0.069,-2.185 c -1.872,-1.718 -4.038,-3.3 -6.537,-4.631 -2.371,-1.266 -4.624,-1.96 -6.669,-2.129 l 0.058,1.9 c 0.014,0.488 -0.326,0.703 -0.759,0.473 l -1.844,-0.985 c -0.396,-0.209 -0.734,-0.715 -0.805,-1.171 -3.824,0.894 -6.507,4.05 -7.261,8.98 l 0.007,0.267 11.066,5.896 1.615,0.862 9.961,5.309 1.614,0.862 z" />
      </g>
      <g
         transform="matrix(0.35277777,0,0,-0.35277777,-50.995038,268.88785)"
         id="g4158">
        <path
           inkscape:connector-curvature="0"
           id="path4160"
           style="fill:#6d3b18;fill-opacity:1;fill-rule:nonzero;stroke:none"
           d="m 0,0 8.308,-5.211 -35.392,-18.864 -0.051,-1.637 -0.705,-22.698 c -0.019,-0.616 0.184,-1.055 0.526,-1.268 l -8.308,5.212 c -0.345,0.216 -0.546,0.653 -0.526,1.267 l 0.757,24.337 z" />
      </g>
      <g
         transform="matrix(0.35277777,0,0,-0.35277777,-56.790048,280.68714)"
         id="g4162">
        <path
           inkscape:connector-curvature="0"
           id="path4164"
           style="fill:#6d320a;fill-opacity:1;fill-rule:nonzero;stroke:none"
           d="m 0,0 c 2.046,0.173 4.295,0.865 6.668,2.13 2.501,1.335 4.667,2.914 6.538,4.63 L 14.01,6.525 13.808,5.93 C 11.938,4.225 9.127,2.124 6.626,0.788 4.255,-0.477 2.004,-1.168 -0.045,-1.341 Z" />
      </g>
      <g
         transform="matrix(0.35277777,0,0,-0.35277777,-57.772228,281.4037)"
         id="g4166">
        <path
           inkscape:connector-curvature="0"
           id="path4168"
           style="fill:#75460d;fill-opacity:1;fill-rule:nonzero;stroke:none"
           d="m 0,0 -0.059,-1.832 c -0.005,-0.216 0.066,-0.37 0.188,-0.447 l -0.332,0.209 c -0.12,0.075 -0.193,0.231 -0.186,0.445 l 0.055,1.834 z" />
      </g>
      <g
         transform="matrix(0.35277777,0,0,-0.35277777,-57.772228,281.4037)"
         id="g4170">
        <path
           inkscape:connector-curvature="0"
           id="path4172"
           style="fill:#eb921a;fill-opacity:1;fill-rule:nonzero;stroke:none"
           d="M 0,0 -0.334,0.209 2.479,1.708 2.811,1.499 Z" />
      </g>
      <g
         transform="matrix(0.35277777,0,0,-0.35277777,-56.780728,280.87506)"
         id="g4174">
        <path
           inkscape:connector-curvature="0"
           id="path4176"
           style="fill:#d87a13;fill-opacity:1;fill-rule:nonzero;stroke:none"
           d="m 0,0 -0.056,-1.833 c -0.012,-0.433 -0.336,-0.951 -0.72,-1.155 l -1.419,-0.759 c -0.384,-0.205 -0.686,-0.017 -0.674,0.416 l 0.058,1.832 z" />
      </g>
      <g
         transform="matrix(0.35277777,0,0,-0.35277777,-57.785328,280.18362)"
         id="g4178">
        <path
           inkscape:connector-curvature="0"
           id="path4180"
           style="fill:#89550f;fill-opacity:1;fill-rule:nonzero;stroke:none"
           d="M 0,0 1.839,0.979 C 2.059,1.095 2.255,1.1 2.393,1.015 L 3.058,0.595 C 2.92,0.684 2.726,0.678 2.503,0.561 L 0.664,-0.42 c -0.4,-0.212 -0.801,-0.795 -0.819,-1.314 l -0.07,-2.219 -0.664,0.417 0.069,2.221 C -0.805,-0.805 -0.407,-0.222 0,0" />
      </g>
      <g
         transform="matrix(0.35277777,0,0,-0.35277777,-56.902358,279.98588)"
         id="g4182">
        <path
           inkscape:connector-curvature="0"
           id="path4184"
           style="fill:#f99b1c;fill-opacity:1;fill-rule:nonzero;stroke:none"
           d="m 0,0 c 0.438,0.233 0.779,0.025 0.764,-0.47 l -0.068,-2.221 -3.424,-1.822 0.07,2.219 c 0.015,0.495 0.382,1.081 0.819,1.314 z" />
      </g>
      <g
         transform="matrix(0.35277777,0,0,-0.35277777,-51.835668,278.3145)"
         id="g4186">
        <path
           inkscape:connector-curvature="0"
           id="path4188"
           style="fill:#75460d;fill-opacity:1;fill-rule:nonzero;stroke:none"
           d="M 0,0 -0.055,-1.83 C -0.063,-2.047 0.011,-2.201 0.13,-2.276 l -0.331,0.209 c -0.121,0.074 -0.195,0.23 -0.186,0.445 l 0.057,1.831 z" />
      </g>
      <g
         transform="matrix(0.35277777,0,0,-0.35277777,-51.835668,278.3145)"
         id="g4190">
        <path
           inkscape:connector-curvature="0"
           id="path4192"
           style="fill:#eb921a;fill-opacity:1;fill-rule:nonzero;stroke:none"
           d="M 0,0 -0.33,0.209 2.48,1.708 2.813,1.5 Z" />
      </g>
      <g
         transform="matrix(0.35277777,0,0,-0.35277777,-50.843478,277.78515)"
         id="g4194">
        <path
           inkscape:connector-curvature="0"
           id="path4196"
           style="fill:#d87a13;fill-opacity:1;fill-rule:nonzero;stroke:none"
           d="M 0,0 -0.057,-1.833 C -0.07,-2.266 -0.39,-2.786 -0.777,-2.989 L -2.195,-3.748 C -2.579,-3.95 -2.882,-3.766 -2.867,-3.33 l 0.054,1.83 z" />
      </g>
      <g
         transform="matrix(0.35277777,0,0,-0.35277777,-51.848048,277.09526)"
         id="g4198">
        <path
           inkscape:connector-curvature="0"
           id="path4200"
           style="fill:#89550f;fill-opacity:1;fill-rule:nonzero;stroke:none"
           d="m 0,0 1.837,0.982 c 0.222,0.12 0.418,0.124 0.556,0.036 L 3.059,0.601 C 2.92,0.687 2.725,0.683 2.503,0.566 L 0.666,-0.414 C 0.581,-0.461 0.501,-0.52 0.424,-0.588 0.409,-0.601 0.393,-0.612 0.379,-0.627 0.092,-0.904 -0.145,-1.338 -0.154,-1.729 l -0.07,-2.221 -0.665,0.418 0.069,2.22 C -0.803,-0.806 -0.412,-0.216 0,0" />
      </g>
      <g
         transform="matrix(0.35277777,0,0,-0.35277777,-50.965088,276.89563)"
         id="g4202">
        <path
           inkscape:connector-curvature="0"
           id="path4204"
           style="fill:#f99b1c;fill-opacity:1;fill-rule:nonzero;stroke:none"
           d="m 0,0 c 0.438,0.231 0.78,0.023 0.763,-0.472 l -0.068,-2.22 -3.422,-1.824 0.07,2.221 c 0.014,0.494 0.38,1.081 0.82,1.315 z" />
      </g>
      <g
         transform="matrix(0.35277777,0,0,-0.35277777,-818.8386,949.9808)"
         id="g4206">
        <g
           clip-path="url(#clipPath4212)"
           id="g4208">
          <g
             transform="translate(2154.7344,1916.6904)"
             id="g4214">
            <path
               inkscape:connector-curvature="0"
               id="path4216"
               style="fill:#f99b1c;fill-opacity:1;fill-rule:nonzero;stroke:none"
               d="m 0,0 -0.028,-0.785 c -0.187,0.117 -0.276,0.265 -0.273,0.405 l 0.03,0.787 C -0.276,0.264 -0.188,0.116 0,0" />
          </g>
        </g>
      </g>
      <g
         transform="matrix(0.35277777,0,0,-0.35277777,-818.8386,949.9808)"
         id="g4218">
        <g
           clip-path="url(#clipPath4224)"
           id="g4220">
          <g
             transform="translate(2160.2656,1915.7119)"
             id="g4226">
            <path
               inkscape:connector-curvature="0"
               id="path4228"
               style="fill:#ea921a;fill-opacity:1;fill-rule:nonzero;stroke:none"
               d="m 0,0 -0.028,-0.784 c -0.005,-0.143 -0.103,-0.282 -0.294,-0.382 l 0.029,0.782 C -0.104,-0.28 -0.003,-0.142 0,0" />
          </g>
        </g>
      </g>
      <g
         transform="matrix(0.35277777,0,0,-0.35277777,-818.8386,949.9808)"
         id="g4230">
        <g
           clip-path="url(#clipPath4236)"
           id="g4232">
          <g
             transform="translate(2159.9727,1915.3281)"
             id="g4238">
            <path
               inkscape:connector-curvature="0"
               id="path4240"
               style="fill:#ea921a;fill-opacity:1;fill-rule:nonzero;stroke:none"
               d="m 0,0 -0.029,-0.782 -0.952,-0.511 0.028,0.784 z" />
          </g>
          <g
             transform="translate(2157.6602,1914.8672)"
             id="g4242">
            <path
               inkscape:connector-curvature="0"
               id="path4244"
               style="fill:#ffc585;fill-opacity:1;fill-rule:nonzero;stroke:none"
               d="m 0,0 -0.026,-0.786 -2.928,1.824 0.028,0.785 z" />
          </g>
        </g>
      </g>
      <g
         transform="matrix(0.35277777,0,0,-0.35277777,-818.8386,949.9808)"
         id="g4246">
        <g
           clip-path="url(#clipPath4252)"
           id="g4248">
          <g
             transform="translate(2159.0195,1914.8188)"
             id="g4254">
            <path
               inkscape:connector-curvature="0"
               id="path4256"
               style="fill:#f99b1c;fill-opacity:1;fill-rule:nonzero;stroke:none"
               d="m 0,0 -0.028,-0.784 c -0.379,-0.204 -0.99,-0.184 -1.358,0.047 l 0.027,0.785 C -0.987,-0.186 -0.377,-0.204 0,0" />
          </g>
        </g>
      </g>
      <g
         transform="matrix(0.35277777,0,0,-0.35277777,-818.8386,949.9808)"
         id="g4258">
        <g
           clip-path="url(#clipPath4264)"
           id="g4260">
          <g
             transform="translate(2159.9951,1916.1172)"
             id="g4266">
            <path
               inkscape:connector-curvature="0"
               id="path4268"
               style="fill:#ffb255;fill-opacity:1;fill-rule:nonzero;stroke:none"
               d="m 0,0 c 0.371,-0.231 0.359,-0.583 -0.022,-0.789 l -0.954,-0.509 c -0.377,-0.204 -0.987,-0.186 -1.359,0.048 l -2.926,1.823 c -0.368,0.23 -0.36,0.585 0.019,0.787 l 0.953,0.512 c 0.383,0.205 0.991,0.181 1.362,-0.048 z" />
          </g>
        </g>
      </g>
      <g
         transform="matrix(0.35277777,0,0,-0.35277777,-818.8386,949.9808)"
         id="g4270">
        <g
           clip-path="url(#clipPath4276)"
           id="g4272">
          <g
             transform="translate(2166.2637,1922.9194)"
             id="g4278">
            <path
               inkscape:connector-curvature="0"
               id="path4280"
               style="fill:#f99b1c;fill-opacity:1;fill-rule:nonzero;stroke:none"
               d="m 0,0 -0.031,-0.784 c -0.186,0.117 -0.276,0.263 -0.272,0.409 l 0.03,0.783 C -0.278,0.264 -0.188,0.117 0,0" />
          </g>
        </g>
      </g>
      <g
         transform="matrix(0.35277777,0,0,-0.35277777,-818.8386,949.9808)"
         id="g4282">
        <g
           clip-path="url(#clipPath4288)"
           id="g4284">
          <g
             transform="translate(2171.7939,1921.9419)"
             id="g4290">
            <path
               inkscape:connector-curvature="0"
               id="path4292"
               style="fill:#ea921a;fill-opacity:1;fill-rule:nonzero;stroke:none"
               d="m 0,0 -0.029,-0.786 c -0.005,-0.141 -0.104,-0.279 -0.292,-0.38 l 0.027,0.786 C -0.103,-0.281 -0.005,-0.143 0,0" />
          </g>
        </g>
      </g>
      <g
         transform="matrix(0.35277777,0,0,-0.35277777,-818.8386,949.9808)"
         id="g4294">
        <g
           clip-path="url(#clipPath4300)"
           id="g4296">
          <g
             transform="translate(2171.5,1921.5615)"
             id="g4302">
            <path
               inkscape:connector-curvature="0"
               id="path4304"
               style="fill:#ea921a;fill-opacity:1;fill-rule:nonzero;stroke:none"
               d="m 0,0 -0.027,-0.785 -0.953,-0.511 0.029,0.784 z" />
          </g>
          <g
             transform="translate(2169.1895,1921.0952)"
             id="g4306">
            <path
               inkscape:connector-curvature="0"
               id="path4308"
               style="fill:#ffc585;fill-opacity:1;fill-rule:nonzero;stroke:none"
               d="m 0,0 -0.029,-0.785 -2.928,1.826 0.031,0.783 z" />
          </g>
        </g>
      </g>
      <g
         transform="matrix(0.35277777,0,0,-0.35277777,-818.8386,949.9808)"
         id="g4310">
        <g
           clip-path="url(#clipPath4316)"
           id="g4312">
          <g
             transform="translate(2170.5488,1921.0493)"
             id="g4318">
            <path
               inkscape:connector-curvature="0"
               id="path4320"
               style="fill:#f99b1c;fill-opacity:1;fill-rule:nonzero;stroke:none"
               d="m 0,0 -0.029,-0.784 c -0.38,-0.204 -0.99,-0.185 -1.36,0.045 l 0.03,0.785 C -0.99,-0.187 -0.379,-0.201 0,0" />
          </g>
        </g>
      </g>
      <g
         transform="matrix(0.35277777,0,0,-0.35277777,-818.8386,949.9808)"
         id="g4322">
        <g
           clip-path="url(#clipPath4328)"
           id="g4324">
          <g
             transform="translate(2171.5215,1922.3486)"
             id="g4330">
            <path
               inkscape:connector-curvature="0"
               id="path4332"
               style="fill:#ffb255;fill-opacity:1;fill-rule:nonzero;stroke:none"
               d="m 0,0 c 0.37,-0.233 0.363,-0.583 -0.021,-0.787 l -0.952,-0.512 c -0.379,-0.201 -0.99,-0.187 -1.359,0.046 l -2.926,1.824 c -0.37,0.233 -0.36,0.585 0.018,0.788 l 0.953,0.511 c 0.383,0.204 0.991,0.184 1.361,-0.046 z" />
          </g>
          <g
             transform="translate(2166.1387,1924.5933)"
             id="g4334">
            <path
               inkscape:connector-curvature="0"
               id="path4336"
               style="fill:#8c532c;fill-opacity:1;fill-rule:nonzero;stroke:none"
               d="m 0,0 1.332,-0.833 c 0.633,-0.399 1.08,-1.094 1.267,-2.036 L 1.268,-2.038 C 1.085,-1.091 0.637,-0.396 0,0" />
          </g>
        </g>
      </g>
      <g
         transform="matrix(0.35277777,0,0,-0.35277777,-818.8386,949.9808)"
         id="g4338">
        <g
           clip-path="url(#clipPath4344)"
           id="g4340">
          <g
             transform="translate(2168.7373,1921.7241)"
             id="g4346">
            <path
               inkscape:connector-curvature="0"
               id="path4348"
               style="fill:#8c532c;fill-opacity:1;fill-rule:nonzero;stroke:none"
               d="M 0,0 -1.331,0.832 C -1.514,1.778 -1.962,2.474 -2.599,2.869 L -1.267,2.036 C -0.634,1.637 -0.187,0.942 0,0" />
          </g>
        </g>
      </g>
    </g>
    <g
       id="g4358"
       transform="matrix(0.35277777,0,0,-0.35277777,-175.94626,516.14278)">
      <path
         d="m 0,0 c -3.7,2.323 -10.351,-3.58 -11.468,-10.063 l 1.326,-0.835 c 1.12,6.47 7.768,12.389 11.472,10.064 z"
         style="fill:#8c532c;fill-opacity:1;fill-rule:nonzero;stroke:none"
         id="path4360"
         inkscape:connector-curvature="0" />
    </g>
    <g
       id="g4362"
       transform="matrix(0.35277777,0,0,-0.35277777,-177.12726,516.54138)">
      <path
         d="M 0,0 C 3.297,1.762 5.957,0.515 6.398,-2.736 L 4.783,-3.598 c -0.447,2.275 -2.417,3.103 -4.84,1.812 -2.422,-1.293 -4.512,-4.286 -5.121,-7.12 L -6.794,-9.768 C -6.132,-5.928 -3.301,-1.758 0,0"
         style="fill:#a5683d;fill-opacity:1;fill-rule:nonzero;stroke:none"
         id="path4364"
         inkscape:connector-curvature="0" />
    </g>
    <g
       id="g4366"
       transform="matrix(0.35277777,0,0,-0.35277777,-175.42263,514.0375)">
      <path
         d="m 0,0 -4.524,-0.651 -1.278,-3.072 0.535,-3.413 c 0,0 0.196,-0.929 -0.488,-2.11 -0.267,-0.462 -0.744,-1.261 -0.744,-1.261 0,0 -0.121,-3.467 2.494,-2.71 0.844,0.242 1.438,0.935 1.438,0.935 1.141,0.188 3.035,0.725 4.299,1.01 2.916,0.657 2.104,4.125 2.104,4.125 l -0.46,3.424 C 3.139,-1.798 2.071,0.293 0,0"
         style="fill:#e8c5ac;fill-opacity:1;fill-rule:nonzero;stroke:none"
         id="path4368"
         inkscape:connector-curvature="0" />
    </g>
    <g
       id="g4370"
       transform="matrix(0.35277777,0,0,-0.35277777,-175.65,515.51716)">
      <path
         d="m 0,0 c 1.784,-0.063 2.946,0.594 2.946,0.594 0,0 1.575,0.753 1.66,2.219 0.263,4.394 1.026,23.919 0.445,29.353 -0.634,5.97 -2.839,19.326 -2.839,19.326 0,0 -1.996,11.259 -8.539,10.425 -5.451,-0.693 -5.512,-7.552 -4.902,-12.326 0.478,-3.755 2.523,-16.133 3.298,-21.203 1.478,-9.69 2.013,-26.028 2.013,-26.028 0,0 1.773,-2.216 5.918,-2.36"
         style="fill:#383736;fill-opacity:1;fill-rule:nonzero;stroke:none"
         id="path4372"
         inkscape:connector-curvature="0" />
    </g>
    <g
       id="g4374"
       transform="matrix(0.35277777,0,0,-0.35277777,-184.24239,480.26401)">
      <path
         d="M 0,0 V -0.003 L 9.791,-0.34 9.41,-18.013 c -0.17,-1.206 -0.156,-2.304 -0.383,-3.322 -0.251,-1.122 -0.797,-2.151 -2.201,-3.147 0,0 -1.681,-1.635 -3.676,-3.121 -1.545,-1.154 -3.462,-2.065 -4.581,-1.855 -0.856,0.163 -3.477,1.123 -3.477,1.123 -1.878,0.869 -2.196,1.896 -2.876,4.014 -0.304,0.945 -1.878,16.908 -1.878,16.908 l 0.142,5.95 z"
         style="fill:#e8c5ac;fill-opacity:1;fill-rule:nonzero;stroke:none"
         id="path4376"
         inkscape:connector-curvature="0" />
    </g>
    <g
       id="g4378"
       transform="matrix(0.35277777,0,0,-0.35277777,-187.17969,479.83803)">
      <path
         d="m 0,0 c -2.794,-1.46 -2.47,-5.029 -2.212,-6.051 0.888,-3.516 0.997,-3.16 0.946,-3.21 -0.046,-0.044 -0.037,1.385 -0.056,2.778 -0.028,2.077 2.146,1.626 3.046,1.001 1.619,-1.126 4.758,-2.426 4.838,-2.473 1.102,-0.681 0.641,-0.184 0.745,0.626 0.022,0.181 0.06,1.26 0.06,1.26 0.143,-0.107 2.738,-1.364 3.395,-1.843 2.861,-2.091 2.47,-7.703 2.671,-7.693 0.84,0.031 0.776,0.386 1.036,1.238 0,0 0.193,3.989 3.413,2.348 1.698,-0.865 -0.053,-4.74 -0.169,-4.963 l -0.402,-5.725 c -0.004,-0.075 4.798,7.268 5.304,8.381 C 27.576,-3.401 19.66,8.069 8.287,4.44 6.006,3.71 0,0 0,0"
         style="fill:#633a11;fill-opacity:1;fill-rule:nonzero;stroke:none"
         id="path4380"
         inkscape:connector-curvature="0" />
    </g>
    <g
       id="g4382"
       transform="matrix(0.35277777,0,0,-0.35277777,-181.09774,483.75908)">
      <path
         d="m 0,0 c -2.535,0.078 -2.992,-4.131 -2.992,-4.131 l -0.055,-3.306 c 0,0 0.09,-1.11 1.037,-1.334 1.433,-0.339 2.155,0.531 2.841,1.897 0.042,0.077 0.924,2.097 0.979,2.221 C 2.567,-2.942 2.399,-0.072 0,0"
         style="fill:#e8c5ac;fill-opacity:1;fill-rule:nonzero;stroke:none"
         id="path4384"
         inkscape:connector-curvature="0" />
    </g>
  </g>
</svg>
