<?xml version="1.0" encoding="UTF-8" standalone="no"?>
<!-- Created with Inkscape (http://www.inkscape.org/) -->

<svg
   xmlns:dc="http://purl.org/dc/elements/1.1/"
   xmlns:cc="http://creativecommons.org/ns#"
   xmlns:rdf="http://www.w3.org/1999/02/22-rdf-syntax-ns#"
   xmlns:svg="http://www.w3.org/2000/svg"
   xmlns="http://www.w3.org/2000/svg"
   xmlns:sodipodi="http://sodipodi.sourceforge.net/DTD/sodipodi-0.dtd"
   xmlns:inkscape="http://www.inkscape.org/namespaces/inkscape"
   width="26.490084mm"
   height="71.100952mm"
   viewBox="0 0 26.490084 71.100952"
   version="1.1"
   id="svg113590"
   inkscape:version="0.92.3 (2405546, 2018-03-11)"
   sodipodi:docname="people-dancing-9.svg">
  <defs
     id="defs113584">
    <clipPath
       id="clipPath6938"
       clipPathUnits="userSpaceOnUse">
      <path
         inkscape:connector-curvature="0"
         id="path6936"
         d="m 332.31,670.939 h 80.557 V 627.742 H 332.31 Z" />
    </clipPath>
    <clipPath
       id="clipPath19962"
       clipPathUnits="userSpaceOnUse">
      <path
         inkscape:connector-curvature="0"
         id="path19960"
         d="m 509.182,647.722 h 56.485 v -19.98 h -56.485 z" />
    </clipPath>
    <clipPath
       id="clipPath19818"
       clipPathUnits="userSpaceOnUse">
      <path
         inkscape:connector-curvature="0"
         id="path19816"
         d="m 671.425,650.716 h 65.619 v -22.975 h -65.619 z" />
    </clipPath>
    <clipPath
       id="clipPath14734"
       clipPathUnits="userSpaceOnUse">
      <path
         inkscape:connector-curvature="0"
         id="path14732"
         d="m 800.948,651.727 h 68.678 v -23.986 h -68.678 z" />
    </clipPath>
    <clipPath
       id="clipPath14822"
       clipPathUnits="userSpaceOnUse">
      <path
         inkscape:connector-curvature="0"
         id="path14820"
         d="m 957.738,645.951 h 63.252 v -18.209 h -63.252 z" />
    </clipPath>
    <clipPath
       id="clipPath20130"
       clipPathUnits="userSpaceOnUse">
      <path
         inkscape:connector-curvature="0"
         id="path20128"
         d="m 1084.85,651.425 h 64.51 v -23.683 h -64.51 z" />
    </clipPath>
    <clipPath
       id="clipPath20722"
       clipPathUnits="userSpaceOnUse">
      <path
         inkscape:connector-curvature="0"
         id="path20720"
         d="m 1222.08,654.393 h 75.95 v -26.652 h -75.95 z" />
    </clipPath>
    <clipPath
       id="clipPath20266"
       clipPathUnits="userSpaceOnUse">
      <path
         inkscape:connector-curvature="0"
         id="path20264"
         d="m 1383.9,646.412 h 44.62 v -18.67 h -44.62 z" />
    </clipPath>
    <clipPath
       id="clipPath20442"
       clipPathUnits="userSpaceOnUse">
      <path
         inkscape:connector-curvature="0"
         id="path20440"
         d="m 1493.26,654.136 h 75.09 v -26.394 h -75.09 z" />
    </clipPath>
  </defs>
  <sodipodi:namedview
     id="base"
     pagecolor="#ffffff"
     bordercolor="#666666"
     borderopacity="1.0"
     inkscape:pageopacity="0.0"
     inkscape:pageshadow="2"
     inkscape:zoom="0.35"
     inkscape:cx="-592.30053"
     inkscape:cy="842.14136"
     inkscape:document-units="mm"
     inkscape:current-layer="layer1"
     showgrid="false"
     inkscape:window-width="1366"
     inkscape:window-height="716"
     inkscape:window-x="-8"
     inkscape:window-y="-8"
     inkscape:window-maximized="1"
     fit-margin-top="0"
     fit-margin-left="0"
     fit-margin-right="0"
     fit-margin-bottom="0" />
  <metadata
     id="metadata113587">
    <rdf:RDF>
      <cc:Work
         rdf:about="">
        <dc:format>image/svg+xml</dc:format>
        <dc:type
           rdf:resource="http://purl.org/dc/dcmitype/StillImage" />
        <dc:title></dc:title>
      </cc:Work>
    </rdf:RDF>
  </metadata>
  <g
     inkscape:label="Layer 1"
     inkscape:groupmode="layer"
     id="layer1"
     transform="translate(-79.227723,-300.54896)">
    <g
       id="g20436"
       transform="matrix(0.35277777,0,0,-0.35277777,-447.56121,593.10333)">
      <g
         id="g20438" />
      <g
         id="g20450">
        <g
           clip-path="url(#clipPath20442)"
           id="g20448"
           style="opacity:0.27000403">
          <g
             transform="translate(1501.8467,642.9189)"
             id="g20446">
            <path
               d="m 0,0 c 5.078,1.973 25.605,-0.688 18.061,6.02 -4.516,4.013 10.271,5.802 18.058,5.015 C 46.59,9.967 69.309,7.094 66.217,-4.012 64.291,-10.943 48.158,-16.055 27.592,-15.051 13.271,-14.352 -2.072,-10.605 -6.521,-7.525 -13.043,-3.012 -2.27,-0.887 0,0"
               style="fill:#231f20;fill-opacity:1;fill-rule:nonzero;stroke:none"
               id="path20444"
               inkscape:connector-curvature="0" />
          </g>
        </g>
      </g>
    </g>
    <g
       id="g20452"
       transform="matrix(0.35277777,0,0,-0.35277777,85.163199,316.88143)">
      <path
         d="m 0,0 c 0,0 2.002,-0.223 3.113,3.334 1.112,3.555 1.112,7.559 1.112,7.559 0,0 -1.559,0.668 -2.223,-1.557 C 1.336,7.113 1.127,4.93 -0.441,5.557 c -1.114,0.445 -1.782,3.334 -1.782,4.89 0,1.559 -0.443,5.112 -0.443,5.112 0,0 -1.334,1.334 -4,-2.002 -2.67,-3.332 -2.002,-5.555 -1.111,-8.444 0.886,-2.89 3.113,-8.447 3.113,-8.447 z"
         style="fill:#e5b28c;fill-opacity:1;fill-rule:nonzero;stroke:none"
         id="path20454"
         inkscape:connector-curvature="0" />
    </g>
    <g
       id="g20456"
       transform="matrix(0.35277777,0,0,-0.35277777,97.238254,306.0604)">
      <path
         d="m 0,0 c 0,0 5.67,4.557 6.113,8.223 0.424,3.492 -1.556,7.224 -1.556,7.224 0,0 -4.998,1.223 -4.998,-2.779 0,-4 -0.776,-3.783 -2.334,-5.777 C -4.777,4.334 -5.004,2.049 -4.553,1.221 -3.221,-1.223 0,0 0,0"
         style="fill:#e5b28c;fill-opacity:1;fill-rule:nonzero;stroke:none"
         id="path20458"
         inkscape:connector-curvature="0" />
    </g>
    <g
       id="g20460"
       transform="matrix(0.35277777,0,0,-0.35277777,97.866639,305.43339)">
      <path
         d="m 0,0 c 0,0 -0.678,-19.791 0.59,-26.227 1.183,-5.976 8.746,-22.748 8.746,-22.748 0,0 2.223,-7.554 -4.004,-6.22 -6.223,1.332 -13.045,21.455 -14.15,29.785 -0.819,6.174 2.297,25.41 2.297,25.41 0,0 0.964,-2.076 3.851,-1.406 C -1.91,-1.232 0,0 0,0"
         style="fill:#06bcb7;fill-opacity:1;fill-rule:nonzero;stroke:none"
         id="path20462"
         inkscape:connector-curvature="0" />
    </g>
    <g
       id="g20464"
       transform="matrix(0.35277777,0,0,-0.35277777,100.58481,323.259)">
      <path
         d="m 0,0 c 0,0 -2,8.445 1.332,14.523 0.729,1.327 -5.928,1.186 -5.928,1.186 0,0 -5.109,-4.375 -5.927,-12.375 C -10.801,0.59 0,0 0,0"
         style="fill:#f7cbad;fill-opacity:1;fill-rule:nonzero;stroke:none"
         id="path20466"
         inkscape:connector-curvature="0" />
    </g>
    <g
       id="g20468"
       transform="matrix(0.35277777,0,0,-0.35277777,100.48699,361.46304)">
      <path
         d="M 0,0 C 0,0 2.006,-1.486 1.795,-4.428 1.588,-7.375 1.654,-8.102 0.906,-8.652 0.158,-9.205 -2.059,-9.969 -3.826,-9.729 c -1.768,0.245 -4.606,1.963 -5.672,2.286 -1.066,0.32 -0.762,0.324 -4.568,1.523 -5.366,1.686 -6.28,3.115 -6.721,4.545 -0.447,1.453 -0.662,2.695 0,3.109 3.875,2.424 10.527,-2.322 12.236,-0.509 C -6.844,3.033 0,0 0,0"
         style="fill:#fafcfc;fill-opacity:1;fill-rule:nonzero;stroke:none"
         id="path20470"
         inkscape:connector-curvature="0" />
    </g>
    <g
       id="g20472"
       transform="matrix(0.35277777,0,0,-0.35277777,100.65855,360.89873)">
      <path
         d="m 0,0 c 0,0 0.865,-0.918 1.422,-4.141 0.5,-2.908 -0.229,-4.224 -0.518,-4.513 -0.818,-0.821 -3.424,-1.471 -5.183,-1.16 -1.401,0.251 -2.561,0.75 -3.578,1.207 -1.69,0.761 -2.704,1.005 -5.69,1.767 -4.639,1.19 -7.51,4.457 -7.867,5.91 -0.318,1.28 1.121,3.237 4.672,2.725 C -11.633,1.07 -9.84,0.896 -8.555,1.221 -6.139,1.832 0,0 0,0"
         style="fill:#5acfd1;fill-opacity:1;fill-rule:nonzero;stroke:none"
         id="path20474"
         inkscape:connector-curvature="0" />
    </g>
    <g
       id="g20476"
       transform="matrix(0.35277777,0,0,-0.35277777,96.402462,337.83037)">
      <path
         d="m 0,0 c -2.744,-7.906 -6.547,-25.172 -7.24,-35.385 -0.229,-3.406 0.051,-5.953 0.498,-7.254 4.89,-14.222 8.004,-23.111 8.004,-23.111 9.554,-9.561 11.701,-1.377 11.467,-0.332 0,0 -2.895,13.195 -5.469,19.889 -1.11,2.89 -2.563,6.662 -2.444,7.777 0.889,8.451 8.448,18.895 7.555,31.119 C 12.152,-4.258 4.854,13.965 0,0"
         style="fill:#7c9093;fill-opacity:1;fill-rule:nonzero;stroke:none"
         id="path20478"
         inkscape:connector-curvature="0" />
    </g>
    <g
       id="g20480"
       transform="matrix(0.35277777,0,0,-0.35277777,100.55655,313.15176)">
      <path
         d="m 0,0 -7.531,3.957 -5.541,-15.754 c -1.58,-4.314 0.33,-6.236 1.574,-6.912 2.584,-1.406 5.871,-1.375 7.783,-1.289 3.69,0.166 6.567,4.912 6.799,5.295 l 6.014,9.113 z"
         style="fill:#f7cbad;fill-opacity:1;fill-rule:nonzero;stroke:none"
         id="path20482"
         inkscape:connector-curvature="0" />
    </g>
    <g
       id="g20484"
       transform="matrix(0.35277777,0,0,-0.35277777,100.919,319.36809)">
      <path
         d="m 0,0 c 0,0 3.168,2.877 7.197,7.047 4.028,4.174 4.043,7.146 3.379,9.568 -0.431,1.582 -0.592,2.539 -0.791,3.526 -0.431,2.158 -0.144,2.734 -0.144,2.734 0,0 -1.834,0.699 -2.229,-1.15 -0.215,-1.01 -0.908,-0.659 -0.908,-0.659 0,0 -1.322,1.159 -0.461,2.6 0.865,1.439 1.437,1.582 1.437,1.582 0,0 -2.554,0.223 -3.812,-0.973 -0.647,-0.609 -0.719,0.614 -0.719,1.332 0,0.721 0.506,1.727 0.506,1.727 l -4.748,-1.293 c 0,0 -0.504,0.357 -0.504,1.078 0,0.721 0.934,1.297 0.934,1.297 0,0 -3.959,-0.172 -6.907,-4.174 -1.005,-1.367 -1.611,-4.115 -1.152,-6.258 0.436,-2.015 0.072,-7.484 0.072,-7.484 0,0 -1.293,-4.102 1.08,-1.15 1.225,1.521 2.231,-2.59 2.735,-5.899 C -4.512,-0.014 -3.02,-2.305 0,0"
         style="fill:#160404;fill-opacity:1;fill-rule:nonzero;stroke:none"
         id="path20486"
         inkscape:connector-curvature="0" />
    </g>
    <g
       id="g20488"
       transform="matrix(0.35277777,0,0,-0.35277777,98.593556,315.61088)">
      <path
         d="M 0,0 C 0,0 1.033,-0.857 0.633,-2.393 0.35,-3.479 -0.43,-4.059 -0.748,-4.182 c -0.838,-0.326 -1.424,-0.154 -1.424,-0.154 0,0 1.336,2.213 1.555,2.641 C -0.395,-1.277 0,0 0,0"
         style="fill:#e5b7a3;fill-opacity:1;fill-rule:nonzero;stroke:none"
         id="path20490"
         inkscape:connector-curvature="0" />
    </g>
    <g
       id="g20492"
       transform="matrix(0.35277777,0,0,-0.35277777,98.503994,315.32769)">
      <path
         d="m 0,0 c 0,0 -0.631,0.418 -0.727,-0.791 -0.087,-1.205 -0.31,-1.832 -0.603,-2.371 -0.274,-0.492 -1.238,-1.856 -1.238,-1.856 0,0 0.054,-0.837 0.97,-0.195 0.436,0.305 1.032,1.027 1.614,2.065 C 0.256,-2.727 0.828,-0.211 0,0"
         style="fill:#f7ddcb;fill-opacity:1;fill-rule:nonzero;stroke:none"
         id="path20494"
         inkscape:connector-curvature="0" />
    </g>
    <g
       id="g20496"
       transform="matrix(0.35277777,0,0,-0.35277777,94.25894,338.05223)">
      <path
         d="m 0,0 c -7.139,-5.975 -18.668,-32.227 -18.668,-32.227 0,0 -4.223,-6.892 -1.115,-16.228 2.156,-6.463 4.578,-28.176 4.578,-28.176 -0.186,-1.408 7.934,6.656 10.982,4.842 0,0 0.666,15.779 -4.222,27.559 -1.84,4.427 5.507,13.507 10.224,19.484 5.465,6.922 10.44,12.68 10.371,17.488 C 12.016,2.873 7.875,2.854 7.875,2.854 7.875,2.854 1.607,1.346 0,0"
         style="fill:#a1b5b7;fill-opacity:1;fill-rule:nonzero;stroke:none"
         id="path20498"
         inkscape:connector-curvature="0" />
    </g>
    <g
       id="g20500"
       transform="matrix(0.35277777,0,0,-0.35277777,100.7488,343.27984)">
      <path
         d="m 0,0 c 0,0 2.811,10.111 3.654,18.959 0.76,7.99 2.561,12.756 2.516,32.211 0,0 -0.232,10.504 -7.379,11.213 -3.596,0.359 -15.631,-6.447 -17.406,-7.781 -1.207,-0.903 -3.311,-3.825 -3.338,-11.332 -0.012,-3.565 0.629,-12.411 0.668,-18.672 0.041,-6.094 -1.176,-12.85 -1.332,-14.545 C -22.863,7.277 -26.648,4.324 -26.396,4.15 -8.617,-8.297 0,0 0,0"
         style="fill:#1ed3d3;fill-opacity:1;fill-rule:nonzero;stroke:none"
         id="path20502"
         inkscape:connector-curvature="0" />
    </g>
    <g
       id="g20504"
       transform="matrix(0.35277777,0,0,-0.35277777,96.924749,324.40899)">
      <path
         d="m 0,0 c 0,0 3.885,-5.004 -2.219,-8.889 -4.892,-3.111 -19.252,-2.56 -26.377,-0.004 -7.744,2.782 -10.371,28.159 -10.371,28.159 0,0 2.369,4.441 6.518,2.963 C -32.168,22.127 -25.928,0 -23.26,-0.295 -16.342,-1.063 -2.008,5.975 0,0"
         style="fill:#34e3e8;fill-opacity:1;fill-rule:nonzero;stroke:none"
         id="path20506"
         inkscape:connector-curvature="0" />
    </g>
    <g
       id="g20508"
       transform="matrix(0.35277777,0,0,-0.35277777,89.986316,363.45773)">
      <path
         d="M 0,0 C 0,0 4.777,6.113 8.334,3.777 9.1,3.273 10.668,0.555 11.225,-1.334 11.492,-2.248 12.408,-5.57 8.998,-7.115 7.336,-7.865 3.887,-9.016 0.443,-11.223 c -3.451,-2.203 -8.586,-4.517 -10.111,-4.668 -2.965,-0.297 -6.004,0.754 -2.52,3.887 2.963,2.672 8.961,8.338 8.297,11.674 C -4.391,2.174 0,0 0,0"
         style="fill:#7ce9f2;fill-opacity:1;fill-rule:nonzero;stroke:none"
         id="path20510"
         inkscape:connector-curvature="0" />
    </g>
    <g
       id="g20512"
       transform="matrix(0.35277777,0,0,-0.35277777,85.144573,368.47656)">
      <path
         d="m 0,0 c 1.027,0.955 3.381,1.418 4.723,2.004 1.777,0.775 7.89,3.892 9.888,5.334 2.002,1.445 5.002,4.447 8.559,5.111 0.861,0.162 1.48,0.067 1.935,-0.166 C 25.398,10.957 25.586,8.408 22.723,7.111 21.061,6.361 17.611,5.211 14.168,3.004 10.717,0.801 5.582,-1.514 4.057,-1.664 1.957,-1.873 -0.17,-1.404 0,0"
         style="fill:#fafcfc;fill-opacity:1;fill-rule:nonzero;stroke:none"
         id="path20514"
         inkscape:connector-curvature="0" />
    </g>
    <g
       id="g20516"
       transform="matrix(0.35277777,0,0,-0.35277777,85.329913,368.89963)">
      <path
         d="m 0,0 c 0.102,0.076 0.201,0.15 0.285,0.221 1.334,1.113 9.912,3.648 14.135,6.759 4.225,3.116 5.447,5.668 9.447,5.112 0.354,-0.051 0.625,-0.139 0.862,-0.248 C 24.658,10.6 24.105,9.18 22.197,8.311 20.535,7.561 15.68,5.305 13.072,2.154 11.09,-0.246 8.059,-0.758 6.527,-0.908 4.998,-1.063 0.773,-0.814 0,0"
         style="fill:#81959b;fill-opacity:1;fill-rule:nonzero;stroke:none"
         id="path20518"
         inkscape:connector-curvature="0" />
    </g>
    <g
       id="g20520"
       transform="matrix(0.35277777,0,0,-0.35277777,97.473865,301.86564)">
      <path
         d="m 0,0 c 0,0 1.598,0.957 2.059,-1.627 0.173,-0.977 -0.325,-2.666 0.216,-4.074 0.659,-1.684 -0.83,-3.078 -0.83,-3.078 0,0 -1.779,-2.666 -4.334,-1.557 -1.15,0.5 0.26,3.385 1.889,5.891 0.686,1.049 0.906,3.252 1,4.445"
         style="fill:#f7cbad;fill-opacity:1;fill-rule:nonzero;stroke:none"
         id="path20522"
         inkscape:connector-curvature="0" />
    </g>
  </g>
</svg>
