<?xml version="1.0" encoding="UTF-8" standalone="no"?>
<!-- Created with Inkscape (http://www.inkscape.org/) -->

<svg
   xmlns:dc="http://purl.org/dc/elements/1.1/"
   xmlns:cc="http://creativecommons.org/ns#"
   xmlns:rdf="http://www.w3.org/1999/02/22-rdf-syntax-ns#"
   xmlns:svg="http://www.w3.org/2000/svg"
   xmlns="http://www.w3.org/2000/svg"
   xmlns:sodipodi="http://sodipodi.sourceforge.net/DTD/sodipodi-0.dtd"
   xmlns:inkscape="http://www.inkscape.org/namespaces/inkscape"
   width="21.442358mm"
   height="63.83363mm"
   viewBox="0 0 21.442358 63.83363"
   version="1.1"
   id="svg163002"
   inkscape:version="0.92.3 (2405546, 2018-03-11)"
   sodipodi:docname="people-business-02.svg">
  <defs
     id="defs162996">
    <clipPath
       id="clipPath660"
       clipPathUnits="userSpaceOnUse">
      <path
         inkscape:connector-curvature="0"
         id="path658"
         d="m 486.73,1922.527 c -0.629,-0.368 -1.09,-1.03 -1.302,-1.942 v 0 l 1.323,0.767 c 0.21,0.916 0.671,1.577 1.303,1.943 v 0 z" />
    </clipPath>
    <clipPath
       id="clipPath644"
       clipPathUnits="userSpaceOnUse">
      <path
         inkscape:connector-curvature="0"
         id="path642"
         d="M 0,2119.953 H 3253.108 V 0 H 0 Z" />
    </clipPath>
    <clipPath
       id="clipPath632"
       clipPathUnits="userSpaceOnUse">
      <path
         inkscape:connector-curvature="0"
         id="path630"
         d="m 483.642,1919.988 0.002,-0.766 c 0.363,-0.21 0.958,-0.212 1.325,0 v 0 l -10e-4,0.766 c -0.368,-0.214 -0.963,-0.211 -1.326,0" />
    </clipPath>
    <clipPath
       id="clipPath616"
       clipPathUnits="userSpaceOnUse">
      <path
         inkscape:connector-curvature="0"
         id="path614"
         d="M 0,2119.953 H 3253.108 V 0 H 0 Z" />
    </clipPath>
    <clipPath
       id="clipPath604"
       clipPathUnits="userSpaceOnUse">
      <path
         inkscape:connector-curvature="0"
         id="path602"
         d="m 482.46,1920.132 c 0,-0.138 0.091,-0.276 0.273,-0.38 v 0 l -0.002,0.765 c -0.182,0.105 -0.273,0.242 -0.273,0.382 v 0 z" />
    </clipPath>
    <clipPath
       id="clipPath592"
       clipPathUnits="userSpaceOnUse">
      <path
         inkscape:connector-curvature="0"
         id="path590"
         d="m 487.879,1921.668 0.002,-0.766 c 0.186,0.108 0.279,0.25 0.279,0.39 v 0 l -0.003,0.763 c 0,-0.138 -0.092,-0.279 -0.278,-0.387" />
    </clipPath>
    <clipPath
       id="clipPath580"
       clipPathUnits="userSpaceOnUse">
      <path
         inkscape:connector-curvature="0"
         id="path578"
         d="M 0,2119.953 H 3253.108 V 0 H 0 Z" />
    </clipPath>
    <clipPath
       id="clipPath568"
       clipPathUnits="userSpaceOnUse">
      <path
         inkscape:connector-curvature="0"
         id="path566"
         d="m 494.666,1913.538 0.003,-0.766 c 0.362,-0.212 0.957,-0.212 1.326,0 v 0 l -0.003,0.766 c -0.367,-0.215 -0.962,-0.213 -1.326,0" />
    </clipPath>
    <clipPath
       id="clipPath552"
       clipPathUnits="userSpaceOnUse">
      <path
         inkscape:connector-curvature="0"
         id="path550"
         d="M 0,2119.953 H 3253.108 V 0 H 0 Z" />
    </clipPath>
    <clipPath
       id="clipPath540"
       clipPathUnits="userSpaceOnUse">
      <path
         inkscape:connector-curvature="0"
         id="path538"
         d="m 493.485,1913.683 c 0,-0.139 0.091,-0.278 0.273,-0.381 v 0 l -0.002,0.763 c -0.182,0.106 -0.273,0.245 -0.273,0.383 v 0 z" />
    </clipPath>
    <clipPath
       id="clipPath528"
       clipPathUnits="userSpaceOnUse">
      <path
         inkscape:connector-curvature="0"
         id="path526"
         d="m 498.904,1915.218 0.002,-0.765 c 0.185,0.107 0.279,0.248 0.279,0.387 v 0 l -0.003,0.765 c 0,-0.139 -0.092,-0.281 -0.278,-0.387" />
    </clipPath>
    <clipPath
       id="clipPath322"
       clipPathUnits="userSpaceOnUse">
      <path
         inkscape:connector-curvature="0"
         id="path320"
         d="m 485.437,1880.48 h 45.11 v -29.6 h -45.11 z" />
    </clipPath>
  </defs>
  <sodipodi:namedview
     id="base"
     pagecolor="#ffffff"
     bordercolor="#666666"
     borderopacity="1.0"
     inkscape:pageopacity="0.0"
     inkscape:pageshadow="2"
     inkscape:zoom="0.35"
     inkscape:cx="-440.90758"
     inkscape:cy="3.4876261"
     inkscape:document-units="mm"
     inkscape:current-layer="layer1"
     showgrid="false"
     fit-margin-top="0"
     fit-margin-left="0"
     fit-margin-right="0"
     fit-margin-bottom="0"
     inkscape:window-width="1366"
     inkscape:window-height="716"
     inkscape:window-x="-8"
     inkscape:window-y="-8"
     inkscape:window-maximized="1" />
  <metadata
     id="metadata162999">
    <rdf:RDF>
      <cc:Work
         rdf:about="">
        <dc:format>image/svg+xml</dc:format>
        <dc:type
           rdf:resource="http://purl.org/dc/dcmitype/StillImage" />
        <dc:title></dc:title>
      </cc:Work>
    </rdf:RDF>
  </metadata>
  <g
     inkscape:label="Layer 1"
     inkscape:groupmode="layer"
     id="layer1"
     transform="translate(-39.171679,-85.92247)">
    <g
       id="g316"
       transform="matrix(0.35277777,0,0,-0.35277777,-126.55115,802.70542)">
      <g
         id="g318" />
      <g
         id="g330">
        <g
           clip-path="url(#clipPath322)"
           id="g328"
           style="opacity:0.28999299">
          <g
             transform="translate(488.3462,1869.2183)"
             id="g326">
            <path
               d="M 0,0 C -1.477,-2.954 -9.783,-12.92 10.705,-17.166 31.193,-21.41 28.24,-13.288 34.885,-7.013 41.53,-0.738 50.389,8.121 26.948,10.89 3.507,13.659 0,0 0,0"
               style="fill:#231f20;fill-opacity:1;fill-rule:nonzero;stroke:none"
               id="path324"
               inkscape:connector-curvature="0" />
          </g>
        </g>
      </g>
    </g>
    <g
       id="g332"
       transform="matrix(0.35277777,0,0,-0.35277777,55.210544,118.56959)">
      <path
         d="M 0,0 C -0.506,-1.618 1.348,-3.367 2.823,-3.823 3.335,-3.985 2.695,-7.117 3.095,-8.488 3.52,-9.927 4.969,-9.596 5.28,-9.306 5.522,-9.077 5.553,-4.219 5.606,-2.998 5.784,1.078 4.309,1.688 2.836,2.149 1.365,2.61 0.508,1.619 0,0"
         style="fill:#ffe8d9;fill-opacity:1;fill-rule:nonzero;stroke:none"
         id="path334"
         inkscape:connector-curvature="0" />
    </g>
    <g
       id="g336"
       transform="matrix(0.35277777,0,0,-0.35277777,54.701692,117.93396)">
      <path
         d="m 0,0 4.456,0.161 1.816,-5.228 0.02,-0.865 -0.582,-5.753 c 0,0 -0.292,-4.43 -3.46,-4.568 -2.322,-0.101 -0.251,-0.012 -0.251,-0.012 -3.18,-0.115 -3.539,3.223 -3.539,3.223 l -1.051,8.887 C -2.697,-2.27 -2.038,-0.077 0,0"
         style="fill:#ffe8d9;fill-opacity:1;fill-rule:nonzero;stroke:none"
         id="path338"
         inkscape:connector-curvature="0" />
    </g>
    <g
       id="g340"
       transform="matrix(0.35277777,0,0,-0.35277777,56.563415,118.65228)">
      <path
         d="m 0,0 c -4.828,-4.201 -7.951,-0.278 -7.951,-0.278 0,0 -0.614,4.376 -0.761,5.12 -0.831,4.207 -3.976,18.647 -4.301,23.967 -0.354,5.839 -0.268,16.346 -0.268,16.346 0,0 -0.718,12.309 5.475,14.032 3.543,0.984 9.154,-2.351 8.451,-11.93 C 0.375,43.578 -0.651,28.099 -0.651,28.099 L 1.264,1.803 C 1.264,1.803 1.43,1.243 0,0"
         style="fill:#141413;fill-opacity:1;fill-rule:nonzero;stroke:none"
         id="path342"
         inkscape:connector-curvature="0" />
    </g>
    <g
       id="g344"
       transform="matrix(0.35277777,0,0,-0.35277777,47.428934,100.42962)">
      <path
         d="m 0,0 c 0,0 3.508,5.354 6.461,6.275 2.952,0.923 12.182,-0.184 12.182,-0.184 0,0 4.246,-11.074 4.246,-11.813 0,-0.739 -3.599,-19.935 -3.599,-19.935 L 7.568,-15.044 Z"
         style="fill:#ededed;fill-opacity:1;fill-rule:nonzero;stroke:none"
         id="path346"
         inkscape:connector-curvature="0" />
    </g>
    <path
       d="m 52.351286,143.6414 h -2.61268 v -1.19662 h 2.61268 z"
       style="fill:#282827;fill-opacity:1;fill-rule:nonzero;stroke:none;stroke-width:0.35277778"
       id="path348"
       inkscape:connector-curvature="0" />
    <g
       id="g350"
       transform="matrix(0.35277777,0,0,-0.35277777,53.328124,139.36831)">
      <path
         d="m 0,0 2.561,-2.176 c 0,0 11.767,-5.715 12.528,-5.991 0.502,-0.184 1.339,-0.809 1.317,-1.731 -0.008,-0.364 -0.028,-0.593 -0.255,-0.923 -0.813,-1.171 -2.483,-1.699 -4.038,-1.984 -3.392,-0.623 -10.798,0.761 -10.798,0.761 -0.815,0.385 -5.634,1.223 -6.022,1.523 0,0 -1.486,0.046 -1.795,-0.575 -0.11,-0.223 0.088,-1.245 0.114,-1.452 l -4.477,1.734 c -0.223,0.11 -0.67,2.233 -0.792,3.177 l -0.798,6.274 z"
         style="fill:#231f20;fill-opacity:1;fill-rule:nonzero;stroke:none"
         id="path352"
         inkscape:connector-curvature="0" />
    </g>
    <g
       id="g354"
       transform="matrix(0.35277777,0,0,-0.35277777,59.033565,143.00669)">
      <path
         d="m 0,0 c -1.06,-1.338 -2.65,-1.832 -4.198,-2.146 -5.062,-1.023 -12.182,1.753 -12.182,1.753 -1.523,0.623 -4.201,0.991 -4.846,0.945 0,0 -1.529,-0.159 -1.475,-1.316 0.011,-0.237 -0.091,-0.067 -0.052,-0.334 -0.004,0.138 0.004,0.251 0.033,0.309 0.309,0.622 1.377,-0.619 1.377,-0.619 0.509,0.563 0.546,1.217 4.05,0.277 3.069,-0.823 7.211,-2.745 12.195,-2.191 1.57,0.174 4.224,1.113 5.145,2.561 0.161,0.254 0.349,0.878 0.154,1.313 C 0.182,0.476 0.052,0.064 0,0"
         style="fill:#282827;fill-opacity:1;fill-rule:nonzero;stroke:none"
         id="path356"
         inkscape:connector-curvature="0" />
    </g>
    <g
       id="g358"
       transform="matrix(0.35277777,0,0,-0.35277777,51.014393,143.19546)">
      <path
         d="m 0,0 -4.838,1.848 c 0,0 0.421,-1.852 0.486,-1.819 L 0.126,-1.705 C 0.106,-1.558 0.02,-0.391 0,0"
         style="fill:#282827;fill-opacity:1;fill-rule:nonzero;stroke:none"
         id="path360"
         inkscape:connector-curvature="0" />
    </g>
    <g
       id="g362"
       transform="matrix(0.35277777,0,0,-0.35277777,48.823682,145.51367)">
      <path
         d="M 0,0 -3.843,-1.961 V 1.454 Z"
         style="fill:#020200;fill-opacity:1;fill-rule:nonzero;stroke:none"
         id="path364"
         inkscape:connector-curvature="0" />
    </g>
    <g
       id="g366"
       transform="matrix(0.35277777,0,0,-0.35277777,55.638743,118.3846)">
      <path
         d="m 0,0 -2.918,-59.481 c 0,-2.67 0.305,-3.251 -0.576,-4.039 -3.294,-2.941 -13.856,-7.86 -14.894,-2.07 l -4.265,68.034 z"
         style="fill:#141413;fill-opacity:1;fill-rule:nonzero;stroke:none"
         id="path368"
         inkscape:connector-curvature="0" />
    </g>
    <g
       id="g370"
       transform="matrix(0.35277777,0,0,-0.35277777,50.422364,142.27407)">
      <path
         d="m 0,0 7.776,-6.53 c 0,0 3.93,-3.152 5.375,-3.991 0.653,-0.379 1.108,-1.222 1.155,-2.042 0.03,-0.524 -0.106,-1.041 -0.463,-1.419 -0.91,-0.969 -2.783,-1.726 -4.326,-2.076 -4.568,-1.039 -9.205,1.799 -9.205,1.799 -0.762,0.485 -5.918,3.812 -6.299,4.119 -1.073,0.865 -2.051,1.201 -2.436,0.622 0,0 0.048,-1.419 0.048,-1.626 l -4.326,2.977 c 0,0 -0.281,1.609 -0.281,2.561 v 6.323 z"
         style="fill:#231f20;fill-opacity:1;fill-rule:nonzero;stroke:none"
         id="path372"
         inkscape:connector-curvature="0" />
    </g>
    <g
       id="g374"
       transform="matrix(0.35277777,0,0,-0.35277777,55.470823,146.77922)">
      <path
         d="m 0,0 c -0.935,-1.439 -3.301,-2.189 -4.828,-2.596 -5.375,-1.429 -9.31,1.765 -9.31,1.765 -1.479,0.912 -5.606,3.542 -6.021,3.773 0,0 -2.393,1.787 -2.52,0.391 -0.022,-0.237 -0.061,-0.284 -0.054,-0.555 0.013,0.137 0.097,0.241 0.116,0.302 0.295,0.917 2.7,-0.848 2.7,-0.848 0.346,-0.346 5.042,-3.536 5.803,-4.021 0,0 4.385,-3.368 9.483,-1.845 1.516,0.452 3.437,1.052 4.371,2.492 C -0.006,-0.751 0.043,0.068 0,0"
         style="fill:#282827;fill-opacity:1;fill-rule:nonzero;stroke:none"
         id="path376"
         inkscape:connector-curvature="0" />
    </g>
    <g
       id="g378"
       transform="matrix(0.35277777,0,0,-0.35277777,47.470103,145.60341)">
      <path
         d="m 0,0 c 0,0 -2.053,1.135 -2.751,1.486 -1.633,0.822 -1.83,1.427 -1.83,1.427 0,0 0.132,-1.807 0.201,-1.783 0,0 0.052,-0.502 0.986,-1.055 C -2.548,-0.427 0,-1.707 0,-1.707 Z"
         style="fill:#282827;fill-opacity:1;fill-rule:nonzero;stroke:none"
         id="path380"
         inkscape:connector-curvature="0" />
    </g>
    <g
       id="g382"
       transform="matrix(0.35277777,0,0,-0.35277777,53.147953,119.9473)">
      <path
         d="m 0,0 -3.504,-64.258 c -0.024,-1.915 -0.865,-2.526 -2.418,-3.347 -9.481,-5.011 -14.332,-1.048 -14.332,-1.048 -0.762,0.433 -0.697,0.941 -0.762,1.61 l -1.637,69.487 z"
         style="fill:#383736;fill-opacity:1;fill-rule:nonzero;stroke:none"
         id="path384"
         inkscape:connector-curvature="0" />
    </g>
    <g
       id="g386"
       transform="matrix(0.35277777,0,0,-0.35277777,54.923733,98.410949)">
      <path
         d="m 0,0 c -1.276,2.389 -4.281,2.709 -6.305,2.626 2.351,-1.916 5.225,-7.841 5.225,-16.008 0,-4.263 -1.673,-15.063 -1.799,-14.813 -0.117,0.233 -8.029,16.889 -11.075,19.934 -3.863,3.863 -4.246,7.061 -4.153,7.061 0.723,0.551 1.123,0.859 1.335,1.023 l -0.026,-0.008 c 0,0 -12.688,-8.536 -12.55,-11.997 l 0.876,-51.175 c -0.069,0.516 -0.138,-3.045 2.215,-3.461 0,0 7.637,-3.157 11.352,-3.599 5.814,-0.692 16.981,6.345 16.981,6.345 1.592,1.246 1.731,3.008 1.731,4.499 L 4.43,-21.228 C 4.43,-10.153 2.952,-5.537 0,0"
         style="fill:#282827;fill-opacity:1;fill-rule:nonzero;stroke:none"
         id="path388"
         inkscape:connector-curvature="0" />
    </g>
    <g
       id="g390"
       transform="matrix(0.35277777,0,0,-0.35277777,54.923733,98.410949)">
      <path
         d="m 0,0 c -1.276,2.389 -4.281,2.709 -6.305,2.626 2.351,-1.916 5.225,-7.841 5.225,-16.008 0,-4.263 -1.719,-14.37 -1.844,-14.121 -0.118,0.233 -7.984,16.197 -11.03,19.242 -3.863,3.863 -4.246,7.061 -4.153,7.061 0.723,0.551 1.123,0.859 1.335,1.023 l -0.026,-0.008 c 0,0 -13.03,-8.306 -12.66,-10.891 l 0.986,-52.281 c -0.069,0.516 -0.138,-3.045 2.215,-3.461 0,0 7.637,-3.157 11.352,-3.599 5.814,-0.692 16.981,6.345 16.981,6.345 1.592,1.246 1.731,3.008 1.731,4.499 L 4.43,-21.228 C 4.43,-10.153 2.952,-5.537 0,0"
         style="fill:#282827;fill-opacity:1;fill-rule:nonzero;stroke:none"
         id="path392"
         inkscape:connector-curvature="0" />
    </g>
    <g
       id="g394"
       transform="matrix(0.35277777,0,0,-0.35277777,52.929873,99.821038)">
      <path
         d="M 0,0 C -4.737,-4.367 -8.027,0.765 -10.863,4.389 L -11.001,17.055 0.205,13.317 Z"
         style="fill:#e8c5ac;fill-opacity:1;fill-rule:nonzero;stroke:none"
         id="path396"
         inkscape:connector-curvature="0" />
    </g>
    <g
       id="g398"
       transform="matrix(0.35277777,0,0,-0.35277777,50.587213,91.415509)">
      <path
         d="m 0,0 c 2.581,0 2.868,-2.476 2.868,-2.476 v -5.178 c 0,0 -0.125,-1.127 -1.097,-1.326 -1.466,-0.298 -2.102,0.984 -2.76,2.395 -0.038,0.08 -0.873,2.161 -0.923,2.285 C -2.63,-2.536 -2.44,0 0,0"
         style="fill:#ffe8d9;fill-opacity:1;fill-rule:nonzero;stroke:none"
         id="path400"
         inkscape:connector-curvature="0" />
    </g>
    <g
       id="g402"
       transform="matrix(0.35277777,0,0,-0.35277777,54.045394,121.91978)">
      <path
         d="m 0,0 0.026,37.982 c 0,0 -0.569,0.781 -0.805,1.27 V -0.394 C -0.513,-0.262 -0.253,-0.13 0,0"
         style="fill:#383736;fill-opacity:1;fill-rule:nonzero;stroke:none"
         id="path404"
         inkscape:connector-curvature="0" />
    </g>
    <g
       id="g406"
       transform="matrix(0.35277777,0,0,-0.35277777,53.102313,102.54593)">
      <path
         d="M 0,0 C -0.122,0.45 -0.122,0.796 -0.035,1.333 L 0.277,2.976 -2.042,6.541 -3.184,6.316 -3.807,2.284 -2.284,0.761 c 0.363,-0.328 0.709,-1.187 0.692,-1.661 l 1.107,-11.513 2.676,-3.369 1.523,4.615 z"
         style="fill:#160b01;fill-opacity:1;fill-rule:nonzero;stroke:none"
         id="path408"
         inkscape:connector-curvature="0" />
    </g>
    <g
       id="g410"
       transform="matrix(0.35277777,0,0,-0.35277777,53.419773,98.28092)">
      <path
         d="m 0,0 0.83,1.8 c 0,0 0.874,-0.532 1.063,-0.693 0.629,-0.54 1.567,-2.584 1.567,-2.584 l 3.185,-6.645 c 0.37,-1.107 0.092,-1.845 -0.554,-2.537 l -1.893,-2.354 1.938,-2.03 c 1.114,-0.864 0.879,-2.261 0.37,-3.185 L 1.079,-28.496 c 0,0 0.874,7.503 1.09,11.838 C 2.675,-6.461 0,0 0,0"
         style="fill:#7a797a;fill-opacity:1;fill-rule:nonzero;stroke:none"
         id="path412"
         inkscape:connector-curvature="0" />
    </g>
    <g
       id="g414"
       transform="matrix(0.35277777,0,0,-0.35277777,52.351454,100.04925)">
      <path
         d="m 0,0 c -0.656,-0.513 -0.163,-1.23 0.184,-1.724 l 2.169,-3.069 c 0.692,-0.917 1.015,0.11 1.039,1.073 V 3.262 C 2.996,7.629 1.551,7.089 1.551,7.089 c 0,0 -0.212,-0.39 -0.139,-1.292 C 1.538,4.3 2.232,1.748 0,0"
         style="fill:#ffffff;fill-opacity:1;fill-rule:nonzero;stroke:none"
         id="path416"
         inkscape:connector-curvature="0" />
    </g>
    <g
       id="g418"
       transform="matrix(0.35277777,0,0,-0.35277777,49.097714,97.182089)">
      <path
         d="m 0,0 c 0,0 -0.231,-0.761 0.253,-1.777 1.966,-4.117 8.07,-6.506 8.07,-6.506 0.727,-0.277 0.695,-0.635 0.571,-1.869 L 8.148,-14.66 c -0.123,-1.185 -0.74,-1.062 -1.209,-0.569 0,0 -4.739,4.138 -6.069,5.527 -3.126,3.266 -3.204,3.074 -1.977,7.164 C -0.368,-0.07 0,0 0,0"
         style="fill:#ffffff;fill-opacity:1;fill-rule:nonzero;stroke:none"
         id="path420"
         inkscape:connector-curvature="0" />
    </g>
    <g
       id="g422"
       transform="matrix(0.35277777,0,0,-0.35277777,48.682604,98.077469)">
      <path
         d="m 0,0 -1.8,-2.146 c 0,0 -0.536,-0.661 -0.646,-0.899 -0.368,-0.809 0.047,-1.684 0.047,-1.684 l 3.091,-7.569 c 0.415,-1.523 0.969,-2.03 2.122,-2.122 l 4.062,-0.508 -1.522,-3.091 c -0.693,-1.339 -0.463,-1.674 0.134,-2.44 l 9.694,-9.235 c 0,0 -1.793,7.09 -7.385,16.197 C 5.76,-10.178 0,0 0,0"
         style="fill:#7a797a;fill-opacity:1;fill-rule:nonzero;stroke:none"
         id="path424"
         inkscape:connector-curvature="0" />
    </g>
    <g
       id="g426"
       transform="matrix(0.35277777,0,0,-0.35277777,52.510104,88.777259)">
      <path
         d="m 0,0 v -0.004 l -9.963,-0.041 -0.16,-17.977 c 0.136,-1.233 0.086,-2.345 0.288,-3.39 0.223,-1.146 0.744,-2.21 2.141,-3.266 0,0 2.289,-1.939 4.389,-3.346 1.239,-0.83 2.868,-1.741 4.707,-0.762 1.038,0.555 2.63,1.246 3.253,1.731 1.274,0.992 1.508,1.216 2.838,3.046 1.107,1.522 1.219,3.734 1.315,4.776 l 0.785,11.397 0.461,6.876 z"
         style="fill:#ffe1cc;fill-opacity:1;fill-rule:nonzero;stroke:none"
         id="path428"
         inkscape:connector-curvature="0" />
    </g>
    <g
       id="g430"
       transform="matrix(0.35277777,0,0,-0.35277777,55.739354,87.651059)">
      <path
         d="m 0,0 c 2.795,-1.57 1.925,-4.99 1.177,-9.482 -0.208,-1.247 -0.881,-2.143 -0.829,-2.195 0.046,-0.044 0.122,2.372 0.182,3.786 0.093,2.112 -2.269,3.473 -3.299,3.046 -2.007,-0.83 -8.357,-3.56 -9.067,-3.98 -2.031,-1.199 -2.381,-4.049 -2.289,-5.618 v -1.57 c 0,-0.817 0.137,-1.75 -0.664,-1.661 -0.852,0.095 -0.778,0.42 -1.016,1.294 0,0 -1.153,2.814 -3.396,2.491 -1.919,-0.275 -0.483,-4.754 -0.37,-4.983 l 0.619,-5.899 c -0.221,0.061 -0.944,0.377 -1.882,2.414 -1.729,3.755 -2.829,6.058 -3.322,7.199 -5.676,13.151 4.914,23.025 17.373,19.242 C -4.454,3.376 0,0 0,0"
         style="fill:#bf9243;fill-opacity:1;fill-rule:nonzero;stroke:none"
         id="path432"
         inkscape:connector-curvature="0" />
    </g>
    <g
       id="g434"
       transform="matrix(0.35277777,0,0,-0.35277777,49.097714,92.485729)">
      <path
         d="m 0,0 c 2.581,0 2.868,-2.477 2.868,-2.477 v -5.178 c 0,0 -0.125,-1.127 -1.095,-1.325 -1.468,-0.299 -2.104,0.983 -2.762,2.394 -0.038,0.08 -0.873,2.16 -0.923,2.286 C -2.63,-2.536 -2.44,0 0,0"
         style="fill:#ffe8d9;fill-opacity:1;fill-rule:nonzero;stroke:none"
         id="path436"
         inkscape:connector-curvature="0" />
    </g>
    <g
       id="g438"
       transform="matrix(0.35277777,0,0,-0.35277777,45.138103,122.8992)">
      <path
         d="m 0,0 c -0.006,-1.696 2.28,-2.817 3.824,-2.819 0.539,-0.005 1.378,-4.135 3.593,-3.996 0,0 0,1.107 -0.069,3.045 -0.007,0.155 0.247,1.807 -0.762,2.976 C 3.922,2.297 3.617,2.886 2.074,2.891 0.53,2.896 0.007,1.696 0,0"
         style="fill:#ffe8d9;fill-opacity:1;fill-rule:nonzero;stroke:none"
         id="path440"
         inkscape:connector-curvature="0" />
    </g>
    <g
       id="g442"
       transform="matrix(0.35277777,0,0,-0.35277777,41.766213,131.13384)">
      <path
         d="M 0,0 C 0,-0.288 0.121,-0.614 0.309,-0.88 Z"
         style="fill:#6d320a;fill-opacity:1;fill-rule:nonzero;stroke:none"
         id="path444"
         inkscape:connector-curvature="0" />
    </g>
    <g
       id="g446"
       transform="matrix(0.35277777,0,0,-0.35277777,41.770023,129.92667)">
      <path
         d="m 0,0 c -6.284,8.367 -7.249,17.19 -7.298,17.655 l -0.004,-1.599 0.192,-0.982 c 0.5,-2.824 2.172,-9.9 7.106,-16.424 z"
         style="fill:#6d320a;fill-opacity:1;fill-rule:nonzero;stroke:none"
         id="path448"
         inkscape:connector-curvature="0" />
    </g>
    <g
       id="g450"
       transform="matrix(0.35277777,0,0,-0.35277777,47.383113,134.37601)">
      <path
         d="M 0,0 C -0.002,-0.288 0.119,-0.614 0.307,-0.88 Z"
         style="fill:#6d320a;fill-opacity:1;fill-rule:nonzero;stroke:none"
         id="path452"
         inkscape:connector-curvature="0" />
    </g>
    <g
       id="g454"
       transform="matrix(0.35277777,0,0,-0.35277777,50.919855,139.39657)">
      <path
         d="M 0,0 8.267,4.803 C 8.609,5.002 8.819,5.421 8.821,6.021 L 0.554,1.217 C 0.552,0.619 0.342,0.197 0,0"
         style="fill:#723919;fill-opacity:1;fill-rule:nonzero;stroke:none"
         id="path456"
         inkscape:connector-curvature="0" />
    </g>
    <g
       id="g458"
       transform="matrix(0.35277777,0,0,-0.35277777,51.138964,130.59434)">
      <path
         d="m 0,0 -0.004,-1.596 -0.174,-0.772 c -1.04,-4.309 -3.655,-7.002 -7.19,-7.707 0,0 -7.364,1.06 -9.633,2.37 -2.393,1.383 -6.12,4.77 -6.537,5.015 l -3.024,3.233 c -4.934,6.524 -6.606,13.599 -7.105,16.424 l -0.193,0.982 -0.063,-22.138 c -0.004,-1.201 0.841,-2.667 1.891,-3.273 l 30.066,-17.359 c 1.047,-0.605 1.897,-0.115 1.899,1.087 z"
         style="fill:#8c532c;fill-opacity:1;fill-rule:nonzero;stroke:none"
         id="path460"
         inkscape:connector-curvature="0" />
    </g>
    <g
       id="g462"
       transform="matrix(0.35277777,0,0,-0.35277777,51.138964,130.68666)">
      <path
         d="M 0,0 8.267,4.804 V 5.066 L 0,0.262 Z"
         style="fill:#5c361d;fill-opacity:1;fill-rule:nonzero;stroke:none"
         id="path464"
         inkscape:connector-curvature="0" />
    </g>
    <g
       id="g466"
       transform="matrix(0.35277777,0,0,-0.35277777,51.138964,130.68666)">
      <path
         d="m 0,0 c -0.9,-4.778 -3.617,-7.763 -7.372,-8.507 0.007,-0.048 0.009,-0.093 0.009,-0.139 l -0.005,-1.167 c 3.535,0.705 6.15,3.397 7.19,7.707 l 0.174,0.772 z"
         style="fill:#6d320a;fill-opacity:1;fill-rule:nonzero;stroke:none"
         id="path468"
         inkscape:connector-curvature="0" />
    </g>
    <g
       id="g470"
       transform="matrix(0.35277777,0,0,-0.35277777,39.195312,123.69849)">
      <path
         d="m 0,0 c 0.05,-0.465 1.015,-9.288 7.298,-17.655 v 0.281 c 0.002,0.481 0.344,0.673 0.762,0.433 l 1.76,-1.017 c 0.42,-0.242 0.757,-0.828 0.755,-1.306 l -0.006,-2.131 c 1.769,-1.734 3.826,-3.348 6.219,-4.728 2.269,-1.311 4.438,-2.061 6.426,-2.294 l 0.004,1.853 c 0.002,0.476 0.342,0.675 0.757,0.435 l 1.763,-1.019 c 0.379,-0.219 0.692,-0.72 0.746,-1.168 3.755,0.744 6.472,3.729 7.372,8.507 v 0.262 l -10.586,6.11 -1.544,0.894 -9.529,5.5 -1.546,0.894 z"
         style="fill:#a5683d;fill-opacity:1;fill-rule:nonzero;stroke:none"
         id="path472"
         inkscape:connector-curvature="0" />
    </g>
    <g
       id="g474"
       transform="matrix(0.35277777,0,0,-0.35277777,42.111092,122.00367)">
      <path
         d="m 0,0 -8.265,-4.804 33.856,-19.548 -0.005,-1.596 -0.063,-22.138 c -0.002,-0.598 -0.211,-1.02 -0.553,-1.217 l 8.267,4.803 c 0.342,0.199 0.552,0.619 0.554,1.218 l 0.067,23.735 z"
         style="fill:#6d3b18;fill-opacity:1;fill-rule:nonzero;stroke:none"
         id="path476"
         inkscape:connector-curvature="0" />
    </g>
    <g
       id="g478"
       transform="matrix(0.35277777,0,0,-0.35277777,47.367093,133.69081)">
      <path
         d="m 0,0 c -1.988,0.236 -4.155,0.984 -6.426,2.295 -2.393,1.382 -4.45,2.994 -6.217,4.728 l -0.792,-0.203 0.178,-0.586 c 1.767,-1.724 4.434,-3.865 6.828,-5.248 2.269,-1.31 4.437,-2.059 6.427,-2.295 z"
         style="fill:#6d320a;fill-opacity:1;fill-rule:nonzero;stroke:none"
         id="path480"
         inkscape:connector-curvature="0" />
    </g>
    <g
       id="g482"
       transform="matrix(0.35277777,0,0,-0.35277777,48.300363,134.42184)">
      <path
         d="m 0,0 -0.004,-1.787 c -0.003,-0.21 -0.076,-0.359 -0.197,-0.428 l 0.33,0.193 c 0.121,0.069 0.195,0.218 0.195,0.428 l 0.007,1.786 z"
         style="fill:#75460d;fill-opacity:1;fill-rule:nonzero;stroke:none"
         id="path484"
         inkscape:connector-curvature="0" />
    </g>
    <g
       id="g486"
       transform="matrix(0.35277777,0,0,-0.35277777,48.300363,134.42184)">
      <path
         d="M 0,0 0.331,0.192 -2.36,1.746 -2.689,1.553 Z"
         style="fill:#eb921a;fill-opacity:1;fill-rule:nonzero;stroke:none"
         id="path488"
         inkscape:connector-curvature="0" />
    </g>
    <g
       id="g490"
       transform="matrix(0.35277777,0,0,-0.35277777,47.351752,133.8739)">
      <path
         d="m 0,0 -0.006,-1.787 c 0,-0.423 0.294,-0.939 0.664,-1.151 l 1.358,-0.785 c 0.365,-0.212 0.666,-0.039 0.669,0.383 l 0.004,1.787 z"
         style="fill:#d87a13;fill-opacity:1;fill-rule:nonzero;stroke:none"
         id="path492"
         inkscape:connector-curvature="0" />
    </g>
    <g
       id="g494"
       transform="matrix(0.35277777,0,0,-0.35277777,48.353782,133.23365)">
      <path
         d="m 0,0 -1.759,1.014 c -0.212,0.121 -0.402,0.132 -0.54,0.054 L -2.961,0.681 c 0.138,0.082 0.328,0.069 0.541,-0.052 l 1.758,-1.014 c 0.383,-0.221 0.755,-0.803 0.755,-1.309 l -0.007,-2.165 0.662,0.385 0.007,2.165 C 0.755,-0.812 0.389,-0.228 0,0"
         style="fill:#89550f;fill-opacity:1;fill-rule:nonzero;stroke:none"
         id="path496"
         inkscape:connector-curvature="0" />
    </g>
    <g
       id="g498"
       transform="matrix(0.35277777,0,0,-0.35277777,47.499882,133.01161)">
      <path
         d="m 0,0 c -0.42,0.242 -0.759,0.049 -0.762,-0.433 l -0.006,-2.165 3.275,-1.89 0.006,2.165 c 0.002,0.482 -0.335,1.066 -0.755,1.308 z"
         style="fill:#f99b1c;fill-opacity:1;fill-rule:nonzero;stroke:none"
         id="path500"
         inkscape:connector-curvature="0" />
    </g>
    <g
       id="g502"
       transform="matrix(0.35277777,0,0,-0.35277777,42.617684,131.21551)">
      <path
         d="m 0,0 -0.004,-1.784 c 0,-0.212 -0.076,-0.362 -0.195,-0.431 l 0.329,0.193 c 0.121,0.069 0.197,0.218 0.197,0.428 l 0.004,1.787 z"
         style="fill:#75460d;fill-opacity:1;fill-rule:nonzero;stroke:none"
         id="path504"
         inkscape:connector-curvature="0" />
    </g>
    <g
       id="g506"
       transform="matrix(0.35277777,0,0,-0.35277777,42.617684,131.21551)">
      <path
         d="M 0,0 0.331,0.193 -2.359,1.746 -2.688,1.553 Z"
         style="fill:#eb921a;fill-opacity:1;fill-rule:nonzero;stroke:none"
         id="path508"
         inkscape:connector-curvature="0" />
    </g>
    <g
       id="g510"
       transform="matrix(0.35277777,0,0,-0.35277777,41.669243,130.66754)">
      <path
         d="m 0,0 -0.006,-1.787 c 0,-0.421 0.294,-0.938 0.664,-1.151 l 1.358,-0.785 c 0.365,-0.209 0.666,-0.041 0.669,0.386 l 0.003,1.784 z"
         style="fill:#d87a13;fill-opacity:1;fill-rule:nonzero;stroke:none"
         id="path512"
         inkscape:connector-curvature="0" />
    </g>
    <g
       id="g514"
       transform="matrix(0.35277777,0,0,-0.35277777,42.671093,130.02813)">
      <path
         d="M 0,0 -1.758,1.017 C -1.97,1.14 -2.161,1.151 -2.299,1.069 L -2.961,0.686 c 0.139,0.08 0.329,0.069 0.541,-0.052 l 1.758,-1.017 c 0.08,-0.047 0.156,-0.108 0.229,-0.177 0.014,-0.013 0.029,-0.024 0.042,-0.039 0.272,-0.279 0.487,-0.71 0.484,-1.092 l -0.006,-2.165 0.662,0.384 0.006,2.166 C 0.755,-0.813 0.394,-0.225 0,0"
         style="fill:#89550f;fill-opacity:1;fill-rule:nonzero;stroke:none"
         id="path516"
         inkscape:connector-curvature="0" />
    </g>
    <g
       id="g518"
       transform="matrix(0.35277777,0,0,-0.35277777,41.817373,129.80458)">
      <path
         d="M 0,0 C -0.42,0.24 -0.759,0.048 -0.759,-0.435 L -0.766,-2.6 2.507,-4.49 2.513,-2.325 c 0.003,0.482 -0.335,1.066 -0.755,1.308 z"
         style="fill:#f99b1c;fill-opacity:1;fill-rule:nonzero;stroke:none"
         id="path520"
         inkscape:connector-curvature="0" />
    </g>
    <g
       id="g522"
       transform="matrix(0.35277777,0,0,-0.35277777,-126.55115,802.70542)">
      <g
         id="g524"
         clip-path="url(#clipPath528)">
        <g
           id="g530"
           transform="translate(498.9038,1915.2183)">
          <path
             d="m 0,0 0.002,-0.766 c 0.186,0.108 0.279,0.249 0.279,0.388 L 0.279,0.387 C 0.279,0.249 0.186,0.106 0,0"
             style="fill:#f99b1c;fill-opacity:1;fill-rule:nonzero;stroke:none"
             id="path532"
             inkscape:connector-curvature="0" />
        </g>
      </g>
    </g>
    <g
       id="g534"
       transform="matrix(0.35277777,0,0,-0.35277777,-126.55115,802.70542)">
      <g
         id="g536"
         clip-path="url(#clipPath540)">
        <g
           id="g542"
           transform="translate(493.4834,1914.4482)">
          <path
             d="m 0,0 0.002,-0.766 c 0,-0.138 0.091,-0.276 0.272,-0.38 L 0.272,-0.383 C 0.091,-0.277 0,-0.139 0,0"
             style="fill:#ea921a;fill-opacity:1;fill-rule:nonzero;stroke:none"
             id="path544"
             inkscape:connector-curvature="0" />
        </g>
      </g>
    </g>
    <g
       id="g546"
       transform="matrix(0.35277777,0,0,-0.35277777,-126.55115,802.70542)">
      <g
         id="g548"
         clip-path="url(#clipPath552)">
        <g
           id="g554"
           transform="translate(493.7559,1914.0654)">
          <path
             d="M 0,0 0.002,-0.764 0.913,-1.293 0.911,-0.528 Z"
             style="fill:#ea921a;fill-opacity:1;fill-rule:nonzero;stroke:none"
             id="path556"
             inkscape:connector-curvature="0" />
        </g>
        <g
           id="g558"
           transform="translate(495.9922,1913.5376)">
          <path
             d="M 0,0 0.002,-0.766 2.914,0.915 2.912,1.681 Z"
             style="fill:#ffc585;fill-opacity:1;fill-rule:nonzero;stroke:none"
             id="path560"
             inkscape:connector-curvature="0" />
        </g>
      </g>
    </g>
    <g
       id="g562"
       transform="matrix(0.35277777,0,0,-0.35277777,-126.55115,802.70542)">
      <g
         id="g564"
         clip-path="url(#clipPath568)">
        <g
           id="g570"
           transform="translate(494.6665,1913.5376)">
          <path
             d="m 0,0 0.002,-0.766 c 0.363,-0.212 0.958,-0.212 1.326,0 L 1.326,0 C 0.958,-0.214 0.363,-0.212 0,0"
             style="fill:#f99b1c;fill-opacity:1;fill-rule:nonzero;stroke:none"
             id="path572"
             inkscape:connector-curvature="0" />
        </g>
      </g>
    </g>
    <g
       id="g574"
       transform="matrix(0.35277777,0,0,-0.35277777,-126.55115,802.70542)">
      <g
         id="g576"
         clip-path="url(#clipPath580)">
        <g
           id="g582"
           transform="translate(493.7603,1914.833)">
          <path
             d="m 0,0 c -0.368,-0.212 -0.37,-0.554 -0.004,-0.768 l 0.91,-0.527 c 0.364,-0.212 0.958,-0.215 1.326,0 l 2.912,1.68 C 5.511,0.597 5.513,0.943 5.152,1.153 L 4.241,1.683 C 3.874,1.895 3.281,1.893 2.914,1.681 Z"
             style="fill:#ffb255;fill-opacity:1;fill-rule:nonzero;stroke:none"
             id="path584"
             inkscape:connector-curvature="0" />
        </g>
      </g>
    </g>
    <g
       id="g586"
       transform="matrix(0.35277777,0,0,-0.35277777,-126.55115,802.70542)">
      <g
         id="g588"
         clip-path="url(#clipPath592)">
        <g
           id="g594"
           transform="translate(487.8789,1921.6685)">
          <path
             d="m 0,0 0.002,-0.766 c 0.186,0.108 0.279,0.249 0.279,0.39 L 0.279,0.387 C 0.279,0.249 0.186,0.108 0,0"
             style="fill:#f99b1c;fill-opacity:1;fill-rule:nonzero;stroke:none"
             id="path596"
             inkscape:connector-curvature="0" />
        </g>
      </g>
    </g>
    <g
       id="g598"
       transform="matrix(0.35277777,0,0,-0.35277777,-126.55115,802.70542)">
      <g
         id="g600"
         clip-path="url(#clipPath604)">
        <g
           id="g606"
           transform="translate(482.4585,1920.8984)">
          <path
             d="m 0,0 0.002,-0.766 c 0,-0.138 0.091,-0.276 0.272,-0.38 L 0.272,-0.381 C 0.091,-0.277 0,-0.139 0,0"
             style="fill:#ea921a;fill-opacity:1;fill-rule:nonzero;stroke:none"
             id="path608"
             inkscape:connector-curvature="0" />
        </g>
      </g>
    </g>
    <g
       id="g610"
       transform="matrix(0.35277777,0,0,-0.35277777,-126.55115,802.70542)">
      <g
         id="g612"
         clip-path="url(#clipPath616)">
        <g
           id="g618"
           transform="translate(482.731,1920.5176)">
          <path
             d="M 0,0 0.002,-0.766 0.913,-1.295 0.911,-0.53 Z"
             style="fill:#ea921a;fill-opacity:1;fill-rule:nonzero;stroke:none"
             id="path620"
             inkscape:connector-curvature="0" />
        </g>
        <g
           id="g622"
           transform="translate(484.9673,1919.9878)">
          <path
             d="M 0,0 0.002,-0.766 2.914,0.915 2.912,1.681 Z"
             style="fill:#ffc585;fill-opacity:1;fill-rule:nonzero;stroke:none"
             id="path624"
             inkscape:connector-curvature="0" />
        </g>
      </g>
    </g>
    <g
       id="g626"
       transform="matrix(0.35277777,0,0,-0.35277777,-126.55115,802.70542)">
      <g
         id="g628"
         clip-path="url(#clipPath632)">
        <g
           id="g634"
           transform="translate(483.6416,1919.9878)">
          <path
             d="m 0,0 0.002,-0.766 c 0.363,-0.21 0.958,-0.212 1.326,0 L 1.326,0 C 0.958,-0.214 0.363,-0.21 0,0"
             style="fill:#f99b1c;fill-opacity:1;fill-rule:nonzero;stroke:none"
             id="path636"
             inkscape:connector-curvature="0" />
        </g>
      </g>
    </g>
    <g
       id="g638"
       transform="matrix(0.35277777,0,0,-0.35277777,-126.55115,802.70542)">
      <g
         id="g640"
         clip-path="url(#clipPath644)">
        <g
           id="g646"
           transform="translate(482.7354,1921.2856)">
          <path
             d="m 0,0 c -0.368,-0.214 -0.37,-0.556 -0.004,-0.768 l 0.91,-0.53 c 0.364,-0.21 0.958,-0.214 1.326,0 L 5.144,0.383 C 5.511,0.597 5.513,0.941 5.152,1.15 L 4.239,1.681 c -0.365,0.212 -0.958,0.212 -1.328,0 z"
             style="fill:#ffb255;fill-opacity:1;fill-rule:nonzero;stroke:none"
             id="path648"
             inkscape:connector-curvature="0" />
        </g>
        <g
           id="g650"
           transform="translate(488.0542,1923.2949)">
          <path
             d="m 0,0 -1.324,-0.768 c -0.629,-0.368 -1.09,-1.029 -1.302,-1.942 l 1.324,0.768 C -1.093,-1.027 -0.632,-0.366 0,0"
             style="fill:#8c532c;fill-opacity:1;fill-rule:nonzero;stroke:none"
             id="path652"
             inkscape:connector-curvature="0" />
        </g>
      </g>
    </g>
    <g
       id="g654"
       transform="matrix(0.35277777,0,0,-0.35277777,-126.55115,802.70542)">
      <g
         id="g656"
         clip-path="url(#clipPath660)">
        <g
           id="g662"
           transform="translate(485.4282,1920.5845)">
          <path
             d="M 0,0 1.324,0.768 C 1.533,1.683 1.994,2.345 2.626,2.71 L 1.302,1.942 C 0.673,1.575 0.212,0.913 0,0"
             style="fill:#8c532c;fill-opacity:1;fill-rule:nonzero;stroke:none"
             id="path664"
             inkscape:connector-curvature="0" />
        </g>
      </g>
    </g>
    <g
       id="g674"
       transform="matrix(0.35277777,0,0,-0.35277777,45.245772,123.55741)">
      <path
         d="M 0,0 C 3.679,2.14 9.965,-3.831 10.841,-10.183 L 9.52,-10.953 C 8.643,-4.611 2.362,1.374 -1.324,-0.77 Z"
         style="fill:#8c532c;fill-opacity:1;fill-rule:nonzero;stroke:none"
         id="path676"
         inkscape:connector-curvature="0" />
    </g>
    <g
       id="g678"
       transform="matrix(0.35277777,0,0,-0.35277777,46.383512,123.98459)">
      <path
         d="m 0,0 c -3.156,1.823 -5.788,0.699 -6.325,-2.455 l 1.545,-0.894 c 0.51,2.203 2.457,2.944 4.776,1.605 2.316,-1.339 4.256,-4.323 4.752,-7.105 L 6.294,-9.742 C 5.777,-5.979 3.158,-1.824 0,0"
         style="fill:#a5683d;fill-opacity:1;fill-rule:nonzero;stroke:none"
         id="path680"
         inkscape:connector-curvature="0" />
    </g>
    <g
       id="g682"
       transform="matrix(0.35277777,0,0,-0.35277777,44.393462,122.08996)">
      <path
         d="M 0,0 4.458,0.033 6.136,-2.742 6.119,-6.11 c 0,0 -0.151,-0.704 0.679,-1.743 0.325,-0.406 1.004,-1.142 1.004,-1.142 0,0 0.618,-3.506 -2.012,-3.16 -0.85,0.112 -1.522,0.692 -1.522,0.692 -1.13,0.015 -3.033,0.256 -4.292,0.346 -2.907,0.208 -2.63,3.669 -2.63,3.669 L -2.71,-4.081 C -2.762,-2.191 -2.04,-0.02 0,0"
         style="fill:#ffe8d9;fill-opacity:1;fill-rule:nonzero;stroke:none"
         id="path684"
         inkscape:connector-curvature="0" />
    </g>
    <g
       id="g686"
       transform="matrix(0.35277777,0,0,-0.35277777,44.873342,123.22806)">
      <path
         d="m 0,0 c -1.726,-0.209 -2.909,0.334 -2.909,0.334 0,0 -1.592,0.602 -1.798,2.02 -0.616,4.244 -1.858,22.924 -1.745,28.251 0.123,5.849 2.775,21.129 2.775,21.129 0,0 1.006,11.101 7.43,10.834 C 9.106,62.346 9.818,57.371 9.621,52.681 9.467,48.996 5.81,28.888 5.81,28.888 L 5.555,2.783 C 5.555,2.783 4.015,0.484 0,0"
         style="fill:#383736;fill-opacity:1;fill-rule:nonzero;stroke:none"
         id="path688"
         inkscape:connector-curvature="0" />
    </g>
  </g>
</svg>
