<?xml version="1.0" encoding="UTF-8" standalone="no"?>
<!-- Created with Inkscape (http://www.inkscape.org/) -->

<svg
   xmlns:dc="http://purl.org/dc/elements/1.1/"
   xmlns:cc="http://creativecommons.org/ns#"
   xmlns:rdf="http://www.w3.org/1999/02/22-rdf-syntax-ns#"
   xmlns:svg="http://www.w3.org/2000/svg"
   xmlns="http://www.w3.org/2000/svg"
   xmlns:sodipodi="http://sodipodi.sourceforge.net/DTD/sodipodi-0.dtd"
   xmlns:inkscape="http://www.inkscape.org/namespaces/inkscape"
   width="24.634377mm"
   height="70.602425mm"
   viewBox="0 0 24.634377 70.602424"
   version="1.1"
   id="svg113590"
   inkscape:version="0.92.3 (2405546, 2018-03-11)"
   sodipodi:docname="people-dancing-20.svg">
  <defs
     id="defs113584">
    <clipPath
       id="clipPath6938"
       clipPathUnits="userSpaceOnUse">
      <path
         inkscape:connector-curvature="0"
         id="path6936"
         d="m 332.31,670.939 h 80.557 V 627.742 H 332.31 Z" />
    </clipPath>
    <clipPath
       id="clipPath19962"
       clipPathUnits="userSpaceOnUse">
      <path
         inkscape:connector-curvature="0"
         id="path19960"
         d="m 509.182,647.722 h 56.485 v -19.98 h -56.485 z" />
    </clipPath>
    <clipPath
       id="clipPath19818"
       clipPathUnits="userSpaceOnUse">
      <path
         inkscape:connector-curvature="0"
         id="path19816"
         d="m 671.425,650.716 h 65.619 v -22.975 h -65.619 z" />
    </clipPath>
    <clipPath
       id="clipPath14734"
       clipPathUnits="userSpaceOnUse">
      <path
         inkscape:connector-curvature="0"
         id="path14732"
         d="m 800.948,651.727 h 68.678 v -23.986 h -68.678 z" />
    </clipPath>
    <clipPath
       id="clipPath14822"
       clipPathUnits="userSpaceOnUse">
      <path
         inkscape:connector-curvature="0"
         id="path14820"
         d="m 957.738,645.951 h 63.252 v -18.209 h -63.252 z" />
    </clipPath>
    <clipPath
       id="clipPath20130"
       clipPathUnits="userSpaceOnUse">
      <path
         inkscape:connector-curvature="0"
         id="path20128"
         d="m 1084.85,651.425 h 64.51 v -23.683 h -64.51 z" />
    </clipPath>
    <clipPath
       id="clipPath20722"
       clipPathUnits="userSpaceOnUse">
      <path
         inkscape:connector-curvature="0"
         id="path20720"
         d="m 1222.08,654.393 h 75.95 v -26.652 h -75.95 z" />
    </clipPath>
    <clipPath
       id="clipPath20266"
       clipPathUnits="userSpaceOnUse">
      <path
         inkscape:connector-curvature="0"
         id="path20264"
         d="m 1383.9,646.412 h 44.62 v -18.67 h -44.62 z" />
    </clipPath>
    <clipPath
       id="clipPath20442"
       clipPathUnits="userSpaceOnUse">
      <path
         inkscape:connector-curvature="0"
         id="path20440"
         d="m 1493.26,654.136 h 75.09 v -26.394 h -75.09 z" />
    </clipPath>
    <clipPath
       id="clipPath20366"
       clipPathUnits="userSpaceOnUse">
      <path
         inkscape:connector-curvature="0"
         id="path20364"
         d="m 1632.21,651.13 h 77.31 v -23.389 h -77.31 z" />
    </clipPath>
    <clipPath
       id="clipPath20538"
       clipPathUnits="userSpaceOnUse">
      <path
         inkscape:connector-curvature="0"
         id="path20536"
         d="m 1778.62,646.625 h 45.13 v -18.883 h -45.13 z" />
    </clipPath>
    <clipPath
       id="clipPath20590"
       clipPathUnits="userSpaceOnUse">
      <path
         inkscape:connector-curvature="0"
         id="path20588"
         d="m 1895.15,652.288 h 61.65 v -24.547 h -61.65 z" />
    </clipPath>
    <clipPath
       id="clipPath20798"
       clipPathUnits="userSpaceOnUse">
      <path
         inkscape:connector-curvature="0"
         id="path20796"
         d="m 2032.21,650.712 h 54.29 v -22.97 h -54.29 z" />
    </clipPath>
    <clipPath
       id="clipPath20218"
       clipPathUnits="userSpaceOnUse">
      <path
         inkscape:connector-curvature="0"
         id="path20216"
         d="m 2154,646.547 h 46.37 V 627.742 H 2154 Z" />
    </clipPath>
    <clipPath
       id="clipPath20882"
       clipPathUnits="userSpaceOnUse">
      <path
         inkscape:connector-curvature="0"
         id="path20880"
         d="m 2287.35,649.844 h 48.35 v -22.102 h -48.35 z" />
    </clipPath>
    <clipPath
       id="clipPath21206"
       clipPathUnits="userSpaceOnUse">
      <path
         inkscape:connector-curvature="0"
         id="path21204"
         d="m 2432.86,646.93 h 8.25 v -13.96 h -8.25 z" />
    </clipPath>
    <clipPath
       id="clipPath21150"
       clipPathUnits="userSpaceOnUse">
      <path
         inkscape:connector-curvature="0"
         id="path21148"
         d="m 2406.52,649.765 h 54.69 v -22.024 h -54.69 z" />
    </clipPath>
    <clipPath
       id="clipPath21098"
       clipPathUnits="userSpaceOnUse">
      <path
         inkscape:connector-curvature="0"
         id="path21096"
         d="m 2526.96,654.315 h 61.23 v -26.573 h -61.23 z" />
    </clipPath>
    <clipPath
       id="clipPath20954"
       clipPathUnits="userSpaceOnUse">
      <path
         inkscape:connector-curvature="0"
         id="path20952"
         d="m 2663.33,652.114 h 56.93 v -24.373 h -56.93 z" />
    </clipPath>
    <clipPath
       id="clipPath20038"
       clipPathUnits="userSpaceOnUse">
      <path
         inkscape:connector-curvature="0"
         id="path20036"
         d="m 2785.76,651.686 h 65.21 v -23.944 h -65.21 z" />
    </clipPath>
    <clipPath
       id="clipPath13978"
       clipPathUnits="userSpaceOnUse">
      <path
         inkscape:connector-curvature="0"
         id="path13976"
         d="m 2914.83,655.885 h 60.35 v -28.144 h -60.35 z" />
    </clipPath>
  </defs>
  <sodipodi:namedview
     id="base"
     pagecolor="#ffffff"
     bordercolor="#666666"
     borderopacity="1.0"
     inkscape:pageopacity="0.0"
     inkscape:pageshadow="2"
     inkscape:zoom="0.35"
     inkscape:cx="-656.64744"
     inkscape:cy="765.68808"
     inkscape:document-units="mm"
     inkscape:current-layer="layer1"
     showgrid="false"
     inkscape:window-width="1366"
     inkscape:window-height="716"
     inkscape:window-x="-8"
     inkscape:window-y="-8"
     inkscape:window-maximized="1"
     fit-margin-top="0"
     fit-margin-left="0"
     fit-margin-right="0"
     fit-margin-bottom="0" />
  <metadata
     id="metadata113587">
    <rdf:RDF>
      <cc:Work
         rdf:about="">
        <dc:format>image/svg+xml</dc:format>
        <dc:type
           rdf:resource="http://purl.org/dc/dcmitype/StillImage" />
        <dc:title></dc:title>
      </cc:Work>
    </rdf:RDF>
  </metadata>
  <g
     inkscape:label="Layer 1"
     inkscape:groupmode="layer"
     id="layer1"
     transform="translate(-96.252846,-280.81923)">
    <g
       id="g13972"
       transform="matrix(0.35277777,0,0,-0.35277777,-932.03509,572.87494)">
      <g
         id="g13974" />
      <g
         id="g13986">
        <g
           clip-path="url(#clipPath13978)"
           id="g13984"
           style="opacity:0.21000701">
          <g
             transform="translate(2942.9004,655.8838)"
             id="g13982">
            <path
               d="M 0,0 C 4.479,0.104 10.875,-8.5 21.875,-11.25 32.875,-14 38,-24.75 22.75,-27.75 7.5,-30.75 -6.398,-15.605 -15.875,-14 -31.375,-11.375 -37.75,-0.875 0,0"
               style="fill:#231f20;fill-opacity:1;fill-rule:nonzero;stroke:none"
               id="path13980"
               inkscape:connector-curvature="0" />
          </g>
        </g>
      </g>
    </g>
    <g
       id="g13988"
       transform="matrix(0.35277777,0,0,-0.35277777,103.14647,341.14854)">
      <path
         d="m 0,0 -3.855,-1.793 c 0,0 -7.77,-2.855 -9.362,-3.787 -0.869,-0.512 -1.316,-1.606 -1.445,-2.328 -0.084,-0.459 -0.106,-1.754 0.162,-2.129 0.682,-0.961 2.158,-2.063 3.512,-2.32 2.615,-0.5 8.146,0.572 8.146,0.572 0.713,0.346 11.901,3.955 11.901,3.955 0,0 0.414,1.394 0.517,2.238 l 0.686,5.604 z"
         style="fill:#ed635d;fill-opacity:1;fill-rule:nonzero;stroke:none"
         id="path13990"
         inkscape:connector-curvature="0" />
    </g>
    <g
       id="g13992"
       transform="matrix(0.35277777,0,0,-0.35277777,102.88051,343.42229)">
      <path
         d="M 0,0 C 0.08,-0.111 0.225,-0.156 0.334,-0.078 0.422,-0.018 0.502,0.09 0.441,0.176 0.109,0.656 -1.146,2.387 -2.516,3.229 -3.715,3.967 -4.799,3.984 -5.293,3.943 -5.43,3.93 -5.549,3.814 -5.52,3.676 -5.492,3.545 -5.371,3.463 -5.242,3.473 -4.813,3.508 -3.828,3.488 -2.754,2.824 -1.551,2.086 -0.398,0.559 0,0"
         style="fill:#d5dfef;fill-opacity:1;fill-rule:nonzero;stroke:none"
         id="path13994"
         inkscape:connector-curvature="0" />
    </g>
    <g
       id="g13996"
       transform="matrix(0.35277777,0,0,-0.35277777,102.39066,343.57455)">
      <path
         d="M 0,0 C 0.08,-0.111 0.227,-0.156 0.336,-0.078 0.424,-0.018 0.504,0.088 0.443,0.176 0.109,0.654 -1.146,2.387 -2.516,3.229 -3.713,3.967 -4.797,3.984 -5.289,3.941 -5.428,3.93 -5.549,3.814 -5.518,3.674 -5.488,3.545 -5.369,3.463 -5.24,3.473 -4.811,3.506 -3.828,3.486 -2.75,2.826 -1.551,2.088 -0.396,0.559 0,0"
         style="fill:#d5dfef;fill-opacity:1;fill-rule:nonzero;stroke:none"
         id="path13998"
         inkscape:connector-curvature="0" />
    </g>
    <g
       id="g14000"
       transform="matrix(0.35277777,0,0,-0.35277777,101.92626,343.82191)">
      <path
         d="M 0,0 C 0.078,-0.109 0.227,-0.154 0.336,-0.078 0.422,-0.016 0.502,0.09 0.441,0.178 0.109,0.656 -1.146,2.389 -2.518,3.23 -3.715,3.969 -4.799,3.986 -5.291,3.943 -5.43,3.932 -5.549,3.814 -5.52,3.674 -5.492,3.547 -5.371,3.465 -5.244,3.475 -4.813,3.508 -3.828,3.49 -2.752,2.828 -1.551,2.088 -0.398,0.561 0,0"
         style="fill:#d5dfef;fill-opacity:1;fill-rule:nonzero;stroke:none"
         id="path14002"
         inkscape:connector-curvature="0" />
    </g>
    <g
       id="g14004"
       transform="matrix(0.35277777,0,0,-0.35277777,98.483923,343.11706)">
      <path
         d="m 0,0 c 0.232,0.135 0.176,0.125 0.625,0.326 0.613,-0.113 1.635,-0.385 3.131,-1.422 2.91,-2.011 3.375,-5.068 3.375,-5.068 0,0 -1.178,-0.6 -6.779,0.285 -0.067,0.012 -0.123,0.025 -0.182,0.037 -0.602,0.42 -1.121,0.92 -1.453,1.385 -0.268,0.375 -0.246,1.67 -0.162,2.129 C -1.316,-1.605 -0.869,-0.512 0,0"
         style="fill:#497384;fill-opacity:1;fill-rule:nonzero;stroke:none"
         id="path14006"
         inkscape:connector-curvature="0" />
    </g>
    <g
       id="g14008"
       transform="matrix(0.35277777,0,0,-0.35277777,97.967863,343.90391)">
      <path
         d="m 0,0 c 0.076,-1.104 2.164,-2.393 3.48,-2.805 4.526,-1.412 18.274,2.918 18.915,3.153 1.5,0.547 1.734,1.06 1.734,1.06 0,0 -0.309,-1.586 -0.365,-1.554 0,0 -0.303,-1.571 -1.168,-1.958 -0.703,-0.312 -6.149,-1.451 -7.555,-1.769 0,0 -8.072,-1.791 -11.871,-0.742 C 1.842,-4.246 0.4,-3.672 -0.219,-2.277 -0.408,-1.848 -0.014,0.156 0,0"
         style="fill:#ffffff;fill-opacity:1;fill-rule:nonzero;stroke:none"
         id="path14010"
         inkscape:connector-curvature="0" />
    </g>
    <g
       id="g14012"
       transform="matrix(0.35277777,0,0,-0.35277777,112.3387,345.62989)">
      <path
         d="m 0,0 -3.23,-6.971 c 0,0 -3.465,-6.103 1.496,-6.498 0.984,-0.078 5.986,-0.078 5.986,-0.078 1.182,0 3.859,-0.08 5.436,1.969 0.976,1.271 1.007,7.617 0.943,8.428 -0.235,3.07 -0.471,4.332 -0.471,4.332 z"
         style="fill:#ed635d;fill-opacity:1;fill-rule:nonzero;stroke:none"
         id="path14014"
         inkscape:connector-curvature="0" />
    </g>
    <g
       id="g14016"
       transform="matrix(0.35277777,0,0,-0.35277777,114.91151,347.0348)">
      <path
         d="M 0,0 C 0.123,-0.063 0.277,-0.035 0.344,0.088 0.396,0.182 0.422,0.313 0.324,0.365 -0.199,0.639 -2.139,1.604 -3.783,1.723 -5.219,1.824 -6.225,1.336 -6.658,1.068 -6.779,0.992 -6.836,0.832 -6.744,0.721 -6.662,0.619 -6.514,0.602 -6.4,0.67 -6.02,0.9 -5.107,1.344 -3.816,1.25 -2.375,1.148 -0.619,0.314 0,0"
         style="fill:#d5dfef;fill-opacity:1;fill-rule:nonzero;stroke:none"
         id="path14018"
         inkscape:connector-curvature="0" />
    </g>
    <g
       id="g14020"
       transform="matrix(0.35277777,0,0,-0.35277777,114.73029,347.49782)">
      <path
         d="M 0,0 C 0.123,-0.061 0.279,-0.031 0.344,0.092 0.396,0.188 0.42,0.318 0.322,0.369 -0.205,0.639 -2.16,1.576 -3.803,1.672 -5.242,1.758 -6.24,1.254 -6.67,0.98 -6.791,0.904 -6.846,0.744 -6.754,0.633 -6.668,0.531 -6.52,0.518 -6.406,0.586 -6.029,0.822 -5.123,1.277 -3.832,1.201 -2.389,1.119 -0.623,0.307 0,0"
         style="fill:#d5dfef;fill-opacity:1;fill-rule:nonzero;stroke:none"
         id="path14022"
         inkscape:connector-curvature="0" />
    </g>
    <g
       id="g14024"
       transform="matrix(0.35277777,0,0,-0.35277777,114.5353,347.89816)">
      <path
         d="M 0,0 C 0.127,-0.055 0.279,-0.018 0.336,0.107 0.385,0.205 0.4,0.34 0.301,0.385 -0.238,0.623 -2.238,1.461 -3.885,1.473 -5.328,1.48 -6.299,0.928 -6.713,0.631 -6.828,0.549 -6.875,0.387 -6.779,0.281 -6.689,0.184 -6.539,0.176 -6.43,0.252 -6.064,0.506 -5.184,1.008 -3.889,1 -2.443,0.99 -0.639,0.273 0,0"
         style="fill:#d5dfef;fill-opacity:1;fill-rule:nonzero;stroke:none"
         id="path14026"
         inkscape:connector-curvature="0" />
    </g>
    <g
       id="g14028"
       transform="matrix(0.35277777,0,0,-0.35277777,102.64627,316.94054)">
      <path
         d="m 0,0 -1.543,-67.963 c -0.299,-2.33 0.629,-2.625 0.814,-2.803 1.989,-1.908 10.883,-5.441 12.045,-2.724 l 6.391,71.217 z"
         style="fill:#15414f;fill-opacity:1;fill-rule:nonzero;stroke:none"
         id="path14030"
         inkscape:connector-curvature="0" />
    </g>
    <g
       id="g14032"
       transform="matrix(0.35277777,0,0,-0.35277777,105.62625,318.08637)">
      <path
         d="m 0,0 17.381,-77.996 c -0.36,-1.549 -0.602,-3.608 0.976,-2.617 5.008,3.138 11.303,-1.02 11.303,-1.02 0.801,0.535 -0.207,4.438 -0.15,5.026 L 19.658,0.324 Z"
         style="fill:#266472;fill-opacity:1;fill-rule:nonzero;stroke:none"
         id="path14034"
         inkscape:connector-curvature="0" />
    </g>
    <g
       id="g14036"
       transform="matrix(0.35277777,0,0,-0.35277777,97.822473,286.88003)">
      <path
         d="m 0,0 c 0,0 1.494,-25.887 3.926,-29.896 1.166,-1.92 16.451,-21.19 16.451,-21.19 0,0 2.156,-0.633 7.043,2.217 2.797,1.629 4.139,7.213 -2.334,12.652 -2.486,2.088 -12.145,14.158 -12.145,14.158 L 8.801,0.48 c 0,0 -0.457,1.821 -3.924,2.034 C -0.063,2.816 0,0 0,0"
         style="fill:#239e72;fill-opacity:1;fill-rule:nonzero;stroke:none"
         id="path14038"
         inkscape:connector-curvature="0" />
    </g>
    <g
       id="g14040"
       transform="matrix(0.35277777,0,0,-0.35277777,115.60188,303.96907)">
      <path
         d="m 0,0 c 0,0 -8.773,7.318 -13.486,9.152 -2.537,0.987 -10.606,1.584 -10.606,1.584 0,0 -8.418,-6.07 -10.51,-13.984 -0.168,-0.627 -4.927,-10.75 -3.136,-47.779 0.144,-3.008 6.849,-6.453 15.828,-6.719 7.797,-0.233 18.365,2.387 18.365,2.387 0,0 -1.492,13.589 -1.045,26.429 C -4.203,-17.846 0,0 0,0"
         style="fill:#37c495;fill-opacity:1;fill-rule:nonzero;stroke:none"
         id="path14042"
         inkscape:connector-curvature="0" />
    </g>
    <g
       id="g14044"
       transform="matrix(0.35277777,0,0,-0.35277777,118.97051,322.27147)">
      <path
         d="M 0,0 C 0.391,-1.439 -1.299,-2.912 -2.613,-3.264 -3.07,-3.389 -2.85,-7.09 -4.766,-7.475 c 0,0 -0.252,0.944 -0.63,2.608 -0.03,0.131 -0.618,1.48 -0.024,2.703 1.565,3.232 1.691,3.801 3.002,4.154 C -1.104,2.342 -0.387,1.441 0,0"
         style="fill:#ffe8d9;fill-opacity:1;fill-rule:nonzero;stroke:none"
         id="path14046"
         inkscape:connector-curvature="0" />
    </g>
    <g
       id="g14048"
       transform="matrix(0.35277777,0,0,-0.35277777,119.42114,321.41504)">
      <path
         d="m 0,0 -3.799,-0.979 -0.799,-2.74 0.776,-2.861 c 0,0 0.254,-0.772 -0.219,-1.844 -0.184,-0.418 -0.514,-1.146 -0.514,-1.146 0,0 0.223,-2.965 2.381,-2.076 0.697,0.287 1.139,0.933 1.139,0.933 0.955,0.268 2.521,0.902 3.572,1.264 2.426,0.836 1.406,3.717 1.406,3.717 L 3.23,-2.855 C 2.848,-1.238 1.742,0.445 0,0"
         style="fill:#ffe8d9;fill-opacity:1;fill-rule:nonzero;stroke:none"
         id="path14050"
         inkscape:connector-curvature="0" />
    </g>
    <g
       id="g14052"
       transform="matrix(0.35277777,0,0,-0.35277777,119.27091,322.49128)">
      <path
         d="m 0,0 c 1.516,0.213 2.398,0.943 2.398,0.943 0,0 1.217,0.87 1.073,2.123 -0.438,3.75 -1.778,19.86 -3.08,24.366 -1.428,4.947 -5.118,16.814 -5.118,16.814 0,0 -3.353,10.666 -9.421,8.527 -4.446,-1.568 -3.928,-9.185 -2.702,-13.128 0.963,-3.1 6.762,-16.112 6.762,-16.112 L -5.355,1.109 c 0,0 1.832,-1.603 5.355,-1.109"
         style="fill:#55e0ae;fill-opacity:1;fill-rule:nonzero;stroke:none"
         id="path14054"
         inkscape:connector-curvature="0" />
    </g>
    <g
       id="g14056"
       transform="matrix(0.35277777,0,0,-0.35277777,114.41676,348.65056)">
      <path
         d="m 0,0 c -1.852,0.805 -4.367,1.008 -6.943,0.447 -1.328,-0.287 -2.479,-1.144 -3.28,-1.904 -0.263,-1.592 0.09,-3.25 2.598,-3.449 0.984,-0.078 5.986,-0.078 5.986,-0.078 1.119,0 3.569,-0.049 5.164,1.683 C 2.756,-2.17 1.518,-0.658 0,0"
         style="fill:#497384;fill-opacity:1;fill-rule:nonzero;stroke:none"
         id="path14058"
         inkscape:connector-curvature="0" />
    </g>
    <g
       id="g14060"
       transform="matrix(0.35277777,0,0,-0.35277777,115.79207,349.71786)">
      <path
         d="M 0,0 C 0.449,0.586 0.625,2.203 0.725,3.943 0.711,3.918 0.699,3.904 0.686,3.867 0.213,2.688 -0.891,1.35 -2.309,0.719 -3.459,0.207 -5.223,0.088 -8.293,0.166 c -3.684,0.096 -5.271,0.303 -5.91,0.459 0,-1.172 0.187,-2.434 2.219,-2.594 0.982,-0.078 6.218,-0.078 6.218,-0.078 1.182,0 4.19,0 5.766,2.047"
         style="fill:#ffffff;fill-opacity:1;fill-rule:nonzero;stroke:none"
         id="path14062"
         inkscape:connector-curvature="0" />
    </g>
    <g
       id="g14064"
       transform="matrix(0.35277777,0,0,-0.35277777,111.05505,294.70932)">
      <path
         d="m 0,0 c -2.242,0.369 -2.848,-1.738 -2.848,-1.738 l -0.74,-4.498 c 0,0 -0.053,-0.996 0.764,-1.309 1.23,-0.469 1.965,0.555 2.738,1.686 0.045,0.062 1.068,1.75 1.129,1.851 C 1.92,-2.58 2.117,-0.35 0,0"
         style="fill:#ffe8d9;fill-opacity:1;fill-rule:nonzero;stroke:none"
         id="path14066"
         inkscape:connector-curvature="0" />
    </g>
    <g
       id="g14068"
       transform="matrix(0.35277777,0,0,-0.35277777,107.41978,303.23938)">
      <path
         d="M 0,0 C 0.859,-5.166 12.07,-1.354 11.975,6.244 L 12.572,19.984 1.82,17.127 2.254,4.809 C 2.254,4.809 -0.402,2.404 0,0"
         style="fill:#e8c5ac;fill-opacity:1;fill-rule:nonzero;stroke:none"
         id="path14070"
         inkscape:connector-curvature="0" />
    </g>
    <g
       id="g14072"
       transform="matrix(0.35277777,0,0,-0.35277777,112.14648,292.15032)">
      <path
         d="m 0,0 v -0.002 l 7.088,-5.166 -9.152,-12.906 c -0.731,-0.809 -1.635,-1.918 -3.016,-2.244 -1.002,-0.235 -1.621,-0.198 -3.33,-0.08 0,0 -6.172,1.056 -8.123,3.898 -0.803,1.17 -0.244,2.764 0,3.818 0.279,1.188 1.724,4.407 2.193,5.198 l 3.457,6.838 c 0,0 1.528,3.429 3.096,4.101 C -5.684,4.355 0,0 0,0"
         style="fill:#ffe1cc;fill-opacity:1;fill-rule:nonzero;stroke:none"
         id="path14074"
         inkscape:connector-curvature="0" />
    </g>
    <g
       id="g14076"
       transform="matrix(0.35277777,0,0,-0.35277777,109.11136,291.15676)">
      <path
         d="m 0,0 c -0.1,-0.125 0.928,0.922 3.197,-0.703 2.658,-1.906 4.385,-5.61 4.674,-6.274 0.834,-1.902 -0.642,-5.357 -1.519,-6.427 0,0 2.476,-0.834 3.91,-2.221 1.228,-1.186 -1.565,-2.082 -1.762,-2.188 l -1.062,-1.062 c -0.325,-0.73 -0.799,-4.43 0.064,-3.854 1.463,0.975 4.701,3.084 5.639,3.645 10.828,6.457 8.066,18.129 -2.692,22.072 C 8.348,3.76 4.736,4.221 2.273,3.326 1.736,3.129 1.438,1.813 0,0"
         style="fill:#5e3e0b;fill-opacity:1;fill-rule:nonzero;stroke:none"
         id="path14078"
         inkscape:connector-curvature="0" />
    </g>
    <g
       id="g14080"
       transform="matrix(0.35277777,0,0,-0.35277777,112.98637,296.08047)">
      <path
         d="M 0,0 C -1.842,1.33 -3.322,-0.289 -3.322,-0.289 L -5.99,-3.982 c 0,0 -0.49,-0.87 0.097,-1.51 0.895,-0.971 2.008,-0.383 3.205,0.283 0.067,0.037 1.737,1.092 1.836,1.154 C 0.57,-3.164 1.742,-1.258 0,0"
         style="fill:#ffe8d9;fill-opacity:1;fill-rule:nonzero;stroke:none"
         id="path14082"
         inkscape:connector-curvature="0" />
    </g>
    <g
       id="g14084"
       transform="matrix(0.35277777,0,0,-0.35277777,98.355053,286.54446)">
      <path
         d="m 0,0 c 0,0 -3.406,4.809 -4.809,10.619 -0.982,4.067 0.801,5.61 1.803,5.61 0.678,0 3.188,-5.487 5.125,-7.983 0.932,-1.197 1.914,-1.344 2.317,-0.437 1.601,3.605 1.214,3.033 2.002,3.88 0.814,0.875 2.626,2.002 1.751,-1.064 C 7.873,9.521 7.537,6.717 7.564,5.117 7.604,2.814 6.676,1.002 5.975,-0.033 5.551,-0.658 6.188,-2.451 6.188,-2.451 c 0,0 -3.485,-0.817 -5.319,0.185 C 0.324,-1.967 0.184,-0.414 0,0"
         style="fill:#e8c5ac;fill-opacity:1;fill-rule:nonzero;stroke:none"
         id="path14086"
         inkscape:connector-curvature="0" />
    </g>
  </g>
</svg>
