<?xml version="1.0" encoding="UTF-8" standalone="no"?>
<!-- Created with Inkscape (http://www.inkscape.org/) -->

<svg
   xmlns:dc="http://purl.org/dc/elements/1.1/"
   xmlns:cc="http://creativecommons.org/ns#"
   xmlns:rdf="http://www.w3.org/1999/02/22-rdf-syntax-ns#"
   xmlns:svg="http://www.w3.org/2000/svg"
   xmlns="http://www.w3.org/2000/svg"
   xmlns:sodipodi="http://sodipodi.sourceforge.net/DTD/sodipodi-0.dtd"
   xmlns:inkscape="http://www.inkscape.org/namespaces/inkscape"
   width="21.764179mm"
   height="63.387882mm"
   viewBox="0 0 21.764179 63.387882"
   version="1.1"
   id="svg164279"
   inkscape:version="0.92.3 (2405546, 2018-03-11)"
   sodipodi:docname="people-business-07.svg">
  <defs
     id="defs164273">
    <clipPath
       id="clipPath1528"
       clipPathUnits="userSpaceOnUse">
      <path
         inkscape:connector-curvature="0"
         id="path1526"
         d="m 967.51,1882.3 h 47.04 v -29.27 h -47.04 z" />
    </clipPath>
  </defs>
  <sodipodi:namedview
     id="base"
     pagecolor="#ffffff"
     bordercolor="#666666"
     borderopacity="1.0"
     inkscape:pageopacity="0.0"
     inkscape:pageshadow="2"
     inkscape:zoom="0.35"
     inkscape:cx="-671.72797"
     inkscape:cy="-165.92615"
     inkscape:document-units="mm"
     inkscape:current-layer="layer1"
     showgrid="false"
     fit-margin-top="0"
     fit-margin-left="0"
     fit-margin-right="0"
     fit-margin-bottom="0"
     inkscape:window-width="1366"
     inkscape:window-height="716"
     inkscape:window-x="-8"
     inkscape:window-y="-8"
     inkscape:window-maximized="1" />
  <metadata
     id="metadata164276">
    <rdf:RDF>
      <cc:Work
         rdf:about="">
        <dc:format>image/svg+xml</dc:format>
        <dc:type
           rdf:resource="http://purl.org/dc/dcmitype/StillImage" />
        <dc:title></dc:title>
      </cc:Work>
    </rdf:RDF>
  </metadata>
  <g
     inkscape:label="Layer 1"
     inkscape:groupmode="layer"
     id="layer1"
     transform="translate(-100.24291,-41.544156)">
    <g
       id="g1522"
       transform="matrix(0.35277777,0,0,-0.35277777,-235.9036,758.64098)">
      <g
         id="g1524" />
      <g
         id="g1536">
        <g
           clip-path="url(#clipPath1528)"
           id="g1534"
           style="opacity:0.27000403">
          <g
             transform="translate(997.2627,1858.4858)"
             id="g1532">
            <path
               d="m 0,0 c -4.799,-5.907 -10.852,-5.787 -21.964,-5.168 -3.322,0.185 -9.414,3.876 -7.384,11.813 2.128,8.321 6.429,16.462 26.266,17.155 8.522,0.298 13.91,-3.865 17.479,-6.45 C 25.103,9.597 2.859,3.521 0,0"
               style="fill:#231f20;fill-opacity:1;fill-rule:nonzero;stroke:none"
               id="path1530"
               inkscape:connector-curvature="0" />
          </g>
        </g>
      </g>
    </g>
    <g
       id="g1538"
       transform="matrix(0.35277777,0,0,-0.35277777,119.57855,97.688387)">
      <path
         d="m 0,0 c -0.055,0.052 -6.793,4.858 -6.863,4.908 -2.606,1.923 -2.17,6.482 -2.17,6.482 l -9.292,-3.03 0.056,-1.425 0.107,-3.33 c -0.01,-1.142 1.052,-3.209 2.551,-3.618 1.289,-0.346 2.438,-0.695 2.438,-0.695 0,0 12.33,-2.863 13.47,-2.398 C 2.837,-2.063 0.271,-0.279 0,0"
         style="fill:#e8c5ac;fill-opacity:1;fill-rule:nonzero;stroke:none"
         id="path1540"
         inkscape:connector-curvature="0" />
    </g>
    <g
       id="g1542"
       transform="matrix(0.35277777,0,0,-0.35277777,114.50288,99.045065)">
      <path
         d="M 0,0 2.696,1.912 0.185,3.846 -1.479,3.508 Z"
         style="fill:#5b5454;fill-opacity:1;fill-rule:nonzero;stroke:none"
         id="path1544"
         inkscape:connector-curvature="0" />
    </g>
    <g
       id="g1546"
       transform="matrix(0.35277777,0,0,-0.35277777,113.29469,97.800536)">
      <path
         d="m 0,0 1.212,-2.806 c 0,0 0.179,-0.514 1.437,-0.674 0.328,-0.04 0.776,-0.048 0.776,-0.048 l -0.414,3.379 z"
         style="fill:#7c7676;fill-opacity:1;fill-rule:nonzero;stroke:none"
         id="path1548"
         inkscape:connector-curvature="0" />
    </g>
    <g
       id="g1550"
       transform="matrix(0.35277777,0,0,-0.35277777,120.89942,99.313776)">
      <path
         d="m 0,0 c 0.703,0.697 0.336,1.897 -0.107,2.116 -1.806,0.897 -2.762,1.328 -2.762,1.328 0.896,-0.785 -0.927,-0.963 -2.45,-1.32 -1.851,-0.436 -3.91,-0.523 -6.283,0.238 -1.678,0.543 -4.703,2.018 -5.933,2.596 -4.125,1.944 -4.971,4.209 -4.971,4.209 0,0 -0.05,-0.986 0.258,-2.502 0.453,-2.228 1.468,-2.43 1.468,-2.43 0,0 -0.231,-0.188 1.96,-0.662 2.466,-0.531 7.315,-3.969 10.576,-4.847 C -5.541,-1.996 -1.703,-1.691 0,0"
         style="fill:#7c7676;fill-opacity:1;fill-rule:nonzero;stroke:none"
         id="path1552"
         inkscape:connector-curvature="0" />
    </g>
    <g
       id="g1554"
       transform="matrix(0.35277777,0,0,-0.35277777,120.81399,99.070396)">
      <path
         d="M 0,0 C 0.978,1.021 0.073,1.599 -0.757,2.152 -0.878,2.23 -3.502,3.917 -3.502,3.917 -2.604,3.13 -2.444,2.345 -4.928,1.843 -6.789,1.46 -9.157,1.765 -11.381,2.89 c -2.071,1.049 -5.14,3.119 -5.961,3.625 -3.877,2.401 -4.971,4.207 -4.971,4.207 0,0 -0.649,-2.688 -0.34,-4.207 0.455,-2.225 1.59,-3.268 1.59,-3.268 0,0 0.593,-0.117 3.299,-0.164 2.478,-0.048 5.739,-3.351 9.623,-4.277 C -4.152,-2.147 -1.196,-1.248 0,0"
         style="fill:#070707;fill-opacity:1;fill-rule:nonzero;stroke:none"
         id="path1556"
         inkscape:connector-curvature="0" />
    </g>
    <g
       id="g1558"
       transform="matrix(0.35277777,0,0,-0.35277777,114.68172,71.099495)">
      <path
         d="m 0,0 c -0.367,-1.512 1.363,-2.985 2.697,-3.312 0.46,-0.11 0.223,-2.435 0.648,-3.659 0.445,-1.287 1.31,-0.794 1.575,-0.504 0.205,0.22 0.219,3.982 0.207,5.102 C 5.08,1.363 3.742,1.826 2.411,2.15 1.078,2.477 0.371,1.512 0,0"
         style="fill:#e8caba;fill-opacity:1;fill-rule:nonzero;stroke:none"
         id="path1560"
         inkscape:connector-curvature="0" />
    </g>
    <g
       id="g1562"
       transform="matrix(0.35277777,0,0,-0.35277777,114.05021,70.225807)">
      <path
         d="m 0,0 3.924,0.485 2.023,-4.642 0.087,-0.792 0.109,-6.359 c 0,0 0.292,-3.056 -2.839,-3.446 -2.039,-0.253 -0.217,-0.028 -0.217,-0.028 -2.8,-0.348 -3.658,3.543 -3.658,3.543 l -1.174,6.69 C -1.992,-2.835 -1.8,-0.225 0,0"
         style="fill:#e8caba;fill-opacity:1;fill-rule:nonzero;stroke:none"
         id="path1564"
         inkscape:connector-curvature="0" />
    </g>
    <g
       id="g1566"
       transform="matrix(0.35277777,0,0,-0.35277777,116.11451,70.612697)">
      <path
         d="M 0,0 C 0,0 -1.623,-1.555 -3.799,-1.663 -4.494,-1.698 -6.554,-2.13 -6.554,-2.13 L -11.7,21.563 -13.403,37.68 c -0.802,4.278 -1.166,11.313 3.47,11.779 6.041,0.611 6.516,-8.212 6.516,-8.212 L -3.24,22.435 Z"
         style="fill:#01797f;fill-opacity:1;fill-rule:nonzero;stroke:none"
         id="path1568"
         inkscape:connector-curvature="0" />
    </g>
    <g
       id="g1570"
       transform="matrix(0.35277777,0,0,-0.35277777,109.18577,71.506176)">
      <path
         d="m 0,0 c 0.258,-1.557 -1.38,-1.938 -0.973,-2.728 0.571,-1.109 0.611,-4.641 0.994,-7.631 l 9.814,-57.774 0.24,-1.406 c 0,0 3.407,-1.276 6.139,-1.051 5.766,0.471 5.579,2.648 5.579,2.648 0,0 -3.247,45.163 -3.12,59.035 0.067,7.248 -0.884,13.743 -0.884,13.743 z"
         style="fill:#423b3b;fill-opacity:1;fill-rule:nonzero;stroke:none"
         id="path1572"
         inkscape:connector-curvature="0" />
    </g>
    <g
       id="g1574"
       transform="matrix(0.35277777,0,0,-0.35277777,112.55333,101.36172)">
      <path
         d="m 0,0 c -0.06,0.054 -2.945,4.15 -3.737,5.243 -2.585,3.563 -2.301,5.297 -2.301,5.297 l 0.177,4.544 6.832,64.082 c 0,0 -0.038,0.904 0.109,2.741 0.055,0.681 2.61,1.778 2.62,2.29 h -23.959 l -0.085,-0.406 c -0.978,-4.921 0.286,-13.454 0.647,-16.539 0.21,-1.801 3.218,-50.489 3.685,-55.087 l 0.121,-4.699 c 0,-1.144 0.678,-2.396 1.466,-3.735 0.885,-1.495 6.354,-5.414 6.354,-5.414 0,0 3.768,-3.327 7.462,-1.849 1.913,0.765 1.788,2.31 0.809,3.339 C 0.139,-0.124 0.071,-0.065 0,0"
         style="fill:#ffe1cc;fill-opacity:1;fill-rule:nonzero;stroke:none"
         id="path1576"
         inkscape:connector-curvature="0" />
    </g>
    <g
       id="g1578"
       transform="matrix(0.35277777,0,0,-0.35277777,107.8139,101.88296)">
      <path
         d="M 0,0 3.028,1.333 0.95,3.733 H -0.748 Z"
         style="fill:#5b5454;fill-opacity:1;fill-rule:nonzero;stroke:none"
         id="path1580"
         inkscape:connector-curvature="0" />
    </g>
    <g
       id="g1582"
       transform="matrix(0.35277777,0,0,-0.35277777,107.0088,100.22416)">
      <path
         d="m 0,0 0.258,-3.554 c 0,0 0.074,-0.538 1.276,-0.945 0.312,-0.106 0.748,-0.203 0.748,-0.203 l 0.272,3.389 z"
         style="fill:#7c7676;fill-opacity:1;fill-rule:nonzero;stroke:none"
         id="path1584"
         inkscape:connector-curvature="0" />
    </g>
    <g
       id="g1586"
       transform="matrix(0.35277777,0,0,-0.35277777,113.284,103.55177)">
      <path
         d="M 0,0 C 1.411,0.854 0.828,2.6 0.732,2.794 -0.083,4.421 -1.394,4.168 -1.394,4.168 -0.67,3.223 -3.286,2.193 -4.848,2.15 c -1.899,-0.056 -3.876,1.267 -6.048,2.488 -1.536,0.862 -3.092,2.805 -4.066,3.761 -2.985,2.914 -3.148,5.444 -3.148,5.444 0,0 1.266,-0.958 1.266,-2.507 0,-2.267 -0.561,-2.669 -0.561,-2.669 0,0 0.124,-0.796 2.171,-1.696 2.307,-1.018 3.879,-5.057 6.9,-6.569 C -5.83,-0.848 -2.054,-1.246 0,0"
         style="fill:#7c7676;fill-opacity:1;fill-rule:nonzero;stroke:none"
         id="path1588"
         inkscape:connector-curvature="0" />
    </g>
    <g
       id="g1590"
       transform="matrix(0.35277777,0,0,-0.35277777,113.24855,103.29544)">
      <path
         d="M 0,0 C 1.561,0.95 1.306,2.256 -1.172,4.735 -1.275,4.839 -1.84,5.36 -1.84,5.36 -1.12,4.415 -1.3,2.996 -3.8,2.576 -5.834,2.237 -7.813,2.615 -9.838,4.482 c -0.827,0.764 -2.396,2.622 -4.224,5.109 -2.581,3.513 -3.853,5.814 -3.853,5.814 0,0 -1.314,-1.072 -0.906,-3.924 0.319,-2.249 1.259,-3.532 1.259,-3.532 l 3.041,-1.771 C -12.285,5.109 -11.836,2.142 -8.215,0.457 -4.5,-1.276 -1.48,-0.902 0,0"
         style="fill:#070707;fill-opacity:1;fill-rule:nonzero;stroke:none"
         id="path1592"
         inkscape:connector-curvature="0" />
    </g>
    <g
       id="g1594"
       transform="matrix(0.35277777,0,0,-0.35277777,105.35515,71.801417)">
      <path
         d="m 0,0 c -0.452,-3.381 -0.491,-11.297 -0.078,-15.552 0.178,-1.804 3.038,-54.335 3.505,-58.929 0,0 0.189,-1.294 1.512,-2.019 7.38,-4.044 10.531,-0.285 10.531,-0.285 0.009,1.099 6.833,67.088 6.833,67.088 0,0 1.242,9.727 1.252,10.244 L 0.093,0.686 Z"
         style="fill:#5b5353;fill-opacity:1;fill-rule:nonzero;stroke:none"
         id="path1596"
         inkscape:connector-curvature="0" />
    </g>
    <g
       id="g1598"
       transform="matrix(0.35277777,0,0,-0.35277777,105.33031,71.477246)">
      <path
         d="m 0,0 c -0.092,-0.921 -0.16,-2.243 -0.098,-2.747 2.556,-0.997 8.482,-2.781 16.458,-1.568 5.593,0.852 9.201,3.794 9.956,4.345 1.207,0.879 2.044,1.794 2.63,2.704 -0.174,2.719 -0.745,4.406 -1.168,5.908 -0.235,0.41 -0.445,0.739 -0.605,0.975 L 2.452,3.978 0.433,3.47 C 0.283,2.518 0.168,1.564 0.063,0.614 0.039,0.409 0.021,0.204 0,0"
         style="fill:#3a3535;fill-opacity:1;fill-rule:nonzero;stroke:none"
         id="path1600"
         inkscape:connector-curvature="0" />
    </g>
    <g
       id="g1602"
       transform="matrix(0.35277777,0,0,-0.35277777,113.30469,53.260617)">
      <path
         d="m 0,0 5.43,-16.766 c 0,0 1.155,-3.328 0.996,-5.249 -0.225,-2.71 -2.028,-5.139 -2.149,-5.339 -1.29,-2.106 -1.5,-4.7 -1.091,-6.871 l 2.866,-11.774 c 0,0 -0.887,-2.444 -6.866,-5.429 -12.366,-6.173 -22.296,-0.352 -22.296,-0.352 -0.48,0.432 0.975,6.266 1.08,6.785 l 2.299,7.826 c 0.273,1.287 0.365,2.617 0.273,3.932 l -3.258,11.04 c 0,0 -3.259,7.733 -1.31,11.633 1.638,3.279 8.549,8.552 10.992,10.088 0.616,0.388 1.993,0.995 3.621,1.452 0,0 5.952,1.265 9.413,-0.976"
         style="fill:#0592a0;fill-opacity:1;fill-rule:nonzero;stroke:none"
         id="path1604"
         inkscape:connector-curvature="0" />
    </g>
    <g
       id="g1606"
       transform="matrix(0.35277777,0,0,-0.35277777,112.48099,60.721826)">
      <path
         d="M 0,0 C 0,0.089 0.142,0.39 0.488,7.006 L -3.511,4.244 C -1.619,1.813 0,-0.177 0,0"
         style="fill:#c8fafc;fill-opacity:1;fill-rule:nonzero;stroke:none"
         id="path1608"
         inkscape:connector-curvature="0" />
    </g>
    <g
       id="g1610"
       transform="matrix(0.35277777,0,0,-0.35277777,110.19415,41.668017)">
      <path
         d="m 0,0 c 0,0 5.223,0.069 9.229,-3.653 4.615,-4.29 4.013,-10.026 2.593,-16.238 -1,-4.359 -1.449,-7.781 -0.365,-9.777 0.832,-1.514 2.627,-1.354 2.627,-1.354 0,0 -1.222,-2.665 -3.532,-3.349 -2.305,-0.683 -7.525,0.764 -7.525,0.764 0,0 -2.478,13.11 -2.451,13.999 C 0.599,-18.714 0,0 0,0"
         style="fill:#684005;fill-opacity:1;fill-rule:nonzero;stroke:none"
         id="path1612"
         inkscape:connector-curvature="0" />
    </g>
    <g
       id="g1614"
       transform="matrix(0.35277777,0,0,-0.35277777,112.00141,54.272417)">
      <path
         d="m 0,0 c -0.239,0.318 2.351,-0.997 1.994,-8.418 -0.454,-9.41 -0.635,-9.762 -0.635,-9.864 0,-0.389 -7.633,9.459 -9.14,11.856 -3.08,4.886 -2.356,5.976 -2.172,7.239 l 0.889,12.645 9.841,-1.087 z"
         style="fill:#e8c5ac;fill-opacity:1;fill-rule:nonzero;stroke:none"
         id="path1616"
         inkscape:connector-curvature="0" />
    </g>
    <g
       id="g1618"
       transform="matrix(0.35277777,0,0,-0.35277777,111.29346,44.808057)">
      <path
         d="m 0,0 c 6.518,-0.539 6.19,-5.975 6.063,-9.591 -0.09,-2.535 -0.814,-7.24 -0.814,-7.24 -1.007,-4.63 -2.81,-7.224 -5.338,-7.875 -3.168,-0.815 -7.231,1.581 -10.481,5.946 -2.875,3.861 -3.129,6.281 -3.159,6.857 L -14.961,2.289 C -14.961,2.289 -3.465,0.292 0,0"
         style="fill:#ffe1cc;fill-opacity:1;fill-rule:nonzero;stroke:none"
         id="path1620"
         inkscape:connector-curvature="0" />
    </g>
    <g
       id="g1622"
       transform="matrix(0.35277777,0,0,-0.35277777,109.55367,41.545217)">
      <path
         d="m 0,0 c 0,0 -14.689,0.575 -15.759,-14.174 -0.293,-4.043 0.378,-5.127 1.448,-9.461 1.202,-4.863 2.787,-9.001 1.158,-11.175 -1.243,-1.661 -2.354,-1.267 -2.354,-1.267 l 5.884,-3.528 c 2.857,0.974 4.103,2.912 4.449,3.396 0,0 -0.139,-2.145 -1.915,-4.683 0,0 6.2,0.357 4.208,11.468 -1.22,6.805 -0.406,10.818 1.495,13.528 1.618,2.314 4.153,3.376 5.52,4.525 1.72,1.447 3.962,4.793 0.653,8.961 C 2.872,0.006 0,0 0,0"
         style="fill:#684005;fill-opacity:1;fill-rule:nonzero;stroke:none"
         id="path1624"
         inkscape:connector-curvature="0" />
    </g>
    <g
       id="g1626"
       transform="matrix(0.35277777,0,0,-0.35277777,109.57505,44.502837)">
      <path
         d="m 0,0 -4.437,-10.588 c 0,0 3.711,0.45 5.615,1.176 0,0 1.876,2.724 2.624,4.977 0.089,0.271 -0.363,-2.623 -1.359,-4.615 -0.112,-0.227 4.707,1.176 4.707,1.176 0,0 0.996,1.539 0.814,4.344 -0.043,0.657 1.175,-1.259 1.175,-3.619 0,-0.182 2.704,0.837 2.717,1.811 0.092,5.972 -5.612,8.055 -5.612,8.055 z"
         style="fill:#684005;fill-opacity:1;fill-rule:nonzero;stroke:none"
         id="path1628"
         inkscape:connector-curvature="0" />
    </g>
    <g
       id="g1630"
       transform="matrix(0.35277777,0,0,-0.35277777,105.2294,70.778217)">
      <path
         d="M 0,0 -0.125,1.133 2.837,3.658 8.008,2.334 c 0,0 5.106,-3.407 5.568,-5.499 1.032,-4.682 -3.236,-3.96 -3.236,-3.96 -0.198,0.098 -1.482,1.036 -2.271,1.387 C 6.935,-5.232 3.91,-4.162 3.91,-4.162 1.711,-3.404 0.162,-1.823 0,0"
         style="fill:#e8c7b1;fill-opacity:1;fill-rule:nonzero;stroke:none"
         id="path1632"
         inkscape:connector-curvature="0" />
    </g>
    <g
       id="g1634"
       transform="matrix(0.35277777,0,0,-0.35277777,106.3642,69.621356)">
      <path
         d="m 0,0 c 0,0 2.892,1.181 5.042,1.008 3.151,-0.251 3.909,0 3.909,0 0,0 1.005,-1.06 -1.323,-1.514 C 5.358,-0.945 4.35,-1.577 4.35,-1.577 Z"
         style="fill:#e8c7b1;fill-opacity:1;fill-rule:nonzero;stroke:none"
         id="path1636"
         inkscape:connector-curvature="0" />
    </g>
    <g
       id="g1638"
       transform="matrix(0.35277777,0,0,-0.35277777,104.20654,65.751847)">
      <path
         d="m 0,0 c 0,0 5.814,-9.171 6.785,-9.974 1.218,-1.008 -0.011,-3.669 -2.088,-4.475 -1.61,-0.628 -1.991,-0.32 -1.991,-0.32 0,0 -15.567,11.685 -13.802,18.048 C -9.756,8.115 0,23.077 0,23.077 c 1.638,2.397 4.174,4.257 7.188,2.901 6.789,-3.052 0.253,-11.979 0.253,-11.979 0,0 -4.504,-5.607 -7.315,-9.081 C -2.017,2.271 0,0 0,0"
         style="fill:#14aab2;fill-opacity:1;fill-rule:nonzero;stroke:none"
         id="path1640"
         inkscape:connector-curvature="0" />
    </g>
  </g>
</svg>
