<?xml version="1.0" encoding="UTF-8" standalone="no"?>
<!-- Created with Inkscape (http://www.inkscape.org/) -->

<svg
   xmlns:dc="http://purl.org/dc/elements/1.1/"
   xmlns:cc="http://creativecommons.org/ns#"
   xmlns:rdf="http://www.w3.org/1999/02/22-rdf-syntax-ns#"
   xmlns:svg="http://www.w3.org/2000/svg"
   xmlns="http://www.w3.org/2000/svg"
   xmlns:sodipodi="http://sodipodi.sourceforge.net/DTD/sodipodi-0.dtd"
   xmlns:inkscape="http://www.inkscape.org/namespaces/inkscape"
   width="17.003355mm"
   height="64.082993mm"
   viewBox="0 0 17.003355 64.082993"
   version="1.1"
   id="svg163877"
   inkscape:version="0.92.3 (2405546, 2018-03-11)"
   sodipodi:docname="people-business-05.svg">
  <defs
     id="defs163871">
    <clipPath
       id="clipPath200"
       clipPathUnits="userSpaceOnUse">
      <path
         inkscape:connector-curvature="0"
         id="path198"
         d="m 793.336,1880.82 h 46.516 v -28.19 h -46.516 z" />
    </clipPath>
  </defs>
  <sodipodi:namedview
     id="base"
     pagecolor="#ffffff"
     bordercolor="#666666"
     borderopacity="1.0"
     inkscape:pageopacity="0.0"
     inkscape:pageshadow="2"
     inkscape:zoom="0.35"
     inkscape:cx="-277.86767"
     inkscape:cy="115.38744"
     inkscape:document-units="mm"
     inkscape:current-layer="layer1"
     showgrid="false"
     fit-margin-top="0"
     fit-margin-left="0"
     fit-margin-right="0"
     fit-margin-bottom="0"
     inkscape:window-width="1366"
     inkscape:window-height="716"
     inkscape:window-x="-8"
     inkscape:window-y="-8"
     inkscape:window-maximized="1" />
  <metadata
     id="metadata163874">
    <rdf:RDF>
      <cc:Work
         rdf:about="">
        <dc:format>image/svg+xml</dc:format>
        <dc:type
           rdf:resource="http://purl.org/dc/dcmitype/StillImage" />
        <dc:title></dc:title>
      </cc:Work>
    </rdf:RDF>
  </metadata>
  <g
     inkscape:label="Layer 1"
     inkscape:groupmode="layer"
     id="layer1"
     transform="translate(3.9659658,-115.27993)">
    <g
       id="g194"
       transform="matrix(0.35277777,0,0,-0.35277777,-283.24347,832.92961)">
      <g
         id="g196" />
      <g
         id="g208">
        <g
           clip-path="url(#clipPath200)"
           id="g206"
           style="opacity:0.28999299">
          <g
             transform="translate(795.7959,1870.769)"
             id="g204">
            <path
               d="m 0,0 c -2.031,-0.921 -4.245,-6.46 -0.185,-8.86 4.061,-2.399 25.287,-13.473 31.932,-7.566 6.645,5.905 9.23,9.782 11.813,12.182 C 46.144,-1.845 38.724,11.191 18.827,9.967 6.829,9.229 0,0 0,0"
               style="fill:#231f20;fill-opacity:1;fill-rule:nonzero;stroke:none"
               id="path202"
               inkscape:connector-curvature="0" />
          </g>
        </g>
      </g>
    </g>
    <g
       id="g210"
       transform="matrix(0.35277777,0,0,-0.35277777,8.4248723,149.02202)">
      <path
         d="m 0,0 c 0.197,-1.723 2.652,-2.591 4.219,-2.409 0.549,0.059 1.245,-3.134 2.185,-4.249 0.989,-1.171 2.21,-0.262 2.38,0.139 0.131,0.312 -1.846,4.868 -2.302,6.032 C 4.963,3.4 3.331,3.36 1.765,3.181 0.197,3.003 -0.195,1.723 0,0"
         style="fill:#ffe8d9;fill-opacity:1;fill-rule:nonzero;stroke:none"
         id="path212"
         inkscape:connector-curvature="0" />
    </g>
    <g
       id="g214"
       transform="matrix(0.35277777,0,0,-0.35277777,8.5006493,148.56055)">
      <path
         d="m 0,0 c -1.771,-0.13 -5.418,3.036 -5.418,3.036 0,0 -0.102,0.431 -0.279,1.187 -1,4.269 -4.726,18.913 -5.246,24.336 -0.571,5.956 -0.853,16.694 -0.853,16.694 0,0 -1.175,12.551 5.095,14.532 3.585,1.132 9.436,-2.076 9.058,-11.889 C 2.211,44.126 1.713,28.271 1.713,28.271 L 4.425,4.856 C 4.425,4.856 3.461,0.254 0,0"
         style="fill:#688caa;fill-opacity:1;fill-rule:nonzero;stroke:none"
         id="path216"
         inkscape:connector-curvature="0" />
    </g>
    <g
       id="g218"
       transform="matrix(0.35277777,0,0,-0.35277777,7.6128393,148.08063)">
      <path
         d="m 0,0 4.522,0.564 2.32,-5.162 0.097,-0.878 0.109,-7.09 c 0,0 0.325,-3.403 -3.28,-3.855 -2.355,-0.295 -0.254,-0.033 -0.254,-0.033 -3.227,-0.403 -3.912,3.034 -3.912,3.034 l -1.869,8.956 C -2.546,-2.552 -2.07,-0.26 0,0"
         style="fill:#ffe8d9;fill-opacity:1;fill-rule:nonzero;stroke:none"
         id="path220"
         inkscape:connector-curvature="0" />
    </g>
    <g
       id="g222"
       transform="matrix(0.35277777,0,0,-0.35277777,10.446262,147.85912)">
      <path
         d="m 0,0 c 0.062,-0.79 -1.575,-2.473 -3.885,-2.86 -3.002,-0.502 -4.47,-0.033 -4.47,-0.033 -1.433,0.384 -2.238,0.88 -2.422,1.858 0,0 -0.696,3.615 -0.86,4.761 -0.106,0.739 0.254,0.766 0.254,0.766 0,0 0.105,-0.58 0.244,-0.782 0.511,-0.742 1.877,-1.691 4.854,-1.569 4.68,0.19 5.027,2.985 5.027,2.985 0.681,0.051 0.924,-0.239 0.948,-1.024 z"
         style="fill:#e4eff4;fill-opacity:1;fill-rule:nonzero;stroke:none"
         id="path224"
         inkscape:connector-curvature="0" />
    </g>
    <path
       d="M 4.8383937,174.37993 H 2.1671635 v -1.22343 h 2.6712302 z"
       style="fill:#282827;fill-opacity:1;fill-rule:nonzero;stroke:none;stroke-width:0.35277778"
       id="path226"
       inkscape:connector-curvature="0" />
    <g
       id="g228"
       transform="matrix(0.35277777,0,0,-0.35277777,5.8369034,170.01092)">
      <path
         d="m 0,0 2.619,-2.225 c 0,0 12.03,-5.842 12.809,-6.126 0.513,-0.187 1.369,-0.826 1.347,-1.769 -0.009,-0.372 -0.029,-0.606 -0.261,-0.943 -0.831,-1.198 -2.539,-1.737 -4.129,-2.029 -3.468,-0.637 -11.04,0.778 -11.04,0.778 -0.834,0.394 -5.761,1.251 -6.157,1.557 0,0 -1.519,0.048 -1.835,-0.588 -0.113,-0.228 0.09,-1.273 0.117,-1.484 l -4.578,1.773 c -0.228,0.112 -0.685,2.283 -0.809,3.248 l -0.816,6.415 z"
         style="fill:#545454;fill-opacity:1;fill-rule:nonzero;stroke:none"
         id="path230"
         inkscape:connector-curvature="0" />
    </g>
    <g
       id="g232"
       transform="matrix(0.35277777,0,0,-0.35277777,11.670331,173.73075)">
      <path
         d="m 0,0 c -1.083,-1.368 -2.709,-1.873 -4.292,-2.194 -5.175,-1.046 -12.456,1.793 -12.456,1.793 -1.556,0.636 -4.294,1.012 -4.954,0.965 0,0 -1.563,-0.163 -1.507,-1.345 0.01,-0.243 -0.093,-0.068 -0.054,-0.341 -0.004,0.14 0.005,0.256 0.034,0.316 0.316,0.636 1.599,-0.256 1.599,-0.256 0.304,0.083 1.932,0.507 3.821,0.071 0,0 7.099,-3.103 12.597,-2.406 1.602,0.202 4.319,1.138 5.261,2.619 0.163,0.259 0.356,0.897 0.157,1.342 C 0.186,0.487 0.053,0.065 0,0"
         style="fill:#282827;fill-opacity:1;fill-rule:nonzero;stroke:none"
         id="path234"
         inkscape:connector-curvature="0" />
    </g>
    <g
       id="g236"
       transform="matrix(0.35277777,0,0,-0.35277777,3.4715284,173.92383)">
      <path
         d="m 0,0 -4.947,1.89 c 0,0 0.431,-1.894 0.498,-1.86 L 0.128,-1.743 C 0.108,-1.592 0.02,-0.399 0,0"
         style="fill:#282827;fill-opacity:1;fill-rule:nonzero;stroke:none"
         id="path238"
         inkscape:connector-curvature="0" />
    </g>
    <g
       id="g240"
       transform="matrix(0.35277777,0,0,-0.35277777,1.2316718,176.29389)">
      <path
         d="M 0,0 -3.93,-2.005 V 1.486 Z"
         style="fill:#282827;fill-opacity:1;fill-rule:nonzero;stroke:none"
         id="path242"
         inkscape:connector-curvature="0" />
    </g>
    <g
       id="g244"
       transform="matrix(0.35277777,0,0,-0.35277777,8.1993683,148.55674)">
      <path
         d="m 0,0 -2.983,-60.815 c 0,-2.729 0.312,-3.324 -0.588,-4.129 -3.369,-3.008 -14.167,-8.036 -15.229,-2.116 l -4.361,69.559 z"
         style="fill:#282827;fill-opacity:1;fill-rule:nonzero;stroke:none"
         id="path246"
         inkscape:connector-curvature="0" />
    </g>
    <g
       id="g248"
       transform="matrix(0.35277777,0,0,-0.35277777,2.866003,172.98177)">
      <path
         d="m 0,0 7.951,-6.677 c 0,0 4.018,-3.221 5.495,-4.08 0.668,-0.388 1.133,-1.249 1.181,-2.088 0.032,-0.536 -0.108,-1.063 -0.473,-1.45 -0.931,-0.991 -2.846,-1.765 -4.423,-2.123 -4.671,-1.062 -9.412,1.84 -9.412,1.84 -0.778,0.495 -6.051,3.897 -6.44,4.211 -1.097,0.884 -2.097,1.228 -2.49,0.636 0,0 0.048,-1.451 0.048,-1.663 l -4.423,3.043 c 0,0 -0.287,1.645 -0.287,2.619 v 6.465 z"
         style="fill:#545454;fill-opacity:1;fill-rule:nonzero;stroke:none"
         id="path250"
         inkscape:connector-curvature="0" />
    </g>
    <g
       id="g252"
       transform="matrix(0.35277777,0,0,-0.35277777,8.0276533,177.58788)">
      <path
         d="m 0,0 c -0.955,-1.472 -3.375,-2.238 -4.936,-2.654 -5.495,-1.462 -9.518,1.805 -9.518,1.805 -1.513,0.932 -5.732,3.621 -6.157,3.856 0,0 -2.446,1.828 -2.576,0.401 -0.022,-0.242 -0.063,-0.291 -0.055,-0.567 0.013,0.139 0.099,0.245 0.119,0.308 0.301,0.937 2.76,-0.867 2.76,-0.867 0.354,-0.353 5.155,-3.615 5.933,-4.111 0,0 4.483,-3.443 9.696,-1.886 1.55,0.462 3.513,1.075 4.469,2.548 C -0.006,-0.769 0.044,0.069 0,0"
         style="fill:#282827;fill-opacity:1;fill-rule:nonzero;stroke:none"
         id="path254"
         inkscape:connector-curvature="0" />
    </g>
    <g
       id="g256"
       transform="matrix(0.35277777,0,0,-0.35277777,-0.1522049,176.38572)">
      <path
         d="m 0,0 c 0,0 -2.099,1.16 -2.813,1.52 -1.67,0.84 -1.871,1.458 -1.871,1.458 0,0 0.135,-1.847 0.205,-1.822 0,0 0.053,-0.513 1.009,-1.08 C -2.605,-0.437 0,-1.745 0,-1.745 Z"
         style="fill:#282827;fill-opacity:1;fill-rule:nonzero;stroke:none"
         id="path258"
         inkscape:connector-curvature="0" />
    </g>
    <g
       id="g260"
       transform="matrix(0.35277777,0,0,-0.35277777,5.6529122,150.1544)">
      <path
         d="m 0,0 -3.583,-65.698 c -0.024,-1.958 -0.884,-2.583 -2.472,-3.423 -9.693,-5.123 -14.653,-1.071 -14.653,-1.071 -0.779,0.442 -0.713,0.962 -0.779,1.645 l -1.674,71.046 z"
         style="fill:#383736;fill-opacity:1;fill-rule:nonzero;stroke:none"
         id="path262"
         inkscape:connector-curvature="0" />
    </g>
    <g
       id="g264"
       transform="matrix(0.35277777,0,0,-0.35277777,7.4683243,128.13578)">
      <path
         d="M 0,0 C 3.019,-5.662 4.53,-10.379 4.53,-21.701 L 3.893,-60.907 c 0,-1.525 -0.143,-3.326 -1.77,-4.6 0,0 -11.417,-7.195 -17.362,-6.487 -3.798,0.452 -11.606,3.68 -11.606,3.68 -2.406,0.424 -2.336,4.065 -2.265,3.538 l -0.895,52.321 c -0.142,3.538 12.831,12.267 12.831,12.267 l 8.682,2.642 c 0,0 6.44,1.391 8.492,-2.454"
         style="fill:#4d6b89;fill-opacity:1;fill-rule:nonzero;stroke:none"
         id="path266"
         inkscape:connector-curvature="0" />
    </g>
    <g
       id="g268"
       transform="matrix(0.35277777,0,0,-0.35277777,-0.1133112,153.70751)">
      <path
         d="m 0,0 c 0.195,-1.722 2.651,-2.591 4.219,-2.41 0.547,0.061 1.243,-3.132 2.183,-4.249 0.991,-1.169 2.212,-0.26 2.382,0.14 C 8.915,-6.206 6.938,-1.65 6.482,-0.486 4.963,3.399 3.331,3.359 1.763,3.181 0.195,3.003 -0.195,1.723 0,0"
         style="fill:#ffe8d9;fill-opacity:1;fill-rule:nonzero;stroke:none"
         id="path270"
         inkscape:connector-curvature="0" />
    </g>
    <g
       id="g272"
       transform="matrix(0.35277777,0,0,-0.35277777,-0.0374816,153.24622)">
      <path
         d="m 0,0 c -1.772,-0.131 -5.418,3.036 -5.418,3.036 0,0 -0.104,0.432 -0.279,1.188 -1,4.268 -4.726,18.913 -5.246,24.335 -0.57,5.956 0.305,21.787 0.305,21.787 0,0 -0.296,11.392 6.259,11.885 5.462,0.41 6.776,-4.557 7.134,-9.341 C 3.038,49.127 1.714,28.273 1.714,28.273 L 4.425,4.856 C 4.425,4.856 3.46,0.254 0,0"
         style="fill:#688caa;fill-opacity:1;fill-rule:nonzero;stroke:none"
         id="path274"
         inkscape:connector-curvature="0" />
    </g>
    <g
       id="g276"
       transform="matrix(0.35277777,0,0,-0.35277777,-0.925291,152.76612)">
      <path
         d="m 0,0 4.522,0.565 2.32,-5.163 0.097,-0.879 0.108,-7.09 c 0,0 0.326,-3.402 -3.279,-3.853 -2.355,-0.295 -0.255,-0.035 -0.255,-0.035 -3.226,-0.402 -3.913,3.035 -3.913,3.035 l -1.867,8.956 C -2.545,-2.553 -2.07,-0.259 0,0"
         style="fill:#ffe8d9;fill-opacity:1;fill-rule:nonzero;stroke:none"
         id="path278"
         inkscape:connector-curvature="0" />
    </g>
    <g
       id="g280"
       transform="matrix(0.35277777,0,0,-0.35277777,1.908132,152.54461)">
      <path
         d="m 0,0 c 0.06,-0.79 -1.574,-2.474 -3.888,-2.86 -2.999,-0.501 -4.467,-0.033 -4.467,-0.033 -1.433,0.385 -2.238,0.88 -2.424,1.857 0,0 -0.694,3.616 -0.858,4.762 -0.108,0.739 0.254,0.767 0.254,0.767 0,0 0.104,-0.58 0.244,-0.783 0.511,-0.743 1.877,-1.69 4.854,-1.57 4.68,0.191 5.025,2.985 5.025,2.985 0.683,0.051 0.926,-0.238 0.95,-1.023 z"
         style="fill:#e4eff4;fill-opacity:1;fill-rule:nonzero;stroke:none"
         id="path282"
         inkscape:connector-curvature="0" />
    </g>
    <g
       id="g284"
       transform="matrix(0.35277777,0,0,-0.35277777,6.1366233,131.66373)">
      <path
         d="m 0,0 c 1.674,2.418 1.141,9.415 -2.671,12.687 -1.188,-0.051 -2.046,-0.233 -2.046,-0.233 l -8.682,-2.641 c 0,0 -2.002,-1.35 -4.424,-3.198 1.197,-0.033 3.207,-1.638 7.254,-5.483 C -6.794,-2.454 -2.313,-3.343 0,0"
         style="fill:#bdccd1;fill-opacity:1;fill-rule:nonzero;stroke:none"
         id="path286"
         inkscape:connector-curvature="0" />
    </g>
    <g
       id="g288"
       transform="matrix(0.35277777,0,0,-0.35277777,5.4455582,129.76289)">
      <path
         d="m 0,0 c -4.844,-4.463 -7.436,0.982 -10.337,4.687 l -0.064,12.947 10.567,-3.49 z"
         style="fill:#e8c5ac;fill-opacity:1;fill-rule:nonzero;stroke:none"
         id="path290"
         inkscape:connector-curvature="0" />
    </g>
    <g
       id="g292"
       transform="matrix(0.35277777,0,0,-0.35277777,1.7902865,126.57015)">
      <path
         d="m 0,0 c 0,0 -0.073,-1.745 -0.013,-2.059 1.004,-5.28 8.015,-7.793 8.015,-7.793 0.81,-0.429 0.598,-1.099 0.472,-2.359 l -0.932,-3.654 c -0.342,-1.3 -0.757,-1.084 -1.237,-0.579 0,0 -4.845,4.228 -6.205,5.65 -3.196,3.338 -2.919,4.091 -1.663,8.272 C -0.807,0 0,0 0,0"
         style="fill:#ededed;fill-opacity:1;fill-rule:nonzero;stroke:none"
         id="path294"
         inkscape:connector-curvature="0" />
    </g>
    <g
       id="g296"
       transform="matrix(0.35277777,0,0,-0.35277777,4.9382726,129.86626)">
      <path
         d="m 0,0 c -0.548,-0.651 -0.449,-1.102 -0.095,-1.605 l 1.889,-2.736 c 0.982,-1.21 1.105,-0.229 1.132,0.754 L 3.185,3.492 C 2.78,7.958 1.592,8.176 1.592,8.176 1.592,8.176 1.528,7.15 1.604,6.228 1.732,4.696 1.511,1.792 0,0"
         style="fill:#ededed;fill-opacity:1;fill-rule:nonzero;stroke:none"
         id="path298"
         inkscape:connector-curvature="0" />
    </g>
    <g
       id="g300"
       transform="matrix(0.35277777,0,0,-0.35277777,3.0346749,120.98324)">
      <path
         d="m 0,0 c 2.638,0 2.932,-2.531 2.932,-2.531 v -5.296 c 0,0 -0.128,-1.152 -1.12,-1.353 -1.5,-0.307 -2.15,1.004 -2.823,2.446 -0.039,0.082 -0.893,2.21 -0.944,2.338 C -2.689,-2.592 -2.495,0 0,0"
         style="fill:#ffe8d9;fill-opacity:1;fill-rule:nonzero;stroke:none"
         id="path302"
         inkscape:connector-curvature="0" />
    </g>
    <g
       id="g304"
       transform="matrix(0.35277777,0,0,-0.35277777,5.0007672,118.28573)">
      <path
         d="m 0,0 v -0.003 l -10.186,-0.043 -0.164,-18.381 c 0.139,-1.259 0.088,-2.397 0.294,-3.466 0.228,-1.17 0.761,-2.26 2.19,-3.339 0,0 2.576,-2.052 4.982,-2.996 1.101,-0.432 2.293,-0.821 3.461,-0.635 0.898,0.141 3.068,1.415 3.068,1.415 1.415,0.849 2.569,1.323 3.343,3.502 0.345,0.97 1.292,3.968 1.389,5.032 l 1.431,10.903 0.679,9.812 z"
         style="fill:#ffe1cc;fill-opacity:1;fill-rule:nonzero;stroke:none"
         id="path306"
         inkscape:connector-curvature="0" />
    </g>
    <g
       id="g308"
       transform="matrix(0.35277777,0,0,-0.35277777,7.9738903,116.92665)">
      <path
         d="m 0,0 c 2.857,-1.604 4.211,-3.75 2.795,-8.184 -1.148,-3.595 -1.561,-4.29 -1.508,-4.343 0.046,-0.045 0.124,2.423 0.186,3.871 0.095,2.158 -2.123,1.448 -3.019,0.743 -1.32,-1.038 -4.447,-2.96 -4.529,-3.008 -1.168,-0.672 -1.404,-0.173 -1.486,0.673 -0.018,0.189 -0.024,1.309 -0.024,1.309 -0.153,-0.106 -2.859,-1.375 -3.585,-1.805 -2.077,-1.226 -2.435,-3.007 -2.34,-4.612 v -1.603 c 0,-0.836 0.139,-1.791 -0.679,-1.699 -0.871,0.097 -0.796,0.427 -1.039,1.321 0,0 -0.076,4.152 -3.472,2.547 -1.792,-0.844 -0.493,-4.861 -0.379,-5.095 l 0.633,-6.031 c -0.745,-0.223 -2.415,1.022 -3.375,3.106 -1.767,3.839 -2.874,6.594 -3.366,7.767 C -29.999,-3.531 -20.398,7.762 -7.66,3.893 -5.279,3.17 0,0 0,0"
         style="fill:#633a11;fill-opacity:1;fill-rule:nonzero;stroke:none"
         id="path310"
         inkscape:connector-curvature="0" />
    </g>
    <g
       id="g312"
       transform="matrix(0.35277777,0,0,-0.35277777,1.5449913,121.8612)">
      <path
         d="m 0,0 c 2.638,0 2.933,-2.531 2.933,-2.531 v -5.295 c 0,0 -0.129,-1.152 -1.12,-1.356 -1.501,-0.304 -2.151,1.007 -2.824,2.449 -0.04,0.082 -0.893,2.21 -0.944,2.336 C -2.689,-2.593 -2.495,0 0,0"
         style="fill:#ffe8d9;fill-opacity:1;fill-rule:nonzero;stroke:none"
         id="path314"
         inkscape:connector-curvature="0" />
    </g>
  </g>
</svg>
