<svg enable-background="new 0 0 80 240" viewBox="0 0 80 240" xmlns="http://www.w3.org/2000/svg"><path d="m18.8 107.9 6.5-13.8-4.3-8.6-2.8 10.8s-5.3 14.9-5.6 17.3.3 14.4 2.1 14.4 1-3 1-4-.7-4.1-.7-4.1.5 1.9 1.4 1.7c.8-.2 1.5-1.9.9-3.5s.9-4.3.9-4.3z" fill="#fbd7c7"/><path d="m66.9 231.4c26.9-13.2 1-17.9-14.1-26.3-20.8-11.6-27.5-15.7-43-6.1-17.1 10.6.2 17.9 16.1 25.3 18.1 8.4 25 14.9 41 7.1z" opacity=".2"/><path d="m19.9 194.7c-2.2 2.3-5.1 5.4-8.1 7s-5.8 3.8-5.3 6 3.9 4.6 10.1 3c3.7-.9 5.3-4.4 7.9-5.1s6.5-2.3 6.8-3.6c.3-1.4.3-5.2.3-5.2z" fill="#262626"/><path d="m54.9 213.3c-1 2.5-2.7 5.6-5.3 8.1s-4.7 6.3-3.2 8.1c1.5 1.9 8.1 2.5 11.4.6 3.2-1.9 10-7.7 10.5-8.8.5-1.2-.1-6.2-.1-6.2z" fill="#262626"/><path d="m31.2 201.9c.1-.4.1-.9.2-1.5-1.3 1.1-4.3 2.5-7.1 3.3-3.4.9-5.8 4.8-9.4 5.9-3.2.9-8-.5-8.4-3.3-.2.5-.2.9-.1 1.4.5 2.2 3.9 4.6 10.1 3 3.7-.9 5.3-4.4 7.9-5.1s6.5-2.3 6.8-3.7z" opacity=".5"/><path d="m68.2 221.4c.2-.4.2-1.2.2-2.2-1.1 1.5-3.6 3.6-5.4 5.4-2.2 2.1-5.5 5-9.6 5.5-3.2.4-6.3-.2-7.6-2.5-.1.8 0 1.5.5 2.1 1.5 1.9 8.1 2.5 11.4.6 3.3-2 10.1-7.7 10.5-8.9z" opacity=".5"/><path d="m19.9 101.7s-3 9.5-4 23.3 1.4 36.1 1.4 47 1.1 19.3.4 21.4-1.2 3.3 0 3.3 5.9 2.2 8.7 2.7c2.8.6 5.1 1 5.7-.9s3-23.8 2.7-31.2c-.3-7.5.2-12.8 2-19.3 1.8-6.6 5.3-26.9 5.3-26.9l.3-13.9z" fill="#339"/><path d="m19.9 101.7s-3 9.5-4 23.3 1.4 36.1 1.4 47 1.1 19.3.4 21.4-1.2 3.3 0 3.3 5.9 2.2 8.7 2.7c2.8.6 5.1 1 5.7-.9s3-23.8 2.7-31.2c-.3-7.5.2-12.8 2-19.3 1.8-6.6 5.3-26.9 5.3-26.9l.3-13.9z" opacity=".3"/><path d="m26.2 104.3c-.1 1.4.3 20 1.5 23.5 1.2 3.4 5.1 5.3 7.9 13.3 2.7 8 3.5 15.3 6.2 23.8 2.7 8.4 10.1 36.2 10.6 41.9s-.5 8.7.4 9.3c1.6 1 3.6 1.8 5.8 2.4 2.3.7 7.5 1.1 9.6-.1 2.2-1.3 2.6-2.3 1.8-7.3s-3.2-25.2-5.2-32.3-6.2-34.6-6.5-43.1.9-15.6-2.2-24.8c-2.5-7.4-5.8-9.5-5.8-9.5z" fill="#339"/><path d="m26.2 104.3c-.1 1.4.3 20 1.5 23.5 1.2 3.4 5.1 5.3 7.9 13.3 2.7 8 3.5 15.3 6.2 23.8 2.7 8.4 10.1 36.2 10.6 41.9s-.5 8.7.4 9.3c1.6 1 3.6 1.8 5.8 2.4 2.3.7 7.5 1.1 9.6-.1 2.2-1.3 2.6-2.3 1.8-7.3s-3.2-25.2-5.2-32.3-6.2-34.6-6.5-43.1.9-15.6-2.2-24.8c-2.5-7.4-5.8-9.5-5.8-9.5z" opacity=".15"/><path d="m33.9 46.4c-4.9-.1-11.4-.7-13.3 4.9s-5 14.7-4.3 20.5 2.4 12.1 2.6 15.3-.6 8.2.1 10.7.8 5.1 4.9 6.9c6.1 2.7 11.7 3.4 18.7 2.4 8.1-1.1 10.7-3.3 11.3-5.4.7-2.1 1.2-5.6 2-10 .4-2.2 1-4.8 1.4-6.9s10.5-11.7 10.5-11.7-1.6-14.1-5.5-16.9c-4.2-3.1-9.9-5.3-11.4-6s-8.5-3.6-17-3.8z" fill="#fff"/><path d="m32.4 58.3 2.3 6.4 6.4-4.3-6.8 6-2.1-7.8-1-.2-3.8 4.3v-3.8c0 .3.3 1.9.3 1.9l3.5-3.4z" opacity=".2"/><path d="m30 62.8-.6-3.6 1.5-1.6 1.5.7 1 2.7-1.9 2s-1 26.1-1.2 28.3-4.6 11.1-4.6 11.1-2.4-9-2.3-12.3c.3-2.7 6.6-27.3 6.6-27.3z" fill="#39c"/><path d="m31.5 58c1.6.7 4.4.3 7.4-2.3s5.9-7.2 5.9-7.2-1-1.1-1.3-4 4-6 2.4-14.3c-1.3-6.7-7.1-11.5-16.4-7.4s-8.5 19.1-6.5 25.7c1.9 6.6 7.3 4.3 7.3 4.3s-.4 4.5 1.2 5.2z" fill="#fbd7c7"/><path d="m22.7 30c-.1 1.2.9 2.5 3.9 3.2 3.8.9 7.9-2.1 11-.2 1.7 1.1 2.3 7.2 3.3 7.2.4-1.9 1.1-3.8 2.8-3.5 1.5.3 1.3 2.2 1.2 2.9.9.4 3.8-8 .2-13.9-3.5-6-11.6-6.1-16.4-3.4s-5.9 6.5-6 7.7z" fill="#825012"/><path d="m21.7 30.6s-5.5 4.7.2 7.5 17.8-1.6 17.8-1.6l7.5-1.6.5-1.1s3.7.4 4.5-1.4c.9-1.8-5.4-9.7-13.2-12.1s-17.6-5.2-19-1.9c-1.4 3.2 2.8 8 2.8 8z" fill="#339"/><path d="m47.7 33.8-.5.6s-10.7 1.5-18-1c-6.6-2.3-7.1-4.3-7.1-4.3l.3-1.9s1.6 2.9 8.9 5.2c6.6 2 16.4 1.4 16.4 1.4z" fill="#f90"/><path d="m19.5 99.7-.1 3.7s1.1 6 13.9 7.1c12.8 1.2 20.5-4.8 20.5-4.8l-.7-3.1s-11.1 5.3-21.7 3.7c-10.6-1.7-11.9-6.6-11.9-6.6z" fill="#262626"/><path d="m33.3 72.9 16.2 5.3-1.2 3.6-9.6.1-6.4-5.2z" opacity=".15"/><path d="m23.8 70.4-.7 2.7-5.3.9-2-4.3.8-3.8z" opacity=".15"/><path d="m52.8 129.4c-.2-.9-.9-1.2-.9-2.7.1-1.4-.1-2.7.6-3.5s1.6-.7 2.6-2.1 3-7.2 4.5-13.7c1.4-6.5 3.5-11.3 3.7-11.7.3-.5-2-3.8-4.4-8.7-2.1-4.4-3.5-8.3-5.3-11 2.4.2 7.3.4 9.5-.2 1.7-.5 3.4-1.5 4.5-2.2 1.1 7.1 3.8 15.2 4.3 16.8.5 1.8 1.7 4.9-.3 10.5s-9 19-8.9 21.3.6 7.8.5 9.6-1.8 1.7-2.6 2.5-2.6.7-2.9 1.7-1.8 1-2.5 1.6-2.2 1.2-2.9.7-.3-1.8.2-2.6c.3-.9.5-5.5.3-6.3z" fill="#fbd7c7"/><path d="m55.5 57.1s1.1-1.3 2.1-1.8c.9-.4 1.8-.4 1.8-.4s-7.5-4.2-8.8-3.3c-1.2.8-1.1 2.2.6 3.1s4.3 2.4 4.3 2.4z" fill="#39c"/></svg>