<svg enable-background="new 0 0 96 96" viewBox="0 0 96 96" xmlns="http://www.w3.org/2000/svg"><path d="m0 24v48l48 24 48-24v-48z" fill="#e5e5e5"/><path d="m48 0 48 24-48 24-48-24z" fill="#2d3134"/><path d="m48 0 48 24-48 24-48-24z" fill="#2d3134"/><path d="m96 25-48 24v22l48-24z" fill="#39c"/><path d="m53 93.5-4 2v-21l4-2z" fill="#39c"/><path d="m53 76.5-4 2v-4l4-2z" fill="#262626" opacity=".15"/><path d="m53 74.5-4 2v-2l4-2z" fill="#262626" opacity=".15"/><path d="m53 73.5-4 2v-1l4-2z" fill="#262626" opacity=".15"/><path d="m53 79.5-4 2v-1l4-2z" fill="#262626" opacity=".15"/><path d="m53 78.5-4 2v-1l4-2z" fill="#fff" opacity=".7"/><path d="m59 90.5-4 2v-21l4-2z" fill="#39c"/><path d="m59 73.5-4 2v-4l4-2z" fill="#262626" opacity=".15"/><path d="m59 71.5-4 2v-2l4-2z" fill="#262626" opacity=".15"/><path d="m59 70.5-4 2v-1l4-2z" fill="#262626" opacity=".15"/><path d="m59 76.5-4 2v-1l4-2z" fill="#262626" opacity=".15"/><path d="m59 75.5-4 2v-1l4-2z" fill="#fff" opacity=".7"/><path d="m65 87.5-4 2v-21l4-2z" fill="#39c"/><path d="m65 87.5-3 1.5v-21l3-1.5z" fill="#fff" opacity=".2"/><path d="m65 70.5-4 2v-4l4-2z" fill="#262626" opacity=".15"/><path d="m65 68.5-4 2v-2l4-2z" fill="#262626" opacity=".15"/><path d="m65 67.5-4 2v-1l4-2z" fill="#262626" opacity=".15"/><path d="m65 73.5-4 2v-1l4-2z" fill="#262626" opacity=".15"/><path d="m65 72.5-4 2v-1l4-2z" fill="#fff" opacity=".7"/><path d="m71 84.5-4 2v-21l4-2z" fill="#39c"/><path d="m71 84.5-4 2v-21l4-2z" fill="#fff" opacity=".3"/><path d="m71 67.5-4 2v-4l4-2z" fill="#262626" opacity=".15"/><path d="m71 65.5-4 2v-2l4-2z" fill="#262626" opacity=".15"/><path d="m71 64.5-4 2v-1l4-2z" fill="#262626" opacity=".15"/><path d="m71 70.5-4 2v-1l4-2z" fill="#262626" opacity=".15"/><path d="m71 69.5-4 2v-1l4-2z" fill="#fff" opacity=".7"/><path d="m77 81.5-4 2v-21l4-2z" fill="#39c"/><path d="m77 64.5-4 2v-4l4-2z" fill="#262626" opacity=".15"/><path d="m77 62.5-4 2v-2l4-2z" fill="#262626" opacity=".15"/><path d="m77 61.5-4 2v-1l4-2z" fill="#262626" opacity=".15"/><path d="m77 67.5-4 2v-1l4-2z" fill="#262626" opacity=".15"/><path d="m77 66.5-4 2v-1l4-2z" fill="#fff" opacity=".7"/><path d="m83 78.5-4 2v-21l4-2z" fill="#39c"/><path d="m83 61.5-4 2v-4l4-2z" fill="#262626" opacity=".15"/><path d="m83 59.5-4 2v-2l4-2z" fill="#262626" opacity=".15"/><path d="m83 58.5-4 2v-1l4-2z" fill="#262626" opacity=".15"/><path d="m83 64.5-4 2v-1l4-2z" fill="#262626" opacity=".15"/><path d="m83 63.5-4 2v-1l4-2z" fill="#fff" opacity=".7"/><path d="m89 75.5-4 2v-21l4-2z" fill="#39c"/><path d="m89 75.5-3 1.5v-21l3-1.5z" fill="#fff" opacity=".2"/><path d="m89 58.5-4 2v-4l4-2z" fill="#262626" opacity=".15"/><path d="m89 56.5-4 2v-2l4-2z" fill="#262626" opacity=".15"/><path d="m89 55.5-4 2v-1l4-2z" fill="#262626" opacity=".15"/><path d="m89 61.5-4 2v-1l4-2z" fill="#262626" opacity=".15"/><path d="m89 60.5-4 2v-1l4-2z" fill="#fff" opacity=".7"/><path d="m95 72.5-4 2v-21l4-2z" fill="#39c"/><path d="m95 55.5-4 2v-4l4-2z" fill="#262626" opacity=".15"/><path d="m95 53.5-4 2v-2l4-2z" fill="#262626" opacity=".15"/><path d="m95 52.5-4 2v-1l4-2z" fill="#262626" opacity=".15"/><path d="m95 58.5-4 2v-1l4-2z" fill="#262626" opacity=".15"/><path d="m95 57.5-4 2v-1l4-2z" fill="#fff" opacity=".7"/><path d="m94 48-3 1.5v-22l3-1.5z" fill="#fff" opacity=".2"/><path d="m76 57-3 1.5v-22l3-1.5z" fill="#fff" opacity=".2"/><path d="m71 59.5-3 1.5v-22l3-1.5z" fill="#fff" opacity=".1"/><path d="m96 28-48 24v-3l48-24z" fill="#262626" opacity=".15"/><path d="m96 26-48 24v-1l48-24z" fill="#262626" opacity=".15"/><g fill="#fff"><path d="m49 70.5-1 .5v-22l1-.5z" opacity=".7"/><path d="m61 64.5-2 1v-22l2-1z" opacity=".7"/><path d="m67 61.5-2 1v-22l2-1z" opacity=".7"/><path d="m55 67.5-2 1v-22l2-1z" opacity=".7"/><path d="m79 55.5-2 1v-22l2-1z" opacity=".7"/><path d="m85 52.5-2 1v-22l2-1z" opacity=".7"/><path d="m91 49.5-2 1v-22l2-1z" opacity=".7"/><path d="m73 58.5-2 1v-22l2-1z" opacity=".7"/><path d="m96 47-1 .5v-22l1-.5z" opacity=".7"/></g><path d="m48 49-48-24v22l48 24z" fill="#39c"/><path d="m5 74.5-4-2v-21l4 2z" fill="#39c"/><path d="m5 57.5-4-2v-4l4 2z" fill="#262626" opacity=".15"/><path d="m5 55.5-4-2v-2l4 2z" fill="#262626" opacity=".15"/><path d="m5 54.5-4-2v-1l4 2z" fill="#262626" opacity=".15"/><path d="m5 60.5-4-2v-1l4 2z" fill="#262626" opacity=".15"/><path d="m5 59.5-4-2v-1l4 2z" fill="#fff" opacity=".7"/><path d="m11 77.5-4-2v-21l4 2z" fill="#39c"/><path d="m11 60.5-4-2v-4l4 2z" fill="#262626" opacity=".15"/><path d="m11 58.5-4-2v-2l4 2z" fill="#262626" opacity=".15"/><path d="m11 57.5-4-2v-1l4 2z" fill="#262626" opacity=".15"/><path d="m11 63.5-4-2v-1l4 2z" fill="#262626" opacity=".15"/><path d="m11 62.5-4-2v-1l4 2z" fill="#fff" opacity=".7"/><path d="m17 80.5-4-2v-21l4 2z" fill="#39c"/><path d="m17 80.5-3-1.5v-21l3 1.5z" fill="#fff" opacity=".2"/><path d="m17 63.5-4-2v-4l4 2z" fill="#262626" opacity=".15"/><path d="m17 61.5-4-2v-2l4 2z" fill="#262626" opacity=".15"/><path d="m17 60.5-4-2v-1l4 2z" fill="#262626" opacity=".15"/><path d="m17 66.5-4-2v-1l4 2z" fill="#262626" opacity=".15"/><path d="m17 65.5-4-2v-1l4 2z" fill="#fff" opacity=".7"/><path d="m23 83.5-4-2v-21l4 2z" fill="#39c"/><path d="m23 83.5-4-2v-21l4 2z" fill="#fff" opacity=".3"/><path d="m23 66.5-4-2v-4l4 2z" fill="#262626" opacity=".15"/><path d="m23 64.5-4-2v-2l4 2z" fill="#262626" opacity=".15"/><path d="m23 63.5-4-2v-1l4 2z" fill="#262626" opacity=".15"/><path d="m23 69.5-4-2v-1l4 2z" fill="#262626" opacity=".15"/><path d="m23 68.5-4-2v-1l4 2z" fill="#fff" opacity=".7"/><path d="m29 86.5-4-2v-21l4 2z" fill="#39c"/><path d="m29 69.5-4-2v-4l4 2z" fill="#262626" opacity=".15"/><path d="m29 67.5-4-2v-2l4 2z" fill="#262626" opacity=".15"/><path d="m29 66.5-4-2v-1l4 2z" fill="#262626" opacity=".15"/><path d="m29 72.5-4-2v-1l4 2z" fill="#262626" opacity=".15"/><path d="m29 71.5-4-2v-1l4 2z" fill="#fff" opacity=".7"/><path d="m35 89.5-4-2v-21l4 2z" fill="#39c"/><path d="m35 72.5-4-2v-4l4 2z" fill="#262626" opacity=".15"/><path d="m35 70.5-4-2v-2l4 2z" fill="#262626" opacity=".15"/><path d="m35 69.5-4-2v-1l4 2z" fill="#262626" opacity=".15"/><path d="m35 75.5-4-2v-1l4 2z" fill="#262626" opacity=".15"/><path d="m35 74.5-4-2v-1l4 2z" fill="#fff" opacity=".7"/><path d="m41 92.5-4-2v-21l4 2z" fill="#39c"/><path d="m41 92.5-3-1.5v-21l3 1.5z" fill="#fff" opacity=".2"/><path d="m41 75.5-4-2v-4l4 2z" fill="#262626" opacity=".15"/><path d="m41 73.5-4-2v-2l4 2z" fill="#262626" opacity=".15"/><path d="m41 72.5-4-2v-1l4 2z" fill="#262626" opacity=".15"/><path d="m41 78.5-4-2v-1l4 2z" fill="#262626" opacity=".15"/><path d="m41 77.5-4-2v-1l4 2z" fill="#fff" opacity=".7"/><path d="m47 95.5-4-2v-21l4 2z" fill="#39c"/><path d="m47 78.5-4-2v-4l4 2z" fill="#262626" opacity=".15"/><path d="m47 76.5-4-2v-2l4 2z" fill="#262626" opacity=".15"/><path d="m47 75.5-4-2v-1l4 2z" fill="#262626" opacity=".15"/><path d="m47 81.5-4-2v-1l4 2z" fill="#262626" opacity=".15"/><path d="m47 80.5-4-2v-1l4 2z" fill="#fff" opacity=".7"/><path d="m46 70-3-1.5v-22l3 1.5z" fill="#fff" opacity=".2"/><path d="m28 61-3-1.5v-22l3 1.5z" fill="#fff" opacity=".2"/><path d="m23 58.5-3-1.5v-22l3 1.5z" fill="#fff" opacity=".1"/><path d="m48 52-48-24v-3l48 24z" fill="#262626" opacity=".15"/><path d="m48 50-48-24v-1l48 24z" fill="#262626" opacity=".15"/><path d="m1 47.5-1-.5v-22l1 .5z" fill="#fff" opacity=".7"/><path d="m13 53.5-2-1v-22l2 1z" fill="#fff" opacity=".7"/><path d="m19 56.5-2-1v-22l2 1z" fill="#fff" opacity=".7"/><path d="m7 50.5-2-1v-22l2 1z" fill="#fff" opacity=".7"/><path d="m31 62.5-2-1v-22l2 1z" fill="#fff" opacity=".7"/><path d="m37 65.5-2-1v-22l2 1z" fill="#fff" opacity=".7"/><path d="m43 68.5-2-1v-22l2 1z" fill="#fff" opacity=".7"/><path d="m25 59.5-2-1v-22l2 1z" fill="#fff" opacity=".7"/><path d="m48 71-1-.5v-22l1 .5z" fill="#fff" opacity=".7"/><path d="m48 96-48-24v-48l48 24z" opacity=".11"/><path d="m48 96 48-24v-48l-48 24z" opacity=".29"/></svg>