<svg enable-background="new 0 0 80 240" viewBox="0 0 80 240" xmlns="http://www.w3.org/2000/svg"><path d="m13.2 225.3c-12.3-8.2.2-17 17.1-21.3 7.4-1.9 20.2-11.6 39.8-1.1 15.8 8.5-7.5 12.3-16.4 16.8-10.7 5.4-19 19.8-40.5 5.6z" opacity=".2"/><path d="m47.6 193.8 10.4 1.2s.2 1.8 2.1 3.8 10.1 6.4 11.7 7.6c2.8 2.1.9 5-1.5 5.3-2.6.4-6.1-.4-10.5-2-3.4-1.2-7.4-2.3-11.3-3.6-3.3-1.1-2.5-5.9-2-8 .6-2 1.1-4.3 1.1-4.3z" fill="#2d3134"/><path d="m70.3 210.2c-2.7.4-6.5-.5-11.2-2.2-3.7-1.3-7.9-2.5-12-3.9-.3-.1-.5-.2-.7-.3.3 1 1 1.9 2.2 2.3 3.8 1.3 7.8 2.4 11.3 3.6 4.4 1.6 7.9 2.4 10.5 2 1.8-.3 3.2-1.9 2.8-3.5-.6 1.1-1.7 1.8-2.9 2z" opacity=".4"/><path d="m57.8 94.9s6.1 23.2 5.7 34.4-2.4 23.6-2.9 33-.4 30.7.1 34.9c.6 4.8-1.8 5.1-4.8 5.2-3.1.1-9.1-.9-10.1-1.9s-.9-8.7-.9-14.3-.5-14-.1-21.9c.3-6.8-2.2-16.2-3.6-21.4s-7.4-22.6-7.8-27.4-.1-15.2-.1-15.2z" fill="#06547a"/><path d="m57.8 94.9s6.1 23.2 5.7 34.4-2.4 23.6-2.9 33-.4 30.7.1 34.9c.6 4.8-1.8 5.1-4.8 5.2-3.1.1-9.1-.9-10.1-1.9s-.9-8.7-.9-14.3-.5-14-.1-21.9c.3-6.8-2.2-16.2-3.6-21.4s-7.4-22.6-7.8-27.4-.1-15.2-.1-15.2z" opacity=".2"/><path d="m62.1 115 3.6-3.5s1.9 4.8 2.2 7.2-.3 14.4-2.1 14.4-1-3-1-4 .7-4.1.7-4.1-.5 1.9-1.4 1.7-1.5-1.9-.9-3.5-.9-4.3-.9-4.3z" fill="#fbd7c7"/><path d="m61 115.4s4.9-2.5 5-3.6-7-18.9-7-18.9z" fill="#28896d"/><path d="m11.4 209.6c.2.1 10.6 2.2 10.6 2.2s2.7 6 5.3 8.1c2.1 1.8 8 5.7 7.7 7.9s-6.3 4-11.9 1.1c-2.6-1.3-12.9-6.6-13.4-10.1-.6-3.9 1.7-9.2 1.7-9.2z" fill="#2d3134"/><path d="m23.2 227.2c-2.6-1.3-12.9-6.6-13.4-10.1 0-.2 0-.3-.1-.5-.1.8-.1 1.6.1 2.3.5 3.5 10.8 8.8 13.4 10.1 5.6 2.9 11.6 1.1 11.9-1.1 0-.3-.1-.7-.3-1.2-1.3 1.9-6.6 3.1-11.6.5z" opacity=".4"/><path d="m50.5 100.2c-.3 6.5-5.2 33.2-8.9 45.3s-6.5 19.8-8.3 26.8-5.9 23.7-7 32c-.4 3.2-1 12-1.7 12.9-3.3 4.1-11.3 2-12.9.6-1.7-1.6-2.6-2.4-2.2-5.5s1.7-21.3 2.7-27.8c1.7-10.7 5-15 6.1-20.1s-1.1-24.1 2.3-42 7.5-21.7 7.5-21.7z" fill="#06547a"/><path d="m30.8 47.8 10.4-2.9 7 1.7 3.2 61.9z" fill="#28896d"/><path d="m31.1 47.8s-10.4 3.3-14.2 6.8c-6.1 5.7.1 20 3.9 31.6s-2.2 39.5-1.7 40.4c.8 1.6 24.1 5.1 29.2 1.7 2.4-1.6 3.1-27.3 2.1-35.9s-4.6-17.1-6.7-22.2c-1.9-4.5-12.6-22.4-12.6-22.4z" fill="#fc0"/><path d="m61.7 70.9c.3 6.7-.6 25.2.6 34.9.5 3.9 3.3 19.4 2.6 20.2-1 1.1-10 3-11.5-.2-1.2-2.5-4.8-33-4.9-38.8-.1-5.7-1.6-39.8-1.6-39.8 2.8.7 9.7 2.2 11.8 6.5s2.7 10.6 3 17.2z" fill="#fc0"/><path d="m51.4 115.1s6.2-.4 8.5-1 3.7-1.1 3.7-1.1l-.9-5.8-11.8 1.9z" fill="#fff"/><path d="m50.7 115.1s-4.3.6-11.6.3-18.2-2.2-18.2-2.2l.7-6.3s12.3 2.3 17.7 2.3 11.6 0 11.6 0z" fill="#fff"/><path d="m56.6 39.7c-.9 2.9-3.6 3.4-6 1s-3.7-6.6-2.9-9.5c.9-2.9 3.6-3.4 6-1s3.7 6.6 2.9 9.5z" fill="#2d3134"/><path d="m21.1 124.8s-.2 7.9 0 10.5c.2 2.7 1.2 6.3 2.1 7.1 1.6 1.6 4.7 2.9 6.8 2.4 2.1-.4 2.2-2.5 2.2-3.3s-.3-7.9-.3-7.9 1.1.1 1.3 1.1c.3 1-.7 2.3.3 3s1.8-1.6 2-2.9c.2-1.2-.4-3.4-1-4.1s-1.2-1.7-2.4-2.8-3.8-4.1-3.8-4.1z" fill="#fbd7c7"/><path d="m22.3 55.5c4.7 1.1 7.7 7 6.1 13.9s-3.7 13.1-4.8 15.9-2.2 8-2.2 8 1.6 4.7 3.4 11.3c1.8 6.7 5.5 19.2 5 20.3s-8.2 2.6-9.3 2.5-3.8-10.1-5.5-15.7-5.3-14.8-5-18.5c.3-3.6 2.8-22.2 3.1-25.9.6-6.4 3.8-13.1 9.2-11.8z" fill="#28896d"/><path d="m31.5 47.7s2.6-1.1 2.7-2.9c.2-1.9-5.6-9.2-.8-16s16.9-5.5 19 1.2 2.3 19.6.7 21c-2 1.7-5.6 1-5.6 1s-1.2 3.1-.9 4.9c.4 2.5-1.9 2.7-3.2 2.7-1.8-.2-9.5-5-11.9-11.9z" fill="#fbd7c7"/><path d="m33.5 43 1.5 1s-3.9-5.4-1.3-6.5 3.9 2.2 3.9 2.2 1.9-3.4 5-3.7 11.4-2.2 11.1-4.8c-.1-1-3.4-10-13.2-8.3-9.9 1.7-10.2 9.9-9.6 13.2.5 3.3 2.6 6.9 2.6 6.9z" fill="#762c07"/><g fill="#2d3134"><path d="m40.9 42.9c0 3-2.5 4.3-5.5 2.7s-5.4-5.1-5.4-8.1 2.5-4.3 5.5-2.7 5.4 5.1 5.4 8.1z"/><path d="m38.2 44.1c0 2.5-2 3.4-4.4 2.2s-4.4-4.2-4.4-6.7 2-3.4 4.4-2.2c2.4 1.3 4.4 4.2 4.4 6.7z"/><path d="m40.1 21.8c7.1-1.2 10.8 3.1 12.4 6-1.9-2.5-5.2-5-10.5-4-9.2 1.7-9.6 9.5-9.1 12.9-1.6 1.6-1.8 1.5-2.3-1.7-.7-3.3-.4-11.5 9.5-13.2z"/></g></svg>