<svg enable-background="new 0 0 160 240" viewBox="0 0 160 240" xmlns="http://www.w3.org/2000/svg"><path d="m76.3 37.3c-.9 2.9-3.6 3.4-6 1-2.5-2.3-3.7-6.6-2.9-9.5.9-2.9 3.6-3.4 6-1 2.5 2.4 3.8 6.6 2.9 9.5z" fill="#2d3134"/><path d="m72.3 96.9c2 5.8 4.6 14.5 5.4 16.5s2.2 4.5 1.6 7.5-1.7 5.1-3.8 5.9-4.3.3-4.3.3z" fill="#fbd7c7"/><path d="m70.8 116.6 7.1-3.1-6.5-21.2z" fill="#28896d"/><path d="m12.5 189.8c16.3-9.1 31.3 2.4 48.4 12.8 17.1 10.5 49.1 20.4 36 27.4s-37.9-6-51.4-13.1c-13.4-7.1-47.6-19-33-27.1z" opacity=".2"/><path d="m64.7 214.6c.1 2.8-1.1 5.3 3.5 6.6 3.6 1 7 1.9 11.9 5.4 2 1.4 4.9 3.1 8 3.5 1.5.2 3.7-.4 4.8-.9 3.1-1.2 2.3-3.7 2.2-4.7-.1-1.7-1.8-2.6-5.1-4-3.3-1.5-5.8-2.6-7.8-5.2-2-2.7-6.1-5.3-6.1-5.3z" fill="#262626"/><path d="m65.3 216.1s7.9 2.2 10.3 3.7c2.8 1.8 9.9 7.5 13.5 7.6 3.1.1 6-1.4 5.6-3.2s-2.8-2.5-5.9-4c-3-1.5-5.8-3.7-7.1-6.1s-16.4 2-16.4 2z" fill="#2d3134"/><path d="m16.3 193s6.1 10.2 8.2 11.8 11.1 4.6 14.9 3.7 3.7-.8 3.9-2.7c.2-2 .6-2.2-2.6-3.7-3.1-1.6-6.9-5.3-7.5-7.4s-7.2-6.4-10.2-6.3-6.7 4.6-6.7 4.6z" fill="#262626"/><path d="m19.2 193.2c2.9 2.3 5.6 8.2 7.5 9.1s8.9 3.4 13 2.7c3.6-.6 3.9-.8 3-1.7-.9-1-5-2.3-6.5-4.6s-5.3-7.9-5.3-7.9z" fill="#2d3134"/><path d="m70.8 115.2c1.2 3.7 5.7 16.4 7.9 23.6s6.1 24 6.4 26.6c.3 2.2-.9 7.8-1.6 11.3s-2.5 22.5-2.8 26.3c-.2 3-.8 4.6.7 6.3 1.4 1.7 2.6 4.6 2 5.9-.7 1.3-6.2 3.4-10.5 3.7s-8.8-.1-9.3-1.2c-.5-1-.8-4.7-.4-8.8s3-37.2 2.1-40.9-6.9-22.7-8.7-27.1c-1.2-2.9-2.5-5.4-2.5-5.4l2.9-17.4z" fill="#06547a"/><path d="m70.8 115.2c1.2 3.7 5.7 16.4 7.9 23.6s6.1 24 6.4 26.6c.3 2.2-.9 7.8-1.6 11.3s-2.5 22.5-2.8 26.3c-.2 3-.8 4.6.7 6.3 1.4 1.7 2.6 4.6 2 5.9-.7 1.3-6.2 3.4-10.5 3.7s-8.8-.1-9.3-1.2c-.5-1-.8-4.7-.4-8.8s3-37.2 2.1-40.9-6.9-22.7-8.7-27.1c-1.2-2.9-2.5-5.4-2.5-5.4l2.9-17.4z" opacity=".2"/><path d="m59.3 115.3s-6.8 31.9-8.1 36.1c-3.2 10.9-4.8 14.5-7.3 17.7-2.2 2.7-8.2 13.8-9.5 15.7-1.2 1.6-2.1 3.4-1.4 5.1s1.3 5.2 1.3 5.2-6 2.7-11.8 1.7-8.2-4.5-8.2-6.9 2.1-5.8 2.1-5.8 1.3-8.9 6.6-16.9c1.5-2.3 4.6-7 5.5-9.8 1.6-5.1 1.5-18.3 1.8-24.7.2-6.1-.1-12.6 3-21.7 2.4-6.9 6-6.5 6-6.5z" fill="#06547a"/><path d="m57.8 117.3s-11.5-68.2-9-69.5c2.6-1.3 11.4-3 15.4-3.2s10.6 4.1 10.6 4.1l-6.7 68.6z" fill="#28896d"/><path d="m48.9 47.8s-6.9 4-9.6 8c-2.8 4.1-5.2 10.6-5.2 18.8s-3.5 40.7-3.8 45 8.9 5.9 14.4 7.5 13.4 2 15.4 1 5.1-22.3 5.9-30.8c.5-4.6.7-17.7-1.1-24.3-2.9-11-16-25.2-16-25.2z" fill="#fc0"/><path d="m70.2 46.6s-1 19.1-2.6 27.2-2.5 48.8-1.8 51.4 2.2 1.8 4.5 1.6c3.5-.3 4.1-1.6 4-3.2-.5-7.9-.9-25.5-.9-28.9s1.7-13.9 2.8-17c.6-1.5 2.2-5.2 3-9.3.9-4.7.5-12.2-.3-15.3-.7-2.4-2.9-5.7-8.7-6.5z" fill="#fc0"/><path d="m51.4 47.3s2.7-1.1 2.9-3.1-5.9-9.7-.8-16.8 17.8-5.8 20 1.3 2.4 20.7.7 22.1c-2.1 1.8-5.9 1.1-5.9 1.1s-1.3 3.3-1 5.1c.4 2.7-2 2.9-3.3 2.8-1.9-.2-10.8-3.5-12.6-12.5z" fill="#fbd7c7"/><path d="m53.5 42.4 1.6 1s-4.2-5.6-1.4-6.8 4.1 2.3 4.1 2.3 2.1-3.6 5.3-3.9 12-2.3 11.7-5.1c-.1-1.1-3.6-10.5-14-8.7s-10.6 10.4-10 13.9c.5 3.5 2.7 7.3 2.7 7.3z" fill="#762c07"/><path d="m65.4 112.1v5.4l8.6-.9-.2-5.3z" fill="#fff"/><path d="m64.2 112.2-1 5.4s-5.8.8-13.7-.6-18.5-6.2-18.5-6.2l.6-6.4s8.6 4.8 18.4 6.6 14.2 1.2 14.2 1.2z" fill="#fff"/><path d="m43.2 130c.1 2.2-.1 2.4 1.3 3.8s2.9 1.7 4.4 2.2c1.6.5 2.7-.6 2.7-.6s1 .7 2 .6 1.3-.9 1.3-.9 2.1 1.4 2.9.8-1.3-1.7-2.2-2.7-1.5-2.7-1.5-2.7.8-3-.4-5.3c-1.1-2.3-1.5-2.9-3.3-4.2-1.5-1-1.8-.5-2.6-1.9l-6.3 3.5c.1.3.2.6.3.8.8 2.2 1.3 4.5 1.4 6.6z" fill="#fbd7c7"/><path d="m47.7 118c-1.4-3.3-2.5-10-3.9-14.2-1.5-4.3-3.5-8.1-3.5-9.2.1-1.1 3.6-6.9 5-12.8s1.5-5.6 2.3-9.4 3.8-14.4-5.4-15.6c-4.1-.5-6.2 4.4-7 7.5s-1.7 11.3-2 12.6-2.3 15.3-2.6 16.4c-.5 1.7-.2 3.9.9 7 1.5 4.3 8.8 18.5 10.4 22.8l6.6-3.7c-.4-.4-.6-.8-.8-1.4z" fill="#28896d"/><g fill="#2d3134"><path d="m60.7 40.5c0 3-2.5 4.3-5.5 2.7-3-1.5-5.5-5.2-5.5-8.2s2.5-4.3 5.5-2.7c3 1.5 5.5 5.2 5.5 8.2z"/><path d="m57.9 41.6c0 2.5-2 3.4-4.4 2.2-2.5-1.2-4.5-4.1-4.5-6.6s2-3.4 4.4-2.2c2.5 1.2 4.5 4.2 4.5 6.6z"/><path d="m59.8 19.4c7.1-1.2 10.8 3.1 12.4 6-1.9-2.5-5.2-5-10.5-4-9.2 1.7-9.6 9.5-9.1 12.9-1.6 1.6-1.8 1.5-2.3-1.7-.6-3.4-.3-11.5 9.5-13.2z"/></g></svg>