<svg enable-background="new 0 0 64 64" viewBox="0 0 64 64" xmlns="http://www.w3.org/2000/svg"><path d="m0 35 16-8 48 24-16 8z" opacity=".3"/><path d="m6 25-6 3v6l8 4 6-3v-6z" fill="#f90"/><path d="m14 29v6l-6 3v-6z" opacity=".29"/><path d="m0 28v6l8 4v-6z" opacity=".11"/><path d="m12.4 34.2c-.7-.4-1.4-.4-1.9-.2l-1.4.7c-.5.2-.9.8-.9 1.6 0 1.5 1.3 3.4 2.8 4.2.8.4 1.5.4 2 .2 0 0 1.4-.7 1.5-.8.5-.3.7-.8.7-1.5 0-1.6-1.2-3.4-2.8-4.2z" fill="#2d3134"/><path d="m13 40.6c.2-.1 1.4-.7 1.5-.7.5-.3.7-.8.7-1.5 0-.6-.2-1.3-.5-1.9l-1.4.7c.3.6.5 1.3.5 1.9 0 .7-.3 1.3-.8 1.5z" opacity=".29"/><path d="m13.1 38.7c0 1.2-.9 1.6-2.1 1s-2.1-2-2.1-3.2.9-1.6 2.1-1 2.1 2.1 2.1 3.2z" fill="#999"/><path d="m11.2 39.7c-1.2-.6-2.1-2-2.1-3.2 0-.6.2-1 .6-1.2-.5.1-.8.6-.8 1.2 0 1.2.9 2.6 2.1 3.2.6.3 1.1.3 1.5.1-.3.2-.8.1-1.3-.1z" fill="#808285"/><path d="m12.1 38c0 .5-.4.7-.9.4s-.9-.8-.9-1.3.4-.7.9-.4.9.8.9 1.3z" fill="#2d3134"/><path d="m12.1 38c0 .5-.4.7-.9.4s-.9-.8-.9-1.3.4-.7.9-.4.9.8.9 1.3z" opacity=".39"/><path d="m11.9 38.1c0 .5-.4.7-.9.4-.5-.2-.9-.8-.9-1.3s.4-.7.9-.4c.5.2.9.8.9 1.3z" fill="#2d3134"/><path d="m13.8 39.1c0 1.5-1.3 2.2-2.8 1.4s-2.8-2.7-2.8-4.2 1.3-2.2 2.8-1.4 2.8 2.6 2.8 4.2z" opacity=".11"/><path d="m16 18-16 8v3l14 7v5l2 1 16-8v-8z" fill="#f90"/><path d="m0 26v3l14 7v5l2 1v-8z" opacity=".11"/><path d="m32 26v8l-16 8v-8z" opacity=".29"/><path d="m2 16h4l12 16-2 1-2-1z" fill="#f90"/><path d="m2 16 2 1 12 16-2-1z" opacity=".11"/><path d="m6 16-2 1 12 16 2-1z" opacity=".29"/><path d="m16 21 2 1-2 1-12 4-2-1 2-1z" fill="#f90"/><path d="m14 22 2 1-12 4-2-1z" opacity=".11"/><path d="m20 8-2 1v2l10 5 2-1v-2z" fill="#f90"/><path d="m30 13v2l-2 1v-2z" opacity=".29"/><path d="m18 9v2l10 5v-2z" opacity=".11"/><path d="m16 8-16 8v2l16 8 16-8v-2z" fill="#f90"/><path d="m32 16v2l-16 8v-2z" opacity=".29"/><path d="m0 16v2l16 8v-2z" opacity=".11"/><path d="m20 4v4l1 .5v-4l1 .5v4l1 .5v-4l1 .5v4l1 .5v-4l1 .5v4l1 .5v-4l1 .5v4l1 .5v-4.4c0-.4-.2-.7-.5-.8l-7.6-3.8c-.4-.3-.9 0-.9.5z" fill="#f90"/><path d="m20 4v4l1 .5v-4l1 .5v4l1 .5v-4l1 .5v4l1 .5v-4l1 .5v4l1 .5v-4l1 .5v4l1 .5v-4.4c0-.4-.2-.7-.5-.8l-7.6-3.8c-.4-.3-.9 0-.9.5z" opacity=".11"/><path d="m20 4.5-2 1v3.5l1 .5 2-1v-3.5z" fill="#f90"/><path d="m21 5v3.5l-2 1v-3.5z" opacity=".29"/><path d="m18 5.5v3.5l1 .5v-3.5z" opacity=".11"/><path d="m32 32-16 8v2l32 16 16-8v-2z" fill="#f90"/><path d="m16 40v2l32 16v-2z" opacity=".11"/><path d="m50.4 55.3v1l-2 1v-1z" fill="#cc291f"/><path d="m63.6 48.7v1l-2 1v-1z" fill="#cc291f"/><path d="m64 48v2l-16 8v-2z" opacity=".29"/><path d="m18 24h4l28 30-2 1-2-1z" fill="#f90"/><path d="m18 24 2 1 28 30-2-1z" opacity=".11"/><path d="m22 24-2 1 28 30 2-1z" opacity=".29"/><path d="m30 18h4l28 30-2 1-2-1z" fill="#f90"/><path d="m30 18 2 1 28 30-2-1z" opacity=".11"/><path d="m34 18-2 1 28 30 2-1z" opacity=".29"/><path d="m48 37 2 1-2 1-28 2-2-1 2-1z" fill="#f90"/><path d="m46 38 2 1-28 2-2-1z" opacity=".11"/><path d="m32 16-16 8v2l32 16 16-8v-2z" fill="#f90"/><path d="m64 32v2l-16 8v-2z" opacity=".29"/><path d="m16 24v2l32 16v-2z" opacity=".11"/></svg>