<svg enable-background="new 0 0 408 224" viewBox="0 0 408 224" xmlns="http://www.w3.org/2000/svg"><path d="m406.2 206.8c-3.9-9.1-24.5-33-40.9-41.3-6.6-3.3-21.2-12.1-21.2-12.1-1.8-1-5.4-3.8-8.3-10.6-1.2-2.9-1.9-5.8-1.8-9.3 6.9 4 12.8 7.4 12.8 7.4 1.2.7 3.9 1.3 5.8.3 3.5-1.8 6.4-6.1 6.4-9.6 0-1.7-.7-3-1.8-3.6s-10-4.9-19.3-9.6c1.3-3.3 3-7 5.1-11.3 8.6 4.9 17.1 9.9 17.1 9.9 1.2.7 3.9 1.3 5.8.3 3.5-1.8 6.4-6.1 6.4-9.6 0-1.7-.7-3-1.8-3.6s-10.9-5.4-20.6-10.2c.3-.5.5-1 .8-1.5 1.9-3.5 3.9-7 6-10.5 8.3 4.8 16.5 9.6 16.5 9.6 1.2.7 3.9 1.3 5.8.3 3.5-1.8 6.4-6.1 6.4-9.6 0-1.7-.7-3-1.8-3.6s-9.8-4.9-19.2-9.5c14-22.6 27.5-41.9 28.7-46.7 1.6-6.4-12.8-11.4-12.8-11.4s-20.6 18-45 38.2-71.5 47.2-79.9 50.6c-2.1.8-4.4 1.2-6.7 1.3-9.4-5.2-16.8-9.1-20.5-11-10.1-5-45.7-19.8-75.7-31.9l11.1-31.4 8.7-2.9-5.3-6.9-19.2-10.8-36 36.6c-2-.7-3.4-1.1-4.1-1.3-8.1-1.8-16.2-1.8-19.2-.6-3.8 1.5-4.1 4.4.1 11l-86.6 15.3 15 14.3 11.5 5.5 2-5.6 87.2-.9c8.4 6.9 17.3 13.8 25 19.2 4.8 3.3 27.2 16.3 52.3 30.6-8.2 4.3-18.4 9.4-29.5 13.7-26.2 10.4-59.9 22.8-104.1 37.6s-52.2 13.7-52.2 13.7v2.4s10.1 9 20.5 8c5.5-.5 47.7-8.3 91.9-16.5 9.5 5.3 29 16.6 29 16.6 1.2.7 3.9 1.3 5.8.3 3.5-1.8 6.4-6.1 6.4-9.6 0-1.7-.7-3-1.8-3.6s-8-3.9-16.3-8.1c12.1-2.3 23.9-4.4 34.6-6.4 10.1 5.7 25 14.4 25 14.4 1.2.7 3.9 1.3 5.8.3 3.5-1.8 6.4-6.1 6.4-9.6 0-1.7-.7-3-1.8-3.6s-5.4-2.7-12-5.9c6.6-1.2 12.2-2.2 16.5-3 5.1-.9 9.9-1.8 14.4-2.6 10.1 5.7 24.4 14.1 24.4 14.1 1.2.7 3.9 1.3 5.8.3 3.5-1.8 6.4-6.1 6.4-9.6 0-.4 0-.7-.1-1.1 1.6.9 2.9 1.5 3.7 2 21.1 11.1 74.2 37.8 92.3 41.4 13.8 2.7 31.2 3.9 34.8 3.6 4-.1 9.2-3.1 5.3-12.3z" opacity=".2"/></svg>