<svg enable-background="new 0 0 80 240" viewBox="0 0 80 240" xmlns="http://www.w3.org/2000/svg"><path d="m23.9 209.6c-9.3 5.7-10 12.5 2.1 18.9 13.2 7.1 20.9 5.5 31.1-.4 9-5.2 6.9-12.2-8.2-18.3-12.2-4.9-18.5-4.3-25-.2z" opacity=".2"/><path d="m25.8 108.3s-5.7 13.3-4 25.2 5.3 21.5 4.1 26.5-4 10.2-3.5 18.1 2.8 22.7 2.3 26.1-2.9 6.8-2.2 9.4c.8 2.6 8.6 1.9 13 3.8s10.4-.9 9.4-2.7-7-.9-8.8-2.8-4.4-3.9-3-16.8c1.4-12.8 2.1-21.3 2.1-26.7s5.6-17.1 7.4-28.3.7-31.1.7-31.1z" fill="#fbd7c7"/><path d="m23.8 207.8s-2.3 2.6-2.2 4.9 1.9 5.7 1.9 7v3.2l1.7 1 1.6-.8s-.7-5.3.5-6.1 4.8 1.9 7.2 2.5 8.3-.1 10.4-1 .4-3.6-1.5-4.7c-2.6-1.4-6.8-1.3-6.8-1.3s1.4.6 3 2.1c2.7 2.7-4.8 3.3-11.7-2.6-2.7-2.5-4.1-4.2-4.1-4.2z" fill="#2d3134"/><path d="m33.3 109.8s-2.8 13.2-.6 19.5c2.3 6.3 4.3 15.1 5.3 22.8s1.2 10.8.2 15-2.7 11.5-1.1 21.8 3.3 21.1 2.5 23.8-1.9 4.1.1 5.6 14.8 7.2 18.1 4.9-1.1-5.9-3.8-6.2-6.8-5.2-7.2-7.3c-.3-2.2 1.3-15.9 1.9-23.8s-1.4-14 1.3-23.3c2.8-9.3 5.5-21.8 5.7-34.1s-1.3-17.8-1.3-17.8z" fill="#fbd7c7"/><path d="m24.4 56.9c-3.4 2.1-3.7 10.4-4.8 19.1s-2.3 11.6-1.2 16 7.2 17.4 8.7 20.3 4.6 3.2 4.6 3.2l2-6.6s-3.6-10.1-5-12.7-2.8-6.2-2.6-8.4 4.1-12.1 4.8-17.2 1-18.3-6.5-13.7z" fill="#39c"/><path d="m24.4 56.9c-3.4 2.1-3.7 10.4-4.8 19.1s-2.3 11.6-1.2 16 7.2 17.4 8.7 20.3 4.6 3.2 4.6 3.2l2-6.6s-3.6-10.1-5-12.7-2.8-6.2-2.6-8.4 4.1-12.1 4.8-17.2 1-18.3-6.5-13.7z" opacity=".1"/><path d="m29.6 96.1s-6.6 15.9-8 24.3c-1.5 9.5.7 29.1.7 29.1s7 2.6 15 2.5 18-2.1 18-2.1 2.8-21.5 2.3-29.9c-.6-9-3.6-21.7-3.6-21.7z" fill="#39c"/><path d="m29.6 96.1s-6.6 15.9-8 24.3c-1.5 9.5.7 29.1.7 29.1s7 2.6 15 2.5 18-2.1 18-2.1 2.8-21.5 2.3-29.9c-.6-9-3.6-21.7-3.6-21.7z" opacity=".15"/><path d="m39.3 58.5c4.3 2.4 9.6 5.1 13.2 7.8 4.5 3.5 6.8 7.2 6.4 11.7-.6 8.1-5.3 11.3-4.9 17s2.1 13.4 2.1 13.4-11.4.6-20.6-.8-10.1-2.6-10.1-2.6 3.8-10.6 3.4-14.5-7.3-18.4-7-25.3 1.5-8.1 4.6-9 9.1.1 12.9 2.3z" fill="#39c"/><path d="m58 131s-1.9 2.6-2.1 4.4-.8 5.4-.1 5.6 1.3-1.1 1.6-2 .6-1.4.6-1.4.3 4.4-.4 5.6-5.2 4-4.3 5.3 4.4.5 5.9-.5 3.4-2.7 3.3-6.3-.1-10-.4-11.1-.6-1.4-.6-1.4z" fill="#fbd7c7"/><path d="m55.4 89c.6-6.5 2-15.6-.3-18.7-3-4.1-11.5-2.8-11.5 11.2 0 6.3 1.8 15.7 3.9 24 .2.9.5 1.9.9 3 4.5.1 7.8-.1 7.8-.1s-1.8-7.6-2.1-13.4c-.2-2.2.4-4.1 1.3-6z" opacity=".1"/><path d="m39.8 211.6s-2.4 2-2.4 4.5c0 2.6 2.1 5.4 2.4 7.4s.2 3.5.2 3.5l1.9.9 1.9-.8s-1.6-5.7.1-6.1 6.8 3.6 9.9 3.6 7.3-3.9 7.3-5.4-3.4-3.1-5.4-2.9c-2 .1-2.6.4-2.6.4s2.8 1.5 3.2 2.5-.6 1.7-1.9 2c-2.6.5-5.1-1.8-9.3-5.2-3.7-2.8-5.3-4.4-5.3-4.4z" fill="#2d3134"/><path d="m57.1 131.1s1.9.1 3.1-.3 1.8-1.2 1.8-1.2-1.9-13.4-2.7-18.7-3.1-11.6-3.1-16.9 3.2-18.9.5-23.2-9.8-4-11.1 2.1.6 23.6 2.1 32 9.4 26.2 9.4 26.2z" fill="#39c"/><path d="m36.3 56.9-5.7-1.3s-2.1 1.5-.8 4.4 7.1 5.4 12.3 3.9 4.4-1.5 4.4-1.5l-1.2-1.4z" fill="#fff"/><path d="m51.8 38.5c-.1 4.5-.8 11.9-2.4 13.1s-4.1 1.3-4.6 3.3-1.4 3.9-1.3 5c.1.9.7 1.4.7 1.4s-5.9 2.7-9.2 1.3-3.7-4.4-3.7-4.4 2.1-3.4.8-6.5c-.8-2-6.9-8.6-2.2-18.4 3.9-8.1 16.1-5.9 18.4-3.8s3.5 5.1 3.5 9z" fill="#fbd7c7"/><path d="m46.8 42.9c-1.5-.7-3.1.8-3.3 2.3s-2.3 8-7.8 7.7-10.3-9-6.7-18.2 16.4-8.9 19.4-5.6 4.1 7.6 2.9 9.5-2.1 5.2-2.7 6c-.4.6-1.3 1-1.3 1s.5-2.3-.5-2.7z" fill="#762c07"/><path d="m29.2 40.7c-6 .4-5.9 13.4 2.8 13.7s5.6-14.2-2.8-13.7z" fill="#762c07"/><path d="m32.4 40.3c2.8-.9 8-5.4 11.5-6.7 3-1.1 6.8-1.4 6.8-1.4s-1.8-12.1-11.5-9.4-10.4 8.7-10.7 10.8-.7 5-.7 5z" fill="#39c"/><path d="m31 33.7s5.3-4.1 7.9-5.9c4.9-3.5 8.3-2.7 8.3-2.7s-2.4-1.8-6-.1-10.3 7-10.3 7l-1.5-1.2-.3 1.5z" fill="#fff" opacity=".5"/></svg>