<svg enable-background="new 0 0 80 240" viewBox="0 0 80 240" xmlns="http://www.w3.org/2000/svg"><path d="m62.6 80.9s6.4 1.8 8.2 2.8 5.2 3 5 5.3-1.5 4.4-4.1 5c-2.6.7-3.6-.6-3.6-1.3s.3-2-.3-2.4-5.4-2-6.4-2.9c-.9-.8-2.4-2.6-2.4-2.6z" fill="#fbd7c7"/><path d="m52 63.7s6.8 10.8 8.1 12.7 3.3 4.4 3.3 4.4l-4.1 4.5-2.1-1.8s-6.8-6.5-7.8-7.1c-1.4-.8-1.9-11.6-1.9-11.6z" fill="#28896d"/><path d="m15.3 226.5c-12.3-8.3-.6-16.8 16.6-19.9 7.5-1.3 21-10.2 39.8 1.8 15.1 9.6-8 12.5-17.6 15.6-11.3 3.6-23.9 12.5-38.8 2.5z" opacity=".2"/><path d="m27.5 45.9 10.3-2.9 7.1 1.7 3.2 62z" fill="#28896d"/><path d="m47.9 200.2 10.5 1.2s.2 1.8 2.1 3.8 10.1 6.4 11.7 7.6c2.8 2.1.9 5-1.5 5.4-2.6.4-6.1-.4-10.5-2-3.4-1.2-7.5-2.3-11.3-3.6-3.4-1.1-2.5-5.9-2-8s1-4.4 1-4.4z" fill="#2d3134"/><path d="m70.6 216.6c-2.7.4-6.5-.5-11.2-2.2-3.7-1.3-8-2.5-12-3.9-.3-.1-.5-.2-.7-.3.3 1 1 1.9 2.2 2.3 3.8 1.3 7.9 2.4 11.3 3.6 4.4 1.6 7.9 2.4 10.5 2 1.8-.3 3.2-1.9 2.8-3.5-.5 1-1.6 1.8-2.9 2z" opacity=".4"/><path d="m14.7 208.3c.2.1 10.6 2.2 10.6 2.2s2.7 6 5.3 8.2c2.1 1.8 8 5.7 7.7 7.9s-6.3 4-11.9 1.1c-2.6-1.3-12.9-6.6-13.4-10.1-.6-4 1.7-9.3 1.7-9.3z" fill="#2d3134"/><path d="m26.4 225.9c-2.6-1.3-12.9-6.6-13.4-10.1 0-.2 0-.3-.1-.5-.1.8-.1 1.6.1 2.3.5 3.5 10.8 8.8 13.4 10.1 5.6 2.9 11.6 1.1 11.9-1.1 0-.3-.1-.7-.3-1.2-1.2 1.9-6.6 3.1-11.6.5z" opacity=".4"/><path d="m30 104 25.9-.4s4.5 19.8 3.6 31.4-1.6 23.2-1.8 33.1c-.1 9.9 3.4 36.5 2.9 36.9-1.8 1.7-9.1 1.6-11.3 1.7s-4-.6-4-1.3-.7-14.9-1.3-19.1c-.5-4-1.9-12.4-2.3-21.2-.4-9.7-1.8-18.1-2.9-22.7-1.2-4.5-8.8-38.4-8.8-38.4z" fill="#06547a"/><path d="m30 104 25.9-.4s4.5 19.8 3.6 31.4-1.6 23.2-1.8 33.1c-.1 9.9 3.4 36.5 2.9 36.9-1.8 1.7-9.1 1.6-11.3 1.7s-4-.6-4-1.3-.7-14.9-1.3-19.1c-.5-4-1.9-12.4-2.3-21.2-.4-9.7-1.8-18.1-2.9-22.7-1.2-4.5-8.8-38.4-8.8-38.4z" opacity=".2"/><path d="m20.5 103.3 26 .8s-5.1 26.6-7.8 36.6c-2.7 9.9-7.3 23.5-8.2 28.4-.9 5-3.4 32.7-3.3 37.4s.4 5.6.1 6.6-14.2 2.6-15.8-.5c-.4-.8 0-33.7 1.8-41.2s1.5-21.9 1.4-29.1c-.3-26 5.8-39 5.8-39z" fill="#06547a"/><path d="m27.4 45.7s-9.7 4-13.4 7.5c-6.1 5.7-.7 19.3 3.2 30.8s-2.2 39.5-1.7 40.4c.8 1.6 24.1 5.1 29.2 1.7 2.4-1.6 3.1-27.3 2.1-35.9s-4.8-16.9-6.9-22c-1.8-4.5-12.5-22.5-12.5-22.5z" fill="#fc0"/><path d="m58.7 69.1c.3 6.7-.6 25.2.6 34.9.5 3.9 3.3 19.4 2.6 20.2-1 1.1-10 3-11.5-.2-1.2-2.5-4.8-33-4.9-38.8-.1-5.7-1.6-39.8-1.6-39.8 2.8.7 9.7 2.2 11.8 6.5s2.7 10.6 3 17.2z" fill="#fc0"/><path d="m48.4 113.3s6.2-.4 8.5-1 3.7-1.1 3.7-1.1l-.9-5.8-11.8 1.9z" fill="#fff"/><path d="m46.9 113s-4.3.6-11.6.3-18.2-2.2-18.2-2.2l.7-6.3s12.3 2.3 17.7 2.3 11.6 0 11.6 0z" fill="#fff"/><path d="m53.1 38c-.9 2.9-3.6 3.4-6 1s-3.7-6.6-2.9-9.5c.9-2.9 3.6-3.4 6-1s3.8 6.6 2.9 9.5z" fill="#2d3134"/><path d="m58.6 108.7-24.8-2.9 3.6-30.3 24.7 2.8z" fill="#2d3134"/><path d="m44.4 100.9s4.1.7 6.4 1.4c2.3.6 6.2.6 8.9.2s3.2-7.1.3-7.4-4.7-.5-4.7-.5 1.2-2.3 2.8-3.4c1.2-.8 1.6-1.3 1-2.2-.6-.8-3.8 1.7-6.3 2.9s-3.5.3-4.9 1.1c-1.4.7-3.5 1.2-3.5 1.2z" fill="#fbd7c7"/><path d="m15.9 54.6c5.4-1.5 10.2 3.1 9.8 10-.4 7-1.7 14-2.7 16.9-1 3-1.3 7.6-1.3 7.6s4.3.9 9.3 1.9c5.5 1.1 10.4 2.7 10.4 2.7l3.6.3-.3 7.1h-3.9s-8.7.3-16-.1-12.2-.5-13.4-4.7-.3-17.7 0-24.7-1.8-15.3 4.5-17z" fill="#28896d"/><path d="m28.1 45.8s2.6-1.1 2.8-2.9c.2-1.9-5.6-9.2-.8-16s16.9-5.6 19 1.2 2.3 19.6.7 21c-2 1.7-5.6 1-5.6 1s-1.2 3.1-.9 4.9c.4 2.5-1.9 2.8-3.2 2.7-1.8-.2-9.5-4.9-12-11.9z" fill="#fbd7c7"/><path d="m30.1 41.2 1.5.9s-4-5.4-1.3-6.5 3.9 2.2 3.9 2.2 2-3.4 5-3.7c3.1-.3 11.4-2.2 11.2-4.8-.1-1-3.4-10-13.3-8.3s-10.2 9.9-9.6 13.2 2.6 7 2.6 7z" fill="#762c07"/><g fill="#2d3134"><path d="m37.4 41.2c0 3-2.5 4.3-5.5 2.7s-5.5-5.2-5.5-8.2 2.5-4.3 5.5-2.7 5.5 5.2 5.5 8.2z"/><path d="m34.7 42.4c0 2.5-2 3.4-4.4 2.2s-4.4-4.2-4.4-6.7 2-3.4 4.4-2.2 4.4 4.2 4.4 6.7z"/><path d="m36.6 20.1c7.1-1.2 10.8 3.1 12.4 6-1.9-2.5-5.2-5-10.5-4-9.2 1.7-9.6 9.5-9.1 12.9-1.6 1.6-1.8 1.5-2.3-1.7-.6-3.3-.4-11.5 9.5-13.2z"/></g></svg>