<svg enable-background="new 0 0 304 160" viewBox="0 0 304 160" xmlns="http://www.w3.org/2000/svg"><path d="m244.3 127.1 32.1-8.8c-1.8-1.1-5.6-3.3-8.5-3.4-2.4-.1-23.2.6-38.5 1.2-9.9-6.9-22.8-13.8-30.1-17.9-3.4-1.9-25.1-13.2-48.8-25.7l88.9-38.3c0-.3.2-1.2-.2-1.4-2.8-1.4-7.3-3.3-10.2-3.5-2.3-.2-49.3 8.7-86.7 15.3l-10.7-6.6c-3.4-2-7.6-2.2-11.1-.4l-1.1.5c-3.5 1.8-3.6 6.8-.2 8.7l2.2 1.3c-3.9.7-8.5 1.8-11.6 2.3-28.8-14.9-55.4-28.3-64-31.2-20.5-7.2-32-5.5-37.7.8-5.5 6 7.6 17.6 25.3 26.1 3.4 1.6 25.8 12.9 48.3 24-2.9 4.1-8.9 12.6-13.8 20l-7.8-4.6c-3.9-2.3-8.7-2.5-12.7-.4l-1.2.6c-4 2.1-4.1 7.7-.2 9.9l13.2 7.8c-10.3 16-19.9 31.6-19.9 33.1-.1 3.2 8.4 4.9 8.4 4.9l71.9-49.4 3.4-1.6c.3.1.5.2.8.3 20.1 8.5 53.8 22.7 66 27.8 5.3 2.2 15.8 5.5 26.7 8.5-3.1 6.8-9 20.7-9.2 23-.2 3.2 6.5 4.3 6.5 4.3l21.3-20.6c9.1 2 16 2.9 16.7 1.6.5-1-2.5-4.1-7.5-8.2z" opacity=".2"/><path d="m40.4 40.8c-.6-.3-1.2-.4-1.6-.2l-1.6.8c-.5.2-.7.7-.7 1.3 0 1.3 1.1 2.9 2.4 3.5.6.3 1.2.4 1.6.1 0 0 1.6-.8 1.7-.9.4-.2.6-.7.6-1.3 0-1.1-1.1-2.6-2.4-3.3z" fill="#2d3134"/><path d="m40.5 46.5c.2-.1 1.6-.8 1.7-.9.4-.2.6-.7.6-1.3 0-.5-.2-1.1-.5-1.6l-1.6.8c.3.5.5 1.1.5 1.6 0 .7-.3 1.2-.7 1.4z" opacity=".29"/><path d="m40.6 44.9c0 1-.8 1.4-1.8.9s-1.8-1.7-1.8-2.6c0-1 .8-1.4 1.8-.9 1 .4 1.8 1.6 1.8 2.6z" fill="#a9abb0"/><path d="m39 45.7c-1-.5-1.8-1.7-1.8-2.6 0-.5.2-.8.5-1-.4.1-.6.5-.6 1 0 1 .8 2.2 1.8 2.6.5.2.9.3 1.3.1-.4.2-.8.1-1.2-.1z" fill="#808285"/><path d="m39.7 44.3c0 .4-.3.6-.7.4s-.7-.7-.7-1.1.3-.6.7-.4.7.7.7 1.1z" fill="#2d3134"/><path d="m34.4 45.3c-.2 0-.3.2-.3.4 0 .4.3.9.7 1.1.3.1.5.1.6 0l3.9-2.1c.2 0 .3-.2.3-.4 0-.4-.3-.9-.7-1.1-.3-.1-.5-.1-.6 0z" fill="#2d3134"/><path d="m41.2 45.2c0 1.3-1.1 1.8-2.4 1.2s-2.4-2.2-2.4-3.5 1.1-1.8 2.4-1.2 2.4 2.2 2.4 3.5z" opacity=".11"/><path d="m36.3 43c-.6-.3-1.2-.4-1.6-.2l-1.6.8c-.5.2-.7.7-.7 1.3 0 1.3 1.1 2.9 2.4 3.5.6.3 1.2.4 1.6.1 0 0 1.6-.8 1.7-.9.4-.2.6-.7.6-1.3-.1-1.1-1.1-2.6-2.4-3.3z" fill="#2d3134"/><path d="m36.4 48.7c.2-.1 1.6-.8 1.7-.9.4-.2.6-.7.6-1.3 0-.5-.2-1.1-.5-1.6l-1.6.8c.3.5.5 1.1.5 1.6-.1.7-.3 1.2-.7 1.4z" opacity=".29"/><path d="m36.4 47.1c0 1-.8 1.4-1.8.9s-1.8-1.7-1.8-2.6c0-1 .8-1.4 1.8-.9 1.1.4 1.8 1.6 1.8 2.6z" fill="#a9abb0"/><path d="m34.8 47.9c-1-.5-1.8-1.7-1.8-2.6 0-.5.2-.8.5-1-.4.1-.6.5-.6 1 0 1 .8 2.2 1.8 2.6.5.2.9.3 1.3.1-.4.1-.8.1-1.2-.1z" fill="#808285"/><path d="m35.6 46.5c0 .4-.3.6-.7.4s-.7-.7-.7-1.1.3-.6.7-.4.7.7.7 1.1z" fill="#2d3134"/><path d="m35.6 46.5c0 .4-.3.6-.7.4s-.7-.7-.7-1.1.3-.6.7-.4.7.7.7 1.1z" opacity=".29"/><path d="m35.4 46.6c0 .4-.3.6-.7.4s-.7-.7-.7-1.1.3-.6.7-.4.7.6.7 1.1z" fill="#2d3134"/><path d="m37 47.4c0 1.3-1.1 1.8-2.4 1.2s-2.4-2.2-2.4-3.5 1.1-1.8 2.4-1.2c1.4.6 2.4 2.2 2.4 3.5z" opacity=".11"/><path d="m147.1 40.4s-6.1-3.9-9.7-5.7-7.4-2.3-7.4-2.3c-1.3-.2-2.8-.5-4.5.4-3.5 1.8-6.4 6-6.4 9.6 0 1.9 1.2 2.9 2.2 3.5 0 0 2.2 1.4 6.6 3.4 4.4 2.1 10 4.6 10 4.6 1.2.7 2.8.7 4.7-.3 3.5-1.8 6.4-6 6.4-9.6 0-1.7-.7-3-1.9-3.6z" fill="#e5e5e5"/><path d="m147.1 40.4s-6.1-3.9-9.7-5.7-7.4-2.3-7.4-2.3c-1.3-.2-2.8-.5-4.5.4-3.5 1.8-6.4 6-6.4 9.6 0 1.9 1.2 2.9 2.2 3.5 0 0 2.2 1.4 6.6 3.4 4.4 2.1 10 4.6 10 4.6 1.2.7 2.8.7 4.7-.3 3.5-1.8 6.4-6 6.4-9.6 0-1.7-.7-3-1.9-3.6z" opacity=".1"/><path d="m141.6 53.4 9.4 3.3c.8.3 1.8.2 2.9-.3 2.4-1.2 4.1-3.6 4.1-6 0-1.4-.6-2.2-1.6-2.5l-8.1-4.5c-.9-.5-2.1-.5-3.5.2-2.6 1.3-4.8 4.5-4.8 7.1 0 1.4.6 2.3 1.6 2.7z" fill="#e5e5e5"/><path d="m141.6 53.4 9.4 3.3c.8.3 1.8.2 2.9-.3 2.4-1.2 4.1-3.6 4.1-6 0-1.4-.7-1.9-1.6-2.5l-8.1-4.5c-.9-.5-2.1-.5-3.5.2-2.6 1.3-4.8 4.5-4.8 7.1 0 1.4.6 2.3 1.6 2.7z" opacity=".15"/><path d="m120.8 37.3c-.7 1.1-1.1 2.2-1.4 3.3l17 8.5c.2-1.1.6-2.3 1.2-3.4z" fill="#fff" opacity=".2"/><path d="m149.6 43-18.1-8.7 24 3.6z" fill="#e5e5e5"/><path d="m154.7 38.6.8-.7-24-3.6.8.5z" fill="#fff" opacity=".2"/><path d="m118.1 43s.2 0 .6-.1c9.7-1.9 117.1-22.1 121.2-21.7 3 .3 8.8 2.9 11.8 4.4.4.2.2 1.1.2 1.5 0 0-51.7 16.2-68.4 24.3-6.6 3.2-23.5 16.3-23.5 16.3" fill="#e5e5e5"/><path d="m118.1 43s.2 0 .6-.1c9.7-1.9 117.1-22.1 121.2-21.7 3 .3 8.8 2.9 11.8 4.4.4.2.2 1.1.2 1.5 0 0-51.7 16.2-68.4 24.3-6.6 3.2-23.5 16.3-23.5 16.3" opacity=".1"/><path d="m178.6 53s6.6 6 5.7 7.1c-.8 1.2-13-4.6-13-4.6z" fill="#999"/><path d="m195.6 44.7s6.6 6 5.7 7.1c-.8 1.2-13-4.6-13-4.6z" fill="#999"/><path d="m209.4 39.1s6.6 6 5.7 7.1c-.8 1.2-13-4.6-13-4.6z" fill="#999"/><path d="m225.8 33s6.6 6 5.7 7.1-13-4.6-13-4.6z" fill="#999"/><path d="m178.6 53s6.6 6 5.7 7.1c-.8 1.2-13-4.6-13-4.6z" opacity=".2"/><path d="m195.6 44.7s6.6 6 5.7 7.1c-.8 1.2-13-4.6-13-4.6z" opacity=".2"/><path d="m209.4 39.1s6.6 6 5.7 7.1c-.8 1.2-13-4.6-13-4.6z" opacity=".2"/><path d="m225.8 33s6.6 6 5.7 7.1-13-4.6-13-4.6z" opacity=".2"/><path d="m163.4 51.4 2.6 2.1-10.9 7.3 6.8 3.8c4.3-3.2 13.7-10 19.2-13.3l.7-.5-7.9-5.9z" fill="#e5e5e5"/><path d="m238 28.8-7.8 2.5-2.2-2.9-50.2 15.9 2.5 4.5 1.5 2.1.5-.2c.5-.3.9-.5 1.3-.7 11.4-5.5 34.9-13.6 55.4-20.2z" fill="#e5e5e5"/><path d="m238 28.7-7.8 2.5-2.1-2.8v-.1l-50.5 15.9 2.6 4.6 1.5 2.1.2-.1-1.5-2.1-2.4-4.3 11-3.5 3.2 5.3.3-.1-3.3-5.3 10.5-3.3 3.1 4.9.2-.2-3.1-4.7 8.7-2.8 2.7 4.4.3-.2-2.8-4.3 19.2-6 2.2 2.9 7.8-2.5.9.8.1-.2z" opacity=".3"/><path d="m217 33.7h4.9v.3h-4.9z" opacity=".3" transform="matrix(-.5509 -.8346 .8346 -.5509 312.1805 235.5453)"/><path d="m173.8 44.8-10.5 6.5-.1.1 2.6 2.1-10.8 7.2-.2.1 7 3.9.2-.2-6.7-3.7 10.6-7.1 5.1 4.2.2-.2-5.1-4.2h.1l-2.6-2.1 10.2-6.3 7.9 5.8.2-.2z" opacity=".3"/><path d="m239 29.7c-20.5 6.7-44 14.7-55.4 20.2-6.6 3.3-23.6 16.1-23.6 16.1v1.5s17-12.8 23.6-16c11.6-5.6 35.5-13.8 55.4-20.3z" fill="#e5e5e5"/><path d="m183.6 50c-6.6 3.2-23.6 16-23.6 16v1.5s17-12.8 23.6-16c16.7-8.1 68.4-24.6 68.4-24.6 0-.1.2-1.3-.2-1.5-10.9 3.5-53.2 17.3-68.2 24.6z" opacity=".1"/><path d="m242 21.5c3 .9 6.6 2.6 8.8 3.7-10.9 3.5-53.1 17.2-68.1 24.5-6.6 3.2-23.6 16-23.6 16v1.3l.8.5v-1.5s17-12.8 23.6-16c15-7.3 57.3-21 68.1-24.5-2.3-1.2-6.5-3.1-9.6-4z" fill="#fff" opacity=".3"/><path d="m78 105.9s6.8 5.7 6 6.9-13.2-4.1-13.2-4.1z" fill="#999"/><path d="m78 105.9s6.8 5.7 6 6.9-13.2-4.1-13.2-4.1z" opacity=".2"/><path d="m106.2 88.4s6.8 5.7 6 6.9-13.2-4.1-13.2-4.1z" fill="#999"/><path d="m106.2 88.4s6.8 5.7 6 6.9-13.2-4.1-13.2-4.1z" opacity=".2"/><path d="m91.6 95.3s6.8 5.7 6 6.9-13.2-4.1-13.2-4.1z" fill="#999"/><path d="m91.6 95.3s6.8 5.7 6 6.9-13.2-4.1-13.2-4.1z" opacity=".2"/><path d="m62.5 118.9s6.8 5.7 6 6.9-13.2-4.1-13.2-4.1z" fill="#999"/><path d="m62.5 118.9s6.8 5.7 6 6.9-13.2-4.1-13.2-4.1z" opacity=".2"/><path d="m253.4 114.1 49.3-13.6c.1-.1-.1-1.2-.1-1.2-2.3-1.5-7.3-4.3-11-4.4-5.1-.2-70.1 7.8-70.1 7.8z" fill="#e5e5e5"/><path d="m253.4 112.8-29.4-10.5c-1.7.2-2.6.3-2.6.3l32 11.4 49.3-13.6c.1-.1-.1-1.2-.1-1.2z" opacity=".1"/><g fill="#e5e5e5"><path d="m253.4 114.1 49.3-13.6z"/><path d="m221.8 102.6c-.1 0-.1 0-.2 0z"/><path d="m302.6 99.3c-2.3-1.5-7.3-4.3-11-4.4-4.8-.2-64.3 7.1-69.7 7.7.4-.1 1.2-.1 2.2-.3l29.4 10.5 49.1-13.5s.2 1.1.1 1.2c.1-.1-.1-1.2-.1-1.2z"/><path d="m302.6 99.3c-2.3-1.5-7.3-4.3-11-4.4-4.8-.2-64.3 7.1-69.7 7.7.1 0 .3 0 .4-.1.1 0 .3 0 .5-.1h.2c.3 0 .7-.1 1.1-.1l29.4 10.5z"/></g><path d="m302.6 99.3c-1.9-1.2-5.6-3.3-8.9-4.1 3.1.9 6.4 2.8 8.1 3.9l-49 13.5.7.2z" fill="#fff" opacity=".3"/><path d="m253.3 112.9-2.1-6.3h.1l31.8-7.6h18.7v.2h-18.6l-31.7 7.6 2 6z" opacity=".3"/><path d="m65.1 81.5s-6.1-3.9-9.7-5.7-7.4-2.3-7.4-2.3c-1.3-.2-2.8-.5-4.5.4-3.5 1.8-6.4 6-6.4 9.6 0 1.9 1.2 2.9 2.2 3.5 0 0 2.2 1.4 6.6 3.4s10 4.6 10 4.6c1.2.7 2.8.7 4.7-.3 3.5-1.8 6.4-6 6.4-9.6 0-1.8-.7-3-1.9-3.6z" fill="#e5e5e5"/><path d="m65.1 81.5s-6.1-3.9-9.7-5.7-7.4-2.3-7.4-2.3c-1.3-.2-2.8-.5-4.5.4-3.5 1.8-6.4 6-6.4 9.6 0 1.9 1.2 2.9 2.2 3.5 0 0 2.2 1.4 6.6 3.4s10 4.6 10 4.6c1.2.7 2.8.7 4.7-.3 3.5-1.8 6.4-6 6.4-9.6 0-1.8-.7-3-1.9-3.6z" opacity=".1"/><path d="m59.6 94.5 9.4 3.3c.8.3 1.8.2 2.9-.3 2.4-1.2 4.1-3.6 4.1-6 0-1.4-.6-2.2-1.6-2.5l-8.1-4.5c-.9-.5-2.1-.5-3.5.2-2.6 1.3-4.8 4.5-4.8 7.1 0 1.4.6 2.3 1.6 2.7z" fill="#e5e5e5"/><path d="m59.6 94.5 9.4 3.3c.8.3 1.8.2 2.9-.3 2.4-1.2 4.1-3.6 4.1-6 0-1.4-.7-1.9-1.6-2.5l-8.1-4.5c-.9-.5-2.1-.5-3.5.2-2.6 1.3-4.8 4.5-4.8 7.1 0 1.4.6 2.3 1.6 2.7z" opacity=".15"/><path d="m38.8 78.4c-.7 1.1-1.1 2.2-1.4 3.3l17 8.5c.2-1.1.6-2.3 1.2-3.4z" fill="#fff" opacity=".2"/><path d="m67.6 84.1-18.1-8.7 24 3.6z" fill="#e5e5e5"/><path d="m72.7 79.7.8-.7-24-3.6.8.5z" fill="#fff" opacity=".2"/><path d="m8.6 5.2c1.9-1 8.7-7.7 30.8 0s181.1 87.7 191.2 92.6c10.2 5 28.3 16.4 26.3 20.1s-49.1-4.6-62.5-6.6-47.2-13.2-64.4-22.4-97.8-47.9-104-52.1c-6.9-4.8-25.5-21.2-22.5-28.3 1.3-3.2 4.1-2.8 5.1-3.3z" fill="#e5e5e5"/><path d="m246 108.8 15.5-41s-9.2-7.5-15.5-6-22.2 19.1-31 21.9-19.8-.3-20.4.7c-.7 1 22.1 13.5 31 17.1s20.4 7.3 20.4 7.3z" fill="#cc291f"/><path d="m178.7 92.4c-8-4.1-151.7-73.5-158.7-79.2-4.8-3.9-7.9-7.9-6.3-10.5-2.9.9-4.4 2.2-5.1 2.6-1 .5-3.8.1-5.1 3.3-3 7 15.6 23.4 22.5 28.2 6.2 4.3 86.9 43 104.1 52.2 17.1 9.2 51 20.5 64.4 22.5 12.8 1.9 56.1 9.5 61.9 7-17.5-2-70.2-22.3-77.7-26.1z" fill="#39c"/><path d="m246 108.8 15.5-41s-9.2-7.5-15.5-6-22.2 19.1-31 21.9c-8.2 2.6-18 .1-20.1.5-.2 0-1.7.6-1.8.7-.7 1 23.5 12.9 32.5 16.6 7.3 3 19 7.8 19 7.8z" fill="#39c"/><path d="m7.4 5.5c.1 2.4 1.1 4.6 2.1 5.3.9.7 1.7 1.1 1.7 1.1l.9-3.2s-1.8-1.8-2.2-4.4c-.6.4-1 .7-1.3.9-.3.1-.7.2-1.2.3z" fill="#656565"/><path d="m11.2 11.5s-.8-.4-1.7-1.1-1.8-2.7-2-4.9c.1 2.4 1.1 4.6 2.1 5.3.9.7 1.7 1.1 1.7 1.1l.9-3.2s0 0-.1-.1z" opacity=".3"/><path d="m244.5 109.3 15.5-41s-9.2-7.5-15.5-6-22.2 19.1-31 21.9-19.8-.2-20.5.8 22.1 13.5 31 17.1 20.5 7.2 20.5 7.2z" fill="#39c"/><path d="m260 68.4-15.5 40.9 1.5-.5 15.4-41z" fill="#e5e5e5"/><path d="m260 68.4-15.5 40.9 1.5-.5 15.4-41z" opacity=".29"/><path d="m178.7 92.4c-8-4.1-151.7-73.5-158.7-79.2-4.8-3.9-7.9-7.9-6.3-10.5-2.9.9-4.4 2.2-5.1 2.6-1 .5-3.8.1-5.1 3.3-3 7 15.6 23.4 22.5 28.2 6.2 4.3 86.9 43 104.1 52.2 17.1 9.2 51 20.5 64.4 22.5 12.8 1.9 56.1 9.5 61.9 7-17.5-2-70.2-22.3-77.7-26.1z" opacity=".1"/><path d="m202.3 111.6c-13.8-2-48.6-13.7-66.3-23.2s-100.8-49.2-107.1-53.6c-6.9-4.8-25.6-21.2-23.3-28.7-.8.4-1.6 1.1-2.1 2.4-3 7.1 15.6 23.5 22.5 28.3 6.2 4.3 86.9 43 104.1 52.2 17.1 9.2 51 20.5 64.4 22.5 11.4 1.7 47.1 7.9 58.8 7.5-16-1.6-41.6-6-51-7.4z" opacity=".1"/><path d="m22 4c-6 2.3 167 83 169.9 80s-162.1-82.9-169.9-80z" fill="#fff" opacity=".2"/><path d="m246.5 116.4-27.8 26.8s-10.9-3.4-10.7-7 9.6-27.4 11.3-28.3c1.8-.9 27.2 8.5 27.2 8.5z" fill="#e5e5e5"/><path d="m246.5 116.4-27.8 26.8s-10.9-3.4-10.7-7 9.6-27.4 11.3-28.3c1.8-.9 27.2 8.5 27.2 8.5z" fill="#e5e5e5"/><path d="m218.7 141.7s-9.4-2.9-10.6-6.2c-.1.3-.1.6-.1.8-.2 3.6 10.7 7 10.7 7l27.8-26.8s-.4-.2-1.2-.4z" opacity=".1"/><path d="m218.7 141.7s-9.4-2.9-10.6-6.2c2 2.3 10.3 5.1 10.3 5.1l26.2-24.6s1.3.3.6 0z" fill="#fff" opacity=".3"/><path d="m132.6 86.6-12.3-1.1s-24.4 9.7-28.8 12-45.7 39.1-45.7 39.1-12-3.1-12-6.4c.2-3.3 41.5-72.3 43.8-73.2s55 29.6 55 29.6z" fill="#e5e5e5"/><path d="m132.6 86.6-12.3-1.1s-24.4 9.7-28.8 12-45.7 39.1-45.7 39.1-12-3.1-12-6.4c.2-3.3 41.5-72.3 43.8-73.2s55 29.6 55 29.6z" opacity=".1"/><path d="m78.4 60.1c2.6 1.2 32.1 17.5 43.5 25.6l10.7.9s-52.8-30.5-55.1-29.6c-.2.1-1.3 1.5-2.2 2.9 1.1-.2 2.1-.3 3.1.2z" fill="#e5e5e5"/><path d="m95.4 87.3-2.5-2.3-8.4 4.1 8.1 6.4 14.9-6.3c6.7-2.7 12.8-5.2 12.8-5.2l-6.8-3.8z" fill="#e5e5e5"/><path d="m54.9 119.2 2.7 1.7-4.7 4.5 2.1 1.6 7.3-6.4c10.8-9.4 26.6-23.2 29.2-24.6.1 0 .2-.1.3-.1l-7.8-4.6z" fill="#e5e5e5"/><path d="m113.6 80.3-.1-.2-18 7.1-2.6-2.3-8.5 4.1-.2.1 8 6.4.1-.2-7.6-6.1 8.2-4 2.5 2.2 5.5 4.6.1-.2-5.3-4.5z" opacity=".3"/><path d="m84 91.1-29.2 28-.1.2 2.8 1.6-4.8 4.5 2.2 1.5.1-.2-1.9-1.3 4.8-4.5-2.8-1.7 11.5-11.1-.1.3 6.2 3.3.1-.2-6.2-3.4 5.9-5.7 6.5 3.6.2-.2-6.5-3.5 5.8-5.6-.1.2 7 3.8.2-.2-7.1-3.8 5.5-5.3 7.8 4.6.1-.2-7.8-4.6z" opacity=".3"/><path d="m60.1 115.6h6.6v.3h-6.6z" opacity=".3" transform="matrix(-.8792 -.4764 .4764 -.8792 63.9483 247.6928)"/><path d="m218.8 141.7-.2-.1 2.7-15.2h.1l11.1-11.7 12.8 1.2v.2l-12.8-1.1-10.9 11.6z" opacity=".3"/><path d="m249.6 74.8-14.3 31.5c5.1 1.8 9.2 3 9.2 3l15.5-41z" fill="#e5e5e5"/><path d="m249.7 74.9 10.4-6.4-.2-.2-10.3 6.4h-.1l-14.3 31.6v.2h.1v-.2l.2.1 7.5-16.6 7.5 3.7.1-.3-7.5-3.6 5.2-11.5 6.8 3.3.1-.2-6.8-3.4z" opacity=".3"/><path d="m129.6 84.8-9.2-.8s-24.4 9.7-28.8 12c-3.3 1.7-26 21.7-36.6 31v1.5c10.5-9.3 33.3-29.3 36.6-31 4.4-2.3 28.8-12 28.8-12l12.3 1.1c-.1 0-1.2-.6-3.1-1.8z" fill="#e5e5e5"/><path d="m244.5 109.2 15.5-41s-9.2-7.5-15.5-6-22.2 19.1-31 21.9-19.8-.3-20.4.7c-.7 1 22.1 13.5 31 17.1s20.4 7.3 20.4 7.3z" opacity=".11"/><path d="m120.4 84s-24.4 9.7-28.8 12-45.7 39.1-45.7 39.1-10.2-2.6-11.8-5.6c-.1.3-.2.6-.2.7-.1 3.3 12 6.4 12 6.4s41.3-36.8 45.7-39.1 28.8-12 28.8-12l12.3 1.1s-1.1-.7-3.1-1.8z" opacity=".1"/><path d="m120.4 84s-24.4 9.7-28.8 12-45.7 39.1-45.7 39.1-10.2-2.6-11.8-5.6c3.2 3.1 11.7 4.8 11.7 4.8s41.3-36.6 45.7-38.9 28.9-11.9 28.9-11.9l9.2 1.3z" fill="#fff" opacity=".3"/><path d="m23.6 19c.1 0 .2 0 .3.1l2.1 1c.6.3 1 1 1 1.7v7.6c0 .4-.3.6-.6.6-.1 0-.2 0-.3-.1l-2.1-1c-.6-.3-1-1-1-1.7v-7.6c0-.4.3-.6.6-.6m0-1c-.8 0-1.6.7-1.6 1.6v7.6c0 1.1.6 2.1 1.6 2.6l2.1 1c.2.1.5.2.7.2.8 0 1.6-.7 1.6-1.6v-7.6c0-1.1-.6-2.1-1.6-2.6l-2.1-1c-.2-.2-.5-.2-.7-.2z" opacity=".3"/><path d="m135.6 75c.1 0 .2 0 .3.1l2.1 1c.6.3 1 1 1 1.7v7.6c0 .4-.3.6-.6.6-.1 0-.2 0-.3-.1l-2.1-1c-.6-.3-1-1-1-1.7v-7.6c0-.4.3-.6.6-.6m0-1c-.8 0-1.6.7-1.6 1.6v7.6c0 1.1.6 2.1 1.6 2.6l2.1 1c.2.1.5.2.7.2.8 0 1.6-.7 1.6-1.6v-7.6c0-1.1-.6-2.1-1.6-2.6l-2.1-1c-.2-.2-.5-.2-.7-.2z" opacity=".3"/><path d="m167.6 90c.1 0 .2 0 .3.1l2.1 1c.6.3 1 1 1 1.7v7.6c0 .4-.3.6-.6.6-.1 0-.2 0-.3-.1l-2.1-1c-.6-.3-1-1-1-1.7v-7.6c0-.4.3-.6.6-.6m0-1c-.8 0-1.6.7-1.6 1.6v7.6c0 1.1.6 2.1 1.6 2.6l2.1 1c.2.1.5.2.7.2.8 0 1.6-.7 1.6-1.6v-7.6c0-1.1-.6-2.1-1.6-2.6l-2.1-1c-.2-.2-.5-.2-.7-.2z" opacity=".3"/><path d="m39.8 22c.1 0 .2 0 .4.1l15.8 7.8c.6.3 1 .9 1 1.6v16.7c0 .5-.4.8-.8.8-.1 0-.2 0-.4-.1l-15.8-7.8c-.6-.3-1-.9-1-1.6v-16.7c0-.5.4-.8.8-.8m0-1c-1 0-1.8.8-1.8 1.8v16.7c0 1.1.6 2 1.5 2.5l15.8 7.8c.3.1.5.2.8.2 1 0 1.8-.8 1.8-1.8v-16.7c0-1.1-.6-2-1.5-2.5l-15.8-7.8c-.2-.1-.5-.2-.8-.2z" opacity=".3"/><path d="m39.8 22c.1 0 .2 0 .4.1l15.8 7.8c.6.3 1 .9 1 1.6v16.7c0 .5-.4.8-.8.8-.1 0-.2 0-.4-.1l-15.8-7.8c-.6-.3-1-.9-1-1.6v-16.7c0-.5.4-.8.8-.8" fill="#656565"/><path d="m57 36v-4.5c0-.7-.4-1.3-1-1.6l-15.8-7.8c-.1-.1-.3-.1-.4-.1-.4 0-.8.3-.8.8v4.2z" opacity=".2"/><path d="m37.2.1c-.8-.4-1.7.4-1.4 1.2.9 2.6 2.2 6.8 2.2 8.7v8.5c0 1.1.6 2 1.5 2.5l15.8 7.8c.3.1.5.2.8.2 1 0 1.8-.8 1.8-1.8 0 0 0-4.2 0-7.2 0-1.9-1.3-6.1-2.2-8.7-.5-1.5-1.6-2.7-3-3.4z" fill="#e5e5e5"/><path d="m37.2.1c-.8-.4-1.7.4-1.4 1.2.9 2.6 2.2 6.8 2.2 8.7v8.5c0 1.1.6 2 1.5 2.5l15.8 7.8c.3.1.5.2.8.2 1 0 1.8-.8 1.8-1.8 0 0 0-4.2 0-7.2 0-1.9-1.3-6.1-2.2-8.7-.5-1.5-1.6-2.7-3-3.4z" opacity=".15"/><path d="m55.8 11.3c-.5-1.5-1.6-2.7-3-3.4l-15.6-7.8c-.8-.4-1.7.4-1.4 1.2.9 2.6 2.2 6.8 2.2 8.7v8.5c0 1.1.6 2 1.5 2.5l15.8 7.8c.3.1.5.2.8.2 1 0 1.8-.8 1.8-1.8 0 0 0-4.2 0-7.2.1-1.9-1.2-6-2.1-8.7zm1.2 15.9c0 .5-.4.8-.8.8-.1 0-.2 0-.4-.1l-15.8-7.8c-.6-.3-1-.9-1-1.6v-8.5c0-2-1.2-6-2.2-9l15.6 7.8c1.2.6 2.1 1.6 2.5 2.8 1.4 4 2.1 7 2.1 8.3z" opacity=".1"/></svg>