<svg enable-background="new 0 0 432 288" viewBox="0 0 432 288" xmlns="http://www.w3.org/2000/svg"><path d="m170.9 69.5s4.8 2.1 7.2.8c2.5-1.2 12.8-7.9 13.2-10.1.4-2.3-30.8-47.9-33.5-50.4s-14.1-10.1-16.1-9.5 10.9 59.3 10.9 59.3z" fill="#e5e5e5"/><path d="m170.9 69.5s4.8 2.1 7.2.8c2.5-1.2 12.8-7.9 13.2-10.1.4-2.3-30.8-47.9-33.5-50.4s-14.1-10.1-16.1-9.5 10.9 59.3 10.9 59.3z" opacity=".1"/><path d="m157.9 9.8c-2.7-2.5-14.1-10.1-16.1-9.5-.2 0-.2.4-.2 1.1 3.9 1.5 12.1 7.1 14.3 9.2 2.7 2.5 33.9 48.1 33.5 50.4-.4 2.1-9.1 7.8-12.5 9.7.5-.1.9-.2 1.2-.3 2.5-1.2 12.8-7.9 13.2-10.1.5-2.4-30.7-48.1-33.4-50.5z" opacity=".1"/><path d="m155.3 11.4c-2.7-2.5-13.8-10.7-13.8-10 3.9 1.5 12.1 7.1 14.3 9.2 2.7 2.5 33.9 48.1 33.5 50.4-.4 2.1-9.1 7.8-12.5 9.7.5-.1 11.4-7.4 11.8-9.6.5-2.4-30.6-47.2-33.3-49.7z" fill="#fff" opacity=".3"/><path d="m114.5 91.5 31-52.1s-6.8-3.5-5.6-5.6 9.9 2.5 9.9 2.5 24.5 14.1 26.1 16.1 1.4 4.1.6 4.3-1.2-.4-1.9 1.9c-.6 2.3-12.5 54.1-12.5 54.1z" fill="#e5e5e5"/><path d="m176 52.5c-.1-.2-.4-.4-.7-.7.8 1.6.5 3-.1 3.1-.8.2-1.2-.4-1.9 1.9-.6 2.3-12.5 54.1-12.5 54.1l1.5 1.9s11.9-51.8 12.5-54.1 1-1.7 1.9-1.9c.7-.2 1-2.2-.7-4.3z" opacity=".1"/><path d="m175.3 51.8c.8 1.6.5 3-.1 3.1-.8.2-1.2-.4-1.9 1.9-.6 2.3-12.5 54.1-12.5 54.1l-.5-1.1s11.5-51.1 12.1-53.3c.6-2.3 1.1-1.6 1.9-1.9 1.2-.5 1.3-2.5 1-2.8z" fill="#fff" opacity=".3"/><path d="m270 233.4-9.7-3.4c-.8-.3-1.8-.2-3 .3-2.5 1.2-4.3 3.8-4.3 6.2 0 1.4.7 2.3 1.7 2.6l8.4 4.7c.9.5 2.2.5 3.6-.2 2.7-1.4 4.9-4.7 4.9-7.4 0-1.5-.6-2.4-1.6-2.8z" fill="#e5e5e5"/><path d="m270 233.4-9.7-3.4c-.8-.3-1.8-.2-3 .3-2.5 1.2-4.3 3.8-4.3 6.2 0 1.4.7 2 1.7 2.6l8.4 4.7c.9.5 2.2.5 3.6-.2 2.7-1.4 4.9-4.7 4.9-7.4 0-1.5-.6-2.4-1.6-2.8z" opacity=".15"/><path d="m291.3 241s-6.3-4.1-10.1-5.9-7.7-2.4-7.7-2.4c-1.3-.2-2.9-.5-4.7.4-3.7 1.8-6.6 6.3-6.6 9.9 0 1.9 1.2 3 2.3 3.6 0 0 2.3 1.4 6.9 3.6 4.6 2.1 10.3 4.7 10.3 4.7 1.2.7 2.9.7 4.9-.3 3.7-1.8 6.6-6.3 6.6-9.9 0-1.8-.7-3.1-1.9-3.7z" fill="#e5e5e5"/><path d="m291.3 241s-6.3-4.1-10.1-5.9-7.7-2.4-7.7-2.4c-1.3-.2-2.9-.5-4.7.4-3.7 1.8-6.6 6.3-6.6 9.9 0 1.9 1.2 3 2.3 3.6 0 0 2.3 1.4 6.9 3.6 4.6 2.1 10.3 4.7 10.3 4.7 1.2.7 2.9.7 4.9-.3 3.7-1.8 6.6-6.3 6.6-9.9 0-1.8-.7-3.1-1.9-3.7z" opacity=".1"/><path d="m251.8 226.4 4.3 4.5 11.1 3s.5-.5 2.3-.8 11.1 3.7 11.9 3.7c.7-.1-8.2-6.5-11.9-8.7-3.6-2.2-5.2-3.5-5.2-3.5s-1.1.9-2.6 1.3c-1.5.5-9.9.5-9.9.5z" fill="#e5e5e5"/><path d="m269.6 228.1c-3.6-2.2-5.2-3.5-5.2-3.5s-.5.4-1.3.8c.8.6 2.2 1.5 4.1 2.7 2.7 1.6 8.3 5.5 10.7 7.5 1.8.7 3.3 1.2 3.6 1.2.7 0-8.3-6.5-11.9-8.7z" fill="#fff" opacity=".2"/><path d="m285.9 241.8c-3.3 2-5.9 6.1-5.9 9.6v.4c.9.7 2.2.8 3.8 0 2.6-1.3 4.7-4.5 4.7-7.1 0-1.9-1-2.9-2.6-2.9z" opacity=".5"/><path d="m286.6 241.4c-3.7 1.8-6.6 6.3-6.6 9.9s3 5.1 6.6 3.3c3.7-1.8 6.6-6.3 6.6-9.9s-3-5.1-6.6-3.3zm0 12.6c-3.3 1.6-6 .3-6-3s2.7-7.3 6-8.9 6-.3 6 3-2.7 7.3-6 8.9z" fill="#e5e5e5"/><path d="m293.2 244.7c0 3.7-3 8.1-6.6 9.9s-6.6.3-6.6-3.3c0-3.7 3-8.1 6.6-9.9s6.6-.3 6.6 3.3z" opacity=".2"/><path d="m288.5 245c-.1 1.2-.5 2.4-1.2 3.5l3.9 2c.7-1.1 1.3-2.2 1.6-3.3z" fill="#fff" opacity=".2"/><path d="m263.9 237.8c-.7 1.1-1.2 2.3-1.4 3.4l17.6 8.8c.2-1.2.6-2.4 1.3-3.5z" fill="#fff" opacity=".2"/><path d="m356.6 191.2-9.7-3.4c-.8-.3-1.8-.2-3 .3-2.5 1.2-4.3 3.8-4.3 6.2 0 1.4.7 2.3 1.7 2.6l8.4 4.7c.9.5 2.2.5 3.6-.2 2.7-1.4 4.9-4.7 4.9-7.4.1-1.4-.6-2.4-1.6-2.8z" fill="#e5e5e5"/><path d="m356.6 191.2-9.7-3.4c-.8-.3-1.8-.2-3 .3-2.5 1.2-4.3 3.8-4.3 6.2 0 1.4.7 2 1.7 2.6l8.4 4.7c.9.5 2.2.5 3.6-.2 2.7-1.4 4.9-4.7 4.9-7.4.1-1.4-.6-2.4-1.6-2.8z" opacity=".15"/><path d="m377.9 198.9s-6.3-4.1-10.1-5.9-7.7-2.4-7.7-2.4c-1.3-.2-2.9-.5-4.7.4-3.7 1.8-6.6 6.3-6.6 9.9 0 1.9 1.2 3 2.3 3.6 0 0 2.3 1.4 6.9 3.6 4.6 2.1 10.3 4.7 10.3 4.7 1.2.7 2.9.7 4.9-.3 3.7-1.8 6.6-6.3 6.6-9.9 0-1.8-.7-3.1-1.9-3.7z" fill="#e5e5e5"/><path d="m377.9 198.9s-6.3-4.1-10.1-5.9-7.7-2.4-7.7-2.4c-1.3-.2-2.9-.5-4.7.4-3.7 1.8-6.6 6.3-6.6 9.9 0 1.9 1.2 3 2.3 3.6 0 0 2.3 1.4 6.9 3.6 4.6 2.1 10.3 4.7 10.3 4.7 1.2.7 2.9.7 4.9-.3 3.7-1.8 6.6-6.3 6.6-9.9 0-1.8-.7-3.1-1.9-3.7z" opacity=".1"/><path d="m338.5 184.3 4.3 4.5 11.1 3s.5-.5 2.3-.8 11.1 3.7 11.9 3.7c.7-.1-8.2-6.5-11.9-8.7-3.6-2.2-5.2-3.5-5.2-3.5s-1.1.9-2.6 1.3c-1.6.4-9.9.5-9.9.5z" fill="#e5e5e5"/><path d="m356.2 186c-3.6-2.2-5.2-3.5-5.2-3.5s-.5.4-1.3.8c.8.6 2.2 1.5 4.1 2.7 2.7 1.6 8.3 5.5 10.7 7.5 1.8.7 3.3 1.2 3.6 1.2.7-.1-8.3-6.5-11.9-8.7z" fill="#fff" opacity=".2"/><path d="m372.6 199.6c-3.3 2-5.9 6.1-5.9 9.6v.4c.9.7 2.2.8 3.8 0 2.6-1.3 4.7-4.5 4.7-7.1 0-1.8-1.1-2.9-2.6-2.9z" opacity=".5"/><path d="m373.2 199.3c-3.7 1.8-6.6 6.3-6.6 9.9s3 5.1 6.6 3.3c3.7-1.8 6.6-6.3 6.6-9.9 0-3.7-2.9-5.2-6.6-3.3zm0 12.6c-3.3 1.6-6 .3-6-3s2.7-7.3 6-8.9 6-.3 6 3c0 3.2-2.7 7.2-6 8.9z" fill="#e5e5e5"/><path d="m379.8 202.6c0 3.7-3 8.1-6.6 9.9s-6.6.3-6.6-3.3c0-3.7 3-8.1 6.6-9.9 3.7-1.9 6.6-.4 6.6 3.3z" opacity=".2"/><path d="m375.1 202.8c-.1 1.2-.5 2.4-1.2 3.5l3.9 2c.7-1.1 1.3-2.2 1.6-3.3z" fill="#fff" opacity=".2"/><path d="m350.5 195.7c-.7 1.1-1.2 2.3-1.4 3.4l17.6 8.8c.2-1.2.6-2.4 1.3-3.5z" fill="#fff" opacity=".2"/><path d="m372.1 167.8-9.7-3.4c-.8-.3-1.8-.2-3 .3-2.5 1.2-4.3 3.8-4.3 6.2 0 1.4.7 2.3 1.7 2.6l8.4 4.7c.9.5 2.2.5 3.6-.2 2.7-1.4 4.9-4.7 4.9-7.4.1-1.4-.6-2.4-1.6-2.8z" fill="#e5e5e5"/><path d="m372.1 167.8-9.7-3.4c-.8-.3-1.8-.2-3 .3-2.5 1.2-4.3 3.8-4.3 6.2 0 1.4.7 2 1.7 2.6l8.4 4.7c.9.5 2.2.5 3.6-.2 2.7-1.4 4.9-4.7 4.9-7.4.1-1.4-.6-2.4-1.6-2.8z" opacity=".15"/><path d="m393.5 175.5s-6.3-4.1-10.1-5.9-7.7-2.4-7.7-2.4c-1.3-.2-2.9-.5-4.7.4-3.7 1.8-6.6 6.3-6.6 9.9 0 1.9 1.2 3 2.3 3.6 0 0 2.3 1.4 6.9 3.6 4.6 2.1 10.3 4.7 10.3 4.7 1.2.7 2.9.7 4.9-.3 3.7-1.8 6.6-6.3 6.6-9.9 0-1.9-.8-3.1-1.9-3.7z" fill="#e5e5e5"/><path d="m393.5 175.5s-6.3-4.1-10.1-5.9-7.7-2.4-7.7-2.4c-1.3-.2-2.9-.5-4.7.4-3.7 1.8-6.6 6.3-6.6 9.9 0 1.9 1.2 3 2.3 3.6 0 0 2.3 1.4 6.9 3.6 4.6 2.1 10.3 4.7 10.3 4.7 1.2.7 2.9.7 4.9-.3 3.7-1.8 6.6-6.3 6.6-9.9 0-1.9-.8-3.1-1.9-3.7z" opacity=".1"/><path d="m354 160.9 4.3 4.5 11.1 3s.5-.5 2.3-.8c1.7-.3 11.1 3.7 11.9 3.7.7-.1-8.2-6.5-11.9-8.7-3.6-2.2-5.2-3.5-5.2-3.5s-1.1.9-2.6 1.3-9.9.5-9.9.5z" fill="#e5e5e5"/><path d="m371.7 162.5c-3.6-2.2-5.2-3.5-5.2-3.5s-.5.4-1.3.8c.8.6 2.2 1.5 4.1 2.7 2.7 1.6 8.3 5.5 10.7 7.5 1.8.7 3.3 1.2 3.6 1.2.7 0-8.3-6.5-11.9-8.7z" fill="#fff" opacity=".2"/><path d="m388.1 176.2c-3.3 2-5.9 6.1-5.9 9.6v.4c.9.7 2.2.8 3.8 0 2.6-1.3 4.7-4.5 4.7-7.1 0-1.8-1.1-2.9-2.6-2.9z" opacity=".5"/><path d="m388.7 175.8c-3.7 1.8-6.6 6.3-6.6 9.9 0 3.7 3 5.1 6.6 3.3 3.7-1.8 6.6-6.3 6.6-9.9.1-3.6-2.9-5.1-6.6-3.3zm.1 12.6c-3.3 1.6-6 .3-6-3s2.7-7.3 6-8.9 6-.3 6 3c-.1 3.3-2.7 7.3-6 8.9z" fill="#e5e5e5"/><path d="m395.4 179.2c0 3.7-3 8.1-6.6 9.9-3.7 1.8-6.6.3-6.6-3.3 0-3.7 3-8.1 6.6-9.9s6.6-.4 6.6 3.3z" opacity=".2"/><path d="m390.7 179.4c-.1 1.2-.5 2.4-1.2 3.5l3.9 2c.7-1.1 1.3-2.2 1.6-3.3z" fill="#fff" opacity=".2"/><path d="m366 172.3c-.7 1.1-1.2 2.3-1.4 3.4l17.6 8.8c.2-1.2.6-2.4 1.3-3.5z" fill="#fff" opacity=".2"/><path d="m385.9 142.7-9.7-3.4c-.8-.3-1.8-.2-3 .3-2.5 1.2-4.3 3.8-4.3 6.2 0 1.4.7 2.3 1.7 2.6l8.4 4.7c.9.5 2.2.5 3.6-.2 2.7-1.4 4.9-4.7 4.9-7.4 0-1.4-.6-2.4-1.6-2.8z" fill="#e5e5e5"/><path d="m385.9 142.7-9.7-3.4c-.8-.3-1.8-.2-3 .3-2.5 1.2-4.3 3.8-4.3 6.2 0 1.4.7 2 1.7 2.6l8.4 4.7c.9.5 2.2.5 3.6-.2 2.7-1.4 4.9-4.7 4.9-7.4 0-1.4-.6-2.4-1.6-2.8z" opacity=".15"/><path d="m407.2 150.4s-6.3-4.1-10.1-5.9-7.7-2.4-7.7-2.4c-1.3-.2-2.9-.5-4.7.4-3.7 1.8-6.6 6.3-6.6 9.9 0 1.9 1.2 3 2.3 3.6 0 0 2.3 1.4 6.9 3.6 4.6 2.1 10.3 4.7 10.3 4.7 1.2.7 2.9.7 4.9-.3 3.7-1.8 6.6-6.3 6.6-9.9 0-1.9-.7-3.1-1.9-3.7z" fill="#e5e5e5"/><path d="m407.2 150.4s-6.3-4.1-10.1-5.9-7.7-2.4-7.7-2.4c-1.3-.2-2.9-.5-4.7.4-3.7 1.8-6.6 6.3-6.6 9.9 0 1.9 1.2 3 2.3 3.6 0 0 2.3 1.4 6.9 3.6 4.6 2.1 10.3 4.7 10.3 4.7 1.2.7 2.9.7 4.9-.3 3.7-1.8 6.6-6.3 6.6-9.9 0-1.9-.7-3.1-1.9-3.7z" opacity=".1"/><path d="m367.8 135.8 4.3 4.5 11.1 3s.5-.5 2.3-.8c1.7-.3 11.1 3.7 11.9 3.7.7-.1-8.2-6.5-11.9-8.7-3.6-2.2-5.2-3.5-5.2-3.5s-1.1.9-2.6 1.3-9.9.5-9.9.5z" fill="#e5e5e5"/><path d="m385.5 137.4c-3.6-2.2-5.2-3.5-5.2-3.5s-.5.4-1.3.8c.8.6 2.2 1.5 4.1 2.7 2.7 1.6 8.3 5.5 10.7 7.5 1.8.7 3.3 1.2 3.6 1.2.7 0-8.3-6.5-11.9-8.7z" fill="#fff" opacity=".2"/><path d="m401.8 151.1c-3.3 2-5.9 6.1-5.9 9.6v.4c.9.7 2.2.8 3.8 0 2.6-1.3 4.7-4.5 4.7-7.1.1-1.8-1-2.9-2.6-2.9z" opacity=".5"/><path d="m402.5 150.7c-3.7 1.8-6.6 6.3-6.6 9.9 0 3.7 3 5.1 6.6 3.3 3.7-1.8 6.6-6.3 6.6-9.9s-2.9-5.1-6.6-3.3zm0 12.7c-3.3 1.6-6 .3-6-3s2.7-7.3 6-8.9 6-.3 6 3c0 3.2-2.7 7.2-6 8.9z" fill="#e5e5e5"/><path d="m409.1 154.1c0 3.7-3 8.1-6.6 9.9-3.7 1.8-6.6.3-6.6-3.3 0-3.7 3-8.1 6.6-9.9s6.6-.4 6.6 3.3z" opacity=".2"/><path d="m404.4 154.3c-.1 1.2-.5 2.4-1.2 3.5l3.9 2c.7-1.1 1.3-2.2 1.6-3.3z" fill="#fff" opacity=".2"/><path d="m379.8 147.2c-.7 1.1-1.2 2.3-1.4 3.4l17.6 8.8c.2-1.2.6-2.4 1.3-3.5z" fill="#fff" opacity=".2"/><path d="m217.9 243.7-9.7-3.4c-.8-.3-1.8-.2-3 .3-2.5 1.2-4.3 3.8-4.3 6.2 0 1.4.7 2.3 1.7 2.6l8.4 4.7c.9.5 2.2.5 3.6-.2 2.7-1.4 4.9-4.7 4.9-7.4.1-1.4-.6-2.4-1.6-2.8z" fill="#e5e5e5"/><path d="m217.9 243.7-9.7-3.4c-.8-.3-1.8-.2-3 .3-2.5 1.2-4.3 3.8-4.3 6.2 0 1.4.7 2 1.7 2.6l8.4 4.7c.9.5 2.2.5 3.6-.2 2.7-1.4 4.9-4.7 4.9-7.4.1-1.4-.6-2.4-1.6-2.8z" opacity=".15"/><path d="m239.2 251.4s-6.3-4.1-10.1-5.9-7.7-2.4-7.7-2.4c-1.3-.2-2.9-.5-4.7.4-3.7 1.8-6.6 6.3-6.6 9.9 0 1.9 1.2 3 2.3 3.6 0 0 2.3 1.4 6.9 3.6 4.6 2.1 10.3 4.7 10.3 4.7 1.2.7 2.9.7 4.9-.3 3.7-1.8 6.6-6.3 6.6-9.9 0-1.8-.7-3.1-1.9-3.7z" fill="#e5e5e5"/><path d="m239.2 251.4s-6.3-4.1-10.1-5.9-7.7-2.4-7.7-2.4c-1.3-.2-2.9-.5-4.7.4-3.7 1.8-6.6 6.3-6.6 9.9 0 1.9 1.2 3 2.3 3.6 0 0 2.3 1.4 6.9 3.6 4.6 2.1 10.3 4.7 10.3 4.7 1.2.7 2.9.7 4.9-.3 3.7-1.8 6.6-6.3 6.6-9.9 0-1.8-.7-3.1-1.9-3.7z" opacity=".1"/><path d="m199.8 236.8 4.3 4.5 11.1 3s.5-.5 2.3-.8c1.7-.3 11.1 3.7 11.9 3.7.7-.1-8.2-6.5-11.9-8.7-3.6-2.2-5.2-3.5-5.2-3.5s-1.1.9-2.6 1.3c-1.6.5-9.9.5-9.9.5z" fill="#e5e5e5"/><path d="m217.5 238.5c-3.6-2.2-5.2-3.5-5.2-3.5s-.5.4-1.3.8c.8.6 2.2 1.5 4.1 2.7 2.7 1.6 8.3 5.5 10.7 7.5 1.8.7 3.3 1.2 3.6 1.2.7-.1-8.3-6.5-11.9-8.7z" fill="#fff" opacity=".2"/><path d="m233.9 252.2c-3.3 2-5.9 6.1-5.9 9.6v.4c.9.7 2.2.8 3.8 0 2.6-1.3 4.7-4.5 4.7-7.1 0-1.9-1.1-2.9-2.6-2.9z" opacity=".5"/><path d="m234.5 251.8c-3.7 1.8-6.6 6.3-6.6 9.9 0 3.7 3 5.1 6.6 3.3 3.7-1.8 6.6-6.3 6.6-9.9 0-3.7-2.9-5.1-6.6-3.3zm.1 12.6c-3.3 1.6-6 .3-6-3s2.7-7.3 6-8.9 6-.3 6 3c-.1 3.3-2.8 7.3-6 8.9z" fill="#e5e5e5"/><path d="m241.1 255.1c0 3.7-3 8.1-6.6 9.9-3.7 1.8-6.6.3-6.6-3.3 0-3.7 3-8.1 6.6-9.9 3.7-1.8 6.6-.4 6.6 3.3z" opacity=".2"/><path d="m236.4 255.3c-.1 1.2-.5 2.4-1.2 3.5l3.9 2c.7-1.1 1.3-2.2 1.6-3.3z" fill="#fff" opacity=".2"/><path d="m211.8 248.2c-.7 1.1-1.2 2.3-1.4 3.4l17.6 8.8c.2-1.2.6-2.4 1.3-3.5z" fill="#fff" opacity=".2"/><path d="m163.8 255.5-9.7-3.4c-.8-.3-1.8-.2-3 .3-2.5 1.2-4.3 3.8-4.3 6.2 0 1.4.7 2.3 1.7 2.6l8.4 4.7c.9.5 2.2.5 3.6-.2 2.7-1.4 4.9-4.7 4.9-7.4.1-1.4-.6-2.4-1.6-2.8z" fill="#e5e5e5"/><path d="m163.8 255.5-9.7-3.4c-.8-.3-1.8-.2-3 .3-2.5 1.2-4.3 3.8-4.3 6.2 0 1.4.7 2 1.7 2.6l8.4 4.7c.9.5 2.2.5 3.6-.2 2.7-1.4 4.9-4.7 4.9-7.4.1-1.4-.6-2.4-1.6-2.8z" opacity=".15"/><path d="m185.1 263.2s-6.3-4.1-10.1-5.9-7.7-2.4-7.7-2.4c-1.3-.2-2.9-.5-4.7.4-3.7 1.8-6.6 6.3-6.6 9.9 0 1.9 1.2 3 2.3 3.6 0 0 2.3 1.4 6.9 3.6s10.3 4.7 10.3 4.7c1.2.7 2.9.7 4.9-.3 3.7-1.8 6.6-6.3 6.6-9.9 0-1.8-.7-3.1-1.9-3.7z" fill="#e5e5e5"/><path d="m185.1 263.2s-6.3-4.1-10.1-5.9-7.7-2.4-7.7-2.4c-1.3-.2-2.9-.5-4.7.4-3.7 1.8-6.6 6.3-6.6 9.9 0 1.9 1.2 3 2.3 3.6 0 0 2.3 1.4 6.9 3.6s10.3 4.7 10.3 4.7c1.2.7 2.9.7 4.9-.3 3.7-1.8 6.6-6.3 6.6-9.9 0-1.8-.7-3.1-1.9-3.7z" opacity=".1"/><path d="m145.7 248.6 4.3 4.5 11.1 3s.5-.5 2.3-.8c1.7-.3 11.1 3.7 11.9 3.7.7-.1-8.2-6.5-11.9-8.7-3.6-2.2-5.2-3.5-5.2-3.5s-1.1.9-2.6 1.3c-1.6.4-9.9.5-9.9.5z" fill="#e5e5e5"/><path d="m163.4 250.3c-3.6-2.2-5.2-3.5-5.2-3.5s-.5.4-1.3.8c.8.6 2.2 1.5 4.1 2.7 2.7 1.6 8.3 5.5 10.7 7.5 1.8.7 3.3 1.2 3.6 1.2.7-.1-8.3-6.5-11.9-8.7z" fill="#fff" opacity=".2"/><path d="m179.8 263.9c-3.3 2-5.9 6.1-5.9 9.6v.4c.9.7 2.2.8 3.8 0 2.6-1.3 4.7-4.5 4.7-7.1 0-1.8-1.1-2.9-2.6-2.9z" opacity=".5"/><path d="m180.4 263.6c-3.7 1.8-6.6 6.3-6.6 9.9 0 3.7 3 5.1 6.6 3.3 3.7-1.8 6.6-6.3 6.6-9.9 0-3.7-2.9-5.2-6.6-3.3zm.1 12.6c-3.3 1.6-6 .3-6-3s2.7-7.3 6-8.9 6-.3 6 3c-.1 3.2-2.7 7.2-6 8.9z" fill="#e5e5e5"/><path d="m187 266.9c0 3.7-3 8.1-6.6 9.9-3.7 1.8-6.6.3-6.6-3.3 0-3.7 3-8.1 6.6-9.9 3.7-1.9 6.6-.4 6.6 3.3z" opacity=".2"/><path d="m182.4 267.1c-.1 1.2-.5 2.4-1.2 3.5l3.9 2c.7-1.1 1.3-2.2 1.6-3.3z" fill="#fff" opacity=".2"/><path d="m157.7 260c-.7 1.1-1.2 2.3-1.4 3.4l17.6 8.8c.2-1.2.6-2.4 1.3-3.5z" fill="#fff" opacity=".2"/><path d="m99.8 90.5c-4.5 1.8-4.3 5.6 2.5 14.9s46.1 52.1 52.5 57.5c10.7 9.1 122.9 68.8 137.2 76.3 21.9 11.5 76.7 39.1 95.5 42.8 14.3 2.8 30.6 2.5 34.3 2.2 4.2-.3 12.7-6 8.7-15.5s-16.3-22.6-19.5-25.7c-3.3-3.1-5.3-7-9.3-9.9-7.8-5.6-136.2-67.9-154.4-76.9-18.1-9-119.3-63.2-127.7-65.1-8.3-1.8-16.7-1.8-19.8-.6z" fill="#e5e5e5"/><path d="m226.4 184.9s-4.8-2.5-5.8-1.9 1.9 4.3 1.9 4.3z" fill="#e5e5e5"/><path d="m276 159.8s-4.8-2.5-5.8-1.9 1.9 4.3 1.9 4.3z" fill="#e5e5e5"/><path d="m270.9 158.1c.8-.5 4 1.6 4.5 2l.5-.3s-4.8-2.5-5.8-1.9 1.9 4.3 1.9 4.3l1.3-.8c-.8-.7-3.1-2.9-2.4-3.3z" opacity=".1"/><path d="m292.5 151.6s-4.8-2.5-5.8-1.9 1.9 4.3 1.9 4.3z" fill="#e5e5e5"/><path d="m287.4 150c.8-.5 4 1.6 4.5 2l.5-.3s-4.8-2.5-5.8-1.9 1.9 4.3 1.9 4.3l1.3-.8c-.8-.7-3.1-2.9-2.4-3.3z" opacity=".1"/><path d="m307.5 143.2s-4.8-2.5-5.8-1.9 1.9 4.3 1.9 4.3z" fill="#e5e5e5"/><path d="m302.4 141.5c.8-.5 4 1.6 4.5 2l.5-.3s-4.8-2.5-5.8-1.9 1.9 4.3 1.9 4.3l1.3-.8c-.8-.7-3.1-2.8-2.4-3.3z" opacity=".1"/><path d="m323 133.7s-4.8-2.5-5.8-1.9 1.9 4.3 1.9 4.3z" fill="#e5e5e5"/><path d="m317.9 132c.8-.5 4 1.6 4.5 2l.5-.3s-4.8-2.5-5.8-1.9 1.9 4.3 1.9 4.3l1.3-.8c-.7-.7-3-2.8-2.4-3.3z" opacity=".1"/><path d="m336.9 124.8s-4.8-2.5-5.8-1.9 1.9 4.3 1.9 4.3z" fill="#e5e5e5"/><path d="m331.8 123.1c.8-.5 4 1.6 4.5 2l.5-.3s-4.8-2.5-5.8-1.9 1.9 4.3 1.9 4.3l1.3-.8c-.8-.7-3.1-2.9-2.4-3.3z" opacity=".1"/><path d="m348.8 116.1s-4.8-2.5-5.8-1.9 1.9 4.3 1.9 4.3z" fill="#e5e5e5"/><path d="m343.7 114.4c.8-.5 4 1.6 4.5 2l.5-.3s-4.8-2.5-5.8-1.9 1.9 4.3 1.9 4.3l1.3-.8c-.8-.7-3-2.9-2.4-3.3z" opacity=".1"/><path d="m359.4 107.3s-4.8-2.5-5.8-1.9 1.9 4.3 1.9 4.3z" fill="#e5e5e5"/><path d="m354.3 105.7c.8-.5 4 1.6 4.5 2l.5-.3s-4.8-2.5-5.8-1.9 1.9 4.3 1.9 4.3l1.3-.8c-.8-.8-3.1-2.9-2.4-3.3z" opacity=".1"/><path d="m370.6 98.1s-4.8-2.5-5.8-1.9 1.9 4.3 1.9 4.3z" fill="#e5e5e5"/><path d="m365.5 96.4c.8-.5 4 1.6 4.5 2l.5-.3s-4.8-2.5-5.8-1.9 1.9 4.3 1.9 4.3l1.3-.8c-.8-.7-3.1-2.9-2.4-3.3z" opacity=".1"/><path d="m250.9 159.6s13.2 4.3 21.9.8 57.4-31.4 82.7-52.3 46.5-39.5 46.5-39.5 14.9 5.2 13.2 11.8-26 39.9-43.8 72.3-19.4 42.2-15.3 51.9 9.7 11.6 9.7 11.6z" fill="#e5e5e5"/><path d="m412.6 74.6c.8 1.2 1.5 2.7 1.1 4.1-1.7 6.6-26 39.9-43.8 72.3s-19.4 42.2-15.3 51.9c1.8 4.1 3.5 6.6 5.2 8.4-1.3-1.6-2.6-3.8-3.8-6.7-4.1-9.7-2.5-19.4 15.3-51.9 17.8-32.4 42.2-65.7 43.8-72.3.6-2.1-.6-4.1-2.5-5.8z" opacity=".1"/><path d="m412.6 74.6c.8 1.2 1.5 2.7 1.1 4.1-1.7 6.6-26 39.9-43.8 72.3s-19.4 42.2-15.3 51.9c1.8 4.1 3.5 6.6 5.2 8.4-1.3-1.6-4.6-6-5.8-8.9-4.1-9.7-2.5-19.4 15.3-51.9 17.8-32.4 42.1-65.7 43.8-72.3.5-1.5 0-2.4-.5-3.6z" fill="#fff" opacity=".3"/><path d="m315.8 184.1c3.9-.8 2.1-5.2.1-7.5-2.5-3-21.7-14.6-30.4-13.1s-12.2 3.1-11.5 4.6 31.3 18.3 41.8 16z" opacity=".05"/><path d="m286.4 164c-3.7 1.1 8.4 7.3 14.9 9.8s9.9 4.5 12.6 3.6c2.6-.9-5.9-6-12.1-9-6.3-3-12.9-5.2-15.4-4.4z" fill="#e5e5e5"/><path d="m317.4 194c-1.8.9 1.1 3.6 4 5.3 3.9 2.2 7.5-.2 4.6-2.7-2.8-2.5-6.6-3.5-8.6-2.6z" opacity=".05"/><path d="m327 190.8c-1.8.9 1.2 3.6 4.1 5.2 4 2.1 7.5-.3 4.6-2.8s-6.8-3.4-8.7-2.4z" opacity=".05"/><path d="m374 272.3c23.6 8.5 44.9 8.6 53.6 6.1 1.2-.3 2.3-.8 3.2-1.2.7-1.9.9-4 .3-6.5-1.1.7-2.3 1.3-3.6 1.6-13.7 2.7-38.4-.6-49.9-5-25.3-9.7-191.5-97-210.1-108.1-18.6-11.2-44-32.3-44-32.3s22.6 23.6 44.6 36.3 174.2 97.7 205.9 109.1z" fill="#fc0"/><path d="m431.4 272.8c-1.1.7-2.6 1.5-4 1.8-13.7 2.7-38.4-.6-49.9-5-25.3-9.7-191.5-97-210.1-108.1-16.6-10-39-30.4-43.5-34.1-.4-.3-17-19.1-26.2-29.4.9 2 2.4 4.4 4.6 7.4 6.8 9.3 46.1 52.1 52.5 57.5 10.7 9.1 122.9 68.8 137.2 76.4 21.9 11.5 76.7 39.1 95.5 42.8 14.3 2.8 30.6 2.5 34.3 2.2 3.5-.3 10.2-4.4 9.6-11.5z" opacity=".1"/><path d="m430.8 277.2c-.9.5-2 .9-3.2 1.2-8.7 2.5-30.1 2.3-53.6-6.1-31.7-11.4-184-96.4-206-109.2s-44.6-36.3-44.6-36.3 25.5 28.6 44 39.7c15.6 9.4 119.1 70 179 99.7 16.8 7.7 32.5 14.2 41 15.9 14.3 2.8 30.6 2.5 34.3 2.2 2.8-.2 7.4-2.7 9.1-7.1z" fill="#39c"/><path d="m421.7 284.3c4.2-.3 12.7-6 8.7-15.5-1.9-4.5-6.1-10.2-10.2-15.3-6.1 5.5-16.8 9.5-32.4 3.3-24.5-9.6-191-90.4-217.4-106.3-22.5-13.5-61.7-48.2-72.9-58.3-1.6 2.2-.3 6.1 4.9 13.2 6.8 9.3 46.1 52.1 52.5 57.5 10.7 9.1 122.9 68.8 137.2 76.4 21.9 11.5 76.7 39.1 95.5 42.8 14.1 2.8 30.4 2.5 34.1 2.2z" opacity=".1"/><path d="m102.3 105.4c3.1 4.3 13 15.5 23.5 27l15.7-8.1-43.6-25.8c.9 1.9 2.3 4.1 4.4 6.9z" opacity=".1"/><path d="m103.1 96.5 39.4 26.8 5 3.2-107.8-2.5-10.6-19.2z" fill="#e5e5e5"/><path d="m31.4 104.5-2.3.3 10.6 19.2 107.8 2.5-5-3.2-102.8-2.2z" opacity=".1"/><path d="m40.1 120.3 100.5 2.4 1.9.6-102.8-2.2z" fill="#fff" opacity=".3"/><path d="m10.6 67.3v64.5c0 2 19.4 12.9 24.8 10.8s16.3-9.9 16.7-12.4-23.1-51.5-26.7-55.2-12.9-8.7-12.9-8.7z" fill="#e5e5e5"/><path d="m25.4 75c-3.5-3.7-12.9-8.7-12.9-8.7l-1.9 1s9.4 5 12.9 8.7 27.1 52.7 26.7 55.2c-.3 2.1-8.1 8-13.8 11 5.6-2.6 15.3-9.6 15.7-12 .4-2.5-23.2-51.4-26.7-55.2z" opacity=".1"/><path d="m22.4 75.9c-3.5-3.7-11.8-8.6-11.8-8.6s9.4 5 12.9 8.7 27.1 52.7 26.7 55.2c-.3 2.1-8.1 8-13.8 11 6.1-3.5 12.3-8.8 12.6-11.1.4-2.5-23.1-51.5-26.6-55.2z" fill="#fff" opacity=".3"/><path d="m10.6 79.6v13.1l26.7 34.4z" fill="#39c"/><path d="m10.6 101.5v-8.8l26.7 34.4z" fill="#fc0"/><path d="m207.8 194.8s-4.8-2.5-5.8-1.9 1.9 4.3 1.9 4.3z" fill="#e5e5e5"/><path d="m202.6 193c.7-.4 3.5 1.3 4.7 2.1l.5-.3s-4.8-2.5-5.8-1.9 1.9 4.3 1.9 4.3l1.5-1c-1.3-1-3.4-2.8-2.8-3.2z" opacity=".1"/><path d="m191 203s-4.8-2.5-5.8-1.9 1.9 4.3 1.9 4.3z" fill="#e5e5e5"/><path d="m185.8 201.2c.7-.4 3.5 1.3 4.7 2.1l.5-.3s-4.8-2.5-5.8-1.9 1.9 4.3 1.9 4.3l1.5-1c-1.4-1-3.4-2.8-2.8-3.2z" opacity=".1"/><path d="m168 212.1s-4.8-2.5-5.8-1.9 1.9 4.3 1.9 4.3z" fill="#e5e5e5"/><path d="m162.8 210.3c.7-.4 3.5 1.3 4.7 2.1l.5-.3s-4.8-2.5-5.8-1.9 1.9 4.3 1.9 4.3l1.5-1c-1.3-1-3.4-2.8-2.8-3.2z" opacity=".1"/><path d="m147 220.1s-4.8-2.5-5.8-1.9 1.9 4.3 1.9 4.3z" fill="#e5e5e5"/><path d="m141.8 218.4c.7-.4 3.5 1.3 4.7 2.1l.5-.3s-4.8-2.5-5.8-1.9 1.9 4.3 1.9 4.3l1.5-1c-1.4-1-3.5-2.9-2.8-3.2z" opacity=".1"/><path d="m126.5 227.9s-4.8-2.5-5.8-1.9 1.9 4.3 1.9 4.3z" fill="#e5e5e5"/><path d="m121.3 226.1c.7-.4 3.5 1.3 4.7 2.1l.5-.3s-4.8-2.5-5.8-1.9 1.9 4.3 1.9 4.3l1.5-1c-1.3-1-3.4-2.8-2.8-3.2z" opacity=".1"/><path d="m115 93.2c-3 1 60.2 40.3 72.3 47.5 12.2 7.2 55.2 31.3 65.7 28.3s-36.8-27.3-50.3-34.3-80.9-43.9-87.7-41.5z" fill="#fff" opacity=".2"/><path d="m106.6 234.7s-4.8-2.5-5.8-1.9 1.9 4.3 1.9 4.3z" fill="#e5e5e5"/><path d="m101.4 232.9c.7-.4 3.5 1.3 4.7 2.1l.5-.3s-4.8-2.5-5.8-1.9 1.9 4.3 1.9 4.3l1.5-1c-1.3-.9-3.4-2.8-2.8-3.2z" opacity=".1"/><path d="m85.6 241.7s-4.8-2.5-5.8-1.9 1.9 4.3 1.9 4.3z" fill="#e5e5e5"/><path d="m80.3 240c.7-.4 3.5 1.3 4.7 2.1l.5-.3s-4.8-2.5-5.8-1.9 1.9 4.3 1.9 4.3l1.5-1c-1.3-1-3.4-2.8-2.8-3.2z" opacity=".1"/><path d="m228.1 205c26.3 14.3 51.8 27.9 61.4 33 2.4-2.2 5.1-4.3 7.7-5.9 14.6-8.7 31.7-4.6 31.7-4.6l-51.5-27.9z" opacity=".1"/><path d="m230.6 180.6s-22.5 14.5-49.6 25.2-62 23.6-107.7 38.8-53.9 18-53.9 18v2.5s10.4 9.3 21.2 8.3 156.2-32.4 195.9-39.4 64.9-12.8 76.5-10.3 16.4 4.9 21.4 5.7 16.3-2.3 10.3-9.9-35.7-26.4-55.6-33.1c-19.8-6.6-64.7-19-64.7-19s7.2 8.7 6.2 13.2z" fill="#e5e5e5"/><path d="m333.5 229.2c0-1.5-1-2.7-2.4-3.1-4.1-1.1-9-3-18-5-11.6-2.5-36.8 3.3-76.5 10.3s-185.1 38.4-195.9 39.5c-10.7 1-21.3-8.3-21.3-8.3v2.5s10.4 9.3 21.2 8.3c10.7-1 156.2-32.4 195.9-39.5 39.7-7 64.9-12.8 76.5-10.3 10.8 2.4 15.8 4.7 20.5 5.6z" opacity=".1"/><path d="m330.5 225.9c-4-1.2-8.9-3-17.4-4.8-11.6-2.5-36.8 3.3-76.5 10.3s-185.1 38.4-195.9 39.5c-10.7 1-21.3-8.3-21.3-8.3s10.9 8.3 21.6 7.2c10.7-1 155.9-32.5 195.6-39.5s64.7-12.4 76.2-9.9c10.9 2.4 13.1 3.8 17.7 5.5z" fill="#fff" opacity=".3"/><path d="m330.1 200.3c-1.8 1.5 10.9 19.8 19.4 25.7 22.8 15.8 41.4 23.1 52.1 20.1 11.3-3.2 6-6.2 3.9-9.1-2.6-3.7-8.5-6.5-21.1-13-11.9-6.2-52-25.8-54.3-23.7z" fill="#fff" opacity=".2"/><path d="m331.8 201.5c-.8.1 13.2 12.4 27 20.3s32.7 18.8 40.1 16.9 1.4-5.9-3.6-8.4c-4.9-2.5-61.5-29-63.5-28.8z" fill="#fff" opacity=".2"/><path d="m386.7 245.3c1.9.5 4.5 1.1 7.4 1.3l.4-5.6c-2-.1-4.1-.6-6-1.1z" fill="#656565"/><path d="m405.9 244.6c2.3-1.1 3.9-2.4 4.1-2.5-1.3-1.4-2.4-2.8-3.6-4.3-.4.2-1.7 1-3.6 1.8z" fill="#656565"/><path d="m387.9 239.8c-3-.8-5.3-1.7-5.3-1.7l-3.9 4.3s4 1.6 6.5 2.5c.1 0 .2.1.4.1z" fill="#656565"/><path d="m401.9 239.9c-1.3.5-2.9.9-4.6 1.1-.6.1-1.2.1-1.9.1l.1 5.6c1.2 0 2.5 0 3.8-.1 2-.2 3.9-.8 5.5-1.5z" fill="#656565"/><path d="m405.9 244.6c2.3-1.1 3.9-2.4 4.1-2.5-.2-.2-.4-.5-.6-.7-.7.5-2.2 1.5-4 2.4z" opacity=".3"/><path d="m386.7 245.3c1.9.5 4.5 1.1 7.4 1.3l.1-1.1c-2.8-.2-5.3-.7-7.2-1.2z" opacity=".3"/><path d="m404.3 244.2c-1.6.6-3.3 1.2-5.2 1.3-1.2.1-2.5.1-3.7.1v1.1c1.2 0 2.5 0 3.8-.1 2-.2 3.9-.8 5.5-1.5z" opacity=".3"/><path d="m386 244.1c-.3-.1-.7-.2-.9-.3-1.8-.6-4.4-1.6-5.7-2.1l-.7.7s4 1.6 6.5 2.5c.1 0 .2.1.4.1z" opacity=".3"/><path d="m293.9 195.1c3.9-.8 2.1-5.2.1-7.5-2.5-3-21.7-14.6-30.4-13.1s-12.2 3.1-11.5 4.6 31.4 18.3 41.8 16z" opacity=".05"/><g fill="#e5e5e5"><path d="m264.5 175c-3.7 1.1 8.4 7.3 14.9 9.8s9.9 4.5 12.6 3.6c2.6-.9-5.9-6-12.1-9s-12.9-5.2-15.4-4.4z"/><path d="m145.9 108.4c-2.6 1.4.3 7 6.8 7.3 5.5.3 6.1-3.3 3.2-5.4-2.7-1.9-7.4-3.2-10-1.9z"/><path d="m159.5 115.2c-2.6 1.4.3 7 6.8 7.3 5.5.3 6.1-3.3 3.2-5.4-2.6-1.9-7.4-3.2-10-1.9z"/><path d="m174.3 122.6c-2.6 1.4.3 7 6.8 7.3 5.5.3 6.1-3.3 3.2-5.4-2.7-1.9-7.4-3.3-10-1.9z"/><path d="m191.9 136.3c-2 1.1-1.5 3.9 1.8 5.5 3.6 1.8 6.1-1.4 4.5-3.5s-4.5-3-6.3-2z"/><path d="m226.4 153.6c-2 1.1-1.5 3.9 1.8 5.5 3.6 1.8 6.1-1.4 4.5-3.5s-4.5-3.1-6.3-2z"/></g><path d="m307.7 199.9c-1.9 1 1.2 3.9 4.3 5.7 4.2 2.4 8.1-.2 5-2.9-3.1-2.6-7.3-3.8-9.3-2.8z" opacity=".05"/><path d="m145.9 108.4c-2.6 1.4.3 7 6.8 7.3 5.5.3 6.1-3.3 3.2-5.4-2.7-1.9-7.4-3.2-10-1.9z" opacity=".05"/><path d="m148.8 109.7c-1.3.7.6 3.1 3.9 3.7 3.7.7 4.2-1.4 1.9-2.6-1.5-.9-4.5-1.8-5.8-1.1z" fill="#e5e5e5"/><path d="m159.5 115.2c-2.6 1.4.3 7 6.8 7.3 5.5.3 6.1-3.3 3.2-5.4-2.6-1.9-7.4-3.2-10-1.9z" opacity=".05"/><path d="m162.4 116.5c-1.3.7.6 3.1 3.9 3.7 3.7.7 4.2-1.4 1.9-2.6-1.5-.9-4.5-1.8-5.8-1.1z" fill="#e5e5e5"/><path d="m174.3 122.6c-2.6 1.4.3 7 6.8 7.3 5.5.3 6.1-3.3 3.2-5.4-2.7-1.9-7.4-3.3-10-1.9z" opacity=".05"/><path d="m177.2 123.8c-1.3.7.6 3.1 3.9 3.7 3.7.7 4.2-1.4 1.9-2.6-1.5-.8-4.5-1.8-5.8-1.1z" fill="#e5e5e5"/><path d="m191.9 136.3c-2 1.1-1.5 3.9 1.8 5.5 3.6 1.8 6.1-1.4 4.5-3.5s-4.5-3-6.3-2z" opacity=".05"/><path d="m193.7 137.1c-1.1.6-.8 2.1 1 3 2 1 3.3-.8 2.5-1.9-.9-1.2-2.5-1.7-3.5-1.1z" fill="#e5e5e5"/><path d="m226.4 153.6c-2 1.1-1.5 3.9 1.8 5.5 3.6 1.8 6.1-1.4 4.5-3.5s-4.5-3.1-6.3-2z" opacity=".05"/><path d="m234 149.6c-2 1.1-.3 3.5 2.3 4.6 2.8 1.2 5.3-.6 3.7-2.7-1.5-2-4.1-2.9-6-1.9z" fill="#e5e5e5"/><path d="m200.8 132.7c-2 1.1-.3 3.5 2.3 4.6 2.8 1.2 5.3-.6 3.7-2.7-1.5-2-4.1-2.9-6-1.9z" fill="#e5e5e5"/><path d="m234 149.6c-2 1.1-.3 3.5 2.3 4.6 2.8 1.2 5.3-.6 3.7-2.7-1.5-2-4.1-2.9-6-1.9z" opacity=".05"/><path d="m200.8 132.7c-2 1.1-.3 3.5 2.3 4.6 2.8 1.2 5.3-.6 3.7-2.7-1.5-2-4.1-2.9-6-1.9z" opacity=".05"/><path d="m228.2 154.3c-1.1.6-.8 2.1 1 3 2 1 3.3-.8 2.5-1.9-.9-1.1-2.5-1.6-3.5-1.1z" fill="#e5e5e5"/><path d="m202.7 132.9c-1.1.6-.4 2 1.4 2.8 2 1 2.9-.4 2-1.5-.8-1.1-2.4-1.8-3.4-1.3z" fill="#e5e5e5"/><path d="m235.8 150.1c-1.1.6-.4 2 1.4 2.8 2 1 2.9-.4 2-1.5-.8-1.1-2.4-1.9-3.4-1.3z" fill="#e5e5e5"/><path d="m10.6 67.3v64.5c0 2 19.4 12.9 24.8 10.8s16.3-9.9 16.7-12.4-23.1-51.5-26.7-55.2-12.9-8.7-12.9-8.7z" opacity=".1"/><path d="m.5 104.6c-.7 1.3 11.6 12.4 13 13s9.1 4.3 10.5.6-10.7-11-13-11.8c-2.2-.8-9.7-3.5-10.5-1.8z" fill="#e5e5e5"/><path d="m11 106.4c-2.3-.8-9.7-3.5-10.5-1.9-.7 1.3 11.6 12.4 13 13s9.1 4.3 10.5.6c1.5-3.6-10.7-10.9-13-11.7zm11.6 10.8c-.9 1.6-21-11.1-20.3-12.4.4-.7 6.3 1.6 8.6 2.4s12.9 7.8 11.7 10z" opacity=".2"/><path d="m340.6 249c.1 0 .2 0 .3.1l2.1 1c.6.3 1 1 1 1.7v7.6c0 .4-.3.6-.6.6-.1 0-.2 0-.3-.1l-2.1-1c-.6-.3-1-1-1-1.7v-7.6c0-.4.3-.6.6-.6m0-1c-.8 0-1.6.7-1.6 1.6v7.6c0 1.1.6 2.1 1.6 2.6l2.1 1c.2.1.5.2.7.2.8 0 1.6-.7 1.6-1.6v-7.6c0-1.1-.6-2.1-1.6-2.6l-2.1-1c-.2-.2-.5-.2-.7-.2z" opacity=".1"/></svg>