<svg enable-background="new 0 0 720 560" viewBox="0 0 720 560" xmlns="http://www.w3.org/2000/svg"><path d="m40 290 160-80 220 110-160 80z" opacity=".3"/><path d="m214.5 307.7c-7.5-3.7-14.2-4.2-19.2-1.9l-14 7c-5.4 2.4-8.8 7.9-8.8 15.9 0 15.5 12.5 34.3 28 42 7.6 3.8 14.6 4.2 19.6 1.8 0 0 13.9-6.9 15.1-7.6 4.5-2.7 7.3-7.9 7.3-15.2 0-15.5-12.5-34.3-28-42z" fill="#2d3134"/><path d="m220.4 372.3c2-1 13.7-6.8 14.8-7.5 4.5-2.7 7.3-7.9 7.3-15.2 0-6.2-2.1-13-5.5-19.3l-14 7c3.4 6.4 5.5 13.1 5.5 19.3 0 7.7-3.1 13.1-8.1 15.7z" opacity=".29"/><path d="m221.5 353c0 11.6-9.4 16.3-21 10.5s-21-19.9-21-31.5 9.4-16.3 21-10.5 21 19.9 21 31.5z" fill="#999"/><path d="m202.3 362.8c-11.6-5.8-21-19.9-21-31.5 0-5.7 2.3-9.7 6-11.7-4.7 1.5-7.7 5.8-7.7 12.4 0 11.6 9.4 25.7 21 31.5 5.9 2.9 11.2 3.2 15 1.2-3.7 1.1-8.3.6-13.3-1.9z" fill="#808285"/><path d="m211 346.2c0 4.8-3.9 6.8-8.8 4.4-4.8-2.4-8.8-8.3-8.8-13.1s3.9-6.8 8.8-4.4c4.9 2.3 8.8 8.2 8.8 13.1z" fill="#2d3134"/><path d="m211 346.2c0 4.8-3.9 6.8-8.8 4.4-4.8-2.4-8.8-8.3-8.8-13.1s3.9-6.8 8.8-4.4c4.9 2.3 8.8 8.2 8.8 13.1z" opacity=".39"/><path d="m209.3 347c0 4.8-3.9 6.8-8.8 4.4s-8.8-8.3-8.8-13.1 3.9-6.8 8.8-4.4 8.8 8.2 8.8 13.1z" fill="#2d3134"/><path d="m228.5 356.7c0 15.5-12.5 21.7-28 14s-28-26.5-28-42 12.5-21.7 28-14 28 26.5 28 42z" opacity=".11"/><path d="m94.5 247.7c-7.5-3.7-14.2-4.2-19.2-1.9l-14 7c-5.4 2.4-8.8 7.9-8.8 15.9 0 15.5 12.5 34.3 28 42 7.6 3.8 14.6 4.2 19.6 1.8 0 0 13.9-6.9 15.1-7.6 4.5-2.7 7.3-7.9 7.3-15.2 0-15.5-12.5-34.3-28-42z" fill="#2d3134"/><path d="m100.4 312.3c2-1 13.7-6.8 14.8-7.5 4.5-2.7 7.3-7.9 7.3-15.2 0-6.2-2.1-13-5.5-19.3l-14 7c3.4 6.4 5.5 13.1 5.5 19.3 0 7.7-3.1 13.1-8.1 15.7z" opacity=".29"/><path d="m101.5 293c0 11.6-9.4 16.3-21 10.5s-21-19.9-21-31.5 9.4-16.3 21-10.5 21 19.9 21 31.5z" fill="#999"/><path d="m82.3 302.8c-11.6-5.8-21-19.9-21-31.5 0-5.7 2.3-9.7 6-11.7-4.7 1.5-7.7 5.8-7.7 12.4 0 11.6 9.4 25.7 21 31.5 5.9 2.9 11.2 3.2 15 1.2-3.7 1.1-8.3.6-13.3-1.9z" fill="#808285"/><path d="m91 286.2c0 4.8-3.9 6.8-8.8 4.4-4.8-2.4-8.8-8.3-8.8-13.1s3.9-6.8 8.8-4.4c4.9 2.3 8.8 8.2 8.8 13.1z" fill="#2d3134"/><path d="m91 286.2c0 4.8-3.9 6.8-8.8 4.4-4.8-2.4-8.8-8.3-8.8-13.1s3.9-6.8 8.8-4.4c4.9 2.3 8.8 8.2 8.8 13.1z" opacity=".39"/><path d="m89.3 287c0 4.8-3.9 6.8-8.8 4.4s-8.8-8.3-8.8-13.1 3.9-6.8 8.8-4.4 8.8 8.2 8.8 13.1z" fill="#2d3134"/><path d="m108.5 296.7c0 15.5-12.5 21.7-28 14s-28-26.5-28-42 12.5-21.7 28-14 28 26.5 28 42z" opacity=".11"/><path d="m200 140-160 80v20l220 110 160-80v-20z" fill="#656565"/><path d="m420 250v20l-160 80v-20z" opacity=".29"/><path d="m40 220v20l220 110v-20z" opacity=".11"/><path d="m370 280-60 30v10l140 50 20-10v-10zm-28 34 28-14 56 42z" fill="#656565"/><path d="m310 310v10l140 50v-10z" opacity=".11"/><path d="m450 370 20-10v-10l-20 10z" opacity=".29"/><path d="m370 300 56 42 24 8-80-60z" opacity=".11"/><path d="m330 310 12 4 28-14v-10z" opacity=".29"/><path d="m360 70-120-60-140 70v150l120 60 140-70 40-40v-90z" fill="#e5e5e5"/><path d="m400 90v90l-140 70v-90z" opacity=".29"/><path d="m100 80v150l120 60 40-40v-90z" opacity=".11"/><path d="m260 250-40 40 140-70 40-40z" opacity=".35"/><path d="m270 170v20l120-60v-20z" fill="#fff" opacity=".5"/><path d="m560 549.9 120-60-200-99.9-120 60z" opacity=".3"/><path d="m690 440-130-67v-33l-40-20-6-33-34-17-100 50v70l40 20 10 40 160 80 100-50z" fill="#f90"/><path d="m402.8 395.8c-8.1-4.1-15.5-4.5-21-2.1l-15.3 7.6c-5.9 2.6-9.5 8.6-9.5 17.3 0 16.8 13.7 37.3 30.5 45.8 8.3 4.2 15.9 4.6 21.4 1.9 0 0 15.2-7.5 16.4-8.3 4.9-2.9 7.9-8.6 7.9-16.5.1-16.8-13.6-37.3-30.4-45.7z" fill="#2d3134"/><path d="m409.2 466.1c2.2-1.1 14.9-7.4 16.1-8.1 4.9-2.9 7.9-8.6 7.9-16.5 0-6.8-2.2-14.1-6-21.1l-15.3 7.6c3.7 6.9 6 14.3 6 21.1.1 8.4-3.2 14.3-8.7 17z" opacity=".39"/><path d="m410.4 445.1c0 12.6-10.2 17.8-22.9 11.4-12.6-6.3-22.9-21.7-22.9-34.3s10.2-17.8 22.9-11.4c12.6 6.3 22.9 21.7 22.9 34.3z" fill="#a9abb0"/><path d="m389.4 455.8c-12.6-6.3-22.9-21.7-22.9-34.3 0-6.2 2.5-10.6 6.5-12.7-5.1 1.6-8.4 6.4-8.4 13.5 0 12.6 10.2 28 22.9 34.3 6.4 3.2 12.2 3.5 16.4 1.3-4 1.2-9 .6-14.5-2.1z" fill="#808285"/><path d="m398.9 437.7c0 5.3-4.3 7.4-9.5 4.8s-9.5-9-9.5-14.3 4.3-7.4 9.5-4.8 9.5 9 9.5 14.3z" fill="#2d3134"/><path d="m398.9 437.7c0 5.3-4.3 7.4-9.5 4.8s-9.5-9-9.5-14.3 4.3-7.4 9.5-4.8 9.5 9 9.5 14.3z" opacity=".39"/><path d="m397 438.6c0 5.3-4.3 7.4-9.5 4.8s-9.5-9-9.5-14.3 4.3-7.4 9.5-4.8 9.5 9 9.5 14.3z" fill="#2d3134"/><path d="m418 449.1c0 16.8-13.7 23.7-30.5 15.2s-30.5-28.8-30.5-45.7 13.7-23.7 30.5-15.2 30.5 28.9 30.5 45.7z" opacity=".06"/><path d="m590 530-160-80-10-40-40-20v-70l34 17 6 33 40 20v35l130 65z" opacity=".11"/><path d="m460 425.2 34.1 16.8 70.2-34.8-35.3-18z" fill="#2d3134"/><path d="m460 390.3 100-50.3v33.3l-100 51.7z" opacity=".29"/><path d="m554.5 275.7c3.1 1.2 6.2 8.5 9 13.4s9.5 14.5 10.5 15.4c1 .8 8.2 7.8 9.3 9.8s2.2 3.6 2.2 3.6l-9.2 2.6s-4.6-4-6.2-6.1c-1.2-1.5-2.3-3.1-3.7-4.3s-14.6-12.6-14.6-12.6z" fill="#28896d"/><path d="m414 337 6 33 100-50-6-33z" opacity=".29"/><path d="m487 350 34.5-17.2v-4.5l-9.7-36.8-3-1.5-34.5 17.3 5.2 39z" fill="#2d3134"/><path d="m511.8 291.5 9.7 36.7v4.6l-34.5 17.2v-4.5l-9.7-36.7z" opacity=".29"/><path d="m474.3 307.3 5.2 39 7.5 3.7v-4.5l-9.7-36.7z" opacity=".11"/><path d="m514 363.5 34.5-17.2v-4.5l-27-13.5-34.5 17.2v4.5z" fill="#2d3134"/><path d="m548.5 341.8v4.5l-34.5 17.2v-4.5z" opacity=".29"/><path d="m487 345.5v4.5l27 13.5v-4.5z" opacity=".11"/><path d="m442.8 372 34.5-17.2v-4.5l-9.8-36.8-3-1.5-34.5 17.3 5.3 39z" fill="#2d3134"/><path d="m467.5 313.5 9.8 36.7v4.6l-34.5 17.2v-4.5l-9.8-36.7z" opacity=".29"/><path d="m430 329.3 5.3 39 7.5 3.7v-4.5l-9.8-36.7z" opacity=".11"/><path d="m469.8 385.5 34.5-17.2v-4.5l-27-13.5-34.5 17.2v4.5z" fill="#2d3134"/><path d="m504.3 363.8v4.5l-34.5 17.2v-4.5z" opacity=".29"/><path d="m442.8 367.5v4.5l27 13.5v-4.5z" opacity=".11"/><path d="m527.7 326.7s32.5 11 38.1 14.4 8.4 6.9 8.6 12.3-1.3 33.2-.6 38.4c.6 5.2 2.4 11 2.4 11s-2.7 4-18.3 1.3c-1.3-.2-2.4-34.3-2.4-37.7s.6-8.9.6-8.9-8.3-1.4-17.5-3.4c-8.8-1.9-23.3-9.2-23.3-9.2l-.6-19.4z" fill="#06547a"/><path d="m527.7 326.7s32.5 11 38.1 14.4 8.4 6.9 8.6 12.3-1.3 33.2-.6 38.4c.6 5.2 2.4 11 2.4 11s-2.7 4-18.3 1.3c-1.3-.2-2.4-34.3-2.4-37.7s.6-8.9.6-8.9-8.3-1.4-17.5-3.4c-8.8-1.9-23.3-9.2-23.3-9.2l-.6-19.4z" opacity=".2"/><path d="m495.6 320.9s-4.8 7.8-5.8 15.1c-1 7.4.4 12.7 6.2 17.5 3.6 3 19 17.2 20.3 20s.5 39.2 1.8 41.2c1.3 1.9 6.5 3.3 10.7 3.2 4.4-.1 6.7-2.4 6.5-3.2-.2-.9 2.3-36.3.6-43.5-1.4-6.2-16.4-29.7-16.4-29.7l3.7-14z" fill="#06547a"/><path d="m534.6 272.9c-8.5.6-22.1 2.7-25.6 7.2-3.6 4.5-7.5 14.9-8.6 21.3s-1.6 13.4-3.9 16.8-5.5 7.8-4.9 9.3c.5 1.5 14.8 3.1 22.3 4.2 7.4 1.1 18.6-3.1 20-3.8s1.1-9.7 2.7-12.7 9.7-10.3 11.5-13 4-3.9 5.6-7.4c1.6-3.6 6.4-12.2 4.7-15.2-1.6-3.1-3.9-8.2-23.8-6.7z" fill="#28896d"/><path d="m543.2 288.8c-2.3 6.8-6.9 14.2-9.9 20.5-2.2 4.6-8.3 21.8-7.9 22.9s7 .2 8.1-.6c1.1-.9 1-11.9 9.1-21.9 3.8-4.8 9.4-11.5 9.4-11.5s-3.7-2-1-11.6c1.2-4.5 2.3-12.7 2.3-12.7l-4.6-.9c-.1-.1-3.4 9.5-5.5 15.8z" fill="#fc0"/><path d="m526.3 273.7s4.8 11.9 4.7 24.6-9.6 38.8-10.7 41.1c-1.7 3.5-33.9 5.1-32.6-4.3.3-2.3 9.2-18 10.4-25.4 1.6-9.9 4.5-23.5 10.1-29.4s18.1-6.6 18.1-6.6z" fill="#fc0"/><path d="m525.5 325.5c-1.6 3.3-31.2 4.9-32.2-3.3-1.2 2.5-2 4.4-2.1 5-1.3 9.4 30.5 7.7 32.2 4.3.3-.8 2.2-6.3 2.1-6z" fill="#fff"/><path d="m545 281s4.1 2.4 6 .4 6.6-11.2 7.2-18.2-1-14.7-11.5-15-11.5 7.5-11.8 9.1c-.4 1.6-1.1 5.6-1 7.1s.5 3.2.5 3.2-1 2.7-2.2 4-4.7 2.8-3.7 7.1 6.3 7 10.2 7c4 0 6.3-4.7 6.3-4.7z" fill="#fbd7c7"/><path d="m534.1 266.9.5.8s-1.5-6.2.8-7.2 3.1 2.4 3.1 2.4 1.1 1.6 1.9 1.3 3.2-3.8 5.1-3.7 4.9 2.8 8.5 2.7 4.5-1.8 4.5-1.8 2.3-11.2-10-13.5c-12.3-2.2-14.8 8.7-15 10.8-.6 4.8.6 8.2.6 8.2z" fill="#762c07"/><path d="m560.4 329.9c-1.7.4-2.9 1.5-2.6 2.3l10.1 37.9c.2.8 1.8 1.2 3.4.7 1.7-.4 2.9-1.5 2.6-2.3l-10.1-37.9c-.2-.9-1.7-1.2-3.4-.7z" fill="#2d3134"/><path d="m561.2 332.9c-1.7.4-3.2.1-3.4-.7l10.1 37.9c.2.8 1.8 1.2 3.4.7 1.7-.4 2.9-1.5 2.6-2.3l-10.1-37.9c.3.8-.9 1.9-2.6 2.3z" opacity=".2"/><path d="m585.5 323.3c-.7-2-3-2.9-7.2-2.9-5.3 0-12.9 1.5-20.8 4.1-6.6 2.2-12.6 4.8-16.9 7.5-5.1 3.1-7.1 5.8-6.4 8.2.7 2 3 2.9 7.2 2.9 5.3 0 12.9-1.5 20.8-4.1 9-2.8 25.2-9.9 23.3-15.7zm-27.1 4.1c5.4-1.8 10.8-3.1 15.2-3.6l-13.3 6.2-10.8.8c2.7-1.2 5.8-2.4 8.9-3.4zm-21.3 11.9c-.1-.3.6-1.9 5.1-4.7.1-.1.3-.2.4-.3l15.5-1.2-2.3 4.7c-5.5 1.5-10.6 2.3-14.3 2.3-3.4.1-4.3-.6-4.4-.8zm24.3-3.1c-.6.2-1.1.4-1.7.5l2.1-4.2 19.2-9c1.2.2 1.7.6 1.7.7.4 1.4-6.3 7.1-21.3 12z" fill="#2d3134"/><path d="m531.4 329.3s7.3 2.2 10.1 2.2 10.1-.7 12.4-.1 7 1.8 7.2 2.7-3.7 8.5-5.7 8.8c-1.9.2-3.2 1.1-4.7.6s-6.7-.8-8.3-1.7-3.7-3.3-5.4-3.6-8.2-2.9-8.2-2.9z" fill="#fbd7c7"/><path d="m514.1 279.7c3.3-.5 9.2.5 9.2 7.5-.1 9.3-3.3 18-4.6 22.4s-2.5 11.9-2.5 11.9 4.8 2.3 8.4 3.1c3.7.8 11 5.2 11 5.2l3.7.9-2.4 8.6-5-1.3s-9.6-1.7-14.4-2.5-14.2-3.3-15.4-6 1.5-20.8 2.2-27.9c.9-8.3-.7-20.3 9.8-21.9z" fill="#28896d"/><path d="m539.4 470.6c-7.3-3.7-14-4.1-19-1.9l-13.8 6.9c-5.3 2.4-8.6 7.8-8.6 15.7 0 15.3 12.3 33.8 27.6 41.4 7.5 3.8 14.4 4.2 19.3 1.7 0 0 13.7-6.8 14.9-7.5 4.5-2.7 7.2-7.8 7.2-15 0-15.1-12.3-33.7-27.6-41.3z" fill="#2d3134"/><path d="m545.3 534.3c2-1 13.5-6.7 14.5-7.4 4.5-2.7 7.2-7.8 7.2-15 0-6.1-2-12.8-5.4-19.1l-13.8 6.9c3.4 6.3 5.4 12.9 5.4 19.1 0 7.7-3 13-7.9 15.5z" opacity=".39"/><path d="m546.3 515.3c0 11.4-9.3 16.1-20.7 10.4s-20.7-19.6-20.7-31.1c0-11.4 9.3-16.1 20.7-10.4 11.5 5.7 20.7 19.6 20.7 31.1z" fill="#a9abb0"/><path d="m527.4 524.9c-11.4-5.7-20.7-19.6-20.7-31.1 0-5.6 2.2-9.6 5.9-11.5-4.6 1.5-7.6 5.8-7.6 12.2 0 11.4 9.3 25.4 20.7 31.1 5.8 2.9 11 3.1 14.8 1.2-3.6 1.1-8.2.6-13.1-1.9z" fill="#808285"/><path d="m536 508.5c0 4.8-3.9 6.7-8.6 4.3-4.8-2.4-8.6-8.2-8.6-13s3.9-6.7 8.6-4.3 8.6 8.3 8.6 13z" fill="#2d3134"/><path d="m536 508.5c0 4.8-3.9 6.7-8.6 4.3-4.8-2.4-8.6-8.2-8.6-13s3.9-6.7 8.6-4.3 8.6 8.3 8.6 13z" opacity=".39"/><path d="m534.3 509.3c0 4.8-3.9 6.7-8.6 4.3-4.8-2.4-8.6-8.2-8.6-13s3.9-6.7 8.6-4.3c4.7 2.5 8.6 8.3 8.6 13z" fill="#2d3134"/><path d="m553.2 518.9c0 15.3-12.3 21.4-27.6 13.8-15.2-7.6-27.6-26.2-27.6-41.4 0-15.3 12.3-21.4 27.6-13.8s27.6 26.2 27.6 41.4z" opacity=".06"/><path d="m460.3 425.3-41.3-20.8v-34.5h.8v34l40.9 20.7z" opacity=".2"/><path d="m575.8 319.9c.7-1.6 4.5-3.8 8.5-2.5s5.2 5.3 4.7 6.5-5.4-.3-7.3-1c-1.9-.6-6.9-.6-5.9-3z" fill="#fbd7c7"/><path d="m490.1 380 99.9-49.9 34.4 17.2c26.5 13.2 46.3 37 54.4 65.5l7.2 25.2-100 50-95.9-48z" fill="#f90"/><path d="m490.1 380 34.4 17.2c26.5 13.2 46.2 37 54.3 65.5l7.2 25.3-95.9-48z" opacity=".11"/><path d="m678.8 412.7c-4.3-15-11.8-28.7-21.8-40.2l-100 50c10 11.5 17.5 25.2 21.8 40.2l7.2 25.3 100-50z" opacity=".29"/><path d="m670 460v20l-60 30v-20z" fill="#2d3134"/><path d="m672 468.9c0 4.4 3.6 6.2 8 4s8-7.6 8-12-3.6-6.2-8-4c-4.4 2.3-8 7.6-8 12z" fill="#fff"/><ellipse cx="682.5" cy="465.6" fill="#2d3134" opacity=".3" rx="4.4" ry="2.9" transform="matrix(-.6313 .7756 -.7756 -.6313 1474.3629 230.1492)"/><ellipse cx="678.4" cy="465.6" fill="#2d3134" opacity=".3" rx="4.4" ry="2.9" transform="matrix(-.6313 .7756 -.7756 -.6313 1467.715 233.3099)"/><path d="m592 508.9c0 4.4 3.6 6.2 8 4s8-7.6 8-12-3.6-6.2-8-4c-4.4 2.3-8 7.6-8 12z" fill="#fff"/><ellipse cx="602.5" cy="505.6" fill="#2d3134" opacity=".3" rx="4.4" ry="2.9" transform="matrix(-.6313 .7756 -.7756 -.6313 1374.8833 357.4449)"/><ellipse cx="598.4" cy="505.6" fill="#2d3134" opacity=".3" rx="4.4" ry="2.9" transform="matrix(-.6313 .7756 -.7756 -.6313 1368.2352 360.6056)"/><path d="m690 440v40l-100 50v-40z" opacity=".29"/><path d="m578.5 247.5-4.5-3-93-46.5-6 3v81.8l6 3 6-3v-69.8l81 40.5 32 94.5 6 3 6-3z" fill="#f90"/><path d="m578.5 247.5 33.5 100.5-6 3-33.5-100.5z" opacity=".29"/><path d="m572.5 250.5-4.5-3-93-46.5v81.8l6 3v-75.8l87 43.5 32 94.5 6 3z" opacity=".11"/><path d="m481 210v75.8l6-3v-69.8z" opacity=".29"/><path d="m494.5 285.8 72-36v-1.5l-88.5-44.3-72 36v1.5z" fill="#f90"/><path d="m566.5 248.3v1.5l-72 36v-1.5z" opacity=".29"/><path d="m406 240v1.5l88.5 44.3v-1.5z" opacity=".11"/><path d="m500.5 286.5-4.5-3-93-46.5-6 3v81.8l6 3 6-3v-69.8l81 40.5 32 94.5 6 3 6-3z" fill="#f90"/><path d="m500.5 286.5 33.5 100.5-6 3-33.5-100.5z" opacity=".29"/><path d="m494.5 289.5-4.5-3-93-46.5v81.8l6 3v-75.8l87 43.5 32 94.5 6 3z" opacity=".11"/><path d="m403 249v75.8l6-3v-69.8z" opacity=".29"/></svg>