<svg enable-background="new 0 0 80 320" viewBox="0 0 80 320" xmlns="http://www.w3.org/2000/svg"><path d="m52.4 76.9c.8.4 2.4 2.7 2.3 5s.4 4.5-1.9 5.6c-2.2 1.1-3.9 2.8-6.3 4-2.4 1.1-5.5 3-5.5 3l-3.8-3.6s4.3-8.8 6-10.8c1.7-2.1 8.2-3.7 9.2-3.2z" fill="#fbd7c7"/><path d="m43.3 87.6c-.6-.9-.3-2.1.5-2.7l24.6-16.3c.9-.6 2.1-.3 2.7.5.6.9.3 2.1-.5 2.7l-24.6 16.4c-.9.5-2.1.3-2.7-.6z" fill="#cc291f"/><path d="m51.9 82.2c.3-.7-.2-2.3-2.1-2s-5.6 2.1-6.7 3.7-1.4 8.5-1.4 8.5 4.9-3 5.3-5.4c.2-1.4 4.6-4.1 4.9-4.8z" fill="#fbd7c7"/><path d="m36.9 89.8 4.7 5.2s-9.8 8.4-12.2 10.2-6.4 4.6-6.4 4.6l3.1 21.8-5.7 23.5s-4.8-20.5-6-30.7c-1-8.3-2.1-16.8-.6-19 1.4-2.2 9.6-8.3 14.5-10.9 4.2-2.4 8.6-4.7 8.6-4.7z" fill="#28896d"/><path d="m67.8 306.9c12.3-8.2-.2-17-17.1-21.3-7.4-1.9-20.2-11.6-39.8-1.1-15.8 8.5 7.5 12.3 16.4 16.8 10.6 5.5 18.9 19.9 40.5 5.6z" opacity=".2"/><path d="m33.4 275.5-10.4 1.2s-.2 1.8-2.1 3.8-10.1 6.4-11.7 7.6c-2.8 2.1-.9 5 1.5 5.3 2.6.4 6.1-.4 10.5-2 3.4-1.2 7.4-2.3 11.3-3.6 3.3-1.1 2.5-5.9 2-8s-1.1-4.3-1.1-4.3z" fill="#2d3134"/><path d="m10.7 291.9c2.7.4 6.5-.5 11.2-2.2 3.7-1.3 7.9-2.5 12-3.9.3-.1.5-.2.7-.3-.3 1-1 1.9-2.2 2.3-3.8 1.3-7.8 2.4-11.3 3.6-4.4 1.6-7.9 2.4-10.5 2-1.8-.3-3.2-1.9-2.8-3.5.6 1 1.7 1.8 2.9 2z" opacity=".4"/><path d="m69.5 291.3c-.2.1-10.6 2.2-10.6 2.2s-2.7 6-5.3 8.1c-2.1 1.8-8 5.7-7.7 7.9s6.3 4 11.9 1.1c2.6-1.3 12.9-6.6 13.4-10.1.6-3.9-1.7-9.2-1.7-9.2z" fill="#2d3134"/><path d="m57.8 308.9c2.6-1.3 12.9-6.6 13.4-10.1 0-.2 0-.3.1-.5.1.8.1 1.6-.1 2.3-.5 3.5-10.8 8.8-13.4 10.1-5.6 2.9-11.6 1.1-11.9-1.1 0-.3.1-.7.3-1.2 1.2 1.9 6.6 3 11.6.5z" opacity=".4"/><path d="m23.1 176.6s-6.1 23.2-5.7 34.4 2.4 23.6 2.9 33 .4 30.7-.1 34.9c-.6 4.8 1.8 5.1 4.8 5.2 3.1.1 9.1-.9 10.1-1.9s.9-8.6.9-14.2.5-14 .1-21.9c-.3-6.8 2.2-16.2 3.6-21.4s7.4-22.6 7.8-27.4.1-15.2.1-15.2z" fill="#06547a"/><path d="m23.1 176.6s-6.1 23.2-5.7 34.4 2.4 23.6 2.9 33 .4 30.7-.1 34.9c-.6 4.8 1.8 5.1 4.8 5.2 3.1.1 9.1-.9 10.1-1.9s.9-8.6.9-14.2.5-14 .1-21.9c-.3-6.8 2.2-16.2 3.6-21.4s7.4-22.6 7.8-27.4.1-15.2.1-15.2z" opacity=".2"/><path d="m30.4 181.9c.3 6.5 5.2 33.2 8.9 45.3s6.5 19.8 8.3 26.8 5.9 23.7 7 32c.4 3.2 1 12 1.7 12.9 3.3 4.1 11.3 2 12.9.6 1.7-1.6 2.6-2.4 2.2-5.5s-1.7-21.3-2.7-27.8c-1.7-10.7-5-15-6.1-20.1s1.1-24.1-2.3-42-7.5-21.7-7.5-21.7z" fill="#06547a"/><path d="m50.1 129.5-10.3-2.9-7.1 1.6-3.1 62z" fill="#28896d"/><path d="m37 72c-1 .3-3.2 2.4-3.6 4.8s-1.4 4.7.7 6.5c2.1 1.7 3.5 4 5.8 5.7s5.2 4.6 5.2 4.6l4.9-3s-2.5-10.4-3.9-13c-1.3-2.6-7.9-5.9-9.1-5.6z" fill="#fbd7c7"/><path d="m41 84.9c-1 .4-2.1 0-2.5-1l-11.5-27.2c-.4-1 0-2.1 1-2.5 1-.4 2.1 0 2.5 1l11.5 27.2c.4.9 0 2.1-1 2.5z" fill="#cc291f"/><path d="m46 80.3s-7.4-5.5-8.7-4.1-.2 2.7 1.6 4 5.4 6.4 5.4 6.4" fill="#fbd7c7"/><path d="m50.1 129.5s9.6 5.5 13.4 9c6.1 5.7.7 17.8-3.1 29.4s2.2 39.5 1.7 40.4c-.8 1.6-24.1 5.1-29.2 1.7-2.4-1.6-3.1-27.3-2.1-35.9 1-8.7 4.6-17.1 6.7-22.2 1.9-4.5 12.6-22.4 12.6-22.4z" fill="#fc0"/><path d="m34.3 128.2c-2.7-1.1-6-1.3-8.9-1.6.2 8.4-5.8 21.6-5.8 26.1s.6 25.2-.6 34.9c-.5 3.9-3.3 19.4-2.6 20.2 1 1.1 10 3 11.5-.2 1.2-2.5 4.8-33 4.9-38.8s1.5-40.6 1.5-40.6z" fill="#fc0"/><path d="m29.9 196.8s-6.2-.4-8.5-1-3.7-1.1-3.7-1.1l.9-5.8 11.8 1.9z" fill="#fff"/><path d="m30.5 196.8s4.3.6 11.6.3 18.2-2.2 18.2-2.2l-.7-6.3s-12.3 2.3-17.8 2.3c-5.4.1-11.6 0-11.6 0z" fill="#fff"/><path d="m24.7 121.4c.9 2.9 3.6 3.4 6 1 2.5-2.3 3.7-6.6 2.9-9.5-.9-2.9-3.6-3.4-6-1-2.5 2.4-3.8 6.6-2.9 9.5z" fill="#2d3134"/><path d="m49.5 129.3s-2.6-1.1-2.7-2.9c-.2-1.9 5.6-9.2.8-16s-16.9-5.5-19 1.2c-2.1 6.8-2.3 19.6-.7 21 2 1.7 5.6 1 5.6 1s1.2 3.1.9 4.9c-.4 2.5 1.9 2.7 3.2 2.7 1.7-.1 9.4-4.9 11.9-11.9z" fill="#fbd7c7"/><path d="m47.5 124.7-1.5.9s3.9-5.4 1.3-6.5-3.9 2.2-3.9 2.2-1.9-3.4-5-3.7-11.4-2.2-11.1-4.8c.1-1 3.4-10 13.2-8.3 9.9 1.7 10.2 9.9 9.6 13.2s-2.6 7-2.6 7z" fill="#762c07"/><g fill="#2d3134"><path d="m40.3 124.6c0 3 2.5 4.3 5.5 2.7 3-1.5 5.5-5.2 5.5-8.2s-2.5-4.3-5.5-2.7-5.5 5.2-5.5 8.2z"/><path d="m43.1 125.8c0 2.5 2 3.4 4.4 2.2s4.4-4.2 4.4-6.7-2-3.4-4.4-2.2-4.4 4.2-4.4 6.7z"/><path d="m41.1 103.5c-7.1-1.2-10.8 3.1-12.4 6 1.9-2.5 5.2-5 10.5-4 9.2 1.7 9.6 9.5 9.1 12.9 1.6 1.6 1.8 1.5 2.3-1.7.7-3.3.4-11.5-9.5-13.2z"/></g><path d="m44.7 93.8 5.9-3.4s8.5 14.5 10.5 17.7 4.4 8.3 4.8 11.8 2.5 20 1 29.2c-1.2 7.2-4.3 11.4-8.8 9.1-5.2-2.7-2.7-14.5-2.5-20s.3-17.7.3-17.7-4.1-9.5-6.2-13.6c-2.2-4.2-5-13.1-5-13.1z" fill="#28896d"/></svg>