<svg enable-background="new 0 0 456 224" viewBox="0 0 456 224" xmlns="http://www.w3.org/2000/svg"><path d="m400.2 109c.1-2.6 26.8-21.8 29.3-22.7 2.6-.9 15.9 3.1 16.3 5.7s-.8 55.6-2.3 56.5c-1.9 1.1-27.1-11.7-30.9-15.4-3.7-3.7-12.6-20.3-12.4-24.1z" fill="#e5e5e5"/><path d="m400.2 109c.1-2.6 26.8-21.8 29.3-22.7 2.6-.9 15.9 3.1 16.3 5.7s-.8 55.6-2.3 56.5c-1.9 1.1-27.1-11.7-30.9-15.4-3.7-3.7-12.6-20.3-12.4-24.1z" opacity=".1"/><path d="m445.8 92.1c-.4-2.6-13.7-6.6-16.3-5.7-.1 0-.4.2-.7.3 4.2.2 14.6 3.5 15 5.8.4 2.4-.6 49.8-2 55.9.9.3 1.5.3 1.7.2 1.5-.9 2.7-53.9 2.3-56.5z" opacity=".1"/><path d="m443.1 92.9c-.4-2.6-13.9-6.4-14.2-6.2 4.2.2 14.6 3.5 15 5.8.4 2.4-.6 49.8-2 55.9-.1-.1 1.6-52.9 1.2-55.5z" fill="#fff" opacity=".3"/><path d="m294.3 124.7s10.6 1.7 22.2.9 91.7-8.6 92.6-9.5 1.3-3.5 1.3-3.5 30.4 14 32.6 13.6 2.2-.4 2.2-.4 12.3 6.5 10.4 8.9-12.5-.9-12.5-.9-89.6 19-91.1 20.7-1.5 1.7-1.5 1.7z" fill="#e5e5e5"/><path d="m454.4 132.1c0 .1-.1.3-.2.4-1.9 2.4-12.5-.9-12.5-.9s-89.6 19-91.1 20.7-1.5 1.7-1.5 1.7l1.3 2.3s0 0 1.5-1.7 91.1-20.7 91.1-20.7 10.6 3.3 12.5.9c.5-.7 0-1.7-1.1-2.7z" opacity=".1"/><path d="m454.4 132.1c0 .1-.1.3-.2.4-1.9 2.4-12.5-.9-12.5-.9s-89.6 19-91.1 20.7-1.5 1.7-1.5 1.7l.2-1s0 0 1.5-1.7 91.1-20.7 91.1-20.7 5.6 1.6 9.5 1.7c1.5 0 2.4.2 3-.2z" fill="#fff" opacity=".3"/><path d="m220.5 75.4s7.2 6.1 5.4 8.8-13.5-2.7-13.5-2.7z" fill="#e5e5e5"/><path d="m220.5 75.4-.6.5c1.2 1 6.4 5.2 5.2 6.8-.8 1-6.6-1.9-9.6-3.5l-3.1 2.3s11.7 5.3 13.5 2.7-5.4-8.8-5.4-8.8z" opacity=".1"/><path d="m237.9 67.6s7.2 6.1 5.4 8.8c-1.8 2.6-13.5-2.7-13.5-2.7z" fill="#e5e5e5"/><path d="m237.9 67.6-.6.5c1.2 1 6.4 5.2 5.2 6.8-.8 1-6.6-1.9-9.6-3.5l-3.1 2.3s11.7 5.3 13.5 2.7c1.8-2.7-5.4-8.8-5.4-8.8z" opacity=".1"/><path d="m256.7 60.6s7.2 6.1 5.4 8.8-13.5-2.7-13.5-2.7z" fill="#e5e5e5"/><path d="m256.7 60.6-.6.5c1.2 1 6.4 5.2 5.2 6.8-.8 1-6.6-1.9-9.6-3.5l-3.1 2.3s11.7 5.3 13.5 2.7c1.8-2.7-5.4-8.8-5.4-8.8z" opacity=".1"/><path d="m279.9 54.6s7.2 6.1 5.4 8.8c-1.8 2.6-13.5-2.7-13.5-2.7z" fill="#e5e5e5"/><path d="m279.9 54.6-.6.5c1.2 1 6.4 5.2 5.2 6.8-.8 1-6.6-1.9-9.6-3.5l-3.1 2.3s11.7 5.3 13.5 2.7c1.8-2.7-5.4-8.8-5.4-8.8z" opacity=".1"/><path d="m302.2 48.7s7.2 6.1 5.4 8.8c-1.8 2.6-13.5-2.7-13.5-2.7z" fill="#e5e5e5"/><path d="m302.2 48.7-.6.5c1.2 1 6.4 5.2 5.2 6.8-.8 1-6.6-1.9-9.6-3.5l-3.1 2.3s11.7 5.3 13.5 2.7-5.4-8.8-5.4-8.8z" opacity=".1"/><path d="m325 44.2s7.2 6.1 5.4 8.8c-1.8 2.6-13.5-2.7-13.5-2.7z" fill="#e5e5e5"/><path d="m325 44.2-.6.5c1.2 1 6.4 5.2 5.2 6.8-.8 1-6.6-1.9-9.6-3.5l-3.1 2.3s11.7 5.3 13.5 2.7-5.4-8.8-5.4-8.8z" opacity=".1"/><path d="m345 39.7s7.2 6.1 5.4 8.8c-1.8 2.6-13.5-2.7-13.5-2.7z" fill="#e5e5e5"/><path d="m345 39.7-.6.5c1.2 1 6.4 5.2 5.2 6.8-.8 1-6.6-1.9-9.6-3.5l-3.1 2.3s11.7 5.3 13.5 2.7-5.4-8.8-5.4-8.8z" opacity=".1"/><path d="m367.4 35.6s7.2 6.1 5.4 8.8c-1.8 2.6-13.5-2.7-13.5-2.7z" fill="#e5e5e5"/><path d="m367.4 35.6-.6.5c1.2 1 6.4 5.2 5.2 6.8-.8 1-6.6-1.9-9.6-3.5l-3.1 2.3s11.7 5.3 13.5 2.7c1.8-2.7-5.4-8.8-5.4-8.8z" opacity=".1"/><path d="m95.3 25.7s21.8 7.3 58.3 5.6 237.3-13.1 249.4-13.6c13.1-.5 32.7 6.1 32.3 9.1-.2 1.8-12.7 3.4-20.6 4.7-8 1.3-109.4 20.3-142.2 29.8s-56.5 17.9-57.4 22-.6 5.4-.6 5.4z" fill="#e5e5e5"/><path d="m434.4 25.4c-2.5 1.6-13 2.9-20.1 4.1-8 1.3-109.4 20.3-142.2 29.8s-56.5 17.9-57.4 22-.6 5.4-.6 5.4l.4 2s-.2-1.3.6-5.4c.9-4.1 24.6-12.5 57.4-22s134.2-28.5 142.2-29.8 20.4-2.9 20.6-4.7c.1-.4-.3-.9-.9-1.4z" opacity=".1"/><path d="m434.4 25.4c-2.5 1.6-13 2.9-20.1 4.1-8 1.3-109.4 20.3-142.2 29.8s-56.5 17.9-57.4 22-.6 5.4-.6 5.4 0-2.1.8-6.2c.9-4.1 24.6-12.5 57.4-22s134.2-28.5 142.2-29.8 20.5-2.8 19.9-3.3z" fill="#fff" opacity=".3"/><path d="m86.3 86.4s-6.5-4.2-10.4-6.1-7.9-2.5-7.9-2.5c-1.3-.2-2.9-.5-4.8.4-3.8 1.9-6.8 6.4-6.8 10.2 0 2 1.3 3.1 2.3 3.7 0 0 2.3 1.5 7.1 3.7s10.6 4.9 10.6 4.9c1.2.7 3 .7 5-.3 3.8-1.9 6.8-6.4 6.8-10.2.1-1.8-.7-3.1-1.9-3.8z" fill="#e5e5e5"/><path d="m86.3 86.4s-6.5-4.2-10.4-6.1-7.9-2.5-7.9-2.5c-1.3-.2-2.9-.5-4.8.4-3.8 1.9-6.8 6.4-6.8 10.2 0 2 1.3 3.1 2.3 3.7 0 0 2.3 1.5 7.1 3.7s10.6 4.9 10.6 4.9c1.2.7 3 .7 5-.3 3.8-1.9 6.8-6.4 6.8-10.2.1-1.8-.7-3.1-1.9-3.8z" opacity=".1"/><path d="m80.5 100.3 10 3.5c.8.3 1.9.3 3.1-.3 2.5-1.3 4.4-3.9 4.4-6.4 0-1.4-.7-2.4-1.7-2.7l-8.6-4.8c-.9-.5-2.3-.5-3.7.2-2.8 1.4-5.1 4.8-5.1 7.6-.1 1.5.5 2.5 1.6 2.9z" fill="#e5e5e5"/><path d="m80.5 100.3 10 3.5c.8.3 1.9.3 3.1-.3 2.5-1.3 4.4-3.9 4.4-6.4 0-1.4-.7-2.1-1.7-2.7l-8.6-4.8c-.9-.5-2.3-.5-3.7.2-2.8 1.4-5.1 4.8-5.1 7.6-.1 1.5.5 2.5 1.6 2.9z" opacity=".15"/><path d="m58.3 83.1c-.7 1.1-1.2 2.3-1.5 3.5l18.1 9.1c.2-1.2.7-2.4 1.3-3.6z" fill="#fff" opacity=".2"/><path d="m89 89.2-19.3-9.3 25.6 3.9z" fill="#e5e5e5"/><path d="m94.5 84.4.8-.6-25.6-3.9.8.5z" fill="#fff" opacity=".2"/><path d="m73.7 119.1s-6.5-4.2-10.4-6.1-7.9-2.5-7.9-2.5c-1.3-.2-2.9-.5-4.8.4-3.8 1.9-6.8 6.4-6.8 10.2 0 2 1.3 3.1 2.3 3.7 0 0 2.3 1.5 7.1 3.7s10.6 4.9 10.6 4.9c1.2.7 3 .7 5-.3 3.8-1.9 6.8-6.4 6.8-10.2.1-1.8-.7-3.2-1.9-3.8z" fill="#e5e5e5"/><path d="m73.7 119.1s-6.5-4.2-10.4-6.1-7.9-2.5-7.9-2.5c-1.3-.2-2.9-.5-4.8.4-3.8 1.9-6.8 6.4-6.8 10.2 0 2 1.3 3.1 2.3 3.7 0 0 2.3 1.5 7.1 3.7s10.6 4.9 10.6 4.9c1.2.7 3 .7 5-.3 3.8-1.9 6.8-6.4 6.8-10.2.1-1.8-.7-3.2-1.9-3.8z" opacity=".1"/><path d="m67.8 133 10 3.5c.8.3 1.9.3 3.1-.3 2.5-1.3 4.4-3.9 4.4-6.4 0-1.4-.7-2.4-1.7-2.7l-8.6-4.8c-.9-.5-2.3-.5-3.7.2-2.8 1.4-5.1 4.8-5.1 7.6-.1 1.5.6 2.5 1.6 2.9z" fill="#e5e5e5"/><path d="m67.8 133 10 3.5c.8.3 1.9.3 3.1-.3 2.5-1.3 4.4-3.9 4.4-6.4 0-1.4-.7-2.1-1.7-2.7l-8.6-4.8c-.9-.5-2.3-.5-3.7.2-2.8 1.4-5.1 4.8-5.1 7.6-.1 1.5.6 2.5 1.6 2.9z" opacity=".15"/><path d="m45.7 115.8c-.7 1.1-1.2 2.3-1.5 3.5l18.1 9.1c.2-1.2.7-2.4 1.3-3.6z" fill="#fff" opacity=".2"/><path d="m76.3 121.9-19.2-9.3 25.5 3.8z" fill="#e5e5e5"/><path d="m81.8 117.1.8-.7-25.5-3.8.8.5z" fill="#fff" opacity=".2"/><path d="m58.2 148.9s-6.5-4.2-10.4-6.1-7.9-2.5-7.9-2.5c-1.3-.2-2.9-.5-4.8.4-3.8 1.9-6.8 6.4-6.8 10.2 0 2 1.3 3.1 2.3 3.7 0 0 2.3 1.5 7.1 3.7s10.6 4.9 10.6 4.9c1.2.7 3 .7 5-.3 3.8-1.9 6.8-6.4 6.8-10.2 0-1.9-.7-3.2-1.9-3.8z" fill="#e5e5e5"/><path d="m58.2 148.9s-6.5-4.2-10.4-6.1-7.9-2.5-7.9-2.5c-1.3-.2-2.9-.5-4.8.4-3.8 1.9-6.8 6.4-6.8 10.2 0 2 1.3 3.1 2.3 3.7 0 0 2.3 1.5 7.1 3.7s10.6 4.9 10.6 4.9c1.2.7 3 .7 5-.3 3.8-1.9 6.8-6.4 6.8-10.2 0-1.9-.7-3.2-1.9-3.8z" opacity=".1"/><path d="m52.3 162.8 10 3.5c.8.3 1.9.3 3.1-.3 2.5-1.3 4.4-3.9 4.4-6.4 0-1.4-.7-2.4-1.7-2.7l-8.6-4.8c-.9-.5-2.3-.5-3.7.2-2.8 1.4-5.1 4.8-5.1 7.6-.1 1.4.6 2.4 1.6 2.9z" fill="#e5e5e5"/><path d="m52.3 162.8 10 3.5c.8.3 1.9.3 3.1-.3 2.5-1.3 4.4-3.9 4.4-6.4 0-1.4-.7-2.1-1.7-2.7l-8.6-4.8c-.9-.5-2.3-.5-3.7.2-2.8 1.4-5.1 4.8-5.1 7.6-.1 1.4.6 2.4 1.6 2.9z" opacity=".15"/><path d="m30.1 145.6c-.7 1.1-1.2 2.3-1.5 3.5l18.1 9.1c.2-1.2.7-2.4 1.3-3.6z" fill="#fff" opacity=".2"/><path d="m60.8 151.6-19.3-9.2 25.6 3.8z" fill="#e5e5e5"/><path d="m66.3 146.9.8-.7-25.6-3.8.8.5z" fill="#fff" opacity=".2"/><path d="m5.4 10.1c-3.5 4.7 1.7 20.5 9.7 29.8s74.6 46.1 111.1 65.1 113.9 55.9 135.5 59.3 80.5 8.2 87.6 3.7 7.1-10.4-3-17.3-100.6-50.5-125.8-63.4-167.2-85-173.9-86.3-10.8 2.8-15.3 2.8-20.8-.9-25.9 6.3z" fill="#e5e5e5"/><path d="m167.9 100s7.9 5.6 6.4 8.6-13.7-1.2-13.7-1.2z" fill="#e5e5e5"/><path d="m27.6 37c-12.4-9.9-17.7-24-16.9-30.8-1.8.7-3.3 1.7-4.5 2.9v1.5c.5 8.5 4.4 19.1 14.7 28.4 26.3 23.8 179.6 99.8 233 115.1 24.7 7.1 58.5 4.5 58.5 4.5s-26.9-1-46-5.8c-60.4-15.3-213.2-95.3-238.8-115.8z" fill="#fc0"/><path d="m125 35c-2.1 1.2 1.7 4.6 4.1 5.6 3 1.2 7.5.8 5.8-1.8-1.9-2.9-7.5-5.1-9.9-3.8z" opacity=".05"/><path d="m126.2 104.9c10 5.2 23 11.7 37.1 18.5 1.4-4.6 3.3-9.8 5.5-13.6 4.9-8.1 16.8-7.4 16.8-7.4l-85.7-48.2-15.7 28.1c15.2 8.4 30.2 16.4 42 22.6z" opacity=".1"/><path d="m253.9 154.1c-53.4-15.3-206.7-91.3-233-115.1-10.3-9.4-14.2-19.9-14.7-28.5 0-.5-.1-1-.1-1.4-.3.3-.5.6-.8.9-3.2 4.4 1.1 18.4 8.1 27.8 1.8 2 3.7 3.9 5.9 5.6 2.3 1.8 5.6 4.2 9.8 6.9 1.1.7 2.2 1.4 3.4 2.2 45.8 28.8 171.9 93.1 225.5 106.7 19 4.8 54.2-.6 54.2-.6s-33.6 2.6-58.3-4.5z" fill="#39c"/><path d="m349.3 167.9c4.4-2.8 6.1-6.1 4.3-9.9h-.1c.6 1.6-.3 4.9-4.7 5.3-9.4.7-25-.1-39.8-1.3-11.5-.9-32.8-3.9-47-7.5-60.4-15.3-211.5-96-237.1-116.5-12.2-9.7-17.5-23.4-17-30.3-1 .7-1.9 1.5-2.5 2.4-3.5 4.7 1.7 20.5 9.7 29.8s74.6 46.1 111.1 65.1 113.9 55.9 135.5 59.3 80.5 8.1 87.6 3.6z" opacity=".1"/><path d="m349.3 167.9c4.4-2.8 6.1-6.1 4.3-9.9h-.1c0 1-2 1.4-4 1.5-9.4.5-24-.3-38-1.8-11.5-1.2-32-5.6-46-10-60.7-18.9-199.5-95.4-225.3-115.5-12.7-9.9-20-20.5-15.3-28.4-6.6.2-15.9 1.2-19.5 6.3-3.5 4.7 1.7 20.5 9.7 29.8s74.6 46.1 111.1 65.1 113.9 55.9 135.5 59.3 80.5 8.1 87.6 3.6z" opacity=".1"/><path d="m335.7 159.7c-.3 1.5-32.3 41-32.5 41.8s-31.9-16-31.9-16 10.4-38.4 9.9-42.3c-.4-3.9-10.4-13.6-10.4-13.6s26.5 8.8 42.5 17c16 8.3 22.6 11.8 22.4 13.1z" fill="#e5e5e5"/><path d="m334.4 158.2c-.8 2.2-32.3 40.9-32.5 41.8-.2.8 1 2.4 1.3 1.6.2-.9 32.2-40.3 32.5-41.8 0-.5-.4-1-1.3-1.6z" opacity=".1"/><path d="m334.4 158.2c-.8 2.2-32.3 40.9-32.5 41.8-.2.8-2.2 2.4-2 1.5s32.4-42.1 34.5-43.3z" fill="#fff" opacity=".3"/><path d="m255.6 178.3c-.5 2.6 12.7 29.7 14 31.2s21.7 11.9 23.3 11.3c1.6-.5 15.9-59.4 15.4-61s-14.3-6.8-17.6-5.3c-3.1 1.5-34.3 19.9-35.1 23.8z" fill="#e5e5e5"/><path d="m255.6 178.3c-.5 2.6 12.7 29.7 14 31.2s21.7 11.9 23.3 11.3c1.6-.5 15.9-59.4 15.4-61s-14.3-6.8-17.6-5.3c-3.1 1.5-34.3 19.9-35.1 23.8z" fill="#e5e5e5"/><path d="m308.4 159.8c-.4-1.5-14.3-6.8-17.6-5.3-.1.1-.3.1-.5.3 4.5-.3 16.1 4.2 16.5 5.5.4 1.4-12.2 53.6-15 60.3.6.2 1 .3 1.2.2 1.6-.6 15.8-59.5 15.4-61z" opacity=".1"/><path d="m259.9 182.9 45.6-15.4-2.1 8.6z" fill="#39c"/><path d="m259.9 182.9 41.6 1.1 1.9-7.9z" fill="#fc0"/><path d="m150.7 108.9s7.9 5.6 6.4 8.6-13.7-1.2-13.7-1.2z" fill="#e5e5e5"/><path d="m150.7 108.9-.5.6c1.4.9 7 4.7 6 6.6-.7 1.2-6.8-1.2-9.9-2.5l-2.8 2.9s12.2 4.2 13.7 1.2-6.5-8.8-6.5-8.8z" opacity=".1"/><path d="m136.8 119.6s7.9 5.6 6.4 8.6-13.7-1.2-13.7-1.2z" fill="#e5e5e5"/><path d="m136.8 119.6-.5.6c1.4.9 7 4.7 6 6.6-.7 1.2-6.8-1.2-9.9-2.5l-2.8 2.9s12.2 4.2 13.7 1.2c1.4-3.2-6.5-8.8-6.5-8.8z" opacity=".1"/><path d="m120.2 132.9s7.9 5.6 6.4 8.6-13.7-1.2-13.7-1.2z" fill="#e5e5e5"/><path d="m120.2 132.9-.5.6c1.4.9 7 4.7 6 6.6-.7 1.2-6.8-1.2-9.9-2.5l-2.8 2.9s12.2 4.2 13.7 1.2-6.5-8.8-6.5-8.8z" opacity=".1"/><path d="m106.2 145.7s7.9 5.6 6.4 8.6-13.7-1.2-13.7-1.2z" fill="#e5e5e5"/><path d="m106.2 145.7-.5.6c1.4.9 7 4.7 6 6.6-.7 1.2-6.8-1.2-9.9-2.5l-2.8 2.9s12.2 4.2 13.7 1.2-6.5-8.8-6.5-8.8z" opacity=".1"/><path d="m92.5 158.2s7.9 5.6 6.4 8.6-13.7-1.2-13.7-1.2z" fill="#e5e5e5"/><path d="m92.5 158.2-.5.6c1.4.9 7 4.7 6 6.6-.7 1.2-6.8-1.2-9.9-2.5l-2.8 2.9s12.2 4.2 13.7 1.2-6.5-8.8-6.5-8.8z" opacity=".1"/><path d="m80.7 170.7s7.9 5.6 6.4 8.6-13.7-1.2-13.7-1.2z" fill="#e5e5e5"/><path d="m80.7 170.7-.5.6c1.4.9 7 4.7 6 6.6-.7 1.2-6.8-1.2-9.9-2.5l-2.8 2.9s12.2 4.2 13.7 1.2-6.5-8.8-6.5-8.8z" opacity=".1"/><path d="m68 182.9s7.9 5.6 6.4 8.6-13.7-1.2-13.7-1.2z" fill="#e5e5e5"/><path d="m68 182.9-.5.6c1.4.9 7 4.7 6 6.6-.7 1.2-6.8-1.2-9.9-2.5l-2.8 2.9s12.2 4.2 13.7 1.2-6.5-8.8-6.5-8.8z" opacity=".1"/><path d="m77.6 35.4c-4.8 3.1 10.8 13 11.2 18.6s-12.9 41.2-25.8 70.5-40.4 81.7-40.4 86 11.9 12.9 13.8 12.9 19.2-23.1 51.6-54.4 66.2-60.6 79.6-65c13.4-4.3 25.7.2 25.7.2s5-8.8.2-13.8-98.2-66.4-115.9-55z" fill="#e5e5e5"/><path d="m193.3 104.2c0-1.5-1-2.9-2.5-3.2-4.3-1.1-13.4-2.6-23.2.5-13.4 4.3-47.3 33.7-79.6 65-32.4 31.3-49.7 54.5-51.7 54.5-1.8 0-11.7-7.1-13.5-11.7-.2.6-.3 1-.3 1.2 0 4.3 11.9 12.9 13.8 12.9s19.3-23.2 51.7-54.5 66.2-60.6 79.6-65c13.4-4.2 25.7.3 25.7.3z" opacity=".1"/><path d="m190.8 101c-4.3-1.1-13.4-2.6-23.2.5-13.4 4.3-47.3 33.7-79.6 65-32.4 31.3-49.7 54.5-51.7 54.5-1.8 0-11.7-7.1-13.5-11.7-.2.6 11.6 10.3 13.6 10.3 1.9 0 19.3-23.2 51.7-54.5s66.2-60.6 79.6-65c13.3-4.2 24.6 1.3 23.1.9z" fill="#fff" opacity=".3"/><path d="m305.8 160.7c-.4-1.5-15.3-6-15.5-5.9 4.5-.3 16.1 4.2 16.5 5.5.4 1.4-12.2 53.6-15 60.3.6.1 14.4-58.4 14-59.9z" fill="#fff" opacity=".3"/><path d="m255.6 178.3c-.5 2.6 12.7 29.7 14 31.2s21.7 11.9 23.3 11.3c1.6-.5 15.9-59.4 15.4-61s-14.3-6.8-17.6-5.3c-3.1 1.5-34.3 19.9-35.1 23.8z" opacity=".1"/><path d="m310.7 206.4c-1.3 3.9-19.7-3.3-24.7-6-5.3-2.8-5.6-10.4 1.5-8.3 7.1 2.2 24.1 11.7 23.2 14.3z" fill="#e5e5e5"/><path d="m310.7 206.4c-1.3 3.9-19.7-3.3-24.7-6-5.3-2.8-5.6-10.4 1.5-8.3 7.1 2.2 24.1 11.7 23.2 14.3z" opacity=".2"/><path d="m309 205.3c-.7 1.9-16.7-4.7-21-7-4.6-2.4-5.5-7.2.6-5.3 6.2 1.9 21.2 10.1 20.4 12.3z" fill="#e5e5e5"/><path d="m127.6 49.9c-2.7.7-5.4 5.9-3.8 8.2s38.5 22.9 41.8 22.4-5.7-14.8-9-17.3c-3.3-2.4-25.6-14.2-29-13.3z" opacity=".05"/><path d="m128.2 50.7c-1.8.5-1.7 2.4 4.4 5.5 6 3.1 14.6 7.1 18.8 10 2.9 2.1 7.3 5.1 8.6 4.6s-2.4-5.1-5-7.3-24.3-13.4-26.8-12.8z" fill="#e5e5e5"/><path d="m149.8 38.7c-2.6.7-5.3 5.9-3.7 8.1s38 22.6 41.3 22.2-5.6-14.6-8.9-17.1-25.3-14.1-28.7-13.2z" opacity=".05"/><path d="m150.4 39.5c-1.7.5-1.7 2.4 4.3 5.5 5.9 3 14.5 7 18.5 9.9 2.9 2 7.2 5 8.5 4.6s-2.4-5.1-5-7.2c-2.4-2.2-23.8-13.4-26.3-12.8z" fill="#e5e5e5"/><path d="m104.1 44.6c-2.4 1.4 1.9 5.1 4.6 6.2 3.4 1.4 8.4.9 6.5-2-2.2-3.2-8.5-5.7-11.1-4.2z" opacity=".05"/><path d="m114.2 38.8c-2.4 1.4 1.9 5.1 4.6 6.2 3.4 1.4 8.4.9 6.5-2-2.1-3.2-8.4-5.7-11.1-4.2z" opacity=".05"/><g fill="#656565"><path d="m34.3 5.3c.2-1.3.9-2.1.9-2.1l-2.9.9s-.6.6-1.1 1.8z"/><path d="m36.6 10.7c-1.7-1.8-2.3-3.3-2.3-4.6l-3.4.8c-.1.2-.1.4-.2.7-.4 1.9.4 4 1.5 6z"/><path d="m41.4 15c-1.3-1-2.8-2.3-4.3-3.8l-4.2 3.2c1.1 1.6 2.9 3.4 4.9 5z"/><path d="m41.9 15.4-3.4 4.6c3.3 2.6 6.5 4.5 6.5 4.5l.8-6.3s-1.5-.9-3.9-2.8z"/></g><g opacity=".3"><path d="m33 13.1c-1.2-2-2.1-4.2-1.8-6.2l-.3.1c-.1.2-.1.4-.2.7-.4 1.9.4 4 1.5 6z"/><path d="m31.5 5.8c.2-.5.3-.9.5-1.3-.2.3-.5.7-.7 1.3z"/><path d="m38.3 18.7c-1.9-1.5-3.6-3.2-4.8-4.8l-.7.5c1.1 1.6 2.9 3.4 4.9 5z"/><path d="m39 19.3-.5.7c3.3 2.6 6.5 4.5 6.5 4.5l.1-1.1c-.9-.5-3.5-2.1-6.1-4.1z"/></g><path d="m198.5 83.2c-14.5 6.8 61.3 41.4 76.5 48.3 13.7 6.2 63.3 26.6 71 24.5 7.8-2.2-42.4-25.9-55.9-32.9s-85.1-43-91.6-39.9z" fill="#fff" opacity=".2"/><path d="m291.5 128.4c-2 1.8 1.4 4.9 5.8 5.9 4.5 1.1 7.3.3 7.7-2 .4-2.5-7.9-8.8-13.5-3.9z" fill="#e5e5e5"/><path d="m291.5 128.4c-2 1.8 1.4 4.9 5.8 5.9 4.5 1.1 7.3.3 7.7-2 .4-2.5-7.9-8.8-13.5-3.9z" opacity=".05"/><path d="m294.6 128.6c-1.2 1 .8 2.8 3.3 3.4 2.6.6 4.2.2 4.4-1.2.3-1.4-4.4-5-7.7-2.2z" fill="#e5e5e5"/><path d="m274.4 121.1c-2 1.8 1.4 4.9 5.8 5.9 4.5 1.1 7.3.3 7.7-2 .4-2.6-7.9-8.8-13.5-3.9z" fill="#e5e5e5"/><path d="m274.4 121.1c-2 1.8 1.4 4.9 5.8 5.9 4.5 1.1 7.3.3 7.7-2 .4-2.6-7.9-8.8-13.5-3.9z" opacity=".05"/><path d="m277.5 121.3c-1.2 1 .8 2.8 3.3 3.4 2.6.6 4.2.2 4.4-1.2.3-1.4-4.4-5-7.7-2.2z" fill="#e5e5e5"/><path d="m258.2 113.5c-1.9 1.6 1.3 4.5 5.4 5.5s6.8.3 7.1-1.9c.4-2.3-7.2-8.1-12.5-3.6z" fill="#e5e5e5"/><path d="m258.2 113.5c-1.9 1.6 1.3 4.5 5.4 5.5s6.8.3 7.1-1.9c.4-2.3-7.2-8.1-12.5-3.6z" opacity=".05"/><path d="m261.2 113.7c-1.1.9.7 2.6 3.1 3.1 2.4.6 3.9.2 4.1-1.1s-4.2-4.6-7.2-2z" fill="#e5e5e5"/><path d="m239.5 107.4c-1.6 1.2 0 3.9 2.5 5 2.8 1.3 5.7-1.3 5-2.9-.8-2-4.4-4.4-7.5-2.1z" fill="#e5e5e5"/><path d="m247.1 103.6c-1.4 1.1 0 3.4 2.2 4.4 2.5 1.1 5-1.1 4.4-2.6-.7-1.7-3.9-3.8-6.6-1.8z" fill="#e5e5e5"/><path d="m239.5 107.4c-1.6 1.2 0 3.9 2.5 5 2.8 1.3 5.7-1.3 5-2.9-.8-2-4.4-4.4-7.5-2.1z" opacity=".05"/><path d="m247.1 103.6c-1.4 1.1 0 3.4 2.2 4.4 2.5 1.1 5-1.1 4.4-2.6-.7-1.7-3.9-3.8-6.6-1.8z" opacity=".05"/><path d="m202 89.7c-1.6 1.2 0 3.9 2.5 5 2.8 1.3 5.7-1.3 5-2.9-.8-2-4.4-4.3-7.5-2.1z" fill="#e5e5e5"/><path d="m210.4 85.5c-1.4 1.1 0 3.4 2.2 4.4 2.5 1.1 5-1.1 4.4-2.6-.6-1.7-3.8-3.8-6.6-1.8z" fill="#e5e5e5"/><path d="m202 89.7c-1.6 1.2 0 3.9 2.5 5 2.8 1.3 5.7-1.3 5-2.9-.8-2-4.4-4.3-7.5-2.1z" opacity=".05"/><path d="m210.4 85.5c-1.4 1.1 0 3.4 2.2 4.4 2.5 1.1 5-1.1 4.4-2.6-.6-1.7-3.8-3.8-6.6-1.8z" opacity=".05"/><path d="m41.8 1.7c-5.7 2.1-3.1 6.6 10.9 15.3 15.5 9.8 56.8 22.2 58.8 21s-32.6-21.4-44.7-27.5c-10.6-5.3-20.6-10.5-25-8.8z" fill="#fff" opacity=".2"/><path d="m60.6 55c.1 0 .2 0 .3.1l2.1 1c.6.3 1 1 1 1.7v7.6c0 .4-.3.6-.6.6-.1 0-.2 0-.3-.1l-2.1-1c-.6-.3-1-1-1-1.7v-7.6c0-.4.3-.6.6-.6m0-1c-.8 0-1.6.7-1.6 1.6v7.6c0 1.1.6 2.1 1.6 2.6l2.1 1c.2.1.5.2.7.2.8 0 1.6-.7 1.6-1.6v-7.6c0-1.1-.6-2.1-1.6-2.6l-2.1-1c-.2-.1-.5-.2-.7-.2z" opacity=".1"/></svg>