<svg enable-background="new 0 0 416 280" viewBox="0 0 416 280" xmlns="http://www.w3.org/2000/svg"><path d="m288 56v64l64 32 64-32v-64z" fill="#e5e5e5"/><path d="m416 120-64 32v-64l64-32z" fill="#e5e5e5"/><path d="m416 95-64 32v-37l64-32z" fill="#39c"/><path d="m367 144.5-14 7v-21l14-7z" fill="#39c"/><path d="m367 127.5-14 7v-4l14-7z" fill="#262626" opacity=".15"/><path d="m367 125.5-14 7v-2l14-7z" fill="#262626" opacity=".15"/><path d="m367 124.5-14 7v-1l14-7z" fill="#262626" opacity=".15"/><path d="m367 130.5-14 7v-1l14-7z" fill="#262626" opacity=".15"/><path d="m367 128.5-4 2v-5l-1 .5v5l-4 2v-5l-1 .5v5l-4 2v1l4-2v15l1-.5v-15l4-2v15l1-.5v-15l4-2z" fill="#fff" opacity=".7"/><path d="m383 136.5-14 7v-21l14-7z" fill="#39c"/><path d="m383 119.5-14 7v-4l14-7z" fill="#262626" opacity=".15"/><path d="m383 117.5-14 7v-2l14-7z" fill="#262626" opacity=".15"/><path d="m383 116.5-14 7v-1l14-7z" fill="#262626" opacity=".15"/><path d="m383 122.5-14 7v-1l14-7z" fill="#262626" opacity=".15"/><path d="m383 120.5-4 2v-5l-1 .5v5l-4 2v-5l-1 .5v5l-4 2v1l4-2v15l1-.5v-15l4-2v15l1-.5v-15l4-2z" fill="#fff" opacity=".7"/><path d="m399 128.5-14 7v-21l14-7z" fill="#39c"/><path d="m399 111.5-14 7v-4l14-7z" fill="#262626" opacity=".15"/><path d="m399 109.5-14 7v-2l14-7z" fill="#262626" opacity=".15"/><path d="m399 108.5-14 7v-1l14-7z" fill="#262626" opacity=".15"/><path d="m399 114.5-14 7v-1l14-7z" fill="#262626" opacity=".15"/><path d="m399 112.5-4 2v-5l-1 .5v5l-4 2v-5l-1 .5v5l-4 2v1l4-2v15l1-.5v-15l4-2v15l1-.5v-15l4-2z" fill="#fff" opacity=".7"/><path d="m415 120.5-14 7v-21l14-7z" fill="#39c"/><path d="m415 103.5-14 7v-4l14-7z" fill="#262626" opacity=".15"/><path d="m415 101.5-14 7v-2l14-7z" fill="#262626" opacity=".15"/><path d="m415 100.5-14 7v-1l14-7z" fill="#262626" opacity=".15"/><path d="m415 106.5-14 7v-1l14-7z" fill="#262626" opacity=".15"/><path d="m415 104.5-4 2v-5l-1 .5v5l-4 2v-5l-1 .5v5l-4 2v1l4-2v15l1-.5v-15l4-2v15l1-.5v-15l4-2z" fill="#fff" opacity=".7"/><path d="m416 61-64 32v-3l64-32z" fill="#262626" opacity=".15"/><path d="m416 59-64 32v-1l64-32z" fill="#262626" opacity=".15"/><g fill="#fff"><path d="m353 126.5-1 .5v-37l1-.5z" opacity=".7"/><path d="m390 108-1 .5v-37l1-.5z" opacity=".7"/><path d="m363 121.5-1 .5v-37l1-.5z" opacity=".7"/><path d="m358 124-1 .5v-37l1-.5z" opacity=".7"/><path d="m369 118.5-2 1v-37l2-1z" opacity=".7"/><path d="m374 116-1 .5v-37l1-.5z" opacity=".7"/><path d="m379 113.5-1 .5v-37l1-.5z" opacity=".7"/><path d="m395 105.5 1-.5v-37l-1 .5z" opacity=".7"/><path d="m401 102.5-2 1v-37l2-1z" opacity=".7"/><path d="m406 100-1 .5v-37l1-.5z" opacity=".7"/><path d="m411 97.5-1 .5v-37l1-.5z" opacity=".7"/><path d="m385 110.5-2 1v-37l2-1z" opacity=".7"/><path d="m416 95-1 .5v-37l1-.5z" opacity=".7"/><path d="m410 98-4 2v-37l4-2z" opacity=".2"/><path d="m405 100.5-4 2v-37l4-2z" opacity=".1"/><path d="m383 111.5-4 2v-22l4-2z" opacity=".3"/><path d="m389 108.5-4 2v-22l4-2z" opacity=".2"/><path d="m383 88.5-4 2v-14l4-2z" opacity=".2"/><path d="m389 85.5-4 2v-14l4-2z" opacity=".1"/><path d="m367 96.5-4 2v-14l4-2z" opacity=".1"/><path d="m367 119.5-4 2v-22l4-2z" opacity=".2"/><path d="m373 116.5-4 2v-37l4-2z" opacity=".1"/></g><path d="m352 104 64-32v1l-64 32z" fill="#e5e5e5"/><path d="m410 123-4 2v-21l4-2z" fill="#fff" opacity=".2"/><path d="m378 139-4 2v-21l4-2z" fill="#fff" opacity=".3"/><path d="m383 136.5-4 2v-21l4-2z" fill="#fff" opacity=".2"/><path d="m362 147-4 2v-21l4-2z" fill="#fff" opacity=".2"/><path d="m373 141.5-4 2v-21l4-2z" fill="#fff" opacity=".1"/><path d="m352 152 64-32v-64l-64 32z" opacity=".29"/><path d="m288 120v64h64v-64z" fill="#e5e5e5"/><path d="m288 120h64v64h-64z" fill="#e5e5e5"/><path d="m288 122h64v37h-64z" fill="#39c"/><path d="m289 163h14v21h-14z" fill="#39c"/><path d="m289 163h14v4h-14z" fill="#262626" opacity=".15"/><path d="m289 163h14v2h-14z" fill="#262626" opacity=".15"/><path d="m289 163h14v1h-14z" fill="#262626" opacity=".15"/><path d="m289 169h14v1h-14z" fill="#262626" opacity=".15"/><path d="m303 168h-4v-5h-1v5h-4v-5h-1v5h-4v1h4v15h1v-15h4v15h1v-15h4z" fill="#fff" opacity=".7"/><path d="m305 163h14v21h-14z" fill="#39c"/><path d="m305 163h14v4h-14z" fill="#262626" opacity=".15"/><path d="m305 163h14v2h-14z" fill="#262626" opacity=".15"/><path d="m305 163h14v1h-14z" fill="#262626" opacity=".15"/><path d="m305 169h14v1h-14z" fill="#262626" opacity=".15"/><path d="m319 168h-4v-5h-1v5h-4v-5h-1v5h-4v1h4v15h1v-15h4v15h1v-15h4z" fill="#fff" opacity=".7"/><path d="m321 163h14v21h-14z" fill="#39c"/><path d="m321 163h14v4h-14z" fill="#262626" opacity=".15"/><path d="m321 163h14v2h-14z" fill="#262626" opacity=".15"/><path d="m321 163h14v1h-14z" fill="#262626" opacity=".15"/><path d="m321 169h14v1h-14z" fill="#262626" opacity=".15"/><path d="m335 168h-4v-5h-1v5h-4v-5h-1v5h-4v1h4v15h1v-15h4v15h1v-15h4z" fill="#fff" opacity=".7"/><path d="m337 163h14v21h-14z" fill="#39c"/><path d="m337 163h14v4h-14z" fill="#262626" opacity=".15"/><path d="m337 163h14v2h-14z" fill="#262626" opacity=".15"/><path d="m337 163h14v1h-14z" fill="#262626" opacity=".15"/><path d="m337 169h14v1h-14z" fill="#262626" opacity=".15"/><path d="m351 168h-4v-5h-1v5h-4v-5h-1v5h-4v1h4v15h1v-15h4v15h1v-15h4z" fill="#fff" opacity=".7"/><path d="m288 122h64v3h-64z" fill="#262626" opacity=".15"/><path d="m288 122h64v1h-64z" fill="#262626" opacity=".15"/><path d="m288 122h1v37h-1z" fill="#fff" opacity=".7"/><path d="m325 122h1v37h-1z" fill="#fff" opacity=".7"/><path d="m298 122h1v37h-1z" fill="#fff" opacity=".7"/><path d="m293 122h1v37h-1z" fill="#fff" opacity=".7"/><path d="m303 122h2v37h-2z" fill="#fff" opacity=".7"/><path d="m309 122h1v37h-1z" fill="#fff" opacity=".7"/><path d="m314 122h1v37h-1z" fill="#fff" opacity=".7"/><path d="m331 122h1v37h-1z" fill="#fff" opacity=".7"/><path d="m335 122h2v37h-2z" fill="#fff" opacity=".7"/><path d="m341 122h1v37h-1z" fill="#fff" opacity=".7"/><path d="m346 122h1v37h-1z" fill="#fff" opacity=".7"/><path d="m319 122h2v37h-2z" fill="#fff" opacity=".7"/><path d="m351 122h1v37h-1z" fill="#fff" opacity=".7"/><path d="m342 122h4v37h-4z" fill="#fff" opacity=".2"/><path d="m337 122h4v37h-4z" fill="#fff" opacity=".1"/><path d="m315 137h4v22h-4z" fill="#fff" opacity=".3"/><path d="m321 137h4v22h-4z" fill="#fff" opacity=".2"/><path d="m315 122h4v14h-4z" fill="#fff" opacity=".2"/><path d="m321 122h4v14h-4z" fill="#fff" opacity=".1"/><path d="m299 122h4v14h-4z" fill="#fff" opacity=".1"/><path d="m299 137h4v22h-4z" fill="#fff" opacity=".2"/><path d="m305 122h4v37h-4z" fill="#fff" opacity=".1"/><path d="m288 136h64v1h-64z" fill="#e5e5e5"/><path d="m342 163h4v21h-4z" fill="#fff" opacity=".2"/><path d="m310 163h4v21h-4z" fill="#fff" opacity=".3"/><path d="m315 163h4v21h-4z" fill="#fff" opacity=".2"/><path d="m294 163h4v21h-4z" fill="#fff" opacity=".2"/><path d="m305 163h4v21h-4z" fill="#fff" opacity=".1"/><path d="m288 120h64v64h-64z" opacity=".11"/><path d="m224 152v64h64v-64z" fill="#e5e5e5"/><path d="m224 152h64v64h-64z" fill="#e5e5e5"/><path d="m224 154h64v37h-64z" fill="#39c"/><path d="m225 195h14v21h-14z" fill="#39c"/><path d="m225 195h14v4h-14z" fill="#262626" opacity=".15"/><path d="m225 195h14v2h-14z" fill="#262626" opacity=".15"/><path d="m225 195h14v1h-14z" fill="#262626" opacity=".15"/><path d="m225 201h14v1h-14z" fill="#262626" opacity=".15"/><path d="m239 200h-4v-5h-1v5h-4v-5h-1v5h-4v1h4v15h1v-15h4v15h1v-15h4z" fill="#fff" opacity=".7"/><path d="m241 195h14v21h-14z" fill="#39c"/><path d="m241 195h14v4h-14z" fill="#262626" opacity=".15"/><path d="m241 195h14v2h-14z" fill="#262626" opacity=".15"/><path d="m241 195h14v1h-14z" fill="#262626" opacity=".15"/><path d="m241 201h14v1h-14z" fill="#262626" opacity=".15"/><path d="m255 200h-4v-5h-1v5h-4v-5h-1v5h-4v1h4v15h1v-15h4v15h1v-15h4z" fill="#fff" opacity=".7"/><path d="m257 195h14v21h-14z" fill="#39c"/><path d="m257 195h14v4h-14z" fill="#262626" opacity=".15"/><path d="m257 195h14v2h-14z" fill="#262626" opacity=".15"/><path d="m257 195h14v1h-14z" fill="#262626" opacity=".15"/><path d="m257 201h14v1h-14z" fill="#262626" opacity=".15"/><path d="m271 200h-4v-5h-1v5h-4v-5h-1v5h-4v1h4v15h1v-15h4v15h1v-15h4z" fill="#fff" opacity=".7"/><path d="m273 195h14v21h-14z" fill="#39c"/><path d="m273 195h14v4h-14z" fill="#262626" opacity=".15"/><path d="m273 195h14v2h-14z" fill="#262626" opacity=".15"/><path d="m273 195h14v1h-14z" fill="#262626" opacity=".15"/><path d="m273 201h14v1h-14z" fill="#262626" opacity=".15"/><path d="m287 200h-4v-5h-1v5h-4v-5h-1v5h-4v1h4v15h1v-15h4v15h1v-15h4z" fill="#fff" opacity=".7"/><path d="m224 154h64v3h-64z" fill="#262626" opacity=".15"/><path d="m224 154h64v1h-64z" fill="#262626" opacity=".15"/><path d="m224 154h1v37h-1z" fill="#fff" opacity=".7"/><path d="m261 154h1v37h-1z" fill="#fff" opacity=".7"/><path d="m234 154h1v37h-1z" fill="#fff" opacity=".7"/><path d="m229 154h1v37h-1z" fill="#fff" opacity=".7"/><path d="m239 154h2v37h-2z" fill="#fff" opacity=".7"/><path d="m245 154h1v37h-1z" fill="#fff" opacity=".7"/><path d="m250 154h1v37h-1z" fill="#fff" opacity=".7"/><path d="m267 154h1v37h-1z" fill="#fff" opacity=".7"/><path d="m271 154h2v37h-2z" fill="#fff" opacity=".7"/><path d="m277 154h1v37h-1z" fill="#fff" opacity=".7"/><path d="m282 154h1v37h-1z" fill="#fff" opacity=".7"/><path d="m255 154h2v37h-2z" fill="#fff" opacity=".7"/><path d="m287 154h1v37h-1z" fill="#fff" opacity=".7"/><path d="m278 154h4v37h-4z" fill="#fff" opacity=".2"/><path d="m273 154h4v37h-4z" fill="#fff" opacity=".1"/><path d="m251 169h4v22h-4z" fill="#fff" opacity=".3"/><path d="m257 169h4v22h-4z" fill="#fff" opacity=".2"/><path d="m251 154h4v14h-4z" fill="#fff" opacity=".2"/><path d="m257 154h4v14h-4z" fill="#fff" opacity=".1"/><path d="m235 154h4v14h-4z" fill="#fff" opacity=".1"/><path d="m235 169h4v22h-4z" fill="#fff" opacity=".2"/><path d="m241 154h4v37h-4z" fill="#fff" opacity=".1"/><path d="m224 168h64v1h-64z" fill="#e5e5e5"/><path d="m278 195h4v21h-4z" fill="#fff" opacity=".2"/><path d="m246 195h4v21h-4z" fill="#fff" opacity=".3"/><path d="m251 195h4v21h-4z" fill="#fff" opacity=".2"/><path d="m230 195h4v21h-4z" fill="#fff" opacity=".2"/><path d="m241 195h4v21h-4z" fill="#fff" opacity=".1"/><path d="m224 152h64v64h-64z" opacity=".11"/><path d="m160 184v64h64v-64z" fill="#e5e5e5"/><path d="m160 184h64v64h-64z" fill="#e5e5e5"/><path d="m160 186h64v37h-64z" fill="#39c"/><path d="m161 227h14v21h-14z" fill="#39c"/><path d="m161 227h14v4h-14z" fill="#262626" opacity=".15"/><path d="m161 227h14v2h-14z" fill="#262626" opacity=".15"/><path d="m161 227h14v1h-14z" fill="#262626" opacity=".15"/><path d="m161 233h14v1h-14z" fill="#262626" opacity=".15"/><path d="m175 232h-4v-5h-1v5h-4v-5h-1v5h-4v1h4v15h1v-15h4v15h1v-15h4z" fill="#fff" opacity=".7"/><path d="m177 227h14v21h-14z" fill="#39c"/><path d="m177 227h14v4h-14z" fill="#262626" opacity=".15"/><path d="m177 227h14v2h-14z" fill="#262626" opacity=".15"/><path d="m177 227h14v1h-14z" fill="#262626" opacity=".15"/><path d="m177 233h14v1h-14z" fill="#262626" opacity=".15"/><path d="m191 232h-4v-5h-1v5h-4v-5h-1v5h-4v1h4v15h1v-15h4v15h1v-15h4z" fill="#fff" opacity=".7"/><path d="m193 227h14v21h-14z" fill="#39c"/><path d="m193 227h14v4h-14z" fill="#262626" opacity=".15"/><path d="m193 227h14v2h-14z" fill="#262626" opacity=".15"/><path d="m193 227h14v1h-14z" fill="#262626" opacity=".15"/><path d="m193 233h14v1h-14z" fill="#262626" opacity=".15"/><path d="m207 232h-4v-5h-1v5h-4v-5h-1v5h-4v1h4v15h1v-15h4v15h1v-15h4z" fill="#fff" opacity=".7"/><path d="m209 227h14v21h-14z" fill="#39c"/><path d="m209 227h14v4h-14z" fill="#262626" opacity=".15"/><path d="m209 227h14v2h-14z" fill="#262626" opacity=".15"/><path d="m209 227h14v1h-14z" fill="#262626" opacity=".15"/><path d="m209 233h14v1h-14z" fill="#262626" opacity=".15"/><path d="m223 232h-4v-5h-1v5h-4v-5h-1v5h-4v1h4v15h1v-15h4v15h1v-15h4z" fill="#fff" opacity=".7"/><path d="m160 186h64v3h-64z" fill="#262626" opacity=".15"/><path d="m160 186h64v1h-64z" fill="#262626" opacity=".15"/><path d="m160 186h1v37h-1z" fill="#fff" opacity=".7"/><path d="m197 186h1v37h-1z" fill="#fff" opacity=".7"/><path d="m170 186h1v37h-1z" fill="#fff" opacity=".7"/><path d="m165 186h1v37h-1z" fill="#fff" opacity=".7"/><path d="m175 186h2v37h-2z" fill="#fff" opacity=".7"/><path d="m181 186h1v37h-1z" fill="#fff" opacity=".7"/><path d="m186 186h1v37h-1z" fill="#fff" opacity=".7"/><path d="m203 186h1v37h-1z" fill="#fff" opacity=".7"/><path d="m207 186h2v37h-2z" fill="#fff" opacity=".7"/><path d="m213 186h1v37h-1z" fill="#fff" opacity=".7"/><path d="m218 186h1v37h-1z" fill="#fff" opacity=".7"/><path d="m191 186h2v37h-2z" fill="#fff" opacity=".7"/><path d="m223 186h1v37h-1z" fill="#fff" opacity=".7"/><path d="m214 186h4v37h-4z" fill="#fff" opacity=".2"/><path d="m209 186h4v37h-4z" fill="#fff" opacity=".1"/><path d="m187 201h4v22h-4z" fill="#fff" opacity=".3"/><path d="m193 201h4v22h-4z" fill="#fff" opacity=".2"/><path d="m187 186h4v14h-4z" fill="#fff" opacity=".2"/><path d="m193 186h4v14h-4z" fill="#fff" opacity=".1"/><path d="m171 186h4v14h-4z" fill="#fff" opacity=".1"/><path d="m171 201h4v22h-4z" fill="#fff" opacity=".2"/><path d="m177 186h4v37h-4z" fill="#fff" opacity=".1"/><path d="m160 200h64v1h-64z" fill="#e5e5e5"/><path d="m214 227h4v21h-4z" fill="#fff" opacity=".2"/><path d="m182 227h4v21h-4z" fill="#fff" opacity=".3"/><path d="m187 227h4v21h-4z" fill="#fff" opacity=".2"/><path d="m166 227h4v21h-4z" fill="#fff" opacity=".2"/><path d="m177 227h4v21h-4z" fill="#fff" opacity=".1"/><path d="m160 184h64v64h-64z" opacity=".11"/><path d="m32 184v64l64 32 64-32v-64z" fill="#e5e5e5"/><path d="m96 280-64-32v-64l64 32z" fill="#e5e5e5"/><path d="m96 255-64-32v-37l64 32z" fill="#39c"/><path d="m47 255.5-14-7v-21l14 7z" fill="#39c"/><path d="m47 238.5-14-7v-4l14 7z" fill="#262626" opacity=".15"/><path d="m47 236.5-14-7v-2l14 7z" fill="#262626" opacity=".15"/><path d="m47 235.5-14-7v-1l14 7z" fill="#262626" opacity=".15"/><path d="m47 241.5-14-7v-1l14 7z" fill="#262626" opacity=".15"/><path d="m47 239.5-4-2v-5l-1-.5v5l-4-2v-5l-1-.5v5l-4-2v1l4 2v15l1 .5v-15l4 2v15l1 .5v-15l4 2z" fill="#fff" opacity=".7"/><path d="m63 263.5-14-7v-21l14 7z" fill="#39c"/><path d="m63 246.5-14-7v-4l14 7z" fill="#262626" opacity=".15"/><path d="m63 244.5-14-7v-2l14 7z" fill="#262626" opacity=".15"/><path d="m63 243.5-14-7v-1l14 7z" fill="#262626" opacity=".15"/><path d="m63 249.5-14-7v-1l14 7z" fill="#262626" opacity=".15"/><path d="m63 247.5-4-2v-5l-1-.5v5l-4-2v-5l-1-.5v5l-4-2v1l4 2v15l1 .5v-15l4 2v15l1 .5v-15l4 2z" fill="#fff" opacity=".7"/><path d="m79 271.5-14-7v-21l14 7z" fill="#39c"/><path d="m79 254.5-14-7v-4l14 7z" fill="#262626" opacity=".15"/><path d="m79 252.5-14-7v-2l14 7z" fill="#262626" opacity=".15"/><path d="m79 251.5-14-7v-1l14 7z" fill="#262626" opacity=".15"/><path d="m79 257.5-14-7v-1l14 7z" fill="#262626" opacity=".15"/><path d="m79 255.5-4-2v-5l-1-.5v5l-4-2v-5l-1-.5v5l-4-2v1l4 2v15l1 .5v-15l4 2v15l1 .5v-15l4 2z" fill="#fff" opacity=".7"/><path d="m95 279.5-14-7v-21l14 7z" fill="#39c"/><path d="m95 262.5-14-7v-4l14 7z" fill="#262626" opacity=".15"/><path d="m95 260.5-14-7v-2l14 7z" fill="#262626" opacity=".15"/><path d="m95 259.5-14-7v-1l14 7z" fill="#262626" opacity=".15"/><path d="m95 265.5-14-7v-1l14 7z" fill="#262626" opacity=".15"/><path d="m95 263.5-4-2v-5l-1-.5v5l-4-2v-5l-1-.5v5l-4-2v1l4 2v15l1 .5v-15l4 2v15l1 .5v-15l4 2z" fill="#fff" opacity=".7"/><path d="m96 221-64-32v-3l64 32z" fill="#262626" opacity=".15"/><path d="m96 219-64-32v-1l64 32z" fill="#262626" opacity=".15"/><path d="m33 223.5-1-.5v-37l1 .5z" fill="#fff" opacity=".7"/><path d="m70 242-1-.5v-37l1 .5z" fill="#fff" opacity=".7"/><path d="m43 228.5-1-.5v-37l1 .5z" fill="#fff" opacity=".7"/><path d="m38 226-1-.5v-37l1 .5z" fill="#fff" opacity=".7"/><path d="m49 231.5-2-1v-37l2 1z" fill="#fff" opacity=".7"/><path d="m54 234-1-.5v-37l1 .5z" fill="#fff" opacity=".7"/><path d="m59 236.5-1-.5v-37l1 .5z" fill="#fff" opacity=".7"/><path d="m75 244.5 1 .5v-37l-1-.5z" fill="#fff" opacity=".7"/><path d="m81 247.5-2-1v-37l2 1z" fill="#fff" opacity=".7"/><path d="m86 250-1-.5v-37l1 .5z" fill="#fff" opacity=".7"/><path d="m91 252.5-1-.5v-37l1 .5z" fill="#fff" opacity=".7"/><path d="m65 239.5-2-1v-37l2 1z" fill="#fff" opacity=".7"/><path d="m96 255-1-.5v-37l1 .5z" fill="#fff" opacity=".7"/><path d="m90 252-4-2v-37l4 2z" fill="#fff" opacity=".2"/><path d="m85 249.5-4-2v-37l4 2z" fill="#fff" opacity=".1"/><path d="m63 238.5-4-2v-22l4 2z" fill="#fff" opacity=".3"/><path d="m69 241.5-4-2v-22l4 2z" fill="#fff" opacity=".2"/><path d="m63 215.5-4-2v-14l4 2z" fill="#fff" opacity=".2"/><path d="m69 218.5-4-2v-14l4 2z" fill="#fff" opacity=".1"/><path d="m47 207.5-4-2v-14l4 2z" fill="#fff" opacity=".1"/><path d="m47 230.5-4-2v-22l4 2z" fill="#fff" opacity=".2"/><path d="m53 233.5-4-2v-37l4 2z" fill="#fff" opacity=".1"/><path d="m32 200 64 32v1l-64-32z" fill="#e5e5e5"/><path d="m90 277-4-2v-21l4 2z" fill="#fff" opacity=".2"/><path d="m58 261-4-2v-21l4 2z" fill="#fff" opacity=".3"/><path d="m63 263.5-4-2v-21l4 2z" fill="#fff" opacity=".2"/><path d="m42 253-4-2v-21l4 2z" fill="#fff" opacity=".2"/><path d="m53 258.5-4-2v-21l4 2z" fill="#fff" opacity=".1"/><path d="m96 280-64-32v-64l64 32z" opacity=".11"/><path d="m160 248-64 32v-64l64-32z" fill="#e5e5e5"/><path d="m160 223-64 32v-37l64-32z" fill="#39c"/><path d="m111 272.5-14 7v-21l14-7z" fill="#39c"/><path d="m111 255.5-14 7v-4l14-7z" fill="#262626" opacity=".15"/><path d="m111 253.5-14 7v-2l14-7z" fill="#262626" opacity=".15"/><path d="m111 252.5-14 7v-1l14-7z" fill="#262626" opacity=".15"/><path d="m111 258.5-14 7v-1l14-7z" fill="#262626" opacity=".15"/><path d="m111 256.5-4 2v-5l-1 .5v5l-4 2v-5l-1 .5v5l-4 2v1l4-2v15l1-.5v-15l4-2v15l1-.5v-15l4-2z" fill="#fff" opacity=".7"/><path d="m127 264.5-14 7v-21l14-7z" fill="#39c"/><path d="m127 247.5-14 7v-4l14-7z" fill="#262626" opacity=".15"/><path d="m127 245.5-14 7v-2l14-7z" fill="#262626" opacity=".15"/><path d="m127 244.5-14 7v-1l14-7z" fill="#262626" opacity=".15"/><path d="m127 250.5-14 7v-1l14-7z" fill="#262626" opacity=".15"/><path d="m127 248.5-4 2v-5l-1 .5v5l-4 2v-5l-1 .5v5l-4 2v1l4-2v15l1-.5v-15l4-2v15l1-.5v-15l4-2z" fill="#fff" opacity=".7"/><path d="m143 256.5-14 7v-21l14-7z" fill="#39c"/><path d="m143 239.5-14 7v-4l14-7z" fill="#262626" opacity=".15"/><path d="m143 237.5-14 7v-2l14-7z" fill="#262626" opacity=".15"/><path d="m143 236.5-14 7v-1l14-7z" fill="#262626" opacity=".15"/><path d="m143 242.5-14 7v-1l14-7z" fill="#262626" opacity=".15"/><path d="m143 240.5-4 2v-5l-1 .5v5l-4 2v-5l-1 .5v5l-4 2v1l4-2v15l1-.5v-15l4-2v15l1-.5v-15l4-2z" fill="#fff" opacity=".7"/><path d="m159 248.5-14 7v-21l14-7z" fill="#39c"/><path d="m159 231.5-14 7v-4l14-7z" fill="#262626" opacity=".15"/><path d="m159 229.5-14 7v-2l14-7z" fill="#262626" opacity=".15"/><path d="m159 228.5-14 7v-1l14-7z" fill="#262626" opacity=".15"/><path d="m159 234.5-14 7v-1l14-7z" fill="#262626" opacity=".15"/><path d="m159 232.5-4 2v-5l-1 .5v5l-4 2v-5l-1 .5v5l-4 2v1l4-2v15l1-.5v-15l4-2v15l1-.5v-15l4-2z" fill="#fff" opacity=".7"/><path d="m160 189-64 32v-3l64-32z" fill="#262626" opacity=".15"/><path d="m160 187-64 32v-1l64-32z" fill="#262626" opacity=".15"/><path d="m97 254.5-1 .5v-37l1-.5z" fill="#fff" opacity=".7"/><path d="m134 236-1 .5v-37l1-.5z" fill="#fff" opacity=".7"/><path d="m107 249.5-1 .5v-37l1-.5z" fill="#fff" opacity=".7"/><path d="m102 252-1 .5v-37l1-.5z" fill="#fff" opacity=".7"/><path d="m113 246.5-2 1v-37l2-1z" fill="#fff" opacity=".7"/><path d="m118 244-1 .5v-37l1-.5z" fill="#fff" opacity=".7"/><path d="m123 241.5-1 .5v-37l1-.5z" fill="#fff" opacity=".7"/><path d="m139 233.5 1-.5v-37l-1 .5z" fill="#fff" opacity=".7"/><path d="m145 230.5-2 1v-37l2-1z" fill="#fff" opacity=".7"/><path d="m150 228-1 .5v-37l1-.5z" fill="#fff" opacity=".7"/><path d="m155 225.5-1 .5v-37l1-.5z" fill="#fff" opacity=".7"/><path d="m129 238.5-2 1v-37l2-1z" fill="#fff" opacity=".7"/><path d="m160 223-1 .5v-37l1-.5z" fill="#fff" opacity=".7"/><path d="m154 226-4 2v-37l4-2z" fill="#fff" opacity=".2"/><path d="m149 228.5-4 2v-37l4-2z" fill="#fff" opacity=".1"/><path d="m127 239.5-4 2v-22l4-2z" fill="#fff" opacity=".3"/><path d="m133 236.5-4 2v-22l4-2z" fill="#fff" opacity=".2"/><path d="m127 216.5-4 2v-14l4-2z" fill="#fff" opacity=".2"/><path d="m133 213.5-4 2v-14l4-2z" fill="#fff" opacity=".1"/><path d="m111 224.5-4 2v-14l4-2z" fill="#fff" opacity=".1"/><path d="m111 247.5-4 2v-22l4-2z" fill="#fff" opacity=".2"/><path d="m117 244.5-4 2v-37l4-2z" fill="#fff" opacity=".1"/><path d="m96 232 64-32v1l-64 32z" fill="#e5e5e5"/><path d="m154 251-4 2v-21l4-2z" fill="#fff" opacity=".2"/><path d="m122 267-4 2v-21l4-2z" fill="#fff" opacity=".3"/><path d="m127 264.5-4 2v-21l4-2z" fill="#fff" opacity=".2"/><path d="m106 275-4 2v-21l4-2z" fill="#fff" opacity=".2"/><path d="m117 269.5-4 2v-21l4-2z" fill="#fff" opacity=".1"/><path d="m96 280 64-32v-64l-64 32z" opacity=".29"/><path d="m16 136v16l8 4v16l8 4 16-8 64 32 16-8v-16z" fill="#e5e5e5"/><path d="m32 128 96 48-16 8-96-48z" fill="#2d3134"/><path d="m32 152 12 6v-6l-12-6z" fill="#39c"/><path d="m46 159 12 6v-6l-12-6z" fill="#39c"/><path d="m60 166 12 6v-6l-12-6z" fill="#39c"/><path d="m32 160v16l16-8z" opacity=".29"/><path d="m112 200 16-8v-16l-16 8z" opacity=".29"/><path d="m16 136v16l8 4v16l8 4v-16l80 40v-16z" opacity=".11"/><path d="m2 143v16l14 7 14-7v-16z" fill="#e5e5e5"/><path d="m16 136 14 7-14 7-14-7z" fill="#2d3134"/><path d="m16 166-14-7v-16l14 7z" opacity=".11"/><path d="m4 158v-12l10 5v12z" opacity=".3"/><path d="m16 166 14-7v-16l-14 7z" opacity=".29"/><path d="m18 165 2-1v-16l-2 1z" opacity=".3"/><path d="m22 163 2-1v-16l-2 1z" opacity=".3"/><path d="m26 161 2-1v-16l-2 1z" opacity=".3"/><path d="m256 16v16l8 4v16l8 4 16-8 64 32 16-8v-16z" fill="#e5e5e5"/><path d="m272 8 96 48-16 8-96-48z" fill="#2d3134"/><path d="m272 32 12 6v-6l-12-6z" fill="#39c"/><path d="m286 39 12 6v-6l-12-6z" fill="#39c"/><path d="m300 46 12 6v-6l-12-6z" fill="#39c"/><path d="m272 40v16l16-8z" opacity=".29"/><path d="m352 80 16-8v-16l-16 8z" opacity=".29"/><path d="m256 16v16l8 4v16l8 4v-16l80 40v-16z" opacity=".11"/><path d="m242 23v16l14 7 14-7v-16z" fill="#e5e5e5"/><path d="m256 16 14 7-14 7-14-7z" fill="#2d3134"/><path d="m256 46-14-7v-16l14 7z" opacity=".11"/><path d="m244 38v-12l10 5v12z" opacity=".3"/><path d="m256 46 14-7v-16l-14 7z" opacity=".29"/><path d="m258 45 2-1v-16l-2 1z" opacity=".3"/><path d="m262 43 2-1v-16l-2 1z" opacity=".3"/><path d="m266 41 2-1v-16l-2 1z" opacity=".3"/><path d="m352 24-128 64h-64v32l-128 64 64 32 64-32h64v-32h64v-32h64v-32l64-32z" fill="#2d3134"/></svg>