<svg enable-background="new 0 0 80 320" viewBox="0 0 80 320" xmlns="http://www.w3.org/2000/svg"><path d="m36.1 89.1s5.1-7.8 7.2-9.6 6.8-2 8.5-.6c1.8 1.4 3.9 4.9.6 7.4s-6.1 4.5-8.2 4.8-5.2 2.2-5.2 2.2z" fill="#fbd7c7"/><path d="m42.5 90.6c-.6-.8-.5-2.1.4-2.7l23.4-18c.8-.6 2.1-.5 2.7.4.6.8.5 2.1-.4 2.7l-23.4 18c-.8.6-2.1.4-2.7-.4z" fill="#cc291f"/><path d="m44.3 93c2.2-.4 4.4-1.4 5.4-2.4 1.1-1.1 2.1-1.8.7-2.9-2-1.5-1.4-3.6-2.1-4.6-1-1.4-11.8 9.3-11.8 9.3s5.5 1 7.8.6z" fill="#fbd7c7"/><path d="m36.1 89.1 4.2 4s-6.9 8.8-10.7 12.2-8.6 7.8-8.6 7.8.5 4.8.9 11c.3 4.2.8 8.1.8 8.1l-5 35.6s-5.4-18.8-6.8-33.4c-1.5-15.2-1.1-24.8 1.3-27.7s23.9-17.6 23.9-17.6z" fill="#28896d"/><path d="m27.5 116.7c.9 2.9 3.6 3.4 6 1 2.5-2.3 3.7-6.6 2.9-9.5-.9-2.9-3.6-3.4-6-1s-3.7 6.6-2.9 9.5z" fill="#2d3134"/><path d="m65.3 305.7c15.9-10.7-.4-14.4-14.7-20.3-13.8-5.6-23.9-15-39.8-2.5-12.8 10.1 10.5 17.7 17.4 21.1 10.4 5.1 22.3 11.7 37.1 1.7z" opacity=".2"/><path d="m9.6 286.5s-2 4.2.5 5 5.3 0 9.6-2.2 12.1-4.2 13.9-7.4c1.7-3.1-2.8-6.1-9.6-4.2-6.8 1.8-5.5 1.5-5.5 1.5z" fill="#2d3134"/><path d="m33.6 279.4c0 .4-.1.8-.4 1.2-1.8 3.2-9.6 5.2-13.9 7.4s-7.2 3-9.6 2.2c-.4-.1-.7-.4-.9-.6 0 .9.3 1.7 1.2 2.1 2.5.8 5.3 0 9.6-2.2s12.1-4.2 13.9-7.4c.6-1 .6-1.9.1-2.7z" opacity=".4"/><path d="m47 301.4s-3.2 7.1 1.4 8.1 8.6-3.3 10.9-4.7c2.4-1.5 8-5 9.5-6.9 1.1-1.3.8-6.6-5.8-5.8-6.5.8-10.4 4.4-10.4 4.4z" fill="#2d3134"/><path d="m68.2 293.3c.5 1.2.3 2.6-.2 3.2-1.5 1.9-7.1 5.4-9.5 6.9s-6.3 5.7-10.9 4.7c-.6-.1-1.1-.4-1.4-.7.3 1 1 1.7 2.3 2 4.6 1 8.6-3.3 10.9-4.7 2.4-1.5 8-5 9.5-6.9.6-.8.8-3.1-.7-4.5z" opacity=".4"/><path d="m25.3 177.8c.5.3 21.2 3.8 21.2 3.8s-7.4 36.6-11.5 47-9.1 27.7-10.3 33.8c-1.3 6.5-2.3 17.1-2.2 17.9.3 2-3.1 7.6-8.2 8.8s-6.5-.4-6.4-1.4c.3-5.7 1-23.7 3.3-34.3 1.6-7.4 5.1-15.7 5.4-19.8s-.7-27.5 2.7-39.9c3.3-12.4 6-15.9 6-15.9z" fill="#06547a"/><path d="m25.3 177.8c.5.3 21.2 3.8 21.2 3.8s-7.4 36.6-11.5 47-9.1 27.7-10.3 33.8c-1.3 6.5-2.3 17.1-2.2 17.9.3 2-3.1 7.6-8.2 8.8s-6.5-.4-6.4-1.4c.3-5.7 1-23.7 3.3-34.3 1.6-7.4 5.1-15.7 5.4-19.8s-.7-27.5 2.7-39.9c3.3-12.4 6-15.9 6-15.9z" opacity=".2"/><path d="m32.1 180.5s-2.7 11.2-1.8 17.5c.9 6.2 2.5 13.4 5.2 23.5 2.8 10.4 7.2 20.7 6.4 30.3s-.1 24.5.3 34.2c.4 11.4.9 20.6 3.6 21.3 4.3 1.2 10.5-3.3 11.7-6.2 1.2-3 1.8-4.4 1.2-7.5-.3-1.6-1.5-18.1-1.1-27.1s1.8-22.3 3-32.8.8-20.8-1.2-31.8-2.3-20-2.3-20z" fill="#06547a"/><path d="m26.2 130.9s4.3 4.8 7.7 5.8c3.9 1.1 11.1.1 11.1.1s2.3-8.3 2.9-9.5 2.8-1.1 3.2-3.8 1.8-15.7 0-17.9-11.4-7.7-16.9-1.2-2 17.5-2.4 20.1c-.3 2.5-5.6 6.4-5.6 6.4z" fill="#fbd7c7"/><path d="m31.5 126s6.3 2.3 10.1 1.6c3.7-.7 6-4.4 6-4.4s.1-5 1.2-6.8 1.6-.8 1.6-.8 2.3-4 2.2-6.9c-.2-3.8-3.9-9.7-13.8-7.2-7.8 2-8.9 10.2-8.8 13.7-.1 3.5 1.5 10.8 1.5 10.8z" fill="#762c07"/><path d="m27.9 129.4s-3.1-1.5-5.4-.7c-2.8 2.8-10.8 8-8 27.7 1.2 8.6 5.2 19.1 3.9 29.8-.9 7.2-2.9 19-1.6 19.5 2.6 1.1 18.7 4.4 29.4 4.2 6.8-.2 14.9-1.8 15.5-2.3s-4.5-39.7-4.1-45.8c.4-6.2 1.7-15.3-2.2-19s-10.2-6-10.2-6-6.3.5-12.1-1.7-5.2-5.7-5.2-5.7z" fill="#fc0"/><g fill="#2d3134"><path d="m43.7 120.9c0 3 2.5 4.3 5.5 2.7s5.5-5.2 5.5-8.2-2.5-4.3-5.5-2.7-5.5 5.2-5.5 8.2z"/><path d="m46.4 122.1c0 2.5 2 3.4 4.4 2.2s4.4-4.2 4.4-6.7-2-3.4-4.4-2.2c-2.4 1.3-4.4 4.2-4.4 6.7z"/><path d="m44.7 99.8c-7.1-1.2-10.8 3.1-12.4 6 1.9-2.5 5.2-5 10.5-4 9.2 1.7 9.6 9.5 9.1 12.9 1.6 1.6 1.8 1.5 2.3-1.7.7-3.3.4-11.5-9.5-13.2z"/></g><path d="m49.5 90.6s-2.7-9.9-3.8-11.6-3.3-4.2-6.3-2.2-4.9 4.1-2.1 7.3 6.5 10.1 6.5 10.1z" fill="#fbd7c7"/><path d="m43 90.8c-.9.6-2.1.3-2.7-.7l-15.3-25.2c-.6-.9-.3-2.1.7-2.7.9-.6 2.1-.3 2.7.7l15.3 25.2c.5 1 .2 2.2-.7 2.7z" fill="#cc291f"/><path d="m41.6 92.7c-2-1.1-3.9-3.4-4.6-4.7-.7-1.4-1.8-3-.1-3.6 2.4-.8 2.5-3 3.5-3.7 1.4-1 4.4 12.1 4.4 12.1s-1.1 1.1-3.2-.1z" fill="#fbd7c7"/><path d="m43.2 94.3 6.3-3.7s5.9 8.3 9 12.2c3.2 3.9 8.3 10 8.8 15.4s-4.9 28.8-6.6 34.5c-1.3 4.5-3.4 13.2-8.1 12.3-5.5-1-7-7.2-4.8-15.6 1.7-6.2 2.8-4.8 6.2-15.8.8-2.6 4.2-12.9 4.2-12.9s-5.8-9.4-8-13.8-7-12.6-7-12.6z" fill="#28896d"/><path d="m46.8 196.4c6.2-.1 12.2-1.3 13.7-1.9 0-.9-.4-5.9-.4-6.8-1.6.6-7.3 1.7-13.4 1.9-9.7.2-23.3-3.6-28.1-5.2-.2.9-.8 5.8-1 6.6 4.2 1.4 19.2 5.7 29.2 5.4z" fill="#fff"/></svg>