<svg enable-background="new 0 0 64 56" viewBox="0 0 64 56" xmlns="http://www.w3.org/2000/svg"><path d="m0 27 16-8 48 24-16 8z" opacity=".3"/><path d="m16 16-16 8v2l32 16 16-8v-2z" fill="#f90"/><path d="m48 32v2l-16 8v-2z" opacity=".29"/><path d="m0 24v2l32 16v-2z" opacity=".11"/><path d="m2 8h4l28 30-2 1-2-1z" fill="#f90"/><path d="m2 8 2 1 28 30-2-1z" opacity=".11"/><path d="m6 8-2 1 28 30 2-1z" opacity=".29"/><path d="m38 33-6 3v6l2 1 6-3v-6z" fill="#f90"/><path d="m40 34v6l-6 3v-6z" opacity=".29"/><path d="m32 36v6l2 1v-6z" opacity=".11"/><path d="m38.4 39.2c-.7-.4-1.4-.4-1.9-.2l-1.4.7c-.5.2-.9.8-.9 1.6 0 1.5 1.3 3.4 2.8 4.2.8.4 1.5.4 2 .2 0 0 1.4-.7 1.5-.8.5-.3.7-.8.7-1.5 0-1.6-1.2-3.4-2.8-4.2z" fill="#2d3134"/><path d="m39 45.6c.2-.1 1.4-.7 1.5-.7.5-.3.7-.8.7-1.5 0-.6-.2-1.3-.5-1.9l-1.4.7c.3.6.5 1.3.5 1.9 0 .7-.3 1.3-.8 1.5z" opacity=".29"/><path d="m39.1 43.7c0 1.2-.9 1.6-2.1 1s-2.1-2-2.1-3.2.9-1.6 2.1-1 2.1 2.1 2.1 3.2z" fill="#999"/><path d="m37.2 44.7c-1.2-.6-2.1-2-2.1-3.2 0-.6.2-1 .6-1.2-.5.1-.8.6-.8 1.2 0 1.2.9 2.6 2.1 3.2.6.3 1.1.3 1.5.1-.3.2-.8.1-1.3-.1z" fill="#808285"/><path d="m38.1 43c0 .5-.4.7-.9.4s-.9-.8-.9-1.3.4-.7.9-.4.9.8.9 1.3z" fill="#2d3134"/><path d="m38.1 43c0 .5-.4.7-.9.4s-.9-.8-.9-1.3.4-.7.9-.4.9.8.9 1.3z" opacity=".39"/><path d="m37.9 43.1c0 .5-.4.7-.9.4s-.9-.8-.9-1.3.4-.7.9-.4.9.8.9 1.3z" fill="#2d3134"/><path d="m39.8 44.1c0 1.5-1.3 2.2-2.8 1.4s-2.8-2.7-2.8-4.2 1.3-2.2 2.8-1.4 2.8 2.6 2.8 4.2z" opacity=".11"/><path d="m48 26-16 8v3l8 4v5l8 4 16-8v-8z" fill="#f90"/><path d="m32 34v3l8 4v5l8 4v-8z" opacity=".11"/><path d="m63 36.4v4.6l-2 1v-4.6z" opacity=".2"/><path d="m62.8 38.1v.3c0 .3-.2.6-.5.8l-.4.2c-.3.2-.7-.1-.7-.5v-.3c0-.3.2-.6.5-.8l.4-.2c.3-.1.7.1.7.5z" fill="#f1f2f2"/><path d="m62.5 38.3c0 .2-.1.5-.3.6h-.2c-.3.1-.6-.1-.6-.4 0-.2.1-.5.3-.6l.1-.1c.4 0 .7.2.7.5z" fill="#fff"/><path d="m62.8 39.6v1l-1.6.8v-1z" fill="#cc291f"/><path d="m51 42.4v4.6l-2 1v-4.6z" opacity=".2"/><path d="m50.8 44.1v.3c0 .3-.2.6-.5.8l-.4.2c-.3.2-.7-.1-.7-.5v-.3c0-.3.2-.6.5-.8l.4-.2c.3-.1.7.1.7.5z" fill="#f1f2f2"/><path d="m50.5 44.3c0 .2-.1.5-.3.6h-.2c-.3.1-.6-.1-.6-.4 0-.2.1-.5.3-.6l.1-.1c.4 0 .7.2.7.5z" fill="#fff"/><path d="m50.8 45.6v1l-1.6.8v-1z" fill="#cc291f"/><path d="m64 34v8l-16 8v-8z" opacity=".29"/><path d="m32 21 2 1-2 1-28 2-2-1 2-1z" fill="#f90"/><path d="m30 22 2 1-28 2-2-1z" opacity=".11"/><path d="m46 18h4l12 16-2 1-2-1z" fill="#f90"/><path d="m46 18 2 1 12 16-2-1z" opacity=".11"/><path d="m50 18-2 1 12 16 2-1z" opacity=".29"/><path d="m34 24h4l12 16-2 1-2-1z" fill="#f90"/><path d="m34 24 2 1 12 16-2-1z" opacity=".11"/><path d="m38 24-2 1 12 16 2-1z" opacity=".29"/><path d="m48 29 2 1-2 1-12 4-2-1 2-1z" fill="#f90"/><path d="m46 30 2 1-12 4-2-1z" opacity=".11"/><path d="m16 0-16 8v2l32 16 16-8v-2z" fill="#f90"/><path d="m48 16v2l-16 8v-2z" opacity=".29"/><path d="m0 8v2l32 16v-2z" opacity=".11"/><path d="m54 17-2 1v2l10 5 2-1v-2z" fill="#f90"/><path d="m64 22v2l-2 1v-2z" opacity=".29"/><path d="m52 18v2l10 5v-2z" opacity=".11"/><path d="m48 16-16 8v2l16 8 16-8v-2z" fill="#f90"/><path d="m64 24v2l-16 8v-2z" opacity=".29"/><path d="m32 24v2l16 8v-2z" opacity=".11"/><path d="m55 13.6v3.9l1 .5v-4l1 .5v4l1 .5v-4l1 .5v4l1 .5v-4l1 .5v4l1 .5v-4l1 .5v4l1 .5v-4.4c0-.4-.2-.7-.6-.9l-7.4-3.7c-.5-.2-1 .1-1 .6z" fill="#f90"/><path d="m55 13.6v3.9l1 .5v-4l1 .5v4l1 .5v-4l1 .5v4l1 .5v-4l1 .5v4l1 .5v-4l1 .5v4l1 .5v-4.4c0-.4-.2-.7-.6-.9l-7.4-3.7c-.5-.2-1 .1-1 .6z" opacity=".11"/><path d="m63 18-2 1v3.5l1 .5 2-1v-3.5z" fill="#f90"/><path d="m64 18.5v3.5l-2 1v-3.5z" opacity=".29"/><path d="m61 19v3.5l1 .5v-3.5z" opacity=".11"/></svg>