<?xml version="1.0" encoding="UTF-8" standalone="no"?>
<svg
   xmlns:dc="http://purl.org/dc/elements/1.1/"
   xmlns:cc="http://creativecommons.org/ns#"
   xmlns:rdf="http://www.w3.org/1999/02/22-rdf-syntax-ns#"
   xmlns:svg="http://www.w3.org/2000/svg"
   xmlns="http://www.w3.org/2000/svg"
   xmlns:sodipodi="http://sodipodi.sourceforge.net/DTD/sodipodi-0.dtd"
   xmlns:inkscape="http://www.inkscape.org/namespaces/inkscape"
   enable-background="new 0 0 128 128"
   viewBox="0 0 128 128"
   version="1.1"
   id="svg238"
   sodipodi:docname="aviation--airport-terminal-07.svg"
   inkscape:version="0.92.2 (5c3e80d, 2017-08-06)">
  <metadata
     id="metadata244">
    <rdf:RDF>
      <cc:Work
         rdf:about="">
        <dc:format>image/svg+xml</dc:format>
        <dc:type
           rdf:resource="http://purl.org/dc/dcmitype/StillImage" />
        <dc:title></dc:title>
      </cc:Work>
    </rdf:RDF>
  </metadata>
  <defs
     id="defs242" />
  <sodipodi:namedview
     pagecolor="#ffffff"
     bordercolor="#666666"
     borderopacity="1"
     objecttolerance="10"
     gridtolerance="10"
     guidetolerance="10"
     inkscape:pageopacity="0"
     inkscape:pageshadow="2"
     inkscape:window-width="1360"
     inkscape:window-height="702"
     id="namedview240"
     showgrid="false"
     inkscape:zoom="1.84375"
     inkscape:cx="145.03226"
     inkscape:cy="64"
     inkscape:window-x="-8"
     inkscape:window-y="-8"
     inkscape:window-maximized="1"
     inkscape:current-layer="svg238" />
  <path
     d="m0 32v64l64 32 64-32v-64z"
     id="path2"
     fill="#e5e5e5" />
  <path
     d="m64 0 64 32-64 32-64-32z"
     fill="#2d3134"
     id="path4" />
  <path
     d="m64 0 64 32-64 32-64-32z"
     fill="#2d3134"
     id="path6" />
  <path
     d="m64 128-64-32v-64l64 32z"
     fill="#e5e5e5"
     id="path8" />
  <path
     d="m64 103-64-32v-37l64 32z"
     fill="#39c"
     id="path10" />
  <path
     d="m15 103.5-14-7v-21l14 7z"
     fill="#39c"
     id="path12" />
  <path
     d="m15 86.5-14-7v-4l14 7z"
     fill="#262626"
     opacity=".15"
     id="path14" />
  <path
     d="m15 84.5-14-7v-2l14 7z"
     fill="#262626"
     opacity=".15"
     id="path16" />
  <path
     d="m15 83.5-14-7v-1l14 7z"
     fill="#262626"
     opacity=".15"
     id="path18" />
  <path
     d="m15 89.5-14-7v-1l14 7z"
     fill="#262626"
     opacity=".15"
     id="path20" />
  <path
     d="m15 87.5-4-2v-5l-1-.5v5l-4-2v-5l-1-.5v5l-4-2v1l4 2v15l1 .5v-15l4 2v15l1 .5v-15l4 2z"
     fill="#fff"
     opacity=".7"
     id="path22" />
  <path
     d="m31 111.5-14-7v-21l14 7z"
     fill="#39c"
     id="path24" />
  <path
     d="m31 94.5-14-7v-4l14 7z"
     fill="#262626"
     opacity=".15"
     id="path26" />
  <path
     d="m31 92.5-14-7v-2l14 7z"
     fill="#262626"
     opacity=".15"
     id="path28" />
  <path
     d="m31 91.5-14-7v-1l14 7z"
     fill="#262626"
     opacity=".15"
     id="path30" />
  <path
     d="m31 97.5-14-7v-1l14 7z"
     fill="#262626"
     opacity=".15"
     id="path32" />
  <path
     d="m31 95.5-4-2v-5l-1-.5v5l-4-2v-5l-1-.5v5l-4-2v1l4 2v15l1 .5v-15l4 2v15l1 .5v-15l4 2z"
     fill="#fff"
     opacity=".7"
     id="path34" />
  <path
     d="m47 119.5-14-7v-21l14 7z"
     fill="#39c"
     id="path36" />
  <path
     d="m47 102.5-14-7v-4l14 7z"
     fill="#262626"
     opacity=".15"
     id="path38" />
  <path
     d="m47 100.5-14-7v-2l14 7z"
     fill="#262626"
     opacity=".15"
     id="path40" />
  <path
     d="m47 99.5-14-7v-1l14 7z"
     fill="#262626"
     opacity=".15"
     id="path42" />
  <path
     d="m47 105.5-14-7v-1l14 7z"
     fill="#262626"
     opacity=".15"
     id="path44" />
  <path
     d="m47 103.5-4-2v-5l-1-.5v5l-4-2v-5l-1-.5v5l-4-2v1l4 2v15l1 .5v-15l4 2v15l1 .5v-15l4 2z"
     fill="#fff"
     opacity=".7"
     id="path46" />
  <path
     d="m63 127.5-14-7v-21l14 7z"
     fill="#39c"
     id="path48" />
  <path
     d="m63 110.5-14-7v-4l14 7z"
     fill="#262626"
     opacity=".15"
     id="path50" />
  <path
     d="m63 108.5-14-7v-2l14 7z"
     fill="#262626"
     opacity=".15"
     id="path52" />
  <path
     d="m63 107.5-14-7v-1l14 7z"
     fill="#262626"
     opacity=".15"
     id="path54" />
  <path
     d="m63 113.5-14-7v-1l14 7z"
     fill="#262626"
     opacity=".15"
     id="path56" />
  <path
     d="m63 111.5-4-2v-5l-1-.5v5l-4-2v-5l-1-.5v5l-4-2v1l4 2v15l1 .5v-15l4 2v15l1 .5v-15l4 2z"
     fill="#fff"
     opacity=".7"
     id="path58" />
  <path
     d="m64 69-64-32v-3l64 32z"
     fill="#262626"
     opacity=".15"
     id="path60" />
  <path
     d="m64 67-64-32v-1l64 32z"
     fill="#262626"
     opacity=".15"
     id="path62" />
  <g
     fill="#fff"
     id="g108">
    <path
       d="m1 71.5-1-.5v-37l1 .5z"
       opacity=".7"
       id="path64" />
    <path
       d="m38 90-1-.5v-37l1 .5z"
       opacity=".7"
       id="path66" />
    <path
       d="m11 76.5-1-.5v-37l1 .5z"
       opacity=".7"
       id="path68" />
    <path
       d="m6 74-1-.5v-37l1 .5z"
       opacity=".7"
       id="path70" />
    <path
       d="m17 79.5-2-1v-37l2 1z"
       opacity=".7"
       id="path72" />
    <path
       d="m22 82-1-.5v-37l1 .5z"
       opacity=".7"
       id="path74" />
    <path
       d="m27 84.5-1-.5v-37l1 .5z"
       opacity=".7"
       id="path76" />
    <path
       d="m43 92.5 1 .5v-37l-1-.5z"
       opacity=".7"
       id="path78" />
    <path
       d="m49 95.5-2-1v-37l2 1z"
       opacity=".7"
       id="path80" />
    <path
       d="m54 98-1-.5v-37l1 .5z"
       opacity=".7"
       id="path82" />
    <path
       d="m59 100.5-1-.5v-37l1 .5z"
       opacity=".7"
       id="path84" />
    <path
       d="m33 87.5-2-1v-37l2 1z"
       opacity=".7"
       id="path86" />
    <path
       d="m64 103-1-.5v-37l1 .5z"
       opacity=".7"
       id="path88" />
    <path
       d="m58 100-4-2v-37l4 2z"
       opacity=".2"
       id="path90" />
    <path
       d="m53 97.5-4-2v-37l4 2z"
       opacity=".1"
       id="path92" />
    <path
       d="m31 86.5-4-2v-22l4 2z"
       opacity=".3"
       id="path94" />
    <path
       d="m37 89.5-4-2v-22l4 2z"
       opacity=".2"
       id="path96" />
    <path
       d="m31 63.5-4-2v-14l4 2z"
       opacity=".2"
       id="path98" />
    <path
       d="m37 66.5-4-2v-14l4 2z"
       opacity=".1"
       id="path100" />
    <path
       d="m15 55.5-4-2v-14l4 2z"
       opacity=".1"
       id="path102" />
    <path
       d="m15 78.5-4-2v-22l4 2z"
       opacity=".2"
       id="path104" />
    <path
       d="m21 81.5-4-2v-37l4 2z"
       opacity=".1"
       id="path106" />
  </g>
  <path
     d="m0 48 64 32v1l-64-32z"
     fill="#e5e5e5"
     id="path110" />
  <path
     d="m58 125-4-2v-21l4 2z"
     fill="#fff"
     opacity=".2"
     id="path112" />
  <path
     d="m26 109-4-2v-21l4 2z"
     fill="#fff"
     opacity=".3"
     id="path114" />
  <path
     d="m31 111.5-4-2v-21l4 2z"
     fill="#fff"
     opacity=".2"
     id="path116" />
  <path
     d="m10 101-4-2v-21l4 2z"
     fill="#fff"
     opacity=".2"
     id="path118" />
  <path
     d="m21 106.5-4-2v-21l4 2z"
     fill="#fff"
     opacity=".1"
     id="path120" />
  <path
     d="m64 128-64-32v-64l64 32z"
     opacity=".11"
     id="path122" />
</svg>
