<svg enable-background="new 0 0 400 400" viewBox="0 0 400 400" xmlns="http://www.w3.org/2000/svg"><path d="m240 389.9 120-60-200-99.9-120 60z" opacity=".3"/><path d="m370 280-130-67v-33l-40-20-6-33-34-17-100 50v70l40 20 10 40 160 80 100-50z" fill="#f90"/><path d="m82.8 235.8c-8.1-4.1-15.5-4.5-21-2.1l-15.3 7.6c-5.9 2.6-9.5 8.6-9.5 17.3 0 16.8 13.7 37.3 30.5 45.8 8.3 4.2 15.9 4.6 21.4 1.9 0 0 15.2-7.5 16.4-8.3 4.9-2.9 7.9-8.6 7.9-16.5.1-16.8-13.6-37.3-30.4-45.7z" fill="#2d3134"/><path d="m89.2 306.1c2.2-1.1 14.9-7.4 16.1-8.1 4.9-2.9 7.9-8.6 7.9-16.5 0-6.8-2.2-14.1-6-21.1l-15.2 7.7c3.7 6.9 6 14.3 6 21.1 0 8.3-3.3 14.2-8.8 16.9z" opacity=".39"/><path d="m90.4 285.1c0 12.6-10.2 17.8-22.9 11.4-12.6-6.3-22.9-21.7-22.9-34.3s10.2-17.8 22.9-11.4 22.9 21.7 22.9 34.3z" fill="#a9abb0"/><path d="m69.4 295.8c-12.6-6.3-22.9-21.7-22.9-34.3 0-6.2 2.5-10.6 6.5-12.7-5.1 1.6-8.4 6.4-8.4 13.5 0 12.6 10.2 28 22.9 34.3 6.4 3.2 12.2 3.5 16.4 1.3-4 1.2-9 .6-14.5-2.1z" fill="#808285"/><path d="m78.9 277.7c0 5.3-4.3 7.4-9.5 4.8s-9.5-9-9.5-14.3 4.3-7.4 9.5-4.8 9.5 9 9.5 14.3z" fill="#2d3134"/><path d="m78.9 277.7c0 5.3-4.3 7.4-9.5 4.8s-9.5-9-9.5-14.3 4.3-7.4 9.5-4.8 9.5 9 9.5 14.3z" opacity=".39"/><path d="m77 278.6c0 5.3-4.3 7.4-9.5 4.8s-9.5-9-9.5-14.3 4.3-7.4 9.5-4.8 9.5 9 9.5 14.3z" fill="#2d3134"/><path d="m98 289.1c0 16.8-13.7 23.7-30.5 15.2s-30.5-28.8-30.5-45.7 13.7-23.7 30.5-15.2c16.9 8.4 30.5 28.9 30.5 45.7z" opacity=".06"/><path d="m270 370-160-80-10-40-40-20v-70l34 17 6 33 40 20v35l130 65z" opacity=".11"/><path d="m140 265.2 34.1 16.8 70.2-34.8-35.3-18z" fill="#2d3134"/><path d="m140 230.3 100-50.3v33.3l-100 51.7z" opacity=".29"/><path d="m94 177 6 33 100-50-6-33z" opacity=".29"/><path d="m167 190 34.5-17.2v-4.5l-9.7-36.8-3-1.5-34.5 17.3 5.2 39z" fill="#2d3134"/><path d="m191.8 131.5 9.7 36.7v4.6l-34.5 17.2v-4.5l-9.7-36.7z" opacity=".29"/><path d="m154.3 147.3 5.2 39 7.5 3.7v-4.5l-9.7-36.7z" opacity=".11"/><path d="m194 203.5 34.5-17.2v-4.5l-27-13.5-34.5 17.2v4.5z" fill="#2d3134"/><path d="m228.5 181.8v4.5l-34.5 17.2v-4.5z" opacity=".29"/><path d="m167 185.5v4.5l27 13.5v-4.5z" opacity=".11"/><path d="m122.8 212 34.5-17.2v-4.5l-9.8-36.8-3-1.5-34.5 17.3 5.3 39z" fill="#2d3134"/><path d="m147.5 153.5 9.8 36.7v4.6l-34.5 17.2v-4.5l-9.8-36.7z" opacity=".29"/><path d="m110 169.3 5.3 39 7.5 3.7v-4.5l-9.8-36.7z" opacity=".11"/><path d="m149.8 225.5 34.5-17.2v-4.5l-27-13.5-34.5 17.2v4.5z" fill="#2d3134"/><path d="m184.3 203.8v4.5l-34.5 17.2v-4.5z" opacity=".29"/><path d="m122.8 207.5v4.5l27 13.5v-4.5z" opacity=".11"/><path d="m240.4 169.9c-1.7.4-2.9 1.5-2.6 2.3l10.1 37.9c.2.8 1.8 1.2 3.4.7 1.7-.4 2.9-1.5 2.6-2.3l-10.1-37.9c-.2-.9-1.7-1.2-3.4-.7z" fill="#2d3134"/><path d="m241.2 172.9c-1.7.4-3.2.1-3.4-.7l10.1 37.9c.2.8 1.8 1.2 3.4.7 1.7-.4 2.9-1.5 2.6-2.3l-10.1-37.9c.3.8-.9 1.9-2.6 2.3z" opacity=".2"/><path d="m265.5 163.3c-.7-2-3-2.9-7.2-2.9-5.3 0-12.9 1.5-20.8 4.1-6.6 2.2-12.6 4.8-16.9 7.5-5.1 3.1-7.1 5.8-6.4 8.2.7 2 3 2.9 7.2 2.9 5.3 0 12.9-1.5 20.8-4.1 9-2.8 25.2-9.9 23.3-15.7zm-27.1 4.1c5.4-1.8 10.8-3.1 15.2-3.6l-13.3 6.2-10.8.8c2.7-1.2 5.8-2.4 8.9-3.4zm-21.3 11.9c-.1-.3.6-1.9 5.1-4.7.1-.1.3-.2.4-.3l15.5-1.2-2.3 4.7c-5.5 1.5-10.6 2.3-14.3 2.3-3.4.1-4.3-.6-4.4-.8zm24.3-3.1c-.6.2-1.1.4-1.7.5l2.1-4.2 19.2-9c1.2.2 1.7.6 1.7.7.4 1.4-6.3 7.1-21.3 12z" fill="#2d3134"/><path d="m219.4 310.6c-7.3-3.7-14-4.1-19-1.9l-13.8 6.9c-5.3 2.4-8.6 7.8-8.6 15.7 0 15.3 12.3 33.8 27.6 41.4 7.5 3.8 14.4 4.2 19.3 1.7 0 0 13.7-6.8 14.9-7.5 4.5-2.7 7.2-7.8 7.2-15 0-15.1-12.3-33.7-27.6-41.3z" fill="#2d3134"/><path d="m225.3 374.3c2-1 13.5-6.7 14.5-7.4 4.5-2.7 7.2-7.8 7.2-15 0-6.1-2-12.8-5.4-19.1l-13.8 6.9c3.4 6.3 5.4 12.9 5.4 19.1 0 7.7-3 13-7.9 15.5z" opacity=".39"/><path d="m226.3 355.3c0 11.4-9.3 16.1-20.7 10.4s-20.7-19.6-20.7-31.1c0-11.4 9.3-16.1 20.7-10.4 11.5 5.7 20.7 19.6 20.7 31.1z" fill="#a9abb0"/><path d="m207.4 364.9c-11.4-5.7-20.7-19.6-20.7-31.1 0-5.6 2.2-9.6 5.9-11.5-4.6 1.5-7.6 5.8-7.6 12.2 0 11.4 9.3 25.4 20.7 31.1 5.8 2.9 11 3.1 14.8 1.2-3.6 1.1-8.2.6-13.1-1.9z" fill="#808285"/><path d="m216 348.5c0 4.8-3.9 6.7-8.6 4.3-4.8-2.4-8.6-8.2-8.6-13s3.9-6.7 8.6-4.3c4.7 2.5 8.6 8.3 8.6 13z" fill="#2d3134"/><path d="m216 348.5c0 4.8-3.9 6.7-8.6 4.3-4.8-2.4-8.6-8.2-8.6-13s3.9-6.7 8.6-4.3c4.7 2.5 8.6 8.3 8.6 13z" opacity=".39"/><path d="m214.3 349.3c0 4.8-3.9 6.7-8.6 4.3-4.8-2.4-8.6-8.2-8.6-13s3.9-6.7 8.6-4.3c4.7 2.5 8.6 8.3 8.6 13z" fill="#2d3134"/><path d="m233.2 358.9c0 15.3-12.3 21.4-27.6 13.8-15.2-7.6-27.6-26.2-27.6-41.4 0-15.3 12.3-21.4 27.6-13.8s27.6 26.2 27.6 41.4z" opacity=".06"/><path d="m140.3 265.3-41.3-20.8v-34.5h.8v34l40.9 20.7z" opacity=".2"/><path d="m170.1 220 99.9-49.9 34.4 17.2c26.5 13.2 46.3 37 54.4 65.5l7.2 25.2-100 50-95.9-48z" fill="#f90"/><path d="m170.1 220 34.4 17.2c26.5 13.2 46.2 37 54.3 65.5l7.2 25.3-95.9-48z" opacity=".11"/><path d="m358.8 252.7c-4.3-15-11.8-28.7-21.8-40.2l-100 50c10 11.5 17.5 25.2 21.8 40.2l7.2 25.3 100-50z" opacity=".29"/><path d="m350 300v20l-60 30v-20z" fill="#2d3134"/><path d="m352 308.9c0 4.4 3.6 6.2 8 4s8-7.6 8-12-3.6-6.2-8-4c-4.4 2.3-8 7.6-8 12z" fill="#fff"/><ellipse cx="362.5" cy="305.6" fill="#2d3134" opacity=".3" rx="4.4" ry="2.9" transform="matrix(-.6313 .7756 -.7756 -.6313 828.2653 217.3238)"/><ellipse cx="358.4" cy="305.6" fill="#2d3134" opacity=".3" rx="4.4" ry="2.9" transform="matrix(-.6313 .7756 -.7756 -.6313 821.6174 220.4845)"/><path d="m272 348.9c0 4.4 3.6 6.2 8 4s8-7.6 8-12-3.6-6.2-8-4c-4.4 2.3-8 7.6-8 12z" fill="#fff"/><ellipse cx="282.5" cy="345.6" fill="#2d3134" opacity=".3" rx="4.4" ry="2.9" transform="matrix(-.6313 .7756 -.7756 -.6313 728.7856 344.6195)"/><ellipse cx="278.4" cy="345.6" fill="#2d3134" opacity=".3" rx="4.4" ry="2.9" transform="matrix(-.6313 .7756 -.7756 -.6313 722.1376 347.7802)"/><path d="m370 280v40l-100 50v-40z" opacity=".29"/><path d="m258.5 87.5-4.5-3-93-46.5-6 3v81.8l6 3 6-3v-69.8l81 40.5 32 94.5 6 3 6-3z" fill="#f90"/><path d="m258.5 87.5 33.5 100.5-6 3-33.5-100.5z" opacity=".29"/><path d="m252.5 90.5-4.5-3-93-46.5v81.8l6 3v-75.8l87 43.5 32 94.5 6 3z" opacity=".11"/><path d="m161 50v75.8l6-3v-69.8z" opacity=".29"/><path d="m174.5 125.8 72-36v-1.5l-88.5-44.3-72 36v1.5z" fill="#f90"/><path d="m246.5 88.3v1.5l-72 36v-1.5z" opacity=".29"/><path d="m86 80v1.5l88.5 44.3v-1.5z" opacity=".11"/><path d="m180.5 126.5-4.5-3-93-46.5-6 3v81.8l6 3 6-3v-69.8l81 40.5 32 94.5 6 3 6-3z" fill="#f90"/><path d="m180.5 126.5 33.5 100.5-6 3-33.5-100.5z" opacity=".29"/><path d="m174.5 129.5-4.5-3-93-46.5v81.8l6 3v-75.8l87 43.5 32 94.5 6 3z" opacity=".11"/><path d="m83 89v75.8l6-3v-69.8z" opacity=".29"/></svg>