<svg enable-background="new 0 0 80 240" viewBox="0 0 80 240" xmlns="http://www.w3.org/2000/svg"><path d="m23.1 38.9c.9 2.9 3.6 3.4 6 1s3.7-6.6 2.9-9.5c-.9-2.9-3.6-3.4-6-1s-3.8 6.6-2.9 9.5z" fill="#2d3134"/><path d="m9.3 56.6c-1 5.1-4 21.5-2.3 24.5 1.7 2.9 8.9 2.7 14.2.3 5.2-2.5-11.9-24.8-11.9-24.8z" fill="#28896d"/><path d="m60.9 80.2-24.6 3.8-4.7-30.3 24.7-3.8z" fill="#2d3134"/><path d="m58.7 227c12.5-4.6 5.1-9.9-8.4-17.1-13-6.9-19-17.4-35.9-6.7-13.6 8.7 5.3 18.2 11.8 22.2 9.7 6.2 15.9 7.8 32.5 1.6z" opacity=".2"/><path d="m22 52.5s4.2 4.8 7.6 5.7c3.8 1.1 11 .1 11 .1s2.2-8.2 2.8-9.4 2.8-1.1 3.2-3.8 1.8-15.5 0-17.7-11.1-7.6-16.6-1.2-2 17.3-2.4 19.9-5.6 6.4-5.6 6.4z" fill="#fbd7c7"/><path d="m27.2 47.7s6.3 2.3 10 1.6 6-4.4 6-4.4.1-5 1.2-6.8 1.6-.8 1.6-.8 2.3-4 2.1-6.8c-.2-3.7-3.8-9.6-13.7-7.1-7.7 2-8.9 10.1-8.8 13.5.1 3.6 1.6 10.8 1.6 10.8z" fill="#762c07"/><path d="m36.1 217.7c-.3 2.7-1 10.3 1.2 11.1 3.4 1.3 9.7-.8 12.8-1.8s11-3.2 11.3-5.8c.3-2.5-1.9-4.6-6.3-3.8-3.6.7-8 .4-8.7-1-.6-1.4-.6-1.4-.6-1.4z" fill="#2d3134"/><path d="m61.2 219.4v.5c-.3 2.7-8.5 4.9-11.6 6-3.1 1-9.6 3.2-13.1 1.9 0 0-.1 0-.1-.1.2.6.5 1 1 1.2 3.4 1.3 9.7-.8 12.8-1.8s11-3.2 11.3-5.8c0-.8-.1-1.4-.3-1.9z" opacity=".4"/><path d="m12.1 201.5s-.8 7.9.2 9.6c1.2 2.2 5.3 2.5 8.3.8s5.1-4.2 8.6-5.1 7.6-3.5 5.6-5.5c-2.4-2.4-5.1-1.9-10.7-.7-1.8.4-2.8-1.6-2.8-1.6z" fill="#2d3134"/><path d="m34.8 201.4c0-.1 0-.1 0 0-.2 1.6-3.4 3.4-6.2 4.2-3.5.9-5.6 3.4-8.6 5.1-2.8 1.6-6.5 1.5-8-.3.1.3.2.6.3.8 1.2 2.2 5.3 2.5 8.3.8s5.1-4.2 8.6-5.1c3.5-1 7.6-3.6 5.6-5.5z" opacity=".4"/><path d="m38.9 103.4c-1-.1-19.9-4.1-19.9-4.1s-7.7 12.9-8 22.7c-.2 9.8 2 29.7 1.5 35.9-.4 5.2-2.3 16.6-2 24.6.3 8.9 0 24.3 1 25.1 2.7 2.5 7.9.1 10.6-2.2s3.5-3.8 3.8-5c.3-1.3-.6-3.4-.4-11.1.1-7.8 1.8-23.3 2.5-27.7s5.3-20.2 7-28.2 3.9-30 3.9-30z" fill="#06547a"/><path d="m38.9 103.4c-1-.1-19.9-4.1-19.9-4.1s-7.7 12.9-8 22.7c-.2 9.8 2 29.7 1.5 35.9-.4 5.2-2.3 16.6-2 24.6.3 8.9 0 24.3 1 25.1 2.7 2.5 7.9.1 10.6-2.2s3.5-3.8 3.8-5c.3-1.3-.6-3.4-.4-11.1.1-7.8 1.8-23.3 2.5-27.7s5.3-20.2 7-28.2 3.9-30 3.9-30z" opacity=".2"/><path d="m51.6 104.4s1.4 14.8 1.8 23.5c.5 12-1.4 30.2-2.5 41-1.1 11.2-1.5 25.5-1.3 32.9.2 6.4.6 15.6.6 15.6s.3 3.2-6.6 6c-3.6 1.5-7.7 2.2-8.5.9s-1.9-13.9-2-20.3-1.1-19.2.3-30.3-.8-18.2-2.5-26.1c-1.8-7.9-6.1-21.9-6.6-28.4s2.8-16.4 2.8-16.4z" fill="#06547a"/><path d="m57.8 64.2c-1.1.1-1.1 2.9-.2 6.1s1.1 5.1 2.6 4.8.6-5.6.2-6.9c-.5-1.4-1.3-4.1-2.6-4z" fill="#fbd7c7"/><g fill="#2d3134"><path d="m39.3 43.1c0 3 2.5 4.3 5.5 2.7s5.5-5.2 5.5-8.2-2.5-4.3-5.5-2.7-5.5 5.2-5.5 8.2z"/><path d="m42 44.3c0 2.5 2 3.4 4.4 2.2s4.4-4.2 4.4-6.7-2-3.4-4.4-2.2-4.4 4.2-4.4 6.7z"/><path d="m40.3 22c-7.1-1.2-10.8 3.1-12.4 6 1.9-2.5 5.2-5 10.5-4 9.2 1.7 9.6 9.5 9.1 12.9 1.6 1.6 1.8 1.5 2.3-1.7.6-3.3.3-11.5-9.5-13.2z"/></g><path d="m23.3 51.2s-7.3-1.8-12.1 1c-2.8 2.8-4 6.4-1.2 26 1.2 8.6 3.4 19.4 2.1 30.1-.9 7.2-2.9 19-1.6 19.5 2.6 1.1 18.7 4.4 29.4 4.2 6.8-.2 14.9-1.8 15.5-2.3.5-.5-2.8-39.9-2.4-46.1s1.7-15.3-2.2-19-10.2-6-10.2-6-6.3.5-12.1-1.7-5.2-5.7-5.2-5.7z" fill="#fc0"/><path d="m40.5 118.5c6.2-.1 12.8-1.3 14.3-1.9 0-.9-.4-5.9-.4-6.8-1.6.6-7.9 1.8-14 1.9-9.7.2-23.3-3.6-28.1-5.2-.2.9-.8 5.8-1 6.6 4.2 1.3 19.1 5.6 29.2 5.4z" fill="#fff"/><path d="m73.3 80.9s.8-1.7.6-4-.5-11.6-2.3-12.3-4.5-.3-4.2 4c.3 4.2-1.1 4.8-.6 7.1.6 2.3 2 3.7 2 3.7z" fill="#fbd7c7"/><path d="m44.5 63.4c-6.5 2.3-5.5 10.4-3.8 14.1s12.1 26.7 17.2 26.6 14.3-19.9 14.3-19.9l1.4-3.3-6.1-2.9-1.1 2.9-8 7.6s-2.9-11.5-3.8-15.2c-1.3-5-3.6-12.2-10.1-9.9z" fill="#28896d"/></svg>