<svg enable-background="new 0 0 64 40" viewBox="0 0 64 40" xmlns="http://www.w3.org/2000/svg"><path d="m4 21 16-8 38 19-16 8z" opacity=".3"/><path d="m37.5 30.8c-.7-.4-1.4-.4-1.9-.2l-1.4.7c-.5.2-.9.8-.9 1.6 0 1.5 1.3 3.4 2.8 4.2.8.4 1.5.4 2 .2 0 0 1.4-.7 1.5-.8.5-.3.7-.8.7-1.5 0-1.6-1.3-3.5-2.8-4.2z" fill="#2d3134"/><path d="m38 37.2c.2-.1 1.4-.7 1.5-.7.5-.3.7-.8.7-1.5 0-.6-.2-1.3-.5-1.9l-1.4.7c.3.6.5 1.3.5 1.9 0 .7-.3 1.3-.8 1.5z" opacity=".29"/><path d="m38.2 35.3c0 1.2-.9 1.6-2.1 1s-2.1-2-2.1-3.2.9-1.6 2.1-1c1.1.6 2.1 2 2.1 3.2z" fill="#999"/><path d="m36.2 36.3c-1.2-.6-2.1-2-2.1-3.2 0-.6.2-1 .6-1.2-.5.1-.8.6-.8 1.2 0 1.2.9 2.6 2.1 3.2.6.3 1.1.3 1.5.1-.3.2-.8.1-1.3-.1z" fill="#808285"/><path d="m37.1 34.6c0 .5-.4.7-.9.4-.5-.2-.9-.8-.9-1.3s.4-.7.9-.4c.5.2.9.8.9 1.3z" fill="#2d3134"/><path d="m37.1 34.6c0 .5-.4.7-.9.4-.5-.2-.9-.8-.9-1.3s.4-.7.9-.4c.5.2.9.8.9 1.3z" opacity=".39"/><path d="m36.9 34.7c0 .5-.4.7-.9.4-.5-.2-.9-.8-.9-1.3s.4-.7.9-.4c.5.2.9.8.9 1.3z" fill="#2d3134"/><path d="m38.8 35.7c0 1.5-1.3 2.2-2.8 1.4s-2.8-2.7-2.8-4.2 1.3-2.2 2.8-1.4c1.6.7 2.8 2.6 2.8 4.2z" opacity=".11"/><path d="m9.4 16.8c-.7-.4-1.4-.4-1.9-.2l-1.4.7c-.5.2-.9.8-.9 1.6 0 1.5 1.3 3.4 2.8 4.2.8.4 1.5.4 2 .2 0 0 1.4-.7 1.5-.8.5-.3.7-.8.7-1.5.1-1.6-1.2-3.5-2.8-4.2z" fill="#2d3134"/><path d="m10 23.2c.2-.1 1.4-.7 1.5-.7.5-.3.7-.8.7-1.5 0-.6-.2-1.3-.5-1.9l-1.4.7c.3.6.5 1.3.5 1.9.1.7-.3 1.3-.8 1.5z" opacity=".29"/><path d="m10.1 21.3c0 1.2-.9 1.6-2.1 1s-2.1-2-2.1-3.2.9-1.6 2.1-1 2.1 2 2.1 3.2z" fill="#999"/><path d="m8.2 22.3c-1.2-.6-2.1-2-2.1-3.2 0-.6.2-1 .6-1.2-.5.1-.8.6-.8 1.2 0 1.2.9 2.6 2.1 3.2.6.3 1.1.3 1.5.1-.3.2-.8.1-1.3-.1z" fill="#808285"/><path d="m9.1 20.6c0 .5-.4.7-.9.4-.5-.2-.9-.8-.9-1.3s.4-.7.9-.4c.5.2.9.8.9 1.3z" fill="#2d3134"/><path d="m9.1 20.6c0 .5-.4.7-.9.4-.5-.2-.9-.8-.9-1.3s.4-.7.9-.4c.5.2.9.8.9 1.3z" opacity=".39"/><path d="m8.9 20.7c0 .5-.4.7-.9.4s-.9-.8-.9-1.3.4-.7.9-.4.9.8.9 1.3z" fill="#2d3134"/><path d="m10.9 21.7c0 1.5-1.3 2.2-2.8 1.4s-2.8-2.7-2.8-4.2 1.3-2.2 2.8-1.4c1.5.7 2.8 2.6 2.8 4.2z" opacity=".11"/><path d="m20 6-16 8v2l38 19 16-8v-2z" fill="#656565"/><path d="m58 25v2l-16 8v-2z" opacity=".29"/><path d="m4 14v2l38 19v-2z" opacity=".11"/><path d="m53 28-6 3v1l14 5 2-1v-1zm-2.8 3.4 2.8-1.4 5.6 4.2z" fill="#656565"/><path d="m47 31v1l14 5v-1z" opacity=".11"/><path d="m61 37 2-1v-1l-2 1z" opacity=".29"/><path d="m53 30 5.6 4.2 2.4.8-8-6z" opacity=".11"/><path d="m49 31 1.2.4 2.8-1.4v-1z" opacity=".29"/></svg>