<svg enable-background="new 0 0 80 240" viewBox="0 0 80 240" xmlns="http://www.w3.org/2000/svg"><path d="m18.8 52.7c-3.5 1.9-3.9 9.8-5 17.3s-.8 18.1-.6 21.5 4.2 12.2 6.8 15.6 6.9 7.2 6.9 7.2l3.9-6.8s-8.2-15.4-8.4-16.2 2.7-21.1 2.8-22.6c.2-1.4-6.4-16-6.4-16z" fill="#fbd7c7"/><path d="m67.2 233c26.9-13.2 1-17.9-14.1-26.3-20.8-11.6-27.5-15.7-43-6.1-17.1 10.6.2 18 16.1 25.4 18.1 8.4 25.1 14.9 41 7z" opacity=".2"/><path d="m10.3 211.8c-.3 1.9-.7 3.5 2 4.2 2.6.7 5.4.3 7.9-1.7s3.7-3.1 7.1-4.1 5-4 5-6.5-2.1-4.7-6.5-3.3c-4.5 1.4-6.8 3.3-6.8 3.3z" fill="#262626"/><path d="m32.3 203.6c0-.8-.2-1.5-.6-2.2.5 2.2.3 6.4-7.5 8-2.4.5-5.8 3.7-8.3 4.5-1.9.6-4.3 0-5.7-1.1-.2 1.4 0 2.6 2.1 3.2 2.6.7 5.4.3 7.9-1.7s3.7-3.1 7.1-4.1c3.5-1 5-4 5-6.6z" opacity=".5"/><path d="m48.3 227.7c0 2.6-1.1 5 2.2 5.6s10.3-3.8 13-4.5c2.9-.8 9.9-3.6 9.9-6.1s-2.9-5.2-6.1-5c-3.1.3-9.1.7-9.1.7z" fill="#262626"/><path d="m73.3 222.8c0-1.4-.9-2.8-2.2-3.8 3.9 4.7-2.5 6.3-6.2 7.3-4.5 1.2-9.5 4.2-12.2 5-1.9.5-3.5-.1-4.6-.7 0 1.4.3 2.5 2.3 2.9 3.3.6 10.3-3.8 13-4.5 2.9-.9 9.9-3.8 9.9-6.2z" opacity=".5"/><path d="m27.7 100.5c-2.6 4.5-6.9 10.8-8.6 19.8s-.2 28.7-2.9 40.5-4.6 18.2-6.5 31.2-2.7 19 .6 20.4c3.1 1.4 7.9.8 11.1-1.7 4.2-3.2 3.9-6.9 3.8-9.4s2.3-10.3 3.7-16.8 7.5-27.7 10.3-36.5 8.5-38.7 8.5-38.7z" fill="#339"/><path d="m27.7 100.5c-2.6 4.5-6.9 10.8-8.6 19.8s-.2 28.7-2.9 40.5-4.6 18.2-6.5 31.2-2.7 19 .6 20.4c3.1 1.4 7.9.8 11.1-1.7 4.2-3.2 3.9-6.9 3.8-9.4s2.3-10.3 3.7-16.8 7.5-27.7 10.3-36.5 8.5-38.7 8.5-38.7z" opacity=".3"/><path d="m36.1 107c-1.7 3.6-7 18.6-4.6 23.9 3.2 6.8 12.5 37.1 13.7 48.1.6 5.1 1.2 42 1.4 45.6s.6 5.8 4.8 6 10.4-2.9 11.1-7.8 1.2-27.4 1-35.4.5-46.9-1.2-57.8c-1.6-10.9-4.5-21.5-4.5-21.5z" fill="#339"/><path d="m36.1 107c-1.7 3.6-7 18.6-4.6 23.9 3.2 6.8 12.5 37.1 13.7 48.1.6 5.1 1.2 42 1.4 45.6s.6 5.8 4.8 6 10.4-2.9 11.1-7.8 1.2-27.4 1-35.4.5-46.9-1.2-57.8c-1.6-10.9-4.5-21.5-4.5-21.5z" opacity=".15"/><path d="m30.8 53.6s3.4-3.2 3.4-6.8-4.3-11.8 0-18.1 15.7-7.7 20.2.6c4.7 8.6 0 20.2-1.5 21s-3.9.1-4.5.6-.6 4.1-.5 5.6c.1 1.6-7.4 2.8-11.5 2.2-4.1-.5-5.6-5.1-5.6-5.1z" fill="#fbd7c7"/><path d="m34 45.2c.4 1.2 2.7 3.3 6.1 3.1 3.4-.3 6.9-3.2 7.5-5.5.7-2.3 1.2-4.4 2.7-4.1 1.4.3.3 1.8.9 1.8.7 0 4.8-7.9 4.3-9.8-.3-1.2-1.4-4.6-5.7-7-4.5-2.4-15.1-2.3-17.4 7.4-1.5 6.4 1.6 14.1 1.6 14.1z" fill="#825012"/><path d="m54.2 32.9s4.7-1 4.8-3.1-4.2-2.3-4.2-2.3 2.5-11.6-5.7-12.2-12.1 6.3-16.1 9.7-8.1 10.2-5.7 12.4c2.5 2.1 4.1 1.4 4.6 2.6.6 1.2 7.1 1.8 10 .6 2.9-1.1 12.3-7.7 12.3-7.7z" fill="#339"/><path d="m32.6 41.5s10.7 2.4 17.2-3.3 5.4-10.5 5.4-10.5l-.4-.6s-1.1 7.1-8 10.5-15 2.4-15 2.4z" fill="#339"/><path d="m32 40.5s11 1.5 17.7-4 5.1-9.5 5.1-9.5 0 6.2-8 10.5c-6.8 3.7-15 2.4-15 2.4z" fill="#f90"/><path d="m32.9 50s-2 .9-4.3.7c-4-.3-10.5-.3-12.2 3.2-1.6 3.4-4.8 11.8-4.2 19.3 0 .5 5.5 1.2 5.6 1.8.7 3.8 1.8 14.3 3.4 23.5 1.3 7.2 10.3 12.5 14.5 13.2 2.8.4 7.3 2 17.5.7 6.8-.9 8-28.1 8-28.1s1.3-.7 1.4-1.3c.4-6.2 0-17.2-4.5-20.5-2.3-1.7-5-3.1-7-4.1-1.9-.9-3-2.7-3-2.7s-4.8.5-10.5-1.6-4.7-4.1-4.7-4.1z" fill="#fff"/><path d="m29.6 50.7s.3 4.3 7.4 6.1c6.3 1.6 16.7 3.1 16.7 3.1s-10.6-1-16.6-2.4c-8.6-1.9-8.4-6.8-8.4-6.8z" opacity=".2"/><path d="m23.9 103.8-.2 3.3s1.6 4 9.3 6.1c7.8 2.2 18.1 2.3 20.3 2s3.3-1.1 3.3-1.1l-.8-3.7s-11.1 2.7-20.3.2c-9.1-2.6-11.6-6.8-11.6-6.8z" fill="#262626"/><path d="m47.8 84.7s5 1.3 8.6.7 5-1.4 5-1.4-1.2 4-1.7 5.4c-.9 3-1.8 8.5-1.9 10.9s-.3 5.1-.3 5.1 2.2 2.5 3.3 6.5c1.2 4 1.8 7.4 2.9 9.1 1.2 1.8 2.3 3.7 2.5 6.7.2 2.9.8 8.5-1.2 10s-5.9 3-7.5 2.3c-1.6-.8-2.3-2.1-2-2.6s1.5 1.3 2.8-.2 1.2-2.8.6-5.4.7-4.5.3-5.4-9.5-12.5-10.5-17.9-.9-23.8-.9-23.8z" fill="#fbd7c7"/><path d="m55.7 70.5s1-.5 2.7-.8c.9-.1 1.9.1 1.9.1s-.6-2.6-2-4.8c-1.3-2.1-4.5-5.6-7-4s1.3 2.2 3 5.3c1.3 2.5 1.4 4.2 1.4 4.2z" fill="#39c"/></svg>