<svg enable-background="new 0 0 64 96" viewBox="0 0 64 96" xmlns="http://www.w3.org/2000/svg"><path d="m0 32v64h64v-64z" fill="#e5e5e5"/><path d="m64 0-64 32h64z" fill="#2d3134"/><path d="m64 0-64 32h64z" fill="#2d3134"/><path d="m0 32h64v64h-64z" fill="#e5e5e5"/><path d="m0 34h64v37h-64z" fill="#39c"/><path d="m1 75h14v21h-14z" fill="#39c"/><path d="m1 75h14v4h-14z" fill="#262626" opacity=".15"/><path d="m1 75h14v2h-14z" fill="#262626" opacity=".15"/><path d="m1 75h14v1h-14z" fill="#262626" opacity=".15"/><path d="m1 81h14v1h-14z" fill="#262626" opacity=".15"/><path d="m15 80h-4v-5h-1v5h-4v-5h-1v5h-4v1h4v15h1v-15h4v15h1v-15h4z" fill="#fff" opacity=".7"/><path d="m17 75h14v21h-14z" fill="#39c"/><path d="m17 75h14v4h-14z" fill="#262626" opacity=".15"/><path d="m17 75h14v2h-14z" fill="#262626" opacity=".15"/><path d="m17 75h14v1h-14z" fill="#262626" opacity=".15"/><path d="m17 81h14v1h-14z" fill="#262626" opacity=".15"/><path d="m31 80h-4v-5h-1v5h-4v-5h-1v5h-4v1h4v15h1v-15h4v15h1v-15h4z" fill="#fff" opacity=".7"/><path d="m33 75h14v21h-14z" fill="#39c"/><path d="m33 75h14v4h-14z" fill="#262626" opacity=".15"/><path d="m33 75h14v2h-14z" fill="#262626" opacity=".15"/><path d="m33 75h14v1h-14z" fill="#262626" opacity=".15"/><path d="m33 81h14v1h-14z" fill="#262626" opacity=".15"/><path d="m47 80h-4v-5h-1v5h-4v-5h-1v5h-4v1h4v15h1v-15h4v15h1v-15h4z" fill="#fff" opacity=".7"/><path d="m49 75h14v21h-14z" fill="#39c"/><path d="m49 75h14v4h-14z" fill="#262626" opacity=".15"/><path d="m49 75h14v2h-14z" fill="#262626" opacity=".15"/><path d="m49 75h14v1h-14z" fill="#262626" opacity=".15"/><path d="m49 81h14v1h-14z" fill="#262626" opacity=".15"/><path d="m63 80h-4v-5h-1v5h-4v-5h-1v5h-4v1h4v15h1v-15h4v15h1v-15h4z" fill="#fff" opacity=".7"/><path d="m0 34h64v3h-64z" fill="#262626" opacity=".15"/><path d="m0 34h64v1h-64z" fill="#262626" opacity=".15"/><g fill="#fff"><path d="m0 34h1v37h-1z" opacity=".7"/><path d="m37 34h1v37h-1z" opacity=".7"/><path d="m10 34h1v37h-1z" opacity=".7"/><path d="m5 34h1v37h-1z" opacity=".7"/><path d="m15 34h2v37h-2z" opacity=".7"/><path d="m21 34h1v37h-1z" opacity=".7"/><path d="m26 34h1v37h-1z" opacity=".7"/><path d="m43 34h1v37h-1z" opacity=".7"/><path d="m47 34h2v37h-2z" opacity=".7"/><path d="m53 34h1v37h-1z" opacity=".7"/><path d="m58 34h1v37h-1z" opacity=".7"/><path d="m31 34h2v37h-2z" opacity=".7"/><path d="m63 34h1v37h-1z" opacity=".7"/><path d="m54 34h4v37h-4z" opacity=".2"/><path d="m49 34h4v37h-4z" opacity=".1"/><path d="m27 49h4v22h-4z" opacity=".3"/><path d="m33 49h4v22h-4z" opacity=".2"/><path d="m27 34h4v14h-4z" opacity=".2"/><path d="m33 34h4v14h-4z" opacity=".1"/><path d="m11 34h4v14h-4z" opacity=".1"/><path d="m11 49h4v22h-4z" opacity=".2"/><path d="m17 34h4v37h-4z" opacity=".1"/></g><path d="m0 48h64v1h-64z" fill="#e5e5e5"/><path d="m54 75h4v21h-4z" fill="#fff" opacity=".2"/><path d="m22 75h4v21h-4z" fill="#fff" opacity=".3"/><path d="m27 75h4v21h-4z" fill="#fff" opacity=".2"/><path d="m6 75h4v21h-4z" fill="#fff" opacity=".2"/><path d="m17 75h4v21h-4z" fill="#fff" opacity=".1"/><path d="m0 32h64v64h-64z" opacity=".11"/></svg>