<svg enable-background="new 0 0 80 240" viewBox="0 0 80 240" xmlns="http://www.w3.org/2000/svg"><path d="m51.6 36.3c3-1.5 5.3 3 3.8 7.6s-4.9 8.2-7.8 6.2c-3.6-2.7.9-12.2 4-13.8z" fill="#762c07"/><path d="m25.6 207.9c-11.8 7.6-12.4 14.4 0 21 13.5 7.2 22.4 3.3 32.9-2.7s11.8-13.4-3.6-19.6c-12.5-5-20.4-4.4-29.3 1.3z" opacity=".2"/><g fill="#fbd7c7"><path d="m25.4 110s-1.1 16.3.8 28.1 4.3 19.3 4.9 23.1 1.3 13.3 1.8 20.1 2.4 17.6.5 22.5-6.6 12.4-7.9 13.3-4.1 5.8.1 5.5 8.8-7.9 11.8-9 6.9-3.3 6.3-6.3-2.5-5.5-2.4-9 3.5-23.8 2.8-29.8-3-11.1-3-15.6 4.1-31.6 4.1-31.6z"/><path d="m39.7 115.8c-1.1 5.1-.3 28.3.8 34.1s3.1 13.9 4.3 19.1 5.5 33 3.9 38.5-3.8 9.3-6.6 11.6-4.9 6.4-.1 6.6 8.9-2.9 12.1-8 5.1-5.3 4.4-8.1-2.4-3.8-1.9-9.6 2.9-20.4 2.1-25.8-4.5-12-4.5-15.5 4.1-18.6 3.5-29.8-1.4-17.9-1.4-17.9z"/><path d="m19.2 116.4 4.4.5s1.7 3.3 1.9 5.5 1.4 11.1.6 10.9-4.1-1.5-4.8-3.3-2.4-6.8-2.3-9 .2-4.6.2-4.6z"/></g><path d="m18.9 116.5 5.1.6s2-6 3.6-11.4 11.1-32.9 11.3-35.9c1.4-19.2-10.2-17.9-13.3-13.7s-.2 8.6-1.3 26.7c-.3 4-2 11.4-2.6 15.3-.8 5.4-2.8 18.4-2.8 18.4z" fill="#39c"/><path d="m26.6 100.6s7.1 1.1 13.4 1.1 11.4-1.6 11.4-1.6 6.5 14.8 6.9 23.8-2.1 26.6-2.1 26.6-12.9 1.3-19 1.1-9.6-2-9.6-2-4.9-22.3-4.3-29.6 3.3-19.4 3.3-19.4z" fill="#39c"/><path d="m26.6 100.6s7.1 1.1 13.4 1.1 11.4-1.6 11.4-1.6 6.5 14.8 6.9 23.8-2.1 26.6-2.1 26.6-12.9 1.3-19 1.1-9.6-2-9.6-2-4.9-22.3-4.3-29.6 3.3-19.4 3.3-19.4z" opacity=".15"/><path d="m45.4 56.7c-4-1.4-12-5-16.3-2.2s-2.3 8.7-4.2 12.2-4.1 6.5-3.5 10.5 4.4 7.6 4.6 14.1-2.4 16.5-2.4 16.5 4.3 2.7 12.1 2.7 18.1-3.8 18.1-3.8-2.5-8.9-2.1-13.1c.3-4.2 7.2-24.8 5.5-28.4-1.8-3.6-5.5-6.4-11.8-8.5z" fill="#39c"/><path d="m35.7 53.4s-3.4.5-4.6-.6-2.3-5.4-2.6-10.1-.8-12.8 6.5-16.3 17.4 1.3 16 9.3-4.5 11.5-3.8 15.7.8 5.9 1.9 6.9-14.6 12.7-14.6 12.7l-.3-13.6s1.3-.6 1.6-1.8-.1-2.2-.1-2.2z" fill="#fbd7c7"/><path d="m28.8 34.1c-.1.8 2.4 1.1 5.6 1.5s6.6 1 7.5 2.9 1.9 3.1 1.9 3.1 2.1-3.4 3.3-2.4.2 3.2-.2 4.1-.7 5.3-.3 5.8.7.6.7.6 3.8-7.9 4.4-10.8c.9-4.6-.3-13.1-8.7-14.2-8.3-1-13.8 3.7-14.2 9.4z" fill="#762c07"/><path d="m34.5 71s1.3-14.3 1.5-15.5-.1-1.8-.1-1.8l-2.7 1.4z" fill="#fff"/><path d="m34.4 71.1s9.9-12 11.2-13.3c1.3-1.2 2.4-1.8 2.4-1.8l2.4 2.9z" fill="#fff"/><path d="m46.9 128.2 6.1 1.5s.8 5.5.4 8.2-1.2 7.5-1.6 8.3c-.9 1.6-4.4 2.2-5.2 1.1s-2.5-3.9-2.5-6.4 0-2.3.2-4.5c.1-2.4 2.6-8.2 2.6-8.2z" fill="#fbd7c7"/><path d="m46.2 128.1 7.2 1.8s5.2-15.3 6.6-19 2.9-10.9 2.6-14.1-3.2-18.6-3.1-21.7-.5-10.4-4-12.3-10.5-1.5-9.4 5.6 5.4 20.9 6.3 24 .6 8.1-.3 11.1-5.9 24.6-5.9 24.6z" fill="#39c"/><path d="m27.3 214.6s-3.3 1.7-4.2 3.8c-.8 1.7-.5 3.7 1.2 4.7s4.7.5 7.5-1.1 5.3-7.4 5.9-7.7c.6-.2.2 3.5.2 3.5l2 1.1 2.1-.9s-.2-4.2.7-5.7 1.9-3.9 1.2-6.7-1.8-3-1.8-3 0 3.3-3.8 6.9c-3.6 3.4-5.5 8.4-8.8 8.5-4.3.1-2.2-3.4-2.2-3.4z" fill="#2d3134"/><path d="m42.2 218.9s-3.7 2.8-4.2 5-.2 3.6 2.9 4.7c3 1 7-.2 8.8-1.8s3.7-5 3.7-5l2 1.1 1.7-.9s-.3-2.6.4-5 1.4-4.3 1.4-7.3-1.9-3.4-1.9-3.4 1.4 1.6-1.1 5.1-5 11.1-8.8 11.6c-6.8.6-4.9-4.1-4.9-4.1z" fill="#2d3134"/><path d="m34 73.3 19.9-12.1 1.3 1.4z" opacity=".15"/><path d="m29.1 82.3c-5.9-1.8-7.7-5.2-7.7-5.2.3 2.3 1.8 4.5 3 7.2.6.4 2 1 6.2 1.6 8.6 1.2 18.5-.3 18.5-.3s-13.8-1.4-20-3.3z" opacity=".15"/><path d="m32.8 38.4c2.8-.9 8-5.4 11.5-6.7 3-1.1 6.6-1.4 6.6-1.4s-1.6-12-11.3-9.4-10.4 8.7-10.6 10.8c-.3 2.1-.7 5-.7 5z" fill="#39c"/><path d="m31.4 31.7s5.3-4.1 7.9-5.9c4.9-3.5 8.3-2.7 8.3-2.7s-2.4-1.8-6-.1-10.3 7-10.3 7l-1.5-1.2-.3 1.5z" fill="#fff" opacity=".5"/><path d="m31.5 110.1c.8.1 1.6.2 2.4.2-.4-1.3-.7-3.4-.8-6.7-.2-7.9-.3-12.8-.3-12.8s-.4 13.4-1 17c0 .9-.2 1.7-.3 2.3z" opacity=".15"/><path d="m33.7 73-2.7-19.1h-1.2z" opacity=".15"/></svg>