<svg enable-background="new 0 0 288 192" viewBox="0 0 288 192" xmlns="http://www.w3.org/2000/svg"><g fill="#999"><path d="m196.2 106.6s-6.1-1.2-7.6-.5 4.8 5 6.7 5c1.8 0 .9-4.5.9-4.5z"/><path d="m208.9 94.4s-6.1-1.2-7.6-.5 4.8 5 6.7 5c1.8.1.9-4.5.9-4.5z"/><path d="m217.8 83.7s-6.1-1.2-7.6-.5 4.8 5 6.7 5c1.8 0 .9-4.5.9-4.5z"/><path d="m227 73.4s-6.1-1.2-7.6-.5 4.8 5 6.7 5c1.9.1.9-4.5.9-4.5z"/></g><path d="m196.2 106.6s-6.1-1.2-7.6-.5 4.8 5 6.7 5c1.8 0 .9-4.5.9-4.5z" opacity=".2"/><path d="m208.9 94.4s-6.1-1.2-7.6-.5 4.8 5 6.7 5c1.8.1.9-4.5.9-4.5z" opacity=".2"/><path d="m217.8 83.7s-6.1-1.2-7.6-.5 4.8 5 6.7 5c1.8 0 .9-4.5.9-4.5z" opacity=".2"/><path d="m227 73.4s-6.1-1.2-7.6-.5 4.8 5 6.7 5c1.9.1.9-4.5.9-4.5z" opacity=".2"/><path d="m62.6 55.3 16.8-22.7s8.7 3 8.9 5.4c.2 2.3-9.1 27.8-9.1 27.8z" fill="#e5e5e5"/><path d="m62.6 55.3 16.8-22.7s8.7 3 8.9 5.4c.2 2.3-9.1 27.8-9.1 27.8z" fill="#e5e5e5"/><path d="m75.6 49.4-.2-.1 4.5-8.9-.6-7.8h.3l.5 7.8v.1z" opacity=".3"/><path d="m150.5 164.7-9.4-3.3c-.8-.3-1.8-.2-2.9.3-2.4 1.2-4.1 3.6-4.1 6 0 1.4.6 2.2 1.6 2.5l8.1 4.5c.9.5 2.1.5 3.5-.2 2.6-1.3 4.8-4.5 4.8-7.1 0-1.4-.6-2.3-1.6-2.7z" fill="#e5e5e5"/><path d="m150.5 164.7-9.4-3.3c-.8-.3-1.8-.2-2.9.3-2.4 1.2-4.1 3.6-4.1 6 0 1.4.7 1.9 1.6 2.5l8.1 4.5c.9.5 2.1.5 3.5-.2 2.6-1.3 4.8-4.5 4.8-7.1 0-1.4-.6-2.3-1.6-2.7z" opacity=".15"/><path d="m171.1 172.1s-6.1-3.9-9.7-5.7-7.4-2.3-7.4-2.3c-1.3-.2-2.8-.5-4.5.4-3.5 1.8-6.4 6-6.4 9.6 0 1.9 1.2 2.9 2.2 3.5 0 0 2.2 1.4 6.6 3.4s10 4.6 10 4.6c1.2.7 2.8.7 4.7-.3 3.5-1.8 6.4-6 6.4-9.6-.1-1.8-.8-3-1.9-3.6z" fill="#e5e5e5"/><path d="m171.1 172.1s-6.1-3.9-9.7-5.7-7.4-2.3-7.4-2.3c-1.3-.2-2.8-.5-4.5.4-3.5 1.8-6.4 6-6.4 9.6 0 1.9 1.2 2.9 2.2 3.5 0 0 2.2 1.4 6.6 3.4s10 4.6 10 4.6c1.2.7 2.8.7 4.7-.3 3.5-1.8 6.4-6 6.4-9.6-.1-1.8-.8-3-1.9-3.6z" opacity=".1"/><path d="m133 158 4.2 4.4 10.8 2.9s.5-.5 2.2-.8 10.7 3.6 11.4 3.5-8-6.3-11.5-8.4-5-3.4-5-3.4-1 .8-2.5 1.3-9.6.5-9.6.5z" fill="#e5e5e5"/><path d="m150.1 159.6c-3.5-2.1-5-3.4-5-3.4s-.5.4-1.3.8c.8.6 2.1 1.5 4 2.6 2.6 1.6 8 5.4 10.3 7.3 1.8.7 3.2 1.2 3.5 1.2.6-.1-8-6.3-11.5-8.5z" fill="#fff" opacity=".2"/><path d="m165.9 172.8c-3.2 1.9-5.7 5.9-5.7 9.2v.4c.8.7 2.2.8 3.7 0 2.5-1.3 4.6-4.3 4.6-6.9-.1-1.6-1.1-2.7-2.6-2.7z" opacity=".5"/><path d="m166.5 172.5c-3.5 1.8-6.4 6-6.4 9.6s2.9 5 6.4 3.2 6.4-6 6.4-9.6-2.9-5-6.4-3.2zm.1 12.1c-3.2 1.6-5.7.3-5.7-2.9s2.6-7 5.7-8.6 5.7-.3 5.7 2.9-2.6 7.1-5.7 8.6z" fill="#e5e5e5"/><path d="m172.9 175.7c0 3.5-2.9 7.8-6.4 9.6s-6.4.3-6.4-3.2 2.9-7.8 6.4-9.6 6.4-.4 6.4 3.2z" opacity=".2"/><path d="m168.4 175.9c-.1 1.1-.5 2.3-1.2 3.4l3.8 1.9c.7-1 1.2-2.1 1.6-3.2z" fill="#fff" opacity=".2"/><path d="m144.6 169c-.7 1.1-1.1 2.2-1.4 3.3l17 8.5c.2-1.1.6-2.3 1.2-3.4z" fill="#fff" opacity=".2"/><path d="m227.8 125.2-9.4-3.3c-.8-.3-1.8-.2-2.9.3-2.4 1.2-4.1 3.6-4.1 6 0 1.4.6 2.2 1.6 2.5l8.1 4.5c.9.5 2.1.5 3.5-.2 2.6-1.3 4.8-4.5 4.8-7.1 0-1.4-.6-2.3-1.6-2.7z" fill="#e5e5e5"/><path d="m227.8 125.2-9.4-3.3c-.8-.3-1.8-.2-2.9.3-2.4 1.2-4.1 3.6-4.1 6 0 1.4.7 1.9 1.6 2.5l8.1 4.5c.9.5 2.1.5 3.5-.2 2.6-1.3 4.8-4.5 4.8-7.1 0-1.4-.6-2.3-1.6-2.7z" opacity=".15"/><path d="m248.4 132.6s-6.1-3.9-9.7-5.7-7.4-2.3-7.4-2.3c-1.3-.2-2.8-.5-4.5.4-3.5 1.8-6.4 6-6.4 9.6 0 1.9 1.2 2.9 2.2 3.5 0 0 2.2 1.4 6.6 3.4s10 4.6 10 4.6c1.2.7 2.8.7 4.7-.3 3.5-1.8 6.4-6 6.4-9.6-.1-1.8-.8-3-1.9-3.6z" fill="#e5e5e5"/><path d="m248.4 132.6s-6.1-3.9-9.7-5.7-7.4-2.3-7.4-2.3c-1.3-.2-2.8-.5-4.5.4-3.5 1.8-6.4 6-6.4 9.6 0 1.9 1.2 2.9 2.2 3.5 0 0 2.2 1.4 6.6 3.4s10 4.6 10 4.6c1.2.7 2.8.7 4.7-.3 3.5-1.8 6.4-6 6.4-9.6-.1-1.8-.8-3-1.9-3.6z" opacity=".1"/><path d="m210.3 118.5 4.2 4.4 10.8 2.9s.5-.5 2.2-.8 10.7 3.6 11.4 3.5-8-6.3-11.5-8.4-5-3.4-5-3.4-1 .8-2.5 1.3-9.6.5-9.6.5z" fill="#e5e5e5"/><path d="m227.4 120.1c-3.5-2.1-5-3.4-5-3.4s-.5.4-1.3.8c.8.6 2.1 1.5 4 2.6 2.6 1.6 8 5.4 10.3 7.3 1.8.7 3.2 1.2 3.5 1.2.7-.1-8-6.3-11.5-8.5z" fill="#fff" opacity=".2"/><path d="m243.2 133.3c-3.2 1.9-5.7 5.9-5.7 9.2v.4c.8.7 2.2.8 3.7 0 2.5-1.3 4.6-4.3 4.6-6.9-.1-1.6-1.1-2.7-2.6-2.7z" opacity=".5"/><path d="m243.9 133c-3.5 1.8-6.4 6-6.4 9.6s2.9 5 6.4 3.2 6.4-6 6.4-9.6c-.1-3.6-2.9-5-6.4-3.2zm0 12.1c-3.2 1.6-5.7.3-5.7-2.9s2.6-7 5.7-8.6 5.7-.3 5.7 2.9-2.5 7.1-5.7 8.6z" fill="#e5e5e5"/><path d="m250.2 136.2c0 3.5-2.9 7.8-6.4 9.6s-6.4.3-6.4-3.2 2.9-7.8 6.4-9.6c3.6-1.8 6.4-.4 6.4 3.2z" opacity=".2"/><path d="m245.7 136.4c-.1 1.1-.5 2.3-1.2 3.4l3.8 1.9c.7-1 1.2-2.1 1.6-3.2z" fill="#fff" opacity=".2"/><path d="m222 129.5c-.7 1.1-1.1 2.2-1.4 3.3l17 8.5c.2-1.1.6-2.3 1.2-3.4z" fill="#fff" opacity=".2"/><path d="m79.2 62.7-15-9.5-1.6 2.1 16.6 10.5s9.4-25.5 9.1-27.8c0-.3-.2-.6-.4-.9-1.8 6.8-8.7 25.6-8.7 25.6z" opacity=".1"/><path d="m87.9 37c-1.9-2.1-8.4-4.4-8.4-4.4s6.4 2.5 8.1 4.4c.2.2-7.9 23.8-8.6 25.5l.2.2s6.8-18.6 8.7-25.5c0 0 .1 0 0-.2z" fill="#fff" opacity=".3"/><path d="m178.6 116.8 20.6-13.6 38.8-46s11.5 4 11.2 7.5c-.2 3.5-33.7 70.9-33.7 70.9z" fill="#e5e5e5"/><path d="m178.6 116.8 20.6-13.6 38.8-46s11.5 4 11.2 7.5c-.2 3.5-33.7 70.9-33.7 70.9z" opacity=".1"/><path d="m247.6 62c.4.5.7 1.1.6 1.6-.2 3.5-33.7 70.9-33.7 70.9l-35.5-18-.4.3 37 18.7s33.4-67.4 33.7-70.9c0-.8-.7-1.7-1.7-2.6z" opacity=".1"/><path d="m247.6 62c.4.5.7 1.1.6 1.6-.2 3.5-33.7 70.9-33.7 70.9l-35.5-18-.4.3 35.4 17.2s32.7-66.3 33.7-69.7c.2-.9.4-1.5-.1-2.3z" fill="#fff" opacity=".2"/><path d="m225.9 77.3-4.3-.6" fill="#e5e5e5"/><path d="m186.2 117 8.5-5.8 2.1.8 8.3-5.4-7.6-2.3-15.7 10.4z" fill="#e5e5e5"/><path d="m199.2 103.2h7.4l24.7-31.7-3.3-.2 4.6-6-1.2-.2" fill="#e5e5e5"/><path d="m197.5 104.5 7.3 2.2-8.1 5.2-2-.8-.1-.1-4.4-1.7-.1.2 4.3 1.7-8.3 5.7.1.2 8.5-5.8 2.1.8 8.6-5.5-7.8-2.4z" opacity=".3"/><path d="m232.8 65.2-1.4-.3v.3l1 .1-4.6 6.1 3.2.3-3.8 4.9-5-.4v.2l4.8.4-5.1 6.6-5.6-.5v.2l5.4.5-5.1 6.6v-.1l-6-.5v.2l5.9.6-5.4 6.8-6.4-.6v.3l6.3.5-4.5 5.7h-7.3v.3h7.4l24.8-31.8.1-.2-3.3-.2z" opacity=".3"/><path d="m43.7 53.9c-2.3 4 51.9 54.9 63.3 62.1s121.7 65.1 136 69.6c14.3 4.4 36 7.5 38.1 2.6s-7.5-18.2-10.1-21.3c-2.6-3-7-9-25-19.2s-150.2-75.8-164.7-82.8-35.3-14.9-37.6-11z" fill="#e5e5e5"/><path d="m275.1 172.5c-3.9 2.3-13.1.7-19.1-1.9-7.3-3.1-164.6-80.7-174.8-87.4-10.4-6.8-31.2-21.8-36.1-26 8.6 12.2 51.8 52.5 61.9 58.8 11.5 7.3 121.7 65.1 136 69.6s36 7.5 38.1 2.6c1.4-3.4-2.5-10.5-6-15.7z" fill="#39c"/><path d="m275.1 172.5c-3.9 2.3-13.1.7-19.1-1.9-7.3-3.1-164.6-80.7-174.8-87.4-10.4-6.8-31.2-21.8-36.1-26 8.6 12.2 51.8 52.5 61.9 58.8 11.5 7.3 121.7 65.1 136 69.6s36 7.5 38.1 2.6c1.4-3.4-2.5-10.5-6-15.7z" opacity=".1"/><path d="m280 181.2c.1.4.3.7.4 1-.1-.3-.3-.7-.4-1z" fill="#39c" opacity=".1"/><path d="m53.5 56.2-14.2-53.7 1-.6s11.3 4.8 14.8 9.9 31.3 53.1 35.8 57.8 11.7 8.6 10.5 9.3-18.7-7-26.9-11c-8.1-4-21-11.7-21-11.7z" fill="#39c"/><path d="m90.9 69.6c-4.5-4.7-32.3-52.6-35.8-57.8-3.5-5.1-14.8-9.9-14.8-9.9l-1 .6c3.9 1.9 11 5.7 13.5 9.3 3.5 5.1 31.3 53.1 35.8 57.8 3.9 4.1 9.9 7.6 10.6 8.9 1.2.4 2 .6 2.2.4 1.2-.7-6-4.7-10.5-9.3z" fill="#fff" opacity=".2"/><path d="m131.8 112.1c.1 0 .2 0 .4.1l1.8.9c.6.3 1 .9 1 1.6v7.3c0 .5-.4.8-.8.8-.1 0-.2 0-.4-.1l-1.8-.9c-.6-.3-1-.9-1-1.6v-7.3c0-.5.4-.8.8-.8m0-1c-1 0-1.8.8-1.8 1.8v7.3c0 1.1.6 2 1.5 2.5l1.8.9c.3.1.5.2.8.2 1 0 1.8-.8 1.8-1.8v-7.3c0-1.1-.6-2-1.5-2.5l-1.8-.9c-.2-.1-.5-.2-.8-.2z" opacity=".3"/><path d="m99.8 96.1c.1 0 .2 0 .4.1l1.8.9c.6.3 1 .9 1 1.6v7.3c0 .5-.4.8-.8.8-.1 0-.2 0-.4-.1l-1.8-.9c-.6-.3-1-.9-1-1.6v-7.3c0-.5.4-.8.8-.8m0-1c-1 0-1.8.8-1.8 1.8v7.3c0 1.1.6 2 1.5 2.5l1.8.9c.3.1.5.2.8.2 1 0 1.8-.8 1.8-1.8v-7.3c0-1.1-.6-2-1.5-2.5l-1.8-.9c-.2-.1-.5-.2-.8-.2z" opacity=".3"/><path d="m215.8 150c.1 0 .2 0 .4.1l15.8 7.8c.6.3 1 .9 1 1.6v16.7c0 .5-.4.8-.8.8-.1 0-.2 0-.4-.1l-15.8-7.8c-.6-.3-1-.9-1-1.6v-16.7c0-.5.4-.8.8-.8m0-1c-1 0-1.8.8-1.8 1.8v16.7c0 1.1.6 2 1.5 2.5l15.8 7.8c.3.1.5.2.8.2 1 0 1.8-.8 1.8-1.8v-16.7c0-1.1-.6-2-1.5-2.5l-15.8-7.8c-.2-.1-.5-.2-.8-.2z" opacity=".3"/><path d="m243.8 168.1c.1 0 .2 0 .4.1l1.8.9c.6.3 1 .9 1 1.6v7.3c0 .5-.4.8-.8.8-.1 0-.2 0-.4-.1l-1.8-.9c-.6-.3-1-.9-1-1.6v-7.3c0-.5.4-.8.8-.8m0-1c-1 0-1.8.8-1.8 1.8v7.3c0 1.1.6 2 1.5 2.5l1.8.9c.3.1.5.2.8.2 1 0 1.8-.8 1.8-1.8v-7.3c0-1.1-.6-2-1.5-2.5l-1.8-.9c-.2-.1-.5-.2-.8-.2z" opacity=".3"/><path d="m194.7 111.2-4.5-2" fill="#e5e5e5"/><path d="m277 175.5c-.5.6-1.2 1.1-2 1.5-3.9 1.6-9.8 0-9.8 0l1.3 3.9s5.8 2.3 10.4 0c1-.5 1.7-1 2.3-1.5-.7-1.4-1.4-2.7-2.2-3.9z" fill="#656565"/><path d="m277.2 180.2c-4.6 2.3-10.4 0-10.4 0l-1.1-3.2c-.4-.1-.6-.1-.6-.1l1.3 3.9s5.8 2.3 10.4 0c1-.5 1.7-1 2.3-1.5 0-.1-.1-.1-.1-.2-.4.4-1 .7-1.8 1.1z" opacity=".3"/><path d="m275.7 179.1c1.1 0 2.2-.1 3.2-.2-.6-1.2-1.2-2.3-1.9-3.5-.5.6-1.2 1.1-2 1.5-2.8 1.2-6.7.6-8.7.3 2.5 1.2 5.8 1.9 9.4 1.9z" fill="#fff" opacity=".2"/><path d="m61.9 61.1-11.4-41.8-11.2-16.8 14.2 53.8c0-.1 3.7 2.2 8.4 4.8z" fill="#e5e5e5"/><path d="m280 181.2c.2 1.2.2 2.2-.2 3-2.1 4.9-23.9 1.9-38.1-2.6-14.3-4.4-124.5-62.3-136-69.6-8.3-5.3-39.1-33.4-54.5-50.1-2.8-2.1-5-3.8-6.2-4.9 8.6 12.2 51.8 52.5 61.9 58.8 11.5 7.3 121.7 65.1 136 69.6s36 7.5 38.1 2.6c.8-1.5.2-4-1-6.8z" opacity=".1"/><path d="m1.3 73.4v-1.5l49.6-10.8 18 13.6s-51 4.2-57.1 3-10.5-4.3-10.5-4.3z" fill="#e5e5e5"/><path d="m11.9 76.2c-4.1-.8-8.2-2.9-10.5-4.2v1.5s4.5 3.1 10.5 4.3c6.1 1.2 57.1-3 57.1-3l-1.8-1.4c-9.3.6-49.9 3.8-55.3 2.8z" opacity=".1"/><path d="m11.9 76.2c-4.1-.8-8.2-2.9-10.5-4.2 0 0 4.6 2.3 10.6 3.5 6.1 1.2 53.9-2.4 53.9-2.4l1.2.3c-9.2.6-49.8 3.8-55.2 2.8z" fill="#fff" opacity=".3"/><path d="m129.6 142.2s-5.5-2.8-7.2-2.6c-1.7.3 3.2 6.2 5 6.7 1.8.6 2.2-4.1 2.2-4.1z" fill="#999"/><path d="m129.6 142.2s-5.5-2.8-7.2-2.6c-1.7.3 3.2 6.2 5 6.7 1.8.6 2.2-4.1 2.2-4.1z" opacity=".2"/><path d="m66.1 154.6s-5.5-2.8-7.2-2.6c-1.7.3 3.2 6.2 5 6.7 1.9.5 2.2-4.1 2.2-4.1z" fill="#999"/><path d="m66.1 154.6s-5.5-2.8-7.2-2.6c-1.7.3 3.2 6.2 5 6.7 1.9.5 2.2-4.1 2.2-4.1z" opacity=".2"/><path d="m87 150.6s-5.5-2.8-7.2-2.6c-1.7.3 3.2 6.2 5 6.7s2.2-4.1 2.2-4.1z" fill="#999"/><path d="m87 150.6s-5.5-2.8-7.2-2.6c-1.7.3 3.2 6.2 5 6.7s2.2-4.1 2.2-4.1z" opacity=".2"/><path d="m110.5 147.2s-5.5-2.8-7.2-2.6c-1.7.3 3.2 6.2 5 6.7s2.2-4.1 2.2-4.1z" fill="#999"/><path d="m110.5 147.2s-5.5-2.8-7.2-2.6c-1.7.3 3.2 6.2 5 6.7s2.2-4.1 2.2-4.1z" opacity=".2"/><path d="m139.6 130.6 2.8 6.6-29.5 8.7-75.6 11.6v1.8s5.6 5.7 13.6 5.9 135.5-8.7 136.3-11c2.7-6.6-47.6-23.6-47.6-23.6z" fill="#e5e5e5"/><path d="m139.6 130.6 2.8 6.6-29.5 8.7-75.6 11.6v1.8s5.6 5.7 13.6 5.9 135.5-8.7 136.3-11c2.7-6.6-47.6-23.6-47.6-23.6z" opacity=".1"/><path d="m139.6 130.6 2.8 6.5c4.3 1.1 15.2 4.1 23.8 7.8 11 4.7 16.6 6.3 16.5 9.4 0 .3-.1.7-.2 1 3-.4 4.7-.7 4.8-1 2.6-6.7-47.7-23.7-47.7-23.7z" fill="#e5e5e5"/><path d="m258.7 160.5c7-4.4-153.9-81.1-155.9-79.7s149.3 83.8 155.9 79.7z" fill="#fff" opacity=".2"/><path d="m50.9 163.3c-5.6-.2-10.9-3.7-13.6-5.9v1.8s5.6 5.7 13.6 5.9 135.5-8.7 136.3-11c.2-.5.1-1.1-.3-1.7-6.6 2.6-128.2 11.2-136 10.9z" opacity=".1"/><path d="m50.9 163.3c-5.6-.2-10.9-3.7-13.6-5.9 0 0 5.5 4.5 13.5 4.8 8 .2 134.5-7.9 135.3-10.2.2-.5 1.2 1.1.8.5-6.6 2.5-128.2 11.1-136 10.8z" fill="#fff" opacity=".2"/><path d="m1.4 72.1v-.3h21.8l30.7-6.8-3.1-3.8.2-.1 3.4 4-.2.1-31 6.9z" opacity=".3"/><path d="m142.3 137 .1.1-29.5 8.7-61.2 9.4 1.7 1.9 11.5-2 1.4 1.3 53.3-8.2-1.6-1.5 6.9 2 8.2-2.7-1.7-.8 17.6-6.3z" fill="#e5e5e5"/><path d="m149 139v-.2l-17.6 6.2-5.8-3-.1.2 5.6 3 1.6.8-7.8 2.6-7.4-2.2 1.8 1.7-10.5 1.6-1.9-3-.3.1 2 3-10.4 1.6-2-3.1-.2.1 2 3-10.8 1.7-2-3.1-.2.1 2 3-10.2 1.6-2.1-3.1-.2.1 2 3-10.2 1.6-1.3-1.3h-.1l-11.4 2-1.8-1.9-.1.2 1.7 1.9h.1l11.4-2 1.4 1.3 53.4-8.2h.3l-1.5-1.3 6.4 1.8.1.1 8.2-2.8.3-.1-1.7-.8z" opacity=".3"/><path d="m62.1 61.1-11.5-41.8-11.2-16.9-.2.1 11.2 16.9 1.3 4.8-7.5-3.9-.1.3 7.7 4v-.1l4.1 14.9-7.6-3.9-.1.2 7.7 4v-.1l5.9 21.6z" opacity=".3"/><path d="m53.5 56.2-14.2-53.7 1-.6s11.3 4.8 14.8 9.9 31.3 53.1 35.8 57.8 11.7 8.6 10.5 9.3-18.7-7-26.9-11c-8.1-4-21-11.7-21-11.7z" opacity=".1"/></svg>