<svg enable-background="new 0 0 80 56" viewBox="0 0 80 56" xmlns="http://www.w3.org/2000/svg"><path d="m4 25.4 14-7 54 27-14 7z" opacity=".3"/><path d="m5.1 9.5-.5.3c-.8.5-1.5 1.3-1.9 2.2-.3.7-.7 1.3-.7 2.1v1.1c0 .4.3.8.6 1s.6 0 .6-.3v-1.7c0-.2-.1-.4-.1-.5-.2-.3-.4-.7-.2-1.1.4-1.1 1.2-2.1 2.1-2.6l.3-.2c0-.1-.1-.3-.2-.3z" fill="#2d3134"/><path d="m13.6 27.8 2.6-1.3v-1.4h-2.6z" fill="#2d3134"/><path d="m13.6 27.8 2.6-1.3v-1.4h-2.6z" opacity=".39"/><path d="m41.6 41.8 2.6-1.3v-1.4h-2.6z" fill="#2d3134"/><path d="m41.6 41.8 2.6-1.3v-1.4h-2.6z" opacity=".39"/><path d="m18.2 25.4c-.7-.4-1.4-.4-1.9-.2l-1.4.7c-.5.2-.9.8-.9 1.6 0 1.5 1.3 3.4 2.8 4.2.8.4 1.5.4 2 .2 0 0 1.4-.7 1.5-.8.5-.3.7-.8.7-1.5 0-1.6-1.3-3.5-2.8-4.2z" fill="#2d3134"/><path d="m18.8 31.8c.2-.1 1.4-.7 1.5-.7.5-.3.7-.8.7-1.5 0-.6-.2-1.3-.5-1.9l-1.4.7c.3.6.5 1.3.5 1.9 0 .7-.3 1.3-.8 1.5z" opacity=".39"/><path d="m18.9 29.9c0 1.2-.9 1.6-2.1 1s-2.1-2-2.1-3.2.9-1.6 2.1-1 2.1 2 2.1 3.2z" fill="#a9abb0"/><path d="m17 30.9c-1.2-.6-2.1-2-2.1-3.2 0-.6.2-1 .6-1.2-.5.1-.8.6-.8 1.2 0 1.2.9 2.6 2.1 3.2.6.3 1.1.3 1.5.1-.4.2-.8.1-1.3-.1z" fill="#808285"/><path d="m17.9 29.2c0 .5-.4.7-.9.4s-.9-.8-.9-1.3.4-.7.9-.4.9.8.9 1.3z" fill="#2d3134"/><path d="m17.9 29.2c0 .5-.4.7-.9.4s-.9-.8-.9-1.3.4-.7.9-.4.9.8.9 1.3z" opacity=".39"/><path d="m17.7 29.3c0 .5-.4.7-.9.4-.5-.2-.9-.8-.9-1.3s.4-.7.9-.4c.5.2.9.8.9 1.3z" fill="#2d3134"/><path d="m19.6 30.3c0 1.5-1.3 2.2-2.8 1.4s-2.8-2.7-2.8-4.2 1.3-2.2 2.8-1.4c1.5.7 2.8 2.6 2.8 4.2z" opacity=".06"/><path d="m46.2 39.3c-.7-.4-1.4-.4-1.9-.2l-1.4.7c-.5.2-.9.8-.9 1.6 0 1.5 1.3 3.4 2.8 4.2.8.4 1.5.4 2 .2 0 0 1.4-.7 1.5-.8.5-.3.7-.8.7-1.5 0-1.5-1.3-3.4-2.8-4.2z" fill="#2d3134"/><path d="m46.8 45.8c.2-.1 1.4-.7 1.5-.7.5-.3.7-.8.7-1.5 0-.6-.2-1.3-.5-1.9l-1.4.7c.3.6.5 1.3.5 1.9 0 .7-.3 1.2-.8 1.5z" opacity=".39"/><path d="m46.9 43.9c0 1.2-.9 1.6-2.1 1s-2.1-2-2.1-3.2.9-1.6 2.1-1 2.1 2 2.1 3.2z" fill="#a9abb0"/><path d="m45 44.8c-1.2-.6-2.1-2-2.1-3.2 0-.6.2-1 .6-1.2-.5.1-.8.6-.8 1.2 0 1.2.9 2.6 2.1 3.2.6.3 1.1.3 1.5.1-.4.2-.8.2-1.3-.1z" fill="#808285"/><path d="m45.8 43.2c0 .5-.4.7-.9.4-.5-.2-.9-.8-.9-1.3s.4-.7.9-.4c.6.2.9.8.9 1.3z" fill="#2d3134"/><path d="m45.8 43.2c0 .5-.4.7-.9.4-.5-.2-.9-.8-.9-1.3s.4-.7.9-.4c.6.2.9.8.9 1.3z" opacity=".39"/><path d="m45.7 43.3c0 .5-.4.7-.9.4-.5-.2-.9-.8-.9-1.3s.4-.7.9-.4c.5.2.9.8.9 1.3z" fill="#2d3134"/><path d="m47.6 44.2c0 1.5-1.3 2.2-2.8 1.4s-2.8-2.6-2.8-4.2 1.3-2.2 2.8-1.4 2.8 2.7 2.8 4.2z" opacity=".06"/><path d="m21 2.5c-1.1-.6-2.4-.4-3.3.1-.1 0-11.8 5.9-12 6.1-.8.6-1.7 2.9-1.7 4v8.3l10.1 5c.3-.4.9-.7 1.5-.7.5 0 .9.1 1.4.4 1.2.6 2.3 1.9 2.8 3.2l22.2 11.1c.3-.5.9-.7 1.5-.7.5 0 .9.1 1.4.4 1.3.6 2.3 1.9 2.8 3.2l12.3 6.1 12-6v-15z" fill="#cc291f"/><path d="m60 51 12-6v-2l-12 6z" fill="#262626"/><path d="m30 22.5-18-9 18 12.9z" opacity=".2"/><path d="m4.8 17v-4.4c0-.8.4-1.5 1.1-1.8l.3-.1v7z" opacity=".3"/><path d="m5 12.6v4.3l1 .5v-6.4c-.6.3-1 .9-1 1.6z" fill="#656565"/><path d="m7 9.5v13l4 2v-13zm3.8 14.7-3.6-1.8v-12.6l3.6 1.8z" opacity=".3"/><path d="m7.8 18.1v-6.5l2.4 1.2v6.5z" opacity=".3"/><path d="m8 12 2 1v6l-2-1z" fill="#656565"/><path d="m8.2 17.9v-5.8l-.2-.1v6l2 1v-.2z" opacity=".3"/><path d="m11.8 20.6v-7.4l47.4 23.7v7.4z" opacity=".3"/><path d="m59 37-47-23.5v7l47 23.5z" fill="#656565"/><path d="m12 15.3v5.2l31.9 15.9z" opacity=".1"/><path d="m59 37-47-23.5 47 26.9z" opacity=".2"/><path d="m12.2 20.4v-6.8l-.2-.1v7l47 23.5v-.2z" opacity=".3"/><path d="m4 20 1 .5v-1l-1-.5z" fill="#f90"/><path d="m64 45.6v1l5-2.5v-1z" fill="#999"/><path d="m64 26.8-6 3-10-5 6-3z" fill="#fff" opacity=".1"/><path d="m58 30v-.2l-10-5v.2z" opacity=".06"/><path d="m58 30v-.2l6-3v.2z" opacity=".39"/><path d="m36 12.8-6 3-10-5 6-3z" fill="#fff" opacity=".1"/><path d="m30 16v-.2l-10-5v.2z" opacity=".06"/><path d="m30 16v-.2l6-3v.2z" opacity=".39"/><path d="m60 44 12-6v-.2l-12 6z" opacity=".3"/><path d="m60 44.2 12-6v-.2l-12 6z" fill="#fff" opacity=".15"/><path d="m60 46.2-49-24.5v-.2l49 24.5z" opacity=".3"/><path d="m60 46.4-49-24.5v-.2l49 24.5z" fill="#fff" opacity=".15"/><g fill="#262626"><path d="m13.6 27.5c0-.6.2-1.1.5-1.4l-10.1-5.1v2l9.6 4.8c0-.1 0-.2 0-.3z"/><path d="m41.6 41.4c0-.6.2-1.1.4-1.4l-22.3-11.1c.2.5.3.9.3 1.4 0 .2 0 .5-.1.7l21.7 10.8c0-.1 0-.2 0-.4z"/><path d="m47.8 42.9c.2.5.2.9.2 1.4 0 .3 0 .5-.1.7l12.1 6v-2z"/></g><path d="m4.8 17v-1l1.4.7v1z" opacity=".5"/><path d="m62 47-1 .5v-1l1-.5z" fill="#f90"/><path d="m62 46-1 .5v-1l1-.5z" fill="#999"/><path d="m60.8 36.6 10.4-5.2v5.8l-10.4 5.2z" opacity=".3"/><path d="m62 45-1 .5v-1l1-.5z" fill="#f90"/><path d="m71 42.5-1 .5v-1l1-.5z" fill="#f90"/><path d="m71 41.5-1 .5v-1l1-.5z" fill="#999"/><path d="m71 40.5-1 .5v-1l1-.5z" fill="#f90"/><path d="m61 36.7 10-5v5.4l-10 5z" fill="#656565"/><path d="m60.8 42.4v-1l10.4-5.2v1z" opacity=".5"/><path d="m60.8 36.6 10.4-5.2v4.2z" opacity=".2"/><path d="m60 51 12-6v-17l-12 6z" opacity=".39"/><path d="m4 12.7v10.3l9.6 4.8c0-.1 0-.2 0-.3 0-.6.2-1.1.5-1.4.3-.4.9-.7 1.5-.7.5 0 .9.1 1.4.4 1.2.6 2.3 1.9 2.8 3.2.2.5.3.9.3 1.4 0 .2 0 .5-.1.7l21.7 10.8c0-.1 0-.3 0-.4 0-.6.2-1.1.4-1.4.3-.5.9-.7 1.5-.7.5 0 .9.1 1.4.4 1.3.6 2.3 1.9 2.8 3.2.2.5.2.9.2 1.4 0 .3 0 .5-.1.7l12.1 5.9v-17l-51-25.5c-1.3-.6-2.1-.5-3.3.2-.8.6-1.7 2.9-1.7 4z" opacity=".06"/></svg>