<svg enable-background="new 0 0 240 240" viewBox="0 0 240 240" xmlns="http://www.w3.org/2000/svg"><path d="m38.8 160.8 6.8-3.5 141.4 71.3-6.8 3.5z" opacity=".2"/><path d="m128.9 116h3.6v48.2h-3.6z" fill="#39c" transform="matrix(.702 .7121 -.7121 .702 138.6816 -51.3098)"/><path d="m61.2 141.7h55.9v2.6h-55.9z" fill="#39c" transform="matrix(.8849 .4657 -.4657 .8849 76.8722 -25.0625)"/><path d="m113.7 156.2-2.2-5.1-8.7-8.1-5.8-4.9c-.1-.1-.2-.3-.2-.5s.1-.3.3-.4l1.6-.7.4.9-.9.3 5.2 4.4 8.8 8.1s.1.1.1.2l2.2 5.2z" fill="#2d3134"/><path d="m101.2 139.4-5.2-2.6v-1.9l9.1-4.6 5.2 2.6v2z" fill="#2d3134"/><path d="m96 134.9v1.9l5.2 2.6v-1.9z" opacity=".11"/><path d="m110.3 132.9v2l-9.1 4.5v-1.9z" fill="#39c"/><path d="m110.3 132.9v2l-9.1 4.5v-1.9z" opacity=".29"/><path d="m110.1 73.4s13.7 10.3 17.9 16.1c4.2 5.7 11.7 18.3 12.4 21.1 1 4.5-.5 8-6.4 10.1-4.7 1.6-16.4 5.6-18.8 7.3s-4.2 2.6-4.6 4.6c-.3 2 1.3 6.1-.5 6.9-1.7.8-10.4-8.6-10.1-10.6s3.2-2.9 6.4-4.6 8.1-7.3 11.5-9.6c3-2.1 7.3-3.2 7.3-3.2s-9.4-6.9-15.1-11.9-11.5-13.3-11.5-13.3z" fill="#fbd7c7"/><path d="m173.3 184.5c-.5.1-1-.2-1.1-.7-4.1-14.6-11.7-41.4-12.7-44-1-2.5-7.8-6-9-6.4l.7-2.8c.5.1 9.3 4 10.9 8.2 1.2 3.2 10.1 37.9 11.9 44.5.2.5-.1 1.1-.7 1.2z" fill="#39c"/><path d="m148.9 195.3c-9.3-18.6-8.7-38.1.9-45.1-.9.2-1.8.6-2.6 1-11.5 5.7-12.8 26.5-2.8 46.3 9.9 19.8 27.2 31.2 38.7 25.5.7-.3 1.3-.7 1.9-1.2-11.3 3-26.9-8.1-36.1-26.5z" fill="#656565"/><path d="m148.9 195.3c-9.3-18.6-8.7-38.1.9-45.1-.9.2-1.8.6-2.6 1-11.5 5.7-12.8 26.5-2.8 46.3 9.9 19.8 27.2 31.2 38.7 25.5.7-.3 1.3-.7 1.9-1.2-11.3 3-26.9-8.1-36.1-26.5z" opacity=".2"/><path d="m170.3 221.1h-.2l3.3-37.1 1.9-25.7h.2l-1.9 25.8z" fill="#2d3134"/><path d="m188.9 220.8-15.5-36.7-14.4-35.2.2-.1 14.4 35.2 15.5 36.7z" fill="#2d3134"/><path d="m156.3 209.1-.2-.1 17.3-25 10.3-14.4.2.2-10.3 14.3z" fill="#2d3134"/><path d="m194.5 205.5-21.1-21.4-30.3-27.3.1-.2 30.4 27.4 21 21.4z" fill="#2d3134"/><path d="m193.9 192.9-20.5-8.7-33.2-13.8.1-.2 33.2 13.7 20.5 8.8z" fill="#2d3134"/><path d="m173.5 184.2-30.7-.4v-.2l30.7.3h19.4v.2z" fill="#2d3134"/><path d="m148.1 197.8-.1-.2 25.4-13.7 13.6-7.5.1.2-13.6 7.5z" fill="#2d3134"/><ellipse cx="173.4" cy="183.9" fill="#999" rx="2.1" ry="3.6" transform="matrix(.8945 -.4471 .4471 .8945 -63.9539 96.9234)"/><path d="m163 186.3 8.5-4.3c1.2-.6 1.8.3 2.4 1.5.6 1.2.9 2.2-.3 2.8l-8.5 4.3z" fill="#999"/><path d="m174.2 184c-.1.2-.3.4-.7.6l-8.5 4.3-1.4-2.9-.5.3 2.1 4.3 8.5-4.3c1-.5.9-1.3.5-2.3z" opacity=".2"/><g fill="#2d3134"><path d="m163.4 216.6h-.2l.2-27.9 1.8-35.2h.2l-1.8 35.2z"/><path d="m175.3 222.5-11.9-33.8-9.3-39.1h.2l9.3 39.1 11.9 33.7z"/><path d="m151.7 205.3-.2-.1 11.9-16.6 14.8-23.5.2.1-14.8 23.6z"/><path d="m185.4 221.5-22-32.7-18.4-34.9.2-.1 18.4 34.8 21.9 32.8z"/><path d="m192.2 214.7-28.8-25.9-23.9-26.4.2-.2 23.9 26.4 28.8 26z"/><path d="m194.2 202.7-30.7-13.9-24.6-13.1.1-.2 24.6 13.1 30.7 13.9z"/><path d="m143.2 191v-.2l20.3-2.2 27.5-4.1v.3l-27.5 4z"/><path d="m192.6 173.4c-11.1-22.2-31.3-34.7-45-27.8-13.8 6.9-15.9 30.5-4.8 52.7s31.3 34.7 45 27.8c13.8-6.9 15.9-30.5 4.8-52.7zm-9.5 49.5c-11.5 5.7-28.8-5.7-38.7-25.5s-8.6-40.5 2.8-46.3c11.5-5.7 28.8 5.7 38.7 25.5 10 19.9 8.7 40.6-2.8 46.3z"/></g><path d="m176.6 224.9c-5.4 0-11.6-2.7-17.4-7.5-6-4.9-11.2-11.8-15.2-19.8-10-20-8.6-41.1 3.1-46.9 2-1 4.3-1.5 6.7-1.5 5.4 0 11.6 2.7 17.4 7.5 6 4.9 11.2 11.8 15.2 19.8 10 20 8.6 41.1-3.1 46.9-2 1-4.3 1.5-6.7 1.5zm-22.9-74.7c-2.3 0-4.4.5-6.3 1.4-11.2 5.6-12.4 26.1-2.6 45.6 7.9 15.7 20.9 26.7 31.8 26.7 2.3 0 4.4-.5 6.3-1.4 11.2-5.6 12.4-26.1 2.6-45.6-7.8-15.7-20.9-26.7-31.8-26.7z" fill="#999"/><ellipse cx="163.6" cy="188.7" fill="#999" rx="2.1" ry="3.6" transform="matrix(.8945 -.4471 .4471 .8945 -67.125 93.0622)"/><path d="m108.8 122.3s-1.5 4 .2 6.1 2.6 2.3 2.6 2.3-1.4 1.4-.7 2.6 1.9 4-.4 5.1-10-5-10-7.3.9-5.5.9-5.5 2.4-.3 4.1-1c1.9-.8 3.3-2.3 3.3-2.3z" fill="#fff"/><path d="m103.6 125.4s-1.7-.2-3.2.5c-1.2.6-2.8 1.9-2.9 4.2s5.2 6.7 6.8 10.2 4.4 7.2 7.8 8.5c1.4.5 4.4-.9 4.7-2.6s-1.2-6.8-2.8-9.3c-1.2-2-2.8-3.7-2.8-3.7s-.4 2.5-2.1 3.2-4.5-1-5.5-2.6-3-5.9-2.2-7c.8-1.3 2.2-1.4 2.2-1.4z" fill="#06547a"/><path d="m40.6 141c-9.3-18.6-8.7-38.1.9-45.1-.9.2-1.8.6-2.6 1-11.5 5.7-12.8 26.5-2.8 46.3 9.9 19.8 27.2 31.2 38.7 25.5.7-.3 1.3-.7 1.9-1.2-11.3 3-26.9-8.1-36.1-26.5z" fill="#656565"/><path d="m40.6 141c-9.3-18.6-8.7-38.1.9-45.1-.9.2-1.8.6-2.6 1-11.5 5.7-12.8 26.5-2.8 46.3 9.9 19.8 27.2 31.2 38.7 25.5.7-.3 1.3-.7 1.9-1.2-11.3 3-26.9-8.1-36.1-26.5z" opacity=".2"/><path d="m61.9 166.8h-.2l3.3-37.1 1.9-25.7h.2l-1.8 25.7z" fill="#2d3134"/><path d="m80.6 166.5-15.5-36.7-14.4-35.2.2-.1 14.4 35.2 15.5 36.7z" fill="#2d3134"/><path d="m47.9 154.8-.1-.1 17.3-25 10.3-14.4.2.1-10.3 14.4z" fill="#2d3134"/><path d="m86.1 151.2-21-21.4-30.3-27.3.1-.2 30.3 27.3 21.1 21.5z" fill="#2d3134"/><path d="m85.5 138.6-20.4-8.8-33.2-13.7.1-.2 33.2 13.7 20.4 8.8z" fill="#2d3134"/><path d="m65.2 129.8-30.7-.3v-.3l30.7.4h19.4v.2z" fill="#2d3134"/><path d="m39.8 143.4-.1-.2 25.4-13.6 13.6-7.5.1.2-13.6 7.5z" fill="#2d3134"/><ellipse cx="55.3" cy="134.4" fill="#999" rx="2.1" ry="3.6" transform="matrix(.8945 -.4471 .4471 .8945 -54.2714 38.8907)"/><ellipse cx="65" cy="129.6" fill="#999" rx="2.1" ry="3.6" transform="matrix(.8945 -.4471 .4471 .8945 -51.1003 42.7519)"/><path d="m54.7 132 9.1-4.5 2.1 4.2-9.1 4.6z" fill="#999"/><path d="m55.1 162.3h-.2l.2-27.9 1.7-35.2h.3l-1.8 35.2z" fill="#2d3134"/><path d="m66.9 168.2-11.8-33.8-9.3-39.1h.2l9.3 39 11.8 33.8z" fill="#2d3134"/><path d="m43.4 151-.2-.2 11.9-16.5 14.8-23.5.2.1-14.8 23.5z" fill="#2d3134"/><path d="m77 167.2-21.9-32.8-18.4-34.8.2-.1 18.4 34.8 21.9 32.8z" fill="#2d3134"/><path d="m83.9 160.4-28.8-25.9-23.9-26.4.1-.2 24 26.4 28.7 26z" fill="#2d3134"/><path d="m85.9 148.4-30.8-13.9-24.5-13.1.1-.2 24.5 13.1 30.7 13.9z" fill="#2d3134"/><path d="m34.8 136.7v-.2l20.4-2.2 27.4-4.1.1.3-27.5 4z" fill="#2d3134"/><path d="m84.3 119.1c-11.1-22.3-31.3-34.7-45-27.8s-15.9 30.5-4.8 52.7 31.3 34.7 45 27.8c13.8-6.9 15.9-30.5 4.8-52.7zm-9.5 49.5c-11.5 5.7-28.8-5.7-38.7-25.5s-8.6-40.5 2.8-46.3c11.5-5.7 28.8 5.7 38.7 25.5 9.9 19.9 8.7 40.6-2.8 46.3z" fill="#2d3134"/><path d="m68.3 170.6c-5.4 0-11.6-2.7-17.4-7.5-6-4.9-11.2-11.8-15.2-19.8-10-20-8.6-41.1 3.1-46.9 2-1 4.3-1.5 6.7-1.5 5.4 0 11.6 2.7 17.4 7.5 6 4.9 11.2 11.8 15.2 19.8 10 20 8.6 41.1-3.1 46.9-2 1-4.3 1.5-6.7 1.5zm-22.9-74.7c-2.3 0-4.4.5-6.3 1.4-11.2 5.6-12.4 26.1-2.6 45.6 7.9 15.7 20.9 26.7 31.8 26.7 2.3 0 4.4-.5 6.3-1.4 11.2-5.6 12.4-26.1 2.6-45.6-7.9-15.7-20.9-26.7-31.8-26.7z" fill="#999"/><ellipse cx="56.4" cy="134" fill="#656565" rx="4.5" ry="7.7" transform="matrix(.8945 -.4471 .4471 .8945 -53.9517 39.3521)"/><ellipse cx="56.4" cy="134" opacity=".2" rx="4.5" ry="7.7" transform="matrix(.8945 -.4471 .4471 .8945 -53.9517 39.3521)"/><path d="m70.3 126.3h59.9v3.6h-59.9z" fill="#39c" transform="matrix(.3582 .9336 -.9336 .3582 183.8774 -11.3724)"/><path d="m70.3 126.3h59.9v3.6h-59.9z" fill="#39c" transform="matrix(.3582 .9336 -.9336 .3582 183.8774 -11.3724)"/><path d="m110.3 171.3c-1.5-.7-23.7-13.4-44.5-25.3-5.1-2.9-8.9-5.1-9-5.2-1.5-.8-3.5-2-4.8-4.6-1-1.9-1.4-3.9-1.3-5.7.1-1.9.9-3.2 2.1-3.8 1-.5 2.4-.4 3.7.3l51.9 18.9c3.3 1.3 6.5 4.6 8.6 8.8 1.7 3.4 2.5 6.9 2.2 10-.2 3.2-1.5 5.5-3.7 6.6-.8.4-1.7.6-2.6.6-.5 0-1.1-.1-1.6-.2zm.4-.9.2.1c.7.2 1.4.3 2.1.3.8 0 1.5-.2 2.1-.5 1.8-.9 2.9-3 3.1-5.8.2-2.9-.5-6.3-2.1-9.5-2.1-4.1-5.2-7.3-8.3-8.4l-.3-.1-51.5-18.7c-1.1-.6-2.1-.7-2.8-.3-.9.5-1.4 1.5-1.5 3-.1 1.6.3 3.4 1.2 5.2 1.2 2.3 2.9 3.5 4.3 4.2.1.1 3 1.7 9.1 5.2 14 8.1 43.3 24.9 44.4 25.3z" fill="#2d3134"/><path d="m107.8 160.8-53.2-25.2c-.5-.2-.7-.7-.7-1.2s.3-1 .8-1.2l39-17.4.9 2.5-36.3 16.1 50.6 24z" fill="#39c"/><path d="m146.8 123.4-49.6-4.7c-.5 0-.9-.3-1.1-.7-.5-1.1-.1-2.3 1-2.9l50 4.8z" fill="#39c"/><path d="m149.9 133.8-7-20.7.2-1.3 3.1-.1 7.1 21z" fill="#39c"/><path d="m163.6 189.6c-.6.2-1.2 0-1.5-.6-2.9-7.2-15.8-39.5-16.1-44.5-.3-6.1 3.8-13.3 3.9-13.7l2.5 1.4c0 .1-3.8 6.9-3.6 12 .2 3.6 8.8 27.9 15.2 43.8.4.8.2 1.4-.4 1.6z" fill="#39c"/><path d="m144.2 110.6c.4-.2.7-.2.9-.1l4.4 2.2c.3.1.4.4.4.8 0 .8-.6 1.7-1.4 2-.4.2-.7.2-1 .1 0 0-4.4-2.2-4.5-2.3-.2-.1-.4-.4-.4-.7.2-.7.8-1.6 1.6-2z" fill="#39c"/><path d="m147.6 115.6c-.1 0-4.4-2.2-4.5-2.3-.2-.1-.4-.4-.4-.7s.1-.6.3-.9l4.4 2.2c-.2.3-.3.6-.3.9.2.4.3.7.5.8z" opacity=".1"/><path d="m147.3 114.9c0 .8.6 1.1 1.4.7s1.4-1.3 1.4-2-.6-1.1-1.4-.7c-.8.3-1.4 1.2-1.4 2z" opacity=".11"/><path d="m114.2 153.4c-.7-.4-1.4-.4-1.9-.2l-6 3.1c-.5.2-.8.8-.8 1.5 0 1.5 1.2 3.3 2.7 4.1.7.4 1.4.4 1.9.2 0 0 6-3.1 6.2-3.2.4-.3.7-.8.7-1.5-.1-1.4-1.3-3.2-2.8-4z" fill="#39c"/><path d="m110 162.1c.2-.1 6-3.1 6.1-3.1.4-.3.7-.8.7-1.5 0-.6-.2-1.3-.5-1.9l-6 3.1c.3.6.5 1.3.5 1.9 0 .7-.3 1.2-.8 1.5z" opacity=".2"/><path d="m110.8 160.6c0 1.5-1.2 2.1-2.7 1.4s-2.7-2.6-2.7-4.1 1.2-2.1 2.7-1.4c1.5.8 2.7 2.6 2.7 4.1z" opacity=".11"/><path d="m112.8 171.1c-3.8 0-8.2-3.6-10.9-9-3.4-6.8-2.9-13.6 1.2-15.7.7-.4 1.5-.5 2.4-.5 3.8 0 8.2 3.6 10.9 9 3.4 6.8 2.9 13.6-1.2 15.7-.8.4-1.6.5-2.4.5zm-7.3-23.8c-.6 0-1.2.1-1.8.4-3.3 1.7-3.6 7.9-.6 13.9 2.4 4.9 6.4 8.3 9.7 8.3.6 0 1.2-.1 1.8-.4 3.3-1.7 3.6-7.9.6-13.9-2.4-5-6.4-8.3-9.7-8.3z" fill="#656565"/><path d="m112.5 169.2c-3 0-6.7-3.2-9-7.8-2.9-5.7-2.7-11.4.4-13 .5-.3 1.1-.4 1.7-.4 3 0 6.7 3.2 9 7.8 2.9 5.7 2.7 11.4-.4 13-.5.2-1.1.4-1.7.4zm-6.9-20.2c-.4 0-.8.1-1.2.3-2.5 1.3-2.5 6.6 0 11.6 2.1 4.2 5.5 7.3 8.1 7.3.4 0 .8-.1 1.2-.3 2.5-1.3 2.5-6.6 0-11.6-2.1-4.3-5.5-7.3-8.1-7.3z" fill="#656565"/><ellipse cx="108.9" cy="159.1" fill="#656565" rx="2.9" ry="4.6" transform="matrix(.8945 -.4471 .4471 .8945 -59.6428 65.4793)"/><path d="m112.8 171.1c-3.8 0-8.2-3.6-10.9-9-3.4-6.8-2.9-13.6 1.2-15.7.7-.4 1.5-.5 2.4-.5 3.8 0 8.2 3.6 10.9 9 3.4 6.8 2.9 13.6-1.2 15.7-.8.4-1.6.5-2.4.5zm-7.3-23.8c-.6 0-1.2.1-1.8.4-3.3 1.7-3.6 7.9-.6 13.9 2.4 4.9 6.4 8.3 9.7 8.3.6 0 1.2-.1 1.8-.4 3.3-1.7 3.6-7.9.6-13.9-2.4-5-6.4-8.3-9.7-8.3z" opacity=".2"/><path d="m112.5 169.2c-3 0-6.7-3.2-9-7.8-2.9-5.7-2.7-11.4.4-13 .5-.3 1.1-.4 1.7-.4 3 0 6.7 3.2 9 7.8 2.9 5.7 2.7 11.4-.4 13-.5.2-1.1.4-1.7.4zm-6.9-20.2c-.4 0-.8.1-1.2.3-2.5 1.3-2.5 6.6 0 11.6 2.1 4.2 5.5 7.3 8.1 7.3.4 0 .8-.1 1.2-.3 2.5-1.3 2.5-6.6 0-11.6-2.1-4.3-5.5-7.3-8.1-7.3z" opacity=".2"/><ellipse cx="108.9" cy="159.1" opacity=".2" rx="2.9" ry="4.6" transform="matrix(.8945 -.4471 .4471 .8945 -59.6428 65.4793)"/><path d="m168.1 102.5c-.5-.2-.9-.3-1.2-.1l-10.2 5c-.3.2-.6.5-.6 1 0 1 .8 2.2 1.8 2.6.5.2.9.3 1.2.1 0 0 10.2-5 10.3-5 .3-.2.5-.5.5-1-.1-.9-.9-2.1-1.8-2.6z" fill="#762c07"/><path d="m159.1 111.1c.1-.1 10.2-5 10.2-5 .3-.2.5-.5.5-1 0-.4-.1-.8-.3-1.2l-10.2 5c.2.4.3.8.3 1.2 0 .5-.2.9-.5 1z" opacity=".2"/><path d="m159.6 110.2c0 1-.8 1.4-1.8.9s-1.8-1.7-1.8-2.6.8-1.4 1.8-.9c1 .4 1.8 1.6 1.8 2.6z" opacity=".11"/><path d="m105.6 183.8-.4-.9 2.4-1-3.9-5c-.1-.1-.1-.2-.1-.3l-.3-5.7-5.4-6.7c-.1-.1-.1-.3-.1-.4s.1-.3.3-.3l10.1-4.9.4.9-9.6 4.5 5.1 6.4c.1.1.1.2.1.3l.3 5.7 4.1 5.4c.1.1.1.3.1.4s-.1.3-.3.3z" fill="#2d3134"/><path d="m100.9 190.5-5.2-2.6v-1.9l9.1-4.6 5.2 2.6v2z" fill="#2d3134"/><path d="m95.7 186v1.9l5.2 2.6v-1.9z" opacity=".11"/><path d="m110 184v2l-9.1 4.5v-1.9z" fill="#39c"/><path d="m110 184v2l-9.1 4.5v-1.9z" opacity=".29"/><ellipse cx="89.5" cy="100.1" fill="#39c" rx="1.8" ry=".8" transform="matrix(.942 -.3356 .3356 .942 -28.3962 35.8337)"/><path d="m90.6 99.5-10.8-28.3-2.4.9 10.8 28.3c.1.3.8.4 1.4.1.7-.2 1.2-.7 1-1z" fill="#656565"/><path d="m90.6 99.5-10.8-28.3-2.4.9.2.5 1.5-.6 10.9 28.3c.4-.2.7-.5.6-.8z" opacity=".2"/><path d="m71.8 71.2c-4.1 2.6-6.3 8.5-2.5 13 2.7 3.2 9 1.4 14.1 2.9s9.9 4.8 13 2.9c1.2-.7.5-3.7-2.5-6.5-3.1-2.8-7.4-8.3-7.6-8.7-1-1.8-8-7.7-14.5-3.6z" fill="#762c07"/><path d="m83.9 85.3c-5.1-1.5-11.4.4-14.1-2.9-1.7-2.1-2.2-4.4-1.8-6.6-1.1 2.7-.9 5.8 1.3 8.5 2.7 3.2 9 1.4 14.1 2.9s9.9 4.8 13 2.9c.5-.3.6-.9.5-1.8-3.2 1.8-8-1.5-13-3z" opacity=".2"/><path d="m94 85.3s7 7.9 11 11.5 13.4 10.3 13.4 10.3l13.3-12.4s-6.1-8.8-9.4-12.4-12.2-12.6-12.2-12.6l-4.1-1.8-12.4 17.4z" fill="#06547a"/><path d="m80.7 63.8s-8.8 5-8.7 13.3 7.1 27.4 8.7 33.5 5.2 13.7 5 19.7c-.1 6.1-1.1 14.6.9 21.1 2.1 6.5 8.7 18.5 8.7 20.2s.1 7.6 1.8 9.2 9.2 2.1 10.1 1.8c.9-.2-1.4-5-3.2-8.7s-4.7-11-5-18.4c-.3-7.3-2.1-18-1.8-19.7.2-1.7.3-4.4.5-6.9s.3-7.9-.5-12.8-4.1-23.6-4.1-26.6 0-10.6 0-10.6z" fill="#fbd7c7"/><path d="m133 40s5.9 9.2 8.7 15.5 2.8 8.9 4.1 10.6c1.4 1.6 9.2 12.9 11 18.4 1.8 5.4 4.1 9 5.2 10.3s3.9 4.6 5 6.4 2.9 7.6.5 9.2-5.5-.5-5.5-.5l-1.8-3.7-1.6.6s-2.6-4.4-2.3-6c.3-1.5.2-2.9-.3-3.8s-7.5-7.8-11.8-14.5c-4.4-6.7-8.3-14.7-8.5-15.5-.1-.4-4.3-5.2-7.2-9.7-2.2-3.5-3.3-7.2-3.3-7.2z" fill="#fbd7c7"/><path d="m107.8 69.3s-14.1-4.7-17.4-6.9c-3.3-2.1-7.3-5.5-7.3-5.5s-10.6 8.4-13.2 15 1.1 18.3 3.7 24c2.5 5.7 8.3 19.2 8.3 19.2l15.3-2.1s0-10.3-.4-15.6c-.4-4.7-1.8-13.4-1.8-13.4z" fill="#06547a"/><path d="m75.8 69.1s-2.7 1.9-2.5 9.3c.2 9 7.3 25.9 7.3 25.9l3.9 10.4 2.2-.3s-8.6-24.5-8.8-30c-.4-9.3 2.1-12.5 2.1-12.5z" fill="#e5e5e5"/><path d="m104.1 31.2s-12.2 3.1-15.8 5.8c-2.9 2.1-4.7 6.6-6.9 12.6-3 8.3-6.7 13.6-8.4 15.7-.6.7-.6 1.7 0 2.4 1.6 2 7.1 6 11.6 6.7 6.2 1 21-1.2 22.4-2.3 3.1-2.5 5.3-4.9 6.9-6.2 3.3-2.7 10.5-11.2 11.9-12.9.7 1.5 2.2 3.3 2.2 3.3s2.9-1.5 6.5-3.4c2.1-1.1 4.4-3.1 4.4-3.1s-2.7-9.4-5.5-13.2c-2.1-2.8-8.9-6.2-15.1-6s-14.2.6-14.2.6z" fill="#9c3"/><path d="m124.9 41.7c.4-4 2.3-7.3 3.3-8.8-2.9-1.3-6.5-2.3-9.9-2.2-6.2.2-14.2.5-14.2.5s-12.2 3.1-15.8 5.8c6.6-3.8 9.7.5 11.5 6.4s1.8 18.5 1.8 18.5l-11.3 3.1s-2.9-5.3-4.6-9.7-1.3-10.2-1.2-12.8c0-.1 0-.3.1-.4-1 2.1-2 4.6-3.1 7.5-3 8.3-6.7 13.6-8.4 15.7-.6.7-.6 1.7 0 2.4 1.6 2 7.1 6 11.6 6.7 6.2 1 21-1.2 22.4-2.3 3.1-2.5 5.3-4.9 6.9-6.2 3.3-2.7 10.5-11.2 11.9-12.9-.1.1-1.5-5.6-1-11.3z" opacity=".2"/><path d="m93.2 167.2s1.6.7 4 .3c2.4-.3 3.9-1.4 3.9-1.4s2.2 4.8 3 6.7c.8 1.8 1.8 4.5 1.8 4.5s-1.5 3.6-4.5 3.8-7.6-3.9-7.6-3.9 1.1-3.8 1-5.3c.1-1.5-1.6-4.7-1.6-4.7z" fill="#fff"/><path d="m128.5 18.9c1.1 2.2.6 17.6-2.7 20.3s-8-.1-9.7-1.3c-.3-.2-.9.4-.8 1.7.4 5.2-5.6 4.5-7.7 3.8-5.2-1.6-8.1-8-6.5-8.9 7.6-4.4 5.6-9.6 5.6-10.7 0-.3 3.7-2.8 3.8-3.1 2.5-7.6 14.1-9.4 18-1.8z" fill="#fbd7c7"/><path d="m158.9 106.2c-.7-.3-1.3-.4-1.7-.2l-1.9.9c-.5.2-.8.7-.8 1.4 0 1.4 1.1 3 2.5 3.7.7.3 1.3.4 1.7.2 0 0 1.9-.9 2-1 .4-.2.6-.7.6-1.3 0-1.4-1.1-3-2.4-3.7z" fill="#762c07"/><path d="m158.8 112.2c.2-.1 1.8-.9 1.9-1 .4-.2.6-.7.6-1.3 0-.5-.2-1.1-.5-1.7l-1.9.9c.3.6.5 1.2.5 1.7.1.7-.2 1.2-.6 1.4z" opacity=".2"/><path d="m159.5 110.8c0 1.4-1.1 1.9-2.5 1.2s-2.5-2.3-2.5-3.7 1.1-1.9 2.5-1.2 2.5 2.4 2.5 3.7z" opacity=".1"/><path d="m133.3 123.4c-.6 0-1.2-.3-1.5-.9-.4-.8-.1-1.9.8-2.3l23.4-11.7c.8-.4 1.9-.1 2.3.8.4.8.1 1.9-.8 2.3l-23.5 11.6c-.2.2-.5.2-.7.2z" fill="#656565"/><path d="m157.9 109.8-23.4 11.7c-.2.1-.5.2-.8.2-.6 0-1.2-.3-1.5-.9 0-.1-.1-.2-.1-.2-.5.5-.7 1.3-.4 2 .3.6.9.9 1.5.9.3 0 .5-.1.8-.2l23.4-11.7c.8-.4 1.1-1.3.9-2-.1 0-.3.1-.4.2z" opacity=".2"/><path d="m140 115.7c-.7-.3-1.3-.4-1.7-.2l-1.9.9c-.5.2-.8.7-.8 1.4 0 1.4 1.1 3 2.5 3.7.7.3 1.3.4 1.7.2 0 0 1.9-.9 2-1 .4-.2.6-.7.6-1.3.1-1.4-1.1-3.1-2.4-3.7z" fill="#762c07"/><path d="m139.9 121.7c.2-.1 1.8-.9 1.9-1 .4-.2.6-.7.6-1.3 0-.5-.2-1.1-.5-1.7l-1.9.9c.3.6.5 1.2.5 1.7.1.7-.2 1.1-.6 1.4z" opacity=".2"/><path d="m140.6 120.3c0 1.4-1.1 1.9-2.5 1.2s-2.5-2.3-2.5-3.7 1.1-1.9 2.5-1.2 2.5 2.3 2.5 3.7z" opacity=".1"/><path d="m137.9 117.4c-.5-.2-.9-.3-1.2-.1l-10.2 5c-.3.2-.6.5-.6 1 0 1 .8 2.2 1.8 2.6.5.2.9.3 1.2.1 0 0 10.2-5 10.3-5 .3-.2.5-.5.5-1-.1-1-.9-2.1-1.8-2.6z" fill="#762c07"/><path d="m128.9 126c.1-.1 10.2-5 10.2-5 .3-.2.5-.5.5-1 0-.4-.1-.8-.3-1.2l-10.2 5c.2.4.3.8.3 1.2 0 .5-.2.9-.5 1z" opacity=".2"/><path d="m129.4 125c0 1-.8 1.4-1.8.9s-1.8-1.7-1.8-2.6.8-1.4 1.8-.9 1.8 1.7 1.8 2.6z" opacity=".1"/><path d="m90.3 65s4.6 14.2 7.1 19.1c2.3 4.5 3.4 6.6 7.9 11.2s18.6 17.3 20.2 19 2.6 4.2 2.7 4.8c.2 2.3 1.7 4.8 3.9 5.9 2 1 4.6-.1 5.4-1.1.1-.1.2-.3.3-.5.6-1.4.2-3-.9-4.1l-1-1.3 1.2-.8s-1.8-2.2-3-2.9-3.8-2.9-4.1-3.7-8.3-13.9-13.8-19.3c-2.4-2.4-7.8-6.9-7.8-6.9s-2.8-11.2-4.3-15.9c-.3-.9-2.3-6.7-2.3-6.7z" fill="#fbd7c7"/><path d="m93.8 176.6s-.9 2.7-.9 4.1-.2 2.9 2.1 3.6c.4.1 2.6.3 4.6 1.1 2.6 1 7.1 4.3 8.8 4.6 5.4 1 8.3-2.9 7.3-4.4-.6-.9-5.9-3.1-7-4.7s-2.7-4.2-2.7-4.2-.4.6-1.8 1.3c-1.9 1-4.3.9-5.9.5s-4.5-1.9-4.5-1.9z" fill="#06547a"/><path d="m129.5 25.7s-8.6 3.6-18 1.9-10.1-6.7-10.1-6.7 4.5-11.6 18.8-9.9c10.6 1.3 9.3 14.7 9.3 14.7z" fill="#2d3134"/><path d="m130.2 24.3s-9.2 3.9-19.3 2.1-10.8-7.2-10.8-7.2 4.8-12.4 20.1-10.6c11.4 1.4 10 15.7 10 15.7z" fill="#39c"/><path d="m128.7 22.5-1.8.4s-.1-6.5-3.5-9.4c-3.3-2.9-8.3-3.6-8.3-3.6s5-1.2 9.4 2.1c4.5 3.4 4.2 10.5 4.2 10.5z" opacity=".2"/><path d="m125.1 23.4-2.3.4s.2-3.6-1.6-6.6-3.8-3.9-3.8-3.9 3.1-.1 5.5 3.3c2.3 3.3 2.2 6.8 2.2 6.8z" opacity=".2"/><path d="m119.9 24.2s-2.7.3-6.3 0c-1.8-.2-5.1-1.3-5.1-1.3s3-4.5 7-3.9 4.4 5.2 4.4 5.2z" opacity=".2"/><path d="m115.9 38.4c-.2-.2-4.4-5.1-5.6-7.6-.9-2-2.2-4.6-2.2-4.7l1.9.4s.6 2 1.5 3.9c.2.4.5 1 .9 1.6-.6-3.3.2-5 .3-5.1l1.1.1h.6s-1.9 2.6-.4 6.6c.2.5 1.7 3.2 2.8 4.8z" fill="#2d3134"/></svg>