<svg enable-background="new 0 0 960 640" viewBox="0 0 960 640" xmlns="http://www.w3.org/2000/svg"><g fill="#2d3134"><path d="m828.8 443.5h3.8v43.1h-3.8z" transform="matrix(.3848 .923 -.923 .3848 940.263 -480.6412)"/><path d="m793.3 404.8h3.8v48.9h-3.8z" transform="matrix(.3706 .9288 -.9288 .3706 899.1187 -468.417)"/><path d="m728.1 353.9h3.8v51.7h-3.8z" transform="matrix(.3893 .9211 -.9211 .3893 795.6746 -440.4801)"/><path d="m658.8 320.1h3.8v22.1h-3.8z" transform="matrix(.5146 .8574 -.8574 .5146 604.6022 -405.7868)"/><path d="m853 483.3h3.8v28.9h-3.8z" transform="matrix(.524 .8517 -.8517 .524 830.8738 -491.1371)"/></g><path d="m196.7 18.6s25.9 15.2 33.5 25.3 44.2 58.7 44.2 58.7l50.5 25.3-5.1-25.9s-32.2-32.2-51.8-46.1-30.9-21.5-30.9-21.5z" fill="#e5e5e5"/><path d="m320.5 125.7-4.5-23.1s-32.2-32.2-51.8-46.1-29.7-20.2-29.7-20.2l-28.8-12c8.2 5.3 19.7 13.4 24.3 19.6 7.6 10.1 44.2 58.7 44.2 58.7z" opacity=".11"/><path d="m444.8 290.4-170.4-115.2-236.3 120.2c-3.8 1.9-7 4.5-9.7 7.5-8.8 9.9-7.4 25.2 2.4 34.1 5.2 4.7 11 8.8 17.3 12.1 29.2 15.1 80.1 41.3 136.9 70z" fill="#762c07"/><path d="m444.8 290.4-170.4-115.2-236.3 120.2c-3.8 1.9-7 4.5-9.7 7.5-8.8 9.9-7.4 25.2 2.4 34.1 5.2 4.7 11 8.8 17.3 12.1 29.2 15.1 80.1 41.3 136.9 70z" fill="#762c07"/><path d="m731.4 399.9c-50.3-32.2-389.5-193.2-389.5-193.2l-104 129.7-97.7-49.2c-7.8-3.9-17-3.9-24.8 0l-14.8 7.5c-1.3.6-2.4 1.5-3.5 2.4l-43 21.1c-3.7 1.8-5.9 5.9-5.2 10l3.8 25s307.4 158.5 402.1 194.4c94.7 36 186.2 77.7 365.5 72.6 7.1-.2 48.6-42.9 48.6-42.9l-.4-.1c1.5-1.1 2.7-2.3 3.6-3.7 22.2-35.3-98-146.3-140.7-173.6z" fill="#e5e5e5"/><path d="m186.3 345.8s-12.8-23.2-.5-39.3 30.3-30.3 30.3-30.3l39.3 38.8z" fill="#e5e5e5"/><path d="m186.3 345.8s-12.8-23.2-.5-39.3 30.3-30.3 30.3-30.3l39.3 38.8z" opacity=".29"/><path d="m188.5 341.6c-2.5 2.6-1.7 6.9 1.6 8.4 47.2 22.1 331 154.8 364.6 155.3 36.6.6 76.4-17.7 109.8-35.4s59.3-48.6 60-56.2c.6-7.6-65.7-83.3-96-116.8s-109.8-101-182.4-136.4-132-63.6-132-63.6l-163.5 87.8-54.9 26.5 131.9 89.6z" fill="#e5e5e5"/><path d="m820.4 620.3c-179.3 5.1-270.8-36.6-365.5-72.6-78.7-30-325.4-157.6-406.8-198.7-8.9-4.5-27.1-15.4-25.7-35 0 2.5-.4 17.6.2 20.1l3.6 21.8c2.4 10.3 9.2 19.1 18.6 24.1 61.3 32.5 297 156.6 386.7 191.6 103.5 40.4 159.7 66.3 257.6 68.2s126.9-13.8 133.9-19.5c1-.8 2.6-2.2 4.7-4.1-3.4 2.5-5.9 4-7.3 4.1z" fill="#e5e5e5"/><path d="m820.4 620.3c-179.3 5.1-270.8-36.6-365.5-72.6-78.7-30-325.4-157.6-406.8-198.7-8.9-4.5-27.1-15.4-25.7-35 0 2.5-.4 17.6.2 20.1l3.6 21.8c2.4 10.3 9.2 19.1 18.6 24.1 61.3 32.5 297 156.6 386.7 191.6 103.5 40.4 159.7 66.3 257.6 68.2s126.9-13.8 133.9-19.5c1-.8 2.6-2.2 4.7-4.1-3.4 2.5-5.9 4-7.3 4.1z" opacity=".1"/><path d="m820.4 620.3c-179.3 5.1-270.8-36.6-365.5-72.6-78.7-30-325.4-157.6-406.8-198.7-8.9-4.5-27.1-15.4-25.7-35 0 2.5-.4 17.6.2 20.1l3.6 21.8c2.4 10.3 9.2 19.1 18.6 24.1 61.3 32.5 297 156.6 386.7 191.6 103.5 40.4 159.7 66.3 257.6 68.2s126.9-13.8 133.9-19.5c1-.8 2.6-2.2 4.7-4.1-3.4 2.5-5.9 4-7.3 4.1z" opacity=".11"/><path d="m224.5 349.4 169.2 64.4-136.4-80.8z" fill="#656565"/><path d="m255.4 337.3 138.3 76.5-136.4-80.8-32.8 16.4 3.7 1.5z" fill="#2d3134"/><path d="m268 328 164.8 101.6 51.8 25.9s-41-60-94.1-94.1-122.5-33.4-122.5-33.4z" fill="#656565"/><path d="m436.6 427.1-160.3-98.9c-5.2-.3-8.3-.2-8.3-.2l164.8 101.6 51.8 25.9z" fill="#fff"/><path d="m385.5 363.3c42.1 27.1 76.6 70.4 89.1 87.1l10 5s-41-60-94.1-94.1-122.5-33.3-122.5-33.3l3.5 2.1c20.2 1.1 72.2 6.3 114 33.2z" fill="#2d3134"/><path d="m113.4 125.3 132.5-66.3 3.8 1.9 20.9 30.3-136.4 68.2z" fill="#e5e5e5"/><path d="m117.2 127.2 132.5-66.3 20.9 30.3-136.4 68.2z" opacity=".29"/><path d="m103.9 105.1 134.5-66.9-41.7-19.6-123.1 61.9z" fill="#e5e5e5"/><path d="m317.9 261.7 161-83.3 56.8 28.4s-9 29.7-41.7 46.7-128.8 36-128.8 36z" fill="#762c07"/><path d="m350.1 117.7v26.6l-106 53 64.3 28.4v37.9l-37.8-19-55-70 117.5-55z" fill="#762c07"/><path d="m350.1 117.7v26.6l-106 53 64.3 28.4v37.9l-37.8-19-55-70 117.5-55z" opacity=".29"/><path d="m308.4 225.7s-55.4-27.5-64.4-32.2-13.3-17-1.9-22.7 108-53 108-53l-37.9-18.9-166.7 83.3 125 62.5z" fill="#762c07"/><path d="m263.6 243.4 97.2 53s92.2-11.4 135.7-42.9 54.3-60.6 54.3-60.6-25.3-13.9-52.4-26.5-62.8-10.4-62.8-10.4l93.7 50.8s0 27.1-39.8 46.7-114.1 26.5-114.1 26.5-29.7-13.3-54.9-21.5c-25.3-8.2-56.9-15.1-56.9-15.1z" fill="#656565"/><path d="m568.2 252.5c-10.5 11.6-23 22.7-37.3 33.1-32.8 23.8-88 37.3-122.6 43.9 32 32 72.5 76.1 95.1 105.1 4.6 5.9 9 11.7 13.3 17.4 34.9-3 72.1-20.4 104.5-37.5 26.4-13.9 47.4-35.3 56.3-47.2-16.9-20-37.2-43.1-56-63.9-11-12.2-29.8-30.7-53.3-50.9z" fill="#656565"/><path d="m568.5 257.8c19.4 16.9 38 34.7 50.2 48.2 17.9 19.8 37.4 42 53.9 61.5-9 11.1-28.4 30.6-53.2 43.7-30.9 16.3-67 33.4-100.9 36.8-4.1-5.5-8.2-10.8-12.1-15.8-22.7-29.1-61.7-71.2-90.5-100.4 37.9-7.6 86.6-21.1 117.1-43.2 13.4-9.6 25.3-20 35.5-30.8m-.3-5.3c-10.5 11.6-23 22.7-37.3 33.1-32.8 23.8-88 37.3-122.6 43.9 32 32 72.5 76.1 95.1 105.1 4.6 5.9 9 11.7 13.3 17.4 34.9-3 72.1-20.4 104.5-37.5 26.4-13.9 47.4-35.3 56.3-47.2-16.9-20-37.2-43.1-56-63.9-11-12.2-29.8-30.7-53.3-50.9z" fill="#2d3134"/><path d="m670.9 359.5c-10 12.6-31 33.4-57.2 47.3-31.6 16.7-67.8 33.7-102.2 38.3 1.8 2.3 3.5 4.6 5.2 6.9 34.9-3 72.1-20.4 104.5-37.5 26.4-13.9 47.4-35.3 56.3-47.2-2.1-2.5-4.3-5.1-6.6-7.8z" opacity=".5"/><path d="m628.5 297c-17.9-19.7-51.7-51.7-91.3-81.9-8.3 10.7-21.2 24.3-40.6 38.3-43.6 31.6-135.8 43-135.8 43l-24.1-12.3c15.2 9 26.9 16.4 32.3 21.1 27.8 24 95.3 94.7 126.9 135.1 18.4 23.6 45.4 62.3 45.4 62.3s9.3 2.7 13.3 2.8c36.6.6 76.4-17.7 109.8-35.4 33.5-17.7 59.3-48.6 60-56.2.7-7.5-65.6-83.3-95.9-116.8z" opacity=".29"/><ellipse cx="761.1" cy="518.9" fill="#2d3134" rx="33.5" ry="16.7"/><path d="m761.1 537.6c-19.8 0-35.4-8.2-35.4-18.6s15.5-18.6 35.4-18.6c19.8 0 35.4 8.2 35.4 18.6s-15.6 18.6-35.4 18.6zm0-33.5c-17.1 0-31.6 6.8-31.6 14.8s14.5 14.8 31.6 14.8 31.6-6.8 31.6-14.8-14.5-14.8-31.6-14.8z" fill="#999"/><path d="m129.5 194.9 21.1-10.3-46.7-79.5-30.3-24.6v8.2s10.1 10.1 13.9 21.5 20.8 72.6 20.8 72.6z" fill="#e5e5e5"/><path d="m134.4 192.6 21.1-10.3-46.7-79.5-30.2-24.7v8.2s10.1 10.1 13.9 21.5 20.8 72.6 20.8 72.6z" fill="#e5e5e5"/><path d="m129.5 194.9 21.1-10.3-46.7-79.5-30.3-24.6v8.2s10.1 10.1 13.9 21.5 20.8 72.6 20.8 72.6z" fill="#e5e5e5"/><path d="m129.5 194.9 21.1-10.3-46.7-79.5-30.3-24.6v8.2s10.1 10.1 13.9 21.5 20.8 72.6 20.8 72.6z" opacity=".11"/><path d="m92.1 311.9c-1-5.5 1.1-11.1 5.1-14.7l-43 21.1c-3.7 1.8-5.9 5.9-5.2 10l3.8 25 46.1-26c-3.5-4.5-5.9-9.7-6.8-15.4z" opacity=".11"/><ellipse cx="366.3" cy="482.4" fill="#2d3134" rx="16.6" ry="9.6" transform="matrix(.8645 .5027 -.5027 .8645 292.1696 -118.7537)"/><path d="m373.1 495.1c-3.8 0-8.1-1.3-12.1-3.6-8.5-4.9-12.8-12.8-9.8-17.9 1.5-2.5 4.4-3.9 8.4-3.9 3.8 0 8.1 1.3 12.1 3.6 8.5 4.9 12.8 12.8 9.8 17.9-1.5 2.6-4.5 3.9-8.4 3.9zm-13.5-23.5c-3.3 0-5.7 1-6.8 3-2.4 4.1 1.8 11.1 9.2 15.3 3.7 2.2 7.6 3.3 11.1 3.3 3.3 0 5.7-1.1 6.8-3 2.4-4.1-1.8-11.1-9.2-15.3-3.7-2.1-7.7-3.3-11.1-3.3z" fill="#999"/><ellipse cx="475.1" cy="529.6" fill="#2d3134" rx="16.6" ry="9.6" transform="matrix(.8645 .5027 -.5027 .8645 330.6309 -167.0715)"/><path d="m481.9 542.3c-3.8 0-8.1-1.3-12.1-3.6-8.5-4.9-12.8-12.8-9.8-17.9 1.5-2.5 4.4-3.9 8.4-3.9 3.8 0 8.1 1.3 12.1 3.6 8.5 4.9 12.8 12.8 9.8 17.9-1.5 2.5-4.5 3.9-8.4 3.9zm-13.5-23.5c-3.3 0-5.7 1-6.8 3-2.4 4.1 1.8 11.1 9.2 15.3 3.7 2.2 7.6 3.3 11.1 3.3 3.3 0 5.7-1.1 6.8-3 2.4-4.1-1.8-11.1-9.2-15.3-3.7-2.1-7.7-3.3-11.1-3.3z" fill="#999"/><ellipse cx="594.4" cy="569.8" fill="#2d3134" rx="16.6" ry="9.6" transform="matrix(.9594 .282 -.282 .9594 184.7979 -144.5042)"/><path d="m599.2 581c-2.5 0-5.1-.4-7.8-1.2-4.4-1.3-8.3-3.5-10.9-6.3-2.7-2.9-3.8-6-3-8.8 1.1-3.9 5.8-6.3 12-6.3 2.5 0 5.1.4 7.8 1.2 4.4 1.3 8.3 3.5 10.9 6.3 2.7 2.9 3.8 6 3 8.8-1.1 3.9-5.7 6.3-12 6.3zm-9.5-20.6c-5.3 0-9.3 2-10.2 5-.6 2.1.3 4.6 2.5 7 2.4 2.5 5.9 4.5 10 5.7 2.4.7 4.9 1.1 7.2 1.1 5.3 0 9.3-2 10.2-5 .6-2.1-.3-4.6-2.5-7-2.4-2.5-5.9-4.5-10-5.7-2.5-.7-4.9-1.1-7.2-1.1z" fill="#999"/><path d="m868.7 577.2c-.4.3-.8.6-1.2.8-2.5 1.7-4.8 2.7-7.2 3.2-56.6 18.4-276.5-26-362.4-62.7-81.9-34.8-322.9-150.7-387-181.6-9.9-4.8-17-14.1-18.8-25-1-5.5 1.1-11.1 5.1-14.7l-43 21.1c-3.7 1.8-5.9 5.9-5.2 10l3.8 25s307.4 158.5 402.1 194.4c94.7 36 186.2 77.7 365.5 72.6 7.1-.2 48.6-42.9 48.6-42.9z" opacity=".11"/><path d="m823 620.3c1-.8 2.6-2.2 4.7-4.1-3.3 2.5-5.9 4.1-7.2 4.1-15.8.4-30.9.5-45.4.3l-15.4 17c42.6-4.4 58.4-13.3 63.3-17.3z" opacity=".15"/><path d="m107.5 205.8 299 151.1-305-148.2z" fill="#fff"/><path d="m820.4 620.3c7.1-.2 48.6-42.9 48.6-42.9l-.4-.1c-.4.3-.8.6-1.2.8-2.5 1.7-4.8 2.7-7.2 3.2-11.7 3.8-30.3 4.9-53.2 4l-32 35.3c14.5.2 29.6.1 45.4-.3z" opacity=".15"/><path d="m532.3 318.5c48.5 3.9 93.6 15.9 132.3 33.7-13.8-16-28.9-33.1-43.1-48.8-11-12.2-29.9-30.7-53.3-50.9-10.5 11.6-23 22.7-37.3 33.1-21.5 15.6-52.6 26.8-81.2 34.5 26.4-3.3 54.1-3.9 82.6-1.6z" opacity=".2"/><path d="m355.8 106.4-3.8 1.9v37.9l3.8 1.9-39.8 17.2 60.6 30.1 39.8-20.8v-37.9z" fill="#e5e5e5"/><path d="m352 108.3v37.9l3.9 1.9-39.9 17.2 60.6 30.1 36-18.9v-37.9z" opacity=".11"/><path d="m416.4 136.7v37.9l-3.8 1.9v-37.9z" opacity=".29"/><path d="m319.8 167.2-3.8-1.9v-37.9l36-19.1 3.8 1.9v37.9z" fill="#e5e5e5"/><path d="m316 127.4v37.9l3.8 1.9v-37.9z" opacity=".11"/><path d="m355.8 110.2v37.9l-36 19.1v-37.9z" opacity=".29"/><path d="m372.8 197.3-60.6-30.3v-37.9l3.8-1.9 60.6 30.3v37.9z" fill="#e5e5e5"/><path d="m312.2 129.1v37.9l60.6 30.3v-37.9z" opacity=".11"/><path d="m376.6 157.5v37.9l-3.8 1.9v-37.9z" opacity=".29"/><path d="m164.5 184-11.4-5.6v-19l136.4-68.2 11.4 5.7v19z" fill="#762c07"/><path d="m153.1 159.4v19l11.4 5.6v-18.9z" opacity=".11"/><path d="m300.9 96.9v19l-136.4 68.1v-18.9z" opacity=".29"/><path d="m791.2 623.5c-147.4 0-232.4-32.8-314.9-64.6-7.5-2.9-14.9-5.8-22.4-8.6-93.8-35.6-399.4-193-402.4-194.6l-7.8-9.1 8.9 4.4c3.1 1.6 309.8 158.4 403.3 193.9 7.5 2.8 14.9 5.7 22.4 8.6 87.2 33.7 177.5 68.5 342 63.8l6.2-.4-3.2 3s-3.9 3.1-4.4 3.1c-9.5.4-18.7.5-27.7.5z" fill="#2d3134"/><path d="m227.6 300.8-39.1 40.8c-2.5 2.6-1.7 6.9 1.6 8.4 43.3 20.3 285.5 133.5 351.3 152.6-10.5-15.4-27-38.7-45.4-62.3-31.6-40.4-99.1-111.1-126.9-135.1-12.1-10.5-53.8-36.6-98.5-60.6-57.9-31.1-119.9-60-119.9-60l-54.9 26.5z" opacity=".11"/><path d="m360.8 296.4s92.2-11.4 135.7-42.9 54.3-60.6 54.3-60.6l-21.5 13.9s0 27.1-39.8 46.7-114.1 26.5-114.1 26.5z" opacity=".29"/><g opacity=".11"><path d="m550.9 192.9s-25.3-13.9-52.4-26.5-62.8-10.4-62.8-10.4l93.7 50.8z"/><path d="m320.4 258.5c-25.3-8.2-56.8-15.2-56.8-15.2l97.2 53 14.5-16.4c.1.1-29.6-13.2-54.9-21.4z"/></g><path d="m878.4 515.4c-4.2-30.6-38.9-86.4-87.7-123.3-58.9-44.5-148.9-81-149.8-81.3 0 0 5.8 6.6 5.9 6.6 17.3 7.2 90.2 38.9 141.6 77.7 48.1 36.3 82.2 91 86.3 120.8.4 2.6.5 5 .4 7.1l-10.2 6c-8.7-28.7-38.7-73.5-68.8-100.6-39-35.1-122.2-80.4-123-80.8 0 0 7.3 8.4 7.5 8.5 16.6 9.2 79.4 45 113 75.1 29.6 26.6 59.9 72.1 68 99.8l-11.8 7.1 5.2 1.2c-4.9.5-10.7.7-17.3.7-62.8-.2-192.9-22.8-250.1-42-41.6-14-127-52.2-202.3-85.9-10.2-4.6-20.2-9-29.7-13.3l-1.6-.7c-36.2-16.1-65.9-29.1-80.8-34.7-47.4-17.7-125-31.8-131.7-30.4-6.4 1.3-7.5 5.7-7.2 7.8l3.3 1.8c0-.5.4-5 4.6-5.9 4.8-1 67.4 9.9 114.7 25.1l-29.4 18.5 4.3 1.6 8.9-5.6c5.1 2 38.8 15.6 87.7 35.7l-11.1 5.9 4.4 2.1 11.3-6.1c25.9 10.6 55.7 23 87.6 36.3l-13.9 6 4.4 2.2 14.3-6.2c26.1 11 53.6 22.6 81.3 34.4l-23.3 9.5 5.3 1.6 23-9c1.8.8 3.6 1.5 5.4 2.3 28.3 12.2 58.4 22.6 88.5 31.3l-18.6 8.8 5.5 1.5 18.6-8.7c27.2 7.7 54.3 14.1 80.2 19.2l-14 7.8 5.2 1.3 14.6-8c19.8 3.8 38.8 6.8 56.5 9.1l-11.3 9.2 5 .8 11.5-9.4c20.5 2.6 39 4.1 54.6 4.7l-14.5 11.5 5.1.7 15.3-12.1c2.9.1 5.7.1 8.3.1 19.4 0 32.4-1.9 36.2-5.5 2.5-2.4 3.7-6.1 3.6-11 0-.7-.1-1.5-.1-2.3 3.6-1.2 6.2-2.6 7.6-4.5 3.5-4.2 4.7-11.1 3.5-20.1zm-15.9 19.4c.2 1.1.5 2.1.6 3.2-2.4.5-5.1 1-8.2 1.3zm-617.8-160.9 16.9-10.5c3.5 1.2 7 2.4 10.2 3.6 14.5 5.4 43.1 17.9 78 33.5l-17.1 9.3c-45.2-18.6-78-31.8-88-35.9zm92.5 37.7 16.9-9.2c9.5 4.2 19.4 8.7 29.6 13.2 18.8 8.4 38.3 17.1 57.6 25.7l-16 6.9c-32-13.4-62-25.9-88.1-36.6zm92.9 38.6 15.9-6.9c28.7 12.7 56.8 24.9 81.4 35.2l-15.8 6.2c-27.7-11.8-55.2-23.5-81.5-34.5zm88.4 37.5c-.6-.3-1.3-.5-1.9-.8l15.9-6.2c21.4 8.9 40 16.2 53.8 20.8 10.1 3.4 24 7.2 40.3 11.2l-16.1 7.5c-29.7-8.6-61.1-19.2-92-32.5zm97.6 34.1 15.2-7.1-.5-1c24.6 5.8 54 11.8 83.9 16.8l-18.4 10.1c-23.5-4.5-50.9-10.6-80.2-18.8zm124.2 26.2c-10.6-1.5-23.5-3.6-38.2-6.3l18.3-10-.1-.2c17.4 2.9 34.8 5.4 51.4 7.5l-14.1 11.5c-5.7-.8-11.4-1.6-17.3-2.5zm22.4 3 14.1-11.5c20.7 2.4 40 4 55.9 4.2l-14.7 11.6c-15.3-.4-34-1.8-55.3-4.3zm100.9-8.1c.1 3.8-.8 6.6-2.4 8.2-3.1 3-16.5 4.7-37.1 4.4l14.8-11.7c10-.1 18.4-.8 24.7-2.2-.1.4 0 .8 0 1.3zm8.2-9.2c-1 1.3-2.7 2.3-5.1 3.2-.2-1.3-.5-2.7-.9-4.1l8.6-5c-.5 2.3-1.4 4.3-2.6 5.9z" fill="#2d3134"/></svg>