<svg enable-background="new 0 0 640 560" viewBox="0 0 640 560" xmlns="http://www.w3.org/2000/svg"><path d="m1 301.9 140-70 403 203.1-140 70z" opacity=".3"/><path d="m435 332.9v20l-140 70v-20z" fill="#2d3134"/><path d="m91 283.4v37.5l25-12.5v-37.5z" fill="#2d3134"/><path d="m140 94.9-140 70v110l82 41 140-70v-110z" fill="#cc291f"/><path d="m0 171.9v2l82 41v-2z" opacity=".3"/><path d="m0 265.9v2l82 41v-2z" opacity=".3"/><path d="m222 135.9v110l-140 70v-110z" opacity=".29"/><path d="m57 281.4v5l10 5v-5z" fill="#2d3134" opacity=".5"/><path d="m67 293.9-10-5v-2.5l10 5z" fill="#fff" opacity=".5"/><path d="m16 260.4v5l10 5v-5z" fill="#2d3134" opacity=".5"/><path d="m26 272.9-10-5v-2.5l10 5z" fill="#fff" opacity=".5"/><path d="m82 274-82-41v14l82 41z" fill="#fff"/><path d="m0 164.9v110l82 41v-110z" opacity=".11"/><path d="m42 286.9-2-1v-92l2 1z" opacity=".3"/><path d="m118 125.8c-23.2 0-42 9.4-42 21v4.2c0 11.6 18.8 21 42 21s42-9.4 42-21v-4.2c0-11.6-18.8-21-42-21z" fill="#2d3134"/><path d="m118 167.8c-23.2 0-42-9.4-42-21v4.2c0 11.6 18.8 21 42 21s42-9.4 42-21v-4.2c0 11.6-18.8 21-42 21z" opacity=".2"/><path d="m118 110.9c-20.4 0-37 8.3-37 18.5v13c0 10.2 16.6 18.5 37 18.5s37-8.3 37-18.5v-13c0-10.3-16.6-18.5-37-18.5z" fill="#2d3134"/><path d="m118 147.9c-20.4 0-37-8.3-37-18.5v13c0 10.2 16.6 18.5 37 18.5s37-8.3 37-18.5v-13c0 10.2-16.6 18.5-37 18.5z" opacity=".2"/><path d="m133.5 298.5c-7.5-3.7-14.2-4.2-19.2-1.9l-14 7c-5.4 2.4-8.8 7.9-8.8 15.9 0 15.5 12.5 34.3 28 42 7.6 3.8 14.6 4.2 19.6 1.8 0 0 13.9-6.9 15.1-7.6 4.5-2.7 7.3-7.9 7.3-15.2 0-15.4-12.5-34.2-28-42z" fill="#2d3134"/><path d="m139.4 363.2c2-1 13.7-6.8 14.8-7.5 4.5-2.7 7.3-7.9 7.3-15.2 0-6.2-2.1-13-5.5-19.3l-14 7c3.4 6.4 5.5 13.1 5.5 19.3 0 7.7-3.1 13.1-8.1 15.7z" opacity=".29"/><path d="m140.5 343.9c0 11.6-9.4 16.3-21 10.5s-21-19.9-21-31.5 9.4-16.3 21-10.5 21 19.9 21 31.5z" fill="#a9abb0"/><path d="m121.3 353.6c-11.6-5.8-21-19.9-21-31.5 0-5.7 2.3-9.7 6-11.7-4.7 1.5-7.7 5.8-7.7 12.4 0 11.6 9.4 25.7 21 31.5 5.9 2.9 11.2 3.2 15 1.2-3.7 1.2-8.3.6-13.3-1.9z" fill="#808285"/><path d="m130 337c0 4.8-3.9 6.8-8.8 4.4s-8.8-8.3-8.8-13.1 3.9-6.8 8.8-4.4 8.8 8.3 8.8 13.1z" fill="#2d3134"/><path d="m130 337c0 4.8-3.9 6.8-8.8 4.4s-8.8-8.3-8.8-13.1 3.9-6.8 8.8-4.4 8.8 8.3 8.8 13.1z" opacity=".29"/><path d="m128.3 337.8c0 4.8-3.9 6.8-8.8 4.4-4.8-2.4-8.8-8.3-8.8-13.1s3.9-6.8 8.8-4.4c4.8 2.4 8.8 8.3 8.8 13.1z" fill="#2d3134"/><path d="m147.5 347.5c0 15.5-12.5 21.7-28 14s-28-26.5-28-42 12.5-21.7 28-14c15.5 7.8 28 26.6 28 42z" opacity=".11"/><path d="m338 401.2c-7.5-3.7-14.2-4.2-19.2-1.9l-14 7c-5.4 2.4-8.8 7.9-8.8 15.9 0 15.5 12.5 34.3 28 42 7.6 3.8 14.6 4.2 19.6 1.8 0 0 13.9-6.9 15.1-7.6 4.5-2.7 7.3-7.9 7.3-15.2 0-15.5-12.5-34.3-28-42z" fill="#2d3134"/><path d="m343.9 465.8c2-1 13.7-6.8 14.8-7.5 4.5-2.7 7.3-7.9 7.3-15.2 0-6.2-2.1-13-5.5-19.3l-14 7c3.4 6.4 5.5 13.1 5.5 19.3 0 7.7-3.1 13.1-8.1 15.7z" opacity=".29"/><path d="m345 446.5c0 11.6-9.4 16.3-21 10.5s-21-19.9-21-31.5 9.4-16.3 21-10.5 21 19.9 21 31.5z" fill="#a9abb0"/><path d="m325.8 456.2c-11.6-5.8-21-19.9-21-31.5 0-5.7 2.3-9.7 6-11.7-4.7 1.5-7.7 5.8-7.7 12.4 0 11.6 9.4 25.7 21 31.5 5.9 2.9 11.2 3.2 15 1.2-3.7 1.2-8.3.7-13.3-1.9z" fill="#808285"/><path d="m334.5 439.6c0 4.8-3.9 6.8-8.8 4.4s-8.8-8.3-8.8-13.1 3.9-6.8 8.8-4.4 8.8 8.3 8.8 13.1z" fill="#2d3134"/><path d="m334.5 439.6c0 4.8-3.9 6.8-8.8 4.4s-8.8-8.3-8.8-13.1 3.9-6.8 8.8-4.4 8.8 8.3 8.8 13.1z" opacity=".29"/><path d="m332.8 440.5c0 4.8-3.9 6.8-8.8 4.4-4.8-2.4-8.8-8.3-8.8-13.1s3.9-6.8 8.8-4.4c4.8 2.3 8.8 8.2 8.8 13.1z" fill="#2d3134"/><path d="m352 450.2c0 15.5-12.5 21.7-28 14s-28-26.5-28-42 12.5-21.7 28-14 28 26.5 28 42z" opacity=".11"/><path d="m230 119.9-140 70-6 17v110l6.9 3.5c0-.4 0-.9 0-1.3 0-17 13.8-23.9 30.8-15.4s30.8 29.2 30.8 46.2v1.3l25.5 12.8 140-70v-130z" fill="#cc291f"/><path d="m318 163.9v130l-140 70v-130z" fill="#999"/><path d="m318 163.9v130l-140 70v-130z" opacity=".29"/><path d="m84 213.9v2l94 47v-2z" opacity=".3"/><path d="m84 272.9v2l94 47v-2z" opacity=".3"/><path d="m123 280.4v5l10 5v-5z" fill="#2d3134" opacity=".5"/><path d="m133 292.9-10-5v-2.5l10 5z" fill="#fff" opacity=".5"/><path d="m178 322-94-47v14l22.1 11.1c4.6-.4 9.9.7 15.6 3.6 5.7 2.8 11 7 15.5 12l40.8 20.3z" fill="#fff"/><path d="m90 189.9-6 17v110l6.9 3.5c0-.4 0-.9 0-1.3 0-17 13.8-23.9 30.8-15.4s30.8 29.2 30.8 46.2v1.3l25.5 12.8v-130z" opacity=".11"/><path d="m318 287.9-140 70v6l58 29 140-70v-6z" fill="#999"/><path d="m178 357.9v6l58 29v-6z" opacity=".11"/><path d="m376 316.9v6l-140 70v-6z" opacity=".29"/><path d="m306 169.9-116 58v124l58 29 116-58v-124.1z" fill="#cc291f"/><path d="m190 227.9v124l58 29v-124.1z" fill="#2d3134"/><path d="m194 237.9v25l50 25v-25z" fill="#fff" opacity=".3"/><path d="m197 254.9v7l44 22v-7.1z" opacity=".4"/><path d="m364 198.8v124.1l-116 58v-124.1z" opacity=".29"/><path d="m241 269.3c0 2.2-1.8 3.1-4 2s-4-3.8-4-6 1.8-3.1 4-2 4 3.8 4 6z" opacity=".4"/><path d="m229 263.3c0 2.2-1.8 3.1-4 2s-4-3.8-4-6 1.8-3.1 4-2 4 3.8 4 6z" opacity=".4"/><path d="m217 257.4c0 2.2-1.8 3.1-4 2s-4-3.8-4-6 1.8-3.1 4-2 4 3.8 4 6z" opacity=".4"/><path d="m205 250.4c0 2.2-1.8 3.1-4 2s-4-3.8-4-6 1.8-3.1 4-2 4 3.8 4 6z" opacity=".4"/><path d="m194 275.9v14l50 24.9v-14z" fill="#fff" opacity=".3"/><path d="m241 306.8c0 2.2-1.8 3.1-4 2s-4-3.8-4-6 1.8-3.1 4-2 4 3.7 4 6z" opacity=".4"/><g fill="#fff"><path d="m244 336.5c0 6.5-5.3 9.2-11.8 5.9s-11.8-11.2-11.8-17.8 5.3-9.2 11.8-5.9 11.8 11.3 11.8 17.8z" opacity=".3"/><path d="m204 309c0 2.8-2.2 3.9-5 2.5s-5-4.7-5-7.5 2.2-3.9 5-2.5 5 4.7 5 7.5z" opacity=".3"/><path d="m217 316.4c0 2.8-2.2 3.9-5 2.5s-5-4.7-5-7.5 2.2-3.9 5-2.5 5 4.8 5 7.5z" opacity=".3"/></g><path d="m229 300.8c0 2.2-1.8 3.1-4 2s-4-3.8-4-6 1.8-3.1 4-2 4 3.7 4 6z" opacity=".4"/><path d="m217 294.8c0 2.2-1.8 3.1-4 2s-4-3.8-4-6 1.8-3.1 4-2 4 3.8 4 6z" opacity=".4"/><path d="m205 287.8c0 2.2-1.8 3.1-4 2s-4-3.8-4-6 1.8-3.1 4-2 4 3.8 4 6z" opacity=".4"/><path d="m194 332.9v14l50 24.9v-14z" fill="#fff" opacity=".3"/><path d="m241 363.8c0 2.2-1.8 3.1-4 2s-4-3.8-4-6 1.8-3.1 4-2 4 3.7 4 6z" opacity=".4"/><path d="m229 357.8c0 2.2-1.8 3.1-4 2s-4-3.8-4-6 1.8-3.1 4-2 4 3.7 4 6z" opacity=".4"/><path d="m217 351.8c0 2.2-1.8 3.1-4 2s-4-3.8-4-6 1.8-3.1 4-2 4 3.8 4 6z" opacity=".4"/><path d="m205 344.8c0 2.2-1.8 3.1-4 2s-4-3.8-4-6 1.8-3.1 4-2 4 3.8 4 6z" opacity=".4"/><path d="m190 227.9v124l58 29v-124.1z" opacity=".11"/><path d="m524 266.9-148-74-140 70v130l59.4 29.7c0-.2 0-.4 0-.6 0-17 13.8-23.9 30.8-15.4s30.8 29.2 30.8 46.2v.5l47 23.5 140-70v-80z" fill="#cc291f"/><path d="m407.7 392.1-16.6-49.9c-.6-1.7.2-3.5 1.8-4.2l124.6-62.3c1.9-1 4.2 0 4.9 2l15.7 47.1c.5 1.6-.2 3.4-1.7 4.2l-123.7 65.1c-2 1-4.3.1-5-2z" fill="#656565"/><path d="m431.5 318.7 86-43c1.9-1 4.2 0 4.9 2l14.7 44.1z" opacity=".15"/><path d="m538.1 324.8-1.1-3.2c.4 1.6-.3 3.2-1.7 3.9l-123.7 65.1c-1.9 1-4.3.1-4.9-2l1.1 3.5c.7 2 3 3 4.9 2l123.7-65.1c1.5-.7 2.2-2.5 1.7-4.2z" fill="#2d3134"/><path d="m439 385 70-35v27.1l-70 35z" fill="#999"/><path d="m404 403.8 30-14.9v27.1l-30 14.9z" fill="#999"/><path d="m444 404 60-30v-16.5l-60 30z" fill="#2d3134"/><path d="m444 391v2.5l60-30v-2.5z" fill="#999"/><path d="m444 397.5v2.5l60-30v-2.5z" fill="#999"/><path d="m439 416.9 70-35v21.1l-70 35z" fill="#999"/><path d="m444 429.9 60-30v-10.5l-60 30z" fill="#2d3134"/><path d="m444 422.9v2.5l60-30v-2.5z" fill="#999"/><path d="m347 377.4v5l10 5v-5z" fill="#2d3134" opacity=".5"/><path d="m357 389.9-10-5v-2.5l10 5z" fill="#fff" opacity=".5"/><path d="m478.8 325.5c-.8-.7-2.1-.7-2.8.2l-37.6 42.7c-.7.8-.7 2.1.2 2.8s2.1.7 2.8-.2l10.1-11.5v9.8h2.5v-12.5h-.2l25.1-28.5c.8-.8.7-2.1-.1-2.8z" fill="#2d3134"/><path d="m514.9 305.6c-.8-.7-2.1-.7-2.8.2l-37.6 42.7c-.7.8-.7 2.1.2 2.8.8.7 2.1.7 2.8-.2l9-10.2v10.9h2.5v-13.7l26.1-29.7c.8-.8.7-2-.2-2.8z" fill="#2d3134"/><path d="m406 405.9v10l26-13v-10z" fill="#e5e5e5"/><path d="m406 416.9v10l26-13v-10z" fill="#e5e5e5"/><path d="m430 395.9v6l-10 5v-6z" fill="#be1e2d"/><path d="m418 401.9v6l-10 5v-6z" fill="#36c"/><path d="m430 406.9v6l-10 5v-6z" fill="#be1e2d"/><path d="m418 412.9v6l-10 5v-6z" fill="#36c"/><path d="m404 434.9 30-14.9v17l-30 14.9z" fill="#999"/><path d="m406 437.9v10l26-13v-10z" fill="#e5e5e5"/><path d="m430 427.9v6l-10 5v-6z" fill="#be1e2d"/><path d="m418 433.9v6l-10 5v-6z" fill="#36c"/><path d="m514 348.8 30-14.9v27.1l-30 14.9z" fill="#999"/><path d="m516 350.9v10l26-13v-10z" fill="#e5e5e5"/><path d="m516 361.9v10l26-13v-10z" fill="#e5e5e5"/><path d="m540 340.9v6l-10 5v-6z" fill="#36c"/><path d="m528 346.9v6l-10 5v-6z" fill="#be1e2d"/><path d="m540 351.9v6l-10 5v-6z" fill="#36c"/><path d="m528 357.9v6l-10 5v-6z" fill="#be1e2d"/><path d="m514 379.9 30-14.9v17l-30 14.9z" fill="#999"/><path d="m516 382.9v10l26-13v-10z" fill="#e5e5e5"/><path d="m540 372.9v6l-10 5v-6z" fill="#36c"/><path d="m528 378.9v6l-10 5v-6z" fill="#be1e2d"/><path d="m524 266.9-140 70 20 60v80l140-70v-80z" opacity=".29"/><path d="m323 316.6v38.6c0 1.7-1.7 2.7-3.2 2l-21.4-10.7c-2.1-1-3.4-3.1-3.4-5.5v-38.6c0-1.7 1.7-2.7 3.2-2l21.4 10.7c2.1 1.1 3.4 3.2 3.4 5.5z" fill="#656565"/><path d="m287 298.6v38.6c0 1.7-1.7 2.7-3.2 2l-37.4-18.7c-2.1-1-3.4-3.1-3.4-5.5v-38.6c0-1.7 1.7-2.7 3.2-2l37.4 18.7c2.1 1.1 3.4 3.2 3.4 5.5z" fill="#656565"/><path d="m380.9 344.8 16 48.9c.4 1.2-.9 2.3-2 1.7l-45.5-23.2c-1.5-.8-2.4-2.3-2.4-4v-39.6c0-1.7 1.8-2.7 3.2-2l27 13.9c1.8.9 3.1 2.4 3.7 4.3z" fill="#656565"/><path d="m302.4 344.9c-2.1-1-3.4-3.1-3.4-5.5v-38.6l-.8-.4c-1.5-.7-3.2.3-3.2 2v38.6c0 2.3 1.3 4.4 3.4 5.5l21.4 10.7c1.5.7 3.2-.3 3.2-2z" opacity=".2"/><path d="m250.4 318.9c-2.1-1-3.4-3.1-3.4-5.5v-38.6l-.8-.4c-1.5-.7-3.2.3-3.2 2v38.6c0 2.3 1.3 4.4 3.4 5.5l37.4 18.7c1.5.7 3.2-.3 3.2-2z" opacity=".2"/><path d="m396.6 392.5-43.1-22c-1.5-.8-2.4-2.3-2.4-4v-39.6l-.7-.4c-1.5-.8-3.2.3-3.2 2v39.6c0 1.7.9 3.2 2.4 4l45.5 23.2c1.1.6 2.4-.5 2-1.7z" opacity=".2"/><path d="m544 390-140 70v20l12 6 140-70v-20z" fill="#e5e5e5"/><path d="m556 416v-20l-140 70v20z" opacity=".29"/><path d="m404 480 12 6v-20l-12-6z" opacity=".11"/><path d="m404 435-168-84v14l76 38c4.2-.1 9.1 1.1 14.2 3.6 5.1 2.6 9.9 6.2 14.2 10.6l63.6 31.8z" fill="#fff"/><path d="m404 456.8v-60l-20-60-148-74v130l59.4 29.7c0-.2 0-.4 0-.6 0-17 13.8-23.9 30.8-15.4s30.8 29.2 30.8 46.2v.5l47 23.5z" opacity=".11"/><path d="m292 420.9-2-1v-130l2 1z" opacity=".3"/><path d="m344 419.9-2-1v-103l2 1z" opacity=".3"/><path d="m396 320 88-45-22-11-89 44z" fill="#2d3134"/><path d="m404 284-25.5 12.8c-2.7 1.4-4.5 4.2-4.5 7.2 0 3.1 1.7 5.9 4.5 7.2l11.9 6c2.3 1.1 5 1.1 7.2 0l26.4-13.2v-10z" fill="#36c"/><path d="m479.5 261.7-11.9-6c-2.3-1.1-5.3-.9-7.6.2l-26.5 13.2 20 10v10l26.1-13c2.7-1.4 4.5-4.2 4.5-7.2-.1-3-1.8-5.8-4.6-7.2z" fill="#36c"/><path d="m433.5 269.2-29.5 14.8 20 10v10l29.5-14.8v-10z" fill="#e5e5e5"/><path d="m424 294v10l29.5-14.8v-10z" opacity=".29"/><path d="m453.5 279.2v10l26.1-13c2.7-1.4 4.5-4.2 4.5-7.2 0-1.6-.5-3.1-1.3-4.4z" opacity=".29"/><path d="m394 309v9c1.2 0 2.5-.3 3.6-.9l26.4-13.1v-10z" opacity=".29"/><path d="m375.3 299.6c-.8 1.3-1.3 2.8-1.3 4.4 0 3.1 1.7 5.9 4.5 7.2l11.9 6c1.1.6 2.4.9 3.6.9v-9z" opacity=".11"/><path d="m376 300 18 9 30-15-30 13z" fill="#fff" opacity=".8"/><path d="m453.5 279.2 27.5-14.2 1-1-17-9 15 9z" fill="#fff" opacity=".8"/><path d="m64 132.9 62-31 362 182.6 39 50.5-62.1 30.9-38.9-50.4z" opacity=".2"/><path d="m464 218.9-390-195-4 2-26 37v5l432 216 4-2v-5zm-12.6 2.7-20.1 28.6-12.4-44.9zm-48-24-20.1 28.6-12.4-44.9zm-48-24-20.1 28.6-12.4-44.9zm-48-24-20.1 28.6-12.4-44.9zm-48-24-20.1 28.6-12.4-44.9zm-48-24-20.1 28.6-12.4-44.9zm-48-24-20.1 28.6-12.4-44.9zm-48-24-20.1 28.6-12.4-44.9zm-42.6-19.1 13.8 45.6-34.6-17.2zm47.9 23.8 13.8 45.8-34.5-17.2zm48 24 13.8 45.8-34.5-17.2zm48 24 13.8 45.8-34.5-17.2zm48 24 13.8 45.8-34.5-17.2zm48 24 13.8 45.8-34.5-17.2zm48 24 13.8 45.8-34.5-17.2zm48 24 13.8 45.8-34.5-17.2zm48 24 13.8 45.8-34.5-17.2z" fill="#e5e5e5"/><path d="m460 220.9-390-195-26 37v5l432 216v-5zm-412-156 24-33 16 53zm29.6-30.2 37.8 18.9-23.4 33.3zm18.4 54.2 24-33 16 53zm29.6-30.2 37.8 18.9-23.4 33.3zm18.4 54.2 24-33 16 53zm29.6-30.2 37.8 18.9-23.4 33.3zm18.4 54.2 24-33 16 53zm29.6-30.2 37.8 18.9-23.4 33.3zm18.4 54.2 24-33 16 53zm29.6-30.2 37.8 18.9-23.4 33.3zm18.4 54.2 24-33 16 53zm29.6-30.2 37.8 18.9-23.4 33.3zm18.4 54.2 24-33 16 53zm29.6-30.2 37.8 18.9-23.4 33.3zm18.4 54.2 24-33 16 53zm29.6-30.2 37.8 18.9-23.4 33.3zm18.4 54.2 24-33 16 53z" opacity=".11"/><path d="m240 160.9 4-2 20.7-28.5-.7-2.5zm-18.4-54.2 14.4 52.2 3.3-4.7-12.4-44.9zm66.4 78.2 4-2 20.7-28.5-.7-2.5zm-18.4-54.2 14.4 52.2 3.3-4.7-12.4-44.9zm48 24 14.4 52.2 3.3-4.7-12.4-44.9zm96 48 14.4 52.2 3.3-4.7-12.4-44.9zm-29.6 30.2 4-2 20.7-28.5-.7-2.5zm-48-24 4-2 20.7-28.5-.7-2.5zm29.6-30.2 14.4 52.2 3.3-4.7-12.4-44.9zm66.4 78.2 4-2 20.7-28.5-.7-2.5zm-354.4-222.2 14.4 52.2 3.3-4.7-12.4-44.9zm-29.6 30.2 4-2 20.8-28.4-.8-2.6zm416 154-4 2 16 58v5l4-2v-5zm-338.4-160.2 14.4 52.2 3.3-4.7-12.4-44.9zm48 24 14.4 52.2 3.3-4.7-12.4-44.9zm18.4 54.2 4-2 20.7-28.5-.7-2.5zm-96-48 4-2 20.7-28.5-.7-2.5z" opacity=".29"/><path d="m8 89.9 40-20v-5l-4-2-40 20v5z" fill="#e5e5e5"/><path d="m48 64.9v5l-40 20v-5z" opacity=".29"/><path d="m484 240-390-195-4 2-26 37v5l432 216 4-2v-5zm-12.6 2.7-20.1 28.6-12.4-44.9zm-48-24-20.1 28.6-12.4-44.9zm-48-24-20.1 28.6-12.4-44.9zm-48-24-20.1 28.6-12.4-44.9zm-48-24-20.1 28.6-12.4-44.9zm-48-24-20.1 28.6-12.4-44.9zm-48-24-20.1 28.6-12.4-44.9zm-48-24-20.1 28.6-12.4-44.9zm-42.6-19.1 13.8 45.6-34.6-17.2zm47.9 23.9 13.8 45.8-34.5-17.3zm48 24 13.8 45.8-34.5-17.3zm48 24 13.8 45.8-34.5-17.3zm48 24 13.8 45.8-34.5-17.3zm48 24 13.8 45.8-34.5-17.3zm48 24 13.8 45.8-34.5-17.3zm48 24 13.8 45.8-34.5-17.3zm48 24 13.8 45.8-34.5-17.3z" fill="#e5e5e5"/><path d="m480 242-390-195-26 37v5l432 216v-5zm-412-156 24-33 16 53zm29.6-30.2 37.8 18.9-23.4 33.3zm18.4 54.2 24-33 16 53zm29.6-30.2 37.8 18.9-23.4 33.3zm18.4 54.2 24-33 16 53zm29.6-30.2 37.8 18.9-23.4 33.3zm18.4 54.2 24-33 16 53zm29.6-30.2 37.8 18.9-23.4 33.3zm18.4 54.2 24-33 16 53zm29.6-30.2 37.8 18.9-23.4 33.3zm18.4 54.2 24-33 16 53zm29.6-30.2 37.8 18.9-23.4 33.3zm18.4 54.2 24-33 16 53zm29.6-30.2 37.8 18.9-23.4 33.3zm18.4 54.2 24-33 16 53zm29.6-30.2 37.8 18.9-23.4 33.3zm18.4 54.2 24-33 16 53z" opacity=".11"/><path d="m260 182 4-2 20.7-28.5-.7-2.5zm-18.4-54.2 14.4 52.2 3.3-4.7-12.4-44.9zm66.4 78.2 4-2 20.7-28.5-.7-2.5zm-18.4-54.2 14.4 52.2 3.3-4.7-12.4-44.9zm48 24 14.4 52.2 3.3-4.7-12.4-44.9zm96 48 14.4 52.2 3.3-4.7-12.4-44.9zm-29.6 30.2 4-2 20.7-28.5-.7-2.5zm-48-24 4-2 20.7-28.5-.7-2.5zm29.6-30.2 14.4 52.2 3.3-4.7-12.4-44.9zm66.4 78.2 4-2 20.7-28.5-.7-2.5zm-354.4-222.2 14.4 52.2 3.3-4.7-12.4-44.9zm-29.6 30.2 4-2 20.8-28.4-.8-2.6zm416 154-4 2 16 58v5l4-2v-5zm-338.4-160.2 14.4 52.2 3.3-4.7-12.4-44.9zm48 24 14.4 52.2 3.3-4.7-12.4-44.9zm18.4 54.2 4-2 20.7-28.5-.7-2.5zm-96-48 4-2 20.7-28.5-.7-2.5z" opacity=".29"/><path d="m525 323.5c-.6 0-1.2-.1-1.8-.4l-415-207.5c-2-1-2.8-3.4-1.8-5.4s3.4-2.8 5.4-1.8l415 207.5c2 1 2.8 3.4 1.8 5.4-.7 1.4-2.1 2.2-3.6 2.2z" fill="#2d3134"/><path d="m462 251-390-195-4 2-26 37v5l432 216 4-2v-5zm-12.6 2.7-20.1 28.6-12.4-44.9zm-48-24-20.1 28.6-12.4-44.9zm-48-24-20.1 28.6-12.4-44.9zm-48-24-20.1 28.6-12.4-44.9zm-48-24-20.1 28.6-12.4-44.9zm-48-24-20.1 28.6-12.4-44.9zm-48-24-20.1 28.6-12.4-44.9zm-48-24-20.1 28.6-12.4-44.9zm-42.6-19.1 13.8 45.6-34.6-17.2zm47.9 23.9 13.8 45.8-34.5-17.3zm48 24 13.8 45.8-34.5-17.3zm48 24 13.8 45.8-34.5-17.3zm48 24 13.8 45.8-34.5-17.3zm48 24 13.8 45.8-34.5-17.3zm48 24 13.8 45.8-34.5-17.3zm48 24 13.8 45.8-34.5-17.3zm48 24 13.8 45.8-34.5-17.3z" fill="#e5e5e5"/><path d="m458 253-390-195-26 37v5l432 216v-5zm-412-156 24-33 16 53zm29.6-30.2 37.8 18.9-23.4 33.3zm18.4 54.2 24-33 16 53zm29.6-30.2 37.8 18.9-23.4 33.3zm18.4 54.2 24-33 16 53zm29.6-30.2 37.8 18.9-23.4 33.3zm18.4 54.2 24-33 16 53zm29.6-30.2 37.8 18.9-23.4 33.3zm18.4 54.2 24-33 16 53zm29.6-30.2 37.8 18.9-23.4 33.3zm18.4 54.2 24-33 16 53zm29.6-30.2 37.8 18.9-23.4 33.3zm18.4 54.2 24-33 16 53zm29.6-30.2 37.8 18.9-23.4 33.3zm18.4 54.2 24-33 16 53zm29.6-30.2 37.8 18.9-23.4 33.3zm18.4 54.2 24-33 16 53z" opacity=".11"/><path d="m238 193 4-2 20.7-28.5-.7-2.5zm-18.4-54.2 14.4 52.2 3.3-4.7-12.4-44.9zm66.4 78.2 4-2 20.7-28.5-.7-2.5zm-18.4-54.2 14.4 52.2 3.3-4.7-12.4-44.9zm48 24 14.4 52.2 3.3-4.7-12.4-44.9zm96 48 14.4 52.2 3.3-4.7-12.4-44.9zm-29.6 30.2 4-2 20.7-28.5-.7-2.5zm-48-24 4-2 20.7-28.5-.7-2.5zm29.6-30.2 14.4 52.2 3.3-4.7-12.4-44.9zm66.4 78.2 4-2 20.7-28.5-.7-2.5zm-354.4-222.2 14.4 52.2 3.3-4.7-12.4-44.9zm-29.6 30.2 4-2 20.8-28.4-.8-2.6zm416 154-4 2 16 58v5l4-2v-5zm-338.4-160.2 14.4 52.2 3.3-4.7-12.4-44.9zm48 24 14.4 52.2 3.3-4.7-12.4-44.9zm18.4 54.2 4-2 20.7-28.5-.7-2.5zm-96-48 4-2 20.7-28.5-.7-2.5z" opacity=".29"/><path d="m420 240.9-390-195-4 2-26 37v5l432 216 4-2v-5zm-12.6 2.7-20.1 28.6-12.4-44.9zm-48-24-20.1 28.6-12.4-44.9zm-48-24-20.1 28.6-12.4-44.9zm-48-24-20.1 28.6-12.4-44.9zm-48-24-20.1 28.6-12.4-44.9zm-48-24-20.1 28.6-12.4-44.9zm-48-24-20.1 28.6-12.4-44.9zm-48-24-20.1 28.6-12.4-44.9zm-42.6-19.1 13.8 45.6-34.6-17.2zm47.9 23.8 13.8 45.8-34.5-17.2zm48 24 13.8 45.8-34.5-17.2zm48 24 13.8 45.8-34.5-17.2zm48 24 13.8 45.8-34.5-17.2zm48 24 13.8 45.8-34.5-17.2zm48 24 13.8 45.8-34.5-17.2zm48 24 13.8 45.8-34.5-17.2zm48 24 13.8 45.8-34.5-17.2z" fill="#e5e5e5"/><path d="m416 242.9-390-195-26 37v5l432 216v-5zm-412-156 24-33 16 53zm29.6-30.2 37.8 18.9-23.4 33.3zm18.4 54.2 24-33 16 53zm29.6-30.2 37.8 18.9-23.4 33.3zm18.4 54.2 24-33 16 53zm29.6-30.2 37.8 18.9-23.4 33.3zm18.4 54.2 24-33 16 53zm29.6-30.2 37.8 18.9-23.4 33.3zm18.4 54.2 24-33 16 53zm29.6-30.2 37.8 18.9-23.4 33.3zm18.4 54.2 24-33 16 53zm29.6-30.2 37.8 18.9-23.4 33.3zm18.4 54.2 24-33 16 53zm29.6-30.2 37.8 18.9-23.4 33.3zm18.4 54.2 24-33 16 53zm29.6-30.2 37.8 18.9-23.4 33.3zm18.4 54.2 24-33 16 53z" opacity=".11"/><path d="m196 182.9 4-2 20.7-28.5-.7-2.5zm-18.4-54.2 14.4 52.2 3.3-4.7-12.4-44.9zm66.4 78.2 4-2 20.7-28.5-.7-2.5zm-18.4-54.2 14.4 52.2 3.3-4.7-12.4-44.9zm48 24 14.4 52.2 3.3-4.7-12.4-44.9zm96 48 14.4 52.2 3.3-4.7-12.4-44.9zm-29.6 30.2 4-2 20.7-28.5-.7-2.5zm-48-24 4-2 20.7-28.5-.7-2.5zm29.6-30.2 14.4 52.2 3.3-4.7-12.4-44.9zm66.4 78.2 4-2 20.7-28.5-.7-2.5zm-354.4-222.2 14.4 52.2 3.3-4.7-12.4-44.9zm-29.6 30.2 4-2 20.8-28.4-.8-2.6zm416 154-4 2 16 58v5l4-2v-5zm-338.4-160.2 14.4 52.2 3.3-4.7-12.4-44.9zm48 24 14.4 52.2 3.3-4.7-12.4-44.9zm18.4 54.2 4-2 20.7-28.5-.7-2.5zm-96-48 4-2 20.7-28.5-.7-2.5z" opacity=".29"/><path d="m496 362-40-20v-22l60-31 40 20v22z" fill="#e5e5e5"/><path d="m556 309v22l-60 31v-22z" fill="#e5e5e5"/><path d="m496 343-40-20v13l40 20 60-31v-13z" fill="#cc291f"/><path d="m456 320v22l40 20v-22z" opacity=".11"/><path d="m556 309v22l-60 31v-22z" opacity=".29"/><path d="m552 311-40-20v-42l4-2 40 20v42z" fill="#e5e5e5"/><path d="m512 249v42l40 20v-42z" opacity=".11"/><path d="m556 267v42l-4 2v-42z" opacity=".29"/><path d="m537 319-4-2v-42l15-8 4 2v42z" fill="#e5e5e5"/><path d="m533 275v42l4 2v-42z" opacity=".11"/><path d="m552 269v42l-15 8v-42z" opacity=".29"/><path d="m500.5 301.8c1.7-.8 3.2-.9 4.3-.4l23.9 10.3c1.2.5 1.9 1.8 1.9 3.5 0 3.4-2.8 7.6-6.2 9.3-1.7.8-3.2.9-4.4.4 0 0-23.8-10.3-24.1-10.5-1-.6-1.6-1.8-1.6-3.4 0-3.3 2.8-7.5 6.2-9.2z" fill="#cc291f"/><path d="m500.5 301.8c1.7-.8 3.2-.9 4.3-.4l23.9 10.3c1.2.5 1.9 1.8 1.9 3.5 0 3.4-2.8 7.6-6.2 9.3-1.7.8-3.2.9-4.4.4 0 0-23.8-10.3-24.1-10.5-1-.6-1.6-1.8-1.6-3.4 0-3.3 2.8-7.5 6.2-9.2z" opacity=".11"/><path d="m525.4 311.6c1.9-1 3.6-1.1 4.9-.5l6.5 3.2c1.4.6 2.2 2 2.2 4.1 0 4-3.2 8.8-7.2 10.8-2 1-3.7 1.1-5 .5 0 0-6.5-3.2-6.7-3.3-1.2-.7-1.9-2-1.9-3.9 0-4.1 3.2-8.9 7.2-10.9z" fill="#2d3134"/><path d="m526.4 324.6c0 3 2.4 4.2 5.4 2.7s5.4-5.1 5.4-8.1-2.4-4.2-5.4-2.7c-2.9 1.5-5.4 5.1-5.4 8.1z" fill="#999"/><path d="m531.4 327.1c3-1.5 5.4-5.1 5.4-8.1 0-1.5-.6-2.5-1.5-3 1.2.4 2 1.5 2 3.2 0 3-2.4 6.6-5.4 8.1-1.5.8-2.9.8-3.9.3.9.3 2.1.1 3.4-.5z" opacity=".5"/><path d="m529.1 322.8c0 1.2 1 1.7 2.2 1.1s2.2-2.1 2.2-3.4-1-1.7-2.2-1.1c-1.2.7-2.2 2.2-2.2 3.4z" fill="#2d3134"/><path d="m529.1 322.8c0 1.2 1 1.7 2.2 1.1s2.2-2.1 2.2-3.4-1-1.7-2.2-1.1c-1.2.7-2.2 2.2-2.2 3.4z" opacity=".29"/><path d="m529.6 323.1c0 1.2 1 1.7 2.2 1.1s2.2-2.1 2.2-3.4-1-1.7-2.2-1.1-2.2 2.1-2.2 3.4z" fill="#2d3134"/><path d="m500 338-4-2v-42l15-8 4 2v42z" fill="#e5e5e5"/><path d="m496 294v42l4 2v-42z" opacity=".11"/><path d="m515 288v42l-15 8v-42z" opacity=".29"/><path d="m496 340-40-20v-42l4-2 40 20v42z" fill="#e5e5e5"/><path d="m456 278v42l40 20v-42z" opacity=".11"/><path d="m500 296v42l-4 2v-42z" opacity=".29"/></svg>