<svg enable-background="new 0 0 640 560" viewBox="0 0 640 560" xmlns="http://www.w3.org/2000/svg"><path d="m40 148-40-20v-22l60-31 40 20v22z" fill="#e5e5e5"/><path d="m100 95v22l-60 31v-22z" fill="#e5e5e5"/><path d="m40 129-40-20v13l40 20z" fill="#cc291f"/><path d="m0 106v22l40 20v-22z" opacity=".11"/><path d="m100 95v22l-60 31v-22z" opacity=".29"/><path d="m96 97-40-20v-42l4-2 40 20v42z" fill="#e5e5e5"/><path d="m56 35v42l40 20v-42z" opacity=".11"/><path d="m100 53v42l-4 2v-42z" opacity=".29"/><path d="m45 87.1-4-2v-42l15-8 4 2v42z" fill="#e5e5e5"/><path d="m41 43.1v42l4 2v-42z" opacity=".11"/><path d="m60 37.1v42l-15 8v-42z" opacity=".29"/><path d="m27.6 74.9c1.9-1 3.6-1.1 4.9-.5l6.5 3.2c1.4.6 2.2 2 2.2 4.1 0 4-3.2 8.8-7.2 10.8-2 1-3.7 1.1-5 .5 0 0-6.5-3.2-6.7-3.3-1.2-.7-1.9-2-1.9-3.9 0-4.1 3.2-8.9 7.2-10.9z" fill="#2d3134"/><path d="m35.9 80.2c1.7-.8 3.2-.9 4.3-.4l23.9 10.3c1.2.5 1.9 1.8 1.9 3.5 0 3.4-2.8 7.6-6.2 9.3-1.7.8-3.2.9-4.4.4 0 0-23.8-10.3-24.1-10.5-1-.6-1.6-1.8-1.6-3.4 0-3.3 2.8-7.5 6.2-9.2z" fill="#cc291f"/><path d="m35.9 80.2c1.7-.8 3.2-.9 4.3-.4l23.9 10.3c1.2.5 1.9 1.8 1.9 3.5 0 3.4-2.8 7.6-6.2 9.3-1.7.8-3.2.9-4.4.4 0 0-23.8-10.3-24.1-10.5-1-.6-1.6-1.8-1.6-3.4 0-3.3 2.8-7.5 6.2-9.2z" opacity=".11"/><path d="m8 106.1-4-2v-42l15-8 4 2v42z" fill="#e5e5e5"/><path d="m4 62.1v42l4 2v-42z" opacity=".11"/><path d="m23 56.1v42l-15 8v-42z" opacity=".29"/><path d="m40 126-40-20v-42l4-2 40 20v42z" fill="#e5e5e5"/><path d="m0 64v42l40 20v-42z" opacity=".11"/><path d="m44 82v42l-4 2v-42z" opacity=".29"/><path d="m1 301.9 140-70 403 203.1-140 70z" opacity=".3"/><path d="m71 273.5v37.5l25-12.5v-37.5z" fill="#2d3134"/><path d="m96 280.3c-7.5-3.7-14.2-4.2-19.2-1.9l-14 7c-5.4 2.4-8.8 7.9-8.8 15.9 0 15.5 12.5 34.3 28 42 7.6 3.8 14.6 4.2 19.6 1.8 0 0 13.9-6.9 15.1-7.6 4.5-2.7 7.3-7.9 7.3-15.2 0-15.5-12.5-34.3-28-42z" fill="#2d3134"/><path d="m101.9 344.9c2-1 13.7-6.8 14.8-7.5 4.5-2.7 7.3-7.9 7.3-15.2 0-6.2-2.1-13-5.5-19.3l-14 7c3.4 6.4 5.5 13.1 5.5 19.3 0 7.7-3.1 13.1-8.1 15.7z" opacity=".29"/><path d="m103 325.6c0 11.6-9.4 16.3-21 10.5s-21-19.9-21-31.5 9.4-16.3 21-10.5 21 19.9 21 31.5z" fill="#a9abb0"/><path d="m83.8 335.4c-11.6-5.8-21-19.9-21-31.5 0-5.7 2.3-9.7 6-11.7-4.8 1.5-7.8 5.8-7.8 12.4 0 11.6 9.4 25.7 21 31.5 5.9 2.9 11.2 3.2 15 1.2-3.6 1.1-8.2.6-13.2-1.9z" fill="#808285"/><path d="m92.5 318.8c0 4.8-3.9 6.8-8.8 4.4s-8.7-8.4-8.7-13.2 3.9-6.8 8.8-4.4 8.7 8.3 8.7 13.2z" fill="#2d3134"/><path d="m92.5 318.8c0 4.8-3.9 6.8-8.8 4.4s-8.7-8.4-8.7-13.2 3.9-6.8 8.8-4.4 8.7 8.3 8.7 13.2z" opacity=".29"/><path d="m90.8 319.6c0 4.8-3.9 6.8-8.8 4.4-4.8-2.4-8.8-8.3-8.8-13.1s3.9-6.8 8.8-4.4c4.8 2.4 8.8 8.2 8.8 13.1z" fill="#2d3134"/><path d="m110 329.3c0 15.5-12.5 21.7-28 14s-28-26.5-28-42 12.5-21.7 28-14 28 26.5 28 42z" opacity=".11"/><path d="m140 189-140 70v20l12 6 140-70v-20z" fill="#e5e5e5"/><path d="m152 215v-20l-140 70v20z" opacity=".29"/><path d="m0 279 12 6v-20l-12-6z" opacity=".11"/><path d="m320 165-148-74-140 70-20 42v78l41.4 20.7c0-.2 0-.4 0-.6 0-17 13.8-23.9 30.8-15.4s30.8 29.2 30.8 46.2v.5l65 32.5 140-70v-80z" fill="#cc291f"/><path d="m55 233v5l10 5v-5z" fill="#2d3134" opacity=".5"/><path d="m65 245.5-10-5v-2.5l10 5z" fill="#fff" opacity=".5"/><path d="m320 165-140 70v50 80l140-70v-80z" fill="#999"/><path d="m320 165-140 70v50 80l140-70v-80z" opacity=".29"/><path d="m117 213.7v38.6c0 1.7-1.7 2.7-3.2 2l-21.4-10.7c-2.1-1-3.4-3.1-3.4-5.5v-38.6c0-1.7 1.7-2.7 3.2-2l21.4 10.7c2.1 1.1 3.4 3.2 3.4 5.5z" fill="#656565"/><path d="m173 241.7v38.6c0 1.7-1.7 2.7-3.2 2l-37.4-18.7c-2.1-1-3.4-3.1-3.4-5.5v-38.6c0-1.7 1.7-2.7 3.2-2l37.4 18.7c2.1 1.1 3.4 3.2 3.4 5.5z" fill="#656565"/><path d="m96.4 242c-2.1-1-3.4-3.1-3.4-5.5v-38.5l-.8-.4c-1.5-.7-3.2.3-3.2 2v38.6c0 2.3 1.3 4.4 3.4 5.5l21.4 10.7c1.5.7 3.2-.3 3.2-2z" opacity=".2"/><path d="m136.4 262c-2.1-1-3.4-3.1-3.4-5.5v-38.5l-.8-.4c-1.5-.7-3.2.3-3.2 2v38.6c0 2.3 1.3 4.4 3.4 5.5l37.4 18.7c1.5.7 3.2-.3 3.2-2z" opacity=".2"/><path d="m61.3 228.1-43.1-22c-1.2-.6-1.7-2.1-1.2-3.3l14.9-32.4c.6-1.3 2.2-1.9 3.5-1.2l26.4 13.2c2 1 3.2 3 3.2 5.2v38.3c0 1.8-2 3.1-3.7 2.2z" fill="#656565"/><path d="m22.2 205.2c-1.2-.6-1.7-2.1-1.2-3.3l14.9-32.4-.6-.3c-1.3-.6-2.9-.1-3.5 1.2l-14.8 32.4c-.6 1.2-.1 2.7 1.2 3.3l43.1 22c1.3.7 2.9 0 3.4-1.2z" opacity=".2"/><path d="m180 323-168-84v14l58.2 29.1c4.2 0 8.9 1.1 14 3.6 5 2.5 9.8 6.1 14 10.3l81.8 41z" fill="#fff"/><path d="m180 345v-60-50l-148-74-20 42v78l41.4 20.7c0-.2 0-.4 0-.6 0-17 13.8-23.9 30.8-15.4s30.8 29.2 30.8 46.2v.5l65 32.5z" opacity=".11"/><path d="m72 282h-2v-102l2 1z" opacity=".3"/><path d="m124 337-2-1v-130l2 1z" opacity=".3"/><path d="m320 289-140 70v6l58 29 140-70v-6z" fill="#999"/><path d="m180 359v6l58 29v-6z" opacity=".11"/><path d="m378 318v6l-140 70v-6z" opacity=".29"/><path d="m308 171-116 58v124l58 29 116-58v-124z" fill="#cc291f"/><path d="m192 229v124l58 29v-124z" fill="#2d3134"/><path d="m196 239v25l50 25v-25z" fill="#fff" opacity=".3"/><path d="m199 256v7l44 22v-7z" opacity=".4"/><path d="m366 200v124l-116 58v-124z" opacity=".29"/><path d="m243 270.5c0 2.2-1.8 3.1-4 2s-4-3.8-4-6 1.8-3.1 4-2 4 3.7 4 6z" opacity=".4"/><path d="m231 264.5c0 2.2-1.8 3.1-4 2s-4-3.8-4-6 1.8-3.1 4-2 4 3.7 4 6z" opacity=".4"/><path d="m219 258.5c0 2.2-1.8 3.1-4 2s-4-3.8-4-6 1.8-3.1 4-2 4 3.8 4 6z" opacity=".4"/><path d="m207 251.5c0 2.2-1.8 3.1-4 2s-4-3.8-4-6 1.8-3.1 4-2 4 3.8 4 6z" opacity=".4"/><path d="m196 277v14l50 25v-14z" fill="#fff" opacity=".3"/><path d="m243 307.9c0 2.2-1.8 3.1-4 2s-4-3.8-4-6 1.8-3.1 4-2 4 3.8 4 6z" opacity=".4"/><g fill="#fff"><path d="m246 337.6c0 6.5-5.3 9.2-11.8 5.9s-11.8-11.2-11.8-17.8 5.3-9.2 11.8-5.9 11.8 11.3 11.8 17.8z" opacity=".3"/><path d="m206 310.1c0 2.8-2.2 3.9-5 2.5s-5-4.7-5-7.5 2.2-3.9 5-2.5 5 4.7 5 7.5z" opacity=".3"/><path d="m219 317.6c0 2.8-2.2 3.9-5 2.5s-5-4.7-5-7.5 2.2-3.9 5-2.5 5 4.7 5 7.5z" opacity=".3"/></g><path d="m231 301.9c0 2.2-1.8 3.1-4 2s-4-3.8-4-6 1.8-3.1 4-2 4 3.8 4 6z" opacity=".4"/><path d="m219 295.9c0 2.2-1.8 3.1-4 2s-4-3.8-4-6 1.8-3.1 4-2 4 3.8 4 6z" opacity=".4"/><path d="m207 288.9c0 2.2-1.8 3.1-4 2s-4-3.8-4-6 1.8-3.1 4-2 4 3.8 4 6z" opacity=".4"/><path d="m196 334v14l50 25v-14z" fill="#fff" opacity=".3"/><path d="m243 364.9c0 2.2-1.8 3.1-4 2s-4-3.8-4-6 1.8-3.1 4-2 4 3.8 4 6z" opacity=".4"/><path d="m231 358.9c0 2.2-1.8 3.1-4 2s-4-3.8-4-6 1.8-3.1 4-2 4 3.8 4 6z" opacity=".4"/><path d="m219 352.9c0 2.2-1.8 3.1-4 2s-4-3.8-4-6 1.8-3.1 4-2 4 3.8 4 6z" opacity=".4"/><path d="m207 345.9c0 2.2-1.8 3.1-4 2s-4-3.8-4-6 1.8-3.1 4-2 4 3.8 4 6z" opacity=".4"/><path d="m192 229v124l58 29v-124z" opacity=".11"/><path d="m403.1 317v20l-140 70v-20z" fill="#2d3134"/><path d="m305.6 384.7c-7.5-3.7-14.2-4.2-19.2-1.9l-14 7c-5.4 2.4-8.8 7.9-8.8 15.9 0 15.5 12.5 34.3 28 42 7.6 3.8 14.6 4.2 19.6 1.8 0 0 13.9-6.9 15.1-7.6 4.5-2.7 7.3-7.9 7.3-15.2 0-15.5-12.5-34.3-28-42z" fill="#2d3134"/><path d="m311.5 449.3c2-1 13.7-6.8 14.8-7.5 4.5-2.7 7.3-7.9 7.3-15.2 0-6.2-2.1-13-5.5-19.3l-14 7c3.4 6.4 5.5 13.1 5.5 19.3 0 7.7-3.1 13.1-8.1 15.7z" opacity=".29"/><path d="m312.6 430c0 11.6-9.4 16.3-21 10.5s-21-19.9-21-31.5 9.4-16.3 21-10.5 21 19.9 21 31.5z" fill="#a9abb0"/><path d="m293.4 439.7c-11.6-5.8-21-19.9-21-31.5 0-5.7 2.3-9.7 6-11.7-4.7 1.5-7.7 5.8-7.7 12.4 0 11.6 9.4 25.7 21 31.5 5.9 2.9 11.2 3.2 15 1.2-3.7 1.2-8.3.7-13.3-1.9z" fill="#808285"/><path d="m302.1 423.1c0 4.8-3.9 6.8-8.8 4.4s-8.8-8.3-8.8-13.1 3.9-6.8 8.8-4.4 8.8 8.3 8.8 13.1z" fill="#2d3134"/><path d="m302.1 423.1c0 4.8-3.9 6.8-8.8 4.4s-8.8-8.3-8.8-13.1 3.9-6.8 8.8-4.4 8.8 8.3 8.8 13.1z" opacity=".29"/><path d="m300.4 424c0 4.8-3.9 6.8-8.8 4.4-4.8-2.4-8.8-8.3-8.8-13.1s3.9-6.8 8.8-4.4c4.8 2.4 8.8 8.2 8.8 13.1z" fill="#2d3134"/><path d="m319.6 433.7c0 15.5-12.5 21.7-28 14s-28-26.5-28-42 12.5-21.7 28-14 28 26.5 28 42z" opacity=".11"/><path d="m378 193-140 70v21 110l25 12.5c0-.4 0-.9 0-1.3 0-17 13.8-23.9 30.8-15.4s30.8 29.2 30.8 46.2v1.3l7.4 3.8 140-70v-113.1l-10-22.1z" fill="#cc291f"/><path d="m472 258v113l-140 70v-113z" opacity=".29"/><path d="m238 291v2l94 47v-2z" opacity=".3"/><path d="m238 350v2l94 47v-2z" opacity=".3"/><path d="m277 357.5v5l10 5v-5z" fill="#2d3134" opacity=".5"/><path d="m287 370-10-5v-2.5l10 5z" fill="#fff" opacity=".5"/><path d="m332 399-94-47v14l40.4 20.2c4.5-.4 9.8.8 15.4 3.6s10.9 7 15.4 11.9l22.8 11.3z" fill="#fff"/><path d="m238 263v21 110l25 12.5c0-.4 0-.9 0-1.3 0-17 13.8-23.9 30.8-15.4s30.8 29.2 30.8 46.2v1.3l7.4 3.8v-113.1l-10-22.1z" opacity=".11"/><path d="m90 167 88-45-22-11-89 44z" fill="#2d3134"/><path d="m98 131-25.5 12.8c-2.7 1.4-4.5 4.2-4.5 7.2 0 3.1 1.7 5.9 4.5 7.2l11.9 6c2.3 1.1 5 1.1 7.2 0l26.4-13.2v-10z" fill="#36c"/><path d="m173.5 108.7-11.9-6c-2.3-1.1-5.3-.9-7.6.2l-26.5 13.2 20 10v10l26.1-13c2.7-1.4 4.5-4.2 4.5-7.2-.1-3-1.8-5.8-4.6-7.2z" fill="#36c"/><path d="m127.5 116.2-29.5 14.8 20 10v10l29.5-14.8v-10z" fill="#e5e5e5"/><path d="m118 141v10l29.5-14.8v-10z" opacity=".29"/><path d="m147.5 126.2v10l26.1-13c2.7-1.4 4.5-4.2 4.5-7.2 0-1.6-.5-3.1-1.3-4.4z" opacity=".29"/><path d="m88 156v9c1.2 0 2.5-.3 3.6-.9l26.4-13.1v-10z" opacity=".29"/><path d="m69.3 146.6c-.8 1.3-1.3 2.8-1.3 4.4 0 3.1 1.7 5.9 4.5 7.2l11.9 6c1.1.6 2.4.9 3.6.9v-9z" opacity=".11"/><path d="m70 147 18 9 30-15-30 13z" fill="#fff" opacity=".8"/><path d="m147.5 126.2 27.5-14.2 1-1-17-9 15 9z" fill="#fff" opacity=".8"/><path d="m474 262-140 70v110l82 41 140-70v-110z" fill="#cc291f"/><path d="m334 339v2l82 41v-2z" opacity=".3"/><path d="m334 433v2l82 41v-2z" opacity=".3"/><path d="m556 393v20l-140 70v-20z" fill="#999"/><path d="m391 448.5v5l10 5v-5z" fill="#2d3134" opacity=".5"/><path d="m401 461-10-5v-2.5l10 5z" fill="#fff" opacity=".5"/><path d="m495 402.5v5l-10 5v-5z" fill="#2d3134" opacity=".5"/><path d="m485 415 10-5v-2.5l-10 5z" fill="#fff" opacity=".5"/><path d="m350 427.5v5l10 5v-5z" fill="#2d3134" opacity=".5"/><path d="m360 440-10-5v-2.5l10 5z" fill="#fff" opacity=".5"/><path d="m418 467v10l26-13v-10z" fill="#e5e5e5"/><path d="m442 457v6l-10 5v-6z" fill="#be1e2d"/><path d="m430 463v6l-10 5v-6z" fill="#36c"/><path d="m418 417v38l14-7v-38z" fill="#999"/><path d="m430 432v6l-10 5v-6z" fill="#fff"/><path d="m430 423v6l-10 5v-6z" fill="#fc0"/><path d="m430 414v6l-10 5v-6z" fill="#f90"/><path d="m430 441v6l-10 5v-6z" fill="#ef4136"/><path d="m418 393v10l14-7v-10z" fill="#999"/><path d="m430 389v6l-10 5v-6z" fill="#fff"/><path d="m418 380v10l14-7v-10z" fill="#999"/><path d="m430 376v6l-10 5v-6z" fill="#ef4136"/><path d="m540 331v10l14-7v-10z" fill="#999"/><path d="m552 327v6l-10 5v-6z" fill="#fff"/><path d="m540 318v10l14-7v-10z" fill="#999"/><path d="m552 314v6l-10 5v-6z" fill="#ef4136"/><path d="m540 356v38l14-7v-38z" fill="#999"/><path d="m552 371v6l-10 5v-6z" fill="#fff"/><path d="m552 362v6l-10 5v-6z" fill="#fc0"/><path d="m552 353v6l-10 5v-6z" fill="#f90"/><path d="m552 380v6l-10 5v-6z" fill="#ef4136"/><path d="m528 412v10l26-13v-10z" fill="#e5e5e5"/><path d="m552 402v6l-10 5v-6z" fill="#36c"/><path d="m540 408v6l-10 5v-6z" fill="#be1e2d"/><path d="m446 442.8c-.2 0-.4 0-.5-.1-.3-.2-.5-.5-.5-.9v-62.8c0-.4.2-.7.6-.9l80-40c.3-.2.7-.1 1 0 .3.2.5.5.5.9v62.9c0 .4-.2.7-.6.9l-80 40c-.2 0-.3 0-.5 0zm1-63.2v60.6l78-39v-60.6z" opacity=".3"/><path d="m556 303v110l-140 70v-110z" opacity=".29"/><path d="m334 414 82 41v-14l-82-41z" fill="#fff"/><path d="m334 332v110l82 41v-110z" opacity=".11"/><path d="m376 454-2-1v-92l2 1z" opacity=".3"/><path d="m441 291.8c-23.2 0-42 9.4-42 21v4.2c0 11.6 18.8 21 42 21s42-9.4 42-21v-4.2c0-11.6-18.8-21-42-21z" fill="#2d3134"/><path d="m441 333.8c-23.2 0-42-9.4-42-21v4.2c0 11.6 18.8 21 42 21s42-9.4 42-21v-4.2c0 11.6-18.8 21-42 21z" opacity=".2"/><path d="m441 276.9c-20.4 0-37 8.3-37 18.5v13c0 10.2 16.6 18.5 37 18.5s37-8.3 37-18.5v-13c0-10.2-16.6-18.5-37-18.5z" fill="#2d3134"/><path d="m441 313.9c-20.4 0-37-8.3-37-18.5v13c0 10.2 16.6 18.5 37 18.5s37-8.3 37-18.5v-13c0 10.2-16.6 18.5-37 18.5z" opacity=".2"/><path d="m66 144 62-31 403 203-62 31z" opacity=".2"/><path d="m539 270-390-195-4 2-26 37v5l432 216 4-2v-5zm-12.6 2.7-20.1 28.6-12.4-44.9zm-48-24-20.1 28.6-12.4-44.9zm-48-24-20.1 28.6-12.4-44.9zm-48-24-20.1 28.6-12.4-44.9zm-48-24-20.1 28.6-12.4-44.9zm-48-24-20.1 28.6-12.4-44.9zm-48-24-20.1 28.6-12.4-44.9zm-48-24-20.1 28.6-12.4-44.9zm-42.6-19.1 13.8 45.6-34.6-17.2zm47.9 23.9 13.8 45.8-34.5-17.3zm48 24 13.8 45.8-34.5-17.3zm48 24 13.8 45.8-34.5-17.3zm48 24 13.8 45.8-34.5-17.3zm48 24 13.8 45.8-34.5-17.3zm48 24 13.8 45.8-34.5-17.3zm48 24 13.8 45.8-34.5-17.3zm48 24 13.8 45.8-34.5-17.3z" fill="#e5e5e5"/><path d="m535 272-390-195-26 37v5l432 216v-5zm-412-156 24-33 16 53zm29.6-30.2 37.8 18.9-23.4 33.3zm18.4 54.2 24-33 16 53zm29.6-30.2 37.8 18.9-23.4 33.3zm18.4 54.2 24-33 16 53zm29.6-30.2 37.8 18.9-23.4 33.3zm18.4 54.2 24-33 16 53zm29.6-30.2 37.8 18.9-23.4 33.3zm18.4 54.2 24-33 16 53zm29.6-30.2 37.8 18.9-23.4 33.3zm18.4 54.2 24-33 16 53zm29.6-30.2 37.8 18.9-23.4 33.3zm18.4 54.2 24-33 16 53zm29.6-30.2 37.8 18.9-23.4 33.3zm18.4 54.2 24-33 16 53zm29.6-30.2 37.8 18.9-23.4 33.3zm18.4 54.2 24-33 16 53z" opacity=".11"/><path d="m315 212 4-2 20.7-28.5-.7-2.5zm-18.4-54.2 14.4 52.2 3.3-4.7-12.4-44.9zm66.4 78.2 4-2 20.7-28.5-.7-2.5zm-18.4-54.2 14.4 52.2 3.3-4.7-12.4-44.9zm48 24 14.4 52.2 3.3-4.7-12.4-44.9zm96 48 14.4 52.2 3.3-4.7-12.4-44.9zm-29.6 30.2 4-2 20.7-28.5-.7-2.5zm-48-24 4-2 20.7-28.5-.7-2.5zm29.6-30.2 14.4 52.2 3.3-4.7-12.4-44.9zm66.4 78.2 4-2 20.7-28.5-.7-2.5zm-354.4-222.2 14.4 52.2 3.3-4.7-12.4-44.9zm-29.6 30.2 4-2 20.8-28.4-.8-2.6zm416 154-4 2 16 58v5l4-2v-5zm-338.4-160.2 14.4 52.2 3.3-4.7-12.4-44.9zm48 24 14.4 52.2 3.3-4.7-12.4-44.9zm18.4 54.2 4-2 20.7-28.5-.7-2.5zm-96-48 4-2 20.7-28.5-.7-2.5z" opacity=".29"/><path d="m499 262-390-195-4 2-26 37v5l432 216 4-2v-5zm-12.6 2.7-20.1 28.6-12.4-44.9zm-48-24-20.1 28.6-12.4-44.9zm-48-24-20.1 28.6-12.4-44.9zm-48-24-20.1 28.6-12.4-44.9zm-48-24-20.1 28.6-12.4-44.9zm-48-24-20.1 28.6-12.4-44.9zm-48-24-20.1 28.6-12.4-44.9zm-48-24-20.1 28.6-12.4-44.9zm-42.6-19.1 13.8 45.6-34.6-17.2zm47.9 23.9 13.8 45.8-34.5-17.3zm48 24 13.8 45.8-34.5-17.3zm48 24 13.8 45.8-34.5-17.3zm48 24 13.8 45.8-34.5-17.3zm48 24 13.8 45.8-34.5-17.3zm48 24 13.8 45.8-34.5-17.3zm48 24 13.8 45.8-34.5-17.3zm48 24 13.8 45.8-34.5-17.3z" fill="#e5e5e5"/><path d="m495 264-390-195-26 37v5l432 216v-5zm-412-156 24-33 16 53zm29.6-30.2 37.8 18.9-23.4 33.3zm18.4 54.2 24-33 16 53zm29.6-30.2 37.8 18.9-23.4 33.3zm18.4 54.2 24-33 16 53zm29.6-30.2 37.8 18.9-23.4 33.3zm18.4 54.2 24-33 16 53zm29.6-30.2 37.8 18.9-23.4 33.3zm18.4 54.2 24-33 16 53zm29.6-30.2 37.8 18.9-23.4 33.3zm18.4 54.2 24-33 16 53zm29.6-30.2 37.8 18.9-23.4 33.3zm18.4 54.2 24-33 16 53zm29.6-30.2 37.8 18.9-23.4 33.3zm18.4 54.2 24-33 16 53zm29.6-30.2 37.8 18.9-23.4 33.3zm18.4 54.2 24-33 16 53z" opacity=".11"/><path d="m275 204 4-2 20.7-28.5-.7-2.5zm-18.4-54.2 14.4 52.2 3.3-4.7-12.4-44.9zm66.4 78.2 4-2 20.7-28.5-.7-2.5zm-18.4-54.2 14.4 52.2 3.3-4.7-12.4-44.9zm48 24 14.4 52.2 3.3-4.7-12.4-44.9zm96 48 14.4 52.2 3.3-4.7-12.4-44.9zm-29.6 30.2 4-2 20.7-28.5-.7-2.5zm-48-24 4-2 20.7-28.5-.7-2.5zm29.6-30.2 14.4 52.2 3.3-4.7-12.4-44.9zm66.4 78.2 4-2 20.7-28.5-.7-2.5zm-354.4-222.2 14.4 52.2 3.3-4.7-12.4-44.9zm-29.6 30.2 4-2 20.8-28.4-.8-2.6zm416 154-4 2 16 58v5l4-2v-5zm-338.4-160.2 14.4 52.2 3.3-4.7-12.4-44.9zm48 24 14.4 52.2 3.3-4.7-12.4-44.9zm18.4 54.2 4-2 20.7-28.5-.7-2.5zm-96-48 4-2 20.7-28.5-.7-2.5z" opacity=".29"/><path d="m476 309.5c-.6 0-1.2-.1-1.8-.4l-415-207.5c-2-1-2.8-3.4-1.8-5.4s3.4-2.8 5.4-1.8l415 207.5c2 1 2.8 3.4 1.8 5.4-.7 1.4-2.1 2.2-3.6 2.2z" fill="#2d3134"/><path d="m511 355 40-20v-5l-4-2-40 20v5z" fill="#e5e5e5"/><path d="m551 330v5l-40 20v-5z" opacity=".29"/><path d="m477 273-390-195-4 2-26 37v5l432 216 4-2v-5zm-12.6 2.7-20.1 28.6-12.4-44.9zm-48-24-20.1 28.6-12.4-44.9zm-48-24-20.1 28.6-12.4-44.9zm-48-24-20.1 28.6-12.4-44.9zm-48-24-20.1 28.6-12.4-44.9zm-48-24-20.1 28.6-12.4-44.9zm-48-24-20.1 28.6-12.4-44.9zm-48-24-20.1 28.6-12.4-44.9zm-42.6-19.1 13.8 45.6-34.6-17.2zm47.9 23.9 13.8 45.8-34.5-17.3zm48 24 13.8 45.8-34.5-17.3zm48 24 13.8 45.8-34.5-17.3zm48 24 13.8 45.8-34.5-17.3zm48 24 13.8 45.8-34.5-17.3zm48 24 13.8 45.8-34.5-17.3zm48 24 13.8 45.8-34.5-17.3zm48 24 13.8 45.8-34.5-17.3z" fill="#e5e5e5"/><path d="m473 275-390-195-26 37v5l432 216v-5zm-412-156 24-33 16 53zm29.6-30.2 37.8 18.9-23.4 33.3zm18.4 54.2 24-33 16 53zm29.6-30.2 37.8 18.9-23.4 33.3zm18.4 54.2 24-33 16 53zm29.6-30.2 37.8 18.9-23.4 33.3zm18.4 54.2 24-33 16 53zm29.6-30.2 37.8 18.9-23.4 33.3zm18.4 54.2 24-33 16 53zm29.6-30.2 37.8 18.9-23.4 33.3zm18.4 54.2 24-33 16 53zm29.6-30.2 37.8 18.9-23.4 33.3zm18.4 54.2 24-33 16 53zm29.6-30.2 37.8 18.9-23.4 33.3zm18.4 54.2 24-33 16 53zm29.6-30.2 37.8 18.9-23.4 33.3zm18.4 54.2 24-33 16 53z" opacity=".11"/><path d="m253 215 4-2 20.7-28.5-.7-2.5zm-18.4-54.2 14.4 52.2 3.3-4.7-12.4-44.9zm66.4 78.2 4-2 20.7-28.5-.7-2.5zm-18.4-54.2 14.4 52.2 3.3-4.7-12.4-44.9zm48 24 14.4 52.2 3.3-4.7-12.4-44.9zm96 48 14.4 52.2 3.3-4.7-12.4-44.9zm-29.6 30.2 4-2 20.7-28.5-.7-2.5zm-48-24 4-2 20.7-28.5-.7-2.5zm29.6-30.2 14.4 52.2 3.3-4.7-12.4-44.9zm66.4 78.2 4-2 20.7-28.5-.7-2.5zm-354.4-222.2 14.4 52.2 3.3-4.7-12.4-44.9zm-29.6 30.2 4-2 20.8-28.4-.8-2.6zm416 154-4 2 16 58v5l4-2v-5zm-338.4-160.2 14.4 52.2 3.3-4.7-12.4-44.9zm48 24 14.4 52.2 3.3-4.7-12.4-44.9zm18.4 54.2 4-2 20.7-28.5-.7-2.5zm-96-48 4-2 20.7-28.5-.7-2.5z" opacity=".29"/><path d="m495 292-390-195-4 2-26 37v5l432 216 4-2v-5zm-12.6 2.7-20.1 28.6-12.4-44.9zm-48-24-20.1 28.6-12.4-44.9zm-48-24-20.1 28.6-12.4-44.9zm-48-24-20.1 28.6-12.4-44.9zm-48-24-20.1 28.6-12.4-44.9zm-48-24-20.1 28.6-12.4-44.9zm-48-24-20.1 28.6-12.4-44.9zm-48-24-20.1 28.6-12.4-44.9zm-42.6-19.1 13.8 45.6-34.6-17.2zm47.9 23.9 13.8 45.8-34.5-17.3zm48 24 13.8 45.8-34.5-17.3zm48 24 13.8 45.8-34.5-17.3zm48 24 13.8 45.8-34.5-17.3zm48 24 13.8 45.8-34.5-17.3zm48 24 13.8 45.8-34.5-17.3zm48 24 13.8 45.8-34.5-17.3zm48 24 13.8 45.8-34.5-17.3z" fill="#e5e5e5"/><path d="m491 294-390-195-26 37v5l432 216v-5zm-412-156 24-33 16 53zm29.6-30.2 37.8 18.9-23.4 33.3zm18.4 54.2 24-33 16 53zm29.6-30.2 37.8 18.9-23.4 33.3zm18.4 54.2 24-33 16 53zm29.6-30.2 37.8 18.9-23.4 33.3zm18.4 54.2 24-33 16 53zm29.6-30.2 37.8 18.9-23.4 33.3zm18.4 54.2 24-33 16 53zm29.6-30.2 37.8 18.9-23.4 33.3zm18.4 54.2 24-33 16 53zm29.6-30.2 37.8 18.9-23.4 33.3zm18.4 54.2 24-33 16 53zm29.6-30.2 37.8 18.9-23.4 33.3zm18.4 54.2 24-33 16 53zm29.6-30.2 37.8 18.9-23.4 33.3zm18.4 54.2 24-33 16 53z" opacity=".11"/><path d="m271 234 4-2 20.7-28.5-.7-2.5zm-18.4-54.2 14.4 52.2 3.3-4.7-12.4-44.9zm66.4 78.2 4-2 20.7-28.5-.7-2.5zm-18.4-54.2 14.4 52.2 3.3-4.7-12.4-44.9zm48 24 14.4 52.2 3.3-4.7-12.4-44.9zm96 48 14.4 52.2 3.3-4.7-12.4-44.9zm-29.6 30.2 4-2 20.7-28.5-.7-2.5zm-48-24 4-2 20.7-28.5-.7-2.5zm29.6-30.2 14.4 52.2 3.3-4.7-12.4-44.9zm66.4 78.2 4-2 20.7-28.5-.7-2.5zm-354.4-222.2 14.4 52.2 3.3-4.7-12.4-44.9zm-29.6 30.2 4-2 20.8-28.4-.8-2.6zm416 154-4 2 16 58v5l4-2v-5zm-338.4-160.2 14.4 52.2 3.3-4.7-12.4-44.9zm48 24 14.4 52.2 3.3-4.7-12.4-44.9zm18.4 54.2 4-2 20.7-28.5-.7-2.5zm-96-48 4-2 20.7-28.5-.7-2.5z" opacity=".29"/></svg>