<svg enable-background="new 0 0 256 144" viewBox="0 0 256 144" xmlns="http://www.w3.org/2000/svg"><path d="m237.4 113.8c-6-3.4-23.9-12.7-45.5-23.7 1.5-2.3 4.2-6.4 7.5-11.4l13.4 6.8c3.8 1.9 8.2 2.1 12.1.4 3.1-1.3 3.1-5.6.1-7l-19.6-9.4c10.2-15.9 22-34.5 22.2-36.5.2-3.5-7.8-6.1-7.8-6.1l-60.4 46.3c-32.1-16.3-53.5-26.5-60.2-29.7-4.5-2.2-35.6-14.8-42.8-17.6 2.2-6.1 5.2-14.8 5.1-16-.2-1.9-7-4.3-7-4.3l-11.5 15.3c-10.7-3.8-19.9-6.2-21-4.4-.8 1.5 3.8 5.5 10.5 10.3l-28.6 6v1.2s3.5 2.5 8.3 3.4c3.9.7 24.8.3 35.2-.5 7.8 5 26.1 17.7 30.3 20.3 4.7 3 50.9 29.7 50.9 29.7l-99 26.7v1.8s5.6 5.7 13.6 5.9c4.1.1 38.7-4.2 71-8.6l20.8 10.8c3.8 1.9 8.2 2.1 12.1.4 3.1-1.3 3.1-5.6.1-7l-14.2-6.8c15-2.2 25.9-2.8 32.4-4.1 24.1 13.1 44.4 23.9 49.2 26.3 13 6.3 29 10.3 36.3 5.3 4.4-3 4-13.8-13.5-23.8z" opacity=".2"/></svg>