<svg enable-background="new 0 0 240 240" viewBox="0 0 240 240" xmlns="http://www.w3.org/2000/svg"><path d="m38.8 160.9 6.8-3.6 141.4 71.3-6.8 3.6z" opacity=".2"/><path d="m128.9 116.1h3.6v48.2h-3.6z" fill="#cc291f" transform="matrix(.702 .7121 -.7121 .702 138.7409 -51.285)"/><path d="m61.2 141.8h55.9v2.6h-55.9z" fill="#cc291f" transform="matrix(.8849 .4657 -.4657 .8849 76.911 -25.0529)"/><path d="m113.7 156.3-2.2-5.1-8.7-8.1-5.8-4.9c-.1-.1-.2-.3-.2-.5s.1-.3.3-.4l1.6-.7.4.9-.9.3 5.2 4.4 8.8 8.1s.1.1.1.2l2.2 5.2z" fill="#2d3134"/><path d="m110 74.6s12.5 9.6 16.6 15.2 12.5 18.5 13.1 21.2c1 4.4-.5 7.9-6.3 9.9-4.6 1.6-16.1 5.5-18.5 7.2s-4.2 2.6-4.5 4.5 1.2 6-.5 6.8-10.2-8.4-9.9-10.4c.3-1.9 3.2-2.8 6.3-4.5 3.2-1.7 8-7.2 11.3-9.5 2.9-2 7.2-3.2 7.2-3.2s-9.2-6.8-14.9-11.7c-5.6-5-11.3-13.1-11.3-13.1z" fill="#fbd7c7"/><path d="m101.2 139.5-5.2-2.6v-1.9l9.1-4.6 5.2 2.6v2z" fill="#2d3134"/><path d="m96 135v1.9l5.2 2.6v-1.9z" opacity=".11"/><path d="m110.3 133v2l-9.1 4.5v-1.9z" fill="#cc291f"/><path d="m110.3 133v2l-9.1 4.5v-1.9z" opacity=".29"/><path d="m173.3 184.6c-.5.1-1-.2-1.1-.7-4.1-14.6-11.7-41.4-12.7-44-1-2.5-7.8-6-9-6.4l.7-2.8c.5.1 9.3 4 10.9 8.2 1.2 3.2 10.1 37.9 11.9 44.5.2.5-.1 1.1-.7 1.2z" fill="#cc291f"/><path d="m148.9 195.4c-9.3-18.6-8.7-38.1.9-45.1-.9.2-1.8.6-2.6 1-11.5 5.7-12.8 26.5-2.8 46.3 9.9 19.8 27.2 31.2 38.7 25.5.7-.3 1.3-.7 1.9-1.2-11.3 3-26.9-8.1-36.1-26.5z" fill="#656565"/><path d="m148.9 195.4c-9.3-18.6-8.7-38.1.9-45.1-.9.2-1.8.6-2.6 1-11.5 5.7-12.8 26.5-2.8 46.3 9.9 19.8 27.2 31.2 38.7 25.5.7-.3 1.3-.7 1.9-1.2-11.3 3-26.9-8.1-36.1-26.5z" opacity=".2"/><path d="m170.3 221.2h-.2l3.3-37.1 1.9-25.7h.2l-1.9 25.7z" fill="#2d3134"/><path d="m188.9 220.9-15.5-36.7-14.4-35.2.2-.1 14.4 35.2 15.5 36.7z" fill="#2d3134"/><path d="m156.3 209.2-.2-.1 17.3-25 10.3-14.4.2.1-10.3 14.4z" fill="#2d3134"/><path d="m194.5 205.6-21.1-21.4-30.3-27.3.1-.2 30.4 27.3 21 21.5z" fill="#2d3134"/><path d="m193.9 193-20.5-8.8-33.2-13.7.1-.2 33.2 13.7 20.5 8.8z" fill="#2d3134"/><path d="m173.5 184.2-30.7-.3v-.3l30.7.4h19.4v.2z" fill="#2d3134"/><path d="m148.1 197.8-.1-.2 25.4-13.6 13.6-7.5.1.2-13.6 7.5z" fill="#2d3134"/><ellipse cx="173.4" cy="184" fill="#999" rx="2.1" ry="3.6" transform="matrix(.8945 -.4471 .4471 .8945 -63.9911 96.9322)"/><path d="m163 186.4 8.5-4.3c1.2-.6 1.8.3 2.4 1.5.6 1.2.9 2.2-.3 2.8l-8.5 4.3z" fill="#999"/><path d="m174.2 184.1c-.1.2-.3.4-.7.6l-8.5 4.3-1.4-2.9-.5.3 2.1 4.3 8.5-4.3c1-.5.9-1.3.5-2.3z" opacity=".2"/><g fill="#2d3134"><path d="m163.4 216.7h-.2l.2-27.9 1.8-35.2h.2l-1.8 35.2z"/><path d="m175.3 222.6-11.9-33.8-9.3-39.1h.2l9.3 39 11.9 33.8z"/><path d="m151.7 205.4-.2-.2 11.9-16.5 14.8-23.5.2.1-14.8 23.5z"/><path d="m185.4 221.6-22-32.8-18.4-34.8.2-.1 18.4 34.8 21.9 32.8z"/><path d="m192.2 214.8-28.8-25.9-23.9-26.5.2-.1 23.9 26.4 28.8 26z"/><path d="m194.2 202.8-30.7-13.9-24.6-13.1.1-.2 24.6 13.1 30.7 13.9z"/><path d="m143.2 191.1v-.2l20.3-2.2 27.5-4.1v.3l-27.5 4z"/><path d="m192.6 173.5c-11.1-22.2-31.3-34.7-45-27.8-13.8 6.9-15.9 30.5-4.8 52.7s31.3 34.7 45 27.8c13.8-6.9 15.9-30.5 4.8-52.7zm-9.5 49.5c-11.5 5.7-28.8-5.7-38.7-25.5s-8.6-40.5 2.8-46.3c11.5-5.7 28.8 5.7 38.7 25.5 10 19.9 8.7 40.6-2.8 46.3z"/></g><path d="m176.6 225c-5.4 0-11.6-2.7-17.4-7.5-6-4.9-11.2-11.8-15.2-19.8-10-20-8.6-41.1 3.1-46.9 2-1 4.3-1.5 6.7-1.5 5.4 0 11.6 2.7 17.4 7.5 6 4.9 11.2 11.8 15.2 19.8 10 20 8.6 41.1-3.1 46.9-2 1-4.3 1.5-6.7 1.5zm-22.9-74.7c-2.3 0-4.4.5-6.3 1.4-11.2 5.6-12.4 26.1-2.6 45.6 7.9 15.7 20.9 26.7 31.8 26.7 2.3 0 4.4-.5 6.3-1.4 11.2-5.6 12.4-26.1 2.6-45.6-7.8-15.7-20.9-26.7-31.8-26.7z" fill="#999"/><ellipse cx="163.6" cy="188.8" fill="#999" rx="2.1" ry="3.6" transform="matrix(.8945 -.4471 .4471 .8945 -67.1622 93.071)"/><path d="m108.7 122.6s-1.5 3.9.2 6c1.7 2 2.6 2.3 2.6 2.3s-1.4 1.4-.7 2.6c.7 1.1 1.8 3.8-.4 5-2.3 1.1-9.8-5-9.8-7.2s.9-5.4.9-5.4 2.4-.3 4.1-1c1.7-.9 3.1-2.3 3.1-2.3z" fill="#fff"/><path d="m40.6 141.1c-9.3-18.6-8.7-38.1.9-45.1-.9.2-1.8.6-2.6 1-11.5 5.7-12.8 26.5-2.8 46.3 9.9 19.8 27.2 31.2 38.7 25.5.7-.3 1.3-.7 1.9-1.2-11.3 3-26.9-8.2-36.1-26.5z" fill="#656565"/><path d="m40.6 141.1c-9.3-18.6-8.7-38.1.9-45.1-.9.2-1.8.6-2.6 1-11.5 5.7-12.8 26.5-2.8 46.3 9.9 19.8 27.2 31.2 38.7 25.5.7-.3 1.3-.7 1.9-1.2-11.3 3-26.9-8.2-36.1-26.5z" opacity=".2"/><path d="m61.9 166.9-.2-.1 3.3-37 1.9-25.7h.2l-1.8 25.7z" fill="#2d3134"/><path d="m80.6 166.6-15.5-36.7-14.4-35.2.2-.1 14.4 35.2 15.5 36.7z" fill="#2d3134"/><path d="m47.9 154.9-.1-.1 17.3-25.1 10.3-14.3.2.1-10.3 14.4z" fill="#2d3134"/><path d="m86.1 151.3-21-21.4-30.3-27.4.1-.1 30.3 27.3 21.1 21.5z" fill="#2d3134"/><path d="m85.5 138.7-20.4-8.8-33.2-13.7.1-.2 33.2 13.7 20.4 8.7z" fill="#2d3134"/><path d="m65.2 129.9-30.7-.3v-.3l30.7.4h19.4v.2z" fill="#2d3134"/><path d="m39.8 143.5-.1-.2 25.4-13.6 13.6-7.5.1.2-13.6 7.5z" fill="#2d3134"/><ellipse cx="65" cy="129.7" fill="#999" rx="2.1" ry="3.6" transform="matrix(.8945 -.4471 .4471 .8945 -51.1376 42.7607)"/><path d="m54.7 132.1 9.1-4.6 2.1 4.3-9.1 4.6z" fill="#999"/><path d="m55.1 162.4h-.2l.2-27.9 1.7-35.2h.3l-1.8 35.2z" fill="#2d3134"/><path d="m66.9 168.3-11.8-33.8-9.3-39.1.2-.1 9.3 39.1 11.8 33.8z" fill="#2d3134"/><path d="m43.4 151.1-.2-.2 11.9-16.5 14.8-23.6.2.2-14.8 23.5z" fill="#2d3134"/><path d="m77 167.3-21.9-32.8-18.4-34.8.2-.2 18.4 34.9 21.9 32.8z" fill="#2d3134"/><path d="m83.9 160.5-28.8-26-23.9-26.4.1-.1 24 26.4 28.7 25.9z" fill="#2d3134"/><path d="m85.9 148.5-30.8-13.9-24.5-13.1.1-.2 24.5 13.1 30.7 13.9z" fill="#2d3134"/><path d="m34.8 136.8v-.2l20.4-2.3 27.4-4 .1.2-27.5 4.1z" fill="#2d3134"/><path d="m84.3 119.1c-11.1-22.2-31.3-34.6-45-27.8s-15.9 30.5-4.8 52.7 31.3 34.7 45 27.8c13.8-6.8 15.9-30.4 4.8-52.7zm-9.5 49.6c-11.5 5.7-28.8-5.7-38.7-25.5s-8.6-40.5 2.8-46.3c11.5-5.7 28.8 5.7 38.7 25.5 9.9 19.9 8.7 40.6-2.8 46.3z" fill="#2d3134"/><path d="m68.3 170.7c-5.4 0-11.6-2.7-17.4-7.5-6-4.9-11.2-11.8-15.2-19.8-10-20-8.6-41.1 3.1-46.9 2-1 4.3-1.5 6.7-1.5 5.4 0 11.6 2.7 17.4 7.5 6 4.9 11.2 11.8 15.2 19.8 10 20 8.6 41.1-3.1 46.9-2 1-4.3 1.5-6.7 1.5zm-22.9-74.7c-2.3 0-4.4.5-6.3 1.4-11.2 5.6-12.4 26.1-2.6 45.6 7.9 15.7 20.9 26.7 31.8 26.7 2.3 0 4.4-.5 6.3-1.4 11.2-5.6 12.4-26.1 2.6-45.6-7.9-15.8-20.9-26.7-31.8-26.7z" fill="#999"/><ellipse cx="55.3" cy="134.5" fill="#999" rx="2.1" ry="3.6" transform="matrix(.8945 -.4471 .4471 .8945 -54.3087 38.8995)"/><ellipse cx="56.4" cy="134.1" fill="#656565" rx="4.5" ry="7.7" transform="matrix(.8945 -.4471 .4471 .8945 -53.989 39.3609)"/><ellipse cx="56.4" cy="134.1" opacity=".2" rx="4.5" ry="7.7" transform="matrix(.8945 -.4471 .4471 .8945 -53.989 39.3609)"/><path d="m103.6 125.6s-2.1-.6-3.2.2c-1 .8-2.5 2-2.6 4.2s5.1 6.5 6.6 10c1.6 3.5 5.8 7.7 6.6 8.2 2.4 1.5 5.2 0 5.6-1.7.3-1.7-.9-7-2.8-9.8-1.3-1.9-2.9-3.6-2.9-3.6s-.2 2.5-1.9 3.2-4.4-1-5.4-2.6-2.9-5.7-2.1-6.9c.7-1.1 2.1-1.2 2.1-1.2z" fill="#339"/><path d="m70.3 126.4h59.9v3.6h-59.9z" fill="#cc291f" transform="matrix(.3582 .9336 -.9336 .3582 183.9552 -11.3189)"/><path d="m70.3 126.4h59.9v3.6h-59.9z" fill="#cc291f" transform="matrix(.3582 .9336 -.9336 .3582 183.9552 -11.3189)"/><path d="m110.3 171.4c-1.5-.7-23.7-13.4-44.5-25.3-5.1-2.9-8.9-5.1-9-5.2-1.5-.8-3.5-2-4.8-4.6-1-1.9-1.4-3.9-1.3-5.7.1-1.9.9-3.2 2.1-3.8 1-.5 2.4-.4 3.7.3l51.9 18.9c3.3 1.3 6.5 4.6 8.6 8.8 1.7 3.4 2.5 6.9 2.2 10-.2 3.2-1.5 5.5-3.7 6.6-.8.4-1.7.6-2.6.6-.5 0-1.1-.1-1.6-.2zm.4-.9.2.1c.7.2 1.4.3 2.1.3.8 0 1.5-.2 2.1-.5 1.8-.9 2.9-3 3.1-5.8.2-2.9-.5-6.3-2.1-9.5-2.1-4.1-5.2-7.3-8.3-8.4l-.3-.1-51.5-18.7c-1.1-.6-2.1-.7-2.8-.3-.9.5-1.4 1.5-1.5 3-.1 1.6.3 3.4 1.2 5.2 1.2 2.3 2.9 3.5 4.3 4.2.1.1 3 1.7 9.1 5.2 14 8.1 43.3 24.8 44.4 25.3z" fill="#2d3134"/><path d="m107.8 160.9-53.2-25.2c-.5-.2-.7-.7-.7-1.2s.3-1 .8-1.2l39-17.4.9 2.5-36.3 16.1 50.6 24z" fill="#cc291f"/><path d="m146.8 123.4-49.6-4.7c-.5 0-.9-.3-1.1-.7-.5-1.1-.1-2.3 1-2.9l50 4.8z" fill="#cc291f"/><path d="m149.9 133.9-7-20.7.2-1.3 3.1-.1 7.1 21z" fill="#cc291f"/><path d="m163.6 189.7c-.6.2-1.2 0-1.5-.6-2.9-7.2-15.8-39.5-16.1-44.5-.3-6.1 3.8-13.3 3.9-13.7l2.5 1.4c0 .1-3.8 6.9-3.6 12 .2 3.6 8.8 27.9 15.2 43.8.4.8.2 1.4-.4 1.6z" fill="#cc291f"/><path d="m144.2 110.7c.4-.2.7-.2.9-.1l4.4 2.2c.3.1.4.4.4.8 0 .8-.6 1.7-1.4 2-.4.2-.7.2-1 .1 0 0-4.4-2.2-4.5-2.3-.2-.1-.4-.4-.4-.7.2-.7.8-1.7 1.6-2z" fill="#cc291f"/><path d="m147.6 115.7c-.1 0-4.4-2.2-4.5-2.3-.2-.1-.4-.4-.4-.7s.1-.6.3-.9l4.4 2.2c-.2.3-.3.6-.3.9.2.4.3.7.5.8z" opacity=".1"/><path d="m147.3 114.9c0 .8.6 1.1 1.4.7s1.4-1.3 1.4-2-.6-1.1-1.4-.7-1.4 1.3-1.4 2z" opacity=".11"/><path d="m114.2 153.5c-.7-.4-1.4-.4-1.9-.2l-6 3.1c-.5.2-.8.8-.8 1.5 0 1.5 1.2 3.3 2.7 4.1.7.4 1.4.4 1.9.2 0 0 6-3.1 6.2-3.2.4-.3.7-.8.7-1.5-.1-1.4-1.3-3.2-2.8-4z" fill="#cc291f"/><path d="m110 162.2c.2-.1 6-3.1 6.1-3.1.4-.3.7-.8.7-1.5 0-.6-.2-1.3-.5-1.9l-6 3.1c.3.6.5 1.3.5 1.9 0 .7-.3 1.2-.8 1.5z" opacity=".2"/><path d="m110.8 160.7c0 1.5-1.2 2.1-2.7 1.4s-2.7-2.6-2.7-4.1 1.2-2.1 2.7-1.4c1.5.8 2.7 2.6 2.7 4.1z" opacity=".11"/><path d="m112.8 171.2c-3.8 0-8.2-3.6-10.9-9-3.4-6.8-2.9-13.6 1.2-15.7.7-.4 1.5-.5 2.4-.5 3.8 0 8.2 3.6 10.9 9 3.4 6.8 2.9 13.6-1.2 15.7-.8.3-1.6.5-2.4.5zm-7.3-23.9c-.6 0-1.2.1-1.8.4-3.3 1.7-3.6 7.9-.6 13.9 2.4 4.9 6.4 8.3 9.7 8.3.6 0 1.2-.1 1.8-.4 3.3-1.7 3.6-7.9.6-13.9-2.4-4.9-6.4-8.3-9.7-8.3z" fill="#656565"/><path d="m112.5 169.3c-3 0-6.7-3.2-9-7.8-2.9-5.7-2.7-11.4.4-13 .5-.3 1.1-.4 1.7-.4 3 0 6.7 3.2 9 7.8 2.9 5.7 2.7 11.4-.4 13-.5.2-1.1.4-1.7.4zm-6.9-20.2c-.4 0-.8.1-1.2.3-2.5 1.3-2.5 6.6 0 11.6 2.1 4.2 5.5 7.3 8.1 7.3.4 0 .8-.1 1.2-.3 2.5-1.3 2.5-6.6 0-11.6-2.1-4.3-5.5-7.3-8.1-7.3z" fill="#656565"/><ellipse cx="108.9" cy="159.2" fill="#656565" rx="2.9" ry="4.6" transform="matrix(.8945 -.4471 .4471 .8945 -59.68 65.4881)"/><path d="m112.8 171.2c-3.8 0-8.2-3.6-10.9-9-3.4-6.8-2.9-13.6 1.2-15.7.7-.4 1.5-.5 2.4-.5 3.8 0 8.2 3.6 10.9 9 3.4 6.8 2.9 13.6-1.2 15.7-.8.3-1.6.5-2.4.5zm-7.3-23.9c-.6 0-1.2.1-1.8.4-3.3 1.7-3.6 7.9-.6 13.9 2.4 4.9 6.4 8.3 9.7 8.3.6 0 1.2-.1 1.8-.4 3.3-1.7 3.6-7.9.6-13.9-2.4-4.9-6.4-8.3-9.7-8.3z" opacity=".2"/><path d="m112.5 169.3c-3 0-6.7-3.2-9-7.8-2.9-5.7-2.7-11.4.4-13 .5-.3 1.1-.4 1.7-.4 3 0 6.7 3.2 9 7.8 2.9 5.7 2.7 11.4-.4 13-.5.2-1.1.4-1.7.4zm-6.9-20.2c-.4 0-.8.1-1.2.3-2.5 1.3-2.5 6.6 0 11.6 2.1 4.2 5.5 7.3 8.1 7.3.4 0 .8-.1 1.2-.3 2.5-1.3 2.5-6.6 0-11.6-2.1-4.3-5.5-7.3-8.1-7.3z" opacity=".2"/><ellipse cx="108.9" cy="159.2" opacity=".2" rx="2.9" ry="4.6" transform="matrix(.8945 -.4471 .4471 .8945 -59.68 65.4881)"/><path d="m168.1 102.6c-.5-.2-.9-.3-1.2-.1l-10.2 5c-.3.2-.6.5-.6 1 0 1 .8 2.2 1.8 2.6.5.2.9.3 1.2.1 0 0 10.2-5 10.3-5 .3-.2.5-.5.5-1-.1-.9-.9-2.1-1.8-2.6z" fill="#762c07"/><path d="m159.1 111.2c.1-.1 10.2-5 10.2-5 .3-.2.5-.5.5-1 0-.4-.1-.8-.3-1.2l-10.2 5c.2.4.3.8.3 1.2 0 .5-.2.9-.5 1z" opacity=".2"/><path d="m159.6 110.2c0 1-.8 1.4-1.8.9s-1.8-1.7-1.8-2.6.8-1.4 1.8-.9 1.8 1.7 1.8 2.6z" opacity=".11"/><path d="m105.6 183.9-.4-.9 2.4-1-3.9-5c-.1-.1-.1-.2-.1-.3l-.3-5.7-5.4-6.7c-.1-.1-.1-.3-.1-.4s.1-.3.3-.3l10.1-4.9.4.9-9.5 4.6 5.1 6.4c.1.1.1.2.1.3l.3 5.7 4.1 5.4c.1.1.1.3.1.4s-.1.3-.3.3z" fill="#2d3134"/><path d="m100.9 190.6-5.2-2.6v-2l9.1-4.5 5.2 2.6v1.9z" fill="#2d3134"/><path d="m95.7 186v2l5.2 2.6v-2z" opacity=".11"/><path d="m110 184.1v1.9l-9.1 4.6v-2z" fill="#cc291f"/><path d="m110 184.1v1.9l-9.1 4.6v-2z" opacity=".29"/><ellipse cx="89.5" cy="100.2" fill="#cc291f" rx="1.8" ry=".8" transform="matrix(.942 -.3356 .3356 .942 -28.4242 35.8386)"/><path d="m90.6 99.6-10.8-28.4-2.4.9 10.8 28.3c.1.3.8.4 1.4.1.7-.1 1.2-.6 1-.9z" fill="#656565"/><path d="m90.6 99.6-10.8-28.4-2.4.9.2.5 1.5-.6 10.9 28.3c.4-.1.7-.4.6-.7z" opacity=".2"/><path d="m71.8 71.3c-4.1 2.6-6.3 8.5-2.5 13 2.7 3.2 9 1.4 14.1 2.9s9.9 4.8 13 2.9c1.2-.7.5-3.7-2.5-6.5-3.1-2.8-7.4-8.3-7.6-8.7-1-1.8-8-7.7-14.5-3.6z" fill="#762c07"/><path d="m83.9 85.4c-5.1-1.5-11.4.4-14.1-2.9-1.7-2.1-2.2-4.4-1.8-6.6-1.1 2.7-.9 5.8 1.3 8.5 2.7 3.2 9 1.4 14.1 2.9s9.9 4.8 13 2.9c.5-.3.6-.9.5-1.8-3.2 1.8-8-1.5-13-3z" opacity=".2"/><path d="m81.2 65.2s-8.7 5-8.6 13.1 7 26.9 8.6 32.9 5.1 13.4 5 19.4-1.2 14.1.8 20.6c2 6.4 8.6 18.1 8.6 19.8s.1 7.4 1.8 9 9 2 9.9 1.8-1.4-5-3.2-8.6-4.6-10.8-5-18c-.3-7.2-2-17.7-1.8-19.4s.3-4.3.5-6.8.3-7.8-.5-12.6-4.1-23.2-4.1-26.1 0-10.4 0-10.4z" fill="#fbd7c7"/><path d="m132.7 42.3s5.1 7.7 7.8 13.8 3.2 9.3 4.5 10.8 8.4 12.6 10.6 17.6c2.1 4.8 4.2 9.1 5.8 10.6 1.2 1.1 3.7 4.4 4.8 6.2s2.8 7.3.4 8.8c-2.3 1.5-5-.5-5-.5l-2-3.5-1.5.6s-2.5-4.3-2.2-5.7c.3-1.5.2-2.8-.3-3.7-.4-.9-7.7-8.6-11.9-15s-8.2-13.8-8.4-14.5-9.5-13.5-10-16.7 7.4-8.8 7.4-8.8z" fill="#fbd7c7"/><path d="m94.2 86.3s7.7 7.7 11.7 11.2 12.6 9.9 12.6 9.9l12.6-11.7s-6.1-8.5-9.3-12-11.8-12.7-11.8-12.7l-4.1-1.8-12.1 17.1z" fill="#339"/><path d="m107.7 70.6s-13.9-4.7-17.1-6.8-7.2-5.4-7.2-5.4-10.1 8.4-12.6 14.9 1.1 17.9 3.6 23.4 7.8 18.9 7.8 18.9l15-2s-.2-9.2-.7-15.9c-.4-4.7-1.4-12.7-1.4-12.7z" fill="#339"/><path d="m104.1 33.2s-10.5 4.1-13.1 7.7-3 5.1-6.3 10.4c-2.6 4.2-8.4 12.3-10.6 15.3-.5.7-.5 1.7.1 2.3 1.6 1.7 4.9 4.8 9.1 6.2 6.8 2.2 16.1.6 21.7-.9 4.6-1.2 5.8-5.5 7.8-6.4s5.9.2 10.1-3.5c1.8-1.6 4.5-10.8 4.5-10.8s2.8-2.7 5-3.6c2.1-.9 4.1-1.8 4.1-1.8s-1.8-6.5-3.6-9.5-8.8-6.1-14.9-5.9c-6 .3-13.9.5-13.9.5z" fill="#939"/><path d="m93.8 166.7s1.2.6 3.6.3 3.8-1.4 3.8-1.4 2.1 4.7 2.9 6.5 2.2 4.4 2.2 4.4-1.9 3.5-4.8 3.7-7.2-3.5-7.2-3.5 1.2-2.9.8-5.5c-.2-1.4-1.3-4.5-1.3-4.5z" fill="#fff"/><path d="m94.4 175.9s-.9 2.6-.9 4 .3 2.4 2.6 3.1c.3.1 2 .7 4 1.5 2.5 1 6.1 3.4 7.8 3.7 5.2.9 8.5-2.1 7.5-3.5-.6-.9-5.3-2.9-6.5-4.5s-2.6-4.1-2.6-4.1-.4.6-1.7 1.2c-1.8.9-4.2.9-5.7.5s-4.5-1.9-4.5-1.9z" fill="#339"/><path d="m128.9 19.3c1 1.1 2.6 7.3 2.7 13.1s2.8 5.6 2.8 5.6-2.2 3.3-5.5 2.1c-3-1.1-5-10.4-5-10.4z" fill="#825012"/><path d="m129.3 21.1c1.2 2.2 1.6 18.4-1.8 21.2-1.7 1.4-3.7 1.4-5.6.8-1.8-.5-6.2 1.3-7.1.7-1.7-1.3-2.9-12.3-.4-20 2.5-7.8 12.5-7 14.9-2.7z" fill="#fbd7c7"/><path d="m128.9 23.3c-2.9 1.3-5.1 1.4-5 3.6s.5 9.4-2.3 10.8c-2.8 1.5-5 .5-5 .5s-.1 3 1.9 4.1c2.2 1.2 4.4.4 4.4.4s-4.9 5.8-11.7 3.5-10.2-12.8-5.4-24.2c4.8-11.5 13.8-11 18.9-8.1s6.4 5.8 5.9 7.2-1.7 2.2-1.7 2.2z" fill="#825012"/><path d="m158.9 106.3c-.7-.3-1.3-.4-1.7-.2l-1.9.9c-.5.2-.8.7-.8 1.4 0 1.4 1.1 3 2.5 3.7.7.3 1.3.4 1.7.2 0 0 1.9-.9 2-1 .4-.2.6-.7.6-1.3 0-1.4-1.1-3-2.4-3.7z" fill="#762c07"/><path d="m158.8 112.3c.2-.1 1.8-.9 1.9-1 .4-.2.6-.7.6-1.3 0-.5-.2-1.1-.5-1.7l-1.9.9c.3.6.5 1.2.5 1.7.1.7-.2 1.2-.6 1.4z" opacity=".2"/><path d="m159.5 110.9c0 1.4-1.1 1.9-2.5 1.2s-2.5-2.3-2.5-3.7 1.1-1.9 2.5-1.2 2.5 2.4 2.5 3.7z" opacity=".1"/><path d="m133.3 123.5c-.6 0-1.2-.3-1.5-.9-.4-.8-.1-1.9.8-2.3l23.4-11.7c.8-.4 1.9-.1 2.3.8.4.8.1 1.9-.8 2.3l-23.5 11.6c-.2.1-.5.2-.7.2z" fill="#656565"/><path d="m157.9 109.9-23.4 11.7c-.2.1-.5.2-.8.2-.6 0-1.2-.3-1.5-.9 0-.1-.1-.2-.1-.2-.5.5-.7 1.3-.4 2 .3.6.9.9 1.5.9.3 0 .5-.1.8-.2l23.4-11.7c.8-.4 1.1-1.3.9-2-.1 0-.3.1-.4.2z" opacity=".2"/><path d="m140 115.8c-.7-.3-1.3-.4-1.7-.2l-1.9.9c-.5.2-.8.7-.8 1.4 0 1.4 1.1 3 2.5 3.7.7.3 1.3.4 1.7.2 0 0 1.9-.9 2-1 .4-.2.6-.7.6-1.3.1-1.4-1.1-3.1-2.4-3.7z" fill="#762c07"/><path d="m139.9 121.7c.2-.1 1.8-.9 1.9-1 .4-.2.6-.7.6-1.3 0-.5-.2-1.1-.5-1.7l-1.9.9c.3.6.5 1.2.5 1.7.1.7-.2 1.2-.6 1.4z" opacity=".2"/><path d="m140.6 120.4c0 1.4-1.1 1.9-2.5 1.2s-2.5-2.3-2.5-3.7 1.1-1.9 2.5-1.2 2.5 2.3 2.5 3.7z" opacity=".1"/><path d="m137.9 117.5c-.5-.2-.9-.3-1.2-.1l-10.2 5c-.3.2-.6.5-.6 1 0 1 .8 2.2 1.8 2.6.5.2.9.3 1.2.1 0 0 10.2-5 10.3-5 .3-.2.5-.5.5-1-.1-1-.9-2.1-1.8-2.6z" fill="#762c07"/><path d="m128.9 126.1c.1-.1 10.2-5 10.2-5 .3-.2.5-.5.5-1 0-.4-.1-.8-.3-1.2l-10.2 5c.2.4.3.8.3 1.2 0 .5-.2.8-.5 1z" opacity=".2"/><path d="m129.4 125.1c0 1-.8 1.4-1.8.9s-1.8-1.7-1.8-2.6.8-1.4 1.8-.9 1.8 1.6 1.8 2.6z" opacity=".1"/><path d="m91.1 68.3s6 14.2 7.2 16.7c2.2 4.5 2.8 5.9 7.2 10.4s17.5 17.3 19 19c1.6 1.7 3.3 4.4 3.3 5 .1.6 3.4 5.7 5.4 6.4 1.5.5 4-1.1 4.8-2.1s0-3.2 0-3.2l-2.7-2.7 1.4-.5s-2-2.5-3.2-3.2-3.8-2.9-4.1-3.6c-.3-.8-9.8-14.2-13.6-18.4-2.3-2.5-7.6-6.8-7.6-6.8s-3.7-11.5-5.1-16c-.3-.9-1.5-4.2-1.5-4.2z" fill="#fbd7c7"/></svg>