<svg enable-background="new 0 0 480 400" viewBox="0 0 480 400" xmlns="http://www.w3.org/2000/svg"><path d="m309.2 345 138.5-69.2-297.3-148.3-138.4 69.2z" opacity=".3"/><path d="m248.4 291.1 50.1-13.8-34.3-19.7-17.3 16.7z" fill="#2d3134"/><path d="m54 191.3 49.8-13.6-34.3-19.7-17.3 16.7z" fill="#2d3134"/><path d="m285.2 271.5c-6.8-3.4-12.9-3.8-17.4-1.7l-9.5 5.1c-4.9 2.2-7.9 7.2-7.9 14.4 0 14 11.3 31 25.3 38 6.9 3.5 13.2 3.8 17.8 1.6 0 0 9.4-5 10.5-5.7 4.1-2.4 6.6-7.2 6.6-13.7-.1-14-11.4-31-25.4-38z" fill="#2d3134"/><path d="m293.7 328.8c1.8-.9 9.2-4.9 10.2-5.5 4.1-2.4 6.6-7.2 6.6-13.7 0-5.6-1.9-11.7-5-17.5l-9.5 5.1c3.1 5.8 5 11.9 5 17.5 0 6.9-2.7 11.7-7.3 14.1z" opacity=".29"/><path d="m301 314.7c0 14-11.3 19.7-25.3 12.7s-25.3-24-25.3-38 11.3-19.7 25.3-12.7c14 6.9 25.3 24 25.3 38z" fill="#2d3134"/><path d="m295.5 311.9c0 10.9-8.9 15.4-19.8 9.9s-19.8-18.8-19.8-29.7 8.9-15.4 19.8-9.9c10.9 5.4 19.8 18.7 19.8 29.7z" fill="#e5e5e5"/><g fill="#2d3134"><path d="m288.7 320.7c3-1.7 4.8-5.1 4.8-9.8 0-.4 0-.8 0-1.1l-11.1-1.7z"/><path d="m279.8 298.9 11.6 2.6c-2.4-5.8-6.8-11.3-12-15z"/><path d="m271.6 294.8.4-12.1c-5.2-1.5-9.5-.3-12 3.1z"/><path d="m257.9 292v1.1c0 4.7 1.8 9.9 4.8 14.6l6.3-6.3z"/><path d="m275.7 309.6-6.8 5.5c2.1 1.9 4.4 3.5 6.8 4.7s4.7 1.9 6.8 2.1z"/><path d="m90.9 173.7c-6.8-3.4-12.9-3.8-17.4-1.7l-9.5 5.1c-4.9 2.2-7.9 7.2-7.9 14.4 0 14 11.3 31 25.3 38 6.9 3.5 13.2 3.8 17.8 1.6 0 0 9.4-5 10.5-5.7 4.1-2.4 6.6-7.2 6.6-13.7-.1-13.9-11.4-31-25.4-38z"/></g><path d="m99.4 231c1.8-.9 9.2-4.9 10.2-5.5 4.1-2.4 6.6-7.2 6.6-13.7 0-5.6-1.9-11.7-5-17.5l-9.5 5.1c3.1 5.8 5 11.9 5 17.5 0 6.9-2.8 11.8-7.3 14.1z" opacity=".29"/><path d="m106.7 216.9c0 14-11.3 19.7-25.3 12.7s-25.3-24-25.3-38 11.3-19.7 25.3-12.7 25.3 24 25.3 38z" fill="#2d3134"/><path d="m101.2 214.1c0 10.9-8.9 15.4-19.8 9.9s-19.8-18.8-19.8-29.7 8.9-15.4 19.8-9.9 19.8 18.8 19.8 29.7z" fill="#e5e5e5"/><path d="m94.4 222.9c3-1.7 4.8-5.1 4.8-9.8 0-.4 0-.8 0-1.1l-11.1-1.7z" fill="#2d3134"/><path d="m85.5 201.1 11.6 2.6c-2.4-5.8-6.8-11.3-12-15z" fill="#2d3134"/><path d="m77.2 197 .4-12.1c-5.2-1.5-9.5-.3-12 3.1z" fill="#2d3134"/><path d="m63.6 194.2v1.1c0 4.7 1.8 9.9 4.8 14.6l6.3-6.3z" fill="#2d3134"/><path d="m81.4 211.8-6.8 5.5c2.1 1.9 4.4 3.5 6.8 4.7s4.7 1.9 6.8 2.1z" fill="#2d3134"/><path d="m440.1 229.1c-2.2-7.2-7.9-32.4-13.4-40.5-5.4-8.2-15.1-27.4-24.2-33.1s-113.1-72.9-140.7-76.8c-17.9-2.6-64.2 5.7-64.2 5.7s-26.2-3.4-60.6 7.2-62.8 28.4-76.6 42-14.6 19.8-14.8 28.2-3 20.3 4.9 27.2c.5.4 1.7 1.2 3.5 2.3-.1-.8-.1-1.5-.1-2.2 0-16.8 13.6-23.6 30.4-15.2s30.4 28.8 30.4 45.6c0 1.3-.1 2.5-.3 3.7 42.7 21.9 97.4 49.5 134 67.9-.2-1.4-.3-2.9-.3-4.3 0-16.8 13.6-23.6 30.4-15.2 16.6 8.3 30.1 28.4 30.4 45 8.2 1.5 11.4 2.8 18 1.8 13.6-2 105.6-44.2 111.1-56.8 5.6-12.5 4.3-25.3 2.1-32.5z" fill="#f90"/><path d="m301 314.7c0 14-11.3 19.7-25.3 12.7s-25.3-24-25.3-38 11.3-19.7 25.3-12.7 25.3 24 25.3 38z" opacity=".11"/><path d="m106.7 216.9c0 14-11.3 19.7-25.3 12.7s-25.3-24-25.3-38 11.3-19.7 25.3-12.7 25.3 24 25.3 38z" opacity=".11"/><path d="m325.9 196c-5.3 4.5-3.5 27.9-3 40.9.1 3.9 3.9 6.4 7.8 5.5 13.8-3.1 27.5-7.3 53.1-19.2 24.4-11.3 35-21.9 39.5-26.6 1.6-1.7 2-4.3.9-6.4-4.5-8.5-16.6-30.6-22-31.8-6.9-1.5-67.6 30.1-76.3 37.6z" fill="#2d3134"/><path d="m335 198.5c-3 2.1-2.9 19.5-2.6 30.8.2 5 5 8.6 9.9 7.2 11.8-3.4 32.7-11 43.1-16.3 18-9.1 26.5-15.1 31.1-19.5 2.4-2.3 3-6 1.4-9-4.4-8.2-13.6-24.4-17.8-25.4-5.8-1.2-57.1 26.5-65.1 32.2z" fill="#656565"/><path d="m317.1 254.8c-1.8-6.3-3.3-11.9-3.6-14.1-.7-5.4.3-35.9 0-42-.3-6.2-8.2-10.3-33.1-24.5-24.8-14.2-91.2-42.9-106.4-45.5s-69.2 12.5-85.9 14.4c-11 1.2-25.8.8-34.6.4l.8 8.4 54.9 19.2 157.3 65.8z" fill="#fff" opacity=".2"/><path d="m105.3 152.5c-2.4-7.1 47-21 69.7-18.3s129.8 52.9 130.5 62.8-5.3 23.3-11.9 24.7c-10.1 2.2-36.3-3-79.1-20.8s-106.4-40.3-109.2-48.4z" fill="#2d3134"/><path d="m96.9 138.1s6.7-.8 32.1-5.9c25.7-5.2 40.1-6.9 40.1-6.9s18.8-16.6 38.6-25.7 49-19.3 49-19.3-16.7.9-33.1 3c-13.9 1.7-24.7 3-27.7 3s-40.4 6.5-63.3 18.8c-26.3 14-35.7 33-35.7 33z" fill="#2d3134"/><path d="m111.1 133.8c4.3-6.3 13.8-17.9 32.2-27.8 22.4-12.1 60.1-18.8 63.2-18.8.3 0 8.9-1.8 17.5-2.8 8.2-1 14.1-1.7 19.9-2.1-10.4 3.9-24.4 9.3-35.4 14.4-18.4 8.5-35.6 22.9-39.2 26-17.3 2-53 9.3-58.2 11.1z" fill="#656565"/><path d="m133.9 141.4c-1.3.3-2.6.7-3.8 1-14.9 4.2-21.1 8-22.2 9.5.7 1 3.8 3.7 17.3 10z" fill="#656565"/><path d="m303.1 197.3c-.2-.5-2.2-3.6-17.8-12.6-2.1-1.2-4.4-2.5-6.8-3.8l-1.5 37.7c4.3.7 8.1 1.1 11.3 1.1 1.9 0 3.5-.1 4.8-.4 4.8-1.1 10.7-12.6 10-22z" fill="#656565"/><path d="m214.7 150.4c-18.6-7.8-33.4-13-39.9-13.8-1.8-.2-3.9-.3-6.2-.3-8.1 0-18.9 1.4-29.7 3.9l-8.5 24.1c13.2 5.8 30.7 12.7 47.6 19.4 5.9 2.3 11.8 4.7 17.7 7z" fill="#656565"/><path d="m267.5 195 1.7-19.1c-7.1-3.7-14.9-7.5-23.1-11.4-7.4-3.5-14.6-6.8-21.5-9.8l-15 41.5c2 .8 4 1.6 5.9 2.4 16.8 7 32 12.4 44.8 16z" fill="#656565"/><path d="m138.5 92.6 44-8.4s-8.4-4-21.3-1.5c-12.8 2.5-22.7 9.9-22.7 9.9z" fill="#e5e5e5"/><path d="m340.8 274.3-6.9-16.8-13.4-17.8s-7.4-1.5-9.4 1-5.9 10.9-5.4 17.3 1 13.6 2.5 14.8 6.2 4.5 12.4 4.9c6.1.6 20.2-3.4 20.2-3.4z" fill="#cc291f"/><path d="m426.5 227.1s3.7-15.7 3.2-20.8c-.3-3.3-3.6-18.8-3.6-18.8s8 12.4 9.3 19.8c1.1 6.3 3 9.4 0 12.4s-8.9 7.4-8.9 7.4z" fill="#cc291f"/><path d="m349.4 281.7s4.1 5.5 7.1 4.8 64.2-29.5 68.2-35.4 4.8-7.8 4.5-9.1c-.2-1.2-2.5-11.9-2.5-11.9s-4.5 17.3-7.4 19.3-27.4 16.1-38.1 20.8c-10.6 4.7-26.9 12.9-28.2 12.9-1.2-.1-3.6-1.4-3.6-1.4z" fill="#fff" opacity=".3"/><path d="m360 248.9s1.5 13.6 7.4 12.4 38.1-15.8 41.5-22.3c3.5-6.4 3.5-17.8 3.5-17.8s-16.8 11.6-27.2 16.3-25.2 11.4-25.2 11.4z" fill="#e5e5e5"/><path d="m401.5 212.9-9.9-3.3-31.6 13.3 31-10.4 5.5 3.7z" fill="#2d3134"/><g opacity=".2"><path d="m270.5 220.6-4 16.3v14.4l-3.8 10.6c-1.7.5-11.2 3.6-15.1 10.9-2.3 4.3-2.5 8.2-2.4 10l-50.9-25.2v-51.6l6.8-10.8-.8-.5-7 11v51.2l-77.9-38.7-.4.9 130.5 64.8.8.4-.1-.9s-.6-4.9 2.3-10.3c4-7.5 14.6-10.4 14.7-10.5l.2-.1 4.1-11.2v-14.4l3.9-16.3z"/><path d="m114.8 160.1-5.5 11v36.2h1v-35.9l5.4-10.8z"/></g><path d="m128.6 156.9c-1.5-.5-5.9-3.7-8.4-1s-5.9 11.4-2 15.8c4 4.5 6.9 0 6.9 0l1 2.5 4-4.5s.5-6.7 0-8.9-1.5-3.9-1.5-3.9z" fill="#f90"/><path d="m130.1 160.9c-.5-2.2-1.5-4-1.5-4-.1 0-.1 0-.2-.1-1.8 1.5-4.4 3.6-5.3 5.5-1.2 2.7-3.2 7.2-2 8.9s1.7.5 4.9-2c1.6-1.2 3.1-2.7 4.2-3.9.1-1.7.1-3.5-.1-4.4z" fill="#656565"/><path d="m440.1 229.1c-.7-2.4-1.9-6.8-3.2-11.9-.2.9-.7 1.7-1.5 2.5-3 3-8.9 7.4-8.9 7.4l.2 3 2.5 11.9.3.1c5.2-3.3 9-6.5 11.3-10 .2.3-.3-1.8-.7-3z" fill="#fff" opacity=".2"/><path d="m340.8 274.3 8.6 7.4-24 7.2-2.2-11.1z" fill="#fff" opacity=".2"/><path d="m259.3 233.8c0 2.9-2.4 4.1-5.3 2.6s-5.3-5-5.3-7.9 2.4-4.1 5.3-2.6 5.3 5 5.3 7.9z" opacity=".2"/><path d="m259.8 235.7 2-2.7s-17.5-9.2-18.7-7c-1.3 2.2 16.7 9.7 16.7 9.7z" fill="#f90"/><path d="m184.3 202.2c0 2.9-2.4 4.1-5.3 2.6s-5.3-5-5.3-7.9 2.4-4.1 5.3-2.6 5.3 5 5.3 7.9z" opacity=".2"/><path d="m184.8 204.1 2-2.7s-17.5-9.2-18.7-7c-1.4 2.2 16.7 9.7 16.7 9.7z" fill="#f90"/><path d="m333.9 257.5-15.5 2.1-4.8-1.3v6.5l6.8 2 15.9-3.3z" fill="#e5e5e5"/><path d="m429.8 207.3-.5 5.7 6.4-4.1-1.1-4.6z" fill="#e5e5e5"/><path d="m313.5 240.7c-.7-5.4.3-35.9 0-42-.3-6.2-8.2-10.3-33.1-24.5-24.8-14.2-91.2-42.9-106.4-45.5s-69.2 12.5-85.9 14.4c-11.9 1.3-28.2.8-36.5.3-5.5 7.4-5.9 12.3-6.1 18.4-.2 8.4-3 20.3 4.9 27.2.5.4 1.7 1.2 3.5 2.3-.1-.8-.1-1.5-.1-2.2 0-16.8 13.6-23.6 30.4-15.2s30.4 28.8 30.4 45.6c0 1.3-.1 2.5-.3 3.7 42.7 21.9 97.4 49.5 134 67.9-.2-1.4-.3-2.9-.3-4.3 0-16.8 13.6-23.6 30.4-15.2 16.6 8.3 30.1 28.4 30.4 45 7.5 1.4 10.8 2.6 16.3 2 0-14.2 0-29.8 0-29.8s-.6-3.3-2.1-11.1c-1.3-7.8-8.8-31.6-9.5-37z" opacity=".11"/><path d="m440.9 232.1c-2.4 3.5-6.3 6.7-11.6 10.2.1 1.3-.9 3.3-4.6 8.8-4 5.9-65.2 34.7-68.2 35.4s-7.1-4.8-7.1-4.8-.1 0-.2.1c-11.7 4.4-20.3 6.6-23.9 7.2v29.8c.5-.1 1.1-.1 1.6-.2 13.6-2 105.6-44.2 111.1-56.8 4.9-11.1 4.5-22.3 2.9-29.7z" opacity=".29"/><path d="m78.6 135.1s-13.4-5.4-21.8-2-7.2 18-2.5 18.8c4.8.8 24.3-16.8 24.3-16.8z" fill="#e5e5e5"/><path d="m64.1 136.8c0 2.9-2.4 6.5-5.3 7.9-2.9 1.5-5.3.3-5.3-2.6s2.4-6.5 5.3-7.9c2.9-1.5 5.3-.3 5.3 2.6z" opacity=".2"/><path d="m60.5 138.5c0 1.6-1.3 3.5-2.8 4.3-1.6.8-2.8.1-2.8-1.4 0-1.6 1.3-3.5 2.8-4.3s2.8-.2 2.8 1.4z" fill="#fff" opacity=".4"/><path d="m71.3 136.7c0 1.6-1.3 3.5-2.8 4.3-1.6.8-2.8.1-2.8-1.4 0-1.6 1.3-3.5 2.8-4.3 1.6-.8 2.8-.2 2.8 1.4z" fill="#fff" opacity=".4"/><path d="m386.2 186.9c10.4 0 20.5.6 30.1 1.8-4.7-8.6-12.4-21.5-16.2-22.4-4.1-.9-31.7 13.1-50 23.2 11.4-1.7 23.5-2.6 36.1-2.6z" opacity=".2"/></svg>