<svg enable-background="new 0 0 560 480" viewBox="0 0 560 480" xmlns="http://www.w3.org/2000/svg"><path d="m141.2 209.8-127.2 63.6 353.1 175.9 127.3-63.6z" opacity=".3"/><path d="m31.3 252.1 105.8-29.4-73-41.9-34.8 37.1z"/><path d="m277 373.8 105.9-29.4-73.1-41.9-34.8 37.1z"/><path d="m64.8 238.2c-6.2-3.1-11.9-3.5-16.1-1.6l-11.7 5.8c-4.5 2-7.3 6.6-7.3 13.3 0 12.9 10.5 28.6 23.4 35 6.4 3.2 12.2 3.5 16.4 1.5 0 0 11.6-5.8 12.6-6.4 3.8-2.3 6.1-6.6 6.1-12.6 0-12.9-10.5-28.6-23.4-35z" fill="#2d3134"/><path d="m69.8 292.1c1.7-.8 11.4-5.7 12.3-6.2 3.8-2.3 6.1-6.6 6.1-12.6 0-5.2-1.7-10.8-4.6-16.1l-11.7 5.8c2.9 5.3 4.6 10.9 4.6 16.1 0 6.3-2.6 10.8-6.7 13z" opacity=".39"/><path d="m70.6 276c0 9.7-7.8 13.6-17.5 8.8s-17.5-16.6-17.5-26.3 7.8-13.6 17.5-8.8 17.5 16.6 17.5 26.3z" fill="#a9abb0"/><path d="m54.6 284.1c-9.7-4.8-17.5-16.6-17.5-26.3 0-4.8 1.9-8.1 5-9.7-3.9 1.2-6.4 4.9-6.4 10.3 0 9.7 7.8 21.4 17.5 26.3 4.9 2.5 9.4 2.6 12.5 1-3.1 1-6.9.5-11.1-1.6z" fill="#808285"/><path d="m61.9 270.3c0 4-3.3 5.7-7.3 3.6s-7.3-6.9-7.3-11c0-4 3.3-5.7 7.3-3.6s7.3 6.9 7.3 11z" fill="#2d3134"/><path d="m61.9 270.3c0 4-3.3 5.7-7.3 3.6s-7.3-6.9-7.3-11c0-4 3.3-5.7 7.3-3.6s7.3 6.9 7.3 11z" opacity=".39"/><path d="m60.4 270.9c0 4-3.3 5.7-7.3 3.6s-7.3-6.9-7.3-11c0-4 3.3-5.7 7.3-3.6s7.3 7 7.3 11z" fill="#2d3134"/><path d="m76.5 279c0 12.9-10.5 18.1-23.4 11.7s-23.4-22.1-23.4-35 10.5-18.1 23.4-11.7 23.4 22.1 23.4 35z" opacity=".06"/><path d="m313.4 361.5c-6.2-3.1-11.9-3.5-16.1-1.6l-11.7 5.8c-4.5 2-7.3 6.6-7.3 13.3 0 12.9 10.5 28.6 23.4 35 6.4 3.2 12.2 3.5 16.4 1.5 0 0 11.6-5.8 12.6-6.4 3.8-2.3 6.1-6.6 6.1-12.6-.1-12.8-10.5-28.5-23.4-35z" fill="#2d3134"/><path d="m318.3 415.5c1.7-.8 11.4-5.7 12.3-6.2 3.8-2.3 6.1-6.6 6.1-12.6 0-5.2-1.7-10.8-4.6-16.1l-11.7 5.8c2.9 5.3 4.6 10.9 4.6 16.1.1 6.3-2.5 10.8-6.7 13z" opacity=".39"/><path d="m319.2 399.4c0 9.7-7.8 13.6-17.5 8.8s-17.5-16.6-17.5-26.3 7.8-13.6 17.5-8.8 17.5 16.6 17.5 26.3z" fill="#a9abb0"/><path d="m303.2 407.5c-9.7-4.8-17.5-16.6-17.5-26.3 0-4.8 1.9-8.1 5-9.7-3.9 1.2-6.4 4.9-6.4 10.3 0 9.7 7.8 21.4 17.5 26.3 4.9 2.5 9.4 2.6 12.5 1-3.1.9-6.9.5-11.1-1.6z" fill="#808285"/><path d="m310.5 393.6c0 4-3.3 5.7-7.3 3.6-4-2-7.3-6.9-7.3-11 0-4 3.3-5.7 7.3-3.6s7.3 7 7.3 11z" fill="#2d3134"/><path d="m310.5 393.6c0 4-3.3 5.7-7.3 3.6-4-2-7.3-6.9-7.3-11 0-4 3.3-5.7 7.3-3.6s7.3 7 7.3 11z" opacity=".39"/><path d="m309 394.3c0 4-3.3 5.7-7.3 3.6-4-2-7.3-6.9-7.3-11 0-4 3.3-5.7 7.3-3.6s7.3 7 7.3 11z" fill="#2d3134"/><path d="m325.1 402.4c0 12.9-10.5 18.1-23.4 11.7-12.9-6.5-23.4-22.1-23.4-35s10.5-18.1 23.4-11.7 23.4 22.1 23.4 35z" opacity=".06"/><path d="m488.8 237.9-7.9-21.2c-2.9-7.7-8.6-13.9-16.1-17.3l-235.7-107.9c-4.6-2.1-9.8-2.3-14.5-.5-11.1 4.2-31.9 12.3-43.2 17.8-15.8 7.6-52.4 31.3-69.8 42.1s-30.6 23.5-38.2 27.2-35.3 21.9-35.3 26.6v31.9l3.3 5.5c4.7-6.7 14.1-8.2 24.9-2.7 15.5 7.7 28 26.6 28 42.1v1.1l192.7 91.1c1.5-13.3 13.4-18.3 27.9-11 13.9 7 25.5 22.9 27.7 37.3l52 24.6 115.6-56.4v-65.6z" fill="#e5e5e5"/><path d="m26.4 229.4 4.9 4.4v18.7l-6.4-4.1v-6.6l1.5-.5z" fill="#2d3134"/><g fill="#cc291f"><path d="m384.8 363.3 6.3-3.2v17.9l-6.3 3.2z"/><path d="m384.8 387.5v7.4l6.3-3.2v-7.1z"/><path d="m494.4 308.5 6.3-3.2v18l-6.3 3.1z"/><path d="m494.4 332.7v7.4l6.3-3.2v-7.1z"/></g><path d="m493.7 307.1-10.6-66.7-9.9-23.3-80.4 39-.2.1v153.5l100.9-50.1.2-.1zm-100.4-50.4 39.8-19.3 5 30.6 3.4 48.7v67.9l-48.2 23.9zm99.6 102.4-50.6 25.1v-67.5l-3.4-48.8-5-30.8 38.9-18.9 9.6 22.4 10.5 66.6z" opacity=".3"/><path d="m442.2 275.7 3.1 35.7c.1 1.7 2 2.7 3.5 1.9l35.5-18c2.1-1 3.2-3.3 2.8-5.6l-5.7-33.6c-.3-1.6-2-2.5-3.4-1.8l-32.9 16.2c-1.9 1-3.1 3.1-2.9 5.2z" fill="none" opacity=".3" stroke="#000" stroke-miterlimit="10" stroke-width=".7902"/><path d="m435.6 279.1 2.4 35.4c.1 2.1-1 4.1-2.9 5.1l-35 17.3c-1.6.8-3.5-.4-3.5-2.2l.3-36.6c0-2 1.1-3.8 2.9-4.7l32.4-16.3c1.5-.8 3.3.3 3.4 2z" fill="none" opacity=".3" stroke="#000" stroke-miterlimit="10" stroke-width=".7902"/><path d="m399.5 381.2v11.6l33.8-16.9v-11.6z" fill="#fff"/><path d="m34.6 214.2 339.6 162.6v7l-342.9-166.2z" fill="#fff" opacity=".3"/><path d="m84.5 260.6 188.2 90.9" fill="none"/><path d="m342.2 383.8 33.4 14.4" fill="none"/><path d="m27.4 207.9v22.5l3.9 3.4v-21.7z" fill="#f90"/><path d="m63.9 196.5 53.3 25.6c1.5.7 3.2-.3 3.4-1.9l5-45.2c.1-1-.4-1.9-1.3-2.4l-26.5-13.1-33.9 29.1z" fill="#2d3134"/><path d="m118.3 220.2h-.1l-52.1-25v-5.6l32.1-27.6 25.3 12.5c.1.1.2.2.1.3l-5 45.2c-.1.2-.2.2-.3.2z" fill="#656565"/><path d="m139.1 181.9-3.9 38.1c-.1 1.1.5 2.1 1.4 2.6l48.2 24.1c1.7.8 3.6-.3 3.8-2.1l4.4-38.3c.1-1.1-.5-2.1-1.5-2.6l-48.7-23.9c-1.5-.8-3.5.2-3.7 2.1z" fill="#2d3134"/><path d="m186 244.8c-.1 0-.2 0-.2-.1l-48.2-24.1c-.2-.1-.3-.3-.3-.5l3.9-38.1c0-.3.3-.5.5-.5.1 0 .2 0 .2.1l48.7 23.9c.2.1.3.3.3.5l-4.4 38.3c0 .4-.3.5-.5.5z" fill="#656565"/><path d="m202.3 212.9-4 36.8c-.2 1.9.8 3.8 2.5 4.6l76.8 38.1c1.5.8 3.4-.3 3.5-2l4.2-36.6c.2-1.9-.8-3.7-2.5-4.6l-77-38.4c-1.5-.5-3.3.4-3.5 2.1z" fill="none" opacity=".3" stroke="#000" stroke-miterlimit="10" stroke-width="1.0536"/><path d="m293.3 258.1-4 36.8c-.2 1.9.8 3.8 2.5 4.6l77.7 38.6c1.5.8 3.4-.3 3.5-2l3.3-37c.2-1.9-.8-3.7-2.5-4.6l-77-38.4c-1.5-.7-3.4.3-3.5 2z" fill="none" opacity=".3" stroke="#000" stroke-miterlimit="10" stroke-width="1.0536"/><path d="m384 287.3.4-.8-280.5-134.5-.3.7 30 14.4-8.2 71.4v63.3h.8v-63.3l8.1-71 64.4 30.8-8.2 71.6v63.3h.8v-63.3l8.1-71.2z" opacity=".3"/><path d="m46.9 214.6v.6c0 1.4.8 2.7 2 3.3l2.9 1.5c1.2.6 2.6-.3 2.6-1.6v-.6c0-1.4-.8-2.7-2-3.3l-2.9-1.5c-1.2-.6-2.6.2-2.6 1.6z" fill="#f90"/><path d="m144.6 249.4c0 2.4-1.9 3.4-4.3 2.2s-4.3-4.1-4.3-6.5 1.9-3.4 4.3-2.2 4.3 4.1 4.3 6.5z" opacity=".2"/><path d="m133.4 242.1-1.8 2.1s13.6 8.8 14.8 7.1c1.2-1.8-13-9.2-13-9.2z" fill="#e5e5e5"/><path d="m448.5 328.7c0 2.4 1.9 3.4 4.3 2.2s4.3-4.1 4.3-6.5-1.9-3.4-4.3-2.2-4.3 4.1-4.3 6.5z" opacity=".2"/><path d="m459.7 321.3 1.8 2.1s-13.6 8.8-14.8 7.1 13-9.2 13-9.2z" fill="#e5e5e5"/><path d="m423.9 340.9c0 2.4 1.9 3.4 4.3 2.2s4.3-4.1 4.3-6.5-1.9-3.4-4.3-2.2-4.3 4.1-4.3 6.5z" opacity=".2"/><path d="m435.1 333.5 1.8 2.1s-13.6 8.8-14.8 7.1 13-9.2 13-9.2z" fill="#e5e5e5"/><path d="m119.5 236c0 2.4-1.9 3.4-4.3 2.2s-4.3-4.1-4.3-6.5 1.9-3.4 4.3-2.2c2.3 1.2 4.3 4.1 4.3 6.5z" opacity=".2"/><path d="m108.3 228.6-1.8 2.1s13.6 8.8 14.8 7.1-13-9.2-13-9.2z" fill="#e5e5e5"/><path d="m498.2 358.8v-13.4l4.4-2v13l1.8 1.1v8.8l-5.3 7.7-108 53.7h-6.9l-7.9-4.2v-24.7l6 3.3 7.4-2.3v13.4z" fill="#2d3134"/><path d="m388 254.4-245.7-117.1c-6.7-3.2-14.7-2.8-21 1.2-1.8 1.1-3.8 2.4-5.8 3.6-5.3 3.3-10.1 6.4-14 8.8-14.2 9-43.8 39.9-54.7 43.4-8 2.6-15.4 7.9-18.8 10.5v31.7l3.3 5.5c4.7-6.7 14.1-8.2 24.9-2.7 15.5 7.7 28 26.6 28 42.1v1.1l192.8 91.2c1.5-13.3 13.4-18.3 27.9-11 13.9 7 25.5 22.9 27.7 37.3l43.8 20.8v2.7l7.9 4.2v-84.3l2.3-54.6z" opacity=".11"/><path d="m502.6 356.4v-13l-2.5 1.1v-5.6l.6-.3v-7.1l-.6.3v-6.6l.6-.3v-17.9l-.6.3v-4.6l-11.3-64.8-7.9-21.2c-.8-2.1-1.8-4-2.9-5.9l-90 43.6-3.7 89v84.3h6.9l108-53.7 5.3-7.7v-8.8z" opacity=".29"/><path d="m52.7 188.3v12.4c0 2.2 2.3 3.5 4.2 2.5l.7-.4c2.5-1.4 4.1-4 4.1-6.9v-12.3c0-2.1-2.2-3.5-4.1-2.6l-.4.2c-2.8 1.3-4.5 4.1-4.5 7.1z" fill="#2d3134"/></svg>