<svg enable-background="new 0 0 480 400" viewBox="0 0 480 400" xmlns="http://www.w3.org/2000/svg"><path d="m150 355-140-70 320-160 140 70z" fill="#262626" opacity=".3"/><path d="m410.7 196.4-50.2-14 34.6-19.9 17.5 16.9z" fill="#2d3134"/><path d="m218.3 296.2-50.2-14 34.7-19.9 17.5 16.9z" fill="#2d3134"/><path d="m410.7 196.4-50.2-14 34.6-19.9 17.5 16.9z" opacity=".29"/><path d="m218.3 296.2-50.2-14 34.7-19.9 17.5 16.9z" opacity=".29"/><path d="m181.6 276.3c6.7-3.4 12.8-3.8 17.3-1.7l9.5 5.1c4.8 2.2 7.9 7.1 7.9 14.3 0 13.9-11.3 30.9-25.2 37.8-6.9 3.4-13.1 3.8-17.7 1.6 0 0-9.4-5-10.4-5.6-4.1-2.4-6.6-7.1-6.6-13.6 0-14 11.3-30.9 25.2-37.9z" fill="#2d3134"/><path d="m173.1 333.3c-1.8-.9-9.2-4.9-10.1-5.5-4.1-2.4-6.6-7.1-6.6-13.6 0-5.6 1.8-11.7 4.9-17.4l9.5 5.1c-3.1 5.7-4.9 11.8-4.9 17.4-.1 6.8 2.7 11.7 7.2 14z" opacity=".29"/><path d="m165.8 319.3c0 13.9 11.3 19.6 25.2 12.6s25.2-23.9 25.2-37.8-11.3-19.6-25.2-12.6c-13.9 6.9-25.2 23.9-25.2 37.8z" fill="#2d3134"/><path d="m171.4 316.5c0 10.9 8.8 15.3 19.7 9.9s19.7-18.7 19.7-29.6-8.8-15.3-19.7-9.9c-10.9 5.5-19.7 18.7-19.7 29.6z" fill="#e5e5e5"/><path d="m178.1 325.3c-3-1.7-4.8-5-4.8-9.7 0-.4 0-.8 0-1.1l11-1.7z" fill="#2d3134"/><path d="m186.9 303.6-11.5 2.5c2.4-5.7 6.7-11.3 11.9-14.9z" fill="#2d3134"/><path d="m195.2 299.5-.4-12c5.2-1.5 9.5-.3 11.9 3z" fill="#2d3134"/><path d="m208.8 296.7v1.1c0 4.7-1.8 9.8-4.8 14.5l-6.3-6.2z" fill="#2d3134"/><path d="m191.1 314.2 6.8 5.5c-2.1 1.9-4.4 3.5-6.8 4.7s-4.7 1.9-6.8 2z" fill="#2d3134"/><path d="m165.8 319.3c0 13.9 11.3 19.6 25.2 12.6s25.2-23.9 25.2-37.8-11.3-19.6-25.2-12.6c-13.9 6.9-25.2 23.9-25.2 37.8z" opacity=".11"/><path d="m373.8 179.6c6.7-3.4 12.8-3.8 17.3-1.7l9.5 5.1c4.8 2.2 7.9 7.1 7.9 14.3 0 13.9-11.3 30.9-25.2 37.8-6.9 3.4-13.1 3.8-17.7 1.6 0 0-9.4-5-10.4-5.6-4.1-2.4-6.6-7.1-6.6-13.6-.1-14 11.2-30.9 25.2-37.9z" fill="#2d3134"/><path d="m365.2 236.6c-1.8-.9-9.2-4.9-10.1-5.5-4.1-2.4-6.6-7.1-6.6-13.6 0-5.6 1.8-11.7 4.9-17.4l9.5 5.1c-3.1 5.7-4.9 11.8-4.9 17.4 0 6.8 2.8 11.6 7.2 14z" opacity=".29"/><path d="m358 222.5c0 13.9 11.3 19.6 25.2 12.6s25.2-23.9 25.2-37.8-11.3-19.6-25.2-12.6-25.2 23.9-25.2 37.8z" fill="#2d3134"/><path d="m363.5 219.8c0 10.9 8.8 15.3 19.7 9.9s19.7-18.7 19.7-29.6-8.8-15.3-19.7-9.9c-10.9 5.5-19.7 18.7-19.7 29.6z" fill="#e5e5e5"/><path d="m370.2 228.5c-3-1.7-4.8-5-4.8-9.7 0-.4 0-.8 0-1.1l11-1.7z" fill="#2d3134"/><path d="m379.1 206.8-11.5 2.5c2.4-5.7 6.7-11.3 11.9-14.9z" fill="#2d3134"/><path d="m387.3 202.7-.4-12c5.2-1.5 9.5-.3 11.9 3z" fill="#2d3134"/><path d="m400.9 199.9v1.1c0 4.7-1.8 9.8-4.8 14.5l-6.3-6.2z" fill="#2d3134"/><path d="m383.2 217.5 6.8 5.5c-2.1 1.9-4.4 3.5-6.8 4.7s-4.7 1.9-6.8 2z" fill="#2d3134"/><path d="m358 222.5c0 13.9 11.3 19.6 25.2 12.6s25.2-23.9 25.2-37.8-11.3-19.6-25.2-12.6-25.2 23.9-25.2 37.8z" opacity=".11"/><path d="m39 221c19.3-17.2 102.5-82.6 116.4-92.9s64.2-41.9 98-50.6 38-3.6 44.9-5.1 27.4-6.3 57.6 3c12.9 4 28.2 8.4 40.7 19.6 16.6 14.8 29.4 37.8 35.6 50.3l1.3 4.2c2.3 7.5 1.3 15.7-2.7 22.4-3.4 5.7-7.7 12.3-10.9 15.9-2.8 3.1-6.2 6.4-9.1 9.2 0-.2 0-.5 0-.7 0-10.6-6.2-17.4-15.8-17.4-3.8 0-7.9 1.1-12.1 3.2-14.5 7.2-26.2 24.9-26.2 39.4 0 1.9.2 3.7.6 5.4l-138.9 69.4c.1-1.1.2-2.2.2-3.2 0-10.6-6.2-17.4-15.8-17.4-3.8 0-7.9 1.1-12.1 3.2-14.5 7.2-26.2 24.9-26.2 39.4 0 1.7.2 3.2.5 4.7l-11.1 5.5s-20.8 5.4-34.1 4.2-40.7-10.2-62.7-21.1-40.6-30.1-41-40.1c-.2-3.8 3.6-33.3 22.9-50.5z" fill="#339"/><path d="m216.1 237.2c0 .1 83-47.9 82.9-48l.9-.2c0 .2 69.4-40.6 69.4-40.9l.9-.1c0 .3 2.4 26.5-7.4 47.3-9.9 20.8-20 34.3-20.1 34.4l-.1.1-121.6 61.6v-.7c0-.3-.9-29.6-2.4-37.9s-3.3-15.3-3.3-15.3z" fill="#e5e5e5"/><path d="m116.2 162.5s1.2-8.4 0-10.6c-1.2-2.1-3.3-5.4-6-3s-5.7 9.3-3 15.7 9-2.1 9-2.1z" fill="#2d3134"/><path d="m421.2 129.7s-64.4 44.5-138.4 84.3-112.9 62.4-112.9 62.4l45.7-39.2 163.9-95.6z" fill="#fff" opacity=".3"/><path d="m377.9 142.6-162.2 94.7s15.7-69 71.1-96.8 91.1 2.1 91.1 2.1z" fill="#2d3134"/><path d="m310.3 91.4c-21.6-10.2-39.2-13.3-39.2-15.4s55.5-4.8 89.8 12.4 32.6 32 19.6 30.4-30.4-3-35.9-5.7-15.9-13-34.3-21.7z" fill="#2d3134"/><path d="m381.1 116.5c1.3 0 4.4-.3 4.9-2.6.8-3.4-3.8-12.9-27.1-24.5-25.5-12.7-61.4-13.7-71.8-13.7-5.3 0-9.3.2-12 .5 1.4.5 2.9 1 4.5 1.5 7.2 2.3 18.1 5.8 30.2 11.6 12.3 5.8 21.3 12.5 27.2 16.8 3.1 2.2 5.5 4 7.2 4.9 4.2 2.1 17.2 3.5 28.6 4.8 2.3.3 4.6.5 6.7.7z" fill="#656565"/><path d="m235.6 169.5c2 5.5-30.1 59.7-40.1 62.4-9.9 2.7-39.8 1.8-69.3-14.5s-35-28.9-33.5-33.5c1.5-4.5 58.2-52.2 67.5-53.1s73 32 75.4 38.7z" fill="#2d3134"/><path d="m156.9 287s-4.2-5.6-15.5-6.9c-11.3-1.2-25.1-.1-35.4 9.1-7.7 6.9-10.5 9.8-10.5 9.8s21.8 7.1 32.6 5.6c10.7-1.5 28.8-17.6 28.8-17.6z" fill="#fff" opacity=".2"/><path d="m154.8 285.1s-3.9-5.2-14.3-6.3-23.2-.1-32.7 8.4c-7.1 6.3-9.7 9-9.7 9s20.1 6.6 30.1 5.2c9.9-1.4 26.6-16.3 26.6-16.3z" fill="#e5e5e5"/><path d="m35.6 267.4s-15.2-14.2-14.4-18.2c.8-4.1 12.5-24.3 14-21.3s4.7 7.8 3.5 11.9-3.4 24-3.1 27.6z" fill="#fff" opacity=".2"/><path d="m35.7 264.6s-14.3-14.2-13.6-18.2c.8-4.1 12.5-24.3 14-21.3s4.7 7.8 3.5 11.9c-1.2 4-4.2 23.9-3.9 27.6z" fill="#e5e5e5"/><path d="m126.3 324.5.5 4.4s-44.7-5.7-72.8-23c-28-17.4-34.8-30.9-34.8-30.9s21.6 23.4 48 34.2c27.7 11.3 59.1 15.3 59.1 15.3z" fill="#2d3134"/><path d="m99.1 180.2c5.1-4.9 14.8-13.5 27.1-23.4 20-16.2 31.7-23.7 34.5-23.9h.1c4.1 0 20.4 6.8 38.6 16.2 20.9 10.7 32.1 18.3 33.7 20.6-.2 2.8-5.7 14.7-15.9 31.1-11.3 18.1-19.5 27.1-22.2 27.9-1.5.4-3.4.7-5.6.9-13.2-2-36-7.1-58.2-20.2-18.8-11.1-27.8-21.8-32.1-29.2z" fill="#656565"/><path d="m364.2 138.8 2.1 6.3-62.4 36.4-10-40.2.3-.4c13.2-5.8 26.2-8.7 38.9-8.7 13.3.1 23.9 3.4 31.1 6.6z" fill="#656565"/><path d="m232.7 223.1-2.5-15.3c1.1-2.3 2.2-4.6 3.5-7 9.4-17.8 26-41.7 52.3-55.8l6.2 43.3z" fill="#656565"/><path d="m353.8 169.6c0 2.9 2.4 4.1 5.3 2.7 2.9-1.5 5.3-5 5.3-8s-2.4-4.1-5.3-2.7c-2.9 1.5-5.3 5-5.3 8z" opacity=".2"/><path d="m367.6 160.6 2.3 2.6s-16.7 10.9-18.2 8.7c-1.6-2.1 15.9-11.3 15.9-11.3z" fill="#e5e5e5"/><path d="m282.6 210.1c0 2.9 2.4 4.1 5.3 2.7 2.9-1.5 5.3-5 5.3-8 0-2.9-2.4-4.1-5.3-2.7-2.9 1.5-5.3 5-5.3 8z" opacity=".2"/><path d="m296.4 201 2.3 2.6s-16.7 10.9-18.2 8.7c-1.6-2.1 15.9-11.3 15.9-11.3z" fill="#e5e5e5"/><path d="m216.1 237.2c0 .1 1.8 7 3.3 15.4 1.4 7.6 2.2 32.8 2.4 37.3l79.6-40.3c.1-1.6 1.2-16.5 1.2-30.1 0-14.3-3.6-30.2-3.6-30.3l.9-.2c0 .2 3.6 16.2 3.6 30.5 0 12.6-.9 26.4-1.2 29.6l39.6-20c.9-1.2 10.5-14.3 19.9-34.2 9.7-20.5 7.4-46.5 7.3-46.8l.9-.1c0 .3 2.4 26.5-7.4 47.3-9.9 20.8-20 34.3-20.1 34.4l-.1.1-121.4 61.6v-.7c0-.3-.9-29.6-2.4-37.9s-3.3-15.3-3.3-15.3z" opacity=".2"/><path d="m120.9 286.2c0 3.6 2.9 7.9 6.5 9.7s6.5.3 6.5-3.2c0-3.6-2.9-7.9-6.5-9.7s-6.5-.4-6.5 3.2z" opacity=".3"/><path d="m110.9 288.8c0 2.5 2 5.5 4.5 6.8 2.5 1.2 4.5.2 4.5-2.3s-2-5.5-4.5-6.8c-2.5-1.2-4.5-.2-4.5 2.3z" opacity=".3"/><path d="m135.3 292.1c0 1.3 1.1 3 2.4 3.6 1.3.7 2.4.1 2.4-1.2s-1.1-3-2.4-3.6c-1.3-.7-2.4-.2-2.4 1.2z" fill="#fff"/><path d="m123.6 288.9c0 1.8 1.5 4 3.2 4.9 1.8.9 3.2.2 3.2-1.6s-1.5-4-3.2-4.9-3.2-.2-3.2 1.6z" fill="#fff" opacity=".4"/><path d="m112.6 290.6c0 1.3 1.1 3 2.4 3.6 1.3.7 2.4.1 2.4-1.2s-1.1-3-2.4-3.6c-1.3-.7-2.4-.1-2.4 1.2z" fill="#fff" opacity=".4"/><path d="m138.9 284c0 1.3 1.1 3 2.4 3.6s2.4.1 2.4-1.2-1.1-3-2.4-3.6-2.4-.1-2.4 1.2z" fill="#fff"/><path d="m32 231.4c0 1.3 1.1 3 2.4 3.6 1.3.7 2.4.1 2.4-1.2s-1.1-3-2.4-3.6c-1.3-.7-2.4-.2-2.4 1.2z" fill="#fff"/><path d="m27.5 237.7c0 1.3 1.1 3 2.4 3.6 1.3.7 2.4.1 2.4-1.2s-1.1-3-2.4-3.6c-1.3-.7-2.4-.1-2.4 1.2z" fill="#fff"/><path d="m26.1 241.9c0 3.1 2.5 6.8 5.6 8.3s5.6.3 5.6-2.8-2.5-6.8-5.6-8.3-5.6-.2-5.6 2.8z" opacity=".3"/><path d="m29.4 245.2c0 1.6 1.3 3.5 2.8 4.3 1.6.8 2.8.1 2.8-1.4s-1.3-3.5-2.8-4.3-2.8-.2-2.8 1.4z" fill="#fff" opacity=".4"/><path d="m30.6 250.3c0-2.5 2-3.5 4.5-2.3.8.4 1.5.9 2.1 1.6-.4 2.7-.8 5.5-1.1 7.9-.3-.1-.7-.2-1.1-.4-2.4-1.2-4.4-4.3-4.4-6.8z" opacity=".3"/><path d="m154.8 285c-4.9-.4-18.7-1.1-27.4 1s-23.8 7.9-29.2 10.1c.6-.6 3.4-3.4 9.6-8.9 9.5-8.5 22.3-9.5 32.7-8.4 9.5 1 13.6 5.4 14.3 6.2z" opacity=".3"/><path d="m238.3 212.9s-7.5 3.6-10.9 8.1c-3.3 4.5-3.3 6.9-3.3 6.9s20.8 4.5 31.1-2.1c10.9-7.1-16.9-12.9-16.9-12.9z" fill="#2d3134"/><path d="m183.6 230.3-3.8-.3-35-17-1.9-3.5-21.3-9.9.9-1.7 40.7 18.1-1.2 1.5-15.8-7 .9 1 34.2 16.4z" fill="#2d3134"/><path d="m146.6 220.9h-3.3l-27.9-20.7-3.4-8-10.7-13.6.7-1 20.1 22.9-.8 1.2-5.4-4.8 1.5 2.7 28.3 19.6z" fill="#2d3134"/><path d="m104.4 286.9-11.6 10.4s-16.8-3.2-31.8-10.9-24-18.1-24-18.1l1.2-15.2s6.8 12.3 26.4 22c17.4 8.7 39.8 11.8 39.8 11.8z" fill="#2d3134"/><path d="m57.8 308.9c-21.9-11-40.6-29.6-41-39.6-.1-1.7-.2-4.5 2.2-12.4.2-.7 1.1-.8 1.5-.2 7.7 11 20.8 25.3 41.2 35.1 21.2 10.2 47.2 18.9 67.2 17.9 4.7-.2 5.5 4.5 5.9 11.9.2 4.8-3.8 8.8-8.6 8.3-17.2-1.7-44.8-9.2-68.4-21z" opacity=".29"/><path d="m430.6 148.5s-6.3-16.1-9.8-21.1-7.4-9.5-7.4-9.5l1.1-3s7.4 2.6 8.7 4.8c1.4 2.3 8.9 25.6 8.9 25.6z" fill="#cc291f"/><path d="m101 183.1c-.7-1-1.3-2-1.8-2.9 5.1-4.9 14.8-13.5 27.1-23.4 20-16.2 31.7-23.7 34.5-23.9h.1c4.1 0 20.4 6.8 38.6 16.2 20.9 10.7 32.1 18.3 33.7 20.6-.1.9-.7 2.9-1.9 5.6-42.7-13.8-89.4-11.1-130.3 7.8z" opacity=".2"/><path d="m71.6 303.2v14.6l-26.3-13.1v-14.5z" fill="#e5e5e5"/><path d="m35.7 264.6s-14.3-14.2-13.6-18.2c.8-4.1 12.5-24.3 14-21.3s4.7 7.8 3.5 11.9c-1.2 4-4.2 23.9-3.9 27.6z" opacity=".2"/><g fill="#2d3134"><path d="m234.2 173.9c3.2-7.9 25.4-33.1 50-45.2 31-15.2 58-15.2 63.5-14.4l.2-1.3c-5.6-.8-33-.8-64.3 14.5-10.9 5.3-22.7 14-33.4 24.4-8.5 8.2-15.4 16.9-17.3 21.5z"/><path d="m154.9 135 .1-.1c10-7.3 36.7-26.7 61.3-38.7 30.9-15.1 55-19.8 60.3-19.8v-1.4c-5.4 0-29.8 4.7-60.9 20-24.7 12.1-51.4 31.5-61.5 38.8l-.1.1z"/><path d="m245.9 260v-18.6l6-3.1c2.3-1.2 3.8-1.8 4.5-2 1.1-.3 2-.1 2.7.5s1.1 1.6 1.1 3.1c0 1.1-.2 2.2-.6 3.2s-.9 1.9-1.6 2.6c-.6.8-1.3 1.4-1.9 1.9-.9.6-2.2 1.4-3.9 2.3l-2.5 1.2v7zm3.7-17.3v5.3l2.1-1c1.5-.8 2.5-1.4 3-1.8s.9-1 1.2-1.5c.3-.6.4-1.1.4-1.7 0-.7-.2-1.1-.6-1.4-.4-.2-.9-.3-1.5-.1-.4.1-1.4.6-2.7 1.3z"/><path d="m262.5 242.4c0-1.9.3-3.6.9-5.2.4-1.2 1-2.3 1.7-3.4s1.5-2.1 2.4-2.9c1.2-1.1 2.5-2 4-2.8 2.7-1.4 4.9-1.7 6.6-.8 1.6.9 2.5 2.8 2.5 5.8s-.8 5.8-2.5 8.3c-1.6 2.5-3.8 4.5-6.6 5.9s-5 1.7-6.6.8c-1.6-.8-2.4-2.7-2.4-5.7zm3.8-2.1c0 2.1.5 3.5 1.5 4 1 .6 2.2.5 3.7-.3s2.7-1.9 3.7-3.5 1.4-3.4 1.4-5.6c0-2.1-.5-3.5-1.4-4.1s-2.2-.5-3.7.3-2.8 2-3.7 3.5-1.5 3.6-1.5 5.7z"/><path d="m283.6 240.8v-18.5l3.8-1.9v15.3l9.3-4.8v3.1z"/><path d="m299.2 232.9v-18.6l3.8-1.9v18.6z"/><path d="m318.5 216.2 3.6-.7c-.6 2.3-1.5 4.3-2.8 5.9s-2.9 3-4.9 4c-2.5 1.3-4.5 1.5-6.1.6s-2.4-2.8-2.4-5.7c0-3.1.8-5.9 2.4-8.4s3.7-4.5 6.3-5.8c2.3-1.2 4.1-1.4 5.5-.8.8.4 1.5 1.2 1.9 2.5l-3.7 2.8c-.2-.9-.7-1.4-1.4-1.6s-1.5-.1-2.5.5c-1.4.7-2.5 1.8-3.4 3.2s-1.3 3.3-1.3 5.5c0 2.4.4 3.8 1.3 4.4.8.6 1.9.5 3.3-.2 1-.5 1.9-1.3 2.6-2.3.7-1.1 1.3-2.4 1.6-3.9z"/><path d="m325.3 219.6v-18.6l13.8-7v3.1l-10 5.1v4.1l9.3-4.8v3.1l-9.3 4.8v5.1l10.4-5.3v3.1z"/></g><path d="m151.8 295.8c7-7.9 47-49.9 57.4-66.3 13.6-21.3 35.8-73.4 76.7-92.9 41-19.5 87.4-11.2 101.4-10.2 8.5.5 21.7-2.6 30.9-5.2 6 9.1 10.7 17.9 13.8 24.2l1.3 4.2c2.3 7.5 1.3 15.7-2.7 22.4-3.4 5.7-7.7 12.3-10.9 15.9-2.8 3.1-6.2 6.4-9.1 9.2 0-.2 0-.5 0-.7 0-10.6-6.2-17.4-15.8-17.4-3.8 0-7.9 1.1-12.1 3.2-14.5 7.2-26.2 24.9-26.2 39.4 0 1.9.2 3.7.6 5.4l-138.9 69.4c.1-1.1.2-2.2.2-3.2 0-10.6-6.2-17.4-15.8-17.4-3.8 0-7.9 1.1-12.1 3.2-14.5 7.2-26.2 24.9-26.2 39.4 0 1.7.2 3.2.5 4.7l-11.1 5.5s-5.8 1.5-13.2 2.8c1.8-14.7 5.5-29 11.3-35.6z" opacity=".11"/><path d="m268 131-58-30 22-11 59 29z" fill="#2d3134"/><path d="m270 100 15.5 7.8c2.7 1.4 4.5 4.2 4.5 7.2 0 3.1-1.7 5.9-4.5 7.2l-11.9 6c-2.3 1.1-5 1.1-7.2 0l-16.4-8.2v-10z" fill="#39c"/><path d="m214.5 87.8 11.9-6c2.3-1.1 5-1.1 7.2 0l16.4 8.2-20 10v10l-15.5-7.8c-2.7-1.4-4.5-4.2-4.5-7.2 0-3.1 1.7-5.9 4.5-7.2z" fill="#cc291f"/><path d="m250 90 20 10-20 10v10l-20-10v-10z" fill="#e5e5e5"/><path d="m250 110v10l-20-10v-10z" opacity=".29"/><path d="m230 100v10l-15.5-7.8c-2.7-1.4-4.5-4.2-4.5-7.2 0-1.6.5-3.1 1.3-4.4z" opacity=".29"/><path d="m270 120v9c-1.2 0-2.5-.3-3.6-.9l-16.4-8.1v-10z" opacity=".29"/><path d="m288.7 110.6c.8 1.3 1.3 2.8 1.3 4.4 0 3.1-1.7 5.9-4.5 7.2l-11.9 6c-1.1.6-2.4.9-3.6.9v-9z" opacity=".11"/><path d="m288 111-18 9-20-10 20 8z" fill="#fff" opacity=".8"/><path d="m230 100-17-9-1-1 17-9-15 9z" fill="#fff" opacity=".8"/></svg>