<svg enable-background="new 0 0 48 32" viewBox="0 0 48 32" xmlns="http://www.w3.org/2000/svg"><path d="m30 26 14-7-26-13-14 7z" fill="#262626" opacity=".3"/><path d="m31.3 22 11.5-5.8-25-12.5-11.5 5.5 14.4 7.3.6.5z" fill="#2d3134"/><path d="m27.1 16.7c-.8-.4-1.5-.4-2-.2l-1.1.6c-.6.3-.9.8-.9 1.7 0 1.6 1.3 3.6 2.9 4.4.8.4 1.5.4 2.1.2 0 0 1.1-.6 1.2-.7.5-.3.8-.8.8-1.6-.1-1.6-1.4-3.6-3-4.4z" fill="#2d3134"/><path d="m28 23.3c.2-.1 1.1-.6 1.2-.6.5-.3.8-.8.8-1.6 0-.7-.2-1.4-.6-2l-1.1.6c.4.7.6 1.4.6 2 0 .8-.3 1.4-.9 1.6z" opacity=".39"/><path d="m25.9 18c-1.2-.6-2.2-.1-2.2 1.1s1 2.7 2.2 3.3 2.2.1 2.2-1.1c.1-1.2-.9-2.7-2.2-3.3zm1.5 1.5c.2.3.3.6.1.7-.1.1-.8 0-1.1-.1 0-.1-.1-.1-.1-.2.1-.3.3-.8.5-.9.1-.1.4.2.6.5zm-1.5-1.3c.3.2.6.4.6.6s-.3.7-.5.9c0 0-.1 0-.1-.1s-.1 0-.1 0c-.2-.4-.5-1.1-.5-1.3.1-.3.3-.3.6-.1zm-1.4-.1c.2-.1.5-.1.7.2.1.2.4 1 .5 1.3-.1 0-.1 0-.1.1-.3-.3-1-.8-1.1-1-.3-.4-.2-.5 0-.6zm-.6 1.1c0-.3.1-.5.4-.4.2.1.8.7 1.1 1v.1s0 .1 0 .1c-.3 0-.9 0-1.1-.1-.3-.1-.4-.4-.4-.7zm.6 1.7c-.2-.3-.3-.6-.1-.7.1-.1.8 0 1.1.1 0 .1.1.1.1.2-.1.3-.3.8-.5.9-.1.1-.4-.2-.6-.5zm1.4 1.3c-.3-.2-.6-.4-.6-.6s.3-.7.5-.9c0 0 .1 0 .1.1h.1c.2.4.5 1.1.5 1.3 0 .3-.2.3-.6.1zm1.5.2c-.2.1-.5.1-.7-.2-.1-.2-.4-1-.5-1.3.1 0 .1 0 .1-.1.3.3 1 .8 1.1 1 .3.3.2.4 0 .6zm.2-.8c-.2-.1-.8-.7-1.1-1v-.1-.1c.3 0 .9 0 1.1.1.3.1.4.4.4.7s-.1.5-.4.4z" fill="#c4c6cc"/><path d="m26.1 22.3c-1.2-.6-2.2-2.1-2.2-3.3 0-.6.2-1 .6-1.2-.5.2-.8.6-.8 1.3 0 1.2 1 2.7 2.2 3.3.6.3 1.2.3 1.6.1-.4.2-.8.1-1.4-.2z" opacity=".06"/><path d="m28.9 21.7c0 1.6-1.3 2.3-2.9 1.5s-3-2.8-3-4.5 1.3-2.3 2.9-1.5c1.7.9 3 2.9 3 4.5z" opacity=".06"/><path d="m12.1 9.2c-.8-.4-1.5-.4-2-.2l-1.2.6c-.5.2-.9.8-.9 1.6 0 1.6 1.3 3.6 2.9 4.4.8.4 1.5.4 2.1.2 0 0 1.1-.6 1.2-.7.5-.3.8-.8.8-1.6 0-1.5-1.3-3.5-2.9-4.3z" fill="#2d3134"/><path d="m13 15.8c.2-.1 1.1-.6 1.2-.6.5-.3.8-.8.8-1.6 0-.7-.2-1.4-.6-2l-1.1.6c.4.7.6 1.4.6 2 0 .8-.3 1.4-.9 1.6z" opacity=".39"/><path d="m10.9 10.5c-1.2-.6-2.2-.1-2.2 1.1s1 2.7 2.2 3.3 2.2.1 2.2-1.1c.1-1.2-.9-2.7-2.2-3.3zm1.5 1.5c.2.3.3.6.1.7-.1.1-.8 0-1.1-.1 0-.1-.1-.1-.1-.2.1-.3.3-.8.5-.9.1-.1.4.2.6.5zm-1.5-1.3c.3.2.6.4.6.6s-.3.7-.5.9c0 0-.1 0-.1-.1h-.1c-.2-.4-.5-1.1-.5-1.3.1-.3.3-.3.6-.1zm-1.4-.1c.2-.1.5-.1.7.2.1.2.4 1 .5 1.3-.1 0-.1 0-.1.1-.3-.3-1-.8-1.1-1-.3-.4-.2-.5 0-.6zm-.6 1.1c0-.3.1-.5.4-.4.2.1.8.7 1.1 1v.1.1c-.3 0-.9 0-1.1-.1-.3-.1-.4-.4-.4-.7zm.6 1.7c-.2-.3-.3-.6-.1-.7.1-.1.8 0 1.1.1 0 .1.1.1.1.2-.1.3-.3.8-.5.9-.1.1-.4-.2-.6-.5zm1.4 1.3c-.3-.2-.6-.4-.6-.6s.3-.7.5-.9c0 0 .1 0 .1.1h.1c.2.4.5 1.1.5 1.3 0 .3-.2.3-.6.1zm1.5.2c-.2.1-.5.1-.7-.2-.1-.2-.4-1-.5-1.3.1 0 .1 0 .1-.1.3.3 1 .8 1.1 1 .3.3.2.4 0 .6zm.2-.8c-.2-.1-.8-.7-1.1-1v-.1-.1c.3 0 .9 0 1.1.1.3.1.4.4.4.7s-.1.5-.4.4z" fill="#c4c6cc"/><path d="m11.1 14.8c-1.2-.6-2.2-2.1-2.2-3.3 0-.6.2-1 .6-1.2-.5.2-.8.6-.8 1.3 0 1.2 1 2.7 2.2 3.3.6.3 1.2.3 1.6.1-.4.2-.8.1-1.4-.2z" opacity=".06"/><path d="m13.9 14.2c0 1.6-1.3 2.3-2.9 1.5-1.7-.9-3-2.8-3-4.5s1.3-2.3 2.9-1.5c1.7.9 3 2.9 3 4.5z" opacity=".06"/><path d="m39.8 11.2-3.8-5.2-8-4-7.3-.3-6.3-1.5-9 4.5v4l2 1.3c.6-1.2 1.9-1.6 3.5-.8 1.8.9 3.2 2.9 3.5 4.7l8 4.1c.2-1.7 1.7-2.3 3.5-1.4s3.3 3 3.5 4.9h.3l2.8 1.3 10.5-5.3v-4z" fill="#cc291f"/><path d="m26.7 11.2 9.4-4.6 3.2 4.4-9.4 4.6z" fill="#39c"/><path d="m30.2 9.5 5.9-2.9 3.2 4.4z" opacity=".15"/><path d="m12.7 6.3 8.6-4.2 5.1.1-8.5 4.3z" fill="#39c"/><path d="m12.7 6.3 10.2-2.3-5 2.5z" fill="#fff" opacity=".39"/><path d="m13.3 6.2 8.3-4.1h-.3l-8.6 4.2z" fill="#2d3134"/><path d="m43 14-1.5.7v1l1.5-.7z" fill="#f90"/><path d="m32.5 19.2 2-1v1l-2 1-.5-.2v-1z" fill="#f90"/><path d="m35.5 18.2 5-2.5v1.3l-5 2.5z" fill="#fff"/><path d="m6 5.5-.5-.3v1.8l.5.2z" fill="#fc0"/><path d="m22.3 12.7 5.5 2.8-2.8-4.5-2.7-1.4z" fill="#39c"/><path d="m21.5 9.2-3.5-1.7h-6.2l9.7 4.9z" fill="#39c"/><path d="m22.8 12.7v-2.8l-.5-.3v3.1l5.5 2.8-.3-.4z" opacity=".15"/><path d="m12.3 7.5h-.5l9.7 4.9v-.3z" opacity=".15"/><path d="m29.8 16.2-3.8-5.2-8-4-7.3-.3-5.3-2v4l2 1.3c.6-1.2 1.9-1.6 3.5-.8 1.8.9 3.2 2.9 3.5 4.7l7.2 3.7.8.4c.2-1.7 1.7-2.3 3.5-1.4s3.3 3 3.5 4.9h.3l2.8 1.3v-4z" opacity=".06"/><path d="m32.3 23.2 11.5-5.7v-1.5l-11.5 5.7-1-.5v1.5z" fill="#cc291f"/><path d="m32.3 23.2 11.5-5.7v-1.5l-11.5 5.7-1-.5v1.5z" opacity=".39"/><path d="m32.3 21.2 11-5.5.5.3-11.5 5.7-1-.5.5-.2z" fill="#cc291f"/><path d="m5.3 8 1 .5v1l-1-.5z" fill="#cc291f"/><path d="m5.3 8 1 .5v1l-1-.5z" opacity=".39"/><path d="m6.3 8.5v1l.2-.3v-1l-1-.5-.2.3z" fill="#cc291f"/><path d="m39.8 11.2-10 5-3.8-5.2 10-5z" opacity=".39"/><path d="m13.3 7.4-1 .4c-.2.2-.3.3-.3.5 0 .2.2.4.4.4h1.8l-.3-1c-.1-.2-.4-.4-.6-.3z" fill="#cc291f"/><path d="m13.3 7.4-1 .4c-.2.2-.3.3-.3.5 0 .2.2.4.4.4h1.8l-.3-1c-.1-.2-.4-.4-.6-.3z" opacity=".39"/><path d="m12.4 8.5c-.1 0-.2-.1-.2-.2s0-.2.1-.2l1-.4h.1c.1 0 .2.1.2.1l.2.7z" fill="#2d3134"/><path d="m43 13.5-10.5 5.2v2.4l10.5-5.3z" opacity=".39"/></svg>