<?xml version="1.0" encoding="UTF-8" standalone="no"?>
<svg
   xmlns:dc="http://purl.org/dc/elements/1.1/"
   xmlns:cc="http://creativecommons.org/ns#"
   xmlns:rdf="http://www.w3.org/1999/02/22-rdf-syntax-ns#"
   xmlns:svg="http://www.w3.org/2000/svg"
   xmlns="http://www.w3.org/2000/svg"
   xmlns:sodipodi="http://sodipodi.sourceforge.net/DTD/sodipodi-0.dtd"
   xmlns:inkscape="http://www.inkscape.org/namespaces/inkscape"
   enable-background="new 0 0 80 240"
   viewBox="0 0 4.5242543 17.372505"
   version="1.1"
   id="svg2807"
   sodipodi:docname="city--kid08.svg"
   width="4.5242543"
   height="17.372505"
   inkscape:version="0.92.2 (5c3e80d, 2017-08-06)">
  <metadata
     id="metadata2813">
    <rdf:RDF>
      <cc:Work
         rdf:about="">
        <dc:format>image/svg+xml</dc:format>
        <dc:type
           rdf:resource="http://purl.org/dc/dcmitype/StillImage" />
        <dc:title></dc:title>
      </cc:Work>
    </rdf:RDF>
  </metadata>
  <defs
     id="defs2811" />
  <sodipodi:namedview
     pagecolor="#ffffff"
     bordercolor="#666666"
     borderopacity="1"
     objecttolerance="10"
     gridtolerance="10"
     guidetolerance="10"
     inkscape:pageopacity="0"
     inkscape:pageshadow="2"
     inkscape:window-width="880"
     inkscape:window-height="480"
     id="namedview2809"
     showgrid="false"
     fit-margin-top="0"
     fit-margin-left="0"
     fit-margin-right="0"
     fit-margin-bottom="0"
     inkscape:zoom="1.2791667"
     inkscape:cx="6.561453"
     inkscape:cy="35.909908"
     inkscape:window-x="0"
     inkscape:window-y="0"
     inkscape:window-maximized="1"
     inkscape:current-layer="svg2807" />
  <g
     id="g2828"
     transform="matrix(0.1,0,0,0.1,-1.6988198,-6.0361125)">
    <path
       id="path2781"
       d="m 27.5,215.9 c -8.3,5.8 -8.9,10.4 0,15.2 9.8,5.2 17,2.9 24.6,-1.5 7.6,-4.3 7.7,-10.2 -3.4,-14.6 -9.1,-3.6 -16.5,-2.3 -21.2,0.9 z"
       inkscape:connector-curvature="0"
       style="opacity:0.2" />
    <path
       id="path2783"
       d="m 24.4,222 c -0.7,0.7 -0.8,2.3 0.7,3.5 1.5,1.2 6.5,-0.2 8.3,-0.6 2.6,-0.6 8.5,-1 9.9,-3.5 0.6,-1.1 0.6,-4.5 -3.6,-4.5 -3.6,-0.1 -15.3,5.1 -15.3,5.1 z"
       inkscape:connector-curvature="0"
       style="fill:#262626" />
    <path
       id="path2785"
       d="m 29.4,223.6 c 0,0 3.5,-0.7 6,-1.1 2.4,-0.4 6.8,-1.1 7.3,-2.2 0.6,-1.2 0.4,-3.9 -3.4,-4 -3.1,0 -3.6,-0.4 -5.7,-0.5 0,0.6 1.9,0.8 0.7,2.8 -1.3,2 -4.9,5 -4.9,5 z"
       inkscape:connector-curvature="0"
       style="fill:#ff9900" />
    <path
       id="path2787"
       d="m 34.5,226.7 c -0.7,0.7 -1.6,2.7 -0.1,3.9 1.5,1.2 7,0.3 10.3,-0.9 1.8,-0.7 6.4,-1.1 7.6,-3.1 0.7,-1.1 1.1,-4.2 -2.5,-4.5 -7.6,-0.6 -15.3,4.6 -15.3,4.6 z"
       inkscape:connector-curvature="0"
       style="fill:#262626" />
    <path
       id="path2789"
       d="m 23.4,95.9 c -2.1,1.2 -3.6,3.1 -3.3,8.2 0.3,5 -0.7,8 -1.8,12.4 -1.1,4.4 -1.8,8.1 -0.9,10.6 1,2.6 4.7,9.4 5.6,12.4 0.9,3 1.6,7.1 1.6,7.1 l 3.8,-4 c 0,0 -1.1,-9.2 -2,-12.3 -0.9,-3.1 -2.3,-6.7 -2.3,-6.7 0,0 1.7,-4.1 2.3,-7.4 0.7,-3.3 -3,-20.3 -3,-20.3 z"
       inkscape:connector-curvature="0"
       style="fill:#fbd7c7" />
    <path
       id="path2791"
       d="m 30.2,84.9 c 0,0 1.4,5.4 0.3,6.5 -1.1,1.1 -4.6,3.7 -5.9,4 -1.3,0.3 -3.7,2.7 -3.5,5 0.2,2.3 1.6,5.7 2,8.4 0.4,2.6 1.8,5 3.2,9.4 1.4,4.4 4,8.1 2,11.6 -2,3.5 -6.9,9.6 -5.9,16.4 1,6.8 3.9,15.7 4.3,24.2 0.4,8.5 1.1,8.9 -0.6,14.2 -1.8,5.3 -2,10.8 -1.1,19 0.9,8.2 2.3,12.3 0.8,14.4 -1.5,2.1 -2.1,4.5 -0.6,5.5 0.9,0.6 2.4,0.7 4.3,0.2 2.1,-2.2 6.8,-5.6 4.4,-7.6 -0.5,-0.4 -0.6,-0.4 -1,-1.4 -0.6,-1.6 -0.9,-6.2 -0.2,-9.4 0.7,-3.2 1.3,-6.3 1.7,-11.7 0.4,-5.4 0.6,-6.4 1,-7.3 0.4,-0.9 1.6,-6.5 1.6,-6.5 0,0 -0.4,5.3 -0.1,7.3 0.2,2.1 0.4,3.2 -0.3,6.2 -0.6,3 -2.4,7.2 -2.1,10.5 0.4,3.3 2.3,13.2 2.1,15.6 -0.2,2.4 -2.1,5.3 -2.4,6.4 -0.3,1.1 -0.8,3.7 2.4,3.7 3.2,0 13.7,-1.9 14.1,-4 0.4,-2.1 -5.4,-2.6 -6.7,-3 -1.3,-0.4 -2.5,-1.3 -2,-5.2 0.5,-3.9 4.1,-18 4.4,-19.4 0.3,-1.4 0.6,-5.9 0.6,-8.7 0,-2.8 4.5,-21.4 5.1,-25.3 0.6,-3.9 0.3,-14 0.1,-18.9 -0.1,-4.9 -2,-11.1 -2,-13.3 0,-2.2 3.1,-18 2.6,-21.1 -0.5,-3.1 -0.7,-7 -3.5,-8.7 -2.8,-1.8 -7.3,-5 -7.8,-7.2 C 41,92.5 41.3,87.5 42,86.6 42.7,85.7 46,86.2 46.6,84.1 47.2,82 49.4,74 45.3,67.1 41.2,60.2 28.5,61.9 26,68.9 c -2.3,7 0.8,14.6 4.2,16 z"
       inkscape:connector-curvature="0"
       style="fill:#fbd7c7" />
    <path
       id="path2793"
       d="M 49.9,84.9 C 47.8,88 40,89.5 33.8,88.9 27.6,88.3 20.1,82.2 22.9,70.2 25.7,58.2 39,59.4 43.6,62.3 c 3.8,2.4 7.5,6 6,11.1 -1.6,5.4 -3.9,10.4 0.3,11.5 z"
       inkscape:connector-curvature="0"
       style="fill:#825012" />
    <path
       id="path2795"
       d="m 39,229.3 c 0,0 2.8,-0.3 5.8,-1 2.6,-0.6 6.5,-1.4 7.1,-3.3 0.8,-2.3 -2.2,-3.2 -4.6,-3.3 -1.9,0 -3.6,-0.1 -4.7,-0.2 0,0.3 1.5,0.3 -0.1,3.4 -1.3,3.1 -3.5,4.4 -3.5,4.4 z"
       inkscape:connector-curvature="0"
       style="fill:#ff9900" />
    <path
       id="path2797"
       d="m 51.8,131.1 c 0.1,4.4 11.1,26.3 8.9,32 -0.6,1.6 -2.7,3.1 -8.8,4.8 -6.1,1.7 -13.5,2 -17.5,-2.1 -4,-4.1 -13.8,-5.1 -15.8,-6.2 -2,-1.1 -0.6,-10.9 1,-16.6 1.5,-5.6 7.7,-13.9 7.7,-13.9 1,-2.7 -0.4,-8.6 -1.9,-12 -1.5,-3.4 -3.4,-11.5 -3.6,-12.3 -0.2,-0.8 -1.6,-4.5 -0.7,-6.5 0.9,-1.9 3.3,-3.3 4.3,-3.7 1,-0.4 3.3,-2.1 3.3,-2.1 0,0 0.3,3 4.8,4 4.5,1.1 8.8,-1.2 8.8,-1.2 0,0 3.3,3.8 5.3,4.9 2,1.1 5.7,4.3 5.5,11.2 -0.1,7.1 -1.4,15.3 -1.3,19.7 z"
       inkscape:connector-curvature="0"
       style="fill:#cc291f" />
    <g
       id="g2805"
       style="fill:#fbd7c7">
      <path
         id="path2799"
         d="m 42.7,108.5 c -0.5,-3.8 4.8,-8.7 7.6,-6.1 2.8,2.6 2.8,5 2.4,7.4 -0.4,2.4 -1.3,3.5 -0.9,5.6 0.4,2.1 0.9,9 0.9,12.3 0,3.3 -0.2,5.1 0.5,6 0.7,0.9 3.2,6.9 3.8,10 0.6,3.1 2.3,7 3.5,8.9 1.1,1.8 1.9,2.5 1.7,5 -0.2,2.5 -1.3,5.9 -3.5,6.6 -2.5,0.8 -3.3,-0.5 -3.3,-0.9 0,-0.4 1.3,-1 1,-2.4 -0.3,-1.4 -1.6,-3 -1.5,-4.7 0.1,-1.7 0.4,-2.1 0.4,-2.1 0,0 -5.3,-10.2 -7,-12.8 -1.7,-2.6 -2.8,-5.7 -2.8,-7.7 0,-2 -0.4,-10.8 -1.1,-15.2 -0.7,-4.4 -1.3,-6.3 -1.7,-9.9 z"
         inkscape:connector-curvature="0" />
      <path
         id="path2801"
         d="m 44.5,222.1 c 0,0.2 0.3,1 0,2.2 -0.3,1.3 -1.4,2.5 -1.4,2.5 0,0 5.7,-0.1 5.3,-3.5 -0.1,-1.2 -3.1,-1.2 -3.9,-1.2 z"
         inkscape:connector-curvature="0" />
      <path
         id="path2803"
         d="m 35.6,216.5 c 0.2,0.3 0.5,0.4 0.1,2 -0.3,1.3 -1.3,2.2 -1.3,2.2 0,0 5.1,-0.3 5.1,-2.3 -0.1,-1.5 -3.2,-1.9 -3.9,-1.9 z"
         inkscape:connector-curvature="0" />
    </g>
  </g>
</svg>
