<?xml version="1.0" encoding="UTF-8" standalone="no"?>
<svg
   xmlns:dc="http://purl.org/dc/elements/1.1/"
   xmlns:cc="http://creativecommons.org/ns#"
   xmlns:rdf="http://www.w3.org/1999/02/22-rdf-syntax-ns#"
   xmlns:svg="http://www.w3.org/2000/svg"
   xmlns="http://www.w3.org/2000/svg"
   xmlns:sodipodi="http://sodipodi.sourceforge.net/DTD/sodipodi-0.dtd"
   xmlns:inkscape="http://www.inkscape.org/namespaces/inkscape"
   enable-background="new 0 0 160 240"
   viewBox="0 0 12.179539 19.603678"
   version="1.1"
   id="svg2882"
   sodipodi:docname="city--kid09.svg"
   width="12.179539"
   height="19.603678"
   inkscape:version="0.92.2 (5c3e80d, 2017-08-06)">
  <metadata
     id="metadata2888">
    <rdf:RDF>
      <cc:Work
         rdf:about="">
        <dc:format>image/svg+xml</dc:format>
        <dc:type
           rdf:resource="http://purl.org/dc/dcmitype/StillImage" />
        <dc:title></dc:title>
      </cc:Work>
    </rdf:RDF>
  </metadata>
  <defs
     id="defs2886" />
  <sodipodi:namedview
     pagecolor="#ffffff"
     bordercolor="#666666"
     borderopacity="1"
     objecttolerance="10"
     gridtolerance="10"
     guidetolerance="10"
     inkscape:pageopacity="0"
     inkscape:pageshadow="2"
     inkscape:window-width="880"
     inkscape:window-height="480"
     id="namedview2884"
     showgrid="false"
     fit-margin-top="0"
     fit-margin-left="0"
     fit-margin-right="0"
     fit-margin-bottom="0"
     inkscape:zoom="1.2791667"
     inkscape:cx="1.9352463"
     inkscape:cy="27.364517"
     inkscape:window-x="0"
     inkscape:window-y="0"
     inkscape:window-maximized="1"
     inkscape:current-layer="svg2882" />
  <g
     id="g2899"
     transform="matrix(0.1,0,0,0.1,-2.7165625,-3.9544285)">
    <path
       id="path2864"
       d="m 27.9,235 c 7.1,3.4 33.1,-9 46.8,-14.4 10.1,-4 23.8,-9.2 17.7,-12.4 -4.2,-2.2 -9.2,-0.6 -23.4,4.5 -14.8,5.4 -47.1,19.5 -41.1,22.3 z"
       inkscape:connector-curvature="0"
       style="opacity:0.2" />
    <path
       id="path2866"
       d="m 100.4,70.4 c -0.4,0.8 -1.2,7.1 0,8.7 0.6,0.8 2.5,2.6 5.6,2 3.1,-0.6 4.1,-2 5.7,-3 1.6,-1 6.6,-5.8 9.5,-7.6 2.9,-1.7 6.7,-3.9 6.7,-3.9 0,0 1.9,-6 4.8,-9 2.9,-3 5.2,-7.3 5.9,-9 0.7,-1.7 3.1,-6.6 6.1,-8.6 3,-2 5.6,3.1 3.5,5.3 -2.1,2.2 -4.6,3.3 -4.9,4.1 -0.3,0.8 -3.6,8.5 -5.5,12.5 -1.9,4 -3.2,7.5 -3.9,8.4 -0.7,0.9 -13.6,9.7 -16.2,13.4 -2.6,3.8 -6.4,7.7 -6.8,10.4 -0.5,2.7 -1.9,14.1 -3.8,18.8 -1.8,4.7 -4.5,14.2 -4.2,17.4 0.3,3.2 1.6,8.4 1.6,13.9 0,5.5 -0.1,17 -0.9,20.4 -0.8,3.3 -2.2,7 -2.7,8.7 -0.5,1.7 -7.3,15.8 -9.8,21.9 -2.5,6.1 -3.4,7.1 -3.4,7.1 l -0.6,7.6 c 0,0 -7.6,-8.7 -7.6,-9.3 0.1,-0.6 3.6,-2.4 4.5,-3.5 0.9,-1.1 2,-7 2.6,-11.2 0.6,-4.2 2.9,-12.3 4.4,-15.4 1.5,-3.1 2.1,-5.1 1.6,-8.1 -0.6,-3 -3.4,-21.6 -3.4,-21.6 0,0 -3.1,-2 -4.5,-3.7 -1.4,-1.7 -2.2,-2.9 -2.2,-2.9 0,0 -5.1,6.3 -8.4,9.4 -3.3,3.1 -7.3,9.4 -8.3,10.5 -1,1.1 -2,2.2 -3.3,2.5 -1.3,0.3 -3,2.7 -3.9,3.5 -0.8,0.8 -5.5,4.1 -7.2,5.2 -1.7,1.1 -2,2.9 -3.3,4.1 -1.3,1.1 -2.8,2 -3.4,2.5 -0.6,0.5 -1.6,1.9 -1.6,1.9 0,0 -0.5,-9.2 1.1,-10.3 1.6,-1.1 5.4,-8.8 7.6,-10.6 2.1,-1.7 5.7,-4.1 5.7,-4.1 0,0 7.4,-11.1 11,-18.1 3.6,-7 6.4,-15 9.6,-18 3.2,-2.9 5.8,-5.2 5.8,-5.2 0,0 -0.9,-6.3 -2.2,-9 -1.3,-2.8 -2.2,-5.9 -3.1,-7.9 -0.9,-2 -3.4,-5.1 -6.4,-7.3 -2.9,-2.2 -9.3,-6 -13,-7.4 C 55.5,74.5 53.7,73.6 50.8,69.5 48,65.7 41,54.6 40.5,54.5 40,54.4 36.1,53 33.8,52.5 31.5,52 28.2,50.7 28.2,50.3 c 0,-0.4 0.6,-1.7 2.4,-2 1.8,-0.3 7.2,0 7.6,-0.2 0.4,-0.2 1.8,-1.1 2.5,-2.1 0.7,-1 1,-2.3 1.9,-2.6 0.9,-0.3 1.5,0.2 1.3,0.5 -0.2,0.3 -1.2,1 -0.9,2.1 0.2,1.2 -0.4,3.9 0.5,5 0.9,1.1 6.4,6.6 9,9.3 2.6,2.7 5.8,7.2 7.1,7.9 1.2,0.6 9.8,3.8 14.4,6.6 4.7,2.8 11,4.6 12.6,3.7 1.6,-0.9 3.4,-2.4 3.6,-4.1 0.2,-1.7 -9.6,-4.5 -9.3,-11.8 0.3,-7.3 5.3,-10.4 9.6,-11.5 7.9,-2.1 12.8,7.7 13.5,13.1 0.7,5.4 -3.6,6.2 -3.6,6.2 z"
       inkscape:connector-curvature="0"
       style="fill:#fbd7c7" />
    <path
       id="path2868"
       d="m 85.1,50.2 c -3.6,1.6 -8.4,7.6 -7,14.6 1.2,6.1 4.8,9.6 8.7,11.2 4.2,1.7 10.7,0.7 15,-2.4 4.3,-3.1 6.1,-8.3 6.1,-8.3 0,0 -2.6,1.1 -3.2,-1.5 C 104.1,61.2 103,53.4 99.2,51 94.7,48.2 90.1,47.9 85.1,50.2 Z"
       inkscape:connector-curvature="0"
       style="fill:#825012" />
    <path
       id="path2870"
       d="m 41.4,180.8 c 0,0 2,-4.6 2.9,-5.7 0.9,-1.1 1.2,-0.8 1.2,-1.8 0,-1 0.3,-2.9 0.6,-4.1 0.2,-1.2 -0.8,-3.7 -0.8,-3.7 z"
       inkscape:connector-curvature="0"
       style="fill:#ff9900" />
    <path
       id="path2872"
       d="m 83,205.2 c 0,0 2.1,0.6 4.1,-1 0.7,-0.5 0.6,-1.7 0.6,-1.7 l 0.2,-0.3 c 0,0 0.8,1.5 0.3,3 -0.5,1.5 -0.5,6.6 -1.1,7.1 -0.7,0.5 -0.5,-1.8 -1.3,-3.2 -0.9,-1.4 -2.8,-3.9 -2.8,-3.9 z"
       inkscape:connector-curvature="0"
       style="fill:#ff9900" />
    <path
       id="path2874"
       d="m 82.8,106.5 c 0,0 -7.2,5.8 -11.7,11.5 -4.6,5.9 -8.6,15.8 -7.5,18.2 1.1,2.4 14.1,2.6 16,5.3 1.8,2.8 8.1,12.7 19.5,7.4 11.4,-5.3 13.9,-8.8 13.9,-10.7 0,-1.9 -4.6,-16.4 -5.7,-21.2 -0.6,-2.6 2.2,-8.4 3.4,-13.9 0.9,-4.5 0.6,-9 0.6,-9 0,0 -2.9,-2.8 -3.7,-6.6 -0.8,-3.8 -0.5,-6.9 -0.5,-6.9 0,0 -3,0.6 -4.3,0 -3.8,2.1 -14.7,2.5 -16.2,-2.4 -1.6,0.1 -2.7,0 -2.7,0 0,0 -1.1,3.9 -3.2,7.5 -1.2,2 -3.4,3.4 -3.4,3.4 0,0 2.2,4.3 2.5,6.2 0.7,5.6 3,11.2 3,11.2 z"
       inkscape:connector-curvature="0"
       style="fill:#cc291f" />
    <g
       id="g2880"
       style="fill:#262626">
      <path
         id="path2876"
         d="m 44,163.4 c 1.6,0.9 2.1,2 1.4,5.2 -0.7,3.2 -2,5.3 -2.5,8 -0.5,2.7 -1.7,6.1 -3.7,7.9 -1.9,1.6 -4.4,1.7 -6.4,0.6 -2.6,-1.4 -4,-5.7 -0.7,-10.3 3,-4.1 4.9,-7.1 6.1,-8.9 1.2,-2 4,-3.6 5.8,-2.5 z"
         inkscape:connector-curvature="0" />
      <path
         id="path2878"
         d="m 79.5,200.8 c -0.6,-0.1 -1.9,0.3 -2.1,1.5 -0.2,1.3 0.5,2.8 1.3,3.9 0.8,1.1 1.4,2 2.6,3.5 1.3,1.5 3.2,3.3 4,3.4 1.2,0.2 1.7,-0.6 1.7,-0.9 0.1,-0.6 -0.3,-1.8 -0.9,-2.9 -0.6,-1 -1.6,-1.8 -2.2,-3.4 -0.3,-0.6 -0.8,-1.7 -2,-3.1 -1.1,-1.4 -1.8,-2 -2.4,-2 z"
         inkscape:connector-curvature="0" />
    </g>
  </g>
</svg>
