<svg enable-background="new 0 0 80 160" viewBox="0 0 80 160" xmlns="http://www.w3.org/2000/svg"><path d="m28.9 138.2c-7.1 4.9-7.6 8.8 0 12.9 8.3 4.5 14.5 2.5 20.9-1.2s6.6-8.6-2.9-12.4c-7.7-3.1-14-2-18 .7z" opacity=".2"/><path d="m26.2 143.4c-.6.6-.7 2.1.5 3.1s5.5-.2 7.1-.5c2.2-.5 7.6-1.1 8.7-3.1.5-1 .1-3.6-3.5-3.6-2.9 0-12.8 4.1-12.8 4.1z" fill="#262626"/><path d="m34.9 147.4c-.6.6-1.3 2.3-.1 3.3s6-.3 8.9-.9c1.6-.3 5.9-1.5 6.8-2.9.6-.9.7-2.8-2.4-3.1-6.5-.5-13.2 3.6-13.2 3.6z" fill="#262626"/><path d="m25.4 41c-1.8 1-3.1 2.7-2.8 7 .2 4.3-.6 6.3-1.5 10.1-.9 3.7-1.6 6.9-.7 9.1.8 2.2 4 7.2 4.8 9.8s2 4.7 2 4.7l3.2-3.4s-1.6-6.5-2.3-9.2-2-4.9-2-4.9 1.4-3.5 2-6.3c.4-3-2.7-16.9-2.7-16.9z" fill="#fbd7c7"/><path d="m38.7 149.6s2.4-.2 4.9-.8c2.2-.5 5.5-1.2 6.1-2.8.7-2-2.2-1.9-3.8-2.3s-4-1.6-4.4-1.3c-.1.4 1.6.9.3 3.6-1.3 2.4-3.1 3.6-3.1 3.6z" fill="#fff"/><path d="m39.8 68.4-10.5-.8s-4.2 6.6-4.7 10.6c-1.1 8.6 3.4 19 3.1 25.4s-1.3 9.3-1.8 14.8.6 15.3 0 19-1.8 7.2.6 8 8.5-.3 9.3-2.9c.9-2.6.9-3.8 0-7.4s0-10.3.2-14.4.5-7.2 1.9-11.4c1.4-4.3 3.8-13.2 3.3-18.3-.7-5.3-1.4-22.6-1.4-22.6z" fill="#06547a"/><path d="m39.8 68.4-10.5-.8s-4.2 6.6-4.7 10.6c-1.1 8.6 3.4 19 3.1 25.4s-1.3 9.3-1.8 14.8.6 15.3 0 19-1.8 7.2.6 8 8.5-.3 9.3-2.9c.9-2.6.9-3.8 0-7.4s0-10.3.2-14.4.5-7.2 1.9-11.4c1.4-4.3 3.8-13.2 3.3-18.3-.7-5.3-1.4-22.6-1.4-22.6z" opacity=".2"/><path d="m48.7 70s2.3 10.3 2.2 18.2c-.2 7.9-3.1 19.1-3.5 24.8-.6 7.8-2.3 11.8-2.9 16.7-.6 4.8-1.9 9.7-1.1 11.2.8 1.4 2.3 1.5 1.7 3.7-.5 1.9-2.8 4.7-6.3 5.1s-4.8-.1-4.9-1.8c-.2-1.8.2-3.6.2-7.1s0-13.8.7-18.1 3.1-16.5 3-22.4c-.2-6-3-10.7-3.1-17.5-.4-7.1 2-14.8 2-14.8z" fill="#06547a"/><path d="m29.2 38.7s1.6 2.8 5.4 3.7 7.7-.6 7.7-.6 3 2.4 4.1 3 3.9 2.8 4.3 5.9-.4 9-.6 11.2-1 6.5-.7 8.5c.4 2 .7 4 .7 4s-7.1 2.4-14.2.6c-8.9-2.3-9.6-3.3-9.6-3.3s2.2-3.6 2-6.8c-.1-3.1-.6-8.7-.6-8.7l-6.1-2.3s.5-2.7.4-4.4 0-7.2 2.4-8.2c3.3-1.4 4.8-2.6 4.8-2.6z" fill="#cc291f"/><path d="m54 80.4c-.5-2.7-2.7-7.8-3.3-8.5s-.4-1.6-.4-4.3c-.1-2.8-.4-8.6-.8-10.4-1 0-2.3 0-3.5.2-.9.2-2.1.3-3.2.5.1.5.2 1.1.3 1.8.6 3.7 1 10.5 1 12.2s1 4.4 2.4 6.6 5.9 10.9 5.9 10.9-.3.4-.4 1.8 1 2.8 1.3 4c.2 1.2-.9 1.8-.8 2.1s.7 1.4 2.8.7c1.9-.6 2.8-3.5 3-5.6s-.5-2.7-1.4-4.2-2.3-5.2-2.9-7.8z" fill="#fbd7c7"/><path d="m35.3 14.5c6.3-.8 11.8 2.9 11.8 10.6 0 8.6-1.9 12.7-.2 18.2 1.1 3.4-.7 8.4-10.8 8.2-9.7-.2-11.2-4.5-11.7-6-1-3.4 1.4-8.2 1-15.6-.3-5.6 0-14.2 9.9-15.4z" fill="#825012"/></svg>