<?xml version="1.0" encoding="UTF-8" standalone="no"?>
<svg
   xmlns:dc="http://purl.org/dc/elements/1.1/"
   xmlns:cc="http://creativecommons.org/ns#"
   xmlns:rdf="http://www.w3.org/1999/02/22-rdf-syntax-ns#"
   xmlns:svg="http://www.w3.org/2000/svg"
   xmlns="http://www.w3.org/2000/svg"
   xmlns:sodipodi="http://sodipodi.sourceforge.net/DTD/sodipodi-0.dtd"
   xmlns:inkscape="http://www.inkscape.org/namespaces/inkscape"
   enable-background="new 0 0 80 160"
   viewBox="0 0 3.8352962 13.929498"
   version="1.1"
   id="svg2622"
   sodipodi:docname="city--kid06.svg"
   width="3.8352962"
   height="13.929498"
   inkscape:version="0.92.2 (5c3e80d, 2017-08-06)">
  <metadata
     id="metadata2628">
    <rdf:RDF>
      <cc:Work
         rdf:about="">
        <dc:format>image/svg+xml</dc:format>
        <dc:type
           rdf:resource="http://purl.org/dc/dcmitype/StillImage" />
        <dc:title></dc:title>
      </cc:Work>
    </rdf:RDF>
  </metadata>
  <defs
     id="defs2626" />
  <sodipodi:namedview
     pagecolor="#ffffff"
     bordercolor="#666666"
     borderopacity="1"
     objecttolerance="10"
     gridtolerance="10"
     guidetolerance="10"
     inkscape:pageopacity="0"
     inkscape:pageshadow="2"
     inkscape:window-width="880"
     inkscape:window-height="480"
     id="namedview2624"
     showgrid="false"
     fit-margin-top="0"
     fit-margin-left="0"
     fit-margin-right="0"
     fit-margin-bottom="0"
     inkscape:zoom="1.91875"
     inkscape:cx="5.3656302"
     inkscape:cy="11.005218"
     inkscape:window-x="0"
     inkscape:window-y="0"
     inkscape:window-maximized="1"
     inkscape:current-layer="svg2622" />
  <g
     id="g2641"
     transform="matrix(0.1,0,0,0.1,-1.99814,-1.439298)">
    <path
       id="path2600"
       d="m 28.9,138.2 c -7.1,4.9 -7.6,8.8 0,12.9 8.3,4.5 14.5,2.5 20.9,-1.2 6.4,-3.7 6.6,-8.6 -2.9,-12.4 -7.7,-3.1 -14,-2 -18,0.7 z"
       inkscape:connector-curvature="0"
       style="opacity:0.2" />
    <path
       id="path2602"
       d="m 26.2,143.4 c -0.6,0.6 -0.7,2.1 0.5,3.1 1.2,1 5.5,-0.2 7.1,-0.5 2.2,-0.5 7.6,-1.1 8.7,-3.1 0.5,-1 0.1,-3.6 -3.5,-3.6 -2.9,0 -12.8,4.1 -12.8,4.1 z"
       inkscape:connector-curvature="0"
       style="fill:#262626" />
    <path
       id="path2604"
       d="m 34.9,147.4 c -0.6,0.6 -1.3,2.3 -0.1,3.3 1.2,1 6,-0.3 8.9,-0.9 1.6,-0.3 5.9,-1.5 6.8,-2.9 0.6,-0.9 0.7,-2.8 -2.4,-3.1 -6.5,-0.5 -13.2,3.6 -13.2,3.6 z"
       inkscape:connector-curvature="0"
       style="fill:#262626" />
    <path
       id="path2606"
       d="m 25.4,41 c -1.8,1 -3.1,2.7 -2.8,7 0.2,4.3 -0.6,6.3 -1.5,10.1 -0.9,3.7 -1.6,6.9 -0.7,9.1 0.8,2.2 4,7.2 4.8,9.8 0.8,2.6 2,4.7 2,4.7 l 3.2,-3.4 c 0,0 -1.6,-6.5 -2.3,-9.2 -0.7,-2.7 -2,-4.9 -2,-4.9 0,0 1.4,-3.5 2,-6.3 C 28.5,54.9 25.4,41 25.4,41 Z"
       inkscape:connector-curvature="0"
       style="fill:#fbd7c7" />
    <path
       id="path2608"
       d="m 38.7,149.6 c 0,0 2.4,-0.2 4.9,-0.8 2.2,-0.5 5.5,-1.2 6.1,-2.8 0.7,-2 -2.2,-1.9 -3.8,-2.3 -1.6,-0.4 -4,-1.6 -4.4,-1.3 -0.1,0.4 1.6,0.9 0.3,3.6 -1.3,2.4 -3.1,3.6 -3.1,3.6 z"
       inkscape:connector-curvature="0"
       style="fill:#ffffff" />
    <path
       id="path2610"
       d="M 39.8,68.4 29.3,67.6 c 0,0 -4.2,6.6 -4.7,10.6 -1.1,8.6 3.4,19 3.1,25.4 -0.3,6.4 -1.3,9.3 -1.8,14.8 -0.5,5.5 0.6,15.3 0,19 -0.6,3.7 -1.8,7.2 0.6,8 2.4,0.8 8.5,-0.3 9.3,-2.9 0.9,-2.6 0.9,-3.8 0,-7.4 -0.9,-3.6 0,-10.3 0.2,-14.4 0.2,-4.1 0.5,-7.2 1.9,-11.4 C 39.3,105 41.7,96.1 41.2,91 40.5,85.7 39.8,68.4 39.8,68.4 Z"
       inkscape:connector-curvature="0"
       style="fill:#06547a" />
    <path
       id="path2612"
       d="M 39.8,68.4 29.3,67.6 c 0,0 -4.2,6.6 -4.7,10.6 -1.1,8.6 3.4,19 3.1,25.4 -0.3,6.4 -1.3,9.3 -1.8,14.8 -0.5,5.5 0.6,15.3 0,19 -0.6,3.7 -1.8,7.2 0.6,8 2.4,0.8 8.5,-0.3 9.3,-2.9 0.9,-2.6 0.9,-3.8 0,-7.4 -0.9,-3.6 0,-10.3 0.2,-14.4 0.2,-4.1 0.5,-7.2 1.9,-11.4 C 39.3,105 41.7,96.1 41.2,91 40.5,85.7 39.8,68.4 39.8,68.4 Z"
       inkscape:connector-curvature="0"
       style="opacity:0.2" />
    <path
       id="path2614"
       d="m 48.7,70 c 0,0 2.3,10.3 2.2,18.2 -0.2,7.9 -3.1,19.1 -3.5,24.8 -0.6,7.8 -2.3,11.8 -2.9,16.7 -0.6,4.8 -1.9,9.7 -1.1,11.2 0.8,1.4 2.3,1.5 1.7,3.7 -0.5,1.9 -2.8,4.7 -6.3,5.1 -3.5,0.4 -4.8,-0.1 -4.9,-1.8 -0.2,-1.8 0.2,-3.6 0.2,-7.1 0,-3.5 0,-13.8 0.7,-18.1 0.7,-4.3 3.1,-16.5 3,-22.4 -0.2,-6 -3,-10.7 -3.1,-17.5 -0.4,-7.1 2,-14.8 2,-14.8 z"
       inkscape:connector-curvature="0"
       style="fill:#06547a" />
    <path
       id="path2616"
       d="m 29.2,38.7 c 0,0 1.6,2.8 5.4,3.7 3.8,0.9 7.7,-0.6 7.7,-0.6 0,0 3,2.4 4.1,3 1.1,0.6 3.9,2.8 4.3,5.9 0.4,3.1 -0.4,9 -0.6,11.2 -0.2,2.2 -1,6.5 -0.7,8.5 0.4,2 0.7,4 0.7,4 0,0 -7.1,2.4 -14.2,0.6 -8.9,-2.3 -9.6,-3.3 -9.6,-3.3 0,0 2.2,-3.6 2,-6.8 -0.1,-3.1 -0.6,-8.7 -0.6,-8.7 l -6.1,-2.3 c 0,0 0.5,-2.7 0.4,-4.4 -0.1,-1.7 0,-7.2 2.4,-8.2 3.3,-1.4 4.8,-2.6 4.8,-2.6 z"
       inkscape:connector-curvature="0"
       style="fill:#cc291f" />
    <path
       id="path2618"
       d="M 54,80.4 C 53.5,77.7 51.3,72.6 50.7,71.9 50.1,71.2 50.3,70.3 50.3,67.6 50.2,64.8 49.9,59 49.5,57.2 c -1,0 -2.3,0 -3.5,0.2 -0.9,0.2 -2.1,0.3 -3.2,0.5 0.1,0.5 0.2,1.1 0.3,1.8 0.6,3.7 1,10.5 1,12.2 0,1.7 1,4.4 2.4,6.6 1.4,2.2 5.9,10.9 5.9,10.9 0,0 -0.3,0.4 -0.4,1.8 -0.1,1.4 1,2.8 1.3,4 0.2,1.2 -0.9,1.8 -0.8,2.1 0.1,0.3 0.7,1.4 2.8,0.7 1.9,-0.6 2.8,-3.5 3,-5.6 0.2,-2.1 -0.5,-2.7 -1.4,-4.2 C 56,86.7 54.6,83 54,80.4 Z"
       inkscape:connector-curvature="0"
       style="fill:#fbd7c7" />
    <path
       id="path2620"
       d="m 35.3,14.5 c 6.3,-0.8 11.8,2.9 11.8,10.6 0,8.6 -1.9,12.7 -0.2,18.2 1.1,3.4 -0.7,8.4 -10.8,8.2 -9.7,-0.2 -11.2,-4.5 -11.7,-6 -1,-3.4 1.4,-8.2 1,-15.6 -0.3,-5.6 0,-14.2 9.9,-15.4 z"
       inkscape:connector-curvature="0"
       style="fill:#825012" />
  </g>
</svg>
