<?xml version="1.0" encoding="UTF-8" standalone="no"?>
<svg
   xmlns:dc="http://purl.org/dc/elements/1.1/"
   xmlns:cc="http://creativecommons.org/ns#"
   xmlns:rdf="http://www.w3.org/1999/02/22-rdf-syntax-ns#"
   xmlns:svg="http://www.w3.org/2000/svg"
   xmlns="http://www.w3.org/2000/svg"
   xmlns:sodipodi="http://sodipodi.sourceforge.net/DTD/sodipodi-0.dtd"
   xmlns:inkscape="http://www.inkscape.org/namespaces/inkscape"
   enable-background="new 0 0 80 240"
   viewBox="0 0 4.5909648 17.247562"
   version="1.1"
   id="svg2715"
   sodipodi:docname="city--kid07.svg"
   width="4.5909648"
   height="17.247562"
   inkscape:version="0.92.2 (5c3e80d, 2017-08-06)">
  <metadata
     id="metadata2721">
    <rdf:RDF>
      <cc:Work
         rdf:about="">
        <dc:format>image/svg+xml</dc:format>
        <dc:type
           rdf:resource="http://purl.org/dc/dcmitype/StillImage" />
        <dc:title></dc:title>
      </cc:Work>
    </rdf:RDF>
  </metadata>
  <defs
     id="defs2719" />
  <sodipodi:namedview
     pagecolor="#ffffff"
     bordercolor="#666666"
     borderopacity="1"
     objecttolerance="10"
     gridtolerance="10"
     guidetolerance="10"
     inkscape:pageopacity="0"
     inkscape:pageshadow="2"
     inkscape:window-width="880"
     inkscape:window-height="480"
     id="namedview2717"
     showgrid="false"
     fit-margin-top="0"
     fit-margin-left="0"
     fit-margin-right="0"
     fit-margin-bottom="0"
     inkscape:zoom="1.2791667"
     inkscape:cx="9.2591004"
     inkscape:cy="36.197592"
     inkscape:window-x="0"
     inkscape:window-y="0"
     inkscape:window-maximized="1"
     inkscape:current-layer="svg2715" />
  <g
     id="g2737"
     transform="matrix(0.1,0,0,0.1,-1.3990354,-6.1336)">
    <path
       id="path2687"
       d="m 26.4,213.6 c -8.7,6 -8.5,12.6 0.8,17.6 10.2,5.5 16.9,1.3 24.9,-3.3 8,-4.6 8.1,-10.6 -3.6,-15.3 -9.5,-3.7 -17.2,-2.4 -22.1,1 z"
       inkscape:connector-curvature="0"
       style="opacity:0.2" />
    <path
       id="path2689"
       d="m 40.8,212.8 c 1.6,0.5 1.8,0.8 1.8,2 0,1.2 -1,2.9 -2.9,4.6 -1.9,1.7 -6.2,7.1 -11.4,7.3 -5.2,0.2 -6.3,-2.6 -5.5,-4.6 1.7,-3.8 13.8,-10.7 18,-9.3 z"
       inkscape:connector-curvature="0"
       style="fill:#262626" />
    <path
       id="path2691"
       d="m 51.3,218.6 c 0.8,0.4 1.4,2 0.7,3.2 -0.7,1.2 -2.8,2.3 -5.3,5 -2.5,2.7 -6.6,6.2 -11.6,4.8 -4.9,-1.3 -1.8,-5.9 -1,-6.8 1,-0.8 10.8,-9.8 17.2,-6.2 z"
       inkscape:connector-curvature="0"
       style="fill:#262626" />
    <path
       id="path2693"
       d="m 24.9,115.3 c -1.8,3.2 -3.9,7.4 -5.1,13.1 -1.2,5.7 -2.3,9.6 -3.4,11.6 -1.1,2 -3.2,5.1 -2.1,8.7 1.1,3.6 2.4,4 3.8,3.6 1.5,-0.4 2.3,-1.7 2.3,-2.5 0,-0.8 -0.9,-2.6 -0.4,-4.1 0.5,-1.4 1.6,-2.9 1.6,-4.1 0,-1.2 -0.6,-2 -0.4,-2.5 0.2,-0.5 4.5,-9.1 5.4,-10.4 0.9,-1.3 3.6,-5.9 3.7,-6.7 0.1,-0.8 -5.4,-6.7 -5.4,-6.7 z"
       inkscape:connector-curvature="0"
       style="fill:#fbd7c7" />
    <path
       id="path2695"
       d="m 36.1,89.1 c -3.2,0.3 -6.9,-0.5 -9.3,1.9 -2.4,2.4 -3,5 -2.8,6.2 0.2,1.2 1.1,3.8 1.1,3.8 0,0 -1.7,5.1 -1.9,8.6 -0.3,3.5 1.8,12.1 1.8,16 0,3.9 -0.7,12.5 -1.3,18.6 -0.6,6.1 0.1,13 1.7,20.4 1.6,7.4 3.4,17.1 3.7,18.4 0.3,1.3 -0.3,3.9 1.3,8.9 1.6,5 4.1,14.6 3.4,17.5 -0.7,2.9 -1.9,4.9 -3.6,6.9 -1.7,2 -6,4.5 -4,6.6 2,2.1 8.4,-2 10,-3.5 1.6,-1.5 5.6,-4.9 5.8,-5.8 0.2,-0.9 -0.6,-2.9 -1.3,-4.1 -0.7,-1.2 -0.9,-1.9 -0.8,-4.1 0.1,-2.2 0.2,-8.1 0.6,-10.9 0.4,-2.6 0.2,-5.3 0.2,-5.3 0,0 0.7,4 1.1,7.2 0.5,3.2 1.9,8.8 1.8,11.6 -0.1,2.8 0,5.8 -1.7,8.5 -1.7,2.7 -9.8,9.6 -7.3,11.4 2.5,1.8 9.6,-1.6 11.7,-3.5 2.1,-1.9 5.1,-4 5.1,-5.3 0,-1.3 -2,-3.3 -1.8,-5.9 0.2,-2.6 3,-16.4 2.4,-20.5 -0.9,-5.7 -3.8,-10.1 -3.8,-14.7 0,-4.5 6.1,-26.4 6,-33.4 -0.1,-7 -6.5,-11.3 -6.6,-13.8 -0.1,-2.6 3.8,-13.7 5.5,-16.6 1.7,-2.9 4.4,-5 3.4,-8.1 C 55.5,103 54.2,100.4 51.6,98 49,95.5 46.3,91.9 45.8,91.4 45.3,91 36.1,89.1 36.1,89.1 Z"
       inkscape:connector-curvature="0"
       style="fill:#fbd7c7" />
    <path
       id="path2697"
       d="m 40.7,215.2 c 0,0 -2.3,2.5 -3.9,4 -1.6,1.5 -5.3,6 -9.8,5.5 -4.5,-0.5 -4.3,-2.3 -3.3,-3.8 1,-1.4 5.1,-5.3 6,-6.5 0.9,-1.2 1.6,-3.1 3.4,-2.1 1.8,1 2.8,2.7 4.8,2.9 1.9,0.4 2.8,0 2.8,0 z"
       inkscape:connector-curvature="0"
       style="fill:#ff9900" />
    <path
       id="path2699"
       d="m 50.8,220.5 c 0,0 -1.7,1.9 -4.2,4.3 -2.5,2.4 -5.2,4.8 -8.3,5.1 -3.1,0.3 -5.9,-0.8 -5.1,-3.2 0.8,-2.4 3.1,-3.8 4.8,-6 1.1,-1.5 2.4,-3.4 3.1,-3.5 0.6,-0.1 1.6,-0.1 2.3,0.3 2.6,1.6 3.1,3.1 5,3.3 1.7,0.2 2.4,-0.3 2.4,-0.3 z"
       inkscape:connector-curvature="0"
       style="fill:#ff9900" />
    <path
       id="path2701"
       d="m 30.4,89.1 c -1.9,1.5 -4,7.4 -4.7,9.5 -0.7,2.1 -3.7,8 -3.1,13.3 0.5,4.1 1.7,13.1 1.7,13.1 0,0 -5.3,15.3 -6.4,19.2 -1.6,5.8 -3.1,11.9 -2.4,12.5 0.7,0.7 3.6,0.1 6.1,3.2 2.5,3.1 4.7,-0.5 8.8,3.3 4.1,3.8 15.7,5.1 21,3.3 5.3,-1.8 8,-4.9 7.9,-5.6 -4,-15.9 -8.7,-26.5 -9.8,-31.2 -0.5,-1.9 0.5,-6 0,-8.8 -1,-5.1 -3.3,-12.5 -1.9,-15.2 2.5,-5 6.9,-4.2 6.9,-4.2 0,0 -2.5,-3.3 -3.4,-4.3 -0.9,-1 -3.4,-3.9 -3.4,-3.9 0,0 -7.1,12.3 -13.1,10 -5.9,-2.2 1.8,-14.4 1.8,-14.4 z"
       inkscape:connector-curvature="0"
       style="fill:#cc291f" />
    <path
       id="path2703"
       d="m 34.5,65.7 c -2.4,1.5 -5.9,4.6 -5.7,11.6 0.2,7 1.3,12.3 2.9,12.7 1.6,0.5 3.4,0.2 3.4,0.2 0,0 0.3,1.7 -0.2,3.2 -0.5,1.5 -2.3,3.7 -0.6,5.3 1.7,1.6 8.6,0.2 10,-1 1.4,-1.2 2.9,-4.1 2.9,-4.1 0,0 -1.5,-0.7 -1.7,-2.5 -0.1,-1.8 0.4,-5 1.3,-6.9 0.9,-1.8 4.9,-4.8 4.8,-11.1 0.1,-6.3 -8,-13.2 -17.1,-7.4 z"
       inkscape:connector-curvature="0"
       style="fill:#fbd7c7" />
    <path
       id="path2705"
       d="m 32.3,71 c 0,0 3.5,-1.2 7.3,2.6 2.7,2.7 3.3,5.9 4.7,6.3 1.4,0.3 2.7,-2 3.8,-0.6 1.1,1.4 -2.9,5.1 -2.9,5.1 0,0 0,3.9 3.7,2.9 5.9,-1.6 6.7,-13.2 4.7,-17.8 -3.9,-9.3 -11.3,-7 -12.1,-7.3 -0.8,-0.3 -4.3,-2 -8,0.4 -3.6,2.4 -5.9,6.2 -5.8,10.4 0.1,5.3 0.3,8.9 -2.1,9.3 1.1,1.7 3.6,1 3.6,0.2 -0.1,-1.5 -0.5,-5.9 -0.2,-8 0.2,-2.2 0.9,-4.1 3.3,-3.5 z"
       inkscape:connector-curvature="0"
       style="fill:#825012" />
    <g
       id="g2713"
       style="fill:#fbd7c7">
      <path
         id="path2707"
         d="m 47.4,109.7 c 0.1,2.4 0.6,5.1 1.2,7.6 0.8,3.4 1.2,8.1 2,10.7 0.8,2.6 1.9,6.3 1.9,6.3 0,0 -1.3,5.5 -2.3,10.2 -1,4.7 -2.3,9.6 -2.3,9.6 0,0 -4.6,2.3 -5.2,2.9 -0.6,0.7 -1.2,2.6 -1.6,3.6 -0.4,1 0.1,1.8 0.9,1.1 0.8,-0.7 1.6,-2.1 1.9,-2.3 0.3,-0.2 0.7,0.6 0.7,2.1 0,1.5 -0.2,1.2 -0.7,1.8 -0.5,0.6 -1.6,1.1 -1.9,1.3 -0.3,0.2 0.4,1.3 2.2,1.3 1.8,0 4,-1.2 5.1,-2.3 1.1,-1.1 2.5,-3.1 3,-5.3 0.5,-2.1 0,-1.7 0.5,-3.3 0.5,-1.6 6.4,-16.7 6.8,-19.1 0.4,-2.4 0.4,-3.7 0,-5.6 -0.4,-2 -3.1,-12.8 -2.9,-15.7 0.2,-2.9 0.8,-7 -0.1,-9.2 -0.9,-2.2 -1.6,-3.6 -4.1,-3.3 -2.4,0.5 -5.2,2 -5.1,7.6 z"
         inkscape:connector-curvature="0" />
      <path
         id="path2709"
         d="m 40.4,218.6 c 0,0 0.9,0 1.9,0.6 1,0.6 1.6,1.9 2.7,2.4 1.2,0.5 2.1,0.6 2.1,0.6 0,0 -2.6,3 -4.9,3.3 -2.6,0.4 -4.5,-0.5 -5,-1.3 -0.3,-0.4 -0.5,-1.2 0,-1.9 0.8,-0.9 3.2,-3.7 3.2,-3.7 z"
         inkscape:connector-curvature="0" />
      <path
         id="path2711"
         d="m 31,214 c 0,0 0.3,-0.4 1.3,0.2 1,0.6 2,1.9 3.2,2.4 0.8,0.3 1.8,0.5 1.8,0.5 0,0 -2.4,3 -4.6,3.5 -2.7,0.5 -4.7,-0.7 -5.2,-1.4 -0.5,-0.6 -0.1,-1.4 0.5,-2.1 1.2,-1.2 3,-3.1 3,-3.1 z"
         inkscape:connector-curvature="0" />
    </g>
  </g>
</svg>
