<svg enable-background="new 0 0 80 160" viewBox="0 0 80 160" xmlns="http://www.w3.org/2000/svg"><path d="m25.7 134.8c-8.2 5.7-7.2 11 1.6 15.7 9.6 5.2 15.1 2.1 22.6-2.1 7.5-4.3 7.6-10-3.4-14.4-8.9-3.7-16.2-2.4-20.8.8z" opacity=".2"/><path d="m25.4 55.4c-1.1 1.9-2.5 4.2-3.2 8.2s-.4 8.9-1.2 11.5c-.8 2.5-1.6 6.7-.6 9.6s2.2 4.9 4.1 3.7.1-5 .2-6.4c.1-1.3 1.2-4 .9-5.3-.3-1.4-.9-1.2-.5-2.3s3.3-9.4 3.3-9.4z" fill="#fbd7c7"/><path d="m31.4 135.3c-.9 1.5-5.1 4.4-6.3 5.3-1.8 1.2-3.5 4.9 1.1 5.7s7.9-3 10.3-4.1 4.9-3.3 6.7-3.6c1.8-.2-.7-5.6-.7-5.6z" fill="#262626"/><path d="m31.5 134.8c-.2 1.4-7.2 5.9-7.2 7.5s3 2.6 5.6 1.9 5.7-3.6 7.8-4.6c2-1.1 4.2-1.2 3.8-3.3-.4-1.9-10-1.5-10-1.5z" fill="#fff"/><path d="m40.6 139.5c-2.7 2.5-8.1 6.1-8.4 7.8-.4 2.2 1.7 3.8 6 3.3 4.2-.6 6-3.4 8.3-4.7 2.3-1.2 3.6-1.9 3.6-3 0-1.2-9.5-3.4-9.5-3.4z" fill="#262626"/><path d="m41.2 139s-2.3 2-6.6 5.9c-.9.8-3.7 2.9 1 3.7 5.3.9 8-3.1 10-4.3s3.7-1.4 3.7-3c-.1-1.6-8.1-2.3-8.1-2.3z" fill="#fff"/><path d="m25.6 76.3c-.1 2.2-1.4 13.8-1 19.8s2.5 14.5 3 20.6.8 20.7.8 21.6 3.2 1.7 6.5 1.7 7.2-2.4 7.2-2.4l-4.1-55.7z" fill="#06547a"/><path d="m25.6 76.3c-.1 2.2-1.4 13.8-1 19.8s2.5 14.5 3 20.6.8 20.7.8 21.6 3.2 1.7 6.5 1.7 7.2-2.4 7.2-2.4l-4.1-55.7z" opacity=".2"/><path d="m30.6 79.9c-.1 2.5.4 8.7 1.3 9.9 1 1.2 1.7 3.3 2.1 7.8s2.4 15.3 2.9 19.1c.5 3.9 1.5 12.6 2.1 20.4.3 3.8-2.2 4.6 3.8 6.3s8.9.1 10-1c1.1-1 .4-3.6.3-7.5-.1-4-2-18.5-3-22.5-1.1-3.9-.4-13.7.6-20.1s-2.7-14.6-2.7-14.6z" fill="#06547a"/><path d="m33.5 33c-1.3 2.8-4.1 3.2-4.1 3.2s-.4 6.5 4.6 7.2 13.8-5 13.8-5-3.5-2.4-4.1-4.8.2-9.5.2-9.5z" fill="#fbd7c7"/><path d="m32.1 33.4c-2.1.4-7.3 1.7-7.9 3.7s-.4 12.4-.4 14.3c0 2 1.1 8.1 1.1 14.5s-.8 9.6-.7 10c.2.4.4 6.2 9.7 7.1s15.1-3.6 15.1-3.6v-15.5s2.7-.2 3.8-.8c1.6-.8 2.6-1.6 2.6-1.6s.7-11.7-1.1-15.4-8.6-9.3-8.6-9.3-6.2 5.2-10.7 4.7c-5.3-.7-2.9-8.1-2.9-8.1z" fill="#9c3"/><path d="m48.4 63.4s2.5.3 3.9-.1c1.4-.5 2.9-1.4 2.9-1.4s1.4 5.3 1.1 7.4-3 16.9-3.8 19.6c-.7 2.7-1.6 4.8-3.7 7.2-1.8 2-4.1 2.8-5.7 2.8s-2.3-.9-1.9-1.5 1.6-1 2.2-2.6.9-2.8.9-2.8-.6-.3-1.1.3-.8 2.1-1.7 2-.7-1.5-.1-2.6c.6-1 .7-2.1 1.9-2.7s4.6-2.1 4.8-2.5.6-7.7 1-10.6.9-4.6 1-6.3c.2-1.8-1.7-6.2-1.7-6.2z" fill="#fbd7c7"/><path d="m28.5 15.2c-1.6 2.6-1.5 10.7-.5 14s.9 6.1 4.2 5.9 9.3-3.6 11-4.9c1.6-1.3 5.9-4.1 5.7-12.5-.3-8.5-14.3-12.3-20.4-2.5z" fill="#fbd7c7"/><path d="m42.2 27.4s2.7-4.7 4.4-3.3c1.3 1-.5 3.3-.5 3.3s6-5.9 2.7-13.5c-3.3-7.7-15.1-7-19.6-1.7-4.5 5.5-3.3 9.6.5 10.5 4.4 1 9.3-1.2 10.9.4 1.5 1.5 1.6 4.3 1.6 4.3z" fill="#825012"/></svg>