<?xml version="1.0" encoding="UTF-8" standalone="no"?>
<svg
   xmlns:dc="http://purl.org/dc/elements/1.1/"
   xmlns:cc="http://creativecommons.org/ns#"
   xmlns:rdf="http://www.w3.org/1999/02/22-rdf-syntax-ns#"
   xmlns:svg="http://www.w3.org/2000/svg"
   xmlns="http://www.w3.org/2000/svg"
   xmlns:sodipodi="http://sodipodi.sourceforge.net/DTD/sodipodi-0.dtd"
   xmlns:inkscape="http://www.inkscape.org/namespaces/inkscape"
   enable-background="new 0 0 160 160"
   viewBox="0 0 9.2651196 14.515752"
   version="1.1"
   id="svg2352"
   sodipodi:docname="city--kid03.svg"
   width="9.2651196"
   height="14.515752"
   inkscape:version="0.92.2 (5c3e80d, 2017-08-06)">
  <metadata
     id="metadata2358">
    <rdf:RDF>
      <cc:Work
         rdf:about="">
        <dc:format>image/svg+xml</dc:format>
        <dc:type
           rdf:resource="http://purl.org/dc/dcmitype/StillImage" />
        <dc:title></dc:title>
      </cc:Work>
    </rdf:RDF>
  </metadata>
  <defs
     id="defs2356" />
  <sodipodi:namedview
     pagecolor="#ffffff"
     bordercolor="#666666"
     borderopacity="1"
     objecttolerance="10"
     gridtolerance="10"
     guidetolerance="10"
     inkscape:pageopacity="0"
     inkscape:pageshadow="2"
     inkscape:window-width="880"
     inkscape:window-height="480"
     id="namedview2354"
     showgrid="false"
     fit-margin-top="0"
     fit-margin-left="0"
     fit-margin-right="0"
     fit-margin-bottom="0"
     inkscape:zoom="1.475"
     inkscape:cx="1.1918512"
     inkscape:cy="7.4794204"
     inkscape:window-x="0"
     inkscape:window-y="0"
     inkscape:window-maximized="1"
     inkscape:current-layer="svg2352" />
  <g
     id="g2373"
     transform="matrix(0.1,0,0,0.1,-4.0504943,-0.76427847)">
    <path
       id="path2326"
       d="m 42,151.6 c 8.6,4.1 21.1,-3.1 37.6,-9.6 12.2,-4.8 45.9,-19.4 41.2,-23.2 -4.5,-3.6 -30.9,7.5 -48,13.7 -17.8,6.4 -38,15.7 -30.8,19.1 z"
       inkscape:connector-curvature="0"
       style="opacity:0.2" />
    <path
       id="path2328"
       d="m 82.6,41.2 c -1.1,-0.6 -3.7,-3 -3.6,-4.6 0.1,-1.7 0.5,-2.9 1.3,-3.2 0.8,-0.2 1.9,0 2.6,-0.3 1,-0.4 4.9,-4.9 5,-10.5 C 88,17 88.4,10.7 81,9.3 73.6,7.9 68.7,11.1 67.6,16.7 c -1.2,6.2 1.5,8.7 2.1,11 0.8,3.2 0.2,5.9 -1.7,6.8 -1.8,0.8 -5.1,0.5 -5.1,0.5 0,0 4,4.8 7.7,5.8 3.9,1.1 12,0.4 12,0.4 z"
       inkscape:connector-curvature="0"
       style="fill:#fbd7c7" />
    <path
       id="path2330"
       d="m 83.8,27.8 c 0,0 1.5,-3.8 -0.3,-3.8 -1.8,0 -4.6,6.1 -7.8,6.8 -3.2,0.7 -5.9,-0.3 -7,-2.7 -0.8,-1.8 -3.7,-9.7 -1,-14.7 4.9,-9.1 16.6,-5.8 19.9,-1.1 2.4,3.4 2.3,8.8 1.3,9.2 -1,0.4 -0.7,-2.2 -1.7,-1.5 -1,0.7 -1.5,7.9 -3.4,7.8 z"
       inkscape:connector-curvature="0"
       style="fill:#825012" />
    <path
       id="path2332"
       d="m 50.2,41.8 c 0,0 -0.8,-3.7 -1.5,-5.6 -0.7,-1.9 -1.7,-4.8 -1.1,-6.4 0.6,-1.6 2,-3.1 2,-3.9 0,-0.8 2,-4.7 -0.5,-5.2 -2.5,-0.5 -3.4,-0.1 -4.3,2.4 -0.9,2.5 -1,7.1 -0.9,10 0.1,2.9 -1.5,7.5 -0.1,11.6 1.4,4.1 2.4,5.3 3.6,5.5 1.2,0.2 3.7,-1.8 6.5,-4.1 2.7,-2.2 -3.7,-4.3 -3.7,-4.3 z"
       inkscape:connector-curvature="0"
       style="fill:#fbd7c7" />
    <path
       id="path2334"
       d="m 109.2,77 c 1.1,0.2 1.7,0.7 3.2,-0.5 1.5,-1.2 2.2,-2.9 4.3,-4.9 2.1,-2.1 5.4,-5.5 5.4,-8.8 -0.1,-4.1 -3.9,-6 -6.4,-4.1 -2.2,1.7 -1.7,3.9 -3.6,5.8 -2.9,2.9 -4.5,3.3 -4.5,3.3 z"
       inkscape:connector-curvature="0"
       style="fill:#262626" />
    <path
       id="path2336"
       d="m 109.8,74.6 c 0,0 1.6,-0.5 5,-3.7 3.4,-3.2 5.7,-4.9 6,-8.9 0.3,-4 -4.1,-4.7 -5.7,-2.4 -1.6,2.3 -1.2,3.2 -3.7,5.5 -2.3,2.3 -1.6,9.5 -1.6,9.5 z"
       inkscape:connector-curvature="0"
       style="fill:#ffffff" />
    <path
       id="path2338"
       d="m 76.4,76.2 c 0,0 10.7,-5.8 11.5,-5.9 0.8,-0.1 5.4,2.1 9.4,4 4,1.9 11.1,3.7 12.7,3 1.5,-0.7 4.3,-4.9 3.5,-10 -0.8,-5.1 -3.6,-4.3 -6.1,-4.7 -2.5,-0.4 -8.1,-2.4 -10.8,-3.6 -2.6,-1.2 -6.5,-3.6 -9.2,-3 -2.7,0.6 -16,5.5 -16,5.5 z"
       inkscape:connector-curvature="0"
       style="fill:#06547a" />
    <path
       id="path2340"
       d="m 76.4,76.2 c 0,0 10.7,-5.8 11.5,-5.9 0.8,-0.1 5.4,2.1 9.4,4 4,1.9 11.1,3.7 12.7,3 1.5,-0.7 4.3,-4.9 3.5,-10 -0.8,-5.1 -3.6,-4.3 -6.1,-4.7 -2.5,-0.4 -8.1,-2.4 -10.8,-3.6 -2.6,-1.2 -6.5,-3.6 -9.2,-3 -2.7,0.6 -16,5.5 -16,5.5 z"
       inkscape:connector-curvature="0"
       style="opacity:0.2" />
    <path
       id="path2342"
       d="m 45.5,132 c -0.6,2.8 -0.9,9.8 2.6,11.5 3.5,1.7 5.9,-0.2 7.9,-3.3 2,-3.1 13.2,-15.3 15,-17.6 1.8,-2.3 6.1,-5.4 7.1,-8.7 1.1,-3.3 2.5,-11.8 2.2,-20.4 C 80,84.9 78.6,73.7 78.6,73.7 l -23.1,4.4 c 0,0 -0.4,1.6 2.4,4.8 2.8,3.1 6.4,9.6 6.9,14 0.5,4.4 1.1,11 0.8,12.2 -0.2,1.2 -9.3,8.3 -13,13 -3.7,4.6 -6.4,6.2 -7.1,9.9 z"
       inkscape:connector-curvature="0"
       style="fill:#06547a" />
    <path
       id="path2344"
       d="m 100.2,42.9 c -0.1,0 -0.1,0 0,0 0,0 -9.6,-1.7 -12.8,-2.4 -3.2,-0.7 -3.9,-0.4 -6,-0.4 -2.1,-0.1 -6.1,-0.8 -9.4,-1.8 -3.2,-1 -5.9,-3.4 -5.9,-3.4 -1.2,0 -2.3,-2 -5.9,-1.7 -3.6,0.2 -9.5,6.3 -10.3,7.1 -0.8,0.8 -1.5,2.6 -0.6,4.9 0.9,2.3 3.6,3.9 4.9,3.9 1.3,0 2.7,-1.5 2.7,-1.5 0,0 0,3.9 -0.2,9 -0.2,5 -1.6,16.2 -1.9,18.8 -0.3,2.6 -0.3,6.2 7.7,9.8 8.3,3.7 15.4,-1.6 16.8,-4.2 1.4,-2.6 0.3,-5.3 -0.2,-6.3 -0.5,-1 0.8,-4.5 1.7,-7.4 0.9,-2.9 3.7,-12.8 5.2,-13.8 1.5,-1 13.1,-0.7 13.1,-0.8 1.1,-0.1 1.5,-1.5 1.9,-4.8 0.3,-3.3 -0.8,-5 -0.8,-5 z"
       inkscape:connector-curvature="0"
       style="fill:#99cc33" />
    <path
       id="path2346"
       d="m 45,132.4 c 0,0 0.7,-0.8 2.5,-1.1 1.8,-0.3 3.2,2.5 3.4,4.4 0.4,2.7 0.5,5.1 0.2,6.6 -0.5,2.4 -1.5,5.9 -2.2,6.9 -0.8,1 -2.4,0.3 -2.4,0.3 z"
       inkscape:connector-curvature="0"
       style="fill:#ffffff" />
    <path
       id="path2348"
       d="m 46.1,131.8 c 2.1,0.1 3.1,1.8 3.4,4.7 0.3,2.9 0.8,10.6 -0.7,13.1 -1.5,2.5 -7.2,1.1 -6.2,-3.7 0.6,-3.2 0.9,-4.3 0.9,-7.2 0,-2.3 -0.1,-7 2.6,-6.9 z"
       inkscape:connector-curvature="0"
       style="fill:#262626" />
    <path
       id="path2350"
       d="m 131.5,32.9 c -1.4,-0.8 -6.4,0.8 -7.6,1.3 -1.2,0.5 -2,1.7 -3.1,3.1 -1.1,1.4 -4.8,2.5 -8.4,3.4 -3.6,1 -6,3.7 -6.2,3.8 -0.2,0 -5.4,-0.3 -7.2,-0.5 -0.6,0.7 -1.1,1.8 -1.1,3.2 0,1.3 0.3,2.6 0.5,3.6 0.7,0 1.5,0.1 2.3,0.1 3.5,0.2 7.8,-0.1 8.6,-0.1 0.8,-0.1 4.2,-2.6 6.2,-3.7 2.1,-1.2 8.3,-5.2 8.3,-5.2 0,0 5.8,-0.4 8.1,-2.4 2.3,-2 1,-5.7 -0.4,-6.6 z"
       inkscape:connector-curvature="0"
       style="fill:#fbd7c7" />
  </g>
</svg>
