<svg enable-background="new 0 0 160 160" viewBox="0 0 160 160" xmlns="http://www.w3.org/2000/svg"><path d="m47.9 155.5c8.6 4.1 40.7-11 57.2-17.5 12.2-4.8 27.9-11.1 20.5-15-5.1-2.7-10.2-.7-27.3 5.5-17.8 6.5-57.6 23.6-50.4 27z" opacity=".2"/><path d="m76.5 26.7s-11.5-1.8-14.9-2.4-4.8-1.5-7.8-1.5c-3.1.1-5.5 1-9.4 1.7s-4.5.8-6.1.2-5-1.5-6.1-1.5-2.4 1.2-2.2 3.8c.2 2.3 1.8 3.9 2.6 4 .8.2 3.6 0 5-.4s3-1.1 4.6-1.1c1.7 0 7.7.9 9.4.7 1.8-.2 4.4-.5 4.4-.5s5 1.5 11.6 2.9c6.5 1.5 8.9-5.9 8.9-5.9z" fill="#fbd7c7"/><path d="m115.1 110.4c1.2-.4 3.3-.1 3.4 1.7s-.7 4-.6 5.9c.1 1.3 1.2 3.8 1.7 7.3.4 2.5-.1 3.8-1.8 4.7-1.3.6-4.1.7-4.9-1.6-.6-1.7-1.1-8.5-1.1-8.5z" fill="#262626"/><path d="m114.8 110.3c.8 0 2.2-.3 2 1.9s-.7 5.6-.1 7.7 2.2 7.2.7 9c-.8 1-3.5 1.2-4.1-.9-.5-1.7-.6-4.4-1.1-6.5-.3-1.3-1.9-2.6-1.9-2.6z" fill="#fff"/><path d="m83.2 66.9c-1.1 3.3-2.6 10.2-2.4 15.7.1 5.5.5 21.4 3.1 25.2s9.5 6.1 14.1 8.4 11 7.2 11.9 6.8 4.7-2.2 5.6-8.5c.8-5.4-.2-6.5-1.1-6.6s-1.6-.1-4.8-1.6-5.9-4.5-8.6-5c-2.7-.6-4.9-1.8-4.9-1.8s.8-11.2.7-18.4c-.1-7.1-1.3-15.1-1.3-15.1z" fill="#06547a"/><path d="m83.2 66.9c-1.1 3.3-2.6 10.2-2.4 15.7.1 5.5.5 21.4 3.1 25.2s9.5 6.1 14.1 8.4 11 7.2 11.9 6.8 4.7-2.2 5.6-8.5c.8-5.4-.2-6.5-1.1-6.6s-1.6-.1-4.8-1.6-5.9-4.5-8.6-5c-2.7-.6-4.9-1.8-4.9-1.8s.8-11.2.7-18.4c-.1-7.1-1.3-15.1-1.3-15.1z" opacity=".2"/><path d="m91.2 67.4c-3.6 1.4-8.1 3.3-11.6 4.7-3.6 1.4-9 3.6-12.2 6.9s-8 10.7-11.1 13.5-11.8 10.2-11.9 11 1 6.3 3 8.3 5.1 5.4 6.5 4.5 8.4-8.7 10.2-10.9c1.8-2.1 11-14.4 12.2-15.1 1.1-.7 9.7-2.4 15-3.1s12.5-1.9 14.5-8.7-.1-11.1-.1-11.1z" fill="#06547a"/><path d="m40.8 104.2s1.4 1 3 1.1 2 .4 2 .4 1.4 1.2 2.7 2.9c.9 1.1 1.6 2.9 1.6 2.9s-.3 4-.5 4.6-.6.8-.6.8-2.1-2.6-4-4.6-2.1-2.6-2.7-4.7c-.6-2-1.5-3.4-1.5-3.4z" fill="#fff"/><path d="m81.7 25.9c-3.6-.3-6.5-.5-9.7-.8s-8.8-1.1-8.8-1.1-1.6.1-2 3.6c-.2 2.8.2 5.8.7 5.9s10.1 1.8 12.7 4.6c2.1 2.3 3.7 6.5 4.9 10.7 1.4 4.6 3.2 10 3.1 12.9-.1 3.4-.5 7.6-.6 8.1s3.8-1.1 6.9-1.1c12.6-.2 17.8 5.7 17.8 5.7s.9-7.1.8-14.9c-.1-3.4-1-9-1-9s2.2-.5 4.4-2.1c2.1-1.6 2.6-3 2.5-3.4s-4.2-8.3-6.7-10.9c-2.4-2.7-7.4-6.4-9.8-7.2-7.2-2.4-15.2-1-15.2-1z" fill="#9c3"/><path d="m91.7 22.9s-.3 1.3.9 2.3 3.3 1.9 3.3 1.9-4.8 8.6-9.5 8.2c-4.8-.4-5.1-5.2-5.1-5.2s-1.7.4-3.1-.8-5.7-8.5-4.8-15.4c.9-7 8.1-11.5 13.8-9.7 5.8 1.8 8.9 6.2 7.9 11.4-1.1 5.8-3.4 7.3-3.4 7.3z" fill="#fbd7c7"/><path d="m89.6 21.2s1.6-4.2 3.2-3.6c1.5.5.6 3.3.6 3.3s3.4-4.3 1.9-11.5-11.7-9-16.8-5.8c-5.8 3.6-8.8 13.3-3.7 16.3s9.3-1.1 11.2-1.4 2 2.3 3.6 2.7z" fill="#825012"/><path d="m106.9 49.3s1.1-1.4 2.9-2.6c1.7-1.2 2.4-1.2 2.4-1.2s4 5 4.8 6.2c.7 1.1 1.9 2.9.2 4.7s-4.2 3.1-6 3.9-3.8 3.7-6.2 3.6c-2.4-.2-3-2-2.7-3.4.2-1 1.1-1.7 2.1-2.1 1.6-.7 1.5-1.2.3-.9s-2.3.7-2.7.3.6-1.3 1.4-1.5 2.6-1 3.4-.7 1.1 1 1.6 1c.5.1 2.8-1.5 2.5-2-.5-1-4-5.3-4-5.3z" fill="#fbd7c7"/><path d="m35.8 100.6c1.8-1.3 4.3.5 6.1 3.4 1.8 3 3.7 6.9 5.3 8.6s2.1 2.6 2.3 3.5c.2 1.2-1.1 2.7-2.7 2.2-1.8-.6-7.5-6-8.9-7.2-1.3-1.4-6.1-7.5-2.1-10.5z" fill="#262626"/></svg>