<?xml version="1.0" encoding="UTF-8" standalone="no"?>
<svg
   xmlns:dc="http://purl.org/dc/elements/1.1/"
   xmlns:cc="http://creativecommons.org/ns#"
   xmlns:rdf="http://www.w3.org/1999/02/22-rdf-syntax-ns#"
   xmlns:svg="http://www.w3.org/2000/svg"
   xmlns="http://www.w3.org/2000/svg"
   xmlns:sodipodi="http://sodipodi.sourceforge.net/DTD/sodipodi-0.dtd"
   xmlns:inkscape="http://www.inkscape.org/namespaces/inkscape"
   enable-background="new 0 0 80 160"
   viewBox="0 0 3.9109113 14.034504"
   version="1.1"
   id="svg2538"
   sodipodi:docname="city--kid05.svg"
   width="3.9109113"
   height="14.034504"
   inkscape:version="0.92.2 (5c3e80d, 2017-08-06)">
  <metadata
     id="metadata2544">
    <rdf:RDF>
      <cc:Work
         rdf:about="">
        <dc:format>image/svg+xml</dc:format>
        <dc:type
           rdf:resource="http://purl.org/dc/dcmitype/StillImage" />
        <dc:title></dc:title>
      </cc:Work>
    </rdf:RDF>
  </metadata>
  <defs
     id="defs2542" />
  <sodipodi:namedview
     pagecolor="#ffffff"
     bordercolor="#666666"
     borderopacity="1"
     objecttolerance="10"
     gridtolerance="10"
     guidetolerance="10"
     inkscape:pageopacity="0"
     inkscape:pageshadow="2"
     inkscape:window-width="880"
     inkscape:window-height="480"
     id="namedview2540"
     showgrid="false"
     fit-margin-top="0"
     fit-margin-left="0"
     fit-margin-right="0"
     fit-margin-bottom="0"
     inkscape:zoom="1.91875"
     inkscape:cx="7.95205"
     inkscape:cy="10.274773"
     inkscape:window-x="0"
     inkscape:window-y="0"
     inkscape:window-maximized="1"
     inkscape:current-layer="svg2538" />
  <g
     id="g2560"
     transform="matrix(0.1,0,0,0.1,-1.7054712,-1.3085)">
    <path
       id="path2510"
       d="m 27.6,136.2 c -7.4,5.1 -7.2,10.7 0.7,15 8.7,4.7 14.4,1.1 21.2,-2.8 6.8,-3.9 6.9,-9 -3,-13 -8.1,-3.2 -14.7,-2.1 -18.9,0.8 z"
       inkscape:connector-curvature="0"
       style="opacity:0.2" />
    <path
       id="path2512"
       d="m 39.9,135.5 c 1.3,0.4 1.6,0.7 1.6,1.7 0,1 -0.8,2.5 -2.4,3.9 -1.6,1.4 -5.3,6.1 -9.7,6.2 -4.4,0.2 -5.4,-2.2 -4.6,-4 1.2,-3.1 11.5,-8.9 15.1,-7.8 z"
       inkscape:connector-curvature="0"
       style="fill:#262626" />
    <path
       id="path2514"
       d="m 48.8,140.4 c 0.7,0.4 1.2,1.7 0.6,2.7 -0.6,1.1 -2.4,2 -4.5,4.3 -2.1,2.3 -5.6,5.3 -9.8,4.1 -4.2,-1.1 -1.6,-5 -0.8,-5.8 0.8,-0.7 9.1,-8.3 14.5,-5.3 z"
       inkscape:connector-curvature="0"
       style="fill:#262626" />
    <path
       id="path2516"
       d="m 26.3,56.9 c -1.6,2.7 -3.3,5.6 -4.3,10.4 -1,4.8 -2,8.2 -2.9,9.9 -0.9,1.7 -2.7,4.3 -1.8,7.4 0.9,3.1 2,3.4 3.3,3.1 1.2,-0.4 2,-1.4 2,-2.1 0,-0.7 -0.8,-2.3 -0.4,-3.5 0.4,-1.2 1.4,-2.5 1.4,-3.5 0,-1 -0.5,-1.7 -0.4,-2.1 0.1,-0.4 3.9,-7.8 4.6,-8.9 0.7,-1.1 3.1,-4.3 3.1,-4.9 0.1,-0.6 -4.6,-5.8 -4.6,-5.8 z"
       inkscape:connector-curvature="0"
       style="fill:#fbd7c7" />
    <path
       id="path2518"
       d="m 39.8,137.6 c 0,0 -2,2.1 -3.3,3.4 -1.3,1.3 -4.5,5.1 -8.4,4.7 -3.8,-0.4 -3.7,-2 -2.8,-3.2 0.9,-1.2 4.3,-4.5 5.1,-5.5 0.7,-1 1.4,-2.6 2.9,-1.8 1.5,0.8 2.4,2.3 4,2.5 1.8,0.2 2.5,-0.1 2.5,-0.1 z"
       inkscape:connector-curvature="0"
       style="fill:#ffffff" />
    <path
       id="path2520"
       d="m 48.4,142.1 c 0,0 -1.4,1.6 -3.6,3.7 -2.2,2.1 -4.4,4.1 -7.1,4.3 -2.7,0.2 -5,-0.7 -4.3,-2.7 0.7,-2 2.7,-3.3 4,-5.1 1.3,-1.8 2.3,-4 4.1,-2.7 1.8,1.3 3.1,2.7 4.7,2.8 1.6,0.1 2.2,-0.3 2.2,-0.3 z"
       inkscape:connector-curvature="0"
       style="fill:#ffffff" />
    <path
       id="path2522"
       d="m 25.9,71.1 c 0,0 -2,9.1 -1.2,16.3 0.7,7.2 4,21.8 4.1,23.3 0.1,1.6 0.5,5.3 1.3,8.1 0.8,2.8 2.4,10.9 1.7,12.9 -0.7,2.1 -1.8,4 -0.5,5 1.3,1 5.1,1.8 7.7,1.5 2.4,-0.3 2.9,-1.8 3.3,-3 0.4,-1.2 -1.9,-7.1 -2.2,-12.1 C 39.9,118.2 38,95 38.9,91.2 39.7,87.5 38.3,70.6 38.3,70.6 Z"
       inkscape:connector-curvature="0"
       style="fill:#06547a" />
    <path
       id="path2524"
       d="m 25.9,71.1 c 0,0 -2,9.1 -1.2,16.3 0.7,7.2 4,21.8 4.1,23.3 0.1,1.6 0.5,5.3 1.3,8.1 0.8,2.8 2.4,10.9 1.7,12.9 -0.7,2.1 -1.8,4 -0.5,5 1.3,1 5.1,1.8 7.7,1.5 2.4,-0.3 2.9,-1.8 3.3,-3 0.4,-1.2 -1.9,-7.1 -2.2,-12.1 C 39.9,118.2 38,95 38.9,91.2 39.7,87.5 38.3,70.6 38.3,70.6 Z"
       inkscape:connector-curvature="0"
       style="opacity:0.2" />
    <path
       id="path2526"
       d="m 35.3,72.5 c 0,0 -0.5,13 -0.5,18.5 0,5.5 2.1,19.3 3.1,23.7 1.1,4.3 2.5,12.8 2.7,15.1 0.2,2.3 -0.7,7.7 -1.6,8.6 -0.8,0.8 -0.4,2.9 1.8,4.1 2.2,1.2 7.5,1 8.3,-1 0.8,-1.9 -0.4,-4.3 -0.1,-7.5 0.4,-3.3 1.2,-9.1 1,-13.6 -0.2,-5.4 -3.4,-10 -3.1,-12.7 0.3,-2.7 5.4,-21.1 4.8,-26.2 -0.6,-5.1 -5.6,-10.9 -5.6,-10.9 z"
       inkscape:connector-curvature="0"
       style="fill:#06547a" />
    <path
       id="path2528"
       d="m 35.4,35.6 c 0,0 -5.6,-0.2 -7.5,1.3 -1.9,1.5 -3,4.1 -2.7,5.7 0.4,1.6 1,2.7 1,2.7 0,0 -1.3,3.9 -1.3,6.3 -0.1,4.2 0.8,11.6 0.8,14.6 0,3 -1.4,12.1 -1.4,12.1 0,0 5.6,2.9 13.4,2.3 10.4,-0.7 13.4,-3.8 13.4,-3.8 0,0 -3.1,-3.8 -3.3,-7.5 -0.3,-4 2.5,-11.4 2.5,-11.4 l 3.5,-0.7 c 0,0 0.1,-4.7 -0.2,-6.6 -0.3,-1.9 -1.6,-5.1 -3.9,-7.8 -2.4,-2.7 -5.6,-5.7 -5.6,-5.7 z"
       inkscape:connector-curvature="0"
       style="fill:#cc291f" />
    <path
       id="path2530"
       d="m 53.4,57.2 c -0.8,0.1 -2.1,0.3 -3.4,0.7 -1.2,0.3 -2.5,0.8 -3.4,1.1 0.6,2.9 1,5.9 1.6,8 0.6,2.2 1.6,5.4 1.6,5.4 0,0 -1.1,4.7 -2,8.7 -0.9,4 -1.9,8.2 -1.9,8.2 0,0 -3.9,1.9 -4.4,2.5 -0.5,0.6 -1,2.2 -1.4,3 -0.4,0.8 0.1,1.5 0.8,0.9 0.7,-0.6 1.4,-1.8 1.6,-2 0.2,-0.2 0.6,0.5 0.6,1.8 0,1.3 -0.2,1 -0.6,1.5 -0.4,0.5 -1.4,1 -1.6,1.1 -0.3,0.2 0.3,1.1 1.9,1.1 1.6,0 3.4,-1 4.3,-1.9 0.9,-0.9 2.1,-2.7 2.5,-4.5 0.4,-1.8 0,-1.5 0.5,-2.8 0.5,-1.3 5.4,-14.2 5.8,-16.3 0.4,-2.1 0.3,-3.1 0,-4.8 -0.4,-1.3 -2.3,-8.4 -2.5,-11.7 z"
       inkscape:connector-curvature="0"
       style="fill:#fbd7c7" />
    <path
       id="path2532"
       d="m 46.6,14.8 c 0,0 -4,-3.5 -10.6,-0.5 -6.6,3 -7.4,8 -7.2,11 0.2,3 1.6,11.8 -1.9,16.1 -1.1,1.3 2.5,2 5.2,1.2 5,-1.4 7.9,-9.9 7.9,-9.9 z"
       inkscape:connector-curvature="0"
       style="fill:#825012" />
    <path
       id="path2534"
       d="m 35.4,19 c -2,1.3 -5.9,1.4 -5.7,7.4 0.2,5.9 1.1,9.7 2.5,10.4 1.4,0.6 2.9,0.2 2.9,0.2 0,0 0.2,0.7 -0.2,2 -0.4,1.3 -2,3.1 -0.5,4.5 1.5,1.4 6.2,0.7 8.5,-0.9 2.4,-1.6 2.5,-3.5 2.5,-3.5 0,0 -1.3,0.1 -1.4,-1.4 -0.1,-1.6 0.4,-4.3 1.1,-5.9 0.8,-1.6 4.1,-3.6 4.1,-9 0,-5.4 -6.1,-8.8 -13.8,-3.8 z"
       inkscape:connector-curvature="0"
       style="fill:#fbd7c7" />
    <path
       id="path2536"
       d="m 34.4,19 c -1.6,1.3 -0.8,5.4 1.4,8.5 2,2.7 4.7,2.3 5.6,8.5 0.4,3 -0.7,7.8 -3.3,13.2 -1,2.1 7.2,1.1 9.9,0.4 2.4,-0.6 6.2,-1.5 5.3,-4.1 C 50.5,37 50.7,32.3 50.9,28.4 51.1,24.8 52,20.5 49.4,17.1 45.3,11.9 39.5,14.9 34.4,19 Z"
       inkscape:connector-curvature="0"
       style="fill:#825012" />
  </g>
</svg>
