<?xml version="1.0" encoding="UTF-8" standalone="no"?>
<svg
   xmlns:dc="http://purl.org/dc/elements/1.1/"
   xmlns:cc="http://creativecommons.org/ns#"
   xmlns:rdf="http://www.w3.org/1999/02/22-rdf-syntax-ns#"
   xmlns:svg="http://www.w3.org/2000/svg"
   xmlns="http://www.w3.org/2000/svg"
   xmlns:sodipodi="http://sodipodi.sourceforge.net/DTD/sodipodi-0.dtd"
   xmlns:inkscape="http://www.inkscape.org/namespaces/inkscape"
   enable-background="new 0 0 160 160"
   viewBox="0 0 9.7526464 15.411828"
   version="1.1"
   id="svg2443"
   sodipodi:docname="city--kid04.svg"
   width="9.7526464"
   height="15.411828"
   inkscape:version="0.92.2 (5c3e80d, 2017-08-06)">
  <metadata
     id="metadata2449">
    <rdf:RDF>
      <cc:Work
         rdf:about="">
        <dc:format>image/svg+xml</dc:format>
        <dc:type
           rdf:resource="http://purl.org/dc/dcmitype/StillImage" />
        <dc:title></dc:title>
      </cc:Work>
    </rdf:RDF>
  </metadata>
  <defs
     id="defs2447" />
  <sodipodi:namedview
     pagecolor="#ffffff"
     bordercolor="#666666"
     borderopacity="1"
     objecttolerance="10"
     gridtolerance="10"
     guidetolerance="10"
     inkscape:pageopacity="0"
     inkscape:pageshadow="2"
     inkscape:window-width="880"
     inkscape:window-height="480"
     id="namedview2445"
     showgrid="false"
     fit-margin-top="0"
     fit-margin-left="0"
     fit-margin-right="0"
     fit-margin-bottom="0"
     inkscape:zoom="1.475"
     inkscape:cx="9.523456"
     inkscape:cy="6.8419175"
     inkscape:window-x="0"
     inkscape:window-y="0"
     inkscape:window-maximized="1"
     inkscape:current-layer="svg2443" />
  <g
     id="g2464"
     transform="matrix(0.1,0,0,0.1,-2.9979465,-0.20768618)">
    <path
       id="path2417"
       d="m 47.9,155.5 c 8.6,4.1 40.7,-11 57.2,-17.5 12.2,-4.8 27.9,-11.1 20.5,-15 -5.1,-2.7 -10.2,-0.7 -27.3,5.5 -17.8,6.5 -57.6,23.6 -50.4,27 z"
       inkscape:connector-curvature="0"
       style="opacity:0.2" />
    <path
       id="path2419"
       d="m 76.5,26.7 c 0,0 -11.5,-1.8 -14.9,-2.4 -3.4,-0.6 -4.8,-1.5 -7.8,-1.5 -3.1,0.1 -5.5,1 -9.4,1.7 -3.9,0.7 -4.5,0.8 -6.1,0.2 -1.6,-0.6 -5,-1.5 -6.1,-1.5 -1.1,0 -2.4,1.2 -2.2,3.8 0.2,2.3 1.8,3.9 2.6,4 0.8,0.2 3.6,0 5,-0.4 1.4,-0.4 3,-1.1 4.6,-1.1 1.7,0 7.7,0.9 9.4,0.7 1.8,-0.2 4.4,-0.5 4.4,-0.5 0,0 5,1.5 11.6,2.9 6.5,1.5 8.9,-5.9 8.9,-5.9 z"
       inkscape:connector-curvature="0"
       style="fill:#fbd7c7" />
    <path
       id="path2421"
       d="m 115.1,110.4 c 1.2,-0.4 3.3,-0.1 3.4,1.7 0.1,1.8 -0.7,4 -0.6,5.9 0.1,1.3 1.2,3.8 1.7,7.3 0.4,2.5 -0.1,3.8 -1.8,4.7 -1.3,0.6 -4.1,0.7 -4.9,-1.6 -0.6,-1.7 -1.1,-8.5 -1.1,-8.5 z"
       inkscape:connector-curvature="0"
       style="fill:#262626" />
    <path
       id="path2423"
       d="m 114.8,110.3 c 0.8,0 2.2,-0.3 2,1.9 -0.2,2.2 -0.7,5.6 -0.1,7.7 0.6,2.1 2.2,7.2 0.7,9 -0.8,1 -3.5,1.2 -4.1,-0.9 -0.5,-1.7 -0.6,-4.4 -1.1,-6.5 -0.3,-1.3 -1.9,-2.6 -1.9,-2.6 z"
       inkscape:connector-curvature="0"
       style="fill:#ffffff" />
    <path
       id="path2425"
       d="m 83.2,66.9 c -1.1,3.3 -2.6,10.2 -2.4,15.7 0.1,5.5 0.5,21.4 3.1,25.2 2.6,3.8 9.5,6.1 14.1,8.4 4.6,2.3 11,7.2 11.9,6.8 0.9,-0.4 4.7,-2.2 5.6,-8.5 0.8,-5.4 -0.2,-6.5 -1.1,-6.6 -0.9,-0.1 -1.6,-0.1 -4.8,-1.6 -3.2,-1.5 -5.9,-4.5 -8.6,-5 -2.7,-0.6 -4.9,-1.8 -4.9,-1.8 0,0 0.8,-11.2 0.7,-18.4 C 96.7,74 95.5,66 95.5,66 Z"
       inkscape:connector-curvature="0"
       style="fill:#06547a" />
    <path
       id="path2427"
       d="m 83.2,66.9 c -1.1,3.3 -2.6,10.2 -2.4,15.7 0.1,5.5 0.5,21.4 3.1,25.2 2.6,3.8 9.5,6.1 14.1,8.4 4.6,2.3 11,7.2 11.9,6.8 0.9,-0.4 4.7,-2.2 5.6,-8.5 0.8,-5.4 -0.2,-6.5 -1.1,-6.6 -0.9,-0.1 -1.6,-0.1 -4.8,-1.6 -3.2,-1.5 -5.9,-4.5 -8.6,-5 -2.7,-0.6 -4.9,-1.8 -4.9,-1.8 0,0 0.8,-11.2 0.7,-18.4 C 96.7,74 95.5,66 95.5,66 Z"
       inkscape:connector-curvature="0"
       style="opacity:0.2" />
    <path
       id="path2429"
       d="m 91.2,67.4 c -3.6,1.4 -8.1,3.3 -11.6,4.7 -3.6,1.4 -9,3.6 -12.2,6.9 -3.2,3.3 -8,10.7 -11.1,13.5 -3.1,2.8 -11.8,10.2 -11.9,11 -0.1,0.8 1,6.3 3,8.3 2,2 5.1,5.4 6.5,4.5 1.4,-0.9 8.4,-8.7 10.2,-10.9 1.8,-2.1 11,-14.4 12.2,-15.1 1.1,-0.7 9.7,-2.4 15,-3.1 5.3,-0.7 12.5,-1.9 14.5,-8.7 2,-6.8 -0.1,-11.1 -0.1,-11.1 z"
       inkscape:connector-curvature="0"
       style="fill:#06547a" />
    <path
       id="path2431"
       d="m 40.8,104.2 c 0,0 1.4,1 3,1.1 1.6,0.1 2,0.4 2,0.4 0,0 1.4,1.2 2.7,2.9 0.9,1.1 1.6,2.9 1.6,2.9 0,0 -0.3,4 -0.5,4.6 -0.2,0.6 -0.6,0.8 -0.6,0.8 0,0 -2.1,-2.6 -4,-4.6 -1.9,-2 -2.1,-2.6 -2.7,-4.7 -0.6,-2 -1.5,-3.4 -1.5,-3.4 z"
       inkscape:connector-curvature="0"
       style="fill:#ffffff" />
    <path
       id="path2433"
       d="M 81.7,25.9 C 78.1,25.6 75.2,25.4 72,25.1 68.8,24.8 63.2,24 63.2,24 c 0,0 -1.6,0.1 -2,3.6 -0.2,2.8 0.2,5.8 0.7,5.9 0.5,0.1 10.1,1.8 12.7,4.6 2.1,2.3 3.7,6.5 4.9,10.7 1.4,4.6 3.2,10 3.1,12.9 -0.1,3.4 -0.5,7.6 -0.6,8.1 -0.1,0.5 3.8,-1.1 6.9,-1.1 12.6,-0.2 17.8,5.7 17.8,5.7 0,0 0.9,-7.1 0.8,-14.9 -0.1,-3.4 -1,-9 -1,-9 0,0 2.2,-0.5 4.4,-2.1 2.1,-1.6 2.6,-3 2.5,-3.4 -0.1,-0.4 -4.2,-8.3 -6.7,-10.9 -2.4,-2.7 -7.4,-6.4 -9.8,-7.2 -7.2,-2.4 -15.2,-1 -15.2,-1 z"
       inkscape:connector-curvature="0"
       style="fill:#99cc33" />
    <path
       id="path2435"
       d="m 91.7,22.9 c 0,0 -0.3,1.3 0.9,2.3 1.2,1 3.3,1.9 3.3,1.9 0,0 -4.8,8.6 -9.5,8.2 -4.8,-0.4 -5.1,-5.2 -5.1,-5.2 0,0 -1.7,0.4 -3.1,-0.8 -1.4,-1.2 -5.7,-8.5 -4.8,-15.4 0.9,-7 8.1,-11.5 13.8,-9.7 5.8,1.8 8.9,6.2 7.9,11.4 -1.1,5.8 -3.4,7.3 -3.4,7.3 z"
       inkscape:connector-curvature="0"
       style="fill:#fbd7c7" />
    <path
       id="path2437"
       d="m 89.6,21.2 c 0,0 1.6,-4.2 3.2,-3.6 1.5,0.5 0.6,3.3 0.6,3.3 0,0 3.4,-4.3 1.9,-11.5 -1.5,-7.2 -11.7,-9 -16.8,-5.8 -5.8,3.6 -8.8,13.3 -3.7,16.3 5.1,3 9.3,-1.1 11.2,-1.4 1.9,-0.3 2,2.3 3.6,2.7 z"
       inkscape:connector-curvature="0"
       style="fill:#825012" />
    <path
       id="path2439"
       d="m 106.9,49.3 c 0,0 1.1,-1.4 2.9,-2.6 1.7,-1.2 2.4,-1.2 2.4,-1.2 0,0 4,5 4.8,6.2 0.7,1.1 1.9,2.9 0.2,4.7 -1.7,1.8 -4.2,3.1 -6,3.9 -1.8,0.8 -3.8,3.7 -6.2,3.6 -2.4,-0.2 -3,-2 -2.7,-3.4 0.2,-1 1.1,-1.7 2.1,-2.1 1.6,-0.7 1.5,-1.2 0.3,-0.9 -1.2,0.3 -2.3,0.7 -2.7,0.3 -0.4,-0.4 0.6,-1.3 1.4,-1.5 0.8,-0.2 2.6,-1 3.4,-0.7 0.8,0.3 1.1,1 1.6,1 0.5,0.1 2.8,-1.5 2.5,-2 -0.5,-1 -4,-5.3 -4,-5.3 z"
       inkscape:connector-curvature="0"
       style="fill:#fbd7c7" />
    <path
       id="path2441"
       d="m 35.8,100.6 c 1.8,-1.3 4.3,0.5 6.1,3.4 1.8,3 3.7,6.9 5.3,8.6 1.6,1.7 2.1,2.6 2.3,3.5 0.2,1.2 -1.1,2.7 -2.7,2.2 -1.8,-0.6 -7.5,-6 -8.9,-7.2 -1.3,-1.4 -6.1,-7.5 -2.1,-10.5 z"
       inkscape:connector-curvature="0"
       style="fill:#262626" />
  </g>
</svg>
