<svg enable-background="new 0 0 160 160" viewBox="0 0 160 160" xmlns="http://www.w3.org/2000/svg"><path d="m42 151.6c8.6 4.1 21.1-3.1 37.6-9.6 12.2-4.8 45.9-19.4 41.2-23.2-4.5-3.6-30.9 7.5-48 13.7-17.8 6.4-38 15.7-30.8 19.1z" opacity=".2"/><path d="m82.6 41.2c-1.1-.6-3.7-3-3.6-4.6.1-1.7.5-2.9 1.3-3.2.8-.2 1.9 0 2.6-.3 1-.4 4.9-4.9 5-10.5s.5-11.9-6.9-13.3-12.3 1.8-13.4 7.4c-1.2 6.2 1.5 8.7 2.1 11 .8 3.2.2 5.9-1.7 6.8-1.8.8-5.1.5-5.1.5s4 4.8 7.7 5.8c3.9 1.1 12 .4 12 .4z" fill="#fbd7c7"/><path d="m83.8 27.8s1.5-3.8-.3-3.8-4.6 6.1-7.8 6.8-5.9-.3-7-2.7c-.8-1.8-3.7-9.7-1-14.7 4.9-9.1 16.6-5.8 19.9-1.1 2.4 3.4 2.3 8.8 1.3 9.2s-.7-2.2-1.7-1.5-1.5 7.9-3.4 7.8z" fill="#825012"/><path d="m50.2 41.8s-.8-3.7-1.5-5.6-1.7-4.8-1.1-6.4 2-3.1 2-3.9 2-4.7-.5-5.2-3.4-.1-4.3 2.4-1 7.1-.9 10-1.5 7.5-.1 11.6 2.4 5.3 3.6 5.5 3.7-1.8 6.5-4.1c2.7-2.2-3.7-4.3-3.7-4.3z" fill="#fbd7c7"/><path d="m109.2 77c1.1.2 1.7.7 3.2-.5s2.2-2.9 4.3-4.9c2.1-2.1 5.4-5.5 5.4-8.8-.1-4.1-3.9-6-6.4-4.1-2.2 1.7-1.7 3.9-3.6 5.8-2.9 2.9-4.5 3.3-4.5 3.3z" fill="#262626"/><path d="m109.8 74.6s1.6-.5 5-3.7 5.7-4.9 6-8.9-4.1-4.7-5.7-2.4-1.2 3.2-3.7 5.5c-2.3 2.3-1.6 9.5-1.6 9.5z" fill="#fff"/><path d="m76.4 76.2s10.7-5.8 11.5-5.9 5.4 2.1 9.4 4 11.1 3.7 12.7 3c1.5-.7 4.3-4.9 3.5-10s-3.6-4.3-6.1-4.7-8.1-2.4-10.8-3.6c-2.6-1.2-6.5-3.6-9.2-3s-16 5.5-16 5.5z" fill="#06547a"/><path d="m76.4 76.2s10.7-5.8 11.5-5.9 5.4 2.1 9.4 4 11.1 3.7 12.7 3c1.5-.7 4.3-4.9 3.5-10s-3.6-4.3-6.1-4.7-8.1-2.4-10.8-3.6c-2.6-1.2-6.5-3.6-9.2-3s-16 5.5-16 5.5z" opacity=".2"/><path d="m45.5 132c-.6 2.8-.9 9.8 2.6 11.5s5.9-.2 7.9-3.3 13.2-15.3 15-17.6 6.1-5.4 7.1-8.7c1.1-3.3 2.5-11.8 2.2-20.4s-1.7-19.8-1.7-19.8l-23.1 4.4s-.4 1.6 2.4 4.8c2.8 3.1 6.4 9.6 6.9 14s1.1 11 .8 12.2c-.2 1.2-9.3 8.3-13 13-3.7 4.6-6.4 6.2-7.1 9.9z" fill="#06547a"/><path d="m100.2 42.9c-.1 0-.1 0 0 0 0 0-9.6-1.7-12.8-2.4s-3.9-.4-6-.4c-2.1-.1-6.1-.8-9.4-1.8-3.2-1-5.9-3.4-5.9-3.4-1.2 0-2.3-2-5.9-1.7-3.6.2-9.5 6.3-10.3 7.1s-1.5 2.6-.6 4.9 3.6 3.9 4.9 3.9 2.7-1.5 2.7-1.5 0 3.9-.2 9c-.2 5-1.6 16.2-1.9 18.8s-.3 6.2 7.7 9.8c8.3 3.7 15.4-1.6 16.8-4.2s.3-5.3-.2-6.3.8-4.5 1.7-7.4 3.7-12.8 5.2-13.8 13.1-.7 13.1-.8c1.1-.1 1.5-1.5 1.9-4.8.3-3.3-.8-5-.8-5z" fill="#9c3"/><path d="m45 132.4s.7-.8 2.5-1.1 3.2 2.5 3.4 4.4c.4 2.7.5 5.1.2 6.6-.5 2.4-1.5 5.9-2.2 6.9-.8 1-2.4.3-2.4.3z" fill="#fff"/><path d="m46.1 131.8c2.1.1 3.1 1.8 3.4 4.7s.8 10.6-.7 13.1-7.2 1.1-6.2-3.7c.6-3.2.9-4.3.9-7.2 0-2.3-.1-7 2.6-6.9z" fill="#262626"/><path d="m131.5 32.9c-1.4-.8-6.4.8-7.6 1.3s-2 1.7-3.1 3.1-4.8 2.5-8.4 3.4c-3.6 1-6 3.7-6.2 3.8-.2 0-5.4-.3-7.2-.5-.6.7-1.1 1.8-1.1 3.2 0 1.3.3 2.6.5 3.6.7 0 1.5.1 2.3.1 3.5.2 7.8-.1 8.6-.1.8-.1 4.2-2.6 6.2-3.7 2.1-1.2 8.3-5.2 8.3-5.2s5.8-.4 8.1-2.4 1-5.7-.4-6.6z" fill="#fbd7c7"/></svg>