<?xml version="1.0" encoding="utf-8"?>
<!-- Generator: Adobe Illustrator 18.1.0, SVG Export Plug-In . SVG Version: 6.00 Build 0)  -->
<svg version="1.1" id="Layer_1" xmlns="http://www.w3.org/2000/svg" xmlns:xlink="http://www.w3.org/1999/xlink" x="0px" y="0px"
	 viewBox="0 0 80 56" enable-background="new 0 0 80 56" xml:space="preserve">
<g>
	<g>
		<polygon fill="#539B00" points="16,14 2,21 2,23 64,54 78,47 78,45 		"/>
		<polygon opacity="0.11" points="2,21 2,23 64,54 64,52 		"/>
		<polygon opacity="0.29" points="78,45 78,47 64,54 64,52 		"/>
	</g>
	<g>
		<polygon fill="#539B00" points="76,31 62,38 62,53 64,54 78,47 78,32 		"/>
		<polygon opacity="0.11" points="62,38 62,53 64,54 64,39 		"/>
		<polygon opacity="0.29" points="78,32 78,47 64,54 64,39 		"/>
	</g>
	<g>
		<polygon fill="#539B00" points="16,1 2,8 2,21 4,22 18,15 18,2 		"/>
		<polygon opacity="0.11" points="2,8 2,21 4,22 4,9 		"/>
		<polygon opacity="0.29" points="18,2 18,15 4,22 4,9 		"/>
	</g>
	<polygon opacity="0.15" points="67,39.5 66,40 66,51 67,50.5 	"/>
	<polygon opacity="0.15" points="69,38.5 68,39 68,50 69,49.5 	"/>
	<polygon opacity="0.15" points="71,37.5 70,38 70,49 71,48.5 	"/>
	<polygon opacity="0.15" points="73,36.5 72,37 72,48 73,47.5 	"/>
	<polygon opacity="0.15" points="75,35.5 74,36 74,47 75,46.5 	"/>
	<polygon opacity="0.15" points="77,34.5 76,35 76,46 77,45.5 	"/>
</g>
</svg>
