<?xml version="1.0" encoding="utf-8"?>
<!-- Generator: Adobe Illustrator 18.1.0, SVG Export Plug-In . SVG Version: 6.00 Build 0)  -->
<svg version="1.1" id="Layer_1" xmlns="http://www.w3.org/2000/svg" xmlns:xlink="http://www.w3.org/1999/xlink" x="0px" y="0px"
	 viewBox="0 0 1040 800" enable-background="new 0 0 1040 800" xml:space="preserve">
<polygon opacity="0.3" fill="#262626" points="800,765 956,687 666,542 510,620 "/>
<g>
	<polygon fill="#FF9900" points="692,447 650,468 650,474 714,506 756,485 756,479 	"/>
	<polygon opacity="0.11" points="650,474 650,468 714,500 714,506 	"/>
	<polygon opacity="0.29" points="756,485 756,479 714,500 714,506 	"/>
</g>
<g>
	<path fill="#2D3134" d="M926.3,559.3c-14.9-7.4-28.3-8-37.9-2.9L861,570.2c-9.2,4.9-15,15-15,29.3c0,29.2,23.7,64.6,52.8,79.2
		c16,8,30.4,8,40,1.6l22.3-11.1c11-4.2,18-14.9,18-30.7C979.1,609.4,955.5,573.9,926.3,559.3z"/>
	<path opacity="0.11" d="M951.6,652.3c0,29.2-23.7,41-52.8,26.4S846,628.7,846,599.5c0-29.2,23.7-41,52.8-26.4
		S951.6,623.2,951.6,652.3z"/>
	<path opacity="0.1" fill="#FFFFFF" d="M901.2,571.8c-15.9-7.9-30.1-8-39.8-1.8c9.1-3,20.9-1.7,33.7,4.7
		c29.2,14.6,52.8,50.1,52.8,79.2c0,13.3-4.9,23-13,28.2c11.7-3.9,19.1-14.8,19.1-31.1C954,621.8,930.4,586.4,901.2,571.8z"/>
	<path fill="#FF9900" d="M924.7,638.9c0,14.3-11.6,20.1-25.9,12.9c-14.3-7.1-25.9-24.5-25.9-38.8c0-14.3,11.6-20.1,25.9-12.9
		C913.1,607.2,924.7,624.6,924.7,638.9z"/>
	<path fill="#FF9900" d="M922.6,637.8c0,13.1-10.6,18.5-23.8,11.9c-13.1-6.6-23.8-22.5-23.8-35.7s10.6-18.5,23.8-11.9
		C912,608.7,922.6,624.7,922.6,637.8z"/>
	<path fill="#FF9900" d="M922.6,637.8c0,13.1-10.6,18.5-23.8,11.9c-13.1-6.6-23.8-22.5-23.8-35.7s10.6-18.5,23.8-11.9
		C912,608.7,922.6,624.7,922.6,637.8z"/>
	<path opacity="0.29" d="M922.6,637.8c0,13.1-10.6,18.5-23.8,11.9c-13.1-6.6-23.8-22.5-23.8-35.7s10.6-18.5,23.8-11.9
		C912,608.7,922.6,624.7,922.6,637.8z"/>
	<path opacity="0.15" d="M898.8,602.2c-13.1-6.6-23.8-1.2-23.8,11.9c0,7.1,3.1,15,8.1,21.9l33.5-16.8
		C912.3,612,905.9,605.7,898.8,602.2z"/>
	<path fill="#FF9900" d="M903.4,604.9l-6.2,3.3c-2.9,1.3-5.2,3.5-5.2,7.8c0,7.1,5.8,15.8,12.9,19.4c3.3,1.7,6.3,1.9,8.6,1l8.5-4.1
		C920,622.1,912.6,611.3,903.4,604.9z"/>
	<path opacity="0.29" d="M903.4,604.9l-6.2,3.3c-2.9,1.3-5.2,3.5-5.2,7.8c0,7.1,5.8,15.8,12.9,19.4c3.3,1.7,6.3,1.9,8.6,1l8.5-4.1
		C920,622.1,912.6,611.3,903.4,604.9z"/>
	<path opacity="0.29" d="M937.2,608.9c8.9,13.9,14.4,29.4,14.4,43.5c0,13.2-4.8,22.8-12.8,28l22.3-11.1c11-4.2,18-14.9,18-30.7
		c0-14-5.5-29.5-14.4-43.4L937.2,608.9z"/>
	<path fill="#FF9900" d="M917.8,628.9c0,7.1-5.8,10-12.9,6.5c-7.1-3.6-12.9-12.3-12.9-19.4s5.8-10,12.9-6.5
		C912,613.1,917.8,621.8,917.8,628.9z"/>
	<g opacity="0.5">
		<g>
			<g>
				<path d="M907,615.1c0,1.2-0.9,1.6-2.1,1.1c-1.2-0.6-2.1-2-2.1-3.2c0-1.2,0.9-1.6,2.1-1.1C906.1,612.5,907,613.9,907,615.1z"/>
			</g>
			<g>
				<path d="M907,632c0,1.2-0.9,1.6-2.1,1.1c-1.2-0.6-2.1-2-2.1-3.2c0-1.2,0.9-1.6,2.1-1.1C906.1,629.4,907,630.8,907,632z"/>
			</g>
			<g>
				<path d="M900.4,612.7c0.8,1.2,0.8,2.6,0,3c-0.8,0.4-2.2-0.3-3-1.5c-0.8-1.2-0.8-2.6,0-3C898.3,610.8,899.6,611.5,900.4,612.7z"
					/>
			</g>
			<g>
				<path d="M912.4,630.7c0.8,1.2,0.8,2.6,0,3c-0.8,0.4-2.2-0.3-3-1.5c-0.8-1.2-0.8-2.6,0-3C910.2,628.8,911.5,629.4,912.4,630.7z"
					/>
			</g>
			<g>
				<path d="M896.4,616.1c1.2,0.6,2.1,2,2.1,3.2c0,1.2-0.9,1.6-2.1,1.1c-1.2-0.6-2.1-2-2.1-3.2S895.3,615.5,896.4,616.1z"/>
			</g>
			<g>
				<path d="M913.4,624.6c1.2,0.6,2.1,2,2.1,3.2c0,1.2-0.9,1.6-2.1,1.1c-1.2-0.6-2.1-2-2.1-3.2C911.2,624.5,912.2,624,913.4,624.6z"
					/>
			</g>
			<g>
				<path d="M897.4,623.2c0.8-0.4,2.2,0.3,3,1.5c0.8,1.2,0.8,2.6,0,3c-0.8,0.4-2.2-0.3-3-1.5C896.6,624.9,896.6,623.6,897.4,623.2z"
					/>
			</g>
			<g>
				<path d="M909.4,617.2c0.8-0.4,2.2,0.3,3,1.5c0.8,1.2,0.8,2.6,0,3c-0.8,0.4-2.2-0.3-3-1.5C908.6,619,908.6,617.6,909.4,617.2z"/>
			</g>
		</g>
	</g>
	<g>
		<path opacity="0.1" fill="#FFFFFF" d="M898.8,573.1c-29.2-14.6-52.8-2.8-52.8,26.4c0,29.2,23.7,64.6,52.8,79.2
			c29.2,14.6,52.8,2.8,52.8-26.4C951.6,623.2,928,587.7,898.8,573.1z M898.8,672.4c-25.7-12.8-46.5-44-46.5-69.7
			c0-25.7,20.8-36.1,46.5-23.2s46.5,44,46.5,69.7C945.3,674.8,924.5,685.2,898.8,672.4z"/>
		<g opacity="0.5">
			<path d="M895,575.4l8.5,4.2l-4.2-6.3c-0.1-0.1-0.2-0.1-0.4-0.2c-2.6-1.3-5.1-2.3-7.6-3.2L895,575.4z"/>
			<path d="M903.4,676.8l-8.5-4.2l3.2,5.8c0.2,0.1,0.5,0.3,0.7,0.4c2.5,1.2,5,2.3,7.4,3.2L903.4,676.8z"/>
			<path d="M871.2,571.9l7.3-0.6l-5.8-4.4c-0.1,0-0.2,0-0.3,0c-2.2,0.2-4.3,0.6-6.3,1.1L871.2,571.9z"/>
			<path d="M927.1,679.8l-7.3,0.6l4.8,4.5c0.2,0,0.4,0,0.6,0c2.2-0.2,4.2-0.5,6.1-1.1L927.1,679.8z"/>
			<path d="M854.7,582.9l4.2-5.2l-5.8-1.3c-0.1,0.1-0.1,0.1-0.2,0.2c-1.3,1.6-2.4,3.3-3.3,5.2L854.7,582.9z"/>
			<path d="M943.1,668.3l-4.2,5.2l5.2,2c0.1-0.1,0.3-0.3,0.4-0.4c1.2-1.5,2.3-3.2,3.2-5L943.1,668.3z"/>
			<path d="M850.3,605.4V597l-4.2,2.1c0,0.1,0,0.2,0,0.4c0,2.6,0.2,5.2,0.5,7.8L850.3,605.4z"/>
			<path d="M947.5,645.5v8.5l4.2-1.1c0-0.2,0-0.5,0-0.7c0-2.5-0.2-5-0.5-7.6L947.5,645.5z"/>
			<path d="M858.7,633.4l-4.2-9.4l-1.5,5c0.1,0.1,0.1,0.3,0.2,0.4c1.3,2.9,2.7,5.7,4.2,8.4L858.7,633.4z"/>
			<path d="M938.7,617.5l4.2,9.4l2.1-3.8c-0.1-0.3-0.2-0.5-0.3-0.8c-1.2-2.8-2.6-5.5-4.1-8.2L938.7,617.5z"/>
			<path d="M877.9,659.4l-7.3-7.9l1.5,6.5c0.1,0.1,0.2,0.2,0.3,0.3c2.2,2.4,4.5,4.6,6.8,6.7L877.9,659.4z"/>
			<path d="M919.2,591.7l7.3,7.9l-0.6-5.5c-0.2-0.2-0.4-0.5-0.6-0.7c-2.2-2.3-4.4-4.5-6.6-6.5L919.2,591.7z"/>
		</g>
		<g opacity="0.5">
			<path d="M890.5,555.4c-0.7,0.3-1.4,0.6-2.1,1l-6.9,3.4l-0.8,1.3l-14.6,6.9c2-0.6,4-0.9,6.3-1.1c0.1,0,0.2,0,0.3,0l14.7-6.3
				L890.5,555.4z"/>
			<path d="M956,583.3c-1.6-1.9-3.3-3.7-5-5.5l-8.3,9.8l-24.1-0.8c2.3,2,4.5,4.2,6.6,6.5c0.2,0.2,0.4,0.5,0.6,0.7l21.2,0.5
				L956,583.3z"/>
			<path d="M898.8,573.1c0.1,0.1,0.2,0.1,0.4,0.2l23.4-2.3l5.7-10.6c-0.7-0.4-1.3-0.7-2-1c-1.5-0.7-3-1.4-4.4-2l-5.4,9.4l-25.2,3.2
				C893.7,570.8,896.3,571.8,898.8,573.1z"/>
			<path d="M965.9,656.7l11.4-5.5c0.9-2.8,1.4-6,1.7-9.4l-12.2,6.4l-15.6-3.6c0.3,2.6,0.5,5.1,0.5,7.6c0,0.2,0,0.5,0,0.7
				L965.9,656.7z"/>
			<path d="M947.7,670.1c-0.9,1.8-2,3.5-3.2,5c-0.1,0.1-0.3,0.3-0.4,0.4l3.4,0.5l9-4.5L947.7,670.1z"/>
			<path d="M944.9,623.1l20.4,4.3l10.4-9.1c-1-3.2-2.2-6.3-3.6-9.5l-10.4,8.7l-21.2-3.4c1.5,2.7,2.9,5.4,4.1,8.2
				C944.7,622.5,944.8,622.8,944.9,623.1z"/>
		</g>
	</g>
</g>
<g>
	<polygon fill="#FF9900" points="981.9,616.8 954.3,572.4 901.6,546 873,552 841,568.1 950,632.9 950,651.9 982,635.9 982,616.8 	
		"/>
	<polygon opacity="0.11" points="922.3,588.5 869.6,562.1 841,568.1 950,632.9 	"/>
	<polygon opacity="0.1" points="901.6,546 873,552.1 841,568.1 869.6,562.1 	"/>
	<polygon opacity="0.1" points="981.9,616.8 954.3,572.4 922.3,588.5 949.8,632.9 	"/>
	<polygon opacity="0.29" points="982,616.8 982,635.9 950,651.9 950,632.9 	"/>
</g>
<g>
	<polygon fill="#FF9900" points="795,523.1 741,550 741,556 839,605 893,578.1 893,572.1 	"/>
	<polygon opacity="0.11" points="741,556 741,550 839,599 839,605 	"/>
	<polygon opacity="0.29" points="893,578.1 893,542.1 839,569.1 839,605 	"/>
</g>
<g>
	<polygon fill="#FF9900" points="650,474 550,524 550,552 850,702 950,652 950,624 	"/>
	<polygon opacity="0.11" points="550,552 550,524 850,674 850,702 	"/>
	<polygon opacity="0.29" points="950,652 950,624 850,674 850,702 	"/>
</g>
<g>
	<g>
		<path fill="#FF9900" d="M705.2,436.9c-4.2-3.5-9.1-4.7-10.9-2.6l-46.6,55.5c-1.8,2.1,0.2,6.7,4.5,10.2c4.2,3.5,9.1,4.7,10.9,2.6
			l46.6-55.5C711.4,445,709.4,440.4,705.2,436.9z"/>
		<path opacity="0.2" d="M698.7,444.5c-4.2-3.5-6.2-8.1-4.5-10.2l-46.6,55.5c-1.8,2.1,0.2,6.7,4.5,10.2c4.2,3.5,9.1,4.7,10.9,2.6
			l46.6-55.5C707.9,449.2,703,448.1,698.7,444.5z"/>
	</g>
</g>
<g>
	<path fill="#2D3134" d="M569.2,541.8c-12.5-6.2-23.7-6.7-31.7-2.4l-22.9,11.5c-7.7,4.1-12.5,12.6-12.5,24.5
		c0,24.4,19.8,54.1,44.2,66.3c13.4,6.7,25.4,6.7,33.5,1.4l18.6-9.3c9.2-3.5,15-12.4,15-25.7C613.4,583.7,593.6,554,569.2,541.8z"/>
	<path opacity="0.11" d="M590.4,619.7c0,24.4-19.8,34.3-44.2,22.1c-24.4-12.2-44.2-41.9-44.2-66.3s19.8-34.3,44.2-22.1
		C570.6,565.6,590.4,595.3,590.4,619.7z"/>
	<path opacity="0.1" fill="#FFFFFF" d="M548.2,552.3c-13.3-6.6-25.2-6.7-33.3-1.5c7.7-2.5,17.5-1.4,28.2,3.9
		c24.4,12.2,44.2,41.9,44.2,66.3c0,11.1-4.1,19.2-10.9,23.6c9.8-3.2,16-12.3,16-26C592.4,594.2,572.6,564.5,548.2,552.3z"/>
	<path fill="#FF9900" d="M567.9,608.4c0,12-9.7,16.8-21.7,10.8s-21.7-20.5-21.7-32.5s9.7-16.8,21.7-10.8S567.9,596.4,567.9,608.4z"
		/>
	<path fill="#FF9900" d="M566.1,607.5c0,11-8.9,15.4-19.9,9.9s-19.9-18.8-19.9-29.8c0-11,8.9-15.4,19.9-9.9
		C557.2,583.2,566.1,596.5,566.1,607.5z"/>
	<path fill="#FF9900" d="M566.1,607.5c0,11-8.9,15.4-19.9,9.9s-19.9-18.8-19.9-29.8c0-11,8.9-15.4,19.9-9.9
		C557.2,583.2,566.1,596.5,566.1,607.5z"/>
	<path opacity="0.29" d="M566.1,607.5c0,11-8.9,15.4-19.9,9.9s-19.9-18.8-19.9-29.8c0-11,8.9-15.4,19.9-9.9
		C557.2,583.2,566.1,596.5,566.1,607.5z"/>
	<path opacity="0.15" d="M546.2,577.7c-11-5.5-19.9-1-19.9,9.9c0,5.9,2.6,12.6,6.7,18.3l28.1-14
		C557.5,585.9,552.1,580.7,546.2,577.7z"/>
	<path fill="#FF9900" d="M550,580l-5.2,2.8c-2.4,1.1-4.4,2.9-4.4,6.5c0,6,4.8,13.3,10.8,16.2c2.8,1.4,5.3,1.6,7.2,0.8l7.1-3.4
		C563.9,594.4,557.8,585.3,550,580z"/>
	<path opacity="0.29" d="M550,580l-5.2,2.8c-2.4,1.1-4.4,2.9-4.4,6.5c0,6,4.8,13.3,10.8,16.2c2.8,1.4,5.3,1.6,7.2,0.8l7.1-3.4
		C563.9,594.4,557.8,585.3,550,580z"/>
	<path opacity="0.29" d="M578.3,583.3c7.5,11.7,12.1,24.6,12.1,36.4c0,11-4,19.1-10.7,23.5l18.6-9.3c9.2-3.5,15-12.4,15-25.7
		c0-11.7-4.6-24.7-12-36.3L578.3,583.3z"/>
	<path fill="#FF9900" d="M562.1,600.1c0,6-4.8,8.4-10.8,5.4c-6-3-10.8-10.3-10.8-16.2s4.8-8.4,10.8-5.4
		C557.3,586.8,562.1,594.1,562.1,600.1z"/>
	<g opacity="0.5">
		<g>
			<g>
				<path d="M553.1,588.5c0,1-0.8,1.4-1.8,0.9c-1-0.5-1.8-1.7-1.8-2.7s0.8-1.4,1.8-0.9C552.3,586.3,553.1,587.5,553.1,588.5z"/>
			</g>
			<g>
				<path d="M553.1,602.6c0,1-0.8,1.4-1.8,0.9c-1-0.5-1.8-1.7-1.8-2.7c0-1,0.8-1.4,1.8-0.9S553.1,601.6,553.1,602.6z"/>
			</g>
			<g>
				<path d="M547.5,586.5c0.7,1,0.7,2.2,0,2.5c-0.7,0.3-1.8-0.2-2.5-1.2c-0.7-1-0.7-2.2,0-2.5C545.7,584.9,546.8,585.5,547.5,586.5z
					"/>
			</g>
			<g>
				<path d="M557.5,601.5c0.7,1,0.7,2.2,0,2.5c-0.7,0.3-1.8-0.2-2.5-1.2c-0.7-1-0.7-2.2,0-2.5C555.7,599.9,556.8,600.5,557.5,601.5z
					"/>
			</g>
			<g>
				<path d="M544.2,589.4c1,0.5,1.8,1.7,1.8,2.7c0,1-0.8,1.4-1.8,0.9c-1-0.5-1.8-1.7-1.8-2.7C542.4,589.3,543.2,588.9,544.2,589.4z"
					/>
			</g>
			<g>
				<path d="M558.4,596.4c1,0.5,1.8,1.7,1.8,2.7s-0.8,1.4-1.8,0.9c-1-0.5-1.8-1.7-1.8-2.7C556.6,596.3,557.4,595.9,558.4,596.4z"/>
			</g>
			<g>
				<path d="M545,595.3c0.7-0.3,1.8,0.2,2.5,1.2c0.7,1,0.7,2.2,0,2.5c-0.7,0.3-1.8-0.2-2.5-1.2C544.3,596.8,544.3,595.6,545,595.3z"
					/>
			</g>
			<g>
				<path d="M555,590.3c0.7-0.3,1.8,0.2,2.5,1.2c0.7,1,0.7,2.2,0,2.5c-0.7,0.3-1.8-0.2-2.5-1.2C554.3,591.7,554.3,590.6,555,590.3z"
					/>
			</g>
		</g>
	</g>
	<g>
		<path opacity="0.1" fill="#FFFFFF" d="M546.2,553.4c-24.4-12.2-44.2-2.3-44.2,22.1s19.8,54.1,44.2,66.3
			c24.4,12.2,44.2,2.3,44.2-22.1C590.4,595.3,570.6,565.6,546.2,553.4z M546.2,636.5c-21.5-10.7-38.9-36.9-38.9-58.3
			c0-21.5,17.4-30.2,38.9-19.5s38.9,36.9,38.9,58.3S567.7,647.2,546.2,636.5z"/>
		<g opacity="0.5">
			<path d="M543,555.3l7.1,3.5l-3.5-5.3c-0.1-0.1-0.2-0.1-0.3-0.2c-2.1-1.1-4.3-2-6.3-2.7L543,555.3z"/>
			<path d="M550,640.2l-7.1-3.5l2.6,4.8c0.2,0.1,0.4,0.2,0.6,0.3c2.1,1,4.1,1.9,6.2,2.6L550,640.2z"/>
			<path d="M523.1,552.4l6.1-0.5l-4.8-3.7c-0.1,0-0.2,0-0.3,0c-1.9,0.1-3.6,0.5-5.2,0.9L523.1,552.4z"/>
			<path d="M569.8,642.7l-6.1,0.5l4,3.8c0.2,0,0.4,0,0.5,0c1.8-0.1,3.5-0.5,5.1-0.9L569.8,642.7z"/>
			<path d="M509.3,561.5l3.5-4.4l-4.8-1.1c-0.1,0.1-0.1,0.1-0.2,0.2c-1.1,1.3-2,2.8-2.8,4.3L509.3,561.5z"/>
			<path d="M583.3,633.1l-3.5,4.4l4.4,1.7c0.1-0.1,0.2-0.2,0.3-0.4c1-1.3,1.9-2.7,2.7-4.2L583.3,633.1z"/>
			<path d="M505.6,580.4v-7.1l-3.5,1.8c0,0.1,0,0.2,0,0.3c0,2.1,0.2,4.3,0.5,6.5L505.6,580.4z"/>
			<path d="M586.9,614v7.1l3.5-0.9c0-0.2,0-0.4,0-0.6c0-2.1-0.2-4.2-0.4-6.4L586.9,614z"/>
			<path d="M512.6,603.8l-3.5-7.9l-1.3,4.2c0,0.1,0.1,0.2,0.1,0.3c1.1,2.4,2.3,4.7,3.6,7L512.6,603.8z"/>
			<path d="M579.5,590.5l3.5,7.9l1.7-3.2c-0.1-0.2-0.2-0.4-0.3-0.7c-1-2.3-2.2-4.6-3.5-6.8L579.5,590.5z"/>
			<path d="M528.7,625.6l-6.1-6.6l1.3,5.5c0.1,0.1,0.2,0.2,0.3,0.3c1.9,2,3.8,3.9,5.7,5.6L528.7,625.6z"/>
			<path d="M563.2,568.9l6.1,6.6l-0.5-4.6c-0.2-0.2-0.3-0.4-0.5-0.6c-1.8-1.9-3.7-3.8-5.5-5.5L563.2,568.9z"/>
		</g>
		<g opacity="0.5">
			<path d="M539.2,538.6c-0.6,0.3-1.2,0.5-1.8,0.8l-5.7,2.9l-0.6,1.1l-12.2,5.7c1.6-0.5,3.4-0.8,5.2-0.9c0.1,0,0.2,0,0.3,0l12.3-5.2
				L539.2,538.6z"/>
			<path d="M594,561.9c-1.3-1.6-2.7-3.1-4.2-4.6l-6.9,8.2l-20.2-0.7c1.9,1.7,3.7,3.5,5.5,5.5c0.2,0.2,0.3,0.4,0.5,0.6l17.7,0.4
				L594,561.9z"/>
			<path d="M546.2,553.4c0.1,0.1,0.2,0.1,0.3,0.2l19.6-1.9l4.8-8.9c-0.6-0.3-1.1-0.6-1.7-0.9c-1.3-0.6-2.5-1.2-3.7-1.7l-4.5,7.8
				l-21,2.7C541.9,551.4,544.1,552.3,546.2,553.4z"/>
			<path d="M602.3,623.4l9.6-4.6c0.7-2.4,1.2-5,1.4-7.8l-10.2,5.3l-13.1-3c0.3,2.2,0.4,4.3,0.4,6.4c0,0.2,0,0.4,0,0.6L602.3,623.4z"
				/>
			<path d="M587.1,634.5c-0.8,1.5-1.7,2.9-2.7,4.2c-0.1,0.1-0.2,0.2-0.3,0.4l2.9,0.4l7.6-3.8L587.1,634.5z"/>
			<path d="M584.8,595.2l17.1,3.6l8.7-7.6c-0.8-2.6-1.9-5.3-3-7.9l-8.7,7.3l-17.8-2.9c1.2,2.2,2.4,4.5,3.5,6.8
				C584.6,594.7,584.7,595,584.8,595.2z"/>
		</g>
	</g>
</g>
<g>
	<polygon fill="#2D3134" points="761,431 661,481 661,580 727,613 827,563 843,515 843,472 	"/>
	<polygon fill="#3399CC" points="726,602 669,574 669,491.6 739,526.6 739,563 	"/>
	<polygon fill="#2D3134" points="668,551 719,576 719,572 668,547 	"/>
	<polygon fill="#2D3134" points="716,513.6 716,599 722,602 722,516.6 	"/>
	<polygon opacity="0.1" points="727,520.6 669,574 682,580 738,552 739,551 739,526.6 	"/>
	<polygon opacity="0.1" fill="#FFFFFF" points="699.6,507.3 669,574 675,558 739,527.1 	"/>
	<polygon opacity="0.15" points="689,501.6 689,528.6 705.8,554 739,556.1 739,526.6 	"/>
	<polygon opacity="0.15" points="743,565 843,515 827,563 727,613 	"/>
	<polygon opacity="0.11" points="661,481 661,580 727,613 743,565 743,522 	"/>
	<polygon opacity="0.29" points="827,563 843,515 843,472 743,522 743,565 727,613 	"/>
</g>
<g>
	<g>
		<g>
			<polygon fill="#656565" points="540,140 400,70 380,80 380,100 520,170 540,160 			"/>
		</g>
		<polygon opacity="0.29" points="520,170 540,160 540,140 520,150 		"/>
		<polygon opacity="0.11" points="520,170 380,100 380,80 520,150 		"/>
	</g>
	<g>
		<polygon fill="#656565" points="480,150 480,130 420,100 160,230 240,270 		"/>
		<polygon opacity="0.29" points="480,150 480,130 220,260 240,270 		"/>
	</g>
	<g>
		<g>
			<polygon fill="#2D3134" points="400,149.9 340,119.9 240,169.9 240,189.9 300,219.9 300,240 400,189.8 			"/>
		</g>
		<polygon opacity="0.29" points="300,240 400,189.8 400,150 300,200.2 		"/>
		<polygon opacity="0.11" points="300,220 240,189.9 240,169.9 300,199.9 		"/>
	</g>
	<g>
		<g>
			<polygon fill="#656565" points="350,68 334,60 296,79 280,93 280,161.9 312,178 350,159.2 			"/>
		</g>
		<polygon opacity="0.29" points="312,178 350,159.3 350,68.1 312,87 		"/>
		<polygon opacity="0.11" points="312,178 280,162 280,93 296,79 312,87 		"/>
	</g>
	<g>
		<g>
			<polygon fill="#656565" points="260,280 120,210 100,220 100,240 240,310 260,300 			"/>
		</g>
		<polygon opacity="0.29" points="240,310 260,300 260,280 240,290 		"/>
		<polygon opacity="0.11" points="240,310 100,240 100,220 240,290 		"/>
	</g>
</g>
<g>
	<polygon fill="#656565" points="350,68 311.5,87.3 311.5,128.7 405.5,204 444,184.7 444,143.3 	"/>
	<polygon opacity="0.11" points="311.5,128.7 311.5,87.3 405.5,162.5 405.5,204 	"/>
	<polygon opacity="0.29" points="444,184.7 444,143.3 405.5,162.5 405.5,204 	"/>
</g>
<g>
	<path fill="#FF9900" d="M934,523.9c-0.4-11.3-6.9-21.5-17.1-26.6l-13.5-6.7c-5.1-2.6-10.7-1.8-14.9,1L867.4,502
		c-5.3,2.1-9.4,7.3-9.4,13.8v21.5c0,11-1.7,21.9-5.1,32.4l-8.9,27.2l52,26l24-12l6.2-21.5c5.2-18.2,7.8-37.1,7.8-56L934,523.9
		L934,523.9z"/>
	<path opacity="0.11" d="M910,545.3V537c0-11.7-6.6-22.5-17.1-27.7l-13.5-6.7c-9.8-4.9-21.4,2.2-21.4,13.2v21.5
		c0,11-1.7,21.9-5.1,32.4l-8.9,27.2l52,26l6.2-21.5C907.4,583.1,910,564.3,910,545.3z"/>
	<path opacity="0.29" d="M934,533.3v-9.4l-24,12v9.4c0,19-2.6,37.8-7.8,56l-6.2,21.5l24-12l6.2-21.5
		C931.4,571.1,934,552.3,934,533.3z"/>
</g>
<g>
	<polygon fill="#FF9900" points="411,93 359,119 359,175 908,622 960,596 960,540 	"/>
	<polygon opacity="0.11" points="359,175 359,119 908,566 908,622 	"/>
	<polygon opacity="0.29" points="960,596 960,540 908,566 908,622 	"/>
</g>
<g>
	<g>
		<path fill="#FF9900" d="M628.2,475.1c-4.2-3.5-9.1-4.7-10.9-2.6L570.6,528c-1.8,2.1,0.2,6.7,4.5,10.2c4.2,3.5,9.1,4.7,10.9,2.6
			l46.6-55.5C634.4,483.3,632.4,478.7,628.2,475.1z"/>
		<path opacity="0.2" d="M621.7,482.8c-4.2-3.5-6.2-8.1-4.5-10.2L570.6,528c-1.8,2.1,0.2,6.7,4.5,10.2c4.2,3.5,9.1,4.7,10.9,2.6
			l46.6-55.5C630.9,487.5,626,486.3,621.7,482.8z"/>
	</g>
	<g>
		<path fill="#656565" d="M687.3,404.1c-2.5-2.1-5.5-2.8-6.5-1.5l-60.5,72.6c-1.1,1.3,0.1,4,2.7,6.1c2.5,2.1,5.5,2.8,6.5,1.5
			l60.5-72.6C691.1,408.9,689.9,406.2,687.3,404.1z"/>
		<path opacity="0.2" d="M683.5,408.7c-2.5-2.1-3.7-4.9-2.7-6.1l-60.5,72.6c-1.1,1.3,0.1,4,2.7,6.1c2.5,2.1,5.5,2.8,6.5,1.5
			l60.5-72.6C689,411.5,686,410.8,683.5,408.7z"/>
	</g>
</g>
<g>
	<polygon fill="#FF9900" points="550,518 508,539 508,545 572,577 614,556 614,550 	"/>
	<polygon opacity="0.11" points="508,545 508,539 572,571 572,577 	"/>
	<polygon opacity="0.29" points="614,556 614,550 572,571 572,577 	"/>
</g>
<g>
	<polygon fill="#FF9900" points="614,550 572,571 572,577 611,621 653,600 653,594 	"/>
	<polygon opacity="0.11" points="572,577 572,571 611,615 611,621 	"/>
	<polygon opacity="0.29" points="653,600 653,594 611,615 611,621 	"/>
</g>
<g>
	<polygon fill="#FF9900" points="653,594 611,614.9 611,620.9 709,669.9 751,649 751,643 	"/>
	<polygon opacity="0.11" points="611,620.9 611,614.9 709,663.9 709,669.9 	"/>
	<polygon fill="#FF9900" points="741,653.9 741,618 709,634 709,669.9 	"/>
	<polygon opacity="0.29" points="741,653.9 741,618 709,634 709,669.9 	"/>
</g>
<g>
	<path fill="#2D3134" d="M794.3,625.3c-14.9-7.4-28.3-8-37.9-2.9L729,636.2c-9.2,4.9-15,15-15,29.3c0,29.2,23.7,64.6,52.8,79.2
		c16,8,30.4,8,40,1.6l22.3-11.1c11-4.2,18-14.9,18-30.7C847.1,675.4,823.5,639.9,794.3,625.3z"/>
	<path opacity="0.11" d="M819.6,718.3c0,29.2-23.7,41-52.8,26.4S714,694.7,714,665.5c0-29.2,23.7-41,52.8-26.4
		S819.6,689.2,819.6,718.3z"/>
	<path opacity="0.1" fill="#FFFFFF" d="M769.2,637.8c-15.9-7.9-30.1-8-39.8-1.8c9.1-3,20.9-1.7,33.7,4.7
		c29.2,14.6,52.8,50.1,52.8,79.2c0,13.3-4.9,23-13,28.2c11.7-3.9,19.1-14.8,19.1-31.1C822,687.8,798.4,652.4,769.2,637.8z"/>
	<path fill="#FF9900" d="M792.7,704.9c0,14.3-11.6,20.1-25.9,12.9c-14.3-7.1-25.9-24.5-25.9-38.8c0-14.3,11.6-20.1,25.9-12.9
		C781.1,673.2,792.7,690.6,792.7,704.9z"/>
	<path fill="#FF9900" d="M790.6,703.8c0,13.1-10.6,18.5-23.8,11.9c-13.1-6.6-23.8-22.5-23.8-35.7s10.6-18.5,23.8-11.9
		C780,674.7,790.6,690.7,790.6,703.8z"/>
	<path fill="#FF9900" d="M790.6,703.8c0,13.1-10.6,18.5-23.8,11.9c-13.1-6.6-23.8-22.5-23.8-35.7s10.6-18.5,23.8-11.9
		C780,674.7,790.6,690.7,790.6,703.8z"/>
	<path opacity="0.29" d="M790.6,703.8c0,13.1-10.6,18.5-23.8,11.9c-13.1-6.6-23.8-22.5-23.8-35.7s10.6-18.5,23.8-11.9
		C780,674.7,790.6,690.7,790.6,703.8z"/>
	<path opacity="0.15" d="M766.8,668.2c-13.1-6.6-23.8-1.2-23.8,11.9c0,7.1,3.1,15,8.1,21.9l33.5-16.8
		C780.3,678,773.9,671.7,766.8,668.2z"/>
	<path fill="#FF9900" d="M771.4,670.9l-6.2,3.3c-2.9,1.3-5.2,3.5-5.2,7.8c0,7.1,5.8,15.8,12.9,19.4c3.3,1.7,6.3,1.9,8.6,1l8.5-4.1
		C788,688.1,780.6,677.3,771.4,670.9z"/>
	<path opacity="0.29" d="M771.4,670.9l-6.2,3.3c-2.9,1.3-5.2,3.5-5.2,7.8c0,7.1,5.8,15.8,12.9,19.4c3.3,1.7,6.3,1.9,8.6,1l8.5-4.1
		C788,688.1,780.6,677.3,771.4,670.9z"/>
	<path opacity="0.29" d="M805.2,674.9c8.9,13.9,14.4,29.4,14.4,43.5c0,13.2-4.8,22.8-12.8,28l22.3-11.1c11-4.2,18-14.9,18-30.7
		c0-14-5.5-29.5-14.4-43.4L805.2,674.9z"/>
	<path fill="#FF9900" d="M785.8,694.9c0,7.1-5.8,10-12.9,6.5c-7.1-3.6-12.9-12.3-12.9-19.4s5.8-10,12.9-6.5
		C780,679.1,785.8,687.8,785.8,694.9z"/>
	<g opacity="0.5">
		<g>
			<g>
				<path d="M775,681.1c0,1.2-0.9,1.6-2.1,1.1c-1.2-0.6-2.1-2-2.1-3.2c0-1.2,0.9-1.6,2.1-1.1C774.1,678.5,775,679.9,775,681.1z"/>
			</g>
			<g>
				<path d="M775,698c0,1.2-0.9,1.6-2.1,1.1c-1.2-0.6-2.1-2-2.1-3.2c0-1.2,0.9-1.6,2.1-1.1C774.1,695.4,775,696.8,775,698z"/>
			</g>
			<g>
				<path d="M768.4,678.7c0.8,1.2,0.8,2.6,0,3c-0.8,0.4-2.2-0.3-3-1.5c-0.8-1.2-0.8-2.6,0-3C766.3,676.8,767.6,677.5,768.4,678.7z"
					/>
			</g>
			<g>
				<path d="M780.4,696.7c0.8,1.2,0.8,2.6,0,3c-0.8,0.4-2.2-0.3-3-1.5c-0.8-1.2-0.8-2.6,0-3C778.2,694.8,779.5,695.4,780.4,696.7z"
					/>
			</g>
			<g>
				<path d="M764.4,682.1c1.2,0.6,2.1,2,2.1,3.2c0,1.2-0.9,1.6-2.1,1.1c-1.2-0.6-2.1-2-2.1-3.2S763.3,681.5,764.4,682.1z"/>
			</g>
			<g>
				<path d="M781.4,690.6c1.2,0.6,2.1,2,2.1,3.2c0,1.2-0.9,1.6-2.1,1.1c-1.2-0.6-2.1-2-2.1-3.2C779.2,690.5,780.2,690,781.4,690.6z"
					/>
			</g>
			<g>
				<path d="M765.4,689.2c0.8-0.4,2.2,0.3,3,1.5c0.8,1.2,0.8,2.6,0,3c-0.8,0.4-2.2-0.3-3-1.5C764.6,690.9,764.6,689.6,765.4,689.2z"
					/>
			</g>
			<g>
				<path d="M777.4,683.2c0.8-0.4,2.2,0.3,3,1.5c0.8,1.2,0.8,2.6,0,3c-0.8,0.4-2.2-0.3-3-1.5C776.6,685,776.6,683.6,777.4,683.2z"/>
			</g>
		</g>
	</g>
	<g>
		<path opacity="0.1" fill="#FFFFFF" d="M766.8,639.1c-29.2-14.6-52.8-2.8-52.8,26.4c0,29.2,23.7,64.6,52.8,79.2
			c29.2,14.6,52.8,2.8,52.8-26.4C819.6,689.2,796,653.7,766.8,639.1z M766.8,738.4c-25.7-12.8-46.5-44-46.5-69.7
			c0-25.7,20.8-36.1,46.5-23.2s46.5,44,46.5,69.7C813.3,740.8,792.5,751.2,766.8,738.4z"/>
		<g opacity="0.5">
			<path d="M763,641.4l8.5,4.2l-4.2-6.3c-0.1-0.1-0.2-0.1-0.4-0.2c-2.6-1.3-5.1-2.3-7.6-3.2L763,641.4z"/>
			<path d="M771.4,742.8l-8.5-4.2l3.2,5.8c0.2,0.1,0.5,0.3,0.7,0.4c2.5,1.2,5,2.3,7.4,3.2L771.4,742.8z"/>
			<path d="M739.2,637.9l7.3-0.6l-5.8-4.4c-0.1,0-0.2,0-0.3,0c-2.2,0.2-4.3,0.6-6.3,1.1L739.2,637.9z"/>
			<path d="M795.1,745.8l-7.3,0.6l4.8,4.5c0.2,0,0.4,0,0.6,0c2.2-0.2,4.2-0.5,6.1-1.1L795.1,745.8z"/>
			<path d="M722.7,648.9l4.2-5.2l-5.8-1.3c-0.1,0.1-0.1,0.1-0.2,0.2c-1.3,1.6-2.4,3.3-3.3,5.2L722.7,648.9z"/>
			<path d="M811.1,734.3l-4.2,5.2l5.2,2c0.1-0.1,0.3-0.3,0.4-0.4c1.2-1.5,2.3-3.2,3.2-5L811.1,734.3z"/>
			<path d="M718.3,671.4V663l-4.2,2.1c0,0.1,0,0.2,0,0.4c0,2.6,0.2,5.2,0.5,7.8L718.3,671.4z"/>
			<path d="M815.5,711.5v8.5l4.2-1.1c0-0.2,0-0.5,0-0.7c0-2.5-0.2-5-0.5-7.6L815.5,711.5z"/>
			<path d="M726.7,699.4l-4.2-9.4l-1.5,5c0.1,0.1,0.1,0.3,0.2,0.4c1.3,2.9,2.7,5.7,4.2,8.4L726.7,699.4z"/>
			<path d="M806.7,683.5l4.2,9.4l2.1-3.8c-0.1-0.3-0.2-0.5-0.3-0.8c-1.2-2.8-2.6-5.5-4.1-8.2L806.7,683.5z"/>
			<path d="M745.9,725.4l-7.3-7.9l1.5,6.5c0.1,0.1,0.2,0.2,0.3,0.3c2.2,2.4,4.5,4.6,6.8,6.7L745.9,725.4z"/>
			<path d="M787.2,657.7l7.3,7.9l-0.6-5.5c-0.2-0.2-0.4-0.5-0.6-0.7c-2.2-2.3-4.4-4.5-6.6-6.5L787.2,657.7z"/>
		</g>
		<g opacity="0.5">
			<path d="M758.5,621.4c-0.7,0.3-1.4,0.6-2.1,1l-6.9,3.4l-0.8,1.3l-14.6,6.9c2-0.6,4-0.9,6.3-1.1c0.1,0,0.2,0,0.3,0l14.7-6.3
				L758.5,621.4z"/>
			<path d="M824,649.3c-1.6-1.9-3.3-3.7-5-5.5l-8.3,9.8l-24.1-0.8c2.3,2,4.5,4.2,6.6,6.5c0.2,0.2,0.4,0.5,0.6,0.7l21.2,0.5
				L824,649.3z"/>
			<path d="M766.8,639.1c0.1,0.1,0.2,0.1,0.4,0.2l23.4-2.3l5.7-10.6c-0.7-0.4-1.3-0.7-2-1c-1.5-0.7-3-1.4-4.4-2l-5.4,9.4l-25.2,3.2
				C761.7,636.8,764.3,637.8,766.8,639.1z"/>
			<path d="M833.9,722.7l11.4-5.5c0.9-2.8,1.4-6,1.7-9.4l-12.2,6.4l-15.6-3.6c0.3,2.6,0.5,5.1,0.5,7.6c0,0.2,0,0.5,0,0.7
				L833.9,722.7z"/>
			<path d="M815.7,736.1c-0.9,1.8-2,3.5-3.2,5c-0.1,0.1-0.3,0.3-0.4,0.4l3.4,0.5l9-4.5L815.7,736.1z"/>
			<path d="M812.9,689.1l20.4,4.3l10.4-9.1c-1-3.2-2.2-6.3-3.6-9.5l-10.4,8.7l-21.2-3.4c1.5,2.7,2.9,5.4,4.1,8.2
				C812.7,688.5,812.8,688.8,812.9,689.1z"/>
		</g>
	</g>
</g>
<g>
	<path fill="#FF9900" d="M864,558.9c-0.4-11.3-6.9-21.5-17.1-26.6l-13.5-6.7c-5.1-2.6-10.7-1.8-14.9,1L797.4,537
		c-5.3,2.1-9.4,7.3-9.4,13.8v21.5c0,11-1.7,21.9-5.1,32.4l-8.9,27.2l52,26l24-12l6.2-21.5c5.2-18.2,7.8-37.1,7.8-56L864,558.9
		L864,558.9z"/>
	<path opacity="0.11" d="M840,580.3V572c0-11.7-6.6-22.5-17.1-27.7l-13.5-6.7c-9.8-4.9-21.4,2.2-21.4,13.2v21.5
		c0,11-1.7,21.9-5.1,32.4l-8.9,27.2l52,26l6.2-21.5C837.4,618.1,840,599.3,840,580.3z"/>
	<path opacity="0.29" d="M864,568.3v-9.4l-24,12v9.4c0,19-2.6,37.8-7.8,56l-6.2,21.5l24-12l6.2-21.5
		C861.4,606.1,864,587.3,864,568.3z"/>
</g>
<g>
	<polygon fill="#FF9900" points="849.9,682.8 822.3,638.4 769.6,612 741,618 709,634.1 737.6,628.1 790.3,654.5 818,698.9 
		818,717.9 850,701.9 850,682.8 	"/>
	<polygon opacity="0.1" points="769.6,612 741,618.1 709,634.1 737.6,628.1 	"/>
	<polygon opacity="0.1" points="849.9,682.8 822.3,638.4 790.3,654.5 817.8,698.9 	"/>
	<polygon opacity="0.29" points="850,682.8 850,701.9 818,717.9 818,698.9 	"/>
</g>
<path fill="#FF9900" d="M694.2,396.9c-5.9-4.7-14.7-3.5-20.1,2.3c-3.1,3.3-7.5,8.1-7.5,8.1l21.2,16.6c0,0,4.3-4.7,7.4-8
	C700.6,410.1,700.2,401.5,694.2,396.9z"/>
</svg>
