<?xml version="1.0" encoding="utf-8"?>
<!-- Generator: Adobe Illustrator 18.1.0, SVG Export Plug-In . SVG Version: 6.00 Build 0)  -->
<svg version="1.1" id="Layer_1" xmlns="http://www.w3.org/2000/svg" xmlns:xlink="http://www.w3.org/1999/xlink" x="0px" y="0px"
	 viewBox="0 0 80 56" enable-background="new 0 0 80 56" xml:space="preserve">
<g>
	<g>
		<polygon fill="#539B00" points="7.3,6.6 3.3,12.6 2.3,12.6 6.8,5.9 		"/>
		<path fill="#539B00" d="M16,1L2,8v15l1,0.5l14-7v-15L16,1z M15,15.5L4,21V9l11-5.5V15.5z"/>
		<polygon opacity="0.11" points="2,8 2,23 3,23.5 3,8.5 		"/>
		<polygon opacity="0.11" points="15,3.5 15,15.5 16,16 16,3 		"/>
		<polygon fill="#539B00" points="15,11.5 11,17.5 12,18 16,12 		"/>
		<path fill="#539B00" d="M3,8.5v15l14-7v-15L3,8.5z M6.5,7.7L4,11.5V9L6.5,7.7z M4,19.5l2.5,1.3L4,22V19.5z M16,16l-2.5,1.3
			l2.5-3.8V16z M12,18l-4.1,2l-3.9-2V13l4-6l4.1-2l3.9,2V12L12,18z M13.5,4.3L16,3v2.5L13.5,4.3z"/>
		<path opacity="0.29" d="M3,8.5v15l14-7v-15L3,8.5z M6.5,7.7L4,11.5V9L6.5,7.7z M4,19.5l2.5,1.3L4,22V19.5z M16,16l-2.5,1.3
			l2.5-3.8V16z M12,18l-4.1,2l-3.9-2V13l4-6l4.1-2l3.9,2V12L12,18z M13.5,4.3L16,3v2.5L13.5,4.3z"/>
	</g>
	<g>
		<polygon fill="#539B00" points="4,22 3,22.5 3,23.5 63,53.5 64,53 64,52 		"/>
		<polygon opacity="0.11" points="3,22.5 3,23.5 63,53.5 63,52.5 		"/>
	</g>
	<path fill="#E5E5E5" d="M71.3,32.2L71.3,32.2c-1-0.7-2.2-1.3-3.5-2L21,6.9l0,0c-2-1.1-3.7-1.9-6-1.9C9.5,5,5,9.4,5,14.9
		c0,3.3,1.7,6.2,4,7.8c1.3,0.9,2.1,1.2,3.2,1.7L59,47.8c2,0.9,3.8,1.8,6.1,1.8c5.5,0,9.9-4.3,9.9-9.8C74.9,36.6,73.7,34.1,71.3,32.2
		z"/>
	<path opacity="0.15" d="M65,47c-2.2,0-4.1-0.9-6.1-1.8L12.2,21.8c-1.1-0.5-1.8-0.8-3.2-1.7c-2-1.4-3.5-3.8-3.9-6.5
		C5,14,5,14.4,5,14.9c0,3.3,1.7,6.2,4,7.8c1.3,0.9,2.1,1.2,3.2,1.7L59,47.8c2,0.9,3.8,1.8,6.1,1.8c5.5,0,9.9-4.3,9.9-9.8
		c0-0.5,0-0.9-0.1-1.4C74.2,43.4,70.1,47,65,47z"/>
	<g>
		<polygon fill="#539B00" points="4,8 3,8.5 3,9.5 63,39.5 64,39 64,38 		"/>
		<polygon opacity="0.11" points="3,8.5 3,9.5 63,39.5 63,38.5 		"/>
	</g>
	<g>
		<polygon fill="#539B00" points="17,1.5 16,2 16,3 76,33 77,32.5 77,31.5 		"/>
		<polygon opacity="0.11" points="16,2 16,3 76,33 76,32 		"/>
	</g>
	<g>
		<polygon fill="#539B00" points="68.3,37.1 64.3,43.1 63.3,43.1 67.8,36.4 		"/>
		<path fill="#539B00" d="M77,31.5l-14,7v15l1,0.5l14-7V32L77,31.5z M76,46l-11,5.5v-12L76,34V46z"/>
		<polygon opacity="0.11" points="63,38.5 63,53.5 64,54 64,39 		"/>
		<polygon opacity="0.11" points="76,34 76,46 77,46.5 77,33.5 		"/>
		<polygon fill="#539B00" points="76,42 72,48 73,48.5 77,42.5 		"/>
		<path fill="#539B00" d="M64,39v15l14-7V32L64,39z M67.5,38.2L65,42v-2.5L67.5,38.2z M65,50l2.5,1.3L65,52.5V50z M77,46.5l-2.5,1.3
			L77,44V46.5z M73,48.5l-4.1,2l-3.9-2v-5.1l4-6l4.1-2l3.9,2v5.1L73,48.5z M74.5,34.8l2.5-1.3V36L74.5,34.8z"/>
		<path opacity="0.29" d="M64,39v15l14-7V32L64,39z M67.5,38.2L65,42v-2.5L67.5,38.2z M65,50l2.5,1.3L65,52.5V50z M77,46.5l-2.5,1.3
			L77,44V46.5z M73,48.5l-4.1,2l-3.9-2v-5.1l4-6l4.1-2l3.9,2v5.1L73,48.5z M74.5,34.8l2.5-1.3V36L74.5,34.8z"/>
	</g>
	<g>
		<polygon fill="#999999" points="49,27 49,28 55,31 61,28 61,27 55,24 		"/>
		<polygon opacity="0.2" points="55,29 59,27 55,25 51,27 		"/>
		<polygon opacity="0.29" points="55,30 55,31 61,28 61,27 		"/>
		<polygon opacity="0.11" points="55,30 55,31 49,28 49,27 		"/>
		<polygon opacity="0.11" points="58,27.5 59,27 55,25 55,26 		"/>
		<polygon opacity="0.29" points="55,26 55,25 51,27 52,27.5 		"/>
		<path fill="#E5E5E5" d="M55,26c-1.1,0-2,0.4-2,1v1l2,1l2-1v-1C57,26.4,56.1,26,55,26z"/>
		<path opacity="0.2" d="M55,28c-1.1,0-2-0.4-2-1v1l2,1l2-1v-1C57,27.6,56.1,28,55,28z"/>
	</g>
	<g>
		<polygon fill="#999999" points="33,19 33,20 39,23 45,20 45,19 39,16 		"/>
		<polygon opacity="0.2" points="39,21 43,19 39,17 35,19 		"/>
		<polygon opacity="0.29" points="39,22 39,23 45,20 45,19 		"/>
		<polygon opacity="0.11" points="39,22 39,23 33,20 33,19 		"/>
		<polygon opacity="0.11" points="42,19.5 43,19 39,17 39,18 		"/>
		<polygon opacity="0.29" points="39,18 39,17 35,19 36,19.5 		"/>
		<path fill="#E5E5E5" d="M39,18c-1.1,0-2,0.4-2,1v1l2,1l2-1v-1C41,18.4,40.1,18,39,18z"/>
		<path opacity="0.2" d="M39,20c-1.1,0-2-0.4-2-1v1l2,1l2-1v-1C41,19.6,40.1,20,39,20z"/>
	</g>
	<g>
		<polygon fill="#999999" points="17,11 17,12 23,15 29,12 29,11 23,8 		"/>
		<polygon opacity="0.2" points="23,13 27,11 23,9 19,11 		"/>
		<polygon opacity="0.29" points="23,14 23,15 29,12 29,11 		"/>
		<polygon opacity="0.11" points="23,14 23,15 17,12 17,11 		"/>
		<polygon opacity="0.11" points="26,11.5 27,11 23,9 23,10 		"/>
		<polygon opacity="0.29" points="23,10 23,9 19,11 20,11.5 		"/>
		<path fill="#E5E5E5" d="M23,10c-1.1,0-2,0.4-2,1v1l2,1l2-1v-1C25,10.4,24.1,10,23,10z"/>
		<path opacity="0.2" d="M23,12c-1.1,0-2-0.4-2-1v1l2,1l2-1v-1C25,11.6,24.1,12,23,12z"/>
	</g>
	<path fill="#999999" d="M16,2L4,8l60,30l12-6L16,2z M8,8l8-4l16,8l-8,4L8,8z M26,17l8-4l14,7l-8,4L26,17z M42,25l8-4l14,7l-8,4
		L42,25z M64,36l-6-3l8-4l6,3L64,36z"/>
	<path fill="#999999" d="M76,48V33l-1,0.5V35l-2,1v-1.5L72,35v15l1-0.5V49l2-1v0.5L76,48z M73,37l2-1v1l-2,1V37z M73,39l2-1v1l-2,1
		V39z M73,41l2-1v1l-2,1V41z M73,43l2-1v1l-2,1V43z M73,45l2-1v1l-2,1V45z M73,48v-1l2-1v1L73,48z"/>
	<path opacity="0.29" d="M76,48V33l-1,0.5V35l-2,1v-1.5L72,35v15l1-0.5V49l2-1v0.5L76,48z M73,37l2-1v1l-2,1V37z M73,39l2-1v1l-2,1
		V39z M73,41l2-1v1l-2,1V41z M73,43l2-1v1l-2,1V43z M73,45l2-1v1l-2,1V45z M73,48v-1l2-1v1L73,48z"/>
	<g>
		<polygon fill="#999999" points="71,48 71,46 69,47 69,49 		"/>
		<polygon opacity="0.29" points="71,48 71,46 69,47 69,49 		"/>
		<g>
			<path fill="#E5E5E5" d="M70,47c0.2-0.1,0.3-0.1,0.4,0l0,0l0.3,0.1l0,0c0.1,0.1,0.2,0.2,0.2,0.3c0,0.3-0.3,0.7-0.6,0.9
				c-0.2,0.1-0.3,0.1-0.4,0c0,0-0.3-0.1-0.3-0.2c-0.1-0.1-0.2-0.2-0.2-0.3C69.4,47.5,69.6,47.1,70,47z"/>
			<path opacity="0.29" d="M69.7,48c0,0.3,0.3,0.5,0.6,0.3s0.6-0.6,0.6-0.9c0-0.3-0.3-0.5-0.6-0.3S69.7,47.7,69.7,48z"/>
			<path opacity="0.11" d="M69.7,48c0-0.3,0.3-0.7,0.6-0.9c0.2-0.1,0.3-0.1,0.4,0c0,0,0,0,0,0l0,0l-0.3-0.1l0,0c-0.1,0-0.2,0-0.4,0
				c-0.3,0.2-0.6,0.6-0.6,0.9c0,0.2,0.1,0.3,0.2,0.3c0,0,0.3,0.1,0.3,0.2C69.7,48.3,69.7,48.1,69.7,48z"/>
		</g>
	</g>
</g>
</svg>
