<?xml version="1.0" encoding="utf-8"?>
<!-- Generator: Adobe Illustrator 18.1.0, SVG Export Plug-In . SVG Version: 6.00 Build 0)  -->
<svg version="1.1" id="Layer_1" xmlns="http://www.w3.org/2000/svg" xmlns:xlink="http://www.w3.org/1999/xlink" x="0px" y="0px"
	 viewBox="0 0 960 720" enable-background="new 0 0 960 720" xml:space="preserve">
<g>
	<polygon opacity="0.3" points="20,278 161,208 928,592 788,662 	"/>
	<g>
		<polygon fill="#06547A" points="631,462 621,467 621,483 719,532 729,527 729,511 		"/>
		<polygon opacity="0.11" points="621,467 621,483 719,532 719,516 		"/>
		<polygon opacity="0.29" points="729,511 729,527 719,532 719,516 		"/>
	</g>
	<g>
		<polygon fill="#06547A" points="743,504 707,522 707,553 731,565 767,547 767,516 		"/>
		<polygon opacity="0.11" points="707,522 707,553 731,565 731,534 		"/>
		<polygon opacity="0.29" points="767,516 767,547 731,565 731,534 		"/>
	</g>
	<g>
		<polygon fill="#06547A" points="567,454 563,456 563,487 725,568 729,566 729,535 		"/>
		<polygon opacity="0.11" points="563,456 563,487 725,568 725,537 		"/>
		<polygon opacity="0.29" points="729,535 729,566 725,568 725,537 		"/>
	</g>
	<g>
		<polygon fill="#2D3134" points="507,467 543,449 531,469 495,487 		"/>
		<polygon opacity="0.29" points="507,467 543,449 531,469 495,487 		"/>
		<g>
			<g>
				<path fill="#2D3134" d="M561.4,459.6c-7.5-3.7-14.2-4.2-19.2-1.9l0,0l-14,7l0,0c-5.4,2.4-8.8,7.9-8.8,15.9
					c0,15.5,12.5,34.3,28,42c7.6,3.8,14.6,4.2,19.6,1.8c0,0,13.9-6.9,15.1-7.6c4.5-2.7,7.3-7.9,7.3-15.2
					C589.4,486.2,576.8,467.4,561.4,459.6z"/>
				<path opacity="0.29" d="M567.3,524.2c2-1,13.7-6.8,14.8-7.5c4.5-2.7,7.3-7.9,7.3-15.2c0-6.2-2.1-13-5.5-19.3l-14,7
					c3.4,6.4,5.5,13.1,5.5,19.3C575.4,516.3,572.3,521.7,567.3,524.2z"/>
				<path fill="#999999" d="M565.3,503.4c0,9.9-8,13.9-17.9,8.9c-9.9-4.9-17.9-17-17.9-26.8s8-13.9,17.9-8.9
					C557.2,481.5,565.3,493.5,565.3,503.4z"/>
				<path opacity="0.15" d="M548.9,511.7c-9.9-4.9-17.9-17-17.9-26.8c0-4.9,1.9-8.3,5.1-9.9c-4,1.3-6.6,5-6.6,10.6
					c0,9.9,8,21.9,17.9,26.8c5,2.5,9.6,2.7,12.8,1C557.1,514.3,553.2,513.8,548.9,511.7z"/>
				<path fill="#2D3134" d="M556.3,497.6c0,4.1-3.3,5.8-7.5,3.7c-4.1-2.1-7.5-7.1-7.5-11.2s3.3-5.8,7.5-3.7
					C553,488.4,556.3,493.4,556.3,497.6z"/>
				<path opacity="0.29" d="M556.3,497.6c0,4.1-3.3,5.8-7.5,3.7c-4.1-2.1-7.5-7.1-7.5-11.2s3.3-5.8,7.5-3.7
					C553,488.4,556.3,493.4,556.3,497.6z"/>
				<path fill="#2D3134" d="M554.8,498.3c0,4.1-3.3,5.8-7.5,3.7c-4.1-2.1-7.5-7.1-7.5-11.2s3.3-5.8,7.5-3.7
					C551.5,489.1,554.8,494.1,554.8,498.3z"/>
				<path opacity="0.11" d="M575.4,508.6c0,15.5-12.5,21.7-28,14c-15.5-7.7-28-26.5-28-42c0-15.5,12.5-21.7,28-14
					C562.8,474.4,575.4,493.2,575.4,508.6z"/>
			</g>
		</g>
		<g>
			<g>
				<path fill="#2D3134" d="M542,469.1c-7.5-3.7-14.2-4.2-19.2-1.9l0,0l-14,7l0,0c-5.4,2.4-8.8,7.9-8.8,15.9c0,15.5,12.5,34.3,28,42
					c7.6,3.8,14.6,4.2,19.6,1.8c0,0,13.9-6.9,15.1-7.6c4.5-2.7,7.3-7.9,7.3-15.2C570,495.6,557.5,476.8,542,469.1z"/>
				<path opacity="0.29" d="M547.9,533.7c2-1,13.7-6.8,14.8-7.5c4.5-2.7,7.3-7.9,7.3-15.2c0-6.2-2.1-13-5.5-19.3l-14,7
					c3.4,6.4,5.5,13.1,5.5,19.3C556,525.7,552.9,531.1,547.9,533.7z"/>
				<path fill="#999999" d="M545.9,512.8c0,9.9-8,13.9-17.9,8.9c-9.9-4.9-17.9-17-17.9-26.8s8-13.9,17.9-8.9
					C537.9,491,545.9,503,545.9,512.8z"/>
				<path opacity="0.15" d="M529.5,521.2c-9.9-4.9-17.9-17-17.9-26.8c0-4.9,1.9-8.3,5.1-9.9c-4,1.3-6.6,5-6.6,10.6
					c0,9.9,8,21.9,17.9,26.8c5,2.5,9.6,2.7,12.8,1C537.7,523.8,533.8,523.3,529.5,521.2z"/>
				<path fill="#2D3134" d="M536.9,507c0,4.1-3.3,5.8-7.5,3.7c-4.1-2.1-7.5-7.1-7.5-11.2c0-4.1,3.3-5.8,7.5-3.7
					C533.6,497.9,536.9,502.9,536.9,507z"/>
				<path opacity="0.29" d="M536.9,507c0,4.1-3.3,5.8-7.5,3.7c-4.1-2.1-7.5-7.1-7.5-11.2c0-4.1,3.3-5.8,7.5-3.7
					C533.6,497.9,536.9,502.9,536.9,507z"/>
				<path fill="#2D3134" d="M535.5,507.7c0,4.1-3.3,5.8-7.5,3.7s-7.5-7.1-7.5-11.2c0-4.1,3.3-5.8,7.5-3.7S535.5,503.6,535.5,507.7z"
					/>
				<path opacity="0.11" d="M556,518.1c0,15.5-12.5,21.7-28,14c-15.5-7.7-28-26.5-28-42c0-15.5,12.5-21.7,28-14
					C543.5,483.8,556,502.6,556,518.1z"/>
			</g>
		</g>
		<polygon fill="#2D3134" points="507,467 543,449 579,467 543,485 		"/>
		<polygon fill="#2D3134" points="557,510 593,492 579,467 543,485 		"/>
		<polygon opacity="0.29" points="557,510 593,492 579,467 543,485 		"/>
	</g>
	<g>
		<polygon fill="#2D3134" points="565,496 601,478 589,498 553,516 		"/>
		<polygon opacity="0.29" points="565,496 601,478 589,498 553,516 		"/>
		<g>
			<g>
				<path fill="#2D3134" d="M619.4,488.6c-7.5-3.7-14.2-4.2-19.2-1.9l0,0l-14,7l0,0c-5.4,2.4-8.8,7.9-8.8,15.9
					c0,15.5,12.5,34.3,28,42c7.6,3.8,14.6,4.2,19.6,1.8c0,0,13.9-6.9,15.1-7.6c4.5-2.7,7.3-7.9,7.3-15.2
					C647.4,515.2,634.8,496.4,619.4,488.6z"/>
				<path opacity="0.29" d="M625.3,553.2c2-1,13.7-6.8,14.8-7.5c4.5-2.7,7.3-7.9,7.3-15.2c0-6.2-2.1-13-5.5-19.3l-14,7
					c3.4,6.4,5.5,13.1,5.5,19.3C633.4,545.3,630.3,550.7,625.3,553.2z"/>
				<path fill="#999999" d="M623.3,532.4c0,9.9-8,13.9-17.9,8.9c-9.9-4.9-17.9-17-17.9-26.8c0-9.9,8-13.9,17.9-8.9
					C615.2,510.5,623.3,522.5,623.3,532.4z"/>
				<path opacity="0.15" d="M606.9,540.7c-9.9-4.9-17.9-17-17.9-26.8c0-4.9,1.9-8.3,5.1-9.9c-4,1.3-6.6,5-6.6,10.6
					c0,9.9,8,21.9,17.9,26.8c5,2.5,9.6,2.7,12.8,1C615.1,543.3,611.2,542.8,606.9,540.7z"/>
				<path fill="#2D3134" d="M614.3,526.6c0,4.1-3.3,5.8-7.5,3.7s-7.5-7.1-7.5-11.2s3.3-5.8,7.5-3.7
					C611,517.4,614.3,522.4,614.3,526.6z"/>
				<path opacity="0.29" d="M614.3,526.6c0,4.1-3.3,5.8-7.5,3.7s-7.5-7.1-7.5-11.2s3.3-5.8,7.5-3.7
					C611,517.4,614.3,522.4,614.3,526.6z"/>
				<path fill="#2D3134" d="M612.8,527.3c0,4.1-3.3,5.8-7.5,3.7s-7.5-7.1-7.5-11.2s3.3-5.8,7.5-3.7
					C609.5,518.1,612.8,523.1,612.8,527.3z"/>
				<path opacity="0.11" d="M633.4,537.6c0,15.5-12.5,21.7-28,14c-15.5-7.7-28-26.5-28-42c0-15.5,12.5-21.7,28-14
					C620.8,503.4,633.4,522.2,633.4,537.6z"/>
			</g>
		</g>
		<g>
			<g>
				<path fill="#2D3134" d="M600,498.1c-7.5-3.7-14.2-4.2-19.2-1.9l0,0l-14,7l0,0c-5.4,2.4-8.8,7.9-8.8,15.9c0,15.5,12.5,34.3,28,42
					c7.6,3.8,14.6,4.2,19.6,1.8c0,0,13.9-6.9,15.1-7.6c4.5-2.7,7.3-7.9,7.3-15.2C628,524.6,615.5,505.8,600,498.1z"/>
				<path opacity="0.29" d="M605.9,562.7c2-1,13.7-6.8,14.8-7.5c4.5-2.7,7.3-7.9,7.3-15.2c0-6.2-2.1-13-5.5-19.3l-14,7
					c3.4,6.4,5.5,13.1,5.5,19.3C614,554.7,610.9,560.1,605.9,562.7z"/>
				<path fill="#999999" d="M603.9,541.8c0,9.9-8,13.9-17.9,8.9c-9.9-4.9-17.9-17-17.9-26.8c0-9.9,8-13.9,17.9-8.9
					C595.9,520,603.9,532,603.9,541.8z"/>
				<path opacity="0.15" d="M587.5,550.2c-9.9-4.9-17.9-17-17.9-26.8c0-4.9,1.9-8.3,5.1-9.9c-4,1.3-6.6,5-6.6,10.6
					c0,9.9,8,21.9,17.9,26.8c5,2.5,9.6,2.7,12.8,1C595.7,552.8,591.8,552.3,587.5,550.2z"/>
				<path fill="#2D3134" d="M594.9,536c0,4.1-3.3,5.8-7.5,3.7c-4.1-2.1-7.5-7.1-7.5-11.2s3.3-5.8,7.5-3.7
					C591.6,526.9,594.9,531.9,594.9,536z"/>
				<path opacity="0.29" d="M594.9,536c0,4.1-3.3,5.8-7.5,3.7c-4.1-2.1-7.5-7.1-7.5-11.2s3.3-5.8,7.5-3.7
					C591.6,526.9,594.9,531.9,594.9,536z"/>
				<path fill="#2D3134" d="M593.5,536.7c0,4.1-3.3,5.8-7.5,3.7c-4.1-2.1-7.5-7.1-7.5-11.2s3.3-5.8,7.5-3.7
					C590.1,527.6,593.5,532.6,593.5,536.7z"/>
				<path opacity="0.11" d="M614,547.1c0,15.5-12.5,21.7-28,14c-15.5-7.7-28-26.5-28-42s12.5-21.7,28-14S614,531.6,614,547.1z"/>
			</g>
		</g>
		<polygon fill="#2D3134" points="565,496 601,478 637,496 601,514 		"/>
		<polygon fill="#2D3134" points="615,539 651,521 637,496 601,514 		"/>
		<polygon opacity="0.29" points="615,539 651,521 637,496 601,514 		"/>
	</g>
	<g>
		<polygon fill="#999999" points="661,514 641,524 641,551 693,577 713,567 713,540 		"/>
		<polygon fill="#2D3134" points="675,521 671,519 651,529 651,556 655,558 655,531 		"/>
		<polygon fill="#2D3134" points="703,535 699,533 679,543 679,570 683,572 683,545 		"/>
		<polygon opacity="0.29" points="713,540 713,567 693,577 693,550 		"/>
		<polygon opacity="0.11" points="641,524 641,551 693,577 693,550 		"/>
	</g>
	<g>
		<polygon fill="#06547A" points="626,525 616,530 616,561 678,592 688,587 688,556 		"/>
		<polygon opacity="0.11" points="616,530 616,561 678,592 678,561 		"/>
		<polygon opacity="0.29" points="688,556 688,587 678,592 678,561 		"/>
	</g>
	<g>
		<polygon fill="#06547A" points="818,491 678,561 678,592 702,604 842,534 842,503 		"/>
		<polygon opacity="0.11" points="678,561 678,592 702,604 702,573 		"/>
		<polygon opacity="0.29" points="842,503 842,534 702,604 702,573 		"/>
	</g>
</g>
<g>
	<g>
		<polygon fill="#2D3134" points="94,259 130,241 118,261 82,279 		"/>
		<polygon opacity="0.29" points="94,259 130,241 118,261 82,279 		"/>
		<g>
			<g>
				<path fill="#2D3134" d="M148.4,251.6c-7.5-3.7-14.2-4.2-19.2-1.9l0,0l-14,7l0,0c-5.4,2.4-8.8,7.9-8.8,15.9
					c0,15.5,12.5,34.3,28,42c7.6,3.8,14.6,4.2,19.6,1.8c0,0,13.9-6.9,15.1-7.6c4.5-2.7,7.3-7.9,7.3-15.2
					C176.4,278.2,163.8,259.4,148.4,251.6z"/>
				<path opacity="0.29" d="M154.3,316.2c2-1,13.7-6.8,14.8-7.5c4.5-2.7,7.3-7.9,7.3-15.2c0-6.2-2.1-13-5.5-19.3l-14,7
					c3.4,6.4,5.5,13.1,5.5,19.3C162.4,308.3,159.3,313.7,154.3,316.2z"/>
				<path fill="#999999" d="M152.3,295.4c0,9.9-8,13.9-17.9,8.9c-9.9-4.9-17.9-17-17.9-26.8s8-13.9,17.9-8.9
					C144.2,273.5,152.3,285.5,152.3,295.4z"/>
				<path opacity="0.15" d="M135.9,303.7c-9.9-4.9-17.9-17-17.9-26.8c0-4.9,1.9-8.3,5.1-9.9c-4,1.3-6.6,5-6.6,10.6
					c0,9.9,8,21.9,17.9,26.8c5,2.5,9.6,2.7,12.8,1C144.1,306.3,140.2,305.8,135.9,303.7z"/>
				<path fill="#2D3134" d="M143.3,289.6c0,4.1-3.3,5.8-7.5,3.7c-4.1-2.1-7.5-7.1-7.5-11.2s3.3-5.8,7.5-3.7
					C140,280.4,143.3,285.4,143.3,289.6z"/>
				<path opacity="0.29" d="M143.3,289.6c0,4.1-3.3,5.8-7.5,3.7c-4.1-2.1-7.5-7.1-7.5-11.2s3.3-5.8,7.5-3.7
					C140,280.4,143.3,285.4,143.3,289.6z"/>
				<path fill="#2D3134" d="M141.8,290.3c0,4.1-3.3,5.8-7.5,3.7c-4.1-2.1-7.5-7.1-7.5-11.2s3.3-5.8,7.5-3.7
					C138.5,281.1,141.8,286.1,141.8,290.3z"/>
				<path opacity="0.11" d="M162.4,300.6c0,15.5-12.5,21.7-28,14c-15.5-7.7-28-26.5-28-42s12.5-21.7,28-14
					C149.8,266.4,162.4,285.2,162.4,300.6z"/>
			</g>
		</g>
		<g>
			<g>
				<path fill="#2D3134" d="M129,261.1c-7.5-3.7-14.2-4.2-19.2-1.9l0,0l-14,7l0,0c-5.4,2.4-8.8,7.9-8.8,15.9c0,15.5,12.5,34.3,28,42
					c7.6,3.8,14.6,4.2,19.6,1.8c0,0,13.9-6.9,15.1-7.6c4.5-2.7,7.3-7.9,7.3-15.2C157,287.6,144.5,268.8,129,261.1z"/>
				<path opacity="0.29" d="M134.9,325.7c2-1,13.7-6.8,14.8-7.5c4.5-2.7,7.3-7.9,7.3-15.2c0-6.2-2.1-13-5.5-19.3l-14,7
					c3.4,6.4,5.5,13.1,5.5,19.3C143,317.7,139.9,323.1,134.9,325.7z"/>
				<path fill="#999999" d="M132.9,304.8c0,9.9-8,13.9-17.9,8.9c-9.9-4.9-17.9-17-17.9-26.8s8-13.9,17.9-8.9
					C124.9,283,132.9,295,132.9,304.8z"/>
				<path opacity="0.15" d="M116.5,313.2c-9.9-4.9-17.9-17-17.9-26.8c0-4.9,1.9-8.3,5.1-9.9c-4,1.3-6.6,5-6.6,10.6
					c0,9.9,8,21.9,17.9,26.8c5,2.5,9.6,2.7,12.8,1C124.7,315.8,120.8,315.3,116.5,313.2z"/>
				<path fill="#2D3134" d="M123.9,299c0,4.1-3.3,5.8-7.5,3.7c-4.1-2.1-7.5-7.1-7.5-11.2c0-4.1,3.3-5.8,7.5-3.7
					C120.6,289.9,123.9,294.9,123.9,299z"/>
				<path opacity="0.29" d="M123.9,299c0,4.1-3.3,5.8-7.5,3.7c-4.1-2.1-7.5-7.1-7.5-11.2c0-4.1,3.3-5.8,7.5-3.7
					C120.6,289.9,123.9,294.9,123.9,299z"/>
				<path fill="#2D3134" d="M122.5,299.7c0,4.1-3.3,5.8-7.5,3.7c-4.1-2.1-7.5-7.1-7.5-11.2c0-4.1,3.3-5.8,7.5-3.7
					C119.1,290.6,122.5,295.6,122.5,299.7z"/>
				<path opacity="0.11" d="M143,310.1c0,15.5-12.5,21.7-28,14c-15.5-7.7-28-26.5-28-42c0-15.5,12.5-21.7,28-14
					C130.5,275.8,143,294.6,143,310.1z"/>
			</g>
		</g>
		<polygon fill="#2D3134" points="94,259 130,241 166,259 130,277 		"/>
		<polygon fill="#2D3134" points="144,302 180,284 166,259 130,277 		"/>
		<polygon opacity="0.29" points="144,302 180,284 166,259 130,277 		"/>
	</g>
	<g>
		<polygon fill="#2D3134" points="153,289.4 189,271.4 177,291.4 141,309.4 		"/>
		<polygon opacity="0.29" points="153,289.4 189,271.4 177,291.4 141,309.4 		"/>
		<g>
			<g>
				<path fill="#2D3134" d="M207.4,282c-7.5-3.7-14.2-4.2-19.2-1.9l0,0l-14,7l0,0c-5.4,2.4-8.8,7.9-8.8,15.9c0,15.5,12.5,34.3,28,42
					c7.6,3.8,14.6,4.2,19.6,1.8c0,0,13.9-6.9,15.1-7.6c4.5-2.7,7.3-7.9,7.3-15.2C235.4,308.6,222.8,289.8,207.4,282z"/>
				<path opacity="0.29" d="M213.3,346.6c2-1,13.7-6.8,14.8-7.5c4.5-2.7,7.3-7.9,7.3-15.2c0-6.2-2.1-13-5.5-19.3l-14,7
					c3.4,6.4,5.5,13.1,5.5,19.3C221.4,338.7,218.3,344.1,213.3,346.6z"/>
				<path fill="#999999" d="M211.3,325.8c0,9.9-8,13.9-17.9,8.9c-9.9-4.9-17.9-17-17.9-26.8s8-13.9,17.9-8.9
					C203.2,303.9,211.3,315.9,211.3,325.8z"/>
				<path opacity="0.15" d="M194.9,334.1c-9.9-4.9-17.9-17-17.9-26.8c0-4.9,1.9-8.3,5.1-9.9c-4,1.3-6.6,5-6.6,10.6
					c0,9.9,8,21.9,17.9,26.8c5,2.5,9.6,2.7,12.8,1C203.1,336.7,199.2,336.2,194.9,334.1z"/>
				<path fill="#2D3134" d="M202.3,320c0,4.1-3.3,5.8-7.5,3.7c-4.1-2.1-7.5-7.1-7.5-11.2s3.3-5.8,7.5-3.7
					C199,310.8,202.3,315.8,202.3,320z"/>
				<path opacity="0.29" d="M202.3,320c0,4.1-3.3,5.8-7.5,3.7c-4.1-2.1-7.5-7.1-7.5-11.2s3.3-5.8,7.5-3.7
					C199,310.8,202.3,315.8,202.3,320z"/>
				<path fill="#2D3134" d="M200.8,320.7c0,4.1-3.3,5.8-7.5,3.7s-7.5-7.1-7.5-11.2c0-4.1,3.3-5.8,7.5-3.7
					C197.5,311.5,200.8,316.5,200.8,320.7z"/>
				<path opacity="0.11" d="M221.4,331c0,15.5-12.5,21.7-28,14c-15.5-7.7-28-26.5-28-42c0-15.5,12.5-21.7,28-14
					C208.8,296.8,221.4,315.6,221.4,331z"/>
			</g>
		</g>
		<g>
			<g>
				<path fill="#2D3134" d="M188,291.5c-7.5-3.7-14.2-4.2-19.2-1.9l0,0l-14,7l0,0c-5.4,2.4-8.8,7.9-8.8,15.9c0,15.5,12.5,34.3,28,42
					c7.6,3.8,14.6,4.2,19.6,1.8c0,0,13.9-6.9,15.1-7.6c4.5-2.7,7.3-7.9,7.3-15.2C216,318,203.5,299.2,188,291.5z"/>
				<path opacity="0.29" d="M193.9,356.1c2-1,13.7-6.8,14.8-7.5c4.5-2.7,7.3-7.9,7.3-15.2c0-6.2-2.1-13-5.5-19.3l-14,7
					c3.4,6.4,5.5,13.1,5.5,19.3C202,348.1,198.9,353.5,193.9,356.1z"/>
				<path fill="#999999" d="M191.9,335.3c0,9.9-8,13.9-17.9,8.9s-17.9-17-17.9-26.8c0-9.9,8-13.9,17.9-8.9
					C183.9,313.4,191.9,325.4,191.9,335.3z"/>
				<path opacity="0.15" d="M175.5,343.6c-9.9-4.9-17.9-17-17.9-26.8c0-4.9,1.9-8.3,5.1-9.9c-4,1.3-6.6,5-6.6,10.6
					c0,9.9,8,21.9,17.9,26.8c5,2.5,9.6,2.7,12.8,1C183.7,346.2,179.8,345.7,175.5,343.6z"/>
				<path fill="#2D3134" d="M182.9,329.4c0,4.1-3.3,5.8-7.5,3.7c-4.1-2.1-7.5-7.1-7.5-11.2c0-4.1,3.3-5.8,7.5-3.7
					C179.6,320.3,182.9,325.3,182.9,329.4z"/>
				<path opacity="0.29" d="M182.9,329.4c0,4.1-3.3,5.8-7.5,3.7c-4.1-2.1-7.5-7.1-7.5-11.2c0-4.1,3.3-5.8,7.5-3.7
					C179.6,320.3,182.9,325.3,182.9,329.4z"/>
				<path fill="#2D3134" d="M181.5,330.1c0,4.1-3.3,5.8-7.5,3.7c-4.1-2.1-7.5-7.1-7.5-11.2s3.3-5.8,7.5-3.7
					C178.1,321,181.5,326,181.5,330.1z"/>
				<path opacity="0.11" d="M202,340.5c0,15.5-12.5,21.7-28,14s-28-26.5-28-42c0-15.5,12.5-21.7,28-14S202,325,202,340.5z"/>
			</g>
		</g>
		<polygon fill="#2D3134" points="153,289.4 189,271.4 225,289.4 189,307.4 		"/>
		<polygon fill="#2D3134" points="203,332.4 239,314.4 225,289.4 189,307.4 		"/>
		<polygon opacity="0.29" points="203,332.4 239,314.4 225,289.4 189,307.4 		"/>
	</g>
	<g>
		<polygon fill="#2D3134" points="212,319 248,301 236,321 200,339 		"/>
		<polygon opacity="0.29" points="212,319 248,301 236,321 200,339 		"/>
		<g>
			<g>
				<path fill="#2D3134" d="M266.4,311.6c-7.5-3.7-14.2-4.2-19.2-1.9l0,0l-14,7l0,0c-5.4,2.4-8.8,7.9-8.8,15.9
					c0,15.5,12.5,34.3,28,42c7.6,3.8,14.6,4.2,19.6,1.8c0,0,13.9-6.9,15.1-7.6c4.5-2.7,7.3-7.9,7.3-15.2
					C294.4,338.2,281.8,319.4,266.4,311.6z"/>
				<path opacity="0.29" d="M272.3,376.2c2-1,13.7-6.8,14.8-7.5c4.5-2.7,7.3-7.9,7.3-15.2c0-6.2-2.1-13-5.5-19.3l-14,7
					c3.4,6.4,5.5,13.1,5.5,19.3C280.4,368.3,277.3,373.7,272.3,376.2z"/>
				<path fill="#999999" d="M270.3,355.4c0,9.9-8,13.9-17.9,8.9c-9.9-4.9-17.9-17-17.9-26.8s8-13.9,17.9-8.9
					C262.2,333.5,270.3,345.5,270.3,355.4z"/>
				<path opacity="0.15" d="M253.9,363.7c-9.9-4.9-17.9-17-17.9-26.8c0-4.9,1.9-8.3,5.1-9.9c-4,1.3-6.6,5-6.6,10.6
					c0,9.9,8,21.9,17.9,26.8c5,2.5,9.6,2.7,12.8,1C262.1,366.3,258.2,365.8,253.9,363.7z"/>
				<path fill="#2D3134" d="M261.3,349.6c0,4.1-3.3,5.8-7.5,3.7c-4.1-2.1-7.5-7.1-7.5-11.2s3.3-5.8,7.5-3.7
					C258,340.4,261.3,345.4,261.3,349.6z"/>
				<path opacity="0.29" d="M261.3,349.6c0,4.1-3.3,5.8-7.5,3.7c-4.1-2.1-7.5-7.1-7.5-11.2s3.3-5.8,7.5-3.7
					C258,340.4,261.3,345.4,261.3,349.6z"/>
				<path fill="#2D3134" d="M259.8,350.3c0,4.1-3.3,5.8-7.5,3.7c-4.1-2.1-7.5-7.1-7.5-11.2s3.3-5.8,7.5-3.7
					C256.5,341.1,259.8,346.1,259.8,350.3z"/>
				<path opacity="0.11" d="M280.4,360.6c0,15.5-12.5,21.7-28,14c-15.5-7.7-28-26.5-28-42s12.5-21.7,28-14
					C267.8,326.4,280.4,345.2,280.4,360.6z"/>
			</g>
		</g>
		<g>
			<g>
				<path fill="#2D3134" d="M247,321.1c-7.5-3.7-14.2-4.2-19.2-1.9l0,0l-14,7l0,0c-5.4,2.4-8.8,7.9-8.8,15.9c0,15.5,12.5,34.3,28,42
					c7.6,3.8,14.6,4.2,19.6,1.8c0,0,13.9-6.9,15.1-7.6c4.5-2.7,7.3-7.9,7.3-15.2C275,347.6,262.5,328.8,247,321.1z"/>
				<path opacity="0.29" d="M252.9,385.7c2-1,13.7-6.8,14.8-7.5c4.5-2.7,7.3-7.9,7.3-15.2c0-6.2-2.1-13-5.5-19.3l-14,7
					c3.4,6.4,5.5,13.1,5.5,19.3C261,377.7,257.9,383.1,252.9,385.7z"/>
				<path fill="#999999" d="M250.9,364.8c0,9.9-8,13.9-17.9,8.9c-9.9-4.9-17.9-17-17.9-26.8s8-13.9,17.9-8.9
					C242.9,343,250.9,355,250.9,364.8z"/>
				<path opacity="0.15" d="M234.5,373.2c-9.9-4.9-17.9-17-17.9-26.8c0-4.9,1.9-8.3,5.1-9.9c-4,1.3-6.6,5-6.6,10.6
					c0,9.9,8,21.9,17.9,26.8c5,2.5,9.6,2.7,12.8,1C242.7,375.8,238.8,375.3,234.5,373.2z"/>
				<path fill="#2D3134" d="M241.9,359c0,4.1-3.3,5.8-7.5,3.7c-4.1-2.1-7.5-7.1-7.5-11.2c0-4.1,3.3-5.8,7.5-3.7
					C238.6,349.9,241.9,354.9,241.9,359z"/>
				<path opacity="0.29" d="M241.9,359c0,4.1-3.3,5.8-7.5,3.7c-4.1-2.1-7.5-7.1-7.5-11.2c0-4.1,3.3-5.8,7.5-3.7
					C238.6,349.9,241.9,354.9,241.9,359z"/>
				<path fill="#2D3134" d="M240.5,359.7c0,4.1-3.3,5.8-7.5,3.7c-4.1-2.1-7.5-7.1-7.5-11.2c0-4.1,3.3-5.8,7.5-3.7
					C237.1,350.6,240.5,355.6,240.5,359.7z"/>
				<path opacity="0.11" d="M261,370.1c0,15.5-12.5,21.7-28,14c-15.5-7.7-28-26.5-28-42c0-15.5,12.5-21.7,28-14
					C248.5,335.8,261,354.6,261,370.1z"/>
			</g>
		</g>
		<polygon fill="#2D3134" points="212,319 248,301 284,319 248,337 		"/>
		<polygon fill="#2D3134" points="262,362 298,344 284,319 248,337 		"/>
		<polygon opacity="0.29" points="262,362 298,344 284,319 248,337 		"/>
	</g>
	<g>
		<polygon fill="#2D3134" points="160,160 20,230 20,240 62,261 82,261 222,191 		"/>
		<polygon opacity="0.11" points="20,230 20,240 62,261 82,261 		"/>
	</g>
	<g>
		<polygon fill="#2D3134" points="408,284 268,354 288,374 472,466 492,466 632,396 		"/>
		<polygon opacity="0.11" points="268,354 288,374 472,466 492,466 		"/>
	</g>
	<g>
		<polygon fill="#2D3134" points="160,150 20,220 20,230 640,540 780,470 780,460 		"/>
		<polygon opacity="0.11" points="20,220 20,230 640,540 640,530 		"/>
		<polygon opacity="0.15" points="140,160 132,164 752,474 760,470 		"/>
		<polygon opacity="0.15" points="48,206 40,210 660,520 668,516 		"/>
		<polygon opacity="0.29" points="780,460 780,470 640,540 640,530 		"/>
	</g>
	<g>
		<polygon fill="#2D3134" points="752,474 668,516 668,525.9 732,558 816,516 816,506 		"/>
		<polygon opacity="0.11" points="668,516 668,526 732,558 732,548 		"/>
		<polygon opacity="0.29" points="816,506 816,516 732,558 732,548 		"/>
	</g>
</g>
<g>
	<g>
		<polygon fill="#539B00" points="160,10 20,80 20,230 640,540 780,470 780,320 		"/>
		<polygon opacity="0.11" points="20,80 20,230 640,540 640,390 		"/>
		<polygon opacity="0.29" points="780,320 780,470 640,540 640,390 		"/>
	</g>
	<polygon opacity="0.15" points="760,460 720,480 720,370 760,350 	"/>
	<polygon opacity="0.15" points="700,490 660,510 660,400 700,380 	"/>
	<polygon opacity="0.15" points="50,115 40,110 40,220 50,225 	"/>
	<polygon opacity="0.15" points="70,125 60,120 60,230 70,235 	"/>
	<polygon opacity="0.15" points="90,135 80,130 80,240 90,245 	"/>
	<polygon opacity="0.15" points="110,145 100,140 100,250 110,255 	"/>
	<polygon opacity="0.15" points="130,155 120,150 120,260 130,265 	"/>
	<polygon opacity="0.15" points="150,165 140,160 140,270 150,275 	"/>
	<polygon opacity="0.15" points="170,175 160,170 160,280 170,285 	"/>
	<polygon opacity="0.15" points="190,185 180,180 180,290 190,295 	"/>
	<polygon opacity="0.15" points="210,195 200,190 200,300 210,305 	"/>
	<polygon opacity="0.15" points="230,205 220,200 220,310 230,315 	"/>
	<polygon opacity="0.15" points="250,215 240,210 240,320 250,325 	"/>
	<polygon opacity="0.15" points="270,225 260,220 260,330 270,335 	"/>
	<polygon opacity="0.15" points="290,235 280,230 280,340 290,345 	"/>
	<polygon opacity="0.15" points="310,245 300,240 300,350 310,355 	"/>
	<polygon opacity="0.15" points="330,255 320,250 320,360 330,365 	"/>
	<polygon opacity="0.15" points="350,265 340,260 340,370 350,375 	"/>
	<polygon opacity="0.15" points="370,275 360,270 360,380 370,385 	"/>
	<polygon opacity="0.15" points="390,285 380,280 380,390 390,395 	"/>
	<polygon opacity="0.15" points="410,295 400,290 400,400 410,405 	"/>
	<polygon opacity="0.15" points="430,305 420,300 420,410 430,415 	"/>
	<polygon opacity="0.15" points="450,315 440,310 440,420 450,425 	"/>
	<polygon opacity="0.15" points="470,325 460,320 460,430 470,435 	"/>
	<polygon opacity="0.15" points="490,335 480,330 480,440 490,445 	"/>
	<polygon opacity="0.15" points="510,345 500,340 500,450 510,455 	"/>
	<polygon opacity="0.15" points="530,355 520,350 520,460 530,465 	"/>
	<polygon opacity="0.15" points="550,365 540,360 540,470 550,475 	"/>
	<polygon opacity="0.15" points="570,375 560,370 560,480 570,485 	"/>
	<polygon opacity="0.15" points="590,385 580,380 580,490 590,495 	"/>
	<polygon opacity="0.15" points="610,395 600,390 600,500 610,505 	"/>
	<polygon opacity="0.15" points="630,405 620,400 620,510 630,515 	"/>
</g>
<g>
	<path fill="#2D3134" d="M941,473.4h-1v-30.7c0-1.1-0.6-2.1-1.5-2.7c-0.9-0.6-2.1-0.6-3-0.1l-2.3,1.1l-0.4-0.9l2.3-1.1
		c1.3-0.6,2.8-0.6,4,0.2c1.2,0.8,2,2.1,2,3.5V473.4z"/>
	<path fill="#2D3134" d="M934.7,449v20.9c0,1.9,2.1,3,3.6,1.9l0.5-0.4c2.5-1.8,4-4.7,4-7.7v-21c0-1.9-2.2-3-3.7-1.8l-0.8,0.6
		C936.1,443.3,934.7,446.1,934.7,449z"/>
	<g>
		<path fill="#2D3134" d="M752,574.3c-7.5-3.7-14.2-4.2-19.2-1.9l0,0l-14,7l0,0c-5.4,2.4-8.8,7.9-8.8,15.9c0,15.5,12.5,34.3,28,42
			c7.6,3.8,14.6,4.2,19.6,1.8c0,0,13.9-6.9,15.1-7.6c4.5-2.7,7.3-7.9,7.3-15.2C780,600.8,767.5,582,752,574.3z"/>
		<path opacity="0.29" d="M757.9,638.9c2-1,13.7-6.8,14.8-7.5c4.5-2.7,7.3-7.9,7.3-15.2c0-6.2-2.1-13-5.5-19.3l-14,7
			c3.4,6.4,5.5,13.1,5.5,19.3C766,631,762.9,636.3,757.9,638.9z"/>
		<path fill="#999999" d="M755.9,618.1c0,9.9-8,13.9-17.9,8.9c-9.9-4.9-17.9-17-17.9-26.8s8-13.9,17.9-8.9S755.9,608.2,755.9,618.1z
			"/>
		<path opacity="0.15" d="M739.5,626.4c-9.9-4.9-17.9-17-17.9-26.8c0-4.9,1.9-8.3,5.1-9.9c-4,1.3-6.6,5-6.6,10.6
			c0,9.9,8,21.9,17.9,26.8c5,2.5,9.6,2.7,12.8,1C747.7,629,743.8,628.5,739.5,626.4z"/>
		<path fill="#2D3134" d="M746.9,612.2c0,4.1-3.3,5.8-7.5,3.7c-4.1-2.1-7.5-7.1-7.5-11.2c0-4.1,3.3-5.8,7.5-3.7
			C743.6,603.1,746.9,608.1,746.9,612.2z"/>
		<path opacity="0.29" d="M746.9,612.2c0,4.1-3.3,5.8-7.5,3.7c-4.1-2.1-7.5-7.1-7.5-11.2c0-4.1,3.3-5.8,7.5-3.7
			C743.6,603.1,746.9,608.1,746.9,612.2z"/>
		<path fill="#2D3134" d="M745.5,612.9c0,4.1-3.3,5.8-7.5,3.7c-4.1-2.1-7.5-7.1-7.5-11.2s3.3-5.8,7.5-3.7
			C742.1,603.8,745.5,608.8,745.5,612.9z"/>
		<path opacity="0.11" d="M766,623.3c0,15.5-12.5,21.7-28,14s-28-26.5-28-42c0-15.5,12.5-21.7,28-14S766,607.8,766,623.3z"/>
	</g>
	<path fill="#06547A" d="M946,533l-126-63l-140,70v15l18,9c0,0,38.4,18.8,41,20c8.6,4.1,16.1,7.8,23.6,16.9
		c8.6,10.5,12.8,26.5,12.5,36.6L806,653l140-70V533z"/>
	<path opacity="0.15" d="M833.5,490.9l86-43c1.9-1,4.2,0,4.9,2l14.7,44.1L833.5,490.9z"/>
	<path fill="#06547A" d="M820,367.3l-140,70V538l126,63l140-70v-15c0-23.7-3.2-47.3-9.5-70.1l-6.5-23.6L820,367.3z"/>
	<g>
		<path fill="#656565" d="M811.6,553.3c-1.5,0-2.7-1.1-2.9-2.5c-1.6-12.2-4.1-24.4-7.3-36.2l-4.8-17.3c-0.4-1.3,0.3-2.8,1.5-3.4
			l125.6-62.8c0.4-0.2,0.8-0.3,1.3-0.3c1.3,0,2.5,0.9,2.8,2.1l3.9,14.3c3.6,13.2,6.2,26.8,7.7,40.4c0.1,1.2-0.5,2.4-1.6,2.9
			l-125,62.5C812.5,553.2,812,553.3,811.6,553.3z"/>
		<path fill="#2D3134" d="M924.9,431.8c0.9,0,1.6,0.6,1.9,1.4l3.9,14.3c3.6,13.1,6.2,26.7,7.7,40.2c0.1,0.8-0.3,1.6-1.1,1.9
			l-125,62.5c-0.3,0.1-0.6,0.2-0.9,0.2c-0.8,0-1.8-0.6-1.9-1.7c-1.6-12.3-4.1-24.5-7.4-36.3l-4.8-17.3c-0.2-0.9,0.2-1.8,1-2.2
			L924.1,432C924.3,431.8,924.6,431.8,924.9,431.8 M924.9,429.8c-0.6,0-1.2,0.1-1.7,0.4L797.6,493c-1.7,0.8-2.5,2.7-2,4.5l4.8,17.3
			c3.3,11.9,5.7,23.9,7.3,36.1c0.3,2,2,3.4,3.9,3.4c0.6,0,1.2-0.1,1.7-0.4l125-62.5c1.5-0.7,2.3-2.3,2.2-3.9
			c-1.5-13.7-4.1-27.2-7.8-40.5l-3.9-14.3C928.2,430.9,926.6,429.8,924.9,429.8L924.9,429.8z"/>
	</g>
	<g>
		<path fill="#2D3134" d="M940.4,487.5c-0.5-4.3-0.8-6.2-0.4-2.8c0.2,1.6-0.7,3.2-2.2,3.9l-125,62.5c-2.2,1.1-4.8-0.1-5.5-2.3
			c0.1,0.7,0.2,1.4,0.3,2.1c0.4,2.7,3.2,4.2,5.6,3l125-62.5C939.7,490.7,940.6,489.1,940.4,487.5z"/>
	</g>
	<g>
		<path fill="#656565" d="M796.3,552.5c-0.3,0-0.7-0.1-1-0.2l-20.2-10.1c-2.5-1.3-4.1-3.8-4.1-6.7c0-4.4-2.4-8.4-6.4-10.3
			l-31.2-15.6c-0.7-0.4-1.2-1.1-1.2-1.9v-35.1c0-1.3,1.1-2.2,2.2-2.2c0.3,0,0.7,0.1,1,0.2l45.9,23c2.8,1.4,4.9,4,5.8,7l4.6,16.6
			c3,10.7,5.2,21.8,6.8,32.8c0.1,0.6-0.1,1.3-0.5,1.7C797.6,552.2,797,552.5,796.3,552.5z"/>
		<path fill="#2D3134" d="M734.4,471.4c0.2,0,0.4,0,0.5,0.1l45.9,23c2.6,1.3,4.5,3.6,5.3,6.4l4.6,16.6c2.9,10.7,5.2,21.7,6.8,32.7
			c0.1,0.4-0.1,0.8-0.3,0.9c-0.2,0.3-0.6,0.4-0.9,0.4c-0.2,0-0.4,0-0.5-0.1l-20.2-10.1c-2.2-1.1-3.6-3.3-3.6-5.8
			c0-4.8-2.7-9.1-6.9-11.2l-31.2-15.6c-0.4-0.2-0.7-0.6-0.7-1.1v-35.1C733.2,471.8,733.9,471.4,734.4,471.4 M734.4,469.4
			c-1.7,0-3.2,1.3-3.2,3.2v35.1c0,1.2,0.7,2.3,1.8,2.8l31.2,15.6c3.6,1.8,5.8,5.4,5.8,9.4c0,3.2,1.8,6.1,4.7,7.5l20.2,10.1
			c0.5,0.2,1,0.3,1.4,0.3c1.8,0,3.4-1.6,3.2-3.6c-1.6-11.1-3.8-22.1-6.8-32.9l-4.6-16.6c-0.9-3.3-3.2-6.1-6.3-7.7l-45.9-23
			C735.4,469.5,734.9,469.4,734.4,469.4L734.4,469.4z"/>
	</g>
	<path opacity="0.2" d="M845.5,499c35,0,67.6-4.8,94.7-13.1c-1.5-13.1-4.1-26.1-7.6-38.9l-3.9-14.3c-0.7-2.4-3.3-3.6-5.5-2.5
		L797.6,493c-1.1,0.5-1.8,1.5-2.1,2.6C811.4,497.8,828.1,499,845.5,499z"/>
	<g>
		<path fill="#2D3134" d="M928.8,442.6c1-0.5,1.7-1.4,2-2.4l-2.1-7.6c-0.7-2.4-3.3-3.6-5.5-2.5L797.6,493c-1.7,0.8-2.5,2.7-2,4.5
			l2.3,8.4c1.1,0.7,2.6,0.9,3.9,0.2L928.8,442.6z"/>
	</g>
	<path opacity="0.11" d="M680,540v15l18,9c0,0,38.4,18.8,41,20c8.6,4.1,16.1,7.8,23.6,16.9c8.6,10.5,12.8,26.5,12.5,36.6L806,653
		v-50L680,540z"/>
	<polygon opacity="0.3" fill="#2D3134" points="731,518.5 731,523.5 741,528.5 741,523.5 	"/>
	<polygon opacity="0.3" fill="#FFFFFF" points="741,531 731,526 731,523.5 741,528.5 	"/>
	<path fill="#2D3134" d="M879,492.5c-0.8-0.7-1.9-0.6-2.6,0.2l-34.2,38.9c-0.7,0.8-0.6,1.9,0.2,2.6s1.9,0.6,2.6-0.2l9.2-10.5v9h2.3
		V521h-0.1l22.9-26C879.8,494.3,879.7,493.2,879,492.5z"/>
	<path fill="#2D3134" d="M911.9,474.5c-0.8-0.7-1.9-0.6-2.6,0.2l-34.2,38.9c-0.7,0.8-0.6,1.9,0.2,2.6c0.8,0.7,1.9,0.6,2.6-0.2
		l8.2-9.3v9.9h2.3V504l23.8-27C912.7,476.3,912.6,475.1,911.9,474.5z"/>
	<g>
		<polyline opacity="0.2" fill="none" stroke="#000000" stroke-width="0.8485" stroke-miterlimit="10" points="946,501 939.2,504.4 
			904,592.4 848,620.4 812.8,567.6 806,571 		"/>
		<polygon fill="#2D3134" points="921.1,538.5 931.1,513.4 820.9,568.5 830.9,583.6 		"/>
		<g>
			<polygon fill="#2D3134" points="845.4,605.3 851.1,613.9 900.9,589 906.6,574.7 			"/>
			<polygon fill="#2D3134" points="910.1,566 915.6,552.2 836.4,591.8 841.9,600.1 			"/>
		</g>
		<polygon fill="#2D3134" points="917.8,569.1 912.3,582.9 946,566 946,555 		"/>
		<polygon opacity="0.2" points="946,526 946,506 942.3,507.8 932.3,532.9 		"/>
		<polygon fill="#FFFFFF" points="946,548 946,537 926.8,546.6 921.3,560.4 		"/>
		<polygon opacity="0.2" points="819.7,589.2 809.7,574.1 806,576 806,596 		"/>
		<polygon fill="#2D3134" points="806,625 806,636 839.7,619.2 834.2,610.9 		"/>
		<polygon fill="#FFFFFF" points="830.7,605.7 825.2,597.4 806,607 806,618 		"/>
		<polygon fill="#FFFFFF" points="927,573.5 944,565 944,558 927,566.5 		"/>
		<polygon fill="#FFFFFF" points="860,623 896,605 896,598 860,616 		"/>
		<polygon fill="#FFFFFF" points="808,633 825,624.5 825,617.5 808,626 		"/>
		
			<ellipse transform="matrix(-0.6313 0.7756 -0.7756 -0.6313 1823.1105 380.0001)" opacity="0.3" fill="#2D3134" cx="821.2" cy="623.4" rx="2.6" ry="1.7"/>
		
			<ellipse transform="matrix(-0.6313 0.7756 -0.7756 -0.6313 1819.1804 381.8685)" opacity="0.3" fill="#2D3134" cx="818.8" cy="623.4" rx="2.6" ry="1.7"/>
		
			<ellipse transform="matrix(-0.6313 0.7756 -0.7756 -0.6313 1811.3198 349.9497)" opacity="0.3" fill="#2D3134" cx="822.5" cy="605.6" rx="4.4" ry="2.9"/>
		
			<ellipse transform="matrix(-0.6313 0.7756 -0.7756 -0.6313 1804.6718 353.1103)" opacity="0.3" fill="#2D3134" cx="818.4" cy="605.6" rx="4.4" ry="2.9"/>
		
			<ellipse transform="matrix(-0.6313 0.7756 -0.7756 -0.6313 1943.9861 178.876)" opacity="0.3" fill="#2D3134" cx="929.5" cy="551.6" rx="4.4" ry="2.9"/>
		
			<ellipse transform="matrix(-0.6313 0.7756 -0.7756 -0.6313 1947.2861 169.3071)" opacity="0.3" fill="#2D3134" cx="933.4" cy="547.6" rx="4.4" ry="2.9"/>
		
			<ellipse transform="matrix(-0.6313 0.7756 -0.7756 -0.6313 1813.1625 392.7296)" opacity="0.3" fill="#2D3134" cx="813.2" cy="627.4" rx="2.6" ry="1.7"/>
		
			<ellipse transform="matrix(-0.6313 0.7756 -0.7756 -0.6313 1809.2325 394.5981)" opacity="0.3" fill="#2D3134" cx="810.8" cy="627.4" rx="2.6" ry="1.7"/>
		
			<ellipse transform="matrix(-0.6313 0.7756 -0.7756 -0.6313 1972.33 189.0565)" opacity="0.3" fill="#2D3134" cx="941.2" cy="563.4" rx="2.6" ry="1.7"/>
		
			<ellipse transform="matrix(-0.6313 0.7756 -0.7756 -0.6313 1968.4 190.9249)" opacity="0.3" fill="#2D3134" cx="938.8" cy="563.4" rx="2.6" ry="1.7"/>
		
			<ellipse transform="matrix(-0.6313 0.7756 -0.7756 -0.6313 1962.3821 201.7861)" opacity="0.3" fill="#2D3134" cx="933.2" cy="567.4" rx="2.6" ry="1.7"/>
		
			<ellipse transform="matrix(-0.6313 0.7756 -0.7756 -0.6313 1958.4521 203.6545)" opacity="0.3" fill="#2D3134" cx="930.8" cy="567.4" rx="2.6" ry="1.7"/>
		<polygon fill="#FF9900" points="807,616 813,613 813,608 807,611 		"/>
		<polygon fill="#FF9900" points="939,550 945,547 945,542 939,545 		"/>
	</g>
	<g>
		<path fill="#06547A" d="M820,331l-140,70v36l84,42l140-70v0c0-11.5-22.9-31.4-31.4-39L820,331z"/>
		<path opacity="0.11" d="M680,401v36l84,42v0c0-11.5-22.9-31.4-31.4-39L680,401z"/>
	</g>
	<path fill="#2D3134" d="M787,551c-1.1,0-2.2-0.3-3.1-0.9c-1.8-1.1-2.8-3-2.8-5.1v-32.3c0-2.3,1.3-4.3,3.3-5.3l3.7-1.8l0.4,0.9
		l-3.7,1.8c-1.7,0.8-2.7,2.5-2.7,4.4V545c0,1.7,0.9,3.3,2.4,4.2c1.5,0.9,3.3,1,4.8,0.2l0.6-0.3l0.4,0.9l-0.6,0.3
		C788.8,550.7,787.9,551,787,551z"/>
	<path fill="#2D3134" d="M781.3,511.9l0.7-0.3c2.4-0.8,4.9,1,4.9,3.5v21.4c0,3.1-1.9,6-4.9,7.1l-0.9,0.3c-2.4,0.9-5.1-0.9-5.1-3.5
		V519C776.2,515.8,778.2,512.9,781.3,511.9z"/>
	<polygon opacity="0.3" fill="#2D3134" points="698,547 700,548 700,447.3 698,446.3 	"/>
	<polygon opacity="0.3" fill="#FFFFFF" points="696,546 698,547 698,446.3 696,445.3 	"/>
	<polygon opacity="0.29" points="806,653 946,583 946,533 806,603 	"/>
	<path opacity="0.29" d="M930,422.3l-140,70l6.5,23.6c6.3,22.8,9.5,46.4,9.5,70.1v15l140-70v-15c0-23.7-3.2-47.3-9.5-70.1L930,422.3
		z"/>
	<path opacity="0.11" d="M790,492.3l-110-55V538l126,63v-15c0-23.7-3.2-47.3-9.5-70.1L790,492.3z"/>
	<g>
		<polygon opacity="0.3" fill="#2D3134" points="788,644 786,643 786,593 788,594 		"/>
		<polygon opacity="0.3" fill="#FFFFFF" points="790,645 788,644 788,594 790,595 		"/>
	</g>
</g>
</svg>
