<?xml version="1.0" encoding="utf-8"?>
<!-- Generator: Adobe Illustrator 18.1.0, SVG Export Plug-In . SVG Version: 6.00 Build 0)  -->
<svg version="1.1" id="Layer_1" xmlns="http://www.w3.org/2000/svg" xmlns:xlink="http://www.w3.org/1999/xlink" x="0px" y="0px"
	 viewBox="0 0 80 56" enable-background="new 0 0 80 56" xml:space="preserve">
<path fill="#E5E5E5" d="M71.3,32.2L71.3,32.2c-1-0.7-2.2-1.3-3.5-2L21,6.9l0,0c-2-1.1-3.7-1.9-6-1.9C9.5,5,5,9.4,5,14.9
	c0,3.3,1.7,6.2,4,7.8c1.3,0.9,2.1,1.2,3.2,1.7L59,47.8c2,0.9,3.8,1.8,6.1,1.8c5.5,0,9.9-4.3,9.9-9.8C74.9,36.6,73.7,34.1,71.3,32.2z
	"/>
<polygon opacity="0.1" points="31,20 39,16 47,20 39,24 "/>
<path opacity="0.15" d="M65,47c-2.2,0-4.1-0.9-6.1-1.8L12.2,21.8c-1.1-0.5-1.8-0.8-3.2-1.7c-2-1.4-3.5-3.8-3.9-6.5
	C5,14,5,14.4,5,14.9c0,3.3,1.7,6.2,4,7.8c1.3,0.9,2.1,1.2,3.2,1.7L59,47.8c2,0.9,3.8,1.8,6.1,1.8c5.5,0,9.9-4.3,9.9-9.8
	c0-0.5,0-0.9-0.1-1.4C74.2,43.4,70.1,47,65,47z"/>
<g>
	<polygon fill="#999999" points="33,19 33,20 39,23 45,20 45,19 39,16 	"/>
	<polygon opacity="0.2" points="39,21 43,19 39,17 35,19 	"/>
	<polygon opacity="0.29" points="39,22 39,23 45,20 45,19 	"/>
	<polygon opacity="0.11" points="39,22 39,23 33,20 33,19 	"/>
	<polygon opacity="0.11" points="42,19.5 43,19 39,17 39,18 	"/>
	<polygon opacity="0.29" points="39,18 39,17 35,19 36,19.5 	"/>
	<path fill="#E5E5E5" d="M39,18c-1.1,0-2,0.4-2,1v1l2,1l2-1v-1C41,18.4,40.1,18,39,18z"/>
	<path opacity="0.2" d="M39,20c-1.1,0-2-0.4-2-1v1l2,1l2-1v-1C41,19.6,40.1,20,39,20z"/>
</g>
<path opacity="0.11" d="M62.4,27.6l-2-1c-1.1,0-2.3,0.3-3.6,0.9C52.5,29.7,49,35.7,49,40c0,0,2,1,2,1c0-4.3,3.5-10.3,7.8-12.5
	C60.1,27.8,61.3,27.6,62.4,27.6z"/>
<path opacity="0.11" d="M26.4,9.6l-2-1c-1.1,0-2.3,0.3-3.6,0.9C16.5,11.7,13,17.7,13,22c0,0,2,1,2,1c0-4.3,3.5-10.3,7.8-12.5
	C24.1,9.8,25.3,9.6,26.4,9.6z"/>
<g>
	<polygon fill="#E5E5E5" points="15,23 13,22 13,27 15,28 17,27 	"/>
	<polygon opacity="0.11" points="13,27 15,28 15,23 13,22 	"/>
	<polygon opacity="0.29" points="17,27 15,28 15,23 	"/>
</g>
<g>
	<polygon fill="#E5E5E5" points="51,41 49,40 49,45 51,46 53,45 	"/>
	<polygon opacity="0.11" points="49,45 51,46 51,41 49,40 	"/>
	<polygon opacity="0.29" points="53,45 51,46 51,41 	"/>
</g>
<path fill="#999999" d="M38,22.5L37,23l-4-2l1-0.5L33,20l-1,0.5l-2,2v15l1,0.5v-1l4,2v1l1,0.5v-15l2-2l1-0.5L38,22.5z M36.3,23.7
	l-0.7,0.7l-4-2l0.7-0.7L36.3,23.7z M35,37.8l-4-2v-1l4,2V37.8z M35,35.8l-4-2v-1l4,2V35.8z M35,33.8l-4-2v-1l4,2V33.8z M35,31.8
	l-4-2v-1l4,2V31.8z M35,29.8l-4-2v-1l4,2V29.8z M35,27.8l-4-2v-1l4,2V27.8z M35,26l-4-2v-1l4,2V26z"/>
<path opacity="0.11" d="M35,26l-4-2v-1l-1-0.5v15l1,0.5v-1l4,2v1l1,0.5v-15L35,25V26z M35,37.8l-4-2v-1l4,2V37.8z M35,35.8l-4-2v-1
	l4,2V35.8z M35,33.8l-4-2v-1l4,2V33.8z M35,31.8l-4-2v-1l4,2V31.8z M35,29.8l-4-2v-1l4,2V29.8z M35,27.8l-4-2v-1l4,2V27.8z"/>
</svg>
