<?xml version="1.0" encoding="utf-8"?>
<!-- Generator: Adobe Illustrator 18.1.0, SVG Export Plug-In . SVG Version: 6.00 Build 0)  -->
<svg version="1.1" id="Layer_1" xmlns="http://www.w3.org/2000/svg" xmlns:xlink="http://www.w3.org/1999/xlink" x="0px" y="0px"
	 viewBox="0 0 720 880" enable-background="new 0 0 720 880" xml:space="preserve">
<g>
	<g>
		<polygon fill="#656565" points="392,74 372,64 352,74 352,244 372,254 392,244 		"/>
	</g>
	<polygon opacity="0.29" points="372,254 392,244 392,74 372,84 	"/>
	<polygon opacity="0.11" points="372,254 352,244 352,74 372,84 	"/>
</g>
<g>
	<g>
		<polygon fill="#656565" points="372,137 352,127 80,263 80,323 100,333 372,197 		"/>
	</g>
	<polygon opacity="0.29" points="100,333 372,197 372,137 100,273 	"/>
	<polygon opacity="0.11" points="100,333 80,323 80,263 100,273 	"/>
</g>
<g>
	<g>
		<g>
			<g>
				<polygon fill="#2D3134" points="318,140 298,130 180,189 180,213 200,223 318,164 				"/>
			</g>
		</g>
	</g>
	<polygon opacity="0.29" points="200,223 318,164 318,140 200,199 	"/>
	<polygon opacity="0.11" points="200,223 180,213 180,189 200,199 	"/>
</g>
<g>
	<g>
		<polygon fill="#656565" points="100,220 80,210 60,220 60,390 80,400 100,390 		"/>
	</g>
	<polygon opacity="0.29" points="80,400 100,390 100,220 80,230 	"/>
	<polygon opacity="0.11" points="80,400 60,390 60,220 80,230 	"/>
</g>
<g>
	<g>
		<polygon fill="#2D3134" points="284.3,98 297,92 309,98 309,595 229,635 217,629 217,132 229,126 241,132 241,605.8 284.3,584.5 
					"/>
		<polygon opacity="0.29" points="297,104 297,591 241,618.3 241,132 229,138 229,635 309,595 309,98 		"/>
		<polygon opacity="0.11" points="217,629 229,635 229,138 217,132 		"/>
		<polygon opacity="0.11" points="284.3,584.3 297,591 297,104 284.3,98 		"/>
	</g>
	<g>
		<path fill="#2D3134" d="M277.5,404.3c-2.9,0-5.3,1.2-5.3,2.6v187.5c0,1.4,2.4,2.6,5.3,2.6s5.3-1.2,5.3-2.6V406.9
			C282.8,405.4,280.4,404.3,277.5,404.3z"/>
		<path opacity="0.2" d="M277.5,409.5c-2.9,0-5.3-1.2-5.3-2.6v187.5c0,1.4,2.4,2.6,5.3,2.6s5.3-1.2,5.3-2.6V406.9
			C282.8,408.3,280.4,409.5,277.5,409.5z"/>
	</g>
	<g>
		<path fill="#2D3134" d="M277.5,384.8c-4.1,0-7.5,1.7-7.5,3.8V414c0,2.1,3.4,3.8,7.5,3.8s7.5-1.7,7.5-3.8v-25.5
			C285,386.4,281.6,384.8,277.5,384.8z"/>
		<path opacity="0.2" d="M277.5,392.3c-4.1,0-7.5-1.7-7.5-3.8V414c0,2.1,3.4,3.8,7.5,3.8s7.5-1.7,7.5-3.8v-25.5
			C285,390.6,281.6,392.3,277.5,392.3z"/>
	</g>
	<g>
		<path fill="#E5E5E5" d="M277.5,125.3c-2.1,0-3.8,0.8-3.8,1.9v261c0,1,1.7,1.9,3.8,1.9s3.8-0.8,3.8-1.9v-261
			C281.3,126.1,279.6,125.3,277.5,125.3z"/>
		<path opacity="0.2" d="M277.5,129c-2.1,0-3.8-0.8-3.8-1.9v261c0,1,1.7,1.9,3.8,1.9s3.8-0.8,3.8-1.9v-261
			C281.3,128.2,279.6,129,277.5,129z"/>
	</g>
	<g>
		<path fill="#2D3134" d="M277.5,105c-4.1,0-7.5,1.7-7.5,3.8v18.5c0,2.1,3.4,3.8,7.5,3.8s7.5-1.7,7.5-3.8v-18.5
			C285,106.7,281.6,105,277.5,105z"/>
		<path opacity="0.2" d="M277.5,112.5c-4.1,0-7.5-1.7-7.5-3.8v18.5c0,2.1,3.4,3.8,7.5,3.8s7.5-1.7,7.5-3.8v-18.5
			C285,110.8,281.6,112.5,277.5,112.5z"/>
	</g>
	<g>
		<path fill="#2D3134" d="M247.5,418.3c-2.9,0-5.3,1.2-5.3,2.6v187.5c0,1.4,2.4,2.6,5.3,2.6s5.3-1.2,5.3-2.6V420.9
			C252.8,419.4,250.4,418.3,247.5,418.3z"/>
		<path opacity="0.2" d="M247.5,423.5c-2.9,0-5.3-1.2-5.3-2.6v187.5c0,1.4,2.4,2.6,5.3,2.6s5.3-1.2,5.3-2.6V420.9
			C252.8,422.3,250.4,423.5,247.5,423.5z"/>
	</g>
	<g>
		<path fill="#2D3134" d="M247.5,398.8c-4.1,0-7.5,1.7-7.5,3.8V428c0,2.1,3.4,3.8,7.5,3.8s7.5-1.7,7.5-3.8v-25.5
			C255,400.4,251.6,398.8,247.5,398.8z"/>
		<path opacity="0.2" d="M247.5,406.3c-4.1,0-7.5-1.7-7.5-3.8V428c0,2.1,3.4,3.8,7.5,3.8s7.5-1.7,7.5-3.8v-25.5
			C255,404.6,251.6,406.3,247.5,406.3z"/>
	</g>
	<g>
		<path fill="#E5E5E5" d="M247.5,139.3c-2.1,0-3.8,0.8-3.8,1.9v261c0,1,1.7,1.9,3.8,1.9s3.8-0.8,3.8-1.9v-261
			C251.3,140.1,249.6,139.3,247.5,139.3z"/>
		<path opacity="0.2" d="M247.5,143c-2.1,0-3.8-0.8-3.8-1.9v261c0,1,1.7,1.9,3.8,1.9s3.8-0.8,3.8-1.9v-261
			C251.3,142.2,249.6,143,247.5,143z"/>
	</g>
	<g>
		<path fill="#2D3134" d="M247.5,119c-4.1,0-7.5,1.7-7.5,3.8v18.5c0,2.1,3.4,3.8,7.5,3.8s7.5-1.7,7.5-3.8v-18.5
			C255,120.7,251.6,119,247.5,119z"/>
		<path opacity="0.2" d="M247.5,126.5c-4.1,0-7.5-1.7-7.5-3.8v18.5c0,2.1,3.4,3.8,7.5,3.8s7.5-1.7,7.5-3.8v-18.5
			C255,124.8,251.6,126.5,247.5,126.5z"/>
	</g>
	<g>
		<polygon fill="#2D3134" points="229,138 309,99 309,88 297,82 217,121 217,132 		"/>
		<polygon opacity="0.29" points="309,88 309,99 229,138 229,127 		"/>
		<polygon opacity="0.11" points="217,121 217,132 229,138 229,127 		"/>
	</g>
	<g>
		<polygon fill="#2D3134" points="235,226 315,187 315,176 309,173 229,212 229,223 		"/>
		<polygon opacity="0.29" points="315,176 315,187 235,226 235,215 		"/>
		<polygon opacity="0.11" points="229,212 229,223 235,226 235,215 		"/>
	</g>
	<g>
		<polygon fill="#2D3134" points="235,314 315,275 315,264 309,261 229,300 229,311 		"/>
		<polygon opacity="0.29" points="315,264 315,275 235,314 235,303 		"/>
		<polygon opacity="0.11" points="229,300 229,311 235,314 235,303 		"/>
	</g>
	<g>
		<polygon fill="#2D3134" points="235,490 315,451 315,440 309,437 229,476 229,487 		"/>
		<polygon opacity="0.29" points="315,440 315,451 235,490 235,479 		"/>
		<polygon opacity="0.11" points="229,476 229,487 235,490 235,479 		"/>
	</g>
</g>
<polygon opacity="0.3" fill="#262626" points="480,845 636,767 346,622 190,700 "/>
<g>
	<polygon fill="#FF9900" points="372,527 330,548 330,554 394,586 436,565 436,559 	"/>
	<polygon opacity="0.11" points="330,554 330,548 394,580 394,586 	"/>
	<polygon opacity="0.29" points="436,565 436,559 394,580 394,586 	"/>
</g>
<g>
	<path fill="#2D3134" d="M606.3,639.3c-14.9-7.4-28.3-8-37.9-2.9L541,650.2c-9.2,4.9-15,15-15,29.3c0,29.2,23.7,64.6,52.8,79.2
		c16,8,30.4,8,40,1.6l22.3-11.1c11-4.2,18-14.9,18-30.7C659.1,689.4,635.5,653.9,606.3,639.3z"/>
	<path opacity="0.11" d="M631.6,732.3c0,29.2-23.7,41-52.8,26.4S526,708.7,526,679.5c0-29.2,23.7-41,52.8-26.4
		S631.6,703.2,631.6,732.3z"/>
	<path opacity="0.1" fill="#FFFFFF" d="M581.2,651.8c-15.9-7.9-30.1-8-39.8-1.8c9.1-3,20.9-1.7,33.7,4.7
		c29.2,14.6,52.8,50.1,52.8,79.2c0,13.3-4.9,23-13,28.2c11.7-3.9,19.1-14.8,19.1-31.1C634,701.8,610.4,666.4,581.2,651.8z"/>
	<path fill="#FF9900" d="M604.7,718.9c0,14.3-11.6,20.1-25.9,12.9c-14.3-7.1-25.9-24.5-25.9-38.8c0-14.3,11.6-20.1,25.9-12.9
		C593.1,687.2,604.7,704.6,604.7,718.9z"/>
	<path fill="#FF9900" d="M602.6,717.8c0,13.1-10.6,18.5-23.8,11.9c-13.1-6.6-23.8-22.5-23.8-35.7s10.6-18.5,23.8-11.9
		C592,688.7,602.6,704.7,602.6,717.8z"/>
	<path fill="#FF9900" d="M602.6,717.8c0,13.1-10.6,18.5-23.8,11.9c-13.1-6.6-23.8-22.5-23.8-35.7s10.6-18.5,23.8-11.9
		C592,688.7,602.6,704.7,602.6,717.8z"/>
	<path opacity="0.29" d="M602.6,717.8c0,13.1-10.6,18.5-23.8,11.9c-13.1-6.6-23.8-22.5-23.8-35.7s10.6-18.5,23.8-11.9
		C592,688.7,602.6,704.7,602.6,717.8z"/>
	<path opacity="0.15" d="M578.8,682.2c-13.1-6.6-23.8-1.2-23.8,11.9c0,7.1,3.1,15,8.1,21.9l33.5-16.8
		C592.3,692,585.9,685.7,578.8,682.2z"/>
	<path fill="#FF9900" d="M583.4,684.9l-6.2,3.3c-2.9,1.3-5.2,3.5-5.2,7.8c0,7.1,5.8,15.8,12.9,19.4c3.3,1.7,6.3,1.9,8.6,1l8.5-4.1
		C600,702.1,592.6,691.3,583.4,684.9z"/>
	<path opacity="0.29" d="M583.4,684.9l-6.2,3.3c-2.9,1.3-5.2,3.5-5.2,7.8c0,7.1,5.8,15.8,12.9,19.4c3.3,1.7,6.3,1.9,8.6,1l8.5-4.1
		C600,702.1,592.6,691.3,583.4,684.9z"/>
	<path opacity="0.29" d="M617.2,688.9c8.9,13.9,14.4,29.4,14.4,43.5c0,13.2-4.8,22.8-12.8,28l22.3-11.1c11-4.2,18-14.9,18-30.7
		c0-14-5.5-29.5-14.4-43.4L617.2,688.9z"/>
	<path fill="#FF9900" d="M597.8,708.9c0,7.1-5.8,10-12.9,6.5c-7.1-3.6-12.9-12.3-12.9-19.4s5.8-10,12.9-6.5
		C592,693.1,597.8,701.8,597.8,708.9z"/>
	<g opacity="0.5">
		<g>
			<g>
				<path d="M587,695.1c0,1.2-0.9,1.6-2.1,1.1c-1.2-0.6-2.1-2-2.1-3.2c0-1.2,0.9-1.6,2.1-1.1C586.1,692.5,587,693.9,587,695.1z"/>
			</g>
			<g>
				<path d="M587,712c0,1.2-0.9,1.6-2.1,1.1c-1.2-0.6-2.1-2-2.1-3.2c0-1.2,0.9-1.6,2.1-1.1C586.1,709.4,587,710.8,587,712z"/>
			</g>
			<g>
				<path d="M580.4,692.7c0.8,1.2,0.8,2.6,0,3c-0.8,0.4-2.2-0.3-3-1.5c-0.8-1.2-0.8-2.6,0-3C578.3,690.8,579.6,691.5,580.4,692.7z"
					/>
			</g>
			<g>
				<path d="M592.4,710.7c0.8,1.2,0.8,2.6,0,3c-0.8,0.4-2.2-0.3-3-1.5c-0.8-1.2-0.8-2.6,0-3C590.2,708.8,591.5,709.4,592.4,710.7z"
					/>
			</g>
			<g>
				<path d="M576.4,696.1c1.2,0.6,2.1,2,2.1,3.2c0,1.2-0.9,1.6-2.1,1.1c-1.2-0.6-2.1-2-2.1-3.2S575.3,695.5,576.4,696.1z"/>
			</g>
			<g>
				<path d="M593.4,704.6c1.2,0.6,2.1,2,2.1,3.2c0,1.2-0.9,1.6-2.1,1.1c-1.2-0.6-2.1-2-2.1-3.2C591.2,704.5,592.2,704,593.4,704.6z"
					/>
			</g>
			<g>
				<path d="M577.4,703.2c0.8-0.4,2.2,0.3,3,1.5c0.8,1.2,0.8,2.6,0,3c-0.8,0.4-2.2-0.3-3-1.5C576.6,704.9,576.6,703.6,577.4,703.2z"
					/>
			</g>
			<g>
				<path d="M589.4,697.2c0.8-0.4,2.2,0.3,3,1.5c0.8,1.2,0.8,2.6,0,3c-0.8,0.4-2.2-0.3-3-1.5C588.6,699,588.6,697.6,589.4,697.2z"/>
			</g>
		</g>
	</g>
	<g>
		<path opacity="0.1" fill="#FFFFFF" d="M578.8,653.1c-29.2-14.6-52.8-2.8-52.8,26.4c0,29.2,23.7,64.6,52.8,79.2
			c29.2,14.6,52.8,2.8,52.8-26.4C631.6,703.2,608,667.7,578.8,653.1z M578.8,752.4c-25.7-12.8-46.5-44-46.5-69.7
			c0-25.7,20.8-36.1,46.5-23.2s46.5,44,46.5,69.7C625.3,754.8,604.5,765.2,578.8,752.4z"/>
		<g opacity="0.5">
			<path d="M575,655.4l8.5,4.2l-4.2-6.3c-0.1-0.1-0.2-0.1-0.4-0.2c-2.6-1.3-5.1-2.3-7.6-3.2L575,655.4z"/>
			<path d="M583.4,756.8l-8.5-4.2l3.2,5.8c0.2,0.1,0.5,0.3,0.7,0.4c2.5,1.2,5,2.3,7.4,3.2L583.4,756.8z"/>
			<path d="M551.2,651.9l7.3-0.6l-5.8-4.4c-0.1,0-0.2,0-0.3,0c-2.2,0.2-4.3,0.6-6.3,1.1L551.2,651.9z"/>
			<path d="M607.1,759.8l-7.3,0.6l4.8,4.5c0.2,0,0.4,0,0.6,0c2.2-0.2,4.2-0.5,6.1-1.1L607.1,759.8z"/>
			<path d="M534.7,662.9l4.2-5.2l-5.8-1.3c-0.1,0.1-0.1,0.1-0.2,0.2c-1.3,1.6-2.4,3.3-3.3,5.2L534.7,662.9z"/>
			<path d="M623.1,748.3l-4.2,5.2l5.2,2c0.1-0.1,0.3-0.3,0.4-0.4c1.2-1.5,2.3-3.2,3.2-5L623.1,748.3z"/>
			<path d="M530.3,685.4V677l-4.2,2.1c0,0.1,0,0.2,0,0.4c0,2.6,0.2,5.2,0.5,7.8L530.3,685.4z"/>
			<path d="M627.5,725.5v8.5l4.2-1.1c0-0.2,0-0.5,0-0.7c0-2.5-0.2-5-0.5-7.6L627.5,725.5z"/>
			<path d="M538.7,713.4l-4.2-9.4l-1.5,5c0.1,0.1,0.1,0.3,0.2,0.4c1.3,2.9,2.7,5.7,4.2,8.4L538.7,713.4z"/>
			<path d="M618.7,697.5l4.2,9.4l2.1-3.8c-0.1-0.3-0.2-0.5-0.3-0.8c-1.2-2.8-2.6-5.5-4.1-8.2L618.7,697.5z"/>
			<path d="M557.9,739.4l-7.3-7.9l1.5,6.5c0.1,0.1,0.2,0.2,0.3,0.3c2.2,2.4,4.5,4.6,6.8,6.7L557.9,739.4z"/>
			<path d="M599.2,671.7l7.3,7.9l-0.6-5.5c-0.2-0.2-0.4-0.5-0.6-0.7c-2.2-2.3-4.4-4.5-6.6-6.5L599.2,671.7z"/>
		</g>
		<g opacity="0.5">
			<path d="M570.5,635.4c-0.7,0.3-1.4,0.6-2.1,1l-6.9,3.4l-0.8,1.3l-14.6,6.9c2-0.6,4-0.9,6.3-1.1c0.1,0,0.2,0,0.3,0l14.7-6.3
				L570.5,635.4z"/>
			<path d="M636,663.3c-1.6-1.9-3.3-3.7-5-5.5l-8.3,9.8l-24.1-0.8c2.3,2,4.5,4.2,6.6,6.5c0.2,0.2,0.4,0.5,0.6,0.7l21.2,0.5
				L636,663.3z"/>
			<path d="M578.8,653.1c0.1,0.1,0.2,0.1,0.4,0.2l23.4-2.3l5.7-10.6c-0.7-0.4-1.3-0.7-2-1c-1.5-0.7-3-1.4-4.4-2l-5.4,9.4l-25.2,3.2
				C573.7,650.8,576.3,651.8,578.8,653.1z"/>
			<path d="M645.9,736.7l11.4-5.5c0.9-2.8,1.4-6,1.7-9.4l-12.2,6.4l-15.6-3.6c0.3,2.6,0.5,5.1,0.5,7.6c0,0.2,0,0.5,0,0.7
				L645.9,736.7z"/>
			<path d="M627.7,750.1c-0.9,1.8-2,3.5-3.2,5c-0.1,0.1-0.3,0.3-0.4,0.4l3.4,0.5l9-4.5L627.7,750.1z"/>
			<path d="M624.9,703.1l20.4,4.3l10.4-9.1c-1-3.2-2.2-6.3-3.6-9.5l-10.4,8.7l-21.2-3.4c1.5,2.7,2.9,5.4,4.1,8.2
				C624.7,702.5,624.8,702.8,624.9,703.1z"/>
		</g>
	</g>
</g>
<g>
	<polygon fill="#FF9900" points="661.9,696.8 634.3,652.4 581.6,626 553,632 521,648.1 630,712.9 630,731.9 662,715.9 662,696.8 	
		"/>
	<polygon opacity="0.11" points="602.3,668.5 549.6,642.1 521,648.1 630,712.9 	"/>
	<polygon opacity="0.1" points="581.6,626 553,632.1 521,648.1 549.6,642.1 	"/>
	<polygon opacity="0.1" points="661.9,696.8 634.3,652.4 602.3,668.5 629.8,712.9 	"/>
	<polygon opacity="0.29" points="662,696.8 662,715.9 630,731.9 630,712.9 	"/>
</g>
<g>
	<polygon fill="#FF9900" points="330,551 230,601 230,629 530,779 630,729 630,701 	"/>
	<polygon opacity="0.11" points="230,629 230,601 530,751 530,779 	"/>
	<polygon opacity="0.29" points="630,729 630,701 530,751 530,779 	"/>
</g>
<g>
	<path fill="#2D3134" d="M249.2,621.8c-12.5-6.2-23.7-6.7-31.7-2.4l-22.9,11.5c-7.7,4.1-12.5,12.6-12.5,24.5
		c0,24.4,19.8,54.1,44.2,66.3c13.4,6.7,25.4,6.7,33.5,1.4l18.6-9.3c9.2-3.5,15-12.4,15-25.7C293.4,663.7,273.6,634,249.2,621.8z"/>
	<path opacity="0.11" d="M270.4,699.7c0,24.4-19.8,34.3-44.2,22.1c-24.4-12.2-44.2-41.9-44.2-66.3s19.8-34.3,44.2-22.1
		C250.6,645.6,270.4,675.3,270.4,699.7z"/>
	<path opacity="0.1" fill="#FFFFFF" d="M228.2,632.3c-13.3-6.6-25.2-6.7-33.3-1.5c7.7-2.5,17.5-1.4,28.2,3.9
		c24.4,12.2,44.2,41.9,44.2,66.3c0,11.1-4.1,19.2-10.9,23.6c9.8-3.2,16-12.3,16-26C272.4,674.2,252.6,644.5,228.2,632.3z"/>
	<path fill="#FF9900" d="M247.9,688.4c0,12-9.7,16.8-21.7,10.8s-21.7-20.5-21.7-32.5s9.7-16.8,21.7-10.8S247.9,676.4,247.9,688.4z"
		/>
	<path fill="#FF9900" d="M246.1,687.5c0,11-8.9,15.4-19.9,9.9s-19.9-18.8-19.9-29.8c0-11,8.9-15.4,19.9-9.9
		C237.2,663.2,246.1,676.5,246.1,687.5z"/>
	<path fill="#FF9900" d="M246.1,687.5c0,11-8.9,15.4-19.9,9.9s-19.9-18.8-19.9-29.8c0-11,8.9-15.4,19.9-9.9
		C237.2,663.2,246.1,676.5,246.1,687.5z"/>
	<path opacity="0.29" d="M246.1,687.5c0,11-8.9,15.4-19.9,9.9s-19.9-18.8-19.9-29.8c0-11,8.9-15.4,19.9-9.9
		C237.2,663.2,246.1,676.5,246.1,687.5z"/>
	<path opacity="0.15" d="M226.2,657.7c-11-5.5-19.9-1-19.9,9.9c0,5.9,2.6,12.6,6.7,18.3l28.1-14
		C237.5,665.9,232.1,660.7,226.2,657.7z"/>
	<path fill="#FF9900" d="M230,660l-5.2,2.8c-2.4,1.1-4.4,2.9-4.4,6.5c0,6,4.8,13.3,10.8,16.2c2.8,1.4,5.3,1.6,7.2,0.8l7.1-3.4
		C243.9,674.4,237.8,665.3,230,660z"/>
	<path opacity="0.29" d="M230,660l-5.2,2.8c-2.4,1.1-4.4,2.9-4.4,6.5c0,6,4.8,13.3,10.8,16.2c2.8,1.4,5.3,1.6,7.2,0.8l7.1-3.4
		C243.9,674.4,237.8,665.3,230,660z"/>
	<path opacity="0.29" d="M258.3,663.3c7.5,11.7,12.1,24.6,12.1,36.4c0,11-4,19.1-10.7,23.5l18.6-9.3c9.2-3.5,15-12.4,15-25.7
		c0-11.7-4.6-24.7-12-36.3L258.3,663.3z"/>
	<path fill="#FF9900" d="M242.1,680.1c0,6-4.8,8.4-10.8,5.4s-10.8-10.3-10.8-16.2s4.8-8.4,10.8-5.4S242.1,674.1,242.1,680.1z"/>
	<g opacity="0.5">
		<g>
			<g>
				<path d="M233.1,668.5c0,1-0.8,1.4-1.8,0.9c-1-0.5-1.8-1.7-1.8-2.7s0.8-1.4,1.8-0.9C232.3,666.3,233.1,667.5,233.1,668.5z"/>
			</g>
			<g>
				<path d="M233.1,682.6c0,1-0.8,1.4-1.8,0.9c-1-0.5-1.8-1.7-1.8-2.7c0-1,0.8-1.4,1.8-0.9C232.3,680.5,233.1,681.6,233.1,682.6z"/>
			</g>
			<g>
				<path d="M227.5,666.5c0.7,1,0.7,2.2,0,2.5s-1.8-0.2-2.5-1.2s-0.7-2.2,0-2.5S226.8,665.5,227.5,666.5z"/>
			</g>
			<g>
				<path d="M237.5,681.5c0.7,1,0.7,2.2,0,2.5c-0.7,0.3-1.8-0.2-2.5-1.2s-0.7-2.2,0-2.5C235.7,679.9,236.8,680.5,237.5,681.5z"/>
			</g>
			<g>
				<path d="M224.2,669.4c1,0.5,1.8,1.7,1.8,2.7c0,1-0.8,1.4-1.8,0.9c-1-0.5-1.8-1.7-1.8-2.7C222.4,669.3,223.2,668.9,224.2,669.4z"
					/>
			</g>
			<g>
				<path d="M238.4,676.4c1,0.5,1.8,1.7,1.8,2.7s-0.8,1.4-1.8,0.9c-1-0.5-1.8-1.7-1.8-2.7C236.6,676.3,237.4,675.9,238.4,676.4z"/>
			</g>
			<g>
				<path d="M225,675.3c0.7-0.3,1.8,0.2,2.5,1.2s0.7,2.2,0,2.5s-1.8-0.2-2.5-1.2S224.3,675.6,225,675.3z"/>
			</g>
			<g>
				<path d="M235,670.3c0.7-0.3,1.8,0.2,2.5,1.2s0.7,2.2,0,2.5c-0.7,0.3-1.8-0.2-2.5-1.2S234.3,670.6,235,670.3z"/>
			</g>
		</g>
	</g>
	<g>
		<path opacity="0.1" fill="#FFFFFF" d="M226.2,633.4c-24.4-12.2-44.2-2.3-44.2,22.1s19.8,54.1,44.2,66.3
			c24.4,12.2,44.2,2.3,44.2-22.1C270.4,675.3,250.6,645.6,226.2,633.4z M226.2,716.5c-21.5-10.7-38.9-36.9-38.9-58.3
			c0-21.5,17.4-30.2,38.9-19.5s38.9,36.9,38.9,58.3S247.7,727.2,226.2,716.5z"/>
		<g opacity="0.5">
			<path d="M223,635.3l7.1,3.5l-3.5-5.3c-0.1-0.1-0.2-0.1-0.3-0.2c-2.1-1.1-4.3-2-6.3-2.7L223,635.3z"/>
			<path d="M230,720.2l-7.1-3.5l2.6,4.8c0.2,0.1,0.4,0.2,0.6,0.3c2.1,1,4.1,1.9,6.2,2.6L230,720.2z"/>
			<path d="M203.1,632.4l6.1-0.5l-4.8-3.7c-0.1,0-0.2,0-0.3,0c-1.9,0.1-3.6,0.5-5.2,0.9L203.1,632.4z"/>
			<path d="M249.8,722.7l-6.1,0.5l4,3.8c0.2,0,0.4,0,0.5,0c1.8-0.1,3.5-0.5,5.1-0.9L249.8,722.7z"/>
			<path d="M189.3,641.5l3.5-4.4l-4.8-1.1c-0.1,0.1-0.1,0.1-0.2,0.2c-1.1,1.3-2,2.8-2.8,4.3L189.3,641.5z"/>
			<path d="M263.3,713.1l-3.5,4.4l4.4,1.7c0.1-0.1,0.2-0.2,0.3-0.4c1-1.3,1.9-2.7,2.7-4.2L263.3,713.1z"/>
			<path d="M185.6,660.4v-7.1l-3.5,1.8c0,0.1,0,0.2,0,0.3c0,2.1,0.2,4.3,0.5,6.5L185.6,660.4z"/>
			<path d="M266.9,694v7.1l3.5-0.9c0-0.2,0-0.4,0-0.6c0-2.1-0.2-4.2-0.4-6.4L266.9,694z"/>
			<path d="M192.6,683.8l-3.5-7.9l-1.3,4.2c0,0.1,0.1,0.2,0.1,0.3c1.1,2.4,2.3,4.7,3.6,7L192.6,683.8z"/>
			<path d="M259.5,670.5l3.5,7.9l1.7-3.2c-0.1-0.2-0.2-0.4-0.3-0.7c-1-2.3-2.2-4.6-3.5-6.8L259.5,670.5z"/>
			<path d="M208.7,705.6l-6.1-6.6l1.3,5.5c0.1,0.1,0.2,0.2,0.3,0.3c1.9,2,3.8,3.9,5.7,5.6L208.7,705.6z"/>
			<path d="M243.2,648.9l6.1,6.6l-0.5-4.6c-0.2-0.2-0.3-0.4-0.5-0.6c-1.8-1.9-3.7-3.8-5.5-5.5L243.2,648.9z"/>
		</g>
		<g opacity="0.5">
			<path d="M219.2,618.6c-0.6,0.3-1.2,0.5-1.8,0.8l-5.7,2.9l-0.6,1.1l-12.2,5.7c1.6-0.5,3.4-0.8,5.2-0.9c0.1,0,0.2,0,0.3,0l12.3-5.2
				L219.2,618.6z"/>
			<path d="M274,641.9c-1.3-1.6-2.7-3.1-4.2-4.6l-6.9,8.2l-20.2-0.7c1.9,1.7,3.7,3.5,5.5,5.5c0.2,0.2,0.3,0.4,0.5,0.6l17.7,0.4
				L274,641.9z"/>
			<path d="M226.2,633.4c0.1,0.1,0.2,0.1,0.3,0.2l19.6-1.9l4.8-8.9c-0.6-0.3-1.1-0.6-1.7-0.9c-1.3-0.6-2.5-1.2-3.7-1.7l-4.5,7.8
				l-21,2.7C221.9,631.4,224.1,632.3,226.2,633.4z"/>
			<path d="M282.3,703.4l9.6-4.6c0.7-2.4,1.2-5,1.4-7.8l-10.2,5.3l-13.1-3c0.3,2.2,0.4,4.3,0.4,6.4c0,0.2,0,0.4,0,0.6L282.3,703.4z"
				/>
			<path d="M267.1,714.5c-0.8,1.5-1.7,2.9-2.7,4.2c-0.1,0.1-0.2,0.2-0.3,0.4l2.9,0.4l7.6-3.8L267.1,714.5z"/>
			<path d="M264.8,675.2l17.1,3.6l8.7-7.6c-0.8-2.6-1.9-5.3-3-7.9l-8.7,7.3l-17.8-2.9c1.2,2.2,2.4,4.5,3.5,6.8
				C264.6,674.7,264.7,675,264.8,675.2z"/>
		</g>
	</g>
</g>
<g>
	<polygon fill="#FF9900" points="230,598 188,619 188,625 252,657 294,636 294,630 	"/>
	<polygon opacity="0.11" points="188,625 188,619 252,651 252,657 	"/>
	<polygon opacity="0.29" points="294,636 294,630 252,651 252,657 	"/>
</g>
<g>
	<polygon fill="#FF9900" points="294,630 252,651 252,657 291,701 333,680 333,674 	"/>
	<polygon opacity="0.11" points="252,657 252,651 291,695 291,701 	"/>
	<polygon opacity="0.29" points="333,680 333,674 291,695 291,701 	"/>
</g>
<g>
	<polygon fill="#FF9900" points="333,680 291,700.9 291,706.9 389,755.9 431,735 431,729 	"/>
	<polygon opacity="0.11" points="291,706.9 291,700.9 389,749.9 389,755.9 	"/>
	<polygon fill="#FF9900" points="421,739.9 421,698 389,714 389,755.9 	"/>
	<polygon opacity="0.29" points="421,739.9 421,698 389,714 389,755.9 	"/>
</g>
<g>
	<path fill="#2D3134" d="M474.3,705.3c-14.9-7.4-28.3-8-37.9-2.9L409,716.2c-9.2,4.9-15,15-15,29.3c0,29.2,23.7,64.6,52.8,79.2
		c16,8,30.4,8,40,1.6l22.3-11.1c11-4.2,18-14.9,18-30.7C527.1,755.4,503.5,719.9,474.3,705.3z"/>
	<path opacity="0.11" d="M499.6,798.3c0,29.2-23.7,41-52.8,26.4c-29.2-14.6-52.8-50.1-52.8-79.2c0-29.2,23.7-41,52.8-26.4
		C476,733.7,499.6,769.2,499.6,798.3z"/>
	<path opacity="0.1" fill="#FFFFFF" d="M449.2,717.8c-15.9-7.9-30.1-8-39.8-1.8c9.1-3,20.9-1.7,33.7,4.7
		c29.2,14.6,52.8,50.1,52.8,79.2c0,13.3-4.9,23-13,28.2c11.7-3.9,19.1-14.8,19.1-31.1C502,767.8,478.4,732.4,449.2,717.8z"/>
	<path fill="#FF9900" d="M472.7,784.9c0,14.3-11.6,20.1-25.9,12.9c-14.3-7.1-25.9-24.5-25.9-38.8c0-14.3,11.6-20.1,25.9-12.9
		C461.1,753.2,472.7,770.6,472.7,784.9z"/>
	<path fill="#FF9900" d="M470.6,783.8c0,13.1-10.6,18.5-23.8,11.9c-13.1-6.6-23.8-22.5-23.8-35.7s10.6-18.5,23.8-11.9
		C460,754.7,470.6,770.7,470.6,783.8z"/>
	<path fill="#FF9900" d="M470.6,783.8c0,13.1-10.6,18.5-23.8,11.9c-13.1-6.6-23.8-22.5-23.8-35.7s10.6-18.5,23.8-11.9
		C460,754.7,470.6,770.7,470.6,783.8z"/>
	<path opacity="0.29" d="M470.6,783.8c0,13.1-10.6,18.5-23.8,11.9c-13.1-6.6-23.8-22.5-23.8-35.7s10.6-18.5,23.8-11.9
		C460,754.7,470.6,770.7,470.6,783.8z"/>
	<path opacity="0.15" d="M446.8,748.2c-13.1-6.6-23.8-1.2-23.8,11.9c0,7.1,3.1,15,8.1,21.9l33.5-16.8
		C460.3,758,453.9,751.7,446.8,748.2z"/>
	<path fill="#FF9900" d="M451.4,750.9l-6.2,3.3c-2.9,1.3-5.2,3.5-5.2,7.8c0,7.1,5.8,15.8,12.9,19.4c3.3,1.7,6.3,1.9,8.6,1l8.5-4.1
		C468,768.1,460.6,757.3,451.4,750.9z"/>
	<path opacity="0.29" d="M451.4,750.9l-6.2,3.3c-2.9,1.3-5.2,3.5-5.2,7.8c0,7.1,5.8,15.8,12.9,19.4c3.3,1.7,6.3,1.9,8.6,1l8.5-4.1
		C468,768.1,460.6,757.3,451.4,750.9z"/>
	<path opacity="0.29" d="M485.2,754.9c8.9,13.9,14.4,29.4,14.4,43.5c0,13.2-4.8,22.8-12.8,28l22.3-11.1c11-4.2,18-14.9,18-30.7
		c0-14-5.5-29.5-14.4-43.4L485.2,754.9z"/>
	<path fill="#FF9900" d="M465.8,774.9c0,7.1-5.8,10-12.9,6.5c-7.1-3.6-12.9-12.3-12.9-19.4s5.8-10,12.9-6.5
		C460,759.1,465.8,767.8,465.8,774.9z"/>
	<g opacity="0.5">
		<g>
			<g>
				<path d="M455,761.1c0,1.2-0.9,1.6-2.1,1.1c-1.2-0.6-2.1-2-2.1-3.2c0-1.2,0.9-1.6,2.1-1.1S455,759.9,455,761.1z"/>
			</g>
			<g>
				<path d="M455,778c0,1.2-0.9,1.6-2.1,1.1c-1.2-0.6-2.1-2-2.1-3.2c0-1.2,0.9-1.6,2.1-1.1S455,776.8,455,778z"/>
			</g>
			<g>
				<path d="M448.4,758.7c0.8,1.2,0.8,2.6,0,3s-2.2-0.3-3-1.5s-0.8-2.6,0-3C446.3,756.8,447.6,757.5,448.4,758.7z"/>
			</g>
			<g>
				<path d="M460.4,776.7c0.8,1.2,0.8,2.6,0,3s-2.2-0.3-3-1.5c-0.8-1.2-0.8-2.6,0-3S459.5,775.4,460.4,776.7z"/>
			</g>
			<g>
				<path d="M444.4,762.1c1.2,0.6,2.1,2,2.1,3.2c0,1.2-0.9,1.6-2.1,1.1c-1.2-0.6-2.1-2-2.1-3.2S443.3,761.5,444.4,762.1z"/>
			</g>
			<g>
				<path d="M461.4,770.6c1.2,0.6,2.1,2,2.1,3.2c0,1.2-0.9,1.6-2.1,1.1c-1.2-0.6-2.1-2-2.1-3.2C459.2,770.5,460.2,770,461.4,770.6z"
					/>
			</g>
			<g>
				<path d="M445.4,769.2c0.8-0.4,2.2,0.3,3,1.5c0.8,1.2,0.8,2.6,0,3s-2.2-0.3-3-1.5S444.6,769.6,445.4,769.2z"/>
			</g>
			<g>
				<path d="M457.4,763.2c0.8-0.4,2.2,0.3,3,1.5c0.8,1.2,0.8,2.6,0,3s-2.2-0.3-3-1.5S456.6,763.6,457.4,763.2z"/>
			</g>
		</g>
	</g>
	<g>
		<path opacity="0.1" fill="#FFFFFF" d="M446.8,719.1c-29.2-14.6-52.8-2.8-52.8,26.4c0,29.2,23.7,64.6,52.8,79.2
			c29.2,14.6,52.8,2.8,52.8-26.4C499.6,769.2,476,733.7,446.8,719.1z M446.8,818.4c-25.7-12.8-46.5-44-46.5-69.7
			c0-25.7,20.8-36.1,46.5-23.2c25.7,12.8,46.5,44,46.5,69.7C493.3,820.8,472.5,831.2,446.8,818.4z"/>
		<g opacity="0.5">
			<path d="M443,721.4l8.5,4.2l-4.2-6.3c-0.1-0.1-0.2-0.1-0.4-0.2c-2.6-1.3-5.1-2.3-7.6-3.2L443,721.4z"/>
			<path d="M451.4,822.8l-8.5-4.2l3.2,5.8c0.2,0.1,0.5,0.3,0.7,0.4c2.5,1.2,5,2.3,7.4,3.2L451.4,822.8z"/>
			<path d="M419.2,717.9l7.3-0.6l-5.8-4.4c-0.1,0-0.2,0-0.3,0c-2.2,0.2-4.3,0.6-6.3,1.1L419.2,717.9z"/>
			<path d="M475.1,825.8l-7.3,0.6l4.8,4.5c0.2,0,0.4,0,0.6,0c2.2-0.2,4.2-0.5,6.1-1.1L475.1,825.8z"/>
			<path d="M402.7,728.9l4.2-5.2l-5.8-1.3c-0.1,0.1-0.1,0.1-0.2,0.2c-1.3,1.6-2.4,3.3-3.3,5.2L402.7,728.9z"/>
			<path d="M491.1,814.3l-4.2,5.2l5.2,2c0.1-0.1,0.3-0.3,0.4-0.4c1.2-1.5,2.3-3.2,3.2-5L491.1,814.3z"/>
			<path d="M398.3,751.4V743l-4.2,2.1c0,0.1,0,0.2,0,0.4c0,2.6,0.2,5.2,0.5,7.8L398.3,751.4z"/>
			<path d="M495.5,791.5v8.5l4.2-1.1c0-0.2,0-0.5,0-0.7c0-2.5-0.2-5-0.5-7.6L495.5,791.5z"/>
			<path d="M406.7,779.4l-4.2-9.4l-1.5,5c0.1,0.1,0.1,0.3,0.2,0.4c1.3,2.9,2.7,5.7,4.2,8.4L406.7,779.4z"/>
			<path d="M486.7,763.5l4.2,9.4l2.1-3.8c-0.1-0.3-0.2-0.5-0.3-0.8c-1.2-2.8-2.6-5.5-4.1-8.2L486.7,763.5z"/>
			<path d="M425.9,805.4l-7.3-7.9l1.5,6.5c0.1,0.1,0.2,0.2,0.3,0.3c2.2,2.4,4.5,4.6,6.8,6.7L425.9,805.4z"/>
			<path d="M467.2,737.7l7.3,7.9l-0.6-5.5c-0.2-0.2-0.4-0.5-0.6-0.7c-2.2-2.3-4.4-4.5-6.6-6.5L467.2,737.7z"/>
		</g>
		<g opacity="0.5">
			<path d="M438.5,701.4c-0.7,0.3-1.4,0.6-2.1,1l-6.9,3.4l-0.8,1.3l-14.6,6.9c2-0.6,4-0.9,6.3-1.1c0.1,0,0.2,0,0.3,0l14.7-6.3
				L438.5,701.4z"/>
			<path d="M504,729.3c-1.6-1.9-3.3-3.7-5-5.5l-8.3,9.8l-24.1-0.8c2.3,2,4.5,4.2,6.6,6.5c0.2,0.2,0.4,0.5,0.6,0.7l21.2,0.5
				L504,729.3z"/>
			<path d="M446.8,719.1c0.1,0.1,0.2,0.1,0.4,0.2l23.4-2.3l5.7-10.6c-0.7-0.4-1.3-0.7-2-1c-1.5-0.7-3-1.4-4.4-2l-5.4,9.4l-25.2,3.2
				C441.7,716.8,444.3,717.8,446.8,719.1z"/>
			<path d="M513.9,802.7l11.4-5.5c0.9-2.8,1.4-6,1.7-9.4l-12.2,6.4l-15.6-3.6c0.3,2.6,0.5,5.1,0.5,7.6c0,0.2,0,0.5,0,0.7
				L513.9,802.7z"/>
			<path d="M495.7,816.1c-0.9,1.8-2,3.5-3.2,5c-0.1,0.1-0.3,0.3-0.4,0.4l3.4,0.5l9-4.5L495.7,816.1z"/>
			<path d="M492.9,769.1l20.4,4.3l10.4-9.1c-1-3.2-2.2-6.3-3.6-9.5l-10.4,8.7l-21.2-3.4c1.5,2.7,2.9,5.4,4.1,8.2
				C492.7,768.5,492.8,768.8,492.9,769.1z"/>
		</g>
	</g>
</g>
<g>
	<polygon fill="#FF9900" points="529.9,762.8 502.3,718.4 449.6,692 421,698 389,714.1 417.6,708.1 470.3,734.5 498,778.9 
		498,797.9 530,781.9 530,762.8 	"/>
	<polygon opacity="0.1" points="449.6,692 421,698.1 389,714.1 417.6,708.1 	"/>
	<polygon opacity="0.1" points="529.9,762.8 502.3,718.4 470.3,734.5 497.8,778.9 	"/>
	<polygon opacity="0.29" points="530,762.8 530,781.9 498,797.9 498,778.9 	"/>
</g>
<g>
	<polygon fill="#FF9900" points="480,596 398,637 384,660 474,705 556,664 556,634 	"/>
	<polygon opacity="0.11" points="384,660 398,637 474,675 474,705 	"/>
	<polygon opacity="0.29" points="556,664 556,634 474,675 474,705 	"/>
</g>
<g>
	<g>
		<polygon fill="#FF9900" points="404,641 394,646 386,679 390,681 408,672 408,643 		"/>
		<polygon opacity="0.11" points="394,646 398,648 390,681 386,679 		"/>
		<polygon opacity="0.29" points="408,643 398,648 390,681 408,672 		"/>
	</g>
	<g>
		<polygon fill="#FF9900" points="404,650 398,653 398,657 432,674 434,665 		"/>
		<polygon opacity="0.11" points="398,653 398,657 432,674 432,670 		"/>
	</g>
	<g>
		<polygon fill="#FF9900" points="404,664 394,669 394,673 428,690 434,679 		"/>
		<polygon opacity="0.11" points="394,669 394,673 428,690 428,686 		"/>
	</g>
	<g>
		<polygon fill="#FF9900" points="442,660 432,665 424,698 428,700 446,691 446,662 		"/>
		<polygon opacity="0.11" points="432,665 436,667 428,700 424,698 		"/>
		<polygon opacity="0.29" points="446,662 436,667 428,700 446,691 		"/>
	</g>
</g>
<g>
	<g>
		<polygon fill="#FF9900" points="336,654 326,659 318,691 322,693 340,684 340,656 		"/>
		<polygon opacity="0.11" points="326,659 330,661 322,693 318,691 		"/>
		<polygon opacity="0.29" points="340,656 330,661 322,693 340,684 		"/>
	</g>
	<g>
		<polygon fill="#FF9900" points="336,663 330,666 330,670 364,687 366,678 		"/>
		<polygon opacity="0.11" points="330,666 330,670 364,687 364,683 		"/>
	</g>
	<g>
		<polygon fill="#FF9900" points="336,676 326,681 326,685 360,702 366,691 		"/>
		<polygon opacity="0.11" points="326,681 326,685 360,702 360,698 		"/>
	</g>
	<g>
		<polygon fill="#FF9900" points="374,673 364,678 356,710 360,712 378,703 378,675 		"/>
		<polygon opacity="0.11" points="364,678 368,680 360,712 356,710 		"/>
		<polygon opacity="0.29" points="378,675 368,680 360,712 378,703 		"/>
	</g>
</g>
<g>
	<g>
		<path fill="#FF9900" d="M306.5,553.7c-5,2.3-8.1,6.3-6.9,8.8l39.1,83.3c1.2,2.5,6.2,2.6,11.2,0.3c5-2.3,8.1-6.3,6.9-8.8
			l-39.1-83.3C316.5,551.4,311.5,551.3,306.5,553.7z"/>
		<path opacity="0.2" d="M310.7,562.7c-5,2.3-10,2.2-11.2-0.3l39.1,83.3c1.2,2.5,6.2,2.6,11.2,0.3c5-2.3,8.1-6.3,6.9-8.8l-39.1-83.3
			C318.8,556.4,315.7,560.4,310.7,562.7z"/>
	</g>
	<g>
		<path fill="#656565" d="M233.3,398c-3,1.4-4.9,3.8-4.2,5.3l74,157.5c0.7,1.5,3.7,1.6,6.7,0.2c3-1.4,4.9-3.8,4.2-5.3l-74-157.5
			C239.3,396.7,236.3,396.6,233.3,398z"/>
		<path opacity="0.2" d="M235.9,403.4c-3,1.4-6,1.3-6.7-0.2l74,157.5c0.7,1.5,3.7,1.6,6.7,0.2c3-1.4,4.9-3.8,4.2-5.3l-74-157.5
			C240.7,399.7,238.9,402,235.9,403.4z"/>
	</g>
</g>
<g>
	<g>
		<path fill="#FF9900" d="M374.4,521.7c-5,2.3-8.1,6.3-6.9,8.8l39.1,83.3c1.2,2.5,6.2,2.6,11.2,0.3c5-2.3,8.1-6.3,6.9-8.8
			l-39.1-83.3C384.4,519.4,379.4,519.3,374.4,521.7z"/>
		<path opacity="0.2" d="M378.7,530.7c-5,2.3-10,2.2-11.2-0.3l39.1,83.3c1.2,2.5,6.2,2.6,11.2,0.3c5-2.3,8.1-6.3,6.9-8.8l-39.1-83.3
			C386.8,524.4,383.7,528.4,378.7,530.7z"/>
	</g>
	<g>
		<path fill="#656565" d="M301.3,366c-3,1.4-4.9,3.8-4.2,5.3l74,157.5c0.7,1.5,3.7,1.6,6.7,0.2c3-1.4,4.9-3.8,4.2-5.3l-74-157.5
			C307.3,364.7,304.3,364.6,301.3,366z"/>
		<path opacity="0.2" d="M303.8,371.4c-3,1.4-6,1.3-6.7-0.2l74,157.5c0.7,1.5,3.7,1.6,6.7,0.2c3-1.4,4.9-3.8,4.2-5.3l-74-157.5
			C308.7,367.7,306.8,370,303.8,371.4z"/>
	</g>
</g>
<g>
	<polygon fill="#2D3134" points="235,402 315,363 315,352 309,349 229,388 229,399 	"/>
	<polygon opacity="0.29" points="315,352 315,363 235,402 235,391 	"/>
	<polygon opacity="0.11" points="229,388 229,399 235,402 235,391 	"/>
</g>
<g>
	<polygon fill="#2D3134" points="469,495 395,532 395,590 410,638 473,669 547,632 547,534 	"/>
	<polygon fill="#3399CC" points="416,631 403,590 403,542.6 469,575.6 469,657 	"/>
	<polygon fill="#2D3134" points="424,613 471,636 471,632 424,609 	"/>
	<polygon fill="#2D3134" points="422,550.6 422,636 428,639 428,553.6 	"/>
	<polygon opacity="0.1" points="461,571.6 403,590 416,631 468,601 469,600 469,575.6 	"/>
	<polygon opacity="0.1" fill="#FFFFFF" points="433.6,558.3 403,591 409,609 469,576.1 	"/>
	<polygon fill="#2D3134" points="547,541 547,534 473,571 473,578 	"/>
	<polygon opacity="0.15" points="423,552.6 423,579.6 439.8,605 469,627.1 469,575.6 	"/>
	<polygon opacity="0.11" points="395,532 395,590 410,638 473,669 473,662 473,571 	"/>
	<polygon opacity="0.29" points="547,632 547,534 473,571 473,669 	"/>
</g>
</svg>
