<?xml version="1.0" encoding="utf-8"?>
<!-- Generator: Adobe Illustrator 18.1.0, SVG Export Plug-In . SVG Version: 6.00 Build 0)  -->
<svg version="1.1" id="Layer_1" xmlns="http://www.w3.org/2000/svg" xmlns:xlink="http://www.w3.org/1999/xlink" x="0px" y="0px"
	 viewBox="0 0 1120 800" enable-background="new 0 0 1120 800" xml:space="preserve">
<g>
	<polygon opacity="0.3" points="20,278 151,213 1072,674 942,739 	"/>
	<g>
		<polygon fill="#2D3134" points="600,420 636,402 624,422 588,440 		"/>
		<polygon opacity="0.29" points="600,420 636,402 624,422 588,440 		"/>
		<g>
			<g>
				<path fill="#2D3134" d="M654.4,412.6c-7.5-3.7-14.2-4.2-19.2-1.9l0,0l-14,7l0,0c-5.4,2.4-8.8,7.9-8.8,15.9
					c0,15.5,12.5,34.3,28,42c7.6,3.8,14.6,4.2,19.6,1.8c0,0,13.9-6.9,15.1-7.6c4.5-2.7,7.3-7.9,7.3-15.2
					C682.4,439.2,669.8,420.4,654.4,412.6z"/>
				<path opacity="0.29" d="M660.3,477.2c2-1,13.7-6.8,14.8-7.5c4.5-2.7,7.3-7.9,7.3-15.2c0-6.2-2.1-13-5.5-19.3l-14,7
					c3.4,6.4,5.5,13.1,5.5,19.3C668.4,469.3,665.3,474.7,660.3,477.2z"/>
				<path fill="#999999" d="M658.3,456.4c0,9.9-8,13.9-17.9,8.9c-9.9-4.9-17.9-17-17.9-26.8s8-13.9,17.9-8.9
					C650.2,434.5,658.3,446.5,658.3,456.4z"/>
				<path opacity="0.15" d="M641.9,464.7c-9.9-4.9-17.9-17-17.9-26.8c0-4.9,1.9-8.3,5.1-9.9c-4,1.3-6.6,5-6.6,10.6
					c0,9.9,8,21.9,17.9,26.8c5,2.5,9.6,2.7,12.8,1C650.1,467.3,646.2,466.8,641.9,464.7z"/>
				<path fill="#2D3134" d="M649.3,450.6c0,4.1-3.3,5.8-7.5,3.7c-4.1-2.1-7.5-7.1-7.5-11.2s3.3-5.8,7.5-3.7
					C646,441.4,649.3,446.4,649.3,450.6z"/>
				<path opacity="0.29" d="M649.3,450.6c0,4.1-3.3,5.8-7.5,3.7c-4.1-2.1-7.5-7.1-7.5-11.2s3.3-5.8,7.5-3.7
					C646,441.4,649.3,446.4,649.3,450.6z"/>
				<path fill="#2D3134" d="M647.8,451.3c0,4.1-3.3,5.8-7.5,3.7c-4.1-2.1-7.5-7.1-7.5-11.2s3.3-5.8,7.5-3.7
					C644.5,442.1,647.8,447.1,647.8,451.3z"/>
				<path opacity="0.11" d="M668.4,461.6c0,15.5-12.5,21.7-28,14c-15.5-7.7-28-26.5-28-42c0-15.5,12.5-21.7,28-14
					C655.8,427.4,668.4,446.2,668.4,461.6z"/>
			</g>
		</g>
		<g>
			<g>
				<path fill="#2D3134" d="M635,422.1c-7.5-3.7-14.2-4.2-19.2-1.9l0,0l-14,7l0,0c-5.4,2.4-8.8,7.9-8.8,15.9c0,15.5,12.5,34.3,28,42
					c7.6,3.8,14.6,4.2,19.6,1.8c0,0,13.9-6.9,15.1-7.6c4.5-2.7,7.3-7.9,7.3-15.2C663,448.6,650.5,429.8,635,422.1z"/>
				<path opacity="0.29" d="M640.9,486.7c2-1,13.7-6.8,14.8-7.5c4.5-2.7,7.3-7.9,7.3-15.2c0-6.2-2.1-13-5.5-19.3l-14,7
					c3.4,6.4,5.5,13.1,5.5,19.3C649,478.7,645.9,484.1,640.9,486.7z"/>
				<path fill="#999999" d="M638.9,465.8c0,9.9-8,13.9-17.9,8.9c-9.9-4.9-17.9-17-17.9-26.8s8-13.9,17.9-8.9
					C630.9,444,638.9,456,638.9,465.8z"/>
				<path opacity="0.15" d="M622.5,474.2c-9.9-4.9-17.9-17-17.9-26.8c0-4.9,1.9-8.3,5.1-9.9c-4,1.3-6.6,5-6.6,10.6
					c0,9.9,8,21.9,17.9,26.8c5,2.5,9.6,2.7,12.8,1C630.7,476.8,626.8,476.3,622.5,474.2z"/>
				<path fill="#2D3134" d="M629.9,460c0,4.1-3.3,5.8-7.5,3.7c-4.1-2.1-7.5-7.1-7.5-11.2c0-4.1,3.3-5.8,7.5-3.7
					C626.6,450.9,629.9,455.9,629.9,460z"/>
				<path opacity="0.29" d="M629.9,460c0,4.1-3.3,5.8-7.5,3.7c-4.1-2.1-7.5-7.1-7.5-11.2c0-4.1,3.3-5.8,7.5-3.7
					C626.6,450.9,629.9,455.9,629.9,460z"/>
				<path fill="#2D3134" d="M628.5,460.7c0,4.1-3.3,5.8-7.5,3.7c-4.1-2.1-7.5-7.1-7.5-11.2c0-4.1,3.3-5.8,7.5-3.7
					S628.5,456.6,628.5,460.7z"/>
				<path opacity="0.11" d="M649,471.1c0,15.5-12.5,21.7-28,14c-15.5-7.7-28-26.5-28-42c0-15.5,12.5-21.7,28-14
					C636.5,436.8,649,455.6,649,471.1z"/>
			</g>
		</g>
		<polygon fill="#2D3134" points="600,420 636,402 672,420 636,438 		"/>
		<polygon fill="#2D3134" points="650,463 686,445 672,420 636,438 		"/>
		<polygon opacity="0.29" points="650,463 686,445 672,420 636,438 		"/>
	</g>
	<g>
		<polygon fill="#2D3134" points="658,449 694,431 682,451 646,469 		"/>
		<polygon opacity="0.29" points="658,449 694,431 682,451 646,469 		"/>
		<g>
			<g>
				<path fill="#2D3134" d="M712.4,441.6c-7.5-3.7-14.2-4.2-19.2-1.9l0,0l-14,7l0,0c-5.4,2.4-8.8,7.9-8.8,15.9
					c0,15.5,12.5,34.3,28,42c7.6,3.8,14.6,4.2,19.6,1.8c0,0,13.9-6.9,15.1-7.6c4.5-2.7,7.3-7.9,7.3-15.2
					C740.4,468.2,727.8,449.4,712.4,441.6z"/>
				<path opacity="0.29" d="M718.3,506.2c2-1,13.7-6.8,14.8-7.5c4.5-2.7,7.3-7.9,7.3-15.2c0-6.2-2.1-13-5.5-19.3l-14,7
					c3.4,6.4,5.5,13.1,5.5,19.3C726.4,498.3,723.3,503.7,718.3,506.2z"/>
				<path fill="#999999" d="M716.3,485.4c0,9.9-8,13.9-17.9,8.9c-9.9-4.9-17.9-17-17.9-26.8s8-13.9,17.9-8.9
					C708.2,463.5,716.3,475.5,716.3,485.4z"/>
				<path opacity="0.15" d="M699.9,493.7c-9.9-4.9-17.9-17-17.9-26.8c0-4.9,1.9-8.3,5.1-9.9c-4,1.3-6.6,5-6.6,10.6
					c0,9.9,8,21.9,17.9,26.8c5,2.5,9.6,2.7,12.8,1C708.1,496.3,704.2,495.8,699.9,493.7z"/>
				<path fill="#2D3134" d="M707.3,479.6c0,4.1-3.3,5.8-7.5,3.7c-4.1-2.1-7.5-7.1-7.5-11.2s3.3-5.8,7.5-3.7
					C704,470.4,707.3,475.4,707.3,479.6z"/>
				<path opacity="0.29" d="M707.3,479.6c0,4.1-3.3,5.8-7.5,3.7c-4.1-2.1-7.5-7.1-7.5-11.2s3.3-5.8,7.5-3.7
					C704,470.4,707.3,475.4,707.3,479.6z"/>
				<path fill="#2D3134" d="M705.8,480.3c0,4.1-3.3,5.8-7.5,3.7c-4.1-2.1-7.5-7.1-7.5-11.2s3.3-5.8,7.5-3.7
					C702.5,471.1,705.8,476.1,705.8,480.3z"/>
				<path opacity="0.11" d="M726.4,490.6c0,15.5-12.5,21.7-28,14c-15.5-7.7-28-26.5-28-42c0-15.5,12.5-21.7,28-14
					C713.8,456.4,726.4,475.2,726.4,490.6z"/>
			</g>
		</g>
		<g>
			<g>
				<path fill="#2D3134" d="M693,451.1c-7.5-3.7-14.2-4.2-19.2-1.9l0,0l-14,7l0,0c-5.4,2.4-8.8,7.9-8.8,15.9c0,15.5,12.5,34.3,28,42
					c7.6,3.8,14.6,4.2,19.6,1.8c0,0,13.9-6.9,15.1-7.6c4.5-2.7,7.3-7.9,7.3-15.2C721,477.6,708.5,458.8,693,451.1z"/>
				<path opacity="0.29" d="M698.9,515.7c2-1,13.7-6.8,14.8-7.5c4.5-2.7,7.3-7.9,7.3-15.2c0-6.2-2.1-13-5.5-19.3l-14,7
					c3.4,6.4,5.5,13.1,5.5,19.3C707,507.7,703.9,513.1,698.9,515.7z"/>
				<path fill="#999999" d="M696.9,494.8c0,9.9-8,13.9-17.9,8.9c-9.9-4.9-17.9-17-17.9-26.8s8-13.9,17.9-8.9
					C688.9,473,696.9,485,696.9,494.8z"/>
				<path opacity="0.15" d="M680.5,503.2c-9.9-4.9-17.9-17-17.9-26.8c0-4.9,1.9-8.3,5.1-9.9c-4,1.3-6.6,5-6.6,10.6
					c0,9.9,8,21.9,17.9,26.8c5,2.5,9.6,2.7,12.8,1C688.7,505.8,684.8,505.3,680.5,503.2z"/>
				<path fill="#2D3134" d="M687.9,489c0,4.1-3.3,5.8-7.5,3.7c-4.1-2.1-7.5-7.1-7.5-11.2c0-4.1,3.3-5.8,7.5-3.7
					C684.6,479.9,687.9,484.9,687.9,489z"/>
				<path opacity="0.29" d="M687.9,489c0,4.1-3.3,5.8-7.5,3.7c-4.1-2.1-7.5-7.1-7.5-11.2c0-4.1,3.3-5.8,7.5-3.7
					C684.6,479.9,687.9,484.9,687.9,489z"/>
				<path fill="#2D3134" d="M686.5,489.7c0,4.1-3.3,5.8-7.5,3.7c-4.1-2.1-7.5-7.1-7.5-11.2c0-4.1,3.3-5.8,7.5-3.7
					S686.5,485.6,686.5,489.7z"/>
				<path opacity="0.11" d="M707,500.1c0,15.5-12.5,21.7-28,14c-15.5-7.7-28-26.5-28-42c0-15.5,12.5-21.7,28-14
					C694.5,465.8,707,484.6,707,500.1z"/>
			</g>
		</g>
		<polygon fill="#2D3134" points="658,449 694,431 730,449 694,467 		"/>
		<polygon fill="#2D3134" points="708,492 744,474 730,449 694,467 		"/>
		<polygon opacity="0.29" points="708,492 744,474 730,449 694,467 		"/>
	</g>
	<g>
		<polygon fill="#06547A" points="749,463 739,468 739,499 801,530 811,525 811,494 		"/>
		<polygon opacity="0.11" points="739,468 739,499 801,530 801,499 		"/>
		<polygon opacity="0.29" points="811,494 811,525 801,530 801,499 		"/>
	</g>
	<g>
		<polygon fill="#999999" points="745,472 725,482 725,509 777,535 797,525 797,498 		"/>
		<polygon fill="#2D3134" points="759,479 755,477 735,487 735,514 739,516 739,489 		"/>
		<polygon fill="#2D3134" points="787,493 783,491 763,501 763,528 767,530 767,503 		"/>
		<polygon opacity="0.29" points="797,498 797,525 777,535 777,508 		"/>
		<polygon opacity="0.11" points="725,482 725,509 777,535 777,508 		"/>
	</g>
	<g>
		<polygon fill="#06547A" points="611,432 607,434 607,465 769,546 773,544 773,513 		"/>
		<polygon opacity="0.11" points="607,434 607,465 769,546 769,515 		"/>
		<polygon opacity="0.29" points="773,513 773,544 769,546 769,515 		"/>
	</g>
	<g>
		<polygon fill="#06547A" points="607,436 571,454 571,485 595,497 631,479 631,448 		"/>
		<polygon opacity="0.11" points="571,454 571,485 595,497 595,466 		"/>
		<polygon opacity="0.29" points="631,448 631,479 595,497 595,466 		"/>
	</g>
	<g>
		<polygon fill="#06547A" points="631,462 621,467 621,483 719,532 729,527 729,511 		"/>
		<polygon opacity="0.11" points="621,467 621,483 719,532 719,516 		"/>
		<polygon opacity="0.29" points="729,511 729,527 719,532 719,516 		"/>
	</g>
	<g>
		<path fill="#2D3134" d="M663.1,458.7c-9.4-4.7-43.3-9.3-43.3-9.3v2.6l19.5,18.2l-36.4-9.7c-3.3,7.1,3.5,16.7,13.4,21.7
			c12.9,6.5,33.9,6.5,46.8,0S676,465.2,663.1,458.7z"/>
		<path opacity="0.2" d="M663.1,458.7c-9.4-4.7-43.3-9.3-43.3-9.3v2.6l19.5,18.2l-36.4-9.7c-3.3,7.1,3.5,16.7,13.4,21.7
			c12.9,6.5,33.9,6.5,46.8,0S676,465.2,663.1,458.7z"/>
		<path fill="#2D3134" d="M619.8,449.4l19.5,18.2l-36.4-9.7c-3.3,7.1,3.5,16.7,13.4,21.7c12.9,6.5,33.9,6.5,46.8,0
			c12.9-6.5,12.9-16.9,0-23.4C653.2,451.2,634,447.8,619.8,449.4z"/>
	</g>
	<g>
		<polygon fill="#06547A" points="743,504 707,522 707,553 731,565 767,547 767,516 		"/>
		<polygon opacity="0.11" points="707,522 707,553 731,565 731,534 		"/>
		<polygon opacity="0.29" points="767,516 767,547 731,565 731,534 		"/>
	</g>
	<g>
		<polygon fill="#06547A" points="567,454 563,456 563,487 725,568 729,566 729,535 		"/>
		<polygon opacity="0.11" points="563,456 563,487 725,568 725,537 		"/>
		<polygon opacity="0.29" points="729,535 729,566 725,568 725,537 		"/>
	</g>
	<g>
		<polygon fill="#2D3134" points="507,467 543,449 531,469 495,487 		"/>
		<polygon opacity="0.29" points="507,467 543,449 531,469 495,487 		"/>
		<g>
			<g>
				<path fill="#2D3134" d="M561.4,459.6c-7.5-3.7-14.2-4.2-19.2-1.9l0,0l-14,7l0,0c-5.4,2.4-8.8,7.9-8.8,15.9
					c0,15.5,12.5,34.3,28,42c7.6,3.8,14.6,4.2,19.6,1.8c0,0,13.9-6.9,15.1-7.6c4.5-2.7,7.3-7.9,7.3-15.2
					C589.4,486.2,576.8,467.4,561.4,459.6z"/>
				<path opacity="0.29" d="M567.3,524.2c2-1,13.7-6.8,14.8-7.5c4.5-2.7,7.3-7.9,7.3-15.2c0-6.2-2.1-13-5.5-19.3l-14,7
					c3.4,6.4,5.5,13.1,5.5,19.3C575.4,516.3,572.3,521.7,567.3,524.2z"/>
				<path fill="#999999" d="M565.3,503.4c0,9.9-8,13.9-17.9,8.9c-9.9-4.9-17.9-17-17.9-26.8s8-13.9,17.9-8.9
					C557.2,481.5,565.3,493.5,565.3,503.4z"/>
				<path opacity="0.15" d="M548.9,511.7c-9.9-4.9-17.9-17-17.9-26.8c0-4.9,1.9-8.3,5.1-9.9c-4,1.3-6.6,5-6.6,10.6
					c0,9.9,8,21.9,17.9,26.8c5,2.5,9.6,2.7,12.8,1C557.1,514.3,553.2,513.8,548.9,511.7z"/>
				<path fill="#2D3134" d="M556.3,497.6c0,4.1-3.3,5.8-7.5,3.7c-4.1-2.1-7.5-7.1-7.5-11.2s3.3-5.8,7.5-3.7
					C553,488.4,556.3,493.4,556.3,497.6z"/>
				<path opacity="0.29" d="M556.3,497.6c0,4.1-3.3,5.8-7.5,3.7c-4.1-2.1-7.5-7.1-7.5-11.2s3.3-5.8,7.5-3.7
					C553,488.4,556.3,493.4,556.3,497.6z"/>
				<path fill="#2D3134" d="M554.8,498.3c0,4.1-3.3,5.8-7.5,3.7c-4.1-2.1-7.5-7.1-7.5-11.2s3.3-5.8,7.5-3.7
					C551.5,489.1,554.8,494.1,554.8,498.3z"/>
				<path opacity="0.11" d="M575.4,508.6c0,15.5-12.5,21.7-28,14c-15.5-7.7-28-26.5-28-42c0-15.5,12.5-21.7,28-14
					C562.8,474.4,575.4,493.2,575.4,508.6z"/>
			</g>
		</g>
		<g>
			<g>
				<path fill="#2D3134" d="M542,469.1c-7.5-3.7-14.2-4.2-19.2-1.9l0,0l-14,7l0,0c-5.4,2.4-8.8,7.9-8.8,15.9c0,15.5,12.5,34.3,28,42
					c7.6,3.8,14.6,4.2,19.6,1.8c0,0,13.9-6.9,15.1-7.6c4.5-2.7,7.3-7.9,7.3-15.2C570,495.6,557.5,476.8,542,469.1z"/>
				<path opacity="0.29" d="M547.9,533.7c2-1,13.7-6.8,14.8-7.5c4.5-2.7,7.3-7.9,7.3-15.2c0-6.2-2.1-13-5.5-19.3l-14,7
					c3.4,6.4,5.5,13.1,5.5,19.3C556,525.7,552.9,531.1,547.9,533.7z"/>
				<path fill="#999999" d="M545.9,512.8c0,9.9-8,13.9-17.9,8.9c-9.9-4.9-17.9-17-17.9-26.8s8-13.9,17.9-8.9
					C537.9,491,545.9,503,545.9,512.8z"/>
				<path opacity="0.15" d="M529.5,521.2c-9.9-4.9-17.9-17-17.9-26.8c0-4.9,1.9-8.3,5.1-9.9c-4,1.3-6.6,5-6.6,10.6
					c0,9.9,8,21.9,17.9,26.8c5,2.5,9.6,2.7,12.8,1C537.7,523.8,533.8,523.3,529.5,521.2z"/>
				<path fill="#2D3134" d="M536.9,507c0,4.1-3.3,5.8-7.5,3.7c-4.1-2.1-7.5-7.1-7.5-11.2c0-4.1,3.3-5.8,7.5-3.7
					C533.6,497.9,536.9,502.9,536.9,507z"/>
				<path opacity="0.29" d="M536.9,507c0,4.1-3.3,5.8-7.5,3.7c-4.1-2.1-7.5-7.1-7.5-11.2c0-4.1,3.3-5.8,7.5-3.7
					C533.6,497.9,536.9,502.9,536.9,507z"/>
				<path fill="#2D3134" d="M535.5,507.7c0,4.1-3.3,5.8-7.5,3.7s-7.5-7.1-7.5-11.2c0-4.1,3.3-5.8,7.5-3.7S535.5,503.6,535.5,507.7z"
					/>
				<path opacity="0.11" d="M556,518.1c0,15.5-12.5,21.7-28,14c-15.5-7.7-28-26.5-28-42c0-15.5,12.5-21.7,28-14
					C543.5,483.8,556,502.6,556,518.1z"/>
			</g>
		</g>
		<polygon fill="#2D3134" points="507,467 543,449 579,467 543,485 		"/>
		<polygon fill="#2D3134" points="557,510 593,492 579,467 543,485 		"/>
		<polygon opacity="0.29" points="557,510 593,492 579,467 543,485 		"/>
	</g>
	<g>
		<polygon fill="#2D3134" points="565,496 601,478 589,498 553,516 		"/>
		<polygon opacity="0.29" points="565,496 601,478 589,498 553,516 		"/>
		<g>
			<g>
				<path fill="#2D3134" d="M619.4,488.6c-7.5-3.7-14.2-4.2-19.2-1.9l0,0l-14,7l0,0c-5.4,2.4-8.8,7.9-8.8,15.9
					c0,15.5,12.5,34.3,28,42c7.6,3.8,14.6,4.2,19.6,1.8c0,0,13.9-6.9,15.1-7.6c4.5-2.7,7.3-7.9,7.3-15.2
					C647.4,515.2,634.8,496.4,619.4,488.6z"/>
				<path opacity="0.29" d="M625.3,553.2c2-1,13.7-6.8,14.8-7.5c4.5-2.7,7.3-7.9,7.3-15.2c0-6.2-2.1-13-5.5-19.3l-14,7
					c3.4,6.4,5.5,13.1,5.5,19.3C633.4,545.3,630.3,550.7,625.3,553.2z"/>
				<path fill="#999999" d="M623.3,532.4c0,9.9-8,13.9-17.9,8.9c-9.9-4.9-17.9-17-17.9-26.8c0-9.9,8-13.9,17.9-8.9
					C615.2,510.5,623.3,522.5,623.3,532.4z"/>
				<path opacity="0.15" d="M606.9,540.7c-9.9-4.9-17.9-17-17.9-26.8c0-4.9,1.9-8.3,5.1-9.9c-4,1.3-6.6,5-6.6,10.6
					c0,9.9,8,21.9,17.9,26.8c5,2.5,9.6,2.7,12.8,1C615.1,543.3,611.2,542.8,606.9,540.7z"/>
				<path fill="#2D3134" d="M614.3,526.6c0,4.1-3.3,5.8-7.5,3.7s-7.5-7.1-7.5-11.2s3.3-5.8,7.5-3.7
					C611,517.4,614.3,522.4,614.3,526.6z"/>
				<path opacity="0.29" d="M614.3,526.6c0,4.1-3.3,5.8-7.5,3.7s-7.5-7.1-7.5-11.2s3.3-5.8,7.5-3.7
					C611,517.4,614.3,522.4,614.3,526.6z"/>
				<path fill="#2D3134" d="M612.8,527.3c0,4.1-3.3,5.8-7.5,3.7s-7.5-7.1-7.5-11.2s3.3-5.8,7.5-3.7
					C609.5,518.1,612.8,523.1,612.8,527.3z"/>
				<path opacity="0.11" d="M633.4,537.6c0,15.5-12.5,21.7-28,14c-15.5-7.7-28-26.5-28-42c0-15.5,12.5-21.7,28-14
					C620.8,503.4,633.4,522.2,633.4,537.6z"/>
			</g>
		</g>
		<g>
			<g>
				<path fill="#2D3134" d="M600,498.1c-7.5-3.7-14.2-4.2-19.2-1.9l0,0l-14,7l0,0c-5.4,2.4-8.8,7.9-8.8,15.9c0,15.5,12.5,34.3,28,42
					c7.6,3.8,14.6,4.2,19.6,1.8c0,0,13.9-6.9,15.1-7.6c4.5-2.7,7.3-7.9,7.3-15.2C628,524.6,615.5,505.8,600,498.1z"/>
				<path opacity="0.29" d="M605.9,562.7c2-1,13.7-6.8,14.8-7.5c4.5-2.7,7.3-7.9,7.3-15.2c0-6.2-2.1-13-5.5-19.3l-14,7
					c3.4,6.4,5.5,13.1,5.5,19.3C614,554.7,610.9,560.1,605.9,562.7z"/>
				<path fill="#999999" d="M603.9,541.8c0,9.9-8,13.9-17.9,8.9c-9.9-4.9-17.9-17-17.9-26.8c0-9.9,8-13.9,17.9-8.9
					C595.9,520,603.9,532,603.9,541.8z"/>
				<path opacity="0.15" d="M587.5,550.2c-9.9-4.9-17.9-17-17.9-26.8c0-4.9,1.9-8.3,5.1-9.9c-4,1.3-6.6,5-6.6,10.6
					c0,9.9,8,21.9,17.9,26.8c5,2.5,9.6,2.7,12.8,1C595.7,552.8,591.8,552.3,587.5,550.2z"/>
				<path fill="#2D3134" d="M594.9,536c0,4.1-3.3,5.8-7.5,3.7c-4.1-2.1-7.5-7.1-7.5-11.2s3.3-5.8,7.5-3.7
					C591.6,526.9,594.9,531.9,594.9,536z"/>
				<path opacity="0.29" d="M594.9,536c0,4.1-3.3,5.8-7.5,3.7c-4.1-2.1-7.5-7.1-7.5-11.2s3.3-5.8,7.5-3.7
					C591.6,526.9,594.9,531.9,594.9,536z"/>
				<path fill="#2D3134" d="M593.5,536.7c0,4.1-3.3,5.8-7.5,3.7c-4.1-2.1-7.5-7.1-7.5-11.2s3.3-5.8,7.5-3.7
					C590.1,527.6,593.5,532.6,593.5,536.7z"/>
				<path opacity="0.11" d="M614,547.1c0,15.5-12.5,21.7-28,14c-15.5-7.7-28-26.5-28-42s12.5-21.7,28-14S614,531.6,614,547.1z"/>
			</g>
		</g>
		<polygon fill="#2D3134" points="565,496 601,478 637,496 601,514 		"/>
		<polygon fill="#2D3134" points="615,539 651,521 637,496 601,514 		"/>
		<polygon opacity="0.29" points="615,539 651,521 637,496 601,514 		"/>
	</g>
	<g>
		<polygon fill="#999999" points="661,514 641,524 641,551 693,577 713,567 713,540 		"/>
		<polygon fill="#2D3134" points="675,521 671,519 651,529 651,556 655,558 655,531 		"/>
		<polygon fill="#2D3134" points="703,535 699,533 679,543 679,570 683,572 683,545 		"/>
		<polygon opacity="0.29" points="713,540 713,567 693,577 693,550 		"/>
		<polygon opacity="0.11" points="641,524 641,551 693,577 693,550 		"/>
	</g>
	<g>
		<polygon fill="#06547A" points="632,522 622,527 622,558 684,589 694,584 694,553 		"/>
		<polygon opacity="0.11" points="622,527 622,558 684,589 684,558 		"/>
		<polygon opacity="0.29" points="694,553 694,584 684,589 684,558 		"/>
	</g>
	<g>
		<polygon fill="#06547A" points="812,494 684,558 684,589 708,601 836,537 836,506 		"/>
		<polygon opacity="0.11" points="684,558 684,589 708,601 708,570 		"/>
		<polygon opacity="0.29" points="836,506 836,537 708,601 708,570 		"/>
	</g>
</g>
<g>
	<g>
		<polygon fill="#2D3134" points="94,259 130,241 118,261 82,279 		"/>
		<polygon opacity="0.29" points="94,259 130,241 118,261 82,279 		"/>
		<g>
			<g>
				<path fill="#2D3134" d="M148.4,251.6c-7.5-3.7-14.2-4.2-19.2-1.9l0,0l-14,7l0,0c-5.4,2.4-8.8,7.9-8.8,15.9
					c0,15.5,12.5,34.3,28,42c7.6,3.8,14.6,4.2,19.6,1.8c0,0,13.9-6.9,15.1-7.6c4.5-2.7,7.3-7.9,7.3-15.2
					C176.4,278.2,163.8,259.4,148.4,251.6z"/>
				<path opacity="0.29" d="M154.3,316.2c2-1,13.7-6.8,14.8-7.5c4.5-2.7,7.3-7.9,7.3-15.2c0-6.2-2.1-13-5.5-19.3l-14,7
					c3.4,6.4,5.5,13.1,5.5,19.3C162.4,308.3,159.3,313.7,154.3,316.2z"/>
				<path fill="#999999" d="M152.3,295.4c0,9.9-8,13.9-17.9,8.9c-9.9-4.9-17.9-17-17.9-26.8s8-13.9,17.9-8.9
					C144.2,273.5,152.3,285.5,152.3,295.4z"/>
				<path opacity="0.15" d="M135.9,303.7c-9.9-4.9-17.9-17-17.9-26.8c0-4.9,1.9-8.3,5.1-9.9c-4,1.3-6.6,5-6.6,10.6
					c0,9.9,8,21.9,17.9,26.8c5,2.5,9.6,2.7,12.8,1C144.1,306.3,140.2,305.8,135.9,303.7z"/>
				<path fill="#2D3134" d="M143.3,289.6c0,4.1-3.3,5.8-7.5,3.7c-4.1-2.1-7.5-7.1-7.5-11.2s3.3-5.8,7.5-3.7
					C140,280.4,143.3,285.4,143.3,289.6z"/>
				<path opacity="0.29" d="M143.3,289.6c0,4.1-3.3,5.8-7.5,3.7c-4.1-2.1-7.5-7.1-7.5-11.2s3.3-5.8,7.5-3.7
					C140,280.4,143.3,285.4,143.3,289.6z"/>
				<path fill="#2D3134" d="M141.8,290.3c0,4.1-3.3,5.8-7.5,3.7c-4.1-2.1-7.5-7.1-7.5-11.2s3.3-5.8,7.5-3.7
					C138.5,281.1,141.8,286.1,141.8,290.3z"/>
				<path opacity="0.11" d="M162.4,300.6c0,15.5-12.5,21.7-28,14c-15.5-7.7-28-26.5-28-42s12.5-21.7,28-14
					C149.8,266.4,162.4,285.2,162.4,300.6z"/>
			</g>
		</g>
		<g>
			<g>
				<path fill="#2D3134" d="M129,261.1c-7.5-3.7-14.2-4.2-19.2-1.9l0,0l-14,7l0,0c-5.4,2.4-8.8,7.9-8.8,15.9c0,15.5,12.5,34.3,28,42
					c7.6,3.8,14.6,4.2,19.6,1.8c0,0,13.9-6.9,15.1-7.6c4.5-2.7,7.3-7.9,7.3-15.2C157,287.6,144.5,268.8,129,261.1z"/>
				<path opacity="0.29" d="M134.9,325.7c2-1,13.7-6.8,14.8-7.5c4.5-2.7,7.3-7.9,7.3-15.2c0-6.2-2.1-13-5.5-19.3l-14,7
					c3.4,6.4,5.5,13.1,5.5,19.3C143,317.7,139.9,323.1,134.9,325.7z"/>
				<path fill="#999999" d="M132.9,304.8c0,9.9-8,13.9-17.9,8.9c-9.9-4.9-17.9-17-17.9-26.8s8-13.9,17.9-8.9
					C124.9,283,132.9,295,132.9,304.8z"/>
				<path opacity="0.15" d="M116.5,313.2c-9.9-4.9-17.9-17-17.9-26.8c0-4.9,1.9-8.3,5.1-9.9c-4,1.3-6.6,5-6.6,10.6
					c0,9.9,8,21.9,17.9,26.8c5,2.5,9.6,2.7,12.8,1C124.7,315.8,120.8,315.3,116.5,313.2z"/>
				<path fill="#2D3134" d="M123.9,299c0,4.1-3.3,5.8-7.5,3.7c-4.1-2.1-7.5-7.1-7.5-11.2c0-4.1,3.3-5.8,7.5-3.7
					C120.6,289.9,123.9,294.9,123.9,299z"/>
				<path opacity="0.29" d="M123.9,299c0,4.1-3.3,5.8-7.5,3.7c-4.1-2.1-7.5-7.1-7.5-11.2c0-4.1,3.3-5.8,7.5-3.7
					C120.6,289.9,123.9,294.9,123.9,299z"/>
				<path fill="#2D3134" d="M122.5,299.7c0,4.1-3.3,5.8-7.5,3.7c-4.1-2.1-7.5-7.1-7.5-11.2c0-4.1,3.3-5.8,7.5-3.7
					C119.1,290.6,122.5,295.6,122.5,299.7z"/>
				<path opacity="0.11" d="M143,310.1c0,15.5-12.5,21.7-28,14c-15.5-7.7-28-26.5-28-42c0-15.5,12.5-21.7,28-14
					C130.5,275.8,143,294.6,143,310.1z"/>
			</g>
		</g>
		<polygon fill="#2D3134" points="94,259 130,241 166,259 130,277 		"/>
		<polygon fill="#2D3134" points="144,302 180,284 166,259 130,277 		"/>
		<polygon opacity="0.29" points="144,302 180,284 166,259 130,277 		"/>
	</g>
	<g>
		<polygon fill="#2D3134" points="153,289.4 189,271.4 177,291.4 141,309.4 		"/>
		<polygon opacity="0.29" points="153,289.4 189,271.4 177,291.4 141,309.4 		"/>
		<g>
			<g>
				<path fill="#2D3134" d="M207.4,282c-7.5-3.7-14.2-4.2-19.2-1.9l0,0l-14,7l0,0c-5.4,2.4-8.8,7.9-8.8,15.9c0,15.5,12.5,34.3,28,42
					c7.6,3.8,14.6,4.2,19.6,1.8c0,0,13.9-6.9,15.1-7.6c4.5-2.7,7.3-7.9,7.3-15.2C235.4,308.6,222.8,289.8,207.4,282z"/>
				<path opacity="0.29" d="M213.3,346.6c2-1,13.7-6.8,14.8-7.5c4.5-2.7,7.3-7.9,7.3-15.2c0-6.2-2.1-13-5.5-19.3l-14,7
					c3.4,6.4,5.5,13.1,5.5,19.3C221.4,338.7,218.3,344.1,213.3,346.6z"/>
				<path fill="#999999" d="M211.3,325.8c0,9.9-8,13.9-17.9,8.9c-9.9-4.9-17.9-17-17.9-26.8s8-13.9,17.9-8.9
					C203.2,303.9,211.3,315.9,211.3,325.8z"/>
				<path opacity="0.15" d="M194.9,334.1c-9.9-4.9-17.9-17-17.9-26.8c0-4.9,1.9-8.3,5.1-9.9c-4,1.3-6.6,5-6.6,10.6
					c0,9.9,8,21.9,17.9,26.8c5,2.5,9.6,2.7,12.8,1C203.1,336.7,199.2,336.2,194.9,334.1z"/>
				<path fill="#2D3134" d="M202.3,320c0,4.1-3.3,5.8-7.5,3.7c-4.1-2.1-7.5-7.1-7.5-11.2s3.3-5.8,7.5-3.7
					C199,310.8,202.3,315.8,202.3,320z"/>
				<path opacity="0.29" d="M202.3,320c0,4.1-3.3,5.8-7.5,3.7c-4.1-2.1-7.5-7.1-7.5-11.2s3.3-5.8,7.5-3.7
					C199,310.8,202.3,315.8,202.3,320z"/>
				<path fill="#2D3134" d="M200.8,320.7c0,4.1-3.3,5.8-7.5,3.7s-7.5-7.1-7.5-11.2c0-4.1,3.3-5.8,7.5-3.7
					C197.5,311.5,200.8,316.5,200.8,320.7z"/>
				<path opacity="0.11" d="M221.4,331c0,15.5-12.5,21.7-28,14c-15.5-7.7-28-26.5-28-42c0-15.5,12.5-21.7,28-14
					C208.8,296.8,221.4,315.6,221.4,331z"/>
			</g>
		</g>
		<g>
			<g>
				<path fill="#2D3134" d="M188,291.5c-7.5-3.7-14.2-4.2-19.2-1.9l0,0l-14,7l0,0c-5.4,2.4-8.8,7.9-8.8,15.9c0,15.5,12.5,34.3,28,42
					c7.6,3.8,14.6,4.2,19.6,1.8c0,0,13.9-6.9,15.1-7.6c4.5-2.7,7.3-7.9,7.3-15.2C216,318,203.5,299.2,188,291.5z"/>
				<path opacity="0.29" d="M193.9,356.1c2-1,13.7-6.8,14.8-7.5c4.5-2.7,7.3-7.9,7.3-15.2c0-6.2-2.1-13-5.5-19.3l-14,7
					c3.4,6.4,5.5,13.1,5.5,19.3C202,348.1,198.9,353.5,193.9,356.1z"/>
				<path fill="#999999" d="M191.9,335.3c0,9.9-8,13.9-17.9,8.9s-17.9-17-17.9-26.8c0-9.9,8-13.9,17.9-8.9
					C183.9,313.4,191.9,325.4,191.9,335.3z"/>
				<path opacity="0.15" d="M175.5,343.6c-9.9-4.9-17.9-17-17.9-26.8c0-4.9,1.9-8.3,5.1-9.9c-4,1.3-6.6,5-6.6,10.6
					c0,9.9,8,21.9,17.9,26.8c5,2.5,9.6,2.7,12.8,1C183.7,346.2,179.8,345.7,175.5,343.6z"/>
				<path fill="#2D3134" d="M182.9,329.4c0,4.1-3.3,5.8-7.5,3.7c-4.1-2.1-7.5-7.1-7.5-11.2c0-4.1,3.3-5.8,7.5-3.7
					C179.6,320.3,182.9,325.3,182.9,329.4z"/>
				<path opacity="0.29" d="M182.9,329.4c0,4.1-3.3,5.8-7.5,3.7c-4.1-2.1-7.5-7.1-7.5-11.2c0-4.1,3.3-5.8,7.5-3.7
					C179.6,320.3,182.9,325.3,182.9,329.4z"/>
				<path fill="#2D3134" d="M181.5,330.1c0,4.1-3.3,5.8-7.5,3.7c-4.1-2.1-7.5-7.1-7.5-11.2s3.3-5.8,7.5-3.7
					C178.1,321,181.5,326,181.5,330.1z"/>
				<path opacity="0.11" d="M202,340.5c0,15.5-12.5,21.7-28,14s-28-26.5-28-42c0-15.5,12.5-21.7,28-14S202,325,202,340.5z"/>
			</g>
		</g>
		<polygon fill="#2D3134" points="153,289.4 189,271.4 225,289.4 189,307.4 		"/>
		<polygon fill="#2D3134" points="203,332.4 239,314.4 225,289.4 189,307.4 		"/>
		<polygon opacity="0.29" points="203,332.4 239,314.4 225,289.4 189,307.4 		"/>
	</g>
	<g>
		<polygon fill="#2D3134" points="212,319 248,301 236,321 200,339 		"/>
		<polygon opacity="0.29" points="212,319 248,301 236,321 200,339 		"/>
		<g>
			<g>
				<path fill="#2D3134" d="M266.4,311.6c-7.5-3.7-14.2-4.2-19.2-1.9l0,0l-14,7l0,0c-5.4,2.4-8.8,7.9-8.8,15.9
					c0,15.5,12.5,34.3,28,42c7.6,3.8,14.6,4.2,19.6,1.8c0,0,13.9-6.9,15.1-7.6c4.5-2.7,7.3-7.9,7.3-15.2
					C294.4,338.2,281.8,319.4,266.4,311.6z"/>
				<path opacity="0.29" d="M272.3,376.2c2-1,13.7-6.8,14.8-7.5c4.5-2.7,7.3-7.9,7.3-15.2c0-6.2-2.1-13-5.5-19.3l-14,7
					c3.4,6.4,5.5,13.1,5.5,19.3C280.4,368.3,277.3,373.7,272.3,376.2z"/>
				<path fill="#999999" d="M270.3,355.4c0,9.9-8,13.9-17.9,8.9c-9.9-4.9-17.9-17-17.9-26.8s8-13.9,17.9-8.9
					C262.2,333.5,270.3,345.5,270.3,355.4z"/>
				<path opacity="0.15" d="M253.9,363.7c-9.9-4.9-17.9-17-17.9-26.8c0-4.9,1.9-8.3,5.1-9.9c-4,1.3-6.6,5-6.6,10.6
					c0,9.9,8,21.9,17.9,26.8c5,2.5,9.6,2.7,12.8,1C262.1,366.3,258.2,365.8,253.9,363.7z"/>
				<path fill="#2D3134" d="M261.3,349.6c0,4.1-3.3,5.8-7.5,3.7c-4.1-2.1-7.5-7.1-7.5-11.2s3.3-5.8,7.5-3.7
					C258,340.4,261.3,345.4,261.3,349.6z"/>
				<path opacity="0.29" d="M261.3,349.6c0,4.1-3.3,5.8-7.5,3.7c-4.1-2.1-7.5-7.1-7.5-11.2s3.3-5.8,7.5-3.7
					C258,340.4,261.3,345.4,261.3,349.6z"/>
				<path fill="#2D3134" d="M259.8,350.3c0,4.1-3.3,5.8-7.5,3.7c-4.1-2.1-7.5-7.1-7.5-11.2s3.3-5.8,7.5-3.7
					C256.5,341.1,259.8,346.1,259.8,350.3z"/>
				<path opacity="0.11" d="M280.4,360.6c0,15.5-12.5,21.7-28,14c-15.5-7.7-28-26.5-28-42s12.5-21.7,28-14
					C267.8,326.4,280.4,345.2,280.4,360.6z"/>
			</g>
		</g>
		<g>
			<g>
				<path fill="#2D3134" d="M247,321.1c-7.5-3.7-14.2-4.2-19.2-1.9l0,0l-14,7l0,0c-5.4,2.4-8.8,7.9-8.8,15.9c0,15.5,12.5,34.3,28,42
					c7.6,3.8,14.6,4.2,19.6,1.8c0,0,13.9-6.9,15.1-7.6c4.5-2.7,7.3-7.9,7.3-15.2C275,347.6,262.5,328.8,247,321.1z"/>
				<path opacity="0.29" d="M252.9,385.7c2-1,13.7-6.8,14.8-7.5c4.5-2.7,7.3-7.9,7.3-15.2c0-6.2-2.1-13-5.5-19.3l-14,7
					c3.4,6.4,5.5,13.1,5.5,19.3C261,377.7,257.9,383.1,252.9,385.7z"/>
				<path fill="#999999" d="M250.9,364.8c0,9.9-8,13.9-17.9,8.9c-9.9-4.9-17.9-17-17.9-26.8s8-13.9,17.9-8.9
					C242.9,343,250.9,355,250.9,364.8z"/>
				<path opacity="0.15" d="M234.5,373.2c-9.9-4.9-17.9-17-17.9-26.8c0-4.9,1.9-8.3,5.1-9.9c-4,1.3-6.6,5-6.6,10.6
					c0,9.9,8,21.9,17.9,26.8c5,2.5,9.6,2.7,12.8,1C242.7,375.8,238.8,375.3,234.5,373.2z"/>
				<path fill="#2D3134" d="M241.9,359c0,4.1-3.3,5.8-7.5,3.7c-4.1-2.1-7.5-7.1-7.5-11.2c0-4.1,3.3-5.8,7.5-3.7
					C238.6,349.9,241.9,354.9,241.9,359z"/>
				<path opacity="0.29" d="M241.9,359c0,4.1-3.3,5.8-7.5,3.7c-4.1-2.1-7.5-7.1-7.5-11.2c0-4.1,3.3-5.8,7.5-3.7
					C238.6,349.9,241.9,354.9,241.9,359z"/>
				<path fill="#2D3134" d="M240.5,359.7c0,4.1-3.3,5.8-7.5,3.7c-4.1-2.1-7.5-7.1-7.5-11.2c0-4.1,3.3-5.8,7.5-3.7
					C237.1,350.6,240.5,355.6,240.5,359.7z"/>
				<path opacity="0.11" d="M261,370.1c0,15.5-12.5,21.7-28,14c-15.5-7.7-28-26.5-28-42c0-15.5,12.5-21.7,28-14
					C248.5,335.8,261,354.6,261,370.1z"/>
			</g>
		</g>
		<polygon fill="#2D3134" points="212,319 248,301 284,319 248,337 		"/>
		<polygon fill="#2D3134" points="262,362 298,344 284,319 248,337 		"/>
		<polygon opacity="0.29" points="262,362 298,344 284,319 248,337 		"/>
	</g>
	<g>
		<polygon fill="#2D3134" points="160,160 20,230 20,240 62,261 82,261 222,191 		"/>
		<polygon opacity="0.11" points="20,230 20,240 62,261 82,261 		"/>
	</g>
	<g>
		<polygon fill="#2D3134" points="408,284 268,354 288,374 472,466 492,466 632,396 		"/>
		<polygon opacity="0.11" points="268,354 288,374 472,466 492,466 		"/>
	</g>
	<g>
		<polygon fill="#2D3134" points="160,150 20,220 20,230 640,540 780,470 780,460 		"/>
		<polygon opacity="0.11" points="20,220 20,230 640,540 640,530 		"/>
		<polygon opacity="0.15" points="140,160 132,164 752,474 760,470 		"/>
		<polygon opacity="0.15" points="48,206 40,210 660,520 668,516 		"/>
		<polygon opacity="0.29" points="780,460 780,470 640,540 640,530 		"/>
	</g>
	<g>
		<polygon fill="#2D3134" points="752,474 668,516 668,525.9 732,558 816,516 816,506 		"/>
		<polygon opacity="0.11" points="668,516 668,526 732,558 732,548 		"/>
		<polygon opacity="0.29" points="816,506 816,516 732,558 732,548 		"/>
	</g>
</g>
<g>
	<g>
		<polygon fill="#539B00" points="160,10 20,80 20,230 640,540 780,470 780,320 		"/>
		<polygon opacity="0.11" points="20,80 20,230 640,540 640,390 		"/>
		<polygon opacity="0.29" points="780,320 780,470 640,540 640,390 		"/>
	</g>
	<polygon opacity="0.15" points="760,460 720,480 720,370 760,350 	"/>
	<polygon opacity="0.15" points="700,490 660,510 660,400 700,380 	"/>
	<polygon opacity="0.15" points="50,115 40,110 40,220 50,225 	"/>
	<polygon opacity="0.15" points="70,125 60,120 60,230 70,235 	"/>
	<polygon opacity="0.15" points="90,135 80,130 80,240 90,245 	"/>
	<polygon opacity="0.15" points="110,145 100,140 100,250 110,255 	"/>
	<polygon opacity="0.15" points="130,155 120,150 120,260 130,265 	"/>
	<polygon opacity="0.15" points="150,165 140,160 140,270 150,275 	"/>
	<polygon opacity="0.15" points="170,175 160,170 160,280 170,285 	"/>
	<polygon opacity="0.15" points="190,185 180,180 180,290 190,295 	"/>
	<polygon opacity="0.15" points="210,195 200,190 200,300 210,305 	"/>
	<polygon opacity="0.15" points="230,205 220,200 220,310 230,315 	"/>
	<polygon opacity="0.15" points="250,215 240,210 240,320 250,325 	"/>
	<polygon opacity="0.15" points="270,225 260,220 260,330 270,335 	"/>
	<polygon opacity="0.15" points="290,235 280,230 280,340 290,345 	"/>
	<polygon opacity="0.15" points="310,245 300,240 300,350 310,355 	"/>
	<polygon opacity="0.15" points="330,255 320,250 320,360 330,365 	"/>
	<polygon opacity="0.15" points="350,265 340,260 340,370 350,375 	"/>
	<polygon opacity="0.15" points="370,275 360,270 360,380 370,385 	"/>
	<polygon opacity="0.15" points="390,285 380,280 380,390 390,395 	"/>
	<polygon opacity="0.15" points="410,295 400,290 400,400 410,405 	"/>
	<polygon opacity="0.15" points="430,305 420,300 420,410 430,415 	"/>
	<polygon opacity="0.15" points="450,315 440,310 440,420 450,425 	"/>
	<polygon opacity="0.15" points="470,325 460,320 460,430 470,435 	"/>
	<polygon opacity="0.15" points="490,335 480,330 480,440 490,445 	"/>
	<polygon opacity="0.15" points="510,345 500,340 500,450 510,455 	"/>
	<polygon opacity="0.15" points="530,355 520,350 520,460 530,465 	"/>
	<polygon opacity="0.15" points="550,365 540,360 540,470 550,475 	"/>
	<polygon opacity="0.15" points="570,375 560,370 560,480 570,485 	"/>
	<polygon opacity="0.15" points="590,385 580,380 580,490 590,495 	"/>
	<polygon opacity="0.15" points="610,395 600,390 600,500 610,505 	"/>
	<polygon opacity="0.15" points="630,405 620,400 620,510 630,515 	"/>
</g>
<g>
	<path fill="#2D3134" d="M965.3,521h-1v-30.7c0-1.1-0.6-2.1-1.5-2.7c-0.9-0.6-2.1-0.6-3-0.1l-2.3,1.1l-0.4-0.9l2.3-1.1
		c1.3-0.6,2.8-0.6,4,0.2c1.2,0.8,2,2.1,2,3.5V521z"/>
	<path fill="#2D3134" d="M959,496.6v20.9c0,1.9,2.1,3,3.6,1.9l0.5-0.4c2.5-1.8,4-4.7,4-7.7v-21c0-1.9-2.2-3-3.7-1.8l-0.8,0.6
		C960.4,490.9,959,493.7,959,496.6z"/>
	<path fill="#06547A" d="M801,317l-118,59v181l102,51l118-59V426c0-30.1-22.9-53.4-31.4-61L801,317z"/>
	<polygon opacity="0.29" points="785,485 785,608 903,549 903,426 	"/>
	<g>
		<path fill="#999999" d="M974,517c-7.2,0-13,2.9-13,6.5v49c0,3.6,5.8,6.5,13,6.5c7.2,0,13-2.9,13-6.5v-49
			C987,519.9,981.2,517,974,517z"/>
		<path opacity="0.2" d="M974,530c-7.2,0-13-2.9-13-6.5v49c0,3.6,5.8,6.5,13,6.5c7.2,0,13-2.9,13-6.5v-49
			C987,527.1,981.2,530,974,530z"/>
		<path fill="#999999" d="M974,570c-7.2,0-13-2.9-13-6.5v1c0,3.6,5.8,6.5,13,6.5c7.2,0,13-2.9,13-6.5v-1
			C987,567.1,981.2,570,974,570z"/>
		<path fill="#999999" d="M974,559.5c-7.2,0-13-2.9-13-6.5v1c0,3.6,5.8,6.5,13,6.5c7.2,0,13-2.9,13-6.5v-1
			C987,556.6,981.2,559.5,974,559.5z"/>
		<path fill="#999999" d="M974,549c-7.2,0-13-2.9-13-6.5v1c0,3.6,5.8,6.5,13,6.5c7.2,0,13-2.9,13-6.5v-1
			C987,546.1,981.2,549,974,549z"/>
		<path fill="#999999" d="M974,538.5c-7.2,0-13-2.9-13-6.5v1c0,3.6,5.8,6.5,13,6.5c7.2,0,13-2.9,13-6.5v-1
			C987,535.6,981.2,538.5,974,538.5z"/>
	</g>
	<g>
		<path fill="#2D3134" d="M914,432c-6.1,0-11,2.5-11,5.5v107c0,3,4.9,5.5,11,5.5s11-2.5,11-5.5v-107C925,434.5,920,432,914,432z"/>
		<ellipse opacity="0.8" cx="914" cy="437.5" rx="8.2" ry="3.4"/>
		<path fill="#2D3134" d="M933,565.4c0-1.8-1.4-3.9-3.2-4.8c-1.1-0.6-2.1-0.5-2.7,0.1c-2,0.7-4.1,0.4-5.9-0.7
			c-2.1-1.3-3.3-3.5-3.3-5.9V372.6h-7.9v181.5c0,5.2,2.6,9.9,7.1,12.7c2.4,1.5,5.1,2.2,7.8,2.2c2.3,0,4.5-0.5,6.7-1.6
			C931.6,567.4,933,566.6,933,565.4z"/>
		<path fill="#2D3134" d="M918.1,432.4v2.1c2.5,0.6,4.1,1.7,4.1,3c0,1.9-3.7,3.4-8.2,3.4s-8.2-1.5-8.2-3.4c0-1.3,1.7-2.4,4.1-3v-2.1
			c-4,0.8-6.9,2.8-6.9,5.1v107c0,3,4.9,5.5,11,5.5s11-2.5,11-5.5v-107C925,435.2,922.1,433.2,918.1,432.4z"/>
		<path opacity="0.2" d="M914,443c-6.1,0-11-2.5-11-5.5v107c0,3,4.9,5.5,11,5.5s11-2.5,11-5.5v-107C925,440.5,920,443,914,443z"/>
		<ellipse fill="#2D3134" cx="914" cy="372.6" rx="4" ry="2.6"/>
	</g>
	<polygon fill="#06547A" points="805,496 805,634 889,676 986,699 1034,675 1034,597 964,530 953,490 885,456 	"/>
	<path fill="#06547A" d="M1056,622c-6-13.3-28.5-23.3-41-25c-12.5-1.8-21.8,3.3-33,11s5.8,5.6,22,13.7c15.4,7.7,28.2,25.4,30.6,41.4
		l29.4-15C1064,648,1062,635.2,1056,622z"/>
	<path fill="#2D3134" d="M830,520.5v26.5c0,1.9,1.1,3.7,2.8,4.6l34.4,17.2c1.1,0.6,2.4-0.4,2.1-1.6l-3.5-15.8
		c-2.4-10.9-9.6-20.1-19.6-25.1l-14.1-7C831.1,518.7,830,519.4,830,520.5z"/>
	<path fill="#656565" d="M833.7,549.7c-1.1-0.5-1.7-1.6-1.7-2.8v-25.6l13.3,6.7c9.5,4.7,16.3,13.4,18.6,23.8l3.3,14.7L833.7,549.7z"
		/>
	<polygon fill="#2D3134" points="873,530 884,570 964,530 953,490 	"/>
	<polygon fill="#656565" points="876.6,536.2 953,498 961.6,528.9 885.3,567.1 	"/>
	<path fill="#2D3134" d="M705,429.1v15c0,1.8,1,3.5,2.7,4.3l57.6,28.8c2,1,4.3-1,3.5-3.1h0c-5-13.5-15-24.6-27.8-31l-32.3-16.2
		C707,426,705,427.2,705,429.1z"/>
	<path fill="#656565" d="M766.4,475.4c-0.1,0-0.2,0-0.2-0.1l-57.6-28.8c-1-0.5-1.6-1.4-1.6-2.5v-15c0-0.4,0.3-0.5,0.5-0.5
		c0.1,0,0.2,0,0.2,0.1l32.3,16.2c12.5,6.2,22,16.9,26.9,30c0,0.1,0.1,0.3,0,0.5C766.8,475.3,766.6,475.4,766.4,475.4L766.4,475.4z"
		/>
	<path fill="#2D3134" d="M707,473.2v16.7c0,2,1.2,3.9,3,4.8l19.5,9.7c1.6,0.8,3.6-0.4,3.6-2.2v-16.7c0-2-1.2-3.9-3-4.8l-19.5-9.7
		C708.9,470.2,707,471.4,707,473.2z"/>
	<path fill="#656565" d="M730.5,502.7c-0.1,0-0.1,0-0.2-0.1l-19.5-9.7c-1.2-0.6-1.9-1.7-1.9-3v-16.7c0-0.3,0.3-0.5,0.5-0.5
		c0.1,0,0.1,0,0.2,0.1l19.5,9.7c1.2,0.6,1.9,1.7,1.9,3v16.7c0,0.1,0,0.2-0.1,0.3C730.8,502.6,730.7,502.7,730.5,502.7L730.5,502.7z"
		/>
	<path fill="#2D3134" d="M848,434c0.2,1.7,0.6,3.6,0.9,5.4c0.4,2.2,2.8,3.3,4.8,2.4l29.2-14.6c1.3-0.7,2.1-2.1,1.8-3.6
		c-1.1-5.8-2.9-11.3-5.2-16.4c-0.8-1.7-2.8-2.4-4.5-1.6l-25.2,12.6c-1,0.5-1.7,1.5-1.8,2.6C847.5,424.5,847.3,429.3,848,434z"/>
	<path fill="#656565" d="M852.2,440.1c-0.6,0-1.2-0.4-1.3-1.1c-0.4-2-0.7-3.7-0.9-5.3c-0.5-3.7-0.5-8.1,0-12.8c0-0.4,0.3-0.8,0.7-1
		l25.2-12.6c0.2-0.1,0.4-0.1,0.6-0.1c0.5,0,1,0.3,1.2,0.8c2.4,5.3,4.1,10.6,5.1,15.9c0.1,0.6-0.2,1.2-0.7,1.5l-29.2,14.6
		C852.6,440,852.4,440.1,852.2,440.1L852.2,440.1z"/>
	<path fill="#2D3134" d="M840,437c-1.5-3.3-4.8-6.2-7.6-8.2c-1-0.7-2.3-0.8-3.4-0.3l-30.1,15c-1.6,0.8-2.3,2.7-1.5,4.4
		c2.1,4.6,3.8,9.6,4.9,14.8c0.5,2.1,2.8,3.2,4.7,2.3l33.3-16.7c1.3-0.7,2.1-2.1,1.8-3.6C841.8,442.3,841.1,439.4,840,437z"/>
	<path fill="#656565" d="M805.6,463.4c-0.5,0-1.1-0.3-1.3-1c-1.1-5.1-2.8-10.2-5.1-15.2c-0.3-0.7,0-1.4,0.6-1.8l30.1-15
		c0.2-0.1,0.4-0.1,0.6-0.1c0.3,0,0.5,0.1,0.8,0.2c3.5,2.5,5.9,5,6.9,7.4c0.9,2,1.6,4.4,2.1,7.3c0.1,0.6-0.2,1.2-0.7,1.4l-33.3,16.7
		C806,463.3,805.8,463.4,805.6,463.4L805.6,463.4z"/>
	<path opacity="0.2" d="M963.2,527.3L953,490l-80,40l0.9,3.3c8.6,0.8,17.4,1.2,26.5,1.2C923.2,534.6,944.6,531.9,963.2,527.3z"/>
	<path fill="#2D3134" d="M927.7,525.3c-0.6-0.5-1.5-0.5-2,0.1l-26.4,30c-0.5,0.6-0.5,1.5,0.1,2c0.6,0.5,1.5,0.5,2-0.1l7.1-8.1v6.9
		h1.8v-8.8h-0.1l17.6-20C928.4,526.7,928.3,525.8,927.7,525.3z"/>
	<path fill="#2D3134" d="M953.1,511.4c-0.6-0.5-1.5-0.5-2,0.1l-26.4,30c-0.5,0.6-0.5,1.5,0.1,2c0.6,0.5,1.5,0.5,2-0.1l6.3-7.2v7.6
		h1.8v-9.6l18.3-20.8C953.7,512.8,953.7,511.9,953.1,511.4z"/>
	<path fill="#2D3134" d="M851.8,574.4c-1.1,0-2.2-0.3-3.1-0.9c-1.8-1.1-2.8-3-2.8-5.1v-32.3c0-2.3,1.3-4.3,3.3-5.3l3.7-1.8l0.4,0.9
		l-3.7,1.8c-1.7,0.8-2.7,2.5-2.7,4.4v32.3c0,1.7,0.9,3.3,2.4,4.2c1.5,0.9,3.3,1,4.8,0.2l0.6-0.3l0.4,0.9l-0.6,0.3
		C853.6,574.2,852.7,574.4,851.8,574.4z"/>
	<path fill="#2D3134" d="M846,535.3l0.7-0.3c2.4-0.8,4.9,1,4.9,3.5V560c0,3.1-1.9,6-4.9,7.1l-0.9,0.3c-2.4,0.9-5.1-0.9-5.1-3.5
		v-21.5C840.9,539.3,843,536.4,846,535.3z"/>
	<g>
		<path opacity="0.2" d="M839.7,436.4c-1.6-3.1-4.6-5.7-7.2-7.6c-1-0.7-2.3-0.8-3.4-0.3l-30.1,15c-0.2,0.1-0.4,0.2-0.6,0.4
			C814.3,442.7,827.8,439.9,839.7,436.4z"/>
		<path opacity="0.2" d="M879.5,407.1c-0.8-1.7-2.8-2.4-4.5-1.6l-25.2,12.6c-1,0.5-1.7,1.5-1.8,2.6c-0.4,3.7-0.6,8.4,0,12.9
			c13.4-4.7,24.8-10.2,35.6-15.1C882.5,414.6,881.1,410.7,879.5,407.1z"/>
	</g>
	<path opacity="0.2" d="M707.5,467c0.4,0,0.8,0.1,1.1,0.3l22.9,11.5c2.1,1.1,3.4,3.2,3.4,5.6v43.6c0,1.6-1.3,2.5-2.5,2.5
		c-0.4,0-0.8-0.1-1.1-0.3l-22.9-11.5c-2.1-1.1-3.4-3.2-3.4-5.6v-43.6C705,468,706.3,467,707.5,467 M707.5,465
		c-2.4,0-4.5,1.9-4.5,4.5v43.6c0,3.1,1.8,6,4.5,7.4l22.9,11.5c0.7,0.3,1.4,0.5,2,0.5c2.4,0,4.5-1.9,4.5-4.5v-43.6
		c0-3.1-1.8-6-4.5-7.4l-22.9-11.5C708.9,465.2,708.2,465,707.5,465L707.5,465z"/>
	<path opacity="0.2" d="M707.5,527c0.4,0,0.8,0.1,1.1,0.3l22.9,11.5c2.1,1.1,3.4,3.2,3.4,5.6v21.6c0,1.6-1.3,2.5-2.5,2.5
		c-0.4,0-0.8-0.1-1.1-0.3l-22.9-11.5c-2.1-1.1-3.4-3.2-3.4-5.6v-21.6C705,528,706.3,527,707.5,527 M707.5,525
		c-2.4,0-4.5,1.9-4.5,4.5v21.6c0,3.1,1.8,6,4.5,7.4l22.9,11.5c0.7,0.3,1.4,0.5,2,0.5c2.4,0,4.5-1.9,4.5-4.5v-21.6
		c0-3.1-1.8-6-4.5-7.4l-22.9-11.5C708.9,525.2,708.2,525,707.5,525L707.5,525z"/>
	<g>
		<g>
			<g>
				<g>
					<polygon fill="#06547A" points="1058,623 1044,616 1022,627 1032,643 1036,645 1058,634 					"/>
				</g>
			</g>
		</g>
		<polygon opacity="0.11" points="1036,645 1032,643 1022,627 1036,634 		"/>
		<polygon fill="#FFFFFF" points="1057,633 1057,625 1037,635 1037,643 		"/>
		
			<ellipse transform="matrix(-0.6313 0.7756 -0.7756 -0.6313 2193.3977 231.0495)" opacity="0.3" fill="#2D3134" cx="1041.8" cy="636.9" rx="3.1" ry="2"/>
		
			<ellipse transform="matrix(-0.6313 0.7756 -0.7756 -0.6313 2195.2976 226.1462)" opacity="0.3" fill="#2D3134" cx="1043.9" cy="634.9" rx="3.1" ry="2"/>
		<polygon fill="#FF9900" points="1050,636 1056,633 1056,628 1050,631 		"/>
		<polygon opacity="0.29" points="1036,645 1058,634 1058,623 1036,634 		"/>
	</g>
	<polygon opacity="0.2" points="822,512 824,513 824,643 822,642 	"/>
	<polygon opacity="0.2" fill="#FFFFFF" points="820,511 822,512 822,642 820,641 	"/>
	<polygon opacity="0.3" fill="#2D3134" points="830,562.5 830,567.5 840,572.5 840,567.5 	"/>
	<polygon opacity="0.3" fill="#FFFFFF" points="840,575 830,570 830,567.5 840,572.5 	"/>
	<path opacity="0.11" d="M683,376v181l102,51V485c0-30.1-22.9-53.4-31.4-61L683,376z"/>
	<polygon opacity="0.11" points="805,634 805,496 867,527 877,571 986,621 986,699 889,676 	"/>
	<g>
		<path fill="#999999" d="M795.2,611.1L795.2,611.1c-1.5-1.1-3.3-2-5.4-3l-48.5-24.3l0,0c-3.1-1.7-5.7-2.9-9.1-2.9
			c-8.4,0-15.2,6.6-15.2,15.1c0,5,2.6,9.5,6.1,11.9c2,1.4,3.2,1.9,4.8,2.7l48.5,24.2c3.1,1.4,5.8,2.7,9.2,2.7
			c8.4,0,15.1-6.5,15.1-14.9C800.8,617.8,798.9,613.9,795.2,611.1z"/>
		<path opacity="0.2" fill="#FFFFFF" d="M741.3,617c-3.5-2.4-6.1-7-6.1-11.9c0-8.4,6.8-15.1,15.2-15.1c2,0,3.6,0.4,5.3,1
			c-2.4-1.2-4.7-2-7.5-2c-8.4,0-15.2,6.6-15.2,15.1c0,5,2.6,9.5,6.1,11.9c2,1.4,3.2,1.9,4.8,2.7C743.9,618.7,743.4,618.4,741.3,617z
			"/>
		<path opacity="0.2" fill="#FFFFFF" d="M767.3,630c-3.5-2.4-6.1-7-6.1-11.9c0-8.4,6.8-15.1,15.2-15.1c2,0,3.6,0.4,5.3,1
			c-2.4-1.2-4.7-2-7.5-2c-8.4,0-15.2,6.6-15.2,15.1c0,5,2.6,9.5,6.1,11.9c2,1.4,3.2,1.9,4.8,2.7C769.9,631.7,769.4,631.4,767.3,630z
			"/>
		<path opacity="0.15" d="M785.7,633.6c-3.4,0-6.2-1.4-9.2-2.7l-48.5-24.2c-1.6-0.8-2.8-1.2-4.8-2.7c-3-2.1-5.4-5.8-6-9.9
			c-0.1,0.7-0.2,1.3-0.2,2c0,5,2.6,9.5,6.1,11.9c2,1.4,3.2,1.9,4.8,2.7l48.5,24.2c3.1,1.4,5.8,2.7,9.2,2.7c8.4,0,15.1-6.5,15.1-14.9
			c0-0.7-0.1-1.4-0.1-2.1C799.7,628.1,793.4,633.6,785.7,633.6z"/>
	</g>
	<g>
		<path fill="#2D3134" d="M934,664.3c-7.5-3.7-14.2-4.2-19.2-1.9l0,0l-14,7l0,0c-5.4,2.4-8.8,7.9-8.8,15.9c0,15.5,12.5,34.3,28,42
			c7.6,3.8,14.6,4.2,19.6,1.8c0,0,13.9-6.9,15.1-7.6c4.5-2.7,7.3-7.9,7.3-15.2C962,690.8,949.5,672,934,664.3z"/>
		<path opacity="0.29" d="M939.9,728.9c2-1,13.7-6.8,14.8-7.5c4.5-2.7,7.3-7.9,7.3-15.2c0-6.2-2.1-13-5.5-19.3l-14,7
			c3.4,6.4,5.5,13.1,5.5,19.3C948,721,944.9,726.3,939.9,728.9z"/>
		<path fill="#999999" d="M937.9,708.1c0,9.9-8,13.9-17.9,8.9c-9.9-4.9-17.9-17-17.9-26.8s8-13.9,17.9-8.9S937.9,698.2,937.9,708.1z
			"/>
		<path opacity="0.15" d="M921.5,716.4c-9.9-4.9-17.9-17-17.9-26.8c0-4.9,1.9-8.3,5.1-9.9c-4,1.3-6.6,5-6.6,10.6
			c0,9.9,8,21.9,17.9,26.8c5,2.5,9.6,2.7,12.8,1C929.7,719,925.8,718.5,921.5,716.4z"/>
		<path fill="#2D3134" d="M928.9,702.2c0,4.1-3.3,5.8-7.5,3.7c-4.1-2.1-7.5-7.1-7.5-11.2c0-4.1,3.3-5.8,7.5-3.7
			C925.6,693.1,928.9,698.1,928.9,702.2z"/>
		<path opacity="0.29" d="M928.9,702.2c0,4.1-3.3,5.8-7.5,3.7c-4.1-2.1-7.5-7.1-7.5-11.2c0-4.1,3.3-5.8,7.5-3.7
			C925.6,693.1,928.9,698.1,928.9,702.2z"/>
		<path fill="#2D3134" d="M927.5,702.9c0,4.1-3.3,5.8-7.5,3.7c-4.1-2.1-7.5-7.1-7.5-11.2s3.3-5.8,7.5-3.7
			C924.1,693.8,927.5,698.8,927.5,702.9z"/>
		<path opacity="0.11" d="M948,713.3c0,15.5-12.5,21.7-28,14s-28-26.5-28-42c0-15.5,12.5-21.7,28-14S948,697.8,948,713.3z"/>
	</g>
	<path fill="#06547A" d="M972,664c-6-13.3-28.5-23.3-41-25s-21.8,3.3-33,11s-11,24-11,24l2,2l0.1,0.5c1.4-15.2,14.7-20.9,30.9-12.8
		c15.4,7.7,28.2,25.4,30.6,41.4l29.4-15C980,690,978,677.3,972,664z"/>
	<g>
		<g>
			<g>
				<g>
					<polygon fill="#06547A" points="978,663 964,656 942,667 952,683 956,685 978,674 					"/>
				</g>
			</g>
		</g>
		<polygon opacity="0.11" points="956,685 952,683 942,667 956,674 		"/>
		<polygon fill="#FFFFFF" points="977,673 977,665 957,675 957,683 		"/>
		
			<ellipse transform="matrix(-0.6313 0.7756 -0.7756 -0.6313 2107.9841 341.6577)" opacity="0.3" fill="#2D3134" cx="972.8" cy="671.9" rx="3.1" ry="2"/>
		
			<ellipse transform="matrix(-0.6313 0.7756 -0.7756 -0.6313 2103.2788 343.8948)" opacity="0.3" fill="#2D3134" cx="969.9" cy="671.9" rx="3.1" ry="2"/>
		<polygon fill="#FF9900" points="958,682 964,679 964,674 958,677 		"/>
		<polygon opacity="0.29" points="956,685 978,674 978,663 956,674 		"/>
	</g>
	<g>
		<g>
			<polygon fill="#999999" points="1072,642 1068,640 948,700 948,731 952,733 1072,673 			"/>
		</g>
		<polygon opacity="0.11" points="952,733 948,731 948,700 952,702 		"/>
		<polygon opacity="0.5" points="958,724 970,718 970,707 958,713 		"/>
		<polygon opacity="0.5" points="986,696 996,691 996,684 986,689 		"/>
		<polygon opacity="0.5" points="1028,675 1038,670 1038,663 1028,668 		"/>
		<polygon opacity="0.5" points="1056,675 1066,670 1066,659 1056,664 		"/>
		<polygon opacity="0.29" points="952,733 1072,673 1072,642 952,702 		"/>
	</g>
	<g>
		<g>
			<polygon fill="#999999" points="1038,597 1034,595 1014,599 1002,605 982,621 982,683 986,685 1038,659 			"/>
		</g>
		<polygon opacity="0.6" points="990,677 1034,655 1034,653 990,675 		"/>
		<polygon opacity="0.6" points="990,673 1034,651 1034,649 990,671 		"/>
		<polygon opacity="0.6" points="990,669 1034,647 1034,645 990,667 		"/>
		<polygon opacity="0.6" points="990,665 1034,643 1034,641 990,663 		"/>
		<polygon opacity="0.6" points="990,661 1034,639 1034,637 990,659 		"/>
		<polygon opacity="0.6" points="990,657 1034,635 1034,633 990,655 		"/>
		<polygon opacity="0.6" points="990,653 1034,631 1034,629 990,651 		"/>
		<polygon opacity="0.6" points="990,649 1034,627 1034,625 990,647 		"/>
		<polygon opacity="0.6" points="990,645 1034,623 1034,621 990,643 		"/>
		<polygon opacity="0.6" points="990,641 1034,619 1034,617 990,639 		"/>
		<polygon opacity="0.6" points="990,637 1034,615 1034,613 990,635 		"/>
		<polygon opacity="0.6" points="990,633 1034,611 1034,609 990,631 		"/>
		<polygon opacity="0.6" points="990,629 1034,607 1034,605 990,627 		"/>
		<polygon fill="#999999" points="998,675 1002,673 1002,619 998,621 		"/>
		<polygon fill="#999999" points="1010,669 1014,667 1014,613 1010,615 		"/>
		<polygon fill="#999999" points="1022,663 1026,661 1026,607 1022,609 		"/>
		<polygon opacity="0.11" points="986,685 982,683 982,621 986,623 		"/>
		<polygon opacity="0.29" points="986,685 1038,659 1038,597 1018,601 1006,607 986,623 		"/>
	</g>
	<g>
		<path fill="#999999" d="M869,569c-7.2,0-13,2.9-13,6.5v49c0,3.6,5.8,6.5,13,6.5c7.2,0,13-2.9,13-6.5v-49
			C882,571.9,876.2,569,869,569z"/>
		<path opacity="0.2" d="M869,582c-7.2,0-13-2.9-13-6.5v49c0,3.6,5.8,6.5,13,6.5c7.2,0,13-2.9,13-6.5v-49
			C882,579.1,876.2,582,869,582z"/>
		<path fill="#999999" d="M869,622c-7.2,0-13-2.9-13-6.5v1c0,3.6,5.8,6.5,13,6.5c7.2,0,13-2.9,13-6.5v-1
			C882,619.1,876.2,622,869,622z"/>
		<path fill="#999999" d="M869,611.5c-7.2,0-13-2.9-13-6.5v1c0,3.6,5.8,6.5,13,6.5c7.2,0,13-2.9,13-6.5v-1
			C882,608.6,876.2,611.5,869,611.5z"/>
		<path fill="#999999" d="M869,601c-7.2,0-13-2.9-13-6.5v1c0,3.6,5.8,6.5,13,6.5c7.2,0,13-2.9,13-6.5v-1
			C882,598.1,876.2,601,869,601z"/>
		<path fill="#999999" d="M869,590.5c-7.2,0-13-2.9-13-6.5v1c0,3.6,5.8,6.5,13,6.5c7.2,0,13-2.9,13-6.5v-1
			C882,587.6,876.2,590.5,869,590.5z"/>
	</g>
	<g>
		<path fill="#06547A" d="M903,427l-102,51V504l61.9,31L965,484v0c0-8.5-17-23.3-23.4-29L903,427z"/>
		<path opacity="0.11" d="M801,478V504l61.9,31l0,0c0-8.5-17-23.3-23.4-29L801,478z"/>
	</g>
	<g>
		<path fill="#2D3134" d="M795,492c-6.1,0-11,2.5-11,5.5v107c0,3,4.9,5.5,11,5.5s11-2.5,11-5.5v-107C806,494.5,801.1,492,795,492z"
			/>
		<ellipse opacity="0.8" cx="795" cy="497.5" rx="8.2" ry="3.4"/>
		<path fill="#2D3134" d="M814.1,625.4c0-1.8-1.4-3.9-3.2-4.8c-1.1-0.6-2.1-0.5-2.7,0.1c-2,0.7-4.1,0.4-5.9-0.7
			c-2.1-1.3-3.3-3.5-3.3-5.9V432.6h-7.9v181.5c0,5.2,2.6,9.9,7.1,12.7c2.4,1.5,5.1,2.2,7.8,2.2c2.3,0,4.5-0.5,6.7-1.6
			C812.6,627.4,814.1,626.6,814.1,625.4z"/>
		<path fill="#2D3134" d="M799.1,492.4v2.1c2.5,0.6,4.1,1.7,4.1,3c0,1.9-3.7,3.4-8.2,3.4s-8.2-1.5-8.2-3.4c0-1.3,1.7-2.4,4.1-3v-2.1
			c-4,0.8-6.9,2.8-6.9,5.1v107c0,3,4.9,5.5,11,5.5s11-2.5,11-5.5v-107C806,495.2,803.1,493.2,799.1,492.4z"/>
		<path opacity="0.2" d="M795,503c-6.1,0-11-2.5-11-5.5v107c0,3,4.9,5.5,11,5.5s11-2.5,11-5.5v-107C806,500.5,801.1,503,795,503z"/>
		<ellipse fill="#2D3134" cx="795" cy="432.6" rx="4" ry="2.6"/>
	</g>
	<g>
		<g>
			<polygon fill="#999999" points="819,610 809,615 801,654 805,656 823,647 823,612 			"/>
			<polygon opacity="0.11" points="809,615 813,617 805,656 801,654 			"/>
			<polygon opacity="0.29" points="823,612 813,617 805,656 823,647 			"/>
		</g>
		<g>
			<polygon fill="#999999" points="819,623 813,626 813,630 863,655 865,646 			"/>
			<polygon opacity="0.11" points="813,626 813,630 863,655 863,651 			"/>
		</g>
		<g>
			<polygon fill="#999999" points="819,639 809,644 809,648 859,673 865,662 			"/>
			<polygon opacity="0.11" points="809,644 809,648 859,673 859,669 			"/>
		</g>
		<g>
			<polygon fill="#999999" points="873,637 863,642 855,681 859,683 877,674 877,639 			"/>
			<polygon opacity="0.11" points="863,642 867,644 859,683 855,681 			"/>
			<polygon opacity="0.29" points="877,639 867,644 859,683 877,674 			"/>
		</g>
	</g>
</g>
</svg>
