<?xml version="1.0" encoding="utf-8"?>
<!-- Generator: Adobe Illustrator 18.1.0, SVG Export Plug-In . SVG Version: 6.00 Build 0)  -->
<svg version="1.1" id="Layer_1" xmlns="http://www.w3.org/2000/svg" xmlns:xlink="http://www.w3.org/1999/xlink" x="0px" y="0px"
	 viewBox="0 0 1120 720" enable-background="new 0 0 1120 720" xml:space="preserve">
<g>
	<polygon opacity="0.3" points="20,198 151,133 1072,594 942,659 	"/>
	<g>
		<polygon fill="#2D3134" points="600,340 636,322 624,342 588,360 		"/>
		<polygon opacity="0.29" points="600,340 636,322 624,342 588,360 		"/>
		<g>
			<g>
				<path fill="#2D3134" d="M654.4,332.6c-7.5-3.7-14.2-4.2-19.2-1.9l0,0l-14,7l0,0c-5.4,2.4-8.8,7.9-8.8,15.9
					c0,15.5,12.5,34.3,28,42c7.6,3.8,14.6,4.2,19.6,1.8c0,0,13.9-6.9,15.1-7.6c4.5-2.7,7.3-7.9,7.3-15.2
					C682.4,359.2,669.8,340.4,654.4,332.6z"/>
				<path opacity="0.29" d="M660.3,397.2c2-1,13.7-6.8,14.8-7.5c4.5-2.7,7.3-7.9,7.3-15.2c0-6.2-2.1-13-5.5-19.3l-14,7
					c3.4,6.4,5.5,13.1,5.5,19.3C668.4,389.3,665.3,394.7,660.3,397.2z"/>
				<path fill="#999999" d="M658.3,376.4c0,9.9-8,13.9-17.9,8.9c-9.9-4.9-17.9-17-17.9-26.8s8-13.9,17.9-8.9
					C650.2,354.5,658.3,366.5,658.3,376.4z"/>
				<path opacity="0.15" d="M641.9,384.7c-9.9-4.9-17.9-17-17.9-26.8c0-4.9,1.9-8.3,5.1-9.9c-4,1.3-6.6,5-6.6,10.6
					c0,9.9,8,21.9,17.9,26.8c5,2.5,9.6,2.7,12.8,1C650.1,387.3,646.2,386.8,641.9,384.7z"/>
				<path fill="#2D3134" d="M649.3,370.6c0,4.1-3.3,5.8-7.5,3.7c-4.1-2.1-7.5-7.1-7.5-11.2s3.3-5.8,7.5-3.7
					C646,361.4,649.3,366.4,649.3,370.6z"/>
				<path opacity="0.29" d="M649.3,370.6c0,4.1-3.3,5.8-7.5,3.7c-4.1-2.1-7.5-7.1-7.5-11.2s3.3-5.8,7.5-3.7
					C646,361.4,649.3,366.4,649.3,370.6z"/>
				<path fill="#2D3134" d="M647.8,371.3c0,4.1-3.3,5.8-7.5,3.7c-4.1-2.1-7.5-7.1-7.5-11.2s3.3-5.8,7.5-3.7
					C644.5,362.1,647.8,367.1,647.8,371.3z"/>
				<path opacity="0.11" d="M668.4,381.6c0,15.5-12.5,21.7-28,14c-15.5-7.7-28-26.5-28-42c0-15.5,12.5-21.7,28-14
					C655.8,347.4,668.4,366.2,668.4,381.6z"/>
			</g>
		</g>
		<g>
			<g>
				<path fill="#2D3134" d="M635,342.1c-7.5-3.7-14.2-4.2-19.2-1.9l0,0l-14,7l0,0c-5.4,2.4-8.8,7.9-8.8,15.9c0,15.5,12.5,34.3,28,42
					c7.6,3.8,14.6,4.2,19.6,1.8c0,0,13.9-6.9,15.1-7.6c4.5-2.7,7.3-7.9,7.3-15.2C663,368.6,650.5,349.8,635,342.1z"/>
				<path opacity="0.29" d="M640.9,406.7c2-1,13.7-6.8,14.8-7.5c4.5-2.7,7.3-7.9,7.3-15.2c0-6.2-2.1-13-5.5-19.3l-14,7
					c3.4,6.4,5.5,13.1,5.5,19.3C649,398.7,645.9,404.1,640.9,406.7z"/>
				<path fill="#999999" d="M638.9,385.8c0,9.9-8,13.9-17.9,8.9c-9.9-4.9-17.9-17-17.9-26.8s8-13.9,17.9-8.9
					C630.9,364,638.9,376,638.9,385.8z"/>
				<path opacity="0.15" d="M622.5,394.2c-9.9-4.9-17.9-17-17.9-26.8c0-4.9,1.9-8.3,5.1-9.9c-4,1.3-6.6,5-6.6,10.6
					c0,9.9,8,21.9,17.9,26.8c5,2.5,9.6,2.7,12.8,1C630.7,396.8,626.8,396.3,622.5,394.2z"/>
				<path fill="#2D3134" d="M629.9,380c0,4.1-3.3,5.8-7.5,3.7c-4.1-2.1-7.5-7.1-7.5-11.2c0-4.1,3.3-5.8,7.5-3.7
					C626.6,370.9,629.9,375.9,629.9,380z"/>
				<path opacity="0.29" d="M629.9,380c0,4.1-3.3,5.8-7.5,3.7c-4.1-2.1-7.5-7.1-7.5-11.2c0-4.1,3.3-5.8,7.5-3.7
					C626.6,370.9,629.9,375.9,629.9,380z"/>
				<path fill="#2D3134" d="M628.5,380.7c0,4.1-3.3,5.8-7.5,3.7c-4.1-2.1-7.5-7.1-7.5-11.2c0-4.1,3.3-5.8,7.5-3.7
					S628.5,376.6,628.5,380.7z"/>
				<path opacity="0.11" d="M649,391.1c0,15.5-12.5,21.7-28,14c-15.5-7.7-28-26.5-28-42c0-15.5,12.5-21.7,28-14
					C636.5,356.8,649,375.6,649,391.1z"/>
			</g>
		</g>
		<polygon fill="#2D3134" points="600,340 636,322 672,340 636,358 		"/>
		<polygon fill="#2D3134" points="650,383 686,365 672,340 636,358 		"/>
		<polygon opacity="0.29" points="650,383 686,365 672,340 636,358 		"/>
	</g>
	<g>
		<polygon fill="#2D3134" points="658,369 694,351 682,371 646,389 		"/>
		<polygon opacity="0.29" points="658,369 694,351 682,371 646,389 		"/>
		<g>
			<g>
				<path fill="#2D3134" d="M712.4,361.6c-7.5-3.7-14.2-4.2-19.2-1.9l0,0l-14,7l0,0c-5.4,2.4-8.8,7.9-8.8,15.9
					c0,15.5,12.5,34.3,28,42c7.6,3.8,14.6,4.2,19.6,1.8c0,0,13.9-6.9,15.1-7.6c4.5-2.7,7.3-7.9,7.3-15.2
					C740.4,388.2,727.8,369.4,712.4,361.6z"/>
				<path opacity="0.29" d="M718.3,426.2c2-1,13.7-6.8,14.8-7.5c4.5-2.7,7.3-7.9,7.3-15.2c0-6.2-2.1-13-5.5-19.3l-14,7
					c3.4,6.4,5.5,13.1,5.5,19.3C726.4,418.3,723.3,423.7,718.3,426.2z"/>
				<path fill="#999999" d="M716.3,405.4c0,9.9-8,13.9-17.9,8.9c-9.9-4.9-17.9-17-17.9-26.8s8-13.9,17.9-8.9
					C708.2,383.5,716.3,395.5,716.3,405.4z"/>
				<path opacity="0.15" d="M699.9,413.7c-9.9-4.9-17.9-17-17.9-26.8c0-4.9,1.9-8.3,5.1-9.9c-4,1.3-6.6,5-6.6,10.6
					c0,9.9,8,21.9,17.9,26.8c5,2.5,9.6,2.7,12.8,1C708.1,416.3,704.2,415.8,699.9,413.7z"/>
				<path fill="#2D3134" d="M707.3,399.6c0,4.1-3.3,5.8-7.5,3.7c-4.1-2.1-7.5-7.1-7.5-11.2s3.3-5.8,7.5-3.7
					C704,390.4,707.3,395.4,707.3,399.6z"/>
				<path opacity="0.29" d="M707.3,399.6c0,4.1-3.3,5.8-7.5,3.7c-4.1-2.1-7.5-7.1-7.5-11.2s3.3-5.8,7.5-3.7
					C704,390.4,707.3,395.4,707.3,399.6z"/>
				<path fill="#2D3134" d="M705.8,400.3c0,4.1-3.3,5.8-7.5,3.7c-4.1-2.1-7.5-7.1-7.5-11.2s3.3-5.8,7.5-3.7
					C702.5,391.1,705.8,396.1,705.8,400.3z"/>
				<path opacity="0.11" d="M726.4,410.6c0,15.5-12.5,21.7-28,14c-15.5-7.7-28-26.5-28-42c0-15.5,12.5-21.7,28-14
					C713.8,376.4,726.4,395.2,726.4,410.6z"/>
			</g>
		</g>
		<g>
			<g>
				<path fill="#2D3134" d="M693,371.1c-7.5-3.7-14.2-4.2-19.2-1.9l0,0l-14,7l0,0c-5.4,2.4-8.8,7.9-8.8,15.9c0,15.5,12.5,34.3,28,42
					c7.6,3.8,14.6,4.2,19.6,1.8c0,0,13.9-6.9,15.1-7.6c4.5-2.7,7.3-7.9,7.3-15.2C721,397.6,708.5,378.8,693,371.1z"/>
				<path opacity="0.29" d="M698.9,435.7c2-1,13.7-6.8,14.8-7.5c4.5-2.7,7.3-7.9,7.3-15.2c0-6.2-2.1-13-5.5-19.3l-14,7
					c3.4,6.4,5.5,13.1,5.5,19.3C707,427.7,703.9,433.1,698.9,435.7z"/>
				<path fill="#999999" d="M696.9,414.8c0,9.9-8,13.9-17.9,8.9c-9.9-4.9-17.9-17-17.9-26.8s8-13.9,17.9-8.9
					C688.9,393,696.9,405,696.9,414.8z"/>
				<path opacity="0.15" d="M680.5,423.2c-9.9-4.9-17.9-17-17.9-26.8c0-4.9,1.9-8.3,5.1-9.9c-4,1.3-6.6,5-6.6,10.6
					c0,9.9,8,21.9,17.9,26.8c5,2.5,9.6,2.7,12.8,1C688.7,425.8,684.8,425.3,680.5,423.2z"/>
				<path fill="#2D3134" d="M687.9,409c0,4.1-3.3,5.8-7.5,3.7c-4.1-2.1-7.5-7.1-7.5-11.2c0-4.1,3.3-5.8,7.5-3.7
					C684.6,399.9,687.9,404.9,687.9,409z"/>
				<path opacity="0.29" d="M687.9,409c0,4.1-3.3,5.8-7.5,3.7c-4.1-2.1-7.5-7.1-7.5-11.2c0-4.1,3.3-5.8,7.5-3.7
					C684.6,399.9,687.9,404.9,687.9,409z"/>
				<path fill="#2D3134" d="M686.5,409.7c0,4.1-3.3,5.8-7.5,3.7c-4.1-2.1-7.5-7.1-7.5-11.2c0-4.1,3.3-5.8,7.5-3.7
					S686.5,405.6,686.5,409.7z"/>
				<path opacity="0.11" d="M707,420.1c0,15.5-12.5,21.7-28,14c-15.5-7.7-28-26.5-28-42c0-15.5,12.5-21.7,28-14
					C694.5,385.8,707,404.6,707,420.1z"/>
			</g>
		</g>
		<polygon fill="#2D3134" points="658,369 694,351 730,369 694,387 		"/>
		<polygon fill="#2D3134" points="708,412 744,394 730,369 694,387 		"/>
		<polygon opacity="0.29" points="708,412 744,394 730,369 694,387 		"/>
	</g>
	<g>
		<polygon fill="#06547A" points="749,383 739,388 739,419 801,450 811,445 811,414 		"/>
		<polygon opacity="0.11" points="739,388 739,419 801,450 801,419 		"/>
		<polygon opacity="0.29" points="811,414 811,445 801,450 801,419 		"/>
	</g>
	<g>
		<polygon fill="#999999" points="745,392 725,402 725,429 777,455 797,445 797,418 		"/>
		<polygon fill="#2D3134" points="759,399 755,397 735,407 735,434 739,436 739,409 		"/>
		<polygon fill="#2D3134" points="787,413 783,411 763,421 763,448 767,450 767,423 		"/>
		<polygon opacity="0.29" points="797,418 797,445 777,455 777,428 		"/>
		<polygon opacity="0.11" points="725,402 725,429 777,455 777,428 		"/>
	</g>
	<g>
		<polygon fill="#06547A" points="611,352 607,354 607,385 769,466 773,464 773,433 		"/>
		<polygon opacity="0.11" points="607,354 607,385 769,466 769,435 		"/>
		<polygon opacity="0.29" points="773,433 773,464 769,466 769,435 		"/>
	</g>
	<g>
		<polygon fill="#06547A" points="607,356 571,374 571,405 595,417 631,399 631,368 		"/>
		<polygon opacity="0.11" points="571,374 571,405 595,417 595,386 		"/>
		<polygon opacity="0.29" points="631,368 631,399 595,417 595,386 		"/>
	</g>
	<g>
		<polygon fill="#06547A" points="631,382 621,387 621,403 719,452 729,447 729,431 		"/>
		<polygon opacity="0.11" points="621,387 621,403 719,452 719,436 		"/>
		<polygon opacity="0.29" points="729,431 729,447 719,452 719,436 		"/>
	</g>
	<g>
		<path fill="#2D3134" d="M663.1,378.7c-9.4-4.7-43.3-9.3-43.3-9.3v2.6l19.5,18.2l-36.4-9.7c-3.3,7.1,3.5,16.7,13.4,21.7
			c12.9,6.5,33.9,6.5,46.8,0S676,385.2,663.1,378.7z"/>
		<path opacity="0.2" d="M663.1,378.7c-9.4-4.7-43.3-9.3-43.3-9.3v2.6l19.5,18.2l-36.4-9.7c-3.3,7.1,3.5,16.7,13.4,21.7
			c12.9,6.5,33.9,6.5,46.8,0S676,385.2,663.1,378.7z"/>
		<path fill="#2D3134" d="M619.8,369.4l19.5,18.2l-36.4-9.7c-3.3,7.1,3.5,16.7,13.4,21.7c12.9,6.5,33.9,6.5,46.8,0
			c12.9-6.5,12.9-16.9,0-23.4C653.2,371.2,634,367.8,619.8,369.4z"/>
	</g>
	<g>
		<polygon fill="#06547A" points="743,424 707,442 707,473 731,485 767,467 767,436 		"/>
		<polygon opacity="0.11" points="707,442 707,473 731,485 731,454 		"/>
		<polygon opacity="0.29" points="767,436 767,467 731,485 731,454 		"/>
	</g>
	<g>
		<polygon fill="#06547A" points="567,374 563,376 563,407 725,488 729,486 729,455 		"/>
		<polygon opacity="0.11" points="563,376 563,407 725,488 725,457 		"/>
		<polygon opacity="0.29" points="729,455 729,486 725,488 725,457 		"/>
	</g>
	<g>
		<polygon fill="#2D3134" points="507,387 543,369 531,389 495,407 		"/>
		<polygon opacity="0.29" points="507,387 543,369 531,389 495,407 		"/>
		<g>
			<g>
				<path fill="#2D3134" d="M561.4,379.6c-7.5-3.7-14.2-4.2-19.2-1.9l0,0l-14,7l0,0c-5.4,2.4-8.8,7.9-8.8,15.9
					c0,15.5,12.5,34.3,28,42c7.6,3.8,14.6,4.2,19.6,1.8c0,0,13.9-6.9,15.1-7.6c4.5-2.7,7.3-7.9,7.3-15.2
					C589.4,406.2,576.8,387.4,561.4,379.6z"/>
				<path opacity="0.29" d="M567.3,444.2c2-1,13.7-6.8,14.8-7.5c4.5-2.7,7.3-7.9,7.3-15.2c0-6.2-2.1-13-5.5-19.3l-14,7
					c3.4,6.4,5.5,13.1,5.5,19.3C575.4,436.3,572.3,441.7,567.3,444.2z"/>
				<path fill="#999999" d="M565.3,423.4c0,9.9-8,13.9-17.9,8.9c-9.9-4.9-17.9-17-17.9-26.8s8-13.9,17.9-8.9
					C557.2,401.5,565.3,413.5,565.3,423.4z"/>
				<path opacity="0.15" d="M548.9,431.7c-9.9-4.9-17.9-17-17.9-26.8c0-4.9,1.9-8.3,5.1-9.9c-4,1.3-6.6,5-6.6,10.6
					c0,9.9,8,21.9,17.9,26.8c5,2.5,9.6,2.7,12.8,1C557.1,434.3,553.2,433.8,548.9,431.7z"/>
				<path fill="#2D3134" d="M556.3,417.6c0,4.1-3.3,5.8-7.5,3.7c-4.1-2.1-7.5-7.1-7.5-11.2s3.3-5.8,7.5-3.7
					C553,408.4,556.3,413.4,556.3,417.6z"/>
				<path opacity="0.29" d="M556.3,417.6c0,4.1-3.3,5.8-7.5,3.7c-4.1-2.1-7.5-7.1-7.5-11.2s3.3-5.8,7.5-3.7
					C553,408.4,556.3,413.4,556.3,417.6z"/>
				<path fill="#2D3134" d="M554.8,418.3c0,4.1-3.3,5.8-7.5,3.7c-4.1-2.1-7.5-7.1-7.5-11.2s3.3-5.8,7.5-3.7
					C551.5,409.1,554.8,414.1,554.8,418.3z"/>
				<path opacity="0.11" d="M575.4,428.6c0,15.5-12.5,21.7-28,14c-15.5-7.7-28-26.5-28-42c0-15.5,12.5-21.7,28-14
					C562.8,394.4,575.4,413.2,575.4,428.6z"/>
			</g>
		</g>
		<g>
			<g>
				<path fill="#2D3134" d="M542,389.1c-7.5-3.7-14.2-4.2-19.2-1.9l0,0l-14,7l0,0c-5.4,2.4-8.8,7.9-8.8,15.9c0,15.5,12.5,34.3,28,42
					c7.6,3.8,14.6,4.2,19.6,1.8c0,0,13.9-6.9,15.1-7.6c4.5-2.7,7.3-7.9,7.3-15.2C570,415.6,557.5,396.8,542,389.1z"/>
				<path opacity="0.29" d="M547.9,453.7c2-1,13.7-6.8,14.8-7.5c4.5-2.7,7.3-7.9,7.3-15.2c0-6.2-2.1-13-5.5-19.3l-14,7
					c3.4,6.4,5.5,13.1,5.5,19.3C556,445.7,552.9,451.1,547.9,453.7z"/>
				<path fill="#999999" d="M545.9,432.8c0,9.9-8,13.9-17.9,8.9c-9.9-4.9-17.9-17-17.9-26.8s8-13.9,17.9-8.9
					C537.9,411,545.9,423,545.9,432.8z"/>
				<path opacity="0.15" d="M529.5,441.2c-9.9-4.9-17.9-17-17.9-26.8c0-4.9,1.9-8.3,5.1-9.9c-4,1.3-6.6,5-6.6,10.6
					c0,9.9,8,21.9,17.9,26.8c5,2.5,9.6,2.7,12.8,1C537.7,443.8,533.8,443.3,529.5,441.2z"/>
				<path fill="#2D3134" d="M536.9,427c0,4.1-3.3,5.8-7.5,3.7c-4.1-2.1-7.5-7.1-7.5-11.2c0-4.1,3.3-5.8,7.5-3.7
					C533.6,417.9,536.9,422.9,536.9,427z"/>
				<path opacity="0.29" d="M536.9,427c0,4.1-3.3,5.8-7.5,3.7c-4.1-2.1-7.5-7.1-7.5-11.2c0-4.1,3.3-5.8,7.5-3.7
					C533.6,417.9,536.9,422.9,536.9,427z"/>
				<path fill="#2D3134" d="M535.5,427.7c0,4.1-3.3,5.8-7.5,3.7c-4.1-2.1-7.5-7.1-7.5-11.2c0-4.1,3.3-5.8,7.5-3.7
					S535.5,423.6,535.5,427.7z"/>
				<path opacity="0.11" d="M556,438.1c0,15.5-12.5,21.7-28,14c-15.5-7.7-28-26.5-28-42c0-15.5,12.5-21.7,28-14
					C543.5,403.8,556,422.6,556,438.1z"/>
			</g>
		</g>
		<polygon fill="#2D3134" points="507,387 543,369 579,387 543,405 		"/>
		<polygon fill="#2D3134" points="557,430 593,412 579,387 543,405 		"/>
		<polygon opacity="0.29" points="557,430 593,412 579,387 543,405 		"/>
	</g>
	<g>
		<polygon fill="#2D3134" points="565,416 601,398 589,418 553,436 		"/>
		<polygon opacity="0.29" points="565,416 601,398 589,418 553,436 		"/>
		<g>
			<g>
				<path fill="#2D3134" d="M619.4,408.6c-7.5-3.7-14.2-4.2-19.2-1.9l0,0l-14,7l0,0c-5.4,2.4-8.8,7.9-8.8,15.9
					c0,15.5,12.5,34.3,28,42c7.6,3.8,14.6,4.2,19.6,1.8c0,0,13.9-6.9,15.1-7.6c4.5-2.7,7.3-7.9,7.3-15.2
					C647.4,435.2,634.8,416.4,619.4,408.6z"/>
				<path opacity="0.29" d="M625.3,473.2c2-1,13.7-6.8,14.8-7.5c4.5-2.7,7.3-7.9,7.3-15.2c0-6.2-2.1-13-5.5-19.3l-14,7
					c3.4,6.4,5.5,13.1,5.5,19.3C633.4,465.3,630.3,470.7,625.3,473.2z"/>
				<path fill="#999999" d="M623.3,452.4c0,9.9-8,13.9-17.9,8.9c-9.9-4.9-17.9-17-17.9-26.8s8-13.9,17.9-8.9
					C615.2,430.5,623.3,442.5,623.3,452.4z"/>
				<path opacity="0.15" d="M606.9,460.7c-9.9-4.9-17.9-17-17.9-26.8c0-4.9,1.9-8.3,5.1-9.9c-4,1.3-6.6,5-6.6,10.6
					c0,9.9,8,21.9,17.9,26.8c5,2.5,9.6,2.7,12.8,1C615.1,463.3,611.2,462.8,606.9,460.7z"/>
				<path fill="#2D3134" d="M614.3,446.6c0,4.1-3.3,5.8-7.5,3.7c-4.1-2.1-7.5-7.1-7.5-11.2s3.3-5.8,7.5-3.7
					C611,437.4,614.3,442.4,614.3,446.6z"/>
				<path opacity="0.29" d="M614.3,446.6c0,4.1-3.3,5.8-7.5,3.7c-4.1-2.1-7.5-7.1-7.5-11.2s3.3-5.8,7.5-3.7
					C611,437.4,614.3,442.4,614.3,446.6z"/>
				<path fill="#2D3134" d="M612.8,447.3c0,4.1-3.3,5.8-7.5,3.7c-4.1-2.1-7.5-7.1-7.5-11.2s3.3-5.8,7.5-3.7
					C609.5,438.1,612.8,443.1,612.8,447.3z"/>
				<path opacity="0.11" d="M633.4,457.6c0,15.5-12.5,21.7-28,14c-15.5-7.7-28-26.5-28-42c0-15.5,12.5-21.7,28-14
					C620.8,423.4,633.4,442.2,633.4,457.6z"/>
			</g>
		</g>
		<g>
			<g>
				<path fill="#2D3134" d="M600,418.1c-7.5-3.7-14.2-4.2-19.2-1.9l0,0l-14,7l0,0c-5.4,2.4-8.8,7.9-8.8,15.9c0,15.5,12.5,34.3,28,42
					c7.6,3.8,14.6,4.2,19.6,1.8c0,0,13.9-6.9,15.1-7.6c4.5-2.7,7.3-7.9,7.3-15.2C628,444.6,615.5,425.8,600,418.1z"/>
				<path opacity="0.29" d="M605.9,482.7c2-1,13.7-6.8,14.8-7.5c4.5-2.7,7.3-7.9,7.3-15.2c0-6.2-2.1-13-5.5-19.3l-14,7
					c3.4,6.4,5.5,13.1,5.5,19.3C614,474.7,610.9,480.1,605.9,482.7z"/>
				<path fill="#999999" d="M603.9,461.8c0,9.9-8,13.9-17.9,8.9c-9.9-4.9-17.9-17-17.9-26.8s8-13.9,17.9-8.9
					C595.9,440,603.9,452,603.9,461.8z"/>
				<path opacity="0.15" d="M587.5,470.2c-9.9-4.9-17.9-17-17.9-26.8c0-4.9,1.9-8.3,5.1-9.9c-4,1.3-6.6,5-6.6,10.6
					c0,9.9,8,21.9,17.9,26.8c5,2.5,9.6,2.7,12.8,1C595.7,472.8,591.8,472.3,587.5,470.2z"/>
				<path fill="#2D3134" d="M594.9,456c0,4.1-3.3,5.8-7.5,3.7c-4.1-2.1-7.5-7.1-7.5-11.2c0-4.1,3.3-5.8,7.5-3.7
					C591.6,446.9,594.9,451.9,594.9,456z"/>
				<path opacity="0.29" d="M594.9,456c0,4.1-3.3,5.8-7.5,3.7c-4.1-2.1-7.5-7.1-7.5-11.2c0-4.1,3.3-5.8,7.5-3.7
					C591.6,446.9,594.9,451.9,594.9,456z"/>
				<path fill="#2D3134" d="M593.5,456.7c0,4.1-3.3,5.8-7.5,3.7c-4.1-2.1-7.5-7.1-7.5-11.2c0-4.1,3.3-5.8,7.5-3.7
					S593.5,452.6,593.5,456.7z"/>
				<path opacity="0.11" d="M614,467.1c0,15.5-12.5,21.7-28,14c-15.5-7.7-28-26.5-28-42c0-15.5,12.5-21.7,28-14
					C601.5,432.8,614,451.6,614,467.1z"/>
			</g>
		</g>
		<polygon fill="#2D3134" points="565,416 601,398 637,416 601,434 		"/>
		<polygon fill="#2D3134" points="615,459 651,441 637,416 601,434 		"/>
		<polygon opacity="0.29" points="615,459 651,441 637,416 601,434 		"/>
	</g>
	<g>
		<polygon fill="#999999" points="661,434 641,444 641,471 693,497 713,487 713,460 		"/>
		<polygon fill="#2D3134" points="675,441 671,439 651,449 651,476 655,478 655,451 		"/>
		<polygon fill="#2D3134" points="703,455 699,453 679,463 679,490 683,492 683,465 		"/>
		<polygon opacity="0.29" points="713,460 713,487 693,497 693,470 		"/>
		<polygon opacity="0.11" points="641,444 641,471 693,497 693,470 		"/>
	</g>
	<g>
		<polygon fill="#06547A" points="632,442 622,447 622,478 684,509 694,504 694,473 		"/>
		<polygon opacity="0.11" points="622,447 622,478 684,509 684,478 		"/>
		<polygon opacity="0.29" points="694,473 694,504 684,509 684,478 		"/>
	</g>
	<g>
		<polygon fill="#06547A" points="812,414 684,478 684,509 708,521 836,457 836,426 		"/>
		<polygon opacity="0.11" points="684,478 684,509 708,521 708,490 		"/>
		<polygon opacity="0.29" points="836,426 836,457 708,521 708,490 		"/>
	</g>
</g>
<g>
	<g>
		<polygon fill="#2D3134" points="94,179 130,161 118,181 82,199 		"/>
		<polygon opacity="0.29" points="94,179 130,161 118,181 82,199 		"/>
		<g>
			<g>
				<path fill="#2D3134" d="M148.4,171.6c-7.5-3.7-14.2-4.2-19.2-1.9l0,0l-14,7l0,0c-5.4,2.4-8.8,7.9-8.8,15.9
					c0,15.5,12.5,34.3,28,42c7.6,3.8,14.6,4.2,19.6,1.8c0,0,13.9-6.9,15.1-7.6c4.5-2.7,7.3-7.9,7.3-15.2
					C176.4,198.2,163.8,179.4,148.4,171.6z"/>
				<path opacity="0.29" d="M154.3,236.2c2-1,13.7-6.8,14.8-7.5c4.5-2.7,7.3-7.9,7.3-15.2c0-6.2-2.1-13-5.5-19.3l-14,7
					c3.4,6.4,5.5,13.1,5.5,19.3C162.4,228.3,159.3,233.7,154.3,236.2z"/>
				<path fill="#999999" d="M152.3,215.4c0,9.9-8,13.9-17.9,8.9s-17.9-17-17.9-26.8s8-13.9,17.9-8.9
					C144.2,193.5,152.3,205.5,152.3,215.4z"/>
				<path opacity="0.15" d="M135.9,223.7c-9.9-4.9-17.9-17-17.9-26.8c0-4.9,1.9-8.3,5.1-9.9c-4,1.3-6.6,5-6.6,10.6
					c0,9.9,8,21.9,17.9,26.8c5,2.5,9.6,2.7,12.8,1C144.1,226.3,140.2,225.8,135.9,223.7z"/>
				<path fill="#2D3134" d="M143.3,209.6c0,4.1-3.3,5.8-7.5,3.7c-4.1-2.1-7.5-7.1-7.5-11.2c0-4.1,3.3-5.8,7.5-3.7
					C140,200.4,143.3,205.4,143.3,209.6z"/>
				<path opacity="0.29" d="M143.3,209.6c0,4.1-3.3,5.8-7.5,3.7c-4.1-2.1-7.5-7.1-7.5-11.2c0-4.1,3.3-5.8,7.5-3.7
					C140,200.4,143.3,205.4,143.3,209.6z"/>
				<path fill="#2D3134" d="M141.8,210.3c0,4.1-3.3,5.8-7.5,3.7c-4.1-2.1-7.5-7.1-7.5-11.2s3.3-5.8,7.5-3.7
					C138.5,201.1,141.8,206.1,141.8,210.3z"/>
				<path opacity="0.11" d="M162.4,220.6c0,15.5-12.5,21.7-28,14s-28-26.5-28-42s12.5-21.7,28-14S162.4,205.2,162.4,220.6z"/>
			</g>
		</g>
		<g>
			<g>
				<path fill="#2D3134" d="M129,181.1c-7.5-3.7-14.2-4.2-19.2-1.9l0,0l-14,7l0,0c-5.4,2.4-8.8,7.9-8.8,15.9c0,15.5,12.5,34.3,28,42
					c7.6,3.8,14.6,4.2,19.6,1.8c0,0,13.9-6.9,15.1-7.6c4.5-2.7,7.3-7.9,7.3-15.2C157,207.6,144.5,188.8,129,181.1z"/>
				<path opacity="0.29" d="M134.9,245.7c2-1,13.7-6.8,14.8-7.5c4.5-2.7,7.3-7.9,7.3-15.2c0-6.2-2.1-13-5.5-19.3l-14,7
					c3.4,6.4,5.5,13.1,5.5,19.3C143,237.7,139.9,243.1,134.9,245.7z"/>
				<path fill="#999999" d="M132.9,224.8c0,9.9-8,13.9-17.9,8.9c-9.9-4.9-17.9-17-17.9-26.8c0-9.9,8-13.9,17.9-8.9
					S132.9,215,132.9,224.8z"/>
				<path opacity="0.15" d="M116.5,233.2c-9.9-4.9-17.9-17-17.9-26.8c0-4.9,1.9-8.3,5.1-9.9c-4,1.3-6.6,5-6.6,10.6
					c0,9.9,8,21.9,17.9,26.8c5,2.5,9.6,2.7,12.8,1C124.7,235.8,120.8,235.3,116.5,233.2z"/>
				<path fill="#2D3134" d="M123.9,219c0,4.1-3.3,5.8-7.5,3.7c-4.1-2.1-7.5-7.1-7.5-11.2c0-4.1,3.3-5.8,7.5-3.7
					C120.6,209.9,123.9,214.9,123.9,219z"/>
				<path opacity="0.29" d="M123.9,219c0,4.1-3.3,5.8-7.5,3.7c-4.1-2.1-7.5-7.1-7.5-11.2c0-4.1,3.3-5.8,7.5-3.7
					C120.6,209.9,123.9,214.9,123.9,219z"/>
				<path fill="#2D3134" d="M122.5,219.7c0,4.1-3.3,5.8-7.5,3.7c-4.1-2.1-7.5-7.1-7.5-11.2c0-4.1,3.3-5.8,7.5-3.7
					S122.5,215.6,122.5,219.7z"/>
				<path opacity="0.11" d="M143,230.1c0,15.5-12.5,21.7-28,14s-28-26.5-28-42s12.5-21.7,28-14S143,214.6,143,230.1z"/>
			</g>
		</g>
		<polygon fill="#2D3134" points="94,179 130,161 166,179 130,197 		"/>
		<polygon fill="#2D3134" points="144,222 180,204 166,179 130,197 		"/>
		<polygon opacity="0.29" points="144,222 180,204 166,179 130,197 		"/>
	</g>
	<g>
		<polygon fill="#2D3134" points="153,209.4 189,191.4 177,211.4 141,229.4 		"/>
		<polygon opacity="0.29" points="153,209.4 189,191.4 177,211.4 141,229.4 		"/>
		<g>
			<g>
				<path fill="#2D3134" d="M207.4,202c-7.5-3.7-14.2-4.2-19.2-1.9l0,0l-14,7l0,0c-5.4,2.4-8.8,7.9-8.8,15.9c0,15.5,12.5,34.3,28,42
					c7.6,3.8,14.6,4.2,19.6,1.8c0,0,13.9-6.9,15.1-7.6c4.5-2.7,7.3-7.9,7.3-15.2C235.4,228.6,222.8,209.8,207.4,202z"/>
				<path opacity="0.29" d="M213.3,266.6c2-1,13.7-6.8,14.8-7.5c4.5-2.7,7.3-7.9,7.3-15.2c0-6.2-2.1-13-5.5-19.3l-14,7
					c3.4,6.4,5.5,13.1,5.5,19.3C221.4,258.7,218.3,264.1,213.3,266.6z"/>
				<path fill="#999999" d="M211.3,245.8c0,9.9-8,13.9-17.9,8.9s-17.9-17-17.9-26.8s8-13.9,17.9-8.9S211.3,235.9,211.3,245.8z"/>
				<path opacity="0.15" d="M194.9,254.1c-9.9-4.9-17.9-17-17.9-26.8c0-4.9,1.9-8.3,5.1-9.9c-4,1.3-6.6,5-6.6,10.6
					c0,9.9,8,21.9,17.9,26.8c5,2.5,9.6,2.7,12.8,1C203.1,256.7,199.2,256.2,194.9,254.1z"/>
				<path fill="#2D3134" d="M202.3,240c0,4.1-3.3,5.8-7.5,3.7c-4.1-2.1-7.5-7.1-7.5-11.2c0-4.1,3.3-5.8,7.5-3.7
					C199,230.8,202.3,235.8,202.3,240z"/>
				<path opacity="0.29" d="M202.3,240c0,4.1-3.3,5.8-7.5,3.7c-4.1-2.1-7.5-7.1-7.5-11.2c0-4.1,3.3-5.8,7.5-3.7
					C199,230.8,202.3,235.8,202.3,240z"/>
				<path fill="#2D3134" d="M200.8,240.7c0,4.1-3.3,5.8-7.5,3.7s-7.5-7.1-7.5-11.2c0-4.1,3.3-5.8,7.5-3.7S200.8,236.5,200.8,240.7z"
					/>
				<path opacity="0.11" d="M221.4,251c0,15.5-12.5,21.7-28,14c-15.5-7.7-28-26.5-28-42s12.5-21.7,28-14S221.4,235.6,221.4,251z"/>
			</g>
		</g>
		<g>
			<g>
				<path fill="#2D3134" d="M188,211.5c-7.5-3.7-14.2-4.2-19.2-1.9l0,0l-14,7l0,0c-5.4,2.4-8.8,7.9-8.8,15.9c0,15.5,12.5,34.3,28,42
					c7.6,3.8,14.6,4.2,19.6,1.8c0,0,13.9-6.9,15.1-7.6c4.5-2.7,7.3-7.9,7.3-15.2C216,238,203.5,219.2,188,211.5z"/>
				<path opacity="0.29" d="M193.9,276.1c2-1,13.7-6.8,14.8-7.5c4.5-2.7,7.3-7.9,7.3-15.2c0-6.2-2.1-13-5.5-19.3l-14,7
					c3.4,6.4,5.5,13.1,5.5,19.3C202,268.1,198.9,273.5,193.9,276.1z"/>
				<path fill="#999999" d="M191.9,255.3c0,9.9-8,13.9-17.9,8.9s-17.9-17-17.9-26.8s8-13.9,17.9-8.9
					C183.9,233.4,191.9,245.4,191.9,255.3z"/>
				<path opacity="0.15" d="M175.5,263.6c-9.9-4.9-17.9-17-17.9-26.8c0-4.9,1.9-8.3,5.1-9.9c-4,1.3-6.6,5-6.6,10.6
					c0,9.9,8,21.9,17.9,26.8c5,2.5,9.6,2.7,12.8,1C183.7,266.2,179.8,265.7,175.5,263.6z"/>
				<path fill="#2D3134" d="M182.9,249.4c0,4.1-3.3,5.8-7.5,3.7c-4.1-2.1-7.5-7.1-7.5-11.2c0-4.1,3.3-5.8,7.5-3.7
					C179.6,240.3,182.9,245.3,182.9,249.4z"/>
				<path opacity="0.29" d="M182.9,249.4c0,4.1-3.3,5.8-7.5,3.7c-4.1-2.1-7.5-7.1-7.5-11.2c0-4.1,3.3-5.8,7.5-3.7
					C179.6,240.3,182.9,245.3,182.9,249.4z"/>
				<path fill="#2D3134" d="M181.5,250.1c0,4.1-3.3,5.8-7.5,3.7s-7.5-7.1-7.5-11.2c0-4.1,3.3-5.8,7.5-3.7
					C178.1,241,181.5,246,181.5,250.1z"/>
				<path opacity="0.11" d="M202,260.5c0,15.5-12.5,21.7-28,14s-28-26.5-28-42s12.5-21.7,28-14S202,245,202,260.5z"/>
			</g>
		</g>
		<polygon fill="#2D3134" points="153,209.4 189,191.4 225,209.4 189,227.4 		"/>
		<polygon fill="#2D3134" points="203,252.4 239,234.4 225,209.4 189,227.4 		"/>
		<polygon opacity="0.29" points="203,252.4 239,234.4 225,209.4 189,227.4 		"/>
	</g>
	<g>
		<polygon fill="#2D3134" points="212,239 248,221 236,241 200,259 		"/>
		<polygon opacity="0.29" points="212,239 248,221 236,241 200,259 		"/>
		<g>
			<g>
				<path fill="#2D3134" d="M266.4,231.6c-7.5-3.7-14.2-4.2-19.2-1.9l0,0l-14,7l0,0c-5.4,2.4-8.8,7.9-8.8,15.9
					c0,15.5,12.5,34.3,28,42c7.6,3.8,14.6,4.2,19.6,1.8c0,0,13.9-6.9,15.1-7.6c4.5-2.7,7.3-7.9,7.3-15.2
					C294.4,258.2,281.8,239.4,266.4,231.6z"/>
				<path opacity="0.29" d="M272.3,296.2c2-1,13.7-6.8,14.8-7.5c4.5-2.7,7.3-7.9,7.3-15.2c0-6.2-2.1-13-5.5-19.3l-14,7
					c3.4,6.4,5.5,13.1,5.5,19.3C280.4,288.3,277.3,293.7,272.3,296.2z"/>
				<path fill="#999999" d="M270.3,275.4c0,9.9-8,13.9-17.9,8.9c-9.9-4.9-17.9-17-17.9-26.8c0-9.9,8-13.9,17.9-8.9
					C262.2,253.5,270.3,265.5,270.3,275.4z"/>
				<path opacity="0.15" d="M253.9,283.7c-9.9-4.9-17.9-17-17.9-26.8c0-4.9,1.9-8.3,5.1-9.9c-4,1.3-6.6,5-6.6,10.6
					c0,9.9,8,21.9,17.9,26.8c5,2.5,9.6,2.7,12.8,1C262.1,286.3,258.2,285.8,253.9,283.7z"/>
				<path fill="#2D3134" d="M261.3,269.6c0,4.1-3.3,5.8-7.5,3.7c-4.1-2.1-7.5-7.1-7.5-11.2s3.3-5.8,7.5-3.7
					C258,260.4,261.3,265.4,261.3,269.6z"/>
				<path opacity="0.29" d="M261.3,269.6c0,4.1-3.3,5.8-7.5,3.7c-4.1-2.1-7.5-7.1-7.5-11.2s3.3-5.8,7.5-3.7
					C258,260.4,261.3,265.4,261.3,269.6z"/>
				<path fill="#2D3134" d="M259.8,270.3c0,4.1-3.3,5.8-7.5,3.7c-4.1-2.1-7.5-7.1-7.5-11.2s3.3-5.8,7.5-3.7
					C256.5,261.1,259.8,266.1,259.8,270.3z"/>
				<path opacity="0.11" d="M280.4,280.6c0,15.5-12.5,21.7-28,14c-15.5-7.7-28-26.5-28-42s12.5-21.7,28-14S280.4,265.2,280.4,280.6z
					"/>
			</g>
		</g>
		<g>
			<g>
				<path fill="#2D3134" d="M247,241.1c-7.5-3.7-14.2-4.2-19.2-1.9l0,0l-14,7l0,0c-5.4,2.4-8.8,7.9-8.8,15.9c0,15.5,12.5,34.3,28,42
					c7.6,3.8,14.6,4.2,19.6,1.8c0,0,13.9-6.9,15.1-7.6c4.5-2.7,7.3-7.9,7.3-15.2C275,267.6,262.5,248.8,247,241.1z"/>
				<path opacity="0.29" d="M252.9,305.7c2-1,13.7-6.8,14.8-7.5c4.5-2.7,7.3-7.9,7.3-15.2c0-6.2-2.1-13-5.5-19.3l-14,7
					c3.4,6.4,5.5,13.1,5.5,19.3C261,297.7,257.9,303.1,252.9,305.7z"/>
				<path fill="#999999" d="M250.9,284.8c0,9.9-8,13.9-17.9,8.9c-9.9-4.9-17.9-17-17.9-26.8s8-13.9,17.9-8.9
					C242.9,263,250.9,275,250.9,284.8z"/>
				<path opacity="0.15" d="M234.5,293.2c-9.9-4.9-17.9-17-17.9-26.8c0-4.9,1.9-8.3,5.1-9.9c-4,1.3-6.6,5-6.6,10.6
					c0,9.9,8,21.9,17.9,26.8c5,2.5,9.6,2.7,12.8,1C242.7,295.8,238.8,295.3,234.5,293.2z"/>
				<path fill="#2D3134" d="M241.9,279c0,4.1-3.3,5.8-7.5,3.7c-4.1-2.1-7.5-7.1-7.5-11.2c0-4.1,3.3-5.8,7.5-3.7
					C238.6,269.9,241.9,274.9,241.9,279z"/>
				<path opacity="0.29" d="M241.9,279c0,4.1-3.3,5.8-7.5,3.7c-4.1-2.1-7.5-7.1-7.5-11.2c0-4.1,3.3-5.8,7.5-3.7
					C238.6,269.9,241.9,274.9,241.9,279z"/>
				<path fill="#2D3134" d="M240.5,279.7c0,4.1-3.3,5.8-7.5,3.7c-4.1-2.1-7.5-7.1-7.5-11.2c0-4.1,3.3-5.8,7.5-3.7
					C237.1,270.6,240.5,275.6,240.5,279.7z"/>
				<path opacity="0.11" d="M261,290.1c0,15.5-12.5,21.7-28,14c-15.5-7.7-28-26.5-28-42c0-15.5,12.5-21.7,28-14S261,274.6,261,290.1
					z"/>
			</g>
		</g>
		<polygon fill="#2D3134" points="212,239 248,221 284,239 248,257 		"/>
		<polygon fill="#2D3134" points="262,282 298,264 284,239 248,257 		"/>
		<polygon opacity="0.29" points="262,282 298,264 284,239 248,257 		"/>
	</g>
	<g>
		<polygon fill="#2D3134" points="160,80 20,150 20,160 62,181 82,181 222,111 		"/>
		<polygon opacity="0.11" points="20,150 20,160 62,181 82,181 		"/>
	</g>
	<g>
		<polygon fill="#2D3134" points="408,204 268,274 288,294 472,386 492,386 632,316 		"/>
		<polygon opacity="0.11" points="268,274 288,294 472,386 492,386 		"/>
	</g>
	<g>
		<polygon fill="#2D3134" points="160,70 20,140 20,150 640,460 780,390 780,380 		"/>
		<polygon opacity="0.11" points="20,140 20,150 640,460 640,450 		"/>
		<polygon opacity="0.15" points="140,80 132,84 752,394 760,390 		"/>
		<polygon opacity="0.15" points="48,126 40,130 660,440 668,436 		"/>
		<polygon opacity="0.29" points="780,380 780,390 640,460 640,450 		"/>
	</g>
	<g>
		<polygon fill="#2D3134" points="752,394 668,436 668,445.9 732,478 816,436 816,426 		"/>
		<polygon opacity="0.11" points="668,436 668,446 732,478 732,468 		"/>
		<polygon opacity="0.29" points="816,426 816,436 732,478 732,468 		"/>
	</g>
</g>
<g>
	<path fill="#2D3134" d="M965.3,441h-1v-30.7c0-1.1-0.6-2.1-1.5-2.7c-0.9-0.6-2.1-0.6-3-0.1l-2.3,1.1l-0.4-0.9l2.3-1.1
		c1.3-0.6,2.8-0.6,4,0.2c1.2,0.8,2,2.1,2,3.5V441z"/>
	<path fill="#2D3134" d="M959,416.6v20.9c0,1.9,2.1,3,3.6,1.9l0.5-0.4c2.5-1.8,4-4.7,4-7.7v-21c0-1.9-2.2-3-3.7-1.8l-0.8,0.6
		C960.4,410.9,959,413.7,959,416.6z"/>
	<path fill="#06547A" d="M801,237l-118,59v181l102,51l118-59V346c0-30.1-22.9-53.4-31.4-61L801,237z"/>
	<polygon opacity="0.29" points="785,405 785,528 903,469 903,346 	"/>
	<g>
		<path fill="#999999" d="M974,437c-7.2,0-13,2.9-13,6.5v49c0,3.6,5.8,6.5,13,6.5c7.2,0,13-2.9,13-6.5v-49
			C987,439.9,981.2,437,974,437z"/>
		<path opacity="0.2" d="M974,450c-7.2,0-13-2.9-13-6.5v49c0,3.6,5.8,6.5,13,6.5c7.2,0,13-2.9,13-6.5v-49
			C987,447.1,981.2,450,974,450z"/>
		<path fill="#999999" d="M974,490c-7.2,0-13-2.9-13-6.5v1c0,3.6,5.8,6.5,13,6.5c7.2,0,13-2.9,13-6.5v-1
			C987,487.1,981.2,490,974,490z"/>
		<path fill="#999999" d="M974,479.5c-7.2,0-13-2.9-13-6.5v1c0,3.6,5.8,6.5,13,6.5c7.2,0,13-2.9,13-6.5v-1
			C987,476.6,981.2,479.5,974,479.5z"/>
		<path fill="#999999" d="M974,469c-7.2,0-13-2.9-13-6.5v1c0,3.6,5.8,6.5,13,6.5c7.2,0,13-2.9,13-6.5v-1
			C987,466.1,981.2,469,974,469z"/>
		<path fill="#999999" d="M974,458.5c-7.2,0-13-2.9-13-6.5v1c0,3.6,5.8,6.5,13,6.5c7.2,0,13-2.9,13-6.5v-1
			C987,455.6,981.2,458.5,974,458.5z"/>
	</g>
	<g>
		<path fill="#2D3134" d="M914,352c-6.1,0-11,2.5-11,5.5v107c0,3,4.9,5.5,11,5.5s11-2.5,11-5.5v-107C925,354.5,920,352,914,352z"/>
		<ellipse opacity="0.8" cx="914" cy="357.5" rx="8.2" ry="3.4"/>
		<path fill="#2D3134" d="M933,485.4c0-1.8-1.4-3.9-3.2-4.8c-1.1-0.6-2.1-0.5-2.7,0.1c-2,0.7-4.1,0.4-5.9-0.7
			c-2.1-1.3-3.3-3.5-3.3-5.9V292.6h-7.9v181.5c0,5.2,2.6,9.9,7.1,12.7c2.4,1.5,5.1,2.2,7.8,2.2c2.3,0,4.5-0.5,6.7-1.6
			C931.6,487.4,933,486.6,933,485.4z"/>
		<path fill="#2D3134" d="M918.1,352.4v2.1c2.5,0.6,4.1,1.7,4.1,3c0,1.9-3.7,3.4-8.2,3.4s-8.2-1.5-8.2-3.4c0-1.3,1.7-2.4,4.1-3v-2.1
			c-4,0.8-6.9,2.8-6.9,5.1v107c0,3,4.9,5.5,11,5.5s11-2.5,11-5.5v-107C925,355.2,922.1,353.2,918.1,352.4z"/>
		<path opacity="0.2" d="M914,363c-6.1,0-11-2.5-11-5.5v107c0,3,4.9,5.5,11,5.5s11-2.5,11-5.5v-107C925,360.5,920,363,914,363z"/>
		<ellipse fill="#2D3134" cx="914" cy="292.6" rx="4" ry="2.6"/>
	</g>
	<polygon fill="#06547A" points="805,416 805,554 889,596 986,619 1034,595 1034,517 964,450 953,410 885,376 	"/>
	<path fill="#06547A" d="M1056,542c-6-13.3-28.5-23.3-41-25c-12.5-1.8-21.8,3.3-33,11s5.8,5.6,22,13.7c15.4,7.7,28.2,25.4,30.6,41.4
		l29.4-15C1064,568,1062,555.2,1056,542z"/>
	<path fill="#2D3134" d="M830,440.5v26.5c0,1.9,1.1,3.7,2.8,4.6l34.4,17.2c1.1,0.6,2.4-0.4,2.1-1.6l-3.5-15.8
		c-2.4-10.9-9.6-20.1-19.6-25.1l-14.1-7C831.1,438.7,830,439.4,830,440.5z"/>
	<path fill="#656565" d="M833.7,469.7c-1.1-0.5-1.7-1.6-1.7-2.8v-25.6l13.3,6.7c9.5,4.7,16.3,13.4,18.6,23.8l3.3,14.7L833.7,469.7z"
		/>
	<polygon fill="#2D3134" points="873,450 884,490 964,450 953,410 	"/>
	<polygon fill="#656565" points="876.6,456.2 953,418 961.6,448.9 885.3,487.1 	"/>
	<path fill="#2D3134" d="M705,349.1v15c0,1.8,1,3.5,2.7,4.3l57.6,28.8c2,1,4.3-1,3.5-3.1h0c-5-13.5-15-24.6-27.8-31l-32.3-16.2
		C707,346,705,347.2,705,349.1z"/>
	<path fill="#656565" d="M766.4,395.4c-0.1,0-0.2,0-0.2-0.1l-57.6-28.8c-1-0.5-1.6-1.4-1.6-2.5v-15c0-0.4,0.3-0.5,0.5-0.5
		c0.1,0,0.2,0,0.2,0.1l32.3,16.2c12.5,6.2,22,16.9,26.9,30c0,0.1,0.1,0.3,0,0.5C766.8,395.3,766.6,395.4,766.4,395.4L766.4,395.4z"
		/>
	<path fill="#2D3134" d="M707,393.2v16.7c0,2,1.2,3.9,3,4.8l19.5,9.7c1.6,0.8,3.6-0.4,3.6-2.2v-16.7c0-2-1.2-3.9-3-4.8l-19.5-9.7
		C708.9,390.2,707,391.4,707,393.2z"/>
	<path fill="#656565" d="M730.5,422.7c-0.1,0-0.1,0-0.2-0.1l-19.5-9.7c-1.2-0.6-1.9-1.7-1.9-3v-16.7c0-0.3,0.3-0.5,0.5-0.5
		c0.1,0,0.1,0,0.2,0.1l19.5,9.7c1.2,0.6,1.9,1.7,1.9,3v16.7c0,0.1,0,0.2-0.1,0.3C730.8,422.6,730.7,422.7,730.5,422.7L730.5,422.7z"
		/>
	<path fill="#2D3134" d="M848,354c0.2,1.7,0.6,3.6,0.9,5.4c0.4,2.2,2.8,3.3,4.8,2.4l29.2-14.6c1.3-0.7,2.1-2.1,1.8-3.6
		c-1.1-5.8-2.9-11.3-5.2-16.4c-0.8-1.7-2.8-2.4-4.5-1.6l-25.2,12.6c-1,0.5-1.7,1.5-1.8,2.6C847.5,344.5,847.3,349.3,848,354z"/>
	<path fill="#656565" d="M852.2,360.1c-0.6,0-1.2-0.4-1.3-1.1c-0.4-2-0.7-3.7-0.9-5.3c-0.5-3.7-0.5-8.1,0-12.8c0-0.4,0.3-0.8,0.7-1
		l25.2-12.6c0.2-0.1,0.4-0.1,0.6-0.1c0.5,0,1,0.3,1.2,0.8c2.4,5.3,4.1,10.6,5.1,15.9c0.1,0.6-0.2,1.2-0.7,1.5l-29.2,14.6
		C852.6,360,852.4,360.1,852.2,360.1L852.2,360.1z"/>
	<path fill="#2D3134" d="M840,357c-1.5-3.3-4.8-6.2-7.6-8.2c-1-0.7-2.3-0.8-3.4-0.3l-30.1,15c-1.6,0.8-2.3,2.7-1.5,4.4
		c2.1,4.6,3.8,9.6,4.9,14.8c0.5,2.1,2.8,3.2,4.7,2.3l33.3-16.7c1.3-0.7,2.1-2.1,1.8-3.6C841.8,362.3,841.1,359.4,840,357z"/>
	<path fill="#656565" d="M805.6,383.4c-0.5,0-1.1-0.3-1.3-1c-1.1-5.1-2.8-10.2-5.1-15.2c-0.3-0.7,0-1.4,0.6-1.8l30.1-15
		c0.2-0.1,0.4-0.1,0.6-0.1c0.3,0,0.5,0.1,0.8,0.2c3.5,2.5,5.9,5,6.9,7.4c0.9,2,1.6,4.4,2.1,7.3c0.1,0.6-0.2,1.2-0.7,1.4l-33.3,16.7
		C806,383.3,805.8,383.4,805.6,383.4L805.6,383.4z"/>
	<path opacity="0.2" d="M963.2,447.3L953,410l-80,40l0.9,3.3c8.6,0.8,17.4,1.2,26.5,1.2C923.2,454.6,944.6,451.9,963.2,447.3z"/>
	<path fill="#2D3134" d="M927.7,445.3c-0.6-0.5-1.5-0.5-2,0.1l-26.4,30c-0.5,0.6-0.5,1.5,0.1,2s1.5,0.5,2-0.1l7.1-8.1v6.9h1.8v-8.8
		h-0.1l17.6-20C928.4,446.7,928.3,445.8,927.7,445.3z"/>
	<path fill="#2D3134" d="M953.1,431.4c-0.6-0.5-1.5-0.5-2,0.1l-26.4,30c-0.5,0.6-0.5,1.5,0.1,2c0.6,0.5,1.5,0.5,2-0.1l6.3-7.2v7.6
		h1.8v-9.6l18.3-20.8C953.7,432.8,953.7,431.9,953.1,431.4z"/>
	<path fill="#2D3134" d="M851.8,494.4c-1.1,0-2.2-0.3-3.1-0.9c-1.8-1.1-2.8-3-2.8-5.1v-32.3c0-2.3,1.3-4.3,3.3-5.3l3.7-1.8l0.4,0.9
		l-3.7,1.8c-1.7,0.8-2.7,2.5-2.7,4.4v32.3c0,1.7,0.9,3.3,2.4,4.2c1.5,0.9,3.3,1,4.8,0.2l0.6-0.3l0.4,0.9l-0.6,0.3
		C853.6,494.2,852.7,494.4,851.8,494.4z"/>
	<path fill="#2D3134" d="M846,455.3l0.7-0.3c2.4-0.8,4.9,1,4.9,3.5V480c0,3.1-1.9,6-4.9,7.1l-0.9,0.3c-2.4,0.9-5.1-0.9-5.1-3.5
		v-21.5C840.9,459.3,843,456.4,846,455.3z"/>
	<g>
		<path opacity="0.2" d="M839.7,356.4c-1.6-3.1-4.6-5.7-7.2-7.6c-1-0.7-2.3-0.8-3.4-0.3l-30.1,15c-0.2,0.1-0.4,0.2-0.6,0.4
			C814.3,362.7,827.8,359.9,839.7,356.4z"/>
		<path opacity="0.2" d="M879.5,327.1c-0.8-1.7-2.8-2.4-4.5-1.6l-25.2,12.6c-1,0.5-1.7,1.5-1.8,2.6c-0.4,3.7-0.6,8.4,0,12.9
			c13.4-4.7,24.8-10.2,35.6-15.1C882.5,334.6,881.1,330.7,879.5,327.1z"/>
	</g>
	<path opacity="0.2" d="M707.5,387c0.4,0,0.8,0.1,1.1,0.3l22.9,11.5c2.1,1.1,3.4,3.2,3.4,5.6v43.6c0,1.6-1.3,2.5-2.5,2.5
		c-0.4,0-0.8-0.1-1.1-0.3l-22.9-11.5c-2.1-1.1-3.4-3.2-3.4-5.6v-43.6C705,388,706.3,387,707.5,387 M707.5,385
		c-2.4,0-4.5,1.9-4.5,4.5v43.6c0,3.1,1.8,6,4.5,7.4l22.9,11.5c0.7,0.3,1.4,0.5,2,0.5c2.4,0,4.5-1.9,4.5-4.5v-43.6
		c0-3.1-1.8-6-4.5-7.4l-22.9-11.5C708.9,385.2,708.2,385,707.5,385L707.5,385z"/>
	<path opacity="0.2" d="M707.5,447c0.4,0,0.8,0.1,1.1,0.3l22.9,11.5c2.1,1.1,3.4,3.2,3.4,5.6v21.6c0,1.6-1.3,2.5-2.5,2.5
		c-0.4,0-0.8-0.1-1.1-0.3l-22.9-11.5c-2.1-1.1-3.4-3.2-3.4-5.6v-21.6C705,448,706.3,447,707.5,447 M707.5,445
		c-2.4,0-4.5,1.9-4.5,4.5v21.6c0,3.1,1.8,6,4.5,7.4l22.9,11.5c0.7,0.3,1.4,0.5,2,0.5c2.4,0,4.5-1.9,4.5-4.5v-21.6
		c0-3.1-1.8-6-4.5-7.4l-22.9-11.5C708.9,445.2,708.2,445,707.5,445L707.5,445z"/>
	<g>
		<g>
			<g>
				<g>
					<polygon fill="#06547A" points="1058,543 1044,536 1022,547 1032,563 1036,565 1058,554 					"/>
				</g>
			</g>
		</g>
		<polygon opacity="0.11" points="1036,565 1032,563 1022,547 1036,554 		"/>
		<polygon fill="#FFFFFF" points="1057,553 1057,545 1037,555 1037,563 		"/>
		
			<ellipse transform="matrix(-0.6313 0.7756 -0.7756 -0.6313 2131.353 100.5474)" opacity="0.3" fill="#2D3134" cx="1041.8" cy="556.9" rx="3.1" ry="2"/>
		
			<ellipse transform="matrix(-0.6313 0.7756 -0.7756 -0.6313 2133.2529 95.6442)" opacity="0.3" fill="#2D3134" cx="1043.9" cy="554.9" rx="3.1" ry="2"/>
		<polygon fill="#FF9900" points="1050,556 1056,553 1056,548 1050,551 		"/>
		<polygon opacity="0.29" points="1036,565 1058,554 1058,543 1036,554 		"/>
	</g>
	<polygon opacity="0.2" points="822,432 824,433 824,563 822,562 	"/>
	<polygon opacity="0.2" fill="#FFFFFF" points="820,431 822,432 822,562 820,561 	"/>
	<polygon opacity="0.3" fill="#2D3134" points="830,482.5 830,487.5 840,492.5 840,487.5 	"/>
	<polygon opacity="0.3" fill="#FFFFFF" points="840,495 830,490 830,487.5 840,492.5 	"/>
	<path opacity="0.11" d="M683,296v181l102,51V405c0-30.1-22.9-53.4-31.4-61L683,296z"/>
	<polygon opacity="0.11" points="805,554 805,416 867,447 877,491 986,541 986,619 889,596 	"/>
	<g>
		<path fill="#999999" d="M795.2,531.1L795.2,531.1c-1.5-1.1-3.3-2-5.4-3l-48.5-24.3l0,0c-3.1-1.7-5.7-2.9-9.1-2.9
			c-8.4,0-15.2,6.6-15.2,15.1c0,5,2.6,9.5,6.1,11.9c2,1.4,3.2,1.9,4.8,2.7l48.5,24.2c3.1,1.4,5.8,2.7,9.2,2.7
			c8.4,0,15.1-6.5,15.1-14.9C800.8,537.8,798.9,533.9,795.2,531.1z"/>
		<path opacity="0.2" fill="#FFFFFF" d="M741.3,537c-3.5-2.4-6.1-7-6.1-11.9c0-8.4,6.8-15.1,15.2-15.1c2,0,3.6,0.4,5.3,1
			c-2.4-1.2-4.7-2-7.5-2c-8.4,0-15.2,6.6-15.2,15.1c0,5,2.6,9.5,6.1,11.9c2,1.4,3.2,1.9,4.8,2.7C743.9,538.7,743.4,538.4,741.3,537z
			"/>
		<path opacity="0.2" fill="#FFFFFF" d="M767.3,550c-3.5-2.4-6.1-7-6.1-11.9c0-8.4,6.8-15.1,15.2-15.1c2,0,3.6,0.4,5.3,1
			c-2.4-1.2-4.7-2-7.5-2c-8.4,0-15.2,6.6-15.2,15.1c0,5,2.6,9.5,6.1,11.9c2,1.4,3.2,1.9,4.8,2.7C769.9,551.7,769.4,551.4,767.3,550z
			"/>
		<path opacity="0.15" d="M785.7,553.6c-3.4,0-6.2-1.4-9.2-2.7l-48.5-24.2c-1.6-0.8-2.8-1.2-4.8-2.7c-3-2.1-5.4-5.8-6-9.9
			c-0.1,0.7-0.2,1.3-0.2,2c0,5,2.6,9.5,6.1,11.9c2,1.4,3.2,1.9,4.8,2.7l48.5,24.2c3.1,1.4,5.8,2.7,9.2,2.7c8.4,0,15.1-6.5,15.1-14.9
			c0-0.7-0.1-1.4-0.1-2.1C799.7,548.1,793.4,553.6,785.7,553.6z"/>
	</g>
	<g>
		<path fill="#2D3134" d="M934,584.3c-7.5-3.7-14.2-4.2-19.2-1.9l0,0l-14,7l0,0c-5.4,2.4-8.8,7.9-8.8,15.9c0,15.5,12.5,34.3,28,42
			c7.6,3.8,14.6,4.2,19.6,1.8c0,0,13.9-6.9,15.1-7.6c4.5-2.7,7.3-7.9,7.3-15.2C962,610.8,949.5,592,934,584.3z"/>
		<path opacity="0.29" d="M939.9,648.9c2-1,13.7-6.8,14.8-7.5c4.5-2.7,7.3-7.9,7.3-15.2c0-6.2-2.1-13-5.5-19.3l-14,7
			c3.4,6.4,5.5,13.1,5.5,19.3C948,641,944.9,646.3,939.9,648.9z"/>
		<path fill="#999999" d="M937.9,628.1c0,9.9-8,13.9-17.9,8.9c-9.9-4.9-17.9-17-17.9-26.8s8-13.9,17.9-8.9S937.9,618.2,937.9,628.1z
			"/>
		<path opacity="0.15" d="M921.5,636.4c-9.9-4.9-17.9-17-17.9-26.8c0-4.9,1.9-8.3,5.1-9.9c-4,1.3-6.6,5-6.6,10.6
			c0,9.9,8,21.9,17.9,26.8c5,2.5,9.6,2.7,12.8,1C929.7,639,925.8,638.5,921.5,636.4z"/>
		<path fill="#2D3134" d="M928.9,622.2c0,4.1-3.3,5.8-7.5,3.7c-4.1-2.1-7.5-7.1-7.5-11.2c0-4.1,3.3-5.8,7.5-3.7
			C925.6,613.1,928.9,618.1,928.9,622.2z"/>
		<path opacity="0.29" d="M928.9,622.2c0,4.1-3.3,5.8-7.5,3.7c-4.1-2.1-7.5-7.1-7.5-11.2c0-4.1,3.3-5.8,7.5-3.7
			C925.6,613.1,928.9,618.1,928.9,622.2z"/>
		<path fill="#2D3134" d="M927.5,622.9c0,4.1-3.3,5.8-7.5,3.7c-4.1-2.1-7.5-7.1-7.5-11.2s3.3-5.8,7.5-3.7
			C924.1,613.8,927.5,618.8,927.5,622.9z"/>
		<path opacity="0.11" d="M948,633.3c0,15.5-12.5,21.7-28,14s-28-26.5-28-42c0-15.5,12.5-21.7,28-14S948,617.8,948,633.3z"/>
	</g>
	<path fill="#06547A" d="M972,584c-6-13.3-28.5-23.3-41-25s-21.8,3.3-33,11s-11,24-11,24l2,2l0.1,0.5c1.4-15.2,14.7-20.9,30.9-12.8
		c15.4,7.7,28.2,25.4,30.6,41.4l29.4-15C980,610,978,597.3,972,584z"/>
	<g>
		<g>
			<g>
				<g>
					<polygon fill="#06547A" points="978,583 964,576 942,587 952,603 956,605 978,594 					"/>
				</g>
			</g>
		</g>
		<polygon opacity="0.11" points="956,605 952,603 942,587 956,594 		"/>
		<polygon fill="#FFFFFF" points="977,593 977,585 957,595 957,603 		"/>
		
			<ellipse transform="matrix(-0.6313 0.7756 -0.7756 -0.6313 2045.9396 211.1556)" opacity="0.3" fill="#2D3134" cx="972.8" cy="591.9" rx="3.1" ry="2"/>
		
			<ellipse transform="matrix(-0.6313 0.7756 -0.7756 -0.6313 2041.2341 213.3927)" opacity="0.3" fill="#2D3134" cx="969.9" cy="591.9" rx="3.1" ry="2"/>
		<polygon fill="#FF9900" points="958,602 964,599 964,594 958,597 		"/>
		<polygon opacity="0.29" points="956,605 978,594 978,583 956,594 		"/>
	</g>
	<g>
		<g>
			<polygon fill="#999999" points="1072,562 1068,560 948,620 948,651 952,653 1072,593 			"/>
		</g>
		<polygon opacity="0.11" points="952,653 948,651 948,620 952,622 		"/>
		<polygon opacity="0.5" points="958,644 970,638 970,627 958,633 		"/>
		<polygon opacity="0.5" points="986,616 996,611 996,604 986,609 		"/>
		<polygon opacity="0.5" points="1028,595 1038,590 1038,583 1028,588 		"/>
		<polygon opacity="0.5" points="1056,595 1066,590 1066,579 1056,584 		"/>
		<polygon opacity="0.29" points="952,653 1072,593 1072,562 952,622 		"/>
	</g>
	<g>
		<g>
			<polygon fill="#999999" points="1038,517 1034,515 1014,519 1002,525 982,541 982,603 986,605 1038,579 			"/>
		</g>
		<polygon opacity="0.6" points="990,597 1034,575 1034,573 990,595 		"/>
		<polygon opacity="0.6" points="990,593 1034,571 1034,569 990,591 		"/>
		<polygon opacity="0.6" points="990,589 1034,567 1034,565 990,587 		"/>
		<polygon opacity="0.6" points="990,585 1034,563 1034,561 990,583 		"/>
		<polygon opacity="0.6" points="990,581 1034,559 1034,557 990,579 		"/>
		<polygon opacity="0.6" points="990,577 1034,555 1034,553 990,575 		"/>
		<polygon opacity="0.6" points="990,573 1034,551 1034,549 990,571 		"/>
		<polygon opacity="0.6" points="990,569 1034,547 1034,545 990,567 		"/>
		<polygon opacity="0.6" points="990,565 1034,543 1034,541 990,563 		"/>
		<polygon opacity="0.6" points="990,561 1034,539 1034,537 990,559 		"/>
		<polygon opacity="0.6" points="990,557 1034,535 1034,533 990,555 		"/>
		<polygon opacity="0.6" points="990,553 1034,531 1034,529 990,551 		"/>
		<polygon opacity="0.6" points="990,549 1034,527 1034,525 990,547 		"/>
		<polygon fill="#999999" points="998,595 1002,593 1002,539 998,541 		"/>
		<polygon fill="#999999" points="1010,589 1014,587 1014,533 1010,535 		"/>
		<polygon fill="#999999" points="1022,583 1026,581 1026,527 1022,529 		"/>
		<polygon opacity="0.11" points="986,605 982,603 982,541 986,543 		"/>
		<polygon opacity="0.29" points="986,605 1038,579 1038,517 1018,521 1006,527 986,543 		"/>
	</g>
	<g>
		<path fill="#999999" d="M869,489c-7.2,0-13,2.9-13,6.5v49c0,3.6,5.8,6.5,13,6.5c7.2,0,13-2.9,13-6.5v-49
			C882,491.9,876.2,489,869,489z"/>
		<path opacity="0.2" d="M869,502c-7.2,0-13-2.9-13-6.5v49c0,3.6,5.8,6.5,13,6.5c7.2,0,13-2.9,13-6.5v-49
			C882,499.1,876.2,502,869,502z"/>
		<path fill="#999999" d="M869,542c-7.2,0-13-2.9-13-6.5v1c0,3.6,5.8,6.5,13,6.5c7.2,0,13-2.9,13-6.5v-1
			C882,539.1,876.2,542,869,542z"/>
		<path fill="#999999" d="M869,531.5c-7.2,0-13-2.9-13-6.5v1c0,3.6,5.8,6.5,13,6.5c7.2,0,13-2.9,13-6.5v-1
			C882,528.6,876.2,531.5,869,531.5z"/>
		<path fill="#999999" d="M869,521c-7.2,0-13-2.9-13-6.5v1c0,3.6,5.8,6.5,13,6.5c7.2,0,13-2.9,13-6.5v-1
			C882,518.1,876.2,521,869,521z"/>
		<path fill="#999999" d="M869,510.5c-7.2,0-13-2.9-13-6.5v1c0,3.6,5.8,6.5,13,6.5c7.2,0,13-2.9,13-6.5v-1
			C882,507.6,876.2,510.5,869,510.5z"/>
	</g>
	<g>
		<path fill="#06547A" d="M903,347l-102,51V424l61.9,31L965,404v0c0-8.5-17-23.3-23.4-29L903,347z"/>
		<path opacity="0.11" d="M801,398V424l61.9,31v0c0-8.5-17-23.3-23.4-29L801,398z"/>
	</g>
	<g>
		<path fill="#2D3134" d="M795,412c-6.1,0-11,2.5-11,5.5v107c0,3,4.9,5.5,11,5.5s11-2.5,11-5.5v-107C806,414.5,801.1,412,795,412z"
			/>
		<ellipse opacity="0.8" cx="795" cy="417.5" rx="8.2" ry="3.4"/>
		<path fill="#2D3134" d="M814.1,545.4c0-1.8-1.4-3.9-3.2-4.8c-1.1-0.6-2.1-0.5-2.7,0.1c-2,0.7-4.1,0.4-5.9-0.7
			c-2.1-1.3-3.3-3.5-3.3-5.9V352.6h-7.9v181.5c0,5.2,2.6,9.9,7.1,12.7c2.4,1.5,5.1,2.2,7.8,2.2c2.3,0,4.5-0.5,6.7-1.6
			C812.6,547.4,814.1,546.6,814.1,545.4z"/>
		<path fill="#2D3134" d="M799.1,412.4v2.1c2.5,0.6,4.1,1.7,4.1,3c0,1.9-3.7,3.4-8.2,3.4s-8.2-1.5-8.2-3.4c0-1.3,1.7-2.4,4.1-3v-2.1
			c-4,0.8-6.9,2.8-6.9,5.1v107c0,3,4.9,5.5,11,5.5s11-2.5,11-5.5v-107C806,415.2,803.1,413.2,799.1,412.4z"/>
		<path opacity="0.2" d="M795,423c-6.1,0-11-2.5-11-5.5v107c0,3,4.9,5.5,11,5.5s11-2.5,11-5.5v-107C806,420.5,801.1,423,795,423z"/>
		<ellipse fill="#2D3134" cx="795" cy="352.6" rx="4" ry="2.6"/>
	</g>
	<g>
		<g>
			<polygon fill="#999999" points="819,530 809,535 801,574 805,576 823,567 823,532 			"/>
			<polygon opacity="0.11" points="809,535 813,537 805,576 801,574 			"/>
			<polygon opacity="0.29" points="823,532 813,537 805,576 823,567 			"/>
		</g>
		<g>
			<polygon fill="#999999" points="819,543 813,546 813,550 863,575 865,566 			"/>
			<polygon opacity="0.11" points="813,546 813,550 863,575 863,571 			"/>
		</g>
		<g>
			<polygon fill="#999999" points="819,559 809,564 809,568 859,593 865,582 			"/>
			<polygon opacity="0.11" points="809,564 809,568 859,593 859,589 			"/>
		</g>
		<g>
			<polygon fill="#999999" points="873,557 863,562 855,601 859,603 877,594 877,559 			"/>
			<polygon opacity="0.11" points="863,562 867,564 859,603 855,601 			"/>
			<polygon opacity="0.29" points="877,559 867,564 859,603 877,594 			"/>
		</g>
	</g>
</g>
</svg>
