<?xml version="1.0" encoding="utf-8"?>
<!-- Generator: Adobe Illustrator 18.1.0, SVG Export Plug-In . SVG Version: 6.00 Build 0)  -->
<svg version="1.1" id="Layer_1" xmlns="http://www.w3.org/2000/svg" xmlns:xlink="http://www.w3.org/1999/xlink" x="0px" y="0px"
	 viewBox="0 0 32 32" enable-background="new 0 0 32 32" xml:space="preserve">
<g>
	<g>
		<polygon fill="#539B00" points="16,1 2,8 2,23 16,30 30,23 30,8 		"/>
		<polygon opacity="0.11" points="2,8 2,23 16,30 16,15 		"/>
		<polygon opacity="0.29" points="30,8 30,23 16,30 16,15 		"/>
	</g>
	<polygon opacity="0.15" points="28,22 24,24 24,13 28,11 	"/>
	<polygon opacity="0.15" points="22,25 18,27 18,16 22,14 	"/>
	<polygon opacity="0.15" points="5,11.5 4,11 4,22 5,22.5 	"/>
	<polygon opacity="0.15" points="7,12.5 6,12 6,23 7,23.5 	"/>
	<polygon opacity="0.15" points="9,13.5 8,13 8,24 9,24.5 	"/>
	<polygon opacity="0.15" points="11,14.5 10,14 10,25 11,25.5 	"/>
	<polygon opacity="0.15" points="13,15.5 12,15 12,26 13,26.5 	"/>
	<polygon opacity="0.15" points="15,16.5 14,16 14,27 15,27.5 	"/>
</g>
</svg>
