<?xml version="1.0" encoding="utf-8"?>
<!-- Generator: Adobe Illustrator 18.1.0, SVG Export Plug-In . SVG Version: 6.00 Build 0)  -->
<svg version="1.1" id="Layer_1" xmlns="http://www.w3.org/2000/svg" xmlns:xlink="http://www.w3.org/1999/xlink" x="0px" y="0px"
	 viewBox="0 0 56 40" enable-background="new 0 0 56 40" xml:space="preserve">
<g>
	<g>
		<polygon fill="#539B00" points="16,1 2,8 2,23 32,38 46,31 46,16 		"/>
		<polygon opacity="0.11" points="2,8 2,23 32,38 32,23 		"/>
		<polygon opacity="0.29" points="46,16 46,31 32,38 32,23 		"/>
	</g>
	<polygon opacity="0.15" points="44,30 40,32 40,21 44,19 	"/>
	<polygon opacity="0.15" points="38,33 34,35 34,24 38,22 	"/>
	<polygon opacity="0.15" points="5,11.5 4,11 4,22 5,22.5 	"/>
	<polygon opacity="0.15" points="7,12.5 6,12 6,23 7,23.5 	"/>
	<polygon opacity="0.15" points="9,13.5 8,13 8,24 9,24.5 	"/>
	<polygon opacity="0.15" points="11,14.5 10,14 10,25 11,25.5 	"/>
	<polygon opacity="0.15" points="13,15.5 12,15 12,26 13,26.5 	"/>
	<polygon opacity="0.15" points="15,16.5 14,16 14,27 15,27.5 	"/>
	<polygon opacity="0.15" points="17,17.5 16,17 16,28 17,28.5 	"/>
	<polygon opacity="0.15" points="19,18.5 18,18 18,29 19,29.5 	"/>
	<polygon opacity="0.15" points="21,19.5 20,19 20,30 21,30.5 	"/>
	<polygon opacity="0.15" points="23,20.5 22,20 22,31 23,31.5 	"/>
	<polygon opacity="0.15" points="25,21.5 24,21 24,32 25,32.5 	"/>
	<polygon opacity="0.15" points="27,22.5 26,22 26,33 27,33.5 	"/>
	<polygon opacity="0.15" points="29,23.5 28,23 28,34 29,34.5 	"/>
	<polygon opacity="0.15" points="31,24.5 30,24 30,35 31,35.5 	"/>
</g>
<g>
	<g>
		<polygon fill="#539B00" points="16,1 2,8 2,23 32,38 46,31 46,16 		"/>
		<polygon opacity="0.11" points="2,8 2,23 32,38 32,23 		"/>
		<polygon opacity="0.29" points="46,16 46,31 32,38 32,23 		"/>
	</g>
	<polygon opacity="0.15" points="44,30 40,32 40,21 44,19 	"/>
	<polygon opacity="0.15" points="38,33 34,35 34,24 38,22 	"/>
	<polygon opacity="0.15" points="5,11.5 4,11 4,22 5,22.5 	"/>
	<polygon opacity="0.15" points="7,12.5 6,12 6,23 7,23.5 	"/>
	<polygon opacity="0.15" points="9,13.5 8,13 8,24 9,24.5 	"/>
	<polygon opacity="0.15" points="11,14.5 10,14 10,25 11,25.5 	"/>
	<polygon opacity="0.15" points="13,15.5 12,15 12,26 13,26.5 	"/>
	<polygon opacity="0.15" points="15,16.5 14,16 14,27 15,27.5 	"/>
	<polygon opacity="0.15" points="17,17.5 16,17 16,28 17,28.5 	"/>
	<polygon opacity="0.15" points="19,18.5 18,18 18,29 19,29.5 	"/>
	<polygon opacity="0.15" points="21,19.5 20,19 20,30 21,30.5 	"/>
	<polygon opacity="0.15" points="23,20.5 22,20 22,31 23,31.5 	"/>
	<polygon opacity="0.15" points="25,21.5 24,21 24,32 25,32.5 	"/>
	<polygon opacity="0.15" points="27,22.5 26,22 26,33 27,33.5 	"/>
	<polygon opacity="0.15" points="29,23.5 28,23 28,34 29,34.5 	"/>
	<polygon opacity="0.15" points="31,24.5 30,24 30,35 31,35.5 	"/>
</g>
<g>
	<path opacity="0.15" d="M33,23.7v12.9l12-6V17.7L33,23.7z M44.5,30.3l-5.3,2.6V21.1l5.3-2.6V30.3z M33.5,24l5.3-2.6v11.8l-5.3,2.6
		V24z"/>
	<polygon fill="#2D3134" points="45.3,29.1 45.3,29.6 44.3,30.1 44.3,29.6 	"/>
	<polygon fill="#2D3134" points="33.8,34.8 33.8,35.3 32.8,35.8 32.8,35.3 	"/>
	<polygon fill="#2D3134" points="45.3,18.6 45.3,19.1 44.3,19.6 44.3,19.1 	"/>
	<polygon fill="#2D3134" points="33.8,24.3 33.8,24.8 32.8,25.3 32.8,24.8 	"/>
	<g>
		<defs>
			<polygon id="SVGID_1_" points="33,23.7 45,17.7 45,30.1 33,36.1 			"/>
		</defs>
		<clipPath id="SVGID_2_">
			<use xlink:href="#SVGID_1_"  overflow="visible"/>
		</clipPath>
		<g clip-path="url(#SVGID_2_)">
			<polygon fill="#FFCC00" points="32.4,23.6 32.4,29.6 39.2,33 45.8,29.7 45.8,23.7 39,20.3 			"/>
			<polygon opacity="0.11" points="39.2,33 32.4,29.6 32.4,23.6 39.2,27 			"/>
			<polygon opacity="0.3" points="36.6,21.5 34.8,22.4 41.6,25.8 41.6,28.7 43.4,27.8 43.4,24.9 			"/>
			<polygon opacity="0.29" points="39.2,33 45.8,29.7 45.8,23.7 39.2,27 			"/>
		</g>
		<g clip-path="url(#SVGID_2_)">
			<polygon fill="#FFCC00" points="25.4,27.1 25.4,33.1 32.2,36.5 38.8,33.2 38.8,27.2 32,23.8 			"/>
			<polygon opacity="0.11" points="32.2,36.5 25.4,33.1 25.4,27.1 32.2,30.5 			"/>
			<polygon opacity="0.3" points="29.6,25 27.8,25.9 34.6,29.3 34.6,32.2 36.4,31.3 36.4,28.4 			"/>
			<polygon opacity="0.29" points="32.2,36.5 38.8,33.2 38.8,27.2 32.2,30.5 			"/>
		</g>
		<g clip-path="url(#SVGID_2_)">
			<polygon fill="#FFCC00" points="32.4,17.2 32.4,23.2 39.2,26.6 45.8,23.3 45.8,17.3 39,13.9 			"/>
			<polygon opacity="0.11" points="39.2,26.6 32.4,23.2 32.4,17.2 39.2,20.6 			"/>
			<polygon opacity="0.3" points="36.6,15.1 34.8,16 41.6,19.4 41.6,22.3 43.4,21.4 43.4,18.5 			"/>
			<polygon opacity="0.29" points="39.2,26.6 45.8,23.3 45.8,17.3 39.2,20.6 			"/>
		</g>
		<g clip-path="url(#SVGID_2_)">
			<polygon fill="#FFCC00" points="25.4,20.7 25.4,26.7 32.2,30.1 38.8,26.8 38.8,20.8 32,17.4 			"/>
			<polygon opacity="0.11" points="32.2,30.1 25.4,26.7 25.4,20.7 32.2,24.1 			"/>
			<polygon opacity="0.3" points="29.6,18.6 27.8,19.5 34.6,22.9 34.6,25.8 36.4,24.9 36.4,22 			"/>
			<polygon opacity="0.29" points="32.2,30.1 38.8,26.8 38.8,20.8 32.2,24.1 			"/>
		</g>
	</g>
	<polygon fill="#539B00" points="45,17.6 51,15.5 51,28 45,30.1 	"/>
	<polygon opacity="0.39" points="45,17.6 51,15.5 51,28 45,30.1 	"/>
	<g>
		<polygon fill="#539B00" points="27,27.5 33,23.6 33,36.1 27,40 		"/>
		<polygon opacity="0.39" points="27,27.5 33,23.6 33,36.1 27,40 		"/>
	</g>
</g>
</svg>
