<?xml version="1.0" encoding="utf-8"?>
<!-- Generator: Adobe Illustrator 18.1.0, SVG Export Plug-In . SVG Version: 6.00 Build 0)  -->
<svg version="1.1" id="Layer_1" xmlns="http://www.w3.org/2000/svg" xmlns:xlink="http://www.w3.org/1999/xlink" x="0px" y="0px"
	 viewBox="0 0 48 40" enable-background="new 0 0 48 40" xml:space="preserve">
<g>
	<g>
		<polygon fill="#539B00" points="16,14 2,21 2,23 32,38 46,31 46,29 		"/>
		<polygon opacity="0.11" points="2,21 2,23 32,38 32,36 		"/>
		<polygon opacity="0.29" points="46,29 46,31 32,38 32,36 		"/>
	</g>
	<g>
		<polygon fill="#539B00" points="44,15 30,22 30,37 32,38 46,31 46,16 		"/>
		<polygon opacity="0.11" points="30,22 30,37 32,38 32,23 		"/>
		<polygon opacity="0.29" points="46,16 46,31 32,38 32,23 		"/>
	</g>
	<g>
		<polygon fill="#539B00" points="16,1 2,8 2,21 4,22 18,15 18,2 		"/>
		<polygon opacity="0.11" points="2,8 2,21 4,22 4,9 		"/>
		<polygon opacity="0.29" points="18,2 18,15 4,22 4,9 		"/>
	</g>
	<polygon opacity="0.15" points="35,23.5 34,24 34,35 35,34.5 	"/>
	<polygon opacity="0.15" points="37,22.5 36,23 36,34 37,33.5 	"/>
	<polygon opacity="0.15" points="39,21.5 38,22 38,33 39,32.5 	"/>
	<polygon opacity="0.15" points="41,20.5 40,21 40,32 41,31.5 	"/>
	<polygon opacity="0.15" points="43,19.5 42,20 42,31 43,30.5 	"/>
	<polygon opacity="0.15" points="45,18.5 44,19 44,30 45,29.5 	"/>
</g>
</svg>
