<?xml version="1.0" encoding="utf-8"?>
<!-- Generator: Adobe Illustrator 18.1.0, SVG Export Plug-In . SVG Version: 6.00 Build 0)  -->
<svg version="1.1" id="Layer_1" xmlns="http://www.w3.org/2000/svg" xmlns:xlink="http://www.w3.org/1999/xlink" x="0px" y="0px"
	 viewBox="0 0 480 400" enable-background="new 0 0 480 400" xml:space="preserve">
<g>
	<polygon opacity="0.3" points="16,196 157,126 448,272 308,342 	"/>
	<g>
		<polygon fill="#2D3134" points="120,100 156,82 144,102 108,120 		"/>
		<polygon opacity="0.29" points="120,100 156,82 144,102 108,120 		"/>
		<g>
			<g>
				<path fill="#2D3134" d="M174.4,92.6c-7.5-3.7-14.2-4.2-19.2-1.9l0,0l-14,7l0,0c-5.4,2.4-8.8,7.9-8.8,15.9
					c0,15.5,12.5,34.3,28,42c7.6,3.8,14.6,4.2,19.6,1.8c0,0,13.9-6.9,15.1-7.6c4.5-2.7,7.3-7.9,7.3-15.2
					C202.4,119.2,189.8,100.4,174.4,92.6z"/>
				<path opacity="0.29" d="M180.3,157.2c2-1,13.7-6.8,14.8-7.5c4.5-2.7,7.3-7.9,7.3-15.2c0-6.2-2.1-13-5.5-19.3l-14,7
					c3.4,6.4,5.5,13.1,5.5,19.3C188.4,149.3,185.3,154.7,180.3,157.2z"/>
				<path fill="#999999" d="M178.3,136.4c0,9.9-8,13.9-17.9,8.9c-9.9-4.9-17.9-17-17.9-26.8s8-13.9,17.9-8.9
					C170.2,114.5,178.3,126.5,178.3,136.4z"/>
				<path opacity="0.15" d="M161.9,144.7c-9.9-4.9-17.9-17-17.9-26.8c0-4.9,1.9-8.3,5.1-9.9c-4,1.3-6.6,5-6.6,10.6
					c0,9.9,8,21.9,17.9,26.8c5,2.5,9.6,2.7,12.8,1C170.1,147.3,166.2,146.8,161.9,144.7z"/>
				<path fill="#2D3134" d="M169.3,130.6c0,4.1-3.3,5.8-7.5,3.7c-4.1-2.1-7.5-7.1-7.5-11.2c0-4.1,3.3-5.8,7.5-3.7
					C166,121.4,169.3,126.4,169.3,130.6z"/>
				<path opacity="0.29" d="M169.3,130.6c0,4.1-3.3,5.8-7.5,3.7c-4.1-2.1-7.5-7.1-7.5-11.2c0-4.1,3.3-5.8,7.5-3.7
					C166,121.4,169.3,126.4,169.3,130.6z"/>
				<path fill="#2D3134" d="M167.8,131.3c0,4.1-3.3,5.8-7.5,3.7c-4.1-2.1-7.5-7.1-7.5-11.2c0-4.1,3.3-5.8,7.5-3.7
					C164.5,122.1,167.8,127.1,167.8,131.3z"/>
				<path opacity="0.11" d="M188.4,141.6c0,15.5-12.5,21.7-28,14s-28-26.5-28-42s12.5-21.7,28-14S188.4,126.2,188.4,141.6z"/>
			</g>
		</g>
		<g>
			<g>
				<path fill="#2D3134" d="M155,102.1c-7.5-3.7-14.2-4.2-19.2-1.9l0,0l-14,7l0,0c-5.4,2.4-8.8,7.9-8.8,15.9c0,15.5,12.5,34.3,28,42
					c7.6,3.8,14.6,4.2,19.6,1.8c0,0,13.9-6.9,15.1-7.6c4.5-2.7,7.3-7.9,7.3-15.2C183,128.6,170.5,109.8,155,102.1z"/>
				<path opacity="0.29" d="M160.9,166.7c2-1,13.7-6.8,14.8-7.5c4.5-2.7,7.3-7.9,7.3-15.2c0-6.2-2.1-13-5.5-19.3l-14,7
					c3.4,6.4,5.5,13.1,5.5,19.3C169,158.7,165.9,164.1,160.9,166.7z"/>
				<path fill="#999999" d="M158.9,145.8c0,9.9-8,13.9-17.9,8.9c-9.9-4.9-17.9-17-17.9-26.8s8-13.9,17.9-8.9
					C150.9,124,158.9,136,158.9,145.8z"/>
				<path opacity="0.15" d="M142.5,154.2c-9.9-4.9-17.9-17-17.9-26.8c0-4.9,1.9-8.3,5.1-9.9c-4,1.3-6.6,5-6.6,10.6
					c0,9.9,8,21.9,17.9,26.8c5,2.5,9.6,2.7,12.8,1C150.7,156.8,146.8,156.3,142.5,154.2z"/>
				<path fill="#2D3134" d="M149.9,140c0,4.1-3.3,5.8-7.5,3.7c-4.1-2.1-7.5-7.1-7.5-11.2s3.3-5.8,7.5-3.7
					C146.6,130.9,149.9,135.9,149.9,140z"/>
				<path opacity="0.29" d="M149.9,140c0,4.1-3.3,5.8-7.5,3.7c-4.1-2.1-7.5-7.1-7.5-11.2s3.3-5.8,7.5-3.7
					C146.6,130.9,149.9,135.9,149.9,140z"/>
				<path fill="#2D3134" d="M148.5,140.7c0,4.1-3.3,5.8-7.5,3.7s-7.5-7.1-7.5-11.2c0-4.1,3.3-5.8,7.5-3.7S148.5,136.6,148.5,140.7z"
					/>
				<path opacity="0.11" d="M169,151.1c0,15.5-12.5,21.7-28,14c-15.5-7.7-28-26.5-28-42s12.5-21.7,28-14S169,135.6,169,151.1z"/>
			</g>
		</g>
		<polygon fill="#2D3134" points="120,100 156,82 192,100 156,118 		"/>
		<polygon fill="#2D3134" points="170,143 206,125 192,100 156,118 		"/>
		<polygon opacity="0.29" points="170,143 206,125 192,100 156,118 		"/>
	</g>
	<g>
		<polygon fill="#2D3134" points="178,129 214,111 202,131 166,149 		"/>
		<polygon opacity="0.29" points="178,129 214,111 202,131 166,149 		"/>
		<g>
			<g>
				<path fill="#2D3134" d="M232.4,121.6c-7.5-3.7-14.2-4.2-19.2-1.9l0,0l-14,7l0,0c-5.4,2.4-8.8,7.9-8.8,15.9
					c0,15.5,12.5,34.3,28,42c7.6,3.8,14.6,4.2,19.6,1.8c0,0,13.9-6.9,15.1-7.6c4.5-2.7,7.3-7.9,7.3-15.2
					C260.4,148.2,247.8,129.4,232.4,121.6z"/>
				<path opacity="0.29" d="M238.3,186.2c2-1,13.7-6.8,14.8-7.5c4.5-2.7,7.3-7.9,7.3-15.2c0-6.2-2.1-13-5.5-19.3l-14,7
					c3.4,6.4,5.5,13.1,5.5,19.3C246.4,178.3,243.3,183.7,238.3,186.2z"/>
				<path fill="#999999" d="M236.3,165.4c0,9.9-8,13.9-17.9,8.9c-9.9-4.9-17.9-17-17.9-26.8c0-9.9,8-13.9,17.9-8.9
					S236.3,155.5,236.3,165.4z"/>
				<path opacity="0.15" d="M219.9,173.7c-9.9-4.9-17.9-17-17.9-26.8c0-4.9,1.9-8.3,5.1-9.9c-4,1.3-6.6,5-6.6,10.6
					c0,9.9,8,21.9,17.9,26.8c5,2.5,9.6,2.7,12.8,1C228.1,176.3,224.2,175.8,219.9,173.7z"/>
				<path fill="#2D3134" d="M227.3,159.6c0,4.1-3.3,5.8-7.5,3.7c-4.1-2.1-7.5-7.1-7.5-11.2c0-4.1,3.3-5.8,7.5-3.7
					C224,150.4,227.3,155.4,227.3,159.6z"/>
				<path opacity="0.29" d="M227.3,159.6c0,4.1-3.3,5.8-7.5,3.7c-4.1-2.1-7.5-7.1-7.5-11.2c0-4.1,3.3-5.8,7.5-3.7
					C224,150.4,227.3,155.4,227.3,159.6z"/>
				<path fill="#2D3134" d="M225.8,160.3c0,4.1-3.3,5.8-7.5,3.7c-4.1-2.1-7.5-7.1-7.5-11.2c0-4.1,3.3-5.8,7.5-3.7
					S225.8,156.1,225.8,160.3z"/>
				<path opacity="0.11" d="M246.4,170.6c0,15.5-12.5,21.7-28,14s-28-26.5-28-42s12.5-21.7,28-14S246.4,155.2,246.4,170.6z"/>
			</g>
		</g>
		<g>
			<g>
				<path fill="#2D3134" d="M213,131.1c-7.5-3.7-14.2-4.2-19.2-1.9l0,0l-14,7l0,0c-5.4,2.4-8.8,7.9-8.8,15.9c0,15.5,12.5,34.3,28,42
					c7.6,3.8,14.6,4.2,19.6,1.8c0,0,13.9-6.9,15.1-7.6c4.5-2.7,7.3-7.9,7.3-15.2C241,157.6,228.5,138.8,213,131.1z"/>
				<path opacity="0.29" d="M218.9,195.7c2-1,13.7-6.8,14.8-7.5c4.5-2.7,7.3-7.9,7.3-15.2c0-6.2-2.1-13-5.5-19.3l-14,7
					c3.4,6.4,5.5,13.1,5.5,19.3C227,187.7,223.9,193.1,218.9,195.7z"/>
				<path fill="#999999" d="M216.9,174.8c0,9.9-8,13.9-17.9,8.9c-9.9-4.9-17.9-17-17.9-26.8c0-9.9,8-13.9,17.9-8.9
					S216.9,165,216.9,174.8z"/>
				<path opacity="0.15" d="M200.5,183.2c-9.9-4.9-17.9-17-17.9-26.8c0-4.9,1.9-8.3,5.1-9.9c-4,1.3-6.6,5-6.6,10.6
					c0,9.9,8,21.9,17.9,26.8c5,2.5,9.6,2.7,12.8,1C208.7,185.8,204.8,185.3,200.5,183.2z"/>
				<path fill="#2D3134" d="M207.9,169c0,4.1-3.3,5.8-7.5,3.7c-4.1-2.1-7.5-7.1-7.5-11.2s3.3-5.8,7.5-3.7
					C204.6,159.9,207.9,164.9,207.9,169z"/>
				<path opacity="0.29" d="M207.9,169c0,4.1-3.3,5.8-7.5,3.7c-4.1-2.1-7.5-7.1-7.5-11.2s3.3-5.8,7.5-3.7
					C204.6,159.9,207.9,164.9,207.9,169z"/>
				<path fill="#2D3134" d="M206.5,169.7c0,4.1-3.3,5.8-7.5,3.7s-7.5-7.1-7.5-11.2c0-4.1,3.3-5.8,7.5-3.7S206.5,165.6,206.5,169.7z"
					/>
				<path opacity="0.11" d="M227,180.1c0,15.5-12.5,21.7-28,14c-15.5-7.7-28-26.5-28-42s12.5-21.7,28-14
					C214.5,145.8,227,164.6,227,180.1z"/>
			</g>
		</g>
		<polygon fill="#2D3134" points="178,129 214,111 250,129 214,147 		"/>
		<polygon fill="#2D3134" points="228,172 264,154 250,129 214,147 		"/>
		<polygon opacity="0.29" points="228,172 264,154 250,129 214,147 		"/>
	</g>
	<g>
		<polygon fill="#06547A" points="275,140 265,145 265,176 327,207 337,202 337,171 		"/>
		<polygon opacity="0.11" points="265,145 265,176 327,207 327,176 		"/>
		<polygon opacity="0.29" points="337,171 337,202 327,207 327,176 		"/>
	</g>
	<g>
		<polygon fill="#999999" points="265,152 245,162 245,189 297,215 317,205 317,178 		"/>
		<polygon fill="#2D3134" points="279,159 275,157 255,167 255,194 259,196 259,169 		"/>
		<polygon fill="#2D3134" points="307,173 303,171 283,181 283,208 287,210 287,183 		"/>
		<polygon opacity="0.29" points="317,178 317,205 297,215 297,188 		"/>
		<polygon opacity="0.11" points="245,162 245,189 297,215 297,188 		"/>
	</g>
	<g>
		<polygon fill="#06547A" points="131,112 127,114 127,145 289,226 293,224 293,193 		"/>
		<polygon opacity="0.11" points="127,114 127,145 289,226 289,195 		"/>
		<polygon opacity="0.29" points="293,193 293,224 289,226 289,195 		"/>
	</g>
	<g>
		<polygon fill="#06547A" points="127,116 91,134 91,165 115,177 151,159 151,128 		"/>
		<polygon opacity="0.11" points="91,134 91,165 115,177 115,146 		"/>
		<polygon opacity="0.29" points="151,128 151,159 115,177 115,146 		"/>
	</g>
	<g>
		<polygon fill="#06547A" points="151,142 141,147 141,163 239,212 249,207 249,191 		"/>
		<polygon opacity="0.11" points="141,147 141,163 239,212 239,196 		"/>
		<polygon opacity="0.29" points="249,191 249,207 239,212 239,196 		"/>
	</g>
	<g>
		<path fill="#2D3134" d="M183.1,138.7c-9.4-4.7-43.3-9.3-43.3-9.3v2.6l19.5,18.2l-36.4-9.7c-3.3,7.1,3.5,16.7,13.4,21.7
			c12.9,6.5,33.9,6.5,46.8,0S196,145.2,183.1,138.7z"/>
		<path opacity="0.2" d="M183.1,138.7c-9.4-4.7-43.3-9.3-43.3-9.3v2.6l19.5,18.2l-36.4-9.7c-3.3,7.1,3.5,16.7,13.4,21.7
			c12.9,6.5,33.9,6.5,46.8,0S196,145.2,183.1,138.7z"/>
		<path fill="#2D3134" d="M139.8,129.4l19.5,18.2l-36.4-9.7c-3.3,7.1,3.5,16.7,13.4,21.7c12.9,6.5,33.9,6.5,46.8,0
			c12.9-6.5,12.9-16.9,0-23.4C173.2,131.2,154,127.8,139.8,129.4z"/>
	</g>
	<g>
		<polygon fill="#06547A" points="263,184 227,202 227,233 251,245 287,227 287,196 		"/>
		<polygon opacity="0.11" points="227,202 227,233 251,245 251,214 		"/>
		<polygon opacity="0.29" points="287,196 287,227 251,245 251,214 		"/>
	</g>
	<g>
		<polygon fill="#06547A" points="87,134 83,136 83,167 245,248 249,246 249,215 		"/>
		<polygon opacity="0.11" points="83,136 83,167 245,248 245,217 		"/>
		<polygon opacity="0.29" points="249,215 249,246 245,248 245,217 		"/>
	</g>
	<g>
		<polygon fill="#2D3134" points="27,147 63,129 51,149 15,167 		"/>
		<polygon opacity="0.29" points="27,147 63,129 51,149 15,167 		"/>
		<g>
			<g>
				<path fill="#2D3134" d="M81.4,139.6c-7.5-3.7-14.2-4.2-19.2-1.9l0,0l-14,7l0,0c-5.4,2.4-8.8,7.9-8.8,15.9
					c0,15.5,12.5,34.3,28,42c7.6,3.8,14.6,4.2,19.6,1.8c0,0,13.9-6.9,15.1-7.6c4.5-2.7,7.3-7.9,7.3-15.2
					C109.4,166.2,96.8,147.4,81.4,139.6z"/>
				<path opacity="0.29" d="M87.3,204.2c2-1,13.7-6.8,14.8-7.5c4.5-2.7,7.3-7.9,7.3-15.2c0-6.2-2.1-13-5.5-19.3l-14,7
					c3.4,6.4,5.5,13.1,5.5,19.3C95.4,196.3,92.3,201.7,87.3,204.2z"/>
				<path fill="#999999" d="M85.3,183.4c0,9.9-8,13.9-17.9,8.9c-9.9-4.9-17.9-17-17.9-26.8c0-9.9,8-13.9,17.9-8.9
					S85.3,173.5,85.3,183.4z"/>
				<path opacity="0.15" d="M68.9,191.7c-9.9-4.9-17.9-17-17.9-26.8c0-4.9,1.9-8.3,5.1-9.9c-4,1.3-6.6,5-6.6,10.6
					c0,9.9,8,21.9,17.9,26.8c5,2.5,9.6,2.7,12.8,1C77.1,194.3,73.2,193.8,68.9,191.7z"/>
				<path fill="#2D3134" d="M76.3,177.6c0,4.1-3.3,5.8-7.5,3.7c-4.1-2.1-7.5-7.1-7.5-11.2c0-4.1,3.3-5.8,7.5-3.7
					C73,168.4,76.3,173.4,76.3,177.6z"/>
				<path opacity="0.29" d="M76.3,177.6c0,4.1-3.3,5.8-7.5,3.7c-4.1-2.1-7.5-7.1-7.5-11.2c0-4.1,3.3-5.8,7.5-3.7
					C73,168.4,76.3,173.4,76.3,177.6z"/>
				<path fill="#2D3134" d="M74.8,178.3c0,4.1-3.3,5.8-7.5,3.7c-4.1-2.1-7.5-7.1-7.5-11.2c0-4.1,3.3-5.8,7.5-3.7
					S74.8,174.1,74.8,178.3z"/>
				<path opacity="0.11" d="M95.4,188.6c0,15.5-12.5,21.7-28,14s-28-26.5-28-42s12.5-21.7,28-14S95.4,173.2,95.4,188.6z"/>
			</g>
		</g>
		<g>
			<g>
				<path fill="#2D3134" d="M62,149.1c-7.5-3.7-14.2-4.2-19.2-1.9l0,0l-14,7l0,0c-5.4,2.4-8.8,7.9-8.8,15.9c0,15.5,12.5,34.3,28,42
					c7.6,3.8,14.6,4.2,19.6,1.8c0,0,13.9-6.9,15.1-7.6c4.5-2.7,7.3-7.9,7.3-15.2C90,175.6,77.5,156.8,62,149.1z"/>
				<path opacity="0.29" d="M67.9,213.7c2-1,13.7-6.8,14.8-7.5c4.5-2.7,7.3-7.9,7.3-15.2c0-6.2-2.1-13-5.5-19.3l-14,7
					c3.4,6.4,5.5,13.1,5.5,19.3C76,205.7,72.9,211.1,67.9,213.7z"/>
				<path fill="#999999" d="M65.9,192.8c0,9.9-8,13.9-17.9,8.9c-9.9-4.9-17.9-17-17.9-26.8c0-9.9,8-13.9,17.9-8.9
					S65.9,183,65.9,192.8z"/>
				<path opacity="0.15" d="M49.5,201.2c-9.9-4.9-17.9-17-17.9-26.8c0-4.9,1.9-8.3,5.1-9.9c-4,1.3-6.6,5-6.6,10.6
					c0,9.9,8,21.9,17.9,26.8c5,2.5,9.6,2.7,12.8,1C57.7,203.8,53.8,203.3,49.5,201.2z"/>
				<path fill="#2D3134" d="M56.9,187c0,4.1-3.3,5.8-7.5,3.7c-4.1-2.1-7.5-7.1-7.5-11.2s3.3-5.8,7.5-3.7
					C53.6,177.9,56.9,182.9,56.9,187z"/>
				<path opacity="0.29" d="M56.9,187c0,4.1-3.3,5.8-7.5,3.7c-4.1-2.1-7.5-7.1-7.5-11.2s3.3-5.8,7.5-3.7
					C53.6,177.9,56.9,182.9,56.9,187z"/>
				<path fill="#2D3134" d="M55.5,187.7c0,4.1-3.3,5.8-7.5,3.7s-7.5-7.1-7.5-11.2c0-4.1,3.3-5.8,7.5-3.7S55.5,183.6,55.5,187.7z"/>
				<path opacity="0.11" d="M76,198.1c0,15.5-12.5,21.7-28,14c-15.5-7.7-28-26.5-28-42s12.5-21.7,28-14
					C63.5,163.8,76,182.6,76,198.1z"/>
			</g>
		</g>
		<polygon fill="#2D3134" points="27,147 63,129 99,147 63,165 		"/>
		<polygon fill="#2D3134" points="77,190 113,172 99,147 63,165 		"/>
		<polygon opacity="0.29" points="77,190 113,172 99,147 63,165 		"/>
	</g>
	<g>
		<polygon fill="#2D3134" points="85,176 121,158 109,178 73,196 		"/>
		<polygon opacity="0.29" points="85,176 121,158 109,178 73,196 		"/>
		<g>
			<g>
				<path fill="#2D3134" d="M139.4,168.6c-7.5-3.7-14.2-4.2-19.2-1.9l0,0l-14,7l0,0c-5.4,2.4-8.8,7.9-8.8,15.9
					c0,15.5,12.5,34.3,28,42c7.6,3.8,14.6,4.2,19.6,1.8c0,0,13.9-6.9,15.1-7.6c4.5-2.7,7.3-7.9,7.3-15.2
					C167.4,195.2,154.8,176.4,139.4,168.6z"/>
				<path opacity="0.29" d="M145.3,233.2c2-1,13.7-6.8,14.8-7.5c4.5-2.7,7.3-7.9,7.3-15.2c0-6.2-2.1-13-5.5-19.3l-14,7
					c3.4,6.4,5.5,13.1,5.5,19.3C153.4,225.3,150.3,230.7,145.3,233.2z"/>
				<path fill="#999999" d="M143.3,212.4c0,9.9-8,13.9-17.9,8.9c-9.9-4.9-17.9-17-17.9-26.8c0-9.9,8-13.9,17.9-8.9
					S143.3,202.5,143.3,212.4z"/>
				<path opacity="0.15" d="M126.9,220.7c-9.9-4.9-17.9-17-17.9-26.8c0-4.9,1.9-8.3,5.1-9.9c-4,1.3-6.6,5-6.6,10.6
					c0,9.9,8,21.9,17.9,26.8c5,2.5,9.6,2.7,12.8,1C135.1,223.3,131.2,222.8,126.9,220.7z"/>
				<path fill="#2D3134" d="M134.3,206.6c0,4.1-3.3,5.8-7.5,3.7c-4.1-2.1-7.5-7.1-7.5-11.2c0-4.1,3.3-5.8,7.5-3.7
					C131,197.4,134.3,202.4,134.3,206.6z"/>
				<path opacity="0.29" d="M134.3,206.6c0,4.1-3.3,5.8-7.5,3.7c-4.1-2.1-7.5-7.1-7.5-11.2c0-4.1,3.3-5.8,7.5-3.7
					C131,197.4,134.3,202.4,134.3,206.6z"/>
				<path fill="#2D3134" d="M132.8,207.3c0,4.1-3.3,5.8-7.5,3.7c-4.1-2.1-7.5-7.1-7.5-11.2c0-4.1,3.3-5.8,7.5-3.7
					C129.5,198.1,132.8,203.1,132.8,207.3z"/>
				<path opacity="0.11" d="M153.4,217.6c0,15.5-12.5,21.7-28,14s-28-26.5-28-42s12.5-21.7,28-14S153.4,202.2,153.4,217.6z"/>
			</g>
		</g>
		<g>
			<g>
				<path fill="#2D3134" d="M120,178.1c-7.5-3.7-14.2-4.2-19.2-1.9l0,0l-14,7l0,0c-5.4,2.4-8.8,7.9-8.8,15.9c0,15.5,12.5,34.3,28,42
					c7.6,3.8,14.6,4.2,19.6,1.8c0,0,13.9-6.9,15.1-7.6c4.5-2.7,7.3-7.9,7.3-15.2C148,204.6,135.5,185.8,120,178.1z"/>
				<path opacity="0.29" d="M125.9,242.7c2-1,13.7-6.8,14.8-7.5c4.5-2.7,7.3-7.9,7.3-15.2c0-6.2-2.1-13-5.5-19.3l-14,7
					c3.4,6.4,5.5,13.1,5.5,19.3C134,234.7,130.9,240.1,125.9,242.7z"/>
				<path fill="#999999" d="M123.9,221.8c0,9.9-8,13.9-17.9,8.9c-9.9-4.9-17.9-17-17.9-26.8c0-9.9,8-13.9,17.9-8.9
					S123.9,212,123.9,221.8z"/>
				<path opacity="0.15" d="M107.5,230.2c-9.9-4.9-17.9-17-17.9-26.8c0-4.9,1.9-8.3,5.1-9.9c-4,1.3-6.6,5-6.6,10.6
					c0,9.9,8,21.9,17.9,26.8c5,2.5,9.6,2.7,12.8,1C115.7,232.8,111.8,232.3,107.5,230.2z"/>
				<path fill="#2D3134" d="M114.9,216c0,4.1-3.3,5.8-7.5,3.7c-4.1-2.1-7.5-7.1-7.5-11.2s3.3-5.8,7.5-3.7
					C111.6,206.9,114.9,211.9,114.9,216z"/>
				<path opacity="0.29" d="M114.9,216c0,4.1-3.3,5.8-7.5,3.7c-4.1-2.1-7.5-7.1-7.5-11.2s3.3-5.8,7.5-3.7
					C111.6,206.9,114.9,211.9,114.9,216z"/>
				<path fill="#2D3134" d="M113.5,216.7c0,4.1-3.3,5.8-7.5,3.7s-7.5-7.1-7.5-11.2c0-4.1,3.3-5.8,7.5-3.7S113.5,212.6,113.5,216.7z"
					/>
				<path opacity="0.11" d="M134,227.1c0,15.5-12.5,21.7-28,14c-15.5-7.7-28-26.5-28-42s12.5-21.7,28-14
					C121.5,192.8,134,211.6,134,227.1z"/>
			</g>
		</g>
		<polygon fill="#2D3134" points="85,176 121,158 157,176 121,194 		"/>
		<polygon fill="#2D3134" points="135,219 171,201 157,176 121,194 		"/>
		<polygon opacity="0.29" points="135,219 171,201 157,176 121,194 		"/>
	</g>
	<g>
		<polygon fill="#999999" points="181,194 161,204 161,231 213,257 233,247 233,220 		"/>
		<polygon fill="#2D3134" points="195,201 191,199 171,209 171,236 175,238 175,211 		"/>
		<polygon fill="#2D3134" points="223,215 219,213 199,223 199,250 203,252 203,225 		"/>
		<polygon opacity="0.29" points="233,220 233,247 213,257 213,230 		"/>
		<polygon opacity="0.11" points="161,204 161,231 213,257 213,230 		"/>
	</g>
	<g>
		<polygon fill="#06547A" points="146,205 136,210 136,241 198,272 208,267 208,236 		"/>
		<polygon opacity="0.11" points="136,210 136,241 198,272 198,241 		"/>
		<polygon opacity="0.29" points="208,236 208,267 198,272 198,241 		"/>
	</g>
	<g>
		<polygon fill="#06547A" points="338,171 198,241 198,272 222,284 362,214 362,183 		"/>
		<polygon opacity="0.11" points="198,241 198,272 222,284 222,253 		"/>
		<polygon opacity="0.29" points="362,183 362,214 222,284 222,253 		"/>
	</g>
</g>
<g>
	<path fill="#2D3134" d="M461,153.4h-1v-30.7c0-1.1-0.6-2.1-1.5-2.7c-0.9-0.6-2.1-0.6-3-0.1l-2.3,1.1l-0.4-0.9l2.3-1.1
		c1.3-0.6,2.8-0.6,4,0.2c1.2,0.8,2,2.1,2,3.5V153.4z"/>
	<path fill="#2D3134" d="M454.7,129v20.9c0,1.9,2.1,3,3.6,1.9l0.5-0.4c2.5-1.8,4-4.7,4-7.7v-21c0-1.9-2.2-3-3.7-1.8l-0.8,0.6
		C456.1,123.3,454.7,126.1,454.7,129z"/>
	<g>
		<path fill="#2D3134" d="M272,254.3c-7.5-3.7-14.2-4.2-19.2-1.9l0,0l-14,7l0,0c-5.4,2.4-8.8,7.9-8.8,15.9c0,15.5,12.5,34.3,28,42
			c7.6,3.8,14.6,4.2,19.6,1.8c0,0,13.9-6.9,15.1-7.6c4.5-2.7,7.3-7.9,7.3-15.2C300,280.8,287.5,262,272,254.3z"/>
		<path opacity="0.29" d="M277.9,318.9c2-1,13.7-6.8,14.8-7.5c4.5-2.7,7.3-7.9,7.3-15.2c0-6.2-2.1-13-5.5-19.3l-14,7
			c3.4,6.4,5.5,13.1,5.5,19.3C286,311,282.9,316.3,277.9,318.9z"/>
		<path fill="#999999" d="M275.9,298.1c0,9.9-8,13.9-17.9,8.9c-9.9-4.9-17.9-17-17.9-26.8s8-13.9,17.9-8.9S275.9,288.2,275.9,298.1z
			"/>
		<path opacity="0.15" d="M259.5,306.4c-9.9-4.9-17.9-17-17.9-26.8c0-4.9,1.9-8.3,5.1-9.9c-4,1.3-6.6,5-6.6,10.6
			c0,9.9,8,21.9,17.9,26.8c5,2.5,9.6,2.7,12.8,1C267.7,309,263.8,308.5,259.5,306.4z"/>
		<path fill="#2D3134" d="M266.9,292.2c0,4.1-3.3,5.8-7.5,3.7c-4.1-2.1-7.5-7.1-7.5-11.2s3.3-5.8,7.5-3.7
			C263.6,283.1,266.9,288.1,266.9,292.2z"/>
		<path opacity="0.29" d="M266.9,292.2c0,4.1-3.3,5.8-7.5,3.7c-4.1-2.1-7.5-7.1-7.5-11.2s3.3-5.8,7.5-3.7
			C263.6,283.1,266.9,288.1,266.9,292.2z"/>
		<path fill="#2D3134" d="M265.5,292.9c0,4.1-3.3,5.8-7.5,3.7c-4.1-2.1-7.5-7.1-7.5-11.2c0-4.1,3.3-5.8,7.5-3.7
			C262.1,283.8,265.5,288.8,265.5,292.9z"/>
		<path opacity="0.11" d="M286,303.3c0,15.5-12.5,21.7-28,14c-15.5-7.7-28-26.5-28-42c0-15.5,12.5-21.7,28-14
			C273.5,269,286,287.8,286,303.3z"/>
	</g>
	<path fill="#06547A" d="M466,213l-126-63l-140,70v15l18,9c0,0,38.4,18.8,41,20c8.6,4.1,16.1,7.8,23.6,16.9
		c8.6,10.5,12.8,26.5,12.5,36.6L326,333l140-70V213z"/>
	<path opacity="0.15" d="M353.5,170.9l86-43c1.9-1,4.2,0,4.9,2l14.7,44.1L353.5,170.9z"/>
	<path fill="#06547A" d="M340,47.3l-140,70V218l126,63l140-70v-15c0-23.7-3.2-47.3-9.5-70.1l-6.5-23.6L340,47.3z"/>
	<g>
		<path fill="#656565" d="M331.6,233.3c-1.5,0-2.7-1.1-2.9-2.5c-1.6-12.2-4.1-24.4-7.3-36.2l-4.8-17.3c-0.4-1.3,0.3-2.8,1.5-3.4
			l125.6-62.8c0.4-0.2,0.8-0.3,1.3-0.3c1.3,0,2.5,0.9,2.8,2.1l3.9,14.3c3.6,13.2,6.2,26.8,7.7,40.4c0.1,1.2-0.5,2.4-1.6,2.9
			l-125,62.5C332.5,233.2,332,233.3,331.6,233.3z"/>
		<path fill="#2D3134" d="M444.9,111.8c0.9,0,1.6,0.6,1.9,1.4l3.9,14.3c3.6,13.1,6.2,26.7,7.7,40.2c0.1,0.8-0.3,1.6-1.1,1.9
			l-125,62.5c-0.3,0.1-0.6,0.2-0.9,0.2c-0.8,0-1.8-0.6-1.9-1.7c-1.6-12.3-4.1-24.5-7.4-36.3l-4.8-17.3c-0.2-0.9,0.2-1.8,1-2.2
			L444.1,112C444.3,111.8,444.6,111.8,444.9,111.8 M444.9,109.8c-0.6,0-1.2,0.1-1.7,0.4L317.6,173c-1.7,0.8-2.5,2.7-2,4.5l4.8,17.3
			c3.3,11.9,5.7,23.9,7.3,36.1c0.3,2,2,3.4,3.9,3.4c0.6,0,1.2-0.1,1.7-0.4l125-62.5c1.5-0.7,2.3-2.3,2.2-3.9
			c-1.5-13.7-4.1-27.2-7.8-40.5l-3.9-14.3C448.2,110.9,446.6,109.8,444.9,109.8L444.9,109.8z"/>
	</g>
	<g>
		<path fill="#2D3134" d="M460.4,167.5c-0.5-4.3-0.8-6.2-0.4-2.8c0.2,1.6-0.7,3.2-2.2,3.9l-125,62.5c-2.2,1.1-4.8-0.1-5.5-2.3
			c0.1,0.7,0.2,1.4,0.3,2.1c0.4,2.7,3.2,4.2,5.6,3l125-62.5C459.7,170.7,460.6,169.1,460.4,167.5z"/>
	</g>
	<g>
		<path fill="#656565" d="M316.3,232.5c-0.3,0-0.7-0.1-1-0.2l-20.2-10.1c-2.5-1.3-4.1-3.8-4.1-6.7c0-4.4-2.4-8.4-6.4-10.3
			l-31.2-15.6c-0.7-0.4-1.2-1.1-1.2-1.9v-35.1c0-1.3,1.1-2.2,2.2-2.2c0.3,0,0.7,0.1,1,0.2l45.9,23c2.8,1.4,4.9,4,5.8,7l4.6,16.6
			c3,10.7,5.2,21.8,6.8,32.8c0.1,0.6-0.1,1.3-0.5,1.7C317.6,232.2,317,232.5,316.3,232.5z"/>
		<path fill="#2D3134" d="M254.4,151.4c0.2,0,0.4,0,0.5,0.1l45.9,23c2.6,1.3,4.5,3.6,5.3,6.4l4.6,16.6c2.9,10.7,5.2,21.7,6.8,32.7
			c0.1,0.4-0.1,0.8-0.3,0.9c-0.2,0.3-0.6,0.4-0.9,0.4c-0.2,0-0.4,0-0.5-0.1l-20.2-10.1c-2.2-1.1-3.6-3.3-3.6-5.8
			c0-4.8-2.7-9.1-6.9-11.2l-31.2-15.6c-0.4-0.2-0.7-0.6-0.7-1.1v-35.1C253.2,151.8,253.9,151.4,254.4,151.4 M254.4,149.4
			c-1.7,0-3.2,1.3-3.2,3.2v35.1c0,1.2,0.7,2.3,1.8,2.8l31.2,15.6c3.6,1.8,5.8,5.4,5.8,9.4c0,3.2,1.8,6.1,4.7,7.5l20.2,10.1
			c0.5,0.2,1,0.3,1.4,0.3c1.8,0,3.4-1.6,3.2-3.6c-1.6-11.1-3.8-22.1-6.8-32.9l-4.6-16.6c-0.9-3.3-3.2-6.1-6.3-7.7l-45.9-23
			C255.4,149.5,254.9,149.4,254.4,149.4L254.4,149.4z"/>
	</g>
	<path opacity="0.2" d="M365.5,179c35,0,67.6-4.8,94.7-13.1c-1.5-13.1-4.1-26.1-7.6-38.9l-3.9-14.3c-0.7-2.4-3.3-3.6-5.5-2.5
		L317.6,173c-1.1,0.5-1.8,1.5-2.1,2.6C331.4,177.8,348.1,179,365.5,179z"/>
	<g>
		<path fill="#2D3134" d="M448.8,122.6c1-0.5,1.7-1.4,2-2.4l-2.1-7.6c-0.7-2.4-3.3-3.6-5.5-2.5L317.6,173c-1.7,0.8-2.5,2.7-2,4.5
			l2.3,8.4c1.1,0.7,2.6,0.9,3.9,0.2L448.8,122.6z"/>
	</g>
	<path opacity="0.11" d="M200,220v15l18,9c0,0,38.4,18.8,41,20c8.6,4.1,16.1,7.8,23.6,16.9c8.6,10.5,12.8,26.5,12.5,36.6L326,333
		v-50L200,220z"/>
	<polygon opacity="0.3" fill="#2D3134" points="251,198.5 251,203.5 261,208.5 261,203.5 	"/>
	<polygon opacity="0.3" fill="#FFFFFF" points="261,211 251,206 251,203.5 261,208.5 	"/>
	<path fill="#2D3134" d="M399,172.5c-0.8-0.7-1.9-0.6-2.6,0.2l-34.2,38.9c-0.7,0.8-0.6,1.9,0.2,2.6s1.9,0.6,2.6-0.2l9.2-10.5v9h2.3
		V201h-0.1l22.9-26C399.8,174.3,399.7,173.2,399,172.5z"/>
	<path fill="#2D3134" d="M431.9,154.5c-0.8-0.7-1.9-0.6-2.6,0.2l-34.2,38.9c-0.7,0.8-0.6,1.9,0.2,2.6c0.8,0.7,1.9,0.6,2.6-0.2
		l8.2-9.3v9.9h2.3V184l23.8-27C432.7,156.3,432.6,155.1,431.9,154.5z"/>
	<g>
		<polyline opacity="0.2" fill="none" stroke="#000000" stroke-width="0.8485" stroke-miterlimit="10" points="466,181 459.2,184.4 
			424,272.4 368,300.4 332.8,247.6 326,251 		"/>
		<polygon fill="#2D3134" points="441.1,218.5 451.1,193.4 340.9,248.5 350.9,263.6 		"/>
		<g>
			<polygon fill="#2D3134" points="365.4,285.3 371.1,293.9 420.9,269 426.6,254.7 			"/>
			<polygon fill="#2D3134" points="430.1,246 435.6,232.2 356.4,271.8 361.9,280.1 			"/>
		</g>
		<polygon fill="#2D3134" points="437.8,249.1 432.3,262.9 466,246 466,235 		"/>
		<polygon opacity="0.2" points="466,206 466,186 462.3,187.8 452.3,212.9 		"/>
		<polygon fill="#FFFFFF" points="466,228 466,217 446.8,226.6 441.3,240.4 		"/>
		<polygon opacity="0.2" points="339.7,269.2 329.7,254.1 326,256 326,276 		"/>
		<polygon fill="#2D3134" points="326,305 326,316 359.7,299.2 354.2,290.9 		"/>
		<polygon fill="#FFFFFF" points="350.7,285.7 345.2,277.4 326,287 326,298 		"/>
		<polygon fill="#FFFFFF" points="447,253.5 464,245 464,238 447,246.5 		"/>
		<polygon fill="#FFFFFF" points="380,303 416,285 416,278 380,296 		"/>
		<polygon fill="#FFFFFF" points="328,313 345,304.5 345,297.5 328,306 		"/>
		
			<ellipse transform="matrix(-0.6313 0.7756 -0.7756 -0.6313 791.9194 230.2598)" opacity="0.3" fill="#2D3134" cx="341.2" cy="303.4" rx="2.6" ry="1.7"/>
		
			<ellipse transform="matrix(-0.6313 0.7756 -0.7756 -0.6313 787.9894 232.1283)" opacity="0.3" fill="#2D3134" cx="338.8" cy="303.4" rx="2.6" ry="1.7"/>
		
			<ellipse transform="matrix(-0.6313 0.7756 -0.7756 -0.6313 780.1286 200.2095)" opacity="0.3" fill="#2D3134" cx="342.5" cy="285.6" rx="4.4" ry="2.9"/>
		
			<ellipse transform="matrix(-0.6313 0.7756 -0.7756 -0.6313 773.4807 203.3701)" opacity="0.3" fill="#2D3134" cx="338.4" cy="285.6" rx="4.4" ry="2.9"/>
		
			<ellipse transform="matrix(-0.6313 0.7756 -0.7756 -0.6313 912.795 29.1358)" opacity="0.3" fill="#2D3134" cx="449.5" cy="231.6" rx="4.4" ry="2.9"/>
		
			<ellipse transform="matrix(-0.6313 0.7756 -0.7756 -0.6313 916.095 19.5669)" opacity="0.3" fill="#2D3134" cx="453.4" cy="227.6" rx="4.4" ry="2.9"/>
		
			<ellipse transform="matrix(-0.6313 0.7756 -0.7756 -0.6313 781.9714 242.9894)" opacity="0.3" fill="#2D3134" cx="333.2" cy="307.4" rx="2.6" ry="1.7"/>
		
			<ellipse transform="matrix(-0.6313 0.7756 -0.7756 -0.6313 778.0415 244.8578)" opacity="0.3" fill="#2D3134" cx="330.8" cy="307.4" rx="2.6" ry="1.7"/>
		
			<ellipse transform="matrix(-0.6313 0.7756 -0.7756 -0.6313 941.139 39.3163)" opacity="0.3" fill="#2D3134" cx="461.2" cy="243.4" rx="2.6" ry="1.7"/>
		
			<ellipse transform="matrix(-0.6313 0.7756 -0.7756 -0.6313 937.209 41.1847)" opacity="0.3" fill="#2D3134" cx="458.8" cy="243.4" rx="2.6" ry="1.7"/>
		
			<ellipse transform="matrix(-0.6313 0.7756 -0.7756 -0.6313 931.191 52.0458)" opacity="0.3" fill="#2D3134" cx="453.2" cy="247.4" rx="2.6" ry="1.7"/>
		
			<ellipse transform="matrix(-0.6313 0.7756 -0.7756 -0.6313 927.2611 53.9143)" opacity="0.3" fill="#2D3134" cx="450.8" cy="247.4" rx="2.6" ry="1.7"/>
		<polygon fill="#FF9900" points="327,296 333,293 333,288 327,291 		"/>
		<polygon fill="#FF9900" points="459,230 465,227 465,222 459,225 		"/>
	</g>
	<g>
		<path fill="#06547A" d="M340,11L200,81v36l84,42l140-70v0c0-11.5-22.9-31.4-31.4-39L340,11z"/>
		<path opacity="0.11" d="M200,81v36l84,42v0c0-11.5-22.9-31.4-31.4-39L200,81z"/>
	</g>
	<path fill="#2D3134" d="M307,231c-1.1,0-2.2-0.3-3.1-0.9c-1.8-1.1-2.8-3-2.8-5.1v-32.3c0-2.3,1.3-4.3,3.3-5.3l3.7-1.8l0.4,0.9
		l-3.7,1.8c-1.7,0.8-2.7,2.5-2.7,4.4V225c0,1.7,0.9,3.3,2.4,4.2c1.5,0.9,3.3,1,4.8,0.2l0.6-0.3l0.4,0.9l-0.6,0.3
		C308.8,230.7,307.9,231,307,231z"/>
	<path fill="#2D3134" d="M301.3,191.9l0.7-0.3c2.4-0.8,4.9,1,4.9,3.5v21.4c0,3.1-1.9,6-4.9,7.1l-0.9,0.3c-2.4,0.9-5.1-0.9-5.1-3.5
		V199C296.2,195.8,298.2,192.9,301.3,191.9z"/>
	<polygon opacity="0.3" fill="#2D3134" points="218,227 220,228 220,127.3 218,126.3 	"/>
	<polygon opacity="0.3" fill="#FFFFFF" points="216,226 218,227 218,126.3 216,125.3 	"/>
	<polygon opacity="0.29" points="326,333 466,263 466,213 326,283 	"/>
	<path opacity="0.29" d="M450,102.3l-140,70l6.5,23.6c6.3,22.8,9.5,46.4,9.5,70.1v15l140-70v-15c0-23.7-3.2-47.3-9.5-70.1L450,102.3
		z"/>
	<path opacity="0.11" d="M310,172.3l-110-55V218l126,63v-15c0-23.7-3.2-47.3-9.5-70.1L310,172.3z"/>
	<g>
		<polygon opacity="0.3" fill="#2D3134" points="308,324 306,323 306,273 308,274 		"/>
		<polygon opacity="0.3" fill="#FFFFFF" points="310,325 308,324 308,274 310,275 		"/>
	</g>
</g>
</svg>
