<?xml version="1.0" encoding="utf-8"?>
<!-- Generator: Adobe Illustrator 18.1.0, SVG Export Plug-In . SVG Version: 6.00 Build 0)  -->
<svg version="1.1" id="Layer_1" xmlns="http://www.w3.org/2000/svg" xmlns:xlink="http://www.w3.org/1999/xlink" x="0px" y="0px"
	 viewBox="0 0 176 88" enable-background="new 0 0 176 88" xml:space="preserve">
<g>
	<g>
		<polygon fill="#FFCC00" points="73,17 73,32.5 72,33 70,32 70,16.5 71,16 		"/>
		<polygon opacity="0.29" points="72,33 73,32.5 73,17 72,17.5 		"/>
		<polygon opacity="0.11" points="72,33 70,32 70,16.5 72,17.5 		"/>
	</g>
	<g>
		<polygon fill="#FFCC00" points="75,14 75,19 74,19.5 68,16.5 68,11.5 69,11 		"/>
		<polygon opacity="0.29" points="74,19.5 75,19 75,14 74,14.5 		"/>
		<polygon fill="#2D3134" points="73.4,14.9 68.6,12.5 68.6,16.1 73.4,18.5 		"/>
		<polygon fill="#CC291F" points="69.4,15.7 69,15.5 69,15.9 69.4,16.1 		"/>
		<polygon fill="#99CC33" points="70,16 69.6,15.8 69.6,16.2 70,16.4 		"/>
		<polygon fill="#999999" points="73,17.5 70.4,16.2 70.4,16.6 73,17.9 		"/>
		<polygon fill="#3399CC" points="73,15.1 69,13.1 69,15 73,17 		"/>
		<polygon opacity="0.11" points="74,19.5 68,16.5 68,11.5 74,14.5 		"/>
	</g>
	<polygon fill="#3366CC" points="144,0 128,4 16,60 0,72 32,88 176,16 	"/>
	<polygon opacity="0.11" points="144,0 176,16 160,20 128,4 	"/>
	<polygon opacity="0.11" points="16,60 48,76 32,88 0,72 	"/>
	<polygon opacity="0.29" points="160,20 48,76 32,88 176,16 	"/>
	<path fill="#FFCC00" d="M17.3,59.4L127.5,4.2c0.3-0.2,0.5-0.5,0.5-0.8v0c0-0.7-0.7-1.1-1.3-0.8L16.5,57.8c-0.3,0.2-0.5,0.5-0.5,0.8
		v0C16,59.2,16.7,59.7,17.3,59.4z"/>
	<path fill="#FFCC00" d="M48,74.6L48,74.6c0-0.3,0.2-0.6,0.5-0.8l110.2-55.1c0.6-0.3,1.3,0.1,1.3,0.8v0c0,0.3-0.2,0.6-0.5,0.8
		L49.3,75.4C48.7,75.7,48,75.2,48,74.6z"/>
</g>
</svg>
