<?xml version="1.0" encoding="utf-8"?>
<!-- Generator: Adobe Illustrator 18.1.0, SVG Export Plug-In . SVG Version: 6.00 Build 0)  -->
<svg version="1.1" id="Layer_1" xmlns="http://www.w3.org/2000/svg" xmlns:xlink="http://www.w3.org/1999/xlink" x="0px" y="0px"
	 viewBox="0 0 960 640" enable-background="new 0 0 960 640" xml:space="preserve">
<g>
	<polygon opacity="0.3" points="20,198 161,128 928,512 788,582 	"/>
	<g>
		<polygon fill="#06547A" points="567,374 563,376 563,407 725,488 729,486 729,455 		"/>
		<polygon opacity="0.11" points="563,376 563,407 725,488 725,457 		"/>
		<polygon opacity="0.29" points="729,455 729,486 725,488 725,457 		"/>
	</g>
	<g>
		<polygon fill="#2D3134" points="507,387 543,369 531,389 495,407 		"/>
		<polygon opacity="0.29" points="507,387 543,369 531,389 495,407 		"/>
		<g>
			<g>
				<path fill="#2D3134" d="M561.4,379.6c-7.5-3.7-14.2-4.2-19.2-1.9l0,0l-14,7l0,0c-5.4,2.4-8.8,7.9-8.8,15.9
					c0,15.5,12.5,34.3,28,42c7.6,3.8,14.6,4.2,19.6,1.8c0,0,13.9-6.9,15.1-7.6c4.5-2.7,7.3-7.9,7.3-15.2
					C589.4,406.2,576.8,387.4,561.4,379.6z"/>
				<path opacity="0.29" d="M567.3,444.2c2-1,13.7-6.8,14.8-7.5c4.5-2.7,7.3-7.9,7.3-15.2c0-6.2-2.1-13-5.5-19.3l-14,7
					c3.4,6.4,5.5,13.1,5.5,19.3C575.4,436.3,572.3,441.7,567.3,444.2z"/>
				<path fill="#999999" d="M565.3,423.4c0,9.9-8,13.9-17.9,8.9c-9.9-4.9-17.9-17-17.9-26.8s8-13.9,17.9-8.9
					C557.2,401.5,565.3,413.5,565.3,423.4z"/>
				<path opacity="0.15" d="M548.9,431.7c-9.9-4.9-17.9-17-17.9-26.8c0-4.9,1.9-8.3,5.1-9.9c-4,1.3-6.6,5-6.6,10.6
					c0,9.9,8,21.9,17.9,26.8c5,2.5,9.6,2.7,12.8,1C557.1,434.3,553.2,433.8,548.9,431.7z"/>
				<path fill="#2D3134" d="M556.3,417.6c0,4.1-3.3,5.8-7.5,3.7c-4.1-2.1-7.5-7.1-7.5-11.2s3.3-5.8,7.5-3.7
					C553,408.4,556.3,413.4,556.3,417.6z"/>
				<path opacity="0.29" d="M556.3,417.6c0,4.1-3.3,5.8-7.5,3.7c-4.1-2.1-7.5-7.1-7.5-11.2s3.3-5.8,7.5-3.7
					C553,408.4,556.3,413.4,556.3,417.6z"/>
				<path fill="#2D3134" d="M554.8,418.3c0,4.1-3.3,5.8-7.5,3.7c-4.1-2.1-7.5-7.1-7.5-11.2s3.3-5.8,7.5-3.7
					C551.5,409.1,554.8,414.1,554.8,418.3z"/>
				<path opacity="0.11" d="M575.4,428.6c0,15.5-12.5,21.7-28,14c-15.5-7.7-28-26.5-28-42c0-15.5,12.5-21.7,28-14
					C562.8,394.4,575.4,413.2,575.4,428.6z"/>
			</g>
		</g>
		<g>
			<g>
				<path fill="#2D3134" d="M542,389.1c-7.5-3.7-14.2-4.2-19.2-1.9l0,0l-14,7l0,0c-5.4,2.4-8.8,7.9-8.8,15.9c0,15.5,12.5,34.3,28,42
					c7.6,3.8,14.6,4.2,19.6,1.8c0,0,13.9-6.9,15.1-7.6c4.5-2.7,7.3-7.9,7.3-15.2C570,415.6,557.5,396.8,542,389.1z"/>
				<path opacity="0.29" d="M547.9,453.7c2-1,13.7-6.8,14.8-7.5c4.5-2.7,7.3-7.9,7.3-15.2c0-6.2-2.1-13-5.5-19.3l-14,7
					c3.4,6.4,5.5,13.1,5.5,19.3C556,445.7,552.9,451.1,547.9,453.7z"/>
				<path fill="#999999" d="M545.9,432.8c0,9.9-8,13.9-17.9,8.9c-9.9-4.9-17.9-17-17.9-26.8s8-13.9,17.9-8.9
					C537.9,411,545.9,423,545.9,432.8z"/>
				<path opacity="0.15" d="M529.5,441.2c-9.9-4.9-17.9-17-17.9-26.8c0-4.9,1.9-8.3,5.1-9.9c-4,1.3-6.6,5-6.6,10.6
					c0,9.9,8,21.9,17.9,26.8c5,2.5,9.6,2.7,12.8,1C537.7,443.8,533.8,443.3,529.5,441.2z"/>
				<path fill="#2D3134" d="M536.9,427c0,4.1-3.3,5.8-7.5,3.7c-4.1-2.1-7.5-7.1-7.5-11.2c0-4.1,3.3-5.8,7.5-3.7
					C533.6,417.9,536.9,422.9,536.9,427z"/>
				<path opacity="0.29" d="M536.9,427c0,4.1-3.3,5.8-7.5,3.7c-4.1-2.1-7.5-7.1-7.5-11.2c0-4.1,3.3-5.8,7.5-3.7
					C533.6,417.9,536.9,422.9,536.9,427z"/>
				<path fill="#2D3134" d="M535.5,427.7c0,4.1-3.3,5.8-7.5,3.7c-4.1-2.1-7.5-7.1-7.5-11.2c0-4.1,3.3-5.8,7.5-3.7
					S535.5,423.6,535.5,427.7z"/>
				<path opacity="0.11" d="M556,438.1c0,15.5-12.5,21.7-28,14c-15.5-7.7-28-26.5-28-42c0-15.5,12.5-21.7,28-14
					C543.5,403.8,556,422.6,556,438.1z"/>
			</g>
		</g>
		<polygon fill="#2D3134" points="507,387 543,369 579,387 543,405 		"/>
		<polygon fill="#2D3134" points="557,430 593,412 579,387 543,405 		"/>
		<polygon opacity="0.29" points="557,430 593,412 579,387 543,405 		"/>
	</g>
	<g>
		<polygon fill="#2D3134" points="565,416 601,398 589,418 553,436 		"/>
		<polygon opacity="0.29" points="565,416 601,398 589,418 553,436 		"/>
		<g>
			<g>
				<path fill="#2D3134" d="M619.4,408.6c-7.5-3.7-14.2-4.2-19.2-1.9l0,0l-14,7l0,0c-5.4,2.4-8.8,7.9-8.8,15.9
					c0,15.5,12.5,34.3,28,42c7.6,3.8,14.6,4.2,19.6,1.8c0,0,13.9-6.9,15.1-7.6c4.5-2.7,7.3-7.9,7.3-15.2
					C647.4,435.2,634.8,416.4,619.4,408.6z"/>
				<path opacity="0.29" d="M625.3,473.2c2-1,13.7-6.8,14.8-7.5c4.5-2.7,7.3-7.9,7.3-15.2c0-6.2-2.1-13-5.5-19.3l-14,7
					c3.4,6.4,5.5,13.1,5.5,19.3C633.4,465.3,630.3,470.7,625.3,473.2z"/>
				<path fill="#999999" d="M623.3,452.4c0,9.9-8,13.9-17.9,8.9c-9.9-4.9-17.9-17-17.9-26.8s8-13.9,17.9-8.9
					C615.2,430.5,623.3,442.5,623.3,452.4z"/>
				<path opacity="0.15" d="M606.9,460.7c-9.9-4.9-17.9-17-17.9-26.8c0-4.9,1.9-8.3,5.1-9.9c-4,1.3-6.6,5-6.6,10.6
					c0,9.9,8,21.9,17.9,26.8c5,2.5,9.6,2.7,12.8,1C615.1,463.3,611.2,462.8,606.9,460.7z"/>
				<path fill="#2D3134" d="M614.3,446.6c0,4.1-3.3,5.8-7.5,3.7c-4.1-2.1-7.5-7.1-7.5-11.2s3.3-5.8,7.5-3.7
					C611,437.4,614.3,442.4,614.3,446.6z"/>
				<path opacity="0.29" d="M614.3,446.6c0,4.1-3.3,5.8-7.5,3.7c-4.1-2.1-7.5-7.1-7.5-11.2s3.3-5.8,7.5-3.7
					C611,437.4,614.3,442.4,614.3,446.6z"/>
				<path fill="#2D3134" d="M612.8,447.3c0,4.1-3.3,5.8-7.5,3.7c-4.1-2.1-7.5-7.1-7.5-11.2s3.3-5.8,7.5-3.7
					C609.5,438.1,612.8,443.1,612.8,447.3z"/>
				<path opacity="0.11" d="M633.4,457.6c0,15.5-12.5,21.7-28,14c-15.5-7.7-28-26.5-28-42c0-15.5,12.5-21.7,28-14
					C620.8,423.4,633.4,442.2,633.4,457.6z"/>
			</g>
		</g>
		<g>
			<g>
				<path fill="#2D3134" d="M600,418.1c-7.5-3.7-14.2-4.2-19.2-1.9l0,0l-14,7l0,0c-5.4,2.4-8.8,7.9-8.8,15.9c0,15.5,12.5,34.3,28,42
					c7.6,3.8,14.6,4.2,19.6,1.8c0,0,13.9-6.9,15.1-7.6c4.5-2.7,7.3-7.9,7.3-15.2C628,444.6,615.5,425.8,600,418.1z"/>
				<path opacity="0.29" d="M605.9,482.7c2-1,13.7-6.8,14.8-7.5c4.5-2.7,7.3-7.9,7.3-15.2c0-6.2-2.1-13-5.5-19.3l-14,7
					c3.4,6.4,5.5,13.1,5.5,19.3C614,474.7,610.9,480.1,605.9,482.7z"/>
				<path fill="#999999" d="M603.9,461.8c0,9.9-8,13.9-17.9,8.9c-9.9-4.9-17.9-17-17.9-26.8s8-13.9,17.9-8.9
					C595.9,440,603.9,452,603.9,461.8z"/>
				<path opacity="0.15" d="M587.5,470.2c-9.9-4.9-17.9-17-17.9-26.8c0-4.9,1.9-8.3,5.1-9.9c-4,1.3-6.6,5-6.6,10.6
					c0,9.9,8,21.9,17.9,26.8c5,2.5,9.6,2.7,12.8,1C595.7,472.8,591.8,472.3,587.5,470.2z"/>
				<path fill="#2D3134" d="M594.9,456c0,4.1-3.3,5.8-7.5,3.7c-4.1-2.1-7.5-7.1-7.5-11.2c0-4.1,3.3-5.8,7.5-3.7
					C591.6,446.9,594.9,451.9,594.9,456z"/>
				<path opacity="0.29" d="M594.9,456c0,4.1-3.3,5.8-7.5,3.7c-4.1-2.1-7.5-7.1-7.5-11.2c0-4.1,3.3-5.8,7.5-3.7
					C591.6,446.9,594.9,451.9,594.9,456z"/>
				<path fill="#2D3134" d="M593.5,456.7c0,4.1-3.3,5.8-7.5,3.7c-4.1-2.1-7.5-7.1-7.5-11.2c0-4.1,3.3-5.8,7.5-3.7
					S593.5,452.6,593.5,456.7z"/>
				<path opacity="0.11" d="M614,467.1c0,15.5-12.5,21.7-28,14c-15.5-7.7-28-26.5-28-42c0-15.5,12.5-21.7,28-14
					C601.5,432.8,614,451.6,614,467.1z"/>
			</g>
		</g>
		<polygon fill="#2D3134" points="565,416 601,398 637,416 601,434 		"/>
		<polygon fill="#2D3134" points="615,459 651,441 637,416 601,434 		"/>
		<polygon opacity="0.29" points="615,459 651,441 637,416 601,434 		"/>
	</g>
	<g>
		<polygon fill="#999999" points="661,434 641,444 641,471 693,497 713,487 713,460 		"/>
		<polygon fill="#2D3134" points="675,441 671,439 651,449 651,476 655,478 655,451 		"/>
		<polygon fill="#2D3134" points="703,455 699,453 679,463 679,490 683,492 683,465 		"/>
		<polygon opacity="0.29" points="713,460 713,487 693,497 693,470 		"/>
		<polygon opacity="0.11" points="641,444 641,471 693,497 693,470 		"/>
	</g>
	<g>
		<polygon fill="#06547A" points="626,445 616,450 616,481 678,512 688,507 688,476 		"/>
		<polygon opacity="0.11" points="616,450 616,481 678,512 678,481 		"/>
		<polygon opacity="0.29" points="688,476 688,507 678,512 678,481 		"/>
	</g>
	<g>
		<polygon fill="#06547A" points="818,411 678,481 678,512 702,524 842,454 842,423 		"/>
		<polygon opacity="0.11" points="678,481 678,512 702,524 702,493 		"/>
		<polygon opacity="0.29" points="842,423 842,454 702,524 702,493 		"/>
	</g>
</g>
<g>
	<g>
		<polygon fill="#2D3134" points="94,179 130,161 118,181 82,199 		"/>
		<polygon opacity="0.29" points="94,179 130,161 118,181 82,199 		"/>
		<g>
			<g>
				<path fill="#2D3134" d="M148.4,171.6c-7.5-3.7-14.2-4.2-19.2-1.9l0,0l-14,7l0,0c-5.4,2.4-8.8,7.9-8.8,15.9
					c0,15.5,12.5,34.3,28,42c7.6,3.8,14.6,4.2,19.6,1.8c0,0,13.9-6.9,15.1-7.6c4.5-2.7,7.3-7.9,7.3-15.2
					C176.4,198.2,163.8,179.4,148.4,171.6z"/>
				<path opacity="0.29" d="M154.3,236.2c2-1,13.7-6.8,14.8-7.5c4.5-2.7,7.3-7.9,7.3-15.2c0-6.2-2.1-13-5.5-19.3l-14,7
					c3.4,6.4,5.5,13.1,5.5,19.3C162.4,228.3,159.3,233.7,154.3,236.2z"/>
				<path fill="#999999" d="M152.3,215.4c0,9.9-8,13.9-17.9,8.9s-17.9-17-17.9-26.8s8-13.9,17.9-8.9
					C144.2,193.5,152.3,205.5,152.3,215.4z"/>
				<path opacity="0.15" d="M135.9,223.7c-9.9-4.9-17.9-17-17.9-26.8c0-4.9,1.9-8.3,5.1-9.9c-4,1.3-6.6,5-6.6,10.6
					c0,9.9,8,21.9,17.9,26.8c5,2.5,9.6,2.7,12.8,1C144.1,226.3,140.2,225.8,135.9,223.7z"/>
				<path fill="#2D3134" d="M143.3,209.6c0,4.1-3.3,5.8-7.5,3.7c-4.1-2.1-7.5-7.1-7.5-11.2c0-4.1,3.3-5.8,7.5-3.7
					C140,200.4,143.3,205.4,143.3,209.6z"/>
				<path opacity="0.29" d="M143.3,209.6c0,4.1-3.3,5.8-7.5,3.7c-4.1-2.1-7.5-7.1-7.5-11.2c0-4.1,3.3-5.8,7.5-3.7
					C140,200.4,143.3,205.4,143.3,209.6z"/>
				<path fill="#2D3134" d="M141.8,210.3c0,4.1-3.3,5.8-7.5,3.7c-4.1-2.1-7.5-7.1-7.5-11.2s3.3-5.8,7.5-3.7
					C138.5,201.1,141.8,206.1,141.8,210.3z"/>
				<path opacity="0.11" d="M162.4,220.6c0,15.5-12.5,21.7-28,14s-28-26.5-28-42s12.5-21.7,28-14S162.4,205.2,162.4,220.6z"/>
			</g>
		</g>
		<g>
			<g>
				<path fill="#2D3134" d="M129,181.1c-7.5-3.7-14.2-4.2-19.2-1.9l0,0l-14,7l0,0c-5.4,2.4-8.8,7.9-8.8,15.9c0,15.5,12.5,34.3,28,42
					c7.6,3.8,14.6,4.2,19.6,1.8c0,0,13.9-6.9,15.1-7.6c4.5-2.7,7.3-7.9,7.3-15.2C157,207.6,144.5,188.8,129,181.1z"/>
				<path opacity="0.29" d="M134.9,245.7c2-1,13.7-6.8,14.8-7.5c4.5-2.7,7.3-7.9,7.3-15.2c0-6.2-2.1-13-5.5-19.3l-14,7
					c3.4,6.4,5.5,13.1,5.5,19.3C143,237.7,139.9,243.1,134.9,245.7z"/>
				<path fill="#999999" d="M132.9,224.8c0,9.9-8,13.9-17.9,8.9c-9.9-4.9-17.9-17-17.9-26.8c0-9.9,8-13.9,17.9-8.9
					S132.9,215,132.9,224.8z"/>
				<path opacity="0.15" d="M116.5,233.2c-9.9-4.9-17.9-17-17.9-26.8c0-4.9,1.9-8.3,5.1-9.9c-4,1.3-6.6,5-6.6,10.6
					c0,9.9,8,21.9,17.9,26.8c5,2.5,9.6,2.7,12.8,1C124.7,235.8,120.8,235.3,116.5,233.2z"/>
				<path fill="#2D3134" d="M123.9,219c0,4.1-3.3,5.8-7.5,3.7c-4.1-2.1-7.5-7.1-7.5-11.2c0-4.1,3.3-5.8,7.5-3.7
					C120.6,209.9,123.9,214.9,123.9,219z"/>
				<path opacity="0.29" d="M123.9,219c0,4.1-3.3,5.8-7.5,3.7c-4.1-2.1-7.5-7.1-7.5-11.2c0-4.1,3.3-5.8,7.5-3.7
					C120.6,209.9,123.9,214.9,123.9,219z"/>
				<path fill="#2D3134" d="M122.5,219.7c0,4.1-3.3,5.8-7.5,3.7c-4.1-2.1-7.5-7.1-7.5-11.2c0-4.1,3.3-5.8,7.5-3.7
					S122.5,215.6,122.5,219.7z"/>
				<path opacity="0.11" d="M143,230.1c0,15.5-12.5,21.7-28,14s-28-26.5-28-42s12.5-21.7,28-14S143,214.6,143,230.1z"/>
			</g>
		</g>
		<polygon fill="#2D3134" points="94,179 130,161 166,179 130,197 		"/>
		<polygon fill="#2D3134" points="144,222 180,204 166,179 130,197 		"/>
		<polygon opacity="0.29" points="144,222 180,204 166,179 130,197 		"/>
	</g>
	<g>
		<polygon fill="#2D3134" points="153,209.4 189,191.4 177,211.4 141,229.4 		"/>
		<polygon opacity="0.29" points="153,209.4 189,191.4 177,211.4 141,229.4 		"/>
		<g>
			<g>
				<path fill="#2D3134" d="M207.4,202c-7.5-3.7-14.2-4.2-19.2-1.9l0,0l-14,7l0,0c-5.4,2.4-8.8,7.9-8.8,15.9c0,15.5,12.5,34.3,28,42
					c7.6,3.8,14.6,4.2,19.6,1.8c0,0,13.9-6.9,15.1-7.6c4.5-2.7,7.3-7.9,7.3-15.2C235.4,228.6,222.8,209.8,207.4,202z"/>
				<path opacity="0.29" d="M213.3,266.6c2-1,13.7-6.8,14.8-7.5c4.5-2.7,7.3-7.9,7.3-15.2c0-6.2-2.1-13-5.5-19.3l-14,7
					c3.4,6.4,5.5,13.1,5.5,19.3C221.4,258.7,218.3,264.1,213.3,266.6z"/>
				<path fill="#999999" d="M211.3,245.8c0,9.9-8,13.9-17.9,8.9s-17.9-17-17.9-26.8s8-13.9,17.9-8.9S211.3,235.9,211.3,245.8z"/>
				<path opacity="0.15" d="M194.9,254.1c-9.9-4.9-17.9-17-17.9-26.8c0-4.9,1.9-8.3,5.1-9.9c-4,1.3-6.6,5-6.6,10.6
					c0,9.9,8,21.9,17.9,26.8c5,2.5,9.6,2.7,12.8,1C203.1,256.7,199.2,256.2,194.9,254.1z"/>
				<path fill="#2D3134" d="M202.3,240c0,4.1-3.3,5.8-7.5,3.7c-4.1-2.1-7.5-7.1-7.5-11.2c0-4.1,3.3-5.8,7.5-3.7
					C199,230.8,202.3,235.8,202.3,240z"/>
				<path opacity="0.29" d="M202.3,240c0,4.1-3.3,5.8-7.5,3.7c-4.1-2.1-7.5-7.1-7.5-11.2c0-4.1,3.3-5.8,7.5-3.7
					C199,230.8,202.3,235.8,202.3,240z"/>
				<path fill="#2D3134" d="M200.8,240.7c0,4.1-3.3,5.8-7.5,3.7s-7.5-7.1-7.5-11.2c0-4.1,3.3-5.8,7.5-3.7S200.8,236.5,200.8,240.7z"
					/>
				<path opacity="0.11" d="M221.4,251c0,15.5-12.5,21.7-28,14c-15.5-7.7-28-26.5-28-42s12.5-21.7,28-14S221.4,235.6,221.4,251z"/>
			</g>
		</g>
		<g>
			<g>
				<path fill="#2D3134" d="M188,211.5c-7.5-3.7-14.2-4.2-19.2-1.9l0,0l-14,7l0,0c-5.4,2.4-8.8,7.9-8.8,15.9c0,15.5,12.5,34.3,28,42
					c7.6,3.8,14.6,4.2,19.6,1.8c0,0,13.9-6.9,15.1-7.6c4.5-2.7,7.3-7.9,7.3-15.2C216,238,203.5,219.2,188,211.5z"/>
				<path opacity="0.29" d="M193.9,276.1c2-1,13.7-6.8,14.8-7.5c4.5-2.7,7.3-7.9,7.3-15.2c0-6.2-2.1-13-5.5-19.3l-14,7
					c3.4,6.4,5.5,13.1,5.5,19.3C202,268.1,198.9,273.5,193.9,276.1z"/>
				<path fill="#999999" d="M191.9,255.3c0,9.9-8,13.9-17.9,8.9s-17.9-17-17.9-26.8s8-13.9,17.9-8.9
					C183.9,233.4,191.9,245.4,191.9,255.3z"/>
				<path opacity="0.15" d="M175.5,263.6c-9.9-4.9-17.9-17-17.9-26.8c0-4.9,1.9-8.3,5.1-9.9c-4,1.3-6.6,5-6.6,10.6
					c0,9.9,8,21.9,17.9,26.8c5,2.5,9.6,2.7,12.8,1C183.7,266.2,179.8,265.7,175.5,263.6z"/>
				<path fill="#2D3134" d="M182.9,249.4c0,4.1-3.3,5.8-7.5,3.7c-4.1-2.1-7.5-7.1-7.5-11.2c0-4.1,3.3-5.8,7.5-3.7
					C179.6,240.3,182.9,245.3,182.9,249.4z"/>
				<path opacity="0.29" d="M182.9,249.4c0,4.1-3.3,5.8-7.5,3.7c-4.1-2.1-7.5-7.1-7.5-11.2c0-4.1,3.3-5.8,7.5-3.7
					C179.6,240.3,182.9,245.3,182.9,249.4z"/>
				<path fill="#2D3134" d="M181.5,250.1c0,4.1-3.3,5.8-7.5,3.7s-7.5-7.1-7.5-11.2c0-4.1,3.3-5.8,7.5-3.7
					C178.1,241,181.5,246,181.5,250.1z"/>
				<path opacity="0.11" d="M202,260.5c0,15.5-12.5,21.7-28,14s-28-26.5-28-42s12.5-21.7,28-14S202,245,202,260.5z"/>
			</g>
		</g>
		<polygon fill="#2D3134" points="153,209.4 189,191.4 225,209.4 189,227.4 		"/>
		<polygon fill="#2D3134" points="203,252.4 239,234.4 225,209.4 189,227.4 		"/>
		<polygon opacity="0.29" points="203,252.4 239,234.4 225,209.4 189,227.4 		"/>
	</g>
	<g>
		<polygon fill="#2D3134" points="212,239 248,221 236,241 200,259 		"/>
		<polygon opacity="0.29" points="212,239 248,221 236,241 200,259 		"/>
		<g>
			<g>
				<path fill="#2D3134" d="M266.4,231.6c-7.5-3.7-14.2-4.2-19.2-1.9l0,0l-14,7l0,0c-5.4,2.4-8.8,7.9-8.8,15.9
					c0,15.5,12.5,34.3,28,42c7.6,3.8,14.6,4.2,19.6,1.8c0,0,13.9-6.9,15.1-7.6c4.5-2.7,7.3-7.9,7.3-15.2
					C294.4,258.2,281.8,239.4,266.4,231.6z"/>
				<path opacity="0.29" d="M272.3,296.2c2-1,13.7-6.8,14.8-7.5c4.5-2.7,7.3-7.9,7.3-15.2c0-6.2-2.1-13-5.5-19.3l-14,7
					c3.4,6.4,5.5,13.1,5.5,19.3C280.4,288.3,277.3,293.7,272.3,296.2z"/>
				<path fill="#999999" d="M270.3,275.4c0,9.9-8,13.9-17.9,8.9c-9.9-4.9-17.9-17-17.9-26.8c0-9.9,8-13.9,17.9-8.9
					C262.2,253.5,270.3,265.5,270.3,275.4z"/>
				<path opacity="0.15" d="M253.9,283.7c-9.9-4.9-17.9-17-17.9-26.8c0-4.9,1.9-8.3,5.1-9.9c-4,1.3-6.6,5-6.6,10.6
					c0,9.9,8,21.9,17.9,26.8c5,2.5,9.6,2.7,12.8,1C262.1,286.3,258.2,285.8,253.9,283.7z"/>
				<path fill="#2D3134" d="M261.3,269.6c0,4.1-3.3,5.8-7.5,3.7c-4.1-2.1-7.5-7.1-7.5-11.2s3.3-5.8,7.5-3.7
					C258,260.4,261.3,265.4,261.3,269.6z"/>
				<path opacity="0.29" d="M261.3,269.6c0,4.1-3.3,5.8-7.5,3.7c-4.1-2.1-7.5-7.1-7.5-11.2s3.3-5.8,7.5-3.7
					C258,260.4,261.3,265.4,261.3,269.6z"/>
				<path fill="#2D3134" d="M259.8,270.3c0,4.1-3.3,5.8-7.5,3.7c-4.1-2.1-7.5-7.1-7.5-11.2s3.3-5.8,7.5-3.7
					C256.5,261.1,259.8,266.1,259.8,270.3z"/>
				<path opacity="0.11" d="M280.4,280.6c0,15.5-12.5,21.7-28,14c-15.5-7.7-28-26.5-28-42s12.5-21.7,28-14S280.4,265.2,280.4,280.6z
					"/>
			</g>
		</g>
		<g>
			<g>
				<path fill="#2D3134" d="M247,241.1c-7.5-3.7-14.2-4.2-19.2-1.9l0,0l-14,7l0,0c-5.4,2.4-8.8,7.9-8.8,15.9c0,15.5,12.5,34.3,28,42
					c7.6,3.8,14.6,4.2,19.6,1.8c0,0,13.9-6.9,15.1-7.6c4.5-2.7,7.3-7.9,7.3-15.2C275,267.6,262.5,248.8,247,241.1z"/>
				<path opacity="0.29" d="M252.9,305.7c2-1,13.7-6.8,14.8-7.5c4.5-2.7,7.3-7.9,7.3-15.2c0-6.2-2.1-13-5.5-19.3l-14,7
					c3.4,6.4,5.5,13.1,5.5,19.3C261,297.7,257.9,303.1,252.9,305.7z"/>
				<path fill="#999999" d="M250.9,284.8c0,9.9-8,13.9-17.9,8.9c-9.9-4.9-17.9-17-17.9-26.8s8-13.9,17.9-8.9
					C242.9,263,250.9,275,250.9,284.8z"/>
				<path opacity="0.15" d="M234.5,293.2c-9.9-4.9-17.9-17-17.9-26.8c0-4.9,1.9-8.3,5.1-9.9c-4,1.3-6.6,5-6.6,10.6
					c0,9.9,8,21.9,17.9,26.8c5,2.5,9.6,2.7,12.8,1C242.7,295.8,238.8,295.3,234.5,293.2z"/>
				<path fill="#2D3134" d="M241.9,279c0,4.1-3.3,5.8-7.5,3.7c-4.1-2.1-7.5-7.1-7.5-11.2c0-4.1,3.3-5.8,7.5-3.7
					C238.6,269.9,241.9,274.9,241.9,279z"/>
				<path opacity="0.29" d="M241.9,279c0,4.1-3.3,5.8-7.5,3.7c-4.1-2.1-7.5-7.1-7.5-11.2c0-4.1,3.3-5.8,7.5-3.7
					C238.6,269.9,241.9,274.9,241.9,279z"/>
				<path fill="#2D3134" d="M240.5,279.7c0,4.1-3.3,5.8-7.5,3.7c-4.1-2.1-7.5-7.1-7.5-11.2c0-4.1,3.3-5.8,7.5-3.7
					C237.1,270.6,240.5,275.6,240.5,279.7z"/>
				<path opacity="0.11" d="M261,290.1c0,15.5-12.5,21.7-28,14c-15.5-7.7-28-26.5-28-42c0-15.5,12.5-21.7,28-14S261,274.6,261,290.1
					z"/>
			</g>
		</g>
		<polygon fill="#2D3134" points="212,239 248,221 284,239 248,257 		"/>
		<polygon fill="#2D3134" points="262,282 298,264 284,239 248,257 		"/>
		<polygon opacity="0.29" points="262,282 298,264 284,239 248,257 		"/>
	</g>
	<g>
		<polygon fill="#2D3134" points="160,80 20,150 20,160 62,181 82,181 222,111 		"/>
		<polygon opacity="0.11" points="20,150 20,160 62,181 82,181 		"/>
	</g>
	<g>
		<polygon fill="#2D3134" points="408,204 268,274 288,294 472,386 492,386 632,316 		"/>
		<polygon opacity="0.11" points="268,274 288,294 472,386 492,386 		"/>
	</g>
	<g>
		<polygon fill="#2D3134" points="160,70 20,140 20,150 640,460 780,390 780,380 		"/>
		<polygon opacity="0.11" points="20,140 20,150 640,460 640,450 		"/>
		<polygon opacity="0.15" points="140,80 132,84 752,394 760,390 		"/>
		<polygon opacity="0.15" points="48,126 40,130 660,440 668,436 		"/>
		<polygon opacity="0.29" points="780,380 780,390 640,460 640,450 		"/>
	</g>
	<g>
		<polygon fill="#2D3134" points="752,394 668,436 668,445.9 732,478 816,436 816,426 		"/>
		<polygon opacity="0.11" points="668,436 668,446 732,478 732,468 		"/>
		<polygon opacity="0.29" points="816,426 816,436 732,478 732,468 		"/>
	</g>
</g>
<g>
	<path fill="#2D3134" d="M941,393.4h-1v-30.7c0-1.1-0.6-2.1-1.5-2.7c-0.9-0.6-2.1-0.6-3-0.1l-2.3,1.1l-0.4-0.9l2.3-1.1
		c1.3-0.6,2.8-0.6,4,0.2c1.2,0.8,2,2.1,2,3.5V393.4z"/>
	<path fill="#2D3134" d="M934.7,369v20.9c0,1.9,2.1,3,3.6,1.9l0.5-0.4c2.5-1.8,4-4.7,4-7.7v-21c0-1.9-2.2-3-3.7-1.8l-0.8,0.6
		C936.1,363.3,934.7,366.1,934.7,369z"/>
	<g>
		<path fill="#2D3134" d="M752,494.3c-7.5-3.7-14.2-4.2-19.2-1.9l0,0l-14,7l0,0c-5.4,2.4-8.8,7.9-8.8,15.9c0,15.5,12.5,34.3,28,42
			c7.6,3.8,14.6,4.2,19.6,1.8c0,0,13.9-6.9,15.1-7.6c4.5-2.7,7.3-7.9,7.3-15.2C780,520.8,767.5,502,752,494.3z"/>
		<path opacity="0.29" d="M757.9,558.9c2-1,13.7-6.8,14.8-7.5c4.5-2.7,7.3-7.9,7.3-15.2c0-6.2-2.1-13-5.5-19.3l-14,7
			c3.4,6.4,5.5,13.1,5.5,19.3C766,551,762.9,556.3,757.9,558.9z"/>
		<path fill="#999999" d="M755.9,538.1c0,9.9-8,13.9-17.9,8.9c-9.9-4.9-17.9-17-17.9-26.8c0-9.9,8-13.9,17.9-8.9
			C747.9,516.2,755.9,528.2,755.9,538.1z"/>
		<path opacity="0.15" d="M739.5,546.4c-9.9-4.9-17.9-17-17.9-26.8c0-4.9,1.9-8.3,5.1-9.9c-4,1.3-6.6,5-6.6,10.6
			c0,9.9,8,21.9,17.9,26.8c5,2.5,9.6,2.7,12.8,1C747.7,549,743.8,548.5,739.5,546.4z"/>
		<path fill="#2D3134" d="M746.9,532.2c0,4.1-3.3,5.8-7.5,3.7c-4.1-2.1-7.5-7.1-7.5-11.2c0-4.1,3.3-5.8,7.5-3.7
			C743.6,523.1,746.9,528.1,746.9,532.2z"/>
		<path opacity="0.29" d="M746.9,532.2c0,4.1-3.3,5.8-7.5,3.7c-4.1-2.1-7.5-7.1-7.5-11.2c0-4.1,3.3-5.8,7.5-3.7
			C743.6,523.1,746.9,528.1,746.9,532.2z"/>
		<path fill="#2D3134" d="M745.5,532.9c0,4.1-3.3,5.8-7.5,3.7c-4.1-2.1-7.5-7.1-7.5-11.2s3.3-5.8,7.5-3.7
			C742.1,523.8,745.5,528.8,745.5,532.9z"/>
		<path opacity="0.11" d="M766,543.3c0,15.5-12.5,21.7-28,14s-28-26.5-28-42c0-15.5,12.5-21.7,28-14C753.5,509,766,527.8,766,543.3z
			"/>
	</g>
	<path fill="#06547A" d="M946,453l-126-63l-140,70v15l18,9c0,0,38.4,18.8,41,20c8.6,4.1,16.1,7.8,23.6,16.9
		c8.6,10.5,12.8,26.5,12.5,36.6L806,573l140-70V453z"/>
	<path opacity="0.15" d="M833.5,410.9l86-43c1.9-1,4.2,0,4.9,2l14.7,44.1L833.5,410.9z"/>
	<path fill="#06547A" d="M820,287.3l-140,70V458l126,63l140-70v-15c0-23.7-3.2-47.3-9.5-70.1l-6.5-23.6L820,287.3z"/>
	<g>
		<path fill="#656565" d="M811.6,473.3c-1.5,0-2.7-1.1-2.9-2.5c-1.6-12.2-4.1-24.4-7.3-36.2l-4.8-17.3c-0.4-1.3,0.3-2.8,1.5-3.4
			l125.6-62.8c0.4-0.2,0.8-0.3,1.3-0.3c1.3,0,2.5,0.9,2.8,2.1l3.9,14.3c3.6,13.2,6.2,26.8,7.7,40.4c0.1,1.2-0.5,2.4-1.6,2.9
			l-125,62.5C812.5,473.2,812,473.3,811.6,473.3z"/>
		<path fill="#2D3134" d="M924.9,351.8c0.9,0,1.6,0.6,1.9,1.4l3.9,14.3c3.6,13.1,6.2,26.7,7.7,40.2c0.1,0.8-0.3,1.6-1.1,1.9
			l-125,62.5c-0.3,0.1-0.6,0.2-0.9,0.2c-0.8,0-1.8-0.6-1.9-1.7c-1.6-12.3-4.1-24.5-7.4-36.3l-4.8-17.3c-0.2-0.9,0.2-1.8,1-2.2
			L924.1,352C924.3,351.8,924.6,351.8,924.9,351.8 M924.9,349.8c-0.6,0-1.2,0.1-1.7,0.4L797.6,413c-1.7,0.8-2.5,2.7-2,4.5l4.8,17.3
			c3.3,11.9,5.7,23.9,7.3,36.1c0.3,2,2,3.4,3.9,3.4c0.6,0,1.2-0.1,1.7-0.4l125-62.5c1.5-0.7,2.3-2.3,2.2-3.9
			c-1.5-13.7-4.1-27.2-7.8-40.5l-3.9-14.3C928.2,350.9,926.6,349.8,924.9,349.8L924.9,349.8z"/>
	</g>
	<g>
		<path fill="#2D3134" d="M940.4,407.5c-0.5-4.3-0.8-6.2-0.4-2.8c0.2,1.6-0.7,3.2-2.2,3.9l-125,62.5c-2.2,1.1-4.8-0.1-5.5-2.3
			c0.1,0.7,0.2,1.4,0.3,2.1c0.4,2.7,3.2,4.2,5.6,3l125-62.5C939.7,410.7,940.6,409.1,940.4,407.5z"/>
	</g>
	<g>
		<path fill="#656565" d="M796.3,472.5c-0.3,0-0.7-0.1-1-0.2l-20.2-10.1c-2.5-1.3-4.1-3.8-4.1-6.7c0-4.4-2.4-8.4-6.4-10.3
			l-31.2-15.6c-0.7-0.4-1.2-1.1-1.2-1.9v-35.1c0-1.3,1.1-2.2,2.2-2.2c0.3,0,0.7,0.1,1,0.2l45.9,23c2.8,1.4,4.9,4,5.8,7l4.6,16.6
			c3,10.7,5.2,21.8,6.8,32.8c0.1,0.6-0.1,1.3-0.5,1.7C797.6,472.2,797,472.5,796.3,472.5z"/>
		<path fill="#2D3134" d="M734.4,391.4c0.2,0,0.4,0,0.5,0.1l45.9,23c2.6,1.3,4.5,3.6,5.3,6.4l4.6,16.6c2.9,10.7,5.2,21.7,6.8,32.7
			c0.1,0.4-0.1,0.8-0.3,0.9c-0.2,0.3-0.6,0.4-0.9,0.4c-0.2,0-0.4,0-0.5-0.1l-20.2-10.1c-2.2-1.1-3.6-3.3-3.6-5.8
			c0-4.8-2.7-9.1-6.9-11.2l-31.2-15.6c-0.4-0.2-0.7-0.6-0.7-1.1v-35.1C733.2,391.8,733.9,391.4,734.4,391.4 M734.4,389.4
			c-1.7,0-3.2,1.3-3.2,3.2v35.1c0,1.2,0.7,2.3,1.8,2.8l31.2,15.6c3.6,1.8,5.8,5.4,5.8,9.4v0c0,3.2,1.8,6.1,4.7,7.5l20.2,10.1
			c0.5,0.2,1,0.3,1.4,0.3c1.8,0,3.4-1.6,3.2-3.6c-1.6-11.1-3.8-22.1-6.8-32.9l-4.6-16.6c-0.9-3.3-3.2-6.1-6.3-7.7l-45.9-23
			C735.4,389.5,734.9,389.4,734.4,389.4L734.4,389.4z"/>
	</g>
	<path opacity="0.2" d="M845.5,419c35,0,67.6-4.8,94.7-13.1c-1.5-13.1-4.1-26.1-7.6-38.9l-3.9-14.3c-0.7-2.4-3.3-3.6-5.5-2.5
		L797.6,413c-1.1,0.5-1.8,1.5-2.1,2.6C811.4,417.8,828.1,419,845.5,419z"/>
	<g>
		<path fill="#2D3134" d="M928.8,362.6c1-0.5,1.7-1.4,2-2.4l-2.1-7.6c-0.7-2.4-3.3-3.6-5.5-2.5L797.6,413c-1.7,0.8-2.5,2.7-2,4.5
			l2.3,8.4c1.1,0.7,2.6,0.9,3.9,0.2L928.8,362.6z"/>
	</g>
	<path opacity="0.11" d="M680,460v15l18,9c0,0,38.4,18.8,41,20c8.6,4.1,16.1,7.8,23.6,16.9c8.6,10.5,12.8,26.5,12.5,36.6L806,573
		v-50L680,460z"/>
	<polygon opacity="0.3" fill="#2D3134" points="731,438.5 731,443.5 741,448.5 741,443.5 	"/>
	<polygon opacity="0.3" fill="#FFFFFF" points="741,451 731,446 731,443.5 741,448.5 	"/>
	<path fill="#2D3134" d="M879,412.5c-0.8-0.7-1.9-0.6-2.6,0.2l-34.2,38.9c-0.7,0.8-0.6,1.9,0.2,2.6s1.9,0.6,2.6-0.2l9.2-10.5v9h2.3
		V441h-0.1l22.9-26C879.8,414.3,879.7,413.2,879,412.5z"/>
	<path fill="#2D3134" d="M911.9,394.5c-0.8-0.7-1.9-0.6-2.6,0.2l-34.2,38.9c-0.7,0.8-0.6,1.9,0.2,2.6c0.8,0.7,1.9,0.6,2.6-0.2
		l8.2-9.3v9.9h2.3V424l23.8-27C912.7,396.3,912.6,395.1,911.9,394.5z"/>
	<g>
		<polyline opacity="0.2" fill="none" stroke="#000000" stroke-width="0.8485" stroke-miterlimit="10" points="946,421 939.2,424.4 
			904,512.4 848,540.4 812.8,487.6 806,491 		"/>
		<polygon fill="#2D3134" points="921.1,458.5 931.1,433.4 820.9,488.5 830.9,503.6 		"/>
		<g>
			<polygon fill="#2D3134" points="845.4,525.3 851.1,533.9 900.9,509 906.6,494.7 			"/>
			<polygon fill="#2D3134" points="910.1,486 915.6,472.2 836.4,511.8 841.9,520.1 			"/>
		</g>
		<polygon fill="#2D3134" points="917.8,489.1 912.3,502.9 946,486 946,475 		"/>
		<polygon opacity="0.2" points="946,446 946,426 942.3,427.8 932.3,452.9 		"/>
		<polygon fill="#FFFFFF" points="946,468 946,457 926.8,466.6 921.3,480.4 		"/>
		<polygon opacity="0.2" points="819.7,509.2 809.7,494.1 806,496 806,516 		"/>
		<polygon fill="#2D3134" points="806,545 806,556 839.7,539.2 834.2,530.9 		"/>
		<polygon fill="#FFFFFF" points="830.7,525.7 825.2,517.4 806,527 806,538 		"/>
		<polygon fill="#FFFFFF" points="927,493.5 944,485 944,478 927,486.5 		"/>
		<polygon fill="#FFFFFF" points="860,543 896,525 896,518 860,536 		"/>
		<polygon fill="#FFFFFF" points="808,553 825,544.5 825,537.5 808,546 		"/>
		
			<ellipse transform="matrix(-0.6313 0.7756 -0.7756 -0.6313 1761.0658 249.498)" opacity="0.3" fill="#2D3134" cx="821.2" cy="543.4" rx="2.6" ry="1.7"/>
		
			<ellipse transform="matrix(-0.6313 0.7756 -0.7756 -0.6313 1757.1359 251.3664)" opacity="0.3" fill="#2D3134" cx="818.8" cy="543.4" rx="2.6" ry="1.7"/>
		
			<ellipse transform="matrix(-0.6313 0.7756 -0.7756 -0.6313 1749.2751 219.4476)" opacity="0.3" fill="#2D3134" cx="822.5" cy="525.6" rx="4.4" ry="2.9"/>
		
			<ellipse transform="matrix(-0.6313 0.7756 -0.7756 -0.6313 1742.6271 222.6083)" opacity="0.3" fill="#2D3134" cx="818.4" cy="525.6" rx="4.4" ry="2.9"/>
		
			<ellipse transform="matrix(-0.6313 0.7756 -0.7756 -0.6313 1881.9414 48.374)" opacity="0.3" fill="#2D3134" cx="929.5" cy="471.6" rx="4.4" ry="2.9"/>
		
			<ellipse transform="matrix(-0.6313 0.7756 -0.7756 -0.6313 1885.2415 38.805)" opacity="0.3" fill="#2D3134" cx="933.4" cy="467.6" rx="4.4" ry="2.9"/>
		
			<ellipse transform="matrix(-0.6313 0.7756 -0.7756 -0.6313 1751.1178 262.2276)" opacity="0.3" fill="#2D3134" cx="813.2" cy="547.4" rx="2.6" ry="1.7"/>
		
			<ellipse transform="matrix(-0.6313 0.7756 -0.7756 -0.6313 1747.1879 264.096)" opacity="0.3" fill="#2D3134" cx="810.8" cy="547.4" rx="2.6" ry="1.7"/>
		
			<ellipse transform="matrix(-0.6313 0.7756 -0.7756 -0.6313 1910.2854 58.5545)" opacity="0.3" fill="#2D3134" cx="941.2" cy="483.4" rx="2.6" ry="1.7"/>
		
			<ellipse transform="matrix(-0.6313 0.7756 -0.7756 -0.6313 1906.3555 60.4229)" opacity="0.3" fill="#2D3134" cx="938.8" cy="483.4" rx="2.6" ry="1.7"/>
		
			<ellipse transform="matrix(-0.6313 0.7756 -0.7756 -0.6313 1900.3374 71.284)" opacity="0.3" fill="#2D3134" cx="933.2" cy="487.4" rx="2.6" ry="1.7"/>
		
			<ellipse transform="matrix(-0.6313 0.7756 -0.7756 -0.6313 1896.4075 73.1525)" opacity="0.3" fill="#2D3134" cx="930.8" cy="487.4" rx="2.6" ry="1.7"/>
		<polygon fill="#FF9900" points="807,536 813,533 813,528 807,531 		"/>
		<polygon fill="#FF9900" points="939,470 945,467 945,462 939,465 		"/>
	</g>
	<g>
		<path fill="#06547A" d="M820,251l-140,70v36l84,42l140-70v0c0-11.5-22.9-31.4-31.4-39L820,251z"/>
		<path opacity="0.11" d="M680,321v36l84,42v0c0-11.5-22.9-31.4-31.4-39L680,321z"/>
	</g>
	<path fill="#2D3134" d="M787,471c-1.1,0-2.2-0.3-3.1-0.9c-1.8-1.1-2.8-3-2.8-5.1v-32.3c0-2.3,1.3-4.3,3.3-5.3l3.7-1.8l0.4,0.9
		l-3.7,1.8c-1.7,0.8-2.7,2.5-2.7,4.4V465c0,1.7,0.9,3.3,2.4,4.2c1.5,0.9,3.3,1,4.8,0.2l0.6-0.3l0.4,0.9l-0.6,0.3
		C788.8,470.7,787.9,471,787,471z"/>
	<path fill="#2D3134" d="M781.3,431.9l0.7-0.3c2.4-0.8,4.9,1,4.9,3.5v21.4c0,3.1-1.9,6-4.9,7.1l-0.9,0.3c-2.4,0.9-5.1-0.9-5.1-3.5
		V439C776.2,435.8,778.2,432.9,781.3,431.9z"/>
	<polygon opacity="0.3" fill="#2D3134" points="698,467 700,468 700,367.3 698,366.3 	"/>
	<polygon opacity="0.3" fill="#FFFFFF" points="696,466 698,467 698,366.3 696,365.3 	"/>
	<polygon opacity="0.29" points="806,573 946,503 946,453 806,523 	"/>
	<path opacity="0.29" d="M930,342.3l-140,70l6.5,23.6c6.3,22.8,9.5,46.4,9.5,70.1v15l140-70v-15c0-23.7-3.2-47.3-9.5-70.1L930,342.3
		z"/>
	<path opacity="0.11" d="M790,412.3l-110-55V458l126,63v-15c0-23.7-3.2-47.3-9.5-70.1L790,412.3z"/>
	<g>
		<polygon opacity="0.3" fill="#2D3134" points="788,564 786,563 786,513 788,514 		"/>
		<polygon opacity="0.3" fill="#FFFFFF" points="790,565 788,564 788,514 790,515 		"/>
	</g>
</g>
</svg>
