<?xml version="1.0" encoding="utf-8"?>
<!-- Generator: Adobe Illustrator 18.1.0, SVG Export Plug-In . SVG Version: 6.00 Build 0)  -->
<svg version="1.1" id="Layer_1" xmlns="http://www.w3.org/2000/svg" xmlns:xlink="http://www.w3.org/1999/xlink" x="0px" y="0px"
	 viewBox="0 0 2456 624" enable-background="new 0 0 2456 624" xml:space="preserve">
<g>
	<polygon fill="#825012" points="432,320 432,312 464,312 472,312 496,304 512,304 528,312 576,312 592,320 600,328 616,336 
		648,336 664,344 672,360 696,368 736,376 760,376 776,384 800,392 800,400 792,408 768,432 768,448 760,464 752,472 712,480 
		704,496 696,504 672,528 656,536 648,544 624,552 616,568 608,576 608,584 616,584 616,592 608,600 616,608 648,616 648,624 
		624,624 608,616 584,616 552,584 544,568 536,560 528,544 528,520 520,504 520,480 512,448 504,448 480,440 464,432 448,416 
		432,408 416,392 416,368 440,352 448,344 448,336 	"/>
	<polygon opacity="0.3" points="432,320 432,312 464,312 472,312 496,304 512,304 528,312 576,312 592,320 600,328 616,336 648,336 
		664,344 672,360 696,368 736,376 760,376 776,384 800,392 800,400 792,408 768,432 768,448 760,464 752,472 712,480 704,496 
		696,504 672,528 656,536 648,544 624,552 616,568 608,576 608,584 616,584 616,592 608,600 616,608 648,616 648,624 624,624 
		608,616 584,616 552,584 544,568 536,560 528,544 528,520 520,504 520,480 512,448 504,448 480,440 464,432 448,416 432,408 
		416,392 416,368 440,352 448,344 448,336 	"/>
	<polygon fill="#99CC33" points="432,312 456,312 464,304 472,304 496,296 512,296 528,304 576,304 592,312 600,320 616,328 
		648,328 664,336 672,352 696,360 736,368 760,368 776,376 800,384 800,392 792,400 768,424 768,440 760,456 752,464 712,472 
		704,488 696,496 672,520 656,528 648,536 624,544 616,560 608,568 608,576 616,576 616,584 608,592 616,600 632,608 648,616 
		624,616 608,608 584,608 552,576 544,560 536,552 528,536 528,512 520,496 520,472 512,440 504,440 480,432 464,424 448,408 
		432,400 416,384 416,360 440,344 448,336 448,328 	"/>
</g>
<g>
	<polygon fill-rule="evenodd" clip-rule="evenodd" fill="#825012" points="1040,208 1080,208 1104,200 1168,200 1176,208 1216,216 
		1240,224 1248,224 1256,216 1272,216 1296,224 1344,224 1352,232 1384,264 1392,280 1416,296 1432,304 1448,320 1471,320 1504,312 
		1504,320 1488,336 1456,352 1440,360 1416,376 1408,384 1408,408 1416,416 1416,432 1376,448 1368,456 1368,472 1344,496 1312,512 
		1272,520 1248,520 1216,488 1216,472 1192,448 1192,440 1208,424 1208,408 1184,376 1168,368 1168,360 1176,352 1168,336 1136,336 
		1120,328 1064,336 1016,336 984,320 952,296 952,288 960,280 960,264 984,240 	"/>
	<polygon opacity="0.3" fill-rule="evenodd" clip-rule="evenodd" points="1040,208 1080,208 1104,200 1168,200 1176,208 1216,216 
		1240,224 1248,224 1256,216 1272,216 1296,224 1344,224 1352,232 1384,264 1392,280 1416,296 1432,304 1448,320 1471,320 1504,312 
		1504,320 1488,336 1456,352 1440,360 1416,376 1408,384 1408,408 1416,416 1416,432 1376,448 1368,456 1368,472 1344,496 1312,512 
		1272,520 1248,520 1216,488 1216,472 1192,448 1192,440 1208,424 1208,408 1184,376 1168,368 1168,360 1176,352 1168,336 1136,336 
		1120,328 1064,336 1016,336 984,320 952,296 952,288 960,280 960,264 984,240 	"/>
	<polygon fill-rule="evenodd" clip-rule="evenodd" fill="#99CC33" points="1040,200 1080,200 1104,192 1168,192 1176,200 1216,208 
		1240,216 1248,216 1256,208 1272,208 1296,216 1344,216 1352,224 1384,256 1392,272 1416,288 1432,296 1448,312 1471,312 1504,304 
		1504,312 1488,328 1456,344 1440,352 1416,368 1408,376 1408,400 1416,408 1416,424 1376,440 1368,448 1368,464 1344,488 1312,504 
		1272,512 1248,512 1216,480 1216,464 1192,440 1192,432 1208,416 1208,400 1184,368 1168,360 1176,344 1168,328 1136,328 1120,320 
		1064,328 1016,328 984,312 952,288 960,272 960,256 984,232 	"/>
	<polygon fill-rule="evenodd" clip-rule="evenodd" fill="#825012" points="1456,440 1472,440 1488,424 1496,424 1496,440 1480,464 
		1464,480 1448,480 1440,472 1440,464 	"/>
	<polygon opacity="0.3" fill-rule="evenodd" clip-rule="evenodd" points="1456,440 1472,440 1488,424 1496,424 1496,440 1480,464 
		1464,480 1448,480 1440,472 1440,464 	"/>
	<polygon fill-rule="evenodd" clip-rule="evenodd" fill="#99CC33" points="1456,432 1472,432 1488,416 1496,416 1496,432 1480,456 
		1464,472 1448,472 1440,464 1448,448 	"/>
</g>
<g>
	<polygon fill-rule="evenodd" clip-rule="evenodd" fill="#825012" points="2304,584 2304,576 2360,565 2376,560 2397,552 2424,544 
		2424,528 2432,528 2456,536 2456,544 2432,552 2416,560 2400,560 2360,576 2352,576 2328,584 	"/>
	<polygon fill-rule="evenodd" clip-rule="evenodd" fill="#825012" points="2144,432 2216,416 2216,424 2208,432 2208,440 2232,448 
		2256,416 2264,416 2280,440 2288,456 2328,480 2328,488 2304,512 2272,528 2256,536 2232,552 2192,544 2176,528 2160,528 2152,520 
		2120,512 2072,520 2032,528 2008,536 1992,528 1992,520 2008,512 2000,488 2000,480 2064,456 2072,456 2096,440 2120,432 	"/>
	<polygon fill-rule="evenodd" clip-rule="evenodd" fill="#825012" points="2336,416 2336,408 2312,400 2304,392 2288,384 2256,376 
		2232,368 2208,376 2168,360 2168,368 2184,376 2184,384 2200,384 2224,392 2224,400 2240,400 2256,408 2272,408 2280,400 2296,408 
			"/>
	<polygon opacity="0.3" fill-rule="evenodd" clip-rule="evenodd" points="2304,584 2304,576 2360,565 2376,560 2397,552 2424,544 
		2424,528 2432,528 2456,536 2456,544 2432,552 2416,560 2400,560 2360,576 2352,576 2328,584 	"/>
	<polygon opacity="0.3" fill-rule="evenodd" clip-rule="evenodd" points="2144,432 2216,416 2216,424 2208,432 2208,440 2232,448 
		2256,416 2264,416 2280,440 2288,456 2328,480 2328,488 2304,512 2272,528 2256,536 2232,552 2192,544 2176,528 2160,528 2152,520 
		2120,512 2072,520 2032,528 2008,536 1992,528 1992,520 2008,512 2000,488 2000,480 2064,456 2072,456 2096,440 2120,432 	"/>
	<polygon opacity="0.3" fill-rule="evenodd" clip-rule="evenodd" points="2336,416 2336,408 2312,400 2304,392 2288,384 2256,376 
		2232,368 2208,376 2168,360 2168,368 2184,376 2184,384 2200,384 2224,392 2224,400 2240,400 2256,408 2272,408 2280,400 2296,408 
			"/>
	<polygon fill-rule="evenodd" clip-rule="evenodd" fill="#99CC33" points="2144,424 2176,408 2216,416 2208,424 2208,432 2232,440 
		2256,408 2264,408 2280,432 2288,448 2304,456 2328,480 2304,504 2272,520 2256,528 2232,544 2192,536 2176,520 2160,520 2152,512 
		2120,504 2072,512 2032,520 2008,528 1992,520 2008,504 2000,480 2008,464 2064,448 2072,448 2096,432 2120,424 	"/>
	<polygon fill-rule="evenodd" clip-rule="evenodd" fill="#99CC33" points="2336,408 2320,400 2312,392 2304,384 2288,376 2256,368 
		2232,360 2208,368 2192,360 2168,360 2184,368 2184,376 2200,376 2224,384 2224,392 2240,392 2256,400 2272,400 2280,392 2296,400 
			"/>
	<polygon fill-rule="evenodd" clip-rule="evenodd" fill="#99CC33" points="2304,576 2320,568 2360,560 2376,552 2408,544 2424,536 
		2424,520 2432,520 2440,528 2456,536 2432,544 2416,552 2400,552 2360,568 2352,568 2328,576 	"/>
	<polygon fill="#825012" points="2192,560 2192,552 2216,544 2216,552 2200,568 	"/>
	<polygon opacity="0.3" points="2192,560 2192,552 2216,544 2216,552 2200,568 	"/>
	<polygon fill="#99CC33" points="2192,552 2216,544 2200,560 	"/>
</g>
<polygon fill-rule="evenodd" clip-rule="evenodd" fill="#825012" points="960,88 960,80 1032,80 1032,88 1000,96 984,96 "/>
<polygon opacity="0.3" fill-rule="evenodd" clip-rule="evenodd" points="960,88 960,80 1032,80 1032,88 1000,96 984,96 "/>
<polygon fill-rule="evenodd" clip-rule="evenodd" fill="#825012" points="1024,128 1024,120 1048,112 1064,112 1064,120 1048,128 
	"/>
<polygon opacity="0.3" fill-rule="evenodd" clip-rule="evenodd" points="1024,128 1024,120 1048,112 1064,112 1064,120 1048,128 "/>
<polygon fill-rule="evenodd" clip-rule="evenodd" fill="#99CC33" points="1024,120 1032,112 1048,104 1056,104 1064,112 1048,120 
	"/>
<polygon fill-rule="evenodd" clip-rule="evenodd" fill="#825012" points="1056,144 1056,136 1072,120 1064,112 1064,104 1080,104 
	1088,112 1104,120 1112,120 1112,128 1096,136 "/>
<polygon opacity="0.3" fill-rule="evenodd" clip-rule="evenodd" points="1056,144 1056,136 1072,120 1064,112 1064,104 1080,104 
	1088,112 1104,120 1112,120 1112,128 1096,136 "/>
<polygon fill-rule="evenodd" clip-rule="evenodd" fill="#99CC33" points="1056,136 1072,112 1064,104 1072,96 1080,96 1088,104 
	1104,112 1112,120 1096,128 "/>
<polygon fill="#825012" points="1456,160 1472,152 1472,57 1424,63 1384,64 1368,72 1352,64 1296,56 1240,48 1208,56 1192,64 
	1176,72 1152,80 1136,88 1136,96 1152,104 1168,96 1184,104 1176,104 1176,112 1208,112 1232,96 1232,88 1216,88 1224,80 1248,72 
	1264,72 1240,80 1240,88 1264,96 1248,104 1240,112 1200,120 1176,120 1168,112 1160,112 1160,120 1128,128 1112,136 1064,144 
	1064,152 1080,152 1088,160 1080,168 1032,168 1024,176 1024,192 1048,200 1080,200 1096,184 1120,176 1120,168 1168,168 1184,176 
	1208,184 1208,192 1200,192 1200,200 1208,200 1224,192 1224,184 1232,184 1232,176 1216,176 1200,168 1184,160 1192,152 1216,160 
	1248,176 1264,192 1272,184 1280,176 1304,176 1312,160 1328,151 1336,160 1352,168 1360,160 1360,157.3 1376,152 1376,160 
	1448,168 "/>
<polygon opacity="0.3" points="1456,160 1472,152 1472,57 1424,63 1384,64 1368,72 1352,64 1296,56 1240,48 1208,56 1192,64 
	1176,72 1152,80 1136,88 1136,96 1152,104 1168,96 1184,104 1176,104 1176,112 1208,112 1232,96 1232,88 1216,88 1224,80 1248,72 
	1264,72 1240,80 1240,88 1264,96 1248,104 1240,112 1200,120 1176,120 1168,112 1160,112 1160,120 1128,128 1112,136 1064,144 
	1064,152 1080,152 1088,160 1080,168 1032,168 1024,176 1024,192 1048,200 1080,200 1096,184 1120,176 1120,168 1168,168 1184,176 
	1208,184 1208,192 1200,192 1200,200 1208,200 1224,192 1224,184 1232,184 1232,176 1216,176 1200,168 1184,160 1192,152 1216,160 
	1248,176 1264,192 1272,184 1280,176 1304,176 1312,160 1328,151 1336,160 1352,168 1360,160 1360,157.3 1376,152 1376,160 
	1448,168 "/>
<polygon fill-rule="evenodd" clip-rule="evenodd" fill="#99CC33" points="960,80 976,72 1016,72 1032,80 1000,88 984,88 "/>
<polygon fill-rule="evenodd" clip-rule="evenodd" fill="#825012" points="1992,360 2008,352 2032,344 2056,328 2080,336 2080,344 
	2064,352 2072,352 2072,360 2056,368 2048,384 2000,376 1992,368 "/>
<polygon fill-rule="evenodd" clip-rule="evenodd" fill="#825012" points="2120,360 2120,352 2080,360 2072,376 2072,384 2080,392 
	2096,384 2104,392 2104,376 "/>
<polygon fill-rule="evenodd" clip-rule="evenodd" fill="#825012" points="1880,336 1904,344 1936,360 1952,368 1960,376 1960,384 
	2072,400 2072,408 1976,400 1952,392 1920,376 1880,344 "/>
<polygon opacity="0.3" fill-rule="evenodd" clip-rule="evenodd" points="1880,336 1904,344 1936,360 1952,368 1960,376 1960,384 
	2072,400 2072,408 1976,400 1952,392 1920,376 1880,344 "/>
<polygon fill-rule="evenodd" clip-rule="evenodd" fill="#825012" points="2112,208 2128,200 2152,192 2168,184 2168,176 2152,160 
	2152,152 2160,152 2192,160 2176,168 2192,184 2192,192 2184,200 2176,200 2168,208 2152,208 2128,216 "/>
<polygon fill-rule="evenodd" clip-rule="evenodd" fill="#825012" points="2112,216 2112,208 2152,200 2168,192 2168,184 2152,168 
	2152,160 2192,160 2192,168 2176,176 2192,192 2192,200 2184,208 2176,208 2168,216 2152,216 2128,224 "/>
<polygon fill-rule="evenodd" clip-rule="evenodd" fill="#825012" points="2120,312 2120,304 2096,296 2104,288 2104,280 2072,280 
	2072,288 2080,304 2112,312 "/>
<polygon fill-rule="evenodd" clip-rule="evenodd" fill="#825012" points="2064,256 2072,264 2080,256 2080,248 2064,248 "/>
<polygon opacity="0.3" fill-rule="evenodd" clip-rule="evenodd" points="1992,360 2008,352 2032,344 2056,328 2080,336 2080,344 
	2064,352 2072,352 2072,360 2056,368 2048,384 2000,376 1992,368 "/>
<polygon opacity="0.3" fill-rule="evenodd" clip-rule="evenodd" points="2120,360 2120,352 2080,360 2072,376 2072,384 2080,392 
	2096,384 2104,392 2104,376 "/>
<polygon opacity="0.3" fill-rule="evenodd" clip-rule="evenodd" points="2112,216 2112,208 2152,200 2168,192 2168,184 2152,168 
	2152,160 2192,160 2192,168 2176,176 2192,192 2192,200 2184,208 2176,208 2168,216 2152,216 2128,224 "/>
<polygon opacity="0.3" fill-rule="evenodd" clip-rule="evenodd" points="2120,312 2120,304 2096,296 2104,288 2104,280 2072,280 
	2072,288 2080,304 2112,312 "/>
<polygon opacity="0.3" fill-rule="evenodd" clip-rule="evenodd" points="2064,256 2072,264 2080,256 2080,248 2064,248 "/>
<polygon fill-rule="evenodd" clip-rule="evenodd" fill="#99CC33" points="2064,248 2072,256 2080,248 "/>
<polygon fill-rule="evenodd" clip-rule="evenodd" fill="#825012" points="1424,55 1400,47 1400,47 1400,40 1472,32 1472,39 1424,47 
	"/>
<polygon opacity="0.3" fill-rule="evenodd" clip-rule="evenodd" points="1424,55 1400,47 1400,47 1400,40 1472,32 1472,39 1424,47 
	"/>
<polygon fill-rule="evenodd" clip-rule="evenodd" fill="#99CC33" points="1424,48 1400,40 1400,40 1424,32 1472,32 1424,40 1416,40 
	"/>
<polygon fill="#825012" points="2240,72 2296,80 2296,72 2240,61 2200,56 2136,48 2096,56 2056,48 2008,48 1936,40 1920,40 1896,48 
	1872,40 1776,40 1752,32 1688,24 1664,24 1600,32 1568,48 1512,48 1504,56 1480,56 1472,57 1472,152 1480,152 1496,160 1472,160 
	1472,168 1496,176 1496,184 1520,192 1504,200 1488,200 1472,192 1472,184 1464,176 1448,168 1376,152 1376,160 1408,176 1392,184 
	1360,176 1344,176 1296,176 1296,184 1304,192 1368,200 1376,208 1368,224 1368,232 1392,256 1408,272 1424,280 1432,296 1456,312 
	1504,304 1552,288 1568,272 1568,264 1552,256 1528,256 1504,256 1504,248 1480,240 1480,232 1488,232 1504,240 1528,248 1552,248 
	1624,256 1656,272 1672,272 1680,280 1688,296 1728,336 1752,320 1752,296 1760,296 1800,272 1832,272 1848,280 1864,296 1880,296 
	1896,304 1904,328 1928,352 1952,360 1952,352 1936,336 1920,336 1912,328 1912,320 1920,312 1928,312 1944,320 1960,328 1984,320 
	1992,312 1992,304 1968,288 1952,280 1960,272 1976,267 1992,272 2008,265 2032,264 2048,256 2064,232 2064,224 2040,216 2024,208 
	2040,200 2040,192 2008,192 2008,184 2016,184 2032,184 2040,184 2056,192 2072,200 2080,208 2104,208 2104,200 2072,184 2088,168 
	2104,168 2120,144 2120,139 2128,144 2136,152 2152,152 2152,144 2128,136 2106,120 2056,120 2048,112 2064,96 2120,104 2136,88 
	2168,88 2176,96 2168,104 2168,112 2184,120 2216,136 2224,128 2224,120 2200,104 2200,96 2232,96 2264,88 2264,80 2232,80 "/>
<polygon opacity="0.3" points="2240,72 2296,80 2296,72 2240,61 2200,56 2136,48 2096,56 2056,48 2008,48 1936,40 1920,40 1896,48 
	1872,40 1776,40 1752,32 1688,24 1664,24 1600,32 1568,48 1512,48 1504,56 1480,56 1472,57 1472,152 1480,152 1496,160 1472,160 
	1472,168 1496,176 1496,184 1520,192 1504,200 1488,200 1472,192 1472,184 1464,176 1448,168 1376,152 1376,160 1408,176 1392,184 
	1360,176 1344,176 1296,176 1296,184 1304,192 1368,200 1376,208 1368,224 1368,232 1392,256 1408,272 1424,280 1432,296 1456,312 
	1504,304 1552,288 1568,272 1568,264 1552,256 1528,256 1504,256 1504,248 1480,240 1480,232 1488,232 1504,240 1528,248 1552,248 
	1624,256 1656,272 1672,272 1680,280 1688,296 1728,336 1752,320 1752,296 1760,296 1800,272 1832,272 1848,280 1864,296 1880,296 
	1896,304 1904,328 1928,352 1952,360 1952,352 1936,336 1920,336 1912,328 1912,320 1920,312 1928,312 1944,320 1960,328 1984,320 
	1992,312 1992,304 1968,288 1952,280 1960,272 1976,267 1992,272 2008,265 2032,264 2048,256 2064,232 2064,224 2040,216 2024,208 
	2040,200 2040,192 2008,192 2008,184 2016,184 2032,184 2040,184 2056,192 2072,200 2080,208 2104,208 2104,200 2072,184 2088,168 
	2104,168 2120,144 2120,139 2128,144 2136,152 2152,152 2152,144 2128,136 2106,120 2056,120 2048,112 2064,96 2120,104 2136,88 
	2168,88 2176,96 2168,104 2168,112 2184,120 2216,136 2224,128 2224,120 2200,104 2200,96 2232,96 2264,88 2264,80 2232,80 "/>
<path fill="#99CC33" d="M2240,64l56,8l-16-8l-40-8l-40-8l-64-8l-40,8l-40-8h-48l-72-8h-16l-24,8l-24-8h-96l-24-8l-64-8h-24l-64,8
	l-32,16h-56l-8,8h-24l-8,1l-48,6l-40,1l-16,8l-16-8l-56-8l-56-8l-32,8l-16,8l-16,8l-24,8l-16,8v8l16,8l16-8l16,8l-8,8h32l24-16
	l-16-8l8-8l24-8h16l-24,8v8l24,8l-16,8l-8,8l-40,8h-24l-8-8h-8v8l-32,8l-16,8l-32,8l-16,8h16l8,8l-8,8h-48l-8,8v16l24,8h32l16-16
	l24-8v-8h48l16,8l24,8v8l-8,8h8l16-8v-8h8l-16-8l-16-8l-16-8l8-8l24,8l32,16l16,16l8-8l8-8h24l8-16l16-9l8,9l16,8l8-8h-8l24-8v8
	l32,16l-16,8l-32-8h-16l-40,8h-8l8,8l64,8l8,8l-8,16v8l24,24l16,16l16,8l8,16l24,16l48-8l48-16l16-16v-8l-16-8h-24h-24v-8l-24-8v-8
	h8l16,8l24,8h24l72,8l32,16h16l8,8l8,16l40,40l24-16v-24h8l40-24h32l16,8l16,16h16l16,8l8,24l24,24l24,8l-8-16l-8-8h-16l-8-8v-8l8-8
	h8l16,8l16,8l24-8l8-8l-24-24l-16-8l8-8l16-5l16,5l16-7l24-1l16-8l16-24l-8-8l-16-8l-16-8l16-8h-16l-16-8v-8h8h16h8l16,8l16,8l8,8
	h24l-8-8l-24-16l16-16h16l16-24l-16-16l24,16l8,8h16l-8-8l-16-8l-40-16h-32l-8-8l16-16l56,8l16-16h32l8,8l-8,16l16,8l32,16l8-8v-8
	l-24-16v-8h32l32-8l-32-8L2240,64z M1504,192h-16l-16-8v-8l-8-8l-16-8l8-8l16-8h8l16,8h-16l-8,8l24,8h8l8,8h-16l24,8L1504,192z"/>
<polygon fill-rule="evenodd" clip-rule="evenodd" fill="#99CC33" points="1880,328 1904,336 1936,352 1952,360 1960,368 1960,376 
	1968,384 2008,384 2072,400 1976,392 1952,384 1920,368 1880,336 "/>
<polygon fill-rule="evenodd" clip-rule="evenodd" fill="#99CC33" points="2112,208 2128,200 2152,192 2168,184 2168,176 2152,160 
	2152,152 2160,152 2192,160 2176,168 2192,184 2192,192 2184,200 2176,200 2168,208 2152,208 2128,216 "/>
<polygon fill-rule="evenodd" clip-rule="evenodd" fill="#99CC33" points="1992,352 2008,344 2032,336 2056,320 2080,336 2064,344 
	2072,352 2056,360 2048,376 2000,368 1992,360 "/>
<polygon fill-rule="evenodd" clip-rule="evenodd" fill="#99CC33" points="2120,352 2080,352 2072,368 2072,376 2080,384 2096,376 
	2104,384 2104,368 "/>
<polygon fill-rule="evenodd" clip-rule="evenodd" fill="#99CC33" points="2120,304 2112,296 2096,296 2096,288 2104,280 2088,272 
	2072,280 2080,296 2112,304 "/>
<g>
	<polygon fill-rule="evenodd" clip-rule="evenodd" fill="#825012" points="0,104 72,96 120,88 136,80 176,88 192,96 192,120 
		184,120 184,128 192,136 176,152 144,176 144,192 152,200 168,208 168,224 176,232 176,240 184,248 200,256 200,248 184,224 
		184,216 192,216 192,224 216,248 232,256 232,272 256,280 287,288 312,288 328,296 368,304 384,320 408,328 424,328 424,320 
		399,312 408,296 408,288 376,288 369,280 384,272 384,264 360,264 352,272 304,272 304,248 320,232 344,224 384,224 408,216 
		424,224 432,240 440,248 448,240 448,232 448,216 472,208 496,200 512,184 528,176 560,168 568,160 592,152 608,160 624,152 
		640,152 640,144 624,144 632,136 632,128 672,128 664,136 664,144 712,144 712,136 704,128 712,112 712,104 688,104 680,88 640,88 
		648,80 648,72 632,72 600,72 592,80 576,80 576,88 584,96 560,104 552,104 544,120 528,120 528,112 536,104 536,96 496,96 488,96 
		480,88 512,72 528,72 544,64 560,72 584,72 584,64 609,56 632,40 656,48 656,56 624,56 624,64 648,72 672,80 696,64 696,60 704,64 
		720,56 720,48 704,48 704,40 680,32 600,32 584,40 584,48 576,48 568,40 544,40 536,48 512,48 496,56 472,48 416,48 360,40 288,48 
		224,40 160,40 104,48 88,56 56,56 56,64 72,64 64,72 16,80 16,88 24,88 0,96 	"/>
	<polygon opacity="0.2" fill-rule="evenodd" clip-rule="evenodd" fill="#825012" points="0,104 72,96 120,88 136,80 176,88 192,96 
		192,120 184,120 184,128 192,136 176,152 144,176 144,192 152,200 168,208 168,224 176,232 176,240 184,248 200,256 200,248 
		184,224 184,216 192,216 192,224 216,248 232,256 232,272 256,280 287,288 312,288 328,296 368,304 384,320 408,328 424,328 
		424,320 399,312 408,296 408,288 376,288 369,280 384,272 384,264 360,264 352,272 304,272 304,248 320,232 344,224 384,224 
		408,216 424,224 432,240 440,248 448,240 448,232 448,216 472,208 496,200 512,184 528,176 560,168 568,160 592,152 608,160 
		624,152 640,152 640,144 624,144 632,136 632,128 672,128 664,136 664,144 712,144 712,136 704,128 712,112 712,104 688,104 
		680,88 640,88 648,80 648,72 632,72 600,72 592,80 576,80 576,88 584,96 560,104 552,104 544,120 528,120 528,112 536,104 536,96 
		496,96 488,96 480,88 512,72 528,72 544,64 560,72 584,72 584,64 609,56 632,40 656,48 656,56 624,56 624,64 648,72 672,80 696,64 
		696,60 704,64 720,56 720,48 704,48 704,40 680,32 600,32 584,40 584,48 576,48 568,40 544,40 536,48 512,48 496,56 472,48 416,48 
		360,40 288,48 224,40 160,40 104,48 88,56 56,56 56,64 72,64 64,72 16,80 16,88 24,88 0,96 	"/>
	<polygon opacity="0.3" fill-rule="evenodd" clip-rule="evenodd" points="0,104 72,96 120,88 136,80 176,88 192,96 192,120 184,120 
		184,128 192,136 176,152 144,176 144,192 152,200 168,208 168,224 176,232 176,240 184,248 200,256 200,248 184,224 184,216 
		192,216 192,224 216,248 232,256 232,272 256,280 287,288 312,288 328,296 368,304 384,320 408,328 424,328 424,320 399,312 
		408,296 408,288 376,288 369,280 384,272 384,264 360,264 352,272 304,272 304,248 320,232 344,224 384,224 408,216 424,224 
		432,240 440,248 448,240 448,232 448,216 472,208 496,200 512,184 528,176 560,168 568,160 592,152 608,160 624,152 640,152 
		640,144 624,144 632,136 632,128 672,128 664,136 664,144 712,144 712,136 704,128 712,112 712,104 688,104 680,88 640,88 648,80 
		648,72 632,72 600,72 592,80 576,80 576,88 584,96 560,104 552,104 544,120 528,120 528,112 536,104 536,96 496,96 488,96 480,88 
		512,72 528,72 544,64 560,72 584,72 584,64 609,56 632,40 656,48 656,56 624,56 624,64 648,72 672,80 696,64 696,60 704,64 720,56 
		720,48 704,48 704,40 680,32 600,32 584,40 584,48 576,48 568,40 544,40 536,48 512,48 496,56 472,48 416,48 360,40 288,48 224,40 
		160,40 104,48 88,56 56,56 56,64 72,64 64,72 16,80 16,88 24,88 0,96 	"/>
	<polygon fill-rule="evenodd" clip-rule="evenodd" fill="#99CC33" points="0,96 72,88 120,80 136,72 176,80 192,88 192,112 184,120 
		192,128 176,144 144,168 144,184 152,192 168,200 168,216 176,224 176,232 184,240 200,248 200,240 184,216 184,208 192,208 
		192,216 216,240 232,248 232,264 256,272 287,280 312,280 328,288 368,296 384,312 408,320 424,320 417,312 399,304 408,288 
		400,280 376,280 369,272 384,264 384,256 360,256 352,264 304,264 304,240 320,224 344,216 384,216 408,208 424,216 432,232 
		440,240 448,232 448,224 448,208 472,200 496,192 512,176 528,168 560,160 568,152 592,144 608,152 624,144 640,144 624,136 
		632,128 632,120 672,120 664,136 712,136 712,128 704,120 712,104 688,96 680,80 640,80 648,72 632,64 600,64 592,72 592,80 
		576,80 584,88 560,96 552,96 544,112 528,112 528,104 536,96 512,96 496,88 488,88 480,80 512,64 528,64 544,56 560,64 584,64 
		584,56 609,48 632,32 656,40 656,48 624,56 648,64 672,72 696,56 688,48 704,56 720,48 704,40 704,32 680,24 600,24 584,32 584,40 
		576,40 568,32 544,32 536,40 512,40 496,48 472,40 416,40 360,32 288,40 224,32 160,32 104,40 88,48 56,56 72,56 64,64 16,72 
		16,80 24,80 24,88 	"/>
	<polygon fill-rule="evenodd" clip-rule="evenodd" fill="#825012" points="400,264 400,256 440,256 488,264 488,272 456,272 
		440,264 	"/>
	<polygon opacity="0.2" fill-rule="evenodd" clip-rule="evenodd" fill="#825012" points="400,264 400,256 440,256 488,264 488,272 
		456,272 440,264 	"/>
	<polygon opacity="0.3" fill-rule="evenodd" clip-rule="evenodd" points="400,264 400,256 440,256 488,264 488,272 456,272 440,264 
			"/>
	<rect x="480" y="272" fill-rule="evenodd" clip-rule="evenodd" fill="#825012" width="48" height="8"/>
	<rect x="480" y="272" opacity="0.2" fill-rule="evenodd" clip-rule="evenodd" fill="#825012" width="48" height="8"/>
	<rect x="480" y="272" opacity="0.3" fill-rule="evenodd" clip-rule="evenodd" width="48" height="8"/>
	<polygon fill-rule="evenodd" clip-rule="evenodd" fill="#825012" points="720,32 720,24 776,16 912,8 984,8 1048,8 1048,16 
		1016,24 1008,32 992,48 976,48 976,56 944,64 896,64 880,72 848,72 808,96 784,96 768,80 768,63 792,56 784,48 784,40 	"/>
	<polygon opacity="0.2" fill-rule="evenodd" clip-rule="evenodd" fill="#825012" points="720,32 720,24 776,16 912,8 984,8 1048,8 
		1048,16 1016,24 1008,32 992,48 976,48 976,56 944,64 896,64 880,72 848,72 808,96 784,96 768,80 768,63 792,56 784,48 784,40 	"/>
	<polygon opacity="0.3" fill-rule="evenodd" clip-rule="evenodd" points="720,32 720,24 776,16 912,8 984,8 1048,8 1048,16 1016,24 
		1008,32 992,48 976,48 976,56 944,64 896,64 880,72 848,72 808,96 784,96 768,80 768,63 792,56 784,48 784,40 	"/>
	<polygon fill-rule="evenodd" clip-rule="evenodd" fill="#99CC33" points="720,24 776,8 912,0 984,0 1048,8 1016,16 1008,24 992,40 
		976,40 976,48 944,56 896,56 880,64 848,64 808,88 784,88 768,72 768,55 792,48 784,40 784,32 	"/>
	<polygon fill-rule="evenodd" clip-rule="evenodd" fill="#99CC33" points="480,272 496,264 512,264 528,272 	"/>
	<polygon fill-rule="evenodd" clip-rule="evenodd" fill="#99CC33" points="400,256 416,248 440,248 488,264 456,264 440,256 	"/>
</g>
</svg>
