<?xml version="1.0" encoding="utf-8"?>
<!-- Generator: Adobe Illustrator 18.1.0, SVG Export Plug-In . SVG Version: 6.00 Build 0)  -->
<svg version="1.1" id="Layer_1" xmlns="http://www.w3.org/2000/svg" xmlns:xlink="http://www.w3.org/1999/xlink" x="0px" y="0px"
	 viewBox="0 0 960 720" enable-background="new 0 0 960 720" xml:space="preserve">
<g>
	<polygon opacity="0.3" points="11,274 152,204 901,579 761,649 	"/>
	<g>
		<path fill="#2D3134" d="M82,240.3c-7.5-3.7-14.2-4.2-19.2-1.9l0,0l-14,7l0,0c-5.4,2.4-8.8,7.9-8.8,15.9c0,15.5,12.5,34.3,28,42
			c7.6,3.8,14.6,4.2,19.6,1.8c0,0,13.9-6.9,15.1-7.6c4.5-2.7,7.3-7.9,7.3-15.2C110,266.8,97.5,248,82,240.3z"/>
		<path opacity="0.29" d="M87.9,304.9c2-1,13.7-6.8,14.8-7.5c4.5-2.7,7.3-7.9,7.3-15.2c0-6.2-2.1-13-5.5-19.3l-14,7
			c3.4,6.4,5.5,13.1,5.5,19.3C96,297,92.9,302.3,87.9,304.9z"/>
		<path fill="#999999" d="M85.9,284.1c0,9.9-8,13.9-17.9,8.9c-9.9-4.9-17.9-17-17.9-26.8s8-13.9,17.9-8.9
			C77.9,262.2,85.9,274.2,85.9,284.1z"/>
		<path opacity="0.15" d="M69.5,292.4c-9.9-4.9-17.9-17-17.9-26.8c0-4.9,1.9-8.3,5.1-9.9c-4,1.3-6.6,5-6.6,10.6
			c0,9.9,8,21.9,17.9,26.8c5,2.5,9.6,2.7,12.8,1C77.7,295,73.8,294.5,69.5,292.4z"/>
		<path fill="#2D3134" d="M76.9,278.2c0,4.1-3.3,5.8-7.5,3.7c-4.1-2.1-7.5-7.1-7.5-11.2s3.3-5.8,7.5-3.7
			C73.6,269.1,76.9,274.1,76.9,278.2z"/>
		<path opacity="0.29" d="M76.9,278.2c0,4.1-3.3,5.8-7.5,3.7c-4.1-2.1-7.5-7.1-7.5-11.2s3.3-5.8,7.5-3.7
			C73.6,269.1,76.9,274.1,76.9,278.2z"/>
		<path fill="#2D3134" d="M75.5,278.9c0,4.1-3.3,5.8-7.5,3.7c-4.1-2.1-7.5-7.1-7.5-11.2c0-4.1,3.3-5.8,7.5-3.7
			C72.1,269.8,75.5,274.8,75.5,278.9z"/>
		<path opacity="0.11" d="M96,289.3c0,15.5-12.5,21.7-28,14c-15.5-7.7-28-26.5-28-42c0-15.5,12.5-21.7,28-14S96,273.8,96,289.3z"/>
	</g>
	<g>
		<polygon fill="#06547A" points="238,202 98,272 98,303 130,319 270,249 270,218 		"/>
		<polygon opacity="0.11" points="98,272 98,303 130,319 130,288 		"/>
		<polygon opacity="0.29" points="270,218 270,249 130,319 130,288 		"/>
	</g>
	<g>
		<polygon fill="#06547A" points="270,218 260,223 260,254 312,280 322,275 322,244 		"/>
		<polygon opacity="0.11" points="260,223 260,254 312,280 312,249 		"/>
		<polygon opacity="0.29" points="322,244 322,275 312,280 312,249 		"/>
	</g>
	<g>
		<polygon fill="#999999" points="254,230 234,240 234,267 278,289 298,279 298,252 		"/>
		<polygon fill="#2D3134" points="268,237 264,235 244,245 244,272 248,274 248,247 		"/>
		<polygon fill="#2D3134" points="288,247 284,245 264,255 264,282 268,284 268,257 		"/>
		<polygon opacity="0.29" points="298,252 298,279 278,289 278,262 		"/>
		<polygon opacity="0.11" points="234,240 234,267 278,289 278,262 		"/>
	</g>
	<g>
		<polygon fill="#06547A" points="224,241 220,243 220,274 376,352 380,350 380,319 		"/>
		<polygon opacity="0.11" points="220,243 220,274 376,352 376,321 		"/>
		<polygon opacity="0.29" points="380,319 380,350 376,352 376,321 		"/>
	</g>
	<g>
		<polygon fill="#06547A" points="220,245 184,263 184,294 208,306 244,288 244,257 		"/>
		<polygon opacity="0.11" points="184,263 184,294 208,306 208,275 		"/>
		<polygon opacity="0.29" points="244,257 244,288 208,306 208,275 		"/>
	</g>
	<g>
		<polygon fill="#06547A" points="180,263 176,265 176,296 332,374 336,372 336,341 		"/>
		<polygon opacity="0.11" points="176,265 176,296 332,374 332,343 		"/>
		<polygon opacity="0.29" points="336,341 336,372 332,374 332,343 		"/>
	</g>
	<g>
		<polygon fill="#999999" points="166,274 146,284 146,311 190,333 210,323 210,296 		"/>
		<polygon fill="#2D3134" points="180,281 176,279 156,289 156,316 160,318 160,291 		"/>
		<polygon fill="#2D3134" points="200,291 196,289 176,299 176,326 180,328 180,301 		"/>
		<polygon opacity="0.29" points="210,296 210,323 190,333 190,306 		"/>
		<polygon opacity="0.11" points="146,284 146,311 190,333 190,306 		"/>
	</g>
	<g>
		<polygon fill="#06547A" points="140,283 130,288 130,319 182,345 192,340 192,309 		"/>
		<polygon opacity="0.11" points="130,288 130,319 182,345 182,314 		"/>
		<polygon opacity="0.29" points="192,309 192,340 182,345 182,314 		"/>
	</g>
	<g>
		<polygon fill="#2D3134" points="190,309.6 226,291.6 214,311.6 178,329.6 		"/>
		<polygon opacity="0.29" points="190,309.6 226,291.6 214,311.6 178,329.6 		"/>
		<g>
			<g>
				<path fill="#2D3134" d="M244.4,302.2c-7.5-3.7-14.2-4.2-19.2-1.9l0,0l-14,7l0,0c-5.4,2.4-8.8,7.9-8.8,15.9
					c0,15.5,12.5,34.3,28,42c7.6,3.8,14.6,4.2,19.6,1.8c0,0,13.9-6.9,15.1-7.6c4.5-2.7,7.3-7.9,7.3-15.2
					C272.4,328.8,259.8,310,244.4,302.2z"/>
				<path opacity="0.29" d="M250.3,366.8c2-1,13.7-6.8,14.8-7.5c4.5-2.7,7.3-7.9,7.3-15.2c0-6.2-2.1-13-5.5-19.3l-14,7
					c3.4,6.4,5.5,13.1,5.5,19.3C258.4,358.9,255.3,364.3,250.3,366.8z"/>
				<path fill="#999999" d="M248.3,346c0,9.9-8,13.9-17.9,8.9c-9.9-4.9-17.9-17-17.9-26.8s8-13.9,17.9-8.9
					C240.2,324.1,248.3,336.1,248.3,346z"/>
				<path opacity="0.15" d="M231.9,354.3c-9.9-4.9-17.9-17-17.9-26.8c0-4.9,1.9-8.3,5.1-9.9c-4,1.3-6.6,5-6.6,10.6
					c0,9.9,8,21.9,17.9,26.8c5,2.5,9.6,2.7,12.8,1C240.1,356.9,236.2,356.4,231.9,354.3z"/>
				<path fill="#2D3134" d="M239.3,340.1c0,4.1-3.3,5.8-7.5,3.7c-4.1-2.1-7.5-7.1-7.5-11.2c0-4.1,3.3-5.8,7.5-3.7
					C236,331,239.3,336,239.3,340.1z"/>
				<path opacity="0.29" d="M239.3,340.1c0,4.1-3.3,5.8-7.5,3.7c-4.1-2.1-7.5-7.1-7.5-11.2c0-4.1,3.3-5.8,7.5-3.7
					C236,331,239.3,336,239.3,340.1z"/>
				<path fill="#2D3134" d="M237.8,340.8c0,4.1-3.3,5.8-7.5,3.7c-4.1-2.1-7.5-7.1-7.5-11.2c0-4.1,3.3-5.8,7.5-3.7
					S237.8,336.7,237.8,340.8z"/>
				<path opacity="0.11" d="M258.4,351.2c0,15.5-12.5,21.7-28,14c-15.5-7.7-28-26.5-28-42c0-15.5,12.5-21.7,28-14
					C245.8,317,258.4,335.8,258.4,351.2z"/>
			</g>
		</g>
		<g>
			<g>
				<path fill="#2D3134" d="M225,311.7c-7.5-3.7-14.2-4.2-19.2-1.9l0,0l-14,7l0,0c-5.4,2.4-8.8,7.9-8.8,15.9c0,15.5,12.5,34.3,28,42
					c7.6,3.8,14.6,4.2,19.6,1.8c0,0,13.9-6.9,15.1-7.6c4.5-2.7,7.3-7.9,7.3-15.2C253,338.2,240.5,319.4,225,311.7z"/>
				<path opacity="0.29" d="M230.9,376.3c2-1,13.7-6.8,14.8-7.5c4.5-2.7,7.3-7.9,7.3-15.2c0-6.2-2.1-13-5.5-19.3l-14,7
					c3.4,6.4,5.5,13.1,5.5,19.3C239,368.3,235.9,373.7,230.9,376.3z"/>
				<path fill="#999999" d="M228.9,355.4c0,9.9-8,13.9-17.9,8.9c-9.9-4.9-17.9-17-17.9-26.8s8-13.9,17.9-8.9
					C220.9,333.6,228.9,345.6,228.9,355.4z"/>
				<path opacity="0.15" d="M212.5,363.8c-9.9-4.9-17.9-17-17.9-26.8c0-4.9,1.9-8.3,5.1-9.9c-4,1.3-6.6,5-6.6,10.6
					c0,9.9,8,21.9,17.9,26.8c5,2.5,9.6,2.7,12.8,1C220.7,366.4,216.8,365.9,212.5,363.8z"/>
				<path fill="#2D3134" d="M219.9,349.6c0,4.1-3.3,5.8-7.5,3.7c-4.1-2.1-7.5-7.1-7.5-11.2s3.3-5.8,7.5-3.7
					C216.6,340.5,219.9,345.5,219.9,349.6z"/>
				<path opacity="0.29" d="M219.9,349.6c0,4.1-3.3,5.8-7.5,3.7c-4.1-2.1-7.5-7.1-7.5-11.2s3.3-5.8,7.5-3.7
					C216.6,340.5,219.9,345.5,219.9,349.6z"/>
				<path fill="#2D3134" d="M218.5,350.3c0,4.1-3.3,5.8-7.5,3.7s-7.5-7.1-7.5-11.2c0-4.1,3.3-5.8,7.5-3.7
					C215.1,341.2,218.5,346.2,218.5,350.3z"/>
				<path opacity="0.11" d="M239,360.7c0,15.5-12.5,21.7-28,14c-15.5-7.7-28-26.5-28-42c0-15.5,12.5-21.7,28-14
					C226.5,326.4,239,345.2,239,360.7z"/>
			</g>
		</g>
		<polygon fill="#2D3134" points="190,309.6 226,291.6 262,309.6 226,327.6 		"/>
		<polygon fill="#2D3134" points="240,352.6 276,334.6 262,309.6 226,327.6 		"/>
		<polygon opacity="0.29" points="240,352.6 276,334.6 262,309.6 226,327.6 		"/>
	</g>
	<g>
		<polygon fill="#2D3134" points="248,339.6 284,321.6 272,341.6 236,359.6 		"/>
		<polygon opacity="0.29" points="248,339.6 284,321.6 272,341.6 236,359.6 		"/>
		<g>
			<g>
				<path fill="#2D3134" d="M302.4,332.2c-7.5-3.7-14.2-4.2-19.2-1.9l0,0l-14,7l0,0c-5.4,2.4-8.8,7.9-8.8,15.9
					c0,15.5,12.5,34.3,28,42c7.6,3.8,14.6,4.2,19.6,1.8c0,0,13.9-6.9,15.1-7.6c4.5-2.7,7.3-7.9,7.3-15.2
					C330.4,358.8,317.8,340,302.4,332.2z"/>
				<path opacity="0.29" d="M308.3,396.8c2-1,13.7-6.8,14.8-7.5c4.5-2.7,7.3-7.9,7.3-15.2c0-6.2-2.1-13-5.5-19.3l-14,7
					c3.4,6.4,5.5,13.1,5.5,19.3C316.4,388.9,313.3,394.3,308.3,396.8z"/>
				<path fill="#999999" d="M306.3,376c0,9.9-8,13.9-17.9,8.9c-9.9-4.9-17.9-17-17.9-26.8s8-13.9,17.9-8.9
					C298.2,354.1,306.3,366.1,306.3,376z"/>
				<path opacity="0.15" d="M289.9,384.3c-9.9-4.9-17.9-17-17.9-26.8c0-4.9,1.9-8.3,5.1-9.9c-4,1.3-6.6,5-6.6,10.6
					c0,9.9,8,21.9,17.9,26.8c5,2.5,9.6,2.7,12.8,1C298.1,386.9,294.2,386.4,289.9,384.3z"/>
				<path fill="#2D3134" d="M297.3,370.1c0,4.1-3.3,5.8-7.5,3.7c-4.1-2.1-7.5-7.1-7.5-11.2c0-4.1,3.3-5.8,7.5-3.7
					C294,361,297.3,366,297.3,370.1z"/>
				<path opacity="0.29" d="M297.3,370.1c0,4.1-3.3,5.8-7.5,3.7c-4.1-2.1-7.5-7.1-7.5-11.2c0-4.1,3.3-5.8,7.5-3.7
					C294,361,297.3,366,297.3,370.1z"/>
				<path fill="#2D3134" d="M295.8,370.8c0,4.1-3.3,5.8-7.5,3.7c-4.1-2.1-7.5-7.1-7.5-11.2c0-4.1,3.3-5.8,7.5-3.7
					C292.5,361.7,295.8,366.7,295.8,370.8z"/>
				<path opacity="0.11" d="M316.4,381.2c0,15.5-12.5,21.7-28,14c-15.5-7.7-28-26.5-28-42c0-15.5,12.5-21.7,28-14
					C303.8,347,316.4,365.8,316.4,381.2z"/>
			</g>
		</g>
		<g>
			<g>
				<path fill="#2D3134" d="M283,341.7c-7.5-3.7-14.2-4.2-19.2-1.9l0,0l-14,7l0,0c-5.4,2.4-8.8,7.9-8.8,15.9c0,15.5,12.5,34.3,28,42
					c7.6,3.8,14.6,4.2,19.6,1.8c0,0,13.9-6.9,15.1-7.6c4.5-2.7,7.3-7.9,7.3-15.2C311,368.2,298.5,349.4,283,341.7z"/>
				<path opacity="0.29" d="M288.9,406.3c2-1,13.7-6.8,14.8-7.5c4.5-2.7,7.3-7.9,7.3-15.2c0-6.2-2.1-13-5.5-19.3l-14,7
					c3.4,6.4,5.5,13.1,5.5,19.3C297,398.3,293.9,403.7,288.9,406.3z"/>
				<path fill="#999999" d="M286.9,385.4c0,9.9-8,13.9-17.9,8.9c-9.9-4.9-17.9-17-17.9-26.8s8-13.9,17.9-8.9
					C278.9,363.6,286.9,375.6,286.9,385.4z"/>
				<path opacity="0.15" d="M270.5,393.8c-9.9-4.9-17.9-17-17.9-26.8c0-4.9,1.9-8.3,5.1-9.9c-4,1.3-6.6,5-6.6,10.6
					c0,9.9,8,21.9,17.9,26.8c5,2.5,9.6,2.7,12.8,1C278.7,396.4,274.8,395.9,270.5,393.8z"/>
				<path fill="#2D3134" d="M277.9,379.6c0,4.1-3.3,5.8-7.5,3.7c-4.1-2.1-7.5-7.1-7.5-11.2s3.3-5.8,7.5-3.7
					C274.6,370.5,277.9,375.5,277.9,379.6z"/>
				<path opacity="0.29" d="M277.9,379.6c0,4.1-3.3,5.8-7.5,3.7c-4.1-2.1-7.5-7.1-7.5-11.2s3.3-5.8,7.5-3.7
					C274.6,370.5,277.9,375.5,277.9,379.6z"/>
				<path fill="#2D3134" d="M276.5,380.3c0,4.1-3.3,5.8-7.5,3.7s-7.5-7.1-7.5-11.2c0-4.1,3.3-5.8,7.5-3.7
					C273.1,371.2,276.5,376.2,276.5,380.3z"/>
				<path opacity="0.11" d="M297,390.7c0,15.5-12.5,21.7-28,14c-15.5-7.7-28-26.5-28-42c0-15.5,12.5-21.7,28-14
					C284.5,356.4,297,375.2,297,390.7z"/>
			</g>
		</g>
		<polygon fill="#2D3134" points="248,339.6 284,321.6 320,339.6 284,357.6 		"/>
		<polygon fill="#2D3134" points="298,382.6 334,364.6 320,339.6 284,357.6 		"/>
		<polygon opacity="0.29" points="298,382.6 334,364.6 320,339.6 284,357.6 		"/>
	</g>
	<g>
		<polygon fill="#2D3134" points="548,488.4 584,470.4 572,490.4 536,508.4 		"/>
		<polygon opacity="0.29" points="548,488.4 584,470.4 572,490.4 536,508.4 		"/>
		<g>
			<g>
				<path fill="#2D3134" d="M602.4,481c-7.5-3.7-14.2-4.2-19.2-1.9l0,0l-14,7l0,0c-5.4,2.4-8.8,7.9-8.8,15.9c0,15.5,12.5,34.3,28,42
					c7.6,3.8,14.6,4.2,19.6,1.8c0,0,13.9-6.9,15.1-7.6c4.5-2.7,7.3-7.9,7.3-15.2C630.4,507.5,617.8,488.7,602.4,481z"/>
				<path opacity="0.29" d="M608.3,545.6c2-1,13.7-6.8,14.8-7.5c4.5-2.7,7.3-7.9,7.3-15.2c0-6.2-2.1-13-5.5-19.3l-14,7
					c3.4,6.4,5.5,13.1,5.5,19.3C616.4,537.6,613.3,543,608.3,545.6z"/>
				<path fill="#999999" d="M606.3,524.7c0,9.9-8,13.9-17.9,8.9c-9.9-4.9-17.9-17-17.9-26.8s8-13.9,17.9-8.9
					C598.2,502.9,606.3,514.9,606.3,524.7z"/>
				<path opacity="0.15" d="M589.9,533.1c-9.9-4.9-17.9-17-17.9-26.8c0-4.9,1.9-8.3,5.1-9.9c-4,1.3-6.6,5-6.6,10.6
					c0,9.9,8,21.9,17.9,26.8c5,2.5,9.6,2.7,12.8,1C598.1,535.7,594.2,535.2,589.9,533.1z"/>
				<path fill="#2D3134" d="M597.3,518.9c0,4.1-3.3,5.8-7.5,3.7s-7.5-7.1-7.5-11.2c0-4.1,3.3-5.8,7.5-3.7
					C594,509.8,597.3,514.8,597.3,518.9z"/>
				<path opacity="0.29" d="M597.3,518.9c0,4.1-3.3,5.8-7.5,3.7s-7.5-7.1-7.5-11.2c0-4.1,3.3-5.8,7.5-3.7
					C594,509.8,597.3,514.8,597.3,518.9z"/>
				<path fill="#2D3134" d="M595.8,519.6c0,4.1-3.3,5.8-7.5,3.7c-4.1-2.1-7.5-7.1-7.5-11.2c0-4.1,3.3-5.8,7.5-3.7
					S595.8,515.5,595.8,519.6z"/>
				<path opacity="0.11" d="M616.4,530c0,15.5-12.5,21.7-28,14c-15.5-7.7-28-26.5-28-42c0-15.5,12.5-21.7,28-14
					C603.8,495.7,616.4,514.5,616.4,530z"/>
			</g>
		</g>
		<g>
			<g>
				<path fill="#2D3134" d="M583,490.4c-7.5-3.7-14.2-4.2-19.2-1.9l0,0l-14,7l0,0c-5.4,2.4-8.8,7.9-8.8,15.9c0,15.5,12.5,34.3,28,42
					c7.6,3.8,14.6,4.2,19.6,1.8c0,0,13.9-6.9,15.1-7.6c4.5-2.7,7.3-7.9,7.3-15.2C611,517,598.5,498.2,583,490.4z"/>
				<path opacity="0.29" d="M588.9,555.1c2-1,13.7-6.8,14.8-7.5c4.5-2.7,7.3-7.9,7.3-15.2c0-6.2-2.1-13-5.5-19.3l-14,7
					c3.4,6.4,5.5,13.1,5.5,19.3C597,547.1,593.9,552.5,588.9,555.1z"/>
				<path fill="#999999" d="M586.9,534.2c0,9.9-8,13.9-17.9,8.9c-9.9-4.9-17.9-17-17.9-26.8c0-9.9,8-13.9,17.9-8.9
					S586.9,524.3,586.9,534.2z"/>
				<path opacity="0.15" d="M570.5,542.5c-9.9-4.9-17.9-17-17.9-26.8c0-4.9,1.9-8.3,5.1-9.9c-4,1.3-6.6,5-6.6,10.6
					c0,9.9,8,21.9,17.9,26.8c5,2.5,9.6,2.7,12.8,1C578.7,545.1,574.8,544.7,570.5,542.5z"/>
				<path fill="#2D3134" d="M577.9,528.4c0,4.1-3.3,5.8-7.5,3.7c-4.1-2.1-7.5-7.1-7.5-11.2s3.3-5.8,7.5-3.7
					C574.6,519.3,577.9,524.3,577.9,528.4z"/>
				<path opacity="0.29" d="M577.9,528.4c0,4.1-3.3,5.8-7.5,3.7c-4.1-2.1-7.5-7.1-7.5-11.2s3.3-5.8,7.5-3.7
					C574.6,519.3,577.9,524.3,577.9,528.4z"/>
				<path fill="#2D3134" d="M576.5,529.1c0,4.1-3.3,5.8-7.5,3.7s-7.5-7.1-7.5-11.2s3.3-5.8,7.5-3.7S576.5,525,576.5,529.1z"/>
				<path opacity="0.11" d="M597,539.5c0,15.5-12.5,21.7-28,14c-15.5-7.7-28-26.5-28-42c0-15.5,12.5-21.7,28-14
					C584.5,505.2,597,524,597,539.5z"/>
			</g>
		</g>
		<polygon fill="#2D3134" points="548,488.4 584,470.4 620,488.4 584,506.4 		"/>
		<polygon fill="#2D3134" points="598,531.4 634,513.4 620,488.4 584,506.4 		"/>
		<polygon opacity="0.29" points="598,531.4 634,513.4 620,488.4 584,506.4 		"/>
	</g>
	<g>
		<polygon fill="#2D3134" points="607,518.8 643,500.8 631,520.8 595,538.8 		"/>
		<polygon opacity="0.29" points="607,518.8 643,500.8 631,520.8 595,538.8 		"/>
		<g>
			<g>
				<path fill="#2D3134" d="M661.4,511.4c-7.5-3.7-14.2-4.2-19.2-1.9l0,0l-14,7l0,0c-5.4,2.4-8.8,7.9-8.8,15.9
					c0,15.5,12.5,34.3,28,42c7.6,3.8,14.6,4.2,19.6,1.8c0,0,13.9-6.9,15.1-7.6c4.5-2.7,7.3-7.9,7.3-15.2
					C689.4,537.9,676.8,519.1,661.4,511.4z"/>
				<path opacity="0.29" d="M667.3,576c2-1,13.7-6.8,14.8-7.5c4.5-2.7,7.3-7.9,7.3-15.2c0-6.2-2.1-13-5.5-19.3l-14,7
					c3.4,6.4,5.5,13.1,5.5,19.3C675.4,568,672.3,573.4,667.3,576z"/>
				<path fill="#999999" d="M665.3,555.1c0,9.9-8,13.9-17.9,8.9c-9.9-4.9-17.9-17-17.9-26.8c0-9.9,8-13.9,17.9-8.9
					C657.2,533.3,665.3,545.3,665.3,555.1z"/>
				<path opacity="0.15" d="M648.9,563.5c-9.9-4.9-17.9-17-17.9-26.8c0-4.9,1.9-8.3,5.1-9.9c-4,1.3-6.6,5-6.6,10.6
					c0,9.9,8,21.9,17.9,26.8c5,2.5,9.6,2.7,12.8,1C657.1,566.1,653.2,565.6,648.9,563.5z"/>
				<path fill="#2D3134" d="M656.3,549.3c0,4.1-3.3,5.8-7.5,3.7c-4.1-2.1-7.5-7.1-7.5-11.2c0-4.1,3.3-5.8,7.5-3.7
					S656.3,545.2,656.3,549.3z"/>
				<path opacity="0.29" d="M656.3,549.3c0,4.1-3.3,5.8-7.5,3.7c-4.1-2.1-7.5-7.1-7.5-11.2c0-4.1,3.3-5.8,7.5-3.7
					S656.3,545.2,656.3,549.3z"/>
				<path fill="#2D3134" d="M654.8,550c0,4.1-3.3,5.8-7.5,3.7c-4.1-2.1-7.5-7.1-7.5-11.2c0-4.1,3.3-5.8,7.5-3.7
					S654.8,545.9,654.8,550z"/>
				<path opacity="0.11" d="M675.4,560.4c0,15.5-12.5,21.7-28,14c-15.5-7.7-28-26.5-28-42c0-15.5,12.5-21.7,28-14
					C662.8,526.1,675.4,544.9,675.4,560.4z"/>
			</g>
		</g>
		<g>
			<g>
				<path fill="#2D3134" d="M642,520.9c-7.5-3.7-14.2-4.2-19.2-1.9l0,0l-14,7l0,0c-5.4,2.4-8.8,7.9-8.8,15.9c0,15.5,12.5,34.3,28,42
					c7.6,3.8,14.6,4.2,19.6,1.8c0,0,13.9-6.9,15.1-7.6c4.5-2.7,7.3-7.9,7.3-15.2C670,547.4,657.5,528.6,642,520.9z"/>
				<path opacity="0.29" d="M647.9,585.5c2-1,13.7-6.8,14.8-7.5c4.5-2.7,7.3-7.9,7.3-15.2c0-6.2-2.1-13-5.5-19.3l-14,7
					c3.4,6.4,5.5,13.1,5.5,19.3C656,577.5,652.9,582.9,647.9,585.5z"/>
				<path fill="#999999" d="M645.9,564.6c0,9.9-8,13.9-17.9,8.9s-17.9-17-17.9-26.8c0-9.9,8-13.9,17.9-8.9
					C637.9,542.7,645.9,554.7,645.9,564.6z"/>
				<path opacity="0.15" d="M629.5,572.9c-9.9-4.9-17.9-17-17.9-26.8c0-4.9,1.9-8.3,5.1-9.9c-4,1.3-6.6,5-6.6,10.6
					c0,9.9,8,21.9,17.9,26.8c5,2.5,9.6,2.7,12.8,1C637.7,575.5,633.8,575.1,629.5,572.9z"/>
				<path fill="#2D3134" d="M636.9,558.8c0,4.1-3.3,5.8-7.5,3.7c-4.1-2.1-7.5-7.1-7.5-11.2s3.3-5.8,7.5-3.7
					C633.6,549.7,636.9,554.7,636.9,558.8z"/>
				<path opacity="0.29" d="M636.9,558.8c0,4.1-3.3,5.8-7.5,3.7c-4.1-2.1-7.5-7.1-7.5-11.2s3.3-5.8,7.5-3.7
					C633.6,549.7,636.9,554.7,636.9,558.8z"/>
				<path fill="#2D3134" d="M635.5,559.5c0,4.1-3.3,5.8-7.5,3.7s-7.5-7.1-7.5-11.2s3.3-5.8,7.5-3.7S635.5,555.4,635.5,559.5z"/>
				<path opacity="0.11" d="M656,569.9c0,15.5-12.5,21.7-28,14s-28-26.5-28-42c0-15.5,12.5-21.7,28-14S656,554.4,656,569.9z"/>
			</g>
		</g>
		<polygon fill="#2D3134" points="607,518.8 643,500.8 679,518.8 643,536.8 		"/>
		<polygon fill="#2D3134" points="657,561.8 693,543.8 679,518.8 643,536.8 		"/>
		<polygon opacity="0.29" points="657,561.8 693,543.8 679,518.8 643,536.8 		"/>
	</g>
	<g>
		<polygon fill="#2D3134" points="666,548.4 702,530.4 690,550.4 654,568.4 		"/>
		<polygon opacity="0.29" points="666,548.4 702,530.4 690,550.4 654,568.4 		"/>
		<g>
			<g>
				<path fill="#2D3134" d="M720.4,541c-7.5-3.7-14.2-4.2-19.2-1.9l0,0l-14,7l0,0c-5.4,2.4-8.8,7.9-8.8,15.9c0,15.5,12.5,34.3,28,42
					c7.6,3.8,14.6,4.2,19.6,1.8c0,0,13.9-6.9,15.1-7.6c4.5-2.7,7.3-7.9,7.3-15.2C748.4,567.5,735.8,548.7,720.4,541z"/>
				<path opacity="0.29" d="M726.3,605.6c2-1,13.7-6.8,14.8-7.5c4.5-2.7,7.3-7.9,7.3-15.2c0-6.2-2.1-13-5.5-19.3l-14,7
					c3.4,6.4,5.5,13.1,5.5,19.3C734.4,597.6,731.3,603,726.3,605.6z"/>
				<path fill="#999999" d="M724.3,584.7c0,9.9-8,13.9-17.9,8.9c-9.9-4.9-17.9-17-17.9-26.8c0-9.9,8-13.9,17.9-8.9
					C716.2,562.9,724.3,574.9,724.3,584.7z"/>
				<path opacity="0.15" d="M707.9,593.1c-9.9-4.9-17.9-17-17.9-26.8c0-4.9,1.9-8.3,5.1-9.9c-4,1.3-6.6,5-6.6,10.6
					c0,9.9,8,21.9,17.9,26.8c5,2.5,9.6,2.7,12.8,1C716.1,595.7,712.2,595.2,707.9,593.1z"/>
				<path fill="#2D3134" d="M715.3,578.9c0,4.1-3.3,5.8-7.5,3.7s-7.5-7.1-7.5-11.2s3.3-5.8,7.5-3.7S715.3,574.8,715.3,578.9z"/>
				<path opacity="0.29" d="M715.3,578.9c0,4.1-3.3,5.8-7.5,3.7s-7.5-7.1-7.5-11.2s3.3-5.8,7.5-3.7S715.3,574.8,715.3,578.9z"/>
				<path fill="#2D3134" d="M713.8,579.6c0,4.1-3.3,5.8-7.5,3.7c-4.1-2.1-7.5-7.1-7.5-11.2c0-4.1,3.3-5.8,7.5-3.7
					S713.8,575.5,713.8,579.6z"/>
				<path opacity="0.11" d="M734.4,590c0,15.5-12.5,21.7-28,14c-15.5-7.7-28-26.5-28-42c0-15.5,12.5-21.7,28-14
					C721.8,555.7,734.4,574.5,734.4,590z"/>
			</g>
		</g>
		<g>
			<g>
				<path fill="#2D3134" d="M701,550.4c-7.5-3.7-14.2-4.2-19.2-1.9l0,0l-14,7l0,0c-5.4,2.4-8.8,7.9-8.8,15.9c0,15.5,12.5,34.3,28,42
					c7.6,3.8,14.6,4.2,19.6,1.8c0,0,13.9-6.9,15.1-7.6c4.5-2.7,7.3-7.9,7.3-15.2C729,577,716.5,558.2,701,550.4z"/>
				<path opacity="0.29" d="M706.9,615.1c2-1,13.7-6.8,14.8-7.5c4.5-2.7,7.3-7.9,7.3-15.2c0-6.2-2.1-13-5.5-19.3l-14,7
					c3.4,6.4,5.5,13.1,5.5,19.3C715,607.1,711.9,612.5,706.9,615.1z"/>
				<path fill="#999999" d="M704.9,594.2c0,9.9-8,13.9-17.9,8.9c-9.9-4.9-17.9-17-17.9-26.8c0-9.9,8-13.9,17.9-8.9
					C696.9,572.3,704.9,584.3,704.9,594.2z"/>
				<path opacity="0.15" d="M688.5,602.5c-9.9-4.9-17.9-17-17.9-26.8c0-4.9,1.9-8.3,5.1-9.9c-4,1.3-6.6,5-6.6,10.6
					c0,9.9,8,21.9,17.9,26.8c5,2.5,9.6,2.7,12.8,1C696.7,605.1,692.8,604.7,688.5,602.5z"/>
				<path fill="#2D3134" d="M695.9,588.4c0,4.1-3.3,5.8-7.5,3.7c-4.1-2.1-7.5-7.1-7.5-11.2s3.3-5.8,7.5-3.7
					C692.6,579.3,695.9,584.3,695.9,588.4z"/>
				<path opacity="0.29" d="M695.9,588.4c0,4.1-3.3,5.8-7.5,3.7c-4.1-2.1-7.5-7.1-7.5-11.2s3.3-5.8,7.5-3.7
					C692.6,579.3,695.9,584.3,695.9,588.4z"/>
				<path fill="#2D3134" d="M694.5,589.1c0,4.1-3.3,5.8-7.5,3.7s-7.5-7.1-7.5-11.2s3.3-5.8,7.5-3.7S694.5,585,694.5,589.1z"/>
				<path opacity="0.11" d="M715,599.5c0,15.5-12.5,21.7-28,14c-15.5-7.7-28-26.5-28-42s12.5-21.7,28-14
					C702.5,565.2,715,584,715,599.5z"/>
			</g>
		</g>
		<polygon fill="#2D3134" points="666,548.4 702,530.4 738,548.4 702,566.4 		"/>
		<polygon fill="#2D3134" points="716,591.4 752,573.4 738,548.4 702,566.4 		"/>
		<polygon opacity="0.29" points="716,591.4 752,573.4 738,548.4 702,566.4 		"/>
	</g>
	<g>
		<path fill="#06547A" d="M151,134L11,204v50l28.9,14.4l0-2.9c0.5-9.6,4.7-19.4,12.5-21.2c7.5-1.7,15,2.2,23.6,6.6
			c2.6,1.3,43,22,43,22l18,9l140-70v-15L151,134z"/>
		<path fill="#06547A" d="M167,39L27,109l-6.5,17.4C14.2,143,11,163.3,11,187v15l126,63l140-70V94L167,39z"/>
		<polygon opacity="0.29" points="137,282 277,212 277,197 137,267 		"/>
		<polygon opacity="0.29" points="137,265 277,195 277,94 137,164 		"/>
		<g>
			<path fill="#656565" d="M82.7,182.7c-0.1,0-0.2,0-0.3-0.1l-35-17.6c-1.2-0.6-2.2-0.9-3.2-0.9c-2.6,0-4.1,2-4.1,5.4
				c0,1.7-0.5,2.5-1.5,2.5c-0.5,0-1.1-0.2-1.7-0.5l-14.4-7.1c-2-1-4.3-5.2-4-6.8c1.5-9.5,3.8-18.2,6.8-25.9l4.6-12.1
				c0.4-1.1,1.1-1.6,2.2-1.6c0.8,0,1.7,0.3,2.7,0.8l43.9,22c1.8,0.9,4,4.6,4,6.5v35.1C82.8,182.6,82.7,182.7,82.7,182.7z"/>
			<path fill="#2D3134" d="M32.1,119c0.4,0,1.2,0.1,2.3,0.7l43.9,22c1.4,0.7,3.5,4,3.5,5.6v33.8l-33.9-17c-1.3-0.6-2.5-1-3.6-1
				c-1.6,0-3,0.7-3.9,2c-0.8,1.1-1.2,2.6-1.2,4.4c0,1-0.3,1.4-0.3,1.5c0,0,0,0-0.2,0c-0.2,0-0.6-0.1-1.3-0.4L23,163.5
				c-1.7-0.9-3.7-4.6-3.5-5.8c1.5-9.4,3.8-18,6.7-25.7l4.6-12.1C31.1,119.2,31.5,119,32.1,119 M32.1,117c-1.5,0-2.6,0.8-3.1,2.2
				l-4.6,12.1c-3,7.8-5.3,16.6-6.8,26.1c-0.4,2.2,2.3,6.7,4.6,7.9l14.4,7.1c0.8,0.4,1.6,0.6,2.2,0.6c1.6,0,2.5-1.2,2.5-3.5v0
				c0-2.8,1.1-4.4,3.1-4.4c0.8,0,1.7,0.3,2.7,0.8l35,17.6c0.3,0.2,0.6,0.2,0.8,0.2c0.6,0,0.9-0.5,0.9-1.3v-35.1
				c0-2.4-2.5-6.4-4.6-7.4l-43.9-22C34.1,117.3,33,117,32.1,117L32.1,117z"/>
		</g>
		<path opacity="0.11" d="M137,267v15l-18-9c0,0-40.4-20.7-43-22c-8.6-4.5-16.1-8.3-23.6-6.6c-8.6,2-12.8,13.7-12.5,24.1L11,254v-50
			L137,267z"/>
		<polygon opacity="0.3" fill="#2D3134" points="84,193.5 84,198.5 74,193.5 74,188.5 		"/>
		<polygon opacity="0.3" fill="#FFFFFF" points="74,196 84,201 84,198.5 74,193.5 		"/>
		<polygon opacity="0.3" fill="#2D3134" points="119,256 117,255 117,154.3 119,155.3 		"/>
		<polygon opacity="0.3" fill="#FFFFFF" points="121,257 119,256 119,155.3 121,156.3 		"/>
		<g>
			<polygon opacity="0.3" fill="#2D3134" points="27,262 25,261 25,211 27,212 			"/>
			<polygon opacity="0.3" fill="#FFFFFF" points="29,263 27,262 27,212 29,213 			"/>
		</g>
		<path fill="#2D3134" d="M25.3,168.2c-1.1,0-2.2-0.3-3.1-0.9c-1.8-1.1-2.8-3-2.8-5.1V130c0-2.3,1.3-4.3,3.3-5.3l3.7-1.8l0.4,0.9
			l-3.7,1.8c-1.7,0.8-2.7,2.5-2.7,4.4v32.3c0,1.7,0.9,3.3,2.4,4.2c1.5,0.9,3.3,1,4.8,0.2l0.6-0.3l0.4,0.9l-0.6,0.3
			C27.2,168,26.3,168.2,25.3,168.2z"/>
		<path fill="#2D3134" d="M19.6,129.1l0.7-0.3c2.4-0.8,4.9,1,4.9,3.5v21.4c0,3.1-1.9,6-4.9,7.1l-0.9,0.3c-2.4,0.9-5.1-0.9-5.1-3.5
			v-21.5C14.5,133.1,16.5,130.2,19.6,129.1z"/>
		<path opacity="0.11" d="M27,109l110,55v101L11,202v-15c0-23.7,3.2-44.1,9.5-60.6L27,109z"/>
		<g>
			<path fill="#06547A" d="M208.4,36.5c-3-0.3-5.5,0.2-7.5,1.5l-0.1,0L62.2,107.3c-0.3,0.1-0.6,0.3-0.9,0.5l-0.4,0.2
				c0,0-0.1,0.1-0.1,0.1C57,110.5,55,115.6,55,123l82,41l140-70V58L208.4,36.5z"/>
			<path opacity="0.11" d="M137,128v36l-82-41v0c0-11.5,4.9-17.5,13.4-16.5L137,128z"/>
			<polygon opacity="0.29" points="137,128 137,164 277,94 277,58 			"/>
		</g>
		<polygon fill="#06547A" points="273,193 263,188 263,70 273,65 		"/>
		<polygon opacity="0.11" points="273,193 263,188 263,70 273,65 		"/>
		<polygon fill="#06547A" points="273,193 263,188 141,249 141,259 		"/>
	</g>
	<g>
		<polygon fill="#2D3134" points="899,530 759,600 778,619 800,630 940,560 940,550 		"/>
		<polygon fill="#CC291F" points="935,552.5 935,562 925,567 925,557.5 		"/>
		<polygon fill="#CC291F" points="920,560 920,569.5 910,574.5 910,565 		"/>
		<polygon fill="#CC291F" points="830,605 830,614.5 820,619.5 820,610 		"/>
		<polygon fill="#CC291F" points="815,612.5 815,622 805,627 805,617.5 		"/>
		<polygon opacity="0.11" points="759,600 778,619 800,630 800,620 		"/>
		<polygon fill="#FFFFFF" points="895,573 895,582 845,607 845,598 		"/>
		<polygon opacity="0.29" points="940,550 940,560 800,630 800,620 		"/>
	</g>
	<g>
		<polygon fill="#2D3134" points="260,228 186,265 186,275 806,585 880,548 880,538 		"/>
		<polygon opacity="0.11" points="186,265 186,275 806,585 806,575 		"/>
	</g>
	<g>
		<polygon fill="#2D3134" points="454,307 314,377 334,397 518,489 538,489 678,419 		"/>
		<polygon opacity="0.11" points="314,377 334,397 518,489 538,489 		"/>
	</g>
	<g>
		<polygon fill="#2D3134" points="320,230 180,300 180,310 800,620 940,550 940,540 		"/>
		<polygon opacity="0.11" points="180,300 180,310 800,620 800,610 		"/>
		<polygon opacity="0.15" points="300,240 292,244 912,554 920,550 		"/>
		<polygon opacity="0.15" points="208,286 200,290 820,600 828,596 		"/>
		<polygon opacity="0.29" points="940,540 940,550 800,620 800,610 		"/>
	</g>
</g>
</svg>
