<?xml version="1.0" encoding="utf-8"?>
<!-- Generator: Adobe Illustrator 18.1.0, SVG Export Plug-In . SVG Version: 6.00 Build 0)  -->
<svg version="1.1" id="Layer_1" xmlns="http://www.w3.org/2000/svg" xmlns:xlink="http://www.w3.org/1999/xlink" x="0px" y="0px"
	 viewBox="0 0 640 480" enable-background="new 0 0 640 480" xml:space="preserve">
<polygon opacity="0.3" points="45,211 186,141 583,340 443,410 "/>
<g>
	<polygon fill="#06547A" points="398,202 258,272 258,303 290,319 430,249 430,218 	"/>
	<polygon opacity="0.11" points="258,272 258,303 290,319 290,288 	"/>
	<polygon opacity="0.29" points="430,218 430,249 290,319 290,288 	"/>
</g>
<g>
	<polygon fill="#06547A" points="430,218 420,223 420,254 472,280 482,275 482,244 	"/>
	<polygon opacity="0.11" points="420,223 420,254 472,280 472,249 	"/>
	<polygon opacity="0.29" points="482,244 482,275 472,280 472,249 	"/>
</g>
<g>
	<polygon fill="#06547A" points="517,262 507,267 507,298 559,324 569,319 569,288 	"/>
	<polygon opacity="0.11" points="507,267 507,298 559,324 559,293 	"/>
	<polygon opacity="0.29" points="569,288 569,319 559,324 559,293 	"/>
</g>
<g>
	<polygon fill="#999999" points="414,230 394,240 394,267 438,289 458,279 458,252 	"/>
	<polygon fill="#2D3134" points="428,237 424,235 404,245 404,272 408,274 408,247 	"/>
	<polygon fill="#2D3134" points="448,247 444,245 424,255 424,282 428,284 428,257 	"/>
	<polygon opacity="0.29" points="458,252 458,279 438,289 438,262 	"/>
	<polygon opacity="0.11" points="394,240 394,267 438,289 438,262 	"/>
</g>
<g>
	<polygon fill="#2D3134" points="445,262 481,244 469,264 433,282 	"/>
	<polygon opacity="0.29" points="445,262 481,244 469,264 433,282 	"/>
	<g>
		<g>
			<path fill="#2D3134" d="M499.4,254.6c-7.5-3.7-14.2-4.2-19.2-1.9l0,0l-14,7l0,0c-5.4,2.4-8.8,7.9-8.8,15.9
				c0,15.5,12.5,34.3,28,42c7.6,3.8,14.6,4.2,19.6,1.8c0,0,13.9-6.9,15.1-7.6c4.5-2.7,7.3-7.9,7.3-15.2
				C527.4,281.2,514.8,262.4,499.4,254.6z"/>
			<path opacity="0.29" d="M505.3,319.2c2-1,13.7-6.8,14.8-7.5c4.5-2.7,7.3-7.9,7.3-15.2c0-6.2-2.1-13-5.5-19.3l-14,7
				c3.4,6.4,5.5,13.1,5.5,19.3C513.4,311.3,510.3,316.7,505.3,319.2z"/>
			<path fill="#999999" d="M503.3,298.4c0,9.9-8,13.9-17.9,8.9c-9.9-4.9-17.9-17-17.9-26.8s8-13.9,17.9-8.9
				C495.2,276.5,503.3,288.5,503.3,298.4z"/>
			<path opacity="0.15" d="M486.9,306.7c-9.9-4.9-17.9-17-17.9-26.8c0-4.9,1.9-8.3,5.1-9.9c-4,1.3-6.6,5-6.6,10.6
				c0,9.9,8,21.9,17.9,26.8c5,2.5,9.6,2.7,12.8,1C495.1,309.3,491.2,308.8,486.9,306.7z"/>
			<path fill="#2D3134" d="M494.3,292.6c0,4.1-3.3,5.8-7.5,3.7c-4.1-2.1-7.5-7.1-7.5-11.2s3.3-5.8,7.5-3.7
				C491,283.4,494.3,288.4,494.3,292.6z"/>
			<path opacity="0.29" d="M494.3,292.6c0,4.1-3.3,5.8-7.5,3.7c-4.1-2.1-7.5-7.1-7.5-11.2s3.3-5.8,7.5-3.7
				C491,283.4,494.3,288.4,494.3,292.6z"/>
			<path fill="#2D3134" d="M492.8,293.3c0,4.1-3.3,5.8-7.5,3.7c-4.1-2.1-7.5-7.1-7.5-11.2s3.3-5.8,7.5-3.7
				C489.5,284.1,492.8,289.1,492.8,293.3z"/>
			<path opacity="0.11" d="M513.4,303.6c0,15.5-12.5,21.7-28,14c-15.5-7.7-28-26.5-28-42c0-15.5,12.5-21.7,28-14
				C500.8,269.4,513.4,288.2,513.4,303.6z"/>
		</g>
	</g>
	<g>
		<g>
			<path fill="#2D3134" d="M480,264.1c-7.5-3.7-14.2-4.2-19.2-1.9l0,0l-14,7l0,0c-5.4,2.4-8.8,7.9-8.8,15.9c0,15.5,12.5,34.3,28,42
				c7.6,3.8,14.6,4.2,19.6,1.8c0,0,13.9-6.9,15.1-7.6c4.5-2.7,7.3-7.9,7.3-15.2C508,290.6,495.5,271.8,480,264.1z"/>
			<path opacity="0.29" d="M485.9,328.7c2-1,13.7-6.8,14.8-7.5c4.5-2.7,7.3-7.9,7.3-15.2c0-6.2-2.1-13-5.5-19.3l-14,7
				c3.4,6.4,5.5,13.1,5.5,19.3C494,320.7,490.9,326.1,485.9,328.7z"/>
			<path fill="#999999" d="M483.9,307.8c0,9.9-8,13.9-17.9,8.9c-9.9-4.9-17.9-17-17.9-26.8s8-13.9,17.9-8.9
				C475.9,286,483.9,298,483.9,307.8z"/>
			<path opacity="0.15" d="M467.5,316.2c-9.9-4.9-17.9-17-17.9-26.8c0-4.9,1.9-8.3,5.1-9.9c-4,1.3-6.6,5-6.6,10.6
				c0,9.9,8,21.9,17.9,26.8c5,2.5,9.6,2.7,12.8,1C475.7,318.8,471.8,318.3,467.5,316.2z"/>
			<path fill="#2D3134" d="M474.9,302c0,4.1-3.3,5.8-7.5,3.7c-4.1-2.1-7.5-7.1-7.5-11.2c0-4.1,3.3-5.8,7.5-3.7
				C471.6,292.9,474.9,297.9,474.9,302z"/>
			<path opacity="0.29" d="M474.9,302c0,4.1-3.3,5.8-7.5,3.7c-4.1-2.1-7.5-7.1-7.5-11.2c0-4.1,3.3-5.8,7.5-3.7
				C471.6,292.9,474.9,297.9,474.9,302z"/>
			<path fill="#2D3134" d="M473.5,302.7c0,4.1-3.3,5.8-7.5,3.7c-4.1-2.1-7.5-7.1-7.5-11.2c0-4.1,3.3-5.8,7.5-3.7
				S473.5,298.6,473.5,302.7z"/>
			<path opacity="0.11" d="M494,313.1c0,15.5-12.5,21.7-28,14c-15.5-7.7-28-26.5-28-42c0-15.5,12.5-21.7,28-14
				C481.5,278.8,494,297.6,494,313.1z"/>
		</g>
	</g>
	<polygon fill="#2D3134" points="445,262 481,244 517,262 481,280 	"/>
	<polygon fill="#2D3134" points="495,305 531,287 517,262 481,280 	"/>
	<polygon opacity="0.29" points="495,305 531,287 517,262 481,280 	"/>
</g>
<g>
	<polygon fill="#2D3134" points="505,292 541,274 529,294 493,312 	"/>
	<polygon opacity="0.29" points="505,292 541,274 529,294 493,312 	"/>
	<g>
		<g>
			<path fill="#2D3134" d="M559.4,284.6c-7.5-3.7-14.2-4.2-19.2-1.9l0,0l-14,7l0,0c-5.4,2.4-8.8,7.9-8.8,15.9
				c0,15.5,12.5,34.3,28,42c7.6,3.8,14.6,4.2,19.6,1.8c0,0,13.9-6.9,15.1-7.6c4.5-2.7,7.3-7.9,7.3-15.2
				C587.4,311.2,574.8,292.4,559.4,284.6z"/>
			<path opacity="0.29" d="M565.3,349.2c2-1,13.7-6.8,14.8-7.5c4.5-2.7,7.3-7.9,7.3-15.2c0-6.2-2.1-13-5.5-19.3l-14,7
				c3.4,6.4,5.5,13.1,5.5,19.3C573.4,341.3,570.3,346.7,565.3,349.2z"/>
			<path fill="#999999" d="M563.3,328.4c0,9.9-8,13.9-17.9,8.9c-9.9-4.9-17.9-17-17.9-26.8s8-13.9,17.9-8.9
				C555.2,306.5,563.3,318.5,563.3,328.4z"/>
			<path opacity="0.15" d="M546.9,336.7c-9.9-4.9-17.9-17-17.9-26.8c0-4.9,1.9-8.3,5.1-9.9c-4,1.3-6.6,5-6.6,10.6
				c0,9.9,8,21.9,17.9,26.8c5,2.5,9.6,2.7,12.8,1C555.1,339.3,551.2,338.8,546.9,336.7z"/>
			<path fill="#2D3134" d="M554.3,322.6c0,4.1-3.3,5.8-7.5,3.7c-4.1-2.1-7.5-7.1-7.5-11.2s3.3-5.8,7.5-3.7
				C551,313.4,554.3,318.4,554.3,322.6z"/>
			<path opacity="0.29" d="M554.3,322.6c0,4.1-3.3,5.8-7.5,3.7c-4.1-2.1-7.5-7.1-7.5-11.2s3.3-5.8,7.5-3.7
				C551,313.4,554.3,318.4,554.3,322.6z"/>
			<path fill="#2D3134" d="M552.8,323.3c0,4.1-3.3,5.8-7.5,3.7c-4.1-2.1-7.5-7.1-7.5-11.2s3.3-5.8,7.5-3.7
				C549.5,314.1,552.8,319.1,552.8,323.3z"/>
			<path opacity="0.11" d="M573.4,333.6c0,15.5-12.5,21.7-28,14c-15.5-7.7-28-26.5-28-42c0-15.5,12.5-21.7,28-14
				C560.8,299.4,573.4,318.2,573.4,333.6z"/>
		</g>
	</g>
	<g>
		<g>
			<path fill="#2D3134" d="M540,294.1c-7.5-3.7-14.2-4.2-19.2-1.9l0,0l-14,7l0,0c-5.4,2.4-8.8,7.9-8.8,15.9c0,15.5,12.5,34.3,28,42
				c7.6,3.8,14.6,4.2,19.6,1.8c0,0,13.9-6.9,15.1-7.6c4.5-2.7,7.3-7.9,7.3-15.2C568,320.6,555.5,301.8,540,294.1z"/>
			<path opacity="0.29" d="M545.9,358.7c2-1,13.7-6.8,14.8-7.5c4.5-2.7,7.3-7.9,7.3-15.2c0-6.2-2.1-13-5.5-19.3l-14,7
				c3.4,6.4,5.5,13.1,5.5,19.3C554,350.7,550.9,356.1,545.9,358.7z"/>
			<path fill="#999999" d="M543.9,337.8c0,9.9-8,13.9-17.9,8.9c-9.9-4.9-17.9-17-17.9-26.8s8-13.9,17.9-8.9
				C535.9,316,543.9,328,543.9,337.8z"/>
			<path opacity="0.15" d="M527.5,346.2c-9.9-4.9-17.9-17-17.9-26.8c0-4.9,1.9-8.3,5.1-9.9c-4,1.3-6.6,5-6.6,10.6
				c0,9.9,8,21.9,17.9,26.8c5,2.5,9.6,2.7,12.8,1C535.7,348.8,531.8,348.3,527.5,346.2z"/>
			<path fill="#2D3134" d="M534.9,332c0,4.1-3.3,5.8-7.5,3.7c-4.1-2.1-7.5-7.1-7.5-11.2c0-4.1,3.3-5.8,7.5-3.7
				C531.6,322.9,534.9,327.9,534.9,332z"/>
			<path opacity="0.29" d="M534.9,332c0,4.1-3.3,5.8-7.5,3.7c-4.1-2.1-7.5-7.1-7.5-11.2c0-4.1,3.3-5.8,7.5-3.7
				C531.6,322.9,534.9,327.9,534.9,332z"/>
			<path fill="#2D3134" d="M533.5,332.7c0,4.1-3.3,5.8-7.5,3.7c-4.1-2.1-7.5-7.1-7.5-11.2c0-4.1,3.3-5.8,7.5-3.7
				S533.5,328.6,533.5,332.7z"/>
			<path opacity="0.11" d="M554,343.1c0,15.5-12.5,21.7-28,14c-15.5-7.7-28-26.5-28-42c0-15.5,12.5-21.7,28-14
				C541.5,308.8,554,327.6,554,343.1z"/>
		</g>
	</g>
	<polygon fill="#2D3134" points="505,292 541,274 577,292 541,310 	"/>
	<polygon fill="#2D3134" points="555,335 591,317 577,292 541,310 	"/>
	<polygon opacity="0.29" points="555,335 591,317 577,292 541,310 	"/>
</g>
<g>
	<polygon fill="#06547A" points="384,241 380,243 380,274 536,352 540,350 540,319 	"/>
	<polygon opacity="0.11" points="380,243 380,274 536,352 536,321 	"/>
	<polygon opacity="0.29" points="540,319 540,350 536,352 536,321 	"/>
</g>
<g>
	<polygon fill="#06547A" points="380,245 344,263 344,294 368,306 404,288 404,257 	"/>
	<polygon opacity="0.11" points="344,263 344,294 368,306 368,275 	"/>
	<polygon opacity="0.29" points="404,257 404,288 368,306 368,275 	"/>
</g>
<g>
	<polygon fill="#06547A" points="394,270 384,275 384,291 482,340 492,335 492,319 	"/>
	<polygon opacity="0.11" points="384,275 384,291 482,340 482,324 	"/>
	<polygon opacity="0.29" points="492,319 492,335 482,340 482,324 	"/>
</g>
<g>
	<polygon fill="#06547A" points="510,310 474,328 474,359 498,371 534,353 534,322 	"/>
	<polygon opacity="0.11" points="474,328 474,359 498,371 498,340 	"/>
	<polygon opacity="0.29" points="534,322 534,353 498,371 498,340 	"/>
</g>
<g>
	<polygon fill="#06547A" points="340,263 336,265 336,296 492,374 496,372 496,341 	"/>
	<polygon opacity="0.11" points="336,265 336,296 492,374 492,343 	"/>
	<polygon opacity="0.29" points="496,341 496,372 492,374 492,343 	"/>
</g>
<g>
	<polygon fill="#999999" points="326,274 306,284 306,311 350,333 370,323 370,296 	"/>
	<polygon fill="#2D3134" points="340,281 336,279 316,289 316,316 320,318 320,291 	"/>
	<polygon fill="#2D3134" points="360,291 356,289 336,299 336,326 340,328 340,301 	"/>
	<polygon opacity="0.29" points="370,296 370,323 350,333 350,306 	"/>
	<polygon opacity="0.11" points="306,284 306,311 350,333 350,306 	"/>
</g>
<g>
	<polygon fill="#06547A" points="300,283 290,288 290,319 342,345 352,340 352,309 	"/>
	<polygon opacity="0.11" points="290,288 290,319 342,345 342,314 	"/>
	<polygon opacity="0.29" points="352,309 352,340 342,345 342,314 	"/>
</g>
<g>
	<path fill="#2D3134" d="M490,309.1c3.3-7.1-3.5-16.7-13.4-21.7c-12.9-6.5-33.9-6.5-46.9,0c-12.9,6.5-12.9,17,0,23.4
		c9.9,5,29.1,8.4,43.3,6.7v-3.4h-3.6l-15.9-14.8L490,309.1z"/>
	<path opacity="0.2" d="M490,309.1c3.3-7.1-3.5-16.7-13.4-21.7c-12.9-6.5-33.9-6.5-46.9,0c-12.9,6.5-12.9,17,0,23.4
		c9.9,5,29.1,8.4,43.3,6.7v-3.4h-3.6l-15.9-14.8L490,309.1z"/>
	<path fill="#2D3134" d="M473.1,314.2L453.6,296l36.5,9.7c3.3-7.1-3.5-16.7-13.4-21.7c-12.9-6.5-33.9-6.5-46.9,0
		c-12.9,6.5-12.9,17,0,23.4C439.7,312.5,458.8,315.8,473.1,314.2z"/>
</g>
<g>
	<polygon fill="#2D3134" points="350,309.6 386,291.6 374,311.6 338,329.6 	"/>
	<polygon opacity="0.29" points="350,309.6 386,291.6 374,311.6 338,329.6 	"/>
	<g>
		<g>
			<path fill="#2D3134" d="M404.4,302.2c-7.5-3.7-14.2-4.2-19.2-1.9l0,0l-14,7l0,0c-5.4,2.4-8.8,7.9-8.8,15.9
				c0,15.5,12.5,34.3,28,42c7.6,3.8,14.6,4.2,19.6,1.8c0,0,13.9-6.9,15.1-7.6c4.5-2.7,7.3-7.9,7.3-15.2
				C432.4,328.8,419.8,310,404.4,302.2z"/>
			<path opacity="0.29" d="M410.3,366.8c2-1,13.7-6.8,14.8-7.5c4.5-2.7,7.3-7.9,7.3-15.2c0-6.2-2.1-13-5.5-19.3l-14,7
				c3.4,6.4,5.5,13.1,5.5,19.3C418.4,358.9,415.3,364.3,410.3,366.8z"/>
			<path fill="#999999" d="M408.3,346c0,9.9-8,13.9-17.9,8.9c-9.9-4.9-17.9-17-17.9-26.8s8-13.9,17.9-8.9
				C400.2,324.1,408.3,336.1,408.3,346z"/>
			<path opacity="0.15" d="M391.9,354.3c-9.9-4.9-17.9-17-17.9-26.8c0-4.9,1.9-8.3,5.1-9.9c-4,1.3-6.6,5-6.6,10.6
				c0,9.9,8,21.9,17.9,26.8c5,2.5,9.6,2.7,12.8,1C400.1,356.9,396.2,356.4,391.9,354.3z"/>
			<path fill="#2D3134" d="M399.3,340.1c0,4.1-3.3,5.8-7.5,3.7c-4.1-2.1-7.5-7.1-7.5-11.2c0-4.1,3.3-5.8,7.5-3.7
				C396,331,399.3,336,399.3,340.1z"/>
			<path opacity="0.29" d="M399.3,340.1c0,4.1-3.3,5.8-7.5,3.7c-4.1-2.1-7.5-7.1-7.5-11.2c0-4.1,3.3-5.8,7.5-3.7
				C396,331,399.3,336,399.3,340.1z"/>
			<path fill="#2D3134" d="M397.8,340.8c0,4.1-3.3,5.8-7.5,3.7c-4.1-2.1-7.5-7.1-7.5-11.2c0-4.1,3.3-5.8,7.5-3.7
				C394.5,331.7,397.8,336.7,397.8,340.8z"/>
			<path opacity="0.11" d="M418.4,351.2c0,15.5-12.5,21.7-28,14c-15.5-7.7-28-26.5-28-42c0-15.5,12.5-21.7,28-14
				C405.8,317,418.4,335.8,418.4,351.2z"/>
		</g>
	</g>
	<g>
		<g>
			<path fill="#2D3134" d="M385,311.7c-7.5-3.7-14.2-4.2-19.2-1.9l0,0l-14,7l0,0c-5.4,2.4-8.8,7.9-8.8,15.9c0,15.5,12.5,34.3,28,42
				c7.6,3.8,14.6,4.2,19.6,1.8c0,0,13.9-6.9,15.1-7.6c4.5-2.7,7.3-7.9,7.3-15.2C413,338.2,400.5,319.4,385,311.7z"/>
			<path opacity="0.29" d="M390.9,376.3c2-1,13.7-6.8,14.8-7.5c4.5-2.7,7.3-7.9,7.3-15.2c0-6.2-2.1-13-5.5-19.3l-14,7
				c3.4,6.4,5.5,13.1,5.5,19.3C399,368.3,395.9,373.7,390.9,376.3z"/>
			<path fill="#999999" d="M388.9,355.4c0,9.9-8,13.9-17.9,8.9c-9.9-4.9-17.9-17-17.9-26.8s8-13.9,17.9-8.9
				C380.9,333.6,388.9,345.6,388.9,355.4z"/>
			<path opacity="0.15" d="M372.5,363.8c-9.9-4.9-17.9-17-17.9-26.8c0-4.9,1.9-8.3,5.1-9.9c-4,1.3-6.6,5-6.6,10.6
				c0,9.9,8,21.9,17.9,26.8c5,2.5,9.6,2.7,12.8,1C380.7,366.4,376.8,365.9,372.5,363.8z"/>
			<path fill="#2D3134" d="M379.9,349.6c0,4.1-3.3,5.8-7.5,3.7c-4.1-2.1-7.5-7.1-7.5-11.2s3.3-5.8,7.5-3.7
				C376.6,340.5,379.9,345.5,379.9,349.6z"/>
			<path opacity="0.29" d="M379.9,349.6c0,4.1-3.3,5.8-7.5,3.7c-4.1-2.1-7.5-7.1-7.5-11.2s3.3-5.8,7.5-3.7
				C376.6,340.5,379.9,345.5,379.9,349.6z"/>
			<path fill="#2D3134" d="M378.5,350.3c0,4.1-3.3,5.8-7.5,3.7s-7.5-7.1-7.5-11.2c0-4.1,3.3-5.8,7.5-3.7
				C375.1,341.2,378.5,346.2,378.5,350.3z"/>
			<path opacity="0.11" d="M399,360.7c0,15.5-12.5,21.7-28,14c-15.5-7.7-28-26.5-28-42c0-15.5,12.5-21.7,28-14
				C386.5,326.4,399,345.2,399,360.7z"/>
		</g>
	</g>
	<polygon fill="#2D3134" points="350,309.6 386,291.6 422,309.6 386,327.6 	"/>
	<polygon fill="#2D3134" points="400,352.6 436,334.6 422,309.6 386,327.6 	"/>
	<polygon opacity="0.29" points="400,352.6 436,334.6 422,309.6 386,327.6 	"/>
</g>
<g>
	<polygon fill="#2D3134" points="408,339.6 444,321.6 432,341.6 396,359.6 	"/>
	<polygon opacity="0.29" points="408,339.6 444,321.6 432,341.6 396,359.6 	"/>
	<g>
		<g>
			<path fill="#2D3134" d="M462.4,332.2c-7.5-3.7-14.2-4.2-19.2-1.9l0,0l-14,7l0,0c-5.4,2.4-8.8,7.9-8.8,15.9
				c0,15.5,12.5,34.3,28,42c7.6,3.8,14.6,4.2,19.6,1.8c0,0,13.9-6.9,15.1-7.6c4.5-2.7,7.3-7.9,7.3-15.2
				C490.4,358.8,477.8,340,462.4,332.2z"/>
			<path opacity="0.29" d="M468.3,396.8c2-1,13.7-6.8,14.8-7.5c4.5-2.7,7.3-7.9,7.3-15.2c0-6.2-2.1-13-5.5-19.3l-14,7
				c3.4,6.4,5.5,13.1,5.5,19.3C476.4,388.9,473.3,394.3,468.3,396.8z"/>
			<path fill="#999999" d="M466.3,376c0,9.9-8,13.9-17.9,8.9c-9.9-4.9-17.9-17-17.9-26.8s8-13.9,17.9-8.9
				C458.2,354.1,466.3,366.1,466.3,376z"/>
			<path opacity="0.15" d="M449.9,384.3c-9.9-4.9-17.9-17-17.9-26.8c0-4.9,1.9-8.3,5.1-9.9c-4,1.3-6.6,5-6.6,10.6
				c0,9.9,8,21.9,17.9,26.8c5,2.5,9.6,2.7,12.8,1C458.1,386.9,454.2,386.4,449.9,384.3z"/>
			<path fill="#2D3134" d="M457.3,370.1c0,4.1-3.3,5.8-7.5,3.7c-4.1-2.1-7.5-7.1-7.5-11.2c0-4.1,3.3-5.8,7.5-3.7
				C454,361,457.3,366,457.3,370.1z"/>
			<path opacity="0.29" d="M457.3,370.1c0,4.1-3.3,5.8-7.5,3.7c-4.1-2.1-7.5-7.1-7.5-11.2c0-4.1,3.3-5.8,7.5-3.7
				C454,361,457.3,366,457.3,370.1z"/>
			<path fill="#2D3134" d="M455.8,370.8c0,4.1-3.3,5.8-7.5,3.7c-4.1-2.1-7.5-7.1-7.5-11.2c0-4.1,3.3-5.8,7.5-3.7
				C452.5,361.7,455.8,366.7,455.8,370.8z"/>
			<path opacity="0.11" d="M476.4,381.2c0,15.5-12.5,21.7-28,14c-15.5-7.7-28-26.5-28-42c0-15.5,12.5-21.7,28-14
				C463.8,347,476.4,365.8,476.4,381.2z"/>
		</g>
	</g>
	<g>
		<g>
			<path fill="#2D3134" d="M443,341.7c-7.5-3.7-14.2-4.2-19.2-1.9l0,0l-14,7l0,0c-5.4,2.4-8.8,7.9-8.8,15.9c0,15.5,12.5,34.3,28,42
				c7.6,3.8,14.6,4.2,19.6,1.8c0,0,13.9-6.9,15.1-7.6c4.5-2.7,7.3-7.9,7.3-15.2C471,368.2,458.5,349.4,443,341.7z"/>
			<path opacity="0.29" d="M448.9,406.3c2-1,13.7-6.8,14.8-7.5c4.5-2.7,7.3-7.9,7.3-15.2c0-6.2-2.1-13-5.5-19.3l-14,7
				c3.4,6.4,5.5,13.1,5.5,19.3C457,398.3,453.9,403.7,448.9,406.3z"/>
			<path fill="#999999" d="M446.9,385.4c0,9.9-8,13.9-17.9,8.9c-9.9-4.9-17.9-17-17.9-26.8s8-13.9,17.9-8.9
				C438.9,363.6,446.9,375.6,446.9,385.4z"/>
			<path opacity="0.15" d="M430.5,393.8c-9.9-4.9-17.9-17-17.9-26.8c0-4.9,1.9-8.3,5.1-9.9c-4,1.3-6.6,5-6.6,10.6
				c0,9.9,8,21.9,17.9,26.8c5,2.5,9.6,2.7,12.8,1C438.7,396.4,434.8,395.9,430.5,393.8z"/>
			<path fill="#2D3134" d="M437.9,379.6c0,4.1-3.3,5.8-7.5,3.7c-4.1-2.1-7.5-7.1-7.5-11.2s3.3-5.8,7.5-3.7
				C434.6,370.5,437.9,375.5,437.9,379.6z"/>
			<path opacity="0.29" d="M437.9,379.6c0,4.1-3.3,5.8-7.5,3.7c-4.1-2.1-7.5-7.1-7.5-11.2s3.3-5.8,7.5-3.7
				C434.6,370.5,437.9,375.5,437.9,379.6z"/>
			<path fill="#2D3134" d="M436.5,380.3c0,4.1-3.3,5.8-7.5,3.7s-7.5-7.1-7.5-11.2c0-4.1,3.3-5.8,7.5-3.7
				C433.1,371.2,436.5,376.2,436.5,380.3z"/>
			<path opacity="0.11" d="M457,390.7c0,15.5-12.5,21.7-28,14c-15.5-7.7-28-26.5-28-42c0-15.5,12.5-21.7,28-14
				C444.5,356.4,457,375.2,457,390.7z"/>
		</g>
	</g>
	<polygon fill="#2D3134" points="408,339.6 444,321.6 480,339.6 444,357.6 	"/>
	<polygon fill="#2D3134" points="458,382.6 494,364.6 480,339.6 444,357.6 	"/>
	<polygon opacity="0.29" points="458,382.6 494,364.6 480,339.6 444,357.6 	"/>
</g>
<g>
	<polygon fill="#2D3134" points="418,227 334,269 334,279 398,311 482,269 482,259 	"/>
	<polygon opacity="0.11" points="334,269 334,279 398,311 398,301 	"/>
</g>
<g>
	<g>
		<path fill="#2D3134" d="M334,195.4c0-1.8-1.4-3.9-3.2-4.8c-1.1-0.6-2.1-0.5-2.7,0.1c-2,0.7-4.1,0.4-5.9-0.7
			c-2.1-1.3-3.3-3.5-3.3-5.9V2.6H311v181.5c0,5.2,2.6,9.9,7.1,12.7c2.4,1.5,5.1,2.2,7.8,2.2c2.3,0,4.5-0.5,6.7-1.6
			C332.6,197.4,334,196.6,334,195.4z"/>
		<ellipse fill="#2D3134" cx="315" cy="2.6" rx="4" ry="2.6"/>
	</g>
	<g>
		<g>
			<polygon fill="#999999" points="168,111 164,109 44,169 44,200 48,202 168,142 			"/>
		</g>
		<polygon opacity="0.11" points="48,202 44,200 44,169 48,171 		"/>
		<polygon opacity="0.29" points="48,202 168,142 168,111 48,171 		"/>
	</g>
	<g>
		<g>
			<polygon fill="#999999" points="132,64 128,62 108,66 96,72 76,88 76,150 80,152 132,126 			"/>
		</g>
		<polygon opacity="0.11" points="80,152 76,150 76,88 80,90 		"/>
		<polygon opacity="0.29" points="80,152 132,126 132,64 112,68 100,74 80,90 		"/>
	</g>
	<g>
		<g>
			<g>
				<g>
					<polygon fill="#06547A" points="242,100 132,65 80,91 80,201 158,240 158,142 					"/>
				</g>
			</g>
		</g>
		<polygon opacity="0.11" points="158,240 80,201 80,91 158,142 		"/>
	</g>
	<g>
		<g>
			<g>
				<g>
					<polygon fill="#06547A" points="94,139 80,132 58,143 58,154 62,156 72,150 					"/>
				</g>
			</g>
		</g>
		<polygon opacity="0.11" points="62,156 58,154 58,143 72,150 		"/>
	</g>
	<g>
		<path fill="#06547A" d="M255.3,46.6C255.3,46.6,255.3,46.6,255.3,46.6L254,46l-0.1,0c-8-3.5-16.4-2.8-23.3,0.9l-84.7,42.4
			c-7.3,4.1-12.7,11.4-13.7,20.5L132,110v2.9V234l0,0l90,45l84-42V72L255.3,46.6z"/>
		<path fill="#2D3134" d="M144.9,125.6l-2.2,7.7c-0.4,1.3,0.2,2.8,1.5,3.4l33.6,16.8c1.9,1,4.2-0.4,4.2-2.6v-23.2
			c0-2.5-1.4-4.9-3.7-6l-11.5-5.7C158.1,111.5,147.5,116.2,144.9,125.6z"/>
		<path fill="#656565" d="M179.1,151.8c-0.1,0-0.3,0-0.4-0.1l-33.6-16.8c-0.4-0.2-0.6-0.6-0.5-1.1l2.2-7.7c1.7-5.8,7-9.9,13.1-9.9
			c2.1,0,4.1,0.5,6.1,1.4l11.5,5.7c1.6,0.8,2.6,2.4,2.6,4.2v23.2c0,0.3-0.1,0.5-0.3,0.7C179.6,151.7,179.3,151.8,179.1,151.8
			L179.1,151.8z"/>
		<polygon opacity="0.3" fill="#2D3134" points="172,158.5 172,163.5 182,168.5 182,163.5 		"/>
		<polygon opacity="0.3" fill="#FFFFFF" points="182,171 172,166 172,163.5 182,168.5 		"/>
		<path opacity="0.11" d="M222,114v165l-90-45V112.9c0-20.2,21.2-33.3,39.3-24.3L222,114z"/>
	</g>
	<g>
		<path fill="#06547A" d="M251.4,36.1c-3-0.3-5.5,0.2-7.5,1.5l-0.1,0L145,87l-1.8,0.9c-0.3,0.1-3.2,1.2-3.2,7.1l78,39l102-51V57.6
			L251.4,36.1z"/>
		<path opacity="0.11" d="M218,108.6V134l-78-39v0c0-4.1,0.9-8.8,9.4-7.9L218,108.6z"/>
		<polygon opacity="0.29" points="218,108.6 218,134 320,83 320,57.6 		"/>
	</g>
	<g>
		<path fill="#06547A" d="M392.3,30.6C392.3,30.6,392.3,30.6,392.3,30.6L391,30l-0.1,0c-8-3.5-16.4-2.8-23.3,0.9l-140.7,70.4
			c-7.3,4.1-12.7,11.4-13.7,20.5L213,122v2.9V269l0,0l90,45l140-70V56L392.3,30.6z"/>
		<polygon opacity="0.29" points="303,126 303,314 443,244 443,56 		"/>
		<polygon fill="#06547A" points="439,242 429,237 429,68 439,63 		"/>
		<polygon opacity="0.11" points="439,242 429,237 429,68 439,63 		"/>
		<polygon fill="#06547A" points="439,242 429,237 307,298 307,308 		"/>
		<path fill="#2D3134" d="M224,119.3l-0.8,1.4c-1.2,2-0.4,4.5,1.6,5.5l57.8,28.9c2,1,4.4-0.5,4.4-2.7v-14.6c0-1.5-0.8-2.8-2.2-3.5
			l-41.4-20.7C236.4,110.1,227.9,112.6,224,119.3z"/>
		<path fill="#656565" d="M283.9,153.5c-0.2,0-0.3,0-0.5-0.1l-57.8-28.9c-0.5-0.2-0.8-0.7-1-1.2c-0.2-0.5-0.1-1.1,0.2-1.5l0.8-1.4
			c2.3-3.9,6.6-6.3,11.1-6.3c2,0,3.9,0.5,5.7,1.4l41.4,20.7c0.7,0.3,1.1,1,1.1,1.7v14.6c0,0.4-0.2,0.6-0.3,0.8
			C284.5,153.4,284.2,153.5,283.9,153.5L283.9,153.5z"/>
		<path fill="#2D3134" d="M257,166.2v16.7c0,2,1.2,3.9,3,4.8l19.5,9.7c1.6,0.8,3.6-0.4,3.6-2.2v-16.7c0-2-1.2-3.9-3-4.8l-19.5-9.7
			C258.9,163.2,257,164.4,257,166.2z"/>
		<path fill="#656565" d="M280.5,195.7c-0.1,0-0.1,0-0.2-0.1l-19.5-9.7c-1.2-0.6-1.9-1.7-1.9-3v-16.7c0-0.3,0.3-0.5,0.5-0.5
			c0.1,0,0.1,0,0.2,0.1l19.5,9.7c1.2,0.6,1.9,1.7,1.9,3v16.7c0,0.1,0,0.2-0.1,0.3C280.8,195.6,280.7,195.7,280.5,195.7L280.5,195.7z
			"/>
		<path opacity="0.2" d="M257.5,160c0.4,0,0.8,0.1,1.1,0.3l22.9,11.5c2.1,1.1,3.4,3.2,3.4,5.6v43.6c0,1.6-1.3,2.5-2.5,2.5
			c-0.4,0-0.8-0.1-1.1-0.3l-22.9-11.5c-2.1-1.1-3.4-3.2-3.4-5.6v-43.6C255,161,256.3,160,257.5,160 M257.5,158
			c-2.4,0-4.5,1.9-4.5,4.5v43.6c0,3.1,1.8,6,4.5,7.4l22.9,11.5c0.7,0.3,1.4,0.5,2,0.5c2.4,0,4.5-1.9,4.5-4.5v-43.6
			c0-3.1-1.8-6-4.5-7.4l-22.9-11.5C258.9,158.2,258.2,158,257.5,158L257.5,158z"/>
		<path opacity="0.2" d="M257.5,220c0.4,0,0.8,0.1,1.1,0.3l22.9,11.5c2.1,1.1,3.4,3.2,3.4,5.6v21.6c0,1.6-1.3,2.5-2.5,2.5
			c-0.4,0-0.8-0.1-1.1-0.3l-22.9-11.5c-2.1-1.1-3.4-3.2-3.4-5.6v-21.6C255,221,256.3,220,257.5,220 M257.5,218
			c-2.4,0-4.5,1.9-4.5,4.5v21.6c0,3.1,1.8,6,4.5,7.4l22.9,11.5c0.7,0.3,1.4,0.5,2,0.5c2.4,0,4.5-1.9,4.5-4.5v-21.6
			c0-3.1-1.8-6-4.5-7.4l-22.9-11.5C258.9,218.2,258.2,218,257.5,218L257.5,218z"/>
		<path opacity="0.11" d="M303,126v188l-90-45V124.9c0-20.2,21.2-33.3,39.3-24.3L303,126z"/>
	</g>
	<g>
		<polygon fill="#06547A" points="80,150 50,165 50,176 80,161 		"/>
		<polygon opacity="0.29" points="80,150 50,165 50,176 80,161 		"/>
	</g>
	<g>
		<path fill="#2D3134" d="M92,165.3c-7.5-3.7-14.2-4.2-19.2-1.9l0,0l-14,7l0,0c-5.4,2.4-8.8,7.9-8.8,15.9c0,15.5,12.5,34.3,28,42
			c7.6,3.8,14.6,4.2,19.6,1.8c0,0,13.9-6.9,15.1-7.6c4.5-2.7,7.3-7.9,7.3-15.2C120,191.8,107.5,173,92,165.3z"/>
		<path opacity="0.29" d="M97.9,229.9c2-1,13.7-6.8,14.8-7.5c4.5-2.7,7.3-7.9,7.3-15.2c0-6.2-2.1-13-5.5-19.3l-14,7
			c3.4,6.4,5.5,13.1,5.5,19.3C106,222,102.9,227.3,97.9,229.9z"/>
		<path fill="#999999" d="M95.9,209.1c0,9.9-8,13.9-17.9,8.9s-17.9-17-17.9-26.8s8-13.9,17.9-8.9S95.9,199.2,95.9,209.1z"/>
		<path opacity="0.15" d="M79.5,217.4c-9.9-4.9-17.9-17-17.9-26.8c0-4.9,1.9-8.3,5.1-9.9c-4,1.3-6.6,5-6.6,10.6
			c0,9.9,8,21.9,17.9,26.8c5,2.5,9.6,2.7,12.8,1C87.7,220,83.8,219.5,79.5,217.4z"/>
		<path fill="#2D3134" d="M86.9,203.2c0,4.1-3.3,5.8-7.5,3.7c-4.1-2.1-7.5-7.1-7.5-11.2c0-4.1,3.3-5.8,7.5-3.7
			C83.6,194.1,86.9,199.1,86.9,203.2z"/>
		<path opacity="0.29" d="M86.9,203.2c0,4.1-3.3,5.8-7.5,3.7c-4.1-2.1-7.5-7.1-7.5-11.2c0-4.1,3.3-5.8,7.5-3.7
			C83.6,194.1,86.9,199.1,86.9,203.2z"/>
		<path fill="#2D3134" d="M85.5,203.9c0,4.1-3.3,5.8-7.5,3.7s-7.5-7.1-7.5-11.2c0-4.1,3.3-5.8,7.5-3.7S85.5,199.8,85.5,203.9z"/>
		<path opacity="0.11" d="M106,214.3c0,15.5-12.5,21.7-28,14s-28-26.5-28-42s12.5-21.7,28-14S106,198.8,106,214.3z"/>
	</g>
	<path fill="#06547A" d="M133,164c-6-13.3-28.5-23.3-41-25s-21.8,3.3-33,11s-11,24-11,24l2,2l0.1,0.5c1.4-15.2,14.7-20.9,30.9-12.8
		c15.4,7.7,27.6,25.4,30,41.4l30-15C141,190,139,177.2,133,164z"/>
	<polygon fill="#06547A" points="141,190 111,205 111,234 141,219 	"/>
	<polygon opacity="0.29" points="141,190 111,205 111,234 141,219 	"/>
	<g>
		<g>
			<polygon fill="#999999" points="137,202 127,207 119,246 123,248 141,239 141,204 			"/>
			<polygon opacity="0.11" points="127,207 131,209 123,248 119,246 			"/>
			<polygon opacity="0.29" points="141,204 131,209 123,248 141,239 			"/>
		</g>
		<g>
			<polygon fill="#999999" points="137,215 131,218 131,222 181,247 183,238 			"/>
			<polygon opacity="0.11" points="131,218 131,222 181,247 181,243 			"/>
		</g>
		<g>
			<polygon fill="#999999" points="137,231 127,236 127,240 177,265 183,254 			"/>
			<polygon opacity="0.11" points="127,236 127,240 177,265 177,261 			"/>
		</g>
		<g>
			<polygon fill="#999999" points="191,229 181,234 173,273 177,275 195,266 195,231 			"/>
			<polygon opacity="0.11" points="181,234 185,236 177,275 173,273 			"/>
			<polygon opacity="0.29" points="195,231 185,236 177,275 195,266 			"/>
		</g>
	</g>
	<g>
		<path fill="#999999" d="M133,132c-7.2,0-13,2.9-13,6.5v49c0,3.6,5.8,6.5,13,6.5c7.2,0,13-2.9,13-6.5v-49
			C146,134.9,140.2,132,133,132z"/>
		<path opacity="0.2" d="M133,145c-7.2,0-13-2.9-13-6.5v49c0,3.6,5.8,6.5,13,6.5c7.2,0,13-2.9,13-6.5v-49
			C146,142.1,140.2,145,133,145z"/>
		<path fill="#999999" d="M133,185c-7.2,0-13-2.9-13-6.5v1c0,3.6,5.8,6.5,13,6.5c7.2,0,13-2.9,13-6.5v-1
			C146,182.1,140.2,185,133,185z"/>
		<path fill="#999999" d="M133,174.5c-7.2,0-13-2.9-13-6.5v1c0,3.6,5.8,6.5,13,6.5c7.2,0,13-2.9,13-6.5v-1
			C146,171.6,140.2,174.5,133,174.5z"/>
		<path fill="#999999" d="M133,164c-7.2,0-13-2.9-13-6.5v1c0,3.6,5.8,6.5,13,6.5c7.2,0,13-2.9,13-6.5v-1
			C146,161.1,140.2,164,133,164z"/>
		<path fill="#999999" d="M133,153.5c-7.2,0-13-2.9-13-6.5v1c0,3.6,5.8,6.5,13,6.5c7.2,0,13-2.9,13-6.5v-1
			C146,150.6,140.2,153.5,133,153.5z"/>
	</g>
	<path fill="#2D3134" d="M148.9,150c-1.1,0-2.2-0.3-3.1-0.9c-1.8-1.1-2.8-3-2.8-5.1v-32.3c0-2.3,1.3-4.3,3.3-5.3l3.7-1.8l0.4,0.9
		l-3.7,1.8c-1.7,0.8-2.7,2.5-2.7,4.4V144c0,1.7,0.9,3.3,2.4,4.2c1.5,0.9,3.3,1,4.8,0.2l0.6-0.3l0.4,0.9l-0.6,0.3
		C150.7,149.8,149.8,150,148.9,150z"/>
	<path fill="#2D3134" d="M143.1,110.9l0.7-0.3c2.4-0.8,4.9,1,4.9,3.5v21.4c0,3.1-1.9,6-4.9,7.1l-0.9,0.3c-2.4,0.9-5.1-0.9-5.1-3.5
		v-21.5C138,114.9,140.1,112,143.1,110.9z"/>
	<g>
		<path fill="#2D3134" d="M196,122c-6.1,0-11,2.5-11,5.5v107c0,3,4.9,5.5,11,5.5s11-2.5,11-5.5v-107C207,124.5,202,122,196,122z"/>
		<ellipse opacity="0.8" cx="196" cy="127.5" rx="8.2" ry="3.4"/>
		<path fill="#2D3134" d="M215,255.4c0-1.8-1.4-3.9-3.2-4.8c-1.1-0.6-2.1-0.5-2.7,0.1c-2,0.7-4.1,0.4-5.9-0.7
			c-2.1-1.3-3.3-3.5-3.3-5.9V62.6h-7.9v181.5c0,5.2,2.6,9.9,7.1,12.7c2.4,1.5,5.1,2.2,7.8,2.2c2.3,0,4.5-0.5,6.7-1.6
			C213.6,257.4,215,256.6,215,255.4z"/>
		<path fill="#2D3134" d="M200.1,122.4v2.1c2.5,0.6,4.1,1.7,4.1,3c0,1.9-3.7,3.4-8.2,3.4s-8.2-1.5-8.2-3.4c0-1.3,1.7-2.4,4.1-3v-2.1
			c-4,0.8-6.9,2.8-6.9,5.1v107c0,3,4.9,5.5,11,5.5s11-2.5,11-5.5v-107C207,125.2,204.1,123.2,200.1,122.4z"/>
		<path opacity="0.2" d="M196,133c-6.1,0-11-2.5-11-5.5v107c0,3,4.9,5.5,11,5.5s11-2.5,11-5.5v-107C207,130.5,202,133,196,133z"/>
		<ellipse fill="#2D3134" cx="196" cy="62.6" rx="4" ry="2.6"/>
	</g>
	<g>
		<path fill="#999999" d="M260.4,271L260.4,271c-1.5-1.1-3.3-2-5.4-3l-30.7-15.1l0,0c-3.1-1.7-5.7-2.9-9.1-2.9
			c-8.4,0-15.2,6.6-15.2,15.1c0,5,2.6,9.5,6.1,11.9c2,1.4,3.2,1.9,4.8,2.7l30.7,15.1c3.1,1.4,5.8,2.7,9.2,2.7
			c8.4,0,15.1-6.5,15.1-14.9C266,277.6,264.1,273.8,260.4,271z"/>
		<path opacity="0.2" fill="#FFFFFF" d="M220.3,284c-3.5-2.4-6.1-7-6.1-11.9c0-8.4,6.8-15.1,15.2-15.1c2,0,3.6,0.4,5.3,1
			c-2.4-1.2-4.7-2-7.5-2c-8.4,0-15.2,6.6-15.2,15.1c0,5,2.6,9.5,6.1,11.9c2,1.4,3.2,1.9,4.8,2.7C222.9,285.7,222.4,285.4,220.3,284z
			"/>
		<path opacity="0.2" fill="#FFFFFF" d="M240.6,294c-3.5-2.4-6.1-7-6.1-11.9c0-8.4,6.8-15.1,15.2-15.1c2,0,3.6,0.4,5.3,1
			c-2.4-1.2-4.7-2-7.5-2c-8.4,0-15.2,6.6-15.2,15.1c0,5,2.6,9.5,6.1,11.9c2,1.4,3.2,1.9,4.8,2.7C243.2,295.7,242.6,295.4,240.6,294z
			"/>
		<path opacity="0.15" d="M250.9,293.5c-3.4,0-6.2-1.4-9.2-2.7l-30.7-15.1c-1.6-0.8-2.8-1.2-4.8-2.7c-3-2.1-5.4-5.8-6-9.9
			c-0.1,0.7-0.2,1.3-0.2,2c0,5,2.6,9.5,6.1,11.9c2,1.4,3.2,1.9,4.8,2.7l30.7,15.1c3.1,1.4,5.8,2.7,9.2,2.7c8.4,0,15.1-6.5,15.1-14.9
			c0-0.7-0.1-1.4-0.1-2.1C264.9,287.9,258.6,293.5,250.9,293.5z"/>
	</g>
</g>
</svg>
