<?xml version="1.0" encoding="utf-8"?>
<!-- Generator: Adobe Illustrator 18.1.0, SVG Export Plug-In . SVG Version: 6.00 Build 0)  -->
<svg version="1.1" id="Layer_1" xmlns="http://www.w3.org/2000/svg" xmlns:xlink="http://www.w3.org/1999/xlink" x="0px" y="0px"
	 viewBox="0 0 80 56" enable-background="new 0 0 80 56" xml:space="preserve">
<g>
	<g>
		<polygon fill="#539B00" points="16,1 2,8 2,23 64,54 78,47 78,32 		"/>
		<polygon opacity="0.11" points="2,8 2,23 64,54 64,39 		"/>
		<polygon opacity="0.29" points="78,32 78,47 64,54 64,39 		"/>
	</g>
	<polygon opacity="0.15" points="76,46 72,48 72,37 76,35 	"/>
	<polygon opacity="0.15" points="70,49 66,51 66,40 70,38 	"/>
	<polygon opacity="0.15" points="5,11.5 4,11 4,22 5,22.5 	"/>
	<polygon opacity="0.15" points="7,12.5 6,12 6,23 7,23.5 	"/>
	<polygon opacity="0.15" points="9,13.5 8,13 8,24 9,24.5 	"/>
	<polygon opacity="0.15" points="11,14.5 10,14 10,25 11,25.5 	"/>
	<polygon opacity="0.15" points="13,15.5 12,15 12,26 13,26.5 	"/>
	<polygon opacity="0.15" points="15,16.5 14,16 14,27 15,27.5 	"/>
	<polygon opacity="0.15" points="17,17.5 16,17 16,28 17,28.5 	"/>
	<polygon opacity="0.15" points="19,18.5 18,18 18,29 19,29.5 	"/>
	<polygon opacity="0.15" points="21,19.5 20,19 20,30 21,30.5 	"/>
	<polygon opacity="0.15" points="23,20.5 22,20 22,31 23,31.5 	"/>
	<polygon opacity="0.15" points="25,21.5 24,21 24,32 25,32.5 	"/>
	<polygon opacity="0.15" points="27,22.5 26,22 26,33 27,33.5 	"/>
	<polygon opacity="0.15" points="29,23.5 28,23 28,34 29,34.5 	"/>
	<polygon opacity="0.15" points="31,24.5 30,24 30,35 31,35.5 	"/>
	<polygon opacity="0.15" points="33,25.5 32,25 32,36 33,36.5 	"/>
	<polygon opacity="0.15" points="35,26.5 34,26 34,37 35,37.5 	"/>
	<polygon opacity="0.15" points="37,27.5 36,27 36,38 37,38.5 	"/>
	<polygon opacity="0.15" points="39,28.5 38,28 38,39 39,39.5 	"/>
	<polygon opacity="0.15" points="41,29.5 40,29 40,40 41,40.5 	"/>
	<polygon opacity="0.15" points="43,30.5 42,30 42,41 43,41.5 	"/>
	<polygon opacity="0.15" points="45,31.5 44,31 44,42 45,42.5 	"/>
	<polygon opacity="0.15" points="47,32.5 46,32 46,43 47,43.5 	"/>
	<polygon opacity="0.15" points="49,33.5 48,33 48,44 49,44.5 	"/>
	<polygon opacity="0.15" points="51,34.5 50,34 50,45 51,45.5 	"/>
	<polygon opacity="0.15" points="53,35.5 52,35 52,46 53,46.5 	"/>
	<polygon opacity="0.15" points="55,36.5 54,36 54,47 55,47.5 	"/>
	<polygon opacity="0.15" points="57,37.5 56,37 56,48 57,48.5 	"/>
	<polygon opacity="0.15" points="59,38.5 58,38 58,49 59,49.5 	"/>
	<polygon opacity="0.15" points="61,39.5 60,39 60,50 61,50.5 	"/>
	<polygon opacity="0.15" points="63,40.5 62,40 62,51 63,51.5 	"/>
</g>
</svg>
