<svg enable-background="new 0 0 32 32" viewBox="0 0 32 32" xmlns="http://www.w3.org/2000/svg"><path d="m10 5-2-1-2 1v18l2 1 2-1z" fill="#baa794"/><path d="m8 24 2-1v-18l-2 1z" opacity=".29"/><path d="m8 24-2-1v-18l2 1z" opacity=".11"/><path d="m21 17.5 3 1.5 1-.5-4-2v-.5l-.5-3-.5 2.5v.5l-1-.5v-.5l-.5-3-.5 2.5v.5l-1-.5v-.5l-.5-3-.5 2.5v.5l-1-.5v-.5l-.5-3-.5 2.5v.5l-1-.5v-.5l-.5-3-.5 2.5v.5l-1-.5v-.5l-.5-3-.5 2.5v.5l-1 .5 1 .5v2l-1 .5 1 .5v9.5l1 .5v-9.5l1 .5v9.5l1 .5v-9.5l1 .5v9.5l1 .5v-9.5l1 .5v9.5l1 .5v-9.5l1 .5v9.5l1 .5v-9.5l1 .5v9.5l1 .5v-9.5l3 1.5 1-.5-4-2zm-10-3v-2l1 .5v2zm2 1v-2l1 .5v2zm2 1v-2l1 .5v2zm2 1v-2l1 .5v2zm2 1v-2l1 .5v2z" fill="#2d3134"/><path d="m26 13-2-1-2 1v18l2 1 2-1z" fill="#baa794"/><path d="m24 32 2-1v-18l-2 1z" opacity=".29"/><path d="m24 32-2-1v-18l2 1z" opacity=".11"/></svg>