<svg enable-background="new 0 0 80 56" viewBox="0 0 80 56" xmlns="http://www.w3.org/2000/svg"><path d="m70 5 2-1 2 1v18l-2 1-2-1z" fill="#baa794"/><path d="m72 24-2-1v-18l2 1z" opacity=".11"/><path d="m72 24 2-1v-18l-2 1z" opacity=".29"/><path d="m70 14v-2l1-.5-1-.5v-.5l-.5-2.5-.5 3v.5l-1 .5v-.5l-.5-2.5-.5 3v.5l-1 .5v-.5l-.5-2.5-.5 3v.5l-1 .5v-.5l-.5-2.5-.5 3v.5l-1 .5v-.5l-.5-2.5-.5 3v.5l-1 .5v-.5l-.5-2.5-.5 3v.5l-1 .5v-.5l-.5-2.5-.5 3v.5l-1 .5v-.5l-.5-2.5-.5 3v.5l-1 .5v-.5l-.5-2.5-.5 3v.5l-1 .5v-.5l-.5-2.5-.5 3v.5l-1 .5v-.5l-.5-2.5-.5 3v.5l-1 .5v-.5l-.5-2.5-.5 3v.5l-1 .5v-.5l-.5-2.5-.5 3v.5l-1 .5v-.5l-.5-2.5-.5 3v.5l-1 .5v-.5l-.5-2.5-.5 3v.5l-1 .5v-.5l-.5-2.5-.5 3v.5l-1 .5v-.5l-.5-2.5-.5 3v.5l-1 .5v-.5l-.5-2.5-.5 3v.5l-1 .5v-.5l-.5-2.5-.5 3v.5l-1 .5v-.5l-.5-2.5-.5 3v.5l-1 .5v-.5l-.5-2.5-.5 3v.5l-1 .5v-.5l-.5-2.5-.5 3v.5l-1 .5v-.5l-.5-2.5-.5 3v.5l-1 .5v-.5l-.5-2.5-.5 3v.5l-1 .5v-.5l-.5-2.5-.5 3v.5l-1 .5v-.5l-.5-2.5-.5 3v.5l-1 .5v-.5l-.5-2.5-.5 3v.5l-1 .5v-.5l-.5-2.5-.5 3v.5l-1 .5v-.5l-.5-2.5-.5 3v.5l-1 .5v-.5l-.5-2.5-.5 3v.5l-4 2 1 .5 3-1.5v2l-4 2 1 .5 3-1.5v9.5l1-.5v-9.5l1-.5v9.5l1-.5v-9.5l1-.5v9.5l1-.5v-9.5l1-.5v9.5l1-.5v-9.5l1-.5v9.5l1-.5v-9.5l1-.5v9.5l1-.5v-9.5l1-.5v9.5l1-.5v-9.5l1-.5v9.5l1-.5v-9.5l1-.5v9.5l1-.5v-9.5l1-.5v9.5l1-.5v-9.5l1-.5v9.5l1-.5v-9.5l1-.5v9.5l1-.5v-9.5l1-.5v9.5l1-.5v-9.5l1-.5v9.5l1-.5v-9.5l1-.5v9.5l1-.5v-9.5l1-.5v9.5l1-.5v-9.5l1-.5v9.5l1-.5v-9.5l1-.5v9.5l1-.5v-9.5l1-.5v9.5l1-.5v-9.5l1-.5v9.5l1-.5v-9.5l1-.5v9.5l1-.5v-9.5l1-.5v9.5l1-.5v-9.5l1-.5v9.5l1-.5v-9.5l1-.5v9.5l1-.5v-9.5l1-.5v9.5l1-.5v-9.5l1-.5v9.5l1-.5v-9.5l1-.5v9.5l1-.5v-9.5l1-.5v9.5l1-.5v-9.5l1-.5v9.5l1-.5v-9.5l1-.5v9.5l1-.5v-9.5l1-.5zm-58 29v-2l1-.5v2zm2-1v-2l1-.5v2zm2-1v-2l1-.5v2zm2-1v-2l1-.5v2zm2-1v-2l1-.5v2zm2-1v-2l1-.5v2zm2-1v-2l1-.5v2zm2-1v-2l1-.5v2zm2-1v-2l1-.5v2zm2-1v-2l1-.5v2zm2-1v-2l1-.5v2zm2-1v-2l1-.5v2zm2-1v-2l1-.5v2zm2-1v-2l1-.5v2zm2-1v-2l1-.5v2zm2-1v-2l1-.5v2zm2-1v-2l1-.5v2zm2-1v-2l1-.5v2zm2-1v-2l1-.5v2zm2-1v-2l1-.5v2zm2-1v-2l1-.5v2zm2-1v-2l1-.5v2zm2-1v-2l1-.5v2zm2-1v-2l1-.5v2zm2-1v-2l1-.5v2zm2-1v-2l1-.5v2zm2-1v-2l1-.5v2zm2-1v-2l1-.5v2zm2-1v-2l1-.5v2z" fill="#2d3134"/><path d="m6 37 2-1 2 1v18l-2 1-2-1z" fill="#baa794"/><path d="m8 56-2-1v-18l2 1z" opacity=".11"/><path d="m8 56 2-1v-18l-2 1z" opacity=".29"/></svg>