<svg enable-background="new 0 0 16 48" viewBox="0 0 16 48" xmlns="http://www.w3.org/2000/svg"><g fill="#999"><ellipse cx="8" cy="34.3" rx="1.5" ry=".8"/><path d="m8 7 4-2-4-4-4 4z"/><path d="m9 10.7h-2v23.5c0 .3.4.5 1 .5s1-.2 1-.5c0-.1 0-23.5 0-23.5z"/></g><path d="m9 10.7h-2v23.5c0 .3.4.5 1 .5s1-.2 1-.5c0-.1 0-23.5 0-23.5z" opacity=".2"/><path d="m8 35c-.8 0-1.5-.3-1.5-.8v10c0 .5.7.8 1.5.8s1.5-.3 1.5-.8c0-.1 0-5.6 0-10 0 .5-.7.8-1.5.8z" fill="#999"/><path d="m8 35c-.8 0-1.5-.3-1.5-.8v10c0 .5.7.8 1.5.8s1.5-.3 1.5-.8c0-.1 0-5.6 0-10 0 .5-.7.8-1.5.8z" opacity=".2"/><path d="m8 7-4-2 2 7 2 1 2-1 2-7z" fill="#999"/><path d="m8.5 7.3 2.7-1.3-1.6 5.7-1.1.5z" fill="#fc0"/><path d="m9 7 2.2-1-1.6 5.7z" opacity=".15"/><path d="m6.4 11.7-1.6-5.7 2.7 1.3v4.9z" fill="#fc0"/><path d="m6.4 11.7-1.6-5.7 2.7 6.2z" fill="#fff" opacity=".2"/><path d="m8 13 2-1 2-7-4 2z" opacity=".39"/><path d="m8 13-2-1-2-7 4 2z" opacity=".06"/><circle cx="8" cy="1" fill="#999" r="1"/></svg>