<svg enable-background="new 0 0 32 24" viewBox="0 0 32 24" xmlns="http://www.w3.org/2000/svg"><path d="m2.8 17.7-1.4-.7-1.4.7v2.1l1.4.7 1.4-.7z" fill="#825012"/><path d="m0 17.7 1.4.7v2.1l-1.4-.7z" opacity=".11"/><path d="m2.8 17.7-1.4.7v2.1l1.4-.7z" opacity=".39"/><path d="m9.8 21.2-1.4-.7-1.4.7v2.1l1.4.7 1.4-.7z" fill="#825012"/><path d="m7 21.2 1.4.7v2.1l-1.4-.7z" opacity=".11"/><path d="m9.8 21.2-1.4.7v2.1l1.4-.7z" opacity=".39"/><path d="m27.3 12.4-1.4-.6-1.4.6v2.2l1.4.7 1.4-.7z" fill="#825012"/><path d="m24.5 12.4 1.4.7v2.2l-1.4-.7z" opacity=".11"/><path d="m27.3 12.4-1.4.7v2.2l1.4-.7z" opacity=".39"/><path d="m19.6 7.9-.7-.3-18.9 9.4v1.4l.7.4 18.9-9.5z" fill="#825012"/><path d="m0 17 .7.4v1.4l-.7-.4z" opacity=".11"/><path d="m19.6 7.9-18.9 9.5v1.4l18.9-9.5z" opacity=".39"/><path d="m9.4 20.5-6.9-3.5-1.5.7v.7l7.1 3.5 1.3-.7z" fill="#825012"/><path d="m1 17.7 7.1 3.5v.7l-7.1-3.5z" opacity=".11"/><path d="m11.6 19.5-7-3.6-1.4.7v.8l6.9 3.5 1.5-.8z" fill="#825012"/><path d="m3.2 16.6 6.9 3.5v.8l-6.9-3.5z" opacity=".11"/><path d="m13.6 18.4-6.9-3.5-1.4.7v.7l7 3.5 1.3-.7z" fill="#825012"/><path d="m5.3 15.6 7 3.5v.7l-7-3.5z" opacity=".11"/><path d="m15.8 17.4-7-3.5-1.5.7v.7l7.1 3.5 1.4-.8z" fill="#825012"/><path d="m7.3 14.6 7.1 3.4v.8l-7.1-3.5z" opacity=".11"/><path d="m17.9 16.3-7-3.5-1.5.7v.7l7.1 3.5 1.4-.7z" fill="#825012"/><path d="m9.4 13.5 7.1 3.5v.7l-7.1-3.5z" opacity=".11"/><path d="m20 15.3-7.1-3.5-1.3.6v.7l6.9 3.5 1.5-.7z" fill="#825012"/><path d="m11.6 12.4 6.9 3.5v.7l-6.9-3.5z" opacity=".11"/><path d="m26.6 11.8-7-3.5-.7.3v.7l7 3.5.7-.4z" fill="#825012"/><path d="m18.9 8.6 7 3.5v.7l-7-3.5z" opacity=".11"/><path d="m26.6 11.8-.7.3v.7l.7-.4z" opacity=".39"/><path d="m21 4.1-.7-.4-7.4 7.4v.7l.7.3 7.4-7.3z" fill="#825012"/><path d="m12.9 11.1.7.3v.7l-.7-.3z" opacity=".11"/><path d="m21 4.1-7.4 7.3v.7l7.4-7.3z" opacity=".39"/><path d="m27.6 7.9-7-3.5-.6.7v.7l7 3.5.6-.7z" fill="#825012"/><path d="m20 5.1 7 3.5v.7l-7-3.5z" opacity=".11"/><path d="m26.6 8.9-7-3.5-.7.8v.6l7 3.6.7-.8z" fill="#825012"/><path d="m18.9 6.2 7 3.4v.8l-7-3.6z" opacity=".11"/><path d="m25.5 10-7-3.5-.6.7v.7l7 3.5.6-.7z" fill="#825012"/><path d="m17.9 7.2 7 3.5v.7l-7-3.5z" opacity=".11"/><path d="m24.5 11.1-7-3.5-.7.7v.6l7 3.5.7-.6z" fill="#825012"/><path d="m16.8 8.3 7 3.5v.6l-7-3.5z" opacity=".11"/><path d="m23.5 12.1-7-3.5-.7.7v.7l7 3.5.7-.7z" fill="#825012"/><path d="m15.8 9.3 7 3.5v.7l-7-3.5z" opacity=".11"/><path d="m22.4 13.1-7-3.5-.7.8v.7l7 3.5.7-.7z" fill="#825012"/><path d="m14.7 10.4 7 3.5v.7l-7-3.5z" opacity=".11"/><path d="m21.4 14.2-7-3.5-.8.7v.7l7 3.5.8-.7z" fill="#825012"/><path d="m13.6 11.4 7 3.5v.7l-7-3.5z" opacity=".11"/><path d="m28 7.6-.7-.4-7.3 7.4v.7l.6.3 7.4-7.3z" fill="#825012"/><path d="m20 14.6.6.3v.7l-.6-.3z" opacity=".11"/><path d="m28 7.6-7.4 7.3v.7l7.4-7.3z" opacity=".39"/><path d="m27.3 11.8-.7-.4-18.9 9.5v1.4l.7.3 18.9-9.5z" fill="#825012"/><path d="m7.7 20.9.7.3v1.4l-.7-.3z" opacity=".11"/><path d="m27.3 11.8-18.9 9.4v1.4l18.9-9.5z" opacity=".39"/></svg>