<svg enable-background="new 0 0 64 40" viewBox="0 0 64 40" xmlns="http://www.w3.org/2000/svg"><path d="m32 4-32 16v4l32 16 32-16v-4z" fill="#e5e5e5"/><path d="m0 20 32 16v4l-32-16z" opacity=".11"/><path d="m64 20v4l-32 16v-4z" opacity=".29"/><path d="m5 20.5 27 13.5 27-13.5-27-13.5z" fill="#39c"/><path d="m8 22 24 12 24-12-24-12z" fill="#999" opacity=".2"/><path d="m32 10v-4l-28 14 4 2z" opacity=".29"/><path d="m32 10 24 12 4-2-28-14z" opacity=".11"/><path d="m32 17-4 2v4l4 2 4-2v-4z" fill="#39c"/><path d="m32 17-4 2v4l4 2 4-2v-4z" fill="#656565"/><path d="m28 19 4 2v4l-4-2z" opacity=".11"/><path d="m36 19v4l-4 2v-4z" opacity=".29"/><path d="m28 21 4 2v4l-4-2z" fill="#39c" opacity=".4"/><path d="m36 21v4l-4 2v-4z" fill="#39c" opacity=".4"/><g fill="#539b00"><path d="m29.5 15.6c0 .7-1.2 1.3-2.6 1.3s-2.6-.6-2.6-1.3 1.2-1.3 2.6-1.3c.6 0 .9.5.8 1 .7-.8 1.8-.1 1.8.3z"/><path d="m28.8 18.3c0 .4-1.3 1-1.9.2 0 .8-.7 1-1.3 1-1.5 0-2.1-.5-2.1-1.2s1.2-1.3 2.6-1.3 2.7.6 2.7 1.3z"/><ellipse cx="22.7" cy="20.9" rx="2.5" ry="1.4"/><ellipse cx="22.9" cy="25.3" rx="1.5" ry=".8"/><ellipse cx="22.5" cy="16.5" rx="1.5" ry=".8"/><ellipse cx="29.9" cy="13.2" rx="1.5" ry=".8"/><ellipse cx="15.9" cy="23.9" rx="1.5" ry=".8"/><ellipse cx="21" cy="23.4" rx="2.1" ry="1"/><ellipse cx="23.4" cy="27.2" rx=".8" ry=".4"/><ellipse cx="19.2" cy="25.4" rx=".8" ry=".4"/><ellipse cx="31.6" cy="15.3" rx=".8" ry=".4"/><ellipse cx="25.7" cy="28.7" rx=".6" ry=".2"/><ellipse cx="32.7" cy="13.3" rx=".6" ry=".2"/><ellipse cx="26.4" cy="26.8" rx=".8" ry=".3"/><path d="m24.6 17.7c-.1-.1-1.4-.4-1.7-.3s-2.2.2-2.7.2-1.2.3-1.4.8c-.2.4-.1.8.6 1.4.7.5 1.3.3 1.7.5s.7.6 1.7.5 1.8-.4 2-.5c.4-.3.2-.3-.1-.2-.2.1-1-.3-1.3-.6-.3-.2-.6-.3-.5-.4s.1 0 .2.1c.2.2.7.4 1 .5s.4 0 .6 0 .8.1.6-.1-.1-.5-.1-.9-.1-.8-.6-1z"/></g><path d="m20.8 18c.3 0 1.2-.1 1.4-.2s.5-.1.7-.1.6.1.6.1c.2.1.3.2.4.4v.2.1.1.2c0 .1-.2 0-.4 0-.1 0-.2 0-.3 0h-.1c-.1 0-.3-.1-.4-.2-.1 0-.1 0-.2 0-.1-.1-.1-.1-.1 0s.1.2.2.3.1.2.3.2c.2.1.3.2.4.2h.1c.1 0 .1.1 0 .2s-.3.1-.6.2c-.2 0-.3.1-.5.1-.5 0-.6-.2-.8-.3-.1 0-.1-.1-.2-.1s-.3 0-.4 0c-.2 0-.3 0-.5-.2-.3-.1-.4-.2-.4-.3 0 0 0 0 0-.1 0-.2.1-.4.2-.5.1-.2.3-.3.6-.3z" opacity=".3"/><path d="m23.6 16.7c-.1 0-1.1.6-1.2 1.7-.1.4.4.2.4.2s.8-.5.9-.9 0-1-.1-1z" fill="#fff"/><path d="m22.3 18.7s0-.3 0-.6 0-.7.1-.8c.1-.2.2-.3.2-.5.1-.1.1-.3.2-.3s.2.2.3.5.1.7-.1 1-.3.5-.4.6c0 .3-.1.3-.3.1z" fill="#fff"/><path d="m22.3 18.7s0-.3 0-.6 0-.7.1-.8c.1-.2.2-.3.2-.5.1-.1.1-.3.2-.3s.2.2.3.5.1.7-.1 1-.3.5-.4.6c0 .3-.1.3-.3.1z" fill="#d9c5e0" opacity=".2"/><path d="m20.4 19s1.2.3 2.1-.3c.3-.2-.2-.4-.2-.4s-.9-.2-1.3 0c-.3.3-.5.4-.6.7z" fill="#fff"/><path d="m21.9 18.6s-1.3-1-1.2-1.4c.1-.5 1.5.6 1.6.9.2.3-.4.5-.4.5z" fill="#fff"/><path d="m23.4 18.6s.8-.7 1-1.2-1.7.6-1.6.9.6.3.6.3z" fill="#fff"/><path d="m20.4 19s1.2.3 2.1-.3c.3-.2-.2-.4-.2-.4s-.9-.2-1.3 0c-.3.3-.5.4-.6.7z" fill="#d9c5e0" opacity=".2"/><path d="m23.4 18.6s.8-.7 1-1.2-1.7.6-1.6.9.6.3.6.3z" fill="#d9c5e0" opacity=".2"/><path d="m22 18.3s-.7-.8-.3-1.7c0 0 .7.3.7 1.5z" fill="#fff"/><path d="m22 18.3s-.7-.8-.3-1.7c0 0 .7.3.7 1.5z" fill="#d9c5e0" opacity=".2"/><path d="m22.3 16.8c.1 0 .3.4.4.9s.2 1-.1 1.2-.5 0-.5-.3c-.1-.3-.1-.6-.1-.8.1-.2.2-1 .3-1z" fill="#fff"/><path d="m22.6 18.7-.1-.2c.2-.2.4-.3.6-.4s.3-.1.4-.2c.2-.1.3 0 .4 0-.1.1-.2.2-.4.3-.1 0-.2.1-.3.1-.3.1-.4.2-.6.4z" fill="#fff"/><path d="m23.7 17.9c-.1.1-.2.2-.4.3 0 0-.1 0-.2 0s-.1 0-.2.1c0 0-.1.1-.1.1-.1.1-.2.1-.3.2s-.1-.1-.1-.1c.1-.1.2-.1.3-.2s.2-.1.3-.2.3-.1.4-.2z" fill="#fff"/><path d="m22.2 18.7.1-.2c-.2-.2-.3-.4-.5-.5-.1-.1-.3-.2-.3-.3-.2-.1-.3-.1-.3-.1.1.1.2.2.3.4.1 0 .2.1.3.2 0 .1.2.3.4.5z" fill="#fff"/><path d="m22.7 18.8c-.1 0-.1-.1 0 0 .1 0 .2 0 .3-.1h.3.3.3s0 0-.1.1h-.1c-.1 0-.1 0-.3 0-.1 0-.2 0-.3 0s-.3 0-.4 0z" fill="#fff"/><path d="m22.7 18.6s.1.2.1.5c.1.2.1.5 0 .7-.2.3-.2.6-.3.6s-.2-.1-.4-.4c-.1-.2-.2-.5-.1-.8.1-.2.2-.4.2-.6.2-.1.3-.1.5 0z" fill="#fff"/><path d="m24.5 19.4s-.5 0-1-.1-.9-.3-.9-.5c0-.3.2-.3.5-.3s.6.2.7.3.3.2.4.4c.2 0 .4.1.3.2z" fill="#fff"/><path d="m19.2 19.6c-.2-.1-1.5-.5-1.8-.4s-2.4.3-3 .3-1.3.3-1.6.8c-.2.4-.1.9.6 1.5.8.6 1.4.3 1.9.5s.8.6 1.9.6c1.1-.1 2-.4 2.2-.6.5-.3.2-.4-.1-.3s-1.1-.3-1.5-.6c-.3-.3-.7-.3-.6-.5.1-.1.1 0 .2.1.2.2.8.4 1.1.5s.4 0 .7 0 .9.1.7-.1-.1-.6-.1-1c.1-.1 0-.5-.6-.8z" fill="#539b00"/><path d="m15 19.9c.3 0 1.3-.1 1.5-.2s.5-.1.8-.1c.2 0 .6.1.7.1.3.1.4.2.4.4v.2.1.1.2c0 .1-.3 0-.4 0s-.2 0-.3 0h-.1c-.1 0-.3-.1-.5-.2-.1 0-.1 0-.2 0-.1-.1-.1-.1-.1 0s.1.2.3.3c.1.1.1.2.3.3s.3.2.4.3h.1c.1 0 .1.1 0 .2s-.3.2-.6.2c-.3.2-.5.2-.7.2-.5 0-.7-.2-.9-.4-.1 0-.2-.1-.3-.1s-.3 0-.4 0c-.2 0-.4-.1-.6-.2s-.3-.2-.4-.4v-.1c-.1-.2.1-.4.2-.6.2-.1.5-.2.8-.3z" opacity=".3"/><path d="m15.6 18.5c.1 0 1.2.7 1.4 1.9.1.5-.5.2-.5.2s-.8-.6-1-1c-.1-.4 0-1 .1-1.1z" fill="#fff"/><path d="m17 20.8s0-.3 0-.7 0-.7-.1-.9-.2-.4-.3-.5c-.1-.2-.1-.3-.2-.3s-.2.2-.3.6c-.1.3-.1.8.1 1.1s.3.6.4.7.2.2.4 0z" fill="#fff"/><path d="m17 20.8s0-.3 0-.7 0-.7-.1-.9-.2-.4-.3-.5c-.1-.2-.1-.3-.2-.3s-.2.2-.3.6c-.1.3-.1.8.1 1.1s.3.6.4.7.2.2.4 0z" fill="#d9c5e0" opacity=".2"/><path d="m19.1 21.1s-1.4.3-2.3-.3c-.4-.2.2-.4.2-.4s1-.2 1.4 0c.3.2.6.4.7.7z" fill="#fff"/><path d="m17.5 20.6s1.4-1.1 1.3-1.6-1.7.7-1.8 1c-.2.4.5.6.5.6z" fill="#fff"/><path d="m15.8 20.7s-.9-.8-1.1-1.4c-.2-.5 1.9.7 1.8 1-.1.4-.7.4-.7.4z" fill="#fff"/><path d="m19.1 21.1s-1.4.3-2.3-.3c-.4-.2.2-.4.2-.4s1-.2 1.4 0c.3.2.6.4.7.7z" fill="#d9c5e0" opacity=".2"/><path d="m15.8 20.7s-.9-.8-1.1-1.4c-.2-.5 1.9.7 1.8 1-.1.4-.7.4-.7.4z" fill="#d9c5e0" opacity=".2"/><path d="m17.3 20.3s.8-.9.3-1.8c0 0-.8.3-.7 1.6z" fill="#fff"/><path d="m17.3 20.3s.8-.9.3-1.8c0 0-.8.3-.7 1.6z" fill="#d9c5e0" opacity=".2"/><path d="m17 18.7c-.1 0-.3.5-.4 1s-.2 1.1.1 1.3.5 0 .6-.3.1-.7.1-.8c-.2-.3-.3-1.3-.4-1.2z" fill="#fff"/><path d="m16.7 20.7.1-.2c-.2-.2-.5-.4-.6-.5-.2-.1-.3-.2-.4-.2-.2-.1-.4 0-.4 0 .1.1.3.2.4.3.1 0 .2.1.4.1.1.2.3.3.5.5z" fill="#fff"/><path d="m15.4 19.9c.1.1.3.2.4.3.1 0 .1 0 .2.1.1 0 .1 0 .2.1 0 0 .1.1.2.1.1.1.2.1.4.3s.1-.2.1-.2c-.1-.1-.2-.2-.3-.2-.1-.1-.2-.2-.3-.2-.2-.1-.3-.1-.4-.2-.3-.2-.4-.1-.5-.1z" fill="#fff"/><path d="m17.2 20.7-.2-.2c.2-.3.4-.4.5-.6.1-.1.3-.2.4-.3.2-.1.3-.1.4-.1-.1.1-.2.3-.3.4-.1 0-.2.1-.3.2-.2.3-.4.4-.5.6z" fill="#fff"/><path d="m16.6 20.8c-.1 0-.2-.1-.3-.1s-.3 0-.3 0c-.1 0-.2 0-.3 0s-.2 0-.3 0c0 0 0 0 .1.1 0 0 .1 0 .1.1h.3.4s.1 0 .3-.1z" fill="#fff"/><path d="m16.6 20.6s-.1.2-.1.5c-.1.3-.1.6 0 .7.2.3.2.6.3.7.1 0 .3-.1.4-.4s.2-.6.1-.9c-.2-.2-.3-.4-.3-.5-.1-.1-.3-.2-.4-.1z" fill="#fff"/><path d="m14.5 21.5s.6 0 1.1-.1 1-.3 1-.6-.3-.3-.6-.3c-.3.1-.6.2-.7.3s-.3.2-.5.4c-.1.1-.3.3-.3.3z" fill="#fff"/></svg>