<svg enable-background="new 0 0 16 48" viewBox="0 0 16 48" xmlns="http://www.w3.org/2000/svg"><ellipse cx="8" cy="34.3" fill="#999" rx="1.5" ry=".8"/><path d="m9 10.7h-2v23.5c0 .3.4.5 1 .5s1-.2 1-.5c0-.1 0-23.5 0-23.5z" fill="#999"/><path d="m9 10.7h-2v23.5c0 .3.4.5 1 .5s1-.2 1-.5c0-.1 0-23.5 0-23.5z" opacity=".2"/><path d="m8 35c-.8 0-1.5-.3-1.5-.8v10c0 .5.7.8 1.5.8s1.5-.3 1.5-.8c0-.1 0-5.6 0-10 0 .5-.7.8-1.5.8z" fill="#999"/><path d="m8 35c-.8 0-1.5-.3-1.5-.8v10c0 .5.7.8 1.5.8s1.5-.3 1.5-.8c0-.1 0-5.6 0-10 0 .5-.7.8-1.5.8z" opacity=".2"/><path d="m9 0 2 1v13l-4 2-2-1v-13z" fill="#656565"/><path d="m5 15 2 1v-13l-2-1z" opacity=".11"/><path d="m7.5 9.4c0 .8.7 1.2 1.5.8s1.5-1.4 1.5-2.2-.7-1.2-1.5-.8-1.5 1.4-1.5 2.2z" fill="#fc0" opacity=".7"/><path d="m7.5 13.4c0 .8.7 1.2 1.5.8s1.5-1.4 1.5-2.2-.7-1.2-1.5-.8-1.5 1.4-1.5 2.2z" fill="#9c3" opacity=".7"/><path d="m11 14-4 2v-13l4-2z" opacity=".29"/><path d="m7.5 5.6c0 .8.7 1.2 1.5.8s1.5-1.4 1.5-2.2-.7-1.3-1.5-.9-1.5 1.4-1.5 2.3z" fill="#cc291f"/></svg>