<svg enable-background="new 0 0 72 72" viewBox="0 0 72 72" xmlns="http://www.w3.org/2000/svg"><path d="m70 32v2l-28-14v-2l2-1 26 13z" fill="#825012"/><path d="m70 32v2l-28-14v-2z" opacity=".11"/><path d="m12 31v2l28-14v-2l-2-1-26 13z" fill="#825012"/><path d="m12 31v2l28-14v-2z" opacity=".29"/><path d="m72 56-32-16-32 16 8 12 8-4 16 8z" opacity=".2"/><path d="m70 57-2-1v-14l2 1z" fill="#825012"/><path d="m70 57-2-1v-14l2 1z" opacity=".11"/><path d="m10 42v15l2-1v-15z" fill="#825012"/><path d="m39 57.5-30-15v-2l30 15z" opacity=".4"/><path d="m10 42v15l2-1v-15z" opacity=".29"/><path d="m40 24 32 16v2l-32 16-32-16v-2z" fill="#825012"/><path d="m72 40v2l-32 16v-2z" opacity=".29"/><path d="m8 40 32 16v2l-32-16z" opacity=".11"/><path d="m10 27-2 1v28l2 1v-16l2-1v-12z" fill="#825012"/><path d="m10 29-2-1v28l2 1z" opacity=".11"/><path d="m44 50-24-12v-24l24 12z" fill="#e5e5e5"/><path d="m32 27-10-5v17l10 5z" fill="#fff"/><path d="m31 43.5-8-4v-16l8 4z" fill="#825012"/><path d="m31 37.5-8-14 8 4z" opacity=".15"/><path d="m24 39v-15l-1-.5v16l8 4v-1z" opacity=".3"/><path d="m64 40-20 10v-24l20-10z" fill="#e5e5e5"/><path d="m62 24-16 8v9l16-8z" fill="#fff"/><path d="m61 32.5-14 7v-7l14-7z" fill="#39c"/><path d="m61 32.5-14 7v-1l14-7z" opacity=".3"/><path d="m64 40-20 10v-24l20-10z" opacity=".29"/><path d="m42 32-8-4v9l8 4z" fill="#fff"/><path d="m41 39.5-6-3v-7l6 3z" fill="#39c"/><path d="m41 36.5-6-7 6 3z" opacity=".15"/><path d="m36 36v-6l-1-.5v7l6 3v-1z" opacity=".3"/><path d="m44 50-24-12v-24l24 12z" opacity=".11"/><path d="m42 71-2 1-2-1v-28l2-1 2 1z" fill="#825012"/><path d="m38 43 2 1v28l-2-1z" opacity=".11"/><path d="m42 71-2 1v-28l2-1z" opacity=".29"/><path d="m30 49-2 1-2-1v-12l2-1 2 1z" fill="#825012"/><path d="m26 37 2 1v12l-2-1z" opacity=".11"/><path d="m30 49-2 1v-12l2-1z" opacity=".29"/><path d="m40 4 26 13v2l-22 11-26-13v-2z" fill="#825012"/><path d="m66 17v2l-22 11v-2z" opacity=".29"/><path d="m18 15 26 13v2l-26-13z" opacity=".11"/><path d="m10 29v12l2-1v-12z" opacity=".29"/><path d="m70 27 2 1v28l-2 1v-16l-2-1v-12z" fill="#825012"/><path d="m70 29 2-1v28l-2 1z" opacity=".29"/><path d="m70 29v12l-2-1v-12z" opacity=".11"/><path d="m42 46v2l28-14v-2l-2-1-26 13z" fill="#825012"/><path d="m42 46v2l28-14v-2z" opacity=".29"/><path d="m38 46v2l-10-5v-2l2-1 8 4z" fill="#825012"/><path d="m38 46v2l-10-5v-2z" opacity=".29"/><path d="m24 49v2l-8 17-2 1-12-6 10-20z" fill="#825012"/><path d="m14 69 2-1 8-17v-2z" opacity=".29"/><path d="m10 47 12 6 .3-.6-12-6z" opacity=".1"/><path d="m11 45 12 6 .3-.6-12-6z" opacity=".1"/><path d="m8 51 12 6 .3-.6-12-6z" opacity=".1"/><path d="m9 49 12 6 .3-.6-12-6z" opacity=".1"/><path d="m6 55 12 6 .3-.6-12-6z" opacity=".1"/><path d="m7 53 12 6 .3-.6-12-6z" opacity=".1"/><path d="m4 59 12 6 .3-.6-12-6z" opacity=".1"/><path d="m5 57 12 6 .3-.6-12-6z" opacity=".1"/><path d="m2 63 12 6 .3-.6-12-6z" opacity=".1"/><path d="m3 61 12 6 .3-.6-12-6z" opacity=".1"/></svg>