<svg enable-background="new 0 0 64 40" viewBox="0 0 64 40" xmlns="http://www.w3.org/2000/svg"><path d="m32 6-32 16v2l32 16 32-16v-2z" fill="#825012"/><path d="m0 22 32 16v2l-32-16z" opacity=".11"/><path d="m64 22v2l-32 16v-2z" opacity=".29"/><path d="m32 12v-4l-28 14 4 2z" opacity=".29"/><path d="m32 12 24 12 4-2-28-14z" opacity=".11"/><path d="m5 22.5 27 13.5 27-13.5-27-13.5z" fill="#fc0"/><path d="m22.5 19c-1 0-1.8.4-1.8.9l-.7 3.8c0 .7 1.1 1.3 2.5 1.3s2.5-.6 2.5-1.3l-.8-3.8c.1-.5-.7-.9-1.7-.9z" fill="#cc291f"/><path d="m22.5 20.7c-1 0-1.8-.4-1.8-.9l-.7 3.9c0 .7 1.1 1.3 2.5 1.3s2.5-.6 2.5-1.3l-.8-3.8c.1.5-.7.8-1.7.8z" opacity=".2"/><path d="m34 23.9c0 .6-.6 1.2-1.4 1.2s-1.4-.5-1.4-1.2" fill="#f90"/><path d="m34 23.9c0 .6-.6 1.2-1.4 1.2s-1.4-.5-1.4-1.2" opacity=".2"/><path d="m32.6 24.9c-.4 0-.8-.1-1.1-.3.2.3.6.4 1.1.3.5.1.9-.1 1.1-.3-.3.2-.7.3-1.1.3z" opacity=".11"/><ellipse cx="32.6" cy="23.8" fill="#f90" rx="1.4" ry=".7"/><ellipse cx="32.6" cy="23.8" fill="#202426" opacity=".5" rx="1.1" ry=".4"/><path d="m31.6 24.3-.2-.2-3.4 1.2v.2l1 .5 2.6-1.4z" fill="#f90"/><path d="m29 25.8v.2l2.6-1.4v-.3z" opacity=".29"/><path d="m29 25.8v.2l-1-.5v-.2z" opacity=".11"/><path d="m46.6 21.9c0 .6-1.2 1.1-2.8 1.1-1.5 0-2.8-.5-2.8-1.1s1.2-3.9 2.8-3.9c1.5 0 2.8 3.3 2.8 3.9z" opacity=".2"/><path d="m38.4 20.3c0 .4-.7.7-1.7.7s-1.7-.3-1.7-.7.7-2.3 1.7-2.3 1.7 2 1.7 2.3z" opacity=".2"/></svg>