<svg enable-background="new 0 0 24 16" viewBox="0 0 24 16" xmlns="http://www.w3.org/2000/svg"><path d="m5 6.5-4 2 14 7 4-2z" opacity=".3"/><path d="m5.8.7-1-.5c-.1-.1-.3-.1-.4 0l-3.5 1.8c-.6.2-.9.8-.9 1.4v4.6l1 .5 4.7-2.9z" fill="#e5e5e5"/><path d="m1 8.5v-4.6c0-.6.3-1.2.9-1.4l3.5-1.8c.3-.1.6.1.6.4v4.9z" fill="#e5e5e5"/><path d="m0 8 1 .5v-4.6l-1-.5z" opacity=".06"/><path d="m1 8.5v-4.6c0-.6.3-1.2.9-1.4l3.5-1.8c.3-.1.6.1.6.4v4.9z" opacity=".39"/><path d="m6 2.5-5 2.5v1l14 7v-1l5-2.5z" fill="#825012"/><path d="m15 12-14-7v1l14 7z" opacity=".06"/><path d="m16.2 11.4-14-7-.2.1 14 7z" opacity=".3"/><path d="m17.2 10.9-14-7-.2.1 14 7z" opacity=".3"/><path d="m18.2 10.4-14-7-.2.1 14 7z" opacity=".3"/><path d="m19.2 9.9-14-7-.2.1 14 7z" opacity=".3"/><path d="m20.8 8.2-1-.5c-.1-.1-.3-.1-.4 0l-3.5 1.8c-.5.3-.9.8-.9 1.4v4.6l1 .5 4.7-2.9z" fill="#e5e5e5"/><path d="m16 16v-4.6c0-.6.3-1.2.9-1.4l3.5-1.8c.3-.1.6.1.6.4v4.9z" fill="#e5e5e5"/><path d="m15 15.5 1 .5v-4.6l-1-.5z" opacity=".06"/><path d="m16 16v-4.6c0-.6.3-1.2.9-1.4l3.5-1.8c.3-.1.6.1.6.4v4.9z" opacity=".39"/></svg>