<svg enable-background="new 0 0 56 56" viewBox="0 0 56 56" xmlns="http://www.w3.org/2000/svg"><path d="m34 17-14.2 7.1.4.9 2.8-1.4v8h1v-8.5l1-.5v8h1v-8.5l1-.5v8.3h1v-8.8l1-.5v8.2h1v-8.7l1-.5v8.2h1v-8.7l2-1z" fill="#cc291f"/><path d="m34 17-14.2 7.1.4.9 2.8-1.4v8h1v-8.5l1-.5v8h1v-8.5l1-.5v8.3h1v-8.8l1-.5v8.2h1v-8.7l1-.5v8.2h1v-8.7l2-1z" opacity=".39"/><path d="m44 23-12-6v1.1l2 1v8.7h1v-8.2l1 .5v8.8h1v-8.3l1 .5v8.5h1v-8l1 .5v8.5h1v-8l1 .5v8.5h1v-8l1 .4z" fill="#cc291f"/><path d="m44 23-12-6v1.1l2 1v8.7h1v-8.2l1 .5v8.8h1v-8.3l1 .5v8.5h1v-8l1 .5v8.5h1v-8l1 .5v8.5h1v-8l1 .4z" opacity=".06"/><path d="m52 46-10 5-14-7-16 8-4-2 16-8-4-2 10-5z" opacity=".3"/><path d="m44 13-2 1v27l2 1 2-1v-27z" fill="#825012"/><path d="m46 41-2 1v-27l2-1z" opacity=".39"/><path d="m42 41 2 1v-27l-2-1z" opacity=".06"/><path d="m44 31-12-6-12 6v1l12 6 12-6z" fill="#825012"/><path d="m32 37v1l12-6v-1z" opacity=".39"/><path d="m32 37-12-6v1l12 6z" opacity=".06"/><path d="m52 33-2 1v11l2 1 2-1v-11z" fill="#825012"/><path d="m54 45-2 1v-11l2-1z" opacity=".39"/><path d="m50 45 2 1v-11l-2-1z" opacity=".06"/><path d="m52 40.9-9-13.4-.4.2v3l9 13.5.4-.2z" fill="#f90"/><path d="m51.6 41.1.4-.2v3.1l-.4.2z" opacity=".39"/><path d="m51.4 41.9c0 .1-.1.2-.2.1s-.2-.2-.2-.4.1-.2.2-.1c.1.2.2.3.2.4z" fill="#cc291f"/><path d="m43.2 30c0 .1-.1.2-.2.1s-.2-.2-.2-.4.1-.2.2-.1c.1.2.2.3.2.4z" fill="#cc291f"/><path d="m42.6 27.7v3l9 13.5v-3.1z" opacity=".06"/><path d="m52 35.3-9-13.4-.4.2v3l9 13.5.4-.2z" fill="#f90"/><path d="m51.6 35.5.4-.2v3.1l-.4.2z" opacity=".39"/><path d="m51.4 36.3c0 .1-.1.2-.2.1s-.2-.2-.2-.4c0-.1.1-.2.2-.1.1.2.2.3.2.4z" fill="#cc291f"/><path d="m43.2 24.4c0 .1-.1.2-.2.1s-.2-.2-.2-.4c0-.1.1-.2.2-.1.1.2.2.3.2.4z" fill="#cc291f"/><path d="m42.6 22.1v3l9 13.5v-3.1z" opacity=".06"/><path d="m34 38v1l2 1 9.6-4.8v-1l-2-1z" fill="#825012"/><path d="m36 39v1l9.6-4.8v-1z" opacity=".39"/><path d="m34 38v1l2 1v-1z" opacity=".06"/><path d="m36 41v1l2 1 9.6-4.8v-1l-2-1z" fill="#825012"/><path d="m38 42v1l9.6-4.8v-1z" opacity=".39"/><path d="m36 41v1l2 1v-1z" opacity=".06"/><path d="m38 44v1l2 1 9.6-4.8v-1l-2-1z" fill="#825012"/><path d="m40 45v1l9.6-4.8v-1z" opacity=".39"/><path d="m38 44v1l2 1v-1z" opacity=".06"/><path d="m40 47v1l2 1 9.6-4.8v-1l-2-1z" fill="#825012"/><path d="m42 48v1l9.6-4.8v-1z" opacity=".39"/><path d="m40 47v1l2 1v-1z" opacity=".06"/><path d="m42.4 45.7-9-13.4-.4.2v3l9 13.5.4-.2z" fill="#f90"/><path d="m42 45.9.4-.2v3.1l-.4.2z" opacity=".39"/><path d="m41.8 46.7c0 .1-.1.2-.2.1s-.2-.2-.2-.4c0-.1.1-.2.2-.1.1.2.2.3.2.4z" fill="#cc291f"/><path d="m33.6 34.8c0 .1-.1.2-.2.1s-.2-.2-.2-.4c0-.1.1-.2.2-.1s.2.3.2.4z" fill="#cc291f"/><path d="m33 32.5v3l9 13.5v-3.1z" opacity=".06"/><path d="m42.4 40.1-9-13.4-.4.2v3l9 13.5.4-.2z" fill="#f90"/><path d="m42 40.3.4-.2v3.1l-.4.2z" opacity=".39"/><path d="m41.8 41.1c0 .1-.1.2-.2.1s-.2-.2-.2-.4.1-.2.2-.1c.1.2.2.3.2.4z" fill="#cc291f"/><path d="m33.6 29.2c0 .1-.1.2-.2.1s-.2-.2-.2-.4c0-.1.1-.2.2-.1s.2.3.2.4z" fill="#cc291f"/><path d="m33 26.9v3l9 13.5v-3.1z" opacity=".06"/><path d="m40 39-2 1v11l2 1 2-1v-11z" fill="#825012"/><path d="m42 51-2 1v-11l2-1z" opacity=".39"/><path d="m38 51 2 1v-11l-2-1z" opacity=".06"/><path d="m32 17-2 1v29l2 1 2-1v-29z" fill="#825012"/><path d="m34 47-2 1v-29l2-1z" opacity=".39"/><path d="m30 47 2 1v-29l-2-1z" opacity=".06"/><path d="m20 13-2 1v27l2 1 2-1v-27z" fill="#825012"/><path d="m22 41-2 1v-27l2-1z" opacity=".39"/><path d="m18 41 2 1v-27l-2-1z" opacity=".06"/><path d="m20 34.2-2 1-.4-.2v-11l2-1 .4.2z" fill="#cc291f"/><path d="m17.6 35 .4.2v-11l-.4-.2z" opacity=".06"/><path d="m18.7 27c0 .1.1.2.2.1s.2-.2.2-.4c0-.1-.1-.2-.2-.1s-.2.3-.2.4z" fill="#f90"/><path d="m18.7 31.2c0 .1.1.2.2.1s.2-.2.2-.4-.1-.2-.2-.1-.2.3-.2.4z" fill="#f90"/><path d="m20 34.2-2 1v-11l2-1z" opacity=".39"/><path d="m18 14 15-8 6-6-14 7z" fill="#fc0"/><path d="m39 0-14 7 7 14v1l14-7v-1z" fill="#f90"/><path d="m32 21 14-7v1l-14 7z" opacity=".39"/><path d="m25 7-7 7v1l14 7v-1z" fill="#cc291f"/><path d="m19.2 15c0 .1-.1.2-.2.1s-.2-.2-.2-.4.1-.2.2-.1.2.3.2.4z" fill="#f90"/><path d="m31.3 21c0 .1-.1.2-.2.1s-.2-.2-.2-.4.1-.2.2-.1.2.3.2.4z" fill="#f90"/><path d="m25 7-7 7v1l14 7v-1z" opacity=".06"/><path d="m22 31-2.7 1.3c-.9.4-1.6 1.1-2 1.9l-5.5 9.4c-.5.8-1.2 1.5-2 1.9l-2 1c-1.8 1-2.8 2.7-2.8 4.5l.4.1 4.7-2.3c.9-.4 1.6-1.1 2-1.9l5.5-9.4c.5-.8 1.2-1.5 2-1.9l2.7-1.3v-3z" fill="#cc291f"/><path d="m22.4 31.1v3l-2.7 1.3c-.9.4-1.6 1.1-2 1.9l-5.5 9.4c-.5.8-1.2 1.5-2 1.9l-4.7 2.3c0-1.8 1-3.5 2.7-4.3l2-1c.9-.4 1.6-1.1 2-1.9l5.5-9.4c.5-.8 1.2-1.5 2-1.9z" opacity=".39"/><path d="m22 33 6 3-2.7 1.3c-.9.4-1.6 1.1-2 1.9l-5.5 9.4c-.5.8-1.2 1.5-2 1.9l-1.8.9c-.7.4-1 1-1 1.6l-6-3c0-.6.3-1.2.9-1.4l1.8-.9c.9-.4 1.6-1.1 2-1.9l5.5-9.4c.5-.8 1.2-1.5 2-1.9z" fill="#999"/><path d="m27.6 33.9-2.7 1.3c-.9.4-1.6 1.1-2 1.9l-5.5 9.4c-.5.8-1.2 1.5-2 1.9l-2 1c-1.6.8-2.7 2.5-2.7 4.3l.3.3 4.7-2.3c.9-.4 1.6-1.1 2-1.9l5.5-9.4c.5-.8 1.2-1.5 2-1.9l2.8-1.5v-3z" fill="#cc291f"/><path d="m28 34v3l-2.7 1.3c-.9.4-1.6 1.1-2 1.9l-5.5 9.4c-.5.8-1.2 1.5-2 1.9l-4.8 2.5c0-1.8 1-3.5 2.7-4.3l2-1c.9-.4 1.6-1.1 2-1.9l5.5-9.4c.5-.8 1.2-1.5 2-1.9z" opacity=".39"/><path d="m29 32.5c-.1 0-.2 0-.2-.1l-10-5c-.2-.1-.3-.4-.2-.7.1-.2.4-.3.7-.2l10 5c.2.1.3.4.2.7-.1.2-.3.3-.5.3z" fill="#cc291f"/><path d="m30 39-2 1-.4-.2v-11l2-1 .4.2z" fill="#cc291f"/><path d="m27.6 39.8.4.2v-11l-.4-.2z" opacity=".06"/><path d="m28.7 31.8c0 .1.1.2.2.1s.2-.2.2-.4-.1-.2-.2-.1-.2.3-.2.4z" fill="#f90"/><path d="m28.7 36c0 .1.1.2.2.1s.2-.2.2-.4c0-.1-.1-.2-.2-.1s-.2.3-.2.4z" fill="#f90"/><path d="m30 39-2 1v-11l2-1z" opacity=".39"/></svg>