<svg enable-background="new 0 0 48 56" viewBox="0 0 48 56" xmlns="http://www.w3.org/2000/svg"><path d="m2.8 33.7-1.4-.7-1.4.7v2.1l1.4.7 1.4-.7z" fill="#825012"/><path d="m0 33.7 1.4.7v2.1l-1.4-.7z" opacity=".11"/><path d="m2.8 33.7-1.4.7v2.1l1.4-.7z" opacity=".39"/><path d="m9.8 37.2-1.4-.7-1.4.7v2.1l1.4.7 1.4-.7z" fill="#825012"/><path d="m7 37.2 1.4.7v2.1l-1.4-.7z" opacity=".11"/><path d="m9.8 37.2-1.4.7v2.1l1.4-.7z" opacity=".39"/><path d="m27.3 28.5-1.4-.7-1.4.7v2l1.4.8 1.4-.8z" fill="#825012"/><path d="m24.5 28.5 1.4.6v2.2l-1.4-.8z" opacity=".11"/><path d="m27.3 28.5-1.4.6v2.2l1.4-.8z" opacity=".39"/><path d="m19.6 23.9-.7-.4-18.9 9.5v1.4l.7.4 18.9-9.5z" fill="#825012"/><path d="m0 33 .7.3v1.5l-.7-.4z" opacity=".11"/><path d="m19.6 23.9-18.9 9.4v1.5l18.9-9.5z" opacity=".39"/><path d="m9.4 36.5-6.9-3.5-1.5.7v.7l7.1 3.5 1.3-.7z" fill="#825012"/><path d="m1 33.7 7.1 3.5v.7l-7.1-3.5z" opacity=".11"/><path d="m11.6 35.5-7-3.5-1.4.7v.6l6.9 3.5 1.5-.6z" fill="#825012"/><path d="m3.2 32.7 6.9 3.5v.6l-6.9-3.5z" opacity=".11"/><path d="m13.6 34.4-6.9-3.5-1.4.7v.7l7 3.5 1.3-.7z" fill="#825012"/><path d="m5.3 31.6 7 3.5v.7l-7-3.5z" opacity=".11"/><path d="m15.8 33.3-7-3.4-1.5.6v.8l7.1 3.5 1.4-.8z" fill="#825012"/><path d="m7.3 30.5 7.1 3.5v.8l-7.1-3.5z" opacity=".11"/><path d="m17.9 32.3-7-3.5-1.5.7v.7l7.1 3.5 1.4-.7z" fill="#825012"/><path d="m9.4 29.5 7.1 3.5v.7l-7.1-3.5z" opacity=".11"/><path d="m20 31.3-7.1-3.5-1.3.7v.6l6.9 3.6 1.5-.7z" fill="#825012"/><path d="m11.6 28.5 6.9 3.5v.7l-6.9-3.6z" opacity=".11"/><path d="m26.6 27.8-7-3.5-.7.3v.7l7 3.5.7-.3z" fill="#825012"/><path d="m18.9 24.6 7 3.5v.7l-7-3.5z" opacity=".11"/><path d="m26.6 27.8-.7.3v.7l.7-.3z" opacity=".39"/><path d="m21 20-.7-.3-7.4 7.3v.8l.7.3 7.4-7.3z" fill="#825012"/><path d="m12.9 27 .7.4v.7l-.7-.3z" opacity=".11"/><path d="m21 20-7.4 7.4v.7l7.4-7.3z" opacity=".39"/><path d="m27.6 23.9-7-3.5-.6.7v.7l7 3.5.6-.7z" fill="#825012"/><path d="m20 21.1 7 3.5v.7l-7-3.5z" opacity=".11"/><path d="m26.6 25-7-3.5-.7.6v.8l7 3.5.7-.8z" fill="#825012"/><path d="m18.9 22.1 7 3.5v.8l-7-3.5z" opacity=".11"/><path d="m25.5 26-7-3.5-.6.7v.7l7 3.5.6-.7z" fill="#825012"/><path d="m17.9 23.2 7 3.5v.7l-7-3.5z" opacity=".11"/><path d="m24.5 27-7-3.5-.7.8v.7l7 3.5.7-.7z" fill="#825012"/><path d="m16.8 24.3 7 3.5v.7l-7-3.5z" opacity=".11"/><path d="m23.5 28.1-7-3.5-.7.7v.7l7 3.5.7-.7z" fill="#825012"/><path d="m15.8 25.3 7 3.5v.7l-7-3.5z" opacity=".11"/><path d="m22.4 29.1-7-3.5-.7.8v.6l7 3.5.7-.6z" fill="#825012"/><path d="m14.7 26.4 7 3.5v.6l-7-3.5z" opacity=".11"/><path d="m21.4 30.2-7-3.5-.8.7v.7l7 3.5.8-.7z" fill="#825012"/><path d="m13.6 27.4 7 3.5v.7l-7-3.5z" opacity=".11"/><path d="m28 23.5-.7-.3-7.3 7.3v.8l.6.3 7.4-7.3z" fill="#825012"/><path d="m20 30.5.6.4v.7l-.6-.3z" opacity=".11"/><path d="m28 23.5-7.4 7.4v.7l7.4-7.3z" opacity=".39"/><path d="m27.3 27.8-.7-.4-18.9 9.4v1.5l.7.3 18.9-9.5z" fill="#825012"/><path d="m7.7 36.8.7.4v1.4l-.7-.3z" opacity=".11"/><path d="m27.3 27.8-18.9 9.4v1.4l18.9-9.5z" opacity=".39"/><ellipse cx="25" cy="36" opacity=".2" rx="8" ry="4"/><path d="m26 4h-2v32.3c0 .3.4.5 1 .5s1-.2 1-.5c0-.1 0-32.3 0-32.3z" fill="#999"/><path d="m26 4h-2v32.3c0 .3.4.5 1 .5s1-.2 1-.5c0-.1 0-32.3 0-32.3z" opacity=".2"/><path d="m22.8 43.7-1.4-.7-1.4.7v2.1l1.4.7 1.4-.7z" fill="#825012"/><path d="m20 43.7 1.4.7v2.1l-1.4-.7z" opacity=".11"/><path d="m22.8 43.7-1.4.7v2.1l1.4-.7z" opacity=".39"/><path d="m29.8 47.2-1.4-.7-1.4.7v2.1l1.4.7 1.4-.7z" fill="#825012"/><path d="m27 47.2 1.4.7v2.1l-1.4-.7z" opacity=".11"/><path d="m29.8 47.2-1.4.7v2.1l1.4-.7z" opacity=".39"/><path d="m47.3 38.5-1.4-.7-1.4.7v2l1.4.8 1.4-.8z" fill="#825012"/><path d="m44.5 38.5 1.4.7v2.1l-1.4-.8z" opacity=".11"/><path d="m47.3 38.5-1.4.7v2.1l1.4-.8z" opacity=".39"/><path d="m39.6 33.9-.7-.4-18.9 9.5v1.4l.7.4 18.9-9.5z" fill="#825012"/><path d="m20 43 .7.3v1.5l-.7-.4z" opacity=".11"/><path d="m39.6 33.9-18.9 9.4v1.5l18.9-9.5z" opacity=".39"/><path d="m29.5 46.5-7-3.5-1.5.7v.7l7 3.5 1.5-.7z" fill="#825012"/><path d="m21 43.7 7 3.5v.7l-7-3.5z" opacity=".11"/><path d="m31.5 45.5-7-3.5-1.4.7v.6l7 3.5 1.4-.6z" fill="#825012"/><path d="m23.1 42.7 7 3.5v.6l-7-3.5z" opacity=".11"/><path d="m33.7 44.4-7.1-3.5-1.3.7v.7l7 3.5 1.4-.7z" fill="#825012"/><path d="m25.3 41.6 7 3.5v.7l-7-3.5z" opacity=".11"/><path d="m35.8 43.3-7-3.5-1.4.7v.8l6.9 3.5 1.5-.8z" fill="#825012"/><path d="m27.4 40.5 6.9 3.5v.8l-6.9-3.5z" opacity=".11"/><path d="m37.8 42.3-6.9-3.5-1.4.7v.7l7 3.5 1.3-.7z" fill="#825012"/><path d="m29.5 39.5 7 3.5v.7l-7-3.5z" opacity=".11"/><path d="m40 41.3-7-3.5-1.5.7v.7l7 3.5 1.5-.7z" fill="#825012"/><path d="m31.5 38.5 7 3.5v.7l-7-3.5z" opacity=".11"/><path d="m46.6 37.8-7-3.5-.7.3v.7l7 3.5.7-.3z" fill="#825012"/><path d="m38.9 34.6 7 3.5v.7l-7-3.5z" opacity=".11"/><path d="m46.6 37.8-.7.3v.7l.7-.3z" opacity=".39"/><path d="m41 30-.7-.3-7.3 7.3v.8l.7.3 7.3-7.3z" fill="#825012"/><path d="m33 37 .7.4v.7l-.7-.3z" opacity=".11"/><path d="m41 30-7.3 7.4v.7l7.3-7.3z" opacity=".39"/><path d="m47.7 33.9-7-3.5-.7.7v.7l7 3.5.7-.7z" fill="#825012"/><path d="m40 31.1 7 3.5v.7l-7-3.5z" opacity=".11"/><path d="m46.6 35-7-3.5-.7.7v.6l7 3.5.7-.6z" fill="#825012"/><path d="m38.9 32.2 7 3.5v.6l-7-3.5z" opacity=".11"/><path d="m45.5 36-7-3.5-.7.7v.7l7 3.5.7-.7z" fill="#825012"/><path d="m37.8 33.2 7 3.5v.7l-7-3.5z" opacity=".11"/><path d="m44.5 37-7-3.5-.7.8v.7l7 3.5.7-.7z" fill="#825012"/><path d="m36.8 34.3 7 3.5v.7l-7-3.5z" opacity=".11"/><path d="m43.5 38.1-7-3.5-.7.7v.7l7 3.5.7-.7z" fill="#825012"/><path d="m35.8 35.3 7 3.5v.7l-7-3.5z" opacity=".11"/><path d="m42.4 39.2-7-3.5-.7.6v.7l7 3.5.7-.7z" fill="#825012"/><path d="m34.7 36.3 7 3.5v.7l-7-3.5z" opacity=".11"/><path d="m41.3 40.2-7-3.5-.6.7v.7l7 3.5.6-.7z" fill="#825012"/><path d="m33.7 37.4 7 3.5v.7l-7-3.5z" opacity=".11"/><path d="m48 33.5-.7-.3-7.3 7.3v.8l.7.3 7.3-7.3z" fill="#825012"/><path d="m40 40.5.7.4v.7l-.7-.3z" opacity=".11"/><path d="m48 33.5-7.3 7.4v.7l7.3-7.3z" opacity=".39"/><path d="m47.3 37.8-.7-.4-18.9 9.4v1.5l.7.3 18.9-9.4z" fill="#825012"/><path d="m27.7 46.8.7.4v1.4l-.7-.3z" opacity=".11"/><path d="m47.3 37.8-18.9 9.4v1.4l18.9-9.4z" opacity=".39"/><path d="m25 2 13 1 3 5z" fill="#f90"/><path d="m25 2 13 1-8-3z" fill="#cc291f"/><path d="m25 2-13 1-3 5z" fill="#f90"/><path d="m25 2-13 1 8-3z" fill="#cc291f"/><path d="m25 2-5-2h10z" fill="#f90"/><path d="m25 2-5 14v2h10v-2z" fill="#cc291f"/><path d="m25 2 5 14v2l8-3v-2z" fill="#f90"/><path d="m25 2 13 11v2l3-5v-2z" fill="#cc291f"/><path d="m12 13v2l8 3v-2l5-14z" fill="#f90"/><path d="m9 8v2l3 5v-2l13-11z" fill="#cc291f"/><path d="m38 13-8 3h-10l-8-3-3-5v2l3 5 8 3h10l8-3 3-5v-2z" opacity=".2"/></svg>