<svg enable-background="new 0 0 32 40" viewBox="0 0 32 40" xmlns="http://www.w3.org/2000/svg"><path d="m16 20c-8.8 0-16 3.6-16 8v4c0 4.4 7.2 8 16 8s16-3.6 16-8v-4c0-4.4-7.2-8-16-8z" fill="#e5e5e5"/><path d="m16 36c-8.8 0-16-3.6-16-8v4c0 4.4 7.2 8 16 8s16-3.6 16-8v-4c0 4.4-7.2 8-16 8z" opacity=".2"/><ellipse cx="16" cy="28" opacity=".5" rx="14" ry="6"/><path d="m16 24c-6.9 0-12.7 2.2-13.8 5 1.1 2.8 6.9 5 13.8 5s12.7-2.2 13.8-5c-1.1-2.8-6.9-5-13.8-5z" fill="#39c"/><path d="m16 23c-1.7 0-3 .7-3 1.5v6c0 .8 1.3 1.5 3 1.5s3-.7 3-1.5v-6c0-.8-1.3-1.5-3-1.5z" fill="#e5e5e5"/><path d="m16 26c-1.7 0-3-.7-3-1.5v6c0 .8 1.3 1.5 3 1.5s3-.7 3-1.5v-6c0 .8-1.3 1.5-3 1.5z" opacity=".2"/><path d="m16 30.5c-1.7 0-3-.7-3-1.5v1.7c0 .8 1.3 1.5 3 1.5s3-.7 3-1.5v-1.7c0 .8-1.3 1.5-3 1.5z" fill="#39c" opacity=".4"/><path d="m22 21.1c0 3.3-2.7 5.9-6 5.9s-6-2.6-6-5.9" fill="#e5e5e5"/><path d="m22 21.1c0 3.3-2.7 5.9-6 5.9s-6-2.6-6-5.9" opacity=".2"/><path d="m16 26.5c-1.8 0-3.5-.7-4.7-1.7 1.1 1.4 2.8 2.2 4.7 2.2s3.6-.9 4.7-2.2c-1.2 1-2.9 1.7-4.7 1.7z" opacity=".1"/><ellipse cx="16" cy="21" fill="#e5e5e5" rx="6" ry="3"/><ellipse cx="16" cy="21" opacity=".5" rx="4.5" ry="1.9"/><path d="m16 19.6c-2.3 0-4.1.7-4.5 1.6.3.9 2.2 1.6 4.5 1.6s4.1-.7 4.5-1.6c-.4-.8-2.2-1.6-4.5-1.6z" fill="#39c"/><path d="m16 16.5c-1.1 0-2 .4-2 1v4c0 .6.9 1 2 1s2-.4 2-1v-4c0-.6-.9-1-2-1z" fill="#e5e5e5"/><path d="m16 18.5c-1.1 0-2-.4-2-1v4c0 .6.9 1 2 1s2-.4 2-1v-4c0 .6-.9 1-2 1z" opacity=".2"/><path d="m16 21.9c-1.1 0-2-.4-2-1v.8c0 .6.9 1 2 1s2-.4 2-1v-.8c0 .6-.9 1-2 1z" fill="#39c" opacity=".4"/><path d="m21 13.6c0 2.7-2.2 4.9-5 4.9s-5-2.2-5-4.9" fill="#e5e5e5"/><path d="m21 13.6c0 2.7-2.2 4.9-5 4.9s-5-2.2-5-4.9" opacity=".2"/><path d="m16 18.1c-1.5 0-2.9-.6-3.9-1.4.9 1.1 2.3 1.9 3.9 1.9s3-.7 3.9-1.9c-1 .8-2.4 1.4-3.9 1.4z" opacity=".1"/><ellipse cx="16" cy="13.5" fill="#e5e5e5" rx="5" ry="2.5"/><ellipse cx="16" cy="13.5" opacity=".5" rx="3.8" ry="1.6"/><path d="m16 12.4c-1.9 0-3.5.6-3.7 1.3.3.8 1.8 1.3 3.7 1.3s3.5-.6 3.7-1.3c-.2-.7-1.8-1.3-3.7-1.3z" fill="#39c"/><path d="m16 9.2c-.6 0-1 .2-1 .5v4.5c0 .3.4.5 1 .5s1-.2 1-.5v-4.5c0-.3-.4-.5-1-.5z" fill="#e5e5e5"/><path d="m16 10.2c-.6 0-1-.2-1-.5v4.5c0 .3.4.5 1 .5s1-.2 1-.5v-4.5c0 .3-.4.5-1 .5z" opacity=".2"/><path d="m16 14.2c-.6 0-1-.2-1-.5v.8c0 .3.4.5 1 .5s1-.2 1-.5v-.8c0 .2-.4.5-1 .5z" fill="#39c" opacity=".4"/><circle cx="16" cy="10" fill="#e5e5e5" r="2"/><ellipse cx="16" cy="8.8" fill="#fff" opacity=".2" rx="1" ry=".7"/><path d="m16 11.4c-.8 0-1.6-.4-2-1.1.2.9 1 1.7 2 1.7s1.8-.7 2-1.7c-.4.7-1.2 1.1-2 1.1z" opacity=".1"/><g fill="#39c"><path d="m16 9s.1-3-2-3-2 8-2 8 .3-7.6 2.1-7.6 1.9 2.6 1.9 2.6z" opacity=".4"/><path d="m16 9s0-2-1-2c-1.3 0-1 7.7-1 7.7s.1-7.2 1.1-7.2c.9 0 .9 1.5.9 1.5z" opacity=".4"/><path d="m16 9s-.1-3 2-3 2 8 2 8-.3-7.6-2.1-7.6-1.9 2.6-1.9 2.6z" opacity=".4"/><path d="m17 14s.9-2 3-2c3 0 1 8.3 1 8.3s1.3-7.8-1-7.8c-1.8-.1-3 1.5-3 1.5z" opacity=".4"/><path d="m16 15s-.1-.7 2-.7c3 0 0 8.1 0 8.1s2.3-7.6 0-7.6c-1.8-.1-2 .2-2 .2z" opacity=".4"/><path d="m15 14s-.9-2-3-2c-3 0-1 8.3-1 8.3s-1.3-7.8 1-7.8c1.8-.1 3 1.5 3 1.5z" opacity=".4"/><path d="m16 15s.1-.7-2-.7c-3 0 0 8.1 0 8.1s-2.3-7.6 0-7.6c1.8-.1 2 .2 2 .2z" opacity=".4"/><path d="m16 8.9s0-1.9 1-1.9c1.3 0 1 7.7 1 7.7s-.1-7.2-1.1-7.2c-.9 0-.9 1.4-.9 1.4z" opacity=".4"/><path d="m16 15s-.2-.5-.2.7.2 5.3.2 5.3.2-3.9.2-5.3-.2-.7-.2-.7z" opacity=".4"/><path d="m20 22s-.1-1.5 2-1.5c3.7 0 1 10.5 1 10.5s2-10-1-10c-1.8 0-2 1-2 1z" opacity=".4"/><path d="m18 22.7s0-.7 1.5-.7c2.9 0 .7 9 .7 9s1.4-8.6-.7-8.6c-1.3 0-1.5.3-1.5.3z" opacity=".4"/><path d="m12 22s.1-1.5-2-1.5c-3.7 0-1 10.5-1 10.5s-2-10 1-10c1.8 0 2 1 2 1z" opacity=".4"/><path d="m14 22.7s0-.7-1.5-.7c-2.9 0-.7 9-.7 9s-1.4-8.6.7-8.6c1.3 0 1.5.3 1.5.3z" opacity=".4"/><path d="m16 22.8s-.2-.9-.2.6c0 1.2.2 6.5.2 6.5s.2-5.1.2-6.5-.2-.6-.2-.6z" opacity=".4"/><path d="m16 8.9s-.2-1.3-.2-1 .2 5.8.2 5.8.2-5.5.2-5.8-.2 1-.2 1z" opacity=".4"/></g></svg>